//Event file generated from Sappy .s format.
	#include "MPlayDef.event"

	#define	KHCoMScherzoDiNotteOLDAzula_grp  voicegroup000
	#define	KHCoMScherzoDiNotteOLDAzula_pri  0
	#define	KHCoMScherzoDiNotteOLDAzula_rev  128
	#define	KHCoMScherzoDiNotteOLDAzula_mvl  127
	#define	KHCoMScherzoDiNotteOLDAzula_key  0
	#define	KHCoMScherzoDiNotteOLDAzula_tbs  1
	#define	KHCoMScherzoDiNotteOLDAzula_exg  0
	#define	KHCoMScherzoDiNotteOLDAzula_cmp  1

	// .rodata
	//	KHCoMScherzoDiNotteOLDAzula
	ALIGN 4


//**************** Track 1 (Midi-Chn.0) ****************//

KHCoMScherzoDiNotteOLDAzula_001:
//  #01 //000   ----------------------------------------
 BYTE   KEYSH   KHCoMScherzoDiNotteOLDAzula_key+0
 BYTE   TEMPO   140*KHCoMScherzoDiNotteOLDAzula_tbs/2
 BYTE   VOICE   34
 BYTE   VOL   38*KHCoMScherzoDiNotteOLDAzula_mvl/mxv
 BYTE   PAN   c_v+0
 BYTE   N07  Bn1  v100
 BYTE   N07  Bn2
 BYTE   W12
 BYTE   Cs2
 BYTE   N07  Fs2
 BYTE   N07  Cs3
 BYTE   N07  Fs3
 BYTE   W12
 BYTE   Dn2
 BYTE   N07  Fs2
 BYTE   N07  An2
 BYTE   N07  Dn3
 BYTE   N07  Fs3
 BYTE   N07  An3
 BYTE   W12
 BYTE   Bn1
 BYTE   N07  Bn2
 BYTE   W12
 BYTE   Cs2
 BYTE   N07  Fs2
 BYTE   N07  Cs3
 BYTE   N07  Fs3
 BYTE   W12
 BYTE   Dn2
 BYTE   N07  Fs2
 BYTE   N07  An2
 BYTE   N07  Dn3
 BYTE   N07  Fs3
 BYTE   N07  An3
 BYTE   W12
Label_015A2638:
 BYTE   N07  Bn1  v100
 BYTE   N07  Bn2
 BYTE   W12
 BYTE   Cs2
 BYTE   N07  Fs2
 BYTE   N07  Cs3
 BYTE   N07  Fs3
 BYTE   W12
//  #01 //001   ----------------------------------------
 BYTE   Dn2
 BYTE   N07  Fs2
 BYTE   N07  An2
 BYTE   N07  Dn3
 BYTE   N07  Fs3
 BYTE   N07  An3
 BYTE   W12
 BYTE   Bn1
 BYTE   N07  Bn2
 BYTE   W12
 BYTE   Cs2
 BYTE   N07  Fs2
 BYTE   N07  Cs3
 BYTE   N07  Fs3
 BYTE   W12
 BYTE   Dn2
 BYTE   N07  Fs2
 BYTE   N07  An2
 BYTE   N07  Dn3
 BYTE   N07  Fs3
 BYTE   N07  An3
 BYTE   W12
 BYTE   PEND 
Label_015A266B:
//  #01 //002   ----------------------------------------
 BYTE   PATT
  POIN2 Label_015A2638
//  #01 //003   ----------------------------------------
 BYTE   PATT
  POIN2 Label_015A2638
//  #01 //004   ----------------------------------------
 BYTE   PATT
  POIN2 Label_015A2638
//  #01 //005   ----------------------------------------
 BYTE   PATT
  POIN2 Label_015A2638
//  #01 //006   ----------------------------------------
Label_015A267F:
 BYTE   N07  An1  v100
 BYTE   N07  An2
 BYTE   W12
 BYTE   An1
 BYTE   N07  Cs2
 BYTE   N07  An2
 BYTE   N07  Cs3
 BYTE   W12
 BYTE   An1
 BYTE   N07  Cs2
 BYTE   N07  Fs2
 BYTE   N07  An2
 BYTE   N07  Cs3
 BYTE   N07  Fs3
 BYTE   W12
 BYTE   An1
 BYTE   N07  An2
 BYTE   W12
 BYTE   An1
 BYTE   N07  Cs2
 BYTE   N07  An2
 BYTE   N07  Cs3
 BYTE   W12
 BYTE   An1
 BYTE   N07  Cs2
 BYTE   N07  Fs2
 BYTE   N07  An2
 BYTE   N07  Cs3
 BYTE   N07  Fs3
 BYTE   W12
 BYTE   PEND 
//  #01 //007   ----------------------------------------
 BYTE   PATT
  POIN2 Label_015A267F
//  #01 //008   ----------------------------------------
 BYTE   PATT
  POIN2 Label_015A267F
//  #01 //009   ----------------------------------------
 BYTE   PATT
  POIN2 Label_015A267F
//  #01 //010   ----------------------------------------
Label_015A26C1:
 BYTE   N07  Gn1  v100
 BYTE   N07  Gn2
 BYTE   N10  Gn4
 BYTE   N10  Bn4
 BYTE   W24
 BYTE   Gn4
 BYTE   N10  Bn4
 BYTE   W24
 BYTE   Gn4
 BYTE   N10  Bn4
 BYTE   W12
 BYTE   N07  Gn1
 BYTE   N07  Gn2
 BYTE   N10  Gn4
 BYTE   N10  Bn4
 BYTE   W12
 BYTE   PEND 
Label_015A26DD:
 BYTE   N07  An1  v100
 BYTE   N07  An2
 BYTE   N10  An4
 BYTE   N10  Cs5
 BYTE   W24
//  #01 //011   ----------------------------------------
 BYTE   An4
 BYTE   N10  Cs5
 BYTE   W24
 BYTE   An4
 BYTE   N10  Cs5
 BYTE   W12
 BYTE   N07  An1
 BYTE   N07  An2
 BYTE   N10  An4
 BYTE   N10  Cs5
 BYTE   W12
 BYTE   PEND 
Label_015A26F9:
 BYTE   N07  Fn1  v100
 BYTE   N07  Fn2
 BYTE   N10  An4
 BYTE   N10  Cn5
 BYTE   W24
 BYTE   An4
 BYTE   N10  Cn5
 BYTE   W24
//  #01 //012   ----------------------------------------
 BYTE   An4
 BYTE   N10  Cn5
 BYTE   W12
 BYTE   N07  Fn1
 BYTE   N07  Fn2
 BYTE   N10  An4
 BYTE   N10  Cn5
 BYTE   W12
 BYTE   PEND 
Label_015A2715:
 BYTE   N07  An1  v100
 BYTE   N07  An2
 BYTE   N10  An4
 BYTE   N10  Cs5
 BYTE   W24
 BYTE   An4
 BYTE   N10  Cs5
 BYTE   W12
 BYTE   N07  Bn1
 BYTE   N07  Bn2
 BYTE   W36
 BYTE   PEND 
//  #01 //013   ----------------------------------------
 BYTE   PATT
  POIN2 Label_015A2638
//  #01 //014   ----------------------------------------
 BYTE   PATT
  POIN2 Label_015A2638
//  #01 //015   ----------------------------------------
 BYTE   PATT
  POIN2 Label_015A2638
//  #01 //016   ----------------------------------------
 BYTE   PATT
  POIN2 Label_015A2638
//  #01 //017   ----------------------------------------
 BYTE   PATT
  POIN2 Label_015A267F
//  #01 //018   ----------------------------------------
 BYTE   PATT
  POIN2 Label_015A267F
//  #01 //019   ----------------------------------------
 BYTE   PATT
  POIN2 Label_015A267F
//  #01 //020   ----------------------------------------
 BYTE   PATT
  POIN2 Label_015A267F
//  #01 //021   ----------------------------------------
Label_015A2751:
 BYTE   N07  Gn2  v100
 BYTE   N10  Gn4
 BYTE   N10  Bn4
 BYTE   W24
 BYTE   Gn4
 BYTE   N10  Bn4
 BYTE   W24
 BYTE   Gn4
 BYTE   N10  Bn4
 BYTE   W12
 BYTE   N07  Gn2
 BYTE   N10  Gn4
 BYTE   N10  Bn4
 BYTE   W12
 BYTE   PEND 
Label_015A2769:
 BYTE   N07  Fn2  v100
 BYTE   N10  Fn4
 BYTE   N10  An4
 BYTE   W24
//  #01 //022   ----------------------------------------
 BYTE   Fn4
 BYTE   N10  An4
 BYTE   W24
 BYTE   N07  Fn2
 BYTE   N10  Fn4
 BYTE   N10  An4
 BYTE   W12
 BYTE   N07  Fn2
 BYTE   N10  Fn4
 BYTE   N10  An4
 BYTE   W12
 BYTE   PEND 
Label_015A2784:
 BYTE   N07  En2  v100
 BYTE   N10  En4
 BYTE   N10  Gn4
 BYTE   W24
 BYTE   En4
 BYTE   N10  Gn4
 BYTE   W24
//  #01 //023   ----------------------------------------
 BYTE   En4
 BYTE   N10  Gn4
 BYTE   W12
 BYTE   N07  En2
 BYTE   N10  En4
 BYTE   N10  Gn4
 BYTE   W12
 BYTE   PEND 
Label_015A279C:
 BYTE   N07  Ds2  v100
 BYTE   N10  Fs4
 BYTE   N10  An4
 BYTE   W24
 BYTE   Fs4
 BYTE   N10  An4
 BYTE   W24
 BYTE   N07  Ds2
 BYTE   N10  Fs4
 BYTE   N10  An4
 BYTE   W12
 BYTE   N07  Ds2
 BYTE   N10  Fs4
 BYTE   N10  An4
 BYTE   W12
 BYTE   PEND 
//  #01 //024   ----------------------------------------
Label_015A27B7:
 BYTE   N07  Ds2  v100
 BYTE   N07  Ds3
 BYTE   W12
 BYTE   Ds2
 BYTE   N07  Gn2
 BYTE   N07  Ds3
 BYTE   N07  Gn3
 BYTE   W12
 BYTE   Ds2
 BYTE   N07  Gn2
 BYTE   N07  Cs3
 BYTE   N07  Ds3
 BYTE   N07  Gn3
 BYTE   N07  Cs4
 BYTE   W12
 BYTE   Ds2
 BYTE   N07  Ds3
 BYTE   W12
 BYTE   Ds2
 BYTE   N07  Gn2
 BYTE   N07  Ds3
 BYTE   N07  Gn3
 BYTE   W12
 BYTE   Ds2
 BYTE   N07  Gn2
 BYTE   N07  Cs3
 BYTE   N07  Ds3
 BYTE   N07  Gn3
 BYTE   N07  Cs4
 BYTE   W12
 BYTE   PEND 
//  #01 //025   ----------------------------------------
 BYTE   PATT
  POIN2 Label_015A27B7
//  #01 //026   ----------------------------------------
Label_015A27EF:
 BYTE   N07  Dn2  v100
 BYTE   N07  Dn3
 BYTE   W12
 BYTE   Dn2
 BYTE   N07  Fs2
 BYTE   N07  Dn3
 BYTE   N07  Fs3
 BYTE   W12
 BYTE   Dn2
 BYTE   N07  Fs2
 BYTE   N07  An2
 BYTE   N07  Dn3
 BYTE   N07  Fs3
 BYTE   N07  An3
 BYTE   W12
 BYTE   Dn2
 BYTE   N07  Dn3
 BYTE   W12
 BYTE   Dn2
 BYTE   N07  Fs2
 BYTE   N07  Dn3
 BYTE   N07  Fs3
 BYTE   W12
 BYTE   Dn2
 BYTE   N07  Fs2
 BYTE   N07  An2
 BYTE   N07  Dn3
 BYTE   N07  Fs3
 BYTE   N07  An3
 BYTE   W12
 BYTE   PEND 
//  #01 //027   ----------------------------------------
 BYTE   PATT
  POIN2 Label_015A27EF
//  #01 //028   ----------------------------------------
 BYTE   PATT
  POIN2 Label_015A2638
//  #01 //029   ----------------------------------------
 BYTE   PATT
  POIN2 Label_015A2638
//  #01 //030   ----------------------------------------
Label_015A2831:
 BYTE   N07  Gn1  v100
 BYTE   N07  Gn2
 BYTE   W12
 BYTE   Gn1
 BYTE   N07  Cn2
 BYTE   N07  Gn2
 BYTE   N07  Cn3
 BYTE   W12
 BYTE   Gn1
 BYTE   N07  Cn2
 BYTE   N07  Ds2
 BYTE   N07  Gn2
 BYTE   N07  Cn3
 BYTE   N07  Ds3
 BYTE   W12
 BYTE   Gn1
 BYTE   N07  Gn2
 BYTE   W12
 BYTE   Gn1
 BYTE   N07  Cn2
 BYTE   N07  Gn2
 BYTE   N07  Cn3
 BYTE   W12
 BYTE   Gn1
 BYTE   N07  Cn2
 BYTE   N07  Ds2
 BYTE   N07  Gn2
 BYTE   N07  Cn3
 BYTE   N07  Ds3
 BYTE   W12
 BYTE   PEND 
//  #01 //031   ----------------------------------------
 BYTE   PATT
  POIN2 Label_015A2831
//  #01 //032   ----------------------------------------
 BYTE   PATT
  POIN2 Label_015A2638
//  #01 //033   ----------------------------------------
 BYTE   PATT
  POIN2 Label_015A2638
//  #01 //034   ----------------------------------------
 BYTE   PATT
  POIN2 Label_015A2831
//  #01 //035   ----------------------------------------
 BYTE   PATT
  POIN2 Label_015A2831
//  #01 //036   ----------------------------------------
 BYTE   GoTo
  POIN2 Label_015A266B
//  #01 //037   ----------------------------------------
 BYTE   PATT
  POIN2 Label_015A2638
//  #01 //038   ----------------------------------------
 BYTE   PATT
  POIN2 Label_015A2638
//  #01 //039   ----------------------------------------
 BYTE   PATT
  POIN2 Label_015A2638
//  #01 //040   ----------------------------------------
 BYTE   PATT
  POIN2 Label_015A2638
//  #01 //041   ----------------------------------------
 BYTE   PATT
  POIN2 Label_015A267F
//  #01 //042   ----------------------------------------
 BYTE   PATT
  POIN2 Label_015A267F
//  #01 //043   ----------------------------------------
 BYTE   PATT
  POIN2 Label_015A267F
//  #01 //044   ----------------------------------------
 BYTE   PATT
  POIN2 Label_015A267F
//  #01 //045   ----------------------------------------
 BYTE   PATT
  POIN2 Label_015A26C1
//  #01 //046   ----------------------------------------
 BYTE   PATT
  POIN2 Label_015A26DD
//  #01 //047   ----------------------------------------
 BYTE   PATT
  POIN2 Label_015A26F9
//  #01 //048   ----------------------------------------
 BYTE   PATT
  POIN2 Label_015A2715
//  #01 //049   ----------------------------------------
 BYTE   PATT
  POIN2 Label_015A2638
//  #01 //050   ----------------------------------------
 BYTE   PATT
  POIN2 Label_015A2638
//  #01 //051   ----------------------------------------
 BYTE   PATT
  POIN2 Label_015A2638
//  #01 //052   ----------------------------------------
 BYTE   PATT
  POIN2 Label_015A2638
//  #01 //053   ----------------------------------------
 BYTE   PATT
  POIN2 Label_015A267F
//  #01 //054   ----------------------------------------
 BYTE   PATT
  POIN2 Label_015A267F
//  #01 //055   ----------------------------------------
 BYTE   PATT
  POIN2 Label_015A267F
//  #01 //056   ----------------------------------------
 BYTE   PATT
  POIN2 Label_015A267F
//  #01 //057   ----------------------------------------
 BYTE   PATT
  POIN2 Label_015A2751
//  #01 //058   ----------------------------------------
 BYTE   PATT
  POIN2 Label_015A2769
//  #01 //059   ----------------------------------------
 BYTE   PATT
  POIN2 Label_015A2784
//  #01 //060   ----------------------------------------
 BYTE   PATT
  POIN2 Label_015A279C
//  #01 //061   ----------------------------------------
 BYTE   PATT
  POIN2 Label_015A27B7
//  #01 //062   ----------------------------------------
 BYTE   PATT
  POIN2 Label_015A27B7
//  #01 //063   ----------------------------------------
 BYTE   PATT
  POIN2 Label_015A27EF
//  #01 //064   ----------------------------------------
 BYTE   PATT
  POIN2 Label_015A27EF
//  #01 //065   ----------------------------------------
 BYTE   PATT
  POIN2 Label_015A2638
//  #01 //066   ----------------------------------------
 BYTE   PATT
  POIN2 Label_015A2638
//  #01 //067   ----------------------------------------
 BYTE   PATT
  POIN2 Label_015A2831
//  #01 //068   ----------------------------------------
 BYTE   PATT
  POIN2 Label_015A2831
//  #01 //069   ----------------------------------------
 BYTE   PATT
  POIN2 Label_015A2638
//  #01 //070   ----------------------------------------
 BYTE   PATT
  POIN2 Label_015A2638
//  #01 //071   ----------------------------------------
 BYTE   PATT
  POIN2 Label_015A2831
//  #01 //072   ----------------------------------------
 BYTE   PATT
  POIN2 Label_015A2831
 BYTE   FINE

//**************** Track 2 (Midi-Chn.1) ****************//

KHCoMScherzoDiNotteOLDAzula_002:
//  #02 //000   ----------------------------------------
 BYTE   KEYSH   KHCoMScherzoDiNotteOLDAzula_key+0
 BYTE   VOICE   68
 BYTE   VOL   30*KHCoMScherzoDiNotteOLDAzula_mvl/mxv
 BYTE   PAN   c_v+0
 BYTE   W72
 BYTE   W72
//  #02 //001   ----------------------------------------
Label_015A236A:
 BYTE   W72
 BYTE   W72
//  #02 //002   ----------------------------------------
 BYTE   W72
 BYTE   W72
//  #02 //003   ----------------------------------------
 BYTE   W72
 BYTE   W72
//  #02 //004   ----------------------------------------
 BYTE   W72
 BYTE   W72
//  #02 //005   ----------------------------------------
Label_015A2372:
 BYTE   N12  Cs3  v100
 BYTE   N12  Gn3
 BYTE   N12  Cs4
 BYTE   W12
 BYTE   Dn3
 BYTE   N12  An3
 BYTE   N12  Dn4
 BYTE   W12
 BYTE   En3
 BYTE   N12  Bn3
 BYTE   N12  En4
 BYTE   W12
 BYTE   N24  Cs3
 BYTE   N24  Gn3
 BYTE   N24  Cs4
 BYTE   W24
 BYTE   N12  Bn2
 BYTE   N12  Gn3
 BYTE   N12  Bn3
 BYTE   W12
 BYTE   PEND 
Label_015A2395:
 BYTE   N24  Fs3  v100
 BYTE   N24  An3
 BYTE   N24  Fs4
 BYTE   W24
//  #02 //006   ----------------------------------------
 BYTE   N12  En3
 BYTE   N12  An3
 BYTE   N12  En4
 BYTE   W12
 BYTE   N24  Bn2
 BYTE   N24  An3
 BYTE   N24  Bn3
 BYTE   W24
 BYTE   N12  Cs3
 BYTE   N12  An3
 BYTE   N12  Cs4
 BYTE   W12
 BYTE   PEND 
Label_015A23B3:
 BYTE   N24  En3  v100
 BYTE   N24  An3
 BYTE   N24  En4
 BYTE   W24
 BYTE   N12  Dn3
 BYTE   N12  An3
 BYTE   N12  Dn4
 BYTE   W12
 BYTE   Cn3
 BYTE   N12  An3
 BYTE   N12  Cn4
 BYTE   W12
//  #02 //007   ----------------------------------------
 BYTE   Bn2
 BYTE   N12  Bn3
 BYTE   W12
 BYTE   An2
 BYTE   N12  An3
 BYTE   W12
 BYTE   PEND 
Label_015A23D1:
 BYTE   N12  Gs2  v100
 BYTE   N12  Gs3
 BYTE   W12
 BYTE   An2
 BYTE   N12  An3
 BYTE   W12
 BYTE   Bn2
 BYTE   N12  Bn3
 BYTE   W12
 BYTE   N02  Gs2
 BYTE   N02  Gs3
 BYTE   W03
 BYTE   An2
 BYTE   N02  An3
 BYTE   W03
 BYTE   N16  Gs2
 BYTE   N05  An2
 BYTE   N16  Gs3
 BYTE   N05  An3
 BYTE   W06
 BYTE   Bn2
 BYTE   N05  Bn3
 BYTE   W06
 BYTE   Cs3
 BYTE   N05  Cs4
 BYTE   W06
 BYTE   Dn3
 BYTE   N05  Dn4
 BYTE   W06
 BYTE   En3
 BYTE   N05  En4
 BYTE   W06
 BYTE   PEND 
//  #02 //008   ----------------------------------------
 BYTE   W72
 BYTE   W72
//  #02 //009   ----------------------------------------
 BYTE   W72
 BYTE   W72
//  #02 //010   ----------------------------------------
 BYTE   W72
 BYTE   W72
//  #02 //011   ----------------------------------------
 BYTE   W72
 BYTE   W72
//  #02 //012   ----------------------------------------
Label_015A240A:
 BYTE   N24  En3  v100
 BYTE   N24  Bn3
 BYTE   N24  En4
 BYTE   W24
 BYTE   Dn3
 BYTE   N24  Bn3
 BYTE   N24  Dn4
 BYTE   W24
 BYTE   N12  Cs3
 BYTE   N12  An3
 BYTE   N12  Cs4
 BYTE   W12
 BYTE   Dn3
 BYTE   N12  Bn3
 BYTE   N12  Dn4
 BYTE   W12
 BYTE   PEND 
Label_015A2426:
 BYTE   N12  En3  v100
 BYTE   N12  Cn4
 BYTE   N12  En4
 BYTE   W12
 BYTE   Dn3
 BYTE   N12  Bn3
 BYTE   N12  Dn4
 BYTE   W12
//  #02 //013   ----------------------------------------
 BYTE   Cn3
 BYTE   N12  An3
 BYTE   N12  Cn4
 BYTE   W12
 BYTE   N36  Bn2
 BYTE   N36  Gn3
 BYTE   N36  Bn3
 BYTE   W36
 BYTE   PEND 
Label_015A2442:
 BYTE   N24  Dn3  v100
 BYTE   N24  Bn3
 BYTE   N24  Dn4
 BYTE   W24
 BYTE   Cn3
 BYTE   N24  An3
 BYTE   N24  Cn4
 BYTE   W24
//  #02 //014   ----------------------------------------
 BYTE   N12  Bn2
 BYTE   N12  Gn3
 BYTE   N12  Bn3
 BYTE   W12
 BYTE   Cn3
 BYTE   N12  An3
 BYTE   N12  Cn4
 BYTE   W12
 BYTE   PEND 
Label_015A245E:
 BYTE   N12  Dn3  v100
 BYTE   N12  Bn3
 BYTE   N12  Dn4
 BYTE   W12
 BYTE   Cn3
 BYTE   N12  An3
 BYTE   N12  Cn4
 BYTE   W12
 BYTE   Bn2
 BYTE   N12  Gn3
 BYTE   N12  Bn3
 BYTE   W12
 BYTE   N36  An2
 BYTE   N36  Fs3
 BYTE   N36  An3
 BYTE   W36
 BYTE   PEND 
//  #02 //015   ----------------------------------------
Label_015A247A:
 BYTE   N10  Cs4  v100
 BYTE   W12
 BYTE   N10
 BYTE   N05  Gn4
 BYTE   W06
 BYTE   An4
 BYTE   W06
 BYTE   N10  Cs4
 BYTE   N05  Gn4
 BYTE   W06
 BYTE   An4
 BYTE   W06
 BYTE   N10  Cs4
 BYTE   W12
 BYTE   N10
 BYTE   N05  Gn4
 BYTE   W06
 BYTE   An4
 BYTE   W06
 BYTE   N10  Cs4
 BYTE   N05  Gn4
 BYTE   W06
 BYTE   An4
 BYTE   W06
 BYTE   PEND 
Label_015A249C:
 BYTE   N10  Gn4  v100
 BYTE   N10  Cs5
 BYTE   W12
 BYTE   Cs4
 BYTE   N10  As4
 BYTE   W12
//  #02 //016   ----------------------------------------
 BYTE   Cs4
 BYTE   N10  An4
 BYTE   W12
 BYTE   Gn4
 BYTE   N10  As4
 BYTE   W12
 BYTE   Cs4
 BYTE   N10  An4
 BYTE   W12
 BYTE   Cs4
 BYTE   N10  Gn4
 BYTE   W12
 BYTE   PEND 
 BYTE   Dn4
 BYTE   N10  Dn5
 BYTE   W72
//  #02 //017   ----------------------------------------
 BYTE   W72
Label_015A24BC:
 BYTE   N05  Dn4  v100
 BYTE   N05  Fs4
 BYTE   W06
 BYTE   En4
 BYTE   N05  Gs4
 BYTE   W06
 BYTE   Fs4
 BYTE   N05  An4
 BYTE   W06
 BYTE   En4
 BYTE   N05  Gs4
 BYTE   W06
//  #02 //018   ----------------------------------------
 BYTE   N21  Fs4
 BYTE   N21  Bn4
 BYTE   W24
 BYTE   N10  Fs4
 BYTE   N10  An4
 BYTE   W12
 BYTE   En4
 BYTE   N10  Gs4
 BYTE   W12
 BYTE   PEND 
Label_015A24DD:
 BYTE   N10  Fs4  v100
 BYTE   N10  An4
 BYTE   W12
 BYTE   En4
 BYTE   N10  Gs4
 BYTE   W12
 BYTE   Dn4
 BYTE   N10  Fs4
 BYTE   W12
 BYTE   N21  En4
 BYTE   N21  Gs4
 BYTE   W24
//  #02 //019   ----------------------------------------
 BYTE   N10  En4
 BYTE   N10  Gs4
 BYTE   W12
 BYTE   PEND 
Label_015A24F6:
 BYTE   N21  Ds4  v100
 BYTE   N21  Gn4
 BYTE   W24
 BYTE   Cn4
 BYTE   W24
 BYTE   N10  As3
 BYTE   N10  Dn4
 BYTE   W12
 BYTE   Cn4
 BYTE   N10  Ds4
 BYTE   W12
 BYTE   PEND 
Label_015A2508:
 BYTE   N10  Dn4  v100
 BYTE   N10  Fn4
 BYTE   W12
//  #02 //020   ----------------------------------------
 BYTE   Cn4
 BYTE   N10  Ds4
 BYTE   W12
 BYTE   As3
 BYTE   N10  Dn4
 BYTE   W12
 BYTE   N32  Cn4
 BYTE   N32  Ds4
 BYTE   W36
 BYTE   PEND 
Label_015A251C:
 BYTE   N10  Fs3  v100
 BYTE   W24
 BYTE   N10
 BYTE   W24
//  #02 //021   ----------------------------------------
 BYTE   N10
 BYTE   W12
 BYTE   N10
 BYTE   W12
 BYTE   PEND 
//  #02 //022   ----------------------------------------
 BYTE   PATT
  POIN2 Label_015A251C
//  #02 //023   ----------------------------------------
Label_015A252C:
 BYTE   N10  Gn3  v100
 BYTE   W24
 BYTE   N10
 BYTE   W24
 BYTE   N10
 BYTE   W12
 BYTE   N10
 BYTE   W12
 BYTE   PEND 
//  #02 //024   ----------------------------------------
 BYTE   PATT
  POIN2 Label_015A252C
//  #02 //025   ----------------------------------------
 BYTE   GoTo
  POIN2 Label_015A236A
//  #02 //026   ----------------------------------------
Label_015A2541:
 BYTE   N07  Fs3  v100
 BYTE   W24
 BYTE   N07
 BYTE   W24
 BYTE   N07
 BYTE   W12
 BYTE   N07
 BYTE   W12
 BYTE   PEND 
//  #02 //027   ----------------------------------------
 BYTE   PATT
  POIN2 Label_015A2541
//  #02 //028   ----------------------------------------
 BYTE   PATT
  POIN2 Label_015A2541
//  #02 //029   ----------------------------------------
 BYTE   PATT
  POIN2 Label_015A2541
//  #02 //030   ----------------------------------------
 BYTE   PATT
  POIN2 Label_015A2541
//  #02 //031   ----------------------------------------
 BYTE   PATT
  POIN2 Label_015A2541
//  #02 //032   ----------------------------------------
 BYTE   PATT
  POIN2 Label_015A2541
//  #02 //033   ----------------------------------------
 BYTE   PATT
  POIN2 Label_015A2541
//  #02 //034   ----------------------------------------
 BYTE   PATT
  POIN2 Label_015A2372
//  #02 //035   ----------------------------------------
 BYTE   PATT
  POIN2 Label_015A2395
//  #02 //036   ----------------------------------------
 BYTE   PATT
  POIN2 Label_015A23B3
//  #02 //037   ----------------------------------------
 BYTE   PATT
  POIN2 Label_015A23D1
//  #02 //038   ----------------------------------------
 BYTE   PATT
  POIN2 Label_015A2541
//  #02 //039   ----------------------------------------
 BYTE   PATT
  POIN2 Label_015A2541
//  #02 //040   ----------------------------------------
 BYTE   PATT
  POIN2 Label_015A2541
//  #02 //041   ----------------------------------------
 BYTE   PATT
  POIN2 Label_015A2541
//  #02 //042   ----------------------------------------
 BYTE   PATT
  POIN2 Label_015A2541
//  #02 //043   ----------------------------------------
 BYTE   PATT
  POIN2 Label_015A2541
//  #02 //044   ----------------------------------------
 BYTE   PATT
  POIN2 Label_015A2541
//  #02 //045   ----------------------------------------
 BYTE   PATT
  POIN2 Label_015A2541
//  #02 //046   ----------------------------------------
 BYTE   PATT
  POIN2 Label_015A240A
//  #02 //047   ----------------------------------------
 BYTE   PATT
  POIN2 Label_015A2426
//  #02 //048   ----------------------------------------
 BYTE   PATT
  POIN2 Label_015A2442
//  #02 //049   ----------------------------------------
 BYTE   PATT
  POIN2 Label_015A245E
//  #02 //050   ----------------------------------------
 BYTE   PATT
  POIN2 Label_015A247A
//  #02 //051   ----------------------------------------
 BYTE   PATT
  POIN2 Label_015A249C
//  #02 //052   ----------------------------------------
 BYTE   N10  Dn4  v100
 BYTE   N10  Dn5
 BYTE   W72
 BYTE   W72
//  #02 //053   ----------------------------------------
 BYTE   PATT
  POIN2 Label_015A24BC
//  #02 //054   ----------------------------------------
 BYTE   PATT
  POIN2 Label_015A24DD
//  #02 //055   ----------------------------------------
 BYTE   PATT
  POIN2 Label_015A24F6
//  #02 //056   ----------------------------------------
 BYTE   PATT
  POIN2 Label_015A2508
//  #02 //057   ----------------------------------------
 BYTE   PATT
  POIN2 Label_015A251C
//  #02 //058   ----------------------------------------
 BYTE   PATT
  POIN2 Label_015A251C
//  #02 //059   ----------------------------------------
 BYTE   PATT
  POIN2 Label_015A252C
//  #02 //060   ----------------------------------------
 BYTE   PATT
  POIN2 Label_015A252C
 BYTE   FINE

//**************** Track 3 (Midi-Chn.2) ****************//

KHCoMScherzoDiNotteOLDAzula_003:
//  #03 //000   ----------------------------------------
 BYTE   KEYSH   KHCoMScherzoDiNotteOLDAzula_key+0
 BYTE   VOICE   47
 BYTE   VOL   46*KHCoMScherzoDiNotteOLDAzula_mvl/mxv
 BYTE   PAN   c_v+0
 BYTE   N24  Bn1  v100
 BYTE   N24  Bn2
 BYTE   W24
 BYTE   Bn1
 BYTE   N24  Bn2
 BYTE   W24
 BYTE   N10  Fs2
 BYTE   N10  Fs3
 BYTE   W12
 BYTE   Fs2
 BYTE   N10  Fs3
 BYTE   W12
Label_0195A2A3:
 BYTE   PAN   c_v+0
 BYTE   N24  Bn1  v100
 BYTE   N24  Bn2
 BYTE   W24
//  #03 //001   ----------------------------------------
 BYTE   Bn1
 BYTE   N24  Bn2
 BYTE   W24
 BYTE   N10  Fs2
 BYTE   N10  Fs3
 BYTE   W12
 BYTE   Fs2
 BYTE   N10  Fs3
 BYTE   W12
 BYTE   PEND 
Label_0195A2B9:
//  #03 //002   ----------------------------------------
 BYTE   PATT
  POIN2 Label_0195A2A3
//  #03 //003   ----------------------------------------
 BYTE   PATT
  POIN2 Label_0195A2A3
//  #03 //004   ----------------------------------------
 BYTE   PATT
  POIN2 Label_0195A2A3
//  #03 //005   ----------------------------------------
 BYTE   PATT
  POIN2 Label_0195A2A3
//  #03 //006   ----------------------------------------
Label_0195A2CD:
 BYTE   PAN   c_v+0
 BYTE   N24  En1  v100
 BYTE   N24  En2
 BYTE   W24
 BYTE   En1
 BYTE   N24  En2
 BYTE   W24
 BYTE   N10  Bn1
 BYTE   N10  Bn2
 BYTE   W12
 BYTE   Bn1
 BYTE   N10  Bn2
 BYTE   W12
 BYTE   PEND 
//  #03 //007   ----------------------------------------
 BYTE   PATT
  POIN2 Label_0195A2CD
//  #03 //008   ----------------------------------------
 BYTE   PATT
  POIN2 Label_0195A2CD
//  #03 //009   ----------------------------------------
 BYTE   PATT
  POIN2 Label_0195A2CD
//  #03 //010   ----------------------------------------
 BYTE   PAN   c_v+0
 BYTE   N10  Gs2  v100
 BYTE   N10  Gs3
 BYTE   W48
 BYTE   Gs2
 BYTE   N10  Gs3
 BYTE   W12
 BYTE   Gs2
 BYTE   N10  Gs3
 BYTE   W12
Label_0195A302:
 BYTE   N10  An2  v100
 BYTE   N10  An3
 BYTE   W48
//  #03 //011   ----------------------------------------
 BYTE   An2
 BYTE   N10  An3
 BYTE   W12
 BYTE   An2
 BYTE   N10  An3
 BYTE   W12
 BYTE   PEND 
Label_0195A311:
 BYTE   N10  Fs2  v100
 BYTE   N10  Fs3
 BYTE   W60
 BYTE   Fs2
 BYTE   N10  Fs3
 BYTE   W12
 BYTE   PEND 
//  #03 //012   ----------------------------------------
Label_0195A31C:
 BYTE   N10  An2  v100
 BYTE   N10  An3
 BYTE   W36
 BYTE   Gs2
 BYTE   N10  Gs3
 BYTE   W36
 BYTE   PEND 
//  #03 //013   ----------------------------------------
 BYTE   PATT
  POIN2 Label_0195A2A3
//  #03 //014   ----------------------------------------
 BYTE   PATT
  POIN2 Label_0195A2A3
//  #03 //015   ----------------------------------------
 BYTE   PATT
  POIN2 Label_0195A2A3
//  #03 //016   ----------------------------------------
 BYTE   PATT
  POIN2 Label_0195A2A3
//  #03 //017   ----------------------------------------
 BYTE   PAN   c_v+0
 BYTE   N24  En1  v100
 BYTE   N24  En2
 BYTE   W24
 BYTE   En1
 BYTE   N24  En2
 BYTE   W24
 BYTE   N10  Bn1
 BYTE   N10  Bn2
 BYTE   W12
 BYTE   Bn1
 BYTE   N10  Bn2
 BYTE   W12
//  #03 //018   ----------------------------------------
 BYTE   PATT
  POIN2 Label_0195A2CD
//  #03 //019   ----------------------------------------
 BYTE   PATT
  POIN2 Label_0195A2CD
//  #03 //020   ----------------------------------------
 BYTE   PATT
  POIN2 Label_0195A2CD
//  #03 //021   ----------------------------------------
 BYTE   PAN   c_v+0
 BYTE   N10  Gs2  v100
 BYTE   N10  Gs3
 BYTE   W60
 BYTE   Gs2
 BYTE   N10  Gs3
 BYTE   W12
Label_0195A36B:
 BYTE   N10  Fs2  v100
 BYTE   N10  Fs3
 BYTE   W48
//  #03 //022   ----------------------------------------
 BYTE   Fs2
 BYTE   N10  Fs3
 BYTE   W12
 BYTE   Fs2
 BYTE   N10  Fs3
 BYTE   W12
 BYTE   PEND 
Label_0195A37A:
 BYTE   N10  En2  v100
 BYTE   N10  En3
 BYTE   W60
 BYTE   En2
 BYTE   N10  En3
 BYTE   W12
 BYTE   PEND 
//  #03 //023   ----------------------------------------
 BYTE   Dn2
 BYTE   N10  Dn3
 BYTE   W72
 BYTE   W72
//  #03 //024   ----------------------------------------
 BYTE   W72
 BYTE   W72
//  #03 //025   ----------------------------------------
 BYTE   W72
 BYTE   W72
//  #03 //026   ----------------------------------------
 BYTE   W72
 BYTE   W72
//  #03 //027   ----------------------------------------
Label_0195A390:
 BYTE   W48
 BYTE   N07  Fs2  v100
 BYTE   N07  Fs3
 BYTE   W08
 BYTE   Fs2
 BYTE   N07  Fs3
 BYTE   W08
 BYTE   Fs2
 BYTE   N07  Fs3
 BYTE   W08
 BYTE   PEND 
Label_0195A3A0:
 BYTE   N10  Bn1  v100
 BYTE   N10  Bn2
 BYTE   W48
//  #03 //028   ----------------------------------------
 BYTE   Fs2
 BYTE   N10  Fs3
 BYTE   W12
 BYTE   Fs2
 BYTE   N10  Fs3
 BYTE   W12
 BYTE   PEND 
//  #03 //029   ----------------------------------------
 BYTE   PATT
  POIN2 Label_0195A3A0
//  #03 //030   ----------------------------------------
 BYTE   PATT
  POIN2 Label_0195A3A0
//  #03 //031   ----------------------------------------
 BYTE   PATT
  POIN2 Label_0195A3A0
//  #03 //032   ----------------------------------------
 BYTE   GoTo
  POIN2 Label_0195A2B9
//  #03 //033   ----------------------------------------
 BYTE   PATT
  POIN2 Label_0195A3A0
//  #03 //034   ----------------------------------------
 BYTE   PATT
  POIN2 Label_0195A3A0
//  #03 //035   ----------------------------------------
 BYTE   PATT
  POIN2 Label_0195A3A0
//  #03 //036   ----------------------------------------
 BYTE   PATT
  POIN2 Label_0195A3A0
//  #03 //037   ----------------------------------------
 BYTE   PATT
  POIN2 Label_0195A3A0
//  #03 //038   ----------------------------------------
 BYTE   PATT
  POIN2 Label_0195A3A0
//  #03 //039   ----------------------------------------
 BYTE   PATT
  POIN2 Label_0195A3A0
//  #03 //040   ----------------------------------------
 BYTE   PATT
  POIN2 Label_0195A3A0
//  #03 //041   ----------------------------------------
 BYTE   N10  Gs2  v100
 BYTE   N10  Gs3
 BYTE   W48
 BYTE   Gs2
 BYTE   N10  Gs3
 BYTE   W12
 BYTE   Gs2
 BYTE   N10  Gs3
 BYTE   W12
//  #03 //042   ----------------------------------------
 BYTE   PATT
  POIN2 Label_0195A302
//  #03 //043   ----------------------------------------
 BYTE   PATT
  POIN2 Label_0195A311
//  #03 //044   ----------------------------------------
 BYTE   PATT
  POIN2 Label_0195A31C
//  #03 //045   ----------------------------------------
 BYTE   PATT
  POIN2 Label_0195A3A0
//  #03 //046   ----------------------------------------
 BYTE   PATT
  POIN2 Label_0195A3A0
//  #03 //047   ----------------------------------------
 BYTE   PATT
  POIN2 Label_0195A3A0
//  #03 //048   ----------------------------------------
 BYTE   PATT
  POIN2 Label_0195A3A0
//  #03 //049   ----------------------------------------
 BYTE   PATT
  POIN2 Label_0195A3A0
//  #03 //050   ----------------------------------------
 BYTE   PATT
  POIN2 Label_0195A3A0
//  #03 //051   ----------------------------------------
 BYTE   PATT
  POIN2 Label_0195A3A0
//  #03 //052   ----------------------------------------
 BYTE   PATT
  POIN2 Label_0195A3A0
//  #03 //053   ----------------------------------------
 BYTE   N10  Gs2  v100
 BYTE   N10  Gs3
 BYTE   W60
 BYTE   Gs2
 BYTE   N10  Gs3
 BYTE   W12
//  #03 //054   ----------------------------------------
 BYTE   PATT
  POIN2 Label_0195A36B
//  #03 //055   ----------------------------------------
 BYTE   PATT
  POIN2 Label_0195A37A
//  #03 //056   ----------------------------------------
 BYTE   N10  Dn2  v100
 BYTE   N10  Dn3
 BYTE   W72
 BYTE   W72
//  #03 //057   ----------------------------------------
 BYTE   W72
 BYTE   W72
//  #03 //058   ----------------------------------------
 BYTE   W72
 BYTE   W72
//  #03 //059   ----------------------------------------
 BYTE   W72
 BYTE   W72
//  #03 //060   ----------------------------------------
 BYTE   PATT
  POIN2 Label_0195A390
//  #03 //061   ----------------------------------------
 BYTE   PATT
  POIN2 Label_0195A3A0
//  #03 //062   ----------------------------------------
 BYTE   PATT
  POIN2 Label_0195A3A0
//  #03 //063   ----------------------------------------
 BYTE   PATT
  POIN2 Label_0195A3A0
//  #03 //064   ----------------------------------------
 BYTE   PATT
  POIN2 Label_0195A3A0
 BYTE   FINE

//**************** Track 4 (Midi-Chn.3) ****************//

KHCoMScherzoDiNotteOLDAzula_004:
//  #04 //000   ----------------------------------------
 BYTE   KEYSH   KHCoMScherzoDiNotteOLDAzula_key+0
 BYTE   VOICE   48
 BYTE   VOL   37*KHCoMScherzoDiNotteOLDAzula_mvl/mxv
 BYTE   PAN   c_v+0
 BYTE   W72
 BYTE   W72
//  #04 //001   ----------------------------------------
Label_015A207A:
 BYTE   N05  Dn4  v100
 BYTE   N05  Fs4
 BYTE   W06
 BYTE   En4
 BYTE   N05  Gs4
 BYTE   W06
 BYTE   Fs4
 BYTE   N05  An4
 BYTE   W06
 BYTE   En4
 BYTE   N05  Gs4
 BYTE   W06
 BYTE   N21  Fs4
 BYTE   N21  Bn4
 BYTE   W24
 BYTE   N10  Fs4
 BYTE   N10  An4
 BYTE   W12
 BYTE   En4
 BYTE   N10  Gs4
 BYTE   W12
 BYTE   PEND 
Label_015A209B:
 BYTE   N10  Fs4  v100
 BYTE   N10  An4
 BYTE   W12
 BYTE   En4
 BYTE   N10  Gs4
 BYTE   W12
//  #04 //002   ----------------------------------------
 BYTE   Dn4
 BYTE   N10  Fs4
 BYTE   W12
 BYTE   N21  En4
 BYTE   N21  Gs4
 BYTE   W24
 BYTE   N10  Cs4
 BYTE   N10  En4
 BYTE   W12
 BYTE   PEND 
Label_015A20B4:
 BYTE   N21  Dn4  v100
 BYTE   N21  Fs4
 BYTE   W24
 BYTE   Bn3
 BYTE   W24
//  #04 //003   ----------------------------------------
 BYTE   N10  An3
 BYTE   N10  Cs4
 BYTE   W12
 BYTE   Bn3
 BYTE   N10  Dn4
 BYTE   W12
 BYTE   PEND 
Label_015A20C6:
 BYTE   N10  Cs4  v100
 BYTE   N10  En4
 BYTE   W12
 BYTE   Bn3
 BYTE   N10  Dn4
 BYTE   W12
 BYTE   An3
 BYTE   N10  Cs4
 BYTE   W12
 BYTE   N32  Bn3
 BYTE   N32  Dn4
 BYTE   W36
 BYTE   PEND 
//  #04 //004   ----------------------------------------
Label_015A20DA:
 BYTE   N05  Dn4  v100
 BYTE   N05  Fs4
 BYTE   W06
 BYTE   En4
 BYTE   N05  Gs4
 BYTE   W06
 BYTE   Fs4
 BYTE   N05  An4
 BYTE   W06
 BYTE   En4
 BYTE   N05  Gs4
 BYTE   W06
 BYTE   N21  Fs4
 BYTE   N21  Bn4
 BYTE   W24
 BYTE   N10  Fs4
 BYTE   N10  Bn4
 BYTE   W12
 BYTE   En4
 BYTE   N10  An4
 BYTE   W12
 BYTE   PEND 
//  #04 //005   ----------------------------------------
 BYTE   PATT
  POIN2 Label_015A209B
//  #04 //006   ----------------------------------------
Label_015A2100:
 BYTE   N21  Cs4  v100
 BYTE   N21  Fs4
 BYTE   W24
 BYTE   Bn3
 BYTE   W24
 BYTE   N10  An3
 BYTE   N10  Cs4
 BYTE   W12
 BYTE   Bn3
 BYTE   N10  Dn4
 BYTE   W12
 BYTE   PEND 
Label_015A2112:
 BYTE   N10  Cs4  v100
 BYTE   N10  En4
 BYTE   W12
 BYTE   Bn3
 BYTE   N10  Dn4
 BYTE   W12
//  #04 //007   ----------------------------------------
 BYTE   An3
 BYTE   N10  Cs4
 BYTE   W12
 BYTE   N32  Fs3
 BYTE   N32  Bn3
 BYTE   W36
 BYTE   PEND 
 BYTE   W72
//  #04 //008   ----------------------------------------
 BYTE   W72
 BYTE   W72
//  #04 //009   ----------------------------------------
Label_015A2129:
 BYTE   W36
 BYTE   N05  Gs3  v100
 BYTE   W06
 BYTE   An3
 BYTE   W06
 BYTE   Bn3
 BYTE   W06
 BYTE   Cs4
 BYTE   W06
 BYTE   Dn4
 BYTE   W06
 BYTE   En4
 BYTE   W06
 BYTE   PEND 
//  #04 //010   ----------------------------------------
 BYTE   PATT
  POIN2 Label_015A207A
//  #04 //011   ----------------------------------------
 BYTE   PATT
  POIN2 Label_015A209B
//  #04 //012   ----------------------------------------
 BYTE   PATT
  POIN2 Label_015A20B4
//  #04 //013   ----------------------------------------
 BYTE   PATT
  POIN2 Label_015A20C6
//  #04 //014   ----------------------------------------
 BYTE   PATT
  POIN2 Label_015A20DA
//  #04 //015   ----------------------------------------
 BYTE   PATT
  POIN2 Label_015A209B
//  #04 //016   ----------------------------------------
 BYTE   PATT
  POIN2 Label_015A2100
//  #04 //017   ----------------------------------------
 BYTE   PATT
  POIN2 Label_015A2112
//  #04 //018   ----------------------------------------
 BYTE   W72
 BYTE   W72
//  #04 //019   ----------------------------------------
 BYTE   N64  Gn3  v100
 BYTE   W72
 BYTE   An3
 BYTE   W72
//  #04 //020   ----------------------------------------
 BYTE   W72
 BYTE   W72
//  #04 //021   ----------------------------------------
Label_015A216B:
 BYTE   N10  An3  v100
 BYTE   N10  Dn4
 BYTE   W24
 BYTE   N21  An3
 BYTE   N21  Dn4
 BYTE   W24
 BYTE   N10  An3
 BYTE   N10  Dn4
 BYTE   W12
 BYTE   An3
 BYTE   N10  Dn4
 BYTE   W12
 BYTE   PEND 
//  #04 //022   ----------------------------------------
 BYTE   PATT
  POIN2 Label_015A216B
//  #04 //023   ----------------------------------------
 BYTE   TIE  Dn3  v100
 BYTE   W72
 BYTE   W72
//  #04 //024   ----------------------------------------
 BYTE   EOT
 BYTE   TIE  Ds3
 BYTE   W72
 BYTE   W72
//  #04 //025   ----------------------------------------
 BYTE   EOT
 BYTE   TIE  Dn3
 BYTE   W72
 BYTE   W72
//  #04 //026   ----------------------------------------
 BYTE   EOT
 BYTE   TIE  Ds3
 BYTE   W72
 BYTE   W72
//  #04 //027   ----------------------------------------
 BYTE   EOT
 BYTE   GoTo
  POIN2 Label_015A207A
//  #04 //028   ----------------------------------------
 BYTE   PATT
  POIN2 Label_015A207A
//  #04 //029   ----------------------------------------
 BYTE   PATT
  POIN2 Label_015A209B
//  #04 //030   ----------------------------------------
 BYTE   PATT
  POIN2 Label_015A20B4
//  #04 //031   ----------------------------------------
 BYTE   PATT
  POIN2 Label_015A20C6
//  #04 //032   ----------------------------------------
 BYTE   PATT
  POIN2 Label_015A20DA
//  #04 //033   ----------------------------------------
 BYTE   PATT
  POIN2 Label_015A209B
//  #04 //034   ----------------------------------------
 BYTE   PATT
  POIN2 Label_015A2100
//  #04 //035   ----------------------------------------
 BYTE   PATT
  POIN2 Label_015A2112
//  #04 //036   ----------------------------------------
 BYTE   W72
 BYTE   W72
//  #04 //037   ----------------------------------------
 BYTE   W72
//  #04 //038   ----------------------------------------
 BYTE   PATT
  POIN2 Label_015A2129
//  #04 //039   ----------------------------------------
 BYTE   PATT
  POIN2 Label_015A207A
//  #04 //040   ----------------------------------------
 BYTE   PATT
  POIN2 Label_015A209B
//  #04 //041   ----------------------------------------
 BYTE   PATT
  POIN2 Label_015A20B4
//  #04 //042   ----------------------------------------
 BYTE   PATT
  POIN2 Label_015A20C6
//  #04 //043   ----------------------------------------
 BYTE   PATT
  POIN2 Label_015A20DA
//  #04 //044   ----------------------------------------
 BYTE   PATT
  POIN2 Label_015A209B
//  #04 //045   ----------------------------------------
 BYTE   PATT
  POIN2 Label_015A2100
//  #04 //046   ----------------------------------------
 BYTE   PATT
  POIN2 Label_015A2112
//  #04 //047   ----------------------------------------
 BYTE   W72
 BYTE   W72
//  #04 //048   ----------------------------------------
 BYTE   N64  Gn3  v100
 BYTE   W72
 BYTE   An3
 BYTE   W72
//  #04 //049   ----------------------------------------
 BYTE   W72
 BYTE   W72
//  #04 //050   ----------------------------------------
 BYTE   PATT
  POIN2 Label_015A216B
//  #04 //051   ----------------------------------------
 BYTE   PATT
  POIN2 Label_015A216B
//  #04 //052   ----------------------------------------
 BYTE   TIE  Dn3  v100
 BYTE   W72
 BYTE   W72
//  #04 //053   ----------------------------------------
 BYTE   EOT
 BYTE   TIE  Ds3
 BYTE   W72
 BYTE   W72
//  #04 //054   ----------------------------------------
 BYTE   EOT
 BYTE   TIE  Dn3
 BYTE   W72
 BYTE   W72
//  #04 //055   ----------------------------------------
 BYTE   EOT
 BYTE   TIE  Ds3
 BYTE   W72
 BYTE   W72
//  #04 //056   ----------------------------------------
 BYTE   EOT
 BYTE   FINE

//**************** Track 5 (Midi-Chn.4) ****************//

KHCoMScherzoDiNotteOLDAzula_005:
//  #05 //000   ----------------------------------------
 BYTE   KEYSH   KHCoMScherzoDiNotteOLDAzula_key+0
 BYTE   VOICE   52
 BYTE   VOL   39*KHCoMScherzoDiNotteOLDAzula_mvl/mxv
 BYTE   PAN   c_v+0
 BYTE   W72
 BYTE   W72
//  #05 //001   ----------------------------------------
Label_015A22DA:
 BYTE   W72
 BYTE   W72
//  #05 //002   ----------------------------------------
 BYTE   W72
 BYTE   W72
//  #05 //003   ----------------------------------------
 BYTE   W72
 BYTE   W72
//  #05 //004   ----------------------------------------
 BYTE   W72
 BYTE   W72
//  #05 //005   ----------------------------------------
 BYTE   N64  Dn3  v100
 BYTE   W72
 BYTE   TIE  En3
 BYTE   W72
//  #05 //006   ----------------------------------------
 BYTE   W72
 BYTE   W64
//  #05 //007   ----------------------------------------
 BYTE   EOT
 BYTE   W08
 BYTE   W72
 BYTE   W72
//  #05 //008   ----------------------------------------
 BYTE   W72
 BYTE   W72
//  #05 //009   ----------------------------------------
 BYTE   W72
 BYTE   W72
//  #05 //010   ----------------------------------------
 BYTE   W72
 BYTE   W72
//  #05 //011   ----------------------------------------
 BYTE   N64  Bn2
 BYTE   W72
 BYTE   An2
 BYTE   W72
//  #05 //012   ----------------------------------------
 BYTE   En3
 BYTE   W72
 BYTE   Ds3
 BYTE   W72
//  #05 //013   ----------------------------------------
 BYTE   TIE
 BYTE   W72
 BYTE   W64
//  #05 //014   ----------------------------------------
 BYTE   EOT
 BYTE   W08
 BYTE   W72
 BYTE   W72
//  #05 //015   ----------------------------------------
 BYTE   TIE  Dn3
 BYTE   W72
 BYTE   W72
//  #05 //016   ----------------------------------------
 BYTE   EOT
 BYTE   TIE  Ds3
 BYTE   W72
 BYTE   W72
//  #05 //017   ----------------------------------------
 BYTE   EOT
 BYTE   TIE  Dn3
 BYTE   W72
 BYTE   W72
//  #05 //018   ----------------------------------------
 BYTE   EOT
 BYTE   TIE  Ds3
 BYTE   W72
 BYTE   W72
//  #05 //019   ----------------------------------------
 BYTE   EOT
 BYTE   GoTo
  POIN2 Label_015A22DA
//  #05 //020   ----------------------------------------
 BYTE   W72
 BYTE   W72
//  #05 //021   ----------------------------------------
 BYTE   W72
 BYTE   W72
//  #05 //022   ----------------------------------------
 BYTE   W72
 BYTE   W72
//  #05 //023   ----------------------------------------
 BYTE   W72
 BYTE   W72
//  #05 //024   ----------------------------------------
 BYTE   N64  Dn3  v100
 BYTE   W72
 BYTE   TIE  En3
 BYTE   W72
//  #05 //025   ----------------------------------------
 BYTE   W72
 BYTE   W64
//  #05 //026   ----------------------------------------
 BYTE   EOT
 BYTE   W08
 BYTE   W72
 BYTE   W72
//  #05 //027   ----------------------------------------
 BYTE   W72
 BYTE   W72
//  #05 //028   ----------------------------------------
 BYTE   W72
 BYTE   W72
//  #05 //029   ----------------------------------------
 BYTE   W72
 BYTE   W72
//  #05 //030   ----------------------------------------
 BYTE   N64  Bn2
 BYTE   W72
 BYTE   An2
 BYTE   W72
//  #05 //031   ----------------------------------------
 BYTE   En3
 BYTE   W72
 BYTE   Ds3
 BYTE   W72
//  #05 //032   ----------------------------------------
 BYTE   TIE
 BYTE   W72
 BYTE   W64
//  #05 //033   ----------------------------------------
 BYTE   EOT
 BYTE   W08
 BYTE   W72
 BYTE   W72
//  #05 //034   ----------------------------------------
 BYTE   TIE  Dn3
 BYTE   W72
 BYTE   W72
//  #05 //035   ----------------------------------------
 BYTE   EOT
 BYTE   TIE  Ds3
 BYTE   W72
 BYTE   W72
//  #05 //036   ----------------------------------------
 BYTE   EOT
 BYTE   TIE  Dn3
 BYTE   W72
 BYTE   W72
//  #05 //037   ----------------------------------------
 BYTE   EOT
 BYTE   TIE  Ds3
 BYTE   W72
 BYTE   W72
//  #05 //038   ----------------------------------------
 BYTE   EOT
 BYTE   FINE

//**************** Track 6 (Midi-Chn.5) ****************//

KHCoMScherzoDiNotteOLDAzula_006:
//  #06 //000   ----------------------------------------
 BYTE   KEYSH   KHCoMScherzoDiNotteOLDAzula_key+0
 BYTE   VOICE   32
 BYTE   VOL   31*KHCoMScherzoDiNotteOLDAzula_mvl/mxv
 BYTE   N07  Fs3  v100
 BYTE   W24
 BYTE   N07
 BYTE   W24
 BYTE   N07
 BYTE   W12
 BYTE   N07
 BYTE   W12
Label_015A2234:
 BYTE   N07  Fs3  v100
 BYTE   W24
//  #06 //001   ----------------------------------------
 BYTE   N07
 BYTE   W24
 BYTE   N07
 BYTE   W12
 BYTE   N07
 BYTE   W12
 BYTE   PEND 
Label_015A223F:
//  #06 //002   ----------------------------------------
 BYTE   PATT
  POIN2 Label_015A2234
//  #06 //003   ----------------------------------------
 BYTE   PATT
  POIN2 Label_015A2234
//  #06 //004   ----------------------------------------
 BYTE   PATT
  POIN2 Label_015A2234
//  #06 //005   ----------------------------------------
 BYTE   PATT
  POIN2 Label_015A2234
//  #06 //006   ----------------------------------------
 BYTE   PATT
  POIN2 Label_015A2234
//  #06 //007   ----------------------------------------
 BYTE   PATT
  POIN2 Label_015A2234
//  #06 //008   ----------------------------------------
 BYTE   PATT
  POIN2 Label_015A2234
//  #06 //009   ----------------------------------------
 BYTE   PATT
  POIN2 Label_015A2234
//  #06 //010   ----------------------------------------
 BYTE   W72
 BYTE   W72
//  #06 //011   ----------------------------------------
 BYTE   W72
 BYTE   W72
//  #06 //012   ----------------------------------------
 BYTE   PATT
  POIN2 Label_015A2234
//  #06 //013   ----------------------------------------
 BYTE   PATT
  POIN2 Label_015A2234
//  #06 //014   ----------------------------------------
 BYTE   PATT
  POIN2 Label_015A2234
//  #06 //015   ----------------------------------------
 BYTE   PATT
  POIN2 Label_015A2234
//  #06 //016   ----------------------------------------
 BYTE   PATT
  POIN2 Label_015A2234
//  #06 //017   ----------------------------------------
 BYTE   PATT
  POIN2 Label_015A2234
//  #06 //018   ----------------------------------------
 BYTE   PATT
  POIN2 Label_015A2234
//  #06 //019   ----------------------------------------
 BYTE   PATT
  POIN2 Label_015A2234
//  #06 //020   ----------------------------------------
 BYTE   W72
 BYTE   W72
//  #06 //021   ----------------------------------------
 BYTE   W72
 BYTE   W72
//  #06 //022   ----------------------------------------
 BYTE   W72
 BYTE   W72
//  #06 //023   ----------------------------------------
 BYTE   W72
 BYTE   W72
//  #06 //024   ----------------------------------------
 BYTE   W72
 BYTE   W72
//  #06 //025   ----------------------------------------
 BYTE   W72
 BYTE   W72
//  #06 //026   ----------------------------------------
 BYTE   W72
 BYTE   W72
//  #06 //027   ----------------------------------------
 BYTE   W72
 BYTE   W72
//  #06 //028   ----------------------------------------
 BYTE   GoTo
  POIN2 Label_015A223F
//  #06 //029   ----------------------------------------
 BYTE   W72
 BYTE   W72
//  #06 //030   ----------------------------------------
 BYTE   W72
 BYTE   W72
//  #06 //031   ----------------------------------------
 BYTE   W72
 BYTE   W72
//  #06 //032   ----------------------------------------
 BYTE   W72
 BYTE   W72
//  #06 //033   ----------------------------------------
 BYTE   W72
 BYTE   W72
//  #06 //034   ----------------------------------------
 BYTE   W72
 BYTE   W72
//  #06 //035   ----------------------------------------
 BYTE   W72
 BYTE   W72
//  #06 //036   ----------------------------------------
 BYTE   W72
 BYTE   W72
//  #06 //037   ----------------------------------------
 BYTE   W72
 BYTE   W72
//  #06 //038   ----------------------------------------
 BYTE   W72
 BYTE   W72
//  #06 //039   ----------------------------------------
 BYTE   W72
 BYTE   W72
//  #06 //040   ----------------------------------------
 BYTE   W72
 BYTE   W72
//  #06 //041   ----------------------------------------
 BYTE   W72
 BYTE   W72
//  #06 //042   ----------------------------------------
 BYTE   W72
 BYTE   W72
//  #06 //043   ----------------------------------------
 BYTE   W72
 BYTE   W72
//  #06 //044   ----------------------------------------
 BYTE   W72
 BYTE   W72
//  #06 //045   ----------------------------------------
 BYTE   W72
 BYTE   W72
//  #06 //046   ----------------------------------------
 BYTE   W72
 BYTE   W72
 BYTE   FINE

//**************** Track 7 (Midi-Chn.6) ****************//

KHCoMScherzoDiNotteOLDAzula_007:
//  #07 //000   ----------------------------------------
 BYTE   KEYSH   KHCoMScherzoDiNotteOLDAzula_key+0
 BYTE   VOICE   127
 BYTE   VOL   47*KHCoMScherzoDiNotteOLDAzula_mvl/mxv
 BYTE   W12
 BYTE   N06  Dn1  v100
 BYTE   W06
 BYTE   N06
 BYTE   W06
 BYTE   N06
 BYTE   W24
 BYTE   N06
 BYTE   W12
 BYTE   N06
 BYTE   W12
Label_01949223:
 BYTE   W12
 BYTE   N03  Dn1  v100
 BYTE   W03
 BYTE   N03
 BYTE   W03
 BYTE   N03
 BYTE   W03
 BYTE   N03
 BYTE   W03
//  #07 //001   ----------------------------------------
 BYTE   N06
 BYTE   W24
 BYTE   N06
 BYTE   W12
 BYTE   N06
 BYTE   W12
 BYTE   PEND 
Label_01949235:
 BYTE   VOL   47*KHCoMScherzoDiNotteOLDAzula_mvl/mxv
 BYTE   N24  Cs2  v100
 BYTE   W12
 BYTE   N06  Dn1
 BYTE   W06
 BYTE   N06
 BYTE   W06
 BYTE   N06
 BYTE   W24
//  #07 //002   ----------------------------------------
 BYTE   N06
 BYTE   W12
 BYTE   N06
 BYTE   W12
 BYTE   PEND 
//  #07 //003   ----------------------------------------
 BYTE   PATT
  POIN2 Label_01949223
//  #07 //004   ----------------------------------------
Label_0194924C:
 BYTE   VOL   47*KHCoMScherzoDiNotteOLDAzula_mvl/mxv
 BYTE   W12
 BYTE   N06  Dn1  v100
 BYTE   W06
 BYTE   N06
 BYTE   W06
 BYTE   N06
 BYTE   W24
 BYTE   N06
 BYTE   W12
 BYTE   N06
 BYTE   W12
 BYTE   PEND 
//  #07 //005   ----------------------------------------
 BYTE   PATT
  POIN2 Label_01949223
//  #07 //006   ----------------------------------------
 BYTE   PATT
  POIN2 Label_01949235
//  #07 //007   ----------------------------------------
 BYTE   PATT
  POIN2 Label_01949223
//  #07 //008   ----------------------------------------
 BYTE   PATT
  POIN2 Label_0194924C
//  #07 //009   ----------------------------------------
 BYTE   PATT
  POIN2 Label_01949223
//  #07 //010   ----------------------------------------
Label_01949275:
 BYTE   W12
 BYTE   N06  Dn1  v076
 BYTE   W06
 BYTE   N06
 BYTE   W06
 BYTE   N06
 BYTE   W24
 BYTE   N06
 BYTE   W12
 BYTE   N06
 BYTE   W12
 BYTE   PEND 
Label_01949283:
 BYTE   W12
 BYTE   N03  Dn1  v076
 BYTE   W03
 BYTE   N03
 BYTE   W03
 BYTE   N03
 BYTE   W03
 BYTE   N03
 BYTE   W03
//  #07 //011   ----------------------------------------
 BYTE   N06
 BYTE   W24
 BYTE   N06
 BYTE   W12
 BYTE   N06
 BYTE   W12
 BYTE   PEND 
//  #07 //012   ----------------------------------------
 BYTE   PATT
  POIN2 Label_01949275
//  #07 //013   ----------------------------------------
 BYTE   PATT
  POIN2 Label_01949283
//  #07 //014   ----------------------------------------
 BYTE   PATT
  POIN2 Label_01949235
//  #07 //015   ----------------------------------------
 BYTE   PATT
  POIN2 Label_01949223
//  #07 //016   ----------------------------------------
 BYTE   PATT
  POIN2 Label_0194924C
//  #07 //017   ----------------------------------------
 BYTE   PATT
  POIN2 Label_01949223
//  #07 //018   ----------------------------------------
 BYTE   PATT
  POIN2 Label_01949235
//  #07 //019   ----------------------------------------
 BYTE   PATT
  POIN2 Label_01949223
//  #07 //020   ----------------------------------------
 BYTE   PATT
  POIN2 Label_0194924C
//  #07 //021   ----------------------------------------
 BYTE   PATT
  POIN2 Label_01949223
//  #07 //022   ----------------------------------------
 BYTE   PATT
  POIN2 Label_01949275
//  #07 //023   ----------------------------------------
 BYTE   PATT
  POIN2 Label_01949283
//  #07 //024   ----------------------------------------
 BYTE   PATT
  POIN2 Label_01949275
//  #07 //025   ----------------------------------------
 BYTE   PATT
  POIN2 Label_01949283
//  #07 //026   ----------------------------------------
 BYTE   W72
 BYTE   W72
//  #07 //027   ----------------------------------------
 BYTE   W72
 BYTE   W72
//  #07 //028   ----------------------------------------
 BYTE   W72
 BYTE   W72
//  #07 //029   ----------------------------------------
 BYTE   W72
 BYTE   W48
//  #07 //030   ----------------------------------------
 BYTE   PAN   c_v+0
 BYTE   VOL   47*KHCoMScherzoDiNotteOLDAzula_mvl/mxv
 BYTE   N03  Dn1  v100
 BYTE   W03
 BYTE   N03
 BYTE   W03
 BYTE   N03
 BYTE   W03
 BYTE   N03
 BYTE   W03
 BYTE   N03
 BYTE   W03
 BYTE   N03
 BYTE   W03
 BYTE   N03
 BYTE   W03
 BYTE   N03
 BYTE   W03
//  #07 //031   ----------------------------------------
 BYTE   PATT
  POIN2 Label_0194924C
//  #07 //032   ----------------------------------------
 BYTE   PATT
  POIN2 Label_01949223
//  #07 //033   ----------------------------------------
 BYTE   PATT
  POIN2 Label_0194924C
//  #07 //034   ----------------------------------------
 BYTE   PATT
  POIN2 Label_01949223
//  #07 //035   ----------------------------------------
 BYTE   GoTo
  POIN2 Label_01949235
//  #07 //036   ----------------------------------------
 BYTE   PATT
  POIN2 Label_01949235
//  #07 //037   ----------------------------------------
 BYTE   PATT
  POIN2 Label_01949223
//  #07 //038   ----------------------------------------
 BYTE   PATT
  POIN2 Label_0194924C
//  #07 //039   ----------------------------------------
 BYTE   PATT
  POIN2 Label_01949223
//  #07 //040   ----------------------------------------
 BYTE   PATT
  POIN2 Label_0194924C
//  #07 //041   ----------------------------------------
 BYTE   PATT
  POIN2 Label_01949223
//  #07 //042   ----------------------------------------
 BYTE   PATT
  POIN2 Label_0194924C
//  #07 //043   ----------------------------------------
 BYTE   PATT
  POIN2 Label_01949223
//  #07 //044   ----------------------------------------
 BYTE   VOL   47*KHCoMScherzoDiNotteOLDAzula_mvl/mxv
 BYTE   W72
 BYTE   W72
//  #07 //045   ----------------------------------------
 BYTE   W72
 BYTE   W72
//  #07 //046   ----------------------------------------
 BYTE   W72
 BYTE   W72
//  #07 //047   ----------------------------------------
 BYTE   W72
 BYTE   W72
//  #07 //048   ----------------------------------------
 BYTE   W72
 BYTE   W72
//  #07 //049   ----------------------------------------
 BYTE   W72
 BYTE   W72
//  #07 //050   ----------------------------------------
 BYTE   W72
 BYTE   W72
//  #07 //051   ----------------------------------------
 BYTE   W72
 BYTE   W72
//  #07 //052   ----------------------------------------
 BYTE   W72
 BYTE   W72
//  #07 //053   ----------------------------------------
 BYTE   W72
 BYTE   W72
//  #07 //054   ----------------------------------------
 BYTE   W72
 BYTE   W72
//  #07 //055   ----------------------------------------
 BYTE   W72
 BYTE   W72
//  #07 //056   ----------------------------------------
 BYTE   W72
 BYTE   W72
//  #07 //057   ----------------------------------------
 BYTE   W72
 BYTE   W72
 BYTE   FINE

//******************************************************//
	ALIGN 4

KHCoMScherzoDiNotteOLDAzula:
	BYTE	7	// NumTrks
	BYTE	0	// NumBlks
	BYTE	KHCoMScherzoDiNotteOLDAzula_pri	// Priority
	BYTE	KHCoMScherzoDiNotteOLDAzula_rev	// Reverb.
    
	POIN2	KHCoMScherzoDiNotteOLDAzula_grp
    
	POIN2	KHCoMScherzoDiNotteOLDAzula_001
	POIN2	KHCoMScherzoDiNotteOLDAzula_002
	POIN2	KHCoMScherzoDiNotteOLDAzula_003
	POIN2	KHCoMScherzoDiNotteOLDAzula_004
	POIN2	KHCoMScherzoDiNotteOLDAzula_005
	POIN2	KHCoMScherzoDiNotteOLDAzula_006
	POIN2	KHCoMScherzoDiNotteOLDAzula_007

	
