//Event file generated from Sappy .s format.
	#include "MPlayDef.event"

	#define	KHCoMMonstrousMonstroAzula_grp  voicegroup000
	#define	KHCoMMonstrousMonstroAzula_pri  0
	#define	KHCoMMonstrousMonstroAzula_rev  0
	#define	KHCoMMonstrousMonstroAzula_mvl  127
	#define	KHCoMMonstrousMonstroAzula_key  0
	#define	KHCoMMonstrousMonstroAzula_tbs  1
	#define	KHCoMMonstrousMonstroAzula_exg  0
	#define	KHCoMMonstrousMonstroAzula_cmp  1

	// .rodata
	//	KHCoMMonstrousMonstroAzula
	ALIGN 4


//**************** Track 1 (Midi-Chn.0) ****************//

KHCoMMonstrousMonstroAzula_001:
//  #01 //000   ----------------------------------------
 BYTE   KEYSH   KHCoMMonstrousMonstroAzula_key+0
 BYTE   TEMPO   172*KHCoMMonstrousMonstroAzula_tbs/2
 BYTE   VOICE   61
 BYTE   MODT 0
 BYTE   LFOS 44
 BYTE   VOL   50*KHCoMMonstrousMonstroAzula_mvl/mxv
 BYTE   PAN   c_v+0
 BYTE   W96
//  #01 //001   ----------------------------------------
 BYTE   W96
//  #01 //002   ----------------------------------------
 BYTE   W96
//  #01 //003   ----------------------------------------
 BYTE   W96
//  #01 //004   ----------------------------------------
Label_01067536:
 BYTE   W12
 BYTE   N08  Cn4  v104
 BYTE   W12
 BYTE   N04
 BYTE   W12
 BYTE   N06
 BYTE   W12
 BYTE   N09
 BYTE   W12
 BYTE   N02  As3
 BYTE   W03
 BYTE   Cn4
 BYTE   W03
 BYTE   N05  As3
 BYTE   W06
 BYTE   Gs3
 BYTE   W12
 BYTE   N09  Gn3
 BYTE   W12
 BYTE   PEND 
//  #01 //005   ----------------------------------------
Label_0106754F:
 BYTE   N18  Gs3  v104
 BYTE   W24
 BYTE   N06  Gn3
 BYTE   W12
 BYTE   N04  Gs3
 BYTE   W12
 BYTE   N06  As3
 BYTE   W12
 BYTE   N04  Cn4
 BYTE   W12
 BYTE   N24  Gn3
 BYTE   W24
 BYTE   PEND 
//  #01 //006   ----------------------------------------
 BYTE   W12
 BYTE   N08  Cs4
 BYTE   W12
 BYTE   N04
 BYTE   W12
 BYTE   N06
 BYTE   W12
 BYTE   N09
 BYTE   W12
 BYTE   N02  Cn4
 BYTE   W03
 BYTE   Cs4
 BYTE   W03
 BYTE   N05  Cn4
 BYTE   W06
 BYTE   As3
 BYTE   W12
 BYTE   N09  Gs3
 BYTE   W12
//  #01 //007   ----------------------------------------
 BYTE   As3
 BYTE   W12
 BYTE   N04  Gs3
 BYTE   W12
 BYTE   Fs3
 BYTE   W12
 BYTE   N06  Fn3
 BYTE   W12
 BYTE   N18  Fs3
 BYTE   W24
 BYTE   N12  Cs4
 BYTE   W24
//  #01 //008   ----------------------------------------
 BYTE   PATT
  POIN2 Label_01067536
//  #01 //009   ----------------------------------------
 BYTE   PATT
  POIN2 Label_0106754F
//  #01 //010   ----------------------------------------
 BYTE   W12
 BYTE   N08  Cs4  v104
 BYTE   W12
 BYTE   N04
 BYTE   W12
 BYTE   N06
 BYTE   W12
 BYTE   N09
 BYTE   W12
 BYTE   N06  Ds4
 BYTE   W12
 BYTE   N02  Fn4
 BYTE   W03
 BYTE   Fs4
 BYTE   W03
 BYTE   N05  Fn4
 BYTE   W06
 BYTE   N09  Cs4
 BYTE   W12
//  #01 //011   ----------------------------------------
 BYTE   N09
 BYTE   W12
 BYTE   N04  Cn4
 BYTE   W12
 BYTE   As3
 BYTE   W12
 BYTE   N06  Gs3
 BYTE   W12
 BYTE   N18  As3
 BYTE   W24
 BYTE   N12  Fs4
 BYTE   W24
//  #01 //012   ----------------------------------------
 BYTE   W96
//  #01 //013   ----------------------------------------
 BYTE   W96
//  #01 //014   ----------------------------------------
 BYTE   W96
//  #01 //015   ----------------------------------------
 BYTE   W96
//  #01 //016   ----------------------------------------
 BYTE   W96
//  #01 //017   ----------------------------------------
 BYTE   W96
//  #01 //018   ----------------------------------------
 BYTE   W96
//  #01 //019   ----------------------------------------
 BYTE   W96
//  #01 //020   ----------------------------------------
 BYTE   W96
//  #01 //021   ----------------------------------------
 BYTE   W96
//  #01 //022   ----------------------------------------
 BYTE   W96
//  #01 //023   ----------------------------------------
 BYTE   W96
//  #01 //024   ----------------------------------------
 BYTE   W96
//  #01 //025   ----------------------------------------
 BYTE   W96
//  #01 //026   ----------------------------------------
 BYTE   W96
//  #01 //027   ----------------------------------------
 BYTE   W96
//  #01 //028   ----------------------------------------
 BYTE   N48  Bn2  v100
 BYTE   W48
 BYTE   N36  Gs3
 BYTE   W36
 BYTE   N06  Fs3
 BYTE   W06
 BYTE   Gs3
 BYTE   W06
//  #01 //029   ----------------------------------------
 BYTE   N48  As3
 BYTE   W48
 BYTE   N42  Ds3
 BYTE   W48
//  #01 //030   ----------------------------------------
 BYTE   N48  Gs3
 BYTE   W48
 BYTE   N03  Fs3
 BYTE   W03
 BYTE   Gs3
 BYTE   W03
 BYTE   N18  Fs3
 BYTE   W18
 BYTE   N24  En3
 BYTE   W24
//  #01 //031   ----------------------------------------
 BYTE   N48  As3
 BYTE   W48
 BYTE   N24  Gs3
 BYTE   W24
 BYTE   Gn3
 BYTE   W24
//  #01 //032   ----------------------------------------
 BYTE   N48  Bn3
 BYTE   W48
 BYTE   N03  As3
 BYTE   W03
 BYTE   Bn3
 BYTE   W03
 BYTE   N18  As3
 BYTE   W18
 BYTE   N24  Gs3
 BYTE   W24
//  #01 //033   ----------------------------------------
 BYTE   As3  v104
 BYTE   W24
 BYTE   Bn3  v112
 BYTE   W24
 BYTE   Cs4  v116
 BYTE   W24
 BYTE   Dn4  v127
 BYTE   W24
//  #01 //034   ----------------------------------------
 BYTE   N12  Ds4  v088
 BYTE   W12
 BYTE   N08  Ds3
 BYTE   W12
 BYTE   N04
 BYTE   W12
 BYTE   N06
 BYTE   W12
 BYTE   N09
 BYTE   W12
 BYTE   N06  Cs3
 BYTE   W12
 BYTE   N05  Bn2
 BYTE   W12
 BYTE   N09  As2
 BYTE   W12
//  #01 //035   ----------------------------------------
 BYTE   W96
//  #01 //036   ----------------------------------------
 BYTE   W96
//  #01 //037   ----------------------------------------
 BYTE   W96
//  #01 //038   ----------------------------------------
 BYTE   GoTo
  POIN2 Label_01067536
//  #01 //039   ----------------------------------------
 BYTE   W12
 BYTE   N08  Cn4  v104
 BYTE   W12
 BYTE   N04
 BYTE   W12
 BYTE   N06
 BYTE   W12
 BYTE   N09
 BYTE   W12
 BYTE   N02  As3
 BYTE   W03
 BYTE   Cn4
 BYTE   W03
 BYTE   N05  As3
 BYTE   W06
 BYTE   Gs3
 BYTE   W12
 BYTE   N09  Gn3
 BYTE   W09
 BYTE   FINE

//**************** Track 2 (Midi-Chn.1) ****************//

KHCoMMonstrousMonstroAzula_002:
//  #02 //000   ----------------------------------------
 BYTE   KEYSH   KHCoMMonstrousMonstroAzula_key+0
 BYTE   VOICE   34
 BYTE   MODT 0
 BYTE   LFOS 44
 BYTE   VOL   60*KHCoMMonstrousMonstroAzula_mvl/mxv
 BYTE   PAN   c_v+0
 BYTE   N06  Fn2  v056
 BYTE   W12
 BYTE   N12  Fn2  v088
 BYTE   W24
 BYTE   N12
 BYTE   W24
 BYTE   N12
 BYTE   W24
 BYTE   N06
 BYTE   W12
//  #02 //001   ----------------------------------------
 BYTE   Fn2  v096
 BYTE   W12
 BYTE   N12
 BYTE   W24
 BYTE   N12
 BYTE   W24
 BYTE   N12
 BYTE   W24
 BYTE   N06
 BYTE   W12
//  #02 //002   ----------------------------------------
 BYTE   Fn2  v112
 BYTE   W12
 BYTE   N12
 BYTE   W24
 BYTE   N12
 BYTE   W24
 BYTE   N12
 BYTE   W24
 BYTE   N06
 BYTE   W12
//  #02 //003   ----------------------------------------
 BYTE   Fn2  v120
 BYTE   W12
 BYTE   N12
 BYTE   W24
 BYTE   N12
 BYTE   W24
 BYTE   N12
 BYTE   W24
 BYTE   N06
 BYTE   W12
//  #02 //004   ----------------------------------------
Label_01067A83:
 BYTE   N06  Fn2  v127
 BYTE   W12
 BYTE   N12
 BYTE   W24
 BYTE   N12
 BYTE   W24
 BYTE   N12
 BYTE   W24
 BYTE   N06
 BYTE   W12
 BYTE   PEND 
//  #02 //005   ----------------------------------------
 BYTE   PATT
  POIN2 Label_01067A83
//  #02 //006   ----------------------------------------
Label_01067A95:
 BYTE   N06  Fs2  v127
 BYTE   W12
 BYTE   N12
 BYTE   W24
 BYTE   N12
 BYTE   W24
 BYTE   N12
 BYTE   W24
 BYTE   N06
 BYTE   W12
 BYTE   PEND 
//  #02 //007   ----------------------------------------
 BYTE   PATT
  POIN2 Label_01067A95
//  #02 //008   ----------------------------------------
 BYTE   PATT
  POIN2 Label_01067A83
//  #02 //009   ----------------------------------------
 BYTE   PATT
  POIN2 Label_01067A83
//  #02 //010   ----------------------------------------
 BYTE   PATT
  POIN2 Label_01067A95
//  #02 //011   ----------------------------------------
 BYTE   PATT
  POIN2 Label_01067A95
//  #02 //012   ----------------------------------------
 BYTE   PATT
  POIN2 Label_01067A83
//  #02 //013   ----------------------------------------
 BYTE   PATT
  POIN2 Label_01067A83
//  #02 //014   ----------------------------------------
 BYTE   PATT
  POIN2 Label_01067A95
//  #02 //015   ----------------------------------------
 BYTE   PATT
  POIN2 Label_01067A95
//  #02 //016   ----------------------------------------
 BYTE   PATT
  POIN2 Label_01067A83
//  #02 //017   ----------------------------------------
 BYTE   PATT
  POIN2 Label_01067A83
//  #02 //018   ----------------------------------------
 BYTE   PATT
  POIN2 Label_01067A95
//  #02 //019   ----------------------------------------
 BYTE   PATT
  POIN2 Label_01067A95
//  #02 //020   ----------------------------------------
 BYTE   W12
 BYTE   N08  Cn3  v080
 BYTE   W12
 BYTE   N04
 BYTE   W12
 BYTE   N06
 BYTE   W12
 BYTE   N09
 BYTE   W12
 BYTE   N06  As2
 BYTE   W12
 BYTE   N05  Gs2
 BYTE   W12
 BYTE   N09  Gn2
 BYTE   W12
//  #02 //021   ----------------------------------------
 BYTE   W96
//  #02 //022   ----------------------------------------
 BYTE   PATT
  POIN2 Label_01067A83
//  #02 //023   ----------------------------------------
 BYTE   PATT
  POIN2 Label_01067A83
//  #02 //024   ----------------------------------------
 BYTE   PATT
  POIN2 Label_01067A83
//  #02 //025   ----------------------------------------
 BYTE   PATT
  POIN2 Label_01067A83
//  #02 //026   ----------------------------------------
Label_01067B0C:
 BYTE   N48  Cs3  v096
 BYTE   W48
 BYTE   N06  Ds3  v120
 BYTE   W12
 BYTE   N12
 BYTE   W36
 BYTE   PEND 
//  #02 //027   ----------------------------------------
 BYTE   PATT
  POIN2 Label_01067B0C
//  #02 //028   ----------------------------------------
 BYTE   N06  Gs2  v127
 BYTE   W12
 BYTE   N12
 BYTE   W24
 BYTE   N12
 BYTE   W24
 BYTE   N12
 BYTE   W24
 BYTE   N06
 BYTE   W12
//  #02 //029   ----------------------------------------
 BYTE   PATT
  POIN2 Label_01067A95
//  #02 //030   ----------------------------------------
 BYTE   PATT
  POIN2 Label_01067A83
//  #02 //031   ----------------------------------------
 BYTE   PATT
  POIN2 Label_01067A83
//  #02 //032   ----------------------------------------
 BYTE   PATT
  POIN2 Label_01067A83
//  #02 //033   ----------------------------------------
 BYTE   PATT
  POIN2 Label_01067A83
//  #02 //034   ----------------------------------------
 BYTE   W96
//  #02 //035   ----------------------------------------
 BYTE   W48
 BYTE   N09  Ds3  v120
 BYTE   W12
 BYTE   N05  Cs3
 BYTE   W12
 BYTE   Bn2  v127
 BYTE   W12
 BYTE   N09  As2
 BYTE   W12
//  #02 //036   ----------------------------------------
 BYTE   W12
 BYTE   N08  Fn2  v120
 BYTE   W12
 BYTE   N04
 BYTE   W12
 BYTE   N06
 BYTE   W12
 BYTE   N09
 BYTE   W12
 BYTE   N06  Ds2
 BYTE   W12
 BYTE   N05  Cs2
 BYTE   W12
 BYTE   N09  Cn2
 BYTE   W12
//  #02 //037   ----------------------------------------
 BYTE   Cn3
 BYTE   W12
 BYTE   N06  As2
 BYTE   W12
 BYTE   N05  Gs2
 BYTE   W12
 BYTE   N09  Gn2
 BYTE   W12
 BYTE   Cn3
 BYTE   W12
 BYTE   N05  As2
 BYTE   W12
 BYTE   Gs2  v127
 BYTE   W12
 BYTE   N09  Gn2
 BYTE   W12
//  #02 //038   ----------------------------------------
 BYTE   GoTo
  POIN2 Label_01067A83
//  #02 //039   ----------------------------------------
 BYTE   N06  Fn2  v127
 BYTE   W12
 BYTE   N12
 BYTE   W24
 BYTE   N12
 BYTE   W24
 BYTE   N12
 BYTE   W24
 BYTE   N06
 BYTE   W09
 BYTE   FINE

//**************** Track 3 (Midi-Chn.2) ****************//

KHCoMMonstrousMonstroAzula_003:
//  #03 //000   ----------------------------------------
 BYTE   KEYSH   KHCoMMonstrousMonstroAzula_key+0
 BYTE   VOICE   48
 BYTE   MODT 0
 BYTE   LFOS 44
 BYTE   VOL   50*KHCoMMonstrousMonstroAzula_mvl/mxv
 BYTE   PAN   c_v+0
 BYTE   W12
 BYTE   N06  Fn2  v127
 BYTE   N06  Cn3
 BYTE   W24
 BYTE   Fn2
 BYTE   N06  Cn3
 BYTE   W12
 BYTE   N18  As2  v096
 BYTE   N18  Dn3
 BYTE   W24
 BYTE   Cn3
 BYTE   N18  En3
 BYTE   W24
//  #03 //001   ----------------------------------------
Label_01067349:
 BYTE   W12
 BYTE   N06  Fn2  v127
 BYTE   N06  Cn3
 BYTE   W24
 BYTE   Fn2
 BYTE   N06  Cn3
 BYTE   W12
 BYTE   N18  As2  v096
 BYTE   N18  Dn3
 BYTE   W24
 BYTE   Cn3
 BYTE   N18  En3
 BYTE   W24
 BYTE   PEND 
//  #03 //002   ----------------------------------------
 BYTE   VOL   50*KHCoMMonstrousMonstroAzula_mvl/mxv
 BYTE   PAN   c_v+0
 BYTE   W12
 BYTE   N06  Fn2  v127
 BYTE   N06  Cn3
 BYTE   W24
 BYTE   Fn2
 BYTE   N06  Cn3
 BYTE   W12
 BYTE   N18  As2  v096
 BYTE   N18  Dn3
 BYTE   W24
 BYTE   Cn3
 BYTE   N18  En3
 BYTE   W24
//  #03 //003   ----------------------------------------
 BYTE   PATT
  POIN2 Label_01067349
//  #03 //004   ----------------------------------------
Label_0106737D:
//  #03 //005   ----------------------------------------
 BYTE   PATT
  POIN2 Label_01067349
//  #03 //006   ----------------------------------------
 BYTE   PATT
  POIN2 Label_01067349
//  #03 //007   ----------------------------------------
Label_01067387:
 BYTE   W12
 BYTE   N06  Fs2  v127
 BYTE   N06  As2
 BYTE   W24
 BYTE   Fs2
 BYTE   N06  As2
 BYTE   W12
 BYTE   N18  Fs2  v096
 BYTE   N18  Cn3
 BYTE   W24
 BYTE   As2
 BYTE   N18  Cs3
 BYTE   W24
 BYTE   PEND 
//  #03 //008   ----------------------------------------
 BYTE   PATT
  POIN2 Label_01067387
//  #03 //009   ----------------------------------------
 BYTE   PATT
  POIN2 Label_01067349
//  #03 //010   ----------------------------------------
 BYTE   PATT
  POIN2 Label_01067349
//  #03 //011   ----------------------------------------
 BYTE   PATT
  POIN2 Label_01067387
//  #03 //012   ----------------------------------------
 BYTE   PATT
  POIN2 Label_01067387
//  #03 //013   ----------------------------------------
Label_010673B6:
 BYTE   W12
 BYTE   N06  Cn3  v127
 BYTE   W24
 BYTE   N06
 BYTE   W12
 BYTE   N18  Dn3
 BYTE   W24
 BYTE   En3
 BYTE   W24
 BYTE   PEND 
//  #03 //014   ----------------------------------------
 BYTE   PATT
  POIN2 Label_010673B6
//  #03 //015   ----------------------------------------
Label_010673C8:
 BYTE   W12
 BYTE   N06  As2  v127
 BYTE   W24
 BYTE   N06
 BYTE   W12
 BYTE   N18  Cn3
 BYTE   W24
 BYTE   Cs3
 BYTE   W24
 BYTE   PEND 
//  #03 //016   ----------------------------------------
 BYTE   PATT
  POIN2 Label_010673C8
//  #03 //017   ----------------------------------------
 BYTE   PATT
  POIN2 Label_010673B6
//  #03 //018   ----------------------------------------
 BYTE   PATT
  POIN2 Label_010673B6
//  #03 //019   ----------------------------------------
 BYTE   PATT
  POIN2 Label_010673C8
//  #03 //020   ----------------------------------------
 BYTE   PATT
  POIN2 Label_010673C8
//  #03 //021   ----------------------------------------
 BYTE   W96
//  #03 //022   ----------------------------------------
 BYTE   N09  Gs2  v127
 BYTE   N09  Cn3
 BYTE   W12
 BYTE   N06  Gn2
 BYTE   N06  As2
 BYTE   W12
 BYTE   N05  Fn2
 BYTE   N05  Gs2
 BYTE   W12
 BYTE   N09  En2
 BYTE   N09  Gn2
 BYTE   W12
 BYTE   N48
 BYTE   N48  Cn3
 BYTE   W48
//  #03 //023   ----------------------------------------
 BYTE   W96
//  #03 //024   ----------------------------------------
 BYTE   W96
//  #03 //025   ----------------------------------------
 BYTE   W96
//  #03 //026   ----------------------------------------
 BYTE   W96
//  #03 //027   ----------------------------------------
 BYTE   W96
//  #03 //028   ----------------------------------------
 BYTE   W96
//  #03 //029   ----------------------------------------
 BYTE   N92  Gs2  v096
 BYTE   N92  Bn2
 BYTE   W96
//  #03 //030   ----------------------------------------
 BYTE   Fs2
 BYTE   N92  As2
 BYTE   W96
//  #03 //031   ----------------------------------------
 BYTE   Fn2
 BYTE   N92  Bn2
 BYTE   W96
//  #03 //032   ----------------------------------------
 BYTE   Fn2
 BYTE   N92  Bn2
 BYTE   W96
//  #03 //033   ----------------------------------------
 BYTE   Bn2  v080
 BYTE   N92  Ds3  v060
 BYTE   W96
//  #03 //034   ----------------------------------------
 BYTE   Ds3  v080
 BYTE   N92  Gs3  v060
 BYTE   W96
//  #03 //035   ----------------------------------------
 BYTE   W96
//  #03 //036   ----------------------------------------
 BYTE   N09  Bn2  v127
 BYTE   N09  Ds3
 BYTE   W12
 BYTE   N06  As2
 BYTE   N06  Cs3
 BYTE   W12
 BYTE   N05  Gs2
 BYTE   N05  Bn2
 BYTE   W12
 BYTE   N09  Gn2
 BYTE   N09  As2
 BYTE   W12
 BYTE   N44
 BYTE   N44  Ds3
 BYTE   W48
//  #03 //037   ----------------------------------------
 BYTE   W96
//  #03 //038   ----------------------------------------
 BYTE   N09  Gs2
 BYTE   N09  Cn3
 BYTE   W12
 BYTE   N06  Gn2
 BYTE   N06  As2
 BYTE   W12
 BYTE   N05  Fn2
 BYTE   N05  Gs2
 BYTE   W12
 BYTE   N09  En2
 BYTE   N09  Gn2
 BYTE   W12
 BYTE   N44
 BYTE   N44  Cn3
 BYTE   W48
//  #03 //039   ----------------------------------------
 BYTE   GoTo
  POIN2 Label_0106737D
//  #03 //040   ----------------------------------------
 BYTE   W12
 BYTE   N06  Fn2  v127
 BYTE   N06  Cn3
 BYTE   W24
 BYTE   Fn2
 BYTE   N06  Cn3
 BYTE   W12
 BYTE   N18  As2  v096
 BYTE   N18  Dn3
 BYTE   W24
 BYTE   Cn3
 BYTE   N18  En3
 BYTE   W21
 BYTE   FINE

//**************** Track 4 (Midi-Chn.3) ****************//

KHCoMMonstrousMonstroAzula_004:
//  #04 //000   ----------------------------------------
 BYTE   KEYSH   KHCoMMonstrousMonstroAzula_key+0
 BYTE   VOICE   69
 BYTE   MODT 0
 BYTE   LFOS 44
 BYTE   VOL   50*KHCoMMonstrousMonstroAzula_mvl/mxv
 BYTE   PAN   c_v+0
 BYTE   N08  Cn3  v052
 BYTE   N08  Fn3  v056
 BYTE   W12
 BYTE   Gs3  v052
 BYTE   N08  Cn4  v056
 BYTE   W12
 BYTE   As3  v052
 BYTE   N08  Cs4  v056
 BYTE   W12
 BYTE   Fn3  v052
 BYTE   N08  As3  v056
 BYTE   W12
 BYTE   Cn4  v052
 BYTE   N08  Fn4  v056
 BYTE   W12
 BYTE   Gs3  v052
 BYTE   N08  Cn4  v056
 BYTE   W12
 BYTE   Fn3  v052
 BYTE   N08  Gs3  v056
 BYTE   W12
 BYTE   Cn3  v052
 BYTE   N08  En3  v056
 BYTE   W12
//  #04 //001   ----------------------------------------
Label_0106783D:
 BYTE   N08  Cn3  v052
 BYTE   N08  Fn3  v056
 BYTE   W12
 BYTE   Gs3  v052
 BYTE   N08  Cn4  v056
 BYTE   W12
 BYTE   As3  v052
 BYTE   N08  Cs4  v056
 BYTE   W12
 BYTE   Fn3  v052
 BYTE   N08  As3  v056
 BYTE   W12
 BYTE   Cn4  v052
 BYTE   N08  Fn4  v056
 BYTE   W12
 BYTE   Gs3  v052
 BYTE   N08  Cn4  v056
 BYTE   W12
 BYTE   Fn3  v052
 BYTE   N08  Gs3  v056
 BYTE   W12
 BYTE   Cn3  v052
 BYTE   N08  En3  v056
 BYTE   W12
 BYTE   PEND 
//  #04 //002   ----------------------------------------
 BYTE   PATT
  POIN2 Label_0106783D
//  #04 //003   ----------------------------------------
 BYTE   PATT
  POIN2 Label_0106783D
//  #04 //004   ----------------------------------------
Label_01067879:
 BYTE   W96
//  #04 //005   ----------------------------------------
 BYTE   W96
//  #04 //006   ----------------------------------------
 BYTE   W96
//  #04 //007   ----------------------------------------
 BYTE   W96
//  #04 //008   ----------------------------------------
 BYTE   PATT
  POIN2 Label_0106783D
//  #04 //009   ----------------------------------------
 BYTE   PATT
  POIN2 Label_0106783D
//  #04 //010   ----------------------------------------
Label_01067887:
 BYTE   N08  Cs3  v052
 BYTE   N08  Fn3  v056
 BYTE   W12
 BYTE   Fs3  v052
 BYTE   N08  Cn4  v056
 BYTE   W12
 BYTE   As3  v052
 BYTE   N08  Cs4  v056
 BYTE   W12
 BYTE   Fs3  v052
 BYTE   N08  As3  v056
 BYTE   W12
 BYTE   Cs4  v052
 BYTE   N08  Fn4  v056
 BYTE   W12
 BYTE   Gs3  v052
 BYTE   N08  Cn4  v056
 BYTE   W12
 BYTE   Fs3  v052
 BYTE   N08  As3  v056
 BYTE   W12
 BYTE   Cs3  v052
 BYTE   N08  Fs3  v056
 BYTE   W12
 BYTE   PEND 
//  #04 //011   ----------------------------------------
 BYTE   PATT
  POIN2 Label_01067887
//  #04 //012   ----------------------------------------
 BYTE   W96
//  #04 //013   ----------------------------------------
 BYTE   W96
//  #04 //014   ----------------------------------------
 BYTE   W96
//  #04 //015   ----------------------------------------
 BYTE   W96
//  #04 //016   ----------------------------------------
 BYTE   W96
//  #04 //017   ----------------------------------------
 BYTE   W96
//  #04 //018   ----------------------------------------
 BYTE   W96
//  #04 //019   ----------------------------------------
 BYTE   W96
//  #04 //020   ----------------------------------------
 BYTE   W96
//  #04 //021   ----------------------------------------
 BYTE   W48
 BYTE   N12  Gs3  v060
 BYTE   N12  Cn4  v076
 BYTE   W12
 BYTE   N09  Gn3  v060
 BYTE   N09  As3  v076
 BYTE   W12
 BYTE   N06  Fn3  v060
 BYTE   N06  Gs3  v076
 BYTE   W12
 BYTE   N12  En3  v060
 BYTE   N12  Gn3  v076
 BYTE   W12
//  #04 //022   ----------------------------------------
Label_010678E4:
 BYTE   N09  Fn3  v060
 BYTE   W12
 BYTE   Cn4
 BYTE   W12
 BYTE   Dn4
 BYTE   W12
 BYTE   As3
 BYTE   W12
 BYTE   Fn4
 BYTE   W12
 BYTE   Cn4
 BYTE   W12
 BYTE   An3
 BYTE   W12
 BYTE   En3
 BYTE   W12
 BYTE   PEND 
//  #04 //023   ----------------------------------------
 BYTE   PATT
  POIN2 Label_010678E4
//  #04 //024   ----------------------------------------
 BYTE   PATT
  POIN2 Label_010678E4
//  #04 //025   ----------------------------------------
 BYTE   PATT
  POIN2 Label_010678E4
//  #04 //026   ----------------------------------------
Label_01067906:
 BYTE   N13  Cs3  v060
 BYTE   N13  Fn3
 BYTE   W12
 BYTE   N09  Ds3
 BYTE   N09  Gn3
 BYTE   W12
 BYTE   Fn3
 BYTE   N09  Gs3
 BYTE   W12
 BYTE   Cs3
 BYTE   N09  Fn3
 BYTE   W12
 BYTE   Gn3
 BYTE   N09  As3
 BYTE   W12
 BYTE   N13  Gn3
 BYTE   N13  As3
 BYTE   W36
 BYTE   PEND 
//  #04 //027   ----------------------------------------
 BYTE   PATT
  POIN2 Label_01067906
//  #04 //028   ----------------------------------------
 BYTE   N66  Gs2  v060
 BYTE   W48
 BYTE   N36  Bn2
 BYTE   W36
 BYTE   N06  As2
 BYTE   W06
 BYTE   Bn2
 BYTE   W06
//  #04 //029   ----------------------------------------
 BYTE   N44  Cs3
 BYTE   W48
 BYTE   N42  Fs2
 BYTE   W48
//  #04 //030   ----------------------------------------
 BYTE   N44  Bn2
 BYTE   W48
 BYTE   N21  As2
 BYTE   W24
 BYTE   Gs2
 BYTE   W24
//  #04 //031   ----------------------------------------
 BYTE   N44  Cs3
 BYTE   W48
 BYTE   N21  Bn2
 BYTE   W24
 BYTE   As2
 BYTE   W24
//  #04 //032   ----------------------------------------
 BYTE   N44  Ds3
 BYTE   W48
 BYTE   N21  Cs3
 BYTE   W24
 BYTE   Bn2
 BYTE   W24
//  #04 //033   ----------------------------------------
 BYTE   Gn3
 BYTE   W24
 BYTE   Gs3
 BYTE   W24
 BYTE   As3  v072
 BYTE   W24
 BYTE   Bn3  v076
 BYTE   W24
//  #04 //034   ----------------------------------------
 BYTE   N04  Ds3  v056
 BYTE   N04  As3  v060
 BYTE   W12
 BYTE   N06  Ds3  v052
 BYTE   N06  As3  v036
 BYTE   N06  Ds4  v056
 BYTE   W12
 BYTE   N02  Ds3  v052
 BYTE   N02  As3  v036
 BYTE   N02  Ds4  v056
 BYTE   W12
 BYTE   N04  Ds3  v052
 BYTE   N04  As3  v036
 BYTE   N04  Ds4  v056
 BYTE   W12
 BYTE   N07  Ds3  v052
 BYTE   N07  Bn3  v036
 BYTE   N07  Ds4  v056
 BYTE   W12
 BYTE   N04  Cs3  v052
 BYTE   N04  As3  v036
 BYTE   N04  Cs4  v056
 BYTE   W12
 BYTE   N03  Bn2  v052
 BYTE   N03  Gs3  v036
 BYTE   N03  Bn3  v056
 BYTE   W12
 BYTE   N07  As2  v052
 BYTE   N07  Gn3  v036
 BYTE   N07  As3  v056
 BYTE   W12
//  #04 //035   ----------------------------------------
 BYTE   Bn3  v036
 BYTE   W12
 BYTE   N04  As3
 BYTE   W12
 BYTE   N03  Gs3
 BYTE   W12
 BYTE   N07  Gn3
 BYTE   W12
 BYTE   Bn3  v076
 BYTE   N07  Ds4  v088
 BYTE   W12
 BYTE   N04  As3  v076
 BYTE   N04  Cs4  v088
 BYTE   W12
 BYTE   N03  Gs3  v076
 BYTE   N03  Bn3  v088
 BYTE   W12
 BYTE   N07  Gn3  v076
 BYTE   N07  As3  v088
 BYTE   W12
//  #04 //036   ----------------------------------------
 BYTE   W96
//  #04 //037   ----------------------------------------
 BYTE   N09  Gs3  v036
 BYTE   W12
 BYTE   N06  Gn3
 BYTE   W12
 BYTE   N05  Fn3
 BYTE   W12
 BYTE   N09  En3
 BYTE   W12
 BYTE   Gs3  v076
 BYTE   N09  Cn4  v088
 BYTE   W12
 BYTE   N06  Gn3  v076
 BYTE   N06  As3  v088
 BYTE   W12
 BYTE   N05  Fn3  v076
 BYTE   N05  Gs3  v088
 BYTE   W12
 BYTE   N09  En3  v076
 BYTE   N09  Gn3  v088
 BYTE   W12
//  #04 //038   ----------------------------------------
 BYTE   GoTo
  POIN2 Label_01067879
//  #04 //039   ----------------------------------------
 BYTE   W92
 BYTE   W01
 BYTE   FINE

//**************** Track 5 (Midi-Chn.4) ****************//

KHCoMMonstrousMonstroAzula_005:
//  #05 //000   ----------------------------------------
 BYTE   KEYSH   KHCoMMonstrousMonstroAzula_key+0
 BYTE   VOICE   65
 BYTE   MODT 0
 BYTE   LFOS 44
 BYTE   VOL   50*KHCoMMonstrousMonstroAzula_mvl/mxv
 BYTE   PAN   c_v+0
 BYTE   W96
//  #05 //001   ----------------------------------------
 BYTE   W96
//  #05 //002   ----------------------------------------
 BYTE   W96
//  #05 //003   ----------------------------------------
 BYTE   W96
//  #05 //004   ----------------------------------------
Label_010670B4:
 BYTE   W96
//  #05 //005   ----------------------------------------
 BYTE   W96
//  #05 //006   ----------------------------------------
 BYTE   W96
//  #05 //007   ----------------------------------------
 BYTE   W96
//  #05 //008   ----------------------------------------
 BYTE   W96
//  #05 //009   ----------------------------------------
 BYTE   W96
//  #05 //010   ----------------------------------------
 BYTE   W96
//  #05 //011   ----------------------------------------
 BYTE   W84
 BYTE   N06  Fs3  v060
 BYTE   N06  As3
 BYTE   W12
//  #05 //012   ----------------------------------------
Label_010670C2:
 BYTE   TIE  Gs3  v060
 BYTE   TIE  Cn4
 BYTE   W96
 BYTE   PEND 
//  #05 //013   ----------------------------------------
 BYTE   W78
 BYTE   EOT
 BYTE   Gs3  v072
 BYTE   W06
 BYTE   N04  Gs3
 BYTE   N04  Cn4
 BYTE   W06
 BYTE   Gs3
 BYTE   N04  Cn4
 BYTE   W06
//  #05 //014   ----------------------------------------
Label_010670D7:
 BYTE   TIE  Fs3  v060
 BYTE   TIE  As3
 BYTE   W96
 BYTE   PEND 
//  #05 //015   ----------------------------------------
 BYTE   W72
 BYTE   EOT
 BYTE   Fs3  v070
 BYTE   W12
 BYTE   N06  Fs3
 BYTE   N06  As3
 BYTE   W12
//  #05 //016   ----------------------------------------
 BYTE   PATT
  POIN2 Label_010670C2
//  #05 //017   ----------------------------------------
 BYTE   W78
 BYTE   EOT
 BYTE   Gs3  v072
 BYTE   W06
 BYTE   N04  Gs3  v060
 BYTE   N04  Cn4
 BYTE   W06
 BYTE   Gs3
 BYTE   N04  Cn4
 BYTE   W06
//  #05 //018   ----------------------------------------
 BYTE   PATT
  POIN2 Label_010670D7
//  #05 //019   ----------------------------------------
 BYTE   W84
 BYTE   EOT
 BYTE   Fs3  v070
 BYTE   W12
//  #05 //020   ----------------------------------------
 BYTE   W96
//  #05 //021   ----------------------------------------
 BYTE   N09  Cn3  v080
 BYTE   W12
 BYTE   N05  As2
 BYTE   W12
 BYTE   Gs2
 BYTE   W12
 BYTE   N09  Gn2
 BYTE   W12
 BYTE   Cn4  v096
 BYTE   W12
 BYTE   N05  As3
 BYTE   W12
 BYTE   Gs3  v120
 BYTE   W12
 BYTE   N09  Gn3
 BYTE   W12
//  #05 //022   ----------------------------------------
Label_0106711F:
 BYTE   W12
 BYTE   N08  An3  v112
 BYTE   N08  Cn4  v120
 BYTE   W12
 BYTE   N04  An3  v112
 BYTE   N04  Cn4  v120
 BYTE   W12
 BYTE   N06  An3  v112
 BYTE   N06  Cn4  v120
 BYTE   W12
 BYTE   N09  An3  v112
 BYTE   N09  Cn4  v120
 BYTE   W12
 BYTE   Gn3  v112
 BYTE   N02  As3  v120
 BYTE   W03
 BYTE   Cn4
 BYTE   W03
 BYTE   N05  As3
 BYTE   W06
 BYTE   Fn3  v112
 BYTE   N05  An3  v120
 BYTE   W12
 BYTE   N09  En3  v112
 BYTE   N09  Gn3  v120
 BYTE   W12
 BYTE   PEND 
//  #05 //023   ----------------------------------------
Label_01067155:
 BYTE   N18  Fn3  v112
 BYTE   N18  An3  v120
 BYTE   W24
 BYTE   N06  En3  v112
 BYTE   N06  Gn3  v120
 BYTE   W12
 BYTE   N04  Fn3  v112
 BYTE   N04  An3  v120
 BYTE   W12
 BYTE   N06  Gn3  v112
 BYTE   N06  As3  v120
 BYTE   W12
 BYTE   N04  An3  v112
 BYTE   N04  Cn4  v120
 BYTE   W12
 BYTE   N24  En3  v112
 BYTE   N24  Gn3  v120
 BYTE   W24
 BYTE   PEND 
//  #05 //024   ----------------------------------------
 BYTE   PATT
  POIN2 Label_0106711F
//  #05 //025   ----------------------------------------
 BYTE   PATT
  POIN2 Label_01067155
//  #05 //026   ----------------------------------------
 BYTE   W48
 BYTE   N05  Ds3  v080
 BYTE   N05  Gn3
 BYTE   W12
 BYTE   N10  Ds3
 BYTE   N10  Gn3
 BYTE   W36
//  #05 //027   ----------------------------------------
 BYTE   W48
 BYTE   N05  Ds3
 BYTE   N05  Gn3
 BYTE   W12
 BYTE   N10  Ds3
 BYTE   N10  Gn3
 BYTE   W24
 BYTE   N03  Cs3  v072
 BYTE   N03  As3
 BYTE   W06
 BYTE   Cs3
 BYTE   N03  As3
 BYTE   W06
//  #05 //028   ----------------------------------------
 BYTE   W96
//  #05 //029   ----------------------------------------
 BYTE   W96
//  #05 //030   ----------------------------------------
 BYTE   W96
//  #05 //031   ----------------------------------------
 BYTE   W96
//  #05 //032   ----------------------------------------
 BYTE   W96
//  #05 //033   ----------------------------------------
 BYTE   W96
//  #05 //034   ----------------------------------------
 BYTE   W96
//  #05 //035   ----------------------------------------
 BYTE   N09  Ds3  v080
 BYTE   W12
 BYTE   N05  Cs3
 BYTE   W12
 BYTE   Bn2
 BYTE   W12
 BYTE   N09  As2
 BYTE   W60
//  #05 //036   ----------------------------------------
 BYTE   W96
//  #05 //037   ----------------------------------------
 BYTE   Cn3
 BYTE   W12
 BYTE   N05  As2
 BYTE   W12
 BYTE   Gs2
 BYTE   W12
 BYTE   N09  Gn2
 BYTE   W60
//  #05 //038   ----------------------------------------
 BYTE   GoTo
  POIN2 Label_010670B4
//  #05 //039   ----------------------------------------
 BYTE   W92
 BYTE   W01
 BYTE   FINE

//**************** Track 6 (Midi-Chn.5) ****************//

KHCoMMonstrousMonstroAzula_006:
//  #06 //000   ----------------------------------------
 BYTE   KEYSH   KHCoMMonstrousMonstroAzula_key+0
 BYTE   VOICE   47
 BYTE   MODT 0
 BYTE   LFOS 44
 BYTE   VOL   80*KHCoMMonstrousMonstroAzula_mvl/mxv
 BYTE   PAN   c_v+0
 BYTE   W96
//  #06 //001   ----------------------------------------
 BYTE   W84
 BYTE   N04  Fn2  v080
 BYTE   W04
 BYTE   Fn2  v096
 BYTE   W04
 BYTE   Fn2  v120
 BYTE   W04
//  #06 //002   ----------------------------------------
Label_01067C18:
 BYTE   N10  Fn2  v127
 BYTE   W24
 BYTE   Cn3  v120
 BYTE   W24
 BYTE   N10
 BYTE   W24
 BYTE   Fn2
 BYTE   W12
 BYTE   N10
 BYTE   W12
 BYTE   PEND 
//  #06 //003   ----------------------------------------
Label_01067C26:
 BYTE   N10  Fn2  v127
 BYTE   W24
 BYTE   Cn3  v120
 BYTE   W24
 BYTE   N10
 BYTE   W24
 BYTE   Fn2
 BYTE   W12
 BYTE   N04  Fn2  v080
 BYTE   W04
 BYTE   Fn2  v096
 BYTE   W04
 BYTE   Fn2  v120
 BYTE   W04
 BYTE   PEND 
//  #06 //004   ----------------------------------------
Label_01067C3C:
//  #06 //005   ----------------------------------------
 BYTE   PATT
  POIN2 Label_01067C18
//  #06 //006   ----------------------------------------
 BYTE   PATT
  POIN2 Label_01067C26
//  #06 //007   ----------------------------------------
Label_01067C46:
 BYTE   N10  Fs2  v127
 BYTE   W24
 BYTE   Cs3  v120
 BYTE   W24
 BYTE   N10
 BYTE   W24
 BYTE   Fs2
 BYTE   W12
 BYTE   N10
 BYTE   W12
 BYTE   PEND 
//  #06 //008   ----------------------------------------
Label_01067C54:
 BYTE   N10  Fs2  v127
 BYTE   W24
 BYTE   Cs3  v120
 BYTE   W24
 BYTE   N10
 BYTE   W24
 BYTE   Fs2
 BYTE   W12
 BYTE   N04  Fs2  v080
 BYTE   W04
 BYTE   Fs2  v096
 BYTE   W04
 BYTE   Fs2  v120
 BYTE   W04
 BYTE   PEND 
//  #06 //009   ----------------------------------------
 BYTE   PATT
  POIN2 Label_01067C18
//  #06 //010   ----------------------------------------
 BYTE   PATT
  POIN2 Label_01067C26
//  #06 //011   ----------------------------------------
 BYTE   PATT
  POIN2 Label_01067C46
//  #06 //012   ----------------------------------------
 BYTE   PATT
  POIN2 Label_01067C54
//  #06 //013   ----------------------------------------
 BYTE   PATT
  POIN2 Label_01067C18
//  #06 //014   ----------------------------------------
 BYTE   PATT
  POIN2 Label_01067C26
//  #06 //015   ----------------------------------------
 BYTE   PATT
  POIN2 Label_01067C46
//  #06 //016   ----------------------------------------
 BYTE   PATT
  POIN2 Label_01067C54
//  #06 //017   ----------------------------------------
 BYTE   PATT
  POIN2 Label_01067C18
//  #06 //018   ----------------------------------------
 BYTE   PATT
  POIN2 Label_01067C26
//  #06 //019   ----------------------------------------
 BYTE   PATT
  POIN2 Label_01067C46
//  #06 //020   ----------------------------------------
 BYTE   N10  Fs2  v127
 BYTE   W24
 BYTE   Cs3  v120
 BYTE   W24
 BYTE   N10
 BYTE   W24
 BYTE   Fs2
 BYTE   W12
 BYTE   N04
 BYTE   W04
 BYTE   Fs2  v127
 BYTE   W04
 BYTE   N04
 BYTE   W04
//  #06 //021   ----------------------------------------
 BYTE   N10  Cn3
 BYTE   W96
//  #06 //022   ----------------------------------------
Label_01067CB6:
 BYTE   W48
 BYTE   N03  Cn3  v044
 BYTE   W03
 BYTE   N03
 BYTE   W03
 BYTE   Cn3  v048
 BYTE   W03
 BYTE   N03
 BYTE   W03
 BYTE   Cn3  v052
 BYTE   W03
 BYTE   Cn3  v060
 BYTE   W03
 BYTE   Cn3  v072
 BYTE   W03
 BYTE   Cn3  v080
 BYTE   W03
 BYTE   Cn3  v088
 BYTE   W03
 BYTE   Cn3  v096
 BYTE   W03
 BYTE   Cn3  v112
 BYTE   W03
 BYTE   Cn3  v120
 BYTE   W03
 BYTE   Cn3  v127
 BYTE   W03
 BYTE   N03
 BYTE   W03
 BYTE   N03
 BYTE   W03
 BYTE   N03
 BYTE   W03
 BYTE   PEND 
//  #06 //023   ----------------------------------------
 BYTE   PATT
  POIN2 Label_01067C18
//  #06 //024   ----------------------------------------
 BYTE   PATT
  POIN2 Label_01067C26
//  #06 //025   ----------------------------------------
 BYTE   PATT
  POIN2 Label_01067C18
//  #06 //026   ----------------------------------------
 BYTE   PATT
  POIN2 Label_01067C26
//  #06 //027   ----------------------------------------
 BYTE   N10  Cs3  v112
 BYTE   W24
 BYTE   N10
 BYTE   W12
 BYTE   Gs2  v127
 BYTE   W12
 BYTE   N06  Ds2
 BYTE   W12
 BYTE   N10
 BYTE   W24
 BYTE   N06
 BYTE   W06
 BYTE   N06
 BYTE   W06
//  #06 //028   ----------------------------------------
 BYTE   N10  Cs3  v112
 BYTE   W24
 BYTE   N10
 BYTE   W12
 BYTE   Gs2  v127
 BYTE   W12
 BYTE   N06  Ds2
 BYTE   W12
 BYTE   N10
 BYTE   W24
 BYTE   N04  Ds2  v096
 BYTE   W04
 BYTE   Ds2  v120
 BYTE   W04
 BYTE   Ds2  v127
 BYTE   W04
//  #06 //029   ----------------------------------------
 BYTE   N10  Gs2
 BYTE   W24
 BYTE   Ds3  v120
 BYTE   W24
 BYTE   N10
 BYTE   W24
 BYTE   Gs2
 BYTE   W12
 BYTE   N10
 BYTE   W12
//  #06 //030   ----------------------------------------
 BYTE   Fs2  v127
 BYTE   W24
 BYTE   Ds3  v120
 BYTE   W24
 BYTE   N10
 BYTE   W24
 BYTE   Fs2
 BYTE   W12
 BYTE   N04  Fs2  v080
 BYTE   W04
 BYTE   Fs2  v096
 BYTE   W04
 BYTE   Fs2  v120
 BYTE   W04
//  #06 //031   ----------------------------------------
Label_01067D42:
 BYTE   N10  Fn2  v127
 BYTE   W24
 BYTE   Ds3  v120
 BYTE   W24
 BYTE   N10
 BYTE   W24
 BYTE   Fn2
 BYTE   W12
 BYTE   N10
 BYTE   W12
 BYTE   PEND 
//  #06 //032   ----------------------------------------
 BYTE   PATT
  POIN2 Label_01067D42
//  #06 //033   ----------------------------------------
 BYTE   PATT
  POIN2 Label_01067D42
//  #06 //034   ----------------------------------------
 BYTE   PATT
  POIN2 Label_01067D42
//  #06 //035   ----------------------------------------
 BYTE   N10  Ds2  v127
 BYTE   W96
//  #06 //036   ----------------------------------------
 BYTE   W48
 BYTE   N03  Ds2  v044
 BYTE   W03
 BYTE   N03
 BYTE   W03
 BYTE   Ds2  v048
 BYTE   W03
 BYTE   N03
 BYTE   W03
 BYTE   Ds2  v052
 BYTE   W03
 BYTE   Ds2  v060
 BYTE   W03
 BYTE   Ds2  v072
 BYTE   W03
 BYTE   Ds2  v080
 BYTE   W03
 BYTE   Ds2  v088
 BYTE   W03
 BYTE   Ds2  v096
 BYTE   W03
 BYTE   Ds2  v112
 BYTE   W03
 BYTE   Ds2  v120
 BYTE   W03
 BYTE   Ds2  v127
 BYTE   W03
 BYTE   N03
 BYTE   W03
 BYTE   N03
 BYTE   W03
 BYTE   N03
 BYTE   W03
//  #06 //037   ----------------------------------------
 BYTE   N10  Fn2
 BYTE   W96
//  #06 //038   ----------------------------------------
 BYTE   PATT
  POIN2 Label_01067CB6
//  #06 //039   ----------------------------------------
 BYTE   GoTo
  POIN2 Label_01067C3C
//  #06 //040   ----------------------------------------
 BYTE   N10  Fn2  v127
 BYTE   W24
 BYTE   Cn3  v120
 BYTE   W24
 BYTE   N10
 BYTE   W24
 BYTE   Fn2
 BYTE   W12
 BYTE   N10
 BYTE   W10
 BYTE   FINE

//**************** Track 7 (Midi-Chn.6) ****************//

KHCoMMonstrousMonstroAzula_007:
//  #07 //000   ----------------------------------------
 BYTE   KEYSH   KHCoMMonstrousMonstroAzula_key+0
 BYTE   VOICE   36
 BYTE   MODT 0
 BYTE   LFOS 44
 BYTE   PAN   c_v+0
 BYTE   VOL   65*KHCoMMonstrousMonstroAzula_mvl/mxv
 BYTE   W96
//  #07 //001   ----------------------------------------
 BYTE   W84
 BYTE   N04  Fn1  v052
 BYTE   W04
 BYTE   Fn1  v060
 BYTE   W04
 BYTE   Fn1  v076
 BYTE   W04
//  #07 //002   ----------------------------------------
Label_01067E3C:
 BYTE   N10  Fn1  v088
 BYTE   W24
 BYTE   Cn2  v076
 BYTE   W24
 BYTE   N10
 BYTE   W24
 BYTE   Fn1
 BYTE   W12
 BYTE   N10
 BYTE   W12
 BYTE   PEND 
//  #07 //003   ----------------------------------------
Label_01067E4A:
 BYTE   N10  Fn1  v088
 BYTE   W24
 BYTE   Cn2  v076
 BYTE   W24
 BYTE   N10
 BYTE   W24
 BYTE   Fn1
 BYTE   W12
 BYTE   N04  Fn1  v052
 BYTE   W04
 BYTE   Fn1  v060
 BYTE   W04
 BYTE   Fn1  v076
 BYTE   W04
 BYTE   PEND 
//  #07 //004   ----------------------------------------
Label_01067E60:
//  #07 //005   ----------------------------------------
 BYTE   PATT
  POIN2 Label_01067E3C
//  #07 //006   ----------------------------------------
 BYTE   PATT
  POIN2 Label_01067E4A
//  #07 //007   ----------------------------------------
Label_01067E6A:
 BYTE   N10  Fs1  v088
 BYTE   W24
 BYTE   Cs2  v076
 BYTE   W24
 BYTE   N10
 BYTE   W24
 BYTE   Fs1
 BYTE   W12
 BYTE   N10
 BYTE   W12
 BYTE   PEND 
//  #07 //008   ----------------------------------------
Label_01067E78:
 BYTE   N10  Fs1  v088
 BYTE   W24
 BYTE   Cs2  v076
 BYTE   W24
 BYTE   N10
 BYTE   W24
 BYTE   Fs1
 BYTE   W12
 BYTE   N04  Fs1  v052
 BYTE   W04
 BYTE   Fs1  v060
 BYTE   W04
 BYTE   Fs1  v076
 BYTE   W04
 BYTE   PEND 
//  #07 //009   ----------------------------------------
 BYTE   PATT
  POIN2 Label_01067E3C
//  #07 //010   ----------------------------------------
 BYTE   PATT
  POIN2 Label_01067E4A
//  #07 //011   ----------------------------------------
 BYTE   PATT
  POIN2 Label_01067E6A
//  #07 //012   ----------------------------------------
 BYTE   PATT
  POIN2 Label_01067E78
//  #07 //013   ----------------------------------------
 BYTE   PATT
  POIN2 Label_01067E3C
//  #07 //014   ----------------------------------------
 BYTE   PATT
  POIN2 Label_01067E4A
//  #07 //015   ----------------------------------------
 BYTE   PATT
  POIN2 Label_01067E6A
//  #07 //016   ----------------------------------------
 BYTE   PATT
  POIN2 Label_01067E78
//  #07 //017   ----------------------------------------
 BYTE   PATT
  POIN2 Label_01067E3C
//  #07 //018   ----------------------------------------
 BYTE   PATT
  POIN2 Label_01067E4A
//  #07 //019   ----------------------------------------
 BYTE   PATT
  POIN2 Label_01067E6A
//  #07 //020   ----------------------------------------
 BYTE   N10  Fs1  v088
 BYTE   W24
 BYTE   Cs2  v076
 BYTE   W24
 BYTE   N10
 BYTE   W24
 BYTE   Fs1
 BYTE   W12
 BYTE   N04
 BYTE   W04
 BYTE   Fs1  v088
 BYTE   W04
 BYTE   Fs1  v104
 BYTE   W04
//  #07 //021   ----------------------------------------
 BYTE   N10  Cn2  v116
 BYTE   W96
//  #07 //022   ----------------------------------------
Label_01067EDC:
 BYTE   W48
 BYTE   N03  Cn2  v028
 BYTE   W03
 BYTE   N03
 BYTE   W03
 BYTE   Cn2  v032
 BYTE   W03
 BYTE   N03
 BYTE   W03
 BYTE   N03
 BYTE   W03
 BYTE   Cn2  v036
 BYTE   W03
 BYTE   Cn2  v048
 BYTE   W03
 BYTE   Cn2  v052
 BYTE   W03
 BYTE   Cn2  v056
 BYTE   W03
 BYTE   Cn2  v060
 BYTE   W03
 BYTE   Cn2  v072
 BYTE   W03
 BYTE   Cn2  v076
 BYTE   W03
 BYTE   Cn2  v080
 BYTE   W03
 BYTE   Cn2  v088
 BYTE   W03
 BYTE   Cn2  v100
 BYTE   W03
 BYTE   Cn2  v104
 BYTE   W03
 BYTE   PEND 
//  #07 //023   ----------------------------------------
 BYTE   PATT
  POIN2 Label_01067E3C
//  #07 //024   ----------------------------------------
 BYTE   PATT
  POIN2 Label_01067E4A
//  #07 //025   ----------------------------------------
 BYTE   PATT
  POIN2 Label_01067E3C
//  #07 //026   ----------------------------------------
 BYTE   PATT
  POIN2 Label_01067E4A
//  #07 //027   ----------------------------------------
 BYTE   N10  Cs2  v072
 BYTE   W24
 BYTE   N10
 BYTE   W12
 BYTE   Gs1  v080
 BYTE   W12
 BYTE   N06  Ds1  v100
 BYTE   W12
 BYTE   N10
 BYTE   W24
 BYTE   N06  Ds1  v080
 BYTE   W06
 BYTE   N06
 BYTE   W06
//  #07 //028   ----------------------------------------
 BYTE   N10  Cs2  v072
 BYTE   W24
 BYTE   N10
 BYTE   W12
 BYTE   Gs1  v080
 BYTE   W12
 BYTE   N06  Ds1  v100
 BYTE   W12
 BYTE   N10
 BYTE   W24
 BYTE   N04  Ds1  v060
 BYTE   W04
 BYTE   Ds1  v076
 BYTE   W04
 BYTE   Ds1  v088
 BYTE   W04
//  #07 //029   ----------------------------------------
 BYTE   N10  Gs1
 BYTE   W24
 BYTE   Ds2  v076
 BYTE   W24
 BYTE   N10
 BYTE   W24
 BYTE   Gs1
 BYTE   W12
 BYTE   N10
 BYTE   W12
//  #07 //030   ----------------------------------------
 BYTE   Fs1  v088
 BYTE   W24
 BYTE   Ds2  v076
 BYTE   W24
 BYTE   N10
 BYTE   W24
 BYTE   Fs1
 BYTE   W12
 BYTE   N04  Fs1  v052
 BYTE   W04
 BYTE   Fs1  v060
 BYTE   W04
 BYTE   Fs1  v076
 BYTE   W04
//  #07 //031   ----------------------------------------
Label_01067F6E:
 BYTE   N10  Fn1  v088
 BYTE   W24
 BYTE   Ds2  v076
 BYTE   W24
 BYTE   N10
 BYTE   W24
 BYTE   Fn1
 BYTE   W12
 BYTE   N10
 BYTE   W12
 BYTE   PEND 
//  #07 //032   ----------------------------------------
 BYTE   PATT
  POIN2 Label_01067F6E
//  #07 //033   ----------------------------------------
 BYTE   PATT
  POIN2 Label_01067F6E
//  #07 //034   ----------------------------------------
 BYTE   PATT
  POIN2 Label_01067F6E
//  #07 //035   ----------------------------------------
 BYTE   N10  Ds1  v116
 BYTE   W96
//  #07 //036   ----------------------------------------
 BYTE   W48
 BYTE   N03  Ds1  v028
 BYTE   W03
 BYTE   N03
 BYTE   W03
 BYTE   Ds1  v032
 BYTE   W03
 BYTE   N03
 BYTE   W03
 BYTE   N03
 BYTE   W03
 BYTE   Ds1  v036
 BYTE   W03
 BYTE   Ds1  v048
 BYTE   W03
 BYTE   Ds1  v052
 BYTE   W03
 BYTE   Ds1  v056
 BYTE   W03
 BYTE   Ds1  v060
 BYTE   W03
 BYTE   Ds1  v072
 BYTE   W03
 BYTE   Ds1  v076
 BYTE   W03
 BYTE   Ds1  v080
 BYTE   W03
 BYTE   Ds1  v088
 BYTE   W03
 BYTE   Ds1  v100
 BYTE   W03
 BYTE   Ds1  v104
 BYTE   W03
//  #07 //037   ----------------------------------------
 BYTE   N10  Fn1  v116
 BYTE   W96
//  #07 //038   ----------------------------------------
 BYTE   PATT
  POIN2 Label_01067EDC
//  #07 //039   ----------------------------------------
 BYTE   GoTo
  POIN2 Label_01067E60
//  #07 //040   ----------------------------------------
 BYTE   N10  Fn1  v088
 BYTE   W24
 BYTE   Cn2  v076
 BYTE   W24
 BYTE   N10
 BYTE   W24
 BYTE   Fn1
 BYTE   W12
 BYTE   N10
 BYTE   W10
 BYTE   FINE

//**************** Track 8 (Midi-Chn.7) ****************//

KHCoMMonstrousMonstroAzula_008:
//  #08 //000   ----------------------------------------
 BYTE   KEYSH   KHCoMMonstrousMonstroAzula_key+0
 BYTE   VOICE   127
 BYTE   MODT 0
 BYTE   LFOS 44
 BYTE   VOL   72*KHCoMMonstrousMonstroAzula_mvl/mxv
 BYTE   PAN   c_v+0
 BYTE   VOL   70*KHCoMMonstrousMonstroAzula_mvl/mxv
 BYTE   PAN   c_v+0
 BYTE   VOL   72*KHCoMMonstrousMonstroAzula_mvl/mxv
 BYTE   PAN   c_v+0
 BYTE   VOL   72*KHCoMMonstrousMonstroAzula_mvl/mxv
 BYTE   PAN   c_v+0
 BYTE   N06  En2  v072
 BYTE   W36
 BYTE   Fs1  v080
 BYTE   W12
 BYTE   Bn0
 BYTE   W24
 BYTE   Fs1
 BYTE   W24
//  #08 //001   ----------------------------------------
 BYTE   En2
 BYTE   W36
 BYTE   Fs1
 BYTE   W12
 BYTE   Bn0
 BYTE   W24
 BYTE   Fs1
 BYTE   W24
//  #08 //002   ----------------------------------------
 BYTE   En2
 BYTE   W12
 BYTE   N03  Dn1  v096
 BYTE   W03
 BYTE   N06  Dn1  v080
 BYTE   W09
 BYTE   N06
 BYTE   W12
 BYTE   Dn1  v120
 BYTE   N06  Fs1  v080
 BYTE   W12
 BYTE   Bn0
 BYTE   W12
 BYTE   Dn1  v096
 BYTE   W12
 BYTE   N03  Dn1  v080
 BYTE   N06  Fs1
 BYTE   W03
 BYTE   N03  Dn1
 BYTE   W03
 BYTE   N06  Dn1  v096
 BYTE   W06
 BYTE   Dn1  v120
 BYTE   W12
//  #08 //003   ----------------------------------------
Label_010682BE:
 BYTE   N06  En2  v080
 BYTE   W12
 BYTE   N03  Dn1  v120
 BYTE   W03
 BYTE   N06  Dn1  v096
 BYTE   W09
 BYTE   N06
 BYTE   W12
 BYTE   Dn1  v127
 BYTE   N06  Fs1  v080
 BYTE   W12
 BYTE   Bn0
 BYTE   W12
 BYTE   Dn1  v120
 BYTE   W12
 BYTE   N03  Dn1  v096
 BYTE   N06  Fs1  v080
 BYTE   W03
 BYTE   N03  Dn1  v096
 BYTE   W03
 BYTE   N06  Dn1  v120
 BYTE   W06
 BYTE   Dn1  v127
 BYTE   W12
 BYTE   PEND 
//  #08 //004   ----------------------------------------
Label_010682EA:
//  #08 //005   ----------------------------------------
 BYTE   PATT
  POIN2 Label_010682BE
//  #08 //006   ----------------------------------------
 BYTE   PATT
  POIN2 Label_010682BE
//  #08 //007   ----------------------------------------
 BYTE   PATT
  POIN2 Label_010682BE
//  #08 //008   ----------------------------------------
 BYTE   PATT
  POIN2 Label_010682BE
//  #08 //009   ----------------------------------------
 BYTE   PATT
  POIN2 Label_010682BE
//  #08 //010   ----------------------------------------
 BYTE   PATT
  POIN2 Label_010682BE
//  #08 //011   ----------------------------------------
 BYTE   PATT
  POIN2 Label_010682BE
//  #08 //012   ----------------------------------------
 BYTE   PATT
  POIN2 Label_010682BE
//  #08 //013   ----------------------------------------
 BYTE   PATT
  POIN2 Label_010682BE
//  #08 //014   ----------------------------------------
 BYTE   PATT
  POIN2 Label_010682BE
//  #08 //015   ----------------------------------------
 BYTE   PATT
  POIN2 Label_010682BE
//  #08 //016   ----------------------------------------
 BYTE   PATT
  POIN2 Label_010682BE
//  #08 //017   ----------------------------------------
 BYTE   PATT
  POIN2 Label_010682BE
//  #08 //018   ----------------------------------------
 BYTE   PATT
  POIN2 Label_010682BE
//  #08 //019   ----------------------------------------
 BYTE   PATT
  POIN2 Label_010682BE
//  #08 //020   ----------------------------------------
 BYTE   PATT
  POIN2 Label_010682BE
//  #08 //021   ----------------------------------------
Label_0106833A:
 BYTE   N03  Dn1  v120
 BYTE   N06  Fs1  v080
 BYTE   N06  En2
 BYTE   W03
 BYTE   Dn1  v096
 BYTE   W92
 BYTE   W01
 BYTE   PEND 
//  #08 //022   ----------------------------------------
 BYTE   W96
//  #08 //023   ----------------------------------------
Label_01068349:
 BYTE   N06  Fn1  v080
 BYTE   N06  En2
 BYTE   W12
 BYTE   N03  Dn1  v120
 BYTE   W03
 BYTE   N06  Dn1  v096
 BYTE   W09
 BYTE   N06
 BYTE   W12
 BYTE   Dn1  v127
 BYTE   N06  Fs1  v080
 BYTE   W12
 BYTE   Bn0
 BYTE   W12
 BYTE   Dn1  v120
 BYTE   W12
 BYTE   N03  Dn1  v096
 BYTE   N06  Fs1  v080
 BYTE   W03
 BYTE   N03  Dn1  v096
 BYTE   W03
 BYTE   N06  Dn1  v120
 BYTE   W06
 BYTE   Dn1  v127
 BYTE   W12
 BYTE   PEND 
//  #08 //024   ----------------------------------------
 BYTE   PATT
  POIN2 Label_010682BE
//  #08 //025   ----------------------------------------
 BYTE   PATT
  POIN2 Label_01068349
//  #08 //026   ----------------------------------------
 BYTE   PATT
  POIN2 Label_010682BE
//  #08 //027   ----------------------------------------
Label_01068386:
 BYTE   N06  As1  v080
 BYTE   W48
 BYTE   Fs1
 BYTE   W12
 BYTE   N06
 BYTE   W36
 BYTE   PEND 
//  #08 //028   ----------------------------------------
 BYTE   PATT
  POIN2 Label_01068386
//  #08 //029   ----------------------------------------
Label_01068394:
 BYTE   W12
 BYTE   N03  Dn1  v096
 BYTE   W03
 BYTE   N06  Dn1  v080
 BYTE   W09
 BYTE   N06
 BYTE   W12
 BYTE   Dn1  v120
 BYTE   W24
 BYTE   Dn1  v096
 BYTE   W12
 BYTE   N03  Dn1  v080
 BYTE   W03
 BYTE   N03
 BYTE   W03
 BYTE   N06  Dn1  v096
 BYTE   W06
 BYTE   Dn1  v120
 BYTE   W12
 BYTE   PEND 
//  #08 //030   ----------------------------------------
 BYTE   PATT
  POIN2 Label_01068394
//  #08 //031   ----------------------------------------
 BYTE   W12
 BYTE   N03  Dn1  v112
 BYTE   W03
 BYTE   N06  Dn1  v088
 BYTE   W09
 BYTE   N06
 BYTE   W12
 BYTE   Dn1  v127
 BYTE   W24
 BYTE   Dn1  v112
 BYTE   W12
 BYTE   N03  Dn1  v088
 BYTE   W03
 BYTE   N03
 BYTE   W03
 BYTE   N06  Dn1  v112
 BYTE   W06
 BYTE   Dn1  v127
 BYTE   W12
//  #08 //032   ----------------------------------------
Label_010683D6:
 BYTE   W12
 BYTE   N03  Dn1  v120
 BYTE   W03
 BYTE   N06  Dn1  v096
 BYTE   W09
 BYTE   N06
 BYTE   W12
 BYTE   Dn1  v127
 BYTE   W24
 BYTE   Dn1  v120
 BYTE   W12
 BYTE   N03  Dn1  v096
 BYTE   W03
 BYTE   N03
 BYTE   W03
 BYTE   N06  Dn1  v120
 BYTE   W06
 BYTE   Dn1  v127
 BYTE   W12
 BYTE   PEND 
//  #08 //033   ----------------------------------------
 BYTE   PATT
  POIN2 Label_010683D6
//  #08 //034   ----------------------------------------
 BYTE   W12
 BYTE   N03  Dn1  v127
 BYTE   W03
 BYTE   N06  Dn1  v112
 BYTE   W09
 BYTE   N06
 BYTE   W12
 BYTE   Dn1  v127
 BYTE   W24
 BYTE   N06
 BYTE   W12
 BYTE   N03  Dn1  v112
 BYTE   W03
 BYTE   N03
 BYTE   W03
 BYTE   N06  Dn1  v127
 BYTE   W06
 BYTE   N06
 BYTE   W12
//  #08 //035   ----------------------------------------
 BYTE   N03
 BYTE   N06  En2  v080
 BYTE   W03
 BYTE   Dn1  v112
 BYTE   W92
 BYTE   W01
//  #08 //036   ----------------------------------------
 BYTE   W96
//  #08 //037   ----------------------------------------
 BYTE   PATT
  POIN2 Label_0106833A
//  #08 //038   ----------------------------------------
 BYTE   W96
//  #08 //039   ----------------------------------------
 BYTE   GoTo
  POIN2 Label_010682EA
//  #08 //040   ----------------------------------------
 BYTE   N06  En2  v080
 BYTE   W12
 BYTE   N03  Dn1  v120
 BYTE   W03
 BYTE   N06  Dn1  v096
 BYTE   W09
 BYTE   N06
 BYTE   W12
 BYTE   Dn1  v127
 BYTE   N06  Fs1  v080
 BYTE   W12
 BYTE   Bn0
 BYTE   W12
 BYTE   Dn1  v120
 BYTE   W12
 BYTE   N03  Dn1  v096
 BYTE   N06  Fs1  v080
 BYTE   W03
 BYTE   N03  Dn1  v096
 BYTE   W03
 BYTE   N06  Dn1  v120
 BYTE   W06
 BYTE   Dn1  v127
 BYTE   W09
 BYTE   FINE

//******************************************************//
	ALIGN 4

KHCoMMonstrousMonstroAzula:
	BYTE	8	// NumTrks
	BYTE	0	// NumBlks
	BYTE	KHCoMMonstrousMonstroAzula_pri	// Priority
	BYTE	KHCoMMonstrousMonstroAzula_rev	// Reverb.
    
	POIN2	KHCoMMonstrousMonstroAzula_grp
    
	POIN2	KHCoMMonstrousMonstroAzula_001
	POIN2	KHCoMMonstrousMonstroAzula_002
	POIN2	KHCoMMonstrousMonstroAzula_003
	POIN2	KHCoMMonstrousMonstroAzula_004
	POIN2	KHCoMMonstrousMonstroAzula_005
	POIN2	KHCoMMonstrousMonstroAzula_006
	POIN2	KHCoMMonstrousMonstroAzula_007
	POIN2	KHCoMMonstrousMonstroAzula_008

	
