//Event file generated from Sappy .s format.
	#include "MPlayDef.event"

	#define	KHCoMGracefulAssassinAzula_grp  voicegroup000
	#define	KHCoMGracefulAssassinAzula_pri  0
	#define	KHCoMGracefulAssassinAzula_rev  0
	#define	KHCoMGracefulAssassinAzula_mvl  127
	#define	KHCoMGracefulAssassinAzula_key  0
	#define	KHCoMGracefulAssassinAzula_tbs  1
	#define	KHCoMGracefulAssassinAzula_exg  0
	#define	KHCoMGracefulAssassinAzula_cmp  1

	// .rodata
	//	KHCoMGracefulAssassinAzula
	ALIGN 4


//**************** Track 1 (Midi-Chn.0) ****************//

KHCoMGracefulAssassinAzula_001:
//  #01 //000   ----------------------------------------
 BYTE   KEYSH   KHCoMGracefulAssassinAzula_key+0
 BYTE   TEMPO   80*KHCoMGracefulAssassinAzula_tbs/2
 BYTE   VOICE   1
 BYTE   MODT 0
 BYTE   LFOS 44
 BYTE   VOL   65*KHCoMGracefulAssassinAzula_mvl/mxv
 BYTE   PAN   c_v+26
 BYTE   W96
//  #01 //001   ----------------------------------------
 BYTE   W96
//  #01 //002   ----------------------------------------
 BYTE   W96
//  #01 //003   ----------------------------------------
 BYTE   TEMPO   140*KHCoMGracefulAssassinAzula_tbs/2
 BYTE   W96
//  #01 //004   ----------------------------------------
 BYTE   W96
//  #01 //005   ----------------------------------------
 BYTE   W96
//  #01 //006   ----------------------------------------
 BYTE   W96
//  #01 //007   ----------------------------------------
 BYTE   W96
//  #01 //008   ----------------------------------------
 BYTE   W96
//  #01 //009   ----------------------------------------
Label_01BC4771:
 BYTE   PAN   c_v+26
 BYTE   W96
//  #01 //010   ----------------------------------------
 BYTE   W96
//  #01 //011   ----------------------------------------
 BYTE   W96
//  #01 //012   ----------------------------------------
 BYTE   W96
//  #01 //013   ----------------------------------------
 BYTE   W96
//  #01 //014   ----------------------------------------
 BYTE   W96
//  #01 //015   ----------------------------------------
 BYTE   W96
//  #01 //016   ----------------------------------------
 BYTE   W96
//  #01 //017   ----------------------------------------
 BYTE   W96
//  #01 //018   ----------------------------------------
 BYTE   W96
//  #01 //019   ----------------------------------------
 BYTE   W96
//  #01 //020   ----------------------------------------
 BYTE   W96
//  #01 //021   ----------------------------------------
 BYTE   W96
//  #01 //022   ----------------------------------------
 BYTE   W96
//  #01 //023   ----------------------------------------
 BYTE   W96
//  #01 //024   ----------------------------------------
 BYTE   W12
 BYTE   N24  Gn3  v084
 BYTE   N12  As3  v092
 BYTE   W12
 BYTE   Dn4
 BYTE   W12
 BYTE   N36  Gn3  v084
 BYTE   N12  Cn4  v092
 BYTE   W12
 BYTE   Gn4
 BYTE   W12
 BYTE   Dn4  v084
 BYTE   W24
 BYTE   N24  Gn3
 BYTE   N12  As3  v092
 BYTE   W12
//  #01 //025   ----------------------------------------
 BYTE   Dn4
 BYTE   W12
 BYTE   N36  Gn3  v084
 BYTE   N12  Cn4  v092
 BYTE   W12
 BYTE   Gn4
 BYTE   W12
 BYTE   Dn4  v084
 BYTE   W24
 BYTE   N12
 BYTE   N12  As4
 BYTE   W12
 BYTE   Gn4
 BYTE   N12  Dn5
 BYTE   W12
 BYTE   N84  Gn4
 BYTE   N84  Cn5
 BYTE   W12
//  #01 //026   ----------------------------------------
 BYTE   W96
//  #01 //027   ----------------------------------------
 BYTE   W12
 BYTE   N24  Gn3  v080
 BYTE   N12  As3
 BYTE   W12
 BYTE   Dn4
 BYTE   W12
 BYTE   Gn3
 BYTE   N12  Cn4
 BYTE   W12
 BYTE   N24
 BYTE   N12  Gn4
 BYTE   W12
 BYTE   Dn4
 BYTE   W24
 BYTE   N24  Gn3
 BYTE   N12  As3
 BYTE   W12
//  #01 //028   ----------------------------------------
 BYTE   Dn4
 BYTE   W12
 BYTE   Gn3
 BYTE   N12  Cn4
 BYTE   W12
 BYTE   N24
 BYTE   N12  Gn4
 BYTE   W12
 BYTE   Dn4
 BYTE   W24
 BYTE   N12
 BYTE   N12  As4
 BYTE   W12
 BYTE   Gn4
 BYTE   N12  Dn5
 BYTE   W12
 BYTE   N84  Gn4
 BYTE   N84  Cn5
 BYTE   W12
//  #01 //029   ----------------------------------------
 BYTE   W96
//  #01 //030   ----------------------------------------
 BYTE   W12
 BYTE   N24  Gn3
 BYTE   N12  As3
 BYTE   W12
 BYTE   Dn4
 BYTE   W12
 BYTE   N36  Gn3
 BYTE   N12  Cn4
 BYTE   W12
 BYTE   Gn4
 BYTE   W12
 BYTE   Dn4
 BYTE   W24
 BYTE   N24  Gn3
 BYTE   N12  As3
 BYTE   W12
//  #01 //031   ----------------------------------------
 BYTE   Dn4
 BYTE   W12
 BYTE   N36  Gn3
 BYTE   N12  Cn4
 BYTE   W12
 BYTE   Gn4
 BYTE   W12
 BYTE   Dn4
 BYTE   W24
 BYTE   N24  Gn3
 BYTE   N12  As3
 BYTE   W12
 BYTE   Dn4
 BYTE   W12
 BYTE   N36  Gn3
 BYTE   N12  Cn4
 BYTE   W12
//  #01 //032   ----------------------------------------
 BYTE   PAN   c_v+0
 BYTE   N12  Gn4
 BYTE   W12
 BYTE   Dn4
 BYTE   W12
 BYTE   Cn5  v056
 BYTE   N12  Ds5  v080
 BYTE   W12
 BYTE   Gn4
 BYTE   N12  Cn5
 BYTE   W12
 BYTE   Ds4
 BYTE   N12  Gn4
 BYTE   W12
 BYTE   Cn4
 BYTE   N12  Ds4
 BYTE   W12
 BYTE   Gn3
 BYTE   N12  Cn4
 BYTE   W12
 BYTE   Ds3
 BYTE   N12  Gn3
 BYTE   W12
//  #01 //033   ----------------------------------------
 BYTE   N72
 BYTE   N72  As3
 BYTE   W96
//  #01 //034   ----------------------------------------
 BYTE   W84
 BYTE   N24  Cn4  v092
 BYTE   N24  Gn4  v112
 BYTE   W12
//  #01 //035   ----------------------------------------
 BYTE   W24
 BYTE   N72  Gn4  v092
 BYTE   N72  Cn5  v112
 BYTE   W72
//  #01 //036   ----------------------------------------
 BYTE   W36
 BYTE   N24  Cs4  v092
 BYTE   N24  Gn4  v112
 BYTE   W36
 BYTE   N72  Fn4  v092
 BYTE   N72  Cn5  v112
 BYTE   W24
//  #01 //037   ----------------------------------------
 BYTE   W96
//  #01 //038   ----------------------------------------
 BYTE   W96
//  #01 //039   ----------------------------------------
 BYTE   W96
//  #01 //040   ----------------------------------------
 BYTE   W96
//  #01 //041   ----------------------------------------
 BYTE   W96
//  #01 //042   ----------------------------------------
 BYTE   W96
//  #01 //043   ----------------------------------------
 BYTE   W48
 BYTE   GoTo
  POIN2 Label_01BC4771
 BYTE   FINE

//**************** Track 2 (Midi-Chn.1) ****************//

KHCoMGracefulAssassinAzula_002:
//  #02 //000   ----------------------------------------
 BYTE   KEYSH   KHCoMGracefulAssassinAzula_key+0
 BYTE   VOICE   1
 BYTE   MODT 0
 BYTE   LFOS 44
 BYTE   VOL   63*KHCoMGracefulAssassinAzula_mvl/mxv
 BYTE   PAN   c_v-34
 BYTE   W96
//  #02 //001   ----------------------------------------
 BYTE   W96
//  #02 //002   ----------------------------------------
 BYTE   W96
//  #02 //003   ----------------------------------------
 BYTE   W96
//  #02 //004   ----------------------------------------
 BYTE   W96
//  #02 //005   ----------------------------------------
 BYTE   W96
//  #02 //006   ----------------------------------------
 BYTE   W96
//  #02 //007   ----------------------------------------
 BYTE   W96
//  #02 //008   ----------------------------------------
 BYTE   W96
//  #02 //009   ----------------------------------------
Label_01BC4D95:
 BYTE   W96
//  #02 //010   ----------------------------------------
 BYTE   W96
//  #02 //011   ----------------------------------------
 BYTE   W96
//  #02 //012   ----------------------------------------
 BYTE   W96
//  #02 //013   ----------------------------------------
 BYTE   W96
//  #02 //014   ----------------------------------------
 BYTE   W96
//  #02 //015   ----------------------------------------
 BYTE   W96
//  #02 //016   ----------------------------------------
 BYTE   W96
//  #02 //017   ----------------------------------------
 BYTE   W96
//  #02 //018   ----------------------------------------
 BYTE   W96
//  #02 //019   ----------------------------------------
 BYTE   W96
//  #02 //020   ----------------------------------------
 BYTE   W96
//  #02 //021   ----------------------------------------
 BYTE   W96
//  #02 //022   ----------------------------------------
 BYTE   W96
//  #02 //023   ----------------------------------------
 BYTE   W96
//  #02 //024   ----------------------------------------
 BYTE   W96
//  #02 //025   ----------------------------------------
 BYTE   W96
//  #02 //026   ----------------------------------------
 BYTE   W96
//  #02 //027   ----------------------------------------
 BYTE   N12  Cn3  v096
 BYTE   N12  Cn4
 BYTE   W12
 BYTE   Gn4  v076
 BYTE   N12  Cn5
 BYTE   W24
 BYTE   Gs2  v096
 BYTE   N12  Gs3
 BYTE   W12
 BYTE   Ds4  v076
 BYTE   N12  Gs4
 BYTE   W24
 BYTE   Cn3  v096
 BYTE   N12  Cn4
 BYTE   W12
 BYTE   Gn4  v076
 BYTE   N12  Cn5
 BYTE   W12
//  #02 //028   ----------------------------------------
 BYTE   W12
 BYTE   Gs2  v096
 BYTE   N12  Gs3
 BYTE   W12
 BYTE   Ds4  v076
 BYTE   N12  Gs4
 BYTE   W24
 BYTE   Gn2  v096
 BYTE   N12  Gn3
 BYTE   W12
 BYTE   Dn4  v076
 BYTE   N12  Gn4
 BYTE   W24
 BYTE   Gs2  v096
 BYTE   N12  Gs3
 BYTE   W12
//  #02 //029   ----------------------------------------
 BYTE   Ds4  v076
 BYTE   N12  Gs4
 BYTE   W12
 BYTE   Cn5
 BYTE   N12  Ds5
 BYTE   W12
 BYTE   N24  Gs4
 BYTE   N24  Dn5
 BYTE   W24
 BYTE   N12  Gs4
 BYTE   N12  Cn5
 BYTE   W12
 BYTE   N24  Ds4
 BYTE   N24  As4
 BYTE   W24
 BYTE   N12  Ds4
 BYTE   N12  Gs4
 BYTE   W12
//  #02 //030   ----------------------------------------
 BYTE   Cn3  v127
 BYTE   W24
 BYTE   Gn4  v096
 BYTE   N12  Cn5
 BYTE   W12
 BYTE   N24  Gn4
 BYTE   N24  Cn5
 BYTE   W36
 BYTE   N12  As2  v127
 BYTE   N12  As3
 BYTE   W24
//  #02 //031   ----------------------------------------
 BYTE   Gn4  v096
 BYTE   N12  As4
 BYTE   W12
 BYTE   N24  Gn4
 BYTE   N24  As4
 BYTE   W36
 BYTE   N12  Gs2  v127
 BYTE   W24
 BYTE   Ds4  v096
 BYTE   N12  Gs4
 BYTE   W12
 BYTE   N96  Ds4
 BYTE   N96  Gs4
 BYTE   W12
//  #02 //032   ----------------------------------------
 BYTE   W96
//  #02 //033   ----------------------------------------
 BYTE   N24  Gn2  v127
 BYTE   W96
//  #02 //034   ----------------------------------------
 BYTE   W96
//  #02 //035   ----------------------------------------
 BYTE   W96
//  #02 //036   ----------------------------------------
 BYTE   W96
//  #02 //037   ----------------------------------------
 BYTE   W96
//  #02 //038   ----------------------------------------
 BYTE   W96
//  #02 //039   ----------------------------------------
 BYTE   W96
//  #02 //040   ----------------------------------------
 BYTE   W96
//  #02 //041   ----------------------------------------
 BYTE   W96
//  #02 //042   ----------------------------------------
 BYTE   W96
//  #02 //043   ----------------------------------------
 BYTE   W48
 BYTE   GoTo
  POIN2 Label_01BC4D95
 BYTE   FINE

//**************** Track 3 (Midi-Chn.2) ****************//

KHCoMGracefulAssassinAzula_003:
//  #03 //000   ----------------------------------------
 BYTE   KEYSH   KHCoMGracefulAssassinAzula_key+0
 BYTE   VOICE   57
 BYTE   MODT 0
 BYTE   LFOS 44
 BYTE   VOL   45*KHCoMGracefulAssassinAzula_mvl/mxv
 BYTE   PAN   c_v+0
 BYTE   W96
//  #03 //001   ----------------------------------------
 BYTE   W96
//  #03 //002   ----------------------------------------
 BYTE   W96
//  #03 //003   ----------------------------------------
 BYTE   W96
//  #03 //004   ----------------------------------------
 BYTE   W96
//  #03 //005   ----------------------------------------
 BYTE   W96
//  #03 //006   ----------------------------------------
 BYTE   W96
//  #03 //007   ----------------------------------------
 BYTE   W96
//  #03 //008   ----------------------------------------
 BYTE   W96
//  #03 //009   ----------------------------------------
Label_01BC4E55:
 BYTE   W96
//  #03 //010   ----------------------------------------
 BYTE   W96
//  #03 //011   ----------------------------------------
 BYTE   W96
//  #03 //012   ----------------------------------------
 BYTE   W96
//  #03 //013   ----------------------------------------
 BYTE   W96
//  #03 //014   ----------------------------------------
 BYTE   W96
//  #03 //015   ----------------------------------------
 BYTE   W96
//  #03 //016   ----------------------------------------
 BYTE   W96
//  #03 //017   ----------------------------------------
 BYTE   W96
//  #03 //018   ----------------------------------------
 BYTE   W96
//  #03 //019   ----------------------------------------
 BYTE   W96
//  #03 //020   ----------------------------------------
 BYTE   W96
//  #03 //021   ----------------------------------------
Label_01BC4E61:
 BYTE   N06  Cn1  v096
 BYTE   W12
 BYTE   N12  Gn1
 BYTE   W12
 BYTE   N06  Dn2
 BYTE   W12
 BYTE   N12  Ds2
 BYTE   W12
 BYTE   N06  Cn2
 BYTE   W12
 BYTE   Gn1
 BYTE   W12
 BYTE   Cn1
 BYTE   W12
 BYTE   N12  Gn1
 BYTE   W12
 BYTE   PEND 
//  #03 //022   ----------------------------------------
 BYTE   N06  Dn2
 BYTE   W12
 BYTE   N12  Ds2
 BYTE   W12
 BYTE   N06  Cn2
 BYTE   W12
 BYTE   Gn1
 BYTE   W12
 BYTE   Cs1
 BYTE   W12
 BYTE   N12  Gs1
 BYTE   W12
 BYTE   N06  Ds2
 BYTE   W12
 BYTE   N12  Fn2
 BYTE   W12
//  #03 //023   ----------------------------------------
 BYTE   N06  Cs2
 BYTE   W12
 BYTE   Gs1
 BYTE   W84
//  #03 //024   ----------------------------------------
 BYTE   PATT
  POIN2 Label_01BC4E61
//  #03 //025   ----------------------------------------
 BYTE   N06  Dn2  v096
 BYTE   W12
 BYTE   N12  Ds2
 BYTE   W12
 BYTE   N06  Cn2
 BYTE   W12
 BYTE   Gn1
 BYTE   W12
 BYTE   Fn1
 BYTE   W12
 BYTE   N12  Cn2
 BYTE   W12
 BYTE   N06  Gn2
 BYTE   W12
 BYTE   N12  Gs2
 BYTE   W12
//  #03 //026   ----------------------------------------
 BYTE   N06  Fn2
 BYTE   W12
 BYTE   Cn2
 BYTE   W84
//  #03 //027   ----------------------------------------
 BYTE   W96
//  #03 //028   ----------------------------------------
 BYTE   W96
//  #03 //029   ----------------------------------------
 BYTE   W72
 BYTE   N03  Dn3  v088
 BYTE   W03
 BYTE   Ds3
 BYTE   W03
 BYTE   Fn3
 BYTE   W03
 BYTE   Gn3
 BYTE   W03
 BYTE   Gs3
 BYTE   W03
 BYTE   As3
 BYTE   W03
 BYTE   Cn4
 BYTE   W03
 BYTE   Dn4
 BYTE   W03
//  #03 //030   ----------------------------------------
 BYTE   N72  Gn3  v080
 BYTE   N72  Ds4
 BYTE   W72
 BYTE   Cn4
 BYTE   N72  Gn4
 BYTE   W24
//  #03 //031   ----------------------------------------
 BYTE   W48
 BYTE   TIE
 BYTE   TIE  Cn5
 BYTE   W48
//  #03 //032   ----------------------------------------
 BYTE   W72
 BYTE   EOT
 BYTE   Gn4  v084
 BYTE   N24  Gn4
 BYTE   N24  Dn5
 BYTE   W24
//  #03 //033   ----------------------------------------
 BYTE   TIE  Gn4
 BYTE   TIE  As4
 BYTE   W96
//  #03 //034   ----------------------------------------
 BYTE   W48
 BYTE   EOT
 BYTE   Gn4  v082
 BYTE   N72  Gn4
 BYTE   TIE  Cn5
 BYTE   W48
//  #03 //035   ----------------------------------------
 BYTE   W24
 BYTE   N72  Fn4
 BYTE   W72
//  #03 //036   ----------------------------------------
 BYTE   EOT
 BYTE   Cn5
 BYTE   N72  Gn4
 BYTE   TIE  Cn5
 BYTE   W72
 BYTE   N72  Fn4
 BYTE   W24
//  #03 //037   ----------------------------------------
 BYTE   W48
 BYTE   EOT
 BYTE   Cn5
 BYTE   N06  Cn1  v096
 BYTE   W12
 BYTE   N12  Gn1
 BYTE   W12
 BYTE   N06  Dn2
 BYTE   W12
 BYTE   N12  Ds2
 BYTE   W12
//  #03 //038   ----------------------------------------
Label_01BC4F0E:
 BYTE   N06  Cn2  v096
 BYTE   W12
 BYTE   Gn1
 BYTE   W12
 BYTE   Cn1
 BYTE   W12
 BYTE   N12  Gn1
 BYTE   W12
 BYTE   N06  Dn2
 BYTE   W12
 BYTE   N12  Ds2
 BYTE   W12
 BYTE   N06  Cn2
 BYTE   W12
 BYTE   Gn1
 BYTE   W12
 BYTE   PEND 
//  #03 //039   ----------------------------------------
Label_01BC4F25:
 BYTE   N06  Cs1  v096
 BYTE   W12
 BYTE   N12  Gs1
 BYTE   W12
 BYTE   N06  Ds2
 BYTE   W12
 BYTE   N12  Fn2
 BYTE   W12
 BYTE   N06  Cs2
 BYTE   W12
 BYTE   Gs1
 BYTE   W36
 BYTE   PEND 
//  #03 //040   ----------------------------------------
 BYTE   W48
 BYTE   Cn1
 BYTE   W12
 BYTE   N12  Gn1
 BYTE   W12
 BYTE   N06  Dn2
 BYTE   W12
 BYTE   N12  Ds2
 BYTE   W12
//  #03 //041   ----------------------------------------
 BYTE   PATT
  POIN2 Label_01BC4F0E
//  #03 //042   ----------------------------------------
 BYTE   PATT
  POIN2 Label_01BC4F25
//  #03 //043   ----------------------------------------
 BYTE   W48
 BYTE   GoTo
  POIN2 Label_01BC4E55
 BYTE   FINE

//**************** Track 4 (Midi-Chn.3) ****************//

KHCoMGracefulAssassinAzula_004:
//  #04 //000   ----------------------------------------
 BYTE   KEYSH   KHCoMGracefulAssassinAzula_key+0
 BYTE   VOICE   48
 BYTE   MODT 0
 BYTE   LFOS 44
 BYTE   VOL   46*KHCoMGracefulAssassinAzula_mvl/mxv
 BYTE   PAN   c_v+16
 BYTE   W96
//  #04 //001   ----------------------------------------
 BYTE   W96
//  #04 //002   ----------------------------------------
 BYTE   W96
//  #04 //003   ----------------------------------------
 BYTE   W96
//  #04 //004   ----------------------------------------
 BYTE   W96
//  #04 //005   ----------------------------------------
 BYTE   W96
//  #04 //006   ----------------------------------------
 BYTE   W96
//  #04 //007   ----------------------------------------
 BYTE   W96
//  #04 //008   ----------------------------------------
 BYTE   W96
//  #04 //009   ----------------------------------------
Label_015AA62D:
 BYTE   W96
//  #04 //010   ----------------------------------------
 BYTE   W96
//  #04 //011   ----------------------------------------
 BYTE   W96
//  #04 //012   ----------------------------------------
 BYTE   W96
//  #04 //013   ----------------------------------------
 BYTE   W96
//  #04 //014   ----------------------------------------
 BYTE   W96
//  #04 //015   ----------------------------------------
 BYTE   W96
//  #04 //016   ----------------------------------------
 BYTE   W24
 BYTE   N96  Gn3  v088
 BYTE   W72
//  #04 //017   ----------------------------------------
 BYTE   W24
 BYTE   N36  Gn4
 BYTE   W36
 BYTE   Gs4
 BYTE   W36
//  #04 //018   ----------------------------------------
 BYTE   N96  Gn4
 BYTE   W96
//  #04 //019   ----------------------------------------
 BYTE   N12  Fn4
 BYTE   W12
 BYTE   Ds4
 BYTE   W12
 BYTE   Dn4
 BYTE   W12
 BYTE   Cn4
 BYTE   W12
 BYTE   As3
 BYTE   W12
 BYTE   N72  Gs3
 BYTE   W36
//  #04 //020   ----------------------------------------
 BYTE   W36
 BYTE   N12  Gn3
 BYTE   W12
 BYTE   N48  Gs3
 BYTE   W48
//  #04 //021   ----------------------------------------
 BYTE   TIE  Gn3
 BYTE   W96
//  #04 //022   ----------------------------------------
 BYTE   W48
 BYTE   EOT
 BYTE   W48
//  #04 //023   ----------------------------------------
 BYTE   W96
//  #04 //024   ----------------------------------------
 BYTE   W96
//  #04 //025   ----------------------------------------
 BYTE   W96
//  #04 //026   ----------------------------------------
 BYTE   W96
//  #04 //027   ----------------------------------------
 BYTE   W96
//  #04 //028   ----------------------------------------
 BYTE   W96
//  #04 //029   ----------------------------------------
 BYTE   W96
//  #04 //030   ----------------------------------------
 BYTE   W96
//  #04 //031   ----------------------------------------
 BYTE   W96
//  #04 //032   ----------------------------------------
 BYTE   W96
//  #04 //033   ----------------------------------------
 BYTE   W96
//  #04 //034   ----------------------------------------
 BYTE   W96
//  #04 //035   ----------------------------------------
 BYTE   W96
//  #04 //036   ----------------------------------------
 BYTE   W96
//  #04 //037   ----------------------------------------
 BYTE   W96
//  #04 //038   ----------------------------------------
 BYTE   W96
//  #04 //039   ----------------------------------------
 BYTE   W96
//  #04 //040   ----------------------------------------
 BYTE   W96
//  #04 //041   ----------------------------------------
 BYTE   W96
//  #04 //042   ----------------------------------------
 BYTE   W96
//  #04 //043   ----------------------------------------
 BYTE   W48
 BYTE   GoTo
  POIN2 Label_015AA62D
 BYTE   FINE

//**************** Track 5 (Midi-Chn.4) ****************//

KHCoMGracefulAssassinAzula_005:
//  #05 //000   ----------------------------------------
 BYTE   KEYSH   KHCoMGracefulAssassinAzula_key+0
 BYTE   VOICE   68
 BYTE   MODT 0
 BYTE   LFOS 44
 BYTE   VOL   80*KHCoMGracefulAssassinAzula_mvl/mxv
 BYTE   PAN   c_v+0
 BYTE   N36  Gs3  v052
 BYTE   N36  Fn4
 BYTE   W36
 BYTE   N72  Gn3
 BYTE   N72  En4
 BYTE   W60
//  #05 //001   ----------------------------------------
 BYTE   W12
 BYTE   N36  En3
 BYTE   N36  Cn4
 BYTE   W36
 BYTE   Fn3
 BYTE   N36  Cs4
 BYTE   W36
 BYTE   TIE  Cs3
 BYTE   TIE  As3
 BYTE   W12
//  #05 //002   ----------------------------------------
 BYTE   W90
 BYTE   EOT
 BYTE   Cs3  v070
 BYTE   W06
//  #05 //003   ----------------------------------------
 BYTE   W96
//  #05 //004   ----------------------------------------
 BYTE   W96
//  #05 //005   ----------------------------------------
 BYTE   W96
//  #05 //006   ----------------------------------------
 BYTE   W96
//  #05 //007   ----------------------------------------
 BYTE   W96
//  #05 //008   ----------------------------------------
 BYTE   W96
//  #05 //009   ----------------------------------------
Label_01BC48A1:
 BYTE   N12  Cn4  v060
 BYTE   W12
 BYTE   Bn3
 BYTE   W12
 BYTE   Cn4
 BYTE   W12
 BYTE   N84  Gn3
 BYTE   W60
//  #05 //010   ----------------------------------------
 BYTE   W24
 BYTE   N24  Gs3
 BYTE   W24
 BYTE   N96  As3
 BYTE   W48
//  #05 //011   ----------------------------------------
 BYTE   W48
 BYTE   N12  Gs3
 BYTE   W12
 BYTE   N24  Gn3
 BYTE   W24
 BYTE   N12  Fn3
 BYTE   W12
//  #05 //012   ----------------------------------------
 BYTE   N06  Ds3
 BYTE   W06
 BYTE   Fn3
 BYTE   W06
 BYTE   TIE  Gn3
 BYTE   W84
//  #05 //013   ----------------------------------------
 BYTE   W48
 BYTE   EOT
 BYTE   N84  As3
 BYTE   W48
//  #05 //014   ----------------------------------------
 BYTE   W36
 BYTE   N12  Cn4
 BYTE   W12
 BYTE   As3
 BYTE   W12
 BYTE   Gs3
 BYTE   W12
 BYTE   As3
 BYTE   W12
 BYTE   Gs3
 BYTE   W12
//  #05 //015   ----------------------------------------
 BYTE   TIE  Gn3
 BYTE   W96
//  #05 //016   ----------------------------------------
 BYTE   W36
 BYTE   EOT
 BYTE   W60
//  #05 //017   ----------------------------------------
 BYTE   W96
//  #05 //018   ----------------------------------------
 BYTE   W96
//  #05 //019   ----------------------------------------
 BYTE   W96
//  #05 //020   ----------------------------------------
 BYTE   W96
//  #05 //021   ----------------------------------------
 BYTE   W96
//  #05 //022   ----------------------------------------
 BYTE   W96
//  #05 //023   ----------------------------------------
 BYTE   W96
//  #05 //024   ----------------------------------------
 BYTE   W96
//  #05 //025   ----------------------------------------
 BYTE   W96
//  #05 //026   ----------------------------------------
 BYTE   W96
//  #05 //027   ----------------------------------------
 BYTE   W96
//  #05 //028   ----------------------------------------
 BYTE   W96
//  #05 //029   ----------------------------------------
 BYTE   W96
//  #05 //030   ----------------------------------------
 BYTE   W96
//  #05 //031   ----------------------------------------
 BYTE   W96
//  #05 //032   ----------------------------------------
 BYTE   W96
//  #05 //033   ----------------------------------------
 BYTE   W96
//  #05 //034   ----------------------------------------
 BYTE   W96
//  #05 //035   ----------------------------------------
 BYTE   W96
//  #05 //036   ----------------------------------------
 BYTE   W96
//  #05 //037   ----------------------------------------
 BYTE   W96
//  #05 //038   ----------------------------------------
 BYTE   W96
//  #05 //039   ----------------------------------------
 BYTE   W96
//  #05 //040   ----------------------------------------
 BYTE   W96
//  #05 //041   ----------------------------------------
 BYTE   W96
//  #05 //042   ----------------------------------------
 BYTE   W96
//  #05 //043   ----------------------------------------
 BYTE   W48
 BYTE   GoTo
  POIN2 Label_01BC48A1
 BYTE   FINE

//**************** Track 6 (Midi-Chn.5) ****************//

KHCoMGracefulAssassinAzula_006:
//  #06 //000   ----------------------------------------
 BYTE   KEYSH   KHCoMGracefulAssassinAzula_key+0
 BYTE   VOICE   19
 BYTE   MODT 0
 BYTE   LFOS 44
 BYTE   VOL   49*KHCoMGracefulAssassinAzula_mvl/mxv
 BYTE   PAN   c_v-1
 BYTE   TIE  Cn1  v056
 BYTE   N36  Cs2
 BYTE   W36
 BYTE   TIE  Cn2
 BYTE   W60
//  #06 //001   ----------------------------------------
 BYTE   W96
//  #06 //002   ----------------------------------------
 BYTE   W90
 BYTE   EOT
 BYTE   Cn1  v048
 BYTE   W06
//  #06 //003   ----------------------------------------
Label_01BC491B:
 BYTE   N09  Ds2  v060
 BYTE   N09  Cn3
 BYTE   W24
 BYTE   Ds2
 BYTE   N09  Cn3
 BYTE   W24
 BYTE   Ds2
 BYTE   N09  Cn3
 BYTE   W12
 BYTE   Ds2
 BYTE   N09  Cn3
 BYTE   W12
 BYTE   Ds2
 BYTE   N09  Cn3
 BYTE   W24
 BYTE   PEND 
//  #06 //004   ----------------------------------------
Label_01BC4932:
 BYTE   N09  Ds2  v060
 BYTE   N09  Cn3
 BYTE   W24
 BYTE   Ds2
 BYTE   N09  Cn3
 BYTE   W12
 BYTE   Ds2
 BYTE   N09  Cn3
 BYTE   W12
 BYTE   Fn2
 BYTE   N09  Cs3
 BYTE   W24
 BYTE   Fn2
 BYTE   N09  Cs3
 BYTE   W24
 BYTE   PEND 
//  #06 //005   ----------------------------------------
Label_01BC4949:
 BYTE   N09  Fn2  v060
 BYTE   N09  Cs3
 BYTE   W12
 BYTE   Fn2
 BYTE   N09  Cs3
 BYTE   W12
 BYTE   Fn2
 BYTE   N09  Cs3
 BYTE   W24
 BYTE   Fn2
 BYTE   N09  Cs3
 BYTE   W24
 BYTE   Fn2
 BYTE   N09  Cs3
 BYTE   W12
 BYTE   Fn2
 BYTE   N09  Cs3
 BYTE   W12
 BYTE   PEND 
//  #06 //006   ----------------------------------------
 BYTE   PATT
  POIN2 Label_01BC491B
//  #06 //007   ----------------------------------------
 BYTE   PATT
  POIN2 Label_01BC4932
//  #06 //008   ----------------------------------------
 BYTE   PATT
  POIN2 Label_01BC4949
//  #06 //009   ----------------------------------------
Label_01BC4973:
//  #06 //010   ----------------------------------------
 BYTE   PATT
  POIN2 Label_01BC491B
//  #06 //011   ----------------------------------------
 BYTE   PATT
  POIN2 Label_01BC4932
//  #06 //012   ----------------------------------------
 BYTE   PATT
  POIN2 Label_01BC4949
//  #06 //013   ----------------------------------------
 BYTE   PATT
  POIN2 Label_01BC491B
//  #06 //014   ----------------------------------------
 BYTE   PATT
  POIN2 Label_01BC4932
//  #06 //015   ----------------------------------------
 BYTE   PATT
  POIN2 Label_01BC4949
//  #06 //016   ----------------------------------------
 BYTE   PATT
  POIN2 Label_01BC491B
//  #06 //017   ----------------------------------------
 BYTE   PATT
  POIN2 Label_01BC4932
//  #06 //018   ----------------------------------------
 BYTE   PATT
  POIN2 Label_01BC4949
//  #06 //019   ----------------------------------------
 BYTE   PATT
  POIN2 Label_01BC491B
//  #06 //020   ----------------------------------------
 BYTE   PATT
  POIN2 Label_01BC4932
//  #06 //021   ----------------------------------------
 BYTE   PATT
  POIN2 Label_01BC4949
//  #06 //022   ----------------------------------------
 BYTE   PATT
  POIN2 Label_01BC491B
//  #06 //023   ----------------------------------------
 BYTE   PATT
  POIN2 Label_01BC4932
//  #06 //024   ----------------------------------------
 BYTE   PATT
  POIN2 Label_01BC4949
//  #06 //025   ----------------------------------------
 BYTE   W96
//  #06 //026   ----------------------------------------
 BYTE   W96
//  #06 //027   ----------------------------------------
 BYTE   W96
//  #06 //028   ----------------------------------------
 BYTE   W96
//  #06 //029   ----------------------------------------
 BYTE   W96
//  #06 //030   ----------------------------------------
 BYTE   W96
//  #06 //031   ----------------------------------------
 BYTE   W96
//  #06 //032   ----------------------------------------
 BYTE   W96
//  #06 //033   ----------------------------------------
 BYTE   W96
//  #06 //034   ----------------------------------------
 BYTE   W96
//  #06 //035   ----------------------------------------
 BYTE   W96
//  #06 //036   ----------------------------------------
 BYTE   W96
//  #06 //037   ----------------------------------------
 BYTE   W96
//  #06 //038   ----------------------------------------
 BYTE   W48
 BYTE   N09  Ds2  v060
 BYTE   N09  Cn3
 BYTE   W24
 BYTE   Ds2
 BYTE   N09  Cn3
 BYTE   W24
//  #06 //039   ----------------------------------------
Label_01BC49D6:
 BYTE   N09  Ds2  v060
 BYTE   N09  Cn3
 BYTE   W12
 BYTE   Ds2
 BYTE   N09  Cn3
 BYTE   W12
 BYTE   Ds2
 BYTE   N09  Cn3
 BYTE   W24
 BYTE   Ds2
 BYTE   N09  Cn3
 BYTE   W24
 BYTE   Ds2
 BYTE   N09  Cn3
 BYTE   W12
 BYTE   Ds2
 BYTE   N09  Cn3
 BYTE   W12
 BYTE   PEND 
//  #06 //040   ----------------------------------------
Label_01BC49F1:
 BYTE   N09  Fn2  v060
 BYTE   N09  Cs3
 BYTE   W24
 BYTE   Fn2
 BYTE   N09  Cs3
 BYTE   W24
 BYTE   Fn2
 BYTE   N09  Cs3
 BYTE   W12
 BYTE   Fn2
 BYTE   N09  Cs3
 BYTE   W12
 BYTE   Fn2
 BYTE   N09  Cs3
 BYTE   W24
 BYTE   PEND 
//  #06 //041   ----------------------------------------
 BYTE   Fn2
 BYTE   N09  Cs3
 BYTE   W24
 BYTE   Fn2
 BYTE   N09  Cs3
 BYTE   W12
 BYTE   Fn2
 BYTE   N09  Cs3
 BYTE   W12
 BYTE   Ds2
 BYTE   N09  Cn3
 BYTE   W24
 BYTE   Ds2
 BYTE   N09  Cn3
 BYTE   W24
//  #06 //042   ----------------------------------------
 BYTE   PATT
  POIN2 Label_01BC49D6
//  #06 //043   ----------------------------------------
 BYTE   PATT
  POIN2 Label_01BC49F1
//  #06 //044   ----------------------------------------
 BYTE   N09  Fn2  v060
 BYTE   N09  Cs3
 BYTE   W24
 BYTE   Fn2
 BYTE   N09  Cs3
 BYTE   W12
 BYTE   Fn2
 BYTE   N09  Cs3
 BYTE   W12
 BYTE   GoTo
  POIN2 Label_01BC4973
 BYTE   FINE

//**************** Track 7 (Midi-Chn.6) ****************//

KHCoMGracefulAssassinAzula_007:
//  #07 //000   ----------------------------------------
 BYTE   KEYSH   KHCoMGracefulAssassinAzula_key+0
 BYTE   VOICE   52
 BYTE   MODT 0
 BYTE   LFOS 44
 BYTE   VOL   46*KHCoMGracefulAssassinAzula_mvl/mxv
 BYTE   PAN   c_v+16
 BYTE   W96
//  #07 //001   ----------------------------------------
 BYTE   W96
//  #07 //002   ----------------------------------------
 BYTE   W96
//  #07 //003   ----------------------------------------
 BYTE   VOL   20*KHCoMGracefulAssassinAzula_mvl/mxv
 BYTE   TIE  Cn4  v076
 BYTE   TIE  Gn4
 BYTE   W96
//  #07 //004   ----------------------------------------
 BYTE   W48
 BYTE   EOT
 BYTE   Cn4  v079
 BYTE   TIE  Cs4
 BYTE   TIE  Fn4
 BYTE   W48
//  #07 //005   ----------------------------------------
 BYTE   W96
//  #07 //006   ----------------------------------------
 BYTE   EOT
 BYTE   Cs4  v077
Label_01BC4A60:
 BYTE   TIE  Cn4  v076
 BYTE   TIE  Gn4
 BYTE   W96
 BYTE   PEND 
//  #07 //007   ----------------------------------------
 BYTE   W48
 BYTE   EOT
 BYTE   Cn4  v079
 BYTE   TIE  Cs4
 BYTE   TIE  Fn4
 BYTE   W48
//  #07 //008   ----------------------------------------
 BYTE   W96
//  #07 //009   ----------------------------------------
 BYTE   EOT
 BYTE   Cs4  v077
Label_01BC4A74:
//  #07 //010   ----------------------------------------
 BYTE   PATT
  POIN2 Label_01BC4A60
//  #07 //011   ----------------------------------------
 BYTE   W48
 BYTE   EOT
 BYTE   Cn4  v079
 BYTE   TIE  Cs4  v076
 BYTE   TIE  Fn4
 BYTE   W48
//  #07 //012   ----------------------------------------
 BYTE   W96
//  #07 //013   ----------------------------------------
 BYTE   EOT
 BYTE   Cs4  v077
//  #07 //014   ----------------------------------------
 BYTE   PATT
  POIN2 Label_01BC4A60
//  #07 //015   ----------------------------------------
 BYTE   W48
 BYTE   EOT
 BYTE   Cn4  v079
 BYTE   TIE  Cs4  v076
 BYTE   TIE  Fn4
 BYTE   W48
//  #07 //016   ----------------------------------------
 BYTE   W96
//  #07 //017   ----------------------------------------
 BYTE   EOT
 BYTE   Cs4  v077
//  #07 //018   ----------------------------------------
 BYTE   PATT
  POIN2 Label_01BC4A60
//  #07 //019   ----------------------------------------
 BYTE   W48
 BYTE   EOT
 BYTE   Cn4  v079
 BYTE   TIE  Cs4  v076
 BYTE   TIE  Fn4
 BYTE   W48
//  #07 //020   ----------------------------------------
 BYTE   W96
//  #07 //021   ----------------------------------------
 BYTE   EOT
 BYTE   Cs4  v077
//  #07 //022   ----------------------------------------
 BYTE   PATT
  POIN2 Label_01BC4A60
//  #07 //023   ----------------------------------------
 BYTE   W48
 BYTE   EOT
 BYTE   Cn4  v079
 BYTE   TIE  Cs4  v076
 BYTE   TIE  Fn4
 BYTE   W48
//  #07 //024   ----------------------------------------
 BYTE   W24
 BYTE   VOL   20*KHCoMGracefulAssassinAzula_mvl/mxv
 BYTE   W01
 BYTE   VOL   21*KHCoMGracefulAssassinAzula_mvl/mxv
 BYTE   W02
 BYTE   VOL   22*KHCoMGracefulAssassinAzula_mvl/mxv
 BYTE   W01
 BYTE   VOL   23*KHCoMGracefulAssassinAzula_mvl/mxv
 BYTE   W02
 BYTE   VOL   23*KHCoMGracefulAssassinAzula_mvl/mxv
 BYTE   W01
 BYTE   VOL   23*KHCoMGracefulAssassinAzula_mvl/mxv
 BYTE   W02
 BYTE   VOL   24*KHCoMGracefulAssassinAzula_mvl/mxv
 BYTE   W01
 BYTE   VOL   25*KHCoMGracefulAssassinAzula_mvl/mxv
 BYTE   W02
 BYTE   VOL   25*KHCoMGracefulAssassinAzula_mvl/mxv
 BYTE   W01
 BYTE   VOL   26*KHCoMGracefulAssassinAzula_mvl/mxv
 BYTE   W02
 BYTE   VOL   26*KHCoMGracefulAssassinAzula_mvl/mxv
 BYTE   W01
 BYTE   VOL   27*KHCoMGracefulAssassinAzula_mvl/mxv
 BYTE   W02
 BYTE   VOL   27*KHCoMGracefulAssassinAzula_mvl/mxv
 BYTE   W01
 BYTE   VOL   28*KHCoMGracefulAssassinAzula_mvl/mxv
 BYTE   W02
 BYTE   VOL   29*KHCoMGracefulAssassinAzula_mvl/mxv
 BYTE   W01
 BYTE   VOL   29*KHCoMGracefulAssassinAzula_mvl/mxv
 BYTE   W02
 BYTE   VOL   30*KHCoMGracefulAssassinAzula_mvl/mxv
 BYTE   W02
 BYTE   VOL   31*KHCoMGracefulAssassinAzula_mvl/mxv
 BYTE   W01
 BYTE   VOL   31*KHCoMGracefulAssassinAzula_mvl/mxv
 BYTE   W02
 BYTE   VOL   31*KHCoMGracefulAssassinAzula_mvl/mxv
 BYTE   W01
 BYTE   VOL   32*KHCoMGracefulAssassinAzula_mvl/mxv
 BYTE   W02
 BYTE   VOL   33*KHCoMGracefulAssassinAzula_mvl/mxv
 BYTE   W01
 BYTE   VOL   34*KHCoMGracefulAssassinAzula_mvl/mxv
 BYTE   W02
 BYTE   VOL   35*KHCoMGracefulAssassinAzula_mvl/mxv
 BYTE   W01
 BYTE   VOL   35*KHCoMGracefulAssassinAzula_mvl/mxv
 BYTE   W02
 BYTE   VOL   35*KHCoMGracefulAssassinAzula_mvl/mxv
 BYTE   W01
 BYTE   VOL   37*KHCoMGracefulAssassinAzula_mvl/mxv
 BYTE   W02
 BYTE   VOL   37*KHCoMGracefulAssassinAzula_mvl/mxv
 BYTE   W01
 BYTE   VOL   38*KHCoMGracefulAssassinAzula_mvl/mxv
 BYTE   W02
 BYTE   VOL   38*KHCoMGracefulAssassinAzula_mvl/mxv
 BYTE   W01
 BYTE   VOL   39*KHCoMGracefulAssassinAzula_mvl/mxv
 BYTE   W02
 BYTE   VOL   40*KHCoMGracefulAssassinAzula_mvl/mxv
 BYTE   W02
 BYTE   VOL   41*KHCoMGracefulAssassinAzula_mvl/mxv
 BYTE   W01
 BYTE   VOL   41*KHCoMGracefulAssassinAzula_mvl/mxv
 BYTE   W02
 BYTE   VOL   41*KHCoMGracefulAssassinAzula_mvl/mxv
 BYTE   W01
 BYTE   VOL   43*KHCoMGracefulAssassinAzula_mvl/mxv
 BYTE   W02
 BYTE   VOL   43*KHCoMGracefulAssassinAzula_mvl/mxv
 BYTE   W01
 BYTE   VOL   44*KHCoMGracefulAssassinAzula_mvl/mxv
 BYTE   W02
 BYTE   VOL   44*KHCoMGracefulAssassinAzula_mvl/mxv
 BYTE   W01
 BYTE   VOL   45*KHCoMGracefulAssassinAzula_mvl/mxv
 BYTE   W02
 BYTE   VOL   46*KHCoMGracefulAssassinAzula_mvl/mxv
 BYTE   W01
 BYTE   VOL   47*KHCoMGracefulAssassinAzula_mvl/mxv
 BYTE   W02
 BYTE   VOL   48*KHCoMGracefulAssassinAzula_mvl/mxv
 BYTE   W01
 BYTE   VOL   48*KHCoMGracefulAssassinAzula_mvl/mxv
 BYTE   W02
 BYTE   VOL   49*KHCoMGracefulAssassinAzula_mvl/mxv
 BYTE   W01
 BYTE   VOL   49*KHCoMGracefulAssassinAzula_mvl/mxv
 BYTE   W02
 BYTE   VOL   51*KHCoMGracefulAssassinAzula_mvl/mxv
 BYTE   W02
//  #07 //025   ----------------------------------------
 BYTE   EOT
 BYTE   Cs4  v077
 BYTE   VOL   51*KHCoMGracefulAssassinAzula_mvl/mxv
 BYTE   TIE  Cn4  v044
 BYTE   TIE  Gn4
 BYTE   W96
//  #07 //026   ----------------------------------------
 BYTE   W48
 BYTE   EOT
 BYTE   Cn4  v079
 BYTE   TIE  Cs4
 BYTE   TIE  Fn4
 BYTE   W48
//  #07 //027   ----------------------------------------
 BYTE   W96
//  #07 //028   ----------------------------------------
 BYTE   EOT
 BYTE   Cs4  v077
 BYTE   TIE  Cn4
 BYTE   TIE  Gn4
 BYTE   W96
//  #07 //029   ----------------------------------------
 BYTE   W48
 BYTE   EOT
 BYTE   TIE  Fn4
 BYTE   W48
//  #07 //030   ----------------------------------------
 BYTE   W96
//  #07 //031   ----------------------------------------
 BYTE   EOT
 BYTE   Cn4  v077
 BYTE   W96
//  #07 //032   ----------------------------------------
 BYTE   W96
//  #07 //033   ----------------------------------------
 BYTE   W96
//  #07 //034   ----------------------------------------
 BYTE   W96
//  #07 //035   ----------------------------------------
 BYTE   W96
//  #07 //036   ----------------------------------------
 BYTE   W96
//  #07 //037   ----------------------------------------
 BYTE   W96
//  #07 //038   ----------------------------------------
 BYTE   W96
//  #07 //039   ----------------------------------------
 BYTE   W96
//  #07 //040   ----------------------------------------
 BYTE   W96
//  #07 //041   ----------------------------------------
 BYTE   W48
 BYTE   VOL   20*KHCoMGracefulAssassinAzula_mvl/mxv
 BYTE   TIE  Cn4  v076
 BYTE   TIE  Gn4
 BYTE   W48
//  #07 //042   ----------------------------------------
 BYTE   W96
//  #07 //043   ----------------------------------------
 BYTE   EOT
 BYTE   Cn4  v079
 BYTE   TIE  Cs4
 BYTE   TIE  Fn4
 BYTE   W96
//  #07 //044   ----------------------------------------
 BYTE   W48
 BYTE   EOT
 BYTE   Cs4  v077
 BYTE   TIE  Cn4
 BYTE   TIE  Gn4
 BYTE   W48
//  #07 //045   ----------------------------------------
 BYTE   W96
//  #07 //046   ----------------------------------------
 BYTE   EOT
 BYTE   Cn4  v079
 BYTE   W96
//  #07 //047   ----------------------------------------
 BYTE   W48
 BYTE   GoTo
  POIN2 Label_01BC4A74
 BYTE   FINE

//**************** Track 8 (Midi-Chn.7) ****************//

KHCoMGracefulAssassinAzula_008:
//  #08 //000   ----------------------------------------
 BYTE   KEYSH   KHCoMGracefulAssassinAzula_key+0
 BYTE   VOICE   66
 BYTE   MODT 0
 BYTE   LFOS 44
 BYTE   VOL   46*KHCoMGracefulAssassinAzula_mvl/mxv
 BYTE   PAN   c_v-24
 BYTE   W96
//  #08 //001   ----------------------------------------
 BYTE   W96
//  #08 //002   ----------------------------------------
 BYTE   W96
//  #08 //003   ----------------------------------------
Label_01BC4B83:
 BYTE   N04  Cn2  v076
 BYTE   W12
 BYTE   N04
 BYTE   W06
 BYTE   Dn2
 BYTE   W06
 BYTE   Ds2
 BYTE   W06
 BYTE   Fn2
 BYTE   W06
 BYTE   Cn2
 BYTE   W12
 BYTE   N04
 BYTE   W06
 BYTE   Dn2
 BYTE   W06
 BYTE   Ds2
 BYTE   W06
 BYTE   Fn2
 BYTE   W06
 BYTE   Cn2
 BYTE   W12
 BYTE   N04
 BYTE   W06
 BYTE   Dn2
 BYTE   W06
 BYTE   PEND 
//  #08 //004   ----------------------------------------
Label_01BC4BA0:
 BYTE   N04  Ds2  v076
 BYTE   W06
 BYTE   Fn2
 BYTE   W06
 BYTE   Cn2
 BYTE   W12
 BYTE   N04
 BYTE   W06
 BYTE   Dn2
 BYTE   W06
 BYTE   Ds2
 BYTE   W06
 BYTE   Fn2
 BYTE   W06
 BYTE   Cs2
 BYTE   W12
 BYTE   N04
 BYTE   W06
 BYTE   Ds2
 BYTE   W06
 BYTE   Fn2
 BYTE   W06
 BYTE   Gn2
 BYTE   W06
 BYTE   Cs2
 BYTE   W12
 BYTE   PEND 
//  #08 //005   ----------------------------------------
Label_01BC4BBD:
 BYTE   N04  Cs2  v076
 BYTE   W06
 BYTE   Ds2
 BYTE   W06
 BYTE   Fn2
 BYTE   W06
 BYTE   Gn2
 BYTE   W06
 BYTE   Cs2
 BYTE   W12
 BYTE   N04
 BYTE   W06
 BYTE   Ds2
 BYTE   W06
 BYTE   Fn2
 BYTE   W06
 BYTE   Gn2
 BYTE   W06
 BYTE   Cs2
 BYTE   W12
 BYTE   N04
 BYTE   W06
 BYTE   Ds2
 BYTE   W06
 BYTE   Fn2
 BYTE   W06
 BYTE   Gn2
 BYTE   W06
 BYTE   PEND 
//  #08 //006   ----------------------------------------
 BYTE   PATT
  POIN2 Label_01BC4B83
//  #08 //007   ----------------------------------------
 BYTE   PATT
  POIN2 Label_01BC4BA0
//  #08 //008   ----------------------------------------
 BYTE   PATT
  POIN2 Label_01BC4BBD
//  #08 //009   ----------------------------------------
Label_01BC4BEB:
//  #08 //010   ----------------------------------------
 BYTE   PATT
  POIN2 Label_01BC4B83
//  #08 //011   ----------------------------------------
 BYTE   PATT
  POIN2 Label_01BC4BA0
//  #08 //012   ----------------------------------------
 BYTE   PATT
  POIN2 Label_01BC4BBD
//  #08 //013   ----------------------------------------
 BYTE   PATT
  POIN2 Label_01BC4B83
//  #08 //014   ----------------------------------------
 BYTE   PATT
  POIN2 Label_01BC4BA0
//  #08 //015   ----------------------------------------
 BYTE   PATT
  POIN2 Label_01BC4BBD
//  #08 //016   ----------------------------------------
 BYTE   PATT
  POIN2 Label_01BC4B83
//  #08 //017   ----------------------------------------
 BYTE   PATT
  POIN2 Label_01BC4BA0
//  #08 //018   ----------------------------------------
 BYTE   PATT
  POIN2 Label_01BC4BBD
//  #08 //019   ----------------------------------------
 BYTE   PATT
  POIN2 Label_01BC4B83
//  #08 //020   ----------------------------------------
 BYTE   PATT
  POIN2 Label_01BC4BA0
//  #08 //021   ----------------------------------------
 BYTE   PATT
  POIN2 Label_01BC4BBD
//  #08 //022   ----------------------------------------
 BYTE   W96
//  #08 //023   ----------------------------------------
 BYTE   W96
//  #08 //024   ----------------------------------------
 BYTE   W24
 BYTE   N04  Cs2  v088
 BYTE   W12
 BYTE   N04
 BYTE   W06
 BYTE   Ds2
 BYTE   W06
 BYTE   Fn2
 BYTE   W06
 BYTE   Gn2
 BYTE   W06
 BYTE   Cs2
 BYTE   W12
 BYTE   N04
 BYTE   W06
 BYTE   Ds2
 BYTE   W06
 BYTE   Fn2
 BYTE   W06
 BYTE   Gn2
 BYTE   W06
//  #08 //025   ----------------------------------------
 BYTE   W96
//  #08 //026   ----------------------------------------
 BYTE   W96
//  #08 //027   ----------------------------------------
 BYTE   W24
 BYTE   Fn1
 BYTE   W12
 BYTE   N04
 BYTE   W06
 BYTE   Gn1
 BYTE   W06
 BYTE   Gs1
 BYTE   W06
 BYTE   As1
 BYTE   W06
 BYTE   Fn1
 BYTE   W12
 BYTE   N04
 BYTE   W06
 BYTE   Gn1
 BYTE   W06
 BYTE   Gs1
 BYTE   W06
 BYTE   As1
 BYTE   W06
//  #08 //028   ----------------------------------------
 BYTE   Cn2
 BYTE   W12
 BYTE   N04
 BYTE   W06
 BYTE   Dn2
 BYTE   W06
 BYTE   Ds2
 BYTE   W06
 BYTE   Fn2
 BYTE   W06
 BYTE   Gs1
 BYTE   W12
 BYTE   N04
 BYTE   W06
 BYTE   As1
 BYTE   W06
 BYTE   Cn2
 BYTE   W06
 BYTE   Dn2
 BYTE   W06
 BYTE   Cn2
 BYTE   W12
 BYTE   N04
 BYTE   W06
 BYTE   Dn2
 BYTE   W06
//  #08 //029   ----------------------------------------
 BYTE   Ds2
 BYTE   W06
 BYTE   Fn2
 BYTE   W06
 BYTE   Gs1
 BYTE   W12
 BYTE   N04
 BYTE   W06
 BYTE   As1
 BYTE   W06
 BYTE   Cn2
 BYTE   W06
 BYTE   Dn2
 BYTE   W06
 BYTE   Gn1
 BYTE   W12
 BYTE   N04
 BYTE   W06
 BYTE   Gs1
 BYTE   W06
 BYTE   As1
 BYTE   W06
 BYTE   Cn2
 BYTE   W06
 BYTE   Gs1
 BYTE   W12
//  #08 //030   ----------------------------------------
Label_01BC4C8B:
 BYTE   N04  Gs1  v088
 BYTE   W06
 BYTE   As1
 BYTE   W06
 BYTE   Cn2
 BYTE   W06
 BYTE   Dn2
 BYTE   W06
 BYTE   Gs1
 BYTE   W12
 BYTE   N04
 BYTE   W06
 BYTE   As1
 BYTE   W06
 BYTE   Cn2
 BYTE   W06
 BYTE   Dn2
 BYTE   W06
 BYTE   Gs1
 BYTE   W12
 BYTE   N04
 BYTE   W06
 BYTE   As1
 BYTE   W06
 BYTE   Cn2
 BYTE   W06
 BYTE   Dn2
 BYTE   W06
 BYTE   PEND 
//  #08 //031   ----------------------------------------
 BYTE   Cn2
 BYTE   W12
 BYTE   N04
 BYTE   W06
 BYTE   Dn2
 BYTE   W06
 BYTE   Ds2
 BYTE   W06
 BYTE   Fn2
 BYTE   W06
 BYTE   Cn2
 BYTE   W12
 BYTE   N04
 BYTE   W06
 BYTE   Dn2
 BYTE   W06
 BYTE   Ds2
 BYTE   W06
 BYTE   Fn2
 BYTE   W06
 BYTE   As1
 BYTE   W12
 BYTE   N04
 BYTE   W06
 BYTE   Cn2
 BYTE   W06
//  #08 //032   ----------------------------------------
 BYTE   Dn2
 BYTE   W06
 BYTE   Ds2
 BYTE   W06
 BYTE   As1
 BYTE   W12
 BYTE   N04
 BYTE   W06
 BYTE   Cn2
 BYTE   W06
 BYTE   Dn2
 BYTE   W06
 BYTE   Ds2
 BYTE   W06
 BYTE   Gs1
 BYTE   W12
 BYTE   N04
 BYTE   W06
 BYTE   As1
 BYTE   W06
 BYTE   Cn2
 BYTE   W06
 BYTE   Dn2
 BYTE   W06
 BYTE   Gs1
 BYTE   W12
//  #08 //033   ----------------------------------------
 BYTE   PATT
  POIN2 Label_01BC4C8B
//  #08 //034   ----------------------------------------
 BYTE   N04  Gn1  v088
 BYTE   W12
 BYTE   N04
 BYTE   W06
 BYTE   Gs1
 BYTE   W06
 BYTE   As1
 BYTE   W06
 BYTE   Cn2
 BYTE   W06
 BYTE   Gn1
 BYTE   W12
 BYTE   N04
 BYTE   W06
 BYTE   Gs1
 BYTE   W06
 BYTE   As1
 BYTE   W06
 BYTE   Cn2
 BYTE   W06
 BYTE   Gn1
 BYTE   W12
 BYTE   N04
 BYTE   W06
 BYTE   Gs1
 BYTE   W06
//  #08 //035   ----------------------------------------
 BYTE   As1
 BYTE   W06
 BYTE   Cn2
 BYTE   W06
 BYTE   Gn1
 BYTE   W12
 BYTE   N04
 BYTE   W06
 BYTE   Gs1
 BYTE   W06
 BYTE   As1
 BYTE   W06
 BYTE   Cn2
 BYTE   W06
 BYTE   Gs1
 BYTE   W12
 BYTE   N04
 BYTE   W06
 BYTE   As1
 BYTE   W06
 BYTE   Cn2
 BYTE   W06
 BYTE   Dn2
 BYTE   W06
 BYTE   Gs1
 BYTE   W12
//  #08 //036   ----------------------------------------
 BYTE   PATT
  POIN2 Label_01BC4C8B
//  #08 //037   ----------------------------------------
 BYTE   N04  Cs2  v088
 BYTE   W12
 BYTE   N04
 BYTE   W06
 BYTE   Ds2
 BYTE   W06
 BYTE   Fn2
 BYTE   W06
 BYTE   Gn2
 BYTE   W06
 BYTE   Cs2
 BYTE   W12
 BYTE   N04
 BYTE   W06
 BYTE   Ds2
 BYTE   W06
 BYTE   Fn2
 BYTE   W06
 BYTE   Gn2
 BYTE   W06
 BYTE   Cs2
 BYTE   W12
 BYTE   N04
 BYTE   W06
 BYTE   Ds2
 BYTE   W06
//  #08 //038   ----------------------------------------
 BYTE   Fn2
 BYTE   W06
 BYTE   Gn2
 BYTE   W06
 BYTE   Cs2
 BYTE   W12
 BYTE   N04
 BYTE   W06
 BYTE   Ds2
 BYTE   W06
 BYTE   Fn2
 BYTE   W06
 BYTE   Gn2
 BYTE   W54
//  #08 //039   ----------------------------------------
 BYTE   W96
//  #08 //040   ----------------------------------------
Label_01BC4D49:
 BYTE   W72
 BYTE   N04  Cs2  v080
 BYTE   W12
 BYTE   N04
 BYTE   W06
 BYTE   Ds2
 BYTE   W06
 BYTE   PEND 
//  #08 //041   ----------------------------------------
 BYTE   Fn2
 BYTE   W06
 BYTE   Gn2
 BYTE   W06
 BYTE   Cs2
 BYTE   W12
 BYTE   N04
 BYTE   W06
 BYTE   Ds2
 BYTE   W06
 BYTE   Fn2
 BYTE   W06
 BYTE   Gn2
 BYTE   W54
//  #08 //042   ----------------------------------------
 BYTE   W96
//  #08 //043   ----------------------------------------
 BYTE   PATT
  POIN2 Label_01BC4D49
//  #08 //044   ----------------------------------------
 BYTE   N04  Fn2  v080
 BYTE   W06
 BYTE   Gn2
 BYTE   W06
 BYTE   Cs2
 BYTE   W12
 BYTE   N04
 BYTE   W06
 BYTE   Ds2
 BYTE   W06
 BYTE   Fn2
 BYTE   W06
 BYTE   Gn2
 BYTE   W06
 BYTE   GoTo
  POIN2 Label_01BC4BEB
 BYTE   FINE

//**************** Track 9 (Midi-Chn.8) ****************//

KHCoMGracefulAssassinAzula_009:
//  #09 //000   ----------------------------------------
 BYTE   KEYSH   KHCoMGracefulAssassinAzula_key+0
 BYTE   VOICE   47
 BYTE   MODT 0
 BYTE   LFOS 44
 BYTE   VOL   74*KHCoMGracefulAssassinAzula_mvl/mxv
 BYTE   PAN   c_v+0
 BYTE   W96
//  #09 //001   ----------------------------------------
 BYTE   W96
//  #09 //002   ----------------------------------------
 BYTE   W90
 BYTE   N03  Gn2  v096
 BYTE   W03
 BYTE   N03
 BYTE   W03
//  #09 //003   ----------------------------------------
 BYTE   N24  Cn3
 BYTE   W96
//  #09 //004   ----------------------------------------
 BYTE   W96
//  #09 //005   ----------------------------------------
 BYTE   W96
//  #09 //006   ----------------------------------------
 BYTE   W96
//  #09 //007   ----------------------------------------
 BYTE   W96
//  #09 //008   ----------------------------------------
 BYTE   W96
//  #09 //009   ----------------------------------------
Label_015AA4F5:
 BYTE   W96
//  #09 //010   ----------------------------------------
 BYTE   W96
//  #09 //011   ----------------------------------------
 BYTE   W96
//  #09 //012   ----------------------------------------
 BYTE   W96
//  #09 //013   ----------------------------------------
 BYTE   W96
//  #09 //014   ----------------------------------------
 BYTE   W96
//  #09 //015   ----------------------------------------
 BYTE   W96
//  #09 //016   ----------------------------------------
 BYTE   W96
//  #09 //017   ----------------------------------------
 BYTE   W96
//  #09 //018   ----------------------------------------
 BYTE   W96
//  #09 //019   ----------------------------------------
 BYTE   W96
//  #09 //020   ----------------------------------------
 BYTE   W90
 BYTE   N03  As2  v096
 BYTE   W03
 BYTE   N03
 BYTE   W03
//  #09 //021   ----------------------------------------
Label_015AA507:
 BYTE   N24  Cn3  v127
 BYTE   W84
 BYTE   N12  Gn2  v096
 BYTE   W12
 BYTE   PEND 
//  #09 //022   ----------------------------------------
 BYTE   W12
 BYTE   N24  Cn3
 BYTE   W36
 BYTE   Cs3
 BYTE   W48
//  #09 //023   ----------------------------------------
 BYTE   W36
 BYTE   N12  Gs2
 BYTE   W12
 BYTE   N12
 BYTE   W12
 BYTE   N24  Cs3
 BYTE   W24
 BYTE   N04  As2  v068
 BYTE   W04
 BYTE   As2  v084
 BYTE   W04
 BYTE   As2  v116
 BYTE   W04
//  #09 //024   ----------------------------------------
 BYTE   PATT
  POIN2 Label_015AA507
//  #09 //025   ----------------------------------------
 BYTE   W12
 BYTE   N24  Cn3  v096
 BYTE   W36
 BYTE   Fn2
 BYTE   W48
//  #09 //026   ----------------------------------------
 BYTE   W36
 BYTE   N12  Cn3
 BYTE   W12
 BYTE   N12
 BYTE   W12
 BYTE   N24  Fn2
 BYTE   W24
 BYTE   N04  As2  v068
 BYTE   W04
 BYTE   As2  v084
 BYTE   W04
 BYTE   As2  v116
 BYTE   W04
//  #09 //027   ----------------------------------------
 BYTE   N12  Cn3  v127
 BYTE   W36
 BYTE   Gs2
 BYTE   W36
 BYTE   Cn3
 BYTE   W24
//  #09 //028   ----------------------------------------
 BYTE   W12
 BYTE   Gs2
 BYTE   W36
 BYTE   Gn2
 BYTE   W36
 BYTE   Gs2
 BYTE   W12
//  #09 //029   ----------------------------------------
 BYTE   W84
 BYTE   N04  Gs2  v116
 BYTE   W04
 BYTE   Gs2  v127
 BYTE   W04
 BYTE   N04
 BYTE   W04
//  #09 //030   ----------------------------------------
 BYTE   N12  Cn3
 BYTE   W12
 BYTE   N12
 BYTE   W84
//  #09 //031   ----------------------------------------
 BYTE   W36
 BYTE   As2
 BYTE   W12
 BYTE   Gs2
 BYTE   W48
//  #09 //032   ----------------------------------------
 BYTE   W84
 BYTE   N12
 BYTE   W12
//  #09 //033   ----------------------------------------
 BYTE   Gn2
 BYTE   W12
 BYTE   N12
 BYTE   W84
//  #09 //034   ----------------------------------------
 BYTE   W36
 BYTE   N12
 BYTE   W12
 BYTE   Gs2
 BYTE   W12
 BYTE   N12
 BYTE   W36
//  #09 //035   ----------------------------------------
 BYTE   W84
 BYTE   N12
 BYTE   W12
//  #09 //036   ----------------------------------------
 BYTE   Cs3
 BYTE   W12
 BYTE   N12
 BYTE   W84
//  #09 //037   ----------------------------------------
 BYTE   W36
 BYTE   N12
 BYTE   W12
 BYTE   N24  Cn3
 BYTE   W48
//  #09 //038   ----------------------------------------
 BYTE   W96
//  #09 //039   ----------------------------------------
 BYTE   W96
//  #09 //040   ----------------------------------------
 BYTE   W96
//  #09 //041   ----------------------------------------
 BYTE   W96
//  #09 //042   ----------------------------------------
 BYTE   W96
//  #09 //043   ----------------------------------------
 BYTE   W48
 BYTE   GoTo
  POIN2 Label_015AA4F5
 BYTE   FINE

//**************** Track 10 (Midi-Chn.9) ****************//

KHCoMGracefulAssassinAzula_010:
//  #10 //000   ----------------------------------------
 BYTE   KEYSH   KHCoMGracefulAssassinAzula_key+0
 BYTE   VOICE   127
 BYTE   MODT 0
 BYTE   LFOS 44
 BYTE   PAN   c_v-1
 BYTE   VOL   46*KHCoMGracefulAssassinAzula_mvl/mxv
 BYTE   W96
//  #10 //001   ----------------------------------------
 BYTE   W96
//  #10 //002   ----------------------------------------
 BYTE   W96
//  #10 //003   ----------------------------------------
Label_01BC50C7:
 BYTE   N06  Dn1  v127
 BYTE   W12
 BYTE   Dn1  v116
 BYTE   W06
 BYTE   Dn1  v096
 BYTE   W06
 BYTE   Dn1  v127
 BYTE   W12
 BYTE   N06
 BYTE   W12
 BYTE   Dn1  v116
 BYTE   W06
 BYTE   Dn1  v096
 BYTE   W06
 BYTE   Dn1  v116
 BYTE   W06
 BYTE   Dn1  v127
 BYTE   W06
 BYTE   N06
 BYTE   W12
 BYTE   Dn1  v116
 BYTE   W06
 BYTE   Dn1  v096
 BYTE   W06
 BYTE   PEND 
//  #10 //004   ----------------------------------------
Label_01BC50EB:
 BYTE   N01  Dn1  v127
 BYTE   W01
 BYTE   N06
 BYTE   W17
 BYTE   N02
 BYTE   W02
 BYTE   Dn1  v096
 BYTE   W02
 BYTE   Dn1  v127
 BYTE   W02
 BYTE   N06
 BYTE   W12
 BYTE   N06
 BYTE   W12
 BYTE   N06
 BYTE   W12
 BYTE   Dn1  v116
 BYTE   W06
 BYTE   Dn1  v096
 BYTE   W06
 BYTE   Dn1  v127
 BYTE   W12
 BYTE   N06
 BYTE   W12
 BYTE   PEND 
//  #10 //005   ----------------------------------------
Label_01BC510B:
 BYTE   N06  Dn1  v116
 BYTE   W06
 BYTE   Dn1  v096
 BYTE   W06
 BYTE   Dn1  v116
 BYTE   W06
 BYTE   Dn1  v127
 BYTE   W06
 BYTE   N06
 BYTE   W12
 BYTE   Dn1  v116
 BYTE   W06
 BYTE   Dn1  v096
 BYTE   W06
 BYTE   N01  Dn1  v127
 BYTE   W01
 BYTE   N06
 BYTE   W17
 BYTE   N02
 BYTE   W02
 BYTE   Dn1  v096
 BYTE   W02
 BYTE   Dn1  v127
 BYTE   W02
 BYTE   N06
 BYTE   W12
 BYTE   N06
 BYTE   W12
 BYTE   PEND 
//  #10 //006   ----------------------------------------
 BYTE   PATT
  POIN2 Label_01BC50C7
//  #10 //007   ----------------------------------------
 BYTE   PATT
  POIN2 Label_01BC50EB
//  #10 //008   ----------------------------------------
 BYTE   PATT
  POIN2 Label_01BC510B
//  #10 //009   ----------------------------------------
Label_01BC5142:
//  #10 //010   ----------------------------------------
 BYTE   PATT
  POIN2 Label_01BC50C7
//  #10 //011   ----------------------------------------
 BYTE   PATT
  POIN2 Label_01BC50EB
//  #10 //012   ----------------------------------------
 BYTE   PATT
  POIN2 Label_01BC510B
//  #10 //013   ----------------------------------------
 BYTE   PATT
  POIN2 Label_01BC50C7
//  #10 //014   ----------------------------------------
 BYTE   PATT
  POIN2 Label_01BC50EB
//  #10 //015   ----------------------------------------
 BYTE   PATT
  POIN2 Label_01BC510B
//  #10 //016   ----------------------------------------
 BYTE   PATT
  POIN2 Label_01BC50C7
//  #10 //017   ----------------------------------------
 BYTE   PATT
  POIN2 Label_01BC50EB
//  #10 //018   ----------------------------------------
 BYTE   PATT
  POIN2 Label_01BC510B
//  #10 //019   ----------------------------------------
 BYTE   PATT
  POIN2 Label_01BC50C7
//  #10 //020   ----------------------------------------
 BYTE   PATT
  POIN2 Label_01BC50EB
//  #10 //021   ----------------------------------------
 BYTE   PATT
  POIN2 Label_01BC510B
//  #10 //022   ----------------------------------------
Label_01BC517E:
 BYTE   N06  Dn1  v127
 BYTE   W12
 BYTE   Dn1  v096
 BYTE   W06
 BYTE   Dn1  v084
 BYTE   W06
 BYTE   Dn1  v116
 BYTE   W24
 BYTE   Dn1  v096
 BYTE   W12
 BYTE   Dn1  v127
 BYTE   W12
 BYTE   N06
 BYTE   W12
 BYTE   Dn1  v096
 BYTE   W06
 BYTE   Dn1  v084
 BYTE   W06
 BYTE   PEND 
//  #10 //023   ----------------------------------------
Label_01BC519A:
 BYTE   N06  Dn1  v116
 BYTE   W18
 BYTE   N02  Dn1  v127
 BYTE   W02
 BYTE   Dn1  v084
 BYTE   W02
 BYTE   Dn1  v116
 BYTE   W02
 BYTE   N06  Dn1  v127
 BYTE   W12
 BYTE   N06
 BYTE   W12
 BYTE   N06
 BYTE   W12
 BYTE   Dn1  v096
 BYTE   W06
 BYTE   Dn1  v084
 BYTE   W06
 BYTE   Dn1  v116
 BYTE   W24
 BYTE   PEND 
//  #10 //024   ----------------------------------------
Label_01BC51BA:
 BYTE   N06  Dn1  v096
 BYTE   W12
 BYTE   Dn1  v127
 BYTE   W12
 BYTE   N06
 BYTE   W12
 BYTE   Dn1  v096
 BYTE   W06
 BYTE   Dn1  v084
 BYTE   W06
 BYTE   Dn1  v116
 BYTE   W18
 BYTE   N02  Dn1  v127
 BYTE   W02
 BYTE   Dn1  v084
 BYTE   W02
 BYTE   Dn1  v116
 BYTE   W02
 BYTE   N06  Dn1  v127
 BYTE   W12
 BYTE   N06
 BYTE   W12
 BYTE   PEND 
//  #10 //025   ----------------------------------------
 BYTE   PATT
  POIN2 Label_01BC517E
//  #10 //026   ----------------------------------------
 BYTE   PATT
  POIN2 Label_01BC519A
//  #10 //027   ----------------------------------------
 BYTE   PATT
  POIN2 Label_01BC51BA
//  #10 //028   ----------------------------------------
 BYTE   W12
 BYTE   N06  Dn1  v127
 BYTE   W06
 BYTE   N06
 BYTE   W06
 BYTE   N06
 BYTE   W24
 BYTE   N06
 BYTE   W12
 BYTE   N06
 BYTE   W24
 BYTE   N06
 BYTE   W06
 BYTE   N03
 BYTE   W03
 BYTE   N03
 BYTE   W03
//  #10 //029   ----------------------------------------
 BYTE   N03
 BYTE   W03
 BYTE   N03
 BYTE   W03
 BYTE   N06
 BYTE   W18
 BYTE   N06
 BYTE   W12
 BYTE   N06
 BYTE   W24
 BYTE   N06
 BYTE   W06
 BYTE   N06
 BYTE   W06
 BYTE   N06
 BYTE   W24
//  #10 //030   ----------------------------------------
 BYTE   N06
 BYTE   W12
 BYTE   N06
 BYTE   W24
 BYTE   N06
 BYTE   W06
 BYTE   N03
 BYTE   W03
 BYTE   N03
 BYTE   W03
 BYTE   N03
 BYTE   W03
 BYTE   N03
 BYTE   W03
 BYTE   N06
 BYTE   W18
 BYTE   N06
 BYTE   W12
 BYTE   N06
 BYTE   W12
//  #10 //031   ----------------------------------------
 BYTE   W96
//  #10 //032   ----------------------------------------
 BYTE   W96
//  #10 //033   ----------------------------------------
 BYTE   W96
//  #10 //034   ----------------------------------------
 BYTE   W96
//  #10 //035   ----------------------------------------
 BYTE   W96
//  #10 //036   ----------------------------------------
 BYTE   W96
//  #10 //037   ----------------------------------------
 BYTE   W96
//  #10 //038   ----------------------------------------
 BYTE   W48
 BYTE   N06
 BYTE   W12
 BYTE   Dn1  v116
 BYTE   W06
 BYTE   Dn1  v096
 BYTE   W06
 BYTE   Dn1  v127
 BYTE   W12
 BYTE   N06
 BYTE   W12
//  #10 //039   ----------------------------------------
 BYTE   PATT
  POIN2 Label_01BC510B
//  #10 //040   ----------------------------------------
 BYTE   PATT
  POIN2 Label_01BC50C7
//  #10 //041   ----------------------------------------
 BYTE   PATT
  POIN2 Label_01BC50EB
//  #10 //042   ----------------------------------------
 BYTE   PATT
  POIN2 Label_01BC510B
//  #10 //043   ----------------------------------------
 BYTE   PATT
  POIN2 Label_01BC50C7
//  #10 //044   ----------------------------------------
 BYTE   N01  Dn1  v127
 BYTE   W01
 BYTE   N06
 BYTE   W17
 BYTE   N02
 BYTE   W02
 BYTE   Dn1  v096
 BYTE   W02
 BYTE   Dn1  v127
 BYTE   W02
 BYTE   N06
 BYTE   W12
 BYTE   N06
 BYTE   W12
 BYTE   GoTo
  POIN2 Label_01BC5142
 BYTE   FINE

//******************************************************//
	ALIGN 4

KHCoMGracefulAssassinAzula:
	BYTE	10	// NumTrks
	BYTE	0	// NumBlks
	BYTE	KHCoMGracefulAssassinAzula_pri	// Priority
	BYTE	KHCoMGracefulAssassinAzula_rev	// Reverb.
    
	POIN2	KHCoMGracefulAssassinAzula_grp
    
	POIN2	KHCoMGracefulAssassinAzula_001
	POIN2	KHCoMGracefulAssassinAzula_002
	POIN2	KHCoMGracefulAssassinAzula_003
	POIN2	KHCoMGracefulAssassinAzula_004
	POIN2	KHCoMGracefulAssassinAzula_005
	POIN2	KHCoMGracefulAssassinAzula_006
	POIN2	KHCoMGracefulAssassinAzula_007
	POIN2	KHCoMGracefulAssassinAzula_008
	POIN2	KHCoMGracefulAssassinAzula_009
	POIN2	KHCoMGracefulAssassinAzula_010

	
