//Event file generated from Sappy .s format.
	#include "MPlayDef.event"

	#define	KHCoMStruggleAwayAzula_grp  voicegroup000
	#define	KHCoMStruggleAwayAzula_pri  0
	#define	KHCoMStruggleAwayAzula_rev  0
	#define	KHCoMStruggleAwayAzula_mvl  127
	#define	KHCoMStruggleAwayAzula_key  0
	#define	KHCoMStruggleAwayAzula_tbs  1
	#define	KHCoMStruggleAwayAzula_exg  0
	#define	KHCoMStruggleAwayAzula_cmp  1

	// .rodata
	//	KHCoMStruggleAwayAzula
	ALIGN 4


//**************** Track 1 (Midi-Chn.0) ****************//

KHCoMStruggleAwayAzula_001:
//  #01 //000   ----------------------------------------
 BYTE   KEYSH   KHCoMStruggleAwayAzula_key+0
 BYTE   TEMPO   180*KHCoMStruggleAwayAzula_tbs/2
 BYTE   VOICE   48
 BYTE   MODT 0
 BYTE   LFOS 44
 BYTE   VOL   58*KHCoMStruggleAwayAzula_mvl/mxv
 BYTE   PAN   c_v+0
 BYTE   W96
//  #01 //001   ----------------------------------------
 BYTE   W96
//  #01 //002   ----------------------------------------
 BYTE   W96
//  #01 //003   ----------------------------------------
Label_0102BB65:
 BYTE   W96
//  #01 //004   ----------------------------------------
 BYTE   W96
//  #01 //005   ----------------------------------------
 BYTE   W96
//  #01 //006   ----------------------------------------
 BYTE   W96
//  #01 //007   ----------------------------------------
 BYTE   W96
//  #01 //008   ----------------------------------------
 BYTE   W96
//  #01 //009   ----------------------------------------
 BYTE   W96
//  #01 //010   ----------------------------------------
 BYTE   W96
//  #01 //011   ----------------------------------------
 BYTE   W96
//  #01 //012   ----------------------------------------
 BYTE   W12
 BYTE   N06  Cn4  v096
 BYTE   W06
 BYTE   N04  Cs4  v060
 BYTE   W06
 BYTE   N12  Cn4
 BYTE   W12
 BYTE   As3
 BYTE   W12
 BYTE   Cn4  v080
 BYTE   W12
 BYTE   N11  Cs4  v072
 BYTE   W12
 BYTE   N12  Ds4  v080
 BYTE   W12
 BYTE   Cs4  v060
 BYTE   W12
//  #01 //013   ----------------------------------------
 BYTE   Cn4  v072
 BYTE   W12
 BYTE   As3  v052
 BYTE   W12
 BYTE   Gs3  v060
 BYTE   W12
 BYTE   Fs3  v048
 BYTE   W24
 BYTE   N06  Cn4  v096
 BYTE   W06
 BYTE   N04  Cs4  v060
 BYTE   W06
 BYTE   N12  Cn4
 BYTE   W12
 BYTE   As3
 BYTE   W12
//  #01 //014   ----------------------------------------
 BYTE   Cn4  v080
 BYTE   W12
 BYTE   N11  Cs4  v072
 BYTE   W12
 BYTE   N12  Cn4  v080
 BYTE   W12
 BYTE   As3  v060
 BYTE   W12
 BYTE   Ds4  v072
 BYTE   W12
 BYTE   Cs4  v052
 BYTE   W12
 BYTE   Cn4  v060
 BYTE   W12
 BYTE   As3  v048
 BYTE   W12
//  #01 //015   ----------------------------------------
 BYTE   W12
 BYTE   N06  Cn4  v096
 BYTE   W06
 BYTE   N04  Cs4  v060
 BYTE   W06
 BYTE   N12  Cn4
 BYTE   W12
 BYTE   As3
 BYTE   W12
 BYTE   Cn4  v080
 BYTE   W12
 BYTE   N11  Cs4  v072
 BYTE   W12
 BYTE   N12  Ds4  v080
 BYTE   W12
 BYTE   Fn4  v060
 BYTE   W12
//  #01 //016   ----------------------------------------
 BYTE   Fs4  v072
 BYTE   W12
 BYTE   Fn4  v052
 BYTE   W12
 BYTE   Ds4  v060
 BYTE   W12
 BYTE   Cn4  v048
 BYTE   W12
 BYTE   TIE  Fn4  v060
 BYTE   W48
//  #01 //017   ----------------------------------------
 BYTE   W96
//  #01 //018   ----------------------------------------
 BYTE   W96
//  #01 //019   ----------------------------------------
 BYTE   W36
 BYTE   EOT
 BYTE   W60
//  #01 //020   ----------------------------------------
 BYTE   W96
//  #01 //021   ----------------------------------------
 BYTE   W96
//  #01 //022   ----------------------------------------
 BYTE   W60
 BYTE   N06  Fn4  v080
 BYTE   W06
 BYTE   N04  Fs4  v048
 BYTE   W06
 BYTE   N12  Fn4
 BYTE   W12
 BYTE   Ds4
 BYTE   W12
//  #01 //023   ----------------------------------------
 BYTE   Fn4  v060
 BYTE   W12
 BYTE   N11  Fs4  v052
 BYTE   W12
 BYTE   N12  Gs4  v060
 BYTE   W12
 BYTE   As4  v048
 BYTE   W12
 BYTE   Bn4  v052
 BYTE   W12
 BYTE   As4  v044
 BYTE   W12
 BYTE   Gs4  v048
 BYTE   W12
 BYTE   Fn4  v032
 BYTE   W12
//  #01 //024   ----------------------------------------
 BYTE   TIE  As4  v048
 BYTE   W96
//  #01 //025   ----------------------------------------
 BYTE   W96
//  #01 //026   ----------------------------------------
 BYTE   W84
 BYTE   EOT
 BYTE   W12
//  #01 //027   ----------------------------------------
 BYTE   W96
//  #01 //028   ----------------------------------------
 BYTE   W96
//  #01 //029   ----------------------------------------
 BYTE   W96
//  #01 //030   ----------------------------------------
 BYTE   W96
//  #01 //031   ----------------------------------------
 BYTE   W96
//  #01 //032   ----------------------------------------
 BYTE   W96
//  #01 //033   ----------------------------------------
 BYTE   W12
 BYTE   N06  As3  v080
 BYTE   W06
 BYTE   N04  Bn3  v048
 BYTE   W06
 BYTE   N12  As3
 BYTE   W12
 BYTE   Gs3
 BYTE   W12
 BYTE   As3  v060
 BYTE   W12
 BYTE   N11  Bn3  v052
 BYTE   W12
 BYTE   N12  Cs4  v060
 BYTE   W12
 BYTE   Bn3  v048
 BYTE   W12
//  #01 //034   ----------------------------------------
 BYTE   As3  v052
 BYTE   W12
 BYTE   Gs3  v044
 BYTE   W12
 BYTE   Fs3  v048
 BYTE   W12
 BYTE   En3  v032
 BYTE   W24
 BYTE   N06  As3  v080
 BYTE   W06
 BYTE   N04  Bn3  v048
 BYTE   W06
 BYTE   N12  As3
 BYTE   W12
 BYTE   Gs3
 BYTE   W12
//  #01 //035   ----------------------------------------
 BYTE   As3  v060
 BYTE   W12
 BYTE   N11  Bn3  v052
 BYTE   W12
 BYTE   N12  As3  v060
 BYTE   W12
 BYTE   Gs3  v048
 BYTE   W12
 BYTE   Cs4  v052
 BYTE   W12
 BYTE   Bn3  v044
 BYTE   W12
 BYTE   As3  v048
 BYTE   W12
 BYTE   Gs3  v032
 BYTE   W12
//  #01 //036   ----------------------------------------
 BYTE   W12
 BYTE   N06  As3  v080
 BYTE   W06
 BYTE   N04  Bn3  v048
 BYTE   W06
 BYTE   N12  As3
 BYTE   W12
 BYTE   Gs3
 BYTE   W12
 BYTE   As3  v060
 BYTE   W12
 BYTE   N11  Bn3  v052
 BYTE   W12
 BYTE   N12  Cs4  v060
 BYTE   W12
 BYTE   Ds4  v048
 BYTE   W12
//  #01 //037   ----------------------------------------
 BYTE   En4  v052
 BYTE   W12
 BYTE   Ds4  v044
 BYTE   W12
 BYTE   Cs4  v048
 BYTE   W12
 BYTE   As3  v032
 BYTE   W12
 BYTE   TIE  Ds4  v048
 BYTE   W48
//  #01 //038   ----------------------------------------
 BYTE   W84
 BYTE   EOT
 BYTE   W12
//  #01 //039   ----------------------------------------
 BYTE   W96
//  #01 //040   ----------------------------------------
 BYTE   W96
//  #01 //041   ----------------------------------------
 BYTE   W96
//  #01 //042   ----------------------------------------
 BYTE   W96
//  #01 //043   ----------------------------------------
 BYTE   W96
//  #01 //044   ----------------------------------------
 BYTE   W96
//  #01 //045   ----------------------------------------
 BYTE   W01
 BYTE   GoTo
  POIN2 Label_0102BB65
 BYTE   FINE

//**************** Track 2 (Midi-Chn.1) ****************//

KHCoMStruggleAwayAzula_002:
//  #02 //000   ----------------------------------------
 BYTE   KEYSH   KHCoMStruggleAwayAzula_key+0
 BYTE   VOICE   38
 BYTE   MODT 0
 BYTE   LFOS 44
 BYTE   VOL   69*KHCoMStruggleAwayAzula_mvl/mxv
 BYTE   PAN   c_v-19
 BYTE   TIE  Fn1  v052
 BYTE   W96
//  #02 //001   ----------------------------------------
 BYTE   W96
//  #02 //002   ----------------------------------------
 BYTE   W96
//  #02 //003   ----------------------------------------
Label_55E672:
 BYTE   W96
//  #02 //004   ----------------------------------------
 BYTE   W96
//  #02 //005   ----------------------------------------
 BYTE   W92
 BYTE   W03
 BYTE   EOT
 BYTE   Fn1
 BYTE   W01
//  #02 //006   ----------------------------------------
 BYTE   W12
 BYTE   N05  Cn4  v096
 BYTE   W06
 BYTE   N03  Cs4  v060
 BYTE   W06
 BYTE   N11  Cn4
 BYTE   W12
 BYTE   As3
 BYTE   W12
 BYTE   Cn4  v080
 BYTE   W12
 BYTE   N10  Cs4  v072
 BYTE   W12
 BYTE   N11  Ds4  v080
 BYTE   W12
 BYTE   Cs4  v060
 BYTE   W12
//  #02 //007   ----------------------------------------
 BYTE   Cn4  v072
 BYTE   W12
 BYTE   As3  v052
 BYTE   W12
 BYTE   Gs3  v060
 BYTE   W12
 BYTE   Fs3  v048
 BYTE   W24
 BYTE   N05  Cn4  v096
 BYTE   W06
 BYTE   N03  Cs4  v060
 BYTE   W06
 BYTE   N11  Cn4
 BYTE   W12
 BYTE   As3
 BYTE   W12
//  #02 //008   ----------------------------------------
 BYTE   Cn4  v080
 BYTE   W12
 BYTE   N10  Cs4  v072
 BYTE   W12
 BYTE   N11  Cn4  v080
 BYTE   W12
 BYTE   As3  v060
 BYTE   W12
 BYTE   Ds4  v072
 BYTE   W12
 BYTE   Cs4  v052
 BYTE   W12
 BYTE   Cn4  v060
 BYTE   W12
 BYTE   As3  v048
 BYTE   W12
//  #02 //009   ----------------------------------------
 BYTE   W12
 BYTE   N05  Cn4  v096
 BYTE   W06
 BYTE   N03  Cs4  v060
 BYTE   W06
 BYTE   N11  Cn4
 BYTE   W12
 BYTE   As3
 BYTE   W12
 BYTE   Cn4  v080
 BYTE   W12
 BYTE   N10  Cs4  v072
 BYTE   W12
 BYTE   N11  Ds4  v080
 BYTE   W12
 BYTE   Fn4  v060
 BYTE   W12
//  #02 //010   ----------------------------------------
 BYTE   Fs4  v072
 BYTE   W12
 BYTE   Fn4  v052
 BYTE   W12
 BYTE   Ds4  v060
 BYTE   W12
 BYTE   Cn4  v048
 BYTE   W12
 BYTE   TIE  Fn4  v060
 BYTE   W48
//  #02 //011   ----------------------------------------
 BYTE   W78
 BYTE   W01
 BYTE   EOT
 BYTE   N01  Ds4
 BYTE   W02
 BYTE   Cs4
 BYTE   W01
 BYTE   Cn4  v052
 BYTE   W02
 BYTE   As3  v048
 BYTE   W01
 BYTE   An3  v044
 BYTE   W02
 BYTE   Fs3
 BYTE   W01
 BYTE   Fn3  v036
 BYTE   W02
 BYTE   Ds3  v032
 BYTE   W01
 BYTE   Cs3  v028
 BYTE   W02
 BYTE   Cn3
 BYTE   W01
 BYTE   As2  v020
 BYTE   W02
//  #02 //012   ----------------------------------------
 BYTE   W96
//  #02 //013   ----------------------------------------
 BYTE   W96
//  #02 //014   ----------------------------------------
 BYTE   W96
//  #02 //015   ----------------------------------------
 BYTE   W96
//  #02 //016   ----------------------------------------
 BYTE   W96
//  #02 //017   ----------------------------------------
 BYTE   W96
//  #02 //018   ----------------------------------------
 BYTE   W96
//  #02 //019   ----------------------------------------
 BYTE   W60
 BYTE   N05  Fn3  v096
 BYTE   W06
 BYTE   N03  Fs3  v060
 BYTE   W06
 BYTE   N11  Fn3
 BYTE   W12
 BYTE   Ds3
 BYTE   W12
//  #02 //020   ----------------------------------------
 BYTE   Fn3  v080
 BYTE   W12
 BYTE   N10  Fs3  v072
 BYTE   W12
 BYTE   N11  Gs3  v080
 BYTE   W12
 BYTE   Fs3  v060
 BYTE   W12
 BYTE   Fn3  v072
 BYTE   W12
 BYTE   Ds3  v052
 BYTE   W12
 BYTE   Cs3  v060
 BYTE   W12
 BYTE   Bn2  v048
 BYTE   W12
//  #02 //021   ----------------------------------------
 BYTE   W12
 BYTE   N05  Fn3  v096
 BYTE   W06
 BYTE   N03  Fs3  v060
 BYTE   W06
 BYTE   N11  Fn3
 BYTE   W12
 BYTE   Ds3
 BYTE   W12
 BYTE   Fn3  v080
 BYTE   W12
 BYTE   N10  Fs3  v072
 BYTE   W12
 BYTE   N11  Fn3  v080
 BYTE   W12
 BYTE   Ds3  v060
 BYTE   W12
//  #02 //022   ----------------------------------------
 BYTE   Gs3  v072
 BYTE   W12
 BYTE   Fs3  v052
 BYTE   W12
 BYTE   Fn3  v060
 BYTE   W12
 BYTE   Ds3  v048
 BYTE   W60
//  #02 //023   ----------------------------------------
 BYTE   W96
//  #02 //024   ----------------------------------------
 BYTE   W96
//  #02 //025   ----------------------------------------
 BYTE   W96
//  #02 //026   ----------------------------------------
 BYTE   W96
//  #02 //027   ----------------------------------------
 BYTE   TIE  Ds1  v060
 BYTE   W96
//  #02 //028   ----------------------------------------
 BYTE   W96
//  #02 //029   ----------------------------------------
 BYTE   W96
//  #02 //030   ----------------------------------------
 BYTE   W96
//  #02 //031   ----------------------------------------
 BYTE   W96
//  #02 //032   ----------------------------------------
 BYTE   W92
 BYTE   W03
 BYTE   EOT
 BYTE   W01
//  #02 //033   ----------------------------------------
 BYTE   W96
//  #02 //034   ----------------------------------------
 BYTE   W96
//  #02 //035   ----------------------------------------
 BYTE   W96
//  #02 //036   ----------------------------------------
 BYTE   W96
//  #02 //037   ----------------------------------------
 BYTE   W96
//  #02 //038   ----------------------------------------
 BYTE   W96
//  #02 //039   ----------------------------------------
 BYTE   TIE  Fn1
 BYTE   W96
//  #02 //040   ----------------------------------------
 BYTE   W96
//  #02 //041   ----------------------------------------
 BYTE   W96
//  #02 //042   ----------------------------------------
 BYTE   W96
//  #02 //043   ----------------------------------------
 BYTE   W96
//  #02 //044   ----------------------------------------
 BYTE   W92
 BYTE   W03
 BYTE   EOT
 BYTE   W01
//  #02 //045   ----------------------------------------
 BYTE   W01
 BYTE   GoTo
  POIN2 Label_55E672
 BYTE   FINE

//**************** Track 3 (Midi-Chn.2) ****************//

KHCoMStruggleAwayAzula_003:
//  #03 //000   ----------------------------------------
 BYTE   KEYSH   KHCoMStruggleAwayAzula_key+0
 BYTE   VOICE   38
 BYTE   MODT 0
 BYTE   LFOS 44
 BYTE   VOL   69*KHCoMStruggleAwayAzula_mvl/mxv
 BYTE   PAN   c_v+19
 BYTE   W96
//  #03 //001   ----------------------------------------
Label_55E3A9:
 BYTE   W48
 BYTE   TIE  Cs2  v080
 BYTE   W48
 BYTE   PEND 
//  #03 //002   ----------------------------------------
 BYTE   W92
 BYTE   W03
 BYTE   EOT
 BYTE   W01
//  #03 //003   ----------------------------------------
Label_55E3B3:
 BYTE   TIE  Cn2  v080
 BYTE   W96
//  #03 //004   ----------------------------------------
 BYTE   W44
 BYTE   W03
 BYTE   EOT
 BYTE   W01
 BYTE   TIE  Fn2
 BYTE   W48
//  #03 //005   ----------------------------------------
 BYTE   W92
 BYTE   W03
 BYTE   EOT
 BYTE   W01
//  #03 //006   ----------------------------------------
 BYTE   W72
 BYTE   N17  As3
 BYTE   W24
//  #03 //007   ----------------------------------------
 BYTE   Fs3  v072
 BYTE   W24
 BYTE   Ds3  v060
 BYTE   W72
//  #03 //008   ----------------------------------------
 BYTE   W24
 BYTE   N11  An3  v080
 BYTE   W12
 BYTE   Fs3  v060
 BYTE   W12
 BYTE   As3  v072
 BYTE   W12
 BYTE   As3  v052
 BYTE   W12
 BYTE   An3  v060
 BYTE   W12
 BYTE   Fs3  v048
 BYTE   W12
//  #03 //009   ----------------------------------------
 BYTE   W12
 BYTE   N05  An3  v096
 BYTE   W06
 BYTE   N03  As3  v060
 BYTE   W06
 BYTE   N11  An3
 BYTE   W12
 BYTE   Fs3
 BYTE   W12
 BYTE   An3  v080
 BYTE   W12
 BYTE   N10  As3  v072
 BYTE   W12
 BYTE   N11  Cn4  v080
 BYTE   W12
 BYTE   Cs4  v060
 BYTE   W12
//  #03 //010   ----------------------------------------
 BYTE   Ds4  v072
 BYTE   W12
 BYTE   Cs4  v052
 BYTE   W12
 BYTE   Cn4  v060
 BYTE   W12
 BYTE   An3  v048
 BYTE   W12
 BYTE   TIE  Cn4  v060
 BYTE   W48
//  #03 //011   ----------------------------------------
 BYTE   W76
 BYTE   W01
 BYTE   EOT
 BYTE   W19
//  #03 //012   ----------------------------------------
Label_55E410:
 BYTE   N68  Fn1  v096
 BYTE   W72
 BYTE   Fs1
 BYTE   W24
 BYTE   PEND 
//  #03 //013   ----------------------------------------
 BYTE   W48
 BYTE   Fn1
 BYTE   W48
//  #03 //014   ----------------------------------------
 BYTE   W24
 BYTE   Ds1
 BYTE   W72
//  #03 //015   ----------------------------------------
 BYTE   PATT
  POIN2 Label_55E410
//  #03 //016   ----------------------------------------
 BYTE   W48
 BYTE   N68  Fn1  v096
 BYTE   W48
//  #03 //017   ----------------------------------------
 BYTE   W24
 BYTE   Ds1
 BYTE   W72
//  #03 //018   ----------------------------------------
 BYTE   Cs1
 BYTE   W72
 BYTE   Cn1
 BYTE   W24
//  #03 //019   ----------------------------------------
 BYTE   W96
//  #03 //020   ----------------------------------------
 BYTE   W24
 BYTE   N17  Ds3  v080
 BYTE   W24
 BYTE   Bn2  v072
 BYTE   W24
 BYTE   Gs2  v060
 BYTE   W24
//  #03 //021   ----------------------------------------
 BYTE   W72
 BYTE   N11  Dn3  v080
 BYTE   W12
 BYTE   Bn2  v060
 BYTE   W12
//  #03 //022   ----------------------------------------
 BYTE   Ds3  v072
 BYTE   W12
 BYTE   Ds3  v052
 BYTE   W12
 BYTE   Dn3  v060
 BYTE   W12
 BYTE   Bn2  v048
 BYTE   W60
//  #03 //023   ----------------------------------------
 BYTE   W96
//  #03 //024   ----------------------------------------
 BYTE   W96
//  #03 //025   ----------------------------------------
 BYTE   W96
//  #03 //026   ----------------------------------------
 BYTE   W96
//  #03 //027   ----------------------------------------
 BYTE   W96
//  #03 //028   ----------------------------------------
 BYTE   W48
 BYTE   TIE  Bn1  v080
 BYTE   W48
//  #03 //029   ----------------------------------------
 BYTE   W92
 BYTE   W03
 BYTE   EOT
 BYTE   W01
//  #03 //030   ----------------------------------------
 BYTE   TIE  Cs2
 BYTE   W96
//  #03 //031   ----------------------------------------
 BYTE   W44
 BYTE   W03
 BYTE   EOT
 BYTE   W01
 BYTE   TIE  As2
 BYTE   W48
//  #03 //032   ----------------------------------------
 BYTE   W92
 BYTE   W03
 BYTE   EOT
 BYTE   W01
//  #03 //033   ----------------------------------------
 BYTE   W96
//  #03 //034   ----------------------------------------
 BYTE   W96
//  #03 //035   ----------------------------------------
 BYTE   W96
//  #03 //036   ----------------------------------------
 BYTE   W96
//  #03 //037   ----------------------------------------
 BYTE   W96
//  #03 //038   ----------------------------------------
 BYTE   W96
//  #03 //039   ----------------------------------------
 BYTE   W96
//  #03 //040   ----------------------------------------
 BYTE   PATT
  POIN2 Label_55E3A9
//  #03 //041   ----------------------------------------
 BYTE   W92
 BYTE   W03
 BYTE   EOT
 BYTE   Cs2
 BYTE   W01
//  #03 //042   ----------------------------------------
 BYTE   TIE  Ds2  v080
 BYTE   W96
//  #03 //043   ----------------------------------------
 BYTE   W44
 BYTE   W03
 BYTE   EOT
 BYTE   W01
 BYTE   TIE  Cn3
 BYTE   W48
//  #03 //044   ----------------------------------------
 BYTE   W92
 BYTE   W03
 BYTE   EOT
 BYTE   W01
//  #03 //045   ----------------------------------------
 BYTE   W01
 BYTE   GoTo
  POIN2 Label_55E3B3
 BYTE   FINE

//**************** Track 4 (Midi-Chn.3) ****************//

KHCoMStruggleAwayAzula_004:
//  #04 //000   ----------------------------------------
 BYTE   KEYSH   KHCoMStruggleAwayAzula_key+0
 BYTE   VOICE   34
 BYTE   MODT 0
 BYTE   LFOS 44
 BYTE   VOL   69*KHCoMStruggleAwayAzula_mvl/mxv
 BYTE   PAN   c_v+0
 BYTE   N24  Fn2  v036
 BYTE   W36
 BYTE   Fn2  v072
 BYTE   W36
 BYTE   Fs2  v080
 BYTE   W24
//  #04 //001   ----------------------------------------
Label_0102B36A:
 BYTE   N24  Ds2  v080
 BYTE   W24
 BYTE   Fs2
 BYTE   W24
 BYTE   Fn2
 BYTE   W36
 BYTE   N24
 BYTE   W12
 BYTE   PEND 
//  #04 //002   ----------------------------------------
Label_0102B375:
 BYTE   W24
 BYTE   N24  Ds2  v080
 BYTE   W24
 BYTE   As1
 BYTE   W24
 BYTE   Ds2
 BYTE   W24
 BYTE   PEND 
//  #04 //003   ----------------------------------------
Label_0102B37F:
 BYTE   N24  Fn2  v080
 BYTE   W36
 BYTE   N24
 BYTE   W36
 BYTE   Fs2
 BYTE   W24
 BYTE   PEND 
//  #04 //004   ----------------------------------------
 BYTE   PATT
  POIN2 Label_0102B36A
//  #04 //005   ----------------------------------------
 BYTE   PATT
  POIN2 Label_0102B375
//  #04 //006   ----------------------------------------
 BYTE   PATT
  POIN2 Label_0102B37F
//  #04 //007   ----------------------------------------
 BYTE   PATT
  POIN2 Label_0102B36A
//  #04 //008   ----------------------------------------
 BYTE   PATT
  POIN2 Label_0102B375
//  #04 //009   ----------------------------------------
 BYTE   PATT
  POIN2 Label_0102B37F
//  #04 //010   ----------------------------------------
 BYTE   PATT
  POIN2 Label_0102B36A
//  #04 //011   ----------------------------------------
 BYTE   PATT
  POIN2 Label_0102B375
//  #04 //012   ----------------------------------------
 BYTE   PATT
  POIN2 Label_0102B37F
//  #04 //013   ----------------------------------------
 BYTE   PATT
  POIN2 Label_0102B36A
//  #04 //014   ----------------------------------------
 BYTE   PATT
  POIN2 Label_0102B375
//  #04 //015   ----------------------------------------
 BYTE   PATT
  POIN2 Label_0102B37F
//  #04 //016   ----------------------------------------
 BYTE   PATT
  POIN2 Label_0102B36A
//  #04 //017   ----------------------------------------
 BYTE   PATT
  POIN2 Label_0102B375
//  #04 //018   ----------------------------------------
 BYTE   N24  Cs2  v080
 BYTE   W36
 BYTE   N24
 BYTE   W36
 BYTE   Cn2
 BYTE   W24
//  #04 //019   ----------------------------------------
 BYTE   Fn2
 BYTE   W24
 BYTE   Cn2
 BYTE   W24
 BYTE   As2
 BYTE   W36
 BYTE   N24
 BYTE   W12
//  #04 //020   ----------------------------------------
Label_0102B3DE:
 BYTE   W24
 BYTE   N24  Bn2  v080
 BYTE   W24
 BYTE   Gs2
 BYTE   W24
 BYTE   Bn2
 BYTE   W24
 BYTE   PEND 
//  #04 //021   ----------------------------------------
Label_0102B3E8:
 BYTE   N24  As2  v080
 BYTE   W36
 BYTE   N24
 BYTE   W36
 BYTE   Gs2
 BYTE   W24
 BYTE   PEND 
//  #04 //022   ----------------------------------------
 BYTE   Ds2
 BYTE   W24
 BYTE   Gs2
 BYTE   W24
 BYTE   As2
 BYTE   W36
 BYTE   N24
 BYTE   W12
//  #04 //023   ----------------------------------------
 BYTE   PATT
  POIN2 Label_0102B3DE
//  #04 //024   ----------------------------------------
 BYTE   PATT
  POIN2 Label_0102B3E8
//  #04 //025   ----------------------------------------
 BYTE   N24  Ds2  v080
 BYTE   W24
 BYTE   Gs2
 BYTE   W24
 BYTE   Fs2
 BYTE   W36
 BYTE   N24
 BYTE   W12
//  #04 //026   ----------------------------------------
 BYTE   W24
 BYTE   Fn2
 BYTE   W24
 BYTE   As2
 BYTE   W24
 BYTE   Fn2
 BYTE   W24
//  #04 //027   ----------------------------------------
Label_0102B414:
 BYTE   N24  Ds2  v080
 BYTE   W36
 BYTE   N24
 BYTE   W36
 BYTE   En2
 BYTE   W24
 BYTE   PEND 
//  #04 //028   ----------------------------------------
Label_0102B41D:
 BYTE   N24  Cs2  v080
 BYTE   W24
 BYTE   En2
 BYTE   W24
 BYTE   Ds2
 BYTE   W36
 BYTE   N24
 BYTE   W12
 BYTE   PEND 
//  #04 //029   ----------------------------------------
Label_0102B428:
 BYTE   W24
 BYTE   N24  Cs2  v080
 BYTE   W24
 BYTE   Gs2
 BYTE   W24
 BYTE   Cs2
 BYTE   W24
 BYTE   PEND 
//  #04 //030   ----------------------------------------
 BYTE   PATT
  POIN2 Label_0102B414
//  #04 //031   ----------------------------------------
 BYTE   PATT
  POIN2 Label_0102B41D
//  #04 //032   ----------------------------------------
 BYTE   PATT
  POIN2 Label_0102B428
//  #04 //033   ----------------------------------------
 BYTE   PATT
  POIN2 Label_0102B414
//  #04 //034   ----------------------------------------
 BYTE   PATT
  POIN2 Label_0102B41D
//  #04 //035   ----------------------------------------
 BYTE   PATT
  POIN2 Label_0102B428
//  #04 //036   ----------------------------------------
 BYTE   PATT
  POIN2 Label_0102B414
//  #04 //037   ----------------------------------------
 BYTE   PATT
  POIN2 Label_0102B41D
//  #04 //038   ----------------------------------------
 BYTE   PATT
  POIN2 Label_0102B428
//  #04 //039   ----------------------------------------
 BYTE   PATT
  POIN2 Label_0102B37F
//  #04 //040   ----------------------------------------
 BYTE   PATT
  POIN2 Label_0102B36A
//  #04 //041   ----------------------------------------
Label_0102B469:
 BYTE   W24
 BYTE   N24  Ds2  v080
 BYTE   W24
 BYTE   As2
 BYTE   W24
 BYTE   Ds2
 BYTE   W24
 BYTE   PEND 
//  #04 //042   ----------------------------------------
 BYTE   PATT
  POIN2 Label_0102B37F
//  #04 //043   ----------------------------------------
 BYTE   PATT
  POIN2 Label_0102B36A
//  #04 //044   ----------------------------------------
 BYTE   PATT
  POIN2 Label_0102B469
//  #04 //045   ----------------------------------------
 BYTE   W01
 BYTE   GoTo
  POIN2 Label_0102B37F
 BYTE   FINE

//**************** Track 5 (Midi-Chn.4) ****************//

KHCoMStruggleAwayAzula_005:
//  #05 //000   ----------------------------------------
 BYTE   KEYSH   KHCoMStruggleAwayAzula_key+0
 BYTE   VOICE   65
 BYTE   MODT 0
 BYTE   LFOS 44
 BYTE   VOL   43*KHCoMStruggleAwayAzula_mvl/mxv
 BYTE   PAN   c_v+6
 BYTE   W96
//  #05 //001   ----------------------------------------
 BYTE   W96
//  #05 //002   ----------------------------------------
 BYTE   W96
//  #05 //003   ----------------------------------------
Label_0102B6AF:
 BYTE   W96
//  #05 //004   ----------------------------------------
 BYTE   W96
//  #05 //005   ----------------------------------------
 BYTE   W96
//  #05 //006   ----------------------------------------
 BYTE   W96
//  #05 //007   ----------------------------------------
 BYTE   W96
//  #05 //008   ----------------------------------------
 BYTE   W96
//  #05 //009   ----------------------------------------
 BYTE   W96
//  #05 //010   ----------------------------------------
 BYTE   W96
//  #05 //011   ----------------------------------------
 BYTE   W96
//  #05 //012   ----------------------------------------
 BYTE   W96
//  #05 //013   ----------------------------------------
 BYTE   W96
//  #05 //014   ----------------------------------------
 BYTE   W96
//  #05 //015   ----------------------------------------
 BYTE   W96
//  #05 //016   ----------------------------------------
 BYTE   W96
//  #05 //017   ----------------------------------------
 BYTE   W96
//  #05 //018   ----------------------------------------
 BYTE   W96
//  #05 //019   ----------------------------------------
 BYTE   W96
//  #05 //020   ----------------------------------------
 BYTE   W96
//  #05 //021   ----------------------------------------
 BYTE   W96
//  #05 //022   ----------------------------------------
 BYTE   W60
 BYTE   N06  Dn4  v048
 BYTE   W06
 BYTE   N04  Ds4  v020
 BYTE   W06
 BYTE   N12  Dn4
 BYTE   W12
 BYTE   Bn3
 BYTE   W12
//  #05 //023   ----------------------------------------
 BYTE   Dn4  v032
 BYTE   W12
 BYTE   N11  Ds4  v028
 BYTE   W12
 BYTE   N12  Fn4  v032
 BYTE   W12
 BYTE   Fs4  v020
 BYTE   W12
 BYTE   Gs4  v028
 BYTE   W12
 BYTE   Fs4  v016
 BYTE   W12
 BYTE   Fn4  v020
 BYTE   W12
 BYTE   Dn4  v012
 BYTE   W12
//  #05 //024   ----------------------------------------
 BYTE   TIE  Fn4  v020
 BYTE   W96
//  #05 //025   ----------------------------------------
 BYTE   W48
 BYTE   EOT
 BYTE   N72  Fs4
 BYTE   W48
//  #05 //026   ----------------------------------------
 BYTE   W24
 BYTE   N60  Fn4
 BYTE   W72
//  #05 //027   ----------------------------------------
 BYTE   W96
//  #05 //028   ----------------------------------------
 BYTE   W96
//  #05 //029   ----------------------------------------
 BYTE   W96
//  #05 //030   ----------------------------------------
 BYTE   W96
//  #05 //031   ----------------------------------------
 BYTE   W96
//  #05 //032   ----------------------------------------
 BYTE   W96
//  #05 //033   ----------------------------------------
 BYTE   W72
 BYTE   N18  Gs3  v032
 BYTE   W24
//  #05 //034   ----------------------------------------
 BYTE   En3  v028
 BYTE   W24
 BYTE   Cs3  v020
 BYTE   W36
 BYTE   N06  Gn3  v048
 BYTE   W06
 BYTE   N04  Gs3  v020
 BYTE   W06
 BYTE   N12  Gn3
 BYTE   W12
 BYTE   En3
 BYTE   W12
//  #05 //035   ----------------------------------------
 BYTE   Gn3  v032
 BYTE   W12
 BYTE   N11  Gs3  v028
 BYTE   W12
 BYTE   N12  Gn3  v032
 BYTE   W12
 BYTE   En3  v020
 BYTE   W12
 BYTE   Gs3  v028
 BYTE   W12
 BYTE   Gs3  v016
 BYTE   W12
 BYTE   Gn3  v020
 BYTE   W12
 BYTE   En3  v012
 BYTE   W12
//  #05 //036   ----------------------------------------
 BYTE   W12
 BYTE   N06  Gn3  v048
 BYTE   W06
 BYTE   N04  Gs3  v020
 BYTE   W06
 BYTE   N12  Gn3
 BYTE   W12
 BYTE   En3
 BYTE   W12
 BYTE   Gn3  v032
 BYTE   W12
 BYTE   N11  Gs3  v028
 BYTE   W12
 BYTE   N12  As3  v032
 BYTE   W12
 BYTE   Bn3  v020
 BYTE   W12
//  #05 //037   ----------------------------------------
 BYTE   Cs4  v028
 BYTE   W12
 BYTE   Bn3  v016
 BYTE   W12
 BYTE   As3  v020
 BYTE   W12
 BYTE   Gn3  v012
 BYTE   W12
 BYTE   TIE  As3  v020
 BYTE   W48
//  #05 //038   ----------------------------------------
 BYTE   W84
 BYTE   EOT
 BYTE   W12
//  #05 //039   ----------------------------------------
 BYTE   W96
//  #05 //040   ----------------------------------------
 BYTE   W96
//  #05 //041   ----------------------------------------
 BYTE   W96
//  #05 //042   ----------------------------------------
 BYTE   W96
//  #05 //043   ----------------------------------------
 BYTE   W96
//  #05 //044   ----------------------------------------
 BYTE   W96
//  #05 //045   ----------------------------------------
 BYTE   W01
 BYTE   GoTo
  POIN2 Label_0102B6AF
 BYTE   FINE

//**************** Track 6 (Midi-Chn.5) ****************//

KHCoMStruggleAwayAzula_006:
//  #06 //000   ----------------------------------------
 BYTE   KEYSH   KHCoMStruggleAwayAzula_key+0
 BYTE   VOICE   30
 BYTE   MODT 0
 BYTE   LFOS 44
 BYTE   VOL   50*KHCoMStruggleAwayAzula_mvl/mxv
 BYTE   PAN   c_v+0
 BYTE   W96
//  #06 //001   ----------------------------------------
 BYTE   W96
//  #06 //002   ----------------------------------------
 BYTE   W96
//  #06 //003   ----------------------------------------
Label_0102B56B:
 BYTE   N68  Fn2  v072
 BYTE   N68  Cn3
 BYTE   W72
 BYTE   N11  Fs2  v080
 BYTE   N11  Cs3
 BYTE   W24
 BYTE   PEND 
//  #06 //004   ----------------------------------------
Label_0102B578:
 BYTE   N11  Fs2  v080
 BYTE   N11  Cs3
 BYTE   W24
 BYTE   Fs2
 BYTE   N11  Cs3
 BYTE   W24
 BYTE   N06  Fn2
 BYTE   N06  Cn3
 BYTE   W12
 BYTE   N56  Fn2  v072
 BYTE   N56  Cn3
 BYTE   W36
 BYTE   PEND 
//  #06 //005   ----------------------------------------
Label_0102B58E:
 BYTE   W24
 BYTE   N11  Ds2  v080
 BYTE   N11  As2
 BYTE   W24
 BYTE   Ds2
 BYTE   N11  As2
 BYTE   W24
 BYTE   Ds2
 BYTE   N11  As2
 BYTE   W24
 BYTE   PEND 
//  #06 //006   ----------------------------------------
 BYTE   PATT
  POIN2 Label_0102B56B
//  #06 //007   ----------------------------------------
 BYTE   PATT
  POIN2 Label_0102B578
//  #06 //008   ----------------------------------------
 BYTE   PATT
  POIN2 Label_0102B58E
//  #06 //009   ----------------------------------------
 BYTE   PATT
  POIN2 Label_0102B56B
//  #06 //010   ----------------------------------------
 BYTE   PATT
  POIN2 Label_0102B578
//  #06 //011   ----------------------------------------
 BYTE   PATT
  POIN2 Label_0102B58E
//  #06 //012   ----------------------------------------
 BYTE   PATT
  POIN2 Label_0102B56B
//  #06 //013   ----------------------------------------
 BYTE   PATT
  POIN2 Label_0102B578
//  #06 //014   ----------------------------------------
 BYTE   PATT
  POIN2 Label_0102B58E
//  #06 //015   ----------------------------------------
 BYTE   PATT
  POIN2 Label_0102B56B
//  #06 //016   ----------------------------------------
 BYTE   PATT
  POIN2 Label_0102B578
//  #06 //017   ----------------------------------------
 BYTE   PATT
  POIN2 Label_0102B58E
//  #06 //018   ----------------------------------------
 BYTE   N06  Cs2  v080
 BYTE   N06  Gs2
 BYTE   W12
 BYTE   N56  Cs2  v072
 BYTE   N56  Gs2
 BYTE   W60
 BYTE   N11  Fn2  v080
 BYTE   N11  Cn3
 BYTE   W24
//  #06 //019   ----------------------------------------
 BYTE   Fn2
 BYTE   N11  Cn3
 BYTE   W24
 BYTE   Fn2
 BYTE   N11  Cn3
 BYTE   W24
 BYTE   N68  As1  v072
 BYTE   N68  Fn2
 BYTE   W48
//  #06 //020   ----------------------------------------
Label_0102B5FA:
 BYTE   W24
 BYTE   N11  Bn1  v080
 BYTE   N11  Fs2
 BYTE   W24
 BYTE   Bn1
 BYTE   N11  Fs2
 BYTE   W24
 BYTE   Bn1
 BYTE   N11  Fs2
 BYTE   W24
 BYTE   PEND 
//  #06 //021   ----------------------------------------
Label_0102B60A:
 BYTE   N06  As1  v080
 BYTE   N06  Fn2
 BYTE   W12
 BYTE   N56  As1  v072
 BYTE   N56  Fn2
 BYTE   W60
 BYTE   N11  Gs1  v080
 BYTE   N11  Ds2
 BYTE   W24
 BYTE   PEND 
//  #06 //022   ----------------------------------------
 BYTE   Gs1
 BYTE   N11  Ds2
 BYTE   W24
 BYTE   Gs1
 BYTE   N11  Ds2
 BYTE   W24
 BYTE   N68  As1  v072
 BYTE   N68  Fn2
 BYTE   W48
//  #06 //023   ----------------------------------------
 BYTE   PATT
  POIN2 Label_0102B5FA
//  #06 //024   ----------------------------------------
 BYTE   PATT
  POIN2 Label_0102B60A
//  #06 //025   ----------------------------------------
 BYTE   N11  Gs1  v080
 BYTE   N11  Ds2
 BYTE   W24
 BYTE   Gs1
 BYTE   N11  Ds2
 BYTE   W24
 BYTE   N06  Fs1
 BYTE   N06  Cs2
 BYTE   W12
 BYTE   N56  Fs1  v072
 BYTE   N56  Cs2
 BYTE   W36
//  #06 //026   ----------------------------------------
 BYTE   W24
 BYTE   N11  As1  v080
 BYTE   N11  Fn2
 BYTE   W24
 BYTE   As1
 BYTE   N11  Fn2
 BYTE   W24
 BYTE   As1
 BYTE   N11  Fn2
 BYTE   W24
//  #06 //027   ----------------------------------------
 BYTE   W96
//  #06 //028   ----------------------------------------
 BYTE   W96
//  #06 //029   ----------------------------------------
 BYTE   W96
//  #06 //030   ----------------------------------------
 BYTE   N68  Ds2  v072
 BYTE   N68  As2
 BYTE   W72
 BYTE   N11  En2  v080
 BYTE   N11  Bn2
 BYTE   W24
//  #06 //031   ----------------------------------------
 BYTE   En2
 BYTE   N11  Bn2
 BYTE   W24
 BYTE   En2
 BYTE   N11  Bn2
 BYTE   W24
 BYTE   N06  Ds2
 BYTE   N06  As2
 BYTE   W12
 BYTE   N56  Ds2  v072
 BYTE   N56  As2
 BYTE   W36
//  #06 //032   ----------------------------------------
 BYTE   W24
 BYTE   N11  Cs2  v080
 BYTE   N11  Gs2
 BYTE   W24
 BYTE   Cs2
 BYTE   N11  Gs2
 BYTE   W24
 BYTE   Cs2
 BYTE   N11  Gs2
 BYTE   W24
//  #06 //033   ----------------------------------------
 BYTE   W96
//  #06 //034   ----------------------------------------
 BYTE   W96
//  #06 //035   ----------------------------------------
 BYTE   W96
//  #06 //036   ----------------------------------------
 BYTE   W96
//  #06 //037   ----------------------------------------
 BYTE   W96
//  #06 //038   ----------------------------------------
 BYTE   W96
//  #06 //039   ----------------------------------------
 BYTE   W96
//  #06 //040   ----------------------------------------
 BYTE   W96
//  #06 //041   ----------------------------------------
 BYTE   W96
//  #06 //042   ----------------------------------------
 BYTE   W96
//  #06 //043   ----------------------------------------
 BYTE   W96
//  #06 //044   ----------------------------------------
 BYTE   W96
//  #06 //045   ----------------------------------------
 BYTE   W01
 BYTE   GoTo
  POIN2 Label_0102B56B
 BYTE   FINE

//**************** Track 7 (Midi-Chn.6) ****************//

KHCoMStruggleAwayAzula_007:
//  #07 //000   ----------------------------------------
 BYTE   KEYSH   KHCoMStruggleAwayAzula_key+0
 BYTE   VOICE   47
 BYTE   MODT 0
 BYTE   LFOS 44
 BYTE   VOL   69*KHCoMStruggleAwayAzula_mvl/mxv
 BYTE   PAN   c_v+0
 BYTE   N09  Fn2  v032
 BYTE   W36
 BYTE   Fn2  v052
 BYTE   W36
 BYTE   Fs2  v060
 BYTE   W24
//  #07 //001   ----------------------------------------
 BYTE   Ds2  v064
 BYTE   W24
 BYTE   Fs2  v072
 BYTE   W24
 BYTE   Fn2  v080
 BYTE   W36
 BYTE   N09
 BYTE   W12
//  #07 //002   ----------------------------------------
Label_0102B7FD:
 BYTE   W24
 BYTE   N09  Ds2  v080
 BYTE   W24
 BYTE   As2
 BYTE   W24
 BYTE   Ds2
 BYTE   W24
 BYTE   PEND 
//  #07 //003   ----------------------------------------
Label_0102B807:
 BYTE   N09  Fn2  v080
 BYTE   W36
 BYTE   N09
 BYTE   W36
 BYTE   Fs2
 BYTE   W24
 BYTE   PEND 
//  #07 //004   ----------------------------------------
Label_0102B810:
 BYTE   N09  Ds2  v080
 BYTE   W24
 BYTE   Fs2
 BYTE   W24
 BYTE   Fn2
 BYTE   W36
 BYTE   N09
 BYTE   W12
 BYTE   PEND 
//  #07 //005   ----------------------------------------
 BYTE   PATT
  POIN2 Label_0102B7FD
//  #07 //006   ----------------------------------------
 BYTE   PATT
  POIN2 Label_0102B807
//  #07 //007   ----------------------------------------
 BYTE   PATT
  POIN2 Label_0102B810
//  #07 //008   ----------------------------------------
 BYTE   PATT
  POIN2 Label_0102B7FD
//  #07 //009   ----------------------------------------
 BYTE   PATT
  POIN2 Label_0102B807
//  #07 //010   ----------------------------------------
 BYTE   PATT
  POIN2 Label_0102B810
//  #07 //011   ----------------------------------------
 BYTE   PATT
  POIN2 Label_0102B7FD
//  #07 //012   ----------------------------------------
 BYTE   PATT
  POIN2 Label_0102B807
//  #07 //013   ----------------------------------------
 BYTE   PATT
  POIN2 Label_0102B810
//  #07 //014   ----------------------------------------
 BYTE   PATT
  POIN2 Label_0102B7FD
//  #07 //015   ----------------------------------------
 BYTE   PATT
  POIN2 Label_0102B807
//  #07 //016   ----------------------------------------
 BYTE   PATT
  POIN2 Label_0102B810
//  #07 //017   ----------------------------------------
 BYTE   PATT
  POIN2 Label_0102B7FD
//  #07 //018   ----------------------------------------
 BYTE   N09  Cs2  v080
 BYTE   W36
 BYTE   N09
 BYTE   W36
 BYTE   Cn2
 BYTE   W24
//  #07 //019   ----------------------------------------
 BYTE   Fn2
 BYTE   W24
 BYTE   Cn2
 BYTE   W24
 BYTE   As2
 BYTE   W36
 BYTE   N09
 BYTE   W12
//  #07 //020   ----------------------------------------
Label_0102B86C:
 BYTE   W24
 BYTE   N09  Bn2  v080
 BYTE   W24
 BYTE   Gs2
 BYTE   W24
 BYTE   Bn2
 BYTE   W24
 BYTE   PEND 
//  #07 //021   ----------------------------------------
Label_0102B876:
 BYTE   N09  As2  v080
 BYTE   W36
 BYTE   N09
 BYTE   W36
 BYTE   Gs2
 BYTE   W24
 BYTE   PEND 
//  #07 //022   ----------------------------------------
 BYTE   Ds2
 BYTE   W24
 BYTE   Gs2
 BYTE   W24
 BYTE   As2
 BYTE   W36
 BYTE   N09
 BYTE   W12
//  #07 //023   ----------------------------------------
 BYTE   PATT
  POIN2 Label_0102B86C
//  #07 //024   ----------------------------------------
 BYTE   PATT
  POIN2 Label_0102B876
//  #07 //025   ----------------------------------------
 BYTE   N09  Ds2  v080
 BYTE   W24
 BYTE   Gs2
 BYTE   W24
 BYTE   Fs2
 BYTE   W36
 BYTE   N09
 BYTE   W12
//  #07 //026   ----------------------------------------
 BYTE   W24
 BYTE   Fn2
 BYTE   W24
 BYTE   As2
 BYTE   W24
 BYTE   Fn2
 BYTE   W24
//  #07 //027   ----------------------------------------
Label_0102B8A2:
 BYTE   N09  Ds2  v080
 BYTE   W36
 BYTE   N09
 BYTE   W36
 BYTE   En2
 BYTE   W24
 BYTE   PEND 
//  #07 //028   ----------------------------------------
Label_0102B8AB:
 BYTE   N09  Cs2  v080
 BYTE   W24
 BYTE   En2
 BYTE   W24
 BYTE   Ds2
 BYTE   W36
 BYTE   N09
 BYTE   W12
 BYTE   PEND 
//  #07 //029   ----------------------------------------
Label_0102B8B6:
 BYTE   W24
 BYTE   N09  Cs2  v080
 BYTE   W24
 BYTE   Gs2
 BYTE   W24
 BYTE   Cs2
 BYTE   W24
 BYTE   PEND 
//  #07 //030   ----------------------------------------
 BYTE   PATT
  POIN2 Label_0102B8A2
//  #07 //031   ----------------------------------------
 BYTE   PATT
  POIN2 Label_0102B8AB
//  #07 //032   ----------------------------------------
 BYTE   PATT
  POIN2 Label_0102B8B6
//  #07 //033   ----------------------------------------
 BYTE   PATT
  POIN2 Label_0102B8A2
//  #07 //034   ----------------------------------------
 BYTE   PATT
  POIN2 Label_0102B8AB
//  #07 //035   ----------------------------------------
 BYTE   PATT
  POIN2 Label_0102B8B6
//  #07 //036   ----------------------------------------
 BYTE   PATT
  POIN2 Label_0102B8A2
//  #07 //037   ----------------------------------------
 BYTE   PATT
  POIN2 Label_0102B8AB
//  #07 //038   ----------------------------------------
 BYTE   PATT
  POIN2 Label_0102B8B6
//  #07 //039   ----------------------------------------
 BYTE   PATT
  POIN2 Label_0102B807
//  #07 //040   ----------------------------------------
 BYTE   PATT
  POIN2 Label_0102B810
//  #07 //041   ----------------------------------------
 BYTE   PATT
  POIN2 Label_0102B7FD
//  #07 //042   ----------------------------------------
 BYTE   PATT
  POIN2 Label_0102B807
//  #07 //043   ----------------------------------------
 BYTE   PATT
  POIN2 Label_0102B810
//  #07 //044   ----------------------------------------
 BYTE   PATT
  POIN2 Label_0102B7FD
//  #07 //045   ----------------------------------------
 BYTE   W01
 BYTE   GoTo
  POIN2 Label_0102B807
 BYTE   FINE

//**************** Track 8 (Midi-Chn.7) ****************//

KHCoMStruggleAwayAzula_008:
//  #08 //000   ----------------------------------------
 BYTE   KEYSH   KHCoMStruggleAwayAzula_key+0
 BYTE   VOICE   127
 BYTE   MODT 0
 BYTE   LFOS 44
 BYTE   VOL   57*KHCoMStruggleAwayAzula_mvl/mxv
 BYTE   PAN   c_v+0
 BYTE   W96
//  #08 //001   ----------------------------------------
 BYTE   W96
//  #08 //002   ----------------------------------------
 BYTE   W90
 BYTE   N03  Dn1  v032
 BYTE   W03
 BYTE   Dn1  v036
 BYTE   W03
//  #08 //003   ----------------------------------------
Label_0102BF12:
 BYTE   N04  Dn1  v060
 BYTE   W12
 BYTE   Dn1  v036
 BYTE   W06
 BYTE   N04
 BYTE   W06
 BYTE   Dn1  v052
 BYTE   W12
 BYTE   Dn1  v060
 BYTE   W30
 BYTE   N03  Dn1  v032
 BYTE   W03
 BYTE   Dn1  v036
 BYTE   W03
 BYTE   N04  Dn1  v060
 BYTE   W12
 BYTE   Dn1  v036
 BYTE   W06
 BYTE   Dn1  v052
 BYTE   W06
 BYTE   PEND 
//  #08 //004   ----------------------------------------
Label_0102BF33:
 BYTE   N04  Dn1  v056
 BYTE   W06
 BYTE   Dn1  v036
 BYTE   W06
 BYTE   Dn1  v052
 BYTE   W06
 BYTE   Dn1  v036
 BYTE   W06
 BYTE   Dn1  v052
 BYTE   W06
 BYTE   Dn1  v032
 BYTE   W06
 BYTE   Dn1  v048
 BYTE   W06
 BYTE   Dn1  v060
 BYTE   W06
 BYTE   Dn1  v072
 BYTE   W12
 BYTE   Dn1  v036
 BYTE   W06
 BYTE   N04
 BYTE   W06
 BYTE   Dn1  v052
 BYTE   W12
 BYTE   Dn1  v060
 BYTE   W12
 BYTE   PEND 
//  #08 //005   ----------------------------------------
Label_0102BF5B:
 BYTE   W18
 BYTE   N03  Dn1  v032
 BYTE   W03
 BYTE   Dn1  v036
 BYTE   W03
 BYTE   N04  Dn1  v060
 BYTE   W12
 BYTE   Dn1  v036
 BYTE   W06
 BYTE   Dn1  v052
 BYTE   W06
 BYTE   Dn1  v056
 BYTE   W06
 BYTE   Dn1  v036
 BYTE   W06
 BYTE   Dn1  v052
 BYTE   W06
 BYTE   Dn1  v036
 BYTE   W06
 BYTE   Dn1  v052
 BYTE   W06
 BYTE   Dn1  v032
 BYTE   W06
 BYTE   Dn1  v048
 BYTE   W06
 BYTE   N02  Dn1  v060
 BYTE   W02
 BYTE   Dn1  v036
 BYTE   W02
 BYTE   Dn1  v052
 BYTE   W02
 BYTE   PEND 
//  #08 //006   ----------------------------------------
Label_0102BF8D:
 BYTE   N04  Dn1  v060
 BYTE   W12
 BYTE   Dn1  v036
 BYTE   W06
 BYTE   N04
 BYTE   W06
 BYTE   Dn1  v052
 BYTE   W12
 BYTE   Dn1  v060
 BYTE   W06
 BYTE   N03  Dn1  v032
 BYTE   W03
 BYTE   N03
 BYTE   W03
 BYTE   N04  Dn1  v036
 BYTE   W06
 BYTE   N04
 BYTE   W06
 BYTE   Dn1  v052
 BYTE   W12
 BYTE   Dn1  v060
 BYTE   W12
 BYTE   Dn1  v036
 BYTE   W06
 BYTE   Dn1  v052
 BYTE   W06
 BYTE   PEND 
//  #08 //007   ----------------------------------------
Label_0102BFB5:
 BYTE   N04  Dn1  v060
 BYTE   W06
 BYTE   Dn1  v036
 BYTE   W06
 BYTE   N04
 BYTE   W06
 BYTE   Dn1  v052
 BYTE   W06
 BYTE   Dn1  v060
 BYTE   W12
 BYTE   Dn1  v036
 BYTE   W06
 BYTE   N02  Dn1  v032
 BYTE   W02
 BYTE   Dn1  v036
 BYTE   W02
 BYTE   Dn1  v052
 BYTE   W02
 BYTE   N04  Dn1  v060
 BYTE   W12
 BYTE   Dn1  v036
 BYTE   W06
 BYTE   N04
 BYTE   W06
 BYTE   Dn1  v052
 BYTE   W12
 BYTE   Dn1  v060
 BYTE   W06
 BYTE   N03  Dn1  v032
 BYTE   W03
 BYTE   N03
 BYTE   W03
 BYTE   PEND 
//  #08 //008   ----------------------------------------
Label_0102BFE7:
 BYTE   N04  Dn1  v036
 BYTE   W06
 BYTE   N04
 BYTE   W06
 BYTE   Dn1  v052
 BYTE   W12
 BYTE   Dn1  v060
 BYTE   W12
 BYTE   Dn1  v036
 BYTE   W06
 BYTE   Dn1  v052
 BYTE   W06
 BYTE   Dn1  v060
 BYTE   W06
 BYTE   Dn1  v036
 BYTE   W06
 BYTE   N04
 BYTE   W06
 BYTE   Dn1  v052
 BYTE   W06
 BYTE   Dn1  v060
 BYTE   W12
 BYTE   Dn1  v036
 BYTE   W06
 BYTE   N03  Dn1  v052
 BYTE   W03
 BYTE   N03
 BYTE   W03
 BYTE   PEND 
//  #08 //009   ----------------------------------------
 BYTE   PATT
  POIN2 Label_0102BF8D
//  #08 //010   ----------------------------------------
 BYTE   PATT
  POIN2 Label_0102BFB5
//  #08 //011   ----------------------------------------
 BYTE   PATT
  POIN2 Label_0102BFE7
//  #08 //012   ----------------------------------------
 BYTE   PATT
  POIN2 Label_0102BF8D
//  #08 //013   ----------------------------------------
 BYTE   PATT
  POIN2 Label_0102BFB5
//  #08 //014   ----------------------------------------
 BYTE   PATT
  POIN2 Label_0102BFE7
//  #08 //015   ----------------------------------------
 BYTE   PATT
  POIN2 Label_0102BF8D
//  #08 //016   ----------------------------------------
 BYTE   PATT
  POIN2 Label_0102BFB5
//  #08 //017   ----------------------------------------
 BYTE   PATT
  POIN2 Label_0102BFE7
//  #08 //018   ----------------------------------------
 BYTE   PATT
  POIN2 Label_0102BF8D
//  #08 //019   ----------------------------------------
Label_0102C043:
 BYTE   N04  Dn1  v060
 BYTE   W06
 BYTE   Dn1  v036
 BYTE   W06
 BYTE   N04
 BYTE   W06
 BYTE   Dn1  v052
 BYTE   W06
 BYTE   Dn1  v060
 BYTE   W12
 BYTE   Dn1  v036
 BYTE   W06
 BYTE   N03  Dn1  v052
 BYTE   W03
 BYTE   N03
 BYTE   W03
 BYTE   N04  Dn1  v060
 BYTE   W12
 BYTE   Dn1  v036
 BYTE   W06
 BYTE   N04
 BYTE   W06
 BYTE   Dn1  v052
 BYTE   W12
 BYTE   Dn1  v060
 BYTE   W06
 BYTE   N03  Dn1  v032
 BYTE   W03
 BYTE   N03
 BYTE   W03
 BYTE   PEND 
//  #08 //020   ----------------------------------------
Label_0102C071:
 BYTE   N04  Dn1  v036
 BYTE   W06
 BYTE   N04
 BYTE   W06
 BYTE   Dn1  v052
 BYTE   W12
 BYTE   Dn1  v060
 BYTE   W12
 BYTE   Dn1  v036
 BYTE   W06
 BYTE   Dn1  v052
 BYTE   W06
 BYTE   Dn1  v060
 BYTE   W06
 BYTE   Dn1  v036
 BYTE   W06
 BYTE   N04
 BYTE   W06
 BYTE   Dn1  v052
 BYTE   W06
 BYTE   Dn1  v060
 BYTE   W12
 BYTE   Dn1  v036
 BYTE   W06
 BYTE   N02  Dn1  v032
 BYTE   W02
 BYTE   Dn1  v036
 BYTE   W02
 BYTE   Dn1  v052
 BYTE   W02
 BYTE   PEND 
//  #08 //021   ----------------------------------------
 BYTE   PATT
  POIN2 Label_0102BF8D
//  #08 //022   ----------------------------------------
 BYTE   PATT
  POIN2 Label_0102C043
//  #08 //023   ----------------------------------------
 BYTE   PATT
  POIN2 Label_0102C071
//  #08 //024   ----------------------------------------
 BYTE   PATT
  POIN2 Label_0102BF8D
//  #08 //025   ----------------------------------------
 BYTE   PATT
  POIN2 Label_0102C043
//  #08 //026   ----------------------------------------
 BYTE   PATT
  POIN2 Label_0102BFE7
//  #08 //027   ----------------------------------------
 BYTE   PATT
  POIN2 Label_0102BF12
//  #08 //028   ----------------------------------------
 BYTE   PATT
  POIN2 Label_0102BF33
//  #08 //029   ----------------------------------------
 BYTE   PATT
  POIN2 Label_0102BF5B
//  #08 //030   ----------------------------------------
 BYTE   PATT
  POIN2 Label_0102BF8D
//  #08 //031   ----------------------------------------
 BYTE   PATT
  POIN2 Label_0102BFB5
//  #08 //032   ----------------------------------------
 BYTE   PATT
  POIN2 Label_0102BFE7
//  #08 //033   ----------------------------------------
 BYTE   N07  Cn1  v020
 BYTE   N04  Dn1  v060
 BYTE   W36
 BYTE   N06  Cn1  v044
 BYTE   W36
 BYTE   Fs1
 BYTE   W24
//  #08 //034   ----------------------------------------
 BYTE   N07  En1  v036
 BYTE   W24
 BYTE   N06  Fs1  v044
 BYTE   W24
 BYTE   Cn1
 BYTE   W36
 BYTE   N06
 BYTE   W12
//  #08 //035   ----------------------------------------
 BYTE   W24
 BYTE   Fs1
 BYTE   W24
 BYTE   En1
 BYTE   W24
 BYTE   Fs1
 BYTE   W24
//  #08 //036   ----------------------------------------
 BYTE   En1
 BYTE   W36
 BYTE   Cn1
 BYTE   W36
 BYTE   Fs1
 BYTE   W24
//  #08 //037   ----------------------------------------
 BYTE   En1
 BYTE   W24
 BYTE   Fs1
 BYTE   W18
 BYTE   N03  Dn1  v032
 BYTE   W03
 BYTE   Dn1  v036
 BYTE   W03
 BYTE   N06  Cn1  v044
 BYTE   N04  Dn1  v072
 BYTE   W12
 BYTE   Dn1  v036
 BYTE   W06
 BYTE   N04
 BYTE   W06
 BYTE   Dn1  v052
 BYTE   W12
 BYTE   N06  Cn1  v044
 BYTE   N04  Dn1  v060
 BYTE   W12
//  #08 //038   ----------------------------------------
Label_0102C122:
 BYTE   W18
 BYTE   N03  Dn1  v032
 BYTE   W03
 BYTE   Dn1  v036
 BYTE   W03
 BYTE   N04  Dn1  v060
 BYTE   N06  Fs1  v044
 BYTE   W12
 BYTE   N04  Dn1  v036
 BYTE   W06
 BYTE   Dn1  v052
 BYTE   W06
 BYTE   Dn1  v056
 BYTE   N06  En1  v044
 BYTE   W06
 BYTE   N04  Dn1  v036
 BYTE   W06
 BYTE   Dn1  v052
 BYTE   W06
 BYTE   Dn1  v036
 BYTE   W06
 BYTE   Dn1  v052
 BYTE   N06  Fs1  v044
 BYTE   W06
 BYTE   N04  Dn1  v032
 BYTE   W06
 BYTE   Dn1  v048
 BYTE   W06
 BYTE   N02  Dn1  v060
 BYTE   W02
 BYTE   Dn1  v036
 BYTE   W02
 BYTE   Dn1  v052
 BYTE   W02
 BYTE   PEND 
//  #08 //039   ----------------------------------------
 BYTE   N06  Cn1  v044
 BYTE   N04  Dn1  v060
 BYTE   W12
 BYTE   Dn1  v036
 BYTE   W06
 BYTE   N04
 BYTE   W06
 BYTE   Dn1  v052
 BYTE   W12
 BYTE   N06  Cn1  v044
 BYTE   N04  Dn1  v060
 BYTE   W30
 BYTE   N03  Dn1  v032
 BYTE   W03
 BYTE   Dn1  v036
 BYTE   W03
 BYTE   N04  Dn1  v060
 BYTE   N06  Fs1  v044
 BYTE   W12
 BYTE   N04  Dn1  v036
 BYTE   W06
 BYTE   Dn1  v052
 BYTE   W06
//  #08 //040   ----------------------------------------
 BYTE   Dn1  v056
 BYTE   N06  En1  v044
 BYTE   W06
 BYTE   N04  Dn1  v036
 BYTE   W06
 BYTE   Dn1  v052
 BYTE   W06
 BYTE   Dn1  v036
 BYTE   W06
 BYTE   Dn1  v052
 BYTE   N06  As1  v044
 BYTE   W06
 BYTE   N04  Dn1  v032
 BYTE   W06
 BYTE   Dn1  v048
 BYTE   W06
 BYTE   Dn1  v060
 BYTE   W06
 BYTE   N06  Cn1  v044
 BYTE   N04  Dn1  v072
 BYTE   W12
 BYTE   Dn1  v036
 BYTE   W06
 BYTE   N04
 BYTE   W06
 BYTE   Dn1  v052
 BYTE   W12
 BYTE   N06  Cn1  v044
 BYTE   N04  Dn1  v060
 BYTE   W12
//  #08 //041   ----------------------------------------
 BYTE   PATT
  POIN2 Label_0102C122
//  #08 //042   ----------------------------------------
 BYTE   N06  Cn1  v044
 BYTE   N04  Dn1  v060
 BYTE   W12
 BYTE   Dn1  v036
 BYTE   W06
 BYTE   N04
 BYTE   W06
 BYTE   Dn1  v052
 BYTE   W12
 BYTE   N06  Cn1  v044
 BYTE   N04  Dn1  v060
 BYTE   W06
 BYTE   N03  Dn1  v032
 BYTE   W03
 BYTE   N03
 BYTE   W03
 BYTE   N04  Dn1  v036
 BYTE   W06
 BYTE   N04
 BYTE   W06
 BYTE   Dn1  v052
 BYTE   W12
 BYTE   Dn1  v060
 BYTE   N06  Fs1  v044
 BYTE   W12
 BYTE   N04  Dn1  v036
 BYTE   W06
 BYTE   Dn1  v052
 BYTE   W06
//  #08 //043   ----------------------------------------
 BYTE   Dn1  v060
 BYTE   N06  En1  v044
 BYTE   W06
 BYTE   N04  Dn1  v036
 BYTE   W06
 BYTE   N04
 BYTE   W06
 BYTE   Dn1  v052
 BYTE   W06
 BYTE   Dn1  v060
 BYTE   N06  As1  v044
 BYTE   W12
 BYTE   N04  Dn1  v036
 BYTE   W06
 BYTE   N02  Dn1  v032
 BYTE   W02
 BYTE   Dn1  v036
 BYTE   W02
 BYTE   Dn1  v052
 BYTE   W02
 BYTE   N06  Cn1  v044
 BYTE   N04  Dn1  v060
 BYTE   W12
 BYTE   Dn1  v036
 BYTE   W06
 BYTE   N04
 BYTE   W06
 BYTE   Dn1  v052
 BYTE   W12
 BYTE   N06  Cn1  v044
 BYTE   N04  Dn1  v060
 BYTE   W06
 BYTE   N03  Dn1  v032
 BYTE   W03
 BYTE   N03
 BYTE   W03
//  #08 //044   ----------------------------------------
 BYTE   N04  Dn1  v036
 BYTE   W06
 BYTE   N04
 BYTE   W06
 BYTE   Dn1  v052
 BYTE   W12
 BYTE   Dn1  v060
 BYTE   N06  Fs1  v044
 BYTE   W12
 BYTE   N04  Dn1  v036
 BYTE   W06
 BYTE   Dn1  v052
 BYTE   W06
 BYTE   Dn1  v060
 BYTE   N06  En1  v044
 BYTE   W06
 BYTE   N04  Dn1  v036
 BYTE   W06
 BYTE   N04
 BYTE   W06
 BYTE   Dn1  v052
 BYTE   W06
 BYTE   Dn1  v060
 BYTE   N06  Fs1  v044
 BYTE   W12
 BYTE   N04  Dn1  v036
 BYTE   W06
 BYTE   N03  Dn1  v052
 BYTE   W03
 BYTE   N04
 BYTE   W03
//  #08 //045   ----------------------------------------
 BYTE   W01
 BYTE   GoTo
  POIN2 Label_0102BF12
 BYTE   FINE

//******************************************************//
	ALIGN 4

KHCoMStruggleAwayAzula:
	BYTE	8	// NumTrks
	BYTE	0	// NumBlks
	BYTE	KHCoMStruggleAwayAzula_pri	// Priority
	BYTE	KHCoMStruggleAwayAzula_rev	// Reverb.
    
	POIN2	KHCoMStruggleAwayAzula_grp
    
	POIN2	KHCoMStruggleAwayAzula_001
	POIN2	KHCoMStruggleAwayAzula_002
	POIN2	KHCoMStruggleAwayAzula_003
	POIN2	KHCoMStruggleAwayAzula_004
	POIN2	KHCoMStruggleAwayAzula_005
	POIN2	KHCoMStruggleAwayAzula_006
	POIN2	KHCoMStruggleAwayAzula_007
	POIN2	KHCoMStruggleAwayAzula_008

	
