//Event file generated from Sappy .s format.
	#include "MPlayDef.event"

	#define	BattleForBikiniBottomBikiniBottom_grp  voicegroup000
	#define	BattleForBikiniBottomBikiniBottom_pri  0
	#define	BattleForBikiniBottomBikiniBottom_rev  0
	#define	BattleForBikiniBottomBikiniBottom_mvl  97
	#define	BattleForBikiniBottomBikiniBottom_key  0
	#define	BattleForBikiniBottomBikiniBottom_tbs  1
	#define	BattleForBikiniBottomBikiniBottom_exg  0
	#define	BattleForBikiniBottomBikiniBottom_cmp  1

	// .rodata
	//	BattleForBikiniBottomBikiniBottom
	ALIGN 4

//**************** Track 1 (Midi-Chn.1) ****************//

BattleForBikiniBottomBikiniBottom_1:
	BYTE		VOL     127*BattleForBikiniBottomBikiniBottom_mvl/mxv
	BYTE	KEYSH   BattleForBikiniBottomBikiniBottom_key+0
BattleForBikiniBottomBikiniBottom_1_B1:
// 000   ----------------------------------------
	BYTE	TEMPO   237*BattleForBikiniBottomBikiniBottom_tbs/2
	BYTE		VOICE   57
	BYTE		MODT    0
	BYTE		LFOS    44
	BYTE	W96
// 001   ----------------------------------------
	BYTE	W96
// 002   ----------------------------------------
	BYTE	W96
// 003   ----------------------------------------
	BYTE	W96
// 004   ----------------------------------------
	BYTE	W96
// 005   ----------------------------------------
	BYTE	W96
// 006   ----------------------------------------
	BYTE	W96
// 007   ----------------------------------------
	BYTE	W96
// 008   ----------------------------------------
	BYTE	W96
// 009   ----------------------------------------
	BYTE	W96
// 010   ----------------------------------------
	BYTE	W96
// 011   ----------------------------------------
	BYTE	W96
// 012   ----------------------------------------
	BYTE	W96
// 013   ----------------------------------------
	BYTE	W96
// 014   ----------------------------------------
	BYTE	W96
// 015   ----------------------------------------
	BYTE	W96
// 016   ----------------------------------------
BattleForBikiniBottomBikiniBottom_1_016:
	BYTE	W24
	BYTE		N18     Cn3   v048
	BYTE	W24
	BYTE		        Bn2 
	BYTE	W24
	BYTE		        Cn3 
	BYTE	W24
	BYTE	PEND
// 017   ----------------------------------------
BattleForBikiniBottomBikiniBottom_1_017:
	BYTE		N18     Dn3   v048
	BYTE	W24
	BYTE		        En3 
	BYTE	W24
	BYTE		N18   
	BYTE	W24
	BYTE		        Dn3 
	BYTE	W24
	BYTE	PEND
// 018   ----------------------------------------
BattleForBikiniBottomBikiniBottom_1_018:
	BYTE		N18     Cn3   v048
	BYTE	W24
	BYTE		        Dn3 
	BYTE	W24
	BYTE		N42     Bn2 
	BYTE	W48
	BYTE	PEND
// 019   ----------------------------------------
	BYTE		N90     Gn2 
	BYTE	W96
// 020   ----------------------------------------
BattleForBikiniBottomBikiniBottom_1_020:
	BYTE		N18     Gn2   v048
	BYTE	W24
	BYTE		        Fs2 
	BYTE	W24
	BYTE		        Dn2 
	BYTE	W24
	BYTE		        Fs2 
	BYTE	W24
	BYTE	PEND
// 021   ----------------------------------------
BattleForBikiniBottomBikiniBottom_1_021:
	BYTE		N18     An2   v048
	BYTE	W24
	BYTE		        Cn3 
	BYTE	W24
	BYTE		N18   
	BYTE	W24
	BYTE		        Bn2 
	BYTE	W24
	BYTE	PEND
// 022   ----------------------------------------
BattleForBikiniBottomBikiniBottom_1_022:
	BYTE		N18     An2   v048
	BYTE	W24
	BYTE		        Bn2 
	BYTE	W24
	BYTE		N42     Gn2 
	BYTE	W48
	BYTE	PEND
// 023   ----------------------------------------
	BYTE		N90     Dn2 
	BYTE	W96
// 024   ----------------------------------------
	BYTE	PATT
	 POIN2	BattleForBikiniBottomBikiniBottom_1_016
// 025   ----------------------------------------
	BYTE	PATT
	 POIN2	BattleForBikiniBottomBikiniBottom_1_017
// 026   ----------------------------------------
BattleForBikiniBottomBikiniBottom_1_026:
	BYTE		N18     Cn3   v048
	BYTE	W24
	BYTE		        Dn3 
	BYTE	W24
	BYTE		N42     Gn3 
	BYTE	W48
	BYTE	PEND
// 027   ----------------------------------------
BattleForBikiniBottomBikiniBottom_1_027:
	BYTE		N66     Gn2   v048
	BYTE	W72
	BYTE		N18     An2 
	BYTE	W24
	BYTE	PEND
// 028   ----------------------------------------
BattleForBikiniBottomBikiniBottom_1_028:
	BYTE		N18     Bn2   v048
	BYTE	W24
	BYTE		        Cn3 
	BYTE	W24
	BYTE		N18   
	BYTE	W24
	BYTE		        Bn2 
	BYTE	W24
	BYTE	PEND
// 029   ----------------------------------------
BattleForBikiniBottomBikiniBottom_1_029:
	BYTE		N18     An2   v048
	BYTE	W24
	BYTE		        Bn2 
	BYTE	W24
	BYTE		N42     Fs2 
	BYTE	W48
	BYTE	PEND
// 030   ----------------------------------------
BattleForBikiniBottomBikiniBottom_1_030:
	BYTE		N18     Gn2   v048
	BYTE	W24
	BYTE		TIE   
	BYTE	W72
	BYTE	PEND
// 031   ----------------------------------------
	BYTE	W90
	BYTE		EOT   
	BYTE	W06
// 032   ----------------------------------------
	BYTE	W96
// 033   ----------------------------------------
	BYTE	W96
// 034   ----------------------------------------
	BYTE	W96
// 035   ----------------------------------------
	BYTE	W96
// 036   ----------------------------------------
	BYTE	W96
// 037   ----------------------------------------
	BYTE	W96
// 038   ----------------------------------------
	BYTE	W96
// 039   ----------------------------------------
	BYTE	W96
// 040   ----------------------------------------
	BYTE	W96
// 041   ----------------------------------------
	BYTE	W96
// 042   ----------------------------------------
	BYTE	W96
// 043   ----------------------------------------
	BYTE	W96
// 044   ----------------------------------------
	BYTE	W96
// 045   ----------------------------------------
	BYTE	W96
// 046   ----------------------------------------
	BYTE	W96
// 047   ----------------------------------------
	BYTE	W96
// 048   ----------------------------------------
	BYTE	PATT
	 POIN2	BattleForBikiniBottomBikiniBottom_1_016
// 049   ----------------------------------------
	BYTE	PATT
	 POIN2	BattleForBikiniBottomBikiniBottom_1_017
// 050   ----------------------------------------
	BYTE	PATT
	 POIN2	BattleForBikiniBottomBikiniBottom_1_018
// 051   ----------------------------------------
	BYTE		N90     Gn2   v048
	BYTE	W96
// 052   ----------------------------------------
	BYTE	PATT
	 POIN2	BattleForBikiniBottomBikiniBottom_1_020
// 053   ----------------------------------------
	BYTE	PATT
	 POIN2	BattleForBikiniBottomBikiniBottom_1_021
// 054   ----------------------------------------
	BYTE	PATT
	 POIN2	BattleForBikiniBottomBikiniBottom_1_022
// 055   ----------------------------------------
	BYTE		N90     Dn2   v048
	BYTE	W96
// 056   ----------------------------------------
	BYTE	PATT
	 POIN2	BattleForBikiniBottomBikiniBottom_1_016
// 057   ----------------------------------------
	BYTE	PATT
	 POIN2	BattleForBikiniBottomBikiniBottom_1_017
// 058   ----------------------------------------
	BYTE	PATT
	 POIN2	BattleForBikiniBottomBikiniBottom_1_026
// 059   ----------------------------------------
	BYTE	PATT
	 POIN2	BattleForBikiniBottomBikiniBottom_1_027
// 060   ----------------------------------------
	BYTE	PATT
	 POIN2	BattleForBikiniBottomBikiniBottom_1_028
// 061   ----------------------------------------
	BYTE	PATT
	 POIN2	BattleForBikiniBottomBikiniBottom_1_029
// 062   ----------------------------------------
	BYTE	PATT
	 POIN2	BattleForBikiniBottomBikiniBottom_1_030
// 063   ----------------------------------------
	BYTE	W90
	BYTE		EOT     Gn2 
	BYTE	W06
	BYTE	GoTo
	 POIN2	BattleForBikiniBottomBikiniBottom_1_B1
BattleForBikiniBottomBikiniBottom_1_B2:
// 064   ----------------------------------------
	BYTE	FINE

//**************** Track 2 (Midi-Chn.2) ****************//

BattleForBikiniBottomBikiniBottom_2:
	BYTE	KEYSH   BattleForBikiniBottomBikiniBottom_key+0
BattleForBikiniBottomBikiniBottom_2_B1:
// 000   ----------------------------------------
	BYTE		VOICE   71
	BYTE		MODT    0
	BYTE		LFOS    44
	BYTE		VOL     91*BattleForBikiniBottomBikiniBottom_mvl/mxv
	BYTE		N12     Dn4   v048
	BYTE	W12
	BYTE		        Bn3 
	BYTE	W12
	BYTE		N24     Gn3 
	BYTE	W24
	BYTE		        Bn3 
	BYTE	W24
	BYTE		        Dn4 
	BYTE	W24
// 001   ----------------------------------------
BattleForBikiniBottomBikiniBottom_2_001:
	BYTE		N24     Gn4   v048
	BYTE	W24
	BYTE		N12   
	BYTE	W12
	BYTE		        An4 
	BYTE	W12
	BYTE		        Gn4 
	BYTE	W12
	BYTE		        Fs4 
	BYTE	W12
	BYTE		N24     Gn4 
	BYTE	W24
	BYTE	PEND
// 002   ----------------------------------------
BattleForBikiniBottomBikiniBottom_2_002:
	BYTE		N06     Gn4   v048
	BYTE	W12
	BYTE		N06   
	BYTE	W12
	BYTE		N24     En4 
	BYTE	W24
	BYTE		        Cn4 
	BYTE	W24
	BYTE		        En4 
	BYTE	W24
	BYTE	PEND
// 003   ----------------------------------------
	BYTE	PATT
	 POIN2	BattleForBikiniBottomBikiniBottom_2_001
// 004   ----------------------------------------
BattleForBikiniBottomBikiniBottom_2_004:
	BYTE		N06     Gn4   v048
	BYTE	W12
	BYTE		N06   
	BYTE	W12
	BYTE		N24     Fs4 
	BYTE	W24
	BYTE		        Dn4 
	BYTE	W24
	BYTE		        Fs4 
	BYTE	W24
	BYTE	PEND
// 005   ----------------------------------------
BattleForBikiniBottomBikiniBottom_2_005:
	BYTE		N24     An4   v048
	BYTE	W24
	BYTE		N12     Dn5 
	BYTE	W12
	BYTE		        En5 
	BYTE	W12
	BYTE		        Dn5 
	BYTE	W12
	BYTE		        Cn5 
	BYTE	W12
	BYTE		N24     Dn5 
	BYTE	W24
	BYTE	PEND
// 006   ----------------------------------------
BattleForBikiniBottomBikiniBottom_2_006:
	BYTE		N06     Dn5   v048
	BYTE	W12
	BYTE		N12     Cn5 
	BYTE	W12
	BYTE		N24     Bn4 
	BYTE	W24
	BYTE		N06   
	BYTE	W24
	BYTE		N06   
	BYTE	W24
	BYTE	PEND
// 007   ----------------------------------------
BattleForBikiniBottomBikiniBottom_2_007:
	BYTE		N06     Bn4   v048
	BYTE	W24
	BYTE		N06   
	BYTE	W24
	BYTE		N06   
	BYTE	W24
	BYTE		N06   
	BYTE	W24
	BYTE	PEND
// 008   ----------------------------------------
	BYTE		N12     Dn4 
	BYTE	W12
	BYTE		        Bn3 
	BYTE	W12
	BYTE		N24     Gn3 
	BYTE	W24
	BYTE		        Bn3 
	BYTE	W24
	BYTE		        Dn4 
	BYTE	W24
// 009   ----------------------------------------
	BYTE	PATT
	 POIN2	BattleForBikiniBottomBikiniBottom_2_001
// 010   ----------------------------------------
	BYTE	PATT
	 POIN2	BattleForBikiniBottomBikiniBottom_2_002
// 011   ----------------------------------------
	BYTE	PATT
	 POIN2	BattleForBikiniBottomBikiniBottom_2_001
// 012   ----------------------------------------
	BYTE	PATT
	 POIN2	BattleForBikiniBottomBikiniBottom_2_004
// 013   ----------------------------------------
	BYTE	PATT
	 POIN2	BattleForBikiniBottomBikiniBottom_2_005
// 014   ----------------------------------------
	BYTE	PATT
	 POIN2	BattleForBikiniBottomBikiniBottom_2_006
// 015   ----------------------------------------
	BYTE	PATT
	 POIN2	BattleForBikiniBottomBikiniBottom_2_007
// 016   ----------------------------------------
BattleForBikiniBottomBikiniBottom_2_016:
	BYTE	W24
	BYTE		N24     Cn5   v048
	BYTE	W24
	BYTE		        Bn4 
	BYTE	W24
	BYTE		        Cn5 
	BYTE	W24
	BYTE	PEND
// 017   ----------------------------------------
BattleForBikiniBottomBikiniBottom_2_017:
	BYTE		N24     Dn5   v048
	BYTE	W24
	BYTE		        En5 
	BYTE	W24
	BYTE		N24   
	BYTE	W24
	BYTE		        Dn5 
	BYTE	W24
	BYTE	PEND
// 018   ----------------------------------------
BattleForBikiniBottomBikiniBottom_2_018:
	BYTE		N24     Cn5   v048
	BYTE	W24
	BYTE		        Dn5 
	BYTE	W24
	BYTE		        Bn4 
	BYTE	W24
	BYTE		N06   
	BYTE	W24
	BYTE	PEND
// 019   ----------------------------------------
BattleForBikiniBottomBikiniBottom_2_019:
	BYTE		N24     Gn4   v048
	BYTE	W24
	BYTE		N06   
	BYTE	W24
	BYTE		N06   
	BYTE	W24
	BYTE		N06   
	BYTE	W24
	BYTE	PEND
// 020   ----------------------------------------
BattleForBikiniBottomBikiniBottom_2_020:
	BYTE		N06     Gn4   v048
	BYTE	W24
	BYTE		N24     Fs4 
	BYTE	W24
	BYTE		        Dn4 
	BYTE	W24
	BYTE		        Fs4 
	BYTE	W24
	BYTE	PEND
// 021   ----------------------------------------
BattleForBikiniBottomBikiniBottom_2_021:
	BYTE		N24     An4   v048
	BYTE	W24
	BYTE		        Cn5 
	BYTE	W24
	BYTE		N24   
	BYTE	W24
	BYTE		        Bn4 
	BYTE	W24
	BYTE	PEND
// 022   ----------------------------------------
BattleForBikiniBottomBikiniBottom_2_022:
	BYTE		N24     An4   v048
	BYTE	W24
	BYTE		        Bn4 
	BYTE	W24
	BYTE		        Gn4 
	BYTE	W24
	BYTE		N06   
	BYTE	W24
	BYTE	PEND
// 023   ----------------------------------------
BattleForBikiniBottomBikiniBottom_2_023:
	BYTE		N24     Dn4   v048
	BYTE	W24
	BYTE		N06   
	BYTE	W24
	BYTE		N06   
	BYTE	W24
	BYTE		N06   
	BYTE	W24
	BYTE	PEND
// 024   ----------------------------------------
	BYTE	PATT
	 POIN2	BattleForBikiniBottomBikiniBottom_2_016
// 025   ----------------------------------------
	BYTE	PATT
	 POIN2	BattleForBikiniBottomBikiniBottom_2_017
// 026   ----------------------------------------
BattleForBikiniBottomBikiniBottom_2_026:
	BYTE		N24     Cn5   v048
	BYTE	W24
	BYTE		        Dn5 
	BYTE	W24
	BYTE		        Gn5 
	BYTE	W24
	BYTE		N06   
	BYTE	W24
	BYTE	PEND
// 027   ----------------------------------------
BattleForBikiniBottomBikiniBottom_2_027:
	BYTE		N24     Gn4   v048
	BYTE	W24
	BYTE		N06   
	BYTE	W24
	BYTE		N06   
	BYTE	W24
	BYTE		N24     An4 
	BYTE	W24
	BYTE	PEND
// 028   ----------------------------------------
BattleForBikiniBottomBikiniBottom_2_028:
	BYTE		N24     Bn4   v048
	BYTE	W24
	BYTE		        Cn5 
	BYTE	W24
	BYTE		N24   
	BYTE	W24
	BYTE		        Bn4 
	BYTE	W24
	BYTE	PEND
// 029   ----------------------------------------
BattleForBikiniBottomBikiniBottom_2_029:
	BYTE		N24     An4   v048
	BYTE	W24
	BYTE		        Bn4 
	BYTE	W24
	BYTE		        Fs4 
	BYTE	W24
	BYTE		N06   
	BYTE	W24
	BYTE	PEND
// 030   ----------------------------------------
BattleForBikiniBottomBikiniBottom_2_030:
	BYTE		N24     Gn4   v048
	BYTE	W24
	BYTE		N24   
	BYTE	W24
	BYTE		N06   
	BYTE	W24
	BYTE		N06   
	BYTE	W24
	BYTE	PEND
// 031   ----------------------------------------
BattleForBikiniBottomBikiniBottom_2_031:
	BYTE		N06     Gn4   v048
	BYTE	W24
	BYTE		N06   
	BYTE	W24
	BYTE		N06   
	BYTE	W24
	BYTE		N06   
	BYTE	W24
	BYTE	PEND
// 032   ----------------------------------------
	BYTE		N06   
	BYTE	W12
	BYTE		N12     Fs4 
	BYTE	W12
	BYTE		        Gn4 
	BYTE	W24
	BYTE		        Dn4 
	BYTE	W24
	BYTE		        Bn3 
	BYTE	W24
// 033   ----------------------------------------
	BYTE	W96
// 034   ----------------------------------------
BattleForBikiniBottomBikiniBottom_2_034:
	BYTE		N12     Gn4   v048
	BYTE	W12
	BYTE		        Fs4 
	BYTE	W12
	BYTE		        An4 
	BYTE	W24
	BYTE		        Gn4 
	BYTE	W24
	BYTE		        En4 
	BYTE	W24
	BYTE	PEND
// 035   ----------------------------------------
	BYTE	W96
// 036   ----------------------------------------
BattleForBikiniBottomBikiniBottom_2_036:
	BYTE		N12     Gn4   v048
	BYTE	W12
	BYTE		        En4 
	BYTE	W12
	BYTE		        Fs4 
	BYTE	W24
	BYTE		        Dn4 
	BYTE	W24
	BYTE		        An4 
	BYTE	W24
	BYTE	PEND
// 037   ----------------------------------------
	BYTE	W96
// 038   ----------------------------------------
BattleForBikiniBottomBikiniBottom_2_038:
	BYTE		N12     An4   v048
	BYTE	W12
	BYTE		        Dn4 
	BYTE	W12
	BYTE		        Gn4 
	BYTE	W24
	BYTE		        Dn4 
	BYTE	W24
	BYTE		        Bn3 
	BYTE	W24
	BYTE	PEND
// 039   ----------------------------------------
	BYTE	W96
// 040   ----------------------------------------
	BYTE		        Gn4 
	BYTE	W12
	BYTE		        Fs4 
	BYTE	W12
	BYTE		        Gn4 
	BYTE	W24
	BYTE		        Dn4 
	BYTE	W24
	BYTE		        Bn3 
	BYTE	W24
// 041   ----------------------------------------
	BYTE	W96
// 042   ----------------------------------------
	BYTE	PATT
	 POIN2	BattleForBikiniBottomBikiniBottom_2_034
// 043   ----------------------------------------
	BYTE	W96
// 044   ----------------------------------------
	BYTE	PATT
	 POIN2	BattleForBikiniBottomBikiniBottom_2_036
// 045   ----------------------------------------
	BYTE	W96
// 046   ----------------------------------------
	BYTE	PATT
	 POIN2	BattleForBikiniBottomBikiniBottom_2_038
// 047   ----------------------------------------
	BYTE	W96
// 048   ----------------------------------------
	BYTE	PATT
	 POIN2	BattleForBikiniBottomBikiniBottom_2_016
// 049   ----------------------------------------
	BYTE	PATT
	 POIN2	BattleForBikiniBottomBikiniBottom_2_017
// 050   ----------------------------------------
	BYTE	PATT
	 POIN2	BattleForBikiniBottomBikiniBottom_2_018
// 051   ----------------------------------------
	BYTE	PATT
	 POIN2	BattleForBikiniBottomBikiniBottom_2_019
// 052   ----------------------------------------
	BYTE	PATT
	 POIN2	BattleForBikiniBottomBikiniBottom_2_020
// 053   ----------------------------------------
	BYTE	PATT
	 POIN2	BattleForBikiniBottomBikiniBottom_2_021
// 054   ----------------------------------------
	BYTE	PATT
	 POIN2	BattleForBikiniBottomBikiniBottom_2_022
// 055   ----------------------------------------
	BYTE	PATT
	 POIN2	BattleForBikiniBottomBikiniBottom_2_023
// 056   ----------------------------------------
	BYTE	PATT
	 POIN2	BattleForBikiniBottomBikiniBottom_2_016
// 057   ----------------------------------------
	BYTE	PATT
	 POIN2	BattleForBikiniBottomBikiniBottom_2_017
// 058   ----------------------------------------
	BYTE	PATT
	 POIN2	BattleForBikiniBottomBikiniBottom_2_026
// 059   ----------------------------------------
	BYTE	PATT
	 POIN2	BattleForBikiniBottomBikiniBottom_2_027
// 060   ----------------------------------------
	BYTE	PATT
	 POIN2	BattleForBikiniBottomBikiniBottom_2_028
// 061   ----------------------------------------
	BYTE	PATT
	 POIN2	BattleForBikiniBottomBikiniBottom_2_029
// 062   ----------------------------------------
	BYTE	PATT
	 POIN2	BattleForBikiniBottomBikiniBottom_2_030
// 063   ----------------------------------------
	BYTE	PATT
	 POIN2	BattleForBikiniBottomBikiniBottom_2_031
	BYTE	GoTo
	 POIN2	BattleForBikiniBottomBikiniBottom_2_B1
BattleForBikiniBottomBikiniBottom_2_B2:
// 064   ----------------------------------------
	BYTE	FINE

//**************** Track 3 (Midi-Chn.3) ****************//

BattleForBikiniBottomBikiniBottom_3:
	BYTE	KEYSH   BattleForBikiniBottomBikiniBottom_key+0
BattleForBikiniBottomBikiniBottom_3_B1:
// 000   ----------------------------------------
	BYTE		VOICE   68
	BYTE		MODT    0
	BYTE		LFOS    44
	BYTE		VOL     76*BattleForBikiniBottomBikiniBottom_mvl/mxv
	BYTE		N12     Dn3   v076
	BYTE	W12
	BYTE		        Bn2 
	BYTE	W12
	BYTE		N24     Gn2 
	BYTE	W24
	BYTE		        Bn2 
	BYTE	W24
	BYTE		        Dn3 
	BYTE	W24
// 001   ----------------------------------------
BattleForBikiniBottomBikiniBottom_3_001:
	BYTE		N24     Gn3   v076
	BYTE	W24
	BYTE		N12   
	BYTE	W12
	BYTE		        An3 
	BYTE	W12
	BYTE		        Gn3 
	BYTE	W12
	BYTE		        Fs3 
	BYTE	W12
	BYTE		N36     Gn3 
	BYTE	W24
	BYTE	PEND
// 002   ----------------------------------------
BattleForBikiniBottomBikiniBottom_3_002:
	BYTE	W12
	BYTE		N12     Gn3   v076
	BYTE	W12
	BYTE		N24     En3 
	BYTE	W24
	BYTE		        Cn3 
	BYTE	W24
	BYTE		        En3 
	BYTE	W24
	BYTE	PEND
// 003   ----------------------------------------
	BYTE	PATT
	 POIN2	BattleForBikiniBottomBikiniBottom_3_001
// 004   ----------------------------------------
BattleForBikiniBottomBikiniBottom_3_004:
	BYTE	W12
	BYTE		N12     Gn3   v076
	BYTE	W12
	BYTE		N24     Fs3 
	BYTE	W24
	BYTE		        Dn3 
	BYTE	W24
	BYTE		        Fs3 
	BYTE	W24
	BYTE	PEND
// 005   ----------------------------------------
BattleForBikiniBottomBikiniBottom_3_005:
	BYTE		N24     An3   v076
	BYTE	W24
	BYTE		N12     Dn4 
	BYTE	W12
	BYTE		        En4 
	BYTE	W12
	BYTE		        Dn4 
	BYTE	W12
	BYTE		        Cn4 
	BYTE	W12
	BYTE		N36     Dn4 
	BYTE	W24
	BYTE	PEND
// 006   ----------------------------------------
BattleForBikiniBottomBikiniBottom_3_006:
	BYTE	W12
	BYTE		N12     Cn4   v076
	BYTE	W12
	BYTE		TIE     Bn3 
	BYTE	W72
	BYTE	PEND
// 007   ----------------------------------------
	BYTE	W96
	BYTE		EOT   
// 008   ----------------------------------------
	BYTE		N12     Dn3 
	BYTE	W12
	BYTE		        Bn2 
	BYTE	W12
	BYTE		N24     Gn2 
	BYTE	W24
	BYTE		        Bn2 
	BYTE	W24
	BYTE		        Dn3 
	BYTE	W24
// 009   ----------------------------------------
	BYTE	PATT
	 POIN2	BattleForBikiniBottomBikiniBottom_3_001
// 010   ----------------------------------------
	BYTE	PATT
	 POIN2	BattleForBikiniBottomBikiniBottom_3_002
// 011   ----------------------------------------
	BYTE	PATT
	 POIN2	BattleForBikiniBottomBikiniBottom_3_001
// 012   ----------------------------------------
	BYTE	PATT
	 POIN2	BattleForBikiniBottomBikiniBottom_3_004
// 013   ----------------------------------------
	BYTE	PATT
	 POIN2	BattleForBikiniBottomBikiniBottom_3_005
// 014   ----------------------------------------
	BYTE	PATT
	 POIN2	BattleForBikiniBottomBikiniBottom_3_006
// 015   ----------------------------------------
	BYTE	W96
	BYTE		EOT     Bn3 
// 016   ----------------------------------------
BattleForBikiniBottomBikiniBottom_3_016:
	BYTE	W24
	BYTE		N24     Cn4   v076
	BYTE	W24
	BYTE		        Bn3 
	BYTE	W24
	BYTE		        Cn4 
	BYTE	W24
	BYTE	PEND
// 017   ----------------------------------------
BattleForBikiniBottomBikiniBottom_3_017:
	BYTE		N24     Dn4   v076
	BYTE	W24
	BYTE		        En4 
	BYTE	W24
	BYTE		N24   
	BYTE	W24
	BYTE		        Dn4 
	BYTE	W24
	BYTE	PEND
// 018   ----------------------------------------
BattleForBikiniBottomBikiniBottom_3_018:
	BYTE		N24     Cn4   v076
	BYTE	W24
	BYTE		        Dn4 
	BYTE	W24
	BYTE		N48     Bn3 
	BYTE	W48
	BYTE	PEND
// 019   ----------------------------------------
	BYTE		N96     Gn3 
	BYTE	W96
// 020   ----------------------------------------
BattleForBikiniBottomBikiniBottom_3_020:
	BYTE		N24     Gn3   v076
	BYTE	W24
	BYTE		        Fs3 
	BYTE	W24
	BYTE		        Dn3 
	BYTE	W24
	BYTE		        Fs3 
	BYTE	W24
	BYTE	PEND
// 021   ----------------------------------------
BattleForBikiniBottomBikiniBottom_3_021:
	BYTE		N24     An3   v076
	BYTE	W24
	BYTE		        Cn4 
	BYTE	W24
	BYTE		N24   
	BYTE	W24
	BYTE		        Bn3 
	BYTE	W24
	BYTE	PEND
// 022   ----------------------------------------
BattleForBikiniBottomBikiniBottom_3_022:
	BYTE		N24     An3   v076
	BYTE	W24
	BYTE		        Bn3 
	BYTE	W24
	BYTE		N48     Gn3 
	BYTE	W48
	BYTE	PEND
// 023   ----------------------------------------
	BYTE		N96     Dn3 
	BYTE	W96
// 024   ----------------------------------------
	BYTE	PATT
	 POIN2	BattleForBikiniBottomBikiniBottom_3_016
// 025   ----------------------------------------
	BYTE	PATT
	 POIN2	BattleForBikiniBottomBikiniBottom_3_017
// 026   ----------------------------------------
BattleForBikiniBottomBikiniBottom_3_026:
	BYTE		N24     Cn4   v076
	BYTE	W24
	BYTE		        Dn4 
	BYTE	W24
	BYTE		N48     Gn4 
	BYTE	W48
	BYTE	PEND
// 027   ----------------------------------------
BattleForBikiniBottomBikiniBottom_3_027:
	BYTE		N72     Gn3   v076
	BYTE	W72
	BYTE		N24     An3 
	BYTE	W24
	BYTE	PEND
// 028   ----------------------------------------
BattleForBikiniBottomBikiniBottom_3_028:
	BYTE		N24     Bn3   v076
	BYTE	W24
	BYTE		        Cn4 
	BYTE	W24
	BYTE		N24   
	BYTE	W24
	BYTE		        Bn3 
	BYTE	W24
	BYTE	PEND
// 029   ----------------------------------------
BattleForBikiniBottomBikiniBottom_3_029:
	BYTE		N24     An3   v076
	BYTE	W24
	BYTE		        Bn3 
	BYTE	W24
	BYTE		N48     Fs3 
	BYTE	W48
	BYTE	PEND
// 030   ----------------------------------------
BattleForBikiniBottomBikiniBottom_3_030:
	BYTE		N24     Gn3   v076
	BYTE	W24
	BYTE		TIE   
	BYTE	W72
	BYTE	PEND
// 031   ----------------------------------------
	BYTE	W96
	BYTE		EOT   
// 032   ----------------------------------------
BattleForBikiniBottomBikiniBottom_3_032:
	BYTE		N12     Gn3   v076
	BYTE	W12
	BYTE		        Fs3 
	BYTE	W12
	BYTE		        Gn3 
	BYTE	W24
	BYTE		        Dn3 
	BYTE	W24
	BYTE		        Bn2 
	BYTE	W24
	BYTE	PEND
// 033   ----------------------------------------
	BYTE	W96
// 034   ----------------------------------------
BattleForBikiniBottomBikiniBottom_3_034:
	BYTE		N12     Gn3   v076
	BYTE	W12
	BYTE		        Fs3 
	BYTE	W12
	BYTE		        An3 
	BYTE	W24
	BYTE		        Gn3 
	BYTE	W24
	BYTE		        En3 
	BYTE	W24
	BYTE	PEND
// 035   ----------------------------------------
	BYTE	W96
// 036   ----------------------------------------
BattleForBikiniBottomBikiniBottom_3_036:
	BYTE		N12     Gn3   v076
	BYTE	W12
	BYTE		        En3 
	BYTE	W12
	BYTE		        Fs3 
	BYTE	W24
	BYTE		        Dn3 
	BYTE	W24
	BYTE		        An3 
	BYTE	W24
	BYTE	PEND
// 037   ----------------------------------------
	BYTE	W96
// 038   ----------------------------------------
BattleForBikiniBottomBikiniBottom_3_038:
	BYTE		N12     An3   v076
	BYTE	W12
	BYTE		        Dn3 
	BYTE	W12
	BYTE		        Gn3 
	BYTE	W24
	BYTE		        Dn3 
	BYTE	W24
	BYTE		        Bn2 
	BYTE	W24
	BYTE	PEND
// 039   ----------------------------------------
	BYTE	W96
// 040   ----------------------------------------
	BYTE	PATT
	 POIN2	BattleForBikiniBottomBikiniBottom_3_032
// 041   ----------------------------------------
	BYTE	W96
// 042   ----------------------------------------
	BYTE	PATT
	 POIN2	BattleForBikiniBottomBikiniBottom_3_034
// 043   ----------------------------------------
	BYTE	W96
// 044   ----------------------------------------
	BYTE	PATT
	 POIN2	BattleForBikiniBottomBikiniBottom_3_036
// 045   ----------------------------------------
	BYTE	W96
// 046   ----------------------------------------
	BYTE	PATT
	 POIN2	BattleForBikiniBottomBikiniBottom_3_038
// 047   ----------------------------------------
	BYTE	W96
// 048   ----------------------------------------
	BYTE	PATT
	 POIN2	BattleForBikiniBottomBikiniBottom_3_016
// 049   ----------------------------------------
	BYTE	PATT
	 POIN2	BattleForBikiniBottomBikiniBottom_3_017
// 050   ----------------------------------------
	BYTE	PATT
	 POIN2	BattleForBikiniBottomBikiniBottom_3_018
// 051   ----------------------------------------
	BYTE		N96     Gn3   v076
	BYTE	W96
// 052   ----------------------------------------
	BYTE	PATT
	 POIN2	BattleForBikiniBottomBikiniBottom_3_020
// 053   ----------------------------------------
	BYTE	PATT
	 POIN2	BattleForBikiniBottomBikiniBottom_3_021
// 054   ----------------------------------------
	BYTE	PATT
	 POIN2	BattleForBikiniBottomBikiniBottom_3_022
// 055   ----------------------------------------
	BYTE		N96     Dn3   v076
	BYTE	W96
// 056   ----------------------------------------
	BYTE	PATT
	 POIN2	BattleForBikiniBottomBikiniBottom_3_016
// 057   ----------------------------------------
	BYTE	PATT
	 POIN2	BattleForBikiniBottomBikiniBottom_3_017
// 058   ----------------------------------------
	BYTE	PATT
	 POIN2	BattleForBikiniBottomBikiniBottom_3_026
// 059   ----------------------------------------
	BYTE	PATT
	 POIN2	BattleForBikiniBottomBikiniBottom_3_027
// 060   ----------------------------------------
	BYTE	PATT
	 POIN2	BattleForBikiniBottomBikiniBottom_3_028
// 061   ----------------------------------------
	BYTE	PATT
	 POIN2	BattleForBikiniBottomBikiniBottom_3_029
// 062   ----------------------------------------
	BYTE	PATT
	 POIN2	BattleForBikiniBottomBikiniBottom_3_030
// 063   ----------------------------------------
	BYTE	W96
	BYTE		EOT     Gn3 
	BYTE	GoTo
	 POIN2	BattleForBikiniBottomBikiniBottom_3_B1
BattleForBikiniBottomBikiniBottom_3_B2:
// 064   ----------------------------------------
	BYTE	FINE

//**************** Track 4 (Midi-Chn.4) ****************//

BattleForBikiniBottomBikiniBottom_4:
	BYTE	KEYSH   BattleForBikiniBottomBikiniBottom_key+0
BattleForBikiniBottomBikiniBottom_4_B1:
// 000   ----------------------------------------
	BYTE		VOICE   13
	BYTE		MODT    0
	BYTE		LFOS    44
	BYTE		VOL     72*BattleForBikiniBottomBikiniBottom_mvl/mxv
	BYTE	W48
	BYTE		N12     Dn3   v044
	BYTE		N12     Gn3 
	BYTE		N12     Bn3 
	BYTE	W12
	BYTE		        Dn3 
	BYTE		N12     Gn3 
	BYTE		N12     Bn3 
	BYTE	W36
// 001   ----------------------------------------
BattleForBikiniBottomBikiniBottom_4_001:
	BYTE		N12     Dn3   v044
	BYTE		N12     Gn3 
	BYTE		N12     Bn3 
	BYTE	W48
	BYTE		        Dn3 
	BYTE		N12     Gn3 
	BYTE		N12     Bn3 
	BYTE	W12
	BYTE		        Dn3 
	BYTE		N12     Gn3 
	BYTE		N12     Bn3 
	BYTE	W36
	BYTE	PEND
// 002   ----------------------------------------
BattleForBikiniBottomBikiniBottom_4_002:
	BYTE		N12     Dn3   v044
	BYTE		N12     Gn3 
	BYTE		N12     Bn3 
	BYTE	W48
	BYTE		        Gn2 
	BYTE		N12     Cn3 
	BYTE		N12     En3 
	BYTE	W12
	BYTE		        Gn2 
	BYTE		N12     Cn3 
	BYTE		N12     En3 
	BYTE	W36
	BYTE	PEND
// 003   ----------------------------------------
BattleForBikiniBottomBikiniBottom_4_003:
	BYTE		N12     Gn2   v044
	BYTE		N12     Cn3 
	BYTE		N12     En3 
	BYTE	W48
	BYTE		        Gn2 
	BYTE		N12     Cn3 
	BYTE		N12     En3 
	BYTE	W12
	BYTE		        Gn2 
	BYTE		N12     Cn3 
	BYTE		N12     En3 
	BYTE	W36
	BYTE	PEND
// 004   ----------------------------------------
BattleForBikiniBottomBikiniBottom_4_004:
	BYTE		N12     Gn2   v044
	BYTE		N12     Cn3 
	BYTE		N12     En3 
	BYTE	W48
	BYTE		        An2 
	BYTE		N12     Dn3 
	BYTE		N12     Fs3 
	BYTE	W12
	BYTE		        An2 
	BYTE		N12     Dn3 
	BYTE		N12     Fs3 
	BYTE	W36
	BYTE	PEND
// 005   ----------------------------------------
BattleForBikiniBottomBikiniBottom_4_005:
	BYTE		N12     An2   v044
	BYTE		N12     Dn3 
	BYTE		N12     Fs3 
	BYTE	W48
	BYTE		        An2 
	BYTE		N12     Dn3 
	BYTE		N12     Fs3 
	BYTE	W12
	BYTE		        An2 
	BYTE		N12     Dn3 
	BYTE		N12     Fs3 
	BYTE	W36
	BYTE	PEND
// 006   ----------------------------------------
BattleForBikiniBottomBikiniBottom_4_006:
	BYTE		N12     An2   v044
	BYTE		N12     Dn3 
	BYTE		N12     Fs3 
	BYTE	W48
	BYTE		        Gn2 
	BYTE		N12     Bn2 
	BYTE		N12     Dn3 
	BYTE	W12
	BYTE		        Gn2 
	BYTE		N12     Bn2 
	BYTE		N12     Dn3 
	BYTE	W36
	BYTE	PEND
// 007   ----------------------------------------
BattleForBikiniBottomBikiniBottom_4_007:
	BYTE		N12     Gn2   v044
	BYTE		N12     Bn2 
	BYTE		N12     Dn3 
	BYTE	W48
	BYTE		        Gn2 
	BYTE		N12     Bn2 
	BYTE		N12     Dn3 
	BYTE	W12
	BYTE		        Gn2 
	BYTE		N12     Bn2 
	BYTE		N12     Dn3 
	BYTE	W36
	BYTE	PEND
// 008   ----------------------------------------
BattleForBikiniBottomBikiniBottom_4_008:
	BYTE		N12     Gn2   v044
	BYTE		N12     Bn2 
	BYTE		N12     Dn3 
	BYTE	W48
	BYTE		N12   
	BYTE		N12     Gn3 
	BYTE		N12     Bn3 
	BYTE	W12
	BYTE		        Dn3 
	BYTE		N12     Gn3 
	BYTE		N12     Bn3 
	BYTE	W36
	BYTE	PEND
// 009   ----------------------------------------
	BYTE	PATT
	 POIN2	BattleForBikiniBottomBikiniBottom_4_001
// 010   ----------------------------------------
	BYTE	PATT
	 POIN2	BattleForBikiniBottomBikiniBottom_4_002
// 011   ----------------------------------------
	BYTE	PATT
	 POIN2	BattleForBikiniBottomBikiniBottom_4_003
// 012   ----------------------------------------
	BYTE	PATT
	 POIN2	BattleForBikiniBottomBikiniBottom_4_004
// 013   ----------------------------------------
	BYTE	PATT
	 POIN2	BattleForBikiniBottomBikiniBottom_4_005
// 014   ----------------------------------------
BattleForBikiniBottomBikiniBottom_4_014:
	BYTE		N12     An2   v044
	BYTE		N12     Dn3 
	BYTE		N12     Fs3 
	BYTE	W48
	BYTE		        Bn2 
	BYTE		N12     Dn3 
	BYTE		N12     Gn3 
	BYTE	W12
	BYTE		        Bn2 
	BYTE		N12     Dn3 
	BYTE		N12     Gn3 
	BYTE	W36
	BYTE	PEND
// 015   ----------------------------------------
BattleForBikiniBottomBikiniBottom_4_015:
	BYTE		N12     Bn2   v044
	BYTE		N12     Dn3 
	BYTE		N12     Gn3 
	BYTE	W48
	BYTE		        Bn2 
	BYTE		N12     Dn3 
	BYTE		N12     Gn3 
	BYTE	W12
	BYTE		        Bn2 
	BYTE		N12     Dn3 
	BYTE		N12     Gn3 
	BYTE	W36
	BYTE	PEND
// 016   ----------------------------------------
BattleForBikiniBottomBikiniBottom_4_016:
	BYTE		N12     Bn2   v044
	BYTE		N12     Dn3 
	BYTE		N12     Gn3 
	BYTE	W48
	BYTE		        En3 
	BYTE		N12     Gn3 
	BYTE		N12     Cn4 
	BYTE	W12
	BYTE		        En3 
	BYTE		N12     Gn3 
	BYTE		N12     Cn4 
	BYTE	W36
	BYTE	PEND
// 017   ----------------------------------------
BattleForBikiniBottomBikiniBottom_4_017:
	BYTE		N12     En3   v044
	BYTE		N12     Gn3 
	BYTE		N12     Cn4 
	BYTE	W48
	BYTE		        En3 
	BYTE		N12     Gn3 
	BYTE		N12     Cn4 
	BYTE	W12
	BYTE		        En3 
	BYTE		N12     Gn3 
	BYTE		N12     Cn4 
	BYTE	W36
	BYTE	PEND
// 018   ----------------------------------------
BattleForBikiniBottomBikiniBottom_4_018:
	BYTE		N12     En3   v044
	BYTE		N12     Gn3 
	BYTE		N12     Cn4 
	BYTE	W48
	BYTE		        Dn3 
	BYTE		N12     Gn3 
	BYTE		N12     Bn3 
	BYTE	W12
	BYTE		        Dn3 
	BYTE		N12     Gn3 
	BYTE		N12     Bn3 
	BYTE	W36
	BYTE	PEND
// 019   ----------------------------------------
	BYTE	PATT
	 POIN2	BattleForBikiniBottomBikiniBottom_4_001
// 020   ----------------------------------------
BattleForBikiniBottomBikiniBottom_4_020:
	BYTE		N12     Dn3   v044
	BYTE		N12     Gn3 
	BYTE		N12     Bn3 
	BYTE	W48
	BYTE		        Dn3 
	BYTE		N12     Fs3 
	BYTE		N12     An3 
	BYTE	W12
	BYTE		        Dn3 
	BYTE		N12     Fs3 
	BYTE		N12     An3 
	BYTE	W36
	BYTE	PEND
// 021   ----------------------------------------
BattleForBikiniBottomBikiniBottom_4_021:
	BYTE		N12     Dn3   v044
	BYTE		N12     Fs3 
	BYTE		N12     An3 
	BYTE	W48
	BYTE		        Dn3 
	BYTE		N12     Fs3 
	BYTE		N12     An3 
	BYTE	W12
	BYTE		        Dn3 
	BYTE		N12     Fs3 
	BYTE		N12     An3 
	BYTE	W36
	BYTE	PEND
// 022   ----------------------------------------
BattleForBikiniBottomBikiniBottom_4_022:
	BYTE		N12     Dn3   v044
	BYTE		N12     Fs3 
	BYTE		N12     An3 
	BYTE	W48
	BYTE		        Dn3 
	BYTE		N12     Gn3 
	BYTE		N12     Bn3 
	BYTE	W12
	BYTE		        Dn3 
	BYTE		N12     Gn3 
	BYTE		N12     Bn3 
	BYTE	W36
	BYTE	PEND
// 023   ----------------------------------------
	BYTE	PATT
	 POIN2	BattleForBikiniBottomBikiniBottom_4_001
// 024   ----------------------------------------
BattleForBikiniBottomBikiniBottom_4_024:
	BYTE		N12     Dn3   v044
	BYTE		N12     Gn3 
	BYTE		N12     Bn3 
	BYTE	W48
	BYTE		        En3 
	BYTE		N12     Gn3 
	BYTE		N12     Cn4 
	BYTE	W12
	BYTE		        En3 
	BYTE		N12     Gn3 
	BYTE		N12     Cn4 
	BYTE	W36
	BYTE	PEND
// 025   ----------------------------------------
	BYTE	PATT
	 POIN2	BattleForBikiniBottomBikiniBottom_4_017
// 026   ----------------------------------------
	BYTE	PATT
	 POIN2	BattleForBikiniBottomBikiniBottom_4_018
// 027   ----------------------------------------
	BYTE	PATT
	 POIN2	BattleForBikiniBottomBikiniBottom_4_001
// 028   ----------------------------------------
	BYTE	PATT
	 POIN2	BattleForBikiniBottomBikiniBottom_4_020
// 029   ----------------------------------------
	BYTE	PATT
	 POIN2	BattleForBikiniBottomBikiniBottom_4_021
// 030   ----------------------------------------
	BYTE	PATT
	 POIN2	BattleForBikiniBottomBikiniBottom_4_022
// 031   ----------------------------------------
	BYTE	PATT
	 POIN2	BattleForBikiniBottomBikiniBottom_4_001
// 032   ----------------------------------------
	BYTE	PATT
	 POIN2	BattleForBikiniBottomBikiniBottom_4_001
// 033   ----------------------------------------
	BYTE	PATT
	 POIN2	BattleForBikiniBottomBikiniBottom_4_001
// 034   ----------------------------------------
	BYTE	PATT
	 POIN2	BattleForBikiniBottomBikiniBottom_4_002
// 035   ----------------------------------------
	BYTE	PATT
	 POIN2	BattleForBikiniBottomBikiniBottom_4_003
// 036   ----------------------------------------
	BYTE	PATT
	 POIN2	BattleForBikiniBottomBikiniBottom_4_004
// 037   ----------------------------------------
	BYTE	PATT
	 POIN2	BattleForBikiniBottomBikiniBottom_4_005
// 038   ----------------------------------------
	BYTE	PATT
	 POIN2	BattleForBikiniBottomBikiniBottom_4_006
// 039   ----------------------------------------
	BYTE	PATT
	 POIN2	BattleForBikiniBottomBikiniBottom_4_007
// 040   ----------------------------------------
	BYTE	PATT
	 POIN2	BattleForBikiniBottomBikiniBottom_4_008
// 041   ----------------------------------------
	BYTE	PATT
	 POIN2	BattleForBikiniBottomBikiniBottom_4_001
// 042   ----------------------------------------
	BYTE	PATT
	 POIN2	BattleForBikiniBottomBikiniBottom_4_002
// 043   ----------------------------------------
	BYTE	PATT
	 POIN2	BattleForBikiniBottomBikiniBottom_4_003
// 044   ----------------------------------------
	BYTE	PATT
	 POIN2	BattleForBikiniBottomBikiniBottom_4_004
// 045   ----------------------------------------
	BYTE	PATT
	 POIN2	BattleForBikiniBottomBikiniBottom_4_005
// 046   ----------------------------------------
	BYTE	PATT
	 POIN2	BattleForBikiniBottomBikiniBottom_4_014
// 047   ----------------------------------------
	BYTE	PATT
	 POIN2	BattleForBikiniBottomBikiniBottom_4_015
// 048   ----------------------------------------
	BYTE	PATT
	 POIN2	BattleForBikiniBottomBikiniBottom_4_016
// 049   ----------------------------------------
	BYTE	PATT
	 POIN2	BattleForBikiniBottomBikiniBottom_4_017
// 050   ----------------------------------------
	BYTE	PATT
	 POIN2	BattleForBikiniBottomBikiniBottom_4_018
// 051   ----------------------------------------
	BYTE	PATT
	 POIN2	BattleForBikiniBottomBikiniBottom_4_001
// 052   ----------------------------------------
	BYTE	PATT
	 POIN2	BattleForBikiniBottomBikiniBottom_4_020
// 053   ----------------------------------------
	BYTE	PATT
	 POIN2	BattleForBikiniBottomBikiniBottom_4_021
// 054   ----------------------------------------
	BYTE	PATT
	 POIN2	BattleForBikiniBottomBikiniBottom_4_022
// 055   ----------------------------------------
	BYTE	PATT
	 POIN2	BattleForBikiniBottomBikiniBottom_4_001
// 056   ----------------------------------------
	BYTE	PATT
	 POIN2	BattleForBikiniBottomBikiniBottom_4_024
// 057   ----------------------------------------
	BYTE	PATT
	 POIN2	BattleForBikiniBottomBikiniBottom_4_017
// 058   ----------------------------------------
	BYTE	PATT
	 POIN2	BattleForBikiniBottomBikiniBottom_4_018
// 059   ----------------------------------------
	BYTE	PATT
	 POIN2	BattleForBikiniBottomBikiniBottom_4_001
// 060   ----------------------------------------
	BYTE	PATT
	 POIN2	BattleForBikiniBottomBikiniBottom_4_020
// 061   ----------------------------------------
	BYTE	PATT
	 POIN2	BattleForBikiniBottomBikiniBottom_4_021
// 062   ----------------------------------------
	BYTE	PATT
	 POIN2	BattleForBikiniBottomBikiniBottom_4_022
// 063   ----------------------------------------
	BYTE	PATT
	 POIN2	BattleForBikiniBottomBikiniBottom_4_001
	BYTE	GoTo
	 POIN2	BattleForBikiniBottomBikiniBottom_4_B1
BattleForBikiniBottomBikiniBottom_4_B2:
// 064   ----------------------------------------
	BYTE	FINE

//**************** Track 5 (Midi-Chn.5) ****************//

BattleForBikiniBottomBikiniBottom_5:
	BYTE	KEYSH   BattleForBikiniBottomBikiniBottom_key+0
BattleForBikiniBottomBikiniBottom_5_B1:
// 000   ----------------------------------------
	BYTE		VOICE   24
	BYTE		MODT    0
	BYTE		LFOS    44
	BYTE		VOL     81*BattleForBikiniBottomBikiniBottom_mvl/mxv
	BYTE	W48
	BYTE		N12     Dn3   v048
	BYTE		N12     Gn3 
	BYTE		N12     Bn3 
	BYTE	W12
	BYTE		        Dn3 
	BYTE		N12     Gn3 
	BYTE		N12     Bn3 
	BYTE	W36
// 001   ----------------------------------------
BattleForBikiniBottomBikiniBottom_5_001:
	BYTE		N12     Dn3   v048
	BYTE		N12     Gn3 
	BYTE		N12     Bn3 
	BYTE	W48
	BYTE		        Dn3 
	BYTE		N12     Gn3 
	BYTE		N12     Bn3 
	BYTE	W12
	BYTE		        Dn3 
	BYTE		N12     Gn3 
	BYTE		N12     Bn3 
	BYTE	W36
	BYTE	PEND
// 002   ----------------------------------------
BattleForBikiniBottomBikiniBottom_5_002:
	BYTE		N12     Dn3   v048
	BYTE		N12     Gn3 
	BYTE		N12     Bn3 
	BYTE	W48
	BYTE		        Gn2 
	BYTE		N12     Cn3 
	BYTE		N12     En3 
	BYTE	W12
	BYTE		        Gn2 
	BYTE		N12     Cn3 
	BYTE		N12     En3 
	BYTE	W36
	BYTE	PEND
// 003   ----------------------------------------
BattleForBikiniBottomBikiniBottom_5_003:
	BYTE		N12     Gn2   v048
	BYTE		N12     Cn3 
	BYTE		N12     En3 
	BYTE	W48
	BYTE		        Gn2 
	BYTE		N12     Cn3 
	BYTE		N12     En3 
	BYTE	W12
	BYTE		        Gn2 
	BYTE		N12     Cn3 
	BYTE		N12     En3 
	BYTE	W36
	BYTE	PEND
// 004   ----------------------------------------
BattleForBikiniBottomBikiniBottom_5_004:
	BYTE		N12     Gn2   v048
	BYTE		N12     Cn3 
	BYTE		N12     En3 
	BYTE	W48
	BYTE		        An2 
	BYTE		N12     Dn3 
	BYTE		N12     Fs3 
	BYTE	W12
	BYTE		        An2 
	BYTE		N12     Dn3 
	BYTE		N12     Fs3 
	BYTE	W36
	BYTE	PEND
// 005   ----------------------------------------
BattleForBikiniBottomBikiniBottom_5_005:
	BYTE		N12     An2   v048
	BYTE		N12     Dn3 
	BYTE		N12     Fs3 
	BYTE	W48
	BYTE		        An2 
	BYTE		N12     Dn3 
	BYTE		N12     Fs3 
	BYTE	W12
	BYTE		        An2 
	BYTE		N12     Dn3 
	BYTE		N12     Fs3 
	BYTE	W36
	BYTE	PEND
// 006   ----------------------------------------
BattleForBikiniBottomBikiniBottom_5_006:
	BYTE		N12     An2   v048
	BYTE		N12     Dn3 
	BYTE		N12     Fs3 
	BYTE	W48
	BYTE		        Gn2 
	BYTE		N12     Bn2 
	BYTE		N12     Dn3 
	BYTE	W12
	BYTE		        Gn2 
	BYTE		N12     Bn2 
	BYTE		N12     Dn3 
	BYTE	W36
	BYTE	PEND
// 007   ----------------------------------------
BattleForBikiniBottomBikiniBottom_5_007:
	BYTE		N12     Gn2   v048
	BYTE		N12     Bn2 
	BYTE		N12     Dn3 
	BYTE	W48
	BYTE		        Gn2 
	BYTE		N12     Bn2 
	BYTE		N12     Dn3 
	BYTE	W12
	BYTE		        Gn2 
	BYTE		N12     Bn2 
	BYTE		N12     Dn3 
	BYTE	W36
	BYTE	PEND
// 008   ----------------------------------------
BattleForBikiniBottomBikiniBottom_5_008:
	BYTE		N12     Gn2   v048
	BYTE		N12     Bn2 
	BYTE		N12     Dn3 
	BYTE	W48
	BYTE		N12   
	BYTE		N12     Gn3 
	BYTE		N12     Bn3 
	BYTE	W12
	BYTE		        Dn3 
	BYTE		N12     Gn3 
	BYTE		N12     Bn3 
	BYTE	W36
	BYTE	PEND
// 009   ----------------------------------------
	BYTE	PATT
	 POIN2	BattleForBikiniBottomBikiniBottom_5_001
// 010   ----------------------------------------
	BYTE	PATT
	 POIN2	BattleForBikiniBottomBikiniBottom_5_002
// 011   ----------------------------------------
	BYTE	PATT
	 POIN2	BattleForBikiniBottomBikiniBottom_5_003
// 012   ----------------------------------------
	BYTE	PATT
	 POIN2	BattleForBikiniBottomBikiniBottom_5_004
// 013   ----------------------------------------
	BYTE	PATT
	 POIN2	BattleForBikiniBottomBikiniBottom_5_005
// 014   ----------------------------------------
BattleForBikiniBottomBikiniBottom_5_014:
	BYTE		N12     An2   v048
	BYTE		N12     Dn3 
	BYTE		N12     Fs3 
	BYTE	W48
	BYTE		        Bn2 
	BYTE		N12     Dn3 
	BYTE		N12     Gn3 
	BYTE	W12
	BYTE		        Bn2 
	BYTE		N12     Dn3 
	BYTE		N12     Gn3 
	BYTE	W36
	BYTE	PEND
// 015   ----------------------------------------
BattleForBikiniBottomBikiniBottom_5_015:
	BYTE		N12     Bn2   v048
	BYTE		N12     Dn3 
	BYTE		N12     Gn3 
	BYTE	W48
	BYTE		        Bn2 
	BYTE		N12     Dn3 
	BYTE		N12     Gn3 
	BYTE	W12
	BYTE		        Bn2 
	BYTE		N12     Dn3 
	BYTE		N12     Gn3 
	BYTE	W36
	BYTE	PEND
// 016   ----------------------------------------
BattleForBikiniBottomBikiniBottom_5_016:
	BYTE		N12     Bn2   v048
	BYTE		N12     Dn3 
	BYTE		N12     Gn3 
	BYTE	W48
	BYTE		        En3 
	BYTE		N12     Gn3 
	BYTE		N12     Cn4 
	BYTE	W12
	BYTE		        En3 
	BYTE		N12     Gn3 
	BYTE		N12     Cn4 
	BYTE	W36
	BYTE	PEND
// 017   ----------------------------------------
BattleForBikiniBottomBikiniBottom_5_017:
	BYTE		N12     En3   v048
	BYTE		N12     Gn3 
	BYTE		N12     Cn4 
	BYTE	W48
	BYTE		        En3 
	BYTE		N12     Gn3 
	BYTE		N12     Cn4 
	BYTE	W12
	BYTE		        En3 
	BYTE		N12     Gn3 
	BYTE		N12     Cn4 
	BYTE	W36
	BYTE	PEND
// 018   ----------------------------------------
BattleForBikiniBottomBikiniBottom_5_018:
	BYTE		N12     En3   v048
	BYTE		N12     Gn3 
	BYTE		N12     Cn4 
	BYTE	W48
	BYTE		        Dn3 
	BYTE		N12     Gn3 
	BYTE		N12     Bn3 
	BYTE	W12
	BYTE		        Dn3 
	BYTE		N12     Gn3 
	BYTE		N12     Bn3 
	BYTE	W36
	BYTE	PEND
// 019   ----------------------------------------
	BYTE	PATT
	 POIN2	BattleForBikiniBottomBikiniBottom_5_001
// 020   ----------------------------------------
BattleForBikiniBottomBikiniBottom_5_020:
	BYTE		N12     Dn3   v048
	BYTE		N12     Gn3 
	BYTE		N12     Bn3 
	BYTE	W48
	BYTE		        Dn3 
	BYTE		N12     Fs3 
	BYTE		N12     An3 
	BYTE	W12
	BYTE		        Dn3 
	BYTE		N12     Fs3 
	BYTE		N12     An3 
	BYTE	W36
	BYTE	PEND
// 021   ----------------------------------------
BattleForBikiniBottomBikiniBottom_5_021:
	BYTE		N12     Dn3   v048
	BYTE		N12     Fs3 
	BYTE		N12     An3 
	BYTE	W48
	BYTE		        Dn3 
	BYTE		N12     Fs3 
	BYTE		N12     An3 
	BYTE	W12
	BYTE		        Dn3 
	BYTE		N12     Fs3 
	BYTE		N12     An3 
	BYTE	W36
	BYTE	PEND
// 022   ----------------------------------------
BattleForBikiniBottomBikiniBottom_5_022:
	BYTE		N12     Dn3   v048
	BYTE		N12     Fs3 
	BYTE		N12     An3 
	BYTE	W48
	BYTE		        Dn3 
	BYTE		N12     Gn3 
	BYTE		N12     Bn3 
	BYTE	W12
	BYTE		        Dn3 
	BYTE		N12     Gn3 
	BYTE		N12     Bn3 
	BYTE	W36
	BYTE	PEND
// 023   ----------------------------------------
	BYTE	PATT
	 POIN2	BattleForBikiniBottomBikiniBottom_5_001
// 024   ----------------------------------------
BattleForBikiniBottomBikiniBottom_5_024:
	BYTE		N12     Dn3   v048
	BYTE		N12     Gn3 
	BYTE		N12     Bn3 
	BYTE	W48
	BYTE		        En3 
	BYTE		N12     Gn3 
	BYTE		N12     Cn4 
	BYTE	W12
	BYTE		        En3 
	BYTE		N12     Gn3 
	BYTE		N12     Cn4 
	BYTE	W36
	BYTE	PEND
// 025   ----------------------------------------
	BYTE	PATT
	 POIN2	BattleForBikiniBottomBikiniBottom_5_017
// 026   ----------------------------------------
	BYTE	PATT
	 POIN2	BattleForBikiniBottomBikiniBottom_5_018
// 027   ----------------------------------------
	BYTE	PATT
	 POIN2	BattleForBikiniBottomBikiniBottom_5_001
// 028   ----------------------------------------
	BYTE	PATT
	 POIN2	BattleForBikiniBottomBikiniBottom_5_020
// 029   ----------------------------------------
	BYTE	PATT
	 POIN2	BattleForBikiniBottomBikiniBottom_5_021
// 030   ----------------------------------------
	BYTE	PATT
	 POIN2	BattleForBikiniBottomBikiniBottom_5_022
// 031   ----------------------------------------
	BYTE	PATT
	 POIN2	BattleForBikiniBottomBikiniBottom_5_001
// 032   ----------------------------------------
	BYTE	PATT
	 POIN2	BattleForBikiniBottomBikiniBottom_5_001
// 033   ----------------------------------------
	BYTE	PATT
	 POIN2	BattleForBikiniBottomBikiniBottom_5_001
// 034   ----------------------------------------
	BYTE	PATT
	 POIN2	BattleForBikiniBottomBikiniBottom_5_002
// 035   ----------------------------------------
	BYTE	PATT
	 POIN2	BattleForBikiniBottomBikiniBottom_5_003
// 036   ----------------------------------------
	BYTE	PATT
	 POIN2	BattleForBikiniBottomBikiniBottom_5_004
// 037   ----------------------------------------
	BYTE	PATT
	 POIN2	BattleForBikiniBottomBikiniBottom_5_005
// 038   ----------------------------------------
	BYTE	PATT
	 POIN2	BattleForBikiniBottomBikiniBottom_5_006
// 039   ----------------------------------------
	BYTE	PATT
	 POIN2	BattleForBikiniBottomBikiniBottom_5_007
// 040   ----------------------------------------
	BYTE	PATT
	 POIN2	BattleForBikiniBottomBikiniBottom_5_008
// 041   ----------------------------------------
	BYTE	PATT
	 POIN2	BattleForBikiniBottomBikiniBottom_5_001
// 042   ----------------------------------------
	BYTE	PATT
	 POIN2	BattleForBikiniBottomBikiniBottom_5_002
// 043   ----------------------------------------
	BYTE	PATT
	 POIN2	BattleForBikiniBottomBikiniBottom_5_003
// 044   ----------------------------------------
	BYTE	PATT
	 POIN2	BattleForBikiniBottomBikiniBottom_5_004
// 045   ----------------------------------------
	BYTE	PATT
	 POIN2	BattleForBikiniBottomBikiniBottom_5_005
// 046   ----------------------------------------
	BYTE	PATT
	 POIN2	BattleForBikiniBottomBikiniBottom_5_014
// 047   ----------------------------------------
	BYTE	PATT
	 POIN2	BattleForBikiniBottomBikiniBottom_5_015
// 048   ----------------------------------------
	BYTE	PATT
	 POIN2	BattleForBikiniBottomBikiniBottom_5_016
// 049   ----------------------------------------
	BYTE	PATT
	 POIN2	BattleForBikiniBottomBikiniBottom_5_017
// 050   ----------------------------------------
	BYTE	PATT
	 POIN2	BattleForBikiniBottomBikiniBottom_5_018
// 051   ----------------------------------------
	BYTE	PATT
	 POIN2	BattleForBikiniBottomBikiniBottom_5_001
// 052   ----------------------------------------
	BYTE	PATT
	 POIN2	BattleForBikiniBottomBikiniBottom_5_020
// 053   ----------------------------------------
	BYTE	PATT
	 POIN2	BattleForBikiniBottomBikiniBottom_5_021
// 054   ----------------------------------------
	BYTE	PATT
	 POIN2	BattleForBikiniBottomBikiniBottom_5_022
// 055   ----------------------------------------
	BYTE	PATT
	 POIN2	BattleForBikiniBottomBikiniBottom_5_001
// 056   ----------------------------------------
	BYTE	PATT
	 POIN2	BattleForBikiniBottomBikiniBottom_5_024
// 057   ----------------------------------------
	BYTE	PATT
	 POIN2	BattleForBikiniBottomBikiniBottom_5_017
// 058   ----------------------------------------
	BYTE	PATT
	 POIN2	BattleForBikiniBottomBikiniBottom_5_018
// 059   ----------------------------------------
	BYTE	PATT
	 POIN2	BattleForBikiniBottomBikiniBottom_5_001
// 060   ----------------------------------------
	BYTE	PATT
	 POIN2	BattleForBikiniBottomBikiniBottom_5_020
// 061   ----------------------------------------
	BYTE	PATT
	 POIN2	BattleForBikiniBottomBikiniBottom_5_021
// 062   ----------------------------------------
	BYTE	PATT
	 POIN2	BattleForBikiniBottomBikiniBottom_5_022
// 063   ----------------------------------------
	BYTE	PATT
	 POIN2	BattleForBikiniBottomBikiniBottom_5_001
	BYTE	GoTo
	 POIN2	BattleForBikiniBottomBikiniBottom_5_B1
BattleForBikiniBottomBikiniBottom_5_B2:
// 064   ----------------------------------------
	BYTE	FINE

//**************** Track 6 (Midi-Chn.6) ****************//

BattleForBikiniBottomBikiniBottom_6:
	BYTE		VOL     127*BattleForBikiniBottomBikiniBottom_mvl/mxv
	BYTE	KEYSH   BattleForBikiniBottomBikiniBottom_key+0
BattleForBikiniBottomBikiniBottom_6_B1:
// 000   ----------------------------------------
	BYTE		VOICE   36
	BYTE		MODT    0
	BYTE		LFOS    44
	BYTE	W24
	BYTE		N48     Gn2   v048
	BYTE	W48
	BYTE		        Dn2 
	BYTE	W24
// 001   ----------------------------------------
BattleForBikiniBottomBikiniBottom_6_001:
	BYTE	W24
	BYTE		N48     Gn2   v048
	BYTE	W48
	BYTE		N24     Dn2 
	BYTE	W24
	BYTE	PEND
// 002   ----------------------------------------
BattleForBikiniBottomBikiniBottom_6_002:
	BYTE		N24     Gn2   v048
	BYTE	W24
	BYTE		N48     Cn2 
	BYTE	W48
	BYTE		        Gn2 
	BYTE	W24
	BYTE	PEND
// 003   ----------------------------------------
BattleForBikiniBottomBikiniBottom_6_003:
	BYTE	W24
	BYTE		N24     Cn2   v048
	BYTE	W24
	BYTE		        Cn3 
	BYTE	W24
	BYTE		        Gn2 
	BYTE	W24
	BYTE	PEND
// 004   ----------------------------------------
BattleForBikiniBottomBikiniBottom_6_004:
	BYTE		N24     Cn2   v048
	BYTE	W24
	BYTE		N48     Dn2 
	BYTE	W48
	BYTE		        An2 
	BYTE	W24
	BYTE	PEND
// 005   ----------------------------------------
BattleForBikiniBottomBikiniBottom_6_005:
	BYTE	W24
	BYTE		N48     Dn2   v048
	BYTE	W48
	BYTE		        An2 
	BYTE	W24
	BYTE	PEND
// 006   ----------------------------------------
BattleForBikiniBottomBikiniBottom_6_006:
	BYTE	W24
	BYTE		N48     Gn2   v048
	BYTE	W48
	BYTE		        Dn2 
	BYTE	W24
	BYTE	PEND
// 007   ----------------------------------------
	BYTE	PATT
	 POIN2	BattleForBikiniBottomBikiniBottom_6_006
// 008   ----------------------------------------
	BYTE	PATT
	 POIN2	BattleForBikiniBottomBikiniBottom_6_006
// 009   ----------------------------------------
	BYTE	PATT
	 POIN2	BattleForBikiniBottomBikiniBottom_6_001
// 010   ----------------------------------------
	BYTE	PATT
	 POIN2	BattleForBikiniBottomBikiniBottom_6_002
// 011   ----------------------------------------
	BYTE	PATT
	 POIN2	BattleForBikiniBottomBikiniBottom_6_003
// 012   ----------------------------------------
	BYTE	PATT
	 POIN2	BattleForBikiniBottomBikiniBottom_6_004
// 013   ----------------------------------------
	BYTE	PATT
	 POIN2	BattleForBikiniBottomBikiniBottom_6_005
// 014   ----------------------------------------
	BYTE	PATT
	 POIN2	BattleForBikiniBottomBikiniBottom_6_006
// 015   ----------------------------------------
	BYTE	PATT
	 POIN2	BattleForBikiniBottomBikiniBottom_6_006
// 016   ----------------------------------------
BattleForBikiniBottomBikiniBottom_6_016:
	BYTE	W24
	BYTE		N48     Cn2   v048
	BYTE	W48
	BYTE		        Gn2 
	BYTE	W24
	BYTE	PEND
// 017   ----------------------------------------
	BYTE	PATT
	 POIN2	BattleForBikiniBottomBikiniBottom_6_016
// 018   ----------------------------------------
BattleForBikiniBottomBikiniBottom_6_018:
	BYTE	W24
	BYTE		N48     Gn1   v048
	BYTE	W48
	BYTE		        Dn2 
	BYTE	W24
	BYTE	PEND
// 019   ----------------------------------------
	BYTE	PATT
	 POIN2	BattleForBikiniBottomBikiniBottom_6_018
// 020   ----------------------------------------
BattleForBikiniBottomBikiniBottom_6_020:
	BYTE	W24
	BYTE		N48     An1   v048
	BYTE	W48
	BYTE		        Fs2 
	BYTE	W24
	BYTE	PEND
// 021   ----------------------------------------
	BYTE	PATT
	 POIN2	BattleForBikiniBottomBikiniBottom_6_020
// 022   ----------------------------------------
	BYTE	PATT
	 POIN2	BattleForBikiniBottomBikiniBottom_6_018
// 023   ----------------------------------------
	BYTE	PATT
	 POIN2	BattleForBikiniBottomBikiniBottom_6_018
// 024   ----------------------------------------
	BYTE	PATT
	 POIN2	BattleForBikiniBottomBikiniBottom_6_016
// 025   ----------------------------------------
	BYTE	PATT
	 POIN2	BattleForBikiniBottomBikiniBottom_6_016
// 026   ----------------------------------------
	BYTE	PATT
	 POIN2	BattleForBikiniBottomBikiniBottom_6_018
// 027   ----------------------------------------
	BYTE	PATT
	 POIN2	BattleForBikiniBottomBikiniBottom_6_018
// 028   ----------------------------------------
	BYTE	PATT
	 POIN2	BattleForBikiniBottomBikiniBottom_6_020
// 029   ----------------------------------------
	BYTE	PATT
	 POIN2	BattleForBikiniBottomBikiniBottom_6_020
// 030   ----------------------------------------
	BYTE	PATT
	 POIN2	BattleForBikiniBottomBikiniBottom_6_018
// 031   ----------------------------------------
	BYTE	PATT
	 POIN2	BattleForBikiniBottomBikiniBottom_6_018
// 032   ----------------------------------------
	BYTE	PATT
	 POIN2	BattleForBikiniBottomBikiniBottom_6_006
// 033   ----------------------------------------
	BYTE	PATT
	 POIN2	BattleForBikiniBottomBikiniBottom_6_001
// 034   ----------------------------------------
	BYTE	PATT
	 POIN2	BattleForBikiniBottomBikiniBottom_6_002
// 035   ----------------------------------------
	BYTE	PATT
	 POIN2	BattleForBikiniBottomBikiniBottom_6_003
// 036   ----------------------------------------
	BYTE	PATT
	 POIN2	BattleForBikiniBottomBikiniBottom_6_004
// 037   ----------------------------------------
	BYTE	PATT
	 POIN2	BattleForBikiniBottomBikiniBottom_6_005
// 038   ----------------------------------------
	BYTE	PATT
	 POIN2	BattleForBikiniBottomBikiniBottom_6_006
// 039   ----------------------------------------
	BYTE	PATT
	 POIN2	BattleForBikiniBottomBikiniBottom_6_006
// 040   ----------------------------------------
	BYTE	PATT
	 POIN2	BattleForBikiniBottomBikiniBottom_6_006
// 041   ----------------------------------------
	BYTE	PATT
	 POIN2	BattleForBikiniBottomBikiniBottom_6_001
// 042   ----------------------------------------
	BYTE	PATT
	 POIN2	BattleForBikiniBottomBikiniBottom_6_002
// 043   ----------------------------------------
	BYTE	PATT
	 POIN2	BattleForBikiniBottomBikiniBottom_6_003
// 044   ----------------------------------------
	BYTE	PATT
	 POIN2	BattleForBikiniBottomBikiniBottom_6_004
// 045   ----------------------------------------
	BYTE	PATT
	 POIN2	BattleForBikiniBottomBikiniBottom_6_005
// 046   ----------------------------------------
	BYTE	PATT
	 POIN2	BattleForBikiniBottomBikiniBottom_6_006
// 047   ----------------------------------------
	BYTE	PATT
	 POIN2	BattleForBikiniBottomBikiniBottom_6_006
// 048   ----------------------------------------
	BYTE	PATT
	 POIN2	BattleForBikiniBottomBikiniBottom_6_016
// 049   ----------------------------------------
	BYTE	PATT
	 POIN2	BattleForBikiniBottomBikiniBottom_6_016
// 050   ----------------------------------------
	BYTE	PATT
	 POIN2	BattleForBikiniBottomBikiniBottom_6_018
// 051   ----------------------------------------
	BYTE	PATT
	 POIN2	BattleForBikiniBottomBikiniBottom_6_018
// 052   ----------------------------------------
	BYTE	PATT
	 POIN2	BattleForBikiniBottomBikiniBottom_6_020
// 053   ----------------------------------------
	BYTE	PATT
	 POIN2	BattleForBikiniBottomBikiniBottom_6_020
// 054   ----------------------------------------
	BYTE	PATT
	 POIN2	BattleForBikiniBottomBikiniBottom_6_018
// 055   ----------------------------------------
	BYTE	PATT
	 POIN2	BattleForBikiniBottomBikiniBottom_6_018
// 056   ----------------------------------------
	BYTE	PATT
	 POIN2	BattleForBikiniBottomBikiniBottom_6_016
// 057   ----------------------------------------
	BYTE	PATT
	 POIN2	BattleForBikiniBottomBikiniBottom_6_016
// 058   ----------------------------------------
	BYTE	PATT
	 POIN2	BattleForBikiniBottomBikiniBottom_6_018
// 059   ----------------------------------------
	BYTE	PATT
	 POIN2	BattleForBikiniBottomBikiniBottom_6_018
// 060   ----------------------------------------
	BYTE	PATT
	 POIN2	BattleForBikiniBottomBikiniBottom_6_020
// 061   ----------------------------------------
	BYTE	PATT
	 POIN2	BattleForBikiniBottomBikiniBottom_6_020
// 062   ----------------------------------------
	BYTE	PATT
	 POIN2	BattleForBikiniBottomBikiniBottom_6_018
// 063   ----------------------------------------
	BYTE	W24
	BYTE		N48     Gn1   v048
	BYTE	W72
	BYTE	GoTo
	 POIN2	BattleForBikiniBottomBikiniBottom_6_B1
BattleForBikiniBottomBikiniBottom_6_B2:
// 064   ----------------------------------------
	BYTE	FINE

//**************** Track 7 (Midi-Chn.7) ****************//

BattleForBikiniBottomBikiniBottom_7:
	BYTE	KEYSH   BattleForBikiniBottomBikiniBottom_key+0
BattleForBikiniBottomBikiniBottom_7_B1:
// 000   ----------------------------------------
	BYTE		VOICE   28
	BYTE		MODT    0
	BYTE		LFOS    44
	BYTE		VOL     85*BattleForBikiniBottomBikiniBottom_mvl/mxv
	BYTE	W24
	BYTE		N06     Gn3   v032
	BYTE		N06     Bn3 
	BYTE	W06
	BYTE		        Gn3 
	BYTE		N06     Bn3 
	BYTE	W06
	BYTE		        Gn3 
	BYTE		N06     Bn3 
	BYTE	W06
	BYTE		        Gn3 
	BYTE		N06     Bn3 
	BYTE	W06
	BYTE		        Gn3 
	BYTE		N06     Bn3 
	BYTE	W06
	BYTE		        Gn3 
	BYTE		N06     Bn3 
	BYTE	W06
	BYTE		        Gn3 
	BYTE		N06     Bn3 
	BYTE	W06
	BYTE		        Gn3 
	BYTE		N06     Bn3 
	BYTE	W06
	BYTE		        Gn3 
	BYTE		N06     Bn3 
	BYTE	W06
	BYTE		        Gn3 
	BYTE		N06     Bn3 
	BYTE	W06
	BYTE		N06   
	BYTE	W06
	BYTE		N06   
	BYTE	W06
// 001   ----------------------------------------
	BYTE		        Gn3 
	BYTE		N06     Bn3 
	BYTE	W06
	BYTE		N06   
	BYTE	W06
	BYTE		        Gn3 
	BYTE		N06     Bn3 
	BYTE	W06
	BYTE		        Gn3 
	BYTE		N06     Bn3 
	BYTE	W06
	BYTE		        Gn3 
	BYTE		N06     Bn3 
	BYTE	W06
	BYTE		        Gn3 
	BYTE		N06     Bn3 
	BYTE	W06
	BYTE		        Gn3 
	BYTE		N06     Bn3 
	BYTE	W06
	BYTE		        Gn3 
	BYTE		N06     Bn3 
	BYTE	W06
	BYTE		        Gn3 
	BYTE		N06     Bn3 
	BYTE	W06
	BYTE		        Gn3 
	BYTE		N06     Bn3 
	BYTE	W06
	BYTE		        Gn3 
	BYTE		N06     Bn3 
	BYTE	W06
	BYTE		        Gn3 
	BYTE		N06     Bn3 
	BYTE	W06
	BYTE		        Gn3 
	BYTE		N06     Bn3 
	BYTE	W06
	BYTE		        Gn3 
	BYTE		N06     Bn3 
	BYTE	W06
	BYTE		        Gn3 
	BYTE		N06     Bn3 
	BYTE	W06
	BYTE		        Gn3 
	BYTE		N06     Bn3 
	BYTE	W06
// 002   ----------------------------------------
	BYTE		        Gn3 
	BYTE		N06     Bn3 
	BYTE	W06
	BYTE		        Gn3 
	BYTE		N06     Bn3 
	BYTE	W06
	BYTE		        Gn3 
	BYTE		N06     Bn3 
	BYTE	W06
	BYTE		        Gn3 
	BYTE		N06     Bn3 
	BYTE	W06
	BYTE		        Cn3 
	BYTE		N06     En3 
	BYTE	W06
	BYTE		        Cn3 
	BYTE	W06
	BYTE		N06   
	BYTE	W06
	BYTE		N06   
	BYTE	W12
	BYTE		N06   
	BYTE	W12
	BYTE		N06   
	BYTE	W06
	BYTE		N06   
	BYTE	W06
	BYTE		N06   
	BYTE	W06
	BYTE		N06   
	BYTE	W06
	BYTE		N06   
	BYTE	W06
// 003   ----------------------------------------
	BYTE		N06   
	BYTE	W06
	BYTE		N06   
	BYTE	W06
	BYTE		N06   
	BYTE		N06     En3 
	BYTE	W06
	BYTE		        Cn3 
	BYTE		N06     En3 
	BYTE	W06
	BYTE		        Cn3 
	BYTE		N06     En3 
	BYTE	W06
	BYTE		        Cn3 
	BYTE		N06     En3 
	BYTE	W06
	BYTE		        Cn3 
	BYTE		N06     En3 
	BYTE	W06
	BYTE		        Cn3 
	BYTE		N06     En3 
	BYTE	W06
	BYTE		        Cn3 
	BYTE		N06     En3 
	BYTE	W06
	BYTE		        Cn3 
	BYTE		N06     En3 
	BYTE	W06
	BYTE		        Cn3 
	BYTE		N06     En3 
	BYTE	W06
	BYTE		        Cn3 
	BYTE		N06     En3 
	BYTE	W06
	BYTE		        Cn3 
	BYTE		N06     En3 
	BYTE	W06
	BYTE		        Cn3 
	BYTE		N06     En3 
	BYTE	W06
	BYTE		        Cn3 
	BYTE		N06     En3 
	BYTE	W06
	BYTE		        Cn3 
	BYTE		N06     En3 
	BYTE	W06
// 004   ----------------------------------------
BattleForBikiniBottomBikiniBottom_7_004:
	BYTE		N06     Gs2   v032
	BYTE		N06     Cs3 
	BYTE	W06
	BYTE		        Gs2 
	BYTE		N06     Cs3 
	BYTE	W06
	BYTE		        Gs2 
	BYTE		N06     Cs3 
	BYTE	W06
	BYTE		        Gs2 
	BYTE		N06     Cs3 
	BYTE	W06
	BYTE		        An2 
	BYTE		N06     Dn3 
	BYTE	W06
	BYTE		        An2 
	BYTE		N06     Dn3 
	BYTE	W06
	BYTE		        An2 
	BYTE		N06     Dn3 
	BYTE	W06
	BYTE		        An2 
	BYTE		N06     Dn3 
	BYTE	W06
	BYTE		        An2 
	BYTE		N06     Dn3 
	BYTE	W06
	BYTE		        An2 
	BYTE		N06     Dn3 
	BYTE	W06
	BYTE		        An2 
	BYTE		N06     Dn3 
	BYTE	W06
	BYTE		        An2 
	BYTE		N06     Dn3 
	BYTE	W06
	BYTE		        An2 
	BYTE		N06     Dn3 
	BYTE	W06
	BYTE		        An2 
	BYTE		N06     Dn3 
	BYTE	W06
	BYTE		        An2 
	BYTE		N06     Dn3 
	BYTE	W06
	BYTE		        An2 
	BYTE		N06     Dn3 
	BYTE	W06
	BYTE	PEND
// 005   ----------------------------------------
	BYTE		        An2 
	BYTE		N06     Dn3 
	BYTE	W06
	BYTE		        An2 
	BYTE		N06     Dn3 
	BYTE	W06
	BYTE		        An2 
	BYTE		N06     Dn3 
	BYTE	W06
	BYTE		        An2 
	BYTE		N06     Dn3 
	BYTE	W06
	BYTE		        An2 
	BYTE		N06     Dn3 
	BYTE	W06
	BYTE		        An2 
	BYTE		N06     Dn3 
	BYTE	W06
	BYTE		        An2 
	BYTE		N06     Dn3 
	BYTE	W06
	BYTE		        An2 
	BYTE		N06     Dn3 
	BYTE	W06
	BYTE		        An2 
	BYTE		N06     Cs3 
	BYTE	W06
	BYTE		        An2 
	BYTE		N06     Cs3 
	BYTE	W06
	BYTE		        An2 
	BYTE		N06     Cs3 
	BYTE	W06
	BYTE		        An2 
	BYTE		N06     Cs3 
	BYTE	W06
	BYTE		        An2 
	BYTE		N06     Cs3 
	BYTE	W06
	BYTE		        An2 
	BYTE		N06     Cs3 
	BYTE	W06
	BYTE		        An2 
	BYTE		N06     Cs3 
	BYTE	W06
	BYTE		        An2 
	BYTE		N06     Cs3 
	BYTE	W06
// 006   ----------------------------------------
	BYTE		        An2 
	BYTE		N06     Cn3 
	BYTE	W06
	BYTE		        An2 
	BYTE		N06     Cn3 
	BYTE	W06
	BYTE		        An2 
	BYTE		N06     Cn3 
	BYTE	W06
	BYTE		        An2 
	BYTE		N06     Cn3 
	BYTE	W06
	BYTE		        Gn2 
	BYTE		N06     Bn2 
	BYTE	W06
	BYTE		        Gn2 
	BYTE		N06     Bn2 
	BYTE	W06
	BYTE		        Gn2 
	BYTE		N06     Bn2 
	BYTE	W06
	BYTE		        Gn2 
	BYTE		N06     Bn2 
	BYTE	W06
	BYTE		        Gn2 
	BYTE		N06     Bn2 
	BYTE	W06
	BYTE		        Gn2 
	BYTE		N06     Bn2 
	BYTE	W06
	BYTE		        Gn2 
	BYTE		N06     Bn2 
	BYTE	W06
	BYTE		        Gn2 
	BYTE		N06     Bn2 
	BYTE	W06
	BYTE		        Gn2 
	BYTE		N06     Bn2 
	BYTE	W06
	BYTE		        Gn2 
	BYTE		N06     Bn2 
	BYTE	W06
	BYTE		        Gn2 
	BYTE		N06     Bn2 
	BYTE	W06
	BYTE		        Gn2 
	BYTE		N06     Bn2 
	BYTE	W06
// 007   ----------------------------------------
	BYTE		        Gn2 
	BYTE		N06     Bn2 
	BYTE	W06
	BYTE		        Gn2 
	BYTE		N06     Bn2 
	BYTE	W06
	BYTE		        Gn2 
	BYTE		N06     Bn2 
	BYTE	W06
	BYTE		        Gn2 
	BYTE		N06     Bn2 
	BYTE	W06
	BYTE		        Gn2 
	BYTE		N06     Bn2 
	BYTE	W06
	BYTE		        Gn2 
	BYTE		N06     Bn2 
	BYTE	W06
	BYTE		        Gn2 
	BYTE		N06     Bn2 
	BYTE	W06
	BYTE		        Gn2 
	BYTE		N06     Bn2 
	BYTE	W06
	BYTE		        Gn2 
	BYTE		N06     Bn2 
	BYTE	W06
	BYTE		        Gn2 
	BYTE		N06     Bn2 
	BYTE	W06
	BYTE		        Gn2 
	BYTE		N06     Bn2 
	BYTE	W06
	BYTE		        Gn2 
	BYTE		N06     Bn2 
	BYTE	W06
	BYTE		        Gn2 
	BYTE		N06     Bn2 
	BYTE	W06
	BYTE		        Gn2 
	BYTE		N06     Bn2 
	BYTE	W06
	BYTE		        Gn2 
	BYTE		N06     Bn2 
	BYTE	W06
	BYTE		        Gn2 
	BYTE		N06     Bn2 
	BYTE	W06
// 008   ----------------------------------------
	BYTE	W24
	BYTE		        Gn3 
	BYTE		N06     Bn3 
	BYTE	W06
	BYTE		        Gn3 
	BYTE		N06     Bn3 
	BYTE	W06
	BYTE		        Gn3 
	BYTE		N06     Bn3 
	BYTE	W06
	BYTE		        Gn3 
	BYTE		N06     Bn3 
	BYTE	W06
	BYTE		        Gn3 
	BYTE		N06     Bn3 
	BYTE	W06
	BYTE		        Gn3 
	BYTE		N06     Bn3 
	BYTE	W06
	BYTE		        Gn3 
	BYTE		N06     Bn3 
	BYTE	W06
	BYTE		        Gn3 
	BYTE		N06     Bn3 
	BYTE	W06
	BYTE		        Gn3 
	BYTE		N06     Bn3 
	BYTE	W06
	BYTE		        Gn3 
	BYTE		N06     Bn3 
	BYTE	W06
	BYTE		        Gn3 
	BYTE		N06     Bn3 
	BYTE	W06
	BYTE		        Gn3 
	BYTE		N06     Bn3 
	BYTE	W06
// 009   ----------------------------------------
BattleForBikiniBottomBikiniBottom_7_009:
	BYTE		N06     Gn3   v032
	BYTE		N06     Bn3 
	BYTE	W06
	BYTE		        Gn3 
	BYTE		N06     Bn3 
	BYTE	W06
	BYTE		        Gn3 
	BYTE		N06     Bn3 
	BYTE	W06
	BYTE		        Gn3 
	BYTE		N06     Bn3 
	BYTE	W06
	BYTE		        Gn3 
	BYTE		N06     Bn3 
	BYTE	W06
	BYTE		        Gn3 
	BYTE		N06     Bn3 
	BYTE	W06
	BYTE		        Gn3 
	BYTE		N06     Bn3 
	BYTE	W06
	BYTE		        Gn3 
	BYTE		N06     Bn3 
	BYTE	W06
	BYTE		        Gn3 
	BYTE		N06     Bn3 
	BYTE	W06
	BYTE		        Gn3 
	BYTE		N06     Bn3 
	BYTE	W06
	BYTE		        Gn3 
	BYTE		N06     Bn3 
	BYTE	W06
	BYTE		        Gn3 
	BYTE		N06     Bn3 
	BYTE	W06
	BYTE		        Gn3 
	BYTE		N06     Bn3 
	BYTE	W06
	BYTE		        Gn3 
	BYTE		N06     Bn3 
	BYTE	W06
	BYTE		        Gn3 
	BYTE		N06     Bn3 
	BYTE	W06
	BYTE		        Gn3 
	BYTE		N06     Bn3 
	BYTE	W06
	BYTE	PEND
// 010   ----------------------------------------
	BYTE		        Gn3 
	BYTE		N06     Bn3 
	BYTE	W06
	BYTE		        Gn3 
	BYTE		N06     Bn3 
	BYTE	W06
	BYTE		        Gn3 
	BYTE		N06     Bn3 
	BYTE	W06
	BYTE		        Gn3 
	BYTE		N06     Bn3 
	BYTE	W06
	BYTE		        Cn3 
	BYTE		N06     En3 
	BYTE	W06
	BYTE		        Cn3 
	BYTE		N06     En3 
	BYTE	W06
	BYTE		        Cn3 
	BYTE		N06     En3 
	BYTE	W06
	BYTE		        Cn3 
	BYTE		N06     En3 
	BYTE	W06
	BYTE		        Cn3 
	BYTE		N06     En3 
	BYTE	W06
	BYTE		        Cn3 
	BYTE		N06     En3 
	BYTE	W06
	BYTE		        Cn3 
	BYTE		N06     En3 
	BYTE	W06
	BYTE		        Cn3 
	BYTE		N06     En3 
	BYTE	W06
	BYTE		        Cn3 
	BYTE		N06     En3 
	BYTE	W06
	BYTE		        Cn3 
	BYTE		N06     En3 
	BYTE	W06
	BYTE		        Cn3 
	BYTE		N06     En3 
	BYTE	W06
	BYTE		        Cn3 
	BYTE		N06     En3 
	BYTE	W06
// 011   ----------------------------------------
	BYTE		        Cn3 
	BYTE		N06     En3 
	BYTE	W06
	BYTE		        Cn3 
	BYTE		N06     En3 
	BYTE	W06
	BYTE		        Cn3 
	BYTE		N06     En3 
	BYTE	W06
	BYTE		        Cn3 
	BYTE		N06     En3 
	BYTE	W06
	BYTE		        Cn3 
	BYTE		N06     En3 
	BYTE	W06
	BYTE		        Cn3 
	BYTE		N06     En3 
	BYTE	W06
	BYTE		        Cn3 
	BYTE		N06     En3 
	BYTE	W06
	BYTE		        Cn3 
	BYTE		N06     En3 
	BYTE	W06
	BYTE		        Cn3 
	BYTE		N06     En3 
	BYTE	W06
	BYTE		        Cn3 
	BYTE		N06     En3 
	BYTE	W06
	BYTE		        Cn3 
	BYTE		N06     En3 
	BYTE	W06
	BYTE		        Cn3 
	BYTE		N06     En3 
	BYTE	W06
	BYTE		        Cn3 
	BYTE		N06     En3 
	BYTE	W06
	BYTE		        Cn3 
	BYTE		N06     En3 
	BYTE	W06
	BYTE		        Cn3 
	BYTE		N06     En3 
	BYTE	W06
	BYTE		        Cn3 
	BYTE		N06     En3 
	BYTE	W06
// 012   ----------------------------------------
	BYTE	PATT
	 POIN2	BattleForBikiniBottomBikiniBottom_7_004
// 013   ----------------------------------------
	BYTE		N06     An2   v032
	BYTE		N06     Cs3 
	BYTE	W06
	BYTE		        An2 
	BYTE		N06     Cs3 
	BYTE	W06
	BYTE		        An2 
	BYTE		N06     Cs3 
	BYTE	W06
	BYTE		        An2 
	BYTE		N06     Cs3 
	BYTE	W06
	BYTE		        An2 
	BYTE		N06     Cn3 
	BYTE	W06
	BYTE		        An2 
	BYTE		N06     Cn3 
	BYTE	W06
	BYTE		        An2 
	BYTE		N06     Cn3 
	BYTE	W06
	BYTE		        An2 
	BYTE		N06     Cn3 
	BYTE	W06
	BYTE		        An2 
	BYTE		N06     Cn3 
	BYTE	W06
	BYTE		        An2 
	BYTE		N06     Cn3 
	BYTE	W06
	BYTE		        An2 
	BYTE		N06     Cn3 
	BYTE	W06
	BYTE		        An2 
	BYTE		N06     Cn3 
	BYTE	W06
	BYTE		        Fs2 
	BYTE		N06     An2 
	BYTE	W06
	BYTE		        Fs2 
	BYTE		N06     An2 
	BYTE	W06
	BYTE		        Fs2 
	BYTE		N06     An2 
	BYTE	W06
	BYTE		        Fs2 
	BYTE		N06     An2 
	BYTE	W06
// 014   ----------------------------------------
	BYTE		        Fs2 
	BYTE		N06     An2 
	BYTE	W06
	BYTE		        Fs2 
	BYTE		N06     An2 
	BYTE	W06
	BYTE		        Gn2 
	BYTE		N06     Bn2 
	BYTE	W06
	BYTE		        Gn2 
	BYTE		N06     Bn2 
	BYTE	W06
	BYTE		        Gn2 
	BYTE		N06     Bn2 
	BYTE	W06
	BYTE		        Gn2 
	BYTE		N06     Bn2 
	BYTE	W06
	BYTE		        Gn2 
	BYTE		N06     Bn2 
	BYTE	W06
	BYTE		        Gn2 
	BYTE		N06     Bn2 
	BYTE	W06
	BYTE		        Gn2 
	BYTE		N06     Bn2 
	BYTE	W06
	BYTE		        Gn2 
	BYTE		N06     Bn2 
	BYTE	W06
	BYTE		        Gn2 
	BYTE		N06     Bn2 
	BYTE	W06
	BYTE		        Gn2 
	BYTE		N06     Bn2 
	BYTE	W06
	BYTE		        Gn2 
	BYTE		N06     Bn2 
	BYTE	W06
	BYTE		        Gn2 
	BYTE		N06     Bn2 
	BYTE	W06
	BYTE		        Gn2 
	BYTE		N06     Bn2 
	BYTE	W06
	BYTE		        Gn2 
	BYTE		N06     Bn2 
	BYTE	W06
// 015   ----------------------------------------
	BYTE		        Gn2 
	BYTE		N06     Bn2 
	BYTE	W06
	BYTE		        Gn2 
	BYTE		N06     Bn2 
	BYTE	W06
	BYTE		        Gn2 
	BYTE		N06     Bn2 
	BYTE	W06
	BYTE		        Gn2 
	BYTE		N06     Bn2 
	BYTE	W06
	BYTE		        Gn2 
	BYTE		N06     Bn2 
	BYTE	W06
	BYTE		        Gn2 
	BYTE		N06     Bn2 
	BYTE	W06
	BYTE		        Gn2 
	BYTE		N06     Bn2 
	BYTE	W06
	BYTE		        Gn2 
	BYTE		N06     Bn2 
	BYTE	W06
	BYTE		        Gn2 
	BYTE		N06     Bn2 
	BYTE	W06
	BYTE		        Gn2 
	BYTE		N06     Bn2 
	BYTE	W06
	BYTE		        Gn2 
	BYTE		N06     Bn2 
	BYTE	W06
	BYTE		        Gn2 
	BYTE		N06     Bn2 
	BYTE	W06
	BYTE		        Bn3 
	BYTE	W06
	BYTE		N06   
	BYTE	W06
	BYTE		N06   
	BYTE	W06
	BYTE		N06   
	BYTE	W06
// 016   ----------------------------------------
BattleForBikiniBottomBikiniBottom_7_016:
	BYTE		N06     Bn3   v032
	BYTE	W06
	BYTE		N06   
	BYTE	W06
	BYTE		N06   
	BYTE	W06
	BYTE		N06   
	BYTE	W06
	BYTE		        Gn3 
	BYTE		N06     Cn4 
	BYTE	W06
	BYTE		        Gn3 
	BYTE		N06     Cn4 
	BYTE	W06
	BYTE		        Gn3 
	BYTE		N06     Cn4 
	BYTE	W06
	BYTE		        Gn3 
	BYTE		N06     Cn4 
	BYTE	W06
	BYTE		        Gn3 
	BYTE		N06     Cn4 
	BYTE	W06
	BYTE		        Gn3 
	BYTE		N06     Cn4 
	BYTE	W06
	BYTE		        Gn3 
	BYTE		N06     Cn4 
	BYTE	W06
	BYTE		        Gn3 
	BYTE		N06     Cn4 
	BYTE	W06
	BYTE		        Gn3 
	BYTE		N06     Cn4 
	BYTE	W06
	BYTE		        Gn3 
	BYTE		N06     Cn4 
	BYTE	W06
	BYTE		        Gn3 
	BYTE		N06     Cn4 
	BYTE	W06
	BYTE		        Gn3 
	BYTE		N06     Cn4 
	BYTE	W06
	BYTE	PEND
// 017   ----------------------------------------
BattleForBikiniBottomBikiniBottom_7_017:
	BYTE		N06     Gn3   v032
	BYTE		N06     Cn4 
	BYTE	W06
	BYTE		        Gn3 
	BYTE		N06     Cn4 
	BYTE	W06
	BYTE		        Gn3 
	BYTE		N06     Cn4 
	BYTE	W06
	BYTE		        Gn3 
	BYTE		N06     Cn4 
	BYTE	W06
	BYTE		        Gn3 
	BYTE		N06     Cn4 
	BYTE	W06
	BYTE		        Gn3 
	BYTE		N06     Cn4 
	BYTE	W06
	BYTE		        Gn3 
	BYTE		N06     Cn4 
	BYTE	W06
	BYTE		        Gn3 
	BYTE		N06     Cn4 
	BYTE	W06
	BYTE		        Gn3 
	BYTE		N06     Cn4 
	BYTE	W06
	BYTE		        Gn3 
	BYTE		N06     Cn4 
	BYTE	W06
	BYTE		        Gn3 
	BYTE		N06     Cn4 
	BYTE	W06
	BYTE		        Gn3 
	BYTE		N06     Cn4 
	BYTE	W06
	BYTE		        Gn3 
	BYTE		N06     Cn4 
	BYTE	W06
	BYTE		        Gn3 
	BYTE		N06     Cn4 
	BYTE	W06
	BYTE		        Gn3 
	BYTE		N06     Cn4 
	BYTE	W06
	BYTE		        Gn3 
	BYTE		N06     Cn4 
	BYTE	W06
	BYTE	PEND
// 018   ----------------------------------------
BattleForBikiniBottomBikiniBottom_7_018:
	BYTE		N06     Gn3   v032
	BYTE		N06     Cn4 
	BYTE	W06
	BYTE		        Gn3 
	BYTE		N06     Cn4 
	BYTE	W06
	BYTE		        Gn3 
	BYTE		N06     Cn4 
	BYTE	W06
	BYTE		        Gn3 
	BYTE		N06     Cn4 
	BYTE	W06
	BYTE		        Gn3 
	BYTE		N06     Bn3 
	BYTE	W06
	BYTE		        Gn3 
	BYTE		N06     Bn3 
	BYTE	W06
	BYTE		        Gn3 
	BYTE		N06     Bn3 
	BYTE	W06
	BYTE		        Gn3 
	BYTE		N06     Bn3 
	BYTE	W06
	BYTE		        Gn3 
	BYTE		N06     Bn3 
	BYTE	W06
	BYTE		        Gn3 
	BYTE		N06     Bn3 
	BYTE	W06
	BYTE		        Gn3 
	BYTE		N06     Bn3 
	BYTE	W06
	BYTE		        Gn3 
	BYTE		N06     Bn3 
	BYTE	W06
	BYTE		        Gn3 
	BYTE		N06     Bn3 
	BYTE	W06
	BYTE		        Gn3 
	BYTE		N06     Bn3 
	BYTE	W06
	BYTE		        Gn3 
	BYTE		N06     Bn3 
	BYTE	W06
	BYTE		        Gn3 
	BYTE		N06     Bn3 
	BYTE	W06
	BYTE	PEND
// 019   ----------------------------------------
	BYTE	PATT
	 POIN2	BattleForBikiniBottomBikiniBottom_7_009
// 020   ----------------------------------------
BattleForBikiniBottomBikiniBottom_7_020:
	BYTE		N06     Gn3   v032
	BYTE		N06     Bn3 
	BYTE	W06
	BYTE		        Gn3 
	BYTE		N06     Bn3 
	BYTE	W06
	BYTE		        Gn3 
	BYTE		N06     Bn3 
	BYTE	W06
	BYTE		        Gn3 
	BYTE		N06     Bn3 
	BYTE	W06
	BYTE		        Fs3 
	BYTE		N06     An3 
	BYTE	W06
	BYTE		        Fs3 
	BYTE		N06     An3 
	BYTE	W06
	BYTE		        Fs3 
	BYTE		N06     An3 
	BYTE	W06
	BYTE		        Fs3 
	BYTE		N06     An3 
	BYTE	W06
	BYTE		        Fs3 
	BYTE		N06     An3 
	BYTE	W06
	BYTE		        Fs3 
	BYTE		N06     An3 
	BYTE	W06
	BYTE		        Fs3 
	BYTE		N06     An3 
	BYTE	W06
	BYTE		        Fs3 
	BYTE		N06     An3 
	BYTE	W06
	BYTE		        Fs3 
	BYTE		N06     An3 
	BYTE	W06
	BYTE		        Fs3 
	BYTE		N06     An3 
	BYTE	W06
	BYTE		        Fs3 
	BYTE		N06     An3 
	BYTE	W06
	BYTE		        Fs3 
	BYTE		N06     An3 
	BYTE	W06
	BYTE	PEND
// 021   ----------------------------------------
BattleForBikiniBottomBikiniBottom_7_021:
	BYTE		N06     Fs3   v032
	BYTE		N06     An3 
	BYTE	W06
	BYTE		        Fs3 
	BYTE		N06     An3 
	BYTE	W06
	BYTE		        Fs3 
	BYTE		N06     An3 
	BYTE	W06
	BYTE		        Fs3 
	BYTE		N06     An3 
	BYTE	W06
	BYTE		        Fs3 
	BYTE		N06     An3 
	BYTE	W06
	BYTE		        Fs3 
	BYTE		N06     An3 
	BYTE	W06
	BYTE		        Fs3 
	BYTE		N06     An3 
	BYTE	W06
	BYTE		        Fs3 
	BYTE		N06     An3 
	BYTE	W06
	BYTE		        Fs3 
	BYTE		N06     An3 
	BYTE	W06
	BYTE		        Fs3 
	BYTE		N06     An3 
	BYTE	W06
	BYTE		        Fs3 
	BYTE		N06     An3 
	BYTE	W06
	BYTE		        Fs3 
	BYTE		N06     An3 
	BYTE	W06
	BYTE		        Fs3 
	BYTE		N06     An3 
	BYTE	W06
	BYTE		        Fs3 
	BYTE		N06     An3 
	BYTE	W06
	BYTE		        Fs3 
	BYTE		N06     An3 
	BYTE	W06
	BYTE		        Fs3 
	BYTE		N06     An3 
	BYTE	W06
	BYTE	PEND
// 022   ----------------------------------------
BattleForBikiniBottomBikiniBottom_7_022:
	BYTE		N06     Fs3   v032
	BYTE		N06     An3 
	BYTE	W06
	BYTE		        Fs3 
	BYTE		N06     An3 
	BYTE	W06
	BYTE		        Fs3 
	BYTE		N06     An3 
	BYTE	W06
	BYTE		        Fs3 
	BYTE		N06     An3 
	BYTE	W06
	BYTE		        Gn3 
	BYTE		N06     Bn3 
	BYTE		N06     Gn5 
	BYTE	W06
	BYTE		        Gn3 
	BYTE		N06     Bn3 
	BYTE		N06     Gn5 
	BYTE	W06
	BYTE		        Gn3 
	BYTE		N06     Bn3 
	BYTE		N06     Gn5 
	BYTE	W06
	BYTE		        Gn3 
	BYTE		N06     Bn3 
	BYTE		N06     Gn5 
	BYTE	W06
	BYTE		        Gn3 
	BYTE		N06     Bn3 
	BYTE		N06     Dn5 
	BYTE	W06
	BYTE		        Gn3 
	BYTE		N06     Bn3 
	BYTE		N06     Dn5 
	BYTE	W06
	BYTE		        Gn3 
	BYTE		N06     Bn3 
	BYTE		N06     Dn5 
	BYTE	W06
	BYTE		        Gn3 
	BYTE		N06     Bn3 
	BYTE		N06     Dn5 
	BYTE	W06
	BYTE		        Gn3 
	BYTE		N06     Bn3 
	BYTE		N06     Dn5 
	BYTE	W06
	BYTE		        Gn3 
	BYTE		N06     Bn3 
	BYTE		N06     Dn5 
	BYTE	W06
	BYTE		        Gn3 
	BYTE		N06     Bn3 
	BYTE		N06     Dn5 
	BYTE	W06
	BYTE		        Gn3 
	BYTE		N06     Bn3 
	BYTE		N06     Dn5 
	BYTE	W06
	BYTE	PEND
// 023   ----------------------------------------
BattleForBikiniBottomBikiniBottom_7_023:
	BYTE		N06     Gn3   v032
	BYTE		N06     Bn3 
	BYTE		N06     Bn4 
	BYTE	W06
	BYTE		        Gn3 
	BYTE		N06     Bn3 
	BYTE		N06     Bn4 
	BYTE	W06
	BYTE		        Gn3 
	BYTE		N06     Bn3 
	BYTE		N06     Bn4 
	BYTE	W06
	BYTE		        Gn3 
	BYTE		N06     Bn3 
	BYTE		N06     Bn4 
	BYTE	W06
	BYTE		        Gn3 
	BYTE		N06     Bn3 
	BYTE		N06     Gn4 
	BYTE	W06
	BYTE		        Gn3 
	BYTE		N06     Bn3 
	BYTE		N06     Gn4 
	BYTE	W06
	BYTE		        Gn3 
	BYTE		N06     Bn3 
	BYTE		N06     Gn4 
	BYTE	W06
	BYTE		        Gn3 
	BYTE		N06     Bn3 
	BYTE		N06     Gn4 
	BYTE	W06
	BYTE		        Gn3 
	BYTE		N06     Bn3 
	BYTE		N06     Gn4 
	BYTE	W06
	BYTE		        Gn3 
	BYTE		N06     Bn3 
	BYTE		N06     Gn4 
	BYTE	W06
	BYTE		        Gn3 
	BYTE		N06     Bn3 
	BYTE		N06     Gn4 
	BYTE	W06
	BYTE		        Gn3 
	BYTE		N06     Bn3 
	BYTE		N06     Gn4 
	BYTE	W06
	BYTE		        Bn3 
	BYTE		N06     Dn4 
	BYTE	W06
	BYTE		        Bn3 
	BYTE		N06     Dn4 
	BYTE	W06
	BYTE		        Bn3 
	BYTE		N06     Dn4 
	BYTE	W06
	BYTE		        Bn3 
	BYTE		N06     Dn4 
	BYTE	W06
	BYTE	PEND
// 024   ----------------------------------------
BattleForBikiniBottomBikiniBottom_7_024:
	BYTE		N06     Bn3   v032
	BYTE		N06     Dn4 
	BYTE	W06
	BYTE		        Bn3 
	BYTE		N06     Dn4 
	BYTE	W06
	BYTE		        Bn3 
	BYTE		N06     Dn4 
	BYTE	W06
	BYTE		        Bn3 
	BYTE		N06     Dn4 
	BYTE	W06
	BYTE		        Gn3 
	BYTE		N06     Cn4 
	BYTE	W06
	BYTE		        Gn3 
	BYTE		N06     Cn4 
	BYTE	W06
	BYTE		        Gn3 
	BYTE		N06     Cn4 
	BYTE	W06
	BYTE		        Gn3 
	BYTE		N06     Cn4 
	BYTE	W06
	BYTE		        Gn3 
	BYTE		N06     Cn4 
	BYTE	W06
	BYTE		        Gn3 
	BYTE		N06     Cn4 
	BYTE	W06
	BYTE		        Gn3 
	BYTE		N06     Cn4 
	BYTE	W06
	BYTE		        Gn3 
	BYTE		N06     Cn4 
	BYTE	W06
	BYTE		        Gn3 
	BYTE		N06     Cn4 
	BYTE	W06
	BYTE		        Gn3 
	BYTE		N06     Cn4 
	BYTE	W06
	BYTE		        Gn3 
	BYTE		N06     Cn4 
	BYTE	W06
	BYTE		        Gn3 
	BYTE		N06     Cn4 
	BYTE	W06
	BYTE	PEND
// 025   ----------------------------------------
	BYTE	PATT
	 POIN2	BattleForBikiniBottomBikiniBottom_7_017
// 026   ----------------------------------------
	BYTE	PATT
	 POIN2	BattleForBikiniBottomBikiniBottom_7_018
// 027   ----------------------------------------
	BYTE	PATT
	 POIN2	BattleForBikiniBottomBikiniBottom_7_009
// 028   ----------------------------------------
	BYTE	PATT
	 POIN2	BattleForBikiniBottomBikiniBottom_7_020
// 029   ----------------------------------------
	BYTE	PATT
	 POIN2	BattleForBikiniBottomBikiniBottom_7_021
// 030   ----------------------------------------
BattleForBikiniBottomBikiniBottom_7_030:
	BYTE		N06     Fs3   v032
	BYTE		N06     An3 
	BYTE	W06
	BYTE		        Fs3 
	BYTE		N06     An3 
	BYTE	W06
	BYTE		        Fs3 
	BYTE		N06     An3 
	BYTE	W06
	BYTE		        Fs3 
	BYTE		N06     An3 
	BYTE	W06
	BYTE		        Dn3 
	BYTE		N06     Gn3 
	BYTE		N06     Gn5 
	BYTE	W06
	BYTE		        Dn3 
	BYTE		N06     Gn3 
	BYTE		N06     Gn5 
	BYTE	W06
	BYTE		        Dn3 
	BYTE		N06     Gn3 
	BYTE		N06     Gn5 
	BYTE	W06
	BYTE		        Dn3 
	BYTE		N06     Gn3 
	BYTE		N06     Gn5 
	BYTE	W06
	BYTE		        Dn3 
	BYTE		N06     Gn3 
	BYTE		N06     Gn5 
	BYTE	W06
	BYTE		        Dn3 
	BYTE		N06     Gn3 
	BYTE		N06     Gn5 
	BYTE	W06
	BYTE		        Dn3 
	BYTE		N06     Gn3 
	BYTE		N06     Gn5 
	BYTE	W06
	BYTE		        Dn3 
	BYTE		N06     Gn3 
	BYTE		N06     Gn5 
	BYTE	W06
	BYTE		        Dn3 
	BYTE		N06     Gn3 
	BYTE		N06     Gn5 
	BYTE	W06
	BYTE		        Dn3 
	BYTE		N06     Gn3 
	BYTE		N06     Gn5 
	BYTE	W06
	BYTE		        Dn3 
	BYTE		N06     Gn3 
	BYTE		N06     Gn5 
	BYTE	W06
	BYTE		        Dn3 
	BYTE		N06     Gn3 
	BYTE		N06     Gn5 
	BYTE	W06
	BYTE	PEND
// 031   ----------------------------------------
BattleForBikiniBottomBikiniBottom_7_031:
	BYTE		N06     Dn3   v032
	BYTE		N06     Gn3 
	BYTE	W06
	BYTE		        Dn3 
	BYTE		N06     Gn3 
	BYTE	W06
	BYTE		        Dn3 
	BYTE		N06     Gn3 
	BYTE	W06
	BYTE		        Dn3 
	BYTE		N06     Gn3 
	BYTE	W06
	BYTE		        Dn3 
	BYTE		N06     Gn3 
	BYTE	W06
	BYTE		        Dn3 
	BYTE		N06     Gn3 
	BYTE	W06
	BYTE		        Dn3 
	BYTE		N06     Gn3 
	BYTE	W06
	BYTE		        Dn3 
	BYTE		N06     Gn3 
	BYTE	W06
	BYTE		        Dn3 
	BYTE		N06     Gn3 
	BYTE	W06
	BYTE		        Dn3 
	BYTE		N06     Gn3 
	BYTE	W06
	BYTE		        Dn3 
	BYTE		N06     Gn3 
	BYTE	W06
	BYTE		        Dn3 
	BYTE		N06     Gn3 
	BYTE	W30
	BYTE	PEND
// 032   ----------------------------------------
	BYTE	W96
// 033   ----------------------------------------
	BYTE	W96
// 034   ----------------------------------------
	BYTE	W96
// 035   ----------------------------------------
	BYTE	W96
// 036   ----------------------------------------
	BYTE	W96
// 037   ----------------------------------------
	BYTE	W96
// 038   ----------------------------------------
	BYTE	W96
// 039   ----------------------------------------
	BYTE	W96
// 040   ----------------------------------------
	BYTE	W96
// 041   ----------------------------------------
	BYTE	W96
// 042   ----------------------------------------
	BYTE	W96
// 043   ----------------------------------------
	BYTE	W96
// 044   ----------------------------------------
	BYTE	W96
// 045   ----------------------------------------
	BYTE	W96
// 046   ----------------------------------------
	BYTE	W96
// 047   ----------------------------------------
	BYTE	W72
	BYTE		        Bn3 
	BYTE	W06
	BYTE		N06   
	BYTE	W06
	BYTE		N06   
	BYTE	W06
	BYTE		N06   
	BYTE	W06
// 048   ----------------------------------------
	BYTE	PATT
	 POIN2	BattleForBikiniBottomBikiniBottom_7_016
// 049   ----------------------------------------
	BYTE	PATT
	 POIN2	BattleForBikiniBottomBikiniBottom_7_017
// 050   ----------------------------------------
	BYTE	PATT
	 POIN2	BattleForBikiniBottomBikiniBottom_7_018
// 051   ----------------------------------------
	BYTE	PATT
	 POIN2	BattleForBikiniBottomBikiniBottom_7_009
// 052   ----------------------------------------
	BYTE	PATT
	 POIN2	BattleForBikiniBottomBikiniBottom_7_020
// 053   ----------------------------------------
	BYTE	PATT
	 POIN2	BattleForBikiniBottomBikiniBottom_7_021
// 054   ----------------------------------------
	BYTE	PATT
	 POIN2	BattleForBikiniBottomBikiniBottom_7_022
// 055   ----------------------------------------
	BYTE	PATT
	 POIN2	BattleForBikiniBottomBikiniBottom_7_023
// 056   ----------------------------------------
	BYTE	PATT
	 POIN2	BattleForBikiniBottomBikiniBottom_7_024
// 057   ----------------------------------------
	BYTE	PATT
	 POIN2	BattleForBikiniBottomBikiniBottom_7_017
// 058   ----------------------------------------
	BYTE	PATT
	 POIN2	BattleForBikiniBottomBikiniBottom_7_018
// 059   ----------------------------------------
	BYTE	PATT
	 POIN2	BattleForBikiniBottomBikiniBottom_7_009
// 060   ----------------------------------------
	BYTE	PATT
	 POIN2	BattleForBikiniBottomBikiniBottom_7_020
// 061   ----------------------------------------
	BYTE	PATT
	 POIN2	BattleForBikiniBottomBikiniBottom_7_021
// 062   ----------------------------------------
	BYTE	PATT
	 POIN2	BattleForBikiniBottomBikiniBottom_7_030
// 063   ----------------------------------------
	BYTE	PATT
	 POIN2	BattleForBikiniBottomBikiniBottom_7_031
	BYTE	GoTo
	 POIN2	BattleForBikiniBottomBikiniBottom_7_B1
BattleForBikiniBottomBikiniBottom_7_B2:
// 064   ----------------------------------------
	BYTE	FINE

//**************** Track 8 (Midi-Chn.11) ****************//

BattleForBikiniBottomBikiniBottom_8:
	BYTE	KEYSH   BattleForBikiniBottomBikiniBottom_key+0
BattleForBikiniBottomBikiniBottom_8_B1:
// 000   ----------------------------------------
	BYTE		VOICE   127
	BYTE		MODT    0
	BYTE		LFOS    44
	BYTE		VOL     65*BattleForBikiniBottomBikiniBottom_mvl/mxv
	BYTE	W24
	BYTE		N12     Cn1   v048
	BYTE		N12     Fs1 
	BYTE	W24
	BYTE		N12   
	BYTE	W12
	BYTE		N12   
	BYTE	W12
	BYTE		        Cn1 
	BYTE		N12     Fs1 
	BYTE	W24
// 001   ----------------------------------------
BattleForBikiniBottomBikiniBottom_8_001:
	BYTE		N12     Fs1   v048
	BYTE	W24
	BYTE		        Cn1 
	BYTE		N12     Fs1 
	BYTE	W24
	BYTE		N12   
	BYTE	W12
	BYTE		N12   
	BYTE	W12
	BYTE		        Cn1 
	BYTE		N12     Fs1 
	BYTE	W24
	BYTE	PEND
// 002   ----------------------------------------
	BYTE	PATT
	 POIN2	BattleForBikiniBottomBikiniBottom_8_001
// 003   ----------------------------------------
	BYTE	PATT
	 POIN2	BattleForBikiniBottomBikiniBottom_8_001
// 004   ----------------------------------------
	BYTE	PATT
	 POIN2	BattleForBikiniBottomBikiniBottom_8_001
// 005   ----------------------------------------
	BYTE	PATT
	 POIN2	BattleForBikiniBottomBikiniBottom_8_001
// 006   ----------------------------------------
	BYTE	PATT
	 POIN2	BattleForBikiniBottomBikiniBottom_8_001
// 007   ----------------------------------------
	BYTE	PATT
	 POIN2	BattleForBikiniBottomBikiniBottom_8_001
// 008   ----------------------------------------
	BYTE	PATT
	 POIN2	BattleForBikiniBottomBikiniBottom_8_001
// 009   ----------------------------------------
	BYTE	PATT
	 POIN2	BattleForBikiniBottomBikiniBottom_8_001
// 010   ----------------------------------------
	BYTE	PATT
	 POIN2	BattleForBikiniBottomBikiniBottom_8_001
// 011   ----------------------------------------
	BYTE	PATT
	 POIN2	BattleForBikiniBottomBikiniBottom_8_001
// 012   ----------------------------------------
	BYTE	PATT
	 POIN2	BattleForBikiniBottomBikiniBottom_8_001
// 013   ----------------------------------------
	BYTE	PATT
	 POIN2	BattleForBikiniBottomBikiniBottom_8_001
// 014   ----------------------------------------
	BYTE	PATT
	 POIN2	BattleForBikiniBottomBikiniBottom_8_001
// 015   ----------------------------------------
	BYTE	PATT
	 POIN2	BattleForBikiniBottomBikiniBottom_8_001
// 016   ----------------------------------------
	BYTE	PATT
	 POIN2	BattleForBikiniBottomBikiniBottom_8_001
// 017   ----------------------------------------
	BYTE	PATT
	 POIN2	BattleForBikiniBottomBikiniBottom_8_001
// 018   ----------------------------------------
	BYTE	PATT
	 POIN2	BattleForBikiniBottomBikiniBottom_8_001
// 019   ----------------------------------------
	BYTE	PATT
	 POIN2	BattleForBikiniBottomBikiniBottom_8_001
// 020   ----------------------------------------
	BYTE	PATT
	 POIN2	BattleForBikiniBottomBikiniBottom_8_001
// 021   ----------------------------------------
	BYTE	PATT
	 POIN2	BattleForBikiniBottomBikiniBottom_8_001
// 022   ----------------------------------------
	BYTE	PATT
	 POIN2	BattleForBikiniBottomBikiniBottom_8_001
// 023   ----------------------------------------
	BYTE	PATT
	 POIN2	BattleForBikiniBottomBikiniBottom_8_001
// 024   ----------------------------------------
	BYTE	PATT
	 POIN2	BattleForBikiniBottomBikiniBottom_8_001
// 025   ----------------------------------------
	BYTE	PATT
	 POIN2	BattleForBikiniBottomBikiniBottom_8_001
// 026   ----------------------------------------
	BYTE	PATT
	 POIN2	BattleForBikiniBottomBikiniBottom_8_001
// 027   ----------------------------------------
	BYTE	PATT
	 POIN2	BattleForBikiniBottomBikiniBottom_8_001
// 028   ----------------------------------------
	BYTE	PATT
	 POIN2	BattleForBikiniBottomBikiniBottom_8_001
// 029   ----------------------------------------
	BYTE	PATT
	 POIN2	BattleForBikiniBottomBikiniBottom_8_001
// 030   ----------------------------------------
	BYTE	PATT
	 POIN2	BattleForBikiniBottomBikiniBottom_8_001
// 031   ----------------------------------------
	BYTE	PATT
	 POIN2	BattleForBikiniBottomBikiniBottom_8_001
// 032   ----------------------------------------
	BYTE	PATT
	 POIN2	BattleForBikiniBottomBikiniBottom_8_001
// 033   ----------------------------------------
	BYTE	PATT
	 POIN2	BattleForBikiniBottomBikiniBottom_8_001
// 034   ----------------------------------------
	BYTE	PATT
	 POIN2	BattleForBikiniBottomBikiniBottom_8_001
// 035   ----------------------------------------
	BYTE	PATT
	 POIN2	BattleForBikiniBottomBikiniBottom_8_001
// 036   ----------------------------------------
	BYTE	PATT
	 POIN2	BattleForBikiniBottomBikiniBottom_8_001
// 037   ----------------------------------------
	BYTE	PATT
	 POIN2	BattleForBikiniBottomBikiniBottom_8_001
// 038   ----------------------------------------
	BYTE	PATT
	 POIN2	BattleForBikiniBottomBikiniBottom_8_001
// 039   ----------------------------------------
	BYTE	PATT
	 POIN2	BattleForBikiniBottomBikiniBottom_8_001
// 040   ----------------------------------------
	BYTE	PATT
	 POIN2	BattleForBikiniBottomBikiniBottom_8_001
// 041   ----------------------------------------
	BYTE	PATT
	 POIN2	BattleForBikiniBottomBikiniBottom_8_001
// 042   ----------------------------------------
	BYTE	PATT
	 POIN2	BattleForBikiniBottomBikiniBottom_8_001
// 043   ----------------------------------------
	BYTE	PATT
	 POIN2	BattleForBikiniBottomBikiniBottom_8_001
// 044   ----------------------------------------
	BYTE	PATT
	 POIN2	BattleForBikiniBottomBikiniBottom_8_001
// 045   ----------------------------------------
	BYTE	PATT
	 POIN2	BattleForBikiniBottomBikiniBottom_8_001
// 046   ----------------------------------------
	BYTE	PATT
	 POIN2	BattleForBikiniBottomBikiniBottom_8_001
// 047   ----------------------------------------
	BYTE	PATT
	 POIN2	BattleForBikiniBottomBikiniBottom_8_001
// 048   ----------------------------------------
	BYTE	PATT
	 POIN2	BattleForBikiniBottomBikiniBottom_8_001
// 049   ----------------------------------------
	BYTE	PATT
	 POIN2	BattleForBikiniBottomBikiniBottom_8_001
// 050   ----------------------------------------
	BYTE	PATT
	 POIN2	BattleForBikiniBottomBikiniBottom_8_001
// 051   ----------------------------------------
	BYTE	PATT
	 POIN2	BattleForBikiniBottomBikiniBottom_8_001
// 052   ----------------------------------------
	BYTE	PATT
	 POIN2	BattleForBikiniBottomBikiniBottom_8_001
// 053   ----------------------------------------
	BYTE	PATT
	 POIN2	BattleForBikiniBottomBikiniBottom_8_001
// 054   ----------------------------------------
	BYTE	PATT
	 POIN2	BattleForBikiniBottomBikiniBottom_8_001
// 055   ----------------------------------------
	BYTE	PATT
	 POIN2	BattleForBikiniBottomBikiniBottom_8_001
// 056   ----------------------------------------
	BYTE	PATT
	 POIN2	BattleForBikiniBottomBikiniBottom_8_001
// 057   ----------------------------------------
	BYTE	PATT
	 POIN2	BattleForBikiniBottomBikiniBottom_8_001
// 058   ----------------------------------------
	BYTE	PATT
	 POIN2	BattleForBikiniBottomBikiniBottom_8_001
// 059   ----------------------------------------
	BYTE	PATT
	 POIN2	BattleForBikiniBottomBikiniBottom_8_001
// 060   ----------------------------------------
	BYTE	PATT
	 POIN2	BattleForBikiniBottomBikiniBottom_8_001
// 061   ----------------------------------------
	BYTE	PATT
	 POIN2	BattleForBikiniBottomBikiniBottom_8_001
// 062   ----------------------------------------
	BYTE	PATT
	 POIN2	BattleForBikiniBottomBikiniBottom_8_001
// 063   ----------------------------------------
	BYTE	PATT
	 POIN2	BattleForBikiniBottomBikiniBottom_8_001
	BYTE	GoTo
	 POIN2	BattleForBikiniBottomBikiniBottom_8_B1
BattleForBikiniBottomBikiniBottom_8_B2:
// 064   ----------------------------------------
	BYTE	FINE

//******************************************************//
	ALIGN 4

BattleForBikiniBottomBikiniBottom:
	BYTE	8	// NumTrks
	BYTE	0	// NumBlks
	BYTE	BattleForBikiniBottomBikiniBottom_pri	// Priority
	BYTE	BattleForBikiniBottomBikiniBottom_rev	// Reverb.

	POIN2	BattleForBikiniBottomBikiniBottom_grp

	POIN2	BattleForBikiniBottomBikiniBottom_1
	POIN2	BattleForBikiniBottomBikiniBottom_2
	POIN2	BattleForBikiniBottomBikiniBottom_3
	POIN2	BattleForBikiniBottomBikiniBottom_4
	POIN2	BattleForBikiniBottomBikiniBottom_5
	POIN2	BattleForBikiniBottomBikiniBottom_6
	POIN2	BattleForBikiniBottomBikiniBottom_7
	POIN2	BattleForBikiniBottomBikiniBottom_8

	
