	.include "MPlayDef.s"

	.equ	DrawntoLifeTheNextChapterSalem_grp, voicegroup000
	.equ	DrawntoLifeTheNextChapterSalem_pri, 0
	.equ	DrawntoLifeTheNextChapterSalem_rev, 0
	.equ	DrawntoLifeTheNextChapterSalem_mvl, 127
	.equ	DrawntoLifeTheNextChapterSalem_key, 0
	.equ	DrawntoLifeTheNextChapterSalem_tbs, 1
	.equ	DrawntoLifeTheNextChapterSalem_exg, 0
	.equ	DrawntoLifeTheNextChapterSalem_cmp, 1

	.section .rodata
	.global	DrawntoLifeTheNextChapterSalem
	.align	2


@**************** Track 1 (Midi-Chn.0) ****************@

DrawntoLifeTheNextChapterSalem_001:
@  #01 @000   ----------------------------------------
 .byte   KEYSH , DrawntoLifeTheNextChapterSalem_key+0
Label_017DA746:
 .byte   TEMPO , 164*DrawntoLifeTheNextChapterSalem_tbs/2
 .byte   VOICE , 127
 .byte   MODT 0
 .byte   LFOS 44
 .byte   PAN , c_v-2
 .byte   VOL , 46*DrawntoLifeTheNextChapterSalem_mvl/mxv
 .byte   N92 ,Dn1 ,v088
 .byte   W96
@  #01 @001   ----------------------------------------
 .byte   W96
@  #01 @002   ----------------------------------------
 .byte   W96
@  #01 @003   ----------------------------------------
 .byte   W96
@  #01 @004   ----------------------------------------
 .byte   W96
@  #01 @005   ----------------------------------------
 .byte   W96
@  #01 @006   ----------------------------------------
 .byte   W96
@  #01 @007   ----------------------------------------
 .byte   W24
 .byte   N11 ,Dn0 ,v100
 .byte   W24
 .byte   Dn0 ,v104
 .byte   W12
 .byte   Dn2 ,v108
 .byte   W24
 .byte   Dn2 ,v116
 .byte   W12
@  #01 @008   ----------------------------------------
Label_017DA76A:
 .byte   N07 ,Cs1 ,v112
 .byte   N92 ,En3 ,v088
 .byte   W24
 .byte   N04 ,As2 ,v064
 .byte   W12
 .byte   N09 ,Cs1 ,v112
 .byte   W12
 .byte   N08 ,En1
 .byte   W24
 .byte   N04 ,As2 ,v064
 .byte   W12
 .byte   N08 ,Cs1 ,v112
 .byte   W12
 .byte   PEND 
@  #01 @009   ----------------------------------------
Label_017DA785:
 .byte   W12
 .byte   N08 ,Cs1 ,v112
 .byte   W12
 .byte   N05 ,As2 ,v064
 .byte   W12
 .byte   N11 ,Cs1 ,v112
 .byte   W12
 .byte   N15 ,En1
 .byte   W18
 .byte   N03 ,As2 ,v064
 .byte   W06
 .byte   N06 ,Cn3
 .byte   W24
 .byte   PEND 
@  #01 @010   ----------------------------------------
Label_017DA79D:
 .byte   N07 ,Cs1 ,v112
 .byte   W24
 .byte   N04 ,As2 ,v064
 .byte   W12
 .byte   N09 ,Cs1 ,v112
 .byte   W12
 .byte   N08 ,En1
 .byte   W24
 .byte   N04 ,As2 ,v064
 .byte   W12
 .byte   N08 ,Cs1 ,v112
 .byte   W12
 .byte   PEND 
@  #01 @011   ----------------------------------------
 .byte   PATT
  .word Label_017DA785
@  #01 @012   ----------------------------------------
 .byte   PATT
  .word Label_017DA76A
@  #01 @013   ----------------------------------------
 .byte   PATT
  .word Label_017DA785
@  #01 @014   ----------------------------------------
 .byte   PATT
  .word Label_017DA79D
@  #01 @015   ----------------------------------------
 .byte   PATT
  .word Label_017DA785
@  #01 @016   ----------------------------------------
 .byte   PATT
  .word Label_017DA76A
@  #01 @017   ----------------------------------------
 .byte   PATT
  .word Label_017DA785
@  #01 @018   ----------------------------------------
 .byte   PATT
  .word Label_017DA79D
@  #01 @019   ----------------------------------------
 .byte   PATT
  .word Label_017DA785
@  #01 @020   ----------------------------------------
 .byte   PATT
  .word Label_017DA76A
@  #01 @021   ----------------------------------------
 .byte   PATT
  .word Label_017DA785
@  #01 @022   ----------------------------------------
 .byte   PATT
  .word Label_017DA79D
@  #01 @023   ----------------------------------------
 .byte   PATT
  .word Label_017DA785
@  #01 @024   ----------------------------------------
 .byte   PATT
  .word Label_017DA76A
@  #01 @025   ----------------------------------------
 .byte   PATT
  .word Label_017DA785
@  #01 @026   ----------------------------------------
 .byte   PATT
  .word Label_017DA79D
@  #01 @027   ----------------------------------------
 .byte   PATT
  .word Label_017DA785
@  #01 @028   ----------------------------------------
 .byte   PATT
  .word Label_017DA76A
@  #01 @029   ----------------------------------------
 .byte   PATT
  .word Label_017DA785
@  #01 @030   ----------------------------------------
 .byte   PATT
  .word Label_017DA79D
@  #01 @031   ----------------------------------------
 .byte   PATT
  .word Label_017DA785
@  #01 @032   ----------------------------------------
 .byte   N23 ,Dn1 ,v108
 .byte   N92 ,En3 ,v088
 .byte   W36
 .byte   N09 ,Dn1 ,v108
 .byte   W12
 .byte   N16 ,Fs1
 .byte   W24
 .byte   N14 ,Dn1
 .byte   W24
@  #01 @033   ----------------------------------------
 .byte   N10
 .byte   W24
 .byte   N21
 .byte   W24
 .byte   N24 ,Fs1
 .byte   W48
@  #01 @034   ----------------------------------------
 .byte   N16 ,Dn1
 .byte   W36
 .byte   N06
 .byte   W12
 .byte   N14 ,Fs1
 .byte   W24
 .byte   N10 ,Dn1
 .byte   W24
@  #01 @035   ----------------------------------------
 .byte   N11
 .byte   W24
 .byte   N11
 .byte   W24
 .byte   N13 ,Fs1
 .byte   W48
@  #01 @036   ----------------------------------------
 .byte   N15 ,Dn1
 .byte   W36
 .byte   N10
 .byte   W12
 .byte   N09 ,Fs1
 .byte   W24
 .byte   Dn1
 .byte   W24
@  #01 @037   ----------------------------------------
 .byte   N11
 .byte   W36
 .byte   N07
 .byte   W12
 .byte   N24 ,Fs1
 .byte   W48
@  #01 @038   ----------------------------------------
 .byte   N17 ,Dn1
 .byte   W36
 .byte   N07
 .byte   W12
 .byte   N12 ,Fs1
 .byte   W24
 .byte   N07 ,Dn1
 .byte   W24
@  #01 @039   ----------------------------------------
 .byte   N08
 .byte   W12
 .byte   N09 ,Fs1
 .byte   W24
 .byte   N05 ,Dn1
 .byte   W12
 .byte   N18 ,Fs1
 .byte   W24
 .byte   N08 ,Dn1
 .byte   W24
@  #01 @040   ----------------------------------------
Label_017DA872:
 .byte   N07 ,Cs1 ,v120
 .byte   N92 ,En3 ,v088
 .byte   W36
 .byte   N09 ,Cs1 ,v120
 .byte   W12
 .byte   N08 ,En1
 .byte   W36
 .byte   Cs1
 .byte   W12
 .byte   PEND 
@  #01 @041   ----------------------------------------
Label_017DA883:
 .byte   W12
 .byte   N08 ,Cs1 ,v120
 .byte   W24
 .byte   N11
 .byte   W12
 .byte   N15 ,En1
 .byte   W48
 .byte   PEND 
@  #01 @042   ----------------------------------------
Label_017DA88E:
 .byte   N07 ,Cs1 ,v120
 .byte   W36
 .byte   N09
 .byte   W12
 .byte   N08 ,En1
 .byte   W36
 .byte   Cs1
 .byte   W12
 .byte   PEND 
@  #01 @043   ----------------------------------------
 .byte   PATT
  .word Label_017DA883
@  #01 @044   ----------------------------------------
 .byte   PATT
  .word Label_017DA872
@  #01 @045   ----------------------------------------
 .byte   PATT
  .word Label_017DA883
@  #01 @046   ----------------------------------------
 .byte   PATT
  .word Label_017DA88E
@  #01 @047   ----------------------------------------
 .byte   PATT
  .word Label_017DA883
@  #01 @048   ----------------------------------------
 .byte   PATT
  .word Label_017DA76A
@  #01 @049   ----------------------------------------
 .byte   PATT
  .word Label_017DA785
@  #01 @050   ----------------------------------------
 .byte   PATT
  .word Label_017DA79D
@  #01 @051   ----------------------------------------
 .byte   PATT
  .word Label_017DA785
@  #01 @052   ----------------------------------------
 .byte   PATT
  .word Label_017DA76A
@  #01 @053   ----------------------------------------
 .byte   PATT
  .word Label_017DA785
@  #01 @054   ----------------------------------------
 .byte   PATT
  .word Label_017DA79D
@  #01 @055   ----------------------------------------
 .byte   PATT
  .word Label_017DA785
@  #01 @056   ----------------------------------------
Label_017DA8DB:
 .byte   N07 ,Cs1 ,v112
 .byte   N92 ,En3 ,v088
 .byte   W24
 .byte   N04 ,As2 ,v064
 .byte   W12
 .byte   N09 ,Cs1 ,v112
 .byte   W12
 .byte   N08 ,Cs2
 .byte   W24
 .byte   N04 ,As2 ,v064
 .byte   W12
 .byte   N08 ,Cs1 ,v112
 .byte   W12
 .byte   PEND 
@  #01 @057   ----------------------------------------
 .byte   Dn0
 .byte   W48
 .byte   N15 ,Cs2
 .byte   W18
 .byte   N03 ,As2 ,v064
 .byte   W06
 .byte   N06 ,Cn3
 .byte   W24
@  #01 @058   ----------------------------------------
Label_017DA902:
 .byte   N07 ,Cs1 ,v112
 .byte   W24
 .byte   N04 ,As2 ,v064
 .byte   W12
 .byte   N09 ,Cs1 ,v112
 .byte   W12
 .byte   N08 ,Cs2
 .byte   W24
 .byte   N04 ,As2 ,v064
 .byte   W12
 .byte   N08 ,Cs1 ,v112
 .byte   W12
 .byte   PEND 
@  #01 @059   ----------------------------------------
 .byte   N11 ,Dn0
 .byte   W36
 .byte   Cs1
 .byte   W12
 .byte   N15 ,Cs2
 .byte   W18
 .byte   N03 ,As2 ,v064
 .byte   W06
 .byte   N06 ,Cn3
 .byte   W24
@  #01 @060   ----------------------------------------
 .byte   PATT
  .word Label_017DA8DB
@  #01 @061   ----------------------------------------
 .byte   W12
 .byte   N08 ,Cs1 ,v112
 .byte   W12
 .byte   N05 ,As2 ,v064
 .byte   W12
 .byte   N11 ,Cs1 ,v112
 .byte   W12
 .byte   N15 ,Cs2
 .byte   W18
 .byte   N03 ,As2 ,v064
 .byte   W06
 .byte   N06 ,Cn3
 .byte   W24
@  #01 @062   ----------------------------------------
 .byte   PATT
  .word Label_017DA902
@  #01 @063   ----------------------------------------
 .byte   W12
 .byte   N08 ,Cs1 ,v112
 .byte   W12
 .byte   N05 ,As2 ,v064
 .byte   W12
 .byte   N11 ,Cs1 ,v112
 .byte   W12
 .byte   Cs2
 .byte   W24
 .byte   N11
 .byte   W12
 .byte   N11
 .byte   W12
@  #01 @064   ----------------------------------------
 .byte   N07 ,Cs1
 .byte   N92 ,En3 ,v088
 .byte   W24
 .byte   N11 ,Bn3 ,v064
 .byte   W12
 .byte   N09 ,Cs1 ,v112
 .byte   W12
 .byte   N08 ,Cs2
 .byte   N11 ,Bn3 ,v072
 .byte   W24
 .byte   Bn3 ,v064
 .byte   W12
 .byte   N08 ,Cs1 ,v112
 .byte   W12
@  #01 @065   ----------------------------------------
 .byte   N11 ,Bn3 ,v064
 .byte   W12
 .byte   N08 ,Cs1 ,v112
 .byte   W12
 .byte   N11 ,Bn3 ,v068
 .byte   W12
 .byte   Cs1 ,v112
 .byte   W12
 .byte   N15 ,Cs2
 .byte   N11 ,Bn3 ,v072
 .byte   W24
 .byte   Bn3 ,v068
 .byte   W24
@  #01 @066   ----------------------------------------
 .byte   N07 ,Cs1 ,v112
 .byte   N11 ,Bn3 ,v064
 .byte   W24
 .byte   Bn3 ,v068
 .byte   W12
 .byte   N09 ,Cs1 ,v112
 .byte   W12
 .byte   N08 ,Cs2
 .byte   N11 ,Bn3 ,v064
 .byte   W24
 .byte   Bn3 ,v072
 .byte   W12
 .byte   N08 ,Cs1 ,v112
 .byte   W12
@  #01 @067   ----------------------------------------
 .byte   N11 ,Bn3 ,v060
 .byte   W12
 .byte   N08 ,Cs1 ,v112
 .byte   W12
 .byte   N11 ,Bn3 ,v068
 .byte   W12
 .byte   Cs1 ,v112
 .byte   W12
 .byte   N15 ,Cs2
 .byte   N11 ,Bn3 ,v064
 .byte   W24
 .byte   Bn3 ,v072
 .byte   W24
@  #01 @068   ----------------------------------------
 .byte   N07 ,Cs1 ,v112
 .byte   N92 ,En3 ,v088
 .byte   W24
 .byte   N11 ,Bn3 ,v056
 .byte   W12
 .byte   N09 ,Cs1 ,v112
 .byte   W12
 .byte   N08 ,Cs2
 .byte   N11 ,Bn3 ,v060
 .byte   W24
 .byte   N11
 .byte   W12
 .byte   N08 ,Cs1 ,v112
 .byte   W12
@  #01 @069   ----------------------------------------
 .byte   N11 ,Bn3 ,v064
 .byte   W12
 .byte   N08 ,Cs1 ,v112
 .byte   W12
 .byte   N11 ,Bn3 ,v064
 .byte   W12
 .byte   Cs1 ,v112
 .byte   W12
 .byte   N15 ,Cs2
 .byte   N11 ,Bn3 ,v056
 .byte   W24
 .byte   Bn3 ,v064
 .byte   W24
@  #01 @070   ----------------------------------------
 .byte   N07 ,Cs1 ,v112
 .byte   N11 ,Bn3 ,v064
 .byte   W24
 .byte   Bn3 ,v060
 .byte   W12
 .byte   N09 ,Cs1 ,v112
 .byte   W12
 .byte   N08 ,Cs2
 .byte   N11 ,Bn3 ,v056
 .byte   W24
 .byte   N11
 .byte   W12
 .byte   N08 ,Cs1 ,v112
 .byte   W12
@  #01 @071   ----------------------------------------
 .byte   N11 ,Bn3 ,v068
 .byte   W12
 .byte   N08 ,Cs1 ,v112
 .byte   W12
 .byte   N11 ,Bn3 ,v072
 .byte   W12
 .byte   Cs1 ,v112
 .byte   W12
 .byte   N15 ,Dn0
 .byte   N44 ,Bn3 ,v076
 .byte   W24
 .byte   N15 ,Dn0 ,v112
 .byte   W24
@  #01 @072   ----------------------------------------
Label_017DAA29:
 .byte   N07 ,Cs1 ,v112
 .byte   N92 ,En3 ,v088
 .byte   W36
 .byte   N09 ,Cs1 ,v112
 .byte   W12
 .byte   N08 ,En1
 .byte   W36
 .byte   Cs1
 .byte   W12
 .byte   PEND 
@  #01 @073   ----------------------------------------
Label_017DAA3A:
 .byte   W12
 .byte   N08 ,Cs1 ,v112
 .byte   W24
 .byte   N11
 .byte   W12
 .byte   N15 ,En1
 .byte   W24
 .byte   N06 ,Cn3 ,v064
 .byte   W24
 .byte   PEND 
@  #01 @074   ----------------------------------------
 .byte   N07 ,Cs1 ,v112
 .byte   W36
 .byte   N09
 .byte   W12
 .byte   N08 ,En1
 .byte   W36
 .byte   Cs1
 .byte   W12
@  #01 @075   ----------------------------------------
 .byte   PATT
  .word Label_017DAA3A
@  #01 @076   ----------------------------------------
 .byte   PATT
  .word Label_017DAA29
@  #01 @077   ----------------------------------------
 .byte   PATT
  .word Label_017DAA3A
@  #01 @078   ----------------------------------------
 .byte   N07 ,Cs1 ,v112
 .byte   W48
 .byte   N08 ,En1
 .byte   W36
 .byte   Cs1
 .byte   W12
@  #01 @079   ----------------------------------------
 .byte   W12
 .byte   N08
 .byte   W24
 .byte   N11
 .byte   W12
 .byte   En1 ,v072
 .byte   W12
 .byte   En1 ,v076
 .byte   W12
 .byte   En1 ,v092
 .byte   W12
 .byte   En1 ,v112
 .byte   W12
@  #01 @080   ----------------------------------------
 .byte   GOTO
  .word Label_017DA746
 .byte   FINE

@**************** Track 2 (Midi-Chn.1) ****************@

DrawntoLifeTheNextChapterSalem_002:
@  #02 @000   ----------------------------------------
 .byte   KEYSH , DrawntoLifeTheNextChapterSalem_key+0
Label_56AB1E:
 .byte   VOICE , 10
 .byte   MODT 0
 .byte   LFOS 44
 .byte   VOL , 0*DrawntoLifeTheNextChapterSalem_mvl/mxv
 .byte   W96
@  #02 @001   ----------------------------------------
 .byte   W96
@  #02 @002   ----------------------------------------
 .byte   W96
@  #02 @003   ----------------------------------------
 .byte   W96
@  #02 @004   ----------------------------------------
 .byte   W96
@  #02 @005   ----------------------------------------
 .byte   W96
@  #02 @006   ----------------------------------------
 .byte   W96
@  #02 @007   ----------------------------------------
 .byte   N13 ,Cn3 ,v048
 .byte   W12
 .byte   N10 ,Dn3
 .byte   W12
 .byte   N12 ,Cn3 ,v052
 .byte   W12
 .byte   Dn3 ,v056
 .byte   W12
 .byte   Cn3
 .byte   W48
@  #02 @008   ----------------------------------------
 .byte   W24
 .byte   N14 ,An1 ,v080
 .byte   W72
@  #02 @009   ----------------------------------------
 .byte   W96
@  #02 @010   ----------------------------------------
 .byte   W96
@  #02 @011   ----------------------------------------
 .byte   W96
@  #02 @012   ----------------------------------------
 .byte   W96
@  #02 @013   ----------------------------------------
 .byte   W96
@  #02 @014   ----------------------------------------
 .byte   W96
@  #02 @015   ----------------------------------------
Label_56AB48:
 .byte   W48
 .byte   N11 ,En4 ,v076
 .byte   W12
 .byte   Bn3 ,v080
 .byte   W12
 .byte   Dn4
 .byte   W12
 .byte   Bn3
 .byte   W12
 .byte   PEND 
@  #02 @016   ----------------------------------------
 .byte   W24
 .byte   N14 ,An1
 .byte   W72
@  #02 @017   ----------------------------------------
 .byte   W96
@  #02 @018   ----------------------------------------
 .byte   W96
@  #02 @019   ----------------------------------------
 .byte   W96
@  #02 @020   ----------------------------------------
 .byte   W96
@  #02 @021   ----------------------------------------
 .byte   W96
@  #02 @022   ----------------------------------------
 .byte   W96
@  #02 @023   ----------------------------------------
 .byte   W96
@  #02 @024   ----------------------------------------
 .byte   W96
@  #02 @025   ----------------------------------------
 .byte   W96
@  #02 @026   ----------------------------------------
 .byte   W96
@  #02 @027   ----------------------------------------
 .byte   W96
@  #02 @028   ----------------------------------------
 .byte   W96
@  #02 @029   ----------------------------------------
 .byte   W96
@  #02 @030   ----------------------------------------
 .byte   W96
@  #02 @031   ----------------------------------------
 .byte   PATT
  .word Label_56AB48
@  #02 @032   ----------------------------------------
 .byte   W96
@  #02 @033   ----------------------------------------
 .byte   W96
@  #02 @034   ----------------------------------------
 .byte   W96
@  #02 @035   ----------------------------------------
 .byte   W96
@  #02 @036   ----------------------------------------
 .byte   W96
@  #02 @037   ----------------------------------------
 .byte   W96
@  #02 @038   ----------------------------------------
 .byte   W96
@  #02 @039   ----------------------------------------
Label_56AB73:
 .byte   W48
 .byte   N12 ,Cn3 ,v068
 .byte   W12
 .byte   N08 ,Dn3
 .byte   W12
 .byte   N14 ,Cn3 ,v088
 .byte   W12
 .byte   N07 ,Dn3 ,v096
 .byte   W12
 .byte   PEND 
@  #02 @040   ----------------------------------------
 .byte   N08 ,Cn3 ,v112
 .byte   W96
@  #02 @041   ----------------------------------------
 .byte   W24
 .byte   N06 ,Cn3 ,v080
 .byte   W24
 .byte   N10 ,Cn3 ,v044
 .byte   W12
 .byte   N08 ,Dn3 ,v072
 .byte   W24
 .byte   N05 ,Cn3 ,v048
 .byte   W12
@  #02 @042   ----------------------------------------
 .byte   W96
@  #02 @043   ----------------------------------------
 .byte   W24
 .byte   N08 ,Cn3 ,v068
 .byte   W24
 .byte   N07 ,Cn3 ,v060
 .byte   W12
 .byte   N08 ,Gn3 ,v080
 .byte   W24
 .byte   Cn3 ,v056
 .byte   W12
@  #02 @044   ----------------------------------------
 .byte   W96
@  #02 @045   ----------------------------------------
Label_56ABAB:
 .byte   W24
 .byte   N08 ,Cn3 ,v064
 .byte   W24
 .byte   Cn3 ,v060
 .byte   W12
 .byte   N09 ,Dn3 ,v068
 .byte   W12
 .byte   N07 ,Cn3
 .byte   W24
 .byte   PEND 
@  #02 @046   ----------------------------------------
 .byte   W96
@  #02 @047   ----------------------------------------
 .byte   N09 ,Dn3 ,v064
 .byte   W12
 .byte   N07 ,Cn3 ,v080
 .byte   W24
 .byte   N06 ,Cn3 ,v008
 .byte   W12
 .byte   N09 ,Dn3 ,v084
 .byte   W12
 .byte   N07 ,Cn3 ,v056
 .byte   W24
 .byte   N05 ,Cn3 ,v072
 .byte   W12
@  #02 @048   ----------------------------------------
 .byte   W96
@  #02 @049   ----------------------------------------
 .byte   W96
@  #02 @050   ----------------------------------------
 .byte   W96
@  #02 @051   ----------------------------------------
 .byte   W96
@  #02 @052   ----------------------------------------
 .byte   W96
@  #02 @053   ----------------------------------------
 .byte   W96
@  #02 @054   ----------------------------------------
 .byte   W96
@  #02 @055   ----------------------------------------
 .byte   PATT
  .word Label_56AB73
@  #02 @056   ----------------------------------------
 .byte   W24
 .byte   N11 ,An1 ,v080
 .byte   W72
@  #02 @057   ----------------------------------------
 .byte   W48
 .byte   N14 ,Gn1 ,v088
 .byte   W24
 .byte   Gn1 ,v092
 .byte   W24
@  #02 @058   ----------------------------------------
 .byte   W96
@  #02 @059   ----------------------------------------
 .byte   W96
@  #02 @060   ----------------------------------------
 .byte   W96
@  #02 @061   ----------------------------------------
 .byte   W96
@  #02 @062   ----------------------------------------
 .byte   W96
@  #02 @063   ----------------------------------------
 .byte   PATT
  .word Label_56AB73
@  #02 @064   ----------------------------------------
 .byte   W24
 .byte   N14 ,An1 ,v080
 .byte   W72
@  #02 @065   ----------------------------------------
 .byte   W96
@  #02 @066   ----------------------------------------
 .byte   W96
@  #02 @067   ----------------------------------------
 .byte   W96
@  #02 @068   ----------------------------------------
 .byte   W96
@  #02 @069   ----------------------------------------
 .byte   W96
@  #02 @070   ----------------------------------------
 .byte   W96
@  #02 @071   ----------------------------------------
 .byte   W48
 .byte   N23 ,Fn1 ,v084
 .byte   W24
 .byte   N11 ,Gn3
 .byte   W12
 .byte   N11
 .byte   W12
@  #02 @072   ----------------------------------------
 .byte   W96
@  #02 @073   ----------------------------------------
 .byte   W96
@  #02 @074   ----------------------------------------
 .byte   W96
@  #02 @075   ----------------------------------------
 .byte   W24
 .byte   N08 ,Cn3 ,v068
 .byte   W24
 .byte   N07 ,Cn3 ,v060
 .byte   W12
 .byte   N08 ,Dn3 ,v080
 .byte   W24
 .byte   Cn3 ,v056
 .byte   W12
@  #02 @076   ----------------------------------------
 .byte   W96
@  #02 @077   ----------------------------------------
 .byte   PATT
  .word Label_56ABAB
@  #02 @078   ----------------------------------------
 .byte   W96
@  #02 @079   ----------------------------------------
 .byte   W60
 .byte   N11 ,Cn3 ,v080
 .byte   W12
 .byte   Cn3 ,v076
 .byte   W12
 .byte   Cn3 ,v084
 .byte   W12
@  #02 @080   ----------------------------------------
 .byte   GOTO
  .word Label_56AB1E
 .byte   FINE

@**************** Track 3 (Midi-Chn.2) ****************@

DrawntoLifeTheNextChapterSalem_003:
@  #03 @000   ----------------------------------------
 .byte   KEYSH , DrawntoLifeTheNextChapterSalem_key+0
Label_017DA0D2:
 .byte   VOICE , 29
 .byte   MODT 0
 .byte   LFOS 44
 .byte   PAN , c_v-16
 .byte   VOL , 37*DrawntoLifeTheNextChapterSalem_mvl/mxv
 .byte   W96
@  #03 @001   ----------------------------------------
 .byte   W96
@  #03 @002   ----------------------------------------
 .byte   W96
@  #03 @003   ----------------------------------------
 .byte   W96
@  #03 @004   ----------------------------------------
 .byte   W96
@  #03 @005   ----------------------------------------
 .byte   W96
@  #03 @006   ----------------------------------------
 .byte   W96
@  #03 @007   ----------------------------------------
 .byte   W60
 .byte   N32 ,Bn2 ,v100
 .byte   W36
@  #03 @008   ----------------------------------------
Label_017DA0E8:
 .byte   N11 ,En3 ,v100
 .byte   W72
 .byte   N11
 .byte   W12
 .byte   N11
 .byte   W12
 .byte   PEND 
@  #03 @009   ----------------------------------------
Label_017DA0F1:
 .byte   N56 ,Ds3 ,v100
 .byte   W60
 .byte   N32 ,Bn2
 .byte   W36
 .byte   PEND 
@  #03 @010   ----------------------------------------
 .byte   PATT
  .word Label_017DA0E8
@  #03 @011   ----------------------------------------
 .byte   PATT
  .word Label_017DA0F1
@  #03 @012   ----------------------------------------
 .byte   N11 ,En3 ,v100
 .byte   W72
 .byte   Fs3
 .byte   W24
@  #03 @013   ----------------------------------------
Label_017DA109:
 .byte   N44 ,Gn3 ,v100
 .byte   W48
 .byte   Gn2
 .byte   W48
 .byte   PEND 
@  #03 @014   ----------------------------------------
Label_017DA110:
 .byte   N23 ,An2 ,v100
 .byte   W72
 .byte   N11
 .byte   W12
 .byte   N11
 .byte   W12
 .byte   PEND 
@  #03 @015   ----------------------------------------
Label_017DA119:
 .byte   N11 ,Bn2 ,v100
 .byte   W24
 .byte   An2
 .byte   W24
 .byte   Gn2
 .byte   W24
 .byte   Fs2
 .byte   W24
 .byte   PEND 
@  #03 @016   ----------------------------------------
Label_017DA124:
 .byte   N44 ,Cn3 ,v100
 .byte   W72
 .byte   N11
 .byte   W12
 .byte   N11
 .byte   W12
 .byte   PEND 
@  #03 @017   ----------------------------------------
Label_017DA12D:
 .byte   N56 ,Dn3 ,v100
 .byte   W72
 .byte   N11
 .byte   W24
 .byte   PEND 
@  #03 @018   ----------------------------------------
Label_017DA134:
 .byte   N56 ,Ds3 ,v100
 .byte   W72
 .byte   N23 ,Bn2
 .byte   W24
 .byte   PEND 
@  #03 @019   ----------------------------------------
Label_017DA13C:
 .byte   N68 ,En3 ,v100
 .byte   W72
 .byte   N23 ,Gn3
 .byte   W24
 .byte   PEND 
@  #03 @020   ----------------------------------------
Label_017DA144:
 .byte   N56 ,Cn3 ,v100
 .byte   W72
 .byte   N11
 .byte   W12
 .byte   N11
 .byte   W12
 .byte   PEND 
@  #03 @021   ----------------------------------------
 .byte   PATT
  .word Label_017DA12D
@  #03 @022   ----------------------------------------
Label_017DA152:
 .byte   N56 ,Bn2 ,v100
 .byte   W72
 .byte   N11
 .byte   W12
 .byte   N11
 .byte   W12
 .byte   PEND 
@  #03 @023   ----------------------------------------
 .byte   N92 ,En3
 .byte   W96
@  #03 @024   ----------------------------------------
 .byte   N56 ,Cn3
 .byte   W72
 .byte   N11
 .byte   W24
@  #03 @025   ----------------------------------------
 .byte   PATT
  .word Label_017DA12D
@  #03 @026   ----------------------------------------
 .byte   N44 ,Gn3 ,v100
 .byte   W48
 .byte   N32 ,Fs3
 .byte   W48
@  #03 @027   ----------------------------------------
 .byte   En3
 .byte   W48
 .byte   Ds3
 .byte   W48
@  #03 @028   ----------------------------------------
 .byte   N56 ,En3
 .byte   W72
 .byte   N11
 .byte   W12
 .byte   N11
 .byte   W12
@  #03 @029   ----------------------------------------
 .byte   N80 ,Cn3
 .byte   W84
 .byte   N11
 .byte   W12
@  #03 @030   ----------------------------------------
 .byte   N68 ,Dn3
 .byte   W84
 .byte   N11
 .byte   W12
@  #03 @031   ----------------------------------------
 .byte   N80 ,En3
 .byte   W96
@  #03 @032   ----------------------------------------
 .byte   N44
 .byte   W48
 .byte   N11 ,En4
 .byte   W24
 .byte   En3
 .byte   W24
@  #03 @033   ----------------------------------------
 .byte   N44 ,Ds3
 .byte   W48
 .byte   N11 ,Ds4
 .byte   W24
 .byte   Ds3
 .byte   W24
@  #03 @034   ----------------------------------------
 .byte   N44 ,Dn3
 .byte   W48
 .byte   N11 ,Dn4
 .byte   W24
 .byte   Dn3
 .byte   W24
@  #03 @035   ----------------------------------------
 .byte   N44 ,Cs3
 .byte   W48
 .byte   N11 ,Cs4
 .byte   W24
 .byte   Cs3
 .byte   W24
@  #03 @036   ----------------------------------------
 .byte   N44 ,Cn3
 .byte   W48
 .byte   N11 ,Cn4
 .byte   W24
 .byte   Cn3
 .byte   W24
@  #03 @037   ----------------------------------------
 .byte   N44 ,Gn2
 .byte   W48
 .byte   N11 ,Gn3
 .byte   W24
 .byte   N23
 .byte   W24
@  #03 @038   ----------------------------------------
 .byte   An2
 .byte   W24
 .byte   An3
 .byte   W24
 .byte   An2
 .byte   W24
 .byte   An3
 .byte   W24
@  #03 @039   ----------------------------------------
 .byte   N11 ,Bn2
 .byte   W12
 .byte   Bn3
 .byte   W12
 .byte   N23 ,An3
 .byte   W24
 .byte   Gn3
 .byte   W24
 .byte   Fs3
 .byte   W24
@  #03 @040   ----------------------------------------
 .byte   En3 ,v108
 .byte   W36
 .byte   N11 ,Ds3
 .byte   W36
 .byte   N68 ,Dn3
 .byte   W24
@  #03 @041   ----------------------------------------
 .byte   W48
 .byte   N11 ,En3 ,v104
 .byte   W12
 .byte   Bn3
 .byte   W12
 .byte   En3
 .byte   W12
 .byte   Dn3
 .byte   W12
@  #03 @042   ----------------------------------------
 .byte   N23 ,Dn3 ,v108
 .byte   W36
 .byte   Ds3
 .byte   W36
 .byte   N56 ,En3
 .byte   W24
@  #03 @043   ----------------------------------------
 .byte   W36
 .byte   N11 ,En3 ,v088
 .byte   W12
 .byte   N32 ,En4 ,v072
 .byte   W16
 .byte   MOD 4
 .byte   W02
 .byte   MOD 9
 .byte   W01
 .byte   MOD 16
 .byte   W01
 .byte   MOD 21
 .byte   W01
 .byte   MOD 27
 .byte   W02
 .byte   MOD 32
 .byte   W01
 .byte   MOD 36
 .byte   W01
 .byte   MOD 38
 .byte   W01
 .byte   MOD 38
 .byte   W02
 .byte   MOD 30
 .byte   W01
 .byte   MOD 14
 .byte   W01
 .byte   MOD 0
 .byte   W18
@  #03 @044   ----------------------------------------
Label_017DA209:
 .byte   N23 ,Bn2 ,v108
 .byte   W36
 .byte   N11 ,As2
 .byte   W36
 .byte   N92 ,An2
 .byte   W24
 .byte   PEND 
@  #03 @045   ----------------------------------------
 .byte   W96
@  #03 @046   ----------------------------------------
Label_017DA215:
 .byte   N11 ,Gn3 ,v108
 .byte   W36
 .byte   Fs3
 .byte   W36
 .byte   N92 ,En3
 .byte   W24
 .byte   PEND 
@  #03 @047   ----------------------------------------
 .byte   W96
@  #03 @048   ----------------------------------------
 .byte   N23
 .byte   W36
 .byte   N11 ,Ds3
 .byte   W36
 .byte   N92 ,Dn3
 .byte   W24
@  #03 @049   ----------------------------------------
 .byte   W96
@  #03 @050   ----------------------------------------
 .byte   N23
 .byte   W36
 .byte   Ds3
 .byte   W36
 .byte   N92 ,En3
 .byte   W24
@  #03 @051   ----------------------------------------
 .byte   W96
@  #03 @052   ----------------------------------------
 .byte   PATT
  .word Label_017DA209
@  #03 @053   ----------------------------------------
 .byte   W96
@  #03 @054   ----------------------------------------
 .byte   PATT
  .word Label_017DA215
@  #03 @055   ----------------------------------------
 .byte   W96
@  #03 @056   ----------------------------------------
 .byte   PATT
  .word Label_017DA0E8
@  #03 @057   ----------------------------------------
 .byte   PATT
  .word Label_017DA0F1
@  #03 @058   ----------------------------------------
 .byte   PATT
  .word Label_017DA0E8
@  #03 @059   ----------------------------------------
 .byte   PATT
  .word Label_017DA0F1
@  #03 @060   ----------------------------------------
 .byte   N11 ,En3 ,v100
 .byte   W72
 .byte   Fs3
 .byte   W24
@  #03 @061   ----------------------------------------
 .byte   PATT
  .word Label_017DA109
@  #03 @062   ----------------------------------------
 .byte   PATT
  .word Label_017DA110
@  #03 @063   ----------------------------------------
 .byte   PATT
  .word Label_017DA119
@  #03 @064   ----------------------------------------
 .byte   PATT
  .word Label_017DA124
@  #03 @065   ----------------------------------------
 .byte   PATT
  .word Label_017DA12D
@  #03 @066   ----------------------------------------
 .byte   PATT
  .word Label_017DA134
@  #03 @067   ----------------------------------------
 .byte   PATT
  .word Label_017DA13C
@  #03 @068   ----------------------------------------
 .byte   PATT
  .word Label_017DA144
@  #03 @069   ----------------------------------------
 .byte   PATT
  .word Label_017DA12D
@  #03 @070   ----------------------------------------
 .byte   PATT
  .word Label_017DA152
@  #03 @071   ----------------------------------------
 .byte   N92 ,En3 ,v100
 .byte   W96
@  #03 @072   ----------------------------------------
 .byte   N44 ,Cn3
 .byte   W60
 .byte   N11
 .byte   W12
 .byte   N11
 .byte   W24
@  #03 @073   ----------------------------------------
 .byte   N44
 .byte   W48
 .byte   Dn3
 .byte   W48
@  #03 @074   ----------------------------------------
 .byte   Gn3
 .byte   W60
 .byte   N11
 .byte   W12
 .byte   N11
 .byte   W24
@  #03 @075   ----------------------------------------
 .byte   N44
 .byte   W48
 .byte   An3
 .byte   W48
@  #03 @076   ----------------------------------------
 .byte   Bn3
 .byte   W60
 .byte   N11
 .byte   W12
 .byte   N11
 .byte   W24
@  #03 @077   ----------------------------------------
 .byte   N44
 .byte   W48
 .byte   Ds3
 .byte   W48
@  #03 @078   ----------------------------------------
 .byte   N56 ,En3 ,v096
 .byte   W60
 .byte   N11 ,En3 ,v084
 .byte   W12
 .byte   En3 ,v080
 .byte   W24
@  #03 @079   ----------------------------------------
 .byte   N44 ,En3 ,v068
 .byte   W96
@  #03 @080   ----------------------------------------
 .byte   GOTO
  .word Label_017DA0D2
 .byte   FINE

@**************** Track 4 (Midi-Chn.3) ****************@

DrawntoLifeTheNextChapterSalem_004:
@  #04 @000   ----------------------------------------
 .byte   KEYSH , DrawntoLifeTheNextChapterSalem_key+0
Label_017DA2C6:
 .byte   VOICE , 34
 .byte   MODT 0
 .byte   LFOS 44
 .byte   VOL , 43*DrawntoLifeTheNextChapterSalem_mvl/mxv
 .byte   PAN , c_v+20
 .byte   W96
@  #04 @001   ----------------------------------------
 .byte   W96
@  #04 @002   ----------------------------------------
 .byte   W96
@  #04 @003   ----------------------------------------
 .byte   W96
@  #04 @004   ----------------------------------------
 .byte   W96
@  #04 @005   ----------------------------------------
 .byte   W96
@  #04 @006   ----------------------------------------
 .byte   W96
@  #04 @007   ----------------------------------------
 .byte   W96
@  #04 @008   ----------------------------------------
 .byte   W96
@  #04 @009   ----------------------------------------
 .byte   W96
@  #04 @010   ----------------------------------------
 .byte   W96
@  #04 @011   ----------------------------------------
 .byte   W96
@  #04 @012   ----------------------------------------
 .byte   W96
@  #04 @013   ----------------------------------------
 .byte   W96
@  #04 @014   ----------------------------------------
 .byte   W96
@  #04 @015   ----------------------------------------
 .byte   W96
@  #04 @016   ----------------------------------------
 .byte   N11 ,Gn5 ,v076
 .byte   W12
 .byte   Gn5 ,v072
 .byte   W12
 .byte   N11
 .byte   W12
 .byte   N11
 .byte   W12
 .byte   N11
 .byte   W12
 .byte   N11
 .byte   W12
 .byte   Gn5 ,v076
 .byte   W12
 .byte   N11
 .byte   W12
@  #04 @017   ----------------------------------------
 .byte   N11
 .byte   W12
 .byte   An5 ,v072
 .byte   W12
 .byte   Fs5 ,v084
 .byte   W24
 .byte   N23 ,Fs5 ,v088
 .byte   W48
@  #04 @018   ----------------------------------------
 .byte   N11
 .byte   W12
 .byte   Fs5 ,v076
 .byte   W12
 .byte   N11
 .byte   W12
 .byte   N11
 .byte   W12
 .byte   N11
 .byte   W12
 .byte   Fs5 ,v080
 .byte   W12
 .byte   Fs5 ,v084
 .byte   W12
 .byte   N11
 .byte   W12
@  #04 @019   ----------------------------------------
 .byte   Fs5 ,v088
 .byte   W12
 .byte   Gn5 ,v092
 .byte   W12
 .byte   En5
 .byte   W24
 .byte   N23
 .byte   W48
@  #04 @020   ----------------------------------------
 .byte   N11 ,Gn5 ,v100
 .byte   W12
 .byte   Gn5 ,v084
 .byte   W12
 .byte   N11
 .byte   W12
 .byte   Gn5 ,v088
 .byte   W12
 .byte   N11
 .byte   W12
 .byte   N11
 .byte   W12
 .byte   Gn5 ,v092
 .byte   W12
 .byte   N11
 .byte   W12
@  #04 @021   ----------------------------------------
 .byte   Gn5 ,v096
 .byte   W12
 .byte   An5 ,v100
 .byte   W12
 .byte   Fs5 ,v104
 .byte   W24
 .byte   N23 ,Fs5 ,v116
 .byte   W48
@  #04 @022   ----------------------------------------
 .byte   N11 ,Fs5 ,v108
 .byte   W12
 .byte   Fs5 ,v100
 .byte   W12
 .byte   N11
 .byte   W12
 .byte   N11
 .byte   W12
 .byte   N11
 .byte   W12
 .byte   N11
 .byte   W12
 .byte   N11
 .byte   W12
 .byte   Fs5 ,v104
 .byte   W12
@  #04 @023   ----------------------------------------
 .byte   Fs5 ,v108
 .byte   W12
 .byte   Gn5
 .byte   W12
 .byte   En5 ,v112
 .byte   W24
 .byte   N23 ,En5 ,v116
 .byte   W24
 .byte   Bn5 ,v092
 .byte   W24
@  #04 @024   ----------------------------------------
 .byte   N11 ,Gn5 ,v112
 .byte   W12
 .byte   Gn5 ,v080
 .byte   W12
 .byte   N11
 .byte   W12
 .byte   N11
 .byte   W12
 .byte   N11
 .byte   W12
 .byte   Gn5 ,v084
 .byte   W12
 .byte   N11
 .byte   W12
 .byte   Gn5 ,v088
 .byte   W12
@  #04 @025   ----------------------------------------
 .byte   Gn5 ,v092
 .byte   W12
 .byte   An5
 .byte   W12
 .byte   Fs5 ,v100
 .byte   W24
 .byte   N32 ,Fs5 ,v108
 .byte   W48
@  #04 @026   ----------------------------------------
 .byte   N11 ,Gn5 ,v112
 .byte   W12
 .byte   Gn5 ,v064
 .byte   W12
 .byte   Gn5 ,v072
 .byte   W12
 .byte   Gn5 ,v052
 .byte   W12
 .byte   Fs5 ,v064
 .byte   W12
 .byte   N11
 .byte   W12
 .byte   N11
 .byte   W12
 .byte   Fs5 ,v076
 .byte   W12
@  #04 @027   ----------------------------------------
 .byte   N23 ,En5
 .byte   W96
@  #04 @028   ----------------------------------------
 .byte   W96
@  #04 @029   ----------------------------------------
 .byte   W96
@  #04 @030   ----------------------------------------
 .byte   W96
@  #04 @031   ----------------------------------------
 .byte   W96
@  #04 @032   ----------------------------------------
 .byte   W96
@  #04 @033   ----------------------------------------
 .byte   W96
@  #04 @034   ----------------------------------------
 .byte   W96
@  #04 @035   ----------------------------------------
 .byte   W96
@  #04 @036   ----------------------------------------
 .byte   W96
@  #04 @037   ----------------------------------------
 .byte   W96
@  #04 @038   ----------------------------------------
 .byte   W96
@  #04 @039   ----------------------------------------
 .byte   W96
@  #04 @040   ----------------------------------------
 .byte   W96
@  #04 @041   ----------------------------------------
 .byte   W96
@  #04 @042   ----------------------------------------
 .byte   W96
@  #04 @043   ----------------------------------------
 .byte   W96
@  #04 @044   ----------------------------------------
 .byte   W96
@  #04 @045   ----------------------------------------
 .byte   W96
@  #04 @046   ----------------------------------------
 .byte   W96
@  #04 @047   ----------------------------------------
 .byte   W96
@  #04 @048   ----------------------------------------
 .byte   W96
@  #04 @049   ----------------------------------------
 .byte   W96
@  #04 @050   ----------------------------------------
 .byte   W96
@  #04 @051   ----------------------------------------
 .byte   W96
@  #04 @052   ----------------------------------------
 .byte   W96
@  #04 @053   ----------------------------------------
 .byte   W96
@  #04 @054   ----------------------------------------
 .byte   W96
@  #04 @055   ----------------------------------------
 .byte   W96
@  #04 @056   ----------------------------------------
 .byte   W96
@  #04 @057   ----------------------------------------
 .byte   W96
@  #04 @058   ----------------------------------------
 .byte   W96
@  #04 @059   ----------------------------------------
 .byte   W96
@  #04 @060   ----------------------------------------
 .byte   W96
@  #04 @061   ----------------------------------------
 .byte   W96
@  #04 @062   ----------------------------------------
 .byte   W96
@  #04 @063   ----------------------------------------
 .byte   W96
@  #04 @064   ----------------------------------------
 .byte   W96
@  #04 @065   ----------------------------------------
 .byte   W96
@  #04 @066   ----------------------------------------
 .byte   W96
@  #04 @067   ----------------------------------------
 .byte   W96
@  #04 @068   ----------------------------------------
 .byte   W96
@  #04 @069   ----------------------------------------
 .byte   W96
@  #04 @070   ----------------------------------------
 .byte   W96
@  #04 @071   ----------------------------------------
 .byte   W96
@  #04 @072   ----------------------------------------
 .byte   W96
@  #04 @073   ----------------------------------------
 .byte   W96
@  #04 @074   ----------------------------------------
 .byte   W96
@  #04 @075   ----------------------------------------
 .byte   W96
@  #04 @076   ----------------------------------------
 .byte   W96
@  #04 @077   ----------------------------------------
 .byte   W96
@  #04 @078   ----------------------------------------
 .byte   W96
@  #04 @079   ----------------------------------------
 .byte   W96
@  #04 @080   ----------------------------------------
 .byte   GOTO
  .word Label_017DA2C6
 .byte   FINE

@**************** Track 5 (Midi-Chn.4) ****************@

DrawntoLifeTheNextChapterSalem_005:
@  #05 @000   ----------------------------------------
 .byte   KEYSH , DrawntoLifeTheNextChapterSalem_key+0
Label_56A336:
 .byte   VOICE , 28
 .byte   MODT 0
 .byte   LFOS 44
 .byte   PAN , c_v+3
 .byte   VOL , 35*DrawntoLifeTheNextChapterSalem_mvl/mxv
 .byte   W96
@  #05 @001   ----------------------------------------
 .byte   W96
@  #05 @002   ----------------------------------------
 .byte   W96
@  #05 @003   ----------------------------------------
 .byte   W96
@  #05 @004   ----------------------------------------
 .byte   W96
@  #05 @005   ----------------------------------------
 .byte   W96
@  #05 @006   ----------------------------------------
 .byte   W96
@  #05 @007   ----------------------------------------
 .byte   W96
@  #05 @008   ----------------------------------------
 .byte   W96
@  #05 @009   ----------------------------------------
 .byte   W96
@  #05 @010   ----------------------------------------
 .byte   W96
@  #05 @011   ----------------------------------------
 .byte   W96
@  #05 @012   ----------------------------------------
 .byte   W96
@  #05 @013   ----------------------------------------
 .byte   W96
@  #05 @014   ----------------------------------------
 .byte   W96
@  #05 @015   ----------------------------------------
 .byte   W96
@  #05 @016   ----------------------------------------
 .byte   W96
@  #05 @017   ----------------------------------------
 .byte   W96
@  #05 @018   ----------------------------------------
 .byte   W96
@  #05 @019   ----------------------------------------
 .byte   W96
@  #05 @020   ----------------------------------------
 .byte   W96
@  #05 @021   ----------------------------------------
 .byte   W96
@  #05 @022   ----------------------------------------
 .byte   W96
@  #05 @023   ----------------------------------------
 .byte   W96
@  #05 @024   ----------------------------------------
 .byte   W96
@  #05 @025   ----------------------------------------
 .byte   W96
@  #05 @026   ----------------------------------------
 .byte   W96
@  #05 @027   ----------------------------------------
 .byte   W96
@  #05 @028   ----------------------------------------
 .byte   W96
@  #05 @029   ----------------------------------------
 .byte   W96
@  #05 @030   ----------------------------------------
 .byte   W96
@  #05 @031   ----------------------------------------
 .byte   W96
@  #05 @032   ----------------------------------------
 .byte   N80 ,En4 ,v080
 .byte   W96
@  #05 @033   ----------------------------------------
 .byte   N84 ,Ds4
 .byte   W96
@  #05 @034   ----------------------------------------
 .byte   N88 ,Dn4
 .byte   W96
@  #05 @035   ----------------------------------------
 .byte   N68 ,Cs4
 .byte   W96
@  #05 @036   ----------------------------------------
 .byte   Cn4
 .byte   W96
@  #05 @037   ----------------------------------------
 .byte   N72 ,Bn3
 .byte   W96
@  #05 @038   ----------------------------------------
 .byte   N80 ,An3
 .byte   W96
@  #05 @039   ----------------------------------------
 .byte   N20 ,Bn3
 .byte   W24
 .byte   N19 ,An3
 .byte   W24
 .byte   N13 ,Gn3
 .byte   W24
 .byte   N21 ,Fs3
 .byte   W24
@  #05 @040   ----------------------------------------
 .byte   N11 ,En3
 .byte   W96
@  #05 @041   ----------------------------------------
 .byte   W96
@  #05 @042   ----------------------------------------
 .byte   W96
@  #05 @043   ----------------------------------------
 .byte   W96
@  #05 @044   ----------------------------------------
 .byte   W96
@  #05 @045   ----------------------------------------
 .byte   W96
@  #05 @046   ----------------------------------------
 .byte   W96
@  #05 @047   ----------------------------------------
 .byte   W96
@  #05 @048   ----------------------------------------
 .byte   W96
@  #05 @049   ----------------------------------------
 .byte   W96
@  #05 @050   ----------------------------------------
 .byte   W96
@  #05 @051   ----------------------------------------
 .byte   W96
@  #05 @052   ----------------------------------------
 .byte   N32 ,Bn3 ,v052
 .byte   W36
 .byte   As3
 .byte   W36
 .byte   TIE ,An3
 .byte   W24
@  #05 @053   ----------------------------------------
 .byte   W80
 .byte   W03
 .byte   EOT
 .byte   W13
@  #05 @054   ----------------------------------------
 .byte   N23 ,Gn3
 .byte   W36
 .byte   Fs3
 .byte   W36
 .byte   TIE ,En3
 .byte   W24
@  #05 @055   ----------------------------------------
 .byte   W80
 .byte   W03
 .byte   EOT
 .byte   W13
@  #05 @056   ----------------------------------------
 .byte   W96
@  #05 @057   ----------------------------------------
 .byte   W96
@  #05 @058   ----------------------------------------
 .byte   W96
@  #05 @059   ----------------------------------------
 .byte   W96
@  #05 @060   ----------------------------------------
 .byte   W96
@  #05 @061   ----------------------------------------
 .byte   W96
@  #05 @062   ----------------------------------------
 .byte   W96
@  #05 @063   ----------------------------------------
 .byte   W96
@  #05 @064   ----------------------------------------
 .byte   W96
@  #05 @065   ----------------------------------------
 .byte   W96
@  #05 @066   ----------------------------------------
 .byte   W96
@  #05 @067   ----------------------------------------
 .byte   W96
@  #05 @068   ----------------------------------------
 .byte   W96
@  #05 @069   ----------------------------------------
 .byte   W96
@  #05 @070   ----------------------------------------
 .byte   W96
@  #05 @071   ----------------------------------------
 .byte   W96
@  #05 @072   ----------------------------------------
 .byte   W96
@  #05 @073   ----------------------------------------
 .byte   W96
@  #05 @074   ----------------------------------------
 .byte   W96
@  #05 @075   ----------------------------------------
 .byte   W96
@  #05 @076   ----------------------------------------
 .byte   W96
@  #05 @077   ----------------------------------------
 .byte   W96
@  #05 @078   ----------------------------------------
 .byte   W96
@  #05 @079   ----------------------------------------
 .byte   W96
@  #05 @080   ----------------------------------------
 .byte   GOTO
  .word Label_56A336
 .byte   FINE

@**************** Track 6 (Midi-Chn.5) ****************@

DrawntoLifeTheNextChapterSalem_006:
@  #06 @000   ----------------------------------------
 .byte   KEYSH , DrawntoLifeTheNextChapterSalem_key+0
Label_017DA3DA:
 .byte   VOICE , 2
 .byte   MODT 0
 .byte   LFOS 44
 .byte   VOL , 48*DrawntoLifeTheNextChapterSalem_mvl/mxv
 .byte   PAN , c_v-20
 .byte   W96
@  #06 @001   ----------------------------------------
 .byte   W96
@  #06 @002   ----------------------------------------
 .byte   N23 ,En4 ,v036
 .byte   W24
 .byte   Fs4
 .byte   W24
 .byte   N32 ,Gn4
 .byte   W36
 .byte   N11 ,An4 ,v040
 .byte   W12
@  #06 @003   ----------------------------------------
 .byte   N44
 .byte   W48
 .byte   Fs4
 .byte   W48
@  #06 @004   ----------------------------------------
 .byte   N23 ,En4 ,v044
 .byte   W24
 .byte   Fs4 ,v048
 .byte   W24
 .byte   N32 ,Gn4
 .byte   W36
 .byte   N11 ,An4 ,v052
 .byte   W12
@  #06 @005   ----------------------------------------
 .byte   N44 ,Bn4
 .byte   W48
 .byte   Gn4
 .byte   W48
@  #06 @006   ----------------------------------------
 .byte   Cn5
 .byte   W48
 .byte   An4
 .byte   W48
@  #06 @007   ----------------------------------------
 .byte   N56 ,Bn4
 .byte   W96
@  #06 @008   ----------------------------------------
Label_017DA411:
 .byte   N23 ,En4 ,v052
 .byte   N23 ,En5
 .byte   W24
 .byte   Fs4
 .byte   N23 ,Fs5
 .byte   W24
 .byte   N32 ,Gn4
 .byte   N32 ,Gn5
 .byte   W36
 .byte   N11 ,An4
 .byte   N11 ,An5
 .byte   W12
 .byte   PEND 
@  #06 @009   ----------------------------------------
 .byte   N44 ,An4
 .byte   N44 ,An5
 .byte   W48
 .byte   Fs4
 .byte   N44 ,Fs5
 .byte   W48
@  #06 @010   ----------------------------------------
 .byte   PATT
  .word Label_017DA411
@  #06 @011   ----------------------------------------
 .byte   N32 ,An4 ,v052
 .byte   N32 ,An5
 .byte   W36
 .byte   N11 ,Bn4
 .byte   N11 ,Bn5
 .byte   W12
 .byte   N32 ,Fs4
 .byte   N32 ,Fs5
 .byte   W48
@  #06 @012   ----------------------------------------
 .byte   PATT
  .word Label_017DA411
@  #06 @013   ----------------------------------------
 .byte   N44 ,Bn4 ,v052
 .byte   N44 ,Bn5
 .byte   W48
 .byte   Gn4
 .byte   N44 ,Gn5
 .byte   W48
@  #06 @014   ----------------------------------------
 .byte   Cn5
 .byte   N44 ,Cn6
 .byte   W48
 .byte   An4
 .byte   N44 ,An5
 .byte   W48
@  #06 @015   ----------------------------------------
 .byte   N56 ,Bn4
 .byte   N56 ,Bn5
 .byte   W96
@  #06 @016   ----------------------------------------
 .byte   Cn5
 .byte   N56 ,Cn6
 .byte   W96
@  #06 @017   ----------------------------------------
 .byte   N68 ,An4
 .byte   N68 ,An5
 .byte   W96
@  #06 @018   ----------------------------------------
 .byte   N56 ,Bn4
 .byte   N68 ,Bn5
 .byte   W96
@  #06 @019   ----------------------------------------
 .byte   Gn4 ,v056
 .byte   N68 ,Gn5
 .byte   W96
@  #06 @020   ----------------------------------------
 .byte   Cn5
 .byte   N68 ,Cn6
 .byte   W96
@  #06 @021   ----------------------------------------
 .byte   An4 ,v052
 .byte   N68 ,An5
 .byte   W96
@  #06 @022   ----------------------------------------
 .byte   Bn4
 .byte   N68 ,Bn5
 .byte   W96
@  #06 @023   ----------------------------------------
 .byte   N56 ,Gn4
 .byte   N56 ,Gn5
 .byte   W96
@  #06 @024   ----------------------------------------
 .byte   Cn5
 .byte   N56 ,Cn6
 .byte   W96
@  #06 @025   ----------------------------------------
 .byte   An4
 .byte   N56 ,An5
 .byte   W96
@  #06 @026   ----------------------------------------
 .byte   N32 ,Bn4
 .byte   N32 ,Bn5
 .byte   W48
 .byte   An4
 .byte   N32 ,An5
 .byte   W48
@  #06 @027   ----------------------------------------
 .byte   Gn4
 .byte   N32 ,Gn5
 .byte   W48
 .byte   Fs4
 .byte   N32 ,Fs5
 .byte   W48
@  #06 @028   ----------------------------------------
 .byte   PATT
  .word Label_017DA411
@  #06 @029   ----------------------------------------
 .byte   N44 ,An4 ,v052
 .byte   N44 ,An5
 .byte   W48
 .byte   En4
 .byte   N32 ,En5
 .byte   W48
@  #06 @030   ----------------------------------------
 .byte   N44 ,Fs4
 .byte   N44 ,Fs5
 .byte   W48
 .byte   Dn4
 .byte   N44 ,Dn5
 .byte   W48
@  #06 @031   ----------------------------------------
 .byte   N80 ,En4
 .byte   N80 ,En5
 .byte   W96
@  #06 @032   ----------------------------------------
 .byte   W24
 .byte   N32 ,Bn3 ,v040
 .byte   N32 ,En4
 .byte   N32 ,Gn4
 .byte   W36
 .byte   Bn3
 .byte   N32 ,En4
 .byte   N32 ,Gn4
 .byte   W36
@  #06 @033   ----------------------------------------
 .byte   W24
 .byte   Bn3
 .byte   N32 ,Ds4
 .byte   N32 ,Fs4
 .byte   W36
 .byte   Bn3
 .byte   N32 ,Ds4
 .byte   N32 ,Fs4
 .byte   W36
@  #06 @034   ----------------------------------------
 .byte   W24
 .byte   An3
 .byte   N32 ,Dn4
 .byte   N32 ,Fs4
 .byte   W36
 .byte   An3
 .byte   N32 ,Dn4
 .byte   N32 ,Fs4
 .byte   W36
@  #06 @035   ----------------------------------------
 .byte   W24
 .byte   An3
 .byte   N32 ,Cs4
 .byte   N32 ,En4
 .byte   W36
 .byte   An3
 .byte   N32 ,Cs4
 .byte   N32 ,En4
 .byte   W36
@  #06 @036   ----------------------------------------
 .byte   W24
 .byte   Gn3 ,v044
 .byte   N32 ,Cn4
 .byte   N32 ,En4
 .byte   W36
 .byte   Gn3
 .byte   N32 ,Cn4
 .byte   N32 ,En4
 .byte   W36
@  #06 @037   ----------------------------------------
 .byte   W24
 .byte   Gn3
 .byte   N32 ,Bn3
 .byte   N32 ,Dn4
 .byte   W36
 .byte   Gn3
 .byte   N32 ,Bn3
 .byte   N32 ,Dn4
 .byte   W36
@  #06 @038   ----------------------------------------
 .byte   W24
 .byte   An3
 .byte   N32 ,Cn4
 .byte   N32 ,En4
 .byte   W36
 .byte   An3
 .byte   N32 ,Cn4
 .byte   N32 ,En4
 .byte   W36
@  #06 @039   ----------------------------------------
 .byte   W18
 .byte   N44 ,An3
 .byte   W03
 .byte   N07 ,As3
 .byte   W03
 .byte   N40 ,Bn3
 .byte   W24
 .byte   N23 ,Ds4
 .byte   W24
 .byte   N64 ,Bn3
 .byte   W24
@  #06 @040   ----------------------------------------
 .byte   N42 ,Gn3
 .byte   N40 ,En4
 .byte   W96
@  #06 @041   ----------------------------------------
 .byte   W96
@  #06 @042   ----------------------------------------
 .byte   W96
@  #06 @043   ----------------------------------------
 .byte   W96
@  #06 @044   ----------------------------------------
 .byte   W96
@  #06 @045   ----------------------------------------
 .byte   W96
@  #06 @046   ----------------------------------------
 .byte   W96
@  #06 @047   ----------------------------------------
 .byte   W96
@  #06 @048   ----------------------------------------
 .byte   W96
@  #06 @049   ----------------------------------------
 .byte   W96
@  #06 @050   ----------------------------------------
 .byte   W96
@  #06 @051   ----------------------------------------
 .byte   W96
@  #06 @052   ----------------------------------------
 .byte   W96
@  #06 @053   ----------------------------------------
 .byte   W96
@  #06 @054   ----------------------------------------
 .byte   W96
@  #06 @055   ----------------------------------------
 .byte   W96
@  #06 @056   ----------------------------------------
 .byte   W96
@  #06 @057   ----------------------------------------
 .byte   W96
@  #06 @058   ----------------------------------------
 .byte   W96
@  #06 @059   ----------------------------------------
 .byte   W96
@  #06 @060   ----------------------------------------
 .byte   W96
@  #06 @061   ----------------------------------------
 .byte   W96
@  #06 @062   ----------------------------------------
 .byte   W96
@  #06 @063   ----------------------------------------
 .byte   W96
@  #06 @064   ----------------------------------------
 .byte   W96
@  #06 @065   ----------------------------------------
 .byte   W96
@  #06 @066   ----------------------------------------
 .byte   W96
@  #06 @067   ----------------------------------------
 .byte   W96
@  #06 @068   ----------------------------------------
 .byte   W96
@  #06 @069   ----------------------------------------
 .byte   W96
@  #06 @070   ----------------------------------------
 .byte   W96
@  #06 @071   ----------------------------------------
 .byte   W96
@  #06 @072   ----------------------------------------
 .byte   W96
@  #06 @073   ----------------------------------------
 .byte   W96
@  #06 @074   ----------------------------------------
 .byte   W96
@  #06 @075   ----------------------------------------
 .byte   W96
@  #06 @076   ----------------------------------------
 .byte   W96
@  #06 @077   ----------------------------------------
 .byte   W96
@  #06 @078   ----------------------------------------
 .byte   W96
@  #06 @079   ----------------------------------------
 .byte   W96
@  #06 @080   ----------------------------------------
 .byte   GOTO
  .word Label_017DA3DA
 .byte   FINE

@**************** Track 7 (Midi-Chn.6) ****************@

DrawntoLifeTheNextChapterSalem_007:
@  #07 @000   ----------------------------------------
 .byte   KEYSH , DrawntoLifeTheNextChapterSalem_key+0
Label_017DA55E:
 .byte   VOICE , 40
 .byte   MODT 0
 .byte   LFOS 44
 .byte   VOL , 46*DrawntoLifeTheNextChapterSalem_mvl/mxv
 .byte   PAN , c_v-11
 .byte   W96
@  #07 @001   ----------------------------------------
 .byte   W96
@  #07 @002   ----------------------------------------
 .byte   W96
@  #07 @003   ----------------------------------------
 .byte   W96
@  #07 @004   ----------------------------------------
 .byte   W96
@  #07 @005   ----------------------------------------
 .byte   W96
@  #07 @006   ----------------------------------------
 .byte   W96
@  #07 @007   ----------------------------------------
 .byte   W96
@  #07 @008   ----------------------------------------
 .byte   W96
@  #07 @009   ----------------------------------------
 .byte   W96
@  #07 @010   ----------------------------------------
 .byte   W96
@  #07 @011   ----------------------------------------
 .byte   W96
@  #07 @012   ----------------------------------------
 .byte   W96
@  #07 @013   ----------------------------------------
 .byte   W96
@  #07 @014   ----------------------------------------
 .byte   W96
@  #07 @015   ----------------------------------------
 .byte   W96
@  #07 @016   ----------------------------------------
 .byte   W96
@  #07 @017   ----------------------------------------
 .byte   W96
@  #07 @018   ----------------------------------------
 .byte   W96
@  #07 @019   ----------------------------------------
Label_017DA57B:
 .byte   W24
 .byte   N11 ,En4 ,v052
 .byte   W12
 .byte   Fs4
 .byte   W12
 .byte   N23 ,Gn4
 .byte   W24
 .byte   N11 ,An4
 .byte   W12
 .byte   En4
 .byte   W12
 .byte   PEND 
@  #07 @020   ----------------------------------------
 .byte   W96
@  #07 @021   ----------------------------------------
 .byte   W96
@  #07 @022   ----------------------------------------
 .byte   W96
@  #07 @023   ----------------------------------------
 .byte   PATT
  .word Label_017DA57B
@  #07 @024   ----------------------------------------
 .byte   W96
@  #07 @025   ----------------------------------------
 .byte   W96
@  #07 @026   ----------------------------------------
 .byte   W96
@  #07 @027   ----------------------------------------
 .byte   W96
@  #07 @028   ----------------------------------------
 .byte   W96
@  #07 @029   ----------------------------------------
 .byte   W96
@  #07 @030   ----------------------------------------
 .byte   W96
@  #07 @031   ----------------------------------------
 .byte   W96
@  #07 @032   ----------------------------------------
 .byte   N92 ,En3 ,v056
 .byte   W96
@  #07 @033   ----------------------------------------
 .byte   Fs3 ,v060
 .byte   W96
@  #07 @034   ----------------------------------------
 .byte   Gn3
 .byte   W96
@  #07 @035   ----------------------------------------
 .byte   An3
 .byte   W96
@  #07 @036   ----------------------------------------
 .byte   Gn3 ,v064
 .byte   W96
@  #07 @037   ----------------------------------------
 .byte   N44 ,An3 ,v068
 .byte   W48
 .byte   Gn3 ,v072
 .byte   W48
@  #07 @038   ----------------------------------------
 .byte   N92 ,An3
 .byte   W96
@  #07 @039   ----------------------------------------
 .byte   Bn3 ,v080
 .byte   W96
@  #07 @040   ----------------------------------------
 .byte   N11 ,En4 ,v056
 .byte   W96
@  #07 @041   ----------------------------------------
 .byte   W96
@  #07 @042   ----------------------------------------
 .byte   W96
@  #07 @043   ----------------------------------------
 .byte   W96
@  #07 @044   ----------------------------------------
 .byte   W96
@  #07 @045   ----------------------------------------
 .byte   W96
@  #07 @046   ----------------------------------------
 .byte   W96
@  #07 @047   ----------------------------------------
 .byte   W96
@  #07 @048   ----------------------------------------
 .byte   W96
@  #07 @049   ----------------------------------------
 .byte   W96
@  #07 @050   ----------------------------------------
 .byte   W96
@  #07 @051   ----------------------------------------
 .byte   W96
@  #07 @052   ----------------------------------------
 .byte   W96
@  #07 @053   ----------------------------------------
 .byte   W96
@  #07 @054   ----------------------------------------
 .byte   W96
@  #07 @055   ----------------------------------------
 .byte   W96
@  #07 @056   ----------------------------------------
Label_017DA5C9:
 .byte   N23 ,En4 ,v044
 .byte   N23 ,En5
 .byte   W24
 .byte   Fs4
 .byte   N23 ,Fs5
 .byte   W24
 .byte   N32 ,Gn4
 .byte   N32 ,Gn5
 .byte   W36
 .byte   N11 ,An4
 .byte   N11 ,An5
 .byte   W12
 .byte   PEND 
@  #07 @057   ----------------------------------------
Label_017DA5DE:
 .byte   N11 ,Ds4 ,v044
 .byte   N11 ,Ds5
 .byte   W36
 .byte   En4
 .byte   N11 ,En5
 .byte   W12
 .byte   N32 ,Fs4
 .byte   N32 ,Fs5
 .byte   W36
 .byte   N11 ,Gn4
 .byte   N11 ,Gn5
 .byte   W12
 .byte   PEND 
@  #07 @058   ----------------------------------------
 .byte   PATT
  .word Label_017DA5C9
@  #07 @059   ----------------------------------------
 .byte   PATT
  .word Label_017DA5DE
@  #07 @060   ----------------------------------------
 .byte   N23 ,En4 ,v044
 .byte   N23 ,En5
 .byte   W24
 .byte   Fs4
 .byte   N23 ,Fs5
 .byte   W24
 .byte   N32 ,Gn4
 .byte   N32 ,Gn5
 .byte   W36
 .byte   N11 ,An4 ,v048
 .byte   N11 ,An5
 .byte   W12
@  #07 @061   ----------------------------------------
 .byte   N44 ,Bn4
 .byte   N44 ,Bn5
 .byte   W48
 .byte   Gn4
 .byte   N44 ,Gn5
 .byte   W48
@  #07 @062   ----------------------------------------
 .byte   Cn5
 .byte   N44 ,Cn6
 .byte   W48
 .byte   An4
 .byte   N44 ,An5
 .byte   W48
@  #07 @063   ----------------------------------------
 .byte   N92 ,Bn4
 .byte   N92 ,Bn5
 .byte   W96
@  #07 @064   ----------------------------------------
 .byte   Gn4
 .byte   N92 ,Gn5
 .byte   W96
@  #07 @065   ----------------------------------------
Label_017DA62C:
 .byte   N44 ,Fs4 ,v048
 .byte   N44 ,Fs5
 .byte   W48
 .byte   En4
 .byte   N44 ,En5
 .byte   W48
 .byte   PEND 
@  #07 @066   ----------------------------------------
 .byte   Ds4
 .byte   N44 ,Ds5
 .byte   W48
 .byte   En4
 .byte   N44 ,En5
 .byte   W48
@  #07 @067   ----------------------------------------
 .byte   N92 ,Bn3
 .byte   N92 ,Bn4
 .byte   W96
@  #07 @068   ----------------------------------------
 .byte   Gn4
 .byte   N92 ,Gn5
 .byte   W96
@  #07 @069   ----------------------------------------
 .byte   PATT
  .word Label_017DA62C
@  #07 @070   ----------------------------------------
 .byte   N44 ,Ds4 ,v048
 .byte   N44 ,Ds5
 .byte   W48
 .byte   TIE ,En4
 .byte   TIE ,En5
 .byte   W48
@  #07 @071   ----------------------------------------
 .byte   W68
 .byte   W03
 .byte   EOT
 .byte   En4 ,v088
 .byte   W01
 .byte   N23 ,Fs4
 .byte   N23 ,Fs5
 .byte   W24
@  #07 @072   ----------------------------------------
 .byte   N11 ,Gn4
 .byte   TIE ,En5 ,v056
 .byte   N11 ,Gn5 ,v048
 .byte   W96
@  #07 @073   ----------------------------------------
 .byte   W44
 .byte   W03
 .byte   EOT
 .byte   En5
 .byte   W01
 .byte   N11 ,En5 ,v056
 .byte   W12
 .byte   Dn5
 .byte   W12
 .byte   Cn5
 .byte   W12
 .byte   Bn4
 .byte   W12
@  #07 @074   ----------------------------------------
 .byte   TIE ,Dn5
 .byte   W96
@  #07 @075   ----------------------------------------
 .byte   W44
 .byte   W03
 .byte   EOT
 .byte   W01
 .byte   N11 ,Cn5 ,v048
 .byte   W12
 .byte   Bn4 ,v044
 .byte   W12
 .byte   An4
 .byte   W12
 .byte   Gn4
 .byte   W12
@  #07 @076   ----------------------------------------
 .byte   TIE ,Bn4
 .byte   W96
@  #07 @077   ----------------------------------------
 .byte   W44
 .byte   W03
 .byte   EOT
 .byte   W01
 .byte   N11 ,Bn4 ,v032
 .byte   W12
 .byte   An4
 .byte   W12
 .byte   Gn4
 .byte   W12
 .byte   Fs4 ,v028
 .byte   W12
@  #07 @078   ----------------------------------------
 .byte   TIE ,En4
 .byte   W96
@  #07 @079   ----------------------------------------
 .byte   W92
 .byte   W03
 .byte   EOT
 .byte   W01
@  #07 @080   ----------------------------------------
 .byte   GOTO
  .word Label_017DA55E
 .byte   FINE

@**************** Track 8 (Midi-Chn.7) ****************@

DrawntoLifeTheNextChapterSalem_008:
@  #08 @000   ----------------------------------------
 .byte   KEYSH , DrawntoLifeTheNextChapterSalem_key+0
Label_017DA6AE:
 .byte   VOICE , 7
 .byte   MODT 0
 .byte   LFOS 44
 .byte   VOL , 67*DrawntoLifeTheNextChapterSalem_mvl/mxv
 .byte   PAN , c_v+17
 .byte   W96
@  #08 @001   ----------------------------------------
 .byte   W96
@  #08 @002   ----------------------------------------
 .byte   W96
@  #08 @003   ----------------------------------------
 .byte   W96
@  #08 @004   ----------------------------------------
 .byte   W96
@  #08 @005   ----------------------------------------
 .byte   W96
@  #08 @006   ----------------------------------------
 .byte   W96
@  #08 @007   ----------------------------------------
 .byte   W96
@  #08 @008   ----------------------------------------
 .byte   W96
@  #08 @009   ----------------------------------------
 .byte   W96
@  #08 @010   ----------------------------------------
 .byte   W96
@  #08 @011   ----------------------------------------
 .byte   W96
@  #08 @012   ----------------------------------------
 .byte   W96
@  #08 @013   ----------------------------------------
 .byte   W96
@  #08 @014   ----------------------------------------
 .byte   W96
@  #08 @015   ----------------------------------------
 .byte   W96
@  #08 @016   ----------------------------------------
 .byte   W96
@  #08 @017   ----------------------------------------
 .byte   W96
@  #08 @018   ----------------------------------------
 .byte   W96
@  #08 @019   ----------------------------------------
Label_017DA6CB:
 .byte   W72
 .byte   N11 ,Gn3 ,v060
 .byte   W12
 .byte   Fs3
 .byte   W12
 .byte   PEND 
@  #08 @020   ----------------------------------------
Label_017DA6D3:
 .byte   N11 ,Gn3 ,v060
 .byte   W24
 .byte   En3
 .byte   W24
 .byte   Bn2
 .byte   W24
 .byte   An2
 .byte   W24
 .byte   PEND 
@  #08 @021   ----------------------------------------
 .byte   Gn2
 .byte   W12
 .byte   N11
 .byte   W12
 .byte   An2
 .byte   W24
 .byte   Bn2
 .byte   W48
@  #08 @022   ----------------------------------------
 .byte   W96
@  #08 @023   ----------------------------------------
 .byte   PATT
  .word Label_017DA6CB
@  #08 @024   ----------------------------------------
 .byte   PATT
  .word Label_017DA6D3
@  #08 @025   ----------------------------------------
 .byte   N11 ,Gn2 ,v060
 .byte   W12
 .byte   N11
 .byte   W12
 .byte   An2
 .byte   W24
 .byte   Bn2
 .byte   W24
 .byte   Gn2
 .byte   W24
@  #08 @026   ----------------------------------------
 .byte   Gn2 ,v056
 .byte   W24
 .byte   Dn2
 .byte   W24
 .byte   Bn1
 .byte   W24
 .byte   An1
 .byte   W24
@  #08 @027   ----------------------------------------
 .byte   Gn1
 .byte   W96
@  #08 @028   ----------------------------------------
 .byte   W96
@  #08 @029   ----------------------------------------
 .byte   W96
@  #08 @030   ----------------------------------------
 .byte   W96
@  #08 @031   ----------------------------------------
 .byte   W96
@  #08 @032   ----------------------------------------
 .byte   W96
@  #08 @033   ----------------------------------------
 .byte   W96
@  #08 @034   ----------------------------------------
 .byte   W96
@  #08 @035   ----------------------------------------
 .byte   W96
@  #08 @036   ----------------------------------------
 .byte   W96
@  #08 @037   ----------------------------------------
 .byte   W96
@  #08 @038   ----------------------------------------
 .byte   W96
@  #08 @039   ----------------------------------------
 .byte   W96
@  #08 @040   ----------------------------------------
 .byte   W96
@  #08 @041   ----------------------------------------
 .byte   W96
@  #08 @042   ----------------------------------------
 .byte   W96
@  #08 @043   ----------------------------------------
 .byte   W96
@  #08 @044   ----------------------------------------
 .byte   W96
@  #08 @045   ----------------------------------------
 .byte   W96
@  #08 @046   ----------------------------------------
 .byte   W96
@  #08 @047   ----------------------------------------
 .byte   W96
@  #08 @048   ----------------------------------------
 .byte   W96
@  #08 @049   ----------------------------------------
 .byte   W96
@  #08 @050   ----------------------------------------
 .byte   W96
@  #08 @051   ----------------------------------------
 .byte   W96
@  #08 @052   ----------------------------------------
 .byte   W96
@  #08 @053   ----------------------------------------
 .byte   W96
@  #08 @054   ----------------------------------------
 .byte   W96
@  #08 @055   ----------------------------------------
 .byte   W96
@  #08 @056   ----------------------------------------
 .byte   W96
@  #08 @057   ----------------------------------------
 .byte   W96
@  #08 @058   ----------------------------------------
 .byte   W96
@  #08 @059   ----------------------------------------
 .byte   W96
@  #08 @060   ----------------------------------------
 .byte   W96
@  #08 @061   ----------------------------------------
 .byte   W96
@  #08 @062   ----------------------------------------
 .byte   W96
@  #08 @063   ----------------------------------------
 .byte   W96
@  #08 @064   ----------------------------------------
 .byte   W96
@  #08 @065   ----------------------------------------
 .byte   W96
@  #08 @066   ----------------------------------------
 .byte   W96
@  #08 @067   ----------------------------------------
 .byte   W96
@  #08 @068   ----------------------------------------
 .byte   W96
@  #08 @069   ----------------------------------------
 .byte   W96
@  #08 @070   ----------------------------------------
 .byte   W96
@  #08 @071   ----------------------------------------
 .byte   W96
@  #08 @072   ----------------------------------------
 .byte   W96
@  #08 @073   ----------------------------------------
 .byte   W96
@  #08 @074   ----------------------------------------
 .byte   W96
@  #08 @075   ----------------------------------------
 .byte   W96
@  #08 @076   ----------------------------------------
 .byte   W96
@  #08 @077   ----------------------------------------
 .byte   W96
@  #08 @078   ----------------------------------------
 .byte   W96
@  #08 @079   ----------------------------------------
 .byte   W96
@  #08 @080   ----------------------------------------
 .byte   GOTO
  .word Label_017DA6AE
 .byte   FINE

@**************** Track 9 (Midi-Chn.8) ****************@

DrawntoLifeTheNextChapterSalem_009:
@  #09 @000   ----------------------------------------
 .byte   KEYSH , DrawntoLifeTheNextChapterSalem_key+0
Label_0192B1BA:
 .byte   VOICE , 20
 .byte   MODT 0
 .byte   LFOS 44
 .byte   VOL , 69*DrawntoLifeTheNextChapterSalem_mvl/mxv
 .byte   TIE ,Bn2 ,v056
 .byte   N80 ,En3
 .byte   TIE ,Bn3
 .byte   N23 ,En4
 .byte   W24
 .byte   Fs4
 .byte   W24
 .byte   N32 ,Gn4
 .byte   W36
 .byte   N56 ,An4
 .byte   W12
@  #09 @001   ----------------------------------------
Label_0192B1D4:
 .byte   N92 ,Ds3 ,v056
 .byte   W48
 .byte   N44 ,Fs3
 .byte   N44 ,Fs4
 .byte   W48
 .byte   PEND 
@  #09 @002   ----------------------------------------
Label_0192B1DE:
 .byte   N92 ,En3 ,v056
 .byte   N92 ,Gn3
 .byte   N23 ,En4
 .byte   W24
 .byte   Fs4
 .byte   W24
 .byte   N32 ,Gn4
 .byte   W36
 .byte   N44 ,An4
 .byte   W12
 .byte   PEND 
@  #09 @003   ----------------------------------------
Label_0192B1EF:
 .byte   N92 ,Ds3 ,v056
 .byte   N92 ,Fs3
 .byte   W36
 .byte   N11 ,Bn4
 .byte   W12
 .byte   N44 ,Fs4
 .byte   W48
 .byte   PEND 
@  #09 @004   ----------------------------------------
Label_0192B1FC:
 .byte   N92 ,En3 ,v056
 .byte   TIE ,Gn3
 .byte   N23 ,En4
 .byte   W24
 .byte   Fs4
 .byte   W24
 .byte   N32 ,Gn4
 .byte   W32
 .byte   W03
 .byte   PEND 
 .byte   EOT
 .byte   Bn3
 .byte   W01
 .byte   N11 ,An4
 .byte   W12
@  #09 @005   ----------------------------------------
Label_0192B211:
 .byte   N92 ,Dn3 ,v056
 .byte   N44 ,Bn4
 .byte   W48
 .byte   Gn4
 .byte   W32
 .byte   W03
 .byte   PEND 
 .byte   EOT
 .byte   Gn3
 .byte   W12
 .byte   Bn2
 .byte   W01
@  #09 @006   ----------------------------------------
Label_0192B220:
 .byte   TIE ,Cn3 ,v056
 .byte   N92 ,En3
 .byte   N92 ,An3
 .byte   N44 ,An4
 .byte   W48
 .byte   En4
 .byte   W48
 .byte   PEND 
@  #09 @007   ----------------------------------------
Label_0192B22D:
 .byte   N92 ,Ds3 ,v056
 .byte   N92 ,Fs3
 .byte   N92 ,Fs4
 .byte   W92
 .byte   W03
 .byte   PEND 
 .byte   EOT
 .byte   Cn3
 .byte   W01
@  #09 @008   ----------------------------------------
Label_0192B23A:
 .byte   TIE ,Bn2 ,v056
 .byte   N80 ,En3
 .byte   TIE ,Bn3
 .byte   N23 ,En4
 .byte   W24
 .byte   Fs4
 .byte   W24
 .byte   N32 ,Gn4
 .byte   W36
 .byte   N56 ,An4
 .byte   W12
 .byte   PEND 
@  #09 @009   ----------------------------------------
 .byte   PATT
  .word Label_0192B1D4
@  #09 @010   ----------------------------------------
 .byte   PATT
  .word Label_0192B1DE
@  #09 @011   ----------------------------------------
 .byte   PATT
  .word Label_0192B1EF
@  #09 @012   ----------------------------------------
 .byte   PATT
  .word Label_0192B1FC
@  #09 @013   ----------------------------------------
 .byte   EOT
 .byte   Bn3
 .byte   W01
 .byte   N11 ,An4 ,v056
 .byte   W12
@  #09 @014   ----------------------------------------
 .byte   PATT
  .word Label_0192B211
@  #09 @015   ----------------------------------------
 .byte   EOT
 .byte   Gn3
 .byte   W12
 .byte   Bn2
 .byte   W01
@  #09 @016   ----------------------------------------
 .byte   PATT
  .word Label_0192B220
@  #09 @017   ----------------------------------------
 .byte   PATT
  .word Label_0192B22D
@  #09 @018   ----------------------------------------
 .byte   EOT
 .byte   Cn3
 .byte   W01
Label_0192B27F:
 .byte   N92 ,Cn3 ,v056
 .byte   N92 ,En3
 .byte   N92 ,Gn3
 .byte   N23 ,En4
 .byte   W24
 .byte   Fs4
 .byte   W24
 .byte   N32 ,Gn4
 .byte   W36
 .byte   N56 ,An4
 .byte   W12
 .byte   PEND 
@  #09 @019   ----------------------------------------
Label_0192B292:
 .byte   N92 ,Dn3 ,v056
 .byte   N92 ,Fs3
 .byte   N92 ,An3
 .byte   W48
 .byte   N44 ,Fs4
 .byte   W48
 .byte   PEND 
@  #09 @020   ----------------------------------------
Label_0192B29E:
 .byte   N92 ,Ds3 ,v056
 .byte   N92 ,Fs3
 .byte   TIE ,Bn3
 .byte   N23 ,Bn4
 .byte   W24
 .byte   An4
 .byte   W24
 .byte   N32 ,Bn4
 .byte   W36
 .byte   N11 ,Cn5
 .byte   W12
 .byte   PEND 
@  #09 @021   ----------------------------------------
Label_0192B2B1:
 .byte   N92 ,En3 ,v056
 .byte   N92 ,Gn3
 .byte   N44 ,Bn4
 .byte   W48
 .byte   Gn4
 .byte   W44
 .byte   W03
 .byte   PEND 
 .byte   EOT
 .byte   Bn3
 .byte   W01
@  #09 @022   ----------------------------------------
 .byte   PATT
  .word Label_0192B27F
@  #09 @023   ----------------------------------------
 .byte   PATT
  .word Label_0192B292
@  #09 @024   ----------------------------------------
 .byte   PATT
  .word Label_0192B29E
@  #09 @025   ----------------------------------------
 .byte   N92 ,En3 ,v056
 .byte   N92 ,Gn3
 .byte   N44 ,Bn4
 .byte   W48
 .byte   Gn4
 .byte   W24
 .byte   N23 ,Bn4 ,v060
 .byte   W23
 .byte   EOT
 .byte   Bn3
 .byte   W01
@  #09 @026   ----------------------------------------
 .byte   N92 ,Cn3
 .byte   N92 ,Gn3
 .byte   N68 ,Cn5
 .byte   W72
 .byte   N23 ,Bn4
 .byte   W24
@  #09 @027   ----------------------------------------
 .byte   TIE ,Dn3
 .byte   N92 ,Fs3
 .byte   N92 ,An3
 .byte   N68 ,An4
 .byte   W72
 .byte   N11 ,Gn4
 .byte   W12
 .byte   An4
 .byte   W12
@  #09 @028   ----------------------------------------
 .byte   N44 ,Gn3
 .byte   N44 ,Bn3
 .byte   N23 ,Bn4
 .byte   W24
 .byte   Cn5
 .byte   W24
 .byte   N44 ,Fs3
 .byte   N44 ,An3
 .byte   N23 ,An4
 .byte   W24
 .byte   Bn4
 .byte   W23
 .byte   EOT
 .byte   Dn3
 .byte   W01
@  #09 @029   ----------------------------------------
 .byte   N44 ,En3
 .byte   N44 ,Gn3
 .byte   N44 ,Bn3
 .byte   N44 ,En4
 .byte   N44 ,Gn4
 .byte   W48
 .byte   TIE ,Bn2
 .byte   N44 ,Fs3
 .byte   N44 ,Ds4
 .byte   N44 ,Fs4
 .byte   W48
@  #09 @030   ----------------------------------------
 .byte   N92 ,En3
 .byte   N92 ,Gn3
 .byte   N11 ,Bn3
 .byte   N11 ,En4
 .byte   W24
 .byte   Bn3
 .byte   N11 ,Fs4
 .byte   W24
 .byte   N44 ,Bn3
 .byte   N32 ,Gn4
 .byte   W36
 .byte   N11 ,An4
 .byte   W11
 .byte   EOT
 .byte   Bn2
 .byte   W01
@  #09 @031   ----------------------------------------
 .byte   N92 ,Cn3
 .byte   N80 ,Gn3
 .byte   N44 ,An4
 .byte   W48
 .byte   En4
 .byte   W48
@  #09 @032   ----------------------------------------
 .byte   N92 ,Dn3
 .byte   N92 ,Fs3
 .byte   N80 ,An3
 .byte   N11 ,Fs4
 .byte   W24
 .byte   Gn4
 .byte   W24
 .byte   N32 ,Fs4
 .byte   W36
 .byte   N11 ,Dn4
 .byte   W12
@  #09 @033   ----------------------------------------
 .byte   N80 ,Bn2
 .byte   N80 ,En3
 .byte   N80 ,Gn3
 .byte   N80 ,En4
 .byte   W96
@  #09 @034   ----------------------------------------
 .byte   N92 ,En3 ,v048
 .byte   N92 ,Gn3
 .byte   TIE ,Bn3
 .byte   N92 ,En4
 .byte   W96
@  #09 @035   ----------------------------------------
 .byte   Ds3
 .byte   N92 ,Ds4
 .byte   W92
 .byte   W03
 .byte   EOT
 .byte   Bn3
 .byte   W01
@  #09 @036   ----------------------------------------
 .byte   N92 ,Dn3
 .byte   N92 ,Fs3
 .byte   TIE ,An3
 .byte   N92 ,Dn4
 .byte   W96
@  #09 @037   ----------------------------------------
 .byte   An2
 .byte   N92 ,Cs3
 .byte   N92 ,Cs4
 .byte   W92
 .byte   W03
 .byte   EOT
 .byte   An3
 .byte   W01
@  #09 @038   ----------------------------------------
 .byte   TIE ,Gn2
 .byte   N92 ,Cn3
 .byte   TIE ,Gn3
 .byte   N92 ,Cn4
 .byte   W96
@  #09 @039   ----------------------------------------
 .byte   Bn2
 .byte   N92 ,Bn3
 .byte   W92
 .byte   W03
 .byte   EOT
 .byte   Gn2 ,v067
 .byte   W01
@  #09 @040   ----------------------------------------
 .byte   N92 ,An2
 .byte   N92 ,En3
 .byte   N92 ,An3
 .byte   N92 ,Cn4
 .byte   W96
@  #09 @041   ----------------------------------------
 .byte   Bn2
 .byte   N92 ,Ds3
 .byte   N92 ,Bn3
 .byte   N92 ,Ds4
 .byte   W96
@  #09 @042   ----------------------------------------
 .byte   W96
@  #09 @043   ----------------------------------------
 .byte   W96
@  #09 @044   ----------------------------------------
 .byte   W96
@  #09 @045   ----------------------------------------
 .byte   W96
@  #09 @046   ----------------------------------------
 .byte   W96
@  #09 @047   ----------------------------------------
 .byte   W96
@  #09 @048   ----------------------------------------
 .byte   W96
@  #09 @049   ----------------------------------------
 .byte   W96
@  #09 @050   ----------------------------------------
 .byte   N23 ,En2 ,v056
 .byte   N23 ,Gn2
 .byte   N23 ,Bn2
 .byte   W36
 .byte   Ds2
 .byte   N23 ,Fs2
 .byte   N23 ,An2
 .byte   W36
 .byte   TIE ,Dn2
 .byte   TIE ,Fn2
 .byte   TIE ,Gs2
 .byte   W24
@  #09 @051   ----------------------------------------
 .byte   W80
 .byte   W03
 .byte   EOT
 .byte   Dn2 ,v053
 .byte   Gs2
 .byte   W13
@  #09 @052   ----------------------------------------
 .byte   N23 ,Dn2
 .byte   N23 ,Fn2
 .byte   N23 ,Gs2
 .byte   W36
 .byte   Ds2
 .byte   N23 ,Fs2
 .byte   N23 ,An2
 .byte   W36
 .byte   TIE ,En2
 .byte   TIE ,Gn2
 .byte   TIE ,Bn2
 .byte   W24
@  #09 @053   ----------------------------------------
 .byte   W80
 .byte   W03
 .byte   EOT
 .byte   En2 ,v055
 .byte   Bn2
 .byte   W13
@  #09 @054   ----------------------------------------
 .byte   N23 ,Ds2
 .byte   N23 ,Fs2
 .byte   N23 ,Bn2
 .byte   W36
 .byte   Dn2
 .byte   N23 ,Fn2
 .byte   N23 ,As2
 .byte   W36
 .byte   TIE ,Cn2
 .byte   TIE ,En2
 .byte   TIE ,An2
 .byte   W24
@  #09 @055   ----------------------------------------
 .byte   W80
 .byte   W03
 .byte   EOT
 .byte   Cn2 ,v052
 .byte   An2
 .byte   W13
@  #09 @056   ----------------------------------------
 .byte   N23 ,Dn2
 .byte   N23 ,Gn2
 .byte   N23 ,Bn2
 .byte   W36
 .byte   Dn2
 .byte   N23 ,Fs2
 .byte   N23 ,An2
 .byte   W36
 .byte   TIE ,En2
 .byte   TIE ,Gn2
 .byte   TIE ,Bn2
 .byte   W24
@  #09 @057   ----------------------------------------
 .byte   W80
 .byte   W03
 .byte   EOT
 .byte   En2 ,v055
 .byte   Bn2
 .byte   W13
@  #09 @058   ----------------------------------------
 .byte   PATT
  .word Label_0192B23A
@  #09 @059   ----------------------------------------
 .byte   PATT
  .word Label_0192B1D4
@  #09 @060   ----------------------------------------
 .byte   PATT
  .word Label_0192B1DE
@  #09 @061   ----------------------------------------
 .byte   PATT
  .word Label_0192B1EF
@  #09 @062   ----------------------------------------
 .byte   PATT
  .word Label_0192B1FC
@  #09 @063   ----------------------------------------
 .byte   EOT
 .byte   Bn3
 .byte   W01
 .byte   N11 ,An4 ,v056
 .byte   W12
@  #09 @064   ----------------------------------------
 .byte   PATT
  .word Label_0192B211
@  #09 @065   ----------------------------------------
 .byte   EOT
 .byte   Gn3
 .byte   W12
 .byte   Bn2
 .byte   W01
@  #09 @066   ----------------------------------------
 .byte   PATT
  .word Label_0192B220
@  #09 @067   ----------------------------------------
 .byte   PATT
  .word Label_0192B22D
@  #09 @068   ----------------------------------------
 .byte   EOT
 .byte   Cn3
 .byte   W01
@  #09 @069   ----------------------------------------
 .byte   PATT
  .word Label_0192B27F
@  #09 @070   ----------------------------------------
 .byte   PATT
  .word Label_0192B292
@  #09 @071   ----------------------------------------
 .byte   PATT
  .word Label_0192B29E
@  #09 @072   ----------------------------------------
 .byte   PATT
  .word Label_0192B2B1
@  #09 @073   ----------------------------------------
 .byte   EOT
 .byte   Bn3
 .byte   W01
@  #09 @074   ----------------------------------------
 .byte   PATT
  .word Label_0192B27F
@  #09 @075   ----------------------------------------
 .byte   PATT
  .word Label_0192B292
@  #09 @076   ----------------------------------------
 .byte   PATT
  .word Label_0192B29E
@  #09 @077   ----------------------------------------
 .byte   N92 ,En3 ,v056
 .byte   N92 ,Gn3
 .byte   N44 ,Bn4
 .byte   W48
 .byte   Gn4
 .byte   W24
 .byte   N23 ,Bn4
 .byte   W23
 .byte   EOT
 .byte   Bn3
 .byte   W01
@  #09 @078   ----------------------------------------
 .byte   TIE ,Cn3
 .byte   TIE ,Gn3
 .byte   TIE ,Cn4
 .byte   TIE ,Cn5
 .byte   W96
@  #09 @079   ----------------------------------------
 .byte   W44
 .byte   W03
 .byte   EOT
 .byte   Cn3 ,v067
 .byte   Cn4 ,v084
 .byte   W01
 .byte   TIE ,Dn3
 .byte   N44 ,Fs3
 .byte   N32 ,An3
 .byte   N11 ,Cn5
 .byte   W12
 .byte   Bn4
 .byte   W12
 .byte   An4
 .byte   W12
 .byte   Gn4
 .byte   W12
@  #09 @080   ----------------------------------------
 .byte   TIE ,Gn3
 .byte   TIE ,Bn3
 .byte   TIE ,Bn4
 .byte   W96
@  #09 @081   ----------------------------------------
 .byte   W32
 .byte   W03
 .byte   EOT
 .byte   Bn3
 .byte   W12
 .byte   Dn3 ,v067
 .byte   Bn4
 .byte   W01
 .byte   N32 ,En3
 .byte   N23 ,An3
 .byte   N32 ,Cn4
 .byte   N11 ,Cn5
 .byte   W12
 .byte   N23 ,Bn4
 .byte   W12
 .byte   N11 ,An4
 .byte   W12
 .byte   Gn4
 .byte   W12
@  #09 @082   ----------------------------------------
 .byte   TIE ,Ds3
 .byte   TIE ,Fs3
 .byte   TIE ,Fs4
 .byte   W96
@  #09 @083   ----------------------------------------
 .byte   W48
 .byte   N11 ,Bn4
 .byte   W11
 .byte   EOT
 .byte   Fs4
 .byte   W01
 .byte   N11 ,An4
 .byte   W12
 .byte   Gn4
 .byte   W11
 .byte   EOT
 .byte   Ds3 ,v066
 .byte   W01
 .byte   N11 ,Fs4
 .byte   W12
@  #09 @084   ----------------------------------------
 .byte   TIE ,En3
 .byte   TIE ,Gn3
 .byte   TIE ,Bn3
 .byte   TIE ,Gn4
 .byte   W96
@  #09 @085   ----------------------------------------
 .byte   W92
 .byte   W03
 .byte   EOT
 .byte   En3 ,v067
 .byte   Bn3 ,v079
 .byte   W01
@  #09 @086   ----------------------------------------
 .byte   GOTO
  .word Label_0192B1BA
 .byte   FINE

@**************** Track 10 (Midi-Chn.9) ****************@

DrawntoLifeTheNextChapterSalem_010:
@  #10 @000   ----------------------------------------
 .byte   KEYSH , DrawntoLifeTheNextChapterSalem_key+0
Label_017DAA86:
 .byte   VOICE , 74
 .byte   MODT 0
 .byte   LFOS 44
 .byte   VOL , 74*DrawntoLifeTheNextChapterSalem_mvl/mxv
 .byte   PAN , c_v+26
 .byte   W96
@  #10 @001   ----------------------------------------
 .byte   W96
@  #10 @002   ----------------------------------------
 .byte   W96
@  #10 @003   ----------------------------------------
 .byte   W96
@  #10 @004   ----------------------------------------
 .byte   N92 ,En2 ,v056
 .byte   W96
@  #10 @005   ----------------------------------------
 .byte   Gn2
 .byte   W96
@  #10 @006   ----------------------------------------
 .byte   An2
 .byte   W96
@  #10 @007   ----------------------------------------
 .byte   N80 ,Bn2
 .byte   W84
 .byte   N05 ,Bn3 ,v040
 .byte   W06
 .byte   Ds4
 .byte   W06
@  #10 @008   ----------------------------------------
 .byte   N11 ,En4
 .byte   W96
@  #10 @009   ----------------------------------------
 .byte   W96
@  #10 @010   ----------------------------------------
 .byte   W96
@  #10 @011   ----------------------------------------
 .byte   W96
@  #10 @012   ----------------------------------------
 .byte   W96
@  #10 @013   ----------------------------------------
 .byte   W96
@  #10 @014   ----------------------------------------
 .byte   W96
@  #10 @015   ----------------------------------------
 .byte   W96
@  #10 @016   ----------------------------------------
 .byte   W96
@  #10 @017   ----------------------------------------
 .byte   W96
@  #10 @018   ----------------------------------------
 .byte   W96
@  #10 @019   ----------------------------------------
 .byte   W96
@  #10 @020   ----------------------------------------
 .byte   W96
@  #10 @021   ----------------------------------------
 .byte   W72
 .byte   N07 ,Gn4 ,v076
 .byte   W12
 .byte   N06 ,Fs4
 .byte   W12
@  #10 @022   ----------------------------------------
 .byte   N11 ,Bn4
 .byte   W24
 .byte   N09 ,En4
 .byte   W24
 .byte   Bn3
 .byte   W24
 .byte   N08 ,An3 ,v072
 .byte   W24
@  #10 @023   ----------------------------------------
 .byte   N06 ,Gn3
 .byte   W12
 .byte   N07
 .byte   W12
 .byte   N10 ,An3
 .byte   W24
 .byte   Bn3
 .byte   W48
@  #10 @024   ----------------------------------------
 .byte   W96
@  #10 @025   ----------------------------------------
 .byte   W96
@  #10 @026   ----------------------------------------
 .byte   W96
@  #10 @027   ----------------------------------------
 .byte   W96
@  #10 @028   ----------------------------------------
 .byte   W96
@  #10 @029   ----------------------------------------
 .byte   W96
@  #10 @030   ----------------------------------------
 .byte   W96
@  #10 @031   ----------------------------------------
 .byte   W72
 .byte   N11 ,En4
 .byte   W12
 .byte   Fs4
 .byte   W12
@  #10 @032   ----------------------------------------
Label_017DAADF:
 .byte   N68 ,Gn4 ,v072
 .byte   W72
 .byte   N11 ,An4
 .byte   W12
 .byte   Gn4
 .byte   W12
 .byte   PEND 
@  #10 @033   ----------------------------------------
 .byte   W12
 .byte   Fs4
 .byte   W24
 .byte   N23 ,En4
 .byte   W36
 .byte   N11
 .byte   W12
 .byte   Fs4
 .byte   W12
@  #10 @034   ----------------------------------------
 .byte   Gn4
 .byte   W24
 .byte   En4
 .byte   W24
 .byte   N23 ,Gn4
 .byte   W24
 .byte   N11 ,Bn4
 .byte   W12
 .byte   N44
 .byte   W12
@  #10 @035   ----------------------------------------
 .byte   W36
 .byte   N32 ,An4
 .byte   W36
 .byte   N11 ,En4
 .byte   W12
 .byte   Fs4
 .byte   W12
@  #10 @036   ----------------------------------------
 .byte   PATT
  .word Label_017DAADF
@  #10 @037   ----------------------------------------
 .byte   W12
 .byte   N11 ,Fs4 ,v072
 .byte   W24
 .byte   N32 ,En4
 .byte   W36
 .byte   N23 ,Dn4
 .byte   W24
@  #10 @038   ----------------------------------------
 .byte   N68 ,En4
 .byte   W72
 .byte   N23 ,Gn4
 .byte   W24
@  #10 @039   ----------------------------------------
 .byte   N92 ,Fs4
 .byte   W96
@  #10 @040   ----------------------------------------
 .byte   N11 ,En4
 .byte   W96
@  #10 @041   ----------------------------------------
 .byte   W96
@  #10 @042   ----------------------------------------
 .byte   W96
@  #10 @043   ----------------------------------------
 .byte   W96
@  #10 @044   ----------------------------------------
 .byte   W96
@  #10 @045   ----------------------------------------
 .byte   W96
@  #10 @046   ----------------------------------------
 .byte   W96
@  #10 @047   ----------------------------------------
 .byte   W96
@  #10 @048   ----------------------------------------
 .byte   W96
@  #10 @049   ----------------------------------------
 .byte   W96
@  #10 @050   ----------------------------------------
 .byte   W96
@  #10 @051   ----------------------------------------
 .byte   W96
@  #10 @052   ----------------------------------------
 .byte   W96
@  #10 @053   ----------------------------------------
 .byte   W96
@  #10 @054   ----------------------------------------
 .byte   W96
@  #10 @055   ----------------------------------------
 .byte   W96
@  #10 @056   ----------------------------------------
 .byte   W96
@  #10 @057   ----------------------------------------
 .byte   W96
@  #10 @058   ----------------------------------------
 .byte   W96
@  #10 @059   ----------------------------------------
 .byte   W96
@  #10 @060   ----------------------------------------
 .byte   W96
@  #10 @061   ----------------------------------------
 .byte   W96
@  #10 @062   ----------------------------------------
 .byte   W96
@  #10 @063   ----------------------------------------
 .byte   W96
@  #10 @064   ----------------------------------------
 .byte   W96
@  #10 @065   ----------------------------------------
 .byte   W96
@  #10 @066   ----------------------------------------
 .byte   W96
@  #10 @067   ----------------------------------------
 .byte   W96
@  #10 @068   ----------------------------------------
 .byte   W96
@  #10 @069   ----------------------------------------
 .byte   W96
@  #10 @070   ----------------------------------------
 .byte   W96
@  #10 @071   ----------------------------------------
 .byte   W96
@  #10 @072   ----------------------------------------
 .byte   TIE ,Cn3 ,v052
 .byte   W96
@  #10 @073   ----------------------------------------
 .byte   W44
 .byte   W03
 .byte   EOT
 .byte   W01
 .byte   N44 ,Dn3
 .byte   W48
@  #10 @074   ----------------------------------------
 .byte   TIE ,Gn3
 .byte   W96
@  #10 @075   ----------------------------------------
 .byte   W44
 .byte   W03
 .byte   EOT
 .byte   W01
 .byte   N44 ,An3
 .byte   W48
@  #10 @076   ----------------------------------------
 .byte   TIE ,Fs3
 .byte   W96
@  #10 @077   ----------------------------------------
 .byte   W44
 .byte   W03
 .byte   EOT
 .byte   W01
 .byte   N44 ,Ds3
 .byte   W48
@  #10 @078   ----------------------------------------
 .byte   TIE ,En3
 .byte   W96
@  #10 @079   ----------------------------------------
 .byte   W92
 .byte   W03
 .byte   EOT
 .byte   W01
@  #10 @080   ----------------------------------------
 .byte   GOTO
  .word Label_017DAA86
 .byte   FINE

@**************** Track 11 (Midi-Chn.10) ****************@

DrawntoLifeTheNextChapterSalem_011:
@  #11 @000   ----------------------------------------
 .byte   KEYSH , DrawntoLifeTheNextChapterSalem_key+0
Label_017DAB72:
 .byte   VOICE , 14
 .byte   MODT 0
 .byte   LFOS 44
 .byte   PAN , c_v-1
 .byte   VOL , 46*DrawntoLifeTheNextChapterSalem_mvl/mxv
 .byte   W96
@  #11 @001   ----------------------------------------
 .byte   W96
@  #11 @002   ----------------------------------------
 .byte   W96
@  #11 @003   ----------------------------------------
 .byte   W96
@  #11 @004   ----------------------------------------
 .byte   W96
@  #11 @005   ----------------------------------------
 .byte   W96
@  #11 @006   ----------------------------------------
 .byte   W96
@  #11 @007   ----------------------------------------
 .byte   W96
@  #11 @008   ----------------------------------------
 .byte   W96
@  #11 @009   ----------------------------------------
 .byte   W96
@  #11 @010   ----------------------------------------
 .byte   W96
@  #11 @011   ----------------------------------------
 .byte   W96
@  #11 @012   ----------------------------------------
 .byte   W96
@  #11 @013   ----------------------------------------
 .byte   W96
@  #11 @014   ----------------------------------------
 .byte   W96
@  #11 @015   ----------------------------------------
 .byte   W96
@  #11 @016   ----------------------------------------
 .byte   W96
@  #11 @017   ----------------------------------------
 .byte   W96
@  #11 @018   ----------------------------------------
 .byte   W96
@  #11 @019   ----------------------------------------
 .byte   W96
@  #11 @020   ----------------------------------------
 .byte   W96
@  #11 @021   ----------------------------------------
 .byte   W96
@  #11 @022   ----------------------------------------
 .byte   W96
@  #11 @023   ----------------------------------------
 .byte   W96
@  #11 @024   ----------------------------------------
 .byte   W96
@  #11 @025   ----------------------------------------
 .byte   W96
@  #11 @026   ----------------------------------------
 .byte   W96
@  #11 @027   ----------------------------------------
 .byte   W96
@  #11 @028   ----------------------------------------
 .byte   W96
@  #11 @029   ----------------------------------------
 .byte   W96
@  #11 @030   ----------------------------------------
 .byte   W96
@  #11 @031   ----------------------------------------
 .byte   W96
@  #11 @032   ----------------------------------------
 .byte   W96
@  #11 @033   ----------------------------------------
 .byte   W96
@  #11 @034   ----------------------------------------
 .byte   W96
@  #11 @035   ----------------------------------------
 .byte   W96
@  #11 @036   ----------------------------------------
 .byte   W96
@  #11 @037   ----------------------------------------
 .byte   W96
@  #11 @038   ----------------------------------------
 .byte   W96
@  #11 @039   ----------------------------------------
 .byte   W96
@  #11 @040   ----------------------------------------
 .byte   W96
@  #11 @041   ----------------------------------------
 .byte   W96
@  #11 @042   ----------------------------------------
 .byte   W96
@  #11 @043   ----------------------------------------
 .byte   W96
@  #11 @044   ----------------------------------------
 .byte   W96
@  #11 @045   ----------------------------------------
 .byte   W96
@  #11 @046   ----------------------------------------
 .byte   W96
@  #11 @047   ----------------------------------------
 .byte   W96
@  #11 @048   ----------------------------------------
 .byte   W96
@  #11 @049   ----------------------------------------
 .byte   W96
@  #11 @050   ----------------------------------------
 .byte   W96
@  #11 @051   ----------------------------------------
 .byte   W96
@  #11 @052   ----------------------------------------
 .byte   W96
@  #11 @053   ----------------------------------------
 .byte   W96
@  #11 @054   ----------------------------------------
 .byte   N22 ,Gn5 ,v068
 .byte   W36
 .byte   N17 ,Fs5
 .byte   W36
 .byte   N40 ,En5
 .byte   W24
@  #11 @055   ----------------------------------------
 .byte   W36
 .byte   W03
 .byte   N17 ,En5 ,v052
 .byte   W03
 .byte   N24 ,Gn5
 .byte   W03
 .byte   Bn5
 .byte   W03
 .byte   N48 ,En6
 .byte   W48
@  #11 @056   ----------------------------------------
 .byte   W96
@  #11 @057   ----------------------------------------
 .byte   W96
@  #11 @058   ----------------------------------------
 .byte   W96
@  #11 @059   ----------------------------------------
 .byte   W96
@  #11 @060   ----------------------------------------
 .byte   W96
@  #11 @061   ----------------------------------------
 .byte   W96
@  #11 @062   ----------------------------------------
 .byte   W96
@  #11 @063   ----------------------------------------
 .byte   W96
@  #11 @064   ----------------------------------------
 .byte   W96
@  #11 @065   ----------------------------------------
 .byte   W96
@  #11 @066   ----------------------------------------
 .byte   W96
@  #11 @067   ----------------------------------------
 .byte   W96
@  #11 @068   ----------------------------------------
 .byte   W96
@  #11 @069   ----------------------------------------
 .byte   W96
@  #11 @070   ----------------------------------------
 .byte   W96
@  #11 @071   ----------------------------------------
 .byte   W96
@  #11 @072   ----------------------------------------
 .byte   W48
 .byte   N11 ,En5 ,v068
 .byte   N11 ,Gn5
 .byte   W24
 .byte   Dn5
 .byte   N11 ,Fs5
 .byte   W24
@  #11 @073   ----------------------------------------
 .byte   Cn5
 .byte   N11 ,En5
 .byte   W96
@  #11 @074   ----------------------------------------
 .byte   W48
 .byte   Bn4
 .byte   N11 ,Dn5
 .byte   W24
 .byte   An4
 .byte   N11 ,Cn5
 .byte   W24
@  #11 @075   ----------------------------------------
 .byte   Gn4
 .byte   N11 ,Bn4
 .byte   W96
@  #11 @076   ----------------------------------------
 .byte   W48
 .byte   Bn4 ,v064
 .byte   N11 ,Ds5
 .byte   W24
 .byte   An4
 .byte   N11 ,Cn5
 .byte   W24
@  #11 @077   ----------------------------------------
 .byte   N23 ,Fs4
 .byte   N23 ,Bn4
 .byte   W96
@  #11 @078   ----------------------------------------
 .byte   W48
 .byte   N11 ,Gn4
 .byte   N11 ,Bn4
 .byte   W24
 .byte   Fs4
 .byte   N11 ,An4
 .byte   W24
@  #11 @079   ----------------------------------------
 .byte   N23 ,En4
 .byte   N23 ,Gn4
 .byte   W48
 .byte   N32 ,Bn3
 .byte   N32 ,En4
 .byte   W48
@  #11 @080   ----------------------------------------
 .byte   GOTO
  .word Label_017DAB72
 .byte   FINE

@**************** Track 12 (Midi-Chn.11) ****************@

DrawntoLifeTheNextChapterSalem_012:
@  #12 @000   ----------------------------------------
 .byte   KEYSH , DrawntoLifeTheNextChapterSalem_key+0
Label_017DAC22:
 .byte   VOICE , 11
 .byte   MODT 0
 .byte   LFOS 44
 .byte   VOL , 82*DrawntoLifeTheNextChapterSalem_mvl/mxv
 .byte   W96
@  #12 @001   ----------------------------------------
 .byte   W96
@  #12 @002   ----------------------------------------
 .byte   W96
@  #12 @003   ----------------------------------------
 .byte   W96
@  #12 @004   ----------------------------------------
 .byte   N08 ,Gn4 ,v040
 .byte   W12
 .byte   Bn3
 .byte   W12
 .byte   En4
 .byte   W12
 .byte   N07 ,Bn3
 .byte   W12
 .byte   N08 ,Gn4
 .byte   W12
 .byte   N10 ,Bn3
 .byte   W12
 .byte   En4
 .byte   W12
 .byte   N08 ,Bn3
 .byte   W12
@  #12 @005   ----------------------------------------
 .byte   Gn4
 .byte   W12
 .byte   Bn3
 .byte   W12
 .byte   Dn4
 .byte   W12
 .byte   Bn3
 .byte   W12
 .byte   Gn4
 .byte   W12
 .byte   N09 ,Bn3
 .byte   W12
 .byte   Dn4
 .byte   W12
 .byte   N07 ,Bn3
 .byte   W12
@  #12 @006   ----------------------------------------
 .byte   N09 ,An4
 .byte   W12
 .byte   Cn4
 .byte   W12
 .byte   N07 ,En4
 .byte   W12
 .byte   Cn4
 .byte   W12
 .byte   An4 ,v044
 .byte   W12
 .byte   N08 ,Cn4
 .byte   W12
 .byte   N09 ,En4
 .byte   W12
 .byte   N08 ,Cn4
 .byte   W12
@  #12 @007   ----------------------------------------
 .byte   N07 ,Fs4
 .byte   W12
 .byte   N08 ,Bn3
 .byte   W12
 .byte   Ds4
 .byte   W12
 .byte   Bn3
 .byte   W12
 .byte   N07 ,Fs4
 .byte   W12
 .byte   N08 ,Bn3
 .byte   W12
 .byte   N09 ,Ds4
 .byte   W12
 .byte   N08 ,Bn3
 .byte   W12
@  #12 @008   ----------------------------------------
 .byte   Gn4
 .byte   W12
 .byte   N07 ,Bn3 ,v048
 .byte   W12
 .byte   En4
 .byte   W12
 .byte   Bn3
 .byte   W12
 .byte   Gn4
 .byte   W12
 .byte   Bn3
 .byte   W12
 .byte   N08 ,En4
 .byte   W12
 .byte   Bn3
 .byte   W12
@  #12 @009   ----------------------------------------
 .byte   Fs4 ,v052
 .byte   W12
 .byte   Bn3
 .byte   W12
 .byte   N07 ,Ds4
 .byte   W12
 .byte   Bn3
 .byte   W12
 .byte   N08 ,Fs4
 .byte   W12
 .byte   N09 ,Bn3
 .byte   W12
 .byte   N08 ,Ds4
 .byte   W12
 .byte   Bn3
 .byte   W12
@  #12 @010   ----------------------------------------
 .byte   N07 ,Gn4
 .byte   W12
 .byte   Bn3
 .byte   W12
 .byte   En4
 .byte   W12
 .byte   N06 ,Bn3
 .byte   W12
 .byte   N07 ,Gn4
 .byte   W12
 .byte   Bn3
 .byte   W12
 .byte   N08 ,En4
 .byte   W12
 .byte   N07 ,Bn3
 .byte   W12
@  #12 @011   ----------------------------------------
 .byte   Fs4
 .byte   W12
 .byte   Bn3
 .byte   W12
 .byte   Ds4
 .byte   W12
 .byte   Bn3
 .byte   W12
 .byte   N06 ,Fs4
 .byte   W12
 .byte   N08 ,Bn3
 .byte   W12
 .byte   N07 ,Ds4
 .byte   W12
 .byte   N08 ,Bn3
 .byte   W12
@  #12 @012   ----------------------------------------
 .byte   N07 ,Gn4
 .byte   W12
 .byte   Bn3
 .byte   W12
 .byte   En4
 .byte   W12
 .byte   N06 ,Bn3
 .byte   W12
 .byte   N08 ,Gn4
 .byte   W12
 .byte   Bn3
 .byte   W12
 .byte   N09 ,En4
 .byte   W12
 .byte   N07 ,Bn3
 .byte   W12
@  #12 @013   ----------------------------------------
 .byte   Gn4
 .byte   W12
 .byte   Bn3
 .byte   W12
 .byte   N08 ,Dn4
 .byte   W12
 .byte   N07 ,Bn3
 .byte   W12
 .byte   Gn4
 .byte   W12
 .byte   N08 ,Bn3 ,v048
 .byte   W12
 .byte   N07 ,Dn4
 .byte   W12
 .byte   N08 ,Bn3
 .byte   W12
@  #12 @014   ----------------------------------------
 .byte   N07 ,An4
 .byte   W12
 .byte   N06 ,Cn4 ,v044
 .byte   W12
 .byte   N07 ,En4
 .byte   W12
 .byte   N08 ,Cn4
 .byte   W12
 .byte   An4 ,v040
 .byte   W12
 .byte   Cn4 ,v036
 .byte   W12
 .byte   N09 ,En4
 .byte   W12
 .byte   N08 ,Cn4 ,v032
 .byte   W12
@  #12 @015   ----------------------------------------
 .byte   N07 ,Fs4
 .byte   W12
 .byte   N09 ,Bn3 ,v028
 .byte   W12
 .byte   N07 ,Ds4
 .byte   W12
 .byte   N08 ,Bn3 ,v024
 .byte   W12
 .byte   Fs4
 .byte   W12
 .byte   N09 ,Bn3 ,v020
 .byte   W12
 .byte   N07 ,Ds4
 .byte   W12
 .byte   N08 ,Bn3 ,v016
 .byte   W12
@  #12 @016   ----------------------------------------
 .byte   N21 ,En4 ,v012
 .byte   W96
@  #12 @017   ----------------------------------------
 .byte   W96
@  #12 @018   ----------------------------------------
 .byte   W96
@  #12 @019   ----------------------------------------
 .byte   W96
@  #12 @020   ----------------------------------------
 .byte   W96
@  #12 @021   ----------------------------------------
 .byte   W96
@  #12 @022   ----------------------------------------
 .byte   W96
@  #12 @023   ----------------------------------------
 .byte   W96
@  #12 @024   ----------------------------------------
 .byte   W96
@  #12 @025   ----------------------------------------
 .byte   W96
@  #12 @026   ----------------------------------------
 .byte   W96
@  #12 @027   ----------------------------------------
 .byte   W96
@  #12 @028   ----------------------------------------
 .byte   W96
@  #12 @029   ----------------------------------------
 .byte   W96
@  #12 @030   ----------------------------------------
 .byte   W96
@  #12 @031   ----------------------------------------
 .byte   W96
@  #12 @032   ----------------------------------------
 .byte   W96
@  #12 @033   ----------------------------------------
 .byte   W96
@  #12 @034   ----------------------------------------
 .byte   W96
@  #12 @035   ----------------------------------------
 .byte   W96
@  #12 @036   ----------------------------------------
 .byte   W96
@  #12 @037   ----------------------------------------
 .byte   W96
@  #12 @038   ----------------------------------------
 .byte   W96
@  #12 @039   ----------------------------------------
 .byte   W96
@  #12 @040   ----------------------------------------
 .byte   W96
@  #12 @041   ----------------------------------------
 .byte   W96
@  #12 @042   ----------------------------------------
 .byte   W96
@  #12 @043   ----------------------------------------
 .byte   W96
@  #12 @044   ----------------------------------------
 .byte   W96
@  #12 @045   ----------------------------------------
 .byte   W96
@  #12 @046   ----------------------------------------
 .byte   W96
@  #12 @047   ----------------------------------------
 .byte   W96
@  #12 @048   ----------------------------------------
 .byte   W96
@  #12 @049   ----------------------------------------
 .byte   W96
@  #12 @050   ----------------------------------------
 .byte   W96
@  #12 @051   ----------------------------------------
 .byte   W96
@  #12 @052   ----------------------------------------
 .byte   W96
@  #12 @053   ----------------------------------------
 .byte   W96
@  #12 @054   ----------------------------------------
 .byte   W96
@  #12 @055   ----------------------------------------
 .byte   W96
@  #12 @056   ----------------------------------------
 .byte   W96
@  #12 @057   ----------------------------------------
 .byte   W96
@  #12 @058   ----------------------------------------
 .byte   W96
@  #12 @059   ----------------------------------------
 .byte   W96
@  #12 @060   ----------------------------------------
 .byte   W96
@  #12 @061   ----------------------------------------
 .byte   W96
@  #12 @062   ----------------------------------------
 .byte   W96
@  #12 @063   ----------------------------------------
 .byte   W96
@  #12 @064   ----------------------------------------
 .byte   W96
@  #12 @065   ----------------------------------------
 .byte   W96
@  #12 @066   ----------------------------------------
 .byte   W96
@  #12 @067   ----------------------------------------
 .byte   W96
@  #12 @068   ----------------------------------------
 .byte   W96
@  #12 @069   ----------------------------------------
 .byte   W96
@  #12 @070   ----------------------------------------
 .byte   W96
@  #12 @071   ----------------------------------------
 .byte   W96
@  #12 @072   ----------------------------------------
 .byte   W96
@  #12 @073   ----------------------------------------
 .byte   W96
@  #12 @074   ----------------------------------------
 .byte   W96
@  #12 @075   ----------------------------------------
 .byte   W96
@  #12 @076   ----------------------------------------
 .byte   W96
@  #12 @077   ----------------------------------------
 .byte   W96
@  #12 @078   ----------------------------------------
 .byte   N40 ,Fs3 ,v064
 .byte   W48
 .byte   N23 ,Gn3 ,v068
 .byte   W48
@  #12 @079   ----------------------------------------
 .byte   N30 ,En3 ,v060
 .byte   W96
@  #12 @080   ----------------------------------------
 .byte   GOTO
  .word Label_017DAC22
 .byte   FINE

@**************** Track 13 (Midi-Chn.12) ****************@

DrawntoLifeTheNextChapterSalem_013:
@  #13 @000   ----------------------------------------
 .byte   KEYSH , DrawntoLifeTheNextChapterSalem_key+0
Label_56AA9E:
 .byte   VOICE , 61
 .byte   MODT 0
 .byte   LFOS 44
 .byte   VOL , 86*DrawntoLifeTheNextChapterSalem_mvl/mxv
 .byte   PAN , c_v-17
 .byte   W96
@  #13 @001   ----------------------------------------
 .byte   W96
@  #13 @002   ----------------------------------------
 .byte   W96
@  #13 @003   ----------------------------------------
 .byte   W96
@  #13 @004   ----------------------------------------
 .byte   W96
@  #13 @005   ----------------------------------------
 .byte   W96
@  #13 @006   ----------------------------------------
 .byte   W96
@  #13 @007   ----------------------------------------
 .byte   W96
@  #13 @008   ----------------------------------------
 .byte   W96
@  #13 @009   ----------------------------------------
 .byte   W96
@  #13 @010   ----------------------------------------
 .byte   W96
@  #13 @011   ----------------------------------------
 .byte   W96
@  #13 @012   ----------------------------------------
 .byte   W96
@  #13 @013   ----------------------------------------
 .byte   W96
@  #13 @014   ----------------------------------------
 .byte   W96
@  #13 @015   ----------------------------------------
 .byte   W96
@  #13 @016   ----------------------------------------
 .byte   W96
@  #13 @017   ----------------------------------------
 .byte   W96
@  #13 @018   ----------------------------------------
 .byte   W96
@  #13 @019   ----------------------------------------
 .byte   W96
@  #13 @020   ----------------------------------------
 .byte   W96
@  #13 @021   ----------------------------------------
 .byte   W96
@  #13 @022   ----------------------------------------
 .byte   W96
@  #13 @023   ----------------------------------------
 .byte   W96
@  #13 @024   ----------------------------------------
 .byte   W96
@  #13 @025   ----------------------------------------
 .byte   W96
@  #13 @026   ----------------------------------------
 .byte   W96
@  #13 @027   ----------------------------------------
 .byte   W96
@  #13 @028   ----------------------------------------
 .byte   W96
@  #13 @029   ----------------------------------------
 .byte   W72
 .byte   N11 ,Gn3 ,v048
 .byte   W12
 .byte   An3
 .byte   W12
@  #13 @030   ----------------------------------------
 .byte   Bn3
 .byte   W24
 .byte   An3
 .byte   W24
 .byte   N32 ,Gn3
 .byte   W36
 .byte   N11 ,Fs3
 .byte   W12
@  #13 @031   ----------------------------------------
 .byte   N92 ,En3
 .byte   W96
@  #13 @032   ----------------------------------------
 .byte   W96
@  #13 @033   ----------------------------------------
 .byte   W96
@  #13 @034   ----------------------------------------
 .byte   W96
@  #13 @035   ----------------------------------------
 .byte   W96
@  #13 @036   ----------------------------------------
 .byte   W96
@  #13 @037   ----------------------------------------
 .byte   W96
@  #13 @038   ----------------------------------------
 .byte   W96
@  #13 @039   ----------------------------------------
 .byte   W96
@  #13 @040   ----------------------------------------
 .byte   W96
@  #13 @041   ----------------------------------------
 .byte   W96
@  #13 @042   ----------------------------------------
 .byte   W96
@  #13 @043   ----------------------------------------
 .byte   W96
@  #13 @044   ----------------------------------------
 .byte   W96
@  #13 @045   ----------------------------------------
 .byte   W96
@  #13 @046   ----------------------------------------
 .byte   W96
@  #13 @047   ----------------------------------------
 .byte   W96
@  #13 @048   ----------------------------------------
 .byte   W96
@  #13 @049   ----------------------------------------
 .byte   W96
@  #13 @050   ----------------------------------------
 .byte   W96
@  #13 @051   ----------------------------------------
 .byte   W96
@  #13 @052   ----------------------------------------
 .byte   W96
@  #13 @053   ----------------------------------------
 .byte   W96
@  #13 @054   ----------------------------------------
 .byte   W96
@  #13 @055   ----------------------------------------
 .byte   W96
@  #13 @056   ----------------------------------------
 .byte   W96
@  #13 @057   ----------------------------------------
 .byte   W96
@  #13 @058   ----------------------------------------
 .byte   W96
@  #13 @059   ----------------------------------------
 .byte   W96
@  #13 @060   ----------------------------------------
 .byte   W96
@  #13 @061   ----------------------------------------
 .byte   W96
@  #13 @062   ----------------------------------------
 .byte   W96
@  #13 @063   ----------------------------------------
 .byte   W96
@  #13 @064   ----------------------------------------
 .byte   W96
@  #13 @065   ----------------------------------------
 .byte   W96
@  #13 @066   ----------------------------------------
 .byte   W96
@  #13 @067   ----------------------------------------
 .byte   W96
@  #13 @068   ----------------------------------------
 .byte   W96
@  #13 @069   ----------------------------------------
 .byte   W96
@  #13 @070   ----------------------------------------
 .byte   W96
@  #13 @071   ----------------------------------------
 .byte   W96
@  #13 @072   ----------------------------------------
 .byte   W96
@  #13 @073   ----------------------------------------
 .byte   W96
@  #13 @074   ----------------------------------------
 .byte   W96
@  #13 @075   ----------------------------------------
 .byte   W96
@  #13 @076   ----------------------------------------
 .byte   W96
@  #13 @077   ----------------------------------------
 .byte   W96
@  #13 @078   ----------------------------------------
 .byte   W96
@  #13 @079   ----------------------------------------
 .byte   W96
@  #13 @080   ----------------------------------------
 .byte   GOTO
  .word Label_56AA9E
 .byte   FINE

@**************** Track 14 (Midi-Chn.13) ****************@

DrawntoLifeTheNextChapterSalem_014:
@  #14 @000   ----------------------------------------
 .byte   KEYSH , DrawntoLifeTheNextChapterSalem_key+0
Label_017DAD8A:
 .byte   VOICE , 30
 .byte   MODT 0
 .byte   LFOS 44
 .byte   VOL , 60*DrawntoLifeTheNextChapterSalem_mvl/mxv
 .byte   W96
@  #14 @001   ----------------------------------------
 .byte   W96
@  #14 @002   ----------------------------------------
 .byte   W96
@  #14 @003   ----------------------------------------
 .byte   W96
@  #14 @004   ----------------------------------------
 .byte   W96
@  #14 @005   ----------------------------------------
 .byte   W96
@  #14 @006   ----------------------------------------
 .byte   W96
@  #14 @007   ----------------------------------------
 .byte   W96
@  #14 @008   ----------------------------------------
 .byte   W96
@  #14 @009   ----------------------------------------
 .byte   W96
@  #14 @010   ----------------------------------------
 .byte   W96
@  #14 @011   ----------------------------------------
 .byte   W96
@  #14 @012   ----------------------------------------
 .byte   W96
@  #14 @013   ----------------------------------------
 .byte   W96
@  #14 @014   ----------------------------------------
 .byte   W96
@  #14 @015   ----------------------------------------
 .byte   W96
@  #14 @016   ----------------------------------------
 .byte   W96
@  #14 @017   ----------------------------------------
 .byte   W96
@  #14 @018   ----------------------------------------
 .byte   W96
@  #14 @019   ----------------------------------------
 .byte   W96
@  #14 @020   ----------------------------------------
 .byte   W96
@  #14 @021   ----------------------------------------
 .byte   W96
@  #14 @022   ----------------------------------------
 .byte   W96
@  #14 @023   ----------------------------------------
 .byte   W96
@  #14 @024   ----------------------------------------
 .byte   W96
@  #14 @025   ----------------------------------------
 .byte   W96
@  #14 @026   ----------------------------------------
 .byte   W96
@  #14 @027   ----------------------------------------
 .byte   W96
@  #14 @028   ----------------------------------------
 .byte   W96
@  #14 @029   ----------------------------------------
 .byte   W96
@  #14 @030   ----------------------------------------
 .byte   W96
@  #14 @031   ----------------------------------------
 .byte   W96
@  #14 @032   ----------------------------------------
 .byte   W96
@  #14 @033   ----------------------------------------
 .byte   W96
@  #14 @034   ----------------------------------------
 .byte   W96
@  #14 @035   ----------------------------------------
 .byte   W96
@  #14 @036   ----------------------------------------
 .byte   N11 ,Cn2 ,v052
 .byte   W24
 .byte   N11
 .byte   W24
 .byte   N11
 .byte   W24
 .byte   N11
 .byte   W12
 .byte   N11
 .byte   W12
@  #14 @037   ----------------------------------------
 .byte   Gn2
 .byte   W24
 .byte   N11
 .byte   W24
 .byte   N11
 .byte   W24
 .byte   N11
 .byte   W12
 .byte   N11
 .byte   W12
@  #14 @038   ----------------------------------------
 .byte   An2
 .byte   W24
 .byte   N11
 .byte   W24
 .byte   N11
 .byte   W24
 .byte   N11
 .byte   W12
 .byte   N11
 .byte   W12
@  #14 @039   ----------------------------------------
 .byte   Bn2
 .byte   W24
 .byte   N11
 .byte   W24
 .byte   N11
 .byte   W24
 .byte   N11
 .byte   W12
 .byte   N11
 .byte   W12
@  #14 @040   ----------------------------------------
 .byte   W96
@  #14 @041   ----------------------------------------
 .byte   W96
@  #14 @042   ----------------------------------------
 .byte   W96
@  #14 @043   ----------------------------------------
 .byte   W96
@  #14 @044   ----------------------------------------
 .byte   W96
@  #14 @045   ----------------------------------------
 .byte   W96
@  #14 @046   ----------------------------------------
 .byte   W96
@  #14 @047   ----------------------------------------
 .byte   W96
@  #14 @048   ----------------------------------------
 .byte   W96
@  #14 @049   ----------------------------------------
 .byte   W96
@  #14 @050   ----------------------------------------
 .byte   W96
@  #14 @051   ----------------------------------------
 .byte   W96
@  #14 @052   ----------------------------------------
 .byte   W96
@  #14 @053   ----------------------------------------
 .byte   W96
@  #14 @054   ----------------------------------------
 .byte   W96
@  #14 @055   ----------------------------------------
 .byte   W96
@  #14 @056   ----------------------------------------
 .byte   W96
@  #14 @057   ----------------------------------------
 .byte   W96
@  #14 @058   ----------------------------------------
 .byte   W96
@  #14 @059   ----------------------------------------
 .byte   W96
@  #14 @060   ----------------------------------------
 .byte   W96
@  #14 @061   ----------------------------------------
 .byte   W96
@  #14 @062   ----------------------------------------
 .byte   W96
@  #14 @063   ----------------------------------------
 .byte   W96
@  #14 @064   ----------------------------------------
 .byte   W96
@  #14 @065   ----------------------------------------
 .byte   W96
@  #14 @066   ----------------------------------------
 .byte   W96
@  #14 @067   ----------------------------------------
 .byte   W96
@  #14 @068   ----------------------------------------
 .byte   W96
@  #14 @069   ----------------------------------------
 .byte   W96
@  #14 @070   ----------------------------------------
 .byte   W96
@  #14 @071   ----------------------------------------
 .byte   W96
@  #14 @072   ----------------------------------------
 .byte   W96
@  #14 @073   ----------------------------------------
 .byte   W96
@  #14 @074   ----------------------------------------
 .byte   W96
@  #14 @075   ----------------------------------------
 .byte   W96
@  #14 @076   ----------------------------------------
 .byte   W96
@  #14 @077   ----------------------------------------
 .byte   W96
@  #14 @078   ----------------------------------------
 .byte   W96
@  #14 @079   ----------------------------------------
 .byte   W96
@  #14 @080   ----------------------------------------
 .byte   GOTO
  .word Label_017DAD8A
 .byte   FINE

@******************************************************@
	.align	2

DrawntoLifeTheNextChapterSalem:
	.byte	14	@ NumTrks
	.byte	0	@ NumBlks
	.byte	DrawntoLifeTheNextChapterSalem_pri	@ Priority
	.byte	DrawntoLifeTheNextChapterSalem_rev	@ Reverb.
    
	.word	DrawntoLifeTheNextChapterSalem_grp
    
	.word	DrawntoLifeTheNextChapterSalem_001
	.word	DrawntoLifeTheNextChapterSalem_002
	.word	DrawntoLifeTheNextChapterSalem_003
	.word	DrawntoLifeTheNextChapterSalem_004
	.word	DrawntoLifeTheNextChapterSalem_005
	.word	DrawntoLifeTheNextChapterSalem_006
	.word	DrawntoLifeTheNextChapterSalem_007
	.word	DrawntoLifeTheNextChapterSalem_008
	.word	DrawntoLifeTheNextChapterSalem_009
	.word	DrawntoLifeTheNextChapterSalem_010
	.word	DrawntoLifeTheNextChapterSalem_011
	.word	DrawntoLifeTheNextChapterSalem_012
	.word	DrawntoLifeTheNextChapterSalem_013
	.word	DrawntoLifeTheNextChapterSalem_014

	.end
