//Event file generated from Sappy .s format.
	#include "MPlayDef.event"

	#define	DrawntoLifeTheNextChapterSalem_grp  voicegroup000
	#define	DrawntoLifeTheNextChapterSalem_pri  0
	#define	DrawntoLifeTheNextChapterSalem_rev  0
	#define	DrawntoLifeTheNextChapterSalem_mvl  127
	#define	DrawntoLifeTheNextChapterSalem_key  0
	#define	DrawntoLifeTheNextChapterSalem_tbs  1
	#define	DrawntoLifeTheNextChapterSalem_exg  0
	#define	DrawntoLifeTheNextChapterSalem_cmp  1

	// .rodata
	//	DrawntoLifeTheNextChapterSalem
	ALIGN 4


//**************** Track 1 (Midi-Chn.0) ****************//

DrawntoLifeTheNextChapterSalem_001:
//  #01 //000   ----------------------------------------
 BYTE   KEYSH   DrawntoLifeTheNextChapterSalem_key+0
Label_017DA746:
 BYTE   TEMPO   164*DrawntoLifeTheNextChapterSalem_tbs/2
 BYTE   VOICE   127
 BYTE   MODT 0
 BYTE   LFOS 44
 BYTE   PAN   c_v-2
 BYTE   VOL   46*DrawntoLifeTheNextChapterSalem_mvl/mxv
 BYTE   N92  Dn1  v088
 BYTE   W96
//  #01 //001   ----------------------------------------
 BYTE   W96
//  #01 //002   ----------------------------------------
 BYTE   W96
//  #01 //003   ----------------------------------------
 BYTE   W96
//  #01 //004   ----------------------------------------
 BYTE   W96
//  #01 //005   ----------------------------------------
 BYTE   W96
//  #01 //006   ----------------------------------------
 BYTE   W96
//  #01 //007   ----------------------------------------
 BYTE   W24
 BYTE   N11  Dn0  v100
 BYTE   W24
 BYTE   Dn0  v104
 BYTE   W12
 BYTE   Dn2  v108
 BYTE   W24
 BYTE   Dn2  v116
 BYTE   W12
//  #01 //008   ----------------------------------------
Label_017DA76A:
 BYTE   N07  Cs1  v112
 BYTE   N92  En3  v088
 BYTE   W24
 BYTE   N04  As2  v064
 BYTE   W12
 BYTE   N09  Cs1  v112
 BYTE   W12
 BYTE   N08  En1
 BYTE   W24
 BYTE   N04  As2  v064
 BYTE   W12
 BYTE   N08  Cs1  v112
 BYTE   W12
 BYTE   PEND 
//  #01 //009   ----------------------------------------
Label_017DA785:
 BYTE   W12
 BYTE   N08  Cs1  v112
 BYTE   W12
 BYTE   N05  As2  v064
 BYTE   W12
 BYTE   N11  Cs1  v112
 BYTE   W12
 BYTE   N15  En1
 BYTE   W18
 BYTE   N03  As2  v064
 BYTE   W06
 BYTE   N06  Cn3
 BYTE   W24
 BYTE   PEND 
//  #01 //010   ----------------------------------------
Label_017DA79D:
 BYTE   N07  Cs1  v112
 BYTE   W24
 BYTE   N04  As2  v064
 BYTE   W12
 BYTE   N09  Cs1  v112
 BYTE   W12
 BYTE   N08  En1
 BYTE   W24
 BYTE   N04  As2  v064
 BYTE   W12
 BYTE   N08  Cs1  v112
 BYTE   W12
 BYTE   PEND 
//  #01 //011   ----------------------------------------
 BYTE   PATT
  POIN2 Label_017DA785
//  #01 //012   ----------------------------------------
 BYTE   PATT
  POIN2 Label_017DA76A
//  #01 //013   ----------------------------------------
 BYTE   PATT
  POIN2 Label_017DA785
//  #01 //014   ----------------------------------------
 BYTE   PATT
  POIN2 Label_017DA79D
//  #01 //015   ----------------------------------------
 BYTE   PATT
  POIN2 Label_017DA785
//  #01 //016   ----------------------------------------
 BYTE   PATT
  POIN2 Label_017DA76A
//  #01 //017   ----------------------------------------
 BYTE   PATT
  POIN2 Label_017DA785
//  #01 //018   ----------------------------------------
 BYTE   PATT
  POIN2 Label_017DA79D
//  #01 //019   ----------------------------------------
 BYTE   PATT
  POIN2 Label_017DA785
//  #01 //020   ----------------------------------------
 BYTE   PATT
  POIN2 Label_017DA76A
//  #01 //021   ----------------------------------------
 BYTE   PATT
  POIN2 Label_017DA785
//  #01 //022   ----------------------------------------
 BYTE   PATT
  POIN2 Label_017DA79D
//  #01 //023   ----------------------------------------
 BYTE   PATT
  POIN2 Label_017DA785
//  #01 //024   ----------------------------------------
 BYTE   PATT
  POIN2 Label_017DA76A
//  #01 //025   ----------------------------------------
 BYTE   PATT
  POIN2 Label_017DA785
//  #01 //026   ----------------------------------------
 BYTE   PATT
  POIN2 Label_017DA79D
//  #01 //027   ----------------------------------------
 BYTE   PATT
  POIN2 Label_017DA785
//  #01 //028   ----------------------------------------
 BYTE   PATT
  POIN2 Label_017DA76A
//  #01 //029   ----------------------------------------
 BYTE   PATT
  POIN2 Label_017DA785
//  #01 //030   ----------------------------------------
 BYTE   PATT
  POIN2 Label_017DA79D
//  #01 //031   ----------------------------------------
 BYTE   PATT
  POIN2 Label_017DA785
//  #01 //032   ----------------------------------------
 BYTE   N23  Dn1  v108
 BYTE   N92  En3  v088
 BYTE   W36
 BYTE   N09  Dn1  v108
 BYTE   W12
 BYTE   N16  Fs1
 BYTE   W24
 BYTE   N14  Dn1
 BYTE   W24
//  #01 //033   ----------------------------------------
 BYTE   N10
 BYTE   W24
 BYTE   N21
 BYTE   W24
 BYTE   N24  Fs1
 BYTE   W48
//  #01 //034   ----------------------------------------
 BYTE   N16  Dn1
 BYTE   W36
 BYTE   N06
 BYTE   W12
 BYTE   N14  Fs1
 BYTE   W24
 BYTE   N10  Dn1
 BYTE   W24
//  #01 //035   ----------------------------------------
 BYTE   N11
 BYTE   W24
 BYTE   N11
 BYTE   W24
 BYTE   N13  Fs1
 BYTE   W48
//  #01 //036   ----------------------------------------
 BYTE   N15  Dn1
 BYTE   W36
 BYTE   N10
 BYTE   W12
 BYTE   N09  Fs1
 BYTE   W24
 BYTE   Dn1
 BYTE   W24
//  #01 //037   ----------------------------------------
 BYTE   N11
 BYTE   W36
 BYTE   N07
 BYTE   W12
 BYTE   N24  Fs1
 BYTE   W48
//  #01 //038   ----------------------------------------
 BYTE   N17  Dn1
 BYTE   W36
 BYTE   N07
 BYTE   W12
 BYTE   N12  Fs1
 BYTE   W24
 BYTE   N07  Dn1
 BYTE   W24
//  #01 //039   ----------------------------------------
 BYTE   N08
 BYTE   W12
 BYTE   N09  Fs1
 BYTE   W24
 BYTE   N05  Dn1
 BYTE   W12
 BYTE   N18  Fs1
 BYTE   W24
 BYTE   N08  Dn1
 BYTE   W24
//  #01 //040   ----------------------------------------
Label_017DA872:
 BYTE   N07  Cs1  v120
 BYTE   N92  En3  v088
 BYTE   W36
 BYTE   N09  Cs1  v120
 BYTE   W12
 BYTE   N08  En1
 BYTE   W36
 BYTE   Cs1
 BYTE   W12
 BYTE   PEND 
//  #01 //041   ----------------------------------------
Label_017DA883:
 BYTE   W12
 BYTE   N08  Cs1  v120
 BYTE   W24
 BYTE   N11
 BYTE   W12
 BYTE   N15  En1
 BYTE   W48
 BYTE   PEND 
//  #01 //042   ----------------------------------------
Label_017DA88E:
 BYTE   N07  Cs1  v120
 BYTE   W36
 BYTE   N09
 BYTE   W12
 BYTE   N08  En1
 BYTE   W36
 BYTE   Cs1
 BYTE   W12
 BYTE   PEND 
//  #01 //043   ----------------------------------------
 BYTE   PATT
  POIN2 Label_017DA883
//  #01 //044   ----------------------------------------
 BYTE   PATT
  POIN2 Label_017DA872
//  #01 //045   ----------------------------------------
 BYTE   PATT
  POIN2 Label_017DA883
//  #01 //046   ----------------------------------------
 BYTE   PATT
  POIN2 Label_017DA88E
//  #01 //047   ----------------------------------------
 BYTE   PATT
  POIN2 Label_017DA883
//  #01 //048   ----------------------------------------
 BYTE   PATT
  POIN2 Label_017DA76A
//  #01 //049   ----------------------------------------
 BYTE   PATT
  POIN2 Label_017DA785
//  #01 //050   ----------------------------------------
 BYTE   PATT
  POIN2 Label_017DA79D
//  #01 //051   ----------------------------------------
 BYTE   PATT
  POIN2 Label_017DA785
//  #01 //052   ----------------------------------------
 BYTE   PATT
  POIN2 Label_017DA76A
//  #01 //053   ----------------------------------------
 BYTE   PATT
  POIN2 Label_017DA785
//  #01 //054   ----------------------------------------
 BYTE   PATT
  POIN2 Label_017DA79D
//  #01 //055   ----------------------------------------
 BYTE   PATT
  POIN2 Label_017DA785
//  #01 //056   ----------------------------------------
Label_017DA8DB:
 BYTE   N07  Cs1  v112
 BYTE   N92  En3  v088
 BYTE   W24
 BYTE   N04  As2  v064
 BYTE   W12
 BYTE   N09  Cs1  v112
 BYTE   W12
 BYTE   N08  Cs2
 BYTE   W24
 BYTE   N04  As2  v064
 BYTE   W12
 BYTE   N08  Cs1  v112
 BYTE   W12
 BYTE   PEND 
//  #01 //057   ----------------------------------------
 BYTE   Dn0
 BYTE   W48
 BYTE   N15  Cs2
 BYTE   W18
 BYTE   N03  As2  v064
 BYTE   W06
 BYTE   N06  Cn3
 BYTE   W24
//  #01 //058   ----------------------------------------
Label_017DA902:
 BYTE   N07  Cs1  v112
 BYTE   W24
 BYTE   N04  As2  v064
 BYTE   W12
 BYTE   N09  Cs1  v112
 BYTE   W12
 BYTE   N08  Cs2
 BYTE   W24
 BYTE   N04  As2  v064
 BYTE   W12
 BYTE   N08  Cs1  v112
 BYTE   W12
 BYTE   PEND 
//  #01 //059   ----------------------------------------
 BYTE   N11  Dn0
 BYTE   W36
 BYTE   Cs1
 BYTE   W12
 BYTE   N15  Cs2
 BYTE   W18
 BYTE   N03  As2  v064
 BYTE   W06
 BYTE   N06  Cn3
 BYTE   W24
//  #01 //060   ----------------------------------------
 BYTE   PATT
  POIN2 Label_017DA8DB
//  #01 //061   ----------------------------------------
 BYTE   W12
 BYTE   N08  Cs1  v112
 BYTE   W12
 BYTE   N05  As2  v064
 BYTE   W12
 BYTE   N11  Cs1  v112
 BYTE   W12
 BYTE   N15  Cs2
 BYTE   W18
 BYTE   N03  As2  v064
 BYTE   W06
 BYTE   N06  Cn3
 BYTE   W24
//  #01 //062   ----------------------------------------
 BYTE   PATT
  POIN2 Label_017DA902
//  #01 //063   ----------------------------------------
 BYTE   W12
 BYTE   N08  Cs1  v112
 BYTE   W12
 BYTE   N05  As2  v064
 BYTE   W12
 BYTE   N11  Cs1  v112
 BYTE   W12
 BYTE   Cs2
 BYTE   W24
 BYTE   N11
 BYTE   W12
 BYTE   N11
 BYTE   W12
//  #01 //064   ----------------------------------------
 BYTE   N07  Cs1
 BYTE   N92  En3  v088
 BYTE   W24
 BYTE   N11  Bn3  v064
 BYTE   W12
 BYTE   N09  Cs1  v112
 BYTE   W12
 BYTE   N08  Cs2
 BYTE   N11  Bn3  v072
 BYTE   W24
 BYTE   Bn3  v064
 BYTE   W12
 BYTE   N08  Cs1  v112
 BYTE   W12
//  #01 //065   ----------------------------------------
 BYTE   N11  Bn3  v064
 BYTE   W12
 BYTE   N08  Cs1  v112
 BYTE   W12
 BYTE   N11  Bn3  v068
 BYTE   W12
 BYTE   Cs1  v112
 BYTE   W12
 BYTE   N15  Cs2
 BYTE   N11  Bn3  v072
 BYTE   W24
 BYTE   Bn3  v068
 BYTE   W24
//  #01 //066   ----------------------------------------
 BYTE   N07  Cs1  v112
 BYTE   N11  Bn3  v064
 BYTE   W24
 BYTE   Bn3  v068
 BYTE   W12
 BYTE   N09  Cs1  v112
 BYTE   W12
 BYTE   N08  Cs2
 BYTE   N11  Bn3  v064
 BYTE   W24
 BYTE   Bn3  v072
 BYTE   W12
 BYTE   N08  Cs1  v112
 BYTE   W12
//  #01 //067   ----------------------------------------
 BYTE   N11  Bn3  v060
 BYTE   W12
 BYTE   N08  Cs1  v112
 BYTE   W12
 BYTE   N11  Bn3  v068
 BYTE   W12
 BYTE   Cs1  v112
 BYTE   W12
 BYTE   N15  Cs2
 BYTE   N11  Bn3  v064
 BYTE   W24
 BYTE   Bn3  v072
 BYTE   W24
//  #01 //068   ----------------------------------------
 BYTE   N07  Cs1  v112
 BYTE   N92  En3  v088
 BYTE   W24
 BYTE   N11  Bn3  v056
 BYTE   W12
 BYTE   N09  Cs1  v112
 BYTE   W12
 BYTE   N08  Cs2
 BYTE   N11  Bn3  v060
 BYTE   W24
 BYTE   N11
 BYTE   W12
 BYTE   N08  Cs1  v112
 BYTE   W12
//  #01 //069   ----------------------------------------
 BYTE   N11  Bn3  v064
 BYTE   W12
 BYTE   N08  Cs1  v112
 BYTE   W12
 BYTE   N11  Bn3  v064
 BYTE   W12
 BYTE   Cs1  v112
 BYTE   W12
 BYTE   N15  Cs2
 BYTE   N11  Bn3  v056
 BYTE   W24
 BYTE   Bn3  v064
 BYTE   W24
//  #01 //070   ----------------------------------------
 BYTE   N07  Cs1  v112
 BYTE   N11  Bn3  v064
 BYTE   W24
 BYTE   Bn3  v060
 BYTE   W12
 BYTE   N09  Cs1  v112
 BYTE   W12
 BYTE   N08  Cs2
 BYTE   N11  Bn3  v056
 BYTE   W24
 BYTE   N11
 BYTE   W12
 BYTE   N08  Cs1  v112
 BYTE   W12
//  #01 //071   ----------------------------------------
 BYTE   N11  Bn3  v068
 BYTE   W12
 BYTE   N08  Cs1  v112
 BYTE   W12
 BYTE   N11  Bn3  v072
 BYTE   W12
 BYTE   Cs1  v112
 BYTE   W12
 BYTE   N15  Dn0
 BYTE   N44  Bn3  v076
 BYTE   W24
 BYTE   N15  Dn0  v112
 BYTE   W24
//  #01 //072   ----------------------------------------
Label_017DAA29:
 BYTE   N07  Cs1  v112
 BYTE   N92  En3  v088
 BYTE   W36
 BYTE   N09  Cs1  v112
 BYTE   W12
 BYTE   N08  En1
 BYTE   W36
 BYTE   Cs1
 BYTE   W12
 BYTE   PEND 
//  #01 //073   ----------------------------------------
Label_017DAA3A:
 BYTE   W12
 BYTE   N08  Cs1  v112
 BYTE   W24
 BYTE   N11
 BYTE   W12
 BYTE   N15  En1
 BYTE   W24
 BYTE   N06  Cn3  v064
 BYTE   W24
 BYTE   PEND 
//  #01 //074   ----------------------------------------
 BYTE   N07  Cs1  v112
 BYTE   W36
 BYTE   N09
 BYTE   W12
 BYTE   N08  En1
 BYTE   W36
 BYTE   Cs1
 BYTE   W12
//  #01 //075   ----------------------------------------
 BYTE   PATT
  POIN2 Label_017DAA3A
//  #01 //076   ----------------------------------------
 BYTE   PATT
  POIN2 Label_017DAA29
//  #01 //077   ----------------------------------------
 BYTE   PATT
  POIN2 Label_017DAA3A
//  #01 //078   ----------------------------------------
 BYTE   N07  Cs1  v112
 BYTE   W48
 BYTE   N08  En1
 BYTE   W36
 BYTE   Cs1
 BYTE   W12
//  #01 //079   ----------------------------------------
 BYTE   W12
 BYTE   N08
 BYTE   W24
 BYTE   N11
 BYTE   W12
 BYTE   En1  v072
 BYTE   W12
 BYTE   En1  v076
 BYTE   W12
 BYTE   En1  v092
 BYTE   W12
 BYTE   En1  v112
 BYTE   W12
//  #01 //080   ----------------------------------------
 BYTE   GoTo
  POIN2 Label_017DA746
 BYTE   FINE

//**************** Track 2 (Midi-Chn.1) ****************//

DrawntoLifeTheNextChapterSalem_002:
//  #02 //000   ----------------------------------------
 BYTE   KEYSH   DrawntoLifeTheNextChapterSalem_key+0
Label_56AB1E:
 BYTE   VOICE   10
 BYTE   MODT 0
 BYTE   LFOS 44
 BYTE   VOL   0*DrawntoLifeTheNextChapterSalem_mvl/mxv
 BYTE   W96
//  #02 //001   ----------------------------------------
 BYTE   W96
//  #02 //002   ----------------------------------------
 BYTE   W96
//  #02 //003   ----------------------------------------
 BYTE   W96
//  #02 //004   ----------------------------------------
 BYTE   W96
//  #02 //005   ----------------------------------------
 BYTE   W96
//  #02 //006   ----------------------------------------
 BYTE   W96
//  #02 //007   ----------------------------------------
 BYTE   N13  Cn3  v048
 BYTE   W12
 BYTE   N10  Dn3
 BYTE   W12
 BYTE   N12  Cn3  v052
 BYTE   W12
 BYTE   Dn3  v056
 BYTE   W12
 BYTE   Cn3
 BYTE   W48
//  #02 //008   ----------------------------------------
 BYTE   W24
 BYTE   N14  An1  v080
 BYTE   W72
//  #02 //009   ----------------------------------------
 BYTE   W96
//  #02 //010   ----------------------------------------
 BYTE   W96
//  #02 //011   ----------------------------------------
 BYTE   W96
//  #02 //012   ----------------------------------------
 BYTE   W96
//  #02 //013   ----------------------------------------
 BYTE   W96
//  #02 //014   ----------------------------------------
 BYTE   W96
//  #02 //015   ----------------------------------------
Label_56AB48:
 BYTE   W48
 BYTE   N11  En4  v076
 BYTE   W12
 BYTE   Bn3  v080
 BYTE   W12
 BYTE   Dn4
 BYTE   W12
 BYTE   Bn3
 BYTE   W12
 BYTE   PEND 
//  #02 //016   ----------------------------------------
 BYTE   W24
 BYTE   N14  An1
 BYTE   W72
//  #02 //017   ----------------------------------------
 BYTE   W96
//  #02 //018   ----------------------------------------
 BYTE   W96
//  #02 //019   ----------------------------------------
 BYTE   W96
//  #02 //020   ----------------------------------------
 BYTE   W96
//  #02 //021   ----------------------------------------
 BYTE   W96
//  #02 //022   ----------------------------------------
 BYTE   W96
//  #02 //023   ----------------------------------------
 BYTE   W96
//  #02 //024   ----------------------------------------
 BYTE   W96
//  #02 //025   ----------------------------------------
 BYTE   W96
//  #02 //026   ----------------------------------------
 BYTE   W96
//  #02 //027   ----------------------------------------
 BYTE   W96
//  #02 //028   ----------------------------------------
 BYTE   W96
//  #02 //029   ----------------------------------------
 BYTE   W96
//  #02 //030   ----------------------------------------
 BYTE   W96
//  #02 //031   ----------------------------------------
 BYTE   PATT
  POIN2 Label_56AB48
//  #02 //032   ----------------------------------------
 BYTE   W96
//  #02 //033   ----------------------------------------
 BYTE   W96
//  #02 //034   ----------------------------------------
 BYTE   W96
//  #02 //035   ----------------------------------------
 BYTE   W96
//  #02 //036   ----------------------------------------
 BYTE   W96
//  #02 //037   ----------------------------------------
 BYTE   W96
//  #02 //038   ----------------------------------------
 BYTE   W96
//  #02 //039   ----------------------------------------
Label_56AB73:
 BYTE   W48
 BYTE   N12  Cn3  v068
 BYTE   W12
 BYTE   N08  Dn3
 BYTE   W12
 BYTE   N14  Cn3  v088
 BYTE   W12
 BYTE   N07  Dn3  v096
 BYTE   W12
 BYTE   PEND 
//  #02 //040   ----------------------------------------
 BYTE   N08  Cn3  v112
 BYTE   W96
//  #02 //041   ----------------------------------------
 BYTE   W24
 BYTE   N06  Cn3  v080
 BYTE   W24
 BYTE   N10  Cn3  v044
 BYTE   W12
 BYTE   N08  Dn3  v072
 BYTE   W24
 BYTE   N05  Cn3  v048
 BYTE   W12
//  #02 //042   ----------------------------------------
 BYTE   W96
//  #02 //043   ----------------------------------------
 BYTE   W24
 BYTE   N08  Cn3  v068
 BYTE   W24
 BYTE   N07  Cn3  v060
 BYTE   W12
 BYTE   N08  Gn3  v080
 BYTE   W24
 BYTE   Cn3  v056
 BYTE   W12
//  #02 //044   ----------------------------------------
 BYTE   W96
//  #02 //045   ----------------------------------------
Label_56ABAB:
 BYTE   W24
 BYTE   N08  Cn3  v064
 BYTE   W24
 BYTE   Cn3  v060
 BYTE   W12
 BYTE   N09  Dn3  v068
 BYTE   W12
 BYTE   N07  Cn3
 BYTE   W24
 BYTE   PEND 
//  #02 //046   ----------------------------------------
 BYTE   W96
//  #02 //047   ----------------------------------------
 BYTE   N09  Dn3  v064
 BYTE   W12
 BYTE   N07  Cn3  v080
 BYTE   W24
 BYTE   N06  Cn3  v008
 BYTE   W12
 BYTE   N09  Dn3  v084
 BYTE   W12
 BYTE   N07  Cn3  v056
 BYTE   W24
 BYTE   N05  Cn3  v072
 BYTE   W12
//  #02 //048   ----------------------------------------
 BYTE   W96
//  #02 //049   ----------------------------------------
 BYTE   W96
//  #02 //050   ----------------------------------------
 BYTE   W96
//  #02 //051   ----------------------------------------
 BYTE   W96
//  #02 //052   ----------------------------------------
 BYTE   W96
//  #02 //053   ----------------------------------------
 BYTE   W96
//  #02 //054   ----------------------------------------
 BYTE   W96
//  #02 //055   ----------------------------------------
 BYTE   PATT
  POIN2 Label_56AB73
//  #02 //056   ----------------------------------------
 BYTE   W24
 BYTE   N11  An1  v080
 BYTE   W72
//  #02 //057   ----------------------------------------
 BYTE   W48
 BYTE   N14  Gn1  v088
 BYTE   W24
 BYTE   Gn1  v092
 BYTE   W24
//  #02 //058   ----------------------------------------
 BYTE   W96
//  #02 //059   ----------------------------------------
 BYTE   W96
//  #02 //060   ----------------------------------------
 BYTE   W96
//  #02 //061   ----------------------------------------
 BYTE   W96
//  #02 //062   ----------------------------------------
 BYTE   W96
//  #02 //063   ----------------------------------------
 BYTE   PATT
  POIN2 Label_56AB73
//  #02 //064   ----------------------------------------
 BYTE   W24
 BYTE   N14  An1  v080
 BYTE   W72
//  #02 //065   ----------------------------------------
 BYTE   W96
//  #02 //066   ----------------------------------------
 BYTE   W96
//  #02 //067   ----------------------------------------
 BYTE   W96
//  #02 //068   ----------------------------------------
 BYTE   W96
//  #02 //069   ----------------------------------------
 BYTE   W96
//  #02 //070   ----------------------------------------
 BYTE   W96
//  #02 //071   ----------------------------------------
 BYTE   W48
 BYTE   N23  Fn1  v084
 BYTE   W24
 BYTE   N11  Gn3
 BYTE   W12
 BYTE   N11
 BYTE   W12
//  #02 //072   ----------------------------------------
 BYTE   W96
//  #02 //073   ----------------------------------------
 BYTE   W96
//  #02 //074   ----------------------------------------
 BYTE   W96
//  #02 //075   ----------------------------------------
 BYTE   W24
 BYTE   N08  Cn3  v068
 BYTE   W24
 BYTE   N07  Cn3  v060
 BYTE   W12
 BYTE   N08  Dn3  v080
 BYTE   W24
 BYTE   Cn3  v056
 BYTE   W12
//  #02 //076   ----------------------------------------
 BYTE   W96
//  #02 //077   ----------------------------------------
 BYTE   PATT
  POIN2 Label_56ABAB
//  #02 //078   ----------------------------------------
 BYTE   W96
//  #02 //079   ----------------------------------------
 BYTE   W60
 BYTE   N11  Cn3  v080
 BYTE   W12
 BYTE   Cn3  v076
 BYTE   W12
 BYTE   Cn3  v084
 BYTE   W12
//  #02 //080   ----------------------------------------
 BYTE   GoTo
  POIN2 Label_56AB1E
 BYTE   FINE

//**************** Track 3 (Midi-Chn.2) ****************//

DrawntoLifeTheNextChapterSalem_003:
//  #03 //000   ----------------------------------------
 BYTE   KEYSH   DrawntoLifeTheNextChapterSalem_key+0
Label_017DA0D2:
 BYTE   VOICE   29
 BYTE   MODT 0
 BYTE   LFOS 44
 BYTE   PAN   c_v-16
 BYTE   VOL   37*DrawntoLifeTheNextChapterSalem_mvl/mxv
 BYTE   W96
//  #03 //001   ----------------------------------------
 BYTE   W96
//  #03 //002   ----------------------------------------
 BYTE   W96
//  #03 //003   ----------------------------------------
 BYTE   W96
//  #03 //004   ----------------------------------------
 BYTE   W96
//  #03 //005   ----------------------------------------
 BYTE   W96
//  #03 //006   ----------------------------------------
 BYTE   W96
//  #03 //007   ----------------------------------------
 BYTE   W60
 BYTE   N32  Bn2  v100
 BYTE   W36
//  #03 //008   ----------------------------------------
Label_017DA0E8:
 BYTE   N11  En3  v100
 BYTE   W72
 BYTE   N11
 BYTE   W12
 BYTE   N11
 BYTE   W12
 BYTE   PEND 
//  #03 //009   ----------------------------------------
Label_017DA0F1:
 BYTE   N56  Ds3  v100
 BYTE   W60
 BYTE   N32  Bn2
 BYTE   W36
 BYTE   PEND 
//  #03 //010   ----------------------------------------
 BYTE   PATT
  POIN2 Label_017DA0E8
//  #03 //011   ----------------------------------------
 BYTE   PATT
  POIN2 Label_017DA0F1
//  #03 //012   ----------------------------------------
 BYTE   N11  En3  v100
 BYTE   W72
 BYTE   Fs3
 BYTE   W24
//  #03 //013   ----------------------------------------
Label_017DA109:
 BYTE   N44  Gn3  v100
 BYTE   W48
 BYTE   Gn2
 BYTE   W48
 BYTE   PEND 
//  #03 //014   ----------------------------------------
Label_017DA110:
 BYTE   N23  An2  v100
 BYTE   W72
 BYTE   N11
 BYTE   W12
 BYTE   N11
 BYTE   W12
 BYTE   PEND 
//  #03 //015   ----------------------------------------
Label_017DA119:
 BYTE   N11  Bn2  v100
 BYTE   W24
 BYTE   An2
 BYTE   W24
 BYTE   Gn2
 BYTE   W24
 BYTE   Fs2
 BYTE   W24
 BYTE   PEND 
//  #03 //016   ----------------------------------------
Label_017DA124:
 BYTE   N44  Cn3  v100
 BYTE   W72
 BYTE   N11
 BYTE   W12
 BYTE   N11
 BYTE   W12
 BYTE   PEND 
//  #03 //017   ----------------------------------------
Label_017DA12D:
 BYTE   N56  Dn3  v100
 BYTE   W72
 BYTE   N11
 BYTE   W24
 BYTE   PEND 
//  #03 //018   ----------------------------------------
Label_017DA134:
 BYTE   N56  Ds3  v100
 BYTE   W72
 BYTE   N23  Bn2
 BYTE   W24
 BYTE   PEND 
//  #03 //019   ----------------------------------------
Label_017DA13C:
 BYTE   N68  En3  v100
 BYTE   W72
 BYTE   N23  Gn3
 BYTE   W24
 BYTE   PEND 
//  #03 //020   ----------------------------------------
Label_017DA144:
 BYTE   N56  Cn3  v100
 BYTE   W72
 BYTE   N11
 BYTE   W12
 BYTE   N11
 BYTE   W12
 BYTE   PEND 
//  #03 //021   ----------------------------------------
 BYTE   PATT
  POIN2 Label_017DA12D
//  #03 //022   ----------------------------------------
Label_017DA152:
 BYTE   N56  Bn2  v100
 BYTE   W72
 BYTE   N11
 BYTE   W12
 BYTE   N11
 BYTE   W12
 BYTE   PEND 
//  #03 //023   ----------------------------------------
 BYTE   N92  En3
 BYTE   W96
//  #03 //024   ----------------------------------------
 BYTE   N56  Cn3
 BYTE   W72
 BYTE   N11
 BYTE   W24
//  #03 //025   ----------------------------------------
 BYTE   PATT
  POIN2 Label_017DA12D
//  #03 //026   ----------------------------------------
 BYTE   N44  Gn3  v100
 BYTE   W48
 BYTE   N32  Fs3
 BYTE   W48
//  #03 //027   ----------------------------------------
 BYTE   En3
 BYTE   W48
 BYTE   Ds3
 BYTE   W48
//  #03 //028   ----------------------------------------
 BYTE   N56  En3
 BYTE   W72
 BYTE   N11
 BYTE   W12
 BYTE   N11
 BYTE   W12
//  #03 //029   ----------------------------------------
 BYTE   N80  Cn3
 BYTE   W84
 BYTE   N11
 BYTE   W12
//  #03 //030   ----------------------------------------
 BYTE   N68  Dn3
 BYTE   W84
 BYTE   N11
 BYTE   W12
//  #03 //031   ----------------------------------------
 BYTE   N80  En3
 BYTE   W96
//  #03 //032   ----------------------------------------
 BYTE   N44
 BYTE   W48
 BYTE   N11  En4
 BYTE   W24
 BYTE   En3
 BYTE   W24
//  #03 //033   ----------------------------------------
 BYTE   N44  Ds3
 BYTE   W48
 BYTE   N11  Ds4
 BYTE   W24
 BYTE   Ds3
 BYTE   W24
//  #03 //034   ----------------------------------------
 BYTE   N44  Dn3
 BYTE   W48
 BYTE   N11  Dn4
 BYTE   W24
 BYTE   Dn3
 BYTE   W24
//  #03 //035   ----------------------------------------
 BYTE   N44  Cs3
 BYTE   W48
 BYTE   N11  Cs4
 BYTE   W24
 BYTE   Cs3
 BYTE   W24
//  #03 //036   ----------------------------------------
 BYTE   N44  Cn3
 BYTE   W48
 BYTE   N11  Cn4
 BYTE   W24
 BYTE   Cn3
 BYTE   W24
//  #03 //037   ----------------------------------------
 BYTE   N44  Gn2
 BYTE   W48
 BYTE   N11  Gn3
 BYTE   W24
 BYTE   N23
 BYTE   W24
//  #03 //038   ----------------------------------------
 BYTE   An2
 BYTE   W24
 BYTE   An3
 BYTE   W24
 BYTE   An2
 BYTE   W24
 BYTE   An3
 BYTE   W24
//  #03 //039   ----------------------------------------
 BYTE   N11  Bn2
 BYTE   W12
 BYTE   Bn3
 BYTE   W12
 BYTE   N23  An3
 BYTE   W24
 BYTE   Gn3
 BYTE   W24
 BYTE   Fs3
 BYTE   W24
//  #03 //040   ----------------------------------------
 BYTE   En3  v108
 BYTE   W36
 BYTE   N11  Ds3
 BYTE   W36
 BYTE   N68  Dn3
 BYTE   W24
//  #03 //041   ----------------------------------------
 BYTE   W48
 BYTE   N11  En3  v104
 BYTE   W12
 BYTE   Bn3
 BYTE   W12
 BYTE   En3
 BYTE   W12
 BYTE   Dn3
 BYTE   W12
//  #03 //042   ----------------------------------------
 BYTE   N23  Dn3  v108
 BYTE   W36
 BYTE   Ds3
 BYTE   W36
 BYTE   N56  En3
 BYTE   W24
//  #03 //043   ----------------------------------------
 BYTE   W36
 BYTE   N11  En3  v088
 BYTE   W12
 BYTE   N32  En4  v072
 BYTE   W16
 BYTE   MOD 4
 BYTE   W02
 BYTE   MOD 9
 BYTE   W01
 BYTE   MOD 16
 BYTE   W01
 BYTE   MOD 21
 BYTE   W01
 BYTE   MOD 27
 BYTE   W02
 BYTE   MOD 32
 BYTE   W01
 BYTE   MOD 36
 BYTE   W01
 BYTE   MOD 38
 BYTE   W01
 BYTE   MOD 38
 BYTE   W02
 BYTE   MOD 30
 BYTE   W01
 BYTE   MOD 14
 BYTE   W01
 BYTE   MOD 0
 BYTE   W18
//  #03 //044   ----------------------------------------
Label_017DA209:
 BYTE   N23  Bn2  v108
 BYTE   W36
 BYTE   N11  As2
 BYTE   W36
 BYTE   N92  An2
 BYTE   W24
 BYTE   PEND 
//  #03 //045   ----------------------------------------
 BYTE   W96
//  #03 //046   ----------------------------------------
Label_017DA215:
 BYTE   N11  Gn3  v108
 BYTE   W36
 BYTE   Fs3
 BYTE   W36
 BYTE   N92  En3
 BYTE   W24
 BYTE   PEND 
//  #03 //047   ----------------------------------------
 BYTE   W96
//  #03 //048   ----------------------------------------
 BYTE   N23
 BYTE   W36
 BYTE   N11  Ds3
 BYTE   W36
 BYTE   N92  Dn3
 BYTE   W24
//  #03 //049   ----------------------------------------
 BYTE   W96
//  #03 //050   ----------------------------------------
 BYTE   N23
 BYTE   W36
 BYTE   Ds3
 BYTE   W36
 BYTE   N92  En3
 BYTE   W24
//  #03 //051   ----------------------------------------
 BYTE   W96
//  #03 //052   ----------------------------------------
 BYTE   PATT
  POIN2 Label_017DA209
//  #03 //053   ----------------------------------------
 BYTE   W96
//  #03 //054   ----------------------------------------
 BYTE   PATT
  POIN2 Label_017DA215
//  #03 //055   ----------------------------------------
 BYTE   W96
//  #03 //056   ----------------------------------------
 BYTE   PATT
  POIN2 Label_017DA0E8
//  #03 //057   ----------------------------------------
 BYTE   PATT
  POIN2 Label_017DA0F1
//  #03 //058   ----------------------------------------
 BYTE   PATT
  POIN2 Label_017DA0E8
//  #03 //059   ----------------------------------------
 BYTE   PATT
  POIN2 Label_017DA0F1
//  #03 //060   ----------------------------------------
 BYTE   N11  En3  v100
 BYTE   W72
 BYTE   Fs3
 BYTE   W24
//  #03 //061   ----------------------------------------
 BYTE   PATT
  POIN2 Label_017DA109
//  #03 //062   ----------------------------------------
 BYTE   PATT
  POIN2 Label_017DA110
//  #03 //063   ----------------------------------------
 BYTE   PATT
  POIN2 Label_017DA119
//  #03 //064   ----------------------------------------
 BYTE   PATT
  POIN2 Label_017DA124
//  #03 //065   ----------------------------------------
 BYTE   PATT
  POIN2 Label_017DA12D
//  #03 //066   ----------------------------------------
 BYTE   PATT
  POIN2 Label_017DA134
//  #03 //067   ----------------------------------------
 BYTE   PATT
  POIN2 Label_017DA13C
//  #03 //068   ----------------------------------------
 BYTE   PATT
  POIN2 Label_017DA144
//  #03 //069   ----------------------------------------
 BYTE   PATT
  POIN2 Label_017DA12D
//  #03 //070   ----------------------------------------
 BYTE   PATT
  POIN2 Label_017DA152
//  #03 //071   ----------------------------------------
 BYTE   N92  En3  v100
 BYTE   W96
//  #03 //072   ----------------------------------------
 BYTE   N44  Cn3
 BYTE   W60
 BYTE   N11
 BYTE   W12
 BYTE   N11
 BYTE   W24
//  #03 //073   ----------------------------------------
 BYTE   N44
 BYTE   W48
 BYTE   Dn3
 BYTE   W48
//  #03 //074   ----------------------------------------
 BYTE   Gn3
 BYTE   W60
 BYTE   N11
 BYTE   W12
 BYTE   N11
 BYTE   W24
//  #03 //075   ----------------------------------------
 BYTE   N44
 BYTE   W48
 BYTE   An3
 BYTE   W48
//  #03 //076   ----------------------------------------
 BYTE   Bn3
 BYTE   W60
 BYTE   N11
 BYTE   W12
 BYTE   N11
 BYTE   W24
//  #03 //077   ----------------------------------------
 BYTE   N44
 BYTE   W48
 BYTE   Ds3
 BYTE   W48
//  #03 //078   ----------------------------------------
 BYTE   N56  En3  v096
 BYTE   W60
 BYTE   N11  En3  v084
 BYTE   W12
 BYTE   En3  v080
 BYTE   W24
//  #03 //079   ----------------------------------------
 BYTE   N44  En3  v068
 BYTE   W96
//  #03 //080   ----------------------------------------
 BYTE   GoTo
  POIN2 Label_017DA0D2
 BYTE   FINE

//**************** Track 4 (Midi-Chn.3) ****************//

DrawntoLifeTheNextChapterSalem_004:
//  #04 //000   ----------------------------------------
 BYTE   KEYSH   DrawntoLifeTheNextChapterSalem_key+0
Label_017DA2C6:
 BYTE   VOICE   34
 BYTE   MODT 0
 BYTE   LFOS 44
 BYTE   VOL   43*DrawntoLifeTheNextChapterSalem_mvl/mxv
 BYTE   PAN   c_v+20
 BYTE   W96
//  #04 //001   ----------------------------------------
 BYTE   W96
//  #04 //002   ----------------------------------------
 BYTE   W96
//  #04 //003   ----------------------------------------
 BYTE   W96
//  #04 //004   ----------------------------------------
 BYTE   W96
//  #04 //005   ----------------------------------------
 BYTE   W96
//  #04 //006   ----------------------------------------
 BYTE   W96
//  #04 //007   ----------------------------------------
 BYTE   W96
//  #04 //008   ----------------------------------------
 BYTE   W96
//  #04 //009   ----------------------------------------
 BYTE   W96
//  #04 //010   ----------------------------------------
 BYTE   W96
//  #04 //011   ----------------------------------------
 BYTE   W96
//  #04 //012   ----------------------------------------
 BYTE   W96
//  #04 //013   ----------------------------------------
 BYTE   W96
//  #04 //014   ----------------------------------------
 BYTE   W96
//  #04 //015   ----------------------------------------
 BYTE   W96
//  #04 //016   ----------------------------------------
 BYTE   N11  Gn5  v076
 BYTE   W12
 BYTE   Gn5  v072
 BYTE   W12
 BYTE   N11
 BYTE   W12
 BYTE   N11
 BYTE   W12
 BYTE   N11
 BYTE   W12
 BYTE   N11
 BYTE   W12
 BYTE   Gn5  v076
 BYTE   W12
 BYTE   N11
 BYTE   W12
//  #04 //017   ----------------------------------------
 BYTE   N11
 BYTE   W12
 BYTE   An5  v072
 BYTE   W12
 BYTE   Fs5  v084
 BYTE   W24
 BYTE   N23  Fs5  v088
 BYTE   W48
//  #04 //018   ----------------------------------------
 BYTE   N11
 BYTE   W12
 BYTE   Fs5  v076
 BYTE   W12
 BYTE   N11
 BYTE   W12
 BYTE   N11
 BYTE   W12
 BYTE   N11
 BYTE   W12
 BYTE   Fs5  v080
 BYTE   W12
 BYTE   Fs5  v084
 BYTE   W12
 BYTE   N11
 BYTE   W12
//  #04 //019   ----------------------------------------
 BYTE   Fs5  v088
 BYTE   W12
 BYTE   Gn5  v092
 BYTE   W12
 BYTE   En5
 BYTE   W24
 BYTE   N23
 BYTE   W48
//  #04 //020   ----------------------------------------
 BYTE   N11  Gn5  v100
 BYTE   W12
 BYTE   Gn5  v084
 BYTE   W12
 BYTE   N11
 BYTE   W12
 BYTE   Gn5  v088
 BYTE   W12
 BYTE   N11
 BYTE   W12
 BYTE   N11
 BYTE   W12
 BYTE   Gn5  v092
 BYTE   W12
 BYTE   N11
 BYTE   W12
//  #04 //021   ----------------------------------------
 BYTE   Gn5  v096
 BYTE   W12
 BYTE   An5  v100
 BYTE   W12
 BYTE   Fs5  v104
 BYTE   W24
 BYTE   N23  Fs5  v116
 BYTE   W48
//  #04 //022   ----------------------------------------
 BYTE   N11  Fs5  v108
 BYTE   W12
 BYTE   Fs5  v100
 BYTE   W12
 BYTE   N11
 BYTE   W12
 BYTE   N11
 BYTE   W12
 BYTE   N11
 BYTE   W12
 BYTE   N11
 BYTE   W12
 BYTE   N11
 BYTE   W12
 BYTE   Fs5  v104
 BYTE   W12
//  #04 //023   ----------------------------------------
 BYTE   Fs5  v108
 BYTE   W12
 BYTE   Gn5
 BYTE   W12
 BYTE   En5  v112
 BYTE   W24
 BYTE   N23  En5  v116
 BYTE   W24
 BYTE   Bn5  v092
 BYTE   W24
//  #04 //024   ----------------------------------------
 BYTE   N11  Gn5  v112
 BYTE   W12
 BYTE   Gn5  v080
 BYTE   W12
 BYTE   N11
 BYTE   W12
 BYTE   N11
 BYTE   W12
 BYTE   N11
 BYTE   W12
 BYTE   Gn5  v084
 BYTE   W12
 BYTE   N11
 BYTE   W12
 BYTE   Gn5  v088
 BYTE   W12
//  #04 //025   ----------------------------------------
 BYTE   Gn5  v092
 BYTE   W12
 BYTE   An5
 BYTE   W12
 BYTE   Fs5  v100
 BYTE   W24
 BYTE   N32  Fs5  v108
 BYTE   W48
//  #04 //026   ----------------------------------------
 BYTE   N11  Gn5  v112
 BYTE   W12
 BYTE   Gn5  v064
 BYTE   W12
 BYTE   Gn5  v072
 BYTE   W12
 BYTE   Gn5  v052
 BYTE   W12
 BYTE   Fs5  v064
 BYTE   W12
 BYTE   N11
 BYTE   W12
 BYTE   N11
 BYTE   W12
 BYTE   Fs5  v076
 BYTE   W12
//  #04 //027   ----------------------------------------
 BYTE   N23  En5
 BYTE   W96
//  #04 //028   ----------------------------------------
 BYTE   W96
//  #04 //029   ----------------------------------------
 BYTE   W96
//  #04 //030   ----------------------------------------
 BYTE   W96
//  #04 //031   ----------------------------------------
 BYTE   W96
//  #04 //032   ----------------------------------------
 BYTE   W96
//  #04 //033   ----------------------------------------
 BYTE   W96
//  #04 //034   ----------------------------------------
 BYTE   W96
//  #04 //035   ----------------------------------------
 BYTE   W96
//  #04 //036   ----------------------------------------
 BYTE   W96
//  #04 //037   ----------------------------------------
 BYTE   W96
//  #04 //038   ----------------------------------------
 BYTE   W96
//  #04 //039   ----------------------------------------
 BYTE   W96
//  #04 //040   ----------------------------------------
 BYTE   W96
//  #04 //041   ----------------------------------------
 BYTE   W96
//  #04 //042   ----------------------------------------
 BYTE   W96
//  #04 //043   ----------------------------------------
 BYTE   W96
//  #04 //044   ----------------------------------------
 BYTE   W96
//  #04 //045   ----------------------------------------
 BYTE   W96
//  #04 //046   ----------------------------------------
 BYTE   W96
//  #04 //047   ----------------------------------------
 BYTE   W96
//  #04 //048   ----------------------------------------
 BYTE   W96
//  #04 //049   ----------------------------------------
 BYTE   W96
//  #04 //050   ----------------------------------------
 BYTE   W96
//  #04 //051   ----------------------------------------
 BYTE   W96
//  #04 //052   ----------------------------------------
 BYTE   W96
//  #04 //053   ----------------------------------------
 BYTE   W96
//  #04 //054   ----------------------------------------
 BYTE   W96
//  #04 //055   ----------------------------------------
 BYTE   W96
//  #04 //056   ----------------------------------------
 BYTE   W96
//  #04 //057   ----------------------------------------
 BYTE   W96
//  #04 //058   ----------------------------------------
 BYTE   W96
//  #04 //059   ----------------------------------------
 BYTE   W96
//  #04 //060   ----------------------------------------
 BYTE   W96
//  #04 //061   ----------------------------------------
 BYTE   W96
//  #04 //062   ----------------------------------------
 BYTE   W96
//  #04 //063   ----------------------------------------
 BYTE   W96
//  #04 //064   ----------------------------------------
 BYTE   W96
//  #04 //065   ----------------------------------------
 BYTE   W96
//  #04 //066   ----------------------------------------
 BYTE   W96
//  #04 //067   ----------------------------------------
 BYTE   W96
//  #04 //068   ----------------------------------------
 BYTE   W96
//  #04 //069   ----------------------------------------
 BYTE   W96
//  #04 //070   ----------------------------------------
 BYTE   W96
//  #04 //071   ----------------------------------------
 BYTE   W96
//  #04 //072   ----------------------------------------
 BYTE   W96
//  #04 //073   ----------------------------------------
 BYTE   W96
//  #04 //074   ----------------------------------------
 BYTE   W96
//  #04 //075   ----------------------------------------
 BYTE   W96
//  #04 //076   ----------------------------------------
 BYTE   W96
//  #04 //077   ----------------------------------------
 BYTE   W96
//  #04 //078   ----------------------------------------
 BYTE   W96
//  #04 //079   ----------------------------------------
 BYTE   W96
//  #04 //080   ----------------------------------------
 BYTE   GoTo
  POIN2 Label_017DA2C6
 BYTE   FINE

//**************** Track 5 (Midi-Chn.4) ****************//

DrawntoLifeTheNextChapterSalem_005:
//  #05 //000   ----------------------------------------
 BYTE   KEYSH   DrawntoLifeTheNextChapterSalem_key+0
Label_56A336:
 BYTE   VOICE   28
 BYTE   MODT 0
 BYTE   LFOS 44
 BYTE   PAN   c_v+3
 BYTE   VOL   35*DrawntoLifeTheNextChapterSalem_mvl/mxv
 BYTE   W96
//  #05 //001   ----------------------------------------
 BYTE   W96
//  #05 //002   ----------------------------------------
 BYTE   W96
//  #05 //003   ----------------------------------------
 BYTE   W96
//  #05 //004   ----------------------------------------
 BYTE   W96
//  #05 //005   ----------------------------------------
 BYTE   W96
//  #05 //006   ----------------------------------------
 BYTE   W96
//  #05 //007   ----------------------------------------
 BYTE   W96
//  #05 //008   ----------------------------------------
 BYTE   W96
//  #05 //009   ----------------------------------------
 BYTE   W96
//  #05 //010   ----------------------------------------
 BYTE   W96
//  #05 //011   ----------------------------------------
 BYTE   W96
//  #05 //012   ----------------------------------------
 BYTE   W96
//  #05 //013   ----------------------------------------
 BYTE   W96
//  #05 //014   ----------------------------------------
 BYTE   W96
//  #05 //015   ----------------------------------------
 BYTE   W96
//  #05 //016   ----------------------------------------
 BYTE   W96
//  #05 //017   ----------------------------------------
 BYTE   W96
//  #05 //018   ----------------------------------------
 BYTE   W96
//  #05 //019   ----------------------------------------
 BYTE   W96
//  #05 //020   ----------------------------------------
 BYTE   W96
//  #05 //021   ----------------------------------------
 BYTE   W96
//  #05 //022   ----------------------------------------
 BYTE   W96
//  #05 //023   ----------------------------------------
 BYTE   W96
//  #05 //024   ----------------------------------------
 BYTE   W96
//  #05 //025   ----------------------------------------
 BYTE   W96
//  #05 //026   ----------------------------------------
 BYTE   W96
//  #05 //027   ----------------------------------------
 BYTE   W96
//  #05 //028   ----------------------------------------
 BYTE   W96
//  #05 //029   ----------------------------------------
 BYTE   W96
//  #05 //030   ----------------------------------------
 BYTE   W96
//  #05 //031   ----------------------------------------
 BYTE   W96
//  #05 //032   ----------------------------------------
 BYTE   N80  En4  v080
 BYTE   W96
//  #05 //033   ----------------------------------------
 BYTE   N84  Ds4
 BYTE   W96
//  #05 //034   ----------------------------------------
 BYTE   N88  Dn4
 BYTE   W96
//  #05 //035   ----------------------------------------
 BYTE   N68  Cs4
 BYTE   W96
//  #05 //036   ----------------------------------------
 BYTE   Cn4
 BYTE   W96
//  #05 //037   ----------------------------------------
 BYTE   N72  Bn3
 BYTE   W96
//  #05 //038   ----------------------------------------
 BYTE   N80  An3
 BYTE   W96
//  #05 //039   ----------------------------------------
 BYTE   N20  Bn3
 BYTE   W24
 BYTE   N19  An3
 BYTE   W24
 BYTE   N13  Gn3
 BYTE   W24
 BYTE   N21  Fs3
 BYTE   W24
//  #05 //040   ----------------------------------------
 BYTE   N11  En3
 BYTE   W96
//  #05 //041   ----------------------------------------
 BYTE   W96
//  #05 //042   ----------------------------------------
 BYTE   W96
//  #05 //043   ----------------------------------------
 BYTE   W96
//  #05 //044   ----------------------------------------
 BYTE   W96
//  #05 //045   ----------------------------------------
 BYTE   W96
//  #05 //046   ----------------------------------------
 BYTE   W96
//  #05 //047   ----------------------------------------
 BYTE   W96
//  #05 //048   ----------------------------------------
 BYTE   W96
//  #05 //049   ----------------------------------------
 BYTE   W96
//  #05 //050   ----------------------------------------
 BYTE   W96
//  #05 //051   ----------------------------------------
 BYTE   W96
//  #05 //052   ----------------------------------------
 BYTE   N32  Bn3  v052
 BYTE   W36
 BYTE   As3
 BYTE   W36
 BYTE   TIE  An3
 BYTE   W24
//  #05 //053   ----------------------------------------
 BYTE   W80
 BYTE   W03
 BYTE   EOT
 BYTE   W13
//  #05 //054   ----------------------------------------
 BYTE   N23  Gn3
 BYTE   W36
 BYTE   Fs3
 BYTE   W36
 BYTE   TIE  En3
 BYTE   W24
//  #05 //055   ----------------------------------------
 BYTE   W80
 BYTE   W03
 BYTE   EOT
 BYTE   W13
//  #05 //056   ----------------------------------------
 BYTE   W96
//  #05 //057   ----------------------------------------
 BYTE   W96
//  #05 //058   ----------------------------------------
 BYTE   W96
//  #05 //059   ----------------------------------------
 BYTE   W96
//  #05 //060   ----------------------------------------
 BYTE   W96
//  #05 //061   ----------------------------------------
 BYTE   W96
//  #05 //062   ----------------------------------------
 BYTE   W96
//  #05 //063   ----------------------------------------
 BYTE   W96
//  #05 //064   ----------------------------------------
 BYTE   W96
//  #05 //065   ----------------------------------------
 BYTE   W96
//  #05 //066   ----------------------------------------
 BYTE   W96
//  #05 //067   ----------------------------------------
 BYTE   W96
//  #05 //068   ----------------------------------------
 BYTE   W96
//  #05 //069   ----------------------------------------
 BYTE   W96
//  #05 //070   ----------------------------------------
 BYTE   W96
//  #05 //071   ----------------------------------------
 BYTE   W96
//  #05 //072   ----------------------------------------
 BYTE   W96
//  #05 //073   ----------------------------------------
 BYTE   W96
//  #05 //074   ----------------------------------------
 BYTE   W96
//  #05 //075   ----------------------------------------
 BYTE   W96
//  #05 //076   ----------------------------------------
 BYTE   W96
//  #05 //077   ----------------------------------------
 BYTE   W96
//  #05 //078   ----------------------------------------
 BYTE   W96
//  #05 //079   ----------------------------------------
 BYTE   W96
//  #05 //080   ----------------------------------------
 BYTE   GoTo
  POIN2 Label_56A336
 BYTE   FINE

//**************** Track 6 (Midi-Chn.5) ****************//

DrawntoLifeTheNextChapterSalem_006:
//  #06 //000   ----------------------------------------
 BYTE   KEYSH   DrawntoLifeTheNextChapterSalem_key+0
Label_017DA3DA:
 BYTE   VOICE   2
 BYTE   MODT 0
 BYTE   LFOS 44
 BYTE   VOL   48*DrawntoLifeTheNextChapterSalem_mvl/mxv
 BYTE   PAN   c_v-20
 BYTE   W96
//  #06 //001   ----------------------------------------
 BYTE   W96
//  #06 //002   ----------------------------------------
 BYTE   N23  En4  v036
 BYTE   W24
 BYTE   Fs4
 BYTE   W24
 BYTE   N32  Gn4
 BYTE   W36
 BYTE   N11  An4  v040
 BYTE   W12
//  #06 //003   ----------------------------------------
 BYTE   N44
 BYTE   W48
 BYTE   Fs4
 BYTE   W48
//  #06 //004   ----------------------------------------
 BYTE   N23  En4  v044
 BYTE   W24
 BYTE   Fs4  v048
 BYTE   W24
 BYTE   N32  Gn4
 BYTE   W36
 BYTE   N11  An4  v052
 BYTE   W12
//  #06 //005   ----------------------------------------
 BYTE   N44  Bn4
 BYTE   W48
 BYTE   Gn4
 BYTE   W48
//  #06 //006   ----------------------------------------
 BYTE   Cn5
 BYTE   W48
 BYTE   An4
 BYTE   W48
//  #06 //007   ----------------------------------------
 BYTE   N56  Bn4
 BYTE   W96
//  #06 //008   ----------------------------------------
Label_017DA411:
 BYTE   N23  En4  v052
 BYTE   N23  En5
 BYTE   W24
 BYTE   Fs4
 BYTE   N23  Fs5
 BYTE   W24
 BYTE   N32  Gn4
 BYTE   N32  Gn5
 BYTE   W36
 BYTE   N11  An4
 BYTE   N11  An5
 BYTE   W12
 BYTE   PEND 
//  #06 //009   ----------------------------------------
 BYTE   N44  An4
 BYTE   N44  An5
 BYTE   W48
 BYTE   Fs4
 BYTE   N44  Fs5
 BYTE   W48
//  #06 //010   ----------------------------------------
 BYTE   PATT
  POIN2 Label_017DA411
//  #06 //011   ----------------------------------------
 BYTE   N32  An4  v052
 BYTE   N32  An5
 BYTE   W36
 BYTE   N11  Bn4
 BYTE   N11  Bn5
 BYTE   W12
 BYTE   N32  Fs4
 BYTE   N32  Fs5
 BYTE   W48
//  #06 //012   ----------------------------------------
 BYTE   PATT
  POIN2 Label_017DA411
//  #06 //013   ----------------------------------------
 BYTE   N44  Bn4  v052
 BYTE   N44  Bn5
 BYTE   W48
 BYTE   Gn4
 BYTE   N44  Gn5
 BYTE   W48
//  #06 //014   ----------------------------------------
 BYTE   Cn5
 BYTE   N44  Cn6
 BYTE   W48
 BYTE   An4
 BYTE   N44  An5
 BYTE   W48
//  #06 //015   ----------------------------------------
 BYTE   N56  Bn4
 BYTE   N56  Bn5
 BYTE   W96
//  #06 //016   ----------------------------------------
 BYTE   Cn5
 BYTE   N56  Cn6
 BYTE   W96
//  #06 //017   ----------------------------------------
 BYTE   N68  An4
 BYTE   N68  An5
 BYTE   W96
//  #06 //018   ----------------------------------------
 BYTE   N56  Bn4
 BYTE   N68  Bn5
 BYTE   W96
//  #06 //019   ----------------------------------------
 BYTE   Gn4  v056
 BYTE   N68  Gn5
 BYTE   W96
//  #06 //020   ----------------------------------------
 BYTE   Cn5
 BYTE   N68  Cn6
 BYTE   W96
//  #06 //021   ----------------------------------------
 BYTE   An4  v052
 BYTE   N68  An5
 BYTE   W96
//  #06 //022   ----------------------------------------
 BYTE   Bn4
 BYTE   N68  Bn5
 BYTE   W96
//  #06 //023   ----------------------------------------
 BYTE   N56  Gn4
 BYTE   N56  Gn5
 BYTE   W96
//  #06 //024   ----------------------------------------
 BYTE   Cn5
 BYTE   N56  Cn6
 BYTE   W96
//  #06 //025   ----------------------------------------
 BYTE   An4
 BYTE   N56  An5
 BYTE   W96
//  #06 //026   ----------------------------------------
 BYTE   N32  Bn4
 BYTE   N32  Bn5
 BYTE   W48
 BYTE   An4
 BYTE   N32  An5
 BYTE   W48
//  #06 //027   ----------------------------------------
 BYTE   Gn4
 BYTE   N32  Gn5
 BYTE   W48
 BYTE   Fs4
 BYTE   N32  Fs5
 BYTE   W48
//  #06 //028   ----------------------------------------
 BYTE   PATT
  POIN2 Label_017DA411
//  #06 //029   ----------------------------------------
 BYTE   N44  An4  v052
 BYTE   N44  An5
 BYTE   W48
 BYTE   En4
 BYTE   N32  En5
 BYTE   W48
//  #06 //030   ----------------------------------------
 BYTE   N44  Fs4
 BYTE   N44  Fs5
 BYTE   W48
 BYTE   Dn4
 BYTE   N44  Dn5
 BYTE   W48
//  #06 //031   ----------------------------------------
 BYTE   N80  En4
 BYTE   N80  En5
 BYTE   W96
//  #06 //032   ----------------------------------------
 BYTE   W24
 BYTE   N32  Bn3  v040
 BYTE   N32  En4
 BYTE   N32  Gn4
 BYTE   W36
 BYTE   Bn3
 BYTE   N32  En4
 BYTE   N32  Gn4
 BYTE   W36
//  #06 //033   ----------------------------------------
 BYTE   W24
 BYTE   Bn3
 BYTE   N32  Ds4
 BYTE   N32  Fs4
 BYTE   W36
 BYTE   Bn3
 BYTE   N32  Ds4
 BYTE   N32  Fs4
 BYTE   W36
//  #06 //034   ----------------------------------------
 BYTE   W24
 BYTE   An3
 BYTE   N32  Dn4
 BYTE   N32  Fs4
 BYTE   W36
 BYTE   An3
 BYTE   N32  Dn4
 BYTE   N32  Fs4
 BYTE   W36
//  #06 //035   ----------------------------------------
 BYTE   W24
 BYTE   An3
 BYTE   N32  Cs4
 BYTE   N32  En4
 BYTE   W36
 BYTE   An3
 BYTE   N32  Cs4
 BYTE   N32  En4
 BYTE   W36
//  #06 //036   ----------------------------------------
 BYTE   W24
 BYTE   Gn3  v044
 BYTE   N32  Cn4
 BYTE   N32  En4
 BYTE   W36
 BYTE   Gn3
 BYTE   N32  Cn4
 BYTE   N32  En4
 BYTE   W36
//  #06 //037   ----------------------------------------
 BYTE   W24
 BYTE   Gn3
 BYTE   N32  Bn3
 BYTE   N32  Dn4
 BYTE   W36
 BYTE   Gn3
 BYTE   N32  Bn3
 BYTE   N32  Dn4
 BYTE   W36
//  #06 //038   ----------------------------------------
 BYTE   W24
 BYTE   An3
 BYTE   N32  Cn4
 BYTE   N32  En4
 BYTE   W36
 BYTE   An3
 BYTE   N32  Cn4
 BYTE   N32  En4
 BYTE   W36
//  #06 //039   ----------------------------------------
 BYTE   W18
 BYTE   N44  An3
 BYTE   W03
 BYTE   N07  As3
 BYTE   W03
 BYTE   N40  Bn3
 BYTE   W24
 BYTE   N23  Ds4
 BYTE   W24
 BYTE   N64  Bn3
 BYTE   W24
//  #06 //040   ----------------------------------------
 BYTE   N42  Gn3
 BYTE   N40  En4
 BYTE   W96
//  #06 //041   ----------------------------------------
 BYTE   W96
//  #06 //042   ----------------------------------------
 BYTE   W96
//  #06 //043   ----------------------------------------
 BYTE   W96
//  #06 //044   ----------------------------------------
 BYTE   W96
//  #06 //045   ----------------------------------------
 BYTE   W96
//  #06 //046   ----------------------------------------
 BYTE   W96
//  #06 //047   ----------------------------------------
 BYTE   W96
//  #06 //048   ----------------------------------------
 BYTE   W96
//  #06 //049   ----------------------------------------
 BYTE   W96
//  #06 //050   ----------------------------------------
 BYTE   W96
//  #06 //051   ----------------------------------------
 BYTE   W96
//  #06 //052   ----------------------------------------
 BYTE   W96
//  #06 //053   ----------------------------------------
 BYTE   W96
//  #06 //054   ----------------------------------------
 BYTE   W96
//  #06 //055   ----------------------------------------
 BYTE   W96
//  #06 //056   ----------------------------------------
 BYTE   W96
//  #06 //057   ----------------------------------------
 BYTE   W96
//  #06 //058   ----------------------------------------
 BYTE   W96
//  #06 //059   ----------------------------------------
 BYTE   W96
//  #06 //060   ----------------------------------------
 BYTE   W96
//  #06 //061   ----------------------------------------
 BYTE   W96
//  #06 //062   ----------------------------------------
 BYTE   W96
//  #06 //063   ----------------------------------------
 BYTE   W96
//  #06 //064   ----------------------------------------
 BYTE   W96
//  #06 //065   ----------------------------------------
 BYTE   W96
//  #06 //066   ----------------------------------------
 BYTE   W96
//  #06 //067   ----------------------------------------
 BYTE   W96
//  #06 //068   ----------------------------------------
 BYTE   W96
//  #06 //069   ----------------------------------------
 BYTE   W96
//  #06 //070   ----------------------------------------
 BYTE   W96
//  #06 //071   ----------------------------------------
 BYTE   W96
//  #06 //072   ----------------------------------------
 BYTE   W96
//  #06 //073   ----------------------------------------
 BYTE   W96
//  #06 //074   ----------------------------------------
 BYTE   W96
//  #06 //075   ----------------------------------------
 BYTE   W96
//  #06 //076   ----------------------------------------
 BYTE   W96
//  #06 //077   ----------------------------------------
 BYTE   W96
//  #06 //078   ----------------------------------------
 BYTE   W96
//  #06 //079   ----------------------------------------
 BYTE   W96
//  #06 //080   ----------------------------------------
 BYTE   GoTo
  POIN2 Label_017DA3DA
 BYTE   FINE

//**************** Track 7 (Midi-Chn.6) ****************//

DrawntoLifeTheNextChapterSalem_007:
//  #07 //000   ----------------------------------------
 BYTE   KEYSH   DrawntoLifeTheNextChapterSalem_key+0
Label_017DA55E:
 BYTE   VOICE   40
 BYTE   MODT 0
 BYTE   LFOS 44
 BYTE   VOL   46*DrawntoLifeTheNextChapterSalem_mvl/mxv
 BYTE   PAN   c_v-11
 BYTE   W96
//  #07 //001   ----------------------------------------
 BYTE   W96
//  #07 //002   ----------------------------------------
 BYTE   W96
//  #07 //003   ----------------------------------------
 BYTE   W96
//  #07 //004   ----------------------------------------
 BYTE   W96
//  #07 //005   ----------------------------------------
 BYTE   W96
//  #07 //006   ----------------------------------------
 BYTE   W96
//  #07 //007   ----------------------------------------
 BYTE   W96
//  #07 //008   ----------------------------------------
 BYTE   W96
//  #07 //009   ----------------------------------------
 BYTE   W96
//  #07 //010   ----------------------------------------
 BYTE   W96
//  #07 //011   ----------------------------------------
 BYTE   W96
//  #07 //012   ----------------------------------------
 BYTE   W96
//  #07 //013   ----------------------------------------
 BYTE   W96
//  #07 //014   ----------------------------------------
 BYTE   W96
//  #07 //015   ----------------------------------------
 BYTE   W96
//  #07 //016   ----------------------------------------
 BYTE   W96
//  #07 //017   ----------------------------------------
 BYTE   W96
//  #07 //018   ----------------------------------------
 BYTE   W96
//  #07 //019   ----------------------------------------
Label_017DA57B:
 BYTE   W24
 BYTE   N11  En4  v052
 BYTE   W12
 BYTE   Fs4
 BYTE   W12
 BYTE   N23  Gn4
 BYTE   W24
 BYTE   N11  An4
 BYTE   W12
 BYTE   En4
 BYTE   W12
 BYTE   PEND 
//  #07 //020   ----------------------------------------
 BYTE   W96
//  #07 //021   ----------------------------------------
 BYTE   W96
//  #07 //022   ----------------------------------------
 BYTE   W96
//  #07 //023   ----------------------------------------
 BYTE   PATT
  POIN2 Label_017DA57B
//  #07 //024   ----------------------------------------
 BYTE   W96
//  #07 //025   ----------------------------------------
 BYTE   W96
//  #07 //026   ----------------------------------------
 BYTE   W96
//  #07 //027   ----------------------------------------
 BYTE   W96
//  #07 //028   ----------------------------------------
 BYTE   W96
//  #07 //029   ----------------------------------------
 BYTE   W96
//  #07 //030   ----------------------------------------
 BYTE   W96
//  #07 //031   ----------------------------------------
 BYTE   W96
//  #07 //032   ----------------------------------------
 BYTE   N92  En3  v056
 BYTE   W96
//  #07 //033   ----------------------------------------
 BYTE   Fs3  v060
 BYTE   W96
//  #07 //034   ----------------------------------------
 BYTE   Gn3
 BYTE   W96
//  #07 //035   ----------------------------------------
 BYTE   An3
 BYTE   W96
//  #07 //036   ----------------------------------------
 BYTE   Gn3  v064
 BYTE   W96
//  #07 //037   ----------------------------------------
 BYTE   N44  An3  v068
 BYTE   W48
 BYTE   Gn3  v072
 BYTE   W48
//  #07 //038   ----------------------------------------
 BYTE   N92  An3
 BYTE   W96
//  #07 //039   ----------------------------------------
 BYTE   Bn3  v080
 BYTE   W96
//  #07 //040   ----------------------------------------
 BYTE   N11  En4  v056
 BYTE   W96
//  #07 //041   ----------------------------------------
 BYTE   W96
//  #07 //042   ----------------------------------------
 BYTE   W96
//  #07 //043   ----------------------------------------
 BYTE   W96
//  #07 //044   ----------------------------------------
 BYTE   W96
//  #07 //045   ----------------------------------------
 BYTE   W96
//  #07 //046   ----------------------------------------
 BYTE   W96
//  #07 //047   ----------------------------------------
 BYTE   W96
//  #07 //048   ----------------------------------------
 BYTE   W96
//  #07 //049   ----------------------------------------
 BYTE   W96
//  #07 //050   ----------------------------------------
 BYTE   W96
//  #07 //051   ----------------------------------------
 BYTE   W96
//  #07 //052   ----------------------------------------
 BYTE   W96
//  #07 //053   ----------------------------------------
 BYTE   W96
//  #07 //054   ----------------------------------------
 BYTE   W96
//  #07 //055   ----------------------------------------
 BYTE   W96
//  #07 //056   ----------------------------------------
Label_017DA5C9:
 BYTE   N23  En4  v044
 BYTE   N23  En5
 BYTE   W24
 BYTE   Fs4
 BYTE   N23  Fs5
 BYTE   W24
 BYTE   N32  Gn4
 BYTE   N32  Gn5
 BYTE   W36
 BYTE   N11  An4
 BYTE   N11  An5
 BYTE   W12
 BYTE   PEND 
//  #07 //057   ----------------------------------------
Label_017DA5DE:
 BYTE   N11  Ds4  v044
 BYTE   N11  Ds5
 BYTE   W36
 BYTE   En4
 BYTE   N11  En5
 BYTE   W12
 BYTE   N32  Fs4
 BYTE   N32  Fs5
 BYTE   W36
 BYTE   N11  Gn4
 BYTE   N11  Gn5
 BYTE   W12
 BYTE   PEND 
//  #07 //058   ----------------------------------------
 BYTE   PATT
  POIN2 Label_017DA5C9
//  #07 //059   ----------------------------------------
 BYTE   PATT
  POIN2 Label_017DA5DE
//  #07 //060   ----------------------------------------
 BYTE   N23  En4  v044
 BYTE   N23  En5
 BYTE   W24
 BYTE   Fs4
 BYTE   N23  Fs5
 BYTE   W24
 BYTE   N32  Gn4
 BYTE   N32  Gn5
 BYTE   W36
 BYTE   N11  An4  v048
 BYTE   N11  An5
 BYTE   W12
//  #07 //061   ----------------------------------------
 BYTE   N44  Bn4
 BYTE   N44  Bn5
 BYTE   W48
 BYTE   Gn4
 BYTE   N44  Gn5
 BYTE   W48
//  #07 //062   ----------------------------------------
 BYTE   Cn5
 BYTE   N44  Cn6
 BYTE   W48
 BYTE   An4
 BYTE   N44  An5
 BYTE   W48
//  #07 //063   ----------------------------------------
 BYTE   N92  Bn4
 BYTE   N92  Bn5
 BYTE   W96
//  #07 //064   ----------------------------------------
 BYTE   Gn4
 BYTE   N92  Gn5
 BYTE   W96
//  #07 //065   ----------------------------------------
Label_017DA62C:
 BYTE   N44  Fs4  v048
 BYTE   N44  Fs5
 BYTE   W48
 BYTE   En4
 BYTE   N44  En5
 BYTE   W48
 BYTE   PEND 
//  #07 //066   ----------------------------------------
 BYTE   Ds4
 BYTE   N44  Ds5
 BYTE   W48
 BYTE   En4
 BYTE   N44  En5
 BYTE   W48
//  #07 //067   ----------------------------------------
 BYTE   N92  Bn3
 BYTE   N92  Bn4
 BYTE   W96
//  #07 //068   ----------------------------------------
 BYTE   Gn4
 BYTE   N92  Gn5
 BYTE   W96
//  #07 //069   ----------------------------------------
 BYTE   PATT
  POIN2 Label_017DA62C
//  #07 //070   ----------------------------------------
 BYTE   N44  Ds4  v048
 BYTE   N44  Ds5
 BYTE   W48
 BYTE   TIE  En4
 BYTE   TIE  En5
 BYTE   W48
//  #07 //071   ----------------------------------------
 BYTE   W68
 BYTE   W03
 BYTE   EOT
 BYTE   En4  v088
 BYTE   W01
 BYTE   N23  Fs4
 BYTE   N23  Fs5
 BYTE   W24
//  #07 //072   ----------------------------------------
 BYTE   N11  Gn4
 BYTE   TIE  En5  v056
 BYTE   N11  Gn5  v048
 BYTE   W96
//  #07 //073   ----------------------------------------
 BYTE   W44
 BYTE   W03
 BYTE   EOT
 BYTE   En5
 BYTE   W01
 BYTE   N11  En5  v056
 BYTE   W12
 BYTE   Dn5
 BYTE   W12
 BYTE   Cn5
 BYTE   W12
 BYTE   Bn4
 BYTE   W12
//  #07 //074   ----------------------------------------
 BYTE   TIE  Dn5
 BYTE   W96
//  #07 //075   ----------------------------------------
 BYTE   W44
 BYTE   W03
 BYTE   EOT
 BYTE   W01
 BYTE   N11  Cn5  v048
 BYTE   W12
 BYTE   Bn4  v044
 BYTE   W12
 BYTE   An4
 BYTE   W12
 BYTE   Gn4
 BYTE   W12
//  #07 //076   ----------------------------------------
 BYTE   TIE  Bn4
 BYTE   W96
//  #07 //077   ----------------------------------------
 BYTE   W44
 BYTE   W03
 BYTE   EOT
 BYTE   W01
 BYTE   N11  Bn4  v032
 BYTE   W12
 BYTE   An4
 BYTE   W12
 BYTE   Gn4
 BYTE   W12
 BYTE   Fs4  v028
 BYTE   W12
//  #07 //078   ----------------------------------------
 BYTE   TIE  En4
 BYTE   W96
//  #07 //079   ----------------------------------------
 BYTE   W92
 BYTE   W03
 BYTE   EOT
 BYTE   W01
//  #07 //080   ----------------------------------------
 BYTE   GoTo
  POIN2 Label_017DA55E
 BYTE   FINE

//**************** Track 8 (Midi-Chn.7) ****************//

DrawntoLifeTheNextChapterSalem_008:
//  #08 //000   ----------------------------------------
 BYTE   KEYSH   DrawntoLifeTheNextChapterSalem_key+0
Label_017DA6AE:
 BYTE   VOICE   7
 BYTE   MODT 0
 BYTE   LFOS 44
 BYTE   VOL   67*DrawntoLifeTheNextChapterSalem_mvl/mxv
 BYTE   PAN   c_v+17
 BYTE   W96
//  #08 //001   ----------------------------------------
 BYTE   W96
//  #08 //002   ----------------------------------------
 BYTE   W96
//  #08 //003   ----------------------------------------
 BYTE   W96
//  #08 //004   ----------------------------------------
 BYTE   W96
//  #08 //005   ----------------------------------------
 BYTE   W96
//  #08 //006   ----------------------------------------
 BYTE   W96
//  #08 //007   ----------------------------------------
 BYTE   W96
//  #08 //008   ----------------------------------------
 BYTE   W96
//  #08 //009   ----------------------------------------
 BYTE   W96
//  #08 //010   ----------------------------------------
 BYTE   W96
//  #08 //011   ----------------------------------------
 BYTE   W96
//  #08 //012   ----------------------------------------
 BYTE   W96
//  #08 //013   ----------------------------------------
 BYTE   W96
//  #08 //014   ----------------------------------------
 BYTE   W96
//  #08 //015   ----------------------------------------
 BYTE   W96
//  #08 //016   ----------------------------------------
 BYTE   W96
//  #08 //017   ----------------------------------------
 BYTE   W96
//  #08 //018   ----------------------------------------
 BYTE   W96
//  #08 //019   ----------------------------------------
Label_017DA6CB:
 BYTE   W72
 BYTE   N11  Gn3  v060
 BYTE   W12
 BYTE   Fs3
 BYTE   W12
 BYTE   PEND 
//  #08 //020   ----------------------------------------
Label_017DA6D3:
 BYTE   N11  Gn3  v060
 BYTE   W24
 BYTE   En3
 BYTE   W24
 BYTE   Bn2
 BYTE   W24
 BYTE   An2
 BYTE   W24
 BYTE   PEND 
//  #08 //021   ----------------------------------------
 BYTE   Gn2
 BYTE   W12
 BYTE   N11
 BYTE   W12
 BYTE   An2
 BYTE   W24
 BYTE   Bn2
 BYTE   W48
//  #08 //022   ----------------------------------------
 BYTE   W96
//  #08 //023   ----------------------------------------
 BYTE   PATT
  POIN2 Label_017DA6CB
//  #08 //024   ----------------------------------------
 BYTE   PATT
  POIN2 Label_017DA6D3
//  #08 //025   ----------------------------------------
 BYTE   N11  Gn2  v060
 BYTE   W12
 BYTE   N11
 BYTE   W12
 BYTE   An2
 BYTE   W24
 BYTE   Bn2
 BYTE   W24
 BYTE   Gn2
 BYTE   W24
//  #08 //026   ----------------------------------------
 BYTE   Gn2  v056
 BYTE   W24
 BYTE   Dn2
 BYTE   W24
 BYTE   Bn1
 BYTE   W24
 BYTE   An1
 BYTE   W24
//  #08 //027   ----------------------------------------
 BYTE   Gn1
 BYTE   W96
//  #08 //028   ----------------------------------------
 BYTE   W96
//  #08 //029   ----------------------------------------
 BYTE   W96
//  #08 //030   ----------------------------------------
 BYTE   W96
//  #08 //031   ----------------------------------------
 BYTE   W96
//  #08 //032   ----------------------------------------
 BYTE   W96
//  #08 //033   ----------------------------------------
 BYTE   W96
//  #08 //034   ----------------------------------------
 BYTE   W96
//  #08 //035   ----------------------------------------
 BYTE   W96
//  #08 //036   ----------------------------------------
 BYTE   W96
//  #08 //037   ----------------------------------------
 BYTE   W96
//  #08 //038   ----------------------------------------
 BYTE   W96
//  #08 //039   ----------------------------------------
 BYTE   W96
//  #08 //040   ----------------------------------------
 BYTE   W96
//  #08 //041   ----------------------------------------
 BYTE   W96
//  #08 //042   ----------------------------------------
 BYTE   W96
//  #08 //043   ----------------------------------------
 BYTE   W96
//  #08 //044   ----------------------------------------
 BYTE   W96
//  #08 //045   ----------------------------------------
 BYTE   W96
//  #08 //046   ----------------------------------------
 BYTE   W96
//  #08 //047   ----------------------------------------
 BYTE   W96
//  #08 //048   ----------------------------------------
 BYTE   W96
//  #08 //049   ----------------------------------------
 BYTE   W96
//  #08 //050   ----------------------------------------
 BYTE   W96
//  #08 //051   ----------------------------------------
 BYTE   W96
//  #08 //052   ----------------------------------------
 BYTE   W96
//  #08 //053   ----------------------------------------
 BYTE   W96
//  #08 //054   ----------------------------------------
 BYTE   W96
//  #08 //055   ----------------------------------------
 BYTE   W96
//  #08 //056   ----------------------------------------
 BYTE   W96
//  #08 //057   ----------------------------------------
 BYTE   W96
//  #08 //058   ----------------------------------------
 BYTE   W96
//  #08 //059   ----------------------------------------
 BYTE   W96
//  #08 //060   ----------------------------------------
 BYTE   W96
//  #08 //061   ----------------------------------------
 BYTE   W96
//  #08 //062   ----------------------------------------
 BYTE   W96
//  #08 //063   ----------------------------------------
 BYTE   W96
//  #08 //064   ----------------------------------------
 BYTE   W96
//  #08 //065   ----------------------------------------
 BYTE   W96
//  #08 //066   ----------------------------------------
 BYTE   W96
//  #08 //067   ----------------------------------------
 BYTE   W96
//  #08 //068   ----------------------------------------
 BYTE   W96
//  #08 //069   ----------------------------------------
 BYTE   W96
//  #08 //070   ----------------------------------------
 BYTE   W96
//  #08 //071   ----------------------------------------
 BYTE   W96
//  #08 //072   ----------------------------------------
 BYTE   W96
//  #08 //073   ----------------------------------------
 BYTE   W96
//  #08 //074   ----------------------------------------
 BYTE   W96
//  #08 //075   ----------------------------------------
 BYTE   W96
//  #08 //076   ----------------------------------------
 BYTE   W96
//  #08 //077   ----------------------------------------
 BYTE   W96
//  #08 //078   ----------------------------------------
 BYTE   W96
//  #08 //079   ----------------------------------------
 BYTE   W96
//  #08 //080   ----------------------------------------
 BYTE   GoTo
  POIN2 Label_017DA6AE
 BYTE   FINE

//**************** Track 9 (Midi-Chn.8) ****************//

DrawntoLifeTheNextChapterSalem_009:
//  #09 //000   ----------------------------------------
 BYTE   KEYSH   DrawntoLifeTheNextChapterSalem_key+0
Label_0192B1BA:
 BYTE   VOICE   20
 BYTE   MODT 0
 BYTE   LFOS 44
 BYTE   VOL   69*DrawntoLifeTheNextChapterSalem_mvl/mxv
 BYTE   TIE  Bn2  v056
 BYTE   N80  En3
 BYTE   TIE  Bn3
 BYTE   N23  En4
 BYTE   W24
 BYTE   Fs4
 BYTE   W24
 BYTE   N32  Gn4
 BYTE   W36
 BYTE   N56  An4
 BYTE   W12
//  #09 //001   ----------------------------------------
Label_0192B1D4:
 BYTE   N92  Ds3  v056
 BYTE   W48
 BYTE   N44  Fs3
 BYTE   N44  Fs4
 BYTE   W48
 BYTE   PEND 
//  #09 //002   ----------------------------------------
Label_0192B1DE:
 BYTE   N92  En3  v056
 BYTE   N92  Gn3
 BYTE   N23  En4
 BYTE   W24
 BYTE   Fs4
 BYTE   W24
 BYTE   N32  Gn4
 BYTE   W36
 BYTE   N44  An4
 BYTE   W12
 BYTE   PEND 
//  #09 //003   ----------------------------------------
Label_0192B1EF:
 BYTE   N92  Ds3  v056
 BYTE   N92  Fs3
 BYTE   W36
 BYTE   N11  Bn4
 BYTE   W12
 BYTE   N44  Fs4
 BYTE   W48
 BYTE   PEND 
//  #09 //004   ----------------------------------------
Label_0192B1FC:
 BYTE   N92  En3  v056
 BYTE   TIE  Gn3
 BYTE   N23  En4
 BYTE   W24
 BYTE   Fs4
 BYTE   W24
 BYTE   N32  Gn4
 BYTE   W32
 BYTE   W03
 BYTE   PEND 
 BYTE   EOT
 BYTE   Bn3
 BYTE   W01
 BYTE   N11  An4
 BYTE   W12
//  #09 //005   ----------------------------------------
Label_0192B211:
 BYTE   N92  Dn3  v056
 BYTE   N44  Bn4
 BYTE   W48
 BYTE   Gn4
 BYTE   W32
 BYTE   W03
 BYTE   PEND 
 BYTE   EOT
 BYTE   Gn3
 BYTE   W12
 BYTE   Bn2
 BYTE   W01
//  #09 //006   ----------------------------------------
Label_0192B220:
 BYTE   TIE  Cn3  v056
 BYTE   N92  En3
 BYTE   N92  An3
 BYTE   N44  An4
 BYTE   W48
 BYTE   En4
 BYTE   W48
 BYTE   PEND 
//  #09 //007   ----------------------------------------
Label_0192B22D:
 BYTE   N92  Ds3  v056
 BYTE   N92  Fs3
 BYTE   N92  Fs4
 BYTE   W92
 BYTE   W03
 BYTE   PEND 
 BYTE   EOT
 BYTE   Cn3
 BYTE   W01
//  #09 //008   ----------------------------------------
Label_0192B23A:
 BYTE   TIE  Bn2  v056
 BYTE   N80  En3
 BYTE   TIE  Bn3
 BYTE   N23  En4
 BYTE   W24
 BYTE   Fs4
 BYTE   W24
 BYTE   N32  Gn4
 BYTE   W36
 BYTE   N56  An4
 BYTE   W12
 BYTE   PEND 
//  #09 //009   ----------------------------------------
 BYTE   PATT
  POIN2 Label_0192B1D4
//  #09 //010   ----------------------------------------
 BYTE   PATT
  POIN2 Label_0192B1DE
//  #09 //011   ----------------------------------------
 BYTE   PATT
  POIN2 Label_0192B1EF
//  #09 //012   ----------------------------------------
 BYTE   PATT
  POIN2 Label_0192B1FC
//  #09 //013   ----------------------------------------
 BYTE   EOT
 BYTE   Bn3
 BYTE   W01
 BYTE   N11  An4  v056
 BYTE   W12
//  #09 //014   ----------------------------------------
 BYTE   PATT
  POIN2 Label_0192B211
//  #09 //015   ----------------------------------------
 BYTE   EOT
 BYTE   Gn3
 BYTE   W12
 BYTE   Bn2
 BYTE   W01
//  #09 //016   ----------------------------------------
 BYTE   PATT
  POIN2 Label_0192B220
//  #09 //017   ----------------------------------------
 BYTE   PATT
  POIN2 Label_0192B22D
//  #09 //018   ----------------------------------------
 BYTE   EOT
 BYTE   Cn3
 BYTE   W01
Label_0192B27F:
 BYTE   N92  Cn3  v056
 BYTE   N92  En3
 BYTE   N92  Gn3
 BYTE   N23  En4
 BYTE   W24
 BYTE   Fs4
 BYTE   W24
 BYTE   N32  Gn4
 BYTE   W36
 BYTE   N56  An4
 BYTE   W12
 BYTE   PEND 
//  #09 //019   ----------------------------------------
Label_0192B292:
 BYTE   N92  Dn3  v056
 BYTE   N92  Fs3
 BYTE   N92  An3
 BYTE   W48
 BYTE   N44  Fs4
 BYTE   W48
 BYTE   PEND 
//  #09 //020   ----------------------------------------
Label_0192B29E:
 BYTE   N92  Ds3  v056
 BYTE   N92  Fs3
 BYTE   TIE  Bn3
 BYTE   N23  Bn4
 BYTE   W24
 BYTE   An4
 BYTE   W24
 BYTE   N32  Bn4
 BYTE   W36
 BYTE   N11  Cn5
 BYTE   W12
 BYTE   PEND 
//  #09 //021   ----------------------------------------
Label_0192B2B1:
 BYTE   N92  En3  v056
 BYTE   N92  Gn3
 BYTE   N44  Bn4
 BYTE   W48
 BYTE   Gn4
 BYTE   W44
 BYTE   W03
 BYTE   PEND 
 BYTE   EOT
 BYTE   Bn3
 BYTE   W01
//  #09 //022   ----------------------------------------
 BYTE   PATT
  POIN2 Label_0192B27F
//  #09 //023   ----------------------------------------
 BYTE   PATT
  POIN2 Label_0192B292
//  #09 //024   ----------------------------------------
 BYTE   PATT
  POIN2 Label_0192B29E
//  #09 //025   ----------------------------------------
 BYTE   N92  En3  v056
 BYTE   N92  Gn3
 BYTE   N44  Bn4
 BYTE   W48
 BYTE   Gn4
 BYTE   W24
 BYTE   N23  Bn4  v060
 BYTE   W23
 BYTE   EOT
 BYTE   Bn3
 BYTE   W01
//  #09 //026   ----------------------------------------
 BYTE   N92  Cn3
 BYTE   N92  Gn3
 BYTE   N68  Cn5
 BYTE   W72
 BYTE   N23  Bn4
 BYTE   W24
//  #09 //027   ----------------------------------------
 BYTE   TIE  Dn3
 BYTE   N92  Fs3
 BYTE   N92  An3
 BYTE   N68  An4
 BYTE   W72
 BYTE   N11  Gn4
 BYTE   W12
 BYTE   An4
 BYTE   W12
//  #09 //028   ----------------------------------------
 BYTE   N44  Gn3
 BYTE   N44  Bn3
 BYTE   N23  Bn4
 BYTE   W24
 BYTE   Cn5
 BYTE   W24
 BYTE   N44  Fs3
 BYTE   N44  An3
 BYTE   N23  An4
 BYTE   W24
 BYTE   Bn4
 BYTE   W23
 BYTE   EOT
 BYTE   Dn3
 BYTE   W01
//  #09 //029   ----------------------------------------
 BYTE   N44  En3
 BYTE   N44  Gn3
 BYTE   N44  Bn3
 BYTE   N44  En4
 BYTE   N44  Gn4
 BYTE   W48
 BYTE   TIE  Bn2
 BYTE   N44  Fs3
 BYTE   N44  Ds4
 BYTE   N44  Fs4
 BYTE   W48
//  #09 //030   ----------------------------------------
 BYTE   N92  En3
 BYTE   N92  Gn3
 BYTE   N11  Bn3
 BYTE   N11  En4
 BYTE   W24
 BYTE   Bn3
 BYTE   N11  Fs4
 BYTE   W24
 BYTE   N44  Bn3
 BYTE   N32  Gn4
 BYTE   W36
 BYTE   N11  An4
 BYTE   W11
 BYTE   EOT
 BYTE   Bn2
 BYTE   W01
//  #09 //031   ----------------------------------------
 BYTE   N92  Cn3
 BYTE   N80  Gn3
 BYTE   N44  An4
 BYTE   W48
 BYTE   En4
 BYTE   W48
//  #09 //032   ----------------------------------------
 BYTE   N92  Dn3
 BYTE   N92  Fs3
 BYTE   N80  An3
 BYTE   N11  Fs4
 BYTE   W24
 BYTE   Gn4
 BYTE   W24
 BYTE   N32  Fs4
 BYTE   W36
 BYTE   N11  Dn4
 BYTE   W12
//  #09 //033   ----------------------------------------
 BYTE   N80  Bn2
 BYTE   N80  En3
 BYTE   N80  Gn3
 BYTE   N80  En4
 BYTE   W96
//  #09 //034   ----------------------------------------
 BYTE   N92  En3  v048
 BYTE   N92  Gn3
 BYTE   TIE  Bn3
 BYTE   N92  En4
 BYTE   W96
//  #09 //035   ----------------------------------------
 BYTE   Ds3
 BYTE   N92  Ds4
 BYTE   W92
 BYTE   W03
 BYTE   EOT
 BYTE   Bn3
 BYTE   W01
//  #09 //036   ----------------------------------------
 BYTE   N92  Dn3
 BYTE   N92  Fs3
 BYTE   TIE  An3
 BYTE   N92  Dn4
 BYTE   W96
//  #09 //037   ----------------------------------------
 BYTE   An2
 BYTE   N92  Cs3
 BYTE   N92  Cs4
 BYTE   W92
 BYTE   W03
 BYTE   EOT
 BYTE   An3
 BYTE   W01
//  #09 //038   ----------------------------------------
 BYTE   TIE  Gn2
 BYTE   N92  Cn3
 BYTE   TIE  Gn3
 BYTE   N92  Cn4
 BYTE   W96
//  #09 //039   ----------------------------------------
 BYTE   Bn2
 BYTE   N92  Bn3
 BYTE   W92
 BYTE   W03
 BYTE   EOT
 BYTE   Gn2  v067
 BYTE   W01
//  #09 //040   ----------------------------------------
 BYTE   N92  An2
 BYTE   N92  En3
 BYTE   N92  An3
 BYTE   N92  Cn4
 BYTE   W96
//  #09 //041   ----------------------------------------
 BYTE   Bn2
 BYTE   N92  Ds3
 BYTE   N92  Bn3
 BYTE   N92  Ds4
 BYTE   W96
//  #09 //042   ----------------------------------------
 BYTE   W96
//  #09 //043   ----------------------------------------
 BYTE   W96
//  #09 //044   ----------------------------------------
 BYTE   W96
//  #09 //045   ----------------------------------------
 BYTE   W96
//  #09 //046   ----------------------------------------
 BYTE   W96
//  #09 //047   ----------------------------------------
 BYTE   W96
//  #09 //048   ----------------------------------------
 BYTE   W96
//  #09 //049   ----------------------------------------
 BYTE   W96
//  #09 //050   ----------------------------------------
 BYTE   N23  En2  v056
 BYTE   N23  Gn2
 BYTE   N23  Bn2
 BYTE   W36
 BYTE   Ds2
 BYTE   N23  Fs2
 BYTE   N23  An2
 BYTE   W36
 BYTE   TIE  Dn2
 BYTE   TIE  Fn2
 BYTE   TIE  Gs2
 BYTE   W24
//  #09 //051   ----------------------------------------
 BYTE   W80
 BYTE   W03
 BYTE   EOT
 BYTE   Dn2  v053
 BYTE   Gs2
 BYTE   W13
//  #09 //052   ----------------------------------------
 BYTE   N23  Dn2
 BYTE   N23  Fn2
 BYTE   N23  Gs2
 BYTE   W36
 BYTE   Ds2
 BYTE   N23  Fs2
 BYTE   N23  An2
 BYTE   W36
 BYTE   TIE  En2
 BYTE   TIE  Gn2
 BYTE   TIE  Bn2
 BYTE   W24
//  #09 //053   ----------------------------------------
 BYTE   W80
 BYTE   W03
 BYTE   EOT
 BYTE   En2  v055
 BYTE   Bn2
 BYTE   W13
//  #09 //054   ----------------------------------------
 BYTE   N23  Ds2
 BYTE   N23  Fs2
 BYTE   N23  Bn2
 BYTE   W36
 BYTE   Dn2
 BYTE   N23  Fn2
 BYTE   N23  As2
 BYTE   W36
 BYTE   TIE  Cn2
 BYTE   TIE  En2
 BYTE   TIE  An2
 BYTE   W24
//  #09 //055   ----------------------------------------
 BYTE   W80
 BYTE   W03
 BYTE   EOT
 BYTE   Cn2  v052
 BYTE   An2
 BYTE   W13
//  #09 //056   ----------------------------------------
 BYTE   N23  Dn2
 BYTE   N23  Gn2
 BYTE   N23  Bn2
 BYTE   W36
 BYTE   Dn2
 BYTE   N23  Fs2
 BYTE   N23  An2
 BYTE   W36
 BYTE   TIE  En2
 BYTE   TIE  Gn2
 BYTE   TIE  Bn2
 BYTE   W24
//  #09 //057   ----------------------------------------
 BYTE   W80
 BYTE   W03
 BYTE   EOT
 BYTE   En2  v055
 BYTE   Bn2
 BYTE   W13
//  #09 //058   ----------------------------------------
 BYTE   PATT
  POIN2 Label_0192B23A
//  #09 //059   ----------------------------------------
 BYTE   PATT
  POIN2 Label_0192B1D4
//  #09 //060   ----------------------------------------
 BYTE   PATT
  POIN2 Label_0192B1DE
//  #09 //061   ----------------------------------------
 BYTE   PATT
  POIN2 Label_0192B1EF
//  #09 //062   ----------------------------------------
 BYTE   PATT
  POIN2 Label_0192B1FC
//  #09 //063   ----------------------------------------
 BYTE   EOT
 BYTE   Bn3
 BYTE   W01
 BYTE   N11  An4  v056
 BYTE   W12
//  #09 //064   ----------------------------------------
 BYTE   PATT
  POIN2 Label_0192B211
//  #09 //065   ----------------------------------------
 BYTE   EOT
 BYTE   Gn3
 BYTE   W12
 BYTE   Bn2
 BYTE   W01
//  #09 //066   ----------------------------------------
 BYTE   PATT
  POIN2 Label_0192B220
//  #09 //067   ----------------------------------------
 BYTE   PATT
  POIN2 Label_0192B22D
//  #09 //068   ----------------------------------------
 BYTE   EOT
 BYTE   Cn3
 BYTE   W01
//  #09 //069   ----------------------------------------
 BYTE   PATT
  POIN2 Label_0192B27F
//  #09 //070   ----------------------------------------
 BYTE   PATT
  POIN2 Label_0192B292
//  #09 //071   ----------------------------------------
 BYTE   PATT
  POIN2 Label_0192B29E
//  #09 //072   ----------------------------------------
 BYTE   PATT
  POIN2 Label_0192B2B1
//  #09 //073   ----------------------------------------
 BYTE   EOT
 BYTE   Bn3
 BYTE   W01
//  #09 //074   ----------------------------------------
 BYTE   PATT
  POIN2 Label_0192B27F
//  #09 //075   ----------------------------------------
 BYTE   PATT
  POIN2 Label_0192B292
//  #09 //076   ----------------------------------------
 BYTE   PATT
  POIN2 Label_0192B29E
//  #09 //077   ----------------------------------------
 BYTE   N92  En3  v056
 BYTE   N92  Gn3
 BYTE   N44  Bn4
 BYTE   W48
 BYTE   Gn4
 BYTE   W24
 BYTE   N23  Bn4
 BYTE   W23
 BYTE   EOT
 BYTE   Bn3
 BYTE   W01
//  #09 //078   ----------------------------------------
 BYTE   TIE  Cn3
 BYTE   TIE  Gn3
 BYTE   TIE  Cn4
 BYTE   TIE  Cn5
 BYTE   W96
//  #09 //079   ----------------------------------------
 BYTE   W44
 BYTE   W03
 BYTE   EOT
 BYTE   Cn3  v067
 BYTE   Cn4  v084
 BYTE   W01
 BYTE   TIE  Dn3
 BYTE   N44  Fs3
 BYTE   N32  An3
 BYTE   N11  Cn5
 BYTE   W12
 BYTE   Bn4
 BYTE   W12
 BYTE   An4
 BYTE   W12
 BYTE   Gn4
 BYTE   W12
//  #09 //080   ----------------------------------------
 BYTE   TIE  Gn3
 BYTE   TIE  Bn3
 BYTE   TIE  Bn4
 BYTE   W96
//  #09 //081   ----------------------------------------
 BYTE   W32
 BYTE   W03
 BYTE   EOT
 BYTE   Bn3
 BYTE   W12
 BYTE   Dn3  v067
 BYTE   Bn4
 BYTE   W01
 BYTE   N32  En3
 BYTE   N23  An3
 BYTE   N32  Cn4
 BYTE   N11  Cn5
 BYTE   W12
 BYTE   N23  Bn4
 BYTE   W12
 BYTE   N11  An4
 BYTE   W12
 BYTE   Gn4
 BYTE   W12
//  #09 //082   ----------------------------------------
 BYTE   TIE  Ds3
 BYTE   TIE  Fs3
 BYTE   TIE  Fs4
 BYTE   W96
//  #09 //083   ----------------------------------------
 BYTE   W48
 BYTE   N11  Bn4
 BYTE   W11
 BYTE   EOT
 BYTE   Fs4
 BYTE   W01
 BYTE   N11  An4
 BYTE   W12
 BYTE   Gn4
 BYTE   W11
 BYTE   EOT
 BYTE   Ds3  v066
 BYTE   W01
 BYTE   N11  Fs4
 BYTE   W12
//  #09 //084   ----------------------------------------
 BYTE   TIE  En3
 BYTE   TIE  Gn3
 BYTE   TIE  Bn3
 BYTE   TIE  Gn4
 BYTE   W96
//  #09 //085   ----------------------------------------
 BYTE   W92
 BYTE   W03
 BYTE   EOT
 BYTE   En3  v067
 BYTE   Bn3  v079
 BYTE   W01
//  #09 //086   ----------------------------------------
 BYTE   GoTo
  POIN2 Label_0192B1BA
 BYTE   FINE

//**************** Track 10 (Midi-Chn.9) ****************//

DrawntoLifeTheNextChapterSalem_010:
//  #10 //000   ----------------------------------------
 BYTE   KEYSH   DrawntoLifeTheNextChapterSalem_key+0
Label_017DAA86:
 BYTE   VOICE   74
 BYTE   MODT 0
 BYTE   LFOS 44
 BYTE   VOL   74*DrawntoLifeTheNextChapterSalem_mvl/mxv
 BYTE   PAN   c_v+26
 BYTE   W96
//  #10 //001   ----------------------------------------
 BYTE   W96
//  #10 //002   ----------------------------------------
 BYTE   W96
//  #10 //003   ----------------------------------------
 BYTE   W96
//  #10 //004   ----------------------------------------
 BYTE   N92  En2  v056
 BYTE   W96
//  #10 //005   ----------------------------------------
 BYTE   Gn2
 BYTE   W96
//  #10 //006   ----------------------------------------
 BYTE   An2
 BYTE   W96
//  #10 //007   ----------------------------------------
 BYTE   N80  Bn2
 BYTE   W84
 BYTE   N05  Bn3  v040
 BYTE   W06
 BYTE   Ds4
 BYTE   W06
//  #10 //008   ----------------------------------------
 BYTE   N11  En4
 BYTE   W96
//  #10 //009   ----------------------------------------
 BYTE   W96
//  #10 //010   ----------------------------------------
 BYTE   W96
//  #10 //011   ----------------------------------------
 BYTE   W96
//  #10 //012   ----------------------------------------
 BYTE   W96
//  #10 //013   ----------------------------------------
 BYTE   W96
//  #10 //014   ----------------------------------------
 BYTE   W96
//  #10 //015   ----------------------------------------
 BYTE   W96
//  #10 //016   ----------------------------------------
 BYTE   W96
//  #10 //017   ----------------------------------------
 BYTE   W96
//  #10 //018   ----------------------------------------
 BYTE   W96
//  #10 //019   ----------------------------------------
 BYTE   W96
//  #10 //020   ----------------------------------------
 BYTE   W96
//  #10 //021   ----------------------------------------
 BYTE   W72
 BYTE   N07  Gn4  v076
 BYTE   W12
 BYTE   N06  Fs4
 BYTE   W12
//  #10 //022   ----------------------------------------
 BYTE   N11  Bn4
 BYTE   W24
 BYTE   N09  En4
 BYTE   W24
 BYTE   Bn3
 BYTE   W24
 BYTE   N08  An3  v072
 BYTE   W24
//  #10 //023   ----------------------------------------
 BYTE   N06  Gn3
 BYTE   W12
 BYTE   N07
 BYTE   W12
 BYTE   N10  An3
 BYTE   W24
 BYTE   Bn3
 BYTE   W48
//  #10 //024   ----------------------------------------
 BYTE   W96
//  #10 //025   ----------------------------------------
 BYTE   W96
//  #10 //026   ----------------------------------------
 BYTE   W96
//  #10 //027   ----------------------------------------
 BYTE   W96
//  #10 //028   ----------------------------------------
 BYTE   W96
//  #10 //029   ----------------------------------------
 BYTE   W96
//  #10 //030   ----------------------------------------
 BYTE   W96
//  #10 //031   ----------------------------------------
 BYTE   W72
 BYTE   N11  En4
 BYTE   W12
 BYTE   Fs4
 BYTE   W12
//  #10 //032   ----------------------------------------
Label_017DAADF:
 BYTE   N68  Gn4  v072
 BYTE   W72
 BYTE   N11  An4
 BYTE   W12
 BYTE   Gn4
 BYTE   W12
 BYTE   PEND 
//  #10 //033   ----------------------------------------
 BYTE   W12
 BYTE   Fs4
 BYTE   W24
 BYTE   N23  En4
 BYTE   W36
 BYTE   N11
 BYTE   W12
 BYTE   Fs4
 BYTE   W12
//  #10 //034   ----------------------------------------
 BYTE   Gn4
 BYTE   W24
 BYTE   En4
 BYTE   W24
 BYTE   N23  Gn4
 BYTE   W24
 BYTE   N11  Bn4
 BYTE   W12
 BYTE   N44
 BYTE   W12
//  #10 //035   ----------------------------------------
 BYTE   W36
 BYTE   N32  An4
 BYTE   W36
 BYTE   N11  En4
 BYTE   W12
 BYTE   Fs4
 BYTE   W12
//  #10 //036   ----------------------------------------
 BYTE   PATT
  POIN2 Label_017DAADF
//  #10 //037   ----------------------------------------
 BYTE   W12
 BYTE   N11  Fs4  v072
 BYTE   W24
 BYTE   N32  En4
 BYTE   W36
 BYTE   N23  Dn4
 BYTE   W24
//  #10 //038   ----------------------------------------
 BYTE   N68  En4
 BYTE   W72
 BYTE   N23  Gn4
 BYTE   W24
//  #10 //039   ----------------------------------------
 BYTE   N92  Fs4
 BYTE   W96
//  #10 //040   ----------------------------------------
 BYTE   N11  En4
 BYTE   W96
//  #10 //041   ----------------------------------------
 BYTE   W96
//  #10 //042   ----------------------------------------
 BYTE   W96
//  #10 //043   ----------------------------------------
 BYTE   W96
//  #10 //044   ----------------------------------------
 BYTE   W96
//  #10 //045   ----------------------------------------
 BYTE   W96
//  #10 //046   ----------------------------------------
 BYTE   W96
//  #10 //047   ----------------------------------------
 BYTE   W96
//  #10 //048   ----------------------------------------
 BYTE   W96
//  #10 //049   ----------------------------------------
 BYTE   W96
//  #10 //050   ----------------------------------------
 BYTE   W96
//  #10 //051   ----------------------------------------
 BYTE   W96
//  #10 //052   ----------------------------------------
 BYTE   W96
//  #10 //053   ----------------------------------------
 BYTE   W96
//  #10 //054   ----------------------------------------
 BYTE   W96
//  #10 //055   ----------------------------------------
 BYTE   W96
//  #10 //056   ----------------------------------------
 BYTE   W96
//  #10 //057   ----------------------------------------
 BYTE   W96
//  #10 //058   ----------------------------------------
 BYTE   W96
//  #10 //059   ----------------------------------------
 BYTE   W96
//  #10 //060   ----------------------------------------
 BYTE   W96
//  #10 //061   ----------------------------------------
 BYTE   W96
//  #10 //062   ----------------------------------------
 BYTE   W96
//  #10 //063   ----------------------------------------
 BYTE   W96
//  #10 //064   ----------------------------------------
 BYTE   W96
//  #10 //065   ----------------------------------------
 BYTE   W96
//  #10 //066   ----------------------------------------
 BYTE   W96
//  #10 //067   ----------------------------------------
 BYTE   W96
//  #10 //068   ----------------------------------------
 BYTE   W96
//  #10 //069   ----------------------------------------
 BYTE   W96
//  #10 //070   ----------------------------------------
 BYTE   W96
//  #10 //071   ----------------------------------------
 BYTE   W96
//  #10 //072   ----------------------------------------
 BYTE   TIE  Cn3  v052
 BYTE   W96
//  #10 //073   ----------------------------------------
 BYTE   W44
 BYTE   W03
 BYTE   EOT
 BYTE   W01
 BYTE   N44  Dn3
 BYTE   W48
//  #10 //074   ----------------------------------------
 BYTE   TIE  Gn3
 BYTE   W96
//  #10 //075   ----------------------------------------
 BYTE   W44
 BYTE   W03
 BYTE   EOT
 BYTE   W01
 BYTE   N44  An3
 BYTE   W48
//  #10 //076   ----------------------------------------
 BYTE   TIE  Fs3
 BYTE   W96
//  #10 //077   ----------------------------------------
 BYTE   W44
 BYTE   W03
 BYTE   EOT
 BYTE   W01
 BYTE   N44  Ds3
 BYTE   W48
//  #10 //078   ----------------------------------------
 BYTE   TIE  En3
 BYTE   W96
//  #10 //079   ----------------------------------------
 BYTE   W92
 BYTE   W03
 BYTE   EOT
 BYTE   W01
//  #10 //080   ----------------------------------------
 BYTE   GoTo
  POIN2 Label_017DAA86
 BYTE   FINE

//**************** Track 11 (Midi-Chn.10) ****************//

DrawntoLifeTheNextChapterSalem_011:
//  #11 //000   ----------------------------------------
 BYTE   KEYSH   DrawntoLifeTheNextChapterSalem_key+0
Label_017DAB72:
 BYTE   VOICE   14
 BYTE   MODT 0
 BYTE   LFOS 44
 BYTE   PAN   c_v-1
 BYTE   VOL   46*DrawntoLifeTheNextChapterSalem_mvl/mxv
 BYTE   W96
//  #11 //001   ----------------------------------------
 BYTE   W96
//  #11 //002   ----------------------------------------
 BYTE   W96
//  #11 //003   ----------------------------------------
 BYTE   W96
//  #11 //004   ----------------------------------------
 BYTE   W96
//  #11 //005   ----------------------------------------
 BYTE   W96
//  #11 //006   ----------------------------------------
 BYTE   W96
//  #11 //007   ----------------------------------------
 BYTE   W96
//  #11 //008   ----------------------------------------
 BYTE   W96
//  #11 //009   ----------------------------------------
 BYTE   W96
//  #11 //010   ----------------------------------------
 BYTE   W96
//  #11 //011   ----------------------------------------
 BYTE   W96
//  #11 //012   ----------------------------------------
 BYTE   W96
//  #11 //013   ----------------------------------------
 BYTE   W96
//  #11 //014   ----------------------------------------
 BYTE   W96
//  #11 //015   ----------------------------------------
 BYTE   W96
//  #11 //016   ----------------------------------------
 BYTE   W96
//  #11 //017   ----------------------------------------
 BYTE   W96
//  #11 //018   ----------------------------------------
 BYTE   W96
//  #11 //019   ----------------------------------------
 BYTE   W96
//  #11 //020   ----------------------------------------
 BYTE   W96
//  #11 //021   ----------------------------------------
 BYTE   W96
//  #11 //022   ----------------------------------------
 BYTE   W96
//  #11 //023   ----------------------------------------
 BYTE   W96
//  #11 //024   ----------------------------------------
 BYTE   W96
//  #11 //025   ----------------------------------------
 BYTE   W96
//  #11 //026   ----------------------------------------
 BYTE   W96
//  #11 //027   ----------------------------------------
 BYTE   W96
//  #11 //028   ----------------------------------------
 BYTE   W96
//  #11 //029   ----------------------------------------
 BYTE   W96
//  #11 //030   ----------------------------------------
 BYTE   W96
//  #11 //031   ----------------------------------------
 BYTE   W96
//  #11 //032   ----------------------------------------
 BYTE   W96
//  #11 //033   ----------------------------------------
 BYTE   W96
//  #11 //034   ----------------------------------------
 BYTE   W96
//  #11 //035   ----------------------------------------
 BYTE   W96
//  #11 //036   ----------------------------------------
 BYTE   W96
//  #11 //037   ----------------------------------------
 BYTE   W96
//  #11 //038   ----------------------------------------
 BYTE   W96
//  #11 //039   ----------------------------------------
 BYTE   W96
//  #11 //040   ----------------------------------------
 BYTE   W96
//  #11 //041   ----------------------------------------
 BYTE   W96
//  #11 //042   ----------------------------------------
 BYTE   W96
//  #11 //043   ----------------------------------------
 BYTE   W96
//  #11 //044   ----------------------------------------
 BYTE   W96
//  #11 //045   ----------------------------------------
 BYTE   W96
//  #11 //046   ----------------------------------------
 BYTE   W96
//  #11 //047   ----------------------------------------
 BYTE   W96
//  #11 //048   ----------------------------------------
 BYTE   W96
//  #11 //049   ----------------------------------------
 BYTE   W96
//  #11 //050   ----------------------------------------
 BYTE   W96
//  #11 //051   ----------------------------------------
 BYTE   W96
//  #11 //052   ----------------------------------------
 BYTE   W96
//  #11 //053   ----------------------------------------
 BYTE   W96
//  #11 //054   ----------------------------------------
 BYTE   N22  Gn5  v068
 BYTE   W36
 BYTE   N17  Fs5
 BYTE   W36
 BYTE   N40  En5
 BYTE   W24
//  #11 //055   ----------------------------------------
 BYTE   W36
 BYTE   W03
 BYTE   N17  En5  v052
 BYTE   W03
 BYTE   N24  Gn5
 BYTE   W03
 BYTE   Bn5
 BYTE   W03
 BYTE   N48  En6
 BYTE   W48
//  #11 //056   ----------------------------------------
 BYTE   W96
//  #11 //057   ----------------------------------------
 BYTE   W96
//  #11 //058   ----------------------------------------
 BYTE   W96
//  #11 //059   ----------------------------------------
 BYTE   W96
//  #11 //060   ----------------------------------------
 BYTE   W96
//  #11 //061   ----------------------------------------
 BYTE   W96
//  #11 //062   ----------------------------------------
 BYTE   W96
//  #11 //063   ----------------------------------------
 BYTE   W96
//  #11 //064   ----------------------------------------
 BYTE   W96
//  #11 //065   ----------------------------------------
 BYTE   W96
//  #11 //066   ----------------------------------------
 BYTE   W96
//  #11 //067   ----------------------------------------
 BYTE   W96
//  #11 //068   ----------------------------------------
 BYTE   W96
//  #11 //069   ----------------------------------------
 BYTE   W96
//  #11 //070   ----------------------------------------
 BYTE   W96
//  #11 //071   ----------------------------------------
 BYTE   W96
//  #11 //072   ----------------------------------------
 BYTE   W48
 BYTE   N11  En5  v068
 BYTE   N11  Gn5
 BYTE   W24
 BYTE   Dn5
 BYTE   N11  Fs5
 BYTE   W24
//  #11 //073   ----------------------------------------
 BYTE   Cn5
 BYTE   N11  En5
 BYTE   W96
//  #11 //074   ----------------------------------------
 BYTE   W48
 BYTE   Bn4
 BYTE   N11  Dn5
 BYTE   W24
 BYTE   An4
 BYTE   N11  Cn5
 BYTE   W24
//  #11 //075   ----------------------------------------
 BYTE   Gn4
 BYTE   N11  Bn4
 BYTE   W96
//  #11 //076   ----------------------------------------
 BYTE   W48
 BYTE   Bn4  v064
 BYTE   N11  Ds5
 BYTE   W24
 BYTE   An4
 BYTE   N11  Cn5
 BYTE   W24
//  #11 //077   ----------------------------------------
 BYTE   N23  Fs4
 BYTE   N23  Bn4
 BYTE   W96
//  #11 //078   ----------------------------------------
 BYTE   W48
 BYTE   N11  Gn4
 BYTE   N11  Bn4
 BYTE   W24
 BYTE   Fs4
 BYTE   N11  An4
 BYTE   W24
//  #11 //079   ----------------------------------------
 BYTE   N23  En4
 BYTE   N23  Gn4
 BYTE   W48
 BYTE   N32  Bn3
 BYTE   N32  En4
 BYTE   W48
//  #11 //080   ----------------------------------------
 BYTE   GoTo
  POIN2 Label_017DAB72
 BYTE   FINE

//**************** Track 12 (Midi-Chn.11) ****************//

DrawntoLifeTheNextChapterSalem_012:
//  #12 //000   ----------------------------------------
 BYTE   KEYSH   DrawntoLifeTheNextChapterSalem_key+0
Label_017DAC22:
 BYTE   VOICE   11
 BYTE   MODT 0
 BYTE   LFOS 44
 BYTE   VOL   82*DrawntoLifeTheNextChapterSalem_mvl/mxv
 BYTE   W96
//  #12 //001   ----------------------------------------
 BYTE   W96
//  #12 //002   ----------------------------------------
 BYTE   W96
//  #12 //003   ----------------------------------------
 BYTE   W96
//  #12 //004   ----------------------------------------
 BYTE   N08  Gn4  v040
 BYTE   W12
 BYTE   Bn3
 BYTE   W12
 BYTE   En4
 BYTE   W12
 BYTE   N07  Bn3
 BYTE   W12
 BYTE   N08  Gn4
 BYTE   W12
 BYTE   N10  Bn3
 BYTE   W12
 BYTE   En4
 BYTE   W12
 BYTE   N08  Bn3
 BYTE   W12
//  #12 //005   ----------------------------------------
 BYTE   Gn4
 BYTE   W12
 BYTE   Bn3
 BYTE   W12
 BYTE   Dn4
 BYTE   W12
 BYTE   Bn3
 BYTE   W12
 BYTE   Gn4
 BYTE   W12
 BYTE   N09  Bn3
 BYTE   W12
 BYTE   Dn4
 BYTE   W12
 BYTE   N07  Bn3
 BYTE   W12
//  #12 //006   ----------------------------------------
 BYTE   N09  An4
 BYTE   W12
 BYTE   Cn4
 BYTE   W12
 BYTE   N07  En4
 BYTE   W12
 BYTE   Cn4
 BYTE   W12
 BYTE   An4  v044
 BYTE   W12
 BYTE   N08  Cn4
 BYTE   W12
 BYTE   N09  En4
 BYTE   W12
 BYTE   N08  Cn4
 BYTE   W12
//  #12 //007   ----------------------------------------
 BYTE   N07  Fs4
 BYTE   W12
 BYTE   N08  Bn3
 BYTE   W12
 BYTE   Ds4
 BYTE   W12
 BYTE   Bn3
 BYTE   W12
 BYTE   N07  Fs4
 BYTE   W12
 BYTE   N08  Bn3
 BYTE   W12
 BYTE   N09  Ds4
 BYTE   W12
 BYTE   N08  Bn3
 BYTE   W12
//  #12 //008   ----------------------------------------
 BYTE   Gn4
 BYTE   W12
 BYTE   N07  Bn3  v048
 BYTE   W12
 BYTE   En4
 BYTE   W12
 BYTE   Bn3
 BYTE   W12
 BYTE   Gn4
 BYTE   W12
 BYTE   Bn3
 BYTE   W12
 BYTE   N08  En4
 BYTE   W12
 BYTE   Bn3
 BYTE   W12
//  #12 //009   ----------------------------------------
 BYTE   Fs4  v052
 BYTE   W12
 BYTE   Bn3
 BYTE   W12
 BYTE   N07  Ds4
 BYTE   W12
 BYTE   Bn3
 BYTE   W12
 BYTE   N08  Fs4
 BYTE   W12
 BYTE   N09  Bn3
 BYTE   W12
 BYTE   N08  Ds4
 BYTE   W12
 BYTE   Bn3
 BYTE   W12
//  #12 //010   ----------------------------------------
 BYTE   N07  Gn4
 BYTE   W12
 BYTE   Bn3
 BYTE   W12
 BYTE   En4
 BYTE   W12
 BYTE   N06  Bn3
 BYTE   W12
 BYTE   N07  Gn4
 BYTE   W12
 BYTE   Bn3
 BYTE   W12
 BYTE   N08  En4
 BYTE   W12
 BYTE   N07  Bn3
 BYTE   W12
//  #12 //011   ----------------------------------------
 BYTE   Fs4
 BYTE   W12
 BYTE   Bn3
 BYTE   W12
 BYTE   Ds4
 BYTE   W12
 BYTE   Bn3
 BYTE   W12
 BYTE   N06  Fs4
 BYTE   W12
 BYTE   N08  Bn3
 BYTE   W12
 BYTE   N07  Ds4
 BYTE   W12
 BYTE   N08  Bn3
 BYTE   W12
//  #12 //012   ----------------------------------------
 BYTE   N07  Gn4
 BYTE   W12
 BYTE   Bn3
 BYTE   W12
 BYTE   En4
 BYTE   W12
 BYTE   N06  Bn3
 BYTE   W12
 BYTE   N08  Gn4
 BYTE   W12
 BYTE   Bn3
 BYTE   W12
 BYTE   N09  En4
 BYTE   W12
 BYTE   N07  Bn3
 BYTE   W12
//  #12 //013   ----------------------------------------
 BYTE   Gn4
 BYTE   W12
 BYTE   Bn3
 BYTE   W12
 BYTE   N08  Dn4
 BYTE   W12
 BYTE   N07  Bn3
 BYTE   W12
 BYTE   Gn4
 BYTE   W12
 BYTE   N08  Bn3  v048
 BYTE   W12
 BYTE   N07  Dn4
 BYTE   W12
 BYTE   N08  Bn3
 BYTE   W12
//  #12 //014   ----------------------------------------
 BYTE   N07  An4
 BYTE   W12
 BYTE   N06  Cn4  v044
 BYTE   W12
 BYTE   N07  En4
 BYTE   W12
 BYTE   N08  Cn4
 BYTE   W12
 BYTE   An4  v040
 BYTE   W12
 BYTE   Cn4  v036
 BYTE   W12
 BYTE   N09  En4
 BYTE   W12
 BYTE   N08  Cn4  v032
 BYTE   W12
//  #12 //015   ----------------------------------------
 BYTE   N07  Fs4
 BYTE   W12
 BYTE   N09  Bn3  v028
 BYTE   W12
 BYTE   N07  Ds4
 BYTE   W12
 BYTE   N08  Bn3  v024
 BYTE   W12
 BYTE   Fs4
 BYTE   W12
 BYTE   N09  Bn3  v020
 BYTE   W12
 BYTE   N07  Ds4
 BYTE   W12
 BYTE   N08  Bn3  v016
 BYTE   W12
//  #12 //016   ----------------------------------------
 BYTE   N21  En4  v012
 BYTE   W96
//  #12 //017   ----------------------------------------
 BYTE   W96
//  #12 //018   ----------------------------------------
 BYTE   W96
//  #12 //019   ----------------------------------------
 BYTE   W96
//  #12 //020   ----------------------------------------
 BYTE   W96
//  #12 //021   ----------------------------------------
 BYTE   W96
//  #12 //022   ----------------------------------------
 BYTE   W96
//  #12 //023   ----------------------------------------
 BYTE   W96
//  #12 //024   ----------------------------------------
 BYTE   W96
//  #12 //025   ----------------------------------------
 BYTE   W96
//  #12 //026   ----------------------------------------
 BYTE   W96
//  #12 //027   ----------------------------------------
 BYTE   W96
//  #12 //028   ----------------------------------------
 BYTE   W96
//  #12 //029   ----------------------------------------
 BYTE   W96
//  #12 //030   ----------------------------------------
 BYTE   W96
//  #12 //031   ----------------------------------------
 BYTE   W96
//  #12 //032   ----------------------------------------
 BYTE   W96
//  #12 //033   ----------------------------------------
 BYTE   W96
//  #12 //034   ----------------------------------------
 BYTE   W96
//  #12 //035   ----------------------------------------
 BYTE   W96
//  #12 //036   ----------------------------------------
 BYTE   W96
//  #12 //037   ----------------------------------------
 BYTE   W96
//  #12 //038   ----------------------------------------
 BYTE   W96
//  #12 //039   ----------------------------------------
 BYTE   W96
//  #12 //040   ----------------------------------------
 BYTE   W96
//  #12 //041   ----------------------------------------
 BYTE   W96
//  #12 //042   ----------------------------------------
 BYTE   W96
//  #12 //043   ----------------------------------------
 BYTE   W96
//  #12 //044   ----------------------------------------
 BYTE   W96
//  #12 //045   ----------------------------------------
 BYTE   W96
//  #12 //046   ----------------------------------------
 BYTE   W96
//  #12 //047   ----------------------------------------
 BYTE   W96
//  #12 //048   ----------------------------------------
 BYTE   W96
//  #12 //049   ----------------------------------------
 BYTE   W96
//  #12 //050   ----------------------------------------
 BYTE   W96
//  #12 //051   ----------------------------------------
 BYTE   W96
//  #12 //052   ----------------------------------------
 BYTE   W96
//  #12 //053   ----------------------------------------
 BYTE   W96
//  #12 //054   ----------------------------------------
 BYTE   W96
//  #12 //055   ----------------------------------------
 BYTE   W96
//  #12 //056   ----------------------------------------
 BYTE   W96
//  #12 //057   ----------------------------------------
 BYTE   W96
//  #12 //058   ----------------------------------------
 BYTE   W96
//  #12 //059   ----------------------------------------
 BYTE   W96
//  #12 //060   ----------------------------------------
 BYTE   W96
//  #12 //061   ----------------------------------------
 BYTE   W96
//  #12 //062   ----------------------------------------
 BYTE   W96
//  #12 //063   ----------------------------------------
 BYTE   W96
//  #12 //064   ----------------------------------------
 BYTE   W96
//  #12 //065   ----------------------------------------
 BYTE   W96
//  #12 //066   ----------------------------------------
 BYTE   W96
//  #12 //067   ----------------------------------------
 BYTE   W96
//  #12 //068   ----------------------------------------
 BYTE   W96
//  #12 //069   ----------------------------------------
 BYTE   W96
//  #12 //070   ----------------------------------------
 BYTE   W96
//  #12 //071   ----------------------------------------
 BYTE   W96
//  #12 //072   ----------------------------------------
 BYTE   W96
//  #12 //073   ----------------------------------------
 BYTE   W96
//  #12 //074   ----------------------------------------
 BYTE   W96
//  #12 //075   ----------------------------------------
 BYTE   W96
//  #12 //076   ----------------------------------------
 BYTE   W96
//  #12 //077   ----------------------------------------
 BYTE   W96
//  #12 //078   ----------------------------------------
 BYTE   N40  Fs3  v064
 BYTE   W48
 BYTE   N23  Gn3  v068
 BYTE   W48
//  #12 //079   ----------------------------------------
 BYTE   N30  En3  v060
 BYTE   W96
//  #12 //080   ----------------------------------------
 BYTE   GoTo
  POIN2 Label_017DAC22
 BYTE   FINE

//**************** Track 13 (Midi-Chn.12) ****************//

DrawntoLifeTheNextChapterSalem_013:
//  #13 //000   ----------------------------------------
 BYTE   KEYSH   DrawntoLifeTheNextChapterSalem_key+0
Label_56AA9E:
 BYTE   VOICE   61
 BYTE   MODT 0
 BYTE   LFOS 44
 BYTE   VOL   86*DrawntoLifeTheNextChapterSalem_mvl/mxv
 BYTE   PAN   c_v-17
 BYTE   W96
//  #13 //001   ----------------------------------------
 BYTE   W96
//  #13 //002   ----------------------------------------
 BYTE   W96
//  #13 //003   ----------------------------------------
 BYTE   W96
//  #13 //004   ----------------------------------------
 BYTE   W96
//  #13 //005   ----------------------------------------
 BYTE   W96
//  #13 //006   ----------------------------------------
 BYTE   W96
//  #13 //007   ----------------------------------------
 BYTE   W96
//  #13 //008   ----------------------------------------
 BYTE   W96
//  #13 //009   ----------------------------------------
 BYTE   W96
//  #13 //010   ----------------------------------------
 BYTE   W96
//  #13 //011   ----------------------------------------
 BYTE   W96
//  #13 //012   ----------------------------------------
 BYTE   W96
//  #13 //013   ----------------------------------------
 BYTE   W96
//  #13 //014   ----------------------------------------
 BYTE   W96
//  #13 //015   ----------------------------------------
 BYTE   W96
//  #13 //016   ----------------------------------------
 BYTE   W96
//  #13 //017   ----------------------------------------
 BYTE   W96
//  #13 //018   ----------------------------------------
 BYTE   W96
//  #13 //019   ----------------------------------------
 BYTE   W96
//  #13 //020   ----------------------------------------
 BYTE   W96
//  #13 //021   ----------------------------------------
 BYTE   W96
//  #13 //022   ----------------------------------------
 BYTE   W96
//  #13 //023   ----------------------------------------
 BYTE   W96
//  #13 //024   ----------------------------------------
 BYTE   W96
//  #13 //025   ----------------------------------------
 BYTE   W96
//  #13 //026   ----------------------------------------
 BYTE   W96
//  #13 //027   ----------------------------------------
 BYTE   W96
//  #13 //028   ----------------------------------------
 BYTE   W96
//  #13 //029   ----------------------------------------
 BYTE   W72
 BYTE   N11  Gn3  v048
 BYTE   W12
 BYTE   An3
 BYTE   W12
//  #13 //030   ----------------------------------------
 BYTE   Bn3
 BYTE   W24
 BYTE   An3
 BYTE   W24
 BYTE   N32  Gn3
 BYTE   W36
 BYTE   N11  Fs3
 BYTE   W12
//  #13 //031   ----------------------------------------
 BYTE   N92  En3
 BYTE   W96
//  #13 //032   ----------------------------------------
 BYTE   W96
//  #13 //033   ----------------------------------------
 BYTE   W96
//  #13 //034   ----------------------------------------
 BYTE   W96
//  #13 //035   ----------------------------------------
 BYTE   W96
//  #13 //036   ----------------------------------------
 BYTE   W96
//  #13 //037   ----------------------------------------
 BYTE   W96
//  #13 //038   ----------------------------------------
 BYTE   W96
//  #13 //039   ----------------------------------------
 BYTE   W96
//  #13 //040   ----------------------------------------
 BYTE   W96
//  #13 //041   ----------------------------------------
 BYTE   W96
//  #13 //042   ----------------------------------------
 BYTE   W96
//  #13 //043   ----------------------------------------
 BYTE   W96
//  #13 //044   ----------------------------------------
 BYTE   W96
//  #13 //045   ----------------------------------------
 BYTE   W96
//  #13 //046   ----------------------------------------
 BYTE   W96
//  #13 //047   ----------------------------------------
 BYTE   W96
//  #13 //048   ----------------------------------------
 BYTE   W96
//  #13 //049   ----------------------------------------
 BYTE   W96
//  #13 //050   ----------------------------------------
 BYTE   W96
//  #13 //051   ----------------------------------------
 BYTE   W96
//  #13 //052   ----------------------------------------
 BYTE   W96
//  #13 //053   ----------------------------------------
 BYTE   W96
//  #13 //054   ----------------------------------------
 BYTE   W96
//  #13 //055   ----------------------------------------
 BYTE   W96
//  #13 //056   ----------------------------------------
 BYTE   W96
//  #13 //057   ----------------------------------------
 BYTE   W96
//  #13 //058   ----------------------------------------
 BYTE   W96
//  #13 //059   ----------------------------------------
 BYTE   W96
//  #13 //060   ----------------------------------------
 BYTE   W96
//  #13 //061   ----------------------------------------
 BYTE   W96
//  #13 //062   ----------------------------------------
 BYTE   W96
//  #13 //063   ----------------------------------------
 BYTE   W96
//  #13 //064   ----------------------------------------
 BYTE   W96
//  #13 //065   ----------------------------------------
 BYTE   W96
//  #13 //066   ----------------------------------------
 BYTE   W96
//  #13 //067   ----------------------------------------
 BYTE   W96
//  #13 //068   ----------------------------------------
 BYTE   W96
//  #13 //069   ----------------------------------------
 BYTE   W96
//  #13 //070   ----------------------------------------
 BYTE   W96
//  #13 //071   ----------------------------------------
 BYTE   W96
//  #13 //072   ----------------------------------------
 BYTE   W96
//  #13 //073   ----------------------------------------
 BYTE   W96
//  #13 //074   ----------------------------------------
 BYTE   W96
//  #13 //075   ----------------------------------------
 BYTE   W96
//  #13 //076   ----------------------------------------
 BYTE   W96
//  #13 //077   ----------------------------------------
 BYTE   W96
//  #13 //078   ----------------------------------------
 BYTE   W96
//  #13 //079   ----------------------------------------
 BYTE   W96
//  #13 //080   ----------------------------------------
 BYTE   GoTo
  POIN2 Label_56AA9E
 BYTE   FINE

//**************** Track 14 (Midi-Chn.13) ****************//

DrawntoLifeTheNextChapterSalem_014:
//  #14 //000   ----------------------------------------
 BYTE   KEYSH   DrawntoLifeTheNextChapterSalem_key+0
Label_017DAD8A:
 BYTE   VOICE   30
 BYTE   MODT 0
 BYTE   LFOS 44
 BYTE   VOL   60*DrawntoLifeTheNextChapterSalem_mvl/mxv
 BYTE   W96
//  #14 //001   ----------------------------------------
 BYTE   W96
//  #14 //002   ----------------------------------------
 BYTE   W96
//  #14 //003   ----------------------------------------
 BYTE   W96
//  #14 //004   ----------------------------------------
 BYTE   W96
//  #14 //005   ----------------------------------------
 BYTE   W96
//  #14 //006   ----------------------------------------
 BYTE   W96
//  #14 //007   ----------------------------------------
 BYTE   W96
//  #14 //008   ----------------------------------------
 BYTE   W96
//  #14 //009   ----------------------------------------
 BYTE   W96
//  #14 //010   ----------------------------------------
 BYTE   W96
//  #14 //011   ----------------------------------------
 BYTE   W96
//  #14 //012   ----------------------------------------
 BYTE   W96
//  #14 //013   ----------------------------------------
 BYTE   W96
//  #14 //014   ----------------------------------------
 BYTE   W96
//  #14 //015   ----------------------------------------
 BYTE   W96
//  #14 //016   ----------------------------------------
 BYTE   W96
//  #14 //017   ----------------------------------------
 BYTE   W96
//  #14 //018   ----------------------------------------
 BYTE   W96
//  #14 //019   ----------------------------------------
 BYTE   W96
//  #14 //020   ----------------------------------------
 BYTE   W96
//  #14 //021   ----------------------------------------
 BYTE   W96
//  #14 //022   ----------------------------------------
 BYTE   W96
//  #14 //023   ----------------------------------------
 BYTE   W96
//  #14 //024   ----------------------------------------
 BYTE   W96
//  #14 //025   ----------------------------------------
 BYTE   W96
//  #14 //026   ----------------------------------------
 BYTE   W96
//  #14 //027   ----------------------------------------
 BYTE   W96
//  #14 //028   ----------------------------------------
 BYTE   W96
//  #14 //029   ----------------------------------------
 BYTE   W96
//  #14 //030   ----------------------------------------
 BYTE   W96
//  #14 //031   ----------------------------------------
 BYTE   W96
//  #14 //032   ----------------------------------------
 BYTE   W96
//  #14 //033   ----------------------------------------
 BYTE   W96
//  #14 //034   ----------------------------------------
 BYTE   W96
//  #14 //035   ----------------------------------------
 BYTE   W96
//  #14 //036   ----------------------------------------
 BYTE   N11  Cn2  v052
 BYTE   W24
 BYTE   N11
 BYTE   W24
 BYTE   N11
 BYTE   W24
 BYTE   N11
 BYTE   W12
 BYTE   N11
 BYTE   W12
//  #14 //037   ----------------------------------------
 BYTE   Gn2
 BYTE   W24
 BYTE   N11
 BYTE   W24
 BYTE   N11
 BYTE   W24
 BYTE   N11
 BYTE   W12
 BYTE   N11
 BYTE   W12
//  #14 //038   ----------------------------------------
 BYTE   An2
 BYTE   W24
 BYTE   N11
 BYTE   W24
 BYTE   N11
 BYTE   W24
 BYTE   N11
 BYTE   W12
 BYTE   N11
 BYTE   W12
//  #14 //039   ----------------------------------------
 BYTE   Bn2
 BYTE   W24
 BYTE   N11
 BYTE   W24
 BYTE   N11
 BYTE   W24
 BYTE   N11
 BYTE   W12
 BYTE   N11
 BYTE   W12
//  #14 //040   ----------------------------------------
 BYTE   W96
//  #14 //041   ----------------------------------------
 BYTE   W96
//  #14 //042   ----------------------------------------
 BYTE   W96
//  #14 //043   ----------------------------------------
 BYTE   W96
//  #14 //044   ----------------------------------------
 BYTE   W96
//  #14 //045   ----------------------------------------
 BYTE   W96
//  #14 //046   ----------------------------------------
 BYTE   W96
//  #14 //047   ----------------------------------------
 BYTE   W96
//  #14 //048   ----------------------------------------
 BYTE   W96
//  #14 //049   ----------------------------------------
 BYTE   W96
//  #14 //050   ----------------------------------------
 BYTE   W96
//  #14 //051   ----------------------------------------
 BYTE   W96
//  #14 //052   ----------------------------------------
 BYTE   W96
//  #14 //053   ----------------------------------------
 BYTE   W96
//  #14 //054   ----------------------------------------
 BYTE   W96
//  #14 //055   ----------------------------------------
 BYTE   W96
//  #14 //056   ----------------------------------------
 BYTE   W96
//  #14 //057   ----------------------------------------
 BYTE   W96
//  #14 //058   ----------------------------------------
 BYTE   W96
//  #14 //059   ----------------------------------------
 BYTE   W96
//  #14 //060   ----------------------------------------
 BYTE   W96
//  #14 //061   ----------------------------------------
 BYTE   W96
//  #14 //062   ----------------------------------------
 BYTE   W96
//  #14 //063   ----------------------------------------
 BYTE   W96
//  #14 //064   ----------------------------------------
 BYTE   W96
//  #14 //065   ----------------------------------------
 BYTE   W96
//  #14 //066   ----------------------------------------
 BYTE   W96
//  #14 //067   ----------------------------------------
 BYTE   W96
//  #14 //068   ----------------------------------------
 BYTE   W96
//  #14 //069   ----------------------------------------
 BYTE   W96
//  #14 //070   ----------------------------------------
 BYTE   W96
//  #14 //071   ----------------------------------------
 BYTE   W96
//  #14 //072   ----------------------------------------
 BYTE   W96
//  #14 //073   ----------------------------------------
 BYTE   W96
//  #14 //074   ----------------------------------------
 BYTE   W96
//  #14 //075   ----------------------------------------
 BYTE   W96
//  #14 //076   ----------------------------------------
 BYTE   W96
//  #14 //077   ----------------------------------------
 BYTE   W96
//  #14 //078   ----------------------------------------
 BYTE   W96
//  #14 //079   ----------------------------------------
 BYTE   W96
//  #14 //080   ----------------------------------------
 BYTE   GoTo
  POIN2 Label_017DAD8A
 BYTE   FINE

//******************************************************//
	ALIGN 4

DrawntoLifeTheNextChapterSalem:
	BYTE	14	// NumTrks
	BYTE	0	// NumBlks
	BYTE	DrawntoLifeTheNextChapterSalem_pri	// Priority
	BYTE	DrawntoLifeTheNextChapterSalem_rev	// Reverb.
    
	POIN2	DrawntoLifeTheNextChapterSalem_grp
    
	POIN2	DrawntoLifeTheNextChapterSalem_001
	POIN2	DrawntoLifeTheNextChapterSalem_002
	POIN2	DrawntoLifeTheNextChapterSalem_003
	POIN2	DrawntoLifeTheNextChapterSalem_004
	POIN2	DrawntoLifeTheNextChapterSalem_005
	POIN2	DrawntoLifeTheNextChapterSalem_006
	POIN2	DrawntoLifeTheNextChapterSalem_007
	POIN2	DrawntoLifeTheNextChapterSalem_008
	POIN2	DrawntoLifeTheNextChapterSalem_009
	POIN2	DrawntoLifeTheNextChapterSalem_010
	POIN2	DrawntoLifeTheNextChapterSalem_011
	POIN2	DrawntoLifeTheNextChapterSalem_012
	POIN2	DrawntoLifeTheNextChapterSalem_013
	POIN2	DrawntoLifeTheNextChapterSalem_014

	
