//Event file generated from Sappy .s format.
	#include "MPlayDef.event"

	#define	DrawntoLifeWilfresTheme_grp  voicegroup000
	#define	DrawntoLifeWilfresTheme_pri  0
	#define	DrawntoLifeWilfresTheme_rev  0
	#define	DrawntoLifeWilfresTheme_mvl  127
	#define	DrawntoLifeWilfresTheme_key  0
	#define	DrawntoLifeWilfresTheme_tbs  1
	#define	DrawntoLifeWilfresTheme_exg  0
	#define	DrawntoLifeWilfresTheme_cmp  1

	// .rodata
	//	DrawntoLifeWilfresTheme
	ALIGN 4


//**************** Track 1 (Midi-Chn.0) ****************//

DrawntoLifeWilfresTheme_001:
//  #01 //000   ----------------------------------------
 BYTE   KEYSH   DrawntoLifeWilfresTheme_key+0
 BYTE   TEMPO   88*DrawntoLifeWilfresTheme_tbs/2
 BYTE   VOICE   73
 BYTE   MODT 0
 BYTE   LFOS 44
 BYTE   VOL   78*DrawntoLifeWilfresTheme_mvl/mxv
 BYTE   W96
//  #01 //001   ----------------------------------------
 BYTE   W96
//  #01 //002   ----------------------------------------
 BYTE   W96
//  #01 //003   ----------------------------------------
 BYTE   W96
//  #01 //004   ----------------------------------------
 BYTE   W96
//  #01 //005   ----------------------------------------
 BYTE   W96
//  #01 //006   ----------------------------------------
 BYTE   W96
//  #01 //007   ----------------------------------------
 BYTE   W96
//  #01 //008   ----------------------------------------
 BYTE   W96
//  #01 //009   ----------------------------------------
 BYTE   W96
//  #01 //010   ----------------------------------------
 BYTE   W96
//  #01 //011   ----------------------------------------
 BYTE   W96
//  #01 //012   ----------------------------------------
 BYTE   W96
//  #01 //013   ----------------------------------------
 BYTE   W96
//  #01 //014   ----------------------------------------
 BYTE   W96
//  #01 //015   ----------------------------------------
 BYTE   W96
//  #01 //016   ----------------------------------------
 BYTE   W96
//  #01 //017   ----------------------------------------
 BYTE   W96
//  #01 //018   ----------------------------------------
 BYTE   W96
//  #01 //019   ----------------------------------------
 BYTE   W96
//  #01 //020   ----------------------------------------
 BYTE   W96
//  #01 //021   ----------------------------------------
 BYTE   N48  En2  v032
 BYTE   N48  Gn2
 BYTE   W48
 BYTE   Fs2
 BYTE   N48  An2
 BYTE   W48
//  #01 //022   ----------------------------------------
 BYTE   Gn2
 BYTE   N48  Bn2
 BYTE   W48
 BYTE   N96  En2
 BYTE   N48  An2
 BYTE   W48
//  #01 //023   ----------------------------------------
 BYTE   Gn2
 BYTE   W48
 BYTE   N96  Dn2
 BYTE   N48  Fs2
 BYTE   W48
//  #01 //024   ----------------------------------------
 BYTE   Gn2
 BYTE   W48
 BYTE   Ds2
 BYTE   N48  Fs2
 BYTE   W48
 BYTE   FINE

//**************** Track 2 (Midi-Chn.1) ****************//

DrawntoLifeWilfresTheme_002:
//  #02 //000   ----------------------------------------
 BYTE   KEYSH   DrawntoLifeWilfresTheme_key+0
 BYTE   VOICE   1
 BYTE   MODT 0
 BYTE   LFOS 44
 BYTE   PAN   c_v-1
 BYTE   VOL   80*DrawntoLifeWilfresTheme_mvl/mxv
 BYTE   N04  Cn1  v088
 BYTE   W12
 BYTE   N06  Cn1  v076
 BYTE   W12
 BYTE   N04  Cn1  v060
 BYTE   W12
 BYTE   N05  Cn1  v048
 BYTE   W12
 BYTE   N06  Dn1  v088
 BYTE   W36
 BYTE   N04  Cn1
 BYTE   W12
//  #02 //001   ----------------------------------------
Label_554B77:
 BYTE   N05  Cn1  v088
 BYTE   W24
 BYTE   N05
 BYTE   W24
 BYTE   N09  Dn1
 BYTE   W36
 BYTE   N05  Ds1
 BYTE   W12
 BYTE   PEND 
//  #02 //002   ----------------------------------------
 BYTE   Cn1
 BYTE   W12
 BYTE   N06  Cn1  v072
 BYTE   W12
 BYTE   N04  Cn1  v060
 BYTE   W12
 BYTE   N05  Cn1  v048
 BYTE   W12
 BYTE   N06  Dn1  v088
 BYTE   W36
 BYTE   N04  Cn1
 BYTE   W12
//  #02 //003   ----------------------------------------
 BYTE   PATT
  POIN2 Label_554B77
//  #02 //004   ----------------------------------------
 BYTE   N05  Cn1  v088
 BYTE   N06  Ds2  v080
 BYTE   W12
 BYTE   Cn1  v072
 BYTE   N06  As1  v044
 BYTE   W06
 BYTE   Gs1
 BYTE   W06
 BYTE   N04  Cn1  v056
 BYTE   N06  Gn1  v044
 BYTE   W12
 BYTE   N05  Cn1
 BYTE   N06  As1
 BYTE   W12
 BYTE   Dn1  v088
 BYTE   W12
 BYTE   Gs1  v044
 BYTE   W18
 BYTE   N06
 BYTE   W06
 BYTE   N04  Cn1  v088
 BYTE   N12  Gn1  v044
 BYTE   W12
//  #02 //005   ----------------------------------------
 BYTE   N05  Cn1  v088
 BYTE   N06  As1  v044
 BYTE   W12
 BYTE   N06
 BYTE   W06
 BYTE   Gs1
 BYTE   W06
 BYTE   N05  Cn1  v088
 BYTE   N06  Gn1  v044
 BYTE   W12
 BYTE   As1
 BYTE   W12
 BYTE   N09  Dn1  v088
 BYTE   W12
 BYTE   N06  Gs1  v044
 BYTE   W18
 BYTE   N06
 BYTE   W06
 BYTE   N05  Ds1  v088
 BYTE   N12  Gn1  v044
 BYTE   W12
//  #02 //006   ----------------------------------------
 BYTE   N04  Cn1  v088
 BYTE   N06  As1  v044
 BYTE   W06
 BYTE   Gs1
 BYTE   W06
 BYTE   N02  Cn1  v088
 BYTE   N06  As1  v044
 BYTE   W06
 BYTE   N04  Cn1  v088
 BYTE   N06  Gs1  v044
 BYTE   W06
 BYTE   N05  Dn1  v088
 BYTE   N06  Gn1  v044
 BYTE   W06
 BYTE   N07  Ds1  v088
 BYTE   N06  Gs1  v044
 BYTE   W06
 BYTE   N03  Dn1  v088
 BYTE   N06  As1  v044
 BYTE   W06
 BYTE   N05  Cn1  v088
 BYTE   N06  Gs1  v044
 BYTE   W12
 BYTE   N05  Cn1  v088
 BYTE   N06  As1  v044
 BYTE   W06
 BYTE   Gs1
 BYTE   W06
 BYTE   N03  Cn1  v088
 BYTE   N06  As1  v044
 BYTE   W06
 BYTE   N05  Dn1  v088
 BYTE   N06  Gn1  v044
 BYTE   W06
 BYTE   N08  Ds1  v088
 BYTE   N06  Gs1  v044
 BYTE   W06
 BYTE   N05  Dn1  v088
 BYTE   N12  Gn1  v044
 BYTE   W06
 BYTE   N04  Ds1  v088
 BYTE   W06
//  #02 //007   ----------------------------------------
 BYTE   N06  Cn1
 BYTE   N06  As1  v044
 BYTE   W06
 BYTE   Gs1
 BYTE   W06
 BYTE   N03  Cn1  v088
 BYTE   N06  As1  v044
 BYTE   W06
 BYTE   N03  Cn1  v088
 BYTE   N06  Gs1  v044
 BYTE   W06
 BYTE   N03  Dn1  v088
 BYTE   N06  Gn1  v044
 BYTE   W06
 BYTE   N03  Ds1  v088
 BYTE   N06  Gs1  v044
 BYTE   W06
 BYTE   N03  Dn1  v088
 BYTE   N06  As1  v044
 BYTE   W06
 BYTE   N04  Cn1  v088
 BYTE   N06  Gs1  v044
 BYTE   W12
 BYTE   N02  Cn1  v088
 BYTE   N06  As1  v044
 BYTE   W06
 BYTE   Gs1
 BYTE   W06
 BYTE   N03  Cn1  v088
 BYTE   N06  As1  v044
 BYTE   W06
 BYTE   N04  Dn1  v088
 BYTE   N06  Gn1  v044
 BYTE   W06
 BYTE   N03  Ds1  v088
 BYTE   N06  Gs1  v044
 BYTE   W06
 BYTE   N05  Dn1  v088
 BYTE   N12  Gn1  v044
 BYTE   W06
 BYTE   N03  Ds1  v088
 BYTE   W06
//  #02 //008   ----------------------------------------
 BYTE   N12  Ds2  v064
 BYTE   W96
//  #02 //009   ----------------------------------------
 BYTE   W96
//  #02 //010   ----------------------------------------
 BYTE   W96
//  #02 //011   ----------------------------------------
 BYTE   N05  Cn1  v016
 BYTE   W18
 BYTE   N03  Cn1  v028
 BYTE   W06
 BYTE   N06  Cn1  v036
 BYTE   W12
 BYTE   N03  Bn0  v048
 BYTE   W04
 BYTE   N04  Cn1
 BYTE   W04
 BYTE   Bn0  v056
 BYTE   W04
 BYTE   N14  Cn1  v060
 BYTE   W12
 BYTE   N09  Bn0  v084
 BYTE   W12
 BYTE   N06  Cn1  v088
 BYTE   W12
 BYTE   N05  Dn1
 BYTE   W12
//  #02 //012   ----------------------------------------
 BYTE   Cn1
 BYTE   W12
 BYTE   N03
 BYTE   W12
 BYTE   N04  Dn1
 BYTE   W24
 BYTE   Cn1
 BYTE   W12
 BYTE   N04
 BYTE   W12
 BYTE   Dn1
 BYTE   W24
//  #02 //013   ----------------------------------------
 BYTE   N05  Cn1
 BYTE   W12
 BYTE   N04
 BYTE   W12
 BYTE   Dn1
 BYTE   W12
 BYTE   N04
 BYTE   W24
 BYTE   Cn1
 BYTE   W12
 BYTE   Dn1
 BYTE   W24
//  #02 //014   ----------------------------------------
 BYTE   Cn1
 BYTE   W12
 BYTE   N02
 BYTE   W06
 BYTE   N04
 BYTE   W06
 BYTE   N05  Dn1
 BYTE   W06
 BYTE   N07  Ds1
 BYTE   W06
 BYTE   N03  Dn1
 BYTE   W06
 BYTE   N05  Cn1
 BYTE   W12
 BYTE   N05
 BYTE   W12
 BYTE   N03
 BYTE   W06
 BYTE   N05  Dn1
 BYTE   W06
 BYTE   N08  Ds1
 BYTE   W06
 BYTE   N05  Dn1
 BYTE   W06
 BYTE   N04  Ds1
 BYTE   W06
//  #02 //015   ----------------------------------------
 BYTE   N06  Cn1
 BYTE   N06  As1  v048
 BYTE   W06
 BYTE   Gs1
 BYTE   W06
 BYTE   N03  Cn1  v088
 BYTE   N06  As1  v048
 BYTE   W06
 BYTE   N03  Cn1  v088
 BYTE   N06  Gs1  v048
 BYTE   W06
 BYTE   N03  Dn1  v088
 BYTE   N06  Gn1  v048
 BYTE   W06
 BYTE   N03  Ds1  v088
 BYTE   N06  Gs1  v048
 BYTE   W06
 BYTE   N03  Dn1  v088
 BYTE   N06  As1  v048
 BYTE   W06
 BYTE   N04  Cn1  v088
 BYTE   N06  Gs1  v048
 BYTE   W12
 BYTE   N02  Cn1  v088
 BYTE   N06  As1  v048
 BYTE   W06
 BYTE   Gs1
 BYTE   W06
 BYTE   N03  Cn1  v088
 BYTE   N06  As1  v048
 BYTE   W06
 BYTE   N04  Dn1  v088
 BYTE   N06  Gn1  v048
 BYTE   W06
 BYTE   N03  Ds1  v088
 BYTE   N06  Gs1  v048
 BYTE   W06
 BYTE   N05  Dn1  v088
 BYTE   N12  Gn1  v048
 BYTE   W06
 BYTE   N03  Ds1  v088
 BYTE   W04
 BYTE   N01  Ds2  v064
 BYTE   W02
//  #02 //016   ----------------------------------------
 BYTE   W96
//  #02 //017   ----------------------------------------
 BYTE   N04  Cn1  v088
 BYTE   N06  Ds2  v072
 BYTE   W06
 BYTE   Gs1  v048
 BYTE   W06
 BYTE   N02  Cn1  v088
 BYTE   N06  As1  v048
 BYTE   W06
 BYTE   N04  Cn1  v088
 BYTE   N06  Gs1  v048
 BYTE   W06
 BYTE   N05  Dn1  v088
 BYTE   N06  Gn1  v048
 BYTE   W06
 BYTE   N07  Ds1  v088
 BYTE   N06  Gs1  v048
 BYTE   W06
 BYTE   N03  Dn1  v088
 BYTE   N06  As1  v048
 BYTE   W06
 BYTE   N05  Cn1  v088
 BYTE   N06  Gs1  v048
 BYTE   W12
 BYTE   N05  Cn1  v088
 BYTE   N06  As1  v048
 BYTE   W06
 BYTE   Gs1
 BYTE   W06
 BYTE   N03  Cn1  v088
 BYTE   N06  As1  v048
 BYTE   W06
 BYTE   N05  Dn1  v088
 BYTE   N06  Gn1  v048
 BYTE   W06
 BYTE   N08  Ds1  v088
 BYTE   N06  Gs1  v048
 BYTE   W06
 BYTE   N05  Dn1  v088
 BYTE   N12  Gn1  v048
 BYTE   W06
 BYTE   N04  Ds1  v088
 BYTE   W06
//  #02 //018   ----------------------------------------
 BYTE   N06  Cn1
 BYTE   N06  As1  v048
 BYTE   W06
 BYTE   Gs1
 BYTE   W06
 BYTE   N03  Cn1  v088
 BYTE   N06  As1  v048
 BYTE   W06
 BYTE   N03  Cn1  v088
 BYTE   N06  Gs1  v048
 BYTE   W06
 BYTE   N03  Dn1  v088
 BYTE   N06  Gn1  v048
 BYTE   W06
 BYTE   N03  Ds1  v088
 BYTE   N06  Gs1  v048
 BYTE   W06
 BYTE   N03  Dn1  v088
 BYTE   N06  As1  v048
 BYTE   W06
 BYTE   N04  Cn1  v088
 BYTE   N06  Gs1  v048
 BYTE   W12
 BYTE   N02  Cn1  v088
 BYTE   N06  As1  v048
 BYTE   W06
 BYTE   Gs1
 BYTE   W06
 BYTE   N03  Cn1  v088
 BYTE   N06  As1  v048
 BYTE   W06
 BYTE   N04  Dn1  v088
 BYTE   N06  Gn1  v048
 BYTE   W06
 BYTE   N03  Ds1  v088
 BYTE   N06  Gs1  v048
 BYTE   W06
 BYTE   N05  Dn1  v088
 BYTE   N12  Gn1  v048
 BYTE   W06
 BYTE   N03  Ds1  v088
 BYTE   W06
//  #02 //019   ----------------------------------------
 BYTE   N04  Cn1
 BYTE   N06  As1  v048
 BYTE   W06
 BYTE   Gs1
 BYTE   W06
 BYTE   N02  Cn1  v088
 BYTE   N06  As1  v048
 BYTE   W06
 BYTE   N04  Cn1  v088
 BYTE   N06  Gs1  v048
 BYTE   W06
 BYTE   N05  Dn1  v088
 BYTE   N06  Gn1  v048
 BYTE   W06
 BYTE   N07  Ds1  v088
 BYTE   N06  Gs1  v048
 BYTE   W06
 BYTE   N03  Dn1  v088
 BYTE   N06  As1  v048
 BYTE   W06
 BYTE   N05  Cn1  v088
 BYTE   N06  Gs1  v048
 BYTE   W12
 BYTE   N05  Cn1  v088
 BYTE   N06  As1  v048
 BYTE   W06
 BYTE   Gs1
 BYTE   W06
 BYTE   N03  Cn1  v088
 BYTE   N06  As1  v048
 BYTE   W06
 BYTE   N05  Dn1  v088
 BYTE   N06  Gn1  v048
 BYTE   W06
 BYTE   N08  Ds1  v088
 BYTE   N06  Gs1  v048
 BYTE   W06
 BYTE   N05  Dn1  v088
 BYTE   N12  Gn1  v048
 BYTE   W06
 BYTE   N04  Ds1  v088
 BYTE   W06
//  #02 //020   ----------------------------------------
 BYTE   N06  Cn1
 BYTE   N06  Ds2  v072
 BYTE   W06
 BYTE   Gs1  v048
 BYTE   W06
 BYTE   N03  Cn1  v088
 BYTE   N06  As1  v048
 BYTE   W06
 BYTE   N03  Cn1  v088
 BYTE   N06  Gs1  v048
 BYTE   W06
 BYTE   N03  Dn1  v088
 BYTE   N02  En1  v092
 BYTE   N06  Gn1  v048
 BYTE   W06
 BYTE   N03  Ds1  v088
 BYTE   N06  Gs1  v048
 BYTE   W06
 BYTE   N03  Dn1  v088
 BYTE   N06  Ds2  v072
 BYTE   W06
 BYTE   N04  Cn1  v088
 BYTE   N03  En1  v092
 BYTE   N06  Ds2  v080
 BYTE   W12
 BYTE   N02  Cn1  v088
 BYTE   N06  As1  v048
 BYTE   W06
 BYTE   Gs1
 BYTE   W06
 BYTE   N03  Cn1  v088
 BYTE   N03  En1  v092
 BYTE   N06  As1  v048
 BYTE   W06
 BYTE   N04  Dn1  v088
 BYTE   N06  Gn1  v048
 BYTE   W06
 BYTE   N03  Ds1  v088
 BYTE   N06  Gs1  v048
 BYTE   W06
 BYTE   N05  Dn1  v088
 BYTE   N02  En1  v092
 BYTE   N12  Gn1  v048
 BYTE   W06
 BYTE   N03  Ds1  v088
 BYTE   W06
//  #02 //021   ----------------------------------------
 BYTE   N05  Cn1  v080
 BYTE   W12
 BYTE   N06  Cn1  v056
 BYTE   W12
 BYTE   N04  Cn1  v044
 BYTE   W12
 BYTE   N05  Cn1  v036
 BYTE   W12
 BYTE   N06  Dn1  v088
 BYTE   W36
 BYTE   N04  Cn1
 BYTE   W12
//  #02 //022   ----------------------------------------
 BYTE   PATT
  POIN2 Label_554B77
//  #02 //023   ----------------------------------------
 BYTE   N05  Cn1  v088
 BYTE   W12
 BYTE   N06  Cn1  v056
 BYTE   W12
 BYTE   N04  Cn1  v044
 BYTE   W12
 BYTE   N05  Cn1  v036
 BYTE   W12
 BYTE   N06  Dn1  v080
 BYTE   W36
 BYTE   N04  Cn1  v088
 BYTE   W12
//  #02 //024   ----------------------------------------
 BYTE   N05
 BYTE   W24
 BYTE   N05
 BYTE   W24
 BYTE   N09  Dn1
 BYTE   W48
 BYTE   FINE

//**************** Track 3 (Midi-Chn.2) ****************//

DrawntoLifeWilfresTheme_003:
//  #03 //000   ----------------------------------------
 BYTE   KEYSH   DrawntoLifeWilfresTheme_key+0
 BYTE   VOICE   2
 BYTE   MODT 0
 BYTE   LFOS 44
 BYTE   PAN   c_v-4
 BYTE   VOL   68*DrawntoLifeWilfresTheme_mvl/mxv
 BYTE   N24  En0  v088
 BYTE   W36
 BYTE   N07
 BYTE   W12
 BYTE   N21  BnM1
 BYTE   W48
//  #03 //001   ----------------------------------------
Label_5559A1:
 BYTE   N11  En0  v088
 BYTE   W36
 BYTE   N07
 BYTE   W12
 BYTE   N15  BnM1
 BYTE   W24
 BYTE   N12  Ds0
 BYTE   W24
 BYTE   PEND 
//  #03 //002   ----------------------------------------
Label_5559AE:
 BYTE   N24  En0  v088
 BYTE   W36
 BYTE   N07
 BYTE   W12
 BYTE   N21  BnM1
 BYTE   W48
 BYTE   PEND 
//  #03 //003   ----------------------------------------
Label_5559B8:
 BYTE   N24  Cn0  v088
 BYTE   W36
 BYTE   N07
 BYTE   W12
 BYTE   N21
 BYTE   W24
 BYTE   BnM1
 BYTE   W24
 BYTE   PEND 
//  #03 //004   ----------------------------------------
 BYTE   PATT
  POIN2 Label_5559AE
//  #03 //005   ----------------------------------------
 BYTE   PATT
  POIN2 Label_5559A1
//  #03 //006   ----------------------------------------
 BYTE   PATT
  POIN2 Label_5559AE
//  #03 //007   ----------------------------------------
 BYTE   PATT
  POIN2 Label_5559B8
//  #03 //008   ----------------------------------------
Label_5559D7:
 BYTE   N12  EnM1  v088
 BYTE   W18
 BYTE   N06
 BYTE   W06
 BYTE   N12  En0
 BYTE   W12
 BYTE   N06  EnM1
 BYTE   W24
 BYTE   N12  DsM1
 BYTE   W12
 BYTE   N18  Ds0
 BYTE   W24
 BYTE   PEND 
//  #03 //009   ----------------------------------------
Label_5559EA:
 BYTE   N06  EnM1  v088
 BYTE   W18
 BYTE   N06
 BYTE   W06
 BYTE   En0
 BYTE   W12
 BYTE   N12  EnM1
 BYTE   W24
 BYTE   N06  DsM1
 BYTE   W12
 BYTE   N18  Ds0
 BYTE   W24
 BYTE   PEND 
//  #03 //010   ----------------------------------------
Label_5559FC:
 BYTE   N06  EnM1  v088
 BYTE   W18
 BYTE   N06
 BYTE   W06
 BYTE   N12  En0
 BYTE   W12
 BYTE   EnM1
 BYTE   W12
 BYTE   Cn0
 BYTE   W18
 BYTE   N06
 BYTE   W06
 BYTE   N12  Cn1
 BYTE   W12
 BYTE   Cn0
 BYTE   W12
 BYTE   PEND 
//  #03 //011   ----------------------------------------
Label_555A11:
 BYTE   N12  GnM1  v088
 BYTE   W18
 BYTE   N06
 BYTE   W06
 BYTE   N12  Gn0
 BYTE   W12
 BYTE   GnM1
 BYTE   W24
 BYTE   BnM1
 BYTE   W12
 BYTE   Bn0
 BYTE   W24
 BYTE   PEND 
//  #03 //012   ----------------------------------------
 BYTE   PATT
  POIN2 Label_5559D7
//  #03 //013   ----------------------------------------
 BYTE   PATT
  POIN2 Label_5559EA
//  #03 //014   ----------------------------------------
 BYTE   PATT
  POIN2 Label_5559FC
//  #03 //015   ----------------------------------------
 BYTE   PATT
  POIN2 Label_555A11
//  #03 //016   ----------------------------------------
 BYTE   W36
 BYTE   N06  EnM1  v088
 BYTE   W06
 BYTE   N06
 BYTE   W24
 BYTE   N06
 BYTE   W06
 BYTE   N12  BnM1
 BYTE   W12
 BYTE   N06  AnM1
 BYTE   W06
 BYTE   GnM1
 BYTE   W06
//  #03 //017   ----------------------------------------
 BYTE   EnM1
 BYTE   W12
 BYTE   N06
 BYTE   W06
 BYTE   N06
 BYTE   W06
 BYTE   BnM1
 BYTE   W06
 BYTE   AnM1
 BYTE   W06
 BYTE   GnM1
 BYTE   W06
 BYTE   FsM1
 BYTE   W12
 BYTE   N06
 BYTE   W12
 BYTE   N06
 BYTE   W06
 BYTE   BnM1
 BYTE   W06
 BYTE   AnM1
 BYTE   W06
 BYTE   GnM1
 BYTE   W06
 BYTE   FsM1
 BYTE   W06
//  #03 //018   ----------------------------------------
 BYTE   DnM1
 BYTE   W12
 BYTE   N06
 BYTE   W06
 BYTE   N06
 BYTE   W06
 BYTE   AnM1
 BYTE   W06
 BYTE   GnM1
 BYTE   W06
 BYTE   FsM1
 BYTE   W06
 BYTE   AnM1
 BYTE   W12
 BYTE   N06
 BYTE   W12
 BYTE   N06
 BYTE   W06
 BYTE   En0
 BYTE   W06
 BYTE   Dn0
 BYTE   W06
 BYTE   Cs0
 BYTE   W12
//  #03 //019   ----------------------------------------
 BYTE   Cn0
 BYTE   W12
 BYTE   N06
 BYTE   W06
 BYTE   N06
 BYTE   W06
 BYTE   Gn0
 BYTE   W06
 BYTE   Fs0
 BYTE   W06
 BYTE   En0
 BYTE   W06
 BYTE   Dn0
 BYTE   W12
 BYTE   N06
 BYTE   W12
 BYTE   N06
 BYTE   W06
 BYTE   An0
 BYTE   W06
 BYTE   Gn0
 BYTE   W06
 BYTE   Fs0
 BYTE   W12
//  #03 //020   ----------------------------------------
 BYTE   GnM1
 BYTE   W12
 BYTE   N06
 BYTE   W06
 BYTE   N06
 BYTE   W06
 BYTE   Dn0
 BYTE   W06
 BYTE   Cn0
 BYTE   W06
 BYTE   BnM1
 BYTE   W06
 BYTE   N06
 BYTE   W12
 BYTE   N06
 BYTE   W12
 BYTE   N06
 BYTE   W12
 BYTE   AnM1
 BYTE   W06
 BYTE   GnM1
 BYTE   W06
 BYTE   FsM1
 BYTE   W06
//  #03 //021   ----------------------------------------
 BYTE   En0
 BYTE   W12
 BYTE   N06
 BYTE   W12
 BYTE   Bn0
 BYTE   W06
 BYTE   An0
 BYTE   W06
 BYTE   Gn0
 BYTE   W06
 BYTE   Fs0
 BYTE   W12
 BYTE   N06
 BYTE   W18
 BYTE   Bn0
 BYTE   W06
 BYTE   An0
 BYTE   W06
 BYTE   Gn0
 BYTE   W06
 BYTE   Fs0
 BYTE   W06
//  #03 //022   ----------------------------------------
 BYTE   Dn0
 BYTE   W12
 BYTE   N06
 BYTE   W12
 BYTE   An0
 BYTE   W06
 BYTE   Gn0
 BYTE   W06
 BYTE   Fs0
 BYTE   W06
 BYTE   An0
 BYTE   W12
 BYTE   N06
 BYTE   W18
 BYTE   En0
 BYTE   W06
 BYTE   Dn0
 BYTE   W06
 BYTE   Cs0
 BYTE   W12
//  #03 //023   ----------------------------------------
 BYTE   Cn0
 BYTE   W12
 BYTE   N06
 BYTE   W12
 BYTE   Gn0
 BYTE   W06
 BYTE   Fs0
 BYTE   W06
 BYTE   En0
 BYTE   W06
 BYTE   Dn0
 BYTE   W12
 BYTE   N06
 BYTE   W18
 BYTE   An0
 BYTE   W06
 BYTE   Gn0
 BYTE   W06
 BYTE   Fs0
 BYTE   W12
//  #03 //024   ----------------------------------------
 BYTE   Gn0
 BYTE   W12
 BYTE   N06
 BYTE   W12
 BYTE   Dn0
 BYTE   W06
 BYTE   Cn0
 BYTE   W06
 BYTE   BnM1
 BYTE   W06
 BYTE   N06
 BYTE   W54
 BYTE   FINE

//**************** Track 4 (Midi-Chn.3) ****************//

DrawntoLifeWilfresTheme_004:
//  #04 //000   ----------------------------------------
 BYTE   KEYSH   DrawntoLifeWilfresTheme_key+0
 BYTE   VOICE   75
 BYTE   MODT 0
 BYTE   LFOS 44
 BYTE   VOL   53*DrawntoLifeWilfresTheme_mvl/mxv
 BYTE   N23  En2  v056
 BYTE   W24
 BYTE   N12  Gn2  v080
 BYTE   N12  Bn2
 BYTE   W12
 BYTE   En2  v056
 BYTE   W12
 BYTE   N24  Bn1
 BYTE   W24
 BYTE   N12  Fs2  v080
 BYTE   N12  Bn2
 BYTE   W24
//  #04 //001   ----------------------------------------
Label_01610720:
 BYTE   N12  En2  v056
 BYTE   W24
 BYTE   Gn2  v080
 BYTE   N12  Bn2
 BYTE   W12
 BYTE   En2  v056
 BYTE   N12  Gn2  v080
 BYTE   N12  Bn2
 BYTE   W12
 BYTE   Bn1  v056
 BYTE   W24
 BYTE   Ds2
 BYTE   N12  Fs2  v080
 BYTE   N12  Bn2
 BYTE   W24
 BYTE   PEND 
//  #04 //002   ----------------------------------------
Label_0161073C:
 BYTE   N24  En2  v056
 BYTE   W24
 BYTE   N12  Gn2  v080
 BYTE   N12  Bn2
 BYTE   W12
 BYTE   En2  v056
 BYTE   W12
 BYTE   N24  Bn1
 BYTE   W24
 BYTE   N12  Fs2  v080
 BYTE   N12  Bn2
 BYTE   W24
 BYTE   PEND 
//  #04 //003   ----------------------------------------
 BYTE   N24  Cn2  v056
 BYTE   W24
 BYTE   N12  Gn2  v080
 BYTE   N12  Cn3
 BYTE   W12
 BYTE   Cn2  v056
 BYTE   N12  Gn2  v080
 BYTE   N12  Cn3
 BYTE   W12
 BYTE   Cn2  v056
 BYTE   W12
 BYTE   Fs2  v080
 BYTE   N12  Bn2
 BYTE   W12
 BYTE   N24  Bn1  v056
 BYTE   N12  An2  v080
 BYTE   W12
 BYTE   Gn2
 BYTE   W12
//  #04 //004   ----------------------------------------
 BYTE   PATT
  POIN2 Label_0161073C
//  #04 //005   ----------------------------------------
 BYTE   PATT
  POIN2 Label_01610720
//  #04 //006   ----------------------------------------
 BYTE   PATT
  POIN2 Label_0161073C
//  #04 //007   ----------------------------------------
 BYTE   N24  Cn2  v056
 BYTE   W24
 BYTE   N12  Gn2  v080
 BYTE   N12  Cn3
 BYTE   W12
 BYTE   Cn2  v056
 BYTE   N12  Gn2  v080
 BYTE   N12  Cn3
 BYTE   W12
 BYTE   N24  Cn2  v056
 BYTE   W12
 BYTE   N12  Fs2  v080
 BYTE   N12  Bn2
 BYTE   W12
 BYTE   N24  Bn1  v056
 BYTE   N12  An2  v080
 BYTE   W12
 BYTE   Gn2
 BYTE   W12
//  #04 //008   ----------------------------------------
Label_016107AA:
 BYTE   N06  En2  v076
 BYTE   W18
 BYTE   N06
 BYTE   W03
 BYTE   N05  Bn2
 BYTE   W01
 BYTE   En3  v080
 BYTE   W02
 BYTE   N03  Gn3  v092
 BYTE   W12
 BYTE   Bn2  v072
 BYTE   N03  En3
 BYTE   N04  Gn3
 BYTE   W12
 BYTE   N12  Bn1
 BYTE   W18
 BYTE   N05  Fs2
 BYTE   W01
 BYTE   N06  Bn2  v068
 BYTE   W02
 BYTE   Ds3
 BYTE   W01
 BYTE   Fs3  v064
 BYTE   W02
 BYTE   N05  Bn3  v056
 BYTE   W24
 BYTE   PEND 
//  #04 //009   ----------------------------------------
Label_016107D5:
 BYTE   N06  En2  v076
 BYTE   W18
 BYTE   N06
 BYTE   W03
 BYTE   N05  Bn2
 BYTE   W01
 BYTE   En3
 BYTE   W02
 BYTE   N03  Gn3  v084
 BYTE   W12
 BYTE   Bn2  v068
 BYTE   N03  En3
 BYTE   N04  Gn3
 BYTE   W12
 BYTE   N12  Bn1  v064
 BYTE   W18
 BYTE   N05  Fs2  v072
 BYTE   W01
 BYTE   N06  Bn2  v076
 BYTE   W02
 BYTE   Ds3
 BYTE   W01
 BYTE   Fs3
 BYTE   W02
 BYTE   N05  Bn3  v064
 BYTE   W24
 BYTE   PEND 
//  #04 //010   ----------------------------------------
 BYTE   N06  En2  v080
 BYTE   W18
 BYTE   N03
 BYTE   N09  Bn2
 BYTE   W03
 BYTE   N08  En3  v084
 BYTE   W03
 BYTE   N04  Gn3  v076
 BYTE   W12
 BYTE   N02  Bn2  v088
 BYTE   N03  En3
 BYTE   N04  Gn3
 BYTE   W12
 BYTE   N06  Cn2  v072
 BYTE   W18
 BYTE   N07  En3
 BYTE   W03
 BYTE   N05  Gn3
 BYTE   W03
 BYTE   Cn4  v080
 BYTE   W24
//  #04 //011   ----------------------------------------
 BYTE   N18  Gn1
 BYTE   W18
 BYTE   N06  Gn2
 BYTE   W03
 BYTE   N04  Dn3
 BYTE   W01
 BYTE   Gn3
 BYTE   W02
 BYTE   N03  Bn3  v084
 BYTE   W12
 BYTE   N01  Dn3
 BYTE   N02  Gn3
 BYTE   N02  Bn3
 BYTE   W12
 BYTE   N24  Bn1
 BYTE   W06
 BYTE   N07  Bn2
 BYTE   W03
 BYTE   N04  Ds3
 BYTE   W01
 BYTE   N03  Fs3  v080
 BYTE   W02
 BYTE   Bn3  v096
 BYTE   W36
//  #04 //012   ----------------------------------------
 BYTE   PATT
  POIN2 Label_016107AA
//  #04 //013   ----------------------------------------
 BYTE   PATT
  POIN2 Label_016107D5
//  #04 //014   ----------------------------------------
 BYTE   N06  En2  v080
 BYTE   W18
 BYTE   N03
 BYTE   N09  Bn2
 BYTE   W03
 BYTE   N08  En3  v084
 BYTE   W03
 BYTE   N04  Gn3  v076
 BYTE   W12
 BYTE   N02  Bn2  v088
 BYTE   N03  En3
 BYTE   N04  Gn3
 BYTE   W12
 BYTE   N06  Cn2  v072
 BYTE   W18
 BYTE   N07  En3
 BYTE   W03
 BYTE   N05  Gn3
 BYTE   W03
 BYTE   Cn4  v080
 BYTE   W12
 BYTE   N03  En3  v084
 BYTE   N03  Gn3
 BYTE   N02  Cn4
 BYTE   W12
//  #04 //015   ----------------------------------------
 BYTE   N18  Gn1  v080
 BYTE   W18
 BYTE   N06  Gn2
 BYTE   W03
 BYTE   N04  Dn3
 BYTE   W01
 BYTE   Gn3
 BYTE   W02
 BYTE   N03  Bn3  v084
 BYTE   W12
 BYTE   N01  Dn3
 BYTE   N02  Gn3
 BYTE   N02  Bn3
 BYTE   W12
 BYTE   N24  Bn1
 BYTE   W18
 BYTE   N07  Bn2
 BYTE   W03
 BYTE   N04  Ds3
 BYTE   W01
 BYTE   N03  Fs3  v080
 BYTE   W02
 BYTE   Bn3  v088
 BYTE   W24
//  #04 //016   ----------------------------------------
 BYTE   W96
//  #04 //017   ----------------------------------------
 BYTE   W96
//  #04 //018   ----------------------------------------
 BYTE   W84
 BYTE   N06  En4  v064
 BYTE   W06
 BYTE   Fs4
 BYTE   W06
//  #04 //019   ----------------------------------------
 BYTE   N30  Gn4
 BYTE   W36
 BYTE   N06  An4  v068
 BYTE   W06
 BYTE   N12  Gn4  v072
 BYTE   W12
 BYTE   N06  Fs4
 BYTE   W12
 BYTE   En4
 BYTE   W12
 BYTE   N12  Dn4  v076
 BYTE   W18
//  #04 //020   ----------------------------------------
 BYTE   N06  Bn3
 BYTE   W12
 BYTE   Bn3  v080
 BYTE   W12
 BYTE   Gn3  v084
 BYTE   W06
 BYTE   N06
 BYTE   W06
 BYTE   An3  v088
 BYTE   W06
 BYTE   N18  Bn3
 BYTE   W54
//  #04 //021   ----------------------------------------
 BYTE   W96
//  #04 //022   ----------------------------------------
 BYTE   W96
//  #04 //023   ----------------------------------------
 BYTE   N24  En3  v060
 BYTE   N24  Gn3
 BYTE   W48
 BYTE   N23  Fs3
 BYTE   N24  An3
 BYTE   W48
//  #04 //024   ----------------------------------------
 BYTE   Gn3
 BYTE   N24  Bn3
 BYTE   W48
 BYTE   Bn2
 BYTE   W48
 BYTE   FINE

//**************** Track 5 (Midi-Chn.4) ****************//

DrawntoLifeWilfresTheme_005:
//  #05 //000   ----------------------------------------
 BYTE   KEYSH   DrawntoLifeWilfresTheme_key+0
 BYTE   VOICE   62
 BYTE   MODT 0
 BYTE   LFOS 44
 BYTE   VOL   61*DrawntoLifeWilfresTheme_mvl/mxv
 BYTE   W24
 BYTE   N06  En3  v060
 BYTE   W48
 BYTE   Ds3
 BYTE   W12
 BYTE   Fs3
 BYTE   W12
//  #05 //001   ----------------------------------------
Label_554FA3:
 BYTE   W24
 BYTE   N06  En3  v060
 BYTE   W36
 BYTE   Ds3
 BYTE   W12
 BYTE   En3
 BYTE   W12
 BYTE   Fs3
 BYTE   W12
 BYTE   PEND 
//  #05 //002   ----------------------------------------
Label_554FAF:
 BYTE   W24
 BYTE   N06  En3  v060
 BYTE   N06  Gn3
 BYTE   W48
 BYTE   Ds3
 BYTE   N06  Fs3
 BYTE   W24
 BYTE   PEND 
//  #05 //003   ----------------------------------------
Label_554FBB:
 BYTE   W12
 BYTE   N06  Gn3  v060
 BYTE   W06
 BYTE   Fs3
 BYTE   W06
 BYTE   En3
 BYTE   W06
 BYTE   Fs3
 BYTE   W06
 BYTE   Gn3
 BYTE   W06
 BYTE   Fs3
 BYTE   W06
 BYTE   Bn3
 BYTE   W12
 BYTE   An3
 BYTE   W12
 BYTE   Gn3
 BYTE   W12
 BYTE   Fs3
 BYTE   W12
 BYTE   PEND 
//  #05 //004   ----------------------------------------
 BYTE   W24
 BYTE   En3
 BYTE   W48
 BYTE   Ds3
 BYTE   W12
 BYTE   Fs3
 BYTE   W12
//  #05 //005   ----------------------------------------
 BYTE   PATT
  POIN2 Label_554FA3
//  #05 //006   ----------------------------------------
 BYTE   PATT
  POIN2 Label_554FAF
//  #05 //007   ----------------------------------------
 BYTE   PATT
  POIN2 Label_554FBB
//  #05 //008   ----------------------------------------
Label_554FE9:
 BYTE   N06  En2  v060
 BYTE   W18
 BYTE   N06
 BYTE   W30
 BYTE   N12  Bn1
 BYTE   W18
 BYTE   N05  Fs2
 BYTE   W30
 BYTE   PEND 
//  #05 //009   ----------------------------------------
 BYTE   PATT
  POIN2 Label_554FE9
//  #05 //010   ----------------------------------------
Label_554FFB:
 BYTE   N06  En2  v060
 BYTE   W18
 BYTE   N03
 BYTE   W30
 BYTE   N06  Cn2
 BYTE   W48
 BYTE   PEND 
//  #05 //011   ----------------------------------------
Label_555005:
 BYTE   N18  Gn1  v060
 BYTE   W18
 BYTE   N06  Gn2
 BYTE   W30
 BYTE   N24  Bn1
 BYTE   W48
 BYTE   PEND 
//  #05 //012   ----------------------------------------
 BYTE   PATT
  POIN2 Label_554FE9
//  #05 //013   ----------------------------------------
 BYTE   PATT
  POIN2 Label_554FE9
//  #05 //014   ----------------------------------------
 BYTE   PATT
  POIN2 Label_554FFB
//  #05 //015   ----------------------------------------
 BYTE   PATT
  POIN2 Label_555005
//  #05 //016   ----------------------------------------
 BYTE   W72
 BYTE   N06  En3  v060
 BYTE   W12
 BYTE   Fs3
 BYTE   W12
//  #05 //017   ----------------------------------------
 BYTE   Gn3
 BYTE   W36
 BYTE   An3
 BYTE   W06
 BYTE   Gn3
 BYTE   W12
 BYTE   Fs3
 BYTE   W12
 BYTE   En3
 BYTE   W18
 BYTE   Fs3
 BYTE   W12
//  #05 //018   ----------------------------------------
 BYTE   Gn3
 BYTE   W12
 BYTE   En3
 BYTE   W12
 BYTE   Gn3
 BYTE   W12
 BYTE   Bn3
 BYTE   W06
 BYTE   N06
 BYTE   W30
 BYTE   An3
 BYTE   W24
//  #05 //019   ----------------------------------------
 BYTE   W96
//  #05 //020   ----------------------------------------
 BYTE   W96
//  #05 //021   ----------------------------------------
 BYTE   N24  En3  v056
 BYTE   N24  Gn3
 BYTE   W48
 BYTE   Fs3
 BYTE   N24  An3
 BYTE   W48
//  #05 //022   ----------------------------------------
 BYTE   Gn3
 BYTE   N24  Bn3
 BYTE   W96
//  #05 //023   ----------------------------------------
 BYTE   W96
//  #05 //024   ----------------------------------------
 BYTE   W96
 BYTE   FINE

//**************** Track 6 (Midi-Chn.5) ****************//

DrawntoLifeWilfresTheme_006:
//  #06 //000   ----------------------------------------
 BYTE   VOL   80*DrawntoLifeWilfresTheme_mvl/mxv
 BYTE   KEYSH   DrawntoLifeWilfresTheme_key+0
 BYTE   VOICE   21
 BYTE   MODT 0
 BYTE   LFOS 44
 BYTE   W96
//  #06 //001   ----------------------------------------
 BYTE   W60
 BYTE   N06  Bn1  v084
 BYTE   W12
 BYTE   Gn2
 BYTE   W06
 BYTE   Fs2
 BYTE   W12
 BYTE   N18  Gn2
 BYTE   W06
//  #06 //002   ----------------------------------------
 BYTE   W12
 BYTE   N06  En2
 BYTE   W12
 BYTE   Bn1
 BYTE   W12
 BYTE   An1
 BYTE   W06
 BYTE   N12  Gn1
 BYTE   W18
 BYTE   N06
 BYTE   W12
 BYTE   Gn2
 BYTE   W06
 BYTE   Fs2
 BYTE   W12
 BYTE   N18  Gn2
 BYTE   W06
//  #06 //003   ----------------------------------------
 BYTE   W12
 BYTE   N06  En2
 BYTE   W12
 BYTE   Gn2
 BYTE   W12
 BYTE   An2
 BYTE   W06
 BYTE   N18  Fs2
 BYTE   W54
//  #06 //004   ----------------------------------------
 BYTE   W96
//  #06 //005   ----------------------------------------
 BYTE   W96
//  #06 //006   ----------------------------------------
 BYTE   W96
//  #06 //007   ----------------------------------------
 BYTE   W96
//  #06 //008   ----------------------------------------
 BYTE   W96
//  #06 //009   ----------------------------------------
 BYTE   W60
 BYTE   N06  Bn1  v088
 BYTE   W12
 BYTE   Gn2
 BYTE   N06  Bn2
 BYTE   W06
 BYTE   Fs2
 BYTE   N06  An2
 BYTE   W12
 BYTE   N18  Gn2
 BYTE   N18  Bn2
 BYTE   W06
//  #06 //010   ----------------------------------------
 BYTE   W12
 BYTE   N06  En2
 BYTE   W12
 BYTE   Bn1
 BYTE   W12
 BYTE   An1
 BYTE   W06
 BYTE   N12  Gn1
 BYTE   W18
 BYTE   N06
 BYTE   W12
 BYTE   Gn2
 BYTE   N06  Cn3
 BYTE   W06
 BYTE   Fs2
 BYTE   N06  Bn2
 BYTE   W12
 BYTE   N18  Gn2
 BYTE   N18  Cn3
 BYTE   W06
//  #06 //011   ----------------------------------------
 BYTE   W12
 BYTE   N06  En2
 BYTE   W12
 BYTE   Gn2
 BYTE   W12
 BYTE   An2
 BYTE   W06
 BYTE   N12  Bn2
 BYTE   W54
//  #06 //012   ----------------------------------------
 BYTE   W96
//  #06 //013   ----------------------------------------
 BYTE   W96
//  #06 //014   ----------------------------------------
 BYTE   W96
//  #06 //015   ----------------------------------------
 BYTE   W96
//  #06 //016   ----------------------------------------
 BYTE   W96
//  #06 //017   ----------------------------------------
 BYTE   W96
//  #06 //018   ----------------------------------------
 BYTE   W96
//  #06 //019   ----------------------------------------
 BYTE   W96
//  #06 //020   ----------------------------------------
 BYTE   W44
 BYTE   W01
 BYTE   BEND   c_v+0
 BYTE   W24
 BYTE   W03
 BYTE   N06  En2  v072
 BYTE   W06
 BYTE   BEND   c_v+0
 BYTE   W03
 BYTE   BEND   c_v+0
 BYTE   W03
 BYTE   N10  Fs2
 BYTE   W06
 BYTE   BEND   c_v+0
 BYTE   W03
 BYTE   BEND   c_v+0
 BYTE   W03
//  #06 //021   ----------------------------------------
 BYTE   BEND   c_v+0
 BYTE   N24
 BYTE   W01
 BYTE   BEND   c_v+1
 BYTE   W01
 BYTE   BEND   c_v+2
 BYTE   W01
 BYTE   BEND   c_v+3
 BYTE   W01
 BYTE   BEND   c_v+5
 BYTE   W01
 BYTE   BEND   c_v+7
 BYTE   W01
 BYTE   BEND   c_v+10
 BYTE   W01
 BYTE   BEND   c_v+14
 BYTE   W01
 BYTE   BEND   c_v+17
 BYTE   W01
 BYTE   BEND   c_v+21
 BYTE   W01
 BYTE   BEND   c_v+26
 BYTE   W01
 BYTE   BEND   c_v+30
 BYTE   W01
 BYTE   BEND   c_v+31
 BYTE   W03
 BYTE   BEND   c_v+31
 BYTE   W06
 BYTE   BEND   c_v+32
 BYTE   W03
 BYTE   BEND   c_v+32
 BYTE   W06
 BYTE   BEND   c_v+32
 BYTE   W01
 BYTE   BEND   c_v+32
 BYTE   W01
 BYTE   BEND   c_v+27
 BYTE   W01
 BYTE   BEND   c_v+17
 BYTE   W01
 BYTE   BEND   c_v+0
 BYTE   W02
 BYTE   N06  An2  v076
 BYTE   W06
 BYTE   Gn2
 BYTE   W12
 BYTE   Fs2
 BYTE   W12
 BYTE   En2  v080
 BYTE   W18
 BYTE   Fs2
 BYTE   W12
//  #06 //022   ----------------------------------------
 BYTE   Gn2
 BYTE   W12
 BYTE   En2
 BYTE   W12
 BYTE   Gn2
 BYTE   W12
 BYTE   Bn2  v084
 BYTE   W06
 BYTE   N21
 BYTE   W30
 BYTE   N06  An2
 BYTE   W24
//  #06 //023   ----------------------------------------
 BYTE   W96
//  #06 //024   ----------------------------------------
 BYTE   W96
 BYTE   FINE

//**************** Track 7 (Midi-Chn.6) ****************//

DrawntoLifeWilfresTheme_007:
//  #07 //000   ----------------------------------------
 BYTE   KEYSH   DrawntoLifeWilfresTheme_key+0
 BYTE   VOICE   6
 BYTE   MODT 0
 BYTE   LFOS 44
 BYTE   VOL   78*DrawntoLifeWilfresTheme_mvl/mxv
 BYTE   W96
//  #07 //001   ----------------------------------------
 BYTE   W96
//  #07 //002   ----------------------------------------
 BYTE   W96
//  #07 //003   ----------------------------------------
 BYTE   W96
//  #07 //004   ----------------------------------------
 BYTE   W96
//  #07 //005   ----------------------------------------
 BYTE   W96
//  #07 //006   ----------------------------------------
 BYTE   W96
//  #07 //007   ----------------------------------------
 BYTE   W96
//  #07 //008   ----------------------------------------
 BYTE   W96
//  #07 //009   ----------------------------------------
 BYTE   W96
//  #07 //010   ----------------------------------------
 BYTE   W96
//  #07 //011   ----------------------------------------
 BYTE   W96
//  #07 //012   ----------------------------------------
 BYTE   W96
//  #07 //013   ----------------------------------------
 BYTE   W96
//  #07 //014   ----------------------------------------
 BYTE   W96
//  #07 //015   ----------------------------------------
 BYTE   W96
//  #07 //016   ----------------------------------------
 BYTE   W96
//  #07 //017   ----------------------------------------
 BYTE   W96
//  #07 //018   ----------------------------------------
 BYTE   W96
//  #07 //019   ----------------------------------------
 BYTE   W96
//  #07 //020   ----------------------------------------
 BYTE   N06  Bn2  v040
 BYTE   W12
 BYTE   N06
 BYTE   W24
 BYTE   N06
 BYTE   W06
 BYTE   N06
 BYTE   W12
 BYTE   N06
 BYTE   W42
//  #07 //021   ----------------------------------------
 BYTE   W96
//  #07 //022   ----------------------------------------
 BYTE   W96
//  #07 //023   ----------------------------------------
 BYTE   W96
//  #07 //024   ----------------------------------------
 BYTE   W96
 BYTE   FINE

//**************** Track 8 (Midi-Chn.7) ****************//

DrawntoLifeWilfresTheme_008:
//  #08 //000   ----------------------------------------
 BYTE   KEYSH   DrawntoLifeWilfresTheme_key+0
 BYTE   VOICE   40
 BYTE   MODT 0
 BYTE   LFOS 44
 BYTE   VOL   59*DrawntoLifeWilfresTheme_mvl/mxv
 BYTE   W96
//  #08 //001   ----------------------------------------
 BYTE   W96
//  #08 //002   ----------------------------------------
 BYTE   W96
//  #08 //003   ----------------------------------------
 BYTE   W72
 BYTE   N12  En2  v084
 BYTE   W12
 BYTE   Fs2
 BYTE   W12
//  #08 //004   ----------------------------------------
 BYTE   N42  Gn2
 BYTE   W42
 BYTE   N06  An2
 BYTE   W06
 BYTE   N18  Gn2
 BYTE   W18
 BYTE   N06  Fs2
 BYTE   W06
 BYTE   N18  En2
 BYTE   W18
 BYTE   N06  Fs2
 BYTE   W06
//  #08 //005   ----------------------------------------
 BYTE   N18  En2
 BYTE   W72
 BYTE   N12  En3  v068
 BYTE   N12  En4
 BYTE   W12
 BYTE   Fs3
 BYTE   N12  Fs4
 BYTE   W12
//  #08 //006   ----------------------------------------
 BYTE   N42  Gn3
 BYTE   N42  Gn4
 BYTE   W42
 BYTE   N06  An3
 BYTE   N06  An4
 BYTE   W06
 BYTE   N18  Bn3
 BYTE   N18  Bn4
 BYTE   W18
 BYTE   N06  An3
 BYTE   N06  An4
 BYTE   W06
 BYTE   N18  Gn3
 BYTE   N18  Gn4
 BYTE   W18
 BYTE   N06  Bn3
 BYTE   N06  Bn4
 BYTE   W06
//  #08 //007   ----------------------------------------
 BYTE   N24  Cn4
 BYTE   N24  Cn5
 BYTE   W24
 BYTE   N18  Gn3
 BYTE   N18  Gn4
 BYTE   W36
 BYTE   N06  Fs3
 BYTE   N06  Fs4
 BYTE   W12
 BYTE   N24  Fs3
 BYTE   N24  Fs4
 BYTE   W24
//  #08 //008   ----------------------------------------
 BYTE   W96
//  #08 //009   ----------------------------------------
 BYTE   W96
//  #08 //010   ----------------------------------------
 BYTE   W96
//  #08 //011   ----------------------------------------
 BYTE   W96
//  #08 //012   ----------------------------------------
 BYTE   W96
//  #08 //013   ----------------------------------------
 BYTE   W72
 BYTE   N06  Gn3  v080
 BYTE   N06  Gn4
 BYTE   W06
 BYTE   Fs3
 BYTE   N06  Fs4
 BYTE   W12
 BYTE   N18  Gn3
 BYTE   N18  Gn4
 BYTE   W06
//  #08 //014   ----------------------------------------
 BYTE   W12
 BYTE   N06  En3
 BYTE   N06  En4
 BYTE   W12
 BYTE   Bn2
 BYTE   N06  Bn3
 BYTE   W12
 BYTE   An2
 BYTE   N06  An3
 BYTE   W06
 BYTE   N12  Gn2
 BYTE   N12  Gn3
 BYTE   W30
 BYTE   N06
 BYTE   N06  Gn4
 BYTE   W06
 BYTE   Fs3
 BYTE   N06  Fs4
 BYTE   W12
 BYTE   N18  Gn3
 BYTE   N18  Gn4
 BYTE   W06
//  #08 //015   ----------------------------------------
 BYTE   W12
 BYTE   N06  En3
 BYTE   N06  En4
 BYTE   W12
 BYTE   Gn3
 BYTE   N06  Gn4
 BYTE   W12
 BYTE   Bn3  v076
 BYTE   N06  Bn4
 BYTE   W06
 BYTE   N30  Fs3
 BYTE   N30  Fs4
 BYTE   W52
 BYTE   W01
 BYTE   N06  En3  v080
 BYTE   W01
//  #08 //016   ----------------------------------------
 BYTE   En4
 BYTE   W06
 BYTE   En3  v072
 BYTE   N06  En4
 BYTE   W06
 BYTE   En3  v056
 BYTE   N06  En4
 BYTE   W06
 BYTE   En3  v040
 BYTE   N06  En4
 BYTE   W06
 BYTE   En3  v028
 BYTE   N06  En4
 BYTE   W06
 BYTE   En3  v020
 BYTE   N06  En4  v016
 BYTE   W06
 BYTE   En3  v008
 BYTE   N06  En4
 BYTE   W06
 BYTE   En3  v004
 BYTE   N06  En4
 BYTE   W54
//  #08 //017   ----------------------------------------
 BYTE   En2  v060
 BYTE   N06  Bn2
 BYTE   W24
 BYTE   En2
 BYTE   N06  Bn2
 BYTE   W24
 BYTE   Ds2  v064
 BYTE   N06  Bn2
 BYTE   W24
 BYTE   Ds2
 BYTE   N06  Bn2
 BYTE   W24
//  #08 //018   ----------------------------------------
 BYTE   Dn2
 BYTE   N06  An2
 BYTE   W24
 BYTE   Dn2
 BYTE   N06  An2
 BYTE   W24
 BYTE   Cs2
 BYTE   N06  An2
 BYTE   W24
 BYTE   Cs2  v068
 BYTE   N06  An2
 BYTE   W12
 BYTE   Cs2
 BYTE   N06  An2
 BYTE   N06  En4  v064
 BYTE   W06
 BYTE   Cs2  v068
 BYTE   N06  An2
 BYTE   N06  Fs4  v064
 BYTE   W06
//  #08 //019   ----------------------------------------
 BYTE   Cn2  v068
 BYTE   N06  Gn2
 BYTE   N30  Gn4
 BYTE   W24
 BYTE   N06  Cn2
 BYTE   N06  Gn2
 BYTE   W12
 BYTE   An4
 BYTE   W06
 BYTE   N12  Gn4
 BYTE   W06
 BYTE   N06  Dn2
 BYTE   N06  An2
 BYTE   W06
 BYTE   Fs4  v072
 BYTE   W12
 BYTE   En4
 BYTE   W06
 BYTE   N12  Dn2  v068
 BYTE   N06  An2
 BYTE   W06
 BYTE   N12  Dn4  v072
 BYTE   W18
//  #08 //020   ----------------------------------------
 BYTE   N06  Dn2  v068
 BYTE   N06  Bn2
 BYTE   N06  Bn3  v072
 BYTE   W12
 BYTE   Bn3  v076
 BYTE   W12
 BYTE   Dn2  v072
 BYTE   N06  Bn2
 BYTE   N06  Gn3  v104
 BYTE   W06
 BYTE   Dn2  v072
 BYTE   N06  Bn2
 BYTE   N06  Gn3  v084
 BYTE   W06
 BYTE   Dn2  v072
 BYTE   N06  Bn2
 BYTE   N06  An3  v088
 BYTE   W06
 BYTE   Ds2  v072
 BYTE   N06  Bn2
 BYTE   N18  Bn3  v112
 BYTE   W12
 BYTE   N06  Ds2  v072
 BYTE   N06  Bn2
 BYTE   W12
 BYTE   Ds2
 BYTE   N06  Bn2
 BYTE   W12
 BYTE   Ds2
 BYTE   N06  Bn2
 BYTE   W12
 BYTE   Ds2
 BYTE   N06  Bn2
 BYTE   W06
//  #08 //021   ----------------------------------------
 BYTE   W96
//  #08 //022   ----------------------------------------
 BYTE   W84
 BYTE   En3
 BYTE   W06
 BYTE   Fs3
 BYTE   W06
//  #08 //023   ----------------------------------------
 BYTE   N12  Gn3
 BYTE   W36
 BYTE   N06  An3
 BYTE   W06
 BYTE   N12  Gn3
 BYTE   W12
 BYTE   N06  Fs3
 BYTE   W12
 BYTE   En3
 BYTE   W12
 BYTE   N12  Dn3
 BYTE   W18
//  #08 //024   ----------------------------------------
 BYTE   N06  Bn2
 BYTE   W12
 BYTE   N06
 BYTE   W12
 BYTE   Gn2
 BYTE   W06
 BYTE   N06
 BYTE   W06
 BYTE   An2
 BYTE   W06
 BYTE   N12  Bn2
 BYTE   W54
 BYTE   FINE

//**************** Track 9 (Midi-Chn.8) ****************//

DrawntoLifeWilfresTheme_009:
//  #09 //000   ----------------------------------------
 BYTE   VOL   80*DrawntoLifeWilfresTheme_mvl/mxv
 BYTE   KEYSH   DrawntoLifeWilfresTheme_key+0
 BYTE   VOICE   71
 BYTE   MODT 0
 BYTE   LFOS 44
 BYTE   W96
//  #09 //001   ----------------------------------------
 BYTE   W96
//  #09 //002   ----------------------------------------
 BYTE   W96
//  #09 //003   ----------------------------------------
 BYTE   W96
//  #09 //004   ----------------------------------------
 BYTE   W96
//  #09 //005   ----------------------------------------
 BYTE   W96
//  #09 //006   ----------------------------------------
 BYTE   W96
//  #09 //007   ----------------------------------------
 BYTE   W96
//  #09 //008   ----------------------------------------
 BYTE   W21
 BYTE   N05  Bn2  v056
 BYTE   W01
 BYTE   En3
 BYTE   W02
 BYTE   N03  Gn3
 BYTE   W12
 BYTE   Bn2
 BYTE   N03  En3
 BYTE   N04  Gn3
 BYTE   W32
 BYTE   W01
 BYTE   N06  Ds3
 BYTE   W01
 BYTE   Fs3
 BYTE   W02
 BYTE   N05  Bn3
 BYTE   W24
//  #09 //009   ----------------------------------------
 BYTE   W21
 BYTE   Bn2
 BYTE   W01
 BYTE   En3
 BYTE   W02
 BYTE   N03  Gn3
 BYTE   W12
 BYTE   Bn2
 BYTE   N03  En3
 BYTE   N04  Gn3
 BYTE   W30
 BYTE   W01
 BYTE   N06  Bn2
 BYTE   W02
 BYTE   Ds3
 BYTE   W01
 BYTE   Fs3
 BYTE   W02
 BYTE   N05  Bn3
 BYTE   W24
//  #09 //010   ----------------------------------------
 BYTE   W18
 BYTE   N09  Bn2
 BYTE   W03
 BYTE   N08  En3
 BYTE   W03
 BYTE   N04  Gn3
 BYTE   W12
 BYTE   N02  Bn2
 BYTE   N03  En3
 BYTE   N04  Gn3
 BYTE   W30
 BYTE   N07  En3
 BYTE   W03
 BYTE   N05  Gn3
 BYTE   W03
 BYTE   Cn4
 BYTE   W12
 BYTE   N03  En3
 BYTE   N03  Gn3
 BYTE   N02  Cn4
 BYTE   W12
//  #09 //011   ----------------------------------------
 BYTE   W21
 BYTE   N04  Dn3
 BYTE   W01
 BYTE   Gn3
 BYTE   W02
 BYTE   N03  Bn3
 BYTE   W12
 BYTE   N01  Dn3
 BYTE   N02  Gn3
 BYTE   N02  Bn3
 BYTE   W30
 BYTE   N07  Bn2
 BYTE   W03
 BYTE   N04  Ds3
 BYTE   W01
 BYTE   N03  Fs3
 BYTE   W02
 BYTE   Bn3
 BYTE   W24
//  #09 //012   ----------------------------------------
 BYTE   W21
 BYTE   N05  Bn2
 BYTE   W01
 BYTE   En3
 BYTE   W02
 BYTE   N03  Gn3
 BYTE   W12
 BYTE   Bn2
 BYTE   N03  En3
 BYTE   N04  Gn3
 BYTE   W32
 BYTE   W01
 BYTE   Ds3
 BYTE   W01
 BYTE   Fs3
 BYTE   W02
 BYTE   N05  Bn3
 BYTE   W24
//  #09 //013   ----------------------------------------
 BYTE   W21
 BYTE   N04  Bn2
 BYTE   W01
 BYTE   En3
 BYTE   W02
 BYTE   N03  Gn3
 BYTE   W12
 BYTE   Bn2
 BYTE   N03  En3
 BYTE   N04  Gn3
 BYTE   W30
 BYTE   W01
 BYTE   Bn2
 BYTE   W02
 BYTE   Ds3
 BYTE   W01
 BYTE   Fs3
 BYTE   W02
 BYTE   N05  Bn3
 BYTE   W24
//  #09 //014   ----------------------------------------
 BYTE   W18
 BYTE   N09  Bn2
 BYTE   W03
 BYTE   N08  En3
 BYTE   W03
 BYTE   N04  Gn3
 BYTE   W12
 BYTE   N02  Bn2
 BYTE   N03  En3
 BYTE   N04  Gn3
 BYTE   W30
 BYTE   En3
 BYTE   W03
 BYTE   N03  Gn3
 BYTE   W03
 BYTE   Cn4
 BYTE   W12
 BYTE   En3
 BYTE   N03  Gn3
 BYTE   N02  Cn4
 BYTE   W12
//  #09 //015   ----------------------------------------
 BYTE   W21
 BYTE   N03  Dn3
 BYTE   W01
 BYTE   N02  Gn3
 BYTE   W02
 BYTE   N03  Bn3
 BYTE   W12
 BYTE   N01  Dn3
 BYTE   N02  Gn3
 BYTE   N02  Bn3
 BYTE   W30
 BYTE   N03  Bn2
 BYTE   W03
 BYTE   Ds3
 BYTE   W01
 BYTE   Fs3
 BYTE   W02
 BYTE   Bn3
 BYTE   W24
//  #09 //016   ----------------------------------------
 BYTE   W96
//  #09 //017   ----------------------------------------
 BYTE   W96
//  #09 //018   ----------------------------------------
 BYTE   W96
//  #09 //019   ----------------------------------------
 BYTE   W96
//  #09 //020   ----------------------------------------
 BYTE   W96
//  #09 //021   ----------------------------------------
 BYTE   W96
//  #09 //022   ----------------------------------------
 BYTE   W84
 BYTE   N06  En3  v072
 BYTE   W06
 BYTE   Fs3
 BYTE   W06
//  #09 //023   ----------------------------------------
 BYTE   N12  Gn3
 BYTE   W36
 BYTE   N06  An3
 BYTE   W06
 BYTE   N12  Gn3
 BYTE   W12
 BYTE   N06  Fs3
 BYTE   W12
 BYTE   En3
 BYTE   W12
 BYTE   N12  Dn3
 BYTE   W18
//  #09 //024   ----------------------------------------
 BYTE   N06  Bn2
 BYTE   W12
 BYTE   N06
 BYTE   W12
 BYTE   Gn2
 BYTE   W06
 BYTE   N06
 BYTE   W06
 BYTE   An2
 BYTE   W06
 BYTE   N12  Bn2
 BYTE   W54
 BYTE   FINE

//**************** Track 10 (Midi-Chn.9) ****************//

DrawntoLifeWilfresTheme_010:
//  #10 //000   ----------------------------------------
 BYTE   KEYSH   DrawntoLifeWilfresTheme_key+0
 BYTE   VOICE   41
 BYTE   MODT 0
 BYTE   LFOS 44
 BYTE   VOL   57*DrawntoLifeWilfresTheme_mvl/mxv
 BYTE   W96
//  #10 //001   ----------------------------------------
 BYTE   W96
//  #10 //002   ----------------------------------------
 BYTE   W96
//  #10 //003   ----------------------------------------
 BYTE   W96
//  #10 //004   ----------------------------------------
 BYTE   W96
//  #10 //005   ----------------------------------------
 BYTE   W96
//  #10 //006   ----------------------------------------
 BYTE   W96
//  #10 //007   ----------------------------------------
 BYTE   W96
//  #10 //008   ----------------------------------------
Label_554906:
 BYTE   N42  En3  v036
 BYTE   N42  Gn3
 BYTE   N42  Bn3
 BYTE   W48
 BYTE   Ds3
 BYTE   N42  Fs3
 BYTE   N42  Bn3
 BYTE   W48
 BYTE   PEND 
//  #10 //009   ----------------------------------------
Label_554915:
 BYTE   N42  En3  v040
 BYTE   N42  Gn3
 BYTE   N42  Bn3
 BYTE   W48
 BYTE   Ds3
 BYTE   N42  Fs3
 BYTE   N42  Bn3
 BYTE   W48
 BYTE   PEND 
//  #10 //010   ----------------------------------------
 BYTE   En3  v048
 BYTE   N42  Bn3
 BYTE   W48
 BYTE   En3  v052
 BYTE   N42  Gn3
 BYTE   N42  Cn4
 BYTE   W48
//  #10 //011   ----------------------------------------
 BYTE   Dn3
 BYTE   N42  Bn3
 BYTE   W48
 BYTE   N48  Ds3  v064
 BYTE   N48  Fs3
 BYTE   N48  Bn3
 BYTE   W48
//  #10 //012   ----------------------------------------
 BYTE   PATT
  POIN2 Label_554906
//  #10 //013   ----------------------------------------
 BYTE   PATT
  POIN2 Label_554915
//  #10 //014   ----------------------------------------
 BYTE   N42  En3  v048
 BYTE   N42  Bn3
 BYTE   W48
 BYTE   En3  v052
 BYTE   N42  Cn4
 BYTE   W48
//  #10 //015   ----------------------------------------
 BYTE   Dn3
 BYTE   N42  Bn3
 BYTE   W48
 BYTE   N48  Ds3  v064
 BYTE   N48  Bn3
 BYTE   W48
//  #10 //016   ----------------------------------------
 BYTE   W96
//  #10 //017   ----------------------------------------
 BYTE   W96
//  #10 //018   ----------------------------------------
 BYTE   W96
//  #10 //019   ----------------------------------------
 BYTE   W96
//  #10 //020   ----------------------------------------
 BYTE   W96
//  #10 //021   ----------------------------------------
 BYTE   W96
//  #10 //022   ----------------------------------------
 BYTE   W96
//  #10 //023   ----------------------------------------
 BYTE   W96
//  #10 //024   ----------------------------------------
 BYTE   W96
 BYTE   FINE

//**************** Track 11 (Midi-Chn.10) ****************//

DrawntoLifeWilfresTheme_011:
//  #11 //000   ----------------------------------------
 BYTE   KEYSH   DrawntoLifeWilfresTheme_key+0
 BYTE   VOICE   24
 BYTE   MODT 0
 BYTE   LFOS 44
 BYTE   PAN   c_v+2
 BYTE   VOL   78*DrawntoLifeWilfresTheme_mvl/mxv
 BYTE   W72
 BYTE   N04  Dn1  v076
 BYTE   W12
 BYTE   N03
 BYTE   W12
//  #11 //001   ----------------------------------------
 BYTE   W96
//  #11 //002   ----------------------------------------
 BYTE   W96
//  #11 //003   ----------------------------------------
 BYTE   W60
 BYTE   N30  Fn0  v040
 BYTE   W36
//  #11 //004   ----------------------------------------
 BYTE   W96
//  #11 //005   ----------------------------------------
Label_554AEB:
 BYTE   W72
 BYTE   N04  Dn1  v076
 BYTE   W12
 BYTE   N03
 BYTE   W12
 BYTE   PEND 
//  #11 //006   ----------------------------------------
 BYTE   W96
//  #11 //007   ----------------------------------------
 BYTE   W96
//  #11 //008   ----------------------------------------
 BYTE   W96
//  #11 //009   ----------------------------------------
 BYTE   W96
//  #11 //010   ----------------------------------------
 BYTE   W96
//  #11 //011   ----------------------------------------
 BYTE   PATT
  POIN2 Label_554AEB
//  #11 //012   ----------------------------------------
 BYTE   W96
//  #11 //013   ----------------------------------------
 BYTE   W96
//  #11 //014   ----------------------------------------
 BYTE   W96
//  #11 //015   ----------------------------------------
 BYTE   W96
//  #11 //016   ----------------------------------------
 BYTE   PATT
  POIN2 Label_554AEB
//  #11 //017   ----------------------------------------
 BYTE   W96
//  #11 //018   ----------------------------------------
 BYTE   W96
//  #11 //019   ----------------------------------------
 BYTE   W96
//  #11 //020   ----------------------------------------
 BYTE   W96
//  #11 //021   ----------------------------------------
 BYTE   W96
//  #11 //022   ----------------------------------------
 BYTE   W96
//  #11 //023   ----------------------------------------
 BYTE   W96
//  #11 //024   ----------------------------------------
 BYTE   W60
 BYTE   N08  Gn0  v036
 BYTE   W36
 BYTE   FINE

//**************** Track 12 (Midi-Chn.11) ****************//

DrawntoLifeWilfresTheme_012:
//  #12 //000   ----------------------------------------
 BYTE   VOL   80*DrawntoLifeWilfresTheme_mvl/mxv
 BYTE   KEYSH   DrawntoLifeWilfresTheme_key+0
 BYTE   VOICE   13
 BYTE   MODT 0
 BYTE   LFOS 44
 BYTE   W96
//  #12 //001   ----------------------------------------
 BYTE   W96
//  #12 //002   ----------------------------------------
Label_555168:
 BYTE   W72
 BYTE   N04  Dn0  v076
 BYTE   W12
 BYTE   N03
 BYTE   W12
 BYTE   PEND 
//  #12 //003   ----------------------------------------
 BYTE   W36
 BYTE   N07  GnM1
 BYTE   W60
//  #12 //004   ----------------------------------------
 BYTE   W96
//  #12 //005   ----------------------------------------
 BYTE   W96
//  #12 //006   ----------------------------------------
 BYTE   W96
//  #12 //007   ----------------------------------------
 BYTE   W96
//  #12 //008   ----------------------------------------
 BYTE   W96
//  #12 //009   ----------------------------------------
 BYTE   PATT
  POIN2 Label_555168
//  #12 //010   ----------------------------------------
 BYTE   W96
//  #12 //011   ----------------------------------------
 BYTE   W96
//  #12 //012   ----------------------------------------
 BYTE   W96
//  #12 //013   ----------------------------------------
 BYTE   PATT
  POIN2 Label_555168
//  #12 //014   ----------------------------------------
 BYTE   W96
//  #12 //015   ----------------------------------------
 BYTE   W96
//  #12 //016   ----------------------------------------
 BYTE   W96
//  #12 //017   ----------------------------------------
 BYTE   W96
//  #12 //018   ----------------------------------------
 BYTE   W96
//  #12 //019   ----------------------------------------
 BYTE   W96
//  #12 //020   ----------------------------------------
 BYTE   W96
//  #12 //021   ----------------------------------------
 BYTE   W96
//  #12 //022   ----------------------------------------
 BYTE   W96
//  #12 //023   ----------------------------------------
 BYTE   W96
//  #12 //024   ----------------------------------------
 BYTE   PATT
  POIN2 Label_555168
 BYTE   FINE

//**************** Track 13 (Midi-Chn.12) ****************//

DrawntoLifeWilfresTheme_013:
//  #13 //000   ----------------------------------------
 BYTE   VOL   80*DrawntoLifeWilfresTheme_mvl/mxv
 BYTE   KEYSH   DrawntoLifeWilfresTheme_key+0
 BYTE   VOICE   36
 BYTE   MODT 0
 BYTE   LFOS 44
 BYTE   PAN   c_v-1
 BYTE   W96
//  #13 //001   ----------------------------------------
 BYTE   W96
//  #13 //002   ----------------------------------------
 BYTE   W96
//  #13 //003   ----------------------------------------
Label_016108FB:
 BYTE   W72
 BYTE   N03  Dn3  v012
 BYTE   W03
 BYTE   Dn3  v016
 BYTE   W03
 BYTE   N03
 BYTE   W03
 BYTE   Dn3  v020
 BYTE   W03
 BYTE   Dn3  v024
 BYTE   W03
 BYTE   Dn3  v032
 BYTE   W03
 BYTE   Dn3  v040
 BYTE   W03
 BYTE   Dn3  v056
 BYTE   W03
 BYTE   PEND 
//  #13 //004   ----------------------------------------
 BYTE   W96
//  #13 //005   ----------------------------------------
 BYTE   W96
//  #13 //006   ----------------------------------------
 BYTE   W96
//  #13 //007   ----------------------------------------
 BYTE   PATT
  POIN2 Label_016108FB
//  #13 //008   ----------------------------------------
 BYTE   W96
//  #13 //009   ----------------------------------------
 BYTE   W96
//  #13 //010   ----------------------------------------
 BYTE   W96
//  #13 //011   ----------------------------------------
 BYTE   W96
//  #13 //012   ----------------------------------------
 BYTE   W96
//  #13 //013   ----------------------------------------
 BYTE   W96
//  #13 //014   ----------------------------------------
 BYTE   W96
//  #13 //015   ----------------------------------------
 BYTE   W96
//  #13 //016   ----------------------------------------
 BYTE   W24
 BYTE   N03  Dn3  v012
 BYTE   W03
 BYTE   Dn3  v016
 BYTE   W03
 BYTE   N03
 BYTE   W03
 BYTE   Dn3  v020
 BYTE   W21
 BYTE   En1  v044
 BYTE   W18
 BYTE   Dn3  v012
 BYTE   W03
 BYTE   Dn3  v016
 BYTE   W03
 BYTE   N03
 BYTE   W03
 BYTE   Dn3  v020
 BYTE   W03
 BYTE   Dn3  v024
 BYTE   W03
 BYTE   Dn3  v032
 BYTE   W03
 BYTE   Dn3  v040
 BYTE   W03
 BYTE   Dn3  v056
 BYTE   W03
//  #13 //017   ----------------------------------------
 BYTE   W96
//  #13 //018   ----------------------------------------
 BYTE   W96
//  #13 //019   ----------------------------------------
 BYTE   W12
 BYTE   En1  v088
 BYTE   W06
 BYTE   N04
 BYTE   W36
 BYTE   N03
 BYTE   W12
 BYTE   N03
 BYTE   W30
//  #13 //020   ----------------------------------------
 BYTE   N02
 BYTE   W12
 BYTE   N04
 BYTE   W84
//  #13 //021   ----------------------------------------
 BYTE   W96
//  #13 //022   ----------------------------------------
 BYTE   W96
//  #13 //023   ----------------------------------------
 BYTE   W96
//  #13 //024   ----------------------------------------
 BYTE   W96
 BYTE   FINE

//**************** Track 14 (Midi-Chn.13) ****************//

DrawntoLifeWilfresTheme_014:
//  #14 //000   ----------------------------------------
 BYTE   KEYSH   DrawntoLifeWilfresTheme_key+0
 BYTE   VOICE   127
 BYTE   MODT 0
 BYTE   LFOS 44
 BYTE   VOL   57*DrawntoLifeWilfresTheme_mvl/mxv
 BYTE   W96
//  #14 //001   ----------------------------------------
 BYTE   W96
//  #14 //002   ----------------------------------------
 BYTE   W96
//  #14 //003   ----------------------------------------
 BYTE   W96
//  #14 //004   ----------------------------------------
 BYTE   W96
//  #14 //005   ----------------------------------------
 BYTE   W96
//  #14 //006   ----------------------------------------
 BYTE   W96
//  #14 //007   ----------------------------------------
 BYTE   W96
//  #14 //008   ----------------------------------------
 BYTE   W96
//  #14 //009   ----------------------------------------
 BYTE   W96
//  #14 //010   ----------------------------------------
 BYTE   W96
//  #14 //011   ----------------------------------------
 BYTE   W96
//  #14 //012   ----------------------------------------
 BYTE   W96
//  #14 //013   ----------------------------------------
 BYTE   W96
//  #14 //014   ----------------------------------------
 BYTE   W96
//  #14 //015   ----------------------------------------
 BYTE   W96
//  #14 //016   ----------------------------------------
 BYTE   W36
 BYTE   N12  Ds2  v048
 BYTE   W06
 BYTE   N03  En1  v060
 BYTE   W24
 BYTE   N02  En1  v032
 BYTE   W30
//  #14 //017   ----------------------------------------
 BYTE   W96
//  #14 //018   ----------------------------------------
 BYTE   W96
//  #14 //019   ----------------------------------------
 BYTE   W30
 BYTE   N03  En1  v088
 BYTE   W12
 BYTE   N03
 BYTE   W36
 BYTE   N02
 BYTE   W06
 BYTE   N02
 BYTE   W06
 BYTE   N02
 BYTE   W06
//  #14 //020   ----------------------------------------
 BYTE   W06
 BYTE   N02
 BYTE   W90
//  #14 //021   ----------------------------------------
 BYTE   W96
//  #14 //022   ----------------------------------------
 BYTE   W96
//  #14 //023   ----------------------------------------
 BYTE   W96
//  #14 //024   ----------------------------------------
 BYTE   W96
 BYTE   FINE

//******************************************************//
	ALIGN 4

DrawntoLifeWilfresTheme:
	BYTE	14	// NumTrks
	BYTE	0	// NumBlks
	BYTE	DrawntoLifeWilfresTheme_pri	// Priority
	BYTE	DrawntoLifeWilfresTheme_rev	// Reverb.
    
	POIN2	DrawntoLifeWilfresTheme_grp
    
	POIN2	DrawntoLifeWilfresTheme_001
	POIN2	DrawntoLifeWilfresTheme_002
	POIN2	DrawntoLifeWilfresTheme_003
	POIN2	DrawntoLifeWilfresTheme_004
	POIN2	DrawntoLifeWilfresTheme_005
	POIN2	DrawntoLifeWilfresTheme_006
	POIN2	DrawntoLifeWilfresTheme_007
	POIN2	DrawntoLifeWilfresTheme_008
	POIN2	DrawntoLifeWilfresTheme_009
	POIN2	DrawntoLifeWilfresTheme_010
	POIN2	DrawntoLifeWilfresTheme_011
	POIN2	DrawntoLifeWilfresTheme_012
	POIN2	DrawntoLifeWilfresTheme_013
	POIN2	DrawntoLifeWilfresTheme_014

	
