//Event file generated from Sappy .s format.
	#include "MPlayDef.event"

	#define	KHCoMHandinHandAzula_grp  voicegroup000
	#define	KHCoMHandinHandAzula_pri  0
	#define	KHCoMHandinHandAzula_rev  0
	#define	KHCoMHandinHandAzula_mvl  127
	#define	KHCoMHandinHandAzula_key  0
	#define	KHCoMHandinHandAzula_tbs  1
	#define	KHCoMHandinHandAzula_exg  0
	#define	KHCoMHandinHandAzula_cmp  1

	// .rodata
	//	KHCoMHandinHandAzula
	ALIGN 4


//**************** Track 1 (Midi-Chn.0) ****************//

KHCoMHandinHandAzula_001:
//  #01 //000   ----------------------------------------
 BYTE   KEYSH   KHCoMHandinHandAzula_key+0
 BYTE   TEMPO   148*KHCoMHandinHandAzula_tbs/2
 BYTE   VOICE   48
 BYTE   MODT 0
 BYTE   LFOS 44
 BYTE   VOL   66*KHCoMHandinHandAzula_mvl/mxv
 BYTE   PAN   c_v+0
 BYTE   TIE  Cs1  v052
 BYTE   TIE  Gs3  v036
 BYTE   W96
//  #01 //001   ----------------------------------------
 BYTE   W96
//  #01 //002   ----------------------------------------
 BYTE   EOT
 BYTE   Cs1
 BYTE   N96  Cs4  v052
 BYTE   W96
//  #01 //003   ----------------------------------------
 BYTE   EOT
 BYTE   Gs3
 BYTE   N96  Fn4
 BYTE   N96  Gs4  v060
 BYTE   W96
//  #01 //004   ----------------------------------------
Label_55D06C:
 BYTE   N36  Fn2  v076
 BYTE   N36  Gs2  v080
 BYTE   W36
 BYTE   Gs2  v076
 BYTE   N36  Cs3  v080
 BYTE   W36
 BYTE   N24  Fn3  v076
 BYTE   N24  Gs3  v080
 BYTE   W24
 BYTE   PEND 
//  #01 //005   ----------------------------------------
Label_55D081:
 BYTE   N36  Ds3  v076
 BYTE   N36  Fs3  v080
 BYTE   W36
 BYTE   N60  Cs3  v076
 BYTE   N60  Fn3  v080
 BYTE   W60
 BYTE   PEND 
//  #01 //006   ----------------------------------------
Label_55D090:
 BYTE   N36  Ds3  v076
 BYTE   N36  Fs3  v080
 BYTE   W36
 BYTE   Gs2  v076
 BYTE   N36  Ds3  v080
 BYTE   W36
 BYTE   TIE  Gs2  v076
 BYTE   TIE  Fn3  v080
 BYTE   W24
 BYTE   PEND 
//  #01 //007   ----------------------------------------
 BYTE   W84
 BYTE   EOT
 BYTE   Gs2  v065
 BYTE   W12
//  #01 //008   ----------------------------------------
Label_55D0AA:
 BYTE   N44  Cs4  v072
 BYTE   N44  Fs4  v080
 BYTE   W48
 BYTE   N15  Cs4  v072
 BYTE   N15  En4  v080
 BYTE   W24
 BYTE   N44  Cs4  v072
 BYTE   N44  Fs4  v080
 BYTE   W24
 BYTE   PEND 
//  #01 //009   ----------------------------------------
 BYTE   W24
 BYTE   N15  Cs4  v072
 BYTE   N15  En4  v080
 BYTE   W24
 BYTE   N21  An3
 BYTE   N21  Ds4
 BYTE   W24
 BYTE   An3
 BYTE   N21  Cs4
 BYTE   W24
//  #01 //010   ----------------------------------------
 BYTE   PATT
  POIN2 Label_55D0AA
//  #01 //011   ----------------------------------------
Label_55D0D6:
 BYTE   W24
 BYTE   N15  Cs4  v072
 BYTE   N15  En4  v080
 BYTE   W24
 BYTE   N21  An3  v072
 BYTE   N21  Ds4  v080
 BYTE   W24
 BYTE   An3  v072
 BYTE   N21  Cs4  v080
 BYTE   W24
 BYTE   PEND 
//  #01 //012   ----------------------------------------
 BYTE   PATT
  POIN2 Label_55D06C
//  #01 //013   ----------------------------------------
 BYTE   PATT
  POIN2 Label_55D081
//  #01 //014   ----------------------------------------
 BYTE   PATT
  POIN2 Label_55D090
//  #01 //015   ----------------------------------------
 BYTE   W84
 BYTE   EOT
 BYTE   Gs2  v065
 BYTE   W12
//  #01 //016   ----------------------------------------
 BYTE   PATT
  POIN2 Label_55D0AA
//  #01 //017   ----------------------------------------
 BYTE   PATT
  POIN2 Label_55D0D6
//  #01 //018   ----------------------------------------
 BYTE   PATT
  POIN2 Label_55D0AA
//  #01 //019   ----------------------------------------
 BYTE   PATT
  POIN2 Label_55D0D6
//  #01 //020   ----------------------------------------
 BYTE   TIE  Dn3  v056
 BYTE   TIE  Fs3
 BYTE   W96
//  #01 //021   ----------------------------------------
 BYTE   W92
 BYTE   W01
 BYTE   EOT
 BYTE   Dn3  v066
 BYTE   W03
//  #01 //022   ----------------------------------------
 BYTE   N92  Dn3
 BYTE   N92  Fs3
 BYTE   W96
//  #01 //023   ----------------------------------------
 BYTE   Dn3
 BYTE   N92  Gn3
 BYTE   W96
//  #01 //024   ----------------------------------------
 BYTE   TIE  Fn3
 BYTE   TIE  An3
 BYTE   W96
//  #01 //025   ----------------------------------------
 BYTE   W92
 BYTE   W01
 BYTE   EOT
 BYTE   Fn3  v069
 BYTE   W03
//  #01 //026   ----------------------------------------
 BYTE   N92  Dn3
 BYTE   N92  Fs3
 BYTE   W96
//  #01 //027   ----------------------------------------
 BYTE   N68  En3
 BYTE   N68  Gn3
 BYTE   W72
 BYTE   N03  En3  v088
 BYTE   W03
 BYTE   Fs3
 BYTE   W03
 BYTE   Gn3  v100
 BYTE   W03
 BYTE   An3
 BYTE   W03
 BYTE   Bn3  v104
 BYTE   W03
 BYTE   Cn4
 BYTE   W03
 BYTE   Dn4  v112
 BYTE   W03
 BYTE   En4
 BYTE   W03
//  #01 //028   ----------------------------------------
 BYTE   N44  Bn3  v076
 BYTE   N44  Fs4  v088
 BYTE   W48
 BYTE   N15  Bn3  v076
 BYTE   N15  En4  v088
 BYTE   W24
 BYTE   N44  Bn3  v076
 BYTE   N44  Fs4  v088
 BYTE   W24
//  #01 //029   ----------------------------------------
 BYTE   W24
 BYTE   N15  Bn3  v076
 BYTE   N15  En4  v088
 BYTE   W24
 BYTE   N21  Bn3  v076
 BYTE   N21  Ds4  v088
 BYTE   W24
 BYTE   Bn3  v076
 BYTE   N21  En4  v088
 BYTE   W24
//  #01 //030   ----------------------------------------
 BYTE   N44  En4  v076
 BYTE   N44  An4  v088
 BYTE   W48
 BYTE   N15  En4  v076
 BYTE   N15  Gn4  v088
 BYTE   W24
 BYTE   N44  En4  v076
 BYTE   N44  An4  v088
 BYTE   W24
//  #01 //031   ----------------------------------------
 BYTE   W24
 BYTE   N15  En4  v076
 BYTE   N15  Gn4  v088
 BYTE   W24
 BYTE   N21  En4  v076
 BYTE   N21  Fs4  v088
 BYTE   W24
 BYTE   En4  v076
 BYTE   N21  Gn4  v088
 BYTE   W24
//  #01 //032   ----------------------------------------
 BYTE   N08  Bn0  v048
 BYTE   N08  Fs1
 BYTE   W08
 BYTE   N08
 BYTE   N08  Bn1
 BYTE   W08
 BYTE   N08
 BYTE   N08  Fs2
 BYTE   W08
 BYTE   Fs1
 BYTE   N08  Bn1  v052
 BYTE   W08
 BYTE   Bn1  v048
 BYTE   N08  Fs2  v052
 BYTE   W08
 BYTE   Fs2  v048
 BYTE   N08  Bn2  v052
 BYTE   W08
 BYTE   Bn1  v048
 BYTE   N08  Fs2  v060
 BYTE   W08
 BYTE   Fs2  v048
 BYTE   N08  Bn2  v060
 BYTE   W08
 BYTE   Bn2  v048
 BYTE   N08  Fs3  v060
 BYTE   W08
 BYTE   Fs2  v052
 BYTE   N08  Bn2  v060
 BYTE   N08  Fs3  v056
 BYTE   W08
 BYTE   Bn2  v052
 BYTE   N08  Fs3  v060
 BYTE   N08  Bn3  v056
 BYTE   W08
 BYTE   Fs3  v052
 BYTE   N08  Bn3  v060
 BYTE   N08  Fs4  v056
 BYTE   W08
//  #01 //033   ----------------------------------------
 BYTE   TIE  En4  v036
 BYTE   TIE  Fs4
 BYTE   TIE  Bn4
 BYTE   W96
//  #01 //034   ----------------------------------------
 BYTE   W92
 BYTE   W01
 BYTE   EOT
 BYTE   En4  v078
 BYTE   Bn4
 BYTE   W03
//  #01 //035   ----------------------------------------
 BYTE   PATT
  POIN2 Label_55D06C
//  #01 //036   ----------------------------------------
 BYTE   N36  Ds3  v076
 BYTE   N36  Fs3  v080
 BYTE   W36
 BYTE   TIE  Cs3  v076
 BYTE   TIE  Fn3  v080
 BYTE   W60
//  #01 //037   ----------------------------------------
 BYTE   W96
//  #01 //038   ----------------------------------------
 BYTE   W68
 BYTE   W01
 BYTE   EOT
 BYTE   Cs3  v065
 BYTE   W24
 BYTE   W03
//  #01 //039   ----------------------------------------
 BYTE   N36  Ds2  v076
 BYTE   N36  Fs2  v080
 BYTE   W36
 BYTE   Fs2  v076
 BYTE   N36  Bn2  v080
 BYTE   W36
 BYTE   N24  Ds3  v076
 BYTE   N24  Fs3  v080
 BYTE   W24
//  #01 //040   ----------------------------------------
 BYTE   N36  Cs3  v076
 BYTE   N36  En3  v080
 BYTE   W36
 BYTE   TIE  Bn2  v076
 BYTE   TIE  Ds3  v080
 BYTE   W60
//  #01 //041   ----------------------------------------
 BYTE   W48
 BYTE   EOT
 BYTE   Bn2  v063
 BYTE   W48
//  #01 //042   ----------------------------------------
 BYTE   W96
//  #01 //043   ----------------------------------------
 BYTE   GoTo
  POIN2 Label_55D06C
 BYTE   FINE

//**************** Track 2 (Midi-Chn.1) ****************//

KHCoMHandinHandAzula_002:
//  #02 //000   ----------------------------------------
 BYTE   KEYSH   KHCoMHandinHandAzula_key+0
 BYTE   VOICE   68
 BYTE   MODT 0
 BYTE   LFOS 44
 BYTE   VOL   68*KHCoMHandinHandAzula_mvl/mxv
 BYTE   PAN   c_v+0
 BYTE   W96
//  #02 //001   ----------------------------------------
 BYTE   W96
//  #02 //002   ----------------------------------------
 BYTE   W96
//  #02 //003   ----------------------------------------
 BYTE   W96
//  #02 //004   ----------------------------------------
Label_55CCD0:
 BYTE   W96
//  #02 //005   ----------------------------------------
 BYTE   W96
//  #02 //006   ----------------------------------------
 BYTE   W96
//  #02 //007   ----------------------------------------
 BYTE   W96
//  #02 //008   ----------------------------------------
 BYTE   W96
//  #02 //009   ----------------------------------------
 BYTE   W96
//  #02 //010   ----------------------------------------
 BYTE   W96
//  #02 //011   ----------------------------------------
 BYTE   W96
//  #02 //012   ----------------------------------------
 BYTE   W96
//  #02 //013   ----------------------------------------
 BYTE   W96
//  #02 //014   ----------------------------------------
 BYTE   W96
//  #02 //015   ----------------------------------------
 BYTE   W96
//  #02 //016   ----------------------------------------
 BYTE   W96
//  #02 //017   ----------------------------------------
 BYTE   W96
//  #02 //018   ----------------------------------------
 BYTE   W96
//  #02 //019   ----------------------------------------
 BYTE   W96
//  #02 //020   ----------------------------------------
 BYTE   N32  Cs4  v060
 BYTE   W36
 BYTE   Gs4
 BYTE   W36
 BYTE   N21  Fs4
 BYTE   W24
//  #02 //021   ----------------------------------------
 BYTE   N92  Bn3
 BYTE   W96
//  #02 //022   ----------------------------------------
 BYTE   W36
 BYTE   N32  Fs4
 BYTE   W36
 BYTE   N21  En4
 BYTE   W24
//  #02 //023   ----------------------------------------
 BYTE   N84  Bn3
 BYTE   W96
//  #02 //024   ----------------------------------------
 BYTE   N32  En4
 BYTE   W36
 BYTE   Bn4
 BYTE   W36
 BYTE   N21  An4
 BYTE   W24
//  #02 //025   ----------------------------------------
 BYTE   N92  En4
 BYTE   W96
//  #02 //026   ----------------------------------------
 BYTE   W36
 BYTE   N32  An4
 BYTE   W36
 BYTE   N21  Gn4
 BYTE   W24
//  #02 //027   ----------------------------------------
 BYTE   N68  Dn4
 BYTE   W96
//  #02 //028   ----------------------------------------
 BYTE   W96
//  #02 //029   ----------------------------------------
 BYTE   W96
//  #02 //030   ----------------------------------------
 BYTE   W96
//  #02 //031   ----------------------------------------
 BYTE   W96
//  #02 //032   ----------------------------------------
 BYTE   W96
//  #02 //033   ----------------------------------------
 BYTE   W96
//  #02 //034   ----------------------------------------
 BYTE   W96
//  #02 //035   ----------------------------------------
 BYTE   W96
//  #02 //036   ----------------------------------------
 BYTE   W96
//  #02 //037   ----------------------------------------
 BYTE   W96
//  #02 //038   ----------------------------------------
 BYTE   W96
//  #02 //039   ----------------------------------------
 BYTE   N32  Fs3  v056
 BYTE   W36
 BYTE   Bn3
 BYTE   W36
 BYTE   N21  Fs4
 BYTE   W24
//  #02 //040   ----------------------------------------
 BYTE   N32  En4
 BYTE   W36
 BYTE   TIE  Ds4
 BYTE   W60
//  #02 //041   ----------------------------------------
 BYTE   W96
//  #02 //042   ----------------------------------------
 BYTE   W68
 BYTE   W01
 BYTE   EOT
 BYTE   W24
 BYTE   W03
//  #02 //043   ----------------------------------------
 BYTE   GoTo
  POIN2 Label_55CCD0
 BYTE   FINE

//**************** Track 3 (Midi-Chn.2) ****************//

KHCoMHandinHandAzula_003:
//  #03 //000   ----------------------------------------
 BYTE   KEYSH   KHCoMHandinHandAzula_key+0
 BYTE   VOICE   38
 BYTE   MODT 0
 BYTE   LFOS 44
 BYTE   VOL   68*KHCoMHandinHandAzula_mvl/mxv
 BYTE   PAN   c_v-1
 BYTE   W96
//  #03 //001   ----------------------------------------
 BYTE   W96
//  #03 //002   ----------------------------------------
Label_0102AD9A:
 BYTE   N12  Cs1  v080
 BYTE   W36
 BYTE   N12
 BYTE   W36
 BYTE   N12
 BYTE   W24
 BYTE   PEND 
//  #03 //003   ----------------------------------------
 BYTE   PATT
  POIN2 Label_0102AD9A
//  #03 //004   ----------------------------------------
Label_0102ADA8:
//  #03 //005   ----------------------------------------
 BYTE   PATT
  POIN2 Label_0102AD9A
//  #03 //006   ----------------------------------------
 BYTE   PATT
  POIN2 Label_0102AD9A
//  #03 //007   ----------------------------------------
 BYTE   PATT
  POIN2 Label_0102AD9A
//  #03 //008   ----------------------------------------
 BYTE   PATT
  POIN2 Label_0102AD9A
//  #03 //009   ----------------------------------------
Label_0102ADBC:
 BYTE   N12  An1  v080
 BYTE   W36
 BYTE   N12
 BYTE   W36
 BYTE   N12
 BYTE   W24
 BYTE   PEND 
//  #03 //010   ----------------------------------------
Label_0102ADC5:
 BYTE   W12
 BYTE   N12  An1  v080
 BYTE   W36
 BYTE   N12
 BYTE   W24
 BYTE   N12
 BYTE   W24
 BYTE   PEND 
//  #03 //011   ----------------------------------------
 BYTE   PATT
  POIN2 Label_0102ADBC
//  #03 //012   ----------------------------------------
 BYTE   PATT
  POIN2 Label_0102ADC5
//  #03 //013   ----------------------------------------
 BYTE   PATT
  POIN2 Label_0102AD9A
//  #03 //014   ----------------------------------------
 BYTE   PATT
  POIN2 Label_0102AD9A
//  #03 //015   ----------------------------------------
 BYTE   PATT
  POIN2 Label_0102AD9A
//  #03 //016   ----------------------------------------
 BYTE   PATT
  POIN2 Label_0102AD9A
//  #03 //017   ----------------------------------------
 BYTE   PATT
  POIN2 Label_0102ADBC
//  #03 //018   ----------------------------------------
 BYTE   PATT
  POIN2 Label_0102ADC5
//  #03 //019   ----------------------------------------
 BYTE   PATT
  POIN2 Label_0102ADBC
//  #03 //020   ----------------------------------------
 BYTE   PATT
  POIN2 Label_0102ADC5
//  #03 //021   ----------------------------------------
Label_0102AE01:
 BYTE   N12  Dn1  v080
 BYTE   W36
 BYTE   N12
 BYTE   W36
 BYTE   N12
 BYTE   W24
 BYTE   PEND 
//  #03 //022   ----------------------------------------
 BYTE   PATT
  POIN2 Label_0102AE01
//  #03 //023   ----------------------------------------
Label_0102AE0F:
 BYTE   N12  Gn1  v080
 BYTE   W36
 BYTE   N12
 BYTE   W36
 BYTE   N12
 BYTE   W24
 BYTE   PEND 
//  #03 //024   ----------------------------------------
 BYTE   PATT
  POIN2 Label_0102AE0F
//  #03 //025   ----------------------------------------
Label_0102AE1D:
 BYTE   N12  Fn1  v080
 BYTE   W36
 BYTE   N12
 BYTE   W36
 BYTE   N12
 BYTE   W24
 BYTE   PEND 
//  #03 //026   ----------------------------------------
 BYTE   PATT
  POIN2 Label_0102AE1D
//  #03 //027   ----------------------------------------
Label_0102AE2B:
 BYTE   N12  En1  v080
 BYTE   W36
 BYTE   N12
 BYTE   W36
 BYTE   N12
 BYTE   W24
 BYTE   PEND 
//  #03 //028   ----------------------------------------
 BYTE   PATT
  POIN2 Label_0102AE2B
//  #03 //029   ----------------------------------------
Label_0102AE39:
 BYTE   N12  Cn2  v080
 BYTE   W36
 BYTE   N12
 BYTE   W36
 BYTE   N12
 BYTE   W24
 BYTE   PEND 
//  #03 //030   ----------------------------------------
Label_0102AE42:
 BYTE   W12
 BYTE   N12  Cn2  v080
 BYTE   W36
 BYTE   N12
 BYTE   W24
 BYTE   N12
 BYTE   W24
 BYTE   PEND 
//  #03 //031   ----------------------------------------
 BYTE   PATT
  POIN2 Label_0102AE39
//  #03 //032   ----------------------------------------
 BYTE   PATT
  POIN2 Label_0102AE42
//  #03 //033   ----------------------------------------
 BYTE   N06  Bn0  v080
 BYTE   W08
 BYTE   Fs1
 BYTE   W08
 BYTE   Bn1
 BYTE   W08
 BYTE   Fs1
 BYTE   W08
 BYTE   Bn1
 BYTE   W08
 BYTE   Fs2
 BYTE   W08
 BYTE   Bn1
 BYTE   W08
 BYTE   Fs2
 BYTE   W08
 BYTE   Bn2
 BYTE   W08
 BYTE   Fs2
 BYTE   W08
 BYTE   Bn2
 BYTE   W08
 BYTE   Fs3
 BYTE   W08
//  #03 //034   ----------------------------------------
 BYTE   N96  Fs4
 BYTE   W96
//  #03 //035   ----------------------------------------
 BYTE   W96
//  #03 //036   ----------------------------------------
 BYTE   W96
//  #03 //037   ----------------------------------------
 BYTE   W96
//  #03 //038   ----------------------------------------
 BYTE   W96
//  #03 //039   ----------------------------------------
 BYTE   W96
//  #03 //040   ----------------------------------------
Label_0102AE78:
 BYTE   N06  Bn1  v080
 BYTE   W36
 BYTE   N06
 BYTE   W36
 BYTE   N06
 BYTE   W24
 BYTE   PEND 
//  #03 //041   ----------------------------------------
 BYTE   PATT
  POIN2 Label_0102AE78
//  #03 //042   ----------------------------------------
 BYTE   PATT
  POIN2 Label_0102AE78
//  #03 //043   ----------------------------------------
 BYTE   PATT
  POIN2 Label_0102AE78
//  #03 //044   ----------------------------------------
 BYTE   GoTo
  POIN2 Label_0102ADA8
 BYTE   FINE

//**************** Track 4 (Midi-Chn.3) ****************//

KHCoMHandinHandAzula_004:
//  #04 //000   ----------------------------------------
 BYTE   KEYSH   KHCoMHandinHandAzula_key+0
 BYTE   VOICE   61
 BYTE   MODT 0
 BYTE   LFOS 44
 BYTE   VOL   44*KHCoMHandinHandAzula_mvl/mxv
 BYTE   PAN   c_v+0
 BYTE   W96
//  #04 //001   ----------------------------------------
 BYTE   W96
//  #04 //002   ----------------------------------------
 BYTE   W96
//  #04 //003   ----------------------------------------
 BYTE   W96
//  #04 //004   ----------------------------------------
Label_55D404:
 BYTE   W96
//  #04 //005   ----------------------------------------
 BYTE   W96
//  #04 //006   ----------------------------------------
 BYTE   W96
//  #04 //007   ----------------------------------------
 BYTE   W96
//  #04 //008   ----------------------------------------
 BYTE   W96
//  #04 //009   ----------------------------------------
 BYTE   W96
//  #04 //010   ----------------------------------------
 BYTE   W96
//  #04 //011   ----------------------------------------
 BYTE   W96
//  #04 //012   ----------------------------------------
 BYTE   W96
//  #04 //013   ----------------------------------------
 BYTE   W96
//  #04 //014   ----------------------------------------
 BYTE   W96
//  #04 //015   ----------------------------------------
 BYTE   W96
//  #04 //016   ----------------------------------------
 BYTE   W96
//  #04 //017   ----------------------------------------
 BYTE   W96
//  #04 //018   ----------------------------------------
 BYTE   W96
//  #04 //019   ----------------------------------------
 BYTE   W96
//  #04 //020   ----------------------------------------
 BYTE   W96
//  #04 //021   ----------------------------------------
 BYTE   W96
//  #04 //022   ----------------------------------------
 BYTE   W96
//  #04 //023   ----------------------------------------
 BYTE   W96
//  #04 //024   ----------------------------------------
 BYTE   W96
//  #04 //025   ----------------------------------------
 BYTE   W96
//  #04 //026   ----------------------------------------
 BYTE   W96
//  #04 //027   ----------------------------------------
 BYTE   W96
//  #04 //028   ----------------------------------------
 BYTE   W96
//  #04 //029   ----------------------------------------
 BYTE   W96
//  #04 //030   ----------------------------------------
 BYTE   W96
//  #04 //031   ----------------------------------------
 BYTE   W96
//  #04 //032   ----------------------------------------
 BYTE   W96
//  #04 //033   ----------------------------------------
 BYTE   W96
//  #04 //034   ----------------------------------------
 BYTE   N21  Fs3  v072
 BYTE   W24
 BYTE   Bn3  v076
 BYTE   W24
 BYTE   Fs3  v080
 BYTE   N21  Cs4
 BYTE   W24
 BYTE   Cs4  v100
 BYTE   N21  Fs4
 BYTE   W24
//  #04 //035   ----------------------------------------
 BYTE   TIE  Cs4  v088
 BYTE   TIE  Gs4
 BYTE   W72
 BYTE   VOL   44*KHCoMHandinHandAzula_mvl/mxv
 BYTE   W06
 BYTE   VOL   40*KHCoMHandinHandAzula_mvl/mxv
 BYTE   W06
 BYTE   VOL   37*KHCoMHandinHandAzula_mvl/mxv
 BYTE   W06
 BYTE   VOL   33*KHCoMHandinHandAzula_mvl/mxv
 BYTE   W06
//  #04 //036   ----------------------------------------
 BYTE   VOL   29*KHCoMHandinHandAzula_mvl/mxv
 BYTE   W06
 BYTE   VOL   26*KHCoMHandinHandAzula_mvl/mxv
 BYTE   W06
 BYTE   VOL   23*KHCoMHandinHandAzula_mvl/mxv
 BYTE   W06
 BYTE   VOL   20*KHCoMHandinHandAzula_mvl/mxv
 BYTE   W03
 BYTE   EOT
 BYTE   Cs4  v080
 BYTE   W02
 BYTE   VOL   18*KHCoMHandinHandAzula_mvl/mxv
 BYTE   W72
 BYTE   W01
//  #04 //037   ----------------------------------------
 BYTE   VOL   44*KHCoMHandinHandAzula_mvl/mxv
 BYTE   W60
 BYTE   N03  Fn4  v072
 BYTE   N03  Gs4
 BYTE   W06
 BYTE   Fn4
 BYTE   N03  Gs4
 BYTE   W06
 BYTE   N04  Fn4
 BYTE   N04  Gs4
 BYTE   W12
 BYTE   N09  Fn4
 BYTE   N09  Gs4
 BYTE   W12
//  #04 //038   ----------------------------------------
 BYTE   W12
 BYTE   N03  Fn4
 BYTE   N03  Gs4
 BYTE   W04
 BYTE   Fn4
 BYTE   N03  Gs4
 BYTE   W03
 BYTE   Fn4
 BYTE   N03  Gs4
 BYTE   W05
 BYTE   N04  Fn4
 BYTE   N04  Gs4
 BYTE   W12
 BYTE   N09  Fn4
 BYTE   N09  Gs4
 BYTE   W24
 BYTE   N03  Fn4
 BYTE   N03  Gs4
 BYTE   W04
 BYTE   Fn4
 BYTE   N03  Gs4
 BYTE   W03
 BYTE   Fn4
 BYTE   N03  Gs4
 BYTE   W05
 BYTE   N04  Fn4
 BYTE   N04  Gs4
 BYTE   W12
 BYTE   N09  Fn4
 BYTE   N09  Gs4
 BYTE   W12
//  #04 //039   ----------------------------------------
 BYTE   W96
//  #04 //040   ----------------------------------------
 BYTE   W96
//  #04 //041   ----------------------------------------
 BYTE   W60
 BYTE   N03  Ds4  v076
 BYTE   N03  Fs4
 BYTE   W06
 BYTE   Ds4
 BYTE   N03  Fs4
 BYTE   W06
 BYTE   N04  Ds4
 BYTE   N04  Fs4
 BYTE   W12
 BYTE   N09  Ds4
 BYTE   N09  Fs4
 BYTE   W12
//  #04 //042   ----------------------------------------
 BYTE   W12
 BYTE   N03  Ds4
 BYTE   N03  Fs4
 BYTE   W04
 BYTE   Ds4
 BYTE   N03  Fs4
 BYTE   W03
 BYTE   Ds4
 BYTE   N03  Fs4
 BYTE   W05
 BYTE   N04  Ds4
 BYTE   N04  Fs4
 BYTE   W12
 BYTE   N09  Ds4
 BYTE   N09  Fs4
 BYTE   W24
 BYTE   N03  Ds4
 BYTE   N03  Fs4
 BYTE   W04
 BYTE   Ds4
 BYTE   N03  Fs4
 BYTE   W03
 BYTE   Ds4
 BYTE   N03  Fs4
 BYTE   W05
 BYTE   N04  Ds4
 BYTE   N04  Fs4
 BYTE   W12
 BYTE   N09  Ds4
 BYTE   N09  Fs4
 BYTE   W12
//  #04 //043   ----------------------------------------
 BYTE   GoTo
  POIN2 Label_55D404
 BYTE   FINE

//**************** Track 5 (Midi-Chn.4) ****************//

KHCoMHandinHandAzula_005:
//  #05 //000   ----------------------------------------
 BYTE   KEYSH   KHCoMHandinHandAzula_key+0
 BYTE   VOICE   1
 BYTE   MODT 0
 BYTE   LFOS 44
 BYTE   VOL   44*KHCoMHandinHandAzula_mvl/mxv
 BYTE   PAN   c_v-24
 BYTE   W12
 BYTE   N04  Cs3  v056
 BYTE   N04  Gs3  v060
 BYTE   W12
 BYTE   N06  Gs3  v056
 BYTE   N06  Cs4  v060
 BYTE   W12
 BYTE   N04  Cs4  v056
 BYTE   N04  Gs4  v060
 BYTE   W12
 BYTE   Cs4  v056
 BYTE   N04  Fs4  v060
 BYTE   W12
 BYTE   Gs3  v056
 BYTE   N04  Cs4  v060
 BYTE   W12
 BYTE   Gs3  v056
 BYTE   N04  Ds4  v060
 BYTE   W12
 BYTE   N06  Cs4  v056
 BYTE   N06  As4  v060
 BYTE   W12
//  #05 //001   ----------------------------------------
Label_55D51F:
 BYTE   W12
 BYTE   N04  Cs3  v056
 BYTE   N04  Gs3  v060
 BYTE   W12
 BYTE   N06  Gs3  v056
 BYTE   N06  Cs4  v060
 BYTE   W12
 BYTE   N04  Cs4  v056
 BYTE   N04  Gs4  v060
 BYTE   W12
 BYTE   Cs4  v056
 BYTE   N04  Fs4  v060
 BYTE   W12
 BYTE   Gs3  v056
 BYTE   N04  Cs4  v060
 BYTE   W12
 BYTE   Gs3  v056
 BYTE   N04  Ds4  v060
 BYTE   W12
 BYTE   N06  Cs3  v056
 BYTE   N06  Gs3  v060
 BYTE   W12
 BYTE   PEND 
//  #05 //002   ----------------------------------------
 BYTE   W12
 BYTE   N04  Cs3  v056
 BYTE   N04  Gs3  v060
 BYTE   W12
 BYTE   N06  Gs3  v056
 BYTE   N06  Cs4  v060
 BYTE   W12
 BYTE   N04  Cs4  v056
 BYTE   N04  Gs4  v060
 BYTE   W12
 BYTE   Cs4  v056
 BYTE   N04  Fs4  v060
 BYTE   W12
 BYTE   Gs3  v056
 BYTE   N04  Cs4  v060
 BYTE   W12
 BYTE   Gs3  v056
 BYTE   N04  Ds4  v060
 BYTE   W12
 BYTE   N06  Cs4  v056
 BYTE   N06  As4  v060
 BYTE   W12
//  #05 //003   ----------------------------------------
 BYTE   PATT
  POIN2 Label_55D51F
//  #05 //004   ----------------------------------------
Label_55D583:
 BYTE   W96
//  #05 //005   ----------------------------------------
 BYTE   W96
//  #05 //006   ----------------------------------------
 BYTE   W96
//  #05 //007   ----------------------------------------
 BYTE   W96
//  #05 //008   ----------------------------------------
 BYTE   W96
//  #05 //009   ----------------------------------------
 BYTE   W96
//  #05 //010   ----------------------------------------
 BYTE   W96
//  #05 //011   ----------------------------------------
 BYTE   W96
//  #05 //012   ----------------------------------------
 BYTE   W96
//  #05 //013   ----------------------------------------
 BYTE   W96
//  #05 //014   ----------------------------------------
 BYTE   W96
//  #05 //015   ----------------------------------------
 BYTE   W96
//  #05 //016   ----------------------------------------
 BYTE   W96
//  #05 //017   ----------------------------------------
 BYTE   W96
//  #05 //018   ----------------------------------------
 BYTE   W96
//  #05 //019   ----------------------------------------
 BYTE   W96
//  #05 //020   ----------------------------------------
 BYTE   W96
//  #05 //021   ----------------------------------------
 BYTE   W96
//  #05 //022   ----------------------------------------
 BYTE   W96
//  #05 //023   ----------------------------------------
 BYTE   W96
//  #05 //024   ----------------------------------------
 BYTE   W96
//  #05 //025   ----------------------------------------
 BYTE   W96
//  #05 //026   ----------------------------------------
 BYTE   W96
//  #05 //027   ----------------------------------------
 BYTE   W96
//  #05 //028   ----------------------------------------
 BYTE   W96
//  #05 //029   ----------------------------------------
 BYTE   W96
//  #05 //030   ----------------------------------------
 BYTE   W96
//  #05 //031   ----------------------------------------
 BYTE   W96
//  #05 //032   ----------------------------------------
 BYTE   N08  Bn0  v060
 BYTE   W08
 BYTE   Fs1
 BYTE   W08
 BYTE   Bn1
 BYTE   W08
 BYTE   Fs2  v056
 BYTE   W08
 BYTE   Bn2
 BYTE   W08
 BYTE   Fs3
 BYTE   W08
 BYTE   Bn1  v060
 BYTE   W08
 BYTE   Fs2
 BYTE   W08
 BYTE   Bn2
 BYTE   W08
 BYTE   Fs3  v072
 BYTE   W08
 BYTE   Bn3
 BYTE   W08
 BYTE   Fs4  v076
 BYTE   W08
//  #05 //033   ----------------------------------------
 BYTE   N24  Fs4  v072
 BYTE   N24  Bn4
 BYTE   W96
//  #05 //034   ----------------------------------------
 BYTE   W96
//  #05 //035   ----------------------------------------
 BYTE   W96
//  #05 //036   ----------------------------------------
 BYTE   W96
//  #05 //037   ----------------------------------------
 BYTE   W96
//  #05 //038   ----------------------------------------
 BYTE   W96
//  #05 //039   ----------------------------------------
 BYTE   W96
//  #05 //040   ----------------------------------------
 BYTE   W96
//  #05 //041   ----------------------------------------
 BYTE   W96
//  #05 //042   ----------------------------------------
 BYTE   W96
//  #05 //043   ----------------------------------------
 BYTE   GoTo
  POIN2 Label_55D583
 BYTE   FINE

//**************** Track 6 (Midi-Chn.5) ****************//

KHCoMHandinHandAzula_006:
//  #06 //000   ----------------------------------------
 BYTE   KEYSH   KHCoMHandinHandAzula_key+0
 BYTE   VOICE   34
 BYTE   MODT 0
 BYTE   LFOS 44
 BYTE   VOL   68*KHCoMHandinHandAzula_mvl/mxv
 BYTE   PAN   c_v-1
 BYTE   W96
//  #06 //001   ----------------------------------------
 BYTE   W96
//  #06 //002   ----------------------------------------
 BYTE   W96
//  #06 //003   ----------------------------------------
 BYTE   W72
 BYTE   N08  Fn1  v080
 BYTE   W12
 BYTE   N08
 BYTE   W12
//  #06 //004   ----------------------------------------
Label_55D5EA:
 BYTE   N08  Fn1  v080
 BYTE   W24
 BYTE   N08
 BYTE   W24
 BYTE   N08
 BYTE   W24
 BYTE   N08
 BYTE   W24
 BYTE   PEND 
//  #06 //005   ----------------------------------------
Label_55D5F5:
 BYTE   N08  Fn1  v080
 BYTE   W24
 BYTE   N08
 BYTE   W24
 BYTE   N08
 BYTE   W24
 BYTE   N08
 BYTE   W12
 BYTE   N08
 BYTE   W12
 BYTE   PEND 
//  #06 //006   ----------------------------------------
 BYTE   PATT
  POIN2 Label_55D5EA
//  #06 //007   ----------------------------------------
 BYTE   PATT
  POIN2 Label_55D5F5
//  #06 //008   ----------------------------------------
 BYTE   PATT
  POIN2 Label_55D5EA
//  #06 //009   ----------------------------------------
 BYTE   PATT
  POIN2 Label_55D5F5
//  #06 //010   ----------------------------------------
 BYTE   PATT
  POIN2 Label_55D5EA
//  #06 //011   ----------------------------------------
 BYTE   PATT
  POIN2 Label_55D5F5
//  #06 //012   ----------------------------------------
 BYTE   PATT
  POIN2 Label_55D5EA
//  #06 //013   ----------------------------------------
 BYTE   PATT
  POIN2 Label_55D5F5
//  #06 //014   ----------------------------------------
 BYTE   PATT
  POIN2 Label_55D5EA
//  #06 //015   ----------------------------------------
 BYTE   PATT
  POIN2 Label_55D5F5
//  #06 //016   ----------------------------------------
 BYTE   PATT
  POIN2 Label_55D5EA
//  #06 //017   ----------------------------------------
 BYTE   PATT
  POIN2 Label_55D5F5
//  #06 //018   ----------------------------------------
 BYTE   PATT
  POIN2 Label_55D5EA
//  #06 //019   ----------------------------------------
 BYTE   PATT
  POIN2 Label_55D5F5
//  #06 //020   ----------------------------------------
 BYTE   PATT
  POIN2 Label_55D5EA
//  #06 //021   ----------------------------------------
 BYTE   PATT
  POIN2 Label_55D5F5
//  #06 //022   ----------------------------------------
 BYTE   PATT
  POIN2 Label_55D5EA
//  #06 //023   ----------------------------------------
 BYTE   PATT
  POIN2 Label_55D5F5
//  #06 //024   ----------------------------------------
 BYTE   PATT
  POIN2 Label_55D5EA
//  #06 //025   ----------------------------------------
 BYTE   PATT
  POIN2 Label_55D5F5
//  #06 //026   ----------------------------------------
 BYTE   PATT
  POIN2 Label_55D5EA
//  #06 //027   ----------------------------------------
 BYTE   PATT
  POIN2 Label_55D5F5
//  #06 //028   ----------------------------------------
 BYTE   PATT
  POIN2 Label_55D5EA
//  #06 //029   ----------------------------------------
 BYTE   PATT
  POIN2 Label_55D5F5
//  #06 //030   ----------------------------------------
 BYTE   PATT
  POIN2 Label_55D5EA
//  #06 //031   ----------------------------------------
 BYTE   PATT
  POIN2 Label_55D5EA
//  #06 //032   ----------------------------------------
 BYTE   W96
//  #06 //033   ----------------------------------------
 BYTE   W96
//  #06 //034   ----------------------------------------
 BYTE   W96
//  #06 //035   ----------------------------------------
 BYTE   W96
//  #06 //036   ----------------------------------------
 BYTE   W96
//  #06 //037   ----------------------------------------
 BYTE   W96
//  #06 //038   ----------------------------------------
 BYTE   W96
//  #06 //039   ----------------------------------------
 BYTE   W96
//  #06 //040   ----------------------------------------
 BYTE   W72
 BYTE   N08  Fn1  v064
 BYTE   W12
 BYTE   N08
 BYTE   W12
//  #06 //041   ----------------------------------------
 BYTE   N08
 BYTE   W24
 BYTE   N08
 BYTE   W24
 BYTE   N08
 BYTE   W24
 BYTE   N08
 BYTE   W24
//  #06 //042   ----------------------------------------
 BYTE   PATT
  POIN2 Label_55D5F5
//  #06 //043   ----------------------------------------
 BYTE   GoTo
  POIN2 Label_55D5EA
 BYTE   FINE

//**************** Track 7 (Midi-Chn.6) ****************//

KHCoMHandinHandAzula_007:
//  #07 //000   ----------------------------------------
 BYTE   KEYSH   KHCoMHandinHandAzula_key+0
 BYTE   VOICE   127
 BYTE   MODT 0
 BYTE   LFOS 44
 BYTE   VOL   68*KHCoMHandinHandAzula_mvl/mxv
 BYTE   PAN   c_v-1
 BYTE   N01  Dn1  v060
 BYTE   W02
 BYTE   N05
 BYTE   W10
 BYTE   N04
 BYTE   W06
 BYTE   N04
 BYTE   W06
 BYTE   N05
 BYTE   W01
 BYTE   N03  En1  v127
 BYTE   W11
 BYTE   N04  Dn1  v060
 BYTE   W06
 BYTE   N04
 BYTE   W01
 BYTE   N03  En1  v127
 BYTE   W05
 BYTE   N05  Dn1  v060
 BYTE   W07
 BYTE   N03  En1  v072
 BYTE   W05
 BYTE   N04  Dn1  v060
 BYTE   W06
 BYTE   N04
 BYTE   W06
 BYTE   N04
 BYTE   W01
 BYTE   N03  En1  v127
 BYTE   W05
 BYTE   N01  Dn1  v060
 BYTE   W03
 BYTE   N01
 BYTE   W03
 BYTE   N04
 BYTE   W06
 BYTE   N04
 BYTE   W06
//  #07 //001   ----------------------------------------
 BYTE   N01  Dn1  v072
 BYTE   W02
 BYTE   N05
 BYTE   W10
 BYTE   N04
 BYTE   W06
 BYTE   N04
 BYTE   W06
 BYTE   N05
 BYTE   W01
 BYTE   N03  En1  v127
 BYTE   W11
 BYTE   N04  Dn1  v072
 BYTE   W06
 BYTE   N04
 BYTE   W01
 BYTE   N03  En1  v127
 BYTE   W05
 BYTE   N05  Dn1  v072
 BYTE   W07
 BYTE   N03  En1
 BYTE   W05
 BYTE   N04  Dn1
 BYTE   W06
 BYTE   N04
 BYTE   W06
 BYTE   N04
 BYTE   W01
 BYTE   N03  En1  v127
 BYTE   W05
 BYTE   N01  Dn1  v072
 BYTE   W03
 BYTE   N01
 BYTE   W03
 BYTE   N04
 BYTE   W06
 BYTE   N04
 BYTE   W06
//  #07 //002   ----------------------------------------
 BYTE   N01  Dn1  v076
 BYTE   W02
 BYTE   N05
 BYTE   W10
 BYTE   N04
 BYTE   W06
 BYTE   N04
 BYTE   W06
 BYTE   N05
 BYTE   W01
 BYTE   N03  En1  v127
 BYTE   W11
 BYTE   N04  Dn1  v076
 BYTE   W06
 BYTE   N04
 BYTE   W01
 BYTE   N03  En1  v127
 BYTE   W05
 BYTE   N05  Dn1  v076
 BYTE   W07
 BYTE   N03  En1  v072
 BYTE   W05
 BYTE   N04  Dn1  v076
 BYTE   W06
 BYTE   N04
 BYTE   W06
 BYTE   N04
 BYTE   W01
 BYTE   N03  En1  v127
 BYTE   W05
 BYTE   N01  Dn1  v076
 BYTE   W03
 BYTE   N01
 BYTE   W03
 BYTE   N04
 BYTE   W06
 BYTE   N04
 BYTE   W06
//  #07 //003   ----------------------------------------
Label_0102C496:
 BYTE   N01  Dn1  v080
 BYTE   W02
 BYTE   N05
 BYTE   W10
 BYTE   N04
 BYTE   W06
 BYTE   N04
 BYTE   W06
 BYTE   N05
 BYTE   W01
 BYTE   N03  En1  v127
 BYTE   W11
 BYTE   N04  Dn1  v080
 BYTE   W06
 BYTE   N04
 BYTE   W01
 BYTE   N03  En1  v127
 BYTE   W05
 BYTE   N05  Dn1  v080
 BYTE   W07
 BYTE   N03  En1  v072
 BYTE   W05
 BYTE   N04  Dn1  v080
 BYTE   W06
 BYTE   N04
 BYTE   W06
 BYTE   N04
 BYTE   W01
 BYTE   N03  En1  v127
 BYTE   W05
 BYTE   N01  Dn1  v080
 BYTE   W03
 BYTE   N01
 BYTE   W03
 BYTE   N04
 BYTE   W06
 BYTE   N04
 BYTE   W06
 BYTE   PEND 
//  #07 //004   ----------------------------------------
Label_0102C4CF:
 BYTE   N01  Dn1  v088
 BYTE   W02
 BYTE   N05
 BYTE   W10
 BYTE   N04
 BYTE   W06
 BYTE   N04
 BYTE   W06
 BYTE   N05
 BYTE   W01
 BYTE   N03  En1  v127
 BYTE   W11
 BYTE   N04  Dn1  v088
 BYTE   W06
 BYTE   N04
 BYTE   W01
 BYTE   N03  En1  v127
 BYTE   W05
 BYTE   N05  Dn1  v088
 BYTE   W07
 BYTE   N03  En1  v096
 BYTE   W05
 BYTE   N04  Dn1  v088
 BYTE   W06
 BYTE   N04
 BYTE   W06
 BYTE   N04
 BYTE   W01
 BYTE   N03  En1  v127
 BYTE   W05
 BYTE   N01  Dn1  v088
 BYTE   W03
 BYTE   N01
 BYTE   W03
 BYTE   N04
 BYTE   W06
 BYTE   N04
 BYTE   W06
 BYTE   PEND 
//  #07 //005   ----------------------------------------
 BYTE   PATT
  POIN2 Label_0102C4CF
//  #07 //006   ----------------------------------------
 BYTE   PATT
  POIN2 Label_0102C4CF
//  #07 //007   ----------------------------------------
 BYTE   PATT
  POIN2 Label_0102C4CF
//  #07 //008   ----------------------------------------
Label_0102C517:
 BYTE   N01  Dn1  v088
 BYTE   W02
 BYTE   N05
 BYTE   W10
 BYTE   N04
 BYTE   W06
 BYTE   N04
 BYTE   W06
 BYTE   N05
 BYTE   W01
 BYTE   N03  En1  v127
 BYTE   W11
 BYTE   N05  Dn1  v088
 BYTE   W07
 BYTE   N03  En1  v127
 BYTE   W05
 BYTE   N04  Dn1  v088
 BYTE   W06
 BYTE   N04
 BYTE   W01
 BYTE   N03  En1  v096
 BYTE   W05
 BYTE   N05  Dn1  v088
 BYTE   W12
 BYTE   N05
 BYTE   W01
 BYTE   N03  En1  v127
 BYTE   W11
 BYTE   N04  Dn1  v088
 BYTE   W06
 BYTE   N04
 BYTE   W06
 BYTE   PEND 
//  #07 //009   ----------------------------------------
Label_0102C54A:
 BYTE   N05  Dn1  v088
 BYTE   W12
 BYTE   N05
 BYTE   W12
 BYTE   N04
 BYTE   W01
 BYTE   N03  En1  v127
 BYTE   W05
 BYTE   N04  Dn1  v088
 BYTE   W06
 BYTE   N05
 BYTE   W07
 BYTE   N03  En1  v127
 BYTE   W05
 BYTE   N05  Dn1  v088
 BYTE   W07
 BYTE   N03  En1  v096
 BYTE   W05
 BYTE   N04  Dn1  v088
 BYTE   W06
 BYTE   N04
 BYTE   W06
 BYTE   N04
 BYTE   W01
 BYTE   N03  En1  v127
 BYTE   W05
 BYTE   N01  Dn1  v088
 BYTE   W03
 BYTE   N01
 BYTE   W03
 BYTE   N04
 BYTE   W06
 BYTE   N04
 BYTE   W06
 BYTE   PEND 
//  #07 //010   ----------------------------------------
 BYTE   PATT
  POIN2 Label_0102C517
//  #07 //011   ----------------------------------------
 BYTE   PATT
  POIN2 Label_0102C54A
//  #07 //012   ----------------------------------------
 BYTE   PATT
  POIN2 Label_0102C4CF
//  #07 //013   ----------------------------------------
 BYTE   PATT
  POIN2 Label_0102C4CF
//  #07 //014   ----------------------------------------
 BYTE   PATT
  POIN2 Label_0102C4CF
//  #07 //015   ----------------------------------------
 BYTE   PATT
  POIN2 Label_0102C4CF
//  #07 //016   ----------------------------------------
 BYTE   PATT
  POIN2 Label_0102C517
//  #07 //017   ----------------------------------------
 BYTE   PATT
  POIN2 Label_0102C54A
//  #07 //018   ----------------------------------------
 BYTE   PATT
  POIN2 Label_0102C517
//  #07 //019   ----------------------------------------
 BYTE   PATT
  POIN2 Label_0102C54A
//  #07 //020   ----------------------------------------
Label_0102C5B1:
 BYTE   N01  Dn1  v088
 BYTE   W02
 BYTE   N05
 BYTE   W10
 BYTE   N04
 BYTE   W06
 BYTE   N04
 BYTE   W06
 BYTE   N05
 BYTE   W01
 BYTE   N03  En1  v127
 BYTE   W11
 BYTE   N05  Dn1  v088
 BYTE   W07
 BYTE   N03  En1  v127
 BYTE   W05
 BYTE   N04  Dn1  v088
 BYTE   W06
 BYTE   N04
 BYTE   W01
 BYTE   N03  En1  v080
 BYTE   W05
 BYTE   N05  Dn1  v088
 BYTE   W12
 BYTE   N05
 BYTE   W01
 BYTE   N03  En1  v127
 BYTE   W11
 BYTE   N04  Dn1  v088
 BYTE   W06
 BYTE   N04
 BYTE   W06
 BYTE   PEND 
//  #07 //021   ----------------------------------------
Label_0102C5E4:
 BYTE   N05  Dn1  v088
 BYTE   W12
 BYTE   N05
 BYTE   W12
 BYTE   N04
 BYTE   W01
 BYTE   N03  En1  v127
 BYTE   W05
 BYTE   N04  Dn1  v088
 BYTE   W06
 BYTE   N05
 BYTE   W07
 BYTE   N03  En1  v127
 BYTE   W05
 BYTE   N05  Dn1  v088
 BYTE   W07
 BYTE   N03  En1  v080
 BYTE   W05
 BYTE   N04  Dn1  v088
 BYTE   W06
 BYTE   N04
 BYTE   W06
 BYTE   N04
 BYTE   W01
 BYTE   N03  En1  v127
 BYTE   W05
 BYTE   N01  Dn1  v088
 BYTE   W03
 BYTE   N01
 BYTE   W03
 BYTE   N04
 BYTE   W06
 BYTE   N04
 BYTE   W06
 BYTE   PEND 
//  #07 //022   ----------------------------------------
 BYTE   PATT
  POIN2 Label_0102C5B1
//  #07 //023   ----------------------------------------
 BYTE   PATT
  POIN2 Label_0102C5E4
//  #07 //024   ----------------------------------------
 BYTE   PATT
  POIN2 Label_0102C5B1
//  #07 //025   ----------------------------------------
 BYTE   PATT
  POIN2 Label_0102C5E4
//  #07 //026   ----------------------------------------
 BYTE   PATT
  POIN2 Label_0102C5B1
//  #07 //027   ----------------------------------------
 BYTE   N05  Dn1  v088
 BYTE   W12
 BYTE   N05
 BYTE   W12
 BYTE   N04
 BYTE   W01
 BYTE   N03  En1  v127
 BYTE   W05
 BYTE   N04  Dn1  v088
 BYTE   W06
 BYTE   N05
 BYTE   W07
 BYTE   N03  En1  v127
 BYTE   W05
 BYTE   N04  Dn1
 BYTE   W06
 BYTE   Dn1  v080
 BYTE   W01
 BYTE   N03  En1
 BYTE   W05
 BYTE   N04  Dn1  v100
 BYTE   W06
 BYTE   Dn1  v112
 BYTE   W06
 BYTE   Dn1  v116
 BYTE   W01
 BYTE   N03  En1  v127
 BYTE   W05
 BYTE   N01  Dn1  v104
 BYTE   W03
 BYTE   N01
 BYTE   W03
 BYTE   N04  Dn1  v116
 BYTE   W06
 BYTE   Dn1  v127
 BYTE   W06
//  #07 //028   ----------------------------------------
 BYTE   N01
 BYTE   W02
 BYTE   N05  Dn1  v088
 BYTE   W10
 BYTE   N04
 BYTE   W06
 BYTE   N04
 BYTE   W06
 BYTE   N05
 BYTE   W01
 BYTE   N03  En1  v127
 BYTE   W11
 BYTE   N05  Dn1  v088
 BYTE   W07
 BYTE   N03  En1  v127
 BYTE   W05
 BYTE   N04  Dn1  v088
 BYTE   W06
 BYTE   N04
 BYTE   W01
 BYTE   N03  En1  v080
 BYTE   W05
 BYTE   N05  Dn1  v088
 BYTE   W12
 BYTE   N05
 BYTE   W01
 BYTE   N03  En1  v127
 BYTE   W11
 BYTE   N04  Dn1  v088
 BYTE   W06
 BYTE   N04
 BYTE   W06
//  #07 //029   ----------------------------------------
 BYTE   PATT
  POIN2 Label_0102C5E4
//  #07 //030   ----------------------------------------
 BYTE   PATT
  POIN2 Label_0102C5B1
//  #07 //031   ----------------------------------------
 BYTE   N05  Dn1  v088
 BYTE   W12
 BYTE   N05
 BYTE   W12
 BYTE   N04
 BYTE   W01
 BYTE   N03  En1  v127
 BYTE   W05
 BYTE   N04  Dn1  v088
 BYTE   W06
 BYTE   N05
 BYTE   W07
 BYTE   N03  En1  v127
 BYTE   W05
 BYTE   N04  Dn1
 BYTE   W06
 BYTE   Dn1  v080
 BYTE   W01
 BYTE   N03  En1
 BYTE   W05
 BYTE   N04  Dn1  v100
 BYTE   W06
 BYTE   Dn1  v112
 BYTE   W06
 BYTE   Dn1  v127
 BYTE   W01
 BYTE   N03  En1
 BYTE   W05
 BYTE   N01  Dn1  v104
 BYTE   W03
 BYTE   N01
 BYTE   W03
 BYTE   N04  Dn1  v116
 BYTE   W06
 BYTE   Dn1  v127
 BYTE   W06
//  #07 //032   ----------------------------------------
 BYTE   W96
//  #07 //033   ----------------------------------------
 BYTE   N01  Dn1  v080
 BYTE   W02
 BYTE   N05
 BYTE   W10
 BYTE   N04
 BYTE   W06
 BYTE   N04
 BYTE   W06
 BYTE   N05
 BYTE   W12
 BYTE   N04
 BYTE   W06
 BYTE   N04
 BYTE   W06
 BYTE   N05
 BYTE   W12
 BYTE   N04
 BYTE   W06
 BYTE   N04
 BYTE   W06
 BYTE   N04
 BYTE   W06
 BYTE   N01
 BYTE   W03
 BYTE   N01
 BYTE   W03
 BYTE   N04
 BYTE   W06
 BYTE   N04
 BYTE   W06
//  #07 //034   ----------------------------------------
 BYTE   N01  Dn1  v088
 BYTE   W02
 BYTE   N05
 BYTE   W10
 BYTE   N04
 BYTE   W06
 BYTE   N04
 BYTE   W06
 BYTE   N05
 BYTE   W12
 BYTE   N04
 BYTE   W06
 BYTE   N04
 BYTE   W06
 BYTE   N05
 BYTE   W12
 BYTE   N04
 BYTE   W06
 BYTE   N04
 BYTE   W06
 BYTE   N04
 BYTE   W06
 BYTE   N01
 BYTE   W03
 BYTE   N01
 BYTE   W03
 BYTE   N04
 BYTE   W06
 BYTE   N04
 BYTE   W06
//  #07 //035   ----------------------------------------
Label_0102C722:
 BYTE   N01  Dn1  v100
 BYTE   W02
 BYTE   N05
 BYTE   W10
 BYTE   N04
 BYTE   W06
 BYTE   N04
 BYTE   W06
 BYTE   N05
 BYTE   W12
 BYTE   N04
 BYTE   W06
 BYTE   N04
 BYTE   W06
 BYTE   N05
 BYTE   W12
 BYTE   N04
 BYTE   W06
 BYTE   N04
 BYTE   W06
 BYTE   N04
 BYTE   W06
 BYTE   N01
 BYTE   W03
 BYTE   N01
 BYTE   W03
 BYTE   N04
 BYTE   W06
 BYTE   N04
 BYTE   W06
 BYTE   PEND 
//  #07 //036   ----------------------------------------
 BYTE   PATT
  POIN2 Label_0102C722
//  #07 //037   ----------------------------------------
 BYTE   PATT
  POIN2 Label_0102C722
//  #07 //038   ----------------------------------------
 BYTE   PATT
  POIN2 Label_0102C722
//  #07 //039   ----------------------------------------
Label_0102C752:
 BYTE   N01  Dn1  v100
 BYTE   W02
 BYTE   N05
 BYTE   W10
 BYTE   N04
 BYTE   W06
 BYTE   N04
 BYTE   W06
 BYTE   N05
 BYTE   W01
 BYTE   N03  En1  v127
 BYTE   W11
 BYTE   N04  Dn1  v100
 BYTE   W06
 BYTE   N04
 BYTE   W01
 BYTE   N03  En1  v127
 BYTE   W05
 BYTE   N05  Dn1  v100
 BYTE   W07
 BYTE   N03  En1  v072
 BYTE   W05
 BYTE   N04  Dn1  v100
 BYTE   W06
 BYTE   N04
 BYTE   W06
 BYTE   N04
 BYTE   W01
 BYTE   N03  En1  v127
 BYTE   W05
 BYTE   N01  Dn1  v100
 BYTE   W03
 BYTE   N01
 BYTE   W03
 BYTE   N04
 BYTE   W06
 BYTE   N04
 BYTE   W06
 BYTE   PEND 
//  #07 //040   ----------------------------------------
 BYTE   PATT
  POIN2 Label_0102C752
//  #07 //041   ----------------------------------------
 BYTE   PATT
  POIN2 Label_0102C496
//  #07 //042   ----------------------------------------
 BYTE   N01  Dn1  v088
 BYTE   W02
 BYTE   N05
 BYTE   W10
 BYTE   N04
 BYTE   W06
 BYTE   N04
 BYTE   W06
 BYTE   N05
 BYTE   W01
 BYTE   N03  En1  v127
 BYTE   W11
 BYTE   N04  Dn1  v088
 BYTE   W06
 BYTE   N04
 BYTE   W01
 BYTE   N03  En1  v127
 BYTE   W05
 BYTE   N05  Dn1  v088
 BYTE   W07
 BYTE   N03  En1  v072
 BYTE   W05
 BYTE   N04  Dn1  v088
 BYTE   W06
 BYTE   N04
 BYTE   W06
 BYTE   N04
 BYTE   W01
 BYTE   N03  En1  v127
 BYTE   W05
 BYTE   N01  Dn1  v088
 BYTE   W03
 BYTE   N01
 BYTE   W03
 BYTE   N04
 BYTE   W06
 BYTE   N04
 BYTE   W06
//  #07 //043   ----------------------------------------
 BYTE   GoTo
  POIN2 Label_0102C4CF
 BYTE   FINE

//******************************************************//
	ALIGN 4

KHCoMHandinHandAzula:
	BYTE	7	// NumTrks
	BYTE	0	// NumBlks
	BYTE	KHCoMHandinHandAzula_pri	// Priority
	BYTE	KHCoMHandinHandAzula_rev	// Reverb.
    
	POIN2	KHCoMHandinHandAzula_grp
    
	POIN2	KHCoMHandinHandAzula_001
	POIN2	KHCoMHandinHandAzula_002
	POIN2	KHCoMHandinHandAzula_003
	POIN2	KHCoMHandinHandAzula_004
	POIN2	KHCoMHandinHandAzula_005
	POIN2	KHCoMHandinHandAzula_006
	POIN2	KHCoMHandinHandAzula_007

	
