//Event file generated from Sappy .s format.
	#include "MPlayDef.event"

	#define	KHCoMTheFightForMyFriends_grp  voicegroup000
	#define	KHCoMTheFightForMyFriends_pri  0
	#define	KHCoMTheFightForMyFriends_rev  0
	#define	KHCoMTheFightForMyFriends_mvl  127
	#define	KHCoMTheFightForMyFriends_key  0
	#define	KHCoMTheFightForMyFriends_tbs  1
	#define	KHCoMTheFightForMyFriends_exg  0
	#define	KHCoMTheFightForMyFriends_cmp  1

	// .rodata
	//	KHCoMTheFightForMyFriends
	ALIGN 4


//**************** Track 1 (Midi-Chn.0) ****************//

KHCoMTheFightForMyFriends_001:
//  #01 //000   ----------------------------------------
 BYTE   KEYSH   KHCoMTheFightForMyFriends_key+0
 BYTE   TEMPO   184*KHCoMTheFightForMyFriends_tbs/2
 BYTE   VOICE   33
 BYTE   MODT 0
 BYTE   LFOS 44
 BYTE   VOL   48*KHCoMTheFightForMyFriends_mvl/mxv
 BYTE   PAN   c_v+0
 BYTE   N24  As2  v127
 BYTE   W36
 BYTE   N12
 BYTE   W24
 BYTE   N12
 BYTE   W36
//  #01 //001   ----------------------------------------
Label_010366CA:
 BYTE   W12
 BYTE   N24  Bn2  v127
 BYTE   W36
 BYTE   N12  Gs2
 BYTE   W24
 BYTE   N12
 BYTE   W24
 BYTE   PEND 
//  #01 //002   ----------------------------------------
Label_010366D5:
 BYTE   N24  As2  v127
 BYTE   W36
 BYTE   N12
 BYTE   W24
 BYTE   N12
 BYTE   W36
 BYTE   PEND 
//  #01 //003   ----------------------------------------
 BYTE   PATT
  POIN2 Label_010366CA
//  #01 //004   ----------------------------------------
Label_010366E3:
//  #01 //005   ----------------------------------------
 BYTE   PATT
  POIN2 Label_010366D5
//  #01 //006   ----------------------------------------
 BYTE   PATT
  POIN2 Label_010366CA
//  #01 //007   ----------------------------------------
 BYTE   PATT
  POIN2 Label_010366D5
//  #01 //008   ----------------------------------------
 BYTE   PATT
  POIN2 Label_010366CA
//  #01 //009   ----------------------------------------
 BYTE   PATT
  POIN2 Label_010366D5
//  #01 //010   ----------------------------------------
 BYTE   PATT
  POIN2 Label_010366CA
//  #01 //011   ----------------------------------------
 BYTE   PATT
  POIN2 Label_010366D5
//  #01 //012   ----------------------------------------
Label_01036706:
 BYTE   W12
 BYTE   N24  Bn2  v127
 BYTE   W36
 BYTE   N12  Ds3
 BYTE   W24
 BYTE   Dn3
 BYTE   W24
 BYTE   PEND 
//  #01 //013   ----------------------------------------
 BYTE   PATT
  POIN2 Label_010366D5
//  #01 //014   ----------------------------------------
 BYTE   PATT
  POIN2 Label_010366CA
//  #01 //015   ----------------------------------------
 BYTE   PATT
  POIN2 Label_010366D5
//  #01 //016   ----------------------------------------
 BYTE   PATT
  POIN2 Label_010366CA
//  #01 //017   ----------------------------------------
 BYTE   PATT
  POIN2 Label_010366D5
//  #01 //018   ----------------------------------------
 BYTE   PATT
  POIN2 Label_010366CA
//  #01 //019   ----------------------------------------
 BYTE   PATT
  POIN2 Label_010366D5
//  #01 //020   ----------------------------------------
 BYTE   PATT
  POIN2 Label_010366CA
//  #01 //021   ----------------------------------------
 BYTE   PATT
  POIN2 Label_010366D5
//  #01 //022   ----------------------------------------
 BYTE   PATT
  POIN2 Label_010366CA
//  #01 //023   ----------------------------------------
 BYTE   PATT
  POIN2 Label_010366D5
//  #01 //024   ----------------------------------------
 BYTE   PATT
  POIN2 Label_01036706
//  #01 //025   ----------------------------------------
Label_0103674D:
 BYTE   N24  Bn2  v127
 BYTE   W36
 BYTE   N12
 BYTE   W24
 BYTE   N12
 BYTE   W36
 BYTE   PEND 
//  #01 //026   ----------------------------------------
Label_01036756:
 BYTE   W12
 BYTE   N24  Cn3  v127
 BYTE   W36
 BYTE   N12  An2
 BYTE   W24
 BYTE   N12
 BYTE   W24
 BYTE   PEND 
//  #01 //027   ----------------------------------------
 BYTE   PATT
  POIN2 Label_0103674D
//  #01 //028   ----------------------------------------
 BYTE   PATT
  POIN2 Label_01036756
//  #01 //029   ----------------------------------------
 BYTE   PATT
  POIN2 Label_0103674D
//  #01 //030   ----------------------------------------
 BYTE   PATT
  POIN2 Label_01036756
//  #01 //031   ----------------------------------------
 BYTE   PATT
  POIN2 Label_0103674D
//  #01 //032   ----------------------------------------
Label_0103677A:
 BYTE   W12
 BYTE   N24  Cn3  v127
 BYTE   W36
 BYTE   N12  En3
 BYTE   W24
 BYTE   Ds3
 BYTE   W24
 BYTE   PEND 
//  #01 //033   ----------------------------------------
 BYTE   PATT
  POIN2 Label_0103674D
//  #01 //034   ----------------------------------------
 BYTE   PATT
  POIN2 Label_01036756
//  #01 //035   ----------------------------------------
 BYTE   PATT
  POIN2 Label_0103674D
//  #01 //036   ----------------------------------------
 BYTE   PATT
  POIN2 Label_01036756
//  #01 //037   ----------------------------------------
 BYTE   PATT
  POIN2 Label_0103674D
//  #01 //038   ----------------------------------------
 BYTE   PATT
  POIN2 Label_01036756
//  #01 //039   ----------------------------------------
 BYTE   PATT
  POIN2 Label_0103674D
//  #01 //040   ----------------------------------------
 BYTE   PATT
  POIN2 Label_0103677A
//  #01 //041   ----------------------------------------
 BYTE   PATT
  POIN2 Label_0103674D
//  #01 //042   ----------------------------------------
 BYTE   PATT
  POIN2 Label_01036756
//  #01 //043   ----------------------------------------
 BYTE   PATT
  POIN2 Label_0103674D
//  #01 //044   ----------------------------------------
 BYTE   PATT
  POIN2 Label_01036756
//  #01 //045   ----------------------------------------
 BYTE   PATT
  POIN2 Label_0103674D
//  #01 //046   ----------------------------------------
 BYTE   PATT
  POIN2 Label_01036756
//  #01 //047   ----------------------------------------
 BYTE   PATT
  POIN2 Label_0103674D
//  #01 //048   ----------------------------------------
 BYTE   PATT
  POIN2 Label_0103677A
//  #01 //049   ----------------------------------------
 BYTE   PATT
  POIN2 Label_010366D5
//  #01 //050   ----------------------------------------
 BYTE   PATT
  POIN2 Label_010366CA
//  #01 //051   ----------------------------------------
 BYTE   PATT
  POIN2 Label_010366D5
//  #01 //052   ----------------------------------------
 BYTE   PATT
  POIN2 Label_01036706
//  #01 //053   ----------------------------------------
 BYTE   PATT
  POIN2 Label_010366D5
//  #01 //054   ----------------------------------------
 BYTE   PATT
  POIN2 Label_010366CA
//  #01 //055   ----------------------------------------
 BYTE   PATT
  POIN2 Label_010366D5
//  #01 //056   ----------------------------------------
 BYTE   PATT
  POIN2 Label_010366CA
//  #01 //057   ----------------------------------------
 BYTE   PATT
  POIN2 Label_010366D5
//  #01 //058   ----------------------------------------
 BYTE   PATT
  POIN2 Label_010366CA
//  #01 //059   ----------------------------------------
 BYTE   PATT
  POIN2 Label_010366D5
//  #01 //060   ----------------------------------------
 BYTE   PATT
  POIN2 Label_01036706
//  #01 //061   ----------------------------------------
 BYTE   GoTo
  POIN2 Label_010366E3
 BYTE   FINE

//**************** Track 2 (Midi-Chn.1) ****************//

KHCoMTheFightForMyFriends_002:
//  #02 //000   ----------------------------------------
 BYTE   KEYSH   KHCoMTheFightForMyFriends_key+0
 BYTE   VOICE   30
 BYTE   MODT 0
 BYTE   LFOS 44
 BYTE   VOL   62*KHCoMTheFightForMyFriends_mvl/mxv
 BYTE   PAN   c_v-1
 BYTE   W96
//  #02 //001   ----------------------------------------
 BYTE   W96
//  #02 //002   ----------------------------------------
 BYTE   W96
//  #02 //003   ----------------------------------------
 BYTE   W96
//  #02 //004   ----------------------------------------
Label_0103690C:
 BYTE   N16  As1  v100
 BYTE   N16  Fn2
 BYTE   W24
 BYTE   N08  As1
 BYTE   N08  Fn2
 BYTE   W12
 BYTE   As1
 BYTE   N08  Fn2
 BYTE   W24
 BYTE   As1
 BYTE   N08  Fn2
 BYTE   W24
 BYTE   As1
 BYTE   N08  Fn2
 BYTE   W12
//  #02 //005   ----------------------------------------
Label_01036923:
 BYTE   W12
 BYTE   N08  Bn1  v100
 BYTE   N08  Fs2
 BYTE   W24
 BYTE   Bn1
 BYTE   N08  Fs2
 BYTE   W12
 BYTE   Bn1
 BYTE   N08  Fs2
 BYTE   W12
 BYTE   Bn1
 BYTE   N08  Fs2
 BYTE   W12
 BYTE   Gs1
 BYTE   N08  Ds2
 BYTE   W12
 BYTE   Gs1
 BYTE   N08  Ds2
 BYTE   W12
 BYTE   PEND 
//  #02 //006   ----------------------------------------
Label_0103693F:
 BYTE   N08  As1  v100
 BYTE   N08  Fn2
 BYTE   W24
 BYTE   As1
 BYTE   N08  Fn2
 BYTE   W12
 BYTE   As1
 BYTE   N08  Fn2
 BYTE   W24
 BYTE   As1
 BYTE   N08  Fn2
 BYTE   W24
 BYTE   As1
 BYTE   N08  Fn2
 BYTE   W12
 BYTE   PEND 
//  #02 //007   ----------------------------------------
 BYTE   PATT
  POIN2 Label_01036923
//  #02 //008   ----------------------------------------
 BYTE   PATT
  POIN2 Label_0103693F
//  #02 //009   ----------------------------------------
 BYTE   PATT
  POIN2 Label_01036923
//  #02 //010   ----------------------------------------
 BYTE   PATT
  POIN2 Label_0103693F
//  #02 //011   ----------------------------------------
 BYTE   PATT
  POIN2 Label_01036923
//  #02 //012   ----------------------------------------
 BYTE   PATT
  POIN2 Label_0103693F
//  #02 //013   ----------------------------------------
 BYTE   PATT
  POIN2 Label_01036923
//  #02 //014   ----------------------------------------
 BYTE   PATT
  POIN2 Label_0103693F
//  #02 //015   ----------------------------------------
 BYTE   PATT
  POIN2 Label_01036923
//  #02 //016   ----------------------------------------
 BYTE   PATT
  POIN2 Label_0103693F
//  #02 //017   ----------------------------------------
 BYTE   PATT
  POIN2 Label_01036923
//  #02 //018   ----------------------------------------
 BYTE   PATT
  POIN2 Label_0103693F
//  #02 //019   ----------------------------------------
 BYTE   PATT
  POIN2 Label_01036923
//  #02 //020   ----------------------------------------
 BYTE   PATT
  POIN2 Label_0103693F
//  #02 //021   ----------------------------------------
 BYTE   PATT
  POIN2 Label_01036923
//  #02 //022   ----------------------------------------
 BYTE   PATT
  POIN2 Label_0103693F
//  #02 //023   ----------------------------------------
 BYTE   PATT
  POIN2 Label_01036923
//  #02 //024   ----------------------------------------
Label_010369AB:
 BYTE   N08  Bn1  v100
 BYTE   N08  Fs2
 BYTE   W24
 BYTE   Bn1
 BYTE   N08  Fs2
 BYTE   W12
 BYTE   Bn1
 BYTE   N08  Fs2
 BYTE   W24
 BYTE   Bn1
 BYTE   N08  Fs2
 BYTE   W24
 BYTE   Bn1
 BYTE   N08  Fs2
 BYTE   W12
 BYTE   PEND 
//  #02 //025   ----------------------------------------
Label_010369C2:
 BYTE   W12
 BYTE   N08  Cn2  v100
 BYTE   N08  Gn2
 BYTE   W24
 BYTE   Cn2
 BYTE   N08  Gn2
 BYTE   W12
 BYTE   Cn2
 BYTE   N08  Gn2
 BYTE   W12
 BYTE   Cn2
 BYTE   N08  Gn2
 BYTE   W12
 BYTE   An1
 BYTE   N08  En2
 BYTE   W12
 BYTE   An1
 BYTE   N08  En2
 BYTE   W12
 BYTE   PEND 
//  #02 //026   ----------------------------------------
 BYTE   PATT
  POIN2 Label_010369AB
//  #02 //027   ----------------------------------------
 BYTE   PATT
  POIN2 Label_010369C2
//  #02 //028   ----------------------------------------
 BYTE   PATT
  POIN2 Label_010369AB
//  #02 //029   ----------------------------------------
 BYTE   PATT
  POIN2 Label_010369C2
//  #02 //030   ----------------------------------------
 BYTE   PATT
  POIN2 Label_010369AB
//  #02 //031   ----------------------------------------
 BYTE   PATT
  POIN2 Label_010369C2
//  #02 //032   ----------------------------------------
 BYTE   PATT
  POIN2 Label_010369AB
//  #02 //033   ----------------------------------------
 BYTE   PATT
  POIN2 Label_010369C2
//  #02 //034   ----------------------------------------
 BYTE   PATT
  POIN2 Label_010369AB
//  #02 //035   ----------------------------------------
 BYTE   PATT
  POIN2 Label_010369C2
//  #02 //036   ----------------------------------------
 BYTE   PATT
  POIN2 Label_010369AB
//  #02 //037   ----------------------------------------
 BYTE   PATT
  POIN2 Label_010369C2
//  #02 //038   ----------------------------------------
 BYTE   PATT
  POIN2 Label_010369AB
//  #02 //039   ----------------------------------------
 BYTE   PATT
  POIN2 Label_010369C2
//  #02 //040   ----------------------------------------
 BYTE   W96
//  #02 //041   ----------------------------------------
 BYTE   W96
//  #02 //042   ----------------------------------------
 BYTE   W96
//  #02 //043   ----------------------------------------
 BYTE   W96
//  #02 //044   ----------------------------------------
 BYTE   W96
//  #02 //045   ----------------------------------------
 BYTE   W96
//  #02 //046   ----------------------------------------
 BYTE   W96
//  #02 //047   ----------------------------------------
 BYTE   W96
//  #02 //048   ----------------------------------------
 BYTE   W96
//  #02 //049   ----------------------------------------
 BYTE   W96
//  #02 //050   ----------------------------------------
 BYTE   W96
//  #02 //051   ----------------------------------------
 BYTE   W96
//  #02 //052   ----------------------------------------
 BYTE   PATT
  POIN2 Label_0103693F
//  #02 //053   ----------------------------------------
 BYTE   PATT
  POIN2 Label_01036923
//  #02 //054   ----------------------------------------
 BYTE   PATT
  POIN2 Label_0103693F
//  #02 //055   ----------------------------------------
 BYTE   PATT
  POIN2 Label_01036923
//  #02 //056   ----------------------------------------
 BYTE   PATT
  POIN2 Label_0103693F
//  #02 //057   ----------------------------------------
 BYTE   PATT
  POIN2 Label_01036923
//  #02 //058   ----------------------------------------
 BYTE   PATT
  POIN2 Label_0103693F
//  #02 //059   ----------------------------------------
 BYTE   PATT
  POIN2 Label_01036923
//  #02 //060   ----------------------------------------
 BYTE   GoTo
  POIN2 Label_0103690C
 BYTE   FINE

//**************** Track 3 (Midi-Chn.2) ****************//

KHCoMTheFightForMyFriends_003:
//  #03 //000   ----------------------------------------
 BYTE   KEYSH   KHCoMTheFightForMyFriends_key+0
 BYTE   VOICE   48
 BYTE   MODT 0
 BYTE   LFOS 44
 BYTE   VOL   51*KHCoMTheFightForMyFriends_mvl/mxv
 BYTE   PAN   c_v-22
 BYTE   W96
//  #03 //001   ----------------------------------------
 BYTE   W96
//  #03 //002   ----------------------------------------
 BYTE   W96
//  #03 //003   ----------------------------------------
 BYTE   W96
//  #03 //004   ----------------------------------------
Label_55EB94:
 BYTE   N36  As2  v080
 BYTE   W36
 BYTE   N84  Fn3
 BYTE   W60
 BYTE   PEND 
//  #03 //005   ----------------------------------------
Label_55EB9C:
 BYTE   W24
 BYTE   N24  Ds3  v080
 BYTE   W24
 BYTE   Gs3
 BYTE   W24
 BYTE   Fs3
 BYTE   W24
 BYTE   PEND 
//  #03 //006   ----------------------------------------
 BYTE   TIE  Fn3
 BYTE   W96
//  #03 //007   ----------------------------------------
 BYTE   W18
 BYTE   EOT
 BYTE   W06
 BYTE   N24  Ds3
 BYTE   W24
 BYTE   Gs3
 BYTE   W24
 BYTE   Bn3
 BYTE   W24
//  #03 //008   ----------------------------------------
Label_55EBB3:
 BYTE   N36  As3  v080
 BYTE   W36
 BYTE   N66  Fn3
 BYTE   W60
 BYTE   PEND 
//  #03 //009   ----------------------------------------
 BYTE   W12
 BYTE   N36  Fs3
 BYTE   W36
 BYTE   N24  Fn3
 BYTE   W24
 BYTE   Ds3
 BYTE   W24
//  #03 //010   ----------------------------------------
 BYTE   N06  Dn3
 BYTE   W06
 BYTE   Ds3
 BYTE   W06
 BYTE   TIE  Fn3
 BYTE   W84
//  #03 //011   ----------------------------------------
 BYTE   W84
 BYTE   EOT
 BYTE   W12
//  #03 //012   ----------------------------------------
 BYTE   W96
//  #03 //013   ----------------------------------------
 BYTE   W96
//  #03 //014   ----------------------------------------
 BYTE   W96
//  #03 //015   ----------------------------------------
 BYTE   W96
//  #03 //016   ----------------------------------------
 BYTE   PATT
  POIN2 Label_55EB94
//  #03 //017   ----------------------------------------
 BYTE   PATT
  POIN2 Label_55EB9C
//  #03 //018   ----------------------------------------
 BYTE   TIE  Fn3  v080
 BYTE   W96
//  #03 //019   ----------------------------------------
 BYTE   W18
 BYTE   EOT
 BYTE   W06
 BYTE   N24  Ds3
 BYTE   W24
 BYTE   Gs3
 BYTE   W24
 BYTE   Bn3
 BYTE   W24
//  #03 //020   ----------------------------------------
 BYTE   PATT
  POIN2 Label_55EBB3
//  #03 //021   ----------------------------------------
 BYTE   W12
 BYTE   N36  Fs3  v080
 BYTE   W36
 BYTE   N24  Gs3
 BYTE   W24
 BYTE   N12  Fs3
 BYTE   W12
 BYTE   Gs3
 BYTE   W12
//  #03 //022   ----------------------------------------
 BYTE   N36  As3
 BYTE   W36
 BYTE   TIE  Fn4
 BYTE   W60
//  #03 //023   ----------------------------------------
 BYTE   W90
 BYTE   EOT
 BYTE   W06
//  #03 //024   ----------------------------------------
 BYTE   W96
//  #03 //025   ----------------------------------------
 BYTE   W96
//  #03 //026   ----------------------------------------
 BYTE   W96
//  #03 //027   ----------------------------------------
 BYTE   W96
//  #03 //028   ----------------------------------------
 BYTE   W96
//  #03 //029   ----------------------------------------
 BYTE   W96
//  #03 //030   ----------------------------------------
 BYTE   W96
//  #03 //031   ----------------------------------------
 BYTE   W96
//  #03 //032   ----------------------------------------
 BYTE   N36  Bn2
 BYTE   W36
 BYTE   N84  Fs3
 BYTE   W60
//  #03 //033   ----------------------------------------
 BYTE   W24
 BYTE   N24  En3
 BYTE   W24
 BYTE   An3
 BYTE   W24
 BYTE   Gn3
 BYTE   W24
//  #03 //034   ----------------------------------------
 BYTE   TIE  Fs3
 BYTE   W96
//  #03 //035   ----------------------------------------
 BYTE   W18
 BYTE   EOT
 BYTE   W06
 BYTE   N24  En3
 BYTE   W24
 BYTE   An3
 BYTE   W24
 BYTE   Cn4
 BYTE   W24
//  #03 //036   ----------------------------------------
 BYTE   N36  Bn3
 BYTE   W36
 BYTE   N66  Fs3
 BYTE   W60
//  #03 //037   ----------------------------------------
 BYTE   W12
 BYTE   N36  Gn3
 BYTE   W36
 BYTE   N24  Fs3
 BYTE   W24
 BYTE   En3
 BYTE   W24
//  #03 //038   ----------------------------------------
 BYTE   N06  Ds3
 BYTE   W06
 BYTE   En3
 BYTE   W06
 BYTE   TIE  Fs3
 BYTE   W84
//  #03 //039   ----------------------------------------
 BYTE   W84
 BYTE   EOT
 BYTE   W12
//  #03 //040   ----------------------------------------
 BYTE   W96
//  #03 //041   ----------------------------------------
 BYTE   W96
//  #03 //042   ----------------------------------------
 BYTE   W96
//  #03 //043   ----------------------------------------
 BYTE   W96
//  #03 //044   ----------------------------------------
 BYTE   W96
//  #03 //045   ----------------------------------------
 BYTE   W96
//  #03 //046   ----------------------------------------
 BYTE   W96
//  #03 //047   ----------------------------------------
 BYTE   W96
//  #03 //048   ----------------------------------------
 BYTE   W96
//  #03 //049   ----------------------------------------
 BYTE   W96
//  #03 //050   ----------------------------------------
 BYTE   W96
//  #03 //051   ----------------------------------------
 BYTE   W96
//  #03 //052   ----------------------------------------
 BYTE   W96
//  #03 //053   ----------------------------------------
 BYTE   W96
//  #03 //054   ----------------------------------------
 BYTE   W96
//  #03 //055   ----------------------------------------
 BYTE   W96
//  #03 //056   ----------------------------------------
 BYTE   W96
//  #03 //057   ----------------------------------------
 BYTE   W96
//  #03 //058   ----------------------------------------
 BYTE   W96
//  #03 //059   ----------------------------------------
 BYTE   W96
//  #03 //060   ----------------------------------------
 BYTE   GoTo
  POIN2 Label_55EB94
 BYTE   FINE

//**************** Track 4 (Midi-Chn.3) ****************//

KHCoMTheFightForMyFriends_004:
//  #04 //000   ----------------------------------------
 BYTE   KEYSH   KHCoMTheFightForMyFriends_key+0
 BYTE   VOICE   48
 BYTE   MODT 0
 BYTE   LFOS 44
 BYTE   VOL   51*KHCoMTheFightForMyFriends_mvl/mxv
 BYTE   PAN   c_v+23
 BYTE   W96
//  #04 //001   ----------------------------------------
 BYTE   W96
//  #04 //002   ----------------------------------------
 BYTE   W96
//  #04 //003   ----------------------------------------
 BYTE   W96
//  #04 //004   ----------------------------------------
Label_55E854:
 BYTE   N36  Fn2  v080
 BYTE   W36
 BYTE   N84  Dn3
 BYTE   W60
 BYTE   PEND 
//  #04 //005   ----------------------------------------
Label_55E85C:
 BYTE   W24
 BYTE   N24  Bn2  v080
 BYTE   W24
 BYTE   Ds3
 BYTE   W24
 BYTE   N24
 BYTE   W24
 BYTE   PEND 
//  #04 //006   ----------------------------------------
 BYTE   TIE  Dn3
 BYTE   W96
//  #04 //007   ----------------------------------------
 BYTE   W18
 BYTE   EOT
 BYTE   W06
 BYTE   N24  Bn2
 BYTE   W24
 BYTE   Ds3
 BYTE   W24
 BYTE   Gs3
 BYTE   W24
//  #04 //008   ----------------------------------------
Label_55E873:
 BYTE   N36  Fn3  v080
 BYTE   W36
 BYTE   N66  Dn3
 BYTE   W60
 BYTE   PEND 
//  #04 //009   ----------------------------------------
 BYTE   W12
 BYTE   N36  Ds3
 BYTE   W36
 BYTE   N24  Dn3
 BYTE   W24
 BYTE   Bn2
 BYTE   W24
//  #04 //010   ----------------------------------------
 BYTE   N06  As2
 BYTE   W06
 BYTE   Bn2
 BYTE   W06
 BYTE   TIE  Dn3
 BYTE   W84
//  #04 //011   ----------------------------------------
 BYTE   W84
 BYTE   EOT
 BYTE   W12
//  #04 //012   ----------------------------------------
 BYTE   W96
//  #04 //013   ----------------------------------------
 BYTE   W96
//  #04 //014   ----------------------------------------
 BYTE   W96
//  #04 //015   ----------------------------------------
 BYTE   W96
//  #04 //016   ----------------------------------------
 BYTE   PATT
  POIN2 Label_55E854
//  #04 //017   ----------------------------------------
 BYTE   PATT
  POIN2 Label_55E85C
//  #04 //018   ----------------------------------------
 BYTE   TIE  Dn3  v080
 BYTE   W96
//  #04 //019   ----------------------------------------
 BYTE   W18
 BYTE   EOT
 BYTE   W06
 BYTE   N24  Bn2
 BYTE   W24
 BYTE   Ds3
 BYTE   W24
 BYTE   Gs3
 BYTE   W24
//  #04 //020   ----------------------------------------
 BYTE   PATT
  POIN2 Label_55E873
//  #04 //021   ----------------------------------------
 BYTE   W12
 BYTE   N36  Ds3  v080
 BYTE   W36
 BYTE   N24  Bn2
 BYTE   W24
 BYTE   Ds3
 BYTE   W24
//  #04 //022   ----------------------------------------
 BYTE   N36  Dn3
 BYTE   W36
 BYTE   N60  As3
 BYTE   W60
//  #04 //023   ----------------------------------------
 BYTE   N90  Bn3
 BYTE   W96
//  #04 //024   ----------------------------------------
 BYTE   W96
//  #04 //025   ----------------------------------------
 BYTE   W96
//  #04 //026   ----------------------------------------
 BYTE   W96
//  #04 //027   ----------------------------------------
 BYTE   W96
//  #04 //028   ----------------------------------------
 BYTE   W96
//  #04 //029   ----------------------------------------
 BYTE   W96
//  #04 //030   ----------------------------------------
 BYTE   W96
//  #04 //031   ----------------------------------------
 BYTE   W96
//  #04 //032   ----------------------------------------
 BYTE   N36  Fs2
 BYTE   W36
 BYTE   N84  Ds3
 BYTE   W60
//  #04 //033   ----------------------------------------
 BYTE   W24
 BYTE   N24  Cn3
 BYTE   W24
 BYTE   En3
 BYTE   W24
 BYTE   N24
 BYTE   W24
//  #04 //034   ----------------------------------------
 BYTE   TIE  Ds3
 BYTE   W96
//  #04 //035   ----------------------------------------
 BYTE   W18
 BYTE   EOT
 BYTE   W06
 BYTE   N24  Cn3
 BYTE   W24
 BYTE   En3
 BYTE   W24
 BYTE   An3
 BYTE   W24
//  #04 //036   ----------------------------------------
 BYTE   N36  Fs3
 BYTE   W36
 BYTE   N66  Ds3
 BYTE   W60
//  #04 //037   ----------------------------------------
 BYTE   W12
 BYTE   N36  En3
 BYTE   W36
 BYTE   N24  Ds3
 BYTE   W24
 BYTE   Cn3
 BYTE   W24
//  #04 //038   ----------------------------------------
 BYTE   N06  Bn2
 BYTE   W06
 BYTE   Cn3
 BYTE   W06
 BYTE   TIE  Ds3
 BYTE   W84
//  #04 //039   ----------------------------------------
 BYTE   W84
 BYTE   EOT
 BYTE   W12
//  #04 //040   ----------------------------------------
 BYTE   W96
//  #04 //041   ----------------------------------------
 BYTE   W96
//  #04 //042   ----------------------------------------
 BYTE   W96
//  #04 //043   ----------------------------------------
 BYTE   W96
//  #04 //044   ----------------------------------------
 BYTE   W96
//  #04 //045   ----------------------------------------
 BYTE   W96
//  #04 //046   ----------------------------------------
 BYTE   W96
//  #04 //047   ----------------------------------------
 BYTE   W96
//  #04 //048   ----------------------------------------
 BYTE   W96
//  #04 //049   ----------------------------------------
 BYTE   W96
//  #04 //050   ----------------------------------------
 BYTE   W96
//  #04 //051   ----------------------------------------
 BYTE   W96
//  #04 //052   ----------------------------------------
 BYTE   W96
//  #04 //053   ----------------------------------------
 BYTE   W96
//  #04 //054   ----------------------------------------
 BYTE   W96
//  #04 //055   ----------------------------------------
 BYTE   W96
//  #04 //056   ----------------------------------------
 BYTE   W96
//  #04 //057   ----------------------------------------
 BYTE   W96
//  #04 //058   ----------------------------------------
 BYTE   W96
//  #04 //059   ----------------------------------------
 BYTE   W96
//  #04 //060   ----------------------------------------
 BYTE   GoTo
  POIN2 Label_55E854
 BYTE   FINE

//**************** Track 5 (Midi-Chn.4) ****************//

KHCoMTheFightForMyFriends_005:
//  #05 //000   ----------------------------------------
 BYTE   KEYSH   KHCoMTheFightForMyFriends_key+0
 BYTE   VOICE   40
 BYTE   MODT 0
 BYTE   LFOS 44
 BYTE   VOL   36*KHCoMTheFightForMyFriends_mvl/mxv
 BYTE   PAN   c_v+0
 BYTE   W96
//  #05 //001   ----------------------------------------
 BYTE   W96
//  #05 //002   ----------------------------------------
 BYTE   W96
//  #05 //003   ----------------------------------------
 BYTE   W96
//  #05 //004   ----------------------------------------
Label_55ED48:
 BYTE   W96
//  #05 //005   ----------------------------------------
 BYTE   W96
//  #05 //006   ----------------------------------------
 BYTE   W96
//  #05 //007   ----------------------------------------
 BYTE   W96
//  #05 //008   ----------------------------------------
 BYTE   W96
//  #05 //009   ----------------------------------------
 BYTE   W96
//  #05 //010   ----------------------------------------
 BYTE   W96
//  #05 //011   ----------------------------------------
 BYTE   W96
//  #05 //012   ----------------------------------------
 BYTE   TIE  As1  v127
 BYTE   W96
//  #05 //013   ----------------------------------------
 BYTE   W96
//  #05 //014   ----------------------------------------
 BYTE   EOT
 BYTE   N96  Fn2
 BYTE   W96
//  #05 //015   ----------------------------------------
 BYTE   Ds2
 BYTE   W96
//  #05 //016   ----------------------------------------
 BYTE   W96
//  #05 //017   ----------------------------------------
 BYTE   W96
//  #05 //018   ----------------------------------------
 BYTE   W96
//  #05 //019   ----------------------------------------
 BYTE   W96
//  #05 //020   ----------------------------------------
 BYTE   W96
//  #05 //021   ----------------------------------------
 BYTE   W96
//  #05 //022   ----------------------------------------
 BYTE   W96
//  #05 //023   ----------------------------------------
 BYTE   W96
//  #05 //024   ----------------------------------------
 BYTE   TIE  Bn1
 BYTE   W96
//  #05 //025   ----------------------------------------
 BYTE   W96
//  #05 //026   ----------------------------------------
 BYTE   EOT
 BYTE   TIE  Fs2
 BYTE   W96
//  #05 //027   ----------------------------------------
 BYTE   W96
//  #05 //028   ----------------------------------------
 BYTE   EOT
 BYTE   TIE  An2
 BYTE   W96
//  #05 //029   ----------------------------------------
 BYTE   W96
//  #05 //030   ----------------------------------------
 BYTE   EOT
 BYTE   N36  Gn2
 BYTE   W36
 BYTE   TIE  Fs2
 BYTE   W60
//  #05 //031   ----------------------------------------
 BYTE   W96
//  #05 //032   ----------------------------------------
 BYTE   EOT
 BYTE   W96
//  #05 //033   ----------------------------------------
 BYTE   W96
//  #05 //034   ----------------------------------------
 BYTE   W96
//  #05 //035   ----------------------------------------
 BYTE   W96
//  #05 //036   ----------------------------------------
 BYTE   W96
//  #05 //037   ----------------------------------------
 BYTE   W96
//  #05 //038   ----------------------------------------
 BYTE   W96
//  #05 //039   ----------------------------------------
 BYTE   W96
//  #05 //040   ----------------------------------------
 BYTE   TIE  Bn1
 BYTE   W96
//  #05 //041   ----------------------------------------
 BYTE   W96
//  #05 //042   ----------------------------------------
 BYTE   Fs2
 BYTE   W96
//  #05 //043   ----------------------------------------
 BYTE   W96
//  #05 //044   ----------------------------------------
 BYTE   An2  v120
 BYTE   W96
//  #05 //045   ----------------------------------------
 BYTE   W96
//  #05 //046   ----------------------------------------
 BYTE   EOT
 BYTE   Fs2
 BYTE   N96  En2  v127
 BYTE   W96
//  #05 //047   ----------------------------------------
 BYTE   Fs2
 BYTE   W96
//  #05 //048   ----------------------------------------
 BYTE   EOT
 BYTE   Bn1  v057
 BYTE   TIE  As1  v080
 BYTE   TIE  Fn2
 BYTE   W96
//  #05 //049   ----------------------------------------
 BYTE   W96
//  #05 //050   ----------------------------------------
 BYTE   W96
//  #05 //051   ----------------------------------------
 BYTE   W96
//  #05 //052   ----------------------------------------
 BYTE   EOT
 BYTE   As1  v053
 BYTE   W96
//  #05 //053   ----------------------------------------
 BYTE   W96
//  #05 //054   ----------------------------------------
 BYTE   W96
//  #05 //055   ----------------------------------------
 BYTE   W96
//  #05 //056   ----------------------------------------
 BYTE   W96
//  #05 //057   ----------------------------------------
 BYTE   W96
//  #05 //058   ----------------------------------------
 BYTE   W96
//  #05 //059   ----------------------------------------
 BYTE   W96
//  #05 //060   ----------------------------------------
 BYTE   GoTo
  POIN2 Label_55ED48
 BYTE   FINE

//**************** Track 6 (Midi-Chn.5) ****************//

KHCoMTheFightForMyFriends_006:
//  #06 //000   ----------------------------------------
 BYTE   KEYSH   KHCoMTheFightForMyFriends_key+0
 BYTE   VOICE   61
 BYTE   MODT 0
 BYTE   LFOS 44
 BYTE   VOL   20*KHCoMTheFightForMyFriends_mvl/mxv
 BYTE   PAN   c_v+0
 BYTE   N24  As2  v127
 BYTE   W36
 BYTE   N12
 BYTE   W24
 BYTE   N12
 BYTE   W36
//  #06 //001   ----------------------------------------
Label_01036528:
 BYTE   W12
 BYTE   N24  Bn2  v127
 BYTE   W36
 BYTE   N12  Gs2
 BYTE   W24
 BYTE   N12
 BYTE   W24
 BYTE   PEND 
//  #06 //002   ----------------------------------------
Label_01036533:
 BYTE   N24  As2  v127
 BYTE   W36
 BYTE   N12
 BYTE   W24
 BYTE   N12
 BYTE   W36
 BYTE   PEND 
//  #06 //003   ----------------------------------------
 BYTE   PATT
  POIN2 Label_01036528
//  #06 //004   ----------------------------------------
Label_01036541:
//  #06 //005   ----------------------------------------
 BYTE   PATT
  POIN2 Label_01036533
//  #06 //006   ----------------------------------------
 BYTE   PATT
  POIN2 Label_01036528
//  #06 //007   ----------------------------------------
 BYTE   PATT
  POIN2 Label_01036533
//  #06 //008   ----------------------------------------
 BYTE   PATT
  POIN2 Label_01036528
//  #06 //009   ----------------------------------------
 BYTE   PATT
  POIN2 Label_01036533
//  #06 //010   ----------------------------------------
 BYTE   PATT
  POIN2 Label_01036528
//  #06 //011   ----------------------------------------
 BYTE   PATT
  POIN2 Label_01036533
//  #06 //012   ----------------------------------------
Label_01036564:
 BYTE   W12
 BYTE   N24  Bn2  v127
 BYTE   W36
 BYTE   N12  Ds3
 BYTE   W24
 BYTE   Dn3
 BYTE   W24
 BYTE   PEND 
//  #06 //013   ----------------------------------------
 BYTE   PATT
  POIN2 Label_01036533
//  #06 //014   ----------------------------------------
 BYTE   PATT
  POIN2 Label_01036528
//  #06 //015   ----------------------------------------
 BYTE   PATT
  POIN2 Label_01036533
//  #06 //016   ----------------------------------------
 BYTE   PATT
  POIN2 Label_01036528
//  #06 //017   ----------------------------------------
 BYTE   PATT
  POIN2 Label_01036533
//  #06 //018   ----------------------------------------
 BYTE   PATT
  POIN2 Label_01036528
//  #06 //019   ----------------------------------------
 BYTE   PATT
  POIN2 Label_01036533
//  #06 //020   ----------------------------------------
 BYTE   PATT
  POIN2 Label_01036528
//  #06 //021   ----------------------------------------
 BYTE   PATT
  POIN2 Label_01036533
//  #06 //022   ----------------------------------------
 BYTE   PATT
  POIN2 Label_01036528
//  #06 //023   ----------------------------------------
 BYTE   PATT
  POIN2 Label_01036533
//  #06 //024   ----------------------------------------
 BYTE   PATT
  POIN2 Label_01036564
//  #06 //025   ----------------------------------------
Label_010365AB:
 BYTE   N24  Bn2  v127
 BYTE   W36
 BYTE   N12
 BYTE   W24
 BYTE   N12
 BYTE   W36
 BYTE   PEND 
//  #06 //026   ----------------------------------------
Label_010365B4:
 BYTE   W12
 BYTE   N24  Cn3  v127
 BYTE   W36
 BYTE   N12  An2
 BYTE   W24
 BYTE   N12
 BYTE   W24
 BYTE   PEND 
//  #06 //027   ----------------------------------------
 BYTE   PATT
  POIN2 Label_010365AB
//  #06 //028   ----------------------------------------
 BYTE   PATT
  POIN2 Label_010365B4
//  #06 //029   ----------------------------------------
 BYTE   PATT
  POIN2 Label_010365AB
//  #06 //030   ----------------------------------------
 BYTE   PATT
  POIN2 Label_010365B4
//  #06 //031   ----------------------------------------
 BYTE   PATT
  POIN2 Label_010365AB
//  #06 //032   ----------------------------------------
Label_010365D8:
 BYTE   W12
 BYTE   N24  Cn3  v127
 BYTE   W36
 BYTE   N12  En3
 BYTE   W24
 BYTE   Ds3
 BYTE   W24
 BYTE   PEND 
//  #06 //033   ----------------------------------------
 BYTE   PATT
  POIN2 Label_010365AB
//  #06 //034   ----------------------------------------
 BYTE   PATT
  POIN2 Label_010365B4
//  #06 //035   ----------------------------------------
 BYTE   PATT
  POIN2 Label_010365AB
//  #06 //036   ----------------------------------------
 BYTE   PATT
  POIN2 Label_010365B4
//  #06 //037   ----------------------------------------
 BYTE   PATT
  POIN2 Label_010365AB
//  #06 //038   ----------------------------------------
 BYTE   PATT
  POIN2 Label_010365B4
//  #06 //039   ----------------------------------------
 BYTE   PATT
  POIN2 Label_010365AB
//  #06 //040   ----------------------------------------
 BYTE   PATT
  POIN2 Label_010365D8
//  #06 //041   ----------------------------------------
 BYTE   PATT
  POIN2 Label_010365AB
//  #06 //042   ----------------------------------------
 BYTE   PATT
  POIN2 Label_010365B4
//  #06 //043   ----------------------------------------
 BYTE   PATT
  POIN2 Label_010365AB
//  #06 //044   ----------------------------------------
 BYTE   PATT
  POIN2 Label_010365B4
//  #06 //045   ----------------------------------------
 BYTE   PATT
  POIN2 Label_010365AB
//  #06 //046   ----------------------------------------
 BYTE   PATT
  POIN2 Label_010365B4
//  #06 //047   ----------------------------------------
 BYTE   PATT
  POIN2 Label_010365AB
//  #06 //048   ----------------------------------------
 BYTE   PATT
  POIN2 Label_010365D8
//  #06 //049   ----------------------------------------
 BYTE   PATT
  POIN2 Label_01036533
//  #06 //050   ----------------------------------------
 BYTE   PATT
  POIN2 Label_01036528
//  #06 //051   ----------------------------------------
 BYTE   PATT
  POIN2 Label_01036533
//  #06 //052   ----------------------------------------
 BYTE   PATT
  POIN2 Label_01036564
//  #06 //053   ----------------------------------------
 BYTE   PATT
  POIN2 Label_01036533
//  #06 //054   ----------------------------------------
 BYTE   PATT
  POIN2 Label_01036528
//  #06 //055   ----------------------------------------
 BYTE   PATT
  POIN2 Label_01036533
//  #06 //056   ----------------------------------------
 BYTE   PATT
  POIN2 Label_01036528
//  #06 //057   ----------------------------------------
 BYTE   PATT
  POIN2 Label_01036533
//  #06 //058   ----------------------------------------
 BYTE   PATT
  POIN2 Label_01036528
//  #06 //059   ----------------------------------------
 BYTE   PATT
  POIN2 Label_01036533
//  #06 //060   ----------------------------------------
 BYTE   PATT
  POIN2 Label_01036564
//  #06 //061   ----------------------------------------
 BYTE   GoTo
  POIN2 Label_01036541
 BYTE   FINE

//**************** Track 7 (Midi-Chn.6) ****************//

KHCoMTheFightForMyFriends_007:
//  #07 //000   ----------------------------------------
 BYTE   KEYSH   KHCoMTheFightForMyFriends_key+0
 BYTE   VOICE   47
 BYTE   MODT 0
 BYTE   LFOS 44
 BYTE   VOL   56*KHCoMTheFightForMyFriends_mvl/mxv
 BYTE   PAN   c_v-1
 BYTE   W96
//  #07 //001   ----------------------------------------
 BYTE   W84
 BYTE   N04  Fn2  v127
 BYTE   W04
 BYTE   N04
 BYTE   W04
 BYTE   N04
 BYTE   W04
//  #07 //002   ----------------------------------------
 BYTE   N24  As2
 BYTE   W96
//  #07 //003   ----------------------------------------
 BYTE   W84
 BYTE   N06  Gs2
 BYTE   W06
 BYTE   N06
 BYTE   W06
//  #07 //004   ----------------------------------------
Label_01044AFB:
 BYTE   N12  As2  v127
 BYTE   W36
 BYTE   Fn2
 BYTE   W24
 BYTE   As2
 BYTE   W24
 BYTE   N04
 BYTE   W04
 BYTE   N04
 BYTE   W04
 BYTE   N04
 BYTE   W04
 BYTE   PEND 
//  #07 //005   ----------------------------------------
Label_01044B0A:
 BYTE   N12  As2  v127
 BYTE   W12
 BYTE   Bn2
 BYTE   W36
 BYTE   Gs2
 BYTE   W24
 BYTE   N12
 BYTE   W24
 BYTE   PEND 
//  #07 //006   ----------------------------------------
 BYTE   PATT
  POIN2 Label_01044AFB
//  #07 //007   ----------------------------------------
Label_01044B1A:
 BYTE   N12  As2  v127
 BYTE   W12
 BYTE   Bn2
 BYTE   W36
 BYTE   Gs2
 BYTE   W24
 BYTE   Ds3
 BYTE   W12
 BYTE   Gs2
 BYTE   W12
 BYTE   PEND 
//  #07 //008   ----------------------------------------
 BYTE   PATT
  POIN2 Label_01044AFB
//  #07 //009   ----------------------------------------
 BYTE   PATT
  POIN2 Label_01044B0A
//  #07 //010   ----------------------------------------
 BYTE   PATT
  POIN2 Label_01044AFB
//  #07 //011   ----------------------------------------
 BYTE   PATT
  POIN2 Label_01044B1A
//  #07 //012   ----------------------------------------
 BYTE   PATT
  POIN2 Label_01044AFB
//  #07 //013   ----------------------------------------
 BYTE   PATT
  POIN2 Label_01044B0A
//  #07 //014   ----------------------------------------
 BYTE   PATT
  POIN2 Label_01044AFB
//  #07 //015   ----------------------------------------
 BYTE   PATT
  POIN2 Label_01044B1A
//  #07 //016   ----------------------------------------
 BYTE   PATT
  POIN2 Label_01044AFB
//  #07 //017   ----------------------------------------
 BYTE   PATT
  POIN2 Label_01044B0A
//  #07 //018   ----------------------------------------
 BYTE   PATT
  POIN2 Label_01044AFB
//  #07 //019   ----------------------------------------
 BYTE   PATT
  POIN2 Label_01044B1A
//  #07 //020   ----------------------------------------
 BYTE   PATT
  POIN2 Label_01044AFB
//  #07 //021   ----------------------------------------
 BYTE   PATT
  POIN2 Label_01044B0A
//  #07 //022   ----------------------------------------
 BYTE   PATT
  POIN2 Label_01044AFB
//  #07 //023   ----------------------------------------
 BYTE   PATT
  POIN2 Label_01044B1A
//  #07 //024   ----------------------------------------
Label_01044B77:
 BYTE   N12  Bn2  v127
 BYTE   W36
 BYTE   Fs2
 BYTE   W24
 BYTE   Bn2
 BYTE   W24
 BYTE   N04
 BYTE   W04
 BYTE   N04
 BYTE   W04
 BYTE   N04
 BYTE   W04
 BYTE   PEND 
//  #07 //025   ----------------------------------------
Label_01044B86:
 BYTE   N12  Bn2  v127
 BYTE   W12
 BYTE   Cn3
 BYTE   W36
 BYTE   An2
 BYTE   W24
 BYTE   N12
 BYTE   W24
 BYTE   PEND 
//  #07 //026   ----------------------------------------
 BYTE   PATT
  POIN2 Label_01044B77
//  #07 //027   ----------------------------------------
Label_01044B96:
 BYTE   N12  Bn2  v127
 BYTE   W12
 BYTE   Cn3
 BYTE   W36
 BYTE   An2
 BYTE   W24
 BYTE   En3
 BYTE   W12
 BYTE   An2
 BYTE   W12
 BYTE   PEND 
//  #07 //028   ----------------------------------------
 BYTE   PATT
  POIN2 Label_01044B77
//  #07 //029   ----------------------------------------
 BYTE   PATT
  POIN2 Label_01044B86
//  #07 //030   ----------------------------------------
 BYTE   PATT
  POIN2 Label_01044B77
//  #07 //031   ----------------------------------------
 BYTE   PATT
  POIN2 Label_01044B96
//  #07 //032   ----------------------------------------
 BYTE   PATT
  POIN2 Label_01044B77
//  #07 //033   ----------------------------------------
 BYTE   PATT
  POIN2 Label_01044B86
//  #07 //034   ----------------------------------------
 BYTE   PATT
  POIN2 Label_01044B77
//  #07 //035   ----------------------------------------
 BYTE   PATT
  POIN2 Label_01044B96
//  #07 //036   ----------------------------------------
 BYTE   PATT
  POIN2 Label_01044B77
//  #07 //037   ----------------------------------------
 BYTE   PATT
  POIN2 Label_01044B86
//  #07 //038   ----------------------------------------
 BYTE   PATT
  POIN2 Label_01044B77
//  #07 //039   ----------------------------------------
 BYTE   PATT
  POIN2 Label_01044B96
//  #07 //040   ----------------------------------------
 BYTE   PATT
  POIN2 Label_01044B77
//  #07 //041   ----------------------------------------
 BYTE   PATT
  POIN2 Label_01044B86
//  #07 //042   ----------------------------------------
 BYTE   PATT
  POIN2 Label_01044B77
//  #07 //043   ----------------------------------------
 BYTE   PATT
  POIN2 Label_01044B96
//  #07 //044   ----------------------------------------
 BYTE   PATT
  POIN2 Label_01044B77
//  #07 //045   ----------------------------------------
 BYTE   PATT
  POIN2 Label_01044B86
//  #07 //046   ----------------------------------------
 BYTE   PATT
  POIN2 Label_01044B77
//  #07 //047   ----------------------------------------
 BYTE   PATT
  POIN2 Label_01044B96
//  #07 //048   ----------------------------------------
 BYTE   PATT
  POIN2 Label_01044AFB
//  #07 //049   ----------------------------------------
 BYTE   PATT
  POIN2 Label_01044B0A
//  #07 //050   ----------------------------------------
 BYTE   PATT
  POIN2 Label_01044AFB
//  #07 //051   ----------------------------------------
 BYTE   PATT
  POIN2 Label_01044B1A
//  #07 //052   ----------------------------------------
 BYTE   PATT
  POIN2 Label_01044AFB
//  #07 //053   ----------------------------------------
 BYTE   PATT
  POIN2 Label_01044B0A
//  #07 //054   ----------------------------------------
 BYTE   PATT
  POIN2 Label_01044AFB
//  #07 //055   ----------------------------------------
 BYTE   PATT
  POIN2 Label_01044B1A
//  #07 //056   ----------------------------------------
 BYTE   PATT
  POIN2 Label_01044AFB
//  #07 //057   ----------------------------------------
 BYTE   PATT
  POIN2 Label_01044B0A
//  #07 //058   ----------------------------------------
 BYTE   PATT
  POIN2 Label_01044AFB
//  #07 //059   ----------------------------------------
 BYTE   PATT
  POIN2 Label_01044B1A
//  #07 //060   ----------------------------------------
 BYTE   GoTo
  POIN2 Label_01044AFB
 BYTE   FINE

//**************** Track 8 (Midi-Chn.7) ****************//

KHCoMTheFightForMyFriends_008:
//  #08 //000   ----------------------------------------
 BYTE   KEYSH   KHCoMTheFightForMyFriends_key+0
 BYTE   VOICE   127
 BYTE   MODT 0
 BYTE   LFOS 44
 BYTE   VOL   45*KHCoMTheFightForMyFriends_mvl/mxv
 BYTE   PAN   c_v+0
 BYTE   N06  Dn1  v080
 BYTE   W06
 BYTE   Dn1  v120
 BYTE   W06
 BYTE   N06
 BYTE   W06
 BYTE   Dn1  v127
 BYTE   W06
 BYTE   N11
 BYTE   W12
 BYTE   N06
 BYTE   W06
 BYTE   Dn1  v120
 BYTE   W06
 BYTE   N06
 BYTE   W06
 BYTE   Dn1  v127
 BYTE   W06
 BYTE   N11
 BYTE   W12
 BYTE   N04
 BYTE   W04
 BYTE   N04
 BYTE   W04
 BYTE   N04
 BYTE   W04
 BYTE   N06
 BYTE   W06
 BYTE   N06
 BYTE   W06
//  #08 //001   ----------------------------------------
Label_0108B478:
 BYTE   N11  Dn1  v127
 BYTE   W12
 BYTE   N11
 BYTE   W12
 BYTE   N06
 BYTE   W06
 BYTE   N06
 BYTE   W06
 BYTE   N06
 BYTE   W06
 BYTE   N06
 BYTE   W06
 BYTE   N11
 BYTE   W12
 BYTE   N06
 BYTE   W06
 BYTE   N06
 BYTE   W06
 BYTE   N06
 BYTE   W06
 BYTE   N06
 BYTE   W06
 BYTE   N11
 BYTE   W12
 BYTE   PEND 
//  #08 //002   ----------------------------------------
Label_0108B493:
 BYTE   N06  Dn1  v127
 BYTE   W06
 BYTE   N06
 BYTE   W06
 BYTE   N06
 BYTE   W06
 BYTE   N06
 BYTE   W06
 BYTE   N11
 BYTE   W12
 BYTE   N06
 BYTE   W06
 BYTE   N06
 BYTE   W06
 BYTE   N06
 BYTE   W06
 BYTE   N06
 BYTE   W06
 BYTE   N11
 BYTE   W12
 BYTE   N04
 BYTE   W04
 BYTE   N04
 BYTE   W04
 BYTE   N04
 BYTE   W04
 BYTE   N06
 BYTE   W06
 BYTE   N06
 BYTE   W06
 BYTE   PEND 
//  #08 //003   ----------------------------------------
 BYTE   PATT
  POIN2 Label_0108B478
//  #08 //004   ----------------------------------------
Label_0108B4B9:
//  #08 //005   ----------------------------------------
 BYTE   PATT
  POIN2 Label_0108B493
//  #08 //006   ----------------------------------------
 BYTE   PATT
  POIN2 Label_0108B478
//  #08 //007   ----------------------------------------
 BYTE   PATT
  POIN2 Label_0108B493
//  #08 //008   ----------------------------------------
 BYTE   PATT
  POIN2 Label_0108B478
//  #08 //009   ----------------------------------------
 BYTE   PATT
  POIN2 Label_0108B493
//  #08 //010   ----------------------------------------
 BYTE   PATT
  POIN2 Label_0108B478
//  #08 //011   ----------------------------------------
 BYTE   PATT
  POIN2 Label_0108B493
//  #08 //012   ----------------------------------------
 BYTE   PATT
  POIN2 Label_0108B478
//  #08 //013   ----------------------------------------
 BYTE   PATT
  POIN2 Label_0108B493
//  #08 //014   ----------------------------------------
 BYTE   PATT
  POIN2 Label_0108B478
//  #08 //015   ----------------------------------------
 BYTE   PATT
  POIN2 Label_0108B493
//  #08 //016   ----------------------------------------
 BYTE   PATT
  POIN2 Label_0108B478
//  #08 //017   ----------------------------------------
 BYTE   PATT
  POIN2 Label_0108B493
//  #08 //018   ----------------------------------------
 BYTE   PATT
  POIN2 Label_0108B478
//  #08 //019   ----------------------------------------
 BYTE   PATT
  POIN2 Label_0108B493
//  #08 //020   ----------------------------------------
 BYTE   PATT
  POIN2 Label_0108B478
//  #08 //021   ----------------------------------------
 BYTE   PATT
  POIN2 Label_0108B493
//  #08 //022   ----------------------------------------
 BYTE   PATT
  POIN2 Label_0108B478
//  #08 //023   ----------------------------------------
 BYTE   PATT
  POIN2 Label_0108B493
//  #08 //024   ----------------------------------------
 BYTE   PATT
  POIN2 Label_0108B478
//  #08 //025   ----------------------------------------
 BYTE   PATT
  POIN2 Label_0108B493
//  #08 //026   ----------------------------------------
 BYTE   PATT
  POIN2 Label_0108B478
//  #08 //027   ----------------------------------------
 BYTE   PATT
  POIN2 Label_0108B493
//  #08 //028   ----------------------------------------
 BYTE   PATT
  POIN2 Label_0108B478
//  #08 //029   ----------------------------------------
 BYTE   PATT
  POIN2 Label_0108B493
//  #08 //030   ----------------------------------------
 BYTE   PATT
  POIN2 Label_0108B478
//  #08 //031   ----------------------------------------
 BYTE   PATT
  POIN2 Label_0108B493
//  #08 //032   ----------------------------------------
 BYTE   PATT
  POIN2 Label_0108B478
//  #08 //033   ----------------------------------------
 BYTE   PATT
  POIN2 Label_0108B493
//  #08 //034   ----------------------------------------
 BYTE   PATT
  POIN2 Label_0108B478
//  #08 //035   ----------------------------------------
 BYTE   PATT
  POIN2 Label_0108B493
//  #08 //036   ----------------------------------------
 BYTE   PATT
  POIN2 Label_0108B478
//  #08 //037   ----------------------------------------
 BYTE   PATT
  POIN2 Label_0108B493
//  #08 //038   ----------------------------------------
 BYTE   PATT
  POIN2 Label_0108B478
//  #08 //039   ----------------------------------------
 BYTE   PATT
  POIN2 Label_0108B493
//  #08 //040   ----------------------------------------
 BYTE   PATT
  POIN2 Label_0108B478
//  #08 //041   ----------------------------------------
 BYTE   PATT
  POIN2 Label_0108B493
//  #08 //042   ----------------------------------------
 BYTE   PATT
  POIN2 Label_0108B478
//  #08 //043   ----------------------------------------
 BYTE   PATT
  POIN2 Label_0108B493
//  #08 //044   ----------------------------------------
 BYTE   PATT
  POIN2 Label_0108B478
//  #08 //045   ----------------------------------------
 BYTE   PATT
  POIN2 Label_0108B493
//  #08 //046   ----------------------------------------
 BYTE   PATT
  POIN2 Label_0108B478
//  #08 //047   ----------------------------------------
 BYTE   PATT
  POIN2 Label_0108B493
//  #08 //048   ----------------------------------------
 BYTE   PATT
  POIN2 Label_0108B478
//  #08 //049   ----------------------------------------
 BYTE   PATT
  POIN2 Label_0108B493
//  #08 //050   ----------------------------------------
 BYTE   PATT
  POIN2 Label_0108B478
//  #08 //051   ----------------------------------------
 BYTE   PATT
  POIN2 Label_0108B493
//  #08 //052   ----------------------------------------
 BYTE   PATT
  POIN2 Label_0108B478
//  #08 //053   ----------------------------------------
Label_0108B5A9:
 BYTE   N06  Dn1  v127
 BYTE   W06
 BYTE   N06
 BYTE   W06
 BYTE   N06
 BYTE   W06
 BYTE   N06
 BYTE   W06
 BYTE   N11
 BYTE   W12
 BYTE   N06
 BYTE   W24
 BYTE   N06
 BYTE   W16
 BYTE   N04
 BYTE   W04
 BYTE   N04
 BYTE   W04
 BYTE   N06
 BYTE   W06
 BYTE   N06
 BYTE   W06
 BYTE   PEND 
//  #08 //054   ----------------------------------------
 BYTE   N11
 BYTE   W12
 BYTE   N12
 BYTE   W12
 BYTE   N06
 BYTE   W06
 BYTE   N06
 BYTE   W06
 BYTE   N06
 BYTE   W06
 BYTE   N06
 BYTE   W06
 BYTE   N11
 BYTE   W12
 BYTE   N06
 BYTE   W06
 BYTE   N06
 BYTE   W06
 BYTE   N06
 BYTE   W06
 BYTE   N06
 BYTE   W06
 BYTE   N11
 BYTE   W12
//  #08 //055   ----------------------------------------
 BYTE   PATT
  POIN2 Label_0108B5A9
//  #08 //056   ----------------------------------------
 BYTE   N12  Dn1  v127
 BYTE   W12
 BYTE   N11
 BYTE   W12
 BYTE   N06
 BYTE   W06
 BYTE   N06
 BYTE   W06
 BYTE   N06
 BYTE   W06
 BYTE   N06
 BYTE   W06
 BYTE   N06
 BYTE   W06
 BYTE   N06
 BYTE   W06
 BYTE   N06
 BYTE   W06
 BYTE   N06
 BYTE   W06
 BYTE   N11
 BYTE   W12
 BYTE   N11
 BYTE   W12
//  #08 //057   ----------------------------------------
 BYTE   PATT
  POIN2 Label_0108B493
//  #08 //058   ----------------------------------------
Label_0108B5FE:
 BYTE   N11  Dn1  v127
 BYTE   W12
 BYTE   N06
 BYTE   W06
 BYTE   N06
 BYTE   W06
 BYTE   N06
 BYTE   W06
 BYTE   N06
 BYTE   W06
 BYTE   N11
 BYTE   W12
 BYTE   N06
 BYTE   W06
 BYTE   N06
 BYTE   W06
 BYTE   N06
 BYTE   W06
 BYTE   N06
 BYTE   W06
 BYTE   N11
 BYTE   W12
 BYTE   N11
 BYTE   W12
 BYTE   PEND 
//  #08 //059   ----------------------------------------
 BYTE   PATT
  POIN2 Label_0108B493
//  #08 //060   ----------------------------------------
 BYTE   PATT
  POIN2 Label_0108B5FE
//  #08 //061   ----------------------------------------
 BYTE   GoTo
  POIN2 Label_0108B4B9
 BYTE   FINE

//******************************************************//
	ALIGN 4

KHCoMTheFightForMyFriends:
	BYTE	8	// NumTrks
	BYTE	0	// NumBlks
	BYTE	KHCoMTheFightForMyFriends_pri	// Priority
	BYTE	KHCoMTheFightForMyFriends_rev	// Reverb.
    
	POIN2	KHCoMTheFightForMyFriends_grp
    
	POIN2	KHCoMTheFightForMyFriends_001
	POIN2	KHCoMTheFightForMyFriends_002
	POIN2	KHCoMTheFightForMyFriends_003
	POIN2	KHCoMTheFightForMyFriends_004
	POIN2	KHCoMTheFightForMyFriends_005
	POIN2	KHCoMTheFightForMyFriends_006
	POIN2	KHCoMTheFightForMyFriends_007
	POIN2	KHCoMTheFightForMyFriends_008

	
