//Event file generated from Sappy .s format.
	#include "MPlayDef.event"

	#define	KHDDDOscuritaDellIgnotoMycahel_grp  voicegroup000
	#define	KHDDDOscuritaDellIgnotoMycahel_pri  0
	#define	KHDDDOscuritaDellIgnotoMycahel_rev  0
	#define	KHDDDOscuritaDellIgnotoMycahel_mvl  127
	#define	KHDDDOscuritaDellIgnotoMycahel_key  0
	#define	KHDDDOscuritaDellIgnotoMycahel_tbs  1
	#define	KHDDDOscuritaDellIgnotoMycahel_exg  0
	#define	KHDDDOscuritaDellIgnotoMycahel_cmp  1

	// .rodata
	//	KHDDDOscuritaDellIgnotoMycahel
	ALIGN 4


//**************** Track 1 (Midi-Chn.0) ****************//

KHDDDOscuritaDellIgnotoMycahel_001:
// 000   ----------------------------------------
 BYTE   VOL   45*KHDDDOscuritaDellIgnotoMycahel_mvl/mxv
 BYTE   KEYSH   KHDDDOscuritaDellIgnotoMycahel_key+0
 BYTE   TEMPO   170*KHDDDOscuritaDellIgnotoMycahel_tbs/2
 BYTE   VOICE   19
 BYTE   TIE  Cn3  v096
 BYTE   N06  Gn4
 BYTE   W06
 BYTE   Ds4
 BYTE   W06
 BYTE   Cn4
 BYTE   W06
 BYTE   Ds4
 BYTE   W06
 BYTE   Fn4
 BYTE   W06
 BYTE   Dn4
 BYTE   W06
 BYTE   Bn3
 BYTE   W06
 BYTE   Dn4
 BYTE   W06
 BYTE   Ds4
 BYTE   W06
 BYTE   Cn4
 BYTE   W06
 BYTE   Gn3
 BYTE   W06
 BYTE   Cn4
 BYTE   W06
 BYTE   Dn4
 BYTE   W06
 BYTE   Bn3
 BYTE   W06
 BYTE   Gn3
 BYTE   W06
 BYTE   Bn3
 BYTE   W06
// 001   ----------------------------------------
 BYTE   Cn4
 BYTE   W06
 BYTE   Gs3
 BYTE   W06
 BYTE   Gn3
 BYTE   W06
 BYTE   Gs3
 BYTE   W06
 BYTE   Bn3
 BYTE   W06
 BYTE   Gs3
 BYTE   W06
 BYTE   Gn3
 BYTE   W06
 BYTE   Gs3
 BYTE   W06
 BYTE   Cn4
 BYTE   W06
 BYTE   Gs3
 BYTE   W06
 BYTE   Gn3
 BYTE   W06
 BYTE   Gs3
 BYTE   W06
 BYTE   Dn4
 BYTE   W06
 BYTE   Bn3
 BYTE   W06
 BYTE   Gs3
 BYTE   W06
 BYTE   Gn3
 BYTE   W06
// 002   ----------------------------------------
 BYTE   EOT
 BYTE   Cn3
 BYTE   TIE  Bn2
 BYTE   W06
 BYTE   N06  Dn3
 BYTE   W06
 BYTE   Fn3
 BYTE   W06
 BYTE   Gs3
 BYTE   W06
 BYTE   Gn3
 BYTE   W06
 BYTE   Fn3
 BYTE   W06
 BYTE   Ds3
 BYTE   W06
 BYTE   Fn3
 BYTE   W06
 BYTE   Dn3
 BYTE   W06
 BYTE   Fn3
 BYTE   W06
 BYTE   Bn3
 BYTE   W06
 BYTE   Dn4
 BYTE   W06
 BYTE   Fn4
 BYTE   W06
 BYTE   Dn4
 BYTE   W06
 BYTE   Bn3
 BYTE   W06
 BYTE   Gs3
 BYTE   W06
// 003   ----------------------------------------
 BYTE   Gn3
 BYTE   W06
 BYTE   N06
 BYTE   W06
 BYTE   Fn3
 BYTE   W06
 BYTE   Ds3
 BYTE   W06
 BYTE   Fn3
 BYTE   W06
 BYTE   Ds3
 BYTE   W06
 BYTE   Fn3
 BYTE   W06
 BYTE   Ds3
 BYTE   W06
 BYTE   Gn3
 BYTE   W06
 BYTE   Gs3
 BYTE   W06
 BYTE   Bn3
 BYTE   W06
 BYTE   Fn4
 BYTE   W06
 BYTE   Gs4
 BYTE   W06
 BYTE   Fn4
 BYTE   W06
 BYTE   Dn4
 BYTE   W06
 BYTE   Bn3
 BYTE   W06
// 004   ----------------------------------------
 BYTE   EOT
 BYTE   Bn2
 BYTE   N12  Gn3
 BYTE   N12  Cn4
 BYTE   N12  Ds4
 BYTE   W24
 BYTE   TIE  Gs3
 BYTE   TIE  Dn4
 BYTE   TIE  Fn4
 BYTE   W72
// 005   ----------------------------------------
 BYTE   W96
// 006   ----------------------------------------
 BYTE   W96
// 007   ----------------------------------------
 BYTE   W96
// 008   ----------------------------------------
 BYTE   EOT
 BYTE   Gs3  v074
 BYTE   Fn4
Label_0_01E884C3:
 BYTE   W96
// 009   ----------------------------------------
 BYTE   W96
// 010   ----------------------------------------
 BYTE   W96
// 011   ----------------------------------------
 BYTE   W96
// 012   ----------------------------------------
 BYTE   W96
// 013   ----------------------------------------
 BYTE   W96
// 014   ----------------------------------------
 BYTE   W96
// 015   ----------------------------------------
 BYTE   W96
// 016   ----------------------------------------
 BYTE   W96
// 017   ----------------------------------------
 BYTE   W96
// 018   ----------------------------------------
 BYTE   W96
// 019   ----------------------------------------
 BYTE   W96
// 020   ----------------------------------------
 BYTE   W96
// 021   ----------------------------------------
 BYTE   W96
// 022   ----------------------------------------
 BYTE   W96
// 023   ----------------------------------------
 BYTE   W96
// 024   ----------------------------------------
 BYTE   W96
// 025   ----------------------------------------
 BYTE   W96
// 026   ----------------------------------------
 BYTE   W96
// 027   ----------------------------------------
 BYTE   W96
// 028   ----------------------------------------
 BYTE   W96
// 029   ----------------------------------------
 BYTE   W96
// 030   ----------------------------------------
 BYTE   W96
// 031   ----------------------------------------
 BYTE   W96
// 032   ----------------------------------------
 BYTE   W96
// 033   ----------------------------------------
 BYTE   W96
// 034   ----------------------------------------
 BYTE   W96
// 035   ----------------------------------------
 BYTE   W96
// 036   ----------------------------------------
 BYTE   W96
// 037   ----------------------------------------
 BYTE   W96
// 038   ----------------------------------------
 BYTE   W96
// 039   ----------------------------------------
 BYTE   W96
// 040   ----------------------------------------
 BYTE   W96
// 041   ----------------------------------------
 BYTE   W96
// 042   ----------------------------------------
 BYTE   W96
// 043   ----------------------------------------
 BYTE   W96
// 044   ----------------------------------------
 BYTE   W96
// 045   ----------------------------------------
 BYTE   W96
// 046   ----------------------------------------
 BYTE   W96
// 047   ----------------------------------------
 BYTE   W96
// 048   ----------------------------------------
 BYTE   W96
// 049   ----------------------------------------
 BYTE   W96
// 050   ----------------------------------------
 BYTE   W96
// 051   ----------------------------------------
 BYTE   W96
// 052   ----------------------------------------
 BYTE   W96
// 053   ----------------------------------------
 BYTE   W96
// 054   ----------------------------------------
 BYTE   W96
// 055   ----------------------------------------
 BYTE   W96
// 056   ----------------------------------------
 BYTE   W96
// 057   ----------------------------------------
 BYTE   W96
// 058   ----------------------------------------
 BYTE   W96
// 059   ----------------------------------------
 BYTE   W96
// 060   ----------------------------------------
 BYTE   W96
// 061   ----------------------------------------
 BYTE   W96
// 062   ----------------------------------------
 BYTE   W96
// 063   ----------------------------------------
 BYTE   W96
// 064   ----------------------------------------
 BYTE   W96
// 065   ----------------------------------------
 BYTE   W96
// 066   ----------------------------------------
 BYTE   W96
// 067   ----------------------------------------
 BYTE   W96
// 068   ----------------------------------------
 BYTE   W96
// 069   ----------------------------------------
 BYTE   W96
// 070   ----------------------------------------
 BYTE   W96
// 071   ----------------------------------------
 BYTE   W96
// 072   ----------------------------------------
 BYTE   W96
// 073   ----------------------------------------
 BYTE   W96
// 074   ----------------------------------------
 BYTE   W96
// 075   ----------------------------------------
 BYTE   W96
// 076   ----------------------------------------
 BYTE   W96
// 077   ----------------------------------------
 BYTE   W96
// 078   ----------------------------------------
Label_0_01E88509:
 BYTE   N12  Cn4  v096
 BYTE   W12
 BYTE   Ds4
 BYTE   W12
 BYTE   Gn4
 BYTE   W12
 BYTE   Cn5
 BYTE   W12
 BYTE   Ds5
 BYTE   W12
 BYTE   Cn5
 BYTE   W12
 BYTE   Gn4
 BYTE   W12
 BYTE   Ds4
 BYTE   W12
 BYTE   PEND 
// 079   ----------------------------------------
Label_0_01E8851C:
 BYTE   N12  As3  v096
 BYTE   W12
 BYTE   Dn4
 BYTE   W12
 BYTE   Fn4
 BYTE   W12
 BYTE   As4
 BYTE   W12
 BYTE   Dn5
 BYTE   W12
 BYTE   As4
 BYTE   W12
 BYTE   Fn4
 BYTE   W12
 BYTE   Dn4
 BYTE   W12
 BYTE   PEND 
// 080   ----------------------------------------
Label_0_01E8852F:
 BYTE   N12  Gs3  v096
 BYTE   W12
 BYTE   Cn4
 BYTE   W12
 BYTE   Ds4
 BYTE   W12
 BYTE   Gs4
 BYTE   W12
 BYTE   Cn5
 BYTE   W12
 BYTE   Gs4
 BYTE   W12
 BYTE   Ds4
 BYTE   W12
 BYTE   Cn4
 BYTE   W12
 BYTE   PEND 
// 081   ----------------------------------------
 BYTE   PATT
  POIN2 Label_0_01E8851C
// 082   ----------------------------------------
 BYTE   PATT
  POIN2 Label_0_01E88509
// 083   ----------------------------------------
 BYTE   PATT
  POIN2 Label_0_01E8851C
// 084   ----------------------------------------
 BYTE   PATT
  POIN2 Label_0_01E8852F
// 085   ----------------------------------------
 BYTE   PATT
  POIN2 Label_0_01E8851C
// 086   ----------------------------------------
Label_0_01E8855B:
 BYTE   N12  Cn4  v096
 BYTE   W12
 BYTE   Cn5
 BYTE   W12
 BYTE   Bn4
 BYTE   W12
 BYTE   Gn4
 BYTE   W12
 BYTE   As4
 BYTE   W12
 BYTE   Gs4
 BYTE   W12
 BYTE   Fn4
 BYTE   W12
 BYTE   Gn4
 BYTE   W12
 BYTE   PEND 
// 087   ----------------------------------------
 BYTE   Cn4
 BYTE   W12
 BYTE   Dn4
 BYTE   W12
 BYTE   Ds4
 BYTE   W12
 BYTE   Cn4
 BYTE   W12
 BYTE   Dn4
 BYTE   W12
 BYTE   Ds4
 BYTE   W12
 BYTE   Gn4
 BYTE   W12
 BYTE   Fn4
 BYTE   W12
// 088   ----------------------------------------
 BYTE   PATT
  POIN2 Label_0_01E8855B
// 089   ----------------------------------------
 BYTE   N12  Cn4  v096
 BYTE   W12
 BYTE   Dn4
 BYTE   W12
 BYTE   Ds4
 BYTE   W12
 BYTE   Cn4
 BYTE   W12
 BYTE   Dn4
 BYTE   W12
 BYTE   Ds4
 BYTE   W12
 BYTE   Gn4
 BYTE   W12
 BYTE   Fn4
 BYTE   W11
 BYTE   GoTo
  POIN2 Label_0_01E884C3
// 090   ----------------------------------------
 BYTE   W01
 BYTE   FINE

//**************** Track 2 (Midi-Chn.1) ****************//

KHDDDOscuritaDellIgnotoMycahel_002:
// 000   ----------------------------------------
 BYTE   VOL   45*KHDDDOscuritaDellIgnotoMycahel_mvl/mxv
 BYTE   KEYSH   KHDDDOscuritaDellIgnotoMycahel_key+0
 BYTE   VOICE   52
 BYTE   TIE  Gn3  v096
 BYTE   W01
 BYTE   Cn3
 BYTE   W92
 BYTE   W03
// 001   ----------------------------------------
 BYTE   W92
 BYTE   W03
 BYTE   EOT
 BYTE   W01
// 002   ----------------------------------------
 BYTE   TIE  Bn2
 BYTE   W96
// 003   ----------------------------------------
 BYTE   W96
// 004   ----------------------------------------
 BYTE   EOT
 BYTE   Gn3
 BYTE   TIE  Gs3
 BYTE   TIE  Cn4
 BYTE   W01
 BYTE   EOT
 BYTE   Bn2
 BYTE   W92
 BYTE   W03
// 005   ----------------------------------------
 BYTE   W96
// 006   ----------------------------------------
 BYTE   TIE  Dn4  v127
 BYTE   W96
// 007   ----------------------------------------
 BYTE   W96
// 008   ----------------------------------------
 BYTE   EOT
 BYTE   Gs3  v072
 BYTE   Dn4
Label_1_01E885C6:
 BYTE   TIE  Cn3  v096
 BYTE   TIE  Gn3
 BYTE   W96
 BYTE   PEND 
// 009   ----------------------------------------
 BYTE   W96
// 010   ----------------------------------------
 BYTE   W96
// 011   ----------------------------------------
 BYTE   W96
// 012   ----------------------------------------
 BYTE   EOT
 BYTE   Cn3  v067
// 013   ----------------------------------------
 BYTE   PATT
  POIN2 Label_1_01E885C6
// 014   ----------------------------------------
 BYTE   W96
// 015   ----------------------------------------
 BYTE   W96
// 016   ----------------------------------------
 BYTE   W96
// 017   ----------------------------------------
 BYTE   EOT
 BYTE   Cn3  v067
Label_1_01E885DE:
 BYTE   TIE  Bn2  v096
 BYTE   TIE  Gn3
 BYTE   W96
 BYTE   PEND 
// 018   ----------------------------------------
 BYTE   W96
// 019   ----------------------------------------
 BYTE   W96
// 020   ----------------------------------------
 BYTE   W96
// 021   ----------------------------------------
 BYTE   EOT
 BYTE   Bn2  v067
// 022   ----------------------------------------
 BYTE   PATT
  POIN2 Label_1_01E885C6
// 023   ----------------------------------------
 BYTE   W96
// 024   ----------------------------------------
 BYTE   W96
// 025   ----------------------------------------
 BYTE   W96
// 026   ----------------------------------------
 BYTE   EOT
 BYTE   Cn3  v067
// 027   ----------------------------------------
 BYTE   PATT
  POIN2 Label_1_01E885DE
// 028   ----------------------------------------
 BYTE   W96
// 029   ----------------------------------------
 BYTE   W96
// 030   ----------------------------------------
 BYTE   W96
// 031   ----------------------------------------
 BYTE   EOT
 BYTE   Bn2  v067
 BYTE   TIE  Gs2  v096
 BYTE   TIE  Gn3
 BYTE   W96
// 032   ----------------------------------------
 BYTE   W96
// 033   ----------------------------------------
 BYTE   W96
// 034   ----------------------------------------
 BYTE   W96
// 035   ----------------------------------------
 BYTE   EOT
 BYTE   Gs2  v067
// 036   ----------------------------------------
 BYTE   PATT
  POIN2 Label_1_01E885C6
// 037   ----------------------------------------
 BYTE   W96
// 038   ----------------------------------------
 BYTE   EOT
 BYTE   Cn3  v067
// 039   ----------------------------------------
 BYTE   PATT
  POIN2 Label_1_01E885DE
// 040   ----------------------------------------
 BYTE   W96
// 041   ----------------------------------------
 BYTE   EOT
 BYTE   Bn2  v067
Label_1_01E8861F:
 BYTE   TIE  Cn3  v096
 BYTE   TIE  Gs3
 BYTE   W96
 BYTE   PEND 
// 042   ----------------------------------------
 BYTE   W96
// 043   ----------------------------------------
 BYTE   EOT
 BYTE   Cn3  v068
 BYTE   TIE  Cn3
 BYTE   TIE  An3
 BYTE   W96
// 044   ----------------------------------------
 BYTE   W96
// 045   ----------------------------------------
 BYTE   EOT
 BYTE   Cn3  v069
 BYTE   TIE  Dn3
 BYTE   TIE  Bn3
 BYTE   W96
// 046   ----------------------------------------
 BYTE   W96
// 047   ----------------------------------------
 BYTE   EOT
 BYTE   Dn3  v071
// 048   ----------------------------------------
 BYTE   PATT
  POIN2 Label_1_01E885C6
// 049   ----------------------------------------
 BYTE   W96
// 050   ----------------------------------------
 BYTE   W96
// 051   ----------------------------------------
 BYTE   W96
// 052   ----------------------------------------
 BYTE   EOT
 BYTE   Cn3  v067
// 053   ----------------------------------------
 BYTE   PATT
  POIN2 Label_1_01E885DE
// 054   ----------------------------------------
 BYTE   W96
// 055   ----------------------------------------
 BYTE   W96
// 056   ----------------------------------------
 BYTE   W96
// 057   ----------------------------------------
 BYTE   EOT
 BYTE   Bn2  v067
// 058   ----------------------------------------
 BYTE   PATT
  POIN2 Label_1_01E885C6
// 059   ----------------------------------------
 BYTE   W96
// 060   ----------------------------------------
 BYTE   W96
// 061   ----------------------------------------
 BYTE   W96
// 062   ----------------------------------------
 BYTE   EOT
 BYTE   Cn3  v067
// 063   ----------------------------------------
 BYTE   PATT
  POIN2 Label_1_01E885DE
// 064   ----------------------------------------
 BYTE   W96
// 065   ----------------------------------------
 BYTE   W96
// 066   ----------------------------------------
 BYTE   W96
// 067   ----------------------------------------
 BYTE   EOT
 BYTE   Bn2  v067
// 068   ----------------------------------------
 BYTE   PATT
  POIN2 Label_1_01E8861F
// 069   ----------------------------------------
 BYTE   W96
// 070   ----------------------------------------
 BYTE   W96
// 071   ----------------------------------------
 BYTE   W96
// 072   ----------------------------------------
 BYTE   EOT
 BYTE   Cn3  v068
Label_1_01E88673:
 BYTE   TIE  Dn3  v096
 BYTE   TIE  As3
 BYTE   W96
 BYTE   PEND 
// 073   ----------------------------------------
 BYTE   W96
// 074   ----------------------------------------
 BYTE   W96
// 075   ----------------------------------------
 BYTE   W96
// 076   ----------------------------------------
 BYTE   EOT
 BYTE   Dn3  v070
// 077   ----------------------------------------
 BYTE   PATT
  POIN2 Label_1_01E8861F
// 078   ----------------------------------------
 BYTE   W96
// 079   ----------------------------------------
 BYTE   W96
// 080   ----------------------------------------
 BYTE   W96
// 081   ----------------------------------------
 BYTE   EOT
 BYTE   Cn3  v068
// 082   ----------------------------------------
 BYTE   PATT
  POIN2 Label_1_01E88673
// 083   ----------------------------------------
 BYTE   W96
// 084   ----------------------------------------
 BYTE   W96
// 085   ----------------------------------------
 BYTE   W96
// 086   ----------------------------------------
 BYTE   EOT
 BYTE   Dn3  v070
 BYTE   TIE  Ds3  v096
 BYTE   TIE  Cn4
 BYTE   W96
// 087   ----------------------------------------
 BYTE   W96
// 088   ----------------------------------------
 BYTE   EOT
 BYTE   Ds3  v072
 BYTE   TIE  Dn3
 BYTE   TIE  Gs3
 BYTE   W96
// 089   ----------------------------------------
 BYTE   W96
// 090   ----------------------------------------
 BYTE   EOT
 BYTE   Dn3  v068
 BYTE   TIE  Ds3
 BYTE   TIE  Gn3
 BYTE   N96  Cn4
 BYTE   W96
// 091   ----------------------------------------
 BYTE   As3
 BYTE   W96
// 092   ----------------------------------------
 BYTE   EOT
 BYTE   Ds3  v067
 BYTE   TIE  Ds3
 BYTE   TIE  Fn3
 BYTE   N96  Gs3
 BYTE   W96
// 093   ----------------------------------------
 BYTE   As3
 BYTE   W96
// 094   ----------------------------------------
 BYTE   EOT
 BYTE   Ds3  v065
 BYTE   TIE  Cn3
 BYTE   TIE  Gn3
 BYTE   N96  Cn4
 BYTE   W96
// 095   ----------------------------------------
 BYTE   As3
 BYTE   W96
// 096   ----------------------------------------
 BYTE   EOT
 BYTE   Cn3  v067
 BYTE   TIE  Dn3
 BYTE   TIE  Fn3
 BYTE   N96  Gs3
 BYTE   W96
// 097   ----------------------------------------
 BYTE   As3
 BYTE   W96
// 098   ----------------------------------------
 BYTE   EOT
 BYTE   Dn3  v065
 BYTE   TIE  Ds3
 BYTE   TIE  Gn3
 BYTE   TIE  Cn4
 BYTE   W96
// 099   ----------------------------------------
 BYTE   W92
 BYTE   W02
 BYTE   EOT
 BYTE   Ds3  v067
 BYTE   Cn4
 BYTE   TIE  Ds3
 BYTE   TIE  Gn3
 BYTE   TIE  Cn4
 BYTE   W02
// 100   ----------------------------------------
 BYTE   W96
// 101   ----------------------------------------
 BYTE   W92
 BYTE   W03
 BYTE   EOT
 BYTE   Ds3  v067
 BYTE   Cn4
 BYTE   GoTo
  POIN2 Label_1_01E885C6
// 102   ----------------------------------------
 BYTE   W01
 BYTE   FINE

//**************** Track 3 (Midi-Chn.2) ****************//

KHDDDOscuritaDellIgnotoMycahel_003:
// 000   ----------------------------------------
 BYTE   VOL   76*KHDDDOscuritaDellIgnotoMycahel_mvl/mxv
 BYTE   KEYSH   KHDDDOscuritaDellIgnotoMycahel_key+0
 BYTE   VOICE   116
 BYTE   W96
// 001   ----------------------------------------
 BYTE   W96
// 002   ----------------------------------------
 BYTE   W96
// 003   ----------------------------------------
 BYTE   W96
// 004   ----------------------------------------
 BYTE   W96
// 005   ----------------------------------------
 BYTE   W96
// 006   ----------------------------------------
 BYTE   W96
// 007   ----------------------------------------
 BYTE   W96
// 008   ----------------------------------------
Label_2_01E8870A:
 BYTE   N24  Cn1  v116
 BYTE   W24
 BYTE   N24
 BYTE   W24
 BYTE   N24
 BYTE   W24
 BYTE   N24
 BYTE   W24
 BYTE   PEND 
// 009   ----------------------------------------
 BYTE   PATT
  POIN2 Label_2_01E8870A
// 010   ----------------------------------------
 BYTE   PATT
  POIN2 Label_2_01E8870A
// 011   ----------------------------------------
 BYTE   PATT
  POIN2 Label_2_01E8870A
// 012   ----------------------------------------
 BYTE   PATT
  POIN2 Label_2_01E8870A
// 013   ----------------------------------------
 BYTE   PATT
  POIN2 Label_2_01E8870A
// 014   ----------------------------------------
 BYTE   PATT
  POIN2 Label_2_01E8870A
// 015   ----------------------------------------
 BYTE   PATT
  POIN2 Label_2_01E8870A
// 016   ----------------------------------------
Label_2_01E88738:
 BYTE   N24  Bn0  v116
 BYTE   W24
 BYTE   Cn1
 BYTE   W24
 BYTE   N24
 BYTE   W24
 BYTE   N24
 BYTE   W24
 BYTE   PEND 
// 017   ----------------------------------------
 BYTE   PATT
  POIN2 Label_2_01E8870A
// 018   ----------------------------------------
 BYTE   PATT
  POIN2 Label_2_01E8870A
// 019   ----------------------------------------
 BYTE   PATT
  POIN2 Label_2_01E8870A
// 020   ----------------------------------------
 BYTE   PATT
  POIN2 Label_2_01E8870A
// 021   ----------------------------------------
 BYTE   PATT
  POIN2 Label_2_01E8870A
// 022   ----------------------------------------
 BYTE   PATT
  POIN2 Label_2_01E8870A
// 023   ----------------------------------------
 BYTE   PATT
  POIN2 Label_2_01E8870A
// 024   ----------------------------------------
Label_2_01E88766:
 BYTE   N24  Cn1  v116
 BYTE   W24
 BYTE   Bn0
 BYTE   W24
 BYTE   Cn1
 BYTE   W24
 BYTE   N24
 BYTE   W24
 BYTE   PEND 
// 025   ----------------------------------------
 BYTE   PATT
  POIN2 Label_2_01E8870A
// 026   ----------------------------------------
 BYTE   PATT
  POIN2 Label_2_01E8870A
// 027   ----------------------------------------
 BYTE   PATT
  POIN2 Label_2_01E8870A
// 028   ----------------------------------------
 BYTE   PATT
  POIN2 Label_2_01E8870A
// 029   ----------------------------------------
 BYTE   PATT
  POIN2 Label_2_01E8870A
// 030   ----------------------------------------
 BYTE   PATT
  POIN2 Label_2_01E8870A
// 031   ----------------------------------------
 BYTE   PATT
  POIN2 Label_2_01E8870A
// 032   ----------------------------------------
Label_2_01E88794:
 BYTE   N24  Cn1  v116
 BYTE   W24
 BYTE   N24
 BYTE   W24
 BYTE   Bn0
 BYTE   W24
 BYTE   Cn1
 BYTE   W24
 BYTE   PEND 
// 033   ----------------------------------------
 BYTE   PATT
  POIN2 Label_2_01E8870A
// 034   ----------------------------------------
 BYTE   PATT
  POIN2 Label_2_01E8870A
// 035   ----------------------------------------
 BYTE   PATT
  POIN2 Label_2_01E8870A
// 036   ----------------------------------------
 BYTE   PATT
  POIN2 Label_2_01E8870A
// 037   ----------------------------------------
 BYTE   PATT
  POIN2 Label_2_01E8870A
// 038   ----------------------------------------
 BYTE   PATT
  POIN2 Label_2_01E8870A
// 039   ----------------------------------------
 BYTE   PATT
  POIN2 Label_2_01E8870A
// 040   ----------------------------------------
 BYTE   N24  Cn1  v116
 BYTE   W24
 BYTE   N24
 BYTE   W24
 BYTE   N24
 BYTE   W24
 BYTE   Bn0
 BYTE   W24
// 041   ----------------------------------------
Label_2_01E887CC:
 BYTE   N24  En2  v116
 BYTE   W36
 BYTE   N24
 BYTE   W36
 BYTE   N24
 BYTE   W24
 BYTE   PEND 
// 042   ----------------------------------------
 BYTE   PATT
  POIN2 Label_2_01E8870A
// 043   ----------------------------------------
 BYTE   PATT
  POIN2 Label_2_01E8870A
// 044   ----------------------------------------
 BYTE   PATT
  POIN2 Label_2_01E8870A
// 045   ----------------------------------------
 BYTE   PATT
  POIN2 Label_2_01E8870A
// 046   ----------------------------------------
 BYTE   PATT
  POIN2 Label_2_01E88738
// 047   ----------------------------------------
 BYTE   PATT
  POIN2 Label_2_01E8870A
// 048   ----------------------------------------
 BYTE   PATT
  POIN2 Label_2_01E8870A
// 049   ----------------------------------------
 BYTE   PATT
  POIN2 Label_2_01E8870A
// 050   ----------------------------------------
 BYTE   PATT
  POIN2 Label_2_01E8870A
// 051   ----------------------------------------
 BYTE   PATT
  POIN2 Label_2_01E8870A
// 052   ----------------------------------------
 BYTE   PATT
  POIN2 Label_2_01E8870A
// 053   ----------------------------------------
 BYTE   PATT
  POIN2 Label_2_01E8870A
// 054   ----------------------------------------
 BYTE   PATT
  POIN2 Label_2_01E88766
// 055   ----------------------------------------
 BYTE   PATT
  POIN2 Label_2_01E8870A
// 056   ----------------------------------------
 BYTE   PATT
  POIN2 Label_2_01E8870A
// 057   ----------------------------------------
 BYTE   PATT
  POIN2 Label_2_01E8870A
// 058   ----------------------------------------
 BYTE   W96
// 059   ----------------------------------------
 BYTE   W96
// 060   ----------------------------------------
 BYTE   W96
// 061   ----------------------------------------
 BYTE   W96
// 062   ----------------------------------------
 BYTE   PATT
  POIN2 Label_2_01E8870A
// 063   ----------------------------------------
 BYTE   PATT
  POIN2 Label_2_01E8870A
// 064   ----------------------------------------
 BYTE   PATT
  POIN2 Label_2_01E8870A
// 065   ----------------------------------------
 BYTE   PATT
  POIN2 Label_2_01E8870A
// 066   ----------------------------------------
 BYTE   PATT
  POIN2 Label_2_01E88766
// 067   ----------------------------------------
 BYTE   PATT
  POIN2 Label_2_01E8870A
// 068   ----------------------------------------
 BYTE   PATT
  POIN2 Label_2_01E8870A
// 069   ----------------------------------------
 BYTE   PATT
  POIN2 Label_2_01E8870A
// 070   ----------------------------------------
 BYTE   PATT
  POIN2 Label_2_01E8870A
// 071   ----------------------------------------
 BYTE   PATT
  POIN2 Label_2_01E8870A
// 072   ----------------------------------------
 BYTE   PATT
  POIN2 Label_2_01E8870A
// 073   ----------------------------------------
 BYTE   PATT
  POIN2 Label_2_01E8870A
// 074   ----------------------------------------
 BYTE   PATT
  POIN2 Label_2_01E88794
// 075   ----------------------------------------
 BYTE   PATT
  POIN2 Label_2_01E8870A
// 076   ----------------------------------------
 BYTE   PATT
  POIN2 Label_2_01E8870A
// 077   ----------------------------------------
 BYTE   PATT
  POIN2 Label_2_01E887CC
// 078   ----------------------------------------
 BYTE   W96
// 079   ----------------------------------------
 BYTE   W96
// 080   ----------------------------------------
 BYTE   W96
// 081   ----------------------------------------
 BYTE   W96
// 082   ----------------------------------------
 BYTE   W96
// 083   ----------------------------------------
 BYTE   W96
// 084   ----------------------------------------
 BYTE   W96
// 085   ----------------------------------------
 BYTE   W96
// 086   ----------------------------------------
 BYTE   W96
// 087   ----------------------------------------
 BYTE   W96
// 088   ----------------------------------------
 BYTE   W96
// 089   ----------------------------------------
 BYTE   W92
 BYTE   W03
 BYTE   GoTo
  POIN2 Label_2_01E8870A
// 090   ----------------------------------------
 BYTE   W01
 BYTE   FINE

//**************** Track 4 (Midi-Chn.3) ****************//

KHDDDOscuritaDellIgnotoMycahel_004:
// 000   ----------------------------------------
 BYTE   VOL   74*KHDDDOscuritaDellIgnotoMycahel_mvl/mxv
 BYTE   KEYSH   KHDDDOscuritaDellIgnotoMycahel_key+0
 BYTE   VOICE   117
 BYTE   W96
// 001   ----------------------------------------
 BYTE   W96
// 002   ----------------------------------------
 BYTE   W96
// 003   ----------------------------------------
 BYTE   W96
// 004   ----------------------------------------
Label_3_01E8889A:
 BYTE   N12  Cn1  v116
 BYTE   N12  En1
 BYTE   W12
 BYTE   N06  Fs1
 BYTE   W06
 BYTE   N06
 BYTE   W06
 BYTE   N06
 BYTE   W12
 BYTE   N12  Cn1
 BYTE   W12
 BYTE   N06  Fs1
 BYTE   W06
 BYTE   N06
 BYTE   W06
 BYTE   N06
 BYTE   W12
 BYTE   N12  Cn1
 BYTE   W12
 BYTE   N06  Fs1
 BYTE   W06
 BYTE   N06
 BYTE   W06
 BYTE   PEND 
// 005   ----------------------------------------
Label_3_01E888BA:
 BYTE   N12  En1  v116
 BYTE   N06  Fs1
 BYTE   W12
 BYTE   N12  Cn1
 BYTE   W12
 BYTE   N06  Fs1
 BYTE   W06
 BYTE   N06
 BYTE   W06
 BYTE   N06
 BYTE   W12
 BYTE   N12  Cn1
 BYTE   W12
 BYTE   N06  Fs1
 BYTE   W06
 BYTE   N06
 BYTE   W06
 BYTE   N12  Cn1
 BYTE   W12
 BYTE   N06  Fs1
 BYTE   W06
 BYTE   N06
 BYTE   W06
 BYTE   PEND 
// 006   ----------------------------------------
 BYTE   PATT
  POIN2 Label_3_01E8889A
// 007   ----------------------------------------
 BYTE   PATT
  POIN2 Label_3_01E888BA
// 008   ----------------------------------------
Label_3_01E888E5:
 BYTE   N12  Cn1  v104
 BYTE   N12  En1
 BYTE   W12
 BYTE   An1  v088
 BYTE   W12
 BYTE   N12
 BYTE   W12
 BYTE   Cn1  v104
 BYTE   N12  An1  v088
 BYTE   W12
 BYTE   N12
 BYTE   W12
 BYTE   N12
 BYTE   W12
 BYTE   Cn1  v104
 BYTE   N12  An1  v088
 BYTE   W12
 BYTE   N12
 BYTE   W12
 BYTE   PEND 
// 009   ----------------------------------------
Label_3_01E88903:
 BYTE   N12  En1  v104
 BYTE   W12
 BYTE   Cn1
 BYTE   N12  An1  v088
 BYTE   W12
 BYTE   N12
 BYTE   W12
 BYTE   N12
 BYTE   W12
 BYTE   Cn1  v104
 BYTE   N12  An1  v088
 BYTE   W12
 BYTE   N12
 BYTE   W12
 BYTE   N06  Cn1  v104
 BYTE   N12  An1  v088
 BYTE   W06
 BYTE   N06  Cn1  v104
 BYTE   W06
 BYTE   N06
 BYTE   N12  An1  v088
 BYTE   W06
 BYTE   N06  Cn1  v104
 BYTE   W06
 BYTE   PEND 
// 010   ----------------------------------------
 BYTE   PATT
  POIN2 Label_3_01E888E5
// 011   ----------------------------------------
 BYTE   PATT
  POIN2 Label_3_01E88903
// 012   ----------------------------------------
 BYTE   PATT
  POIN2 Label_3_01E888E5
// 013   ----------------------------------------
 BYTE   PATT
  POIN2 Label_3_01E88903
// 014   ----------------------------------------
 BYTE   PATT
  POIN2 Label_3_01E888E5
// 015   ----------------------------------------
 BYTE   PATT
  POIN2 Label_3_01E88903
// 016   ----------------------------------------
 BYTE   PATT
  POIN2 Label_3_01E888E5
// 017   ----------------------------------------
 BYTE   PATT
  POIN2 Label_3_01E88903
// 018   ----------------------------------------
 BYTE   PATT
  POIN2 Label_3_01E888E5
// 019   ----------------------------------------
 BYTE   PATT
  POIN2 Label_3_01E88903
// 020   ----------------------------------------
 BYTE   PATT
  POIN2 Label_3_01E888E5
// 021   ----------------------------------------
Label_3_01E88964:
 BYTE   N12  En1  v104
 BYTE   W12
 BYTE   Cn1
 BYTE   N12  An1  v088
 BYTE   W12
 BYTE   N12
 BYTE   W12
 BYTE   N12
 BYTE   W12
 BYTE   Cn1  v104
 BYTE   N12  An1  v088
 BYTE   W12
 BYTE   N12
 BYTE   W12
 BYTE   Cn1  v104
 BYTE   N12  An1  v088
 BYTE   W12
 BYTE   N12
 BYTE   W12
 BYTE   PEND 
// 022   ----------------------------------------
 BYTE   PATT
  POIN2 Label_3_01E888E5
// 023   ----------------------------------------
 BYTE   PATT
  POIN2 Label_3_01E88964
// 024   ----------------------------------------
 BYTE   PATT
  POIN2 Label_3_01E888E5
// 025   ----------------------------------------
 BYTE   PATT
  POIN2 Label_3_01E88964
// 026   ----------------------------------------
 BYTE   PATT
  POIN2 Label_3_01E888E5
// 027   ----------------------------------------
 BYTE   PATT
  POIN2 Label_3_01E88964
// 028   ----------------------------------------
 BYTE   PATT
  POIN2 Label_3_01E888E5
// 029   ----------------------------------------
 BYTE   PATT
  POIN2 Label_3_01E88903
// 030   ----------------------------------------
 BYTE   PATT
  POIN2 Label_3_01E888E5
// 031   ----------------------------------------
 BYTE   PATT
  POIN2 Label_3_01E88903
// 032   ----------------------------------------
 BYTE   PATT
  POIN2 Label_3_01E888E5
// 033   ----------------------------------------
 BYTE   PATT
  POIN2 Label_3_01E88903
// 034   ----------------------------------------
 BYTE   PATT
  POIN2 Label_3_01E888E5
// 035   ----------------------------------------
 BYTE   PATT
  POIN2 Label_3_01E88903
// 036   ----------------------------------------
 BYTE   PATT
  POIN2 Label_3_01E888E5
// 037   ----------------------------------------
 BYTE   PATT
  POIN2 Label_3_01E88903
// 038   ----------------------------------------
 BYTE   PATT
  POIN2 Label_3_01E888E5
// 039   ----------------------------------------
 BYTE   PATT
  POIN2 Label_3_01E88903
// 040   ----------------------------------------
 BYTE   PATT
  POIN2 Label_3_01E888E5
// 041   ----------------------------------------
 BYTE   PATT
  POIN2 Label_3_01E88903
// 042   ----------------------------------------
 BYTE   PATT
  POIN2 Label_3_01E888E5
// 043   ----------------------------------------
 BYTE   PATT
  POIN2 Label_3_01E88903
// 044   ----------------------------------------
 BYTE   PATT
  POIN2 Label_3_01E888E5
// 045   ----------------------------------------
 BYTE   PATT
  POIN2 Label_3_01E88903
// 046   ----------------------------------------
 BYTE   PATT
  POIN2 Label_3_01E888E5
// 047   ----------------------------------------
 BYTE   PATT
  POIN2 Label_3_01E88903
// 048   ----------------------------------------
 BYTE   PATT
  POIN2 Label_3_01E888E5
// 049   ----------------------------------------
 BYTE   PATT
  POIN2 Label_3_01E88903
// 050   ----------------------------------------
 BYTE   PATT
  POIN2 Label_3_01E888E5
// 051   ----------------------------------------
 BYTE   PATT
  POIN2 Label_3_01E88903
// 052   ----------------------------------------
 BYTE   PATT
  POIN2 Label_3_01E888E5
// 053   ----------------------------------------
 BYTE   PATT
  POIN2 Label_3_01E88903
// 054   ----------------------------------------
 BYTE   PATT
  POIN2 Label_3_01E888E5
// 055   ----------------------------------------
 BYTE   PATT
  POIN2 Label_3_01E88903
// 056   ----------------------------------------
 BYTE   PATT
  POIN2 Label_3_01E888E5
// 057   ----------------------------------------
 BYTE   PATT
  POIN2 Label_3_01E88903
// 058   ----------------------------------------
 BYTE   W96
// 059   ----------------------------------------
 BYTE   W96
// 060   ----------------------------------------
 BYTE   W96
// 061   ----------------------------------------
 BYTE   W96
// 062   ----------------------------------------
 BYTE   PATT
  POIN2 Label_3_01E888E5
// 063   ----------------------------------------
 BYTE   PATT
  POIN2 Label_3_01E88903
// 064   ----------------------------------------
 BYTE   PATT
  POIN2 Label_3_01E888E5
// 065   ----------------------------------------
 BYTE   PATT
  POIN2 Label_3_01E88903
// 066   ----------------------------------------
 BYTE   PATT
  POIN2 Label_3_01E888E5
// 067   ----------------------------------------
 BYTE   PATT
  POIN2 Label_3_01E88903
// 068   ----------------------------------------
 BYTE   PATT
  POIN2 Label_3_01E888E5
// 069   ----------------------------------------
 BYTE   PATT
  POIN2 Label_3_01E88903
// 070   ----------------------------------------
 BYTE   PATT
  POIN2 Label_3_01E888E5
// 071   ----------------------------------------
 BYTE   PATT
  POIN2 Label_3_01E88903
// 072   ----------------------------------------
 BYTE   PATT
  POIN2 Label_3_01E888E5
// 073   ----------------------------------------
 BYTE   PATT
  POIN2 Label_3_01E88903
// 074   ----------------------------------------
 BYTE   PATT
  POIN2 Label_3_01E888E5
// 075   ----------------------------------------
 BYTE   PATT
  POIN2 Label_3_01E88903
// 076   ----------------------------------------
 BYTE   PATT
  POIN2 Label_3_01E888E5
// 077   ----------------------------------------
 BYTE   PATT
  POIN2 Label_3_01E88903
// 078   ----------------------------------------
 BYTE   W96
// 079   ----------------------------------------
 BYTE   W96
// 080   ----------------------------------------
 BYTE   W96
// 081   ----------------------------------------
 BYTE   W96
// 082   ----------------------------------------
 BYTE   W96
// 083   ----------------------------------------
 BYTE   W96
// 084   ----------------------------------------
 BYTE   W96
// 085   ----------------------------------------
 BYTE   W96
// 086   ----------------------------------------
 BYTE   W96
// 087   ----------------------------------------
 BYTE   W96
// 088   ----------------------------------------
 BYTE   W96
// 089   ----------------------------------------
 BYTE   W84
 BYTE   N03  Ds3  v127
 BYTE   W03
 BYTE   N03
 BYTE   W03
 BYTE   N03
 BYTE   W03
 BYTE   N03
 BYTE   W02
 BYTE   GoTo
  POIN2 Label_3_01E888E5
// 090   ----------------------------------------
 BYTE   W01
 BYTE   FINE

//**************** Track 5 (Midi-Chn.4) ****************//

KHDDDOscuritaDellIgnotoMycahel_005:
// 000   ----------------------------------------
 BYTE   VOL   47*KHDDDOscuritaDellIgnotoMycahel_mvl/mxv
 BYTE   KEYSH   KHDDDOscuritaDellIgnotoMycahel_key+0
 BYTE   VOICE   57
 BYTE   W96
// 001   ----------------------------------------
 BYTE   W96
// 002   ----------------------------------------
 BYTE   W96
// 003   ----------------------------------------
 BYTE   W96
// 004   ----------------------------------------
 BYTE   N96  Cn2  v096
 BYTE   W96
// 005   ----------------------------------------
 BYTE   N96
 BYTE   W96
// 006   ----------------------------------------
 BYTE   W96
// 007   ----------------------------------------
 BYTE   W96
// 008   ----------------------------------------
Label_4_01E88ABA:
 BYTE   TIE  Cn2  v096
 BYTE   W96
// 009   ----------------------------------------
 BYTE   W96
// 010   ----------------------------------------
 BYTE   EOT
 BYTE   W96
// 011   ----------------------------------------
 BYTE   W96
// 012   ----------------------------------------
 BYTE   TIE
 BYTE   W96
// 013   ----------------------------------------
 BYTE   W96
// 014   ----------------------------------------
 BYTE   EOT
 BYTE   W96
// 015   ----------------------------------------
 BYTE   W96
// 016   ----------------------------------------
 BYTE   TIE  Bn1
 BYTE   W96
// 017   ----------------------------------------
 BYTE   W96
// 018   ----------------------------------------
 BYTE   EOT
 BYTE   W96
// 019   ----------------------------------------
 BYTE   W96
// 020   ----------------------------------------
 BYTE   TIE  Cn2
 BYTE   W96
// 021   ----------------------------------------
 BYTE   W96
// 022   ----------------------------------------
 BYTE   EOT
 BYTE   W96
// 023   ----------------------------------------
 BYTE   W96
// 024   ----------------------------------------
 BYTE   TIE  Bn1
 BYTE   W96
// 025   ----------------------------------------
 BYTE   W96
// 026   ----------------------------------------
 BYTE   EOT
 BYTE   W96
// 027   ----------------------------------------
 BYTE   W96
// 028   ----------------------------------------
 BYTE   W96
// 029   ----------------------------------------
 BYTE   W96
// 030   ----------------------------------------
 BYTE   W96
// 031   ----------------------------------------
 BYTE   W96
// 032   ----------------------------------------
 BYTE   W96
// 033   ----------------------------------------
 BYTE   W96
// 034   ----------------------------------------
 BYTE   W96
// 035   ----------------------------------------
 BYTE   W96
// 036   ----------------------------------------
 BYTE   TIE  Cn2
 BYTE   W96
// 037   ----------------------------------------
 BYTE   W96
// 038   ----------------------------------------
 BYTE   EOT
 BYTE   W96
// 039   ----------------------------------------
 BYTE   W96
// 040   ----------------------------------------
 BYTE   W96
// 041   ----------------------------------------
 BYTE   W96
// 042   ----------------------------------------
 BYTE   TIE
 BYTE   W96
// 043   ----------------------------------------
 BYTE   W96
// 044   ----------------------------------------
 BYTE   EOT
 BYTE   W96
// 045   ----------------------------------------
 BYTE   W96
// 046   ----------------------------------------
 BYTE   TIE  Bn1
 BYTE   W96
// 047   ----------------------------------------
 BYTE   W96
// 048   ----------------------------------------
 BYTE   EOT
 BYTE   W96
// 049   ----------------------------------------
 BYTE   W96
// 050   ----------------------------------------
 BYTE   TIE  Cn2
 BYTE   W96
// 051   ----------------------------------------
 BYTE   W96
// 052   ----------------------------------------
 BYTE   EOT
 BYTE   W96
// 053   ----------------------------------------
 BYTE   W96
// 054   ----------------------------------------
 BYTE   TIE  Bn1
 BYTE   W96
// 055   ----------------------------------------
 BYTE   W96
// 056   ----------------------------------------
 BYTE   EOT
 BYTE   W96
// 057   ----------------------------------------
 BYTE   W96
// 058   ----------------------------------------
 BYTE   TIE  Gs1  v116
 BYTE   W96
// 059   ----------------------------------------
 BYTE   W48
 BYTE   EOT
 BYTE   W48
// 060   ----------------------------------------
 BYTE   W96
// 061   ----------------------------------------
 BYTE   W96
// 062   ----------------------------------------
 BYTE   TIE  As1
 BYTE   W96
// 063   ----------------------------------------
 BYTE   W48
 BYTE   EOT
 BYTE   W48
// 064   ----------------------------------------
 BYTE   W96
// 065   ----------------------------------------
 BYTE   W96
// 066   ----------------------------------------
 BYTE   TIE  Gs1
 BYTE   W96
// 067   ----------------------------------------
 BYTE   W48
 BYTE   EOT
 BYTE   W48
// 068   ----------------------------------------
 BYTE   W96
// 069   ----------------------------------------
 BYTE   W96
// 070   ----------------------------------------
 BYTE   TIE  As1
 BYTE   W96
// 071   ----------------------------------------
 BYTE   W48
 BYTE   EOT
 BYTE   W48
// 072   ----------------------------------------
 BYTE   W96
// 073   ----------------------------------------
 BYTE   W96
// 074   ----------------------------------------
 BYTE   TIE  Gs1
 BYTE   W96
// 075   ----------------------------------------
 BYTE   W48
 BYTE   EOT
 BYTE   W48
// 076   ----------------------------------------
 BYTE   N96  As1
 BYTE   W96
// 077   ----------------------------------------
 BYTE   Bn1
 BYTE   W96
// 078   ----------------------------------------
 BYTE   W96
// 079   ----------------------------------------
 BYTE   W96
// 080   ----------------------------------------
 BYTE   W96
// 081   ----------------------------------------
 BYTE   W96
// 082   ----------------------------------------
 BYTE   W96
// 083   ----------------------------------------
 BYTE   W96
// 084   ----------------------------------------
 BYTE   W96
// 085   ----------------------------------------
 BYTE   W96
// 086   ----------------------------------------
 BYTE   W96
// 087   ----------------------------------------
 BYTE   W96
// 088   ----------------------------------------
 BYTE   W96
// 089   ----------------------------------------
 BYTE   W92
 BYTE   W03
 BYTE   GoTo
  POIN2 Label_4_01E88ABA
// 090   ----------------------------------------
 BYTE   W01
 BYTE   FINE

//**************** Track 6 (Midi-Chn.5) ****************//

KHDDDOscuritaDellIgnotoMycahel_006:
// 000   ----------------------------------------
 BYTE   VOL   94*KHDDDOscuritaDellIgnotoMycahel_mvl/mxv
 BYTE   KEYSH   KHDDDOscuritaDellIgnotoMycahel_key+0
 BYTE   VOICE   42
 BYTE   W96
// 001   ----------------------------------------
 BYTE   W96
// 002   ----------------------------------------
 BYTE   W96
// 003   ----------------------------------------
 BYTE   W96
// 004   ----------------------------------------
 BYTE   TIE  Gn4  v096
 BYTE   W96
// 005   ----------------------------------------
 BYTE   W96
// 006   ----------------------------------------
 BYTE   EOT
 BYTE   N96  Cn5
 BYTE   W96
// 007   ----------------------------------------
 BYTE   N72  Dn5
 BYTE   W72
 BYTE   N06
 BYTE   W06
 BYTE   N06
 BYTE   W06
 BYTE   N06
 BYTE   W06
 BYTE   N06
 BYTE   W06
// 008   ----------------------------------------
Label_5_01E88B6A:
 BYTE   W96
// 009   ----------------------------------------
 BYTE   W96
// 010   ----------------------------------------
 BYTE   W96
// 011   ----------------------------------------
 BYTE   W72
 BYTE   N06  Gn3  v096
 BYTE   W06
 BYTE   An3
 BYTE   W06
 BYTE   Bn3
 BYTE   W06
 BYTE   Cn4
 BYTE   W06
// 012   ----------------------------------------
Label_5_01E88B78:
 BYTE   N60  Dn4  v096
 BYTE   W60
 BYTE   N12  Cn4
 BYTE   W12
 BYTE   Gn4
 BYTE   W12
 BYTE   N72  Dn4
 BYTE   W12
 BYTE   PEND 
// 013   ----------------------------------------
Label_5_01E88B85:
 BYTE   W60
 BYTE   N12  Cn4  v096
 BYTE   W12
 BYTE   Gn4
 BYTE   W12
 BYTE   TIE  Dn4
 BYTE   W12
 BYTE   PEND 
// 014   ----------------------------------------
 BYTE   W96
// 015   ----------------------------------------
 BYTE   W12
 BYTE   EOT
 BYTE   N12  Cn4
 BYTE   W12
 BYTE   Dn4
 BYTE   W12
 BYTE   Ds4
 BYTE   W12
 BYTE   Fn4
 BYTE   W12
 BYTE   Ds4
 BYTE   W12
 BYTE   Dn4
 BYTE   W12
 BYTE   Cn4
 BYTE   W12
// 016   ----------------------------------------
 BYTE   TIE  Bn3
 BYTE   W96
// 017   ----------------------------------------
 BYTE   W60
 BYTE   EOT
 BYTE   N12  Gn3
 BYTE   W12
 BYTE   Gn4
 BYTE   W12
 BYTE   TIE  Dn4
 BYTE   W12
// 018   ----------------------------------------
 BYTE   W96
// 019   ----------------------------------------
 BYTE   W72
 BYTE   EOT
 BYTE   N06
 BYTE   W06
 BYTE   Ds4
 BYTE   W06
 BYTE   Dn4
 BYTE   W06
 BYTE   Cn4
 BYTE   W06
// 020   ----------------------------------------
 BYTE   PATT
  POIN2 Label_5_01E88B78
// 021   ----------------------------------------
 BYTE   PATT
  POIN2 Label_5_01E88B85
// 022   ----------------------------------------
 BYTE   W96
// 023   ----------------------------------------
 BYTE   W12
 BYTE   EOT
 BYTE   Dn4
 BYTE   N12  Cn4  v096
 BYTE   W12
 BYTE   Dn4
 BYTE   W12
 BYTE   Ds4
 BYTE   W12
 BYTE   Fn4
 BYTE   W12
 BYTE   Ds4
 BYTE   W12
 BYTE   Fn4
 BYTE   W12
 BYTE   Gn4
 BYTE   W12
// 024   ----------------------------------------
 BYTE   TIE  Bn3
 BYTE   W96
// 025   ----------------------------------------
 BYTE   W72
 BYTE   EOT
 BYTE   N06
 BYTE   W06
 BYTE   Cn4
 BYTE   W06
 BYTE   Dn4
 BYTE   W06
 BYTE   Ds4
 BYTE   W06
// 026   ----------------------------------------
 BYTE   TIE  Dn4
 BYTE   W96
// 027   ----------------------------------------
 BYTE   W72
 BYTE   EOT
 BYTE   N06
 BYTE   W06
 BYTE   Ds4
 BYTE   W06
 BYTE   Dn4
 BYTE   W06
 BYTE   Cn4
 BYTE   W06
// 028   ----------------------------------------
 BYTE   N06
 BYTE   W06
 BYTE   N18  Dn4
 BYTE   W18
 BYTE   N12  Cn4
 BYTE   W12
 BYTE   Dn4
 BYTE   W12
 BYTE   Gn4
 BYTE   W12
 BYTE   N24  Dn4
 BYTE   W24
 BYTE   N12  Cn4
 BYTE   W12
// 029   ----------------------------------------
 BYTE   Gn3
 BYTE   W12
 BYTE   Cn4
 BYTE   W12
 BYTE   Dn4
 BYTE   W12
 BYTE   N24  Gn4
 BYTE   W24
 BYTE   N12  Dn4
 BYTE   W12
 BYTE   N12
 BYTE   W12
 BYTE   Cn4
 BYTE   W12
// 030   ----------------------------------------
 BYTE   N18  Cs4
 BYTE   W18
 BYTE   Cn4
 BYTE   W18
 BYTE   N12  Cs4
 BYTE   W12
 BYTE   N06  Gn4
 BYTE   W06
 BYTE   Gs4
 BYTE   W06
 BYTE   N60  As4
 BYTE   W36
// 031   ----------------------------------------
 BYTE   W24
 BYTE   N24  Gs4
 BYTE   W24
 BYTE   As4
 BYTE   W24
 BYTE   Gs4
 BYTE   W24
// 032   ----------------------------------------
 BYTE   N06  Gn4
 BYTE   W06
 BYTE   Gs4
 BYTE   W06
 BYTE   Gn4
 BYTE   W06
 BYTE   Fn4
 BYTE   W06
 BYTE   TIE  Gn4
 BYTE   W72
// 033   ----------------------------------------
 BYTE   W48
 BYTE   EOT
 BYTE   W24
 BYTE   N24  Cn4
 BYTE   W24
// 034   ----------------------------------------
 BYTE   TIE  Gn3
 BYTE   W96
// 035   ----------------------------------------
 BYTE   W24
 BYTE   EOT
 BYTE   N24  En3
 BYTE   W24
 BYTE   Gn3
 BYTE   W24
 BYTE   En3
 BYTE   W24
// 036   ----------------------------------------
 BYTE   N48  Fn3
 BYTE   W48
 BYTE   Gn3
 BYTE   W48
// 037   ----------------------------------------
 BYTE   Gs3
 BYTE   W48
 BYTE   As3
 BYTE   W48
// 038   ----------------------------------------
 BYTE   TIE  Cn4
 BYTE   W96
// 039   ----------------------------------------
 BYTE   W84
 BYTE   EOT
 BYTE   N06  Bn3
 BYTE   W06
 BYTE   Cn4
 BYTE   W06
// 040   ----------------------------------------
 BYTE   TIE  Dn4
 BYTE   W96
// 041   ----------------------------------------
 BYTE   W60
 BYTE   EOT
 BYTE   W12
 BYTE   N06  Gn3
 BYTE   W06
 BYTE   An3
 BYTE   W06
 BYTE   Bn3
 BYTE   W06
 BYTE   Cn4
 BYTE   W06
// 042   ----------------------------------------
 BYTE   PATT
  POIN2 Label_5_01E88B78
// 043   ----------------------------------------
 BYTE   PATT
  POIN2 Label_5_01E88B85
// 044   ----------------------------------------
 BYTE   W96
// 045   ----------------------------------------
 BYTE   W12
 BYTE   EOT
 BYTE   Dn4
 BYTE   N12  Cn4  v096
 BYTE   W12
 BYTE   Dn4
 BYTE   W12
 BYTE   Ds4
 BYTE   W12
 BYTE   Fn4
 BYTE   W12
 BYTE   Ds4
 BYTE   W12
 BYTE   Dn4
 BYTE   W12
 BYTE   Cn4
 BYTE   W12
// 046   ----------------------------------------
 BYTE   TIE  Bn3
 BYTE   W96
// 047   ----------------------------------------
 BYTE   W60
 BYTE   EOT
 BYTE   N12  Gn3
 BYTE   W12
 BYTE   Gn4
 BYTE   W12
 BYTE   TIE  Dn4
 BYTE   W12
// 048   ----------------------------------------
 BYTE   W96
// 049   ----------------------------------------
 BYTE   W72
 BYTE   EOT
 BYTE   N06
 BYTE   W06
 BYTE   Ds4
 BYTE   W06
 BYTE   Dn4
 BYTE   W06
 BYTE   Cn4
 BYTE   W06
// 050   ----------------------------------------
 BYTE   PATT
  POIN2 Label_5_01E88B78
// 051   ----------------------------------------
 BYTE   PATT
  POIN2 Label_5_01E88B85
// 052   ----------------------------------------
 BYTE   W96
// 053   ----------------------------------------
 BYTE   W12
 BYTE   EOT
 BYTE   Dn4
 BYTE   N12  Cn4  v096
 BYTE   W12
 BYTE   Dn4
 BYTE   W12
 BYTE   Ds4
 BYTE   W12
 BYTE   Fn4
 BYTE   W12
 BYTE   Ds4
 BYTE   W12
 BYTE   Fn4
 BYTE   W12
 BYTE   Gn4
 BYTE   W12
// 054   ----------------------------------------
 BYTE   TIE  Bn3
 BYTE   W96
// 055   ----------------------------------------
 BYTE   W72
 BYTE   EOT
 BYTE   N06
 BYTE   W06
 BYTE   Cn4
 BYTE   W06
 BYTE   Dn4
 BYTE   W06
 BYTE   Ds4
 BYTE   W06
// 056   ----------------------------------------
 BYTE   TIE  Dn4
 BYTE   W96
// 057   ----------------------------------------
 BYTE   W72
 BYTE   EOT
 BYTE   N06  Cn4
 BYTE   W06
 BYTE   Dn4
 BYTE   W06
 BYTE   Ds4
 BYTE   W06
 BYTE   Fn4
 BYTE   W06
// 058   ----------------------------------------
 BYTE   TIE  Gn4
 BYTE   W96
// 059   ----------------------------------------
 BYTE   W36
 BYTE   EOT
 BYTE   N36  Dn5
 BYTE   W36
 BYTE   N24  Ds5
 BYTE   W24
// 060   ----------------------------------------
 BYTE   N36  Dn5
 BYTE   W36
 BYTE   Cn5
 BYTE   W36
 BYTE   N24  Gn4
 BYTE   W24
// 061   ----------------------------------------
Label_5_01E88CEE:
 BYTE   N36  Fn4  v096
 BYTE   W36
 BYTE   Ds4
 BYTE   W36
 BYTE   N24  Dn4
 BYTE   W24
 BYTE   PEND 
// 062   ----------------------------------------
 BYTE   N36  Cn4
 BYTE   W36
 BYTE   N96  Gn4
 BYTE   W60
// 063   ----------------------------------------
 BYTE   W36
 BYTE   N36  As4
 BYTE   W36
 BYTE   N24  Gs4
 BYTE   W24
// 064   ----------------------------------------
Label_5_01E88D05:
 BYTE   N36  Gn4  v096
 BYTE   W36
 BYTE   N60  Dn4
 BYTE   W60
 BYTE   PEND 
// 065   ----------------------------------------
 BYTE   PATT
  POIN2 Label_5_01E88CEE
// 066   ----------------------------------------
 BYTE   TIE  Gn4  v096
 BYTE   W96
// 067   ----------------------------------------
 BYTE   W36
 BYTE   EOT
 BYTE   N36  Dn5
 BYTE   W36
 BYTE   N24  Ds5
 BYTE   W24
// 068   ----------------------------------------
 BYTE   N36  Dn5
 BYTE   W36
 BYTE   Cn5
 BYTE   W36
 BYTE   N24  Dn5
 BYTE   W24
// 069   ----------------------------------------
 BYTE   N36  Fn5
 BYTE   W36
 BYTE   Ds5
 BYTE   W36
 BYTE   N24  Dn5
 BYTE   W24
// 070   ----------------------------------------
 BYTE   N36  Cn5
 BYTE   W36
 BYTE   N96  Gn5
 BYTE   W60
// 071   ----------------------------------------
 BYTE   W36
 BYTE   N36  Fn4
 BYTE   W36
 BYTE   N24  Ds4
 BYTE   W24
// 072   ----------------------------------------
 BYTE   N36  Dn4
 BYTE   W36
 BYTE   Ds4
 BYTE   W36
 BYTE   N24  Fn4
 BYTE   W24
// 073   ----------------------------------------
 BYTE   N36  Gn4
 BYTE   W36
 BYTE   Fn4
 BYTE   W36
 BYTE   N24  As4
 BYTE   W24
// 074   ----------------------------------------
 BYTE   N36  Cn5
 BYTE   W36
 BYTE   N96  Gn4
 BYTE   W60
// 075   ----------------------------------------
 BYTE   W36
 BYTE   N36
 BYTE   W36
 BYTE   N24  Gs4
 BYTE   W24
// 076   ----------------------------------------
 BYTE   PATT
  POIN2 Label_5_01E88D05
// 077   ----------------------------------------
 BYTE   PATT
  POIN2 Label_5_01E88CEE
// 078   ----------------------------------------
 BYTE   W96
// 079   ----------------------------------------
 BYTE   W96
// 080   ----------------------------------------
 BYTE   W96
// 081   ----------------------------------------
 BYTE   W96
// 082   ----------------------------------------
 BYTE   W96
// 083   ----------------------------------------
 BYTE   W96
// 084   ----------------------------------------
 BYTE   W96
// 085   ----------------------------------------
 BYTE   W96
// 086   ----------------------------------------
 BYTE   W96
// 087   ----------------------------------------
 BYTE   W96
// 088   ----------------------------------------
 BYTE   W96
// 089   ----------------------------------------
 BYTE   W92
 BYTE   W03
 BYTE   GoTo
  POIN2 Label_5_01E88B6A
// 090   ----------------------------------------
 BYTE   W01
 BYTE   FINE

//**************** Track 7 (Midi-Chn.6) ****************//

KHDDDOscuritaDellIgnotoMycahel_007:
// 000   ----------------------------------------
 BYTE   VOL   32*KHDDDOscuritaDellIgnotoMycahel_mvl/mxv
 BYTE   KEYSH   KHDDDOscuritaDellIgnotoMycahel_key+0
 BYTE   VOICE   40
 BYTE   W96
// 001   ----------------------------------------
 BYTE   W96
// 002   ----------------------------------------
 BYTE   W96
// 003   ----------------------------------------
 BYTE   W96
// 004   ----------------------------------------
 BYTE   W96
// 005   ----------------------------------------
 BYTE   W96
// 006   ----------------------------------------
 BYTE   W96
// 007   ----------------------------------------
 BYTE   W72
 BYTE   N06  As2  v096
 BYTE   N06  Cn3
 BYTE   W06
 BYTE   Bn2
 BYTE   N06  Dn3
 BYTE   W06
 BYTE   Cn3
 BYTE   N06  Ds3
 BYTE   W06
 BYTE   Dn3
 BYTE   N06  Fn3
 BYTE   W06
// 008   ----------------------------------------
Label_6_01E88D98:
 BYTE   N18  Cn3  v096
 BYTE   N18  Gn3  v127
 BYTE   W36
 BYTE   Cn3  v096
 BYTE   N18  Gn3  v127
 BYTE   W36
 BYTE   Bn2  v096
 BYTE   N18  Fn3  v127
 BYTE   W24
 BYTE   PEND 
// 009   ----------------------------------------
 BYTE   PATT
  POIN2 Label_6_01E88D98
// 010   ----------------------------------------
Label_6_01E88DB1:
 BYTE   N18  Cn3  v096
 BYTE   N18  Ds3
 BYTE   N18  Gn3  v127
 BYTE   W36
 BYTE   Cn3  v096
 BYTE   N18  Fn3
 BYTE   N18  Gs3  v127
 BYTE   W36
 BYTE   Bn2  v096
 BYTE   N18  Gn3
 BYTE   N18  As3  v127
 BYTE   W24
 BYTE   PEND 
// 011   ----------------------------------------
Label_6_01E88DCB:
 BYTE   N18  Cn3  v096
 BYTE   N18  Fn3  v092
 BYTE   N18  Gs3  v127
 BYTE   W36
 BYTE   Cn3  v096
 BYTE   N18  Ds3  v092
 BYTE   N18  Gn3  v127
 BYTE   W36
 BYTE   Bn2  v096
 BYTE   N18  Dn3  v092
 BYTE   N18  Fn3  v127
 BYTE   W24
 BYTE   PEND 
// 012   ----------------------------------------
 BYTE   PATT
  POIN2 Label_6_01E88D98
// 013   ----------------------------------------
 BYTE   PATT
  POIN2 Label_6_01E88D98
// 014   ----------------------------------------
Label_6_01E88DF2:
 BYTE   N18  Cn3  v096
 BYTE   N18  Gn3  v127
 BYTE   W36
 BYTE   Cn3  v096
 BYTE   N18  Gs3  v127
 BYTE   W36
 BYTE   Bn2  v096
 BYTE   N18  As3  v127
 BYTE   W24
 BYTE   PEND 
// 015   ----------------------------------------
Label_6_01E88E06:
 BYTE   N18  Cn3  v096
 BYTE   N18  Gs3  v127
 BYTE   W36
 BYTE   Cn3  v096
 BYTE   N18  Gn3  v127
 BYTE   W36
 BYTE   Bn2  v096
 BYTE   N18  Fn3  v127
 BYTE   W24
 BYTE   PEND 
// 016   ----------------------------------------
Label_6_01E88E1A:
 BYTE   N18  Bn2  v096
 BYTE   N18  Gn3  v127
 BYTE   W36
 BYTE   Bn2  v096
 BYTE   N18  Gn3  v127
 BYTE   W36
 BYTE   Gn2  v096
 BYTE   N18  Fn3  v127
 BYTE   W24
 BYTE   PEND 
// 017   ----------------------------------------
 BYTE   PATT
  POIN2 Label_6_01E88E1A
// 018   ----------------------------------------
Label_6_01E88E33:
 BYTE   N18  Bn2  v096
 BYTE   N18  Gn3  v127
 BYTE   W36
 BYTE   Bn2  v096
 BYTE   N18  Gs3  v127
 BYTE   W36
 BYTE   Gn2  v096
 BYTE   N18  Bn3  v127
 BYTE   W24
 BYTE   PEND 
// 019   ----------------------------------------
Label_6_01E88E47:
 BYTE   N18  Bn2  v096
 BYTE   N18  Gs3  v127
 BYTE   W36
 BYTE   Bn2  v096
 BYTE   N18  Gn3  v127
 BYTE   W36
 BYTE   Gn2  v096
 BYTE   N18  Fn3  v127
 BYTE   W24
 BYTE   PEND 
// 020   ----------------------------------------
 BYTE   PATT
  POIN2 Label_6_01E88D98
// 021   ----------------------------------------
 BYTE   PATT
  POIN2 Label_6_01E88D98
// 022   ----------------------------------------
 BYTE   PATT
  POIN2 Label_6_01E88DF2
// 023   ----------------------------------------
 BYTE   PATT
  POIN2 Label_6_01E88E06
// 024   ----------------------------------------
 BYTE   PATT
  POIN2 Label_6_01E88E1A
// 025   ----------------------------------------
 BYTE   PATT
  POIN2 Label_6_01E88E1A
// 026   ----------------------------------------
 BYTE   PATT
  POIN2 Label_6_01E88E33
// 027   ----------------------------------------
 BYTE   PATT
  POIN2 Label_6_01E88E47
// 028   ----------------------------------------
Label_6_01E88E83:
 BYTE   N06  Ds3  v060
 BYTE   N06  Gn3  v092
 BYTE   W06
 BYTE   Ds3  v060
 BYTE   N06  Gn3  v092
 BYTE   W06
 BYTE   Cn3  v060
 BYTE   N06  Ds3  v092
 BYTE   W06
 BYTE   Cn3  v060
 BYTE   N06  Ds3  v092
 BYTE   W06
 BYTE   Cn3  v060
 BYTE   N06  Ds3  v092
 BYTE   W06
 BYTE   Cn3  v060
 BYTE   N06  Ds3  v092
 BYTE   W06
 BYTE   Gn2  v060
 BYTE   N06  Cn3  v092
 BYTE   W06
 BYTE   Gn2  v060
 BYTE   N06  Cn3  v092
 BYTE   W06
 BYTE   Ds3  v060
 BYTE   N06  Gn3  v092
 BYTE   W06
 BYTE   Ds3  v060
 BYTE   N06  Gn3  v092
 BYTE   W06
 BYTE   Cn3  v060
 BYTE   N06  Ds3  v092
 BYTE   W06
 BYTE   Cn3  v060
 BYTE   N06  Ds3  v092
 BYTE   W06
 BYTE   Cn3  v060
 BYTE   N06  Ds3  v092
 BYTE   W06
 BYTE   Cn3  v060
 BYTE   N06  Ds3  v092
 BYTE   W06
 BYTE   Gn2  v060
 BYTE   N06  Cn3  v092
 BYTE   W06
 BYTE   Gn2  v060
 BYTE   N06  Cn3  v092
 BYTE   W06
 BYTE   PEND 
// 029   ----------------------------------------
 BYTE   PATT
  POIN2 Label_6_01E88E83
// 030   ----------------------------------------
Label_6_01E88EEA:
 BYTE   N06  Cs3  v060
 BYTE   N06  Gs3  v092
 BYTE   W06
 BYTE   Cs3  v060
 BYTE   N06  Gs3  v092
 BYTE   W06
 BYTE   As2  v060
 BYTE   N06  Fn3  v092
 BYTE   W06
 BYTE   As2  v060
 BYTE   N06  Fn3  v092
 BYTE   W06
 BYTE   As2  v060
 BYTE   N06  Fn3  v092
 BYTE   W06
 BYTE   As2  v060
 BYTE   N06  Fn3  v092
 BYTE   W06
 BYTE   Fn2  v060
 BYTE   N06  Cs3  v092
 BYTE   W06
 BYTE   Fn2  v060
 BYTE   N06  Cs3  v092
 BYTE   W06
 BYTE   Cs3  v060
 BYTE   N06  Gs3  v092
 BYTE   W06
 BYTE   Cs3  v060
 BYTE   N06  Gs3  v092
 BYTE   W06
 BYTE   As2  v060
 BYTE   N06  Fn3  v092
 BYTE   W06
 BYTE   As2  v060
 BYTE   N06  Fn3  v092
 BYTE   W06
 BYTE   As2  v060
 BYTE   N06  Fn3  v092
 BYTE   W06
 BYTE   As2  v060
 BYTE   N06  Fn3  v092
 BYTE   W06
 BYTE   Fn2  v060
 BYTE   N06  Cs3  v092
 BYTE   W06
 BYTE   Fn2  v060
 BYTE   N06  Cs3  v092
 BYTE   W06
 BYTE   PEND 
// 031   ----------------------------------------
 BYTE   PATT
  POIN2 Label_6_01E88EEA
// 032   ----------------------------------------
 BYTE   PATT
  POIN2 Label_6_01E88E83
// 033   ----------------------------------------
 BYTE   PATT
  POIN2 Label_6_01E88E83
// 034   ----------------------------------------
 BYTE   N06  En3  v076
 BYTE   N06  Gn3  v092
 BYTE   W06
 BYTE   En3  v076
 BYTE   N06  Gn3  v092
 BYTE   W06
 BYTE   Bn2  v076
 BYTE   N06  En3  v092
 BYTE   W06
 BYTE   Bn2  v076
 BYTE   N06  En3  v092
 BYTE   W06
 BYTE   Bn2  v076
 BYTE   N06  En3  v092
 BYTE   W06
 BYTE   Bn2  v076
 BYTE   N06  En3  v092
 BYTE   W06
 BYTE   En2  v076
 BYTE   N06  Bn2  v092
 BYTE   W06
 BYTE   En2  v076
 BYTE   N06  Bn2  v092
 BYTE   W06
 BYTE   En3  v080
 BYTE   N06  Gn3  v092
 BYTE   W06
 BYTE   En3  v080
 BYTE   N06  Gn3  v092
 BYTE   W06
 BYTE   Bn2  v080
 BYTE   N06  En3  v092
 BYTE   W06
 BYTE   Bn2  v080
 BYTE   N06  En3  v092
 BYTE   W06
 BYTE   Bn2  v080
 BYTE   N06  En3  v092
 BYTE   W06
 BYTE   Bn2  v080
 BYTE   N06  En3  v092
 BYTE   W06
 BYTE   En2  v080
 BYTE   N06  Bn2  v092
 BYTE   W06
 BYTE   En2  v080
 BYTE   N06  Bn2  v092
 BYTE   W06
// 035   ----------------------------------------
 BYTE   En3  v080
 BYTE   N06  Gn3  v092
 BYTE   W06
 BYTE   En3  v080
 BYTE   N06  Gn3  v092
 BYTE   W06
 BYTE   Bn2  v080
 BYTE   N06  En3  v092
 BYTE   W06
 BYTE   Bn2  v080
 BYTE   N06  En3  v092
 BYTE   W06
 BYTE   Bn2  v080
 BYTE   N06  En3  v092
 BYTE   W06
 BYTE   Bn2  v080
 BYTE   N06  En3  v092
 BYTE   W06
 BYTE   En2  v080
 BYTE   N06  Bn2  v092
 BYTE   W06
 BYTE   En2  v080
 BYTE   N06  Bn2  v092
 BYTE   W06
 BYTE   En3  v080
 BYTE   N06  Gn3  v092
 BYTE   W06
 BYTE   En3  v080
 BYTE   N06  Gn3  v092
 BYTE   W06
 BYTE   Bn2  v080
 BYTE   N06  En3  v092
 BYTE   W06
 BYTE   Bn2  v080
 BYTE   N06  En3  v092
 BYTE   W06
 BYTE   Bn2  v080
 BYTE   N06  En3  v092
 BYTE   W06
 BYTE   Bn2  v080
 BYTE   N06  En3  v092
 BYTE   W06
 BYTE   En2  v080
 BYTE   N06  Bn2  v092
 BYTE   W06
 BYTE   En2  v080
 BYTE   N06  Bn2  v092
 BYTE   W06
// 036   ----------------------------------------
 BYTE   PATT
  POIN2 Label_6_01E88E83
// 037   ----------------------------------------
 BYTE   PATT
  POIN2 Label_6_01E88E83
// 038   ----------------------------------------
Label_6_01E89026:
 BYTE   N06  Ds3  v060
 BYTE   N06  Gs3  v092
 BYTE   W06
 BYTE   Ds3  v060
 BYTE   N06  Gs3  v092
 BYTE   W06
 BYTE   Cn3  v060
 BYTE   N06  Ds3  v092
 BYTE   W06
 BYTE   Cn3  v060
 BYTE   N06  Ds3  v092
 BYTE   W06
 BYTE   Cn3  v060
 BYTE   N06  Ds3  v092
 BYTE   W06
 BYTE   Cn3  v060
 BYTE   N06  Ds3  v092
 BYTE   W06
 BYTE   Gn2  v060
 BYTE   N06  Cn3  v092
 BYTE   W06
 BYTE   Gn2  v060
 BYTE   N06  Cn3  v092
 BYTE   W06
 BYTE   Ds3  v060
 BYTE   N06  Gs3  v092
 BYTE   W06
 BYTE   Ds3  v060
 BYTE   N06  Gs3  v092
 BYTE   W06
 BYTE   Cn3  v060
 BYTE   N06  Ds3  v092
 BYTE   W06
 BYTE   Cn3  v060
 BYTE   N06  Ds3  v092
 BYTE   W06
 BYTE   Cn3  v060
 BYTE   N06  Ds3  v092
 BYTE   W06
 BYTE   Cn3  v060
 BYTE   N06  Ds3  v092
 BYTE   W06
 BYTE   Gn2  v060
 BYTE   N06  Cn3  v092
 BYTE   W06
 BYTE   Gn2  v060
 BYTE   N06  Cn3  v092
 BYTE   W06
 BYTE   PEND 
// 039   ----------------------------------------
 BYTE   PATT
  POIN2 Label_6_01E89026
// 040   ----------------------------------------
 BYTE   PATT
  POIN2 Label_6_01E88E33
// 041   ----------------------------------------
 BYTE   PATT
  POIN2 Label_6_01E88E47
// 042   ----------------------------------------
 BYTE   PATT
  POIN2 Label_6_01E88D98
// 043   ----------------------------------------
 BYTE   PATT
  POIN2 Label_6_01E88D98
// 044   ----------------------------------------
 BYTE   PATT
  POIN2 Label_6_01E88DF2
// 045   ----------------------------------------
 BYTE   PATT
  POIN2 Label_6_01E88E06
// 046   ----------------------------------------
 BYTE   PATT
  POIN2 Label_6_01E88E1A
// 047   ----------------------------------------
 BYTE   PATT
  POIN2 Label_6_01E88E1A
// 048   ----------------------------------------
 BYTE   PATT
  POIN2 Label_6_01E88E33
// 049   ----------------------------------------
 BYTE   PATT
  POIN2 Label_6_01E88E47
// 050   ----------------------------------------
 BYTE   PATT
  POIN2 Label_6_01E88D98
// 051   ----------------------------------------
 BYTE   PATT
  POIN2 Label_6_01E88D98
// 052   ----------------------------------------
 BYTE   PATT
  POIN2 Label_6_01E88DF2
// 053   ----------------------------------------
 BYTE   PATT
  POIN2 Label_6_01E88E06
// 054   ----------------------------------------
 BYTE   PATT
  POIN2 Label_6_01E88E1A
// 055   ----------------------------------------
 BYTE   PATT
  POIN2 Label_6_01E88E1A
// 056   ----------------------------------------
 BYTE   PATT
  POIN2 Label_6_01E88E33
// 057   ----------------------------------------
 BYTE   PATT
  POIN2 Label_6_01E88E47
// 058   ----------------------------------------
 BYTE   W96
// 059   ----------------------------------------
 BYTE   W96
// 060   ----------------------------------------
 BYTE   W96
// 061   ----------------------------------------
 BYTE   W96
// 062   ----------------------------------------
 BYTE   PATT
  POIN2 Label_6_01E88D98
// 063   ----------------------------------------
 BYTE   PATT
  POIN2 Label_6_01E88D98
// 064   ----------------------------------------
 BYTE   PATT
  POIN2 Label_6_01E88DB1
// 065   ----------------------------------------
 BYTE   PATT
  POIN2 Label_6_01E88DCB
// 066   ----------------------------------------
 BYTE   PATT
  POIN2 Label_6_01E88D98
// 067   ----------------------------------------
 BYTE   PATT
  POIN2 Label_6_01E88D98
// 068   ----------------------------------------
 BYTE   PATT
  POIN2 Label_6_01E88DF2
// 069   ----------------------------------------
 BYTE   PATT
  POIN2 Label_6_01E88E06
// 070   ----------------------------------------
 BYTE   PATT
  POIN2 Label_6_01E88D98
// 071   ----------------------------------------
 BYTE   PATT
  POIN2 Label_6_01E88D98
// 072   ----------------------------------------
 BYTE   PATT
  POIN2 Label_6_01E88DF2
// 073   ----------------------------------------
 BYTE   PATT
  POIN2 Label_6_01E88E06
// 074   ----------------------------------------
Label_6_01E89127:
 BYTE   N18  Bn2  v072
 BYTE   N18  Gn3  v104
 BYTE   W36
 BYTE   Bn2  v072
 BYTE   N18  Gn3  v104
 BYTE   W36
 BYTE   Gn2  v072
 BYTE   N18  Fn3  v104
 BYTE   W24
 BYTE   PEND 
// 075   ----------------------------------------
 BYTE   PATT
  POIN2 Label_6_01E89127
// 076   ----------------------------------------
 BYTE   N18  Bn2  v127
 BYTE   N18  Gn3
 BYTE   W36
 BYTE   Bn2
 BYTE   N18  Gs3
 BYTE   W36
 BYTE   Gn2
 BYTE   N18  Bn3
 BYTE   W24
// 077   ----------------------------------------
 BYTE   Bn2
 BYTE   N18  Gs3
 BYTE   W36
 BYTE   Bn2
 BYTE   N18  Gn3
 BYTE   W36
 BYTE   Gn2
 BYTE   N18  Fn3
 BYTE   W24
// 078   ----------------------------------------
 BYTE   W96
// 079   ----------------------------------------
 BYTE   W96
// 080   ----------------------------------------
 BYTE   W96
// 081   ----------------------------------------
 BYTE   W96
// 082   ----------------------------------------
 BYTE   W96
// 083   ----------------------------------------
 BYTE   W96
// 084   ----------------------------------------
 BYTE   W96
// 085   ----------------------------------------
 BYTE   W96
// 086   ----------------------------------------
Label_6_01E89162:
 BYTE   N12  Cn4  v096
 BYTE   W12
 BYTE   Cn5
 BYTE   W12
 BYTE   Bn4
 BYTE   W12
 BYTE   Gn4
 BYTE   W12
 BYTE   As4
 BYTE   W12
 BYTE   Gs4
 BYTE   W12
 BYTE   Fn4
 BYTE   W12
 BYTE   Gn4
 BYTE   W12
 BYTE   PEND 
// 087   ----------------------------------------
 BYTE   Cn4
 BYTE   W12
 BYTE   Dn4
 BYTE   W12
 BYTE   Ds4
 BYTE   W12
 BYTE   Cn4
 BYTE   W12
 BYTE   Dn4
 BYTE   W12
 BYTE   Ds4
 BYTE   W12
 BYTE   Gn4
 BYTE   W12
 BYTE   Fn4
 BYTE   W12
// 088   ----------------------------------------
 BYTE   PATT
  POIN2 Label_6_01E89162
// 089   ----------------------------------------
 BYTE   N12  Cn4  v096
 BYTE   W12
 BYTE   Dn4
 BYTE   W12
 BYTE   Ds4
 BYTE   W12
 BYTE   Cn4
 BYTE   W12
 BYTE   Dn4
 BYTE   W12
 BYTE   Ds4
 BYTE   W12
 BYTE   N06  As2
 BYTE   N06  Cn3
 BYTE   W06
 BYTE   Bn2
 BYTE   N06  Dn3
 BYTE   W06
 BYTE   Cn3
 BYTE   N06  Ds3
 BYTE   W06
 BYTE   Dn3
 BYTE   N06  Fn3
 BYTE   W05
 BYTE   GoTo
  POIN2 Label_6_01E88D98
// 090   ----------------------------------------
 BYTE   W01
 BYTE   FINE

//**************** Track 8 (Midi-Chn.7) ****************//

KHDDDOscuritaDellIgnotoMycahel_008:
// 000   ----------------------------------------
 BYTE   VOL   23*KHDDDOscuritaDellIgnotoMycahel_mvl/mxv
 BYTE   KEYSH   KHDDDOscuritaDellIgnotoMycahel_key+0
 BYTE   VOICE   48
 BYTE   W96
// 001   ----------------------------------------
 BYTE   W96
// 002   ----------------------------------------
 BYTE   W96
// 003   ----------------------------------------
 BYTE   W96
// 004   ----------------------------------------
 BYTE   W96
// 005   ----------------------------------------
 BYTE   W96
// 006   ----------------------------------------
 BYTE   W96
// 007   ----------------------------------------
 BYTE   W96
// 008   ----------------------------------------
Label_7_01E891BE:
 BYTE   TIE  Cn3  v096
 BYTE   W96
// 009   ----------------------------------------
 BYTE   W96
// 010   ----------------------------------------
 BYTE   W96
// 011   ----------------------------------------
 BYTE   W96
// 012   ----------------------------------------
 BYTE   EOT
Label_7_01E891C6:
 BYTE   N60  Dn4  v096
 BYTE   W60
 BYTE   N12  Cn4
 BYTE   W12
 BYTE   Gn4
 BYTE   W01
 BYTE   N10  As3
 BYTE   W11
 BYTE   N72  Dn4
 BYTE   W12
 BYTE   PEND 
// 013   ----------------------------------------
Label_7_01E891D6:
 BYTE   W60
 BYTE   N12  Fn3  v096
 BYTE   N12  Cn4
 BYTE   W12
 BYTE   As3
 BYTE   N12  Gn4
 BYTE   W12
 BYTE   N06  An3
 BYTE   TIE  Dn4
 BYTE   W06
 BYTE   N06  Gs3
 BYTE   W06
 BYTE   PEND 
// 014   ----------------------------------------
 BYTE   TIE  Gn3
 BYTE   W96
// 015   ----------------------------------------
 BYTE   W09
 BYTE   EOT
 BYTE   Dn4
 BYTE   W03
 BYTE   N12  Cn3
 BYTE   N12  Cn4
 BYTE   W03
 BYTE   EOT
 BYTE   Gn3
 BYTE   W09
 BYTE   N12  Dn3
 BYTE   N12  Dn4
 BYTE   W12
 BYTE   Ds3
 BYTE   N12  Ds4
 BYTE   W12
 BYTE   Fn3
 BYTE   N12  Fn4
 BYTE   W12
 BYTE   Ds3
 BYTE   N12  Ds4
 BYTE   W12
 BYTE   Dn3
 BYTE   N12  Dn4
 BYTE   W12
 BYTE   Cn3
 BYTE   N12  Cn4
 BYTE   W12
// 016   ----------------------------------------
Label_7_01E89212:
 BYTE   N60  Gn3  v096
 BYTE   N60  Dn4
 BYTE   W60
 BYTE   N12  Fn3
 BYTE   N12  Cn4
 BYTE   W12
 BYTE   Gn4
 BYTE   W01
 BYTE   N10  As3
 BYTE   W11
 BYTE   N72  Gn3
 BYTE   N72  Dn4
 BYTE   W12
 BYTE   PEND 
// 017   ----------------------------------------
Label_7_01E89228:
 BYTE   W60
 BYTE   N12  Fn3  v096
 BYTE   N12  Cn4
 BYTE   W12
 BYTE   Bn3
 BYTE   N12  Gn4
 BYTE   W12
 BYTE   N06  As3
 BYTE   TIE  Dn4
 BYTE   W06
 BYTE   N06  Gs3
 BYTE   W06
 BYTE   PEND 
// 018   ----------------------------------------
 BYTE   TIE  Gn3
 BYTE   W96
// 019   ----------------------------------------
 BYTE   W09
 BYTE   EOT
 BYTE   Dn4
 BYTE   W03
 BYTE   N12  Cn3
 BYTE   N12  Cn4
 BYTE   W03
 BYTE   EOT
 BYTE   Gn3
 BYTE   W09
 BYTE   N12  Dn3
 BYTE   N12  Dn4
 BYTE   W12
 BYTE   Ds3
 BYTE   N12  Ds4
 BYTE   W12
 BYTE   Fn3
 BYTE   N12  Fn4
 BYTE   W12
 BYTE   Gn3
 BYTE   N12  Gn4
 BYTE   W12
 BYTE   N06  Dn3
 BYTE   N06  Dn4
 BYTE   W06
 BYTE   Ds3
 BYTE   N06  Ds4
 BYTE   W06
 BYTE   Fn3
 BYTE   N06  Dn4
 BYTE   W06
 BYTE   As3
 BYTE   N06  Cn4
 BYTE   W06
// 020   ----------------------------------------
Label_7_01E8926D:
 BYTE   N60  Dn4  v096
 BYTE   W60
 BYTE   N12  Cn4
 BYTE   W12
 BYTE   Gn4
 BYTE   W12
 BYTE   N72  Dn4
 BYTE   W12
 BYTE   PEND 
// 021   ----------------------------------------
Label_7_01E8927A:
 BYTE   W60
 BYTE   N12  Cn4  v096
 BYTE   W12
 BYTE   As3
 BYTE   N12  Gn4
 BYTE   W12
 BYTE   N06  An3
 BYTE   TIE  Dn4
 BYTE   W06
 BYTE   N06  Gs3
 BYTE   W06
 BYTE   PEND 
// 022   ----------------------------------------
 BYTE   N96  Gn3
 BYTE   W96
// 023   ----------------------------------------
 BYTE   EOT
 BYTE   Dn4
 BYTE   N15  Gn4
 BYTE   N09  Dn5
 BYTE   W12
 BYTE   N12  Cn4
 BYTE   N12  Cn5
 BYTE   W12
 BYTE   Dn4
 BYTE   N12  Dn5
 BYTE   W12
 BYTE   Ds4
 BYTE   N12  Ds5
 BYTE   W12
 BYTE   Fn4
 BYTE   N12  Fn5
 BYTE   W12
 BYTE   Ds4
 BYTE   N12  Ds5
 BYTE   W12
 BYTE   Fn4
 BYTE   N12  Fn5
 BYTE   W12
 BYTE   Gn4
 BYTE   N12  Gn5
 BYTE   W12
// 024   ----------------------------------------
 BYTE   TIE  Dn5
 BYTE   W96
// 025   ----------------------------------------
 BYTE   W48
 BYTE   EOT
 BYTE   N12
 BYTE   W12
 BYTE   Fn3
 BYTE   N12  Cn4
 BYTE   W12
 BYTE   Bn3
 BYTE   N12  Gn4
 BYTE   W12
 BYTE   N06  As3
 BYTE   TIE  Dn4
 BYTE   W06
 BYTE   N06  Gs3
 BYTE   W06
// 026   ----------------------------------------
 BYTE   TIE  Gn3
 BYTE   W96
// 027   ----------------------------------------
 BYTE   W09
 BYTE   EOT
 BYTE   Dn4
 BYTE   W03
 BYTE   N12  Cn3
 BYTE   N12  Cn4
 BYTE   W03
 BYTE   EOT
 BYTE   Gn3
 BYTE   W09
 BYTE   N12  Dn3
 BYTE   N12  Dn4
 BYTE   W12
 BYTE   Ds3
 BYTE   N12  Ds4
 BYTE   W12
 BYTE   Fn3
 BYTE   N12  Fn4
 BYTE   W12
 BYTE   Gn3
 BYTE   N12  Gn4
 BYTE   W12
 BYTE   N06  Dn3
 BYTE   N06  Dn4
 BYTE   W06
 BYTE   Ds3
 BYTE   N06  Ds4
 BYTE   W06
 BYTE   Fn3
 BYTE   N06  Dn4
 BYTE   W06
 BYTE   As3
 BYTE   N06  Cn4
 BYTE   W06
// 028   ----------------------------------------
 BYTE   Cn3
 BYTE   W06
 BYTE   N18  Dn3
 BYTE   W18
 BYTE   N12  Cn3
 BYTE   W12
 BYTE   Dn3
 BYTE   W12
 BYTE   Gn3
 BYTE   W12
 BYTE   Dn3
 BYTE   W12
 BYTE   N12
 BYTE   W12
 BYTE   Cn3
 BYTE   W12
// 029   ----------------------------------------
 BYTE   Gn2
 BYTE   W12
 BYTE   Cn3
 BYTE   W12
 BYTE   Dn3
 BYTE   W12
 BYTE   N24  Gn3
 BYTE   W24
 BYTE   N12  Dn3
 BYTE   W12
 BYTE   N12
 BYTE   W12
 BYTE   Cn3
 BYTE   W12
// 030   ----------------------------------------
 BYTE   N18  Cs5
 BYTE   W18
 BYTE   Cn5
 BYTE   W18
 BYTE   N12  Cs5
 BYTE   W12
 BYTE   N06  Gn5
 BYTE   W06
 BYTE   Gs5
 BYTE   W06
 BYTE   N60  As5
 BYTE   W36
// 031   ----------------------------------------
 BYTE   W24
 BYTE   N24  Gs5
 BYTE   W24
 BYTE   As5
 BYTE   W24
 BYTE   Gs5
 BYTE   W24
// 032   ----------------------------------------
 BYTE   N06  Gn5
 BYTE   W06
 BYTE   Gs5
 BYTE   W06
 BYTE   Gn5
 BYTE   W06
 BYTE   Fn5
 BYTE   W06
 BYTE   TIE  Gn5
 BYTE   W72
// 033   ----------------------------------------
 BYTE   W72
 BYTE   EOT
 BYTE   N24  Cn5
 BYTE   W24
// 034   ----------------------------------------
 BYTE   Gn4
 BYTE   W24
 BYTE   En4
 BYTE   W24
 BYTE   N48  Bn3
 BYTE   W48
// 035   ----------------------------------------
 BYTE   En4
 BYTE   W48
 BYTE   Gn4
 BYTE   W48
// 036   ----------------------------------------
 BYTE   Fn3
 BYTE   W48
 BYTE   Gn3
 BYTE   W48
// 037   ----------------------------------------
 BYTE   Gs3
 BYTE   W48
 BYTE   As3
 BYTE   W48
// 038   ----------------------------------------
 BYTE   Cn4
 BYTE   W48
 BYTE   Dn4
 BYTE   W48
// 039   ----------------------------------------
 BYTE   Ds4
 BYTE   W48
 BYTE   Fn4
 BYTE   W48
// 040   ----------------------------------------
 BYTE   N96  Gn4
 BYTE   W96
// 041   ----------------------------------------
 BYTE   N06
 BYTE   W06
 BYTE   Fn4
 BYTE   W06
 BYTE   Ds4
 BYTE   W06
 BYTE   Fn4
 BYTE   W06
 BYTE   Ds4
 BYTE   W06
 BYTE   Dn4
 BYTE   W06
 BYTE   Bn3
 BYTE   W06
 BYTE   Gs3
 BYTE   W06
 BYTE   N24  Gn3
 BYTE   W24
 BYTE   N06
 BYTE   W06
 BYTE   An3
 BYTE   W06
 BYTE   Bn3
 BYTE   W06
 BYTE   Cn4
 BYTE   W06
// 042   ----------------------------------------
 BYTE   PATT
  POIN2 Label_7_01E891C6
// 043   ----------------------------------------
 BYTE   PATT
  POIN2 Label_7_01E891D6
// 044   ----------------------------------------
 BYTE   TIE  Gn3  v096
 BYTE   W96
// 045   ----------------------------------------
 BYTE   W09
 BYTE   EOT
 BYTE   Dn4
 BYTE   W03
 BYTE   N12  Cn3
 BYTE   N12  Cn4
 BYTE   W03
 BYTE   EOT
 BYTE   Gn3
 BYTE   W09
 BYTE   N12  Dn3
 BYTE   N12  Dn4
 BYTE   W12
 BYTE   Ds3
 BYTE   N12  Ds4
 BYTE   W12
 BYTE   Fn3
 BYTE   N12  Fn4
 BYTE   W12
 BYTE   Ds3
 BYTE   N12  Ds4
 BYTE   W12
 BYTE   Dn3
 BYTE   N12  Dn4
 BYTE   W12
 BYTE   Cn3
 BYTE   N12  Cn4
 BYTE   W12
// 046   ----------------------------------------
 BYTE   PATT
  POIN2 Label_7_01E89212
// 047   ----------------------------------------
 BYTE   PATT
  POIN2 Label_7_01E89228
// 048   ----------------------------------------
 BYTE   TIE  Gn3  v096
 BYTE   W96
// 049   ----------------------------------------
 BYTE   W09
 BYTE   EOT
 BYTE   Dn4
 BYTE   W03
 BYTE   N12  Cn3
 BYTE   N12  Cn4
 BYTE   W03
 BYTE   EOT
 BYTE   Gn3
 BYTE   W09
 BYTE   N12  Dn3
 BYTE   N12  Dn4
 BYTE   W12
 BYTE   Ds3
 BYTE   N12  Ds4
 BYTE   W12
 BYTE   Fn3
 BYTE   N12  Fn4
 BYTE   W12
 BYTE   Gn3
 BYTE   N12  Gn4
 BYTE   W12
 BYTE   N06  Dn3
 BYTE   N06  Dn4
 BYTE   W06
 BYTE   Ds3
 BYTE   N06  Ds4
 BYTE   W06
 BYTE   Fn3
 BYTE   N06  Dn4
 BYTE   W06
 BYTE   As3
 BYTE   N06  Cn4
 BYTE   W06
// 050   ----------------------------------------
 BYTE   PATT
  POIN2 Label_7_01E8926D
// 051   ----------------------------------------
 BYTE   PATT
  POIN2 Label_7_01E8927A
// 052   ----------------------------------------
 BYTE   TIE  Gn3  v096
 BYTE   W96
// 053   ----------------------------------------
 BYTE   W09
 BYTE   EOT
 BYTE   Dn4
 BYTE   W03
 BYTE   N12  Cn3
 BYTE   N12  Cn4
 BYTE   W03
 BYTE   EOT
 BYTE   Gn3
 BYTE   W09
 BYTE   N12  Dn3
 BYTE   N12  Dn4
 BYTE   W12
 BYTE   Ds3
 BYTE   N12  Ds4
 BYTE   W12
 BYTE   Fn3
 BYTE   N12  Fn4
 BYTE   W12
 BYTE   Ds3
 BYTE   N12  Ds4
 BYTE   W12
 BYTE   Fn3
 BYTE   N12  Fn4
 BYTE   W12
 BYTE   Gn3
 BYTE   N12  Gn4
 BYTE   W12
// 054   ----------------------------------------
 BYTE   PATT
  POIN2 Label_7_01E89212
// 055   ----------------------------------------
 BYTE   PATT
  POIN2 Label_7_01E89228
// 056   ----------------------------------------
 BYTE   TIE  Gn3  v096
 BYTE   W96
// 057   ----------------------------------------
 BYTE   W09
 BYTE   EOT
 BYTE   Dn4
 BYTE   W03
 BYTE   N12  Cn3
 BYTE   N12  Cn4
 BYTE   W03
 BYTE   EOT
 BYTE   Gn3
 BYTE   W09
 BYTE   N12  Dn3
 BYTE   N12  Dn4
 BYTE   W12
 BYTE   Ds3
 BYTE   N12  Ds4
 BYTE   W12
 BYTE   Fn3
 BYTE   N12  Fn4
 BYTE   W12
 BYTE   Gn3
 BYTE   N12  Gn4
 BYTE   W12
 BYTE   N06  Dn3
 BYTE   N06  Dn4
 BYTE   W06
 BYTE   Ds3
 BYTE   N06  Ds4
 BYTE   W06
 BYTE   Fn3
 BYTE   N06  Dn4
 BYTE   W06
 BYTE   As3
 BYTE   N06  Cn4
 BYTE   W06
// 058   ----------------------------------------
 BYTE   W96
// 059   ----------------------------------------
 BYTE   W96
// 060   ----------------------------------------
 BYTE   W96
// 061   ----------------------------------------
 BYTE   W96
// 062   ----------------------------------------
 BYTE   N36  Cn4  v127
 BYTE   W36
 BYTE   N96  Gn4
 BYTE   W60
// 063   ----------------------------------------
Label_7_01E89468:
 BYTE   W36
 BYTE   N36  As4  v096
 BYTE   W36
 BYTE   N24  Gs4
 BYTE   W24
 BYTE   PEND 
// 064   ----------------------------------------
 BYTE   N36  Gn4
 BYTE   W36
 BYTE   N60  Dn4
 BYTE   W60
// 065   ----------------------------------------
Label_7_01E89477:
 BYTE   N36  Fn4  v096
 BYTE   W36
 BYTE   Ds4
 BYTE   W36
 BYTE   N24  Dn4
 BYTE   W24
 BYTE   PEND 
// 066   ----------------------------------------
 BYTE   TIE  Gn5
 BYTE   W96
// 067   ----------------------------------------
 BYTE   W36
 BYTE   EOT
 BYTE   N36  Dn6
 BYTE   W36
 BYTE   N24  Ds6
 BYTE   W24
// 068   ----------------------------------------
 BYTE   N36  Dn6
 BYTE   W36
 BYTE   Cn6
 BYTE   W36
 BYTE   N24  Dn6
 BYTE   W24
// 069   ----------------------------------------
 BYTE   N36  Fn6
 BYTE   W36
 BYTE   Ds6
 BYTE   W36
 BYTE   N24  Dn6
 BYTE   W24
// 070   ----------------------------------------
Label_7_01E8949C:
 BYTE   N36  Cn6  v096
 BYTE   W36
 BYTE   N96  Gn5
 BYTE   W60
 BYTE   PEND 
// 071   ----------------------------------------
 BYTE   W36
 BYTE   N36  Fn5
 BYTE   W36
 BYTE   N24  Ds5
 BYTE   W24
// 072   ----------------------------------------
 BYTE   N36  Dn5
 BYTE   W36
 BYTE   Ds5
 BYTE   W36
 BYTE   N24  Fn5
 BYTE   W24
// 073   ----------------------------------------
 BYTE   N36  Gn5
 BYTE   W36
 BYTE   Fn5
 BYTE   W36
 BYTE   N24  As5
 BYTE   W24
// 074   ----------------------------------------
 BYTE   PATT
  POIN2 Label_7_01E8949C
// 075   ----------------------------------------
 BYTE   W36
 BYTE   N36  Gn5  v096
 BYTE   W36
 BYTE   N24  Gs5
 BYTE   W24
// 076   ----------------------------------------
 BYTE   N36  Gn5
 BYTE   W36
 BYTE   N60  Dn5
 BYTE   W60
// 077   ----------------------------------------
 BYTE   N36  Fn5
 BYTE   W36
 BYTE   Ds5
 BYTE   W36
 BYTE   N24  Dn5
 BYTE   W24
// 078   ----------------------------------------
 BYTE   N96  Gn4
 BYTE   W96
// 079   ----------------------------------------
 BYTE   W36
 BYTE   N36  Dn5
 BYTE   W36
 BYTE   N24  Ds5
 BYTE   W24
// 080   ----------------------------------------
 BYTE   N36  Dn5
 BYTE   W36
 BYTE   Cn5
 BYTE   W36
 BYTE   N24  Gn4
 BYTE   W24
// 081   ----------------------------------------
 BYTE   PATT
  POIN2 Label_7_01E89477
// 082   ----------------------------------------
 BYTE   N36  Cn4  v096
 BYTE   W36
 BYTE   N96  Gn4
 BYTE   W60
// 083   ----------------------------------------
 BYTE   PATT
  POIN2 Label_7_01E89468
// 084   ----------------------------------------
 BYTE   N36  Gn4  v096
 BYTE   W36
 BYTE   N60  Cn4
 BYTE   W60
// 085   ----------------------------------------
 BYTE   PATT
  POIN2 Label_7_01E89477
// 086   ----------------------------------------
Label_7_01E89505:
 BYTE   N12  Cn4  v096
 BYTE   W12
 BYTE   Cn5
 BYTE   W12
 BYTE   Bn4
 BYTE   W12
 BYTE   Gn4
 BYTE   W12
 BYTE   As4
 BYTE   W12
 BYTE   Gs4
 BYTE   W12
 BYTE   Fn4
 BYTE   W12
 BYTE   Gn4
 BYTE   W12
 BYTE   PEND 
// 087   ----------------------------------------
 BYTE   Cn4
 BYTE   W12
 BYTE   Dn4
 BYTE   W12
 BYTE   Ds4
 BYTE   W12
 BYTE   Cn4
 BYTE   W12
 BYTE   Dn4
 BYTE   W12
 BYTE   Ds4
 BYTE   W12
 BYTE   Gn4
 BYTE   W12
 BYTE   Fn4
 BYTE   W12
// 088   ----------------------------------------
 BYTE   PATT
  POIN2 Label_7_01E89505
// 089   ----------------------------------------
 BYTE   N12  Cn4  v096
 BYTE   W12
 BYTE   Dn4
 BYTE   W12
 BYTE   Ds4
 BYTE   W12
 BYTE   Cn4
 BYTE   W12
 BYTE   Dn4
 BYTE   W12
 BYTE   Ds4
 BYTE   W12
 BYTE   Gn4
 BYTE   W12
 BYTE   Fn4
 BYTE   W11
 BYTE   GoTo
  POIN2 Label_7_01E891BE
// 090   ----------------------------------------
 BYTE   W01
 BYTE   FINE

//**************** Track 9 (Midi-Chn.8) ****************//

KHDDDOscuritaDellIgnotoMycahel_009:
// 000   ----------------------------------------
 BYTE   VOL   55*KHDDDOscuritaDellIgnotoMycahel_mvl/mxv
 BYTE   KEYSH   KHDDDOscuritaDellIgnotoMycahel_key+0
 BYTE   VOICE   0
 BYTE   W96
// 001   ----------------------------------------
 BYTE   W96
// 002   ----------------------------------------
 BYTE   W96
// 003   ----------------------------------------
 BYTE   W96
// 004   ----------------------------------------
 BYTE   W96
// 005   ----------------------------------------
 BYTE   W96
// 006   ----------------------------------------
 BYTE   W96
// 007   ----------------------------------------
 BYTE   W96
// 008   ----------------------------------------
Label_8_01E89556:
 BYTE   N12  Cn1  v116
 BYTE   W12
 BYTE   Ds1
 BYTE   W12
 BYTE   Gn1
 BYTE   W12
 BYTE   Fn1
 BYTE   W12
 BYTE   Dn1
 BYTE   W12
 BYTE   As1
 BYTE   W12
 BYTE   Gn1
 BYTE   W12
 BYTE   Dn1
 BYTE   W12
 BYTE   PEND 
// 009   ----------------------------------------
 BYTE   PATT
  POIN2 Label_8_01E89556
// 010   ----------------------------------------
 BYTE   PATT
  POIN2 Label_8_01E89556
// 011   ----------------------------------------
 BYTE   N12  Gn2  v116
 BYTE   W12
 BYTE   Dn2
 BYTE   W12
 BYTE   Cn2
 BYTE   W12
 BYTE   Ds2
 BYTE   W12
 BYTE   Gs1
 BYTE   W12
 BYTE   Gn1
 BYTE   W12
 BYTE   Dn2
 BYTE   W12
 BYTE   Gn1
 BYTE   W12
// 012   ----------------------------------------
 BYTE   PATT
  POIN2 Label_8_01E89556
// 013   ----------------------------------------
 BYTE   PATT
  POIN2 Label_8_01E89556
// 014   ----------------------------------------
 BYTE   PATT
  POIN2 Label_8_01E89556
// 015   ----------------------------------------
Label_8_01E89594:
 BYTE   N12  Dn2  v116
 BYTE   W12
 BYTE   As1
 BYTE   W12
 BYTE   Gn1
 BYTE   W12
 BYTE   Ds2
 BYTE   W12
 BYTE   Cn2
 BYTE   W12
 BYTE   Gn1
 BYTE   W12
 BYTE   Fn1
 BYTE   W12
 BYTE   Gn1
 BYTE   W12
 BYTE   PEND 
// 016   ----------------------------------------
Label_8_01E895A7:
 BYTE   N12  Bn0  v116
 BYTE   W12
 BYTE   Dn1
 BYTE   W12
 BYTE   Gn1
 BYTE   W12
 BYTE   Fn1
 BYTE   W12
 BYTE   Dn1
 BYTE   W12
 BYTE   As1
 BYTE   W12
 BYTE   Gn1
 BYTE   W12
 BYTE   Dn1
 BYTE   W12
 BYTE   PEND 
// 017   ----------------------------------------
 BYTE   PATT
  POIN2 Label_8_01E895A7
// 018   ----------------------------------------
 BYTE   PATT
  POIN2 Label_8_01E895A7
// 019   ----------------------------------------
 BYTE   PATT
  POIN2 Label_8_01E89594
// 020   ----------------------------------------
 BYTE   PATT
  POIN2 Label_8_01E89556
// 021   ----------------------------------------
 BYTE   PATT
  POIN2 Label_8_01E89556
// 022   ----------------------------------------
 BYTE   PATT
  POIN2 Label_8_01E89556
// 023   ----------------------------------------
 BYTE   PATT
  POIN2 Label_8_01E89594
// 024   ----------------------------------------
 BYTE   PATT
  POIN2 Label_8_01E895A7
// 025   ----------------------------------------
 BYTE   PATT
  POIN2 Label_8_01E895A7
// 026   ----------------------------------------
 BYTE   PATT
  POIN2 Label_8_01E895A7
// 027   ----------------------------------------
 BYTE   PATT
  POIN2 Label_8_01E89594
// 028   ----------------------------------------
Label_8_01E895F1:
 BYTE   N24  Gs0  v112
 BYTE   W36
 BYTE   N24
 BYTE   W36
 BYTE   N24
 BYTE   W24
 BYTE   PEND 
// 029   ----------------------------------------
Label_8_01E895FA:
 BYTE   W12
 BYTE   N24  Gs0  v112
 BYTE   W36
 BYTE   N24
 BYTE   W24
 BYTE   N24
 BYTE   W24
 BYTE   PEND 
// 030   ----------------------------------------
 BYTE   Fs0
 BYTE   W36
 BYTE   N24
 BYTE   W36
 BYTE   N24
 BYTE   W24
// 031   ----------------------------------------
 BYTE   W12
 BYTE   N24
 BYTE   W36
 BYTE   N24
 BYTE   W24
 BYTE   N24
 BYTE   W24
// 032   ----------------------------------------
 BYTE   Cn1
 BYTE   W36
 BYTE   N24
 BYTE   W36
 BYTE   N24
 BYTE   W24
// 033   ----------------------------------------
 BYTE   W12
 BYTE   N24
 BYTE   W36
 BYTE   N24
 BYTE   W24
 BYTE   N24
 BYTE   W24
// 034   ----------------------------------------
 BYTE   En1
 BYTE   W36
 BYTE   Bn0
 BYTE   W36
 BYTE   En1
 BYTE   W24
// 035   ----------------------------------------
 BYTE   W12
 BYTE   Bn0
 BYTE   W36
 BYTE   En1
 BYTE   W24
 BYTE   Bn0
 BYTE   W24
// 036   ----------------------------------------
 BYTE   PATT
  POIN2 Label_8_01E895F1
// 037   ----------------------------------------
 BYTE   PATT
  POIN2 Label_8_01E895FA
// 038   ----------------------------------------
 BYTE   PATT
  POIN2 Label_8_01E895A7
// 039   ----------------------------------------
 BYTE   PATT
  POIN2 Label_8_01E895A7
// 040   ----------------------------------------
 BYTE   N36  Cn1  v112
 BYTE   W36
 BYTE   Dn1
 BYTE   W36
 BYTE   Ds1
 BYTE   W24
// 041   ----------------------------------------
 BYTE   W12
 BYTE   Fn1
 BYTE   W36
 BYTE   N24  Gn1
 BYTE   W24
 BYTE   Gs1
 BYTE   W24
// 042   ----------------------------------------
 BYTE   PATT
  POIN2 Label_8_01E89556
// 043   ----------------------------------------
 BYTE   PATT
  POIN2 Label_8_01E89556
// 044   ----------------------------------------
 BYTE   PATT
  POIN2 Label_8_01E89556
// 045   ----------------------------------------
 BYTE   PATT
  POIN2 Label_8_01E89594
// 046   ----------------------------------------
 BYTE   PATT
  POIN2 Label_8_01E895A7
// 047   ----------------------------------------
 BYTE   PATT
  POIN2 Label_8_01E895A7
// 048   ----------------------------------------
 BYTE   PATT
  POIN2 Label_8_01E895A7
// 049   ----------------------------------------
 BYTE   PATT
  POIN2 Label_8_01E89594
// 050   ----------------------------------------
 BYTE   PATT
  POIN2 Label_8_01E89556
// 051   ----------------------------------------
 BYTE   PATT
  POIN2 Label_8_01E89556
// 052   ----------------------------------------
 BYTE   PATT
  POIN2 Label_8_01E89556
// 053   ----------------------------------------
 BYTE   PATT
  POIN2 Label_8_01E89594
// 054   ----------------------------------------
 BYTE   PATT
  POIN2 Label_8_01E895A7
// 055   ----------------------------------------
 BYTE   PATT
  POIN2 Label_8_01E895A7
// 056   ----------------------------------------
 BYTE   PATT
  POIN2 Label_8_01E895A7
// 057   ----------------------------------------
 BYTE   PATT
  POIN2 Label_8_01E89594
// 058   ----------------------------------------
 BYTE   W96
// 059   ----------------------------------------
 BYTE   W96
// 060   ----------------------------------------
 BYTE   W96
// 061   ----------------------------------------
 BYTE   W96
// 062   ----------------------------------------
Label_8_01E896A3:
 BYTE   N24  Cn1  v127
 BYTE   W36
 BYTE   N24
 BYTE   W36
 BYTE   Gn0
 BYTE   W24
 BYTE   PEND 
// 063   ----------------------------------------
Label_8_01E896AC:
 BYTE   N12  Cn1  v127
 BYTE   W12
 BYTE   N12
 BYTE   W24
 BYTE   N12
 BYTE   W24
 BYTE   N12
 BYTE   W12
 BYTE   N24  Gn0
 BYTE   W24
 BYTE   PEND 
// 064   ----------------------------------------
 BYTE   PATT
  POIN2 Label_8_01E896A3
// 065   ----------------------------------------
 BYTE   PATT
  POIN2 Label_8_01E896AC
// 066   ----------------------------------------
Label_8_01E896C4:
 BYTE   N24  Gs0  v127
 BYTE   W36
 BYTE   N24
 BYTE   W36
 BYTE   Ds0
 BYTE   W24
 BYTE   PEND 
// 067   ----------------------------------------
Label_8_01E896CD:
 BYTE   N12  Gs0  v127
 BYTE   W12
 BYTE   N12
 BYTE   W24
 BYTE   N12
 BYTE   W24
 BYTE   N12
 BYTE   W12
 BYTE   N24  Ds0
 BYTE   W24
 BYTE   PEND 
// 068   ----------------------------------------
 BYTE   PATT
  POIN2 Label_8_01E896C4
// 069   ----------------------------------------
 BYTE   PATT
  POIN2 Label_8_01E896CD
// 070   ----------------------------------------
Label_8_01E896E5:
 BYTE   N24  As0  v127
 BYTE   W36
 BYTE   N24
 BYTE   W36
 BYTE   Fn0
 BYTE   W24
 BYTE   PEND 
// 071   ----------------------------------------
Label_8_01E896EE:
 BYTE   N12  As0  v127
 BYTE   W12
 BYTE   N12
 BYTE   W24
 BYTE   N12
 BYTE   W24
 BYTE   N12
 BYTE   W12
 BYTE   N24  Fn0
 BYTE   W24
 BYTE   PEND 
// 072   ----------------------------------------
 BYTE   PATT
  POIN2 Label_8_01E896E5
// 073   ----------------------------------------
 BYTE   PATT
  POIN2 Label_8_01E896EE
// 074   ----------------------------------------
 BYTE   PATT
  POIN2 Label_8_01E896A3
// 075   ----------------------------------------
Label_8_01E8970B:
 BYTE   N12  Cn1  v127
 BYTE   W12
 BYTE   N12
 BYTE   W24
 BYTE   N12
 BYTE   W24
 BYTE   N12
 BYTE   W12
 BYTE   N24  Gs0
 BYTE   W24
 BYTE   PEND 
// 076   ----------------------------------------
 BYTE   PATT
  POIN2 Label_8_01E896A3
// 077   ----------------------------------------
 BYTE   PATT
  POIN2 Label_8_01E8970B
// 078   ----------------------------------------
 BYTE   W96
// 079   ----------------------------------------
 BYTE   W96
// 080   ----------------------------------------
 BYTE   W96
// 081   ----------------------------------------
 BYTE   W96
// 082   ----------------------------------------
 BYTE   W96
// 083   ----------------------------------------
 BYTE   W96
// 084   ----------------------------------------
 BYTE   W96
// 085   ----------------------------------------
 BYTE   W96
// 086   ----------------------------------------
Label_8_01E8972B:
 BYTE   N12  Cn1  v127
 BYTE   W12
 BYTE   Ds1
 BYTE   W12
 BYTE   Gn1
 BYTE   W12
 BYTE   Bn0
 BYTE   W12
 BYTE   Dn1
 BYTE   W12
 BYTE   Fn1
 BYTE   W12
 BYTE   Gs1
 BYTE   W12
 BYTE   Gn1
 BYTE   W12
 BYTE   PEND 
// 087   ----------------------------------------
 BYTE   Fn1
 BYTE   W12
 BYTE   Dn1
 BYTE   W12
 BYTE   Bn0
 BYTE   W12
 BYTE   Ds1
 BYTE   W12
 BYTE   Cn1
 BYTE   W12
 BYTE   Gn0
 BYTE   W12
 BYTE   Fn0
 BYTE   W12
 BYTE   Gn0
 BYTE   W12
// 088   ----------------------------------------
 BYTE   PATT
  POIN2 Label_8_01E8972B
// 089   ----------------------------------------
 BYTE   N12  Fn1  v127
 BYTE   W12
 BYTE   Dn1
 BYTE   W12
 BYTE   Bn0
 BYTE   W12
 BYTE   Ds1
 BYTE   W12
 BYTE   Cn1
 BYTE   W12
 BYTE   Gn0
 BYTE   W12
 BYTE   Fn0
 BYTE   W12
 BYTE   Gn0
 BYTE   W11
 BYTE   GoTo
  POIN2 Label_8_01E89556
// 090   ----------------------------------------
 BYTE   W01
 BYTE   FINE

//**************** Track 10 (Midi-Chn.9) ****************//

KHDDDOscuritaDellIgnotoMycahel_010:
// 000   ----------------------------------------
 BYTE   VOL   47*KHDDDOscuritaDellIgnotoMycahel_mvl/mxv
 BYTE   KEYSH   KHDDDOscuritaDellIgnotoMycahel_key+0
 BYTE   VOICE   119
 BYTE   W96
// 001   ----------------------------------------
 BYTE   W96
// 002   ----------------------------------------
 BYTE   W96
// 003   ----------------------------------------
 BYTE   W96
// 004   ----------------------------------------
 BYTE   W96
// 005   ----------------------------------------
 BYTE   W96
// 006   ----------------------------------------
 BYTE   W96
// 007   ----------------------------------------
 BYTE   W96
// 008   ----------------------------------------
Label_9_01E8977A:
 BYTE   TIE  Cn3  v127
 BYTE   W96
// 009   ----------------------------------------
 BYTE   W48
 BYTE   EOT
 BYTE   W48
// 010   ----------------------------------------
 BYTE   W96
// 011   ----------------------------------------
 BYTE   W96
// 012   ----------------------------------------
 BYTE   TIE
 BYTE   W96
// 013   ----------------------------------------
 BYTE   W48
 BYTE   EOT
 BYTE   W48
// 014   ----------------------------------------
 BYTE   W96
// 015   ----------------------------------------
 BYTE   W96
// 016   ----------------------------------------
 BYTE   W96
// 017   ----------------------------------------
 BYTE   W96
// 018   ----------------------------------------
 BYTE   W96
// 019   ----------------------------------------
 BYTE   W96
// 020   ----------------------------------------
 BYTE   TIE
 BYTE   W96
// 021   ----------------------------------------
 BYTE   W48
 BYTE   EOT
 BYTE   W48
// 022   ----------------------------------------
 BYTE   W96
// 023   ----------------------------------------
 BYTE   W96
// 024   ----------------------------------------
 BYTE   W96
// 025   ----------------------------------------
 BYTE   W96
// 026   ----------------------------------------
 BYTE   W96
// 027   ----------------------------------------
 BYTE   W96
// 028   ----------------------------------------
 BYTE   TIE
 BYTE   W96
// 029   ----------------------------------------
 BYTE   W48
 BYTE   EOT
 BYTE   W48
// 030   ----------------------------------------
 BYTE   W96
// 031   ----------------------------------------
 BYTE   W96
// 032   ----------------------------------------
 BYTE   W96
// 033   ----------------------------------------
 BYTE   W96
// 034   ----------------------------------------
 BYTE   W96
// 035   ----------------------------------------
 BYTE   W96
// 036   ----------------------------------------
 BYTE   W96
// 037   ----------------------------------------
 BYTE   W96
// 038   ----------------------------------------
 BYTE   W96
// 039   ----------------------------------------
 BYTE   W96
// 040   ----------------------------------------
 BYTE   W96
// 041   ----------------------------------------
 BYTE   W96
// 042   ----------------------------------------
 BYTE   TIE
 BYTE   W96
// 043   ----------------------------------------
 BYTE   W48
 BYTE   EOT
 BYTE   W48
// 044   ----------------------------------------
 BYTE   W96
// 045   ----------------------------------------
 BYTE   W96
// 046   ----------------------------------------
 BYTE   W96
// 047   ----------------------------------------
 BYTE   W96
// 048   ----------------------------------------
 BYTE   W96
// 049   ----------------------------------------
 BYTE   W96
// 050   ----------------------------------------
 BYTE   TIE
 BYTE   W96
// 051   ----------------------------------------
 BYTE   W48
 BYTE   EOT
 BYTE   W48
// 052   ----------------------------------------
 BYTE   W96
// 053   ----------------------------------------
 BYTE   W96
// 054   ----------------------------------------
 BYTE   W96
// 055   ----------------------------------------
 BYTE   W96
// 056   ----------------------------------------
 BYTE   W96
// 057   ----------------------------------------
 BYTE   W96
// 058   ----------------------------------------
 BYTE   TIE
 BYTE   W96
// 059   ----------------------------------------
 BYTE   W48
 BYTE   EOT
 BYTE   W48
// 060   ----------------------------------------
 BYTE   W96
// 061   ----------------------------------------
 BYTE   W96
// 062   ----------------------------------------
 BYTE   TIE
 BYTE   W96
// 063   ----------------------------------------
 BYTE   W48
 BYTE   EOT
 BYTE   W48
// 064   ----------------------------------------
 BYTE   W96
// 065   ----------------------------------------
 BYTE   W96
// 066   ----------------------------------------
 BYTE   W96
// 067   ----------------------------------------
 BYTE   W96
// 068   ----------------------------------------
 BYTE   W96
// 069   ----------------------------------------
 BYTE   W96
// 070   ----------------------------------------
 BYTE   W96
// 071   ----------------------------------------
 BYTE   W96
// 072   ----------------------------------------
 BYTE   W96
// 073   ----------------------------------------
 BYTE   W96
// 074   ----------------------------------------
 BYTE   W96
// 075   ----------------------------------------
 BYTE   W96
// 076   ----------------------------------------
 BYTE   W96
// 077   ----------------------------------------
 BYTE   W96
// 078   ----------------------------------------
 BYTE   W96
// 079   ----------------------------------------
 BYTE   W96
// 080   ----------------------------------------
 BYTE   W96
// 081   ----------------------------------------
 BYTE   W96
// 082   ----------------------------------------
 BYTE   W96
// 083   ----------------------------------------
 BYTE   W96
// 084   ----------------------------------------
 BYTE   W96
// 085   ----------------------------------------
 BYTE   W96
// 086   ----------------------------------------
 BYTE   W96
// 087   ----------------------------------------
 BYTE   W96
// 088   ----------------------------------------
 BYTE   W96
// 089   ----------------------------------------
 BYTE   W92
 BYTE   W03
 BYTE   GoTo
  POIN2 Label_9_01E8977A
// 090   ----------------------------------------
 BYTE   W01
 BYTE   FINE

//**************** Track 11 (Midi-Chn.10) ****************//

KHDDDOscuritaDellIgnotoMycahel_011:
// 000   ----------------------------------------
 BYTE   VOL   47*KHDDDOscuritaDellIgnotoMycahel_mvl/mxv
 BYTE   KEYSH   KHDDDOscuritaDellIgnotoMycahel_key+0
 BYTE   VOICE   60
 BYTE   W96
// 001   ----------------------------------------
 BYTE   W96
// 002   ----------------------------------------
 BYTE   W96
// 003   ----------------------------------------
 BYTE   W96
// 004   ----------------------------------------
 BYTE   W96
// 005   ----------------------------------------
 BYTE   W96
// 006   ----------------------------------------
 BYTE   W96
// 007   ----------------------------------------
 BYTE   W96
// 008   ----------------------------------------
Label_10_01E897FE:
 BYTE   TIE  Gn2  v096
 BYTE   W96
// 009   ----------------------------------------
 BYTE   W96
// 010   ----------------------------------------
 BYTE   EOT
 BYTE   TIE  Cn2
 BYTE   W96
// 011   ----------------------------------------
 BYTE   W96
// 012   ----------------------------------------
 BYTE   EOT
 BYTE   TIE
 BYTE   W96
// 013   ----------------------------------------
 BYTE   W96
// 014   ----------------------------------------
 BYTE   W96
// 015   ----------------------------------------
 BYTE   W96
// 016   ----------------------------------------
 BYTE   EOT
 BYTE   TIE  Bn1
 BYTE   W96
// 017   ----------------------------------------
 BYTE   W96
// 018   ----------------------------------------
 BYTE   W48
 BYTE   EOT
 BYTE   N48  Gn2
 BYTE   W48
// 019   ----------------------------------------
Label_10_01E89818:
 BYTE   N48  Dn3  v096
 BYTE   W48
 BYTE   Gn3
 BYTE   W48
 BYTE   PEND 
// 020   ----------------------------------------
 BYTE   TIE  Cn2
 BYTE   W96
// 021   ----------------------------------------
 BYTE   W96
// 022   ----------------------------------------
 BYTE   W96
// 023   ----------------------------------------
 BYTE   W96
// 024   ----------------------------------------
 BYTE   EOT
 BYTE   TIE  Bn1
 BYTE   W96
// 025   ----------------------------------------
 BYTE   W96
// 026   ----------------------------------------
 BYTE   W48
 BYTE   EOT
 BYTE   N48  Bn2
 BYTE   W48
// 027   ----------------------------------------
Label_10_01E8982F:
 BYTE   N48  Fn3  v096
 BYTE   W48
 BYTE   As3
 BYTE   W48
 BYTE   PEND 
// 028   ----------------------------------------
 BYTE   TIE  Cn2
 BYTE   W96
// 029   ----------------------------------------
 BYTE   W96
// 030   ----------------------------------------
 BYTE   EOT
 BYTE   N48  Gs1
 BYTE   W48
 BYTE   Cs2
 BYTE   W48
// 031   ----------------------------------------
 BYTE   Fn2
 BYTE   W48
 BYTE   Gs2
 BYTE   W48
// 032   ----------------------------------------
 BYTE   N06  Gn2
 BYTE   W06
 BYTE   Gs2
 BYTE   W06
 BYTE   Gn2
 BYTE   W06
 BYTE   Fn2
 BYTE   W06
 BYTE   TIE  Gn2
 BYTE   W72
// 033   ----------------------------------------
 BYTE   W96
// 034   ----------------------------------------
 BYTE   EOT
 BYTE   TIE  En2
 BYTE   W96
// 035   ----------------------------------------
 BYTE   W96
// 036   ----------------------------------------
 BYTE   EOT
 BYTE   TIE  Fn2
 BYTE   W96
// 037   ----------------------------------------
 BYTE   W96
// 038   ----------------------------------------
 BYTE   EOT
 BYTE   N96  Fs2
 BYTE   W96
// 039   ----------------------------------------
 BYTE   Gs2
 BYTE   W96
// 040   ----------------------------------------
 BYTE   Gn2
 BYTE   W96
// 041   ----------------------------------------
 BYTE   N24
 BYTE   W36
 BYTE   Gs2
 BYTE   W36
 BYTE   As2
 BYTE   W24
// 042   ----------------------------------------
 BYTE   TIE  Cn3
 BYTE   W96
// 043   ----------------------------------------
 BYTE   W96
// 044   ----------------------------------------
 BYTE   W96
// 045   ----------------------------------------
 BYTE   W96
// 046   ----------------------------------------
 BYTE   EOT
 BYTE   TIE  Bn2
 BYTE   W96
// 047   ----------------------------------------
 BYTE   W96
// 048   ----------------------------------------
 BYTE   W48
 BYTE   EOT
 BYTE   N48  Gn2
 BYTE   W48
// 049   ----------------------------------------
 BYTE   PATT
  POIN2 Label_10_01E89818
// 050   ----------------------------------------
 BYTE   TIE  Cn3  v096
 BYTE   W96
// 051   ----------------------------------------
 BYTE   W96
// 052   ----------------------------------------
 BYTE   W96
// 053   ----------------------------------------
 BYTE   W96
// 054   ----------------------------------------
 BYTE   EOT
 BYTE   TIE  Bn2
 BYTE   W96
// 055   ----------------------------------------
 BYTE   W96
// 056   ----------------------------------------
 BYTE   W48
 BYTE   EOT
 BYTE   N48
 BYTE   W48
// 057   ----------------------------------------
 BYTE   PATT
  POIN2 Label_10_01E8982F
// 058   ----------------------------------------
 BYTE   TIE  Cn3  v096
 BYTE   W96
// 059   ----------------------------------------
 BYTE   W96
// 060   ----------------------------------------
 BYTE   W96
// 061   ----------------------------------------
 BYTE   W96
// 062   ----------------------------------------
 BYTE   EOT
 BYTE   TIE  As2
 BYTE   W96
// 063   ----------------------------------------
 BYTE   W96
// 064   ----------------------------------------
 BYTE   W48
 BYTE   EOT
 BYTE   N48
 BYTE   W48
// 065   ----------------------------------------
 BYTE   PATT
  POIN2 Label_10_01E8982F
// 066   ----------------------------------------
 BYTE   TIE  Cn3  v096
 BYTE   W96
// 067   ----------------------------------------
 BYTE   W96
// 068   ----------------------------------------
 BYTE   W96
// 069   ----------------------------------------
 BYTE   W96
// 070   ----------------------------------------
 BYTE   EOT
 BYTE   TIE  As2
 BYTE   W96
// 071   ----------------------------------------
 BYTE   W96
// 072   ----------------------------------------
 BYTE   W48
 BYTE   EOT
 BYTE   N48
 BYTE   W48
// 073   ----------------------------------------
 BYTE   Fn3
 BYTE   W48
 BYTE   Dn3
 BYTE   W48
// 074   ----------------------------------------
 BYTE   TIE  Ds3
 BYTE   W96
// 075   ----------------------------------------
 BYTE   W96
// 076   ----------------------------------------
 BYTE   W96
// 077   ----------------------------------------
 BYTE   EOT
 BYTE   N96  Dn3
 BYTE   W96
// 078   ----------------------------------------
 BYTE   Gn3
 BYTE   W96
// 079   ----------------------------------------
 BYTE   W36
 BYTE   N36  Dn4
 BYTE   W36
 BYTE   N24  Ds4
 BYTE   W24
// 080   ----------------------------------------
 BYTE   N36  Dn4
 BYTE   W36
 BYTE   Cn4
 BYTE   W36
 BYTE   N24  Gn3
 BYTE   W24
// 081   ----------------------------------------
Label_10_01E898D6:
 BYTE   N36  Fn3  v096
 BYTE   W36
 BYTE   Ds3
 BYTE   W36
 BYTE   N24  Dn3
 BYTE   W24
 BYTE   PEND 
// 082   ----------------------------------------
 BYTE   N36  Cn3
 BYTE   W36
 BYTE   N96  Gn3
 BYTE   W60
// 083   ----------------------------------------
 BYTE   W36
 BYTE   N36  As3
 BYTE   W36
 BYTE   N24  Gs3
 BYTE   W24
// 084   ----------------------------------------
 BYTE   N36  Gn3
 BYTE   W36
 BYTE   N60  Cn3
 BYTE   W60
// 085   ----------------------------------------
 BYTE   PATT
  POIN2 Label_10_01E898D6
// 086   ----------------------------------------
 BYTE   W96
// 087   ----------------------------------------
 BYTE   W96
// 088   ----------------------------------------
 BYTE   W96
// 089   ----------------------------------------
 BYTE   W92
 BYTE   W03
 BYTE   GoTo
  POIN2 Label_10_01E897FE
// 090   ----------------------------------------
 BYTE   W01
 BYTE   FINE

//**************** Track 12 (Midi-Chn.11) ****************//

KHDDDOscuritaDellIgnotoMycahel_012:
// 000   ----------------------------------------
 BYTE   VOL   47*KHDDDOscuritaDellIgnotoMycahel_mvl/mxv
 BYTE   KEYSH   KHDDDOscuritaDellIgnotoMycahel_key+0
 BYTE   VOICE   11
 BYTE   W96
// 001   ----------------------------------------
 BYTE   W96
// 002   ----------------------------------------
 BYTE   W96
// 003   ----------------------------------------
 BYTE   W96
// 004   ----------------------------------------
 BYTE   W96
// 005   ----------------------------------------
 BYTE   W96
// 006   ----------------------------------------
 BYTE   W96
// 007   ----------------------------------------
 BYTE   W96
// 008   ----------------------------------------
Label_11_01E89912:
 BYTE   W96
// 009   ----------------------------------------
 BYTE   W96
// 010   ----------------------------------------
 BYTE   W96
// 011   ----------------------------------------
 BYTE   W96
// 012   ----------------------------------------
 BYTE   W96
// 013   ----------------------------------------
 BYTE   W96
// 014   ----------------------------------------
 BYTE   W96
// 015   ----------------------------------------
 BYTE   W96
// 016   ----------------------------------------
 BYTE   W96
// 017   ----------------------------------------
 BYTE   W96
// 018   ----------------------------------------
 BYTE   W96
// 019   ----------------------------------------
 BYTE   W96
// 020   ----------------------------------------
 BYTE   W96
// 021   ----------------------------------------
 BYTE   W96
// 022   ----------------------------------------
 BYTE   W96
// 023   ----------------------------------------
 BYTE   W96
// 024   ----------------------------------------
 BYTE   W96
// 025   ----------------------------------------
 BYTE   W96
// 026   ----------------------------------------
 BYTE   W96
// 027   ----------------------------------------
 BYTE   W96
// 028   ----------------------------------------
 BYTE   W96
// 029   ----------------------------------------
 BYTE   W96
// 030   ----------------------------------------
 BYTE   W48
 BYTE   N12  Cs3  v127
 BYTE   W48
// 031   ----------------------------------------
Label_11_01E8992D:
 BYTE   N12  Fn3  v127
 BYTE   W48
 BYTE   Gs3
 BYTE   W48
 BYTE   PEND 
// 032   ----------------------------------------
 BYTE   W48
 BYTE   Cn3
 BYTE   W48
// 033   ----------------------------------------
 BYTE   PATT
  POIN2 Label_11_01E8992D
// 034   ----------------------------------------
 BYTE   W48
 BYTE   N12  Bn2  v127
 BYTE   W48
// 035   ----------------------------------------
 BYTE   En3
 BYTE   W48
 BYTE   Bn3
 BYTE   W48
// 036   ----------------------------------------
 BYTE   W96
// 037   ----------------------------------------
 BYTE   W96
// 038   ----------------------------------------
 BYTE   W96
// 039   ----------------------------------------
 BYTE   W96
// 040   ----------------------------------------
 BYTE   W96
// 041   ----------------------------------------
 BYTE   W96
// 042   ----------------------------------------
 BYTE   W96
// 043   ----------------------------------------
 BYTE   W96
// 044   ----------------------------------------
 BYTE   W96
// 045   ----------------------------------------
 BYTE   W96
// 046   ----------------------------------------
 BYTE   W96
// 047   ----------------------------------------
 BYTE   W96
// 048   ----------------------------------------
 BYTE   W96
// 049   ----------------------------------------
 BYTE   W96
// 050   ----------------------------------------
 BYTE   W96
// 051   ----------------------------------------
 BYTE   W96
// 052   ----------------------------------------
 BYTE   W96
// 053   ----------------------------------------
 BYTE   W96
// 054   ----------------------------------------
 BYTE   W96
// 055   ----------------------------------------
 BYTE   W96
// 056   ----------------------------------------
 BYTE   W96
// 057   ----------------------------------------
 BYTE   W96
// 058   ----------------------------------------
 BYTE   W96
// 059   ----------------------------------------
 BYTE   W96
// 060   ----------------------------------------
 BYTE   W96
// 061   ----------------------------------------
 BYTE   W96
// 062   ----------------------------------------
 BYTE   W96
// 063   ----------------------------------------
 BYTE   W96
// 064   ----------------------------------------
 BYTE   W96
// 065   ----------------------------------------
 BYTE   W96
// 066   ----------------------------------------
 BYTE   W96
// 067   ----------------------------------------
 BYTE   W96
// 068   ----------------------------------------
 BYTE   W96
// 069   ----------------------------------------
 BYTE   W96
// 070   ----------------------------------------
 BYTE   W96
// 071   ----------------------------------------
 BYTE   W96
// 072   ----------------------------------------
 BYTE   W96
// 073   ----------------------------------------
 BYTE   W96
// 074   ----------------------------------------
 BYTE   W96
// 075   ----------------------------------------
 BYTE   W96
// 076   ----------------------------------------
 BYTE   W96
// 077   ----------------------------------------
 BYTE   W96
// 078   ----------------------------------------
 BYTE   W96
// 079   ----------------------------------------
 BYTE   W96
// 080   ----------------------------------------
 BYTE   W96
// 081   ----------------------------------------
 BYTE   W96
// 082   ----------------------------------------
 BYTE   W96
// 083   ----------------------------------------
 BYTE   W96
// 084   ----------------------------------------
 BYTE   W96
// 085   ----------------------------------------
 BYTE   W96
// 086   ----------------------------------------
 BYTE   W96
// 087   ----------------------------------------
 BYTE   W96
// 088   ----------------------------------------
 BYTE   W96
// 089   ----------------------------------------
 BYTE   W92
 BYTE   W03
 BYTE   GoTo
  POIN2 Label_11_01E89912
// 090   ----------------------------------------
 BYTE   W01
 BYTE   FINE

//**************** Track 13 (Midi-Chn.12) ****************//

KHDDDOscuritaDellIgnotoMycahel_013:
// 000   ----------------------------------------
 BYTE   VOL   47*KHDDDOscuritaDellIgnotoMycahel_mvl/mxv
 BYTE   KEYSH   KHDDDOscuritaDellIgnotoMycahel_key+0
 BYTE   VOICE   77
 BYTE   W96
// 001   ----------------------------------------
 BYTE   W96
// 002   ----------------------------------------
 BYTE   W96
// 003   ----------------------------------------
 BYTE   W96
// 004   ----------------------------------------
 BYTE   W96
// 005   ----------------------------------------
 BYTE   W96
// 006   ----------------------------------------
 BYTE   W96
// 007   ----------------------------------------
 BYTE   W96
// 008   ----------------------------------------
Label_12_01E89992:
 BYTE   W96
// 009   ----------------------------------------
 BYTE   W96
// 010   ----------------------------------------
 BYTE   W96
// 011   ----------------------------------------
 BYTE   W96
// 012   ----------------------------------------
 BYTE   W96
// 013   ----------------------------------------
 BYTE   W96
// 014   ----------------------------------------
 BYTE   W96
// 015   ----------------------------------------
 BYTE   W96
// 016   ----------------------------------------
 BYTE   W96
// 017   ----------------------------------------
 BYTE   W96
// 018   ----------------------------------------
 BYTE   W96
// 019   ----------------------------------------
 BYTE   W96
// 020   ----------------------------------------
 BYTE   W96
// 021   ----------------------------------------
 BYTE   W96
// 022   ----------------------------------------
 BYTE   W96
// 023   ----------------------------------------
 BYTE   W96
// 024   ----------------------------------------
 BYTE   W96
// 025   ----------------------------------------
 BYTE   W96
// 026   ----------------------------------------
 BYTE   W96
// 027   ----------------------------------------
 BYTE   W96
// 028   ----------------------------------------
 BYTE   W96
// 029   ----------------------------------------
 BYTE   W96
// 030   ----------------------------------------
 BYTE   W96
// 031   ----------------------------------------
 BYTE   W96
// 032   ----------------------------------------
 BYTE   W96
// 033   ----------------------------------------
 BYTE   W96
// 034   ----------------------------------------
 BYTE   W96
// 035   ----------------------------------------
 BYTE   W96
// 036   ----------------------------------------
 BYTE   W96
// 037   ----------------------------------------
 BYTE   W96
// 038   ----------------------------------------
 BYTE   W96
// 039   ----------------------------------------
 BYTE   W96
// 040   ----------------------------------------
 BYTE   W96
// 041   ----------------------------------------
 BYTE   W96
// 042   ----------------------------------------
 BYTE   W96
// 043   ----------------------------------------
 BYTE   W96
// 044   ----------------------------------------
 BYTE   W96
// 045   ----------------------------------------
 BYTE   W96
// 046   ----------------------------------------
 BYTE   W96
// 047   ----------------------------------------
 BYTE   W96
// 048   ----------------------------------------
 BYTE   W96
// 049   ----------------------------------------
 BYTE   W96
// 050   ----------------------------------------
 BYTE   W96
// 051   ----------------------------------------
 BYTE   W96
// 052   ----------------------------------------
 BYTE   W96
// 053   ----------------------------------------
 BYTE   W96
// 054   ----------------------------------------
 BYTE   W96
// 055   ----------------------------------------
 BYTE   W96
// 056   ----------------------------------------
 BYTE   W96
// 057   ----------------------------------------
 BYTE   W96
// 058   ----------------------------------------
 BYTE   W96
// 059   ----------------------------------------
 BYTE   W96
// 060   ----------------------------------------
 BYTE   W96
// 061   ----------------------------------------
 BYTE   W96
// 062   ----------------------------------------
 BYTE   W96
// 063   ----------------------------------------
 BYTE   W96
// 064   ----------------------------------------
 BYTE   W96
// 065   ----------------------------------------
 BYTE   W96
// 066   ----------------------------------------
Label_12_01E899CC:
 BYTE   N36  Cn3  v096
 BYTE   W36
 BYTE   W01
 BYTE   TIE  Gn3
 BYTE   W56
 BYTE   W03
 BYTE   PEND 
// 067   ----------------------------------------
 BYTE   W44
 BYTE   W03
 BYTE   EOT
 BYTE   W48
 BYTE   W01
// 068   ----------------------------------------
 BYTE   W96
// 069   ----------------------------------------
Label_12_01E899DC:
 BYTE   N36  Gn3  v096
 BYTE   W36
 BYTE   Cn4
 BYTE   W36
 BYTE   N24  Gn3
 BYTE   W24
 BYTE   PEND 
// 070   ----------------------------------------
Label_12_01E899E6:
 BYTE   N36  Gn3  v096
 BYTE   W36
 BYTE   N60  Ds3
 BYTE   W60
 BYTE   PEND 
// 071   ----------------------------------------
 BYTE   PATT
  POIN2 Label_12_01E899CC
// 072   ----------------------------------------
 BYTE   W44
 BYTE   W03
 BYTE   EOT
 BYTE   Gn3
 BYTE   W48
 BYTE   W01
// 073   ----------------------------------------
 BYTE   PATT
  POIN2 Label_12_01E899DC
// 074   ----------------------------------------
 BYTE   PATT
  POIN2 Label_12_01E899E6
// 075   ----------------------------------------
 BYTE   PATT
  POIN2 Label_12_01E899CC
// 076   ----------------------------------------
 BYTE   W44
 BYTE   W03
 BYTE   EOT
 BYTE   Gn3
 BYTE   W48
 BYTE   W01
// 077   ----------------------------------------
 BYTE   W96
// 078   ----------------------------------------
 BYTE   W96
// 079   ----------------------------------------
 BYTE   W96
// 080   ----------------------------------------
 BYTE   W96
// 081   ----------------------------------------
 BYTE   W96
// 082   ----------------------------------------
 BYTE   W96
// 083   ----------------------------------------
 BYTE   W96
// 084   ----------------------------------------
 BYTE   W96
// 085   ----------------------------------------
 BYTE   W96
// 086   ----------------------------------------
 BYTE   W96
// 087   ----------------------------------------
 BYTE   W96
// 088   ----------------------------------------
 BYTE   W96
// 089   ----------------------------------------
 BYTE   W92
 BYTE   W03
 BYTE   GoTo
  POIN2 Label_12_01E89992
// 090   ----------------------------------------
 BYTE   W01
 BYTE   FINE

//******************************************************//
	ALIGN 4

KHDDDOscuritaDellIgnotoMycahel:
	BYTE	13	// NumTrks
	BYTE	0	// NumBlks
	BYTE	KHDDDOscuritaDellIgnotoMycahel_pri	// Priority
	BYTE	KHDDDOscuritaDellIgnotoMycahel_rev	// Reverb.
    
	POIN2	KHDDDOscuritaDellIgnotoMycahel_grp
    
	POIN2	KHDDDOscuritaDellIgnotoMycahel_001
	POIN2	KHDDDOscuritaDellIgnotoMycahel_002
	POIN2	KHDDDOscuritaDellIgnotoMycahel_003
	POIN2	KHDDDOscuritaDellIgnotoMycahel_004
	POIN2	KHDDDOscuritaDellIgnotoMycahel_005
	POIN2	KHDDDOscuritaDellIgnotoMycahel_006
	POIN2	KHDDDOscuritaDellIgnotoMycahel_007
	POIN2	KHDDDOscuritaDellIgnotoMycahel_008
	POIN2	KHDDDOscuritaDellIgnotoMycahel_009
	POIN2	KHDDDOscuritaDellIgnotoMycahel_010
	POIN2	KHDDDOscuritaDellIgnotoMycahel_011
	POIN2	KHDDDOscuritaDellIgnotoMycahel_012
	POIN2	KHDDDOscuritaDellIgnotoMycahel_013

	
