//Event file generated from Sappy .s format.
	#include "MPlayDef.event"

	#define	TalesOfSymphoniaFightingtheSpiritsPandan_grp  voicegroup000
	#define	TalesOfSymphoniaFightingtheSpiritsPandan_pri  0
	#define	TalesOfSymphoniaFightingtheSpiritsPandan_rev  0
	#define	TalesOfSymphoniaFightingtheSpiritsPandan_mvl  127
	#define	TalesOfSymphoniaFightingtheSpiritsPandan_key  0
	#define	TalesOfSymphoniaFightingtheSpiritsPandan_tbs  1
	#define	TalesOfSymphoniaFightingtheSpiritsPandan_exg  0
	#define	TalesOfSymphoniaFightingtheSpiritsPandan_cmp  1

	// .rodata
	//	TalesOfSymphoniaFightingtheSpiritsPandan
	ALIGN 4


//**************** Track 1 (Midi-Chn.0) ****************//

TalesOfSymphoniaFightingtheSpiritsPandan_001:
// 000   ----------------------------------------
 BYTE   KEYSH   TalesOfSymphoniaFightingtheSpiritsPandan_key+0
 BYTE   TEMPO   90*TalesOfSymphoniaFightingtheSpiritsPandan_tbs/2
 BYTE   VOICE   36
 BYTE   W24
 BYTE   VOL   80*TalesOfSymphoniaFightingtheSpiritsPandan_mvl/mxv
 BYTE   PAN   c_v+0
 BYTE   W64
Label_0_01878F90:
 BYTE   W08
// 001   ----------------------------------------
 BYTE   N90  An1  v127
 BYTE   W90
 BYTE   N03  An1  v120
 BYTE   W03
 BYTE   An1  v127
 BYTE   W03
// 002   ----------------------------------------
 BYTE   N96
 BYTE   W96
// 003   ----------------------------------------
Label_0_01878F9E:
 BYTE   N06  An2  v116
 BYTE   W06
 BYTE   En2
 BYTE   W06
 BYTE   Gn2
 BYTE   W06
 BYTE   N12  An2
 BYTE   W12
 BYTE   N06  En2
 BYTE   W06
 BYTE   Gn2
 BYTE   W06
 BYTE   N12  An2
 BYTE   W12
 BYTE   N06  En2
 BYTE   W06
 BYTE   Gn2
 BYTE   W06
 BYTE   En2
 BYTE   W06
 BYTE   An2
 BYTE   W06
 BYTE   En2
 BYTE   W06
 BYTE   Gn2
 BYTE   W06
 BYTE   En2
 BYTE   W06
 BYTE   PEND 
// 004   ----------------------------------------
Label_0_01878FC1:
 BYTE   N06  Fn2  v116
 BYTE   W06
 BYTE   Cn2
 BYTE   W06
 BYTE   En2
 BYTE   W06
 BYTE   N12  Fn2
 BYTE   W12
 BYTE   N06  Cn2
 BYTE   W06
 BYTE   En2
 BYTE   W06
 BYTE   N12  Fn2
 BYTE   W12
 BYTE   N06  Cn2
 BYTE   W06
 BYTE   En2
 BYTE   W06
 BYTE   Cn2
 BYTE   W06
 BYTE   Fn2
 BYTE   W06
 BYTE   Cn2
 BYTE   W06
 BYTE   En2
 BYTE   W06
 BYTE   Cn2
 BYTE   W06
 BYTE   PEND 
// 005   ----------------------------------------
Label_0_01878FE4:
 BYTE   N06  Gn2  v116
 BYTE   W06
 BYTE   Dn2
 BYTE   W06
 BYTE   Fn2
 BYTE   W06
 BYTE   N12  Gn2
 BYTE   W12
 BYTE   N06  Dn2
 BYTE   W06
 BYTE   Fn2
 BYTE   W06
 BYTE   N12  Gn2
 BYTE   W12
 BYTE   N06  Dn2
 BYTE   W06
 BYTE   Fn2
 BYTE   W06
 BYTE   Dn2
 BYTE   W06
 BYTE   Gn2
 BYTE   W06
 BYTE   Dn2
 BYTE   W06
 BYTE   Fn2
 BYTE   W06
 BYTE   Gn2
 BYTE   W06
 BYTE   PEND 
// 006   ----------------------------------------
Label_0_01879007:
 BYTE   N06  An2  v116
 BYTE   W06
 BYTE   En2
 BYTE   W06
 BYTE   Gn2
 BYTE   W06
 BYTE   N12  An2
 BYTE   W12
 BYTE   N06  En2
 BYTE   W06
 BYTE   Gn2
 BYTE   W06
 BYTE   N12  An2
 BYTE   W12
 BYTE   N06  En2
 BYTE   W06
 BYTE   Cn3
 BYTE   W06
 BYTE   En2
 BYTE   W06
 BYTE   Bn2
 BYTE   W06
 BYTE   En2
 BYTE   W06
 BYTE   An2
 BYTE   W06
 BYTE   En2
 BYTE   W06
 BYTE   PEND 
 BYTE   PATT
  POIN2 Label_0_01878F9E
 BYTE   PATT
  POIN2 Label_0_01878FC1
 BYTE   PATT
  POIN2 Label_0_01878FE4
 BYTE   PATT
  POIN2 Label_0_01879007
// 007   ----------------------------------------
Label_0_0187903E:
 BYTE   N12  Fn2  v116
 BYTE   W18
 BYTE   N12
 BYTE   W12
 BYTE   N06  Cn2
 BYTE   W06
 BYTE   En2
 BYTE   W06
 BYTE   Cn2
 BYTE   W06
 BYTE   Fn2
 BYTE   W06
 BYTE   N06
 BYTE   W12
 BYTE   N12
 BYTE   W12
 BYTE   N06  Cn2
 BYTE   W06
 BYTE   En2
 BYTE   W06
 BYTE   Cn2
 BYTE   W06
 BYTE   PEND 
// 008   ----------------------------------------
Label_0_01879059:
 BYTE   N12  Gn2  v116
 BYTE   W18
 BYTE   N12
 BYTE   W12
 BYTE   N06  Dn2
 BYTE   W06
 BYTE   Fn2
 BYTE   W06
 BYTE   Dn2
 BYTE   W06
 BYTE   Gn2
 BYTE   W06
 BYTE   N06
 BYTE   W12
 BYTE   N12
 BYTE   W12
 BYTE   N06  Bn2
 BYTE   W06
 BYTE   An2
 BYTE   W06
 BYTE   Gn2
 BYTE   W06
 BYTE   PEND 
// 009   ----------------------------------------
Label_0_01879074:
 BYTE   N06  Fn2  v116
 BYTE   W06
 BYTE   N06
 BYTE   W12
 BYTE   N12
 BYTE   W12
 BYTE   N06  Cn2
 BYTE   W06
 BYTE   En2
 BYTE   W06
 BYTE   Cn2
 BYTE   W06
 BYTE   Fn2
 BYTE   W06
 BYTE   N06
 BYTE   W12
 BYTE   N12
 BYTE   W12
 BYTE   N06  Cn2
 BYTE   W06
 BYTE   En2
 BYTE   W06
 BYTE   Cn2
 BYTE   W06
 BYTE   PEND 
// 010   ----------------------------------------
Label_0_01879091:
 BYTE   N12  Gn2  v116
 BYTE   W18
 BYTE   N12
 BYTE   W12
 BYTE   N06  Dn2
 BYTE   W06
 BYTE   Fn2
 BYTE   W06
 BYTE   Dn2
 BYTE   W06
 BYTE   Gn2
 BYTE   W06
 BYTE   Dn2
 BYTE   W06
 BYTE   Bn2
 BYTE   W06
 BYTE   Dn2
 BYTE   W06
 BYTE   An2
 BYTE   W06
 BYTE   Dn2
 BYTE   W06
 BYTE   Gn2
 BYTE   W06
 BYTE   Dn2
 BYTE   W06
 BYTE   PEND 
 BYTE   PATT
  POIN2 Label_0_0187903E
 BYTE   PATT
  POIN2 Label_0_01879059
// 011   ----------------------------------------
Label_0_018790B9:
 BYTE   N06  Fn2  v116
 BYTE   W06
 BYTE   N06
 BYTE   W12
 BYTE   N12
 BYTE   W12
 BYTE   N06  Cn2
 BYTE   W06
 BYTE   En2
 BYTE   W06
 BYTE   Cn2
 BYTE   W06
 BYTE   Fn2
 BYTE   W06
 BYTE   N06
 BYTE   W12
 BYTE   N12
 BYTE   W12
 BYTE   N06  Cn2
 BYTE   W06
 BYTE   En2
 BYTE   W06
 BYTE   Dn2
 BYTE   W06
 BYTE   PEND 
// 012   ----------------------------------------
Label_0_018790D6:
 BYTE   N12  En2  v116
 BYTE   W18
 BYTE   N12
 BYTE   W12
 BYTE   N06  Fn2
 BYTE   W06
 BYTE   Gs2
 BYTE   W06
 BYTE   Fn2
 BYTE   W06
 BYTE   N12  Gs2
 BYTE   W18
 BYTE   N18  An2
 BYTE   W18
 BYTE   N12  Bn2
 BYTE   W12
 BYTE   PEND 
 BYTE   PATT
  POIN2 Label_0_01879007
// 013   ----------------------------------------
Label_0_018790F2:
 BYTE   N06  Fn2  v116
 BYTE   W06
 BYTE   Cn2
 BYTE   W06
 BYTE   En2
 BYTE   W06
 BYTE   N12  Fn2
 BYTE   W12
 BYTE   N06  Cn2
 BYTE   W06
 BYTE   En2
 BYTE   W06
 BYTE   N12  Fn2
 BYTE   W12
 BYTE   N06  Cn2
 BYTE   W06
 BYTE   An2
 BYTE   W06
 BYTE   Cn2
 BYTE   W06
 BYTE   Gn2
 BYTE   W06
 BYTE   Cn2
 BYTE   W06
 BYTE   Fn2
 BYTE   W06
 BYTE   Cn2
 BYTE   W06
 BYTE   PEND 
// 014   ----------------------------------------
Label_0_01879115:
 BYTE   N06  Gn2  v116
 BYTE   W06
 BYTE   Dn2
 BYTE   W06
 BYTE   Fn2
 BYTE   W06
 BYTE   N12  Gn2
 BYTE   W12
 BYTE   N06  Dn2
 BYTE   W06
 BYTE   Fn2
 BYTE   W06
 BYTE   N12  Gn2
 BYTE   W12
 BYTE   N06  Dn2
 BYTE   W06
 BYTE   Bn2
 BYTE   W06
 BYTE   Dn2
 BYTE   W06
 BYTE   An2
 BYTE   W06
 BYTE   Dn2
 BYTE   W06
 BYTE   Gn2
 BYTE   W06
 BYTE   Dn2
 BYTE   W06
 BYTE   PEND 
// 015   ----------------------------------------
Label_0_01879138:
 BYTE   N06  An2  v116
 BYTE   W06
 BYTE   En2
 BYTE   W06
 BYTE   Gn2
 BYTE   W06
 BYTE   N12  An2
 BYTE   W12
 BYTE   N06  En2
 BYTE   W06
 BYTE   Gn2
 BYTE   W06
 BYTE   N12  An2
 BYTE   W12
 BYTE   N06  En2
 BYTE   W06
 BYTE   Gn2
 BYTE   W06
 BYTE   En2
 BYTE   W06
 BYTE   An2
 BYTE   W06
 BYTE   En2
 BYTE   W06
 BYTE   Cn3
 BYTE   W06
 BYTE   En2
 BYTE   W06
 BYTE   PEND 
 BYTE   PATT
  POIN2 Label_0_01879007
 BYTE   PATT
  POIN2 Label_0_018790F2
 BYTE   PATT
  POIN2 Label_0_01879115
 BYTE   PATT
  POIN2 Label_0_01879138
// 016   ----------------------------------------
Label_0_0187916F:
 BYTE   N06  An2  v116
 BYTE   W06
 BYTE   N06
 BYTE   W06
 BYTE   Gn2
 BYTE   W06
 BYTE   An2
 BYTE   W12
 BYTE   Gn2
 BYTE   W12
 BYTE   An2
 BYTE   W12
 BYTE   N06
 BYTE   W06
 BYTE   N06
 BYTE   W12
 BYTE   N12
 BYTE   W24
 BYTE   PEND 
// 017   ----------------------------------------
Label_0_01879184:
 BYTE   N06  Fn2  v116
 BYTE   W06
 BYTE   N06
 BYTE   W06
 BYTE   En2
 BYTE   W06
 BYTE   Fn2
 BYTE   W12
 BYTE   En2
 BYTE   W12
 BYTE   Fn2
 BYTE   W12
 BYTE   N06
 BYTE   W06
 BYTE   N06
 BYTE   W12
 BYTE   N12
 BYTE   W24
 BYTE   PEND 
// 018   ----------------------------------------
Label_0_01879199:
 BYTE   N06  Gn2  v116
 BYTE   W06
 BYTE   N06
 BYTE   W06
 BYTE   Fn2
 BYTE   W06
 BYTE   Gn2
 BYTE   W12
 BYTE   Fn2
 BYTE   W12
 BYTE   Gn2
 BYTE   W12
 BYTE   N06
 BYTE   W06
 BYTE   N06
 BYTE   W12
 BYTE   N12
 BYTE   W24
 BYTE   PEND 
 BYTE   PATT
  POIN2 Label_0_0187916F
// 019   ----------------------------------------
Label_0_018791B3:
 BYTE   N06  An2  v116
 BYTE   W06
 BYTE   N06
 BYTE   W06
 BYTE   Gn2
 BYTE   W06
 BYTE   An2
 BYTE   W12
 BYTE   Gn2
 BYTE   W12
 BYTE   An2
 BYTE   W12
 BYTE   N06
 BYTE   W06
 BYTE   N06
 BYTE   W12
 BYTE   N12
 BYTE   W12
 BYTE   Gn2
 BYTE   W12
 BYTE   PEND 
 BYTE   PATT
  POIN2 Label_0_01879184
// 020   ----------------------------------------
Label_0_018791CF:
 BYTE   N06  Gn2  v116
 BYTE   W06
 BYTE   N06
 BYTE   W06
 BYTE   Fn2
 BYTE   W06
 BYTE   Gn2
 BYTE   W12
 BYTE   Fn2
 BYTE   W12
 BYTE   Gn2
 BYTE   W12
 BYTE   N06
 BYTE   W06
 BYTE   N06
 BYTE   W12
 BYTE   N12
 BYTE   W12
 BYTE   Gs2
 BYTE   W12
 BYTE   PEND 
// 021   ----------------------------------------
 BYTE   N06  An2
 BYTE   W06
 BYTE   N06
 BYTE   W06
 BYTE   Gn2
 BYTE   W06
 BYTE   An2
 BYTE   W12
 BYTE   Gn2
 BYTE   W12
 BYTE   An2
 BYTE   W12
 BYTE   N06
 BYTE   W06
 BYTE   N06
 BYTE   W12
 BYTE   N06
 BYTE   W06
 BYTE   Bn2
 BYTE   W06
 BYTE   Cn3
 BYTE   W06
 BYTE   An2
 BYTE   W06
 BYTE   PATT
  POIN2 Label_0_01878F9E
 BYTE   PATT
  POIN2 Label_0_01878FC1
 BYTE   PATT
  POIN2 Label_0_01878FE4
 BYTE   PATT
  POIN2 Label_0_01879007
 BYTE   PATT
  POIN2 Label_0_01878F9E
 BYTE   PATT
  POIN2 Label_0_01878FC1
 BYTE   PATT
  POIN2 Label_0_01878FE4
 BYTE   PATT
  POIN2 Label_0_01879007
 BYTE   PATT
  POIN2 Label_0_0187903E
 BYTE   PATT
  POIN2 Label_0_01879059
 BYTE   PATT
  POIN2 Label_0_01879074
 BYTE   PATT
  POIN2 Label_0_01879091
 BYTE   PATT
  POIN2 Label_0_0187903E
 BYTE   PATT
  POIN2 Label_0_01879059
 BYTE   PATT
  POIN2 Label_0_018790B9
 BYTE   PATT
  POIN2 Label_0_018790D6
 BYTE   PATT
  POIN2 Label_0_01879007
 BYTE   PATT
  POIN2 Label_0_018790F2
 BYTE   PATT
  POIN2 Label_0_01879115
 BYTE   PATT
  POIN2 Label_0_01879138
 BYTE   PATT
  POIN2 Label_0_01879007
 BYTE   PATT
  POIN2 Label_0_018790F2
 BYTE   PATT
  POIN2 Label_0_01879115
 BYTE   PATT
  POIN2 Label_0_01879138
 BYTE   PATT
  POIN2 Label_0_0187916F
 BYTE   PATT
  POIN2 Label_0_01879184
 BYTE   PATT
  POIN2 Label_0_01879199
 BYTE   PATT
  POIN2 Label_0_0187916F
 BYTE   PATT
  POIN2 Label_0_018791B3
 BYTE   PATT
  POIN2 Label_0_01879184
 BYTE   PATT
  POIN2 Label_0_018791CF
 BYTE   PATT
  POIN2 Label_0_0187916F
// 022   ----------------------------------------
 BYTE   N06  An2  v116
 BYTE   W06
 BYTE   N06
 BYTE   W01
 BYTE   W05
 BYTE   Gn2
 BYTE   W06
 BYTE   An2
 BYTE   W12
 BYTE   Gn2
 BYTE   W01
 BYTE   W11
 BYTE   An2
 BYTE   W12
 BYTE   N06
 BYTE   W01
 BYTE   W05
 BYTE   N06
 BYTE   W12
 BYTE   N12
 BYTE   W07
 BYTE   W05
 BYTE   Gn2
 BYTE   W12
// 023   ----------------------------------------
 BYTE   N06  Fn2
 BYTE   W06
 BYTE   N06
 BYTE   W02
 BYTE   W04
 BYTE   En2
 BYTE   W06
 BYTE   Fn2
 BYTE   W12
 BYTE   En2
 BYTE   W02
 BYTE   W10
 BYTE   Fn2
 BYTE   W12
 BYTE   N06
 BYTE   W02
 BYTE   W04
 BYTE   N06
 BYTE   W12
 BYTE   N12
 BYTE   W09
 BYTE   W15
// 024   ----------------------------------------
 BYTE   N06  Gn2
 BYTE   W06
 BYTE   N06
 BYTE   W03
 BYTE   W03
 BYTE   Fn2
 BYTE   W06
 BYTE   Gn2
 BYTE   W12
 BYTE   Fn2
 BYTE   W03
 BYTE   W09
 BYTE   Gn2
 BYTE   W12
 BYTE   N06
 BYTE   W03
 BYTE   W03
 BYTE   N06
 BYTE   W12
 BYTE   N12
 BYTE   W10
 BYTE   W02
 BYTE   Gs2
 BYTE   W12
// 025   ----------------------------------------
 BYTE   N06  An2
 BYTE   W06
 BYTE   N06
 BYTE   W04
 BYTE   W02
 BYTE   Gn2
 BYTE   W06
 BYTE   An2
 BYTE   W12
 BYTE   Gn2
 BYTE   W04
 BYTE   W08
 BYTE   An2
 BYTE   W12
 BYTE   N06
 BYTE   W05
 BYTE   W01
 BYTE   N06
 BYTE   W12
 BYTE   N12
 BYTE   W11
 BYTE   W13
// 026   ----------------------------------------
 BYTE   N06
 BYTE   W06
 BYTE   N06
 BYTE   W05
 BYTE   W01
 BYTE   Gn2
 BYTE   W06
 BYTE   An2
 BYTE   W12
 BYTE   Gn2
 BYTE   W05
 BYTE   W07
 BYTE   An2
 BYTE   W12
 BYTE   N06
 BYTE   W06
 BYTE   N06
 BYTE   W12
 BYTE   N12
 BYTE   W12
 BYTE   Gn2
 BYTE   W12
// 027   ----------------------------------------
 BYTE   N06  Fn2
 BYTE   W06
 BYTE   N06
 BYTE   W06
 BYTE   En2
 BYTE   W06
 BYTE   Fn2
 BYTE   W12
 BYTE   En2
 BYTE   W07
 BYTE   W05
 BYTE   Fn2
 BYTE   W12
 BYTE   N06
 BYTE   W06
 BYTE   N06
 BYTE   W01
 BYTE   W11
 BYTE   N12
 BYTE   W13
 BYTE   W11
// 028   ----------------------------------------
 BYTE   N06  Gn2
 BYTE   W06
 BYTE   N06
 BYTE   W06
 BYTE   Fn2
 BYTE   W01
 BYTE   W05
 BYTE   Gn2
 BYTE   W12
 BYTE   Fn2
 BYTE   W08
 BYTE   W04
 BYTE   Gn2
 BYTE   W12
 BYTE   N06
 BYTE   W06
 BYTE   N06
 BYTE   W02
 BYTE   W10
 BYTE   N12
 BYTE   W12
 BYTE   Gs2
 BYTE   W02
 BYTE   W10
// 029   ----------------------------------------
 BYTE   N06  An2
 BYTE   W06
 BYTE   N06
 BYTE   W06
 BYTE   Gn2
 BYTE   W03
 BYTE   W03
 BYTE   An2
 BYTE   W12
 BYTE   Gn2
 BYTE   W09
 BYTE   W03
 BYTE   An2
 BYTE   W12
 BYTE   N06
 BYTE   W06
 BYTE   N06
 BYTE   W03
 BYTE   W09
 BYTE   N12
 BYTE   W15
 BYTE   W06
 BYTE   W03
// 030   ----------------------------------------
 BYTE   GoTo
  POIN2 Label_0_01878F90
 BYTE   FINE

//**************** Track 2 (Midi-Chn.1) ****************//

TalesOfSymphoniaFightingtheSpiritsPandan_002:
// 000   ----------------------------------------
 BYTE   KEYSH   TalesOfSymphoniaFightingtheSpiritsPandan_key+0
 BYTE   VOICE   60
 BYTE   W24
 BYTE   VOL   50*TalesOfSymphoniaFightingtheSpiritsPandan_mvl/mxv
 BYTE   PAN   c_v+0
 BYTE   W02
 BYTE   W02
 BYTE   W02
 BYTE   W02
 BYTE   W02
 BYTE   W54
Label_1_01879373:
 BYTE   W08
// 001   ----------------------------------------
 BYTE   W96
// 002   ----------------------------------------
 BYTE   W66
 BYTE   N03  Bn1  v088
 BYTE   W03
 BYTE   Cn2  v092
 BYTE   W03
 BYTE   Dn2  v096
 BYTE   W03
 BYTE   En2
 BYTE   W03
 BYTE   Fn2  v100
 BYTE   W03
 BYTE   Gn2
 BYTE   W03
 BYTE   An2  v104
 BYTE   W03
 BYTE   Bn2  v108
 BYTE   W03
 BYTE   Cn3  v112
 BYTE   W06
// 003   ----------------------------------------
Label_1_01879390:
 BYTE   N18  Cn4  v120
 BYTE   W01
 BYTE   W01
 BYTE   Ds2
 BYTE   W01
 BYTE   Gn2
 BYTE   W02
 BYTE   Cs3
 BYTE   W01
 BYTE   En3
 BYTE   W12
 BYTE   N18  Bn3
 BYTE   W18
 BYTE   N42  An3
 BYTE   W42
 BYTE   N06  Bn3
 BYTE   W06
 BYTE   Cn4
 BYTE   W06
 BYTE   Dn4
 BYTE   W06
 BYTE   PEND 
// 004   ----------------------------------------
Label_1_018793AB:
 BYTE   N18  En4  v120
 BYTE   W18
 BYTE   N42  An3
 BYTE   W42
 BYTE   N12  Bn3
 BYTE   W12
 BYTE   Cn4
 BYTE   W12
 BYTE   Dn4
 BYTE   W12
 BYTE   PEND 
// 005   ----------------------------------------
Label_1_018793BA:
 BYTE   N06  Cn4  v120
 BYTE   W06
 BYTE   Bn3
 BYTE   W12
 BYTE   Gn3
 BYTE   W12
 BYTE   N06
 BYTE   W12
 BYTE   N18
 BYTE   W18
 BYTE   N12  Bn3
 BYTE   W12
 BYTE   Cn4
 BYTE   W12
 BYTE   Dn4
 BYTE   W12
 BYTE   PEND 
// 006   ----------------------------------------
Label_1_018793CE:
 BYTE   N06  Cn4  v120
 BYTE   W06
 BYTE   Bn3
 BYTE   W12
 BYTE   N30  An3
 BYTE   W30
 BYTE   N42  En3
 BYTE   W01
 BYTE   W01
 BYTE   Gs1
 BYTE   W01
 BYTE   W01
 BYTE   Dn3
 BYTE   W01
 BYTE   En3
 BYTE   W19
 BYTE   Dn3
 BYTE   W01
 BYTE   Cn3
 BYTE   W01
 BYTE   As2
 BYTE   W01
 BYTE   Gs2
 BYTE   W01
 BYTE   Cn2
 BYTE   W01
 BYTE   Fs1
 BYTE   W01
 BYTE   Ds1
 BYTE   W01
 BYTE   Fn0
 BYTE   W01
 BYTE   GnM1
 BYTE   W01
 BYTE   AsM2
 BYTE   W01
 BYTE   FsM2
 BYTE   W01
 BYTE   Fn2
 BYTE   W01
 BYTE   En3
 BYTE   N06  Cn3  v088
 BYTE   W12
 BYTE   PEND 
// 007   ----------------------------------------
Label_1_01879400:
 BYTE   N18  Cn4  v120
 BYTE   W01
 BYTE   W01
 BYTE   Ds2
 BYTE   W01
 BYTE   Fn2
 BYTE   W01
 BYTE   An2
 BYTE   W01
 BYTE   Bn2
 BYTE   W01
 BYTE   Cs3
 BYTE   W01
 BYTE   En3
 BYTE   W11
 BYTE   N18  Bn3
 BYTE   W18
 BYTE   N42  An3
 BYTE   W42
 BYTE   N06  Bn3
 BYTE   W06
 BYTE   Cn4
 BYTE   W06
 BYTE   Dn4
 BYTE   W06
 BYTE   PEND 
// 008   ----------------------------------------
Label_1_0187941F:
 BYTE   N30  En4  v120
 BYTE   W30
 BYTE   N12  Dn4
 BYTE   W12
 BYTE   N06  Cn4
 BYTE   W06
 BYTE   N18  Bn3
 BYTE   W18
 BYTE   N30  An3
 BYTE   W30
 BYTE   PEND 
// 009   ----------------------------------------
Label_1_01879430:
 BYTE   N12  An3  v120
 BYTE   W12
 BYTE   N06  Bn3
 BYTE   W06
 BYTE   Cn4
 BYTE   W12
 BYTE   Dn4
 BYTE   W12
 BYTE   N18  En4
 BYTE   W18
 BYTE   N06  Dn4
 BYTE   W12
 BYTE   Cn4
 BYTE   W12
 BYTE   Bn3
 BYTE   W12
 BYTE   PEND 
// 010   ----------------------------------------
Label_1_01879446:
 BYTE   N06  Cn4  v120
 BYTE   W06
 BYTE   Bn3
 BYTE   W12
 BYTE   N78  An3
 BYTE   W30
 BYTE   W01
 BYTE   Gn2
 BYTE   W01
 BYTE   Ds2
 BYTE   W01
 BYTE   Bn1
 BYTE   W01
 BYTE   Fs1
 BYTE   W01
 BYTE   As0
 BYTE   W01
 BYTE   Fs0
 BYTE   W01
 BYTE   Dn0
 BYTE   W01
 BYTE   AnM1
 BYTE   W01
 BYTE   CsM1
 BYTE   W01
 BYTE   AnM2
 BYTE   W01
 BYTE   FnM2
 BYTE   W13
 BYTE   DnM2
 BYTE   W01
 BYTE   FsM2
 BYTE   W01
 BYTE   BnM2
 BYTE   W01
 BYTE   W01
 BYTE   BnM1
 BYTE   W01
 BYTE   Ds0
 BYTE   W01
 BYTE   Gs0
 BYTE   W01
 BYTE   En1
 BYTE   W01
 BYTE   An1
 BYTE   W01
 BYTE   Cs2
 BYTE   W01
 BYTE   Fs2
 BYTE   W01
 BYTE   Dn3
 BYTE   W01
 BYTE   En3
 BYTE   W12
 BYTE   PEND 
// 011   ----------------------------------------
Label_1_01879480:
 BYTE   N30  En4  v120
 BYTE   W01
 BYTE   W01
 BYTE   FnM1
 BYTE   W01
 BYTE   Dn0
 BYTE   W01
 BYTE   En0
 BYTE   W01
 BYTE   Gn0
 BYTE   W01
 BYTE   Cs1
 BYTE   W01
 BYTE   Ds1
 BYTE   W01
 BYTE   Gn1
 BYTE   W01
 BYTE   An1
 BYTE   W01
 BYTE   Bn1
 BYTE   W02
 BYTE   Ds2
 BYTE   W01
 BYTE   Gn2
 BYTE   W02
 BYTE   Bn2
 BYTE   W03
 BYTE   Cs3
 BYTE   W01
 BYTE   Ds3
 BYTE   W01
 BYTE   En3
 BYTE   W10
 BYTE   N12  Dn4
 BYTE   W12
 BYTE   N06  Cn4
 BYTE   W06
 BYTE   N24  Bn3
 BYTE   W24
 BYTE   N08
 BYTE   W08
 BYTE   Cn4
 BYTE   W08
 BYTE   Dn4
 BYTE   W08
 BYTE   PEND 
// 012   ----------------------------------------
Label_1_018794B3:
 BYTE   N24  Cn4  v120
 BYTE   W24
 BYTE   Bn3
 BYTE   W24
 BYTE   An3
 BYTE   W24
 BYTE   Gn3
 BYTE   W24
 BYTE   PEND 
// 013   ----------------------------------------
Label_1_018794BE:
 BYTE   N30  En4  v120
 BYTE   W01
 BYTE   W01
 BYTE   Cs0
 BYTE   W02
 BYTE   Gs0
 BYTE   W01
 BYTE   As0
 BYTE   W01
 BYTE   En1
 BYTE   W01
 BYTE   Fs1
 BYTE   W01
 BYTE   Gs1
 BYTE   W01
 BYTE   Cn2
 BYTE   W01
 BYTE   Dn2
 BYTE   W01
 BYTE   En2
 BYTE   W01
 BYTE   Fs2
 BYTE   W02
 BYTE   As2
 BYTE   W01
 BYTE   Cn3
 BYTE   W01
 BYTE   Dn3
 BYTE   W03
 BYTE   En3
 BYTE   W11
 BYTE   N12  Dn4
 BYTE   W12
 BYTE   N06  Cn4
 BYTE   W06
 BYTE   N12
 BYTE   W12
 BYTE   Bn3
 BYTE   W12
 BYTE   Fn4
 BYTE   W12
 BYTE   En4
 BYTE   W12
 BYTE   PEND 
// 014   ----------------------------------------
Label_1_018794EE:
 BYTE   N30  Dn4  v120
 BYTE   W30
 BYTE   N12  Cn4
 BYTE   W12
 BYTE   N03  Bn3
 BYTE   W03
 BYTE   Cn4
 BYTE   W03
 BYTE   N24  Bn3
 BYTE   W24
 BYTE   N12  An3
 BYTE   W12
 BYTE   Gn3
 BYTE   W12
 BYTE   PEND 
// 015   ----------------------------------------
Label_1_01879503:
 BYTE   N24  An3  v120
 BYTE   W24
 BYTE   N06
 BYTE   W06
 BYTE   Bn3
 BYTE   W06
 BYTE   Cn4
 BYTE   W06
 BYTE   N12  Dn4
 BYTE   W12
 BYTE   N06
 BYTE   W06
 BYTE   N12  Cn4
 BYTE   W12
 BYTE   Bn3
 BYTE   W12
 BYTE   An3
 BYTE   W12
 BYTE   PEND 
 BYTE   PATT
  POIN2 Label_1_01879503
// 016   ----------------------------------------
Label_1_0187951F:
 BYTE   N24  An3  v120
 BYTE   W24
 BYTE   N06
 BYTE   W06
 BYTE   Bn3
 BYTE   W06
 BYTE   Cn4
 BYTE   W06
 BYTE   N12  Gn4
 BYTE   W12
 BYTE   N06
 BYTE   W06
 BYTE   N12  Fn4
 BYTE   W12
 BYTE   En4
 BYTE   W12
 BYTE   Dn4
 BYTE   W12
 BYTE   PEND 
// 017   ----------------------------------------
Label_1_01879536:
 BYTE   N30  Bn3  v120
 BYTE   W30
 BYTE   N06  Cn4
 BYTE   W06
 BYTE   Dn4
 BYTE   W06
 BYTE   N12  En4
 BYTE   W12
 BYTE   N06  Dn4
 BYTE   W06
 BYTE   Cn4
 BYTE   W06
 BYTE   N12  Bn3
 BYTE   W12
 BYTE   N06  An3
 BYTE   W06
 BYTE   Bn3
 BYTE   W12
 BYTE   PEND 
// 018   ----------------------------------------
Label_1_01879550:
 BYTE   N18  Bn3  v120
 BYTE   W01
 BYTE   W01
 BYTE   Ds3
 BYTE   W01
 BYTE   En3
 BYTE   W15
 BYTE   N54  An3
 BYTE   W54
 BYTE   N06
 BYTE   W06
 BYTE   Bn3
 BYTE   W06
 BYTE   Cn4
 BYTE   W06
 BYTE   Dn4
 BYTE   W06
 BYTE   PEND 
// 019   ----------------------------------------
Label_1_01879565:
 BYTE   N18  En4  v120
 BYTE   W18
 BYTE   N54  An3
 BYTE   W54
 BYTE   N06
 BYTE   W06
 BYTE   Bn3
 BYTE   W06
 BYTE   Cn4
 BYTE   W06
 BYTE   En4
 BYTE   W06
 BYTE   PEND 
// 020   ----------------------------------------
Label_1_01879575:
 BYTE   N06  Dn4  v120
 BYTE   W06
 BYTE   Cn4
 BYTE   W12
 BYTE   Bn3
 BYTE   W12
 BYTE   Cn4
 BYTE   W12
 BYTE   Bn3
 BYTE   W12
 BYTE   An3
 BYTE   W12
 BYTE   Gn3
 BYTE   W06
 BYTE   N06
 BYTE   W06
 BYTE   En3
 BYTE   W06
 BYTE   Gn3
 BYTE   W06
 BYTE   Bn3
 BYTE   W06
 BYTE   PEND 
// 021   ----------------------------------------
Label_1_0187958E:
 BYTE   N54  An3  v120
 BYTE   W54
 BYTE   N06  En3
 BYTE   W06
 BYTE   Gn3
 BYTE   W06
 BYTE   En3
 BYTE   W06
 BYTE   An3
 BYTE   W06
 BYTE   En3
 BYTE   W06
 BYTE   Bn3
 BYTE   W06
 BYTE   En3
 BYTE   W06
 BYTE   PEND 
// 022   ----------------------------------------
Label_1_018795A2:
 BYTE   N18  Bn3  v120
 BYTE   W01
 BYTE   W01
 BYTE   En3
 BYTE   W16
 BYTE   N54  An3
 BYTE   W54
 BYTE   N06
 BYTE   W06
 BYTE   Bn3
 BYTE   W06
 BYTE   Cn4
 BYTE   W06
 BYTE   Dn4
 BYTE   W06
 BYTE   PEND 
 BYTE   PATT
  POIN2 Label_1_01879565
 BYTE   PATT
  POIN2 Label_1_01879575
// 023   ----------------------------------------
Label_1_018795BF:
 BYTE   N54  An3  v120
 BYTE   W54
 BYTE   N06  En3
 BYTE   W06
 BYTE   Dn3
 BYTE   W06
 BYTE   Cn3
 BYTE   W06
 BYTE   Dn3
 BYTE   W06
 BYTE   Cn3
 BYTE   W06
 BYTE   Bn2
 BYTE   W06
 BYTE   Gn2
 BYTE   W06
 BYTE   PEND 
// 024   ----------------------------------------
Label_1_018795D3:
 BYTE   N06  Cn3  v120
 BYTE   W06
 BYTE   N06
 BYTE   W06
 BYTE   Bn2
 BYTE   W06
 BYTE   Cn3
 BYTE   W12
 BYTE   Bn2
 BYTE   W12
 BYTE   Dn3
 BYTE   W12
 BYTE   Cn3
 BYTE   W06
 BYTE   Bn2
 BYTE   W12
 BYTE   N12  Cn3
 BYTE   W24
 BYTE   PEND 
 BYTE   PATT
  POIN2 Label_1_018795D3
// 025   ----------------------------------------
Label_1_018795EE:
 BYTE   N06  Dn3  v120
 BYTE   W06
 BYTE   N06
 BYTE   W06
 BYTE   Cn3
 BYTE   W06
 BYTE   Dn3
 BYTE   W12
 BYTE   Cn3
 BYTE   W12
 BYTE   En3
 BYTE   W12
 BYTE   Dn3
 BYTE   W06
 BYTE   Cn3
 BYTE   W12
 BYTE   N12  Dn3
 BYTE   W24
 BYTE   PEND 
 BYTE   PATT
  POIN2 Label_1_018795D3
 BYTE   PATT
  POIN2 Label_1_018795D3
 BYTE   PATT
  POIN2 Label_1_018795D3
 BYTE   PATT
  POIN2 Label_1_018795EE
 BYTE   PATT
  POIN2 Label_1_018795D3
 BYTE   PATT
  POIN2 Label_1_01879390
 BYTE   PATT
  POIN2 Label_1_018793AB
 BYTE   PATT
  POIN2 Label_1_018793BA
 BYTE   PATT
  POIN2 Label_1_018793CE
 BYTE   PATT
  POIN2 Label_1_01879400
 BYTE   PATT
  POIN2 Label_1_0187941F
 BYTE   PATT
  POIN2 Label_1_01879430
 BYTE   PATT
  POIN2 Label_1_01879446
 BYTE   PATT
  POIN2 Label_1_01879480
 BYTE   PATT
  POIN2 Label_1_018794B3
 BYTE   PATT
  POIN2 Label_1_018794BE
 BYTE   PATT
  POIN2 Label_1_018794EE
 BYTE   PATT
  POIN2 Label_1_01879503
 BYTE   PATT
  POIN2 Label_1_01879503
 BYTE   PATT
  POIN2 Label_1_0187951F
 BYTE   PATT
  POIN2 Label_1_01879536
 BYTE   PATT
  POIN2 Label_1_01879550
 BYTE   PATT
  POIN2 Label_1_01879565
 BYTE   PATT
  POIN2 Label_1_01879575
 BYTE   PATT
  POIN2 Label_1_0187958E
 BYTE   PATT
  POIN2 Label_1_018795A2
 BYTE   PATT
  POIN2 Label_1_01879565
 BYTE   PATT
  POIN2 Label_1_01879575
 BYTE   PATT
  POIN2 Label_1_018795BF
 BYTE   PATT
  POIN2 Label_1_018795D3
 BYTE   PATT
  POIN2 Label_1_018795D3
 BYTE   PATT
  POIN2 Label_1_018795EE
 BYTE   PATT
  POIN2 Label_1_018795D3
 BYTE   PATT
  POIN2 Label_1_018795D3
 BYTE   PATT
  POIN2 Label_1_018795D3
 BYTE   PATT
  POIN2 Label_1_018795EE
 BYTE   PATT
  POIN2 Label_1_018795D3
// 026   ----------------------------------------
 BYTE   N06  Cn3  v120
 BYTE   W06
 BYTE   N06
 BYTE   W01
 BYTE   W05
 BYTE   Bn2
 BYTE   W06
 BYTE   Cn3
 BYTE   W12
 BYTE   Bn2
 BYTE   W01
 BYTE   W11
 BYTE   Dn3
 BYTE   W12
 BYTE   Cn3
 BYTE   W01
 BYTE   W05
 BYTE   Bn2
 BYTE   W12
 BYTE   N12  Cn3
 BYTE   W07
 BYTE   W17
// 027   ----------------------------------------
 BYTE   N06
 BYTE   W06
 BYTE   N06
 BYTE   W02
 BYTE   W04
 BYTE   Bn2
 BYTE   W06
 BYTE   Cn3
 BYTE   W12
 BYTE   Bn2
 BYTE   W02
 BYTE   W10
 BYTE   Dn3
 BYTE   W12
 BYTE   Cn3
 BYTE   W02
 BYTE   W04
 BYTE   Bn2
 BYTE   W12
 BYTE   N12  Cn3
 BYTE   W09
 BYTE   W15
// 028   ----------------------------------------
 BYTE   N06  Dn3
 BYTE   W06
 BYTE   N06
 BYTE   W03
 BYTE   W03
 BYTE   Cn3
 BYTE   W06
 BYTE   Dn3
 BYTE   W12
 BYTE   Cn3
 BYTE   W03
 BYTE   W09
 BYTE   En3
 BYTE   W12
 BYTE   Dn3
 BYTE   W03
 BYTE   W03
 BYTE   Cn3
 BYTE   W12
 BYTE   N12  Dn3
 BYTE   W10
 BYTE   W14
// 029   ----------------------------------------
 BYTE   N06  Cn3
 BYTE   W06
 BYTE   N06
 BYTE   W04
 BYTE   W02
 BYTE   Bn2
 BYTE   W06
 BYTE   Cn3
 BYTE   W12
 BYTE   Bn2
 BYTE   W04
 BYTE   W08
 BYTE   Dn3
 BYTE   W12
 BYTE   Cn3
 BYTE   W05
 BYTE   W01
 BYTE   Bn2
 BYTE   W12
 BYTE   N12  Cn3
 BYTE   W11
 BYTE   W13
// 030   ----------------------------------------
 BYTE   N06
 BYTE   W06
 BYTE   N06
 BYTE   W05
 BYTE   W01
 BYTE   Bn2
 BYTE   W06
 BYTE   Cn3
 BYTE   W12
 BYTE   Bn2
 BYTE   W05
 BYTE   W07
 BYTE   Dn3
 BYTE   W12
 BYTE   Cn3
 BYTE   W06
 BYTE   Bn2
 BYTE   W12
 BYTE   N12  Cn3
 BYTE   W12
 BYTE   W12
// 031   ----------------------------------------
 BYTE   N06
 BYTE   W06
 BYTE   N06
 BYTE   W06
 BYTE   Bn2
 BYTE   W06
 BYTE   Cn3
 BYTE   W12
 BYTE   Bn2
 BYTE   W07
 BYTE   W05
 BYTE   Dn3
 BYTE   W12
 BYTE   Cn3
 BYTE   W06
 BYTE   Bn2
 BYTE   W01
 BYTE   W11
 BYTE   N12  Cn3
 BYTE   W13
 BYTE   W11
// 032   ----------------------------------------
 BYTE   N06  Dn3
 BYTE   W06
 BYTE   N06
 BYTE   W06
 BYTE   Cn3
 BYTE   W01
 BYTE   W05
 BYTE   Dn3
 BYTE   W12
 BYTE   Cn3
 BYTE   W08
 BYTE   W04
 BYTE   En3
 BYTE   W12
 BYTE   Dn3
 BYTE   W06
 BYTE   Cn3
 BYTE   W02
 BYTE   W10
 BYTE   N12  Dn3
 BYTE   W14
 BYTE   W10
// 033   ----------------------------------------
 BYTE   N06  Cn3
 BYTE   W06
 BYTE   N06
 BYTE   W06
 BYTE   Bn2
 BYTE   W03
 BYTE   W03
 BYTE   Cn3
 BYTE   W12
 BYTE   Bn2
 BYTE   W09
 BYTE   W03
 BYTE   Dn3
 BYTE   W12
 BYTE   Cn3
 BYTE   W06
 BYTE   Bn2
 BYTE   W03
 BYTE   W09
 BYTE   N12  Cn3
 BYTE   W15
 BYTE   W06
 BYTE   W03
// 034   ----------------------------------------
 BYTE   GoTo
  POIN2 Label_1_01879373
 BYTE   FINE

//**************** Track 3 (Midi-Chn.2) ****************//

TalesOfSymphoniaFightingtheSpiritsPandan_003:
// 000   ----------------------------------------
 BYTE   KEYSH   TalesOfSymphoniaFightingtheSpiritsPandan_key+0
 BYTE   W24
 BYTE   VOICE   6
 BYTE   VOL   25*TalesOfSymphoniaFightingtheSpiritsPandan_mvl/mxv
 BYTE   PAN   c_v-44
 BYTE   W02
 BYTE   W02
 BYTE   W02
 BYTE   W02
 BYTE   W02
 BYTE   W54
Label_2_0187978F:
 BYTE   W04
 BYTE   W02
 BYTE   W02
// 001   ----------------------------------------
 BYTE   N06  En3  v088
 BYTE   W06
 BYTE   An2
 BYTE   W06
 BYTE   Cn3
 BYTE   W06
 BYTE   An2
 BYTE   W06
 BYTE   Dn3
 BYTE   W06
 BYTE   An2
 BYTE   W06
 BYTE   Cn3  v092
 BYTE   W06
 BYTE   Gn2
 BYTE   W06
 BYTE   En3
 BYTE   W06
 BYTE   An2
 BYTE   W06
 BYTE   Cn3
 BYTE   W06
 BYTE   An2
 BYTE   W06
 BYTE   Dn3
 BYTE   W06
 BYTE   An2
 BYTE   W06
 BYTE   Cn3  v096
 BYTE   W06
 BYTE   Gn2
 BYTE   W06
// 002   ----------------------------------------
 BYTE   En3
 BYTE   W06
 BYTE   An2
 BYTE   W06
 BYTE   Cn3
 BYTE   W06
 BYTE   An2
 BYTE   W06
 BYTE   Dn3
 BYTE   W06
 BYTE   An2
 BYTE   W06
 BYTE   Cn3  v100
 BYTE   W06
 BYTE   Gn2
 BYTE   W06
 BYTE   En3
 BYTE   W06
 BYTE   An2
 BYTE   W06
 BYTE   Cn3
 BYTE   W06
 BYTE   An2
 BYTE   W06
 BYTE   Dn3
 BYTE   W06
 BYTE   An2
 BYTE   W06
 BYTE   Cn3  v104
 BYTE   W06
 BYTE   Gn2
 BYTE   W06
// 003   ----------------------------------------
Label_2_018797D8:
 BYTE   N06  Cn3  v108
 BYTE   W06
 BYTE   An2
 BYTE   W06
 BYTE   Bn2
 BYTE   W06
 BYTE   Cn3
 BYTE   W06
 BYTE   Bn2
 BYTE   W06
 BYTE   An2
 BYTE   W06
 BYTE   En2
 BYTE   W06
 BYTE   Cn3
 BYTE   W06
 BYTE   En2
 BYTE   W06
 BYTE   Bn2
 BYTE   W06
 BYTE   En2
 BYTE   W06
 BYTE   An2
 BYTE   W06
 BYTE   En2
 BYTE   W06
 BYTE   Bn2
 BYTE   W06
 BYTE   En2
 BYTE   W06
 BYTE   Cn3
 BYTE   W06
 BYTE   PEND 
// 004   ----------------------------------------
Label_2_018797FB:
 BYTE   N06  En2  v108
 BYTE   W06
 BYTE   An2
 BYTE   W06
 BYTE   En2
 BYTE   W06
 BYTE   Bn2
 BYTE   W06
 BYTE   En2
 BYTE   W06
 BYTE   Cn3
 BYTE   W06
 BYTE   En2
 BYTE   W06
 BYTE   Dn3
 BYTE   W06
 BYTE   En2
 BYTE   W06
 BYTE   Cn3
 BYTE   W06
 BYTE   En2
 BYTE   W06
 BYTE   Bn2
 BYTE   W06
 BYTE   En2
 BYTE   W06
 BYTE   An2
 BYTE   W06
 BYTE   En2
 BYTE   W06
 BYTE   Bn2
 BYTE   W06
 BYTE   PEND 
// 005   ----------------------------------------
Label_2_0187981E:
 BYTE   N06  Gn2  v108
 BYTE   W06
 BYTE   Bn2
 BYTE   W06
 BYTE   Gn2
 BYTE   W06
 BYTE   Cn3
 BYTE   W06
 BYTE   Gn2
 BYTE   W06
 BYTE   Dn3
 BYTE   W06
 BYTE   Gn2
 BYTE   W06
 BYTE   En3
 BYTE   W06
 BYTE   Gn2
 BYTE   W06
 BYTE   Dn3
 BYTE   W06
 BYTE   Gn2
 BYTE   W06
 BYTE   Cn3
 BYTE   W06
 BYTE   Gn2
 BYTE   W06
 BYTE   Bn2
 BYTE   W06
 BYTE   Gn2
 BYTE   W06
 BYTE   Bn2
 BYTE   W06
 BYTE   PEND 
 BYTE   PATT
  POIN2 Label_2_018797FB
 BYTE   PATT
  POIN2 Label_2_018797D8
 BYTE   PATT
  POIN2 Label_2_018797FB
 BYTE   PATT
  POIN2 Label_2_0187981E
 BYTE   PATT
  POIN2 Label_2_018797FB
// 006   ----------------------------------------
Label_2_0187985A:
 BYTE   N06  En3  v108
 BYTE   W06
 BYTE   An2
 BYTE   W06
 BYTE   En2
 BYTE   W06
 BYTE   En3
 BYTE   W06
 BYTE   Cn3
 BYTE   W06
 BYTE   An2
 BYTE   W06
 BYTE   En3
 BYTE   W06
 BYTE   An2
 BYTE   W06
 BYTE   En2
 BYTE   W06
 BYTE   En3
 BYTE   W06
 BYTE   Cn3
 BYTE   W06
 BYTE   An2
 BYTE   W06
 BYTE   En3
 BYTE   W06
 BYTE   An2
 BYTE   W06
 BYTE   En2
 BYTE   W06
 BYTE   En3
 BYTE   W06
 BYTE   PEND 
// 007   ----------------------------------------
Label_2_0187987D:
 BYTE   N06  Dn3  v108
 BYTE   W06
 BYTE   Bn2
 BYTE   W06
 BYTE   Gn2
 BYTE   W06
 BYTE   Fn3
 BYTE   W06
 BYTE   Dn3
 BYTE   W06
 BYTE   Bn2
 BYTE   W06
 BYTE   Dn3
 BYTE   W06
 BYTE   Bn2
 BYTE   W06
 BYTE   Gn2
 BYTE   W06
 BYTE   Fn3
 BYTE   W06
 BYTE   Dn3
 BYTE   W06
 BYTE   Bn2
 BYTE   W06
 BYTE   Dn3
 BYTE   W06
 BYTE   Bn2
 BYTE   W06
 BYTE   Gn2
 BYTE   W06
 BYTE   Dn3
 BYTE   W06
 BYTE   PEND 
 BYTE   PATT
  POIN2 Label_2_0187985A
 BYTE   PATT
  POIN2 Label_2_0187987D
 BYTE   PATT
  POIN2 Label_2_0187985A
 BYTE   PATT
  POIN2 Label_2_0187987D
 BYTE   PATT
  POIN2 Label_2_0187985A
// 008   ----------------------------------------
Label_2_018798B9:
 BYTE   N06  Dn3  v108
 BYTE   W06
 BYTE   Bn2
 BYTE   W06
 BYTE   Gs2
 BYTE   W06
 BYTE   En2
 BYTE   W06
 BYTE   Gs2
 BYTE   W06
 BYTE   Bn2
 BYTE   W06
 BYTE   Dn3
 BYTE   W06
 BYTE   Bn2
 BYTE   W06
 BYTE   Gs2
 BYTE   W06
 BYTE   Bn2
 BYTE   W06
 BYTE   Dn3
 BYTE   W06
 BYTE   Bn2
 BYTE   W06
 BYTE   Gs3
 BYTE   W06
 BYTE   En3
 BYTE   W06
 BYTE   Bn3
 BYTE   W06
 BYTE   Gs3
 BYTE   W06
 BYTE   PEND 
// 009   ----------------------------------------
Label_2_018798DC:
 BYTE   N06  En3  v108
 BYTE   W06
 BYTE   Cn3
 BYTE   W06
 BYTE   An2
 BYTE   W06
 BYTE   En3
 BYTE   W06
 BYTE   Cn3
 BYTE   W06
 BYTE   An2
 BYTE   W06
 BYTE   En3
 BYTE   W06
 BYTE   Cn3
 BYTE   W06
 BYTE   An2
 BYTE   W06
 BYTE   En3
 BYTE   W06
 BYTE   Cn3
 BYTE   W06
 BYTE   An2
 BYTE   W06
 BYTE   En3
 BYTE   W06
 BYTE   Cn3
 BYTE   W06
 BYTE   An2
 BYTE   W06
 BYTE   En3
 BYTE   W06
 BYTE   PEND 
 BYTE   PATT
  POIN2 Label_2_018798DC
// 010   ----------------------------------------
Label_2_01879904:
 BYTE   N06  En3  v108
 BYTE   W06
 BYTE   Bn2
 BYTE   W06
 BYTE   Gn2
 BYTE   W06
 BYTE   En3
 BYTE   W06
 BYTE   Bn2
 BYTE   W06
 BYTE   Gn2
 BYTE   W06
 BYTE   En3
 BYTE   W06
 BYTE   Bn2
 BYTE   W06
 BYTE   Gn2
 BYTE   W06
 BYTE   En3
 BYTE   W06
 BYTE   Bn2
 BYTE   W06
 BYTE   Gn2
 BYTE   W06
 BYTE   En3
 BYTE   W06
 BYTE   Bn2
 BYTE   W06
 BYTE   Gn2
 BYTE   W06
 BYTE   En3
 BYTE   W06
 BYTE   PEND 
 BYTE   PATT
  POIN2 Label_2_018798DC
 BYTE   PATT
  POIN2 Label_2_018798DC
 BYTE   PATT
  POIN2 Label_2_018798DC
 BYTE   PATT
  POIN2 Label_2_01879904
 BYTE   PATT
  POIN2 Label_2_018798DC
// 011   ----------------------------------------
Label_2_01879940:
 BYTE   N03  Cn3  v108
 BYTE   W03
 BYTE   Bn2
 BYTE   W03
 BYTE   An2
 BYTE   W03
 BYTE   En2
 BYTE   W03
 BYTE   Cn3
 BYTE   W03
 BYTE   Bn2
 BYTE   W03
 BYTE   An2
 BYTE   W03
 BYTE   En2
 BYTE   W03
 BYTE   Cn3
 BYTE   W03
 BYTE   Bn2
 BYTE   W03
 BYTE   An2
 BYTE   W03
 BYTE   En2
 BYTE   W03
 BYTE   Cn3
 BYTE   W03
 BYTE   Bn2
 BYTE   W03
 BYTE   An2
 BYTE   W03
 BYTE   En2
 BYTE   W03
 BYTE   Cn3
 BYTE   W03
 BYTE   Bn2
 BYTE   W03
 BYTE   An2
 BYTE   W03
 BYTE   En2
 BYTE   W03
 BYTE   Cn3
 BYTE   W03
 BYTE   Bn2
 BYTE   W03
 BYTE   An2
 BYTE   W03
 BYTE   En2
 BYTE   W03
 BYTE   Cn3
 BYTE   W03
 BYTE   Bn2
 BYTE   W03
 BYTE   An2
 BYTE   W03
 BYTE   En2
 BYTE   W03
 BYTE   Cn3
 BYTE   W03
 BYTE   Bn2
 BYTE   W03
 BYTE   An2
 BYTE   W03
 BYTE   En2
 BYTE   W03
 BYTE   PEND 
// 012   ----------------------------------------
Label_2_01879983:
 BYTE   N03  Cn3  v108
 BYTE   W03
 BYTE   Bn2
 BYTE   W03
 BYTE   An2
 BYTE   W03
 BYTE   Fn2
 BYTE   W03
 BYTE   Cn3
 BYTE   W03
 BYTE   Bn2
 BYTE   W03
 BYTE   An2
 BYTE   W03
 BYTE   Fn2
 BYTE   W03
 BYTE   Cn3
 BYTE   W03
 BYTE   Bn2
 BYTE   W03
 BYTE   An2
 BYTE   W03
 BYTE   Fn2
 BYTE   W03
 BYTE   Cn3
 BYTE   W03
 BYTE   Bn2
 BYTE   W03
 BYTE   An2
 BYTE   W03
 BYTE   Fn2
 BYTE   W03
 BYTE   Cn3
 BYTE   W03
 BYTE   Bn2
 BYTE   W03
 BYTE   An2
 BYTE   W03
 BYTE   Fn2
 BYTE   W03
 BYTE   Cn3
 BYTE   W03
 BYTE   Bn2
 BYTE   W03
 BYTE   An2
 BYTE   W03
 BYTE   Fn2
 BYTE   W03
 BYTE   Cn3
 BYTE   W03
 BYTE   Bn2
 BYTE   W03
 BYTE   An2
 BYTE   W03
 BYTE   Fn2
 BYTE   W03
 BYTE   Cn3
 BYTE   W03
 BYTE   Bn2
 BYTE   W03
 BYTE   An2
 BYTE   W03
 BYTE   Fn2
 BYTE   W03
 BYTE   PEND 
// 013   ----------------------------------------
Label_2_018799C6:
 BYTE   N03  Dn3  v108
 BYTE   W03
 BYTE   Cn3
 BYTE   W03
 BYTE   Bn2
 BYTE   W03
 BYTE   Gn2
 BYTE   W03
 BYTE   Dn3
 BYTE   W03
 BYTE   Cn3
 BYTE   W03
 BYTE   Bn2
 BYTE   W03
 BYTE   Gn2
 BYTE   W03
 BYTE   Dn3
 BYTE   W03
 BYTE   Cn3
 BYTE   W03
 BYTE   Bn2
 BYTE   W03
 BYTE   Gn2
 BYTE   W03
 BYTE   Dn3
 BYTE   W03
 BYTE   Cn3
 BYTE   W03
 BYTE   Bn2
 BYTE   W03
 BYTE   Gn2
 BYTE   W03
 BYTE   Dn3
 BYTE   W03
 BYTE   Cn3
 BYTE   W03
 BYTE   Bn2
 BYTE   W03
 BYTE   Gn2
 BYTE   W03
 BYTE   Dn3
 BYTE   W03
 BYTE   Cn3
 BYTE   W03
 BYTE   Bn2
 BYTE   W03
 BYTE   Gn2
 BYTE   W03
 BYTE   Dn3
 BYTE   W03
 BYTE   Cn3
 BYTE   W03
 BYTE   Bn2
 BYTE   W03
 BYTE   Gn2
 BYTE   W03
 BYTE   Dn3
 BYTE   W03
 BYTE   Cn3
 BYTE   W03
 BYTE   Bn2
 BYTE   W03
 BYTE   Gn2
 BYTE   W03
 BYTE   PEND 
// 014   ----------------------------------------
Label_2_01879A09:
 BYTE   N03  Cn3  v108
 BYTE   W03
 BYTE   Bn2
 BYTE   W03
 BYTE   An2
 BYTE   W03
 BYTE   En2
 BYTE   W03
 BYTE   Cn3
 BYTE   W03
 BYTE   Bn2
 BYTE   W03
 BYTE   An2
 BYTE   W03
 BYTE   En2
 BYTE   W03
 BYTE   Cn3
 BYTE   W03
 BYTE   Bn2
 BYTE   W03
 BYTE   An2
 BYTE   W03
 BYTE   En2
 BYTE   W03
 BYTE   Cn3
 BYTE   W03
 BYTE   Bn2
 BYTE   W03
 BYTE   An2
 BYTE   W03
 BYTE   En2
 BYTE   W03
 BYTE   Cn3
 BYTE   W03
 BYTE   Bn2
 BYTE   W03
 BYTE   An2
 BYTE   W03
 BYTE   En2
 BYTE   W03
 BYTE   Cn3
 BYTE   W03
 BYTE   Bn2
 BYTE   W03
 BYTE   An2
 BYTE   W03
 BYTE   En2
 BYTE   W03
 BYTE   Cn3
 BYTE   W03
 BYTE   Bn2
 BYTE   W03
 BYTE   An2
 BYTE   W03
 BYTE   En2
 BYTE   W03
 BYTE   Cn3
 BYTE   W03
 BYTE   Bn2
 BYTE   W03
 BYTE   Cn3
 BYTE   W03
 BYTE   En3
 BYTE   W03
 BYTE   PEND 
 BYTE   PATT
  POIN2 Label_2_01879940
 BYTE   PATT
  POIN2 Label_2_01879983
// 015   ----------------------------------------
Label_2_01879A56:
 BYTE   N03  Dn3  v108
 BYTE   W03
 BYTE   Cn3
 BYTE   W03
 BYTE   Bn2
 BYTE   W03
 BYTE   Gn2
 BYTE   W03
 BYTE   Dn3
 BYTE   W03
 BYTE   Cn3
 BYTE   W03
 BYTE   Bn2
 BYTE   W03
 BYTE   Gn2
 BYTE   W03
 BYTE   Dn3
 BYTE   W03
 BYTE   Cn3
 BYTE   W03
 BYTE   Bn2
 BYTE   W03
 BYTE   Gn2
 BYTE   W03
 BYTE   Dn3
 BYTE   W03
 BYTE   Cn3
 BYTE   W03
 BYTE   Bn2
 BYTE   W03
 BYTE   Gn2
 BYTE   W03
 BYTE   Dn3
 BYTE   W03
 BYTE   Cn3
 BYTE   W03
 BYTE   Bn2
 BYTE   W03
 BYTE   Gn2
 BYTE   W03
 BYTE   Dn3
 BYTE   W03
 BYTE   Cn3
 BYTE   W03
 BYTE   Bn2
 BYTE   W03
 BYTE   Gn2
 BYTE   W03
 BYTE   Dn3
 BYTE   W03
 BYTE   Cn3
 BYTE   W03
 BYTE   Bn2
 BYTE   W03
 BYTE   Gn2
 BYTE   W03
 BYTE   Dn3
 BYTE   W03
 BYTE   Cn3
 BYTE   W03
 BYTE   N06  Bn2
 BYTE   W06
 BYTE   PEND 
 BYTE   PATT
  POIN2 Label_2_01879A09
 BYTE   PATT
  POIN2 Label_2_018797D8
 BYTE   PATT
  POIN2 Label_2_018797FB
 BYTE   PATT
  POIN2 Label_2_0187981E
 BYTE   PATT
  POIN2 Label_2_018797FB
 BYTE   PATT
  POIN2 Label_2_018797D8
 BYTE   PATT
  POIN2 Label_2_018797FB
 BYTE   PATT
  POIN2 Label_2_0187981E
 BYTE   PATT
  POIN2 Label_2_018797FB
 BYTE   PATT
  POIN2 Label_2_0187985A
 BYTE   PATT
  POIN2 Label_2_0187987D
 BYTE   PATT
  POIN2 Label_2_0187985A
 BYTE   PATT
  POIN2 Label_2_0187987D
 BYTE   PATT
  POIN2 Label_2_0187985A
 BYTE   PATT
  POIN2 Label_2_0187987D
 BYTE   PATT
  POIN2 Label_2_0187985A
 BYTE   PATT
  POIN2 Label_2_018798B9
 BYTE   PATT
  POIN2 Label_2_018798DC
 BYTE   PATT
  POIN2 Label_2_018798DC
 BYTE   PATT
  POIN2 Label_2_01879904
 BYTE   PATT
  POIN2 Label_2_018798DC
 BYTE   PATT
  POIN2 Label_2_018798DC
 BYTE   PATT
  POIN2 Label_2_018798DC
 BYTE   PATT
  POIN2 Label_2_01879904
 BYTE   PATT
  POIN2 Label_2_018798DC
 BYTE   PATT
  POIN2 Label_2_01879940
 BYTE   PATT
  POIN2 Label_2_01879983
 BYTE   PATT
  POIN2 Label_2_018799C6
 BYTE   PATT
  POIN2 Label_2_01879A09
 BYTE   PATT
  POIN2 Label_2_01879940
 BYTE   PATT
  POIN2 Label_2_01879983
 BYTE   PATT
  POIN2 Label_2_01879A56
 BYTE   PATT
  POIN2 Label_2_01879A09
// 016   ----------------------------------------
 BYTE   N03  Cn3  v108
 BYTE   W03
 BYTE   Bn2
 BYTE   W03
 BYTE   An2
 BYTE   W01
 BYTE   W02
 BYTE   En2
 BYTE   W03
 BYTE   Cn3
 BYTE   W03
 BYTE   Bn2
 BYTE   W03
 BYTE   An2
 BYTE   W03
 BYTE   En2
 BYTE   W03
 BYTE   Cn3
 BYTE   W03
 BYTE   Bn2
 BYTE   W03
 BYTE   An2
 BYTE   W01
 BYTE   W02
 BYTE   En2
 BYTE   W03
 BYTE   Cn3
 BYTE   W03
 BYTE   Bn2
 BYTE   W03
 BYTE   An2
 BYTE   W03
 BYTE   En2
 BYTE   W03
 BYTE   Cn3
 BYTE   W03
 BYTE   Bn2
 BYTE   W03
 BYTE   An2
 BYTE   W01
 BYTE   W02
 BYTE   En2
 BYTE   W03
 BYTE   Cn3
 BYTE   W03
 BYTE   Bn2
 BYTE   W03
 BYTE   An2
 BYTE   W03
 BYTE   En2
 BYTE   W03
 BYTE   Cn3
 BYTE   W03
 BYTE   Bn2
 BYTE   W03
 BYTE   An2
 BYTE   W01
 BYTE   W02
 BYTE   En2
 BYTE   W03
 BYTE   Cn3
 BYTE   W03
 BYTE   Bn2
 BYTE   W03
 BYTE   An2
 BYTE   W03
 BYTE   En2
 BYTE   W03
// 017   ----------------------------------------
 BYTE   Cn3
 BYTE   W03
 BYTE   Bn2
 BYTE   W03
 BYTE   An2
 BYTE   W02
 BYTE   W01
 BYTE   Fn2
 BYTE   W03
 BYTE   Cn3
 BYTE   W03
 BYTE   Bn2
 BYTE   W03
 BYTE   An2
 BYTE   W03
 BYTE   Fn2
 BYTE   W03
 BYTE   Cn3
 BYTE   W03
 BYTE   Bn2
 BYTE   W03
 BYTE   An2
 BYTE   W02
 BYTE   W01
 BYTE   Fn2
 BYTE   W03
 BYTE   Cn3
 BYTE   W03
 BYTE   Bn2
 BYTE   W03
 BYTE   An2
 BYTE   W03
 BYTE   Fn2
 BYTE   W03
 BYTE   Cn3
 BYTE   W03
 BYTE   Bn2
 BYTE   W03
 BYTE   An2
 BYTE   W02
 BYTE   W01
 BYTE   Fn2
 BYTE   W03
 BYTE   Cn3
 BYTE   W03
 BYTE   Bn2
 BYTE   W03
 BYTE   An2
 BYTE   W03
 BYTE   Fn2
 BYTE   W03
 BYTE   Cn3
 BYTE   W03
 BYTE   Bn2
 BYTE   W03
 BYTE   An2
 BYTE   W03
 BYTE   Fn2
 BYTE   W03
 BYTE   Cn3
 BYTE   W03
 BYTE   Bn2
 BYTE   W03
 BYTE   An2
 BYTE   W03
 BYTE   Fn2
 BYTE   W03
// 018   ----------------------------------------
 BYTE   Dn3
 BYTE   W03
 BYTE   Cn3
 BYTE   W03
 BYTE   Bn2
 BYTE   W03
 BYTE   Gn2
 BYTE   W03
 BYTE   Dn3
 BYTE   W03
 BYTE   Cn3
 BYTE   W03
 BYTE   Bn2
 BYTE   W03
 BYTE   Gn2
 BYTE   W03
 BYTE   Dn3
 BYTE   W03
 BYTE   Cn3
 BYTE   W03
 BYTE   Bn2
 BYTE   W03
 BYTE   Gn2
 BYTE   W03
 BYTE   Dn3
 BYTE   W03
 BYTE   Cn3
 BYTE   W03
 BYTE   Bn2
 BYTE   W03
 BYTE   Gn2
 BYTE   W03
 BYTE   Dn3
 BYTE   W03
 BYTE   Cn3
 BYTE   W03
 BYTE   Bn2
 BYTE   W03
 BYTE   Gn2
 BYTE   W03
 BYTE   Dn3
 BYTE   W03
 BYTE   Cn3
 BYTE   W03
 BYTE   Bn2
 BYTE   W03
 BYTE   Gn2
 BYTE   W03
 BYTE   Dn3
 BYTE   W03
 BYTE   Cn3
 BYTE   W03
 BYTE   Bn2
 BYTE   W03
 BYTE   Gn2
 BYTE   W01
 BYTE   W02
 BYTE   Dn3
 BYTE   W03
 BYTE   Cn3
 BYTE   W03
 BYTE   N06  Bn2
 BYTE   W06
// 019   ----------------------------------------
 BYTE   N03  Cn3
 BYTE   W03
 BYTE   Bn2
 BYTE   W03
 BYTE   An2
 BYTE   W03
 BYTE   En2
 BYTE   W01
 BYTE   W02
 BYTE   Cn3
 BYTE   W03
 BYTE   Bn2
 BYTE   W03
 BYTE   An2
 BYTE   W03
 BYTE   En2
 BYTE   W03
 BYTE   Cn3
 BYTE   W03
 BYTE   Bn2
 BYTE   W03
 BYTE   An2
 BYTE   W03
 BYTE   En2
 BYTE   W01
 BYTE   W02
 BYTE   Cn3
 BYTE   W03
 BYTE   Bn2
 BYTE   W03
 BYTE   An2
 BYTE   W03
 BYTE   En2
 BYTE   W03
 BYTE   Cn3
 BYTE   W03
 BYTE   Bn2
 BYTE   W03
 BYTE   An2
 BYTE   W03
 BYTE   En2
 BYTE   W02
 BYTE   W01
 BYTE   Cn3
 BYTE   W03
 BYTE   Bn2
 BYTE   W03
 BYTE   An2
 BYTE   W03
 BYTE   En2
 BYTE   W03
 BYTE   Cn3
 BYTE   W03
 BYTE   Bn2
 BYTE   W03
 BYTE   An2
 BYTE   W03
 BYTE   En2
 BYTE   W02
 BYTE   W01
 BYTE   Cn3
 BYTE   W03
 BYTE   Bn2
 BYTE   W03
 BYTE   Cn3
 BYTE   W03
 BYTE   En3
 BYTE   W03
// 020   ----------------------------------------
 BYTE   Cn3
 BYTE   W03
 BYTE   Bn2
 BYTE   W03
 BYTE   An2
 BYTE   W03
 BYTE   En2
 BYTE   W02
 BYTE   W01
 BYTE   Cn3
 BYTE   W03
 BYTE   Bn2
 BYTE   W03
 BYTE   An2
 BYTE   W03
 BYTE   En2
 BYTE   W03
 BYTE   Cn3
 BYTE   W03
 BYTE   Bn2
 BYTE   W03
 BYTE   An2
 BYTE   W03
 BYTE   En2
 BYTE   W02
 BYTE   W01
 BYTE   Cn3
 BYTE   W03
 BYTE   Bn2
 BYTE   W03
 BYTE   An2
 BYTE   W03
 BYTE   En2
 BYTE   W03
 BYTE   Cn3
 BYTE   W03
 BYTE   Bn2
 BYTE   W03
 BYTE   An2
 BYTE   W03
 BYTE   En2
 BYTE   W03
 BYTE   Cn3
 BYTE   W03
 BYTE   Bn2
 BYTE   W03
 BYTE   An2
 BYTE   W03
 BYTE   En2
 BYTE   W03
 BYTE   Cn3
 BYTE   W03
 BYTE   Bn2
 BYTE   W03
 BYTE   An2
 BYTE   W03
 BYTE   En2
 BYTE   W03
 BYTE   Cn3
 BYTE   W03
 BYTE   Bn2
 BYTE   W03
 BYTE   An2
 BYTE   W03
 BYTE   En2
 BYTE   W03
// 021   ----------------------------------------
 BYTE   Cn3
 BYTE   W03
 BYTE   Bn2
 BYTE   W03
 BYTE   An2
 BYTE   W03
 BYTE   Fn2
 BYTE   W03
 BYTE   Cn3
 BYTE   W03
 BYTE   Bn2
 BYTE   W03
 BYTE   An2
 BYTE   W03
 BYTE   Fn2
 BYTE   W03
 BYTE   Cn3
 BYTE   W03
 BYTE   Bn2
 BYTE   W03
 BYTE   An2
 BYTE   W03
 BYTE   Fn2
 BYTE   W03
 BYTE   Cn3
 BYTE   W01
 BYTE   W02
 BYTE   Bn2
 BYTE   W03
 BYTE   An2
 BYTE   W03
 BYTE   Fn2
 BYTE   W03
 BYTE   Cn3
 BYTE   W03
 BYTE   Bn2
 BYTE   W03
 BYTE   An2
 BYTE   W03
 BYTE   Fn2
 BYTE   W03
 BYTE   Cn3
 BYTE   W01
 BYTE   W02
 BYTE   Bn2
 BYTE   W03
 BYTE   An2
 BYTE   W03
 BYTE   Fn2
 BYTE   W03
 BYTE   Cn3
 BYTE   W03
 BYTE   Bn2
 BYTE   W03
 BYTE   An2
 BYTE   W03
 BYTE   Fn2
 BYTE   W03
 BYTE   Cn3
 BYTE   W01
 BYTE   W02
 BYTE   Bn2
 BYTE   W03
 BYTE   An2
 BYTE   W03
 BYTE   Fn2
 BYTE   W03
// 022   ----------------------------------------
 BYTE   Dn3
 BYTE   W03
 BYTE   Cn3
 BYTE   W03
 BYTE   Bn2
 BYTE   W03
 BYTE   Gn2
 BYTE   W03
 BYTE   Dn3
 BYTE   W01
 BYTE   W02
 BYTE   Cn3
 BYTE   W03
 BYTE   Bn2
 BYTE   W03
 BYTE   Gn2
 BYTE   W03
 BYTE   Dn3
 BYTE   W03
 BYTE   Cn3
 BYTE   W03
 BYTE   Bn2
 BYTE   W03
 BYTE   Gn2
 BYTE   W03
 BYTE   Dn3
 BYTE   W02
 BYTE   W01
 BYTE   Cn3
 BYTE   W03
 BYTE   Bn2
 BYTE   W03
 BYTE   Gn2
 BYTE   W03
 BYTE   Dn3
 BYTE   W03
 BYTE   Cn3
 BYTE   W03
 BYTE   Bn2
 BYTE   W03
 BYTE   Gn2
 BYTE   W03
 BYTE   Dn3
 BYTE   W02
 BYTE   W01
 BYTE   Cn3
 BYTE   W03
 BYTE   Bn2
 BYTE   W03
 BYTE   Gn2
 BYTE   W03
 BYTE   Dn3
 BYTE   W03
 BYTE   Cn3
 BYTE   W03
 BYTE   Bn2
 BYTE   W03
 BYTE   Gn2
 BYTE   W03
 BYTE   Dn3
 BYTE   W02
 BYTE   W01
 BYTE   Cn3
 BYTE   W03
 BYTE   N06  Bn2
 BYTE   W06
// 023   ----------------------------------------
 BYTE   N03  Cn3
 BYTE   W03
 BYTE   Bn2
 BYTE   W03
 BYTE   An2
 BYTE   W03
 BYTE   En2
 BYTE   W03
 BYTE   Cn3
 BYTE   W03
 BYTE   Bn2
 BYTE   W03
 BYTE   An2
 BYTE   W03
 BYTE   En2
 BYTE   W03
 BYTE   Cn3
 BYTE   W03
 BYTE   Bn2
 BYTE   W03
 BYTE   An2
 BYTE   W03
 BYTE   En2
 BYTE   W03
 BYTE   Cn3
 BYTE   W03
 BYTE   Bn2
 BYTE   W03
 BYTE   An2
 BYTE   W03
 BYTE   En2
 BYTE   W03
 BYTE   Cn3
 BYTE   W03
 BYTE   Bn2
 BYTE   W03
 BYTE   An2
 BYTE   W03
 BYTE   En2
 BYTE   W03
 BYTE   Cn3
 BYTE   W03
 BYTE   Bn2
 BYTE   W03
 BYTE   An2
 BYTE   W03
 BYTE   En2
 BYTE   W03
 BYTE   Cn3
 BYTE   W03
 BYTE   Bn2
 BYTE   W03
 BYTE   An2
 BYTE   W03
 BYTE   En2
 BYTE   W03
 BYTE   Cn3
 BYTE   W03
 BYTE   Bn2
 BYTE   W03
 BYTE   Cn3
 BYTE   W03
 BYTE   En3
 BYTE   W03
// 024   ----------------------------------------
 BYTE   GoTo
  POIN2 Label_2_0187978F
 BYTE   FINE

//**************** Track 4 (Midi-Chn.3) ****************//

TalesOfSymphoniaFightingtheSpiritsPandan_004:
// 000   ----------------------------------------
 BYTE   KEYSH   TalesOfSymphoniaFightingtheSpiritsPandan_key+0
 BYTE   W24
 BYTE   VOICE   52
 BYTE   VOL   27*TalesOfSymphoniaFightingtheSpiritsPandan_mvl/mxv
 BYTE   PAN   c_v+4
 BYTE   W64
Label_3_01879D66:
 BYTE   W08
// 001   ----------------------------------------
 BYTE   W96
// 002   ----------------------------------------
 BYTE   W96
// 003   ----------------------------------------
Label_3_01879D69:
 BYTE   N18  En4  v116
 BYTE   W18
 BYTE   Dn4
 BYTE   W18
 BYTE   N48  Cn4  v112
 BYTE   W48
 BYTE   N12  An3  v108
 BYTE   W12
 BYTE   PEND 
// 004   ----------------------------------------
Label_3_01879D78:
 BYTE   N60  Fn3  v108
 BYTE   W36
 BYTE   W02
 BYTE   W02
 BYTE   W01
 BYTE   W02
 BYTE   W01
 BYTE   W02
 BYTE   W01
 BYTE   W02
 BYTE   W01
 BYTE   W02
 BYTE   W01
 BYTE   W02
 BYTE   W01
 BYTE   W02
 BYTE   W01
 BYTE   W01
 BYTE   N12  Gn3
 BYTE   W12
 BYTE   An3  v112
 BYTE   W12
 BYTE   Cn4
 BYTE   W12
 BYTE   PEND 
// 005   ----------------------------------------
Label_3_01879D95:
 BYTE   N24  En4  v116
 BYTE   W24
 BYTE   Dn4
 BYTE   W24
 BYTE   Bn3  v112
 BYTE   W24
 BYTE   Gn3
 BYTE   W24
 BYTE   PEND 
// 006   ----------------------------------------
Label_3_01879DA1:
 BYTE   N54  An3  v112
 BYTE   W36
 BYTE   W02
 BYTE   W01
 BYTE   W01
 BYTE   W01
 BYTE   W01
 BYTE   W02
 BYTE   W02
 BYTE   W01
 BYTE   W01
 BYTE   W01
 BYTE   W01
 BYTE   W02
 BYTE   W01
 BYTE   W01
 BYTE   N06  En3  v116
 BYTE   W06
 BYTE   Cn4  v120
 BYTE   W06
 BYTE   An3  v116
 BYTE   W06
 BYTE   En4  v120
 BYTE   W06
 BYTE   Cn4
 BYTE   W06
 BYTE   An3  v116
 BYTE   W06
 BYTE   En3
 BYTE   W06
 BYTE   PEND 
// 007   ----------------------------------------
Label_3_01879DC8:
 BYTE   N18  En4  v116
 BYTE   W18
 BYTE   Dn4  v112
 BYTE   W18
 BYTE   N48  Cn4
 BYTE   W48
 BYTE   N12  An3  v108
 BYTE   W12
 BYTE   PEND 
// 008   ----------------------------------------
Label_3_01879DD7:
 BYTE   N24  Fn3  v108
 BYTE   W24
 BYTE   An3  v112
 BYTE   W24
 BYTE   Cn4  v108
 BYTE   W24
 BYTE   Fn4  v112
 BYTE   W24
 BYTE   PEND 
// 009   ----------------------------------------
Label_3_01879DE5:
 BYTE   N24  En4  v116
 BYTE   W24
 BYTE   Dn4  v112
 BYTE   W24
 BYTE   Bn3
 BYTE   W24
 BYTE   Gn3  v108
 BYTE   W24
 BYTE   PEND 
// 010   ----------------------------------------
Label_3_01879DF2:
 BYTE   N54  An3  v112
 BYTE   W36
 BYTE   W02
 BYTE   W01
 BYTE   W01
 BYTE   W01
 BYTE   W01
 BYTE   W02
 BYTE   W02
 BYTE   W01
 BYTE   W01
 BYTE   W01
 BYTE   W01
 BYTE   W02
 BYTE   W01
 BYTE   W01
 BYTE   N06  En3
 BYTE   W06
 BYTE   Cn4  v120
 BYTE   W06
 BYTE   An3  v116
 BYTE   W06
 BYTE   En4
 BYTE   W06
 BYTE   Cn4  v120
 BYTE   W06
 BYTE   An3
 BYTE   W06
 BYTE   En3  v116
 BYTE   W06
 BYTE   PEND 
// 011   ----------------------------------------
Label_3_01879E18:
 BYTE   N72  Fn3  v112
 BYTE   W48
 BYTE   W01
 BYTE   W01
 BYTE   W01
 BYTE   W01
 BYTE   W01
 BYTE   W01
 BYTE   W01
 BYTE   W01
 BYTE   W01
 BYTE   W01
 BYTE   W01
 BYTE   W01
 BYTE   W01
 BYTE   W01
 BYTE   W01
 BYTE   W01
 BYTE   W01
 BYTE   W01
 BYTE   W01
 BYTE   W01
 BYTE   W01
 BYTE   W01
 BYTE   W01
 BYTE   W01
 BYTE   N12  Gn3  v104
 BYTE   W12
 BYTE   An3  v112
 BYTE   W12
 BYTE   PEND 
// 012   ----------------------------------------
Label_3_01879E3C:
 BYTE   N48  Gn3  v108
 BYTE   W36
 BYTE   W01
 BYTE   W01
 BYTE   W01
 BYTE   W01
 BYTE   W01
 BYTE   W01
 BYTE   W01
 BYTE   W01
 BYTE   W01
 BYTE   W01
 BYTE   W01
 BYTE   W01
 BYTE   N24  An3
 BYTE   W24
 BYTE   Bn3
 BYTE   W24
 BYTE   PEND 
// 013   ----------------------------------------
Label_3_01879E52:
 BYTE   N48  An3  v116
 BYTE   W36
 BYTE   W01
 BYTE   W01
 BYTE   W01
 BYTE   W01
 BYTE   W01
 BYTE   W01
 BYTE   W01
 BYTE   W01
 BYTE   W01
 BYTE   W01
 BYTE   W01
 BYTE   W01
 BYTE   N18  Fn3  v096
 BYTE   W18
 BYTE   Gn3  v108
 BYTE   W18
 BYTE   N12  An3  v116
 BYTE   W12
 BYTE   PEND 
// 014   ----------------------------------------
Label_3_01879E6E:
 BYTE   N36  Gn3  v116
 BYTE   W36
 BYTE   N06  Bn3  v108
 BYTE   W12
 BYTE   N18  Dn4  v116
 BYTE   W18
 BYTE   Cn4  v112
 BYTE   W18
 BYTE   N12  Bn3  v104
 BYTE   W12
 BYTE   PEND 
// 015   ----------------------------------------
Label_3_01879E82:
 BYTE   N24  Fn3  v104
 BYTE   W24
 BYTE   N06
 BYTE   W06
 BYTE   Gn3  v108
 BYTE   W06
 BYTE   An3  v112
 BYTE   W06
 BYTE   N12  Bn3
 BYTE   W12
 BYTE   N06  Bn3  v116
 BYTE   W06
 BYTE   N12  An3
 BYTE   W12
 BYTE   Gn3  v112
 BYTE   W12
 BYTE   Fn3
 BYTE   W12
 BYTE   PEND 
// 016   ----------------------------------------
Label_3_01879E9E:
 BYTE   N24  Fn3  v104
 BYTE   W24
 BYTE   N06  Fn3  v108
 BYTE   W06
 BYTE   Gn3  v112
 BYTE   W06
 BYTE   An3
 BYTE   W06
 BYTE   N12  Bn3
 BYTE   W12
 BYTE   N06  Bn3  v116
 BYTE   W06
 BYTE   N12  An3
 BYTE   W12
 BYTE   Gn3  v112
 BYTE   W12
 BYTE   Fn3  v108
 BYTE   W12
 BYTE   PEND 
// 017   ----------------------------------------
Label_3_01879EBC:
 BYTE   N24  Fn3  v104
 BYTE   W24
 BYTE   N06
 BYTE   W06
 BYTE   Gn3  v112
 BYTE   W06
 BYTE   An3  v116
 BYTE   W06
 BYTE   N12  En4
 BYTE   W12
 BYTE   N06  En4  v120
 BYTE   W06
 BYTE   N12  Dn4
 BYTE   W12
 BYTE   Gn4
 BYTE   W12
 BYTE   Fn4
 BYTE   W12
 BYTE   PEND 
// 018   ----------------------------------------
Label_3_01879ED7:
 BYTE   N12  En4  v120
 BYTE   W12
 BYTE   Bn3  v116
 BYTE   W12
 BYTE   En4  v120
 BYTE   W12
 BYTE   Gs4
 BYTE   W12
 BYTE   Bn4
 BYTE   W12
 BYTE   Gs4  v124
 BYTE   W12
 BYTE   En4
 BYTE   W12
 BYTE   Bn4
 BYTE   W12
 BYTE   PEND 
// 019   ----------------------------------------
Label_3_01879EED:
 BYTE   N24  En4  v116
 BYTE   W24
 BYTE   Dn4  v112
 BYTE   W24
 BYTE   Cn4
 BYTE   W24
 BYTE   Bn3  v108
 BYTE   W24
 BYTE   PEND 
// 020   ----------------------------------------
Label_3_01879EFA:
 BYTE   N24  An3  v104
 BYTE   W24
 BYTE   Bn3  v108
 BYTE   W24
 BYTE   Cn4
 BYTE   W24
 BYTE   En4  v112
 BYTE   W12
 BYTE   W01
 BYTE   W01
 BYTE   W01
 BYTE   W01
 BYTE   W01
 BYTE   W01
 BYTE   W01
 BYTE   W01
 BYTE   W01
 BYTE   W01
 BYTE   W01
 BYTE   W01
 BYTE   PEND 
// 021   ----------------------------------------
Label_3_01879F13:
 BYTE   N24  Dn4  v108
 BYTE   W24
 BYTE   Bn3
 BYTE   W24
 BYTE   Gn3
 BYTE   W24
 BYTE   Bn3  v104
 BYTE   W24
 BYTE   PEND 
// 022   ----------------------------------------
Label_3_01879F1F:
 BYTE   N24  An3  v108
 BYTE   W24
 BYTE   En3  v100
 BYTE   W24
 BYTE   An3  v108
 BYTE   W24
 BYTE   Cn4  v112
 BYTE   W12
 BYTE   W01
 BYTE   W01
 BYTE   W01
 BYTE   W01
 BYTE   W01
 BYTE   W01
 BYTE   W01
 BYTE   W01
 BYTE   W01
 BYTE   W01
 BYTE   W01
 BYTE   W01
 BYTE   PEND 
// 023   ----------------------------------------
Label_3_01879F39:
 BYTE   N24  En4  v116
 BYTE   W24
 BYTE   Dn4  v108
 BYTE   W24
 BYTE   Cn4
 BYTE   W24
 BYTE   Bn3
 BYTE   W24
 BYTE   PEND 
// 024   ----------------------------------------
Label_3_01879F45:
 BYTE   N24  An3  v108
 BYTE   W24
 BYTE   Bn3
 BYTE   W24
 BYTE   Cn4
 BYTE   W24
 BYTE   En4  v112
 BYTE   W12
 BYTE   W01
 BYTE   W01
 BYTE   W01
 BYTE   W01
 BYTE   W01
 BYTE   W01
 BYTE   W01
 BYTE   W01
 BYTE   W01
 BYTE   W01
 BYTE   W01
 BYTE   W01
 BYTE   PEND 
// 025   ----------------------------------------
Label_3_01879F5D:
 BYTE   N24  Dn4  v112
 BYTE   W24
 BYTE   Bn3
 BYTE   W24
 BYTE   Gn3  v108
 BYTE   W24
 BYTE   Bn3
 BYTE   W24
 BYTE   PEND 
// 026   ----------------------------------------
Label_3_01879F69:
 BYTE   TIE  Cn4  v112
 BYTE   W72
 BYTE   W01
 BYTE   W01
 BYTE   W01
 BYTE   W01
 BYTE   W01
 BYTE   W01
 BYTE   W01
 BYTE   W01
 BYTE   W01
 BYTE   W01
 BYTE   W01
 BYTE   W01
 BYTE   W01
 BYTE   W01
 BYTE   W01
 BYTE   W01
 BYTE   W01
 BYTE   W01
 BYTE   W01
 BYTE   W01
 BYTE   W01
 BYTE   W01
 BYTE   W01
 BYTE   W01
 BYTE   PEND 
// 027   ----------------------------------------
Label_3_01879F86:
 BYTE   W01
 BYTE   W01
 BYTE   W01
 BYTE   W01
 BYTE   W01
 BYTE   W01
 BYTE   W01
 BYTE   W01
 BYTE   W01
 BYTE   W01
 BYTE   W01
 BYTE   W01
 BYTE   W01
 BYTE   W01
 BYTE   W01
 BYTE   W01
 BYTE   W01
 BYTE   W01
 BYTE   W01
 BYTE   W01
 BYTE   W01
 BYTE   W01
 BYTE   W01
 BYTE   W01
 BYTE   PEND 
 BYTE   EOT
 BYTE   Cn4
 BYTE   W72
// 028   ----------------------------------------
 BYTE   W96
// 029   ----------------------------------------
 BYTE   W96
// 030   ----------------------------------------
 BYTE   W96
// 031   ----------------------------------------
Label_3_01879FA5:
 BYTE   N84  An2  v108
 BYTE   W72
 BYTE   W01
 BYTE   W01
 BYTE   W01
 BYTE   W01
 BYTE   W01
 BYTE   W01
 BYTE   W01
 BYTE   W01
 BYTE   W01
 BYTE   W01
 BYTE   W01
 BYTE   W01
 BYTE   N12  En3  v112
 BYTE   W12
 BYTE   PEND 
// 032   ----------------------------------------
Label_3_01879FBA:
 BYTE   N48  Fn2  v108
 BYTE   W36
 BYTE   W01
 BYTE   W01
 BYTE   W01
 BYTE   W01
 BYTE   W01
 BYTE   W01
 BYTE   W01
 BYTE   W01
 BYTE   W01
 BYTE   W01
 BYTE   W01
 BYTE   W01
 BYTE   N24  En3  v116
 BYTE   W24
 BYTE   Dn3  v112
 BYTE   W24
 BYTE   PEND 
// 033   ----------------------------------------
Label_3_01879FD2:
 BYTE   N48  Gn2  v108
 BYTE   W36
 BYTE   W01
 BYTE   W01
 BYTE   W01
 BYTE   W01
 BYTE   W01
 BYTE   W01
 BYTE   W01
 BYTE   W01
 BYTE   W01
 BYTE   W01
 BYTE   W01
 BYTE   W01
 BYTE   N24  Cn3
 BYTE   W24
 BYTE   Dn3  v112
 BYTE   W24
 BYTE   PEND 
// 034   ----------------------------------------
 BYTE   N54  An2
 BYTE   W42
 BYTE   W01
 BYTE   W01
 BYTE   W01
 BYTE   W01
 BYTE   W01
 BYTE   W01
 BYTE   W01
 BYTE   W01
 BYTE   W01
 BYTE   W01
 BYTE   W01
 BYTE   W01
 BYTE   N06  An3  v116
 BYTE   W06
 BYTE   En3  v112
 BYTE   W06
 BYTE   An2
 BYTE   W06
 BYTE   En3
 BYTE   W06
 BYTE   Cn3
 BYTE   W06
 BYTE   An2  v108
 BYTE   W06
 BYTE   En2
 BYTE   W06
 BYTE   PATT
  POIN2 Label_3_01879D69
 BYTE   PATT
  POIN2 Label_3_01879D78
 BYTE   PATT
  POIN2 Label_3_01879D95
 BYTE   PATT
  POIN2 Label_3_01879DA1
 BYTE   PATT
  POIN2 Label_3_01879DC8
 BYTE   PATT
  POIN2 Label_3_01879DD7
 BYTE   PATT
  POIN2 Label_3_01879DE5
 BYTE   PATT
  POIN2 Label_3_01879DF2
 BYTE   PATT
  POIN2 Label_3_01879E18
 BYTE   PATT
  POIN2 Label_3_01879E3C
 BYTE   PATT
  POIN2 Label_3_01879E52
 BYTE   PATT
  POIN2 Label_3_01879E6E
 BYTE   PATT
  POIN2 Label_3_01879E82
 BYTE   PATT
  POIN2 Label_3_01879E9E
 BYTE   PATT
  POIN2 Label_3_01879EBC
 BYTE   PATT
  POIN2 Label_3_01879ED7
 BYTE   PATT
  POIN2 Label_3_01879EED
 BYTE   PATT
  POIN2 Label_3_01879EFA
 BYTE   PATT
  POIN2 Label_3_01879F13
 BYTE   PATT
  POIN2 Label_3_01879F1F
 BYTE   PATT
  POIN2 Label_3_01879F39
 BYTE   PATT
  POIN2 Label_3_01879F45
 BYTE   PATT
  POIN2 Label_3_01879F5D
 BYTE   PATT
  POIN2 Label_3_01879F69
 BYTE   PATT
  POIN2 Label_3_01879F86
// 035   ----------------------------------------
 BYTE   EOT
 BYTE   Cn4
 BYTE   W72
 BYTE   W96
// 036   ----------------------------------------
 BYTE   W96
// 037   ----------------------------------------
 BYTE   W96
 BYTE   PATT
  POIN2 Label_3_01879FA5
 BYTE   PATT
  POIN2 Label_3_01879FBA
 BYTE   PATT
  POIN2 Label_3_01879FD2
// 038   ----------------------------------------
 BYTE   N84  An2  v112
 BYTE   W42
 BYTE   W01
 BYTE   W01
 BYTE   W01
 BYTE   W01
 BYTE   W01
 BYTE   W01
 BYTE   W01
 BYTE   W01
 BYTE   W01
 BYTE   W01
 BYTE   W01
 BYTE   W01
 BYTE   W42
// 039   ----------------------------------------
 BYTE   An2  v108
 BYTE   W07
 BYTE   W24
 BYTE   W24
 BYTE   W24
 BYTE   W05
 BYTE   N12  En3  v112
 BYTE   W12
// 040   ----------------------------------------
 BYTE   N48  Fn2  v108
 BYTE   W08
 BYTE   W24
 BYTE   W16
 BYTE   N24  En3  v116
 BYTE   W08
 BYTE   W16
 BYTE   Dn3  v112
 BYTE   W09
 BYTE   W15
// 041   ----------------------------------------
 BYTE   N48  Gn2  v108
 BYTE   W09
 BYTE   W24
 BYTE   W15
 BYTE   N24  Cn3
 BYTE   W09
 BYTE   W15
 BYTE   Dn3  v112
 BYTE   W10
 BYTE   W14
// 042   ----------------------------------------
 BYTE   N84  An2
 BYTE   W10
 BYTE   W24
 BYTE   W24
 BYTE   W01
 BYTE   W24
 BYTE   W13
// 043   ----------------------------------------
 BYTE   An2  v108
 BYTE   W11
 BYTE   W24
 BYTE   W24
 BYTE   W01
 BYTE   W24
 BYTE   N12  En3  v112
 BYTE   W12
// 044   ----------------------------------------
 BYTE   N48  Fn2  v108
 BYTE   W12
 BYTE   W24
 BYTE   W01
 BYTE   W11
 BYTE   N24  En3  v116
 BYTE   W13
 BYTE   W11
 BYTE   Dn3  v112
 BYTE   W13
 BYTE   W11
// 045   ----------------------------------------
 BYTE   N48  Gn2  v108
 BYTE   W13
 BYTE   W24
 BYTE   W01
 BYTE   W10
 BYTE   N24  Cn3
 BYTE   W14
 BYTE   W10
 BYTE   Dn3  v112
 BYTE   W14
 BYTE   W10
// 046   ----------------------------------------
 BYTE   N84  An2
 BYTE   W15
 BYTE   W24
 BYTE   W24
 BYTE   W24
 BYTE   W06
 BYTE   W03
// 047   ----------------------------------------
 BYTE   GoTo
  POIN2 Label_3_01879D66
 BYTE   FINE

//**************** Track 5 (Midi-Chn.4) ****************//

TalesOfSymphoniaFightingtheSpiritsPandan_005:
// 000   ----------------------------------------
 BYTE   KEYSH   TalesOfSymphoniaFightingtheSpiritsPandan_key+0
 BYTE   W24
 BYTE   VOICE   123
 BYTE   VOL   82*TalesOfSymphoniaFightingtheSpiritsPandan_mvl/mxv
 BYTE   PAN   c_v+0
 BYTE   W01
 BYTE   W01
 BYTE   W01
 BYTE   W01
 BYTE   W01
 BYTE   W01
 BYTE   W01
 BYTE   W01
 BYTE   W01
 BYTE   W01
 BYTE   W01
 BYTE   W01
 BYTE   W01
 BYTE   W02
 BYTE   W48
 BYTE   W01
Label_4_0187A131:
 BYTE   W08
// 001   ----------------------------------------
 BYTE   N02  Cn1  v104
 BYTE   N02  Cs2  v096
 BYTE   W24
 BYTE   Cn1  v108
 BYTE   W24
 BYTE   Cn1  v116
 BYTE   W24
 BYTE   Cn1  v120
 BYTE   W24
// 002   ----------------------------------------
 BYTE   Dn1  v108
 BYTE   N02  Cs2  v104
 BYTE   W06
 BYTE   Cn1  v116
 BYTE   W06
 BYTE   Cn1  v120
 BYTE   W06
 BYTE   Dn1  v112
 BYTE   W06
 BYTE   Cn1  v116
 BYTE   W06
 BYTE   Cn1  v120
 BYTE   W06
 BYTE   Dn1  v116
 BYTE   W06
 BYTE   Cn1  v120
 BYTE   W06
 BYTE   Dn1  v108
 BYTE   W06
 BYTE   Dn1  v112
 BYTE   W06
 BYTE   N02
 BYTE   W06
 BYTE   Dn1  v116
 BYTE   W06
 BYTE   N02
 BYTE   W06
 BYTE   Dn1  v120
 BYTE   W06
 BYTE   N02
 BYTE   W06
 BYTE   Dn1  v124
 BYTE   W06
// 003   ----------------------------------------
Label_4_0187A172:
 BYTE   N02  Cn1  v120
 BYTE   N02  Cs2  v108
 BYTE   W12
 BYTE   Dn1  v116
 BYTE   N02  Fs1  v092
 BYTE   W06
 BYTE   Fs1  v088
 BYTE   W06
 BYTE   Cn1  v120
 BYTE   N02  Fs1  v088
 BYTE   W06
 BYTE   Cn1  v120
 BYTE   N02  Fs1  v088
 BYTE   W06
 BYTE   Dn1  v120
 BYTE   N02  Fs1  v088
 BYTE   W06
 BYTE   Cn1  v120
 BYTE   N02  Fs1  v088
 BYTE   W06
 BYTE   Fs1  v092
 BYTE   W06
 BYTE   Cn1  v120
 BYTE   N02  Fs1  v092
 BYTE   W06
 BYTE   Dn1  v120
 BYTE   N02  Fs1  v092
 BYTE   W06
 BYTE   N02
 BYTE   W06
 BYTE   Cn1  v120
 BYTE   N02  Fs1  v088
 BYTE   W06
 BYTE   Cn1  v120
 BYTE   N02  Fs1  v088
 BYTE   W06
 BYTE   Dn1  v124
 BYTE   N02  Fs1  v088
 BYTE   W06
 BYTE   N02
 BYTE   W06
 BYTE   PEND 
// 004   ----------------------------------------
Label_4_0187A1C0:
 BYTE   N02  Cn1  v120
 BYTE   N02  Fs1  v088
 BYTE   W06
 BYTE   N02
 BYTE   W06
 BYTE   Dn1  v120
 BYTE   N02  Fs1  v088
 BYTE   W06
 BYTE   N02
 BYTE   W06
 BYTE   Cn1  v120
 BYTE   N02  Fs1  v088
 BYTE   W06
 BYTE   Cn1  v120
 BYTE   N02  Fs1  v088
 BYTE   W06
 BYTE   Dn1  v124
 BYTE   N02  Fs1  v088
 BYTE   W06
 BYTE   Cn1  v120
 BYTE   N02  Fs1  v088
 BYTE   W06
 BYTE   N02
 BYTE   W06
 BYTE   Cn1  v120
 BYTE   N02  Fs1  v088
 BYTE   W06
 BYTE   Dn1  v120
 BYTE   N02  Fs1  v088
 BYTE   W06
 BYTE   N02
 BYTE   W06
 BYTE   Cn1  v116
 BYTE   N02  Fs1  v088
 BYTE   W06
 BYTE   Cn1  v120
 BYTE   N02  Fs1  v088
 BYTE   W06
 BYTE   Dn1  v120
 BYTE   N02  Fs1  v088
 BYTE   W06
 BYTE   N02
 BYTE   W06
 BYTE   PEND 
// 005   ----------------------------------------
Label_4_0187A20E:
 BYTE   N02  Cn1  v124
 BYTE   N02  Fs1  v088
 BYTE   W06
 BYTE   N02
 BYTE   W06
 BYTE   Dn1  v120
 BYTE   N02  Fs1  v088
 BYTE   W06
 BYTE   N02
 BYTE   W06
 BYTE   Cn1  v120
 BYTE   N02  Fs1  v088
 BYTE   W06
 BYTE   Cn1  v120
 BYTE   N02  Fs1  v088
 BYTE   W06
 BYTE   Dn1  v120
 BYTE   N02  Fs1  v088
 BYTE   W06
 BYTE   Cn1  v120
 BYTE   N02  Fs1  v088
 BYTE   W06
 BYTE   N02
 BYTE   W06
 BYTE   Cn1  v120
 BYTE   N02  Fs1  v092
 BYTE   W06
 BYTE   Dn1  v120
 BYTE   N02  Fs1  v092
 BYTE   W06
 BYTE   N02
 BYTE   W06
 BYTE   Cn1  v120
 BYTE   N02  Fs1  v092
 BYTE   W06
 BYTE   Cn1  v124
 BYTE   N02  Fs1  v092
 BYTE   W06
 BYTE   Dn1  v124
 BYTE   N02  Fs1  v092
 BYTE   W06
 BYTE   N02
 BYTE   W06
 BYTE   PEND 
// 006   ----------------------------------------
Label_4_0187A25C:
 BYTE   N02  Cn1  v120
 BYTE   N02  Fs1  v092
 BYTE   W06
 BYTE   Fs1  v088
 BYTE   W06
 BYTE   Dn1  v120
 BYTE   N02  Fs1  v088
 BYTE   W06
 BYTE   N02
 BYTE   W06
 BYTE   Cn1  v120
 BYTE   N02  Fs1  v088
 BYTE   W06
 BYTE   Cn1  v124
 BYTE   N02  Fs1  v088
 BYTE   W06
 BYTE   Dn1  v124
 BYTE   N02  Fs1  v088
 BYTE   W06
 BYTE   Cn1  v124
 BYTE   N02  Fs1  v088
 BYTE   W06
 BYTE   N02
 BYTE   W06
 BYTE   Cn1  v120
 BYTE   N02  Fs1  v088
 BYTE   W06
 BYTE   Dn1  v124
 BYTE   N02  Fs1  v088
 BYTE   W06
 BYTE   N02
 BYTE   W06
 BYTE   Cn1  v120
 BYTE   N02  Fs1  v088
 BYTE   W06
 BYTE   Dn1  v124
 BYTE   N02  Fs1  v088
 BYTE   W06
 BYTE   Dn1  v127
 BYTE   W06
 BYTE   N02
 BYTE   N02  Fs1  v088
 BYTE   W06
 BYTE   PEND 
// 007   ----------------------------------------
Label_4_0187A2AB:
 BYTE   N02  Cs2  v104
 BYTE   W12
 BYTE   Dn1  v120
 BYTE   N02  Fs1  v088
 BYTE   W06
 BYTE   Fs1  v092
 BYTE   W06
 BYTE   Cn1  v124
 BYTE   N02  Fs1  v092
 BYTE   W06
 BYTE   Cn1  v124
 BYTE   N02  Fs1  v092
 BYTE   W06
 BYTE   Dn1  v124
 BYTE   N02  Fs1  v092
 BYTE   W06
 BYTE   Cn1  v124
 BYTE   N02  Fs1  v092
 BYTE   W06
 BYTE   N02
 BYTE   W06
 BYTE   Cn1  v124
 BYTE   N02  Fs1  v092
 BYTE   W06
 BYTE   Dn1  v120
 BYTE   N02  Fs1  v088
 BYTE   W06
 BYTE   N02
 BYTE   W06
 BYTE   Cn1  v124
 BYTE   N02  Fs1  v088
 BYTE   W06
 BYTE   Cn1  v124
 BYTE   N02  Fs1  v088
 BYTE   W06
 BYTE   Dn1  v127
 BYTE   N02  Fs1  v088
 BYTE   W06
 BYTE   N02
 BYTE   W06
 BYTE   PEND 
// 008   ----------------------------------------
Label_4_0187A2F5:
 BYTE   N02  Cn1  v124
 BYTE   N02  Fs1  v088
 BYTE   W06
 BYTE   N02
 BYTE   W06
 BYTE   Dn1  v120
 BYTE   N02  Fs1  v088
 BYTE   W06
 BYTE   N02
 BYTE   W06
 BYTE   Cn1  v124
 BYTE   N02  Fs1  v088
 BYTE   W06
 BYTE   Cn1  v124
 BYTE   N02  Fs1  v088
 BYTE   W06
 BYTE   Dn1  v127
 BYTE   N02  Fs1  v088
 BYTE   W06
 BYTE   Cn1  v124
 BYTE   N02  Fs1  v088
 BYTE   W06
 BYTE   N02
 BYTE   W06
 BYTE   Cn1  v124
 BYTE   N02  Fs1  v088
 BYTE   W06
 BYTE   Dn1  v120
 BYTE   N02  Fs1  v088
 BYTE   W06
 BYTE   N02
 BYTE   W06
 BYTE   Cn1  v124
 BYTE   N02  Fs1  v088
 BYTE   W06
 BYTE   Cn1  v124
 BYTE   N02  Fs1  v088
 BYTE   W06
 BYTE   Dn1  v124
 BYTE   N02  Fs1  v088
 BYTE   W06
 BYTE   N02
 BYTE   W06
 BYTE   PEND 
// 009   ----------------------------------------
Label_4_0187A343:
 BYTE   N02  Cn1  v124
 BYTE   N02  Fs1  v088
 BYTE   W06
 BYTE   N02
 BYTE   W06
 BYTE   Dn1  v120
 BYTE   N02  Fs1  v092
 BYTE   W06
 BYTE   N02
 BYTE   W06
 BYTE   Cn1  v124
 BYTE   N02  Fs1  v092
 BYTE   W06
 BYTE   Cn1  v124
 BYTE   N02  Fs1  v092
 BYTE   W06
 BYTE   Dn1  v124
 BYTE   N02  Fs1  v092
 BYTE   W06
 BYTE   Cn1  v124
 BYTE   N02  Fs1  v092
 BYTE   W06
 BYTE   N02
 BYTE   W06
 BYTE   Cn1  v124
 BYTE   N02  Fs1  v092
 BYTE   W06
 BYTE   Dn1  v116
 BYTE   N02  Fs1  v092
 BYTE   W06
 BYTE   N02
 BYTE   W06
 BYTE   Cn1  v124
 BYTE   N02  Fs1  v092
 BYTE   W06
 BYTE   Cn1  v124
 BYTE   N02  Fs1  v092
 BYTE   W06
 BYTE   Dn1  v120
 BYTE   N02  Fs1  v092
 BYTE   W06
 BYTE   N02
 BYTE   W06
 BYTE   PEND 
// 010   ----------------------------------------
Label_4_0187A391:
 BYTE   N02  Cn1  v124
 BYTE   N02  Fs1  v092
 BYTE   W06
 BYTE   N02
 BYTE   W06
 BYTE   Dn1  v120
 BYTE   N02  Fs1  v088
 BYTE   W06
 BYTE   N02
 BYTE   W06
 BYTE   Cn1  v124
 BYTE   N02  Fs1  v088
 BYTE   W06
 BYTE   Cn1  v124
 BYTE   N02  Fs1  v088
 BYTE   W06
 BYTE   Dn1  v124
 BYTE   N02  Fs1  v088
 BYTE   W06
 BYTE   Fs1  v092
 BYTE   W06
 BYTE   N02
 BYTE   W06
 BYTE   Dn1  v124
 BYTE   N02  Fs1  v092
 BYTE   W06
 BYTE   N02
 BYTE   W06
 BYTE   Cn1  v120
 BYTE   N02  Fs1  v092
 BYTE   W06
 BYTE   Dn1  v124
 BYTE   N02  Fs1  v092
 BYTE   W06
 BYTE   N02
 BYTE   W06
 BYTE   Dn1  v120
 BYTE   N02  Fs1  v092
 BYTE   W06
 BYTE   Dn1  v124
 BYTE   N02  Fs1  v092
 BYTE   W06
 BYTE   PEND 
// 011   ----------------------------------------
Label_4_0187A3DC:
 BYTE   N02  Cn1  v120
 BYTE   N02  Cs2  v104
 BYTE   W12
 BYTE   Dn1  v120
 BYTE   N02  Fs1  v092
 BYTE   W06
 BYTE   Cn1  v120
 BYTE   W06
 BYTE   Fs1  v092
 BYTE   W12
 BYTE   Dn1  v120
 BYTE   N02  Fs1  v092
 BYTE   W12
 BYTE   Cn1  v124
 BYTE   N02  Fs1  v092
 BYTE   W12
 BYTE   Dn1  v120
 BYTE   N02  Fs1  v088
 BYTE   W06
 BYTE   Cn1  v124
 BYTE   W06
 BYTE   Fs1  v088
 BYTE   W12
 BYTE   Dn1  v124
 BYTE   W12
 BYTE   PEND 
// 012   ----------------------------------------
Label_4_0187A40B:
 BYTE   N02  Cn1  v120
 BYTE   W12
 BYTE   Dn1
 BYTE   N02  Fs1  v088
 BYTE   W06
 BYTE   Cn1  v124
 BYTE   W06
 BYTE   Fs1  v088
 BYTE   W12
 BYTE   Dn1  v124
 BYTE   N02  Fs1  v088
 BYTE   W12
 BYTE   Cn1  v124
 BYTE   N02  Fs1  v088
 BYTE   W12
 BYTE   Dn1  v124
 BYTE   N02  Fs1  v088
 BYTE   W06
 BYTE   Cn1  v120
 BYTE   W06
 BYTE   Fs1  v088
 BYTE   W12
 BYTE   Dn1  v124
 BYTE   N02  Fs1  v088
 BYTE   W12
 BYTE   PEND 
// 013   ----------------------------------------
Label_4_0187A439:
 BYTE   N02  Cn1  v120
 BYTE   N02  Fs1  v088
 BYTE   W12
 BYTE   Dn1  v120
 BYTE   N02  Fs1  v088
 BYTE   W06
 BYTE   Cn1  v120
 BYTE   W06
 BYTE   Fs1  v092
 BYTE   W12
 BYTE   Dn1  v124
 BYTE   N02  Fs1  v092
 BYTE   W12
 BYTE   Cn1  v124
 BYTE   N02  Fs1  v092
 BYTE   W12
 BYTE   Dn1  v120
 BYTE   N02  Fs1  v092
 BYTE   W06
 BYTE   Cn1  v124
 BYTE   W06
 BYTE   Fs1  v092
 BYTE   W12
 BYTE   Dn1  v124
 BYTE   N02  Fs1  v092
 BYTE   W12
 BYTE   PEND 
// 014   ----------------------------------------
Label_4_0187A46B:
 BYTE   N02  Cn1  v120
 BYTE   N02  Fs1  v092
 BYTE   W12
 BYTE   Dn1  v120
 BYTE   N02  Fs1  v092
 BYTE   W06
 BYTE   Cn1  v120
 BYTE   W06
 BYTE   Fs1  v092
 BYTE   W12
 BYTE   Dn1  v124
 BYTE   N02  Fs1  v092
 BYTE   W12
 BYTE   Cn1  v120
 BYTE   N02  Fs1  v088
 BYTE   W12
 BYTE   Dn1  v120
 BYTE   N02  Fs1  v088
 BYTE   W06
 BYTE   Cn1  v124
 BYTE   W06
 BYTE   Fs1  v088
 BYTE   W06
 BYTE   Dn1  v120
 BYTE   W06
 BYTE   Fs1  v088
 BYTE   W06
 BYTE   Dn1  v124
 BYTE   W06
 BYTE   PEND 
// 015   ----------------------------------------
Label_4_0187A4A0:
 BYTE   N02  Cn1  v120
 BYTE   N02  Cs2  v104
 BYTE   W12
 BYTE   Dn1  v120
 BYTE   N02  Fs1  v092
 BYTE   W12
 BYTE   Cn1  v120
 BYTE   N02  Fs1  v092
 BYTE   W06
 BYTE   Cn1  v124
 BYTE   W06
 BYTE   Dn1
 BYTE   N02  Fs1  v088
 BYTE   W12
 BYTE   Cn1  v120
 BYTE   N02  Fs1  v088
 BYTE   W12
 BYTE   Dn1  v120
 BYTE   N02  Fs1  v088
 BYTE   W12
 BYTE   Cn1  v124
 BYTE   N02  Fs1  v092
 BYTE   W06
 BYTE   Cn1  v124
 BYTE   W06
 BYTE   Dn1
 BYTE   N02  Fs1  v092
 BYTE   W12
 BYTE   PEND 
// 016   ----------------------------------------
Label_4_0187A4D6:
 BYTE   N02  Cn1  v120
 BYTE   W12
 BYTE   Dn1
 BYTE   N02  Fs1  v092
 BYTE   W12
 BYTE   Cn1  v124
 BYTE   N02  Fs1  v092
 BYTE   W06
 BYTE   Cn1  v124
 BYTE   W06
 BYTE   Dn1
 BYTE   N02  Fs1  v092
 BYTE   W06
 BYTE   Cn1  v124
 BYTE   W06
 BYTE   Fs1  v092
 BYTE   W06
 BYTE   Cn1  v124
 BYTE   W06
 BYTE   Dn1  v120
 BYTE   N02  Fs1  v092
 BYTE   W12
 BYTE   Cn1  v120
 BYTE   N02  Fs1  v088
 BYTE   W06
 BYTE   Cn1  v124
 BYTE   W06
 BYTE   Dn1
 BYTE   N02  Fs1  v088
 BYTE   W12
 BYTE   PEND 
// 017   ----------------------------------------
Label_4_0187A50B:
 BYTE   N02  Cn1  v120
 BYTE   N02  Fs1  v088
 BYTE   W12
 BYTE   Dn1  v120
 BYTE   N02  Fs1  v088
 BYTE   W12
 BYTE   Cn1  v120
 BYTE   N02  Fs1  v088
 BYTE   W06
 BYTE   Cn1  v120
 BYTE   W06
 BYTE   Dn1  v124
 BYTE   N02  Fs1  v088
 BYTE   W12
 BYTE   Cn1  v124
 BYTE   N02  Fs1  v088
 BYTE   W12
 BYTE   Dn1  v120
 BYTE   N02  Fs1  v088
 BYTE   W12
 BYTE   Cn1  v124
 BYTE   N02  Fs1  v088
 BYTE   W06
 BYTE   Cn1  v124
 BYTE   W06
 BYTE   Dn1
 BYTE   N02  Fs1  v088
 BYTE   W12
 BYTE   PEND 
// 018   ----------------------------------------
Label_4_0187A542:
 BYTE   N02  Cn1  v124
 BYTE   N02  Fs1  v088
 BYTE   W12
 BYTE   Dn1  v120
 BYTE   N02  Fs1  v088
 BYTE   W12
 BYTE   Cn1  v124
 BYTE   N02  Fs1  v088
 BYTE   W06
 BYTE   Cn1  v124
 BYTE   W06
 BYTE   Dn1  v120
 BYTE   N02  Fs1  v088
 BYTE   W12
 BYTE   Dn1  v120
 BYTE   N02  Fs1  v088
 BYTE   W06
 BYTE   Cn1  v124
 BYTE   W06
 BYTE   N02
 BYTE   N02  Fs1  v088
 BYTE   W06
 BYTE   Dn1  v120
 BYTE   W06
 BYTE   Cn1
 BYTE   N02  Fs1  v088
 BYTE   W06
 BYTE   Cn1  v120
 BYTE   N02  Fs1  v088
 BYTE   W06
 BYTE   Dn1  v124
 BYTE   N02  Fs1  v088
 BYTE   W06
 BYTE   Dn1  v127
 BYTE   N02  Fs1  v088
 BYTE   W06
 BYTE   PEND 
// 019   ----------------------------------------
Label_4_0187A587:
 BYTE   N02  Cn1  v120
 BYTE   N02  Cs2  v108
 BYTE   W12
 BYTE   Dn1  v120
 BYTE   N02  Fs1  v092
 BYTE   W06
 BYTE   N02
 BYTE   W06
 BYTE   Cn1  v120
 BYTE   N02  Fs1  v092
 BYTE   W06
 BYTE   Cn1  v124
 BYTE   N02  Fs1  v092
 BYTE   W06
 BYTE   Dn1  v124
 BYTE   N02  Fs1  v092
 BYTE   W06
 BYTE   Cn1  v124
 BYTE   N02  Fs1  v092
 BYTE   W06
 BYTE   N02
 BYTE   W06
 BYTE   Cn1  v124
 BYTE   N02  Fs1  v092
 BYTE   W06
 BYTE   Dn1  v120
 BYTE   N02  Fs1  v092
 BYTE   W06
 BYTE   N02
 BYTE   W06
 BYTE   Cn1  v124
 BYTE   N02  Fs1  v092
 BYTE   W06
 BYTE   Cn1  v124
 BYTE   N02  Fs1  v092
 BYTE   W06
 BYTE   Dn1  v124
 BYTE   N02  Fs1  v092
 BYTE   W06
 BYTE   N02
 BYTE   W06
 BYTE   PEND 
// 020   ----------------------------------------
Label_4_0187A5D3:
 BYTE   N02  Cn1  v124
 BYTE   N02  Fs1  v092
 BYTE   W06
 BYTE   N02
 BYTE   W06
 BYTE   Dn1  v120
 BYTE   N02  Fs1  v092
 BYTE   W06
 BYTE   N02
 BYTE   W06
 BYTE   Cn1  v120
 BYTE   N02  Fs1  v092
 BYTE   W06
 BYTE   Cn1  v120
 BYTE   N02  Fs1  v092
 BYTE   W06
 BYTE   Dn1  v124
 BYTE   N02  Fs1  v092
 BYTE   W06
 BYTE   Cn1  v120
 BYTE   N02  Fs1  v092
 BYTE   W06
 BYTE   N02
 BYTE   W06
 BYTE   Cn1  v120
 BYTE   N02  Fs1  v092
 BYTE   W06
 BYTE   Dn1  v124
 BYTE   N02  Fs1  v092
 BYTE   W06
 BYTE   N02
 BYTE   W06
 BYTE   Cn1  v120
 BYTE   N02  Fs1  v092
 BYTE   W06
 BYTE   Cn1  v120
 BYTE   N02  Fs1  v092
 BYTE   W06
 BYTE   Dn1  v124
 BYTE   N02  Fs1  v092
 BYTE   W06
 BYTE   N02
 BYTE   W06
 BYTE   PEND 
// 021   ----------------------------------------
Label_4_0187A621:
 BYTE   N02  Cn1  v120
 BYTE   N02  Fs1  v088
 BYTE   W06
 BYTE   N02
 BYTE   W06
 BYTE   Dn1  v120
 BYTE   N02  Fs1  v088
 BYTE   W06
 BYTE   N02
 BYTE   W06
 BYTE   Cn1  v120
 BYTE   N02  Fs1  v088
 BYTE   W06
 BYTE   Cn1  v120
 BYTE   N02  Fs1  v088
 BYTE   W06
 BYTE   Dn1  v120
 BYTE   N02  Fs1  v088
 BYTE   W06
 BYTE   Cn1  v120
 BYTE   N02  Fs1  v088
 BYTE   W06
 BYTE   N02
 BYTE   W06
 BYTE   Cn1  v120
 BYTE   W06
 BYTE   Dn1  v124
 BYTE   N02  Fs1  v088
 BYTE   W06
 BYTE   N02
 BYTE   W06
 BYTE   Cn1  v120
 BYTE   N02  Fs1  v088
 BYTE   W06
 BYTE   Cn1  v124
 BYTE   N02  Fs1  v088
 BYTE   W06
 BYTE   Dn1  v124
 BYTE   N02  Fs1  v088
 BYTE   W06
 BYTE   N02
 BYTE   W06
 BYTE   PEND 
// 022   ----------------------------------------
Label_4_0187A66C:
 BYTE   N02  Cn1  v120
 BYTE   N02  Fs1  v088
 BYTE   W06
 BYTE   N02
 BYTE   W06
 BYTE   Dn1  v120
 BYTE   N02  Fs1  v088
 BYTE   W06
 BYTE   N02
 BYTE   W06
 BYTE   Cn1  v120
 BYTE   N02  Fs1  v088
 BYTE   W06
 BYTE   Cn1  v124
 BYTE   N02  Fs1  v088
 BYTE   W06
 BYTE   Dn1  v120
 BYTE   N02  Fs1  v088
 BYTE   W06
 BYTE   Cn1  v124
 BYTE   N02  Fs1  v088
 BYTE   W06
 BYTE   N02
 BYTE   W06
 BYTE   Cn1  v124
 BYTE   N02  Fs1  v088
 BYTE   W06
 BYTE   Dn1  v120
 BYTE   N02  Fs1  v088
 BYTE   W06
 BYTE   N02
 BYTE   W06
 BYTE   Cn1  v124
 BYTE   N02  Fs1  v088
 BYTE   W06
 BYTE   Dn1  v120
 BYTE   N02  Fs1  v088
 BYTE   W06
 BYTE   Dn1  v120
 BYTE   N02  Fs1  v088
 BYTE   W06
 BYTE   Dn1  v124
 BYTE   N02  Fs1  v088
 BYTE   W06
 BYTE   PEND 
// 023   ----------------------------------------
Label_4_0187A6BE:
 BYTE   N02  Cn1  v124
 BYTE   N02  Fs1  v088
 BYTE   W06
 BYTE   N02
 BYTE   W06
 BYTE   Dn1  v120
 BYTE   N02  Fs1  v088
 BYTE   W06
 BYTE   N02
 BYTE   W06
 BYTE   Cn1  v120
 BYTE   N02  Fs1  v088
 BYTE   W06
 BYTE   Cn1  v120
 BYTE   N02  Fs1  v088
 BYTE   W06
 BYTE   Dn1  v124
 BYTE   N02  Fs1  v088
 BYTE   W06
 BYTE   Cn1  v120
 BYTE   N02  Fs1  v088
 BYTE   W06
 BYTE   N02
 BYTE   W06
 BYTE   Cn1  v120
 BYTE   N02  Fs1  v088
 BYTE   W06
 BYTE   Dn1  v120
 BYTE   N02  Fs1  v088
 BYTE   W06
 BYTE   N02
 BYTE   W06
 BYTE   Cn1  v120
 BYTE   N02  Fs1  v088
 BYTE   W06
 BYTE   Cn1  v124
 BYTE   N02  Fs1  v088
 BYTE   W06
 BYTE   Dn1  v124
 BYTE   N02  Fs1  v088
 BYTE   W06
 BYTE   Fs1  v092
 BYTE   W06
 BYTE   PEND 
// 024   ----------------------------------------
Label_4_0187A70D:
 BYTE   N02  Cn1  v120
 BYTE   N02  Fs1  v092
 BYTE   W06
 BYTE   N02
 BYTE   W06
 BYTE   Dn1  v120
 BYTE   N02  Fs1  v092
 BYTE   W06
 BYTE   N02
 BYTE   W06
 BYTE   Cn1  v120
 BYTE   N02  Fs1  v092
 BYTE   W06
 BYTE   Cn1  v120
 BYTE   N02  Fs1  v092
 BYTE   W06
 BYTE   Dn1  v124
 BYTE   N02  Fs1  v092
 BYTE   W06
 BYTE   Cn1  v120
 BYTE   N02  Fs1  v092
 BYTE   W06
 BYTE   N02
 BYTE   W06
 BYTE   Cn1  v120
 BYTE   N02  Fs1  v092
 BYTE   W06
 BYTE   Dn1  v120
 BYTE   N02  Fs1  v092
 BYTE   W06
 BYTE   Fs1  v088
 BYTE   W06
 BYTE   Cn1  v124
 BYTE   N02  Fs1  v092
 BYTE   W06
 BYTE   Cn1  v124
 BYTE   N02  Fs1  v092
 BYTE   W06
 BYTE   Dn1  v124
 BYTE   N02  Fs1  v092
 BYTE   W06
 BYTE   N02
 BYTE   W06
 BYTE   PEND 
// 025   ----------------------------------------
Label_4_0187A75C:
 BYTE   N02  Cn1  v120
 BYTE   N02  Fs1  v092
 BYTE   W06
 BYTE   N02
 BYTE   W06
 BYTE   Dn1  v120
 BYTE   N02  Fs1  v092
 BYTE   W06
 BYTE   N02
 BYTE   W06
 BYTE   Cn1  v124
 BYTE   N02  Fs1  v092
 BYTE   W06
 BYTE   Cn1  v124
 BYTE   N02  Fs1  v092
 BYTE   W06
 BYTE   Dn1  v124
 BYTE   N02  Fs1  v092
 BYTE   W06
 BYTE   Cn1  v124
 BYTE   N02  Fs1  v092
 BYTE   W06
 BYTE   N02
 BYTE   W06
 BYTE   Cn1  v120
 BYTE   W06
 BYTE   Dn1
 BYTE   N02  Fs1  v092
 BYTE   W06
 BYTE   N02
 BYTE   W06
 BYTE   Cn1  v124
 BYTE   N02  Fs1  v092
 BYTE   W06
 BYTE   Cn1  v124
 BYTE   N02  Fs1  v092
 BYTE   W06
 BYTE   Dn1  v124
 BYTE   N02  Fs1  v092
 BYTE   W06
 BYTE   N02
 BYTE   W06
 BYTE   PEND 
// 026   ----------------------------------------
Label_4_0187A7A6:
 BYTE   N02  Cn1  v124
 BYTE   N02  Fs1  v092
 BYTE   W06
 BYTE   N02
 BYTE   W06
 BYTE   Dn1  v120
 BYTE   N02  Fs1  v092
 BYTE   W06
 BYTE   N02
 BYTE   W06
 BYTE   Cn1  v124
 BYTE   N02  Fs1  v092
 BYTE   W06
 BYTE   Cn1  v124
 BYTE   N02  Fs1  v092
 BYTE   W06
 BYTE   Dn1  v124
 BYTE   N02  Fs1  v092
 BYTE   W06
 BYTE   N02
 BYTE   W06
 BYTE   N02
 BYTE   W06
 BYTE   Dn1  v120
 BYTE   W06
 BYTE   Cn1
 BYTE   N02  Fs1  v092
 BYTE   W06
 BYTE   Cn1  v124
 BYTE   N02  Fs1  v092
 BYTE   W06
 BYTE   Dn1  v120
 BYTE   N02  Fs1  v092
 BYTE   W06
 BYTE   Dn1  v124
 BYTE   N02  Fs1  v092
 BYTE   W06
 BYTE   Dn1  v120
 BYTE   N02  Fs1  v092
 BYTE   W06
 BYTE   Dn1  v124
 BYTE   N02  Fs1  v092
 BYTE   W06
 BYTE   PEND 
// 027   ----------------------------------------
Label_4_0187A7F4:
 BYTE   N02  Cn1  v120
 BYTE   N02  Cs2  v108
 BYTE   W12
 BYTE   Dn1  v120
 BYTE   N02  Ds2  v100
 BYTE   W12
 BYTE   Cn1  v120
 BYTE   N02  Ds2  v104
 BYTE   W06
 BYTE   Cn1  v120
 BYTE   W06
 BYTE   Dn1
 BYTE   N02  Ds2  v108
 BYTE   W12
 BYTE   Cn1  v120
 BYTE   N02  Ds2  v112
 BYTE   W12
 BYTE   Dn1  v124
 BYTE   N02  Ds2  v116
 BYTE   W12
 BYTE   Cn1  v120
 BYTE   N02  Ds2
 BYTE   W06
 BYTE   Cn1
 BYTE   W03
 BYTE   Cn1  v124
 BYTE   W03
 BYTE   Dn1
 BYTE   N02  Cs2  v104
 BYTE   W12
 BYTE   PEND 
// 028   ----------------------------------------
Label_4_0187A82B:
 BYTE   N02  Cn1  v120
 BYTE   N02  Cs2  v104
 BYTE   W12
 BYTE   Dn1  v120
 BYTE   N02  Ds2  v100
 BYTE   W12
 BYTE   Cn1  v120
 BYTE   N02  Ds2  v104
 BYTE   W06
 BYTE   Cn1  v120
 BYTE   W06
 BYTE   Dn1
 BYTE   N02  Ds2  v108
 BYTE   W12
 BYTE   Cn1  v120
 BYTE   N02  Ds2  v108
 BYTE   W12
 BYTE   Dn1  v120
 BYTE   N02  Ds2  v112
 BYTE   W12
 BYTE   Cn1  v120
 BYTE   N02  Ds2  v116
 BYTE   W06
 BYTE   Cn1  v124
 BYTE   W06
 BYTE   Dn1
 BYTE   N02  Ds2  v120
 BYTE   W12
 BYTE   PEND 
// 029   ----------------------------------------
Label_4_0187A861:
 BYTE   N02  Cn1  v120
 BYTE   N02  Cs2  v108
 BYTE   W12
 BYTE   Dn1  v120
 BYTE   N02  Ds2  v096
 BYTE   W12
 BYTE   Cn1  v120
 BYTE   N02  Ds2  v100
 BYTE   W06
 BYTE   Cn1  v120
 BYTE   W06
 BYTE   Dn1  v124
 BYTE   N02  Ds2  v108
 BYTE   W12
 BYTE   Cn1  v120
 BYTE   N02  Ds2  v112
 BYTE   W12
 BYTE   Dn1  v120
 BYTE   N02  Ds2  v116
 BYTE   W12
 BYTE   Cn1  v120
 BYTE   N02  Ds2  v108
 BYTE   W06
 BYTE   Cn1  v116
 BYTE   W03
 BYTE   Cn1  v124
 BYTE   W03
 BYTE   Dn1
 BYTE   N02  Cs2  v108
 BYTE   W12
 BYTE   PEND 
// 030   ----------------------------------------
Label_4_0187A89B:
 BYTE   N02  Cn1  v120
 BYTE   N02  Cs2  v104
 BYTE   W12
 BYTE   Dn1  v120
 BYTE   N02  Ds2  v096
 BYTE   W12
 BYTE   Cn1  v120
 BYTE   N02  Ds2  v100
 BYTE   W06
 BYTE   Cn1  v120
 BYTE   W06
 BYTE   Dn1  v124
 BYTE   N02  Ds2  v104
 BYTE   W12
 BYTE   Cn1  v120
 BYTE   N02  Ds2  v108
 BYTE   W12
 BYTE   Dn1  v120
 BYTE   N02  Ds2  v112
 BYTE   W12
 BYTE   Cn1  v120
 BYTE   N02  Ds2  v116
 BYTE   W06
 BYTE   Dn1  v120
 BYTE   W06
 BYTE   N02
 BYTE   N02  Ds2
 BYTE   W06
 BYTE   Dn1  v124
 BYTE   W06
 BYTE   PEND 
// 031   ----------------------------------------
 BYTE   Cn1  v120
 BYTE   N02  Cs2  v108
 BYTE   W12
 BYTE   Dn1  v120
 BYTE   W12
 BYTE   Cn1  v124
 BYTE   N02  Ds2  v100
 BYTE   W06
 BYTE   Cn1  v124
 BYTE   W06
 BYTE   Dn1
 BYTE   N02  Ds2  v104
 BYTE   W06
 BYTE   Cn1  v124
 BYTE   W06
 BYTE   Ds2  v108
 BYTE   W06
 BYTE   Cn1  v120
 BYTE   W06
 BYTE   Dn1
 BYTE   N02  Ds2  v116
 BYTE   W12
 BYTE   Cn1  v124
 BYTE   N02  Ds2  v120
 BYTE   W06
 BYTE   Cn1  v124
 BYTE   W06
 BYTE   Dn1
 BYTE   N02  Cs2  v104
 BYTE   W12
// 032   ----------------------------------------
 BYTE   Cn1  v120
 BYTE   N02  Cs2  v104
 BYTE   W12
 BYTE   Dn1  v124
 BYTE   W12
 BYTE   Cn1  v120
 BYTE   N02  Ds2  v100
 BYTE   W06
 BYTE   Cn1  v124
 BYTE   W06
 BYTE   Dn1
 BYTE   N02  Ds2  v104
 BYTE   W06
 BYTE   Cn1  v120
 BYTE   W06
 BYTE   Ds2  v108
 BYTE   W06
 BYTE   Cn1  v124
 BYTE   W06
 BYTE   Dn1  v120
 BYTE   N02  Ds2  v112
 BYTE   W12
 BYTE   Cn1  v124
 BYTE   N02  Ds2  v120
 BYTE   W06
 BYTE   Cn1  v124
 BYTE   W06
 BYTE   Dn1
 BYTE   N02  Ds2  v120
 BYTE   W12
// 033   ----------------------------------------
Label_4_0187A93B:
 BYTE   N02  Cn1  v120
 BYTE   N02  Cs2  v104
 BYTE   W12
 BYTE   Dn1  v120
 BYTE   W12
 BYTE   Cn1
 BYTE   N02  Ds2  v104
 BYTE   W06
 BYTE   Cn1  v120
 BYTE   W06
 BYTE   Dn1  v124
 BYTE   N02  Ds2  v108
 BYTE   W06
 BYTE   Cn1  v124
 BYTE   W06
 BYTE   Ds2  v112
 BYTE   W06
 BYTE   Cn1  v120
 BYTE   W06
 BYTE   Dn1
 BYTE   N02  Ds2  v116
 BYTE   W12
 BYTE   Cn1  v120
 BYTE   N02  Ds2  v124
 BYTE   W06
 BYTE   Cn1
 BYTE   W06
 BYTE   Dn1
 BYTE   N02  Cs2  v104
 BYTE   W12
 BYTE   PEND 
// 034   ----------------------------------------
 BYTE   Cn1  v124
 BYTE   N02  Cs2  v108
 BYTE   W12
 BYTE   Dn1  v120
 BYTE   W12
 BYTE   Cn1
 BYTE   N02  Ds2  v104
 BYTE   W06
 BYTE   Cn1  v124
 BYTE   W06
 BYTE   Dn1
 BYTE   N02  Ds2  v112
 BYTE   W06
 BYTE   Cn1  v124
 BYTE   W06
 BYTE   Ds2  v116
 BYTE   W06
 BYTE   Cn1  v124
 BYTE   W06
 BYTE   Dn1  v120
 BYTE   N02  Ds2
 BYTE   W12
 BYTE   Dn1  v108
 BYTE   N02  Ds2  v124
 BYTE   W03
 BYTE   Dn1  v108
 BYTE   W03
 BYTE   Dn1  v112
 BYTE   W03
 BYTE   N02
 BYTE   W03
 BYTE   Dn1  v116
 BYTE   W03
 BYTE   Dn1  v124
 BYTE   W03
 BYTE   Dn1  v127
 BYTE   W03
 BYTE   N02
 BYTE   W03
 BYTE   PATT
  POIN2 Label_4_0187A172
 BYTE   PATT
  POIN2 Label_4_0187A1C0
 BYTE   PATT
  POIN2 Label_4_0187A20E
 BYTE   PATT
  POIN2 Label_4_0187A25C
 BYTE   PATT
  POIN2 Label_4_0187A2AB
 BYTE   PATT
  POIN2 Label_4_0187A2F5
 BYTE   PATT
  POIN2 Label_4_0187A343
 BYTE   PATT
  POIN2 Label_4_0187A391
 BYTE   PATT
  POIN2 Label_4_0187A3DC
 BYTE   PATT
  POIN2 Label_4_0187A40B
 BYTE   PATT
  POIN2 Label_4_0187A439
 BYTE   PATT
  POIN2 Label_4_0187A46B
 BYTE   PATT
  POIN2 Label_4_0187A4A0
 BYTE   PATT
  POIN2 Label_4_0187A4D6
 BYTE   PATT
  POIN2 Label_4_0187A50B
 BYTE   PATT
  POIN2 Label_4_0187A542
 BYTE   PATT
  POIN2 Label_4_0187A587
 BYTE   PATT
  POIN2 Label_4_0187A5D3
 BYTE   PATT
  POIN2 Label_4_0187A621
 BYTE   PATT
  POIN2 Label_4_0187A66C
 BYTE   PATT
  POIN2 Label_4_0187A6BE
 BYTE   PATT
  POIN2 Label_4_0187A70D
 BYTE   PATT
  POIN2 Label_4_0187A75C
 BYTE   PATT
  POIN2 Label_4_0187A7A6
 BYTE   PATT
  POIN2 Label_4_0187A7F4
 BYTE   PATT
  POIN2 Label_4_0187A82B
 BYTE   PATT
  POIN2 Label_4_0187A861
 BYTE   PATT
  POIN2 Label_4_0187A89B
// 035   ----------------------------------------
 BYTE   N02  Cn1  v120
 BYTE   N02  Cs2  v108
 BYTE   W12
 BYTE   Dn1  v120
 BYTE   W12
 BYTE   Cn1  v124
 BYTE   N02  Ds2  v100
 BYTE   W06
 BYTE   Cn1  v124
 BYTE   W06
 BYTE   Dn1  v120
 BYTE   N02  Ds2  v104
 BYTE   W06
 BYTE   Cn1  v124
 BYTE   W06
 BYTE   Ds2  v108
 BYTE   W06
 BYTE   Cn1  v120
 BYTE   W06
 BYTE   Dn1  v124
 BYTE   N02  Ds2  v116
 BYTE   W12
 BYTE   Cn1  v124
 BYTE   N02  Ds2  v120
 BYTE   W06
 BYTE   Cn1  v124
 BYTE   W06
 BYTE   Dn1
 BYTE   N02  Cs2  v104
 BYTE   W12
// 036   ----------------------------------------
 BYTE   Cn1  v120
 BYTE   N02  Cs2  v104
 BYTE   W12
 BYTE   Dn1  v120
 BYTE   W12
 BYTE   Cn1
 BYTE   N02  Ds2  v100
 BYTE   W06
 BYTE   Cn1  v124
 BYTE   W06
 BYTE   Dn1  v120
 BYTE   N02  Ds2  v104
 BYTE   W06
 BYTE   Cn1  v120
 BYTE   W06
 BYTE   Ds2  v108
 BYTE   W06
 BYTE   Cn1  v124
 BYTE   W06
 BYTE   Dn1  v120
 BYTE   N02  Ds2  v112
 BYTE   W12
 BYTE   Cn1  v124
 BYTE   N02  Ds2  v120
 BYTE   W06
 BYTE   Cn1  v124
 BYTE   W06
 BYTE   Dn1
 BYTE   N02  Ds2  v120
 BYTE   W12
 BYTE   PATT
  POIN2 Label_4_0187A93B
// 037   ----------------------------------------
 BYTE   N02  Cn1  v124
 BYTE   N02  Cs2  v108
 BYTE   W12
 BYTE   Dn1  v120
 BYTE   W12
 BYTE   Cn1
 BYTE   N02  Ds2  v104
 BYTE   W06
 BYTE   Cn1  v124
 BYTE   W06
 BYTE   Dn1
 BYTE   N02  Ds2  v112
 BYTE   W06
 BYTE   Cn1  v124
 BYTE   W06
 BYTE   Ds2  v116
 BYTE   W06
 BYTE   Cn1  v124
 BYTE   W06
 BYTE   Dn1  v120
 BYTE   N02  Ds2
 BYTE   W12
 BYTE   Ds2  v124
 BYTE   W06
 BYTE   Dn1  v120
 BYTE   W06
 BYTE   N02
 BYTE   W06
 BYTE   Dn1  v124
 BYTE   W06
// 038   ----------------------------------------
 BYTE   Cn1  v120
 BYTE   N02  Cs2  v108
 BYTE   W07
 BYTE   W05
 BYTE   Dn1  v120
 BYTE   N02  Ds2  v100
 BYTE   W12
 BYTE   Cn1  v124
 BYTE   N02  Ds2  v104
 BYTE   W06
 BYTE   Cn1  v124
 BYTE   W01
 BYTE   W05
 BYTE   Dn1  v120
 BYTE   N02  Ds2  v108
 BYTE   W06
 BYTE   Cn1  v124
 BYTE   W06
 BYTE   Ds2  v112
 BYTE   W06
 BYTE   Cn1  v120
 BYTE   W01
 BYTE   W05
 BYTE   Dn1  v124
 BYTE   N02  Ds2  v116
 BYTE   W12
 BYTE   Cn1  v124
 BYTE   N02  Ds2  v120
 BYTE   W06
 BYTE   Cn1  v124
 BYTE   W01
 BYTE   W05
 BYTE   Dn1
 BYTE   N02  Cs2  v104
 BYTE   W12
// 039   ----------------------------------------
 BYTE   Cn1  v120
 BYTE   N02  Cs2  v104
 BYTE   W08
 BYTE   W04
 BYTE   Dn1  v120
 BYTE   N02  Ds2  v100
 BYTE   W12
 BYTE   Cn1  v120
 BYTE   N02  Ds2  v104
 BYTE   W06
 BYTE   Cn1  v124
 BYTE   W02
 BYTE   W04
 BYTE   Dn1  v120
 BYTE   N02  Ds2  v108
 BYTE   W06
 BYTE   Cn1  v120
 BYTE   W06
 BYTE   Ds2  v108
 BYTE   W06
 BYTE   Cn1  v124
 BYTE   W02
 BYTE   W04
 BYTE   Dn1  v120
 BYTE   N02  Ds2  v112
 BYTE   W12
 BYTE   Cn1  v124
 BYTE   N02  Ds2  v116
 BYTE   W06
 BYTE   Cn1  v124
 BYTE   W03
 BYTE   W03
 BYTE   Dn1
 BYTE   N02  Ds2  v120
 BYTE   W12
// 040   ----------------------------------------
 BYTE   Cn1
 BYTE   N02  Cs2  v108
 BYTE   W09
 BYTE   W03
 BYTE   Dn1  v120
 BYTE   N02  Ds2  v096
 BYTE   W12
 BYTE   Cn1  v120
 BYTE   N02  Ds2  v100
 BYTE   W06
 BYTE   Cn1  v120
 BYTE   W03
 BYTE   W03
 BYTE   Dn1  v124
 BYTE   N02  Ds2  v108
 BYTE   W06
 BYTE   Cn1  v124
 BYTE   W06
 BYTE   Ds2  v112
 BYTE   W06
 BYTE   Cn1  v120
 BYTE   W03
 BYTE   W03
 BYTE   Dn1
 BYTE   N02  Ds2  v116
 BYTE   W12
 BYTE   Cn1  v120
 BYTE   N02  Ds2  v108
 BYTE   W06
 BYTE   Cn1  v124
 BYTE   W04
 BYTE   W02
 BYTE   Dn1
 BYTE   N02  Cs2  v108
 BYTE   W12
// 041   ----------------------------------------
 BYTE   Cn1  v124
 BYTE   N02  Cs2  v104
 BYTE   W10
 BYTE   W02
 BYTE   Dn1  v120
 BYTE   N02  Ds2  v096
 BYTE   W12
 BYTE   Cn1  v120
 BYTE   N02  Ds2  v100
 BYTE   W06
 BYTE   Cn1  v124
 BYTE   W04
 BYTE   W02
 BYTE   Dn1
 BYTE   N02  Ds2  v104
 BYTE   W06
 BYTE   Cn1  v124
 BYTE   W06
 BYTE   Ds2  v108
 BYTE   W06
 BYTE   Cn1  v124
 BYTE   W05
 BYTE   W01
 BYTE   Dn1  v120
 BYTE   N02  Ds2  v112
 BYTE   W12
 BYTE   Ds2  v116
 BYTE   W06
 BYTE   Dn1  v120
 BYTE   W05
 BYTE   W01
 BYTE   N02
 BYTE   N02  Ds2
 BYTE   W06
 BYTE   Dn1  v124
 BYTE   W06
// 042   ----------------------------------------
 BYTE   Cn1  v120
 BYTE   N02  Cs2  v108
 BYTE   W11
 BYTE   W01
 BYTE   Dn1  v120
 BYTE   W12
 BYTE   Cn1  v124
 BYTE   N02  Ds2  v100
 BYTE   W06
 BYTE   Cn1  v124
 BYTE   W05
 BYTE   W01
 BYTE   Dn1  v120
 BYTE   N02  Ds2  v104
 BYTE   W06
 BYTE   Cn1  v124
 BYTE   W06
 BYTE   Ds2  v108
 BYTE   W06
 BYTE   Cn1  v120
 BYTE   W06
 BYTE   Dn1  v124
 BYTE   N02  Ds2  v116
 BYTE   W12
 BYTE   Cn1  v124
 BYTE   N02  Ds2  v120
 BYTE   W06
 BYTE   Cn1  v124
 BYTE   W06
 BYTE   Dn1
 BYTE   N02  Cs2  v104
 BYTE   W12
// 043   ----------------------------------------
 BYTE   Cn1  v120
 BYTE   N02  Cs2  v104
 BYTE   W12
 BYTE   Dn1  v120
 BYTE   W12
 BYTE   Cn1
 BYTE   N02  Ds2  v100
 BYTE   W06
 BYTE   Cn1  v124
 BYTE   W06
 BYTE   Dn1  v120
 BYTE   N02  Ds2  v104
 BYTE   W01
 BYTE   W05
 BYTE   Cn1  v120
 BYTE   W06
 BYTE   Ds2  v108
 BYTE   W06
 BYTE   Cn1  v124
 BYTE   W06
 BYTE   Dn1  v120
 BYTE   N02  Ds2  v112
 BYTE   W01
 BYTE   W11
 BYTE   Cn1  v124
 BYTE   N02  Ds2  v120
 BYTE   W06
 BYTE   Cn1  v124
 BYTE   W06
 BYTE   Dn1
 BYTE   N02  Ds2  v120
 BYTE   W01
 BYTE   W11
// 044   ----------------------------------------
 BYTE   Cn1
 BYTE   N02  Cs2  v104
 BYTE   W12
 BYTE   Dn1  v120
 BYTE   W01
 BYTE   W11
 BYTE   Cn1
 BYTE   N02  Ds2  v104
 BYTE   W06
 BYTE   Cn1  v120
 BYTE   W06
 BYTE   Dn1  v124
 BYTE   N02  Ds2  v108
 BYTE   W02
 BYTE   W04
 BYTE   Cn1  v124
 BYTE   W06
 BYTE   Ds2  v112
 BYTE   W06
 BYTE   Cn1  v120
 BYTE   W06
 BYTE   Dn1
 BYTE   N02  Ds2  v116
 BYTE   W02
 BYTE   W10
 BYTE   Cn1  v120
 BYTE   N02  Ds2  v124
 BYTE   W06
 BYTE   Cn1
 BYTE   W06
 BYTE   Dn1
 BYTE   N02  Cs2  v104
 BYTE   W02
 BYTE   W10
// 045   ----------------------------------------
 BYTE   Cn1  v124
 BYTE   N02  Cs2  v108
 BYTE   W12
 BYTE   Dn1  v120
 BYTE   W03
 BYTE   W09
 BYTE   Cn1
 BYTE   N02  Ds2  v104
 BYTE   W06
 BYTE   Cn1  v124
 BYTE   W06
 BYTE   Dn1
 BYTE   N02  Ds2  v112
 BYTE   W03
 BYTE   W03
 BYTE   Cn1  v124
 BYTE   W06
 BYTE   Ds2  v116
 BYTE   W06
 BYTE   Cn1  v124
 BYTE   W06
 BYTE   Dn1  v120
 BYTE   N02  Ds2
 BYTE   W03
 BYTE   W09
 BYTE   Ds2  v124
 BYTE   W06
 BYTE   Dn1  v120
 BYTE   W06
 BYTE   N02
 BYTE   W03
 BYTE   W03
 BYTE   Dn1  v124
 BYTE   W03
 BYTE   W03
// 046   ----------------------------------------
 BYTE   GoTo
  POIN2 Label_4_0187A131
 BYTE   FINE

//******************************************************//
	ALIGN 4

TalesOfSymphoniaFightingtheSpiritsPandan:
	BYTE	5	// NumTrks
	BYTE	0	// NumBlks
	BYTE	TalesOfSymphoniaFightingtheSpiritsPandan_pri	// Priority
	BYTE	TalesOfSymphoniaFightingtheSpiritsPandan_rev	// Reverb.
    
	POIN2	TalesOfSymphoniaFightingtheSpiritsPandan_grp
    
	POIN2	TalesOfSymphoniaFightingtheSpiritsPandan_001
	POIN2	TalesOfSymphoniaFightingtheSpiritsPandan_002
	POIN2	TalesOfSymphoniaFightingtheSpiritsPandan_003
	POIN2	TalesOfSymphoniaFightingtheSpiritsPandan_004
	POIN2	TalesOfSymphoniaFightingtheSpiritsPandan_005

	
