//Event file generated from Sappy .s format.
	#include "MPlayDef.event"

	#define	KirbyReturntoDreamLandCROWNEDRandomWizard_grp  voicegroup000
	#define	KirbyReturntoDreamLandCROWNEDRandomWizard_pri  0
	#define	KirbyReturntoDreamLandCROWNEDRandomWizard_rev  0
	#define	KirbyReturntoDreamLandCROWNEDRandomWizard_mvl  127
	#define	KirbyReturntoDreamLandCROWNEDRandomWizard_key  0
	#define	KirbyReturntoDreamLandCROWNEDRandomWizard_tbs  1
	#define	KirbyReturntoDreamLandCROWNEDRandomWizard_exg  0
	#define	KirbyReturntoDreamLandCROWNEDRandomWizard_cmp  1

	// .rodata
	//	KirbyReturntoDreamLandCROWNEDRandomWizard
	ALIGN 4


//**************** Track 1 (Midi-Chn.0) ****************//

KirbyReturntoDreamLandCROWNEDRandomWizard_001:
// 000   ----------------------------------------
 BYTE   KEYSH   KirbyReturntoDreamLandCROWNEDRandomWizard_key+0
 BYTE   VOICE   48
 BYTE   W09
 BYTE   W03
 BYTE   VOL   35*KirbyReturntoDreamLandCROWNEDRandomWizard_mvl/mxv
 BYTE   W03
 BYTE   PAN   c_v+0
 BYTE   W03
 BYTE   W03
 BYTE   W03
 BYTE   TEMPO   190*KirbyReturntoDreamLandCROWNEDRandomWizard_tbs/2
 BYTE   N03  Fn2  v100
 BYTE   W03
 BYTE   N03
 BYTE   W03
 BYTE   N03
 BYTE   W03
 BYTE   N03
 BYTE   W03
 BYTE   N03
 BYTE   W03
 BYTE   N03
 BYTE   W03
 BYTE   N03
 BYTE   W03
 BYTE   N03
 BYTE   W03
 BYTE   N03
 BYTE   W03
 BYTE   N03
 BYTE   W03
 BYTE   N03
 BYTE   W03
 BYTE   N03
 BYTE   W03
 BYTE   N03
 BYTE   W03
 BYTE   N03
 BYTE   W03
 BYTE   N03
 BYTE   W03
 BYTE   N03
 BYTE   W03
 BYTE   N03
 BYTE   W03
 BYTE   N03
 BYTE   W03
 BYTE   N03
 BYTE   W03
 BYTE   N03
 BYTE   W03
 BYTE   N03
 BYTE   W03
 BYTE   N03
 BYTE   W03
 BYTE   N03
 BYTE   W03
 BYTE   N03
 BYTE   W03
// 001   ----------------------------------------
 BYTE   Gn2
 BYTE   W03
 BYTE   N03
 BYTE   W03
 BYTE   N03
 BYTE   W03
 BYTE   N03
 BYTE   W03
 BYTE   Gs2
 BYTE   W03
 BYTE   N03
 BYTE   W03
 BYTE   N03
 BYTE   W03
 BYTE   N03
 BYTE   W03
 BYTE   Cn3
 BYTE   W03
 BYTE   N03
 BYTE   W03
 BYTE   N03
 BYTE   W03
 BYTE   N03
 BYTE   W15
 BYTE   As2
 BYTE   W03
 BYTE   N03
 BYTE   W03
 BYTE   N03
 BYTE   W03
 BYTE   N03
 BYTE   W15
 BYTE   Gs2
 BYTE   W03
 BYTE   N03
 BYTE   W03
 BYTE   N03
 BYTE   W03
 BYTE   N03
 BYTE   W15
// 002   ----------------------------------------
 BYTE   Gn2
 BYTE   W03
 BYTE   N03
 BYTE   W03
 BYTE   N03
 BYTE   W03
 BYTE   N03
 BYTE   W15
 BYTE   Fn2
 BYTE   W03
 BYTE   N03
 BYTE   W03
 BYTE   N03
 BYTE   W03
 BYTE   N03
 BYTE   W03
 BYTE   N03
 BYTE   W03
 BYTE   N03
 BYTE   W03
 BYTE   N03
 BYTE   W03
 BYTE   N03
 BYTE   W03
 BYTE   N03
 BYTE   W03
 BYTE   N03
 BYTE   W03
 BYTE   N03
 BYTE   W03
 BYTE   N03
 BYTE   W03
 BYTE   N03
 BYTE   W03
 BYTE   N03
 BYTE   W03
 BYTE   N03
 BYTE   W03
 BYTE   N03
 BYTE   W03
 BYTE   N03
 BYTE   W03
 BYTE   N03
 BYTE   W03
 BYTE   N03
 BYTE   W03
 BYTE   N03
 BYTE   W03
 BYTE   N03
 BYTE   W03
 BYTE   N03
 BYTE   W03
 BYTE   N03
 BYTE   W03
 BYTE   N03
 BYTE   W03
// 003   ----------------------------------------
 BYTE   Gn2
 BYTE   W03
 BYTE   N03
 BYTE   W03
 BYTE   N03
 BYTE   W03
 BYTE   N03
 BYTE   W03
 BYTE   Gs2
 BYTE   W03
 BYTE   N03
 BYTE   W03
 BYTE   N03
 BYTE   W03
 BYTE   N03
 BYTE   W03
 BYTE   As2
 BYTE   W03
 BYTE   N03
 BYTE   W03
 BYTE   N03
 BYTE   W03
 BYTE   N03
 BYTE   W15
 BYTE   Gn2
 BYTE   W03
 BYTE   N03
 BYTE   W03
 BYTE   N03
 BYTE   W03
 BYTE   N03
 BYTE   W15
 BYTE   Gs2
 BYTE   W03
 BYTE   N03
 BYTE   W03
 BYTE   N03
 BYTE   W03
 BYTE   N03
 BYTE   W15
// 004   ----------------------------------------
 BYTE   As2
 BYTE   W03
 BYTE   N03
 BYTE   W03
 BYTE   N03
 BYTE   W03
 BYTE   N03
 BYTE   W15
 BYTE   TEMPO   188*KirbyReturntoDreamLandCROWNEDRandomWizard_tbs/2
 BYTE   Cn3
 BYTE   W03
 BYTE   N03
 BYTE   W03
 BYTE   N03
 BYTE   W03
 BYTE   N03
 BYTE   W03
 BYTE   N03
 BYTE   W03
 BYTE   N03
 BYTE   W03
 BYTE   N03
 BYTE   W03
 BYTE   N03
 BYTE   W03
 BYTE   N03
 BYTE   W03
 BYTE   N03
 BYTE   W03
 BYTE   N03
 BYTE   W03
 BYTE   N03
 BYTE   W03
 BYTE   N03
 BYTE   W03
 BYTE   N03
 BYTE   W09
 BYTE   N03
 BYTE   W03
 BYTE   N03
 BYTE   W03
 BYTE   N03
 BYTE   W03
 BYTE   N03
 BYTE   W03
 BYTE   N03
 BYTE   W03
 BYTE   N03
 BYTE   W03
 BYTE   N03
 BYTE   W03
 BYTE   N03
 BYTE   W03
// 005   ----------------------------------------
 BYTE   N03
 BYTE   W03
 BYTE   N03
 BYTE   W03
 BYTE   N03
 BYTE   W03
 BYTE   N03
 BYTE   W03
 BYTE   N03
 BYTE   W03
 BYTE   N03
 BYTE   W09
 BYTE   TEMPO   188*KirbyReturntoDreamLandCROWNEDRandomWizard_tbs/2
 BYTE   N03
 BYTE   W03
 BYTE   TEMPO   184*KirbyReturntoDreamLandCROWNEDRandomWizard_tbs/2
 BYTE   N03
 BYTE   W03
 BYTE   TEMPO   182*KirbyReturntoDreamLandCROWNEDRandomWizard_tbs/2
 BYTE   N03
 BYTE   W03
 BYTE   TEMPO   180*KirbyReturntoDreamLandCROWNEDRandomWizard_tbs/2
 BYTE   N03
 BYTE   W03
 BYTE   TEMPO   178*KirbyReturntoDreamLandCROWNEDRandomWizard_tbs/2
 BYTE   N03
 BYTE   W03
 BYTE   TEMPO   176*KirbyReturntoDreamLandCROWNEDRandomWizard_tbs/2
 BYTE   N03
 BYTE   W03
 BYTE   TEMPO   172*KirbyReturntoDreamLandCROWNEDRandomWizard_tbs/2
 BYTE   N03
 BYTE   W03
 BYTE   TEMPO   170*KirbyReturntoDreamLandCROWNEDRandomWizard_tbs/2
 BYTE   N03
 BYTE   W03
 BYTE   TEMPO   168*KirbyReturntoDreamLandCROWNEDRandomWizard_tbs/2
 BYTE   N03
 BYTE   W03
 BYTE   TEMPO   166*KirbyReturntoDreamLandCROWNEDRandomWizard_tbs/2
 BYTE   N03
 BYTE   W03
 BYTE   TEMPO   164*KirbyReturntoDreamLandCROWNEDRandomWizard_tbs/2
 BYTE   N03
 BYTE   W03
 BYTE   TEMPO   162*KirbyReturntoDreamLandCROWNEDRandomWizard_tbs/2
 BYTE   N03
 BYTE   W03
 BYTE   TEMPO   158*KirbyReturntoDreamLandCROWNEDRandomWizard_tbs/2
 BYTE   As2
 BYTE   W03
 BYTE   TEMPO   156*KirbyReturntoDreamLandCROWNEDRandomWizard_tbs/2
 BYTE   N03
 BYTE   W03
 BYTE   TEMPO   154*KirbyReturntoDreamLandCROWNEDRandomWizard_tbs/2
 BYTE   N03
 BYTE   W03
 BYTE   TEMPO   152*KirbyReturntoDreamLandCROWNEDRandomWizard_tbs/2
 BYTE   N03
 BYTE   W03
 BYTE   TEMPO   150*KirbyReturntoDreamLandCROWNEDRandomWizard_tbs/2
 BYTE   Gs2
 BYTE   W03
 BYTE   TEMPO   146*KirbyReturntoDreamLandCROWNEDRandomWizard_tbs/2
 BYTE   N03
 BYTE   W03
 BYTE   TEMPO   144*KirbyReturntoDreamLandCROWNEDRandomWizard_tbs/2
 BYTE   N03
 BYTE   W03
 BYTE   TEMPO   142*KirbyReturntoDreamLandCROWNEDRandomWizard_tbs/2
 BYTE   N03
 BYTE   W03
 BYTE   TEMPO   140*KirbyReturntoDreamLandCROWNEDRandomWizard_tbs/2
 BYTE   N03
 BYTE   W03
 BYTE   TEMPO   138*KirbyReturntoDreamLandCROWNEDRandomWizard_tbs/2
 BYTE   N03
 BYTE   W03
 BYTE   TEMPO   134*KirbyReturntoDreamLandCROWNEDRandomWizard_tbs/2
 BYTE   W03
 BYTE   TEMPO   132*KirbyReturntoDreamLandCROWNEDRandomWizard_tbs/2
 BYTE   W03
// 006   ----------------------------------------
 BYTE   TEMPO   130*KirbyReturntoDreamLandCROWNEDRandomWizard_tbs/2
 BYTE   As2
 BYTE   W03
 BYTE   TEMPO   128*KirbyReturntoDreamLandCROWNEDRandomWizard_tbs/2
 BYTE   N03
 BYTE   W03
 BYTE   TEMPO   126*KirbyReturntoDreamLandCROWNEDRandomWizard_tbs/2
 BYTE   N03
 BYTE   W03
 BYTE   TEMPO   122*KirbyReturntoDreamLandCROWNEDRandomWizard_tbs/2
 BYTE   N03
 BYTE   W03
 BYTE   TEMPO   120*KirbyReturntoDreamLandCROWNEDRandomWizard_tbs/2
 BYTE   N03
 BYTE   W03
 BYTE   TEMPO   118*KirbyReturntoDreamLandCROWNEDRandomWizard_tbs/2
 BYTE   N03
 BYTE   W03
 BYTE   TEMPO   116*KirbyReturntoDreamLandCROWNEDRandomWizard_tbs/2
 BYTE   W03
 BYTE   TEMPO   112*KirbyReturntoDreamLandCROWNEDRandomWizard_tbs/2
 BYTE   W03
 BYTE   TEMPO   114*KirbyReturntoDreamLandCROWNEDRandomWizard_tbs/2
 BYTE   Cn3
 BYTE   W03
 BYTE   N03
 BYTE   W03
 BYTE   N03
 BYTE   W03
 BYTE   N03
 BYTE   W03
 BYTE   N03
 BYTE   W03
 BYTE   N03
 BYTE   W03
 BYTE   N03
 BYTE   W03
 BYTE   N03
 BYTE   W03
 BYTE   N03
 BYTE   W03
 BYTE   N03
 BYTE   W03
 BYTE   N03
 BYTE   W03
 BYTE   N03
 BYTE   W03
 BYTE   N03
 BYTE   W03
 BYTE   N03
 BYTE   W03
 BYTE   N03
 BYTE   W03
 BYTE   N03
 BYTE   W03
 BYTE   N03
 BYTE   W03
 BYTE   N03
 BYTE   W03
 BYTE   N03
 BYTE   W03
 BYTE   N03
 BYTE   W03
 BYTE   N03
 BYTE   W03
 BYTE   N03
 BYTE   W03
 BYTE   N03
 BYTE   W03
 BYTE   N03
 BYTE   W03
// 007   ----------------------------------------
 BYTE   N03
 BYTE   W03
 BYTE   N03
 BYTE   W03
 BYTE   N03
 BYTE   W03
 BYTE   N03
 BYTE   W03
 BYTE   N03
 BYTE   W03
 BYTE   N03
 BYTE   W03
 BYTE   N03
 BYTE   W03
 BYTE   N03
 BYTE   W03
 BYTE   N03
 BYTE   W03
 BYTE   N03
 BYTE   W03
 BYTE   N03
 BYTE   W03
 BYTE   N03
 BYTE   W03
 BYTE   N03
 BYTE   W03
 BYTE   N03
 BYTE   W03
 BYTE   N03
 BYTE   W03
 BYTE   N03
 BYTE   W03
 BYTE   N03
 BYTE   W03
 BYTE   N03
 BYTE   W03
 BYTE   N03
 BYTE   W03
 BYTE   N03
 BYTE   W03
 BYTE   N03
 BYTE   W03
 BYTE   N03
 BYTE   W03
 BYTE   N03
 BYTE   W03
 BYTE   N03
 BYTE   W03
 BYTE   N03
 BYTE   W03
 BYTE   N03
 BYTE   W03
 BYTE   N03
 BYTE   W03
 BYTE   N03
 BYTE   W03
 BYTE   N03
 BYTE   W03
 BYTE   N03
 BYTE   W03
 BYTE   N03
 BYTE   W03
 BYTE   N03
 BYTE   W03
// 008   ----------------------------------------
 BYTE   N03
 BYTE   W03
 BYTE   N03
 BYTE   W03
 BYTE   N03
 BYTE   W03
 BYTE   N03
 BYTE   W03
 BYTE   N03
 BYTE   W03
 BYTE   N03
 BYTE   W03
 BYTE   N03
 BYTE   W03
 BYTE   N03
 BYTE   W03
 BYTE   TEMPO   190*KirbyReturntoDreamLandCROWNEDRandomWizard_tbs/2
 BYTE   N44  Ds3
 BYTE   W48
 BYTE   N48  Cs3
 BYTE   W48
// 009   ----------------------------------------
 BYTE   TEMPO   144*KirbyReturntoDreamLandCROWNEDRandomWizard_tbs/2
 BYTE   N06  Gs2
 BYTE   N06  Cn3
 BYTE   N06  Fn3
 BYTE   W03
 BYTE   PAN   c_v-24
 BYTE   W15
 BYTE   N06  Gs2
 BYTE   N06  Cn3
 BYTE   N06  Fn3
 BYTE   W18
 BYTE   Gs2
 BYTE   N06  Cn3
 BYTE   N06  Fn3
 BYTE   W60
// 010   ----------------------------------------
Label_0_0155668F:
 BYTE   PAN   c_v+0
 BYTE   N06  Gs2  v100
 BYTE   N06  Cn3
 BYTE   N06  Fn3
 BYTE   W03
 BYTE   PAN   c_v-24
 BYTE   W15
 BYTE   N06  Gs2
 BYTE   N06  Cn3
 BYTE   N06  Fn3
 BYTE   W18
 BYTE   Gs2
 BYTE   N06  Cn3
 BYTE   N06  Fn3
 BYTE   W60
 BYTE   PEND 
 BYTE   PATT
  POIN2 Label_0_0155668F
 BYTE   PATT
  POIN2 Label_0_0155668F
 BYTE   PATT
  POIN2 Label_0_0155668F
 BYTE   PATT
  POIN2 Label_0_0155668F
 BYTE   PATT
  POIN2 Label_0_0155668F
 BYTE   PATT
  POIN2 Label_0_0155668F
 BYTE   PATT
  POIN2 Label_0_0155668F
 BYTE   PATT
  POIN2 Label_0_0155668F
// 011   ----------------------------------------
 BYTE   N06  Cn3  v100
 BYTE   N06  Ds3
 BYTE   N06  Gs3
 BYTE   W03
 BYTE   PAN   c_v+0
 BYTE   W15
 BYTE   N06  Cn3
 BYTE   N06  Ds3
 BYTE   N06  Gs3
 BYTE   W18
 BYTE   Cn3
 BYTE   N06  Ds3
 BYTE   N06  Gs3
 BYTE   W60
// 012   ----------------------------------------
Label_0_015566EA:
 BYTE   PAN   c_v-24
 BYTE   N06  Gs2  v100
 BYTE   N06  Cn3
 BYTE   N06  Ds3
 BYTE   N06  Gs3
 BYTE   W03
 BYTE   PAN   c_v+0
 BYTE   W09
 BYTE   N06  Cs3
 BYTE   W06
 BYTE   Cn3
 BYTE   N06  Ds3
 BYTE   N06  Gs3
 BYTE   W06
 BYTE   Ds3
 BYTE   W12
 BYTE   Gs2
 BYTE   N06  Cn3
 BYTE   N06  Ds3
 BYTE   N06  Gs3
 BYTE   W12
 BYTE   Cs3
 BYTE   W06
 BYTE   Ds3
 BYTE   W03
 BYTE   Gs2
 BYTE   W15
 BYTE   Cs3
 BYTE   W06
 BYTE   Gs2
 BYTE   W06
 BYTE   Ds3
 BYTE   W06
 BYTE   PAN   c_v-24
 BYTE   N06  Gs2
 BYTE   W03
 BYTE   PAN   c_v+0
 BYTE   W03
 BYTE   PEND 
// 013   ----------------------------------------
Label_0_01556721:
 BYTE   PAN   c_v-24
 BYTE   N06  As2  v100
 BYTE   N06  Cs3
 BYTE   N06  En3
 BYTE   W03
 BYTE   PAN   c_v+0
 BYTE   W15
 BYTE   N06  As2
 BYTE   N06  Cs3
 BYTE   N06  En3
 BYTE   W18
 BYTE   As2
 BYTE   N06  Cs3
 BYTE   N06  En3
 BYTE   W60
 BYTE   PEND 
// 014   ----------------------------------------
Label_0_0155673C:
 BYTE   PAN   c_v-24
 BYTE   N06  Gs2  v100
 BYTE   N06  As2
 BYTE   N06  Cs3
 BYTE   N06  En3
 BYTE   W03
 BYTE   PAN   c_v+0
 BYTE   W09
 BYTE   N06  Cs3
 BYTE   W06
 BYTE   As2
 BYTE   N06  Cs3
 BYTE   N06  En3
 BYTE   W06
 BYTE   Ds3
 BYTE   W12
 BYTE   Gs2
 BYTE   N06  As2
 BYTE   N06  Cs3
 BYTE   N06  En3
 BYTE   W12
 BYTE   Cs3
 BYTE   W06
 BYTE   Ds3
 BYTE   W03
 BYTE   Gs2
 BYTE   W15
 BYTE   Cs3
 BYTE   W06
 BYTE   Gs2
 BYTE   W06
 BYTE   Ds3
 BYTE   W06
 BYTE   PAN   c_v-24
 BYTE   N06  Gs2
 BYTE   W03
 BYTE   PAN   c_v+0
 BYTE   W03
 BYTE   PEND 
// 015   ----------------------------------------
Label_0_01556773:
 BYTE   PAN   c_v-24
 BYTE   N06  Fs2  v100
 BYTE   N06  As2
 BYTE   N06  Cs3
 BYTE   W03
 BYTE   PAN   c_v+0
 BYTE   W15
 BYTE   N06  Fs2
 BYTE   N06  As2
 BYTE   N06  Cs3
 BYTE   W18
 BYTE   Fs2
 BYTE   N06  As2
 BYTE   N06  Cs3
 BYTE   W60
 BYTE   PEND 
 BYTE   PATT
  POIN2 Label_0_01556773
// 016   ----------------------------------------
Label_0_01556793:
 BYTE   N24  Bn2  v100
 BYTE   N24  Ds3
 BYTE   N24  Gs3
 BYTE   W36
 BYTE   N60  Bn2
 BYTE   N60  Ds3
 BYTE   N60  Gs3
 BYTE   W60
 BYTE   PEND 
// 017   ----------------------------------------
Label_0_015567A3:
 BYTE   N24  As2  v100
 BYTE   N24  Cs3
 BYTE   N24  Fs3
 BYTE   W36
 BYTE   N48  As2
 BYTE   N48  Cs3
 BYTE   N48  Fs3
 BYTE   W60
 BYTE   PEND 
// 018   ----------------------------------------
Label_0_015567B3:
 BYTE   N36  Cs2  v100
 BYTE   W36
 BYTE   N06
 BYTE   W06
 BYTE   N06
 BYTE   W06
 BYTE   N12
 BYTE   W12
 BYTE   N12
 BYTE   W12
 BYTE   N24
 BYTE   W24
 BYTE   PEND 
// 019   ----------------------------------------
Label_0_015567C2:
 BYTE   N36  Ds2  v100
 BYTE   W36
 BYTE   N06
 BYTE   W06
 BYTE   N06
 BYTE   W06
 BYTE   N12
 BYTE   W12
 BYTE   N12
 BYTE   W12
 BYTE   N24
 BYTE   W24
 BYTE   PEND 
// 020   ----------------------------------------
Label_0_015567D1:
 BYTE   N36  Gs2  v100
 BYTE   W36
 BYTE   N06
 BYTE   W06
 BYTE   N06
 BYTE   W06
 BYTE   N12
 BYTE   W12
 BYTE   N12
 BYTE   W12
 BYTE   N24
 BYTE   W24
 BYTE   PEND 
// 021   ----------------------------------------
Label_0_015567E0:
 BYTE   N36  Fs2  v100
 BYTE   W36
 BYTE   N06
 BYTE   W06
 BYTE   N06
 BYTE   W06
 BYTE   N12
 BYTE   W12
 BYTE   N12
 BYTE   W12
 BYTE   N24
 BYTE   W24
 BYTE   PEND 
 BYTE   PATT
  POIN2 Label_0_015567B3
 BYTE   PATT
  POIN2 Label_0_015567C2
 BYTE   PATT
  POIN2 Label_0_015567D1
 BYTE   PATT
  POIN2 Label_0_015567E0
// 022   ----------------------------------------
 BYTE   N96  Gs1  v100
 BYTE   N12  Bn1
 BYTE   N12  Ds2
 BYTE   N12  Gs2
 BYTE   W36
 BYTE   Bn1
 BYTE   N12  Ds2
 BYTE   N12  Gs2
 BYTE   W60
// 023   ----------------------------------------
 BYTE   N96  Fs1
 BYTE   N12  As1
 BYTE   N12  Cs2
 BYTE   N12  Fs2
 BYTE   W36
 BYTE   As1
 BYTE   N12  Cs2
 BYTE   N12  Fs2
 BYTE   W60
// 024   ----------------------------------------
 BYTE   N96  Cs1
 BYTE   N12  As1
 BYTE   N12  Cs2
 BYTE   N12  En2
 BYTE   W36
 BYTE   As1
 BYTE   N12  Cs2
 BYTE   N12  En2
 BYTE   W60
// 025   ----------------------------------------
 BYTE   N96  Fs1
 BYTE   N48  As1
 BYTE   N48  Cs2
 BYTE   N48  Fs2
 BYTE   W48
 BYTE   Cs2
 BYTE   N48  Fs2
 BYTE   N48  As2
 BYTE   W48
// 026   ----------------------------------------
 BYTE   N96  Cn1
 BYTE   N96  En1
 BYTE   N96  An1
 BYTE   W96
// 027   ----------------------------------------
 BYTE   N48  Cn1
 BYTE   N48  En1
 BYTE   N48  An1
 BYTE   W48
 BYTE   N24  Gs1
 BYTE   N24  Bn1
 BYTE   N24  En2
 BYTE   W24
 BYTE   Dn1
 BYTE   N24  An1
 BYTE   N24  Dn2
 BYTE   W24
// 028   ----------------------------------------
 BYTE   N96  Cn1
 BYTE   N96  Gn1
 BYTE   N96  Cn2
 BYTE   W96
// 029   ----------------------------------------
 BYTE   N18  An1
 BYTE   N18  Cn2
 BYTE   N18  En2
 BYTE   W18
 BYTE   Gn1
 BYTE   N18  Bn1
 BYTE   N18  Dn2
 BYTE   W18
 BYTE   N12  Fn1
 BYTE   N12  Gn1
 BYTE   N12  Cn2
 BYTE   W12
 BYTE   N18  En1
 BYTE   N18  Fn1
 BYTE   N18  Bn1
 BYTE   W18
 BYTE   Cn1
 BYTE   N18  Dn1
 BYTE   N18  Gn1
 BYTE   W18
 BYTE   N12  En0
 BYTE   N12  Bn0
 BYTE   N12  Fn1
 BYTE   W12
// 030   ----------------------------------------
Label_0_0155688A:
 BYTE   N12  Bn1  v100
 BYTE   N12  Bn2
 BYTE   N12  En3
 BYTE   W18
 BYTE   Bn1
 BYTE   N12  Bn2
 BYTE   N12  En3
 BYTE   W18
 BYTE   Bn1
 BYTE   N12  Bn2
 BYTE   N12  En3
 BYTE   W60
 BYTE   PEND 
 BYTE   PATT
  POIN2 Label_0_0155688A
 BYTE   PATT
  POIN2 Label_0_0155688A
 BYTE   PATT
  POIN2 Label_0_0155688A
 BYTE   PATT
  POIN2 Label_0_0155688A
 BYTE   PATT
  POIN2 Label_0_0155688A
 BYTE   PATT
  POIN2 Label_0_0155688A
 BYTE   PATT
  POIN2 Label_0_0155688A
 BYTE   PATT
  POIN2 Label_0_0155688A
 BYTE   PATT
  POIN2 Label_0_0155688A
// 031   ----------------------------------------
 BYTE   PAN   c_v-24
 BYTE   N06  Cn3  v100
 BYTE   N06  Ds3
 BYTE   N06  Gs3
 BYTE   W03
 BYTE   PAN   c_v+0
 BYTE   W15
 BYTE   N06  Cn3
 BYTE   N06  Ds3
 BYTE   N06  Gs3
 BYTE   W18
 BYTE   Cn3
 BYTE   N06  Ds3
 BYTE   N06  Gs3
 BYTE   W60
 BYTE   PATT
  POIN2 Label_0_015566EA
 BYTE   PATT
  POIN2 Label_0_01556721
 BYTE   PATT
  POIN2 Label_0_0155673C
 BYTE   PATT
  POIN2 Label_0_01556773
 BYTE   PATT
  POIN2 Label_0_01556773
 BYTE   PATT
  POIN2 Label_0_01556793
 BYTE   PATT
  POIN2 Label_0_015567A3
 BYTE   PATT
  POIN2 Label_0_015567B3
 BYTE   PATT
  POIN2 Label_0_015567C2
 BYTE   PATT
  POIN2 Label_0_015567D1
 BYTE   PATT
  POIN2 Label_0_015567E0
 BYTE   PATT
  POIN2 Label_0_015567B3
 BYTE   PATT
  POIN2 Label_0_015567C2
// 032   ----------------------------------------
 BYTE   N96  Fn2  v100
 BYTE   N36  An2
 BYTE   W36
 BYTE   N06
 BYTE   W06
 BYTE   N06
 BYTE   W06
 BYTE   N12
 BYTE   W12
 BYTE   N12
 BYTE   W12
 BYTE   N24
 BYTE   W24
// 033   ----------------------------------------
 BYTE   N48  Cn3
 BYTE   W48
 BYTE   N24  Bn2
 BYTE   W24
 BYTE   N18  Gn1
 BYTE   N18  Gn2
 BYTE   W03
 BYTE   PAN   c_v-24
 BYTE   W15
 BYTE   N06  Gn1
 BYTE   N06  Gn2
 BYTE   W03
 BYTE   PAN   c_v+0
 BYTE   W03
// 034   ----------------------------------------
Label_0_0155694D:
 BYTE   N72  Cn2  v100
 BYTE   N72  Cn3
 BYTE   W72
 BYTE   N18  Cn2
 BYTE   N18  Cn3
 BYTE   W18
 BYTE   N06  Ds2
 BYTE   N06  Ds3
 BYTE   W06
 BYTE   PEND 
// 035   ----------------------------------------
 BYTE   N12  Gn2
 BYTE   N12  Gn3
 BYTE   W12
 BYTE   Cn3
 BYTE   N12  Cn4
 BYTE   W12
 BYTE   As2
 BYTE   N12  As3
 BYTE   W12
 BYTE   Gs2
 BYTE   N12  Gs3
 BYTE   W12
 BYTE   N24  Gn2
 BYTE   N24  Gn3
 BYTE   W24
 BYTE   N18  Gn1
 BYTE   N18  Gn2
 BYTE   W18
 BYTE   N06  Gn1
 BYTE   N06  Gn2
 BYTE   W06
 BYTE   PATT
  POIN2 Label_0_0155694D
// 036   ----------------------------------------
 BYTE   N12  Fn2  v100
 BYTE   N12  Fn3
 BYTE   W12
 BYTE   As2
 BYTE   N12  As3
 BYTE   W12
 BYTE   Fn2
 BYTE   N12  Fn3
 BYTE   W12
 BYTE   Dn2
 BYTE   N12  Dn3
 BYTE   W12
 BYTE   N48  As1
 BYTE   N48  As2
 BYTE   W48
// 037   ----------------------------------------
 BYTE   Fn2
 BYTE   W48
 BYTE   As1
 BYTE   W48
// 038   ----------------------------------------
Label_0_0155699E:
 BYTE   N48  Ds2  v100
 BYTE   W48
 BYTE   Dn2
 BYTE   W48
 BYTE   PEND 
// 039   ----------------------------------------
 BYTE   N96  Cn2
 BYTE   W96
// 040   ----------------------------------------
 BYTE   Gn1
 BYTE   W96
// 041   ----------------------------------------
 BYTE   N48  Gs3
 BYTE   W48
 BYTE   Fn3
 BYTE   W48
// 042   ----------------------------------------
 BYTE   N48
 BYTE   W48
 BYTE   Ds3
 BYTE   W48
// 043   ----------------------------------------
 BYTE   N96  Fn2
 BYTE   W96
 BYTE   PATT
  POIN2 Label_0_0155699E
// 044   ----------------------------------------
 BYTE   N96  Cn2  v100
 BYTE   W96
// 045   ----------------------------------------
 BYTE   W96
// 046   ----------------------------------------
 BYTE   W96
// 047   ----------------------------------------
 BYTE   W96
// 048   ----------------------------------------
 BYTE   W96
// 049   ----------------------------------------
 BYTE   W96
// 050   ----------------------------------------
 BYTE   W96
// 051   ----------------------------------------
 BYTE   W96
// 052   ----------------------------------------
 BYTE   N06  Gs2
 BYTE   N06  Cn3
 BYTE   N06  Fn3
 BYTE   W03
 BYTE   PAN   c_v-24
 BYTE   W15
 BYTE   N06  Gs2
 BYTE   N06  Cn3
 BYTE   N06  Fn3
 BYTE   W18
 BYTE   Gs2
 BYTE   N06  Cn3
 BYTE   N06  Fn3
 BYTE   W60
// 053   ----------------------------------------
 BYTE   GoTo
  POIN2 Label_0_0155668F
 BYTE   FINE

//**************** Track 2 (Midi-Chn.1) ****************//

KirbyReturntoDreamLandCROWNEDRandomWizard_002:
// 000   ----------------------------------------
 BYTE   KEYSH   KirbyReturntoDreamLandCROWNEDRandomWizard_key+0
 BYTE   W09
 BYTE   W03
 BYTE   VOL   35*KirbyReturntoDreamLandCROWNEDRandomWizard_mvl/mxv
 BYTE   W03
 BYTE   PAN   c_v+0
 BYTE   W03
 BYTE   W03
 BYTE   W03
 BYTE   VOICE   41
 BYTE   N03  Gs3  v100
 BYTE   W03
 BYTE   As3
 BYTE   W03
 BYTE   Gs3
 BYTE   W03
 BYTE   As3
 BYTE   W03
 BYTE   Gs3
 BYTE   W03
 BYTE   As3
 BYTE   W03
 BYTE   Gs3
 BYTE   W03
 BYTE   As3
 BYTE   W03
 BYTE   Gs3
 BYTE   W03
 BYTE   As3
 BYTE   W03
 BYTE   Gs3
 BYTE   W03
 BYTE   As3
 BYTE   W03
 BYTE   Gs3
 BYTE   W03
 BYTE   As3
 BYTE   W03
 BYTE   Gs3
 BYTE   W03
 BYTE   As3
 BYTE   W03
 BYTE   Gs3
 BYTE   W03
 BYTE   As3
 BYTE   W03
 BYTE   Gs3
 BYTE   W03
 BYTE   As3
 BYTE   W03
 BYTE   Gs3
 BYTE   W03
 BYTE   As3
 BYTE   W03
 BYTE   Gs3
 BYTE   W03
 BYTE   As3
 BYTE   W03
// 001   ----------------------------------------
 BYTE   Gs3
 BYTE   W03
 BYTE   As3
 BYTE   W03
 BYTE   Gs3
 BYTE   W03
 BYTE   As3
 BYTE   W03
 BYTE   Gs3
 BYTE   W03
 BYTE   As3
 BYTE   W03
 BYTE   Gs3
 BYTE   W03
 BYTE   As3
 BYTE   W03
 BYTE   Cn4
 BYTE   W03
 BYTE   Cs4
 BYTE   W03
 BYTE   Cn4
 BYTE   W03
 BYTE   Cs4
 BYTE   W03
 BYTE   Cn4
 BYTE   W03
 BYTE   Cs4
 BYTE   W03
 BYTE   Cn4
 BYTE   W03
 BYTE   Cs4
 BYTE   W03
 BYTE   Cn4
 BYTE   W03
 BYTE   Cs4
 BYTE   W03
 BYTE   Cn4
 BYTE   W03
 BYTE   Cs4
 BYTE   W03
 BYTE   Cn4
 BYTE   W03
 BYTE   Cs4
 BYTE   W03
 BYTE   Cn4
 BYTE   W03
 BYTE   Cs4
 BYTE   W03
 BYTE   Cn4
 BYTE   W03
 BYTE   Cs4
 BYTE   W03
 BYTE   Cn4
 BYTE   W03
 BYTE   Cs4
 BYTE   W03
 BYTE   Cn4
 BYTE   W03
 BYTE   Cs4
 BYTE   W03
 BYTE   Cn4
 BYTE   W03
 BYTE   Cs4
 BYTE   W03
// 002   ----------------------------------------
 BYTE   Cn4
 BYTE   W03
 BYTE   Cs4
 BYTE   W03
 BYTE   Cn4
 BYTE   W03
 BYTE   Cs4
 BYTE   W03
 BYTE   Cn4
 BYTE   W03
 BYTE   Cs4
 BYTE   W03
 BYTE   Cn4
 BYTE   W03
 BYTE   Cs4
 BYTE   W03
Label_1_01556A74:
 BYTE   N03  Gn4  v100
 BYTE   W03
 BYTE   Gs4
 BYTE   W03
 BYTE   Gn4
 BYTE   W03
 BYTE   Gs4
 BYTE   W03
 BYTE   Gn4
 BYTE   W03
 BYTE   Gs4
 BYTE   W03
 BYTE   Gn4
 BYTE   W03
 BYTE   Gs4
 BYTE   W03
 BYTE   Gn4
 BYTE   W03
 BYTE   Gs4
 BYTE   W03
 BYTE   Gn4
 BYTE   W03
 BYTE   Gs4
 BYTE   W03
 BYTE   Gn4
 BYTE   W03
 BYTE   Gs4
 BYTE   W03
 BYTE   Gn4
 BYTE   W03
 BYTE   Gs4
 BYTE   W03
 BYTE   Gn4
 BYTE   W03
 BYTE   Gs4
 BYTE   W03
 BYTE   Gn4
 BYTE   W03
 BYTE   Gs4
 BYTE   W03
 BYTE   Gn4
 BYTE   W03
 BYTE   Gs4
 BYTE   W03
 BYTE   Gn4
 BYTE   W03
 BYTE   Gs4
 BYTE   W03
// 003   ----------------------------------------
 BYTE   Gn4
 BYTE   W03
 BYTE   Gs4
 BYTE   W03
 BYTE   Gn4
 BYTE   W03
 BYTE   Gs4
 BYTE   W03
 BYTE   Gn4
 BYTE   W03
 BYTE   Gs4
 BYTE   W03
 BYTE   Gn4
 BYTE   W03
 BYTE   Gs4
 BYTE   W03
 BYTE   PEND 
 BYTE   PATT
  POIN2 Label_1_01556A74
// 004   ----------------------------------------
 BYTE   N03  Gs4  v100
 BYTE   W03
 BYTE   As4
 BYTE   W03
 BYTE   Gs4
 BYTE   W03
 BYTE   As4
 BYTE   W03
 BYTE   Gs4
 BYTE   W03
 BYTE   As4
 BYTE   W03
 BYTE   Gs4
 BYTE   W03
 BYTE   As4
 BYTE   W03
 BYTE   Gs4
 BYTE   W03
 BYTE   As4
 BYTE   W03
 BYTE   Gs4
 BYTE   W03
 BYTE   As4
 BYTE   W03
 BYTE   Gs4
 BYTE   W03
 BYTE   As4
 BYTE   W03
 BYTE   Gs4
 BYTE   W03
 BYTE   As4
 BYTE   W03
 BYTE   Gs4
 BYTE   W03
 BYTE   As4
 BYTE   W03
 BYTE   Gs4
 BYTE   W03
 BYTE   As4
 BYTE   W03
 BYTE   Gs4
 BYTE   W03
 BYTE   As4
 BYTE   W03
 BYTE   Gs4
 BYTE   W03
 BYTE   As4
 BYTE   W03
 BYTE   Gs4
 BYTE   W03
 BYTE   As4
 BYTE   W03
 BYTE   Gs4
 BYTE   W03
 BYTE   As4
 BYTE   W03
 BYTE   Gs4
 BYTE   W03
 BYTE   As4
 BYTE   W03
 BYTE   Gs4
 BYTE   W03
 BYTE   As4
 BYTE   W03
// 005   ----------------------------------------
 BYTE   N03
 BYTE   W03
 BYTE   Cn5
 BYTE   W03
 BYTE   As4
 BYTE   W03
 BYTE   Cn5
 BYTE   W03
 BYTE   As4
 BYTE   W03
 BYTE   Cn5
 BYTE   W03
 BYTE   As4
 BYTE   W03
 BYTE   Cn5
 BYTE   W03
 BYTE   As4
 BYTE   W03
 BYTE   Cn5
 BYTE   W03
 BYTE   As4
 BYTE   W03
 BYTE   Cn5
 BYTE   W03
 BYTE   As4
 BYTE   W03
 BYTE   Cn5
 BYTE   W03
 BYTE   As4
 BYTE   W03
 BYTE   Cn5
 BYTE   W03
 BYTE   As4
 BYTE   W03
 BYTE   Cn5
 BYTE   W03
 BYTE   As4
 BYTE   W03
 BYTE   Cn5
 BYTE   W03
 BYTE   As4
 BYTE   W03
 BYTE   Cn5
 BYTE   W03
 BYTE   As4
 BYTE   W03
 BYTE   Cn5
 BYTE   W03
 BYTE   As4
 BYTE   W03
 BYTE   Cn5
 BYTE   W03
 BYTE   As4
 BYTE   W03
 BYTE   Cn5
 BYTE   W03
 BYTE   As4
 BYTE   W03
 BYTE   Cn5
 BYTE   W03
 BYTE   As4
 BYTE   W03
 BYTE   Cn5
 BYTE   W03
// 006   ----------------------------------------
 BYTE   W24
 BYTE   En3
 BYTE   W03
 BYTE   N03
 BYTE   W03
 BYTE   N03
 BYTE   W03
 BYTE   N03
 BYTE   W03
 BYTE   N03
 BYTE   W12
 BYTE   Dn3
 BYTE   W03
 BYTE   N03
 BYTE   W03
 BYTE   N03
 BYTE   W03
 BYTE   N03
 BYTE   W03
 BYTE   N03
 BYTE   W12
 BYTE   Cn3
 BYTE   W03
 BYTE   N03
 BYTE   W03
 BYTE   N03
 BYTE   W03
 BYTE   N03
 BYTE   W03
 BYTE   N03
 BYTE   W12
// 007   ----------------------------------------
 BYTE   Gn2
 BYTE   W03
 BYTE   N03
 BYTE   W03
 BYTE   N03
 BYTE   W03
 BYTE   N03
 BYTE   W03
 BYTE   N03
 BYTE   W12
 BYTE   En2
 BYTE   W03
 BYTE   N03
 BYTE   W03
 BYTE   N03
 BYTE   W03
 BYTE   N03
 BYTE   W03
 BYTE   N03
 BYTE   W60
// 008   ----------------------------------------
 BYTE   W96
// 009   ----------------------------------------
Label_1_01556B72:
 BYTE   N06  Fn1  v100
 BYTE   W03
 BYTE   PAN   c_v-24
 BYTE   W15
 BYTE   N06
 BYTE   W18
 BYTE   N06
 BYTE   W60
 BYTE   PEND 
// 010   ----------------------------------------
Label_1_01556B7E:
 BYTE   PAN   c_v+0
 BYTE   N06  Fn1  v100
 BYTE   W03
 BYTE   PAN   c_v-24
 BYTE   W15
 BYTE   N06
 BYTE   W18
 BYTE   N06
 BYTE   W60
 BYTE   PEND 
// 011   ----------------------------------------
Label_1_01556B8C:
 BYTE   PAN   c_v+0
 BYTE   N06  Fn1  v100
 BYTE   W03
 BYTE   PAN   c_v-24
 BYTE   W03
 BYTE   N06  Fn3
 BYTE   W06
 BYTE   N06
 BYTE   W06
 BYTE   Fn1
 BYTE   N06  Fn3
 BYTE   W06
 BYTE   N06
 BYTE   W06
 BYTE   N06
 BYTE   W06
 BYTE   Fn1
 BYTE   N06  Fn3
 BYTE   W06
 BYTE   N06
 BYTE   W06
 BYTE   N06
 BYTE   W06
 BYTE   Ds3
 BYTE   W06
 BYTE   Gn3
 BYTE   W06
 BYTE   Fn3
 BYTE   W06
 BYTE   Gs3
 BYTE   W06
 BYTE   Fn3
 BYTE   W06
 BYTE   As3
 BYTE   W06
 BYTE   TIE  Ds4
 BYTE   W06
 BYTE   PEND 
 BYTE   PATT
  POIN2 Label_1_01556B7E
// 012   ----------------------------------------
 BYTE   EOT
 BYTE   Ds4
 BYTE   PATT
  POIN2 Label_1_01556B8C
 BYTE   PATT
  POIN2 Label_1_01556B7E
// 013   ----------------------------------------
 BYTE   EOT
 BYTE   Ds4
 BYTE   PAN   c_v+0
 BYTE   N06  Fn1  v100
 BYTE   W03
 BYTE   PAN   c_v-24
 BYTE   W03
 BYTE   N06  Fn3
 BYTE   W06
 BYTE   N06
 BYTE   W06
 BYTE   Fn1
 BYTE   N06  Fn3
 BYTE   W06
 BYTE   N06
 BYTE   W06
 BYTE   N06
 BYTE   W06
 BYTE   Fn1
 BYTE   N06  Fn3
 BYTE   W06
 BYTE   N06
 BYTE   W06
 BYTE   N06
 BYTE   W06
 BYTE   Ds3
 BYTE   W06
 BYTE   Gn3
 BYTE   W06
 BYTE   Fn3
 BYTE   W06
 BYTE   Gs3
 BYTE   W06
 BYTE   Fn3
 BYTE   W06
 BYTE   As3
 BYTE   W06
 BYTE   N78  Ds4
 BYTE   W06
// 014   ----------------------------------------
 BYTE   PAN   c_v+0
 BYTE   N06  Fn1
 BYTE   W03
 BYTE   PAN   c_v-24
 BYTE   W15
 BYTE   N06
 BYTE   W18
 BYTE   N06
 BYTE   W36
 BYTE   N24  Cs4
 BYTE   W24
// 015   ----------------------------------------
 BYTE   PAN   c_v+0
 BYTE   N06  Fn1
 BYTE   N24  Cn4
 BYTE   W03
 BYTE   PAN   c_v-24
 BYTE   W15
 BYTE   N06  Fn1
 BYTE   W06
 BYTE   N24  Gn4
 BYTE   W12
 BYTE   N06  Fn1
 BYTE   W12
 BYTE   N24  As3
 BYTE   W24
 BYTE   Gs3
 BYTE   W24
// 016   ----------------------------------------
 BYTE   PAN   c_v+0
 BYTE   N06  Fn1
 BYTE   N72  Gn3
 BYTE   W03
 BYTE   PAN   c_v-24
 BYTE   W15
 BYTE   N06  Fn1
 BYTE   W18
 BYTE   N06
 BYTE   W60
// 017   ----------------------------------------
 BYTE   Gs1
 BYTE   W03
 BYTE   PAN   c_v+0
 BYTE   W15
 BYTE   N06
 BYTE   W06
 BYTE   Gs3
 BYTE   N06  Ds4
 BYTE   W06
 BYTE   Gs3
 BYTE   N06  Ds4
 BYTE   W06
 BYTE   Gs1
 BYTE   N06  Gs3
 BYTE   N06  Ds4
 BYTE   W24
 BYTE   Gs3
 BYTE   N06  Ds4
 BYTE   W06
 BYTE   Gs3
 BYTE   N06  Ds4
 BYTE   W06
 BYTE   Gs3
 BYTE   N06  Ds4
 BYTE   W24
// 018   ----------------------------------------
Label_1_01556C51:
 BYTE   PAN   c_v-24
 BYTE   N06  Gs1  v100
 BYTE   N12  Gs2
 BYTE   W03
 BYTE   PAN   c_v+0
 BYTE   W09
 BYTE   N12  Cs3
 BYTE   W06
 BYTE   N06  Gs1
 BYTE   W06
 BYTE   N12  Ds3
 BYTE   N06  Gs3
 BYTE   N06  Ds4
 BYTE   W06
 BYTE   Gs3
 BYTE   N06  Ds4
 BYTE   W06
 BYTE   Gs1
 BYTE   N12  Gs2
 BYTE   N06  Gs3
 BYTE   N06  Ds4
 BYTE   W12
 BYTE   Cs3
 BYTE   W06
 BYTE   Ds3
 BYTE   W06
 BYTE   N12  Gs2
 BYTE   N06  Gs3
 BYTE   N06  Ds4
 BYTE   W06
 BYTE   Gs3
 BYTE   N06  Ds4
 BYTE   W06
 BYTE   Cs3
 BYTE   N06  Gs3
 BYTE   N06  Ds4
 BYTE   W06
 BYTE   Gs2
 BYTE   W06
 BYTE   Ds3
 BYTE   W06
 BYTE   PAN   c_v-24
 BYTE   N06  Gs2
 BYTE   W03
 BYTE   PAN   c_v+0
 BYTE   W03
 BYTE   PEND 
// 019   ----------------------------------------
Label_1_01556C97:
 BYTE   PAN   c_v-24
 BYTE   N06  En1  v100
 BYTE   W03
 BYTE   PAN   c_v+0
 BYTE   W15
 BYTE   N06
 BYTE   W06
 BYTE   Gs3
 BYTE   N06  Ds4
 BYTE   W06
 BYTE   Gs3
 BYTE   N06  Ds4
 BYTE   W06
 BYTE   En1
 BYTE   N06  Gs3
 BYTE   N06  Ds4
 BYTE   W24
 BYTE   Gs3
 BYTE   N06  Ds4
 BYTE   W06
 BYTE   Gs3
 BYTE   N06  Ds4
 BYTE   W06
 BYTE   Gs3
 BYTE   N06  Ds4
 BYTE   W24
 BYTE   PEND 
// 020   ----------------------------------------
Label_1_01556CBD:
 BYTE   PAN   c_v-24
 BYTE   N06  En1  v100
 BYTE   N12  Gs2
 BYTE   W03
 BYTE   PAN   c_v+0
 BYTE   W09
 BYTE   N12  Cs3
 BYTE   W06
 BYTE   N06  En1
 BYTE   W06
 BYTE   N12  Ds3
 BYTE   N06  Gs3
 BYTE   N06  Ds4
 BYTE   W06
 BYTE   Gs3
 BYTE   N06  Ds4
 BYTE   W06
 BYTE   En1
 BYTE   N12  Gs2
 BYTE   N06  Gs3
 BYTE   N06  Ds4
 BYTE   W12
 BYTE   Cs3
 BYTE   W06
 BYTE   Ds3
 BYTE   W06
 BYTE   N12  Gs2
 BYTE   N06  Gs3
 BYTE   N06  Ds4
 BYTE   W06
 BYTE   Gs3
 BYTE   N06  Ds4
 BYTE   W06
 BYTE   Cs3
 BYTE   N06  Gs3
 BYTE   N06  Ds4
 BYTE   W06
 BYTE   Gs2
 BYTE   W06
 BYTE   Ds3
 BYTE   W06
 BYTE   PAN   c_v-24
 BYTE   N06  Gs2
 BYTE   W03
 BYTE   PAN   c_v+0
 BYTE   W03
 BYTE   PEND 
// 021   ----------------------------------------
Label_1_01556D03:
 BYTE   PAN   c_v-24
 BYTE   N06  Cs1  v100
 BYTE   W03
 BYTE   PAN   c_v+0
 BYTE   W15
 BYTE   N06
 BYTE   W06
 BYTE   Ds3
 BYTE   N06  Gs3
 BYTE   N06  Bn3
 BYTE   W06
 BYTE   Ds3
 BYTE   N06  Gs3
 BYTE   N06  Bn3
 BYTE   W06
 BYTE   Cs1
 BYTE   N06  Ds3
 BYTE   N06  Gs3
 BYTE   N06  Bn3
 BYTE   W24
 BYTE   Ds3
 BYTE   N06  Gs3
 BYTE   N06  Bn3
 BYTE   W06
 BYTE   Ds3
 BYTE   N06  Gs3
 BYTE   N06  Bn3
 BYTE   W06
 BYTE   Ds3
 BYTE   N06  Gs3
 BYTE   N06  Bn3
 BYTE   W24
 BYTE   PEND 
 BYTE   PATT
  POIN2 Label_1_01556D03
// 022   ----------------------------------------
Label_1_01556D3A:
 BYTE   N24  Ds1  v100
 BYTE   N24  Gs1
 BYTE   W36
 BYTE   N60  Ds1
 BYTE   N60  Gs1
 BYTE   W60
 BYTE   PEND 
// 023   ----------------------------------------
Label_1_01556D46:
 BYTE   N24  Cs1  v100
 BYTE   N24  Fs1
 BYTE   W36
 BYTE   N44  Cs1
 BYTE   N44  Fs1
 BYTE   W60
 BYTE   PEND 
// 024   ----------------------------------------
Label_1_01556D52:
 BYTE   N12  Cs1  v100
 BYTE   W36
 BYTE   N06
 BYTE   W06
 BYTE   N06
 BYTE   W18
 BYTE   N12
 BYTE   W12
 BYTE   N12
 BYTE   W24
 BYTE   PEND 
// 025   ----------------------------------------
Label_1_01556D5F:
 BYTE   N12  Ds1  v100
 BYTE   W36
 BYTE   N06
 BYTE   W06
 BYTE   N06
 BYTE   W06
 BYTE   N12
 BYTE   W12
 BYTE   N12
 BYTE   W12
 BYTE   N24
 BYTE   W24
 BYTE   PEND 
// 026   ----------------------------------------
 BYTE   N12  Gs1
 BYTE   W06
 BYTE   N06  Gs3
 BYTE   W06
 BYTE   N06
 BYTE   W06
 BYTE   N06
 BYTE   W06
 BYTE   N06
 BYTE   W06
 BYTE   N06
 BYTE   W06
 BYTE   Gs1
 BYTE   N06  Gs3
 BYTE   W06
 BYTE   Gs1
 BYTE   N06  Gs3
 BYTE   W06
 BYTE   N12  Gs1
 BYTE   N06  Gs3
 BYTE   W06
 BYTE   N06
 BYTE   W06
 BYTE   N12  Gs1
 BYTE   N06  Gs3
 BYTE   W06
 BYTE   N06
 BYTE   W06
 BYTE   N24  Gs1
 BYTE   N06  Gs3
 BYTE   W06
 BYTE   As3
 BYTE   W06
 BYTE   Bn3
 BYTE   W06
 BYTE   Gs3
 BYTE   W06
// 027   ----------------------------------------
Label_1_01556D9D:
 BYTE   N12  Fs1  v100
 BYTE   N18  Fs4
 BYTE   W18
 BYTE   Cs4
 BYTE   W18
 BYTE   N06  Fs1
 BYTE   N12  Ds4
 BYTE   W06
 BYTE   N06  Fs1
 BYTE   W06
 BYTE   N12
 BYTE   N18  Ds3
 BYTE   W12
 BYTE   N12  Fs1
 BYTE   W06
 BYTE   N18  Cs3
 BYTE   W06
 BYTE   N24  Fs1
 BYTE   W12
 BYTE   N12  Fs3
 BYTE   W12
 BYTE   PEND 
 BYTE   PATT
  POIN2 Label_1_01556D52
 BYTE   PATT
  POIN2 Label_1_01556D5F
// 028   ----------------------------------------
 BYTE   N12  Gs1  v100
 BYTE   W36
 BYTE   N06
 BYTE   W06
 BYTE   N06
 BYTE   W06
 BYTE   N12
 BYTE   W12
 BYTE   N12
 BYTE   W12
 BYTE   N24
 BYTE   W24
// 029   ----------------------------------------
 BYTE   N12  Fs1
 BYTE   W36
 BYTE   N06
 BYTE   W06
 BYTE   N06
 BYTE   W06
 BYTE   N12
 BYTE   W12
 BYTE   N12
 BYTE   W12
 BYTE   N24
 BYTE   W24
// 030   ----------------------------------------
Label_1_01556DE3:
 BYTE   W12
 BYTE   N06  Ds2  v100
 BYTE   N06  Gs2
 BYTE   W06
 BYTE   Ds2
 BYTE   N06  Gs2
 BYTE   W06
 BYTE   Ds3
 BYTE   N06  Gs3
 BYTE   W06
 BYTE   Ds3
 BYTE   N06  Gs3
 BYTE   W06
 BYTE   Ds3
 BYTE   N06  Gs3
 BYTE   W12
 BYTE   Ds2
 BYTE   N06  Gs2
 BYTE   W06
 BYTE   Ds2
 BYTE   N06  Gs2
 BYTE   W06
 BYTE   Ds3
 BYTE   N06  Gs3
 BYTE   W06
 BYTE   Ds3
 BYTE   N06  Gs3
 BYTE   W06
 BYTE   Ds3
 BYTE   N06  Gs3
 BYTE   W12
 BYTE   Ds3
 BYTE   N06  Gs3
 BYTE   W06
 BYTE   Ds3
 BYTE   N06  Gs3
 BYTE   W06
 BYTE   PEND 
// 031   ----------------------------------------
 BYTE   W12
 BYTE   Ds2
 BYTE   N06  Gs2
 BYTE   W06
 BYTE   Ds2
 BYTE   N06  Gs2
 BYTE   W06
 BYTE   En3
 BYTE   N06  Bn3
 BYTE   W06
 BYTE   En3
 BYTE   N06  Bn3
 BYTE   W06
 BYTE   En3
 BYTE   N06  Bn3
 BYTE   W12
 BYTE   Ds2
 BYTE   N06  Gs2
 BYTE   W06
 BYTE   Ds2
 BYTE   N06  Gs2
 BYTE   W06
 BYTE   En3
 BYTE   N06  Bn3
 BYTE   W06
 BYTE   En3
 BYTE   N06  Bn3
 BYTE   W06
 BYTE   En3
 BYTE   N06  Bn3
 BYTE   W12
 BYTE   En3
 BYTE   N06  Bn3
 BYTE   W06
 BYTE   En3
 BYTE   N06  Bn3
 BYTE   W06
 BYTE   PATT
  POIN2 Label_1_01556DE3
// 032   ----------------------------------------
 BYTE   W12
 BYTE   N06  Cs2  v100
 BYTE   N06  Fs2
 BYTE   W06
 BYTE   Cs2
 BYTE   N06  Fs2
 BYTE   W06
 BYTE   Cs3
 BYTE   N06  Fs3
 BYTE   W06
 BYTE   Cs3
 BYTE   N06  Fs3
 BYTE   W06
 BYTE   Cs3
 BYTE   N06  Fs3
 BYTE   W12
 BYTE   Cs2
 BYTE   N06  Fs2
 BYTE   W06
 BYTE   Cs2
 BYTE   N06  Fs2
 BYTE   W06
 BYTE   Cs3
 BYTE   N06  Fs3
 BYTE   W06
 BYTE   Cs3
 BYTE   N06  Fs3
 BYTE   W06
 BYTE   Cs3
 BYTE   N06  Fs3
 BYTE   W12
 BYTE   Cs3
 BYTE   N06  Fs3
 BYTE   W06
 BYTE   Cs3
 BYTE   N06  Fs3
 BYTE   W06
// 033   ----------------------------------------
 BYTE   An3
 BYTE   W06
 BYTE   Bn3
 BYTE   W06
 BYTE   Cs4
 BYTE   W06
 BYTE   An3
 BYTE   W06
 BYTE   Bn3
 BYTE   W06
 BYTE   Cs4
 BYTE   W06
 BYTE   An3
 BYTE   W06
 BYTE   Bn3
 BYTE   W06
 BYTE   Cs4
 BYTE   W06
 BYTE   An3
 BYTE   W06
 BYTE   Bn3
 BYTE   W06
 BYTE   Cs4
 BYTE   W06
 BYTE   Ds4
 BYTE   W06
 BYTE   Cs4
 BYTE   W06
 BYTE   Bn3
 BYTE   W06
 BYTE   An3
 BYTE   W06
// 034   ----------------------------------------
 BYTE   N06
 BYTE   W06
 BYTE   Bn3
 BYTE   W06
 BYTE   Cn4
 BYTE   W06
 BYTE   An3
 BYTE   W06
 BYTE   Bn3
 BYTE   W06
 BYTE   Cn4
 BYTE   W06
 BYTE   An3
 BYTE   W06
 BYTE   Bn3
 BYTE   W06
 BYTE   Cn4
 BYTE   W06
 BYTE   An3
 BYTE   W06
 BYTE   Bn3
 BYTE   W06
 BYTE   Cn4
 BYTE   W06
 BYTE   Dn4
 BYTE   W06
 BYTE   Cn4
 BYTE   W06
 BYTE   Bn3
 BYTE   W06
 BYTE   An3
 BYTE   W06
// 035   ----------------------------------------
 BYTE   W96
// 036   ----------------------------------------
 BYTE   W96
// 037   ----------------------------------------
 BYTE   N03  En2
 BYTE   W06
 BYTE   Bn1
 BYTE   W06
 BYTE   Fs2
 BYTE   W06
 BYTE   En2
 BYTE   W06
 BYTE   As1
 BYTE   W06
 BYTE   An1
 BYTE   W06
 BYTE   Gn1
 BYTE   W06
 BYTE   An1
 BYTE   W06
 BYTE   En2
 BYTE   W06
 BYTE   Bn1
 BYTE   W06
 BYTE   Gn1
 BYTE   W06
 BYTE   Bn1
 BYTE   W06
 BYTE   Gn2
 BYTE   W06
 BYTE   En2
 BYTE   W06
 BYTE   An2
 BYTE   W06
 BYTE   Gn2
 BYTE   W06
// 038   ----------------------------------------
 BYTE   En2
 BYTE   N18  En3
 BYTE   W06
 BYTE   N03  Bn1
 BYTE   W06
 BYTE   Fs2
 BYTE   W06
 BYTE   En2
 BYTE   N18  En3
 BYTE   W06
 BYTE   N03  As1
 BYTE   W06
 BYTE   An1
 BYTE   W06
 BYTE   Gn1
 BYTE   N18  En3
 BYTE   W06
 BYTE   N03  An1
 BYTE   W06
 BYTE   En2
 BYTE   W06
 BYTE   Bn1
 BYTE   W06
 BYTE   Gn1
 BYTE   W06
 BYTE   Bn1
 BYTE   W06
 BYTE   Gn2
 BYTE   W06
 BYTE   En2
 BYTE   W06
 BYTE   An2
 BYTE   W06
 BYTE   Gn2
 BYTE   W06
// 039   ----------------------------------------
Label_1_01556F0C:
 BYTE   N03  En2  v100
 BYTE   W06
 BYTE   Bn1
 BYTE   N06  En3
 BYTE   W06
 BYTE   N03  Fs2
 BYTE   N06  En3
 BYTE   W06
 BYTE   N03  En2
 BYTE   N06  En3
 BYTE   W06
 BYTE   N03  As1
 BYTE   N06  En3
 BYTE   W06
 BYTE   N03  An1
 BYTE   N06  En3
 BYTE   W06
 BYTE   N03  Gn1
 BYTE   N06  En3
 BYTE   W06
 BYTE   N03  An1
 BYTE   N06  En3
 BYTE   W06
 BYTE   N03  En2
 BYTE   N06  En3
 BYTE   W06
 BYTE   N03  Bn1
 BYTE   N06  Bn2
 BYTE   W06
 BYTE   N03  Gn1
 BYTE   N06  Fs3
 BYTE   W06
 BYTE   N03  Bn1
 BYTE   N06  En3
 BYTE   W06
 BYTE   N03  Gn2
 BYTE   N06  Gn3
 BYTE   W06
 BYTE   N03  En2
 BYTE   N06  Fs3
 BYTE   W06
 BYTE   N03  An2
 BYTE   N06  An3
 BYTE   W06
 BYTE   N03  Gn2
 BYTE   N78  Dn4
 BYTE   W06
 BYTE   PEND 
// 040   ----------------------------------------
Label_1_01556F5B:
 BYTE   N03  En2  v100
 BYTE   N12  En3
 BYTE   W06
 BYTE   N03  Bn1
 BYTE   W06
 BYTE   Fs2
 BYTE   W06
 BYTE   En2
 BYTE   N12  En3
 BYTE   W06
 BYTE   N03  As1
 BYTE   W06
 BYTE   An1
 BYTE   W06
 BYTE   Gn1
 BYTE   N12  En3
 BYTE   W06
 BYTE   N03  An1
 BYTE   W06
 BYTE   En2
 BYTE   W06
 BYTE   Bn1
 BYTE   W06
 BYTE   Gn1
 BYTE   W06
 BYTE   Bn1
 BYTE   W06
 BYTE   Gn2
 BYTE   W06
 BYTE   En2
 BYTE   W06
 BYTE   An2
 BYTE   W06
 BYTE   Gn2
 BYTE   W06
 BYTE   PEND 
 BYTE   PATT
  POIN2 Label_1_01556F0C
 BYTE   PATT
  POIN2 Label_1_01556F5B
 BYTE   PATT
  POIN2 Label_1_01556F0C
// 041   ----------------------------------------
 BYTE   N03  En2  v100
 BYTE   N12  En3
 BYTE   W06
 BYTE   N03  Bn1
 BYTE   W06
 BYTE   Fs2
 BYTE   W06
 BYTE   En2
 BYTE   N12  En3
 BYTE   W06
 BYTE   N03  As1
 BYTE   W06
 BYTE   An1
 BYTE   W06
 BYTE   Gn1
 BYTE   N12  En3
 BYTE   W06
 BYTE   N03  An1
 BYTE   W06
 BYTE   En2
 BYTE   W06
 BYTE   Bn1
 BYTE   W06
 BYTE   Gn1
 BYTE   W06
 BYTE   Bn1
 BYTE   W06
 BYTE   Gn2
 BYTE   N24  Cn4
 BYTE   W06
 BYTE   N03  En2
 BYTE   W06
 BYTE   An2
 BYTE   W06
 BYTE   Gn2
 BYTE   W06
// 042   ----------------------------------------
 BYTE   En2
 BYTE   N24  Bn3
 BYTE   W06
 BYTE   N03  Bn1
 BYTE   W06
 BYTE   Fs2
 BYTE   W06
 BYTE   En2
 BYTE   W06
 BYTE   As1
 BYTE   N24  Fs4
 BYTE   W06
 BYTE   N03  An1
 BYTE   W06
 BYTE   Gn1
 BYTE   W06
 BYTE   An1
 BYTE   W06
 BYTE   En2
 BYTE   N24  An3
 BYTE   W06
 BYTE   N03  Bn1
 BYTE   W06
 BYTE   Gn1
 BYTE   W06
 BYTE   Bn1
 BYTE   W06
 BYTE   Gn2
 BYTE   N24  Gn3
 BYTE   W06
 BYTE   N03  En2
 BYTE   W06
 BYTE   An2
 BYTE   W06
 BYTE   Gn2
 BYTE   W06
// 043   ----------------------------------------
 BYTE   En2
 BYTE   N96  Fs3
 BYTE   W06
 BYTE   N03  Bn1
 BYTE   W06
 BYTE   Fs2
 BYTE   W06
 BYTE   En2
 BYTE   W06
 BYTE   As1
 BYTE   W06
 BYTE   An1
 BYTE   W06
 BYTE   Gn1
 BYTE   W06
 BYTE   An1
 BYTE   W06
 BYTE   En2
 BYTE   W06
 BYTE   Bn1
 BYTE   W06
 BYTE   Gn1
 BYTE   W06
 BYTE   Bn1
 BYTE   W06
 BYTE   Gn2
 BYTE   W06
 BYTE   En2
 BYTE   W06
 BYTE   An2
 BYTE   W06
 BYTE   Gn2
 BYTE   W06
// 044   ----------------------------------------
 BYTE   PAN   c_v-24
 BYTE   N06  Gs1
 BYTE   W03
 BYTE   PAN   c_v+0
 BYTE   W15
 BYTE   N06
 BYTE   W06
 BYTE   Gs3
 BYTE   N06  Ds4
 BYTE   W06
 BYTE   Gs3
 BYTE   N06  Ds4
 BYTE   W06
 BYTE   Gs1
 BYTE   N06  Gs3
 BYTE   N06  Ds4
 BYTE   W24
 BYTE   Gs3
 BYTE   N06  Ds4
 BYTE   W06
 BYTE   Gs3
 BYTE   N06  Ds4
 BYTE   W06
 BYTE   Gs3
 BYTE   N06  Ds4
 BYTE   W24
 BYTE   PATT
  POIN2 Label_1_01556C51
 BYTE   PATT
  POIN2 Label_1_01556C97
 BYTE   PATT
  POIN2 Label_1_01556CBD
 BYTE   PATT
  POIN2 Label_1_01556D03
 BYTE   PATT
  POIN2 Label_1_01556D03
 BYTE   PATT
  POIN2 Label_1_01556D3A
 BYTE   PATT
  POIN2 Label_1_01556D46
 BYTE   PATT
  POIN2 Label_1_01556D52
 BYTE   PATT
  POIN2 Label_1_01556D5F
// 045   ----------------------------------------
 BYTE   N12  Gs1  v100
 BYTE   W06
 BYTE   N06  As2
 BYTE   W06
 BYTE   N06
 BYTE   W06
 BYTE   N06
 BYTE   W06
 BYTE   N06
 BYTE   W06
 BYTE   N06
 BYTE   W06
 BYTE   Gs1
 BYTE   N06  As2
 BYTE   W06
 BYTE   Gs1
 BYTE   N06  As2
 BYTE   W06
 BYTE   N12  Gs1
 BYTE   N06  As2
 BYTE   W06
 BYTE   N06
 BYTE   W06
 BYTE   N12  Gs1
 BYTE   N06  As2
 BYTE   W06
 BYTE   N06
 BYTE   W06
 BYTE   N24  Gs1
 BYTE   N06  As2
 BYTE   W06
 BYTE   Gs2
 BYTE   W06
 BYTE   Bn2
 BYTE   W06
 BYTE   Gs2
 BYTE   W06
 BYTE   PATT
  POIN2 Label_1_01556D9D
 BYTE   PATT
  POIN2 Label_1_01556D52
 BYTE   PATT
  POIN2 Label_1_01556D5F
// 046   ----------------------------------------
 BYTE   N36  Fn1  v100
 BYTE   W36
 BYTE   N06
 BYTE   W06
 BYTE   N06
 BYTE   W06
 BYTE   N12
 BYTE   W12
 BYTE   N12
 BYTE   W12
 BYTE   N24
 BYTE   W24
// 047   ----------------------------------------
 BYTE   N48  Gs1
 BYTE   W48
 BYTE   N24  Gn1
 BYTE   W48
// 048   ----------------------------------------
Label_1_015570B7:
 BYTE   N06  Ds3  v100
 BYTE   W06
 BYTE   Fn3
 BYTE   W06
 BYTE   Cn3
 BYTE   W06
 BYTE   Dn3
 BYTE   W06
 BYTE   Ds3
 BYTE   W06
 BYTE   Fn3
 BYTE   W06
 BYTE   Cn3
 BYTE   W06
 BYTE   Dn3
 BYTE   W06
 BYTE   Ds3
 BYTE   W06
 BYTE   Fn3
 BYTE   W06
 BYTE   Ds3
 BYTE   W06
 BYTE   As3
 BYTE   W06
 BYTE   Fn3
 BYTE   W06
 BYTE   Gn3
 BYTE   W06
 BYTE   Fn3
 BYTE   W06
 BYTE   Ds3
 BYTE   W06
 BYTE   PEND 
 BYTE   PATT
  POIN2 Label_1_015570B7
 BYTE   PATT
  POIN2 Label_1_015570B7
// 049   ----------------------------------------
 BYTE   N06  Ds3  v100
 BYTE   W06
 BYTE   Fn3
 BYTE   W06
 BYTE   Gn3
 BYTE   W06
 BYTE   As3
 BYTE   W06
 BYTE   Gn3
 BYTE   W06
 BYTE   Fn3
 BYTE   W06
 BYTE   Ds3
 BYTE   W06
 BYTE   Cn3
 BYTE   W06
 BYTE   Dn3
 BYTE   W06
 BYTE   Ds3
 BYTE   W06
 BYTE   Fn3
 BYTE   W06
 BYTE   As3
 BYTE   W06
 BYTE   Fn3
 BYTE   W06
 BYTE   Ds3
 BYTE   W06
 BYTE   Dn3
 BYTE   W06
 BYTE   As2
 BYTE   W06
// 050   ----------------------------------------
 BYTE   Gs3
 BYTE   W06
 BYTE   Cn3
 BYTE   W06
 BYTE   Gn3
 BYTE   W06
 BYTE   Cn3
 BYTE   W06
 BYTE   Fn3
 BYTE   W06
 BYTE   Cn3
 BYTE   W06
 BYTE   Ds3
 BYTE   W06
 BYTE   Cn3
 BYTE   W06
 BYTE   Dn3
 BYTE   W06
 BYTE   Cn3
 BYTE   W06
 BYTE   Ds3
 BYTE   W06
 BYTE   Cn3
 BYTE   W06
 BYTE   Fn3
 BYTE   W06
 BYTE   Cn3
 BYTE   W06
 BYTE   As3
 BYTE   W06
 BYTE   Fn3
 BYTE   W06
// 051   ----------------------------------------
 BYTE   Gn3
 BYTE   W06
 BYTE   Gn2
 BYTE   W06
 BYTE   Fn3
 BYTE   W06
 BYTE   Gn2
 BYTE   W06
 BYTE   Ds3
 BYTE   W06
 BYTE   Gn2
 BYTE   W06
 BYTE   Dn3
 BYTE   W06
 BYTE   Gn2
 BYTE   W06
 BYTE   Cn3
 BYTE   W06
 BYTE   Gn2
 BYTE   W06
 BYTE   Dn3
 BYTE   W06
 BYTE   Gn2
 BYTE   W06
 BYTE   As3
 BYTE   W06
 BYTE   Gn2
 BYTE   W03
 BYTE   Ds3
 BYTE   W09
 BYTE   Gn2
 BYTE   W06
// 052   ----------------------------------------
 BYTE   N06
 BYTE   W06
 BYTE   As2
 BYTE   W06
 BYTE   Cn3
 BYTE   W06
 BYTE   Gn2
 BYTE   W06
 BYTE   Cn3
 BYTE   W06
 BYTE   Ds3
 BYTE   W06
 BYTE   Cn3
 BYTE   W06
 BYTE   Ds3
 BYTE   W06
 BYTE   N06
 BYTE   W06
 BYTE   Fn3
 BYTE   W06
 BYTE   Ds3
 BYTE   W06
 BYTE   Fn3
 BYTE   W06
 BYTE   Gn3
 BYTE   W06
 BYTE   As3
 BYTE   W06
 BYTE   Gn3
 BYTE   W06
 BYTE   As3
 BYTE   W06
// 053   ----------------------------------------
 BYTE   Gn3
 BYTE   W06
 BYTE   Gn2
 BYTE   W06
 BYTE   Dn3
 BYTE   W06
 BYTE   Gn2
 BYTE   W06
 BYTE   Gn3
 BYTE   W06
 BYTE   Gn2
 BYTE   W06
 BYTE   Cn4
 BYTE   W06
 BYTE   Gn2
 BYTE   W06
 BYTE   Bn3
 BYTE   W06
 BYTE   Gn2
 BYTE   W06
 BYTE   Gn3
 BYTE   W06
 BYTE   Gn2
 BYTE   W06
 BYTE   Dn3
 BYTE   W06
 BYTE   Gn2
 BYTE   W06
 BYTE   Bn2
 BYTE   W06
 BYTE   Gn2
 BYTE   W06
// 054   ----------------------------------------
 BYTE   Cn3
 BYTE   W06
 BYTE   Cn2
 BYTE   W06
 BYTE   Gn2
 BYTE   W06
 BYTE   Cn2
 BYTE   W06
 BYTE   Cn3
 BYTE   W06
 BYTE   Cn2
 BYTE   W06
 BYTE   Ds3
 BYTE   W06
 BYTE   Cn2
 BYTE   W06
 BYTE   Dn3
 BYTE   W06
 BYTE   Cn2
 BYTE   W06
 BYTE   As2
 BYTE   W06
 BYTE   Cn2
 BYTE   W06
 BYTE   Dn3
 BYTE   W06
 BYTE   Cn2
 BYTE   W06
 BYTE   Fn3
 BYTE   W06
 BYTE   Cn2
 BYTE   W06
// 055   ----------------------------------------
 BYTE   Dn3
 BYTE   W06
 BYTE   Cn2
 BYTE   W06
 BYTE   As2
 BYTE   W06
 BYTE   Cn2
 BYTE   W06
 BYTE   Dn3
 BYTE   W06
 BYTE   Cn2
 BYTE   W06
 BYTE   Fn3
 BYTE   W06
 BYTE   Cn2
 BYTE   W06
 BYTE   Ds3
 BYTE   W06
 BYTE   Cn2
 BYTE   W06
 BYTE   As2
 BYTE   W06
 BYTE   Cn2
 BYTE   W06
 BYTE   Ds3
 BYTE   W06
 BYTE   Cn2
 BYTE   W06
 BYTE   Dn3
 BYTE   W06
 BYTE   Cn2
 BYTE   W06
// 056   ----------------------------------------
 BYTE   N36  Ds3
 BYTE   W03
 BYTE   PAN   c_v-24
 BYTE   W32
 BYTE   W01
 BYTE   N36  Gs3
 BYTE   W15
 BYTE   PAN   c_v+0
 BYTE   W21
 BYTE   N24  Cn4
 BYTE   W24
// 057   ----------------------------------------
 BYTE   N18  Ds4
 BYTE   W18
 BYTE   Gs4
 BYTE   W18
 BYTE   N12  Cn5
 BYTE   W12
 BYTE   N18  Dn5
 BYTE   W18
 BYTE   As4
 BYTE   W18
 BYTE   N12  Fn4
 BYTE   W12
// 058   ----------------------------------------
 BYTE   N06  Cn3
 BYTE   N96  Gn4
 BYTE   W06
 BYTE   N06  Dn3
 BYTE   W06
 BYTE   Ds3
 BYTE   W06
 BYTE   Cn3
 BYTE   W06
 BYTE   Dn3
 BYTE   W06
 BYTE   Ds3
 BYTE   W06
 BYTE   Cn3
 BYTE   W06
 BYTE   Dn3
 BYTE   W06
 BYTE   Ds3
 BYTE   W06
 BYTE   Cn3
 BYTE   W06
 BYTE   Dn3
 BYTE   W06
 BYTE   Ds3
 BYTE   W06
 BYTE   Fn3
 BYTE   W06
 BYTE   Ds3
 BYTE   W06
 BYTE   Dn3
 BYTE   W06
 BYTE   Cn3
 BYTE   W06
// 059   ----------------------------------------
Label_1_0155720A:
 BYTE   N06  Cn3  v100
 BYTE   W06
 BYTE   Dn3
 BYTE   W06
 BYTE   Ds3
 BYTE   W06
 BYTE   Cn3
 BYTE   W06
 BYTE   Dn3
 BYTE   W06
 BYTE   Ds3
 BYTE   W06
 BYTE   Cn3
 BYTE   W06
 BYTE   Dn3
 BYTE   W06
 BYTE   Ds3
 BYTE   W06
 BYTE   Cn3
 BYTE   W06
 BYTE   Dn3
 BYTE   W06
 BYTE   Ds3
 BYTE   W06
 BYTE   Fn3
 BYTE   W06
 BYTE   Ds3
 BYTE   W06
 BYTE   Dn3
 BYTE   W06
 BYTE   Cn3
 BYTE   W06
 BYTE   PEND 
 BYTE   PATT
  POIN2 Label_1_0155720A
// 060   ----------------------------------------
 BYTE   N06  Bn2  v100
 BYTE   W06
 BYTE   Dn3
 BYTE   W06
 BYTE   En3
 BYTE   W06
 BYTE   Bn2
 BYTE   W06
 BYTE   Dn3
 BYTE   W06
 BYTE   En3
 BYTE   W06
 BYTE   Bn2
 BYTE   W06
 BYTE   Dn3
 BYTE   W06
 BYTE   En3
 BYTE   W06
 BYTE   Bn2
 BYTE   W06
 BYTE   Dn3
 BYTE   W06
 BYTE   En3
 BYTE   W06
 BYTE   An3
 BYTE   W06
 BYTE   En3
 BYTE   W06
 BYTE   Cs3
 BYTE   W06
 BYTE   Bn2
 BYTE   W06
 BYTE   PATT
  POIN2 Label_1_0155720A
// 061   ----------------------------------------
 BYTE   N06  Cn3  v100
 BYTE   W06
 BYTE   Dn3
 BYTE   W06
 BYTE   En3
 BYTE   W06
 BYTE   Cn3
 BYTE   W06
 BYTE   Dn3
 BYTE   W06
 BYTE   En3
 BYTE   W06
 BYTE   Cn3
 BYTE   W06
 BYTE   Dn3
 BYTE   W06
 BYTE   En3
 BYTE   W06
 BYTE   Cn3
 BYTE   W06
 BYTE   Dn3
 BYTE   W06
 BYTE   En3
 BYTE   W06
 BYTE   Fs3
 BYTE   W06
 BYTE   En3
 BYTE   W06
 BYTE   Ds3
 BYTE   W06
 BYTE   Bn2
 BYTE   W06
// 062   ----------------------------------------
 BYTE   As2
 BYTE   W06
 BYTE   Cs3
 BYTE   W06
 BYTE   Fs3
 BYTE   W06
 BYTE   As2
 BYTE   W06
 BYTE   Cs3
 BYTE   W06
 BYTE   Fs3
 BYTE   W06
 BYTE   As2
 BYTE   W06
 BYTE   Cs3
 BYTE   W06
 BYTE   Fs3
 BYTE   W06
 BYTE   As2
 BYTE   W06
 BYTE   Cs3
 BYTE   W06
 BYTE   Fs3
 BYTE   W06
 BYTE   Gs3
 BYTE   W06
 BYTE   Fs3
 BYTE   W06
 BYTE   Fn3
 BYTE   W06
 BYTE   As2
 BYTE   W06
// 063   ----------------------------------------
 BYTE   Cn3
 BYTE   W06
 BYTE   Dn3
 BYTE   W06
 BYTE   En3
 BYTE   W06
 BYTE   Cn3
 BYTE   W06
 BYTE   Dn3
 BYTE   W06
 BYTE   En3
 BYTE   W06
 BYTE   Cn3
 BYTE   W06
 BYTE   Dn3
 BYTE   W06
 BYTE   En3
 BYTE   W06
 BYTE   Cn3
 BYTE   W06
 BYTE   Dn3
 BYTE   W06
 BYTE   En3
 BYTE   W06
 BYTE   Gn3
 BYTE   W06
 BYTE   En3
 BYTE   W06
 BYTE   Cn3
 BYTE   W06
 BYTE   Gn2
 BYTE   W06
 BYTE   PATT
  POIN2 Label_1_01556B72
// 064   ----------------------------------------
 BYTE   GoTo
  POIN2 Label_1_01556B7E
 BYTE   FINE

//**************** Track 3 (Midi-Chn.2) ****************//

KirbyReturntoDreamLandCROWNEDRandomWizard_003:
// 000   ----------------------------------------
 BYTE   KEYSH   KirbyReturntoDreamLandCROWNEDRandomWizard_key+0
 BYTE   W09
 BYTE   W03
 BYTE   VOL   35*KirbyReturntoDreamLandCROWNEDRandomWizard_mvl/mxv
 BYTE   W03
 BYTE   PAN   c_v+0
 BYTE   W03
 BYTE   W03
 BYTE   W03
 BYTE   VOICE   52
 BYTE   N96  Cn1  v100
 BYTE   N96  Fn1
 BYTE   W96
// 001   ----------------------------------------
 BYTE   Cn1
 BYTE   N96  Fn1
 BYTE   W96
// 002   ----------------------------------------
 BYTE   Cn1
 BYTE   N96  Fn1
 BYTE   W96
// 003   ----------------------------------------
 BYTE   Cn1
 BYTE   N96  Fn1
 BYTE   N96  Cn4
 BYTE   W96
// 004   ----------------------------------------
 BYTE   Gs0
 BYTE   N96  Cs1
 BYTE   N96  Gs3
 BYTE   W96
// 005   ----------------------------------------
 BYTE   As0
 BYTE   N96  Ds1
 BYTE   N96  As3
 BYTE   W96
// 006   ----------------------------------------
 BYTE   TIE  Gn0
 BYTE   TIE  Cn1
 BYTE   TIE  Gn2
 BYTE   TIE  En3
 BYTE   TIE  Cn4
 BYTE   W96
// 007   ----------------------------------------
 BYTE   W96
// 008   ----------------------------------------
 BYTE   EOT
 BYTE   Gn0  v036
 BYTE   Gn2  v064
 BYTE   Cn4
 BYTE   N48  Gs3
 BYTE   N48  Ds4
 BYTE   W48
 BYTE   Fs3
 BYTE   N48  Cs4
 BYTE   W48
// 009   ----------------------------------------
Label_2_01557311:
 BYTE   N06  Cn2  v100
 BYTE   N06  Fn2
 BYTE   N12  Fn3
 BYTE   N12  Cn4
 BYTE   W03
 BYTE   PAN   c_v-24
 BYTE   W15
 BYTE   N06  Cn2
 BYTE   N06  Fn2
 BYTE   W18
 BYTE   Cn2
 BYTE   N06  Fn2
 BYTE   W60
 BYTE   PEND 
// 010   ----------------------------------------
Label_2_01557328:
 BYTE   PAN   c_v+0
 BYTE   N06  Cn2  v100
 BYTE   N06  Fn2
 BYTE   W03
 BYTE   PAN   c_v-24
 BYTE   W15
 BYTE   N06  Cn2
 BYTE   N06  Fn2
 BYTE   W18
 BYTE   Cn2
 BYTE   N06  Fn2
 BYTE   W60
 BYTE   PEND 
 BYTE   PATT
  POIN2 Label_2_01557328
 BYTE   PATT
  POIN2 Label_2_01557328
 BYTE   PATT
  POIN2 Label_2_01557328
 BYTE   PATT
  POIN2 Label_2_01557328
 BYTE   PATT
  POIN2 Label_2_01557328
 BYTE   PATT
  POIN2 Label_2_01557328
 BYTE   PATT
  POIN2 Label_2_01557328
 BYTE   PATT
  POIN2 Label_2_01557328
// 011   ----------------------------------------
 BYTE   N06  Ds2  v100
 BYTE   N06  Gs2
 BYTE   W03
 BYTE   PAN   c_v+0
 BYTE   W15
 BYTE   N06  Ds2
 BYTE   N06  Gs2
 BYTE   W18
 BYTE   Ds2
 BYTE   N06  Gs2
 BYTE   W60
// 012   ----------------------------------------
Label_2_01557377:
 BYTE   PAN   c_v-24
 BYTE   N06  Ds2  v100
 BYTE   N06  Gs2
 BYTE   W03
 BYTE   PAN   c_v+0
 BYTE   W15
 BYTE   N06  Ds2
 BYTE   N06  Gs2
 BYTE   W18
 BYTE   Ds2
 BYTE   N06  Gs2
 BYTE   W60
 BYTE   PEND 
// 013   ----------------------------------------
Label_2_0155738C:
 BYTE   PAN   c_v-24
 BYTE   N06  Bn1  v100
 BYTE   N06  En2
 BYTE   W03
 BYTE   PAN   c_v+0
 BYTE   W15
 BYTE   N06  Bn1
 BYTE   N06  En2
 BYTE   W18
 BYTE   Bn1
 BYTE   N06  En2
 BYTE   W60
 BYTE   PEND 
 BYTE   PATT
  POIN2 Label_2_0155738C
// 014   ----------------------------------------
Label_2_015573A6:
 BYTE   PAN   c_v-24
 BYTE   N06  As1  v100
 BYTE   N06  Cs2
 BYTE   W03
 BYTE   PAN   c_v+0
 BYTE   W15
 BYTE   N06  As1
 BYTE   N06  Cs2
 BYTE   W18
 BYTE   As1
 BYTE   N06  Cs2
 BYTE   W60
 BYTE   PEND 
 BYTE   PATT
  POIN2 Label_2_015573A6
// 015   ----------------------------------------
Label_2_015573C0:
 BYTE   N24  Ds2  v100
 BYTE   N24  Gs2
 BYTE   W36
 BYTE   N60  Ds2
 BYTE   N60  Gs2
 BYTE   W60
 BYTE   PEND 
// 016   ----------------------------------------
Label_2_015573CC:
 BYTE   N24  Cs2  v100
 BYTE   N24  Fs2
 BYTE   W36
 BYTE   N48  Cs2
 BYTE   N48  Fs2
 BYTE   W60
 BYTE   PEND 
// 017   ----------------------------------------
 BYTE   W96
// 018   ----------------------------------------
 BYTE   W96
// 019   ----------------------------------------
 BYTE   W96
// 020   ----------------------------------------
 BYTE   W96
// 021   ----------------------------------------
 BYTE   W96
// 022   ----------------------------------------
 BYTE   W96
// 023   ----------------------------------------
 BYTE   W96
// 024   ----------------------------------------
 BYTE   W96
// 025   ----------------------------------------
 BYTE   N12  Bn1
 BYTE   W36
 BYTE   N12
 BYTE   W60
// 026   ----------------------------------------
 BYTE   As1
 BYTE   W36
 BYTE   N12
 BYTE   W60
// 027   ----------------------------------------
 BYTE   W96
// 028   ----------------------------------------
 BYTE   W96
// 029   ----------------------------------------
 BYTE   N96  An1
 BYTE   W96
// 030   ----------------------------------------
 BYTE   N48
 BYTE   W48
 BYTE   N24  En2
 BYTE   W24
 BYTE   Dn2
 BYTE   W24
// 031   ----------------------------------------
 BYTE   N96  Cn2
 BYTE   W96
// 032   ----------------------------------------
 BYTE   N18  En2
 BYTE   W18
 BYTE   Dn2
 BYTE   W18
 BYTE   N12  Cn2
 BYTE   W12
 BYTE   N18  Bn1
 BYTE   W18
 BYTE   Gn1
 BYTE   W18
 BYTE   N12  Fn1
 BYTE   W12
// 033   ----------------------------------------
Label_2_01557408:
 BYTE   N12  Gn1  v100
 BYTE   W18
 BYTE   N12
 BYTE   W18
 BYTE   N12
 BYTE   W60
 BYTE   PEND 
// 034   ----------------------------------------
 BYTE   N12
 BYTE   N12  En3
 BYTE   W18
 BYTE   Gn1
 BYTE   N12  En3
 BYTE   W18
 BYTE   Gn1
 BYTE   N12  En3
 BYTE   W60
 BYTE   PATT
  POIN2 Label_2_01557408
 BYTE   PATT
  POIN2 Label_2_01557408
// 035   ----------------------------------------
 BYTE   PAN   c_v-24
 BYTE   N12  Dn1  v100
 BYTE   N12  Cn2
 BYTE   W18
 BYTE   Dn1
 BYTE   N12  Cn2
 BYTE   W18
 BYTE   Dn1
 BYTE   N12  Cn2
 BYTE   W60
// 036   ----------------------------------------
 BYTE   PAN   c_v+0
 BYTE   N12  Dn1
 BYTE   N12  Cn2
 BYTE   W18
 BYTE   Dn1
 BYTE   N12  Cn2
 BYTE   W18
 BYTE   Dn1
 BYTE   N12  Cn2
 BYTE   W60
// 037   ----------------------------------------
Label_2_01557446:
 BYTE   N12  An0  v100
 BYTE   N12  Cn2
 BYTE   W18
 BYTE   An0
 BYTE   N12  Cn2
 BYTE   W18
 BYTE   An0
 BYTE   N12  Cn2
 BYTE   W60
 BYTE   PEND 
 BYTE   PATT
  POIN2 Label_2_01557446
// 038   ----------------------------------------
Label_2_0155745A:
 BYTE   N12  Bn0  v100
 BYTE   N12  Bn1
 BYTE   W18
 BYTE   Bn0
 BYTE   N12  Bn1
 BYTE   W18
 BYTE   Bn0
 BYTE   N12  Bn1
 BYTE   W60
 BYTE   PEND 
 BYTE   PATT
  POIN2 Label_2_0155745A
 BYTE   PATT
  POIN2 Label_2_01557377
 BYTE   PATT
  POIN2 Label_2_01557377
 BYTE   PATT
  POIN2 Label_2_0155738C
 BYTE   PATT
  POIN2 Label_2_0155738C
 BYTE   PATT
  POIN2 Label_2_015573A6
 BYTE   PATT
  POIN2 Label_2_015573A6
 BYTE   PATT
  POIN2 Label_2_015573C0
 BYTE   PATT
  POIN2 Label_2_015573CC
// 039   ----------------------------------------
 BYTE   W96
// 040   ----------------------------------------
 BYTE   W96
// 041   ----------------------------------------
 BYTE   W96
// 042   ----------------------------------------
 BYTE   W96
// 043   ----------------------------------------
 BYTE   W96
// 044   ----------------------------------------
 BYTE   W96
// 045   ----------------------------------------
 BYTE   PAN   c_v-24
 BYTE   N24  An1  v100
 BYTE   W24
 BYTE   N24
 BYTE   W24
 BYTE   N18
 BYTE   W18
 BYTE   N06
 BYTE   W06
 BYTE   N06
 BYTE   W12
 BYTE   N06
 BYTE   W12
// 046   ----------------------------------------
 BYTE   N48
 BYTE   W48
 BYTE   Gn1
 BYTE   W44
 BYTE   W01
 BYTE   PAN   c_v+0
 BYTE   W03
// 047   ----------------------------------------
 BYTE   W96
// 048   ----------------------------------------
 BYTE   W96
// 049   ----------------------------------------
 BYTE   W96
// 050   ----------------------------------------
 BYTE   W96
// 051   ----------------------------------------
 BYTE   W96
// 052   ----------------------------------------
 BYTE   W96
// 053   ----------------------------------------
 BYTE   W96
// 054   ----------------------------------------
 BYTE   W96
// 055   ----------------------------------------
 BYTE   W96
// 056   ----------------------------------------
 BYTE   W96
// 057   ----------------------------------------
 BYTE   W96
// 058   ----------------------------------------
 BYTE   W96
// 059   ----------------------------------------
 BYTE   N96  Ds4
 BYTE   N96  Gn4
 BYTE   W96
// 060   ----------------------------------------
 BYTE   Cs4
 BYTE   N96  Fn4
 BYTE   W96
// 061   ----------------------------------------
 BYTE   As3
 BYTE   N96  Ds4
 BYTE   W96
// 062   ----------------------------------------
 BYTE   Gs3
 BYTE   N96  Cs4
 BYTE   W96
// 063   ----------------------------------------
 BYTE   Gn3
 BYTE   N96  Dn4
 BYTE   W96
// 064   ----------------------------------------
 BYTE   Fn3
 BYTE   N96  Cn4
 BYTE   W96
// 065   ----------------------------------------
 BYTE   Fs3
 BYTE   N96  Cs4
 BYTE   W96
// 066   ----------------------------------------
 BYTE   Gn3
 BYTE   N96  En4
 BYTE   W96
 BYTE   PATT
  POIN2 Label_2_01557311
// 067   ----------------------------------------
 BYTE   GoTo
  POIN2 Label_2_01557328
 BYTE   FINE

//**************** Track 4 (Midi-Chn.3) ****************//

KirbyReturntoDreamLandCROWNEDRandomWizard_004:
// 000   ----------------------------------------
 BYTE   KEYSH   KirbyReturntoDreamLandCROWNEDRandomWizard_key+0
 BYTE   W09
 BYTE   W03
 BYTE   VOL   35*KirbyReturntoDreamLandCROWNEDRandomWizard_mvl/mxv
 BYTE   W03
 BYTE   PAN   c_v+0
 BYTE   W03
 BYTE   W03
 BYTE   W03
 BYTE   VOICE   47
 BYTE   W96
// 001   ----------------------------------------
 BYTE   W96
// 002   ----------------------------------------
 BYTE   W96
// 003   ----------------------------------------
 BYTE   W96
// 004   ----------------------------------------
 BYTE   W96
// 005   ----------------------------------------
 BYTE   W96
// 006   ----------------------------------------
 BYTE   W96
// 007   ----------------------------------------
 BYTE   W96
// 008   ----------------------------------------
 BYTE   N03  Cn2  v100
 BYTE   W03
 BYTE   N03
 BYTE   W03
 BYTE   N03
 BYTE   W03
 BYTE   N03
 BYTE   W03
 BYTE   N03
 BYTE   W03
 BYTE   N03
 BYTE   W03
 BYTE   N03
 BYTE   W03
 BYTE   N03
 BYTE   W03
 BYTE   N03
 BYTE   W03
 BYTE   N03
 BYTE   W03
 BYTE   N03
 BYTE   W03
 BYTE   N03
 BYTE   W03
 BYTE   N03
 BYTE   W03
 BYTE   N03
 BYTE   W03
 BYTE   N03
 BYTE   W03
 BYTE   N03
 BYTE   W03
 BYTE   N03
 BYTE   W03
 BYTE   N03
 BYTE   W03
 BYTE   N03
 BYTE   W03
 BYTE   N03
 BYTE   W03
 BYTE   N03
 BYTE   W03
 BYTE   N03
 BYTE   W03
 BYTE   N03
 BYTE   W03
 BYTE   N03
 BYTE   W03
 BYTE   N03
 BYTE   W03
 BYTE   N03
 BYTE   W03
 BYTE   N03
 BYTE   W03
 BYTE   N03
 BYTE   W03
 BYTE   N03
 BYTE   W03
 BYTE   N03
 BYTE   W03
 BYTE   N03
 BYTE   W03
 BYTE   N03
 BYTE   W03
// 009   ----------------------------------------
 BYTE   W96
// 010   ----------------------------------------
Label_3_01557545:
 BYTE   W96
// 011   ----------------------------------------
 BYTE   W96
// 012   ----------------------------------------
 BYTE   W96
// 013   ----------------------------------------
 BYTE   W96
// 014   ----------------------------------------
 BYTE   W96
// 015   ----------------------------------------
 BYTE   W96
// 016   ----------------------------------------
 BYTE   W96
// 017   ----------------------------------------
 BYTE   W96
// 018   ----------------------------------------
 BYTE   W96
// 019   ----------------------------------------
 BYTE   W96
// 020   ----------------------------------------
 BYTE   W96
// 021   ----------------------------------------
 BYTE   W96
// 022   ----------------------------------------
 BYTE   W96
// 023   ----------------------------------------
 BYTE   W96
// 024   ----------------------------------------
 BYTE   W96
// 025   ----------------------------------------
 BYTE   W96
// 026   ----------------------------------------
 BYTE   W96
// 027   ----------------------------------------
 BYTE   W96
// 028   ----------------------------------------
 BYTE   W96
// 029   ----------------------------------------
 BYTE   W96
// 030   ----------------------------------------
 BYTE   W96
// 031   ----------------------------------------
 BYTE   W96
// 032   ----------------------------------------
 BYTE   W96
// 033   ----------------------------------------
 BYTE   W96
// 034   ----------------------------------------
 BYTE   W96
// 035   ----------------------------------------
 BYTE   W96
// 036   ----------------------------------------
 BYTE   W96
// 037   ----------------------------------------
 BYTE   W96
// 038   ----------------------------------------
 BYTE   W96
// 039   ----------------------------------------
 BYTE   W96
// 040   ----------------------------------------
 BYTE   W96
// 041   ----------------------------------------
 BYTE   W96
// 042   ----------------------------------------
 BYTE   W96
// 043   ----------------------------------------
 BYTE   W96
// 044   ----------------------------------------
 BYTE   W96
// 045   ----------------------------------------
 BYTE   W96
// 046   ----------------------------------------
 BYTE   W96
// 047   ----------------------------------------
 BYTE   W96
// 048   ----------------------------------------
 BYTE   W96
// 049   ----------------------------------------
 BYTE   W96
// 050   ----------------------------------------
 BYTE   W96
// 051   ----------------------------------------
 BYTE   W96
// 052   ----------------------------------------
 BYTE   W96
// 053   ----------------------------------------
 BYTE   W96
// 054   ----------------------------------------
 BYTE   W96
// 055   ----------------------------------------
 BYTE   W96
// 056   ----------------------------------------
 BYTE   W96
// 057   ----------------------------------------
 BYTE   W96
// 058   ----------------------------------------
 BYTE   W96
// 059   ----------------------------------------
 BYTE   W96
// 060   ----------------------------------------
 BYTE   W96
// 061   ----------------------------------------
 BYTE   W96
// 062   ----------------------------------------
 BYTE   W96
// 063   ----------------------------------------
 BYTE   W96
// 064   ----------------------------------------
 BYTE   W96
// 065   ----------------------------------------
 BYTE   W96
// 066   ----------------------------------------
 BYTE   W96
// 067   ----------------------------------------
 BYTE   W96
// 068   ----------------------------------------
 BYTE   W96
// 069   ----------------------------------------
 BYTE   W96
// 070   ----------------------------------------
 BYTE   W96
// 071   ----------------------------------------
 BYTE   W96
// 072   ----------------------------------------
 BYTE   W96
// 073   ----------------------------------------
 BYTE   W96
// 074   ----------------------------------------
 BYTE   W96
// 075   ----------------------------------------
 BYTE   W96
// 076   ----------------------------------------
 BYTE   W54
 BYTE   N06  Gn1  v100
 BYTE   W06
 BYTE   N06
 BYTE   W06
 BYTE   N06
 BYTE   W06
 BYTE   N06
 BYTE   W06
 BYTE   N06
 BYTE   W06
 BYTE   N06
 BYTE   W06
 BYTE   N06
 BYTE   W06
// 077   ----------------------------------------
 BYTE   N96  Gs1
 BYTE   W96
// 078   ----------------------------------------
 BYTE   W96
// 079   ----------------------------------------
 BYTE   W96
// 080   ----------------------------------------
 BYTE   W96
// 081   ----------------------------------------
 BYTE   Cn2
 BYTE   W96
// 082   ----------------------------------------
 BYTE   N96
 BYTE   W03
 BYTE   PAN   c_v-24
 BYTE   W90
 BYTE   En3
 BYTE   W03
// 083   ----------------------------------------
Label_3_015575A7:
 BYTE   PAN   c_v-24
 BYTE   N18  Cn2  v100
 BYTE   W18
 BYTE   N18
 BYTE   W18
 BYTE   N60
 BYTE   W60
 BYTE   PEND 
// 084   ----------------------------------------
 BYTE   N18
 BYTE   W18
 BYTE   N18
 BYTE   W18
 BYTE   N48
 BYTE   W48
 BYTE   N06
 BYTE   W06
 BYTE   N06
 BYTE   W03
 BYTE   PAN   c_v+0
 BYTE   W03
 BYTE   PATT
  POIN2 Label_3_015575A7
// 085   ----------------------------------------
 BYTE   N18  Cn2  v100
 BYTE   W18
 BYTE   N18
 BYTE   W18
 BYTE   N60
 BYTE   W60
// 086   ----------------------------------------
 BYTE   N18  As1
 BYTE   W18
 BYTE   N18
 BYTE   W18
 BYTE   N60
 BYTE   W60
// 087   ----------------------------------------
 BYTE   N18  Cn2
 BYTE   W18
 BYTE   N18
 BYTE   W18
 BYTE   N60
 BYTE   W56
 BYTE   W01
 BYTE   PAN   c_v+0
 BYTE   W03
// 088   ----------------------------------------
 BYTE   W96
// 089   ----------------------------------------
 BYTE   GoTo
  POIN2 Label_3_01557545
 BYTE   FINE

//**************** Track 5 (Midi-Chn.4) ****************//

KirbyReturntoDreamLandCROWNEDRandomWizard_005:
// 000   ----------------------------------------
 BYTE   KEYSH   KirbyReturntoDreamLandCROWNEDRandomWizard_key+0
 BYTE   W09
 BYTE   W03
 BYTE   VOL   35*KirbyReturntoDreamLandCROWNEDRandomWizard_mvl/mxv
 BYTE   W03
 BYTE   PAN   c_v+0
 BYTE   W03
 BYTE   W03
 BYTE   W03
 BYTE   VOICE   69
 BYTE   W96
// 001   ----------------------------------------
 BYTE   W96
// 002   ----------------------------------------
 BYTE   W96
// 003   ----------------------------------------
 BYTE   W96
// 004   ----------------------------------------
 BYTE   W96
// 005   ----------------------------------------
 BYTE   W96
// 006   ----------------------------------------
 BYTE   W96
// 007   ----------------------------------------
 BYTE   W96
// 008   ----------------------------------------
 BYTE   W96
// 009   ----------------------------------------
Label_4_015575FF:
 BYTE   PAN   c_v-24
 BYTE   N03  Fn2  v100
 BYTE   W06
 BYTE   Cn2
 BYTE   W06
 BYTE   Gn2
 BYTE   W06
 BYTE   Fn2
 BYTE   W06
 BYTE   Cn2
 BYTE   W06
 BYTE   As1
 BYTE   W06
 BYTE   Gs1
 BYTE   W06
 BYTE   As1
 BYTE   W06
 BYTE   Fn2
 BYTE   W06
 BYTE   Cn2
 BYTE   W06
 BYTE   Gs1
 BYTE   W06
 BYTE   Cn2
 BYTE   W06
 BYTE   Gs2
 BYTE   W06
 BYTE   Fn2
 BYTE   W06
 BYTE   As2
 BYTE   W06
 BYTE   Gs2
 BYTE   W06
 BYTE   PEND 
// 010   ----------------------------------------
Label_4_01557624:
 BYTE   N03  Fn2  v100
 BYTE   W06
 BYTE   Cn2
 BYTE   W06
 BYTE   Gn2
 BYTE   W06
 BYTE   Fn2
 BYTE   W06
 BYTE   Cn2
 BYTE   W06
 BYTE   As1
 BYTE   W06
 BYTE   Gs1
 BYTE   W06
 BYTE   As1
 BYTE   W06
 BYTE   Fn2
 BYTE   W06
 BYTE   Cn2
 BYTE   W06
 BYTE   Gs1
 BYTE   W06
 BYTE   Cn2
 BYTE   W06
 BYTE   Gs2
 BYTE   W06
 BYTE   Fn2
 BYTE   W06
 BYTE   As2
 BYTE   W06
 BYTE   Gs2
 BYTE   W06
 BYTE   PEND 
 BYTE   PATT
  POIN2 Label_4_01557624
 BYTE   PATT
  POIN2 Label_4_01557624
 BYTE   PATT
  POIN2 Label_4_01557624
 BYTE   PATT
  POIN2 Label_4_01557624
 BYTE   PATT
  POIN2 Label_4_01557624
 BYTE   PATT
  POIN2 Label_4_01557624
 BYTE   PATT
  POIN2 Label_4_01557624
 BYTE   PATT
  POIN2 Label_4_01557624
// 011   ----------------------------------------
 BYTE   N03  Gs2  v100
 BYTE   W06
 BYTE   PAN   c_v+0
 BYTE   N03  Ds2
 BYTE   W06
 BYTE   As2
 BYTE   W06
 BYTE   Gs2
 BYTE   W06
 BYTE   Ds2
 BYTE   W06
 BYTE   Cs2
 BYTE   W06
 BYTE   Bn1
 BYTE   W06
 BYTE   Cs2
 BYTE   W06
 BYTE   Gs2
 BYTE   W06
 BYTE   Ds2
 BYTE   W06
 BYTE   Bn1
 BYTE   W06
 BYTE   Ds2
 BYTE   W06
 BYTE   Bn2
 BYTE   W06
 BYTE   Gs2
 BYTE   W06
 BYTE   Cs3
 BYTE   W06
 BYTE   Bn2
 BYTE   W06
// 012   ----------------------------------------
Label_4_01557694:
 BYTE   PAN   c_v-24
 BYTE   N03  Gs2  v100
 BYTE   W06
 BYTE   PAN   c_v+0
 BYTE   N03  Ds2
 BYTE   W06
 BYTE   As2
 BYTE   W06
 BYTE   Gs2
 BYTE   W06
 BYTE   Ds2
 BYTE   W06
 BYTE   Cs2
 BYTE   W06
 BYTE   Bn1
 BYTE   W06
 BYTE   Cs2
 BYTE   W06
 BYTE   Gs2
 BYTE   W06
 BYTE   Ds2
 BYTE   W06
 BYTE   Bn1
 BYTE   W06
 BYTE   Ds2
 BYTE   W06
 BYTE   Bn2
 BYTE   W06
 BYTE   Gs2
 BYTE   W06
 BYTE   Cs3
 BYTE   W06
 BYTE   Bn2
 BYTE   W06
 BYTE   PEND 
 BYTE   PATT
  POIN2 Label_4_01557694
 BYTE   PATT
  POIN2 Label_4_01557694
 BYTE   PATT
  POIN2 Label_4_01557694
 BYTE   PATT
  POIN2 Label_4_01557694
// 013   ----------------------------------------
 BYTE   W96
// 014   ----------------------------------------
 BYTE   W96
// 015   ----------------------------------------
Label_4_015576D2:
 BYTE   N36  Bn2  v100
 BYTE   W36
 BYTE   N06  Gs2
 BYTE   W06
 BYTE   Bn2
 BYTE   W06
 BYTE   N24  Gs3
 BYTE   W24
 BYTE   Gs2
 BYTE   W24
 BYTE   PEND 
// 016   ----------------------------------------
Label_4_015576E1:
 BYTE   N36  As2  v100
 BYTE   W36
 BYTE   N06  Fs2
 BYTE   W06
 BYTE   As2
 BYTE   W06
 BYTE   N12  Fs3
 BYTE   W12
 BYTE   N24  Cs3
 BYTE   W24
 BYTE   N12  En3
 BYTE   W12
 BYTE   PEND 
// 017   ----------------------------------------
 BYTE   TIE  Ds3
 BYTE   W96
// 018   ----------------------------------------
 BYTE   W96
// 019   ----------------------------------------
 BYTE   EOT
 BYTE   W96
// 020   ----------------------------------------
 BYTE   W96
// 021   ----------------------------------------
 BYTE   W96
// 022   ----------------------------------------
 BYTE   W96
// 023   ----------------------------------------
 BYTE   W96
// 024   ----------------------------------------
 BYTE   W96
// 025   ----------------------------------------
 BYTE   W96
// 026   ----------------------------------------
 BYTE   W96
// 027   ----------------------------------------
 BYTE   W96
// 028   ----------------------------------------
 BYTE   W96
// 029   ----------------------------------------
 BYTE   W96
// 030   ----------------------------------------
 BYTE   W96
// 031   ----------------------------------------
 BYTE   W96
// 032   ----------------------------------------
 BYTE   W96
// 033   ----------------------------------------
 BYTE   W96
// 034   ----------------------------------------
 BYTE   W96
// 035   ----------------------------------------
 BYTE   W96
// 036   ----------------------------------------
 BYTE   W96
// 037   ----------------------------------------
 BYTE   W96
// 038   ----------------------------------------
 BYTE   W96
// 039   ----------------------------------------
 BYTE   W96
// 040   ----------------------------------------
 BYTE   W96
 BYTE   PATT
  POIN2 Label_4_01557694
 BYTE   PATT
  POIN2 Label_4_01557694
 BYTE   PATT
  POIN2 Label_4_01557694
 BYTE   PATT
  POIN2 Label_4_01557694
 BYTE   PATT
  POIN2 Label_4_01557694
 BYTE   PATT
  POIN2 Label_4_01557694
// 041   ----------------------------------------
 BYTE   W96
// 042   ----------------------------------------
 BYTE   W96
 BYTE   PATT
  POIN2 Label_4_015576D2
 BYTE   PATT
  POIN2 Label_4_015576E1
// 043   ----------------------------------------
 BYTE   TIE  Ds3  v100
 BYTE   W96
// 044   ----------------------------------------
 BYTE   W96
// 045   ----------------------------------------
 BYTE   EOT
 BYTE   W96
// 046   ----------------------------------------
 BYTE   W96
// 047   ----------------------------------------
 BYTE   W96
// 048   ----------------------------------------
 BYTE   W96
// 049   ----------------------------------------
 BYTE   W96
// 050   ----------------------------------------
 BYTE   W96
// 051   ----------------------------------------
 BYTE   W96
// 052   ----------------------------------------
 BYTE   W96
// 053   ----------------------------------------
 BYTE   W96
// 054   ----------------------------------------
 BYTE   W96
// 055   ----------------------------------------
 BYTE   W96
// 056   ----------------------------------------
 BYTE   W96
// 057   ----------------------------------------
 BYTE   W96
// 058   ----------------------------------------
 BYTE   W96
// 059   ----------------------------------------
 BYTE   W96
// 060   ----------------------------------------
 BYTE   W96
// 061   ----------------------------------------
 BYTE   W96
// 062   ----------------------------------------
 BYTE   W96
// 063   ----------------------------------------
 BYTE   W96
// 064   ----------------------------------------
 BYTE   W96
// 065   ----------------------------------------
 BYTE   W96
// 066   ----------------------------------------
 BYTE   W96
// 067   ----------------------------------------
 BYTE   W96
// 068   ----------------------------------------
 BYTE   W96
 BYTE   PATT
  POIN2 Label_4_015575FF
// 069   ----------------------------------------
 BYTE   GoTo
  POIN2 Label_4_01557624
 BYTE   FINE

//**************** Track 6 (Midi-Chn.5) ****************//

KirbyReturntoDreamLandCROWNEDRandomWizard_006:
// 000   ----------------------------------------
 BYTE   KEYSH   KirbyReturntoDreamLandCROWNEDRandomWizard_key+0
 BYTE   VOICE   61
 BYTE   W09
 BYTE   W03
 BYTE   VOL   35*KirbyReturntoDreamLandCROWNEDRandomWizard_mvl/mxv
 BYTE   W03
 BYTE   PAN   c_v+0
 BYTE   W03
 BYTE   W03
 BYTE   W03
 BYTE   W96
// 001   ----------------------------------------
 BYTE   W96
// 002   ----------------------------------------
 BYTE   W96
// 003   ----------------------------------------
 BYTE   W96
// 004   ----------------------------------------
 BYTE   W96
// 005   ----------------------------------------
 BYTE   W96
// 006   ----------------------------------------
 BYTE   W96
// 007   ----------------------------------------
 BYTE   W96
// 008   ----------------------------------------
 BYTE   W96
// 009   ----------------------------------------
 BYTE   W96
// 010   ----------------------------------------
Label_5_0155777C:
 BYTE   W96
// 011   ----------------------------------------
 BYTE   W96
// 012   ----------------------------------------
 BYTE   W06
 BYTE   PAN   c_v-24
 BYTE   N06  Cn3  v100
 BYTE   W06
 BYTE   N06
 BYTE   W06
 BYTE   N06
 BYTE   W06
 BYTE   N06
 BYTE   W06
 BYTE   N06
 BYTE   W06
 BYTE   N06
 BYTE   W06
 BYTE   N06
 BYTE   W06
 BYTE   N06
 BYTE   W06
 BYTE   Gn2
 BYTE   W06
 BYTE   Dn3
 BYTE   W06
 BYTE   Gn2
 BYTE   W06
 BYTE   Ds3
 BYTE   W06
 BYTE   Cn3
 BYTE   W06
 BYTE   Dn3
 BYTE   W06
 BYTE   N30  Gn3
 BYTE   W06
// 013   ----------------------------------------
 BYTE   W96
// 014   ----------------------------------------
 BYTE   W06
 BYTE   N06  Gs3
 BYTE   W06
 BYTE   N06
 BYTE   W06
 BYTE   N06
 BYTE   W06
 BYTE   N06
 BYTE   W06
 BYTE   N06
 BYTE   W06
 BYTE   N06
 BYTE   W06
 BYTE   N06
 BYTE   W06
 BYTE   N06
 BYTE   W06
 BYTE   Fn3
 BYTE   W06
 BYTE   As3
 BYTE   W06
 BYTE   Fn3
 BYTE   W06
 BYTE   Cs4
 BYTE   W06
 BYTE   Gs3
 BYTE   W06
 BYTE   N06
 BYTE   N06  Cn4
 BYTE   W06
 BYTE   Ds4
 BYTE   N30  Gn4
 BYTE   W06
// 015   ----------------------------------------
 BYTE   W96
// 016   ----------------------------------------
 BYTE   W96
// 017   ----------------------------------------
 BYTE   W96
// 018   ----------------------------------------
 BYTE   PAN   c_v+0
 BYTE   N12  Fn3
 BYTE   W03
 BYTE   PAN   c_v-24
 BYTE   W09
 BYTE   N12  Cn3
 BYTE   W12
 BYTE   Gn3
 BYTE   W12
 BYTE   Cn3
 BYTE   W12
 BYTE   Gs3
 BYTE   W12
 BYTE   N06  Gn3
 BYTE   W06
 BYTE   Fn3
 BYTE   W06
 BYTE   Ds3
 BYTE   W06
 BYTE   Cs3
 BYTE   W06
 BYTE   Cn3
 BYTE   W06
 BYTE   Gs2
 BYTE   W06
// 019   ----------------------------------------
 BYTE   W96
// 020   ----------------------------------------
 BYTE   W96
// 021   ----------------------------------------
 BYTE   W96
// 022   ----------------------------------------
 BYTE   W96
// 023   ----------------------------------------
 BYTE   W96
// 024   ----------------------------------------
 BYTE   W96
// 025   ----------------------------------------
 BYTE   W96
// 026   ----------------------------------------
 BYTE   W96
// 027   ----------------------------------------
 BYTE   W12
 BYTE   PAN   c_v+0
 BYTE   N06  Ds3
 BYTE   N06  Gs3
 BYTE   W06
 BYTE   Ds3
 BYTE   N06  Gs3
 BYTE   W18
 BYTE   Ds3
 BYTE   N06  Gs3
 BYTE   W06
 BYTE   Ds3
 BYTE   N06  Gs3
 BYTE   W18
 BYTE   Ds3
 BYTE   N06  Gs3
 BYTE   W06
 BYTE   Ds3
 BYTE   N06  Gs3
 BYTE   W18
 BYTE   Ds3
 BYTE   N06  Gs3
 BYTE   W06
 BYTE   Ds3
 BYTE   N06  Gs3
 BYTE   W06
// 028   ----------------------------------------
Label_5_01557814:
 BYTE   W12
 BYTE   N06  Cs3  v100
 BYTE   N06  Fs3
 BYTE   W06
 BYTE   Cs3
 BYTE   N06  Fs3
 BYTE   W18
 BYTE   Cs3
 BYTE   N06  Fs3
 BYTE   W06
 BYTE   Cs3
 BYTE   N06  Fs3
 BYTE   W18
 BYTE   Cs3
 BYTE   N06  Fs3
 BYTE   W06
 BYTE   Cs3
 BYTE   N06  Fs3
 BYTE   W18
 BYTE   Cs3
 BYTE   N06  Fs3
 BYTE   W06
 BYTE   Cs3
 BYTE   N06  Fs3
 BYTE   W06
 BYTE   PEND 
// 029   ----------------------------------------
 BYTE   W12
 BYTE   Gs3
 BYTE   N06  Bn3
 BYTE   W06
 BYTE   Gs3
 BYTE   N06  Bn3
 BYTE   W18
 BYTE   Gs3
 BYTE   N06  Bn3
 BYTE   W06
 BYTE   Gs3
 BYTE   N06  Bn3
 BYTE   W18
 BYTE   Gs3
 BYTE   N06  Bn3
 BYTE   W06
 BYTE   Gs3
 BYTE   N06  Bn3
 BYTE   W18
 BYTE   Gs3
 BYTE   N06  Bn3
 BYTE   W06
 BYTE   Gs3
 BYTE   N06  Bn3
 BYTE   W06
 BYTE   PATT
  POIN2 Label_5_01557814
// 030   ----------------------------------------
 BYTE   N36  Bn2  v100
 BYTE   W12
 BYTE   N06  En3
 BYTE   N06  Gs3
 BYTE   W06
 BYTE   En3
 BYTE   N06  Gs3
 BYTE   W18
 BYTE   Gs2
 BYTE   N06  En3
 BYTE   N06  Gs3
 BYTE   W06
 BYTE   Bn2
 BYTE   N06  En3
 BYTE   N06  Gs3
 BYTE   W06
 BYTE   N12
 BYTE   W12
 BYTE   N06  En3
 BYTE   N06  Gs3
 BYTE   W06
 BYTE   En3
 BYTE   N06  Gs3
 BYTE   W06
 BYTE   N24  Gs2
 BYTE   W12
 BYTE   N06  En3
 BYTE   N06  Gs3
 BYTE   W06
 BYTE   En3
 BYTE   N06  Gs3
 BYTE   W06
// 031   ----------------------------------------
 BYTE   N36  As2
 BYTE   W12
 BYTE   N06  Cs3
 BYTE   N06  Fs3
 BYTE   W06
 BYTE   Cs3
 BYTE   N06  Fs3
 BYTE   W18
 BYTE   Fs2
 BYTE   N06  Cs3
 BYTE   N06  Fs3
 BYTE   W06
 BYTE   As2
 BYTE   N06  Cs3
 BYTE   N06  Fs3
 BYTE   W06
 BYTE   N12
 BYTE   W12
 BYTE   N06  Cs3
 BYTE   W06
 BYTE   N06
 BYTE   N06  Fs3
 BYTE   W18
 BYTE   N12  En3
 BYTE   N06  Fs3
 BYTE   W06
 BYTE   Cs3
 BYTE   N06  Fs3
 BYTE   W06
// 032   ----------------------------------------
 BYTE   TIE  Ds3
 BYTE   W96
// 033   ----------------------------------------
 BYTE   W92
 BYTE   W01
 BYTE   EOT
 BYTE   W03
// 034   ----------------------------------------
 BYTE   N24  Bn2
 BYTE   N24  Ds3
 BYTE   W24
 BYTE   Bn2
 BYTE   N24  Ds3
 BYTE   W24
 BYTE   N18  Bn2
 BYTE   N18  Ds3
 BYTE   W18
 BYTE   N06  Cs3
 BYTE   N06  En3
 BYTE   W06
 BYTE   Bn2
 BYTE   N06  Ds3
 BYTE   W12
 BYTE   N12  As2
 BYTE   N12  Cs3
 BYTE   W12
// 035   ----------------------------------------
 BYTE   N18  Gs2
 BYTE   N18  Bn2
 BYTE   W18
 BYTE   N06  As2
 BYTE   N06  Cs3
 BYTE   W06
 BYTE   Gs2
 BYTE   N06  Bn2
 BYTE   W12
 BYTE   Fs2
 BYTE   N06  As2
 BYTE   W12
 BYTE   N24  Ds2
 BYTE   N24  Gs2
 BYTE   W24
 BYTE   As1
 BYTE   N24  Ds2
 BYTE   W24
// 036   ----------------------------------------
 BYTE   Fs2
 BYTE   N24  As2
 BYTE   W24
 BYTE   N12  Fs2
 BYTE   N12  As2
 BYTE   W12
 BYTE   N24  Fs2
 BYTE   N24  As2
 BYTE   W24
 BYTE   Fs2
 BYTE   N24  As2
 BYTE   W24
 BYTE   N12  Fs2
 BYTE   N12  As2
 BYTE   W12
// 037   ----------------------------------------
 BYTE   N48  Cs3
 BYTE   N48  Fs3
 BYTE   W48
 BYTE   N48
 BYTE   N48  As3
 BYTE   W48
// 038   ----------------------------------------
 BYTE   W96
// 039   ----------------------------------------
 BYTE   W96
// 040   ----------------------------------------
 BYTE   W96
// 041   ----------------------------------------
 BYTE   W96
// 042   ----------------------------------------
 BYTE   W96
// 043   ----------------------------------------
 BYTE   W96
// 044   ----------------------------------------
 BYTE   W96
// 045   ----------------------------------------
 BYTE   W06
 BYTE   N06  Bn2
 BYTE   W06
 BYTE   N06
 BYTE   W06
 BYTE   N06
 BYTE   W06
 BYTE   N06
 BYTE   W06
 BYTE   N06
 BYTE   W06
 BYTE   N06
 BYTE   W06
 BYTE   N06
 BYTE   W06
 BYTE   N06
 BYTE   W06
 BYTE   Fs2
 BYTE   W06
 BYTE   Cs3
 BYTE   W06
 BYTE   Fs2
 BYTE   W06
 BYTE   Dn3
 BYTE   W03
 BYTE   PAN   c_v-24
 BYTE   W03
 BYTE   N06  Fs2
 BYTE   W06
 BYTE   Dn3
 BYTE   W06
 BYTE   N12  Fs3
 BYTE   W03
 BYTE   PAN   c_v+0
 BYTE   W03
// 046   ----------------------------------------
 BYTE   W96
// 047   ----------------------------------------
 BYTE   W06
 BYTE   N06  Gn3
 BYTE   W06
 BYTE   N06
 BYTE   W06
 BYTE   N06
 BYTE   W06
 BYTE   N06
 BYTE   W06
 BYTE   N06
 BYTE   W06
 BYTE   N06
 BYTE   W06
 BYTE   N06
 BYTE   W06
 BYTE   N06
 BYTE   W06
 BYTE   En3
 BYTE   W06
 BYTE   An3
 BYTE   W06
 BYTE   En3
 BYTE   W06
 BYTE   Bn3
 BYTE   W03
 BYTE   PAN   c_v-24
 BYTE   W03
 BYTE   N06  An3
 BYTE   W06
 BYTE   En3
 BYTE   W06
 BYTE   N12  Fs4
 BYTE   W03
 BYTE   PAN   c_v+0
 BYTE   W03
// 048   ----------------------------------------
 BYTE   W96
// 049   ----------------------------------------
 BYTE   W96
// 050   ----------------------------------------
 BYTE   W96
// 051   ----------------------------------------
 BYTE   N12  En3
 BYTE   W12
 BYTE   Bn2
 BYTE   W12
 BYTE   Fs3
 BYTE   W12
 BYTE   Bn2
 BYTE   W12
 BYTE   Gn3
 BYTE   W12
 BYTE   N06  Fs3
 BYTE   W06
 BYTE   En3
 BYTE   W06
 BYTE   Dn3
 BYTE   W06
 BYTE   Cn3
 BYTE   W06
 BYTE   Bn2
 BYTE   W06
 BYTE   Gn2
 BYTE   W06
// 052   ----------------------------------------
 BYTE   W06
 BYTE   PAN   c_v-24
 BYTE   N06  Gs3
 BYTE   W06
 BYTE   N06
 BYTE   W06
 BYTE   N06
 BYTE   W06
 BYTE   N06
 BYTE   W06
 BYTE   N06
 BYTE   W06
 BYTE   N06
 BYTE   W06
 BYTE   N06
 BYTE   W06
 BYTE   N06
 BYTE   W06
 BYTE   Ds3
 BYTE   W06
 BYTE   As3
 BYTE   W06
 BYTE   Ds3
 BYTE   W06
 BYTE   Bn3
 BYTE   W06
 BYTE   Gs3
 BYTE   W06
 BYTE   Cs4
 BYTE   W06
 BYTE   N54  Fs4
 BYTE   W06
// 053   ----------------------------------------
 BYTE   W96
// 054   ----------------------------------------
Label_5_015579AD:
 BYTE   W06
 BYTE   N06  Gs3  v100
 BYTE   W06
 BYTE   N06
 BYTE   W06
 BYTE   N06
 BYTE   W06
 BYTE   N06
 BYTE   W06
 BYTE   N06
 BYTE   W06
 BYTE   N06
 BYTE   W06
 BYTE   N06
 BYTE   W06
 BYTE   N06
 BYTE   W06
 BYTE   Ds3
 BYTE   W06
 BYTE   As3
 BYTE   W06
 BYTE   Ds3
 BYTE   W06
 BYTE   Bn3
 BYTE   W06
 BYTE   Gs3
 BYTE   W06
 BYTE   Cs4
 BYTE   W06
 BYTE   N54  Fs4
 BYTE   W06
 BYTE   PEND 
// 055   ----------------------------------------
 BYTE   W96
 BYTE   PATT
  POIN2 Label_5_015579AD
// 056   ----------------------------------------
 BYTE   W72
 BYTE   PAN   c_v+0
 BYTE   N24  En4  v100
 BYTE   W24
// 057   ----------------------------------------
 BYTE   Ds4
 BYTE   W24
 BYTE   As4
 BYTE   W24
 BYTE   Cs4
 BYTE   W24
 BYTE   Bn3
 BYTE   W24
// 058   ----------------------------------------
 BYTE   N72  As3
 BYTE   W96
// 059   ----------------------------------------
Label_5_015579E8:
 BYTE   N36  Bn2  v100
 BYTE   W36
 BYTE   N06  Gs2
 BYTE   W06
 BYTE   Bn2
 BYTE   W06
 BYTE   N24  Gs3
 BYTE   W24
 BYTE   Gs2
 BYTE   W24
 BYTE   PEND 
// 060   ----------------------------------------
Label_5_015579F7:
 BYTE   N36  As2  v100
 BYTE   W36
 BYTE   N06  Fs2
 BYTE   W06
 BYTE   As2
 BYTE   W06
 BYTE   N12  Fs3
 BYTE   W12
 BYTE   N24  Cs3
 BYTE   W24
 BYTE   N12  En3
 BYTE   W12
 BYTE   PEND 
// 061   ----------------------------------------
 BYTE   TIE  Ds3
 BYTE   W96
// 062   ----------------------------------------
 BYTE   W96
// 063   ----------------------------------------
 BYTE   EOT
 BYTE   PATT
  POIN2 Label_5_015579E8
 BYTE   PATT
  POIN2 Label_5_015579F7
// 064   ----------------------------------------
 BYTE   N96  Ds3  v100
 BYTE   W96
// 065   ----------------------------------------
 BYTE   W96
// 066   ----------------------------------------
 BYTE   Gn1
 BYTE   W96
// 067   ----------------------------------------
 BYTE   W96
// 068   ----------------------------------------
 BYTE   N92
 BYTE   W96
// 069   ----------------------------------------
 BYTE   W96
// 070   ----------------------------------------
 BYTE   N36  Cn5
 BYTE   W36
 BYTE   N06  As4
 BYTE   W06
 BYTE   Gs4
 BYTE   W06
 BYTE   N12  Gn4
 BYTE   W12
 BYTE   Fn4
 BYTE   W12
 BYTE   Ds4
 BYTE   W12
 BYTE   Fn4
 BYTE   W12
// 071   ----------------------------------------
 BYTE   N24  Gn4
 BYTE   W24
 BYTE   N18  Fn4
 BYTE   W18
 BYTE   N06  Gn4
 BYTE   W06
 BYTE   N24  Cn4
 BYTE   W24
 BYTE   N18
 BYTE   W18
 BYTE   N06  Dn4
 BYTE   W06
// 072   ----------------------------------------
 BYTE   N36  Ds4
 BYTE   W36
 BYTE   Fn4
 BYTE   W36
 BYTE   N24  Ds4
 BYTE   W24
// 073   ----------------------------------------
 BYTE   N48  Dn4
 BYTE   W48
 BYTE   Gn4
 BYTE   W48
// 074   ----------------------------------------
 BYTE   Ds2
 BYTE   N36  Cn5
 BYTE   W36
 BYTE   N06  As4
 BYTE   W06
 BYTE   Cn5
 BYTE   W06
 BYTE   N48  Dn2
 BYTE   N12  As4
 BYTE   W12
 BYTE   Gs4
 BYTE   W12
 BYTE   Gn4
 BYTE   W12
 BYTE   Fn4
 BYTE   W12
// 075   ----------------------------------------
 BYTE   N48  Dn2
 BYTE   N24  Gn4
 BYTE   W24
 BYTE   N18  Dn4
 BYTE   W18
 BYTE   N06  Gn4
 BYTE   W06
 BYTE   N48  Cn2
 BYTE   N24  Cn4
 BYTE   W48
// 076   ----------------------------------------
 BYTE   W96
// 077   ----------------------------------------
 BYTE   N18  Ds4
 BYTE   W18
 BYTE   Gs4
 BYTE   W18
 BYTE   N12  Cn5
 BYTE   W12
 BYTE   Dn5
 BYTE   W15
 BYTE   N21  As4
 BYTE   W21
 BYTE   N12  Fn4
 BYTE   W12
// 078   ----------------------------------------
 BYTE   N96  Gn4
 BYTE   W96
// 079   ----------------------------------------
 BYTE   W96
// 080   ----------------------------------------
 BYTE   W96
// 081   ----------------------------------------
 BYTE   W96
// 082   ----------------------------------------
 BYTE   W96
// 083   ----------------------------------------
 BYTE   W96
// 084   ----------------------------------------
 BYTE   W96
// 085   ----------------------------------------
 BYTE   W96
// 086   ----------------------------------------
 BYTE   W96
// 087   ----------------------------------------
 BYTE   GoTo
  POIN2 Label_5_0155777C
 BYTE   FINE

//**************** Track 7 (Midi-Chn.6) ****************//

KirbyReturntoDreamLandCROWNEDRandomWizard_007:
// 000   ----------------------------------------
 BYTE   KEYSH   KirbyReturntoDreamLandCROWNEDRandomWizard_key+0
 BYTE   W09
 BYTE   W03
 BYTE   VOL   35*KirbyReturntoDreamLandCROWNEDRandomWizard_mvl/mxv
 BYTE   W03
 BYTE   PAN   c_v+0
 BYTE   W03
 BYTE   W03
 BYTE   W03
 BYTE   VOICE   65
 BYTE   W96
// 001   ----------------------------------------
 BYTE   W96
// 002   ----------------------------------------
 BYTE   W96
// 003   ----------------------------------------
 BYTE   W96
// 004   ----------------------------------------
 BYTE   W96
// 005   ----------------------------------------
 BYTE   W96
// 006   ----------------------------------------
 BYTE   W96
// 007   ----------------------------------------
 BYTE   W96
// 008   ----------------------------------------
 BYTE   W96
// 009   ----------------------------------------
 BYTE   W96
// 010   ----------------------------------------
Label_6_01557AB4:
 BYTE   W96
// 011   ----------------------------------------
 BYTE   W96
// 012   ----------------------------------------
 BYTE   W96
// 013   ----------------------------------------
 BYTE   W96
// 014   ----------------------------------------
 BYTE   W96
// 015   ----------------------------------------
 BYTE   W96
// 016   ----------------------------------------
 BYTE   W96
// 017   ----------------------------------------
 BYTE   W96
// 018   ----------------------------------------
 BYTE   W96
// 019   ----------------------------------------
Label_6_01557ABD:
 BYTE   W06
 BYTE   N06  Gs3  v100
 BYTE   W06
 BYTE   N06
 BYTE   W06
 BYTE   N06
 BYTE   W06
 BYTE   N06
 BYTE   W06
 BYTE   N06
 BYTE   W06
 BYTE   N06
 BYTE   W06
 BYTE   N06
 BYTE   W06
 BYTE   N06
 BYTE   W06
 BYTE   Ds3
 BYTE   W06
 BYTE   As3
 BYTE   W06
 BYTE   Ds3
 BYTE   W06
 BYTE   Bn3
 BYTE   W06
 BYTE   Gs3
 BYTE   W06
 BYTE   Cs4
 BYTE   W06
 BYTE   TIE  Fs4
 BYTE   W06
 BYTE   PEND 
// 020   ----------------------------------------
 BYTE   W96
// 021   ----------------------------------------
 BYTE   EOT
 BYTE   PATT
  POIN2 Label_6_01557ABD
// 022   ----------------------------------------
 BYTE   W96
// 023   ----------------------------------------
 BYTE   EOT
 BYTE   Fs4
 BYTE   W06
 BYTE   N06  Gs3  v100
 BYTE   W06
 BYTE   N06
 BYTE   W06
 BYTE   N06
 BYTE   W06
 BYTE   N06
 BYTE   W06
 BYTE   N06
 BYTE   W06
 BYTE   N06
 BYTE   W06
 BYTE   N06
 BYTE   W06
 BYTE   N06
 BYTE   W06
 BYTE   Ds3
 BYTE   W06
 BYTE   As3
 BYTE   W06
 BYTE   Ds3
 BYTE   W06
 BYTE   Bn3
 BYTE   W06
 BYTE   Gs3
 BYTE   W06
 BYTE   Cs4
 BYTE   W06
 BYTE   N78  Fs4
 BYTE   W06
// 024   ----------------------------------------
 BYTE   W72
 BYTE   N24  En4
 BYTE   W24
// 025   ----------------------------------------
 BYTE   Ds4
 BYTE   W24
 BYTE   As4
 BYTE   W24
 BYTE   Cs4
 BYTE   W24
 BYTE   Bn3
 BYTE   W24
// 026   ----------------------------------------
 BYTE   N84  As3
 BYTE   W96
// 027   ----------------------------------------
 BYTE   W96
// 028   ----------------------------------------
 BYTE   W96
// 029   ----------------------------------------
 BYTE   W96
// 030   ----------------------------------------
 BYTE   W96
// 031   ----------------------------------------
 BYTE   N96  En3
 BYTE   W96
// 032   ----------------------------------------
 BYTE   Fs3
 BYTE   W96
// 033   ----------------------------------------
 BYTE   TIE  Ds3
 BYTE   W96
// 034   ----------------------------------------
 BYTE   W96
// 035   ----------------------------------------
 BYTE   EOT
 BYTE   W96
// 036   ----------------------------------------
 BYTE   W96
// 037   ----------------------------------------
 BYTE   W96
// 038   ----------------------------------------
 BYTE   W96
// 039   ----------------------------------------
 BYTE   W96
// 040   ----------------------------------------
 BYTE   W96
// 041   ----------------------------------------
 BYTE   W96
// 042   ----------------------------------------
 BYTE   W96
// 043   ----------------------------------------
 BYTE   W96
// 044   ----------------------------------------
 BYTE   W96
// 045   ----------------------------------------
 BYTE   W96
// 046   ----------------------------------------
 BYTE   W96
// 047   ----------------------------------------
 BYTE   W96
// 048   ----------------------------------------
 BYTE   W96
// 049   ----------------------------------------
 BYTE   W96
// 050   ----------------------------------------
 BYTE   W96
// 051   ----------------------------------------
 BYTE   W96
// 052   ----------------------------------------
 BYTE   W96
// 053   ----------------------------------------
Label_6_01557B3B:
 BYTE   PAN   c_v-24
 BYTE   N06  Gs2  v100
 BYTE   W03
 BYTE   PAN   c_v+0
 BYTE   W03
 BYTE   N06  Ds2
 BYTE   W06
 BYTE   As2
 BYTE   W06
 BYTE   Gs2
 BYTE   W06
 BYTE   Ds2
 BYTE   W06
 BYTE   As2
 BYTE   W06
 BYTE   Gs2
 BYTE   W06
 BYTE   Ds2
 BYTE   W06
 BYTE   As2
 BYTE   W06
 BYTE   Gs2
 BYTE   W06
 BYTE   Ds2
 BYTE   W06
 BYTE   As2
 BYTE   W06
 BYTE   Bn2
 BYTE   W06
 BYTE   Gs2
 BYTE   W06
 BYTE   Cs3
 BYTE   W06
 BYTE   Bn2
 BYTE   W06
 BYTE   PEND 
 BYTE   PATT
  POIN2 Label_6_01557B3B
 BYTE   PATT
  POIN2 Label_6_01557B3B
 BYTE   PATT
  POIN2 Label_6_01557B3B
 BYTE   PATT
  POIN2 Label_6_01557B3B
 BYTE   PATT
  POIN2 Label_6_01557B3B
// 054   ----------------------------------------
 BYTE   W96
// 055   ----------------------------------------
 BYTE   W96
// 056   ----------------------------------------
 BYTE   W96
// 057   ----------------------------------------
 BYTE   W96
// 058   ----------------------------------------
 BYTE   W96
// 059   ----------------------------------------
 BYTE   W96
// 060   ----------------------------------------
 BYTE   W96
// 061   ----------------------------------------
 BYTE   W96
// 062   ----------------------------------------
 BYTE   W96
// 063   ----------------------------------------
 BYTE   W96
// 064   ----------------------------------------
 BYTE   W96
// 065   ----------------------------------------
 BYTE   W96
// 066   ----------------------------------------
 BYTE   W96
// 067   ----------------------------------------
 BYTE   W96
// 068   ----------------------------------------
 BYTE   W96
// 069   ----------------------------------------
 BYTE   W96
// 070   ----------------------------------------
 BYTE   W96
// 071   ----------------------------------------
 BYTE   W96
// 072   ----------------------------------------
 BYTE   W96
// 073   ----------------------------------------
 BYTE   W72
 BYTE   N18  Cn2  v100
 BYTE   W18
 BYTE   N06  Dn2
 BYTE   W06
// 074   ----------------------------------------
 BYTE   N36  Ds2
 BYTE   W03
 BYTE   PAN   c_v-24
 BYTE   W32
 BYTE   W01
 BYTE   N36  Gs2
 BYTE   W15
 BYTE   PAN   c_v+0
 BYTE   W21
 BYTE   N24  Cn3
 BYTE   W24
// 075   ----------------------------------------
 BYTE   N18  Ds3
 BYTE   W18
 BYTE   Gs3
 BYTE   W18
 BYTE   N12  Cn4
 BYTE   W12
 BYTE   N18  Dn4
 BYTE   W18
 BYTE   As3
 BYTE   W18
 BYTE   N12  Fn3
 BYTE   W12
// 076   ----------------------------------------
 BYTE   N92  Gn3
 BYTE   W96
// 077   ----------------------------------------
 BYTE   W96
// 078   ----------------------------------------
 BYTE   W96
// 079   ----------------------------------------
 BYTE   W96
// 080   ----------------------------------------
 BYTE   W96
// 081   ----------------------------------------
 BYTE   W96
// 082   ----------------------------------------
 BYTE   W96
// 083   ----------------------------------------
 BYTE   W96
// 084   ----------------------------------------
 BYTE   W96
// 085   ----------------------------------------
 BYTE   GoTo
  POIN2 Label_6_01557AB4
 BYTE   FINE

//**************** Track 8 (Midi-Chn.7) ****************//

KirbyReturntoDreamLandCROWNEDRandomWizard_008:
// 000   ----------------------------------------
 BYTE   KEYSH   KirbyReturntoDreamLandCROWNEDRandomWizard_key+0
 BYTE   VOICE   124
 BYTE   W09
 BYTE   W03
 BYTE   VOL   35*KirbyReturntoDreamLandCROWNEDRandomWizard_mvl/mxv
 BYTE   W03
 BYTE   PAN   c_v+0
 BYTE   W03
 BYTE   W03
 BYTE   W03
 BYTE   W96
// 001   ----------------------------------------
 BYTE   W96
// 002   ----------------------------------------
 BYTE   W96
// 003   ----------------------------------------
 BYTE   W96
// 004   ----------------------------------------
 BYTE   W96
// 005   ----------------------------------------
 BYTE   W96
// 006   ----------------------------------------
 BYTE   W96
// 007   ----------------------------------------
 BYTE   W96
// 008   ----------------------------------------
 BYTE   W36
 BYTE   N06  Gs1  v100
 BYTE   W06
 BYTE   N06
 BYTE   W06
 BYTE   N06
 BYTE   W06
 BYTE   N06
 BYTE   W06
 BYTE   N06
 BYTE   W06
 BYTE   N06
 BYTE   W06
 BYTE   N06
 BYTE   W06
 BYTE   N06
 BYTE   W06
 BYTE   N06
 BYTE   W06
 BYTE   N06
 BYTE   W06
// 009   ----------------------------------------
 BYTE   PAN   c_v-24
 BYTE   N06  Cn1
 BYTE   N06  Gs1
 BYTE   W12
 BYTE   Fs1
 BYTE   W06
 BYTE   Cn1
 BYTE   W06
 BYTE   Gs1
 BYTE   W12
 BYTE   Cn1
 BYTE   N06  En1
 BYTE   N06  Fs1
 BYTE   N06  En2
 BYTE   W12
 BYTE   Gs1
 BYTE   W06
 BYTE   Cn1
 BYTE   W06
 BYTE   Fs1
 BYTE   W12
 BYTE   Cn1
 BYTE   N06  En1
 BYTE   N06  Gs1
 BYTE   N06  En2
 BYTE   W12
 BYTE   Fs1
 BYTE   W12
// 010   ----------------------------------------
Label_7_01557C1E:
 BYTE   N06  Cn1  v100
 BYTE   N06  Gs1
 BYTE   W12
 BYTE   Fs1
 BYTE   W06
 BYTE   Cn1
 BYTE   W06
 BYTE   Gs1
 BYTE   W12
 BYTE   Cn1
 BYTE   N06  En1
 BYTE   N06  Fs1
 BYTE   N06  En2
 BYTE   W12
 BYTE   Gs1
 BYTE   W06
 BYTE   Cn1
 BYTE   W06
 BYTE   Fs1
 BYTE   W12
 BYTE   Cn1
 BYTE   N06  En1
 BYTE   N06  Gs1
 BYTE   N06  En2
 BYTE   W12
 BYTE   Fs1
 BYTE   W12
 BYTE   PEND 
 BYTE   PATT
  POIN2 Label_7_01557C1E
 BYTE   PATT
  POIN2 Label_7_01557C1E
 BYTE   PATT
  POIN2 Label_7_01557C1E
 BYTE   PATT
  POIN2 Label_7_01557C1E
 BYTE   PATT
  POIN2 Label_7_01557C1E
 BYTE   PATT
  POIN2 Label_7_01557C1E
 BYTE   PATT
  POIN2 Label_7_01557C1E
 BYTE   PATT
  POIN2 Label_7_01557C1E
// 011   ----------------------------------------
Label_7_01557C6B:
 BYTE   N06  Cn1  v100
 BYTE   N06  Gs1
 BYTE   N06  Ds2
 BYTE   W12
 BYTE   Fs1
 BYTE   W06
 BYTE   Cn1
 BYTE   W06
 BYTE   Gs1
 BYTE   N06  Ds2
 BYTE   W12
 BYTE   Cn1
 BYTE   N06  En1
 BYTE   N06  Fs1
 BYTE   N06  En2
 BYTE   W12
 BYTE   Gs1
 BYTE   N06  Ds2
 BYTE   W06
 BYTE   Cn1
 BYTE   W06
 BYTE   Fs1
 BYTE   W12
 BYTE   Cn1
 BYTE   N06  En1
 BYTE   N06  Gs1
 BYTE   N06  Ds2
 BYTE   N06  En2
 BYTE   W12
 BYTE   Fs1
 BYTE   W12
 BYTE   PEND 
// 012   ----------------------------------------
Label_7_01557C98:
 BYTE   N06  Cn1  v100
 BYTE   N06  Gs1
 BYTE   N06  Bn2
 BYTE   W12
 BYTE   Fs1
 BYTE   W06
 BYTE   Cn1
 BYTE   W06
 BYTE   Gs1
 BYTE   N06  Bn2
 BYTE   W12
 BYTE   Cn1
 BYTE   N06  En1
 BYTE   N06  Fs1
 BYTE   N06  En2
 BYTE   W12
 BYTE   Gs1
 BYTE   N06  Bn2
 BYTE   W06
 BYTE   Cn1
 BYTE   W06
 BYTE   Fs1
 BYTE   W12
 BYTE   Cn1
 BYTE   N06  En1
 BYTE   N06  Gs1
 BYTE   N06  En2
 BYTE   N06  Bn2
 BYTE   W12
 BYTE   Fs1
 BYTE   W12
 BYTE   PEND 
 BYTE   PATT
  POIN2 Label_7_01557C6B
 BYTE   PATT
  POIN2 Label_7_01557C98
 BYTE   PATT
  POIN2 Label_7_01557C6B
 BYTE   PATT
  POIN2 Label_7_01557C98
// 013   ----------------------------------------
Label_7_01557CD9:
 BYTE   PAN   c_v+0
 BYTE   N06  Bn0  v100
 BYTE   N24  Cn1
 BYTE   N24  As1
 BYTE   N24  Cs2
 BYTE   N24  En2
 BYTE   W12
 BYTE   N06  Bn0
 BYTE   W12
 BYTE   N06
 BYTE   W12
 BYTE   N06
 BYTE   N24  Cn1
 BYTE   N24  En1
 BYTE   N24  As1
 BYTE   N24  Cs2
 BYTE   N24  En2
 BYTE   W24
 BYTE   N06  Bn0
 BYTE   W12
 BYTE   N06
 BYTE   N24  Cn1
 BYTE   N06  Ds1
 BYTE   N06  En1
 BYTE   N06  Fs2
 BYTE   W06
 BYTE   En1
 BYTE   N06  Fs2
 BYTE   W06
 BYTE   Bn0
 BYTE   N06  En1
 BYTE   N06  Fs2
 BYTE   W06
 BYTE   En1
 BYTE   N06  Fs2
 BYTE   W06
 BYTE   PEND 
// 014   ----------------------------------------
Label_7_01557D14:
 BYTE   N06  Bn0  v100
 BYTE   N24  Cn1
 BYTE   N24  As1
 BYTE   N24  Cs2
 BYTE   N24  En2
 BYTE   W12
 BYTE   N06  Bn0
 BYTE   W12
 BYTE   N06
 BYTE   W12
 BYTE   N06
 BYTE   N24  Cn1
 BYTE   N24  En1
 BYTE   N24  As1
 BYTE   N24  Cs2
 BYTE   N24  En2
 BYTE   W24
 BYTE   N06  Bn0
 BYTE   W12
 BYTE   N06
 BYTE   N24  Cn1
 BYTE   N06  Ds1
 BYTE   N06  En1
 BYTE   N06  Fs2
 BYTE   W06
 BYTE   En1
 BYTE   N06  Fs2
 BYTE   W06
 BYTE   Bn0
 BYTE   N06  En1
 BYTE   N06  Fs2
 BYTE   W06
 BYTE   En1
 BYTE   N06  Fs2
 BYTE   W06
 BYTE   PEND 
// 015   ----------------------------------------
Label_7_01557D4D:
 BYTE   PAN   c_v-24
 BYTE   N06  Cn1  v100
 BYTE   N06  Gs1
 BYTE   N06  Ds2
 BYTE   W12
 BYTE   Fs1
 BYTE   W06
 BYTE   Cn1
 BYTE   W06
 BYTE   Gs1
 BYTE   N06  Ds2
 BYTE   W12
 BYTE   Cn1
 BYTE   N06  En1
 BYTE   N06  Fs1
 BYTE   N06  En2
 BYTE   W12
 BYTE   Gs1
 BYTE   N06  Ds2
 BYTE   W06
 BYTE   Cn1
 BYTE   W06
 BYTE   Fs1
 BYTE   W12
 BYTE   Cn1
 BYTE   N06  En1
 BYTE   N06  Gs1
 BYTE   N06  Ds2
 BYTE   N06  En2
 BYTE   W12
 BYTE   Fs1
 BYTE   W12
 BYTE   PEND 
 BYTE   PATT
  POIN2 Label_7_01557C98
 BYTE   PATT
  POIN2 Label_7_01557C6B
 BYTE   PATT
  POIN2 Label_7_01557C98
 BYTE   PATT
  POIN2 Label_7_01557C6B
 BYTE   PATT
  POIN2 Label_7_01557C98
 BYTE   PATT
  POIN2 Label_7_01557C6B
 BYTE   PATT
  POIN2 Label_7_01557C98
// 016   ----------------------------------------
Label_7_01557D9F:
 BYTE   N06  Cn1  v100
 BYTE   N06  Gs1
 BYTE   N06  Ds2
 BYTE   N06  Bn2
 BYTE   W12
 BYTE   Cn1
 BYTE   N06  Fs1
 BYTE   W06
 BYTE   Cn1
 BYTE   N06  En1
 BYTE   W06
 BYTE   Cn1
 BYTE   N06  En1
 BYTE   N06  Gs1
 BYTE   N06  As1
 BYTE   N06  Ds2
 BYTE   N06  Bn2
 BYTE   W06
 BYTE   En1
 BYTE   W06
 BYTE   Cn1
 BYTE   N06  En1
 BYTE   N06  Fs1
 BYTE   W12
 BYTE   Gs1
 BYTE   N06  Ds2
 BYTE   N06  Bn2
 BYTE   W06
 BYTE   Cn1
 BYTE   W06
 BYTE   N06
 BYTE   N06  En1
 BYTE   N06  Fs1
 BYTE   N06  Gs1
 BYTE   W06
 BYTE   Cn1
 BYTE   N06  En1
 BYTE   N06  Gs1
 BYTE   W06
 BYTE   Cn1
 BYTE   N06  En1
 BYTE   N06  Gs1
 BYTE   N06  As1
 BYTE   N06  Ds2
 BYTE   N06  En2
 BYTE   N06  Bn2
 BYTE   W12
 BYTE   Cn1
 BYTE   N06  En1
 BYTE   N06  Fs1
 BYTE   W12
 BYTE   PEND 
// 017   ----------------------------------------
Label_7_01557DF0:
 BYTE   N06  Cn1  v100
 BYTE   N06  Gs1
 BYTE   N06  Ds2
 BYTE   N06  Bn2
 BYTE   W12
 BYTE   Cn1
 BYTE   N06  Fs1
 BYTE   W06
 BYTE   Cn1
 BYTE   N06  En1
 BYTE   W06
 BYTE   Cn1
 BYTE   N06  En1
 BYTE   N06  Gs1
 BYTE   N06  As1
 BYTE   N06  Ds2
 BYTE   N06  Bn2
 BYTE   W06
 BYTE   En1
 BYTE   W06
 BYTE   Cn1
 BYTE   N06  En1
 BYTE   N06  Fs1
 BYTE   W12
 BYTE   Gs1
 BYTE   N06  Ds2
 BYTE   N06  Bn2
 BYTE   W06
 BYTE   Cn1
 BYTE   W06
 BYTE   N06
 BYTE   N06  En1
 BYTE   N06  Fs1
 BYTE   N06  Gs1
 BYTE   W06
 BYTE   Cn1
 BYTE   N06  En1
 BYTE   N06  Gs1
 BYTE   W06
 BYTE   Cn1
 BYTE   N06  En1
 BYTE   N06  Gs1
 BYTE   N06  Ds2
 BYTE   N06  En2
 BYTE   N06  Bn2
 BYTE   W12
 BYTE   Cn1
 BYTE   N06  En1
 BYTE   N06  Fs1
 BYTE   W12
 BYTE   PEND 
 BYTE   PATT
  POIN2 Label_7_01557D9F
 BYTE   PATT
  POIN2 Label_7_01557DF0
 BYTE   PATT
  POIN2 Label_7_01557D9F
 BYTE   PATT
  POIN2 Label_7_01557DF0
 BYTE   PATT
  POIN2 Label_7_01557D9F
 BYTE   PATT
  POIN2 Label_7_01557DF0
 BYTE   PATT
  POIN2 Label_7_01557C1E
 BYTE   PATT
  POIN2 Label_7_01557C1E
 BYTE   PATT
  POIN2 Label_7_01557C1E
 BYTE   PATT
  POIN2 Label_7_01557C1E
 BYTE   PATT
  POIN2 Label_7_01557C1E
 BYTE   PATT
  POIN2 Label_7_01557C1E
 BYTE   PATT
  POIN2 Label_7_01557C1E
 BYTE   PATT
  POIN2 Label_7_01557C1E
 BYTE   PATT
  POIN2 Label_7_01557C1E
 BYTE   PATT
  POIN2 Label_7_01557C1E
 BYTE   PATT
  POIN2 Label_7_01557C6B
 BYTE   PATT
  POIN2 Label_7_01557C98
 BYTE   PATT
  POIN2 Label_7_01557C6B
 BYTE   PATT
  POIN2 Label_7_01557C98
 BYTE   PATT
  POIN2 Label_7_01557C6B
 BYTE   PATT
  POIN2 Label_7_01557C98
 BYTE   PATT
  POIN2 Label_7_01557CD9
 BYTE   PATT
  POIN2 Label_7_01557D14
 BYTE   PATT
  POIN2 Label_7_01557D4D
 BYTE   PATT
  POIN2 Label_7_01557C98
 BYTE   PATT
  POIN2 Label_7_01557C6B
 BYTE   PATT
  POIN2 Label_7_01557C98
 BYTE   PATT
  POIN2 Label_7_01557C6B
 BYTE   PATT
  POIN2 Label_7_01557C98
 BYTE   PATT
  POIN2 Label_7_01557C6B
 BYTE   PATT
  POIN2 Label_7_01557C98
// 018   ----------------------------------------
Label_7_01557EDF:
 BYTE   N06  Cn1  v100
 BYTE   N06  Gs1
 BYTE   N06  Ds2
 BYTE   W12
 BYTE   Fs1
 BYTE   W06
 BYTE   Cn1
 BYTE   W06
 BYTE   Gs1
 BYTE   N06  Ds2
 BYTE   W12
 BYTE   Cn1
 BYTE   N06  En1
 BYTE   N06  Fs1
 BYTE   N06  En2
 BYTE   N06  Gn2
 BYTE   W12
 BYTE   Gs1
 BYTE   N06  Ds2
 BYTE   W06
 BYTE   Cn1
 BYTE   W06
 BYTE   Fs1
 BYTE   W12
 BYTE   Cn1
 BYTE   N06  En1
 BYTE   N06  Gs1
 BYTE   N06  Ds2
 BYTE   N06  En2
 BYTE   W12
 BYTE   Fs1
 BYTE   W12
 BYTE   PEND 
// 019   ----------------------------------------
Label_7_01557F0E:
 BYTE   N06  Cn1  v100
 BYTE   N06  Gs1
 BYTE   N06  Bn2
 BYTE   W12
 BYTE   Fs1
 BYTE   W06
 BYTE   Cn1
 BYTE   W06
 BYTE   Gs1
 BYTE   N06  Bn2
 BYTE   W12
 BYTE   Cn1
 BYTE   N06  En1
 BYTE   N06  Fs1
 BYTE   N06  En2
 BYTE   W12
 BYTE   Gs1
 BYTE   N06  Bn2
 BYTE   W06
 BYTE   Cn1
 BYTE   W06
 BYTE   Fs1
 BYTE   W12
 BYTE   Cn1
 BYTE   N06  En1
 BYTE   N06  Gs1
 BYTE   N06  En2
 BYTE   N06  Gn2
 BYTE   N06  Bn2
 BYTE   W06
 BYTE   Gn2
 BYTE   W06
 BYTE   Fs1
 BYTE   N06  Gn2
 BYTE   W12
 BYTE   PEND 
 BYTE   PATT
  POIN2 Label_7_01557EDF
 BYTE   PATT
  POIN2 Label_7_01557F0E
 BYTE   PATT
  POIN2 Label_7_01557EDF
 BYTE   PATT
  POIN2 Label_7_01557F0E
// 020   ----------------------------------------
 BYTE   N06  Cn1  v100
 BYTE   N06  Gs1
 BYTE   N06  Ds2
 BYTE   W12
 BYTE   Fs1
 BYTE   W06
 BYTE   Cn1
 BYTE   W06
 BYTE   Gs1
 BYTE   N06  Ds2
 BYTE   W12
 BYTE   Cn1
 BYTE   N06  En1
 BYTE   N06  Fs1
 BYTE   N06  En2
 BYTE   N06  Gn2
 BYTE   W12
 BYTE   Gs1
 BYTE   N06  Ds2
 BYTE   W06
 BYTE   Cn1
 BYTE   N06  Dn1
 BYTE   N06  En1
 BYTE   W06
 BYTE   N06
 BYTE   N06  Fs1
 BYTE   W06
 BYTE   En1
 BYTE   W06
 BYTE   Cn1
 BYTE   N06  Dn1
 BYTE   N06  En1
 BYTE   N06  Gs1
 BYTE   N06  Ds2
 BYTE   N06  En2
 BYTE   W06
 BYTE   En1
 BYTE   W06
 BYTE   Dn1
 BYTE   N06  En1
 BYTE   N06  Fs1
 BYTE   W06
 BYTE   En1
 BYTE   W06
// 021   ----------------------------------------
 BYTE   Cn1
 BYTE   N06  Dn1
 BYTE   N06  En1
 BYTE   N06  Gs1
 BYTE   N06  Bn2
 BYTE   W12
 BYTE   Fs1
 BYTE   W06
 BYTE   Cn1
 BYTE   W06
 BYTE   Gs1
 BYTE   N06  Bn2
 BYTE   W12
 BYTE   Cn1
 BYTE   N06  En1
 BYTE   N06  Fs1
 BYTE   N06  En2
 BYTE   W12
 BYTE   Gs1
 BYTE   N06  Bn2
 BYTE   W06
 BYTE   Cn1
 BYTE   N06  En1
 BYTE   W06
 BYTE   N06
 BYTE   N06  Fs1
 BYTE   W06
 BYTE   En1
 BYTE   W06
 BYTE   Cn1
 BYTE   N06  En1
 BYTE   N06  Gs1
 BYTE   N06  En2
 BYTE   N06  Gn2
 BYTE   N06  Bn2
 BYTE   W06
 BYTE   En1
 BYTE   N06  Gn2
 BYTE   W06
 BYTE   En1
 BYTE   N06  Fs1
 BYTE   N06  Gn2
 BYTE   W06
 BYTE   En1
 BYTE   W03
 BYTE   PAN   c_v+0
 BYTE   W03
// 022   ----------------------------------------
 BYTE   En1
 BYTE   N06  Cn1
 BYTE   N06  Gs1
 BYTE   N48  Cs2
 BYTE   N06  Ds2
 BYTE   N48  An2
 BYTE   W12
 BYTE   N06  Fs1
 BYTE   W06
 BYTE   Cn1
 BYTE   W06
 BYTE   Gs1
 BYTE   N06  Ds2
 BYTE   W12
 BYTE   Cn1
 BYTE   N06  Fs1
 BYTE   N06  En2
 BYTE   N06  Gn2
 BYTE   W12
 BYTE   Gs1
 BYTE   N06  Ds2
 BYTE   W06
 BYTE   Cn1
 BYTE   W06
 BYTE   Fs1
 BYTE   W12
 BYTE   Cn1
 BYTE   N06  Gs1
 BYTE   N06  Ds2
 BYTE   N06  En2
 BYTE   W12
 BYTE   Fs1
 BYTE   W12
// 023   ----------------------------------------
 BYTE   Cn1
 BYTE   N06  Gs1
 BYTE   N06  Bn2
 BYTE   W12
 BYTE   Fs1
 BYTE   W06
 BYTE   Cn1
 BYTE   W06
 BYTE   Gs1
 BYTE   N06  Bn2
 BYTE   W12
 BYTE   Cn1
 BYTE   N06  Fs1
 BYTE   N06  En2
 BYTE   W12
 BYTE   Gs1
 BYTE   N06  Bn2
 BYTE   W06
 BYTE   Cn1
 BYTE   W06
 BYTE   Fs1
 BYTE   W12
 BYTE   Cn1
 BYTE   N06  Gs1
 BYTE   N06  En2
 BYTE   N06  Gn2
 BYTE   N06  Bn2
 BYTE   W06
 BYTE   Gn2
 BYTE   W06
 BYTE   Fs1
 BYTE   N06  Gn2
 BYTE   W12
// 024   ----------------------------------------
 BYTE   Cn1
 BYTE   N06  Gs1
 BYTE   N06  Ds2
 BYTE   W12
 BYTE   Fs1
 BYTE   W06
 BYTE   Cn1
 BYTE   W06
 BYTE   Gs1
 BYTE   N06  Ds2
 BYTE   W12
 BYTE   Cn1
 BYTE   N06  Fs1
 BYTE   N06  En2
 BYTE   N06  Gn2
 BYTE   W12
 BYTE   Gs1
 BYTE   N06  Ds2
 BYTE   W06
 BYTE   Cn1
 BYTE   W06
 BYTE   Fs1
 BYTE   W12
 BYTE   Cn1
 BYTE   N06  Gs1
 BYTE   N06  Ds2
 BYTE   N06  En2
 BYTE   W12
 BYTE   Fs1
 BYTE   W12
// 025   ----------------------------------------
 BYTE   Cn1
 BYTE   N12  En1
 BYTE   N06  Gs1
 BYTE   N12  Cs2
 BYTE   N06  Bn2
 BYTE   W12
 BYTE   Fs1
 BYTE   W06
 BYTE   Cn1
 BYTE   W06
 BYTE   Gs1
 BYTE   N06  Bn2
 BYTE   W12
 BYTE   Cn1
 BYTE   N06  Fs1
 BYTE   N06  En2
 BYTE   W12
 BYTE   N12  Dn1
 BYTE   N12  En1
 BYTE   N06  Gs1
 BYTE   N12  Cs2
 BYTE   N12  An2
 BYTE   N06  Bn2
 BYTE   W06
 BYTE   Cn1
 BYTE   W06
 BYTE   Fs1
 BYTE   W12
 BYTE   Cn1
 BYTE   N06  Gs1
 BYTE   N06  En2
 BYTE   N06  Gn2
 BYTE   N06  Bn2
 BYTE   W06
 BYTE   Gn2
 BYTE   W06
 BYTE   Fs1
 BYTE   N06  Gn2
 BYTE   W12
 BYTE   PATT
  POIN2 Label_7_01557EDF
 BYTE   PATT
  POIN2 Label_7_01557F0E
 BYTE   PATT
  POIN2 Label_7_01557EDF
 BYTE   PATT
  POIN2 Label_7_01557F0E
 BYTE   PATT
  POIN2 Label_7_01557EDF
 BYTE   PATT
  POIN2 Label_7_01557F0E
 BYTE   PATT
  POIN2 Label_7_01557EDF
 BYTE   PATT
  POIN2 Label_7_01557F0E
 BYTE   PATT
  POIN2 Label_7_01557C1E
// 026   ----------------------------------------
 BYTE   GoTo
  POIN2 Label_7_01557C1E
 BYTE   FINE

//**************** Track 9 (Midi-Chn.8) ****************//

KirbyReturntoDreamLandCROWNEDRandomWizard_009:
// 000   ----------------------------------------
 BYTE   KEYSH   KirbyReturntoDreamLandCROWNEDRandomWizard_key+0
 BYTE   W09
 BYTE   W03
 BYTE   VOL   35*KirbyReturntoDreamLandCROWNEDRandomWizard_mvl/mxv
 BYTE   W03
 BYTE   PAN   c_v+0
 BYTE   W03
 BYTE   W03
 BYTE   W03
 BYTE   VOICE   60
 BYTE   W96
// 001   ----------------------------------------
 BYTE   W96
// 002   ----------------------------------------
 BYTE   W96
// 003   ----------------------------------------
 BYTE   W96
// 004   ----------------------------------------
 BYTE   W96
// 005   ----------------------------------------
 BYTE   W96
// 006   ----------------------------------------
 BYTE   W96
// 007   ----------------------------------------
 BYTE   W96
// 008   ----------------------------------------
 BYTE   W96
// 009   ----------------------------------------
 BYTE   W96
// 010   ----------------------------------------
Label_8_015580E0:
 BYTE   W96
// 011   ----------------------------------------
 BYTE   W96
// 012   ----------------------------------------
 BYTE   W96
// 013   ----------------------------------------
 BYTE   W96
// 014   ----------------------------------------
 BYTE   W96
// 015   ----------------------------------------
 BYTE   W96
// 016   ----------------------------------------
 BYTE   W96
// 017   ----------------------------------------
 BYTE   W96
// 018   ----------------------------------------
 BYTE   W96
// 019   ----------------------------------------
 BYTE   W96
// 020   ----------------------------------------
 BYTE   W96
// 021   ----------------------------------------
 BYTE   W96
// 022   ----------------------------------------
 BYTE   W96
// 023   ----------------------------------------
 BYTE   W96
// 024   ----------------------------------------
 BYTE   W96
// 025   ----------------------------------------
 BYTE   W96
// 026   ----------------------------------------
 BYTE   W96
// 027   ----------------------------------------
 BYTE   W96
// 028   ----------------------------------------
 BYTE   W96
// 029   ----------------------------------------
 BYTE   W96
// 030   ----------------------------------------
 BYTE   W96
// 031   ----------------------------------------
 BYTE   W96
// 032   ----------------------------------------
 BYTE   W96
// 033   ----------------------------------------
 BYTE   W96
// 034   ----------------------------------------
 BYTE   W96
// 035   ----------------------------------------
 BYTE   W96
// 036   ----------------------------------------
 BYTE   W96
// 037   ----------------------------------------
 BYTE   W96
// 038   ----------------------------------------
 BYTE   W96
// 039   ----------------------------------------
 BYTE   W96
// 040   ----------------------------------------
 BYTE   W96
// 041   ----------------------------------------
 BYTE   W96
// 042   ----------------------------------------
 BYTE   W96
// 043   ----------------------------------------
 BYTE   W96
// 044   ----------------------------------------
 BYTE   W96
// 045   ----------------------------------------
 BYTE   W96
// 046   ----------------------------------------
 BYTE   W96
// 047   ----------------------------------------
 BYTE   W96
// 048   ----------------------------------------
 BYTE   W96
// 049   ----------------------------------------
 BYTE   W96
// 050   ----------------------------------------
 BYTE   W96
// 051   ----------------------------------------
 BYTE   W96
// 052   ----------------------------------------
 BYTE   W96
// 053   ----------------------------------------
 BYTE   W06
 BYTE   PAN   c_v-24
 BYTE   N06  Gs3  v100
 BYTE   W06
 BYTE   N06
 BYTE   W06
 BYTE   N06
 BYTE   W06
 BYTE   N06
 BYTE   W06
 BYTE   N06
 BYTE   W06
 BYTE   N06
 BYTE   W06
 BYTE   N06
 BYTE   W06
 BYTE   N06
 BYTE   W06
 BYTE   Ds3
 BYTE   W06
 BYTE   As3
 BYTE   W06
 BYTE   Ds3
 BYTE   W06
 BYTE   Bn3
 BYTE   W06
 BYTE   Gs3
 BYTE   W06
 BYTE   Cs4
 BYTE   W06
 BYTE   N54  Fs4
 BYTE   W06
// 054   ----------------------------------------
 BYTE   W96
// 055   ----------------------------------------
Label_8_01558130:
 BYTE   W06
 BYTE   N06  Gs3  v100
 BYTE   W06
 BYTE   N06
 BYTE   W06
 BYTE   N06
 BYTE   W06
 BYTE   N06
 BYTE   W06
 BYTE   N06
 BYTE   W06
 BYTE   N06
 BYTE   W06
 BYTE   N06
 BYTE   W06
 BYTE   N06
 BYTE   W06
 BYTE   Ds3
 BYTE   W06
 BYTE   As3
 BYTE   W06
 BYTE   Ds3
 BYTE   W06
 BYTE   Bn3
 BYTE   W06
 BYTE   Gs3
 BYTE   W06
 BYTE   Cs4
 BYTE   W06
 BYTE   N54  Fs4
 BYTE   W06
 BYTE   PEND 
// 056   ----------------------------------------
 BYTE   W96
 BYTE   PATT
  POIN2 Label_8_01558130
// 057   ----------------------------------------
 BYTE   W72
 BYTE   PAN   c_v+0
 BYTE   N24  En4  v100
 BYTE   W24
// 058   ----------------------------------------
 BYTE   Ds4
 BYTE   W24
 BYTE   As4
 BYTE   W24
 BYTE   Cs4
 BYTE   W24
 BYTE   Bn3
 BYTE   W24
// 059   ----------------------------------------
 BYTE   N72  As3
 BYTE   W96
// 060   ----------------------------------------
 BYTE   W96
// 061   ----------------------------------------
 BYTE   W96
// 062   ----------------------------------------
 BYTE   W96
// 063   ----------------------------------------
 BYTE   W96
// 064   ----------------------------------------
 BYTE   N36  Bn2
 BYTE   W36
 BYTE   N06  Gs2
 BYTE   W06
 BYTE   Bn2
 BYTE   W06
 BYTE   N24  Gs3
 BYTE   W24
 BYTE   Gs2
 BYTE   W24
// 065   ----------------------------------------
 BYTE   N36  As2
 BYTE   W36
 BYTE   N06  Fs2
 BYTE   W06
 BYTE   As2
 BYTE   W06
 BYTE   N12  Fs3
 BYTE   W12
 BYTE   N24  Cs3
 BYTE   W24
 BYTE   N12  En3
 BYTE   W12
// 066   ----------------------------------------
 BYTE   N92  Ds3
 BYTE   W96
// 067   ----------------------------------------
 BYTE   W72
 BYTE   PAN   c_v-24
 BYTE   N18  Gn2
 BYTE   W18
 BYTE   N06
 BYTE   W03
 BYTE   PAN   c_v+0
 BYTE   W03
// 068   ----------------------------------------
Label_8_0155819B:
 BYTE   N72  Cn3  v100
 BYTE   W72
 BYTE   N18
 BYTE   W18
 BYTE   N06  Ds3
 BYTE   W06
 BYTE   PEND 
// 069   ----------------------------------------
 BYTE   N12  Gn3
 BYTE   W12
 BYTE   Cn4
 BYTE   W12
 BYTE   As3
 BYTE   W12
 BYTE   Gs3
 BYTE   W12
 BYTE   N24  Gn3
 BYTE   W24
 BYTE   N18  Gn2
 BYTE   W18
 BYTE   N06
 BYTE   W06
 BYTE   PATT
  POIN2 Label_8_0155819B
// 070   ----------------------------------------
 BYTE   N12  Fn3  v100
 BYTE   W12
 BYTE   As3
 BYTE   W12
 BYTE   Fn3
 BYTE   W12
 BYTE   Dn3
 BYTE   W12
 BYTE   N48  As2
 BYTE   W48
// 071   ----------------------------------------
 BYTE   W96
// 072   ----------------------------------------
 BYTE   W96
// 073   ----------------------------------------
 BYTE   W96
// 074   ----------------------------------------
 BYTE   N12  Gn2
 BYTE   W12
 BYTE   N12
 BYTE   W12
 BYTE   N12
 BYTE   W12
 BYTE   N12
 BYTE   W60
// 075   ----------------------------------------
 BYTE   W96
// 076   ----------------------------------------
 BYTE   W96
// 077   ----------------------------------------
 BYTE   N96  Fn1
 BYTE   W96
// 078   ----------------------------------------
 BYTE   N18  Gs1
 BYTE   W18
 BYTE   Dn1
 BYTE   W18
 BYTE   N12  Gs1
 BYTE   W12
 BYTE   N18  Fn1
 BYTE   W18
 BYTE   Dn1
 BYTE   W18
 BYTE   N12  As0
 BYTE   W12
// 079   ----------------------------------------
 BYTE   N92  Cn1
 BYTE   W96
// 080   ----------------------------------------
 BYTE   PAN   c_v-24
 BYTE   N96
 BYTE   W92
 BYTE   W01
 BYTE   PAN   c_v+0
 BYTE   W03
// 081   ----------------------------------------
Label_8_015581F4:
 BYTE   PAN   c_v-24
 BYTE   N96  Cn1  v100
 BYTE   W96
 BYTE   PEND 
// 082   ----------------------------------------
Label_8_015581FB:
 BYTE   N96  Cn1  v100
 BYTE   W92
 BYTE   W01
 BYTE   PAN   c_v+0
 BYTE   W03
 BYTE   PEND 
 BYTE   PATT
  POIN2 Label_8_015581F4
 BYTE   PATT
  POIN2 Label_8_015581FB
 BYTE   PATT
  POIN2 Label_8_015581F4
 BYTE   PATT
  POIN2 Label_8_015581FB
// 083   ----------------------------------------
 BYTE   W96
// 084   ----------------------------------------
 BYTE   GoTo
  POIN2 Label_8_015580E0
 BYTE   FINE

//**************** Track 10 (Midi-Chn.9) ****************//

KirbyReturntoDreamLandCROWNEDRandomWizard_010:
// 000   ----------------------------------------
 BYTE   KEYSH   KirbyReturntoDreamLandCROWNEDRandomWizard_key+0
 BYTE   VOICE   0
 BYTE   W09
 BYTE   W03
 BYTE   VOL   35*KirbyReturntoDreamLandCROWNEDRandomWizard_mvl/mxv
 BYTE   W03
 BYTE   PAN   c_v+0
 BYTE   W03
 BYTE   W03
 BYTE   W03
 BYTE   W96
// 001   ----------------------------------------
 BYTE   W96
// 002   ----------------------------------------
 BYTE   W96
// 003   ----------------------------------------
 BYTE   W96
// 004   ----------------------------------------
 BYTE   W96
// 005   ----------------------------------------
 BYTE   W96
// 006   ----------------------------------------
 BYTE   W96
// 007   ----------------------------------------
 BYTE   W96
// 008   ----------------------------------------
 BYTE   W96
// 009   ----------------------------------------
 BYTE   W96
// 010   ----------------------------------------
Label_9_01558238:
 BYTE   W96
// 011   ----------------------------------------
 BYTE   W96
// 012   ----------------------------------------
 BYTE   W96
// 013   ----------------------------------------
 BYTE   W96
// 014   ----------------------------------------
 BYTE   W96
// 015   ----------------------------------------
 BYTE   W96
// 016   ----------------------------------------
 BYTE   W96
// 017   ----------------------------------------
 BYTE   W96
// 018   ----------------------------------------
 BYTE   W96
// 019   ----------------------------------------
 BYTE   W96
// 020   ----------------------------------------
 BYTE   W96
// 021   ----------------------------------------
 BYTE   W96
// 022   ----------------------------------------
 BYTE   W96
// 023   ----------------------------------------
 BYTE   W96
// 024   ----------------------------------------
 BYTE   W96
// 025   ----------------------------------------
 BYTE   W96
// 026   ----------------------------------------
 BYTE   W96
// 027   ----------------------------------------
 BYTE   W96
// 028   ----------------------------------------
 BYTE   W96
// 029   ----------------------------------------
 BYTE   W96
// 030   ----------------------------------------
 BYTE   W96
// 031   ----------------------------------------
 BYTE   W96
// 032   ----------------------------------------
 BYTE   W96
// 033   ----------------------------------------
 BYTE   W96
// 034   ----------------------------------------
 BYTE   W96
// 035   ----------------------------------------
 BYTE   W96
// 036   ----------------------------------------
 BYTE   W96
// 037   ----------------------------------------
 BYTE   W96
// 038   ----------------------------------------
 BYTE   W96
// 039   ----------------------------------------
 BYTE   W96
// 040   ----------------------------------------
 BYTE   W96
// 041   ----------------------------------------
 BYTE   W96
// 042   ----------------------------------------
 BYTE   W96
// 043   ----------------------------------------
 BYTE   W96
// 044   ----------------------------------------
 BYTE   W96
// 045   ----------------------------------------
 BYTE   W96
// 046   ----------------------------------------
 BYTE   W96
// 047   ----------------------------------------
 BYTE   W96
// 048   ----------------------------------------
 BYTE   W96
// 049   ----------------------------------------
 BYTE   W96
// 050   ----------------------------------------
 BYTE   W96
// 051   ----------------------------------------
 BYTE   W96
// 052   ----------------------------------------
 BYTE   W96
// 053   ----------------------------------------
 BYTE   W96
// 054   ----------------------------------------
 BYTE   W96
// 055   ----------------------------------------
 BYTE   W96
// 056   ----------------------------------------
 BYTE   W96
// 057   ----------------------------------------
 BYTE   W96
// 058   ----------------------------------------
 BYTE   W96
// 059   ----------------------------------------
 BYTE   W96
// 060   ----------------------------------------
 BYTE   W96
// 061   ----------------------------------------
 BYTE   W96
// 062   ----------------------------------------
 BYTE   W96
// 063   ----------------------------------------
 BYTE   W96
// 064   ----------------------------------------
 BYTE   W96
// 065   ----------------------------------------
 BYTE   W96
// 066   ----------------------------------------
 BYTE   W96
// 067   ----------------------------------------
 BYTE   W96
// 068   ----------------------------------------
 BYTE   W96
// 069   ----------------------------------------
Label_9_01558273:
 BYTE   N96  Ds1  v100
 BYTE   N96  Gn1
 BYTE   N96  Cn2
 BYTE   W96
 BYTE   PEND 
// 070   ----------------------------------------
Label_9_0155827C:
 BYTE   N96  Dn1  v100
 BYTE   N96  Fn1
 BYTE   N96  As1
 BYTE   W96
 BYTE   PEND 
 BYTE   PATT
  POIN2 Label_9_01558273
 BYTE   PATT
  POIN2 Label_9_0155827C
// 071   ----------------------------------------
Label_9_0155828F:
 BYTE   N48  Cn1  v100
 BYTE   N48  Fn1
 BYTE   W48
 BYTE   As1
 BYTE   W48
 BYTE   PEND 
// 072   ----------------------------------------
Label_9_01558298:
 BYTE   N48  As0  v100
 BYTE   N48  Ds1
 BYTE   W48
 BYTE   N48
 BYTE   N48  Gs1
 BYTE   W48
 BYTE   PEND 
// 073   ----------------------------------------
Label_9_015582A3:
 BYTE   N36  Bn0  v100
 BYTE   N36  Dn1
 BYTE   W36
 BYTE   N60  Bn0
 BYTE   N60  Dn1
 BYTE   W60
 BYTE   PEND 
// 074   ----------------------------------------
Label_9_015582AF:
 BYTE   N36  Dn1  v100
 BYTE   N36  Gn1
 BYTE   W36
 BYTE   N56  Dn1
 BYTE   N56  Gn1
 BYTE   W60
 BYTE   PEND 
 BYTE   PATT
  POIN2 Label_9_0155828F
 BYTE   PATT
  POIN2 Label_9_01558298
 BYTE   PATT
  POIN2 Label_9_015582A3
 BYTE   PATT
  POIN2 Label_9_015582AF
// 075   ----------------------------------------
 BYTE   W96
// 076   ----------------------------------------
 BYTE   W96
// 077   ----------------------------------------
 BYTE   W96
// 078   ----------------------------------------
 BYTE   W96
// 079   ----------------------------------------
 BYTE   W96
// 080   ----------------------------------------
 BYTE   W96
// 081   ----------------------------------------
 BYTE   W96
// 082   ----------------------------------------
 BYTE   W96
// 083   ----------------------------------------
 BYTE   W96
// 084   ----------------------------------------
 BYTE   GoTo
  POIN2 Label_9_01558238
 BYTE   FINE

//**************** Track 11 (Midi-Chn.10) ****************//

KirbyReturntoDreamLandCROWNEDRandomWizard_011:
// 000   ----------------------------------------
 BYTE   KEYSH   KirbyReturntoDreamLandCROWNEDRandomWizard_key+0
 BYTE   W09
 BYTE   W03
 BYTE   VOL   35*KirbyReturntoDreamLandCROWNEDRandomWizard_mvl/mxv
 BYTE   W03
 BYTE   PAN   c_v+0
 BYTE   W03
 BYTE   W03
 BYTE   W03
 BYTE   VOICE   14
 BYTE   W96
// 001   ----------------------------------------
 BYTE   W96
// 002   ----------------------------------------
 BYTE   W96
// 003   ----------------------------------------
 BYTE   W96
// 004   ----------------------------------------
 BYTE   W96
// 005   ----------------------------------------
 BYTE   W96
// 006   ----------------------------------------
 BYTE   W96
// 007   ----------------------------------------
 BYTE   W96
// 008   ----------------------------------------
 BYTE   W96
// 009   ----------------------------------------
 BYTE   W96
// 010   ----------------------------------------
Label_10_015582F8:
 BYTE   W96
// 011   ----------------------------------------
 BYTE   W96
// 012   ----------------------------------------
 BYTE   W96
// 013   ----------------------------------------
 BYTE   W96
// 014   ----------------------------------------
 BYTE   W96
// 015   ----------------------------------------
 BYTE   W96
// 016   ----------------------------------------
 BYTE   W96
// 017   ----------------------------------------
 BYTE   W96
// 018   ----------------------------------------
 BYTE   W96
// 019   ----------------------------------------
 BYTE   W96
// 020   ----------------------------------------
 BYTE   W96
// 021   ----------------------------------------
 BYTE   W96
// 022   ----------------------------------------
 BYTE   W96
// 023   ----------------------------------------
 BYTE   W96
// 024   ----------------------------------------
 BYTE   W96
// 025   ----------------------------------------
 BYTE   W96
// 026   ----------------------------------------
 BYTE   W96
// 027   ----------------------------------------
 BYTE   W96
// 028   ----------------------------------------
 BYTE   W96
// 029   ----------------------------------------
 BYTE   W96
// 030   ----------------------------------------
 BYTE   W96
// 031   ----------------------------------------
 BYTE   W96
// 032   ----------------------------------------
 BYTE   W96
// 033   ----------------------------------------
 BYTE   W96
// 034   ----------------------------------------
 BYTE   W96
// 035   ----------------------------------------
 BYTE   W96
// 036   ----------------------------------------
 BYTE   W96
// 037   ----------------------------------------
 BYTE   W96
// 038   ----------------------------------------
 BYTE   W96
// 039   ----------------------------------------
 BYTE   N24  Ds5  v100
 BYTE   W24
 BYTE   N24
 BYTE   W24
 BYTE   N18
 BYTE   W18
 BYTE   N06  En5
 BYTE   W06
 BYTE   N12  Ds5
 BYTE   W12
 BYTE   Cs5
 BYTE   W12
// 040   ----------------------------------------
 BYTE   N18  Cn5
 BYTE   W18
 BYTE   N06  Dn5
 BYTE   W06
 BYTE   N12  Cn5
 BYTE   W12
 BYTE   Bn4
 BYTE   W12
 BYTE   N24  As4
 BYTE   W24
 BYTE   Fs4
 BYTE   W24
// 041   ----------------------------------------
 BYTE   N96  En4
 BYTE   W96
// 042   ----------------------------------------
 BYTE   N48  Gn4
 BYTE   W48
 BYTE   Cn5
 BYTE   W48
// 043   ----------------------------------------
 BYTE   W96
// 044   ----------------------------------------
 BYTE   W96
// 045   ----------------------------------------
 BYTE   W96
// 046   ----------------------------------------
 BYTE   W96
// 047   ----------------------------------------
 BYTE   W96
// 048   ----------------------------------------
 BYTE   W96
// 049   ----------------------------------------
 BYTE   W96
// 050   ----------------------------------------
 BYTE   W96
// 051   ----------------------------------------
 BYTE   W96
// 052   ----------------------------------------
 BYTE   W96
// 053   ----------------------------------------
 BYTE   W96
// 054   ----------------------------------------
 BYTE   W96
// 055   ----------------------------------------
 BYTE   PAN   c_v-24
 BYTE   TIE  Gs4
 BYTE   W96
// 056   ----------------------------------------
 BYTE   W72
 BYTE   EOT
 BYTE   W24
// 057   ----------------------------------------
 BYTE   TIE
 BYTE   W96
// 058   ----------------------------------------
 BYTE   W72
 BYTE   EOT
 BYTE   W24
// 059   ----------------------------------------
 BYTE   W96
// 060   ----------------------------------------
 BYTE   W96
// 061   ----------------------------------------
 BYTE   W96
// 062   ----------------------------------------
 BYTE   W96
// 063   ----------------------------------------
 BYTE   W96
// 064   ----------------------------------------
 BYTE   W96
// 065   ----------------------------------------
 BYTE   W96
// 066   ----------------------------------------
 BYTE   W96
// 067   ----------------------------------------
 BYTE   W96
// 068   ----------------------------------------
 BYTE   W96
// 069   ----------------------------------------
 BYTE   W96
// 070   ----------------------------------------
 BYTE   W96
// 071   ----------------------------------------
 BYTE   W96
// 072   ----------------------------------------
 BYTE   W96
// 073   ----------------------------------------
 BYTE   W96
// 074   ----------------------------------------
 BYTE   W96
// 075   ----------------------------------------
 BYTE   W96
// 076   ----------------------------------------
 BYTE   W96
// 077   ----------------------------------------
 BYTE   W96
// 078   ----------------------------------------
 BYTE   W96
// 079   ----------------------------------------
 BYTE   W24
 BYTE   N68  Ds4
 BYTE   W24
 BYTE   N12  Gs4
 BYTE   W24
 BYTE   N72  Cn4
 BYTE   W24
// 080   ----------------------------------------
 BYTE   N96  Ds4
 BYTE   W96
// 081   ----------------------------------------
 BYTE   W96
// 082   ----------------------------------------
 BYTE   W96
// 083   ----------------------------------------
 BYTE   W96
// 084   ----------------------------------------
 BYTE   W96
// 085   ----------------------------------------
 BYTE   W96
// 086   ----------------------------------------
 BYTE   W96
// 087   ----------------------------------------
 BYTE   W96
// 088   ----------------------------------------
 BYTE   W96
// 089   ----------------------------------------
 BYTE   W96
// 090   ----------------------------------------
 BYTE   GoTo
  POIN2 Label_10_015582F8
 BYTE   FINE

//**************** Track 12 (Midi-Chn.11) ****************//

KirbyReturntoDreamLandCROWNEDRandomWizard_012:
// 000   ----------------------------------------
 BYTE   KEYSH   KirbyReturntoDreamLandCROWNEDRandomWizard_key+0
 BYTE   W09
 BYTE   W03
 BYTE   VOL   35*KirbyReturntoDreamLandCROWNEDRandomWizard_mvl/mxv
 BYTE   W03
 BYTE   PAN   c_v+0
 BYTE   W03
 BYTE   W03
 BYTE   W03
 BYTE   VOICE   45
 BYTE   W96
// 001   ----------------------------------------
 BYTE   W96
// 002   ----------------------------------------
 BYTE   W96
// 003   ----------------------------------------
 BYTE   W96
// 004   ----------------------------------------
 BYTE   W96
// 005   ----------------------------------------
 BYTE   W96
// 006   ----------------------------------------
 BYTE   W96
// 007   ----------------------------------------
 BYTE   W96
// 008   ----------------------------------------
 BYTE   W96
// 009   ----------------------------------------
 BYTE   W96
// 010   ----------------------------------------
Label_11_015583A0:
 BYTE   W96
// 011   ----------------------------------------
 BYTE   W96
// 012   ----------------------------------------
 BYTE   W96
// 013   ----------------------------------------
 BYTE   W96
// 014   ----------------------------------------
 BYTE   W96
// 015   ----------------------------------------
 BYTE   W96
// 016   ----------------------------------------
 BYTE   W96
// 017   ----------------------------------------
 BYTE   W96
// 018   ----------------------------------------
 BYTE   W96
// 019   ----------------------------------------
 BYTE   W96
// 020   ----------------------------------------
 BYTE   W96
// 021   ----------------------------------------
 BYTE   W96
// 022   ----------------------------------------
 BYTE   W96
// 023   ----------------------------------------
 BYTE   W96
// 024   ----------------------------------------
 BYTE   W96
// 025   ----------------------------------------
 BYTE   W96
// 026   ----------------------------------------
 BYTE   W96
// 027   ----------------------------------------
 BYTE   W96
// 028   ----------------------------------------
 BYTE   W96
// 029   ----------------------------------------
 BYTE   W96
// 030   ----------------------------------------
 BYTE   W96
// 031   ----------------------------------------
 BYTE   W96
// 032   ----------------------------------------
 BYTE   W96
// 033   ----------------------------------------
 BYTE   W96
// 034   ----------------------------------------
 BYTE   W96
// 035   ----------------------------------------
 BYTE   W96
// 036   ----------------------------------------
 BYTE   W96
// 037   ----------------------------------------
 BYTE   W96
// 038   ----------------------------------------
 BYTE   W96
// 039   ----------------------------------------
 BYTE   W96
// 040   ----------------------------------------
 BYTE   W96
// 041   ----------------------------------------
 BYTE   PAN   c_v-24
 BYTE   N06  Bn2  v100
 BYTE   N06  Bn3
 BYTE   W12
 BYTE   En3
 BYTE   N06  En4
 BYTE   W12
 BYTE   Fs3
 BYTE   N06  Fs4
 BYTE   W12
 BYTE   Bn2
 BYTE   N06  Bn3
 BYTE   W12
 BYTE   En3
 BYTE   N06  En4
 BYTE   W06
 BYTE   Fs3
 BYTE   N06  Fs4
 BYTE   W06
 BYTE   Bn2
 BYTE   N06  Bn3
 BYTE   W12
 BYTE   En3
 BYTE   N06  En4
 BYTE   W12
 BYTE   Fs3
 BYTE   N06  Fs4
 BYTE   W12
// 042   ----------------------------------------
 BYTE   As2
 BYTE   N06  As3
 BYTE   W12
 BYTE   Ds3
 BYTE   N06  Ds4
 BYTE   W12
 BYTE   Fn3
 BYTE   N06  Fn4
 BYTE   W12
 BYTE   As2
 BYTE   N06  As3
 BYTE   W12
 BYTE   Ds3
 BYTE   N06  Ds4
 BYTE   W06
 BYTE   Fn3
 BYTE   N06  Fn4
 BYTE   W06
 BYTE   As2
 BYTE   N06  As3
 BYTE   W12
 BYTE   Ds3
 BYTE   N06  Ds4
 BYTE   W12
 BYTE   Fn3
 BYTE   N06  Fn4
 BYTE   W12
// 043   ----------------------------------------
 BYTE   W96
// 044   ----------------------------------------
 BYTE   W96
// 045   ----------------------------------------
 BYTE   W96
// 046   ----------------------------------------
 BYTE   W96
// 047   ----------------------------------------
 BYTE   W96
// 048   ----------------------------------------
 BYTE   W96
// 049   ----------------------------------------
 BYTE   W96
// 050   ----------------------------------------
 BYTE   W96
// 051   ----------------------------------------
 BYTE   W96
// 052   ----------------------------------------
 BYTE   W96
// 053   ----------------------------------------
 BYTE   W96
// 054   ----------------------------------------
 BYTE   W96
// 055   ----------------------------------------
 BYTE   W96
// 056   ----------------------------------------
 BYTE   W96
// 057   ----------------------------------------
 BYTE   W96
// 058   ----------------------------------------
 BYTE   W96
// 059   ----------------------------------------
 BYTE   W96
// 060   ----------------------------------------
 BYTE   W96
// 061   ----------------------------------------
 BYTE   W96
// 062   ----------------------------------------
 BYTE   W96
// 063   ----------------------------------------
 BYTE   W96
// 064   ----------------------------------------
 BYTE   W96
// 065   ----------------------------------------
 BYTE   W96
// 066   ----------------------------------------
 BYTE   W96
// 067   ----------------------------------------
 BYTE   W96
// 068   ----------------------------------------
 BYTE   W96
// 069   ----------------------------------------
 BYTE   W96
// 070   ----------------------------------------
 BYTE   W96
// 071   ----------------------------------------
 BYTE   W96
// 072   ----------------------------------------
 BYTE   W96
// 073   ----------------------------------------
 BYTE   W96
// 074   ----------------------------------------
 BYTE   W96
// 075   ----------------------------------------
 BYTE   W96
// 076   ----------------------------------------
 BYTE   W96
// 077   ----------------------------------------
 BYTE   W96
// 078   ----------------------------------------
 BYTE   W96
// 079   ----------------------------------------
 BYTE   PAN   c_v+0
 BYTE   N96  Ds1
 BYTE   W96
// 080   ----------------------------------------
 BYTE   N18  Fn1
 BYTE   W18
 BYTE   Cn1
 BYTE   W18
 BYTE   N12  Fn1
 BYTE   W12
 BYTE   N18  Gn1
 BYTE   W18
 BYTE   Dn1
 BYTE   W18
 BYTE   N12  As0
 BYTE   W12
// 081   ----------------------------------------
 BYTE   N96  Cn1
 BYTE   W96
// 082   ----------------------------------------
 BYTE   W96
// 083   ----------------------------------------
 BYTE   W96
// 084   ----------------------------------------
 BYTE   W96
// 085   ----------------------------------------
 BYTE   W96
// 086   ----------------------------------------
 BYTE   W96
// 087   ----------------------------------------
 BYTE   W96
// 088   ----------------------------------------
 BYTE   W96
// 089   ----------------------------------------
 BYTE   W96
// 090   ----------------------------------------
 BYTE   GoTo
  POIN2 Label_11_015583A0
 BYTE   FINE

//**************** Track 13 (Midi-Chn.12) ****************//

KirbyReturntoDreamLandCROWNEDRandomWizard_013:
// 000   ----------------------------------------
 BYTE   KEYSH   KirbyReturntoDreamLandCROWNEDRandomWizard_key+0
 BYTE   W09
 BYTE   W03
 BYTE   VOL   35*KirbyReturntoDreamLandCROWNEDRandomWizard_mvl/mxv
 BYTE   W03
 BYTE   PAN   c_v+0
 BYTE   W03
 BYTE   W03
 BYTE   W03
 BYTE   VOICE   73
 BYTE   W96
// 001   ----------------------------------------
 BYTE   W96
// 002   ----------------------------------------
 BYTE   W96
// 003   ----------------------------------------
 BYTE   W96
// 004   ----------------------------------------
 BYTE   W96
// 005   ----------------------------------------
 BYTE   W96
// 006   ----------------------------------------
 BYTE   W96
// 007   ----------------------------------------
 BYTE   W96
// 008   ----------------------------------------
 BYTE   W96
// 009   ----------------------------------------
 BYTE   W96
// 010   ----------------------------------------
Label_12_01558470:
 BYTE   W96
// 011   ----------------------------------------
 BYTE   W96
// 012   ----------------------------------------
 BYTE   W96
// 013   ----------------------------------------
 BYTE   W96
// 014   ----------------------------------------
 BYTE   W96
// 015   ----------------------------------------
 BYTE   W96
// 016   ----------------------------------------
 BYTE   W96
// 017   ----------------------------------------
 BYTE   W96
// 018   ----------------------------------------
 BYTE   W96
// 019   ----------------------------------------
 BYTE   W96
// 020   ----------------------------------------
 BYTE   W96
// 021   ----------------------------------------
 BYTE   W96
// 022   ----------------------------------------
 BYTE   W96
// 023   ----------------------------------------
 BYTE   W96
// 024   ----------------------------------------
 BYTE   W96
// 025   ----------------------------------------
 BYTE   W96
// 026   ----------------------------------------
 BYTE   W96
// 027   ----------------------------------------
 BYTE   W96
// 028   ----------------------------------------
 BYTE   W96
// 029   ----------------------------------------
 BYTE   W96
// 030   ----------------------------------------
 BYTE   W96
// 031   ----------------------------------------
 BYTE   W96
// 032   ----------------------------------------
 BYTE   W96
// 033   ----------------------------------------
 BYTE   W06
 BYTE   PAN   c_v-24
 BYTE   N06  As3  v100
 BYTE   N06  Gs4
 BYTE   W06
 BYTE   As3
 BYTE   N06  Gs4
 BYTE   W06
 BYTE   As3
 BYTE   N06  Gs4
 BYTE   W06
 BYTE   As3
 BYTE   N06  Gs4
 BYTE   W06
 BYTE   As3
 BYTE   N06  Gs4
 BYTE   W06
 BYTE   As3
 BYTE   N06  Gs4
 BYTE   W06
 BYTE   As3
 BYTE   N06  Gs4
 BYTE   W06
 BYTE   As3
 BYTE   N06  Gs4
 BYTE   W06
 BYTE   As3
 BYTE   N06  Gs4
 BYTE   W06
 BYTE   As3
 BYTE   N06  Gs4
 BYTE   W06
 BYTE   As3
 BYTE   N06  Gs4
 BYTE   W06
 BYTE   As3
 BYTE   N06  Gs4
 BYTE   W06
 BYTE   Gs3
 BYTE   N06  As4
 BYTE   W06
 BYTE   Bn3
 BYTE   N06  Bn4
 BYTE   W06
 BYTE   Gs3
 BYTE   N06  Gs4
 BYTE   W06
// 034   ----------------------------------------
 BYTE   N18  Fs5
 BYTE   W18
 BYTE   Cs5
 BYTE   W18
 BYTE   N12  Ds5
 BYTE   W12
 BYTE   N18  Ds4
 BYTE   W18
 BYTE   Cs4
 BYTE   W18
 BYTE   N12  Fs4
 BYTE   W09
 BYTE   PAN   c_v+0
 BYTE   W03
// 035   ----------------------------------------
 BYTE   W96
// 036   ----------------------------------------
 BYTE   W96
// 037   ----------------------------------------
 BYTE   W96
// 038   ----------------------------------------
 BYTE   W96
// 039   ----------------------------------------
 BYTE   W96
// 040   ----------------------------------------
 BYTE   W96
// 041   ----------------------------------------
 BYTE   W96
// 042   ----------------------------------------
 BYTE   W96
// 043   ----------------------------------------
 BYTE   W96
// 044   ----------------------------------------
 BYTE   W96
// 045   ----------------------------------------
 BYTE   W96
// 046   ----------------------------------------
 BYTE   W96
// 047   ----------------------------------------
 BYTE   W96
// 048   ----------------------------------------
 BYTE   W96
// 049   ----------------------------------------
 BYTE   W96
// 050   ----------------------------------------
 BYTE   W96
// 051   ----------------------------------------
 BYTE   W96
// 052   ----------------------------------------
 BYTE   W96
// 053   ----------------------------------------
 BYTE   W96
// 054   ----------------------------------------
 BYTE   W96
// 055   ----------------------------------------
 BYTE   W96
// 056   ----------------------------------------
 BYTE   W96
// 057   ----------------------------------------
 BYTE   W96
// 058   ----------------------------------------
 BYTE   W96
// 059   ----------------------------------------
 BYTE   W96
// 060   ----------------------------------------
 BYTE   W96
// 061   ----------------------------------------
 BYTE   W96
// 062   ----------------------------------------
 BYTE   W96
// 063   ----------------------------------------
 BYTE   W48
 BYTE   N48  Gs4
 BYTE   W48
// 064   ----------------------------------------
 BYTE   As4
 BYTE   W48
 BYTE   Fs5
 BYTE   W48
// 065   ----------------------------------------
 BYTE   PAN   c_v-24
 BYTE   N92  En5
 BYTE   W96
// 066   ----------------------------------------
 BYTE   W96
// 067   ----------------------------------------
 BYTE   N24  Ds5
 BYTE   W24
 BYTE   N24
 BYTE   W24
 BYTE   N18
 BYTE   W18
 BYTE   N06  En5
 BYTE   W06
 BYTE   N12  Ds5
 BYTE   W12
 BYTE   Cs5
 BYTE   W12
// 068   ----------------------------------------
 BYTE   N48  Cn5
 BYTE   W48
 BYTE   N24  Bn4
 BYTE   W48
// 069   ----------------------------------------
 BYTE   W96
// 070   ----------------------------------------
 BYTE   W96
// 071   ----------------------------------------
 BYTE   W96
// 072   ----------------------------------------
 BYTE   W96
// 073   ----------------------------------------
 BYTE   W96
// 074   ----------------------------------------
 BYTE   W96
// 075   ----------------------------------------
 BYTE   W96
// 076   ----------------------------------------
 BYTE   W96
// 077   ----------------------------------------
 BYTE   PAN   c_v+0
 BYTE   N36  Cn6
 BYTE   W36
 BYTE   N06  As5
 BYTE   W06
 BYTE   Cn6
 BYTE   W06
 BYTE   N12  As5
 BYTE   W12
 BYTE   Gs5
 BYTE   W12
 BYTE   Gn5
 BYTE   W12
 BYTE   Fn5
 BYTE   W12
// 078   ----------------------------------------
 BYTE   N24  Gn5
 BYTE   W24
 BYTE   N18  Dn5
 BYTE   W18
 BYTE   N06  Gn5
 BYTE   W06
 BYTE   N24  Cn5
 BYTE   W48
// 079   ----------------------------------------
 BYTE   W96
// 080   ----------------------------------------
 BYTE   W96
// 081   ----------------------------------------
 BYTE   W96
// 082   ----------------------------------------
 BYTE   W96
// 083   ----------------------------------------
 BYTE   W96
// 084   ----------------------------------------
 BYTE   W96
// 085   ----------------------------------------
 BYTE   W96
// 086   ----------------------------------------
 BYTE   W96
// 087   ----------------------------------------
 BYTE   W96
// 088   ----------------------------------------
 BYTE   W96
// 089   ----------------------------------------
 BYTE   W96
// 090   ----------------------------------------
 BYTE   GoTo
  POIN2 Label_12_01558470
 BYTE   FINE

//**************** Track 14 (Midi-Chn.13) ****************//

KirbyReturntoDreamLandCROWNEDRandomWizard_014:
// 000   ----------------------------------------
 BYTE   KEYSH   KirbyReturntoDreamLandCROWNEDRandomWizard_key+0
 BYTE   W09
 BYTE   W03
 BYTE   VOL   35*KirbyReturntoDreamLandCROWNEDRandomWizard_mvl/mxv
 BYTE   W03
 BYTE   PAN   c_v+0
 BYTE   W03
 BYTE   W03
 BYTE   W03
 BYTE   VOICE   49
 BYTE   W96
// 001   ----------------------------------------
 BYTE   W96
// 002   ----------------------------------------
 BYTE   W96
// 003   ----------------------------------------
 BYTE   W96
// 004   ----------------------------------------
 BYTE   W96
// 005   ----------------------------------------
 BYTE   W96
// 006   ----------------------------------------
 BYTE   W96
// 007   ----------------------------------------
 BYTE   W96
// 008   ----------------------------------------
 BYTE   W96
// 009   ----------------------------------------
 BYTE   W96
// 010   ----------------------------------------
Label_13_0155856C:
 BYTE   W96
// 011   ----------------------------------------
 BYTE   W96
// 012   ----------------------------------------
 BYTE   W96
// 013   ----------------------------------------
 BYTE   W96
// 014   ----------------------------------------
 BYTE   W96
// 015   ----------------------------------------
 BYTE   W96
// 016   ----------------------------------------
 BYTE   W96
// 017   ----------------------------------------
 BYTE   W96
// 018   ----------------------------------------
 BYTE   W96
// 019   ----------------------------------------
 BYTE   W96
// 020   ----------------------------------------
 BYTE   W96
// 021   ----------------------------------------
 BYTE   W96
// 022   ----------------------------------------
 BYTE   W96
// 023   ----------------------------------------
 BYTE   W96
// 024   ----------------------------------------
 BYTE   W96
// 025   ----------------------------------------
 BYTE   W96
// 026   ----------------------------------------
 BYTE   W96
// 027   ----------------------------------------
 BYTE   N96  En3  v100
 BYTE   W96
// 028   ----------------------------------------
 BYTE   Fs3
 BYTE   W96
// 029   ----------------------------------------
 BYTE   TIE  Ds3
 BYTE   W96
// 030   ----------------------------------------
 BYTE   W92
 BYTE   W01
 BYTE   EOT
 BYTE   W03
// 031   ----------------------------------------
Label_13_0155858A:
 BYTE   PAN   c_v-24
 BYTE   N96  Bn2  v100
 BYTE   W96
 BYTE   PEND 
// 032   ----------------------------------------
Label_13_01558591:
 BYTE   N96  Cs3  v100
 BYTE   W92
 BYTE   W01
 BYTE   PAN   c_v+0
 BYTE   W03
 BYTE   PEND 
// 033   ----------------------------------------
 BYTE   En1
 BYTE   TIE  As2
 BYTE   W96
// 034   ----------------------------------------
 BYTE   W92
 BYTE   W01
 BYTE   EOT
 BYTE   W03
// 035   ----------------------------------------
 BYTE   N96  Gs1
 BYTE   W96
// 036   ----------------------------------------
Label_13_015585A5:
 BYTE   N96  Fs1  v100
 BYTE   W92
 BYTE   W01
 BYTE   PAN   c_v+0
 BYTE   W03
 BYTE   PEND 
// 037   ----------------------------------------
Label_13_015585AE:
 BYTE   PAN   c_v-24
 BYTE   N96  En1  v100
 BYTE   W96
 BYTE   PEND 
 BYTE   PATT
  POIN2 Label_13_015585A5
// 038   ----------------------------------------
 BYTE   N96  Gs1  v100
 BYTE   W03
 BYTE   PAN   c_v-24
 BYTE   W92
 BYTE   W01
// 039   ----------------------------------------
 BYTE   N96  Fn1
 BYTE   W92
 BYTE   W01
 BYTE   PAN   c_v+0
 BYTE   W03
 BYTE   PATT
  POIN2 Label_13_015585AE
// 040   ----------------------------------------
 BYTE   N96  Dn1  v100
 BYTE   W92
 BYTE   W01
 BYTE   PAN   c_v+0
 BYTE   W03
// 041   ----------------------------------------
 BYTE   W96
// 042   ----------------------------------------
 BYTE   W96
// 043   ----------------------------------------
 BYTE   W96
// 044   ----------------------------------------
 BYTE   W96
// 045   ----------------------------------------
 BYTE   W96
// 046   ----------------------------------------
 BYTE   W96
// 047   ----------------------------------------
 BYTE   W96
// 048   ----------------------------------------
 BYTE   W96
// 049   ----------------------------------------
 BYTE   W96
// 050   ----------------------------------------
 BYTE   W96
// 051   ----------------------------------------
 BYTE   W96
// 052   ----------------------------------------
 BYTE   W96
// 053   ----------------------------------------
 BYTE   W96
// 054   ----------------------------------------
 BYTE   W96
// 055   ----------------------------------------
 BYTE   W96
// 056   ----------------------------------------
 BYTE   W96
// 057   ----------------------------------------
 BYTE   W96
// 058   ----------------------------------------
 BYTE   W96
// 059   ----------------------------------------
 BYTE   N96  En3
 BYTE   W96
// 060   ----------------------------------------
 BYTE   Fs3
 BYTE   W96
// 061   ----------------------------------------
 BYTE   TIE  Ds3
 BYTE   W96
// 062   ----------------------------------------
 BYTE   W92
 BYTE   W01
 BYTE   EOT
 BYTE   W03
 BYTE   PATT
  POIN2 Label_13_0155858A
 BYTE   PATT
  POIN2 Label_13_01558591
// 063   ----------------------------------------
 BYTE   W96
// 064   ----------------------------------------
 BYTE   W96
// 065   ----------------------------------------
 BYTE   N96  Gn1  v100
 BYTE   W96
// 066   ----------------------------------------
 BYTE   W96
// 067   ----------------------------------------
 BYTE   N96
 BYTE   W96
// 068   ----------------------------------------
 BYTE   W96
// 069   ----------------------------------------
 BYTE   W96
// 070   ----------------------------------------
 BYTE   N48  Dn4
 BYTE   W48
 BYTE   N24  Cn4
 BYTE   W48
// 071   ----------------------------------------
 BYTE   W96
// 072   ----------------------------------------
 BYTE   W96
// 073   ----------------------------------------
 BYTE   N48  Ds3
 BYTE   W48
 BYTE   Dn3
 BYTE   W48
// 074   ----------------------------------------
 BYTE   N48
 BYTE   W48
 BYTE   Cn3
 BYTE   W48
// 075   ----------------------------------------
 BYTE   W96
// 076   ----------------------------------------
 BYTE   W96
// 077   ----------------------------------------
 BYTE   W96
// 078   ----------------------------------------
 BYTE   W96
// 079   ----------------------------------------
 BYTE   W96
// 080   ----------------------------------------
 BYTE   W96
// 081   ----------------------------------------
 BYTE   W96
// 082   ----------------------------------------
 BYTE   W96
// 083   ----------------------------------------
 BYTE   W96
// 084   ----------------------------------------
 BYTE   W96
// 085   ----------------------------------------
 BYTE   W96
// 086   ----------------------------------------
 BYTE   GoTo
  POIN2 Label_13_0155856C
 BYTE   FINE

//**************** Track 15 (Midi-Chn.14) ****************//

KirbyReturntoDreamLandCROWNEDRandomWizard_015:
// 000   ----------------------------------------
 BYTE   KEYSH   KirbyReturntoDreamLandCROWNEDRandomWizard_key+0
 BYTE   VOICE   91
 BYTE   W09
 BYTE   W03
 BYTE   VOL   35*KirbyReturntoDreamLandCROWNEDRandomWizard_mvl/mxv
 BYTE   W03
 BYTE   PAN   c_v+0
 BYTE   W03
 BYTE   W03
 BYTE   W03
 BYTE   TIE  Fn1  v068
 BYTE   W96
// 001   ----------------------------------------
 BYTE   W96
// 002   ----------------------------------------
 BYTE   EOT
 BYTE   TIE
 BYTE   W96
// 003   ----------------------------------------
 BYTE   W96
// 004   ----------------------------------------
 BYTE   EOT
 BYTE   TIE  Cn2
 BYTE   W96
// 005   ----------------------------------------
 BYTE   W96
// 006   ----------------------------------------
 BYTE   EOT
 BYTE   TIE  En1
 BYTE   W96
// 007   ----------------------------------------
 BYTE   W96
// 008   ----------------------------------------
 BYTE   EOT
 BYTE   N48  Ds4
 BYTE   W48
 BYTE   Cs4
 BYTE   W48
// 009   ----------------------------------------
Label_14_01558653:
 BYTE   PAN   c_v-24
 BYTE   N06  Fn2  v068
 BYTE   W06
 BYTE   Cn2
 BYTE   W06
 BYTE   Gn2
 BYTE   W06
 BYTE   Fn2
 BYTE   W06
 BYTE   Cn2
 BYTE   W06
 BYTE   As1
 BYTE   W06
 BYTE   Gs1
 BYTE   W06
 BYTE   As1
 BYTE   W06
 BYTE   Fn2
 BYTE   W06
 BYTE   Cn2
 BYTE   W06
 BYTE   Gs1
 BYTE   W06
 BYTE   Cn2
 BYTE   W06
 BYTE   Gs2
 BYTE   W06
 BYTE   Fn2
 BYTE   W06
 BYTE   As2
 BYTE   W06
 BYTE   Gs2
 BYTE   W06
 BYTE   PEND 
// 010   ----------------------------------------
Label_14_01558678:
 BYTE   N06  Fn2  v068
 BYTE   W06
 BYTE   Cn2
 BYTE   W06
 BYTE   Gn2
 BYTE   W06
 BYTE   Fn2
 BYTE   W06
 BYTE   Cn2
 BYTE   W06
 BYTE   As1
 BYTE   W06
 BYTE   Gs1
 BYTE   W06
 BYTE   As1
 BYTE   W06
 BYTE   Fn2
 BYTE   W06
 BYTE   Cn2
 BYTE   W06
 BYTE   Gs1
 BYTE   W06
 BYTE   Cn2
 BYTE   W06
 BYTE   Gs2
 BYTE   W06
 BYTE   Fn2
 BYTE   W06
 BYTE   As2
 BYTE   W06
 BYTE   Gs2
 BYTE   W06
 BYTE   PEND 
 BYTE   PATT
  POIN2 Label_14_01558678
 BYTE   PATT
  POIN2 Label_14_01558678
 BYTE   PATT
  POIN2 Label_14_01558678
 BYTE   PATT
  POIN2 Label_14_01558678
 BYTE   PATT
  POIN2 Label_14_01558678
 BYTE   PATT
  POIN2 Label_14_01558678
 BYTE   PATT
  POIN2 Label_14_01558678
 BYTE   PATT
  POIN2 Label_14_01558678
// 011   ----------------------------------------
 BYTE   N06  Gs2  v068
 BYTE   W03
 BYTE   PAN   c_v+0
 BYTE   W03
 BYTE   N06  Ds2
 BYTE   W06
 BYTE   As2
 BYTE   W06
 BYTE   Gs2
 BYTE   W06
 BYTE   Ds2
 BYTE   W06
 BYTE   Cs2
 BYTE   W06
 BYTE   Bn1
 BYTE   W06
 BYTE   Cs2
 BYTE   W06
 BYTE   Gs2
 BYTE   W06
 BYTE   Ds2
 BYTE   W06
 BYTE   Bn1
 BYTE   W06
 BYTE   Ds2
 BYTE   W06
 BYTE   Bn2
 BYTE   W06
 BYTE   Gs2
 BYTE   W06
 BYTE   Cs3
 BYTE   W06
 BYTE   Bn2
 BYTE   W06
// 012   ----------------------------------------
Label_14_015586E9:
 BYTE   PAN   c_v-24
 BYTE   N06  Gs2  v068
 BYTE   W03
 BYTE   PAN   c_v+0
 BYTE   W03
 BYTE   N06  Ds2
 BYTE   W06
 BYTE   As2
 BYTE   W06
 BYTE   Gs2
 BYTE   W06
 BYTE   Ds2
 BYTE   W06
 BYTE   Cs2
 BYTE   W06
 BYTE   Bn1
 BYTE   W06
 BYTE   Cs2
 BYTE   W06
 BYTE   Gs2
 BYTE   W06
 BYTE   Ds2
 BYTE   W06
 BYTE   Bn1
 BYTE   W06
 BYTE   Ds2
 BYTE   W06
 BYTE   Bn2
 BYTE   W06
 BYTE   Gs2
 BYTE   W06
 BYTE   Cs3
 BYTE   W06
 BYTE   Bn2
 BYTE   W06
 BYTE   PEND 
 BYTE   PATT
  POIN2 Label_14_015586E9
 BYTE   PATT
  POIN2 Label_14_015586E9
 BYTE   PATT
  POIN2 Label_14_015586E9
 BYTE   PATT
  POIN2 Label_14_015586E9
// 013   ----------------------------------------
 BYTE   W96
// 014   ----------------------------------------
 BYTE   W96
// 015   ----------------------------------------
Label_14_01558728:
 BYTE   N36  Bn2  v068
 BYTE   W36
 BYTE   N06  Gs2
 BYTE   W06
 BYTE   Bn2
 BYTE   W06
 BYTE   N24  Gs3
 BYTE   W24
 BYTE   Gs2
 BYTE   W24
 BYTE   PEND 
// 016   ----------------------------------------
Label_14_01558737:
 BYTE   N36  As2  v068
 BYTE   W36
 BYTE   N06  Fs2
 BYTE   W06
 BYTE   As2
 BYTE   W06
 BYTE   N12  Fs3
 BYTE   W12
 BYTE   N24  Cs3
 BYTE   W24
 BYTE   N12  En3
 BYTE   W12
 BYTE   PEND 
// 017   ----------------------------------------
 BYTE   TIE  Ds3
 BYTE   W96
// 018   ----------------------------------------
 BYTE   W96
// 019   ----------------------------------------
 BYTE   EOT
 BYTE   W96
// 020   ----------------------------------------
 BYTE   W96
// 021   ----------------------------------------
 BYTE   W96
// 022   ----------------------------------------
 BYTE   W96
// 023   ----------------------------------------
 BYTE   W96
// 024   ----------------------------------------
 BYTE   W96
// 025   ----------------------------------------
 BYTE   W96
// 026   ----------------------------------------
 BYTE   W96
// 027   ----------------------------------------
 BYTE   W96
// 028   ----------------------------------------
 BYTE   W96
// 029   ----------------------------------------
 BYTE   W96
// 030   ----------------------------------------
 BYTE   W96
// 031   ----------------------------------------
Label_14_0155875B:
 BYTE   N06  En2  v068
 BYTE   W06
 BYTE   Bn1
 BYTE   W06
 BYTE   Fs2
 BYTE   W06
 BYTE   En2
 BYTE   W06
 BYTE   Bn1
 BYTE   W06
 BYTE   An1
 BYTE   W06
 BYTE   Gn1
 BYTE   W06
 BYTE   An1
 BYTE   W06
 BYTE   En2
 BYTE   W06
 BYTE   Bn1
 BYTE   W06
 BYTE   Gn1
 BYTE   W06
 BYTE   Bn1
 BYTE   W06
 BYTE   Gn2
 BYTE   W06
 BYTE   En2
 BYTE   W06
 BYTE   An2
 BYTE   W06
 BYTE   Gn2
 BYTE   W06
 BYTE   PEND 
 BYTE   PATT
  POIN2 Label_14_0155875B
 BYTE   PATT
  POIN2 Label_14_0155875B
 BYTE   PATT
  POIN2 Label_14_0155875B
 BYTE   PATT
  POIN2 Label_14_0155875B
 BYTE   PATT
  POIN2 Label_14_0155875B
 BYTE   PATT
  POIN2 Label_14_0155875B
 BYTE   PATT
  POIN2 Label_14_0155875B
 BYTE   PATT
  POIN2 Label_14_0155875B
 BYTE   PATT
  POIN2 Label_14_0155875B
 BYTE   PATT
  POIN2 Label_14_015586E9
 BYTE   PATT
  POIN2 Label_14_015586E9
 BYTE   PATT
  POIN2 Label_14_015586E9
 BYTE   PATT
  POIN2 Label_14_015586E9
 BYTE   PATT
  POIN2 Label_14_015586E9
 BYTE   PATT
  POIN2 Label_14_015586E9
// 032   ----------------------------------------
 BYTE   W96
// 033   ----------------------------------------
 BYTE   W96
 BYTE   PATT
  POIN2 Label_14_01558728
 BYTE   PATT
  POIN2 Label_14_01558737
// 034   ----------------------------------------
 BYTE   TIE  Ds3  v068
 BYTE   W96
// 035   ----------------------------------------
 BYTE   W96
// 036   ----------------------------------------
 BYTE   EOT
 BYTE   W96
// 037   ----------------------------------------
 BYTE   W96
// 038   ----------------------------------------
 BYTE   W96
// 039   ----------------------------------------
 BYTE   W96
// 040   ----------------------------------------
 BYTE   W96
// 041   ----------------------------------------
 BYTE   W96
// 042   ----------------------------------------
 BYTE   W96
// 043   ----------------------------------------
 BYTE   W96
// 044   ----------------------------------------
 BYTE   W96
// 045   ----------------------------------------
 BYTE   W96
// 046   ----------------------------------------
 BYTE   W96
// 047   ----------------------------------------
 BYTE   W96
// 048   ----------------------------------------
 BYTE   W96
// 049   ----------------------------------------
 BYTE   W96
// 050   ----------------------------------------
 BYTE   W96
// 051   ----------------------------------------
 BYTE   W96
// 052   ----------------------------------------
 BYTE   W96
// 053   ----------------------------------------
 BYTE   W96
// 054   ----------------------------------------
 BYTE   W96
// 055   ----------------------------------------
 BYTE   W96
// 056   ----------------------------------------
 BYTE   W96
// 057   ----------------------------------------
 BYTE   W96
// 058   ----------------------------------------
 BYTE   W96
// 059   ----------------------------------------
 BYTE   W96
 BYTE   PATT
  POIN2 Label_14_01558653
// 060   ----------------------------------------
 BYTE   GoTo
  POIN2 Label_14_01558678
 BYTE   FINE

//******************************************************//
	ALIGN 4

KirbyReturntoDreamLandCROWNEDRandomWizard:
	BYTE	15	// NumTrks
	BYTE	0	// NumBlks
	BYTE	KirbyReturntoDreamLandCROWNEDRandomWizard_pri	// Priority
	BYTE	KirbyReturntoDreamLandCROWNEDRandomWizard_rev	// Reverb.
    
	POIN2	KirbyReturntoDreamLandCROWNEDRandomWizard_grp
    
	POIN2	KirbyReturntoDreamLandCROWNEDRandomWizard_001
	POIN2	KirbyReturntoDreamLandCROWNEDRandomWizard_002
	POIN2	KirbyReturntoDreamLandCROWNEDRandomWizard_003
	POIN2	KirbyReturntoDreamLandCROWNEDRandomWizard_004
	POIN2	KirbyReturntoDreamLandCROWNEDRandomWizard_005
	POIN2	KirbyReturntoDreamLandCROWNEDRandomWizard_006
	POIN2	KirbyReturntoDreamLandCROWNEDRandomWizard_007
	POIN2	KirbyReturntoDreamLandCROWNEDRandomWizard_008
	POIN2	KirbyReturntoDreamLandCROWNEDRandomWizard_009
	POIN2	KirbyReturntoDreamLandCROWNEDRandomWizard_010
	POIN2	KirbyReturntoDreamLandCROWNEDRandomWizard_011
	POIN2	KirbyReturntoDreamLandCROWNEDRandomWizard_012
	POIN2	KirbyReturntoDreamLandCROWNEDRandomWizard_013
	POIN2	KirbyReturntoDreamLandCROWNEDRandomWizard_014
	POIN2	KirbyReturntoDreamLandCROWNEDRandomWizard_015

	
