//Event file generated from Sappy .s format.
	#include "MPlayDef.event"

	#define	KirbyDreamLand2CootheOwlPandan_grp  voicegroup000
	#define	KirbyDreamLand2CootheOwlPandan_pri  0
	#define	KirbyDreamLand2CootheOwlPandan_rev  0
	#define	KirbyDreamLand2CootheOwlPandan_mvl  127
	#define	KirbyDreamLand2CootheOwlPandan_key  0
	#define	KirbyDreamLand2CootheOwlPandan_tbs  1
	#define	KirbyDreamLand2CootheOwlPandan_exg  0
	#define	KirbyDreamLand2CootheOwlPandan_cmp  1

	// .rodata
	//	KirbyDreamLand2CootheOwlPandan
	ALIGN 4


//**************** Track 1 (Midi-Chn.0) ****************//

KirbyDreamLand2CootheOwlPandan_001:
// 000   ----------------------------------------
 BYTE   KEYSH   KirbyDreamLand2CootheOwlPandan_key+0
 BYTE   TEMPO   180*KirbyDreamLand2CootheOwlPandan_tbs/2
 BYTE   VOICE   73
 BYTE   VOL   96*KirbyDreamLand2CootheOwlPandan_mvl/mxv
 BYTE   PAN   c_v+0
 BYTE   BEND   c_v+0
 BYTE   N06  Cs4  v096
 BYTE   W12
 BYTE   En4
 BYTE   W12
 BYTE   Gs4
 BYTE   W12
 BYTE   Bn3
 BYTE   W12
 BYTE   Ds4
 BYTE   W12
 BYTE   Gs4
 BYTE   W12
 BYTE   An3
 BYTE   W12
 BYTE   Cs4
 BYTE   W12
// 001   ----------------------------------------
 BYTE   Fs4
 BYTE   W12
 BYTE   An3
 BYTE   W12
 BYTE   Cs4
 BYTE   W12
 BYTE   En4
 BYTE   W12
 BYTE   Gs3
 BYTE   W12
 BYTE   Bn3
 BYTE   W12
 BYTE   En4
 BYTE   W12
 BYTE   Ds4
 BYTE   W12
// 002   ----------------------------------------
 BYTE   Cs4
 BYTE   N06  Cs5
 BYTE   W12
 BYTE   En4
 BYTE   N06  En5
 BYTE   W12
 BYTE   Gs4
 BYTE   N06  Gs5
 BYTE   W12
 BYTE   Bn3
 BYTE   N06  Bn4
 BYTE   W12
 BYTE   Ds4
 BYTE   N06  Ds5
 BYTE   W12
 BYTE   Gs4
 BYTE   N06  Gs5
 BYTE   W12
 BYTE   An3
 BYTE   N06  An4
 BYTE   W12
 BYTE   Cs4
 BYTE   N06  Cs5
 BYTE   W12
// 003   ----------------------------------------
 BYTE   Fs4
 BYTE   N06  Fs5
 BYTE   W12
 BYTE   An3
 BYTE   N06  An4
 BYTE   W12
 BYTE   Cs4
 BYTE   N06  Cs5
 BYTE   W12
 BYTE   En4
 BYTE   N06  En5
 BYTE   W12
 BYTE   Gs3
 BYTE   N06  Gs4
 BYTE   W12
 BYTE   Bn3
 BYTE   N06  Bn4
 BYTE   W12
 BYTE   Gs3
 BYTE   W06
 BYTE   Cn4
 BYTE   W06
 BYTE   Ds4
 BYTE   W06
 BYTE   Fs4
 BYTE   W06
// 004   ----------------------------------------
Label_0_0149DDBA:
 BYTE   N06  Gs4  v080
 BYTE   W06
 BYTE   En4
 BYTE   W06
 BYTE   Cs4
 BYTE   W06
 BYTE   Gs3
 BYTE   W06
 BYTE   Gs4
 BYTE   W06
 BYTE   En4
 BYTE   W06
 BYTE   Cs4
 BYTE   W06
 BYTE   Gs3
 BYTE   W06
 BYTE   Gs4
 BYTE   W06
 BYTE   En4
 BYTE   W06
 BYTE   Cs4
 BYTE   W06
 BYTE   Gs3
 BYTE   W06
 BYTE   Gs4
 BYTE   W06
 BYTE   En4
 BYTE   W06
 BYTE   Cs4
 BYTE   W06
 BYTE   Gs3
 BYTE   W06
 BYTE   PEND 
// 005   ----------------------------------------
Label_0_0149DDDD:
 BYTE   N06  Fs4  v080
 BYTE   W06
 BYTE   En4
 BYTE   W06
 BYTE   Cs4
 BYTE   W06
 BYTE   As3
 BYTE   W06
 BYTE   Fs4
 BYTE   W06
 BYTE   En4
 BYTE   W06
 BYTE   Cs4
 BYTE   W06
 BYTE   As3
 BYTE   W06
 BYTE   Fs4
 BYTE   W06
 BYTE   En4
 BYTE   W06
 BYTE   Cs4
 BYTE   W06
 BYTE   As3
 BYTE   W06
 BYTE   Fs4
 BYTE   W06
 BYTE   En4
 BYTE   W06
 BYTE   Cs4
 BYTE   W06
 BYTE   As3
 BYTE   W06
 BYTE   PEND 
// 006   ----------------------------------------
Label_0_0149DE00:
 BYTE   N06  En4  v080
 BYTE   W06
 BYTE   Cs4
 BYTE   W06
 BYTE   Gs3
 BYTE   W06
 BYTE   En3
 BYTE   W06
 BYTE   En4
 BYTE   W06
 BYTE   Cs4
 BYTE   W06
 BYTE   Gs3
 BYTE   W06
 BYTE   En3
 BYTE   W06
 BYTE   En4
 BYTE   W06
 BYTE   Cs4
 BYTE   W06
 BYTE   Gs3
 BYTE   W06
 BYTE   En3
 BYTE   W06
 BYTE   En4
 BYTE   W06
 BYTE   Cs4
 BYTE   W06
 BYTE   Gs3
 BYTE   W06
 BYTE   En3
 BYTE   W06
 BYTE   PEND 
 BYTE   PATT
  POIN2 Label_0_0149DE00
// 007   ----------------------------------------
Label_0_0149DE28:
 BYTE   N06  Gs4  v080
 BYTE   W06
 BYTE   En4
 BYTE   W06
 BYTE   Cs4
 BYTE   W06
 BYTE   En4
 BYTE   W06
 BYTE   Gs4
 BYTE   W06
 BYTE   En4
 BYTE   W06
 BYTE   Cs4
 BYTE   W06
 BYTE   En4
 BYTE   W06
 BYTE   Gs4
 BYTE   W06
 BYTE   En4
 BYTE   W06
 BYTE   Cs4
 BYTE   W06
 BYTE   En4
 BYTE   W06
 BYTE   Gs4
 BYTE   W06
 BYTE   En4
 BYTE   W06
 BYTE   Cs4
 BYTE   W06
 BYTE   En4
 BYTE   W06
 BYTE   PEND 
// 008   ----------------------------------------
Label_0_0149DE4B:
 BYTE   N06  As4  v080
 BYTE   W06
 BYTE   Fs4
 BYTE   W06
 BYTE   Cs4
 BYTE   W06
 BYTE   As3
 BYTE   W06
 BYTE   As4
 BYTE   W06
 BYTE   Fs4
 BYTE   W06
 BYTE   Cs4
 BYTE   W06
 BYTE   As3
 BYTE   W06
 BYTE   As4
 BYTE   W06
 BYTE   Fs4
 BYTE   W06
 BYTE   Cs4
 BYTE   W06
 BYTE   As3
 BYTE   W06
 BYTE   As4
 BYTE   W06
 BYTE   Fs4
 BYTE   W06
 BYTE   Cs4
 BYTE   W06
 BYTE   As3
 BYTE   W06
 BYTE   PEND 
// 009   ----------------------------------------
Label_0_0149DE6E:
 BYTE   N06  Cn5  v080
 BYTE   W06
 BYTE   Gs4
 BYTE   W06
 BYTE   Fs4
 BYTE   W06
 BYTE   Ds4
 BYTE   W06
 BYTE   Cn5
 BYTE   W06
 BYTE   Gs4
 BYTE   W06
 BYTE   Fs4
 BYTE   W06
 BYTE   Ds4
 BYTE   W06
 BYTE   Cn5
 BYTE   W06
 BYTE   Gs4
 BYTE   W06
 BYTE   Fs4
 BYTE   W06
 BYTE   Ds4
 BYTE   W06
 BYTE   Cn5
 BYTE   W06
 BYTE   Gs4
 BYTE   W06
 BYTE   Fs4
 BYTE   W06
 BYTE   Ds4
 BYTE   W06
 BYTE   PEND 
// 010   ----------------------------------------
Label_0_0149DE91:
 BYTE   N06  Ds5  v080
 BYTE   W06
 BYTE   Cn5
 BYTE   W06
 BYTE   Gs4
 BYTE   W06
 BYTE   Fs4
 BYTE   W06
 BYTE   Ds5
 BYTE   W06
 BYTE   Cn5
 BYTE   W06
 BYTE   Gs4
 BYTE   W06
 BYTE   Fs4
 BYTE   W06
 BYTE   Gs4
 BYTE   W06
 BYTE   Gs5
 BYTE   W06
 BYTE   Fs5
 BYTE   W06
 BYTE   Ds5
 BYTE   W06
 BYTE   Cn5
 BYTE   W06
 BYTE   Gs4
 BYTE   W06
 BYTE   Fs4
 BYTE   W06
 BYTE   Ds4
 BYTE   W06
 BYTE   PEND 
// 011   ----------------------------------------
 BYTE   W96
// 012   ----------------------------------------
 BYTE   W96
// 013   ----------------------------------------
 BYTE   W96
// 014   ----------------------------------------
 BYTE   W96
// 015   ----------------------------------------
 BYTE   W96
// 016   ----------------------------------------
 BYTE   W96
// 017   ----------------------------------------
 BYTE   W96
// 018   ----------------------------------------
Label_0_0149DEBB:
 BYTE   N06  Gs5  v032
 BYTE   W06
 BYTE   Fs5  v064
 BYTE   W06
 BYTE   Ds5  v080
 BYTE   W06
 BYTE   Cn5  v096
 BYTE   W06
 BYTE   Fs5  v064
 BYTE   W06
 BYTE   Ds5  v080
 BYTE   W06
 BYTE   Cn5  v096
 BYTE   W06
 BYTE   Gs4
 BYTE   W06
 BYTE   Ds5  v080
 BYTE   W06
 BYTE   Cn5  v096
 BYTE   W06
 BYTE   Gs4
 BYTE   W06
 BYTE   Ds4
 BYTE   W06
 BYTE   Cn4
 BYTE   W06
 BYTE   Gs4
 BYTE   W06
 BYTE   Ds4
 BYTE   W06
 BYTE   Cn4
 BYTE   W06
 BYTE   PEND 
 BYTE   PATT
  POIN2 Label_0_0149DDBA
 BYTE   PATT
  POIN2 Label_0_0149DDDD
 BYTE   PATT
  POIN2 Label_0_0149DE00
 BYTE   PATT
  POIN2 Label_0_0149DE00
 BYTE   PATT
  POIN2 Label_0_0149DE28
 BYTE   PATT
  POIN2 Label_0_0149DE4B
 BYTE   PATT
  POIN2 Label_0_0149DE6E
 BYTE   PATT
  POIN2 Label_0_0149DE91
// 019   ----------------------------------------
 BYTE   W96
// 020   ----------------------------------------
 BYTE   W96
// 021   ----------------------------------------
 BYTE   W96
// 022   ----------------------------------------
 BYTE   W96
// 023   ----------------------------------------
 BYTE   W96
// 024   ----------------------------------------
 BYTE   W96
// 025   ----------------------------------------
 BYTE   W96
 BYTE   PATT
  POIN2 Label_0_0149DEBB
// 026   ----------------------------------------
 BYTE   VOL   95*KirbyDreamLand2CootheOwlPandan_mvl/mxv
 BYTE   N06  Gs4  v080
 BYTE   W06
 BYTE   VOL   93*KirbyDreamLand2CootheOwlPandan_mvl/mxv
 BYTE   N06  En4
 BYTE   W06
 BYTE   VOL   92*KirbyDreamLand2CootheOwlPandan_mvl/mxv
 BYTE   N06  Cs4
 BYTE   W06
 BYTE   VOL   90*KirbyDreamLand2CootheOwlPandan_mvl/mxv
 BYTE   N06  Gs3
 BYTE   W06
 BYTE   VOL   89*KirbyDreamLand2CootheOwlPandan_mvl/mxv
 BYTE   N06  Gs4
 BYTE   W06
 BYTE   VOL   87*KirbyDreamLand2CootheOwlPandan_mvl/mxv
 BYTE   N06  En4
 BYTE   W06
 BYTE   VOL   86*KirbyDreamLand2CootheOwlPandan_mvl/mxv
 BYTE   N06  Cs4
 BYTE   W06
 BYTE   VOL   84*KirbyDreamLand2CootheOwlPandan_mvl/mxv
 BYTE   N06  Gs3
 BYTE   W06
 BYTE   VOL   83*KirbyDreamLand2CootheOwlPandan_mvl/mxv
 BYTE   N06  Gs4
 BYTE   W06
 BYTE   VOL   81*KirbyDreamLand2CootheOwlPandan_mvl/mxv
 BYTE   N06  En4
 BYTE   W06
 BYTE   VOL   80*KirbyDreamLand2CootheOwlPandan_mvl/mxv
 BYTE   N06  Cs4
 BYTE   W06
 BYTE   VOL   78*KirbyDreamLand2CootheOwlPandan_mvl/mxv
 BYTE   N06  Gs3
 BYTE   W06
 BYTE   VOL   77*KirbyDreamLand2CootheOwlPandan_mvl/mxv
 BYTE   N06  Gs4
 BYTE   W06
 BYTE   VOL   75*KirbyDreamLand2CootheOwlPandan_mvl/mxv
 BYTE   N06  En4
 BYTE   W06
 BYTE   VOL   74*KirbyDreamLand2CootheOwlPandan_mvl/mxv
 BYTE   N06  Cs4
 BYTE   W06
 BYTE   VOL   72*KirbyDreamLand2CootheOwlPandan_mvl/mxv
 BYTE   N06  Gs3
 BYTE   W06
// 027   ----------------------------------------
 BYTE   VOL   71*KirbyDreamLand2CootheOwlPandan_mvl/mxv
 BYTE   N06  Fs4
 BYTE   W06
 BYTE   VOL   69*KirbyDreamLand2CootheOwlPandan_mvl/mxv
 BYTE   N06  En4
 BYTE   W06
 BYTE   VOL   68*KirbyDreamLand2CootheOwlPandan_mvl/mxv
 BYTE   N06  Cs4
 BYTE   W06
 BYTE   VOL   66*KirbyDreamLand2CootheOwlPandan_mvl/mxv
 BYTE   N06  As3
 BYTE   W06
 BYTE   VOL   65*KirbyDreamLand2CootheOwlPandan_mvl/mxv
 BYTE   N06  Fs4
 BYTE   W06
 BYTE   VOL   64*KirbyDreamLand2CootheOwlPandan_mvl/mxv
 BYTE   N06  En4
 BYTE   W06
 BYTE   VOL   62*KirbyDreamLand2CootheOwlPandan_mvl/mxv
 BYTE   N06  Cs4
 BYTE   W06
 BYTE   VOL   61*KirbyDreamLand2CootheOwlPandan_mvl/mxv
 BYTE   N06  As3
 BYTE   W06
 BYTE   VOL   59*KirbyDreamLand2CootheOwlPandan_mvl/mxv
 BYTE   N06  Fs4
 BYTE   W06
 BYTE   VOL   58*KirbyDreamLand2CootheOwlPandan_mvl/mxv
 BYTE   N06  En4
 BYTE   W06
 BYTE   VOL   56*KirbyDreamLand2CootheOwlPandan_mvl/mxv
 BYTE   N06  Cs4
 BYTE   W06
 BYTE   VOL   55*KirbyDreamLand2CootheOwlPandan_mvl/mxv
 BYTE   N06  As3
 BYTE   W06
 BYTE   VOL   53*KirbyDreamLand2CootheOwlPandan_mvl/mxv
 BYTE   N06  Fs4
 BYTE   W06
 BYTE   VOL   52*KirbyDreamLand2CootheOwlPandan_mvl/mxv
 BYTE   N06  En4
 BYTE   W06
 BYTE   VOL   50*KirbyDreamLand2CootheOwlPandan_mvl/mxv
 BYTE   N06  Cs4
 BYTE   W06
 BYTE   VOL   49*KirbyDreamLand2CootheOwlPandan_mvl/mxv
 BYTE   N06  As3
 BYTE   W06
// 028   ----------------------------------------
 BYTE   VOL   47*KirbyDreamLand2CootheOwlPandan_mvl/mxv
 BYTE   N06  En4
 BYTE   W06
 BYTE   VOL   46*KirbyDreamLand2CootheOwlPandan_mvl/mxv
 BYTE   N06  Cs4
 BYTE   W06
 BYTE   VOL   44*KirbyDreamLand2CootheOwlPandan_mvl/mxv
 BYTE   N06  Gs3
 BYTE   W06
 BYTE   VOL   43*KirbyDreamLand2CootheOwlPandan_mvl/mxv
 BYTE   N06  En3
 BYTE   W06
 BYTE   VOL   41*KirbyDreamLand2CootheOwlPandan_mvl/mxv
 BYTE   N06  En4
 BYTE   W06
 BYTE   VOL   40*KirbyDreamLand2CootheOwlPandan_mvl/mxv
 BYTE   N06  Cs4
 BYTE   W06
 BYTE   VOL   38*KirbyDreamLand2CootheOwlPandan_mvl/mxv
 BYTE   N06  Gs3
 BYTE   W06
 BYTE   VOL   37*KirbyDreamLand2CootheOwlPandan_mvl/mxv
 BYTE   N06  En3
 BYTE   W06
 BYTE   VOL   35*KirbyDreamLand2CootheOwlPandan_mvl/mxv
 BYTE   N06  En4
 BYTE   W06
 BYTE   VOL   34*KirbyDreamLand2CootheOwlPandan_mvl/mxv
 BYTE   N06  Cs4
 BYTE   W06
 BYTE   VOL   32*KirbyDreamLand2CootheOwlPandan_mvl/mxv
 BYTE   N06  Gs3
 BYTE   W06
 BYTE   VOL   31*KirbyDreamLand2CootheOwlPandan_mvl/mxv
 BYTE   N06  En3
 BYTE   W06
 BYTE   VOL   30*KirbyDreamLand2CootheOwlPandan_mvl/mxv
 BYTE   N06  En4
 BYTE   W06
 BYTE   VOL   28*KirbyDreamLand2CootheOwlPandan_mvl/mxv
 BYTE   N06  Cs4
 BYTE   W06
 BYTE   VOL   27*KirbyDreamLand2CootheOwlPandan_mvl/mxv
 BYTE   N06  Gs3
 BYTE   W06
 BYTE   VOL   25*KirbyDreamLand2CootheOwlPandan_mvl/mxv
 BYTE   N06  En3
 BYTE   W06
// 029   ----------------------------------------
 BYTE   VOL   24*KirbyDreamLand2CootheOwlPandan_mvl/mxv
 BYTE   N06  En4
 BYTE   W06
 BYTE   VOL   22*KirbyDreamLand2CootheOwlPandan_mvl/mxv
 BYTE   N06  Cs4
 BYTE   W06
 BYTE   VOL   21*KirbyDreamLand2CootheOwlPandan_mvl/mxv
 BYTE   N06  Gs3
 BYTE   W06
 BYTE   VOL   19*KirbyDreamLand2CootheOwlPandan_mvl/mxv
 BYTE   N06  En3
 BYTE   W06
 BYTE   VOL   18*KirbyDreamLand2CootheOwlPandan_mvl/mxv
 BYTE   N06  En4
 BYTE   W06
 BYTE   VOL   16*KirbyDreamLand2CootheOwlPandan_mvl/mxv
 BYTE   N06  Cs4
 BYTE   W06
 BYTE   VOL   15*KirbyDreamLand2CootheOwlPandan_mvl/mxv
 BYTE   N06  Gs3
 BYTE   W06
 BYTE   VOL   13*KirbyDreamLand2CootheOwlPandan_mvl/mxv
 BYTE   N06  En3
 BYTE   W06
 BYTE   VOL   12*KirbyDreamLand2CootheOwlPandan_mvl/mxv
 BYTE   N06  En4
 BYTE   W06
 BYTE   VOL   10*KirbyDreamLand2CootheOwlPandan_mvl/mxv
 BYTE   N06  Cs4
 BYTE   W06
 BYTE   VOL   9*KirbyDreamLand2CootheOwlPandan_mvl/mxv
 BYTE   N06  Gs3
 BYTE   W06
 BYTE   VOL   7*KirbyDreamLand2CootheOwlPandan_mvl/mxv
 BYTE   N06  En3
 BYTE   W06
 BYTE   VOL   6*KirbyDreamLand2CootheOwlPandan_mvl/mxv
 BYTE   N06  En4
 BYTE   W06
 BYTE   VOL   4*KirbyDreamLand2CootheOwlPandan_mvl/mxv
 BYTE   N06  Cs4
 BYTE   W06
 BYTE   VOL   3*KirbyDreamLand2CootheOwlPandan_mvl/mxv
 BYTE   N06  Gs3
 BYTE   W06
 BYTE   VOL   1*KirbyDreamLand2CootheOwlPandan_mvl/mxv
 BYTE   N06  En3
 BYTE   W06
// 030   ----------------------------------------
 BYTE   VOL   0*KirbyDreamLand2CootheOwlPandan_mvl/mxv
 BYTE   FINE

//**************** Track 2 (Midi-Chn.1) ****************//

KirbyDreamLand2CootheOwlPandan_002:
// 000   ----------------------------------------
 BYTE   KEYSH   KirbyDreamLand2CootheOwlPandan_key+0
 BYTE   VOICE   46
 BYTE   VOL   127*KirbyDreamLand2CootheOwlPandan_mvl/mxv
 BYTE   PAN   c_v+8
 BYTE   BEND   c_v+0
 BYTE   W96
// 001   ----------------------------------------
 BYTE   W96
// 002   ----------------------------------------
 BYTE   W96
// 003   ----------------------------------------
Label_1_0149E06D:
 BYTE   W72
 BYTE   N06  Cs4  v096
 BYTE   W06
 BYTE   Ds4
 BYTE   W06
 BYTE   En4
 BYTE   W06
 BYTE   Fs4
 BYTE   W06
 BYTE   PEND 
// 004   ----------------------------------------
Label_1_0149E079:
 BYTE   BEND   c_v+2
 BYTE   N72  Gs4  v096
 BYTE   W03
 BYTE   BEND   c_v+1
 BYTE   W03
 BYTE   En3
 BYTE   W03
 BYTE   Fn3
 BYTE   W03
 BYTE   Fs3
 BYTE   W04
 BYTE   Fn3
 BYTE   W03
 BYTE   En3
 BYTE   W03
 BYTE   Fn3
 BYTE   W03
 BYTE   Fs3
 BYTE   W03
 BYTE   Fn3
 BYTE   W04
 BYTE   En3
 BYTE   W03
 BYTE   Fn3
 BYTE   W03
 BYTE   Fs3
 BYTE   W03
 BYTE   Fn3
 BYTE   W03
 BYTE   En3
 BYTE   W04
 BYTE   Fn3
 BYTE   W03
 BYTE   Fs3
 BYTE   W03
 BYTE   Fn3
 BYTE   W03
 BYTE   En3
 BYTE   W03
 BYTE   Fn3
 BYTE   W04
 BYTE   Fs3
 BYTE   W03
 BYTE   Fn3
 BYTE   W03
 BYTE   En3
 BYTE   W02
 BYTE   En3
 BYTE   N12  Cs4
 BYTE   W12
 BYTE   Bn4
 BYTE   W12
 BYTE   PEND 
// 005   ----------------------------------------
Label_1_0149E0B3:
 BYTE   BEND   c_v+2
 BYTE   N72  As4  v096
 BYTE   W03
 BYTE   BEND   c_v+1
 BYTE   W03
 BYTE   En3
 BYTE   W03
 BYTE   Fn3
 BYTE   W03
 BYTE   Fs3
 BYTE   W04
 BYTE   Fn3
 BYTE   W03
 BYTE   En3
 BYTE   W03
 BYTE   Fn3
 BYTE   W03
 BYTE   Fs3
 BYTE   W03
 BYTE   Fn3
 BYTE   W04
 BYTE   En3
 BYTE   W03
 BYTE   Fn3
 BYTE   W03
 BYTE   Fs3
 BYTE   W03
 BYTE   Fn3
 BYTE   W03
 BYTE   En3
 BYTE   W04
 BYTE   Fn3
 BYTE   W03
 BYTE   Fs3
 BYTE   W03
 BYTE   Fn3
 BYTE   W03
 BYTE   En3
 BYTE   W03
 BYTE   Fn3
 BYTE   W04
 BYTE   Fs3
 BYTE   W03
 BYTE   Fn3
 BYTE   W03
 BYTE   En3
 BYTE   W02
 BYTE   En3
 BYTE   N12  Gs4
 BYTE   W12
 BYTE   Fs4
 BYTE   W12
 BYTE   PEND 
// 006   ----------------------------------------
Label_1_0149E0ED:
 BYTE   BEND   c_v+2
 BYTE   TIE  Gs4  v096
 BYTE   W03
 BYTE   BEND   c_v+1
 BYTE   W03
 BYTE   En3
 BYTE   W03
 BYTE   Fn3
 BYTE   W03
 BYTE   Fs3
 BYTE   W04
 BYTE   Fn3
 BYTE   W03
 BYTE   En3
 BYTE   W03
 BYTE   Fn3
 BYTE   W03
 BYTE   Fs3
 BYTE   W03
 BYTE   Fn3
 BYTE   W04
 BYTE   En3
 BYTE   W03
 BYTE   Fn3
 BYTE   W03
 BYTE   Fs3
 BYTE   W03
 BYTE   Fn3
 BYTE   W03
 BYTE   En3
 BYTE   W04
 BYTE   Fn3
 BYTE   W03
 BYTE   Fs3
 BYTE   W03
 BYTE   Fn3
 BYTE   W03
 BYTE   En3
 BYTE   W03
 BYTE   Fn3
 BYTE   W04
 BYTE   Fs3
 BYTE   W03
 BYTE   Fn3
 BYTE   W03
 BYTE   En3
 BYTE   W03
 BYTE   Fn3
 BYTE   W03
 BYTE   Fs3
 BYTE   W04
 BYTE   Fn3
 BYTE   W03
 BYTE   En3
 BYTE   W03
 BYTE   Fn3
 BYTE   W03
 BYTE   Fs3
 BYTE   W03
 BYTE   Fn3
 BYTE   W04
 BYTE   PEND 
// 007   ----------------------------------------
Label_1_0149E12F:
 BYTE   BEND   c_v+0
 BYTE   W03
 BYTE   Fn3
 BYTE   W03
 BYTE   Fs3
 BYTE   W03
 BYTE   Fn3
 BYTE   W03
 BYTE   En3
 BYTE   W04
 BYTE   Fn3
 BYTE   W03
 BYTE   Fs3
 BYTE   W03
 BYTE   Fn3
 BYTE   W03
 BYTE   En3
 BYTE   W03
 BYTE   Fn3
 BYTE   W04
 BYTE   Fs3
 BYTE   W03
 BYTE   Fn3
 BYTE   W03
 BYTE   En3
 BYTE   W03
 BYTE   Fn3
 BYTE   W03
 BYTE   Fs3
 BYTE   W04
 BYTE   Fn3
 BYTE   W03
 BYTE   En3
 BYTE   W03
 BYTE   Fn3
 BYTE   W03
 BYTE   Fs3
 BYTE   W03
 BYTE   Fn3
 BYTE   W04
 BYTE   En3
 BYTE   W03
 BYTE   Fn3
 BYTE   W03
 BYTE   Fs3
 BYTE   W02
 BYTE   PEND 
 BYTE   EOT
 BYTE   Gs4
 BYTE   BEND   c_v+0
 BYTE   N06  Cs4  v096
 BYTE   W06
 BYTE   Ds4
 BYTE   W06
 BYTE   En4
 BYTE   W06
 BYTE   Fs4
 BYTE   W06
 BYTE   PATT
  POIN2 Label_1_0149E079
// 008   ----------------------------------------
Label_1_0149E172:
 BYTE   BEND   c_v+2
 BYTE   N48  Cs5  v096
 BYTE   W03
 BYTE   BEND   c_v+1
 BYTE   W03
 BYTE   En3
 BYTE   W03
 BYTE   Fn3
 BYTE   W03
 BYTE   Fs3
 BYTE   W04
 BYTE   Fn3
 BYTE   W03
 BYTE   En3
 BYTE   W03
 BYTE   Fn3
 BYTE   W03
 BYTE   Fs3
 BYTE   W03
 BYTE   Fn3
 BYTE   W04
 BYTE   En3
 BYTE   W03
 BYTE   Fn3
 BYTE   W03
 BYTE   Fs3
 BYTE   W03
 BYTE   Fn3
 BYTE   W03
 BYTE   En3
 BYTE   W04
 BYTE   En3
 BYTE   N24  Fs4
 BYTE   W24
 BYTE   As4
 BYTE   W24
 BYTE   PEND 
// 009   ----------------------------------------
Label_1_0149E19C:
 BYTE   BEND   c_v+2
 BYTE   TIE  Cn5  v096
 BYTE   W03
 BYTE   BEND   c_v+1
 BYTE   W03
 BYTE   En3
 BYTE   W03
 BYTE   Fn3
 BYTE   W03
 BYTE   Fs3
 BYTE   W04
 BYTE   Fn3
 BYTE   W03
 BYTE   En3
 BYTE   W03
 BYTE   Fn3
 BYTE   W03
 BYTE   Fs3
 BYTE   W03
 BYTE   Fn3
 BYTE   W04
 BYTE   En3
 BYTE   W03
 BYTE   Fn3
 BYTE   W03
 BYTE   Fs3
 BYTE   W03
 BYTE   Fn3
 BYTE   W03
 BYTE   En3
 BYTE   W04
 BYTE   Fn3
 BYTE   W03
 BYTE   Fs3
 BYTE   W03
 BYTE   Fn3
 BYTE   W03
 BYTE   En3
 BYTE   W03
 BYTE   Fn3
 BYTE   W04
 BYTE   Fs3
 BYTE   W03
 BYTE   Fn3
 BYTE   W03
 BYTE   En3
 BYTE   W03
 BYTE   Fn3
 BYTE   W03
 BYTE   Fs3
 BYTE   W04
 BYTE   Fn3
 BYTE   W03
 BYTE   En3
 BYTE   W03
 BYTE   Fn3
 BYTE   W03
 BYTE   Fs3
 BYTE   W03
 BYTE   Fn3
 BYTE   W04
 BYTE   PEND 
// 010   ----------------------------------------
Label_1_0149E1DE:
 BYTE   BEND   c_v+0
 BYTE   W03
 BYTE   Fn3
 BYTE   W03
 BYTE   Fs3
 BYTE   W03
 BYTE   Fn3
 BYTE   W03
 BYTE   En3
 BYTE   W04
 BYTE   Fn3
 BYTE   W03
 BYTE   Fs3
 BYTE   W03
 BYTE   Fn3
 BYTE   W03
 BYTE   En3
 BYTE   W03
 BYTE   Fn3
 BYTE   W04
 BYTE   Fs3
 BYTE   W03
 BYTE   Fn3
 BYTE   W03
 BYTE   En3
 BYTE   W03
 BYTE   Fn3
 BYTE   W03
 BYTE   Fs3
 BYTE   W04
 BYTE   Fn3
 BYTE   W03
 BYTE   En3
 BYTE   W03
 BYTE   Fn3
 BYTE   W03
 BYTE   Fs3
 BYTE   W03
 BYTE   Fn3
 BYTE   W04
 BYTE   En3
 BYTE   W03
 BYTE   Fn3
 BYTE   W03
 BYTE   Fs3
 BYTE   W03
 BYTE   Fn3
 BYTE   W03
 BYTE   En3
 BYTE   W04
 BYTE   Fn3
 BYTE   W03
 BYTE   Fs3
 BYTE   W01
 BYTE   PEND 
 BYTE   EOT
 BYTE   Cn5
 BYTE   BEND   c_v+0
 BYTE   W12
// 011   ----------------------------------------
 BYTE   W96
// 012   ----------------------------------------
 BYTE   W96
// 013   ----------------------------------------
 BYTE   W96
// 014   ----------------------------------------
 BYTE   W96
// 015   ----------------------------------------
 BYTE   W96
// 016   ----------------------------------------
 BYTE   W96
// 017   ----------------------------------------
 BYTE   W96
 BYTE   PATT
  POIN2 Label_1_0149E06D
 BYTE   PATT
  POIN2 Label_1_0149E079
 BYTE   PATT
  POIN2 Label_1_0149E0B3
 BYTE   PATT
  POIN2 Label_1_0149E0ED
 BYTE   PATT
  POIN2 Label_1_0149E12F
// 018   ----------------------------------------
 BYTE   EOT
 BYTE   Gs4
 BYTE   BEND   c_v+0
 BYTE   N06  Cs4  v096
 BYTE   W06
 BYTE   Ds4
 BYTE   W06
 BYTE   En4
 BYTE   W06
 BYTE   Fs4
 BYTE   W06
 BYTE   PATT
  POIN2 Label_1_0149E079
 BYTE   PATT
  POIN2 Label_1_0149E172
 BYTE   PATT
  POIN2 Label_1_0149E19C
 BYTE   PATT
  POIN2 Label_1_0149E1DE
// 019   ----------------------------------------
 BYTE   EOT
 BYTE   Cn5
 BYTE   BEND   c_v+0
 BYTE   W12
 BYTE   W96
// 020   ----------------------------------------
 BYTE   W96
// 021   ----------------------------------------
 BYTE   W96
// 022   ----------------------------------------
 BYTE   W96
// 023   ----------------------------------------
 BYTE   W96
// 024   ----------------------------------------
 BYTE   W96
// 025   ----------------------------------------
 BYTE   W96
 BYTE   PATT
  POIN2 Label_1_0149E06D
// 026   ----------------------------------------
 BYTE   VOL   126*KirbyDreamLand2CootheOwlPandan_mvl/mxv
 BYTE   BEND   c_v+2
 BYTE   N72  Gs4  v096
 BYTE   W03
 BYTE   BEND   c_v+1
 BYTE   W03
 BYTE   VOL   124*KirbyDreamLand2CootheOwlPandan_mvl/mxv
 BYTE   BEND   c_v+0
 BYTE   W03
 BYTE   Fn3
 BYTE   W03
 BYTE   VOL   122*KirbyDreamLand2CootheOwlPandan_mvl/mxv
 BYTE   BEND   c_v+2
 BYTE   W04
 BYTE   Fn3
 BYTE   W02
 BYTE   VOL   120*KirbyDreamLand2CootheOwlPandan_mvl/mxv
 BYTE   W01
 BYTE   BEND   c_v+0
 BYTE   W03
 BYTE   Fn3
 BYTE   W02
 BYTE   VOL   118*KirbyDreamLand2CootheOwlPandan_mvl/mxv
 BYTE   W01
 BYTE   BEND   c_v+2
 BYTE   W03
 BYTE   Fn3
 BYTE   W02
 BYTE   VOL   116*KirbyDreamLand2CootheOwlPandan_mvl/mxv
 BYTE   W02
 BYTE   BEND   c_v+0
 BYTE   W03
 BYTE   Fn3
 BYTE   W01
 BYTE   VOL   114*KirbyDreamLand2CootheOwlPandan_mvl/mxv
 BYTE   W02
 BYTE   BEND   c_v+2
 BYTE   W03
 BYTE   Fn3
 BYTE   W01
 BYTE   VOL   112*KirbyDreamLand2CootheOwlPandan_mvl/mxv
 BYTE   W02
 BYTE   BEND   c_v+0
 BYTE   W04
 BYTE   VOL   110*KirbyDreamLand2CootheOwlPandan_mvl/mxv
 BYTE   BEND   c_v+1
 BYTE   W03
 BYTE   Fs3
 BYTE   W03
 BYTE   VOL   108*KirbyDreamLand2CootheOwlPandan_mvl/mxv
 BYTE   BEND   c_v+1
 BYTE   W03
 BYTE   En3
 BYTE   W03
 BYTE   VOL   106*KirbyDreamLand2CootheOwlPandan_mvl/mxv
 BYTE   BEND   c_v+1
 BYTE   W04
 BYTE   Fs3
 BYTE   W02
 BYTE   VOL   104*KirbyDreamLand2CootheOwlPandan_mvl/mxv
 BYTE   W01
 BYTE   BEND   c_v+1
 BYTE   W03
 BYTE   En3
 BYTE   W02
 BYTE   VOL   102*KirbyDreamLand2CootheOwlPandan_mvl/mxv
 BYTE   BEND   c_v+0
 BYTE   N12  Cs4
 BYTE   W06
 BYTE   VOL   100*KirbyDreamLand2CootheOwlPandan_mvl/mxv
 BYTE   W06
 BYTE   Dn6
 BYTE   N12  Bn4
 BYTE   W06
 BYTE   VOL   96*KirbyDreamLand2CootheOwlPandan_mvl/mxv
 BYTE   W06
// 027   ----------------------------------------
 BYTE   Bn5
 BYTE   BEND   c_v+2
 BYTE   N72  As4
 BYTE   W03
 BYTE   BEND   c_v+1
 BYTE   W03
 BYTE   VOL   93*KirbyDreamLand2CootheOwlPandan_mvl/mxv
 BYTE   BEND   c_v+0
 BYTE   W03
 BYTE   Fn3
 BYTE   W03
 BYTE   VOL   91*KirbyDreamLand2CootheOwlPandan_mvl/mxv
 BYTE   BEND   c_v+2
 BYTE   W04
 BYTE   Fn3
 BYTE   W02
 BYTE   VOL   89*KirbyDreamLand2CootheOwlPandan_mvl/mxv
 BYTE   W01
 BYTE   BEND   c_v+0
 BYTE   W03
 BYTE   Fn3
 BYTE   W02
 BYTE   VOL   87*KirbyDreamLand2CootheOwlPandan_mvl/mxv
 BYTE   W01
 BYTE   BEND   c_v+2
 BYTE   W03
 BYTE   Fn3
 BYTE   W02
 BYTE   VOL   85*KirbyDreamLand2CootheOwlPandan_mvl/mxv
 BYTE   W02
 BYTE   BEND   c_v+0
 BYTE   W03
 BYTE   Fn3
 BYTE   W01
 BYTE   VOL   83*KirbyDreamLand2CootheOwlPandan_mvl/mxv
 BYTE   W02
 BYTE   BEND   c_v+2
 BYTE   W03
 BYTE   Fn3
 BYTE   W01
 BYTE   VOL   81*KirbyDreamLand2CootheOwlPandan_mvl/mxv
 BYTE   W02
 BYTE   BEND   c_v+0
 BYTE   W04
 BYTE   VOL   79*KirbyDreamLand2CootheOwlPandan_mvl/mxv
 BYTE   BEND   c_v+1
 BYTE   W03
 BYTE   Fs3
 BYTE   W03
 BYTE   VOL   77*KirbyDreamLand2CootheOwlPandan_mvl/mxv
 BYTE   BEND   c_v+1
 BYTE   W03
 BYTE   En3
 BYTE   W03
 BYTE   VOL   75*KirbyDreamLand2CootheOwlPandan_mvl/mxv
 BYTE   BEND   c_v+1
 BYTE   W04
 BYTE   Fs3
 BYTE   W02
 BYTE   VOL   73*KirbyDreamLand2CootheOwlPandan_mvl/mxv
 BYTE   W01
 BYTE   BEND   c_v+1
 BYTE   W03
 BYTE   En3
 BYTE   W02
 BYTE   VOL   71*KirbyDreamLand2CootheOwlPandan_mvl/mxv
 BYTE   BEND   c_v+0
 BYTE   N12  Gs4
 BYTE   W06
 BYTE   VOL   69*KirbyDreamLand2CootheOwlPandan_mvl/mxv
 BYTE   W06
 BYTE   Gn3
 BYTE   N12  Fs4
 BYTE   W06
 BYTE   VOL   65*KirbyDreamLand2CootheOwlPandan_mvl/mxv
 BYTE   W06
// 028   ----------------------------------------
 BYTE   Ds3
 BYTE   BEND   c_v+2
 BYTE   TIE  Gs4
 BYTE   W03
 BYTE   BEND   c_v+1
 BYTE   W03
 BYTE   VOL   61*KirbyDreamLand2CootheOwlPandan_mvl/mxv
 BYTE   BEND   c_v+0
 BYTE   W03
 BYTE   Fn3
 BYTE   W03
 BYTE   VOL   59*KirbyDreamLand2CootheOwlPandan_mvl/mxv
 BYTE   BEND   c_v+2
 BYTE   W04
 BYTE   Fn3
 BYTE   W02
 BYTE   VOL   57*KirbyDreamLand2CootheOwlPandan_mvl/mxv
 BYTE   W01
 BYTE   BEND   c_v+0
 BYTE   W03
 BYTE   Fn3
 BYTE   W02
 BYTE   VOL   55*KirbyDreamLand2CootheOwlPandan_mvl/mxv
 BYTE   W01
 BYTE   BEND   c_v+2
 BYTE   W03
 BYTE   Fn3
 BYTE   W02
 BYTE   VOL   53*KirbyDreamLand2CootheOwlPandan_mvl/mxv
 BYTE   W02
 BYTE   BEND   c_v+0
 BYTE   W03
 BYTE   Fn3
 BYTE   W01
 BYTE   VOL   51*KirbyDreamLand2CootheOwlPandan_mvl/mxv
 BYTE   W02
 BYTE   BEND   c_v+2
 BYTE   W03
 BYTE   Fn3
 BYTE   W01
 BYTE   VOL   49*KirbyDreamLand2CootheOwlPandan_mvl/mxv
 BYTE   W02
 BYTE   BEND   c_v+0
 BYTE   W04
 BYTE   VOL   47*KirbyDreamLand2CootheOwlPandan_mvl/mxv
 BYTE   BEND   c_v+1
 BYTE   W03
 BYTE   Fs3
 BYTE   W03
 BYTE   VOL   45*KirbyDreamLand2CootheOwlPandan_mvl/mxv
 BYTE   BEND   c_v+1
 BYTE   W03
 BYTE   En3
 BYTE   W03
 BYTE   VOL   43*KirbyDreamLand2CootheOwlPandan_mvl/mxv
 BYTE   BEND   c_v+1
 BYTE   W04
 BYTE   Fs3
 BYTE   W02
 BYTE   VOL   41*KirbyDreamLand2CootheOwlPandan_mvl/mxv
 BYTE   W01
 BYTE   BEND   c_v+1
 BYTE   W03
 BYTE   En3
 BYTE   W02
 BYTE   VOL   39*KirbyDreamLand2CootheOwlPandan_mvl/mxv
 BYTE   W01
 BYTE   BEND   c_v+1
 BYTE   W03
 BYTE   Fs3
 BYTE   W02
 BYTE   VOL   37*KirbyDreamLand2CootheOwlPandan_mvl/mxv
 BYTE   W02
 BYTE   BEND   c_v+1
 BYTE   W03
 BYTE   En3
 BYTE   W01
 BYTE   VOL   35*KirbyDreamLand2CootheOwlPandan_mvl/mxv
 BYTE   W02
 BYTE   BEND   c_v+1
 BYTE   W03
 BYTE   Fs3
 BYTE   W01
 BYTE   VOL   33*KirbyDreamLand2CootheOwlPandan_mvl/mxv
 BYTE   W02
 BYTE   BEND   c_v+1
 BYTE   W04
// 029   ----------------------------------------
 BYTE   VOL   32*KirbyDreamLand2CootheOwlPandan_mvl/mxv
 BYTE   BEND   c_v+0
 BYTE   W03
 BYTE   Fn3
 BYTE   W03
 BYTE   VOL   30*KirbyDreamLand2CootheOwlPandan_mvl/mxv
 BYTE   BEND   c_v+2
 BYTE   W03
 BYTE   Fn3
 BYTE   W03
 BYTE   VOL   28*KirbyDreamLand2CootheOwlPandan_mvl/mxv
 BYTE   BEND   c_v+0
 BYTE   W04
 BYTE   Fn3
 BYTE   W02
 BYTE   VOL   26*KirbyDreamLand2CootheOwlPandan_mvl/mxv
 BYTE   W01
 BYTE   BEND   c_v+2
 BYTE   W03
 BYTE   Fn3
 BYTE   W02
 BYTE   VOL   24*KirbyDreamLand2CootheOwlPandan_mvl/mxv
 BYTE   W01
 BYTE   BEND   c_v+0
 BYTE   W03
 BYTE   Fn3
 BYTE   W02
 BYTE   VOL   22*KirbyDreamLand2CootheOwlPandan_mvl/mxv
 BYTE   W02
 BYTE   BEND   c_v+2
 BYTE   W03
 BYTE   Fn3
 BYTE   W01
 BYTE   VOL   20*KirbyDreamLand2CootheOwlPandan_mvl/mxv
 BYTE   W02
 BYTE   BEND   c_v+0
 BYTE   W03
 BYTE   Fn3
 BYTE   W01
 BYTE   VOL   18*KirbyDreamLand2CootheOwlPandan_mvl/mxv
 BYTE   W02
 BYTE   BEND   c_v+2
 BYTE   W04
 BYTE   VOL   16*KirbyDreamLand2CootheOwlPandan_mvl/mxv
 BYTE   BEND   c_v+1
 BYTE   W03
 BYTE   En3
 BYTE   W03
 BYTE   VOL   14*KirbyDreamLand2CootheOwlPandan_mvl/mxv
 BYTE   BEND   c_v+1
 BYTE   W03
 BYTE   Fs3
 BYTE   W03
 BYTE   VOL   12*KirbyDreamLand2CootheOwlPandan_mvl/mxv
 BYTE   BEND   c_v+1
 BYTE   W04
 BYTE   En3
 BYTE   W02
 BYTE   VOL   10*KirbyDreamLand2CootheOwlPandan_mvl/mxv
 BYTE   W01
 BYTE   BEND   c_v+1
 BYTE   W03
 BYTE   Fs3
 BYTE   W02
 BYTE   EOT
 BYTE   VOL   8*KirbyDreamLand2CootheOwlPandan_mvl/mxv
 BYTE   BEND   c_v+0
 BYTE   N06  Cs4
 BYTE   W06
 BYTE   VOL   6*KirbyDreamLand2CootheOwlPandan_mvl/mxv
 BYTE   N06  Ds4
 BYTE   W06
 BYTE   VOL   4*KirbyDreamLand2CootheOwlPandan_mvl/mxv
 BYTE   N06  En4
 BYTE   W06
 BYTE   VOL   2*KirbyDreamLand2CootheOwlPandan_mvl/mxv
 BYTE   N06  Fs4
 BYTE   W06
// 030   ----------------------------------------
 BYTE   VOL   0*KirbyDreamLand2CootheOwlPandan_mvl/mxv
 BYTE   FINE

//**************** Track 3 (Midi-Chn.2) ****************//

KirbyDreamLand2CootheOwlPandan_003:
// 000   ----------------------------------------
 BYTE   KEYSH   KirbyDreamLand2CootheOwlPandan_key+0
 BYTE   VOICE   24
 BYTE   VOL   104*KirbyDreamLand2CootheOwlPandan_mvl/mxv
 BYTE   PAN   c_v+8
 BYTE   BEND   c_v+0
 BYTE   W96
// 001   ----------------------------------------
 BYTE   W96
// 002   ----------------------------------------
 BYTE   W96
// 003   ----------------------------------------
 BYTE   W96
// 004   ----------------------------------------
Label_2_0149E43E:
 BYTE   W12
 BYTE   N06  Cs3  v096
 BYTE   W06
 BYTE   N06
 BYTE   W18
 BYTE   N06
 BYTE   W06
 BYTE   N06
 BYTE   W06
 BYTE   N12
 BYTE   W12
 BYTE   N06
 BYTE   W06
 BYTE   N06
 BYTE   W18
 BYTE   N06
 BYTE   W06
 BYTE   N06
 BYTE   W06
 BYTE   PEND 
// 005   ----------------------------------------
Label_2_0149E454:
 BYTE   W12
 BYTE   N06  Fs2  v096
 BYTE   W06
 BYTE   N06
 BYTE   W18
 BYTE   N06
 BYTE   W06
 BYTE   N06
 BYTE   W06
 BYTE   N12
 BYTE   W12
 BYTE   N06
 BYTE   W06
 BYTE   N06
 BYTE   W18
 BYTE   N06
 BYTE   W06
 BYTE   N06
 BYTE   W06
 BYTE   PEND 
 BYTE   PATT
  POIN2 Label_2_0149E43E
 BYTE   PATT
  POIN2 Label_2_0149E43E
 BYTE   PATT
  POIN2 Label_2_0149E43E
 BYTE   PATT
  POIN2 Label_2_0149E454
// 006   ----------------------------------------
Label_2_0149E47E:
 BYTE   W12
 BYTE   N06  Gs2  v096
 BYTE   W06
 BYTE   N06
 BYTE   W18
 BYTE   N06
 BYTE   W06
 BYTE   N06
 BYTE   W06
 BYTE   N12
 BYTE   W12
 BYTE   N06
 BYTE   W06
 BYTE   N06
 BYTE   W18
 BYTE   N06
 BYTE   W06
 BYTE   N06
 BYTE   W06
 BYTE   PEND 
 BYTE   PATT
  POIN2 Label_2_0149E47E
// 007   ----------------------------------------
 BYTE   W96
// 008   ----------------------------------------
 BYTE   W96
// 009   ----------------------------------------
 BYTE   W96
// 010   ----------------------------------------
 BYTE   W96
// 011   ----------------------------------------
 BYTE   W96
// 012   ----------------------------------------
 BYTE   W96
// 013   ----------------------------------------
 BYTE   W96
// 014   ----------------------------------------
 BYTE   W96
 BYTE   PATT
  POIN2 Label_2_0149E43E
 BYTE   PATT
  POIN2 Label_2_0149E454
 BYTE   PATT
  POIN2 Label_2_0149E43E
 BYTE   PATT
  POIN2 Label_2_0149E43E
 BYTE   PATT
  POIN2 Label_2_0149E43E
 BYTE   PATT
  POIN2 Label_2_0149E454
 BYTE   PATT
  POIN2 Label_2_0149E47E
 BYTE   PATT
  POIN2 Label_2_0149E47E
// 015   ----------------------------------------
 BYTE   W96
// 016   ----------------------------------------
 BYTE   W96
// 017   ----------------------------------------
 BYTE   W96
// 018   ----------------------------------------
 BYTE   W96
// 019   ----------------------------------------
 BYTE   W96
// 020   ----------------------------------------
 BYTE   W96
// 021   ----------------------------------------
 BYTE   W96
// 022   ----------------------------------------
 BYTE   W96
// 023   ----------------------------------------
 BYTE   VOL   102*KirbyDreamLand2CootheOwlPandan_mvl/mxv
 BYTE   W06
 BYTE   Fn6
 BYTE   W06
 BYTE   Ds6
 BYTE   N06  Cs3  v096
 BYTE   W06
 BYTE   VOL   98*KirbyDreamLand2CootheOwlPandan_mvl/mxv
 BYTE   N06
 BYTE   W06
 BYTE   VOL   96*KirbyDreamLand2CootheOwlPandan_mvl/mxv
 BYTE   W06
 BYTE   As5
 BYTE   W06
 BYTE   An5
 BYTE   N06
 BYTE   W06
 BYTE   VOL   91*KirbyDreamLand2CootheOwlPandan_mvl/mxv
 BYTE   N06
 BYTE   W06
 BYTE   VOL   90*KirbyDreamLand2CootheOwlPandan_mvl/mxv
 BYTE   N12
 BYTE   W06
 BYTE   VOL   88*KirbyDreamLand2CootheOwlPandan_mvl/mxv
 BYTE   W06
 BYTE   Dn5
 BYTE   N06
 BYTE   W06
 BYTE   VOL   85*KirbyDreamLand2CootheOwlPandan_mvl/mxv
 BYTE   N06
 BYTE   W06
 BYTE   VOL   83*KirbyDreamLand2CootheOwlPandan_mvl/mxv
 BYTE   W06
 BYTE   As4
 BYTE   W06
 BYTE   Gs4
 BYTE   N06
 BYTE   W06
 BYTE   VOL   78*KirbyDreamLand2CootheOwlPandan_mvl/mxv
 BYTE   N06
 BYTE   W06
// 024   ----------------------------------------
 BYTE   VOL   77*KirbyDreamLand2CootheOwlPandan_mvl/mxv
 BYTE   W06
 BYTE   Ds4
 BYTE   W06
 BYTE   Dn4
 BYTE   N06  Fs2
 BYTE   W06
 BYTE   VOL   72*KirbyDreamLand2CootheOwlPandan_mvl/mxv
 BYTE   N06
 BYTE   W06
 BYTE   VOL   70*KirbyDreamLand2CootheOwlPandan_mvl/mxv
 BYTE   W06
 BYTE   An3
 BYTE   W06
 BYTE   Gn3
 BYTE   N06
 BYTE   W06
 BYTE   VOL   66*KirbyDreamLand2CootheOwlPandan_mvl/mxv
 BYTE   N06
 BYTE   W06
 BYTE   VOL   64*KirbyDreamLand2CootheOwlPandan_mvl/mxv
 BYTE   N12
 BYTE   W06
 BYTE   VOL   62*KirbyDreamLand2CootheOwlPandan_mvl/mxv
 BYTE   W06
 BYTE   Cs3
 BYTE   N06
 BYTE   W06
 BYTE   VOL   59*KirbyDreamLand2CootheOwlPandan_mvl/mxv
 BYTE   N06
 BYTE   W06
 BYTE   VOL   58*KirbyDreamLand2CootheOwlPandan_mvl/mxv
 BYTE   W06
 BYTE   Gs2
 BYTE   W06
 BYTE   Fs2
 BYTE   N06
 BYTE   W06
 BYTE   VOL   53*KirbyDreamLand2CootheOwlPandan_mvl/mxv
 BYTE   N06
 BYTE   W06
// 025   ----------------------------------------
 BYTE   VOL   51*KirbyDreamLand2CootheOwlPandan_mvl/mxv
 BYTE   W06
 BYTE   Dn2
 BYTE   W06
 BYTE   Cn2
 BYTE   N06  Cs3
 BYTE   W06
 BYTE   VOL   46*KirbyDreamLand2CootheOwlPandan_mvl/mxv
 BYTE   N06
 BYTE   W06
 BYTE   VOL   45*KirbyDreamLand2CootheOwlPandan_mvl/mxv
 BYTE   W06
 BYTE   Gn1
 BYTE   W06
 BYTE   Fs1
 BYTE   N06
 BYTE   W06
 BYTE   VOL   40*KirbyDreamLand2CootheOwlPandan_mvl/mxv
 BYTE   N06
 BYTE   W06
 BYTE   VOL   38*KirbyDreamLand2CootheOwlPandan_mvl/mxv
 BYTE   N12
 BYTE   W06
 BYTE   VOL   37*KirbyDreamLand2CootheOwlPandan_mvl/mxv
 BYTE   W06
 BYTE   Bn0
 BYTE   N06
 BYTE   W06
 BYTE   VOL   34*KirbyDreamLand2CootheOwlPandan_mvl/mxv
 BYTE   N06
 BYTE   W06
 BYTE   VOL   32*KirbyDreamLand2CootheOwlPandan_mvl/mxv
 BYTE   W06
 BYTE   Fs0
 BYTE   W06
 BYTE   Fn0
 BYTE   N06
 BYTE   W06
 BYTE   VOL   27*KirbyDreamLand2CootheOwlPandan_mvl/mxv
 BYTE   N06
 BYTE   W06
// 026   ----------------------------------------
 BYTE   VOL   26*KirbyDreamLand2CootheOwlPandan_mvl/mxv
 BYTE   W06
 BYTE   Cn0
 BYTE   W06
 BYTE   AsM1
 BYTE   N06
 BYTE   W06
 BYTE   VOL   21*KirbyDreamLand2CootheOwlPandan_mvl/mxv
 BYTE   N06
 BYTE   W06
 BYTE   VOL   19*KirbyDreamLand2CootheOwlPandan_mvl/mxv
 BYTE   W06
 BYTE   FsM1
 BYTE   W06
 BYTE   EnM1
 BYTE   N06
 BYTE   W06
 BYTE   VOL   14*KirbyDreamLand2CootheOwlPandan_mvl/mxv
 BYTE   N06
 BYTE   W06
 BYTE   VOL   13*KirbyDreamLand2CootheOwlPandan_mvl/mxv
 BYTE   N12
 BYTE   W06
 BYTE   VOL   11*KirbyDreamLand2CootheOwlPandan_mvl/mxv
 BYTE   W06
 BYTE   AsM2
 BYTE   N06
 BYTE   W06
 BYTE   VOL   8*KirbyDreamLand2CootheOwlPandan_mvl/mxv
 BYTE   N06
 BYTE   W06
 BYTE   VOL   6*KirbyDreamLand2CootheOwlPandan_mvl/mxv
 BYTE   W06
 BYTE   FnM2
 BYTE   W06
 BYTE   DsM2
 BYTE   N06
 BYTE   W06
 BYTE   VOL   2*KirbyDreamLand2CootheOwlPandan_mvl/mxv
 BYTE   N06
 BYTE   W06
// 027   ----------------------------------------
 BYTE   VOL   0*KirbyDreamLand2CootheOwlPandan_mvl/mxv
 BYTE   FINE

//**************** Track 4 (Midi-Chn.3) ****************//

KirbyDreamLand2CootheOwlPandan_004:
// 000   ----------------------------------------
 BYTE   KEYSH   KirbyDreamLand2CootheOwlPandan_key+0
 BYTE   VOICE   56
 BYTE   VOL   127*KirbyDreamLand2CootheOwlPandan_mvl/mxv
 BYTE   PAN   c_v+0
 BYTE   BEND   c_v+0
 BYTE   W96
// 001   ----------------------------------------
 BYTE   W96
// 002   ----------------------------------------
 BYTE   W96
// 003   ----------------------------------------
 BYTE   W96
// 004   ----------------------------------------
 BYTE   W96
// 005   ----------------------------------------
 BYTE   W96
// 006   ----------------------------------------
 BYTE   W96
// 007   ----------------------------------------
 BYTE   W96
// 008   ----------------------------------------
 BYTE   W96
// 009   ----------------------------------------
 BYTE   W96
// 010   ----------------------------------------
 BYTE   W96
// 011   ----------------------------------------
Label_3_0149E5B5:
 BYTE   W84
 BYTE   N06  An3  v096
 BYTE   N06  Cs4
 BYTE   W06
 BYTE   Gs3
 BYTE   N06  Bn3
 BYTE   W06
 BYTE   PEND 
// 012   ----------------------------------------
 BYTE   BEND   c_v+0
 BYTE   N48  An3
 BYTE   N48  Cs4
 BYTE   W01
 BYTE   BEND   c_v+0
 BYTE   W01
 BYTE   En3
 BYTE   W01
 BYTE   En3
 BYTE   W01
 BYTE   En3
 BYTE   W01
 BYTE   En3
 BYTE   W01
 BYTE   En3
 BYTE   W01
 BYTE   En3
 BYTE   W01
 BYTE   En3
 BYTE   W01
 BYTE   En3
 BYTE   W01
 BYTE   En3
 BYTE   W01
 BYTE   En3
 BYTE   W01
 BYTE   En3
 BYTE   W01
 BYTE   En3
 BYTE   W01
 BYTE   Fn3
 BYTE   W01
 BYTE   Fn3
 BYTE   W01
 BYTE   Fn3
 BYTE   W01
 BYTE   Fn3
 BYTE   W01
 BYTE   Fn3
 BYTE   W01
 BYTE   En3
 BYTE   W01
 BYTE   En3
 BYTE   W01
 BYTE   Ds3
 BYTE   W01
 BYTE   Ds3
 BYTE   W01
 BYTE   Ds3
 BYTE   W01
 BYTE   Ds3
 BYTE   W01
 BYTE   Ds3
 BYTE   W01
 BYTE   En3
 BYTE   W01
 BYTE   Fn3
 BYTE   W01
 BYTE   Fn3
 BYTE   W01
 BYTE   Fn3
 BYTE   W01
 BYTE   Fn3
 BYTE   W01
 BYTE   Fn3
 BYTE   W01
 BYTE   Fn3
 BYTE   W01
 BYTE   En3
 BYTE   W01
 BYTE   Ds3
 BYTE   W01
 BYTE   Ds3
 BYTE   W01
 BYTE   Ds3
 BYTE   W01
 BYTE   Ds3
 BYTE   W01
 BYTE   Ds3
 BYTE   W01
 BYTE   Ds3
 BYTE   W01
 BYTE   En3
 BYTE   W01
 BYTE   Fn3
 BYTE   W01
 BYTE   Fs3
 BYTE   W01
 BYTE   Fs3
 BYTE   W01
 BYTE   Fs3
 BYTE   W01
 BYTE   Fn3
 BYTE   W01
 BYTE   En3
 BYTE   W01
 BYTE   En3
 BYTE   W01
 BYTE   En3
 BYTE   N18  An3
 BYTE   N18  Cs4
 BYTE   W18
 BYTE   Bn3
 BYTE   N18  Ds4
 BYTE   W18
 BYTE   N12  Cs4
 BYTE   N12  En4
 BYTE   W12
// 013   ----------------------------------------
 BYTE   BEND   c_v+0
 BYTE   N48  An3
 BYTE   N48  Cs4
 BYTE   W01
 BYTE   BEND   c_v+0
 BYTE   W01
 BYTE   En3
 BYTE   W01
 BYTE   En3
 BYTE   W01
 BYTE   En3
 BYTE   W01
 BYTE   En3
 BYTE   W01
 BYTE   En3
 BYTE   W01
 BYTE   En3
 BYTE   W01
 BYTE   En3
 BYTE   W01
 BYTE   En3
 BYTE   W01
 BYTE   En3
 BYTE   W01
 BYTE   En3
 BYTE   W01
 BYTE   En3
 BYTE   W01
 BYTE   En3
 BYTE   W01
 BYTE   Fn3
 BYTE   W01
 BYTE   Fn3
 BYTE   W01
 BYTE   Fs3
 BYTE   W01
 BYTE   Fn3
 BYTE   W01
 BYTE   Fn3
 BYTE   W01
 BYTE   En3
 BYTE   W01
 BYTE   En3
 BYTE   W01
 BYTE   Ds3
 BYTE   W01
 BYTE   Ds3
 BYTE   W01
 BYTE   Dn3
 BYTE   W01
 BYTE   Ds3
 BYTE   W01
 BYTE   Ds3
 BYTE   W01
 BYTE   En3
 BYTE   W01
 BYTE   Fn3
 BYTE   W01
 BYTE   Fn3
 BYTE   W01
 BYTE   Fs3
 BYTE   W01
 BYTE   Fs3
 BYTE   W01
 BYTE   Fn3
 BYTE   W01
 BYTE   Fn3
 BYTE   W01
 BYTE   En3
 BYTE   W01
 BYTE   Ds3
 BYTE   W01
 BYTE   Ds3
 BYTE   W01
 BYTE   Dn3
 BYTE   W01
 BYTE   Ds3
 BYTE   W01
 BYTE   Ds3
 BYTE   W01
 BYTE   Ds3
 BYTE   W01
 BYTE   En3
 BYTE   W01
 BYTE   Fn3
 BYTE   W01
 BYTE   Fn3
 BYTE   W01
 BYTE   Fs3
 BYTE   W01
 BYTE   Fn3
 BYTE   W01
 BYTE   Fn3
 BYTE   W01
 BYTE   En3
 BYTE   W01
 BYTE   En3
 BYTE   W01
 BYTE   En3
 BYTE   N24  Bn3
 BYTE   N24  Ds4
 BYTE   W24
 BYTE   An3
 BYTE   N24  Cs4
 BYTE   W24
// 014   ----------------------------------------
 BYTE   BEND   c_v+0
 BYTE   N48  Gs3
 BYTE   N48  Bn3
 BYTE   W01
 BYTE   BEND   c_v+0
 BYTE   W01
 BYTE   En3
 BYTE   W01
 BYTE   En3
 BYTE   W01
 BYTE   En3
 BYTE   W01
 BYTE   En3
 BYTE   W01
 BYTE   En3
 BYTE   W01
 BYTE   En3
 BYTE   W01
 BYTE   En3
 BYTE   W01
 BYTE   En3
 BYTE   W01
 BYTE   En3
 BYTE   W01
 BYTE   En3
 BYTE   W01
 BYTE   En3
 BYTE   W01
 BYTE   En3
 BYTE   W01
 BYTE   Fn3
 BYTE   W01
 BYTE   Fn3
 BYTE   W01
 BYTE   Fn3
 BYTE   W01
 BYTE   Fn3
 BYTE   W01
 BYTE   Fn3
 BYTE   W01
 BYTE   En3
 BYTE   W01
 BYTE   En3
 BYTE   W01
 BYTE   Ds3
 BYTE   W01
 BYTE   Ds3
 BYTE   W01
 BYTE   Ds3
 BYTE   W01
 BYTE   Ds3
 BYTE   W01
 BYTE   Ds3
 BYTE   W01
 BYTE   En3
 BYTE   W01
 BYTE   Fn3
 BYTE   W01
 BYTE   Fn3
 BYTE   W01
 BYTE   Fn3
 BYTE   W01
 BYTE   Fn3
 BYTE   W01
 BYTE   Fn3
 BYTE   W01
 BYTE   Fn3
 BYTE   W01
 BYTE   En3
 BYTE   W01
 BYTE   Ds3
 BYTE   W01
 BYTE   Ds3
 BYTE   W01
 BYTE   Ds3
 BYTE   W01
 BYTE   Ds3
 BYTE   W01
 BYTE   Ds3
 BYTE   W01
 BYTE   Ds3
 BYTE   W01
 BYTE   En3
 BYTE   W01
 BYTE   Fn3
 BYTE   W01
 BYTE   Fn3
 BYTE   W01
 BYTE   Fs3
 BYTE   W01
 BYTE   Fn3
 BYTE   W01
 BYTE   Fn3
 BYTE   W01
 BYTE   En3
 BYTE   W01
 BYTE   En3
 BYTE   W01
 BYTE   En3
 BYTE   TIE  En3
 BYTE   TIE  Gs3
 BYTE   W01
 BYTE   BEND   c_v+0
 BYTE   W01
 BYTE   En3
 BYTE   W01
 BYTE   En3
 BYTE   W01
 BYTE   En3
 BYTE   W01
 BYTE   En3
 BYTE   W01
 BYTE   En3
 BYTE   W01
 BYTE   En3
 BYTE   W01
 BYTE   En3
 BYTE   W01
 BYTE   En3
 BYTE   W01
 BYTE   En3
 BYTE   W01
 BYTE   En3
 BYTE   W01
 BYTE   En3
 BYTE   W01
 BYTE   En3
 BYTE   W01
 BYTE   Fn3
 BYTE   W01
 BYTE   Fn3
 BYTE   W01
 BYTE   Fs3
 BYTE   W01
 BYTE   Fs3
 BYTE   W01
 BYTE   Fn3
 BYTE   W01
 BYTE   En3
 BYTE   W01
 BYTE   En3
 BYTE   W01
 BYTE   Ds3
 BYTE   W01
 BYTE   Dn3
 BYTE   W01
 BYTE   Dn3
 BYTE   W01
 BYTE   Ds3
 BYTE   W01
 BYTE   Ds3
 BYTE   W01
 BYTE   En3
 BYTE   W01
 BYTE   Fn3
 BYTE   W01
 BYTE   Fn3
 BYTE   W01
 BYTE   Fn3
 BYTE   W01
 BYTE   Fn3
 BYTE   W01
 BYTE   Fn3
 BYTE   W01
 BYTE   Fn3
 BYTE   W01
 BYTE   En3
 BYTE   W01
 BYTE   Ds3
 BYTE   W01
 BYTE   Ds3
 BYTE   W01
 BYTE   Ds3
 BYTE   W01
 BYTE   Ds3
 BYTE   W01
 BYTE   Ds3
 BYTE   W01
 BYTE   Ds3
 BYTE   W01
 BYTE   En3
 BYTE   W01
 BYTE   Fn3
 BYTE   W01
 BYTE   Fn3
 BYTE   W01
 BYTE   Fn3
 BYTE   W01
 BYTE   Fn3
 BYTE   W01
 BYTE   Fn3
 BYTE   W01
 BYTE   En3
 BYTE   W01
 BYTE   En3
 BYTE   W01
// 015   ----------------------------------------
 BYTE   Ds3
 BYTE   W01
 BYTE   Ds3
 BYTE   W01
 BYTE   Ds3
 BYTE   W01
 BYTE   Ds3
 BYTE   W01
 BYTE   Ds3
 BYTE   W01
 BYTE   En3
 BYTE   W01
 BYTE   Fn3
 BYTE   W01
 BYTE   Fn3
 BYTE   W01
 BYTE   Fn3
 BYTE   W01
 BYTE   Fn3
 BYTE   W01
 BYTE   Fn3
 BYTE   W01
 BYTE   Fn3
 BYTE   W01
 BYTE   En3
 BYTE   W01
 BYTE   Ds3
 BYTE   W01
 BYTE   Ds3
 BYTE   W01
 BYTE   Ds3
 BYTE   W01
 BYTE   Ds3
 BYTE   W01
 BYTE   Ds3
 BYTE   W01
 BYTE   Ds3
 BYTE   W01
 BYTE   En3
 BYTE   W01
 BYTE   Fn3
 BYTE   W01
 BYTE   Fs3
 BYTE   W01
 BYTE   Fs3
 BYTE   W01
 BYTE   Fs3
 BYTE   W01
 BYTE   Fs3
 BYTE   W01
 BYTE   En3
 BYTE   W01
 BYTE   En3
 BYTE   W01
 BYTE   Dn3
 BYTE   W01
 BYTE   Dn3
 BYTE   W01
 BYTE   Dn3
 BYTE   W01
 BYTE   Dn3
 BYTE   W01
 BYTE   Ds3
 BYTE   W01
 BYTE   En3
 BYTE   W01
 BYTE   Fn3
 BYTE   W01
 BYTE   Fs3
 BYTE   W01
 BYTE   Fs3
 BYTE   W01
 BYTE   Fs3
 BYTE   W01
 BYTE   Fs3
 BYTE   W01
 BYTE   Fn3
 BYTE   W01
 BYTE   En3
 BYTE   W01
 BYTE   Ds3
 BYTE   W01
 BYTE   Dn3
 BYTE   W01
 BYTE   Dn3
 BYTE   W01
 BYTE   Dn3
 BYTE   W01
 BYTE   Dn3
 BYTE   W01
 BYTE   Ds3
 BYTE   W01
 BYTE   En3
 BYTE   W01
 BYTE   Fn3
 BYTE   W01
 BYTE   Fs3
 BYTE   W01
 BYTE   Fs3
 BYTE   W01
 BYTE   Fs3
 BYTE   W01
 BYTE   Fs3
 BYTE   W01
 BYTE   En3
 BYTE   W01
 BYTE   En3
 BYTE   W01
 BYTE   Dn3
 BYTE   W01
 BYTE   Dn3
 BYTE   W01
 BYTE   Dn3
 BYTE   W01
 BYTE   Dn3
 BYTE   W01
 BYTE   Ds3
 BYTE   W01
 BYTE   En3
 BYTE   W01
 BYTE   Fn3
 BYTE   W01
 BYTE   Fn3
 BYTE   W01
 BYTE   Fs3
 BYTE   W01
 BYTE   Fs3
 BYTE   W01
 BYTE   Fn3
 BYTE   W01
 BYTE   Fn3
 BYTE   W01
 BYTE   En3
 BYTE   W01
 BYTE   Ds3
 BYTE   W01
 BYTE   Ds3
 BYTE   W01
 BYTE   Dn3
 BYTE   W01
 BYTE   Ds3
 BYTE   W01
 BYTE   Ds3
 BYTE   W01
 BYTE   EOT
 BYTE   En3  v068
 BYTE   BEND   c_v+0
 BYTE   W12
 BYTE   N06  An3
 BYTE   N06  Fs4
 BYTE   W06
 BYTE   Gs3
 BYTE   N06  En4
 BYTE   W06
// 016   ----------------------------------------
 BYTE   BEND   c_v+0
 BYTE   N48  An3
 BYTE   N48  Fs4
 BYTE   W01
 BYTE   BEND   c_v+0
 BYTE   W01
 BYTE   En3
 BYTE   W01
 BYTE   En3
 BYTE   W01
 BYTE   En3
 BYTE   W01
 BYTE   En3
 BYTE   W01
 BYTE   En3
 BYTE   W01
 BYTE   En3
 BYTE   W01
 BYTE   En3
 BYTE   W01
 BYTE   En3
 BYTE   W01
 BYTE   En3
 BYTE   W01
 BYTE   En3
 BYTE   W01
 BYTE   En3
 BYTE   W01
 BYTE   En3
 BYTE   W01
 BYTE   Fn3
 BYTE   W01
 BYTE   Fn3
 BYTE   W01
 BYTE   Fn3
 BYTE   W01
 BYTE   Fn3
 BYTE   W01
 BYTE   Fn3
 BYTE   W01
 BYTE   En3
 BYTE   W01
 BYTE   En3
 BYTE   W01
 BYTE   Ds3
 BYTE   W01
 BYTE   Ds3
 BYTE   W01
 BYTE   Ds3
 BYTE   W01
 BYTE   Ds3
 BYTE   W01
 BYTE   Ds3
 BYTE   W01
 BYTE   En3
 BYTE   W01
 BYTE   Fn3
 BYTE   W01
 BYTE   Fn3
 BYTE   W01
 BYTE   Fs3
 BYTE   W01
 BYTE   Fs3
 BYTE   W01
 BYTE   Fs3
 BYTE   W01
 BYTE   Fn3
 BYTE   W01
 BYTE   En3
 BYTE   W01
 BYTE   Ds3
 BYTE   W01
 BYTE   Dn3
 BYTE   W01
 BYTE   Dn3
 BYTE   W01
 BYTE   Dn3
 BYTE   W01
 BYTE   Ds3
 BYTE   W01
 BYTE   Ds3
 BYTE   W01
 BYTE   En3
 BYTE   W01
 BYTE   Fn3
 BYTE   W01
 BYTE   Fs3
 BYTE   W01
 BYTE   Fs3
 BYTE   W01
 BYTE   Fs3
 BYTE   W01
 BYTE   Fn3
 BYTE   W01
 BYTE   En3
 BYTE   W01
 BYTE   En3
 BYTE   W01
 BYTE   En3
 BYTE   N18  An3
 BYTE   N18  Fs4
 BYTE   W18
 BYTE   Bn3
 BYTE   N18  Gs4
 BYTE   W18
 BYTE   N12  Cs4
 BYTE   N12  An4
 BYTE   W12
// 017   ----------------------------------------
 BYTE   BEND   c_v+0
 BYTE   N48  An3
 BYTE   N48  Fs4
 BYTE   W01
 BYTE   BEND   c_v+0
 BYTE   W01
 BYTE   En3
 BYTE   W01
 BYTE   En3
 BYTE   W01
 BYTE   En3
 BYTE   W01
 BYTE   En3
 BYTE   W01
 BYTE   En3
 BYTE   W01
 BYTE   En3
 BYTE   W01
 BYTE   En3
 BYTE   W01
 BYTE   En3
 BYTE   W01
 BYTE   En3
 BYTE   W01
 BYTE   En3
 BYTE   W01
 BYTE   En3
 BYTE   W01
 BYTE   En3
 BYTE   W01
 BYTE   Fn3
 BYTE   W01
 BYTE   Fn3
 BYTE   W01
 BYTE   Fs3
 BYTE   W01
 BYTE   Fs3
 BYTE   W01
 BYTE   Fn3
 BYTE   W01
 BYTE   En3
 BYTE   W01
 BYTE   En3
 BYTE   W01
 BYTE   Ds3
 BYTE   W01
 BYTE   Dn3
 BYTE   W01
 BYTE   Dn3
 BYTE   W01
 BYTE   Ds3
 BYTE   W01
 BYTE   Ds3
 BYTE   W01
 BYTE   En3
 BYTE   W01
 BYTE   Fn3
 BYTE   W01
 BYTE   Fs3
 BYTE   W01
 BYTE   Fs3
 BYTE   W01
 BYTE   Fs3
 BYTE   W01
 BYTE   Fs3
 BYTE   W01
 BYTE   Fn3
 BYTE   W01
 BYTE   En3
 BYTE   W01
 BYTE   Ds3
 BYTE   W01
 BYTE   Dn3
 BYTE   W01
 BYTE   Dn3
 BYTE   W01
 BYTE   Dn3
 BYTE   W01
 BYTE   Dn3
 BYTE   W01
 BYTE   Ds3
 BYTE   W01
 BYTE   En3
 BYTE   W01
 BYTE   Fn3
 BYTE   W01
 BYTE   Fs3
 BYTE   W01
 BYTE   Fs3
 BYTE   W01
 BYTE   Fs3
 BYTE   W01
 BYTE   Fn3
 BYTE   W01
 BYTE   En3
 BYTE   W01
 BYTE   En3
 BYTE   W01
 BYTE   En3
 BYTE   N24  Bn3
 BYTE   N24  Gs4
 BYTE   W24
 BYTE   An3
 BYTE   N24  Fs4
 BYTE   W24
// 018   ----------------------------------------
 BYTE   N06  Gs3
 BYTE   N96  Ds4
 BYTE   W06
 BYTE   N06  An3
 BYTE   W06
 BYTE   Gs3
 BYTE   W06
 BYTE   Fs3
 BYTE   W06
 BYTE   BEND   c_v+0
 BYTE   N72  Gs3
 BYTE   W01
 BYTE   BEND   c_v+0
 BYTE   W01
 BYTE   En3
 BYTE   W01
 BYTE   En3
 BYTE   W01
 BYTE   En3
 BYTE   W01
 BYTE   En3
 BYTE   W01
 BYTE   En3
 BYTE   W01
 BYTE   En3
 BYTE   W01
 BYTE   En3
 BYTE   W01
 BYTE   En3
 BYTE   W01
 BYTE   En3
 BYTE   W01
 BYTE   En3
 BYTE   W01
 BYTE   En3
 BYTE   W01
 BYTE   En3
 BYTE   W01
 BYTE   Fn3
 BYTE   W01
 BYTE   Fs3
 BYTE   W01
 BYTE   Fs3
 BYTE   W01
 BYTE   Fs3
 BYTE   W01
 BYTE   Fn3
 BYTE   W01
 BYTE   En3
 BYTE   W01
 BYTE   En3
 BYTE   W01
 BYTE   Ds3
 BYTE   W01
 BYTE   Dn3
 BYTE   W01
 BYTE   Dn3
 BYTE   W01
 BYTE   Dn3
 BYTE   W01
 BYTE   Ds3
 BYTE   W01
 BYTE   En3
 BYTE   W01
 BYTE   Fn3
 BYTE   W01
 BYTE   Fn3
 BYTE   W01
 BYTE   Fs3
 BYTE   W01
 BYTE   Fs3
 BYTE   W01
 BYTE   Fs3
 BYTE   W01
 BYTE   Fn3
 BYTE   W01
 BYTE   En3
 BYTE   W01
 BYTE   Ds3
 BYTE   W01
 BYTE   Dn3
 BYTE   W01
 BYTE   Dn3
 BYTE   W01
 BYTE   Dn3
 BYTE   W01
 BYTE   Ds3
 BYTE   W01
 BYTE   Ds3
 BYTE   W01
 BYTE   En3
 BYTE   W01
 BYTE   Fn3
 BYTE   W01
 BYTE   Fs3
 BYTE   W01
 BYTE   Fs3
 BYTE   W01
 BYTE   Fs3
 BYTE   W01
 BYTE   Fn3
 BYTE   W01
 BYTE   En3
 BYTE   W01
 BYTE   En3
 BYTE   W01
 BYTE   Ds3
 BYTE   W01
 BYTE   Dn3
 BYTE   W01
 BYTE   Dn3
 BYTE   W01
 BYTE   Dn3
 BYTE   W01
 BYTE   Ds3
 BYTE   W01
 BYTE   En3
 BYTE   W01
 BYTE   Fn3
 BYTE   W01
 BYTE   Fs3
 BYTE   W01
 BYTE   Fs3
 BYTE   W01
 BYTE   Fs3
 BYTE   W01
 BYTE   Fs3
 BYTE   W01
 BYTE   Fn3
 BYTE   W01
 BYTE   En3
 BYTE   W01
 BYTE   Ds3
 BYTE   W01
 BYTE   Dn3
 BYTE   W01
 BYTE   Dn3
 BYTE   W01
 BYTE   Dn3
 BYTE   W01
 BYTE   Dn3
 BYTE   W01
 BYTE   Ds3
 BYTE   W01
 BYTE   En3
 BYTE   W01
 BYTE   Fn3
 BYTE   W01
 BYTE   Fn3
 BYTE   W01
 BYTE   Fn3
 BYTE   W01
 BYTE   Fn3
 BYTE   W01
// 019   ----------------------------------------
 BYTE   En3
 BYTE   N72  Fs3
 BYTE   W01
 BYTE   BEND   c_v+0
 BYTE   W01
 BYTE   En3
 BYTE   W01
 BYTE   En3
 BYTE   W01
 BYTE   En3
 BYTE   W01
 BYTE   En3
 BYTE   W01
 BYTE   En3
 BYTE   W01
 BYTE   En3
 BYTE   W01
 BYTE   En3
 BYTE   W01
 BYTE   En3
 BYTE   W01
 BYTE   En3
 BYTE   W01
 BYTE   En3
 BYTE   W01
 BYTE   En3
 BYTE   W01
 BYTE   En3
 BYTE   W01
 BYTE   Fn3
 BYTE   W01
 BYTE   Fn3
 BYTE   W01
 BYTE   Fs3
 BYTE   W01
 BYTE   Fn3
 BYTE   W01
 BYTE   Fn3
 BYTE   W01
 BYTE   En3
 BYTE   W01
 BYTE   En3
 BYTE   W01
 BYTE   Ds3
 BYTE   W01
 BYTE   Ds3
 BYTE   W01
 BYTE   Dn3
 BYTE   W01
 BYTE   Ds3
 BYTE   W01
 BYTE   Ds3
 BYTE   W01
 BYTE   En3
 BYTE   W01
 BYTE   Fn3
 BYTE   W01
 BYTE   Fn3
 BYTE   W01
 BYTE   Fs3
 BYTE   W01
 BYTE   Fs3
 BYTE   W01
 BYTE   Fn3
 BYTE   W01
 BYTE   Fn3
 BYTE   W01
 BYTE   En3
 BYTE   W01
 BYTE   Ds3
 BYTE   W01
 BYTE   Ds3
 BYTE   W01
 BYTE   Dn3
 BYTE   W01
 BYTE   Ds3
 BYTE   W01
 BYTE   Ds3
 BYTE   W01
 BYTE   Ds3
 BYTE   W01
 BYTE   En3
 BYTE   W01
 BYTE   Fn3
 BYTE   W01
 BYTE   Fn3
 BYTE   W01
 BYTE   Fs3
 BYTE   W01
 BYTE   Fs3
 BYTE   W01
 BYTE   Fn3
 BYTE   W01
 BYTE   En3
 BYTE   W01
 BYTE   En3
 BYTE   W01
 BYTE   Ds3
 BYTE   W01
 BYTE   Dn3
 BYTE   W01
 BYTE   Dn3
 BYTE   W01
 BYTE   Ds3
 BYTE   W01
 BYTE   Ds3
 BYTE   W01
 BYTE   En3
 BYTE   W01
 BYTE   Fn3
 BYTE   W01
 BYTE   Fn3
 BYTE   W01
 BYTE   Fs3
 BYTE   W01
 BYTE   Fs3
 BYTE   W01
 BYTE   Fs3
 BYTE   W01
 BYTE   Fn3
 BYTE   W01
 BYTE   En3
 BYTE   W01
 BYTE   Ds3
 BYTE   W01
 BYTE   Dn3
 BYTE   W01
 BYTE   Dn3
 BYTE   W01
 BYTE   Dn3
 BYTE   W01
 BYTE   Ds3
 BYTE   W01
 BYTE   Ds3
 BYTE   W01
 BYTE   En3
 BYTE   W01
 BYTE   En3
 BYTE   W01
 BYTE   En3
 BYTE   W01
 BYTE   En3
 BYTE   W01
 BYTE   En3
 BYTE   W01
 BYTE   En3
 BYTE   W24
// 020   ----------------------------------------
 BYTE   W96
// 021   ----------------------------------------
 BYTE   W96
// 022   ----------------------------------------
 BYTE   W96
// 023   ----------------------------------------
 BYTE   W96
// 024   ----------------------------------------
 BYTE   W96
// 025   ----------------------------------------
 BYTE   W96
// 026   ----------------------------------------
 BYTE   W96
 BYTE   PATT
  POIN2 Label_3_0149E5B5
// 027   ----------------------------------------
 BYTE   BEND   c_v+0
 BYTE   N48  An3  v096
 BYTE   N48  Cs4
 BYTE   W01
 BYTE   BEND   c_v+0
 BYTE   W01
 BYTE   En3
 BYTE   W01
 BYTE   En3
 BYTE   W01
 BYTE   En3
 BYTE   W01
 BYTE   En3
 BYTE   W01
 BYTE   En3
 BYTE   W01
 BYTE   En3
 BYTE   W01
 BYTE   En3
 BYTE   W01
 BYTE   En3
 BYTE   W01
 BYTE   En3
 BYTE   W01
 BYTE   En3
 BYTE   W01
 BYTE   En3
 BYTE   W01
 BYTE   En3
 BYTE   W01
 BYTE   Fn3
 BYTE   W01
 BYTE   Fn3
 BYTE   W01
 BYTE   Fs3
 BYTE   W01
 BYTE   Fn3
 BYTE   W01
 BYTE   Fn3
 BYTE   W01
 BYTE   En3
 BYTE   W01
 BYTE   En3
 BYTE   W01
 BYTE   Ds3
 BYTE   W01
 BYTE   Ds3
 BYTE   W01
 BYTE   Dn3
 BYTE   W01
 BYTE   Ds3
 BYTE   W01
 BYTE   Ds3
 BYTE   W01
 BYTE   En3
 BYTE   W01
 BYTE   Fn3
 BYTE   W01
 BYTE   Fn3
 BYTE   W01
 BYTE   Fs3
 BYTE   W01
 BYTE   Fs3
 BYTE   W01
 BYTE   Fn3
 BYTE   W01
 BYTE   Fn3
 BYTE   W01
 BYTE   En3
 BYTE   W01
 BYTE   Ds3
 BYTE   W01
 BYTE   Ds3
 BYTE   W01
 BYTE   Dn3
 BYTE   W01
 BYTE   Ds3
 BYTE   W01
 BYTE   Ds3
 BYTE   W01
 BYTE   Ds3
 BYTE   W01
 BYTE   En3
 BYTE   W01
 BYTE   Fn3
 BYTE   W01
 BYTE   Fs3
 BYTE   W01
 BYTE   Fs3
 BYTE   W01
 BYTE   Fs3
 BYTE   W01
 BYTE   Fn3
 BYTE   W01
 BYTE   En3
 BYTE   W01
 BYTE   En3
 BYTE   W01
 BYTE   En3
 BYTE   N18  An3
 BYTE   N18  Cs4
 BYTE   W18
 BYTE   Bn3
 BYTE   N18  Ds4
 BYTE   W18
 BYTE   N12  Cs4
 BYTE   N12  En4
 BYTE   W12
// 028   ----------------------------------------
 BYTE   BEND   c_v+0
 BYTE   N48  An3
 BYTE   N48  Cs4
 BYTE   W01
 BYTE   BEND   c_v+0
 BYTE   W01
 BYTE   En3
 BYTE   W01
 BYTE   En3
 BYTE   W01
 BYTE   En3
 BYTE   W01
 BYTE   En3
 BYTE   W01
 BYTE   En3
 BYTE   W01
 BYTE   En3
 BYTE   W01
 BYTE   En3
 BYTE   W01
 BYTE   En3
 BYTE   W01
 BYTE   En3
 BYTE   W01
 BYTE   En3
 BYTE   W01
 BYTE   En3
 BYTE   W01
 BYTE   En3
 BYTE   W01
 BYTE   Fn3
 BYTE   W01
 BYTE   Fn3
 BYTE   W01
 BYTE   Fn3
 BYTE   W01
 BYTE   Fn3
 BYTE   W01
 BYTE   Fn3
 BYTE   W01
 BYTE   En3
 BYTE   W01
 BYTE   En3
 BYTE   W01
 BYTE   Ds3
 BYTE   W01
 BYTE   Ds3
 BYTE   W01
 BYTE   Ds3
 BYTE   W01
 BYTE   Ds3
 BYTE   W01
 BYTE   Ds3
 BYTE   W01
 BYTE   En3
 BYTE   W01
 BYTE   Fn3
 BYTE   W01
 BYTE   Fn3
 BYTE   W01
 BYTE   Fs3
 BYTE   W01
 BYTE   Fs3
 BYTE   W01
 BYTE   Fn3
 BYTE   W01
 BYTE   Fn3
 BYTE   W01
 BYTE   En3
 BYTE   W01
 BYTE   Ds3
 BYTE   W01
 BYTE   Ds3
 BYTE   W01
 BYTE   Dn3
 BYTE   W01
 BYTE   Dn3
 BYTE   W01
 BYTE   Ds3
 BYTE   W01
 BYTE   Ds3
 BYTE   W01
 BYTE   En3
 BYTE   W01
 BYTE   Fn3
 BYTE   W01
 BYTE   Fs3
 BYTE   W01
 BYTE   Fs3
 BYTE   W01
 BYTE   Fs3
 BYTE   W01
 BYTE   Fs3
 BYTE   W01
 BYTE   En3
 BYTE   W01
 BYTE   En3
 BYTE   W01
 BYTE   En3
 BYTE   N24  Bn3
 BYTE   N24  Ds4
 BYTE   W24
 BYTE   An3
 BYTE   N24  Cs4
 BYTE   W24
// 029   ----------------------------------------
 BYTE   BEND   c_v+0
 BYTE   N48  Gs3
 BYTE   N48  Bn3
 BYTE   W01
 BYTE   BEND   c_v+0
 BYTE   W01
 BYTE   En3
 BYTE   W01
 BYTE   En3
 BYTE   W01
 BYTE   En3
 BYTE   W01
 BYTE   En3
 BYTE   W01
 BYTE   En3
 BYTE   W01
 BYTE   En3
 BYTE   W01
 BYTE   En3
 BYTE   W01
 BYTE   En3
 BYTE   W01
 BYTE   En3
 BYTE   W01
 BYTE   En3
 BYTE   W01
 BYTE   En3
 BYTE   W01
 BYTE   En3
 BYTE   W01
 BYTE   Fn3
 BYTE   W01
 BYTE   Fs3
 BYTE   W01
 BYTE   Fs3
 BYTE   W01
 BYTE   Fs3
 BYTE   W01
 BYTE   Fn3
 BYTE   W01
 BYTE   En3
 BYTE   W01
 BYTE   En3
 BYTE   W01
 BYTE   Ds3
 BYTE   W01
 BYTE   Dn3
 BYTE   W01
 BYTE   Dn3
 BYTE   W01
 BYTE   Dn3
 BYTE   W01
 BYTE   Ds3
 BYTE   W01
 BYTE   En3
 BYTE   W01
 BYTE   Fn3
 BYTE   W01
 BYTE   Fs3
 BYTE   W01
 BYTE   Fs3
 BYTE   W01
 BYTE   Fs3
 BYTE   W01
 BYTE   Fs3
 BYTE   W01
 BYTE   Fn3
 BYTE   W01
 BYTE   En3
 BYTE   W01
 BYTE   Ds3
 BYTE   W01
 BYTE   Dn3
 BYTE   W01
 BYTE   Dn3
 BYTE   W01
 BYTE   Dn3
 BYTE   W01
 BYTE   Dn3
 BYTE   W01
 BYTE   Ds3
 BYTE   W01
 BYTE   En3
 BYTE   W01
 BYTE   Fn3
 BYTE   W01
 BYTE   Fs3
 BYTE   W01
 BYTE   Fs3
 BYTE   W01
 BYTE   Fs3
 BYTE   W01
 BYTE   Fn3
 BYTE   W01
 BYTE   En3
 BYTE   W01
 BYTE   En3
 BYTE   W01
 BYTE   En3
 BYTE   TIE  En3
 BYTE   TIE  Gs3
 BYTE   W01
 BYTE   BEND   c_v+0
 BYTE   W01
 BYTE   En3
 BYTE   W01
 BYTE   En3
 BYTE   W01
 BYTE   En3
 BYTE   W01
 BYTE   En3
 BYTE   W01
 BYTE   En3
 BYTE   W01
 BYTE   En3
 BYTE   W01
 BYTE   En3
 BYTE   W01
 BYTE   En3
 BYTE   W01
 BYTE   En3
 BYTE   W01
 BYTE   En3
 BYTE   W01
 BYTE   En3
 BYTE   W01
 BYTE   En3
 BYTE   W01
 BYTE   Fn3
 BYTE   W01
 BYTE   Fn3
 BYTE   W01
 BYTE   Fs3
 BYTE   W01
 BYTE   Fs3
 BYTE   W01
 BYTE   Fn3
 BYTE   W01
 BYTE   En3
 BYTE   W01
 BYTE   En3
 BYTE   W01
 BYTE   Ds3
 BYTE   W01
 BYTE   Dn3
 BYTE   W01
 BYTE   Dn3
 BYTE   W01
 BYTE   Ds3
 BYTE   W01
 BYTE   Ds3
 BYTE   W01
 BYTE   En3
 BYTE   W01
 BYTE   Fn3
 BYTE   W01
 BYTE   Fn3
 BYTE   W01
 BYTE   Fn3
 BYTE   W01
 BYTE   Fn3
 BYTE   W01
 BYTE   Fn3
 BYTE   W01
 BYTE   Fn3
 BYTE   W01
 BYTE   En3
 BYTE   W01
 BYTE   Ds3
 BYTE   W01
 BYTE   Ds3
 BYTE   W01
 BYTE   Ds3
 BYTE   W01
 BYTE   Ds3
 BYTE   W01
 BYTE   Ds3
 BYTE   W01
 BYTE   Ds3
 BYTE   W01
 BYTE   En3
 BYTE   W01
 BYTE   Fn3
 BYTE   W01
 BYTE   Fs3
 BYTE   W01
 BYTE   Fs3
 BYTE   W01
 BYTE   Fs3
 BYTE   W01
 BYTE   Fs3
 BYTE   W01
 BYTE   En3
 BYTE   W01
 BYTE   En3
 BYTE   W01
// 030   ----------------------------------------
 BYTE   Dn3
 BYTE   W01
 BYTE   Dn3
 BYTE   W01
 BYTE   Dn3
 BYTE   W01
 BYTE   Dn3
 BYTE   W01
 BYTE   Ds3
 BYTE   W01
 BYTE   En3
 BYTE   W01
 BYTE   Fn3
 BYTE   W01
 BYTE   Fn3
 BYTE   W01
 BYTE   Fs3
 BYTE   W01
 BYTE   Fs3
 BYTE   W01
 BYTE   Fn3
 BYTE   W01
 BYTE   Fn3
 BYTE   W01
 BYTE   En3
 BYTE   W01
 BYTE   Ds3
 BYTE   W01
 BYTE   Ds3
 BYTE   W01
 BYTE   Dn3
 BYTE   W01
 BYTE   Ds3
 BYTE   W01
 BYTE   Ds3
 BYTE   W01
 BYTE   Ds3
 BYTE   W01
 BYTE   En3
 BYTE   W01
 BYTE   Fn3
 BYTE   W01
 BYTE   Fn3
 BYTE   W01
 BYTE   Fn3
 BYTE   W01
 BYTE   Fn3
 BYTE   W01
 BYTE   Fn3
 BYTE   W01
 BYTE   En3
 BYTE   W01
 BYTE   En3
 BYTE   W01
 BYTE   Ds3
 BYTE   W01
 BYTE   Ds3
 BYTE   W01
 BYTE   Ds3
 BYTE   W01
 BYTE   Ds3
 BYTE   W01
 BYTE   Ds3
 BYTE   W01
 BYTE   En3
 BYTE   W01
 BYTE   Fn3
 BYTE   W01
 BYTE   Fn3
 BYTE   W01
 BYTE   Fn3
 BYTE   W01
 BYTE   Fn3
 BYTE   W01
 BYTE   Fn3
 BYTE   W01
 BYTE   Fn3
 BYTE   W01
 BYTE   En3
 BYTE   W01
 BYTE   Ds3
 BYTE   W01
 BYTE   Ds3
 BYTE   W01
 BYTE   Ds3
 BYTE   W01
 BYTE   Ds3
 BYTE   W01
 BYTE   Ds3
 BYTE   W01
 BYTE   Ds3
 BYTE   W01
 BYTE   En3
 BYTE   W01
 BYTE   Fn3
 BYTE   W01
 BYTE   Fs3
 BYTE   W01
 BYTE   Fs3
 BYTE   W01
 BYTE   Fs3
 BYTE   W01
 BYTE   Fs3
 BYTE   W01
 BYTE   En3
 BYTE   W01
 BYTE   En3
 BYTE   W01
 BYTE   Dn3
 BYTE   W01
 BYTE   Dn3
 BYTE   W01
 BYTE   Dn3
 BYTE   W01
 BYTE   Dn3
 BYTE   W01
 BYTE   Ds3
 BYTE   W01
 BYTE   En3
 BYTE   W01
 BYTE   En3
 BYTE   W01
 BYTE   Fn3
 BYTE   W01
 BYTE   Fn3
 BYTE   W01
 BYTE   Fn3
 BYTE   W01
 BYTE   Fn3
 BYTE   W01
 BYTE   En3
 BYTE   W01
 BYTE   En3
 BYTE   W01
 BYTE   En3
 BYTE   W01
 BYTE   Ds3
 BYTE   W01
 BYTE   Ds3
 BYTE   W01
 BYTE   Ds3
 BYTE   W01
 BYTE   Ds3
 BYTE   W01
 BYTE   EOT
 BYTE   En3  v068
 BYTE   BEND   c_v+0
 BYTE   W12
 BYTE   N06  An3
 BYTE   N06  Fs4
 BYTE   W06
 BYTE   Gs3
 BYTE   N06  En4
 BYTE   W06
// 031   ----------------------------------------
 BYTE   BEND   c_v+0
 BYTE   N48  An3
 BYTE   N48  Fs4
 BYTE   W01
 BYTE   BEND   c_v+0
 BYTE   W01
 BYTE   En3
 BYTE   W01
 BYTE   En3
 BYTE   W01
 BYTE   En3
 BYTE   W01
 BYTE   En3
 BYTE   W01
 BYTE   En3
 BYTE   W01
 BYTE   En3
 BYTE   W01
 BYTE   En3
 BYTE   W01
 BYTE   En3
 BYTE   W01
 BYTE   En3
 BYTE   W01
 BYTE   En3
 BYTE   W01
 BYTE   En3
 BYTE   W01
 BYTE   En3
 BYTE   W01
 BYTE   Fn3
 BYTE   W01
 BYTE   Fn3
 BYTE   W01
 BYTE   Fs3
 BYTE   W01
 BYTE   Fs3
 BYTE   W01
 BYTE   Fn3
 BYTE   W01
 BYTE   En3
 BYTE   W01
 BYTE   En3
 BYTE   W01
 BYTE   Ds3
 BYTE   W01
 BYTE   Dn3
 BYTE   W01
 BYTE   Dn3
 BYTE   W01
 BYTE   Ds3
 BYTE   W01
 BYTE   Ds3
 BYTE   W01
 BYTE   En3
 BYTE   W01
 BYTE   Fn3
 BYTE   W01
 BYTE   Fn3
 BYTE   W01
 BYTE   Fn3
 BYTE   W01
 BYTE   Fn3
 BYTE   W01
 BYTE   Fn3
 BYTE   W01
 BYTE   Fn3
 BYTE   W01
 BYTE   En3
 BYTE   W01
 BYTE   Ds3
 BYTE   W01
 BYTE   Ds3
 BYTE   W01
 BYTE   Ds3
 BYTE   W01
 BYTE   Ds3
 BYTE   W01
 BYTE   Ds3
 BYTE   W01
 BYTE   Ds3
 BYTE   W01
 BYTE   En3
 BYTE   W01
 BYTE   Fn3
 BYTE   W01
 BYTE   Fs3
 BYTE   W01
 BYTE   Fs3
 BYTE   W01
 BYTE   Fs3
 BYTE   W01
 BYTE   Fn3
 BYTE   W01
 BYTE   En3
 BYTE   W01
 BYTE   En3
 BYTE   W01
 BYTE   En3
 BYTE   N18  An3
 BYTE   N18  Fs4
 BYTE   W18
 BYTE   Bn3
 BYTE   N18  Gs4
 BYTE   W18
 BYTE   N12  Cs4
 BYTE   N12  An4
 BYTE   W12
// 032   ----------------------------------------
 BYTE   BEND   c_v+0
 BYTE   N48  An3
 BYTE   N48  Fs4
 BYTE   W01
 BYTE   BEND   c_v+0
 BYTE   W01
 BYTE   En3
 BYTE   W01
 BYTE   En3
 BYTE   W01
 BYTE   En3
 BYTE   W01
 BYTE   En3
 BYTE   W01
 BYTE   En3
 BYTE   W01
 BYTE   En3
 BYTE   W01
 BYTE   En3
 BYTE   W01
 BYTE   En3
 BYTE   W01
 BYTE   En3
 BYTE   W01
 BYTE   En3
 BYTE   W01
 BYTE   En3
 BYTE   W01
 BYTE   En3
 BYTE   W01
 BYTE   Fn3
 BYTE   W01
 BYTE   Fn3
 BYTE   W01
 BYTE   Fs3
 BYTE   W01
 BYTE   Fs3
 BYTE   W01
 BYTE   Fn3
 BYTE   W01
 BYTE   En3
 BYTE   W01
 BYTE   En3
 BYTE   W01
 BYTE   Ds3
 BYTE   W01
 BYTE   Dn3
 BYTE   W01
 BYTE   Dn3
 BYTE   W01
 BYTE   Ds3
 BYTE   W01
 BYTE   Ds3
 BYTE   W01
 BYTE   En3
 BYTE   W01
 BYTE   Fn3
 BYTE   W01
 BYTE   Fn3
 BYTE   W01
 BYTE   Fn3
 BYTE   W01
 BYTE   Fn3
 BYTE   W01
 BYTE   Fn3
 BYTE   W01
 BYTE   Fn3
 BYTE   W01
 BYTE   En3
 BYTE   W01
 BYTE   Ds3
 BYTE   W01
 BYTE   Ds3
 BYTE   W01
 BYTE   Ds3
 BYTE   W01
 BYTE   Ds3
 BYTE   W01
 BYTE   Ds3
 BYTE   W01
 BYTE   Ds3
 BYTE   W01
 BYTE   En3
 BYTE   W01
 BYTE   Fn3
 BYTE   W01
 BYTE   Fn3
 BYTE   W01
 BYTE   Fs3
 BYTE   W01
 BYTE   Fs3
 BYTE   W01
 BYTE   Fn3
 BYTE   W01
 BYTE   En3
 BYTE   W01
 BYTE   En3
 BYTE   W01
 BYTE   En3
 BYTE   N24  Bn3
 BYTE   N24  Gs4
 BYTE   W24
 BYTE   An3
 BYTE   N24  Fs4
 BYTE   W24
// 033   ----------------------------------------
 BYTE   N06  Gs3
 BYTE   N96  Ds4
 BYTE   W06
 BYTE   N06  An3
 BYTE   W06
 BYTE   Gs3
 BYTE   W06
 BYTE   Fs3
 BYTE   W06
 BYTE   BEND   c_v+0
 BYTE   N72  Gs3
 BYTE   W01
 BYTE   BEND   c_v+0
 BYTE   W01
 BYTE   En3
 BYTE   W01
 BYTE   En3
 BYTE   W01
 BYTE   En3
 BYTE   W01
 BYTE   En3
 BYTE   W01
 BYTE   En3
 BYTE   W01
 BYTE   En3
 BYTE   W01
 BYTE   En3
 BYTE   W01
 BYTE   En3
 BYTE   W01
 BYTE   En3
 BYTE   W01
 BYTE   En3
 BYTE   W01
 BYTE   En3
 BYTE   W01
 BYTE   En3
 BYTE   W01
 BYTE   Fn3
 BYTE   W01
 BYTE   Fs3
 BYTE   W01
 BYTE   Fs3
 BYTE   W01
 BYTE   Fs3
 BYTE   W01
 BYTE   Fs3
 BYTE   W01
 BYTE   En3
 BYTE   W01
 BYTE   En3
 BYTE   W01
 BYTE   Dn3
 BYTE   W01
 BYTE   Dn3
 BYTE   W01
 BYTE   Dn3
 BYTE   W01
 BYTE   Dn3
 BYTE   W01
 BYTE   Ds3
 BYTE   W01
 BYTE   En3
 BYTE   W01
 BYTE   Fn3
 BYTE   W01
 BYTE   Fn3
 BYTE   W01
 BYTE   Fn3
 BYTE   W01
 BYTE   Fn3
 BYTE   W01
 BYTE   Fn3
 BYTE   W01
 BYTE   Fn3
 BYTE   W01
 BYTE   En3
 BYTE   W01
 BYTE   Ds3
 BYTE   W01
 BYTE   Ds3
 BYTE   W01
 BYTE   Ds3
 BYTE   W01
 BYTE   Ds3
 BYTE   W01
 BYTE   Ds3
 BYTE   W01
 BYTE   Ds3
 BYTE   W01
 BYTE   En3
 BYTE   W01
 BYTE   Fn3
 BYTE   W01
 BYTE   Fs3
 BYTE   W01
 BYTE   Fs3
 BYTE   W01
 BYTE   Fs3
 BYTE   W01
 BYTE   Fs3
 BYTE   W01
 BYTE   En3
 BYTE   W01
 BYTE   En3
 BYTE   W01
 BYTE   Dn3
 BYTE   W01
 BYTE   Dn3
 BYTE   W01
 BYTE   Dn3
 BYTE   W01
 BYTE   Dn3
 BYTE   W01
 BYTE   Ds3
 BYTE   W01
 BYTE   En3
 BYTE   W01
 BYTE   Fn3
 BYTE   W01
 BYTE   Fn3
 BYTE   W01
 BYTE   Fn3
 BYTE   W01
 BYTE   Fn3
 BYTE   W01
 BYTE   Fn3
 BYTE   W01
 BYTE   Fn3
 BYTE   W01
 BYTE   En3
 BYTE   W01
 BYTE   Ds3
 BYTE   W01
 BYTE   Ds3
 BYTE   W01
 BYTE   Ds3
 BYTE   W01
 BYTE   Ds3
 BYTE   W01
 BYTE   Ds3
 BYTE   W01
 BYTE   Ds3
 BYTE   W01
 BYTE   En3
 BYTE   W01
 BYTE   En3
 BYTE   W01
 BYTE   En3
 BYTE   W01
 BYTE   Fn3
 BYTE   W01
 BYTE   Fn3
 BYTE   W01
// 034   ----------------------------------------
 BYTE   En3
 BYTE   N72  Fs3
 BYTE   W01
 BYTE   BEND   c_v+0
 BYTE   W01
 BYTE   En3
 BYTE   W01
 BYTE   En3
 BYTE   W01
 BYTE   En3
 BYTE   W01
 BYTE   En3
 BYTE   W01
 BYTE   En3
 BYTE   W01
 BYTE   En3
 BYTE   W01
 BYTE   En3
 BYTE   W01
 BYTE   En3
 BYTE   W01
 BYTE   En3
 BYTE   W01
 BYTE   En3
 BYTE   W01
 BYTE   En3
 BYTE   W01
 BYTE   En3
 BYTE   W01
 BYTE   Fn3
 BYTE   W01
 BYTE   Fn3
 BYTE   W01
 BYTE   Fs3
 BYTE   W01
 BYTE   Fs3
 BYTE   W01
 BYTE   Fn3
 BYTE   W01
 BYTE   En3
 BYTE   W01
 BYTE   En3
 BYTE   W01
 BYTE   Ds3
 BYTE   W01
 BYTE   Dn3
 BYTE   W01
 BYTE   Dn3
 BYTE   W01
 BYTE   Ds3
 BYTE   W01
 BYTE   Ds3
 BYTE   W01
 BYTE   En3
 BYTE   W01
 BYTE   Fn3
 BYTE   W01
 BYTE   Fn3
 BYTE   W01
 BYTE   Fs3
 BYTE   W01
 BYTE   Fs3
 BYTE   W01
 BYTE   Fs3
 BYTE   W01
 BYTE   Fn3
 BYTE   W01
 BYTE   En3
 BYTE   W01
 BYTE   Ds3
 BYTE   W01
 BYTE   Dn3
 BYTE   W01
 BYTE   Dn3
 BYTE   W01
 BYTE   Dn3
 BYTE   W01
 BYTE   Ds3
 BYTE   W01
 BYTE   Ds3
 BYTE   W01
 BYTE   En3
 BYTE   W01
 BYTE   Fn3
 BYTE   W01
 BYTE   Fn3
 BYTE   W01
 BYTE   Fs3
 BYTE   W01
 BYTE   Fs3
 BYTE   W01
 BYTE   Fn3
 BYTE   W01
 BYTE   En3
 BYTE   W01
 BYTE   En3
 BYTE   W01
 BYTE   Ds3
 BYTE   W01
 BYTE   Dn3
 BYTE   W01
 BYTE   Dn3
 BYTE   W01
 BYTE   Ds3
 BYTE   W01
 BYTE   Ds3
 BYTE   W01
 BYTE   En3
 BYTE   W01
 BYTE   Fn3
 BYTE   W01
 BYTE   Fn3
 BYTE   W01
 BYTE   Fs3
 BYTE   W01
 BYTE   Fs3
 BYTE   W01
 BYTE   Fn3
 BYTE   W01
 BYTE   Fn3
 BYTE   W01
 BYTE   En3
 BYTE   W01
 BYTE   Ds3
 BYTE   W01
 BYTE   Ds3
 BYTE   W01
 BYTE   Dn3
 BYTE   W01
 BYTE   Dn3
 BYTE   W01
 BYTE   Ds3
 BYTE   W01
 BYTE   Ds3
 BYTE   W01
 BYTE   En3
 BYTE   W01
 BYTE   Fn3
 BYTE   W01
 BYTE   Fn3
 BYTE   W01
 BYTE   Fn3
 BYTE   W01
 BYTE   Fn3
 BYTE   W01
 BYTE   En3
 BYTE   W24
// 035   ----------------------------------------
 BYTE   VOL   126*KirbyDreamLand2CootheOwlPandan_mvl/mxv
 BYTE   W06
 BYTE   En8
 BYTE   W06
 BYTE   Dn8
 BYTE   W06
 BYTE   Cn8
 BYTE   W06
 BYTE   As7
 BYTE   W06
 BYTE   Gs7
 BYTE   W06
 BYTE   Fs7
 BYTE   W06
 BYTE   En7
 BYTE   W06
 BYTE   Dn7
 BYTE   W06
 BYTE   Cn7
 BYTE   W06
 BYTE   As6
 BYTE   W06
 BYTE   Gs6
 BYTE   W06
 BYTE   Fs6
 BYTE   W06
 BYTE   En6
 BYTE   W06
 BYTE   Dn6
 BYTE   W06
 BYTE   Cn6
 BYTE   W06
// 036   ----------------------------------------
 BYTE   Bn5
 BYTE   W06
 BYTE   An5
 BYTE   W06
 BYTE   Gn5
 BYTE   W06
 BYTE   Fn5
 BYTE   W06
 BYTE   Ds5
 BYTE   W06
 BYTE   Cs5
 BYTE   W06
 BYTE   Bn4
 BYTE   W06
 BYTE   An4
 BYTE   W06
 BYTE   Gn4
 BYTE   W06
 BYTE   Fn4
 BYTE   W06
 BYTE   Ds4
 BYTE   W06
 BYTE   Cs4
 BYTE   W06
 BYTE   Bn3
 BYTE   W06
 BYTE   An3
 BYTE   W06
 BYTE   Gn3
 BYTE   W06
 BYTE   Fn3
 BYTE   W06
// 037   ----------------------------------------
 BYTE   Ds3
 BYTE   W06
 BYTE   Cs3
 BYTE   W06
 BYTE   Bn2
 BYTE   W06
 BYTE   An2
 BYTE   W06
 BYTE   Gn2
 BYTE   W06
 BYTE   Fn2
 BYTE   W06
 BYTE   Ds2
 BYTE   W06
 BYTE   Cs2
 BYTE   W06
 BYTE   Bn1
 BYTE   W06
 BYTE   An1
 BYTE   W06
 BYTE   Gn1
 BYTE   W06
 BYTE   Fn1
 BYTE   W06
 BYTE   Ds1
 BYTE   W06
 BYTE   Cs1
 BYTE   W06
 BYTE   Bn0
 BYTE   W06
 BYTE   An0
 BYTE   W06
// 038   ----------------------------------------
 BYTE   Gs0
 BYTE   W06
 BYTE   Fs0
 BYTE   W06
 BYTE   En0
 BYTE   W06
 BYTE   Dn0
 BYTE   W06
 BYTE   Cn0
 BYTE   W06
 BYTE   AsM1
 BYTE   W06
 BYTE   GsM1
 BYTE   W06
 BYTE   FsM1
 BYTE   W06
 BYTE   EnM1
 BYTE   W06
 BYTE   DnM1
 BYTE   W06
 BYTE   CnM1
 BYTE   W06
 BYTE   AsM2
 BYTE   W06
 BYTE   GsM2
 BYTE   W06
 BYTE   FsM2
 BYTE   W06
 BYTE   EnM2
 BYTE   W06
 BYTE   DnM2
 BYTE   W06
// 039   ----------------------------------------
 BYTE   CnM2
 BYTE   FINE

//**************** Track 5 (Midi-Chn.4) ****************//

KirbyDreamLand2CootheOwlPandan_005:
// 000   ----------------------------------------
 BYTE   KEYSH   KirbyDreamLand2CootheOwlPandan_key+0
 BYTE   VOICE   36
 BYTE   VOL   96*KirbyDreamLand2CootheOwlPandan_mvl/mxv
 BYTE   PAN   c_v-16
 BYTE   BEND   c_v+0
 BYTE   N12  Cs2  v096
 BYTE   W12
 BYTE   N06
 BYTE   W06
 BYTE   N06
 BYTE   W06
 BYTE   N12
 BYTE   W12
 BYTE   N06
 BYTE   W06
 BYTE   N06
 BYTE   W06
 BYTE   N12
 BYTE   W12
 BYTE   N06
 BYTE   W06
 BYTE   N06
 BYTE   W06
 BYTE   N12
 BYTE   W12
 BYTE   N06
 BYTE   W06
 BYTE   N06
 BYTE   W06
// 001   ----------------------------------------
Label_4_0149EF48:
 BYTE   N12  Cs2  v096
 BYTE   W12
 BYTE   N06
 BYTE   W06
 BYTE   N06
 BYTE   W06
 BYTE   N12
 BYTE   W12
 BYTE   N06
 BYTE   W06
 BYTE   N06
 BYTE   W06
 BYTE   N12
 BYTE   W12
 BYTE   N06
 BYTE   W06
 BYTE   N06
 BYTE   W06
 BYTE   N12
 BYTE   W12
 BYTE   N06
 BYTE   W06
 BYTE   N06
 BYTE   W06
 BYTE   PEND 
 BYTE   PATT
  POIN2 Label_4_0149EF48
// 002   ----------------------------------------
 BYTE   N12  Cs2  v096
 BYTE   W12
 BYTE   N06
 BYTE   W06
 BYTE   N06
 BYTE   W06
 BYTE   N12
 BYTE   W12
 BYTE   N06
 BYTE   W06
 BYTE   N06
 BYTE   W06
 BYTE   N12  Gs2
 BYTE   W12
 BYTE   Fs2
 BYTE   W12
 BYTE   En2
 BYTE   W12
 BYTE   Ds2
 BYTE   W12
// 003   ----------------------------------------
Label_4_0149EF7F:
 BYTE   N18  Cs2  v096
 BYTE   W24
 BYTE   Gs1
 BYTE   W24
 BYTE   Cs2
 BYTE   W24
 BYTE   Gs1
 BYTE   W24
 BYTE   PEND 
// 004   ----------------------------------------
Label_4_0149EF8A:
 BYTE   N18  Fs1  v096
 BYTE   W24
 BYTE   Cs2
 BYTE   W24
 BYTE   Fs1
 BYTE   W24
 BYTE   Cs2
 BYTE   W24
 BYTE   PEND 
 BYTE   PATT
  POIN2 Label_4_0149EF7F
 BYTE   PATT
  POIN2 Label_4_0149EF7F
 BYTE   PATT
  POIN2 Label_4_0149EF7F
 BYTE   PATT
  POIN2 Label_4_0149EF8A
// 005   ----------------------------------------
Label_4_0149EFA9:
 BYTE   N18  Gs1  v096
 BYTE   W24
 BYTE   Ds2
 BYTE   W24
 BYTE   Gs1
 BYTE   W24
 BYTE   Ds2
 BYTE   W24
 BYTE   PEND 
// 006   ----------------------------------------
Label_4_0149EFB4:
 BYTE   N18  Gs1  v096
 BYTE   W24
 BYTE   Fs2
 BYTE   W24
 BYTE   Gs1
 BYTE   W24
 BYTE   Fs2
 BYTE   W24
 BYTE   PEND 
// 007   ----------------------------------------
Label_4_0149EFBF:
 BYTE   N12  An1  v096
 BYTE   W12
 BYTE   N06  Gs2
 BYTE   W06
 BYTE   An2
 BYTE   W06
 BYTE   N12  An1
 BYTE   W12
 BYTE   N06  Gs2
 BYTE   W06
 BYTE   An2
 BYTE   W06
 BYTE   N12  An1
 BYTE   W12
 BYTE   N06  Gs2
 BYTE   W06
 BYTE   An2
 BYTE   W06
 BYTE   An1
 BYTE   W06
 BYTE   N06
 BYTE   W06
 BYTE   An2
 BYTE   W06
 BYTE   En1
 BYTE   W06
 BYTE   PEND 
 BYTE   PATT
  POIN2 Label_4_0149EFBF
// 008   ----------------------------------------
Label_4_0149EFE6:
 BYTE   N12  En1  v096
 BYTE   W12
 BYTE   N06  Ds2
 BYTE   W06
 BYTE   En2
 BYTE   W06
 BYTE   N12  En1
 BYTE   W12
 BYTE   N06  Ds2
 BYTE   W06
 BYTE   En2
 BYTE   W06
 BYTE   N12  En1
 BYTE   W12
 BYTE   N06  Ds2
 BYTE   W06
 BYTE   En2
 BYTE   W06
 BYTE   En1
 BYTE   W06
 BYTE   N06
 BYTE   W06
 BYTE   En2
 BYTE   W06
 BYTE   Bn0
 BYTE   W06
 BYTE   PEND 
 BYTE   PATT
  POIN2 Label_4_0149EFE6
// 009   ----------------------------------------
Label_4_0149F00D:
 BYTE   N12  Fs1  v096
 BYTE   W12
 BYTE   N06  En2
 BYTE   W06
 BYTE   Fs2
 BYTE   W06
 BYTE   N12  Fs1
 BYTE   W12
 BYTE   N06  En2
 BYTE   W06
 BYTE   Fs2
 BYTE   W06
 BYTE   N12  Fs1
 BYTE   W12
 BYTE   N06  En2
 BYTE   W06
 BYTE   Fs2
 BYTE   W06
 BYTE   Fs1
 BYTE   W06
 BYTE   N06
 BYTE   W06
 BYTE   Fs2
 BYTE   W06
 BYTE   Cs2
 BYTE   W06
 BYTE   PEND 
 BYTE   PATT
  POIN2 Label_4_0149F00D
 BYTE   PATT
  POIN2 Label_4_0149EFA9
 BYTE   PATT
  POIN2 Label_4_0149EFA9
 BYTE   PATT
  POIN2 Label_4_0149EF7F
 BYTE   PATT
  POIN2 Label_4_0149EF8A
 BYTE   PATT
  POIN2 Label_4_0149EF7F
 BYTE   PATT
  POIN2 Label_4_0149EF7F
 BYTE   PATT
  POIN2 Label_4_0149EF7F
 BYTE   PATT
  POIN2 Label_4_0149EF8A
 BYTE   PATT
  POIN2 Label_4_0149EFA9
 BYTE   PATT
  POIN2 Label_4_0149EFB4
 BYTE   PATT
  POIN2 Label_4_0149EFBF
 BYTE   PATT
  POIN2 Label_4_0149EFBF
 BYTE   PATT
  POIN2 Label_4_0149EFE6
 BYTE   PATT
  POIN2 Label_4_0149EFE6
 BYTE   PATT
  POIN2 Label_4_0149F00D
 BYTE   PATT
  POIN2 Label_4_0149F00D
 BYTE   PATT
  POIN2 Label_4_0149EFA9
 BYTE   PATT
  POIN2 Label_4_0149EFA9
// 010   ----------------------------------------
 BYTE   VOL   95*KirbyDreamLand2CootheOwlPandan_mvl/mxv
 BYTE   N18  Cs2  v096
 BYTE   W06
 BYTE   VOL   93*KirbyDreamLand2CootheOwlPandan_mvl/mxv
 BYTE   W06
 BYTE   Gs5
 BYTE   W06
 BYTE   Fs5
 BYTE   W06
 BYTE   Fn5
 BYTE   N18  Gs1
 BYTE   W06
 BYTE   VOL   87*KirbyDreamLand2CootheOwlPandan_mvl/mxv
 BYTE   W06
 BYTE   Dn5
 BYTE   W06
 BYTE   Cn5
 BYTE   W06
 BYTE   Bn4
 BYTE   N18  Cs2
 BYTE   W06
 BYTE   VOL   81*KirbyDreamLand2CootheOwlPandan_mvl/mxv
 BYTE   W06
 BYTE   Gs4
 BYTE   W06
 BYTE   Fs4
 BYTE   W06
 BYTE   Fn4
 BYTE   N18  Gs1
 BYTE   W06
 BYTE   VOL   75*KirbyDreamLand2CootheOwlPandan_mvl/mxv
 BYTE   W06
 BYTE   Dn4
 BYTE   W06
 BYTE   Cn4
 BYTE   W06
// 011   ----------------------------------------
 BYTE   Bn3
 BYTE   N18  Fs1
 BYTE   W06
 BYTE   VOL   69*KirbyDreamLand2CootheOwlPandan_mvl/mxv
 BYTE   W06
 BYTE   Gs3
 BYTE   W06
 BYTE   Fs3
 BYTE   W06
 BYTE   Fn3
 BYTE   N18  Cs2
 BYTE   W06
 BYTE   VOL   64*KirbyDreamLand2CootheOwlPandan_mvl/mxv
 BYTE   W06
 BYTE   Dn3
 BYTE   W06
 BYTE   Cs3
 BYTE   W06
 BYTE   Bn2
 BYTE   N18  Fs1
 BYTE   W06
 BYTE   VOL   58*KirbyDreamLand2CootheOwlPandan_mvl/mxv
 BYTE   W06
 BYTE   Gs2
 BYTE   W06
 BYTE   Gn2
 BYTE   W06
 BYTE   Fn2
 BYTE   N18  Cs2
 BYTE   W06
 BYTE   VOL   52*KirbyDreamLand2CootheOwlPandan_mvl/mxv
 BYTE   W06
 BYTE   Dn2
 BYTE   W06
 BYTE   Cs2
 BYTE   W06
// 012   ----------------------------------------
 BYTE   Bn1
 BYTE   N18
 BYTE   W06
 BYTE   VOL   46*KirbyDreamLand2CootheOwlPandan_mvl/mxv
 BYTE   W06
 BYTE   Gs1
 BYTE   W06
 BYTE   Gn1
 BYTE   W06
 BYTE   Fn1
 BYTE   N18  Gs1
 BYTE   W06
 BYTE   VOL   40*KirbyDreamLand2CootheOwlPandan_mvl/mxv
 BYTE   W06
 BYTE   Dn1
 BYTE   W06
 BYTE   Cs1
 BYTE   W06
 BYTE   Bn0
 BYTE   N18  Cs2
 BYTE   W06
 BYTE   VOL   34*KirbyDreamLand2CootheOwlPandan_mvl/mxv
 BYTE   W06
 BYTE   Gs0
 BYTE   W06
 BYTE   Gn0
 BYTE   W06
 BYTE   Fs0
 BYTE   N18  Gs1
 BYTE   W06
 BYTE   VOL   28*KirbyDreamLand2CootheOwlPandan_mvl/mxv
 BYTE   W06
 BYTE   Ds0
 BYTE   W06
 BYTE   Cs0
 BYTE   W06
// 013   ----------------------------------------
 BYTE   Cn0
 BYTE   N18  Cs2
 BYTE   W06
 BYTE   VOL   22*KirbyDreamLand2CootheOwlPandan_mvl/mxv
 BYTE   W06
 BYTE   AnM1
 BYTE   W06
 BYTE   GnM1
 BYTE   W06
 BYTE   FsM1
 BYTE   N18  Gs1
 BYTE   W06
 BYTE   VOL   16*KirbyDreamLand2CootheOwlPandan_mvl/mxv
 BYTE   W06
 BYTE   DsM1
 BYTE   W06
 BYTE   CsM1
 BYTE   W06
 BYTE   CnM1
 BYTE   N18  Cs2
 BYTE   W06
 BYTE   VOL   10*KirbyDreamLand2CootheOwlPandan_mvl/mxv
 BYTE   W06
 BYTE   AnM2
 BYTE   W06
 BYTE   GnM2
 BYTE   W06
 BYTE   FsM2
 BYTE   N18  Gs1
 BYTE   W06
 BYTE   VOL   4*KirbyDreamLand2CootheOwlPandan_mvl/mxv
 BYTE   W06
 BYTE   DsM2
 BYTE   W06
 BYTE   CsM2
 BYTE   W06
// 014   ----------------------------------------
 BYTE   CnM2
 BYTE   FINE

//**************** Track 6 (Midi-Chn.5) ****************//

KirbyDreamLand2CootheOwlPandan_006:
// 000   ----------------------------------------
 BYTE   KEYSH   KirbyDreamLand2CootheOwlPandan_key+0
 BYTE   VOICE   127
 BYTE   VOL   96*KirbyDreamLand2CootheOwlPandan_mvl/mxv
 BYTE   PAN   c_v-16
 BYTE   BEND   c_v+0
 BYTE   N24  Bn0  v096
 BYTE   N12  Fs1
 BYTE   W12
 BYTE   N06
 BYTE   W06
 BYTE   N06
 BYTE   W06
 BYTE   N24  Bn0
 BYTE   N12  Fs1
 BYTE   W12
 BYTE   N06
 BYTE   W06
 BYTE   N06
 BYTE   W06
 BYTE   N24  Bn0
 BYTE   N12  Fs1
 BYTE   W12
 BYTE   N06
 BYTE   W06
 BYTE   N06
 BYTE   W06
 BYTE   N24  Bn0
 BYTE   N12  Fs1
 BYTE   W12
 BYTE   N06
 BYTE   W06
 BYTE   N06
 BYTE   W06
// 001   ----------------------------------------
Label_5_0149F173:
 BYTE   N24  Bn0  v096
 BYTE   N12  Fs1
 BYTE   W12
 BYTE   N06
 BYTE   W06
 BYTE   N06
 BYTE   W06
 BYTE   N24  Bn0
 BYTE   N12  Fs1
 BYTE   W12
 BYTE   N06
 BYTE   W06
 BYTE   N06
 BYTE   W06
 BYTE   N24  Bn0
 BYTE   N12  Fs1
 BYTE   W12
 BYTE   N06
 BYTE   W06
 BYTE   N06
 BYTE   W06
 BYTE   N24  Bn0
 BYTE   N12  Fs1
 BYTE   W12
 BYTE   N06
 BYTE   W06
 BYTE   N06
 BYTE   W06
 BYTE   PEND 
 BYTE   PATT
  POIN2 Label_5_0149F173
 BYTE   PATT
  POIN2 Label_5_0149F173
// 002   ----------------------------------------
Label_5_0149F1A3:
 BYTE   N24  Bn0  v096
 BYTE   N12  Fs1
 BYTE   W12
 BYTE   N06
 BYTE   W06
 BYTE   N06
 BYTE   W06
 BYTE   N24  En1
 BYTE   W12
 BYTE   N06  Fs1
 BYTE   W06
 BYTE   N06
 BYTE   W06
 BYTE   N24  Bn0
 BYTE   N12  Fs1
 BYTE   W12
 BYTE   N06
 BYTE   W06
 BYTE   N06
 BYTE   W06
 BYTE   N24  En1
 BYTE   W12
 BYTE   N06  Fs1
 BYTE   W06
 BYTE   N06
 BYTE   W06
 BYTE   PEND 
 BYTE   PATT
  POIN2 Label_5_0149F1A3
 BYTE   PATT
  POIN2 Label_5_0149F1A3
 BYTE   PATT
  POIN2 Label_5_0149F1A3
 BYTE   PATT
  POIN2 Label_5_0149F1A3
 BYTE   PATT
  POIN2 Label_5_0149F1A3
 BYTE   PATT
  POIN2 Label_5_0149F1A3
 BYTE   PATT
  POIN2 Label_5_0149F1A3
// 003   ----------------------------------------
Label_5_0149F1EA:
 BYTE   N24  Bn0  v096
 BYTE   N12  Fs1
 BYTE   W12
 BYTE   N06
 BYTE   W06
 BYTE   N06
 BYTE   W06
 BYTE   N24  Bn0
 BYTE   N12  Fs1
 BYTE   W12
 BYTE   N06
 BYTE   W06
 BYTE   N06
 BYTE   W06
 BYTE   N24  Bn0
 BYTE   N12  Fs1
 BYTE   W12
 BYTE   N06
 BYTE   W06
 BYTE   N06
 BYTE   W06
 BYTE   N24  Bn0
 BYTE   N06  Fs1
 BYTE   W06
 BYTE   N06
 BYTE   W06
 BYTE   N06
 BYTE   W06
 BYTE   N06
 BYTE   W06
 BYTE   PEND 
 BYTE   PATT
  POIN2 Label_5_0149F1EA
 BYTE   PATT
  POIN2 Label_5_0149F1EA
 BYTE   PATT
  POIN2 Label_5_0149F1EA
 BYTE   PATT
  POIN2 Label_5_0149F1EA
 BYTE   PATT
  POIN2 Label_5_0149F1EA
 BYTE   PATT
  POIN2 Label_5_0149F1A3
 BYTE   PATT
  POIN2 Label_5_0149F1A3
 BYTE   PATT
  POIN2 Label_5_0149F1A3
 BYTE   PATT
  POIN2 Label_5_0149F1A3
 BYTE   PATT
  POIN2 Label_5_0149F1A3
 BYTE   PATT
  POIN2 Label_5_0149F1A3
 BYTE   PATT
  POIN2 Label_5_0149F1A3
 BYTE   PATT
  POIN2 Label_5_0149F1A3
 BYTE   PATT
  POIN2 Label_5_0149F1A3
 BYTE   PATT
  POIN2 Label_5_0149F1A3
 BYTE   PATT
  POIN2 Label_5_0149F1EA
 BYTE   PATT
  POIN2 Label_5_0149F1EA
 BYTE   PATT
  POIN2 Label_5_0149F1EA
 BYTE   PATT
  POIN2 Label_5_0149F1EA
 BYTE   PATT
  POIN2 Label_5_0149F1EA
 BYTE   PATT
  POIN2 Label_5_0149F1EA
 BYTE   PATT
  POIN2 Label_5_0149F1A3
 BYTE   PATT
  POIN2 Label_5_0149F1A3
// 004   ----------------------------------------
 BYTE   VOL   95*KirbyDreamLand2CootheOwlPandan_mvl/mxv
 BYTE   N24  Bn0  v096
 BYTE   N12  Fs1
 BYTE   W06
 BYTE   VOL   93*KirbyDreamLand2CootheOwlPandan_mvl/mxv
 BYTE   W06
 BYTE   Gs5
 BYTE   N06
 BYTE   W06
 BYTE   VOL   90*KirbyDreamLand2CootheOwlPandan_mvl/mxv
 BYTE   N06
 BYTE   W06
 BYTE   VOL   89*KirbyDreamLand2CootheOwlPandan_mvl/mxv
 BYTE   N24  En1
 BYTE   W06
 BYTE   VOL   87*KirbyDreamLand2CootheOwlPandan_mvl/mxv
 BYTE   W06
 BYTE   Dn5
 BYTE   N06  Fs1
 BYTE   W06
 BYTE   VOL   84*KirbyDreamLand2CootheOwlPandan_mvl/mxv
 BYTE   N06
 BYTE   W06
 BYTE   VOL   83*KirbyDreamLand2CootheOwlPandan_mvl/mxv
 BYTE   N24  Bn0
 BYTE   N12  Fs1
 BYTE   W06
 BYTE   VOL   81*KirbyDreamLand2CootheOwlPandan_mvl/mxv
 BYTE   W06
 BYTE   Gs4
 BYTE   N06
 BYTE   W06
 BYTE   VOL   78*KirbyDreamLand2CootheOwlPandan_mvl/mxv
 BYTE   N06
 BYTE   W06
 BYTE   VOL   77*KirbyDreamLand2CootheOwlPandan_mvl/mxv
 BYTE   N24  En1
 BYTE   W06
 BYTE   VOL   75*KirbyDreamLand2CootheOwlPandan_mvl/mxv
 BYTE   W06
 BYTE   Dn4
 BYTE   N06  Fs1
 BYTE   W06
 BYTE   VOL   72*KirbyDreamLand2CootheOwlPandan_mvl/mxv
 BYTE   N06
 BYTE   W06
// 005   ----------------------------------------
 BYTE   VOL   71*KirbyDreamLand2CootheOwlPandan_mvl/mxv
 BYTE   N24  Bn0
 BYTE   N12  Fs1
 BYTE   W06
 BYTE   VOL   69*KirbyDreamLand2CootheOwlPandan_mvl/mxv
 BYTE   W06
 BYTE   Gs3
 BYTE   N06
 BYTE   W06
 BYTE   VOL   66*KirbyDreamLand2CootheOwlPandan_mvl/mxv
 BYTE   N06
 BYTE   W06
 BYTE   VOL   65*KirbyDreamLand2CootheOwlPandan_mvl/mxv
 BYTE   N24  En1
 BYTE   W06
 BYTE   VOL   64*KirbyDreamLand2CootheOwlPandan_mvl/mxv
 BYTE   W06
 BYTE   Dn3
 BYTE   N06  Fs1
 BYTE   W06
 BYTE   VOL   61*KirbyDreamLand2CootheOwlPandan_mvl/mxv
 BYTE   N06
 BYTE   W06
 BYTE   VOL   59*KirbyDreamLand2CootheOwlPandan_mvl/mxv
 BYTE   N24  Bn0
 BYTE   N12  Fs1
 BYTE   W06
 BYTE   VOL   58*KirbyDreamLand2CootheOwlPandan_mvl/mxv
 BYTE   W06
 BYTE   Gs2
 BYTE   N06
 BYTE   W06
 BYTE   VOL   55*KirbyDreamLand2CootheOwlPandan_mvl/mxv
 BYTE   N06
 BYTE   W06
 BYTE   VOL   53*KirbyDreamLand2CootheOwlPandan_mvl/mxv
 BYTE   N24  En1
 BYTE   W06
 BYTE   VOL   52*KirbyDreamLand2CootheOwlPandan_mvl/mxv
 BYTE   W06
 BYTE   Dn2
 BYTE   N06  Fs1
 BYTE   W06
 BYTE   VOL   49*KirbyDreamLand2CootheOwlPandan_mvl/mxv
 BYTE   N06
 BYTE   W06
// 006   ----------------------------------------
 BYTE   VOL   47*KirbyDreamLand2CootheOwlPandan_mvl/mxv
 BYTE   N24  Bn0
 BYTE   N12  Fs1
 BYTE   W06
 BYTE   VOL   46*KirbyDreamLand2CootheOwlPandan_mvl/mxv
 BYTE   W06
 BYTE   Gs1
 BYTE   N06
 BYTE   W06
 BYTE   VOL   43*KirbyDreamLand2CootheOwlPandan_mvl/mxv
 BYTE   N06
 BYTE   W06
 BYTE   VOL   41*KirbyDreamLand2CootheOwlPandan_mvl/mxv
 BYTE   N24  En1
 BYTE   W06
 BYTE   VOL   40*KirbyDreamLand2CootheOwlPandan_mvl/mxv
 BYTE   W06
 BYTE   Dn1
 BYTE   N06  Fs1
 BYTE   W06
 BYTE   VOL   37*KirbyDreamLand2CootheOwlPandan_mvl/mxv
 BYTE   N06
 BYTE   W06
 BYTE   VOL   35*KirbyDreamLand2CootheOwlPandan_mvl/mxv
 BYTE   N24  Bn0
 BYTE   N12  Fs1
 BYTE   W06
 BYTE   VOL   34*KirbyDreamLand2CootheOwlPandan_mvl/mxv
 BYTE   W06
 BYTE   Gs0
 BYTE   N06
 BYTE   W06
 BYTE   VOL   31*KirbyDreamLand2CootheOwlPandan_mvl/mxv
 BYTE   N06
 BYTE   W06
 BYTE   VOL   30*KirbyDreamLand2CootheOwlPandan_mvl/mxv
 BYTE   N24  En1
 BYTE   W06
 BYTE   VOL   28*KirbyDreamLand2CootheOwlPandan_mvl/mxv
 BYTE   W06
 BYTE   Ds0
 BYTE   N06  Fs1
 BYTE   W06
 BYTE   VOL   25*KirbyDreamLand2CootheOwlPandan_mvl/mxv
 BYTE   N06
 BYTE   W06
// 007   ----------------------------------------
 BYTE   VOL   24*KirbyDreamLand2CootheOwlPandan_mvl/mxv
 BYTE   N24  Bn0
 BYTE   N12  Fs1
 BYTE   W06
 BYTE   VOL   22*KirbyDreamLand2CootheOwlPandan_mvl/mxv
 BYTE   W06
 BYTE   AnM1
 BYTE   N06
 BYTE   W06
 BYTE   VOL   19*KirbyDreamLand2CootheOwlPandan_mvl/mxv
 BYTE   N06
 BYTE   W06
 BYTE   VOL   18*KirbyDreamLand2CootheOwlPandan_mvl/mxv
 BYTE   N24  En1
 BYTE   W06
 BYTE   VOL   16*KirbyDreamLand2CootheOwlPandan_mvl/mxv
 BYTE   W06
 BYTE   DsM1
 BYTE   N06  Fs1
 BYTE   W06
 BYTE   VOL   13*KirbyDreamLand2CootheOwlPandan_mvl/mxv
 BYTE   N06
 BYTE   W06
 BYTE   VOL   12*KirbyDreamLand2CootheOwlPandan_mvl/mxv
 BYTE   N24  Bn0
 BYTE   N12  Fs1
 BYTE   W06
 BYTE   VOL   10*KirbyDreamLand2CootheOwlPandan_mvl/mxv
 BYTE   W06
 BYTE   AnM2
 BYTE   N06
 BYTE   W06
 BYTE   VOL   7*KirbyDreamLand2CootheOwlPandan_mvl/mxv
 BYTE   N06
 BYTE   W06
 BYTE   VOL   6*KirbyDreamLand2CootheOwlPandan_mvl/mxv
 BYTE   N24  En1
 BYTE   W06
 BYTE   VOL   4*KirbyDreamLand2CootheOwlPandan_mvl/mxv
 BYTE   W06
 BYTE   DsM2
 BYTE   N06  Fs1
 BYTE   W06
 BYTE   VOL   1*KirbyDreamLand2CootheOwlPandan_mvl/mxv
 BYTE   N06
 BYTE   W06
// 008   ----------------------------------------
 BYTE   VOL   0*KirbyDreamLand2CootheOwlPandan_mvl/mxv
 BYTE   FINE

//******************************************************//
	ALIGN 4

KirbyDreamLand2CootheOwlPandan:
	BYTE	6	// NumTrks
	BYTE	0	// NumBlks
	BYTE	KirbyDreamLand2CootheOwlPandan_pri	// Priority
	BYTE	KirbyDreamLand2CootheOwlPandan_rev	// Reverb.
    
	POIN2	KirbyDreamLand2CootheOwlPandan_grp
    
	POIN2	KirbyDreamLand2CootheOwlPandan_001
	POIN2	KirbyDreamLand2CootheOwlPandan_002
	POIN2	KirbyDreamLand2CootheOwlPandan_003
	POIN2	KirbyDreamLand2CootheOwlPandan_004
	POIN2	KirbyDreamLand2CootheOwlPandan_005
	POIN2	KirbyDreamLand2CootheOwlPandan_006

	
