//Event file generated from Sappy .s format.
	#include "MPlayDef.event"

	#define	KirbySuperStarSagaVsMarxDolkar_grp  voicegroup000
	#define	KirbySuperStarSagaVsMarxDolkar_pri  0
	#define	KirbySuperStarSagaVsMarxDolkar_rev  0
	#define	KirbySuperStarSagaVsMarxDolkar_mvl  127
	#define	KirbySuperStarSagaVsMarxDolkar_key  0
	#define	KirbySuperStarSagaVsMarxDolkar_tbs  1
	#define	KirbySuperStarSagaVsMarxDolkar_exg  0
	#define	KirbySuperStarSagaVsMarxDolkar_cmp  1

	// .rodata
	//	KirbySuperStarSagaVsMarxDolkar
	ALIGN 4


//**************** Track 1 (Midi-Chn.0) ****************//

KirbySuperStarSagaVsMarxDolkar_001:
// 000   ----------------------------------------
 BYTE   VOL   80*KirbySuperStarSagaVsMarxDolkar_mvl/mxv
 BYTE   KEYSH   KirbySuperStarSagaVsMarxDolkar_key+0
Label_0_018FCD6C:
 BYTE   TEMPO   186*KirbySuperStarSagaVsMarxDolkar_tbs/2
 BYTE   VOICE   52
 BYTE   W72
 BYTE   W72
// 001   ----------------------------------------
 BYTE   W72
 BYTE   W72
// 002   ----------------------------------------
 BYTE   W72
 BYTE   W96
// 003   ----------------------------------------
 BYTE   W72
 BYTE   W72
// 004   ----------------------------------------
 BYTE   W72
 BYTE   W72
// 005   ----------------------------------------
 BYTE   W72
 BYTE   W72
// 006   ----------------------------------------
 BYTE   W72
 BYTE   W96
// 007   ----------------------------------------
 BYTE   W24
 BYTE   W96
// 008   ----------------------------------------
 BYTE   W24
 BYTE   W72
// 009   ----------------------------------------
 BYTE   W72
 BYTE   W72
// 010   ----------------------------------------
 BYTE   W72
 BYTE   W72
// 011   ----------------------------------------
 BYTE   W96
// 012   ----------------------------------------
 BYTE   W72
 BYTE   W72
// 013   ----------------------------------------
 BYTE   W72
 BYTE   W72
// 014   ----------------------------------------
 BYTE   W72
 BYTE   W72
// 015   ----------------------------------------
 BYTE   W72
 BYTE   W96
// 016   ----------------------------------------
 BYTE   W24
 BYTE   W96
// 017   ----------------------------------------
 BYTE   W24
 BYTE   W72
// 018   ----------------------------------------
 BYTE   W72
 BYTE   W72
// 019   ----------------------------------------
 BYTE   W72
 BYTE   W72
// 020   ----------------------------------------
 BYTE   W72
 BYTE   W72
// 021   ----------------------------------------
 BYTE   W72
 BYTE   W96
// 022   ----------------------------------------
 BYTE   W24
 BYTE   W96
// 023   ----------------------------------------
 BYTE   W24
 BYTE   W72
// 024   ----------------------------------------
 BYTE   W72
 BYTE   W72
// 025   ----------------------------------------
 BYTE   W72
Label_0_018FCDA2:
 BYTE   N03  Ds3  v100
 BYTE   W06
 BYTE   Dn3
 BYTE   W06
 BYTE   Ds3
 BYTE   W06
 BYTE   Dn3
 BYTE   W06
// 026   ----------------------------------------
 BYTE   Ds3
 BYTE   W06
 BYTE   Dn3
 BYTE   W06
 BYTE   Ds3
 BYTE   W06
 BYTE   Dn3
 BYTE   W06
 BYTE   Ds3
 BYTE   W06
 BYTE   Dn3
 BYTE   W06
 BYTE   Ds3
 BYTE   W06
 BYTE   Dn3
 BYTE   W06
 BYTE   Ds3
 BYTE   W06
 BYTE   Dn3
 BYTE   W06
 BYTE   Ds3
 BYTE   W06
 BYTE   Dn3
 BYTE   W06
 BYTE   Ds3
 BYTE   W06
 BYTE   Dn3
 BYTE   W06
 BYTE   Ds3
 BYTE   W06
 BYTE   Dn3
 BYTE   W06
 BYTE   PEND 
// 027   ----------------------------------------
Label_0_018FCDCD:
 BYTE   N03  As2  v100
 BYTE   W06
 BYTE   An2
 BYTE   W06
 BYTE   As2
 BYTE   W06
 BYTE   An2
 BYTE   W06
 BYTE   As2
 BYTE   W06
 BYTE   An2
 BYTE   W06
 BYTE   As2
 BYTE   W06
 BYTE   An2
 BYTE   W06
 BYTE   As2
 BYTE   W06
 BYTE   An2
 BYTE   W06
 BYTE   As2
 BYTE   W06
 BYTE   An2
 BYTE   W06
 BYTE   As2
 BYTE   W06
 BYTE   An2
 BYTE   W06
 BYTE   As2
 BYTE   W06
 BYTE   An2
 BYTE   W06
// 028   ----------------------------------------
 BYTE   As2
 BYTE   W06
 BYTE   An2
 BYTE   W06
 BYTE   As2
 BYTE   W06
 BYTE   An2
 BYTE   W06
 BYTE   PEND 
Label_0_018FCDF8:
 BYTE   N03  Ds3  v100
 BYTE   W06
 BYTE   Dn3
 BYTE   W06
 BYTE   Ds3
 BYTE   W06
 BYTE   Dn3
 BYTE   W06
 BYTE   Ds3
 BYTE   W06
 BYTE   Dn3
 BYTE   W06
 BYTE   Ds3
 BYTE   W06
 BYTE   Dn3
 BYTE   W06
 BYTE   Ds3
 BYTE   W06
 BYTE   Dn3
 BYTE   W06
 BYTE   Ds3
 BYTE   W06
 BYTE   Dn3
 BYTE   W06
 BYTE   PEND 
// 029   ----------------------------------------
Label_0_018FCE13:
 BYTE   N03  Ds3  v100
 BYTE   W06
 BYTE   Dn3
 BYTE   W06
 BYTE   Ds3
 BYTE   W06
 BYTE   Dn3
 BYTE   W06
 BYTE   Ds3
 BYTE   W06
 BYTE   Dn3
 BYTE   W06
 BYTE   Ds3
 BYTE   W06
 BYTE   Dn3
 BYTE   W06
 BYTE   Ds3
 BYTE   W06
 BYTE   Dn3
 BYTE   W06
 BYTE   Ds3
 BYTE   W06
 BYTE   N03
 BYTE   W06
 BYTE   PEND 
 BYTE   PATT
  POIN2 Label_0_018FCDCD
// 030   ----------------------------------------
Label_0_018FCE33:
 BYTE   N03  Cn3  v100
 BYTE   W06
 BYTE   Gs2
 BYTE   W06
 BYTE   Cn3
 BYTE   W06
 BYTE   Gs2
 BYTE   W06
 BYTE   Cn3
 BYTE   W06
 BYTE   Gs2
 BYTE   W06
 BYTE   Cn3
 BYTE   W06
 BYTE   Gs2
 BYTE   W06
 BYTE   Cn3
 BYTE   W06
 BYTE   Gs2
 BYTE   W06
 BYTE   Cn3
 BYTE   W06
 BYTE   Gs2
 BYTE   W06
 BYTE   PEND 
Label_0_018FCE4E:
 BYTE   N03  Fn3  v100
 BYTE   W06
 BYTE   As2
 BYTE   W06
 BYTE   Fn3
 BYTE   W06
 BYTE   As2
 BYTE   W06
// 031   ----------------------------------------
 BYTE   Fn3
 BYTE   W06
 BYTE   As2
 BYTE   W06
 BYTE   Fn3
 BYTE   W06
 BYTE   As2
 BYTE   W06
 BYTE   Dn3
 BYTE   W06
 BYTE   Fn2
 BYTE   W06
 BYTE   Dn3
 BYTE   W06
 BYTE   Fn2
 BYTE   W06
 BYTE   PEND 
Label_0_018FCE69:
 BYTE   N03  As2  v100
 BYTE   W06
 BYTE   Gn2
 BYTE   W06
 BYTE   As2
 BYTE   W06
 BYTE   Gn2
 BYTE   W06
 BYTE   As2
 BYTE   W06
 BYTE   Gn2
 BYTE   W06
 BYTE   As2
 BYTE   W06
 BYTE   Gn2
 BYTE   W06
// 032   ----------------------------------------
 BYTE   As2
 BYTE   W06
 BYTE   Gn2
 BYTE   W06
 BYTE   As2
 BYTE   W06
 BYTE   Gn2
 BYTE   W06
 BYTE   PEND 
Label_0_018FCE84:
 BYTE   N03  Gs2  v100
 BYTE   W06
 BYTE   Gn2
 BYTE   W06
 BYTE   Gs2
 BYTE   W06
 BYTE   Gn2
 BYTE   W06
 BYTE   Gs2
 BYTE   W06
 BYTE   Gn2
 BYTE   W06
 BYTE   Gs2
 BYTE   W06
 BYTE   Gn2
 BYTE   W06
 BYTE   Gs2
 BYTE   W06
 BYTE   Gn2
 BYTE   W06
 BYTE   Gs2
 BYTE   W06
 BYTE   Gn2
 BYTE   W06
 BYTE   PEND 
// 033   ----------------------------------------
 BYTE   W72
 BYTE   W72
// 034   ----------------------------------------
 BYTE   W72
 BYTE   W72
// 035   ----------------------------------------
 BYTE   W72
 BYTE   W72
// 036   ----------------------------------------
 BYTE   W72
 BYTE   W72
// 037   ----------------------------------------
 BYTE   W72
 BYTE   W96
// 038   ----------------------------------------
 BYTE   W72
 BYTE   W72
// 039   ----------------------------------------
 BYTE   W72
 BYTE   W72
// 040   ----------------------------------------
 BYTE   W72
 BYTE   W72
// 041   ----------------------------------------
 BYTE   W72
 BYTE   W96
// 042   ----------------------------------------
 BYTE   W24
 BYTE   W96
// 043   ----------------------------------------
 BYTE   W24
 BYTE   W72
// 044   ----------------------------------------
 BYTE   W72
 BYTE   W72
// 045   ----------------------------------------
 BYTE   W72
 BYTE   W72
// 046   ----------------------------------------
 BYTE   W96
// 047   ----------------------------------------
 BYTE   W72
 BYTE   W72
// 048   ----------------------------------------
 BYTE   W72
 BYTE   W72
// 049   ----------------------------------------
 BYTE   W72
 BYTE   W72
// 050   ----------------------------------------
 BYTE   W72
 BYTE   W96
// 051   ----------------------------------------
 BYTE   W24
 BYTE   W96
// 052   ----------------------------------------
 BYTE   W24
 BYTE   W72
// 053   ----------------------------------------
 BYTE   W72
 BYTE   W72
// 054   ----------------------------------------
 BYTE   W72
 BYTE   W72
// 055   ----------------------------------------
 BYTE   W72
 BYTE   W72
// 056   ----------------------------------------
 BYTE   W72
 BYTE   W96
// 057   ----------------------------------------
 BYTE   W24
 BYTE   W96
// 058   ----------------------------------------
 BYTE   W24
 BYTE   W72
// 059   ----------------------------------------
 BYTE   W72
 BYTE   W72
// 060   ----------------------------------------
 BYTE   W72
 BYTE   PATT
  POIN2 Label_0_018FCDA2
 BYTE   PATT
  POIN2 Label_0_018FCDCD
 BYTE   PATT
  POIN2 Label_0_018FCDF8
 BYTE   PATT
  POIN2 Label_0_018FCE13
 BYTE   PATT
  POIN2 Label_0_018FCDCD
 BYTE   PATT
  POIN2 Label_0_018FCE33
 BYTE   PATT
  POIN2 Label_0_018FCE4E
 BYTE   PATT
  POIN2 Label_0_018FCE69
 BYTE   PATT
  POIN2 Label_0_018FCE84
// 061   ----------------------------------------
 BYTE   W72
 BYTE   W72
// 062   ----------------------------------------
 BYTE   W72
 BYTE   W72
// 063   ----------------------------------------
 BYTE   W72
 BYTE   W72
// 064   ----------------------------------------
 BYTE   W72
 BYTE   W72
// 065   ----------------------------------------
 BYTE   W24
 BYTE   GoTo
  POIN2 Label_0_018FCD6C
 BYTE   FINE

//**************** Track 2 (Midi-Chn.1) ****************//

KirbySuperStarSagaVsMarxDolkar_002:
// 000   ----------------------------------------
 BYTE   VOL   80*KirbySuperStarSagaVsMarxDolkar_mvl/mxv
 BYTE   KEYSH   KirbySuperStarSagaVsMarxDolkar_key+0
Label_1_018FCF18:
 BYTE   VOICE   8
 BYTE   W72
 BYTE   W72
// 001   ----------------------------------------
 BYTE   W72
 BYTE   W72
// 002   ----------------------------------------
 BYTE   W72
 BYTE   W96
// 003   ----------------------------------------
 BYTE   W72
 BYTE   W72
// 004   ----------------------------------------
 BYTE   W72
 BYTE   W72
// 005   ----------------------------------------
 BYTE   W72
 BYTE   W72
// 006   ----------------------------------------
 BYTE   W72
Label_1_018FCF27:
 BYTE   N06  Dn3  v100
 BYTE   W12
 BYTE   Fn3
 BYTE   W12
// 007   ----------------------------------------
 BYTE   Dn3
 BYTE   W12
 BYTE   Fn3
 BYTE   W12
 BYTE   Dn3
 BYTE   W12
 BYTE   Fn3
 BYTE   W12
 BYTE   Dn3
 BYTE   W12
 BYTE   Fn3
 BYTE   W12
 BYTE   Dn3
 BYTE   W12
 BYTE   Fn3
 BYTE   W12
 BYTE   PEND 
// 008   ----------------------------------------
Label_1_018FCF3E:
 BYTE   N06  Fs3  v100
 BYTE   W12
 BYTE   An3
 BYTE   W12
 BYTE   Fs3
 BYTE   W12
 BYTE   An3
 BYTE   W12
 BYTE   Fs3
 BYTE   W12
 BYTE   An3
 BYTE   W12
 BYTE   Cs3
 BYTE   W12
 BYTE   Fs3
 BYTE   W12
// 009   ----------------------------------------
 BYTE   Cs3
 BYTE   W12
 BYTE   Fs3
 BYTE   W12
 BYTE   PEND 
Label_1_018FCF55:
 BYTE   N06  Ds3  v100
 BYTE   W12
 BYTE   Fs3
 BYTE   W12
 BYTE   Ds3
 BYTE   W12
 BYTE   As2
 BYTE   W12
 BYTE   Ds3
 BYTE   W12
 BYTE   Fs3
 BYTE   W12
 BYTE   PEND 
// 010   ----------------------------------------
Label_1_018FCF64:
 BYTE   N06  As2  v100
 BYTE   W12
 BYTE   Fn3
 BYTE   W12
 BYTE   Cs3
 BYTE   W12
 BYTE   Fn3
 BYTE   W12
 BYTE   As2
 BYTE   W12
 BYTE   Fn3
 BYTE   W12
 BYTE   PEND 
Label_1_018FCF73:
 BYTE   N06  An2  v100
 BYTE   W12
 BYTE   En3
 BYTE   W12
// 011   ----------------------------------------
 BYTE   An2
 BYTE   W12
 BYTE   En3
 BYTE   W12
 BYTE   Cs3
 BYTE   W12
 BYTE   En3
 BYTE   W12
 BYTE   PEND 
Label_1_018FCF82:
 BYTE   N06  Ds3  v100
 BYTE   W12
 BYTE   Fs3
 BYTE   W12
 BYTE   Ds3
 BYTE   W12
 BYTE   Fs3
 BYTE   W12
// 012   ----------------------------------------
 BYTE   Gn3
 BYTE   W12
 BYTE   As3
 BYTE   W12
 BYTE   PEND 
 BYTE   W72
// 013   ----------------------------------------
 BYTE   W96
// 014   ----------------------------------------
 BYTE   W72
 BYTE   W72
// 015   ----------------------------------------
 BYTE   W72
 BYTE   W72
// 016   ----------------------------------------
 BYTE   W72
 BYTE   W72
// 017   ----------------------------------------
 BYTE   W72
 BYTE   PATT
  POIN2 Label_1_018FCF27
 BYTE   PATT
  POIN2 Label_1_018FCF3E
 BYTE   PATT
  POIN2 Label_1_018FCF55
 BYTE   PATT
  POIN2 Label_1_018FCF64
 BYTE   PATT
  POIN2 Label_1_018FCF73
 BYTE   PATT
  POIN2 Label_1_018FCF82
// 018   ----------------------------------------
 BYTE   W72
 BYTE   W72
// 019   ----------------------------------------
 BYTE   W72
 BYTE   W72
// 020   ----------------------------------------
 BYTE   W96
// 021   ----------------------------------------
 BYTE   W24
 BYTE   W96
// 022   ----------------------------------------
 BYTE   W24
 BYTE   W72
// 023   ----------------------------------------
 BYTE   W72
 BYTE   W72
// 024   ----------------------------------------
 BYTE   W72
 BYTE   W96
// 025   ----------------------------------------
 BYTE   W24
 BYTE   W96
// 026   ----------------------------------------
 BYTE   W24
 BYTE   W72
// 027   ----------------------------------------
 BYTE   W72
 BYTE   W96
// 028   ----------------------------------------
 BYTE   W24
 BYTE   W72
// 029   ----------------------------------------
 BYTE   W72
 BYTE   W72
// 030   ----------------------------------------
 BYTE   W72
 BYTE   W72
// 031   ----------------------------------------
 BYTE   W72
 BYTE   W72
// 032   ----------------------------------------
 BYTE   W72
 BYTE   W72
// 033   ----------------------------------------
 BYTE   W72
 BYTE   W72
// 034   ----------------------------------------
 BYTE   W72
 BYTE   W72
// 035   ----------------------------------------
 BYTE   W96
// 036   ----------------------------------------
 BYTE   W72
 BYTE   W72
// 037   ----------------------------------------
 BYTE   W72
 BYTE   W72
// 038   ----------------------------------------
 BYTE   W72
 BYTE   W72
// 039   ----------------------------------------
 BYTE   W72
 BYTE   PATT
  POIN2 Label_1_018FCF27
 BYTE   PATT
  POIN2 Label_1_018FCF3E
 BYTE   PATT
  POIN2 Label_1_018FCF55
 BYTE   PATT
  POIN2 Label_1_018FCF64
 BYTE   PATT
  POIN2 Label_1_018FCF73
 BYTE   PATT
  POIN2 Label_1_018FCF82
// 040   ----------------------------------------
 BYTE   W72
 BYTE   W96
// 041   ----------------------------------------
 BYTE   W72
 BYTE   W72
// 042   ----------------------------------------
 BYTE   W72
 BYTE   W72
// 043   ----------------------------------------
 BYTE   W72
 BYTE   W72
// 044   ----------------------------------------
 BYTE   W72
 BYTE   PATT
  POIN2 Label_1_018FCF27
 BYTE   PATT
  POIN2 Label_1_018FCF3E
 BYTE   PATT
  POIN2 Label_1_018FCF55
 BYTE   PATT
  POIN2 Label_1_018FCF64
 BYTE   PATT
  POIN2 Label_1_018FCF73
 BYTE   PATT
  POIN2 Label_1_018FCF82
// 045   ----------------------------------------
 BYTE   W72
 BYTE   W72
// 046   ----------------------------------------
 BYTE   W72
 BYTE   W72
// 047   ----------------------------------------
 BYTE   W96
// 048   ----------------------------------------
 BYTE   W24
 BYTE   W96
// 049   ----------------------------------------
 BYTE   W24
 BYTE   W72
// 050   ----------------------------------------
 BYTE   W72
 BYTE   W72
// 051   ----------------------------------------
 BYTE   W72
 BYTE   W96
// 052   ----------------------------------------
 BYTE   W24
 BYTE   W96
// 053   ----------------------------------------
 BYTE   W24
 BYTE   W72
// 054   ----------------------------------------
 BYTE   W72
 BYTE   W96
// 055   ----------------------------------------
 BYTE   W24
 BYTE   W72
// 056   ----------------------------------------
 BYTE   W72
 BYTE   W72
// 057   ----------------------------------------
 BYTE   W72
 BYTE   W72
// 058   ----------------------------------------
 BYTE   W72
 BYTE   W72
// 059   ----------------------------------------
 BYTE   W72
 BYTE   W72
// 060   ----------------------------------------
 BYTE   W72
 BYTE   W72
// 061   ----------------------------------------
 BYTE   W72
 BYTE   W24
// 062   ----------------------------------------
 BYTE   GoTo
  POIN2 Label_1_018FCF18
 BYTE   FINE

//**************** Track 3 (Midi-Chn.2) ****************//

KirbySuperStarSagaVsMarxDolkar_003:
// 000   ----------------------------------------
 BYTE   KEYSH   KirbySuperStarSagaVsMarxDolkar_key+0
Label_2_018FD052:
 BYTE   VOICE   48
 BYTE   VOL   31*KirbySuperStarSagaVsMarxDolkar_mvl/mxv
 BYTE   W03
 BYTE   Gn0
 BYTE   W06
 BYTE   Gs0
 BYTE   W05
 BYTE   Gs0
 BYTE   W06
 BYTE   An0
 BYTE   W01
 BYTE   N21  Ds4  v100
 BYTE   W05
 BYTE   VOL   34*KirbySuperStarSagaVsMarxDolkar_mvl/mxv
 BYTE   W05
 BYTE   As0
 BYTE   W06
 BYTE   Bn0
 BYTE   W06
 BYTE   Bn0
 BYTE   W02
 BYTE   N21  Gn4
 BYTE   W04
 BYTE   VOL   36*KirbySuperStarSagaVsMarxDolkar_mvl/mxv
 BYTE   W06
 BYTE   Cs1
 BYTE   W06
 BYTE   Cs1
 BYTE   W05
 BYTE   Dn1
 BYTE   W03
 BYTE   N21  Ds4
 BYTE   W03
 BYTE   VOL   39*KirbySuperStarSagaVsMarxDolkar_mvl/mxv
 BYTE   W05
 BYTE   Ds1
 BYTE   W06
 BYTE   En1
 BYTE   W06
 BYTE   En1
 BYTE   W04
 BYTE   N21  Gn4
 BYTE   W02
 BYTE   VOL   41*KirbySuperStarSagaVsMarxDolkar_mvl/mxv
 BYTE   W06
// 001   ----------------------------------------
 BYTE   Fs1
 BYTE   W06
 BYTE   Fs1
 BYTE   W05
 BYTE   Gn1
 BYTE   W05
 BYTE   N21  Ds4
 BYTE   W01
 BYTE   VOL   44*KirbySuperStarSagaVsMarxDolkar_mvl/mxv
 BYTE   W06
 BYTE   Gs1
 BYTE   W05
 BYTE   An1
 BYTE   W06
 BYTE   An1
 BYTE   W06
 BYTE   As1
 BYTE   N21  Gn4
 BYTE   W03
 BYTE   W03
 BYTE   VOL   47*KirbySuperStarSagaVsMarxDolkar_mvl/mxv
 BYTE   W06
 BYTE   Bn1
 BYTE   W05
 BYTE   Cn2
 BYTE   W06
 BYTE   Cs2
 BYTE   W01
 BYTE   N21  Ds4
 BYTE   W05
 BYTE   VOL   49*KirbySuperStarSagaVsMarxDolkar_mvl/mxv
 BYTE   W05
 BYTE   Dn2
 BYTE   W06
 BYTE   Ds2
 BYTE   W06
 BYTE   Ds2
 BYTE   W02
 BYTE   N21  Gn4
 BYTE   W04
 BYTE   VOL   52*KirbySuperStarSagaVsMarxDolkar_mvl/mxv
 BYTE   W06
// 002   ----------------------------------------
 BYTE   En2
 BYTE   W06
 BYTE   Fn2
 BYTE   W05
 BYTE   Fs2
 BYTE   W03
 BYTE   N21  Cs4
 BYTE   W03
 BYTE   VOL   54*KirbySuperStarSagaVsMarxDolkar_mvl/mxv
 BYTE   W05
 BYTE   Gn2
 BYTE   W06
 BYTE   Gs2
 BYTE   W06
 BYTE   Gs2
 BYTE   W04
 BYTE   N21  Ds4
 BYTE   W02
 BYTE   VOL   57*KirbySuperStarSagaVsMarxDolkar_mvl/mxv
 BYTE   W06
 BYTE   An2
 BYTE   W06
 BYTE   As2
 BYTE   W05
 BYTE   Bn2
 BYTE   W05
 BYTE   N09  As3
 BYTE   W01
 BYTE   VOL   59*KirbySuperStarSagaVsMarxDolkar_mvl/mxv
 BYTE   W06
 BYTE   Cn3
 BYTE   W05
 BYTE   Cs3
 BYTE   N09  Ds4
 BYTE   W06
 BYTE   VOL   61*KirbySuperStarSagaVsMarxDolkar_mvl/mxv
 BYTE   W06
 BYTE   Dn3
 BYTE   N21  En4
 BYTE   W03
 BYTE   W21
// 003   ----------------------------------------
 BYTE   Cn4
 BYTE   W24
 BYTE   En4
 BYTE   W24
 BYTE   W03
Label_2_018FD0F3:
 BYTE   N09  Fn4  v100
 BYTE   W12
 BYTE   Gs4
 BYTE   W12
 BYTE   N21  En4
 BYTE   W24
// 004   ----------------------------------------
 BYTE   Cn4
 BYTE   W24
 BYTE   En4
 BYTE   W24
 BYTE   PEND 
Label_2_018FD101:
 BYTE   N21  Ds4  v100
 BYTE   W24
 BYTE   Gs3
 BYTE   W24
// 005   ----------------------------------------
 BYTE   Ds4
 BYTE   W24
 BYTE   PEND 
Label_2_018FD10A:
 BYTE   N09  Dn4  v100
 BYTE   W12
 BYTE   Gn4
 BYTE   W12
 BYTE   N21  Dn4
 BYTE   W24
 BYTE   Gn3
 BYTE   W24
 BYTE   PEND 
// 006   ----------------------------------------
Label_2_018FD116:
 BYTE   N21  En4  v100
 BYTE   W24
 BYTE   Cn4
 BYTE   W24
 BYTE   En4
 BYTE   W24
 BYTE   PEND 
Label_2_018FD11F:
 BYTE   N09  Fn4  v100
 BYTE   W12
 BYTE   Gs4
 BYTE   W12
// 007   ----------------------------------------
 BYTE   N21  En4
 BYTE   W24
 BYTE   Cn4
 BYTE   W24
 BYTE   PEND 
Label_2_018FD12B:
 BYTE   N21  En4  v100
 BYTE   W24
 BYTE   N09  Fn4
 BYTE   W12
 BYTE   Gs4
 BYTE   W12
// 008   ----------------------------------------
 BYTE   N21  En4
 BYTE   W24
 BYTE   PEND 
Label_2_018FD138:
 BYTE   N21  Ds4  v100
 BYTE   W24
 BYTE   N09  Gs3
 BYTE   W12
 BYTE   As3
 BYTE   W12
 BYTE   N21  Ds4
 BYTE   W24
 BYTE   PEND 
// 009   ----------------------------------------
Label_2_018FD145:
 BYTE   N21  Dn4  v100
 BYTE   W24
 BYTE   An3
 BYTE   W24
 BYTE   Gn3
 BYTE   W24
 BYTE   PEND 
 BYTE   W96
// 010   ----------------------------------------
 BYTE   W24
 BYTE   W96
// 011   ----------------------------------------
 BYTE   W24
 BYTE   W72
// 012   ----------------------------------------
 BYTE   W72
 BYTE   W72
// 013   ----------------------------------------
 BYTE   W72
 BYTE   PATT
  POIN2 Label_2_018FD116
 BYTE   PATT
  POIN2 Label_2_018FD0F3
 BYTE   PATT
  POIN2 Label_2_018FD101
 BYTE   PATT
  POIN2 Label_2_018FD10A
 BYTE   PATT
  POIN2 Label_2_018FD116
 BYTE   PATT
  POIN2 Label_2_018FD11F
 BYTE   PATT
  POIN2 Label_2_018FD12B
 BYTE   PATT
  POIN2 Label_2_018FD138
 BYTE   PATT
  POIN2 Label_2_018FD145
// 014   ----------------------------------------
 BYTE   W96
// 015   ----------------------------------------
 BYTE   W24
 BYTE   W96
// 016   ----------------------------------------
 BYTE   W24
 BYTE   W72
// 017   ----------------------------------------
 BYTE   W72
 BYTE   W72
// 018   ----------------------------------------
 BYTE   W72
 BYTE   W72
// 019   ----------------------------------------
 BYTE   W72
 BYTE   W72
// 020   ----------------------------------------
 BYTE   W72
 BYTE   W96
// 021   ----------------------------------------
 BYTE   W24
 BYTE   W96
// 022   ----------------------------------------
 BYTE   W24
Label_2_018FD193:
 BYTE   N21  Dn4  v100
 BYTE   W24
 BYTE   N09  Cn4
 BYTE   W12
 BYTE   As3
 BYTE   W12
 BYTE   N21  An3
 BYTE   W24
 BYTE   PEND 
// 023   ----------------------------------------
Label_2_018FD1A0:
 BYTE   N21  Gn3  v100
 BYTE   W24
 BYTE   Fn3
 BYTE   W24
 BYTE   An3
 BYTE   W24
 BYTE   PEND 
 BYTE   TIE  Gn3
 BYTE   W72
// 024   ----------------------------------------
 BYTE   W68
 BYTE   W01
 BYTE   EOT
 BYTE   W03
 BYTE   W96
// 025   ----------------------------------------
 BYTE   W24
 BYTE   W96
// 026   ----------------------------------------
 BYTE   W24
 BYTE   W72
// 027   ----------------------------------------
 BYTE   W72
 BYTE   W96
// 028   ----------------------------------------
 BYTE   W24
 BYTE   W72
// 029   ----------------------------------------
 BYTE   W72
 BYTE   W72
// 030   ----------------------------------------
 BYTE   W72
Label_2_018FD1BC:
 BYTE   N09  An3  v100
 BYTE   W12
 BYTE   Dn3
 BYTE   W12
// 031   ----------------------------------------
 BYTE   Dn4
 BYTE   W12
 BYTE   Dn3
 BYTE   W12
 BYTE   An3
 BYTE   W12
 BYTE   Dn3
 BYTE   W12
 BYTE   PEND 
Label_2_018FD1CB:
 BYTE   N09  En4  v100
 BYTE   W12
 BYTE   Dn3
 BYTE   W12
 BYTE   An3
 BYTE   W12
 BYTE   Dn3
 BYTE   W12
// 032   ----------------------------------------
 BYTE   Dn4
 BYTE   W12
 BYTE   Dn3
 BYTE   W12
 BYTE   PEND 
 BYTE   PATT
  POIN2 Label_2_018FD1BC
// 033   ----------------------------------------
Label_2_018FD1DF:
 BYTE   N09  En4  v100
 BYTE   W12
 BYTE   Dn3
 BYTE   W12
 BYTE   Dn4
 BYTE   W12
 BYTE   Dn3
 BYTE   W12
 BYTE   Cn4
 BYTE   W12
 BYTE   Dn3
 BYTE   W12
 BYTE   PEND 
Label_2_018FD1EE:
 BYTE   VOL   40*KirbySuperStarSagaVsMarxDolkar_mvl/mxv
 BYTE   N21  Gn4  v100
 BYTE   W08
 BYTE   VOL   40*KirbySuperStarSagaVsMarxDolkar_mvl/mxv
 BYTE   W08
 BYTE   Fn1
 BYTE   W08
// 034   ----------------------------------------
 BYTE   Fs1
 BYTE   N21  Ds4
 BYTE   W08
 BYTE   VOL   42*KirbySuperStarSagaVsMarxDolkar_mvl/mxv
 BYTE   W08
 BYTE   Gn1
 BYTE   W08
 BYTE   Gs1
 BYTE   N21  Gn4
 BYTE   W08
 BYTE   VOL   44*KirbySuperStarSagaVsMarxDolkar_mvl/mxv
 BYTE   W08
 BYTE   An1
 BYTE   W08
 BYTE   PEND 
Label_2_018FD20C:
 BYTE   VOL   45*KirbySuperStarSagaVsMarxDolkar_mvl/mxv
 BYTE   N21  Ds4  v100
 BYTE   W08
 BYTE   VOL   46*KirbySuperStarSagaVsMarxDolkar_mvl/mxv
 BYTE   W08
 BYTE   Bn1
 BYTE   W08
 BYTE   Bn1
 BYTE   N21  Gn4
 BYTE   W08
 BYTE   VOL   48*KirbySuperStarSagaVsMarxDolkar_mvl/mxv
 BYTE   W08
 BYTE   Cs2
 BYTE   W08
// 035   ----------------------------------------
 BYTE   Cs2
 BYTE   N21  Ds4
 BYTE   W08
 BYTE   VOL   50*KirbySuperStarSagaVsMarxDolkar_mvl/mxv
 BYTE   W08
 BYTE   Ds2
 BYTE   W08
 BYTE   PEND 
Label_2_018FD22A:
 BYTE   VOL   51*KirbySuperStarSagaVsMarxDolkar_mvl/mxv
 BYTE   N21  Gn4  v100
 BYTE   W08
 BYTE   VOL   52*KirbySuperStarSagaVsMarxDolkar_mvl/mxv
 BYTE   W08
 BYTE   En2
 BYTE   W08
 BYTE   Fn2
 BYTE   N21  Ds4
 BYTE   W08
 BYTE   VOL   54*KirbySuperStarSagaVsMarxDolkar_mvl/mxv
 BYTE   W08
 BYTE   Fs2
 BYTE   W08
 BYTE   Gn2
 BYTE   N21  Gn4
 BYTE   W08
 BYTE   VOL   56*KirbySuperStarSagaVsMarxDolkar_mvl/mxv
 BYTE   W08
 BYTE   Gs2
 BYTE   W08
 BYTE   PEND 
// 036   ----------------------------------------
Label_2_018FD248:
 BYTE   VOL   57*KirbySuperStarSagaVsMarxDolkar_mvl/mxv
 BYTE   N21  Cs4  v100
 BYTE   W08
 BYTE   VOL   57*KirbySuperStarSagaVsMarxDolkar_mvl/mxv
 BYTE   W08
 BYTE   As2
 BYTE   W08
 BYTE   Bn2
 BYTE   N21  Ds4
 BYTE   W08
 BYTE   VOL   59*KirbySuperStarSagaVsMarxDolkar_mvl/mxv
 BYTE   W08
 BYTE   Cn3
 BYTE   W08
 BYTE   Cs3
 BYTE   N09  As3
 BYTE   W08
 BYTE   VOL   61*KirbySuperStarSagaVsMarxDolkar_mvl/mxv
 BYTE   W04
 BYTE   N09  Ds4
 BYTE   W04
 BYTE   VOL   62*KirbySuperStarSagaVsMarxDolkar_mvl/mxv
 BYTE   W08
 BYTE   PEND 
 BYTE   Dn3
 BYTE   N21  En4
 BYTE   W24
// 037   ----------------------------------------
 BYTE   Cn4
 BYTE   W24
 BYTE   En4
 BYTE   W24
 BYTE   PATT
  POIN2 Label_2_018FD0F3
 BYTE   PATT
  POIN2 Label_2_018FD101
 BYTE   PATT
  POIN2 Label_2_018FD10A
 BYTE   PATT
  POIN2 Label_2_018FD116
 BYTE   PATT
  POIN2 Label_2_018FD11F
 BYTE   PATT
  POIN2 Label_2_018FD12B
 BYTE   PATT
  POIN2 Label_2_018FD138
 BYTE   PATT
  POIN2 Label_2_018FD145
// 038   ----------------------------------------
 BYTE   W96
// 039   ----------------------------------------
 BYTE   W24
 BYTE   W96
// 040   ----------------------------------------
 BYTE   W24
 BYTE   W72
// 041   ----------------------------------------
 BYTE   W72
 BYTE   W72
// 042   ----------------------------------------
 BYTE   W72
 BYTE   PATT
  POIN2 Label_2_018FD116
 BYTE   PATT
  POIN2 Label_2_018FD0F3
 BYTE   PATT
  POIN2 Label_2_018FD101
 BYTE   PATT
  POIN2 Label_2_018FD10A
 BYTE   PATT
  POIN2 Label_2_018FD116
 BYTE   PATT
  POIN2 Label_2_018FD11F
 BYTE   PATT
  POIN2 Label_2_018FD12B
 BYTE   PATT
  POIN2 Label_2_018FD138
 BYTE   PATT
  POIN2 Label_2_018FD145
// 043   ----------------------------------------
 BYTE   W96
// 044   ----------------------------------------
 BYTE   W24
 BYTE   W96
// 045   ----------------------------------------
 BYTE   W24
 BYTE   W72
// 046   ----------------------------------------
 BYTE   W72
 BYTE   W72
// 047   ----------------------------------------
 BYTE   W72
 BYTE   W72
// 048   ----------------------------------------
 BYTE   W72
 BYTE   W72
// 049   ----------------------------------------
 BYTE   W72
 BYTE   W96
// 050   ----------------------------------------
 BYTE   W24
 BYTE   W96
// 051   ----------------------------------------
 BYTE   W24
 BYTE   PATT
  POIN2 Label_2_018FD193
 BYTE   PATT
  POIN2 Label_2_018FD1A0
// 052   ----------------------------------------
 BYTE   TIE  Gn3  v100
 BYTE   W72
 BYTE   W68
// 053   ----------------------------------------
 BYTE   W01
 BYTE   EOT
 BYTE   W03
 BYTE   W96
// 054   ----------------------------------------
 BYTE   W24
 BYTE   W96
// 055   ----------------------------------------
 BYTE   W24
 BYTE   W72
// 056   ----------------------------------------
 BYTE   W72
 BYTE   W96
// 057   ----------------------------------------
 BYTE   W24
 BYTE   W72
// 058   ----------------------------------------
 BYTE   W72
 BYTE   W72
// 059   ----------------------------------------
 BYTE   W72
 BYTE   PATT
  POIN2 Label_2_018FD1BC
 BYTE   PATT
  POIN2 Label_2_018FD1CB
 BYTE   PATT
  POIN2 Label_2_018FD1BC
 BYTE   PATT
  POIN2 Label_2_018FD1DF
 BYTE   PATT
  POIN2 Label_2_018FD1EE
 BYTE   PATT
  POIN2 Label_2_018FD20C
 BYTE   PATT
  POIN2 Label_2_018FD22A
 BYTE   PATT
  POIN2 Label_2_018FD248
// 060   ----------------------------------------
 BYTE   VOL   62*KirbySuperStarSagaVsMarxDolkar_mvl/mxv
 BYTE   W24
 BYTE   GoTo
  POIN2 Label_2_018FD052
 BYTE   FINE

//**************** Track 4 (Midi-Chn.3) ****************//

KirbySuperStarSagaVsMarxDolkar_004:
// 000   ----------------------------------------
 BYTE   KEYSH   KirbySuperStarSagaVsMarxDolkar_key+0
Label_3_018FD332:
 BYTE   VOICE   48
 BYTE   VOL   31*KirbySuperStarSagaVsMarxDolkar_mvl/mxv
 BYTE   PAN   c_v-24
 BYTE   W03
 BYTE   VOL   31*KirbySuperStarSagaVsMarxDolkar_mvl/mxv
 BYTE   W06
 BYTE   Gs0
 BYTE   W05
 BYTE   Gs0
 BYTE   W06
 BYTE   An0
 BYTE   W01
 BYTE   N21  Bn3  v100
 BYTE   W05
 BYTE   VOL   34*KirbySuperStarSagaVsMarxDolkar_mvl/mxv
 BYTE   W06
 BYTE   As0
 BYTE   W05
 BYTE   Bn0
 BYTE   W06
 BYTE   Bn0
 BYTE   W02
 BYTE   N21  Ds4
 BYTE   W04
 BYTE   VOL   36*KirbySuperStarSagaVsMarxDolkar_mvl/mxv
 BYTE   W06
 BYTE   Cs1
 BYTE   W05
 BYTE   Cs1
 BYTE   W06
 BYTE   Dn1
 BYTE   W03
 BYTE   N21  Bn3
 BYTE   W03
 BYTE   VOL   39*KirbySuperStarSagaVsMarxDolkar_mvl/mxv
 BYTE   W06
 BYTE   Ds1
 BYTE   W05
 BYTE   En1
 BYTE   W06
 BYTE   En1
 BYTE   W04
 BYTE   N21  Ds4
 BYTE   W02
 BYTE   VOL   41*KirbySuperStarSagaVsMarxDolkar_mvl/mxv
 BYTE   W06
// 001   ----------------------------------------
 BYTE   Fs1
 BYTE   W05
 BYTE   Fs1
 BYTE   W06
 BYTE   Gn1
 BYTE   W05
 BYTE   N21  Bn3
 BYTE   W01
 BYTE   VOL   44*KirbySuperStarSagaVsMarxDolkar_mvl/mxv
 BYTE   W06
 BYTE   Gs1
 BYTE   W05
 BYTE   An1
 BYTE   W06
 BYTE   An1
 BYTE   W06
 BYTE   As1
 BYTE   N32  Gs3
 BYTE   W03
 BYTE   W03
 BYTE   VOL   47*KirbySuperStarSagaVsMarxDolkar_mvl/mxv
 BYTE   W06
 BYTE   Bn1
 BYTE   W05
 BYTE   Cn2
 BYTE   W06
 BYTE   Cs2
 BYTE   W06
 BYTE   Cs2
 BYTE   W06
 BYTE   Dn2
 BYTE   W01
 BYTE   N32  Bn2
 BYTE   W04
 BYTE   VOL   51*KirbySuperStarSagaVsMarxDolkar_mvl/mxv
 BYTE   W06
 BYTE   Ds2
 BYTE   W06
 BYTE   En2
 BYTE   W06
// 002   ----------------------------------------
 BYTE   En2
 BYTE   W05
 BYTE   Fn2
 BYTE   W06
 BYTE   Fs2
 BYTE   W03
 BYTE   N32  Gn3
 BYTE   W03
 BYTE   VOL   54*KirbySuperStarSagaVsMarxDolkar_mvl/mxv
 BYTE   W06
 BYTE   Gn2
 BYTE   W05
 BYTE   Gs2
 BYTE   W06
 BYTE   Gs2
 BYTE   W06
 BYTE   An2
 BYTE   W06
 BYTE   An2
 BYTE   W04
 BYTE   N32  En3
 BYTE   W01
 BYTE   VOL   58*KirbySuperStarSagaVsMarxDolkar_mvl/mxv
 BYTE   W06
 BYTE   Bn2
 BYTE   W06
 BYTE   Bn2
 BYTE   W06
 BYTE   Cn3
 BYTE   W05
 BYTE   Cs3
 BYTE   W06
 BYTE   Cs3
 BYTE   W06
 BYTE   VOICE   45
 BYTE   VOL   62*KirbySuperStarSagaVsMarxDolkar_mvl/mxv
 BYTE   PAN   c_v+24
 BYTE   N06  Fn3
 BYTE   W03
 BYTE   W09
// 003   ----------------------------------------
 BYTE   Cn3
 BYTE   W12
 BYTE   Fn3
 BYTE   W12
 BYTE   Cn3
 BYTE   W12
 BYTE   Fn3
 BYTE   W12
 BYTE   Cn3
 BYTE   W15
Label_3_018FD3D5:
 BYTE   N06  Fn3  v100
 BYTE   W12
 BYTE   Cn3
 BYTE   W12
 BYTE   Fn3
 BYTE   W12
// 004   ----------------------------------------
 BYTE   Cn3
 BYTE   W12
 BYTE   Fn3
 BYTE   W12
 BYTE   Cn3
 BYTE   W12
 BYTE   Fn3
 BYTE   W12
 BYTE   Cn3
 BYTE   W12
 BYTE   PEND 
Label_3_018FD3E8:
 BYTE   N06  Bn2  v100
 BYTE   W12
 BYTE   Gs2
 BYTE   W12
 BYTE   Bn2
 BYTE   W12
// 005   ----------------------------------------
 BYTE   Gs2
 BYTE   W12
 BYTE   Bn2
 BYTE   W12
 BYTE   Gs2
 BYTE   W12
 BYTE   PEND 
Label_3_018FD3F7:
 BYTE   N06  As2  v100
 BYTE   W12
 BYTE   Gn2
 BYTE   W12
 BYTE   As2
 BYTE   W12
 BYTE   Gn2
 BYTE   W12
 BYTE   As2
 BYTE   W12
// 006   ----------------------------------------
 BYTE   Gn2
 BYTE   W12
 BYTE   PEND 
Label_3_018FD406:
 BYTE   N06  Fn3  v100
 BYTE   W12
 BYTE   Cn3
 BYTE   W12
 BYTE   Fn3
 BYTE   W12
 BYTE   Cn3
 BYTE   W12
 BYTE   Fn3
 BYTE   W12
 BYTE   Cn3
 BYTE   W12
 BYTE   PEND 
 BYTE   PATT
  POIN2 Label_3_018FD406
 BYTE   PATT
  POIN2 Label_3_018FD406
 BYTE   PATT
  POIN2 Label_3_018FD3E8
 BYTE   PATT
  POIN2 Label_3_018FD3F7
// 007   ----------------------------------------
Label_3_018FD429:
 BYTE   VOICE   48
 BYTE   N92  An3  v100
 BYTE   W96
// 008   ----------------------------------------
 BYTE   N21  Cn4
 BYTE   W24
 BYTE   PEND 
Label_3_018FD433:
 BYTE   N80  Cs4  v100
 BYTE   W84
// 009   ----------------------------------------
 BYTE   N09  Bn3
 BYTE   W12
 BYTE   N21  An3
 BYTE   W24
 BYTE   PEND 
Label_3_018FD43E:
 BYTE   N21  Cs4  v100
 BYTE   W24
 BYTE   Fs3
 BYTE   W24
 BYTE   Cs4
 BYTE   W24
 BYTE   PEND 
// 010   ----------------------------------------
Label_3_018FD447:
 BYTE   N21  Ds4  v100
 BYTE   W24
 BYTE   Cs4
 BYTE   W24
 BYTE   Cn4
 BYTE   W24
 BYTE   PEND 
Label_3_018FD450:
 BYTE   N21  Cs4  v100
 BYTE   W24
// 011   ----------------------------------------
 BYTE   Bn3
 BYTE   W24
 BYTE   An3
 BYTE   W24
 BYTE   PEND 
Label_3_018FD459:
 BYTE   N21  Cn4  v100
 BYTE   W24
 BYTE   Bn3
 BYTE   W24
// 012   ----------------------------------------
 BYTE   N09  En3
 BYTE   W12
 BYTE   Gn3
 BYTE   W12
 BYTE   PEND 
Label_3_018FD465:
 BYTE   VOICE   45
 BYTE   N06  Fn3  v100
 BYTE   W12
 BYTE   Cn3
 BYTE   W12
 BYTE   Fn3
 BYTE   W12
 BYTE   Cn3
 BYTE   W12
 BYTE   Fn3
 BYTE   W12
 BYTE   Cn3
 BYTE   W12
 BYTE   PEND 
 BYTE   PATT
  POIN2 Label_3_018FD3D5
 BYTE   PATT
  POIN2 Label_3_018FD3E8
 BYTE   PATT
  POIN2 Label_3_018FD3F7
 BYTE   PATT
  POIN2 Label_3_018FD406
 BYTE   PATT
  POIN2 Label_3_018FD406
 BYTE   PATT
  POIN2 Label_3_018FD406
 BYTE   PATT
  POIN2 Label_3_018FD3E8
 BYTE   PATT
  POIN2 Label_3_018FD3F7
 BYTE   PATT
  POIN2 Label_3_018FD429
 BYTE   PATT
  POIN2 Label_3_018FD433
 BYTE   PATT
  POIN2 Label_3_018FD43E
 BYTE   PATT
  POIN2 Label_3_018FD447
 BYTE   PATT
  POIN2 Label_3_018FD450
 BYTE   PATT
  POIN2 Label_3_018FD459
// 013   ----------------------------------------
 BYTE   VOICE   45
 BYTE   N06  Gn2  v100
 BYTE   W06
 BYTE   N06
 BYTE   W06
 BYTE   Dn3
 BYTE   W06
 BYTE   N06
 BYTE   W06
 BYTE   Gn2
 BYTE   W06
 BYTE   N06
 BYTE   W06
 BYTE   Dn3
 BYTE   W06
 BYTE   N06
 BYTE   W06
 BYTE   N06
 BYTE   W06
 BYTE   N06
 BYTE   W06
 BYTE   N06
 BYTE   W06
 BYTE   N06
 BYTE   W06
Label_3_018FD4D8:
 BYTE   N06  Ds3  v100
 BYTE   W06
 BYTE   N06
 BYTE   W06
 BYTE   N06
 BYTE   W06
 BYTE   N06
 BYTE   W06
// 014   ----------------------------------------
 BYTE   Gs2
 BYTE   W06
 BYTE   N06
 BYTE   W06
 BYTE   Ds3
 BYTE   W06
 BYTE   N06
 BYTE   W06
 BYTE   N06
 BYTE   W06
 BYTE   N06
 BYTE   W06
 BYTE   N06
 BYTE   W06
 BYTE   N06
 BYTE   W06
 BYTE   PEND 
Label_3_018FD4F3:
 BYTE   N06  Fs3  v100
 BYTE   W06
 BYTE   N06
 BYTE   W06
 BYTE   N06
 BYTE   W06
 BYTE   N06
 BYTE   W06
 BYTE   Cs3
 BYTE   W06
 BYTE   N06
 BYTE   W06
 BYTE   Fs3
 BYTE   W06
 BYTE   N06
 BYTE   W06
// 015   ----------------------------------------
 BYTE   N06
 BYTE   W06
 BYTE   N06
 BYTE   W06
 BYTE   N06
 BYTE   W06
 BYTE   N06
 BYTE   W06
 BYTE   PEND 
Label_3_018FD50E:
 BYTE   N06  Cs3  v100
 BYTE   W06
 BYTE   N06
 BYTE   W06
 BYTE   N06
 BYTE   W06
 BYTE   N06
 BYTE   W06
 BYTE   Gs2
 BYTE   W06
 BYTE   N06
 BYTE   W06
 BYTE   Cs3
 BYTE   W06
 BYTE   N06
 BYTE   W06
 BYTE   N06
 BYTE   W06
 BYTE   N06
 BYTE   W06
 BYTE   N06
 BYTE   W06
 BYTE   N06
 BYTE   W06
 BYTE   PEND 
// 016   ----------------------------------------
Label_3_018FD529:
 BYTE   N06  Fn3  v100
 BYTE   W06
 BYTE   N06
 BYTE   W06
 BYTE   N06
 BYTE   W06
 BYTE   N06
 BYTE   W06
 BYTE   Cn3
 BYTE   W06
 BYTE   N06
 BYTE   W06
 BYTE   Fn3
 BYTE   W06
 BYTE   N06
 BYTE   W06
 BYTE   N06
 BYTE   W06
 BYTE   N06
 BYTE   W06
 BYTE   N06
 BYTE   W06
 BYTE   N06
 BYTE   W06
 BYTE   N06
 BYTE   W06
 BYTE   N06
 BYTE   W06
 BYTE   N06
 BYTE   W06
 BYTE   N06
 BYTE   W06
// 017   ----------------------------------------
 BYTE   Cn3
 BYTE   W06
 BYTE   N06
 BYTE   W06
 BYTE   Fn3
 BYTE   W06
 BYTE   N06
 BYTE   W06
 BYTE   PEND 
Label_3_018FD554:
 BYTE   N06  En3  v100
 BYTE   W06
 BYTE   N06
 BYTE   W06
 BYTE   N06
 BYTE   W06
 BYTE   N06
 BYTE   W06
 BYTE   Bn2
 BYTE   W06
 BYTE   N06
 BYTE   W06
 BYTE   En3
 BYTE   W06
 BYTE   N06
 BYTE   W06
 BYTE   N06
 BYTE   W06
 BYTE   N06
 BYTE   W06
 BYTE   N06
 BYTE   W06
 BYTE   N06
 BYTE   W06
// 018   ----------------------------------------
 BYTE   N06
 BYTE   W06
 BYTE   N06
 BYTE   W06
 BYTE   N06
 BYTE   W06
 BYTE   N06
 BYTE   W06
 BYTE   Bn2
 BYTE   W06
 BYTE   N06
 BYTE   W06
 BYTE   En3
 BYTE   W06
 BYTE   N06
 BYTE   W06
 BYTE   PEND 
Label_3_018FD57F:
 BYTE   N06  Gn2  v100
 BYTE   W06
 BYTE   As2
 BYTE   W06
 BYTE   Gn2
 BYTE   W06
 BYTE   As2
 BYTE   W06
 BYTE   Gn2
 BYTE   W06
 BYTE   As2
 BYTE   W06
 BYTE   Gn2
 BYTE   W06
 BYTE   As2
 BYTE   W06
// 019   ----------------------------------------
 BYTE   Gn2
 BYTE   W06
 BYTE   As2
 BYTE   W06
 BYTE   Gn2
 BYTE   W06
 BYTE   As2
 BYTE   W06
 BYTE   PEND 
Label_3_018FD59A:
 BYTE   N06  Fn2  v100
 BYTE   W06
 BYTE   An2
 BYTE   W06
 BYTE   Fn2
 BYTE   W06
 BYTE   An2
 BYTE   W06
 BYTE   Fn2
 BYTE   W06
 BYTE   An2
 BYTE   W06
 BYTE   Fn2
 BYTE   W06
 BYTE   An2
 BYTE   W06
 BYTE   Fn2
 BYTE   W06
 BYTE   An2
 BYTE   W06
 BYTE   Fn2
 BYTE   W06
 BYTE   An2
 BYTE   W06
 BYTE   PEND 
// 020   ----------------------------------------
Label_3_018FD5B5:
 BYTE   N06  Gn2  v100
 BYTE   W06
 BYTE   Cn3
 BYTE   W06
 BYTE   Gn2
 BYTE   W06
 BYTE   Cn3
 BYTE   W06
 BYTE   Gn2
 BYTE   W06
 BYTE   Cn3
 BYTE   W06
 BYTE   Gn2
 BYTE   W06
 BYTE   Cn3
 BYTE   W06
 BYTE   Gn2
 BYTE   W06
 BYTE   Cn3
 BYTE   W06
 BYTE   Gn2
 BYTE   W06
 BYTE   Cn3
 BYTE   W06
 BYTE   PEND 
Label_3_018FD5D0:
 BYTE   N06  Gn2  v100
 BYTE   W06
 BYTE   Bn2
 BYTE   W06
 BYTE   Gn2
 BYTE   W06
 BYTE   Bn2
 BYTE   W06
// 021   ----------------------------------------
 BYTE   Gn2
 BYTE   W06
 BYTE   Bn2
 BYTE   W06
 BYTE   Gn2
 BYTE   W06
 BYTE   Bn2
 BYTE   W06
 BYTE   Gn2
 BYTE   W06
 BYTE   Bn2
 BYTE   W06
 BYTE   Gn2
 BYTE   W06
 BYTE   Bn2
 BYTE   W06
 BYTE   PEND 
Label_3_018FD5EB:
 BYTE   VOICE   48
 BYTE   W96
// 022   ----------------------------------------
 BYTE   W24
 BYTE   PEND 
 BYTE   W96
// 023   ----------------------------------------
 BYTE   W24
 BYTE   W72
// 024   ----------------------------------------
 BYTE   W72
 BYTE   W96
// 025   ----------------------------------------
 BYTE   W24
 BYTE   W72
// 026   ----------------------------------------
 BYTE   W72
 BYTE   W72
// 027   ----------------------------------------
 BYTE   W72
Label_3_018FD5FA:
 BYTE   N09  En3  v100
 BYTE   W12
 BYTE   Fn2
 BYTE   W12
// 028   ----------------------------------------
 BYTE   Fn3
 BYTE   W12
 BYTE   Fn2
 BYTE   W12
 BYTE   En3
 BYTE   W12
 BYTE   Fn2
 BYTE   W12
 BYTE   PEND 
Label_3_018FD609:
 BYTE   N09  Fn3  v100
 BYTE   W12
 BYTE   Fn2
 BYTE   W12
 BYTE   En3
 BYTE   W12
 BYTE   Fn2
 BYTE   W12
// 029   ----------------------------------------
 BYTE   Fn3
 BYTE   W12
 BYTE   Fn2
 BYTE   W12
 BYTE   PEND 
Label_3_018FD618:
 BYTE   N09  Dn3  v100
 BYTE   W12
 BYTE   Fn2
 BYTE   W12
 BYTE   Fn3
 BYTE   W12
 BYTE   Fn2
 BYTE   W12
 BYTE   Dn3
 BYTE   W12
 BYTE   Fn2
 BYTE   W12
 BYTE   PEND 
// 030   ----------------------------------------
Label_3_018FD627:
 BYTE   N09  Gn3  v100
 BYTE   W12
 BYTE   Gn2
 BYTE   W12
 BYTE   Gn3
 BYTE   W12
 BYTE   Gn2
 BYTE   W12
 BYTE   Fn3
 BYTE   W12
 BYTE   Gn2
 BYTE   W12
 BYTE   PEND 
 BYTE   W72
// 031   ----------------------------------------
 BYTE   W72
 BYTE   W72
// 032   ----------------------------------------
 BYTE   W72
 BYTE   PATT
  POIN2 Label_3_018FD465
 BYTE   PATT
  POIN2 Label_3_018FD3D5
 BYTE   PATT
  POIN2 Label_3_018FD3E8
 BYTE   PATT
  POIN2 Label_3_018FD3F7
 BYTE   PATT
  POIN2 Label_3_018FD406
 BYTE   PATT
  POIN2 Label_3_018FD406
 BYTE   PATT
  POIN2 Label_3_018FD406
 BYTE   PATT
  POIN2 Label_3_018FD3E8
 BYTE   PATT
  POIN2 Label_3_018FD3F7
 BYTE   PATT
  POIN2 Label_3_018FD429
 BYTE   PATT
  POIN2 Label_3_018FD433
 BYTE   PATT
  POIN2 Label_3_018FD43E
 BYTE   PATT
  POIN2 Label_3_018FD447
 BYTE   PATT
  POIN2 Label_3_018FD450
 BYTE   PATT
  POIN2 Label_3_018FD459
 BYTE   PATT
  POIN2 Label_3_018FD465
 BYTE   PATT
  POIN2 Label_3_018FD3D5
 BYTE   PATT
  POIN2 Label_3_018FD3E8
 BYTE   PATT
  POIN2 Label_3_018FD3F7
 BYTE   PATT
  POIN2 Label_3_018FD406
 BYTE   PATT
  POIN2 Label_3_018FD406
 BYTE   PATT
  POIN2 Label_3_018FD406
 BYTE   PATT
  POIN2 Label_3_018FD3E8
 BYTE   PATT
  POIN2 Label_3_018FD3F7
 BYTE   PATT
  POIN2 Label_3_018FD429
 BYTE   PATT
  POIN2 Label_3_018FD433
 BYTE   PATT
  POIN2 Label_3_018FD43E
 BYTE   PATT
  POIN2 Label_3_018FD447
 BYTE   PATT
  POIN2 Label_3_018FD450
// 033   ----------------------------------------
 BYTE   N21  Cn4  v100
 BYTE   W24
 BYTE   Bn3
 BYTE   W24
 BYTE   N09  En3
 BYTE   W12
 BYTE   Gn3
 BYTE   W10
 BYTE   VOICE   45
 BYTE   W02
 BYTE   N06  Gn2
 BYTE   W06
 BYTE   N06
 BYTE   W06
 BYTE   Dn3
 BYTE   W06
 BYTE   N06
 BYTE   W06
// 034   ----------------------------------------
 BYTE   Gn2
 BYTE   W06
 BYTE   N06
 BYTE   W06
 BYTE   Dn3
 BYTE   W06
 BYTE   N06
 BYTE   W06
 BYTE   N06
 BYTE   W06
 BYTE   N06
 BYTE   W06
 BYTE   N06
 BYTE   W06
 BYTE   N06
 BYTE   W06
 BYTE   PATT
  POIN2 Label_3_018FD4D8
 BYTE   PATT
  POIN2 Label_3_018FD4F3
 BYTE   PATT
  POIN2 Label_3_018FD50E
 BYTE   PATT
  POIN2 Label_3_018FD529
 BYTE   PATT
  POIN2 Label_3_018FD554
 BYTE   PATT
  POIN2 Label_3_018FD57F
 BYTE   PATT
  POIN2 Label_3_018FD59A
 BYTE   PATT
  POIN2 Label_3_018FD5B5
 BYTE   PATT
  POIN2 Label_3_018FD5D0
 BYTE   PATT
  POIN2 Label_3_018FD5EB
// 035   ----------------------------------------
 BYTE   W96
// 036   ----------------------------------------
 BYTE   W24
 BYTE   W72
// 037   ----------------------------------------
 BYTE   W72
 BYTE   W96
// 038   ----------------------------------------
 BYTE   W24
 BYTE   W72
// 039   ----------------------------------------
 BYTE   W72
 BYTE   W72
// 040   ----------------------------------------
 BYTE   W72
 BYTE   PATT
  POIN2 Label_3_018FD5FA
 BYTE   PATT
  POIN2 Label_3_018FD609
 BYTE   PATT
  POIN2 Label_3_018FD618
 BYTE   PATT
  POIN2 Label_3_018FD627
// 041   ----------------------------------------
 BYTE   W72
 BYTE   W72
// 042   ----------------------------------------
 BYTE   W72
 BYTE   W72
// 043   ----------------------------------------
 BYTE   VOICE   45
 BYTE   W24
 BYTE   GoTo
  POIN2 Label_3_018FD332
 BYTE   FINE

//**************** Track 5 (Midi-Chn.4) ****************//

KirbySuperStarSagaVsMarxDolkar_005:
// 000   ----------------------------------------
 BYTE   KEYSH   KirbySuperStarSagaVsMarxDolkar_key+0
Label_4_018FD752:
 BYTE   VOICE   48
 BYTE   VOL   31*KirbySuperStarSagaVsMarxDolkar_mvl/mxv
 BYTE   PAN   c_v+24
 BYTE   W03
 BYTE   VOL   31*KirbySuperStarSagaVsMarxDolkar_mvl/mxv
 BYTE   W06
 BYTE   Gs0
 BYTE   W05
 BYTE   Gs0
 BYTE   W06
 BYTE   An0
 BYTE   W01
 BYTE   N21  Gs3  v100
 BYTE   W05
 BYTE   VOL   34*KirbySuperStarSagaVsMarxDolkar_mvl/mxv
 BYTE   W06
 BYTE   As0
 BYTE   W05
 BYTE   Bn0
 BYTE   W06
 BYTE   Bn0
 BYTE   W02
 BYTE   N21  Bn3
 BYTE   W04
 BYTE   VOL   36*KirbySuperStarSagaVsMarxDolkar_mvl/mxv
 BYTE   W06
 BYTE   Cs1
 BYTE   W05
 BYTE   Cs1
 BYTE   W06
 BYTE   Dn1
 BYTE   W03
 BYTE   N21  Gs3
 BYTE   W03
 BYTE   VOL   39*KirbySuperStarSagaVsMarxDolkar_mvl/mxv
 BYTE   W06
 BYTE   Ds1
 BYTE   W05
 BYTE   En1
 BYTE   W06
 BYTE   En1
 BYTE   W04
 BYTE   N21  Bn3
 BYTE   W02
 BYTE   VOL   41*KirbySuperStarSagaVsMarxDolkar_mvl/mxv
 BYTE   W06
// 001   ----------------------------------------
 BYTE   Fs1
 BYTE   W05
 BYTE   Fs1
 BYTE   W06
 BYTE   Gn1
 BYTE   W05
 BYTE   N21  Gs3
 BYTE   W01
 BYTE   VOL   44*KirbySuperStarSagaVsMarxDolkar_mvl/mxv
 BYTE   W06
 BYTE   Gs1
 BYTE   W05
 BYTE   An1
 BYTE   W06
 BYTE   An1
 BYTE   W06
 BYTE   As1
 BYTE   N32  Bn3
 BYTE   W03
 BYTE   W03
 BYTE   VOL   47*KirbySuperStarSagaVsMarxDolkar_mvl/mxv
 BYTE   W06
 BYTE   Bn1
 BYTE   W05
 BYTE   Cn2
 BYTE   W06
 BYTE   Cs2
 BYTE   W06
 BYTE   Cs2
 BYTE   W06
 BYTE   Dn2
 BYTE   W01
 BYTE   N32  Gs3
 BYTE   W04
 BYTE   VOL   51*KirbySuperStarSagaVsMarxDolkar_mvl/mxv
 BYTE   W06
 BYTE   Ds2
 BYTE   W06
 BYTE   En2
 BYTE   W06
// 002   ----------------------------------------
 BYTE   En2
 BYTE   W05
 BYTE   Fn2
 BYTE   W06
 BYTE   Fs2
 BYTE   W03
 BYTE   N32  As3
 BYTE   W03
 BYTE   VOL   54*KirbySuperStarSagaVsMarxDolkar_mvl/mxv
 BYTE   W06
 BYTE   Gn2
 BYTE   W05
 BYTE   Gs2
 BYTE   W06
 BYTE   Gs2
 BYTE   W06
 BYTE   An2
 BYTE   W06
 BYTE   An2
 BYTE   W04
 BYTE   N32  Gn3
 BYTE   W01
 BYTE   VOL   58*KirbySuperStarSagaVsMarxDolkar_mvl/mxv
 BYTE   W06
 BYTE   Bn2
 BYTE   W06
 BYTE   Bn2
 BYTE   W06
 BYTE   Cn3
 BYTE   W05
 BYTE   Cs3
 BYTE   W06
 BYTE   Cs3
 BYTE   W06
 BYTE   VOICE   45
 BYTE   VOL   62*KirbySuperStarSagaVsMarxDolkar_mvl/mxv
 BYTE   PAN   c_v-24
 BYTE   N06  Gs3
 BYTE   W03
 BYTE   W09
// 003   ----------------------------------------
 BYTE   Fn3
 BYTE   W12
 BYTE   Gs3
 BYTE   W12
 BYTE   Fn3
 BYTE   W12
 BYTE   Gs3
 BYTE   W12
 BYTE   Fn3
 BYTE   W15
Label_4_018FD7F5:
 BYTE   N06  Gs3  v100
 BYTE   W12
 BYTE   Fn3
 BYTE   W12
 BYTE   Gs3
 BYTE   W12
// 004   ----------------------------------------
 BYTE   Fn3
 BYTE   W12
 BYTE   Gs3
 BYTE   W12
 BYTE   Fn3
 BYTE   W12
 BYTE   Gs3
 BYTE   W12
 BYTE   Fn3
 BYTE   W12
 BYTE   PEND 
Label_4_018FD808:
 BYTE   N06  En3  v100
 BYTE   W12
 BYTE   Bn2
 BYTE   W12
 BYTE   En3
 BYTE   W12
// 005   ----------------------------------------
 BYTE   Bn2
 BYTE   W12
 BYTE   En3
 BYTE   W12
 BYTE   Bn2
 BYTE   W12
 BYTE   PEND 
Label_4_018FD817:
 BYTE   N06  Ds3  v100
 BYTE   W12
 BYTE   As2
 BYTE   W12
 BYTE   Ds3
 BYTE   W12
 BYTE   As2
 BYTE   W12
 BYTE   Ds3
 BYTE   W12
// 006   ----------------------------------------
 BYTE   As2
 BYTE   W12
 BYTE   PEND 
Label_4_018FD826:
 BYTE   N06  Gs3  v100
 BYTE   W12
 BYTE   Fn3
 BYTE   W12
 BYTE   Gs3
 BYTE   W12
 BYTE   Fn3
 BYTE   W12
 BYTE   Gs3
 BYTE   W12
 BYTE   Fn3
 BYTE   W12
 BYTE   PEND 
 BYTE   PATT
  POIN2 Label_4_018FD826
 BYTE   PATT
  POIN2 Label_4_018FD826
 BYTE   PATT
  POIN2 Label_4_018FD808
 BYTE   PATT
  POIN2 Label_4_018FD817
// 007   ----------------------------------------
Label_4_018FD849:
 BYTE   VOICE   48
 BYTE   W24
 BYTE   N21  En4  v100
 BYTE   W24
 BYTE   Dn4
 BYTE   W24
 BYTE   N09  Cn4
 BYTE   W12
 BYTE   Dn4
 BYTE   W12
// 008   ----------------------------------------
 BYTE   N21  En4
 BYTE   W24
 BYTE   PEND 
Label_4_018FD85B:
 BYTE   W24
 BYTE   N21  Gs4  v100
 BYTE   W24
 BYTE   Fs4
 BYTE   W24
// 009   ----------------------------------------
 BYTE   N09  Fn4
 BYTE   W12
 BYTE   Fs4
 BYTE   W12
 BYTE   N21  Gs4
 BYTE   W24
 BYTE   PEND 
Label_4_018FD86B:
 BYTE   N21  Fn4  v100
 BYTE   W24
 BYTE   As3
 BYTE   W24
// 010   ----------------------------------------
 BYTE   Fn4
 BYTE   W24
 BYTE   PEND 
 BYTE   N68  Ds4
 BYTE   W72
// 011   ----------------------------------------
 BYTE   Cs4
 BYTE   W72
Label_4_018FD879:
 BYTE   N44  Cn4  v100
 BYTE   W48
// 012   ----------------------------------------
 BYTE   N09  As3
 BYTE   W12
 BYTE   Cs4
 BYTE   W12
 BYTE   PEND 
Label_4_018FD883:
 BYTE   VOICE   45
 BYTE   N06  Gs3  v100
 BYTE   W12
 BYTE   Fn3
 BYTE   W12
 BYTE   Gs3
 BYTE   W12
 BYTE   Fn3
 BYTE   W12
 BYTE   Gs3
 BYTE   W12
 BYTE   Fn3
 BYTE   W12
 BYTE   PEND 
 BYTE   PATT
  POIN2 Label_4_018FD7F5
 BYTE   PATT
  POIN2 Label_4_018FD808
 BYTE   PATT
  POIN2 Label_4_018FD817
 BYTE   PATT
  POIN2 Label_4_018FD826
 BYTE   PATT
  POIN2 Label_4_018FD826
 BYTE   PATT
  POIN2 Label_4_018FD826
 BYTE   PATT
  POIN2 Label_4_018FD808
 BYTE   PATT
  POIN2 Label_4_018FD817
 BYTE   PATT
  POIN2 Label_4_018FD849
 BYTE   PATT
  POIN2 Label_4_018FD85B
 BYTE   PATT
  POIN2 Label_4_018FD86B
// 013   ----------------------------------------
 BYTE   N68  Ds4  v100
 BYTE   W72
 BYTE   Cs4
 BYTE   W72
 BYTE   PATT
  POIN2 Label_4_018FD879
// 014   ----------------------------------------
Label_4_018FD8D6:
 BYTE   VOICE   45
 BYTE   N06  Dn3  v100
 BYTE   W06
 BYTE   N06
 BYTE   W06
 BYTE   Fn3
 BYTE   W06
 BYTE   N06
 BYTE   W06
 BYTE   As2
 BYTE   W06
 BYTE   N06
 BYTE   W06
 BYTE   Fn3
 BYTE   W06
 BYTE   N06
 BYTE   W06
 BYTE   N06
 BYTE   W06
 BYTE   N06
 BYTE   W06
 BYTE   N06
 BYTE   W06
 BYTE   N06
 BYTE   W06
 BYTE   PEND 
Label_4_018FD8F3:
 BYTE   N06  Gn3  v100
 BYTE   W06
 BYTE   N06
 BYTE   W06
 BYTE   N06
 BYTE   W06
 BYTE   N06
 BYTE   W06
// 015   ----------------------------------------
 BYTE   Cn3
 BYTE   W06
 BYTE   N06
 BYTE   W06
 BYTE   Gn3
 BYTE   W06
 BYTE   N06
 BYTE   W06
 BYTE   N06
 BYTE   W06
 BYTE   N06
 BYTE   W06
 BYTE   N06
 BYTE   W06
 BYTE   N06
 BYTE   W06
 BYTE   PEND 
Label_4_018FD90E:
 BYTE   N06  As3  v100
 BYTE   W06
 BYTE   N06
 BYTE   W06
 BYTE   N06
 BYTE   W06
 BYTE   N06
 BYTE   W06
 BYTE   Fs3
 BYTE   W06
 BYTE   N06
 BYTE   W06
 BYTE   As3
 BYTE   W06
 BYTE   N06
 BYTE   W06
// 016   ----------------------------------------
 BYTE   N06
 BYTE   W06
 BYTE   N06
 BYTE   W06
 BYTE   N06
 BYTE   W06
 BYTE   N06
 BYTE   W06
 BYTE   PEND 
Label_4_018FD929:
 BYTE   N06  Fn3  v100
 BYTE   W06
 BYTE   N06
 BYTE   W06
 BYTE   N06
 BYTE   W06
 BYTE   N06
 BYTE   W06
 BYTE   Cs3
 BYTE   W06
 BYTE   N06
 BYTE   W06
 BYTE   Fn3
 BYTE   W06
 BYTE   N06
 BYTE   W06
 BYTE   N06
 BYTE   W06
 BYTE   N06
 BYTE   W06
 BYTE   N06
 BYTE   W06
 BYTE   N06
 BYTE   W06
 BYTE   PEND 
// 017   ----------------------------------------
Label_4_018FD944:
 BYTE   N06  Gs3  v100
 BYTE   W06
 BYTE   N06
 BYTE   W06
 BYTE   N06
 BYTE   W06
 BYTE   N06
 BYTE   W06
 BYTE   Fn3
 BYTE   W06
 BYTE   N06
 BYTE   W06
 BYTE   Gs3
 BYTE   W06
 BYTE   N06
 BYTE   W06
 BYTE   N06
 BYTE   W06
 BYTE   N06
 BYTE   W06
 BYTE   N06
 BYTE   W06
 BYTE   N06
 BYTE   W06
 BYTE   N06
 BYTE   W06
 BYTE   N06
 BYTE   W06
 BYTE   N06
 BYTE   W06
 BYTE   N06
 BYTE   W06
// 018   ----------------------------------------
 BYTE   Fn3
 BYTE   W06
 BYTE   N06
 BYTE   W06
 BYTE   Gs3
 BYTE   W06
 BYTE   N06
 BYTE   W06
 BYTE   PEND 
Label_4_018FD96F:
 BYTE   N06  Gs3  v100
 BYTE   W06
 BYTE   N06
 BYTE   W06
 BYTE   N06
 BYTE   W06
 BYTE   N06
 BYTE   W06
 BYTE   En3
 BYTE   W06
 BYTE   N06
 BYTE   W06
 BYTE   Gs3
 BYTE   W06
 BYTE   N06
 BYTE   W06
 BYTE   N06
 BYTE   W06
 BYTE   N06
 BYTE   W06
 BYTE   N06
 BYTE   W06
 BYTE   N06
 BYTE   W06
// 019   ----------------------------------------
 BYTE   N06
 BYTE   W06
 BYTE   N06
 BYTE   W06
 BYTE   N06
 BYTE   W06
 BYTE   N06
 BYTE   W06
 BYTE   En3
 BYTE   W06
 BYTE   N06
 BYTE   W06
 BYTE   Gs3
 BYTE   W06
 BYTE   N06
 BYTE   W06
 BYTE   PEND 
Label_4_018FD99A:
 BYTE   N06  Dn3  v100
 BYTE   W06
 BYTE   Fn3
 BYTE   W06
 BYTE   Dn3
 BYTE   W06
 BYTE   Fn3
 BYTE   W06
 BYTE   Dn3
 BYTE   W06
 BYTE   Fn3
 BYTE   W06
 BYTE   Dn3
 BYTE   W06
 BYTE   Fn3
 BYTE   W06
// 020   ----------------------------------------
 BYTE   Dn3
 BYTE   W06
 BYTE   Fn3
 BYTE   W06
 BYTE   Dn3
 BYTE   W06
 BYTE   Fn3
 BYTE   W06
 BYTE   PEND 
Label_4_018FD9B5:
 BYTE   N06  Cn3  v100
 BYTE   W06
 BYTE   En3
 BYTE   W06
 BYTE   Cn3
 BYTE   W06
 BYTE   En3
 BYTE   W06
 BYTE   Cn3
 BYTE   W06
 BYTE   En3
 BYTE   W06
 BYTE   Cn3
 BYTE   W06
 BYTE   En3
 BYTE   W06
 BYTE   Cn3
 BYTE   W06
 BYTE   En3
 BYTE   W06
 BYTE   Cn3
 BYTE   W06
 BYTE   En3
 BYTE   W06
 BYTE   PEND 
// 021   ----------------------------------------
Label_4_018FD9D0:
 BYTE   N06  Cn3  v100
 BYTE   W06
 BYTE   Dn3
 BYTE   W06
 BYTE   Cn3
 BYTE   W06
 BYTE   Dn3
 BYTE   W06
 BYTE   Cn3
 BYTE   W06
 BYTE   Dn3
 BYTE   W06
 BYTE   Cn3
 BYTE   W06
 BYTE   Dn3
 BYTE   W06
 BYTE   Cn3
 BYTE   W06
 BYTE   Dn3
 BYTE   W06
 BYTE   Cn3
 BYTE   W06
 BYTE   Dn3
 BYTE   W06
 BYTE   PEND 
Label_4_018FD9EB:
 BYTE   N06  Bn2  v100
 BYTE   W06
 BYTE   Dn3
 BYTE   W06
 BYTE   Bn2
 BYTE   W06
 BYTE   Dn3
 BYTE   W06
// 022   ----------------------------------------
 BYTE   Bn2
 BYTE   W06
 BYTE   Dn3
 BYTE   W06
 BYTE   Bn2
 BYTE   W06
 BYTE   Dn3
 BYTE   W06
 BYTE   Bn2
 BYTE   W06
 BYTE   Dn3
 BYTE   W06
 BYTE   Bn2
 BYTE   W06
 BYTE   Dn3
 BYTE   W06
 BYTE   PEND 
Label_4_018FDA06:
 BYTE   VOICE   48
 BYTE   W96
// 023   ----------------------------------------
 BYTE   W24
 BYTE   PEND 
 BYTE   W96
// 024   ----------------------------------------
 BYTE   W24
 BYTE   W72
// 025   ----------------------------------------
 BYTE   W72
 BYTE   W96
// 026   ----------------------------------------
 BYTE   W24
 BYTE   W72
// 027   ----------------------------------------
 BYTE   W72
 BYTE   W72
// 028   ----------------------------------------
 BYTE   W72
Label_4_018FDA15:
 BYTE   N09  Fn3  v100
 BYTE   W12
 BYTE   An2
 BYTE   W12
// 029   ----------------------------------------
 BYTE   An3
 BYTE   W12
 BYTE   An2
 BYTE   W12
 BYTE   Fn3
 BYTE   W12
 BYTE   An2
 BYTE   W12
 BYTE   PEND 
Label_4_018FDA24:
 BYTE   N09  An3  v100
 BYTE   W12
 BYTE   An2
 BYTE   W12
 BYTE   Fn3
 BYTE   W12
 BYTE   An2
 BYTE   W12
// 030   ----------------------------------------
 BYTE   An3
 BYTE   W12
 BYTE   An2
 BYTE   W12
 BYTE   PEND 
Label_4_018FDA33:
 BYTE   N09  Fn3  v100
 BYTE   W12
 BYTE   Bn2
 BYTE   W12
 BYTE   Bn3
 BYTE   W12
 BYTE   Bn2
 BYTE   W12
 BYTE   Fn3
 BYTE   W12
 BYTE   Bn2
 BYTE   W12
 BYTE   PEND 
// 031   ----------------------------------------
Label_4_018FDA42:
 BYTE   N09  Bn3  v100
 BYTE   W12
 BYTE   Bn2
 BYTE   W12
 BYTE   Bn3
 BYTE   W12
 BYTE   Bn2
 BYTE   W12
 BYTE   Gn3
 BYTE   W12
 BYTE   Bn2
 BYTE   W12
 BYTE   PEND 
 BYTE   W72
// 032   ----------------------------------------
 BYTE   W72
 BYTE   W72
// 033   ----------------------------------------
 BYTE   W72
 BYTE   PATT
  POIN2 Label_4_018FD883
 BYTE   PATT
  POIN2 Label_4_018FD7F5
 BYTE   PATT
  POIN2 Label_4_018FD808
 BYTE   PATT
  POIN2 Label_4_018FD817
 BYTE   PATT
  POIN2 Label_4_018FD826
 BYTE   PATT
  POIN2 Label_4_018FD826
 BYTE   PATT
  POIN2 Label_4_018FD826
 BYTE   PATT
  POIN2 Label_4_018FD808
 BYTE   PATT
  POIN2 Label_4_018FD817
 BYTE   PATT
  POIN2 Label_4_018FD849
 BYTE   PATT
  POIN2 Label_4_018FD85B
 BYTE   PATT
  POIN2 Label_4_018FD86B
// 034   ----------------------------------------
 BYTE   N68  Ds4  v100
 BYTE   W72
 BYTE   Cs4
 BYTE   W72
 BYTE   PATT
  POIN2 Label_4_018FD879
 BYTE   PATT
  POIN2 Label_4_018FD883
 BYTE   PATT
  POIN2 Label_4_018FD7F5
 BYTE   PATT
  POIN2 Label_4_018FD808
 BYTE   PATT
  POIN2 Label_4_018FD817
 BYTE   PATT
  POIN2 Label_4_018FD826
 BYTE   PATT
  POIN2 Label_4_018FD826
 BYTE   PATT
  POIN2 Label_4_018FD826
 BYTE   PATT
  POIN2 Label_4_018FD808
 BYTE   PATT
  POIN2 Label_4_018FD817
 BYTE   PATT
  POIN2 Label_4_018FD849
 BYTE   PATT
  POIN2 Label_4_018FD85B
 BYTE   PATT
  POIN2 Label_4_018FD86B
// 035   ----------------------------------------
 BYTE   N68  Ds4  v100
 BYTE   W72
 BYTE   Cs4
 BYTE   W72
 BYTE   PATT
  POIN2 Label_4_018FD879
 BYTE   PATT
  POIN2 Label_4_018FD8D6
 BYTE   PATT
  POIN2 Label_4_018FD8F3
 BYTE   PATT
  POIN2 Label_4_018FD90E
 BYTE   PATT
  POIN2 Label_4_018FD929
 BYTE   PATT
  POIN2 Label_4_018FD944
 BYTE   PATT
  POIN2 Label_4_018FD96F
 BYTE   PATT
  POIN2 Label_4_018FD99A
 BYTE   PATT
  POIN2 Label_4_018FD9B5
 BYTE   PATT
  POIN2 Label_4_018FD9D0
 BYTE   PATT
  POIN2 Label_4_018FD9EB
 BYTE   PATT
  POIN2 Label_4_018FDA06
// 036   ----------------------------------------
 BYTE   W96
// 037   ----------------------------------------
 BYTE   W24
 BYTE   W72
// 038   ----------------------------------------
 BYTE   W72
 BYTE   W96
// 039   ----------------------------------------
 BYTE   W24
 BYTE   W72
// 040   ----------------------------------------
 BYTE   W72
 BYTE   W72
// 041   ----------------------------------------
 BYTE   W72
 BYTE   PATT
  POIN2 Label_4_018FDA15
 BYTE   PATT
  POIN2 Label_4_018FDA24
 BYTE   PATT
  POIN2 Label_4_018FDA33
 BYTE   PATT
  POIN2 Label_4_018FDA42
// 042   ----------------------------------------
 BYTE   W72
 BYTE   W72
// 043   ----------------------------------------
 BYTE   W72
 BYTE   W72
// 044   ----------------------------------------
 BYTE   VOICE   45
 BYTE   W24
 BYTE   GoTo
  POIN2 Label_4_018FD752
 BYTE   FINE

//**************** Track 6 (Midi-Chn.5) ****************//

KirbySuperStarSagaVsMarxDolkar_006:
// 000   ----------------------------------------
 BYTE   VOL   80*KirbySuperStarSagaVsMarxDolkar_mvl/mxv
 BYTE   KEYSH   KirbySuperStarSagaVsMarxDolkar_key+0
Label_5_018FDB4C:
 BYTE   VOICE   57
 BYTE   PAN   c_v-24
 BYTE   W72
 BYTE   W72
// 001   ----------------------------------------
 BYTE   W72
 BYTE   W72
// 002   ----------------------------------------
 BYTE   W72
 BYTE   W96
// 003   ----------------------------------------
 BYTE   W72
 BYTE   W72
// 004   ----------------------------------------
 BYTE   W72
 BYTE   W72
// 005   ----------------------------------------
 BYTE   W72
 BYTE   W72
// 006   ----------------------------------------
 BYTE   W72
 BYTE   W96
// 007   ----------------------------------------
 BYTE   W24
 BYTE   W96
// 008   ----------------------------------------
 BYTE   W24
 BYTE   W72
// 009   ----------------------------------------
 BYTE   W72
 BYTE   W72
// 010   ----------------------------------------
 BYTE   W72
 BYTE   W72
// 011   ----------------------------------------
 BYTE   W96
// 012   ----------------------------------------
 BYTE   W72
 BYTE   W72
// 013   ----------------------------------------
 BYTE   W72
 BYTE   W72
// 014   ----------------------------------------
 BYTE   W72
 BYTE   W72
// 015   ----------------------------------------
 BYTE   W72
 BYTE   W96
// 016   ----------------------------------------
 BYTE   W24
 BYTE   W96
// 017   ----------------------------------------
 BYTE   W24
 BYTE   W72
// 018   ----------------------------------------
 BYTE   W72
 BYTE   W72
// 019   ----------------------------------------
 BYTE   W72
 BYTE   W72
// 020   ----------------------------------------
 BYTE   W72
 BYTE   W72
// 021   ----------------------------------------
 BYTE   W72
 BYTE   W96
// 022   ----------------------------------------
 BYTE   W24
 BYTE   W96
// 023   ----------------------------------------
 BYTE   W24
 BYTE   W72
// 024   ----------------------------------------
 BYTE   W72
 BYTE   W72
// 025   ----------------------------------------
 BYTE   W72
Label_5_018FDB82:
 BYTE   N09  Cn4  v100
 BYTE   W12
 BYTE   N03
 BYTE   W06
 BYTE   N03
 BYTE   W06
// 026   ----------------------------------------
 BYTE   N09
 BYTE   W12
 BYTE   Dn4
 BYTE   W12
 BYTE   Cn4
 BYTE   W12
 BYTE   Dn4
 BYTE   W12
 BYTE   N21  Ds4
 BYTE   W24
 BYTE   N09  Dn4
 BYTE   W12
 BYTE   Cn4
 BYTE   W12
 BYTE   PEND 
// 027   ----------------------------------------
 BYTE   As3
 BYTE   W12
 BYTE   Cn4
 BYTE   W12
 BYTE   N21  Dn4
 BYTE   W24
 BYTE   PAN   c_v-24
 BYTE   N09  As3  v072
 BYTE   W01
 BYTE   PAN   c_v-23
 BYTE   W02
 BYTE   Fs1
 BYTE   W01
 BYTE   Gn1
 BYTE   W02
 BYTE   Gs1
 BYTE   W01
 BYTE   An1
 BYTE   W02
 BYTE   As1
 BYTE   W01
 BYTE   Bn1
 BYTE   W02
 BYTE   Cn2
 BYTE   N09  Cn4
 BYTE   W01
 BYTE   PAN   c_v-15
 BYTE   W02
 BYTE   Dn2
 BYTE   W02
 BYTE   Ds2
 BYTE   W01
 BYTE   En2
 BYTE   W02
 BYTE   Fn2
 BYTE   W01
 BYTE   Fs2
 BYTE   W02
 BYTE   Gn2
 BYTE   W01
 BYTE   Gs2
 BYTE   N21  Dn4
 BYTE   W01
 BYTE   PAN   c_v-7
 BYTE   W02
 BYTE   As2
 BYTE   W01
 BYTE   Bn2
 BYTE   W02
 BYTE   Cn3
 BYTE   W01
 BYTE   Cs3
 BYTE   W02
 BYTE   Dn3
 BYTE   W01
 BYTE   Ds3
 BYTE   W02
 BYTE   En3
 BYTE   W01
 BYTE   Fn3
 BYTE   W02
 BYTE   Fs3
 BYTE   W02
 BYTE   Gn3
 BYTE   W01
 BYTE   Gs3
 BYTE   W02
 BYTE   An3
 BYTE   W01
 BYTE   As3
 BYTE   W02
 BYTE   Bn3
 BYTE   W01
// 028   ----------------------------------------
 BYTE   Cn4
 BYTE   N09  As3
 BYTE   W01
 BYTE   PAN   c_v+9
 BYTE   W02
 BYTE   Dn4
 BYTE   W01
 BYTE   Ds4
 BYTE   W02
 BYTE   En4
 BYTE   W01
 BYTE   Fn4
 BYTE   W02
 BYTE   Fs4
 BYTE   W01
 BYTE   Gn4
 BYTE   W02
 BYTE   Gs4
 BYTE   N09  Dn4
 BYTE   W01
 BYTE   PAN   c_v+17
 BYTE   W02
 BYTE   As4
 BYTE   W02
 BYTE   Bn4
 BYTE   W01
 BYTE   Cn5
 BYTE   W02
 BYTE   Cs5
 BYTE   W01
 BYTE   Dn5
 BYTE   W02
 BYTE   Ds5
 BYTE   W01
 BYTE   En5
 BYTE   N09  Cn4  v100
 BYTE   W12
 BYTE   N03
 BYTE   W06
 BYTE   N03
 BYTE   W06
 BYTE   N09
 BYTE   W12
 BYTE   Dn4
 BYTE   W12
 BYTE   Cn4
 BYTE   W12
 BYTE   Dn4
 BYTE   W12
// 029   ----------------------------------------
Label_5_018FDC24:
 BYTE   N09  Ds4  v100
 BYTE   W12
 BYTE   Fn4
 BYTE   W12
 BYTE   N21  Gn4
 BYTE   W24
 BYTE   N09  Fn4
 BYTE   W12
 BYTE   Ds4
 BYTE   W12
 BYTE   PEND 
 BYTE   Dn4
 BYTE   W12
 BYTE   Cn4
 BYTE   W12
// 030   ----------------------------------------
 BYTE   N21  As3
 BYTE   W24
 BYTE   PAN   c_v+24
 BYTE   N09  Dn4  v072
 BYTE   W01
 BYTE   PAN   c_v+23
 BYTE   W02
 BYTE   Dn5
 BYTE   W01
 BYTE   Cs5
 BYTE   W02
 BYTE   Cn5
 BYTE   W01
 BYTE   Bn4
 BYTE   W02
 BYTE   As4
 BYTE   W01
 BYTE   An4
 BYTE   W02
 BYTE   Gs4
 BYTE   N09  Cn4
 BYTE   W01
 BYTE   PAN   c_v+15
 BYTE   W02
 BYTE   Fs4
 BYTE   W02
 BYTE   Fn4
 BYTE   W01
 BYTE   En4
 BYTE   W02
 BYTE   Ds4
 BYTE   W01
 BYTE   Dn4
 BYTE   W02
 BYTE   Cs4
 BYTE   W01
 BYTE   Cn4
 BYTE   N21  As3
 BYTE   W01
 BYTE   PAN   c_v+7
 BYTE   W02
 BYTE   As3
 BYTE   W01
 BYTE   An3
 BYTE   W02
 BYTE   Gs3
 BYTE   W01
 BYTE   Gn3
 BYTE   W02
 BYTE   Fs3
 BYTE   W01
 BYTE   Fn3
 BYTE   W02
 BYTE   En3
 BYTE   W01
 BYTE   Ds3
 BYTE   W02
 BYTE   Dn3
 BYTE   W02
 BYTE   Cs3
 BYTE   W01
 BYTE   Cn3
 BYTE   W02
 BYTE   Bn2
 BYTE   W01
 BYTE   As2
 BYTE   W02
 BYTE   An2
 BYTE   W01
 BYTE   Gs2
 BYTE   N09  Dn4
 BYTE   W01
 BYTE   PAN   c_v-9
 BYTE   W02
 BYTE   Fs2
 BYTE   W01
 BYTE   Fn2
 BYTE   W02
 BYTE   En2
 BYTE   W01
 BYTE   Ds2
 BYTE   W02
 BYTE   Dn2
 BYTE   W01
 BYTE   Cs2
 BYTE   W02
 BYTE   Cn2
 BYTE   N09  As3
 BYTE   W01
 BYTE   PAN   c_v-17
 BYTE   W02
 BYTE   As1
 BYTE   W02
 BYTE   An1
 BYTE   W01
 BYTE   Gs1
 BYTE   W02
 BYTE   Gn1
 BYTE   W01
 BYTE   Fs1
 BYTE   W02
 BYTE   Fn1
 BYTE   W01
// 031   ----------------------------------------
 BYTE   En1
 BYTE   W72
 BYTE   W72
// 032   ----------------------------------------
 BYTE   W72
 BYTE   W72
// 033   ----------------------------------------
 BYTE   W72
 BYTE   W72
// 034   ----------------------------------------
 BYTE   W72
 BYTE   W72
// 035   ----------------------------------------
 BYTE   W72
 BYTE   W72
// 036   ----------------------------------------
 BYTE   W72
 BYTE   W72
// 037   ----------------------------------------
 BYTE   W72
 BYTE   W96
// 038   ----------------------------------------
 BYTE   W72
 BYTE   W72
// 039   ----------------------------------------
 BYTE   W72
 BYTE   W72
// 040   ----------------------------------------
 BYTE   W72
 BYTE   W72
// 041   ----------------------------------------
 BYTE   W72
 BYTE   W96
// 042   ----------------------------------------
 BYTE   W24
 BYTE   W96
// 043   ----------------------------------------
 BYTE   W24
 BYTE   W72
// 044   ----------------------------------------
 BYTE   W72
 BYTE   W72
// 045   ----------------------------------------
 BYTE   W72
 BYTE   W72
// 046   ----------------------------------------
 BYTE   W96
// 047   ----------------------------------------
 BYTE   W72
 BYTE   W72
// 048   ----------------------------------------
 BYTE   W72
 BYTE   W72
// 049   ----------------------------------------
 BYTE   W72
 BYTE   W72
// 050   ----------------------------------------
 BYTE   W72
 BYTE   W96
// 051   ----------------------------------------
 BYTE   W24
 BYTE   W96
// 052   ----------------------------------------
 BYTE   W24
 BYTE   W72
// 053   ----------------------------------------
 BYTE   W72
 BYTE   W72
// 054   ----------------------------------------
 BYTE   W72
 BYTE   W72
// 055   ----------------------------------------
 BYTE   W72
 BYTE   W72
// 056   ----------------------------------------
 BYTE   W72
 BYTE   W96
// 057   ----------------------------------------
 BYTE   W24
 BYTE   W96
// 058   ----------------------------------------
 BYTE   W24
 BYTE   W72
// 059   ----------------------------------------
 BYTE   W72
 BYTE   W72
// 060   ----------------------------------------
 BYTE   W72
 BYTE   PATT
  POIN2 Label_5_018FDB82
// 061   ----------------------------------------
 BYTE   N09  As3  v100
 BYTE   W12
 BYTE   Cn4
 BYTE   W12
 BYTE   N21  Dn4
 BYTE   W24
 BYTE   N09  As3  v072
 BYTE   W12
 BYTE   Cn4
 BYTE   W12
 BYTE   N21  Dn4
 BYTE   W24
// 062   ----------------------------------------
 BYTE   N09  As3
 BYTE   W12
 BYTE   Dn4
 BYTE   W12
 BYTE   Cn4  v100
 BYTE   W12
 BYTE   N03
 BYTE   W06
 BYTE   N03
 BYTE   W06
 BYTE   N09
 BYTE   W12
 BYTE   Dn4
 BYTE   W12
 BYTE   Cn4
 BYTE   W12
 BYTE   Dn4
 BYTE   W12
 BYTE   PATT
  POIN2 Label_5_018FDC24
// 063   ----------------------------------------
 BYTE   N09  Dn4  v100
 BYTE   W12
 BYTE   Cn4
 BYTE   W12
 BYTE   N21  As3
 BYTE   W24
 BYTE   N09  Dn4  v072
 BYTE   W12
 BYTE   Cn4
 BYTE   W12
 BYTE   N21  As3
 BYTE   W24
// 064   ----------------------------------------
 BYTE   N09  Dn4
 BYTE   W12
 BYTE   As3
 BYTE   W12
 BYTE   W72
// 065   ----------------------------------------
 BYTE   W72
 BYTE   W72
// 066   ----------------------------------------
 BYTE   W72
 BYTE   W72
// 067   ----------------------------------------
 BYTE   W72
 BYTE   W72
// 068   ----------------------------------------
 BYTE   W72
 BYTE   W72
// 069   ----------------------------------------
 BYTE   W72
 BYTE   W72
// 070   ----------------------------------------
 BYTE   W72
 BYTE   W24
// 071   ----------------------------------------
 BYTE   GoTo
  POIN2 Label_5_018FDB4C
 BYTE   FINE

//**************** Track 7 (Midi-Chn.6) ****************//

KirbySuperStarSagaVsMarxDolkar_007:
// 000   ----------------------------------------
 BYTE   VOL   80*KirbySuperStarSagaVsMarxDolkar_mvl/mxv
 BYTE   KEYSH   KirbySuperStarSagaVsMarxDolkar_key+0
Label_6_018FDD44:
 BYTE   VOICE   57
 BYTE   PAN   c_v+24
 BYTE   W72
 BYTE   W72
// 001   ----------------------------------------
 BYTE   W72
 BYTE   W72
// 002   ----------------------------------------
 BYTE   W72
 BYTE   W96
// 003   ----------------------------------------
 BYTE   W72
 BYTE   W72
// 004   ----------------------------------------
 BYTE   W72
 BYTE   W72
// 005   ----------------------------------------
 BYTE   W72
 BYTE   W72
// 006   ----------------------------------------
 BYTE   W72
 BYTE   W96
// 007   ----------------------------------------
 BYTE   W24
 BYTE   W96
// 008   ----------------------------------------
 BYTE   W24
 BYTE   W72
// 009   ----------------------------------------
 BYTE   W72
 BYTE   W72
// 010   ----------------------------------------
 BYTE   W72
 BYTE   W72
// 011   ----------------------------------------
 BYTE   W96
// 012   ----------------------------------------
 BYTE   W72
 BYTE   W72
// 013   ----------------------------------------
 BYTE   W72
 BYTE   W72
// 014   ----------------------------------------
 BYTE   W72
 BYTE   W72
// 015   ----------------------------------------
 BYTE   W72
 BYTE   W96
// 016   ----------------------------------------
 BYTE   W24
 BYTE   W96
// 017   ----------------------------------------
 BYTE   W24
 BYTE   W72
// 018   ----------------------------------------
 BYTE   W72
 BYTE   W72
// 019   ----------------------------------------
 BYTE   W72
 BYTE   W72
// 020   ----------------------------------------
 BYTE   W72
 BYTE   W72
// 021   ----------------------------------------
 BYTE   W72
 BYTE   W96
// 022   ----------------------------------------
 BYTE   W24
 BYTE   W96
// 023   ----------------------------------------
 BYTE   W24
 BYTE   W72
// 024   ----------------------------------------
 BYTE   W72
 BYTE   W72
// 025   ----------------------------------------
 BYTE   W72
Label_6_018FDD7A:
 BYTE   N09  Gn3  v100
 BYTE   W12
 BYTE   N03
 BYTE   W06
 BYTE   N03
 BYTE   W06
// 026   ----------------------------------------
 BYTE   N09
 BYTE   W12
 BYTE   N09
 BYTE   W12
 BYTE   N09
 BYTE   W12
 BYTE   As3
 BYTE   W12
 BYTE   N21  Cn4
 BYTE   W24
 BYTE   N09  As3
 BYTE   W12
 BYTE   Gn3
 BYTE   W12
 BYTE   PEND 
// 027   ----------------------------------------
 BYTE   Fn3
 BYTE   W12
 BYTE   Gn3
 BYTE   W12
 BYTE   N21  As3
 BYTE   W24
 BYTE   PAN   c_v+24
 BYTE   N09  Fn3  v072
 BYTE   W01
 BYTE   PAN   c_v+23
 BYTE   W02
 BYTE   Dn5
 BYTE   W01
 BYTE   Cs5
 BYTE   W02
 BYTE   Cn5
 BYTE   W01
 BYTE   Bn4
 BYTE   W02
 BYTE   As4
 BYTE   W01
 BYTE   An4
 BYTE   W02
 BYTE   Gs4
 BYTE   N09  Gn3
 BYTE   W01
 BYTE   PAN   c_v+15
 BYTE   W02
 BYTE   Fs4
 BYTE   W02
 BYTE   Fn4
 BYTE   W01
 BYTE   En4
 BYTE   W02
 BYTE   Ds4
 BYTE   W01
 BYTE   Dn4
 BYTE   W02
 BYTE   Cs4
 BYTE   W01
 BYTE   Cn4
 BYTE   N21  As3
 BYTE   W01
 BYTE   PAN   c_v+7
 BYTE   W02
 BYTE   As3
 BYTE   W01
 BYTE   An3
 BYTE   W02
 BYTE   Gs3
 BYTE   W01
 BYTE   Gn3
 BYTE   W02
 BYTE   Fs3
 BYTE   W01
 BYTE   Fn3
 BYTE   W02
 BYTE   En3
 BYTE   W01
 BYTE   Ds3
 BYTE   W02
 BYTE   Dn3
 BYTE   W02
 BYTE   Cs3
 BYTE   W01
 BYTE   Cn3
 BYTE   W02
 BYTE   Bn2
 BYTE   W01
 BYTE   As2
 BYTE   W02
 BYTE   An2
 BYTE   W01
// 028   ----------------------------------------
 BYTE   Gs2
 BYTE   N09  Fn3
 BYTE   W01
 BYTE   PAN   c_v-9
 BYTE   W02
 BYTE   Fs2
 BYTE   W01
 BYTE   Fn2
 BYTE   W02
 BYTE   En2
 BYTE   W01
 BYTE   Ds2
 BYTE   W02
 BYTE   Dn2
 BYTE   W01
 BYTE   Cs2
 BYTE   W02
 BYTE   Cn2
 BYTE   N09  As3
 BYTE   W01
 BYTE   PAN   c_v-17
 BYTE   W02
 BYTE   As1
 BYTE   W02
 BYTE   An1
 BYTE   W01
 BYTE   Gs1
 BYTE   W02
 BYTE   Gn1
 BYTE   W01
 BYTE   Fs1
 BYTE   W02
 BYTE   Fn1
 BYTE   W01
 BYTE   En1
 BYTE   N09  Gn3  v100
 BYTE   W12
 BYTE   N03
 BYTE   W06
 BYTE   N03
 BYTE   W06
 BYTE   N09
 BYTE   W12
 BYTE   N09
 BYTE   W12
 BYTE   N09
 BYTE   W12
 BYTE   As3
 BYTE   W12
// 029   ----------------------------------------
Label_6_018FDE1C:
 BYTE   N09  Cn4  v100
 BYTE   W12
 BYTE   Dn4
 BYTE   W12
 BYTE   N21  Ds4
 BYTE   W24
 BYTE   N09  Dn4
 BYTE   W12
 BYTE   Cn4
 BYTE   W12
 BYTE   PEND 
 BYTE   As3
 BYTE   W12
 BYTE   An3
 BYTE   W12
// 030   ----------------------------------------
 BYTE   N21  Gn3
 BYTE   W24
 BYTE   PAN   c_v-24
 BYTE   N09  As3  v072
 BYTE   W01
 BYTE   PAN   c_v-23
 BYTE   W02
 BYTE   Fs1
 BYTE   W01
 BYTE   Gn1
 BYTE   W02
 BYTE   Gs1
 BYTE   W01
 BYTE   An1
 BYTE   W02
 BYTE   As1
 BYTE   W01
 BYTE   Bn1
 BYTE   W02
 BYTE   Cn2
 BYTE   N09  Gn3
 BYTE   W01
 BYTE   PAN   c_v-15
 BYTE   W02
 BYTE   Dn2
 BYTE   W02
 BYTE   Ds2
 BYTE   W01
 BYTE   En2
 BYTE   W02
 BYTE   Fn2
 BYTE   W01
 BYTE   Fs2
 BYTE   W02
 BYTE   Gn2
 BYTE   W01
 BYTE   Gs2
 BYTE   N21  Fn3
 BYTE   W01
 BYTE   PAN   c_v-7
 BYTE   W02
 BYTE   As2
 BYTE   W01
 BYTE   Bn2
 BYTE   W02
 BYTE   Cn3
 BYTE   W01
 BYTE   Cs3
 BYTE   W02
 BYTE   Dn3
 BYTE   W01
 BYTE   Ds3
 BYTE   W02
 BYTE   En3
 BYTE   W01
 BYTE   Fn3
 BYTE   W02
 BYTE   Fs3
 BYTE   W02
 BYTE   Gn3
 BYTE   W01
 BYTE   Gs3
 BYTE   W02
 BYTE   An3
 BYTE   W01
 BYTE   As3
 BYTE   W02
 BYTE   Bn3
 BYTE   W01
 BYTE   Cn4
 BYTE   N09  As3
 BYTE   W01
 BYTE   PAN   c_v+9
 BYTE   W02
 BYTE   Dn4
 BYTE   W01
 BYTE   Ds4
 BYTE   W02
 BYTE   En4
 BYTE   W01
 BYTE   Fn4
 BYTE   W02
 BYTE   Fs4
 BYTE   W01
 BYTE   Gn4
 BYTE   W02
 BYTE   Gs4
 BYTE   N09  Fn3
 BYTE   W01
 BYTE   PAN   c_v+17
 BYTE   W02
 BYTE   As4
 BYTE   W02
 BYTE   Bn4
 BYTE   W01
 BYTE   Cn5
 BYTE   W02
 BYTE   Cs5
 BYTE   W01
 BYTE   Dn5
 BYTE   W02
 BYTE   Ds5
 BYTE   W01
// 031   ----------------------------------------
 BYTE   En5
 BYTE   W72
 BYTE   W72
// 032   ----------------------------------------
 BYTE   W72
 BYTE   W72
// 033   ----------------------------------------
 BYTE   W72
 BYTE   W72
// 034   ----------------------------------------
 BYTE   W72
 BYTE   W72
// 035   ----------------------------------------
 BYTE   W72
 BYTE   W72
// 036   ----------------------------------------
 BYTE   W72
 BYTE   W72
// 037   ----------------------------------------
 BYTE   W72
 BYTE   W96
// 038   ----------------------------------------
 BYTE   W72
 BYTE   W72
// 039   ----------------------------------------
 BYTE   W72
 BYTE   W72
// 040   ----------------------------------------
 BYTE   W72
 BYTE   W72
// 041   ----------------------------------------
 BYTE   W72
 BYTE   W96
// 042   ----------------------------------------
 BYTE   W24
 BYTE   W96
// 043   ----------------------------------------
 BYTE   W24
 BYTE   W72
// 044   ----------------------------------------
 BYTE   W72
 BYTE   W72
// 045   ----------------------------------------
 BYTE   W72
 BYTE   W72
// 046   ----------------------------------------
 BYTE   W96
// 047   ----------------------------------------
 BYTE   W72
 BYTE   W72
// 048   ----------------------------------------
 BYTE   W72
 BYTE   W72
// 049   ----------------------------------------
 BYTE   W72
 BYTE   W72
// 050   ----------------------------------------
 BYTE   W72
 BYTE   W96
// 051   ----------------------------------------
 BYTE   W24
 BYTE   W96
// 052   ----------------------------------------
 BYTE   W24
 BYTE   W72
// 053   ----------------------------------------
 BYTE   W72
 BYTE   W72
// 054   ----------------------------------------
 BYTE   W72
 BYTE   W72
// 055   ----------------------------------------
 BYTE   W72
 BYTE   W72
// 056   ----------------------------------------
 BYTE   W72
 BYTE   W96
// 057   ----------------------------------------
 BYTE   W24
 BYTE   W96
// 058   ----------------------------------------
 BYTE   W24
 BYTE   W72
// 059   ----------------------------------------
 BYTE   W72
 BYTE   W72
// 060   ----------------------------------------
 BYTE   W72
 BYTE   PATT
  POIN2 Label_6_018FDD7A
// 061   ----------------------------------------
 BYTE   N09  Fn3  v100
 BYTE   W12
 BYTE   Gn3
 BYTE   W12
 BYTE   N21  As3
 BYTE   W24
 BYTE   N09  Fn3  v072
 BYTE   W12
 BYTE   Gn3
 BYTE   W12
 BYTE   N21  As3
 BYTE   W24
// 062   ----------------------------------------
 BYTE   N09  Fn3
 BYTE   W12
 BYTE   As3
 BYTE   W12
 BYTE   Gn3  v100
 BYTE   W12
 BYTE   N03
 BYTE   W06
 BYTE   N03
 BYTE   W06
 BYTE   N09
 BYTE   W12
 BYTE   N09
 BYTE   W12
 BYTE   N09
 BYTE   W12
 BYTE   As3
 BYTE   W12
 BYTE   PATT
  POIN2 Label_6_018FDE1C
// 063   ----------------------------------------
 BYTE   N09  As3  v100
 BYTE   W12
 BYTE   An3
 BYTE   W12
 BYTE   N21  Gn3
 BYTE   W24
 BYTE   N09  As3  v072
 BYTE   W12
 BYTE   Gn3
 BYTE   W12
 BYTE   N21  Fn3
 BYTE   W24
// 064   ----------------------------------------
 BYTE   N09  As3
 BYTE   W12
 BYTE   Fn3
 BYTE   W12
 BYTE   W72
// 065   ----------------------------------------
 BYTE   W72
 BYTE   W72
// 066   ----------------------------------------
 BYTE   W72
 BYTE   W72
// 067   ----------------------------------------
 BYTE   W72
 BYTE   W72
// 068   ----------------------------------------
 BYTE   W72
 BYTE   W72
// 069   ----------------------------------------
 BYTE   W72
 BYTE   W72
// 070   ----------------------------------------
 BYTE   W72
 BYTE   W24
// 071   ----------------------------------------
 BYTE   GoTo
  POIN2 Label_6_018FDD44
 BYTE   FINE

//**************** Track 8 (Midi-Chn.7) ****************//

KirbySuperStarSagaVsMarxDolkar_008:
// 000   ----------------------------------------
 BYTE   VOL   80*KirbySuperStarSagaVsMarxDolkar_mvl/mxv
 BYTE   KEYSH   KirbySuperStarSagaVsMarxDolkar_key+0
Label_7_018FDF3C:
 BYTE   VOICE   59
 BYTE   PAN   c_v-24
 BYTE   W72
 BYTE   W72
// 001   ----------------------------------------
 BYTE   W72
 BYTE   W72
// 002   ----------------------------------------
 BYTE   W72
 BYTE   W96
// 003   ----------------------------------------
 BYTE   W72
 BYTE   W72
// 004   ----------------------------------------
 BYTE   W72
 BYTE   W72
// 005   ----------------------------------------
 BYTE   W72
 BYTE   W72
// 006   ----------------------------------------
 BYTE   W72
 BYTE   W96
// 007   ----------------------------------------
 BYTE   W24
 BYTE   W96
// 008   ----------------------------------------
 BYTE   W24
 BYTE   W72
// 009   ----------------------------------------
 BYTE   W72
 BYTE   W72
// 010   ----------------------------------------
 BYTE   W72
 BYTE   W72
// 011   ----------------------------------------
 BYTE   W96
// 012   ----------------------------------------
 BYTE   W72
 BYTE   W72
// 013   ----------------------------------------
 BYTE   W72
 BYTE   W72
// 014   ----------------------------------------
 BYTE   W72
 BYTE   W72
// 015   ----------------------------------------
 BYTE   W72
 BYTE   W96
// 016   ----------------------------------------
 BYTE   W24
 BYTE   W96
// 017   ----------------------------------------
 BYTE   W24
 BYTE   W72
// 018   ----------------------------------------
 BYTE   W72
 BYTE   W72
// 019   ----------------------------------------
 BYTE   W72
 BYTE   W72
// 020   ----------------------------------------
 BYTE   W72
 BYTE   W72
// 021   ----------------------------------------
 BYTE   W72
 BYTE   W96
// 022   ----------------------------------------
 BYTE   W24
 BYTE   W96
// 023   ----------------------------------------
 BYTE   W24
 BYTE   W72
// 024   ----------------------------------------
 BYTE   W72
 BYTE   W72
// 025   ----------------------------------------
 BYTE   W72
 BYTE   W96
// 026   ----------------------------------------
 BYTE   W24
 BYTE   W96
// 027   ----------------------------------------
 BYTE   W24
 BYTE   W72
// 028   ----------------------------------------
 BYTE   W72
 BYTE   W96
// 029   ----------------------------------------
 BYTE   W24
Label_7_018FDF7A:
 BYTE   N09  Gs3  v100
 BYTE   W12
 BYTE   N03
 BYTE   W06
 BYTE   N03
 BYTE   W06
 BYTE   N09
 BYTE   W12
 BYTE   N09
 BYTE   W12
 BYTE   N09
 BYTE   W12
 BYTE   As3
 BYTE   W12
 BYTE   PEND 
// 030   ----------------------------------------
Label_7_018FDF8B:
 BYTE   N21  Cn4  v100
 BYTE   W24
 BYTE   N21
 BYTE   W24
 BYTE   N09  As3
 BYTE   W12
 BYTE   Gs3
 BYTE   W12
 BYTE   PEND 
Label_7_018FDF97:
 BYTE   N09  Gn3  v100
 BYTE   W12
 BYTE   Fn3
 BYTE   W12
// 031   ----------------------------------------
 BYTE   N21  Gn3
 BYTE   W48
 BYTE   PEND 
 BYTE   W72
// 032   ----------------------------------------
 BYTE   W72
 BYTE   W72
// 033   ----------------------------------------
 BYTE   W72
 BYTE   W72
// 034   ----------------------------------------
 BYTE   W72
 BYTE   W72
// 035   ----------------------------------------
 BYTE   W72
 BYTE   W72
// 036   ----------------------------------------
 BYTE   W72
 BYTE   W96
// 037   ----------------------------------------
 BYTE   W72
 BYTE   W72
// 038   ----------------------------------------
 BYTE   W72
 BYTE   W72
// 039   ----------------------------------------
 BYTE   W72
 BYTE   W72
// 040   ----------------------------------------
 BYTE   W72
 BYTE   W96
// 041   ----------------------------------------
 BYTE   W24
 BYTE   W96
// 042   ----------------------------------------
 BYTE   W24
 BYTE   W72
// 043   ----------------------------------------
 BYTE   W72
 BYTE   W72
// 044   ----------------------------------------
 BYTE   W72
 BYTE   W72
// 045   ----------------------------------------
 BYTE   W96
// 046   ----------------------------------------
 BYTE   W72
 BYTE   W72
// 047   ----------------------------------------
 BYTE   W72
 BYTE   W72
// 048   ----------------------------------------
 BYTE   W72
 BYTE   W72
// 049   ----------------------------------------
 BYTE   W72
 BYTE   W96
// 050   ----------------------------------------
 BYTE   W24
 BYTE   W96
// 051   ----------------------------------------
 BYTE   W24
 BYTE   W72
// 052   ----------------------------------------
 BYTE   W72
 BYTE   W72
// 053   ----------------------------------------
 BYTE   W72
 BYTE   W72
// 054   ----------------------------------------
 BYTE   W72
 BYTE   W72
// 055   ----------------------------------------
 BYTE   W72
 BYTE   W96
// 056   ----------------------------------------
 BYTE   W24
 BYTE   W96
// 057   ----------------------------------------
 BYTE   W24
 BYTE   W72
// 058   ----------------------------------------
 BYTE   W72
 BYTE   W72
// 059   ----------------------------------------
 BYTE   W72
 BYTE   W96
// 060   ----------------------------------------
 BYTE   W24
 BYTE   W96
// 061   ----------------------------------------
 BYTE   W24
 BYTE   W72
// 062   ----------------------------------------
 BYTE   W72
 BYTE   W96
// 063   ----------------------------------------
 BYTE   W24
 BYTE   PATT
  POIN2 Label_7_018FDF7A
 BYTE   PATT
  POIN2 Label_7_018FDF8B
 BYTE   PATT
  POIN2 Label_7_018FDF97
// 064   ----------------------------------------
 BYTE   W72
 BYTE   W72
// 065   ----------------------------------------
 BYTE   W72
 BYTE   W72
// 066   ----------------------------------------
 BYTE   W72
 BYTE   W72
// 067   ----------------------------------------
 BYTE   W72
 BYTE   W72
// 068   ----------------------------------------
 BYTE   W72
 BYTE   W24
// 069   ----------------------------------------
 BYTE   GoTo
  POIN2 Label_7_018FDF3C
 BYTE   FINE

//**************** Track 9 (Midi-Chn.8) ****************//

KirbySuperStarSagaVsMarxDolkar_009:
// 000   ----------------------------------------
 BYTE   VOL   80*KirbySuperStarSagaVsMarxDolkar_mvl/mxv
 BYTE   KEYSH   KirbySuperStarSagaVsMarxDolkar_key+0
Label_8_018FE004:
 BYTE   VOICE   59
 BYTE   PAN   c_v+24
 BYTE   W72
 BYTE   W72
// 001   ----------------------------------------
 BYTE   W72
 BYTE   W72
// 002   ----------------------------------------
 BYTE   W72
 BYTE   W96
// 003   ----------------------------------------
 BYTE   W72
 BYTE   W72
// 004   ----------------------------------------
 BYTE   W72
 BYTE   W72
// 005   ----------------------------------------
 BYTE   W72
 BYTE   W72
// 006   ----------------------------------------
 BYTE   W72
 BYTE   W96
// 007   ----------------------------------------
 BYTE   W24
 BYTE   W96
// 008   ----------------------------------------
 BYTE   W24
 BYTE   W72
// 009   ----------------------------------------
 BYTE   W72
 BYTE   W72
// 010   ----------------------------------------
 BYTE   W72
 BYTE   W72
// 011   ----------------------------------------
 BYTE   W96
// 012   ----------------------------------------
 BYTE   W72
 BYTE   W72
// 013   ----------------------------------------
 BYTE   W72
 BYTE   W72
// 014   ----------------------------------------
 BYTE   W72
 BYTE   W72
// 015   ----------------------------------------
 BYTE   W72
 BYTE   W96
// 016   ----------------------------------------
 BYTE   W24
 BYTE   W96
// 017   ----------------------------------------
 BYTE   W24
 BYTE   W72
// 018   ----------------------------------------
 BYTE   W72
 BYTE   W72
// 019   ----------------------------------------
 BYTE   W72
 BYTE   W72
// 020   ----------------------------------------
 BYTE   W72
 BYTE   W72
// 021   ----------------------------------------
 BYTE   W72
 BYTE   W96
// 022   ----------------------------------------
 BYTE   W24
 BYTE   W96
// 023   ----------------------------------------
 BYTE   W24
 BYTE   W72
// 024   ----------------------------------------
 BYTE   W72
 BYTE   W72
// 025   ----------------------------------------
 BYTE   W72
 BYTE   W96
// 026   ----------------------------------------
 BYTE   W24
 BYTE   W96
// 027   ----------------------------------------
 BYTE   W24
 BYTE   W72
// 028   ----------------------------------------
 BYTE   W72
 BYTE   W96
// 029   ----------------------------------------
 BYTE   W24
Label_8_018FE042:
 BYTE   N09  Ds3  v100
 BYTE   W12
 BYTE   N03
 BYTE   W06
 BYTE   N03
 BYTE   W06
 BYTE   N09
 BYTE   W12
 BYTE   N09
 BYTE   W12
 BYTE   N09
 BYTE   W12
 BYTE   Fn3
 BYTE   W12
 BYTE   PEND 
// 030   ----------------------------------------
Label_8_018FE053:
 BYTE   N21  Gs3  v100
 BYTE   W24
 BYTE   N21
 BYTE   W24
 BYTE   N09  Fn3
 BYTE   W12
 BYTE   Ds3
 BYTE   W12
 BYTE   PEND 
Label_8_018FE05F:
 BYTE   N09  Ds3  v100
 BYTE   W12
 BYTE   Dn3
 BYTE   W12
// 031   ----------------------------------------
 BYTE   N21  Ds3
 BYTE   W48
 BYTE   PEND 
 BYTE   W72
// 032   ----------------------------------------
 BYTE   W72
 BYTE   W72
// 033   ----------------------------------------
 BYTE   W72
 BYTE   W72
// 034   ----------------------------------------
 BYTE   W72
 BYTE   W72
// 035   ----------------------------------------
 BYTE   W72
 BYTE   W72
// 036   ----------------------------------------
 BYTE   W72
 BYTE   W96
// 037   ----------------------------------------
 BYTE   W72
 BYTE   W72
// 038   ----------------------------------------
 BYTE   W72
 BYTE   W72
// 039   ----------------------------------------
 BYTE   W72
 BYTE   W72
// 040   ----------------------------------------
 BYTE   W72
 BYTE   W96
// 041   ----------------------------------------
 BYTE   W24
 BYTE   W96
// 042   ----------------------------------------
 BYTE   W24
 BYTE   W72
// 043   ----------------------------------------
 BYTE   W72
 BYTE   W72
// 044   ----------------------------------------
 BYTE   W72
 BYTE   W72
// 045   ----------------------------------------
 BYTE   W96
// 046   ----------------------------------------
 BYTE   W72
 BYTE   W72
// 047   ----------------------------------------
 BYTE   W72
 BYTE   W72
// 048   ----------------------------------------
 BYTE   W72
 BYTE   W72
// 049   ----------------------------------------
 BYTE   W72
 BYTE   W96
// 050   ----------------------------------------
 BYTE   W24
 BYTE   W96
// 051   ----------------------------------------
 BYTE   W24
 BYTE   W72
// 052   ----------------------------------------
 BYTE   W72
 BYTE   W72
// 053   ----------------------------------------
 BYTE   W72
 BYTE   W72
// 054   ----------------------------------------
 BYTE   W72
 BYTE   W72
// 055   ----------------------------------------
 BYTE   W72
 BYTE   W96
// 056   ----------------------------------------
 BYTE   W24
 BYTE   W96
// 057   ----------------------------------------
 BYTE   W24
 BYTE   W72
// 058   ----------------------------------------
 BYTE   W72
 BYTE   W72
// 059   ----------------------------------------
 BYTE   W72
 BYTE   W96
// 060   ----------------------------------------
 BYTE   W24
 BYTE   W96
// 061   ----------------------------------------
 BYTE   W24
 BYTE   W72
// 062   ----------------------------------------
 BYTE   W72
 BYTE   W96
// 063   ----------------------------------------
 BYTE   W24
 BYTE   PATT
  POIN2 Label_8_018FE042
 BYTE   PATT
  POIN2 Label_8_018FE053
 BYTE   PATT
  POIN2 Label_8_018FE05F
// 064   ----------------------------------------
 BYTE   W72
 BYTE   W72
// 065   ----------------------------------------
 BYTE   W72
 BYTE   W72
// 066   ----------------------------------------
 BYTE   W72
 BYTE   W72
// 067   ----------------------------------------
 BYTE   W72
 BYTE   W72
// 068   ----------------------------------------
 BYTE   W72
 BYTE   W24
// 069   ----------------------------------------
 BYTE   GoTo
  POIN2 Label_8_018FE004
 BYTE   FINE

//**************** Track 10 (Midi-Chn.9) ****************//

KirbySuperStarSagaVsMarxDolkar_010:
// 000   ----------------------------------------
 BYTE   KEYSH   KirbySuperStarSagaVsMarxDolkar_key+0
Label_9_018FE0CA:
 BYTE   VOL   25*KirbySuperStarSagaVsMarxDolkar_mvl/mxv
 BYTE   W03
 BYTE   N03  En1  v092
 BYTE   W06
 BYTE   En1  v080
 BYTE   W06
 BYTE   En1  v072
 BYTE   W06
 BYTE   En1  v100
 BYTE   W06
 BYTE   En1  v092
 BYTE   W06
 BYTE   En1  v080
 BYTE   W06
 BYTE   En1  v072
 BYTE   W06
 BYTE   En1  v100
 BYTE   W06
 BYTE   En1  v092
 BYTE   W06
 BYTE   En1  v080
 BYTE   W06
 BYTE   En1  v072
 BYTE   W06
 BYTE   En1  v100
 BYTE   W03
 BYTE   W03
 BYTE   En1  v092
 BYTE   W06
 BYTE   En1  v080
 BYTE   W06
 BYTE   En1  v072
 BYTE   W06
 BYTE   En1  v100
 BYTE   W06
// 001   ----------------------------------------
 BYTE   En1  v092
 BYTE   W06
 BYTE   En1  v080
 BYTE   W06
 BYTE   En1  v072
 BYTE   W06
 BYTE   En1  v100
 BYTE   W06
 BYTE   En1  v092
 BYTE   W06
 BYTE   En1  v080
 BYTE   W06
 BYTE   En1  v072
 BYTE   W06
 BYTE   En1  v100
 BYTE   W03
 BYTE   W03
 BYTE   En1  v092
 BYTE   W06
 BYTE   En1  v080
 BYTE   W06
 BYTE   En1  v072
 BYTE   W06
 BYTE   En1  v100
 BYTE   W06
 BYTE   En1  v092
 BYTE   W06
 BYTE   En1  v080
 BYTE   W06
 BYTE   En1  v072
 BYTE   W06
 BYTE   En1  v100
 BYTE   W06
// 002   ----------------------------------------
 BYTE   En1  v092
 BYTE   W06
 BYTE   En1  v080
 BYTE   W06
 BYTE   En1  v072
 BYTE   W06
 BYTE   VOL   24*KirbySuperStarSagaVsMarxDolkar_mvl/mxv
 BYTE   N03  En1  v100
 BYTE   W01
 BYTE   VOL   25*KirbySuperStarSagaVsMarxDolkar_mvl/mxv
 BYTE   W01
 BYTE   Cs0
 BYTE   W01
 BYTE   W01
 BYTE   Ds0
 BYTE   W02
 BYTE   Ds0
 BYTE   N03  En1  v092
 BYTE   W01
 BYTE   VOL   28*KirbySuperStarSagaVsMarxDolkar_mvl/mxv
 BYTE   W01
 BYTE   En0
 BYTE   W01
 BYTE   Fn0
 BYTE   W01
 BYTE   Fs0
 BYTE   W01
 BYTE   Fs0
 BYTE   W01
 BYTE   Gn0
 BYTE   N03  En1  v080
 BYTE   W02
 BYTE   VOL   32*KirbySuperStarSagaVsMarxDolkar_mvl/mxv
 BYTE   W01
 BYTE   Gs0
 BYTE   W01
 BYTE   An0
 BYTE   W01
 BYTE   As0
 BYTE   W01
 BYTE   As0
 BYTE   N03  En1  v072
 BYTE   W01
 BYTE   VOL   35*KirbySuperStarSagaVsMarxDolkar_mvl/mxv
 BYTE   W01
 BYTE   Bn0
 BYTE   W02
 BYTE   Cs1
 BYTE   W02
 BYTE   Cs1
 BYTE   N03  En1  v100
 BYTE   W01
 BYTE   VOL   38*KirbySuperStarSagaVsMarxDolkar_mvl/mxv
 BYTE   W01
 BYTE   Ds1
 BYTE   W01
 BYTE   Ds1
 BYTE   W01
 BYTE   En1
 BYTE   W02
 BYTE   Fn1
 BYTE   N03  En1  v092
 BYTE   W02
 BYTE   VOL   42*KirbySuperStarSagaVsMarxDolkar_mvl/mxv
 BYTE   W01
 BYTE   Fs1
 BYTE   W01
 BYTE   Gn1
 BYTE   W01
 BYTE   Gs1
 BYTE   W01
 BYTE   Gs1
 BYTE   N03  En1  v080
 BYTE   W02
 BYTE   VOL   45*KirbySuperStarSagaVsMarxDolkar_mvl/mxv
 BYTE   W02
 BYTE   As1
 BYTE   W01
 BYTE   Bn1
 BYTE   W01
 BYTE   Bn1
 BYTE   N03  En1  v072
 BYTE   W01
 BYTE   VOL   48*KirbySuperStarSagaVsMarxDolkar_mvl/mxv
 BYTE   W01
 BYTE   Cs2
 BYTE   W01
 BYTE   Cs2
 BYTE   W01
 BYTE   Dn2
 BYTE   W02
 BYTE   Ds2
 BYTE   W01
 BYTE   Ds2
 BYTE   W01
 BYTE   En2
 BYTE   W01
 BYTE   En2
 BYTE   W01
 BYTE   Fn2
 BYTE   W01
 BYTE   Fs2
 BYTE   W01
 BYTE   Fs2
 BYTE   W02
 BYTE   Gs2
 BYTE   W02
 BYTE   Gs2
 BYTE   W01
 BYTE   An2
 BYTE   W01
 BYTE   An2
 BYTE   W01
 BYTE   As2
 BYTE   W01
 BYTE   Bn2
 BYTE   W02
 BYTE   Cn3
 BYTE   W02
 BYTE   Cs3
 BYTE   W01
 BYTE   Cs3
 BYTE   W01
 BYTE   Cs3
 BYTE   W02
 BYTE   Cs3
 BYTE   W02
 BYTE   Cs1
 BYTE   W03
 BYTE   W15
// 003   ----------------------------------------
 BYTE   N03
 BYTE   W06
 BYTE   En1  v100
 BYTE   W12
 BYTE   En1  v080
 BYTE   W06
 BYTE   En1  v072
 BYTE   W06
 BYTE   En1  v100
 BYTE   W12
 BYTE   En1  v080
 BYTE   W06
 BYTE   En1  v072
 BYTE   W09
Label_9_018FE1E2:
 BYTE   N03  En1  v100
 BYTE   W12
 BYTE   En1  v080
 BYTE   W06
 BYTE   En1  v072
 BYTE   W06
 BYTE   En1  v100
 BYTE   W06
 BYTE   En1  v092
 BYTE   W06
 BYTE   En1  v080
 BYTE   W06
// 004   ----------------------------------------
 BYTE   En1  v072
 BYTE   W06
 BYTE   En1  v100
 BYTE   W06
 BYTE   En1  v092
 BYTE   W06
 BYTE   En1  v080
 BYTE   W06
 BYTE   En1  v072
 BYTE   W06
 BYTE   En1  v100
 BYTE   W06
 BYTE   En1  v072
 BYTE   W06
 BYTE   En1  v080
 BYTE   W06
 BYTE   En1  v072
 BYTE   W06
 BYTE   PEND 
Label_9_018FE211:
 BYTE   N03  En1  v100
 BYTE   W12
 BYTE   En1  v080
 BYTE   W06
 BYTE   En1  v072
 BYTE   W06
 BYTE   En1  v100
 BYTE   W06
 BYTE   En1  v092
 BYTE   W06
 BYTE   En1  v080
 BYTE   W06
// 005   ----------------------------------------
 BYTE   En1  v072
 BYTE   W06
 BYTE   En1  v100
 BYTE   W06
 BYTE   En1  v092
 BYTE   W06
 BYTE   En1  v080
 BYTE   W06
 BYTE   En1  v072
 BYTE   W06
 BYTE   PEND 
Label_9_018FE234:
 BYTE   N03  En1  v100
 BYTE   W06
 BYTE   En1  v092
 BYTE   W06
 BYTE   En1  v080
 BYTE   W06
 BYTE   En1  v072
 BYTE   W06
 BYTE   En1  v100
 BYTE   W06
 BYTE   En1  v092
 BYTE   W06
 BYTE   En1  v080
 BYTE   W06
 BYTE   En1  v072
 BYTE   W30
 BYTE   PEND 
// 006   ----------------------------------------
Label_9_018FE24E:
 BYTE   W18
 BYTE   N03  En1  v072
 BYTE   W06
 BYTE   En1  v100
 BYTE   W12
 BYTE   En1  v080
 BYTE   W06
 BYTE   En1  v072
 BYTE   W06
 BYTE   En1  v100
 BYTE   W12
 BYTE   En1  v080
 BYTE   W06
 BYTE   En1  v072
 BYTE   W06
 BYTE   PEND 
 BYTE   PATT
  POIN2 Label_9_018FE211
// 007   ----------------------------------------
Label_9_018FE26B:
 BYTE   N03  En1  v100
 BYTE   W06
 BYTE   En1  v072
 BYTE   W06
 BYTE   En1  v080
 BYTE   W06
 BYTE   En1  v072
 BYTE   W06
 BYTE   En1  v100
 BYTE   W12
 BYTE   En1  v080
 BYTE   W06
 BYTE   En1  v072
 BYTE   W06
 BYTE   En1  v100
 BYTE   W06
 BYTE   En1  v092
 BYTE   W06
 BYTE   En1  v080
 BYTE   W06
 BYTE   En1  v072
 BYTE   W06
 BYTE   PEND 
 BYTE   PATT
  POIN2 Label_9_018FE211
 BYTE   PATT
  POIN2 Label_9_018FE234
// 008   ----------------------------------------
Label_9_018FE298:
 BYTE   W18
 BYTE   N03  En1  v072
 BYTE   W06
 BYTE   En1  v100
 BYTE   W12
 BYTE   En1  v080
 BYTE   W06
 BYTE   En1  v072
 BYTE   W06
 BYTE   En1  v100
 BYTE   W12
 BYTE   En1  v080
 BYTE   W06
 BYTE   En1  v072
 BYTE   W06
 BYTE   En1  v100
 BYTE   W12
 BYTE   En1  v080
 BYTE   W06
 BYTE   En1  v072
 BYTE   W30
 BYTE   PEND 
// 009   ----------------------------------------
Label_9_018FE2B9:
 BYTE   W18
 BYTE   N03  En1  v072
 BYTE   W06
 BYTE   En1  v100
 BYTE   W06
 BYTE   En1  v092
 BYTE   W06
 BYTE   En1  v080
 BYTE   W06
 BYTE   En1  v072
 BYTE   W06
 BYTE   En1  v100
 BYTE   W06
 BYTE   En1  v092
 BYTE   W06
 BYTE   En1  v080
 BYTE   W06
 BYTE   En1  v072
 BYTE   W06
 BYTE   En1  v100
 BYTE   W06
 BYTE   En1  v092
 BYTE   W06
 BYTE   En1  v080
 BYTE   W06
 BYTE   En1  v072
 BYTE   W30
 BYTE   PEND 
// 010   ----------------------------------------
Label_9_018FE2E3:
 BYTE   W18
 BYTE   N03  En1  v072
 BYTE   W06
 BYTE   En1  v100
 BYTE   W12
 BYTE   En1  v080
 BYTE   W06
 BYTE   En1  v072
 BYTE   W30
 BYTE   PEND 
 BYTE   PATT
  POIN2 Label_9_018FE2E3
// 011   ----------------------------------------
Label_9_018FE2F7:
 BYTE   W18
 BYTE   N03  En1  v072
 BYTE   W06
 BYTE   En1  v100
 BYTE   W06
 BYTE   En1  v092
 BYTE   W06
 BYTE   En1  v080
 BYTE   W06
 BYTE   En1  v072
 BYTE   W06
 BYTE   En1  v100
 BYTE   W06
 BYTE   En1  v092
 BYTE   W06
 BYTE   En1  v080
 BYTE   W06
 BYTE   En1  v072
 BYTE   W06
 BYTE   PEND 
Label_9_018FE315:
 BYTE   W18
 BYTE   N03  En1  v072
 BYTE   W06
// 012   ----------------------------------------
 BYTE   En1  v100
 BYTE   W06
 BYTE   En1  v092
 BYTE   W06
 BYTE   En1  v080
 BYTE   W06
 BYTE   En1  v072
 BYTE   W30
 BYTE   PEND 
 BYTE   PATT
  POIN2 Label_9_018FE24E
 BYTE   PATT
  POIN2 Label_9_018FE1E2
 BYTE   PATT
  POIN2 Label_9_018FE211
 BYTE   PATT
  POIN2 Label_9_018FE234
 BYTE   PATT
  POIN2 Label_9_018FE24E
 BYTE   PATT
  POIN2 Label_9_018FE211
 BYTE   PATT
  POIN2 Label_9_018FE26B
 BYTE   PATT
  POIN2 Label_9_018FE211
 BYTE   PATT
  POIN2 Label_9_018FE234
 BYTE   PATT
  POIN2 Label_9_018FE298
 BYTE   PATT
  POIN2 Label_9_018FE2B9
 BYTE   PATT
  POIN2 Label_9_018FE2E3
 BYTE   PATT
  POIN2 Label_9_018FE2E3
 BYTE   PATT
  POIN2 Label_9_018FE2F7
 BYTE   PATT
  POIN2 Label_9_018FE315
 BYTE   PATT
  POIN2 Label_9_018FE2F7
 BYTE   PATT
  POIN2 Label_9_018FE2F7
 BYTE   PATT
  POIN2 Label_9_018FE2F7
 BYTE   PATT
  POIN2 Label_9_018FE2F7
 BYTE   PATT
  POIN2 Label_9_018FE2B9
 BYTE   PATT
  POIN2 Label_9_018FE2B9
 BYTE   PATT
  POIN2 Label_9_018FE2F7
 BYTE   PATT
  POIN2 Label_9_018FE315
// 013   ----------------------------------------
Label_9_018FE39A:
 BYTE   W18
 BYTE   N03  En1  v072
 BYTE   W06
 BYTE   En1  v100
 BYTE   W06
 BYTE   En1  v092
 BYTE   W06
 BYTE   En1  v080
 BYTE   W06
 BYTE   En1  v072
 BYTE   W18
 BYTE   En1  v080
 BYTE   W06
 BYTE   En1  v072
 BYTE   W06
 BYTE   PEND 
 BYTE   PATT
  POIN2 Label_9_018FE315
// 014   ----------------------------------------
Label_9_018FE3B7:
 BYTE   W18
 BYTE   N03  En1  v072
 BYTE   W06
 BYTE   En1  v100
 BYTE   W12
 BYTE   En1  v080
 BYTE   W06
 BYTE   En1  v072
 BYTE   W06
 BYTE   En1  v100
 BYTE   W12
 BYTE   En1  v080
 BYTE   W06
 BYTE   En1  v072
 BYTE   W06
 BYTE   En1  v100
 BYTE   W06
 BYTE   En1  v092
 BYTE   W06
 BYTE   En1  v080
 BYTE   W06
 BYTE   En1  v072
 BYTE   W30
 BYTE   PEND 
 BYTE   PATT
  POIN2 Label_9_018FE3B7
 BYTE   PATT
  POIN2 Label_9_018FE24E
// 015   ----------------------------------------
Label_9_018FE3E5:
 BYTE   N03  En1  v100
 BYTE   W12
 BYTE   En1  v080
 BYTE   W06
 BYTE   En1  v072
 BYTE   W06
 BYTE   En1  v100
 BYTE   W06
 BYTE   En1  v092
 BYTE   W06
 BYTE   En1  v080
 BYTE   W06
 BYTE   En1  v072
 BYTE   W30
 BYTE   PEND 
 BYTE   PATT
  POIN2 Label_9_018FE3B7
// 016   ----------------------------------------
Label_9_018FE401:
 BYTE   W18
 BYTE   N03  En1  v072
 BYTE   W06
 BYTE   En1  v100
 BYTE   W12
 BYTE   En1  v080
 BYTE   W06
 BYTE   En1  v072
 BYTE   W18
 BYTE   En1  v080
 BYTE   W06
 BYTE   En1  v072
 BYTE   W06
 BYTE   PEND 
 BYTE   PATT
  POIN2 Label_9_018FE401
 BYTE   PATT
  POIN2 Label_9_018FE401
 BYTE   PATT
  POIN2 Label_9_018FE401
// 017   ----------------------------------------
Label_9_018FE425:
 BYTE   W12
 BYTE   N03  En1  v080
 BYTE   W06
 BYTE   En1  v072
 BYTE   W06
 BYTE   En1  v100
 BYTE   W06
 BYTE   En1  v092
 BYTE   W06
 BYTE   En1  v080
 BYTE   W06
 BYTE   En1  v072
 BYTE   W06
 BYTE   En1  v100
 BYTE   W06
 BYTE   En1  v092
 BYTE   W06
 BYTE   En1  v080
 BYTE   W06
 BYTE   En1  v072
 BYTE   W06
 BYTE   PEND 
 BYTE   PATT
  POIN2 Label_9_018FE234
 BYTE   PATT
  POIN2 Label_9_018FE2F7
 BYTE   PATT
  POIN2 Label_9_018FE234
 BYTE   PATT
  POIN2 Label_9_018FE2F7
// 018   ----------------------------------------
Label_9_018FE45A:
 BYTE   N03  En1  v100
 BYTE   W06
 BYTE   En1  v092
 BYTE   W06
 BYTE   En1  v080
 BYTE   W06
 BYTE   En1  v072
 BYTE   W06
 BYTE   En1  v100
 BYTE   W06
 BYTE   En1  v092
 BYTE   W06
 BYTE   En1  v080
 BYTE   W06
 BYTE   En1  v072
 BYTE   W18
 BYTE   En1  v080
 BYTE   W06
 BYTE   En1  v072
 BYTE   W06
 BYTE   PEND 
 BYTE   PATT
  POIN2 Label_9_018FE315
 BYTE   PATT
  POIN2 Label_9_018FE315
 BYTE   PATT
  POIN2 Label_9_018FE24E
 BYTE   PATT
  POIN2 Label_9_018FE1E2
 BYTE   PATT
  POIN2 Label_9_018FE211
 BYTE   PATT
  POIN2 Label_9_018FE234
 BYTE   PATT
  POIN2 Label_9_018FE24E
 BYTE   PATT
  POIN2 Label_9_018FE211
 BYTE   PATT
  POIN2 Label_9_018FE26B
 BYTE   PATT
  POIN2 Label_9_018FE211
 BYTE   PATT
  POIN2 Label_9_018FE234
 BYTE   PATT
  POIN2 Label_9_018FE298
 BYTE   PATT
  POIN2 Label_9_018FE2B9
 BYTE   PATT
  POIN2 Label_9_018FE2E3
 BYTE   PATT
  POIN2 Label_9_018FE2E3
 BYTE   PATT
  POIN2 Label_9_018FE2F7
 BYTE   PATT
  POIN2 Label_9_018FE315
 BYTE   PATT
  POIN2 Label_9_018FE24E
 BYTE   PATT
  POIN2 Label_9_018FE1E2
 BYTE   PATT
  POIN2 Label_9_018FE211
 BYTE   PATT
  POIN2 Label_9_018FE234
 BYTE   PATT
  POIN2 Label_9_018FE24E
 BYTE   PATT
  POIN2 Label_9_018FE211
 BYTE   PATT
  POIN2 Label_9_018FE26B
 BYTE   PATT
  POIN2 Label_9_018FE211
 BYTE   PATT
  POIN2 Label_9_018FE234
 BYTE   PATT
  POIN2 Label_9_018FE298
 BYTE   PATT
  POIN2 Label_9_018FE2B9
 BYTE   PATT
  POIN2 Label_9_018FE2E3
 BYTE   PATT
  POIN2 Label_9_018FE2E3
 BYTE   PATT
  POIN2 Label_9_018FE2F7
 BYTE   PATT
  POIN2 Label_9_018FE315
 BYTE   PATT
  POIN2 Label_9_018FE2F7
 BYTE   PATT
  POIN2 Label_9_018FE2F7
 BYTE   PATT
  POIN2 Label_9_018FE2F7
 BYTE   PATT
  POIN2 Label_9_018FE2F7
 BYTE   PATT
  POIN2 Label_9_018FE2B9
 BYTE   PATT
  POIN2 Label_9_018FE2B9
 BYTE   PATT
  POIN2 Label_9_018FE2F7
 BYTE   PATT
  POIN2 Label_9_018FE315
 BYTE   PATT
  POIN2 Label_9_018FE39A
 BYTE   PATT
  POIN2 Label_9_018FE315
 BYTE   PATT
  POIN2 Label_9_018FE3B7
 BYTE   PATT
  POIN2 Label_9_018FE3B7
 BYTE   PATT
  POIN2 Label_9_018FE24E
 BYTE   PATT
  POIN2 Label_9_018FE3E5
 BYTE   PATT
  POIN2 Label_9_018FE3B7
 BYTE   PATT
  POIN2 Label_9_018FE401
 BYTE   PATT
  POIN2 Label_9_018FE401
 BYTE   PATT
  POIN2 Label_9_018FE401
 BYTE   PATT
  POIN2 Label_9_018FE401
 BYTE   PATT
  POIN2 Label_9_018FE425
 BYTE   PATT
  POIN2 Label_9_018FE234
 BYTE   PATT
  POIN2 Label_9_018FE2F7
 BYTE   PATT
  POIN2 Label_9_018FE234
 BYTE   PATT
  POIN2 Label_9_018FE2F7
 BYTE   PATT
  POIN2 Label_9_018FE45A
 BYTE   PATT
  POIN2 Label_9_018FE315
 BYTE   PATT
  POIN2 Label_9_018FE315
// 019   ----------------------------------------
 BYTE   W24
 BYTE   GoTo
  POIN2 Label_9_018FE0CA
 BYTE   FINE

//**************** Track 11 (Midi-Chn.10) ****************//

KirbySuperStarSagaVsMarxDolkar_011:
// 000   ----------------------------------------
 BYTE   KEYSH   KirbySuperStarSagaVsMarxDolkar_key+0
Label_10_018FE5AA:
 BYTE   VOICE   47
 BYTE   VOL   80*KirbySuperStarSagaVsMarxDolkar_mvl/mxv
 BYTE   PAN   c_v+0
 BYTE   W72
 BYTE   W72
// 001   ----------------------------------------
 BYTE   W72
 BYTE   W44
// 002   ----------------------------------------
 BYTE   W01
 BYTE   VOL   40*KirbySuperStarSagaVsMarxDolkar_mvl/mxv
 BYTE   N03  Gn1  v100
 BYTE   W01
 BYTE   VOL   41*KirbySuperStarSagaVsMarxDolkar_mvl/mxv
 BYTE   W01
 BYTE   Gs1
 BYTE   W01
 BYTE   An1
 BYTE   N03
 BYTE   W01
 BYTE   VOL   47*KirbySuperStarSagaVsMarxDolkar_mvl/mxv
 BYTE   W01
 BYTE   Cs2
 BYTE   W01
 BYTE   Dn2
 BYTE   N03
 BYTE   W01
 BYTE   VOL   52*KirbySuperStarSagaVsMarxDolkar_mvl/mxv
 BYTE   W01
 BYTE   Fn2
 BYTE   W01
 BYTE   Gn2
 BYTE   N03
 BYTE   W01
 BYTE   VOL   56*KirbySuperStarSagaVsMarxDolkar_mvl/mxv
 BYTE   W01
 BYTE   As2
 BYTE   W01
 BYTE   Bn2
 BYTE   N03
 BYTE   W01
 BYTE   VOL   61*KirbySuperStarSagaVsMarxDolkar_mvl/mxv
 BYTE   W01
 BYTE   En3
 BYTE   W01
 BYTE   Fs3
 BYTE   N03
 BYTE   W01
 BYTE   VOL   67*KirbySuperStarSagaVsMarxDolkar_mvl/mxv
 BYTE   W01
 BYTE   An3
 BYTE   W01
 BYTE   As3
 BYTE   N03
 BYTE   W01
 BYTE   VOL   71*KirbySuperStarSagaVsMarxDolkar_mvl/mxv
 BYTE   W01
 BYTE   Cs4
 BYTE   W01
 BYTE   Dn4
 BYTE   W01
 BYTE   En4
 BYTE   W01
 BYTE   Fs4
 BYTE   W01
 BYTE   Gs4
 BYTE   N24  Fn2
 BYTE   W03
 BYTE   W72
// 003   ----------------------------------------
Label_10_018FE5FB:
 BYTE   W72
 BYTE   VOL   41*KirbySuperStarSagaVsMarxDolkar_mvl/mxv
 BYTE   W01
 BYTE   Fs1
 BYTE   W01
 BYTE   Gs1
 BYTE   W01
 BYTE   An1
 BYTE   W01
 BYTE   Bn1
 BYTE   W01
 BYTE   Cs2
 BYTE   W01
 BYTE   Dn2
 BYTE   W01
 BYTE   En2
 BYTE   W01
 BYTE   Fn2
 BYTE   W01
 BYTE   Gn2
 BYTE   W01
 BYTE   Gs2
 BYTE   W01
 BYTE   As2
 BYTE   W01
 BYTE   Cs3
 BYTE   W01
 BYTE   Dn3
 BYTE   W01
 BYTE   En3
 BYTE   W01
 BYTE   Fs3
 BYTE   W01
 BYTE   Gn3
 BYTE   W01
 BYTE   An3
 BYTE   W01
 BYTE   As3
 BYTE   W01
 BYTE   Bn3
 BYTE   W01
 BYTE   Cs4
 BYTE   W01
 BYTE   Dn4
 BYTE   W01
 BYTE   En4
 BYTE   W01
 BYTE   Fs4
 BYTE   W01
 BYTE   PEND 
// 004   ----------------------------------------
 BYTE   Gs4
 BYTE   W72
Label_10_018FE630:
 BYTE   W48
// 005   ----------------------------------------
 BYTE   VOL   41*KirbySuperStarSagaVsMarxDolkar_mvl/mxv
 BYTE   N03  Gn1  v100
 BYTE   W01
 BYTE   VOL   42*KirbySuperStarSagaVsMarxDolkar_mvl/mxv
 BYTE   W01
 BYTE   Gs1
 BYTE   W01
 BYTE   An1
 BYTE   N03
 BYTE   W01
 BYTE   VOL   47*KirbySuperStarSagaVsMarxDolkar_mvl/mxv
 BYTE   W01
 BYTE   Cs2
 BYTE   W01
 BYTE   Dn2
 BYTE   N03
 BYTE   W01
 BYTE   VOL   52*KirbySuperStarSagaVsMarxDolkar_mvl/mxv
 BYTE   W01
 BYTE   Fn2
 BYTE   W01
 BYTE   Gn2
 BYTE   N03
 BYTE   W01
 BYTE   VOL   56*KirbySuperStarSagaVsMarxDolkar_mvl/mxv
 BYTE   W01
 BYTE   As2
 BYTE   W01
 BYTE   Cs3
 BYTE   N03
 BYTE   W01
 BYTE   VOL   62*KirbySuperStarSagaVsMarxDolkar_mvl/mxv
 BYTE   W01
 BYTE   En3
 BYTE   W01
 BYTE   Fs3
 BYTE   N03
 BYTE   W01
 BYTE   VOL   67*KirbySuperStarSagaVsMarxDolkar_mvl/mxv
 BYTE   W01
 BYTE   An3
 BYTE   W01
 BYTE   As3
 BYTE   N03
 BYTE   W01
 BYTE   VOL   71*KirbySuperStarSagaVsMarxDolkar_mvl/mxv
 BYTE   W01
 BYTE   Cs4
 BYTE   W01
 BYTE   Dn4
 BYTE   W01
 BYTE   En4
 BYTE   W01
 BYTE   Fs4
 BYTE   W01
 BYTE   PEND 
Label_10_018FE673:
 BYTE   VOL   80*KirbySuperStarSagaVsMarxDolkar_mvl/mxv
 BYTE   N24  Fn2  v100
 BYTE   W72
 BYTE   PEND 
// 006   ----------------------------------------
 BYTE   W72
 BYTE   W72
// 007   ----------------------------------------
 BYTE   W72
Label_10_018FE67D:
 BYTE   W48
// 008   ----------------------------------------
 BYTE   VOL   41*KirbySuperStarSagaVsMarxDolkar_mvl/mxv
 BYTE   N03  An1  v100
 BYTE   W01
 BYTE   VOL   42*KirbySuperStarSagaVsMarxDolkar_mvl/mxv
 BYTE   W01
 BYTE   Gs1
 BYTE   W01
 BYTE   An1
 BYTE   N03
 BYTE   W01
 BYTE   VOL   47*KirbySuperStarSagaVsMarxDolkar_mvl/mxv
 BYTE   W01
 BYTE   Cs2
 BYTE   W01
 BYTE   Dn2
 BYTE   N03
 BYTE   W01
 BYTE   VOL   52*KirbySuperStarSagaVsMarxDolkar_mvl/mxv
 BYTE   W01
 BYTE   Fn2
 BYTE   W01
 BYTE   Gn2
 BYTE   N03
 BYTE   W01
 BYTE   VOL   56*KirbySuperStarSagaVsMarxDolkar_mvl/mxv
 BYTE   W01
 BYTE   As2
 BYTE   W01
 BYTE   Cs3
 BYTE   N03
 BYTE   W01
 BYTE   VOL   62*KirbySuperStarSagaVsMarxDolkar_mvl/mxv
 BYTE   W01
 BYTE   En3
 BYTE   W01
 BYTE   Fs3
 BYTE   N03
 BYTE   W01
 BYTE   VOL   67*KirbySuperStarSagaVsMarxDolkar_mvl/mxv
 BYTE   W01
 BYTE   An3
 BYTE   W01
 BYTE   As3
 BYTE   N03
 BYTE   W01
 BYTE   VOL   71*KirbySuperStarSagaVsMarxDolkar_mvl/mxv
 BYTE   W01
 BYTE   Cs4
 BYTE   W01
 BYTE   Dn4
 BYTE   W01
 BYTE   En4
 BYTE   W01
 BYTE   Fs4
 BYTE   W01
 BYTE   PEND 
Label_10_018FE6C0:
 BYTE   VOL   80*KirbySuperStarSagaVsMarxDolkar_mvl/mxv
 BYTE   N24  Dn2  v100
 BYTE   W96
// 009   ----------------------------------------
 BYTE   VOL   41*KirbySuperStarSagaVsMarxDolkar_mvl/mxv
 BYTE   N03  Cs2
 BYTE   W01
 BYTE   VOL   42*KirbySuperStarSagaVsMarxDolkar_mvl/mxv
 BYTE   W01
 BYTE   Gs1
 BYTE   W01
 BYTE   An1
 BYTE   N03
 BYTE   W01
 BYTE   VOL   47*KirbySuperStarSagaVsMarxDolkar_mvl/mxv
 BYTE   W01
 BYTE   Cs2
 BYTE   W01
 BYTE   Dn2
 BYTE   N03
 BYTE   W01
 BYTE   VOL   52*KirbySuperStarSagaVsMarxDolkar_mvl/mxv
 BYTE   W01
 BYTE   Fn2
 BYTE   W01
 BYTE   Gn2
 BYTE   N03
 BYTE   W01
 BYTE   VOL   56*KirbySuperStarSagaVsMarxDolkar_mvl/mxv
 BYTE   W01
 BYTE   As2
 BYTE   W01
 BYTE   Cs3
 BYTE   N03
 BYTE   W01
 BYTE   VOL   62*KirbySuperStarSagaVsMarxDolkar_mvl/mxv
 BYTE   W01
 BYTE   En3
 BYTE   W01
 BYTE   Fs3
 BYTE   N03
 BYTE   W01
 BYTE   VOL   67*KirbySuperStarSagaVsMarxDolkar_mvl/mxv
 BYTE   W01
 BYTE   An3
 BYTE   W01
 BYTE   As3
 BYTE   N03
 BYTE   W01
 BYTE   VOL   71*KirbySuperStarSagaVsMarxDolkar_mvl/mxv
 BYTE   W01
 BYTE   Cs4
 BYTE   W01
 BYTE   Dn4
 BYTE   W01
 BYTE   En4
 BYTE   W01
 BYTE   Fs4
 BYTE   W01
 BYTE   PEND 
Label_10_018FE707:
 BYTE   VOL   80*KirbySuperStarSagaVsMarxDolkar_mvl/mxv
 BYTE   N24  Fs2  v100
 BYTE   W96
// 010   ----------------------------------------
 BYTE   VOL   41*KirbySuperStarSagaVsMarxDolkar_mvl/mxv
 BYTE   N03
 BYTE   W01
 BYTE   VOL   42*KirbySuperStarSagaVsMarxDolkar_mvl/mxv
 BYTE   W01
 BYTE   Gs1
 BYTE   W01
 BYTE   An1
 BYTE   N03
 BYTE   W01
 BYTE   VOL   47*KirbySuperStarSagaVsMarxDolkar_mvl/mxv
 BYTE   W01
 BYTE   Cs2
 BYTE   W01
 BYTE   Dn2
 BYTE   N03
 BYTE   W01
 BYTE   VOL   52*KirbySuperStarSagaVsMarxDolkar_mvl/mxv
 BYTE   W01
 BYTE   Fn2
 BYTE   W01
 BYTE   Gn2
 BYTE   N03
 BYTE   W01
 BYTE   VOL   56*KirbySuperStarSagaVsMarxDolkar_mvl/mxv
 BYTE   W01
 BYTE   As2
 BYTE   W01
 BYTE   Cs3
 BYTE   N03
 BYTE   W01
 BYTE   VOL   62*KirbySuperStarSagaVsMarxDolkar_mvl/mxv
 BYTE   W01
 BYTE   En3
 BYTE   W01
 BYTE   Fs3
 BYTE   N03
 BYTE   W01
 BYTE   VOL   67*KirbySuperStarSagaVsMarxDolkar_mvl/mxv
 BYTE   W01
 BYTE   An3
 BYTE   W01
 BYTE   As3
 BYTE   N03
 BYTE   W01
 BYTE   VOL   71*KirbySuperStarSagaVsMarxDolkar_mvl/mxv
 BYTE   W01
 BYTE   Cs4
 BYTE   W01
 BYTE   Dn4
 BYTE   W01
 BYTE   En4
 BYTE   W01
 BYTE   Fs4
 BYTE   W01
 BYTE   PEND 
 BYTE   Gs4
 BYTE   N24  Ds2
 BYTE   W48
 BYTE   VOL   41*KirbySuperStarSagaVsMarxDolkar_mvl/mxv
 BYTE   N03
 BYTE   W01
 BYTE   VOL   43*KirbySuperStarSagaVsMarxDolkar_mvl/mxv
 BYTE   W01
 BYTE   Gs1
 BYTE   W01
 BYTE   As1
 BYTE   N03
 BYTE   W01
 BYTE   VOL   47*KirbySuperStarSagaVsMarxDolkar_mvl/mxv
 BYTE   W01
 BYTE   Cs2
 BYTE   W01
 BYTE   Ds2
 BYTE   N03
 BYTE   W01
 BYTE   VOL   52*KirbySuperStarSagaVsMarxDolkar_mvl/mxv
 BYTE   W01
 BYTE   Fs2
 BYTE   W01
 BYTE   Gs2
 BYTE   N03
 BYTE   W01
 BYTE   VOL   57*KirbySuperStarSagaVsMarxDolkar_mvl/mxv
 BYTE   W01
 BYTE   Bn2
 BYTE   W01
 BYTE   Dn3
 BYTE   N03
 BYTE   W01
 BYTE   VOL   63*KirbySuperStarSagaVsMarxDolkar_mvl/mxv
 BYTE   W01
 BYTE   Fn3
 BYTE   W01
 BYTE   Fs3
 BYTE   N03
 BYTE   W01
 BYTE   VOL   68*KirbySuperStarSagaVsMarxDolkar_mvl/mxv
 BYTE   W01
 BYTE   An3
 BYTE   W01
 BYTE   Bn3
 BYTE   N03
 BYTE   W01
 BYTE   VOL   73*KirbySuperStarSagaVsMarxDolkar_mvl/mxv
 BYTE   W01
 BYTE   Dn4
 BYTE   W01
 BYTE   En4
 BYTE   W01
 BYTE   Fs4
 BYTE   W01
 BYTE   Gs4
 BYTE   W01
// 011   ----------------------------------------
 BYTE   N24  As2
 BYTE   W48
 BYTE   VOL   41*KirbySuperStarSagaVsMarxDolkar_mvl/mxv
 BYTE   N03  En2
 BYTE   W01
 BYTE   VOL   42*KirbySuperStarSagaVsMarxDolkar_mvl/mxv
 BYTE   W01
 BYTE   Gs1
 BYTE   W01
 BYTE   An1
 BYTE   N03
 BYTE   W01
 BYTE   VOL   47*KirbySuperStarSagaVsMarxDolkar_mvl/mxv
 BYTE   W01
 BYTE   Cs2
 BYTE   W01
 BYTE   Dn2
 BYTE   N03
 BYTE   W01
 BYTE   VOL   52*KirbySuperStarSagaVsMarxDolkar_mvl/mxv
 BYTE   W01
 BYTE   Fn2
 BYTE   W01
 BYTE   Gn2
 BYTE   N03
 BYTE   W01
 BYTE   VOL   56*KirbySuperStarSagaVsMarxDolkar_mvl/mxv
 BYTE   W01
 BYTE   As2
 BYTE   W01
 BYTE   Cs3
 BYTE   N03
 BYTE   W01
 BYTE   VOL   62*KirbySuperStarSagaVsMarxDolkar_mvl/mxv
 BYTE   W01
 BYTE   En3
 BYTE   W01
 BYTE   Fs3
 BYTE   N03
 BYTE   W01
 BYTE   VOL   67*KirbySuperStarSagaVsMarxDolkar_mvl/mxv
 BYTE   W01
 BYTE   An3
 BYTE   W01
 BYTE   As3
 BYTE   N03
 BYTE   W01
 BYTE   VOL   71*KirbySuperStarSagaVsMarxDolkar_mvl/mxv
 BYTE   W01
 BYTE   Cs4
 BYTE   W01
 BYTE   Dn4
 BYTE   W01
 BYTE   En4
 BYTE   W01
 BYTE   Fs4
 BYTE   W01
Label_10_018FE7D3:
 BYTE   VOL   80*KirbySuperStarSagaVsMarxDolkar_mvl/mxv
 BYTE   N24  An1  v100
 BYTE   W72
 BYTE   PEND 
// 012   ----------------------------------------
Label_10_018FE7DA:
 BYTE   N24  Fs2  v100
 BYTE   W48
 BYTE   VOL   41*KirbySuperStarSagaVsMarxDolkar_mvl/mxv
 BYTE   N03  Gn1
 BYTE   W01
 BYTE   VOL   42*KirbySuperStarSagaVsMarxDolkar_mvl/mxv
 BYTE   W01
 BYTE   Gs1
 BYTE   W01
 BYTE   An1
 BYTE   N03
 BYTE   W01
 BYTE   VOL   47*KirbySuperStarSagaVsMarxDolkar_mvl/mxv
 BYTE   W01
 BYTE   Cs2
 BYTE   W01
 BYTE   Dn2
 BYTE   N03
 BYTE   W01
 BYTE   VOL   52*KirbySuperStarSagaVsMarxDolkar_mvl/mxv
 BYTE   W01
 BYTE   Fn2
 BYTE   W01
 BYTE   Gn2
 BYTE   N03
 BYTE   W01
 BYTE   VOL   56*KirbySuperStarSagaVsMarxDolkar_mvl/mxv
 BYTE   W01
 BYTE   As2
 BYTE   W01
 BYTE   Cs3
 BYTE   N03
 BYTE   W01
 BYTE   VOL   62*KirbySuperStarSagaVsMarxDolkar_mvl/mxv
 BYTE   W01
 BYTE   En3
 BYTE   W01
 BYTE   Fs3
 BYTE   N03
 BYTE   W01
 BYTE   VOL   67*KirbySuperStarSagaVsMarxDolkar_mvl/mxv
 BYTE   W01
 BYTE   An3
 BYTE   W01
 BYTE   As3
 BYTE   N03
 BYTE   W01
 BYTE   VOL   71*KirbySuperStarSagaVsMarxDolkar_mvl/mxv
 BYTE   W01
 BYTE   Cs4
 BYTE   W01
 BYTE   Dn4
 BYTE   W01
 BYTE   En4
 BYTE   W01
 BYTE   Fs4
 BYTE   W01
 BYTE   PEND 
 BYTE   PATT
  POIN2 Label_10_018FE673
 BYTE   PATT
  POIN2 Label_10_018FE5FB
// 013   ----------------------------------------
 BYTE   VOL   80*KirbySuperStarSagaVsMarxDolkar_mvl/mxv
 BYTE   W72
 BYTE   PATT
  POIN2 Label_10_018FE630
 BYTE   PATT
  POIN2 Label_10_018FE673
// 014   ----------------------------------------
 BYTE   W72
 BYTE   W72
// 015   ----------------------------------------
 BYTE   W72
 BYTE   PATT
  POIN2 Label_10_018FE67D
 BYTE   PATT
  POIN2 Label_10_018FE6C0
 BYTE   PATT
  POIN2 Label_10_018FE707
// 016   ----------------------------------------
Label_10_018FE848:
 BYTE   VOL   80*KirbySuperStarSagaVsMarxDolkar_mvl/mxv
 BYTE   N24  Ds2  v100
 BYTE   W48
 BYTE   VOL   41*KirbySuperStarSagaVsMarxDolkar_mvl/mxv
 BYTE   N03
 BYTE   W01
 BYTE   VOL   42*KirbySuperStarSagaVsMarxDolkar_mvl/mxv
 BYTE   W01
 BYTE   Gs1
 BYTE   W01
 BYTE   An1
 BYTE   N03
 BYTE   W01
 BYTE   VOL   47*KirbySuperStarSagaVsMarxDolkar_mvl/mxv
 BYTE   W01
 BYTE   Cs2
 BYTE   W01
 BYTE   Dn2
 BYTE   N03
 BYTE   W01
 BYTE   VOL   52*KirbySuperStarSagaVsMarxDolkar_mvl/mxv
 BYTE   W01
 BYTE   Fn2
 BYTE   W01
 BYTE   Gn2
 BYTE   N03
 BYTE   W01
 BYTE   VOL   56*KirbySuperStarSagaVsMarxDolkar_mvl/mxv
 BYTE   W01
 BYTE   As2
 BYTE   W01
 BYTE   Cs3
 BYTE   N03
 BYTE   W01
 BYTE   VOL   62*KirbySuperStarSagaVsMarxDolkar_mvl/mxv
 BYTE   W01
 BYTE   En3
 BYTE   W01
 BYTE   Fs3
 BYTE   N03
 BYTE   W01
 BYTE   VOL   67*KirbySuperStarSagaVsMarxDolkar_mvl/mxv
 BYTE   W01
 BYTE   An3
 BYTE   W01
 BYTE   As3
 BYTE   N03
 BYTE   W01
 BYTE   VOL   71*KirbySuperStarSagaVsMarxDolkar_mvl/mxv
 BYTE   W01
 BYTE   Cs4
 BYTE   W01
 BYTE   Dn4
 BYTE   W01
 BYTE   En4
 BYTE   W01
 BYTE   Fs4
 BYTE   W01
 BYTE   PEND 
Label_10_018FE88E:
 BYTE   VOL   80*KirbySuperStarSagaVsMarxDolkar_mvl/mxv
 BYTE   N24  As2  v100
 BYTE   W48
// 017   ----------------------------------------
 BYTE   VOL   41*KirbySuperStarSagaVsMarxDolkar_mvl/mxv
 BYTE   N03  En2
 BYTE   W01
 BYTE   VOL   42*KirbySuperStarSagaVsMarxDolkar_mvl/mxv
 BYTE   W01
 BYTE   Gs1
 BYTE   W01
 BYTE   An1
 BYTE   N03
 BYTE   W01
 BYTE   VOL   47*KirbySuperStarSagaVsMarxDolkar_mvl/mxv
 BYTE   W01
 BYTE   Cs2
 BYTE   W01
 BYTE   Dn2
 BYTE   N03
 BYTE   W01
 BYTE   VOL   52*KirbySuperStarSagaVsMarxDolkar_mvl/mxv
 BYTE   W01
 BYTE   Fn2
 BYTE   W01
 BYTE   Gn2
 BYTE   N03
 BYTE   W01
 BYTE   VOL   56*KirbySuperStarSagaVsMarxDolkar_mvl/mxv
 BYTE   W01
 BYTE   As2
 BYTE   W01
 BYTE   Cs3
 BYTE   N03
 BYTE   W01
 BYTE   VOL   62*KirbySuperStarSagaVsMarxDolkar_mvl/mxv
 BYTE   W01
 BYTE   En3
 BYTE   W01
 BYTE   Fs3
 BYTE   N03
 BYTE   W01
 BYTE   VOL   67*KirbySuperStarSagaVsMarxDolkar_mvl/mxv
 BYTE   W01
 BYTE   An3
 BYTE   W01
 BYTE   As3
 BYTE   N03
 BYTE   W01
 BYTE   VOL   71*KirbySuperStarSagaVsMarxDolkar_mvl/mxv
 BYTE   W01
 BYTE   Cs4
 BYTE   W01
 BYTE   Dn4
 BYTE   W01
 BYTE   En4
 BYTE   W01
 BYTE   Fs4
 BYTE   W01
 BYTE   PEND 
 BYTE   PATT
  POIN2 Label_10_018FE7D3
// 018   ----------------------------------------
Label_10_018FE8DA:
 BYTE   N24  Fs2  v100
 BYTE   W48
 BYTE   VOL   41*KirbySuperStarSagaVsMarxDolkar_mvl/mxv
 BYTE   N03  Dn2
 BYTE   W01
 BYTE   VOL   42*KirbySuperStarSagaVsMarxDolkar_mvl/mxv
 BYTE   W01
 BYTE   Gs1
 BYTE   W01
 BYTE   An1
 BYTE   N03
 BYTE   W01
 BYTE   VOL   47*KirbySuperStarSagaVsMarxDolkar_mvl/mxv
 BYTE   W01
 BYTE   Cs2
 BYTE   W01
 BYTE   Dn2
 BYTE   N03
 BYTE   W01
 BYTE   VOL   52*KirbySuperStarSagaVsMarxDolkar_mvl/mxv
 BYTE   W01
 BYTE   Fn2
 BYTE   W01
 BYTE   Gn2
 BYTE   N03
 BYTE   W01
 BYTE   VOL   56*KirbySuperStarSagaVsMarxDolkar_mvl/mxv
 BYTE   W01
 BYTE   As2
 BYTE   W01
 BYTE   Cs3
 BYTE   N03
 BYTE   W01
 BYTE   VOL   62*KirbySuperStarSagaVsMarxDolkar_mvl/mxv
 BYTE   W01
 BYTE   En3
 BYTE   W01
 BYTE   Fs3
 BYTE   N03
 BYTE   W01
 BYTE   VOL   67*KirbySuperStarSagaVsMarxDolkar_mvl/mxv
 BYTE   W01
 BYTE   An3
 BYTE   W01
 BYTE   As3
 BYTE   N03
 BYTE   W01
 BYTE   VOL   71*KirbySuperStarSagaVsMarxDolkar_mvl/mxv
 BYTE   W01
 BYTE   Cs4
 BYTE   W01
 BYTE   Dn4
 BYTE   W01
 BYTE   En4
 BYTE   W01
 BYTE   Fs4
 BYTE   W01
 BYTE   PEND 
Label_10_018FE91F:
 BYTE   VOL   80*KirbySuperStarSagaVsMarxDolkar_mvl/mxv
 BYTE   N24  Gn1  v100
 BYTE   W72
 BYTE   PEND 
// 019   ----------------------------------------
 BYTE   Gs1
 BYTE   W72
 BYTE   Ds1
 BYTE   W72
// 020   ----------------------------------------
 BYTE   As1
 BYTE   W72
Label_10_018FE92C:
 BYTE   N24  Fn2  v100
 BYTE   W96
// 021   ----------------------------------------
 BYTE   VOL   41*KirbySuperStarSagaVsMarxDolkar_mvl/mxv
 BYTE   N03
 BYTE   W01
 BYTE   VOL   42*KirbySuperStarSagaVsMarxDolkar_mvl/mxv
 BYTE   W01
 BYTE   Gs1
 BYTE   W01
 BYTE   An1
 BYTE   N03
 BYTE   W01
 BYTE   VOL   47*KirbySuperStarSagaVsMarxDolkar_mvl/mxv
 BYTE   W01
 BYTE   Cs2
 BYTE   W01
 BYTE   Dn2
 BYTE   N03
 BYTE   W01
 BYTE   VOL   52*KirbySuperStarSagaVsMarxDolkar_mvl/mxv
 BYTE   W01
 BYTE   Fn2
 BYTE   W01
 BYTE   Gn2
 BYTE   N03
 BYTE   W01
 BYTE   VOL   56*KirbySuperStarSagaVsMarxDolkar_mvl/mxv
 BYTE   W01
 BYTE   As2
 BYTE   W01
 BYTE   Cs3
 BYTE   N03
 BYTE   W01
 BYTE   VOL   62*KirbySuperStarSagaVsMarxDolkar_mvl/mxv
 BYTE   W01
 BYTE   En3
 BYTE   W01
 BYTE   Fs3
 BYTE   N03
 BYTE   W01
 BYTE   VOL   67*KirbySuperStarSagaVsMarxDolkar_mvl/mxv
 BYTE   W01
 BYTE   An3
 BYTE   W01
 BYTE   As3
 BYTE   N03
 BYTE   W01
 BYTE   VOL   71*KirbySuperStarSagaVsMarxDolkar_mvl/mxv
 BYTE   W01
 BYTE   Cs4
 BYTE   W01
 BYTE   Dn4
 BYTE   W01
 BYTE   En4
 BYTE   W01
 BYTE   Fs4
 BYTE   W01
 BYTE   PEND 
Label_10_018FE970:
 BYTE   VOL   80*KirbySuperStarSagaVsMarxDolkar_mvl/mxv
 BYTE   N24  En2  v100
 BYTE   W96
// 022   ----------------------------------------
 BYTE   VOL   41*KirbySuperStarSagaVsMarxDolkar_mvl/mxv
 BYTE   N03
 BYTE   W01
 BYTE   VOL   42*KirbySuperStarSagaVsMarxDolkar_mvl/mxv
 BYTE   W01
 BYTE   Gs1
 BYTE   W01
 BYTE   An1
 BYTE   N03
 BYTE   W01
 BYTE   VOL   47*KirbySuperStarSagaVsMarxDolkar_mvl/mxv
 BYTE   W01
 BYTE   Cs2
 BYTE   W01
 BYTE   Dn2
 BYTE   N03
 BYTE   W01
 BYTE   VOL   52*KirbySuperStarSagaVsMarxDolkar_mvl/mxv
 BYTE   W01
 BYTE   Fn2
 BYTE   W01
 BYTE   Gn2
 BYTE   N03
 BYTE   W01
 BYTE   VOL   56*KirbySuperStarSagaVsMarxDolkar_mvl/mxv
 BYTE   W01
 BYTE   As2
 BYTE   W01
 BYTE   Cs3
 BYTE   N03
 BYTE   W01
 BYTE   VOL   62*KirbySuperStarSagaVsMarxDolkar_mvl/mxv
 BYTE   W01
 BYTE   En3
 BYTE   W01
 BYTE   Fs3
 BYTE   N03
 BYTE   W01
 BYTE   VOL   67*KirbySuperStarSagaVsMarxDolkar_mvl/mxv
 BYTE   W01
 BYTE   An3
 BYTE   W01
 BYTE   As3
 BYTE   N03
 BYTE   W01
 BYTE   VOL   71*KirbySuperStarSagaVsMarxDolkar_mvl/mxv
 BYTE   W01
 BYTE   Cs4
 BYTE   W01
 BYTE   Dn4
 BYTE   W01
 BYTE   En4
 BYTE   W01
 BYTE   Fs4
 BYTE   W01
 BYTE   PEND 
Label_10_018FE9B6:
 BYTE   VOL   80*KirbySuperStarSagaVsMarxDolkar_mvl/mxv
 BYTE   N24  Ds2  v100
 BYTE   W72
 BYTE   PEND 
// 023   ----------------------------------------
Label_10_018FE9BD:
 BYTE   N24  Dn2  v100
 BYTE   W48
 BYTE   VOL   41*KirbySuperStarSagaVsMarxDolkar_mvl/mxv
 BYTE   N03
 BYTE   W01
 BYTE   VOL   42*KirbySuperStarSagaVsMarxDolkar_mvl/mxv
 BYTE   W01
 BYTE   Gs1
 BYTE   W01
 BYTE   An1
 BYTE   N03
 BYTE   W01
 BYTE   VOL   47*KirbySuperStarSagaVsMarxDolkar_mvl/mxv
 BYTE   W01
 BYTE   Cs2
 BYTE   W01
 BYTE   Dn2
 BYTE   N03
 BYTE   W01
 BYTE   VOL   52*KirbySuperStarSagaVsMarxDolkar_mvl/mxv
 BYTE   W01
 BYTE   Fn2
 BYTE   W01
 BYTE   Gn2
 BYTE   N03
 BYTE   W01
 BYTE   VOL   56*KirbySuperStarSagaVsMarxDolkar_mvl/mxv
 BYTE   W01
 BYTE   As2
 BYTE   W01
 BYTE   Cs3
 BYTE   N03
 BYTE   W01
 BYTE   VOL   62*KirbySuperStarSagaVsMarxDolkar_mvl/mxv
 BYTE   W01
 BYTE   En3
 BYTE   W01
 BYTE   Fs3
 BYTE   N03
 BYTE   W01
 BYTE   VOL   67*KirbySuperStarSagaVsMarxDolkar_mvl/mxv
 BYTE   W01
 BYTE   An3
 BYTE   W01
 BYTE   As3
 BYTE   N03
 BYTE   W01
 BYTE   VOL   71*KirbySuperStarSagaVsMarxDolkar_mvl/mxv
 BYTE   W01
 BYTE   Cs4
 BYTE   W01
 BYTE   Dn4
 BYTE   W01
 BYTE   En4
 BYTE   W01
 BYTE   Fs4
 BYTE   W01
 BYTE   PEND 
Label_10_018FEA01:
 BYTE   VOL   80*KirbySuperStarSagaVsMarxDolkar_mvl/mxv
 BYTE   N24  Gn1  v100
 BYTE   W48
// 024   ----------------------------------------
 BYTE   Dn2
 BYTE   W24
 BYTE   PEND 
Label_10_018FEA0A:
 BYTE   N24  Gn1  v100
 BYTE   W48
 BYTE   VOL   41*KirbySuperStarSagaVsMarxDolkar_mvl/mxv
 BYTE   N03
 BYTE   W01
 BYTE   VOL   42*KirbySuperStarSagaVsMarxDolkar_mvl/mxv
 BYTE   W01
 BYTE   Gs1
 BYTE   W01
 BYTE   An1
 BYTE   N03
 BYTE   W01
 BYTE   VOL   47*KirbySuperStarSagaVsMarxDolkar_mvl/mxv
 BYTE   W01
 BYTE   Cs2
 BYTE   W01
 BYTE   Dn2
 BYTE   N03
 BYTE   W01
 BYTE   VOL   52*KirbySuperStarSagaVsMarxDolkar_mvl/mxv
 BYTE   W01
 BYTE   Fn2
 BYTE   W01
 BYTE   Gn2
 BYTE   N03
 BYTE   W01
 BYTE   VOL   56*KirbySuperStarSagaVsMarxDolkar_mvl/mxv
 BYTE   W01
 BYTE   As2
 BYTE   W01
 BYTE   Cs3
 BYTE   N03
 BYTE   W01
 BYTE   VOL   62*KirbySuperStarSagaVsMarxDolkar_mvl/mxv
 BYTE   W01
 BYTE   En3
 BYTE   W01
 BYTE   Fs3
 BYTE   N03
 BYTE   W01
 BYTE   VOL   67*KirbySuperStarSagaVsMarxDolkar_mvl/mxv
 BYTE   W01
 BYTE   An3
 BYTE   W01
 BYTE   As3
 BYTE   N03
 BYTE   W01
 BYTE   VOL   71*KirbySuperStarSagaVsMarxDolkar_mvl/mxv
 BYTE   W01
 BYTE   Cs4
 BYTE   W01
 BYTE   Dn4
 BYTE   W01
 BYTE   En4
 BYTE   W01
 BYTE   Fs4
 BYTE   W01
 BYTE   PEND 
// 025   ----------------------------------------
Label_10_018FEA4E:
 BYTE   VOL   80*KirbySuperStarSagaVsMarxDolkar_mvl/mxv
 BYTE   N24  Gs1  v100
 BYTE   W96
// 026   ----------------------------------------
 BYTE   VOL   41*KirbySuperStarSagaVsMarxDolkar_mvl/mxv
 BYTE   N03
 BYTE   W01
 BYTE   VOL   42*KirbySuperStarSagaVsMarxDolkar_mvl/mxv
 BYTE   W01
 BYTE   Gs1
 BYTE   W01
 BYTE   An1
 BYTE   N03
 BYTE   W01
 BYTE   VOL   47*KirbySuperStarSagaVsMarxDolkar_mvl/mxv
 BYTE   W01
 BYTE   Cs2
 BYTE   W01
 BYTE   Dn2
 BYTE   N03
 BYTE   W01
 BYTE   VOL   52*KirbySuperStarSagaVsMarxDolkar_mvl/mxv
 BYTE   W01
 BYTE   Fn2
 BYTE   W01
 BYTE   Gn2
 BYTE   N03
 BYTE   W01
 BYTE   VOL   56*KirbySuperStarSagaVsMarxDolkar_mvl/mxv
 BYTE   W01
 BYTE   As2
 BYTE   W01
 BYTE   Cs3
 BYTE   N03
 BYTE   W01
 BYTE   VOL   62*KirbySuperStarSagaVsMarxDolkar_mvl/mxv
 BYTE   W01
 BYTE   En3
 BYTE   W01
 BYTE   Fs3
 BYTE   N03
 BYTE   W01
 BYTE   VOL   67*KirbySuperStarSagaVsMarxDolkar_mvl/mxv
 BYTE   W01
 BYTE   An3
 BYTE   W01
 BYTE   As3
 BYTE   N03
 BYTE   W01
 BYTE   VOL   71*KirbySuperStarSagaVsMarxDolkar_mvl/mxv
 BYTE   W01
 BYTE   Cs4
 BYTE   W01
 BYTE   Dn4
 BYTE   W01
 BYTE   En4
 BYTE   W01
 BYTE   Fs4
 BYTE   W01
 BYTE   PEND 
Label_10_018FEA94:
 BYTE   VOL   80*KirbySuperStarSagaVsMarxDolkar_mvl/mxv
 BYTE   N24  Gn1  v100
 BYTE   W96
// 027   ----------------------------------------
 BYTE   VOL   41*KirbySuperStarSagaVsMarxDolkar_mvl/mxv
 BYTE   N03
 BYTE   W01
 BYTE   VOL   42*KirbySuperStarSagaVsMarxDolkar_mvl/mxv
 BYTE   W01
 BYTE   Gs1
 BYTE   W01
 BYTE   An1
 BYTE   N03
 BYTE   W01
 BYTE   VOL   47*KirbySuperStarSagaVsMarxDolkar_mvl/mxv
 BYTE   W01
 BYTE   Cs2
 BYTE   W01
 BYTE   Dn2
 BYTE   N03
 BYTE   W01
 BYTE   VOL   52*KirbySuperStarSagaVsMarxDolkar_mvl/mxv
 BYTE   W01
 BYTE   Fn2
 BYTE   W01
 BYTE   Gn2
 BYTE   N03
 BYTE   W01
 BYTE   VOL   56*KirbySuperStarSagaVsMarxDolkar_mvl/mxv
 BYTE   W01
 BYTE   As2
 BYTE   W01
 BYTE   Cs3
 BYTE   N03
 BYTE   W01
 BYTE   VOL   62*KirbySuperStarSagaVsMarxDolkar_mvl/mxv
 BYTE   W01
 BYTE   En3
 BYTE   W01
 BYTE   Fs3
 BYTE   N03
 BYTE   W01
 BYTE   VOL   67*KirbySuperStarSagaVsMarxDolkar_mvl/mxv
 BYTE   W01
 BYTE   An3
 BYTE   W01
 BYTE   As3
 BYTE   N03
 BYTE   W01
 BYTE   VOL   71*KirbySuperStarSagaVsMarxDolkar_mvl/mxv
 BYTE   W01
 BYTE   Cs4
 BYTE   W01
 BYTE   Dn4
 BYTE   W01
 BYTE   En4
 BYTE   W01
 BYTE   Fs4
 BYTE   W01
 BYTE   PEND 
Label_10_018FEADA:
 BYTE   VOL   80*KirbySuperStarSagaVsMarxDolkar_mvl/mxv
 BYTE   N24  Gs1  v100
 BYTE   W72
 BYTE   PEND 
// 028   ----------------------------------------
Label_10_018FEAE1:
 BYTE   W48
 BYTE   VOL   41*KirbySuperStarSagaVsMarxDolkar_mvl/mxv
 BYTE   N03  Gs1  v100
 BYTE   W01
 BYTE   VOL   42*KirbySuperStarSagaVsMarxDolkar_mvl/mxv
 BYTE   W01
 BYTE   Gs1
 BYTE   W01
 BYTE   An1
 BYTE   N03
 BYTE   W01
 BYTE   VOL   47*KirbySuperStarSagaVsMarxDolkar_mvl/mxv
 BYTE   W01
 BYTE   Cs2
 BYTE   W01
 BYTE   Dn2
 BYTE   N03
 BYTE   W01
 BYTE   VOL   52*KirbySuperStarSagaVsMarxDolkar_mvl/mxv
 BYTE   W01
 BYTE   Fn2
 BYTE   W01
 BYTE   Gn2
 BYTE   N03
 BYTE   W01
 BYTE   VOL   56*KirbySuperStarSagaVsMarxDolkar_mvl/mxv
 BYTE   W01
 BYTE   As2
 BYTE   W01
 BYTE   Cs3
 BYTE   N03
 BYTE   W01
 BYTE   VOL   62*KirbySuperStarSagaVsMarxDolkar_mvl/mxv
 BYTE   W01
 BYTE   En3
 BYTE   W01
 BYTE   Fs3
 BYTE   N03
 BYTE   W01
 BYTE   VOL   67*KirbySuperStarSagaVsMarxDolkar_mvl/mxv
 BYTE   W01
 BYTE   An3
 BYTE   W01
 BYTE   As3
 BYTE   N03
 BYTE   W01
 BYTE   VOL   71*KirbySuperStarSagaVsMarxDolkar_mvl/mxv
 BYTE   W01
 BYTE   Cs4
 BYTE   W01
 BYTE   Dn4
 BYTE   W01
 BYTE   En4
 BYTE   W01
 BYTE   Fs4
 BYTE   W01
 BYTE   PEND 
 BYTE   PATT
  POIN2 Label_10_018FEA94
// 029   ----------------------------------------
Label_10_018FEB29:
 BYTE   VOL   80*KirbySuperStarSagaVsMarxDolkar_mvl/mxv
 BYTE   N24  Fn2  v100
 BYTE   W48
 BYTE   N24
 BYTE   W24
 BYTE   PEND 
Label_10_018FEB32:
 BYTE   N24  As1  v100
 BYTE   W48
// 030   ----------------------------------------
 BYTE   N24
 BYTE   W24
 BYTE   PEND 
Label_10_018FEB39:
 BYTE   N24  Ds2  v100
 BYTE   W48
 BYTE   N24
 BYTE   W24
 BYTE   PEND 
// 031   ----------------------------------------
Label_10_018FEB40:
 BYTE   N24  Gs1  v100
 BYTE   W48
 BYTE   N24
 BYTE   W24
 BYTE   PEND 
 BYTE   Dn2
 BYTE   W72
// 032   ----------------------------------------
 BYTE   W48
 BYTE   VOL   41*KirbySuperStarSagaVsMarxDolkar_mvl/mxv
 BYTE   N03
 BYTE   W01
 BYTE   VOL   42*KirbySuperStarSagaVsMarxDolkar_mvl/mxv
 BYTE   W01
 BYTE   Gs1
 BYTE   W01
 BYTE   An1
 BYTE   N03
 BYTE   W01
 BYTE   VOL   47*KirbySuperStarSagaVsMarxDolkar_mvl/mxv
 BYTE   W01
 BYTE   Cs2
 BYTE   W01
 BYTE   Dn2
 BYTE   N03
 BYTE   W01
 BYTE   VOL   52*KirbySuperStarSagaVsMarxDolkar_mvl/mxv
 BYTE   W01
 BYTE   Fn2
 BYTE   W01
 BYTE   Gn2
 BYTE   N03
 BYTE   W01
 BYTE   VOL   56*KirbySuperStarSagaVsMarxDolkar_mvl/mxv
 BYTE   W01
 BYTE   As2
 BYTE   W01
 BYTE   Cs3
 BYTE   N03
 BYTE   W01
 BYTE   VOL   62*KirbySuperStarSagaVsMarxDolkar_mvl/mxv
 BYTE   W01
 BYTE   En3
 BYTE   W01
 BYTE   Fs3
 BYTE   N03
 BYTE   W01
 BYTE   VOL   67*KirbySuperStarSagaVsMarxDolkar_mvl/mxv
 BYTE   W01
 BYTE   An3
 BYTE   W01
 BYTE   As3
 BYTE   N03
 BYTE   W01
 BYTE   VOL   71*KirbySuperStarSagaVsMarxDolkar_mvl/mxv
 BYTE   W01
 BYTE   Cs4
 BYTE   W01
 BYTE   Dn4
 BYTE   W01
 BYTE   En4
 BYTE   W01
 BYTE   Fs4
 BYTE   W01
 BYTE   PATT
  POIN2 Label_10_018FE91F
 BYTE   PATT
  POIN2 Label_10_018FE630
 BYTE   PATT
  POIN2 Label_10_018FEADA
// 033   ----------------------------------------
 BYTE   W48
 BYTE   N24  Ds2  v100
 BYTE   W24
 BYTE   Gs1
 BYTE   W48
// 034   ----------------------------------------
 BYTE   VOL   41*KirbySuperStarSagaVsMarxDolkar_mvl/mxv
 BYTE   N03
 BYTE   W01
 BYTE   VOL   42*KirbySuperStarSagaVsMarxDolkar_mvl/mxv
 BYTE   W01
 BYTE   Gs1
 BYTE   W01
 BYTE   An1
 BYTE   N03
 BYTE   W01
 BYTE   VOL   47*KirbySuperStarSagaVsMarxDolkar_mvl/mxv
 BYTE   W01
 BYTE   Cs2
 BYTE   W01
 BYTE   Dn2
 BYTE   N03
 BYTE   W01
 BYTE   VOL   52*KirbySuperStarSagaVsMarxDolkar_mvl/mxv
 BYTE   W01
 BYTE   Fn2
 BYTE   W01
 BYTE   Gn2
 BYTE   N03
 BYTE   W01
 BYTE   VOL   56*KirbySuperStarSagaVsMarxDolkar_mvl/mxv
 BYTE   W01
 BYTE   As2
 BYTE   W01
 BYTE   Cs3
 BYTE   N03
 BYTE   W01
 BYTE   VOL   62*KirbySuperStarSagaVsMarxDolkar_mvl/mxv
 BYTE   W01
 BYTE   En3
 BYTE   W01
 BYTE   Fs3
 BYTE   N03
 BYTE   W01
 BYTE   VOL   67*KirbySuperStarSagaVsMarxDolkar_mvl/mxv
 BYTE   W01
 BYTE   An3
 BYTE   W01
 BYTE   As3
 BYTE   N03
 BYTE   W01
 BYTE   VOL   71*KirbySuperStarSagaVsMarxDolkar_mvl/mxv
 BYTE   W01
 BYTE   Cs4
 BYTE   W01
 BYTE   Dn4
 BYTE   W01
 BYTE   En4
 BYTE   W01
 BYTE   Fs4
 BYTE   W01
 BYTE   Gs4
 BYTE   N24  Gn1
 BYTE   W48
 BYTE   VOL   41*KirbySuperStarSagaVsMarxDolkar_mvl/mxv
 BYTE   N03
 BYTE   W01
 BYTE   VOL   42*KirbySuperStarSagaVsMarxDolkar_mvl/mxv
 BYTE   W01
 BYTE   Gs1
 BYTE   W01
 BYTE   An1
 BYTE   N03
 BYTE   W01
 BYTE   VOL   47*KirbySuperStarSagaVsMarxDolkar_mvl/mxv
 BYTE   W01
 BYTE   Cs2
 BYTE   W01
 BYTE   Dn2
 BYTE   N03
 BYTE   W01
 BYTE   VOL   52*KirbySuperStarSagaVsMarxDolkar_mvl/mxv
 BYTE   W01
 BYTE   Fn2
 BYTE   W01
 BYTE   Gn2
 BYTE   N03
 BYTE   W01
 BYTE   VOL   56*KirbySuperStarSagaVsMarxDolkar_mvl/mxv
 BYTE   W01
 BYTE   As2
 BYTE   W01
 BYTE   Cs3
 BYTE   N03
 BYTE   W01
 BYTE   VOL   62*KirbySuperStarSagaVsMarxDolkar_mvl/mxv
 BYTE   W01
 BYTE   En3
 BYTE   W01
 BYTE   Fs3
 BYTE   N03
 BYTE   W01
 BYTE   VOL   67*KirbySuperStarSagaVsMarxDolkar_mvl/mxv
 BYTE   W01
 BYTE   An3
 BYTE   W01
 BYTE   As3
 BYTE   N03
 BYTE   W01
 BYTE   VOL   71*KirbySuperStarSagaVsMarxDolkar_mvl/mxv
 BYTE   W01
 BYTE   Cs4
 BYTE   W01
 BYTE   Dn4
 BYTE   W01
 BYTE   En4
 BYTE   W01
 BYTE   Fs4
 BYTE   W01
 BYTE   PATT
  POIN2 Label_10_018FE673
 BYTE   PATT
  POIN2 Label_10_018FE5FB
// 035   ----------------------------------------
 BYTE   VOL   80*KirbySuperStarSagaVsMarxDolkar_mvl/mxv
 BYTE   W72
 BYTE   PATT
  POIN2 Label_10_018FE630
 BYTE   PATT
  POIN2 Label_10_018FE673
// 036   ----------------------------------------
 BYTE   W72
 BYTE   W72
// 037   ----------------------------------------
 BYTE   W72
 BYTE   PATT
  POIN2 Label_10_018FE67D
 BYTE   PATT
  POIN2 Label_10_018FE6C0
 BYTE   PATT
  POIN2 Label_10_018FE707
 BYTE   PATT
  POIN2 Label_10_018FE848
 BYTE   PATT
  POIN2 Label_10_018FE88E
 BYTE   PATT
  POIN2 Label_10_018FE7D3
 BYTE   PATT
  POIN2 Label_10_018FE7DA
 BYTE   PATT
  POIN2 Label_10_018FE673
 BYTE   PATT
  POIN2 Label_10_018FE5FB
// 038   ----------------------------------------
 BYTE   VOL   80*KirbySuperStarSagaVsMarxDolkar_mvl/mxv
 BYTE   W72
 BYTE   PATT
  POIN2 Label_10_018FE630
 BYTE   PATT
  POIN2 Label_10_018FE673
// 039   ----------------------------------------
 BYTE   W72
 BYTE   W72
// 040   ----------------------------------------
 BYTE   W72
 BYTE   PATT
  POIN2 Label_10_018FE67D
 BYTE   PATT
  POIN2 Label_10_018FE6C0
 BYTE   PATT
  POIN2 Label_10_018FE707
 BYTE   PATT
  POIN2 Label_10_018FE848
 BYTE   PATT
  POIN2 Label_10_018FE88E
 BYTE   PATT
  POIN2 Label_10_018FE7D3
 BYTE   PATT
  POIN2 Label_10_018FE8DA
 BYTE   PATT
  POIN2 Label_10_018FE91F
// 041   ----------------------------------------
 BYTE   N24  Gs1  v100
 BYTE   W72
 BYTE   Ds1
 BYTE   W72
// 042   ----------------------------------------
 BYTE   As1
 BYTE   W72
 BYTE   PATT
  POIN2 Label_10_018FE92C
 BYTE   PATT
  POIN2 Label_10_018FE970
 BYTE   PATT
  POIN2 Label_10_018FE9B6
 BYTE   PATT
  POIN2 Label_10_018FE9BD
 BYTE   PATT
  POIN2 Label_10_018FEA01
 BYTE   PATT
  POIN2 Label_10_018FEA0A
 BYTE   PATT
  POIN2 Label_10_018FEA4E
 BYTE   PATT
  POIN2 Label_10_018FEA94
 BYTE   PATT
  POIN2 Label_10_018FEADA
 BYTE   PATT
  POIN2 Label_10_018FEAE1
 BYTE   PATT
  POIN2 Label_10_018FEA94
 BYTE   PATT
  POIN2 Label_10_018FEB29
 BYTE   PATT
  POIN2 Label_10_018FEB32
 BYTE   PATT
  POIN2 Label_10_018FEB39
 BYTE   PATT
  POIN2 Label_10_018FEB40
// 043   ----------------------------------------
 BYTE   N24  Dn2  v100
 BYTE   W72
 BYTE   W48
// 044   ----------------------------------------
 BYTE   VOL   42*KirbySuperStarSagaVsMarxDolkar_mvl/mxv
 BYTE   N03
 BYTE   W01
 BYTE   VOL   43*KirbySuperStarSagaVsMarxDolkar_mvl/mxv
 BYTE   W01
 BYTE   An1
 BYTE   W01
 BYTE   As1
 BYTE   N03
 BYTE   W01
 BYTE   VOL   47*KirbySuperStarSagaVsMarxDolkar_mvl/mxv
 BYTE   W01
 BYTE   Cs2
 BYTE   W01
 BYTE   Ds2
 BYTE   N03
 BYTE   W01
 BYTE   VOL   52*KirbySuperStarSagaVsMarxDolkar_mvl/mxv
 BYTE   W01
 BYTE   Fs2
 BYTE   W01
 BYTE   Gn2
 BYTE   N03
 BYTE   W01
 BYTE   VOL   57*KirbySuperStarSagaVsMarxDolkar_mvl/mxv
 BYTE   W01
 BYTE   As2
 BYTE   W01
 BYTE   Cs3
 BYTE   N03
 BYTE   W01
 BYTE   VOL   62*KirbySuperStarSagaVsMarxDolkar_mvl/mxv
 BYTE   W01
 BYTE   En3
 BYTE   W01
 BYTE   Fs3
 BYTE   N03
 BYTE   W01
 BYTE   VOL   67*KirbySuperStarSagaVsMarxDolkar_mvl/mxv
 BYTE   W01
 BYTE   An3
 BYTE   W01
 BYTE   As3
 BYTE   N03
 BYTE   W01
 BYTE   VOL   72*KirbySuperStarSagaVsMarxDolkar_mvl/mxv
 BYTE   W01
 BYTE   Cs4
 BYTE   W01
 BYTE   Dn4
 BYTE   W01
 BYTE   En4
 BYTE   W01
 BYTE   Fs4
 BYTE   W01
 BYTE   PATT
  POIN2 Label_10_018FE91F
 BYTE   PATT
  POIN2 Label_10_018FE630
 BYTE   PATT
  POIN2 Label_10_018FEADA
// 045   ----------------------------------------
 BYTE   W48
 BYTE   N24  Ds2  v100
 BYTE   W24
 BYTE   Gs1
 BYTE   W48
// 046   ----------------------------------------
 BYTE   VOL   42*KirbySuperStarSagaVsMarxDolkar_mvl/mxv
 BYTE   W01
 BYTE   Gn1
 BYTE   W01
 BYTE   An1
 BYTE   W01
 BYTE   As1
 BYTE   N03
 BYTE   W01
 BYTE   VOL   47*KirbySuperStarSagaVsMarxDolkar_mvl/mxv
 BYTE   W01
 BYTE   Cs2
 BYTE   W01
 BYTE   Ds2
 BYTE   N03
 BYTE   W01
 BYTE   VOL   52*KirbySuperStarSagaVsMarxDolkar_mvl/mxv
 BYTE   W01
 BYTE   Fs2
 BYTE   W01
 BYTE   Gn2
 BYTE   N03
 BYTE   W01
 BYTE   VOL   57*KirbySuperStarSagaVsMarxDolkar_mvl/mxv
 BYTE   W01
 BYTE   As2
 BYTE   W01
 BYTE   Cs3
 BYTE   N03
 BYTE   W01
 BYTE   VOL   62*KirbySuperStarSagaVsMarxDolkar_mvl/mxv
 BYTE   W01
 BYTE   En3
 BYTE   W01
 BYTE   Fs3
 BYTE   N03
 BYTE   W01
 BYTE   VOL   67*KirbySuperStarSagaVsMarxDolkar_mvl/mxv
 BYTE   W01
 BYTE   An3
 BYTE   W01
 BYTE   As3
 BYTE   N03
 BYTE   W01
 BYTE   VOL   72*KirbySuperStarSagaVsMarxDolkar_mvl/mxv
 BYTE   W01
 BYTE   Cs4
 BYTE   W01
 BYTE   Dn4
 BYTE   W01
 BYTE   En4
 BYTE   W01
 BYTE   Fs4
 BYTE   W01
 BYTE   Gs4
 BYTE   N24  Gn1
 BYTE   W48
 BYTE   VOL   42*KirbySuperStarSagaVsMarxDolkar_mvl/mxv
 BYTE   N03
 BYTE   W01
 BYTE   VOL   43*KirbySuperStarSagaVsMarxDolkar_mvl/mxv
 BYTE   W01
 BYTE   An1
 BYTE   W01
 BYTE   As1
 BYTE   N03
 BYTE   W01
 BYTE   VOL   47*KirbySuperStarSagaVsMarxDolkar_mvl/mxv
 BYTE   W01
 BYTE   Cs2
 BYTE   W01
 BYTE   Ds2
 BYTE   N03
 BYTE   W01
 BYTE   VOL   52*KirbySuperStarSagaVsMarxDolkar_mvl/mxv
 BYTE   W01
 BYTE   Fs2
 BYTE   W01
 BYTE   Gn2
 BYTE   N03
 BYTE   W01
 BYTE   VOL   57*KirbySuperStarSagaVsMarxDolkar_mvl/mxv
 BYTE   W01
 BYTE   As2
 BYTE   W01
 BYTE   Cs3
 BYTE   N03
 BYTE   W01
 BYTE   VOL   62*KirbySuperStarSagaVsMarxDolkar_mvl/mxv
 BYTE   W01
 BYTE   En3
 BYTE   W01
 BYTE   Fs3
 BYTE   N03
 BYTE   W01
 BYTE   VOL   67*KirbySuperStarSagaVsMarxDolkar_mvl/mxv
 BYTE   W01
 BYTE   An3
 BYTE   W01
 BYTE   As3
 BYTE   N03
 BYTE   W01
 BYTE   VOL   72*KirbySuperStarSagaVsMarxDolkar_mvl/mxv
 BYTE   W01
 BYTE   Cs4
 BYTE   W01
 BYTE   Dn4
 BYTE   W01
 BYTE   En4
 BYTE   W01
 BYTE   Fs4
 BYTE   W01
// 047   ----------------------------------------
 BYTE   Gs4
 BYTE   W24
 BYTE   GoTo
  POIN2 Label_10_018FE5AA
 BYTE   FINE

//**************** Track 12 (Midi-Chn.11) ****************//

KirbySuperStarSagaVsMarxDolkar_012:
// 000   ----------------------------------------
 BYTE   KEYSH   KirbySuperStarSagaVsMarxDolkar_key+0
Label_11_018FEDDA:
 BYTE   VOICE   52
 BYTE   VOL   80*KirbySuperStarSagaVsMarxDolkar_mvl/mxv
 BYTE   PAN   c_v+0
 BYTE   W72
 BYTE   W72
// 001   ----------------------------------------
 BYTE   W68
 BYTE   W01
 BYTE   N68  Gn0  v100
 BYTE   W03
 BYTE   W72
// 002   ----------------------------------------
 BYTE   W72
 BYTE   W96
// 003   ----------------------------------------
 BYTE   W72
 BYTE   W72
// 004   ----------------------------------------
 BYTE   W72
 BYTE   W72
// 005   ----------------------------------------
 BYTE   W72
 BYTE   W72
// 006   ----------------------------------------
 BYTE   W72
 BYTE   W96
// 007   ----------------------------------------
 BYTE   W24
 BYTE   W96
// 008   ----------------------------------------
 BYTE   W24
 BYTE   W72
// 009   ----------------------------------------
 BYTE   W72
 BYTE   W72
// 010   ----------------------------------------
 BYTE   W72
 BYTE   W72
// 011   ----------------------------------------
 BYTE   W96
// 012   ----------------------------------------
 BYTE   W72
 BYTE   W72
// 013   ----------------------------------------
 BYTE   W72
 BYTE   W72
// 014   ----------------------------------------
 BYTE   W72
 BYTE   W72
// 015   ----------------------------------------
 BYTE   W72
 BYTE   W96
// 016   ----------------------------------------
 BYTE   W24
 BYTE   W96
// 017   ----------------------------------------
 BYTE   W24
 BYTE   W72
// 018   ----------------------------------------
 BYTE   W72
 BYTE   W72
// 019   ----------------------------------------
 BYTE   W72
Label_11_018FEE0B:
 BYTE   VOICE   71
 BYTE   N12  Dn4  v100
 BYTE   W24
// 020   ----------------------------------------
 BYTE   N32  An4
 BYTE   W36
 BYTE   N09  Gs4
 BYTE   W12
 BYTE   PEND 
Label_11_018FEE18:
 BYTE   N09  Gn4  v100
 BYTE   W12
 BYTE   Ds4
 BYTE   W12
 BYTE   N21  Cn4
 BYTE   W24
// 021   ----------------------------------------
 BYTE   Ds4
 BYTE   W24
 BYTE   PEND 
Label_11_018FEE24:
 BYTE   N21  Fn4  v100
 BYTE   W24
 BYTE   Fs4
 BYTE   W24
 BYTE   Gs4
 BYTE   W24
 BYTE   PEND 
// 022   ----------------------------------------
Label_11_018FEE2D:
 BYTE   N09  Fn4  v100
 BYTE   W12
 BYTE   Cs4
 BYTE   W12
 BYTE   N21  As3
 BYTE   W24
 BYTE   Cs4
 BYTE   W24
 BYTE   PEND 
Label_11_018FEE39:
 BYTE   N21  Ds4  v100
 BYTE   W24
// 023   ----------------------------------------
 BYTE   Gs4
 BYTE   W24
 BYTE   Ds4
 BYTE   W24
 BYTE   N21
 BYTE   W24
 BYTE   Gs4
 BYTE   W24
 BYTE   PEND 
// 024   ----------------------------------------
Label_11_018FEE46:
 BYTE   N21  Ds4  v100
 BYTE   W24
 BYTE   Gs4
 BYTE   W24
 BYTE   Ds4
 BYTE   W24
 BYTE   Cs4
 BYTE   W24
// 025   ----------------------------------------
 BYTE   Ds4
 BYTE   W24
 BYTE   PEND 
 BYTE   W72
// 026   ----------------------------------------
 BYTE   W72
 BYTE   W72
// 027   ----------------------------------------
 BYTE   W72
 BYTE   W96
// 028   ----------------------------------------
 BYTE   W24
 BYTE   W96
// 029   ----------------------------------------
 BYTE   W24
 BYTE   W72
// 030   ----------------------------------------
 BYTE   W72
 BYTE   W96
// 031   ----------------------------------------
 BYTE   W24
 BYTE   W72
// 032   ----------------------------------------
 BYTE   W72
 BYTE   W72
// 033   ----------------------------------------
 BYTE   W72
 BYTE   W72
// 034   ----------------------------------------
 BYTE   W72
 BYTE   W72
// 035   ----------------------------------------
 BYTE   W72
Label_11_018FEE67:
 BYTE   VOICE   52
 BYTE   TIE  Gs0  v100
 BYTE   W72
 BYTE   PEND 
// 036   ----------------------------------------
 BYTE   W72
 BYTE   W68
// 037   ----------------------------------------
 BYTE   W01
 BYTE   EOT
 BYTE   W03
 BYTE   N68  Gn0
 BYTE   W72
 BYTE   W72
// 038   ----------------------------------------
 BYTE   W96
// 039   ----------------------------------------
 BYTE   W72
 BYTE   W72
// 040   ----------------------------------------
 BYTE   W72
 BYTE   W72
// 041   ----------------------------------------
 BYTE   W72
 BYTE   W72
// 042   ----------------------------------------
 BYTE   W72
 BYTE   W96
// 043   ----------------------------------------
 BYTE   W24
 BYTE   W96
// 044   ----------------------------------------
 BYTE   W24
 BYTE   W72
// 045   ----------------------------------------
 BYTE   W72
 BYTE   W72
// 046   ----------------------------------------
 BYTE   W72
 BYTE   W72
// 047   ----------------------------------------
 BYTE   W96
// 048   ----------------------------------------
 BYTE   W72
 BYTE   W72
// 049   ----------------------------------------
 BYTE   W72
 BYTE   W72
// 050   ----------------------------------------
 BYTE   W72
 BYTE   W72
// 051   ----------------------------------------
 BYTE   W72
 BYTE   W96
// 052   ----------------------------------------
 BYTE   W24
 BYTE   W96
// 053   ----------------------------------------
 BYTE   W24
 BYTE   W72
// 054   ----------------------------------------
 BYTE   W72
 BYTE   W72
// 055   ----------------------------------------
 BYTE   W72
 BYTE   PATT
  POIN2 Label_11_018FEE0B
 BYTE   PATT
  POIN2 Label_11_018FEE18
 BYTE   PATT
  POIN2 Label_11_018FEE24
 BYTE   PATT
  POIN2 Label_11_018FEE2D
 BYTE   PATT
  POIN2 Label_11_018FEE39
 BYTE   PATT
  POIN2 Label_11_018FEE46
// 056   ----------------------------------------
 BYTE   W72
 BYTE   W72
// 057   ----------------------------------------
 BYTE   W72
 BYTE   W72
// 058   ----------------------------------------
 BYTE   W96
// 059   ----------------------------------------
 BYTE   W24
 BYTE   W96
// 060   ----------------------------------------
 BYTE   W24
 BYTE   W72
// 061   ----------------------------------------
 BYTE   W72
 BYTE   W96
// 062   ----------------------------------------
 BYTE   W24
 BYTE   W72
// 063   ----------------------------------------
 BYTE   W72
 BYTE   W72
// 064   ----------------------------------------
 BYTE   W72
 BYTE   W72
// 065   ----------------------------------------
 BYTE   W72
 BYTE   W72
// 066   ----------------------------------------
 BYTE   W72
 BYTE   PATT
  POIN2 Label_11_018FEE67
// 067   ----------------------------------------
 BYTE   W72
 BYTE   W68
// 068   ----------------------------------------
 BYTE   W01
 BYTE   EOT
 BYTE   Gs0
 BYTE   W03
 BYTE   N68  Gn0  v100
 BYTE   W72
 BYTE   W24
// 069   ----------------------------------------
 BYTE   GoTo
  POIN2 Label_11_018FEDDA
 BYTE   FINE

//**************** Track 13 (Midi-Chn.12) ****************//

KirbySuperStarSagaVsMarxDolkar_013:
// 000   ----------------------------------------
 BYTE   KEYSH   KirbySuperStarSagaVsMarxDolkar_key+0
Label_12_018FEEE2:
 BYTE   VOICE   48
 BYTE   VOL   80*KirbySuperStarSagaVsMarxDolkar_mvl/mxv
 BYTE   PAN   c_v+0
 BYTE   W72
 BYTE   W72
// 001   ----------------------------------------
 BYTE   W72
 BYTE   W68
// 002   ----------------------------------------
 BYTE   W01
 BYTE   N12  Fn1  v100
 BYTE   W03
 BYTE   W44
 BYTE   W01
 BYTE   N21  Fn2
 BYTE   W24
 BYTE   W03
Label_12_018FEEF7:
 BYTE   N21  En2  v100
 BYTE   W24
// 003   ----------------------------------------
 BYTE   Gs2
 BYTE   W24
 BYTE   Fn2
 BYTE   W24
 BYTE   Cn2
 BYTE   W24
 BYTE   PEND 
Label_12_018FEF02:
 BYTE   N21  En1  v100
 BYTE   W24
// 004   ----------------------------------------
 BYTE   En2
 BYTE   W24
 BYTE   Bn1
 BYTE   W24
 BYTE   PEND 
Label_12_018FEF0B:
 BYTE   N21  Ds1  v100
 BYTE   W24
 BYTE   Gn2
 BYTE   W24
// 005   ----------------------------------------
 BYTE   Ds2
 BYTE   W24
 BYTE   PEND 
Label_12_018FEF14:
 BYTE   N12  Fn1  v100
 BYTE   W48
 BYTE   N21  Fn2
 BYTE   W24
 BYTE   PEND 
// 006   ----------------------------------------
Label_12_018FEF1C:
 BYTE   N21  En2  v100
 BYTE   W24
 BYTE   Gs2
 BYTE   W24
 BYTE   Fn2
 BYTE   W24
 BYTE   PEND 
Label_12_018FEF25:
 BYTE   N21  Cn2  v100
 BYTE   W24
// 007   ----------------------------------------
 BYTE   Gs2
 BYTE   W24
 BYTE   Fn1
 BYTE   W24
 BYTE   PEND 
 BYTE   PATT
  POIN2 Label_12_018FEF02
 BYTE   PATT
  POIN2 Label_12_018FEF0B
// 008   ----------------------------------------
Label_12_018FEF38:
 BYTE   N36  Dn1  v100
 BYTE   W48
 BYTE   N21  Dn2
 BYTE   W24
 BYTE   Fn2
 BYTE   W24
// 009   ----------------------------------------
 BYTE   Dn2
 BYTE   W24
 BYTE   PEND 
Label_12_018FEF44:
 BYTE   N36  Fs1  v100
 BYTE   W48
 BYTE   N21  Fs2
 BYTE   W24
// 010   ----------------------------------------
 BYTE   An2
 BYTE   W24
 BYTE   Fs2
 BYTE   W24
 BYTE   PEND 
Label_12_018FEF50:
 BYTE   N32  Ds1  v100
 BYTE   W36
 BYTE   Ds2
 BYTE   W36
 BYTE   PEND 
// 011   ----------------------------------------
Label_12_018FEF57:
 BYTE   N32  As1  v100
 BYTE   W36
 BYTE   As2
 BYTE   W36
 BYTE   PEND 
Label_12_018FEF5E:
 BYTE   N21  An1  v100
 BYTE   W24
// 012   ----------------------------------------
 BYTE   En2
 BYTE   W24
 BYTE   An2
 BYTE   W24
 BYTE   PEND 
Label_12_018FEF67:
 BYTE   N21  Fs1  v100
 BYTE   W24
 BYTE   Fs2
 BYTE   W24
// 013   ----------------------------------------
 BYTE   En1
 BYTE   W24
 BYTE   PEND 
 BYTE   PATT
  POIN2 Label_12_018FEF14
 BYTE   PATT
  POIN2 Label_12_018FEEF7
 BYTE   PATT
  POIN2 Label_12_018FEF02
 BYTE   PATT
  POIN2 Label_12_018FEF0B
 BYTE   PATT
  POIN2 Label_12_018FEF14
 BYTE   PATT
  POIN2 Label_12_018FEF1C
 BYTE   PATT
  POIN2 Label_12_018FEF25
 BYTE   PATT
  POIN2 Label_12_018FEF02
 BYTE   PATT
  POIN2 Label_12_018FEF0B
 BYTE   PATT
  POIN2 Label_12_018FEF38
 BYTE   PATT
  POIN2 Label_12_018FEF44
 BYTE   PATT
  POIN2 Label_12_018FEF50
 BYTE   PATT
  POIN2 Label_12_018FEF57
 BYTE   PATT
  POIN2 Label_12_018FEF5E
 BYTE   PATT
  POIN2 Label_12_018FEF67
// 014   ----------------------------------------
 BYTE   W72
 BYTE   W72
// 015   ----------------------------------------
 BYTE   W72
 BYTE   W72
// 016   ----------------------------------------
 BYTE   W96
// 017   ----------------------------------------
 BYTE   W24
 BYTE   W96
// 018   ----------------------------------------
 BYTE   W24
Label_12_018FEFC3:
 BYTE   N21  Ds1  v100
 BYTE   W24
 BYTE   As1
 BYTE   W24
 BYTE   Ds2
 BYTE   W24
 BYTE   PEND 
// 019   ----------------------------------------
Label_12_018FEFCC:
 BYTE   N21  Dn1  v100
 BYTE   W24
 BYTE   An1
 BYTE   W24
 BYTE   Dn2
 BYTE   W24
 BYTE   PEND 
Label_12_018FEFD5:
 BYTE   N21  Gn1  v100
 BYTE   W24
// 020   ----------------------------------------
 BYTE   Dn2
 BYTE   W24
 BYTE   Gn2
 BYTE   W24
 BYTE   PEND 
Label_12_018FEFDE:
 BYTE   N21  Dn2  v100
 BYTE   W24
 BYTE   Gn2
 BYTE   W24
// 021   ----------------------------------------
 BYTE   Gn1
 BYTE   W24
 BYTE   PEND 
Label_12_018FEFE7:
 BYTE   N21  Gs1  v100
 BYTE   W24
 BYTE   N09
 BYTE   W12
 BYTE   N21  Gs2
 BYTE   W24
 BYTE   N09  Gs1
 BYTE   W12
// 022   ----------------------------------------
 BYTE   N09
 BYTE   W12
 BYTE   N09
 BYTE   W12
 BYTE   Gs2
 BYTE   W12
 BYTE   Ds2
 BYTE   W12
 BYTE   PEND 
Label_12_018FEFFC:
 BYTE   N21  Gn1  v100
 BYTE   W24
 BYTE   N09
 BYTE   W12
 BYTE   N21  Gn2
 BYTE   W24
// 023   ----------------------------------------
 BYTE   N09  Gn1
 BYTE   W12
 BYTE   N09
 BYTE   W12
 BYTE   N09
 BYTE   W12
 BYTE   Gn2
 BYTE   W12
 BYTE   Dn2
 BYTE   W12
 BYTE   PEND 
Label_12_018FF011:
 BYTE   N21  Gs1  v100
 BYTE   W24
 BYTE   N09
 BYTE   W12
// 024   ----------------------------------------
 BYTE   N21  Gs2
 BYTE   W24
 BYTE   N09  Gs1
 BYTE   W12
 BYTE   PEND 
Label_12_018FF01E:
 BYTE   N09  Gs1  v100
 BYTE   W12
 BYTE   N09
 BYTE   W12
 BYTE   Gs2
 BYTE   W12
 BYTE   Ds2
 BYTE   W12
 BYTE   Gn2
 BYTE   W12
// 025   ----------------------------------------
 BYTE   Gs2
 BYTE   W12
 BYTE   PEND 
 BYTE   PATT
  POIN2 Label_12_018FEFFC
// 026   ----------------------------------------
Label_12_018FF032:
 BYTE   N21  Fn1  v100
 BYTE   W24
 BYTE   N09
 BYTE   W12
 BYTE   N21  Fn2
 BYTE   W24
 BYTE   N09  Cn2
 BYTE   W12
 BYTE   PEND 
Label_12_018FF03F:
 BYTE   N09  As1  v100
 BYTE   W12
 BYTE   N09
 BYTE   W12
// 027   ----------------------------------------
 BYTE   As2
 BYTE   W12
 BYTE   Fn2
 BYTE   W12
 BYTE   As1
 BYTE   W12
 BYTE   Fn2
 BYTE   W12
 BYTE   PEND 
Label_12_018FF04E:
 BYTE   N21  Ds1  v100
 BYTE   W24
 BYTE   N09
 BYTE   W12
 BYTE   N21  Ds2
 BYTE   W24
// 028   ----------------------------------------
 BYTE   N09  As1
 BYTE   W12
 BYTE   PEND 
Label_12_018FF05B:
 BYTE   N09  Gs1  v100
 BYTE   W12
 BYTE   N09
 BYTE   W12
 BYTE   Gs2
 BYTE   W12
 BYTE   Gs1
 BYTE   W12
 BYTE   Gs2
 BYTE   W12
 BYTE   Gs1
 BYTE   W12
 BYTE   PEND 
 BYTE   N68  Dn1
 BYTE   W72
// 029   ----------------------------------------
Label_12_018FF06D:
 BYTE   N21  Dn2  v100
 BYTE   W24
 BYTE   En2
 BYTE   W24
 BYTE   Fn2
 BYTE   W24
 BYTE   PEND 
Label_12_018FF076:
 BYTE   N44  Gn2  v100
 BYTE   W48
// 030   ----------------------------------------
 BYTE   Dn2
 BYTE   W24
 BYTE   PEND 
 BYTE   W24
 BYTE   Gn1
 BYTE   W48
// 031   ----------------------------------------
 BYTE   W72
 BYTE   W72
// 032   ----------------------------------------
 BYTE   W72
 BYTE   W72
 BYTE   PATT
  POIN2 Label_12_018FEF14
 BYTE   PATT
  POIN2 Label_12_018FEEF7
 BYTE   PATT
  POIN2 Label_12_018FEF02
 BYTE   PATT
  POIN2 Label_12_018FEF0B
 BYTE   PATT
  POIN2 Label_12_018FEF14
 BYTE   PATT
  POIN2 Label_12_018FEF1C
 BYTE   PATT
  POIN2 Label_12_018FEF25
 BYTE   PATT
  POIN2 Label_12_018FEF02
 BYTE   PATT
  POIN2 Label_12_018FEF0B
 BYTE   PATT
  POIN2 Label_12_018FEF38
 BYTE   PATT
  POIN2 Label_12_018FEF44
 BYTE   PATT
  POIN2 Label_12_018FEF50
 BYTE   PATT
  POIN2 Label_12_018FEF57
 BYTE   PATT
  POIN2 Label_12_018FEF5E
 BYTE   PATT
  POIN2 Label_12_018FEF67
 BYTE   PATT
  POIN2 Label_12_018FEF14
 BYTE   PATT
  POIN2 Label_12_018FEEF7
 BYTE   PATT
  POIN2 Label_12_018FEF02
 BYTE   PATT
  POIN2 Label_12_018FEF0B
 BYTE   PATT
  POIN2 Label_12_018FEF14
 BYTE   PATT
  POIN2 Label_12_018FEF1C
 BYTE   PATT
  POIN2 Label_12_018FEF25
 BYTE   PATT
  POIN2 Label_12_018FEF02
 BYTE   PATT
  POIN2 Label_12_018FEF0B
 BYTE   PATT
  POIN2 Label_12_018FEF38
 BYTE   PATT
  POIN2 Label_12_018FEF44
 BYTE   PATT
  POIN2 Label_12_018FEF50
 BYTE   PATT
  POIN2 Label_12_018FEF57
 BYTE   PATT
  POIN2 Label_12_018FEF5E
 BYTE   PATT
  POIN2 Label_12_018FEF67
// 033   ----------------------------------------
 BYTE   W72
 BYTE   W72
// 034   ----------------------------------------
 BYTE   W72
 BYTE   W72
// 035   ----------------------------------------
 BYTE   W96
// 036   ----------------------------------------
 BYTE   W24
 BYTE   W96
// 037   ----------------------------------------
 BYTE   W24
 BYTE   PATT
  POIN2 Label_12_018FEFC3
 BYTE   PATT
  POIN2 Label_12_018FEFCC
 BYTE   PATT
  POIN2 Label_12_018FEFD5
 BYTE   PATT
  POIN2 Label_12_018FEFDE
 BYTE   PATT
  POIN2 Label_12_018FEFE7
 BYTE   PATT
  POIN2 Label_12_018FEFFC
 BYTE   PATT
  POIN2 Label_12_018FF011
 BYTE   PATT
  POIN2 Label_12_018FF01E
 BYTE   PATT
  POIN2 Label_12_018FEFFC
 BYTE   PATT
  POIN2 Label_12_018FF032
 BYTE   PATT
  POIN2 Label_12_018FF03F
 BYTE   PATT
  POIN2 Label_12_018FF04E
 BYTE   PATT
  POIN2 Label_12_018FF05B
// 038   ----------------------------------------
 BYTE   N68  Dn1  v100
 BYTE   W72
 BYTE   PATT
  POIN2 Label_12_018FF06D
 BYTE   PATT
  POIN2 Label_12_018FF076
// 039   ----------------------------------------
 BYTE   W24
 BYTE   N44  Gn1  v100
 BYTE   W48
 BYTE   W72
// 040   ----------------------------------------
 BYTE   W72
 BYTE   W72
// 041   ----------------------------------------
 BYTE   W72
 BYTE   W24
// 042   ----------------------------------------
 BYTE   GoTo
  POIN2 Label_12_018FEEE2
 BYTE   FINE

//**************** Track 14 (Midi-Chn.13) ****************//

KirbySuperStarSagaVsMarxDolkar_014:
// 000   ----------------------------------------
 BYTE   KEYSH   KirbySuperStarSagaVsMarxDolkar_key+0
Label_13_018FF186:
 BYTE   VOICE   58
 BYTE   VOL   80*KirbySuperStarSagaVsMarxDolkar_mvl/mxv
 BYTE   PAN   c_v+0
 BYTE   W72
 BYTE   W72
// 001   ----------------------------------------
 BYTE   W72
 BYTE   W72
// 002   ----------------------------------------
 BYTE   W72
 BYTE   W96
// 003   ----------------------------------------
 BYTE   W72
 BYTE   W72
// 004   ----------------------------------------
 BYTE   W72
 BYTE   W72
// 005   ----------------------------------------
 BYTE   W72
 BYTE   W72
// 006   ----------------------------------------
 BYTE   W72
 BYTE   W96
// 007   ----------------------------------------
 BYTE   W24
 BYTE   W96
// 008   ----------------------------------------
 BYTE   W24
 BYTE   W72
// 009   ----------------------------------------
 BYTE   W72
 BYTE   W72
// 010   ----------------------------------------
 BYTE   W72
 BYTE   W72
// 011   ----------------------------------------
 BYTE   W96
// 012   ----------------------------------------
 BYTE   W72
 BYTE   W72
// 013   ----------------------------------------
 BYTE   W72
 BYTE   W72
// 014   ----------------------------------------
 BYTE   W72
 BYTE   W72
// 015   ----------------------------------------
 BYTE   W72
 BYTE   W96
// 016   ----------------------------------------
 BYTE   W24
 BYTE   W96
// 017   ----------------------------------------
 BYTE   W24
 BYTE   W72
// 018   ----------------------------------------
 BYTE   W72
 BYTE   W72
// 019   ----------------------------------------
 BYTE   W72
Label_13_018FF1B2:
 BYTE   N32  Gn1  v100
 BYTE   W36
// 020   ----------------------------------------
 BYTE   N09  Dn2
 BYTE   W12
 BYTE   Gn2
 BYTE   W12
 BYTE   Dn2
 BYTE   W12
 BYTE   PEND 
Label_13_018FF1BE:
 BYTE   N32  Gs1  v100
 BYTE   W36
 BYTE   N09  Ds2
 BYTE   W12
 BYTE   Gs2
 BYTE   W12
// 021   ----------------------------------------
 BYTE   Ds2
 BYTE   W12
 BYTE   PEND 
Label_13_018FF1CA:
 BYTE   N32  Ds1  v100
 BYTE   W36
 BYTE   N09  Ds2
 BYTE   W12
 BYTE   As2
 BYTE   W12
 BYTE   Ds2
 BYTE   W12
 BYTE   PEND 
Label_13_018FF1D6:
 BYTE   N32  As1  v100
 BYTE   W36
// 022   ----------------------------------------
 BYTE   N09  As2
 BYTE   W12
 BYTE   Fn2
 BYTE   W12
 BYTE   As2
 BYTE   W12
 BYTE   PEND 
Label_13_018FF1E2:
 BYTE   N32  Fn1  v100
 BYTE   W36
 BYTE   Fn2
 BYTE   W36
// 023   ----------------------------------------
 BYTE   N09  Fn1
 BYTE   W12
 BYTE   Fn2
 BYTE   W12
 BYTE   Fn1
 BYTE   W12
 BYTE   Fn2
 BYTE   W12
 BYTE   PEND 
Label_13_018FF1F2:
 BYTE   N32  En1  v100
 BYTE   W36
 BYTE   En2
 BYTE   W36
// 024   ----------------------------------------
 BYTE   N09  En1
 BYTE   W12
 BYTE   En2
 BYTE   W12
 BYTE   En1
 BYTE   W12
 BYTE   En2
 BYTE   W12
 BYTE   PEND 
 BYTE   W72
// 025   ----------------------------------------
 BYTE   W72
 BYTE   W72
// 026   ----------------------------------------
 BYTE   W72
 BYTE   W96
// 027   ----------------------------------------
 BYTE   W24
 BYTE   W96
// 028   ----------------------------------------
 BYTE   W24
 BYTE   W72
// 029   ----------------------------------------
 BYTE   W72
 BYTE   W96
// 030   ----------------------------------------
 BYTE   W24
 BYTE   W72
// 031   ----------------------------------------
 BYTE   W72
 BYTE   W72
// 032   ----------------------------------------
 BYTE   W72
 BYTE   W72
// 033   ----------------------------------------
 BYTE   W72
 BYTE   W72
// 034   ----------------------------------------
 BYTE   W72
 BYTE   W72
// 035   ----------------------------------------
 BYTE   W72
 BYTE   W72
// 036   ----------------------------------------
 BYTE   W72
 BYTE   W72
// 037   ----------------------------------------
 BYTE   W96
// 038   ----------------------------------------
 BYTE   W72
 BYTE   W72
// 039   ----------------------------------------
 BYTE   W72
 BYTE   W72
// 040   ----------------------------------------
 BYTE   W72
 BYTE   W72
// 041   ----------------------------------------
 BYTE   W72
 BYTE   W96
// 042   ----------------------------------------
 BYTE   W24
 BYTE   W96
// 043   ----------------------------------------
 BYTE   W24
 BYTE   W72
// 044   ----------------------------------------
 BYTE   W72
 BYTE   W72
// 045   ----------------------------------------
 BYTE   W72
 BYTE   W72
// 046   ----------------------------------------
 BYTE   W96
// 047   ----------------------------------------
 BYTE   W72
 BYTE   W72
// 048   ----------------------------------------
 BYTE   W72
 BYTE   W72
// 049   ----------------------------------------
 BYTE   W72
 BYTE   W72
// 050   ----------------------------------------
 BYTE   W72
 BYTE   W96
// 051   ----------------------------------------
 BYTE   W24
 BYTE   W96
// 052   ----------------------------------------
 BYTE   W24
 BYTE   W72
// 053   ----------------------------------------
 BYTE   W72
 BYTE   W72
// 054   ----------------------------------------
 BYTE   W72
 BYTE   PATT
  POIN2 Label_13_018FF1B2
 BYTE   PATT
  POIN2 Label_13_018FF1BE
 BYTE   PATT
  POIN2 Label_13_018FF1CA
 BYTE   PATT
  POIN2 Label_13_018FF1D6
 BYTE   PATT
  POIN2 Label_13_018FF1E2
 BYTE   PATT
  POIN2 Label_13_018FF1F2
// 055   ----------------------------------------
 BYTE   W72
 BYTE   W72
// 056   ----------------------------------------
 BYTE   W72
 BYTE   W72
// 057   ----------------------------------------
 BYTE   W96
// 058   ----------------------------------------
 BYTE   W24
 BYTE   W96
// 059   ----------------------------------------
 BYTE   W24
 BYTE   W72
// 060   ----------------------------------------
 BYTE   W72
 BYTE   W96
// 061   ----------------------------------------
 BYTE   W24
 BYTE   W72
// 062   ----------------------------------------
 BYTE   W72
 BYTE   W72
// 063   ----------------------------------------
 BYTE   W72
 BYTE   W72
// 064   ----------------------------------------
 BYTE   W72
 BYTE   W72
// 065   ----------------------------------------
 BYTE   W72
 BYTE   W72
// 066   ----------------------------------------
 BYTE   W72
 BYTE   W72
// 067   ----------------------------------------
 BYTE   W72
 BYTE   W24
// 068   ----------------------------------------
 BYTE   GoTo
  POIN2 Label_13_018FF186
 BYTE   FINE

//**************** Track 15 (Midi-Chn.14) ****************//

KirbySuperStarSagaVsMarxDolkar_015:
// 000   ----------------------------------------
 BYTE   VOL   80*KirbySuperStarSagaVsMarxDolkar_mvl/mxv
 BYTE   KEYSH   KirbySuperStarSagaVsMarxDolkar_key+0
Label_14_018FF280:
 BYTE   VOICE   52
 BYTE   PAN   c_v-20
 BYTE   W72
 BYTE   W72
// 001   ----------------------------------------
 BYTE   W72
 BYTE   W72
// 002   ----------------------------------------
 BYTE   W72
 BYTE   W96
// 003   ----------------------------------------
 BYTE   W72
 BYTE   W72
// 004   ----------------------------------------
 BYTE   W72
 BYTE   W72
// 005   ----------------------------------------
 BYTE   W72
 BYTE   W72
// 006   ----------------------------------------
 BYTE   W72
 BYTE   W96
// 007   ----------------------------------------
 BYTE   W24
 BYTE   W96
// 008   ----------------------------------------
 BYTE   W24
 BYTE   W72
// 009   ----------------------------------------
 BYTE   W72
 BYTE   W72
// 010   ----------------------------------------
 BYTE   W72
 BYTE   W72
// 011   ----------------------------------------
 BYTE   W96
// 012   ----------------------------------------
 BYTE   W72
 BYTE   W72
// 013   ----------------------------------------
 BYTE   W72
 BYTE   W72
// 014   ----------------------------------------
 BYTE   W72
 BYTE   W72
// 015   ----------------------------------------
 BYTE   W72
 BYTE   W96
// 016   ----------------------------------------
 BYTE   W24
 BYTE   W96
// 017   ----------------------------------------
 BYTE   W24
 BYTE   W72
// 018   ----------------------------------------
 BYTE   W72
 BYTE   W72
// 019   ----------------------------------------
 BYTE   W72
 BYTE   W72
// 020   ----------------------------------------
 BYTE   W72
 BYTE   W72
// 021   ----------------------------------------
 BYTE   W72
 BYTE   W96
// 022   ----------------------------------------
 BYTE   W24
 BYTE   W96
// 023   ----------------------------------------
 BYTE   W24
 BYTE   W72
// 024   ----------------------------------------
 BYTE   W72
 BYTE   W72
// 025   ----------------------------------------
 BYTE   W72
 BYTE   W96
// 026   ----------------------------------------
 BYTE   W24
 BYTE   W96
// 027   ----------------------------------------
 BYTE   W24
 BYTE   W72
// 028   ----------------------------------------
 BYTE   W72
 BYTE   W96
// 029   ----------------------------------------
 BYTE   W24
 BYTE   W72
// 030   ----------------------------------------
 BYTE   W72
Label_14_018FF2C0:
 BYTE   W48
// 031   ----------------------------------------
 BYTE   PAN   c_v-24
 BYTE   N09  Gn3  v100
 BYTE   W02
 BYTE   PAN   c_v-23
 BYTE   W02
 BYTE   Fs1
 BYTE   W02
 BYTE   Gn1
 BYTE   W02
 BYTE   Gs1
 BYTE   W02
 BYTE   An1
 BYTE   W02
 BYTE   As1
 BYTE   N09  Fn3
 BYTE   W02
 BYTE   PAN   c_v-17
 BYTE   W02
 BYTE   Cn2
 BYTE   W02
 BYTE   Cs2
 BYTE   W02
 BYTE   Dn2
 BYTE   W02
 BYTE   Ds2
 BYTE   W02
 BYTE   PEND 
Label_14_018FF2E2:
 BYTE   PAN   c_v-12
 BYTE   N21  Gn3  v100
 BYTE   W02
 BYTE   PAN   c_v-11
 BYTE   W02
 BYTE   Fs2
 BYTE   W02
 BYTE   Gn2
 BYTE   W02
 BYTE   Gs2
 BYTE   W02
 BYTE   An2
 BYTE   W02
 BYTE   As2
 BYTE   W02
 BYTE   Bn2
 BYTE   W02
 BYTE   Cn3
 BYTE   W02
 BYTE   Cs3
 BYTE   W02
 BYTE   Dn3
 BYTE   W02
 BYTE   Ds3
 BYTE   W02
 BYTE   En3
 BYTE   N09
 BYTE   W02
 BYTE   PAN   c_v+1
 BYTE   W02
 BYTE   Fs3
 BYTE   W02
 BYTE   Gn3
 BYTE   W02
 BYTE   Gs3
 BYTE   W02
 BYTE   An3
 BYTE   W02
 BYTE   As3
 BYTE   N09  Fn3
 BYTE   W02
 BYTE   PAN   c_v+7
 BYTE   W02
 BYTE   Cn4
 BYTE   W02
 BYTE   Cs4
 BYTE   W02
 BYTE   Dn4
 BYTE   W02
 BYTE   Ds4
 BYTE   W02
 BYTE   En4
 BYTE   N21  Gn3
 BYTE   W02
 BYTE   PAN   c_v+13
 BYTE   W02
 BYTE   Fs4
 BYTE   W02
 BYTE   Gn4
 BYTE   W02
 BYTE   Gs4
 BYTE   W02
 BYTE   An4
 BYTE   W02
 BYTE   As4
 BYTE   W02
 BYTE   Bn4
 BYTE   W02
 BYTE   Cn5
 BYTE   W02
 BYTE   Cs5
 BYTE   W02
 BYTE   Dn5
 BYTE   W02
 BYTE   Ds5
 BYTE   W02
 BYTE   PEND 
// 032   ----------------------------------------
 BYTE   En5
 BYTE   W72
 BYTE   W72
// 033   ----------------------------------------
 BYTE   W72
 BYTE   W72
// 034   ----------------------------------------
Label_14_018FF33D:
 BYTE   PAN   c_v+24
 BYTE   N32  Bn2  v100
 BYTE   W36
 BYTE   Gs2
 BYTE   W36
 BYTE   PEND 
Label_14_018FF346:
 BYTE   N32  Bn2  v100
 BYTE   W36
// 035   ----------------------------------------
 BYTE   Gs2
 BYTE   W36
 BYTE   PEND 
 BYTE   PATT
  POIN2 Label_14_018FF346
// 036   ----------------------------------------
Label_14_018FF352:
 BYTE   N32  As2  v100
 BYTE   W36
 BYTE   Gn2
 BYTE   W36
 BYTE   PEND 
 BYTE   W72
// 037   ----------------------------------------
 BYTE   W96
// 038   ----------------------------------------
 BYTE   W72
 BYTE   W72
// 039   ----------------------------------------
 BYTE   W72
 BYTE   W72
// 040   ----------------------------------------
 BYTE   W72
 BYTE   W72
// 041   ----------------------------------------
 BYTE   W72
 BYTE   W96
// 042   ----------------------------------------
 BYTE   W24
 BYTE   W96
// 043   ----------------------------------------
 BYTE   W24
 BYTE   W72
// 044   ----------------------------------------
 BYTE   W72
 BYTE   W72
// 045   ----------------------------------------
 BYTE   W72
 BYTE   W72
// 046   ----------------------------------------
 BYTE   W96
// 047   ----------------------------------------
 BYTE   W72
 BYTE   W72
// 048   ----------------------------------------
 BYTE   W72
 BYTE   W72
// 049   ----------------------------------------
 BYTE   W72
 BYTE   W72
// 050   ----------------------------------------
 BYTE   W72
 BYTE   W96
// 051   ----------------------------------------
 BYTE   W24
 BYTE   W96
// 052   ----------------------------------------
 BYTE   W24
 BYTE   W72
// 053   ----------------------------------------
 BYTE   W72
 BYTE   W72
// 054   ----------------------------------------
 BYTE   W72
 BYTE   W72
// 055   ----------------------------------------
 BYTE   W72
 BYTE   W72
// 056   ----------------------------------------
 BYTE   W72
 BYTE   W96
// 057   ----------------------------------------
 BYTE   W24
 BYTE   W96
// 058   ----------------------------------------
 BYTE   W24
 BYTE   W72
// 059   ----------------------------------------
 BYTE   W72
 BYTE   W72
// 060   ----------------------------------------
 BYTE   W72
 BYTE   W96
// 061   ----------------------------------------
 BYTE   W24
 BYTE   W96
// 062   ----------------------------------------
 BYTE   W24
 BYTE   W72
// 063   ----------------------------------------
 BYTE   W72
 BYTE   W96
// 064   ----------------------------------------
 BYTE   W24
 BYTE   W72
// 065   ----------------------------------------
 BYTE   W72
 BYTE   PATT
  POIN2 Label_14_018FF2C0
 BYTE   PATT
  POIN2 Label_14_018FF2E2
// 066   ----------------------------------------
 BYTE   PAN   c_v+24
 BYTE   W72
 BYTE   W72
// 067   ----------------------------------------
 BYTE   W72
 BYTE   W72
 BYTE   PATT
  POIN2 Label_14_018FF33D
 BYTE   PATT
  POIN2 Label_14_018FF346
 BYTE   PATT
  POIN2 Label_14_018FF346
 BYTE   PATT
  POIN2 Label_14_018FF352
// 068   ----------------------------------------
 BYTE   W24
 BYTE   GoTo
  POIN2 Label_14_018FF280
 BYTE   FINE

//******************************************************//
	ALIGN 4

KirbySuperStarSagaVsMarxDolkar:
	BYTE	15	// NumTrks
	BYTE	0	// NumBlks
	BYTE	KirbySuperStarSagaVsMarxDolkar_pri	// Priority
	BYTE	KirbySuperStarSagaVsMarxDolkar_rev	// Reverb.
    
	POIN2	KirbySuperStarSagaVsMarxDolkar_grp
    
	POIN2	KirbySuperStarSagaVsMarxDolkar_001
	POIN2	KirbySuperStarSagaVsMarxDolkar_002
	POIN2	KirbySuperStarSagaVsMarxDolkar_003
	POIN2	KirbySuperStarSagaVsMarxDolkar_004
	POIN2	KirbySuperStarSagaVsMarxDolkar_005
	POIN2	KirbySuperStarSagaVsMarxDolkar_006
	POIN2	KirbySuperStarSagaVsMarxDolkar_007
	POIN2	KirbySuperStarSagaVsMarxDolkar_008
	POIN2	KirbySuperStarSagaVsMarxDolkar_009
	POIN2	KirbySuperStarSagaVsMarxDolkar_010
	POIN2	KirbySuperStarSagaVsMarxDolkar_011
	POIN2	KirbySuperStarSagaVsMarxDolkar_012
	POIN2	KirbySuperStarSagaVsMarxDolkar_013
	POIN2	KirbySuperStarSagaVsMarxDolkar_014
	POIN2	KirbySuperStarSagaVsMarxDolkar_015

	
