//Event file generated from Sappy .s format.
	#include "MPlayDef.event"

	#define	KirbyDreamLandRippleField1Pandan_grp  voicegroup000
	#define	KirbyDreamLandRippleField1Pandan_pri  0
	#define	KirbyDreamLandRippleField1Pandan_rev  0
	#define	KirbyDreamLandRippleField1Pandan_mvl  127
	#define	KirbyDreamLandRippleField1Pandan_key  0
	#define	KirbyDreamLandRippleField1Pandan_tbs  1
	#define	KirbyDreamLandRippleField1Pandan_exg  0
	#define	KirbyDreamLandRippleField1Pandan_cmp  1

	// .rodata
	//	KirbyDreamLandRippleField1Pandan
	ALIGN 4


//**************** Track 1 (Midi-Chn.0) ****************//

KirbyDreamLandRippleField1Pandan_001:
// 000   ----------------------------------------
 BYTE   KEYSH   KirbyDreamLandRippleField1Pandan_key+0
Label_0_01603CE2:
 BYTE   TEMPO   152*KirbyDreamLandRippleField1Pandan_tbs/2
 BYTE   VOICE   73
 BYTE   MODT 0
 BYTE   CnM2
 BYTE   LFOS 0
 BYTE   Gs1
 BYTE   VOL   60*KirbyDreamLandRippleField1Pandan_mvl/mxv
 BYTE   PAN   c_v+0
 BYTE   VOL   33*KirbyDreamLandRippleField1Pandan_mvl/mxv
 BYTE   W24
 BYTE   N18  Gn4  v127
 BYTE   W72
// 001   ----------------------------------------
 BYTE   W60
 BYTE   N06  En4
 BYTE   W06
 BYTE   Fn4
 BYTE   W06
 BYTE   N15  Gn4
 BYTE   W18
 BYTE   N18  Cn5
 BYTE   W06
// 002   ----------------------------------------
Label_0_01603D01:
 BYTE   W12
 BYTE   N12  Gn4  v127
 BYTE   W12
 BYTE   N18
 BYTE   W72
 BYTE   PEND 
// 003   ----------------------------------------
 BYTE   W24
 BYTE   Dn4
 BYTE   W72
// 004   ----------------------------------------
 BYTE   W24
 BYTE   Gn4
 BYTE   W18
 BYTE   PAN   c_v-28
 BYTE   N18  Gn4  v056
 BYTE   W18
 BYTE   PAN   c_v+26
 BYTE   N18  Gn4  v048
 BYTE   W17
 BYTE   PAN   c_v-40
 BYTE   W01
 BYTE   N18  Gn4  v032
 BYTE   W17
 BYTE   PAN   c_v+41
 BYTE   W01
// 005   ----------------------------------------
 BYTE   N18  Gn4  v024
 BYTE   W17
 BYTE   PAN   c_v-51
 BYTE   W01
 BYTE   N18  Gn4  v020
 BYTE   W17
 BYTE   PAN   c_v+48
 BYTE   W01
 BYTE   N18
 BYTE   W18
 BYTE   PAN   c_v-59
 BYTE   N06  Gn4  v016
 BYTE   W05
 BYTE   PAN   c_v+0
 BYTE   W01
 BYTE   N06  En4  v127
 BYTE   W06
 BYTE   Fn4
 BYTE   W06
 BYTE   N18  Gn4
 BYTE   W18
 BYTE   Cn5
 BYTE   W06
// 006   ----------------------------------------
 BYTE   W12
 BYTE   N12  Gn4
 BYTE   W12
 BYTE   N18  Dn5
 BYTE   W17
 BYTE   PAN   c_v-28
 BYTE   W01
 BYTE   N18  Dn5  v056
 BYTE   W17
 BYTE   PAN   c_v+26
 BYTE   W01
 BYTE   N18  Dn5  v048
 BYTE   W17
 BYTE   PAN   c_v-40
 BYTE   W01
 BYTE   N18  Dn5  v032
 BYTE   W18
// 007   ----------------------------------------
 BYTE   PAN   c_v+41
 BYTE   N18  Dn5  v024
 BYTE   W18
 BYTE   PAN   c_v-51
 BYTE   N05  Dn5  v020
 BYTE   W05
 BYTE   VOL   25*KirbyDreamLandRippleField1Pandan_mvl/mxv
 BYTE   PAN   c_v-35
 BYTE   W01
 BYTE   N18  Fs5  v127
 BYTE   W17
 BYTE   PAN   c_v+26
 BYTE   W01
 BYTE   N18  Fs5  v056
 BYTE   W17
 BYTE   PAN   c_v-40
 BYTE   W01
 BYTE   N18  Fs5  v048
 BYTE   W18
 BYTE   PAN   c_v+41
 BYTE   N18  Fs5  v032
 BYTE   W18
// 008   ----------------------------------------
 BYTE   PAN   c_v-57
 BYTE   N18  Fs5  v024
 BYTE   W17
 BYTE   PAN   c_v+53
 BYTE   W01
 BYTE   N06  Fs5  v020
 BYTE   W78
// 009   ----------------------------------------
 BYTE   W96
// 010   ----------------------------------------
 BYTE   W96
// 011   ----------------------------------------
 BYTE   W96
// 012   ----------------------------------------
 BYTE   W96
// 013   ----------------------------------------
 BYTE   W96
// 014   ----------------------------------------
 BYTE   W96
// 015   ----------------------------------------
 BYTE   W96
// 016   ----------------------------------------
 BYTE   W96
// 017   ----------------------------------------
 BYTE   W96
// 018   ----------------------------------------
 BYTE   W96
// 019   ----------------------------------------
 BYTE   W96
// 020   ----------------------------------------
 BYTE   W96
// 021   ----------------------------------------
 BYTE   W96
// 022   ----------------------------------------
 BYTE   W96
// 023   ----------------------------------------
 BYTE   W96
// 024   ----------------------------------------
 BYTE   W96
// 025   ----------------------------------------
 BYTE   W96
// 026   ----------------------------------------
 BYTE   W96
// 027   ----------------------------------------
 BYTE   W96
// 028   ----------------------------------------
 BYTE   W96
// 029   ----------------------------------------
 BYTE   W96
// 030   ----------------------------------------
 BYTE   W96
// 031   ----------------------------------------
 BYTE   W96
// 032   ----------------------------------------
 BYTE   W96
// 033   ----------------------------------------
 BYTE   W96
// 034   ----------------------------------------
 BYTE   W96
// 035   ----------------------------------------
 BYTE   W96
// 036   ----------------------------------------
 BYTE   W96
// 037   ----------------------------------------
 BYTE   W96
// 038   ----------------------------------------
 BYTE   W96
// 039   ----------------------------------------
 BYTE   W96
// 040   ----------------------------------------
 BYTE   W96
// 041   ----------------------------------------
 BYTE   W96
// 042   ----------------------------------------
 BYTE   W96
// 043   ----------------------------------------
 BYTE   W96
// 044   ----------------------------------------
 BYTE   W96
// 045   ----------------------------------------
 BYTE   W96
// 046   ----------------------------------------
 BYTE   W96
// 047   ----------------------------------------
 BYTE   W96
// 048   ----------------------------------------
 BYTE   W96
// 049   ----------------------------------------
 BYTE   W96
// 050   ----------------------------------------
 BYTE   W96
// 051   ----------------------------------------
 BYTE   W24
 BYTE   PAN   c_v+0
 BYTE   VOL   33*KirbyDreamLandRippleField1Pandan_mvl/mxv
 BYTE   W72
// 052   ----------------------------------------
 BYTE   W24
 BYTE   N18  Gn4  v127
 BYTE   W72
// 053   ----------------------------------------
 BYTE   W60
 BYTE   N06  En4
 BYTE   W06
 BYTE   Fn4
 BYTE   W06
 BYTE   N14  Gn4
 BYTE   W18
 BYTE   N18  Cn5
 BYTE   W06
 BYTE   PATT
  POIN2 Label_0_01603D01
// 054   ----------------------------------------
 BYTE   W24
 BYTE   N18  Dn4  v127
 BYTE   W72
// 055   ----------------------------------------
 BYTE   W24
 BYTE   Gn4
 BYTE   W17
 BYTE   PAN   c_v-28
 BYTE   W01
 BYTE   N18  Gn4  v056
 BYTE   W17
 BYTE   PAN   c_v+26
 BYTE   W01
 BYTE   N18  Gn4  v048
 BYTE   W17
 BYTE   PAN   c_v-40
 BYTE   W01
 BYTE   N18  Gn4  v032
 BYTE   W18
// 056   ----------------------------------------
 BYTE   PAN   c_v+41
 BYTE   N18  Gn4  v024
 BYTE   W18
 BYTE   PAN   c_v-51
 BYTE   N18  Gn4  v020
 BYTE   W17
 BYTE   PAN   c_v+48
 BYTE   W01
 BYTE   N18
 BYTE   W17
 BYTE   PAN   c_v-59
 BYTE   W01
 BYTE   N06  Gn4  v016
 BYTE   W05
 BYTE   PAN   c_v+0
 BYTE   W01
 BYTE   N06  En4  v127
 BYTE   W06
 BYTE   Fn4
 BYTE   W06
 BYTE   N18  Gn4
 BYTE   W18
 BYTE   Cn5
 BYTE   W06
// 057   ----------------------------------------
 BYTE   W12
 BYTE   N12  Gn4
 BYTE   W12
 BYTE   N18  Dn5
 BYTE   W18
 BYTE   PAN   c_v-28
 BYTE   N18  Dn5  v056
 BYTE   W18
 BYTE   PAN   c_v+26
 BYTE   N18  Dn5  v048
 BYTE   W17
 BYTE   PAN   c_v-40
 BYTE   W01
 BYTE   N18  Dn5  v032
 BYTE   W17
 BYTE   PAN   c_v+41
 BYTE   W01
// 058   ----------------------------------------
 BYTE   N18  Dn5  v024
 BYTE   W17
 BYTE   PAN   c_v-51
 BYTE   W01
 BYTE   N05  Dn5  v020
 BYTE   W05
 BYTE   W01
 BYTE   VOL   25*KirbyDreamLandRippleField1Pandan_mvl/mxv
 BYTE   PAN   c_v-35
 BYTE   N18  Fs5  v127
 BYTE   W18
 BYTE   PAN   c_v+26
 BYTE   N18  Fs5  v056
 BYTE   W17
 BYTE   PAN   c_v-40
 BYTE   W01
 BYTE   N18  Fs5  v048
 BYTE   W17
 BYTE   PAN   c_v+41
 BYTE   W01
 BYTE   N18  Fs5  v032
 BYTE   W17
 BYTE   PAN   c_v-57
 BYTE   W01
// 059   ----------------------------------------
 BYTE   N18  Fs5  v024
 BYTE   W17
 BYTE   PAN   c_v+53
 BYTE   W01
 BYTE   N06  Fs5  v020
 BYTE   W78
// 060   ----------------------------------------
 BYTE   W96
// 061   ----------------------------------------
 BYTE   W96
// 062   ----------------------------------------
 BYTE   W96
// 063   ----------------------------------------
 BYTE   W96
// 064   ----------------------------------------
 BYTE   W96
// 065   ----------------------------------------
 BYTE   W96
// 066   ----------------------------------------
 BYTE   W96
// 067   ----------------------------------------
 BYTE   W96
// 068   ----------------------------------------
 BYTE   W96
// 069   ----------------------------------------
 BYTE   W96
// 070   ----------------------------------------
 BYTE   W96
// 071   ----------------------------------------
 BYTE   W96
// 072   ----------------------------------------
 BYTE   W96
// 073   ----------------------------------------
 BYTE   W96
// 074   ----------------------------------------
 BYTE   W96
// 075   ----------------------------------------
 BYTE   W96
// 076   ----------------------------------------
 BYTE   W96
// 077   ----------------------------------------
 BYTE   W96
// 078   ----------------------------------------
 BYTE   W96
// 079   ----------------------------------------
 BYTE   W96
// 080   ----------------------------------------
 BYTE   W96
// 081   ----------------------------------------
 BYTE   W96
// 082   ----------------------------------------
 BYTE   W96
// 083   ----------------------------------------
 BYTE   W96
// 084   ----------------------------------------
 BYTE   W96
// 085   ----------------------------------------
 BYTE   W96
// 086   ----------------------------------------
 BYTE   W96
// 087   ----------------------------------------
 BYTE   W96
// 088   ----------------------------------------
 BYTE   W96
// 089   ----------------------------------------
 BYTE   W96
// 090   ----------------------------------------
 BYTE   W96
// 091   ----------------------------------------
 BYTE   W96
// 092   ----------------------------------------
 BYTE   W96
// 093   ----------------------------------------
 BYTE   W96
// 094   ----------------------------------------
 BYTE   W96
// 095   ----------------------------------------
 BYTE   W96
// 096   ----------------------------------------
 BYTE   W96
// 097   ----------------------------------------
 BYTE   W96
// 098   ----------------------------------------
 BYTE   W96
// 099   ----------------------------------------
 BYTE   W96
// 100   ----------------------------------------
 BYTE   W96
// 101   ----------------------------------------
 BYTE   W96
// 102   ----------------------------------------
 BYTE   W96
// 103   ----------------------------------------
 BYTE   W24
 BYTE   GoTo
  POIN2 Label_0_01603CE2
// 104   ----------------------------------------
 BYTE   W10
 BYTE   FINE

//**************** Track 2 (Midi-Chn.1) ****************//

KirbyDreamLandRippleField1Pandan_002:
// 000   ----------------------------------------
 BYTE   KEYSH   KirbyDreamLandRippleField1Pandan_key+0
Label_1_01603EAE:
 BYTE   VOICE   73
 BYTE   MODT 0
 BYTE   CnM2
 BYTE   LFOS 0
 BYTE   Gs1
 BYTE   VOL   9*KirbyDreamLandRippleField1Pandan_mvl/mxv
 BYTE   PAN   c_v+16
 BYTE   VOL   0*KirbyDreamLandRippleField1Pandan_mvl/mxv
 BYTE   BEND   c_v-3
 BYTE   W42
 BYTE   N18  Gn4  v127
 BYTE   W54
// 001   ----------------------------------------
 BYTE   W78
 BYTE   N06  En4
 BYTE   W06
 BYTE   Fn4
 BYTE   W06
 BYTE   N14  Gn4
 BYTE   W06
// 002   ----------------------------------------
 BYTE   W12
 BYTE   N18  Cn5
 BYTE   W18
 BYTE   N12  Gn4
 BYTE   W12
 BYTE   N18
 BYTE   W54
// 003   ----------------------------------------
 BYTE   W42
 BYTE   Dn4
 BYTE   W54
// 004   ----------------------------------------
 BYTE   W42
 BYTE   Gn4
 BYTE   W18
 BYTE   PAN   c_v-28
 BYTE   N18  Gn4  v056
 BYTE   W17
 BYTE   PAN   c_v+26
 BYTE   W01
 BYTE   N18  Gn4  v048
 BYTE   W17
 BYTE   PAN   c_v-40
 BYTE   W01
// 005   ----------------------------------------
 BYTE   N18  Gn4  v032
 BYTE   W17
 BYTE   PAN   c_v+41
 BYTE   W01
 BYTE   N18  Gn4  v024
 BYTE   W17
 BYTE   PAN   c_v-51
 BYTE   W01
 BYTE   N18  Gn4  v020
 BYTE   W18
 BYTE   PAN   c_v+48
 BYTE   N18
 BYTE   W18
 BYTE   PAN   c_v-59
 BYTE   N06  Gn4  v016
 BYTE   W05
 BYTE   PAN   c_v+16
 BYTE   W01
 BYTE   N06  En4  v127
 BYTE   W06
 BYTE   Fn4
 BYTE   W06
 BYTE   N18  Gn4
 BYTE   W06
// 006   ----------------------------------------
 BYTE   W12
 BYTE   Cn5
 BYTE   W18
 BYTE   N12  Gn4
 BYTE   W12
 BYTE   N18  Dn5
 BYTE   W17
 BYTE   PAN   c_v-28
 BYTE   W01
 BYTE   N18  Dn5  v056
 BYTE   W17
 BYTE   PAN   c_v+26
 BYTE   W01
 BYTE   N18  Dn5  v048
 BYTE   W18
// 007   ----------------------------------------
 BYTE   PAN   c_v-40
 BYTE   N18  Dn5  v032
 BYTE   W18
 BYTE   PAN   c_v+41
 BYTE   N18  Dn5  v024
 BYTE   W17
 BYTE   PAN   c_v-51
 BYTE   W01
 BYTE   N05  Dn5  v020
 BYTE   W05
 BYTE   VOL   0*KirbyDreamLandRippleField1Pandan_mvl/mxv
 BYTE   PAN   c_v-35
 BYTE   W01
 BYTE   N18  Fs5  v127
 BYTE   W17
 BYTE   PAN   c_v+26
 BYTE   W01
 BYTE   N18  Fs5  v056
 BYTE   W18
 BYTE   PAN   c_v-40
 BYTE   N18  Fs5  v048
 BYTE   W18
// 008   ----------------------------------------
 BYTE   PAN   c_v+41
 BYTE   N18  Fs5  v032
 BYTE   W17
 BYTE   PAN   c_v-57
 BYTE   W01
 BYTE   N18  Fs5  v024
 BYTE   W17
 BYTE   PAN   c_v+53
 BYTE   W01
 BYTE   N06  Fs5  v020
 BYTE   W60
// 009   ----------------------------------------
 BYTE   W96
// 010   ----------------------------------------
 BYTE   W96
// 011   ----------------------------------------
 BYTE   W96
// 012   ----------------------------------------
 BYTE   W96
// 013   ----------------------------------------
 BYTE   W96
// 014   ----------------------------------------
 BYTE   W96
// 015   ----------------------------------------
 BYTE   W96
// 016   ----------------------------------------
 BYTE   W96
// 017   ----------------------------------------
 BYTE   W96
// 018   ----------------------------------------
 BYTE   W96
// 019   ----------------------------------------
 BYTE   W96
// 020   ----------------------------------------
 BYTE   W96
// 021   ----------------------------------------
 BYTE   W96
// 022   ----------------------------------------
 BYTE   W96
// 023   ----------------------------------------
 BYTE   W96
// 024   ----------------------------------------
 BYTE   W96
// 025   ----------------------------------------
 BYTE   W96
// 026   ----------------------------------------
 BYTE   W96
// 027   ----------------------------------------
 BYTE   W96
// 028   ----------------------------------------
 BYTE   W96
// 029   ----------------------------------------
 BYTE   W96
// 030   ----------------------------------------
 BYTE   W96
// 031   ----------------------------------------
 BYTE   W96
// 032   ----------------------------------------
 BYTE   W96
// 033   ----------------------------------------
 BYTE   W96
// 034   ----------------------------------------
 BYTE   W96
// 035   ----------------------------------------
 BYTE   W96
// 036   ----------------------------------------
 BYTE   W96
// 037   ----------------------------------------
 BYTE   W96
// 038   ----------------------------------------
 BYTE   W96
// 039   ----------------------------------------
 BYTE   W96
// 040   ----------------------------------------
 BYTE   W96
// 041   ----------------------------------------
 BYTE   W96
// 042   ----------------------------------------
 BYTE   W96
// 043   ----------------------------------------
 BYTE   W96
// 044   ----------------------------------------
 BYTE   W96
// 045   ----------------------------------------
 BYTE   W96
// 046   ----------------------------------------
 BYTE   W96
// 047   ----------------------------------------
 BYTE   W96
// 048   ----------------------------------------
 BYTE   W96
// 049   ----------------------------------------
 BYTE   W96
// 050   ----------------------------------------
 BYTE   W96
// 051   ----------------------------------------
 BYTE   W32
 BYTE   W03
 BYTE   W01
 BYTE   PAN   c_v+16
 BYTE   VOL   0*KirbyDreamLandRippleField1Pandan_mvl/mxv
 BYTE   W60
// 052   ----------------------------------------
 BYTE   W36
 BYTE   N18  Gn4  v127
 BYTE   W60
// 053   ----------------------------------------
 BYTE   W72
 BYTE   N06  En4
 BYTE   W06
 BYTE   Fn4
 BYTE   W06
 BYTE   N14  Gn4
 BYTE   W12
// 054   ----------------------------------------
 BYTE   W06
 BYTE   N18  Cn5
 BYTE   W18
 BYTE   N12  Gn4
 BYTE   W12
 BYTE   N18
 BYTE   W60
// 055   ----------------------------------------
 BYTE   W36
 BYTE   Dn4
 BYTE   W60
// 056   ----------------------------------------
 BYTE   W36
 BYTE   Gn4
 BYTE   W17
 BYTE   PAN   c_v-28
 BYTE   W01
 BYTE   N18  Gn4  v056
 BYTE   W17
 BYTE   PAN   c_v+26
 BYTE   W01
 BYTE   N18  Gn4  v048
 BYTE   W17
 BYTE   PAN   c_v-40
 BYTE   W01
 BYTE   N18  Gn4  v032
 BYTE   W06
// 057   ----------------------------------------
 BYTE   W11
 BYTE   PAN   c_v+41
 BYTE   W01
 BYTE   N18  Gn4  v024
 BYTE   W18
 BYTE   PAN   c_v-51
 BYTE   N18  Gn4  v020
 BYTE   W18
 BYTE   PAN   c_v+48
 BYTE   N18
 BYTE   W17
 BYTE   PAN   c_v-59
 BYTE   W01
 BYTE   N06  Gn4  v016
 BYTE   W05
 BYTE   PAN   c_v+16
 BYTE   W01
 BYTE   N06  En4  v127
 BYTE   W06
 BYTE   Fn4
 BYTE   W06
 BYTE   N18  Gn4
 BYTE   W12
// 058   ----------------------------------------
 BYTE   W06
 BYTE   Cn5
 BYTE   W18
 BYTE   N12  Gn4
 BYTE   W12
 BYTE   N18  Dn5
 BYTE   W17
 BYTE   PAN   c_v-28
 BYTE   W01
 BYTE   N18  Dn5  v056
 BYTE   W18
 BYTE   PAN   c_v+26
 BYTE   N18  Dn5  v048
 BYTE   W18
 BYTE   PAN   c_v-40
 BYTE   N18  Dn5  v032
 BYTE   W06
// 059   ----------------------------------------
 BYTE   W11
 BYTE   PAN   c_v+41
 BYTE   W01
 BYTE   N18  Dn5  v024
 BYTE   W17
 BYTE   PAN   c_v-51
 BYTE   W01
 BYTE   N05  Dn5  v020
 BYTE   W05
 BYTE   VOL   0*KirbyDreamLandRippleField1Pandan_mvl/mxv
 BYTE   PAN   c_v-35
 BYTE   W01
 BYTE   N18  Fs5  v127
 BYTE   W18
 BYTE   PAN   c_v+26
 BYTE   N18  Fs5  v056
 BYTE   W18
 BYTE   PAN   c_v-40
 BYTE   N18  Fs5  v048
 BYTE   W17
 BYTE   PAN   c_v+41
 BYTE   W01
 BYTE   N18  Fs5  v032
 BYTE   W06
// 060   ----------------------------------------
 BYTE   W11
 BYTE   PAN   c_v-57
 BYTE   W01
 BYTE   N18  Fs5  v024
 BYTE   W17
 BYTE   PAN   c_v+53
 BYTE   W01
 BYTE   N06  Fs5  v020
 BYTE   W66
// 061   ----------------------------------------
 BYTE   W96
// 062   ----------------------------------------
 BYTE   W96
// 063   ----------------------------------------
 BYTE   W96
// 064   ----------------------------------------
 BYTE   W96
// 065   ----------------------------------------
 BYTE   W96
// 066   ----------------------------------------
 BYTE   W96
// 067   ----------------------------------------
 BYTE   W96
// 068   ----------------------------------------
 BYTE   W96
// 069   ----------------------------------------
 BYTE   W96
// 070   ----------------------------------------
 BYTE   W96
// 071   ----------------------------------------
 BYTE   W96
// 072   ----------------------------------------
 BYTE   W96
// 073   ----------------------------------------
 BYTE   W96
// 074   ----------------------------------------
 BYTE   W96
// 075   ----------------------------------------
 BYTE   W96
// 076   ----------------------------------------
 BYTE   W96
// 077   ----------------------------------------
 BYTE   W96
// 078   ----------------------------------------
 BYTE   W96
// 079   ----------------------------------------
 BYTE   W96
// 080   ----------------------------------------
 BYTE   W96
// 081   ----------------------------------------
 BYTE   W96
// 082   ----------------------------------------
 BYTE   W96
// 083   ----------------------------------------
 BYTE   W96
// 084   ----------------------------------------
 BYTE   W96
// 085   ----------------------------------------
 BYTE   W96
// 086   ----------------------------------------
 BYTE   W96
// 087   ----------------------------------------
 BYTE   W96
// 088   ----------------------------------------
 BYTE   W96
// 089   ----------------------------------------
 BYTE   W96
// 090   ----------------------------------------
 BYTE   W96
// 091   ----------------------------------------
 BYTE   W96
// 092   ----------------------------------------
 BYTE   W96
// 093   ----------------------------------------
 BYTE   W96
// 094   ----------------------------------------
 BYTE   W96
// 095   ----------------------------------------
 BYTE   W96
// 096   ----------------------------------------
 BYTE   W96
// 097   ----------------------------------------
 BYTE   W96
// 098   ----------------------------------------
 BYTE   W96
// 099   ----------------------------------------
 BYTE   W96
// 100   ----------------------------------------
 BYTE   W96
// 101   ----------------------------------------
 BYTE   W96
// 102   ----------------------------------------
 BYTE   W96
// 103   ----------------------------------------
 BYTE   W96
// 104   ----------------------------------------
 BYTE   W24
 BYTE   GoTo
  POIN2 Label_1_01603EAE
// 105   ----------------------------------------
 BYTE   W10
 BYTE   FINE

//**************** Track 3 (Midi-Chn.2) ****************//

KirbyDreamLandRippleField1Pandan_003:
// 000   ----------------------------------------
 BYTE   KEYSH   KirbyDreamLandRippleField1Pandan_key+0
Label_2_01598192:
 BYTE   VOICE   36
 BYTE   MODT 0
 BYTE   CnM2
 BYTE   LFOS 0
 BYTE   Gs1
 BYTE   VOL   25*KirbyDreamLandRippleField1Pandan_mvl/mxv
 BYTE   PAN   c_v+0
 BYTE   W24
 BYTE   N15  Fn1  v127
 BYTE   W18
 BYTE   Cn2
 BYTE   W18
 BYTE   Fn1
 BYTE   W24
 BYTE   N06
 BYTE   W12
// 001   ----------------------------------------
Label_2_015981A7:
 BYTE   N12  Cn2  v127
 BYTE   W12
 BYTE   N09  Fn1
 BYTE   W12
 BYTE   N15
 BYTE   W18
 BYTE   Cn2
 BYTE   W18
 BYTE   N14  Fn1
 BYTE   W24
 BYTE   N06
 BYTE   W12
 BYTE   PEND 
// 002   ----------------------------------------
 BYTE   Fn2
 BYTE   W06
 BYTE   Cn2
 BYTE   W06
 BYTE   N09  Fn1
 BYTE   W12
 BYTE   N14  En1
 BYTE   W18
 BYTE   Bn1
 BYTE   W18
 BYTE   En1
 BYTE   W24
 BYTE   N06
 BYTE   W12
// 003   ----------------------------------------
 BYTE   N12  En2
 BYTE   W12
 BYTE   N08  En1
 BYTE   W12
 BYTE   N14
 BYTE   W18
 BYTE   Bn1
 BYTE   W18
 BYTE   N15  En1
 BYTE   W24
 BYTE   N06
 BYTE   W12
// 004   ----------------------------------------
Label_2_015981D7:
 BYTE   N06  En2  v127
 BYTE   W06
 BYTE   Bn1
 BYTE   W06
 BYTE   N08  En1
 BYTE   W12
 BYTE   N14  Fn1
 BYTE   W18
 BYTE   N15  Cn2
 BYTE   W18
 BYTE   Fn1
 BYTE   W24
 BYTE   N06
 BYTE   W12
 BYTE   PEND 
 BYTE   PATT
  POIN2 Label_2_015981A7
// 005   ----------------------------------------
Label_2_015981F0:
 BYTE   N06  Fn2  v127
 BYTE   W06
 BYTE   Cn2
 BYTE   W06
 BYTE   N09  Fn1
 BYTE   W12
 BYTE   N15  En1
 BYTE   W18
 BYTE   N14  Bn1
 BYTE   W18
 BYTE   En1
 BYTE   W24
 BYTE   N06
 BYTE   W12
 BYTE   PEND 
// 006   ----------------------------------------
 BYTE   En2
 BYTE   W06
 BYTE   Bn1
 BYTE   W06
 BYTE   N08  En1
 BYTE   W12
 BYTE   N14
 BYTE   W18
 BYTE   Bn1
 BYTE   W18
 BYTE   N15  En1
 BYTE   W24
 BYTE   N06
 BYTE   W12
// 007   ----------------------------------------
 BYTE   En2
 BYTE   W06
 BYTE   Bn1
 BYTE   W06
 BYTE   N08  En1
 BYTE   W12
 BYTE   N14  Dn1
 BYTE   W18
 BYTE   N15  An1
 BYTE   W18
 BYTE   Dn1
 BYTE   W24
 BYTE   N06
 BYTE   W12
// 008   ----------------------------------------
 BYTE   N12  An1
 BYTE   W12
 BYTE   N09  Dn1
 BYTE   W12
 BYTE   N15  Gn1
 BYTE   W18
 BYTE   Gn2
 BYTE   W18
 BYTE   N14  Gn1
 BYTE   W24
 BYTE   N06
 BYTE   W12
// 009   ----------------------------------------
 BYTE   Gn2
 BYTE   W06
 BYTE   Dn2
 BYTE   W06
 BYTE   N09  Gn1
 BYTE   W12
 BYTE   N15  Cn1
 BYTE   W18
 BYTE   N14  Gn1
 BYTE   W18
 BYTE   N12  Cn1
 BYTE   W12
 BYTE   N06
 BYTE   W18
 BYTE   N04
 BYTE   W06
// 010   ----------------------------------------
Label_2_01598249:
 BYTE   N12  Cn2  v127
 BYTE   W12
 BYTE   Cn1
 BYTE   W12
 BYTE   N14
 BYTE   W18
 BYTE   Gn1
 BYTE   W18
 BYTE   N12  Cn1
 BYTE   W12
 BYTE   N06
 BYTE   W18
 BYTE   N04
 BYTE   W06
 BYTE   PEND 
// 011   ----------------------------------------
 BYTE   Cn2
 BYTE   W06
 BYTE   Gn1
 BYTE   W06
 BYTE   N12  Cn1
 BYTE   W12
 BYTE   N14  Gs0
 BYTE   W18
 BYTE   N15  Gs1
 BYTE   W18
 BYTE   Gs0
 BYTE   W24
 BYTE   N06
 BYTE   W12
// 012   ----------------------------------------
 BYTE   N12  Gs1
 BYTE   W12
 BYTE   N08  Gs0
 BYTE   W12
 BYTE   N15
 BYTE   W18
 BYTE   Gs1
 BYTE   W18
 BYTE   Gs0
 BYTE   W24
 BYTE   N06
 BYTE   W12
// 013   ----------------------------------------
 BYTE   Gs1
 BYTE   W06
 BYTE   Gs0
 BYTE   W06
 BYTE   N09  Gs1
 BYTE   W12
 BYTE   N15  Dn1
 BYTE   W18
 BYTE   N14  Dn2
 BYTE   W18
 BYTE   Dn1
 BYTE   W24
 BYTE   N06
 BYTE   W12
// 014   ----------------------------------------
 BYTE   N12  Dn2
 BYTE   W12
 BYTE   N09  Dn1
 BYTE   W12
 BYTE   N14  Gn1
 BYTE   W18
 BYTE   Gn2
 BYTE   W18
 BYTE   Gn1
 BYTE   W24
 BYTE   N06
 BYTE   W12
// 015   ----------------------------------------
 BYTE   Gn2
 BYTE   W06
 BYTE   Dn2
 BYTE   W06
 BYTE   N08  Gn1
 BYTE   W12
 BYTE   N14  Fn1
 BYTE   W18
 BYTE   N15  Cn2
 BYTE   W18
 BYTE   Fn1
 BYTE   W24
 BYTE   N06
 BYTE   W12
// 016   ----------------------------------------
Label_2_015982AB:
 BYTE   N12  Cn2  v127
 BYTE   W12
 BYTE   N08  Fn1
 BYTE   W12
 BYTE   N15
 BYTE   W18
 BYTE   Cn2
 BYTE   W18
 BYTE   Fn1
 BYTE   W24
 BYTE   N06
 BYTE   W12
 BYTE   PEND 
 BYTE   PATT
  POIN2 Label_2_015981F0
// 017   ----------------------------------------
 BYTE   N12  En2  v127
 BYTE   W12
 BYTE   N09  En1
 BYTE   W12
 BYTE   N14
 BYTE   W18
 BYTE   Bn1
 BYTE   W18
 BYTE   En1
 BYTE   W24
 BYTE   N06
 BYTE   W12
 BYTE   PATT
  POIN2 Label_2_015981D7
 BYTE   PATT
  POIN2 Label_2_015982AB
// 018   ----------------------------------------
 BYTE   N06  Fn2  v127
 BYTE   W06
 BYTE   Cn2
 BYTE   W06
 BYTE   N09  Fn1
 BYTE   W12
 BYTE   N15  En1
 BYTE   W18
 BYTE   Bn1
 BYTE   W18
 BYTE   N14  En1
 BYTE   W24
 BYTE   N06
 BYTE   W12
// 019   ----------------------------------------
 BYTE   En2
 BYTE   W06
 BYTE   Bn1
 BYTE   W06
 BYTE   N09  En1
 BYTE   W12
 BYTE   N14
 BYTE   W18
 BYTE   Bn1
 BYTE   W18
 BYTE   En1
 BYTE   W24
 BYTE   N06
 BYTE   W12
// 020   ----------------------------------------
 BYTE   En2
 BYTE   W06
 BYTE   Bn1
 BYTE   W06
 BYTE   N08  En1
 BYTE   W12
 BYTE   N14  Dn1
 BYTE   W18
 BYTE   An1
 BYTE   W18
 BYTE   N15  Dn1
 BYTE   W24
 BYTE   N06
 BYTE   W12
// 021   ----------------------------------------
 BYTE   N12  An1
 BYTE   W12
 BYTE   N08  Dn1
 BYTE   W12
 BYTE   N15  Gn1
 BYTE   W18
 BYTE   Gn2
 BYTE   W18
 BYTE   Gn1
 BYTE   W24
 BYTE   N06
 BYTE   W12
// 022   ----------------------------------------
 BYTE   Gn2
 BYTE   W06
 BYTE   Dn2
 BYTE   W06
 BYTE   N09  Gn1
 BYTE   W12
 BYTE   N15  Cn1
 BYTE   W18
 BYTE   Gn1
 BYTE   W18
 BYTE   N12  Cn1
 BYTE   W12
 BYTE   N06
 BYTE   W18
 BYTE   N04
 BYTE   W06
 BYTE   PATT
  POIN2 Label_2_01598249
// 023   ----------------------------------------
 BYTE   N04  Cn2  v127
 BYTE   W06
 BYTE   Gn1
 BYTE   W06
 BYTE   N12  Cn1
 BYTE   W12
 BYTE   N14  Gs0
 BYTE   W18
 BYTE   Gs1
 BYTE   W18
 BYTE   N15  Gs0
 BYTE   W24
 BYTE   N06
 BYTE   W12
// 024   ----------------------------------------
 BYTE   N12  Gs1
 BYTE   W12
 BYTE   N08  Gs0
 BYTE   W12
 BYTE   N14  Dn1
 BYTE   W18
 BYTE   N04  Dn2
 BYTE   W06
 BYTE   Dn1
 BYTE   W06
 BYTE   Dn2
 BYTE   W06
 BYTE   N08  Dn1
 BYTE   W12
 BYTE   N15  Gn0
 BYTE   W18
 BYTE   N04  Gn1
 BYTE   W06
// 025   ----------------------------------------
 BYTE   Gn0
 BYTE   W06
 BYTE   Gn1
 BYTE   W06
 BYTE   N09  Gn0
 BYTE   W12
 BYTE   N15  Gs0
 BYTE   W18
 BYTE   Gs1
 BYTE   W18
 BYTE   N14  Gs0
 BYTE   W24
 BYTE   N06  As0
 BYTE   W12
// 026   ----------------------------------------
 BYTE   N12  As1
 BYTE   W12
 BYTE   N09  As0
 BYTE   W12
 BYTE   N15  Cn1
 BYTE   W18
 BYTE   N14  Cn2
 BYTE   W18
 BYTE   Cn1
 BYTE   W24
 BYTE   N06
 BYTE   W12
// 027   ----------------------------------------
 BYTE   N04  Cn2
 BYTE   W06
 BYTE   Gn1
 BYTE   W06
 BYTE   Cn1
 BYTE   W06
 BYTE   Cn2
 BYTE   W06
 BYTE   N14  Fn1
 BYTE   W18
 BYTE   Cn2
 BYTE   W18
 BYTE   N15  Fn1
 BYTE   W24
 BYTE   N06
 BYTE   W12
// 028   ----------------------------------------
 BYTE   N12  Cn2
 BYTE   W12
 BYTE   N08  Fn1
 BYTE   W12
 BYTE   N14  As1
 BYTE   W18
 BYTE   N15  As2
 BYTE   W18
 BYTE   As1
 BYTE   W24
 BYTE   N06
 BYTE   W12
// 029   ----------------------------------------
 BYTE   As2
 BYTE   W06
 BYTE   Fn2
 BYTE   W06
 BYTE   N09  As1
 BYTE   W12
 BYTE   N15  En1
 BYTE   W18
 BYTE   Bn1
 BYTE   W18
 BYTE   N14  En1
 BYTE   W24
 BYTE   N06
 BYTE   W12
// 030   ----------------------------------------
 BYTE   N12  Bn1
 BYTE   W12
 BYTE   N09  En1
 BYTE   W12
 BYTE   N15  An1
 BYTE   W18
 BYTE   N14  An2
 BYTE   W18
 BYTE   An1
 BYTE   W24
 BYTE   N06
 BYTE   W12
// 031   ----------------------------------------
 BYTE   Gn2
 BYTE   W06
 BYTE   Dn2
 BYTE   W06
 BYTE   N08  Gn1
 BYTE   W12
 BYTE   N14  Fn1
 BYTE   W18
 BYTE   Fn2
 BYTE   W18
 BYTE   N15  Fn1
 BYTE   W24
 BYTE   N06
 BYTE   W12
// 032   ----------------------------------------
 BYTE   N12  Fn2
 BYTE   W12
 BYTE   N08  Fn1
 BYTE   W12
 BYTE   N14
 BYTE   W18
 BYTE   N15  Fn2
 BYTE   W18
 BYTE   N12  Fn1
 BYTE   W12
 BYTE   N12
 BYTE   W12
 BYTE   N06
 BYTE   W12
// 033   ----------------------------------------
 BYTE   N04  Fn2
 BYTE   W06
 BYTE   Cn2
 BYTE   W06
 BYTE   Fn1
 BYTE   W06
 BYTE   Fn2
 BYTE   W06
 BYTE   N15  En1
 BYTE   W18
 BYTE   En2
 BYTE   W18
 BYTE   En1
 BYTE   W24
 BYTE   N06
 BYTE   W12
// 034   ----------------------------------------
 BYTE   N12  En2
 BYTE   W12
 BYTE   N09  En1
 BYTE   W12
 BYTE   N15  An1
 BYTE   W18
 BYTE   N14  An2
 BYTE   W18
 BYTE   An1
 BYTE   W24
 BYTE   N06
 BYTE   W12
// 035   ----------------------------------------
 BYTE   N12  An2
 BYTE   W12
 BYTE   N09  An1
 BYTE   W12
 BYTE   N14  Fn1
 BYTE   W18
 BYTE   Cn2
 BYTE   W18
 BYTE   Fn1
 BYTE   W24
 BYTE   N06
 BYTE   W12
// 036   ----------------------------------------
 BYTE   N12  Cn2
 BYTE   W12
 BYTE   N06  Fn1
 BYTE   W12
 BYTE   N14
 BYTE   W18
 BYTE   N15  Cn2
 BYTE   W18
 BYTE   Fn1
 BYTE   W24
 BYTE   N06
 BYTE   W12
// 037   ----------------------------------------
 BYTE   N12  Cn2
 BYTE   W12
 BYTE   N06  Fn1
 BYTE   W12
 BYTE   N15  En1
 BYTE   W18
 BYTE   Bn1
 BYTE   W18
 BYTE   En1
 BYTE   W24
 BYTE   N06
 BYTE   W12
// 038   ----------------------------------------
 BYTE   N12  En2
 BYTE   W12
 BYTE   N06  En1
 BYTE   W12
 BYTE   N15  An1
 BYTE   W18
 BYTE   N14  An2
 BYTE   W18
 BYTE   An1
 BYTE   W24
 BYTE   N06
 BYTE   W12
// 039   ----------------------------------------
 BYTE   Gn2
 BYTE   W06
 BYTE   Dn2
 BYTE   W06
 BYTE   N09  Gn1
 BYTE   W12
 BYTE   N14  Dn1
 BYTE   W18
 BYTE   Dn2
 BYTE   W18
 BYTE   Dn1
 BYTE   W24
 BYTE   N06
 BYTE   W12
// 040   ----------------------------------------
 BYTE   N12  Dn2
 BYTE   W12
 BYTE   N06  Dn1
 BYTE   W12
 BYTE   N14  En1
 BYTE   W18
 BYTE   N15  En2
 BYTE   W18
 BYTE   En1
 BYTE   W24
 BYTE   N06
 BYTE   W12
// 041   ----------------------------------------
 BYTE   N12  En2
 BYTE   W12
 BYTE   N06  En1
 BYTE   W12
 BYTE   N15  Fn1
 BYTE   W18
 BYTE   Fn2
 BYTE   W18
 BYTE   Fn1
 BYTE   W24
 BYTE   N06
 BYTE   W12
// 042   ----------------------------------------
 BYTE   N12  Fn2
 BYTE   W12
 BYTE   N06  Fn1
 BYTE   W12
 BYTE   N15  Dn1
 BYTE   W18
 BYTE   Dn2
 BYTE   W18
 BYTE   N14  Dn1
 BYTE   W24
 BYTE   N06  Gn1
 BYTE   W12
// 043   ----------------------------------------
 BYTE   N12  Gn2
 BYTE   W12
 BYTE   N06  Gn1
 BYTE   W12
 BYTE   N14  Gs0
 BYTE   W18
 BYTE   Gs1
 BYTE   W18
 BYTE   Gs0
 BYTE   W24
 BYTE   N06
 BYTE   W12
// 044   ----------------------------------------
 BYTE   N12  Gs1
 BYTE   W12
 BYTE   N06  Gs0
 BYTE   W12
 BYTE   N14  As0
 BYTE   W18
 BYTE   As1
 BYTE   W18
 BYTE   N15  As0
 BYTE   W24
 BYTE   N06
 BYTE   W12
// 045   ----------------------------------------
 BYTE   N12  As1
 BYTE   W12
 BYTE   N06  As0
 BYTE   W12
 BYTE   N15  Cn1
 BYTE   W18
 BYTE   Cn2
 BYTE   W18
 BYTE   Cn1
 BYTE   W24
 BYTE   N06
 BYTE   W12
// 046   ----------------------------------------
 BYTE   N12  Cn2
 BYTE   W12
 BYTE   N06  Cn1
 BYTE   W12
 BYTE   N15
 BYTE   W18
 BYTE   Cn2
 BYTE   W18
 BYTE   N14  Cn1
 BYTE   W24
 BYTE   N06
 BYTE   W12
// 047   ----------------------------------------
 BYTE   N12  Cn2
 BYTE   W12
 BYTE   N06  Cn1
 BYTE   W12
 BYTE   N14  Fn1
 BYTE   W18
 BYTE   Cn2
 BYTE   W18
 BYTE   Fn1
 BYTE   W24
 BYTE   N06
 BYTE   W12
// 048   ----------------------------------------
Label_2_015984D3:
 BYTE   N12  Cn2  v127
 BYTE   W12
 BYTE   N08  Fn1
 BYTE   W12
 BYTE   N14
 BYTE   W18
 BYTE   Cn2
 BYTE   W18
 BYTE   N15  Fn1
 BYTE   W24
 BYTE   N06
 BYTE   W12
 BYTE   PEND 
// 049   ----------------------------------------
Label_2_015984E4:
 BYTE   N06  Fn2  v127
 BYTE   W06
 BYTE   Cn2
 BYTE   W06
 BYTE   N08  Fn1
 BYTE   W12
 BYTE   N14  En1
 BYTE   W18
 BYTE   N15  Bn1
 BYTE   W18
 BYTE   En1
 BYTE   W24
 BYTE   N06
 BYTE   W12
 BYTE   PEND 
// 050   ----------------------------------------
 BYTE   N12  En2
 BYTE   W12
 BYTE   N09  En1
 BYTE   W12
 BYTE   N15
 BYTE   W18
 BYTE   Bn1
 BYTE   W18
 BYTE   N14  En1
 BYTE   W24
 BYTE   N06
 BYTE   W12
// 051   ----------------------------------------
 BYTE   En2
 BYTE   W06
 BYTE   Bn1
 BYTE   W06
 BYTE   N09  En1
 BYTE   W12
 BYTE   N15  Fn1
 BYTE   W18
 BYTE   N14  Cn2
 BYTE   W18
 BYTE   Fn1
 BYTE   W24
 BYTE   N06
 BYTE   W12
 BYTE   PATT
  POIN2 Label_2_015984D3
 BYTE   PATT
  POIN2 Label_2_015984E4
// 052   ----------------------------------------
 BYTE   N06  En2  v127
 BYTE   W06
 BYTE   Bn1
 BYTE   W06
 BYTE   N09  En1
 BYTE   W12
 BYTE   N15
 BYTE   W18
 BYTE   Bn1
 BYTE   W18
 BYTE   N14  En1
 BYTE   W24
 BYTE   N06
 BYTE   W12
// 053   ----------------------------------------
 BYTE   En2
 BYTE   W06
 BYTE   Bn1
 BYTE   W06
 BYTE   N09  En1
 BYTE   W12
 BYTE   N15  Dn1
 BYTE   W18
 BYTE   N14  An1
 BYTE   W18
 BYTE   Dn1
 BYTE   W24
 BYTE   N06
 BYTE   W12
// 054   ----------------------------------------
 BYTE   N12  An1
 BYTE   W12
 BYTE   N08  Dn1
 BYTE   W12
 BYTE   N14  Gn1
 BYTE   W18
 BYTE   Gn2
 BYTE   W18
 BYTE   N15  Gn1
 BYTE   W24
 BYTE   N06
 BYTE   W12
// 055   ----------------------------------------
 BYTE   Gn2
 BYTE   W06
 BYTE   Dn2
 BYTE   W06
 BYTE   N08  Gn1
 BYTE   W12
 BYTE   N14  Cn1
 BYTE   W18
 BYTE   N15  Gn1
 BYTE   W18
 BYTE   N12  Cn1
 BYTE   W12
 BYTE   N06
 BYTE   W18
 BYTE   N04
 BYTE   W06
// 056   ----------------------------------------
 BYTE   N12  Cn2
 BYTE   W12
 BYTE   Cn1
 BYTE   W12
 BYTE   N15
 BYTE   W18
 BYTE   Gn1
 BYTE   W18
 BYTE   N12  Cn1
 BYTE   W12
 BYTE   N06
 BYTE   W18
 BYTE   N04
 BYTE   W06
// 057   ----------------------------------------
 BYTE   Cn2
 BYTE   W06
 BYTE   Gn1
 BYTE   W06
 BYTE   N12  Cn1
 BYTE   W12
 BYTE   N15  Gs0
 BYTE   W18
 BYTE   N14  Gs1
 BYTE   W18
 BYTE   Gs0
 BYTE   W24
 BYTE   N06
 BYTE   W12
// 058   ----------------------------------------
 BYTE   N12  Gs1
 BYTE   W12
 BYTE   N09  Gs0
 BYTE   W12
 BYTE   N14
 BYTE   W18
 BYTE   Gs1
 BYTE   W18
 BYTE   Gs0
 BYTE   W24
 BYTE   N06
 BYTE   W12
// 059   ----------------------------------------
 BYTE   Gs1
 BYTE   W06
 BYTE   Gs0
 BYTE   W06
 BYTE   N08  Gs1
 BYTE   W12
 BYTE   N14  Dn1
 BYTE   W18
 BYTE   N15  Dn2
 BYTE   W18
 BYTE   Dn1
 BYTE   W24
 BYTE   N06
 BYTE   W12
// 060   ----------------------------------------
 BYTE   N12  Dn2
 BYTE   W12
 BYTE   N08  Dn1
 BYTE   W12
 BYTE   N15  Gn1
 BYTE   W18
 BYTE   Gn2
 BYTE   W18
 BYTE   Gn1
 BYTE   W24
 BYTE   N06
 BYTE   W12
// 061   ----------------------------------------
 BYTE   Gn2
 BYTE   W06
 BYTE   Dn2
 BYTE   W06
 BYTE   N09  Gn1
 BYTE   W12
 BYTE   N15  Fn1
 BYTE   W18
 BYTE   N14  Cn2
 BYTE   W18
 BYTE   Fn1
 BYTE   W24
 BYTE   N06
 BYTE   W12
// 062   ----------------------------------------
Label_2_015985C9:
 BYTE   N12  Cn2  v127
 BYTE   W12
 BYTE   N09  Fn1
 BYTE   W12
 BYTE   N14
 BYTE   W18
 BYTE   Cn2
 BYTE   W18
 BYTE   Fn1
 BYTE   W24
 BYTE   N06
 BYTE   W12
 BYTE   PEND 
 BYTE   PATT
  POIN2 Label_2_015984E4
// 063   ----------------------------------------
 BYTE   N12  En2  v127
 BYTE   W12
 BYTE   N08  En1
 BYTE   W12
 BYTE   N15
 BYTE   W18
 BYTE   Bn1
 BYTE   W18
 BYTE   En1
 BYTE   W24
 BYTE   N06
 BYTE   W12
// 064   ----------------------------------------
 BYTE   En2
 BYTE   W06
 BYTE   Bn1
 BYTE   W06
 BYTE   N09  En1
 BYTE   W12
 BYTE   N15  Fn1
 BYTE   W18
 BYTE   Cn2
 BYTE   W18
 BYTE   N14  Fn1
 BYTE   W24
 BYTE   N06
 BYTE   W12
 BYTE   PATT
  POIN2 Label_2_015985C9
// 065   ----------------------------------------
 BYTE   N06  Fn2  v127
 BYTE   W06
 BYTE   Cn2
 BYTE   W06
 BYTE   N08  Fn1
 BYTE   W12
 BYTE   N14  En1
 BYTE   W18
 BYTE   Bn1
 BYTE   W18
 BYTE   N15  En1
 BYTE   W24
 BYTE   N06
 BYTE   W12
// 066   ----------------------------------------
 BYTE   En2
 BYTE   W06
 BYTE   Bn1
 BYTE   W06
 BYTE   N08  En1
 BYTE   W12
 BYTE   N15
 BYTE   W18
 BYTE   Bn1
 BYTE   W18
 BYTE   En1
 BYTE   W24
 BYTE   N06
 BYTE   W12
// 067   ----------------------------------------
 BYTE   En2
 BYTE   W06
 BYTE   Bn1
 BYTE   W06
 BYTE   N09  En1
 BYTE   W12
 BYTE   N15  Dn1
 BYTE   W18
 BYTE   An1
 BYTE   W18
 BYTE   N14  Dn1
 BYTE   W24
 BYTE   N06
 BYTE   W12
// 068   ----------------------------------------
 BYTE   N12  An1
 BYTE   W12
 BYTE   N09  Dn1
 BYTE   W12
 BYTE   N14  Gn1
 BYTE   W18
 BYTE   Gn2
 BYTE   W18
 BYTE   Gn1
 BYTE   W24
 BYTE   N06
 BYTE   W12
// 069   ----------------------------------------
 BYTE   Gn2
 BYTE   W06
 BYTE   Dn2
 BYTE   W06
 BYTE   N08  Gn1
 BYTE   W12
 BYTE   N14  Cn1
 BYTE   W18
 BYTE   Gn1
 BYTE   W18
 BYTE   N12  Cn1
 BYTE   W12
 BYTE   N06
 BYTE   W18
 BYTE   N04
 BYTE   W06
// 070   ----------------------------------------
 BYTE   N12  Cn2
 BYTE   W12
 BYTE   Cn1
 BYTE   W12
 BYTE   N14
 BYTE   W18
 BYTE   N15  Gn1
 BYTE   W18
 BYTE   N12  Cn1
 BYTE   W12
 BYTE   N06
 BYTE   W18
 BYTE   N04
 BYTE   W06
// 071   ----------------------------------------
 BYTE   Cn2
 BYTE   W06
 BYTE   Gn1
 BYTE   W06
 BYTE   N12  Cn1
 BYTE   W12
 BYTE   N15  Gs0
 BYTE   W18
 BYTE   Gs1
 BYTE   W18
 BYTE   N14  Gs0
 BYTE   W24
 BYTE   N06
 BYTE   W12
// 072   ----------------------------------------
 BYTE   N12  Gs1
 BYTE   W12
 BYTE   N09  Gs0
 BYTE   W12
 BYTE   N15  Dn1
 BYTE   W18
 BYTE   N04  Dn2
 BYTE   W06
 BYTE   Dn1
 BYTE   W06
 BYTE   Dn2
 BYTE   W06
 BYTE   N09  Dn1
 BYTE   W12
 BYTE   N14  Gn0
 BYTE   W18
 BYTE   N04  Gn1
 BYTE   W06
// 073   ----------------------------------------
 BYTE   Gn0
 BYTE   W06
 BYTE   Gn1
 BYTE   W06
 BYTE   N08  Gn0
 BYTE   W12
 BYTE   N14  Gs0
 BYTE   W18
 BYTE   Gs1
 BYTE   W18
 BYTE   N15  Gs0
 BYTE   W24
 BYTE   N06  As0
 BYTE   W12
// 074   ----------------------------------------
 BYTE   N12  As1
 BYTE   W12
 BYTE   N08  As0
 BYTE   W12
 BYTE   N14  Cn1
 BYTE   W18
 BYTE   N15  Cn2
 BYTE   W18
 BYTE   Cn1
 BYTE   W24
 BYTE   N06
 BYTE   W12
// 075   ----------------------------------------
 BYTE   N04  Cn2
 BYTE   W06
 BYTE   Gn1
 BYTE   W06
 BYTE   Cn1
 BYTE   W06
 BYTE   Cn2
 BYTE   W06
 BYTE   N15  Fn1
 BYTE   W18
 BYTE   Cn2
 BYTE   W18
 BYTE   N14  Fn1
 BYTE   W24
 BYTE   N06
 BYTE   W12
// 076   ----------------------------------------
 BYTE   N12  Cn2
 BYTE   W12
 BYTE   N09  Fn1
 BYTE   W12
 BYTE   N15  As1
 BYTE   W18
 BYTE   N14  As2
 BYTE   W18
 BYTE   As1
 BYTE   W24
 BYTE   N06
 BYTE   W12
// 077   ----------------------------------------
 BYTE   As2
 BYTE   W06
 BYTE   Fn2
 BYTE   W06
 BYTE   N08  As1
 BYTE   W12
 BYTE   N14  En1
 BYTE   W18
 BYTE   Bn1
 BYTE   W18
 BYTE   N15  En1
 BYTE   W24
 BYTE   N06
 BYTE   W12
// 078   ----------------------------------------
 BYTE   N12  Bn1
 BYTE   W12
 BYTE   N08  En1
 BYTE   W12
 BYTE   N14  An1
 BYTE   W18
 BYTE   N15  An2
 BYTE   W18
 BYTE   An1
 BYTE   W24
 BYTE   N06
 BYTE   W12
// 079   ----------------------------------------
 BYTE   Gn2
 BYTE   W06
 BYTE   Dn2
 BYTE   W06
 BYTE   N08  Gn1
 BYTE   W12
 BYTE   N15  Fn1
 BYTE   W18
 BYTE   Fn2
 BYTE   W18
 BYTE   Fn1
 BYTE   W24
 BYTE   N06
 BYTE   W12
// 080   ----------------------------------------
 BYTE   N12  Fn2
 BYTE   W12
 BYTE   N09  Fn1
 BYTE   W12
 BYTE   N15
 BYTE   W18
 BYTE   N14  Fn2
 BYTE   W18
 BYTE   N12  Fn1
 BYTE   W12
 BYTE   N12
 BYTE   W12
 BYTE   N06
 BYTE   W12
// 081   ----------------------------------------
 BYTE   N04  Fn2
 BYTE   W06
 BYTE   Cn2
 BYTE   W06
 BYTE   Fn1
 BYTE   W06
 BYTE   Fn2
 BYTE   W06
 BYTE   N14  En1
 BYTE   W18
 BYTE   En2
 BYTE   W18
 BYTE   En1
 BYTE   W24
 BYTE   N06
 BYTE   W12
// 082   ----------------------------------------
 BYTE   N12  En2
 BYTE   W12
 BYTE   N08  En1
 BYTE   W12
 BYTE   N14  An1
 BYTE   W18
 BYTE   N15  An2
 BYTE   W18
 BYTE   An1
 BYTE   W24
 BYTE   N06
 BYTE   W12
// 083   ----------------------------------------
 BYTE   N12  An2
 BYTE   W12
 BYTE   N08  An1
 BYTE   W12
 BYTE   N15  Fn1
 BYTE   W18
 BYTE   Cn2
 BYTE   W18
 BYTE   Fn1
 BYTE   W24
 BYTE   N06
 BYTE   W12
// 084   ----------------------------------------
 BYTE   N12  Cn2
 BYTE   W12
 BYTE   N06  Fn1
 BYTE   W12
 BYTE   N15
 BYTE   W18
 BYTE   N14  Cn2
 BYTE   W18
 BYTE   Fn1
 BYTE   W24
 BYTE   N06
 BYTE   W12
// 085   ----------------------------------------
 BYTE   N12  Cn2
 BYTE   W12
 BYTE   N06  Fn1
 BYTE   W12
 BYTE   N14  En1
 BYTE   W18
 BYTE   Bn1
 BYTE   W18
 BYTE   En1
 BYTE   W24
 BYTE   N06
 BYTE   W12
// 086   ----------------------------------------
 BYTE   N12  En2
 BYTE   W12
 BYTE   N06  En1
 BYTE   W12
 BYTE   N14  An1
 BYTE   W18
 BYTE   N15  An2
 BYTE   W18
 BYTE   An1
 BYTE   W24
 BYTE   N06
 BYTE   W12
// 087   ----------------------------------------
 BYTE   Gn2
 BYTE   W06
 BYTE   Dn2
 BYTE   W06
 BYTE   N08  Gn1
 BYTE   W12
 BYTE   N15  Dn1
 BYTE   W18
 BYTE   Dn2
 BYTE   W18
 BYTE   Dn1
 BYTE   W24
 BYTE   N06
 BYTE   W12
// 088   ----------------------------------------
 BYTE   N12  Dn2
 BYTE   W12
 BYTE   N06  Dn1
 BYTE   W12
 BYTE   N15  En1
 BYTE   W18
 BYTE   En2
 BYTE   W18
 BYTE   N14  En1
 BYTE   W24
 BYTE   N06
 BYTE   W12
// 089   ----------------------------------------
 BYTE   N12  En2
 BYTE   W12
 BYTE   N06  En1
 BYTE   W12
 BYTE   N14  Fn1
 BYTE   W18
 BYTE   Fn2
 BYTE   W18
 BYTE   Fn1
 BYTE   W24
 BYTE   N06
 BYTE   W12
// 090   ----------------------------------------
 BYTE   N12  Fn2
 BYTE   W12
 BYTE   N06  Fn1
 BYTE   W12
 BYTE   N14  Dn1
 BYTE   W18
 BYTE   Dn2
 BYTE   W18
 BYTE   N15  Dn1
 BYTE   W24
 BYTE   N06  Gn1
 BYTE   W12
// 091   ----------------------------------------
 BYTE   N12  Gn2
 BYTE   W12
 BYTE   N06  Gn1
 BYTE   W12
 BYTE   N15  Gs0
 BYTE   W18
 BYTE   Gs1
 BYTE   W18
 BYTE   Gs0
 BYTE   W24
 BYTE   N06
 BYTE   W12
// 092   ----------------------------------------
 BYTE   N12  Gs1
 BYTE   W12
 BYTE   N06  Gs0
 BYTE   W12
 BYTE   N15  As0
 BYTE   W18
 BYTE   As1
 BYTE   W18
 BYTE   N14  As0
 BYTE   W24
 BYTE   N06
 BYTE   W12
// 093   ----------------------------------------
 BYTE   N12  As1
 BYTE   W12
 BYTE   N06  As0
 BYTE   W12
 BYTE   N14  Cn1
 BYTE   W18
 BYTE   Cn2
 BYTE   W18
 BYTE   Cn1
 BYTE   W24
 BYTE   N06
 BYTE   W12
// 094   ----------------------------------------
 BYTE   N12  Cn2
 BYTE   W12
 BYTE   N06  Cn1
 BYTE   W12
 BYTE   N14
 BYTE   W18
 BYTE   Cn2
 BYTE   W18
 BYTE   N15  Cn1
 BYTE   W24
 BYTE   N06
 BYTE   W12
// 095   ----------------------------------------
 BYTE   N12  Cn2
 BYTE   W12
 BYTE   N06  Cn1
 BYTE   W12
 BYTE   GoTo
  POIN2 Label_2_01598192
// 096   ----------------------------------------
 BYTE   W10
 BYTE   FINE

//**************** Track 4 (Midi-Chn.3) ****************//

KirbyDreamLandRippleField1Pandan_004:
// 000   ----------------------------------------
 BYTE   KEYSH   KirbyDreamLandRippleField1Pandan_key+0
Label_3_0159881A:
 BYTE   VOICE   36
 BYTE   MODT 0
 BYTE   CnM2
 BYTE   LFOS 0
 BYTE   Gs1
 BYTE   VOL   15*KirbyDreamLandRippleField1Pandan_mvl/mxv
 BYTE   PAN   c_v+0
 BYTE   W36
 BYTE   N14  Fn1  v127
 BYTE   W18
 BYTE   Cn2
 BYTE   W18
 BYTE   N15  Fn1
 BYTE   W24
// 001   ----------------------------------------
Label_3_0159882E:
 BYTE   N06  Fn1  v127
 BYTE   W12
 BYTE   N12  Cn2
 BYTE   W12
 BYTE   N08  Fn1
 BYTE   W12
 BYTE   N15
 BYTE   W18
 BYTE   Cn2
 BYTE   W18
 BYTE   Fn1
 BYTE   W24
 BYTE   PEND 
// 002   ----------------------------------------
Label_3_0159883F:
 BYTE   N06  Fn1  v127
 BYTE   W12
 BYTE   Fn2
 BYTE   W06
 BYTE   Cn2
 BYTE   W06
 BYTE   N09  Fn1
 BYTE   W12
 BYTE   N15  En1
 BYTE   W18
 BYTE   Bn1
 BYTE   W18
 BYTE   N14  En1
 BYTE   W24
 BYTE   PEND 
// 003   ----------------------------------------
 BYTE   N06
 BYTE   W12
 BYTE   N12  En2
 BYTE   W12
 BYTE   N09  En1
 BYTE   W12
 BYTE   N14
 BYTE   W18
 BYTE   Bn1
 BYTE   W18
 BYTE   En1
 BYTE   W24
// 004   ----------------------------------------
 BYTE   N06
 BYTE   W12
 BYTE   En2
 BYTE   W06
 BYTE   Bn1
 BYTE   W06
 BYTE   N08  En1
 BYTE   W12
 BYTE   N14  Fn1
 BYTE   W18
 BYTE   Cn2
 BYTE   W18
 BYTE   N15  Fn1
 BYTE   W24
 BYTE   PATT
  POIN2 Label_3_0159882E
 BYTE   PATT
  POIN2 Label_3_0159883F
// 005   ----------------------------------------
Label_3_0159887C:
 BYTE   N06  En1  v127
 BYTE   W12
 BYTE   En2
 BYTE   W06
 BYTE   Bn1
 BYTE   W06
 BYTE   N09  En1
 BYTE   W12
 BYTE   N15
 BYTE   W18
 BYTE   N14  Bn1
 BYTE   W18
 BYTE   En1
 BYTE   W24
 BYTE   PEND 
// 006   ----------------------------------------
 BYTE   N06
 BYTE   W12
 BYTE   En2
 BYTE   W06
 BYTE   Bn1
 BYTE   W06
 BYTE   N08  En1
 BYTE   W12
 BYTE   N14  Dn1
 BYTE   W18
 BYTE   An1
 BYTE   W18
 BYTE   N15  Dn1
 BYTE   W24
// 007   ----------------------------------------
 BYTE   N06
 BYTE   W12
 BYTE   N12  An1
 BYTE   W12
 BYTE   N08  Dn1
 BYTE   W12
 BYTE   N14  Gn1
 BYTE   W18
 BYTE   N15  Gn2
 BYTE   W18
 BYTE   Gn1
 BYTE   W24
// 008   ----------------------------------------
 BYTE   N06
 BYTE   W12
 BYTE   Gn2
 BYTE   W06
 BYTE   Dn2
 BYTE   W06
 BYTE   N09  Gn1
 BYTE   W12
 BYTE   N15  Cn1
 BYTE   W18
 BYTE   Gn1
 BYTE   W18
 BYTE   N12  Cn1
 BYTE   W12
 BYTE   N06
 BYTE   W12
// 009   ----------------------------------------
 BYTE   W06
 BYTE   N04
 BYTE   W06
 BYTE   N12  Cn2
 BYTE   W12
 BYTE   Cn1
 BYTE   W12
 BYTE   N15
 BYTE   W18
 BYTE   N14  Gn1
 BYTE   W18
 BYTE   N12  Cn1
 BYTE   W12
 BYTE   N06
 BYTE   W12
// 010   ----------------------------------------
 BYTE   W06
 BYTE   N04
 BYTE   W06
 BYTE   Cn2
 BYTE   W06
 BYTE   Gn1
 BYTE   W06
 BYTE   N12  Cn1
 BYTE   W12
 BYTE   N14  Gs0
 BYTE   W18
 BYTE   Gs1
 BYTE   W18
 BYTE   N15  Gs0
 BYTE   W24
// 011   ----------------------------------------
 BYTE   N06
 BYTE   W12
 BYTE   N12  Gs1
 BYTE   W12
 BYTE   N08  Gs0
 BYTE   W12
 BYTE   N14
 BYTE   W18
 BYTE   N15  Gs1
 BYTE   W18
 BYTE   Gs0
 BYTE   W24
// 012   ----------------------------------------
 BYTE   N06
 BYTE   W12
 BYTE   Gs1
 BYTE   W06
 BYTE   Gs0
 BYTE   W06
 BYTE   N09  Gs1
 BYTE   W12
 BYTE   N15  Dn1
 BYTE   W18
 BYTE   Dn2
 BYTE   W18
 BYTE   N14  Dn1
 BYTE   W24
// 013   ----------------------------------------
 BYTE   N06
 BYTE   W12
 BYTE   N12  Dn2
 BYTE   W12
 BYTE   N09  Dn1
 BYTE   W12
 BYTE   N15  Gn1
 BYTE   W18
 BYTE   N14  Gn2
 BYTE   W18
 BYTE   Gn1
 BYTE   W24
// 014   ----------------------------------------
 BYTE   N06
 BYTE   W12
 BYTE   Gn2
 BYTE   W06
 BYTE   Dn2
 BYTE   W06
 BYTE   N09  Gn1
 BYTE   W12
 BYTE   N14  Fn1
 BYTE   W18
 BYTE   Cn2
 BYTE   W18
 BYTE   Fn1
 BYTE   W24
// 015   ----------------------------------------
Label_3_01598927:
 BYTE   N06  Fn1  v127
 BYTE   W12
 BYTE   N12  Cn2
 BYTE   W12
 BYTE   N08  Fn1
 BYTE   W12
 BYTE   N14
 BYTE   W18
 BYTE   N15  Cn2
 BYTE   W18
 BYTE   Fn1
 BYTE   W24
 BYTE   PEND 
// 016   ----------------------------------------
Label_3_01598939:
 BYTE   N06  Fn1  v127
 BYTE   W12
 BYTE   Fn2
 BYTE   W06
 BYTE   Cn2
 BYTE   W06
 BYTE   N08  Fn1
 BYTE   W12
 BYTE   N15  En1
 BYTE   W18
 BYTE   Bn1
 BYTE   W18
 BYTE   En1
 BYTE   W24
 BYTE   PEND 
// 017   ----------------------------------------
 BYTE   N06
 BYTE   W12
 BYTE   N12  En2
 BYTE   W12
 BYTE   N09  En1
 BYTE   W12
 BYTE   N15
 BYTE   W18
 BYTE   N14  Bn1
 BYTE   W18
 BYTE   En1
 BYTE   W24
// 018   ----------------------------------------
 BYTE   N06
 BYTE   W12
 BYTE   En2
 BYTE   W06
 BYTE   Bn1
 BYTE   W06
 BYTE   N09  En1
 BYTE   W12
 BYTE   N14  Fn1
 BYTE   W18
 BYTE   Cn2
 BYTE   W18
 BYTE   Fn1
 BYTE   W24
 BYTE   PATT
  POIN2 Label_3_01598927
 BYTE   PATT
  POIN2 Label_3_01598939
 BYTE   PATT
  POIN2 Label_3_0159887C
// 019   ----------------------------------------
 BYTE   N06  En1  v127
 BYTE   W12
 BYTE   En2
 BYTE   W06
 BYTE   Bn1
 BYTE   W06
 BYTE   N09  En1
 BYTE   W12
 BYTE   N14  Dn1
 BYTE   W18
 BYTE   An1
 BYTE   W18
 BYTE   Dn1
 BYTE   W24
// 020   ----------------------------------------
 BYTE   N06
 BYTE   W12
 BYTE   N12  An1
 BYTE   W12
 BYTE   N08  Dn1
 BYTE   W12
 BYTE   N14  Gn1
 BYTE   W18
 BYTE   Gn2
 BYTE   W18
 BYTE   N15  Gn1
 BYTE   W24
// 021   ----------------------------------------
 BYTE   N06
 BYTE   W12
 BYTE   Gn2
 BYTE   W06
 BYTE   Dn2
 BYTE   W06
 BYTE   N08  Gn1
 BYTE   W12
 BYTE   N15  Cn1
 BYTE   W18
 BYTE   Gn1
 BYTE   W18
 BYTE   N12  Cn1
 BYTE   W12
 BYTE   N06
 BYTE   W12
// 022   ----------------------------------------
 BYTE   W06
 BYTE   N04
 BYTE   W06
 BYTE   N12  Cn2
 BYTE   W12
 BYTE   Cn1
 BYTE   W12
 BYTE   N15
 BYTE   W18
 BYTE   Gn1
 BYTE   W18
 BYTE   N12  Cn1
 BYTE   W12
 BYTE   N06
 BYTE   W12
// 023   ----------------------------------------
 BYTE   W06
 BYTE   N04
 BYTE   W06
 BYTE   Cn2
 BYTE   W06
 BYTE   Gn1
 BYTE   W06
 BYTE   N12  Cn1
 BYTE   W12
 BYTE   N14  Gs0
 BYTE   W18
 BYTE   Gs1
 BYTE   W18
 BYTE   Gs0
 BYTE   W24
// 024   ----------------------------------------
 BYTE   N06
 BYTE   W12
 BYTE   N12  Gs1
 BYTE   W12
 BYTE   N08  Gs0
 BYTE   W12
 BYTE   N14  Dn1
 BYTE   W18
 BYTE   N04  Dn2
 BYTE   W06
 BYTE   Dn1
 BYTE   W06
 BYTE   Dn2
 BYTE   W06
 BYTE   N08  Dn1
 BYTE   W12
 BYTE   N14  Gn0
 BYTE   W12
// 025   ----------------------------------------
 BYTE   W06
 BYTE   N04  Gn1
 BYTE   W06
 BYTE   Gn0
 BYTE   W06
 BYTE   Gn1
 BYTE   W06
 BYTE   N08  Gn0
 BYTE   W12
 BYTE   N15  Gs0
 BYTE   W18
 BYTE   Gs1
 BYTE   W18
 BYTE   Gs0
 BYTE   W24
// 026   ----------------------------------------
 BYTE   N06  As0
 BYTE   W12
 BYTE   N12  As1
 BYTE   W12
 BYTE   N09  As0
 BYTE   W12
 BYTE   N15  Cn1
 BYTE   W18
 BYTE   Cn2
 BYTE   W18
 BYTE   N14  Cn1
 BYTE   W24
// 027   ----------------------------------------
 BYTE   N06
 BYTE   W12
 BYTE   N04  Cn2
 BYTE   W06
 BYTE   Gn1
 BYTE   W06
 BYTE   Cn1
 BYTE   W06
 BYTE   Cn2
 BYTE   W06
 BYTE   N15  Fn1
 BYTE   W18
 BYTE   N14  Cn2
 BYTE   W18
 BYTE   Fn1
 BYTE   W24
// 028   ----------------------------------------
 BYTE   N06
 BYTE   W12
 BYTE   N12  Cn2
 BYTE   W12
 BYTE   N08  Fn1
 BYTE   W12
 BYTE   N14  As1
 BYTE   W18
 BYTE   As2
 BYTE   W18
 BYTE   N15  As1
 BYTE   W24
// 029   ----------------------------------------
 BYTE   N06
 BYTE   W12
 BYTE   As2
 BYTE   W06
 BYTE   Fn2
 BYTE   W06
 BYTE   N08  As1
 BYTE   W12
 BYTE   N14  En1
 BYTE   W18
 BYTE   N15  Bn1
 BYTE   W18
 BYTE   En1
 BYTE   W24
// 030   ----------------------------------------
 BYTE   N06
 BYTE   W12
 BYTE   N12  Bn1
 BYTE   W12
 BYTE   N09  En1
 BYTE   W12
 BYTE   N15  An1
 BYTE   W18
 BYTE   An2
 BYTE   W18
 BYTE   N14  An1
 BYTE   W24
// 031   ----------------------------------------
 BYTE   N06
 BYTE   W12
 BYTE   Gn2
 BYTE   W06
 BYTE   Dn2
 BYTE   W06
 BYTE   N09  Gn1
 BYTE   W12
 BYTE   N15  Fn1
 BYTE   W18
 BYTE   N14  Fn2
 BYTE   W18
 BYTE   Fn1
 BYTE   W24
// 032   ----------------------------------------
 BYTE   N06
 BYTE   W12
 BYTE   N12  Fn2
 BYTE   W12
 BYTE   N08  Fn1
 BYTE   W12
 BYTE   N14
 BYTE   W18
 BYTE   Fn2
 BYTE   W18
 BYTE   N12  Fn1
 BYTE   W12
 BYTE   N12
 BYTE   W12
// 033   ----------------------------------------
 BYTE   N06
 BYTE   W12
 BYTE   N04  Fn2
 BYTE   W06
 BYTE   Cn2
 BYTE   W06
 BYTE   Fn1
 BYTE   W06
 BYTE   Fn2
 BYTE   W06
 BYTE   N14  En1
 BYTE   W18
 BYTE   N15  En2
 BYTE   W18
 BYTE   En1
 BYTE   W24
// 034   ----------------------------------------
 BYTE   N06
 BYTE   W12
 BYTE   N12  En2
 BYTE   W12
 BYTE   N09  En1
 BYTE   W12
 BYTE   N15  An1
 BYTE   W18
 BYTE   An2
 BYTE   W18
 BYTE   N14  An1
 BYTE   W24
// 035   ----------------------------------------
 BYTE   N06
 BYTE   W12
 BYTE   N12  An2
 BYTE   W12
 BYTE   N09  An1
 BYTE   W12
 BYTE   N15  Fn1
 BYTE   W18
 BYTE   N14  Cn2
 BYTE   W18
 BYTE   Fn1
 BYTE   W24
// 036   ----------------------------------------
 BYTE   N06
 BYTE   W12
 BYTE   N12  Cn2
 BYTE   W12
 BYTE   N06  Fn1
 BYTE   W12
 BYTE   N14
 BYTE   W18
 BYTE   Cn2
 BYTE   W18
 BYTE   Fn1
 BYTE   W24
// 037   ----------------------------------------
 BYTE   N06
 BYTE   W12
 BYTE   N12  Cn2
 BYTE   W12
 BYTE   N06  Fn1
 BYTE   W12
 BYTE   N14  En1
 BYTE   W18
 BYTE   N15  Bn1
 BYTE   W18
 BYTE   En1
 BYTE   W24
// 038   ----------------------------------------
 BYTE   N06
 BYTE   W12
 BYTE   N12  En2
 BYTE   W12
 BYTE   N06  En1
 BYTE   W12
 BYTE   N15  An1
 BYTE   W18
 BYTE   An2
 BYTE   W18
 BYTE   An1
 BYTE   W24
// 039   ----------------------------------------
 BYTE   N06
 BYTE   W12
 BYTE   Gn2
 BYTE   W06
 BYTE   Dn2
 BYTE   W06
 BYTE   N09  Gn1
 BYTE   W12
 BYTE   N15  Dn1
 BYTE   W18
 BYTE   N14  Dn2
 BYTE   W18
 BYTE   Dn1
 BYTE   W24
// 040   ----------------------------------------
 BYTE   N06
 BYTE   W12
 BYTE   N12  Dn2
 BYTE   W12
 BYTE   N06  Dn1
 BYTE   W12
 BYTE   N14  En1
 BYTE   W18
 BYTE   En2
 BYTE   W18
 BYTE   En1
 BYTE   W24
// 041   ----------------------------------------
 BYTE   N06
 BYTE   W12
 BYTE   N12  En2
 BYTE   W12
 BYTE   N06  En1
 BYTE   W12
 BYTE   N14  Fn1
 BYTE   W18
 BYTE   N15  Fn2
 BYTE   W18
 BYTE   Fn1
 BYTE   W24
// 042   ----------------------------------------
 BYTE   N06
 BYTE   W12
 BYTE   N12  Fn2
 BYTE   W12
 BYTE   N06  Fn1
 BYTE   W12
 BYTE   N15  Dn1
 BYTE   W18
 BYTE   Dn2
 BYTE   W18
 BYTE   Dn1
 BYTE   W24
// 043   ----------------------------------------
 BYTE   N06  Gn1
 BYTE   W12
 BYTE   N12  Gn2
 BYTE   W12
 BYTE   N06  Gn1
 BYTE   W12
 BYTE   N15  Gs0
 BYTE   W18
 BYTE   N14  Gs1
 BYTE   W18
 BYTE   Gs0
 BYTE   W24
// 044   ----------------------------------------
 BYTE   N06
 BYTE   W12
 BYTE   N12  Gs1
 BYTE   W12
 BYTE   N06  Gs0
 BYTE   W12
 BYTE   N14  As0
 BYTE   W18
 BYTE   As1
 BYTE   W18
 BYTE   As0
 BYTE   W24
// 045   ----------------------------------------
 BYTE   N06
 BYTE   W12
 BYTE   N12  As1
 BYTE   W12
 BYTE   N06  As0
 BYTE   W12
 BYTE   N14  Cn1
 BYTE   W18
 BYTE   Cn2
 BYTE   W18
 BYTE   N15  Cn1
 BYTE   W24
// 046   ----------------------------------------
 BYTE   N06
 BYTE   W12
 BYTE   N12  Cn2
 BYTE   W12
 BYTE   N06  Cn1
 BYTE   W12
 BYTE   N15
 BYTE   W18
 BYTE   Cn2
 BYTE   W18
 BYTE   Cn1
 BYTE   W24
// 047   ----------------------------------------
 BYTE   N06
 BYTE   W12
 BYTE   N12  Cn2
 BYTE   W12
 BYTE   N06  Cn1
 BYTE   W12
 BYTE   N15  Fn1
 BYTE   W18
 BYTE   Cn2
 BYTE   W18
 BYTE   N14  Fn1
 BYTE   W24
// 048   ----------------------------------------
 BYTE   N06
 BYTE   W12
 BYTE   N12  Cn2
 BYTE   W12
 BYTE   N09  Fn1
 BYTE   W12
 BYTE   N14
 BYTE   W18
 BYTE   Cn2
 BYTE   W18
 BYTE   Fn1
 BYTE   W24
// 049   ----------------------------------------
Label_3_01598B6D:
 BYTE   N06  Fn1  v127
 BYTE   W12
 BYTE   Fn2
 BYTE   W06
 BYTE   Cn2
 BYTE   W06
 BYTE   N08  Fn1
 BYTE   W12
 BYTE   N14  En1
 BYTE   W18
 BYTE   Bn1
 BYTE   W18
 BYTE   N15  En1
 BYTE   W24
 BYTE   PEND 
// 050   ----------------------------------------
 BYTE   N06
 BYTE   W12
 BYTE   N12  En2
 BYTE   W12
 BYTE   N08  En1
 BYTE   W12
 BYTE   N15
 BYTE   W18
 BYTE   Bn1
 BYTE   W18
 BYTE   En1
 BYTE   W24
// 051   ----------------------------------------
 BYTE   N06
 BYTE   W12
 BYTE   En2
 BYTE   W06
 BYTE   Bn1
 BYTE   W06
 BYTE   N09  En1
 BYTE   W12
 BYTE   N15  Fn1
 BYTE   W18
 BYTE   Cn2
 BYTE   W18
 BYTE   N14  Fn1
 BYTE   W24
// 052   ----------------------------------------
Label_3_01598BA0:
 BYTE   N06  Fn1  v127
 BYTE   W12
 BYTE   N12  Cn2
 BYTE   W12
 BYTE   N09  Fn1
 BYTE   W12
 BYTE   N15
 BYTE   W18
 BYTE   N14  Cn2
 BYTE   W18
 BYTE   Fn1
 BYTE   W24
 BYTE   PEND 
 BYTE   PATT
  POIN2 Label_3_01598B6D
// 053   ----------------------------------------
 BYTE   N06  En1  v127
 BYTE   W12
 BYTE   En2
 BYTE   W06
 BYTE   Bn1
 BYTE   W06
 BYTE   N08  En1
 BYTE   W12
 BYTE   N14
 BYTE   W18
 BYTE   N15  Bn1
 BYTE   W18
 BYTE   En1
 BYTE   W24
// 054   ----------------------------------------
 BYTE   N06
 BYTE   W12
 BYTE   En2
 BYTE   W06
 BYTE   Bn1
 BYTE   W06
 BYTE   N09  En1
 BYTE   W12
 BYTE   N15  Dn1
 BYTE   W18
 BYTE   An1
 BYTE   W18
 BYTE   N14  Dn1
 BYTE   W24
// 055   ----------------------------------------
 BYTE   N06
 BYTE   W12
 BYTE   N12  An1
 BYTE   W12
 BYTE   N09  Dn1
 BYTE   W12
 BYTE   N15  Gn1
 BYTE   W18
 BYTE   N14  Gn2
 BYTE   W18
 BYTE   Gn1
 BYTE   W24
// 056   ----------------------------------------
 BYTE   N06
 BYTE   W12
 BYTE   Gn2
 BYTE   W06
 BYTE   Dn2
 BYTE   W06
 BYTE   N08  Gn1
 BYTE   W12
 BYTE   N14  Cn1
 BYTE   W18
 BYTE   Gn1
 BYTE   W18
 BYTE   N12  Cn1
 BYTE   W12
 BYTE   N06
 BYTE   W12
// 057   ----------------------------------------
 BYTE   W06
 BYTE   N04
 BYTE   W06
 BYTE   N12  Cn2
 BYTE   W12
 BYTE   Cn1
 BYTE   W12
 BYTE   N14
 BYTE   W18
 BYTE   N15  Gn1
 BYTE   W18
 BYTE   N12  Cn1
 BYTE   W12
 BYTE   N06
 BYTE   W12
// 058   ----------------------------------------
 BYTE   W06
 BYTE   N04
 BYTE   W06
 BYTE   Cn2
 BYTE   W06
 BYTE   Gn1
 BYTE   W06
 BYTE   N12  Cn1
 BYTE   W12
 BYTE   N15  Gs0
 BYTE   W18
 BYTE   Gs1
 BYTE   W18
 BYTE   N14  Gs0
 BYTE   W24
// 059   ----------------------------------------
 BYTE   N06
 BYTE   W12
 BYTE   N12  Gs1
 BYTE   W12
 BYTE   N09  Gs0
 BYTE   W12
 BYTE   N15
 BYTE   W18
 BYTE   N14  Gs1
 BYTE   W18
 BYTE   Gs0
 BYTE   W24
// 060   ----------------------------------------
 BYTE   N06
 BYTE   W12
 BYTE   Gs1
 BYTE   W06
 BYTE   Gs0
 BYTE   W06
 BYTE   N09  Gs1
 BYTE   W12
 BYTE   N14  Dn1
 BYTE   W18
 BYTE   Dn2
 BYTE   W18
 BYTE   Dn1
 BYTE   W24
// 061   ----------------------------------------
 BYTE   N06
 BYTE   W12
 BYTE   N12  Dn2
 BYTE   W12
 BYTE   N08  Dn1
 BYTE   W12
 BYTE   N14  Gn1
 BYTE   W18
 BYTE   N15  Gn2
 BYTE   W18
 BYTE   Gn1
 BYTE   W24
// 062   ----------------------------------------
 BYTE   N06
 BYTE   W12
 BYTE   Gn2
 BYTE   W06
 BYTE   Dn2
 BYTE   W06
 BYTE   N08  Gn1
 BYTE   W12
 BYTE   N15  Fn1
 BYTE   W18
 BYTE   Cn2
 BYTE   W18
 BYTE   Fn1
 BYTE   W24
 BYTE   PATT
  POIN2 Label_3_01598BA0
// 063   ----------------------------------------
Label_3_01598C65:
 BYTE   N06  Fn1  v127
 BYTE   W12
 BYTE   Fn2
 BYTE   W06
 BYTE   Cn2
 BYTE   W06
 BYTE   N09  Fn1
 BYTE   W12
 BYTE   N14  En1
 BYTE   W18
 BYTE   Bn1
 BYTE   W18
 BYTE   En1
 BYTE   W24
 BYTE   PEND 
// 064   ----------------------------------------
 BYTE   N06
 BYTE   W12
 BYTE   N12  En2
 BYTE   W12
 BYTE   N08  En1
 BYTE   W12
 BYTE   N14
 BYTE   W18
 BYTE   N15  Bn1
 BYTE   W18
 BYTE   En1
 BYTE   W24
// 065   ----------------------------------------
 BYTE   N06
 BYTE   W12
 BYTE   En2
 BYTE   W06
 BYTE   Bn1
 BYTE   W06
 BYTE   N08  En1
 BYTE   W12
 BYTE   N15  Fn1
 BYTE   W18
 BYTE   Cn2
 BYTE   W18
 BYTE   Fn1
 BYTE   W24
 BYTE   PATT
  POIN2 Label_3_01598BA0
 BYTE   PATT
  POIN2 Label_3_01598C65
// 066   ----------------------------------------
 BYTE   N06  En1  v127
 BYTE   W12
 BYTE   En2
 BYTE   W06
 BYTE   Bn1
 BYTE   W06
 BYTE   N08  En1
 BYTE   W12
 BYTE   N14
 BYTE   W18
 BYTE   Bn1
 BYTE   W18
 BYTE   N15  En1
 BYTE   W24
// 067   ----------------------------------------
 BYTE   N06
 BYTE   W12
 BYTE   En2
 BYTE   W06
 BYTE   Bn1
 BYTE   W06
 BYTE   N08  En1
 BYTE   W12
 BYTE   N15  Dn1
 BYTE   W18
 BYTE   An1
 BYTE   W18
 BYTE   Dn1
 BYTE   W24
// 068   ----------------------------------------
 BYTE   N06
 BYTE   W12
 BYTE   N12  An1
 BYTE   W12
 BYTE   N09  Dn1
 BYTE   W12
 BYTE   N15  Gn1
 BYTE   W18
 BYTE   Gn2
 BYTE   W18
 BYTE   N14  Gn1
 BYTE   W24
// 069   ----------------------------------------
 BYTE   N06
 BYTE   W12
 BYTE   Gn2
 BYTE   W06
 BYTE   Dn2
 BYTE   W06
 BYTE   N09  Gn1
 BYTE   W12
 BYTE   N14  Cn1
 BYTE   W18
 BYTE   Gn1
 BYTE   W18
 BYTE   N12  Cn1
 BYTE   W12
 BYTE   N06
 BYTE   W12
// 070   ----------------------------------------
 BYTE   W06
 BYTE   N04
 BYTE   W06
 BYTE   N12  Cn2
 BYTE   W12
 BYTE   Cn1
 BYTE   W12
 BYTE   N14
 BYTE   W18
 BYTE   Gn1
 BYTE   W18
 BYTE   N12  Cn1
 BYTE   W12
 BYTE   N06
 BYTE   W12
// 071   ----------------------------------------
 BYTE   W06
 BYTE   N04
 BYTE   W06
 BYTE   Cn2
 BYTE   W06
 BYTE   Gn1
 BYTE   W06
 BYTE   N12  Cn1
 BYTE   W12
 BYTE   N15  Gs0
 BYTE   W18
 BYTE   Gs1
 BYTE   W18
 BYTE   Gs0
 BYTE   W24
// 072   ----------------------------------------
 BYTE   N06
 BYTE   W12
 BYTE   N12  Gs1
 BYTE   W12
 BYTE   N09  Gs0
 BYTE   W12
 BYTE   N15  Dn1
 BYTE   W18
 BYTE   N04  Dn2
 BYTE   W06
 BYTE   Dn1
 BYTE   W06
 BYTE   Dn2
 BYTE   W06
 BYTE   N09  Dn1
 BYTE   W12
 BYTE   N15  Gn0
 BYTE   W12
// 073   ----------------------------------------
 BYTE   W06
 BYTE   N04  Gn1
 BYTE   W06
 BYTE   Gn0
 BYTE   W06
 BYTE   Gn1
 BYTE   W06
 BYTE   N09  Gn0
 BYTE   W12
 BYTE   N15  Gs0
 BYTE   W18
 BYTE   N14  Gs1
 BYTE   W18
 BYTE   Gs0
 BYTE   W24
// 074   ----------------------------------------
 BYTE   N06  As0
 BYTE   W12
 BYTE   N12  As1
 BYTE   W12
 BYTE   N08  As0
 BYTE   W12
 BYTE   N14  Cn1
 BYTE   W18
 BYTE   Cn2
 BYTE   W18
 BYTE   N15  Cn1
 BYTE   W24
// 075   ----------------------------------------
 BYTE   N06
 BYTE   W12
 BYTE   N04  Cn2
 BYTE   W06
 BYTE   Gn1
 BYTE   W06
 BYTE   Cn1
 BYTE   W06
 BYTE   Cn2
 BYTE   W06
 BYTE   N14  Fn1
 BYTE   W18
 BYTE   N15  Cn2
 BYTE   W18
 BYTE   Fn1
 BYTE   W24
// 076   ----------------------------------------
 BYTE   N06
 BYTE   W12
 BYTE   N12  Cn2
 BYTE   W12
 BYTE   N09  Fn1
 BYTE   W12
 BYTE   N15  As1
 BYTE   W18
 BYTE   As2
 BYTE   W18
 BYTE   N14  As1
 BYTE   W24
// 077   ----------------------------------------
 BYTE   N06
 BYTE   W12
 BYTE   As2
 BYTE   W06
 BYTE   Fn2
 BYTE   W06
 BYTE   N09  As1
 BYTE   W12
 BYTE   N15  En1
 BYTE   W18
 BYTE   N14  Bn1
 BYTE   W18
 BYTE   En1
 BYTE   W24
// 078   ----------------------------------------
 BYTE   N06
 BYTE   W12
 BYTE   N12  Bn1
 BYTE   W12
 BYTE   N08  En1
 BYTE   W12
 BYTE   N14  An1
 BYTE   W18
 BYTE   An2
 BYTE   W18
 BYTE   N15  An1
 BYTE   W24
// 079   ----------------------------------------
 BYTE   N06
 BYTE   W12
 BYTE   Gn2
 BYTE   W06
 BYTE   Dn2
 BYTE   W06
 BYTE   N08  Gn1
 BYTE   W12
 BYTE   N14  Fn1
 BYTE   W18
 BYTE   N15  Fn2
 BYTE   W18
 BYTE   Fn1
 BYTE   W24
// 080   ----------------------------------------
 BYTE   N06
 BYTE   W12
 BYTE   N12  Fn2
 BYTE   W12
 BYTE   N09  Fn1
 BYTE   W12
 BYTE   N15
 BYTE   W18
 BYTE   Fn2
 BYTE   W18
 BYTE   N12  Fn1
 BYTE   W12
 BYTE   N12
 BYTE   W12
// 081   ----------------------------------------
 BYTE   N06
 BYTE   W12
 BYTE   N04  Fn2
 BYTE   W06
 BYTE   Cn2
 BYTE   W06
 BYTE   Fn1
 BYTE   W06
 BYTE   Fn2
 BYTE   W06
 BYTE   N15  En1
 BYTE   W18
 BYTE   N14  En2
 BYTE   W18
 BYTE   En1
 BYTE   W24
// 082   ----------------------------------------
 BYTE   N06
 BYTE   W12
 BYTE   N12  En2
 BYTE   W12
 BYTE   N09  En1
 BYTE   W12
 BYTE   N14  An1
 BYTE   W18
 BYTE   An2
 BYTE   W18
 BYTE   An1
 BYTE   W24
// 083   ----------------------------------------
 BYTE   N06
 BYTE   W12
 BYTE   N12  An2
 BYTE   W12
 BYTE   N08  An1
 BYTE   W12
 BYTE   N14  Fn1
 BYTE   W18
 BYTE   N15  Cn2
 BYTE   W18
 BYTE   Fn1
 BYTE   W24
// 084   ----------------------------------------
 BYTE   N06
 BYTE   W12
 BYTE   N12  Cn2
 BYTE   W12
 BYTE   N06  Fn1
 BYTE   W12
 BYTE   N15
 BYTE   W18
 BYTE   Cn2
 BYTE   W18
 BYTE   Fn1
 BYTE   W24
// 085   ----------------------------------------
 BYTE   N06
 BYTE   W12
 BYTE   N12  Cn2
 BYTE   W12
 BYTE   N06  Fn1
 BYTE   W12
 BYTE   N15  En1
 BYTE   W18
 BYTE   N14  Bn1
 BYTE   W18
 BYTE   En1
 BYTE   W24
// 086   ----------------------------------------
 BYTE   N06
 BYTE   W12
 BYTE   N12  En2
 BYTE   W12
 BYTE   N06  En1
 BYTE   W12
 BYTE   N14  An1
 BYTE   W18
 BYTE   An2
 BYTE   W18
 BYTE   An1
 BYTE   W24
// 087   ----------------------------------------
 BYTE   N06
 BYTE   W12
 BYTE   Gn2
 BYTE   W06
 BYTE   Dn2
 BYTE   W06
 BYTE   N08  Gn1
 BYTE   W12
 BYTE   N14  Dn1
 BYTE   W18
 BYTE   N15  Dn2
 BYTE   W18
 BYTE   Dn1
 BYTE   W24
// 088   ----------------------------------------
 BYTE   N06
 BYTE   W12
 BYTE   N12  Dn2
 BYTE   W12
 BYTE   N06  Dn1
 BYTE   W12
 BYTE   N15  En1
 BYTE   W18
 BYTE   En2
 BYTE   W18
 BYTE   En1
 BYTE   W24
// 089   ----------------------------------------
 BYTE   N06
 BYTE   W12
 BYTE   N12  En2
 BYTE   W12
 BYTE   N06  En1
 BYTE   W12
 BYTE   N15  Fn1
 BYTE   W18
 BYTE   N14  Fn2
 BYTE   W18
 BYTE   Fn1
 BYTE   W24
// 090   ----------------------------------------
 BYTE   N06
 BYTE   W12
 BYTE   N12  Fn2
 BYTE   W12
 BYTE   N06  Fn1
 BYTE   W12
 BYTE   N14  Dn1
 BYTE   W18
 BYTE   Dn2
 BYTE   W18
 BYTE   Dn1
 BYTE   W24
// 091   ----------------------------------------
 BYTE   N06  Gn1
 BYTE   W12
 BYTE   N12  Gn2
 BYTE   W12
 BYTE   N06  Gn1
 BYTE   W12
 BYTE   N14  Gs0
 BYTE   W18
 BYTE   Gs1
 BYTE   W18
 BYTE   N15  Gs0
 BYTE   W24
// 092   ----------------------------------------
 BYTE   N06
 BYTE   W12
 BYTE   N12  Gs1
 BYTE   W12
 BYTE   N06  Gs0
 BYTE   W12
 BYTE   N15  As0
 BYTE   W18
 BYTE   As1
 BYTE   W18
 BYTE   As0
 BYTE   W24
// 093   ----------------------------------------
 BYTE   N06
 BYTE   W12
 BYTE   N12  As1
 BYTE   W12
 BYTE   N06  As0
 BYTE   W12
 BYTE   N15  Cn1
 BYTE   W18
 BYTE   Cn2
 BYTE   W18
 BYTE   N14  Cn1
 BYTE   W24
// 094   ----------------------------------------
 BYTE   N06
 BYTE   W12
 BYTE   N12  Cn2
 BYTE   W12
 BYTE   N06  Cn1
 BYTE   W12
 BYTE   N14
 BYTE   W18
 BYTE   Cn2
 BYTE   W18
 BYTE   Cn1
 BYTE   W24
// 095   ----------------------------------------
 BYTE   N06
 BYTE   W12
 BYTE   N12  Cn2
 BYTE   W12
 BYTE   GoTo
  POIN2 Label_3_0159881A
// 096   ----------------------------------------
 BYTE   N06  Cn1  v127
 BYTE   W10
 BYTE   FINE

//**************** Track 5 (Midi-Chn.4) ****************//

KirbyDreamLandRippleField1Pandan_005:
// 000   ----------------------------------------
 BYTE   KEYSH   KirbyDreamLandRippleField1Pandan_key+0
Label_4_015F5B4E:
 BYTE   VOICE   4
 BYTE   MODT 0
 BYTE   CnM2
 BYTE   LFOS 0
 BYTE   Gs1
 BYTE   VOL   19*KirbyDreamLandRippleField1Pandan_mvl/mxv
 BYTE   PAN   c_v+51
 BYTE   W24
 BYTE   N06  En4  v127
 BYTE   W06
 BYTE   Cn4
 BYTE   W06
 BYTE   Fn3
 BYTE   W06
 BYTE   En4
 BYTE   W06
 BYTE   Cn4
 BYTE   W06
 BYTE   Fn3
 BYTE   W06
 BYTE   En4
 BYTE   W06
 BYTE   Cn4
 BYTE   W06
 BYTE   En4
 BYTE   W06
 BYTE   Cn4
 BYTE   W06
 BYTE   Fn3
 BYTE   W06
 BYTE   En4
 BYTE   W06
// 001   ----------------------------------------
Label_4_015F5B73:
 BYTE   N06  Cn4  v127
 BYTE   W06
 BYTE   Fn3
 BYTE   W06
 BYTE   En4
 BYTE   W06
 BYTE   Cn4
 BYTE   W06
 BYTE   En4
 BYTE   W06
 BYTE   Cn4
 BYTE   W06
 BYTE   Fn3
 BYTE   W06
 BYTE   En4
 BYTE   W06
 BYTE   Cn4
 BYTE   W06
 BYTE   Fn3
 BYTE   W06
 BYTE   En4
 BYTE   W06
 BYTE   Cn4
 BYTE   W06
 BYTE   En4
 BYTE   W06
 BYTE   Cn4
 BYTE   W06
 BYTE   Fn3
 BYTE   W06
 BYTE   En4
 BYTE   W06
 BYTE   PEND 
// 002   ----------------------------------------
Label_4_015F5B96:
 BYTE   N06  Cn4  v127
 BYTE   W06
 BYTE   Fn3
 BYTE   W06
 BYTE   En4
 BYTE   W06
 BYTE   Cn4
 BYTE   W06
 BYTE   Dn4
 BYTE   W06
 BYTE   Bn3
 BYTE   W06
 BYTE   En3
 BYTE   W06
 BYTE   Dn4
 BYTE   W06
 BYTE   Bn3
 BYTE   W06
 BYTE   En3
 BYTE   W06
 BYTE   Dn4
 BYTE   W06
 BYTE   Bn3
 BYTE   W06
 BYTE   Dn4
 BYTE   W06
 BYTE   Bn3
 BYTE   W06
 BYTE   En3
 BYTE   W06
 BYTE   Dn4
 BYTE   W06
 BYTE   PEND 
// 003   ----------------------------------------
Label_4_015F5BB9:
 BYTE   N06  Bn3  v127
 BYTE   W06
 BYTE   En3
 BYTE   W06
 BYTE   Dn4
 BYTE   W06
 BYTE   Bn3
 BYTE   W06
 BYTE   Dn4
 BYTE   W06
 BYTE   Bn3
 BYTE   W06
 BYTE   En3
 BYTE   W06
 BYTE   Dn4
 BYTE   W06
 BYTE   Bn3
 BYTE   W06
 BYTE   En3
 BYTE   W06
 BYTE   Dn4
 BYTE   W06
 BYTE   Bn3
 BYTE   W06
 BYTE   Dn4
 BYTE   W06
 BYTE   Bn3
 BYTE   W06
 BYTE   En3
 BYTE   W06
 BYTE   Dn4
 BYTE   W06
 BYTE   PEND 
// 004   ----------------------------------------
Label_4_015F5BDC:
 BYTE   N06  Bn3  v127
 BYTE   W06
 BYTE   En3
 BYTE   W06
 BYTE   Dn4
 BYTE   W06
 BYTE   Bn3
 BYTE   W06
 BYTE   En4
 BYTE   W06
 BYTE   Cn4
 BYTE   W06
 BYTE   Fn3
 BYTE   W06
 BYTE   En4
 BYTE   W06
 BYTE   Cn4
 BYTE   W06
 BYTE   Fn3
 BYTE   W06
 BYTE   En4
 BYTE   W06
 BYTE   Cn4
 BYTE   W06
 BYTE   En4
 BYTE   W06
 BYTE   Cn4
 BYTE   W06
 BYTE   Fn3
 BYTE   W06
 BYTE   En4
 BYTE   W06
 BYTE   PEND 
 BYTE   PATT
  POIN2 Label_4_015F5B73
 BYTE   PATT
  POIN2 Label_4_015F5B96
 BYTE   PATT
  POIN2 Label_4_015F5BB9
// 005   ----------------------------------------
Label_4_015F5C0E:
 BYTE   N06  Bn3  v127
 BYTE   W06
 BYTE   En3
 BYTE   W06
 BYTE   Dn4
 BYTE   W06
 BYTE   Bn3
 BYTE   W06
 BYTE   Fn4
 BYTE   W06
 BYTE   Cn4
 BYTE   W06
 BYTE   Fn3
 BYTE   W06
 BYTE   Fn4
 BYTE   W06
 BYTE   Cn4
 BYTE   W06
 BYTE   Fn3
 BYTE   W06
 BYTE   Fn4
 BYTE   W06
 BYTE   Cn4
 BYTE   W06
 BYTE   Fn4
 BYTE   W06
 BYTE   Cn4
 BYTE   W06
 BYTE   Fn3
 BYTE   W06
 BYTE   Fn4
 BYTE   W06
 BYTE   PEND 
// 006   ----------------------------------------
Label_4_015F5C31:
 BYTE   N06  Cn4  v127
 BYTE   W06
 BYTE   Fn3
 BYTE   W06
 BYTE   Fn4
 BYTE   W06
 BYTE   Cn4
 BYTE   W06
 BYTE   Fn4
 BYTE   W06
 BYTE   Dn4
 BYTE   W06
 BYTE   Fn3
 BYTE   W06
 BYTE   Fn4
 BYTE   W06
 BYTE   Dn4
 BYTE   W06
 BYTE   Fn3
 BYTE   W06
 BYTE   Fn4
 BYTE   W06
 BYTE   Dn4
 BYTE   W06
 BYTE   Fn4
 BYTE   W06
 BYTE   Dn4
 BYTE   W06
 BYTE   Fn3
 BYTE   W06
 BYTE   Fn4
 BYTE   W06
 BYTE   PEND 
// 007   ----------------------------------------
Label_4_015F5C54:
 BYTE   N06  Dn4  v127
 BYTE   W06
 BYTE   Fn3
 BYTE   W06
 BYTE   Fn4
 BYTE   W06
 BYTE   Dn4
 BYTE   W06
 BYTE   En4
 BYTE   W06
 BYTE   Bn3
 BYTE   W06
 BYTE   En3
 BYTE   W06
 BYTE   En4
 BYTE   W06
 BYTE   Bn3
 BYTE   W06
 BYTE   En3
 BYTE   W06
 BYTE   En4
 BYTE   W06
 BYTE   Bn3
 BYTE   W06
 BYTE   En4
 BYTE   W06
 BYTE   Bn3
 BYTE   W06
 BYTE   En3
 BYTE   W06
 BYTE   En4
 BYTE   W06
 BYTE   PEND 
// 008   ----------------------------------------
Label_4_015F5C77:
 BYTE   N06  Bn3  v127
 BYTE   W06
 BYTE   En3
 BYTE   W06
 BYTE   En4
 BYTE   W06
 BYTE   Bn3
 BYTE   W06
 BYTE   Dn4
 BYTE   W06
 BYTE   Bn3
 BYTE   W06
 BYTE   En3
 BYTE   W06
 BYTE   Dn4
 BYTE   W06
 BYTE   Bn3
 BYTE   W06
 BYTE   En3
 BYTE   W06
 BYTE   Dn4
 BYTE   W06
 BYTE   Bn3
 BYTE   W06
 BYTE   Dn4
 BYTE   W06
 BYTE   Bn3
 BYTE   W06
 BYTE   En3
 BYTE   W06
 BYTE   Dn4
 BYTE   W06
 BYTE   PEND 
// 009   ----------------------------------------
Label_4_015F5C9A:
 BYTE   N06  Bn3  v127
 BYTE   W06
 BYTE   En3
 BYTE   W06
 BYTE   Dn4
 BYTE   W06
 BYTE   Bn3
 BYTE   W06
 BYTE   Ds4
 BYTE   W06
 BYTE   Cn4
 BYTE   W06
 BYTE   Ds3
 BYTE   W06
 BYTE   Ds4
 BYTE   W06
 BYTE   Cn4
 BYTE   W06
 BYTE   Ds3
 BYTE   W06
 BYTE   Ds4
 BYTE   W06
 BYTE   Cn4
 BYTE   W06
 BYTE   Ds4
 BYTE   W06
 BYTE   Cn4
 BYTE   W06
 BYTE   Ds3
 BYTE   W06
 BYTE   Ds4
 BYTE   W06
 BYTE   PEND 
// 010   ----------------------------------------
Label_4_015F5CBD:
 BYTE   N06  Cn4  v127
 BYTE   W06
 BYTE   Ds3
 BYTE   W06
 BYTE   Ds4
 BYTE   W06
 BYTE   Cn4
 BYTE   W06
 BYTE   Ds4
 BYTE   W06
 BYTE   Cn4
 BYTE   W06
 BYTE   Ds3
 BYTE   W06
 BYTE   Ds4
 BYTE   W06
 BYTE   Cn4
 BYTE   W06
 BYTE   Ds3
 BYTE   W06
 BYTE   Ds4
 BYTE   W06
 BYTE   Cn4
 BYTE   W06
 BYTE   Ds4
 BYTE   W06
 BYTE   Cn4
 BYTE   W06
 BYTE   Ds3
 BYTE   W06
 BYTE   Ds4
 BYTE   W06
 BYTE   PEND 
// 011   ----------------------------------------
Label_4_015F5CE0:
 BYTE   N06  Cn4  v127
 BYTE   W06
 BYTE   Ds3
 BYTE   W06
 BYTE   Ds4
 BYTE   W06
 BYTE   Cn4
 BYTE   W06
 BYTE   Fn4
 BYTE   W06
 BYTE   Dn4
 BYTE   W06
 BYTE   Fn3
 BYTE   W06
 BYTE   Fn4
 BYTE   W06
 BYTE   Dn4
 BYTE   W06
 BYTE   Fn3
 BYTE   W06
 BYTE   Fn4
 BYTE   W06
 BYTE   Dn4
 BYTE   W06
 BYTE   Fn4
 BYTE   W06
 BYTE   Dn4
 BYTE   W06
 BYTE   Fn3
 BYTE   W06
 BYTE   Fn4
 BYTE   W06
 BYTE   PEND 
// 012   ----------------------------------------
Label_4_015F5D03:
 BYTE   N06  Dn4  v127
 BYTE   W06
 BYTE   Fn3
 BYTE   W06
 BYTE   Fn4
 BYTE   W06
 BYTE   Dn4
 BYTE   W06
 BYTE   Fn4
 BYTE   W06
 BYTE   Dn4
 BYTE   W06
 BYTE   Fn3
 BYTE   W06
 BYTE   Fn4
 BYTE   W06
 BYTE   Dn4
 BYTE   W06
 BYTE   Fn3
 BYTE   W06
 BYTE   Fn4
 BYTE   W06
 BYTE   Dn4
 BYTE   W06
 BYTE   Fn4
 BYTE   W06
 BYTE   Dn4
 BYTE   W06
 BYTE   Gs3
 BYTE   W06
 BYTE   Fn4
 BYTE   W06
 BYTE   PEND 
// 013   ----------------------------------------
Label_4_015F5D26:
 BYTE   N06  Dn4  v127
 BYTE   W06
 BYTE   Gs3
 BYTE   W06
 BYTE   Fn4
 BYTE   W06
 BYTE   Dn4
 BYTE   W06
 BYTE   En4
 BYTE   W06
 BYTE   Cn4
 BYTE   W06
 BYTE   Fn3
 BYTE   W06
 BYTE   En4
 BYTE   W06
 BYTE   Cn4
 BYTE   W06
 BYTE   Fn3
 BYTE   W06
 BYTE   En4
 BYTE   W06
 BYTE   Cn4
 BYTE   W06
 BYTE   En4
 BYTE   W06
 BYTE   Cn4
 BYTE   W06
 BYTE   Fn3
 BYTE   W06
 BYTE   En4
 BYTE   W06
 BYTE   PEND 
 BYTE   PATT
  POIN2 Label_4_015F5B73
 BYTE   PATT
  POIN2 Label_4_015F5B96
 BYTE   PATT
  POIN2 Label_4_015F5BB9
 BYTE   PATT
  POIN2 Label_4_015F5BDC
 BYTE   PATT
  POIN2 Label_4_015F5B73
 BYTE   PATT
  POIN2 Label_4_015F5B96
 BYTE   PATT
  POIN2 Label_4_015F5BB9
 BYTE   PATT
  POIN2 Label_4_015F5C0E
 BYTE   PATT
  POIN2 Label_4_015F5C31
 BYTE   PATT
  POIN2 Label_4_015F5C54
 BYTE   PATT
  POIN2 Label_4_015F5C77
 BYTE   PATT
  POIN2 Label_4_015F5C9A
 BYTE   PATT
  POIN2 Label_4_015F5CE0
// 014   ----------------------------------------
Label_4_015F5D8A:
 BYTE   N06  Dn4  v127
 BYTE   W06
 BYTE   Fn3
 BYTE   W06
 BYTE   Fn4
 BYTE   W06
 BYTE   Dn4
 BYTE   W06
 BYTE   Ds4
 BYTE   W06
 BYTE   Cn4
 BYTE   W06
 BYTE   Ds3
 BYTE   W06
 BYTE   Ds4
 BYTE   W06
 BYTE   Cn4
 BYTE   W06
 BYTE   Ds3
 BYTE   W06
 BYTE   Ds4
 BYTE   W06
 BYTE   Cn4
 BYTE   W06
 BYTE   Ds4
 BYTE   W06
 BYTE   Cn4
 BYTE   W06
 BYTE   Ds3
 BYTE   W06
 BYTE   Ds4
 BYTE   W06
 BYTE   PEND 
// 015   ----------------------------------------
Label_4_015F5DAD:
 BYTE   N06  Cn4  v127
 BYTE   W06
 BYTE   Ds3
 BYTE   W06
 BYTE   Ds4
 BYTE   W06
 BYTE   Cn4
 BYTE   W06
 BYTE   Dn4
 BYTE   W06
 BYTE   Bn3
 BYTE   W06
 BYTE   En3
 BYTE   W06
 BYTE   Dn4
 BYTE   W06
 BYTE   Bn3
 BYTE   W06
 BYTE   En3
 BYTE   W06
 BYTE   Dn4
 BYTE   W06
 BYTE   Bn3
 BYTE   W06
 BYTE   Dn4
 BYTE   W06
 BYTE   Bn3
 BYTE   W06
 BYTE   En3
 BYTE   W06
 BYTE   Dn4
 BYTE   W06
 BYTE   PEND 
// 016   ----------------------------------------
Label_4_015F5DD0:
 BYTE   N06  Bn3  v127
 BYTE   W06
 BYTE   En3
 BYTE   W06
 BYTE   Dn4
 BYTE   W06
 BYTE   N05  Bn3
 BYTE   W05
 BYTE   W01
 BYTE   N06  Gn3
 BYTE   W06
 BYTE   Ds3
 BYTE   W06
 BYTE   Gs2
 BYTE   W06
 BYTE   Gn3
 BYTE   W06
 BYTE   Ds3
 BYTE   W06
 BYTE   Gs2
 BYTE   W06
 BYTE   Gn3
 BYTE   W06
 BYTE   Ds3
 BYTE   W06
 BYTE   Gn3
 BYTE   W06
 BYTE   Ds3
 BYTE   W06
 BYTE   Gs2
 BYTE   W06
 BYTE   Gn3
 BYTE   W06
 BYTE   PEND 
// 017   ----------------------------------------
Label_4_015F5DF6:
 BYTE   N06  Ds3  v127
 BYTE   W06
 BYTE   Gs2
 BYTE   W06
 BYTE   Gn3
 BYTE   W06
 BYTE   Ds3
 BYTE   W06
 BYTE   Fn3
 BYTE   W06
 BYTE   Dn3
 BYTE   W06
 BYTE   Fn2
 BYTE   W06
 BYTE   Fn3
 BYTE   W06
 BYTE   Dn3
 BYTE   W06
 BYTE   Fn2
 BYTE   W06
 BYTE   Fn3
 BYTE   W06
 BYTE   Dn3
 BYTE   W06
 BYTE   Fn3
 BYTE   W06
 BYTE   Dn3
 BYTE   W06
 BYTE   Fn2
 BYTE   W06
 BYTE   Fn3
 BYTE   W06
 BYTE   PEND 
// 018   ----------------------------------------
Label_4_015F5E19:
 BYTE   N06  Dn3  v127
 BYTE   W06
 BYTE   Fn2
 BYTE   W06
 BYTE   Fn3
 BYTE   W06
 BYTE   Dn3
 BYTE   W06
 BYTE   Gn3
 BYTE   W06
 BYTE   Dn3
 BYTE   W06
 BYTE   Gn2
 BYTE   W06
 BYTE   Gn3
 BYTE   W06
 BYTE   Dn3
 BYTE   W06
 BYTE   Gn2
 BYTE   W06
 BYTE   Gn3
 BYTE   W06
 BYTE   Dn3
 BYTE   W06
 BYTE   Gn3
 BYTE   W06
 BYTE   Dn3
 BYTE   W06
 BYTE   Gn2
 BYTE   W06
 BYTE   Gn3
 BYTE   W06
 BYTE   PEND 
// 019   ----------------------------------------
Label_4_015F5E3C:
 BYTE   N06  Dn3  v127
 BYTE   W06
 BYTE   Gn2
 BYTE   W06
 BYTE   Gn3
 BYTE   W06
 BYTE   Dn3
 BYTE   W06
 BYTE   Gn3
 BYTE   W06
 BYTE   En3
 BYTE   W06
 BYTE   An2
 BYTE   W06
 BYTE   Gn3
 BYTE   W06
 BYTE   En3
 BYTE   W06
 BYTE   An2
 BYTE   W06
 BYTE   Gn3
 BYTE   W06
 BYTE   En3
 BYTE   W06
 BYTE   Gn3
 BYTE   W06
 BYTE   En3
 BYTE   W06
 BYTE   An2
 BYTE   W06
 BYTE   Gn3
 BYTE   W06
 BYTE   PEND 
// 020   ----------------------------------------
Label_4_015F5E5F:
 BYTE   N06  En3  v127
 BYTE   W06
 BYTE   An2
 BYTE   W06
 BYTE   Gn3
 BYTE   W06
 BYTE   En3
 BYTE   W06
 BYTE   An3
 BYTE   W06
 BYTE   Fn3
 BYTE   W06
 BYTE   Fn2
 BYTE   W06
 BYTE   An3
 BYTE   W06
 BYTE   Fn3
 BYTE   W06
 BYTE   Fn2
 BYTE   W06
 BYTE   An3
 BYTE   W06
 BYTE   Fn3
 BYTE   W06
 BYTE   An3
 BYTE   W06
 BYTE   Fn3
 BYTE   W06
 BYTE   Fn2
 BYTE   W06
 BYTE   An3
 BYTE   W06
 BYTE   PEND 
// 021   ----------------------------------------
Label_4_015F5E82:
 BYTE   N06  Fn3  v127
 BYTE   W06
 BYTE   Fn2
 BYTE   W06
 BYTE   An3
 BYTE   W06
 BYTE   Fn3
 BYTE   W06
 BYTE   An3
 BYTE   W06
 BYTE   Fn3
 BYTE   W06
 BYTE   Fn2
 BYTE   W06
 BYTE   An3
 BYTE   W06
 BYTE   Fn3
 BYTE   W06
 BYTE   Fn2
 BYTE   W06
 BYTE   An3
 BYTE   W06
 BYTE   Fn3
 BYTE   W06
 BYTE   An3
 BYTE   W06
 BYTE   Fn3
 BYTE   W06
 BYTE   Fn2
 BYTE   W06
 BYTE   An3
 BYTE   W06
 BYTE   PEND 
// 022   ----------------------------------------
Label_4_015F5EA5:
 BYTE   N06  Fn3  v127
 BYTE   W06
 BYTE   Fn2
 BYTE   W06
 BYTE   An3
 BYTE   W06
 BYTE   Fn3
 BYTE   W06
 BYTE   Bn3
 BYTE   W06
 BYTE   Gn3
 BYTE   W06
 BYTE   Gn2
 BYTE   W06
 BYTE   Bn3
 BYTE   W06
 BYTE   Gn3
 BYTE   W06
 BYTE   Gn2
 BYTE   W06
 BYTE   Bn3
 BYTE   W06
 BYTE   Gn3
 BYTE   W06
 BYTE   Bn3
 BYTE   W06
 BYTE   Gn3
 BYTE   W06
 BYTE   Gn2
 BYTE   W06
 BYTE   Bn3
 BYTE   W06
 BYTE   PEND 
// 023   ----------------------------------------
Label_4_015F5EC8:
 BYTE   N06  Gn3  v127
 BYTE   W06
 BYTE   Gn2
 BYTE   W06
 BYTE   Bn3
 BYTE   W06
 BYTE   Gn3
 BYTE   W06
 BYTE   Cs4
 BYTE   W06
 BYTE   An3
 BYTE   W06
 BYTE   An2
 BYTE   W06
 BYTE   Cs4
 BYTE   W06
 BYTE   An3
 BYTE   W06
 BYTE   An2
 BYTE   W06
 BYTE   Cs4
 BYTE   W06
 BYTE   An3
 BYTE   W06
 BYTE   En4
 BYTE   W06
 BYTE   Cs4
 BYTE   W06
 BYTE   An2
 BYTE   W06
 BYTE   En4
 BYTE   W06
 BYTE   PEND 
// 024   ----------------------------------------
Label_4_015F5EEB:
 BYTE   N06  Cs4  v127
 BYTE   W06
 BYTE   An2
 BYTE   W06
 BYTE   En4
 BYTE   W06
 BYTE   Cs4
 BYTE   W05
 BYTE   W01
 BYTE   N04  An3
 BYTE   W06
 BYTE   Fn3
 BYTE   W06
 BYTE   Fn2
 BYTE   W06
 BYTE   An3
 BYTE   W06
 BYTE   Fn3
 BYTE   W06
 BYTE   Fn2
 BYTE   W06
 BYTE   An3
 BYTE   W06
 BYTE   Fn3
 BYTE   W06
 BYTE   An3
 BYTE   W06
 BYTE   Fn3
 BYTE   W06
 BYTE   Fn2
 BYTE   W06
 BYTE   An3
 BYTE   W06
 BYTE   PEND 
// 025   ----------------------------------------
Label_4_015F5F10:
 BYTE   N04  Fn3  v127
 BYTE   W06
 BYTE   Fn2
 BYTE   W06
 BYTE   An3
 BYTE   W06
 BYTE   Fn3
 BYTE   W06
 BYTE   An3
 BYTE   W06
 BYTE   Fn3
 BYTE   W06
 BYTE   Fn2
 BYTE   W06
 BYTE   An3
 BYTE   W06
 BYTE   Fn3
 BYTE   W06
 BYTE   Fn2
 BYTE   W06
 BYTE   An3
 BYTE   W06
 BYTE   Fn3
 BYTE   W06
 BYTE   An3
 BYTE   W06
 BYTE   Fn3
 BYTE   W06
 BYTE   Fn2
 BYTE   W06
 BYTE   An3
 BYTE   W06
 BYTE   PEND 
// 026   ----------------------------------------
Label_4_015F5F33:
 BYTE   N04  Fn3  v127
 BYTE   W06
 BYTE   Fn2
 BYTE   W06
 BYTE   An3
 BYTE   W06
 BYTE   Fn3
 BYTE   W06
 BYTE   Gn3
 BYTE   W06
 BYTE   En3
 BYTE   W06
 BYTE   En2
 BYTE   W06
 BYTE   Gn3
 BYTE   W06
 BYTE   En3
 BYTE   W06
 BYTE   En2
 BYTE   W06
 BYTE   Gn3
 BYTE   W06
 BYTE   En3
 BYTE   W06
 BYTE   Gn3
 BYTE   W06
 BYTE   En3
 BYTE   W06
 BYTE   En2
 BYTE   W06
 BYTE   Gn3
 BYTE   W06
 BYTE   PEND 
// 027   ----------------------------------------
Label_4_015F5F56:
 BYTE   N04  En3  v127
 BYTE   W06
 BYTE   En2
 BYTE   W06
 BYTE   Gn3
 BYTE   W06
 BYTE   En3
 BYTE   W06
 BYTE   Gn3
 BYTE   W06
 BYTE   En3
 BYTE   W06
 BYTE   An2
 BYTE   W06
 BYTE   Gn3
 BYTE   W06
 BYTE   En3
 BYTE   W06
 BYTE   An2
 BYTE   W06
 BYTE   Gn3
 BYTE   W06
 BYTE   En3
 BYTE   W06
 BYTE   Gn3
 BYTE   W06
 BYTE   En3
 BYTE   W06
 BYTE   An2
 BYTE   W06
 BYTE   Gn3
 BYTE   W06
 BYTE   PEND 
// 028   ----------------------------------------
Label_4_015F5F79:
 BYTE   N04  En3  v127
 BYTE   W06
 BYTE   An2
 BYTE   W06
 BYTE   Gn3
 BYTE   W06
 BYTE   En3
 BYTE   W06
 BYTE   An3
 BYTE   W06
 BYTE   Fn3
 BYTE   W06
 BYTE   An2
 BYTE   W06
 BYTE   An3
 BYTE   W06
 BYTE   Fn3
 BYTE   W06
 BYTE   An2
 BYTE   W06
 BYTE   An3
 BYTE   W06
 BYTE   Fn3
 BYTE   W06
 BYTE   An3
 BYTE   W06
 BYTE   Fn3
 BYTE   W06
 BYTE   An2
 BYTE   W06
 BYTE   An3
 BYTE   W06
 BYTE   PEND 
// 029   ----------------------------------------
Label_4_015F5F9C:
 BYTE   N04  Fn3  v127
 BYTE   W06
 BYTE   An2
 BYTE   W06
 BYTE   An3
 BYTE   W06
 BYTE   Fn3
 BYTE   W06
 BYTE   Bn3
 BYTE   W06
 BYTE   Gn3
 BYTE   W06
 BYTE   Gn2
 BYTE   W06
 BYTE   Bn3
 BYTE   W06
 BYTE   Gn3
 BYTE   W06
 BYTE   Gn2
 BYTE   W06
 BYTE   Bn3
 BYTE   W06
 BYTE   Gn3
 BYTE   W06
 BYTE   Bn3
 BYTE   W06
 BYTE   Gn3
 BYTE   W06
 BYTE   Gn2
 BYTE   W06
 BYTE   Bn3
 BYTE   W06
 BYTE   PEND 
// 030   ----------------------------------------
Label_4_015F5FBF:
 BYTE   N04  Gn3  v127
 BYTE   W06
 BYTE   Gn2
 BYTE   W06
 BYTE   Bn3
 BYTE   W06
 BYTE   Gn3
 BYTE   W06
 BYTE   Cn4
 BYTE   W06
 BYTE   An3
 BYTE   W06
 BYTE   An2
 BYTE   W06
 BYTE   Cn4
 BYTE   W06
 BYTE   An3
 BYTE   W06
 BYTE   An2
 BYTE   W06
 BYTE   Cn4
 BYTE   W06
 BYTE   An3
 BYTE   W06
 BYTE   Cn4
 BYTE   W06
 BYTE   An3
 BYTE   W06
 BYTE   An2
 BYTE   W06
 BYTE   Cn4
 BYTE   W06
 BYTE   PEND 
// 031   ----------------------------------------
Label_4_015F5FE2:
 BYTE   N04  An3  v127
 BYTE   W06
 BYTE   An2
 BYTE   W06
 BYTE   Cn4
 BYTE   W06
 BYTE   An3
 BYTE   W06
 BYTE   Cn4
 BYTE   W06
 BYTE   An3
 BYTE   W06
 BYTE   An2
 BYTE   W06
 BYTE   Cn4
 BYTE   W06
 BYTE   An3
 BYTE   W06
 BYTE   An2
 BYTE   W06
 BYTE   Cn4
 BYTE   W06
 BYTE   An3
 BYTE   W06
 BYTE   Cn4
 BYTE   W06
 BYTE   An3
 BYTE   W06
 BYTE   Gn2
 BYTE   W06
 BYTE   Cn4
 BYTE   W06
 BYTE   PEND 
// 032   ----------------------------------------
Label_4_015F6005:
 BYTE   N04  An3  v127
 BYTE   W06
 BYTE   Gn2
 BYTE   W06
 BYTE   Cn4
 BYTE   W06
 BYTE   An3
 BYTE   W06
 BYTE   Cn4
 BYTE   W06
 BYTE   Gn3
 BYTE   W06
 BYTE   Gs2
 BYTE   W06
 BYTE   Cn4
 BYTE   W06
 BYTE   Gn3
 BYTE   W06
 BYTE   Gs2
 BYTE   W06
 BYTE   Cn4
 BYTE   W06
 BYTE   Gn3
 BYTE   W06
 BYTE   Cn4
 BYTE   W06
 BYTE   Gn3
 BYTE   W06
 BYTE   Gs2
 BYTE   W06
 BYTE   Cn4
 BYTE   W06
 BYTE   PEND 
// 033   ----------------------------------------
Label_4_015F6028:
 BYTE   N04  Gn3  v127
 BYTE   W06
 BYTE   Gs2
 BYTE   W06
 BYTE   Cn4
 BYTE   W06
 BYTE   Gn3
 BYTE   W06
 BYTE   Cn4
 BYTE   W06
 BYTE   Gn3
 BYTE   W06
 BYTE   As2
 BYTE   W06
 BYTE   Cn4
 BYTE   W06
 BYTE   Gn3
 BYTE   W06
 BYTE   As2
 BYTE   W06
 BYTE   Cn4
 BYTE   W06
 BYTE   Gn3
 BYTE   W06
 BYTE   Cn4
 BYTE   W06
 BYTE   Gn3
 BYTE   W06
 BYTE   As2
 BYTE   W06
 BYTE   Cn4
 BYTE   W06
 BYTE   PEND 
// 034   ----------------------------------------
Label_4_015F604B:
 BYTE   N04  Gn3  v127
 BYTE   W06
 BYTE   As2
 BYTE   W06
 BYTE   Cn4
 BYTE   W06
 BYTE   Gn3
 BYTE   W06
 BYTE   Bn3
 BYTE   W06
 BYTE   Gn3
 BYTE   W06
 BYTE   Gn2
 BYTE   W06
 BYTE   Bn3
 BYTE   W06
 BYTE   Gn3
 BYTE   W06
 BYTE   Gn2
 BYTE   W06
 BYTE   Bn3
 BYTE   W06
 BYTE   Gn3
 BYTE   W06
 BYTE   Bn3
 BYTE   W06
 BYTE   Gn3
 BYTE   W06
 BYTE   Gn2
 BYTE   W06
 BYTE   Bn3
 BYTE   W06
 BYTE   PEND 
// 035   ----------------------------------------
Label_4_015F606E:
 BYTE   N04  Gn3  v127
 BYTE   W06
 BYTE   Gn2
 BYTE   W06
 BYTE   Bn3
 BYTE   W06
 BYTE   Gn3
 BYTE   W06
 BYTE   Bn3
 BYTE   W06
 BYTE   Gn3
 BYTE   W06
 BYTE   Gn2
 BYTE   W06
 BYTE   Bn3
 BYTE   W06
 BYTE   Gn3
 BYTE   W06
 BYTE   Gn2
 BYTE   W06
 BYTE   Bn3
 BYTE   W06
 BYTE   Gn3
 BYTE   W06
 BYTE   Bn3
 BYTE   W06
 BYTE   Gn3
 BYTE   W06
 BYTE   Gn2
 BYTE   W06
 BYTE   Bn3
 BYTE   W06
 BYTE   PEND 
// 036   ----------------------------------------
 BYTE   Gn3
 BYTE   W06
 BYTE   Gn2
 BYTE   W06
 BYTE   Bn3
 BYTE   W06
 BYTE   Gn3
 BYTE   W05
 BYTE   W01
 BYTE   N06  En4
 BYTE   W06
 BYTE   Cn4
 BYTE   W06
 BYTE   Fn3
 BYTE   W06
 BYTE   En4
 BYTE   W06
 BYTE   Cn4
 BYTE   W06
 BYTE   Fn3
 BYTE   W06
 BYTE   En4
 BYTE   W06
 BYTE   Cn4
 BYTE   W06
 BYTE   En4
 BYTE   W06
 BYTE   Cn4
 BYTE   W06
 BYTE   Fn3
 BYTE   W06
 BYTE   En4
 BYTE   W06
 BYTE   PATT
  POIN2 Label_4_015F5B73
 BYTE   PATT
  POIN2 Label_4_015F5B96
 BYTE   PATT
  POIN2 Label_4_015F5BB9
 BYTE   PATT
  POIN2 Label_4_015F5BDC
 BYTE   PATT
  POIN2 Label_4_015F5B73
 BYTE   PATT
  POIN2 Label_4_015F5B96
 BYTE   PATT
  POIN2 Label_4_015F5BB9
 BYTE   PATT
  POIN2 Label_4_015F5C0E
 BYTE   PATT
  POIN2 Label_4_015F5C31
 BYTE   PATT
  POIN2 Label_4_015F5C54
 BYTE   PATT
  POIN2 Label_4_015F5C77
 BYTE   PATT
  POIN2 Label_4_015F5C9A
 BYTE   PATT
  POIN2 Label_4_015F5CBD
 BYTE   PATT
  POIN2 Label_4_015F5CE0
 BYTE   PATT
  POIN2 Label_4_015F5D03
 BYTE   PATT
  POIN2 Label_4_015F5D26
 BYTE   PATT
  POIN2 Label_4_015F5B73
 BYTE   PATT
  POIN2 Label_4_015F5B96
 BYTE   PATT
  POIN2 Label_4_015F5BB9
 BYTE   PATT
  POIN2 Label_4_015F5BDC
 BYTE   PATT
  POIN2 Label_4_015F5B73
 BYTE   PATT
  POIN2 Label_4_015F5B96
 BYTE   PATT
  POIN2 Label_4_015F5BB9
 BYTE   PATT
  POIN2 Label_4_015F5C0E
 BYTE   PATT
  POIN2 Label_4_015F5C31
 BYTE   PATT
  POIN2 Label_4_015F5C54
 BYTE   PATT
  POIN2 Label_4_015F5C77
 BYTE   PATT
  POIN2 Label_4_015F5C9A
 BYTE   PATT
  POIN2 Label_4_015F5CE0
 BYTE   PATT
  POIN2 Label_4_015F5D8A
 BYTE   PATT
  POIN2 Label_4_015F5DAD
 BYTE   PATT
  POIN2 Label_4_015F5DD0
 BYTE   PATT
  POIN2 Label_4_015F5DF6
 BYTE   PATT
  POIN2 Label_4_015F5E19
 BYTE   PATT
  POIN2 Label_4_015F5E3C
 BYTE   PATT
  POIN2 Label_4_015F5E5F
 BYTE   PATT
  POIN2 Label_4_015F5E82
 BYTE   PATT
  POIN2 Label_4_015F5EA5
 BYTE   PATT
  POIN2 Label_4_015F5EC8
 BYTE   PATT
  POIN2 Label_4_015F5EEB
 BYTE   PATT
  POIN2 Label_4_015F5F10
 BYTE   PATT
  POIN2 Label_4_015F5F33
 BYTE   PATT
  POIN2 Label_4_015F5F56
 BYTE   PATT
  POIN2 Label_4_015F5F79
 BYTE   PATT
  POIN2 Label_4_015F5F9C
 BYTE   PATT
  POIN2 Label_4_015F5FBF
 BYTE   PATT
  POIN2 Label_4_015F5FE2
 BYTE   PATT
  POIN2 Label_4_015F6005
 BYTE   PATT
  POIN2 Label_4_015F6028
 BYTE   PATT
  POIN2 Label_4_015F604B
 BYTE   PATT
  POIN2 Label_4_015F606E
// 037   ----------------------------------------
 BYTE   N04  Gn3  v127
 BYTE   W06
 BYTE   Gn2
 BYTE   W06
 BYTE   Bn3
 BYTE   W06
 BYTE   Gn3
 BYTE   W06
 BYTE   GoTo
  POIN2 Label_4_015F5B4E
// 038   ----------------------------------------
 BYTE   W10
 BYTE   FINE

//**************** Track 6 (Midi-Chn.5) ****************//

KirbyDreamLandRippleField1Pandan_006:
// 000   ----------------------------------------
 BYTE   KEYSH   KirbyDreamLandRippleField1Pandan_key+0
Label_5_015F61D6:
 BYTE   VOICE   4
 BYTE   MODT 0
 BYTE   CnM2
 BYTE   LFOS 0
 BYTE   Gs1
 BYTE   VOL   16*KirbyDreamLandRippleField1Pandan_mvl/mxv
 BYTE   PAN   c_v-54
 BYTE   W24
 BYTE   N06  Cn4  v127
 BYTE   W06
 BYTE   An3
 BYTE   W06
 BYTE   Cn3
 BYTE   W06
 BYTE   Cn4
 BYTE   W06
 BYTE   An3
 BYTE   W06
 BYTE   Cn3
 BYTE   W06
 BYTE   Cn4
 BYTE   W06
 BYTE   An3
 BYTE   W06
 BYTE   Cn4
 BYTE   W06
 BYTE   An3
 BYTE   W06
 BYTE   Cn3
 BYTE   W06
 BYTE   Cn4
 BYTE   W06
// 001   ----------------------------------------
Label_5_015F61FB:
 BYTE   N06  An3  v127
 BYTE   W06
 BYTE   Cn3
 BYTE   W06
 BYTE   Cn4
 BYTE   W06
 BYTE   An3
 BYTE   W06
 BYTE   Cn4
 BYTE   W06
 BYTE   An3
 BYTE   W06
 BYTE   Cn3
 BYTE   W06
 BYTE   Cn4
 BYTE   W06
 BYTE   An3
 BYTE   W06
 BYTE   Cn3
 BYTE   W06
 BYTE   Cn4
 BYTE   W06
 BYTE   An3
 BYTE   W06
 BYTE   Cn4
 BYTE   W06
 BYTE   An3
 BYTE   W06
 BYTE   Cn3
 BYTE   W06
 BYTE   Cn4
 BYTE   W06
 BYTE   PEND 
// 002   ----------------------------------------
Label_5_015F621E:
 BYTE   N06  An3  v127
 BYTE   W06
 BYTE   Cn3
 BYTE   W06
 BYTE   Cn4
 BYTE   W06
 BYTE   An3
 BYTE   W06
 BYTE   Bn3
 BYTE   W06
 BYTE   Gn3
 BYTE   W06
 BYTE   Bn2
 BYTE   W06
 BYTE   Bn3
 BYTE   W06
 BYTE   Gn3
 BYTE   W06
 BYTE   Bn2
 BYTE   W06
 BYTE   Bn3
 BYTE   W06
 BYTE   Gn3
 BYTE   W06
 BYTE   Bn3
 BYTE   W06
 BYTE   Gn3
 BYTE   W06
 BYTE   Bn2
 BYTE   W06
 BYTE   Bn3
 BYTE   W06
 BYTE   PEND 
// 003   ----------------------------------------
Label_5_015F6241:
 BYTE   N06  Gn3  v127
 BYTE   W06
 BYTE   Bn2
 BYTE   W06
 BYTE   Bn3
 BYTE   W06
 BYTE   Gn3
 BYTE   W06
 BYTE   Bn3
 BYTE   W06
 BYTE   Gn3
 BYTE   W06
 BYTE   Bn2
 BYTE   W06
 BYTE   Bn3
 BYTE   W06
 BYTE   Gn3
 BYTE   W06
 BYTE   Bn2
 BYTE   W06
 BYTE   Bn3
 BYTE   W06
 BYTE   Gn3
 BYTE   W06
 BYTE   Bn3
 BYTE   W06
 BYTE   Gn3
 BYTE   W06
 BYTE   Bn2
 BYTE   W06
 BYTE   Bn3
 BYTE   W06
 BYTE   PEND 
// 004   ----------------------------------------
Label_5_015F6264:
 BYTE   N06  Gn3  v127
 BYTE   W06
 BYTE   Bn2
 BYTE   W06
 BYTE   Bn3
 BYTE   W06
 BYTE   Gn3
 BYTE   W06
 BYTE   Cn4
 BYTE   W06
 BYTE   An3
 BYTE   W06
 BYTE   Cn3
 BYTE   W06
 BYTE   Cn4
 BYTE   W06
 BYTE   An3
 BYTE   W06
 BYTE   Cn3
 BYTE   W06
 BYTE   Cn4
 BYTE   W06
 BYTE   An3
 BYTE   W06
 BYTE   Cn4
 BYTE   W06
 BYTE   An3
 BYTE   W06
 BYTE   Cn3
 BYTE   W06
 BYTE   Cn4
 BYTE   W06
 BYTE   PEND 
 BYTE   PATT
  POIN2 Label_5_015F61FB
 BYTE   PATT
  POIN2 Label_5_015F621E
 BYTE   PATT
  POIN2 Label_5_015F6241
// 005   ----------------------------------------
Label_5_015F6296:
 BYTE   N06  Gn3  v127
 BYTE   W06
 BYTE   Bn2
 BYTE   W06
 BYTE   Bn3
 BYTE   W06
 BYTE   Gn3
 BYTE   W06
 BYTE   Cn4
 BYTE   W06
 BYTE   An3
 BYTE   W06
 BYTE   Dn3
 BYTE   W06
 BYTE   Cn4
 BYTE   W06
 BYTE   An3
 BYTE   W06
 BYTE   Dn3
 BYTE   W06
 BYTE   Cn4
 BYTE   W06
 BYTE   An3
 BYTE   W06
 BYTE   Cn4
 BYTE   W06
 BYTE   An3
 BYTE   W06
 BYTE   Dn3
 BYTE   W06
 BYTE   Cn4
 BYTE   W06
 BYTE   PEND 
// 006   ----------------------------------------
Label_5_015F62B9:
 BYTE   N06  An3  v127
 BYTE   W06
 BYTE   Dn3
 BYTE   W06
 BYTE   Cn4
 BYTE   W06
 BYTE   An3
 BYTE   W06
 BYTE   Cn4
 BYTE   W06
 BYTE   An3
 BYTE   W06
 BYTE   Dn3
 BYTE   W06
 BYTE   Cn4
 BYTE   W06
 BYTE   An3
 BYTE   W06
 BYTE   Dn3
 BYTE   W06
 BYTE   Cn4
 BYTE   W06
 BYTE   An3
 BYTE   W06
 BYTE   Cn4
 BYTE   W06
 BYTE   An3
 BYTE   W06
 BYTE   Dn3
 BYTE   W06
 BYTE   Cn4
 BYTE   W06
 BYTE   PEND 
// 007   ----------------------------------------
Label_5_015F62DC:
 BYTE   N06  An3  v127
 BYTE   W06
 BYTE   Dn3
 BYTE   W06
 BYTE   Cn4
 BYTE   W06
 BYTE   An3
 BYTE   W06
 BYTE   Bn3
 BYTE   W06
 BYTE   Gn3
 BYTE   W06
 BYTE   Cn3
 BYTE   W06
 BYTE   Bn3
 BYTE   W06
 BYTE   Gn3
 BYTE   W06
 BYTE   Cn3
 BYTE   W06
 BYTE   Bn3
 BYTE   W06
 BYTE   Gn3
 BYTE   W06
 BYTE   Bn3
 BYTE   W06
 BYTE   Gn3
 BYTE   W06
 BYTE   Cn3
 BYTE   W06
 BYTE   Bn3
 BYTE   W06
 BYTE   PEND 
// 008   ----------------------------------------
Label_5_015F62FF:
 BYTE   N06  Gn3  v127
 BYTE   W06
 BYTE   Cn3
 BYTE   W06
 BYTE   Bn3
 BYTE   W06
 BYTE   Gn3
 BYTE   W06
 BYTE   Bn3
 BYTE   W06
 BYTE   Gn3
 BYTE   W06
 BYTE   Cn3
 BYTE   W06
 BYTE   Bn3
 BYTE   W06
 BYTE   Gn3
 BYTE   W06
 BYTE   Cn3
 BYTE   W06
 BYTE   Bn3
 BYTE   W06
 BYTE   Gn3
 BYTE   W06
 BYTE   Bn3
 BYTE   W06
 BYTE   Gn3
 BYTE   W06
 BYTE   Cn3
 BYTE   W06
 BYTE   Bn3
 BYTE   W06
 BYTE   PEND 
// 009   ----------------------------------------
Label_5_015F6322:
 BYTE   N06  Gn3  v127
 BYTE   W06
 BYTE   Cn3
 BYTE   W06
 BYTE   Bn3
 BYTE   W06
 BYTE   Gn3
 BYTE   W06
 BYTE   Cn4
 BYTE   W06
 BYTE   Gn3
 BYTE   W06
 BYTE   Cn3
 BYTE   W06
 BYTE   Cn4
 BYTE   W06
 BYTE   Gn3
 BYTE   W06
 BYTE   Cn3
 BYTE   W06
 BYTE   Cn4
 BYTE   W06
 BYTE   Gn3
 BYTE   W06
 BYTE   Cn4
 BYTE   W06
 BYTE   Gn3
 BYTE   W06
 BYTE   Cn3
 BYTE   W06
 BYTE   Cn4
 BYTE   W06
 BYTE   PEND 
// 010   ----------------------------------------
Label_5_015F6345:
 BYTE   N06  Gn3  v127
 BYTE   W06
 BYTE   Cn3
 BYTE   W06
 BYTE   Cn4
 BYTE   W06
 BYTE   Gn3
 BYTE   W06
 BYTE   Cn4
 BYTE   W06
 BYTE   Gn3
 BYTE   W06
 BYTE   Cn3
 BYTE   W06
 BYTE   Cn4
 BYTE   W06
 BYTE   Gn3
 BYTE   W06
 BYTE   Cn3
 BYTE   W06
 BYTE   Cn4
 BYTE   W06
 BYTE   Gn3
 BYTE   W06
 BYTE   Cn4
 BYTE   W06
 BYTE   Gn3
 BYTE   W06
 BYTE   Cn3
 BYTE   W06
 BYTE   Cn4
 BYTE   W06
 BYTE   PEND 
// 011   ----------------------------------------
Label_5_015F6368:
 BYTE   N06  Gn3  v127
 BYTE   W06
 BYTE   Cn3
 BYTE   W06
 BYTE   Cn4
 BYTE   W06
 BYTE   Gn3
 BYTE   W06
 BYTE   Cn4
 BYTE   W06
 BYTE   An3
 BYTE   W06
 BYTE   Dn3
 BYTE   W06
 BYTE   Cn4
 BYTE   W06
 BYTE   An3
 BYTE   W06
 BYTE   Dn3
 BYTE   W06
 BYTE   Cn4
 BYTE   W06
 BYTE   An3
 BYTE   W06
 BYTE   Cn4
 BYTE   W06
 BYTE   An3
 BYTE   W06
 BYTE   Dn3
 BYTE   W06
 BYTE   Cn4
 BYTE   W06
 BYTE   PEND 
// 012   ----------------------------------------
Label_5_015F638B:
 BYTE   N06  An3  v127
 BYTE   W06
 BYTE   Dn3
 BYTE   W06
 BYTE   Cn4
 BYTE   W06
 BYTE   An3
 BYTE   W06
 BYTE   Cn4
 BYTE   W06
 BYTE   An3
 BYTE   W06
 BYTE   Dn3
 BYTE   W06
 BYTE   Cn4
 BYTE   W06
 BYTE   An3
 BYTE   W06
 BYTE   Dn3
 BYTE   W06
 BYTE   Cn4
 BYTE   W06
 BYTE   An3
 BYTE   W06
 BYTE   Dn4
 BYTE   W06
 BYTE   Bn3
 BYTE   W06
 BYTE   Fn3
 BYTE   W06
 BYTE   Dn4
 BYTE   W06
 BYTE   PEND 
// 013   ----------------------------------------
Label_5_015F63AE:
 BYTE   N06  Bn3  v127
 BYTE   W06
 BYTE   Fn3
 BYTE   W06
 BYTE   Dn4
 BYTE   W06
 BYTE   Gs3
 BYTE   W06
 BYTE   Cn4
 BYTE   W06
 BYTE   An3
 BYTE   W06
 BYTE   Cn3
 BYTE   W06
 BYTE   Cn4
 BYTE   W06
 BYTE   An3
 BYTE   W06
 BYTE   Cn3
 BYTE   W06
 BYTE   Cn4
 BYTE   W06
 BYTE   An3
 BYTE   W06
 BYTE   Cn4
 BYTE   W06
 BYTE   An3
 BYTE   W06
 BYTE   Cn3
 BYTE   W06
 BYTE   Cn4
 BYTE   W06
 BYTE   PEND 
 BYTE   PATT
  POIN2 Label_5_015F61FB
 BYTE   PATT
  POIN2 Label_5_015F621E
 BYTE   PATT
  POIN2 Label_5_015F6241
 BYTE   PATT
  POIN2 Label_5_015F6264
 BYTE   PATT
  POIN2 Label_5_015F61FB
 BYTE   PATT
  POIN2 Label_5_015F621E
 BYTE   PATT
  POIN2 Label_5_015F6241
 BYTE   PATT
  POIN2 Label_5_015F6296
 BYTE   PATT
  POIN2 Label_5_015F62B9
 BYTE   PATT
  POIN2 Label_5_015F62DC
 BYTE   PATT
  POIN2 Label_5_015F62FF
 BYTE   PATT
  POIN2 Label_5_015F6322
 BYTE   PATT
  POIN2 Label_5_015F6368
// 014   ----------------------------------------
Label_5_015F6412:
 BYTE   N06  An3  v127
 BYTE   W06
 BYTE   Dn3
 BYTE   W06
 BYTE   Cn4
 BYTE   W06
 BYTE   An3
 BYTE   W06
 BYTE   Cn4
 BYTE   W06
 BYTE   Gn3
 BYTE   W06
 BYTE   Cn3
 BYTE   W06
 BYTE   Cn4
 BYTE   W06
 BYTE   Gn3
 BYTE   W06
 BYTE   Cn3
 BYTE   W06
 BYTE   Cn4
 BYTE   W06
 BYTE   Gn3
 BYTE   W06
 BYTE   Cn4
 BYTE   W06
 BYTE   Gn3
 BYTE   W06
 BYTE   Cn3
 BYTE   W06
 BYTE   Cn4
 BYTE   W06
 BYTE   PEND 
// 015   ----------------------------------------
Label_5_015F6435:
 BYTE   N06  Gn3  v127
 BYTE   W06
 BYTE   Cn3
 BYTE   W06
 BYTE   Cn4
 BYTE   W06
 BYTE   Gn3
 BYTE   W06
 BYTE   Bn3
 BYTE   W06
 BYTE   Gn3
 BYTE   W06
 BYTE   Cn3
 BYTE   W06
 BYTE   Bn3
 BYTE   W06
 BYTE   Gn3
 BYTE   W06
 BYTE   Cn3
 BYTE   W06
 BYTE   Bn3
 BYTE   W06
 BYTE   Gn3
 BYTE   W06
 BYTE   Bn3
 BYTE   W06
 BYTE   Gn3
 BYTE   W06
 BYTE   Cn3
 BYTE   W06
 BYTE   Bn3
 BYTE   W06
 BYTE   PEND 
// 016   ----------------------------------------
Label_5_015F6458:
 BYTE   N06  Gn3  v127
 BYTE   W06
 BYTE   Cn3
 BYTE   W06
 BYTE   Bn3
 BYTE   W06
 BYTE   N05  Gn3
 BYTE   W05
 BYTE   W01
 BYTE   N06  Ds3
 BYTE   W06
 BYTE   Cn3
 BYTE   W06
 BYTE   Ds2
 BYTE   W06
 BYTE   Ds3
 BYTE   W06
 BYTE   Cn3
 BYTE   W06
 BYTE   Ds2
 BYTE   W06
 BYTE   Ds3
 BYTE   W06
 BYTE   Cn3
 BYTE   W06
 BYTE   Ds3
 BYTE   W06
 BYTE   Cn3
 BYTE   W06
 BYTE   Ds2
 BYTE   W06
 BYTE   Ds3
 BYTE   W06
 BYTE   PEND 
// 017   ----------------------------------------
Label_5_015F647E:
 BYTE   N06  Cn3  v127
 BYTE   W06
 BYTE   Ds2
 BYTE   W06
 BYTE   Ds3
 BYTE   W06
 BYTE   Cn3
 BYTE   W06
 BYTE   Dn3
 BYTE   W06
 BYTE   As2
 BYTE   W06
 BYTE   Dn2
 BYTE   W06
 BYTE   Dn3
 BYTE   W06
 BYTE   As2
 BYTE   W06
 BYTE   Dn2
 BYTE   W06
 BYTE   Dn3
 BYTE   W06
 BYTE   As2
 BYTE   W06
 BYTE   Dn3
 BYTE   W06
 BYTE   As2
 BYTE   W06
 BYTE   Dn2
 BYTE   W06
 BYTE   Dn3
 BYTE   W06
 BYTE   PEND 
// 018   ----------------------------------------
Label_5_015F64A1:
 BYTE   N06  As2  v127
 BYTE   W06
 BYTE   Dn2
 BYTE   W06
 BYTE   Dn3
 BYTE   W06
 BYTE   As2
 BYTE   W06
 BYTE   Dn3
 BYTE   W06
 BYTE   Bn2
 BYTE   W06
 BYTE   En2
 BYTE   W06
 BYTE   Dn3
 BYTE   W06
 BYTE   Bn2
 BYTE   W06
 BYTE   En2
 BYTE   W06
 BYTE   Dn3
 BYTE   W06
 BYTE   Bn2
 BYTE   W06
 BYTE   Dn3
 BYTE   W06
 BYTE   Bn2
 BYTE   W06
 BYTE   En2
 BYTE   W06
 BYTE   Dn3
 BYTE   W06
 BYTE   PEND 
// 019   ----------------------------------------
Label_5_015F64C4:
 BYTE   N06  Bn2  v127
 BYTE   W06
 BYTE   En2
 BYTE   W06
 BYTE   Dn3
 BYTE   W06
 BYTE   Bn2
 BYTE   W06
 BYTE   En3
 BYTE   W06
 BYTE   Cn3
 BYTE   W06
 BYTE   En2
 BYTE   W06
 BYTE   En3
 BYTE   W06
 BYTE   Cn3
 BYTE   W06
 BYTE   En2
 BYTE   W06
 BYTE   En3
 BYTE   W06
 BYTE   Cn3
 BYTE   W06
 BYTE   En3
 BYTE   W06
 BYTE   Cn3
 BYTE   W06
 BYTE   En2
 BYTE   W06
 BYTE   En3
 BYTE   W06
 BYTE   PEND 
// 020   ----------------------------------------
Label_5_015F64E7:
 BYTE   N06  Cn3  v127
 BYTE   W06
 BYTE   En2
 BYTE   W06
 BYTE   En3
 BYTE   W06
 BYTE   Cn3
 BYTE   W06
 BYTE   En3
 BYTE   W06
 BYTE   Cn3
 BYTE   W06
 BYTE   Cn2
 BYTE   W06
 BYTE   En3
 BYTE   W06
 BYTE   Cn3
 BYTE   W06
 BYTE   Cn2
 BYTE   W06
 BYTE   En3
 BYTE   W06
 BYTE   Cn3
 BYTE   W06
 BYTE   En3
 BYTE   W06
 BYTE   Cn3
 BYTE   W06
 BYTE   Cn2
 BYTE   W06
 BYTE   En3
 BYTE   W06
 BYTE   PEND 
// 021   ----------------------------------------
Label_5_015F650A:
 BYTE   N06  Cn3  v127
 BYTE   W06
 BYTE   Cn2
 BYTE   W06
 BYTE   En3
 BYTE   W06
 BYTE   Cn3
 BYTE   W06
 BYTE   Dn3
 BYTE   W06
 BYTE   Bn2
 BYTE   W06
 BYTE   Cn2
 BYTE   W06
 BYTE   Dn3
 BYTE   W06
 BYTE   Bn2
 BYTE   W06
 BYTE   Cn2
 BYTE   W06
 BYTE   Dn3
 BYTE   W06
 BYTE   Bn2
 BYTE   W06
 BYTE   Dn3
 BYTE   W06
 BYTE   Bn2
 BYTE   W06
 BYTE   Cn2
 BYTE   W06
 BYTE   Dn3
 BYTE   W06
 BYTE   PEND 
// 022   ----------------------------------------
Label_5_015F652D:
 BYTE   N06  Bn2  v127
 BYTE   W06
 BYTE   Cn2
 BYTE   W06
 BYTE   Dn3
 BYTE   W06
 BYTE   Bn2
 BYTE   W06
 BYTE   En3
 BYTE   W06
 BYTE   Dn3
 BYTE   W06
 BYTE   En2
 BYTE   W06
 BYTE   En3
 BYTE   W06
 BYTE   Dn3
 BYTE   W06
 BYTE   En2
 BYTE   W06
 BYTE   En3
 BYTE   W06
 BYTE   Dn3
 BYTE   W06
 BYTE   En3
 BYTE   W06
 BYTE   Dn3
 BYTE   W06
 BYTE   En2
 BYTE   W06
 BYTE   En3
 BYTE   W06
 BYTE   PEND 
// 023   ----------------------------------------
Label_5_015F6550:
 BYTE   N06  Dn3  v127
 BYTE   W06
 BYTE   En2
 BYTE   W06
 BYTE   En3
 BYTE   W06
 BYTE   Dn3
 BYTE   W06
 BYTE   Gn3
 BYTE   W06
 BYTE   En3
 BYTE   W06
 BYTE   En2
 BYTE   W06
 BYTE   Gn3
 BYTE   W06
 BYTE   En3
 BYTE   W06
 BYTE   En2
 BYTE   W06
 BYTE   Gn3
 BYTE   W06
 BYTE   En3
 BYTE   W06
 BYTE   Cs4
 BYTE   W06
 BYTE   Gn3
 BYTE   W06
 BYTE   En2
 BYTE   W06
 BYTE   Cs4
 BYTE   W06
 BYTE   PEND 
// 024   ----------------------------------------
Label_5_015F6573:
 BYTE   N06  Gn3  v127
 BYTE   W06
 BYTE   En2
 BYTE   W06
 BYTE   Cs4
 BYTE   W06
 BYTE   Gn3
 BYTE   W05
 BYTE   W01
 BYTE   N04  En3
 BYTE   W06
 BYTE   Cn3
 BYTE   W06
 BYTE   Cn2
 BYTE   W06
 BYTE   En3
 BYTE   W06
 BYTE   Cn3
 BYTE   W06
 BYTE   Cn2
 BYTE   W06
 BYTE   En3
 BYTE   W06
 BYTE   Cn3
 BYTE   W06
 BYTE   En3
 BYTE   W06
 BYTE   Cn3
 BYTE   W06
 BYTE   Cn2
 BYTE   W06
 BYTE   En3
 BYTE   W06
 BYTE   PEND 
// 025   ----------------------------------------
Label_5_015F6598:
 BYTE   N04  Cn3  v127
 BYTE   W06
 BYTE   Cn2
 BYTE   W06
 BYTE   En3
 BYTE   W06
 BYTE   Cn3
 BYTE   W06
 BYTE   Dn3
 BYTE   W06
 BYTE   Bn2
 BYTE   W06
 BYTE   Cn2
 BYTE   W06
 BYTE   Dn3
 BYTE   W06
 BYTE   Bn2
 BYTE   W06
 BYTE   Cn2
 BYTE   W06
 BYTE   Dn3
 BYTE   W06
 BYTE   Bn2
 BYTE   W06
 BYTE   Dn3
 BYTE   W06
 BYTE   Bn2
 BYTE   W06
 BYTE   Cn2
 BYTE   W06
 BYTE   Dn3
 BYTE   W06
 BYTE   PEND 
// 026   ----------------------------------------
Label_5_015F65BB:
 BYTE   N04  Bn2  v127
 BYTE   W06
 BYTE   Cn2
 BYTE   W06
 BYTE   Dn3
 BYTE   W06
 BYTE   Bn2
 BYTE   W06
 BYTE   Dn3
 BYTE   W06
 BYTE   Bn2
 BYTE   W06
 BYTE   Bn1
 BYTE   W06
 BYTE   Dn3
 BYTE   W06
 BYTE   Bn2
 BYTE   W06
 BYTE   Bn1
 BYTE   W06
 BYTE   Dn3
 BYTE   W06
 BYTE   Bn2
 BYTE   W06
 BYTE   Dn3
 BYTE   W06
 BYTE   Bn2
 BYTE   W06
 BYTE   Bn1
 BYTE   W06
 BYTE   Dn3
 BYTE   W06
 BYTE   PEND 
// 027   ----------------------------------------
Label_5_015F65DE:
 BYTE   N04  Bn2  v127
 BYTE   W06
 BYTE   Bn1
 BYTE   W06
 BYTE   Dn3
 BYTE   W06
 BYTE   Bn2
 BYTE   W06
 BYTE   En3
 BYTE   W06
 BYTE   Cs3
 BYTE   W06
 BYTE   Cs2
 BYTE   W06
 BYTE   En3
 BYTE   W06
 BYTE   Cs3
 BYTE   W06
 BYTE   Cs2
 BYTE   W06
 BYTE   En3
 BYTE   W06
 BYTE   Cs3
 BYTE   W06
 BYTE   En3
 BYTE   W06
 BYTE   Cs3
 BYTE   W06
 BYTE   Cs2
 BYTE   W06
 BYTE   En3
 BYTE   W06
 BYTE   PEND 
// 028   ----------------------------------------
Label_5_015F6601:
 BYTE   N04  Cs3  v127
 BYTE   W06
 BYTE   Cs2
 BYTE   W06
 BYTE   En3
 BYTE   W06
 BYTE   Cs3
 BYTE   W06
 BYTE   Fn3
 BYTE   W06
 BYTE   Cn3
 BYTE   W06
 BYTE   Dn2
 BYTE   W06
 BYTE   Fn3
 BYTE   W06
 BYTE   Cn3
 BYTE   W06
 BYTE   Dn2
 BYTE   W06
 BYTE   Fn3
 BYTE   W06
 BYTE   Cn3
 BYTE   W06
 BYTE   Fn3
 BYTE   W06
 BYTE   Cn3
 BYTE   W06
 BYTE   Dn2
 BYTE   W06
 BYTE   Fn3
 BYTE   W06
 BYTE   PEND 
// 029   ----------------------------------------
Label_5_015F6624:
 BYTE   N04  Cn3  v127
 BYTE   W06
 BYTE   Dn2
 BYTE   W06
 BYTE   Fn3
 BYTE   W06
 BYTE   Cn3
 BYTE   W06
 BYTE   Gn3
 BYTE   W06
 BYTE   Dn3
 BYTE   W06
 BYTE   En2
 BYTE   W06
 BYTE   Gn3
 BYTE   W06
 BYTE   Dn3
 BYTE   W06
 BYTE   En2
 BYTE   W06
 BYTE   Gn3
 BYTE   W06
 BYTE   Dn3
 BYTE   W06
 BYTE   Gn3
 BYTE   W06
 BYTE   Dn3
 BYTE   W06
 BYTE   En2
 BYTE   W06
 BYTE   Gn3
 BYTE   W06
 BYTE   PEND 
// 030   ----------------------------------------
Label_5_015F6647:
 BYTE   N04  Dn3  v127
 BYTE   W06
 BYTE   En2
 BYTE   W06
 BYTE   Gn3
 BYTE   W06
 BYTE   Dn3
 BYTE   W06
 BYTE   An3
 BYTE   W06
 BYTE   En3
 BYTE   W06
 BYTE   Fn2
 BYTE   W06
 BYTE   An3
 BYTE   W06
 BYTE   En3
 BYTE   W06
 BYTE   Fn2
 BYTE   W06
 BYTE   An3
 BYTE   W06
 BYTE   En3
 BYTE   W06
 BYTE   An3
 BYTE   W06
 BYTE   En3
 BYTE   W06
 BYTE   Fn2
 BYTE   W06
 BYTE   An3
 BYTE   W06
 BYTE   PEND 
// 031   ----------------------------------------
Label_5_015F666A:
 BYTE   N04  En3  v127
 BYTE   W06
 BYTE   Fn2
 BYTE   W06
 BYTE   An3
 BYTE   W06
 BYTE   En3
 BYTE   W06
 BYTE   Fn3
 BYTE   W06
 BYTE   Dn3
 BYTE   W06
 BYTE   Dn2
 BYTE   W06
 BYTE   Fn3
 BYTE   W06
 BYTE   Dn3
 BYTE   W06
 BYTE   Dn2
 BYTE   W06
 BYTE   Fn3
 BYTE   W06
 BYTE   Dn3
 BYTE   W06
 BYTE   Fn3
 BYTE   W06
 BYTE   Dn3
 BYTE   W06
 BYTE   Dn2
 BYTE   W06
 BYTE   Fn3
 BYTE   W06
 BYTE   PEND 
// 032   ----------------------------------------
Label_5_015F668D:
 BYTE   N04  Dn3  v127
 BYTE   W06
 BYTE   Dn2
 BYTE   W06
 BYTE   Fn3
 BYTE   W06
 BYTE   Dn3
 BYTE   W06
 BYTE   Gn3
 BYTE   W06
 BYTE   Ds3
 BYTE   W06
 BYTE   Ds2
 BYTE   W06
 BYTE   Gn3
 BYTE   W06
 BYTE   Ds3
 BYTE   W06
 BYTE   Ds2
 BYTE   W06
 BYTE   Gn3
 BYTE   W06
 BYTE   Ds3
 BYTE   W06
 BYTE   Gn3
 BYTE   W06
 BYTE   Ds3
 BYTE   W06
 BYTE   Ds2
 BYTE   W06
 BYTE   Gn3
 BYTE   W06
 BYTE   PEND 
// 033   ----------------------------------------
Label_5_015F66B0:
 BYTE   N04  Ds3  v127
 BYTE   W06
 BYTE   Ds2
 BYTE   W06
 BYTE   Gn3
 BYTE   W06
 BYTE   Ds3
 BYTE   W06
 BYTE   Gn3
 BYTE   W06
 BYTE   Ds3
 BYTE   W06
 BYTE   Fn2
 BYTE   W06
 BYTE   Gn3
 BYTE   W06
 BYTE   Ds3
 BYTE   W06
 BYTE   Fn2
 BYTE   W06
 BYTE   Gn3
 BYTE   W06
 BYTE   Ds3
 BYTE   W06
 BYTE   Gn3
 BYTE   W06
 BYTE   Ds3
 BYTE   W06
 BYTE   Fn2
 BYTE   W06
 BYTE   Gn3
 BYTE   W06
 BYTE   PEND 
// 034   ----------------------------------------
Label_5_015F66D3:
 BYTE   N04  Ds3  v127
 BYTE   W06
 BYTE   Fn2
 BYTE   W06
 BYTE   Gn3
 BYTE   W06
 BYTE   Ds3
 BYTE   W06
 BYTE   Gn3
 BYTE   W06
 BYTE   Dn3
 BYTE   W06
 BYTE   En2
 BYTE   W06
 BYTE   Gn3
 BYTE   W06
 BYTE   Dn3
 BYTE   W06
 BYTE   En2
 BYTE   W06
 BYTE   Gn3
 BYTE   W06
 BYTE   Dn3
 BYTE   W06
 BYTE   Gn3
 BYTE   W06
 BYTE   Dn3
 BYTE   W06
 BYTE   En2
 BYTE   W06
 BYTE   Gn3
 BYTE   W06
 BYTE   PEND 
// 035   ----------------------------------------
Label_5_015F66F6:
 BYTE   N04  Dn3  v127
 BYTE   W06
 BYTE   En2
 BYTE   W06
 BYTE   Gn3
 BYTE   W06
 BYTE   Dn3
 BYTE   W06
 BYTE   Gn3
 BYTE   W06
 BYTE   Dn3
 BYTE   W06
 BYTE   En2
 BYTE   W06
 BYTE   Gn3
 BYTE   W06
 BYTE   Dn3
 BYTE   W06
 BYTE   En2
 BYTE   W06
 BYTE   Gn3
 BYTE   W06
 BYTE   Dn3
 BYTE   W06
 BYTE   Gn3
 BYTE   W06
 BYTE   Dn3
 BYTE   W06
 BYTE   En2
 BYTE   W06
 BYTE   Gn3
 BYTE   W06
 BYTE   PEND 
// 036   ----------------------------------------
 BYTE   Dn3
 BYTE   W06
 BYTE   En2
 BYTE   W06
 BYTE   Gn3
 BYTE   W06
 BYTE   Dn3
 BYTE   W05
 BYTE   W01
 BYTE   N06  Cn4
 BYTE   W06
 BYTE   An3
 BYTE   W06
 BYTE   Cn3
 BYTE   W06
 BYTE   Cn4
 BYTE   W06
 BYTE   An3
 BYTE   W06
 BYTE   Cn3
 BYTE   W06
 BYTE   Cn4
 BYTE   W06
 BYTE   An3
 BYTE   W06
 BYTE   Cn4
 BYTE   W06
 BYTE   An3
 BYTE   W06
 BYTE   Cn3
 BYTE   W06
 BYTE   Cn4
 BYTE   W06
 BYTE   PATT
  POIN2 Label_5_015F61FB
 BYTE   PATT
  POIN2 Label_5_015F621E
 BYTE   PATT
  POIN2 Label_5_015F6241
 BYTE   PATT
  POIN2 Label_5_015F6264
 BYTE   PATT
  POIN2 Label_5_015F61FB
 BYTE   PATT
  POIN2 Label_5_015F621E
 BYTE   PATT
  POIN2 Label_5_015F6241
 BYTE   PATT
  POIN2 Label_5_015F6296
 BYTE   PATT
  POIN2 Label_5_015F62B9
 BYTE   PATT
  POIN2 Label_5_015F62DC
 BYTE   PATT
  POIN2 Label_5_015F62FF
 BYTE   PATT
  POIN2 Label_5_015F6322
 BYTE   PATT
  POIN2 Label_5_015F6345
 BYTE   PATT
  POIN2 Label_5_015F6368
 BYTE   PATT
  POIN2 Label_5_015F638B
 BYTE   PATT
  POIN2 Label_5_015F63AE
 BYTE   PATT
  POIN2 Label_5_015F61FB
 BYTE   PATT
  POIN2 Label_5_015F621E
 BYTE   PATT
  POIN2 Label_5_015F6241
 BYTE   PATT
  POIN2 Label_5_015F6264
 BYTE   PATT
  POIN2 Label_5_015F61FB
 BYTE   PATT
  POIN2 Label_5_015F621E
 BYTE   PATT
  POIN2 Label_5_015F6241
 BYTE   PATT
  POIN2 Label_5_015F6296
 BYTE   PATT
  POIN2 Label_5_015F62B9
 BYTE   PATT
  POIN2 Label_5_015F62DC
 BYTE   PATT
  POIN2 Label_5_015F62FF
 BYTE   PATT
  POIN2 Label_5_015F6322
 BYTE   PATT
  POIN2 Label_5_015F6368
 BYTE   PATT
  POIN2 Label_5_015F6412
 BYTE   PATT
  POIN2 Label_5_015F6435
 BYTE   PATT
  POIN2 Label_5_015F6458
 BYTE   PATT
  POIN2 Label_5_015F647E
 BYTE   PATT
  POIN2 Label_5_015F64A1
 BYTE   PATT
  POIN2 Label_5_015F64C4
 BYTE   PATT
  POIN2 Label_5_015F64E7
 BYTE   PATT
  POIN2 Label_5_015F650A
 BYTE   PATT
  POIN2 Label_5_015F652D
 BYTE   PATT
  POIN2 Label_5_015F6550
 BYTE   PATT
  POIN2 Label_5_015F6573
 BYTE   PATT
  POIN2 Label_5_015F6598
 BYTE   PATT
  POIN2 Label_5_015F65BB
 BYTE   PATT
  POIN2 Label_5_015F65DE
 BYTE   PATT
  POIN2 Label_5_015F6601
 BYTE   PATT
  POIN2 Label_5_015F6624
 BYTE   PATT
  POIN2 Label_5_015F6647
 BYTE   PATT
  POIN2 Label_5_015F666A
 BYTE   PATT
  POIN2 Label_5_015F668D
 BYTE   PATT
  POIN2 Label_5_015F66B0
 BYTE   PATT
  POIN2 Label_5_015F66D3
 BYTE   PATT
  POIN2 Label_5_015F66F6
// 037   ----------------------------------------
 BYTE   N04  Dn3  v127
 BYTE   W06
 BYTE   En2
 BYTE   W06
 BYTE   Gn3
 BYTE   W06
 BYTE   Dn3
 BYTE   W06
 BYTE   GoTo
  POIN2 Label_5_015F61D6
// 038   ----------------------------------------
 BYTE   W10
 BYTE   FINE

//**************** Track 7 (Midi-Chn.6) ****************//

KirbyDreamLandRippleField1Pandan_007:
// 000   ----------------------------------------
 BYTE   KEYSH   KirbyDreamLandRippleField1Pandan_key+0
Label_6_015F685E:
 BYTE   VOICE   4
 BYTE   MODT 0
 BYTE   CnM2
 BYTE   LFOS 0
 BYTE   Gs1
 BYTE   VOL   10*KirbyDreamLandRippleField1Pandan_mvl/mxv
 BYTE   PAN   c_v-39
 BYTE   W36
 BYTE   N06  En4  v127
 BYTE   W06
 BYTE   Cn4
 BYTE   W06
 BYTE   Fn3
 BYTE   W06
 BYTE   En4
 BYTE   W06
 BYTE   Cn4
 BYTE   W06
 BYTE   Fn3
 BYTE   W06
 BYTE   En4
 BYTE   W06
 BYTE   Cn4
 BYTE   W06
 BYTE   En4
 BYTE   W06
 BYTE   Cn4
 BYTE   W06
// 001   ----------------------------------------
Label_6_015F687F:
 BYTE   N06  Fn3  v127
 BYTE   W06
 BYTE   En4
 BYTE   W06
 BYTE   Cn4
 BYTE   W06
 BYTE   Fn3
 BYTE   W06
 BYTE   En4
 BYTE   W06
 BYTE   Cn4
 BYTE   W06
 BYTE   En4
 BYTE   W06
 BYTE   Cn4
 BYTE   W06
 BYTE   Fn3
 BYTE   W06
 BYTE   En4
 BYTE   W06
 BYTE   Cn4
 BYTE   W06
 BYTE   Fn3
 BYTE   W06
 BYTE   En4
 BYTE   W06
 BYTE   Cn4
 BYTE   W06
 BYTE   En4
 BYTE   W06
 BYTE   Cn4
 BYTE   W06
 BYTE   PEND 
// 002   ----------------------------------------
Label_6_015F68A2:
 BYTE   N06  Fn3  v127
 BYTE   W06
 BYTE   En4
 BYTE   W06
 BYTE   Cn4
 BYTE   W06
 BYTE   Fn3
 BYTE   W06
 BYTE   En4
 BYTE   W06
 BYTE   Cn4
 BYTE   W06
 BYTE   Dn4
 BYTE   W06
 BYTE   Bn3
 BYTE   W06
 BYTE   En3
 BYTE   W06
 BYTE   Dn4
 BYTE   W06
 BYTE   Bn3
 BYTE   W06
 BYTE   En3
 BYTE   W06
 BYTE   Dn4
 BYTE   W06
 BYTE   Bn3
 BYTE   W06
 BYTE   Dn4
 BYTE   W06
 BYTE   Bn3
 BYTE   W06
 BYTE   PEND 
// 003   ----------------------------------------
Label_6_015F68C5:
 BYTE   N06  En3  v127
 BYTE   W06
 BYTE   Dn4
 BYTE   W06
 BYTE   Bn3
 BYTE   W06
 BYTE   En3
 BYTE   W06
 BYTE   Dn4
 BYTE   W06
 BYTE   Bn3
 BYTE   W06
 BYTE   Dn4
 BYTE   W06
 BYTE   Bn3
 BYTE   W06
 BYTE   En3
 BYTE   W06
 BYTE   Dn4
 BYTE   W06
 BYTE   Bn3
 BYTE   W06
 BYTE   En3
 BYTE   W06
 BYTE   Dn4
 BYTE   W06
 BYTE   Bn3
 BYTE   W06
 BYTE   Dn4
 BYTE   W06
 BYTE   Bn3
 BYTE   W06
 BYTE   PEND 
// 004   ----------------------------------------
Label_6_015F68E8:
 BYTE   N06  En3  v127
 BYTE   W06
 BYTE   Dn4
 BYTE   W06
 BYTE   Bn3
 BYTE   W06
 BYTE   En3
 BYTE   W06
 BYTE   Dn4
 BYTE   W06
 BYTE   Bn3
 BYTE   W06
 BYTE   En4
 BYTE   W06
 BYTE   Cn4
 BYTE   W06
 BYTE   Fn3
 BYTE   W06
 BYTE   En4
 BYTE   W06
 BYTE   Cn4
 BYTE   W06
 BYTE   Fn3
 BYTE   W06
 BYTE   En4
 BYTE   W06
 BYTE   Cn4
 BYTE   W06
 BYTE   En4
 BYTE   W06
 BYTE   Cn4
 BYTE   W06
 BYTE   PEND 
 BYTE   PATT
  POIN2 Label_6_015F687F
 BYTE   PATT
  POIN2 Label_6_015F68A2
 BYTE   PATT
  POIN2 Label_6_015F68C5
// 005   ----------------------------------------
Label_6_015F691A:
 BYTE   N06  En3  v127
 BYTE   W06
 BYTE   Dn4
 BYTE   W06
 BYTE   Bn3
 BYTE   W06
 BYTE   En3
 BYTE   W06
 BYTE   Dn4
 BYTE   W06
 BYTE   Bn3
 BYTE   W06
 BYTE   Fn4
 BYTE   W06
 BYTE   Cn4
 BYTE   W06
 BYTE   Fn3
 BYTE   W06
 BYTE   Fn4
 BYTE   W06
 BYTE   Cn4
 BYTE   W06
 BYTE   Fn3
 BYTE   W06
 BYTE   Fn4
 BYTE   W06
 BYTE   Cn4
 BYTE   W06
 BYTE   Fn4
 BYTE   W06
 BYTE   Cn4
 BYTE   W06
 BYTE   PEND 
// 006   ----------------------------------------
Label_6_015F693D:
 BYTE   N06  Fn3  v127
 BYTE   W06
 BYTE   Fn4
 BYTE   W06
 BYTE   Cn4
 BYTE   W06
 BYTE   Fn3
 BYTE   W06
 BYTE   Fn4
 BYTE   W06
 BYTE   Cn4
 BYTE   W06
 BYTE   Fn4
 BYTE   W06
 BYTE   Dn4
 BYTE   W06
 BYTE   Fn3
 BYTE   W06
 BYTE   Fn4
 BYTE   W06
 BYTE   Dn4
 BYTE   W06
 BYTE   Fn3
 BYTE   W06
 BYTE   Fn4
 BYTE   W06
 BYTE   Dn4
 BYTE   W06
 BYTE   Fn4
 BYTE   W06
 BYTE   Dn4
 BYTE   W06
 BYTE   PEND 
// 007   ----------------------------------------
Label_6_015F6960:
 BYTE   N06  Fn3  v127
 BYTE   W06
 BYTE   Fn4
 BYTE   W06
 BYTE   Dn4
 BYTE   W06
 BYTE   Fn3
 BYTE   W06
 BYTE   Fn4
 BYTE   W06
 BYTE   Dn4
 BYTE   W06
 BYTE   En4
 BYTE   W06
 BYTE   Bn3
 BYTE   W06
 BYTE   En3
 BYTE   W06
 BYTE   En4
 BYTE   W06
 BYTE   Bn3
 BYTE   W06
 BYTE   En3
 BYTE   W06
 BYTE   En4
 BYTE   W06
 BYTE   Bn3
 BYTE   W06
 BYTE   En4
 BYTE   W06
 BYTE   Bn3
 BYTE   W06
 BYTE   PEND 
// 008   ----------------------------------------
Label_6_015F6983:
 BYTE   N06  En3  v127
 BYTE   W06
 BYTE   En4
 BYTE   W06
 BYTE   Bn3
 BYTE   W06
 BYTE   En3
 BYTE   W06
 BYTE   En4
 BYTE   W06
 BYTE   Bn3
 BYTE   W06
 BYTE   Dn4
 BYTE   W06
 BYTE   Bn3
 BYTE   W06
 BYTE   En3
 BYTE   W06
 BYTE   Dn4
 BYTE   W06
 BYTE   Bn3
 BYTE   W06
 BYTE   En3
 BYTE   W06
 BYTE   Dn4
 BYTE   W06
 BYTE   Bn3
 BYTE   W06
 BYTE   Dn4
 BYTE   W06
 BYTE   Bn3
 BYTE   W06
 BYTE   PEND 
// 009   ----------------------------------------
Label_6_015F69A6:
 BYTE   N06  En3  v127
 BYTE   W06
 BYTE   Dn4
 BYTE   W06
 BYTE   Bn3
 BYTE   W06
 BYTE   En3
 BYTE   W06
 BYTE   Dn4
 BYTE   W06
 BYTE   Bn3
 BYTE   W06
 BYTE   Ds4
 BYTE   W06
 BYTE   Cn4
 BYTE   W06
 BYTE   Ds3
 BYTE   W06
 BYTE   Ds4
 BYTE   W06
 BYTE   Cn4
 BYTE   W06
 BYTE   Ds3
 BYTE   W06
 BYTE   Ds4
 BYTE   W06
 BYTE   Cn4
 BYTE   W06
 BYTE   Ds4
 BYTE   W06
 BYTE   Cn4
 BYTE   W06
 BYTE   PEND 
// 010   ----------------------------------------
Label_6_015F69C9:
 BYTE   N06  Ds3  v127
 BYTE   W06
 BYTE   Ds4
 BYTE   W06
 BYTE   Cn4
 BYTE   W06
 BYTE   Ds3
 BYTE   W06
 BYTE   Ds4
 BYTE   W06
 BYTE   Cn4
 BYTE   W06
 BYTE   Ds4
 BYTE   W06
 BYTE   Cn4
 BYTE   W06
 BYTE   Ds3
 BYTE   W06
 BYTE   Ds4
 BYTE   W06
 BYTE   Cn4
 BYTE   W06
 BYTE   Ds3
 BYTE   W06
 BYTE   Ds4
 BYTE   W06
 BYTE   Cn4
 BYTE   W06
 BYTE   Ds4
 BYTE   W06
 BYTE   Cn4
 BYTE   W06
 BYTE   PEND 
// 011   ----------------------------------------
Label_6_015F69EC:
 BYTE   N06  Ds3  v127
 BYTE   W06
 BYTE   Ds4
 BYTE   W06
 BYTE   Cn4
 BYTE   W06
 BYTE   Ds3
 BYTE   W06
 BYTE   Ds4
 BYTE   W06
 BYTE   Cn4
 BYTE   W06
 BYTE   Fn4
 BYTE   W06
 BYTE   Dn4
 BYTE   W06
 BYTE   Fn3
 BYTE   W06
 BYTE   Fn4
 BYTE   W06
 BYTE   Dn4
 BYTE   W06
 BYTE   Fn3
 BYTE   W06
 BYTE   Fn4
 BYTE   W06
 BYTE   Dn4
 BYTE   W06
 BYTE   Fn4
 BYTE   W06
 BYTE   Dn4
 BYTE   W06
 BYTE   PEND 
// 012   ----------------------------------------
Label_6_015F6A0F:
 BYTE   N06  Fn3  v127
 BYTE   W06
 BYTE   Fn4
 BYTE   W06
 BYTE   Dn4
 BYTE   W06
 BYTE   Fn3
 BYTE   W06
 BYTE   Fn4
 BYTE   W06
 BYTE   Dn4
 BYTE   W06
 BYTE   Fn4
 BYTE   W06
 BYTE   Dn4
 BYTE   W06
 BYTE   Fn3
 BYTE   W06
 BYTE   Fn4
 BYTE   W06
 BYTE   Dn4
 BYTE   W06
 BYTE   Fn3
 BYTE   W06
 BYTE   Fn4
 BYTE   W06
 BYTE   Dn4
 BYTE   W06
 BYTE   Fn4
 BYTE   W06
 BYTE   Dn4
 BYTE   W06
 BYTE   PEND 
// 013   ----------------------------------------
Label_6_015F6A32:
 BYTE   N06  Gs3  v127
 BYTE   W06
 BYTE   Fn4
 BYTE   W06
 BYTE   Dn4
 BYTE   W06
 BYTE   Gs3
 BYTE   W06
 BYTE   Fn4
 BYTE   W06
 BYTE   Dn4
 BYTE   W06
 BYTE   En4
 BYTE   W06
 BYTE   Cn4
 BYTE   W06
 BYTE   Fn3
 BYTE   W06
 BYTE   En4
 BYTE   W06
 BYTE   Cn4
 BYTE   W06
 BYTE   Fn3
 BYTE   W06
 BYTE   En4
 BYTE   W06
 BYTE   Cn4
 BYTE   W06
 BYTE   En4
 BYTE   W06
 BYTE   Cn4
 BYTE   W06
 BYTE   PEND 
 BYTE   PATT
  POIN2 Label_6_015F687F
 BYTE   PATT
  POIN2 Label_6_015F68A2
 BYTE   PATT
  POIN2 Label_6_015F68C5
 BYTE   PATT
  POIN2 Label_6_015F68E8
 BYTE   PATT
  POIN2 Label_6_015F687F
 BYTE   PATT
  POIN2 Label_6_015F68A2
 BYTE   PATT
  POIN2 Label_6_015F68C5
 BYTE   PATT
  POIN2 Label_6_015F691A
 BYTE   PATT
  POIN2 Label_6_015F693D
 BYTE   PATT
  POIN2 Label_6_015F6960
 BYTE   PATT
  POIN2 Label_6_015F6983
 BYTE   PATT
  POIN2 Label_6_015F69A6
 BYTE   PATT
  POIN2 Label_6_015F69EC
// 014   ----------------------------------------
Label_6_015F6A96:
 BYTE   N06  Fn3  v127
 BYTE   W06
 BYTE   Fn4
 BYTE   W06
 BYTE   Dn4
 BYTE   W06
 BYTE   Fn3
 BYTE   W06
 BYTE   Fn4
 BYTE   W06
 BYTE   Dn4
 BYTE   W06
 BYTE   Ds4
 BYTE   W06
 BYTE   Cn4
 BYTE   W06
 BYTE   Ds3
 BYTE   W06
 BYTE   Ds4
 BYTE   W06
 BYTE   Cn4
 BYTE   W06
 BYTE   Ds3
 BYTE   W06
 BYTE   Ds4
 BYTE   W06
 BYTE   Cn4
 BYTE   W06
 BYTE   Ds4
 BYTE   W06
 BYTE   Cn4
 BYTE   W06
 BYTE   PEND 
// 015   ----------------------------------------
Label_6_015F6AB9:
 BYTE   N06  Ds3  v127
 BYTE   W06
 BYTE   Ds4
 BYTE   W06
 BYTE   Cn4
 BYTE   W06
 BYTE   Ds3
 BYTE   W06
 BYTE   Ds4
 BYTE   W06
 BYTE   Cn4
 BYTE   W06
 BYTE   Dn4
 BYTE   W06
 BYTE   Bn3
 BYTE   W06
 BYTE   En3
 BYTE   W06
 BYTE   Dn4
 BYTE   W06
 BYTE   Bn3
 BYTE   W06
 BYTE   En3
 BYTE   W06
 BYTE   Dn4
 BYTE   W06
 BYTE   Bn3
 BYTE   W06
 BYTE   Dn4
 BYTE   W06
 BYTE   Bn3
 BYTE   W06
 BYTE   PEND 
// 016   ----------------------------------------
Label_6_015F6ADC:
 BYTE   N06  En3  v127
 BYTE   W06
 BYTE   Dn4
 BYTE   W06
 BYTE   Bn3
 BYTE   W06
 BYTE   En3
 BYTE   W06
 BYTE   Dn4
 BYTE   W06
 BYTE   N05  Bn3
 BYTE   W05
 BYTE   W01
 BYTE   N06  Gn3
 BYTE   W06
 BYTE   Ds3
 BYTE   W06
 BYTE   Gs2
 BYTE   W06
 BYTE   Gn3
 BYTE   W06
 BYTE   Ds3
 BYTE   W06
 BYTE   Gs2
 BYTE   W06
 BYTE   Gn3
 BYTE   W06
 BYTE   Ds3
 BYTE   W06
 BYTE   Gn3
 BYTE   W06
 BYTE   Ds3
 BYTE   W06
 BYTE   PEND 
// 017   ----------------------------------------
Label_6_015F6B02:
 BYTE   N06  Gs2  v127
 BYTE   W06
 BYTE   Gn3
 BYTE   W06
 BYTE   Ds3
 BYTE   W06
 BYTE   Gs2
 BYTE   W06
 BYTE   Gn3
 BYTE   W06
 BYTE   Ds3
 BYTE   W06
 BYTE   Fn3
 BYTE   W06
 BYTE   Dn3
 BYTE   W06
 BYTE   Fn2
 BYTE   W06
 BYTE   Fn3
 BYTE   W06
 BYTE   Dn3
 BYTE   W06
 BYTE   Fn2
 BYTE   W06
 BYTE   Fn3
 BYTE   W06
 BYTE   Dn3
 BYTE   W06
 BYTE   Fn3
 BYTE   W06
 BYTE   Dn3
 BYTE   W06
 BYTE   PEND 
// 018   ----------------------------------------
Label_6_015F6B25:
 BYTE   N06  Fn2  v127
 BYTE   W06
 BYTE   Fn3
 BYTE   W06
 BYTE   Dn3
 BYTE   W06
 BYTE   Fn2
 BYTE   W06
 BYTE   Fn3
 BYTE   W06
 BYTE   Dn3
 BYTE   W06
 BYTE   Gn3
 BYTE   W06
 BYTE   Dn3
 BYTE   W06
 BYTE   Gn2
 BYTE   W06
 BYTE   Gn3
 BYTE   W06
 BYTE   Dn3
 BYTE   W06
 BYTE   Gn2
 BYTE   W06
 BYTE   Gn3
 BYTE   W06
 BYTE   Dn3
 BYTE   W06
 BYTE   Gn3
 BYTE   W06
 BYTE   Dn3
 BYTE   W06
 BYTE   PEND 
// 019   ----------------------------------------
Label_6_015F6B48:
 BYTE   N06  Gn2  v127
 BYTE   W06
 BYTE   Gn3
 BYTE   W06
 BYTE   Dn3
 BYTE   W06
 BYTE   Gn2
 BYTE   W06
 BYTE   Gn3
 BYTE   W06
 BYTE   Dn3
 BYTE   W06
 BYTE   Gn3
 BYTE   W06
 BYTE   En3
 BYTE   W06
 BYTE   An2
 BYTE   W06
 BYTE   Gn3
 BYTE   W06
 BYTE   En3
 BYTE   W06
 BYTE   An2
 BYTE   W06
 BYTE   Gn3
 BYTE   W06
 BYTE   En3
 BYTE   W06
 BYTE   Gn3
 BYTE   W06
 BYTE   En3
 BYTE   W06
 BYTE   PEND 
// 020   ----------------------------------------
Label_6_015F6B6B:
 BYTE   N06  An2  v127
 BYTE   W06
 BYTE   Gn3
 BYTE   W06
 BYTE   En3
 BYTE   W06
 BYTE   An2
 BYTE   W06
 BYTE   Gn3
 BYTE   W06
 BYTE   En3
 BYTE   W06
 BYTE   An3
 BYTE   W06
 BYTE   Fn3
 BYTE   W06
 BYTE   Fn2
 BYTE   W06
 BYTE   An3
 BYTE   W06
 BYTE   Fn3
 BYTE   W06
 BYTE   Fn2
 BYTE   W06
 BYTE   An3
 BYTE   W06
 BYTE   Fn3
 BYTE   W06
 BYTE   An3
 BYTE   W06
 BYTE   Fn3
 BYTE   W06
 BYTE   PEND 
// 021   ----------------------------------------
Label_6_015F6B8E:
 BYTE   N06  Fn2  v127
 BYTE   W06
 BYTE   An3
 BYTE   W06
 BYTE   Fn3
 BYTE   W06
 BYTE   Fn2
 BYTE   W06
 BYTE   An3
 BYTE   W06
 BYTE   Fn3
 BYTE   W06
 BYTE   An3
 BYTE   W06
 BYTE   Fn3
 BYTE   W06
 BYTE   Fn2
 BYTE   W06
 BYTE   An3
 BYTE   W06
 BYTE   Fn3
 BYTE   W06
 BYTE   Fn2
 BYTE   W06
 BYTE   An3
 BYTE   W06
 BYTE   Fn3
 BYTE   W06
 BYTE   An3
 BYTE   W06
 BYTE   Fn3
 BYTE   W06
 BYTE   PEND 
// 022   ----------------------------------------
Label_6_015F6BB1:
 BYTE   N06  Fn2  v127
 BYTE   W06
 BYTE   An3
 BYTE   W06
 BYTE   Fn3
 BYTE   W06
 BYTE   Fn2
 BYTE   W06
 BYTE   An3
 BYTE   W06
 BYTE   Fn3
 BYTE   W06
 BYTE   Bn3
 BYTE   W06
 BYTE   Gn3
 BYTE   W06
 BYTE   Gn2
 BYTE   W06
 BYTE   Bn3
 BYTE   W06
 BYTE   Gn3
 BYTE   W06
 BYTE   Gn2
 BYTE   W06
 BYTE   Bn3
 BYTE   W06
 BYTE   Gn3
 BYTE   W06
 BYTE   Bn3
 BYTE   W06
 BYTE   Gn3
 BYTE   W06
 BYTE   PEND 
// 023   ----------------------------------------
Label_6_015F6BD4:
 BYTE   N06  Gn2  v127
 BYTE   W06
 BYTE   Bn3
 BYTE   W06
 BYTE   Gn3
 BYTE   W06
 BYTE   Gn2
 BYTE   W06
 BYTE   Bn3
 BYTE   W06
 BYTE   Gn3
 BYTE   W06
 BYTE   Cs4
 BYTE   W06
 BYTE   An3
 BYTE   W06
 BYTE   An2
 BYTE   W06
 BYTE   Cs4
 BYTE   W06
 BYTE   An3
 BYTE   W06
 BYTE   An2
 BYTE   W06
 BYTE   Cs4
 BYTE   W06
 BYTE   An3
 BYTE   W06
 BYTE   En4
 BYTE   W06
 BYTE   Cs4
 BYTE   W06
 BYTE   PEND 
// 024   ----------------------------------------
Label_6_015F6BF7:
 BYTE   N06  An2  v127
 BYTE   W06
 BYTE   En4
 BYTE   W06
 BYTE   Cs4
 BYTE   W06
 BYTE   An2
 BYTE   W06
 BYTE   En4
 BYTE   W06
 BYTE   Cs4
 BYTE   W05
 BYTE   W01
 BYTE   N04  An3
 BYTE   W06
 BYTE   Fn3
 BYTE   W06
 BYTE   Fn2
 BYTE   W06
 BYTE   An3
 BYTE   W06
 BYTE   Fn3
 BYTE   W06
 BYTE   Fn2
 BYTE   W06
 BYTE   An3
 BYTE   W06
 BYTE   Fn3
 BYTE   W06
 BYTE   An3
 BYTE   W06
 BYTE   Fn3
 BYTE   W06
 BYTE   PEND 
// 025   ----------------------------------------
Label_6_015F6C1C:
 BYTE   N04  Fn2  v127
 BYTE   W06
 BYTE   An3
 BYTE   W06
 BYTE   Fn3
 BYTE   W06
 BYTE   Fn2
 BYTE   W06
 BYTE   An3
 BYTE   W06
 BYTE   Fn3
 BYTE   W06
 BYTE   An3
 BYTE   W06
 BYTE   Fn3
 BYTE   W06
 BYTE   Fn2
 BYTE   W06
 BYTE   An3
 BYTE   W06
 BYTE   Fn3
 BYTE   W06
 BYTE   Fn2
 BYTE   W06
 BYTE   An3
 BYTE   W06
 BYTE   Fn3
 BYTE   W06
 BYTE   An3
 BYTE   W06
 BYTE   Fn3
 BYTE   W06
 BYTE   PEND 
// 026   ----------------------------------------
Label_6_015F6C3F:
 BYTE   N04  Fn2  v127
 BYTE   W06
 BYTE   An3
 BYTE   W06
 BYTE   Fn3
 BYTE   W06
 BYTE   Fn2
 BYTE   W06
 BYTE   An3
 BYTE   W06
 BYTE   Fn3
 BYTE   W06
 BYTE   Gn3
 BYTE   W06
 BYTE   En3
 BYTE   W06
 BYTE   En2
 BYTE   W06
 BYTE   Gn3
 BYTE   W06
 BYTE   En3
 BYTE   W06
 BYTE   En2
 BYTE   W06
 BYTE   Gn3
 BYTE   W06
 BYTE   En3
 BYTE   W06
 BYTE   Gn3
 BYTE   W06
 BYTE   En3
 BYTE   W06
 BYTE   PEND 
// 027   ----------------------------------------
Label_6_015F6C62:
 BYTE   N04  En2  v127
 BYTE   W06
 BYTE   Gn3
 BYTE   W06
 BYTE   En3
 BYTE   W06
 BYTE   En2
 BYTE   W06
 BYTE   Gn3
 BYTE   W06
 BYTE   En3
 BYTE   W06
 BYTE   Gn3
 BYTE   W06
 BYTE   En3
 BYTE   W06
 BYTE   An2
 BYTE   W06
 BYTE   Gn3
 BYTE   W06
 BYTE   En3
 BYTE   W06
 BYTE   An2
 BYTE   W06
 BYTE   Gn3
 BYTE   W06
 BYTE   En3
 BYTE   W06
 BYTE   Gn3
 BYTE   W06
 BYTE   En3
 BYTE   W06
 BYTE   PEND 
// 028   ----------------------------------------
Label_6_015F6C85:
 BYTE   N04  An2  v127
 BYTE   W06
 BYTE   Gn3
 BYTE   W06
 BYTE   En3
 BYTE   W06
 BYTE   An2
 BYTE   W06
 BYTE   Gn3
 BYTE   W06
 BYTE   En3
 BYTE   W06
 BYTE   An3
 BYTE   W06
 BYTE   Fn3
 BYTE   W06
 BYTE   An2
 BYTE   W06
 BYTE   An3
 BYTE   W06
 BYTE   Fn3
 BYTE   W06
 BYTE   An2
 BYTE   W06
 BYTE   An3
 BYTE   W06
 BYTE   Fn3
 BYTE   W06
 BYTE   An3
 BYTE   W06
 BYTE   Fn3
 BYTE   W06
 BYTE   PEND 
// 029   ----------------------------------------
Label_6_015F6CA8:
 BYTE   N04  An2  v127
 BYTE   W06
 BYTE   An3
 BYTE   W06
 BYTE   Fn3
 BYTE   W06
 BYTE   An2
 BYTE   W06
 BYTE   An3
 BYTE   W06
 BYTE   Fn3
 BYTE   W06
 BYTE   Bn3
 BYTE   W06
 BYTE   Gn3
 BYTE   W06
 BYTE   Gn2
 BYTE   W06
 BYTE   Bn3
 BYTE   W06
 BYTE   Gn3
 BYTE   W06
 BYTE   Gn2
 BYTE   W06
 BYTE   Bn3
 BYTE   W06
 BYTE   Gn3
 BYTE   W06
 BYTE   Bn3
 BYTE   W06
 BYTE   Gn3
 BYTE   W06
 BYTE   PEND 
// 030   ----------------------------------------
Label_6_015F6CCB:
 BYTE   N04  Gn2  v127
 BYTE   W06
 BYTE   Bn3
 BYTE   W06
 BYTE   Gn3
 BYTE   W06
 BYTE   Gn2
 BYTE   W06
 BYTE   Bn3
 BYTE   W06
 BYTE   Gn3
 BYTE   W06
 BYTE   Cn4
 BYTE   W06
 BYTE   An3
 BYTE   W06
 BYTE   An2
 BYTE   W06
 BYTE   Cn4
 BYTE   W06
 BYTE   An3
 BYTE   W06
 BYTE   An2
 BYTE   W06
 BYTE   Cn4
 BYTE   W06
 BYTE   An3
 BYTE   W06
 BYTE   Cn4
 BYTE   W06
 BYTE   An3
 BYTE   W06
 BYTE   PEND 
// 031   ----------------------------------------
Label_6_015F6CEE:
 BYTE   N04  An2  v127
 BYTE   W06
 BYTE   Cn4
 BYTE   W06
 BYTE   An3
 BYTE   W06
 BYTE   An2
 BYTE   W06
 BYTE   Cn4
 BYTE   W06
 BYTE   An3
 BYTE   W06
 BYTE   Cn4
 BYTE   W06
 BYTE   An3
 BYTE   W06
 BYTE   An2
 BYTE   W06
 BYTE   Cn4
 BYTE   W06
 BYTE   An3
 BYTE   W06
 BYTE   An2
 BYTE   W06
 BYTE   Cn4
 BYTE   W06
 BYTE   An3
 BYTE   W06
 BYTE   Cn4
 BYTE   W06
 BYTE   An3
 BYTE   W06
 BYTE   PEND 
// 032   ----------------------------------------
Label_6_015F6D11:
 BYTE   N04  Gn2  v127
 BYTE   W06
 BYTE   Cn4
 BYTE   W06
 BYTE   An3
 BYTE   W06
 BYTE   Gn2
 BYTE   W06
 BYTE   Cn4
 BYTE   W06
 BYTE   An3
 BYTE   W06
 BYTE   Cn4
 BYTE   W06
 BYTE   Gn3
 BYTE   W06
 BYTE   Gs2
 BYTE   W06
 BYTE   Cn4
 BYTE   W06
 BYTE   Gn3
 BYTE   W06
 BYTE   Gs2
 BYTE   W06
 BYTE   Cn4
 BYTE   W06
 BYTE   Gn3
 BYTE   W06
 BYTE   Cn4
 BYTE   W06
 BYTE   Gn3
 BYTE   W06
 BYTE   PEND 
// 033   ----------------------------------------
Label_6_015F6D34:
 BYTE   N04  Gs2  v127
 BYTE   W06
 BYTE   Cn4
 BYTE   W06
 BYTE   Gn3
 BYTE   W06
 BYTE   Gs2
 BYTE   W06
 BYTE   Cn4
 BYTE   W06
 BYTE   Gn3
 BYTE   W06
 BYTE   Cn4
 BYTE   W06
 BYTE   Gn3
 BYTE   W06
 BYTE   As2
 BYTE   W06
 BYTE   Cn4
 BYTE   W06
 BYTE   Gn3
 BYTE   W06
 BYTE   As2
 BYTE   W06
 BYTE   Cn4
 BYTE   W06
 BYTE   Gn3
 BYTE   W06
 BYTE   Cn4
 BYTE   W06
 BYTE   Gn3
 BYTE   W06
 BYTE   PEND 
// 034   ----------------------------------------
Label_6_015F6D57:
 BYTE   N04  As2  v127
 BYTE   W06
 BYTE   Cn4
 BYTE   W06
 BYTE   Gn3
 BYTE   W06
 BYTE   As2
 BYTE   W06
 BYTE   Cn4
 BYTE   W06
 BYTE   Gn3
 BYTE   W06
 BYTE   Bn3
 BYTE   W06
 BYTE   Gn3
 BYTE   W06
 BYTE   Gn2
 BYTE   W06
 BYTE   Bn3
 BYTE   W06
 BYTE   Gn3
 BYTE   W06
 BYTE   Gn2
 BYTE   W06
 BYTE   Bn3
 BYTE   W06
 BYTE   Gn3
 BYTE   W06
 BYTE   Bn3
 BYTE   W06
 BYTE   Gn3
 BYTE   W06
 BYTE   PEND 
// 035   ----------------------------------------
Label_6_015F6D7A:
 BYTE   N04  Gn2  v127
 BYTE   W06
 BYTE   Bn3
 BYTE   W06
 BYTE   Gn3
 BYTE   W06
 BYTE   Gn2
 BYTE   W06
 BYTE   Bn3
 BYTE   W06
 BYTE   Gn3
 BYTE   W06
 BYTE   Bn3
 BYTE   W06
 BYTE   Gn3
 BYTE   W06
 BYTE   Gn2
 BYTE   W06
 BYTE   Bn3
 BYTE   W06
 BYTE   Gn3
 BYTE   W06
 BYTE   Gn2
 BYTE   W06
 BYTE   Bn3
 BYTE   W06
 BYTE   Gn3
 BYTE   W06
 BYTE   Bn3
 BYTE   W06
 BYTE   Gn3
 BYTE   W06
 BYTE   PEND 
// 036   ----------------------------------------
 BYTE   Gn2
 BYTE   W06
 BYTE   Bn3
 BYTE   W06
 BYTE   Gn3
 BYTE   W06
 BYTE   Gn2
 BYTE   W06
 BYTE   Bn3
 BYTE   W06
 BYTE   Gn3
 BYTE   W05
 BYTE   W01
 BYTE   N06  En4
 BYTE   W06
 BYTE   Cn4
 BYTE   W06
 BYTE   Fn3
 BYTE   W06
 BYTE   En4
 BYTE   W06
 BYTE   Cn4
 BYTE   W06
 BYTE   Fn3
 BYTE   W06
 BYTE   En4
 BYTE   W06
 BYTE   Cn4
 BYTE   W06
 BYTE   En4
 BYTE   W06
 BYTE   Cn4
 BYTE   W06
 BYTE   PATT
  POIN2 Label_6_015F687F
 BYTE   PATT
  POIN2 Label_6_015F68A2
 BYTE   PATT
  POIN2 Label_6_015F68C5
 BYTE   PATT
  POIN2 Label_6_015F68E8
 BYTE   PATT
  POIN2 Label_6_015F687F
 BYTE   PATT
  POIN2 Label_6_015F68A2
 BYTE   PATT
  POIN2 Label_6_015F68C5
 BYTE   PATT
  POIN2 Label_6_015F691A
 BYTE   PATT
  POIN2 Label_6_015F693D
 BYTE   PATT
  POIN2 Label_6_015F6960
 BYTE   PATT
  POIN2 Label_6_015F6983
 BYTE   PATT
  POIN2 Label_6_015F69A6
 BYTE   PATT
  POIN2 Label_6_015F69C9
 BYTE   PATT
  POIN2 Label_6_015F69EC
 BYTE   PATT
  POIN2 Label_6_015F6A0F
 BYTE   PATT
  POIN2 Label_6_015F6A32
 BYTE   PATT
  POIN2 Label_6_015F687F
 BYTE   PATT
  POIN2 Label_6_015F68A2
 BYTE   PATT
  POIN2 Label_6_015F68C5
 BYTE   PATT
  POIN2 Label_6_015F68E8
 BYTE   PATT
  POIN2 Label_6_015F687F
 BYTE   PATT
  POIN2 Label_6_015F68A2
 BYTE   PATT
  POIN2 Label_6_015F68C5
 BYTE   PATT
  POIN2 Label_6_015F691A
 BYTE   PATT
  POIN2 Label_6_015F693D
 BYTE   PATT
  POIN2 Label_6_015F6960
 BYTE   PATT
  POIN2 Label_6_015F6983
 BYTE   PATT
  POIN2 Label_6_015F69A6
 BYTE   PATT
  POIN2 Label_6_015F69EC
 BYTE   PATT
  POIN2 Label_6_015F6A96
 BYTE   PATT
  POIN2 Label_6_015F6AB9
 BYTE   PATT
  POIN2 Label_6_015F6ADC
 BYTE   PATT
  POIN2 Label_6_015F6B02
 BYTE   PATT
  POIN2 Label_6_015F6B25
 BYTE   PATT
  POIN2 Label_6_015F6B48
 BYTE   PATT
  POIN2 Label_6_015F6B6B
 BYTE   PATT
  POIN2 Label_6_015F6B8E
 BYTE   PATT
  POIN2 Label_6_015F6BB1
 BYTE   PATT
  POIN2 Label_6_015F6BD4
 BYTE   PATT
  POIN2 Label_6_015F6BF7
 BYTE   PATT
  POIN2 Label_6_015F6C1C
 BYTE   PATT
  POIN2 Label_6_015F6C3F
 BYTE   PATT
  POIN2 Label_6_015F6C62
 BYTE   PATT
  POIN2 Label_6_015F6C85
 BYTE   PATT
  POIN2 Label_6_015F6CA8
 BYTE   PATT
  POIN2 Label_6_015F6CCB
 BYTE   PATT
  POIN2 Label_6_015F6CEE
 BYTE   PATT
  POIN2 Label_6_015F6D11
 BYTE   PATT
  POIN2 Label_6_015F6D34
 BYTE   PATT
  POIN2 Label_6_015F6D57
 BYTE   PATT
  POIN2 Label_6_015F6D7A
// 037   ----------------------------------------
 BYTE   N04  Gn2  v127
 BYTE   W06
 BYTE   Bn3
 BYTE   W06
 BYTE   Gn3
 BYTE   W06
 BYTE   Gn2
 BYTE   W06
 BYTE   GoTo
  POIN2 Label_6_015F685E
// 038   ----------------------------------------
 BYTE   N04  Bn3  v127
 BYTE   W06
 BYTE   Gn3
 BYTE   W04
 BYTE   FINE

//**************** Track 8 (Midi-Chn.7) ****************//

KirbyDreamLandRippleField1Pandan_008:
// 000   ----------------------------------------
 BYTE   KEYSH   KirbyDreamLandRippleField1Pandan_key+0
Label_7_015F6EE6:
 BYTE   VOICE   4
 BYTE   MODT 0
 BYTE   CnM2
 BYTE   LFOS 0
 BYTE   Gs1
 BYTE   VOL   0*KirbyDreamLandRippleField1Pandan_mvl/mxv
 BYTE   PAN   c_v+46
 BYTE   W36
 BYTE   N06  Cn4  v127
 BYTE   W06
 BYTE   An3
 BYTE   W06
 BYTE   Cn3
 BYTE   W06
 BYTE   Cn4
 BYTE   W06
 BYTE   An3
 BYTE   W06
 BYTE   Cn3
 BYTE   W06
 BYTE   Cn4
 BYTE   W06
 BYTE   An3
 BYTE   W06
 BYTE   Cn4
 BYTE   W06
 BYTE   An3
 BYTE   W06
// 001   ----------------------------------------
Label_7_015F6F07:
 BYTE   N06  Cn3  v127
 BYTE   W06
 BYTE   Cn4
 BYTE   W06
 BYTE   An3
 BYTE   W06
 BYTE   Cn3
 BYTE   W06
 BYTE   Cn4
 BYTE   W06
 BYTE   An3
 BYTE   W06
 BYTE   Cn4
 BYTE   W06
 BYTE   An3
 BYTE   W06
 BYTE   Cn3
 BYTE   W06
 BYTE   Cn4
 BYTE   W06
 BYTE   An3
 BYTE   W06
 BYTE   Cn3
 BYTE   W06
 BYTE   Cn4
 BYTE   W06
 BYTE   An3
 BYTE   W06
 BYTE   Cn4
 BYTE   W06
 BYTE   An3
 BYTE   W06
 BYTE   PEND 
// 002   ----------------------------------------
Label_7_015F6F2A:
 BYTE   N06  Cn3  v127
 BYTE   W06
 BYTE   Cn4
 BYTE   W06
 BYTE   An3
 BYTE   W06
 BYTE   Cn3
 BYTE   W06
 BYTE   Cn4
 BYTE   W06
 BYTE   An3
 BYTE   W06
 BYTE   Bn3
 BYTE   W06
 BYTE   Gn3
 BYTE   W06
 BYTE   Bn2
 BYTE   W06
 BYTE   Bn3
 BYTE   W06
 BYTE   Gn3
 BYTE   W06
 BYTE   Bn2
 BYTE   W06
 BYTE   Bn3
 BYTE   W06
 BYTE   Gn3
 BYTE   W06
 BYTE   Bn3
 BYTE   W06
 BYTE   Gn3
 BYTE   W06
 BYTE   PEND 
// 003   ----------------------------------------
Label_7_015F6F4D:
 BYTE   N06  Bn2  v127
 BYTE   W06
 BYTE   Bn3
 BYTE   W06
 BYTE   Gn3
 BYTE   W06
 BYTE   Bn2
 BYTE   W06
 BYTE   Bn3
 BYTE   W06
 BYTE   Gn3
 BYTE   W06
 BYTE   Bn3
 BYTE   W06
 BYTE   Gn3
 BYTE   W06
 BYTE   Bn2
 BYTE   W06
 BYTE   Bn3
 BYTE   W06
 BYTE   Gn3
 BYTE   W06
 BYTE   Bn2
 BYTE   W06
 BYTE   Bn3
 BYTE   W06
 BYTE   Gn3
 BYTE   W06
 BYTE   Bn3
 BYTE   W06
 BYTE   Gn3
 BYTE   W06
 BYTE   PEND 
// 004   ----------------------------------------
Label_7_015F6F70:
 BYTE   N06  Bn2  v127
 BYTE   W06
 BYTE   Bn3
 BYTE   W06
 BYTE   Gn3
 BYTE   W06
 BYTE   Bn2
 BYTE   W06
 BYTE   Bn3
 BYTE   W06
 BYTE   Gn3
 BYTE   W06
 BYTE   Cn4
 BYTE   W06
 BYTE   An3
 BYTE   W06
 BYTE   Cn3
 BYTE   W06
 BYTE   Cn4
 BYTE   W06
 BYTE   An3
 BYTE   W06
 BYTE   Cn3
 BYTE   W06
 BYTE   Cn4
 BYTE   W06
 BYTE   An3
 BYTE   W06
 BYTE   Cn4
 BYTE   W06
 BYTE   An3
 BYTE   W06
 BYTE   PEND 
 BYTE   PATT
  POIN2 Label_7_015F6F07
 BYTE   PATT
  POIN2 Label_7_015F6F2A
 BYTE   PATT
  POIN2 Label_7_015F6F4D
// 005   ----------------------------------------
Label_7_015F6FA2:
 BYTE   N06  Bn2  v127
 BYTE   W06
 BYTE   Bn3
 BYTE   W06
 BYTE   Gn3
 BYTE   W06
 BYTE   Bn2
 BYTE   W06
 BYTE   Bn3
 BYTE   W06
 BYTE   Gn3
 BYTE   W06
 BYTE   Cn4
 BYTE   W06
 BYTE   An3
 BYTE   W06
 BYTE   Dn3
 BYTE   W06
 BYTE   Cn4
 BYTE   W06
 BYTE   An3
 BYTE   W06
 BYTE   Dn3
 BYTE   W06
 BYTE   Cn4
 BYTE   W06
 BYTE   An3
 BYTE   W06
 BYTE   Cn4
 BYTE   W06
 BYTE   An3
 BYTE   W06
 BYTE   PEND 
// 006   ----------------------------------------
Label_7_015F6FC5:
 BYTE   N06  Dn3  v127
 BYTE   W06
 BYTE   Cn4
 BYTE   W06
 BYTE   An3
 BYTE   W06
 BYTE   Dn3
 BYTE   W06
 BYTE   Cn4
 BYTE   W06
 BYTE   An3
 BYTE   W06
 BYTE   Cn4
 BYTE   W06
 BYTE   An3
 BYTE   W06
 BYTE   Dn3
 BYTE   W06
 BYTE   Cn4
 BYTE   W06
 BYTE   An3
 BYTE   W06
 BYTE   Dn3
 BYTE   W06
 BYTE   Cn4
 BYTE   W06
 BYTE   An3
 BYTE   W06
 BYTE   Cn4
 BYTE   W06
 BYTE   An3
 BYTE   W06
 BYTE   PEND 
// 007   ----------------------------------------
Label_7_015F6FE8:
 BYTE   N06  Dn3  v127
 BYTE   W06
 BYTE   Cn4
 BYTE   W06
 BYTE   An3
 BYTE   W06
 BYTE   Dn3
 BYTE   W06
 BYTE   Cn4
 BYTE   W06
 BYTE   An3
 BYTE   W06
 BYTE   Bn3
 BYTE   W06
 BYTE   Gn3
 BYTE   W06
 BYTE   Cn3
 BYTE   W06
 BYTE   Bn3
 BYTE   W06
 BYTE   Gn3
 BYTE   W06
 BYTE   Cn3
 BYTE   W06
 BYTE   Bn3
 BYTE   W06
 BYTE   Gn3
 BYTE   W06
 BYTE   Bn3
 BYTE   W06
 BYTE   Gn3
 BYTE   W06
 BYTE   PEND 
// 008   ----------------------------------------
Label_7_015F700B:
 BYTE   N06  Cn3  v127
 BYTE   W06
 BYTE   Bn3
 BYTE   W06
 BYTE   Gn3
 BYTE   W06
 BYTE   Cn3
 BYTE   W06
 BYTE   Bn3
 BYTE   W06
 BYTE   Gn3
 BYTE   W06
 BYTE   Bn3
 BYTE   W06
 BYTE   Gn3
 BYTE   W06
 BYTE   Cn3
 BYTE   W06
 BYTE   Bn3
 BYTE   W06
 BYTE   Gn3
 BYTE   W06
 BYTE   Cn3
 BYTE   W06
 BYTE   Bn3
 BYTE   W06
 BYTE   Gn3
 BYTE   W06
 BYTE   Bn3
 BYTE   W06
 BYTE   Gn3
 BYTE   W06
 BYTE   PEND 
// 009   ----------------------------------------
Label_7_015F702E:
 BYTE   N06  Cn3  v127
 BYTE   W06
 BYTE   Bn3
 BYTE   W06
 BYTE   Gn3
 BYTE   W06
 BYTE   Cn3
 BYTE   W06
 BYTE   Bn3
 BYTE   W06
 BYTE   Gn3
 BYTE   W06
 BYTE   Cn4
 BYTE   W06
 BYTE   Gn3
 BYTE   W06
 BYTE   Cn3
 BYTE   W06
 BYTE   Cn4
 BYTE   W06
 BYTE   Gn3
 BYTE   W06
 BYTE   Cn3
 BYTE   W06
 BYTE   Cn4
 BYTE   W06
 BYTE   Gn3
 BYTE   W06
 BYTE   Cn4
 BYTE   W06
 BYTE   Gn3
 BYTE   W06
 BYTE   PEND 
// 010   ----------------------------------------
Label_7_015F7051:
 BYTE   N06  Cn3  v127
 BYTE   W06
 BYTE   Cn4
 BYTE   W06
 BYTE   Gn3
 BYTE   W06
 BYTE   Cn3
 BYTE   W06
 BYTE   Cn4
 BYTE   W06
 BYTE   Gn3
 BYTE   W06
 BYTE   Cn4
 BYTE   W06
 BYTE   Gn3
 BYTE   W06
 BYTE   Cn3
 BYTE   W06
 BYTE   Cn4
 BYTE   W06
 BYTE   Gn3
 BYTE   W06
 BYTE   Cn3
 BYTE   W06
 BYTE   Cn4
 BYTE   W06
 BYTE   Gn3
 BYTE   W06
 BYTE   Cn4
 BYTE   W06
 BYTE   Gn3
 BYTE   W06
 BYTE   PEND 
// 011   ----------------------------------------
Label_7_015F7074:
 BYTE   N06  Cn3  v127
 BYTE   W06
 BYTE   Cn4
 BYTE   W06
 BYTE   Gn3
 BYTE   W06
 BYTE   Cn3
 BYTE   W06
 BYTE   Cn4
 BYTE   W06
 BYTE   Gn3
 BYTE   W06
 BYTE   Cn4
 BYTE   W06
 BYTE   An3
 BYTE   W06
 BYTE   Dn3
 BYTE   W06
 BYTE   Cn4
 BYTE   W06
 BYTE   An3
 BYTE   W06
 BYTE   Dn3
 BYTE   W06
 BYTE   Cn4
 BYTE   W06
 BYTE   An3
 BYTE   W06
 BYTE   Cn4
 BYTE   W06
 BYTE   An3
 BYTE   W06
 BYTE   PEND 
// 012   ----------------------------------------
Label_7_015F7097:
 BYTE   N06  Dn3  v127
 BYTE   W06
 BYTE   Cn4
 BYTE   W06
 BYTE   An3
 BYTE   W06
 BYTE   Dn3
 BYTE   W06
 BYTE   Cn4
 BYTE   W06
 BYTE   An3
 BYTE   W06
 BYTE   Cn4
 BYTE   W06
 BYTE   An3
 BYTE   W06
 BYTE   Dn3
 BYTE   W06
 BYTE   Cn4
 BYTE   W06
 BYTE   An3
 BYTE   W06
 BYTE   Dn3
 BYTE   W06
 BYTE   Cn4
 BYTE   W06
 BYTE   An3
 BYTE   W06
 BYTE   Dn4
 BYTE   W06
 BYTE   Bn3
 BYTE   W06
 BYTE   PEND 
// 013   ----------------------------------------
Label_7_015F70BA:
 BYTE   N06  Fn3  v127
 BYTE   W06
 BYTE   Dn4
 BYTE   W06
 BYTE   Bn3
 BYTE   W06
 BYTE   Fn3
 BYTE   W06
 BYTE   Dn4
 BYTE   W06
 BYTE   Gs3
 BYTE   W06
 BYTE   Cn4
 BYTE   W06
 BYTE   An3
 BYTE   W06
 BYTE   Cn3
 BYTE   W06
 BYTE   Cn4
 BYTE   W06
 BYTE   An3
 BYTE   W06
 BYTE   Cn3
 BYTE   W06
 BYTE   Cn4
 BYTE   W06
 BYTE   An3
 BYTE   W06
 BYTE   Cn4
 BYTE   W06
 BYTE   An3
 BYTE   W06
 BYTE   PEND 
 BYTE   PATT
  POIN2 Label_7_015F6F07
 BYTE   PATT
  POIN2 Label_7_015F6F2A
 BYTE   PATT
  POIN2 Label_7_015F6F4D
 BYTE   PATT
  POIN2 Label_7_015F6F70
 BYTE   PATT
  POIN2 Label_7_015F6F07
 BYTE   PATT
  POIN2 Label_7_015F6F2A
 BYTE   PATT
  POIN2 Label_7_015F6F4D
 BYTE   PATT
  POIN2 Label_7_015F6FA2
 BYTE   PATT
  POIN2 Label_7_015F6FC5
 BYTE   PATT
  POIN2 Label_7_015F6FE8
 BYTE   PATT
  POIN2 Label_7_015F700B
 BYTE   PATT
  POIN2 Label_7_015F702E
 BYTE   PATT
  POIN2 Label_7_015F7074
// 014   ----------------------------------------
Label_7_015F711E:
 BYTE   N06  Dn3  v127
 BYTE   W06
 BYTE   Cn4
 BYTE   W06
 BYTE   An3
 BYTE   W06
 BYTE   Dn3
 BYTE   W06
 BYTE   Cn4
 BYTE   W06
 BYTE   An3
 BYTE   W06
 BYTE   Cn4
 BYTE   W06
 BYTE   Gn3
 BYTE   W06
 BYTE   Cn3
 BYTE   W06
 BYTE   Cn4
 BYTE   W06
 BYTE   Gn3
 BYTE   W06
 BYTE   Cn3
 BYTE   W06
 BYTE   Cn4
 BYTE   W06
 BYTE   Gn3
 BYTE   W06
 BYTE   Cn4
 BYTE   W06
 BYTE   Gn3
 BYTE   W06
 BYTE   PEND 
// 015   ----------------------------------------
Label_7_015F7141:
 BYTE   N06  Cn3  v127
 BYTE   W06
 BYTE   Cn4
 BYTE   W06
 BYTE   Gn3
 BYTE   W06
 BYTE   Cn3
 BYTE   W06
 BYTE   Cn4
 BYTE   W06
 BYTE   Gn3
 BYTE   W06
 BYTE   Bn3
 BYTE   W06
 BYTE   Gn3
 BYTE   W06
 BYTE   Cn3
 BYTE   W06
 BYTE   Bn3
 BYTE   W06
 BYTE   Gn3
 BYTE   W06
 BYTE   Cn3
 BYTE   W06
 BYTE   Bn3
 BYTE   W06
 BYTE   Gn3
 BYTE   W06
 BYTE   Bn3
 BYTE   W06
 BYTE   Gn3
 BYTE   W06
 BYTE   PEND 
// 016   ----------------------------------------
Label_7_015F7164:
 BYTE   N06  Cn3  v127
 BYTE   W06
 BYTE   Bn3
 BYTE   W06
 BYTE   Gn3
 BYTE   W06
 BYTE   Cn3
 BYTE   W06
 BYTE   Bn3
 BYTE   W06
 BYTE   N05  Gn3
 BYTE   W05
 BYTE   W01
 BYTE   N06  Ds3
 BYTE   W06
 BYTE   Cn3
 BYTE   W06
 BYTE   Ds2
 BYTE   W06
 BYTE   Ds3
 BYTE   W06
 BYTE   Cn3
 BYTE   W06
 BYTE   Ds2
 BYTE   W06
 BYTE   Ds3
 BYTE   W06
 BYTE   Cn3
 BYTE   W06
 BYTE   Ds3
 BYTE   W06
 BYTE   Cn3
 BYTE   W06
 BYTE   PEND 
// 017   ----------------------------------------
Label_7_015F718A:
 BYTE   N06  Ds2  v127
 BYTE   W06
 BYTE   Ds3
 BYTE   W06
 BYTE   Cn3
 BYTE   W06
 BYTE   Ds2
 BYTE   W06
 BYTE   Ds3
 BYTE   W06
 BYTE   Cn3
 BYTE   W06
 BYTE   Dn3
 BYTE   W06
 BYTE   As2
 BYTE   W06
 BYTE   Dn2
 BYTE   W06
 BYTE   Dn3
 BYTE   W06
 BYTE   As2
 BYTE   W06
 BYTE   Dn2
 BYTE   W06
 BYTE   Dn3
 BYTE   W06
 BYTE   As2
 BYTE   W06
 BYTE   Dn3
 BYTE   W06
 BYTE   As2
 BYTE   W06
 BYTE   PEND 
// 018   ----------------------------------------
Label_7_015F71AD:
 BYTE   N06  Dn2  v127
 BYTE   W06
 BYTE   Dn3
 BYTE   W06
 BYTE   As2
 BYTE   W06
 BYTE   Dn2
 BYTE   W06
 BYTE   Dn3
 BYTE   W06
 BYTE   As2
 BYTE   W06
 BYTE   Dn3
 BYTE   W06
 BYTE   Bn2
 BYTE   W06
 BYTE   En2
 BYTE   W06
 BYTE   Dn3
 BYTE   W06
 BYTE   Bn2
 BYTE   W06
 BYTE   En2
 BYTE   W06
 BYTE   Dn3
 BYTE   W06
 BYTE   Bn2
 BYTE   W06
 BYTE   Dn3
 BYTE   W06
 BYTE   Bn2
 BYTE   W06
 BYTE   PEND 
// 019   ----------------------------------------
Label_7_015F71D0:
 BYTE   N06  En2  v127
 BYTE   W06
 BYTE   Dn3
 BYTE   W06
 BYTE   Bn2
 BYTE   W06
 BYTE   En2
 BYTE   W06
 BYTE   Dn3
 BYTE   W06
 BYTE   Bn2
 BYTE   W06
 BYTE   En3
 BYTE   W06
 BYTE   Cn3
 BYTE   W06
 BYTE   En2
 BYTE   W06
 BYTE   En3
 BYTE   W06
 BYTE   Cn3
 BYTE   W06
 BYTE   En2
 BYTE   W06
 BYTE   En3
 BYTE   W06
 BYTE   Cn3
 BYTE   W06
 BYTE   En3
 BYTE   W06
 BYTE   Cn3
 BYTE   W06
 BYTE   PEND 
// 020   ----------------------------------------
Label_7_015F71F3:
 BYTE   N06  En2  v127
 BYTE   W06
 BYTE   En3
 BYTE   W06
 BYTE   Cn3
 BYTE   W06
 BYTE   En2
 BYTE   W06
 BYTE   En3
 BYTE   W06
 BYTE   Cn3
 BYTE   W06
 BYTE   En3
 BYTE   W06
 BYTE   Cn3
 BYTE   W06
 BYTE   Cn2
 BYTE   W06
 BYTE   En3
 BYTE   W06
 BYTE   Cn3
 BYTE   W06
 BYTE   Cn2
 BYTE   W06
 BYTE   En3
 BYTE   W06
 BYTE   Cn3
 BYTE   W06
 BYTE   En3
 BYTE   W06
 BYTE   Cn3
 BYTE   W06
 BYTE   PEND 
// 021   ----------------------------------------
Label_7_015F7216:
 BYTE   N06  Cn2  v127
 BYTE   W06
 BYTE   En3
 BYTE   W06
 BYTE   Cn3
 BYTE   W06
 BYTE   Cn2
 BYTE   W06
 BYTE   En3
 BYTE   W06
 BYTE   Cn3
 BYTE   W06
 BYTE   Dn3
 BYTE   W06
 BYTE   Bn2
 BYTE   W06
 BYTE   Cn2
 BYTE   W06
 BYTE   Dn3
 BYTE   W06
 BYTE   Bn2
 BYTE   W06
 BYTE   Cn2
 BYTE   W06
 BYTE   Dn3
 BYTE   W06
 BYTE   Bn2
 BYTE   W06
 BYTE   Dn3
 BYTE   W06
 BYTE   Bn2
 BYTE   W06
 BYTE   PEND 
// 022   ----------------------------------------
Label_7_015F7239:
 BYTE   N06  Cn2  v127
 BYTE   W06
 BYTE   Dn3
 BYTE   W06
 BYTE   Bn2
 BYTE   W06
 BYTE   Cn2
 BYTE   W06
 BYTE   Dn3
 BYTE   W06
 BYTE   Bn2
 BYTE   W06
 BYTE   En3
 BYTE   W06
 BYTE   Dn3
 BYTE   W06
 BYTE   En2
 BYTE   W06
 BYTE   En3
 BYTE   W06
 BYTE   Dn3
 BYTE   W06
 BYTE   En2
 BYTE   W06
 BYTE   En3
 BYTE   W06
 BYTE   Dn3
 BYTE   W06
 BYTE   En3
 BYTE   W06
 BYTE   Dn3
 BYTE   W06
 BYTE   PEND 
// 023   ----------------------------------------
Label_7_015F725C:
 BYTE   N06  En2  v127
 BYTE   W06
 BYTE   En3
 BYTE   W06
 BYTE   Dn3
 BYTE   W06
 BYTE   En2
 BYTE   W06
 BYTE   En3
 BYTE   W06
 BYTE   Dn3
 BYTE   W06
 BYTE   Gn3
 BYTE   W06
 BYTE   En3
 BYTE   W06
 BYTE   En2
 BYTE   W06
 BYTE   Gn3
 BYTE   W06
 BYTE   En3
 BYTE   W06
 BYTE   En2
 BYTE   W06
 BYTE   Gn3
 BYTE   W06
 BYTE   En3
 BYTE   W06
 BYTE   Cs4
 BYTE   W06
 BYTE   Gn3
 BYTE   W06
 BYTE   PEND 
// 024   ----------------------------------------
Label_7_015F727F:
 BYTE   N06  En2  v127
 BYTE   W06
 BYTE   Cs4
 BYTE   W06
 BYTE   Gn3
 BYTE   W06
 BYTE   En2
 BYTE   W06
 BYTE   Cs4
 BYTE   W06
 BYTE   Gn3
 BYTE   W05
 BYTE   W01
 BYTE   N04  En3
 BYTE   W06
 BYTE   Cn3
 BYTE   W06
 BYTE   Cn2
 BYTE   W06
 BYTE   En3
 BYTE   W06
 BYTE   Cn3
 BYTE   W06
 BYTE   Cn2
 BYTE   W06
 BYTE   En3
 BYTE   W06
 BYTE   Cn3
 BYTE   W06
 BYTE   En3
 BYTE   W06
 BYTE   Cn3
 BYTE   W06
 BYTE   PEND 
// 025   ----------------------------------------
Label_7_015F72A4:
 BYTE   N04  Cn2  v127
 BYTE   W06
 BYTE   En3
 BYTE   W06
 BYTE   Cn3
 BYTE   W06
 BYTE   Cn2
 BYTE   W06
 BYTE   En3
 BYTE   W06
 BYTE   Cn3
 BYTE   W06
 BYTE   Dn3
 BYTE   W06
 BYTE   Bn2
 BYTE   W06
 BYTE   Cn2
 BYTE   W06
 BYTE   Dn3
 BYTE   W06
 BYTE   Bn2
 BYTE   W06
 BYTE   Cn2
 BYTE   W06
 BYTE   Dn3
 BYTE   W06
 BYTE   Bn2
 BYTE   W06
 BYTE   Dn3
 BYTE   W06
 BYTE   Bn2
 BYTE   W06
 BYTE   PEND 
// 026   ----------------------------------------
Label_7_015F72C7:
 BYTE   N04  Cn2  v127
 BYTE   W06
 BYTE   Dn3
 BYTE   W06
 BYTE   Bn2
 BYTE   W06
 BYTE   Cn2
 BYTE   W06
 BYTE   Dn3
 BYTE   W06
 BYTE   Bn2
 BYTE   W06
 BYTE   Dn3
 BYTE   W06
 BYTE   Bn2
 BYTE   W06
 BYTE   Bn1
 BYTE   W06
 BYTE   Dn3
 BYTE   W06
 BYTE   Bn2
 BYTE   W06
 BYTE   Bn1
 BYTE   W06
 BYTE   Dn3
 BYTE   W06
 BYTE   Bn2
 BYTE   W06
 BYTE   Dn3
 BYTE   W06
 BYTE   Bn2
 BYTE   W06
 BYTE   PEND 
// 027   ----------------------------------------
Label_7_015F72EA:
 BYTE   N04  Bn1  v127
 BYTE   W06
 BYTE   Dn3
 BYTE   W06
 BYTE   Bn2
 BYTE   W06
 BYTE   Bn1
 BYTE   W06
 BYTE   Dn3
 BYTE   W06
 BYTE   Bn2
 BYTE   W06
 BYTE   En3
 BYTE   W06
 BYTE   Cs3
 BYTE   W06
 BYTE   Cs2
 BYTE   W06
 BYTE   En3
 BYTE   W06
 BYTE   Cs3
 BYTE   W06
 BYTE   Cs2
 BYTE   W06
 BYTE   En3
 BYTE   W06
 BYTE   Cs3
 BYTE   W06
 BYTE   En3
 BYTE   W06
 BYTE   Cs3
 BYTE   W06
 BYTE   PEND 
// 028   ----------------------------------------
Label_7_015F730D:
 BYTE   N04  Cs2  v127
 BYTE   W06
 BYTE   En3
 BYTE   W06
 BYTE   Cs3
 BYTE   W06
 BYTE   Cs2
 BYTE   W06
 BYTE   En3
 BYTE   W06
 BYTE   Cs3
 BYTE   W06
 BYTE   Fn3
 BYTE   W06
 BYTE   Cn3
 BYTE   W06
 BYTE   Dn2
 BYTE   W06
 BYTE   Fn3
 BYTE   W06
 BYTE   Cn3
 BYTE   W06
 BYTE   Dn2
 BYTE   W06
 BYTE   Fn3
 BYTE   W06
 BYTE   Cn3
 BYTE   W06
 BYTE   Fn3
 BYTE   W06
 BYTE   Cn3
 BYTE   W06
 BYTE   PEND 
// 029   ----------------------------------------
Label_7_015F7330:
 BYTE   N04  Dn2  v127
 BYTE   W06
 BYTE   Fn3
 BYTE   W06
 BYTE   Cn3
 BYTE   W06
 BYTE   Dn2
 BYTE   W06
 BYTE   Fn3
 BYTE   W06
 BYTE   Cn3
 BYTE   W06
 BYTE   Gn3
 BYTE   W06
 BYTE   Dn3
 BYTE   W06
 BYTE   En2
 BYTE   W06
 BYTE   Gn3
 BYTE   W06
 BYTE   Dn3
 BYTE   W06
 BYTE   En2
 BYTE   W06
 BYTE   Gn3
 BYTE   W06
 BYTE   Dn3
 BYTE   W06
 BYTE   Gn3
 BYTE   W06
 BYTE   Dn3
 BYTE   W06
 BYTE   PEND 
// 030   ----------------------------------------
Label_7_015F7353:
 BYTE   N04  En2  v127
 BYTE   W06
 BYTE   Gn3
 BYTE   W06
 BYTE   Dn3
 BYTE   W06
 BYTE   En2
 BYTE   W06
 BYTE   Gn3
 BYTE   W06
 BYTE   Dn3
 BYTE   W06
 BYTE   An3
 BYTE   W06
 BYTE   En3
 BYTE   W06
 BYTE   Fn2
 BYTE   W06
 BYTE   An3
 BYTE   W06
 BYTE   En3
 BYTE   W06
 BYTE   Fn2
 BYTE   W06
 BYTE   An3
 BYTE   W06
 BYTE   En3
 BYTE   W06
 BYTE   An3
 BYTE   W06
 BYTE   En3
 BYTE   W06
 BYTE   PEND 
// 031   ----------------------------------------
Label_7_015F7376:
 BYTE   N04  Fn2  v127
 BYTE   W06
 BYTE   An3
 BYTE   W06
 BYTE   En3
 BYTE   W06
 BYTE   Fn2
 BYTE   W06
 BYTE   An3
 BYTE   W06
 BYTE   En3
 BYTE   W06
 BYTE   Fn3
 BYTE   W06
 BYTE   Dn3
 BYTE   W06
 BYTE   Dn2
 BYTE   W06
 BYTE   Fn3
 BYTE   W06
 BYTE   Dn3
 BYTE   W06
 BYTE   Dn2
 BYTE   W06
 BYTE   Fn3
 BYTE   W06
 BYTE   Dn3
 BYTE   W06
 BYTE   Fn3
 BYTE   W06
 BYTE   Dn3
 BYTE   W06
 BYTE   PEND 
// 032   ----------------------------------------
Label_7_015F7399:
 BYTE   N04  Dn2  v127
 BYTE   W06
 BYTE   Fn3
 BYTE   W06
 BYTE   Dn3
 BYTE   W06
 BYTE   Dn2
 BYTE   W06
 BYTE   Fn3
 BYTE   W06
 BYTE   Dn3
 BYTE   W06
 BYTE   Gn3
 BYTE   W06
 BYTE   Ds3
 BYTE   W06
 BYTE   Ds2
 BYTE   W06
 BYTE   Gn3
 BYTE   W06
 BYTE   Ds3
 BYTE   W06
 BYTE   Ds2
 BYTE   W06
 BYTE   Gn3
 BYTE   W06
 BYTE   Ds3
 BYTE   W06
 BYTE   Gn3
 BYTE   W06
 BYTE   Ds3
 BYTE   W06
 BYTE   PEND 
// 033   ----------------------------------------
Label_7_015F73BC:
 BYTE   N04  Ds2  v127
 BYTE   W06
 BYTE   Gn3
 BYTE   W06
 BYTE   Ds3
 BYTE   W06
 BYTE   Ds2
 BYTE   W06
 BYTE   Gn3
 BYTE   W06
 BYTE   Ds3
 BYTE   W06
 BYTE   Gn3
 BYTE   W06
 BYTE   Ds3
 BYTE   W06
 BYTE   Fn2
 BYTE   W06
 BYTE   Gn3
 BYTE   W06
 BYTE   Ds3
 BYTE   W06
 BYTE   Fn2
 BYTE   W06
 BYTE   Gn3
 BYTE   W06
 BYTE   Ds3
 BYTE   W06
 BYTE   Gn3
 BYTE   W06
 BYTE   Ds3
 BYTE   W06
 BYTE   PEND 
// 034   ----------------------------------------
Label_7_015F73DF:
 BYTE   N04  Fn2  v127
 BYTE   W06
 BYTE   Gn3
 BYTE   W06
 BYTE   Ds3
 BYTE   W06
 BYTE   Fn2
 BYTE   W06
 BYTE   Gn3
 BYTE   W06
 BYTE   Ds3
 BYTE   W06
 BYTE   Gn3
 BYTE   W06
 BYTE   Dn3
 BYTE   W06
 BYTE   En2
 BYTE   W06
 BYTE   Gn3
 BYTE   W06
 BYTE   Dn3
 BYTE   W06
 BYTE   En2
 BYTE   W06
 BYTE   Gn3
 BYTE   W06
 BYTE   Dn3
 BYTE   W06
 BYTE   Gn3
 BYTE   W06
 BYTE   Dn3
 BYTE   W06
 BYTE   PEND 
// 035   ----------------------------------------
Label_7_015F7402:
 BYTE   N04  En2  v127
 BYTE   W06
 BYTE   Gn3
 BYTE   W06
 BYTE   Dn3
 BYTE   W06
 BYTE   En2
 BYTE   W06
 BYTE   Gn3
 BYTE   W06
 BYTE   Dn3
 BYTE   W06
 BYTE   Gn3
 BYTE   W06
 BYTE   Dn3
 BYTE   W06
 BYTE   En2
 BYTE   W06
 BYTE   Gn3
 BYTE   W06
 BYTE   Dn3
 BYTE   W06
 BYTE   En2
 BYTE   W06
 BYTE   Gn3
 BYTE   W06
 BYTE   Dn3
 BYTE   W06
 BYTE   Gn3
 BYTE   W06
 BYTE   Dn3
 BYTE   W06
 BYTE   PEND 
// 036   ----------------------------------------
 BYTE   En2
 BYTE   W06
 BYTE   Gn3
 BYTE   W06
 BYTE   Dn3
 BYTE   W06
 BYTE   En2
 BYTE   W06
 BYTE   Gn3
 BYTE   W06
 BYTE   Dn3
 BYTE   W05
 BYTE   W01
 BYTE   N06  Cn4
 BYTE   W06
 BYTE   An3
 BYTE   W06
 BYTE   Cn3
 BYTE   W06
 BYTE   Cn4
 BYTE   W06
 BYTE   An3
 BYTE   W06
 BYTE   Cn3
 BYTE   W06
 BYTE   Cn4
 BYTE   W06
 BYTE   An3
 BYTE   W06
 BYTE   Cn4
 BYTE   W06
 BYTE   An3
 BYTE   W06
 BYTE   PATT
  POIN2 Label_7_015F6F07
 BYTE   PATT
  POIN2 Label_7_015F6F2A
 BYTE   PATT
  POIN2 Label_7_015F6F4D
 BYTE   PATT
  POIN2 Label_7_015F6F70
 BYTE   PATT
  POIN2 Label_7_015F6F07
 BYTE   PATT
  POIN2 Label_7_015F6F2A
 BYTE   PATT
  POIN2 Label_7_015F6F4D
 BYTE   PATT
  POIN2 Label_7_015F6FA2
 BYTE   PATT
  POIN2 Label_7_015F6FC5
 BYTE   PATT
  POIN2 Label_7_015F6FE8
 BYTE   PATT
  POIN2 Label_7_015F700B
 BYTE   PATT
  POIN2 Label_7_015F702E
 BYTE   PATT
  POIN2 Label_7_015F7051
 BYTE   PATT
  POIN2 Label_7_015F7074
 BYTE   PATT
  POIN2 Label_7_015F7097
 BYTE   PATT
  POIN2 Label_7_015F70BA
 BYTE   PATT
  POIN2 Label_7_015F6F07
 BYTE   PATT
  POIN2 Label_7_015F6F2A
 BYTE   PATT
  POIN2 Label_7_015F6F4D
 BYTE   PATT
  POIN2 Label_7_015F6F70
 BYTE   PATT
  POIN2 Label_7_015F6F07
 BYTE   PATT
  POIN2 Label_7_015F6F2A
 BYTE   PATT
  POIN2 Label_7_015F6F4D
 BYTE   PATT
  POIN2 Label_7_015F6FA2
 BYTE   PATT
  POIN2 Label_7_015F6FC5
 BYTE   PATT
  POIN2 Label_7_015F6FE8
 BYTE   PATT
  POIN2 Label_7_015F700B
 BYTE   PATT
  POIN2 Label_7_015F702E
 BYTE   PATT
  POIN2 Label_7_015F7074
 BYTE   PATT
  POIN2 Label_7_015F711E
 BYTE   PATT
  POIN2 Label_7_015F7141
 BYTE   PATT
  POIN2 Label_7_015F7164
 BYTE   PATT
  POIN2 Label_7_015F718A
 BYTE   PATT
  POIN2 Label_7_015F71AD
 BYTE   PATT
  POIN2 Label_7_015F71D0
 BYTE   PATT
  POIN2 Label_7_015F71F3
 BYTE   PATT
  POIN2 Label_7_015F7216
 BYTE   PATT
  POIN2 Label_7_015F7239
 BYTE   PATT
  POIN2 Label_7_015F725C
 BYTE   PATT
  POIN2 Label_7_015F727F
 BYTE   PATT
  POIN2 Label_7_015F72A4
 BYTE   PATT
  POIN2 Label_7_015F72C7
 BYTE   PATT
  POIN2 Label_7_015F72EA
 BYTE   PATT
  POIN2 Label_7_015F730D
 BYTE   PATT
  POIN2 Label_7_015F7330
 BYTE   PATT
  POIN2 Label_7_015F7353
 BYTE   PATT
  POIN2 Label_7_015F7376
 BYTE   PATT
  POIN2 Label_7_015F7399
 BYTE   PATT
  POIN2 Label_7_015F73BC
 BYTE   PATT
  POIN2 Label_7_015F73DF
 BYTE   PATT
  POIN2 Label_7_015F7402
// 037   ----------------------------------------
 BYTE   N04  En2  v127
 BYTE   W06
 BYTE   Gn3
 BYTE   W06
 BYTE   Dn3
 BYTE   W06
 BYTE   En2
 BYTE   W06
 BYTE   GoTo
  POIN2 Label_7_015F6EE6
// 038   ----------------------------------------
 BYTE   N04  Gn3  v127
 BYTE   W06
 BYTE   Dn3
 BYTE   W04
 BYTE   FINE

//**************** Track 9 (Midi-Chn.8) ****************//

KirbyDreamLandRippleField1Pandan_009:
// 000   ----------------------------------------
 BYTE   VOL   60*KirbyDreamLandRippleField1Pandan_mvl/mxv
 BYTE   KEYSH   KirbyDreamLandRippleField1Pandan_key+0
Label_8_0160407C:
 BYTE   VOICE   127
 BYTE   MODT 0
 BYTE   CnM2
 BYTE   LFOS 0
 BYTE   Gs1
 BYTE   PAN   c_v+0
 BYTE   W24
 BYTE   N06  Cn1  v088
 BYTE   W06
 BYTE   PAN   c_v-64
 BYTE   N06  Fs1  v064
 BYTE   W06
 BYTE   PAN   c_v+0
 BYTE   N06  Fs1  v080
 BYTE   W06
 BYTE   PAN   c_v+63
 BYTE   N06  Fs1  v100
 BYTE   W12
 BYTE   PAN   c_v-64
 BYTE   N06  Fs1  v064
 BYTE   W06
 BYTE   PAN   c_v+0
 BYTE   N06  Fs1  v080
 BYTE   W06
 BYTE   PAN   c_v+63
 BYTE   N06  Fs1  v100
 BYTE   W06
 BYTE   PAN   c_v+0
 BYTE   N06  Cn1  v088
 BYTE   W06
 BYTE   PAN   c_v-64
 BYTE   N06  Fs1  v064
 BYTE   W06
 BYTE   PAN   c_v+0
 BYTE   N06  Fs1  v080
 BYTE   W06
 BYTE   PAN   c_v+63
 BYTE   N06  Fs1  v100
 BYTE   W06
// 001   ----------------------------------------
Label_8_016040C5:
 BYTE   W06
 BYTE   PAN   c_v-64
 BYTE   N06  Fs1  v064
 BYTE   W06
 BYTE   PAN   c_v+0
 BYTE   N06  Fs1  v080
 BYTE   W06
 BYTE   PAN   c_v+63
 BYTE   N06  Fs1  v100
 BYTE   W06
 BYTE   PAN   c_v+0
 BYTE   N06  Cn1  v088
 BYTE   W06
 BYTE   PAN   c_v-64
 BYTE   N06  Fs1  v064
 BYTE   W06
 BYTE   PAN   c_v+0
 BYTE   N06  Fs1  v080
 BYTE   W06
 BYTE   PAN   c_v+63
 BYTE   N06  Fs1  v100
 BYTE   W12
 BYTE   PAN   c_v-64
 BYTE   N06  Fs1  v064
 BYTE   W06
 BYTE   PAN   c_v+0
 BYTE   N06  Fs1  v080
 BYTE   W06
 BYTE   PAN   c_v+63
 BYTE   N06  Fs1  v100
 BYTE   W06
 BYTE   PAN   c_v+0
 BYTE   N06  Cn1  v088
 BYTE   W06
 BYTE   PAN   c_v-64
 BYTE   N06  Fs1  v064
 BYTE   W06
 BYTE   PAN   c_v+0
 BYTE   N06  Fs1  v080
 BYTE   W06
 BYTE   PAN   c_v+63
 BYTE   N06  Fs1  v100
 BYTE   W06
 BYTE   PEND 
 BYTE   PATT
  POIN2 Label_8_016040C5
 BYTE   PATT
  POIN2 Label_8_016040C5
 BYTE   PATT
  POIN2 Label_8_016040C5
 BYTE   PATT
  POIN2 Label_8_016040C5
 BYTE   PATT
  POIN2 Label_8_016040C5
 BYTE   PATT
  POIN2 Label_8_016040C5
 BYTE   PATT
  POIN2 Label_8_016040C5
 BYTE   PATT
  POIN2 Label_8_016040C5
 BYTE   PATT
  POIN2 Label_8_016040C5
 BYTE   PATT
  POIN2 Label_8_016040C5
 BYTE   PATT
  POIN2 Label_8_016040C5
 BYTE   PATT
  POIN2 Label_8_016040C5
 BYTE   PATT
  POIN2 Label_8_016040C5
 BYTE   PATT
  POIN2 Label_8_016040C5
 BYTE   PATT
  POIN2 Label_8_016040C5
 BYTE   PATT
  POIN2 Label_8_016040C5
 BYTE   PATT
  POIN2 Label_8_016040C5
 BYTE   PATT
  POIN2 Label_8_016040C5
 BYTE   PATT
  POIN2 Label_8_016040C5
 BYTE   PATT
  POIN2 Label_8_016040C5
 BYTE   PATT
  POIN2 Label_8_016040C5
 BYTE   PATT
  POIN2 Label_8_016040C5
 BYTE   PATT
  POIN2 Label_8_016040C5
 BYTE   PATT
  POIN2 Label_8_016040C5
 BYTE   PATT
  POIN2 Label_8_016040C5
 BYTE   PATT
  POIN2 Label_8_016040C5
 BYTE   PATT
  POIN2 Label_8_016040C5
 BYTE   PATT
  POIN2 Label_8_016040C5
 BYTE   PATT
  POIN2 Label_8_016040C5
 BYTE   PATT
  POIN2 Label_8_016040C5
 BYTE   PATT
  POIN2 Label_8_016040C5
 BYTE   PATT
  POIN2 Label_8_016040C5
 BYTE   PATT
  POIN2 Label_8_016040C5
 BYTE   PATT
  POIN2 Label_8_016040C5
 BYTE   PATT
  POIN2 Label_8_016040C5
 BYTE   PATT
  POIN2 Label_8_016040C5
 BYTE   PATT
  POIN2 Label_8_016040C5
 BYTE   PATT
  POIN2 Label_8_016040C5
 BYTE   PATT
  POIN2 Label_8_016040C5
 BYTE   PATT
  POIN2 Label_8_016040C5
 BYTE   PATT
  POIN2 Label_8_016040C5
 BYTE   PATT
  POIN2 Label_8_016040C5
 BYTE   PATT
  POIN2 Label_8_016040C5
 BYTE   PATT
  POIN2 Label_8_016040C5
 BYTE   PATT
  POIN2 Label_8_016040C5
 BYTE   PATT
  POIN2 Label_8_016040C5
 BYTE   PATT
  POIN2 Label_8_016040C5
 BYTE   PATT
  POIN2 Label_8_016040C5
 BYTE   PATT
  POIN2 Label_8_016040C5
 BYTE   PATT
  POIN2 Label_8_016040C5
 BYTE   PATT
  POIN2 Label_8_016040C5
 BYTE   PATT
  POIN2 Label_8_016040C5
 BYTE   PATT
  POIN2 Label_8_016040C5
 BYTE   PATT
  POIN2 Label_8_016040C5
 BYTE   PATT
  POIN2 Label_8_016040C5
 BYTE   PATT
  POIN2 Label_8_016040C5
 BYTE   PATT
  POIN2 Label_8_016040C5
 BYTE   PATT
  POIN2 Label_8_016040C5
 BYTE   PATT
  POIN2 Label_8_016040C5
 BYTE   PATT
  POIN2 Label_8_016040C5
 BYTE   PATT
  POIN2 Label_8_016040C5
 BYTE   PATT
  POIN2 Label_8_016040C5
 BYTE   PATT
  POIN2 Label_8_016040C5
 BYTE   PATT
  POIN2 Label_8_016040C5
 BYTE   PATT
  POIN2 Label_8_016040C5
 BYTE   PATT
  POIN2 Label_8_016040C5
 BYTE   PATT
  POIN2 Label_8_016040C5
 BYTE   PATT
  POIN2 Label_8_016040C5
 BYTE   PATT
  POIN2 Label_8_016040C5
 BYTE   PATT
  POIN2 Label_8_016040C5
 BYTE   PATT
  POIN2 Label_8_016040C5
 BYTE   PATT
  POIN2 Label_8_016040C5
 BYTE   PATT
  POIN2 Label_8_016040C5
 BYTE   PATT
  POIN2 Label_8_016040C5
 BYTE   PATT
  POIN2 Label_8_016040C5
 BYTE   PATT
  POIN2 Label_8_016040C5
 BYTE   PATT
  POIN2 Label_8_016040C5
 BYTE   PATT
  POIN2 Label_8_016040C5
 BYTE   PATT
  POIN2 Label_8_016040C5
 BYTE   PATT
  POIN2 Label_8_016040C5
 BYTE   PATT
  POIN2 Label_8_016040C5
 BYTE   PATT
  POIN2 Label_8_016040C5
 BYTE   PATT
  POIN2 Label_8_016040C5
 BYTE   PATT
  POIN2 Label_8_016040C5
 BYTE   PATT
  POIN2 Label_8_016040C5
 BYTE   PATT
  POIN2 Label_8_016040C5
 BYTE   PATT
  POIN2 Label_8_016040C5
 BYTE   PATT
  POIN2 Label_8_016040C5
 BYTE   PATT
  POIN2 Label_8_016040C5
 BYTE   PATT
  POIN2 Label_8_016040C5
 BYTE   PATT
  POIN2 Label_8_016040C5
 BYTE   PATT
  POIN2 Label_8_016040C5
 BYTE   PATT
  POIN2 Label_8_016040C5
 BYTE   PATT
  POIN2 Label_8_016040C5
 BYTE   PATT
  POIN2 Label_8_016040C5
 BYTE   PATT
  POIN2 Label_8_016040C5
 BYTE   PATT
  POIN2 Label_8_016040C5
 BYTE   PATT
  POIN2 Label_8_016040C5
 BYTE   PATT
  POIN2 Label_8_016040C5
 BYTE   PATT
  POIN2 Label_8_016040C5
 BYTE   PATT
  POIN2 Label_8_016040C5
 BYTE   PATT
  POIN2 Label_8_016040C5
// 002   ----------------------------------------
 BYTE   W06
 BYTE   PAN   c_v-64
 BYTE   N06  Fs1  v064
 BYTE   W06
 BYTE   PAN   c_v+0
 BYTE   N06  Fs1  v080
 BYTE   W06
 BYTE   PAN   c_v+63
 BYTE   N06  Fs1  v100
 BYTE   W06
 BYTE   GoTo
  POIN2 Label_8_0160407C
// 003   ----------------------------------------
 BYTE   W10
 BYTE   FINE

//**************** Track 10 (Midi-Chn.9) ****************//

KirbyDreamLandRippleField1Pandan_010:
// 000   ----------------------------------------
 BYTE   VOL   60*KirbyDreamLandRippleField1Pandan_mvl/mxv
 BYTE   KEYSH   KirbyDreamLandRippleField1Pandan_key+0
Label_9_01604338:
 BYTE   VOICE   127
 BYTE   MODT 0
 BYTE   CnM2
 BYTE   LFOS 0
 BYTE   Gs1
 BYTE   BENDR  16
 BYTE   BEND   c_v+14
 BYTE   N06  Dn1  v127
 BYTE   W06
 BYTE   N06
 BYTE   W06
 BYTE   BEND   c_v+4
 BYTE   N06
 BYTE   W06
 BYTE   BEND   c_v-11
 BYTE   N06
 BYTE   W06
 BYTE   BEND   c_v+14
 BYTE   N06  Cn1
 BYTE   W24
 BYTE   Dn1
 BYTE   W24
 BYTE   Cn1
 BYTE   W24
// 001   ----------------------------------------
Label_9_01604359:
 BYTE   N06  Dn1  v127
 BYTE   W24
 BYTE   Cn1
 BYTE   W24
 BYTE   Dn1
 BYTE   W24
 BYTE   Cn1
 BYTE   W24
 BYTE   PEND 
 BYTE   PATT
  POIN2 Label_9_01604359
 BYTE   PATT
  POIN2 Label_9_01604359
 BYTE   PATT
  POIN2 Label_9_01604359
 BYTE   PATT
  POIN2 Label_9_01604359
 BYTE   PATT
  POIN2 Label_9_01604359
 BYTE   PATT
  POIN2 Label_9_01604359
 BYTE   PATT
  POIN2 Label_9_01604359
 BYTE   PATT
  POIN2 Label_9_01604359
 BYTE   PATT
  POIN2 Label_9_01604359
 BYTE   PATT
  POIN2 Label_9_01604359
 BYTE   PATT
  POIN2 Label_9_01604359
 BYTE   PATT
  POIN2 Label_9_01604359
 BYTE   PATT
  POIN2 Label_9_01604359
 BYTE   PATT
  POIN2 Label_9_01604359
// 002   ----------------------------------------
Label_9_016043AA:
 BYTE   N06  Dn1  v127
 BYTE   W12
 BYTE   N06
 BYTE   W06
 BYTE   Dn1  v080
 BYTE   W06
 BYTE   Cn1  v127
 BYTE   W24
 BYTE   Dn1
 BYTE   W24
 BYTE   Cn1
 BYTE   W24
 BYTE   PEND 
 BYTE   PATT
  POIN2 Label_9_01604359
 BYTE   PATT
  POIN2 Label_9_01604359
 BYTE   PATT
  POIN2 Label_9_01604359
 BYTE   PATT
  POIN2 Label_9_01604359
 BYTE   PATT
  POIN2 Label_9_01604359
 BYTE   PATT
  POIN2 Label_9_01604359
 BYTE   PATT
  POIN2 Label_9_01604359
 BYTE   PATT
  POIN2 Label_9_01604359
 BYTE   PATT
  POIN2 Label_9_01604359
 BYTE   PATT
  POIN2 Label_9_01604359
 BYTE   PATT
  POIN2 Label_9_01604359
 BYTE   PATT
  POIN2 Label_9_01604359
 BYTE   PATT
  POIN2 Label_9_01604359
 BYTE   PATT
  POIN2 Label_9_01604359
// 003   ----------------------------------------
Label_9_01604401:
 BYTE   N06  Dn1  v127
 BYTE   W24
 BYTE   Cn1
 BYTE   W24
 BYTE   Dn1
 BYTE   W24
 BYTE   Cn1
 BYTE   W18
 BYTE   Dn1  v072
 BYTE   W06
 BYTE   PEND 
// 004   ----------------------------------------
Label_9_0160440F:
 BYTE   N06  Dn1  v127
 BYTE   W06
 BYTE   N06
 BYTE   W06
 BYTE   BEND   c_v+4
 BYTE   N06
 BYTE   W06
 BYTE   BEND   c_v-11
 BYTE   N06
 BYTE   W06
 BYTE   BEND   c_v+14
 BYTE   N06  Cn1
 BYTE   W24
 BYTE   Dn1
 BYTE   W24
 BYTE   Cn1
 BYTE   W24
 BYTE   PEND 
 BYTE   PATT
  POIN2 Label_9_01604359
 BYTE   PATT
  POIN2 Label_9_01604359
 BYTE   PATT
  POIN2 Label_9_01604359
 BYTE   PATT
  POIN2 Label_9_01604359
 BYTE   PATT
  POIN2 Label_9_01604359
 BYTE   PATT
  POIN2 Label_9_01604359
 BYTE   PATT
  POIN2 Label_9_01604359
 BYTE   PATT
  POIN2 Label_9_01604359
 BYTE   PATT
  POIN2 Label_9_01604359
 BYTE   PATT
  POIN2 Label_9_01604359
 BYTE   PATT
  POIN2 Label_9_01604359
 BYTE   PATT
  POIN2 Label_9_01604359
 BYTE   PATT
  POIN2 Label_9_01604359
 BYTE   PATT
  POIN2 Label_9_01604359
 BYTE   PATT
  POIN2 Label_9_01604359
 BYTE   PATT
  POIN2 Label_9_01604359
 BYTE   PATT
  POIN2 Label_9_01604359
 BYTE   PATT
  POIN2 Label_9_01604359
// 005   ----------------------------------------
Label_9_01604481:
 BYTE   N06  Dn1  v127
 BYTE   W24
 BYTE   Cn1
 BYTE   W24
 BYTE   Dn1
 BYTE   W24
 BYTE   Cn1
 BYTE   W12
 BYTE   Dn1
 BYTE   W06
 BYTE   Dn1  v060
 BYTE   W06
 BYTE   PEND 
 BYTE   PATT
  POIN2 Label_9_0160440F
 BYTE   PATT
  POIN2 Label_9_01604359
 BYTE   PATT
  POIN2 Label_9_01604359
 BYTE   PATT
  POIN2 Label_9_01604359
 BYTE   PATT
  POIN2 Label_9_01604359
 BYTE   PATT
  POIN2 Label_9_01604359
 BYTE   PATT
  POIN2 Label_9_01604359
 BYTE   PATT
  POIN2 Label_9_01604359
 BYTE   PATT
  POIN2 Label_9_01604359
 BYTE   PATT
  POIN2 Label_9_01604359
 BYTE   PATT
  POIN2 Label_9_01604359
 BYTE   PATT
  POIN2 Label_9_01604359
 BYTE   PATT
  POIN2 Label_9_01604359
 BYTE   PATT
  POIN2 Label_9_01604359
 BYTE   PATT
  POIN2 Label_9_01604359
 BYTE   PATT
  POIN2 Label_9_01604359
 BYTE   PATT
  POIN2 Label_9_016043AA
 BYTE   PATT
  POIN2 Label_9_01604359
 BYTE   PATT
  POIN2 Label_9_01604359
 BYTE   PATT
  POIN2 Label_9_01604359
 BYTE   PATT
  POIN2 Label_9_01604359
 BYTE   PATT
  POIN2 Label_9_01604359
 BYTE   PATT
  POIN2 Label_9_01604359
 BYTE   PATT
  POIN2 Label_9_01604359
 BYTE   PATT
  POIN2 Label_9_01604359
 BYTE   PATT
  POIN2 Label_9_01604359
 BYTE   PATT
  POIN2 Label_9_01604359
 BYTE   PATT
  POIN2 Label_9_01604359
 BYTE   PATT
  POIN2 Label_9_01604359
 BYTE   PATT
  POIN2 Label_9_01604359
 BYTE   PATT
  POIN2 Label_9_01604359
 BYTE   PATT
  POIN2 Label_9_01604401
 BYTE   PATT
  POIN2 Label_9_0160440F
 BYTE   PATT
  POIN2 Label_9_01604359
 BYTE   PATT
  POIN2 Label_9_01604359
 BYTE   PATT
  POIN2 Label_9_01604359
 BYTE   PATT
  POIN2 Label_9_01604359
 BYTE   PATT
  POIN2 Label_9_01604359
 BYTE   PATT
  POIN2 Label_9_01604359
 BYTE   PATT
  POIN2 Label_9_01604359
 BYTE   PATT
  POIN2 Label_9_01604359
 BYTE   PATT
  POIN2 Label_9_01604359
 BYTE   PATT
  POIN2 Label_9_01604359
 BYTE   PATT
  POIN2 Label_9_01604359
 BYTE   PATT
  POIN2 Label_9_01604359
 BYTE   PATT
  POIN2 Label_9_01604359
 BYTE   PATT
  POIN2 Label_9_01604359
 BYTE   PATT
  POIN2 Label_9_01604359
 BYTE   PATT
  POIN2 Label_9_01604359
 BYTE   PATT
  POIN2 Label_9_01604359
 BYTE   PATT
  POIN2 Label_9_01604359
 BYTE   PATT
  POIN2 Label_9_01604481
// 006   ----------------------------------------
 BYTE   N06  Dn1  v127
 BYTE   W06
 BYTE   N06
 BYTE   W06
 BYTE   BEND   c_v+4
 BYTE   N06
 BYTE   W06
 BYTE   BEND   c_v-11
 BYTE   N06
 BYTE   W06
 BYTE   GoTo
  POIN2 Label_9_01604338
// 007   ----------------------------------------
 BYTE   W10
 BYTE   FINE

//******************************************************//
	ALIGN 4

KirbyDreamLandRippleField1Pandan:
	BYTE	10	// NumTrks
	BYTE	0	// NumBlks
	BYTE	KirbyDreamLandRippleField1Pandan_pri	// Priority
	BYTE	KirbyDreamLandRippleField1Pandan_rev	// Reverb.
    
	POIN2	KirbyDreamLandRippleField1Pandan_grp
    
	POIN2	KirbyDreamLandRippleField1Pandan_001
	POIN2	KirbyDreamLandRippleField1Pandan_002
	POIN2	KirbyDreamLandRippleField1Pandan_003
	POIN2	KirbyDreamLandRippleField1Pandan_004
	POIN2	KirbyDreamLandRippleField1Pandan_005
	POIN2	KirbyDreamLandRippleField1Pandan_006
	POIN2	KirbyDreamLandRippleField1Pandan_007
	POIN2	KirbyDreamLandRippleField1Pandan_008
	POIN2	KirbyDreamLandRippleField1Pandan_009
	POIN2	KirbyDreamLandRippleField1Pandan_010

	
