//Event file generated from Sappy .s format.
	#include "MPlayDef.event"

	#define	KirbyTheCrystalShards02BattleMrGreen3339_grp  voicegroup000
	#define	KirbyTheCrystalShards02BattleMrGreen3339_pri  0
	#define	KirbyTheCrystalShards02BattleMrGreen3339_rev  0
	#define	KirbyTheCrystalShards02BattleMrGreen3339_mvl  127
	#define	KirbyTheCrystalShards02BattleMrGreen3339_key  0
	#define	KirbyTheCrystalShards02BattleMrGreen3339_tbs  1
	#define	KirbyTheCrystalShards02BattleMrGreen3339_exg  0
	#define	KirbyTheCrystalShards02BattleMrGreen3339_cmp  1

	// .rodata
	//	KirbyTheCrystalShards02BattleMrGreen3339
	ALIGN 4


//**************** Track 1 (Midi-Chn.0) ****************//

KirbyTheCrystalShards02BattleMrGreen3339_001:
// 000   ----------------------------------------
 BYTE   KEYSH   KirbyTheCrystalShards02BattleMrGreen3339_key+0
Label_0_014422F2:
 BYTE   TEMPO   250*KirbyTheCrystalShards02BattleMrGreen3339_tbs/2
 BYTE   VOICE   0
 BYTE   VOL   65*KirbyTheCrystalShards02BattleMrGreen3339_mvl/mxv
 BYTE   PAN   c_v+0
 BYTE   VOL   65*KirbyTheCrystalShards02BattleMrGreen3339_mvl/mxv
 BYTE   PAN   c_v+0
 BYTE   N11  An1  v112
 BYTE   N11  An2  v076
 BYTE   W12
 BYTE   An1  v112
 BYTE   N11  An2  v076
 BYTE   W12
 BYTE   An1  v112
 BYTE   N11  An2  v076
 BYTE   W12
 BYTE   An1  v112
 BYTE   N11  An2  v076
 BYTE   W12
 BYTE   An1  v112
 BYTE   N11  An2  v076
 BYTE   W12
 BYTE   An1  v112
 BYTE   N11  An2  v076
 BYTE   W12
Label_0_01442323:
 BYTE   N11  An1  v112
 BYTE   N11  An2  v076
 BYTE   W12
 BYTE   An1  v112
 BYTE   N11  An2  v076
 BYTE   W12
// 001   ----------------------------------------
 BYTE   An1  v112
 BYTE   N11  An2  v076
 BYTE   W12
 BYTE   An1  v112
 BYTE   N11  An2  v076
 BYTE   W12
 BYTE   An1  v112
 BYTE   N11  An2  v076
 BYTE   W12
 BYTE   An1  v112
 BYTE   N11  An2  v076
 BYTE   W12
 BYTE   PEND 
 BYTE   PATT
  POIN2 Label_0_01442323
 BYTE   PATT
  POIN2 Label_0_01442323
// 002   ----------------------------------------
Label_0_01442353:
 BYTE   N11  Gn1  v112
 BYTE   N11  Gn2  v076
 BYTE   W12
 BYTE   Gn1  v112
 BYTE   N11  Gn2  v076
 BYTE   W12
 BYTE   Gn1  v112
 BYTE   N11  Gn2  v076
 BYTE   W12
 BYTE   Gn1  v112
 BYTE   N11  Gn2  v076
 BYTE   W12
 BYTE   Gn1  v112
 BYTE   N11  Gn2  v076
 BYTE   W12
 BYTE   Gn1  v112
 BYTE   N11  Gn2  v076
 BYTE   W12
 BYTE   PEND 
 BYTE   PATT
  POIN2 Label_0_01442353
 BYTE   PATT
  POIN2 Label_0_01442353
 BYTE   PATT
  POIN2 Label_0_01442353
// 003   ----------------------------------------
Label_0_01442388:
 BYTE   N11  Fn1  v112
 BYTE   N11  Fn2  v076
 BYTE   W12
 BYTE   Fn1  v112
 BYTE   N11  Fn2  v076
 BYTE   W12
 BYTE   Fn1  v112
 BYTE   N11  Fn2  v076
 BYTE   W12
 BYTE   Fn1  v112
 BYTE   N11  Fn2  v076
 BYTE   W12
 BYTE   Fn1  v112
 BYTE   N11  Fn2  v076
 BYTE   W12
 BYTE   Fn1  v112
 BYTE   N11  Fn2  v076
 BYTE   W12
 BYTE   PEND 
 BYTE   PATT
  POIN2 Label_0_01442388
 BYTE   PATT
  POIN2 Label_0_01442388
 BYTE   PATT
  POIN2 Label_0_01442388
 BYTE   PATT
  POIN2 Label_0_01442353
 BYTE   PATT
  POIN2 Label_0_01442353
 BYTE   PATT
  POIN2 Label_0_01442353
 BYTE   PATT
  POIN2 Label_0_01442353
 BYTE   PATT
  POIN2 Label_0_01442323
 BYTE   PATT
  POIN2 Label_0_01442323
 BYTE   PATT
  POIN2 Label_0_01442323
 BYTE   PATT
  POIN2 Label_0_01442323
 BYTE   PATT
  POIN2 Label_0_01442353
 BYTE   PATT
  POIN2 Label_0_01442353
 BYTE   PATT
  POIN2 Label_0_01442353
 BYTE   PATT
  POIN2 Label_0_01442353
 BYTE   PATT
  POIN2 Label_0_01442388
 BYTE   PATT
  POIN2 Label_0_01442388
 BYTE   PATT
  POIN2 Label_0_01442388
 BYTE   PATT
  POIN2 Label_0_01442388
 BYTE   PATT
  POIN2 Label_0_01442353
 BYTE   PATT
  POIN2 Label_0_01442353
 BYTE   PATT
  POIN2 Label_0_01442353
 BYTE   PATT
  POIN2 Label_0_01442353
 BYTE   PATT
  POIN2 Label_0_01442323
 BYTE   PATT
  POIN2 Label_0_01442323
 BYTE   PATT
  POIN2 Label_0_01442323
 BYTE   PATT
  POIN2 Label_0_01442323
 BYTE   PATT
  POIN2 Label_0_01442353
 BYTE   PATT
  POIN2 Label_0_01442353
 BYTE   PATT
  POIN2 Label_0_01442353
 BYTE   PATT
  POIN2 Label_0_01442353
 BYTE   PATT
  POIN2 Label_0_01442388
 BYTE   PATT
  POIN2 Label_0_01442388
 BYTE   PATT
  POIN2 Label_0_01442388
 BYTE   PATT
  POIN2 Label_0_01442388
 BYTE   PATT
  POIN2 Label_0_01442353
 BYTE   PATT
  POIN2 Label_0_01442353
 BYTE   PATT
  POIN2 Label_0_01442353
 BYTE   PATT
  POIN2 Label_0_01442353
 BYTE   PATT
  POIN2 Label_0_01442323
 BYTE   PATT
  POIN2 Label_0_01442323
 BYTE   PATT
  POIN2 Label_0_01442323
 BYTE   PATT
  POIN2 Label_0_01442323
 BYTE   PATT
  POIN2 Label_0_01442353
 BYTE   PATT
  POIN2 Label_0_01442353
 BYTE   PATT
  POIN2 Label_0_01442353
 BYTE   PATT
  POIN2 Label_0_01442353
 BYTE   PATT
  POIN2 Label_0_01442388
 BYTE   PATT
  POIN2 Label_0_01442388
 BYTE   PATT
  POIN2 Label_0_01442388
 BYTE   PATT
  POIN2 Label_0_01442388
 BYTE   PATT
  POIN2 Label_0_01442353
 BYTE   PATT
  POIN2 Label_0_01442353
 BYTE   PATT
  POIN2 Label_0_01442353
 BYTE   PATT
  POIN2 Label_0_01442353
 BYTE   PATT
  POIN2 Label_0_01442323
 BYTE   PATT
  POIN2 Label_0_01442323
 BYTE   PATT
  POIN2 Label_0_01442323
 BYTE   PATT
  POIN2 Label_0_01442323
 BYTE   PATT
  POIN2 Label_0_01442353
 BYTE   PATT
  POIN2 Label_0_01442353
 BYTE   PATT
  POIN2 Label_0_01442353
 BYTE   PATT
  POIN2 Label_0_01442353
 BYTE   PATT
  POIN2 Label_0_01442388
 BYTE   PATT
  POIN2 Label_0_01442388
 BYTE   PATT
  POIN2 Label_0_01442388
 BYTE   PATT
  POIN2 Label_0_01442388
 BYTE   PATT
  POIN2 Label_0_01442353
 BYTE   PATT
  POIN2 Label_0_01442353
 BYTE   PATT
  POIN2 Label_0_01442353
 BYTE   PATT
  POIN2 Label_0_01442353
 BYTE   PATT
  POIN2 Label_0_01442323
 BYTE   PATT
  POIN2 Label_0_01442323
 BYTE   PATT
  POIN2 Label_0_01442323
 BYTE   PATT
  POIN2 Label_0_01442323
 BYTE   PATT
  POIN2 Label_0_01442353
 BYTE   PATT
  POIN2 Label_0_01442353
 BYTE   PATT
  POIN2 Label_0_01442353
 BYTE   PATT
  POIN2 Label_0_01442353
 BYTE   PATT
  POIN2 Label_0_01442388
 BYTE   PATT
  POIN2 Label_0_01442388
 BYTE   PATT
  POIN2 Label_0_01442388
 BYTE   PATT
  POIN2 Label_0_01442388
 BYTE   PATT
  POIN2 Label_0_01442353
 BYTE   PATT
  POIN2 Label_0_01442353
 BYTE   PATT
  POIN2 Label_0_01442353
 BYTE   PATT
  POIN2 Label_0_01442353
 BYTE   PATT
  POIN2 Label_0_01442323
 BYTE   PATT
  POIN2 Label_0_01442323
 BYTE   PATT
  POIN2 Label_0_01442323
 BYTE   PATT
  POIN2 Label_0_01442323
 BYTE   PATT
  POIN2 Label_0_01442353
 BYTE   PATT
  POIN2 Label_0_01442353
 BYTE   PATT
  POIN2 Label_0_01442353
 BYTE   PATT
  POIN2 Label_0_01442353
 BYTE   PATT
  POIN2 Label_0_01442388
 BYTE   PATT
  POIN2 Label_0_01442388
 BYTE   PATT
  POIN2 Label_0_01442388
 BYTE   PATT
  POIN2 Label_0_01442388
 BYTE   PATT
  POIN2 Label_0_01442353
 BYTE   PATT
  POIN2 Label_0_01442353
 BYTE   PATT
  POIN2 Label_0_01442353
 BYTE   PATT
  POIN2 Label_0_01442353
 BYTE   PATT
  POIN2 Label_0_01442323
 BYTE   PATT
  POIN2 Label_0_01442323
 BYTE   PATT
  POIN2 Label_0_01442323
 BYTE   PATT
  POIN2 Label_0_01442323
 BYTE   PATT
  POIN2 Label_0_01442353
 BYTE   PATT
  POIN2 Label_0_01442353
 BYTE   PATT
  POIN2 Label_0_01442353
 BYTE   PATT
  POIN2 Label_0_01442353
 BYTE   PATT
  POIN2 Label_0_01442388
 BYTE   PATT
  POIN2 Label_0_01442388
 BYTE   PATT
  POIN2 Label_0_01442388
 BYTE   PATT
  POIN2 Label_0_01442388
 BYTE   PATT
  POIN2 Label_0_01442353
 BYTE   PATT
  POIN2 Label_0_01442353
 BYTE   PATT
  POIN2 Label_0_01442353
 BYTE   PATT
  POIN2 Label_0_01442353
 BYTE   PATT
  POIN2 Label_0_01442323
 BYTE   PATT
  POIN2 Label_0_01442323
 BYTE   PATT
  POIN2 Label_0_01442323
 BYTE   PATT
  POIN2 Label_0_01442323
 BYTE   PATT
  POIN2 Label_0_01442353
 BYTE   PATT
  POIN2 Label_0_01442353
 BYTE   PATT
  POIN2 Label_0_01442353
 BYTE   PATT
  POIN2 Label_0_01442353
 BYTE   PATT
  POIN2 Label_0_01442388
 BYTE   PATT
  POIN2 Label_0_01442388
 BYTE   PATT
  POIN2 Label_0_01442388
 BYTE   PATT
  POIN2 Label_0_01442388
 BYTE   PATT
  POIN2 Label_0_01442353
 BYTE   PATT
  POIN2 Label_0_01442353
 BYTE   PATT
  POIN2 Label_0_01442353
 BYTE   PATT
  POIN2 Label_0_01442353
// 004   ----------------------------------------
 BYTE   GoTo
  POIN2 Label_0_014422F2
 BYTE   FINE

//**************** Track 2 (Midi-Chn.1) ****************//

KirbyTheCrystalShards02BattleMrGreen3339_002:
// 000   ----------------------------------------
 BYTE   KEYSH   KirbyTheCrystalShards02BattleMrGreen3339_key+0
Label_1_0144265A:
 BYTE   VOICE   127
 BYTE   VOL   65*KirbyTheCrystalShards02BattleMrGreen3339_mvl/mxv
 BYTE   PAN   c_v+0
 BYTE   N11  Gn1  v060
 BYTE   W12
 BYTE   N11
 BYTE   W12
 BYTE   N11
 BYTE   W12
 BYTE   N11
 BYTE   W12
 BYTE   N11
 BYTE   W12
 BYTE   N11
 BYTE   W12
Label_1_0144266E:
 BYTE   N11  Gn1  v060
 BYTE   W12
 BYTE   N11
 BYTE   W12
// 001   ----------------------------------------
 BYTE   N11
 BYTE   W12
 BYTE   N11
 BYTE   W12
 BYTE   N11
 BYTE   W12
 BYTE   N11
 BYTE   W12
 BYTE   PEND 
 BYTE   PATT
  POIN2 Label_1_0144266E
 BYTE   PATT
  POIN2 Label_1_0144266E
 BYTE   PATT
  POIN2 Label_1_0144266E
 BYTE   PATT
  POIN2 Label_1_0144266E
 BYTE   PATT
  POIN2 Label_1_0144266E
 BYTE   PATT
  POIN2 Label_1_0144266E
 BYTE   PATT
  POIN2 Label_1_0144266E
 BYTE   PATT
  POIN2 Label_1_0144266E
 BYTE   PATT
  POIN2 Label_1_0144266E
 BYTE   PATT
  POIN2 Label_1_0144266E
 BYTE   PATT
  POIN2 Label_1_0144266E
 BYTE   PATT
  POIN2 Label_1_0144266E
 BYTE   PATT
  POIN2 Label_1_0144266E
 BYTE   PATT
  POIN2 Label_1_0144266E
 BYTE   PATT
  POIN2 Label_1_0144266E
 BYTE   PATT
  POIN2 Label_1_0144266E
 BYTE   PATT
  POIN2 Label_1_0144266E
 BYTE   PATT
  POIN2 Label_1_0144266E
 BYTE   PATT
  POIN2 Label_1_0144266E
 BYTE   PATT
  POIN2 Label_1_0144266E
 BYTE   PATT
  POIN2 Label_1_0144266E
 BYTE   PATT
  POIN2 Label_1_0144266E
 BYTE   PATT
  POIN2 Label_1_0144266E
 BYTE   PATT
  POIN2 Label_1_0144266E
 BYTE   PATT
  POIN2 Label_1_0144266E
 BYTE   PATT
  POIN2 Label_1_0144266E
 BYTE   PATT
  POIN2 Label_1_0144266E
 BYTE   PATT
  POIN2 Label_1_0144266E
 BYTE   PATT
  POIN2 Label_1_0144266E
 BYTE   PATT
  POIN2 Label_1_0144266E
 BYTE   PATT
  POIN2 Label_1_0144266E
 BYTE   PATT
  POIN2 Label_1_0144266E
 BYTE   PATT
  POIN2 Label_1_0144266E
 BYTE   PATT
  POIN2 Label_1_0144266E
 BYTE   PATT
  POIN2 Label_1_0144266E
 BYTE   PATT
  POIN2 Label_1_0144266E
 BYTE   PATT
  POIN2 Label_1_0144266E
 BYTE   PATT
  POIN2 Label_1_0144266E
 BYTE   PATT
  POIN2 Label_1_0144266E
 BYTE   PATT
  POIN2 Label_1_0144266E
 BYTE   PATT
  POIN2 Label_1_0144266E
 BYTE   PATT
  POIN2 Label_1_0144266E
 BYTE   PATT
  POIN2 Label_1_0144266E
 BYTE   PATT
  POIN2 Label_1_0144266E
 BYTE   PATT
  POIN2 Label_1_0144266E
 BYTE   PATT
  POIN2 Label_1_0144266E
 BYTE   PATT
  POIN2 Label_1_0144266E
 BYTE   PATT
  POIN2 Label_1_0144266E
 BYTE   PATT
  POIN2 Label_1_0144266E
 BYTE   PATT
  POIN2 Label_1_0144266E
 BYTE   PATT
  POIN2 Label_1_0144266E
 BYTE   PATT
  POIN2 Label_1_0144266E
 BYTE   PATT
  POIN2 Label_1_0144266E
 BYTE   PATT
  POIN2 Label_1_0144266E
 BYTE   PATT
  POIN2 Label_1_0144266E
 BYTE   PATT
  POIN2 Label_1_0144266E
 BYTE   PATT
  POIN2 Label_1_0144266E
 BYTE   PATT
  POIN2 Label_1_0144266E
 BYTE   PATT
  POIN2 Label_1_0144266E
 BYTE   PATT
  POIN2 Label_1_0144266E
 BYTE   PATT
  POIN2 Label_1_0144266E
 BYTE   PATT
  POIN2 Label_1_0144266E
 BYTE   PATT
  POIN2 Label_1_0144266E
 BYTE   PATT
  POIN2 Label_1_0144266E
 BYTE   PATT
  POIN2 Label_1_0144266E
 BYTE   PATT
  POIN2 Label_1_0144266E
 BYTE   PATT
  POIN2 Label_1_0144266E
 BYTE   PATT
  POIN2 Label_1_0144266E
 BYTE   PATT
  POIN2 Label_1_0144266E
 BYTE   PATT
  POIN2 Label_1_0144266E
 BYTE   PATT
  POIN2 Label_1_0144266E
 BYTE   PATT
  POIN2 Label_1_0144266E
 BYTE   PATT
  POIN2 Label_1_0144266E
 BYTE   PATT
  POIN2 Label_1_0144266E
 BYTE   PATT
  POIN2 Label_1_0144266E
 BYTE   PATT
  POIN2 Label_1_0144266E
 BYTE   PATT
  POIN2 Label_1_0144266E
 BYTE   PATT
  POIN2 Label_1_0144266E
 BYTE   PATT
  POIN2 Label_1_0144266E
 BYTE   PATT
  POIN2 Label_1_0144266E
 BYTE   PATT
  POIN2 Label_1_0144266E
 BYTE   PATT
  POIN2 Label_1_0144266E
 BYTE   PATT
  POIN2 Label_1_0144266E
 BYTE   PATT
  POIN2 Label_1_0144266E
 BYTE   PATT
  POIN2 Label_1_0144266E
 BYTE   PATT
  POIN2 Label_1_0144266E
 BYTE   PATT
  POIN2 Label_1_0144266E
 BYTE   PATT
  POIN2 Label_1_0144266E
 BYTE   PATT
  POIN2 Label_1_0144266E
 BYTE   PATT
  POIN2 Label_1_0144266E
 BYTE   PATT
  POIN2 Label_1_0144266E
 BYTE   PATT
  POIN2 Label_1_0144266E
 BYTE   PATT
  POIN2 Label_1_0144266E
 BYTE   PATT
  POIN2 Label_1_0144266E
 BYTE   PATT
  POIN2 Label_1_0144266E
 BYTE   PATT
  POIN2 Label_1_0144266E
 BYTE   PATT
  POIN2 Label_1_0144266E
 BYTE   PATT
  POIN2 Label_1_0144266E
 BYTE   PATT
  POIN2 Label_1_0144266E
 BYTE   PATT
  POIN2 Label_1_0144266E
 BYTE   PATT
  POIN2 Label_1_0144266E
 BYTE   PATT
  POIN2 Label_1_0144266E
 BYTE   PATT
  POIN2 Label_1_0144266E
 BYTE   PATT
  POIN2 Label_1_0144266E
 BYTE   PATT
  POIN2 Label_1_0144266E
 BYTE   PATT
  POIN2 Label_1_0144266E
 BYTE   PATT
  POIN2 Label_1_0144266E
 BYTE   PATT
  POIN2 Label_1_0144266E
 BYTE   PATT
  POIN2 Label_1_0144266E
 BYTE   PATT
  POIN2 Label_1_0144266E
 BYTE   PATT
  POIN2 Label_1_0144266E
 BYTE   PATT
  POIN2 Label_1_0144266E
 BYTE   PATT
  POIN2 Label_1_0144266E
 BYTE   PATT
  POIN2 Label_1_0144266E
 BYTE   PATT
  POIN2 Label_1_0144266E
 BYTE   PATT
  POIN2 Label_1_0144266E
 BYTE   PATT
  POIN2 Label_1_0144266E
 BYTE   PATT
  POIN2 Label_1_0144266E
 BYTE   PATT
  POIN2 Label_1_0144266E
 BYTE   PATT
  POIN2 Label_1_0144266E
 BYTE   PATT
  POIN2 Label_1_0144266E
 BYTE   PATT
  POIN2 Label_1_0144266E
 BYTE   PATT
  POIN2 Label_1_0144266E
 BYTE   PATT
  POIN2 Label_1_0144266E
 BYTE   PATT
  POIN2 Label_1_0144266E
 BYTE   PATT
  POIN2 Label_1_0144266E
 BYTE   PATT
  POIN2 Label_1_0144266E
 BYTE   PATT
  POIN2 Label_1_0144266E
 BYTE   PATT
  POIN2 Label_1_0144266E
 BYTE   PATT
  POIN2 Label_1_0144266E
 BYTE   PATT
  POIN2 Label_1_0144266E
 BYTE   PATT
  POIN2 Label_1_0144266E
 BYTE   PATT
  POIN2 Label_1_0144266E
 BYTE   PATT
  POIN2 Label_1_0144266E
 BYTE   PATT
  POIN2 Label_1_0144266E
 BYTE   PATT
  POIN2 Label_1_0144266E
 BYTE   PATT
  POIN2 Label_1_0144266E
 BYTE   PATT
  POIN2 Label_1_0144266E
 BYTE   PATT
  POIN2 Label_1_0144266E
 BYTE   PATT
  POIN2 Label_1_0144266E
 BYTE   PATT
  POIN2 Label_1_0144266E
 BYTE   PATT
  POIN2 Label_1_0144266E
// 002   ----------------------------------------
 BYTE   GoTo
  POIN2 Label_1_0144265A
 BYTE   FINE

//**************** Track 3 (Midi-Chn.2) ****************//

KirbyTheCrystalShards02BattleMrGreen3339_003:
// 000   ----------------------------------------
 BYTE   KEYSH   KirbyTheCrystalShards02BattleMrGreen3339_key+0
Label_2_0144294E:
 BYTE   VOICE   48
 BYTE   VOL   65*KirbyTheCrystalShards02BattleMrGreen3339_mvl/mxv
 BYTE   PAN   c_v+0
 BYTE   N66  An3  v127
 BYTE   W72
 BYTE   Gn4
 BYTE   W72
// 001   ----------------------------------------
 BYTE   En4
 BYTE   W72
 BYTE   Cn4
 BYTE   W72
// 002   ----------------------------------------
 BYTE   TIE  Dn4
 BYTE   W72
 BYTE   W56
// 003   ----------------------------------------
 BYTE   W03
 BYTE   EOT
 BYTE   W01
 BYTE   N05
 BYTE   W06
 BYTE   Cn4
 BYTE   W06
 BYTE   N66  Bn3
 BYTE   W72
 BYTE   Gn3
 BYTE   W72
// 004   ----------------------------------------
 BYTE   An3
 BYTE   W72
 BYTE   Fn4
 BYTE   W72
// 005   ----------------------------------------
 BYTE   En4
 BYTE   W72
 BYTE   An4
 BYTE   W72
// 006   ----------------------------------------
 BYTE   Bn4
 BYTE   W72
 BYTE   Cn5
 BYTE   W72
// 007   ----------------------------------------
 BYTE   Dn5
 BYTE   W72
 BYTE   Bn4
 BYTE   W72
// 008   ----------------------------------------
 BYTE   TIE  En5
 BYTE   W72
 BYTE   W66
// 009   ----------------------------------------
 BYTE   EOT
 BYTE   W06
 BYTE   N05  Dn5
 BYTE   W06
 BYTE   N60  En5
 BYTE   W66
 BYTE   N66  Cn5
 BYTE   W72
// 010   ----------------------------------------
 BYTE   TIE  Dn5
 BYTE   W72
 BYTE   W56
// 011   ----------------------------------------
 BYTE   W03
 BYTE   EOT
 BYTE   W01
 BYTE   N05
 BYTE   W06
 BYTE   Cn5
 BYTE   W06
 BYTE   N66  Bn4
 BYTE   W72
 BYTE   Gn4
 BYTE   W72
// 012   ----------------------------------------
 BYTE   TIE  Fn4
 BYTE   N66  An4
 BYTE   W72
 BYTE   Bn4
 BYTE   W72
// 013   ----------------------------------------
 BYTE   Cn5
 BYTE   W72
 BYTE   An4
 BYTE   W66
// 014   ----------------------------------------
 BYTE   EOT
 BYTE   Fn4
 BYTE   W06
 BYTE   TIE  Dn4
 BYTE   N66  An4
 BYTE   W72
 BYTE   Bn4
 BYTE   W72
// 015   ----------------------------------------
 BYTE   Cn5
 BYTE   W72
 BYTE   An4
 BYTE   W66
// 016   ----------------------------------------
 BYTE   EOT
 BYTE   Dn4
 BYTE   W06
 BYTE   N66  En4
 BYTE   W72
 BYTE   Dn4
 BYTE   W72
// 017   ----------------------------------------
 BYTE   En4
 BYTE   W72
 BYTE   Gs4
 BYTE   W72
// 018   ----------------------------------------
 BYTE   An4
 BYTE   W72
 BYTE   Bn4
 BYTE   W72
// 019   ----------------------------------------
 BYTE   Cn5
 BYTE   W72
 BYTE   An4
 BYTE   W72
// 020   ----------------------------------------
 BYTE   Dn5
 BYTE   W72
 BYTE   Cn5
 BYTE   W72
// 021   ----------------------------------------
 BYTE   Bn4
 BYTE   W72
 BYTE   An4
 BYTE   W72
// 022   ----------------------------------------
 BYTE   Dn5
 BYTE   W72
 BYTE   Cn5
 BYTE   W72
// 023   ----------------------------------------
 BYTE   Bn4
 BYTE   W72
 BYTE   An4
 BYTE   W72
// 024   ----------------------------------------
 BYTE   En4
 BYTE   W72
 BYTE   Dn4
 BYTE   W72
// 025   ----------------------------------------
 BYTE   En4
 BYTE   W72
 BYTE   Cn4
 BYTE   W72
// 026   ----------------------------------------
 BYTE   Bn3
 BYTE   W72
 BYTE   Cn4
 BYTE   W72
// 027   ----------------------------------------
 BYTE   Bn3
 BYTE   W72
 BYTE   An3
 BYTE   W72
// 028   ----------------------------------------
 BYTE   Dn4
 BYTE   W72
 BYTE   Cn4
 BYTE   W72
// 029   ----------------------------------------
 BYTE   Bn3
 BYTE   W72
 BYTE   An3
 BYTE   W72
// 030   ----------------------------------------
 BYTE   Gn3
 BYTE   W72
 BYTE   An3
 BYTE   W72
// 031   ----------------------------------------
 BYTE   Fn3
 BYTE   W72
 BYTE   Dn3
 BYTE   W72
// 032   ----------------------------------------
 BYTE   N32  En3
 BYTE   W36
 BYTE   Dn3
 BYTE   W36
 BYTE   En3
 BYTE   W36
// 033   ----------------------------------------
 BYTE   Cn3
 BYTE   W36
 BYTE   An3
 BYTE   W36
 BYTE   Gn3
 BYTE   W36
// 034   ----------------------------------------
 BYTE   An3
 BYTE   W36
 BYTE   En3
 BYTE   W36
 BYTE   Bn3
 BYTE   W36
// 035   ----------------------------------------
 BYTE   An3
 BYTE   W36
 BYTE   Bn3
 BYTE   W36
 BYTE   Gn3
 BYTE   W36
// 036   ----------------------------------------
 BYTE   Cn4
 BYTE   W36
 BYTE   Bn3
 BYTE   W36
 BYTE   Cn4
 BYTE   W36
// 037   ----------------------------------------
 BYTE   An3
 BYTE   W36
 BYTE   Dn4
 BYTE   W36
 BYTE   Cn4
 BYTE   W36
// 038   ----------------------------------------
 BYTE   Dn4
 BYTE   W36
 BYTE   An3
 BYTE   W36
 BYTE   En4
 BYTE   W36
// 039   ----------------------------------------
 BYTE   Dn4
 BYTE   W36
 BYTE   En4
 BYTE   W36
 BYTE   Cn4
 BYTE   W36
// 040   ----------------------------------------
 BYTE   Fn4
 BYTE   W36
 BYTE   En4
 BYTE   W36
 BYTE   Fn4
 BYTE   W36
// 041   ----------------------------------------
 BYTE   Dn4
 BYTE   W36
 BYTE   An4
 BYTE   W36
 BYTE   Gn4
 BYTE   W36
// 042   ----------------------------------------
 BYTE   An4
 BYTE   W36
 BYTE   Bn4
 BYTE   W36
 BYTE   Cn5
 BYTE   W36
// 043   ----------------------------------------
 BYTE   An4
 BYTE   W36
 BYTE   Cn5
 BYTE   W36
 BYTE   Dn5
 BYTE   W36
// 044   ----------------------------------------
 BYTE   En5
 BYTE   W36
 BYTE   Cn5
 BYTE   W36
 BYTE   Dn5
 BYTE   W36
// 045   ----------------------------------------
 BYTE   En5
 BYTE   W36
 BYTE   An5
 BYTE   W36
 BYTE   En5
 BYTE   W36
// 046   ----------------------------------------
 BYTE   An5
 BYTE   W36
 BYTE   Bn5
 BYTE   W36
 BYTE   Cn6
 BYTE   W36
// 047   ----------------------------------------
 BYTE   An5
 BYTE   W36
 BYTE   Cn6
 BYTE   W36
 BYTE   Dn6
 BYTE   W36
// 048   ----------------------------------------
 BYTE   En6
 BYTE   W36
 BYTE   An5
 BYTE   W36
Label_2_01442A5F:
 BYTE   N32  En5  v127
 BYTE   N32  En6
 BYTE   W36
// 049   ----------------------------------------
 BYTE   Fn5
 BYTE   N32  Fn6
 BYTE   W36
 BYTE   PEND 
 BYTE   PATT
  POIN2 Label_2_01442A5F
 BYTE   PATT
  POIN2 Label_2_01442A5F
 BYTE   PATT
  POIN2 Label_2_01442A5F
 BYTE   PATT
  POIN2 Label_2_01442A5F
 BYTE   PATT
  POIN2 Label_2_01442A5F
// 050   ----------------------------------------
 BYTE   N32  En5  v127
 BYTE   N32  En6
 BYTE   W36
 BYTE   Dn5
 BYTE   N32  Dn6
 BYTE   W36
 BYTE   N20  En6
 BYTE   W24
// 051   ----------------------------------------
 BYTE   N11  Fn6
 BYTE   W12
 BYTE   N23  En6
 BYTE   W24
 BYTE   N11  Dn6
 BYTE   W12
 BYTE   N20  Cn6
 BYTE   W24
 BYTE   N11  Dn6
 BYTE   W12
 BYTE   N23  Cn6
 BYTE   W24
// 052   ----------------------------------------
 BYTE   N11  Bn5
 BYTE   W12
 BYTE   N20  An5
 BYTE   W24
 BYTE   N11  Bn5
 BYTE   W12
 BYTE   N23  An5
 BYTE   W24
 BYTE   N11  Gn5
 BYTE   W12
 BYTE   N20  Fn5
 BYTE   W24
// 053   ----------------------------------------
 BYTE   N11  Gn5
 BYTE   W12
 BYTE   N23  Fn5
 BYTE   W24
 BYTE   N11  En5
 BYTE   W12
 BYTE   N20  Dn5
 BYTE   W24
 BYTE   N11  En5
 BYTE   W12
 BYTE   N23  Dn5
 BYTE   W24
// 054   ----------------------------------------
 BYTE   N11  Cn5
 BYTE   W12
 BYTE   N20  Bn4
 BYTE   W24
 BYTE   N11  Cn5
 BYTE   W12
 BYTE   N23  Bn4
 BYTE   W24
 BYTE   N11  An4
 BYTE   W12
 BYTE   N20  Gn4
 BYTE   W24
// 055   ----------------------------------------
 BYTE   N11  An4
 BYTE   W12
 BYTE   N23  Gn4
 BYTE   W24
 BYTE   N11  Fn4
 BYTE   W12
 BYTE   N20  En4
 BYTE   W24
 BYTE   N11  Fn4
 BYTE   W12
 BYTE   N23  En4
 BYTE   W24
// 056   ----------------------------------------
 BYTE   N11  Dn4
 BYTE   W12
 BYTE   N20  Cn4
 BYTE   W24
 BYTE   N11  Bn3
 BYTE   W12
 BYTE   N23  Cn4
 BYTE   W24
 BYTE   N11  Dn4
 BYTE   W12
 BYTE   N20  En4
 BYTE   W24
// 057   ----------------------------------------
 BYTE   N11  Dn4
 BYTE   W12
 BYTE   N23  En4
 BYTE   W24
 BYTE   N11  Fn4
 BYTE   W12
 BYTE   N20  Gn4
 BYTE   W24
 BYTE   N11  Fn4
 BYTE   W12
 BYTE   N23  Gn4
 BYTE   W24
// 058   ----------------------------------------
 BYTE   N11  An4
 BYTE   W12
 BYTE   N20  Bn4
 BYTE   W24
 BYTE   N11  An4
 BYTE   W12
 BYTE   N23  Bn4
 BYTE   W24
 BYTE   N11  Cn5
 BYTE   W12
 BYTE   N20  Dn5
 BYTE   W24
// 059   ----------------------------------------
 BYTE   N11  Cn5
 BYTE   W12
 BYTE   N23  Dn5
 BYTE   W24
 BYTE   N11  En5
 BYTE   W12
 BYTE   N20  Fn5
 BYTE   W24
 BYTE   N11  En5
 BYTE   W12
 BYTE   N23  Fn5
 BYTE   W24
// 060   ----------------------------------------
 BYTE   N11  Gn5
 BYTE   W12
 BYTE   N20  An5
 BYTE   W24
 BYTE   N11  Gn5
 BYTE   W12
 BYTE   N23  An5
 BYTE   W24
 BYTE   N11  Bn5
 BYTE   W12
 BYTE   N20  Cn6
 BYTE   W24
// 061   ----------------------------------------
 BYTE   N11  Bn5
 BYTE   W12
 BYTE   N23  Cn6
 BYTE   W24
 BYTE   N11  Dn6
 BYTE   W12
Label_2_01442B4D:
 BYTE   TIE  An3  v127
 BYTE   TIE  En4
 BYTE   W72
 BYTE   PEND 
// 062   ----------------------------------------
 BYTE   W72
 BYTE   W72
// 063   ----------------------------------------
 BYTE   W66
 BYTE   EOT
 BYTE   An3  v076
 BYTE   W06
 BYTE   N66  An3
 BYTE   N66  Dn4
 BYTE   W72
 BYTE   PATT
  POIN2 Label_2_01442B4D
// 064   ----------------------------------------
 BYTE   W72
 BYTE   W66
// 065   ----------------------------------------
 BYTE   EOT
 BYTE   An3  v076
 BYTE   W06
 BYTE   N66  An3  v127
 BYTE   N66  Dn4
 BYTE   W72
 BYTE   PATT
  POIN2 Label_2_01442B4D
// 066   ----------------------------------------
 BYTE   W72
 BYTE   W66
// 067   ----------------------------------------
 BYTE   EOT
 BYTE   An3  v076
 BYTE   W06
 BYTE   N66  An3  v127
 BYTE   N66  Dn4
 BYTE   W72
 BYTE   PATT
  POIN2 Label_2_01442B4D
// 068   ----------------------------------------
 BYTE   W72
 BYTE   W66
// 069   ----------------------------------------
 BYTE   EOT
 BYTE   An3  v076
 BYTE   W06
 BYTE   TIE  En4  v127
 BYTE   W72
 BYTE   W72
// 070   ----------------------------------------
 BYTE   W72
 BYTE   W72
// 071   ----------------------------------------
 BYTE   W72
 BYTE   W72
// 072   ----------------------------------------
 BYTE   W66
 BYTE   EOT
 BYTE   W06
 BYTE   N66  An3
 BYTE   N66  Cn4
 BYTE   W72
// 073   ----------------------------------------
 BYTE   TIE  Gn4
 BYTE   W72
 BYTE   W66
// 074   ----------------------------------------
 BYTE   EOT
 BYTE   W06
 BYTE   N66  En4
 BYTE   W72
 BYTE   Cn4
 BYTE   W72
// 075   ----------------------------------------
 BYTE   TIE  En4
 BYTE   W72
 BYTE   W66
// 076   ----------------------------------------
 BYTE   EOT
 BYTE   W06
 BYTE   N66  Dn4
 BYTE   W72
 BYTE   Bn3
 BYTE   W72
// 077   ----------------------------------------
 BYTE   GoTo
  POIN2 Label_2_0144294E
 BYTE   FINE

//**************** Track 4 (Midi-Chn.3) ****************//

KirbyTheCrystalShards02BattleMrGreen3339_004:
// 000   ----------------------------------------
 BYTE   KEYSH   KirbyTheCrystalShards02BattleMrGreen3339_key+0
Label_3_01442BBE:
 BYTE   VOICE   56
 BYTE   VOL   65*KirbyTheCrystalShards02BattleMrGreen3339_mvl/mxv
 BYTE   PAN   c_v+0
 BYTE   W72
 BYTE   W72
// 001   ----------------------------------------
 BYTE   W72
 BYTE   W72
// 002   ----------------------------------------
 BYTE   W72
 BYTE   W72
// 003   ----------------------------------------
 BYTE   W72
 BYTE   W72
// 004   ----------------------------------------
 BYTE   W72
 BYTE   W72
// 005   ----------------------------------------
 BYTE   W72
 BYTE   W72
// 006   ----------------------------------------
 BYTE   W72
 BYTE   W72
// 007   ----------------------------------------
 BYTE   W72
 BYTE   W36
// 008   ----------------------------------------
 BYTE   N32  Gn2  v127
 BYTE   W36
 BYTE   An2
 BYTE   W72
// 009   ----------------------------------------
 BYTE   W72
 BYTE   W72
// 010   ----------------------------------------
 BYTE   W72
 BYTE   W72
// 011   ----------------------------------------
 BYTE   W72
 BYTE   W72
// 012   ----------------------------------------
 BYTE   W36
 BYTE   Gn2
 BYTE   W36
 BYTE   An2
 BYTE   W72
// 013   ----------------------------------------
 BYTE   W72
 BYTE   W72
// 014   ----------------------------------------
 BYTE   W72
 BYTE   W72
// 015   ----------------------------------------
 BYTE   W72
 BYTE   W72
// 016   ----------------------------------------
 BYTE   W36
 BYTE   Gn2
 BYTE   W36
 BYTE   An2
 BYTE   W72
// 017   ----------------------------------------
 BYTE   W72
 BYTE   W72
// 018   ----------------------------------------
 BYTE   W72
 BYTE   W72
// 019   ----------------------------------------
 BYTE   W72
 BYTE   W72
// 020   ----------------------------------------
 BYTE   W72
 BYTE   W72
// 021   ----------------------------------------
 BYTE   W72
 BYTE   W72
// 022   ----------------------------------------
 BYTE   W72
 BYTE   W72
// 023   ----------------------------------------
 BYTE   W72
 BYTE   W72
// 024   ----------------------------------------
 BYTE   W36
 BYTE   Gn2
 BYTE   W36
 BYTE   An2
 BYTE   W72
// 025   ----------------------------------------
 BYTE   W72
 BYTE   W72
// 026   ----------------------------------------
 BYTE   W72
 BYTE   W72
// 027   ----------------------------------------
 BYTE   W72
 BYTE   W72
// 028   ----------------------------------------
 BYTE   W72
 BYTE   W72
// 029   ----------------------------------------
 BYTE   W72
 BYTE   W72
// 030   ----------------------------------------
 BYTE   W72
 BYTE   W72
// 031   ----------------------------------------
 BYTE   W72
 BYTE   W72
// 032   ----------------------------------------
 BYTE   W36
 BYTE   Gn2
 BYTE   W36
 BYTE   An2
 BYTE   W72
// 033   ----------------------------------------
 BYTE   W72
 BYTE   W72
// 034   ----------------------------------------
 BYTE   W72
 BYTE   W72
// 035   ----------------------------------------
 BYTE   W72
 BYTE   W72
// 036   ----------------------------------------
 BYTE   W72
 BYTE   W72
// 037   ----------------------------------------
 BYTE   W72
 BYTE   W72
// 038   ----------------------------------------
 BYTE   W72
 BYTE   W72
// 039   ----------------------------------------
 BYTE   W72
 BYTE   W72
// 040   ----------------------------------------
 BYTE   W36
 BYTE   Gn2
 BYTE   W36
 BYTE   An2
 BYTE   W72
// 041   ----------------------------------------
 BYTE   W72
 BYTE   W72
// 042   ----------------------------------------
 BYTE   W72
 BYTE   W72
// 043   ----------------------------------------
 BYTE   W72
 BYTE   W72
// 044   ----------------------------------------
 BYTE   W72
 BYTE   W72
// 045   ----------------------------------------
 BYTE   W72
 BYTE   W72
// 046   ----------------------------------------
 BYTE   W72
 BYTE   W72
// 047   ----------------------------------------
 BYTE   W72
 BYTE   W72
// 048   ----------------------------------------
 BYTE   W36
 BYTE   Gn2
 BYTE   W36
 BYTE   An2
 BYTE   W72
// 049   ----------------------------------------
 BYTE   W72
 BYTE   W72
// 050   ----------------------------------------
 BYTE   W72
 BYTE   W72
// 051   ----------------------------------------
 BYTE   W72
 BYTE   W72
// 052   ----------------------------------------
 BYTE   W72
 BYTE   W72
// 053   ----------------------------------------
 BYTE   W72
 BYTE   W72
// 054   ----------------------------------------
 BYTE   W72
 BYTE   W72
// 055   ----------------------------------------
 BYTE   W72
 BYTE   W72
// 056   ----------------------------------------
 BYTE   W36
 BYTE   Gn2
 BYTE   W36
 BYTE   An2
 BYTE   W72
// 057   ----------------------------------------
 BYTE   W72
 BYTE   W72
// 058   ----------------------------------------
 BYTE   W72
 BYTE   W72
// 059   ----------------------------------------
 BYTE   W72
 BYTE   W72
// 060   ----------------------------------------
 BYTE   W72
 BYTE   W72
// 061   ----------------------------------------
 BYTE   W72
 BYTE   W72
// 062   ----------------------------------------
 BYTE   W72
 BYTE   W72
// 063   ----------------------------------------
 BYTE   W72
 BYTE   W72
// 064   ----------------------------------------
 BYTE   W72
 BYTE   W72
// 065   ----------------------------------------
 BYTE   W72
 BYTE   W72
// 066   ----------------------------------------
 BYTE   W72
 BYTE   W72
// 067   ----------------------------------------
 BYTE   W72
 BYTE   W72
// 068   ----------------------------------------
 BYTE   W72
 BYTE   W72
// 069   ----------------------------------------
 BYTE   W72
 BYTE   W72
// 070   ----------------------------------------
 BYTE   W72
 BYTE   W72
// 071   ----------------------------------------
 BYTE   W72
 BYTE   W72
// 072   ----------------------------------------
 BYTE   W72
 BYTE   GoTo
  POIN2 Label_3_01442BBE
 BYTE   FINE

//**************** Track 5 (Midi-Chn.4) ****************//

KirbyTheCrystalShards02BattleMrGreen3339_005:
// 000   ----------------------------------------
 BYTE   KEYSH   KirbyTheCrystalShards02BattleMrGreen3339_key+0
Label_4_01442C76:
 BYTE   VOICE   58
 BYTE   VOL   65*KirbyTheCrystalShards02BattleMrGreen3339_mvl/mxv
 BYTE   PAN   c_v+0
 BYTE   W72
 BYTE   W72
// 001   ----------------------------------------
 BYTE   W72
 BYTE   W72
// 002   ----------------------------------------
 BYTE   W72
 BYTE   W72
// 003   ----------------------------------------
 BYTE   W72
 BYTE   W72
// 004   ----------------------------------------
 BYTE   W72
 BYTE   W72
// 005   ----------------------------------------
 BYTE   W72
 BYTE   W72
// 006   ----------------------------------------
 BYTE   W72
 BYTE   W72
// 007   ----------------------------------------
 BYTE   W72
 BYTE   W72
// 008   ----------------------------------------
 BYTE   W72
 BYTE   W72
// 009   ----------------------------------------
 BYTE   W72
 BYTE   W72
// 010   ----------------------------------------
 BYTE   W72
 BYTE   W72
// 011   ----------------------------------------
 BYTE   W72
 BYTE   W72
// 012   ----------------------------------------
 BYTE   W72
 BYTE   W72
// 013   ----------------------------------------
 BYTE   W72
 BYTE   W72
// 014   ----------------------------------------
 BYTE   W72
 BYTE   W72
// 015   ----------------------------------------
 BYTE   W72
 BYTE   W72
// 016   ----------------------------------------
 BYTE   W72
 BYTE   W72
// 017   ----------------------------------------
 BYTE   W72
 BYTE   W72
// 018   ----------------------------------------
 BYTE   W72
 BYTE   W72
// 019   ----------------------------------------
 BYTE   W72
 BYTE   W72
// 020   ----------------------------------------
 BYTE   W72
 BYTE   W72
// 021   ----------------------------------------
 BYTE   W72
 BYTE   W72
// 022   ----------------------------------------
 BYTE   W72
 BYTE   W72
// 023   ----------------------------------------
 BYTE   W72
 BYTE   W72
// 024   ----------------------------------------
 BYTE   W72
 BYTE   W72
// 025   ----------------------------------------
 BYTE   W72
 BYTE   W72
// 026   ----------------------------------------
 BYTE   W72
 BYTE   W72
// 027   ----------------------------------------
 BYTE   W72
 BYTE   W72
// 028   ----------------------------------------
 BYTE   W72
 BYTE   W72
// 029   ----------------------------------------
 BYTE   W72
 BYTE   W72
// 030   ----------------------------------------
 BYTE   W72
 BYTE   W72
// 031   ----------------------------------------
 BYTE   W72
 BYTE   W72
// 032   ----------------------------------------
 BYTE   W72
 BYTE   W72
// 033   ----------------------------------------
 BYTE   W72
 BYTE   W72
// 034   ----------------------------------------
 BYTE   W72
 BYTE   W72
// 035   ----------------------------------------
 BYTE   W72
 BYTE   W72
// 036   ----------------------------------------
 BYTE   W72
 BYTE   W72
// 037   ----------------------------------------
 BYTE   W72
 BYTE   W72
// 038   ----------------------------------------
 BYTE   W72
 BYTE   W72
// 039   ----------------------------------------
 BYTE   W72
 BYTE   W72
// 040   ----------------------------------------
 BYTE   W72
 BYTE   W72
// 041   ----------------------------------------
 BYTE   W72
 BYTE   W72
// 042   ----------------------------------------
 BYTE   W72
 BYTE   W72
// 043   ----------------------------------------
 BYTE   W72
 BYTE   W72
// 044   ----------------------------------------
 BYTE   W72
 BYTE   W72
// 045   ----------------------------------------
 BYTE   W72
 BYTE   W72
// 046   ----------------------------------------
 BYTE   W72
 BYTE   W72
// 047   ----------------------------------------
 BYTE   W72
 BYTE   W72
// 048   ----------------------------------------
 BYTE   W72
 BYTE   W72
// 049   ----------------------------------------
 BYTE   W72
 BYTE   W72
// 050   ----------------------------------------
 BYTE   W72
 BYTE   W72
// 051   ----------------------------------------
 BYTE   W72
 BYTE   W72
// 052   ----------------------------------------
 BYTE   W72
 BYTE   W72
// 053   ----------------------------------------
 BYTE   W72
 BYTE   W72
// 054   ----------------------------------------
 BYTE   W72
 BYTE   W72
// 055   ----------------------------------------
 BYTE   W72
 BYTE   W72
// 056   ----------------------------------------
 BYTE   W72
 BYTE   W72
// 057   ----------------------------------------
 BYTE   W72
 BYTE   W72
// 058   ----------------------------------------
 BYTE   W72
 BYTE   W72
// 059   ----------------------------------------
 BYTE   W72
 BYTE   W72
// 060   ----------------------------------------
 BYTE   W72
 BYTE   W72
// 061   ----------------------------------------
 BYTE   W72
 BYTE   W72
// 062   ----------------------------------------
 BYTE   W72
 BYTE   W72
// 063   ----------------------------------------
 BYTE   W72
 BYTE   W72
// 064   ----------------------------------------
 BYTE   W72
 BYTE   W72
// 065   ----------------------------------------
 BYTE   W72
 BYTE   W72
// 066   ----------------------------------------
 BYTE   W72
 BYTE   W72
// 067   ----------------------------------------
 BYTE   W72
 BYTE   W72
// 068   ----------------------------------------
 BYTE   W72
 BYTE   N66  An2  v112
 BYTE   W72
// 069   ----------------------------------------
 BYTE   Cn3
 BYTE   W72
 BYTE   En3
 BYTE   W72
// 070   ----------------------------------------
 BYTE   An3
 BYTE   W72
 BYTE   Fn3
 BYTE   W72
// 071   ----------------------------------------
 BYTE   Dn3
 BYTE   W72
 BYTE   Bn2
 BYTE   W72
// 072   ----------------------------------------
 BYTE   GoTo
  POIN2 Label_4_01442C76
 BYTE   FINE

//**************** Track 6 (Midi-Chn.5) ****************//

KirbyTheCrystalShards02BattleMrGreen3339_006:
// 000   ----------------------------------------
 BYTE   KEYSH   KirbyTheCrystalShards02BattleMrGreen3339_key+0
Label_5_01442D1E:
 BYTE   VOICE   57
 BYTE   VOL   65*KirbyTheCrystalShards02BattleMrGreen3339_mvl/mxv
 BYTE   PAN   c_v+0
 BYTE   W72
 BYTE   W72
// 001   ----------------------------------------
 BYTE   W72
 BYTE   W72
// 002   ----------------------------------------
 BYTE   W72
 BYTE   W72
// 003   ----------------------------------------
 BYTE   W72
 BYTE   W72
// 004   ----------------------------------------
 BYTE   W72
 BYTE   W72
// 005   ----------------------------------------
 BYTE   W72
 BYTE   W72
// 006   ----------------------------------------
 BYTE   W72
 BYTE   W72
// 007   ----------------------------------------
 BYTE   W72
 BYTE   W72
// 008   ----------------------------------------
 BYTE   W72
 BYTE   W72
// 009   ----------------------------------------
 BYTE   W72
 BYTE   W72
// 010   ----------------------------------------
 BYTE   W72
 BYTE   W72
// 011   ----------------------------------------
 BYTE   W72
 BYTE   W72
// 012   ----------------------------------------
 BYTE   W72
 BYTE   W72
// 013   ----------------------------------------
 BYTE   W72
 BYTE   W72
// 014   ----------------------------------------
 BYTE   W72
 BYTE   W72
// 015   ----------------------------------------
 BYTE   W72
 BYTE   W72
// 016   ----------------------------------------
 BYTE   W72
 BYTE   W72
// 017   ----------------------------------------
 BYTE   W72
 BYTE   W72
// 018   ----------------------------------------
 BYTE   W72
 BYTE   W72
// 019   ----------------------------------------
 BYTE   W72
 BYTE   W72
// 020   ----------------------------------------
 BYTE   W72
 BYTE   W72
// 021   ----------------------------------------
 BYTE   W72
 BYTE   W72
// 022   ----------------------------------------
 BYTE   W72
 BYTE   W72
// 023   ----------------------------------------
 BYTE   W72
 BYTE   W72
// 024   ----------------------------------------
 BYTE   W72
 BYTE   W72
// 025   ----------------------------------------
 BYTE   W72
 BYTE   W72
// 026   ----------------------------------------
 BYTE   W72
 BYTE   W72
// 027   ----------------------------------------
 BYTE   W72
 BYTE   W72
// 028   ----------------------------------------
 BYTE   W72
 BYTE   W72
// 029   ----------------------------------------
 BYTE   W72
 BYTE   W72
// 030   ----------------------------------------
 BYTE   W72
 BYTE   W72
// 031   ----------------------------------------
 BYTE   W72
 BYTE   W72
// 032   ----------------------------------------
 BYTE   W72
 BYTE   W72
// 033   ----------------------------------------
 BYTE   W72
 BYTE   W72
// 034   ----------------------------------------
 BYTE   W72
 BYTE   W72
// 035   ----------------------------------------
 BYTE   W72
 BYTE   W72
// 036   ----------------------------------------
 BYTE   W72
 BYTE   W72
// 037   ----------------------------------------
 BYTE   W72
 BYTE   W72
// 038   ----------------------------------------
 BYTE   W72
 BYTE   W72
// 039   ----------------------------------------
 BYTE   W72
 BYTE   W72
// 040   ----------------------------------------
 BYTE   W72
 BYTE   W72
// 041   ----------------------------------------
 BYTE   W72
 BYTE   W72
// 042   ----------------------------------------
 BYTE   W72
 BYTE   W72
// 043   ----------------------------------------
 BYTE   W72
 BYTE   W72
// 044   ----------------------------------------
 BYTE   W72
 BYTE   W72
// 045   ----------------------------------------
 BYTE   W72
 BYTE   W72
// 046   ----------------------------------------
 BYTE   W72
 BYTE   W72
// 047   ----------------------------------------
 BYTE   W72
 BYTE   W72
// 048   ----------------------------------------
 BYTE   W72
 BYTE   W72
// 049   ----------------------------------------
 BYTE   W72
 BYTE   W72
// 050   ----------------------------------------
 BYTE   W72
 BYTE   W72
// 051   ----------------------------------------
 BYTE   W72
 BYTE   W72
// 052   ----------------------------------------
 BYTE   W72
 BYTE   W72
// 053   ----------------------------------------
 BYTE   W72
 BYTE   W72
// 054   ----------------------------------------
 BYTE   W72
 BYTE   W72
// 055   ----------------------------------------
 BYTE   W72
 BYTE   W72
// 056   ----------------------------------------
 BYTE   W72
 BYTE   W72
// 057   ----------------------------------------
 BYTE   W72
 BYTE   W72
// 058   ----------------------------------------
 BYTE   W72
 BYTE   W72
// 059   ----------------------------------------
 BYTE   W72
 BYTE   W72
// 060   ----------------------------------------
 BYTE   W72
 BYTE   W72
// 061   ----------------------------------------
 BYTE   W72
 BYTE   W72
// 062   ----------------------------------------
 BYTE   W72
 BYTE   W72
// 063   ----------------------------------------
 BYTE   W72
 BYTE   W72
// 064   ----------------------------------------
 BYTE   W72
 BYTE   W72
// 065   ----------------------------------------
 BYTE   W72
 BYTE   W72
// 066   ----------------------------------------
 BYTE   W72
 BYTE   W72
// 067   ----------------------------------------
 BYTE   W72
 BYTE   W72
// 068   ----------------------------------------
 BYTE   W72
 BYTE   N66  An1  v112
 BYTE   W72
// 069   ----------------------------------------
 BYTE   Cn2
 BYTE   W72
 BYTE   En2
 BYTE   W72
// 070   ----------------------------------------
 BYTE   An2
 BYTE   W72
 BYTE   Fn2
 BYTE   W72
// 071   ----------------------------------------
 BYTE   Dn2
 BYTE   W72
 BYTE   Bn1
 BYTE   W72
// 072   ----------------------------------------
 BYTE   GoTo
  POIN2 Label_5_01442D1E
 BYTE   FINE

//**************** Track 7 (Midi-Chn.6) ****************//

KirbyTheCrystalShards02BattleMrGreen3339_007:
// 000   ----------------------------------------
 BYTE   KEYSH   KirbyTheCrystalShards02BattleMrGreen3339_key+0
Label_6_01442DC6:
 BYTE   VOICE   2
 BYTE   VOL   65*KirbyTheCrystalShards02BattleMrGreen3339_mvl/mxv
 BYTE   PAN   c_v+0
 BYTE   VOL   65*KirbyTheCrystalShards02BattleMrGreen3339_mvl/mxv
 BYTE   PAN   c_v+0
 BYTE   N11  An0  v076
 BYTE   N11  An2  v048
 BYTE   W12
 BYTE   En1  v076
 BYTE   N11  En3  v048
 BYTE   W12
 BYTE   An1  v076
 BYTE   N11  An3  v048
 BYTE   W12
 BYTE   En1  v076
 BYTE   N11  En3  v048
 BYTE   W12
 BYTE   An1  v076
 BYTE   N11  An3  v048
 BYTE   W12
 BYTE   En1  v076
 BYTE   N11  En3  v048
 BYTE   W12
Label_6_01442DF5:
 BYTE   N11  An0  v076
 BYTE   N11  An2  v048
 BYTE   W12
 BYTE   En1  v076
 BYTE   N11  En3  v048
 BYTE   W12
// 001   ----------------------------------------
 BYTE   An1  v076
 BYTE   N11  An3  v048
 BYTE   W12
 BYTE   En1  v076
 BYTE   N11  En3  v048
 BYTE   W12
 BYTE   An1  v076
 BYTE   N11  An3  v048
 BYTE   W12
 BYTE   En1  v076
 BYTE   N11  En3  v048
 BYTE   W12
 BYTE   PEND 
 BYTE   PATT
  POIN2 Label_6_01442DF5
 BYTE   PATT
  POIN2 Label_6_01442DF5
// 002   ----------------------------------------
Label_6_01442E25:
 BYTE   N11  Cn1  v076
 BYTE   N11  Cn3  v048
 BYTE   W12
 BYTE   An1  v076
 BYTE   N11  An3  v048
 BYTE   W12
 BYTE   Cn2  v076
 BYTE   N11  Cn4  v048
 BYTE   W12
 BYTE   An1  v076
 BYTE   N11  An3  v048
 BYTE   W12
 BYTE   Cn2  v076
 BYTE   N11  Cn4  v048
 BYTE   W12
 BYTE   An1  v076
 BYTE   N11  An3  v048
 BYTE   W12
 BYTE   PEND 
 BYTE   PATT
  POIN2 Label_6_01442E25
 BYTE   PATT
  POIN2 Label_6_01442E25
 BYTE   PATT
  POIN2 Label_6_01442E25
// 003   ----------------------------------------
Label_6_01442E5A:
 BYTE   N11  Fn0  v076
 BYTE   N11  Fn2  v048
 BYTE   W12
 BYTE   Cn1  v076
 BYTE   N11  Cn3  v048
 BYTE   W12
 BYTE   Fn1  v076
 BYTE   N11  Fn3  v048
 BYTE   W12
 BYTE   Cn1  v076
 BYTE   N11  Cn3  v048
 BYTE   W12
 BYTE   Fn1  v076
 BYTE   N11  Fn3  v048
 BYTE   W12
 BYTE   Cn1  v076
 BYTE   N11  Cn3  v048
 BYTE   W12
 BYTE   PEND 
 BYTE   PATT
  POIN2 Label_6_01442E5A
 BYTE   PATT
  POIN2 Label_6_01442E5A
 BYTE   PATT
  POIN2 Label_6_01442E5A
// 004   ----------------------------------------
Label_6_01442E8F:
 BYTE   N11  Gn0  v076
 BYTE   N11  Gn2  v048
 BYTE   W12
 BYTE   Dn1  v076
 BYTE   N11  Dn3  v048
 BYTE   W12
 BYTE   Fn1  v076
 BYTE   N11  Fn3  v048
 BYTE   W12
 BYTE   Dn1  v076
 BYTE   N11  Dn3  v048
 BYTE   W12
 BYTE   Fn1  v076
 BYTE   N11  Fn3  v048
 BYTE   W12
 BYTE   Dn1  v076
 BYTE   N11  Dn3  v048
 BYTE   W12
 BYTE   PEND 
 BYTE   PATT
  POIN2 Label_6_01442E8F
 BYTE   PATT
  POIN2 Label_6_01442E8F
 BYTE   PATT
  POIN2 Label_6_01442E8F
 BYTE   PATT
  POIN2 Label_6_01442DF5
 BYTE   PATT
  POIN2 Label_6_01442DF5
 BYTE   PATT
  POIN2 Label_6_01442DF5
 BYTE   PATT
  POIN2 Label_6_01442DF5
 BYTE   PATT
  POIN2 Label_6_01442E25
 BYTE   PATT
  POIN2 Label_6_01442E25
 BYTE   PATT
  POIN2 Label_6_01442E25
 BYTE   PATT
  POIN2 Label_6_01442E25
 BYTE   PATT
  POIN2 Label_6_01442E5A
 BYTE   PATT
  POIN2 Label_6_01442E5A
 BYTE   PATT
  POIN2 Label_6_01442E5A
 BYTE   PATT
  POIN2 Label_6_01442E5A
 BYTE   PATT
  POIN2 Label_6_01442E8F
 BYTE   PATT
  POIN2 Label_6_01442E8F
 BYTE   PATT
  POIN2 Label_6_01442E8F
 BYTE   PATT
  POIN2 Label_6_01442E8F
 BYTE   PATT
  POIN2 Label_6_01442DF5
 BYTE   PATT
  POIN2 Label_6_01442DF5
 BYTE   PATT
  POIN2 Label_6_01442DF5
 BYTE   PATT
  POIN2 Label_6_01442DF5
 BYTE   PATT
  POIN2 Label_6_01442E25
 BYTE   PATT
  POIN2 Label_6_01442E25
 BYTE   PATT
  POIN2 Label_6_01442E25
 BYTE   PATT
  POIN2 Label_6_01442E25
 BYTE   PATT
  POIN2 Label_6_01442E5A
 BYTE   PATT
  POIN2 Label_6_01442E5A
 BYTE   PATT
  POIN2 Label_6_01442E5A
 BYTE   PATT
  POIN2 Label_6_01442E5A
 BYTE   PATT
  POIN2 Label_6_01442E8F
 BYTE   PATT
  POIN2 Label_6_01442E8F
 BYTE   PATT
  POIN2 Label_6_01442E8F
 BYTE   PATT
  POIN2 Label_6_01442E8F
 BYTE   PATT
  POIN2 Label_6_01442DF5
 BYTE   PATT
  POIN2 Label_6_01442DF5
 BYTE   PATT
  POIN2 Label_6_01442DF5
 BYTE   PATT
  POIN2 Label_6_01442DF5
 BYTE   PATT
  POIN2 Label_6_01442E25
 BYTE   PATT
  POIN2 Label_6_01442E25
 BYTE   PATT
  POIN2 Label_6_01442E25
 BYTE   PATT
  POIN2 Label_6_01442E25
 BYTE   PATT
  POIN2 Label_6_01442E5A
 BYTE   PATT
  POIN2 Label_6_01442E5A
 BYTE   PATT
  POIN2 Label_6_01442E5A
 BYTE   PATT
  POIN2 Label_6_01442E5A
 BYTE   PATT
  POIN2 Label_6_01442E8F
 BYTE   PATT
  POIN2 Label_6_01442E8F
 BYTE   PATT
  POIN2 Label_6_01442E8F
 BYTE   PATT
  POIN2 Label_6_01442E8F
 BYTE   PATT
  POIN2 Label_6_01442DF5
 BYTE   PATT
  POIN2 Label_6_01442DF5
 BYTE   PATT
  POIN2 Label_6_01442DF5
 BYTE   PATT
  POIN2 Label_6_01442DF5
 BYTE   PATT
  POIN2 Label_6_01442E25
 BYTE   PATT
  POIN2 Label_6_01442E25
 BYTE   PATT
  POIN2 Label_6_01442E25
 BYTE   PATT
  POIN2 Label_6_01442E25
 BYTE   PATT
  POIN2 Label_6_01442E5A
 BYTE   PATT
  POIN2 Label_6_01442E5A
 BYTE   PATT
  POIN2 Label_6_01442E5A
 BYTE   PATT
  POIN2 Label_6_01442E5A
 BYTE   PATT
  POIN2 Label_6_01442E8F
 BYTE   PATT
  POIN2 Label_6_01442E8F
 BYTE   PATT
  POIN2 Label_6_01442E8F
 BYTE   PATT
  POIN2 Label_6_01442E8F
 BYTE   PATT
  POIN2 Label_6_01442DF5
 BYTE   PATT
  POIN2 Label_6_01442DF5
 BYTE   PATT
  POIN2 Label_6_01442DF5
 BYTE   PATT
  POIN2 Label_6_01442DF5
 BYTE   PATT
  POIN2 Label_6_01442E25
 BYTE   PATT
  POIN2 Label_6_01442E25
 BYTE   PATT
  POIN2 Label_6_01442E25
 BYTE   PATT
  POIN2 Label_6_01442E25
 BYTE   PATT
  POIN2 Label_6_01442E5A
 BYTE   PATT
  POIN2 Label_6_01442E5A
 BYTE   PATT
  POIN2 Label_6_01442E5A
 BYTE   PATT
  POIN2 Label_6_01442E5A
 BYTE   PATT
  POIN2 Label_6_01442E8F
 BYTE   PATT
  POIN2 Label_6_01442E8F
 BYTE   PATT
  POIN2 Label_6_01442E8F
 BYTE   PATT
  POIN2 Label_6_01442E8F
 BYTE   PATT
  POIN2 Label_6_01442DF5
 BYTE   PATT
  POIN2 Label_6_01442DF5
 BYTE   PATT
  POIN2 Label_6_01442DF5
 BYTE   PATT
  POIN2 Label_6_01442DF5
 BYTE   PATT
  POIN2 Label_6_01442E25
 BYTE   PATT
  POIN2 Label_6_01442E25
 BYTE   PATT
  POIN2 Label_6_01442E25
 BYTE   PATT
  POIN2 Label_6_01442E25
 BYTE   PATT
  POIN2 Label_6_01442E5A
 BYTE   PATT
  POIN2 Label_6_01442E5A
 BYTE   PATT
  POIN2 Label_6_01442E5A
 BYTE   PATT
  POIN2 Label_6_01442E5A
 BYTE   PATT
  POIN2 Label_6_01442E8F
 BYTE   PATT
  POIN2 Label_6_01442E8F
 BYTE   PATT
  POIN2 Label_6_01442E8F
 BYTE   PATT
  POIN2 Label_6_01442E8F
 BYTE   PATT
  POIN2 Label_6_01442DF5
 BYTE   PATT
  POIN2 Label_6_01442DF5
 BYTE   PATT
  POIN2 Label_6_01442DF5
 BYTE   PATT
  POIN2 Label_6_01442DF5
 BYTE   PATT
  POIN2 Label_6_01442E25
 BYTE   PATT
  POIN2 Label_6_01442E25
 BYTE   PATT
  POIN2 Label_6_01442E25
 BYTE   PATT
  POIN2 Label_6_01442E25
 BYTE   PATT
  POIN2 Label_6_01442E5A
 BYTE   PATT
  POIN2 Label_6_01442E5A
 BYTE   PATT
  POIN2 Label_6_01442E5A
 BYTE   PATT
  POIN2 Label_6_01442E5A
 BYTE   PATT
  POIN2 Label_6_01442E8F
 BYTE   PATT
  POIN2 Label_6_01442E8F
 BYTE   PATT
  POIN2 Label_6_01442E8F
 BYTE   PATT
  POIN2 Label_6_01442E8F
 BYTE   PATT
  POIN2 Label_6_01442DF5
 BYTE   PATT
  POIN2 Label_6_01442DF5
 BYTE   PATT
  POIN2 Label_6_01442DF5
 BYTE   PATT
  POIN2 Label_6_01442DF5
 BYTE   PATT
  POIN2 Label_6_01442E25
 BYTE   PATT
  POIN2 Label_6_01442E25
 BYTE   PATT
  POIN2 Label_6_01442E25
 BYTE   PATT
  POIN2 Label_6_01442E25
 BYTE   PATT
  POIN2 Label_6_01442E5A
 BYTE   PATT
  POIN2 Label_6_01442E5A
 BYTE   PATT
  POIN2 Label_6_01442E5A
 BYTE   PATT
  POIN2 Label_6_01442E5A
 BYTE   PATT
  POIN2 Label_6_01442E8F
 BYTE   PATT
  POIN2 Label_6_01442E8F
 BYTE   PATT
  POIN2 Label_6_01442E8F
 BYTE   PATT
  POIN2 Label_6_01442E8F
// 005   ----------------------------------------
 BYTE   GoTo
  POIN2 Label_6_01442DC6
 BYTE   FINE

//**************** Track 8 (Midi-Chn.7) ****************//

KirbyTheCrystalShards02BattleMrGreen3339_008:
// 000   ----------------------------------------
 BYTE   KEYSH   KirbyTheCrystalShards02BattleMrGreen3339_key+0
Label_7_0144314E:
 BYTE   VOICE   127
 BYTE   VOL   65*KirbyTheCrystalShards02BattleMrGreen3339_mvl/mxv
 BYTE   PAN   c_v+0
 BYTE   N11  Cn1  v092
 BYTE   N11  En2
 BYTE   W24
 BYTE   Cn1
 BYTE   W12
 BYTE   En1
 BYTE   W24
 BYTE   N11
 BYTE   W12
Label_7_01443160:
 BYTE   N11  Cn1  v092
 BYTE   W24
// 001   ----------------------------------------
 BYTE   En1
 BYTE   W24
 BYTE   N11
 BYTE   W24
 BYTE   PEND 
Label_7_01443169:
 BYTE   N11  Cn1  v092
 BYTE   W24
 BYTE   N11
 BYTE   W12
 BYTE   En1
 BYTE   W24
// 002   ----------------------------------------
 BYTE   N11
 BYTE   W12
 BYTE   PEND 
 BYTE   PATT
  POIN2 Label_7_01443160
 BYTE   PATT
  POIN2 Label_7_01443169
 BYTE   PATT
  POIN2 Label_7_01443160
 BYTE   PATT
  POIN2 Label_7_01443169
 BYTE   PATT
  POIN2 Label_7_01443160
 BYTE   PATT
  POIN2 Label_7_01443169
 BYTE   PATT
  POIN2 Label_7_01443160
 BYTE   PATT
  POIN2 Label_7_01443169
 BYTE   PATT
  POIN2 Label_7_01443160
 BYTE   PATT
  POIN2 Label_7_01443169
 BYTE   PATT
  POIN2 Label_7_01443160
 BYTE   PATT
  POIN2 Label_7_01443169
// 003   ----------------------------------------
Label_7_014431B0:
 BYTE   N11  Cn1  v092
 BYTE   W24
 BYTE   N11
 BYTE   W12
 BYTE   En1
 BYTE   W12
 BYTE   N11
 BYTE   W12
 BYTE   N11
 BYTE   W12
 BYTE   PEND 
Label_7_014431BD:
 BYTE   N11  Cn1  v092
 BYTE   N11  En2
 BYTE   W24
// 004   ----------------------------------------
 BYTE   Cn1
 BYTE   W12
 BYTE   En1
 BYTE   W24
 BYTE   N11
 BYTE   W12
 BYTE   PEND 
 BYTE   PATT
  POIN2 Label_7_01443160
 BYTE   PATT
  POIN2 Label_7_01443169
 BYTE   PATT
  POIN2 Label_7_01443160
 BYTE   PATT
  POIN2 Label_7_01443169
 BYTE   PATT
  POIN2 Label_7_01443160
 BYTE   PATT
  POIN2 Label_7_01443169
 BYTE   PATT
  POIN2 Label_7_01443160
 BYTE   PATT
  POIN2 Label_7_01443169
 BYTE   PATT
  POIN2 Label_7_01443160
 BYTE   PATT
  POIN2 Label_7_01443169
 BYTE   PATT
  POIN2 Label_7_01443160
 BYTE   PATT
  POIN2 Label_7_01443169
 BYTE   PATT
  POIN2 Label_7_01443160
 BYTE   PATT
  POIN2 Label_7_01443169
 BYTE   PATT
  POIN2 Label_7_014431B0
 BYTE   PATT
  POIN2 Label_7_014431BD
 BYTE   PATT
  POIN2 Label_7_01443160
 BYTE   PATT
  POIN2 Label_7_01443169
 BYTE   PATT
  POIN2 Label_7_01443160
 BYTE   PATT
  POIN2 Label_7_01443169
 BYTE   PATT
  POIN2 Label_7_01443160
 BYTE   PATT
  POIN2 Label_7_01443169
 BYTE   PATT
  POIN2 Label_7_01443160
 BYTE   PATT
  POIN2 Label_7_01443169
 BYTE   PATT
  POIN2 Label_7_01443160
 BYTE   PATT
  POIN2 Label_7_01443169
 BYTE   PATT
  POIN2 Label_7_01443160
 BYTE   PATT
  POIN2 Label_7_01443169
 BYTE   PATT
  POIN2 Label_7_01443160
 BYTE   PATT
  POIN2 Label_7_01443169
 BYTE   PATT
  POIN2 Label_7_014431B0
 BYTE   PATT
  POIN2 Label_7_014431BD
 BYTE   PATT
  POIN2 Label_7_01443160
 BYTE   PATT
  POIN2 Label_7_01443169
 BYTE   PATT
  POIN2 Label_7_01443160
 BYTE   PATT
  POIN2 Label_7_01443169
 BYTE   PATT
  POIN2 Label_7_01443160
 BYTE   PATT
  POIN2 Label_7_01443169
 BYTE   PATT
  POIN2 Label_7_01443160
 BYTE   PATT
  POIN2 Label_7_01443169
 BYTE   PATT
  POIN2 Label_7_01443160
 BYTE   PATT
  POIN2 Label_7_01443169
 BYTE   PATT
  POIN2 Label_7_01443160
 BYTE   PATT
  POIN2 Label_7_01443169
 BYTE   PATT
  POIN2 Label_7_01443160
 BYTE   PATT
  POIN2 Label_7_01443169
 BYTE   PATT
  POIN2 Label_7_014431B0
 BYTE   PATT
  POIN2 Label_7_014431BD
 BYTE   PATT
  POIN2 Label_7_01443160
 BYTE   PATT
  POIN2 Label_7_01443169
 BYTE   PATT
  POIN2 Label_7_01443160
 BYTE   PATT
  POIN2 Label_7_01443169
 BYTE   PATT
  POIN2 Label_7_01443160
 BYTE   PATT
  POIN2 Label_7_01443169
 BYTE   PATT
  POIN2 Label_7_01443160
 BYTE   PATT
  POIN2 Label_7_01443169
 BYTE   PATT
  POIN2 Label_7_01443160
 BYTE   PATT
  POIN2 Label_7_01443169
 BYTE   PATT
  POIN2 Label_7_01443160
 BYTE   PATT
  POIN2 Label_7_01443169
 BYTE   PATT
  POIN2 Label_7_01443160
 BYTE   PATT
  POIN2 Label_7_01443169
 BYTE   PATT
  POIN2 Label_7_014431B0
 BYTE   PATT
  POIN2 Label_7_014431BD
 BYTE   PATT
  POIN2 Label_7_01443160
 BYTE   PATT
  POIN2 Label_7_01443169
 BYTE   PATT
  POIN2 Label_7_01443160
 BYTE   PATT
  POIN2 Label_7_01443169
 BYTE   PATT
  POIN2 Label_7_01443160
 BYTE   PATT
  POIN2 Label_7_01443169
 BYTE   PATT
  POIN2 Label_7_01443160
 BYTE   PATT
  POIN2 Label_7_01443169
 BYTE   PATT
  POIN2 Label_7_01443160
 BYTE   PATT
  POIN2 Label_7_01443169
 BYTE   PATT
  POIN2 Label_7_01443160
 BYTE   PATT
  POIN2 Label_7_01443169
 BYTE   PATT
  POIN2 Label_7_01443160
 BYTE   PATT
  POIN2 Label_7_01443169
 BYTE   PATT
  POIN2 Label_7_014431B0
 BYTE   PATT
  POIN2 Label_7_014431BD
 BYTE   PATT
  POIN2 Label_7_01443160
 BYTE   PATT
  POIN2 Label_7_01443169
 BYTE   PATT
  POIN2 Label_7_01443160
 BYTE   PATT
  POIN2 Label_7_01443169
 BYTE   PATT
  POIN2 Label_7_01443160
 BYTE   PATT
  POIN2 Label_7_01443169
 BYTE   PATT
  POIN2 Label_7_01443160
 BYTE   PATT
  POIN2 Label_7_01443169
 BYTE   PATT
  POIN2 Label_7_01443160
 BYTE   PATT
  POIN2 Label_7_01443169
 BYTE   PATT
  POIN2 Label_7_01443160
 BYTE   PATT
  POIN2 Label_7_01443169
 BYTE   PATT
  POIN2 Label_7_01443160
 BYTE   PATT
  POIN2 Label_7_01443169
 BYTE   PATT
  POIN2 Label_7_014431B0
 BYTE   PATT
  POIN2 Label_7_014431BD
 BYTE   PATT
  POIN2 Label_7_01443160
 BYTE   PATT
  POIN2 Label_7_01443169
 BYTE   PATT
  POIN2 Label_7_01443160
 BYTE   PATT
  POIN2 Label_7_01443169
 BYTE   PATT
  POIN2 Label_7_01443160
 BYTE   PATT
  POIN2 Label_7_01443169
 BYTE   PATT
  POIN2 Label_7_01443160
 BYTE   PATT
  POIN2 Label_7_01443169
 BYTE   PATT
  POIN2 Label_7_01443160
 BYTE   PATT
  POIN2 Label_7_01443169
 BYTE   PATT
  POIN2 Label_7_01443160
 BYTE   PATT
  POIN2 Label_7_01443169
 BYTE   PATT
  POIN2 Label_7_01443160
 BYTE   PATT
  POIN2 Label_7_01443169
 BYTE   PATT
  POIN2 Label_7_014431B0
 BYTE   PATT
  POIN2 Label_7_014431BD
 BYTE   PATT
  POIN2 Label_7_01443160
 BYTE   PATT
  POIN2 Label_7_01443169
 BYTE   PATT
  POIN2 Label_7_01443160
 BYTE   PATT
  POIN2 Label_7_01443169
 BYTE   PATT
  POIN2 Label_7_01443160
 BYTE   PATT
  POIN2 Label_7_01443169
 BYTE   PATT
  POIN2 Label_7_01443160
 BYTE   PATT
  POIN2 Label_7_01443169
 BYTE   PATT
  POIN2 Label_7_01443160
 BYTE   PATT
  POIN2 Label_7_01443169
 BYTE   PATT
  POIN2 Label_7_01443160
 BYTE   PATT
  POIN2 Label_7_01443169
 BYTE   PATT
  POIN2 Label_7_01443160
 BYTE   PATT
  POIN2 Label_7_01443169
 BYTE   PATT
  POIN2 Label_7_014431B0
// 005   ----------------------------------------
 BYTE   GoTo
  POIN2 Label_7_0144314E
 BYTE   FINE

//**************** Track 9 (Midi-Chn.8) ****************//

KirbyTheCrystalShards02BattleMrGreen3339_009:
// 000   ----------------------------------------
 BYTE   KEYSH   KirbyTheCrystalShards02BattleMrGreen3339_key+0
Label_8_0144344E:
 BYTE   VOICE   46
 BYTE   VOL   65*KirbyTheCrystalShards02BattleMrGreen3339_mvl/mxv
 BYTE   PAN   c_v+0
 BYTE   VOL   65*KirbyTheCrystalShards02BattleMrGreen3339_mvl/mxv
 BYTE   PAN   c_v+0
 BYTE   TIE  An2  v076
 BYTE   W72
 BYTE   W72
// 001   ----------------------------------------
 BYTE   W72
 BYTE   W66
// 002   ----------------------------------------
 BYTE   EOT
 BYTE   W06
 BYTE   TIE  Gn2
 BYTE   W72
 BYTE   W72
// 003   ----------------------------------------
 BYTE   W72
 BYTE   W66
// 004   ----------------------------------------
 BYTE   EOT
 BYTE   W06
 BYTE   TIE  Fn2
 BYTE   W72
 BYTE   W72
// 005   ----------------------------------------
 BYTE   W72
 BYTE   W66
// 006   ----------------------------------------
 BYTE   EOT
 BYTE   W06
 BYTE   TIE  Gn2
 BYTE   W72
 BYTE   W72
// 007   ----------------------------------------
 BYTE   W72
 BYTE   W36
// 008   ----------------------------------------
 BYTE   EOT
 BYTE   N32  Gn2  v127
 BYTE   W36
 BYTE   TIE  An2
 BYTE   W72
// 009   ----------------------------------------
 BYTE   W72
 BYTE   W72
// 010   ----------------------------------------
 BYTE   W66
 BYTE   EOT
 BYTE   W06
 BYTE   TIE  Gn2  v076
 BYTE   W72
// 011   ----------------------------------------
 BYTE   W72
 BYTE   W72
// 012   ----------------------------------------
 BYTE   W36
 BYTE   EOT
 BYTE   N32  Gn2  v127
 BYTE   W36
 BYTE   TIE  Fn2  v076
 BYTE   N32  An2  v127
 BYTE   W72
// 013   ----------------------------------------
 BYTE   W72
 BYTE   W72
// 014   ----------------------------------------
 BYTE   W66
 BYTE   EOT
 BYTE   Fn2
 BYTE   W06
 BYTE   TIE  Gn2  v076
 BYTE   W72
// 015   ----------------------------------------
 BYTE   W72
 BYTE   W72
// 016   ----------------------------------------
 BYTE   W36
 BYTE   EOT
 BYTE   N32  Gn2  v127
 BYTE   W36
 BYTE   TIE  An2
 BYTE   W72
// 017   ----------------------------------------
 BYTE   W72
 BYTE   W72
// 018   ----------------------------------------
 BYTE   W66
 BYTE   EOT
 BYTE   W06
 BYTE   TIE  Gn2  v076
 BYTE   W72
// 019   ----------------------------------------
 BYTE   W72
 BYTE   W72
// 020   ----------------------------------------
 BYTE   W66
 BYTE   EOT
 BYTE   W06
 BYTE   TIE  Fn2
 BYTE   W72
// 021   ----------------------------------------
 BYTE   W72
 BYTE   W72
// 022   ----------------------------------------
 BYTE   W66
 BYTE   EOT
 BYTE   W06
 BYTE   TIE  Gn2
 BYTE   W72
// 023   ----------------------------------------
 BYTE   W72
 BYTE   W72
// 024   ----------------------------------------
 BYTE   W36
 BYTE   EOT
 BYTE   N32  Gn2  v127
 BYTE   W36
 BYTE   TIE  An2
 BYTE   W72
// 025   ----------------------------------------
 BYTE   W72
 BYTE   W72
// 026   ----------------------------------------
 BYTE   W66
 BYTE   EOT
 BYTE   W06
 BYTE   TIE  Gn2  v076
 BYTE   W72
// 027   ----------------------------------------
 BYTE   W72
 BYTE   W72
// 028   ----------------------------------------
 BYTE   W66
 BYTE   EOT
 BYTE   W06
 BYTE   TIE  Fn2
 BYTE   W72
// 029   ----------------------------------------
 BYTE   W72
 BYTE   W72
// 030   ----------------------------------------
 BYTE   W66
 BYTE   EOT
 BYTE   W06
 BYTE   TIE  Gn2
 BYTE   W72
// 031   ----------------------------------------
 BYTE   W72
 BYTE   W72
// 032   ----------------------------------------
 BYTE   W36
 BYTE   EOT
 BYTE   N32  Gn2  v127
 BYTE   W36
 BYTE   TIE  An2
 BYTE   W72
// 033   ----------------------------------------
 BYTE   W72
 BYTE   W72
// 034   ----------------------------------------
 BYTE   W66
 BYTE   EOT
 BYTE   W06
 BYTE   TIE  Gn2  v076
 BYTE   W72
// 035   ----------------------------------------
 BYTE   W72
 BYTE   W72
// 036   ----------------------------------------
 BYTE   W66
 BYTE   EOT
 BYTE   W06
 BYTE   TIE  Fn2
 BYTE   W72
// 037   ----------------------------------------
 BYTE   W72
 BYTE   W72
// 038   ----------------------------------------
 BYTE   W66
 BYTE   EOT
 BYTE   W06
 BYTE   TIE  Gn2
 BYTE   W72
// 039   ----------------------------------------
 BYTE   W72
 BYTE   W72
// 040   ----------------------------------------
 BYTE   W36
 BYTE   EOT
 BYTE   N32  Gn2  v127
 BYTE   W36
 BYTE   TIE  An2
 BYTE   W72
// 041   ----------------------------------------
 BYTE   W72
 BYTE   W72
// 042   ----------------------------------------
 BYTE   W66
 BYTE   EOT
 BYTE   W06
 BYTE   TIE  Gn2  v076
 BYTE   W72
// 043   ----------------------------------------
 BYTE   W72
 BYTE   W72
// 044   ----------------------------------------
 BYTE   W66
 BYTE   EOT
 BYTE   W06
 BYTE   TIE  Fn2
 BYTE   W72
// 045   ----------------------------------------
 BYTE   W72
 BYTE   W72
// 046   ----------------------------------------
 BYTE   W66
 BYTE   EOT
 BYTE   W06
 BYTE   TIE  Gn2
 BYTE   W72
// 047   ----------------------------------------
 BYTE   W72
 BYTE   W72
// 048   ----------------------------------------
 BYTE   W36
 BYTE   EOT
 BYTE   N32  Gn2  v127
 BYTE   W36
 BYTE   TIE  An2
 BYTE   W72
// 049   ----------------------------------------
 BYTE   W72
 BYTE   W72
// 050   ----------------------------------------
 BYTE   W66
 BYTE   EOT
 BYTE   W06
 BYTE   TIE  Gn2  v076
 BYTE   W72
// 051   ----------------------------------------
 BYTE   W72
 BYTE   W72
// 052   ----------------------------------------
 BYTE   W66
 BYTE   EOT
 BYTE   W06
 BYTE   TIE  Fn2
 BYTE   W72
// 053   ----------------------------------------
 BYTE   W72
 BYTE   W72
// 054   ----------------------------------------
 BYTE   W66
 BYTE   EOT
 BYTE   W06
 BYTE   TIE  Gn2
 BYTE   W72
// 055   ----------------------------------------
 BYTE   W72
 BYTE   W72
// 056   ----------------------------------------
 BYTE   W36
 BYTE   EOT
 BYTE   N32  Gn2  v127
 BYTE   W36
 BYTE   TIE  An2
 BYTE   W72
// 057   ----------------------------------------
 BYTE   W72
 BYTE   W72
// 058   ----------------------------------------
 BYTE   W66
 BYTE   EOT
 BYTE   W06
 BYTE   TIE  Gn2  v076
 BYTE   W72
// 059   ----------------------------------------
 BYTE   W72
 BYTE   W72
// 060   ----------------------------------------
 BYTE   W66
 BYTE   EOT
 BYTE   W06
 BYTE   TIE  Fn2
 BYTE   W72
// 061   ----------------------------------------
 BYTE   W72
 BYTE   W72
// 062   ----------------------------------------
 BYTE   W66
 BYTE   EOT
 BYTE   W06
 BYTE   TIE  Gn2
 BYTE   W72
// 063   ----------------------------------------
 BYTE   W72
 BYTE   W72
// 064   ----------------------------------------
 BYTE   W66
 BYTE   EOT
 BYTE   W06
 BYTE   TIE  An2
 BYTE   W72
// 065   ----------------------------------------
 BYTE   W72
 BYTE   W72
// 066   ----------------------------------------
 BYTE   W66
 BYTE   EOT
 BYTE   W06
 BYTE   TIE  Gn2
 BYTE   W72
// 067   ----------------------------------------
 BYTE   W72
 BYTE   W72
// 068   ----------------------------------------
 BYTE   W66
 BYTE   EOT
 BYTE   W06
 BYTE   TIE  Fn2
 BYTE   W72
// 069   ----------------------------------------
 BYTE   W72
 BYTE   W72
// 070   ----------------------------------------
 BYTE   W66
 BYTE   EOT
 BYTE   W06
 BYTE   TIE  Gn2
 BYTE   W72
// 071   ----------------------------------------
 BYTE   W72
 BYTE   W72
// 072   ----------------------------------------
 BYTE   W66
 BYTE   EOT
 BYTE   W06
 BYTE   GoTo
  POIN2 Label_8_0144344E
 BYTE   FINE

//**************** Track 10 (Midi-Chn.9) ****************//

KirbyTheCrystalShards02BattleMrGreen3339_010:
// 000   ----------------------------------------
 BYTE   KEYSH   KirbyTheCrystalShards02BattleMrGreen3339_key+0
Label_9_014435A6:
 BYTE   VOICE   50
 BYTE   VOL   65*KirbyTheCrystalShards02BattleMrGreen3339_mvl/mxv
 BYTE   PAN   c_v+0
 BYTE   TIE  An1  v112
 BYTE   W72
 BYTE   W72
// 001   ----------------------------------------
 BYTE   W72
 BYTE   W66
// 002   ----------------------------------------
 BYTE   EOT
 BYTE   W06
 BYTE   TIE  Gn1
 BYTE   W72
 BYTE   W72
// 003   ----------------------------------------
 BYTE   W72
 BYTE   W66
// 004   ----------------------------------------
 BYTE   EOT
 BYTE   W06
 BYTE   TIE  Fn1
 BYTE   W72
 BYTE   W72
// 005   ----------------------------------------
 BYTE   W72
 BYTE   W66
// 006   ----------------------------------------
 BYTE   EOT
 BYTE   W06
 BYTE   TIE  Gn1
 BYTE   W72
 BYTE   W72
// 007   ----------------------------------------
 BYTE   W72
 BYTE   W66
// 008   ----------------------------------------
 BYTE   EOT
 BYTE   W06
 BYTE   TIE  An1
 BYTE   W72
 BYTE   W72
// 009   ----------------------------------------
 BYTE   W72
 BYTE   W66
// 010   ----------------------------------------
 BYTE   EOT
 BYTE   W06
 BYTE   TIE  Gn1
 BYTE   W72
 BYTE   W72
// 011   ----------------------------------------
 BYTE   W72
 BYTE   W66
// 012   ----------------------------------------
 BYTE   EOT
 BYTE   W06
 BYTE   TIE  Fn1
 BYTE   W72
 BYTE   W72
// 013   ----------------------------------------
 BYTE   W72
 BYTE   W66
// 014   ----------------------------------------
 BYTE   EOT
 BYTE   W06
 BYTE   TIE  Gn1
 BYTE   W72
 BYTE   W72
// 015   ----------------------------------------
 BYTE   W72
 BYTE   W66
// 016   ----------------------------------------
 BYTE   EOT
 BYTE   W06
 BYTE   TIE  An1
 BYTE   W72
 BYTE   W72
// 017   ----------------------------------------
 BYTE   W72
 BYTE   W66
// 018   ----------------------------------------
 BYTE   EOT
 BYTE   W06
 BYTE   TIE  Gn1
 BYTE   W72
 BYTE   W72
// 019   ----------------------------------------
 BYTE   W72
 BYTE   W66
// 020   ----------------------------------------
 BYTE   EOT
 BYTE   W06
 BYTE   TIE  Fn1
 BYTE   W72
 BYTE   W72
// 021   ----------------------------------------
 BYTE   W72
 BYTE   W66
// 022   ----------------------------------------
 BYTE   EOT
 BYTE   W06
 BYTE   TIE  Gn1
 BYTE   W72
 BYTE   W72
// 023   ----------------------------------------
 BYTE   W72
 BYTE   W66
// 024   ----------------------------------------
 BYTE   EOT
 BYTE   W06
 BYTE   TIE  An1
 BYTE   W72
 BYTE   W72
// 025   ----------------------------------------
 BYTE   W72
 BYTE   W66
// 026   ----------------------------------------
 BYTE   EOT
 BYTE   W06
 BYTE   TIE  Gn1
 BYTE   W72
 BYTE   W72
// 027   ----------------------------------------
 BYTE   W72
 BYTE   W66
// 028   ----------------------------------------
 BYTE   EOT
 BYTE   W06
 BYTE   TIE  Fn1
 BYTE   W72
 BYTE   W72
// 029   ----------------------------------------
 BYTE   W72
 BYTE   W66
// 030   ----------------------------------------
 BYTE   EOT
 BYTE   W06
 BYTE   TIE  Gn1
 BYTE   W72
 BYTE   W72
// 031   ----------------------------------------
 BYTE   W72
 BYTE   W66
// 032   ----------------------------------------
 BYTE   EOT
 BYTE   W06
 BYTE   TIE  An1
 BYTE   W72
 BYTE   W72
// 033   ----------------------------------------
 BYTE   W72
 BYTE   W66
// 034   ----------------------------------------
 BYTE   EOT
 BYTE   W06
 BYTE   TIE  Gn1
 BYTE   W72
 BYTE   W72
// 035   ----------------------------------------
 BYTE   W72
 BYTE   W66
// 036   ----------------------------------------
 BYTE   EOT
 BYTE   W06
 BYTE   TIE  Fn1
 BYTE   W72
 BYTE   W72
// 037   ----------------------------------------
 BYTE   W72
 BYTE   W66
// 038   ----------------------------------------
 BYTE   EOT
 BYTE   W06
 BYTE   TIE  Gn1
 BYTE   W72
 BYTE   W72
// 039   ----------------------------------------
 BYTE   W72
 BYTE   W66
// 040   ----------------------------------------
 BYTE   EOT
 BYTE   W06
 BYTE   TIE  An1
 BYTE   W72
 BYTE   W72
// 041   ----------------------------------------
 BYTE   W72
 BYTE   W66
// 042   ----------------------------------------
 BYTE   EOT
 BYTE   W06
 BYTE   TIE  Gn1
 BYTE   W72
 BYTE   W72
// 043   ----------------------------------------
 BYTE   W72
 BYTE   W66
// 044   ----------------------------------------
 BYTE   EOT
 BYTE   W06
 BYTE   TIE  Fn1
 BYTE   W72
 BYTE   W72
// 045   ----------------------------------------
 BYTE   W72
 BYTE   W66
// 046   ----------------------------------------
 BYTE   EOT
 BYTE   W06
 BYTE   TIE  Gn1
 BYTE   W72
 BYTE   W72
// 047   ----------------------------------------
 BYTE   W72
 BYTE   W66
// 048   ----------------------------------------
 BYTE   EOT
 BYTE   W06
 BYTE   TIE  An1
 BYTE   W72
 BYTE   W72
// 049   ----------------------------------------
 BYTE   W72
 BYTE   W66
// 050   ----------------------------------------
 BYTE   EOT
 BYTE   W06
 BYTE   TIE  Gn1
 BYTE   W72
 BYTE   W72
// 051   ----------------------------------------
 BYTE   W72
 BYTE   W66
// 052   ----------------------------------------
 BYTE   EOT
 BYTE   W06
 BYTE   TIE  Fn1
 BYTE   W72
 BYTE   W72
// 053   ----------------------------------------
 BYTE   W72
 BYTE   W66
// 054   ----------------------------------------
 BYTE   EOT
 BYTE   W06
 BYTE   TIE  Gn1
 BYTE   W72
 BYTE   W72
// 055   ----------------------------------------
 BYTE   W72
 BYTE   W66
// 056   ----------------------------------------
 BYTE   EOT
 BYTE   W06
 BYTE   TIE  An1
 BYTE   W72
 BYTE   W72
// 057   ----------------------------------------
 BYTE   W72
 BYTE   W66
// 058   ----------------------------------------
 BYTE   EOT
 BYTE   W06
 BYTE   TIE  Gn1
 BYTE   W72
 BYTE   W72
// 059   ----------------------------------------
 BYTE   W72
 BYTE   W66
// 060   ----------------------------------------
 BYTE   EOT
 BYTE   W06
 BYTE   TIE  Fn1
 BYTE   W72
 BYTE   W72
// 061   ----------------------------------------
 BYTE   W72
 BYTE   W66
// 062   ----------------------------------------
 BYTE   EOT
 BYTE   W06
 BYTE   TIE  Gn1
 BYTE   W72
 BYTE   W72
// 063   ----------------------------------------
 BYTE   W72
 BYTE   W66
// 064   ----------------------------------------
 BYTE   EOT
 BYTE   W06
 BYTE   TIE  An1
 BYTE   W72
 BYTE   W72
// 065   ----------------------------------------
 BYTE   W72
 BYTE   W66
// 066   ----------------------------------------
 BYTE   EOT
 BYTE   W06
 BYTE   TIE  Gn1
 BYTE   W72
 BYTE   W72
// 067   ----------------------------------------
 BYTE   W72
 BYTE   W66
// 068   ----------------------------------------
 BYTE   EOT
 BYTE   W06
 BYTE   TIE  Fn1
 BYTE   W72
 BYTE   W72
// 069   ----------------------------------------
 BYTE   W72
 BYTE   W66
// 070   ----------------------------------------
 BYTE   EOT
 BYTE   W06
 BYTE   TIE  Gn1
 BYTE   W72
 BYTE   W72
// 071   ----------------------------------------
 BYTE   W72
 BYTE   W66
// 072   ----------------------------------------
 BYTE   EOT
 BYTE   W06
 BYTE   GoTo
  POIN2 Label_9_014435A6
 BYTE   FINE

//**************** Track 11 (Midi-Chn.10) ****************//

KirbyTheCrystalShards02BattleMrGreen3339_011:
// 000   ----------------------------------------
 BYTE   KEYSH   KirbyTheCrystalShards02BattleMrGreen3339_key+0
Label_10_014436D6:
 BYTE   VOICE   48
 BYTE   VOL   65*KirbyTheCrystalShards02BattleMrGreen3339_mvl/mxv
 BYTE   PAN   c_v+0
 BYTE   TIE  An2  v112
 BYTE   W72
 BYTE   W72
// 001   ----------------------------------------
 BYTE   W72
 BYTE   W66
// 002   ----------------------------------------
 BYTE   EOT
 BYTE   W06
 BYTE   TIE  Gn2
 BYTE   W72
 BYTE   W72
// 003   ----------------------------------------
 BYTE   W72
 BYTE   W66
// 004   ----------------------------------------
 BYTE   EOT
 BYTE   W06
 BYTE   TIE  Fn2
 BYTE   W72
 BYTE   W72
// 005   ----------------------------------------
 BYTE   W72
 BYTE   W66
// 006   ----------------------------------------
 BYTE   EOT
 BYTE   W06
 BYTE   TIE  Gn2
 BYTE   W72
 BYTE   W72
// 007   ----------------------------------------
 BYTE   W72
 BYTE   W66
// 008   ----------------------------------------
 BYTE   EOT
 BYTE   W06
 BYTE   TIE  An2
 BYTE   W72
 BYTE   W72
// 009   ----------------------------------------
 BYTE   W72
 BYTE   W66
// 010   ----------------------------------------
 BYTE   EOT
 BYTE   W06
 BYTE   TIE  Gn2
 BYTE   W72
 BYTE   W72
// 011   ----------------------------------------
 BYTE   W72
 BYTE   W66
// 012   ----------------------------------------
 BYTE   EOT
 BYTE   W06
 BYTE   TIE  Fn2
 BYTE   W72
 BYTE   W72
// 013   ----------------------------------------
 BYTE   W72
 BYTE   W66
// 014   ----------------------------------------
 BYTE   EOT
 BYTE   W06
 BYTE   TIE  Gn2
 BYTE   W72
 BYTE   W72
// 015   ----------------------------------------
 BYTE   W72
 BYTE   W66
// 016   ----------------------------------------
 BYTE   EOT
 BYTE   W06
 BYTE   TIE  An2
 BYTE   W72
 BYTE   W72
// 017   ----------------------------------------
 BYTE   W72
 BYTE   W66
// 018   ----------------------------------------
 BYTE   EOT
 BYTE   W06
 BYTE   TIE  Gn2
 BYTE   W72
 BYTE   W72
// 019   ----------------------------------------
 BYTE   W72
 BYTE   W66
// 020   ----------------------------------------
 BYTE   EOT
 BYTE   W06
 BYTE   TIE  Fn2
 BYTE   W72
 BYTE   W72
// 021   ----------------------------------------
 BYTE   W72
 BYTE   W66
// 022   ----------------------------------------
 BYTE   EOT
 BYTE   W06
 BYTE   TIE  Gn2
 BYTE   W72
 BYTE   W72
// 023   ----------------------------------------
 BYTE   W72
 BYTE   W66
// 024   ----------------------------------------
 BYTE   EOT
 BYTE   W06
 BYTE   TIE  An2
 BYTE   W72
 BYTE   W72
// 025   ----------------------------------------
 BYTE   W72
 BYTE   W66
// 026   ----------------------------------------
 BYTE   EOT
 BYTE   W06
 BYTE   TIE  Gn2
 BYTE   W72
 BYTE   W72
// 027   ----------------------------------------
 BYTE   W72
 BYTE   W66
// 028   ----------------------------------------
 BYTE   EOT
 BYTE   W06
 BYTE   TIE  Fn2
 BYTE   W72
 BYTE   W72
// 029   ----------------------------------------
 BYTE   W72
 BYTE   W66
// 030   ----------------------------------------
 BYTE   EOT
 BYTE   W06
 BYTE   TIE  Gn2
 BYTE   W72
 BYTE   W72
// 031   ----------------------------------------
 BYTE   W72
 BYTE   W66
// 032   ----------------------------------------
 BYTE   EOT
 BYTE   W06
 BYTE   TIE  An2
 BYTE   W72
 BYTE   W72
// 033   ----------------------------------------
 BYTE   W72
 BYTE   W66
// 034   ----------------------------------------
 BYTE   EOT
 BYTE   W06
 BYTE   TIE  Gn2
 BYTE   W72
 BYTE   W72
// 035   ----------------------------------------
 BYTE   W72
 BYTE   W66
// 036   ----------------------------------------
 BYTE   EOT
 BYTE   W06
 BYTE   TIE  Fn2
 BYTE   W72
 BYTE   W72
// 037   ----------------------------------------
 BYTE   W72
 BYTE   W66
// 038   ----------------------------------------
 BYTE   EOT
 BYTE   W06
 BYTE   TIE  Gn2
 BYTE   W72
 BYTE   W72
// 039   ----------------------------------------
 BYTE   W72
 BYTE   W66
// 040   ----------------------------------------
 BYTE   EOT
 BYTE   W06
 BYTE   TIE  An2
 BYTE   W72
 BYTE   W72
// 041   ----------------------------------------
 BYTE   W72
 BYTE   W66
// 042   ----------------------------------------
 BYTE   EOT
 BYTE   W06
 BYTE   TIE  Gn2
 BYTE   W72
 BYTE   W72
// 043   ----------------------------------------
 BYTE   W72
 BYTE   W66
// 044   ----------------------------------------
 BYTE   EOT
 BYTE   W06
 BYTE   TIE  Fn2
 BYTE   W72
 BYTE   W72
// 045   ----------------------------------------
 BYTE   W72
 BYTE   W66
// 046   ----------------------------------------
 BYTE   EOT
 BYTE   W06
 BYTE   TIE  Gn2
 BYTE   W72
 BYTE   W72
// 047   ----------------------------------------
 BYTE   W72
 BYTE   W66
// 048   ----------------------------------------
 BYTE   EOT
 BYTE   W06
 BYTE   TIE  An2
 BYTE   W72
 BYTE   W72
// 049   ----------------------------------------
 BYTE   W72
 BYTE   W66
// 050   ----------------------------------------
 BYTE   EOT
 BYTE   W06
 BYTE   TIE  Gn2
 BYTE   W72
 BYTE   W72
// 051   ----------------------------------------
 BYTE   W72
 BYTE   W66
// 052   ----------------------------------------
 BYTE   EOT
 BYTE   W06
 BYTE   TIE  Fn2
 BYTE   W72
 BYTE   W72
// 053   ----------------------------------------
 BYTE   W72
 BYTE   W66
// 054   ----------------------------------------
 BYTE   EOT
 BYTE   W06
 BYTE   TIE  Gn2
 BYTE   W72
 BYTE   W72
// 055   ----------------------------------------
 BYTE   W72
 BYTE   W66
// 056   ----------------------------------------
 BYTE   EOT
 BYTE   W06
 BYTE   TIE  An2
 BYTE   W72
 BYTE   W72
// 057   ----------------------------------------
 BYTE   W72
 BYTE   W66
// 058   ----------------------------------------
 BYTE   EOT
 BYTE   W06
 BYTE   TIE  Gn2
 BYTE   W72
 BYTE   W72
// 059   ----------------------------------------
 BYTE   W72
 BYTE   W66
// 060   ----------------------------------------
 BYTE   EOT
 BYTE   W06
 BYTE   TIE  Fn2
 BYTE   W72
 BYTE   W72
// 061   ----------------------------------------
 BYTE   W72
 BYTE   W66
// 062   ----------------------------------------
 BYTE   EOT
 BYTE   W06
 BYTE   TIE  Gn2
 BYTE   W72
 BYTE   W72
// 063   ----------------------------------------
 BYTE   W72
 BYTE   W66
// 064   ----------------------------------------
 BYTE   EOT
 BYTE   W06
 BYTE   TIE  An2
 BYTE   W72
 BYTE   W72
// 065   ----------------------------------------
 BYTE   W72
 BYTE   W66
// 066   ----------------------------------------
 BYTE   EOT
 BYTE   W06
 BYTE   TIE  Gn2
 BYTE   W72
 BYTE   W72
// 067   ----------------------------------------
 BYTE   W72
 BYTE   W66
// 068   ----------------------------------------
 BYTE   EOT
 BYTE   W06
 BYTE   TIE  Fn2
 BYTE   W72
 BYTE   W72
// 069   ----------------------------------------
 BYTE   W72
 BYTE   W66
// 070   ----------------------------------------
 BYTE   EOT
 BYTE   W06
 BYTE   TIE  Gn2
 BYTE   W72
 BYTE   W72
// 071   ----------------------------------------
 BYTE   W72
 BYTE   W66
// 072   ----------------------------------------
 BYTE   EOT
 BYTE   W06
 BYTE   GoTo
  POIN2 Label_10_014436D6
 BYTE   FINE

//**************** Track 12 (Midi-Chn.11) ****************//

KirbyTheCrystalShards02BattleMrGreen3339_012:
// 000   ----------------------------------------
 BYTE   KEYSH   KirbyTheCrystalShards02BattleMrGreen3339_key+0
Label_11_01443806:
 BYTE   VOICE   33
 BYTE   VOL   65*KirbyTheCrystalShards02BattleMrGreen3339_mvl/mxv
 BYTE   PAN   c_v+0
 BYTE   N11  An1  v112
 BYTE   W12
 BYTE   N11
 BYTE   W12
 BYTE   N11
 BYTE   W12
 BYTE   N11
 BYTE   W12
 BYTE   N11
 BYTE   W12
 BYTE   N11
 BYTE   W12
Label_11_0144381A:
 BYTE   N11  An1  v112
 BYTE   W12
 BYTE   N11
 BYTE   W12
// 001   ----------------------------------------
 BYTE   N11
 BYTE   W12
 BYTE   N11
 BYTE   W12
 BYTE   N11
 BYTE   W12
 BYTE   N11
 BYTE   W12
 BYTE   PEND 
 BYTE   PATT
  POIN2 Label_11_0144381A
 BYTE   PATT
  POIN2 Label_11_0144381A
// 002   ----------------------------------------
Label_11_01443833:
 BYTE   N11  Gn1  v112
 BYTE   W12
 BYTE   N11
 BYTE   W12
 BYTE   N11
 BYTE   W12
 BYTE   N11
 BYTE   W12
 BYTE   N11
 BYTE   W12
 BYTE   N11
 BYTE   W12
 BYTE   PEND 
 BYTE   PATT
  POIN2 Label_11_01443833
 BYTE   PATT
  POIN2 Label_11_01443833
 BYTE   PATT
  POIN2 Label_11_01443833
// 003   ----------------------------------------
Label_11_01443851:
 BYTE   N11  Fn1  v112
 BYTE   W12
 BYTE   N11
 BYTE   W12
 BYTE   N11
 BYTE   W12
 BYTE   N11
 BYTE   W12
 BYTE   N11
 BYTE   W12
 BYTE   N11
 BYTE   W12
 BYTE   PEND 
 BYTE   PATT
  POIN2 Label_11_01443851
 BYTE   PATT
  POIN2 Label_11_01443851
 BYTE   PATT
  POIN2 Label_11_01443851
 BYTE   PATT
  POIN2 Label_11_01443833
 BYTE   PATT
  POIN2 Label_11_01443833
 BYTE   PATT
  POIN2 Label_11_01443833
 BYTE   PATT
  POIN2 Label_11_01443833
 BYTE   PATT
  POIN2 Label_11_0144381A
 BYTE   PATT
  POIN2 Label_11_0144381A
 BYTE   PATT
  POIN2 Label_11_0144381A
 BYTE   PATT
  POIN2 Label_11_0144381A
 BYTE   PATT
  POIN2 Label_11_01443833
 BYTE   PATT
  POIN2 Label_11_01443833
 BYTE   PATT
  POIN2 Label_11_01443833
 BYTE   PATT
  POIN2 Label_11_01443833
 BYTE   PATT
  POIN2 Label_11_01443851
 BYTE   PATT
  POIN2 Label_11_01443851
 BYTE   PATT
  POIN2 Label_11_01443851
 BYTE   PATT
  POIN2 Label_11_01443851
 BYTE   PATT
  POIN2 Label_11_01443833
 BYTE   PATT
  POIN2 Label_11_01443833
 BYTE   PATT
  POIN2 Label_11_01443833
 BYTE   PATT
  POIN2 Label_11_01443833
 BYTE   PATT
  POIN2 Label_11_0144381A
 BYTE   PATT
  POIN2 Label_11_0144381A
 BYTE   PATT
  POIN2 Label_11_0144381A
 BYTE   PATT
  POIN2 Label_11_0144381A
 BYTE   PATT
  POIN2 Label_11_01443833
 BYTE   PATT
  POIN2 Label_11_01443833
 BYTE   PATT
  POIN2 Label_11_01443833
 BYTE   PATT
  POIN2 Label_11_01443833
 BYTE   PATT
  POIN2 Label_11_01443851
 BYTE   PATT
  POIN2 Label_11_01443851
 BYTE   PATT
  POIN2 Label_11_01443851
 BYTE   PATT
  POIN2 Label_11_01443851
 BYTE   PATT
  POIN2 Label_11_01443833
 BYTE   PATT
  POIN2 Label_11_01443833
 BYTE   PATT
  POIN2 Label_11_01443833
 BYTE   PATT
  POIN2 Label_11_01443833
 BYTE   PATT
  POIN2 Label_11_0144381A
 BYTE   PATT
  POIN2 Label_11_0144381A
 BYTE   PATT
  POIN2 Label_11_0144381A
 BYTE   PATT
  POIN2 Label_11_0144381A
 BYTE   PATT
  POIN2 Label_11_01443833
 BYTE   PATT
  POIN2 Label_11_01443833
 BYTE   PATT
  POIN2 Label_11_01443833
 BYTE   PATT
  POIN2 Label_11_01443833
 BYTE   PATT
  POIN2 Label_11_01443851
 BYTE   PATT
  POIN2 Label_11_01443851
 BYTE   PATT
  POIN2 Label_11_01443851
 BYTE   PATT
  POIN2 Label_11_01443851
 BYTE   PATT
  POIN2 Label_11_01443833
 BYTE   PATT
  POIN2 Label_11_01443833
 BYTE   PATT
  POIN2 Label_11_01443833
 BYTE   PATT
  POIN2 Label_11_01443833
 BYTE   PATT
  POIN2 Label_11_0144381A
 BYTE   PATT
  POIN2 Label_11_0144381A
 BYTE   PATT
  POIN2 Label_11_0144381A
 BYTE   PATT
  POIN2 Label_11_0144381A
 BYTE   PATT
  POIN2 Label_11_01443833
 BYTE   PATT
  POIN2 Label_11_01443833
 BYTE   PATT
  POIN2 Label_11_01443833
 BYTE   PATT
  POIN2 Label_11_01443833
 BYTE   PATT
  POIN2 Label_11_01443851
 BYTE   PATT
  POIN2 Label_11_01443851
 BYTE   PATT
  POIN2 Label_11_01443851
 BYTE   PATT
  POIN2 Label_11_01443851
 BYTE   PATT
  POIN2 Label_11_01443833
 BYTE   PATT
  POIN2 Label_11_01443833
 BYTE   PATT
  POIN2 Label_11_01443833
 BYTE   PATT
  POIN2 Label_11_01443833
 BYTE   PATT
  POIN2 Label_11_0144381A
 BYTE   PATT
  POIN2 Label_11_0144381A
 BYTE   PATT
  POIN2 Label_11_0144381A
 BYTE   PATT
  POIN2 Label_11_0144381A
 BYTE   PATT
  POIN2 Label_11_01443833
 BYTE   PATT
  POIN2 Label_11_01443833
 BYTE   PATT
  POIN2 Label_11_01443833
 BYTE   PATT
  POIN2 Label_11_01443833
 BYTE   PATT
  POIN2 Label_11_01443851
 BYTE   PATT
  POIN2 Label_11_01443851
 BYTE   PATT
  POIN2 Label_11_01443851
 BYTE   PATT
  POIN2 Label_11_01443851
 BYTE   PATT
  POIN2 Label_11_01443833
 BYTE   PATT
  POIN2 Label_11_01443833
 BYTE   PATT
  POIN2 Label_11_01443833
 BYTE   PATT
  POIN2 Label_11_01443833
 BYTE   PATT
  POIN2 Label_11_0144381A
 BYTE   PATT
  POIN2 Label_11_0144381A
 BYTE   PATT
  POIN2 Label_11_0144381A
 BYTE   PATT
  POIN2 Label_11_0144381A
 BYTE   PATT
  POIN2 Label_11_01443833
 BYTE   PATT
  POIN2 Label_11_01443833
 BYTE   PATT
  POIN2 Label_11_01443833
 BYTE   PATT
  POIN2 Label_11_01443833
 BYTE   PATT
  POIN2 Label_11_01443851
 BYTE   PATT
  POIN2 Label_11_01443851
 BYTE   PATT
  POIN2 Label_11_01443851
 BYTE   PATT
  POIN2 Label_11_01443851
 BYTE   PATT
  POIN2 Label_11_01443833
 BYTE   PATT
  POIN2 Label_11_01443833
 BYTE   PATT
  POIN2 Label_11_01443833
 BYTE   PATT
  POIN2 Label_11_01443833
 BYTE   PATT
  POIN2 Label_11_0144381A
 BYTE   PATT
  POIN2 Label_11_0144381A
 BYTE   PATT
  POIN2 Label_11_0144381A
 BYTE   PATT
  POIN2 Label_11_0144381A
 BYTE   PATT
  POIN2 Label_11_01443833
 BYTE   PATT
  POIN2 Label_11_01443833
 BYTE   PATT
  POIN2 Label_11_01443833
 BYTE   PATT
  POIN2 Label_11_01443833
 BYTE   PATT
  POIN2 Label_11_01443851
 BYTE   PATT
  POIN2 Label_11_01443851
 BYTE   PATT
  POIN2 Label_11_01443851
 BYTE   PATT
  POIN2 Label_11_01443851
 BYTE   PATT
  POIN2 Label_11_01443833
 BYTE   PATT
  POIN2 Label_11_01443833
 BYTE   PATT
  POIN2 Label_11_01443833
 BYTE   PATT
  POIN2 Label_11_01443833
 BYTE   PATT
  POIN2 Label_11_0144381A
 BYTE   PATT
  POIN2 Label_11_0144381A
 BYTE   PATT
  POIN2 Label_11_0144381A
 BYTE   PATT
  POIN2 Label_11_0144381A
 BYTE   PATT
  POIN2 Label_11_01443833
 BYTE   PATT
  POIN2 Label_11_01443833
 BYTE   PATT
  POIN2 Label_11_01443833
 BYTE   PATT
  POIN2 Label_11_01443833
 BYTE   PATT
  POIN2 Label_11_01443851
 BYTE   PATT
  POIN2 Label_11_01443851
 BYTE   PATT
  POIN2 Label_11_01443851
 BYTE   PATT
  POIN2 Label_11_01443851
 BYTE   PATT
  POIN2 Label_11_01443833
 BYTE   PATT
  POIN2 Label_11_01443833
 BYTE   PATT
  POIN2 Label_11_01443833
 BYTE   PATT
  POIN2 Label_11_01443833
// 004   ----------------------------------------
 BYTE   GoTo
  POIN2 Label_11_01443806
 BYTE   FINE

//**************** Track 13 (Midi-Chn.12) ****************//

KirbyTheCrystalShards02BattleMrGreen3339_013:
// 000   ----------------------------------------
 BYTE   KEYSH   KirbyTheCrystalShards02BattleMrGreen3339_key+0
Label_12_01443B0E:
 BYTE   VOICE   38
 BYTE   VOL   65*KirbyTheCrystalShards02BattleMrGreen3339_mvl/mxv
 BYTE   PAN   c_v+0
 BYTE   N11  An0  v112
 BYTE   W12
 BYTE   En1
 BYTE   W12
 BYTE   An1
 BYTE   W12
 BYTE   En1
 BYTE   W12
 BYTE   An1
 BYTE   W12
 BYTE   En1
 BYTE   W12
Label_12_01443B22:
 BYTE   N11  An0  v112
 BYTE   W12
 BYTE   En1
 BYTE   W12
// 001   ----------------------------------------
 BYTE   An1
 BYTE   W12
 BYTE   En1
 BYTE   W12
 BYTE   An1
 BYTE   W12
 BYTE   En1
 BYTE   W12
 BYTE   PEND 
 BYTE   PATT
  POIN2 Label_12_01443B22
 BYTE   PATT
  POIN2 Label_12_01443B22
// 002   ----------------------------------------
Label_12_01443B3B:
 BYTE   N11  Cn1  v112
 BYTE   W12
 BYTE   An1
 BYTE   W12
 BYTE   Cn2
 BYTE   W12
 BYTE   An1
 BYTE   W12
 BYTE   Cn2
 BYTE   W12
 BYTE   An1
 BYTE   W12
 BYTE   PEND 
 BYTE   PATT
  POIN2 Label_12_01443B3B
 BYTE   PATT
  POIN2 Label_12_01443B3B
 BYTE   PATT
  POIN2 Label_12_01443B3B
// 003   ----------------------------------------
Label_12_01443B59:
 BYTE   N11  Fn0  v112
 BYTE   W12
 BYTE   Cn1
 BYTE   W12
 BYTE   Fn1
 BYTE   W12
 BYTE   Cn1
 BYTE   W12
 BYTE   Fn1
 BYTE   W12
 BYTE   Cn1
 BYTE   W12
 BYTE   PEND 
 BYTE   PATT
  POIN2 Label_12_01443B59
 BYTE   PATT
  POIN2 Label_12_01443B59
 BYTE   PATT
  POIN2 Label_12_01443B59
// 004   ----------------------------------------
Label_12_01443B77:
 BYTE   N11  Gn0  v112
 BYTE   W12
 BYTE   Dn1
 BYTE   W12
 BYTE   Fn1
 BYTE   W12
 BYTE   Dn1
 BYTE   W12
 BYTE   Fn1
 BYTE   W12
 BYTE   Dn1
 BYTE   W12
 BYTE   PEND 
 BYTE   PATT
  POIN2 Label_12_01443B77
 BYTE   PATT
  POIN2 Label_12_01443B77
 BYTE   PATT
  POIN2 Label_12_01443B77
 BYTE   PATT
  POIN2 Label_12_01443B22
 BYTE   PATT
  POIN2 Label_12_01443B22
 BYTE   PATT
  POIN2 Label_12_01443B22
 BYTE   PATT
  POIN2 Label_12_01443B22
 BYTE   PATT
  POIN2 Label_12_01443B3B
 BYTE   PATT
  POIN2 Label_12_01443B3B
 BYTE   PATT
  POIN2 Label_12_01443B3B
 BYTE   PATT
  POIN2 Label_12_01443B3B
 BYTE   PATT
  POIN2 Label_12_01443B59
 BYTE   PATT
  POIN2 Label_12_01443B59
 BYTE   PATT
  POIN2 Label_12_01443B59
 BYTE   PATT
  POIN2 Label_12_01443B59
 BYTE   PATT
  POIN2 Label_12_01443B77
 BYTE   PATT
  POIN2 Label_12_01443B77
 BYTE   PATT
  POIN2 Label_12_01443B77
 BYTE   PATT
  POIN2 Label_12_01443B77
 BYTE   PATT
  POIN2 Label_12_01443B22
 BYTE   PATT
  POIN2 Label_12_01443B22
 BYTE   PATT
  POIN2 Label_12_01443B22
 BYTE   PATT
  POIN2 Label_12_01443B22
 BYTE   PATT
  POIN2 Label_12_01443B3B
 BYTE   PATT
  POIN2 Label_12_01443B3B
 BYTE   PATT
  POIN2 Label_12_01443B3B
 BYTE   PATT
  POIN2 Label_12_01443B3B
 BYTE   PATT
  POIN2 Label_12_01443B59
 BYTE   PATT
  POIN2 Label_12_01443B59
 BYTE   PATT
  POIN2 Label_12_01443B59
 BYTE   PATT
  POIN2 Label_12_01443B59
 BYTE   PATT
  POIN2 Label_12_01443B77
 BYTE   PATT
  POIN2 Label_12_01443B77
 BYTE   PATT
  POIN2 Label_12_01443B77
 BYTE   PATT
  POIN2 Label_12_01443B77
 BYTE   PATT
  POIN2 Label_12_01443B22
 BYTE   PATT
  POIN2 Label_12_01443B22
 BYTE   PATT
  POIN2 Label_12_01443B22
 BYTE   PATT
  POIN2 Label_12_01443B22
 BYTE   PATT
  POIN2 Label_12_01443B3B
 BYTE   PATT
  POIN2 Label_12_01443B3B
 BYTE   PATT
  POIN2 Label_12_01443B3B
 BYTE   PATT
  POIN2 Label_12_01443B3B
 BYTE   PATT
  POIN2 Label_12_01443B59
 BYTE   PATT
  POIN2 Label_12_01443B59
 BYTE   PATT
  POIN2 Label_12_01443B59
 BYTE   PATT
  POIN2 Label_12_01443B59
 BYTE   PATT
  POIN2 Label_12_01443B77
 BYTE   PATT
  POIN2 Label_12_01443B77
 BYTE   PATT
  POIN2 Label_12_01443B77
 BYTE   PATT
  POIN2 Label_12_01443B77
 BYTE   PATT
  POIN2 Label_12_01443B22
 BYTE   PATT
  POIN2 Label_12_01443B22
 BYTE   PATT
  POIN2 Label_12_01443B22
 BYTE   PATT
  POIN2 Label_12_01443B22
 BYTE   PATT
  POIN2 Label_12_01443B3B
 BYTE   PATT
  POIN2 Label_12_01443B3B
 BYTE   PATT
  POIN2 Label_12_01443B3B
 BYTE   PATT
  POIN2 Label_12_01443B3B
 BYTE   PATT
  POIN2 Label_12_01443B59
 BYTE   PATT
  POIN2 Label_12_01443B59
 BYTE   PATT
  POIN2 Label_12_01443B59
 BYTE   PATT
  POIN2 Label_12_01443B59
 BYTE   PATT
  POIN2 Label_12_01443B77
 BYTE   PATT
  POIN2 Label_12_01443B77
 BYTE   PATT
  POIN2 Label_12_01443B77
 BYTE   PATT
  POIN2 Label_12_01443B77
 BYTE   PATT
  POIN2 Label_12_01443B22
 BYTE   PATT
  POIN2 Label_12_01443B22
 BYTE   PATT
  POIN2 Label_12_01443B22
 BYTE   PATT
  POIN2 Label_12_01443B22
 BYTE   PATT
  POIN2 Label_12_01443B3B
 BYTE   PATT
  POIN2 Label_12_01443B3B
 BYTE   PATT
  POIN2 Label_12_01443B3B
 BYTE   PATT
  POIN2 Label_12_01443B3B
 BYTE   PATT
  POIN2 Label_12_01443B59
 BYTE   PATT
  POIN2 Label_12_01443B59
 BYTE   PATT
  POIN2 Label_12_01443B59
 BYTE   PATT
  POIN2 Label_12_01443B59
 BYTE   PATT
  POIN2 Label_12_01443B77
 BYTE   PATT
  POIN2 Label_12_01443B77
 BYTE   PATT
  POIN2 Label_12_01443B77
 BYTE   PATT
  POIN2 Label_12_01443B77
 BYTE   PATT
  POIN2 Label_12_01443B22
 BYTE   PATT
  POIN2 Label_12_01443B22
 BYTE   PATT
  POIN2 Label_12_01443B22
 BYTE   PATT
  POIN2 Label_12_01443B22
 BYTE   PATT
  POIN2 Label_12_01443B3B
 BYTE   PATT
  POIN2 Label_12_01443B3B
 BYTE   PATT
  POIN2 Label_12_01443B3B
 BYTE   PATT
  POIN2 Label_12_01443B3B
 BYTE   PATT
  POIN2 Label_12_01443B59
 BYTE   PATT
  POIN2 Label_12_01443B59
 BYTE   PATT
  POIN2 Label_12_01443B59
 BYTE   PATT
  POIN2 Label_12_01443B59
 BYTE   PATT
  POIN2 Label_12_01443B77
 BYTE   PATT
  POIN2 Label_12_01443B77
 BYTE   PATT
  POIN2 Label_12_01443B77
 BYTE   PATT
  POIN2 Label_12_01443B77
 BYTE   PATT
  POIN2 Label_12_01443B22
 BYTE   PATT
  POIN2 Label_12_01443B22
 BYTE   PATT
  POIN2 Label_12_01443B22
 BYTE   PATT
  POIN2 Label_12_01443B22
 BYTE   PATT
  POIN2 Label_12_01443B3B
 BYTE   PATT
  POIN2 Label_12_01443B3B
 BYTE   PATT
  POIN2 Label_12_01443B3B
 BYTE   PATT
  POIN2 Label_12_01443B3B
 BYTE   PATT
  POIN2 Label_12_01443B59
 BYTE   PATT
  POIN2 Label_12_01443B59
 BYTE   PATT
  POIN2 Label_12_01443B59
 BYTE   PATT
  POIN2 Label_12_01443B59
 BYTE   PATT
  POIN2 Label_12_01443B77
 BYTE   PATT
  POIN2 Label_12_01443B77
 BYTE   PATT
  POIN2 Label_12_01443B77
 BYTE   PATT
  POIN2 Label_12_01443B77
 BYTE   PATT
  POIN2 Label_12_01443B22
 BYTE   PATT
  POIN2 Label_12_01443B22
 BYTE   PATT
  POIN2 Label_12_01443B22
 BYTE   PATT
  POIN2 Label_12_01443B22
 BYTE   PATT
  POIN2 Label_12_01443B3B
 BYTE   PATT
  POIN2 Label_12_01443B3B
 BYTE   PATT
  POIN2 Label_12_01443B3B
 BYTE   PATT
  POIN2 Label_12_01443B3B
 BYTE   PATT
  POIN2 Label_12_01443B59
 BYTE   PATT
  POIN2 Label_12_01443B59
 BYTE   PATT
  POIN2 Label_12_01443B59
 BYTE   PATT
  POIN2 Label_12_01443B59
 BYTE   PATT
  POIN2 Label_12_01443B77
 BYTE   PATT
  POIN2 Label_12_01443B77
 BYTE   PATT
  POIN2 Label_12_01443B77
 BYTE   PATT
  POIN2 Label_12_01443B77
// 005   ----------------------------------------
 BYTE   GoTo
  POIN2 Label_12_01443B0E
 BYTE   FINE

//**************** Track 14 (Midi-Chn.13) ****************//

KirbyTheCrystalShards02BattleMrGreen3339_014:
// 000   ----------------------------------------
 BYTE   KEYSH   KirbyTheCrystalShards02BattleMrGreen3339_key+0
Label_13_01443E1E:
 BYTE   VOICE   52
 BYTE   VOL   65*KirbyTheCrystalShards02BattleMrGreen3339_mvl/mxv
 BYTE   PAN   c_v+0
 BYTE   TIE  En2  v076
 BYTE   TIE  An2
 BYTE   W72
 BYTE   W72
// 001   ----------------------------------------
 BYTE   W72
 BYTE   W66
// 002   ----------------------------------------
 BYTE   EOT
 BYTE   En2  v057
 BYTE   W06
Label_13_01443E31:
 BYTE   TIE  En2  v076
 BYTE   TIE  Cn3
 BYTE   W72
 BYTE   PEND 
 BYTE   W72
// 003   ----------------------------------------
 BYTE   W72
 BYTE   W66
// 004   ----------------------------------------
 BYTE   EOT
 BYTE   En2  v060
 BYTE   W06
Label_13_01443E3F:
 BYTE   TIE  Dn2  v076
 BYTE   TIE  An2
 BYTE   W72
 BYTE   PEND 
 BYTE   W72
// 005   ----------------------------------------
 BYTE   W72
 BYTE   W66
// 006   ----------------------------------------
 BYTE   EOT
 BYTE   Dn2  v057
 BYTE   W06
Label_13_01443E4D:
 BYTE   TIE  Fn2  v076
 BYTE   TIE  An2
 BYTE   W72
 BYTE   PEND 
 BYTE   W72
// 007   ----------------------------------------
 BYTE   W72
 BYTE   EOT
 BYTE   Fn2  v057
 BYTE   N66  Fn2
 BYTE   N66  Bn2
 BYTE   W72
// 008   ----------------------------------------
Label_13_01443E5E:
 BYTE   TIE  En2  v076
 BYTE   TIE  An2
 BYTE   W72
 BYTE   PEND 
 BYTE   W72
// 009   ----------------------------------------
 BYTE   W72
 BYTE   W66
// 010   ----------------------------------------
 BYTE   EOT
 BYTE   En2  v057
 BYTE   W06
 BYTE   PATT
  POIN2 Label_13_01443E31
// 011   ----------------------------------------
 BYTE   W72
 BYTE   W72
// 012   ----------------------------------------
 BYTE   W66
 BYTE   EOT
 BYTE   En2  v060
 BYTE   W06
 BYTE   PATT
  POIN2 Label_13_01443E3F
// 013   ----------------------------------------
 BYTE   W72
 BYTE   W72
// 014   ----------------------------------------
 BYTE   W66
 BYTE   EOT
 BYTE   Dn2  v057
 BYTE   W06
 BYTE   PATT
  POIN2 Label_13_01443E4D
// 015   ----------------------------------------
 BYTE   W72
 BYTE   W72
// 016   ----------------------------------------
 BYTE   EOT
 BYTE   Fn2  v057
 BYTE   N66  Fn2  v076
 BYTE   N66  Bn2
 BYTE   W72
 BYTE   PATT
  POIN2 Label_13_01443E5E
// 017   ----------------------------------------
 BYTE   W72
 BYTE   W72
// 018   ----------------------------------------
 BYTE   W66
 BYTE   EOT
 BYTE   En2  v057
 BYTE   W06
 BYTE   PATT
  POIN2 Label_13_01443E31
// 019   ----------------------------------------
 BYTE   W72
 BYTE   W72
// 020   ----------------------------------------
 BYTE   W66
 BYTE   EOT
 BYTE   En2  v060
 BYTE   W06
 BYTE   PATT
  POIN2 Label_13_01443E3F
// 021   ----------------------------------------
 BYTE   W72
 BYTE   W72
// 022   ----------------------------------------
 BYTE   W66
 BYTE   EOT
 BYTE   Dn2  v057
 BYTE   W06
 BYTE   PATT
  POIN2 Label_13_01443E4D
// 023   ----------------------------------------
 BYTE   W72
 BYTE   W72
// 024   ----------------------------------------
 BYTE   EOT
 BYTE   Fn2  v057
 BYTE   N66  Fn2  v076
 BYTE   N66  Bn2
 BYTE   W72
 BYTE   PATT
  POIN2 Label_13_01443E5E
// 025   ----------------------------------------
 BYTE   W72
 BYTE   W72
// 026   ----------------------------------------
 BYTE   W66
 BYTE   EOT
 BYTE   En2  v057
 BYTE   W06
 BYTE   PATT
  POIN2 Label_13_01443E31
// 027   ----------------------------------------
 BYTE   W72
 BYTE   W72
// 028   ----------------------------------------
 BYTE   W66
 BYTE   EOT
 BYTE   En2  v060
 BYTE   W06
 BYTE   PATT
  POIN2 Label_13_01443E3F
// 029   ----------------------------------------
 BYTE   W72
 BYTE   W72
// 030   ----------------------------------------
 BYTE   W66
 BYTE   EOT
 BYTE   Dn2  v057
 BYTE   W06
 BYTE   PATT
  POIN2 Label_13_01443E4D
// 031   ----------------------------------------
 BYTE   W72
 BYTE   W72
// 032   ----------------------------------------
 BYTE   EOT
 BYTE   Fn2  v057
 BYTE   N66  Fn2  v076
 BYTE   N66  Bn2
 BYTE   W72
 BYTE   PATT
  POIN2 Label_13_01443E5E
// 033   ----------------------------------------
 BYTE   W72
 BYTE   W72
// 034   ----------------------------------------
 BYTE   W66
 BYTE   EOT
 BYTE   En2  v057
 BYTE   W06
 BYTE   PATT
  POIN2 Label_13_01443E31
// 035   ----------------------------------------
 BYTE   W72
 BYTE   W72
// 036   ----------------------------------------
 BYTE   W66
 BYTE   EOT
 BYTE   En2  v060
 BYTE   W06
 BYTE   PATT
  POIN2 Label_13_01443E3F
// 037   ----------------------------------------
 BYTE   W72
 BYTE   W72
// 038   ----------------------------------------
 BYTE   W66
 BYTE   EOT
 BYTE   Dn2  v057
 BYTE   W06
 BYTE   PATT
  POIN2 Label_13_01443E4D
// 039   ----------------------------------------
 BYTE   W72
 BYTE   W72
// 040   ----------------------------------------
 BYTE   EOT
 BYTE   Fn2  v057
 BYTE   N66  Fn2  v076
 BYTE   N66  Bn2
 BYTE   W72
 BYTE   PATT
  POIN2 Label_13_01443E5E
// 041   ----------------------------------------
 BYTE   W72
 BYTE   W72
// 042   ----------------------------------------
 BYTE   W66
 BYTE   EOT
 BYTE   En2  v057
 BYTE   W06
 BYTE   PATT
  POIN2 Label_13_01443E31
// 043   ----------------------------------------
 BYTE   W72
 BYTE   W72
// 044   ----------------------------------------
 BYTE   W66
 BYTE   EOT
 BYTE   En2  v060
 BYTE   W06
 BYTE   PATT
  POIN2 Label_13_01443E3F
// 045   ----------------------------------------
 BYTE   W72
 BYTE   W72
// 046   ----------------------------------------
 BYTE   W66
 BYTE   EOT
 BYTE   Dn2  v057
 BYTE   W06
 BYTE   PATT
  POIN2 Label_13_01443E4D
// 047   ----------------------------------------
 BYTE   W72
 BYTE   W72
// 048   ----------------------------------------
 BYTE   EOT
 BYTE   Fn2  v057
 BYTE   N66  Fn2  v076
 BYTE   N66  Bn2
 BYTE   W72
 BYTE   PATT
  POIN2 Label_13_01443E5E
// 049   ----------------------------------------
 BYTE   W72
 BYTE   W72
// 050   ----------------------------------------
 BYTE   W66
 BYTE   EOT
 BYTE   En2  v057
 BYTE   W06
 BYTE   PATT
  POIN2 Label_13_01443E31
// 051   ----------------------------------------
 BYTE   W72
 BYTE   W72
// 052   ----------------------------------------
 BYTE   W66
 BYTE   EOT
 BYTE   En2  v060
 BYTE   W06
 BYTE   PATT
  POIN2 Label_13_01443E3F
// 053   ----------------------------------------
 BYTE   W72
 BYTE   W72
// 054   ----------------------------------------
 BYTE   W66
 BYTE   EOT
 BYTE   Dn2  v057
 BYTE   W06
 BYTE   PATT
  POIN2 Label_13_01443E4D
// 055   ----------------------------------------
 BYTE   W72
 BYTE   W72
// 056   ----------------------------------------
 BYTE   EOT
 BYTE   Fn2  v057
 BYTE   N66  Fn2  v076
 BYTE   N66  Bn2
 BYTE   W72
 BYTE   PATT
  POIN2 Label_13_01443E5E
// 057   ----------------------------------------
 BYTE   W72
 BYTE   W72
// 058   ----------------------------------------
 BYTE   W66
 BYTE   EOT
 BYTE   En2  v057
 BYTE   W06
 BYTE   PATT
  POIN2 Label_13_01443E31
// 059   ----------------------------------------
 BYTE   W72
 BYTE   W72
// 060   ----------------------------------------
 BYTE   W66
 BYTE   EOT
 BYTE   En2  v060
 BYTE   W06
 BYTE   PATT
  POIN2 Label_13_01443E3F
// 061   ----------------------------------------
 BYTE   W72
 BYTE   W72
// 062   ----------------------------------------
 BYTE   W66
 BYTE   EOT
 BYTE   Dn2  v057
 BYTE   W06
 BYTE   PATT
  POIN2 Label_13_01443E4D
// 063   ----------------------------------------
 BYTE   W72
 BYTE   W72
// 064   ----------------------------------------
 BYTE   EOT
 BYTE   Fn2  v057
 BYTE   N66  Fn2  v076
 BYTE   N66  Bn2
 BYTE   W72
 BYTE   PATT
  POIN2 Label_13_01443E5E
// 065   ----------------------------------------
 BYTE   W72
 BYTE   W72
// 066   ----------------------------------------
 BYTE   W66
 BYTE   EOT
 BYTE   En2  v057
 BYTE   W06
 BYTE   PATT
  POIN2 Label_13_01443E31
// 067   ----------------------------------------
 BYTE   W72
 BYTE   W72
// 068   ----------------------------------------
 BYTE   W66
 BYTE   EOT
 BYTE   En2  v060
 BYTE   W06
 BYTE   PATT
  POIN2 Label_13_01443E3F
// 069   ----------------------------------------
 BYTE   W72
 BYTE   W72
// 070   ----------------------------------------
 BYTE   W66
 BYTE   EOT
 BYTE   Dn2  v057
 BYTE   W06
 BYTE   PATT
  POIN2 Label_13_01443E4D
// 071   ----------------------------------------
 BYTE   W72
 BYTE   W72
// 072   ----------------------------------------
 BYTE   EOT
 BYTE   Fn2  v057
 BYTE   N66  Fn2  v076
 BYTE   N66  Bn2
 BYTE   W72
 BYTE   GoTo
  POIN2 Label_13_01443E1E
 BYTE   FINE

//**************** Track 15 (Midi-Chn.14) ****************//

KirbyTheCrystalShards02BattleMrGreen3339_015:
// 000   ----------------------------------------
 BYTE   KEYSH   KirbyTheCrystalShards02BattleMrGreen3339_key+0
Label_14_0144400A:
 BYTE   VOICE   14
 BYTE   VOL   65*KirbyTheCrystalShards02BattleMrGreen3339_mvl/mxv
 BYTE   PAN   c_v+0
 BYTE   W72
 BYTE   W72
// 001   ----------------------------------------
 BYTE   W72
 BYTE   W72
// 002   ----------------------------------------
 BYTE   W72
 BYTE   W72
// 003   ----------------------------------------
 BYTE   W72
 BYTE   W72
// 004   ----------------------------------------
 BYTE   W72
 BYTE   W72
// 005   ----------------------------------------
 BYTE   W72
 BYTE   W72
// 006   ----------------------------------------
 BYTE   W72
 BYTE   W72
// 007   ----------------------------------------
 BYTE   W72
 BYTE   W72
// 008   ----------------------------------------
 BYTE   W72
 BYTE   W72
// 009   ----------------------------------------
 BYTE   W72
 BYTE   W72
// 010   ----------------------------------------
 BYTE   W72
 BYTE   W72
// 011   ----------------------------------------
 BYTE   W72
 BYTE   W72
// 012   ----------------------------------------
 BYTE   TIE  Fn4  v092
 BYTE   N66  An4
 BYTE   W72
 BYTE   Bn4
 BYTE   W72
// 013   ----------------------------------------
 BYTE   Cn5
 BYTE   W72
 BYTE   An4
 BYTE   W66
// 014   ----------------------------------------
 BYTE   EOT
 BYTE   Fn4
 BYTE   W06
 BYTE   TIE  Dn4
 BYTE   N66  An4
 BYTE   W72
 BYTE   Bn4
 BYTE   W72
// 015   ----------------------------------------
 BYTE   Cn5
 BYTE   W72
 BYTE   An4
 BYTE   W66
// 016   ----------------------------------------
 BYTE   EOT
 BYTE   Dn4
 BYTE   W06
 BYTE   N66  En4
 BYTE   W72
 BYTE   Dn4
 BYTE   W72
// 017   ----------------------------------------
 BYTE   En4
 BYTE   W72
 BYTE   Gs4
 BYTE   W72
// 018   ----------------------------------------
 BYTE   An4
 BYTE   W72
 BYTE   Bn4
 BYTE   W72
// 019   ----------------------------------------
 BYTE   Cn5
 BYTE   W72
 BYTE   An4
 BYTE   W72
// 020   ----------------------------------------
 BYTE   Dn5
 BYTE   W72
 BYTE   Cn5
 BYTE   W72
// 021   ----------------------------------------
 BYTE   Bn4
 BYTE   W72
 BYTE   An4
 BYTE   W72
// 022   ----------------------------------------
 BYTE   Dn5
 BYTE   W72
 BYTE   Cn5
 BYTE   W72
// 023   ----------------------------------------
 BYTE   Bn4
 BYTE   W72
 BYTE   An4
 BYTE   W72
// 024   ----------------------------------------
 BYTE   En4
 BYTE   W72
 BYTE   Dn4
 BYTE   W72
// 025   ----------------------------------------
 BYTE   En4
 BYTE   W72
 BYTE   Cn4
 BYTE   W72
// 026   ----------------------------------------
 BYTE   Bn3
 BYTE   W72
 BYTE   Cn4
 BYTE   W72
// 027   ----------------------------------------
 BYTE   Bn3
 BYTE   W72
 BYTE   An3
 BYTE   W72
// 028   ----------------------------------------
 BYTE   Dn4
 BYTE   W72
 BYTE   Cn4
 BYTE   W72
// 029   ----------------------------------------
 BYTE   Bn3
 BYTE   W72
 BYTE   An3
 BYTE   W72
// 030   ----------------------------------------
 BYTE   Gn3
 BYTE   W72
 BYTE   An3
 BYTE   W72
// 031   ----------------------------------------
 BYTE   Fn3
 BYTE   W72
 BYTE   Dn3
 BYTE   W72
// 032   ----------------------------------------
 BYTE   W72
 BYTE   W72
// 033   ----------------------------------------
 BYTE   W72
 BYTE   W72
// 034   ----------------------------------------
 BYTE   W72
 BYTE   W72
// 035   ----------------------------------------
 BYTE   W72
 BYTE   W72
// 036   ----------------------------------------
 BYTE   W72
 BYTE   W72
// 037   ----------------------------------------
 BYTE   W72
 BYTE   W72
// 038   ----------------------------------------
 BYTE   W72
 BYTE   W72
// 039   ----------------------------------------
 BYTE   W72
 BYTE   W72
// 040   ----------------------------------------
 BYTE   W72
 BYTE   W72
// 041   ----------------------------------------
 BYTE   W72
 BYTE   W72
// 042   ----------------------------------------
 BYTE   W72
 BYTE   W72
// 043   ----------------------------------------
 BYTE   W72
 BYTE   W72
// 044   ----------------------------------------
 BYTE   W72
 BYTE   W72
// 045   ----------------------------------------
 BYTE   W72
 BYTE   W72
// 046   ----------------------------------------
 BYTE   W72
 BYTE   W72
// 047   ----------------------------------------
 BYTE   W72
 BYTE   W72
// 048   ----------------------------------------
 BYTE   W72
 BYTE   W72
// 049   ----------------------------------------
 BYTE   W72
 BYTE   W72
// 050   ----------------------------------------
 BYTE   W72
 BYTE   W72
// 051   ----------------------------------------
 BYTE   W72
 BYTE   W72
// 052   ----------------------------------------
 BYTE   W72
 BYTE   W72
// 053   ----------------------------------------
 BYTE   W72
 BYTE   W72
// 054   ----------------------------------------
 BYTE   W72
 BYTE   W72
// 055   ----------------------------------------
 BYTE   W72
 BYTE   W72
// 056   ----------------------------------------
 BYTE   W72
 BYTE   W72
// 057   ----------------------------------------
 BYTE   W72
 BYTE   W72
// 058   ----------------------------------------
 BYTE   W72
 BYTE   W72
// 059   ----------------------------------------
 BYTE   W72
 BYTE   W72
// 060   ----------------------------------------
 BYTE   W72
 BYTE   W72
// 061   ----------------------------------------
 BYTE   W72
 BYTE   W72
// 062   ----------------------------------------
 BYTE   W72
 BYTE   W72
// 063   ----------------------------------------
 BYTE   W72
 BYTE   W72
// 064   ----------------------------------------
 BYTE   W72
 BYTE   W72
// 065   ----------------------------------------
 BYTE   W72
 BYTE   W72
// 066   ----------------------------------------
 BYTE   W72
 BYTE   W72
// 067   ----------------------------------------
 BYTE   W72
 BYTE   W72
// 068   ----------------------------------------
 BYTE   W72
 BYTE   W72
// 069   ----------------------------------------
 BYTE   W72
 BYTE   W72
// 070   ----------------------------------------
 BYTE   W72
 BYTE   W72
// 071   ----------------------------------------
 BYTE   W72
 BYTE   W72
// 072   ----------------------------------------
 BYTE   GoTo
  POIN2 Label_14_0144400A
 BYTE   FINE

//******************************************************//
	ALIGN 4

KirbyTheCrystalShards02BattleMrGreen3339:
	BYTE	15	// NumTrks
	BYTE	0	// NumBlks
	BYTE	KirbyTheCrystalShards02BattleMrGreen3339_pri	// Priority
	BYTE	KirbyTheCrystalShards02BattleMrGreen3339_rev	// Reverb.
    
	POIN2	KirbyTheCrystalShards02BattleMrGreen3339_grp
    
	POIN2	KirbyTheCrystalShards02BattleMrGreen3339_001
	POIN2	KirbyTheCrystalShards02BattleMrGreen3339_002
	POIN2	KirbyTheCrystalShards02BattleMrGreen3339_003
	POIN2	KirbyTheCrystalShards02BattleMrGreen3339_004
	POIN2	KirbyTheCrystalShards02BattleMrGreen3339_005
	POIN2	KirbyTheCrystalShards02BattleMrGreen3339_006
	POIN2	KirbyTheCrystalShards02BattleMrGreen3339_007
	POIN2	KirbyTheCrystalShards02BattleMrGreen3339_008
	POIN2	KirbyTheCrystalShards02BattleMrGreen3339_009
	POIN2	KirbyTheCrystalShards02BattleMrGreen3339_010
	POIN2	KirbyTheCrystalShards02BattleMrGreen3339_011
	POIN2	KirbyTheCrystalShards02BattleMrGreen3339_012
	POIN2	KirbyTheCrystalShards02BattleMrGreen3339_013
	POIN2	KirbyTheCrystalShards02BattleMrGreen3339_014
	POIN2	KirbyTheCrystalShards02BattleMrGreen3339_015

	
