//Event file generated from Sappy .s format.
	#include "MPlayDef.event"

	#define	KirbySuperStarMetaKnightsthemeRSflame1_grp  voicegroup000
	#define	KirbySuperStarMetaKnightsthemeRSflame1_pri  0
	#define	KirbySuperStarMetaKnightsthemeRSflame1_rev  0
	#define	KirbySuperStarMetaKnightsthemeRSflame1_mvl  127
	#define	KirbySuperStarMetaKnightsthemeRSflame1_key  0
	#define	KirbySuperStarMetaKnightsthemeRSflame1_tbs  1
	#define	KirbySuperStarMetaKnightsthemeRSflame1_exg  0
	#define	KirbySuperStarMetaKnightsthemeRSflame1_cmp  1

	// .rodata
	//	KirbySuperStarMetaKnightsthemeRSflame1
	ALIGN 4


//**************** Track 1 (Midi-Chn.0) ****************//

KirbySuperStarMetaKnightsthemeRSflame1_001:
// 000   ----------------------------------------
 BYTE   VOL   80*KirbySuperStarMetaKnightsthemeRSflame1_mvl/mxv
 BYTE   KEYSH   KirbySuperStarMetaKnightsthemeRSflame1_key+0
Label_0_01EA4FE4:
 BYTE   TEMPO   124*KirbySuperStarMetaKnightsthemeRSflame1_tbs/2
 BYTE   VOICE   34
 BYTE   N03  Cn1  v084
 BYTE   W04
 BYTE   Cn1  v064
 BYTE   W04
 BYTE   Cn1  v084
 BYTE   W04
 BYTE   Cn1  v064
 BYTE   W04
 BYTE   Cn1  v084
 BYTE   W04
 BYTE   Cn1  v064
 BYTE   W04
 BYTE   Cn1  v084
 BYTE   W04
 BYTE   Cn1  v064
 BYTE   W04
 BYTE   Cn1  v084
 BYTE   W04
 BYTE   Cn1  v064
 BYTE   W04
 BYTE   Cs1  v084
 BYTE   W04
 BYTE   Cs1  v064
 BYTE   W04
 BYTE   Cs1  v084
 BYTE   W04
 BYTE   Cs1  v064
 BYTE   W04
 BYTE   Cs1  v084
 BYTE   W04
 BYTE   Cs1  v064
 BYTE   W04
 BYTE   As0  v084
 BYTE   W04
 BYTE   As0  v064
 BYTE   W04
 BYTE   As0  v084
 BYTE   W04
 BYTE   As0  v064
 BYTE   W04
 BYTE   Cn1  v084
 BYTE   W04
 BYTE   Cn1  v064
 BYTE   W04
 BYTE   Cn1  v084
 BYTE   W04
 BYTE   Cn1  v064
 BYTE   W04
// 001   ----------------------------------------
 BYTE   Cn1  v084
 BYTE   W04
 BYTE   Cn1  v064
 BYTE   W04
 BYTE   Cn1  v084
 BYTE   W04
 BYTE   Cn1  v064
 BYTE   W04
 BYTE   Cn1  v084
 BYTE   W04
 BYTE   Cn1  v064
 BYTE   W04
 BYTE   Cs1  v084
 BYTE   W04
 BYTE   Cs1  v064
 BYTE   W04
 BYTE   Cs1  v084
 BYTE   W04
 BYTE   Cs1  v064
 BYTE   W04
 BYTE   Cs1  v084
 BYTE   W04
 BYTE   Cs1  v064
 BYTE   W04
 BYTE   As0  v084
 BYTE   W04
 BYTE   As0  v064
 BYTE   W04
 BYTE   As0  v084
 BYTE   W04
 BYTE   As0  v064
 BYTE   W04
 BYTE   Cn1  v084
 BYTE   W04
 BYTE   Cn1  v064
 BYTE   W04
 BYTE   Cn1  v084
 BYTE   W04
 BYTE   Cn1  v064
 BYTE   W04
 BYTE   Cn1  v084
 BYTE   W04
 BYTE   Cn1  v064
 BYTE   W04
 BYTE   Cn1  v084
 BYTE   W04
 BYTE   Cn1  v064
 BYTE   W04
// 002   ----------------------------------------
 BYTE   Cn1  v084
 BYTE   W04
 BYTE   Cn1  v064
 BYTE   W04
 BYTE   Cs1  v084
 BYTE   W04
 BYTE   Cs1  v064
 BYTE   W04
 BYTE   Cs1  v084
 BYTE   W04
 BYTE   Cs1  v064
 BYTE   W04
 BYTE   Cs1  v084
 BYTE   W04
 BYTE   Cs1  v064
 BYTE   W04
 BYTE   As0  v084
 BYTE   W04
 BYTE   As0  v064
 BYTE   W04
 BYTE   As0  v084
 BYTE   W04
 BYTE   As0  v064
 BYTE   W04
 BYTE   Cn1  v084
 BYTE   W04
 BYTE   Cn1  v064
 BYTE   W04
 BYTE   Cn1  v084
 BYTE   W04
 BYTE   Cn1  v064
 BYTE   W04
 BYTE   Cn1  v084
 BYTE   W04
 BYTE   Cn1  v064
 BYTE   W04
 BYTE   Cn1  v084
 BYTE   W04
 BYTE   Cn1  v064
 BYTE   W04
 BYTE   Cn1  v084
 BYTE   W04
 BYTE   Cn1  v064
 BYTE   W04
 BYTE   Cs1  v084
 BYTE   W04
 BYTE   Cs1  v064
 BYTE   W04
// 003   ----------------------------------------
 BYTE   Cs1  v084
 BYTE   W04
 BYTE   Cs1  v064
 BYTE   W04
 BYTE   Cs1  v084
 BYTE   W04
 BYTE   Cs1  v064
 BYTE   W04
 BYTE   As0  v084
 BYTE   W04
 BYTE   As0  v064
 BYTE   W04
 BYTE   As0  v084
 BYTE   W04
 BYTE   As0  v064
 BYTE   W04
 BYTE   Cn1  v084
 BYTE   W04
 BYTE   Cn1  v064
 BYTE   W04
 BYTE   Cn1  v084
 BYTE   W04
 BYTE   Cn1  v064
 BYTE   W04
 BYTE   Cn1  v084
 BYTE   W04
 BYTE   Cn1  v064
 BYTE   W04
 BYTE   Cn1  v084
 BYTE   W04
 BYTE   Cn1  v064
 BYTE   W04
 BYTE   Cn1  v084
 BYTE   W04
 BYTE   Cn1  v064
 BYTE   W04
 BYTE   Cs1  v084
 BYTE   W04
 BYTE   Cs1  v064
 BYTE   W04
 BYTE   Cs1  v084
 BYTE   W04
 BYTE   Cs1  v064
 BYTE   W04
 BYTE   Cs1  v084
 BYTE   W04
 BYTE   Cs1  v064
 BYTE   W04
// 004   ----------------------------------------
 BYTE   As0  v084
 BYTE   W04
 BYTE   As0  v064
 BYTE   W04
 BYTE   As0  v084
 BYTE   W04
 BYTE   As0  v064
 BYTE   W04
 BYTE   Cn1  v084
 BYTE   W04
 BYTE   Cn1  v064
 BYTE   W04
 BYTE   Cn1  v084
 BYTE   W04
 BYTE   Cn1  v064
 BYTE   W04
 BYTE   Cn1  v084
 BYTE   W04
 BYTE   Cn1  v064
 BYTE   W04
 BYTE   Cn1  v084
 BYTE   W04
 BYTE   Cn1  v064
 BYTE   W04
 BYTE   Cn1  v084
 BYTE   W04
 BYTE   Cn1  v064
 BYTE   W04
 BYTE   Cs1  v084
 BYTE   W04
 BYTE   Cs1  v064
 BYTE   W04
 BYTE   Cs1  v084
 BYTE   W04
 BYTE   Cs1  v064
 BYTE   W04
 BYTE   Cs1  v084
 BYTE   W04
 BYTE   Cs1  v064
 BYTE   W04
 BYTE   As0  v084
 BYTE   W04
 BYTE   As0  v064
 BYTE   W04
 BYTE   As0  v084
 BYTE   W04
 BYTE   As0  v064
 BYTE   W04
// 005   ----------------------------------------
 BYTE   Cn1  v084
 BYTE   W04
 BYTE   Cn1  v064
 BYTE   W04
 BYTE   Cn1  v084
 BYTE   W04
 BYTE   Cn1  v064
 BYTE   W04
 BYTE   Cn1  v084
 BYTE   W04
 BYTE   Cn1  v064
 BYTE   W04
 BYTE   Cn1  v084
 BYTE   W04
 BYTE   Cn1  v064
 BYTE   W04
 BYTE   Cn1  v084
 BYTE   W04
 BYTE   Cn1  v064
 BYTE   W04
 BYTE   Cs1  v084
 BYTE   W04
 BYTE   Cs1  v064
 BYTE   W04
 BYTE   Cs1  v084
 BYTE   W04
 BYTE   Cs1  v064
 BYTE   W04
 BYTE   Cs1  v084
 BYTE   W04
 BYTE   Cs1  v064
 BYTE   W04
 BYTE   As0  v084
 BYTE   W04
 BYTE   As0  v064
 BYTE   W04
 BYTE   As0  v084
 BYTE   W04
 BYTE   As0  v064
 BYTE   W04
 BYTE   Cn1  v084
 BYTE   W04
 BYTE   Cn1  v064
 BYTE   W04
 BYTE   Cn1  v084
 BYTE   W04
 BYTE   Cn1  v064
 BYTE   W04
// 006   ----------------------------------------
 BYTE   Cn1  v084
 BYTE   W04
 BYTE   Cn1  v064
 BYTE   W04
 BYTE   Cn1  v084
 BYTE   W04
 BYTE   Cn1  v064
 BYTE   W04
 BYTE   Cn1  v084
 BYTE   W04
 BYTE   Cn1  v064
 BYTE   W04
 BYTE   Cs1  v084
 BYTE   W04
 BYTE   Cs1  v064
 BYTE   W04
 BYTE   Cs1  v084
 BYTE   W04
 BYTE   Cs1  v064
 BYTE   W04
 BYTE   Cs1  v084
 BYTE   W04
 BYTE   Cs1  v064
 BYTE   W04
 BYTE   As0  v084
 BYTE   W04
 BYTE   As0  v064
 BYTE   W04
 BYTE   As0  v084
 BYTE   W04
 BYTE   As0  v064
 BYTE   W05
 BYTE   Cn1  v084
 BYTE   W04
 BYTE   Cn1  v064
 BYTE   W04
 BYTE   Cn1  v084
 BYTE   W04
 BYTE   Cn1  v064
 BYTE   W04
 BYTE   Cn1  v084
 BYTE   W04
 BYTE   Cn1  v064
 BYTE   W04
 BYTE   Cn1  v084
 BYTE   W04
 BYTE   Cn1  v064
 BYTE   W03
// 007   ----------------------------------------
 BYTE   W01
 BYTE   Cn1  v084
 BYTE   W04
 BYTE   Cn1  v064
 BYTE   W04
 BYTE   Cs1  v084
 BYTE   W04
 BYTE   Cs1  v064
 BYTE   W04
 BYTE   Cs1  v084
 BYTE   W04
 BYTE   Cs1  v064
 BYTE   W04
 BYTE   Cs1  v084
 BYTE   W04
 BYTE   Cs1  v064
 BYTE   W04
 BYTE   As0  v084
 BYTE   W04
 BYTE   As0  v064
 BYTE   W04
 BYTE   As0  v084
 BYTE   W04
 BYTE   As0  v064
 BYTE   W04
 BYTE   Cn1  v084
 BYTE   W04
 BYTE   Cn1  v064
 BYTE   W04
 BYTE   Cn1  v084
 BYTE   W04
 BYTE   Cn1  v064
 BYTE   W04
 BYTE   Cn1  v084
 BYTE   W04
 BYTE   Cn1  v064
 BYTE   W04
 BYTE   Cn1  v084
 BYTE   W04
 BYTE   Cn1  v064
 BYTE   W04
 BYTE   Cn1  v084
 BYTE   W04
 BYTE   Cn1  v064
 BYTE   W04
 BYTE   Cs1  v084
 BYTE   W04
 BYTE   Cs1  v064
 BYTE   W03
// 008   ----------------------------------------
 BYTE   W01
 BYTE   Cs1  v084
 BYTE   W04
 BYTE   Cs1  v064
 BYTE   W04
 BYTE   Cs1  v084
 BYTE   W04
 BYTE   Cs1  v064
 BYTE   W04
 BYTE   As0  v084
 BYTE   W04
 BYTE   As0  v064
 BYTE   W04
 BYTE   As0  v084
 BYTE   W04
 BYTE   As0  v064
 BYTE   W04
 BYTE   Cn1  v084
 BYTE   W04
 BYTE   Cn1  v064
 BYTE   W04
 BYTE   Cn1  v084
 BYTE   W04
 BYTE   Cn1  v064
 BYTE   W04
 BYTE   Cn1  v084
 BYTE   W04
 BYTE   Cn1  v064
 BYTE   W04
 BYTE   Cn1  v084
 BYTE   W04
 BYTE   Cn1  v064
 BYTE   W04
 BYTE   Cn1  v084
 BYTE   W04
 BYTE   Cn1  v064
 BYTE   W04
 BYTE   Cs1  v084
 BYTE   W04
 BYTE   Cs1  v064
 BYTE   W04
 BYTE   Cs1  v084
 BYTE   W04
 BYTE   Cs1  v064
 BYTE   W04
 BYTE   Cs1  v084
 BYTE   W04
 BYTE   Cs1  v064
 BYTE   W03
// 009   ----------------------------------------
 BYTE   W01
 BYTE   As0  v084
 BYTE   W04
 BYTE   As0  v064
 BYTE   W04
 BYTE   As0  v084
 BYTE   W04
 BYTE   As0  v064
 BYTE   W04
 BYTE   Cn1  v084
 BYTE   W04
 BYTE   Cn1  v064
 BYTE   W04
 BYTE   Cn1  v084
 BYTE   W04
 BYTE   Cn1  v064
 BYTE   W04
 BYTE   Cn1  v084
 BYTE   W04
 BYTE   Cn1  v064
 BYTE   W04
 BYTE   Cn1  v084
 BYTE   W04
 BYTE   Cn1  v064
 BYTE   W04
 BYTE   Cn1  v084
 BYTE   W04
 BYTE   Cn1  v064
 BYTE   W04
 BYTE   Cs1  v084
 BYTE   W04
 BYTE   Cs1  v064
 BYTE   W04
 BYTE   Cs1  v084
 BYTE   W04
 BYTE   Cs1  v064
 BYTE   W04
 BYTE   Cs1  v084
 BYTE   W04
 BYTE   Cs1  v064
 BYTE   W04
 BYTE   As0  v084
 BYTE   W04
 BYTE   As0  v064
 BYTE   W04
 BYTE   As0  v084
 BYTE   W04
 BYTE   As0  v064
 BYTE   W03
// 010   ----------------------------------------
 BYTE   W01
 BYTE   N02  Cn1  v104
 BYTE   W04
 BYTE   Cn1  v076
 BYTE   W04
 BYTE   N02
 BYTE   W04
 BYTE   N02
 BYTE   W04
 BYTE   Cn1  v104
 BYTE   W04
 BYTE   Cn1  v076
 BYTE   W04
 BYTE   N02
 BYTE   W04
 BYTE   N02
 BYTE   W04
 BYTE   Cn1  v104
 BYTE   W04
 BYTE   Cn1  v076
 BYTE   W04
 BYTE   Cn2  v084
 BYTE   W04
 BYTE   Cn2  v072
 BYTE   W04
 BYTE   Cn2  v084
 BYTE   W04
 BYTE   Cn2  v072
 BYTE   W04
 BYTE   N02
 BYTE   W04
 BYTE   N02
 BYTE   W04
 BYTE   N03  As1  v084
 BYTE   W04
 BYTE   Fn1  v072
 BYTE   W04
 BYTE   As0  v104
 BYTE   W04
 BYTE   N02  As0  v092
 BYTE   W04
 BYTE   Cn1  v104
 BYTE   W04
 BYTE   Cn1  v076
 BYTE   W04
 BYTE   N02
 BYTE   W04
 BYTE   N02
 BYTE   W03
// 011   ----------------------------------------
 BYTE   W01
 BYTE   Cn1  v104
 BYTE   W04
 BYTE   Cn1  v076
 BYTE   W04
 BYTE   N02
 BYTE   W04
 BYTE   N02
 BYTE   W04
 BYTE   Cn1  v104
 BYTE   W04
 BYTE   Cn1  v076
 BYTE   W04
 BYTE   Cn2  v084
 BYTE   W04
 BYTE   Cn2  v072
 BYTE   W04
 BYTE   Cn2  v084
 BYTE   W04
 BYTE   Cn2  v072
 BYTE   W04
 BYTE   N02
 BYTE   W04
 BYTE   N02
 BYTE   W04
 BYTE   N03  As1  v084
 BYTE   W04
 BYTE   Fn1  v072
 BYTE   W04
 BYTE   As0  v104
 BYTE   W04
 BYTE   N02  As0  v092
 BYTE   W04
 BYTE   Cn1  v104
 BYTE   W04
 BYTE   Cn1  v076
 BYTE   W04
 BYTE   N02
 BYTE   W04
 BYTE   N02
 BYTE   W04
 BYTE   Cn1  v104
 BYTE   W04
 BYTE   Cn1  v076
 BYTE   W04
 BYTE   N02
 BYTE   W04
 BYTE   N02
 BYTE   W03
// 012   ----------------------------------------
 BYTE   W01
 BYTE   Cn1  v104
 BYTE   W04
 BYTE   Cn1  v076
 BYTE   W04
 BYTE   Cn2  v084
 BYTE   W04
 BYTE   Cn2  v072
 BYTE   W04
 BYTE   Cn2  v084
 BYTE   W04
 BYTE   Cn2  v072
 BYTE   W04
 BYTE   N02
 BYTE   W04
 BYTE   N02
 BYTE   W04
 BYTE   N03  As1  v084
 BYTE   W04
 BYTE   Fn1  v072
 BYTE   W04
 BYTE   As0  v104
 BYTE   W04
 BYTE   N02  As0  v092
 BYTE   W04
 BYTE   Cn1  v104
 BYTE   W04
 BYTE   Cn1  v076
 BYTE   W04
 BYTE   N02
 BYTE   W04
 BYTE   N02
 BYTE   W04
 BYTE   Cn1  v104
 BYTE   W04
 BYTE   Cn1  v076
 BYTE   W04
 BYTE   N02
 BYTE   W04
 BYTE   N02
 BYTE   W04
 BYTE   Cn1  v104
 BYTE   W04
 BYTE   Cn1  v076
 BYTE   W04
 BYTE   Cn2  v084
 BYTE   W04
 BYTE   Cn2  v072
 BYTE   W03
// 013   ----------------------------------------
 BYTE   W01
 BYTE   Cn2  v084
 BYTE   W04
 BYTE   Cn2  v072
 BYTE   W04
 BYTE   N02
 BYTE   W04
 BYTE   N02
 BYTE   W04
 BYTE   N03  As1  v084
 BYTE   W04
 BYTE   Fn1  v072
 BYTE   W04
 BYTE   As0  v104
 BYTE   W04
 BYTE   N02  As0  v092
 BYTE   W04
 BYTE   Cn1  v104
 BYTE   W04
 BYTE   Cn1  v076
 BYTE   W04
 BYTE   N02
 BYTE   W04
 BYTE   N02
 BYTE   W04
 BYTE   Cn1  v104
 BYTE   W04
 BYTE   Cn1  v076
 BYTE   W04
 BYTE   N02
 BYTE   W04
 BYTE   N02
 BYTE   W04
 BYTE   Cn1  v104
 BYTE   W04
 BYTE   Cn1  v076
 BYTE   W04
 BYTE   Cn2  v084
 BYTE   W04
 BYTE   Cn2  v072
 BYTE   W04
 BYTE   Cn2  v084
 BYTE   W04
 BYTE   Cn2  v072
 BYTE   W04
 BYTE   N02
 BYTE   W04
 BYTE   N02
 BYTE   W03
// 014   ----------------------------------------
 BYTE   W01
 BYTE   N03  As1  v084
 BYTE   W04
 BYTE   Fn1  v072
 BYTE   W04
 BYTE   As0  v104
 BYTE   W04
 BYTE   N02  As0  v092
 BYTE   W04
 BYTE   Cn1  v104
 BYTE   W04
 BYTE   Cn1  v076
 BYTE   W04
 BYTE   N02
 BYTE   W04
 BYTE   N02
 BYTE   W04
 BYTE   Cn1  v104
 BYTE   W04
 BYTE   Cn1  v076
 BYTE   W04
 BYTE   N02
 BYTE   W04
 BYTE   N02
 BYTE   W04
 BYTE   Cn1  v104
 BYTE   W04
 BYTE   Cn1  v076
 BYTE   W04
 BYTE   Cn2  v084
 BYTE   W04
 BYTE   Cn2  v072
 BYTE   W04
 BYTE   Cn2  v084
 BYTE   W04
 BYTE   Cn2  v072
 BYTE   W04
 BYTE   N02
 BYTE   W04
 BYTE   N02
 BYTE   W04
 BYTE   N03  As1  v084
 BYTE   W04
 BYTE   Fn1  v072
 BYTE   W04
 BYTE   As0  v104
 BYTE   W04
 BYTE   N02  As0  v092
 BYTE   W03
// 015   ----------------------------------------
 BYTE   W01
 BYTE   PAN   c_v+0
 BYTE   VOL   38*KirbySuperStarMetaKnightsthemeRSflame1_mvl/mxv
 BYTE   W01
 BYTE   Ds1
 BYTE   W01
 BYTE   Ds1
 BYTE   W01
 BYTE   En1
 BYTE   W01
 BYTE   En1
 BYTE   W01
 BYTE   Fn1
 BYTE   W01
 BYTE   Fs1
 BYTE   W01
 BYTE   Fs1
 BYTE   W01
 BYTE   Gn1
 BYTE   W01
 BYTE   Gs1
 BYTE   W01
 BYTE   Gs1
 BYTE   W01
 BYTE   An1
 BYTE   W01
 BYTE   An1
 BYTE   W01
 BYTE   As1
 BYTE   W01
 BYTE   Bn1
 BYTE   W01
 BYTE   Bn1
 BYTE   W01
 BYTE   Cn2
 BYTE   W01
 BYTE   Cs2
 BYTE   W01
 BYTE   Cs2
 BYTE   W01
 BYTE   Dn2
 BYTE   W01
 BYTE   Ds2
 BYTE   W01
 BYTE   En2
 BYTE   W01
 BYTE   En2
 BYTE   W01
 BYTE   Fn2
 BYTE   W01
 BYTE   Fs2
 BYTE   W01
 BYTE   Fs2
 BYTE   W01
 BYTE   Gn2
 BYTE   W01
 BYTE   Gs2
 BYTE   W01
 BYTE   Gs2
 BYTE   W01
 BYTE   An2
 BYTE   W01
 BYTE   An2
 BYTE   W01
 BYTE   As2
 BYTE   W01
 BYTE   Bn2
 BYTE   W01
 BYTE   Bn2
 BYTE   W01
 BYTE   Cn3
 BYTE   W01
 BYTE   Cs3
 BYTE   W01
 BYTE   Cs3
 BYTE   W01
 BYTE   Dn3
 BYTE   W01
 BYTE   Dn3
 BYTE   W01
 BYTE   Ds3
 BYTE   W01
 BYTE   En3
 BYTE   W01
 BYTE   En3
 BYTE   W01
 BYTE   Fn3
 BYTE   W01
 BYTE   Fs3
 BYTE   W01
 BYTE   Gn3
 BYTE   W01
 BYTE   Gs3
 BYTE   W01
 BYTE   Gs3
 BYTE   W01
 BYTE   An3
 BYTE   W01
 BYTE   An3
 BYTE   W01
 BYTE   As3
 BYTE   W01
 BYTE   Bn3
 BYTE   W01
 BYTE   Bn3
 BYTE   W01
 BYTE   Cn4
 BYTE   W01
 BYTE   Cs4
 BYTE   W01
 BYTE   Cs4
 BYTE   W01
 BYTE   Dn4
 BYTE   W01
 BYTE   Dn4
 BYTE   W01
 BYTE   Ds4
 BYTE   W01
 BYTE   En4
 BYTE   W01
 BYTE   En4
 BYTE   W01
 BYTE   Fn4
 BYTE   W01
 BYTE   Fs4
 BYTE   W01
 BYTE   Fs4
 BYTE   W01
 BYTE   Gn4
 BYTE   W01
 BYTE   Gs4
 BYTE   W16
 BYTE   N15  Gn0  v124
 BYTE   W15
// 016   ----------------------------------------
 BYTE   W02
 BYTE   N03  Cn1  v084
 BYTE   W04
 BYTE   Cn1  v064
 BYTE   W04
 BYTE   Cn1  v084
 BYTE   W04
 BYTE   Cn1  v064
 BYTE   W04
 BYTE   Cn1  v084
 BYTE   W04
 BYTE   Cn1  v064
 BYTE   W04
 BYTE   Cn1  v084
 BYTE   W04
 BYTE   Cn1  v064
 BYTE   W04
 BYTE   Cn1  v084
 BYTE   W04
 BYTE   Cn1  v064
 BYTE   W04
 BYTE   Cs1  v084
 BYTE   W04
 BYTE   Cs1  v064
 BYTE   W04
 BYTE   Cs1  v084
 BYTE   W04
 BYTE   Cs1  v064
 BYTE   W04
 BYTE   Cs1  v084
 BYTE   W04
 BYTE   Cs1  v064
 BYTE   W04
 BYTE   As0  v084
 BYTE   W04
 BYTE   As0  v064
 BYTE   W04
 BYTE   As0  v084
 BYTE   W04
 BYTE   As0  v064
 BYTE   W04
 BYTE   Cn1  v084
 BYTE   W04
 BYTE   Cn1  v064
 BYTE   W04
 BYTE   Cn1  v084
 BYTE   W04
 BYTE   Cn1  v064
 BYTE   W02
// 017   ----------------------------------------
 BYTE   W02
 BYTE   Cn1  v084
 BYTE   W04
 BYTE   Cn1  v064
 BYTE   W04
 BYTE   Cn1  v084
 BYTE   W04
 BYTE   Cn1  v064
 BYTE   W04
 BYTE   Cn1  v084
 BYTE   W04
 BYTE   Cn1  v064
 BYTE   W04
 BYTE   Cs1  v084
 BYTE   W04
 BYTE   Cs1  v064
 BYTE   W04
 BYTE   Cs1  v084
 BYTE   W04
 BYTE   Cs1  v064
 BYTE   W04
 BYTE   Cs1  v084
 BYTE   W04
 BYTE   Cs1  v064
 BYTE   W04
 BYTE   As0  v084
 BYTE   W04
 BYTE   As0  v064
 BYTE   W04
 BYTE   As0  v084
 BYTE   W04
 BYTE   As0  v064
 BYTE   W04
 BYTE   Cn1  v084
 BYTE   W04
 BYTE   Cn1  v064
 BYTE   W04
 BYTE   Cn1  v084
 BYTE   W04
 BYTE   Cn1  v064
 BYTE   W04
 BYTE   Cn1  v084
 BYTE   W04
 BYTE   Cn1  v064
 BYTE   W04
 BYTE   Cn1  v084
 BYTE   W04
 BYTE   Cn1  v064
 BYTE   W02
// 018   ----------------------------------------
 BYTE   W02
 BYTE   Cn1  v084
 BYTE   W04
 BYTE   Cn1  v064
 BYTE   W04
 BYTE   Cs1  v084
 BYTE   W04
 BYTE   Cs1  v064
 BYTE   W04
 BYTE   Cs1  v084
 BYTE   W04
 BYTE   Cs1  v064
 BYTE   W04
 BYTE   Cs1  v084
 BYTE   W04
 BYTE   Cs1  v064
 BYTE   W04
 BYTE   As0  v084
 BYTE   W04
 BYTE   As0  v064
 BYTE   W04
 BYTE   As0  v084
 BYTE   W04
 BYTE   As0  v064
 BYTE   W04
 BYTE   Cn1  v084
 BYTE   W04
 BYTE   Cn1  v064
 BYTE   W04
 BYTE   Cn1  v084
 BYTE   W04
 BYTE   Cn1  v064
 BYTE   W04
 BYTE   Cn1  v084
 BYTE   W04
 BYTE   Cn1  v064
 BYTE   W04
 BYTE   Cn1  v084
 BYTE   W04
 BYTE   Cn1  v064
 BYTE   W04
 BYTE   Cn1  v084
 BYTE   W04
 BYTE   Cn1  v064
 BYTE   W04
 BYTE   Cs1  v084
 BYTE   W04
 BYTE   Cs1  v064
 BYTE   W02
// 019   ----------------------------------------
 BYTE   W02
 BYTE   Cs1  v084
 BYTE   W04
 BYTE   Cs1  v064
 BYTE   W04
 BYTE   Cs1  v084
 BYTE   W04
 BYTE   Cs1  v064
 BYTE   W04
 BYTE   As0  v084
 BYTE   W04
 BYTE   As0  v064
 BYTE   W04
 BYTE   As0  v084
 BYTE   W04
 BYTE   As0  v064
 BYTE   W04
 BYTE   Cn2
 BYTE   W04
 BYTE   Gn1  v076
 BYTE   W04
 BYTE   Cn1
 BYTE   W04
 BYTE   Cn2  v064
 BYTE   W04
 BYTE   Gn1  v076
 BYTE   W04
 BYTE   Cn1
 BYTE   W04
 BYTE   Cn2  v064
 BYTE   W04
 BYTE   Gn1  v076
 BYTE   W04
 BYTE   Cn1
 BYTE   W04
 BYTE   Cn2  v064
 BYTE   W04
 BYTE   Cs2
 BYTE   W04
 BYTE   Gs1  v076
 BYTE   W04
 BYTE   Cs1
 BYTE   W04
 BYTE   Cs2  v064
 BYTE   W04
 BYTE   Gs1  v076
 BYTE   W04
 BYTE   Cs1
 BYTE   W02
// 020   ----------------------------------------
Label_0_01EA55BA:
 BYTE   W02
 BYTE   N03  As1  v072
 BYTE   W04
 BYTE   Fn1  v076
 BYTE   W04
 BYTE   As0  v080
 BYTE   W04
 BYTE   As1  v072
 BYTE   W04
 BYTE   Cn2  v064
 BYTE   W04
 BYTE   Gn1  v076
 BYTE   W04
 BYTE   Cn1
 BYTE   W04
 BYTE   Cn2  v064
 BYTE   W04
 BYTE   Gn1  v076
 BYTE   W04
 BYTE   Cn1
 BYTE   W04
 BYTE   Cn2  v064
 BYTE   W04
 BYTE   Gn1  v076
 BYTE   W04
 BYTE   Cn1
 BYTE   W04
 BYTE   Cn2  v064
 BYTE   W04
 BYTE   Cs2
 BYTE   W04
 BYTE   Gs1  v076
 BYTE   W04
 BYTE   Cs1
 BYTE   W04
 BYTE   Cs2  v064
 BYTE   W04
 BYTE   Gs1  v076
 BYTE   W04
 BYTE   Cs1
 BYTE   W04
 BYTE   As1  v072
 BYTE   W04
 BYTE   Fn1  v076
 BYTE   W04
 BYTE   As0  v080
 BYTE   W04
 BYTE   As1  v072
 BYTE   W02
 BYTE   PEND 
// 021   ----------------------------------------
 BYTE   W02
 BYTE   Cn2  v064
 BYTE   W04
 BYTE   Gn1  v076
 BYTE   W04
 BYTE   Cn1
 BYTE   W04
 BYTE   Cn2  v064
 BYTE   W04
 BYTE   Gn1  v076
 BYTE   W04
 BYTE   Cn1
 BYTE   W04
 BYTE   Cn2  v064
 BYTE   W04
 BYTE   Gn1  v076
 BYTE   W04
 BYTE   Cn1
 BYTE   W04
 BYTE   Cn2  v064
 BYTE   W04
 BYTE   Cs2
 BYTE   W04
 BYTE   Gs1  v076
 BYTE   W04
 BYTE   Cs1
 BYTE   W04
 BYTE   Cs2  v064
 BYTE   W04
 BYTE   Gs1  v076
 BYTE   W04
 BYTE   Cs1
 BYTE   W04
 BYTE   As1  v072
 BYTE   W04
 BYTE   Fn1  v076
 BYTE   W04
 BYTE   As0  v080
 BYTE   W04
 BYTE   As1  v072
 BYTE   W04
 BYTE   Cn2  v064
 BYTE   W04
 BYTE   Gn1  v076
 BYTE   W04
 BYTE   Cn1
 BYTE   W04
 BYTE   Cn2  v064
 BYTE   W02
// 022   ----------------------------------------
 BYTE   W02
 BYTE   Gn1  v076
 BYTE   W04
 BYTE   Cn1
 BYTE   W04
 BYTE   Cn2  v064
 BYTE   W04
 BYTE   Gn1  v076
 BYTE   W04
 BYTE   Cn1
 BYTE   W04
 BYTE   Cn2  v064
 BYTE   W04
 BYTE   Cs2
 BYTE   W04
 BYTE   Gs1  v076
 BYTE   W04
 BYTE   Cs1
 BYTE   W04
 BYTE   Cs2  v064
 BYTE   W04
 BYTE   Gs1  v076
 BYTE   W04
 BYTE   Cs1
 BYTE   W04
 BYTE   As1  v072
 BYTE   W04
 BYTE   Fn1  v076
 BYTE   W04
 BYTE   As0  v080
 BYTE   W04
 BYTE   As1  v072
 BYTE   W04
 BYTE   Cn2  v064
 BYTE   W04
 BYTE   Gn1  v076
 BYTE   W04
 BYTE   Cn1
 BYTE   W04
 BYTE   Cn2  v064
 BYTE   W04
 BYTE   Gn1  v076
 BYTE   W04
 BYTE   Cn1
 BYTE   W04
 BYTE   Cn2  v064
 BYTE   W04
 BYTE   Gn1  v076
 BYTE   W02
// 023   ----------------------------------------
 BYTE   W02
 BYTE   Cn1
 BYTE   W04
 BYTE   Cn2  v064
 BYTE   W04
 BYTE   Cs2
 BYTE   W04
 BYTE   Gs1  v076
 BYTE   W04
 BYTE   Cs1
 BYTE   W04
 BYTE   Cs2  v064
 BYTE   W04
 BYTE   Gs1  v076
 BYTE   W04
 BYTE   Cs1
 BYTE   W04
 BYTE   As1  v072
 BYTE   W04
 BYTE   Fn1  v076
 BYTE   W04
 BYTE   As0  v080
 BYTE   W04
 BYTE   As1  v072
 BYTE   W04
 BYTE   Cn2  v064
 BYTE   W04
 BYTE   Gn1  v076
 BYTE   W04
 BYTE   Cn1
 BYTE   W04
 BYTE   Cn2  v064
 BYTE   W04
 BYTE   Gn1  v076
 BYTE   W04
 BYTE   Cn1
 BYTE   W04
 BYTE   Cn2  v064
 BYTE   W04
 BYTE   Gn1  v076
 BYTE   W04
 BYTE   Cn1
 BYTE   W04
 BYTE   Cn2  v064
 BYTE   W04
 BYTE   Cs2
 BYTE   W04
 BYTE   Gs1  v076
 BYTE   W02
// 024   ----------------------------------------
 BYTE   W02
 BYTE   Cs1
 BYTE   W04
 BYTE   Cs2  v064
 BYTE   W04
 BYTE   Gs1  v076
 BYTE   W04
 BYTE   Cs1
 BYTE   W04
 BYTE   As1  v072
 BYTE   W04
 BYTE   Fn1  v076
 BYTE   W04
 BYTE   As0  v080
 BYTE   W04
 BYTE   As1  v072
 BYTE   W04
 BYTE   Cn2  v064
 BYTE   W04
 BYTE   Gn1  v076
 BYTE   W04
 BYTE   Cn1
 BYTE   W04
 BYTE   Cn2  v064
 BYTE   W04
 BYTE   Gn1  v076
 BYTE   W04
 BYTE   Cn1
 BYTE   W04
 BYTE   Cn2  v064
 BYTE   W04
 BYTE   Gn1  v076
 BYTE   W04
 BYTE   Cn1
 BYTE   W04
 BYTE   Cn2  v064
 BYTE   W04
 BYTE   Cs2
 BYTE   W04
 BYTE   Gs1  v076
 BYTE   W04
 BYTE   Cs1
 BYTE   W04
 BYTE   Cs2  v064
 BYTE   W04
 BYTE   Gs1  v076
 BYTE   W04
 BYTE   Cs1
 BYTE   W02
// 025   ----------------------------------------
 BYTE   PATT
  POIN2 Label_0_01EA55BA
// 026   ----------------------------------------
 BYTE   W03
 BYTE   PAN   c_v+0
 BYTE   VOL   69*KirbySuperStarMetaKnightsthemeRSflame1_mvl/mxv
 BYTE   N30  As2  v092
 BYTE   W92
 BYTE   W01
// 027   ----------------------------------------
 BYTE   W66
 BYTE   W01
 BYTE   VOL   80*KirbySuperStarMetaKnightsthemeRSflame1_mvl/mxv
 BYTE   N15  Gn1  v104
 BYTE   W28
 BYTE   W01
// 028   ----------------------------------------
 BYTE   W66
 BYTE   GoTo
  POIN2 Label_0_01EA4FE4
 BYTE   FINE

//**************** Track 2 (Midi-Chn.1) ****************//

KirbySuperStarMetaKnightsthemeRSflame1_002:
// 000   ----------------------------------------
 BYTE   KEYSH   KirbySuperStarMetaKnightsthemeRSflame1_key+0
Label_1_01EA3B0A:
 BYTE   VOICE   48
 BYTE   PAN   c_v+0
 BYTE   VOL   80*KirbySuperStarMetaKnightsthemeRSflame1_mvl/mxv
 BYTE   N36  Cn2  v076
 BYTE   W40
 BYTE   N23  Cs1  v127
 BYTE   W24
 BYTE   N15  As1  v080
 BYTE   W16
 BYTE   N36  Cn2  v076
 BYTE   W16
// 001   ----------------------------------------
 BYTE   W24
 BYTE   N23  Cs1  v127
 BYTE   W24
 BYTE   N15  As1  v080
 BYTE   W16
 BYTE   N36  Cn2  v076
 BYTE   W32
// 002   ----------------------------------------
 BYTE   W08
 BYTE   N23  Cs1  v127
 BYTE   W24
 BYTE   N15  As1  v080
 BYTE   W16
 BYTE   N36  Cn2  v076
 BYTE   W40
 BYTE   N23  Cs1  v127
 BYTE   W08
// 003   ----------------------------------------
 BYTE   W16
 BYTE   N15  As1  v080
 BYTE   W16
 BYTE   PAN   c_v-25
 BYTE   VOL   31*KirbySuperStarMetaKnightsthemeRSflame1_mvl/mxv
 BYTE   N78  Cn4
 BYTE   W01
 BYTE   VOL   32*KirbySuperStarMetaKnightsthemeRSflame1_mvl/mxv
 BYTE   W02
 BYTE   Gs0
 BYTE   W02
 BYTE   An0
 BYTE   W02
 BYTE   As0
 BYTE   W02
 BYTE   As0
 BYTE   W02
 BYTE   Bn0
 BYTE   W02
 BYTE   Bn0
 BYTE   W02
 BYTE   Cn1
 BYTE   W02
 BYTE   Cs1
 BYTE   W02
 BYTE   Cs1
 BYTE   W02
 BYTE   Dn1
 BYTE   W02
 BYTE   Ds1
 BYTE   W02
 BYTE   Ds1
 BYTE   W02
 BYTE   En1
 BYTE   W02
 BYTE   En1
 BYTE   W02
 BYTE   Fn1
 BYTE   W02
 BYTE   Fs1
 BYTE   W02
 BYTE   Fs1
 BYTE   W02
 BYTE   Gn1
 BYTE   W02
 BYTE   Gs1
 BYTE   W02
 BYTE   Gs1
 BYTE   W02
 BYTE   An1
 BYTE   W02
 BYTE   An1
 BYTE   W02
 BYTE   As1
 BYTE   W02
 BYTE   Bn1
 BYTE   W02
 BYTE   Bn1
 BYTE   W02
 BYTE   Cn2
 BYTE   W02
 BYTE   Cs2
 BYTE   W02
 BYTE   Cs2
 BYTE   W02
 BYTE   Dn2
 BYTE   W02
 BYTE   Ds2
 BYTE   W02
 BYTE   Ds2
 BYTE   W01
// 004   ----------------------------------------
 BYTE   W01
 BYTE   En2
 BYTE   W02
 BYTE   En2
 BYTE   W02
 BYTE   Fn2
 BYTE   W02
 BYTE   Fs2
 BYTE   W02
 BYTE   Fs2
 BYTE   W02
 BYTE   Gn2
 BYTE   W02
 BYTE   Gs2
 BYTE   W02
 BYTE   Gs2
 BYTE   W01
 BYTE   Gs2
 BYTE   N78  Cs4
 BYTE   W03
 BYTE   VOL   57*KirbySuperStarMetaKnightsthemeRSflame1_mvl/mxv
 BYTE   W05
 BYTE   An2
 BYTE   W05
 BYTE   As2
 BYTE   W06
 BYTE   Bn2
 BYTE   W05
 BYTE   Bn2
 BYTE   W05
 BYTE   Cn3
 BYTE   W06
 BYTE   Cs3
 BYTE   W05
 BYTE   Cs3
 BYTE   W05
 BYTE   Dn3
 BYTE   W06
 BYTE   Dn3
 BYTE   W05
 BYTE   Ds3
 BYTE   W05
 BYTE   En3
 BYTE   W06
 BYTE   En3
 BYTE   W05
 BYTE   Fn3
 BYTE   W05
 BYTE   Fs3
 BYTE   W03
// 005   ----------------------------------------
 BYTE   Fs3
 BYTE   N78  Ds4
 BYTE   W03
 BYTE   VOL   66*KirbySuperStarMetaKnightsthemeRSflame1_mvl/mxv
 BYTE   W05
 BYTE   Gn3
 BYTE   W05
 BYTE   Gs3
 BYTE   W06
 BYTE   Gs3
 BYTE   W05
 BYTE   An3
 BYTE   W05
 BYTE   An3
 BYTE   W06
 BYTE   As3
 BYTE   W05
 BYTE   Bn3
 BYTE   W05
 BYTE   Bn3
 BYTE   W06
 BYTE   Cn4
 BYTE   W05
 BYTE   Cs4
 BYTE   W05
 BYTE   Cs4
 BYTE   W06
 BYTE   Dn4
 BYTE   W05
 BYTE   Dn4
 BYTE   W05
 BYTE   Ds4
 BYTE   W03
 BYTE   Gs0
 BYTE   N78  Fn4  v092
 BYTE   W01
 BYTE   VOL   32*KirbySuperStarMetaKnightsthemeRSflame1_mvl/mxv
 BYTE   W01
 BYTE   An0
 BYTE   W01
 BYTE   As0
 BYTE   W01
 BYTE   Bn0
 BYTE   W01
 BYTE   Bn0
 BYTE   W01
 BYTE   Cn1
 BYTE   W01
 BYTE   Cs1
 BYTE   W01
 BYTE   Dn1
 BYTE   W01
 BYTE   Ds1
 BYTE   W01
 BYTE   Ds1
 BYTE   W01
 BYTE   En1
 BYTE   W01
 BYTE   Fn1
 BYTE   W01
 BYTE   Fs1
 BYTE   W01
 BYTE   Gn1
 BYTE   W01
 BYTE   Gs1
 BYTE   W01
// 006   ----------------------------------------
 BYTE   Gs1
 BYTE   W01
 BYTE   An1
 BYTE   W01
 BYTE   As1
 BYTE   W01
 BYTE   Bn1
 BYTE   W01
 BYTE   Bn1
 BYTE   W01
 BYTE   Cs2
 BYTE   W01
 BYTE   Cs2
 BYTE   W01
 BYTE   Dn2
 BYTE   W01
 BYTE   Ds2
 BYTE   W01
 BYTE   En2
 BYTE   W01
 BYTE   En2
 BYTE   W01
 BYTE   Fn2
 BYTE   W01
 BYTE   Fs2
 BYTE   W01
 BYTE   Gn2
 BYTE   W01
 BYTE   Gs2
 BYTE   W01
 BYTE   Gs2
 BYTE   W01
 BYTE   An2
 BYTE   W01
 BYTE   As2
 BYTE   W01
 BYTE   Bn2
 BYTE   W01
 BYTE   Cn3
 BYTE   W01
 BYTE   Cs3
 BYTE   W01
 BYTE   Cs3
 BYTE   W01
 BYTE   Dn3
 BYTE   W01
 BYTE   Ds3
 BYTE   W01
 BYTE   En3
 BYTE   W01
 BYTE   En3
 BYTE   W01
 BYTE   Fs3
 BYTE   W01
 BYTE   Fs3
 BYTE   W01
 BYTE   Gn3
 BYTE   W01
 BYTE   Gs3
 BYTE   W01
 BYTE   An3
 BYTE   W01
 BYTE   An3
 BYTE   W01
 BYTE   As3
 BYTE   W01
 BYTE   Bn3
 BYTE   W01
 BYTE   Cn4
 BYTE   W01
 BYTE   Cs4
 BYTE   W01
 BYTE   Cs4
 BYTE   W01
 BYTE   Dn4
 BYTE   W01
 BYTE   Ds4
 BYTE   W01
 BYTE   En4
 BYTE   W01
 BYTE   Fn4
 BYTE   W01
 BYTE   Fs4
 BYTE   W01
 BYTE   Fs4
 BYTE   W01
 BYTE   Gn4
 BYTE   W01
 BYTE   Gs4
 BYTE   W21
 BYTE   PAN   c_v+0
 BYTE   VOL   80*KirbySuperStarMetaKnightsthemeRSflame1_mvl/mxv
 BYTE   N36  Cn2  v076
 BYTE   W30
 BYTE   W01
// 007   ----------------------------------------
 BYTE   W09
 BYTE   N23  Cs1  v127
 BYTE   W24
 BYTE   N15  As1  v080
 BYTE   W16
 BYTE   N36  Cn2  v076
 BYTE   W40
 BYTE   N23  Cs1  v127
 BYTE   W07
// 008   ----------------------------------------
 BYTE   W17
 BYTE   N15  As1  v080
 BYTE   W16
 BYTE   N36  Cn2  v076
 BYTE   W40
 BYTE   N23  Cs1  v127
 BYTE   W23
// 009   ----------------------------------------
 BYTE   W01
 BYTE   N15  As1  v080
 BYTE   W16
 BYTE   N36  Cn2  v076
 BYTE   W40
 BYTE   N23  Cs1  v127
 BYTE   W24
 BYTE   N15  As1  v080
 BYTE   W15
// 010   ----------------------------------------
 BYTE   W01
 BYTE   VOL   59*KirbySuperStarMetaKnightsthemeRSflame1_mvl/mxv
 BYTE   PAN   c_v-25
 BYTE   N15  Fn4  v076
 BYTE   W16
 BYTE   Fs4
 BYTE   W16
 BYTE   N24  Gs4
 BYTE   W24
 BYTE   W03
 BYTE   TIE  As4
 BYTE   W36
// 011   ----------------------------------------
 BYTE   W64
 BYTE   EOT
 BYTE   W01
 BYTE   N36  Fn4
 BYTE   W30
 BYTE   W01
// 012   ----------------------------------------
 BYTE   W09
 BYTE   Ds4
 BYTE   W40
 BYTE   N36
 BYTE   W40
 BYTE   N60  Cs4
 BYTE   W07
// 013   ----------------------------------------
 BYTE   W56
 BYTE   W01
 BYTE   N72  Ds4
 BYTE   W36
 BYTE   W03
// 014   ----------------------------------------
 BYTE   W36
 BYTE   W01
 BYTE   TIE  An3
 BYTE   W56
 BYTE   W03
// 015   ----------------------------------------
 BYTE   W01
 BYTE   VOL   59*KirbySuperStarMetaKnightsthemeRSflame1_mvl/mxv
 BYTE   W01
 BYTE   Cn3
 BYTE   W03
 BYTE   Cs3
 BYTE   W02
 BYTE   Cs3
 BYTE   W03
 BYTE   Dn3
 BYTE   W02
 BYTE   Dn3
 BYTE   W03
 BYTE   Ds3
 BYTE   W02
 BYTE   En3
 BYTE   W03
 BYTE   En3
 BYTE   W02
 BYTE   Fn3
 BYTE   W03
 BYTE   Fs3
 BYTE   W02
 BYTE   Fs3
 BYTE   W03
 BYTE   Gn3
 BYTE   W02
 BYTE   Gs3
 BYTE   W03
 BYTE   Gs3
 BYTE   W02
 BYTE   An3
 BYTE   W03
 BYTE   An3
 BYTE   W02
 BYTE   As3
 BYTE   W03
 BYTE   Bn3
 BYTE   W02
 BYTE   Bn3
 BYTE   W03
 BYTE   Cn4
 BYTE   W02
 BYTE   Cs4
 BYTE   W03
 BYTE   Cs4
 BYTE   W02
 BYTE   Dn4
 BYTE   W03
 BYTE   Dn4
 BYTE   W02
 BYTE   Ds4
 BYTE   W03
 BYTE   En4
 BYTE   W02
 BYTE   En4
 BYTE   W03
 BYTE   Fn4
 BYTE   W02
 BYTE   Fs4
 BYTE   W03
 BYTE   Fs4
 BYTE   W02
 BYTE   Gn4
 BYTE   W03
 BYTE   Gs4
 BYTE   W01
 BYTE   Gn4
 BYTE   W01
 BYTE   Fn4
 BYTE   W01
 BYTE   Ds4
 BYTE   W01
 BYTE   Cs4
 BYTE   W01
 BYTE   Bn3
 BYTE   W01
 BYTE   An3
 BYTE   W01
 BYTE   Gs3
 BYTE   W01
 BYTE   Fs3
 BYTE   W01
 BYTE   En3
 BYTE   W01
 BYTE   Dn3
 BYTE   W01
 BYTE   Cn3
 BYTE   W01
 BYTE   As2
 BYTE   W01
 BYTE   Gs2
 BYTE   W01
 BYTE   Fs2
 BYTE   W01
 BYTE   En2
 BYTE   W01
// 016   ----------------------------------------
 BYTE   EOT
 BYTE   VOL   51*KirbySuperStarMetaKnightsthemeRSflame1_mvl/mxv
 BYTE   W01
 BYTE   Dn2
 BYTE   W01
 BYTE   PAN   c_v+0
 BYTE   VOL   80*KirbySuperStarMetaKnightsthemeRSflame1_mvl/mxv
 BYTE   N36  Cn2
 BYTE   W40
 BYTE   N23  Cs1  v127
 BYTE   W24
 BYTE   N15  As1  v080
 BYTE   W16
 BYTE   N36  Cn2  v076
 BYTE   W14
// 017   ----------------------------------------
 BYTE   W24
 BYTE   W02
 BYTE   N23  Cs1  v127
 BYTE   W24
 BYTE   N15  As1  v080
 BYTE   W16
 BYTE   N36  Cn2  v076
 BYTE   W30
// 018   ----------------------------------------
 BYTE   W10
 BYTE   N23  Cs1  v127
 BYTE   W24
 BYTE   N15  As1  v080
 BYTE   W16
 BYTE   N36  Cn2  v076
 BYTE   W40
 BYTE   N23  Cs1  v127
 BYTE   W06
// 019   ----------------------------------------
 BYTE   W18
 BYTE   N15  As1  v080
 BYTE   W16
 BYTE   PAN   c_v+25
 BYTE   VOL   39*KirbySuperStarMetaKnightsthemeRSflame1_mvl/mxv
 BYTE   N07  As5  v076
 BYTE   W09
 BYTE   N06  Fn5
 BYTE   W07
 BYTE   N05  Cn5
 BYTE   W07
 BYTE   N04  As5
 BYTE   W05
 BYTE   Fn5
 BYTE   W05
 BYTE   Cn5
 BYTE   W05
 BYTE   As5
 BYTE   W05
 BYTE   N03  Fn5  v080
 BYTE   W04
 BYTE   Cn5
 BYTE   W05
 BYTE   Bn5  v076
 BYTE   W04
 BYTE   Fs5  v080
 BYTE   W05
 BYTE   Cs5  v084
 BYTE   W01
// 020   ----------------------------------------
 BYTE   W03
 BYTE   Cn6  v076
 BYTE   W04
 BYTE   N02  Gn5  v092
 BYTE   W03
 BYTE   Dn5
 BYTE   W04
 BYTE   Cs6  v072
 BYTE   W03
 BYTE   Gs5  v076
 BYTE   W04
 BYTE   N03  Ds5
 BYTE   W04
 BYTE   Dn6  v072
 BYTE   W04
 BYTE   An5  v076
 BYTE   W05
 BYTE   N04  En5
 BYTE   W05
 BYTE   TIE  Ds6  v072
 BYTE   W56
 BYTE   W01
// 021   ----------------------------------------
 BYTE   W02
 BYTE   PAN   c_v+25
 BYTE   W01
 BYTE   En5
 BYTE   W01
 BYTE   Ds5
 BYTE   W02
 BYTE   Dn5
 BYTE   W02
 BYTE   Cs5
 BYTE   W01
 BYTE   Cn5
 BYTE   W02
 BYTE   Bn4
 BYTE   W01
 BYTE   As4
 BYTE   W02
 BYTE   An4
 BYTE   W02
 BYTE   Gs4
 BYTE   W01
 BYTE   Gn4
 BYTE   W02
 BYTE   Fs4
 BYTE   W01
 BYTE   Fn4
 BYTE   W02
 BYTE   En4
 BYTE   W02
 BYTE   Ds4
 BYTE   W01
 BYTE   Dn4
 BYTE   W02
 BYTE   Cs4
 BYTE   W01
 BYTE   Cn4
 BYTE   W02
 BYTE   Bn3
 BYTE   W02
 BYTE   As3
 BYTE   W01
 BYTE   An3
 BYTE   W02
 BYTE   Gs3
 BYTE   W01
 BYTE   Gn3
 BYTE   W02
 BYTE   Fs3
 BYTE   W02
 BYTE   Fn3
 BYTE   W01
 BYTE   En3
 BYTE   W02
 BYTE   Ds3
 BYTE   W01
 BYTE   Dn3
 BYTE   W02
 BYTE   Cs3
 BYTE   W02
 BYTE   Cn3
 BYTE   W01
 BYTE   Bn2
 BYTE   W02
 BYTE   As2
 BYTE   W01
 BYTE   An2
 BYTE   W02
 BYTE   Gs2
 BYTE   W02
 BYTE   Gn2
 BYTE   W01
 BYTE   Fs2
 BYTE   W02
 BYTE   Fn2
 BYTE   W01
 BYTE   En2
 BYTE   W02
 BYTE   Ds2
 BYTE   W02
 BYTE   Dn2
 BYTE   W01
 BYTE   Cs2
 BYTE   W02
 BYTE   Cn2
 BYTE   W01
 BYTE   Bn1
 BYTE   W02
 BYTE   As1
 BYTE   W02
 BYTE   An1
 BYTE   W01
 BYTE   Gs1
 BYTE   W02
 BYTE   Gn1
 BYTE   W01
 BYTE   Fs1
 BYTE   W02
 BYTE   Fn1
 BYTE   W02
 BYTE   En1
 BYTE   W01
 BYTE   EOT
 BYTE   PAN   c_v-25
 BYTE   W01
 BYTE   Ds1
 BYTE   VOL   26*KirbySuperStarMetaKnightsthemeRSflame1_mvl/mxv
 BYTE   N06  Gn5  v076
 BYTE   W01
 BYTE   VOL   28*KirbySuperStarMetaKnightsthemeRSflame1_mvl/mxv
 BYTE   W01
 BYTE   Fs0
 BYTE   W01
 BYTE   An0
 BYTE   W01
 BYTE   Bn0
 BYTE   W01
 BYTE   Cs1
 BYTE   W01
 BYTE   En1
 BYTE   W01
 BYTE   Fs1
 BYTE   W01
 BYTE   Gs1
 BYTE   N05  As5
 BYTE   W01
 BYTE   VOL   47*KirbySuperStarMetaKnightsthemeRSflame1_mvl/mxv
 BYTE   W01
 BYTE   Cs2
 BYTE   W01
 BYTE   Ds2
 BYTE   W01
 BYTE   Fs2
 BYTE   W01
 BYTE   Gs2
 BYTE   W01
// 022   ----------------------------------------
 BYTE   As2
 BYTE   N04  Cn6
 BYTE   W01
 BYTE   VOL   59*KirbySuperStarMetaKnightsthemeRSflame1_mvl/mxv
 BYTE   W05
 BYTE   N03  Gn5
 BYTE   W04
 BYTE   As5
 BYTE   W05
 BYTE   Cn6
 BYTE   W04
 BYTE   Gn5
 BYTE   W04
 BYTE   As5
 BYTE   W04
 BYTE   N02  Cn6
 BYTE   W03
 BYTE   Gn5
 BYTE   W04
 BYTE   Fs5
 BYTE   W03
 BYTE   Fn5
 BYTE   W04
 BYTE   Gn5
 BYTE   W03
 BYTE   Fs5
 BYTE   W04
 BYTE   Fn5
 BYTE   W03
 BYTE   Ds5
 BYTE   W04
 BYTE   Fs5
 BYTE   W03
 BYTE   Fn5
 BYTE   W04
 BYTE   Ds5
 BYTE   W03
 BYTE   Fs5
 BYTE   W04
 BYTE   Fn5
 BYTE   W03
 BYTE   Ds5
 BYTE   W04
 BYTE   Fn5
 BYTE   W03
 BYTE   Fs5
 BYTE   W04
 BYTE   Fn5
 BYTE   W03
 BYTE   Ds5
 BYTE   W04
 BYTE   N03  Cn5
 BYTE   W04
 BYTE   As4
 BYTE   W02
// 023   ----------------------------------------
 BYTE   W02
 BYTE   N04  Gn4
 BYTE   W05
 BYTE   N07  Fs4
 BYTE   W08
 BYTE   N09  Fn4
 BYTE   W10
 BYTE   PAN   c_v-24
 BYTE   N24  Ds4  v084
 BYTE   W01
 BYTE   PAN   c_v-22
 BYTE   W01
 BYTE   Gs1
 BYTE   W01
 BYTE   As1
 BYTE   W01
 BYTE   Cn2
 BYTE   W01
 BYTE   Dn2
 BYTE   W01
 BYTE   En2
 BYTE   W01
 BYTE   Fs2
 BYTE   W01
 BYTE   Gs2
 BYTE   W01
 BYTE   As2
 BYTE   W01
 BYTE   Cn3
 BYTE   W01
 BYTE   Dn3
 BYTE   W01
 BYTE   En3
 BYTE   W01
 BYTE   Fs3
 BYTE   W01
 BYTE   Gs3
 BYTE   W01
 BYTE   As3
 BYTE   W01
 BYTE   Cn4
 BYTE   W01
 BYTE   Dn4
 BYTE   W01
 BYTE   En4
 BYTE   W01
 BYTE   Fs4
 BYTE   W01
 BYTE   Gs4
 BYTE   W01
 BYTE   As4
 BYTE   W01
 BYTE   Cn5
 BYTE   W01
 BYTE   Dn5
 BYTE   W01
 BYTE   En5
 BYTE   W01
 BYTE   Fn5
 BYTE   VOL   56*KirbySuperStarMetaKnightsthemeRSflame1_mvl/mxv
 BYTE   N06  Cn4  v092
 BYTE   W08
 BYTE   N05  As3  v076
 BYTE   W06
 BYTE   N04  Cn4
 BYTE   W05
 BYTE   N03  Ds4  v092
 BYTE   W05
 BYTE   Cn4  v076
 BYTE   W04
 BYTE   Ds4
 BYTE   W04
 BYTE   Fn4  v084
 BYTE   W04
 BYTE   Ds4  v080
 BYTE   W04
 BYTE   Fn4
 BYTE   W04
 BYTE   Gn4
 BYTE   W02
// 024   ----------------------------------------
 BYTE   W02
 BYTE   Fn4
 BYTE   W04
 BYTE   Gn4
 BYTE   W04
 BYTE   As4
 BYTE   W04
 BYTE   Cn5
 BYTE   W04
 BYTE   As4
 BYTE   W04
 BYTE   Cn5
 BYTE   W04
 BYTE   Ds5
 BYTE   W04
 BYTE   Cn5
 BYTE   W04
 BYTE   Ds5
 BYTE   W04
 BYTE   Fn5
 BYTE   W04
 BYTE   Ds5
 BYTE   W04
 BYTE   Fn5
 BYTE   W04
 BYTE   Fs5  v076
 BYTE   W04
 BYTE   Gn5
 BYTE   W04
 BYTE   As5
 BYTE   W04
 BYTE   N04  Fn5
 BYTE   W05
 BYTE   Fs5
 BYTE   W06
 BYTE   N05  Gn5
 BYTE   W06
 BYTE   As5  v072
 BYTE   W06
 BYTE   N06  Cn6
 BYTE   W07
 BYTE   Cs6
 BYTE   W04
// 025   ----------------------------------------
 BYTE   W03
 BYTE   N07  Cn6
 BYTE   W09
 BYTE   N84  As5
 BYTE   W06
 BYTE   PAN   c_v+25
 BYTE   W01
 BYTE   En5
 BYTE   W01
 BYTE   Ds5
 BYTE   W02
 BYTE   Dn5
 BYTE   W02
 BYTE   Cs5
 BYTE   W01
 BYTE   Cn5
 BYTE   W02
 BYTE   Bn4
 BYTE   W01
 BYTE   As4
 BYTE   W02
 BYTE   An4
 BYTE   W02
 BYTE   Gs4
 BYTE   W01
 BYTE   Gn4
 BYTE   W02
 BYTE   Fs4
 BYTE   W01
 BYTE   Fn4
 BYTE   W02
 BYTE   En4
 BYTE   W02
 BYTE   Ds4
 BYTE   W01
 BYTE   Dn4
 BYTE   W02
 BYTE   Cs4
 BYTE   W01
 BYTE   Cn4
 BYTE   W02
 BYTE   Bn3
 BYTE   W02
 BYTE   As3
 BYTE   W01
 BYTE   An3
 BYTE   W02
 BYTE   Gs3
 BYTE   W01
 BYTE   Gn3
 BYTE   W02
 BYTE   Fs3
 BYTE   W02
 BYTE   Fn3
 BYTE   W01
 BYTE   En3
 BYTE   W02
 BYTE   Ds3
 BYTE   W01
 BYTE   Dn3
 BYTE   W02
 BYTE   Cs3
 BYTE   W02
 BYTE   Cn3
 BYTE   W01
 BYTE   Bn2
 BYTE   W02
 BYTE   As2
 BYTE   W01
 BYTE   An2
 BYTE   W02
 BYTE   Gs2
 BYTE   W02
 BYTE   Gn2
 BYTE   W01
 BYTE   Fs2
 BYTE   W02
 BYTE   Fn2
 BYTE   W01
 BYTE   En2
 BYTE   W02
 BYTE   Ds2
 BYTE   W02
 BYTE   Dn2
 BYTE   W01
 BYTE   Cs2
 BYTE   W02
 BYTE   Cn2
 BYTE   W01
 BYTE   Bn1
 BYTE   W02
 BYTE   As1
 BYTE   W02
 BYTE   An1
 BYTE   W01
 BYTE   Gs1
 BYTE   W02
 BYTE   Gn1
 BYTE   W01
 BYTE   Fs1
 BYTE   W02
 BYTE   Fn1
 BYTE   W02
// 026   ----------------------------------------
 BYTE   En1
 BYTE   W01
 BYTE   Ds1
 BYTE   W02
 BYTE   En3
 BYTE   VOL   47*KirbySuperStarMetaKnightsthemeRSflame1_mvl/mxv
 BYTE   N07  Gn5  v076
 BYTE   W08
 BYTE   N05  As5
 BYTE   W06
 BYTE   N04  Cn6
 BYTE   W05
 BYTE   N03  Gn5
 BYTE   W05
 BYTE   As5
 BYTE   W04
 BYTE   Cn6
 BYTE   W04
 BYTE   Gn5
 BYTE   W04
 BYTE   N02  As5
 BYTE   W03
 BYTE   N03  Cn6
 BYTE   W04
 BYTE   N02  Gn5
 BYTE   W04
 BYTE   As5
 BYTE   W03
 BYTE   Cn6
 BYTE   W04
 BYTE   N06  Cs6
 BYTE   W07
 BYTE   N04  Cn6
 BYTE   W05
 BYTE   N03  As5
 BYTE   W04
 BYTE   Fs5
 BYTE   W04
 BYTE   Fn5
 BYTE   W04
 BYTE   N02  Ds5
 BYTE   W04
 BYTE   Cn5
 BYTE   W03
 BYTE   As4
 BYTE   W04
 BYTE   N03  Gn4
 BYTE   W04
// 027   ----------------------------------------
 BYTE   Fs4
 BYTE   W04
 BYTE   N04  Fn4
 BYTE   W06
 BYTE   N72  Ds4
 BYTE   W84
 BYTE   W02
// 028   ----------------------------------------
 BYTE   W66
 BYTE   GoTo
  POIN2 Label_1_01EA3B0A
 BYTE   FINE

//**************** Track 3 (Midi-Chn.2) ****************//

KirbySuperStarMetaKnightsthemeRSflame1_003:
// 000   ----------------------------------------
 BYTE   KEYSH   KirbySuperStarMetaKnightsthemeRSflame1_key+0
Label_2_01EA5C66:
 BYTE   VOICE   38
 BYTE   VOL   19*KirbySuperStarMetaKnightsthemeRSflame1_mvl/mxv
 BYTE   PAN   c_v+25
 BYTE   N02  Gn6  v084
 BYTE   W04
 BYTE   Dn6  v072
 BYTE   W04
 BYTE   Ds6  v084
 BYTE   W04
 BYTE   Gn6  v072
 BYTE   W04
 BYTE   Gn5  v084
 BYTE   W04
 BYTE   Gs5  v072
 BYTE   W04
 BYTE   Dn6  v084
 BYTE   W04
 BYTE   Ds6  v072
 BYTE   W04
 BYTE   Gn6  v084
 BYTE   W04
 BYTE   Cn6  v072
 BYTE   W04
 BYTE   Fn6  v084
 BYTE   W04
 BYTE   Gs5  v072
 BYTE   W04
 BYTE   Gn6  v084
 BYTE   W04
 BYTE   Gs5  v072
 BYTE   W04
 BYTE   Fn6  v084
 BYTE   W04
 BYTE   Gs5  v072
 BYTE   W04
 BYTE   PAN   c_v+22
 BYTE   N02  Fn6  v084
 BYTE   W01
 BYTE   PAN   c_v+19
 BYTE   W01
 BYTE   Gs4
 BYTE   W01
 BYTE   Fn4
 BYTE   W01
 BYTE   Cs4
 BYTE   N02  Gs5
 BYTE   W01
 BYTE   PAN   c_v+6
 BYTE   W01
 BYTE   Gn3
 BYTE   W01
 BYTE   En3
 BYTE   W01
 BYTE   Cs3
 BYTE   N02  Gs6  v092
 BYTE   W01
 BYTE   PAN   c_v-6
 BYTE   W01
 BYTE   Gn2
 BYTE   W01
 BYTE   En2
 BYTE   W01
 BYTE   Cn2
 BYTE   N02  Cs6  v084
 BYTE   W01
 BYTE   PAN   c_v-19
 BYTE   W01
 BYTE   Fs1
 BYTE   W01
 BYTE   Ds1
 BYTE   W01
 BYTE   N02  Gn6
 BYTE   W04
 BYTE   Dn6  v072
 BYTE   W04
 BYTE   Ds6  v084
 BYTE   W04
 BYTE   Gn6  v072
 BYTE   W04
// 001   ----------------------------------------
 BYTE   Gn5  v084
 BYTE   W04
 BYTE   Gs5  v072
 BYTE   W04
 BYTE   Dn6  v084
 BYTE   W04
 BYTE   Ds6  v072
 BYTE   W04
 BYTE   Gn6  v084
 BYTE   W04
 BYTE   Cn6  v072
 BYTE   W04
 BYTE   Fn6  v084
 BYTE   W04
 BYTE   Gs5  v072
 BYTE   W04
 BYTE   Gn6  v084
 BYTE   W04
 BYTE   Gs5  v072
 BYTE   W04
 BYTE   Fn6  v084
 BYTE   W04
 BYTE   Gs5  v072
 BYTE   W04
 BYTE   PAN   c_v-22
 BYTE   N02  Fn6  v084
 BYTE   W01
 BYTE   PAN   c_v-19
 BYTE   W01
 BYTE   Cn2
 BYTE   W01
 BYTE   En2
 BYTE   W01
 BYTE   Gn2
 BYTE   N02  Gs5
 BYTE   W01
 BYTE   PAN   c_v-6
 BYTE   W01
 BYTE   Cs3
 BYTE   W01
 BYTE   En3
 BYTE   W01
 BYTE   Gn3
 BYTE   N02  Gs6  v092
 BYTE   W01
 BYTE   PAN   c_v+6
 BYTE   W01
 BYTE   Cs4
 BYTE   W01
 BYTE   Fn4
 BYTE   W01
 BYTE   Gs4
 BYTE   N02  Cs6  v084
 BYTE   W01
 BYTE   PAN   c_v+19
 BYTE   W01
 BYTE   Dn5
 BYTE   W01
 BYTE   Fn5
 BYTE   W01
 BYTE   N02  Gn6
 BYTE   W04
 BYTE   Dn6  v072
 BYTE   W04
 BYTE   Ds6  v084
 BYTE   W04
 BYTE   Gn6  v072
 BYTE   W04
 BYTE   Gn5  v084
 BYTE   W04
 BYTE   Gs5  v072
 BYTE   W04
 BYTE   Dn6  v084
 BYTE   W04
 BYTE   Ds6  v072
 BYTE   W04
// 002   ----------------------------------------
 BYTE   Gn6  v084
 BYTE   W04
 BYTE   Cn6  v072
 BYTE   W04
 BYTE   Fn6  v084
 BYTE   W04
 BYTE   Gs5  v072
 BYTE   W04
 BYTE   Gn6  v084
 BYTE   W04
 BYTE   Gs5  v072
 BYTE   W04
 BYTE   Fn6  v084
 BYTE   W04
 BYTE   Gs5  v072
 BYTE   W04
 BYTE   PAN   c_v+22
 BYTE   N02  Fn6  v084
 BYTE   W01
 BYTE   PAN   c_v+19
 BYTE   W01
 BYTE   Gs4
 BYTE   W01
 BYTE   Fn4
 BYTE   W01
 BYTE   Cs4
 BYTE   N02  Gs5
 BYTE   W01
 BYTE   PAN   c_v+6
 BYTE   W01
 BYTE   Gn3
 BYTE   W01
 BYTE   En3
 BYTE   W01
 BYTE   Cs3
 BYTE   N02  Gs6  v092
 BYTE   W01
 BYTE   PAN   c_v-6
 BYTE   W01
 BYTE   Gn2
 BYTE   W01
 BYTE   En2
 BYTE   W01
 BYTE   Cn2
 BYTE   N02  Cs6  v084
 BYTE   W01
 BYTE   PAN   c_v-19
 BYTE   W01
 BYTE   Fs1
 BYTE   W01
 BYTE   Ds1
 BYTE   W01
 BYTE   N02  Gn6
 BYTE   W04
 BYTE   Dn6  v072
 BYTE   W04
 BYTE   Ds6  v084
 BYTE   W04
 BYTE   Gn6  v072
 BYTE   W04
 BYTE   Gn5  v084
 BYTE   W04
 BYTE   Gs5  v072
 BYTE   W04
 BYTE   Dn6  v084
 BYTE   W04
 BYTE   Ds6  v072
 BYTE   W04
 BYTE   Gn6  v084
 BYTE   W04
 BYTE   Cn6  v072
 BYTE   W04
 BYTE   Fn6  v084
 BYTE   W04
 BYTE   Gs5  v072
 BYTE   W04
// 003   ----------------------------------------
 BYTE   VOL   19*KirbySuperStarMetaKnightsthemeRSflame1_mvl/mxv
 BYTE   N02  Gn6  v084
 BYTE   W01
 BYTE   VOL   18*KirbySuperStarMetaKnightsthemeRSflame1_mvl/mxv
 BYTE   W02
 BYTE   Gs0
 BYTE   W01
 BYTE   Gs0
 BYTE   N02  Gs5  v072
 BYTE   W01
 BYTE   VOL   16*KirbySuperStarMetaKnightsthemeRSflame1_mvl/mxv
 BYTE   W02
 BYTE   Fs0
 BYTE   W01
 BYTE   Fs0
 BYTE   N02  Fn6  v084
 BYTE   W01
 BYTE   VOL   14*KirbySuperStarMetaKnightsthemeRSflame1_mvl/mxv
 BYTE   W01
 BYTE   En0
 BYTE   W02
 BYTE   En0
 BYTE   N02  Gs5  v072
 BYTE   W01
 BYTE   VOL   12*KirbySuperStarMetaKnightsthemeRSflame1_mvl/mxv
 BYTE   W01
 BYTE   Ds0
 BYTE   W02
 BYTE   Dn0
 BYTE   PAN   c_v-22
 BYTE   N02  Fn6  v084
 BYTE   W01
 BYTE   VOL   10*KirbySuperStarMetaKnightsthemeRSflame1_mvl/mxv
 BYTE   PAN   c_v-19
 BYTE   W01
 BYTE   Bn1
 BYTE   VOL   10*KirbySuperStarMetaKnightsthemeRSflame1_mvl/mxv
 BYTE   PAN   c_v-16
 BYTE   W01
 BYTE   Dn2
 BYTE   VOL   9*KirbySuperStarMetaKnightsthemeRSflame1_mvl/mxv
 BYTE   PAN   c_v-12
 BYTE   W01
 BYTE   Gn2
 BYTE   N02  Gs5
 BYTE   W01
 BYTE   VOL   8*KirbySuperStarMetaKnightsthemeRSflame1_mvl/mxv
 BYTE   PAN   c_v-6
 BYTE   W01
 BYTE   VOL   8*KirbySuperStarMetaKnightsthemeRSflame1_mvl/mxv
 BYTE   PAN   c_v-3
 BYTE   W01
 BYTE   Dn3
 BYTE   VOL   7*KirbySuperStarMetaKnightsthemeRSflame1_mvl/mxv
 BYTE   PAN   c_v+0
 BYTE   W01
 BYTE   Fs3
 BYTE   VOL   7*KirbySuperStarMetaKnightsthemeRSflame1_mvl/mxv
 BYTE   PAN   c_v+3
 BYTE   N02  Gs6  v092
 BYTE   W01
 BYTE   PAN   c_v+6
 BYTE   W01
 BYTE   VOL   6*KirbySuperStarMetaKnightsthemeRSflame1_mvl/mxv
 BYTE   PAN   c_v+9
 BYTE   W01
 BYTE   Ds4
 BYTE   VOL   5*KirbySuperStarMetaKnightsthemeRSflame1_mvl/mxv
 BYTE   PAN   c_v+13
 BYTE   W01
 BYTE   Fs4
 BYTE   VOL   5*KirbySuperStarMetaKnightsthemeRSflame1_mvl/mxv
 BYTE   PAN   c_v+16
 BYTE   N02  Cs6  v084
 BYTE   W01
 BYTE   PAN   c_v+19
 BYTE   W01
 BYTE   VOL   4*KirbySuperStarMetaKnightsthemeRSflame1_mvl/mxv
 BYTE   PAN   c_v+22
 BYTE   W01
 BYTE   VOL   3*KirbySuperStarMetaKnightsthemeRSflame1_mvl/mxv
 BYTE   PAN   c_v+25
 BYTE   W01
 BYTE   Fn5
 BYTE   VOL   16*KirbySuperStarMetaKnightsthemeRSflame1_mvl/mxv
 BYTE   N78  Fn4  v080
 BYTE   W01
 BYTE   VOL   17*KirbySuperStarMetaKnightsthemeRSflame1_mvl/mxv
 BYTE   W02
 BYTE   Gs0
 BYTE   W02
 BYTE   An0
 BYTE   W02
 BYTE   As0
 BYTE   W02
 BYTE   As0
 BYTE   W02
 BYTE   Bn0
 BYTE   W02
 BYTE   Bn0
 BYTE   W02
 BYTE   Cn1
 BYTE   W02
 BYTE   Cs1
 BYTE   W02
 BYTE   Cs1
 BYTE   W02
 BYTE   Dn1
 BYTE   W02
 BYTE   Ds1
 BYTE   W02
 BYTE   Ds1
 BYTE   W02
 BYTE   En1
 BYTE   W02
 BYTE   En1
 BYTE   W02
 BYTE   Fn1
 BYTE   W02
 BYTE   Fs1
 BYTE   W02
 BYTE   Fs1
 BYTE   W02
 BYTE   Gn1
 BYTE   W02
 BYTE   Gs1
 BYTE   W02
 BYTE   Gs1
 BYTE   W02
 BYTE   An1
 BYTE   W02
 BYTE   An1
 BYTE   W02
 BYTE   As1
 BYTE   W02
 BYTE   Bn1
 BYTE   W02
 BYTE   Bn1
 BYTE   W02
 BYTE   Cn2
 BYTE   W02
 BYTE   Cs2
 BYTE   W02
 BYTE   Cs2
 BYTE   W02
 BYTE   Dn2
 BYTE   W02
 BYTE   Ds2
 BYTE   W02
 BYTE   Ds2
 BYTE   W01
// 004   ----------------------------------------
 BYTE   W01
 BYTE   En2
 BYTE   W02
 BYTE   En2
 BYTE   W02
 BYTE   Fn2
 BYTE   W02
 BYTE   Fs2
 BYTE   W02
 BYTE   Fs2
 BYTE   W02
 BYTE   Gn2
 BYTE   W02
 BYTE   Gs2
 BYTE   W02
 BYTE   Gs2
 BYTE   W01
 BYTE   Gs2
 BYTE   N78  Fs4
 BYTE   W03
 BYTE   VOL   42*KirbySuperStarMetaKnightsthemeRSflame1_mvl/mxv
 BYTE   W05
 BYTE   An2
 BYTE   W05
 BYTE   As2
 BYTE   W06
 BYTE   Bn2
 BYTE   W05
 BYTE   Bn2
 BYTE   W05
 BYTE   Cn3
 BYTE   W06
 BYTE   Cs3
 BYTE   W05
 BYTE   Cs3
 BYTE   W05
 BYTE   Dn3
 BYTE   W06
 BYTE   Dn3
 BYTE   W05
 BYTE   Ds3
 BYTE   W05
 BYTE   En3
 BYTE   W06
 BYTE   En3
 BYTE   W05
 BYTE   Fn3
 BYTE   W05
 BYTE   Fs3
 BYTE   W03
// 005   ----------------------------------------
 BYTE   Fs3
 BYTE   N78  Gs4
 BYTE   W03
 BYTE   VOL   51*KirbySuperStarMetaKnightsthemeRSflame1_mvl/mxv
 BYTE   W05
 BYTE   Gn3
 BYTE   W05
 BYTE   Gs3
 BYTE   W06
 BYTE   Gs3
 BYTE   W05
 BYTE   An3
 BYTE   W05
 BYTE   An3
 BYTE   W06
 BYTE   As3
 BYTE   W05
 BYTE   Bn3
 BYTE   W05
 BYTE   Bn3
 BYTE   W06
 BYTE   Cn4
 BYTE   W05
 BYTE   Cs4
 BYTE   W05
 BYTE   Cs4
 BYTE   W06
 BYTE   Dn4
 BYTE   W05
 BYTE   Dn4
 BYTE   W05
 BYTE   Ds4
 BYTE   W03
 BYTE   Gs0
 BYTE   N78  Fs4  v092
 BYTE   W01
 BYTE   VOL   17*KirbySuperStarMetaKnightsthemeRSflame1_mvl/mxv
 BYTE   W01
 BYTE   An0
 BYTE   W01
 BYTE   As0
 BYTE   W01
 BYTE   Bn0
 BYTE   W01
 BYTE   Bn0
 BYTE   W01
 BYTE   Cn1
 BYTE   W01
 BYTE   Cs1
 BYTE   W01
 BYTE   Dn1
 BYTE   W01
 BYTE   Ds1
 BYTE   W01
 BYTE   Ds1
 BYTE   W01
 BYTE   En1
 BYTE   W01
 BYTE   Fn1
 BYTE   W01
 BYTE   Fs1
 BYTE   W01
 BYTE   Gn1
 BYTE   W01
 BYTE   Gs1
 BYTE   W01
// 006   ----------------------------------------
 BYTE   Gs1
 BYTE   W01
 BYTE   An1
 BYTE   W01
 BYTE   As1
 BYTE   W01
 BYTE   Bn1
 BYTE   W01
 BYTE   Bn1
 BYTE   W01
 BYTE   Cs2
 BYTE   W01
 BYTE   Cs2
 BYTE   W01
 BYTE   Dn2
 BYTE   W01
 BYTE   Ds2
 BYTE   W01
 BYTE   En2
 BYTE   W01
 BYTE   En2
 BYTE   W01
 BYTE   Fn2
 BYTE   W01
 BYTE   Fs2
 BYTE   W01
 BYTE   Gn2
 BYTE   W01
 BYTE   Gs2
 BYTE   W01
 BYTE   Gs2
 BYTE   W01
 BYTE   An2
 BYTE   W01
 BYTE   As2
 BYTE   W01
 BYTE   Bn2
 BYTE   W01
 BYTE   Cn3
 BYTE   W01
 BYTE   Cs3
 BYTE   W01
 BYTE   Cs3
 BYTE   W01
 BYTE   Dn3
 BYTE   W01
 BYTE   Ds3
 BYTE   W01
 BYTE   En3
 BYTE   W01
 BYTE   En3
 BYTE   W01
 BYTE   Fs3
 BYTE   W01
 BYTE   Fs3
 BYTE   W01
 BYTE   Gn3
 BYTE   W01
 BYTE   Gs3
 BYTE   W01
 BYTE   An3
 BYTE   W01
 BYTE   An3
 BYTE   W01
 BYTE   As3
 BYTE   W01
 BYTE   Bn3
 BYTE   W01
 BYTE   Cn4
 BYTE   W01
 BYTE   Cs4
 BYTE   W01
 BYTE   Cs4
 BYTE   W01
 BYTE   Dn4
 BYTE   W01
 BYTE   Ds4
 BYTE   W01
 BYTE   En4
 BYTE   W01
 BYTE   Fn4
 BYTE   W01
 BYTE   Fs4
 BYTE   W01
 BYTE   Fs4
 BYTE   W01
 BYTE   Gn4
 BYTE   W01
 BYTE   Gs4
 BYTE   W21
 BYTE   As0
 BYTE   PAN   c_v+25
 BYTE   N02  Gn6  v084
 BYTE   W04
 BYTE   Dn6  v072
 BYTE   W04
 BYTE   Ds6  v084
 BYTE   W04
 BYTE   Gn6  v072
 BYTE   W04
 BYTE   Gn5  v084
 BYTE   W04
 BYTE   Gs5  v072
 BYTE   W04
 BYTE   Dn6  v084
 BYTE   W04
 BYTE   Ds6  v072
 BYTE   W03
// 007   ----------------------------------------
 BYTE   W01
 BYTE   Gn6  v084
 BYTE   W04
 BYTE   Cn6  v072
 BYTE   W04
 BYTE   Fn6  v084
 BYTE   W04
 BYTE   Gs5  v072
 BYTE   W04
 BYTE   Gn6  v084
 BYTE   W04
 BYTE   Gs5  v072
 BYTE   W04
 BYTE   Fn6  v084
 BYTE   W04
 BYTE   Gs5  v072
 BYTE   W04
 BYTE   PAN   c_v+22
 BYTE   N02  Fn6  v084
 BYTE   W01
 BYTE   PAN   c_v+19
 BYTE   W01
 BYTE   Gs4
 BYTE   W01
 BYTE   Fn4
 BYTE   W01
 BYTE   Cs4
 BYTE   N02  Gs5
 BYTE   W01
 BYTE   PAN   c_v+6
 BYTE   W01
 BYTE   Gn3
 BYTE   W01
 BYTE   En3
 BYTE   W01
 BYTE   Cs3
 BYTE   N02  Gs6  v092
 BYTE   W01
 BYTE   PAN   c_v-6
 BYTE   W01
 BYTE   Gn2
 BYTE   W01
 BYTE   En2
 BYTE   W01
 BYTE   Cn2
 BYTE   N02  Cs6  v084
 BYTE   W01
 BYTE   PAN   c_v-19
 BYTE   W01
 BYTE   Fs1
 BYTE   W01
 BYTE   Ds1
 BYTE   W01
 BYTE   N02  Gn6
 BYTE   W04
 BYTE   Dn6  v072
 BYTE   W04
 BYTE   Ds6  v084
 BYTE   W04
 BYTE   Gn6  v072
 BYTE   W04
 BYTE   Gn5  v084
 BYTE   W04
 BYTE   Gs5  v072
 BYTE   W04
 BYTE   Dn6  v084
 BYTE   W04
 BYTE   Ds6  v072
 BYTE   W04
 BYTE   Gn6  v084
 BYTE   W04
 BYTE   Cn6  v072
 BYTE   W04
 BYTE   Fn6  v084
 BYTE   W04
 BYTE   Gs5  v072
 BYTE   W03
// 008   ----------------------------------------
 BYTE   W01
 BYTE   Gn6  v084
 BYTE   W04
 BYTE   Gs5  v072
 BYTE   W04
 BYTE   Fn6  v084
 BYTE   W04
 BYTE   Gs5  v072
 BYTE   W04
 BYTE   PAN   c_v-22
 BYTE   N02  Fn6  v084
 BYTE   W01
 BYTE   PAN   c_v-19
 BYTE   W01
 BYTE   Cn2
 BYTE   W01
 BYTE   En2
 BYTE   W01
 BYTE   Gn2
 BYTE   N02  Gs5
 BYTE   W01
 BYTE   PAN   c_v-6
 BYTE   W01
 BYTE   Cs3
 BYTE   W01
 BYTE   En3
 BYTE   W01
 BYTE   Gn3
 BYTE   N02  Gs6  v092
 BYTE   W01
 BYTE   PAN   c_v+6
 BYTE   W01
 BYTE   Cs4
 BYTE   W01
 BYTE   Fn4
 BYTE   W01
 BYTE   Gs4
 BYTE   N02  Cs6  v084
 BYTE   W01
 BYTE   PAN   c_v+19
 BYTE   W01
 BYTE   Dn5
 BYTE   W01
 BYTE   Fn5
 BYTE   W01
 BYTE   N02  Gn6
 BYTE   W04
 BYTE   Dn6  v072
 BYTE   W04
 BYTE   Ds6  v084
 BYTE   W04
 BYTE   Gn6  v072
 BYTE   W04
 BYTE   Gn5  v084
 BYTE   W04
 BYTE   Gs5  v072
 BYTE   W04
 BYTE   Dn6  v084
 BYTE   W04
 BYTE   Ds6  v072
 BYTE   W04
 BYTE   Gn6  v084
 BYTE   W04
 BYTE   Cn6  v072
 BYTE   W04
 BYTE   Fn6  v084
 BYTE   W04
 BYTE   Gs5  v072
 BYTE   W04
 BYTE   Gn6  v084
 BYTE   W04
 BYTE   Gs5  v072
 BYTE   W04
 BYTE   Fn6  v084
 BYTE   W04
 BYTE   Gs5  v072
 BYTE   W03
// 009   ----------------------------------------
 BYTE   W01
 BYTE   PAN   c_v+22
 BYTE   N02  Fn6  v084
 BYTE   W01
 BYTE   PAN   c_v+19
 BYTE   W01
 BYTE   Gs4
 BYTE   W01
 BYTE   Fn4
 BYTE   W01
 BYTE   Cs4
 BYTE   N02  Gs5
 BYTE   W01
 BYTE   PAN   c_v+6
 BYTE   W01
 BYTE   Gn3
 BYTE   W01
 BYTE   En3
 BYTE   W01
 BYTE   Cs3
 BYTE   N02  Gs6  v092
 BYTE   W01
 BYTE   PAN   c_v-6
 BYTE   W01
 BYTE   Gn2
 BYTE   W01
 BYTE   En2
 BYTE   W01
 BYTE   Cn2
 BYTE   N02  Cs6  v084
 BYTE   W01
 BYTE   PAN   c_v-19
 BYTE   W01
 BYTE   Fs1
 BYTE   W01
 BYTE   Ds1
 BYTE   W01
 BYTE   N02  Gn6
 BYTE   W04
 BYTE   Dn6  v072
 BYTE   W04
 BYTE   Ds6  v084
 BYTE   W04
 BYTE   Gn6  v072
 BYTE   W04
 BYTE   Gn5  v084
 BYTE   W04
 BYTE   Gs5  v072
 BYTE   W04
 BYTE   Dn6  v084
 BYTE   W04
 BYTE   Ds6  v072
 BYTE   W04
 BYTE   Gn6  v084
 BYTE   W04
 BYTE   Cn6  v072
 BYTE   W04
 BYTE   Fn6  v084
 BYTE   W04
 BYTE   Gs5  v072
 BYTE   W04
 BYTE   VOL   19*KirbySuperStarMetaKnightsthemeRSflame1_mvl/mxv
 BYTE   N02  Gn6  v084
 BYTE   W01
 BYTE   VOL   18*KirbySuperStarMetaKnightsthemeRSflame1_mvl/mxv
 BYTE   W02
 BYTE   Gs0
 BYTE   W01
 BYTE   Gs0
 BYTE   N02  Gs5  v072
 BYTE   W01
 BYTE   VOL   16*KirbySuperStarMetaKnightsthemeRSflame1_mvl/mxv
 BYTE   W02
 BYTE   Fs0
 BYTE   W01
 BYTE   Fs0
 BYTE   N02  Fn6  v084
 BYTE   W01
 BYTE   VOL   14*KirbySuperStarMetaKnightsthemeRSflame1_mvl/mxv
 BYTE   W01
 BYTE   En0
 BYTE   W02
 BYTE   En0
 BYTE   N02  Gs5  v072
 BYTE   W01
 BYTE   VOL   12*KirbySuperStarMetaKnightsthemeRSflame1_mvl/mxv
 BYTE   W01
 BYTE   Ds0
 BYTE   W02
 BYTE   Dn0
 BYTE   PAN   c_v-22
 BYTE   N02  Fn6  v084
 BYTE   W01
 BYTE   VOL   10*KirbySuperStarMetaKnightsthemeRSflame1_mvl/mxv
 BYTE   PAN   c_v-19
 BYTE   W01
 BYTE   Bn1
 BYTE   VOL   10*KirbySuperStarMetaKnightsthemeRSflame1_mvl/mxv
 BYTE   PAN   c_v-16
 BYTE   W01
 BYTE   Dn2
 BYTE   VOL   9*KirbySuperStarMetaKnightsthemeRSflame1_mvl/mxv
 BYTE   PAN   c_v-12
 BYTE   W01
 BYTE   Gn2
 BYTE   N02  Gs5
 BYTE   W01
 BYTE   VOL   8*KirbySuperStarMetaKnightsthemeRSflame1_mvl/mxv
 BYTE   PAN   c_v-6
 BYTE   W01
 BYTE   VOL   8*KirbySuperStarMetaKnightsthemeRSflame1_mvl/mxv
 BYTE   PAN   c_v-3
 BYTE   W01
 BYTE   Dn3
 BYTE   VOL   7*KirbySuperStarMetaKnightsthemeRSflame1_mvl/mxv
 BYTE   PAN   c_v+0
 BYTE   W01
 BYTE   Fs3
 BYTE   VOL   7*KirbySuperStarMetaKnightsthemeRSflame1_mvl/mxv
 BYTE   PAN   c_v+3
 BYTE   N02  Gs6  v092
 BYTE   W01
 BYTE   PAN   c_v+6
 BYTE   W01
 BYTE   VOL   6*KirbySuperStarMetaKnightsthemeRSflame1_mvl/mxv
 BYTE   PAN   c_v+9
 BYTE   W01
 BYTE   Ds4
 BYTE   VOL   5*KirbySuperStarMetaKnightsthemeRSflame1_mvl/mxv
 BYTE   PAN   c_v+13
 BYTE   W01
 BYTE   Fs4
 BYTE   VOL   5*KirbySuperStarMetaKnightsthemeRSflame1_mvl/mxv
 BYTE   PAN   c_v+16
 BYTE   N02  Cs6  v084
 BYTE   W01
 BYTE   PAN   c_v+19
 BYTE   W01
 BYTE   VOL   4*KirbySuperStarMetaKnightsthemeRSflame1_mvl/mxv
 BYTE   PAN   c_v+22
 BYTE   W01
// 010   ----------------------------------------
 BYTE   VOL   3*KirbySuperStarMetaKnightsthemeRSflame1_mvl/mxv
 BYTE   PAN   c_v+25
 BYTE   W01
 BYTE   VOL   44*KirbySuperStarMetaKnightsthemeRSflame1_mvl/mxv
 BYTE   PAN   c_v+25
 BYTE   N15  Gn4  v076
 BYTE   W16
 BYTE   Gs4
 BYTE   W16
 BYTE   N24  As4
 BYTE   W24
 BYTE   W03
 BYTE   TIE  Cn5
 BYTE   W36
// 011   ----------------------------------------
 BYTE   W64
 BYTE   EOT
 BYTE   W01
 BYTE   N36  As4
 BYTE   W30
 BYTE   W01
// 012   ----------------------------------------
 BYTE   W09
 BYTE   Gs4
 BYTE   W40
 BYTE   Fn4
 BYTE   W40
 BYTE   N60  Ds4
 BYTE   W07
// 013   ----------------------------------------
 BYTE   W56
 BYTE   W01
 BYTE   N72  Fn4
 BYTE   W36
 BYTE   W03
// 014   ----------------------------------------
 BYTE   W36
 BYTE   W01
 BYTE   TIE  Dn4
 BYTE   W56
 BYTE   W03
// 015   ----------------------------------------
 BYTE   W01
 BYTE   VOL   44*KirbySuperStarMetaKnightsthemeRSflame1_mvl/mxv
 BYTE   W01
 BYTE   Cn3
 BYTE   W03
 BYTE   Cs3
 BYTE   W02
 BYTE   Cs3
 BYTE   W03
 BYTE   Dn3
 BYTE   W02
 BYTE   Dn3
 BYTE   W03
 BYTE   Ds3
 BYTE   W02
 BYTE   En3
 BYTE   W03
 BYTE   En3
 BYTE   W02
 BYTE   Fn3
 BYTE   W03
 BYTE   Fs3
 BYTE   W02
 BYTE   Fs3
 BYTE   W03
 BYTE   Gn3
 BYTE   W02
 BYTE   Gs3
 BYTE   W03
 BYTE   Gs3
 BYTE   W02
 BYTE   An3
 BYTE   W03
 BYTE   An3
 BYTE   W02
 BYTE   As3
 BYTE   W03
 BYTE   Bn3
 BYTE   W02
 BYTE   Bn3
 BYTE   W03
 BYTE   Cn4
 BYTE   W02
 BYTE   Cs4
 BYTE   W03
 BYTE   Cs4
 BYTE   W02
 BYTE   Dn4
 BYTE   W03
 BYTE   Dn4
 BYTE   W02
 BYTE   Ds4
 BYTE   W03
 BYTE   En4
 BYTE   W02
 BYTE   En4
 BYTE   W03
 BYTE   Fn4
 BYTE   W02
 BYTE   Fs4
 BYTE   W03
 BYTE   Fs4
 BYTE   W02
 BYTE   Gn4
 BYTE   W03
 BYTE   Gs4
 BYTE   W01
 BYTE   Gn4
 BYTE   W01
 BYTE   Fn4
 BYTE   W01
 BYTE   Ds4
 BYTE   W01
 BYTE   Cs4
 BYTE   W01
 BYTE   Bn3
 BYTE   W01
 BYTE   An3
 BYTE   W01
 BYTE   Gs3
 BYTE   W01
 BYTE   Fs3
 BYTE   W01
 BYTE   En3
 BYTE   W01
 BYTE   Dn3
 BYTE   W01
 BYTE   Cn3
 BYTE   W01
 BYTE   As2
 BYTE   W01
 BYTE   Gs2
 BYTE   W01
 BYTE   Fs2
 BYTE   W01
 BYTE   En2
 BYTE   W01
// 016   ----------------------------------------
 BYTE   EOT
 BYTE   VOL   36*KirbySuperStarMetaKnightsthemeRSflame1_mvl/mxv
 BYTE   W01
 BYTE   Dn2
 BYTE   W01
 BYTE   As0
 BYTE   PAN   c_v+25
 BYTE   N02  Gn6  v084
 BYTE   W04
 BYTE   Dn6  v072
 BYTE   W04
 BYTE   Ds6  v084
 BYTE   W04
 BYTE   Gn6  v072
 BYTE   W04
 BYTE   Gn5  v084
 BYTE   W04
 BYTE   Gs5  v072
 BYTE   W04
 BYTE   Dn6  v084
 BYTE   W04
 BYTE   Ds6  v072
 BYTE   W04
 BYTE   Gn6  v084
 BYTE   W04
 BYTE   Cn6  v072
 BYTE   W04
 BYTE   Fn6  v084
 BYTE   W04
 BYTE   Gs5  v072
 BYTE   W04
 BYTE   Gn6  v084
 BYTE   W04
 BYTE   Gs5  v072
 BYTE   W04
 BYTE   Fn6  v084
 BYTE   W04
 BYTE   Gs5  v072
 BYTE   W04
 BYTE   PAN   c_v+22
 BYTE   N02  Fn6  v084
 BYTE   W01
 BYTE   PAN   c_v+19
 BYTE   W01
 BYTE   Gs4
 BYTE   W01
 BYTE   Fn4
 BYTE   W01
 BYTE   Cs4
 BYTE   N02  Gs5
 BYTE   W01
 BYTE   PAN   c_v+6
 BYTE   W01
 BYTE   Gn3
 BYTE   W01
 BYTE   En3
 BYTE   W01
 BYTE   Cs3
 BYTE   N02  Gs6  v092
 BYTE   W01
 BYTE   PAN   c_v-6
 BYTE   W01
 BYTE   Gn2
 BYTE   W01
 BYTE   En2
 BYTE   W01
 BYTE   Cn2
 BYTE   N02  Cs6  v084
 BYTE   W01
 BYTE   PAN   c_v-19
 BYTE   W01
 BYTE   Fs1
 BYTE   W01
 BYTE   Ds1
 BYTE   W01
 BYTE   N02  Gn6
 BYTE   W04
 BYTE   Dn6  v072
 BYTE   W04
 BYTE   Ds6  v084
 BYTE   W04
 BYTE   Gn6  v072
 BYTE   W02
// 017   ----------------------------------------
 BYTE   W02
 BYTE   Gn5  v084
 BYTE   W04
 BYTE   Gs5  v072
 BYTE   W04
 BYTE   Dn6  v084
 BYTE   W04
 BYTE   Ds6  v072
 BYTE   W04
 BYTE   Gn6  v084
 BYTE   W04
 BYTE   Cn6  v072
 BYTE   W04
 BYTE   Fn6  v084
 BYTE   W04
 BYTE   Gs5  v072
 BYTE   W04
 BYTE   Gn6  v084
 BYTE   W04
 BYTE   Gs5  v072
 BYTE   W04
 BYTE   Fn6  v084
 BYTE   W04
 BYTE   Gs5  v072
 BYTE   W04
 BYTE   PAN   c_v-22
 BYTE   N02  Fn6  v084
 BYTE   W01
 BYTE   PAN   c_v-19
 BYTE   W01
 BYTE   Cn2
 BYTE   W01
 BYTE   En2
 BYTE   W01
 BYTE   Gn2
 BYTE   N02  Gs5
 BYTE   W01
 BYTE   PAN   c_v-6
 BYTE   W01
 BYTE   Cs3
 BYTE   W01
 BYTE   En3
 BYTE   W01
 BYTE   Gn3
 BYTE   N02  Gs6  v092
 BYTE   W01
 BYTE   PAN   c_v+6
 BYTE   W01
 BYTE   Cs4
 BYTE   W01
 BYTE   Fn4
 BYTE   W01
 BYTE   Gs4
 BYTE   N02  Cs6  v084
 BYTE   W01
 BYTE   PAN   c_v+19
 BYTE   W01
 BYTE   Dn5
 BYTE   W01
 BYTE   Fn5
 BYTE   W01
 BYTE   N02  Gn6
 BYTE   W04
 BYTE   Dn6  v072
 BYTE   W04
 BYTE   Ds6  v084
 BYTE   W04
 BYTE   Gn6  v072
 BYTE   W04
 BYTE   Gn5  v084
 BYTE   W04
 BYTE   Gs5  v072
 BYTE   W04
 BYTE   Dn6  v084
 BYTE   W04
 BYTE   Ds6  v072
 BYTE   W02
// 018   ----------------------------------------
 BYTE   W02
 BYTE   Gn6  v084
 BYTE   W04
 BYTE   Cn6  v072
 BYTE   W04
 BYTE   Fn6  v084
 BYTE   W04
 BYTE   Gs5  v072
 BYTE   W04
 BYTE   Gn6  v084
 BYTE   W04
 BYTE   Gs5  v072
 BYTE   W04
 BYTE   Fn6  v084
 BYTE   W04
 BYTE   Gs5  v072
 BYTE   W04
 BYTE   PAN   c_v+22
 BYTE   N02  Fn6  v084
 BYTE   W01
 BYTE   PAN   c_v+19
 BYTE   W01
 BYTE   Gs4
 BYTE   W01
 BYTE   Fn4
 BYTE   W01
 BYTE   Cs4
 BYTE   N02  Gs5
 BYTE   W01
 BYTE   PAN   c_v+6
 BYTE   W01
 BYTE   Gn3
 BYTE   W01
 BYTE   En3
 BYTE   W01
 BYTE   Cs3
 BYTE   N02  Gs6  v092
 BYTE   W01
 BYTE   PAN   c_v-6
 BYTE   W01
 BYTE   Gn2
 BYTE   W01
 BYTE   En2
 BYTE   W01
 BYTE   Cn2
 BYTE   N02  Cs6  v084
 BYTE   W01
 BYTE   PAN   c_v-19
 BYTE   W01
 BYTE   Fs1
 BYTE   W01
 BYTE   Ds1
 BYTE   W01
 BYTE   N02  Gn6
 BYTE   W04
 BYTE   Dn6  v072
 BYTE   W04
 BYTE   Ds6  v084
 BYTE   W04
 BYTE   Gn6  v072
 BYTE   W04
 BYTE   Gn5  v084
 BYTE   W04
 BYTE   Gs5  v072
 BYTE   W04
 BYTE   Dn6  v084
 BYTE   W04
 BYTE   Ds6  v072
 BYTE   W04
 BYTE   Gn6  v084
 BYTE   W04
 BYTE   Cn6  v072
 BYTE   W04
 BYTE   Fn6  v084
 BYTE   W04
 BYTE   Gs5  v072
 BYTE   W02
// 019   ----------------------------------------
 BYTE   W02
 BYTE   VOL   19*KirbySuperStarMetaKnightsthemeRSflame1_mvl/mxv
 BYTE   N02  Gn6  v084
 BYTE   W01
 BYTE   VOL   18*KirbySuperStarMetaKnightsthemeRSflame1_mvl/mxv
 BYTE   W02
 BYTE   Gs0
 BYTE   W01
 BYTE   Gs0
 BYTE   N02  Gs5  v072
 BYTE   W01
 BYTE   VOL   16*KirbySuperStarMetaKnightsthemeRSflame1_mvl/mxv
 BYTE   W02
 BYTE   Fs0
 BYTE   W01
 BYTE   Fs0
 BYTE   N02  Fn6  v084
 BYTE   W01
 BYTE   VOL   14*KirbySuperStarMetaKnightsthemeRSflame1_mvl/mxv
 BYTE   W01
 BYTE   En0
 BYTE   W02
 BYTE   En0
 BYTE   N02  Gs5  v072
 BYTE   W01
 BYTE   VOL   12*KirbySuperStarMetaKnightsthemeRSflame1_mvl/mxv
 BYTE   W01
 BYTE   Ds0
 BYTE   W02
 BYTE   Dn0
 BYTE   PAN   c_v-22
 BYTE   N02  Fn6  v084
 BYTE   W01
 BYTE   VOL   10*KirbySuperStarMetaKnightsthemeRSflame1_mvl/mxv
 BYTE   PAN   c_v-19
 BYTE   W01
 BYTE   Bn1
 BYTE   VOL   10*KirbySuperStarMetaKnightsthemeRSflame1_mvl/mxv
 BYTE   PAN   c_v-16
 BYTE   W01
 BYTE   Dn2
 BYTE   VOL   9*KirbySuperStarMetaKnightsthemeRSflame1_mvl/mxv
 BYTE   PAN   c_v-12
 BYTE   W01
 BYTE   Gn2
 BYTE   N02  Gs5
 BYTE   W01
 BYTE   VOL   8*KirbySuperStarMetaKnightsthemeRSflame1_mvl/mxv
 BYTE   PAN   c_v-6
 BYTE   W01
 BYTE   VOL   8*KirbySuperStarMetaKnightsthemeRSflame1_mvl/mxv
 BYTE   PAN   c_v-3
 BYTE   W01
 BYTE   Dn3
 BYTE   VOL   7*KirbySuperStarMetaKnightsthemeRSflame1_mvl/mxv
 BYTE   PAN   c_v+0
 BYTE   W01
 BYTE   Fs3
 BYTE   VOL   7*KirbySuperStarMetaKnightsthemeRSflame1_mvl/mxv
 BYTE   PAN   c_v+3
 BYTE   N02  Gs6  v092
 BYTE   W01
 BYTE   PAN   c_v+6
 BYTE   W01
 BYTE   VOL   6*KirbySuperStarMetaKnightsthemeRSflame1_mvl/mxv
 BYTE   PAN   c_v+9
 BYTE   W01
 BYTE   Ds4
 BYTE   VOL   5*KirbySuperStarMetaKnightsthemeRSflame1_mvl/mxv
 BYTE   PAN   c_v+13
 BYTE   W01
 BYTE   Fs4
 BYTE   VOL   5*KirbySuperStarMetaKnightsthemeRSflame1_mvl/mxv
 BYTE   PAN   c_v+16
 BYTE   N02  Cs6  v084
 BYTE   W01
 BYTE   PAN   c_v+19
 BYTE   W01
 BYTE   VOL   4*KirbySuperStarMetaKnightsthemeRSflame1_mvl/mxv
 BYTE   PAN   c_v+22
 BYTE   W01
 BYTE   VOL   3*KirbySuperStarMetaKnightsthemeRSflame1_mvl/mxv
 BYTE   PAN   c_v+25
 BYTE   W01
 BYTE   VOL   47*KirbySuperStarMetaKnightsthemeRSflame1_mvl/mxv
 BYTE   PAN   c_v+25
 BYTE   N04  Fn3  v076
 BYTE   W12
 BYTE   PAN   c_v-25
 BYTE   N04
 BYTE   W12
 BYTE   PAN   c_v+25
 BYTE   N04
 BYTE   W24
 BYTE   PAN   c_v-25
 BYTE   N06  Fs3
 BYTE   W14
// 020   ----------------------------------------
Label_2_01EA6393:
 BYTE   W02
 BYTE   PAN   c_v+25
 BYTE   N03  Ds3  v076
 BYTE   W04
 BYTE   PAN   c_v-25
 BYTE   N04
 BYTE   W12
 BYTE   PAN   c_v+25
 BYTE   N04  Fn3
 BYTE   W12
 BYTE   PAN   c_v-25
 BYTE   N04
 BYTE   W12
 BYTE   PAN   c_v+25
 BYTE   N04
 BYTE   W24
 BYTE   PAN   c_v-25
 BYTE   N06  Fs3
 BYTE   W16
 BYTE   PAN   c_v+25
 BYTE   N03  Ds3
 BYTE   W04
 BYTE   PAN   c_v-25
 BYTE   N04
 BYTE   W10
 BYTE   PEND 
// 021   ----------------------------------------
 BYTE   W02
 BYTE   PAN   c_v+25
 BYTE   N04  Fn3
 BYTE   W12
 BYTE   PAN   c_v-25
 BYTE   N04
 BYTE   W12
 BYTE   PAN   c_v+25
 BYTE   N04
 BYTE   W24
 BYTE   PAN   c_v-25
 BYTE   N06  Fs3
 BYTE   W16
 BYTE   PAN   c_v+25
 BYTE   N03  Ds3
 BYTE   W04
 BYTE   PAN   c_v-25
 BYTE   N04
 BYTE   W12
 BYTE   PAN   c_v+25
 BYTE   N04  Fn3
 BYTE   W12
 BYTE   PAN   c_v-25
 BYTE   N04
 BYTE   W02
// 022   ----------------------------------------
 BYTE   W10
 BYTE   PAN   c_v+25
 BYTE   N04
 BYTE   W24
 BYTE   PAN   c_v-25
 BYTE   N06  Fs3
 BYTE   W16
 BYTE   PAN   c_v+25
 BYTE   N03  Ds3
 BYTE   W04
 BYTE   PAN   c_v-25
 BYTE   N04
 BYTE   W12
 BYTE   PAN   c_v+25
 BYTE   N04  Fn3
 BYTE   W12
 BYTE   PAN   c_v-25
 BYTE   N04
 BYTE   W12
 BYTE   PAN   c_v+25
 BYTE   N04
 BYTE   W06
// 023   ----------------------------------------
 BYTE   W18
 BYTE   PAN   c_v-25
 BYTE   N06  Fs3
 BYTE   W16
 BYTE   PAN   c_v+25
 BYTE   N03  Ds3
 BYTE   W04
 BYTE   PAN   c_v-25
 BYTE   N04
 BYTE   W12
 BYTE   PAN   c_v+25
 BYTE   N04  Fn3
 BYTE   W12
 BYTE   PAN   c_v-25
 BYTE   N04
 BYTE   W12
 BYTE   PAN   c_v+25
 BYTE   N04
 BYTE   W22
// 024   ----------------------------------------
 BYTE   W02
 BYTE   PAN   c_v-25
 BYTE   N06  Fs3
 BYTE   W16
 BYTE   PAN   c_v+25
 BYTE   N03  Ds3
 BYTE   W04
 BYTE   PAN   c_v-25
 BYTE   N04
 BYTE   W12
 BYTE   PAN   c_v+25
 BYTE   N04  Fn3
 BYTE   W12
 BYTE   PAN   c_v-25
 BYTE   N04
 BYTE   W12
 BYTE   PAN   c_v+25
 BYTE   N04
 BYTE   W24
 BYTE   PAN   c_v-25
 BYTE   N06  Fs3
 BYTE   W14
// 025   ----------------------------------------
 BYTE   PATT
  POIN2 Label_2_01EA6393
// 026   ----------------------------------------
 BYTE   W13
 BYTE   PAN   c_v+63
 BYTE   VOL   19*KirbySuperStarMetaKnightsthemeRSflame1_mvl/mxv
 BYTE   N07  Gn5  v076
 BYTE   W08
 BYTE   N05  As5
 BYTE   W06
 BYTE   N04  Cn6
 BYTE   W05
 BYTE   N03  Gn5
 BYTE   W05
 BYTE   As5
 BYTE   W04
 BYTE   Cn6
 BYTE   W04
 BYTE   Gn5
 BYTE   W04
 BYTE   N02  As5
 BYTE   W03
 BYTE   N03  Cn6
 BYTE   W04
 BYTE   N02  Gn5
 BYTE   W04
 BYTE   As5
 BYTE   W03
 BYTE   Cn6
 BYTE   W04
 BYTE   N06  Cs6
 BYTE   W07
 BYTE   N04  Cn6
 BYTE   W05
 BYTE   N03  As5
 BYTE   W04
 BYTE   Fs5
 BYTE   W04
 BYTE   Fn5
 BYTE   W04
 BYTE   N02  Ds5
 BYTE   W04
 BYTE   Cn5
 BYTE   W01
// 027   ----------------------------------------
 BYTE   W02
 BYTE   As4
 BYTE   W04
 BYTE   N03  Gn4
 BYTE   W04
 BYTE   Fs4
 BYTE   W04
 BYTE   N04  Fn4
 BYTE   W06
 BYTE   N60  Ds4
 BYTE   W76
// 028   ----------------------------------------
 BYTE   W66
 BYTE   GoTo
  POIN2 Label_2_01EA5C66
 BYTE   FINE

//**************** Track 4 (Midi-Chn.3) ****************//

KirbySuperStarMetaKnightsthemeRSflame1_004:
// 000   ----------------------------------------
 BYTE   KEYSH   KirbySuperStarMetaKnightsthemeRSflame1_key+0
Label_3_01EA47DA:
 BYTE   VOICE   47
 BYTE   W96
// 001   ----------------------------------------
 BYTE   W96
// 002   ----------------------------------------
 BYTE   W96
// 003   ----------------------------------------
 BYTE   W32
 BYTE   PAN   c_v+0
 BYTE   VOL   31*KirbySuperStarMetaKnightsthemeRSflame1_mvl/mxv
 BYTE   TIE  As2  v076
 BYTE   W01
 BYTE   VOL   32*KirbySuperStarMetaKnightsthemeRSflame1_mvl/mxv
 BYTE   W02
 BYTE   Gs0
 BYTE   W02
 BYTE   An0
 BYTE   W02
 BYTE   As0
 BYTE   W02
 BYTE   As0
 BYTE   W02
 BYTE   Bn0
 BYTE   W02
 BYTE   Bn0
 BYTE   W02
 BYTE   Cn1
 BYTE   W02
 BYTE   Cs1
 BYTE   W02
 BYTE   Cs1
 BYTE   W02
 BYTE   Dn1
 BYTE   W02
 BYTE   Ds1
 BYTE   W02
 BYTE   Ds1
 BYTE   W02
 BYTE   En1
 BYTE   W02
 BYTE   En1
 BYTE   W02
 BYTE   Fn1
 BYTE   W02
 BYTE   Fs1
 BYTE   W02
 BYTE   Fs1
 BYTE   W02
 BYTE   Gn1
 BYTE   W02
 BYTE   Gs1
 BYTE   W02
 BYTE   Gs1
 BYTE   W02
 BYTE   An1
 BYTE   W02
 BYTE   An1
 BYTE   W02
 BYTE   As1
 BYTE   W02
 BYTE   Bn1
 BYTE   W02
 BYTE   Bn1
 BYTE   W02
 BYTE   Cn2
 BYTE   W02
 BYTE   Cs2
 BYTE   W02
 BYTE   Cs2
 BYTE   W02
 BYTE   Dn2
 BYTE   W02
 BYTE   Ds2
 BYTE   W02
 BYTE   Ds2
 BYTE   W01
// 004   ----------------------------------------
 BYTE   W01
 BYTE   En2
 BYTE   W02
 BYTE   En2
 BYTE   W02
 BYTE   Fn2
 BYTE   W02
 BYTE   Fs2
 BYTE   W02
 BYTE   Fs2
 BYTE   W02
 BYTE   Gn2
 BYTE   W02
 BYTE   Gs2
 BYTE   W02
 BYTE   Gs2
 BYTE   W01
 BYTE   Gs2
 BYTE   W03
 BYTE   An2
 BYTE   W05
 BYTE   An2
 BYTE   W05
 BYTE   As2
 BYTE   W06
 BYTE   Bn2
 BYTE   W05
 BYTE   Bn2
 BYTE   W05
 BYTE   Cn3
 BYTE   W06
 BYTE   Cs3
 BYTE   W05
 BYTE   Cs3
 BYTE   W05
 BYTE   Dn3
 BYTE   W06
 BYTE   Dn3
 BYTE   W05
 BYTE   Ds3
 BYTE   W05
 BYTE   En3
 BYTE   W06
 BYTE   En3
 BYTE   W05
 BYTE   Fn3
 BYTE   W05
 BYTE   Fs3
 BYTE   W03
// 005   ----------------------------------------
 BYTE   Fs3
 BYTE   W03
 BYTE   Fs3
 BYTE   W05
 BYTE   Gn3
 BYTE   W05
 BYTE   Gs3
 BYTE   W06
 BYTE   Gs3
 BYTE   W05
 BYTE   An3
 BYTE   W05
 BYTE   An3
 BYTE   W06
 BYTE   As3
 BYTE   W05
 BYTE   Bn3
 BYTE   W05
 BYTE   Bn3
 BYTE   W06
 BYTE   Cn4
 BYTE   W05
 BYTE   Cs4
 BYTE   W05
 BYTE   Cs4
 BYTE   W06
 BYTE   Dn4
 BYTE   W05
 BYTE   Dn4
 BYTE   W05
 BYTE   Ds4
 BYTE   W02
 BYTE   EOT
 BYTE   W01
 BYTE   VOL   32*KirbySuperStarMetaKnightsthemeRSflame1_mvl/mxv
 BYTE   N78  As2  v084
 BYTE   W01
 BYTE   VOL   32*KirbySuperStarMetaKnightsthemeRSflame1_mvl/mxv
 BYTE   W01
 BYTE   An0
 BYTE   W01
 BYTE   As0
 BYTE   W01
 BYTE   Bn0
 BYTE   W01
 BYTE   Bn0
 BYTE   W01
 BYTE   Cn1
 BYTE   W01
 BYTE   Cs1
 BYTE   W01
 BYTE   Dn1
 BYTE   W01
 BYTE   Ds1
 BYTE   W01
 BYTE   Ds1
 BYTE   W01
 BYTE   En1
 BYTE   W01
 BYTE   Fn1
 BYTE   W01
 BYTE   Fs1
 BYTE   W01
 BYTE   Gn1
 BYTE   W01
 BYTE   Gs1
 BYTE   W01
// 006   ----------------------------------------
 BYTE   Gs1
 BYTE   W01
 BYTE   An1
 BYTE   W01
 BYTE   As1
 BYTE   W01
 BYTE   Bn1
 BYTE   W01
 BYTE   Bn1
 BYTE   W01
 BYTE   Cs2
 BYTE   W01
 BYTE   Cs2
 BYTE   W01
 BYTE   Dn2
 BYTE   W01
 BYTE   Ds2
 BYTE   W01
 BYTE   En2
 BYTE   W01
 BYTE   En2
 BYTE   W01
 BYTE   Fn2
 BYTE   W01
 BYTE   Fs2
 BYTE   W01
 BYTE   Gn2
 BYTE   W01
 BYTE   Gs2
 BYTE   W01
 BYTE   Gs2
 BYTE   W01
 BYTE   An2
 BYTE   W01
 BYTE   As2
 BYTE   W01
 BYTE   Bn2
 BYTE   W01
 BYTE   Cn3
 BYTE   W01
 BYTE   Cs3
 BYTE   W01
 BYTE   Cs3
 BYTE   W01
 BYTE   Dn3
 BYTE   W01
 BYTE   Ds3
 BYTE   W01
 BYTE   En3
 BYTE   W01
 BYTE   En3
 BYTE   W01
 BYTE   Fs3
 BYTE   W01
 BYTE   Fs3
 BYTE   W01
 BYTE   Gn3
 BYTE   W01
 BYTE   Gs3
 BYTE   W01
 BYTE   An3
 BYTE   W01
 BYTE   An3
 BYTE   W01
 BYTE   As3
 BYTE   W01
 BYTE   Bn3
 BYTE   W01
 BYTE   Cn4
 BYTE   W01
 BYTE   Cs4
 BYTE   W01
 BYTE   Cs4
 BYTE   W01
 BYTE   Dn4
 BYTE   W01
 BYTE   Ds4
 BYTE   W01
 BYTE   En4
 BYTE   W01
 BYTE   Fn4
 BYTE   W01
 BYTE   Fs4
 BYTE   W01
 BYTE   Fs4
 BYTE   W01
 BYTE   Gn4
 BYTE   W01
 BYTE   Gs4
 BYTE   W21
 BYTE   An3
 BYTE   N11  Cn2  v104
 BYTE   W12
 BYTE   VOL   72*KirbySuperStarMetaKnightsthemeRSflame1_mvl/mxv
 BYTE   PAN   c_v-25
 BYTE   N03  Fn3  v076
 BYTE   W04
 BYTE   PAN   c_v+0
 BYTE   N07  Cn4
 BYTE   W08
 BYTE   PAN   c_v+25
 BYTE   N03  Dn3
 BYTE   W04
 BYTE   PAN   c_v-25
 BYTE   N03  Fn3
 BYTE   W03
// 007   ----------------------------------------
 BYTE   W01
 BYTE   PAN   c_v+25
 BYTE   N03  Dn3
 BYTE   W04
 BYTE   N03
 BYTE   W04
 BYTE   N03
 BYTE   W04
 BYTE   N03
 BYTE   W04
 BYTE   PAN   c_v+0
 BYTE   N07  Bn3
 BYTE   W08
 BYTE   PAN   c_v+25
 BYTE   N03  Dn3
 BYTE   W04
 BYTE   PAN   c_v-25
 BYTE   N03  Fn3
 BYTE   W04
 BYTE   PAN   c_v+25
 BYTE   N03  Dn3
 BYTE   W04
 BYTE   N03
 BYTE   W04
 BYTE   PAN   c_v-25
 BYTE   N03  Fn3
 BYTE   W04
 BYTE   PAN   c_v+25
 BYTE   N03  Dn3
 BYTE   W04
 BYTE   PAN   c_v+0
 BYTE   N11  Cn2  v104
 BYTE   W12
 BYTE   N03  Cn4  v064
 BYTE   W04
 BYTE   N07  Cn4  v076
 BYTE   W08
 BYTE   PAN   c_v+25
 BYTE   N03  Dn3
 BYTE   W04
 BYTE   PAN   c_v-25
 BYTE   N03  Fn3
 BYTE   W04
 BYTE   PAN   c_v+25
 BYTE   N03  Dn3
 BYTE   W04
 BYTE   N03
 BYTE   W04
 BYTE   N03
 BYTE   W04
 BYTE   N03
 BYTE   W03
// 008   ----------------------------------------
 BYTE   W01
 BYTE   PAN   c_v+0
 BYTE   N07  Bn3
 BYTE   W08
 BYTE   PAN   c_v+25
 BYTE   N03  Dn3
 BYTE   W04
 BYTE   PAN   c_v-25
 BYTE   N03  Fn3
 BYTE   W04
 BYTE   PAN   c_v+25
 BYTE   N03  Dn3
 BYTE   W04
 BYTE   N03
 BYTE   W04
 BYTE   PAN   c_v+0
 BYTE   VOL   69*KirbySuperStarMetaKnightsthemeRSflame1_mvl/mxv
 BYTE   N07  As1  v104
 BYTE   W08
 BYTE   N11  Cn2
 BYTE   W12
 BYTE   VOL   72*KirbySuperStarMetaKnightsthemeRSflame1_mvl/mxv
 BYTE   PAN   c_v-25
 BYTE   N03  Fn3  v076
 BYTE   W04
 BYTE   PAN   c_v+0
 BYTE   N07  Cn4
 BYTE   W08
 BYTE   PAN   c_v+25
 BYTE   N03  Dn3
 BYTE   W04
 BYTE   PAN   c_v-25
 BYTE   N03  Fn3
 BYTE   W04
 BYTE   PAN   c_v+25
 BYTE   N03  Dn3
 BYTE   W04
 BYTE   N03
 BYTE   W04
 BYTE   N03
 BYTE   W04
 BYTE   N03
 BYTE   W04
 BYTE   PAN   c_v+0
 BYTE   N07  Bn3
 BYTE   W08
 BYTE   PAN   c_v+25
 BYTE   N03  Dn3
 BYTE   W04
 BYTE   PAN   c_v-25
 BYTE   N03  Fn3
 BYTE   W03
// 009   ----------------------------------------
 BYTE   W01
 BYTE   PAN   c_v+25
 BYTE   N03  Dn3
 BYTE   W04
 BYTE   N03
 BYTE   W04
 BYTE   PAN   c_v-25
 BYTE   N03  Fn3
 BYTE   W04
 BYTE   PAN   c_v+25
 BYTE   N03  Dn3
 BYTE   W04
 BYTE   PAN   c_v-25
 BYTE   N07  Fn3
 BYTE   W08
 BYTE   N03
 BYTE   W04
 BYTE   PAN   c_v-25
 BYTE   N03  Dn3
 BYTE   W04
 BYTE   PAN   c_v+0
 BYTE   N07  Cn4
 BYTE   W08
 BYTE   PAN   c_v+25
 BYTE   N03  Dn3
 BYTE   W04
 BYTE   PAN   c_v-25
 BYTE   N03  Fn3
 BYTE   W04
 BYTE   PAN   c_v+25
 BYTE   N03  Dn3
 BYTE   W04
 BYTE   N03
 BYTE   W04
 BYTE   N03
 BYTE   W04
 BYTE   N03
 BYTE   W04
 BYTE   PAN   c_v+0
 BYTE   N07  Bn3
 BYTE   W08
 BYTE   PAN   c_v+25
 BYTE   N03  Dn3
 BYTE   W04
 BYTE   PAN   c_v-25
 BYTE   N03  Fn3
 BYTE   W04
 BYTE   PAN   c_v+25
 BYTE   N03  Dn3
 BYTE   W04
 BYTE   N03
 BYTE   W04
 BYTE   PAN   c_v-25
 BYTE   N03  Fn3
 BYTE   W04
 BYTE   PAN   c_v+25
 BYTE   N03  Dn3
 BYTE   W03
// 010   ----------------------------------------
 BYTE   W01
 BYTE   VOL   59*KirbySuperStarMetaKnightsthemeRSflame1_mvl/mxv
 BYTE   PAN   c_v+0
 BYTE   N15  Cn3
 BYTE   W16
 BYTE   Cs3
 BYTE   W16
 BYTE   N24  Ds3
 BYTE   W24
 BYTE   W03
 BYTE   TIE  Fn3
 BYTE   W36
// 011   ----------------------------------------
 BYTE   W64
 BYTE   EOT
 BYTE   W01
 BYTE   N36  Ds3
 BYTE   W30
 BYTE   W01
// 012   ----------------------------------------
 BYTE   W09
 BYTE   Cs3
 BYTE   W40
 BYTE   As2
 BYTE   W40
 BYTE   N60  Gs2
 BYTE   W07
// 013   ----------------------------------------
 BYTE   W56
 BYTE   W01
 BYTE   N72  As2
 BYTE   W36
 BYTE   W03
// 014   ----------------------------------------
 BYTE   W36
 BYTE   W01
 BYTE   TIE  Gn2
 BYTE   W56
 BYTE   W03
// 015   ----------------------------------------
 BYTE   W01
 BYTE   VOL   59*KirbySuperStarMetaKnightsthemeRSflame1_mvl/mxv
 BYTE   W01
 BYTE   Cn3
 BYTE   W03
 BYTE   Cs3
 BYTE   W02
 BYTE   Cs3
 BYTE   W03
 BYTE   Dn3
 BYTE   W02
 BYTE   Dn3
 BYTE   W03
 BYTE   Ds3
 BYTE   W02
 BYTE   En3
 BYTE   W03
 BYTE   En3
 BYTE   W02
 BYTE   Fn3
 BYTE   W03
 BYTE   Fs3
 BYTE   W02
 BYTE   Fs3
 BYTE   W03
 BYTE   Gn3
 BYTE   W02
 BYTE   Gs3
 BYTE   W03
 BYTE   Gs3
 BYTE   W02
 BYTE   An3
 BYTE   W03
 BYTE   An3
 BYTE   W02
 BYTE   As3
 BYTE   W03
 BYTE   Bn3
 BYTE   W02
 BYTE   Bn3
 BYTE   W03
 BYTE   Cn4
 BYTE   W02
 BYTE   Cs4
 BYTE   W03
 BYTE   Cs4
 BYTE   W02
 BYTE   Dn4
 BYTE   W03
 BYTE   Dn4
 BYTE   W02
 BYTE   Ds4
 BYTE   W03
 BYTE   En4
 BYTE   W02
 BYTE   En4
 BYTE   W03
 BYTE   Fn4
 BYTE   W02
 BYTE   Fs4
 BYTE   W03
 BYTE   Fs4
 BYTE   W02
 BYTE   Gn4
 BYTE   W03
 BYTE   Gs4
 BYTE   W01
 BYTE   Gn4
 BYTE   W01
 BYTE   Fn4
 BYTE   W01
 BYTE   Ds4
 BYTE   W01
 BYTE   Cs4
 BYTE   W01
 BYTE   Bn3
 BYTE   W01
 BYTE   An3
 BYTE   W01
 BYTE   Gs3
 BYTE   W01
 BYTE   Fs3
 BYTE   W01
 BYTE   En3
 BYTE   W01
 BYTE   Dn3
 BYTE   W01
 BYTE   Cn3
 BYTE   W01
 BYTE   As2
 BYTE   W01
 BYTE   Gs2
 BYTE   W01
 BYTE   Fs2
 BYTE   W01
 BYTE   En2
 BYTE   W01
// 016   ----------------------------------------
 BYTE   EOT
 BYTE   VOL   51*KirbySuperStarMetaKnightsthemeRSflame1_mvl/mxv
 BYTE   W01
 BYTE   Dn2
 BYTE   W01
 BYTE   An3
 BYTE   N11  Cn2  v104
 BYTE   W12
 BYTE   VOL   72*KirbySuperStarMetaKnightsthemeRSflame1_mvl/mxv
 BYTE   PAN   c_v-25
 BYTE   N03  Fn3  v076
 BYTE   W04
 BYTE   PAN   c_v+0
 BYTE   N07  Cn4
 BYTE   W08
 BYTE   PAN   c_v+25
 BYTE   N03  Dn3
 BYTE   W04
 BYTE   PAN   c_v-25
 BYTE   N03  Fn3
 BYTE   W04
 BYTE   PAN   c_v+25
 BYTE   N03  Dn3
 BYTE   W04
 BYTE   N03
 BYTE   W04
 BYTE   N03
 BYTE   W04
 BYTE   N03
 BYTE   W04
 BYTE   PAN   c_v+0
 BYTE   N07  Bn3
 BYTE   W08
 BYTE   PAN   c_v+25
 BYTE   N03  Dn3
 BYTE   W04
 BYTE   PAN   c_v-25
 BYTE   N03  Fn3
 BYTE   W04
 BYTE   PAN   c_v+25
 BYTE   N03  Dn3
 BYTE   W04
 BYTE   N03
 BYTE   W04
 BYTE   PAN   c_v-25
 BYTE   N03  Fn3
 BYTE   W04
 BYTE   PAN   c_v+25
 BYTE   N03  Dn3
 BYTE   W04
 BYTE   PAN   c_v+0
 BYTE   N11  Cn2  v104
 BYTE   W12
 BYTE   N03  Cn4  v064
 BYTE   W02
// 017   ----------------------------------------
 BYTE   W02
 BYTE   N07  Cn4  v076
 BYTE   W08
 BYTE   PAN   c_v+25
 BYTE   N03  Dn3
 BYTE   W04
 BYTE   PAN   c_v-25
 BYTE   N03  Fn3
 BYTE   W04
 BYTE   PAN   c_v+25
 BYTE   N03  Dn3
 BYTE   W04
 BYTE   N03
 BYTE   W04
 BYTE   N03
 BYTE   W04
 BYTE   N03
 BYTE   W04
 BYTE   PAN   c_v+0
 BYTE   N07  Bn3
 BYTE   W08
 BYTE   PAN   c_v+25
 BYTE   N03  Dn3
 BYTE   W04
 BYTE   PAN   c_v-25
 BYTE   N03  Fn3
 BYTE   W04
 BYTE   PAN   c_v+25
 BYTE   N03  Dn3
 BYTE   W04
 BYTE   N03
 BYTE   W04
 BYTE   PAN   c_v+0
 BYTE   VOL   69*KirbySuperStarMetaKnightsthemeRSflame1_mvl/mxv
 BYTE   N07  As1  v104
 BYTE   W08
 BYTE   N11  Cn2
 BYTE   W12
 BYTE   VOL   72*KirbySuperStarMetaKnightsthemeRSflame1_mvl/mxv
 BYTE   PAN   c_v-25
 BYTE   N03  Fn3  v076
 BYTE   W04
 BYTE   PAN   c_v+0
 BYTE   N07  Cn4
 BYTE   W08
 BYTE   PAN   c_v+25
 BYTE   N03  Dn3
 BYTE   W04
 BYTE   PAN   c_v-25
 BYTE   N03  Fn3
 BYTE   W02
// 018   ----------------------------------------
 BYTE   W02
 BYTE   PAN   c_v+25
 BYTE   N03  Dn3
 BYTE   W04
 BYTE   N03
 BYTE   W04
 BYTE   N03
 BYTE   W04
 BYTE   N03
 BYTE   W04
 BYTE   PAN   c_v+0
 BYTE   N07  Bn3
 BYTE   W08
 BYTE   PAN   c_v+25
 BYTE   N03  Dn3
 BYTE   W04
 BYTE   PAN   c_v-25
 BYTE   N03  Fn3
 BYTE   W04
 BYTE   PAN   c_v+25
 BYTE   N03  Dn3
 BYTE   W04
 BYTE   N03
 BYTE   W04
 BYTE   PAN   c_v-25
 BYTE   N03  Fn3
 BYTE   W04
 BYTE   PAN   c_v+25
 BYTE   N03  Dn3
 BYTE   W04
 BYTE   PAN   c_v-25
 BYTE   N07  Fn3
 BYTE   W08
 BYTE   N03
 BYTE   W04
 BYTE   PAN   c_v-25
 BYTE   N03  Dn3
 BYTE   W04
 BYTE   PAN   c_v+0
 BYTE   N07  Cn4
 BYTE   W08
 BYTE   PAN   c_v+25
 BYTE   N03  Dn3
 BYTE   W04
 BYTE   PAN   c_v-25
 BYTE   N03  Fn3
 BYTE   W04
 BYTE   PAN   c_v+25
 BYTE   N03  Dn3
 BYTE   W04
 BYTE   N03
 BYTE   W04
 BYTE   N03
 BYTE   W04
 BYTE   N03
 BYTE   W02
// 019   ----------------------------------------
 BYTE   W02
 BYTE   PAN   c_v+0
 BYTE   N07  Bn3
 BYTE   W08
 BYTE   PAN   c_v+25
 BYTE   N03  Dn3
 BYTE   W04
 BYTE   PAN   c_v-25
 BYTE   N03  Fn3
 BYTE   W04
 BYTE   PAN   c_v+25
 BYTE   N03  Dn3
 BYTE   W04
 BYTE   N03
 BYTE   W04
 BYTE   PAN   c_v-25
 BYTE   N03  Fn3
 BYTE   W04
 BYTE   PAN   c_v+25
 BYTE   N03  Dn3
 BYTE   W04
 BYTE   VOL   62*KirbySuperStarMetaKnightsthemeRSflame1_mvl/mxv
 BYTE   PAN   c_v-25
 BYTE   N04  Cn2
 BYTE   W12
 BYTE   PAN   c_v+25
 BYTE   N04
 BYTE   W12
 BYTE   PAN   c_v-25
 BYTE   N04
 BYTE   W24
 BYTE   PAN   c_v+25
 BYTE   N06  Cs2
 BYTE   W14
// 020   ----------------------------------------
Label_3_01EA4BCF:
 BYTE   W02
 BYTE   PAN   c_v-25
 BYTE   N03  As1  v076
 BYTE   W04
 BYTE   PAN   c_v+25
 BYTE   N04
 BYTE   W12
 BYTE   PAN   c_v-25
 BYTE   N04  Cn2
 BYTE   W12
 BYTE   PAN   c_v+25
 BYTE   N04
 BYTE   W12
 BYTE   PAN   c_v-25
 BYTE   N04
 BYTE   W24
 BYTE   PAN   c_v+25
 BYTE   N06  Cs2
 BYTE   W16
 BYTE   PAN   c_v-25
 BYTE   N03  As1
 BYTE   W04
 BYTE   PAN   c_v+25
 BYTE   N04
 BYTE   W10
 BYTE   PEND 
// 021   ----------------------------------------
 BYTE   W02
 BYTE   PAN   c_v-25
 BYTE   N04  Cn2
 BYTE   W12
 BYTE   PAN   c_v+25
 BYTE   N04
 BYTE   W12
 BYTE   PAN   c_v-25
 BYTE   N04
 BYTE   W24
 BYTE   PAN   c_v+25
 BYTE   N06  Cs2
 BYTE   W16
 BYTE   PAN   c_v-25
 BYTE   N03  As1
 BYTE   W04
 BYTE   PAN   c_v+25
 BYTE   N04
 BYTE   W12
 BYTE   PAN   c_v-25
 BYTE   N04  Cn2
 BYTE   W12
 BYTE   PAN   c_v+25
 BYTE   N04
 BYTE   W02
// 022   ----------------------------------------
 BYTE   W10
 BYTE   PAN   c_v-25
 BYTE   N04
 BYTE   W24
 BYTE   PAN   c_v+25
 BYTE   N06  Cs2
 BYTE   W16
 BYTE   PAN   c_v-25
 BYTE   N03  As1
 BYTE   W04
 BYTE   PAN   c_v+25
 BYTE   N04
 BYTE   W12
 BYTE   PAN   c_v-25
 BYTE   N04  Cn2
 BYTE   W12
 BYTE   PAN   c_v+25
 BYTE   N04
 BYTE   W12
 BYTE   PAN   c_v-25
 BYTE   N04
 BYTE   W06
// 023   ----------------------------------------
 BYTE   W18
 BYTE   PAN   c_v+25
 BYTE   N06  Cs2
 BYTE   W16
 BYTE   PAN   c_v-25
 BYTE   N03  As1
 BYTE   W04
 BYTE   PAN   c_v+25
 BYTE   N04
 BYTE   W12
 BYTE   PAN   c_v-25
 BYTE   N04  Cn2
 BYTE   W12
 BYTE   PAN   c_v+25
 BYTE   N04
 BYTE   W12
 BYTE   PAN   c_v-25
 BYTE   N04
 BYTE   W22
// 024   ----------------------------------------
 BYTE   W02
 BYTE   PAN   c_v+25
 BYTE   N06  Cs2
 BYTE   W16
 BYTE   PAN   c_v-25
 BYTE   N03  As1
 BYTE   W04
 BYTE   PAN   c_v+25
 BYTE   N04
 BYTE   W12
 BYTE   PAN   c_v-25
 BYTE   N04  Cn2
 BYTE   W12
 BYTE   PAN   c_v+25
 BYTE   N04
 BYTE   W12
 BYTE   PAN   c_v-25
 BYTE   N04
 BYTE   W24
 BYTE   PAN   c_v+25
 BYTE   N06  Cs2
 BYTE   W14
// 025   ----------------------------------------
 BYTE   PATT
  POIN2 Label_3_01EA4BCF
// 026   ----------------------------------------
 BYTE   W08
 BYTE   PAN   c_v-64
 BYTE   VOL   34*KirbySuperStarMetaKnightsthemeRSflame1_mvl/mxv
 BYTE   N07  Gn3  v076
 BYTE   W08
 BYTE   N05  As3
 BYTE   W06
 BYTE   N04  Cn4
 BYTE   W05
 BYTE   N03  Gn3
 BYTE   W05
 BYTE   As3
 BYTE   W04
 BYTE   Cn4
 BYTE   W04
 BYTE   Gn3
 BYTE   W04
 BYTE   N02  As3
 BYTE   W03
 BYTE   N03  Cn4
 BYTE   W04
 BYTE   N02  Gn3
 BYTE   W04
 BYTE   As3
 BYTE   W03
 BYTE   Cn4
 BYTE   W04
 BYTE   N06  Cs4
 BYTE   W07
 BYTE   N04  Cn4
 BYTE   W05
 BYTE   N03  As3
 BYTE   W04
 BYTE   Fs3
 BYTE   W04
 BYTE   Fn3
 BYTE   W04
 BYTE   N02  Ds3
 BYTE   W04
 BYTE   Cn3
 BYTE   W03
 BYTE   As2
 BYTE   W03
// 027   ----------------------------------------
 BYTE   W01
 BYTE   N03  Gn2
 BYTE   W04
 BYTE   Fs2
 BYTE   W04
 BYTE   N04  Fn2
 BYTE   W06
 BYTE   N66  Ds2
 BYTE   W80
 BYTE   W01
// 028   ----------------------------------------
 BYTE   W66
 BYTE   GoTo
  POIN2 Label_3_01EA47DA
 BYTE   FINE

//**************** Track 5 (Midi-Chn.4) ****************//

KirbySuperStarMetaKnightsthemeRSflame1_005:
// 000   ----------------------------------------
 BYTE   VOL   80*KirbySuperStarMetaKnightsthemeRSflame1_mvl/mxv
 BYTE   KEYSH   KirbySuperStarMetaKnightsthemeRSflame1_key+0
Label_4_01EA6494:
 BYTE   VOICE   117
 BYTE   PAN   c_v+0
 BYTE   N11  Fn2  v116
 BYTE   W12
 BYTE   N03  En1  v080
 BYTE   W04
 BYTE   N05  Cn2  v092
 BYTE   W16
 BYTE   PAN   c_v+43
 BYTE   Fs6
 BYTE   W01
 BYTE   Cn6
 BYTE   W01
 BYTE   Gn5
 BYTE   W01
 BYTE   Dn5
 BYTE   W01
 BYTE   Gs4
 BYTE   W01
 BYTE   Ds4
 BYTE   W01
 BYTE   An3
 BYTE   W01
 BYTE   En3
 BYTE   W01
 BYTE   Bn2
 BYTE   W01
 BYTE   Fn2
 BYTE   W01
 BYTE   Cn2
 BYTE   W01
 BYTE   Gn1
 BYTE   W01
 BYTE   Cs1
 BYTE   W01
 BYTE   Gs0
 BYTE   W01
 BYTE   Dn0
 BYTE   W01
 BYTE   AnM1
 BYTE   W01
 BYTE   En3
 BYTE   N07  Bn2  v080
 BYTE   W08
 BYTE   PAN   c_v+25
 BYTE   N03  Bn1
 BYTE   W04
 BYTE   PAN   c_v-25
 BYTE   N03  En2
 BYTE   W04
 BYTE   PAN   c_v+0
 BYTE   W08
 BYTE   Fn5
 BYTE   N03  Dn2  v072
 BYTE   W04
 BYTE   PAN   c_v-25
 BYTE   N03
 BYTE   W04
 BYTE   PAN   c_v+0
 BYTE   N11  An0  v116
 BYTE   W12
 BYTE   N03  En1  v080
 BYTE   W04
// 001   ----------------------------------------
 BYTE   N05  Cn2  v092
 BYTE   W16
 BYTE   PAN   c_v+43
 BYTE   Fs6
 BYTE   W01
 BYTE   Cn6
 BYTE   W01
 BYTE   Gn5
 BYTE   W01
 BYTE   Dn5
 BYTE   W01
 BYTE   Gs4
 BYTE   W01
 BYTE   Ds4
 BYTE   W01
 BYTE   An3
 BYTE   W01
 BYTE   En3
 BYTE   W01
 BYTE   Bn2
 BYTE   W01
 BYTE   Fn2
 BYTE   W01
 BYTE   Cn2
 BYTE   W01
 BYTE   Gn1
 BYTE   W01
 BYTE   Cs1
 BYTE   W01
 BYTE   Gs0
 BYTE   W01
 BYTE   Dn0
 BYTE   W01
 BYTE   AnM1
 BYTE   W01
 BYTE   En3
 BYTE   N07  Bn2  v080
 BYTE   W08
 BYTE   PAN   c_v+25
 BYTE   N03  Bn1
 BYTE   W04
 BYTE   PAN   c_v-25
 BYTE   N03  En2
 BYTE   W04
 BYTE   PAN   c_v+0
 BYTE   W08
 BYTE   Fn5
 BYTE   N03  Dn2  v072
 BYTE   W04
 BYTE   PAN   c_v-25
 BYTE   N03
 BYTE   W04
 BYTE   PAN   c_v+0
 BYTE   N11  An0  v116
 BYTE   W12
 BYTE   N03  En1  v080
 BYTE   W04
 BYTE   N05  Cn2  v092
 BYTE   W16
// 002   ----------------------------------------
 BYTE   PAN   c_v+43
 BYTE   Fs6
 BYTE   W01
 BYTE   Cn6
 BYTE   W01
 BYTE   Gn5
 BYTE   W01
 BYTE   Dn5
 BYTE   W01
 BYTE   Gs4
 BYTE   W01
 BYTE   Ds4
 BYTE   W01
 BYTE   An3
 BYTE   W01
 BYTE   En3
 BYTE   W01
 BYTE   Bn2
 BYTE   W01
 BYTE   Fn2
 BYTE   W01
 BYTE   Cn2
 BYTE   W01
 BYTE   Gn1
 BYTE   W01
 BYTE   Cs1
 BYTE   W01
 BYTE   Gs0
 BYTE   W01
 BYTE   Dn0
 BYTE   W01
 BYTE   AnM1
 BYTE   W01
 BYTE   En3
 BYTE   N07  Bn2  v080
 BYTE   W08
 BYTE   PAN   c_v+25
 BYTE   N03  Bn1
 BYTE   W04
 BYTE   PAN   c_v-25
 BYTE   N03  En2
 BYTE   W04
 BYTE   PAN   c_v+0
 BYTE   W08
 BYTE   Fn5
 BYTE   N03  Dn2  v072
 BYTE   W04
 BYTE   PAN   c_v-25
 BYTE   N03
 BYTE   W04
 BYTE   PAN   c_v+0
 BYTE   N11  An0  v116
 BYTE   W12
 BYTE   N03  En1  v080
 BYTE   W04
 BYTE   N05  Cn2  v092
 BYTE   W16
 BYTE   PAN   c_v+43
 BYTE   Fs6
 BYTE   W01
 BYTE   Cn6
 BYTE   W01
 BYTE   Gn5
 BYTE   W01
 BYTE   Dn5
 BYTE   W01
 BYTE   Gs4
 BYTE   W01
 BYTE   Ds4
 BYTE   W01
 BYTE   An3
 BYTE   W01
 BYTE   En3
 BYTE   W01
 BYTE   Bn2
 BYTE   W01
 BYTE   Fn2
 BYTE   W01
 BYTE   Cn2
 BYTE   W01
 BYTE   Gn1
 BYTE   W01
 BYTE   Cs1
 BYTE   W01
 BYTE   Gs0
 BYTE   W01
 BYTE   Dn0
 BYTE   W01
 BYTE   AnM1
 BYTE   W01
// 003   ----------------------------------------
 BYTE   En3
 BYTE   N07  Bn2  v080
 BYTE   W08
 BYTE   PAN   c_v+25
 BYTE   N03  Bn1
 BYTE   W04
 BYTE   PAN   c_v-25
 BYTE   N03  En2
 BYTE   W04
 BYTE   PAN   c_v+0
 BYTE   W16
 BYTE   En3
 BYTE   N11  An0  v116
 BYTE   W12
 BYTE   N03  En1  v080
 BYTE   W04
 BYTE   N05  Cn2  v092
 BYTE   W16
 BYTE   PAN   c_v+43
 BYTE   Gs6
 BYTE   W01
 BYTE   Ds6
 BYTE   W01
 BYTE   As5
 BYTE   W01
 BYTE   En5
 BYTE   W01
 BYTE   Bn4
 BYTE   W01
 BYTE   Fn4
 BYTE   W01
 BYTE   Cn4
 BYTE   W01
 BYTE   Gn3
 BYTE   W01
 BYTE   Cs3
 BYTE   W01
 BYTE   Gs2
 BYTE   W01
 BYTE   Ds2
 BYTE   W01
 BYTE   An1
 BYTE   W01
 BYTE   En1
 BYTE   W01
 BYTE   As0
 BYTE   W01
 BYTE   Fn0
 BYTE   W01
 BYTE   Cn0
 BYTE   W01
 BYTE   En3
 BYTE   N07  Bn2  v080
 BYTE   W08
 BYTE   PAN   c_v+25
 BYTE   N03  Bn1
 BYTE   W04
 BYTE   PAN   c_v-25
 BYTE   N03  En2
 BYTE   W04
// 004   ----------------------------------------
 BYTE   PAN   c_v+0
 BYTE   W08
 BYTE   Fn5
 BYTE   N03  Dn2  v072
 BYTE   W04
 BYTE   PAN   c_v-25
 BYTE   N03
 BYTE   W04
 BYTE   PAN   c_v+0
 BYTE   N11  An0  v116
 BYTE   W12
 BYTE   N03  En1  v080
 BYTE   W04
 BYTE   N05  Cn2  v092
 BYTE   W16
 BYTE   PAN   c_v+43
 BYTE   Gs6
 BYTE   W01
 BYTE   Ds6
 BYTE   W01
 BYTE   As5
 BYTE   W01
 BYTE   En5
 BYTE   W01
 BYTE   Bn4
 BYTE   W01
 BYTE   Fn4
 BYTE   W01
 BYTE   Cn4
 BYTE   W01
 BYTE   Gn3
 BYTE   W01
 BYTE   Cs3
 BYTE   W01
 BYTE   Gs2
 BYTE   W01
 BYTE   Ds2
 BYTE   W01
 BYTE   An1
 BYTE   W01
 BYTE   En1
 BYTE   W01
 BYTE   As0
 BYTE   W01
 BYTE   Fn0
 BYTE   W01
 BYTE   Cn0
 BYTE   W01
 BYTE   En3
 BYTE   N07  Bn2  v080
 BYTE   W08
 BYTE   PAN   c_v+25
 BYTE   N03  Bn1
 BYTE   W04
 BYTE   PAN   c_v-25
 BYTE   N03  En2
 BYTE   W04
 BYTE   PAN   c_v+0
 BYTE   W08
 BYTE   Fn5
 BYTE   N03  Dn2  v072
 BYTE   W04
 BYTE   PAN   c_v-25
 BYTE   N03
 BYTE   W04
// 005   ----------------------------------------
 BYTE   PAN   c_v+0
 BYTE   N11  An0  v116
 BYTE   W12
 BYTE   N03  En1  v080
 BYTE   W04
 BYTE   N05  Cn2  v092
 BYTE   W16
 BYTE   PAN   c_v+43
 BYTE   Gs6
 BYTE   W01
 BYTE   Ds6
 BYTE   W01
 BYTE   As5
 BYTE   W01
 BYTE   En5
 BYTE   W01
 BYTE   Bn4
 BYTE   W01
 BYTE   Fn4
 BYTE   W01
 BYTE   Cn4
 BYTE   W01
 BYTE   Gn3
 BYTE   W01
 BYTE   Cs3
 BYTE   W01
 BYTE   Gs2
 BYTE   W01
 BYTE   Ds2
 BYTE   W01
 BYTE   An1
 BYTE   W01
 BYTE   En1
 BYTE   W01
 BYTE   As0
 BYTE   W01
 BYTE   Fn0
 BYTE   W01
 BYTE   Cn0
 BYTE   W01
 BYTE   En3
 BYTE   N07  Bn2  v080
 BYTE   W08
 BYTE   PAN   c_v+25
 BYTE   N03  Bn1
 BYTE   W04
 BYTE   PAN   c_v-25
 BYTE   N03  En2
 BYTE   W04
 BYTE   PAN   c_v+0
 BYTE   W08
 BYTE   Fn5
 BYTE   N03  Dn2  v072
 BYTE   W04
 BYTE   PAN   c_v-25
 BYTE   N03
 BYTE   W04
 BYTE   PAN   c_v+0
 BYTE   N11  An0  v116
 BYTE   W12
 BYTE   N03  En1  v080
 BYTE   W04
// 006   ----------------------------------------
 BYTE   N05  Cn2  v092
 BYTE   W16
 BYTE   PAN   c_v+43
 BYTE   Gs6
 BYTE   W01
 BYTE   Ds6
 BYTE   W01
 BYTE   As5
 BYTE   W01
 BYTE   En5
 BYTE   W01
 BYTE   Bn4
 BYTE   W01
 BYTE   Fn4
 BYTE   W01
 BYTE   Cn4
 BYTE   W01
 BYTE   Gn3
 BYTE   W01
 BYTE   Cs3
 BYTE   W01
 BYTE   Gs2
 BYTE   W01
 BYTE   Ds2
 BYTE   W01
 BYTE   An1
 BYTE   W01
 BYTE   En1
 BYTE   W01
 BYTE   As0
 BYTE   W01
 BYTE   Fn0
 BYTE   W01
 BYTE   Cn0
 BYTE   W01
 BYTE   En3
 BYTE   N07  Bn2  v080
 BYTE   W08
 BYTE   PAN   c_v+25
 BYTE   N03  Bn1
 BYTE   W04
 BYTE   PAN   c_v-25
 BYTE   N03  En2
 BYTE   W04
 BYTE   PAN   c_v+0
 BYTE   W17
 BYTE   En3
 BYTE   N11  An0  v116
 BYTE   W12
 BYTE   N03  En1  v080
 BYTE   W04
 BYTE   N05  Cn2  v092
 BYTE   W15
// 007   ----------------------------------------
 BYTE   W01
 BYTE   PAN   c_v+43
 BYTE   Fs6
 BYTE   W01
 BYTE   Cn6
 BYTE   W01
 BYTE   Gn5
 BYTE   W01
 BYTE   Dn5
 BYTE   W01
 BYTE   Gs4
 BYTE   W01
 BYTE   Ds4
 BYTE   W01
 BYTE   An3
 BYTE   W01
 BYTE   En3
 BYTE   W01
 BYTE   Bn2
 BYTE   W01
 BYTE   Fn2
 BYTE   W01
 BYTE   Cn2
 BYTE   W01
 BYTE   Gn1
 BYTE   W01
 BYTE   Cs1
 BYTE   W01
 BYTE   Gs0
 BYTE   W01
 BYTE   Dn0
 BYTE   W01
 BYTE   AnM1
 BYTE   W01
 BYTE   En3
 BYTE   N07  Bn2  v080
 BYTE   W08
 BYTE   PAN   c_v+25
 BYTE   N03  Bn1
 BYTE   W04
 BYTE   PAN   c_v-25
 BYTE   N03  En2
 BYTE   W04
 BYTE   PAN   c_v+0
 BYTE   W08
 BYTE   Fn5
 BYTE   N03  Dn2  v072
 BYTE   W04
 BYTE   PAN   c_v-25
 BYTE   N03
 BYTE   W04
 BYTE   PAN   c_v+0
 BYTE   N11  An0  v116
 BYTE   W12
 BYTE   N03  En1  v080
 BYTE   W04
 BYTE   N05  Cn2  v092
 BYTE   W16
 BYTE   PAN   c_v+43
 BYTE   Fs6
 BYTE   W01
 BYTE   Cn6
 BYTE   W01
 BYTE   Gn5
 BYTE   W01
 BYTE   Dn5
 BYTE   W01
 BYTE   Gs4
 BYTE   W01
 BYTE   Ds4
 BYTE   W01
 BYTE   An3
 BYTE   W01
 BYTE   En3
 BYTE   W01
 BYTE   Bn2
 BYTE   W01
 BYTE   Fn2
 BYTE   W01
 BYTE   Cn2
 BYTE   W01
 BYTE   Gn1
 BYTE   W01
 BYTE   Cs1
 BYTE   W01
 BYTE   Gs0
 BYTE   W01
 BYTE   Dn0
 BYTE   W01
// 008   ----------------------------------------
 BYTE   AnM1
 BYTE   W01
 BYTE   En3
 BYTE   N07  Bn2  v080
 BYTE   W08
 BYTE   PAN   c_v+25
 BYTE   N03  Bn1
 BYTE   W04
 BYTE   PAN   c_v-25
 BYTE   N03  En2
 BYTE   W04
 BYTE   PAN   c_v+0
 BYTE   W08
 BYTE   Fn5
 BYTE   N03  Dn2  v072
 BYTE   W04
 BYTE   PAN   c_v-25
 BYTE   N03
 BYTE   W04
 BYTE   PAN   c_v+0
 BYTE   N11  An0  v116
 BYTE   W12
 BYTE   N03  En1  v080
 BYTE   W04
 BYTE   N05  Cn2  v092
 BYTE   W16
 BYTE   PAN   c_v+43
 BYTE   Fs6
 BYTE   W01
 BYTE   Cn6
 BYTE   W01
 BYTE   Gn5
 BYTE   W01
 BYTE   Dn5
 BYTE   W01
 BYTE   Gs4
 BYTE   W01
 BYTE   Ds4
 BYTE   W01
 BYTE   An3
 BYTE   W01
 BYTE   En3
 BYTE   W01
 BYTE   Bn2
 BYTE   W01
 BYTE   Fn2
 BYTE   W01
 BYTE   Cn2
 BYTE   W01
 BYTE   Gn1
 BYTE   W01
 BYTE   Cs1
 BYTE   W01
 BYTE   Gs0
 BYTE   W01
 BYTE   Dn0
 BYTE   W01
 BYTE   AnM1
 BYTE   W01
 BYTE   En3
 BYTE   N07  Bn2  v080
 BYTE   W08
 BYTE   PAN   c_v+25
 BYTE   N03  Bn1
 BYTE   W04
 BYTE   PAN   c_v-25
 BYTE   N03  En2
 BYTE   W03
// 009   ----------------------------------------
 BYTE   W01
 BYTE   PAN   c_v+0
 BYTE   W08
 BYTE   Fn5
 BYTE   N03  Dn2  v072
 BYTE   W04
 BYTE   PAN   c_v-25
 BYTE   N03
 BYTE   W04
 BYTE   PAN   c_v+0
 BYTE   N11  An0  v116
 BYTE   W12
 BYTE   N03  En1  v080
 BYTE   W04
 BYTE   N05  Cn2  v092
 BYTE   W16
 BYTE   PAN   c_v+43
 BYTE   Fs6
 BYTE   W01
 BYTE   Cn6
 BYTE   W01
 BYTE   Gn5
 BYTE   W01
 BYTE   Dn5
 BYTE   W01
 BYTE   Gs4
 BYTE   W01
 BYTE   Ds4
 BYTE   W01
 BYTE   An3
 BYTE   W01
 BYTE   En3
 BYTE   W01
 BYTE   Bn2
 BYTE   W01
 BYTE   Fn2
 BYTE   W01
 BYTE   Cn2
 BYTE   W01
 BYTE   Gn1
 BYTE   W01
 BYTE   Cs1
 BYTE   W01
 BYTE   Gs0
 BYTE   W01
 BYTE   Dn0
 BYTE   W01
 BYTE   AnM1
 BYTE   W01
 BYTE   En3
 BYTE   N07  Bn2  v080
 BYTE   W08
 BYTE   PAN   c_v+25
 BYTE   N03  Bn1
 BYTE   W04
 BYTE   PAN   c_v-25
 BYTE   N03  En2
 BYTE   W04
 BYTE   PAN   c_v+0
 BYTE   N07  Cn2  v084
 BYTE   W08
 BYTE   Cn2  v076
 BYTE   W07
// 010   ----------------------------------------
 BYTE   W01
 BYTE   PAN   c_v+0
 BYTE   N11  An0  v108
 BYTE   W12
 BYTE   N03  En1  v080
 BYTE   W04
 BYTE   N05  Cn2  v092
 BYTE   W16
 BYTE   PAN   c_v+43
 BYTE   Gs6
 BYTE   W01
 BYTE   Ds6
 BYTE   W01
 BYTE   As5
 BYTE   W01
 BYTE   En5
 BYTE   W01
 BYTE   Bn4
 BYTE   W01
 BYTE   Fn4
 BYTE   W01
 BYTE   Cn4
 BYTE   W01
 BYTE   Gn3
 BYTE   W01
 BYTE   Cs3
 BYTE   W01
 BYTE   Gs2
 BYTE   W01
 BYTE   Ds2
 BYTE   W01
 BYTE   An1
 BYTE   W01
 BYTE   En1
 BYTE   W01
 BYTE   As0
 BYTE   W01
 BYTE   Fn0
 BYTE   W01
 BYTE   Cn0
 BYTE   W01
 BYTE   En3
 BYTE   N07  Bn2  v080
 BYTE   W08
 BYTE   PAN   c_v+25
 BYTE   N03  Bn1
 BYTE   W04
 BYTE   PAN   c_v-25
 BYTE   N03  En2
 BYTE   W04
 BYTE   PAN   c_v+0
 BYTE   N07  Dn1  v104
 BYTE   W08
 BYTE   PAN   c_v+25
 BYTE   W04
 BYTE   Ds1
 BYTE   W04
 BYTE   En3
 BYTE   N11  An0  v108
 BYTE   W12
 BYTE   N03  En1  v080
 BYTE   W03
// 011   ----------------------------------------
 BYTE   W01
 BYTE   N05  Cn2  v092
 BYTE   W16
 BYTE   PAN   c_v+43
 BYTE   Gs6
 BYTE   W01
 BYTE   Ds6
 BYTE   W01
 BYTE   As5
 BYTE   W01
 BYTE   En5
 BYTE   W01
 BYTE   Bn4
 BYTE   W01
 BYTE   Fn4
 BYTE   W01
 BYTE   Cn4
 BYTE   W01
 BYTE   Gn3
 BYTE   W01
 BYTE   Cs3
 BYTE   W01
 BYTE   Gs2
 BYTE   W01
 BYTE   Ds2
 BYTE   W01
 BYTE   An1
 BYTE   W01
 BYTE   En1
 BYTE   W01
 BYTE   As0
 BYTE   W01
 BYTE   Fn0
 BYTE   W01
 BYTE   Cn0
 BYTE   W01
 BYTE   En3
 BYTE   N07  Bn2  v080
 BYTE   W08
 BYTE   PAN   c_v+25
 BYTE   N03  Bn1
 BYTE   W04
 BYTE   PAN   c_v-25
 BYTE   N03  En2
 BYTE   W04
 BYTE   PAN   c_v+0
 BYTE   N07  Dn1  v104
 BYTE   W08
 BYTE   PAN   c_v+25
 BYTE   W04
 BYTE   Ds1
 BYTE   W04
 BYTE   En3
 BYTE   N11  An0  v108
 BYTE   W12
 BYTE   N03  En1  v080
 BYTE   W04
 BYTE   N05  Cn2  v092
 BYTE   W15
// 012   ----------------------------------------
 BYTE   W01
 BYTE   PAN   c_v+43
 BYTE   Gs6
 BYTE   W01
 BYTE   Ds6
 BYTE   W01
 BYTE   As5
 BYTE   W01
 BYTE   En5
 BYTE   W01
 BYTE   Bn4
 BYTE   W01
 BYTE   Fn4
 BYTE   W01
 BYTE   Cn4
 BYTE   W01
 BYTE   Gn3
 BYTE   W01
 BYTE   Cs3
 BYTE   W01
 BYTE   Gs2
 BYTE   W01
 BYTE   Ds2
 BYTE   W01
 BYTE   An1
 BYTE   W01
 BYTE   En1
 BYTE   W01
 BYTE   As0
 BYTE   W01
 BYTE   Fn0
 BYTE   W01
 BYTE   Cn0
 BYTE   W01
 BYTE   En3
 BYTE   N07  Bn2  v080
 BYTE   W08
 BYTE   PAN   c_v+25
 BYTE   N03  Bn1
 BYTE   W04
 BYTE   PAN   c_v-25
 BYTE   N03  En2
 BYTE   W04
 BYTE   PAN   c_v+0
 BYTE   N07  Dn1  v104
 BYTE   W08
 BYTE   PAN   c_v+25
 BYTE   W04
 BYTE   Ds1
 BYTE   W04
 BYTE   En3
 BYTE   N11  An0  v108
 BYTE   W12
 BYTE   N03  En1  v080
 BYTE   W04
 BYTE   N05  Cn2  v092
 BYTE   W16
 BYTE   PAN   c_v+43
 BYTE   Gs6
 BYTE   W01
 BYTE   Ds6
 BYTE   W01
 BYTE   As5
 BYTE   W01
 BYTE   En5
 BYTE   W01
 BYTE   Bn4
 BYTE   W01
 BYTE   Fn4
 BYTE   W01
 BYTE   Cn4
 BYTE   W01
 BYTE   Gn3
 BYTE   W01
 BYTE   Cs3
 BYTE   W01
 BYTE   Gs2
 BYTE   W01
 BYTE   Ds2
 BYTE   W01
 BYTE   An1
 BYTE   W01
 BYTE   En1
 BYTE   W01
 BYTE   As0
 BYTE   W01
 BYTE   Fn0
 BYTE   W01
// 013   ----------------------------------------
 BYTE   Cn0
 BYTE   W01
 BYTE   En3
 BYTE   N07  Bn2  v080
 BYTE   W08
 BYTE   PAN   c_v+25
 BYTE   N03  Bn1
 BYTE   W04
 BYTE   PAN   c_v-25
 BYTE   N03  En2
 BYTE   W04
 BYTE   PAN   c_v+0
 BYTE   N07  Dn1  v104
 BYTE   W08
 BYTE   PAN   c_v+25
 BYTE   W04
 BYTE   Ds1
 BYTE   W04
 BYTE   En3
 BYTE   N11  An0  v108
 BYTE   W12
 BYTE   N03  En1  v080
 BYTE   W04
 BYTE   N05  Cn2  v092
 BYTE   W16
 BYTE   PAN   c_v+43
 BYTE   Gs6
 BYTE   W01
 BYTE   Ds6
 BYTE   W01
 BYTE   As5
 BYTE   W01
 BYTE   En5
 BYTE   W01
 BYTE   Bn4
 BYTE   W01
 BYTE   Fn4
 BYTE   W01
 BYTE   Cn4
 BYTE   W01
 BYTE   Gn3
 BYTE   W01
 BYTE   Cs3
 BYTE   W01
 BYTE   Gs2
 BYTE   W01
 BYTE   Ds2
 BYTE   W01
 BYTE   An1
 BYTE   W01
 BYTE   En1
 BYTE   W01
 BYTE   As0
 BYTE   W01
 BYTE   Fn0
 BYTE   W01
 BYTE   Cn0
 BYTE   W01
 BYTE   En3
 BYTE   N07  Bn2  v080
 BYTE   W08
 BYTE   PAN   c_v+25
 BYTE   N03  Bn1
 BYTE   W04
 BYTE   PAN   c_v-25
 BYTE   N03  En2
 BYTE   W03
// 014   ----------------------------------------
 BYTE   W01
 BYTE   PAN   c_v+0
 BYTE   N07  Dn1  v104
 BYTE   W08
 BYTE   PAN   c_v+25
 BYTE   W04
 BYTE   Ds1
 BYTE   W04
 BYTE   En3
 BYTE   N11  An0  v108
 BYTE   W12
 BYTE   N03  En1  v080
 BYTE   W04
 BYTE   N05  Cn2  v092
 BYTE   W16
 BYTE   PAN   c_v+43
 BYTE   Gs6
 BYTE   W01
 BYTE   Ds6
 BYTE   W01
 BYTE   As5
 BYTE   W01
 BYTE   En5
 BYTE   W01
 BYTE   Bn4
 BYTE   W01
 BYTE   Fn4
 BYTE   W01
 BYTE   Cn4
 BYTE   W01
 BYTE   Gn3
 BYTE   W01
 BYTE   Cs3
 BYTE   W01
 BYTE   Gs2
 BYTE   W01
 BYTE   Ds2
 BYTE   W01
 BYTE   An1
 BYTE   W01
 BYTE   En1
 BYTE   W01
 BYTE   As0
 BYTE   W01
 BYTE   Fn0
 BYTE   W01
 BYTE   Cn0
 BYTE   W01
 BYTE   En3
 BYTE   N07  Bn2  v080
 BYTE   W08
 BYTE   PAN   c_v+25
 BYTE   N03  Bn1
 BYTE   W04
 BYTE   PAN   c_v-25
 BYTE   N03  En2
 BYTE   W04
 BYTE   PAN   c_v+0
 BYTE   N07  Dn1  v104
 BYTE   W08
 BYTE   PAN   c_v+25
 BYTE   W04
 BYTE   Ds1
 BYTE   W03
// 015   ----------------------------------------
 BYTE   W01
 BYTE   En3
 BYTE   VOL   38*KirbySuperStarMetaKnightsthemeRSflame1_mvl/mxv
 BYTE   W01
 BYTE   Ds1
 BYTE   W01
 BYTE   Ds1
 BYTE   W01
 BYTE   En1
 BYTE   W01
 BYTE   En1
 BYTE   W01
 BYTE   Fn1
 BYTE   W01
 BYTE   Fs1
 BYTE   W01
 BYTE   Fs1
 BYTE   W01
 BYTE   Gn1
 BYTE   W01
 BYTE   Gs1
 BYTE   W01
 BYTE   Gs1
 BYTE   W01
 BYTE   An1
 BYTE   W01
 BYTE   An1
 BYTE   W01
 BYTE   As1
 BYTE   W01
 BYTE   Bn1
 BYTE   W01
 BYTE   Bn1
 BYTE   W01
 BYTE   Cn2
 BYTE   W01
 BYTE   Cs2
 BYTE   W01
 BYTE   Cs2
 BYTE   W01
 BYTE   Dn2
 BYTE   W01
 BYTE   Ds2
 BYTE   W01
 BYTE   En2
 BYTE   W01
 BYTE   En2
 BYTE   W01
 BYTE   Fn2
 BYTE   W01
 BYTE   Fs2
 BYTE   W01
 BYTE   Fs2
 BYTE   W01
 BYTE   Gn2
 BYTE   W01
 BYTE   Gs2
 BYTE   W01
 BYTE   Gs2
 BYTE   W01
 BYTE   An2
 BYTE   W01
 BYTE   An2
 BYTE   W01
 BYTE   As2
 BYTE   W01
 BYTE   Bn2
 BYTE   W01
 BYTE   Bn2
 BYTE   W01
 BYTE   Cn3
 BYTE   W01
 BYTE   Cs3
 BYTE   W01
 BYTE   Cs3
 BYTE   W01
 BYTE   Dn3
 BYTE   W01
 BYTE   Dn3
 BYTE   W01
 BYTE   Ds3
 BYTE   W01
 BYTE   En3
 BYTE   W01
 BYTE   En3
 BYTE   W01
 BYTE   Fn3
 BYTE   W01
 BYTE   Fs3
 BYTE   W01
 BYTE   Gn3
 BYTE   W01
 BYTE   Gs3
 BYTE   W01
 BYTE   Gs3
 BYTE   W01
 BYTE   An3
 BYTE   W01
 BYTE   An3
 BYTE   W01
 BYTE   As3
 BYTE   W01
 BYTE   Bn3
 BYTE   W01
 BYTE   Bn3
 BYTE   W01
 BYTE   Cn4
 BYTE   W01
 BYTE   Cs4
 BYTE   W01
 BYTE   Cs4
 BYTE   W01
 BYTE   Dn4
 BYTE   W01
 BYTE   Dn4
 BYTE   W01
 BYTE   Ds4
 BYTE   W01
 BYTE   En4
 BYTE   W01
 BYTE   En4
 BYTE   W01
 BYTE   Fn4
 BYTE   W01
 BYTE   Fs4
 BYTE   W01
 BYTE   Fs4
 BYTE   W01
 BYTE   Gn4
 BYTE   W01
 BYTE   Gs4
 BYTE   W16
 BYTE   N15  Fn0  v116
 BYTE   W15
// 016   ----------------------------------------
 BYTE   W02
 BYTE   PAN   c_v+0
 BYTE   N11  An0
 BYTE   W12
 BYTE   N03  En1  v080
 BYTE   W04
 BYTE   N05  Cn2  v092
 BYTE   W16
 BYTE   PAN   c_v+43
 BYTE   Fs6
 BYTE   W01
 BYTE   Cn6
 BYTE   W01
 BYTE   Gn5
 BYTE   W01
 BYTE   Dn5
 BYTE   W01
 BYTE   Gs4
 BYTE   W01
 BYTE   Ds4
 BYTE   W01
 BYTE   An3
 BYTE   W01
 BYTE   En3
 BYTE   W01
 BYTE   Bn2
 BYTE   W01
 BYTE   Fn2
 BYTE   W01
 BYTE   Cn2
 BYTE   W01
 BYTE   Gn1
 BYTE   W01
 BYTE   Cs1
 BYTE   W01
 BYTE   Gs0
 BYTE   W01
 BYTE   Dn0
 BYTE   W01
 BYTE   AnM1
 BYTE   W01
 BYTE   En3
 BYTE   N07  Bn2  v080
 BYTE   W08
 BYTE   PAN   c_v+25
 BYTE   N03  Bn1
 BYTE   W04
 BYTE   PAN   c_v-25
 BYTE   N03  En2
 BYTE   W04
 BYTE   PAN   c_v+0
 BYTE   W08
 BYTE   Fn5
 BYTE   N03  Dn2  v072
 BYTE   W04
 BYTE   PAN   c_v-25
 BYTE   N03
 BYTE   W04
 BYTE   PAN   c_v+0
 BYTE   N11  An0  v116
 BYTE   W12
 BYTE   N03  En1  v080
 BYTE   W02
// 017   ----------------------------------------
 BYTE   W02
 BYTE   N05  Cn2  v092
 BYTE   W16
 BYTE   PAN   c_v+43
 BYTE   Fs6
 BYTE   W01
 BYTE   Cn6
 BYTE   W01
 BYTE   Gn5
 BYTE   W01
 BYTE   Dn5
 BYTE   W01
 BYTE   Gs4
 BYTE   W01
 BYTE   Ds4
 BYTE   W01
 BYTE   An3
 BYTE   W01
 BYTE   En3
 BYTE   W01
 BYTE   Bn2
 BYTE   W01
 BYTE   Fn2
 BYTE   W01
 BYTE   Cn2
 BYTE   W01
 BYTE   Gn1
 BYTE   W01
 BYTE   Cs1
 BYTE   W01
 BYTE   Gs0
 BYTE   W01
 BYTE   Dn0
 BYTE   W01
 BYTE   AnM1
 BYTE   W01
 BYTE   En3
 BYTE   N07  Bn2  v080
 BYTE   W08
 BYTE   PAN   c_v+25
 BYTE   N03  Bn1
 BYTE   W04
 BYTE   PAN   c_v-25
 BYTE   N03  En2
 BYTE   W04
 BYTE   PAN   c_v+0
 BYTE   W08
 BYTE   Fn5
 BYTE   N03  Dn2  v072
 BYTE   W04
 BYTE   PAN   c_v-25
 BYTE   N03
 BYTE   W04
 BYTE   PAN   c_v+0
 BYTE   N11  An0  v116
 BYTE   W12
 BYTE   N03  En1  v080
 BYTE   W04
 BYTE   N05  Cn2  v092
 BYTE   W14
// 018   ----------------------------------------
 BYTE   W02
 BYTE   PAN   c_v+43
 BYTE   Fs6
 BYTE   W01
 BYTE   Cn6
 BYTE   W01
 BYTE   Gn5
 BYTE   W01
 BYTE   Dn5
 BYTE   W01
 BYTE   Gs4
 BYTE   W01
 BYTE   Ds4
 BYTE   W01
 BYTE   An3
 BYTE   W01
 BYTE   En3
 BYTE   W01
 BYTE   Bn2
 BYTE   W01
 BYTE   Fn2
 BYTE   W01
 BYTE   Cn2
 BYTE   W01
 BYTE   Gn1
 BYTE   W01
 BYTE   Cs1
 BYTE   W01
 BYTE   Gs0
 BYTE   W01
 BYTE   Dn0
 BYTE   W01
 BYTE   AnM1
 BYTE   W01
 BYTE   En3
 BYTE   N07  Bn2  v080
 BYTE   W08
 BYTE   PAN   c_v+25
 BYTE   N03  Bn1
 BYTE   W04
 BYTE   PAN   c_v-25
 BYTE   N03  En2
 BYTE   W04
 BYTE   PAN   c_v+0
 BYTE   W08
 BYTE   Fn5
 BYTE   N03  Dn2  v072
 BYTE   W04
 BYTE   PAN   c_v-25
 BYTE   N03
 BYTE   W04
 BYTE   PAN   c_v+0
 BYTE   N11  An0  v116
 BYTE   W12
 BYTE   N03  En1  v080
 BYTE   W04
 BYTE   N05  Cn2  v092
 BYTE   W16
 BYTE   PAN   c_v+43
 BYTE   Fs6
 BYTE   W01
 BYTE   Cn6
 BYTE   W01
 BYTE   Gn5
 BYTE   W01
 BYTE   Dn5
 BYTE   W01
 BYTE   Gs4
 BYTE   W01
 BYTE   Ds4
 BYTE   W01
 BYTE   An3
 BYTE   W01
 BYTE   En3
 BYTE   W01
 BYTE   Bn2
 BYTE   W01
 BYTE   Fn2
 BYTE   W01
 BYTE   Cn2
 BYTE   W01
 BYTE   Gn1
 BYTE   W01
 BYTE   Cs1
 BYTE   W01
 BYTE   Gs0
 BYTE   W01
// 019   ----------------------------------------
 BYTE   Dn0
 BYTE   W01
 BYTE   AnM1
 BYTE   W01
 BYTE   En3
 BYTE   N07  Bn2  v080
 BYTE   W08
 BYTE   PAN   c_v+25
 BYTE   N03  Bn1
 BYTE   W04
 BYTE   PAN   c_v-25
 BYTE   N03  En2
 BYTE   W04
 BYTE   PAN   c_v+0
 BYTE   N07  Cn2  v084
 BYTE   W08
 BYTE   Cn2  v076
 BYTE   W08
 BYTE   PAN   c_v+0
 BYTE   N11  An0  v116
 BYTE   W12
 BYTE   N03  En1  v080
 BYTE   W04
 BYTE   N05  Cn2  v092
 BYTE   W16
 BYTE   PAN   c_v+43
 BYTE   Gs6
 BYTE   W01
 BYTE   Ds6
 BYTE   W01
 BYTE   As5
 BYTE   W01
 BYTE   En5
 BYTE   W01
 BYTE   Bn4
 BYTE   W01
 BYTE   Fn4
 BYTE   W01
 BYTE   Cn4
 BYTE   W01
 BYTE   Gn3
 BYTE   W01
 BYTE   Cs3
 BYTE   W01
 BYTE   Gs2
 BYTE   W01
 BYTE   Ds2
 BYTE   W01
 BYTE   An1
 BYTE   W01
 BYTE   En1
 BYTE   W01
 BYTE   As0
 BYTE   W01
 BYTE   Fn0
 BYTE   W01
 BYTE   Cn0
 BYTE   W01
 BYTE   En3
 BYTE   N07  Bn2  v080
 BYTE   W08
 BYTE   PAN   c_v+25
 BYTE   N03  Bn1
 BYTE   W04
 BYTE   PAN   c_v-25
 BYTE   N03  En2
 BYTE   W02
// 020   ----------------------------------------
 BYTE   W02
 BYTE   PAN   c_v+0
 BYTE   W08
 BYTE   Fn5
 BYTE   N03  Dn2  v072
 BYTE   W04
 BYTE   PAN   c_v-25
 BYTE   N03
 BYTE   W04
 BYTE   PAN   c_v+0
 BYTE   N11  An0  v116
 BYTE   W12
 BYTE   N03  En1  v080
 BYTE   W04
 BYTE   N05  Cn2  v092
 BYTE   W16
 BYTE   PAN   c_v+43
 BYTE   Gs6
 BYTE   W01
 BYTE   Ds6
 BYTE   W01
 BYTE   As5
 BYTE   W01
 BYTE   En5
 BYTE   W01
 BYTE   Bn4
 BYTE   W01
 BYTE   Fn4
 BYTE   W01
 BYTE   Cn4
 BYTE   W01
 BYTE   Gn3
 BYTE   W01
 BYTE   Cs3
 BYTE   W01
 BYTE   Gs2
 BYTE   W01
 BYTE   Ds2
 BYTE   W01
 BYTE   An1
 BYTE   W01
 BYTE   En1
 BYTE   W01
 BYTE   As0
 BYTE   W01
 BYTE   Fn0
 BYTE   W01
 BYTE   Cn0
 BYTE   W01
 BYTE   En3
 BYTE   N07  Bn2  v080
 BYTE   W08
 BYTE   PAN   c_v+25
 BYTE   N03  Bn1
 BYTE   W04
 BYTE   PAN   c_v-25
 BYTE   N03  En2
 BYTE   W04
 BYTE   PAN   c_v+0
 BYTE   W08
 BYTE   Fn5
 BYTE   N03  Dn2  v072
 BYTE   W04
 BYTE   PAN   c_v-25
 BYTE   N03
 BYTE   W02
// 021   ----------------------------------------
 BYTE   W02
 BYTE   PAN   c_v+0
 BYTE   N11  An0  v116
 BYTE   W12
 BYTE   N03  En1  v080
 BYTE   W04
 BYTE   N05  Cn2  v092
 BYTE   W16
 BYTE   PAN   c_v+43
 BYTE   Gs6
 BYTE   W01
 BYTE   Ds6
 BYTE   W01
 BYTE   As5
 BYTE   W01
 BYTE   En5
 BYTE   W01
 BYTE   Bn4
 BYTE   W01
 BYTE   Fn4
 BYTE   W01
 BYTE   Cn4
 BYTE   W01
 BYTE   Gn3
 BYTE   W01
 BYTE   Cs3
 BYTE   W01
 BYTE   Gs2
 BYTE   W01
 BYTE   Ds2
 BYTE   W01
 BYTE   An1
 BYTE   W01
 BYTE   En1
 BYTE   W01
 BYTE   As0
 BYTE   W01
 BYTE   Fn0
 BYTE   W01
 BYTE   Cn0
 BYTE   W01
 BYTE   En3
 BYTE   N07  Bn2  v080
 BYTE   W08
 BYTE   PAN   c_v+25
 BYTE   N03  Bn1
 BYTE   W04
 BYTE   PAN   c_v-25
 BYTE   N03  En2
 BYTE   W04
 BYTE   PAN   c_v+0
 BYTE   W08
 BYTE   Fn5
 BYTE   N03  Dn2  v072
 BYTE   W04
 BYTE   PAN   c_v-25
 BYTE   N03
 BYTE   W04
 BYTE   PAN   c_v+0
 BYTE   N11  An0  v116
 BYTE   W12
 BYTE   N03  En1  v080
 BYTE   W02
// 022   ----------------------------------------
 BYTE   W02
 BYTE   N05  Cn2  v092
 BYTE   W16
 BYTE   PAN   c_v+43
 BYTE   Gs6
 BYTE   W01
 BYTE   Ds6
 BYTE   W01
 BYTE   As5
 BYTE   W01
 BYTE   En5
 BYTE   W01
 BYTE   Bn4
 BYTE   W01
 BYTE   Fn4
 BYTE   W01
 BYTE   Cn4
 BYTE   W01
 BYTE   Gn3
 BYTE   W01
 BYTE   Cs3
 BYTE   W01
 BYTE   Gs2
 BYTE   W01
 BYTE   Ds2
 BYTE   W01
 BYTE   An1
 BYTE   W01
 BYTE   En1
 BYTE   W01
 BYTE   As0
 BYTE   W01
 BYTE   Fn0
 BYTE   W01
 BYTE   Cn0
 BYTE   W01
 BYTE   En3
 BYTE   N07  Bn2  v080
 BYTE   W08
 BYTE   PAN   c_v+25
 BYTE   N03  Bn1
 BYTE   W04
 BYTE   PAN   c_v-25
 BYTE   N03  En2
 BYTE   W04
 BYTE   PAN   c_v+0
 BYTE   W08
 BYTE   Fn5
 BYTE   N03  Dn2  v072
 BYTE   W04
 BYTE   PAN   c_v-25
 BYTE   N03
 BYTE   W04
 BYTE   PAN   c_v+0
 BYTE   N11  An0  v116
 BYTE   W12
 BYTE   N03  En1  v080
 BYTE   W04
 BYTE   N05  Cn2  v092
 BYTE   W14
// 023   ----------------------------------------
 BYTE   W02
 BYTE   PAN   c_v+43
 BYTE   Gs6
 BYTE   W01
 BYTE   Ds6
 BYTE   W01
 BYTE   As5
 BYTE   W01
 BYTE   En5
 BYTE   W01
 BYTE   Bn4
 BYTE   W01
 BYTE   Fn4
 BYTE   W01
 BYTE   Cn4
 BYTE   W01
 BYTE   Gn3
 BYTE   W01
 BYTE   Cs3
 BYTE   W01
 BYTE   Gs2
 BYTE   W01
 BYTE   Ds2
 BYTE   W01
 BYTE   An1
 BYTE   W01
 BYTE   En1
 BYTE   W01
 BYTE   As0
 BYTE   W01
 BYTE   Fn0
 BYTE   W01
 BYTE   Cn0
 BYTE   W01
 BYTE   En3
 BYTE   N07  Bn2  v080
 BYTE   W08
 BYTE   PAN   c_v+25
 BYTE   N03  Bn1
 BYTE   W04
 BYTE   PAN   c_v-25
 BYTE   N03  En2
 BYTE   W04
 BYTE   PAN   c_v+0
 BYTE   W08
 BYTE   Fn5
 BYTE   N03  Dn2  v072
 BYTE   W04
 BYTE   PAN   c_v-25
 BYTE   N03
 BYTE   W04
 BYTE   PAN   c_v+0
 BYTE   N11  An0  v116
 BYTE   W12
 BYTE   N03  En1  v080
 BYTE   W04
 BYTE   N05  Cn2  v092
 BYTE   W16
 BYTE   PAN   c_v+43
 BYTE   Gs6
 BYTE   W01
 BYTE   Ds6
 BYTE   W01
 BYTE   As5
 BYTE   W01
 BYTE   En5
 BYTE   W01
 BYTE   Bn4
 BYTE   W01
 BYTE   Fn4
 BYTE   W01
 BYTE   Cn4
 BYTE   W01
 BYTE   Gn3
 BYTE   W01
 BYTE   Cs3
 BYTE   W01
 BYTE   Gs2
 BYTE   W01
 BYTE   Ds2
 BYTE   W01
 BYTE   An1
 BYTE   W01
 BYTE   En1
 BYTE   W01
 BYTE   As0
 BYTE   W01
// 024   ----------------------------------------
 BYTE   Fn0
 BYTE   W01
 BYTE   Cn0
 BYTE   W01
 BYTE   En3
 BYTE   N07  Bn2  v080
 BYTE   W08
 BYTE   PAN   c_v+25
 BYTE   N03  Bn1
 BYTE   W04
 BYTE   PAN   c_v-25
 BYTE   N03  En2
 BYTE   W04
 BYTE   PAN   c_v+0
 BYTE   W08
 BYTE   Fn5
 BYTE   N03  Dn2  v072
 BYTE   W04
 BYTE   PAN   c_v-25
 BYTE   N03
 BYTE   W04
 BYTE   PAN   c_v+0
 BYTE   N11  An0  v116
 BYTE   W12
 BYTE   N03  En1  v080
 BYTE   W04
 BYTE   N05  Cn2  v092
 BYTE   W16
 BYTE   PAN   c_v+43
 BYTE   Gs6
 BYTE   W01
 BYTE   Ds6
 BYTE   W01
 BYTE   As5
 BYTE   W01
 BYTE   En5
 BYTE   W01
 BYTE   Bn4
 BYTE   W01
 BYTE   Fn4
 BYTE   W01
 BYTE   Cn4
 BYTE   W01
 BYTE   Gn3
 BYTE   W01
 BYTE   Cs3
 BYTE   W01
 BYTE   Gs2
 BYTE   W01
 BYTE   Ds2
 BYTE   W01
 BYTE   An1
 BYTE   W01
 BYTE   En1
 BYTE   W01
 BYTE   As0
 BYTE   W01
 BYTE   Fn0
 BYTE   W01
 BYTE   Cn0
 BYTE   W01
 BYTE   En3
 BYTE   N07  Bn2  v080
 BYTE   W08
 BYTE   PAN   c_v+25
 BYTE   N03  Bn1
 BYTE   W04
 BYTE   PAN   c_v-25
 BYTE   N03  En2
 BYTE   W02
// 025   ----------------------------------------
 BYTE   W02
 BYTE   PAN   c_v+0
 BYTE   W08
 BYTE   Fn5
 BYTE   N03  Dn2  v072
 BYTE   W04
 BYTE   PAN   c_v-25
 BYTE   N03
 BYTE   W04
 BYTE   PAN   c_v+0
 BYTE   N11  An0  v116
 BYTE   W12
 BYTE   N03  En1  v080
 BYTE   W04
 BYTE   N05  Cn2  v092
 BYTE   W16
 BYTE   PAN   c_v+43
 BYTE   Gs6
 BYTE   W01
 BYTE   Ds6
 BYTE   W01
 BYTE   As5
 BYTE   W01
 BYTE   En5
 BYTE   W01
 BYTE   Bn4
 BYTE   W01
 BYTE   Fn4
 BYTE   W01
 BYTE   Cn4
 BYTE   W01
 BYTE   Gn3
 BYTE   W01
 BYTE   Cs3
 BYTE   W01
 BYTE   Gs2
 BYTE   W01
 BYTE   Ds2
 BYTE   W01
 BYTE   An1
 BYTE   W01
 BYTE   En1
 BYTE   W01
 BYTE   As0
 BYTE   W01
 BYTE   Fn0
 BYTE   W01
 BYTE   Cn0
 BYTE   W01
 BYTE   En3
 BYTE   N07  Bn2  v080
 BYTE   W08
 BYTE   PAN   c_v+25
 BYTE   N03  Bn1
 BYTE   W04
 BYTE   PAN   c_v-25
 BYTE   N03  En2
 BYTE   W04
 BYTE   PAN   c_v+0
 BYTE   W14
// 026   ----------------------------------------
 BYTE   W03
 BYTE   N78  BnM1  v127
 BYTE   W80
 BYTE   VOL   38*KirbySuperStarMetaKnightsthemeRSflame1_mvl/mxv
 BYTE   W02
 BYTE   Ds1
 BYTE   W01
 BYTE   Ds1
 BYTE   W01
 BYTE   En1
 BYTE   W02
 BYTE   En1
 BYTE   W01
 BYTE   Fn1
 BYTE   W01
 BYTE   Fs1
 BYTE   W02
 BYTE   Fs1
 BYTE   W01
 BYTE   Gn1
 BYTE   W01
 BYTE   Gs1
 BYTE   W01
// 027   ----------------------------------------
 BYTE   W01
 BYTE   Gs1
 BYTE   W01
 BYTE   An1
 BYTE   W01
 BYTE   An1
 BYTE   W02
 BYTE   As1
 BYTE   W01
 BYTE   Bn1
 BYTE   W01
 BYTE   Bn1
 BYTE   W02
 BYTE   Cn2
 BYTE   W01
 BYTE   Cs2
 BYTE   W01
 BYTE   Cs2
 BYTE   W02
 BYTE   Dn2
 BYTE   W01
 BYTE   Ds2
 BYTE   W01
 BYTE   Ds2
 BYTE   W02
 BYTE   En2
 BYTE   W01
 BYTE   En2
 BYTE   W01
 BYTE   Fn2
 BYTE   W02
 BYTE   Fs2
 BYTE   W01
 BYTE   Fs2
 BYTE   W01
 BYTE   Gn2
 BYTE   W02
 BYTE   Gs2
 BYTE   W01
 BYTE   Gs2
 BYTE   W01
 BYTE   An2
 BYTE   W02
 BYTE   An2
 BYTE   W01
 BYTE   As2
 BYTE   W01
 BYTE   Bn2
 BYTE   W02
 BYTE   Bn2
 BYTE   W01
 BYTE   Cn3
 BYTE   W02
 BYTE   Cs3
 BYTE   W01
 BYTE   Cs3
 BYTE   W01
 BYTE   Dn3
 BYTE   W02
 BYTE   Dn3
 BYTE   W01
 BYTE   Ds3
 BYTE   W01
 BYTE   En3
 BYTE   W02
 BYTE   En3
 BYTE   W01
 BYTE   Fn3
 BYTE   W01
 BYTE   Fs3
 BYTE   W02
 BYTE   Fs3
 BYTE   W01
 BYTE   Gn3
 BYTE   W01
 BYTE   Gs3
 BYTE   W02
 BYTE   Gs3
 BYTE   W01
 BYTE   An3
 BYTE   W01
 BYTE   An3
 BYTE   W02
 BYTE   As3
 BYTE   W01
 BYTE   Bn3
 BYTE   W01
 BYTE   Bn3
 BYTE   W02
 BYTE   Cn4
 BYTE   W01
 BYTE   Cs4
 BYTE   W01
 BYTE   Cs4
 BYTE   W02
 BYTE   Dn4
 BYTE   W01
 BYTE   Dn4
 BYTE   W01
 BYTE   Ds4
 BYTE   W02
 BYTE   En4
 BYTE   W01
 BYTE   En4
 BYTE   W01
 BYTE   Fn4
 BYTE   W02
 BYTE   Fs4
 BYTE   W01
 BYTE   Fs4
 BYTE   W01
 BYTE   Gn4
 BYTE   W02
 BYTE   Gs4
 BYTE   W20
// 028   ----------------------------------------
 BYTE   W66
 BYTE   GoTo
  POIN2 Label_4_01EA6494
 BYTE   FINE

//**************** Track 6 (Midi-Chn.5) ****************//

KirbySuperStarMetaKnightsthemeRSflame1_006:
// 000   ----------------------------------------
 BYTE   KEYSH   KirbySuperStarMetaKnightsthemeRSflame1_key+0
Label_5_01EA587E:
 BYTE   VOICE   127
 BYTE   VOL   47*KirbySuperStarMetaKnightsthemeRSflame1_mvl/mxv
 BYTE   W01
 BYTE   N03  Cn1  v092
 BYTE   W04
 BYTE   Cn1  v064
 BYTE   W04
 BYTE   Cn1  v076
 BYTE   W04
 BYTE   Cn1  v064
 BYTE   W04
 BYTE   Cn1  v092
 BYTE   W04
 BYTE   Cn1  v064
 BYTE   W04
 BYTE   Cn1  v076
 BYTE   W04
 BYTE   Cn1  v064
 BYTE   W04
 BYTE   Cn1  v092
 BYTE   W04
 BYTE   Cn1  v064
 BYTE   W04
 BYTE   Cn1  v076
 BYTE   W04
 BYTE   Cn1  v064
 BYTE   W04
 BYTE   Cn1  v092
 BYTE   W04
 BYTE   Cn1  v064
 BYTE   W04
 BYTE   Cn1  v076
 BYTE   W04
 BYTE   Cn1  v064
 BYTE   W04
 BYTE   Cn1  v092
 BYTE   W04
 BYTE   Cn1  v064
 BYTE   W04
 BYTE   Cn1  v076
 BYTE   W04
 BYTE   Cn1  v064
 BYTE   W19
// 001   ----------------------------------------
 BYTE   W08
 BYTE   Cn1  v056
 BYTE   W04
 BYTE   Cn1  v044
 BYTE   W04
 BYTE   Cn1  v056
 BYTE   W04
 BYTE   Cn1  v064
 BYTE   W04
 BYTE   Cn1  v072
 BYTE   W04
 BYTE   Cn1  v076
 BYTE   W20
 BYTE   N07  En1  v080
 BYTE   W40
 BYTE   N03  Cn1  v056
 BYTE   W04
 BYTE   Cn1  v044
 BYTE   W04
// 002   ----------------------------------------
 BYTE   Cn1  v056
 BYTE   W04
 BYTE   Cn1  v064
 BYTE   W04
 BYTE   Cn1  v072
 BYTE   W04
 BYTE   Cn1  v076
 BYTE   W20
 BYTE   N07  En1  v080
 BYTE   W40
 BYTE   N03  Cn1  v056
 BYTE   W04
 BYTE   Cn1  v044
 BYTE   W04
 BYTE   Cn1  v056
 BYTE   W04
 BYTE   Cn1  v064
 BYTE   W04
 BYTE   Cn1  v072
 BYTE   W04
 BYTE   Cn1  v076
 BYTE   W04
// 003   ----------------------------------------
 BYTE   W16
 BYTE   N07  En1  v080
 BYTE   W40
 BYTE   N03  Cn1  v056
 BYTE   W04
 BYTE   Cn1  v044
 BYTE   W04
 BYTE   Cn1  v056
 BYTE   W04
 BYTE   Cn1  v064
 BYTE   W04
 BYTE   Cn1  v072
 BYTE   W04
 BYTE   Cn1  v076
 BYTE   W20
// 004   ----------------------------------------
 BYTE   N07  En1  v080
 BYTE   W08
 BYTE   En1  v072
 BYTE   W32
 BYTE   W01
 BYTE   N03  Cn1  v056
 BYTE   W04
 BYTE   Cn1  v044
 BYTE   W04
 BYTE   Cn1  v056
 BYTE   W04
 BYTE   Cn1  v064
 BYTE   W04
 BYTE   Cn1  v072
 BYTE   W04
 BYTE   Cn1  v076
 BYTE   W20
 BYTE   N07  En1  v080
 BYTE   W15
// 005   ----------------------------------------
 BYTE   W24
 BYTE   W01
 BYTE   N03  Cn1  v056
 BYTE   W04
 BYTE   Cn1  v044
 BYTE   W04
 BYTE   Cn1  v056
 BYTE   W04
 BYTE   Cn1  v064
 BYTE   W04
 BYTE   Cn1  v072
 BYTE   W04
 BYTE   Cn1  v076
 BYTE   W20
 BYTE   N07  En1  v080
 BYTE   W30
 BYTE   W01
// 006   ----------------------------------------
 BYTE   W09
 BYTE   N03  Cn1  v056
 BYTE   W04
 BYTE   Cn1  v044
 BYTE   W04
 BYTE   Cn1  v056
 BYTE   W04
 BYTE   Cn1  v064
 BYTE   W04
 BYTE   Cn1  v072
 BYTE   W04
 BYTE   Cn1  v076
 BYTE   W20
 BYTE   N07  En1  v080
 BYTE   W40
 BYTE   N03  Cn1  v056
 BYTE   W04
 BYTE   Cn1  v044
 BYTE   W03
// 007   ----------------------------------------
 BYTE   W01
 BYTE   Cn1  v056
 BYTE   W04
 BYTE   Cn1  v064
 BYTE   W04
 BYTE   Cn1  v072
 BYTE   W04
 BYTE   Cn1  v076
 BYTE   W20
 BYTE   En1  v092
 BYTE   W04
 BYTE   En1  v080
 BYTE   W04
 BYTE   N03
 BYTE   W04
 BYTE   En1  v092
 BYTE   W28
 BYTE   Cn1  v056
 BYTE   W04
 BYTE   Cn1  v044
 BYTE   W04
 BYTE   Cn1  v056
 BYTE   W04
 BYTE   Cn1  v064
 BYTE   W04
 BYTE   Cn1  v072
 BYTE   W04
 BYTE   Cn1  v076
 BYTE   W03
// 008   ----------------------------------------
 BYTE   W17
 BYTE   N07  En1  v080
 BYTE   W40
 BYTE   N03  Cn1  v056
 BYTE   W04
 BYTE   Cn1  v044
 BYTE   W04
 BYTE   Cn1  v056
 BYTE   W04
 BYTE   Cn1  v064
 BYTE   W04
 BYTE   Cn1  v072
 BYTE   W04
 BYTE   Cn1  v076
 BYTE   W19
// 009   ----------------------------------------
 BYTE   W01
 BYTE   N07  En1  v080
 BYTE   W40
 BYTE   N03  Cn1  v056
 BYTE   W04
 BYTE   Cn1  v044
 BYTE   W04
 BYTE   Cn1  v056
 BYTE   W04
 BYTE   Cn1  v064
 BYTE   W04
 BYTE   Cn1  v072
 BYTE   W04
 BYTE   Cn1  v076
 BYTE   W20
 BYTE   N07  En1  v080
 BYTE   W15
// 010   ----------------------------------------
 BYTE   W24
 BYTE   W01
 BYTE   N03  Cn1  v056
 BYTE   W04
 BYTE   Cn1  v044
 BYTE   W04
 BYTE   Cn1  v056
 BYTE   W04
 BYTE   Cn1  v064
 BYTE   W04
 BYTE   Cn1  v072
 BYTE   W04
 BYTE   Cn1  v076
 BYTE   W48
 BYTE   W03
// 011   ----------------------------------------
 BYTE   W10
 BYTE   An0  v056
 BYTE   W04
 BYTE   An0  v044
 BYTE   W04
 BYTE   An0  v056
 BYTE   W04
 BYTE   An0  v064
 BYTE   W04
 BYTE   An0  v072
 BYTE   W04
 BYTE   An0  v076
 BYTE   W28
 BYTE   An0  v072
 BYTE   W04
 BYTE   N03
 BYTE   W28
 BYTE   An0  v056
 BYTE   W04
 BYTE   An0  v044
 BYTE   W02
// 012   ----------------------------------------
 BYTE   W02
 BYTE   An0  v056
 BYTE   W04
 BYTE   An0  v064
 BYTE   W04
 BYTE   An0  v072
 BYTE   W04
 BYTE   An0  v076
 BYTE   W28
 BYTE   An0  v072
 BYTE   W04
 BYTE   N03
 BYTE   W28
 BYTE   An0  v056
 BYTE   W04
 BYTE   An0  v044
 BYTE   W04
 BYTE   An0  v056
 BYTE   W04
 BYTE   An0  v064
 BYTE   W04
 BYTE   An0  v072
 BYTE   W04
 BYTE   An0  v076
 BYTE   W02
// 013   ----------------------------------------
 BYTE   W24
 BYTE   W02
 BYTE   An0  v072
 BYTE   W04
 BYTE   N03
 BYTE   W28
 BYTE   An0  v056
 BYTE   W04
 BYTE   An0  v044
 BYTE   W04
 BYTE   An0  v056
 BYTE   W04
 BYTE   An0  v064
 BYTE   W04
 BYTE   An0  v072
 BYTE   W04
 BYTE   An0  v076
 BYTE   W18
// 014   ----------------------------------------
 BYTE   W10
 BYTE   An0  v072
 BYTE   W04
 BYTE   N03
 BYTE   W28
 BYTE   An0  v056
 BYTE   W04
 BYTE   An0  v044
 BYTE   W04
 BYTE   An0  v056
 BYTE   W04
 BYTE   An0  v064
 BYTE   W04
 BYTE   An0  v072
 BYTE   W04
 BYTE   An0  v076
 BYTE   W28
 BYTE   An0  v072
 BYTE   W04
 BYTE   N03
 BYTE   W02
// 015   ----------------------------------------
 BYTE   W24
 BYTE   W02
 BYTE   An0  v056
 BYTE   W04
 BYTE   An0  v044
 BYTE   W04
 BYTE   An0  v056
 BYTE   W04
 BYTE   An0  v064
 BYTE   W04
 BYTE   An0  v072
 BYTE   W04
 BYTE   An0  v076
 BYTE   W28
 BYTE   An0  v072
 BYTE   W04
 BYTE   N03
 BYTE   W04
 BYTE   En1  v092
 BYTE   W04
 BYTE   En1  v064
 BYTE   W04
 BYTE   En1  v076
 BYTE   W04
 BYTE   En1  v064
 BYTE   W02
// 016   ----------------------------------------
 BYTE   W02
 BYTE   En1  v092
 BYTE   W04
 BYTE   En1  v064
 BYTE   W04
 BYTE   En1  v076
 BYTE   W04
 BYTE   En1  v064
 BYTE   W04
 BYTE   En1  v092
 BYTE   W04
 BYTE   En1  v064
 BYTE   W04
 BYTE   En1  v076
 BYTE   W04
 BYTE   En1  v064
 BYTE   W04
 BYTE   En1  v092
 BYTE   W04
 BYTE   En1  v064
 BYTE   W04
 BYTE   En1  v076
 BYTE   W04
 BYTE   En1  v064
 BYTE   W04
 BYTE   En1  v092
 BYTE   W04
 BYTE   En1  v064
 BYTE   W04
 BYTE   En1  v076
 BYTE   W04
 BYTE   En1  v064
 BYTE   W32
 BYTE   W02
// 017   ----------------------------------------
 BYTE   W10
 BYTE   Cn1  v056
 BYTE   W04
 BYTE   Cn1  v044
 BYTE   W04
 BYTE   Cn1  v056
 BYTE   W04
 BYTE   Cn1  v064
 BYTE   W04
 BYTE   Cn1  v072
 BYTE   W04
 BYTE   Cn1  v076
 BYTE   W20
 BYTE   N07  En1  v080
 BYTE   W40
 BYTE   N03  Cn1  v056
 BYTE   W04
 BYTE   Cn1  v044
 BYTE   W02
// 018   ----------------------------------------
 BYTE   W02
 BYTE   Cn1  v056
 BYTE   W04
 BYTE   Cn1  v064
 BYTE   W04
 BYTE   Cn1  v072
 BYTE   W04
 BYTE   Cn1  v076
 BYTE   W20
 BYTE   N07  En1  v080
 BYTE   W40
 BYTE   N03  Cn1  v056
 BYTE   W04
 BYTE   Cn1  v044
 BYTE   W04
 BYTE   Cn1  v056
 BYTE   W04
 BYTE   Cn1  v064
 BYTE   W04
 BYTE   Cn1  v072
 BYTE   W04
 BYTE   Cn1  v076
 BYTE   W02
// 019   ----------------------------------------
 BYTE   W18
 BYTE   N07  En1  v080
 BYTE   W40
 BYTE   N03  Cn1  v056
 BYTE   W04
 BYTE   Cn1  v044
 BYTE   W04
 BYTE   Cn1  v056
 BYTE   W04
 BYTE   Cn1  v064
 BYTE   W04
 BYTE   Cn1  v072
 BYTE   W04
 BYTE   Cn1  v076
 BYTE   W18
// 020   ----------------------------------------
 BYTE   W42
 BYTE   W01
 BYTE   Cn1  v056
 BYTE   W04
 BYTE   Cn1  v044
 BYTE   W04
 BYTE   Cn1  v056
 BYTE   W04
 BYTE   Cn1  v064
 BYTE   W04
 BYTE   Cn1  v072
 BYTE   W04
 BYTE   Cn1  v076
 BYTE   W20
 BYTE   N07  En1  v080
 BYTE   W13
// 021   ----------------------------------------
 BYTE   W24
 BYTE   W03
 BYTE   N03  Cn1  v056
 BYTE   W04
 BYTE   Cn1  v044
 BYTE   W04
 BYTE   Cn1  v056
 BYTE   W04
 BYTE   Cn1  v064
 BYTE   W04
 BYTE   Cn1  v072
 BYTE   W04
 BYTE   Cn1  v076
 BYTE   W20
 BYTE   N07  En1  v080
 BYTE   W28
 BYTE   W01
// 022   ----------------------------------------
 BYTE   W11
 BYTE   N03  Cn1  v056
 BYTE   W04
 BYTE   Cn1  v044
 BYTE   W04
 BYTE   Cn1  v056
 BYTE   W04
 BYTE   Cn1  v064
 BYTE   W04
 BYTE   Cn1  v072
 BYTE   W04
 BYTE   Cn1  v076
 BYTE   W20
 BYTE   N07  En1  v080
 BYTE   W40
 BYTE   N03  Cn1  v056
 BYTE   W04
 BYTE   Cn1  v044
 BYTE   W01
// 023   ----------------------------------------
 BYTE   W03
 BYTE   Cn1  v056
 BYTE   W04
 BYTE   Cn1  v064
 BYTE   W04
 BYTE   Cn1  v072
 BYTE   W04
 BYTE   Cn1  v076
 BYTE   W20
 BYTE   N07  En1  v080
 BYTE   W40
 BYTE   N03  Cn1  v056
 BYTE   W04
 BYTE   Cn1  v044
 BYTE   W04
 BYTE   Cn1  v056
 BYTE   W04
 BYTE   Cn1  v064
 BYTE   W04
 BYTE   Cn1  v072
 BYTE   W04
 BYTE   Cn1  v076
 BYTE   W01
// 024   ----------------------------------------
 BYTE   W19
 BYTE   N07  En1  v080
 BYTE   W40
 BYTE   N03  Cn1  v056
 BYTE   W04
 BYTE   Cn1  v044
 BYTE   W04
 BYTE   Cn1  v056
 BYTE   W04
 BYTE   Cn1  v064
 BYTE   W04
 BYTE   Cn1  v072
 BYTE   W04
 BYTE   Cn1  v076
 BYTE   W17
// 025   ----------------------------------------
 BYTE   W03
 BYTE   N07  En1  v080
 BYTE   W40
 BYTE   N03  Cn1  v056
 BYTE   W04
 BYTE   Cn1  v044
 BYTE   W04
 BYTE   Cn1  v056
 BYTE   W04
 BYTE   Cn1  v064
 BYTE   W04
 BYTE   Cn1  v072
 BYTE   W04
 BYTE   Cn1  v076
 BYTE   W20
 BYTE   N07  En1  v080
 BYTE   W13
// 026   ----------------------------------------
 BYTE   W24
 BYTE   W03
 BYTE   N03  Cn1  v056
 BYTE   W04
 BYTE   Cn1  v044
 BYTE   W04
 BYTE   Cn1  v056
 BYTE   W04
 BYTE   Cn1  v064
 BYTE   W04
 BYTE   Cn1  v072
 BYTE   W04
 BYTE   Cn1  v076
 BYTE   W20
 BYTE   En1  v092
 BYTE   W04
 BYTE   En1  v080
 BYTE   W04
 BYTE   N03
 BYTE   W04
 BYTE   En1  v092
 BYTE   W17
// 027   ----------------------------------------
 BYTE   W66
 BYTE   W01
 BYTE   Cn1
 BYTE   W04
 BYTE   Cn1  v064
 BYTE   W04
 BYTE   Cn1  v076
 BYTE   W04
 BYTE   Cn1  v064
 BYTE   W04
 BYTE   Cn1  v092
 BYTE   W04
 BYTE   Cn1  v064
 BYTE   W04
 BYTE   Cn1  v076
 BYTE   W04
 BYTE   Cn1  v064
 BYTE   W01
// 028   ----------------------------------------
 BYTE   W03
 BYTE   Cn1  v092
 BYTE   W04
 BYTE   Cn1  v064
 BYTE   W04
 BYTE   Cn1  v076
 BYTE   W04
 BYTE   Cn1  v064
 BYTE   W04
 BYTE   Cn1  v092
 BYTE   W04
 BYTE   Cn1  v064
 BYTE   W04
 BYTE   Cn1  v076
 BYTE   W04
 BYTE   Cn1  v064
 BYTE   W04
 BYTE   Cn1  v092
 BYTE   W04
 BYTE   Cn1  v064
 BYTE   W04
 BYTE   Cn1  v076
 BYTE   W04
 BYTE   Cn1  v064
 BYTE   W04
 BYTE   Cn1  v092
 BYTE   W04
 BYTE   Cn1  v064
 BYTE   W04
 BYTE   Cn1  v076
 BYTE   W04
 BYTE   Cn1  v064
 BYTE   W03
 BYTE   GoTo
  POIN2 Label_5_01EA587E
 BYTE   FINE

//******************************************************//
	ALIGN 4

KirbySuperStarMetaKnightsthemeRSflame1:
	BYTE	6	// NumTrks
	BYTE	0	// NumBlks
	BYTE	KirbySuperStarMetaKnightsthemeRSflame1_pri	// Priority
	BYTE	KirbySuperStarMetaKnightsthemeRSflame1_rev	// Reverb.
    
	POIN2	KirbySuperStarMetaKnightsthemeRSflame1_grp
    
	POIN2	KirbySuperStarMetaKnightsthemeRSflame1_001
	POIN2	KirbySuperStarMetaKnightsthemeRSflame1_002
	POIN2	KirbySuperStarMetaKnightsthemeRSflame1_003
	POIN2	KirbySuperStarMetaKnightsthemeRSflame1_004
	POIN2	KirbySuperStarMetaKnightsthemeRSflame1_005
	POIN2	KirbySuperStarMetaKnightsthemeRSflame1_006

	
