//Event file generated from Sappy .s format.
	#include "MPlayDef.event"

	#define	KirbyandtheAmazingMirrorDarkMindPhase2MeatOfJustice_grp  voicegroup000
	#define	KirbyandtheAmazingMirrorDarkMindPhase2MeatOfJustice_pri  10
	#define	KirbyandtheAmazingMirrorDarkMindPhase2MeatOfJustice_rev  0
	#define	KirbyandtheAmazingMirrorDarkMindPhase2MeatOfJustice_mvl  127
	#define	KirbyandtheAmazingMirrorDarkMindPhase2MeatOfJustice_key  0
	#define	KirbyandtheAmazingMirrorDarkMindPhase2MeatOfJustice_tbs  1
	#define	KirbyandtheAmazingMirrorDarkMindPhase2MeatOfJustice_exg  0
	#define	KirbyandtheAmazingMirrorDarkMindPhase2MeatOfJustice_cmp  1

	// .rodata
	//	KirbyandtheAmazingMirrorDarkMindPhase2MeatOfJustice
	ALIGN 4


//**************** Track 1 (Midi-Chn.0) ****************//

KirbyandtheAmazingMirrorDarkMindPhase2MeatOfJustice_001:
// 000   ----------------------------------------
Label_0_01648D78:
 BYTE   TEMPO   122*KirbyandtheAmazingMirrorDarkMindPhase2MeatOfJustice_tbs/2
 BYTE   KEYSH   KirbyandtheAmazingMirrorDarkMindPhase2MeatOfJustice_key+0
 BYTE   VOL   105*KirbyandtheAmazingMirrorDarkMindPhase2MeatOfJustice_mvl/mxv
 BYTE   PAN   c_v+0
 BYTE   VOICE   36
 BYTE   N04  Gs0  v100
 BYTE   W06
 BYTE   N06  Gs1
 BYTE   W06
 BYTE   N04  Gs0
 BYTE   W06
 BYTE   N04  An0
 BYTE   W06
 BYTE   N10  An1
 BYTE   W12
 BYTE   N04  As0
 BYTE   W06
 BYTE   N10  As1
 BYTE   W12
 BYTE   N04  Bn0
 BYTE   W06
 BYTE   N06  Bn1
 BYTE   W06
 BYTE   N04  Bn0
 BYTE   W06
 BYTE   N04  Cn2
 BYTE   W06
 BYTE   N10  Cn1
 BYTE   W12
 BYTE   N04
 BYTE   W06
// 001   ----------------------------------------
 BYTE   N04  Fn0
 BYTE   W06
 BYTE   N04  Fs1
 BYTE   W06
 BYTE   N04  Fs0
 BYTE   W06
 BYTE   N10  Gn0
 BYTE   W12
 BYTE   N10  Gs0
 BYTE   W12
 BYTE   N04  An0
 BYTE   W06
 BYTE   N04  An1
 BYTE   W06
 BYTE   N04  Fn0
 BYTE   W06
 BYTE   N10  Fn1
 BYTE   W12
 BYTE   N06  Gn0
 BYTE   W06
 BYTE   N04  Gn1
 BYTE   W06
 BYTE   N06  Gs1
 BYTE   W06
 BYTE   N04  An1
 BYTE   W06
// 002   ----------------------------------------
 BYTE   N04  As0
 BYTE   W06
 BYTE   N04
 BYTE   W06
 BYTE   N03
 BYTE   W06
 BYTE   N03
 BYTE   W06
 BYTE   N04
 BYTE   W06
 BYTE   N04  Gs0
 BYTE   W06
 BYTE   N04  An0
 BYTE   W06
 BYTE   N09  As0
 BYTE   W12
 BYTE   N04
 BYTE   W06
 BYTE   N03
 BYTE   W06
 BYTE   N03
 BYTE   W06
 BYTE   N04
 BYTE   W06
 BYTE   N04  Gs0
 BYTE   W06
 BYTE   N04  An0
 BYTE   W06
 BYTE   N04  As0
 BYTE   W06
// 003   ----------------------------------------
 BYTE   N04  Gs0
 BYTE   W06
 BYTE   N04
 BYTE   W06
 BYTE   N03
 BYTE   W06
 BYTE   N03
 BYTE   W06
 BYTE   N04
 BYTE   W06
 BYTE   N04  Fs0
 BYTE   W06
 BYTE   N04  Gn0
 BYTE   W06
 BYTE   N09  Gs0
 BYTE   W12
 BYTE   N04
 BYTE   W06
 BYTE   N03
 BYTE   W06
 BYTE   N03
 BYTE   W06
 BYTE   N04
 BYTE   W06
 BYTE   N04  Fs0
 BYTE   W06
 BYTE   N04  Gn0
 BYTE   W06
 BYTE   N04  Gs0
 BYTE   W06
// 004   ----------------------------------------
 BYTE   N04  Gn0
 BYTE   W06
 BYTE   N04
 BYTE   W06
 BYTE   N03
 BYTE   W06
 BYTE   N03
 BYTE   W06
 BYTE   N04
 BYTE   W06
 BYTE   N04  Fn0
 BYTE   W06
 BYTE   N04  Fs0
 BYTE   W06
 BYTE   N09  Gn0
 BYTE   W12
 BYTE   N04
 BYTE   W06
 BYTE   N03
 BYTE   W06
 BYTE   N03
 BYTE   W06
 BYTE   N04
 BYTE   W06
 BYTE   N04  Fn0
 BYTE   W06
 BYTE   N04  Fs0
 BYTE   W06
 BYTE   N04  Gn0
 BYTE   W06
// 005   ----------------------------------------
 BYTE   N04  Fs0
 BYTE   W06
 BYTE   N04
 BYTE   W06
 BYTE   N03
 BYTE   W06
 BYTE   N03
 BYTE   W06
 BYTE   N04
 BYTE   W06
 BYTE   N04  Fn0
 BYTE   W06
 BYTE   N04  Fs0
 BYTE   W06
 BYTE   N09  Gs0
 BYTE   W12
 BYTE   N04
 BYTE   W06
 BYTE   N03
 BYTE   W06
 BYTE   N03  Ds0
 BYTE   W06
 BYTE   N04  Gs0
 BYTE   W06
 BYTE   N04  Ds0
 BYTE   W06
 BYTE   N04  Cn1
 BYTE   W06
 BYTE   N04  Gs0
 BYTE   W06
// 006   ----------------------------------------
 BYTE   N04  As0
 BYTE   W06
 BYTE   N04
 BYTE   W06
 BYTE   N03
 BYTE   W06
 BYTE   N03
 BYTE   W06
 BYTE   N04
 BYTE   W06
 BYTE   N04  Gs0
 BYTE   W06
 BYTE   N04  An0
 BYTE   W06
 BYTE   N09  As0
 BYTE   W12
 BYTE   N04
 BYTE   W06
 BYTE   N03
 BYTE   W06
 BYTE   N03
 BYTE   W06
 BYTE   N04
 BYTE   W06
 BYTE   N04  Gs0
 BYTE   W06
 BYTE   N04  An0
 BYTE   W06
 BYTE   N04  As0
 BYTE   W06
// 007   ----------------------------------------
 BYTE   N04  Gs0
 BYTE   W06
 BYTE   N04
 BYTE   W06
 BYTE   N03
 BYTE   W06
 BYTE   N03
 BYTE   W06
 BYTE   N04
 BYTE   W06
 BYTE   N04  Fs0
 BYTE   W06
 BYTE   N04  Gn0
 BYTE   W06
 BYTE   N09  Gs0
 BYTE   W12
 BYTE   N04
 BYTE   W06
 BYTE   N03
 BYTE   W06
 BYTE   N03
 BYTE   W06
 BYTE   N04
 BYTE   W06
 BYTE   N04  Fs0
 BYTE   W06
 BYTE   N04  Gn0
 BYTE   W06
 BYTE   N04  Gs0
 BYTE   W06
// 008   ----------------------------------------
 BYTE   N04  Gn0
 BYTE   W06
 BYTE   N04
 BYTE   W06
 BYTE   N03
 BYTE   W06
 BYTE   N03
 BYTE   W06
 BYTE   N04
 BYTE   W06
 BYTE   N04  Fn0
 BYTE   W06
 BYTE   N04  Fs0
 BYTE   W06
 BYTE   N09  Gn0
 BYTE   W12
 BYTE   N04
 BYTE   W06
 BYTE   N03
 BYTE   W06
 BYTE   N03
 BYTE   W06
 BYTE   N04
 BYTE   W06
 BYTE   N04  Fn0
 BYTE   W06
 BYTE   N04  Fs0
 BYTE   W06
 BYTE   N04  Gn0
 BYTE   W06
// 009   ----------------------------------------
 BYTE   N04  Fs0
 BYTE   W06
 BYTE   N04
 BYTE   W06
 BYTE   N03
 BYTE   W06
 BYTE   N03
 BYTE   W06
 BYTE   N04
 BYTE   W06
 BYTE   N04  Fn0
 BYTE   W06
 BYTE   N04  Fs0
 BYTE   W06
 BYTE   N09  Gs0
 BYTE   W12
 BYTE   N04
 BYTE   W06
 BYTE   N03
 BYTE   W06
 BYTE   N03  Ds0
 BYTE   W06
 BYTE   N04  Gs0
 BYTE   W06
 BYTE   N04  Ds0
 BYTE   W06
 BYTE   N04  Cn1
 BYTE   W06
 BYTE   N04  Gs0
 BYTE   W06
// 010   ----------------------------------------
 BYTE   N03  As0
 BYTE   W06
 BYTE   N03
 BYTE   W06
 BYTE   N03  As1
 BYTE   W06
 BYTE   N03  As0
 BYTE   W06
 BYTE   N03
 BYTE   W06
 BYTE   N03  Gs0
 BYTE   W06
 BYTE   N03  An0
 BYTE   W06
 BYTE   N10  As0
 BYTE   W12
 BYTE   N03
 BYTE   W06
 BYTE   N03  As1
 BYTE   W06
 BYTE   N03  As0
 BYTE   W06
 BYTE   N03
 BYTE   W06
 BYTE   N03  Gs0
 BYTE   W06
 BYTE   N03  An0
 BYTE   W06
 BYTE   N03  As0
 BYTE   W06
// 011   ----------------------------------------
 BYTE   N03  An0
 BYTE   W06
 BYTE   N03
 BYTE   W06
 BYTE   N03  An1
 BYTE   W06
 BYTE   N03  An0
 BYTE   W06
 BYTE   N03
 BYTE   W06
 BYTE   N03  Gn0
 BYTE   W06
 BYTE   N03  Gs0
 BYTE   W06
 BYTE   N10  An0
 BYTE   W12
 BYTE   N03
 BYTE   W06
 BYTE   N03
 BYTE   W06
 BYTE   N03  An1
 BYTE   W06
 BYTE   N03  An0
 BYTE   W06
 BYTE   N04  Gn0
 BYTE   W06
 BYTE   N04  Gs0
 BYTE   W06
 BYTE   N04  An0
 BYTE   W06
// 012   ----------------------------------------
 BYTE   N03  Gs0
 BYTE   W06
 BYTE   N03
 BYTE   W06
 BYTE   N03  Gs1
 BYTE   W06
 BYTE   N03  Gs0
 BYTE   W06
 BYTE   N03
 BYTE   W06
 BYTE   N03  Fs0
 BYTE   W06
 BYTE   N03  Gn0
 BYTE   W06
 BYTE   N10  Gs0
 BYTE   W12
 BYTE   N03
 BYTE   W06
 BYTE   N03  Gs1
 BYTE   W06
 BYTE   N03  Gs0
 BYTE   W06
 BYTE   N03
 BYTE   W06
 BYTE   N03  Fs0
 BYTE   W06
 BYTE   N03  Gn0
 BYTE   W06
 BYTE   N03  Gs0
 BYTE   W06
// 013   ----------------------------------------
 BYTE   N03  Gn0
 BYTE   W06
 BYTE   N03
 BYTE   W06
 BYTE   N03  Gn1
 BYTE   W06
 BYTE   N03  Gn0
 BYTE   W06
 BYTE   N03
 BYTE   W06
 BYTE   N03  Fn0
 BYTE   W06
 BYTE   N03  Fs0
 BYTE   W06
 BYTE   N10  Gn0
 BYTE   W12
 BYTE   N03
 BYTE   W06
 BYTE   N03
 BYTE   W06
 BYTE   N03  Gn1
 BYTE   W06
 BYTE   N03  Gn0
 BYTE   W06
 BYTE   N04
 BYTE   W06
 BYTE   N04  Gn1
 BYTE   W06
 BYTE   N04  Gn0
 BYTE   W06
// 014   ----------------------------------------
 BYTE   N03  As0
 BYTE   W06
 BYTE   N03
 BYTE   W06
 BYTE   N03  As1
 BYTE   W06
 BYTE   N03  As0
 BYTE   W06
 BYTE   N03
 BYTE   W06
 BYTE   N03  Gs0
 BYTE   W06
 BYTE   N03  An0
 BYTE   W06
 BYTE   N10  As0
 BYTE   W12
 BYTE   N03
 BYTE   W06
 BYTE   N03  As1
 BYTE   W06
 BYTE   N03  As0
 BYTE   W06
 BYTE   N03
 BYTE   W06
 BYTE   N03  Gs0
 BYTE   W06
 BYTE   N03  An0
 BYTE   W06
 BYTE   N03  As0
 BYTE   W06
// 015   ----------------------------------------
 BYTE   N03  An0
 BYTE   W06
 BYTE   N03
 BYTE   W06
 BYTE   N03  An1
 BYTE   W06
 BYTE   N03  An0
 BYTE   W06
 BYTE   N03
 BYTE   W06
 BYTE   N03  Gn0
 BYTE   W06
 BYTE   N03  Gs0
 BYTE   W06
 BYTE   N10  An0
 BYTE   W12
 BYTE   N03
 BYTE   W06
 BYTE   N03
 BYTE   W06
 BYTE   N03  An1
 BYTE   W06
 BYTE   N03  An0
 BYTE   W06
 BYTE   N04  Gn0
 BYTE   W06
 BYTE   N04  Gs0
 BYTE   W06
 BYTE   N04  An0
 BYTE   W06
// 016   ----------------------------------------
 BYTE   N03  Gs0
 BYTE   W06
 BYTE   N03
 BYTE   W06
 BYTE   N03  Gs1
 BYTE   W06
 BYTE   N03  Gs0
 BYTE   W06
 BYTE   N03
 BYTE   W06
 BYTE   N03  Fs0
 BYTE   W06
 BYTE   N03  Gn0
 BYTE   W06
 BYTE   N10  Gs0
 BYTE   W12
 BYTE   N03
 BYTE   W06
 BYTE   N03  Gs1
 BYTE   W06
 BYTE   N03  Gs0
 BYTE   W06
 BYTE   N03
 BYTE   W06
 BYTE   N03  Fs0
 BYTE   W06
 BYTE   N03  Gn0
 BYTE   W06
 BYTE   N03  Gs0
 BYTE   W06
// 017   ----------------------------------------
 BYTE   N03  Gn0
 BYTE   W06
 BYTE   N03
 BYTE   W06
 BYTE   N03  Gn1
 BYTE   W06
 BYTE   N03  Gn0
 BYTE   W06
 BYTE   N03
 BYTE   W06
 BYTE   N03  Fn0
 BYTE   W06
 BYTE   N03  Fs0
 BYTE   W06
 BYTE   N10  Gn0
 BYTE   W12
 BYTE   N03
 BYTE   W06
 BYTE   N03  Gn1
 BYTE   W06
 BYTE   N03  Gn0
 BYTE   W06
 BYTE   N04  Gs0
 BYTE   W06
 BYTE   N04  Gs1
 BYTE   W06
 BYTE   N04  An0
 BYTE   W06
 BYTE   N04  An1
 BYTE   W06
// 018   ----------------------------------------
 BYTE   N03  As0
 BYTE   W06
 BYTE   N03  As0  v056
 BYTE   W06
 BYTE   N03
 BYTE   W06
 BYTE   N03  As0  v100
 BYTE   W06
 BYTE   N03  As0  v056
 BYTE   W06
 BYTE   N03
 BYTE   W06
 BYTE   N03  As0  v100
 BYTE   W06
 BYTE   N03  As0  v056
 BYTE   W06
 BYTE   N03
 BYTE   W06
 BYTE   N03  As0  v100
 BYTE   W06
 BYTE   N03  As0  v056
 BYTE   W06
 BYTE   N03
 BYTE   W06
 BYTE   N03  As0  v100
 BYTE   W06
 BYTE   N03  Gs0
 BYTE   W06
 BYTE   N03  An0
 BYTE   W06
 BYTE   N03  As0
 BYTE   W06
// 019   ----------------------------------------
 BYTE   N03  Bn0
 BYTE   W06
 BYTE   Bn0  v056
 BYTE   W06
 BYTE   Bn0
 BYTE   W06
 BYTE   Bn0  v100
 BYTE   W06
 BYTE   Bn0  v056
 BYTE   W06
 BYTE   Bn0
 BYTE   W06
 BYTE   Bn0  v100
 BYTE   W06
 BYTE   Bn0  v056
 BYTE   W06
 BYTE   Bn0
 BYTE   W06
 BYTE   Bn0  v100
 BYTE   W06
 BYTE   Bn0  v056
 BYTE   W06
 BYTE   Bn0
 BYTE   W06
 BYTE   Bn0  v100
 BYTE   W06
 BYTE   An0
 BYTE   W06
 BYTE   As0
 BYTE   W06
 BYTE   Bn0
 BYTE   W06
// 020   ----------------------------------------
Label_0_016490A1:
 BYTE   N03  As0  v100
 BYTE   W06
 BYTE   As0  v056
 BYTE   W06
 BYTE   As0
 BYTE   W06
 BYTE   As0  v100
 BYTE   W06
 BYTE   As0  v056
 BYTE   W06
 BYTE   As0
 BYTE   W06
 BYTE   As0  v100
 BYTE   W06
 BYTE   As0  v056
 BYTE   W06
 BYTE   As0
 BYTE   W06
 BYTE   As0  v100
 BYTE   W06
 BYTE   As0  v056
 BYTE   W06
 BYTE   As0
 BYTE   W06
 BYTE   As0  v100
 BYTE   W06
 BYTE   Gs0
 BYTE   W06
 BYTE   An0
 BYTE   W06
 BYTE   As0
 BYTE   W06
 BYTE   PEND 
// 021   ----------------------------------------
Label_0_016490CC:
 BYTE   N03  Bn0  v100
 BYTE   W06
 BYTE   Bn0  v056
 BYTE   W06
 BYTE   Bn0
 BYTE   W06
 BYTE   Bn0  v100
 BYTE   W06
 BYTE   Bn0  v056
 BYTE   W06
 BYTE   Bn0
 BYTE   W06
 BYTE   Bn0  v100
 BYTE   W06
 BYTE   Bn0  v056
 BYTE   W06
 BYTE   Bn0
 BYTE   W06
 BYTE   Bn0  v100
 BYTE   W06
 BYTE   Bn0  v056
 BYTE   W06
 BYTE   Bn0
 BYTE   W06
 BYTE   Bn0  v100
 BYTE   W06
 BYTE   An0
 BYTE   W06
 BYTE   As0
 BYTE   W06
 BYTE   Bn0
 BYTE   W06
 BYTE   PEND 
// 022   ----------------------------------------
Label_0_016490F7:
 BYTE   N03  As0  v100
 BYTE   W06
 BYTE   As0  v056
 BYTE   W06
 BYTE   As0
 BYTE   W06
 BYTE   As0  v100
 BYTE   W06
 BYTE   As0  v056
 BYTE   W06
 BYTE   Gs0  v096
 BYTE   W06
 BYTE   An0
 BYTE   W06
 BYTE   N09  As0
 BYTE   W12
 BYTE   N03  As0  v100
 BYTE   W06
 BYTE   As0  v056
 BYTE   W06
 BYTE   As0
 BYTE   W06
 BYTE   As0  v100
 BYTE   W06
 BYTE   Gs0
 BYTE   W06
 BYTE   An0
 BYTE   W06
 BYTE   As0
 BYTE   W06
 BYTE   PEND 
// 023   ----------------------------------------
Label_0_01649121:
 BYTE   N03  Bn0  v100
 BYTE   W06
 BYTE   Bn0  v056
 BYTE   W06
 BYTE   Bn0
 BYTE   W06
 BYTE   Bn0  v100
 BYTE   W06
 BYTE   Bn0  v056
 BYTE   W06
 BYTE   An0  v096
 BYTE   W06
 BYTE   As0
 BYTE   W06
 BYTE   N09  Bn0
 BYTE   W12
 BYTE   N03  Bn0  v100
 BYTE   W06
 BYTE   Bn0  v056
 BYTE   W06
 BYTE   Bn0
 BYTE   W06
 BYTE   Bn0  v100
 BYTE   W06
 BYTE   An0
 BYTE   W06
 BYTE   As0
 BYTE   W06
 BYTE   Bn0
 BYTE   W06
 BYTE   PEND 
// 024   ----------------------------------------
Label_0_0164914B:
 BYTE   N03  As0  v100
 BYTE   W06
 BYTE   As0  v056
 BYTE   W06
 BYTE   As0
 BYTE   W06
 BYTE   As0  v100
 BYTE   W06
 BYTE   As0  v056
 BYTE   W06
 BYTE   Gs0  v096
 BYTE   W06
 BYTE   An0
 BYTE   W06
 BYTE   N09  As0
 BYTE   W12
 BYTE   N03  As1  v084
 BYTE   W06
 BYTE   As0  v056
 BYTE   W06
 BYTE   As0
 BYTE   W06
 BYTE   As0  v100
 BYTE   W06
 BYTE   Gs0
 BYTE   W06
 BYTE   An0
 BYTE   W06
 BYTE   As0
 BYTE   W06
 BYTE   PEND 
// 025   ----------------------------------------
Label_0_01649175:
 BYTE   N04  Gn0  v100
 BYTE   W06
 BYTE   Gn1
 BYTE   W06
 BYTE   N03  Gn0
 BYTE   W06
 BYTE   N04  Gs0
 BYTE   W06
 BYTE   Gs1
 BYTE   W06
 BYTE   N03  Gs0
 BYTE   W06
 BYTE   N04  An0
 BYTE   W06
 BYTE   An1
 BYTE   W06
 BYTE   N03  An0
 BYTE   W06
 BYTE   N04  As0
 BYTE   W06
 BYTE   As1
 BYTE   W06
 BYTE   N03  As0
 BYTE   W06
 BYTE   N04  Bn0
 BYTE   W06
 BYTE   N03  Bn1
 BYTE   W06
 BYTE   N04  Cn1
 BYTE   W06
 BYTE   N03  Cn2
 BYTE   W06
 BYTE   PEND 
// 026   ----------------------------------------
Label_0_016491A3:
 BYTE   N04  As0  v100
 BYTE   W06
 BYTE   As0
 BYTE   W06
 BYTE   N03
 BYTE   W06
 BYTE   As0
 BYTE   W06
 BYTE   N04
 BYTE   W06
 BYTE   Gs0
 BYTE   W06
 BYTE   An0
 BYTE   W06
 BYTE   N09  As0
 BYTE   W12
 BYTE   N04
 BYTE   W06
 BYTE   N03
 BYTE   W06
 BYTE   As0
 BYTE   W06
 BYTE   N04
 BYTE   W06
 BYTE   Gs0
 BYTE   W06
 BYTE   An0
 BYTE   W06
 BYTE   As0
 BYTE   W06
 BYTE   PEND 
// 027   ----------------------------------------
Label_0_016491C5:
 BYTE   N04  Gs0  v100
 BYTE   W06
 BYTE   Gs0
 BYTE   W06
 BYTE   N03
 BYTE   W06
 BYTE   Gs0
 BYTE   W06
 BYTE   N04
 BYTE   W06
 BYTE   Fs0
 BYTE   W06
 BYTE   Gn0
 BYTE   W06
 BYTE   N09  Gs0
 BYTE   W12
 BYTE   N04
 BYTE   W06
 BYTE   N03
 BYTE   W06
 BYTE   Gs0
 BYTE   W06
 BYTE   N04
 BYTE   W06
 BYTE   Fs0
 BYTE   W06
 BYTE   Gn0
 BYTE   W06
 BYTE   Gs0
 BYTE   W06
 BYTE   PEND 
// 028   ----------------------------------------
Label_0_016491E7:
 BYTE   N04  Gn0  v100
 BYTE   W06
 BYTE   Gn0
 BYTE   W06
 BYTE   N03
 BYTE   W06
 BYTE   Gn0
 BYTE   W06
 BYTE   N04
 BYTE   W06
 BYTE   Fn0
 BYTE   W06
 BYTE   Fs0
 BYTE   W06
 BYTE   N09  Gn0
 BYTE   W12
 BYTE   N04
 BYTE   W06
 BYTE   N03
 BYTE   W06
 BYTE   Gn0
 BYTE   W06
 BYTE   N04
 BYTE   W06
 BYTE   Fn0
 BYTE   W06
 BYTE   Fs0
 BYTE   W06
 BYTE   Gn0
 BYTE   W06
 BYTE   PEND 
// 029   ----------------------------------------
Label_0_01649209:
 BYTE   N04  Fs0  v100
 BYTE   W06
 BYTE   Fs0
 BYTE   W06
 BYTE   N03
 BYTE   W06
 BYTE   Fs0
 BYTE   W06
 BYTE   N04
 BYTE   W06
 BYTE   Fn0
 BYTE   W06
 BYTE   Fs0
 BYTE   W06
 BYTE   N09  Gs0
 BYTE   W12
 BYTE   N04
 BYTE   W06
 BYTE   N03
 BYTE   W06
 BYTE   Ds0
 BYTE   W06
 BYTE   N04  Gs0
 BYTE   W06
 BYTE   Ds0
 BYTE   W06
 BYTE   Cn1
 BYTE   W06
 BYTE   Gs0
 BYTE   W06
 BYTE   PEND 
 BYTE   PATT
  POIN2 Label_0_016491A3
 BYTE   PATT
  POIN2 Label_0_016491C5
 BYTE   PATT
  POIN2 Label_0_016491E7
 BYTE   PATT
  POIN2 Label_0_01649209
// 030   ----------------------------------------
Label_0_01649240:
 BYTE   N03  As0  v100
 BYTE   W06
 BYTE   As0
 BYTE   W06
 BYTE   As1
 BYTE   W06
 BYTE   As0
 BYTE   W06
 BYTE   As0
 BYTE   W06
 BYTE   Gs0
 BYTE   W06
 BYTE   An0
 BYTE   W06
 BYTE   N10  As0
 BYTE   W12
 BYTE   N03
 BYTE   W06
 BYTE   As1
 BYTE   W06
 BYTE   As0
 BYTE   W06
 BYTE   As0
 BYTE   W06
 BYTE   Gs0
 BYTE   W06
 BYTE   An0
 BYTE   W06
 BYTE   As0
 BYTE   W06
 BYTE   PEND 
// 031   ----------------------------------------
Label_0_01649262:
 BYTE   N03  An0  v100
 BYTE   W06
 BYTE   An0
 BYTE   W06
 BYTE   An1
 BYTE   W06
 BYTE   An0
 BYTE   W06
 BYTE   An0
 BYTE   W06
 BYTE   Gn0
 BYTE   W06
 BYTE   Gs0
 BYTE   W06
 BYTE   N10  An0
 BYTE   W12
 BYTE   N03
 BYTE   W06
 BYTE   An0
 BYTE   W06
 BYTE   An1
 BYTE   W06
 BYTE   An0
 BYTE   W06
 BYTE   N04  Gn0
 BYTE   W06
 BYTE   Gs0
 BYTE   W06
 BYTE   An0
 BYTE   W06
 BYTE   PEND 
// 032   ----------------------------------------
Label_0_01649285:
 BYTE   N03  Gs0  v100
 BYTE   W06
 BYTE   Gs0
 BYTE   W06
 BYTE   Gs1
 BYTE   W06
 BYTE   Gs0
 BYTE   W06
 BYTE   Gs0
 BYTE   W06
 BYTE   Fs0
 BYTE   W06
 BYTE   Gn0
 BYTE   W06
 BYTE   N10  Gs0
 BYTE   W12
 BYTE   N03
 BYTE   W06
 BYTE   Gs1
 BYTE   W06
 BYTE   Gs0
 BYTE   W06
 BYTE   Gs0
 BYTE   W06
 BYTE   Fs0
 BYTE   W06
 BYTE   Gn0
 BYTE   W06
 BYTE   Gs0
 BYTE   W06
 BYTE   PEND 
// 033   ----------------------------------------
 BYTE   N03  Gn0  v100
 BYTE   W06
 BYTE   Gn0
 BYTE   W06
 BYTE   Gn1
 BYTE   W06
 BYTE   Gn0
 BYTE   W06
 BYTE   Gn0
 BYTE   W06
 BYTE   Fn0
 BYTE   W06
 BYTE   Fs0
 BYTE   W06
 BYTE   N10  Gn0
 BYTE   W12
 BYTE   N03
 BYTE   W06
 BYTE   Gn0
 BYTE   W06
 BYTE   Gn1
 BYTE   W06
 BYTE   Gn0
 BYTE   W06
 BYTE   N04
 BYTE   W06
 BYTE   Gn1
 BYTE   W06
 BYTE   Gn0
 BYTE   W06
 BYTE   PATT
  POIN2 Label_0_01649240
 BYTE   PATT
  POIN2 Label_0_01649262
 BYTE   PATT
  POIN2 Label_0_01649285
// 034   ----------------------------------------
 BYTE   N03  Gn0  v100
 BYTE   W06
 BYTE   Gn0
 BYTE   W06
 BYTE   Gn1
 BYTE   W06
 BYTE   Gn0
 BYTE   W06
 BYTE   Gn0
 BYTE   W06
 BYTE   Fn0
 BYTE   W06
 BYTE   Fs0
 BYTE   W06
 BYTE   N10  Gn0
 BYTE   W12
 BYTE   N03
 BYTE   W06
 BYTE   Gn1
 BYTE   W06
 BYTE   Gn0
 BYTE   W06
 BYTE   N04  Gs0
 BYTE   W06
 BYTE   Gs1
 BYTE   W06
 BYTE   An0
 BYTE   W06
 BYTE   An1
 BYTE   W06
 BYTE   PATT
  POIN2 Label_0_016490A1
 BYTE   PATT
  POIN2 Label_0_016490CC
 BYTE   PATT
  POIN2 Label_0_016490A1
 BYTE   PATT
  POIN2 Label_0_016490CC
 BYTE   PATT
  POIN2 Label_0_016490F7
 BYTE   PATT
  POIN2 Label_0_01649121
 BYTE   PATT
  POIN2 Label_0_0164914B
 BYTE   PATT
  POIN2 Label_0_01649175
// 035   ----------------------------------------
 BYTE   GoTo
  POIN2 Label_0_01648D78
 BYTE   FINE

//**************** Track 2 (Midi-Chn.1) ****************//

KirbyandtheAmazingMirrorDarkMindPhase2MeatOfJustice_002:
// 000   ----------------------------------------
Label_1_01649328:
 BYTE   TEMPO   122*KirbyandtheAmazingMirrorDarkMindPhase2MeatOfJustice_tbs/2
 BYTE   KEYSH   KirbyandtheAmazingMirrorDarkMindPhase2MeatOfJustice_key+0
 BYTE   VOL   100*KirbyandtheAmazingMirrorDarkMindPhase2MeatOfJustice_mvl/mxv
 BYTE   PAN   c_v+0
 BYTE   VOICE   52
 BYTE   W06
 BYTE   N15  Gs3  v100
 BYTE   N15  Bn3  v080
 BYTE   W18
 BYTE   N15  An3  v100
 BYTE   N15  Cn4  v080
 BYTE   W18
 BYTE   N15  As3  v100
 BYTE   N15  Cs4  v080
 BYTE   W18
 BYTE   N08  Bn3  v100
 BYTE   N09  Dn4  v080
 BYTE   W18
 BYTE   N96  Cn4  v100
 BYTE   N96  Ds4  v080
 BYTE   W04
 BYTE   N12  Cn4  v100
 BYTE   N12  Ds4  v080
 BYTE   W96
// 001   ----------------------------------------
 BYTE   W13
 BYTE   N18  Cs4  v100
 BYTE   W18
 BYTE   N06  As3
 BYTE   W18
 BYTE   N36
 BYTE   W42
 BYTE   N06  Gs3
 BYTE   W06
// 002   ----------------------------------------
 BYTE   N06  As3
 BYTE   W06
 BYTE   N06  Gs3
 BYTE   W06
 BYTE   N18  Cs4
 BYTE   W18
 BYTE   N06  As3
 BYTE   W18
 BYTE   N36
 BYTE   W42
 BYTE   N06  Gs3
 BYTE   W06
// 003   ----------------------------------------
 BYTE   N06  As3
 BYTE   W06
 BYTE   N03  Ds4
 BYTE   W06
 BYTE   N18  Cs4
 BYTE   W18
 BYTE   N06  Cn4
 BYTE   W12
 BYTE   N03  Ds4
 BYTE   W06
 BYTE   N36  As3
 BYTE   W42
 BYTE   N06  Gs3
 BYTE   W06
// 004   ----------------------------------------
 BYTE   N06  As3
 BYTE   W06
 BYTE   N03  Gs3
 BYTE   W06
 BYTE   N15  Fs3
 BYTE   W18
 BYTE   N03  Gs3
 BYTE   W12
 BYTE   N06  As3
 BYTE   W12
 BYTE   N03  Fs3
 BYTE   W06
 BYTE   N15  Gs3
 BYTE   W18
 BYTE   BEND   c_v-22
 BYTE   N24  Cn4  v100
 BYTE   W03
 BYTE   BEND   c_v+0
 BYTE   W24
// 005   ----------------------------------------
 BYTE   W03
 BYTE   N18  As3  v100
 BYTE   N18  Cs4
 BYTE   W18
 BYTE   N06  Fn3
 BYTE   N06  As3
 BYTE   W18
 BYTE   N36  Fn3
 BYTE   N36  As3
 BYTE   W42
 BYTE   N06  Gs3
 BYTE   W06
 BYTE   N06  As3
 BYTE   W06
 BYTE   N06  Gs3
 BYTE   W06
// 006   ----------------------------------------
 BYTE   N18  As3
 BYTE   N18  Cs4
 BYTE   W18
 BYTE   N06  Fn3
 BYTE   N06  As3
 BYTE   W18
 BYTE   N36  Fn3
 BYTE   N36  As3
 BYTE   W42
 BYTE   N06  Gs3
 BYTE   W06
 BYTE   N06  As3
 BYTE   W06
 BYTE   N03  Ds4
 BYTE   W06
// 007   ----------------------------------------
 BYTE   N18  As3
 BYTE   N18  Cs4
 BYTE   W18
 BYTE   N06  Gs3
 BYTE   N06  Cn4
 BYTE   W12
 BYTE   N03  As3
 BYTE   N03  Ds4
 BYTE   W06
 BYTE   N36  Fn3
 BYTE   N36  As3
 BYTE   W42
 BYTE   N06  Gs3
 BYTE   W06
 BYTE   N06  As3
 BYTE   W06
 BYTE   N03  Gs3
 BYTE   W06
// 008   ----------------------------------------
 BYTE   N15  Fs3
 BYTE   W18
 BYTE   N03  Gs3
 BYTE   W12
 BYTE   N06  As3
 BYTE   W12
 BYTE   N03  Fs3
 BYTE   W06
 BYTE   N15  Ds3
 BYTE   N15  Gs3
 BYTE   W18
 BYTE   N03  Fn3
 BYTE   N03  As3
 BYTE   W06
 BYTE   N03  Gs3
 BYTE   N03  Cn4
 BYTE   W06
 BYTE   N03  As3
 BYTE   N03  Cs4
 BYTE   W06
 BYTE   N03  Gs3
 BYTE   N03  Cn4
 BYTE   W06
 BYTE   N03  Ds3
 BYTE   N03  Gs3
 BYTE   W96
// 009   ----------------------------------------
 BYTE   W96
// 010   ----------------------------------------
 BYTE   W96
// 011   ----------------------------------------
 BYTE   W96
// 012   ----------------------------------------
 BYTE   W96
// 013   ----------------------------------------
 BYTE   W96
// 014   ----------------------------------------
 BYTE   W96
// 015   ----------------------------------------
 BYTE   W96
// 016   ----------------------------------------
 BYTE   W06
 BYTE   N15  As3
 BYTE   W18
 BYTE   N15  Cs4
 BYTE   W18
 BYTE   N54
 BYTE   W60
// 017   ----------------------------------------
 BYTE   N15  Bn3
 BYTE   W18
 BYTE   Dn4
 BYTE   W18
 BYTE   N54
 BYTE   W60
// 018   ----------------------------------------
 BYTE   N15  As3
 BYTE   W18
 BYTE   Cs4
 BYTE   W18
 BYTE   N54
 BYTE   W60
// 019   ----------------------------------------
 BYTE   N15  Bn3
 BYTE   W18
 BYTE   Dn4
 BYTE   W18
 BYTE   N36
 BYTE   W42
 BYTE   N06  En4
 BYTE   W06
 BYTE   Dn4
 BYTE   W06
 BYTE   N03  Bn3
 BYTE   W06
// 020   ----------------------------------------
 BYTE   N15  As3
 BYTE   W18
 BYTE   Cs4
 BYTE   W18
 BYTE   N54
 BYTE   W60
// 021   ----------------------------------------
 BYTE   N15  Bn3
 BYTE   W18
 BYTE   Dn4
 BYTE   W18
 BYTE   N54
 BYTE   W60
// 022   ----------------------------------------
 BYTE   N15  As3
 BYTE   W18
 BYTE   Cs4
 BYTE   W18
 BYTE   N54
 BYTE   W96
// 023   ----------------------------------------
 BYTE   W60
 BYTE   N18
 BYTE   W18
 BYTE   N06  As3
 BYTE   W18
// 024   ----------------------------------------
 BYTE   N36
 BYTE   W42
 BYTE   N06  Gs3
 BYTE   W06
 BYTE   As3
 BYTE   W06
 BYTE   Gs3
 BYTE   W06
 BYTE   N18  Cs4
 BYTE   W18
 BYTE   N06  As3
 BYTE   W18
// 025   ----------------------------------------
 BYTE   N36
 BYTE   W42
 BYTE   N06  Gs3
 BYTE   W06
 BYTE   As3
 BYTE   W06
 BYTE   N03  Ds4
 BYTE   W06
 BYTE   N18  Cs4
 BYTE   W18
 BYTE   N06  Cn4
 BYTE   W12
 BYTE   N03  Ds4
 BYTE   W06
// 026   ----------------------------------------
 BYTE   N36  As3
 BYTE   W42
 BYTE   N06  Gs3
 BYTE   W06
 BYTE   As3
 BYTE   W06
 BYTE   N03  Gs3
 BYTE   W06
 BYTE   N15  Fs3
 BYTE   W18
 BYTE   N03  Gs3
 BYTE   W12
 BYTE   N06  As3
 BYTE   W12
// 027   ----------------------------------------
 BYTE   N03  Fs3
 BYTE   W06
 BYTE   N15  Gs3
 BYTE   W18
 BYTE   BEND   c_v-22
 BYTE   N24  Cn4  v100
 BYTE   W03
 BYTE   BEND   c_v+0
 BYTE   W24
 BYTE   W03
 BYTE   N18  As3  v100
 BYTE   N18  Cs4
 BYTE   W18
 BYTE   N06  Fn3
 BYTE   N06  As3
 BYTE   W18
 BYTE   N36  Fn3
 BYTE   N36  As3
 BYTE   W42
// 028   ----------------------------------------
 BYTE   N06  Gs3
 BYTE   W06
 BYTE   As3
 BYTE   W06
 BYTE   Gs3
 BYTE   W06
 BYTE   N18  As3
 BYTE   N18  Cs4
 BYTE   W18
 BYTE   N06  Fn3
 BYTE   N06  As3
 BYTE   W18
 BYTE   N36  Fn3
 BYTE   N36  As3
 BYTE   W42
// 029   ----------------------------------------
 BYTE   N06  Gs3
 BYTE   W06
 BYTE   As3
 BYTE   W06
 BYTE   N03  Ds4
 BYTE   W06
 BYTE   N18  As3
 BYTE   N18  Cs4
 BYTE   W18
 BYTE   N06  Gs3
 BYTE   N06  Cn4
 BYTE   W12
 BYTE   N03  As3
 BYTE   N03  Ds4
 BYTE   W06
 BYTE   N36  Fn3
 BYTE   N36  As3
 BYTE   W42
// 030   ----------------------------------------
 BYTE   N06  Gs3
 BYTE   W06
 BYTE   As3
 BYTE   W06
 BYTE   N03  Gs3
 BYTE   W06
 BYTE   N15  Fs3
 BYTE   W18
 BYTE   N03  Gs3
 BYTE   W12
 BYTE   N06  As3
 BYTE   W12
 BYTE   N03  Fs3
 BYTE   W06
 BYTE   N15  Ds3
 BYTE   N15  Gs3
 BYTE   W18
 BYTE   N03  Fn3
 BYTE   N03  As3
 BYTE   W06
 BYTE   Gs3
 BYTE   N03  Cn4
 BYTE   W06
// 031   ----------------------------------------
 BYTE   As3
 BYTE   N03  Cs4
 BYTE   W06
 BYTE   Gs3
 BYTE   N03  Cn4
 BYTE   W06
 BYTE   Ds3
 BYTE   N03  Gs3
 BYTE   W96
// 032   ----------------------------------------
 BYTE   W96
// 033   ----------------------------------------
 BYTE   W96
// 034   ----------------------------------------
 BYTE   W96
// 035   ----------------------------------------
 BYTE   W96
// 036   ----------------------------------------
 BYTE   W96
// 037   ----------------------------------------
 BYTE   W96
// 038   ----------------------------------------
 BYTE   W96
// 039   ----------------------------------------
 BYTE   W06
 BYTE   N15  As3
 BYTE   W18
 BYTE   Cs4
 BYTE   W18
 BYTE   N54
 BYTE   W60
// 040   ----------------------------------------
 BYTE   N15  Bn3
 BYTE   W18
 BYTE   Dn4
 BYTE   W18
 BYTE   N54
 BYTE   W60
// 041   ----------------------------------------
 BYTE   N15  As3
 BYTE   W18
 BYTE   Cs4
 BYTE   W18
 BYTE   N54
 BYTE   W60
// 042   ----------------------------------------
 BYTE   N15  Bn3
 BYTE   W18
 BYTE   Dn4
 BYTE   W18
 BYTE   N36
 BYTE   W42
 BYTE   N06  En4
 BYTE   W06
 BYTE   Dn4
 BYTE   W06
 BYTE   N03  Bn3
 BYTE   W06
// 043   ----------------------------------------
 BYTE   N15  As3
 BYTE   W18
 BYTE   Cs4
 BYTE   W18
 BYTE   N54
 BYTE   W60
// 044   ----------------------------------------
 BYTE   N15  Bn3
 BYTE   W18
 BYTE   Dn4
 BYTE   W18
 BYTE   N54
 BYTE   W60
// 045   ----------------------------------------
 BYTE   N15  As3
 BYTE   W18
 BYTE   Cs4
 BYTE   W18
 BYTE   N54
 BYTE   W96
// 046   ----------------------------------------
 BYTE   W54
 BYTE   GoTo
  POIN2 Label_1_01649328
 BYTE   FINE

//**************** Track 3 (Midi-Chn.2) ****************//

KirbyandtheAmazingMirrorDarkMindPhase2MeatOfJustice_003:
// 000   ----------------------------------------
Label_2_01649570:
 BYTE   TEMPO   122*KirbyandtheAmazingMirrorDarkMindPhase2MeatOfJustice_tbs/2
 BYTE   KEYSH   KirbyandtheAmazingMirrorDarkMindPhase2MeatOfJustice_key+0
 BYTE   VOL   90*KirbyandtheAmazingMirrorDarkMindPhase2MeatOfJustice_mvl/mxv
 BYTE   PAN   c_v+0
 BYTE   VOICE   54
 BYTE   W96
// 001   ----------------------------------------
 BYTE   W96
// 002   ----------------------------------------
 BYTE   W06
 BYTE   N03  As3  v080
Label_2_01649580:
 BYTE   PAN   c_v-30
 BYTE   W05
 BYTE   N03  As3  v080
 BYTE   PEND 
Label_2_01649587:
 BYTE   PAN   c_v+30
 BYTE   W05
 BYTE   N03  Cs4  v080
 BYTE   PEND 
Label_2_0164958E:
 BYTE   PAN   c_v-30
 BYTE   W11
 BYTE   N03  Gs3  v080
 BYTE   PEND 
Label_2_01649595:
 BYTE   PAN   c_v+30
 BYTE   W11
 BYTE   N03  As3  v080
 BYTE   PEND 
 BYTE   PATT
  POIN2 Label_2_0164958E
// 003   ----------------------------------------
Label_2_016495A1:
 BYTE   PAN   c_v+30
 BYTE   W11
 BYTE   N03  Gs3  v080
 BYTE   PEND 
Label_2_016495A8:
 BYTE   PAN   c_v-30
 BYTE   W05
 BYTE   N03  Cs4  v080
 BYTE   PEND 
Label_2_016495AF:
 BYTE   PAN   c_v+30
 BYTE   W05
 BYTE   N03  Cs4  v080
 BYTE   W06
 BYTE   N03  As3
 BYTE   PEND 
Label_2_016495B9:
 BYTE   PAN   c_v-30
 BYTE   W05
 BYTE   N03  As3  v080
 BYTE   W12
 BYTE   N03  Cs4
 BYTE   PEND 
 BYTE   PATT
  POIN2 Label_2_016495A8
// 004   ----------------------------------------
Label_2_016495C8:
 BYTE   PAN   c_v+30
 BYTE   W05
 BYTE   N03  As3  v080
 BYTE   PEND 
 BYTE   PATT
  POIN2 Label_2_0164958E
 BYTE   PATT
  POIN2 Label_2_01649595
 BYTE   PATT
  POIN2 Label_2_0164958E
 BYTE   PATT
  POIN2 Label_2_016495C8
// 005   ----------------------------------------
Label_2_016495E3:
 BYTE   PAN   c_v-30
 BYTE   W05
 BYTE   N03  Gs3  v080
 BYTE   PEND 
Label_2_016495EA:
 BYTE   PAN   c_v+30
 BYTE   W05
 BYTE   N03  Ds4  v080
 BYTE   PEND 
Label_2_016495F1:
 BYTE   PAN   c_v-30
 BYTE   W05
 BYTE   N03  Ds4  v080
 BYTE   W06
 BYTE   N03  Cs4
 BYTE   PEND 
Label_2_016495FB:
 BYTE   PAN   c_v+30
 BYTE   W05
 BYTE   N03  Cs4  v080
 BYTE   W12
 BYTE   N03  As3
 BYTE   PEND 
 BYTE   PATT
  POIN2 Label_2_01649580
// 006   ----------------------------------------
Label_2_0164960A:
 BYTE   PAN   c_v+30
 BYTE   W05
 BYTE   N03  Gs3  v080
 BYTE   PEND 
Label_2_01649611:
 BYTE   PAN   c_v-30
 BYTE   W11
 BYTE   N03  Cs4  v080
 BYTE   PEND 
 BYTE   PATT
  POIN2 Label_2_01649595
 BYTE   PATT
  POIN2 Label_2_0164958E
 BYTE   PATT
  POIN2 Label_2_016495A1
 BYTE   PATT
  POIN2 Label_2_016495A8
 BYTE   PATT
  POIN2 Label_2_016495AF
 BYTE   PATT
  POIN2 Label_2_016495B9
 BYTE   PATT
  POIN2 Label_2_016495A8
 BYTE   PATT
  POIN2 Label_2_016495C8
 BYTE   PATT
  POIN2 Label_2_0164958E
 BYTE   PATT
  POIN2 Label_2_01649595
 BYTE   PATT
  POIN2 Label_2_0164958E
 BYTE   PATT
  POIN2 Label_2_016495A1
// 007   ----------------------------------------
Label_2_01649654:
 BYTE   PAN   c_v-30
 BYTE   W05
 BYTE   N03  Cn4  v080
 BYTE   PEND 
Label_2_0164965B:
 BYTE   PAN   c_v+30
 BYTE   W05
 BYTE   N03  Cn4  v080
 BYTE   W06
 BYTE   N03  Gs3
 BYTE   PEND 
 BYTE   PAN   c_v+0
 BYTE   W05
 BYTE   N03  Gs3  v080
 BYTE   W96
// 008   ----------------------------------------
 BYTE   W96
// 009   ----------------------------------------
 BYTE   W96
// 010   ----------------------------------------
 BYTE   W96
// 011   ----------------------------------------
 BYTE   W96
// 012   ----------------------------------------
 BYTE   W96
// 013   ----------------------------------------
 BYTE   W96
// 014   ----------------------------------------
 BYTE   W96
// 015   ----------------------------------------
 BYTE   W96
// 016   ----------------------------------------
 BYTE   W96
// 017   ----------------------------------------
 BYTE   W96
// 018   ----------------------------------------
 BYTE   W96
// 019   ----------------------------------------
 BYTE   W06
 BYTE   N92  Fn2  v100
 BYTE   N92  As2
 BYTE   W04
 BYTE   N01  Fn2
 BYTE   N01  As2
 BYTE   W90
// 020   ----------------------------------------
 BYTE   W01
 BYTE   N92  Fs2
 BYTE   N92  Bn2
 BYTE   W04
 BYTE   N01  Fs2
 BYTE   N01  Bn2
 BYTE   W90
 BYTE   W01
// 021   ----------------------------------------
 BYTE   N92  Fn2
 BYTE   N92  As2
 BYTE   W04
 BYTE   N01  Fn2
 BYTE   N01  As2
 BYTE   W90
 BYTE   W01
 BYTE   N92  Fs2
 BYTE   N92  Bn2
 BYTE   W04
// 022   ----------------------------------------
 BYTE   N01  Fs2
 BYTE   N01  Bn2
 BYTE   W90
 BYTE   W01
 BYTE   N92  As2
 BYTE   W04
 BYTE   N01
 BYTE   W90
// 023   ----------------------------------------
 BYTE   W01
 BYTE   N92  Bn2
 BYTE   W04
 BYTE   N01
 BYTE   W90
 BYTE   W01
// 024   ----------------------------------------
 BYTE   N92  As2
 BYTE   W04
 BYTE   N01
 BYTE   W96
// 025   ----------------------------------------
 BYTE   W96
// 026   ----------------------------------------
 BYTE   W01
 BYTE   N03  As3  v080
 BYTE   PATT
  POIN2 Label_2_01649580
 BYTE   PATT
  POIN2 Label_2_01649587
 BYTE   PATT
  POIN2 Label_2_0164958E
 BYTE   PATT
  POIN2 Label_2_01649595
 BYTE   PATT
  POIN2 Label_2_0164958E
 BYTE   PATT
  POIN2 Label_2_016495A1
 BYTE   PATT
  POIN2 Label_2_016495A8
 BYTE   PATT
  POIN2 Label_2_016495AF
 BYTE   PATT
  POIN2 Label_2_016495B9
 BYTE   PATT
  POIN2 Label_2_016495A8
 BYTE   PATT
  POIN2 Label_2_016495C8
 BYTE   PATT
  POIN2 Label_2_0164958E
 BYTE   PATT
  POIN2 Label_2_01649595
 BYTE   PATT
  POIN2 Label_2_0164958E
 BYTE   PATT
  POIN2 Label_2_016495C8
 BYTE   PATT
  POIN2 Label_2_016495E3
 BYTE   PATT
  POIN2 Label_2_016495EA
 BYTE   PATT
  POIN2 Label_2_016495F1
 BYTE   PATT
  POIN2 Label_2_016495FB
 BYTE   PATT
  POIN2 Label_2_01649580
 BYTE   PATT
  POIN2 Label_2_0164960A
 BYTE   PATT
  POIN2 Label_2_01649611
 BYTE   PATT
  POIN2 Label_2_01649595
 BYTE   PATT
  POIN2 Label_2_0164958E
 BYTE   PATT
  POIN2 Label_2_016495A1
 BYTE   PATT
  POIN2 Label_2_016495A8
 BYTE   PATT
  POIN2 Label_2_016495AF
 BYTE   PATT
  POIN2 Label_2_016495B9
 BYTE   PATT
  POIN2 Label_2_016495A8
 BYTE   PATT
  POIN2 Label_2_016495C8
 BYTE   PATT
  POIN2 Label_2_0164958E
 BYTE   PATT
  POIN2 Label_2_01649595
 BYTE   PATT
  POIN2 Label_2_0164958E
 BYTE   PATT
  POIN2 Label_2_016495A1
 BYTE   PATT
  POIN2 Label_2_01649654
 BYTE   PATT
  POIN2 Label_2_0164965B
// 027   ----------------------------------------
 BYTE   PAN   c_v+0
 BYTE   W05
 BYTE   N03  Gs3  v080
 BYTE   W96
// 028   ----------------------------------------
 BYTE   W96
// 029   ----------------------------------------
 BYTE   W96
// 030   ----------------------------------------
 BYTE   W96
// 031   ----------------------------------------
 BYTE   W96
// 032   ----------------------------------------
 BYTE   W96
// 033   ----------------------------------------
 BYTE   W96
// 034   ----------------------------------------
 BYTE   W96
// 035   ----------------------------------------
 BYTE   W96
// 036   ----------------------------------------
 BYTE   W96
// 037   ----------------------------------------
 BYTE   W96
// 038   ----------------------------------------
 BYTE   W96
// 039   ----------------------------------------
 BYTE   W06
 BYTE   N92  Fn2  v100
 BYTE   N92  As2
 BYTE   W04
 BYTE   N01  Fn2
 BYTE   N01  As2
 BYTE   W90
// 040   ----------------------------------------
 BYTE   W01
 BYTE   N92  Fs2
 BYTE   N92  Bn2
 BYTE   W04
 BYTE   N01  Fs2
 BYTE   N01  Bn2
 BYTE   W90
 BYTE   W01
// 041   ----------------------------------------
 BYTE   N92  Fn2
 BYTE   N92  As2
 BYTE   W04
 BYTE   N01  Fn2
 BYTE   N01  As2
 BYTE   W90
 BYTE   W01
 BYTE   N92  Fs2
 BYTE   N92  Bn2
 BYTE   W04
// 042   ----------------------------------------
 BYTE   N01  Fs2
 BYTE   N01  Bn2
 BYTE   W90
 BYTE   W01
 BYTE   N92  As2
 BYTE   W04
 BYTE   N01
 BYTE   W90
// 043   ----------------------------------------
 BYTE   W01
 BYTE   N92  Bn2
 BYTE   W04
 BYTE   N01
 BYTE   W90
 BYTE   W01
// 044   ----------------------------------------
 BYTE   N92  As2
 BYTE   W04
 BYTE   N01
 BYTE   W96
// 045   ----------------------------------------
 BYTE   W84
 BYTE   W01
 BYTE   GoTo
  POIN2 Label_2_01649570
 BYTE   FINE

//**************** Track 4 (Midi-Chn.3) ****************//

KirbyandtheAmazingMirrorDarkMindPhase2MeatOfJustice_004:
// 000   ----------------------------------------
Label_3_016497C8:
 BYTE   TEMPO   122*KirbyandtheAmazingMirrorDarkMindPhase2MeatOfJustice_tbs/2
 BYTE   KEYSH   KirbyandtheAmazingMirrorDarkMindPhase2MeatOfJustice_key+0
 BYTE   VOL   85*KirbyandtheAmazingMirrorDarkMindPhase2MeatOfJustice_mvl/mxv
 BYTE   PAN   c_v+0
 BYTE   VOICE   73
 BYTE   W96
// 001   ----------------------------------------
 BYTE   W96
// 002   ----------------------------------------
 BYTE   W96
// 003   ----------------------------------------
 BYTE   W96
// 004   ----------------------------------------
 BYTE   W96
// 005   ----------------------------------------
 BYTE   W96
// 006   ----------------------------------------
 BYTE   W96
// 007   ----------------------------------------
 BYTE   W96
// 008   ----------------------------------------
 BYTE   W96
// 009   ----------------------------------------
 BYTE   W96
// 010   ----------------------------------------
 BYTE   W12
Label_3_016497DD:
 BYTE   BEND   c_v-16
 BYTE   N06  Fn5  v100
 BYTE   W03
 BYTE   BEND   c_v+0
 BYTE   W03
 BYTE   N04  As5  v100
 BYTE   W06
 BYTE   N04
 BYTE   W06
 BYTE   PEND 
Label_3_016497ED:
 BYTE   BEND   c_v-16
 BYTE   N06  Ds6  v100
 BYTE   W03
 BYTE   BEND   c_v+0
 BYTE   W06
 BYTE   N03  Ds6  v100
 BYTE   W03
 BYTE   N22  Cs6
 BYTE   W24
 BYTE   N06  As5
 BYTE   W09
 BYTE   N03
 BYTE   W03
 BYTE   N15  Cn6
 BYTE   W18
 BYTE   PEND 
// 011   ----------------------------------------
Label_3_01649806:
 BYTE   BEND   c_v-16
 BYTE   N06  Cs6  v100
 BYTE   W03
 BYTE   BEND   c_v+0
 BYTE   W03
 BYTE   N06  Ds6  v100
 BYTE   W09
 BYTE   N03
 BYTE   W03
 BYTE   N06  Fn6
 BYTE   W09
 BYTE   N03
 BYTE   W03
 BYTE   N06  Cs6
 BYTE   W09
 BYTE   N03
 BYTE   W03
 BYTE   N44  An5
 BYTE   W02
 BYTE   N01
 BYTE   W60
// 012   ----------------------------------------
 BYTE   W03
 BYTE   N03  Fn5
 BYTE   W04
 BYTE   N01
 BYTE   W02
 BYTE   N03  Gn5
 BYTE   W04
 BYTE   N01
 BYTE   W02
 BYTE   N04  Gs5
 BYTE   W06
 BYTE   N04  As5
 BYTE   W06
 BYTE   N03  Cn6
 BYTE   W04
 BYTE   N01
 BYTE   W02
 BYTE   N03  Cs6
 BYTE   W04
 BYTE   N01
 BYTE   W02
 BYTE   PEND 
Label_3_01649840:
 BYTE   BEND   c_v-16
 BYTE   N06  Ds6  v100
 BYTE   W03
 BYTE   BEND   c_v+0
 BYTE   W03
 BYTE   N04  Cs6  v100
 BYTE   W06
 BYTE   N04
 BYTE   W06
 BYTE   N06  Cn6
 BYTE   W09
 BYTE   N03
 BYTE   W03
 BYTE   N16  Gs5
 BYTE   W18
 BYTE   N04  Gn5
 BYTE   W06
 BYTE   N04  Ds5
 BYTE   W06
// 013   ----------------------------------------
 BYTE   N04  Gn5
 BYTE   W06
 BYTE   N03  As5
 BYTE   W09
 BYTE   N03
 BYTE   W03
 BYTE   N06  Ds6
 BYTE   W09
 BYTE   N03
 BYTE   W03
 BYTE   PEND 
Label_3_0164986B:
 BYTE   BEND   c_v-32
 BYTE   N06  Gn6  v100
 BYTE   W03
 BYTE   BEND   c_v+0
 BYTE   W06
 BYTE   N03  Gn6  v100
 BYTE   W03
 BYTE   N06  Ds6
 BYTE   W09
 BYTE   N03
 BYTE   W03
 BYTE   N06  As5
 BYTE   W09
 BYTE   N03
 BYTE   W03
 BYTE   N06  Gn5
 BYTE   W06
 BYTE   N12  Ds5
 BYTE   W24
// 014   ----------------------------------------
 BYTE   N03  Fn5
 BYTE   N03  As5
 BYTE   W04
 BYTE   N01  Fn5
 BYTE   N01  As5
 BYTE   W02
 BYTE   N03  Fn5
 BYTE   N10  As5
 BYTE   W04
 BYTE   N01  Fn5
 BYTE   W02
 BYTE   N06
 BYTE   W06
 BYTE   N06  An5
 BYTE   N06  Cn6
 BYTE   W06
 BYTE   N03  As5
 BYTE   N03  Cs6
 BYTE   W04
 BYTE   N01  As5
 BYTE   N01  Cs6
 BYTE   W02
 BYTE   N03  Cn6
 BYTE   N03  Ds6
 BYTE   W04
 BYTE   N01  Cn6
 BYTE   N01  Ds6
 BYTE   W02
 BYTE   PEND 
Label_3_016498B6:
 BYTE   BEND   c_v-20
 BYTE   BEND   c_v-20
 BYTE   N06  Fn6  v100
 BYTE   N06  Cs6
 BYTE   W03
 BYTE   BEND   c_v+0
 BYTE   BEND   c_v+0
 BYTE   W03
 BYTE   N06  Cn6  v100
 BYTE   N06  Ds6
 BYTE   W09
 BYTE   N03  Cn6
 BYTE   N03  Ds6
 BYTE   W03
 BYTE   N06  As5
 BYTE   N06  Cs6
 BYTE   W09
 BYTE   N03  As5
 BYTE   N03  Cs6
 BYTE   W03
 BYTE   N18  Fn5
 BYTE   N18  As5
 BYTE   W18
 BYTE   PEND 
Label_3_016498E0:
 BYTE   BEND   c_v-22
 BYTE   BEND   c_v-22
 BYTE   N06  An5  v100
 BYTE   N06  Fn5
 BYTE   W03
 BYTE   BEND   c_v+0
 BYTE   BEND   c_v+0
 BYTE   W03
 BYTE   N04  Cn5  v100
 BYTE   N04  Ds5
 BYTE   W06
// 015   ----------------------------------------
 BYTE   N03  Cn5
 BYTE   N03  Fn5
 BYTE   W06
 BYTE   N03
 BYTE   N03  An5
 BYTE   W09
 BYTE   N03  Fn5
 BYTE   N03  An5
 BYTE   W03
 BYTE   N06
 BYTE   N06  Cn6
 BYTE   W09
 BYTE   N03  An5
 BYTE   N03  Cn6
 BYTE   W03
 BYTE   PEND 
Label_3_0164990D:
 BYTE   BEND   c_v-22
 BYTE   BEND   c_v-22
 BYTE   N06  Fn6  v100
 BYTE   N06  Cn6
 BYTE   W03
 BYTE   BEND   c_v+0
 BYTE   BEND   c_v+0
 BYTE   W06
 BYTE   N03  Cn6  v100
 BYTE   N03  Fn6
 BYTE   W03
 BYTE   N04  An5
 BYTE   N04  Cn6
 BYTE   W09
 BYTE   N03  An5
 BYTE   N03  Cn6
 BYTE   W03
 BYTE   N04  Fn5
 BYTE   N04  An5
 BYTE   W09
 BYTE   N03  Fn5
 BYTE   N03  An5
 BYTE   W03
 BYTE   N10  Cn5
 BYTE   N10  Fn5
 BYTE   W13
 BYTE   N04  Cn5
 BYTE   N04  Fn5
 BYTE   W17
// 016   ----------------------------------------
 BYTE   N03  Ds5
 BYTE   N03  Gs5
 BYTE   W04
 BYTE   N01  Ds5
 BYTE   N01  Gs5
 BYTE   W02
 BYTE   N03  Ds5
 BYTE   N03  Gs5
 BYTE   W04
 BYTE   N01  Ds5
 BYTE   N01  Gs5
 BYTE   W02
 BYTE   N06  Ds5
 BYTE   N06  Gs5
 BYTE   W06
 BYTE   N06  Gn5
 BYTE   N06  As5
 BYTE   W06
 BYTE   N03  Gs5
 BYTE   N03  Cn6
 BYTE   W06
 BYTE   PEND 
Label_3_01649964:
 BYTE   BEND   c_v-22
 BYTE   BEND   c_v-22
 BYTE   N04  Gs5  v100
 BYTE   N04  Ds5
 BYTE   W01
 BYTE   BEND   c_v+0
 BYTE   BEND   c_v+0
 BYTE   W08
 BYTE   N03  Ds5  v100
 BYTE   N03  Gs5
 BYTE   W03
 BYTE   N06  Cn5
 BYTE   N06  Ds5
 BYTE   W09
 BYTE   N03  Cn5
 BYTE   N03  Ds5
 BYTE   W03
 BYTE   N06  Gs4
 BYTE   N06  Cn5
 BYTE   W09
 BYTE   N03  Gs4
 BYTE   N03  Cn5
 BYTE   W03
 BYTE   PEND 
Label_3_0164998E:
 BYTE   BEND   c_v-22
 BYTE   BEND   c_v-22
 BYTE   N10  Ds5  v100
 BYTE   N10  Cn5
 BYTE   W03
 BYTE   BEND   c_v+0
 BYTE   BEND   c_v+0
 BYTE   W09
 BYTE   N04  Gs4  v100
 BYTE   N04  Cn5
 BYTE   W06
 BYTE   N06  As4
 BYTE   N06  Dn5
 BYTE   W06
 BYTE   N06  Cn5
 BYTE   N06  Ds5
 BYTE   W06
// 017   ----------------------------------------
 BYTE   N03  Dn5
 BYTE   N03  Fn5
 BYTE   W06
 BYTE   PEND 
Label_3_016499B3:
 BYTE   BEND   c_v-22
 BYTE   BEND   c_v-22
 BYTE   N04  As5  v100
 BYTE   N04  Fn5
 BYTE   W01
 BYTE   BEND   c_v+0
 BYTE   BEND   c_v+0
 BYTE   W08
 BYTE   N03  Fn5  v100
 BYTE   N03  As5
 BYTE   W03
 BYTE   N04  Dn5
 BYTE   N04  Fn5
 BYTE   W09
 BYTE   N03  Dn5
 BYTE   N03  Fn5
 BYTE   W03
 BYTE   PEND 
 BYTE   BEND   c_v-22
 BYTE   BEND   c_v-22
 BYTE   N28  As5  v100
 BYTE   N28  Dn6
 BYTE   W01
 BYTE   N01  As5
 BYTE   N01  Dn6
 BYTE   W01
 BYTE   BEND   c_v+0
 BYTE   BEND   c_v+0
 BYTE   W96
// 018   ----------------------------------------
 BYTE   W96
// 019   ----------------------------------------
 BYTE   W96
// 020   ----------------------------------------
 BYTE   W96
// 021   ----------------------------------------
 BYTE   W96
// 022   ----------------------------------------
 BYTE   W96
// 023   ----------------------------------------
 BYTE   W96
// 024   ----------------------------------------
 BYTE   W96
// 025   ----------------------------------------
 BYTE   W96
// 026   ----------------------------------------
 BYTE   W96
// 027   ----------------------------------------
 BYTE   W96
// 028   ----------------------------------------
 BYTE   W96
// 029   ----------------------------------------
 BYTE   W96
// 030   ----------------------------------------
 BYTE   W96
// 031   ----------------------------------------
 BYTE   W96
// 032   ----------------------------------------
 BYTE   W96
// 033   ----------------------------------------
 BYTE   W60
 BYTE   W03
 BYTE   PATT
  POIN2 Label_3_016497DD
 BYTE   PATT
  POIN2 Label_3_016497ED
 BYTE   PATT
  POIN2 Label_3_01649806
 BYTE   PATT
  POIN2 Label_3_01649840
 BYTE   PATT
  POIN2 Label_3_0164986B
 BYTE   PATT
  POIN2 Label_3_016498B6
 BYTE   PATT
  POIN2 Label_3_016498E0
 BYTE   PATT
  POIN2 Label_3_0164990D
 BYTE   PATT
  POIN2 Label_3_01649964
 BYTE   PATT
  POIN2 Label_3_0164998E
 BYTE   PATT
  POIN2 Label_3_016499B3
// 034   ----------------------------------------
 BYTE   BEND   c_v-22
 BYTE   BEND   c_v-22
 BYTE   N28  Dn6  v100
 BYTE   N28  As5
 BYTE   W01
 BYTE   N01
 BYTE   N01  Dn6
 BYTE   W01
 BYTE   BEND   c_v+0
 BYTE   BEND   c_v+0
 BYTE   W96
// 035   ----------------------------------------
 BYTE   W96
// 036   ----------------------------------------
 BYTE   W96
// 037   ----------------------------------------
 BYTE   W96
// 038   ----------------------------------------
 BYTE   W96
// 039   ----------------------------------------
 BYTE   W96
// 040   ----------------------------------------
 BYTE   W96
// 041   ----------------------------------------
 BYTE   W96
// 042   ----------------------------------------
 BYTE   W44
 BYTE   W01
 BYTE   GoTo
  POIN2 Label_3_016497C8
 BYTE   FINE

//**************** Track 5 (Midi-Chn.4) ****************//

KirbyandtheAmazingMirrorDarkMindPhase2MeatOfJustice_005:
// 000   ----------------------------------------
Label_4_01649A54:
 BYTE   TEMPO   122*KirbyandtheAmazingMirrorDarkMindPhase2MeatOfJustice_tbs/2
 BYTE   KEYSH   KirbyandtheAmazingMirrorDarkMindPhase2MeatOfJustice_key+0
 BYTE   VOL   85*KirbyandtheAmazingMirrorDarkMindPhase2MeatOfJustice_mvl/mxv
 BYTE   PAN   c_v+0
 BYTE   VOICE   1
 BYTE   W96
// 001   ----------------------------------------
 BYTE   W96
// 002   ----------------------------------------
 BYTE   W96
// 003   ----------------------------------------
 BYTE   W96
// 004   ----------------------------------------
 BYTE   W96
// 005   ----------------------------------------
 BYTE   W96
// 006   ----------------------------------------
 BYTE   W96
// 007   ----------------------------------------
 BYTE   W96
// 008   ----------------------------------------
 BYTE   W96
// 009   ----------------------------------------
 BYTE   W96
// 010   ----------------------------------------
 BYTE   W96
// 011   ----------------------------------------
 BYTE   W96
// 012   ----------------------------------------
 BYTE   W96
// 013   ----------------------------------------
 BYTE   W96
// 014   ----------------------------------------
 BYTE   W96
// 015   ----------------------------------------
 BYTE   W96
// 016   ----------------------------------------
 BYTE   W96
// 017   ----------------------------------------
 BYTE   W96
// 018   ----------------------------------------
 BYTE   W96
// 019   ----------------------------------------
 BYTE   W96
// 020   ----------------------------------------
 BYTE   W96
// 021   ----------------------------------------
 BYTE   W96
// 022   ----------------------------------------
 BYTE   W24
Label_4_01649A75:
 BYTE   PAN   c_v+0
 BYTE   N03  As2  v108
 BYTE   W04
 BYTE   Fn3  v104
 BYTE   W04
 BYTE   As3  v100
 BYTE   W04
 BYTE   Ds4  v098
 BYTE   W04
 BYTE   Fn4  v093
 BYTE   W04
 BYTE   As4  v089
 BYTE   W04
 BYTE   PEND 
Label_4_01649A8B:
 BYTE   PAN   c_v-20
 BYTE   N03  As2  v087
 BYTE   W04
 BYTE   Fn3  v082
 BYTE   W04
 BYTE   As3  v078
 BYTE   W04
 BYTE   Ds4  v075
 BYTE   W04
 BYTE   Fn4  v071
 BYTE   W04
 BYTE   As4  v066
 BYTE   W04
 BYTE   PEND 
Label_4_01649AA1:
 BYTE   PAN   c_v+20
 BYTE   N03  As2  v064
 BYTE   W04
 BYTE   Fn3  v060
 BYTE   W04
 BYTE   As3  v055
 BYTE   W04
 BYTE   Ds4  v053
 BYTE   W04
 BYTE   Fn4  v049
 BYTE   W04
 BYTE   As4  v044
 BYTE   W04
 BYTE   PEND 
// 023   ----------------------------------------
Label_4_01649AB7:
 BYTE   PAN   c_v+0
 BYTE   N03  Bn2  v104
 BYTE   W04
 BYTE   Fs3  v103
 BYTE   W04
 BYTE   Bn3  v100
 BYTE   W04
 BYTE   En4  v096
 BYTE   W04
 BYTE   Fs4  v095
 BYTE   W04
 BYTE   Bn4  v091
 BYTE   W04
 BYTE   PEND 
Label_4_01649ACD:
 BYTE   PAN   c_v+20
 BYTE   N03  Bn2  v088
 BYTE   W04
 BYTE   Fs3  v087
 BYTE   W04
 BYTE   Bn3  v083
 BYTE   W04
 BYTE   En4  v080
 BYTE   W04
 BYTE   Fs4  v078
 BYTE   W04
 BYTE   Bn4  v075
 BYTE   W04
 BYTE   PEND 
Label_4_01649AE3:
 BYTE   PAN   c_v-20
 BYTE   N03  Bn2  v072
 BYTE   W04
 BYTE   Fs3  v070
 BYTE   W04
 BYTE   Bn3  v067
 BYTE   W04
 BYTE   En4  v064
 BYTE   W04
 BYTE   Fs4  v062
 BYTE   W04
 BYTE   Bn4  v059
 BYTE   W04
 BYTE   PEND 
Label_4_01649AF9:
 BYTE   PAN   c_v+30
 BYTE   N03  Bn2  v056
 BYTE   W04
 BYTE   Fs3  v054
 BYTE   W04
 BYTE   Bn3  v051
 BYTE   W04
 BYTE   En4  v047
 BYTE   W04
 BYTE   Fs4  v046
 BYTE   W04
 BYTE   Bn4  v042
 BYTE   W28
 BYTE   PEND 
// 024   ----------------------------------------
Label_4_01649B0F:
 BYTE   PAN   c_v+0
 BYTE   N03  As2  v108
 BYTE   W04
 BYTE   Fn3  v107
 BYTE   W04
 BYTE   As3  v104
 BYTE   W04
 BYTE   Ds4  v099
 BYTE   W04
 BYTE   Fn4  v093
 BYTE   W04
 BYTE   As4  v091
 BYTE   W04
 BYTE   PEND 
Label_4_01649B25:
 BYTE   PAN   c_v-20
 BYTE   N03  As2  v085
 BYTE   W04
 BYTE   Fn3  v080
 BYTE   W04
 BYTE   As3  v077
 BYTE   W04
 BYTE   Ds4  v072
 BYTE   W04
 BYTE   Fn4  v067
 BYTE   W04
 BYTE   As4  v064
 BYTE   W04
 BYTE   PEND 
 BYTE   PAN   c_v+20
 BYTE   N03  As2  v059
 BYTE   W04
 BYTE   Fn3  v053
 BYTE   W04
 BYTE   As3  v051
 BYTE   W04
 BYTE   Ds4  v045
 BYTE   W04
 BYTE   Fn4  v040
 BYTE   W04
 BYTE   As4  v037
 BYTE   W96
// 025   ----------------------------------------
 BYTE   W96
// 026   ----------------------------------------
 BYTE   W96
// 027   ----------------------------------------
 BYTE   W96
// 028   ----------------------------------------
 BYTE   W96
// 029   ----------------------------------------
 BYTE   W96
// 030   ----------------------------------------
 BYTE   W96
// 031   ----------------------------------------
 BYTE   W96
// 032   ----------------------------------------
 BYTE   W96
// 033   ----------------------------------------
 BYTE   W96
// 034   ----------------------------------------
 BYTE   W96
// 035   ----------------------------------------
 BYTE   W96
// 036   ----------------------------------------
 BYTE   W96
// 037   ----------------------------------------
 BYTE   W96
// 038   ----------------------------------------
 BYTE   W96
// 039   ----------------------------------------
 BYTE   W96
// 040   ----------------------------------------
 BYTE   W96
// 041   ----------------------------------------
 BYTE   W96
// 042   ----------------------------------------
 BYTE   W96
// 043   ----------------------------------------
 BYTE   W96
// 044   ----------------------------------------
 BYTE   W96
// 045   ----------------------------------------
 BYTE   W28
 BYTE   PATT
  POIN2 Label_4_01649A75
 BYTE   PATT
  POIN2 Label_4_01649A8B
 BYTE   PATT
  POIN2 Label_4_01649AA1
 BYTE   PATT
  POIN2 Label_4_01649AB7
 BYTE   PATT
  POIN2 Label_4_01649ACD
 BYTE   PATT
  POIN2 Label_4_01649AE3
 BYTE   PATT
  POIN2 Label_4_01649AF9
 BYTE   PATT
  POIN2 Label_4_01649B0F
 BYTE   PATT
  POIN2 Label_4_01649B25
// 046   ----------------------------------------
 BYTE   PAN   c_v+20
 BYTE   N03  As2  v059
 BYTE   W04
 BYTE   Fn3  v053
 BYTE   W04
 BYTE   As3  v051
 BYTE   W04
 BYTE   Ds4  v045
 BYTE   W04
 BYTE   Fn4  v040
 BYTE   W04
 BYTE   As4  v037
 BYTE   W92
// 047   ----------------------------------------
 BYTE   W02
 BYTE   GoTo
  POIN2 Label_4_01649A54
 BYTE   FINE

//**************** Track 6 (Midi-Chn.5) ****************//

KirbyandtheAmazingMirrorDarkMindPhase2MeatOfJustice_006:
// 000   ----------------------------------------
Label_5_01649BB0:
 BYTE   TEMPO   122*KirbyandtheAmazingMirrorDarkMindPhase2MeatOfJustice_tbs/2
 BYTE   KEYSH   KirbyandtheAmazingMirrorDarkMindPhase2MeatOfJustice_key+0
 BYTE   VOL   90*KirbyandtheAmazingMirrorDarkMindPhase2MeatOfJustice_mvl/mxv
 BYTE   PAN   c_v+0
 BYTE   VOICE   18
 BYTE   W96
// 001   ----------------------------------------
 BYTE   W96
// 002   ----------------------------------------
 BYTE   W96
// 003   ----------------------------------------
 BYTE   W96
// 004   ----------------------------------------
 BYTE   W96
// 005   ----------------------------------------
 BYTE   W96
// 006   ----------------------------------------
 BYTE   W96
// 007   ----------------------------------------
 BYTE   W96
// 008   ----------------------------------------
 BYTE   W96
// 009   ----------------------------------------
 BYTE   W96
// 010   ----------------------------------------
 BYTE   N90  Cs5  v080
 BYTE   N90  Ds5
 BYTE   W96
// 011   ----------------------------------------
 BYTE   N92  Cs5
 BYTE   N92  Ds5
 BYTE   W04
 BYTE   N01  Cs5
 BYTE   N01  Ds5
 BYTE   W90
 BYTE   W01
 BYTE   N92  Cs5
 BYTE   N92  Ds5
 BYTE   W04
// 012   ----------------------------------------
 BYTE   N01  Cs5
 BYTE   N01  Ds5
 BYTE   W90
 BYTE   W01
 BYTE   N90  Cs5
 BYTE   N90  Ds5
 BYTE   W96
// 013   ----------------------------------------
 BYTE   N90
 BYTE   W96
// 014   ----------------------------------------
 BYTE   N92
 BYTE   W04
 BYTE   N01
 BYTE   W90
 BYTE   W01
 BYTE   N92
 BYTE   W04
// 015   ----------------------------------------
 BYTE   N01
 BYTE   W90
 BYTE   W01
 BYTE   N42
 BYTE   W48
// 016   ----------------------------------------
 BYTE   N21  Gs5
 BYTE   W24
 BYTE   N21  An5
 BYTE   W96
// 017   ----------------------------------------
 BYTE   W96
// 018   ----------------------------------------
 BYTE   W96
// 019   ----------------------------------------
 BYTE   W96
// 020   ----------------------------------------
 BYTE   W96
// 021   ----------------------------------------
 BYTE   W96
// 022   ----------------------------------------
 BYTE   W96
// 023   ----------------------------------------
 BYTE   W96
// 024   ----------------------------------------
 BYTE   W96
// 025   ----------------------------------------
 BYTE   W96
// 026   ----------------------------------------
 BYTE   W96
// 027   ----------------------------------------
 BYTE   W96
// 028   ----------------------------------------
 BYTE   W96
// 029   ----------------------------------------
 BYTE   W96
// 030   ----------------------------------------
 BYTE   W96
// 031   ----------------------------------------
 BYTE   W96
// 032   ----------------------------------------
 BYTE   W24
Label_5_01649C09:
 BYTE   N90  Cs5  v080
 BYTE   N90  Ds5
 BYTE   W96
 BYTE   PEND 
// 033   ----------------------------------------
Label_5_01649C10:
 BYTE   N92  Cs5  v080
 BYTE   N92  Ds5
 BYTE   W04
 BYTE   N01  Cs5
 BYTE   N01  Ds5
 BYTE   W90
 BYTE   W01
 BYTE   PEND 
 BYTE   PATT
  POIN2 Label_5_01649C10
 BYTE   PATT
  POIN2 Label_5_01649C09
// 034   ----------------------------------------
 BYTE   N90  Ds5  v080
 BYTE   W96
// 035   ----------------------------------------
Label_5_01649C2B:
 BYTE   N92  Ds5  v080
 BYTE   W04
 BYTE   N01
 BYTE   W90
 BYTE   W01
 BYTE   PEND 
 BYTE   PATT
  POIN2 Label_5_01649C2B
// 036   ----------------------------------------
 BYTE   N42  Ds5  v080
 BYTE   W48
 BYTE   N21  Gs5
 BYTE   W24
 BYTE   An5
 BYTE   W96
// 037   ----------------------------------------
 BYTE   W96
// 038   ----------------------------------------
 BYTE   W96
// 039   ----------------------------------------
 BYTE   W96
// 040   ----------------------------------------
 BYTE   W96
// 041   ----------------------------------------
 BYTE   W96
// 042   ----------------------------------------
 BYTE   W96
// 043   ----------------------------------------
 BYTE   W96
// 044   ----------------------------------------
 BYTE   W18
 BYTE   GoTo
  POIN2 Label_5_01649BB0
 BYTE   FINE

//**************** Track 7 (Midi-Chn.6) ****************//

KirbyandtheAmazingMirrorDarkMindPhase2MeatOfJustice_007:
// 000   ----------------------------------------
Label_6_01649C50:
 BYTE   TEMPO   122*KirbyandtheAmazingMirrorDarkMindPhase2MeatOfJustice_tbs/2
 BYTE   KEYSH   KirbyandtheAmazingMirrorDarkMindPhase2MeatOfJustice_key+0
 BYTE   VOL   90*KirbyandtheAmazingMirrorDarkMindPhase2MeatOfJustice_mvl/mxv
 BYTE   PAN   c_v+0
 BYTE   VOICE   110
 BYTE   W06
 BYTE   N08  Dn3  v100
 BYTE   W18
 BYTE   N08  Ds3
 BYTE   W18
 BYTE   N08  En3
 BYTE   W18
 BYTE   N08  Fn3
 BYTE   W18
 BYTE   N08  Fs3
 BYTE   W96
// 001   ----------------------------------------
 BYTE   W96
// 002   ----------------------------------------
 BYTE   W96
// 003   ----------------------------------------
 BYTE   W96
// 004   ----------------------------------------
 BYTE   W96
// 005   ----------------------------------------
 BYTE   W96
// 006   ----------------------------------------
 BYTE   W96
// 007   ----------------------------------------
 BYTE   W96
// 008   ----------------------------------------
 BYTE   W96
// 009   ----------------------------------------
 BYTE   W96
// 010   ----------------------------------------
 BYTE   W96
// 011   ----------------------------------------
 BYTE   W96
// 012   ----------------------------------------
 BYTE   W96
// 013   ----------------------------------------
 BYTE   W96
// 014   ----------------------------------------
 BYTE   W96
// 015   ----------------------------------------
 BYTE   W96
// 016   ----------------------------------------
 BYTE   W96
// 017   ----------------------------------------
 BYTE   W96
// 018   ----------------------------------------
 BYTE   W96
// 019   ----------------------------------------
 BYTE   W96
// 020   ----------------------------------------
 BYTE   W96
// 021   ----------------------------------------
 BYTE   W96
// 022   ----------------------------------------
 BYTE   W96
// 023   ----------------------------------------
 BYTE   W96
// 024   ----------------------------------------
 BYTE   W24
 BYTE   N03  Gn4
 BYTE   W18
 BYTE   Gs4
 BYTE   W18
 BYTE   An4
 BYTE   W18
 BYTE   As4
 BYTE   W12
 BYTE   N06  Bn4
 BYTE   W06
// 025   ----------------------------------------
 BYTE   Bn4
 BYTE   W06
 BYTE   Cn5
 BYTE   W06
 BYTE   Cn5
 BYTE   W96
// 026   ----------------------------------------
 BYTE   W96
// 027   ----------------------------------------
 BYTE   W96
// 028   ----------------------------------------
 BYTE   W96
// 029   ----------------------------------------
 BYTE   W96
// 030   ----------------------------------------
 BYTE   W96
// 031   ----------------------------------------
 BYTE   W96
// 032   ----------------------------------------
 BYTE   W96
// 033   ----------------------------------------
 BYTE   W96
// 034   ----------------------------------------
 BYTE   W96
// 035   ----------------------------------------
 BYTE   W96
// 036   ----------------------------------------
 BYTE   W96
// 037   ----------------------------------------
 BYTE   W96
// 038   ----------------------------------------
 BYTE   W96
// 039   ----------------------------------------
 BYTE   W96
// 040   ----------------------------------------
 BYTE   W96
// 041   ----------------------------------------
 BYTE   W96
// 042   ----------------------------------------
 BYTE   W96
// 043   ----------------------------------------
 BYTE   W96
// 044   ----------------------------------------
 BYTE   W96
// 045   ----------------------------------------
 BYTE   W96
// 046   ----------------------------------------
 BYTE   W96
// 047   ----------------------------------------
 BYTE   W96
// 048   ----------------------------------------
 BYTE   W12
 BYTE   N03  Gn4
 BYTE   W18
 BYTE   Gs4
 BYTE   W18
 BYTE   An4
 BYTE   W18
 BYTE   As4
 BYTE   W12
 BYTE   N06  Bn4
 BYTE   W06
 BYTE   Bn4
 BYTE   W06
 BYTE   Cn5
 BYTE   W06
// 049   ----------------------------------------
 BYTE   Cn5
 BYTE   GoTo
  POIN2 Label_6_01649C50
 BYTE   FINE

//******************************************************//
	ALIGN 4

KirbyandtheAmazingMirrorDarkMindPhase2MeatOfJustice:
	BYTE	7	// NumTrks
	BYTE	0	// NumBlks
	BYTE	KirbyandtheAmazingMirrorDarkMindPhase2MeatOfJustice_pri	// Priority
	BYTE	KirbyandtheAmazingMirrorDarkMindPhase2MeatOfJustice_rev	// Reverb.
    
	POIN2	KirbyandtheAmazingMirrorDarkMindPhase2MeatOfJustice_grp
    
	POIN2	KirbyandtheAmazingMirrorDarkMindPhase2MeatOfJustice_001
	POIN2	KirbyandtheAmazingMirrorDarkMindPhase2MeatOfJustice_002
	POIN2	KirbyandtheAmazingMirrorDarkMindPhase2MeatOfJustice_003
	POIN2	KirbyandtheAmazingMirrorDarkMindPhase2MeatOfJustice_004
	POIN2	KirbyandtheAmazingMirrorDarkMindPhase2MeatOfJustice_005
	POIN2	KirbyandtheAmazingMirrorDarkMindPhase2MeatOfJustice_006
	POIN2	KirbyandtheAmazingMirrorDarkMindPhase2MeatOfJustice_007

	
