//Event file generated from Sappy .s format.
	#include "MPlayDef.event"

	#define	LocksQuestWarMachine_grp  voicegroup000
	#define	LocksQuestWarMachine_pri  0
	#define	LocksQuestWarMachine_rev  0
	#define	LocksQuestWarMachine_mvl  127
	#define	LocksQuestWarMachine_key  0
	#define	LocksQuestWarMachine_tbs  1
	#define	LocksQuestWarMachine_exg  0
	#define	LocksQuestWarMachine_cmp  1

	// .rodata
	//	LocksQuestWarMachine
	ALIGN 4


//**************** Track 1 (Midi-Chn.0) ****************//

LocksQuestWarMachine_001:
//  #01 //000   ----------------------------------------
 BYTE   VOL   80*LocksQuestWarMachine_mvl/mxv
 BYTE   KEYSH   LocksQuestWarMachine_key+0
Label_015CF29C:
 BYTE   TEMPO   162*LocksQuestWarMachine_tbs/2
 BYTE   VOICE   40
 BYTE   MODT 0
 BYTE   LFOS 44
 BYTE   W96
//  #01 //001   ----------------------------------------
 BYTE   W96
//  #01 //002   ----------------------------------------
 BYTE   W96
//  #01 //003   ----------------------------------------
 BYTE   W96
//  #01 //004   ----------------------------------------
 BYTE   W96
//  #01 //005   ----------------------------------------
 BYTE   W96
//  #01 //006   ----------------------------------------
 BYTE   W96
//  #01 //007   ----------------------------------------
 BYTE   W96
//  #01 //008   ----------------------------------------
 BYTE   W96
//  #01 //009   ----------------------------------------
 BYTE   W96
//  #01 //010   ----------------------------------------
 BYTE   W96
//  #01 //011   ----------------------------------------
 BYTE   W96
//  #01 //012   ----------------------------------------
 BYTE   W96
//  #01 //013   ----------------------------------------
 BYTE   W96
//  #01 //014   ----------------------------------------
 BYTE   W96
//  #01 //015   ----------------------------------------
 BYTE   W96
//  #01 //016   ----------------------------------------
 BYTE   W96
//  #01 //017   ----------------------------------------
 BYTE   W96
//  #01 //018   ----------------------------------------
 BYTE   W96
//  #01 //019   ----------------------------------------
 BYTE   W96
//  #01 //020   ----------------------------------------
 BYTE   W96
//  #01 //021   ----------------------------------------
 BYTE   W96
//  #01 //022   ----------------------------------------
 BYTE   W96
//  #01 //023   ----------------------------------------
 BYTE   W96
//  #01 //024   ----------------------------------------
 BYTE   TIE  An1  v056
 BYTE   W96
//  #01 //025   ----------------------------------------
 BYTE   W96
//  #01 //026   ----------------------------------------
 BYTE   W96
//  #01 //027   ----------------------------------------
 BYTE   EOT
 BYTE   N96  Bn1  v060
 BYTE   W96
//  #01 //028   ----------------------------------------
 BYTE   TIE  Fn1
 BYTE   TIE  Gs1
 BYTE   W96
//  #01 //029   ----------------------------------------
 BYTE   W96
//  #01 //030   ----------------------------------------
 BYTE   EOT
 BYTE   W96
//  #01 //031   ----------------------------------------
 BYTE   Fn1
 BYTE   N96  En1
 BYTE   W96
//  #01 //032   ----------------------------------------
 BYTE   W96
//  #01 //033   ----------------------------------------
 BYTE   W96
//  #01 //034   ----------------------------------------
 BYTE   W96
//  #01 //035   ----------------------------------------
 BYTE   W96
//  #01 //036   ----------------------------------------
 BYTE   W96
//  #01 //037   ----------------------------------------
 BYTE   W96
//  #01 //038   ----------------------------------------
 BYTE   W96
//  #01 //039   ----------------------------------------
 BYTE   W96
//  #01 //040   ----------------------------------------
 BYTE   TIE  An2  v048
 BYTE   W96
//  #01 //041   ----------------------------------------
 BYTE   W96
//  #01 //042   ----------------------------------------
 BYTE   W96
//  #01 //043   ----------------------------------------
 BYTE   EOT
 BYTE   N96  Bn2
 BYTE   W96
//  #01 //044   ----------------------------------------
 BYTE   TIE  Fn2
 BYTE   TIE  Gs2
 BYTE   W96
//  #01 //045   ----------------------------------------
 BYTE   W96
//  #01 //046   ----------------------------------------
 BYTE   EOT
 BYTE   W96
//  #01 //047   ----------------------------------------
 BYTE   Fn2
 BYTE   N96  En2  v052
 BYTE   W96
//  #01 //048   ----------------------------------------
 BYTE   TIE  An2  v056
 BYTE   TIE  An3
 BYTE   W96
//  #01 //049   ----------------------------------------
 BYTE   W96
//  #01 //050   ----------------------------------------
 BYTE   W96
//  #01 //051   ----------------------------------------
 BYTE   EOT
 BYTE   An2  v069
 BYTE   N96  Bn2
 BYTE   N96  Bn3
 BYTE   W96
//  #01 //052   ----------------------------------------
 BYTE   TIE  Gs2
 BYTE   TIE  Gs3
 BYTE   W96
//  #01 //053   ----------------------------------------
 BYTE   W96
//  #01 //054   ----------------------------------------
 BYTE   EOT
 BYTE   Gs2  v068
 BYTE   W96
//  #01 //055   ----------------------------------------
 BYTE   W96
//  #01 //056   ----------------------------------------
 BYTE   W96
//  #01 //057   ----------------------------------------
 BYTE   W96
//  #01 //058   ----------------------------------------
 BYTE   W96
//  #01 //059   ----------------------------------------
 BYTE   W96
//  #01 //060   ----------------------------------------
 BYTE   GoTo
  POIN2 Label_015CF29C
 BYTE   FINE

//**************** Track 2 (Midi-Chn.1) ****************//

LocksQuestWarMachine_002:
//  #02 //000   ----------------------------------------
 BYTE   KEYSH   LocksQuestWarMachine_key+0
Label_015CDA0E:
 BYTE   VOICE   117
 BYTE   MODT 0
 BYTE   LFOS 44
 BYTE   VOL   70*LocksQuestWarMachine_mvl/mxv
 BYTE   N11  Cn1  v100
 BYTE   W84
 BYTE   N04  An1  v056
 BYTE   W12
//  #02 //001   ----------------------------------------
Label_015CDA1E:
 BYTE   N09  An1  v056
 BYTE   W36
 BYTE   N12  Cn1  v100
 BYTE   W12
 BYTE   N12
 BYTE   W24
 BYTE   N12
 BYTE   W24
 BYTE   PEND 
//  #02 //002   ----------------------------------------
Label_015CDA2B:
 BYTE   N12  Cn1  v100
 BYTE   W84
 BYTE   N05  An1  v056
 BYTE   W12
 BYTE   PEND 
//  #02 //003   ----------------------------------------
Label_015CDA34:
 BYTE   N07  An1  v056
 BYTE   W36
 BYTE   N12  Cn1  v100
 BYTE   W12
 BYTE   N12
 BYTE   W24
 BYTE   N12
 BYTE   W24
 BYTE   PEND 
//  #02 //004   ----------------------------------------
Label_015CDA41:
 BYTE   N12  Cn1  v100
 BYTE   W84
 BYTE   N04  An1  v056
 BYTE   W12
 BYTE   PEND 
//  #02 //005   ----------------------------------------
 BYTE   PATT
  POIN2 Label_015CDA1E
//  #02 //006   ----------------------------------------
 BYTE   PATT
  POIN2 Label_015CDA2B
//  #02 //007   ----------------------------------------
Label_015CDA54:
 BYTE   N07  An1  v056
 BYTE   W72
 BYTE   N24  Cn1  v100
 BYTE   W24
 BYTE   PEND 
//  #02 //008   ----------------------------------------
Label_015CDA5D:
 BYTE   N48  Dn1  v120
 BYTE   W84
 BYTE   N04  An1  v056
 BYTE   W12
 BYTE   PEND 
//  #02 //009   ----------------------------------------
 BYTE   PATT
  POIN2 Label_015CDA1E
//  #02 //010   ----------------------------------------
 BYTE   PATT
  POIN2 Label_015CDA2B
//  #02 //011   ----------------------------------------
 BYTE   PATT
  POIN2 Label_015CDA34
//  #02 //012   ----------------------------------------
 BYTE   N12  Cn1  v100
 BYTE   N48  Dn1  v120
 BYTE   W84
 BYTE   N04  An1  v056
 BYTE   W12
//  #02 //013   ----------------------------------------
 BYTE   PATT
  POIN2 Label_015CDA1E
//  #02 //014   ----------------------------------------
 BYTE   PATT
  POIN2 Label_015CDA2B
//  #02 //015   ----------------------------------------
 BYTE   PATT
  POIN2 Label_015CDA54
//  #02 //016   ----------------------------------------
 BYTE   PATT
  POIN2 Label_015CDA5D
//  #02 //017   ----------------------------------------
 BYTE   N09  An1  v056
 BYTE   W96
//  #02 //018   ----------------------------------------
 BYTE   W84
 BYTE   N05
 BYTE   W12
//  #02 //019   ----------------------------------------
 BYTE   N07
 BYTE   W96
//  #02 //020   ----------------------------------------
 BYTE   PATT
  POIN2 Label_015CDA5D
//  #02 //021   ----------------------------------------
 BYTE   N09  An1  v056
 BYTE   W96
//  #02 //022   ----------------------------------------
 BYTE   W84
 BYTE   N05
 BYTE   W12
//  #02 //023   ----------------------------------------
 BYTE   N07
 BYTE   W96
//  #02 //024   ----------------------------------------
 BYTE   PATT
  POIN2 Label_015CDA5D
//  #02 //025   ----------------------------------------
 BYTE   PATT
  POIN2 Label_015CDA1E
//  #02 //026   ----------------------------------------
 BYTE   PATT
  POIN2 Label_015CDA2B
//  #02 //027   ----------------------------------------
 BYTE   PATT
  POIN2 Label_015CDA34
//  #02 //028   ----------------------------------------
 BYTE   PATT
  POIN2 Label_015CDA41
//  #02 //029   ----------------------------------------
 BYTE   PATT
  POIN2 Label_015CDA1E
//  #02 //030   ----------------------------------------
 BYTE   PATT
  POIN2 Label_015CDA2B
//  #02 //031   ----------------------------------------
 BYTE   PATT
  POIN2 Label_015CDA54
//  #02 //032   ----------------------------------------
 BYTE   N12  Cn1  v076
 BYTE   N96  En1  v127
 BYTE   W36
 BYTE   N12  Cn1  v076
 BYTE   W12
 BYTE   N12
 BYTE   W48
//  #02 //033   ----------------------------------------
 BYTE   Cn1  v080
 BYTE   W48
 BYTE   N12
 BYTE   W48
//  #02 //034   ----------------------------------------
 BYTE   N12
 BYTE   W36
 BYTE   Cn1  v084
 BYTE   W12
 BYTE   N12
 BYTE   W48
//  #02 //035   ----------------------------------------
 BYTE   N12
 BYTE   W72
 BYTE   Cn1  v088
 BYTE   W24
//  #02 //036   ----------------------------------------
 BYTE   Cn1  v092
 BYTE   W36
 BYTE   N12
 BYTE   W12
 BYTE   N12
 BYTE   W48
//  #02 //037   ----------------------------------------
 BYTE   Cn1  v096
 BYTE   W36
 BYTE   Cn1  v100
 BYTE   W12
 BYTE   Cn1  v104
 BYTE   W48
//  #02 //038   ----------------------------------------
 BYTE   Cn1  v108
 BYTE   W36
 BYTE   Cn1  v112
 BYTE   W12
 BYTE   N12
 BYTE   W48
//  #02 //039   ----------------------------------------
 BYTE   W24
 BYTE   Cn1  v120
 BYTE   W12
 BYTE   N12
 BYTE   W12
 BYTE   Cn1  v124
 BYTE   W12
 BYTE   N12
 BYTE   W12
 BYTE   Cn1  v127
 BYTE   W24
//  #02 //040   ----------------------------------------
 BYTE   W96
//  #02 //041   ----------------------------------------
 BYTE   W96
//  #02 //042   ----------------------------------------
 BYTE   W96
//  #02 //043   ----------------------------------------
 BYTE   W96
//  #02 //044   ----------------------------------------
 BYTE   W84
 BYTE   N04  An1  v056
 BYTE   W12
//  #02 //045   ----------------------------------------
 BYTE   N09
 BYTE   W96
//  #02 //046   ----------------------------------------
 BYTE   W84
 BYTE   N05
 BYTE   W12
//  #02 //047   ----------------------------------------
 BYTE   N07
 BYTE   W96
//  #02 //048   ----------------------------------------
 BYTE   W96
//  #02 //049   ----------------------------------------
 BYTE   W48
 BYTE   N96  En1  v127
 BYTE   W48
//  #02 //050   ----------------------------------------
 BYTE   W96
//  #02 //051   ----------------------------------------
 BYTE   W48
 BYTE   N96
 BYTE   W48
//  #02 //052   ----------------------------------------
 BYTE   W96
//  #02 //053   ----------------------------------------
 BYTE   W48
 BYTE   N96
 BYTE   W48
//  #02 //054   ----------------------------------------
 BYTE   W96
//  #02 //055   ----------------------------------------
 BYTE   W96
//  #02 //056   ----------------------------------------
 BYTE   N96
 BYTE   W96
//  #02 //057   ----------------------------------------
 BYTE   W96
//  #02 //058   ----------------------------------------
 BYTE   W96
//  #02 //059   ----------------------------------------
 BYTE   W96
//  #02 //060   ----------------------------------------
 BYTE   GoTo
  POIN2 Label_015CDA0E
//  #02 //061   ----------------------------------------
 BYTE   N96  En1  v127
 BYTE   W96
//  #02 //062   ----------------------------------------
 BYTE   W36
 BYTE   N12  Cn1  v100
 BYTE   W12
 BYTE   N12
 BYTE   W24
 BYTE   N12
 BYTE   W24
//  #02 //063   ----------------------------------------
 BYTE   N12
 BYTE   W96
//  #02 //064   ----------------------------------------
 BYTE   W72
 BYTE   N24
 BYTE   W24
 BYTE   FINE

//**************** Track 3 (Midi-Chn.2) ****************//

LocksQuestWarMachine_003:
//  #03 //000   ----------------------------------------
 BYTE   KEYSH   LocksQuestWarMachine_key+0
Label_017A2186:
 BYTE   VOICE   14
 BYTE   MODT 0
 BYTE   LFOS 44
 BYTE   VOL   51*LocksQuestWarMachine_mvl/mxv
 BYTE   TIE  An4  v088
 BYTE   W12
 BYTE   VOL   51*LocksQuestWarMachine_mvl/mxv
 BYTE   W01
 BYTE   VOL   51*LocksQuestWarMachine_mvl/mxv
 BYTE   W01
 BYTE   VOL   51*LocksQuestWarMachine_mvl/mxv
 BYTE   W01
 BYTE   VOL   50*LocksQuestWarMachine_mvl/mxv
 BYTE   W01
 BYTE   VOL   49*LocksQuestWarMachine_mvl/mxv
 BYTE   W02
 BYTE   VOL   47*LocksQuestWarMachine_mvl/mxv
 BYTE   W01
 BYTE   VOL   46*LocksQuestWarMachine_mvl/mxv
 BYTE   W02
 BYTE   VOL   45*LocksQuestWarMachine_mvl/mxv
 BYTE   W01
 BYTE   VOL   45*LocksQuestWarMachine_mvl/mxv
 BYTE   W01
 BYTE   VOL   44*LocksQuestWarMachine_mvl/mxv
 BYTE   W01
 BYTE   VOL   43*LocksQuestWarMachine_mvl/mxv
 BYTE   W02
 BYTE   VOL   42*LocksQuestWarMachine_mvl/mxv
 BYTE   W01
 BYTE   VOL   41*LocksQuestWarMachine_mvl/mxv
 BYTE   W01
 BYTE   VOL   40*LocksQuestWarMachine_mvl/mxv
 BYTE   W01
 BYTE   VOL   40*LocksQuestWarMachine_mvl/mxv
 BYTE   W02
 BYTE   VOL   39*LocksQuestWarMachine_mvl/mxv
 BYTE   W01
 BYTE   VOL   38*LocksQuestWarMachine_mvl/mxv
 BYTE   W01
 BYTE   VOL   37*LocksQuestWarMachine_mvl/mxv
 BYTE   W01
 BYTE   VOL   37*LocksQuestWarMachine_mvl/mxv
 BYTE   W01
 BYTE   VOL   36*LocksQuestWarMachine_mvl/mxv
 BYTE   W01
 BYTE   VOL   35*LocksQuestWarMachine_mvl/mxv
 BYTE   W02
 BYTE   VOL   34*LocksQuestWarMachine_mvl/mxv
 BYTE   W02
 BYTE   VOL   33*LocksQuestWarMachine_mvl/mxv
 BYTE   W02
 BYTE   VOL   32*LocksQuestWarMachine_mvl/mxv
 BYTE   W01
 BYTE   VOL   30*LocksQuestWarMachine_mvl/mxv
 BYTE   W02
 BYTE   VOL   30*LocksQuestWarMachine_mvl/mxv
 BYTE   W01
 BYTE   VOL   29*LocksQuestWarMachine_mvl/mxv
 BYTE   W01
 BYTE   VOL   28*LocksQuestWarMachine_mvl/mxv
 BYTE   W01
 BYTE   VOL   28*LocksQuestWarMachine_mvl/mxv
 BYTE   W01
 BYTE   VOL   27*LocksQuestWarMachine_mvl/mxv
 BYTE   W02
 BYTE   VOL   27*LocksQuestWarMachine_mvl/mxv
 BYTE   W01
 BYTE   VOL   26*LocksQuestWarMachine_mvl/mxv
 BYTE   W01
 BYTE   VOL   25*LocksQuestWarMachine_mvl/mxv
 BYTE   W01
 BYTE   VOL   24*LocksQuestWarMachine_mvl/mxv
 BYTE   W02
 BYTE   VOL   23*LocksQuestWarMachine_mvl/mxv
 BYTE   W01
 BYTE   VOL   23*LocksQuestWarMachine_mvl/mxv
 BYTE   W01
 BYTE   VOL   22*LocksQuestWarMachine_mvl/mxv
 BYTE   W01
 BYTE   VOL   22*LocksQuestWarMachine_mvl/mxv
 BYTE   W01
 BYTE   VOL   21*LocksQuestWarMachine_mvl/mxv
 BYTE   W02
 BYTE   VOL   20*LocksQuestWarMachine_mvl/mxv
 BYTE   W01
 BYTE   VOL   19*LocksQuestWarMachine_mvl/mxv
 BYTE   W02
 BYTE   VOL   19*LocksQuestWarMachine_mvl/mxv
 BYTE   W01
 BYTE   VOL   18*LocksQuestWarMachine_mvl/mxv
 BYTE   W02
 BYTE   VOL   17*LocksQuestWarMachine_mvl/mxv
 BYTE   W02
 BYTE   VOL   17*LocksQuestWarMachine_mvl/mxv
 BYTE   W02
 BYTE   VOL   16*LocksQuestWarMachine_mvl/mxv
 BYTE   W01
 BYTE   VOL   15*LocksQuestWarMachine_mvl/mxv
 BYTE   W01
 BYTE   VOL   14*LocksQuestWarMachine_mvl/mxv
 BYTE   W02
 BYTE   VOL   14*LocksQuestWarMachine_mvl/mxv
 BYTE   W01
 BYTE   VOL   13*LocksQuestWarMachine_mvl/mxv
 BYTE   W01
 BYTE   VOL   13*LocksQuestWarMachine_mvl/mxv
 BYTE   W01
 BYTE   VOL   12*LocksQuestWarMachine_mvl/mxv
 BYTE   W02
 BYTE   VOL   11*LocksQuestWarMachine_mvl/mxv
 BYTE   W01
 BYTE   VOL   11*LocksQuestWarMachine_mvl/mxv
 BYTE   W01
 BYTE   VOL   11*LocksQuestWarMachine_mvl/mxv
 BYTE   W01
 BYTE   VOL   10*LocksQuestWarMachine_mvl/mxv
 BYTE   W02
 BYTE   VOL   10*LocksQuestWarMachine_mvl/mxv
 BYTE   W01
 BYTE   VOL   10*LocksQuestWarMachine_mvl/mxv
 BYTE   W01
 BYTE   VOL   9*LocksQuestWarMachine_mvl/mxv
 BYTE   W01
 BYTE   VOL   8*LocksQuestWarMachine_mvl/mxv
 BYTE   W01
 BYTE   VOL   8*LocksQuestWarMachine_mvl/mxv
 BYTE   W01
 BYTE   VOL   8*LocksQuestWarMachine_mvl/mxv
 BYTE   W02
 BYTE   VOL   6*LocksQuestWarMachine_mvl/mxv
 BYTE   W02
 BYTE   VOL   6*LocksQuestWarMachine_mvl/mxv
 BYTE   W01
//  #03 //001   ----------------------------------------
 BYTE   VOL   6*LocksQuestWarMachine_mvl/mxv
 BYTE   W02
 BYTE   VOL   5*LocksQuestWarMachine_mvl/mxv
 BYTE   W02
 BYTE   VOL   5*LocksQuestWarMachine_mvl/mxv
 BYTE   W01
 BYTE   VOL   4*LocksQuestWarMachine_mvl/mxv
 BYTE   W03
 BYTE   VOL   4*LocksQuestWarMachine_mvl/mxv
 BYTE   W02
 BYTE   VOL   3*LocksQuestWarMachine_mvl/mxv
 BYTE   W02
 BYTE   VOL   3*LocksQuestWarMachine_mvl/mxv
 BYTE   W02
 BYTE   VOL   3*LocksQuestWarMachine_mvl/mxv
 BYTE   W02
 BYTE   VOL   3*LocksQuestWarMachine_mvl/mxv
 BYTE   W02
 BYTE   VOL   2*LocksQuestWarMachine_mvl/mxv
 BYTE   W03
 BYTE   VOL   2*LocksQuestWarMachine_mvl/mxv
 BYTE   W02
 BYTE   VOL   2*LocksQuestWarMachine_mvl/mxv
 BYTE   W02
 BYTE   VOL   1*LocksQuestWarMachine_mvl/mxv
 BYTE   W02
 BYTE   VOL   1*LocksQuestWarMachine_mvl/mxv
 BYTE   W02
 BYTE   VOL   1*LocksQuestWarMachine_mvl/mxv
 BYTE   W02
 BYTE   VOL   1*LocksQuestWarMachine_mvl/mxv
 BYTE   W03
 BYTE   VOL   1*LocksQuestWarMachine_mvl/mxv
 BYTE   W01
 BYTE   VOL   1*LocksQuestWarMachine_mvl/mxv
 BYTE   W03
 BYTE   VOL   0*LocksQuestWarMachine_mvl/mxv
 BYTE   W02
 BYTE   VOL   0*LocksQuestWarMachine_mvl/mxv
 BYTE   W02
 BYTE   VOL   0*LocksQuestWarMachine_mvl/mxv
 BYTE   W02
 BYTE   VOL   0*LocksQuestWarMachine_mvl/mxv
 BYTE   W03
 BYTE   VOL   0*LocksQuestWarMachine_mvl/mxv
 BYTE   W01
 BYTE   EOT
 BYTE   VOL   0*LocksQuestWarMachine_mvl/mxv
 BYTE   W03
 BYTE   VOL   0*LocksQuestWarMachine_mvl/mxv
 BYTE   W02
 BYTE   VOL   0*LocksQuestWarMachine_mvl/mxv
 BYTE   W02
 BYTE   VOL   0*LocksQuestWarMachine_mvl/mxv
 BYTE   W40
 BYTE   W01
//  #03 //002   ----------------------------------------
 BYTE   W96
//  #03 //003   ----------------------------------------
 BYTE   W96
//  #03 //004   ----------------------------------------
 BYTE   W96
//  #03 //005   ----------------------------------------
 BYTE   W96
//  #03 //006   ----------------------------------------
 BYTE   W96
//  #03 //007   ----------------------------------------
 BYTE   W60
 BYTE   VOL   43*LocksQuestWarMachine_mvl/mxv
 BYTE   W36
//  #03 //008   ----------------------------------------
 BYTE   W96
//  #03 //009   ----------------------------------------
 BYTE   W96
//  #03 //010   ----------------------------------------
 BYTE   W96
//  #03 //011   ----------------------------------------
 BYTE   W96
//  #03 //012   ----------------------------------------
 BYTE   W96
//  #03 //013   ----------------------------------------
 BYTE   W96
//  #03 //014   ----------------------------------------
 BYTE   W96
//  #03 //015   ----------------------------------------
 BYTE   W96
//  #03 //016   ----------------------------------------
 BYTE   VOL   51*LocksQuestWarMachine_mvl/mxv
 BYTE   TIE  An2  v116
 BYTE   TIE  An3
 BYTE   W12
 BYTE   VOL   51*LocksQuestWarMachine_mvl/mxv
 BYTE   W01
 BYTE   VOL   51*LocksQuestWarMachine_mvl/mxv
 BYTE   W01
 BYTE   VOL   51*LocksQuestWarMachine_mvl/mxv
 BYTE   W01
 BYTE   VOL   50*LocksQuestWarMachine_mvl/mxv
 BYTE   W01
 BYTE   VOL   49*LocksQuestWarMachine_mvl/mxv
 BYTE   W02
 BYTE   VOL   47*LocksQuestWarMachine_mvl/mxv
 BYTE   W01
 BYTE   VOL   46*LocksQuestWarMachine_mvl/mxv
 BYTE   W02
 BYTE   VOL   45*LocksQuestWarMachine_mvl/mxv
 BYTE   W01
 BYTE   VOL   45*LocksQuestWarMachine_mvl/mxv
 BYTE   W01
 BYTE   VOL   44*LocksQuestWarMachine_mvl/mxv
 BYTE   W01
 BYTE   VOL   43*LocksQuestWarMachine_mvl/mxv
 BYTE   W02
 BYTE   VOL   42*LocksQuestWarMachine_mvl/mxv
 BYTE   W01
 BYTE   VOL   41*LocksQuestWarMachine_mvl/mxv
 BYTE   W01
 BYTE   VOL   40*LocksQuestWarMachine_mvl/mxv
 BYTE   W01
 BYTE   VOL   40*LocksQuestWarMachine_mvl/mxv
 BYTE   W02
 BYTE   VOL   39*LocksQuestWarMachine_mvl/mxv
 BYTE   W01
 BYTE   VOL   38*LocksQuestWarMachine_mvl/mxv
 BYTE   W01
 BYTE   VOL   37*LocksQuestWarMachine_mvl/mxv
 BYTE   W01
 BYTE   VOL   37*LocksQuestWarMachine_mvl/mxv
 BYTE   W01
 BYTE   VOL   36*LocksQuestWarMachine_mvl/mxv
 BYTE   W01
 BYTE   VOL   35*LocksQuestWarMachine_mvl/mxv
 BYTE   W02
 BYTE   VOL   34*LocksQuestWarMachine_mvl/mxv
 BYTE   W02
 BYTE   VOL   33*LocksQuestWarMachine_mvl/mxv
 BYTE   W02
 BYTE   VOL   32*LocksQuestWarMachine_mvl/mxv
 BYTE   W01
 BYTE   VOL   30*LocksQuestWarMachine_mvl/mxv
 BYTE   W02
 BYTE   VOL   30*LocksQuestWarMachine_mvl/mxv
 BYTE   W01
 BYTE   VOL   29*LocksQuestWarMachine_mvl/mxv
 BYTE   W01
 BYTE   VOL   28*LocksQuestWarMachine_mvl/mxv
 BYTE   W01
 BYTE   VOL   28*LocksQuestWarMachine_mvl/mxv
 BYTE   W01
 BYTE   VOL   27*LocksQuestWarMachine_mvl/mxv
 BYTE   W02
 BYTE   VOL   27*LocksQuestWarMachine_mvl/mxv
 BYTE   W01
 BYTE   VOL   26*LocksQuestWarMachine_mvl/mxv
 BYTE   W01
 BYTE   VOL   25*LocksQuestWarMachine_mvl/mxv
 BYTE   W01
 BYTE   VOL   24*LocksQuestWarMachine_mvl/mxv
 BYTE   W02
 BYTE   VOL   23*LocksQuestWarMachine_mvl/mxv
 BYTE   W01
 BYTE   VOL   23*LocksQuestWarMachine_mvl/mxv
 BYTE   W01
 BYTE   VOL   22*LocksQuestWarMachine_mvl/mxv
 BYTE   W01
 BYTE   VOL   22*LocksQuestWarMachine_mvl/mxv
 BYTE   W01
 BYTE   VOL   21*LocksQuestWarMachine_mvl/mxv
 BYTE   W02
 BYTE   VOL   20*LocksQuestWarMachine_mvl/mxv
 BYTE   W01
 BYTE   VOL   19*LocksQuestWarMachine_mvl/mxv
 BYTE   W02
 BYTE   VOL   19*LocksQuestWarMachine_mvl/mxv
 BYTE   W01
 BYTE   VOL   18*LocksQuestWarMachine_mvl/mxv
 BYTE   W02
 BYTE   VOL   17*LocksQuestWarMachine_mvl/mxv
 BYTE   W02
 BYTE   VOL   17*LocksQuestWarMachine_mvl/mxv
 BYTE   W02
 BYTE   VOL   16*LocksQuestWarMachine_mvl/mxv
 BYTE   W01
 BYTE   VOL   15*LocksQuestWarMachine_mvl/mxv
 BYTE   W01
 BYTE   VOL   14*LocksQuestWarMachine_mvl/mxv
 BYTE   W02
 BYTE   VOL   14*LocksQuestWarMachine_mvl/mxv
 BYTE   W01
 BYTE   VOL   13*LocksQuestWarMachine_mvl/mxv
 BYTE   W01
 BYTE   VOL   13*LocksQuestWarMachine_mvl/mxv
 BYTE   W01
 BYTE   VOL   12*LocksQuestWarMachine_mvl/mxv
 BYTE   W02
 BYTE   VOL   11*LocksQuestWarMachine_mvl/mxv
 BYTE   W01
 BYTE   VOL   11*LocksQuestWarMachine_mvl/mxv
 BYTE   W01
 BYTE   VOL   11*LocksQuestWarMachine_mvl/mxv
 BYTE   W01
 BYTE   VOL   10*LocksQuestWarMachine_mvl/mxv
 BYTE   W02
 BYTE   VOL   10*LocksQuestWarMachine_mvl/mxv
 BYTE   W01
 BYTE   VOL   10*LocksQuestWarMachine_mvl/mxv
 BYTE   W01
 BYTE   VOL   9*LocksQuestWarMachine_mvl/mxv
 BYTE   W01
 BYTE   VOL   8*LocksQuestWarMachine_mvl/mxv
 BYTE   W01
 BYTE   VOL   8*LocksQuestWarMachine_mvl/mxv
 BYTE   W01
 BYTE   VOL   8*LocksQuestWarMachine_mvl/mxv
 BYTE   W02
 BYTE   VOL   6*LocksQuestWarMachine_mvl/mxv
 BYTE   W02
 BYTE   VOL   6*LocksQuestWarMachine_mvl/mxv
 BYTE   W01
//  #03 //017   ----------------------------------------
Label_017A22E4:
 BYTE   VOL   6*LocksQuestWarMachine_mvl/mxv
 BYTE   W02
 BYTE   VOL   5*LocksQuestWarMachine_mvl/mxv
 BYTE   W02
 BYTE   VOL   5*LocksQuestWarMachine_mvl/mxv
 BYTE   W01
 BYTE   VOL   5*LocksQuestWarMachine_mvl/mxv
 BYTE   W01
 BYTE   PEND 
 BYTE   EOT
 BYTE   An2  v069
 BYTE   W90
//  #03 //018   ----------------------------------------
 BYTE   W96
//  #03 //019   ----------------------------------------
 BYTE   W96
//  #03 //020   ----------------------------------------
 BYTE   VOL   51*LocksQuestWarMachine_mvl/mxv
 BYTE   TIE  An2  v088
 BYTE   W12
 BYTE   VOL   51*LocksQuestWarMachine_mvl/mxv
 BYTE   W01
 BYTE   VOL   51*LocksQuestWarMachine_mvl/mxv
 BYTE   W01
 BYTE   VOL   51*LocksQuestWarMachine_mvl/mxv
 BYTE   W01
 BYTE   VOL   50*LocksQuestWarMachine_mvl/mxv
 BYTE   W01
 BYTE   VOL   49*LocksQuestWarMachine_mvl/mxv
 BYTE   W02
 BYTE   VOL   47*LocksQuestWarMachine_mvl/mxv
 BYTE   W01
 BYTE   VOL   46*LocksQuestWarMachine_mvl/mxv
 BYTE   W02
 BYTE   VOL   45*LocksQuestWarMachine_mvl/mxv
 BYTE   W01
 BYTE   VOL   45*LocksQuestWarMachine_mvl/mxv
 BYTE   W01
 BYTE   VOL   44*LocksQuestWarMachine_mvl/mxv
 BYTE   W01
 BYTE   VOL   43*LocksQuestWarMachine_mvl/mxv
 BYTE   W02
 BYTE   VOL   42*LocksQuestWarMachine_mvl/mxv
 BYTE   W01
 BYTE   VOL   41*LocksQuestWarMachine_mvl/mxv
 BYTE   W01
 BYTE   VOL   40*LocksQuestWarMachine_mvl/mxv
 BYTE   W01
 BYTE   VOL   40*LocksQuestWarMachine_mvl/mxv
 BYTE   W02
 BYTE   VOL   39*LocksQuestWarMachine_mvl/mxv
 BYTE   W01
 BYTE   VOL   38*LocksQuestWarMachine_mvl/mxv
 BYTE   W01
 BYTE   VOL   37*LocksQuestWarMachine_mvl/mxv
 BYTE   W01
 BYTE   VOL   37*LocksQuestWarMachine_mvl/mxv
 BYTE   W01
 BYTE   VOL   36*LocksQuestWarMachine_mvl/mxv
 BYTE   W01
 BYTE   VOL   35*LocksQuestWarMachine_mvl/mxv
 BYTE   W02
 BYTE   VOL   34*LocksQuestWarMachine_mvl/mxv
 BYTE   W02
 BYTE   VOL   33*LocksQuestWarMachine_mvl/mxv
 BYTE   W02
 BYTE   VOL   32*LocksQuestWarMachine_mvl/mxv
 BYTE   W01
 BYTE   VOL   30*LocksQuestWarMachine_mvl/mxv
 BYTE   W02
 BYTE   VOL   30*LocksQuestWarMachine_mvl/mxv
 BYTE   W01
 BYTE   VOL   29*LocksQuestWarMachine_mvl/mxv
 BYTE   W01
 BYTE   VOL   28*LocksQuestWarMachine_mvl/mxv
 BYTE   W01
 BYTE   VOL   28*LocksQuestWarMachine_mvl/mxv
 BYTE   W01
 BYTE   VOL   27*LocksQuestWarMachine_mvl/mxv
 BYTE   W02
 BYTE   VOL   27*LocksQuestWarMachine_mvl/mxv
 BYTE   W01
 BYTE   VOL   26*LocksQuestWarMachine_mvl/mxv
 BYTE   W01
 BYTE   VOL   25*LocksQuestWarMachine_mvl/mxv
 BYTE   W01
 BYTE   VOL   24*LocksQuestWarMachine_mvl/mxv
 BYTE   W02
 BYTE   VOL   23*LocksQuestWarMachine_mvl/mxv
 BYTE   W01
 BYTE   VOL   23*LocksQuestWarMachine_mvl/mxv
 BYTE   W01
 BYTE   VOL   22*LocksQuestWarMachine_mvl/mxv
 BYTE   W01
 BYTE   VOL   22*LocksQuestWarMachine_mvl/mxv
 BYTE   W01
 BYTE   VOL   21*LocksQuestWarMachine_mvl/mxv
 BYTE   W02
 BYTE   VOL   20*LocksQuestWarMachine_mvl/mxv
 BYTE   W01
 BYTE   VOL   19*LocksQuestWarMachine_mvl/mxv
 BYTE   W02
 BYTE   VOL   19*LocksQuestWarMachine_mvl/mxv
 BYTE   W01
 BYTE   VOL   18*LocksQuestWarMachine_mvl/mxv
 BYTE   W02
 BYTE   VOL   17*LocksQuestWarMachine_mvl/mxv
 BYTE   W02
 BYTE   VOL   17*LocksQuestWarMachine_mvl/mxv
 BYTE   W02
 BYTE   VOL   16*LocksQuestWarMachine_mvl/mxv
 BYTE   W01
 BYTE   VOL   15*LocksQuestWarMachine_mvl/mxv
 BYTE   W01
 BYTE   VOL   14*LocksQuestWarMachine_mvl/mxv
 BYTE   W02
 BYTE   VOL   14*LocksQuestWarMachine_mvl/mxv
 BYTE   W01
 BYTE   VOL   13*LocksQuestWarMachine_mvl/mxv
 BYTE   W01
 BYTE   VOL   13*LocksQuestWarMachine_mvl/mxv
 BYTE   W01
 BYTE   VOL   12*LocksQuestWarMachine_mvl/mxv
 BYTE   W02
 BYTE   VOL   11*LocksQuestWarMachine_mvl/mxv
 BYTE   W01
 BYTE   VOL   11*LocksQuestWarMachine_mvl/mxv
 BYTE   W01
 BYTE   VOL   11*LocksQuestWarMachine_mvl/mxv
 BYTE   W01
 BYTE   VOL   10*LocksQuestWarMachine_mvl/mxv
 BYTE   W02
 BYTE   VOL   10*LocksQuestWarMachine_mvl/mxv
 BYTE   W01
 BYTE   VOL   10*LocksQuestWarMachine_mvl/mxv
 BYTE   W01
 BYTE   VOL   9*LocksQuestWarMachine_mvl/mxv
 BYTE   W01
 BYTE   VOL   8*LocksQuestWarMachine_mvl/mxv
 BYTE   W01
 BYTE   VOL   8*LocksQuestWarMachine_mvl/mxv
 BYTE   W01
 BYTE   VOL   8*LocksQuestWarMachine_mvl/mxv
 BYTE   W02
 BYTE   VOL   6*LocksQuestWarMachine_mvl/mxv
 BYTE   W02
 BYTE   VOL   6*LocksQuestWarMachine_mvl/mxv
 BYTE   W01
//  #03 //021   ----------------------------------------
 BYTE   PATT
  POIN2 Label_017A22E4
//  #03 //022   ----------------------------------------
 BYTE   EOT
 BYTE   An2
 BYTE   W90
 BYTE   W96
//  #03 //023   ----------------------------------------
 BYTE   W60
 BYTE   VOL   43*LocksQuestWarMachine_mvl/mxv
 BYTE   W36
//  #03 //024   ----------------------------------------
 BYTE   N12  An2  v044
 BYTE   W24
 BYTE   Cn3  v056
 BYTE   W24
 BYTE   Bn2
 BYTE   W24
 BYTE   Cn3
 BYTE   W24
//  #03 //025   ----------------------------------------
 BYTE   Dn3
 BYTE   W24
 BYTE   En3
 BYTE   W24
 BYTE   Cn3  v060
 BYTE   W24
 BYTE   Bn2
 BYTE   W24
//  #03 //026   ----------------------------------------
 BYTE   An2
 BYTE   W24
 BYTE   Cn3
 BYTE   W24
 BYTE   Bn2
 BYTE   W24
 BYTE   Cn3  v064
 BYTE   W24
//  #03 //027   ----------------------------------------
 BYTE   Dn3
 BYTE   W24
 BYTE   En3
 BYTE   W24
 BYTE   Cn3
 BYTE   W24
 BYTE   Bn2
 BYTE   W24
//  #03 //028   ----------------------------------------
 BYTE   Gs2
 BYTE   W24
 BYTE   Cn3  v068
 BYTE   W24
 BYTE   Bn2
 BYTE   W24
 BYTE   Cn3
 BYTE   W24
//  #03 //029   ----------------------------------------
 BYTE   Dn3
 BYTE   W24
 BYTE   En3
 BYTE   W24
 BYTE   Cn3  v072
 BYTE   W24
 BYTE   Bn2
 BYTE   W24
//  #03 //030   ----------------------------------------
 BYTE   Gs2
 BYTE   W24
 BYTE   Cn3
 BYTE   W24
 BYTE   Bn2
 BYTE   W24
 BYTE   Cn3
 BYTE   W24
//  #03 //031   ----------------------------------------
 BYTE   An2
 BYTE   W96
//  #03 //032   ----------------------------------------
 BYTE   VOL   51*LocksQuestWarMachine_mvl/mxv
 BYTE   TIE  Cn4  v088
 BYTE   W12
 BYTE   VOL   51*LocksQuestWarMachine_mvl/mxv
 BYTE   W01
 BYTE   VOL   51*LocksQuestWarMachine_mvl/mxv
 BYTE   W01
 BYTE   VOL   51*LocksQuestWarMachine_mvl/mxv
 BYTE   W01
 BYTE   VOL   50*LocksQuestWarMachine_mvl/mxv
 BYTE   W01
 BYTE   VOL   49*LocksQuestWarMachine_mvl/mxv
 BYTE   W02
 BYTE   VOL   47*LocksQuestWarMachine_mvl/mxv
 BYTE   W01
 BYTE   VOL   46*LocksQuestWarMachine_mvl/mxv
 BYTE   W02
 BYTE   VOL   45*LocksQuestWarMachine_mvl/mxv
 BYTE   W01
 BYTE   VOL   45*LocksQuestWarMachine_mvl/mxv
 BYTE   W01
 BYTE   VOL   44*LocksQuestWarMachine_mvl/mxv
 BYTE   W01
 BYTE   VOL   43*LocksQuestWarMachine_mvl/mxv
 BYTE   W02
 BYTE   VOL   42*LocksQuestWarMachine_mvl/mxv
 BYTE   W01
 BYTE   VOL   41*LocksQuestWarMachine_mvl/mxv
 BYTE   W01
 BYTE   VOL   40*LocksQuestWarMachine_mvl/mxv
 BYTE   W01
 BYTE   VOL   40*LocksQuestWarMachine_mvl/mxv
 BYTE   W02
 BYTE   VOL   39*LocksQuestWarMachine_mvl/mxv
 BYTE   W01
 BYTE   VOL   38*LocksQuestWarMachine_mvl/mxv
 BYTE   W01
 BYTE   VOL   37*LocksQuestWarMachine_mvl/mxv
 BYTE   W01
 BYTE   VOL   37*LocksQuestWarMachine_mvl/mxv
 BYTE   W01
 BYTE   VOL   36*LocksQuestWarMachine_mvl/mxv
 BYTE   W01
 BYTE   VOL   35*LocksQuestWarMachine_mvl/mxv
 BYTE   W02
 BYTE   VOL   34*LocksQuestWarMachine_mvl/mxv
 BYTE   W02
 BYTE   VOL   33*LocksQuestWarMachine_mvl/mxv
 BYTE   W02
 BYTE   VOL   32*LocksQuestWarMachine_mvl/mxv
 BYTE   W01
 BYTE   VOL   30*LocksQuestWarMachine_mvl/mxv
 BYTE   W02
 BYTE   VOL   30*LocksQuestWarMachine_mvl/mxv
 BYTE   W01
 BYTE   VOL   29*LocksQuestWarMachine_mvl/mxv
 BYTE   W01
 BYTE   VOL   28*LocksQuestWarMachine_mvl/mxv
 BYTE   W01
 BYTE   VOL   28*LocksQuestWarMachine_mvl/mxv
 BYTE   W01
 BYTE   VOL   27*LocksQuestWarMachine_mvl/mxv
 BYTE   W02
 BYTE   VOL   27*LocksQuestWarMachine_mvl/mxv
 BYTE   W01
 BYTE   VOL   26*LocksQuestWarMachine_mvl/mxv
 BYTE   W01
 BYTE   VOL   25*LocksQuestWarMachine_mvl/mxv
 BYTE   W01
 BYTE   VOL   24*LocksQuestWarMachine_mvl/mxv
 BYTE   W02
 BYTE   VOL   23*LocksQuestWarMachine_mvl/mxv
 BYTE   W01
 BYTE   VOL   23*LocksQuestWarMachine_mvl/mxv
 BYTE   W01
 BYTE   VOL   22*LocksQuestWarMachine_mvl/mxv
 BYTE   W01
 BYTE   VOL   22*LocksQuestWarMachine_mvl/mxv
 BYTE   W01
 BYTE   VOL   21*LocksQuestWarMachine_mvl/mxv
 BYTE   W02
 BYTE   VOL   20*LocksQuestWarMachine_mvl/mxv
 BYTE   W01
 BYTE   VOL   19*LocksQuestWarMachine_mvl/mxv
 BYTE   W02
 BYTE   VOL   19*LocksQuestWarMachine_mvl/mxv
 BYTE   W01
 BYTE   VOL   18*LocksQuestWarMachine_mvl/mxv
 BYTE   W02
 BYTE   VOL   17*LocksQuestWarMachine_mvl/mxv
 BYTE   W02
 BYTE   VOL   17*LocksQuestWarMachine_mvl/mxv
 BYTE   W02
 BYTE   VOL   16*LocksQuestWarMachine_mvl/mxv
 BYTE   W01
 BYTE   VOL   15*LocksQuestWarMachine_mvl/mxv
 BYTE   W01
 BYTE   VOL   14*LocksQuestWarMachine_mvl/mxv
 BYTE   W02
 BYTE   VOL   14*LocksQuestWarMachine_mvl/mxv
 BYTE   W01
 BYTE   VOL   13*LocksQuestWarMachine_mvl/mxv
 BYTE   W01
 BYTE   VOL   13*LocksQuestWarMachine_mvl/mxv
 BYTE   W01
 BYTE   VOL   12*LocksQuestWarMachine_mvl/mxv
 BYTE   W02
 BYTE   VOL   11*LocksQuestWarMachine_mvl/mxv
 BYTE   W01
 BYTE   VOL   11*LocksQuestWarMachine_mvl/mxv
 BYTE   W01
 BYTE   VOL   11*LocksQuestWarMachine_mvl/mxv
 BYTE   W01
 BYTE   VOL   10*LocksQuestWarMachine_mvl/mxv
 BYTE   W02
 BYTE   VOL   10*LocksQuestWarMachine_mvl/mxv
 BYTE   W01
 BYTE   VOL   10*LocksQuestWarMachine_mvl/mxv
 BYTE   W01
 BYTE   VOL   9*LocksQuestWarMachine_mvl/mxv
 BYTE   W01
 BYTE   VOL   8*LocksQuestWarMachine_mvl/mxv
 BYTE   W01
 BYTE   VOL   8*LocksQuestWarMachine_mvl/mxv
 BYTE   W01
 BYTE   VOL   8*LocksQuestWarMachine_mvl/mxv
 BYTE   W02
 BYTE   VOL   6*LocksQuestWarMachine_mvl/mxv
 BYTE   W02
 BYTE   VOL   6*LocksQuestWarMachine_mvl/mxv
 BYTE   W01
//  #03 //033   ----------------------------------------
 BYTE   PATT
  POIN2 Label_017A22E4
//  #03 //034   ----------------------------------------
 BYTE   EOT
 BYTE   Cn4
 BYTE   W90
 BYTE   W96
//  #03 //035   ----------------------------------------
 BYTE   W96
//  #03 //036   ----------------------------------------
 BYTE   VOL   28*LocksQuestWarMachine_mvl/mxv
 BYTE   TIE  An2  v088
 BYTE   W12
 BYTE   VOL   27*LocksQuestWarMachine_mvl/mxv
 BYTE   W01
 BYTE   VOL   27*LocksQuestWarMachine_mvl/mxv
 BYTE   W01
 BYTE   VOL   27*LocksQuestWarMachine_mvl/mxv
 BYTE   W01
 BYTE   VOL   26*LocksQuestWarMachine_mvl/mxv
 BYTE   W01
 BYTE   VOL   26*LocksQuestWarMachine_mvl/mxv
 BYTE   W02
 BYTE   VOL   26*LocksQuestWarMachine_mvl/mxv
 BYTE   W01
 BYTE   VOL   26*LocksQuestWarMachine_mvl/mxv
 BYTE   W02
 BYTE   VOL   25*LocksQuestWarMachine_mvl/mxv
 BYTE   W01
 BYTE   VOL   25*LocksQuestWarMachine_mvl/mxv
 BYTE   W01
 BYTE   VOL   24*LocksQuestWarMachine_mvl/mxv
 BYTE   W01
 BYTE   VOL   24*LocksQuestWarMachine_mvl/mxv
 BYTE   W02
 BYTE   VOL   24*LocksQuestWarMachine_mvl/mxv
 BYTE   W01
 BYTE   VOL   24*LocksQuestWarMachine_mvl/mxv
 BYTE   W01
 BYTE   VOL   23*LocksQuestWarMachine_mvl/mxv
 BYTE   W01
 BYTE   VOL   23*LocksQuestWarMachine_mvl/mxv
 BYTE   W02
 BYTE   VOL   23*LocksQuestWarMachine_mvl/mxv
 BYTE   W01
 BYTE   VOL   23*LocksQuestWarMachine_mvl/mxv
 BYTE   W01
 BYTE   VOL   23*LocksQuestWarMachine_mvl/mxv
 BYTE   W01
 BYTE   VOL   22*LocksQuestWarMachine_mvl/mxv
 BYTE   W01
 BYTE   VOL   22*LocksQuestWarMachine_mvl/mxv
 BYTE   W01
 BYTE   VOL   22*LocksQuestWarMachine_mvl/mxv
 BYTE   W02
 BYTE   VOL   22*LocksQuestWarMachine_mvl/mxv
 BYTE   W02
 BYTE   VOL   21*LocksQuestWarMachine_mvl/mxv
 BYTE   W02
 BYTE   VOL   21*LocksQuestWarMachine_mvl/mxv
 BYTE   W01
 BYTE   VOL   20*LocksQuestWarMachine_mvl/mxv
 BYTE   W02
 BYTE   VOL   20*LocksQuestWarMachine_mvl/mxv
 BYTE   W01
 BYTE   VOL   20*LocksQuestWarMachine_mvl/mxv
 BYTE   W01
 BYTE   VOL   20*LocksQuestWarMachine_mvl/mxv
 BYTE   W01
 BYTE   VOL   19*LocksQuestWarMachine_mvl/mxv
 BYTE   W01
 BYTE   VOL   19*LocksQuestWarMachine_mvl/mxv
 BYTE   W02
 BYTE   VOL   19*LocksQuestWarMachine_mvl/mxv
 BYTE   W01
 BYTE   VOL   19*LocksQuestWarMachine_mvl/mxv
 BYTE   W01
 BYTE   VOL   18*LocksQuestWarMachine_mvl/mxv
 BYTE   W01
 BYTE   VOL   18*LocksQuestWarMachine_mvl/mxv
 BYTE   W02
 BYTE   VOL   18*LocksQuestWarMachine_mvl/mxv
 BYTE   W01
 BYTE   VOL   18*LocksQuestWarMachine_mvl/mxv
 BYTE   W01
 BYTE   VOL   17*LocksQuestWarMachine_mvl/mxv
 BYTE   W01
 BYTE   VOL   17*LocksQuestWarMachine_mvl/mxv
 BYTE   W01
 BYTE   VOL   17*LocksQuestWarMachine_mvl/mxv
 BYTE   W02
 BYTE   VOL   17*LocksQuestWarMachine_mvl/mxv
 BYTE   W01
 BYTE   VOL   16*LocksQuestWarMachine_mvl/mxv
 BYTE   W02
 BYTE   VOL   15*LocksQuestWarMachine_mvl/mxv
 BYTE   W01
 BYTE   VOL   15*LocksQuestWarMachine_mvl/mxv
 BYTE   W02
 BYTE   VOL   15*LocksQuestWarMachine_mvl/mxv
 BYTE   W02
 BYTE   VOL   14*LocksQuestWarMachine_mvl/mxv
 BYTE   W02
 BYTE   VOL   14*LocksQuestWarMachine_mvl/mxv
 BYTE   W01
 BYTE   VOL   13*LocksQuestWarMachine_mvl/mxv
 BYTE   W01
 BYTE   VOL   13*LocksQuestWarMachine_mvl/mxv
 BYTE   W02
 BYTE   VOL   13*LocksQuestWarMachine_mvl/mxv
 BYTE   W01
 BYTE   VOL   13*LocksQuestWarMachine_mvl/mxv
 BYTE   W01
 BYTE   VOL   12*LocksQuestWarMachine_mvl/mxv
 BYTE   W01
 BYTE   VOL   12*LocksQuestWarMachine_mvl/mxv
 BYTE   W02
 BYTE   VOL   11*LocksQuestWarMachine_mvl/mxv
 BYTE   W01
 BYTE   VOL   11*LocksQuestWarMachine_mvl/mxv
 BYTE   W01
 BYTE   VOL   11*LocksQuestWarMachine_mvl/mxv
 BYTE   W01
 BYTE   VOL   11*LocksQuestWarMachine_mvl/mxv
 BYTE   W02
 BYTE   VOL   10*LocksQuestWarMachine_mvl/mxv
 BYTE   W01
 BYTE   VOL   10*LocksQuestWarMachine_mvl/mxv
 BYTE   W01
 BYTE   VOL   10*LocksQuestWarMachine_mvl/mxv
 BYTE   W01
 BYTE   VOL   10*LocksQuestWarMachine_mvl/mxv
 BYTE   W01
 BYTE   VOL   10*LocksQuestWarMachine_mvl/mxv
 BYTE   W01
 BYTE   VOL   9*LocksQuestWarMachine_mvl/mxv
 BYTE   W02
 BYTE   VOL   8*LocksQuestWarMachine_mvl/mxv
 BYTE   W02
 BYTE   VOL   8*LocksQuestWarMachine_mvl/mxv
 BYTE   W01
//  #03 //037   ----------------------------------------
 BYTE   VOL   8*LocksQuestWarMachine_mvl/mxv
 BYTE   W02
 BYTE   VOL   7*LocksQuestWarMachine_mvl/mxv
 BYTE   W02
 BYTE   VOL   6*LocksQuestWarMachine_mvl/mxv
 BYTE   W01
 BYTE   VOL   6*LocksQuestWarMachine_mvl/mxv
 BYTE   W01
 BYTE   EOT
 BYTE   W90
//  #03 //038   ----------------------------------------
 BYTE   W96
//  #03 //039   ----------------------------------------
 BYTE   W96
//  #03 //040   ----------------------------------------
 BYTE   W96
//  #03 //041   ----------------------------------------
 BYTE   W96
//  #03 //042   ----------------------------------------
 BYTE   W96
//  #03 //043   ----------------------------------------
 BYTE   W96
//  #03 //044   ----------------------------------------
 BYTE   W96
//  #03 //045   ----------------------------------------
 BYTE   W96
//  #03 //046   ----------------------------------------
 BYTE   W96
//  #03 //047   ----------------------------------------
 BYTE   W96
//  #03 //048   ----------------------------------------
 BYTE   W96
//  #03 //049   ----------------------------------------
 BYTE   W96
//  #03 //050   ----------------------------------------
 BYTE   W96
//  #03 //051   ----------------------------------------
 BYTE   W96
//  #03 //052   ----------------------------------------
 BYTE   W96
//  #03 //053   ----------------------------------------
 BYTE   W36
 BYTE   VOL   54*LocksQuestWarMachine_mvl/mxv
 BYTE   W60
//  #03 //054   ----------------------------------------
 BYTE   N06  An3  v040
 BYTE   W12
 BYTE   N06
 BYTE   W12
 BYTE   Cn4
 BYTE   W12
 BYTE   N06
 BYTE   W12
 BYTE   Bn3
 BYTE   W12
 BYTE   Bn3  v044
 BYTE   W12
 BYTE   Cn4
 BYTE   W12
 BYTE   N06
 BYTE   W12
//  #03 //055   ----------------------------------------
 BYTE   N12  Cn4  v048
 BYTE   W48
 BYTE   Bn3  v056
 BYTE   W48
//  #03 //056   ----------------------------------------
 BYTE   An3  v068
 BYTE   W96
//  #03 //057   ----------------------------------------
 BYTE   W96
//  #03 //058   ----------------------------------------
 BYTE   W96
//  #03 //059   ----------------------------------------
 BYTE   W96
//  #03 //060   ----------------------------------------
 BYTE   GoTo
  POIN2 Label_017A2186
 BYTE   FINE

//**************** Track 4 (Midi-Chn.3) ****************//

LocksQuestWarMachine_004:
//  #04 //000   ----------------------------------------
 BYTE   VOL   80*LocksQuestWarMachine_mvl/mxv
 BYTE   KEYSH   LocksQuestWarMachine_key+0
Label_015CDB74:
 BYTE   VOICE   36
 BYTE   MODT 0
 BYTE   LFOS 44
 BYTE   W96
//  #04 //001   ----------------------------------------
 BYTE   W96
//  #04 //002   ----------------------------------------
 BYTE   W96
//  #04 //003   ----------------------------------------
 BYTE   W96
//  #04 //004   ----------------------------------------
 BYTE   W96
//  #04 //005   ----------------------------------------
 BYTE   W96
//  #04 //006   ----------------------------------------
 BYTE   W96
//  #04 //007   ----------------------------------------
 BYTE   W96
//  #04 //008   ----------------------------------------
 BYTE   TIE  An1  v096
 BYTE   W96
//  #04 //009   ----------------------------------------
 BYTE   W96
//  #04 //010   ----------------------------------------
 BYTE   W24
 BYTE   EOT
 BYTE   W72
//  #04 //011   ----------------------------------------
 BYTE   W96
//  #04 //012   ----------------------------------------
 BYTE   W96
//  #04 //013   ----------------------------------------
 BYTE   W96
//  #04 //014   ----------------------------------------
 BYTE   W96
//  #04 //015   ----------------------------------------
 BYTE   W24
 BYTE   N06  An0  v064
 BYTE   W12
 BYTE   An0  v072
 BYTE   W12
 BYTE   N07  An0  v080
 BYTE   W12
 BYTE   N05  An0  v084
 BYTE   W12
 BYTE   N06  An0  v092
 BYTE   W12
 BYTE   N05  An0  v100
 BYTE   W12
//  #04 //016   ----------------------------------------
 BYTE   N12  An0  v108
 BYTE   W96
//  #04 //017   ----------------------------------------
 BYTE   W96
//  #04 //018   ----------------------------------------
 BYTE   W96
//  #04 //019   ----------------------------------------
 BYTE   W96
//  #04 //020   ----------------------------------------
 BYTE   W96
//  #04 //021   ----------------------------------------
 BYTE   W96
//  #04 //022   ----------------------------------------
 BYTE   W96
//  #04 //023   ----------------------------------------
 BYTE   W96
//  #04 //024   ----------------------------------------
 BYTE   W96
//  #04 //025   ----------------------------------------
 BYTE   W96
//  #04 //026   ----------------------------------------
 BYTE   W96
//  #04 //027   ----------------------------------------
 BYTE   W96
//  #04 //028   ----------------------------------------
 BYTE   TIE  Fn0  v092
 BYTE   TIE  Fn1
 BYTE   W96
//  #04 //029   ----------------------------------------
 BYTE   W84
 BYTE   EOT
 BYTE   Fn0  v041
 BYTE   W12
//  #04 //030   ----------------------------------------
 BYTE   N96  Dn0  v096
 BYTE   N96  Dn1
 BYTE   W96
//  #04 //031   ----------------------------------------
 BYTE   N12  En0  v100
 BYTE   N12  En1
 BYTE   W24
 BYTE   En0
 BYTE   N12  En1
 BYTE   W24
 BYTE   En0  v104
 BYTE   N12  En1
 BYTE   W24
 BYTE   N24  En0
 BYTE   N24  En1
 BYTE   W24
//  #04 //032   ----------------------------------------
Label_015CDBDA:
 BYTE   N12  An0  v092
 BYTE   N12  An1
 BYTE   W24
 BYTE   An0
 BYTE   N12  An1
 BYTE   W24
 BYTE   Cn1
 BYTE   N12  Cn2
 BYTE   W24
 BYTE   Cn1
 BYTE   N12  Cn2
 BYTE   W24
 BYTE   PEND 
//  #04 //033   ----------------------------------------
Label_015CDBED:
 BYTE   N12  Bn0  v092
 BYTE   N12  Bn1
 BYTE   W24
 BYTE   Bn0
 BYTE   N12  Bn1
 BYTE   W24
 BYTE   Dn1
 BYTE   N12  Dn2
 BYTE   W24
 BYTE   Dn1
 BYTE   N12  Dn2
 BYTE   W24
 BYTE   PEND 
//  #04 //034   ----------------------------------------
 BYTE   An0
 BYTE   N12  An1
 BYTE   W24
 BYTE   An0
 BYTE   N12  An1
 BYTE   W24
 BYTE   Cn1
 BYTE   N12  Cn2
 BYTE   W24
 BYTE   Bn0
 BYTE   N12  Bn1
 BYTE   W12
 BYTE   An0
 BYTE   N12  An1
 BYTE   W12
//  #04 //035   ----------------------------------------
 BYTE   Gs0
 BYTE   N12  Gs1
 BYTE   W24
 BYTE   Fn0
 BYTE   N12  Fn1
 BYTE   W24
 BYTE   N36  En0
 BYTE   N36  En1
 BYTE   W48
//  #04 //036   ----------------------------------------
 BYTE   PATT
  POIN2 Label_015CDBDA
//  #04 //037   ----------------------------------------
 BYTE   PATT
  POIN2 Label_015CDBED
//  #04 //038   ----------------------------------------
 BYTE   N12  An0  v092
 BYTE   N12  An1
 BYTE   W24
 BYTE   N24  An0
 BYTE   N24  An1
 BYTE   W24
 BYTE   N12  Cn1
 BYTE   N12  Cn2
 BYTE   W24
 BYTE   Bn0
 BYTE   N12  Bn1
 BYTE   W12
 BYTE   Cn1
 BYTE   N12  Cn2
 BYTE   W12
//  #04 //039   ----------------------------------------
 BYTE   Dn1
 BYTE   N12  Dn2
 BYTE   W24
 BYTE   En1
 BYTE   N12  En2
 BYTE   W24
 BYTE   N36  Dn1  v096
 BYTE   N36  Dn2
 BYTE   W48
//  #04 //040   ----------------------------------------
Label_015CDC51:
 BYTE   N48  An0  v092
 BYTE   W48
 BYTE   N24  Cn1
 BYTE   W24
 BYTE   An0
 BYTE   W24
 BYTE   PEND 
//  #04 //041   ----------------------------------------
Label_015CDC5B:
 BYTE   N24  Cn1  v092
 BYTE   W24
 BYTE   An0
 BYTE   W24
 BYTE   Cn1
 BYTE   W24
 BYTE   N12  An0
 BYTE   W24
 BYTE   PEND 
//  #04 //042   ----------------------------------------
 BYTE   PATT
  POIN2 Label_015CDC51
//  #04 //043   ----------------------------------------
Label_015CDC6C:
 BYTE   N24  Cn1  v092
 BYTE   W24
 BYTE   An0
 BYTE   W24
 BYTE   Cn1
 BYTE   W24
 BYTE   An0
 BYTE   W24
 BYTE   PEND 
//  #04 //044   ----------------------------------------
Label_015CDC77:
 BYTE   N48  Fn0  v092
 BYTE   W48
 BYTE   N24  Gs0
 BYTE   W24
 BYTE   Fn0
 BYTE   W24
 BYTE   PEND 
//  #04 //045   ----------------------------------------
Label_015CDC81:
 BYTE   N24  Gs0  v092
 BYTE   W24
 BYTE   Fn0
 BYTE   W24
 BYTE   Gs0
 BYTE   W24
 BYTE   N12  Fn0  v096
 BYTE   W24
 BYTE   PEND 
//  #04 //046   ----------------------------------------
 BYTE   N48  Dn1
 BYTE   W48
 BYTE   N24  Fn1
 BYTE   W24
 BYTE   Dn1
 BYTE   W24
//  #04 //047   ----------------------------------------
 BYTE   N12  En1
 BYTE   W24
 BYTE   Dn1
 BYTE   W24
 BYTE   Cn1
 BYTE   W24
 BYTE   Bn0
 BYTE   W24
//  #04 //048   ----------------------------------------
 BYTE   PATT
  POIN2 Label_015CDC51
//  #04 //049   ----------------------------------------
 BYTE   PATT
  POIN2 Label_015CDC5B
//  #04 //050   ----------------------------------------
 BYTE   PATT
  POIN2 Label_015CDC51
//  #04 //051   ----------------------------------------
 BYTE   PATT
  POIN2 Label_015CDC6C
//  #04 //052   ----------------------------------------
 BYTE   PATT
  POIN2 Label_015CDC77
//  #04 //053   ----------------------------------------
 BYTE   PATT
  POIN2 Label_015CDC81
//  #04 //054   ----------------------------------------
 BYTE   N48  Dn1  v096
 BYTE   W48
 BYTE   N24  En1
 BYTE   W24
 BYTE   Fn1
 BYTE   W24
//  #04 //055   ----------------------------------------
 BYTE   N12  An1
 BYTE   W24
 BYTE   En1
 BYTE   W24
 BYTE   N24  Cn1
 BYTE   W24
 BYTE   Bn0
 BYTE   W24
//  #04 //056   ----------------------------------------
 BYTE   An0
 BYTE   W96
//  #04 //057   ----------------------------------------
 BYTE   W96
//  #04 //058   ----------------------------------------
 BYTE   W96
//  #04 //059   ----------------------------------------
 BYTE   W96
//  #04 //060   ----------------------------------------
 BYTE   GoTo
  POIN2 Label_015CDB74
 BYTE   FINE

//**************** Track 5 (Midi-Chn.4) ****************//

LocksQuestWarMachine_005:
//  #05 //000   ----------------------------------------
 BYTE   KEYSH   LocksQuestWarMachine_key+0
Label_015CF46A:
 BYTE   VOICE   52
 BYTE   MODT 0
 BYTE   LFOS 44
 BYTE   VOL   80*LocksQuestWarMachine_mvl/mxv
 BYTE   W96
//  #05 //001   ----------------------------------------
 BYTE   W96
//  #05 //002   ----------------------------------------
 BYTE   W96
//  #05 //003   ----------------------------------------
 BYTE   W96
//  #05 //004   ----------------------------------------
 BYTE   W96
//  #05 //005   ----------------------------------------
 BYTE   W96
//  #05 //006   ----------------------------------------
 BYTE   W96
//  #05 //007   ----------------------------------------
 BYTE   W72
 BYTE   VOL   5*LocksQuestWarMachine_mvl/mxv
 BYTE   W18
 BYTE   VOL   6*LocksQuestWarMachine_mvl/mxv
 BYTE   W06
//  #05 //008   ----------------------------------------
 BYTE   TIE  An0  v064
 BYTE   TIE  An1
 BYTE   W84
 BYTE   VOL   6*LocksQuestWarMachine_mvl/mxv
 BYTE   W12
//  #05 //009   ----------------------------------------
 BYTE   W24
 BYTE   VOL   6*LocksQuestWarMachine_mvl/mxv
 BYTE   W42
 BYTE   VOL   7*LocksQuestWarMachine_mvl/mxv
 BYTE   W18
 BYTE   VOL   8*LocksQuestWarMachine_mvl/mxv
 BYTE   W12
//  #05 //010   ----------------------------------------
 BYTE   W18
 BYTE   VOL   8*LocksQuestWarMachine_mvl/mxv
 BYTE   W18
 BYTE   VOL   8*LocksQuestWarMachine_mvl/mxv
 BYTE   W24
 BYTE   VOL   9*LocksQuestWarMachine_mvl/mxv
 BYTE   W12
 BYTE   VOL   10*LocksQuestWarMachine_mvl/mxv
 BYTE   W24
//  #05 //011   ----------------------------------------
 BYTE   VOL   10*LocksQuestWarMachine_mvl/mxv
 BYTE   W12
 BYTE   VOL   10*LocksQuestWarMachine_mvl/mxv
 BYTE   W18
 BYTE   VOL   11*LocksQuestWarMachine_mvl/mxv
 BYTE   W12
 BYTE   VOL   11*LocksQuestWarMachine_mvl/mxv
 BYTE   W12
 BYTE   VOL   11*LocksQuestWarMachine_mvl/mxv
 BYTE   W12
 BYTE   VOL   12*LocksQuestWarMachine_mvl/mxv
 BYTE   W18
 BYTE   VOL   13*LocksQuestWarMachine_mvl/mxv
 BYTE   W12
//  #05 //012   ----------------------------------------
 BYTE   VOL   13*LocksQuestWarMachine_mvl/mxv
 BYTE   W12
 BYTE   VOL   14*LocksQuestWarMachine_mvl/mxv
 BYTE   W06
 BYTE   VOL   14*LocksQuestWarMachine_mvl/mxv
 BYTE   W18
 BYTE   VOL   15*LocksQuestWarMachine_mvl/mxv
 BYTE   W06
 BYTE   VOL   15*LocksQuestWarMachine_mvl/mxv
 BYTE   W12
 BYTE   VOL   16*LocksQuestWarMachine_mvl/mxv
 BYTE   W12
 BYTE   VOL   17*LocksQuestWarMachine_mvl/mxv
 BYTE   W06
 BYTE   VOL   17*LocksQuestWarMachine_mvl/mxv
 BYTE   W24
//  #05 //013   ----------------------------------------
 BYTE   VOL   17*LocksQuestWarMachine_mvl/mxv
 BYTE   W24
 BYTE   VOL   18*LocksQuestWarMachine_mvl/mxv
 BYTE   W12
 BYTE   VOL   18*LocksQuestWarMachine_mvl/mxv
 BYTE   W12
 BYTE   VOL   19*LocksQuestWarMachine_mvl/mxv
 BYTE   W12
 BYTE   VOL   19*LocksQuestWarMachine_mvl/mxv
 BYTE   W06
 BYTE   VOL   20*LocksQuestWarMachine_mvl/mxv
 BYTE   W06
 BYTE   VOL   20*LocksQuestWarMachine_mvl/mxv
 BYTE   W12
 BYTE   VOL   21*LocksQuestWarMachine_mvl/mxv
 BYTE   W06
 BYTE   VOL   22*LocksQuestWarMachine_mvl/mxv
 BYTE   W06
//  #05 //014   ----------------------------------------
 BYTE   VOL   22*LocksQuestWarMachine_mvl/mxv
 BYTE   W06
 BYTE   VOL   23*LocksQuestWarMachine_mvl/mxv
 BYTE   W06
 BYTE   VOL   24*LocksQuestWarMachine_mvl/mxv
 BYTE   W06
 BYTE   VOL   25*LocksQuestWarMachine_mvl/mxv
 BYTE   W06
 BYTE   VOL   26*LocksQuestWarMachine_mvl/mxv
 BYTE   W06
 BYTE   VOL   27*LocksQuestWarMachine_mvl/mxv
 BYTE   W06
 BYTE   VOL   27*LocksQuestWarMachine_mvl/mxv
 BYTE   W06
 BYTE   VOL   28*LocksQuestWarMachine_mvl/mxv
 BYTE   W06
 BYTE   VOL   29*LocksQuestWarMachine_mvl/mxv
 BYTE   W06
 BYTE   VOL   30*LocksQuestWarMachine_mvl/mxv
 BYTE   W06
 BYTE   VOL   31*LocksQuestWarMachine_mvl/mxv
 BYTE   W06
 BYTE   VOL   33*LocksQuestWarMachine_mvl/mxv
 BYTE   W06
 BYTE   VOL   34*LocksQuestWarMachine_mvl/mxv
 BYTE   W06
 BYTE   VOL   35*LocksQuestWarMachine_mvl/mxv
 BYTE   W06
 BYTE   VOL   37*LocksQuestWarMachine_mvl/mxv
 BYTE   W06
 BYTE   VOL   38*LocksQuestWarMachine_mvl/mxv
 BYTE   W06
//  #05 //015   ----------------------------------------
 BYTE   VOL   39*LocksQuestWarMachine_mvl/mxv
 BYTE   W06
 BYTE   VOL   40*LocksQuestWarMachine_mvl/mxv
 BYTE   W06
 BYTE   VOL   42*LocksQuestWarMachine_mvl/mxv
 BYTE   W06
 BYTE   VOL   44*LocksQuestWarMachine_mvl/mxv
 BYTE   W06
 BYTE   VOL   45*LocksQuestWarMachine_mvl/mxv
 BYTE   W06
 BYTE   VOL   47*LocksQuestWarMachine_mvl/mxv
 BYTE   W06
 BYTE   VOL   49*LocksQuestWarMachine_mvl/mxv
 BYTE   W06
 BYTE   VOL   53*LocksQuestWarMachine_mvl/mxv
 BYTE   W54
//  #05 //016   ----------------------------------------
 BYTE   EOT
 BYTE   An0  v045
 BYTE   W96
//  #05 //017   ----------------------------------------
 BYTE   W96
//  #05 //018   ----------------------------------------
 BYTE   W96
//  #05 //019   ----------------------------------------
 BYTE   W96
//  #05 //020   ----------------------------------------
 BYTE   W96
//  #05 //021   ----------------------------------------
 BYTE   W96
//  #05 //022   ----------------------------------------
 BYTE   W96
//  #05 //023   ----------------------------------------
 BYTE   W96
//  #05 //024   ----------------------------------------
 BYTE   W96
//  #05 //025   ----------------------------------------
 BYTE   W96
//  #05 //026   ----------------------------------------
 BYTE   W96
//  #05 //027   ----------------------------------------
 BYTE   W96
//  #05 //028   ----------------------------------------
Label_015CF506:
 BYTE   TIE  Fn1  v060
 BYTE   TIE  Gs1
 BYTE   W96
 BYTE   PEND 
//  #05 //029   ----------------------------------------
 BYTE   W96
//  #05 //030   ----------------------------------------
 BYTE   N96  Dn1  v068
 BYTE   W96
//  #05 //031   ----------------------------------------
 BYTE   EOT
 BYTE   Fn1
 BYTE   N96  En1
 BYTE   W96
//  #05 //032   ----------------------------------------
 BYTE   EOT
 BYTE   Gs1
 BYTE   W96
//  #05 //033   ----------------------------------------
 BYTE   W96
//  #05 //034   ----------------------------------------
 BYTE   W96
//  #05 //035   ----------------------------------------
 BYTE   W96
//  #05 //036   ----------------------------------------
 BYTE   W96
//  #05 //037   ----------------------------------------
 BYTE   W96
//  #05 //038   ----------------------------------------
 BYTE   W96
//  #05 //039   ----------------------------------------
 BYTE   W96
//  #05 //040   ----------------------------------------
 BYTE   W96
//  #05 //041   ----------------------------------------
 BYTE   W96
//  #05 //042   ----------------------------------------
 BYTE   W96
//  #05 //043   ----------------------------------------
 BYTE   W96
//  #05 //044   ----------------------------------------
 BYTE   W96
//  #05 //045   ----------------------------------------
 BYTE   W96
//  #05 //046   ----------------------------------------
 BYTE   W96
//  #05 //047   ----------------------------------------
 BYTE   W96
//  #05 //048   ----------------------------------------
 BYTE   TIE  An1  v056
 BYTE   W96
//  #05 //049   ----------------------------------------
 BYTE   W96
//  #05 //050   ----------------------------------------
 BYTE   W96
//  #05 //051   ----------------------------------------
 BYTE   EOT
 BYTE   N96  Bn1  v060
 BYTE   W96
//  #05 //052   ----------------------------------------
 BYTE   PATT
  POIN2 Label_015CF506
//  #05 //053   ----------------------------------------
 BYTE   W96
//  #05 //054   ----------------------------------------
 BYTE   EOT
 BYTE   Fn1  v044
 BYTE   W96
//  #05 //055   ----------------------------------------
 BYTE   W96
//  #05 //056   ----------------------------------------
 BYTE   W96
//  #05 //057   ----------------------------------------
 BYTE   W96
//  #05 //058   ----------------------------------------
 BYTE   W96
//  #05 //059   ----------------------------------------
 BYTE   W96
//  #05 //060   ----------------------------------------
 BYTE   GoTo
  POIN2 Label_015CF46A
 BYTE   FINE

//**************** Track 6 (Midi-Chn.5) ****************//

LocksQuestWarMachine_006:
//  #06 //000   ----------------------------------------
 BYTE   KEYSH   LocksQuestWarMachine_key+0
Label_015CF156:
 BYTE   VOICE   54
 BYTE   MODT 0
 BYTE   LFOS 44
 BYTE   VOL   80*LocksQuestWarMachine_mvl/mxv
 BYTE   W96
//  #06 //001   ----------------------------------------
 BYTE   W96
//  #06 //002   ----------------------------------------
 BYTE   W96
//  #06 //003   ----------------------------------------
 BYTE   W96
//  #06 //004   ----------------------------------------
 BYTE   W96
//  #06 //005   ----------------------------------------
 BYTE   W96
//  #06 //006   ----------------------------------------
 BYTE   W96
//  #06 //007   ----------------------------------------
 BYTE   W96
//  #06 //008   ----------------------------------------
 BYTE   W96
//  #06 //009   ----------------------------------------
 BYTE   W96
//  #06 //010   ----------------------------------------
 BYTE   W96
//  #06 //011   ----------------------------------------
 BYTE   W84
 BYTE   VOL   0*LocksQuestWarMachine_mvl/mxv
 BYTE   W12
//  #06 //012   ----------------------------------------
 BYTE   TIE  An2  v048
 BYTE   W24
 BYTE   VOL   0*LocksQuestWarMachine_mvl/mxv
 BYTE   W18
 BYTE   VOL   0*LocksQuestWarMachine_mvl/mxv
 BYTE   W18
 BYTE   VOL   0*LocksQuestWarMachine_mvl/mxv
 BYTE   W06
 BYTE   VOL   1*LocksQuestWarMachine_mvl/mxv
 BYTE   W12
 BYTE   VOL   1*LocksQuestWarMachine_mvl/mxv
 BYTE   W06
 BYTE   VOL   1*LocksQuestWarMachine_mvl/mxv
 BYTE   W12
//  #06 //013   ----------------------------------------
 BYTE   VOL   1*LocksQuestWarMachine_mvl/mxv
 BYTE   W06
 BYTE   VOL   1*LocksQuestWarMachine_mvl/mxv
 BYTE   W06
 BYTE   VOL   1*LocksQuestWarMachine_mvl/mxv
 BYTE   W06
 BYTE   VOL   2*LocksQuestWarMachine_mvl/mxv
 BYTE   W06
 BYTE   VOL   2*LocksQuestWarMachine_mvl/mxv
 BYTE   W06
 BYTE   VOL   2*LocksQuestWarMachine_mvl/mxv
 BYTE   W06
 BYTE   VOL   3*LocksQuestWarMachine_mvl/mxv
 BYTE   W06
 BYTE   VOL   3*LocksQuestWarMachine_mvl/mxv
 BYTE   W06
 BYTE   VOL   3*LocksQuestWarMachine_mvl/mxv
 BYTE   W06
 BYTE   VOL   3*LocksQuestWarMachine_mvl/mxv
 BYTE   W06
 BYTE   VOL   4*LocksQuestWarMachine_mvl/mxv
 BYTE   W06
 BYTE   VOL   5*LocksQuestWarMachine_mvl/mxv
 BYTE   W06
 BYTE   VOL   5*LocksQuestWarMachine_mvl/mxv
 BYTE   W06
 BYTE   VOL   5*LocksQuestWarMachine_mvl/mxv
 BYTE   W06
 BYTE   VOL   6*LocksQuestWarMachine_mvl/mxv
 BYTE   W06
 BYTE   VOL   6*LocksQuestWarMachine_mvl/mxv
 BYTE   W06
//  #06 //014   ----------------------------------------
 BYTE   VOL   7*LocksQuestWarMachine_mvl/mxv
 BYTE   W06
 BYTE   VOL   8*LocksQuestWarMachine_mvl/mxv
 BYTE   W06
 BYTE   VOL   8*LocksQuestWarMachine_mvl/mxv
 BYTE   W06
 BYTE   VOL   10*LocksQuestWarMachine_mvl/mxv
 BYTE   W06
 BYTE   VOL   10*LocksQuestWarMachine_mvl/mxv
 BYTE   W06
 BYTE   VOL   11*LocksQuestWarMachine_mvl/mxv
 BYTE   W06
 BYTE   VOL   11*LocksQuestWarMachine_mvl/mxv
 BYTE   W06
 BYTE   VOL   12*LocksQuestWarMachine_mvl/mxv
 BYTE   W06
 BYTE   VOL   13*LocksQuestWarMachine_mvl/mxv
 BYTE   W06
 BYTE   VOL   14*LocksQuestWarMachine_mvl/mxv
 BYTE   W06
 BYTE   VOL   15*LocksQuestWarMachine_mvl/mxv
 BYTE   W06
 BYTE   VOL   17*LocksQuestWarMachine_mvl/mxv
 BYTE   W06
 BYTE   VOL   18*LocksQuestWarMachine_mvl/mxv
 BYTE   W06
 BYTE   VOL   19*LocksQuestWarMachine_mvl/mxv
 BYTE   W06
 BYTE   VOL   20*LocksQuestWarMachine_mvl/mxv
 BYTE   W06
 BYTE   VOL   22*LocksQuestWarMachine_mvl/mxv
 BYTE   W06
//  #06 //015   ----------------------------------------
 BYTE   VOL   23*LocksQuestWarMachine_mvl/mxv
 BYTE   W06
 BYTE   VOL   24*LocksQuestWarMachine_mvl/mxv
 BYTE   W06
 BYTE   VOL   26*LocksQuestWarMachine_mvl/mxv
 BYTE   W06
 BYTE   VOL   28*LocksQuestWarMachine_mvl/mxv
 BYTE   W06
 BYTE   VOL   29*LocksQuestWarMachine_mvl/mxv
 BYTE   W06
 BYTE   VOL   31*LocksQuestWarMachine_mvl/mxv
 BYTE   W06
 BYTE   VOL   33*LocksQuestWarMachine_mvl/mxv
 BYTE   W06
 BYTE   VOL   35*LocksQuestWarMachine_mvl/mxv
 BYTE   W06
 BYTE   VOL   37*LocksQuestWarMachine_mvl/mxv
 BYTE   W06
 BYTE   VOL   39*LocksQuestWarMachine_mvl/mxv
 BYTE   W06
 BYTE   VOL   41*LocksQuestWarMachine_mvl/mxv
 BYTE   W06
 BYTE   VOL   43*LocksQuestWarMachine_mvl/mxv
 BYTE   W06
 BYTE   VOL   45*LocksQuestWarMachine_mvl/mxv
 BYTE   W06
 BYTE   VOL   48*LocksQuestWarMachine_mvl/mxv
 BYTE   W06
 BYTE   VOL   51*LocksQuestWarMachine_mvl/mxv
 BYTE   W06
 BYTE   VOL   53*LocksQuestWarMachine_mvl/mxv
 BYTE   W06
//  #06 //016   ----------------------------------------
 BYTE   EOT
 BYTE   W96
//  #06 //017   ----------------------------------------
 BYTE   W96
//  #06 //018   ----------------------------------------
 BYTE   W96
//  #06 //019   ----------------------------------------
 BYTE   W96
//  #06 //020   ----------------------------------------
 BYTE   W96
//  #06 //021   ----------------------------------------
 BYTE   W96
//  #06 //022   ----------------------------------------
 BYTE   W96
//  #06 //023   ----------------------------------------
 BYTE   W96
//  #06 //024   ----------------------------------------
 BYTE   W96
//  #06 //025   ----------------------------------------
 BYTE   W96
//  #06 //026   ----------------------------------------
 BYTE   W96
//  #06 //027   ----------------------------------------
 BYTE   W96
//  #06 //028   ----------------------------------------
 BYTE   TIE  Gs2  v060
 BYTE   W96
//  #06 //029   ----------------------------------------
 BYTE   W96
//  #06 //030   ----------------------------------------
 BYTE   W96
//  #06 //031   ----------------------------------------
 BYTE   W96
//  #06 //032   ----------------------------------------
 BYTE   EOT
 BYTE   W96
//  #06 //033   ----------------------------------------
 BYTE   W96
//  #06 //034   ----------------------------------------
 BYTE   W96
//  #06 //035   ----------------------------------------
 BYTE   W96
//  #06 //036   ----------------------------------------
 BYTE   W96
//  #06 //037   ----------------------------------------
 BYTE   W96
//  #06 //038   ----------------------------------------
 BYTE   W96
//  #06 //039   ----------------------------------------
 BYTE   W96
//  #06 //040   ----------------------------------------
 BYTE   W96
//  #06 //041   ----------------------------------------
 BYTE   W96
//  #06 //042   ----------------------------------------
 BYTE   W96
//  #06 //043   ----------------------------------------
 BYTE   W96
//  #06 //044   ----------------------------------------
 BYTE   W96
//  #06 //045   ----------------------------------------
 BYTE   W96
//  #06 //046   ----------------------------------------
 BYTE   W96
//  #06 //047   ----------------------------------------
 BYTE   W96
//  #06 //048   ----------------------------------------
 BYTE   TIE  An2  v056
 BYTE   W96
//  #06 //049   ----------------------------------------
 BYTE   W96
//  #06 //050   ----------------------------------------
 BYTE   W96
//  #06 //051   ----------------------------------------
 BYTE   EOT
 BYTE   N96  Bn2  v060
 BYTE   W96
//  #06 //052   ----------------------------------------
 BYTE   TIE  Fn2
 BYTE   TIE  Gs2
 BYTE   W96
//  #06 //053   ----------------------------------------
 BYTE   W96
//  #06 //054   ----------------------------------------
 BYTE   EOT
 BYTE   W96
//  #06 //055   ----------------------------------------
 BYTE   Fn2
 BYTE   W96
//  #06 //056   ----------------------------------------
 BYTE   W96
//  #06 //057   ----------------------------------------
 BYTE   W96
//  #06 //058   ----------------------------------------
 BYTE   W96
//  #06 //059   ----------------------------------------
 BYTE   W96
//  #06 //060   ----------------------------------------
 BYTE   GoTo
  POIN2 Label_015CF156
 BYTE   FINE

//**************** Track 7 (Midi-Chn.6) ****************//

LocksQuestWarMachine_007:
//  #07 //000   ----------------------------------------
 BYTE   VOL   80*LocksQuestWarMachine_mvl/mxv
 BYTE   KEYSH   LocksQuestWarMachine_key+0
Label_015CDED4:
 BYTE   VOICE   53
 BYTE   MODT 0
 BYTE   LFOS 44
 BYTE   W96
//  #07 //001   ----------------------------------------
 BYTE   W96
//  #07 //002   ----------------------------------------
 BYTE   W96
//  #07 //003   ----------------------------------------
 BYTE   W96
//  #07 //004   ----------------------------------------
 BYTE   W96
//  #07 //005   ----------------------------------------
 BYTE   W96
//  #07 //006   ----------------------------------------
 BYTE   W96
//  #07 //007   ----------------------------------------
 BYTE   W96
//  #07 //008   ----------------------------------------
 BYTE   W96
//  #07 //009   ----------------------------------------
 BYTE   W96
//  #07 //010   ----------------------------------------
 BYTE   W96
//  #07 //011   ----------------------------------------
 BYTE   W96
//  #07 //012   ----------------------------------------
 BYTE   W96
//  #07 //013   ----------------------------------------
 BYTE   W96
//  #07 //014   ----------------------------------------
 BYTE   W96
//  #07 //015   ----------------------------------------
 BYTE   W96
//  #07 //016   ----------------------------------------
 BYTE   N68  An2  v108
 BYTE   W96
//  #07 //017   ----------------------------------------
 BYTE   W96
//  #07 //018   ----------------------------------------
 BYTE   W96
//  #07 //019   ----------------------------------------
 BYTE   W96
//  #07 //020   ----------------------------------------
 BYTE   W96
//  #07 //021   ----------------------------------------
 BYTE   W96
//  #07 //022   ----------------------------------------
 BYTE   W96
//  #07 //023   ----------------------------------------
 BYTE   W96
//  #07 //024   ----------------------------------------
 BYTE   N12  An2  v068
 BYTE   W24
 BYTE   Cn3
 BYTE   W24
 BYTE   Bn2
 BYTE   W24
 BYTE   Cn3
 BYTE   W24
//  #07 //025   ----------------------------------------
 BYTE   Dn3
 BYTE   W24
 BYTE   En3
 BYTE   W24
 BYTE   Cn3
 BYTE   W24
 BYTE   Bn2
 BYTE   W24
//  #07 //026   ----------------------------------------
 BYTE   An2
 BYTE   W24
 BYTE   Cn3
 BYTE   W24
 BYTE   Bn2
 BYTE   W24
 BYTE   Cn3  v072
 BYTE   W24
//  #07 //027   ----------------------------------------
Label_015CDF10:
 BYTE   N12  Dn3  v072
 BYTE   W24
 BYTE   En3
 BYTE   W24
 BYTE   Cn3
 BYTE   W24
 BYTE   Bn2
 BYTE   W24
 BYTE   PEND 
//  #07 //028   ----------------------------------------
Label_015CDF1B:
 BYTE   N12  Gs2  v072
 BYTE   W24
 BYTE   Cn3
 BYTE   W24
 BYTE   Bn2
 BYTE   W24
 BYTE   Cn3
 BYTE   W24
 BYTE   PEND 
//  #07 //029   ----------------------------------------
 BYTE   PATT
  POIN2 Label_015CDF10
//  #07 //030   ----------------------------------------
 BYTE   PATT
  POIN2 Label_015CDF1B
//  #07 //031   ----------------------------------------
 BYTE   N12  An2  v072
 BYTE   W96
//  #07 //032   ----------------------------------------
 BYTE   N68  An2  v108
 BYTE   W96
//  #07 //033   ----------------------------------------
 BYTE   W96
//  #07 //034   ----------------------------------------
 BYTE   W96
//  #07 //035   ----------------------------------------
 BYTE   W96
//  #07 //036   ----------------------------------------
 BYTE   W96
//  #07 //037   ----------------------------------------
 BYTE   W96
//  #07 //038   ----------------------------------------
 BYTE   W96
//  #07 //039   ----------------------------------------
 BYTE   W96
//  #07 //040   ----------------------------------------
 BYTE   W96
//  #07 //041   ----------------------------------------
 BYTE   W96
//  #07 //042   ----------------------------------------
 BYTE   W96
//  #07 //043   ----------------------------------------
 BYTE   W96
//  #07 //044   ----------------------------------------
 BYTE   W96
//  #07 //045   ----------------------------------------
 BYTE   W96
//  #07 //046   ----------------------------------------
 BYTE   W96
//  #07 //047   ----------------------------------------
 BYTE   W96
//  #07 //048   ----------------------------------------
 BYTE   W96
//  #07 //049   ----------------------------------------
 BYTE   W96
//  #07 //050   ----------------------------------------
 BYTE   W96
//  #07 //051   ----------------------------------------
 BYTE   W96
//  #07 //052   ----------------------------------------
 BYTE   W96
//  #07 //053   ----------------------------------------
 BYTE   W96
//  #07 //054   ----------------------------------------
 BYTE   N48  An2  v068
 BYTE   W48
 BYTE   Cn3
 BYTE   W48
//  #07 //055   ----------------------------------------
 BYTE   W96
//  #07 //056   ----------------------------------------
 BYTE   W96
//  #07 //057   ----------------------------------------
 BYTE   W96
//  #07 //058   ----------------------------------------
 BYTE   W96
//  #07 //059   ----------------------------------------
 BYTE   W96
//  #07 //060   ----------------------------------------
 BYTE   GoTo
  POIN2 Label_015CDED4
 BYTE   FINE

//**************** Track 8 (Midi-Chn.7) ****************//

LocksQuestWarMachine_008:
//  #08 //000   ----------------------------------------
 BYTE   VOL   80*LocksQuestWarMachine_mvl/mxv
 BYTE   KEYSH   LocksQuestWarMachine_key+0
Label_015CE910:
 BYTE   VOICE   49
 BYTE   MODT 0
 BYTE   LFOS 44
 BYTE   W96
//  #08 //001   ----------------------------------------
 BYTE   W96
//  #08 //002   ----------------------------------------
 BYTE   W96
//  #08 //003   ----------------------------------------
 BYTE   W96
//  #08 //004   ----------------------------------------
 BYTE   W96
//  #08 //005   ----------------------------------------
 BYTE   W96
//  #08 //006   ----------------------------------------
 BYTE   W96
//  #08 //007   ----------------------------------------
 BYTE   W96
//  #08 //008   ----------------------------------------
 BYTE   N06  An1  v064
 BYTE   W12
 BYTE   N06
 BYTE   W12
 BYTE   Cn2
 BYTE   W12
 BYTE   N06
 BYTE   W12
 BYTE   Bn1
 BYTE   W12
 BYTE   N06
 BYTE   W12
 BYTE   Cn2  v068
 BYTE   W12
 BYTE   N06
 BYTE   W12
//  #08 //009   ----------------------------------------
Label_015CE931:
 BYTE   N06  Dn2  v068
 BYTE   W12
 BYTE   N06
 BYTE   W12
 BYTE   En2
 BYTE   W12
 BYTE   N06
 BYTE   W12
 BYTE   Cn2
 BYTE   W12
 BYTE   N06
 BYTE   W12
 BYTE   Bn1
 BYTE   W12
 BYTE   N06
 BYTE   W12
 BYTE   PEND 
//  #08 //010   ----------------------------------------
Label_015CE944:
 BYTE   N06  An1  v068
 BYTE   W12
 BYTE   N06
 BYTE   W12
 BYTE   Cn2
 BYTE   W12
 BYTE   N06
 BYTE   W12
 BYTE   Bn1
 BYTE   W12
 BYTE   N06
 BYTE   W12
 BYTE   Cn2
 BYTE   W12
 BYTE   N06
 BYTE   W12
 BYTE   PEND 
//  #08 //011   ----------------------------------------
 BYTE   PATT
  POIN2 Label_015CE931
//  #08 //012   ----------------------------------------
 BYTE   PATT
  POIN2 Label_015CE944
//  #08 //013   ----------------------------------------
 BYTE   PATT
  POIN2 Label_015CE931
//  #08 //014   ----------------------------------------
 BYTE   N06  An1  v068
 BYTE   W12
 BYTE   N06
 BYTE   W12
 BYTE   Cn2  v072
 BYTE   W12
 BYTE   N06
 BYTE   W12
 BYTE   Bn1
 BYTE   W12
 BYTE   N06
 BYTE   W12
 BYTE   Cn2
 BYTE   W12
 BYTE   N06
 BYTE   W12
//  #08 //015   ----------------------------------------
Label_015CE979:
 BYTE   N06  An1  v072
 BYTE   W12
 BYTE   N06
 BYTE   W36
 BYTE   N06
 BYTE   W12
 BYTE   N06
 BYTE   W36
 BYTE   PEND 
//  #08 //016   ----------------------------------------
 BYTE   W96
//  #08 //017   ----------------------------------------
 BYTE   W96
//  #08 //018   ----------------------------------------
 BYTE   W96
//  #08 //019   ----------------------------------------
 BYTE   W96
//  #08 //020   ----------------------------------------
 BYTE   An1  v060
 BYTE   W12
 BYTE   N06
 BYTE   W12
 BYTE   Cn2
 BYTE   W12
 BYTE   N06
 BYTE   W12
 BYTE   Bn1
 BYTE   W12
 BYTE   N06
 BYTE   W12
 BYTE   Cn2
 BYTE   W12
 BYTE   Cn2  v064
 BYTE   W12
//  #08 //021   ----------------------------------------
 BYTE   Dn2
 BYTE   W12
 BYTE   N06
 BYTE   W12
 BYTE   En2
 BYTE   W12
 BYTE   N06
 BYTE   W12
 BYTE   Cn2
 BYTE   W12
 BYTE   N06
 BYTE   W12
 BYTE   Bn1
 BYTE   W12
 BYTE   N06
 BYTE   W12
//  #08 //022   ----------------------------------------
 BYTE   An1
 BYTE   W12
 BYTE   N06
 BYTE   W12
 BYTE   Cn2
 BYTE   W12
 BYTE   N06
 BYTE   W12
 BYTE   Bn1
 BYTE   W12
 BYTE   Bn1  v068
 BYTE   W12
 BYTE   Cn2
 BYTE   W12
 BYTE   N06
 BYTE   W12
//  #08 //023   ----------------------------------------
 BYTE   PATT
  POIN2 Label_015CE931
//  #08 //024   ----------------------------------------
Label_015CE9C0:
 BYTE   N06  An2  v044
 BYTE   N06  An3
 BYTE   W12
 BYTE   An2
 BYTE   N06  An3
 BYTE   W12
 BYTE   Cn3
 BYTE   N06  Cn4
 BYTE   W12
 BYTE   Cn3
 BYTE   N06  Cn4
 BYTE   W12
 BYTE   Bn2
 BYTE   N06  Bn3
 BYTE   W12
 BYTE   Bn2
 BYTE   N06  Bn3
 BYTE   W12
 BYTE   Cn3
 BYTE   N06  Cn4
 BYTE   W12
 BYTE   Cn3
 BYTE   N06  Cn4
 BYTE   W12
 BYTE   PEND 
//  #08 //025   ----------------------------------------
Label_015CE9E3:
 BYTE   N06  Dn3  v044
 BYTE   N06  Dn4
 BYTE   W12
 BYTE   Dn3
 BYTE   N06  Dn4
 BYTE   W12
 BYTE   En3
 BYTE   N06  En4
 BYTE   W12
 BYTE   En3
 BYTE   N06  En4
 BYTE   W12
 BYTE   Cn3
 BYTE   N06  Cn4
 BYTE   W12
 BYTE   Cn3
 BYTE   N06  Cn4
 BYTE   W12
 BYTE   Bn2
 BYTE   N06  Bn3
 BYTE   W12
 BYTE   Bn2
 BYTE   N06  Bn3
 BYTE   W12
 BYTE   PEND 
//  #08 //026   ----------------------------------------
 BYTE   PATT
  POIN2 Label_015CE9C0
//  #08 //027   ----------------------------------------
 BYTE   PATT
  POIN2 Label_015CE9E3
//  #08 //028   ----------------------------------------
Label_015CEA10:
 BYTE   N06  Gs2  v044
 BYTE   N06  Gs3
 BYTE   W12
 BYTE   Gs2
 BYTE   N06  Gs3
 BYTE   W12
 BYTE   Cn3
 BYTE   N06  Cn4
 BYTE   W12
 BYTE   Cn3
 BYTE   N06  Cn4
 BYTE   W12
 BYTE   Bn2
 BYTE   N06  Bn3
 BYTE   W12
 BYTE   Bn2
 BYTE   N06  Bn3
 BYTE   W12
 BYTE   Cn3
 BYTE   N06  Cn4
 BYTE   W12
 BYTE   Cn3
 BYTE   N06  Cn4
 BYTE   W12
 BYTE   PEND 
//  #08 //029   ----------------------------------------
 BYTE   PATT
  POIN2 Label_015CE9E3
//  #08 //030   ----------------------------------------
 BYTE   PATT
  POIN2 Label_015CEA10
//  #08 //031   ----------------------------------------
 BYTE   N06  An2  v044
 BYTE   N06  An3
 BYTE   W12
 BYTE   An2
 BYTE   N06  An3
 BYTE   W36
 BYTE   An2
 BYTE   N06  An3
 BYTE   W12
 BYTE   An2
 BYTE   N06  An3
 BYTE   W36
//  #08 //032   ----------------------------------------
 BYTE   W96
//  #08 //033   ----------------------------------------
 BYTE   W96
//  #08 //034   ----------------------------------------
 BYTE   W96
//  #08 //035   ----------------------------------------
 BYTE   W96
//  #08 //036   ----------------------------------------
 BYTE   W96
//  #08 //037   ----------------------------------------
 BYTE   W96
//  #08 //038   ----------------------------------------
 BYTE   W96
//  #08 //039   ----------------------------------------
 BYTE   W96
//  #08 //040   ----------------------------------------
 BYTE   An1  v064
 BYTE   W12
 BYTE   An1  v068
 BYTE   W12
 BYTE   Cn2
 BYTE   W12
 BYTE   N06
 BYTE   W12
 BYTE   Bn1
 BYTE   W12
 BYTE   N06
 BYTE   W12
 BYTE   Cn2
 BYTE   W12
 BYTE   N06
 BYTE   W12
//  #08 //041   ----------------------------------------
 BYTE   PATT
  POIN2 Label_015CE931
//  #08 //042   ----------------------------------------
 BYTE   PATT
  POIN2 Label_015CE944
//  #08 //043   ----------------------------------------
 BYTE   PATT
  POIN2 Label_015CE931
//  #08 //044   ----------------------------------------
 BYTE   N06  Gs1  v068
 BYTE   W12
 BYTE   N06
 BYTE   W12
 BYTE   Cn2
 BYTE   W12
 BYTE   N06
 BYTE   W12
 BYTE   Bn1
 BYTE   W12
 BYTE   N06
 BYTE   W12
 BYTE   Cn2
 BYTE   W12
 BYTE   N06
 BYTE   W12
//  #08 //045   ----------------------------------------
 BYTE   PATT
  POIN2 Label_015CE931
//  #08 //046   ----------------------------------------
 BYTE   N06  Gs1  v072
 BYTE   W12
 BYTE   N06
 BYTE   W12
 BYTE   Cn2
 BYTE   W12
 BYTE   N06
 BYTE   W12
 BYTE   Bn1
 BYTE   W12
 BYTE   N06
 BYTE   W12
 BYTE   Cn2
 BYTE   W12
 BYTE   N06
 BYTE   W12
//  #08 //047   ----------------------------------------
 BYTE   PATT
  POIN2 Label_015CE979
//  #08 //048   ----------------------------------------
Label_015CEAA6:
 BYTE   N06  An2  v056
 BYTE   N06  An3
 BYTE   W12
 BYTE   An2
 BYTE   N06  An3
 BYTE   W12
 BYTE   Cn3
 BYTE   N06  Cn4
 BYTE   W12
 BYTE   Cn3
 BYTE   N06  Cn4
 BYTE   W12
 BYTE   Bn2
 BYTE   N06  Bn3
 BYTE   W12
 BYTE   Bn2
 BYTE   N06  Bn3
 BYTE   W12
 BYTE   Cn3
 BYTE   N06  Cn4
 BYTE   W12
 BYTE   Cn3
 BYTE   N06  Cn4
 BYTE   W12
 BYTE   PEND 
//  #08 //049   ----------------------------------------
Label_015CEAC9:
 BYTE   N06  Dn3  v056
 BYTE   N06  Dn4
 BYTE   W12
 BYTE   Dn3
 BYTE   N06  Dn4
 BYTE   W12
 BYTE   En3
 BYTE   N06  En4
 BYTE   W12
 BYTE   En3
 BYTE   N06  En4
 BYTE   W12
 BYTE   Cn3
 BYTE   N06  Cn4
 BYTE   W12
 BYTE   Cn3
 BYTE   N06  Cn4
 BYTE   W12
 BYTE   Bn2
 BYTE   N06  Bn3
 BYTE   W12
 BYTE   Bn2
 BYTE   N06  Bn3
 BYTE   W12
 BYTE   PEND 
//  #08 //050   ----------------------------------------
 BYTE   PATT
  POIN2 Label_015CEAA6
//  #08 //051   ----------------------------------------
 BYTE   PATT
  POIN2 Label_015CEAC9
//  #08 //052   ----------------------------------------
 BYTE   PATT
  POIN2 Label_015CEAA6
//  #08 //053   ----------------------------------------
 BYTE   PATT
  POIN2 Label_015CEAC9
//  #08 //054   ----------------------------------------
 BYTE   N06  An1  v056
 BYTE   N06  An2
 BYTE   W12
 BYTE   An1
 BYTE   N06  An2
 BYTE   W12
 BYTE   Cn2
 BYTE   N06  Cn3
 BYTE   W12
 BYTE   Cn2
 BYTE   N06  Cn3
 BYTE   W12
 BYTE   Bn1
 BYTE   N06  Bn2
 BYTE   W12
 BYTE   Bn1
 BYTE   N06  Bn2
 BYTE   W12
 BYTE   Cn2
 BYTE   N06  Cn3
 BYTE   W24
//  #08 //055   ----------------------------------------
 BYTE   W96
//  #08 //056   ----------------------------------------
 BYTE   W96
//  #08 //057   ----------------------------------------
 BYTE   W96
//  #08 //058   ----------------------------------------
 BYTE   W96
//  #08 //059   ----------------------------------------
 BYTE   W96
//  #08 //060   ----------------------------------------
 BYTE   GoTo
  POIN2 Label_015CE910
 BYTE   FINE

//**************** Track 9 (Midi-Chn.8) ****************//

LocksQuestWarMachine_009:
//  #09 //000   ----------------------------------------
 BYTE   KEYSH   LocksQuestWarMachine_key+0
Label_015CF366:
 BYTE   VOICE   54
 BYTE   MODT 0
 BYTE   LFOS 44
 BYTE   VOL   80*LocksQuestWarMachine_mvl/mxv
 BYTE   W96
//  #09 //001   ----------------------------------------
 BYTE   W96
//  #09 //002   ----------------------------------------
 BYTE   W96
//  #09 //003   ----------------------------------------
 BYTE   W96
//  #09 //004   ----------------------------------------
 BYTE   W96
//  #09 //005   ----------------------------------------
 BYTE   W96
//  #09 //006   ----------------------------------------
 BYTE   W96
//  #09 //007   ----------------------------------------
 BYTE   W96
//  #09 //008   ----------------------------------------
 BYTE   W96
//  #09 //009   ----------------------------------------
 BYTE   W96
//  #09 //010   ----------------------------------------
 BYTE   W96
//  #09 //011   ----------------------------------------
 BYTE   W84
 BYTE   VOL   0*LocksQuestWarMachine_mvl/mxv
 BYTE   W12
//  #09 //012   ----------------------------------------
 BYTE   TIE  An3  v040
 BYTE   W24
 BYTE   VOL   0*LocksQuestWarMachine_mvl/mxv
 BYTE   W18
 BYTE   VOL   0*LocksQuestWarMachine_mvl/mxv
 BYTE   W18
 BYTE   VOL   0*LocksQuestWarMachine_mvl/mxv
 BYTE   W06
 BYTE   VOL   1*LocksQuestWarMachine_mvl/mxv
 BYTE   W12
 BYTE   VOL   1*LocksQuestWarMachine_mvl/mxv
 BYTE   W06
 BYTE   VOL   1*LocksQuestWarMachine_mvl/mxv
 BYTE   W12
//  #09 //013   ----------------------------------------
 BYTE   VOL   1*LocksQuestWarMachine_mvl/mxv
 BYTE   W06
 BYTE   VOL   1*LocksQuestWarMachine_mvl/mxv
 BYTE   W06
 BYTE   VOL   1*LocksQuestWarMachine_mvl/mxv
 BYTE   W06
 BYTE   VOL   2*LocksQuestWarMachine_mvl/mxv
 BYTE   W06
 BYTE   VOL   2*LocksQuestWarMachine_mvl/mxv
 BYTE   W06
 BYTE   VOL   2*LocksQuestWarMachine_mvl/mxv
 BYTE   W06
 BYTE   VOL   3*LocksQuestWarMachine_mvl/mxv
 BYTE   W06
 BYTE   VOL   3*LocksQuestWarMachine_mvl/mxv
 BYTE   W06
 BYTE   VOL   3*LocksQuestWarMachine_mvl/mxv
 BYTE   W06
 BYTE   VOL   3*LocksQuestWarMachine_mvl/mxv
 BYTE   W06
 BYTE   VOL   4*LocksQuestWarMachine_mvl/mxv
 BYTE   W06
 BYTE   VOL   5*LocksQuestWarMachine_mvl/mxv
 BYTE   W06
 BYTE   VOL   5*LocksQuestWarMachine_mvl/mxv
 BYTE   W06
 BYTE   VOL   5*LocksQuestWarMachine_mvl/mxv
 BYTE   W06
 BYTE   VOL   6*LocksQuestWarMachine_mvl/mxv
 BYTE   W06
 BYTE   VOL   6*LocksQuestWarMachine_mvl/mxv
 BYTE   W06
//  #09 //014   ----------------------------------------
 BYTE   VOL   7*LocksQuestWarMachine_mvl/mxv
 BYTE   W06
 BYTE   VOL   8*LocksQuestWarMachine_mvl/mxv
 BYTE   W06
 BYTE   VOL   8*LocksQuestWarMachine_mvl/mxv
 BYTE   W06
 BYTE   VOL   10*LocksQuestWarMachine_mvl/mxv
 BYTE   W06
 BYTE   VOL   10*LocksQuestWarMachine_mvl/mxv
 BYTE   W06
 BYTE   VOL   11*LocksQuestWarMachine_mvl/mxv
 BYTE   W06
 BYTE   VOL   11*LocksQuestWarMachine_mvl/mxv
 BYTE   W06
 BYTE   VOL   12*LocksQuestWarMachine_mvl/mxv
 BYTE   W06
 BYTE   VOL   13*LocksQuestWarMachine_mvl/mxv
 BYTE   W06
 BYTE   VOL   14*LocksQuestWarMachine_mvl/mxv
 BYTE   W06
 BYTE   VOL   15*LocksQuestWarMachine_mvl/mxv
 BYTE   W06
 BYTE   VOL   17*LocksQuestWarMachine_mvl/mxv
 BYTE   W06
 BYTE   VOL   18*LocksQuestWarMachine_mvl/mxv
 BYTE   W06
 BYTE   VOL   19*LocksQuestWarMachine_mvl/mxv
 BYTE   W06
 BYTE   VOL   20*LocksQuestWarMachine_mvl/mxv
 BYTE   W06
 BYTE   VOL   22*LocksQuestWarMachine_mvl/mxv
 BYTE   W06
//  #09 //015   ----------------------------------------
 BYTE   VOL   23*LocksQuestWarMachine_mvl/mxv
 BYTE   W06
 BYTE   VOL   24*LocksQuestWarMachine_mvl/mxv
 BYTE   W06
 BYTE   VOL   26*LocksQuestWarMachine_mvl/mxv
 BYTE   W06
 BYTE   VOL   28*LocksQuestWarMachine_mvl/mxv
 BYTE   W06
 BYTE   VOL   29*LocksQuestWarMachine_mvl/mxv
 BYTE   W06
 BYTE   VOL   31*LocksQuestWarMachine_mvl/mxv
 BYTE   W06
 BYTE   VOL   33*LocksQuestWarMachine_mvl/mxv
 BYTE   W06
 BYTE   VOL   35*LocksQuestWarMachine_mvl/mxv
 BYTE   W06
 BYTE   VOL   37*LocksQuestWarMachine_mvl/mxv
 BYTE   W06
 BYTE   VOL   39*LocksQuestWarMachine_mvl/mxv
 BYTE   W06
 BYTE   VOL   41*LocksQuestWarMachine_mvl/mxv
 BYTE   W06
 BYTE   VOL   43*LocksQuestWarMachine_mvl/mxv
 BYTE   W06
 BYTE   VOL   45*LocksQuestWarMachine_mvl/mxv
 BYTE   W06
 BYTE   VOL   48*LocksQuestWarMachine_mvl/mxv
 BYTE   W06
 BYTE   VOL   51*LocksQuestWarMachine_mvl/mxv
 BYTE   W06
 BYTE   VOL   53*LocksQuestWarMachine_mvl/mxv
 BYTE   W06
//  #09 //016   ----------------------------------------
 BYTE   EOT
 BYTE   W96
//  #09 //017   ----------------------------------------
 BYTE   W96
//  #09 //018   ----------------------------------------
 BYTE   W96
//  #09 //019   ----------------------------------------
 BYTE   W96
//  #09 //020   ----------------------------------------
 BYTE   W96
//  #09 //021   ----------------------------------------
 BYTE   W96
//  #09 //022   ----------------------------------------
 BYTE   W96
//  #09 //023   ----------------------------------------
 BYTE   W96
//  #09 //024   ----------------------------------------
 BYTE   W96
//  #09 //025   ----------------------------------------
 BYTE   W96
//  #09 //026   ----------------------------------------
 BYTE   W96
//  #09 //027   ----------------------------------------
 BYTE   W96
//  #09 //028   ----------------------------------------
 BYTE   W96
//  #09 //029   ----------------------------------------
 BYTE   W96
//  #09 //030   ----------------------------------------
 BYTE   W96
//  #09 //031   ----------------------------------------
 BYTE   W96
//  #09 //032   ----------------------------------------
 BYTE   W96
//  #09 //033   ----------------------------------------
 BYTE   W96
//  #09 //034   ----------------------------------------
 BYTE   W96
//  #09 //035   ----------------------------------------
 BYTE   W96
//  #09 //036   ----------------------------------------
 BYTE   W96
//  #09 //037   ----------------------------------------
 BYTE   W96
//  #09 //038   ----------------------------------------
 BYTE   W96
//  #09 //039   ----------------------------------------
 BYTE   W96
//  #09 //040   ----------------------------------------
 BYTE   W96
//  #09 //041   ----------------------------------------
 BYTE   W96
//  #09 //042   ----------------------------------------
 BYTE   W96
//  #09 //043   ----------------------------------------
 BYTE   W96
//  #09 //044   ----------------------------------------
 BYTE   W96
//  #09 //045   ----------------------------------------
 BYTE   W96
//  #09 //046   ----------------------------------------
 BYTE   W96
//  #09 //047   ----------------------------------------
 BYTE   W96
//  #09 //048   ----------------------------------------
 BYTE   TIE  An3  v056
 BYTE   W96
//  #09 //049   ----------------------------------------
 BYTE   W96
//  #09 //050   ----------------------------------------
 BYTE   W96
//  #09 //051   ----------------------------------------
 BYTE   EOT
 BYTE   N96  Bn3  v060
 BYTE   W96
//  #09 //052   ----------------------------------------
 BYTE   TIE  Fn3
 BYTE   TIE  Gs3
 BYTE   W96
//  #09 //053   ----------------------------------------
 BYTE   W96
//  #09 //054   ----------------------------------------
 BYTE   EOT
 BYTE   W96
//  #09 //055   ----------------------------------------
 BYTE   Fn3
 BYTE   W96
//  #09 //056   ----------------------------------------
 BYTE   W96
//  #09 //057   ----------------------------------------
 BYTE   W96
//  #09 //058   ----------------------------------------
 BYTE   W96
//  #09 //059   ----------------------------------------
 BYTE   W96
//  #09 //060   ----------------------------------------
 BYTE   GoTo
  POIN2 Label_015CF366
 BYTE   FINE

//**************** Track 10 (Midi-Chn.9) ****************//

LocksQuestWarMachine_010:
//  #10 //000   ----------------------------------------
 BYTE   VOL   80*LocksQuestWarMachine_mvl/mxv
 BYTE   KEYSH   LocksQuestWarMachine_key+0
Label_015CDD88:
 BYTE   VOICE   11
 BYTE   MODT 0
 BYTE   LFOS 44
 BYTE   W96
//  #10 //001   ----------------------------------------
 BYTE   W96
//  #10 //002   ----------------------------------------
 BYTE   W96
//  #10 //003   ----------------------------------------
 BYTE   W96
//  #10 //004   ----------------------------------------
 BYTE   W96
//  #10 //005   ----------------------------------------
 BYTE   W96
//  #10 //006   ----------------------------------------
 BYTE   W96
//  #10 //007   ----------------------------------------
 BYTE   W96
//  #10 //008   ----------------------------------------
 BYTE   W96
//  #10 //009   ----------------------------------------
 BYTE   W96
//  #10 //010   ----------------------------------------
 BYTE   W96
//  #10 //011   ----------------------------------------
 BYTE   W96
//  #10 //012   ----------------------------------------
 BYTE   W96
//  #10 //013   ----------------------------------------
 BYTE   W96
//  #10 //014   ----------------------------------------
 BYTE   W96
//  #10 //015   ----------------------------------------
 BYTE   W96
//  #10 //016   ----------------------------------------
 BYTE   W96
//  #10 //017   ----------------------------------------
 BYTE   W96
//  #10 //018   ----------------------------------------
 BYTE   W96
//  #10 //019   ----------------------------------------
 BYTE   W96
//  #10 //020   ----------------------------------------
 BYTE   W96
//  #10 //021   ----------------------------------------
 BYTE   W96
//  #10 //022   ----------------------------------------
 BYTE   W96
//  #10 //023   ----------------------------------------
 BYTE   W96
//  #10 //024   ----------------------------------------
Label_015CDDA6:
 BYTE   N12  An2  v056
 BYTE   W24
 BYTE   En2
 BYTE   W24
 BYTE   Dn2
 BYTE   W24
 BYTE   Cn2
 BYTE   W24
 BYTE   PEND 
//  #10 //025   ----------------------------------------
Label_015CDDB1:
 BYTE   N12  Dn2  v056
 BYTE   W24
 BYTE   N24  En3
 BYTE   W24
 BYTE   N24
 BYTE   W24
 BYTE   N24
 BYTE   W24
 BYTE   PEND 
//  #10 //026   ----------------------------------------
 BYTE   PATT
  POIN2 Label_015CDDA6
//  #10 //027   ----------------------------------------
Label_015CDDC2:
 BYTE   N12  Dn2  v056
 BYTE   W24
 BYTE   An1
 BYTE   W24
 BYTE   N12
 BYTE   W24
 BYTE   N12
 BYTE   W24
 BYTE   PEND 
//  #10 //028   ----------------------------------------
Label_015CDDCD:
 BYTE   N12  Gs2  v056
 BYTE   W24
 BYTE   En2
 BYTE   W24
 BYTE   Dn2
 BYTE   W24
 BYTE   Cn2
 BYTE   W24
 BYTE   PEND 
//  #10 //029   ----------------------------------------
 BYTE   PATT
  POIN2 Label_015CDDB1
//  #10 //030   ----------------------------------------
 BYTE   W96
//  #10 //031   ----------------------------------------
 BYTE   W96
//  #10 //032   ----------------------------------------
 BYTE   W96
//  #10 //033   ----------------------------------------
 BYTE   W96
//  #10 //034   ----------------------------------------
 BYTE   W96
//  #10 //035   ----------------------------------------
 BYTE   W96
//  #10 //036   ----------------------------------------
 BYTE   W96
//  #10 //037   ----------------------------------------
 BYTE   W96
//  #10 //038   ----------------------------------------
 BYTE   W96
//  #10 //039   ----------------------------------------
 BYTE   W96
//  #10 //040   ----------------------------------------
 BYTE   W96
//  #10 //041   ----------------------------------------
 BYTE   W96
//  #10 //042   ----------------------------------------
 BYTE   W96
//  #10 //043   ----------------------------------------
 BYTE   W96
//  #10 //044   ----------------------------------------
 BYTE   W96
//  #10 //045   ----------------------------------------
 BYTE   W96
//  #10 //046   ----------------------------------------
 BYTE   W96
//  #10 //047   ----------------------------------------
 BYTE   W96
//  #10 //048   ----------------------------------------
 BYTE   PATT
  POIN2 Label_015CDDA6
//  #10 //049   ----------------------------------------
 BYTE   PATT
  POIN2 Label_015CDDB1
//  #10 //050   ----------------------------------------
 BYTE   PATT
  POIN2 Label_015CDDA6
//  #10 //051   ----------------------------------------
 BYTE   PATT
  POIN2 Label_015CDDC2
//  #10 //052   ----------------------------------------
 BYTE   PATT
  POIN2 Label_015CDDCD
//  #10 //053   ----------------------------------------
 BYTE   PATT
  POIN2 Label_015CDDB1
//  #10 //054   ----------------------------------------
 BYTE   W96
//  #10 //055   ----------------------------------------
 BYTE   W96
//  #10 //056   ----------------------------------------
 BYTE   W96
//  #10 //057   ----------------------------------------
 BYTE   W96
//  #10 //058   ----------------------------------------
 BYTE   W96
//  #10 //059   ----------------------------------------
 BYTE   W96
//  #10 //060   ----------------------------------------
 BYTE   GoTo
  POIN2 Label_015CDD88
 BYTE   FINE

//**************** Track 11 (Midi-Chn.10) ****************//

LocksQuestWarMachine_011:
//  #11 //000   ----------------------------------------
 BYTE   KEYSH   LocksQuestWarMachine_key+0
Label_015CCD6A:
 BYTE   VOICE   30
 BYTE   MODT 0
 BYTE   LFOS 44
 BYTE   VOL   80*LocksQuestWarMachine_mvl/mxv
 BYTE   W96
//  #11 //001   ----------------------------------------
 BYTE   W96
//  #11 //002   ----------------------------------------
 BYTE   W96
//  #11 //003   ----------------------------------------
 BYTE   W96
//  #11 //004   ----------------------------------------
 BYTE   W96
//  #11 //005   ----------------------------------------
 BYTE   W96
//  #11 //006   ----------------------------------------
 BYTE   W96
//  #11 //007   ----------------------------------------
 BYTE   W96
//  #11 //008   ----------------------------------------
 BYTE   TIE  An2  v044
 BYTE   W96
//  #11 //009   ----------------------------------------
 BYTE   W96
//  #11 //010   ----------------------------------------
 BYTE   W96
//  #11 //011   ----------------------------------------
 BYTE   W96
//  #11 //012   ----------------------------------------
 BYTE   W48
 BYTE   EOT
 BYTE   W48
//  #11 //013   ----------------------------------------
 BYTE   W96
//  #11 //014   ----------------------------------------
 BYTE   W72
 BYTE   VOL   10*LocksQuestWarMachine_mvl/mxv
 BYTE   W12
 BYTE   VOL   10*LocksQuestWarMachine_mvl/mxv
 BYTE   W06
 BYTE   VOL   10*LocksQuestWarMachine_mvl/mxv
 BYTE   W06
//  #11 //015   ----------------------------------------
 BYTE   VOL   11*LocksQuestWarMachine_mvl/mxv
 BYTE   N96  An2  v100
 BYTE   W06
 BYTE   VOL   11*LocksQuestWarMachine_mvl/mxv
 BYTE   W06
 BYTE   VOL   12*LocksQuestWarMachine_mvl/mxv
 BYTE   W06
 BYTE   VOL   14*LocksQuestWarMachine_mvl/mxv
 BYTE   W06
 BYTE   VOL   15*LocksQuestWarMachine_mvl/mxv
 BYTE   W06
 BYTE   VOL   17*LocksQuestWarMachine_mvl/mxv
 BYTE   W06
 BYTE   VOL   19*LocksQuestWarMachine_mvl/mxv
 BYTE   W06
 BYTE   VOL   20*LocksQuestWarMachine_mvl/mxv
 BYTE   W06
 BYTE   VOL   23*LocksQuestWarMachine_mvl/mxv
 BYTE   W06
 BYTE   VOL   27*LocksQuestWarMachine_mvl/mxv
 BYTE   W06
 BYTE   VOL   30*LocksQuestWarMachine_mvl/mxv
 BYTE   W06
 BYTE   VOL   34*LocksQuestWarMachine_mvl/mxv
 BYTE   W06
 BYTE   VOL   37*LocksQuestWarMachine_mvl/mxv
 BYTE   W06
 BYTE   VOL   42*LocksQuestWarMachine_mvl/mxv
 BYTE   W06
 BYTE   VOL   47*LocksQuestWarMachine_mvl/mxv
 BYTE   W06
 BYTE   VOL   53*LocksQuestWarMachine_mvl/mxv
 BYTE   W06
//  #11 //016   ----------------------------------------
 BYTE   W96
//  #11 //017   ----------------------------------------
 BYTE   W96
//  #11 //018   ----------------------------------------
 BYTE   W96
//  #11 //019   ----------------------------------------
 BYTE   W96
//  #11 //020   ----------------------------------------
 BYTE   W96
//  #11 //021   ----------------------------------------
 BYTE   W96
//  #11 //022   ----------------------------------------
 BYTE   W96
//  #11 //023   ----------------------------------------
 BYTE   W96
//  #11 //024   ----------------------------------------
 BYTE   TIE  An2  v056
 BYTE   W96
//  #11 //025   ----------------------------------------
 BYTE   W96
//  #11 //026   ----------------------------------------
 BYTE   W96
//  #11 //027   ----------------------------------------
 BYTE   W88
 BYTE   W01
 BYTE   EOT
 BYTE   W07
//  #11 //028   ----------------------------------------
 BYTE   W96
//  #11 //029   ----------------------------------------
 BYTE   W96
//  #11 //030   ----------------------------------------
 BYTE   W96
//  #11 //031   ----------------------------------------
 BYTE   W96
//  #11 //032   ----------------------------------------
 BYTE   W96
//  #11 //033   ----------------------------------------
 BYTE   W96
//  #11 //034   ----------------------------------------
 BYTE   W96
//  #11 //035   ----------------------------------------
 BYTE   W96
//  #11 //036   ----------------------------------------
 BYTE   W96
//  #11 //037   ----------------------------------------
 BYTE   W96
//  #11 //038   ----------------------------------------
 BYTE   W24
 BYTE   N24  An3  v020
 BYTE   W24
 BYTE   N15  An4
 BYTE   W12
 BYTE   N24  An3
 BYTE   W24
 BYTE   N16  An4
 BYTE   W12
//  #11 //039   ----------------------------------------
 BYTE   N30  An3
 BYTE   W24
 BYTE   N16  An4
 BYTE   W12
 BYTE   N36  An3
 BYTE   W36
 BYTE   N12
 BYTE   W12
 BYTE   N12
 BYTE   W12
//  #11 //040   ----------------------------------------
 BYTE   TIE  An2  v052
 BYTE   W96
//  #11 //041   ----------------------------------------
 BYTE   W96
//  #11 //042   ----------------------------------------
 BYTE   W96
//  #11 //043   ----------------------------------------
 BYTE   W88
 BYTE   W01
 BYTE   EOT
 BYTE   W07
//  #11 //044   ----------------------------------------
 BYTE   W96
//  #11 //045   ----------------------------------------
 BYTE   W96
//  #11 //046   ----------------------------------------
 BYTE   W96
//  #11 //047   ----------------------------------------
 BYTE   W96
//  #11 //048   ----------------------------------------
 BYTE   TIE  An2  v036
 BYTE   W96
//  #11 //049   ----------------------------------------
 BYTE   W96
//  #11 //050   ----------------------------------------
 BYTE   W96
//  #11 //051   ----------------------------------------
 BYTE   W88
 BYTE   W01
 BYTE   EOT
 BYTE   W07
//  #11 //052   ----------------------------------------
 BYTE   W96
//  #11 //053   ----------------------------------------
 BYTE   W96
//  #11 //054   ----------------------------------------
 BYTE   W96
//  #11 //055   ----------------------------------------
 BYTE   W96
//  #11 //056   ----------------------------------------
 BYTE   TIE  An2  v032
 BYTE   W96
//  #11 //057   ----------------------------------------
 BYTE   W96
//  #11 //058   ----------------------------------------
 BYTE   W96
//  #11 //059   ----------------------------------------
 BYTE   W88
 BYTE   W01
 BYTE   EOT
 BYTE   W07
//  #11 //060   ----------------------------------------
 BYTE   GoTo
  POIN2 Label_015CCD6A
 BYTE   FINE

//**************** Track 12 (Midi-Chn.11) ****************//

LocksQuestWarMachine_012:
//  #12 //000   ----------------------------------------
 BYTE   KEYSH   LocksQuestWarMachine_key+0
Label_015CEB32:
 BYTE   VOICE   29
 BYTE   MODT 0
 BYTE   LFOS 44
 BYTE   VOL   31*LocksQuestWarMachine_mvl/mxv
 BYTE   W96
//  #12 //001   ----------------------------------------
 BYTE   W96
//  #12 //002   ----------------------------------------
 BYTE   W96
//  #12 //003   ----------------------------------------
 BYTE   W96
//  #12 //004   ----------------------------------------
 BYTE   W96
//  #12 //005   ----------------------------------------
 BYTE   W96
//  #12 //006   ----------------------------------------
 BYTE   W96
//  #12 //007   ----------------------------------------
 BYTE   W96
//  #12 //008   ----------------------------------------
 BYTE   W96
//  #12 //009   ----------------------------------------
 BYTE   W96
//  #12 //010   ----------------------------------------
 BYTE   W96
//  #12 //011   ----------------------------------------
 BYTE   W96
//  #12 //012   ----------------------------------------
 BYTE   TIE  An2  v032
 BYTE   W96
//  #12 //013   ----------------------------------------
 BYTE   W96
//  #12 //014   ----------------------------------------
 BYTE   W96
//  #12 //015   ----------------------------------------
 BYTE   EOT
 BYTE   W96
//  #12 //016   ----------------------------------------
 BYTE   TIE  An2  v044
 BYTE   W96
//  #12 //017   ----------------------------------------
Label_015CEB52:
 BYTE   W24
 BYTE   BEND   c_v-1
 BYTE   W07
 BYTE   BEND   c_v-7
 BYTE   W01
 BYTE   BEND   c_v-8
 BYTE   W01
 BYTE   BEND   c_v-9
 BYTE   W01
 BYTE   BEND   c_v-10
 BYTE   W02
 BYTE   BEND   c_v-11
 BYTE   W04
 BYTE   BEND   c_v-15
 BYTE   W01
 BYTE   BEND   c_v-16
 BYTE   W01
 BYTE   BEND   c_v-17
 BYTE   W01
 BYTE   BEND   c_v-18
 BYTE   W01
 BYTE   BEND   c_v-19
 BYTE   W01
 BYTE   BEND   c_v-20
 BYTE   W01
 BYTE   BEND   c_v-20
 BYTE   W01
 BYTE   BEND   c_v-21
 BYTE   W01
 BYTE   BEND   c_v-22
 BYTE   W01
 BYTE   BEND   c_v-23
 BYTE   W01
 BYTE   BEND   c_v-24
 BYTE   W01
 BYTE   BEND   c_v-25
 BYTE   W01
 BYTE   BEND   c_v-25
 BYTE   W01
 BYTE   BEND   c_v-27
 BYTE   W01
 BYTE   BEND   c_v-27
 BYTE   W01
 BYTE   BEND   c_v-28
 BYTE   W01
 BYTE   BEND   c_v-29
 BYTE   W01
 BYTE   BEND   c_v-30
 BYTE   W01
 BYTE   BEND   c_v-31
 BYTE   W01
 BYTE   BEND   c_v-32
 BYTE   W01
 BYTE   BEND   c_v-32
 BYTE   W01
 BYTE   BEND   c_v-34
 BYTE   W02
 BYTE   BEND   c_v-35
 BYTE   W01
 BYTE   BEND   c_v-37
 BYTE   W02
 BYTE   BEND   c_v-38
 BYTE   W01
 BYTE   BEND   c_v-39
 BYTE   W01
 BYTE   BEND   c_v-40
 BYTE   W01
 BYTE   BEND   c_v-41
 BYTE   W01
 BYTE   BEND   c_v-41
 BYTE   W01
 BYTE   BEND   c_v-43
 BYTE   W01
 BYTE   BEND   c_v-49
 BYTE   W01
 BYTE   BEND   c_v-49
 BYTE   W01
 BYTE   BEND   c_v-49
 BYTE   W01
 BYTE   BEND   c_v-49
 BYTE   W01
 BYTE   BEND   c_v-49
 BYTE   W01
 BYTE   BEND   c_v-49
 BYTE   W01
 BYTE   BEND   c_v-49
 BYTE   W06
 BYTE   BEND   c_v-48
 BYTE   W04
 BYTE   BEND   c_v-48
 BYTE   W01
 BYTE   BEND   c_v-48
 BYTE   W01
 BYTE   BEND   c_v-48
 BYTE   W01
 BYTE   BEND   c_v-48
 BYTE   W05
 BYTE   PEND 
//  #12 //018   ----------------------------------------
 BYTE   En3
 BYTE   W24
 BYTE   W01
 BYTE   EOT
 BYTE   An2
 BYTE   W68
 BYTE   W03
//  #12 //019   ----------------------------------------
 BYTE   W96
//  #12 //020   ----------------------------------------
 BYTE   TIE  An2  v040
 BYTE   W96
//  #12 //021   ----------------------------------------
 BYTE   PATT
  POIN2 Label_015CEB52
//  #12 //022   ----------------------------------------
 BYTE   BEND   c_v+0
 BYTE   W24
 BYTE   EOT
 BYTE   An2
 BYTE   W72
//  #12 //023   ----------------------------------------
 BYTE   W96
//  #12 //024   ----------------------------------------
 BYTE   TIE  An2  v056
 BYTE   W96
//  #12 //025   ----------------------------------------
 BYTE   W96
//  #12 //026   ----------------------------------------
 BYTE   W92
 BYTE   W01
 BYTE   EOT
 BYTE   W03
//  #12 //027   ----------------------------------------
 BYTE   W96
//  #12 //028   ----------------------------------------
 BYTE   TIE  Gs2
 BYTE   W96
//  #12 //029   ----------------------------------------
 BYTE   W96
//  #12 //030   ----------------------------------------
 BYTE   W96
//  #12 //031   ----------------------------------------
 BYTE   W96
//  #12 //032   ----------------------------------------
 BYTE   EOT
 BYTE   W96
//  #12 //033   ----------------------------------------
 BYTE   W96
//  #12 //034   ----------------------------------------
 BYTE   W96
//  #12 //035   ----------------------------------------
 BYTE   W96
//  #12 //036   ----------------------------------------
 BYTE   W96
//  #12 //037   ----------------------------------------
 BYTE   W96
//  #12 //038   ----------------------------------------
 BYTE   W96
//  #12 //039   ----------------------------------------
 BYTE   W96
//  #12 //040   ----------------------------------------
 BYTE   W96
//  #12 //041   ----------------------------------------
 BYTE   W96
//  #12 //042   ----------------------------------------
 BYTE   W96
//  #12 //043   ----------------------------------------
 BYTE   W96
//  #12 //044   ----------------------------------------
 BYTE   W96
//  #12 //045   ----------------------------------------
 BYTE   W96
//  #12 //046   ----------------------------------------
 BYTE   W96
//  #12 //047   ----------------------------------------
 BYTE   W96
//  #12 //048   ----------------------------------------
Label_015CEBEE:
 BYTE   N48  An1  v048
 BYTE   W48
 BYTE   N24  Cn2
 BYTE   W24
 BYTE   An1
 BYTE   W24
 BYTE   PEND 
//  #12 //049   ----------------------------------------
Label_015CEBF8:
 BYTE   N24  Cn2  v048
 BYTE   W24
 BYTE   An1
 BYTE   W24
 BYTE   Cn2
 BYTE   W24
 BYTE   An1
 BYTE   W24
 BYTE   PEND 
//  #12 //050   ----------------------------------------
 BYTE   PATT
  POIN2 Label_015CEBEE
//  #12 //051   ----------------------------------------
 BYTE   PATT
  POIN2 Label_015CEBF8
//  #12 //052   ----------------------------------------
 BYTE   N48  Fn2  v048
 BYTE   W48
 BYTE   N24  Gs2
 BYTE   W24
 BYTE   Fn2
 BYTE   W24
//  #12 //053   ----------------------------------------
 BYTE   Gs2
 BYTE   W24
 BYTE   Fn2
 BYTE   W24
 BYTE   Gs2
 BYTE   W24
 BYTE   Fn2
 BYTE   W24
//  #12 //054   ----------------------------------------
 BYTE   N48  Dn2  v036
 BYTE   W48
 BYTE   N24  En2  v032
 BYTE   W24
 BYTE   Fn2
 BYTE   W24
//  #12 //055   ----------------------------------------
 BYTE   An2
 BYTE   N24  An3
 BYTE   W24
 BYTE   En2
 BYTE   N24  En3
 BYTE   W24
 BYTE   Cn2
 BYTE   N24  Cn3
 BYTE   W24
 BYTE   Bn1
 BYTE   N24  Bn2
 BYTE   W24
//  #12 //056   ----------------------------------------
 BYTE   TIE  An1
 BYTE   TIE  An2
 BYTE   W96
//  #12 //057   ----------------------------------------
 BYTE   W96
//  #12 //058   ----------------------------------------
 BYTE   W96
//  #12 //059   ----------------------------------------
 BYTE   EOT
 BYTE   An1  v057
 BYTE   W96
//  #12 //060   ----------------------------------------
 BYTE   GoTo
  POIN2 Label_015CEB32
 BYTE   FINE

//**************** Track 13 (Midi-Chn.12) ****************//

LocksQuestWarMachine_013:
//  #13 //000   ----------------------------------------
 BYTE   KEYSH   LocksQuestWarMachine_key+0
Label_017AFC9E:
 BYTE   VOICE   121
 BYTE   MODT 0
 BYTE   LFOS 44
 BYTE   PAN   c_v+0
 BYTE   VOL   37*LocksQuestWarMachine_mvl/mxv
 BYTE   N11  An2  v072
 BYTE   W24
 BYTE   N06  An2  v052
 BYTE   W12
 BYTE   An2  v056
 BYTE   W12
 BYTE   An2  v072
 BYTE   W24
 BYTE   An2  v048
 BYTE   W12
 BYTE   An2  v056
 BYTE   W12
//  #13 //001   ----------------------------------------
 BYTE   N12  An2  v076
 BYTE   W24
 BYTE   N06  An2  v052
 BYTE   W12
 BYTE   An2  v056
 BYTE   W12
 BYTE   An2  v080
 BYTE   W24
 BYTE   An2  v072
 BYTE   W12
 BYTE   N06
 BYTE   W12
//  #13 //002   ----------------------------------------
Label_017AFCCF:
 BYTE   N12  An2  v072
 BYTE   W24
 BYTE   N06  An2  v052
 BYTE   W12
 BYTE   An2  v056
 BYTE   W12
 BYTE   An2  v072
 BYTE   W24
 BYTE   An2  v048
 BYTE   W12
 BYTE   An2  v056
 BYTE   W12
 BYTE   PEND 
//  #13 //003   ----------------------------------------
Label_017AFCE4:
 BYTE   N12  An2  v084
 BYTE   W24
 BYTE   N06  An2  v060
 BYTE   W12
 BYTE   An2  v068
 BYTE   W12
 BYTE   An2  v088
 BYTE   W24
 BYTE   An2  v084
 BYTE   W12
 BYTE   N06
 BYTE   W12
 BYTE   PEND 
//  #13 //004   ----------------------------------------
 BYTE   N12
 BYTE   W24
 BYTE   N06  An2  v060
 BYTE   W12
 BYTE   An2  v068
 BYTE   W12
 BYTE   An2  v084
 BYTE   W24
 BYTE   An2  v056
 BYTE   W12
 BYTE   An2  v064
 BYTE   W12
//  #13 //005   ----------------------------------------
 BYTE   PATT
  POIN2 Label_017AFCE4
//  #13 //006   ----------------------------------------
 BYTE   N12  An2  v096
 BYTE   W24
 BYTE   N06  An2  v072
 BYTE   W12
 BYTE   An2  v080
 BYTE   W12
 BYTE   An2  v092
 BYTE   W24
 BYTE   An2  v064
 BYTE   W12
 BYTE   An2  v076
 BYTE   W12
//  #13 //007   ----------------------------------------
 BYTE   N12  An2  v096
 BYTE   W24
 BYTE   N06  An2  v072
 BYTE   W12
 BYTE   An2  v076
 BYTE   W12
 BYTE   An2  v100
 BYTE   W24
 BYTE   An2  v092
 BYTE   W12
 BYTE   N06
 BYTE   W12
//  #13 //008   ----------------------------------------
 BYTE   TIE  Bn0  v064
 BYTE   N11  An2  v108
 BYTE   W24
 BYTE   N06  An2  v080
 BYTE   W12
 BYTE   An2  v088
 BYTE   W12
 BYTE   An2  v108
 BYTE   W24
 BYTE   An2  v076
 BYTE   W12
 BYTE   An2  v088
 BYTE   W12
//  #13 //009   ----------------------------------------
 BYTE   N12  An2  v108
 BYTE   W24
 BYTE   N06  An2  v084
 BYTE   W12
 BYTE   An2  v088
 BYTE   W12
 BYTE   N24  Bn1  v044
 BYTE   N06  An2  v112
 BYTE   W06
 BYTE   EOT
 BYTE   Bn0
 BYTE   W18
 BYTE   N12  Cn2  v044
 BYTE   N06  An2  v108
 BYTE   W12
 BYTE   N12  Cn2  v044
 BYTE   N06  An2  v108
 BYTE   W12
//  #13 //010   ----------------------------------------
 BYTE   N12  Cn2  v044
 BYTE   N12  An2  v108
 BYTE   W24
 BYTE   N06  An2  v080
 BYTE   W12
 BYTE   An2  v088
 BYTE   W12
 BYTE   An2  v108
 BYTE   W24
 BYTE   An2  v076
 BYTE   W12
 BYTE   An2  v088
 BYTE   W12
//  #13 //011   ----------------------------------------
 BYTE   N12  An2  v108
 BYTE   W24
 BYTE   N24  Bn1  v052
 BYTE   N06  An2  v084
 BYTE   W12
 BYTE   An2  v088
 BYTE   W12
 BYTE   N12  Cn2  v056
 BYTE   N06  An2  v112
 BYTE   W24
 BYTE   N12  Cn2  v056
 BYTE   N06  An2  v108
 BYTE   W12
 BYTE   N12  Cn2  v056
 BYTE   N06  An2  v108
 BYTE   W12
//  #13 //012   ----------------------------------------
 BYTE   N44  Cn1  v060
 BYTE   N12  An2  v108
 BYTE   W24
 BYTE   N06  An2  v080
 BYTE   W12
 BYTE   An2  v088
 BYTE   W12
 BYTE   An2  v108
 BYTE   W24
 BYTE   An2  v076
 BYTE   W12
 BYTE   An2  v088
 BYTE   W12
//  #13 //013   ----------------------------------------
 BYTE   N12  An2  v108
 BYTE   W24
 BYTE   N06  An2  v084
 BYTE   W12
 BYTE   An2  v088
 BYTE   W12
 BYTE   An2  v112
 BYTE   W24
 BYTE   An2  v108
 BYTE   W12
 BYTE   N06
 BYTE   W12
//  #13 //014   ----------------------------------------
 BYTE   N12
 BYTE   W24
 BYTE   N06  An2  v080
 BYTE   W12
 BYTE   An2  v088
 BYTE   W12
 BYTE   An2  v108
 BYTE   W24
 BYTE   An2  v076
 BYTE   W12
 BYTE   An2  v088
 BYTE   W12
//  #13 //015   ----------------------------------------
 BYTE   N24  Cn1  v112
 BYTE   N12  An2  v108
 BYTE   W24
 BYTE   N06  An2  v100
 BYTE   W12
 BYTE   An2  v108
 BYTE   W12
 BYTE   N24  Cn1  v112
 BYTE   N06  An2  v116
 BYTE   W24
 BYTE   An2  v124
 BYTE   W12
 BYTE   An2  v127
 BYTE   W12
//  #13 //016   ----------------------------------------
 BYTE   N12  Cs1  v068
 BYTE   TIE  Gs1  v072
 BYTE   N06  An3  v068
 BYTE   W24
 BYTE   N12  Cs1
 BYTE   N12  Fs2  v012
 BYTE   N06  An3  v052
 BYTE   W12
 BYTE   An3  v056
 BYTE   W12
 BYTE   N12  Cs1  v068
 BYTE   N12  Fs2  v012
 BYTE   N06  An3  v064
 BYTE   W24
 BYTE   N12  Cs1  v068
 BYTE   N12  Fs2  v012
 BYTE   N06  An3  v048
 BYTE   W12
 BYTE   An3  v056
 BYTE   W12
//  #13 //017   ----------------------------------------
 BYTE   N12  Cs1  v068
 BYTE   N12  Fs2  v012
 BYTE   N06  An3  v068
 BYTE   W24
 BYTE   N12  Cs1
 BYTE   N12  Fs2  v012
 BYTE   N06  An3  v052
 BYTE   W12
 BYTE   An3  v056
 BYTE   W12
 BYTE   N12  Cs1  v068
 BYTE   N12  Fs2  v012
 BYTE   N06  An3  v072
 BYTE   W06
 BYTE   EOT
 BYTE   Gs1
 BYTE   W18
 BYTE   N12  Cs1  v068
 BYTE   N12  Fs2  v012
 BYTE   N06  An3  v064
 BYTE   W12
 BYTE   N12  En2  v024
 BYTE   N06  An3  v064
 BYTE   W12
//  #13 //018   ----------------------------------------
 BYTE   N12  Cs1  v068
 BYTE   N12  Fs2  v012
 BYTE   N06  An3  v068
 BYTE   W24
 BYTE   N12  Cs1
 BYTE   N12  Fs2  v012
 BYTE   N06  An3  v052
 BYTE   W12
 BYTE   An3  v056
 BYTE   W12
 BYTE   N12  Cs1  v068
 BYTE   N12  Fs2  v012
 BYTE   N06  An3  v064
 BYTE   W24
 BYTE   N12  Cs1  v068
 BYTE   N12  Fs2  v012
 BYTE   N06  An3  v048
 BYTE   W12
 BYTE   An3  v056
 BYTE   W12
//  #13 //019   ----------------------------------------
 BYTE   N12  Cs1  v068
 BYTE   N12  Fs2  v012
 BYTE   N12  An3  v068
 BYTE   W24
 BYTE   Cs1
 BYTE   N12  Fs2  v012
 BYTE   N06  An3  v052
 BYTE   W12
 BYTE   An3  v056
 BYTE   W12
 BYTE   N12  Cs1  v068
 BYTE   N12  Fs2  v016
 BYTE   N06  An3  v072
 BYTE   W24
 BYTE   N12  Cs1  v068
 BYTE   N12  Fs2  v016
 BYTE   N06  An3  v064
 BYTE   W12
 BYTE   N12  En2  v024
 BYTE   N06  An3  v064
 BYTE   W12
//  #13 //020   ----------------------------------------
Label_017AFEBF:
 BYTE   N12  Cs1  v068
 BYTE   N12  Fs2  v016
 BYTE   N12  An3  v076
 BYTE   W24
 BYTE   Cs1  v068
 BYTE   N12  Fs2  v016
 BYTE   N06  An3  v056
 BYTE   W12
 BYTE   An3  v064
 BYTE   W12
 BYTE   N12  Cs1  v068
 BYTE   N12  Fs2  v016
 BYTE   N06  An3  v072
 BYTE   W24
 BYTE   N12  Cs1  v068
 BYTE   N12  Fs2  v016
 BYTE   N06  An3  v056
 BYTE   W12
 BYTE   An3  v060
 BYTE   W12
 BYTE   PEND 
//  #13 //021   ----------------------------------------
 BYTE   N12  Cs1  v068
 BYTE   N12  Fs2  v016
 BYTE   N12  An3  v076
 BYTE   W24
 BYTE   Cs1  v068
 BYTE   N12  Fs2  v016
 BYTE   N06  An3  v056
 BYTE   W12
 BYTE   An3  v060
 BYTE   W12
 BYTE   N12  Cs1  v068
 BYTE   N12  Fs2  v016
 BYTE   N06  An3  v080
 BYTE   W24
 BYTE   N12  Cs1  v068
 BYTE   N12  Fs2  v016
 BYTE   N06  An3  v072
 BYTE   W12
 BYTE   N12  En2  v028
 BYTE   N06  An3  v072
 BYTE   W12
//  #13 //022   ----------------------------------------
 BYTE   PATT
  POIN2 Label_017AFEBF
//  #13 //023   ----------------------------------------
 BYTE   N12  Cs1  v068
 BYTE   N12  Fs2  v016
 BYTE   N12  An3  v076
 BYTE   W24
 BYTE   Cs1  v068
 BYTE   N12  Fs2  v016
 BYTE   N06  An3  v056
 BYTE   W12
 BYTE   An3  v060
 BYTE   W12
 BYTE   N12  Cs1  v068
 BYTE   N12  Fs2  v020
 BYTE   N06  An3  v080
 BYTE   W24
 BYTE   N12  Cs1  v068
 BYTE   N12  Fs2  v020
 BYTE   N06  An3  v072
 BYTE   W12
 BYTE   N12  En2  v032
 BYTE   N06  An3  v072
 BYTE   W12
//  #13 //024   ----------------------------------------
 BYTE   N12  Cn1  v068
 BYTE   TIE  Gs1  v072
 BYTE   W24
 BYTE   N12  Cn1  v068
 BYTE   N07  En4  v040
 BYTE   W24
 BYTE   N12  Cn1  v068
 BYTE   W24
 BYTE   N12
 BYTE   W12
 BYTE   N05  En4  v040
 BYTE   W12
//  #13 //025   ----------------------------------------
 BYTE   N12  Cn1  v068
 BYTE   W24
 BYTE   N12
 BYTE   W12
 BYTE   N07  En4  v040
 BYTE   W12
 BYTE   N12  Cs1  v068
 BYTE   W06
 BYTE   EOT
 BYTE   Gs1
 BYTE   W18
 BYTE   N12  Cs1
 BYTE   W24
//  #13 //026   ----------------------------------------
 BYTE   Cn1
 BYTE   W24
 BYTE   N12
 BYTE   N06  En4  v040
 BYTE   W24
 BYTE   N12  Cn1  v068
 BYTE   W24
 BYTE   N12
 BYTE   W12
 BYTE   N07  En4  v040
 BYTE   W12
//  #13 //027   ----------------------------------------
 BYTE   N12  Cn1  v068
 BYTE   W24
 BYTE   N12
 BYTE   W12
 BYTE   N08  En4  v040
 BYTE   W12
 BYTE   N12  Cn1  v068
 BYTE   W24
 BYTE   N12
 BYTE   W24
//  #13 //028   ----------------------------------------
 BYTE   Cs1
 BYTE   TIE  Gs1  v072
 BYTE   W24
 BYTE   N12  Cs1  v068
 BYTE   N07  En4  v040
 BYTE   W24
 BYTE   N12  Cs1  v068
 BYTE   W24
 BYTE   N12
 BYTE   W12
 BYTE   N05  En4  v040
 BYTE   W12
//  #13 //029   ----------------------------------------
 BYTE   N12  Cs1  v068
 BYTE   W24
 BYTE   N12
 BYTE   W12
 BYTE   N06  En4  v040
 BYTE   W12
 BYTE   N12  Cs1  v068
 BYTE   W06
 BYTE   EOT
 BYTE   Gs1
 BYTE   W18
 BYTE   N12  Cs1
 BYTE   W24
//  #13 //030   ----------------------------------------
 BYTE   Cn1
 BYTE   N12  Ds3  v012
 BYTE   W12
 BYTE   N12
 BYTE   W12
 BYTE   Cn1  v068
 BYTE   N12  Ds3  v012
 BYTE   N07  En4  v040
 BYTE   W12
 BYTE   N12  Ds3  v012
 BYTE   W12
 BYTE   Cn1  v068
 BYTE   N12  Ds3  v016
 BYTE   W12
 BYTE   N12
 BYTE   W12
 BYTE   Cn1  v068
 BYTE   N12  Ds3  v016
 BYTE   W12
 BYTE   N12
 BYTE   N05  En4  v040
 BYTE   W12
//  #13 //031   ----------------------------------------
 BYTE   N12  Cn1  v068
 BYTE   N12  Ds3  v016
 BYTE   W12
 BYTE   Ds3  v020
 BYTE   W12
 BYTE   Cn1  v068
 BYTE   N12  Ds3  v020
 BYTE   W12
 BYTE   N12
 BYTE   N06  En4  v040
 BYTE   W12
 BYTE   N12  Cn1  v068
 BYTE   N12  Ds3  v024
 BYTE   W12
 BYTE   N12
 BYTE   W12
 BYTE   Cn1  v068
 BYTE   N12  Ds3  v028
 BYTE   W12
 BYTE   N12
 BYTE   W12
//  #13 //032   ----------------------------------------
 BYTE   Dn1  v048
 BYTE   TIE  Gs1  v072
 BYTE   N06  An3  v052
 BYTE   W24
 BYTE   An3  v036
 BYTE   W12
 BYTE   An3  v044
 BYTE   W12
 BYTE   An3  v052
 BYTE   W24
 BYTE   An3  v036
 BYTE   W12
 BYTE   N12  Dn1  v048
 BYTE   N06  An3  v040
 BYTE   W12
//  #13 //033   ----------------------------------------
 BYTE   N12  Dn1  v048
 BYTE   N06  An3  v052
 BYTE   W24
 BYTE   An3  v036
 BYTE   W12
 BYTE   An3  v040
 BYTE   W12
 BYTE   An3  v056
 BYTE   W06
 BYTE   EOT
 BYTE   Gs1
 BYTE   W18
 BYTE   N06  An3  v052
 BYTE   W12
 BYTE   N06
 BYTE   W12
//  #13 //034   ----------------------------------------
 BYTE   N12  Dn1
 BYTE   N06  An3
 BYTE   W24
 BYTE   An3  v036
 BYTE   W12
 BYTE   An3  v044
 BYTE   W12
 BYTE   An3  v052
 BYTE   W24
 BYTE   An3  v036
 BYTE   W12
 BYTE   N12  Dn1  v052
 BYTE   N06  An3  v040
 BYTE   W12
//  #13 //035   ----------------------------------------
 BYTE   N12  Dn1  v052
 BYTE   N12  An3
 BYTE   W36
 BYTE   N06  An3  v040
 BYTE   W12
 BYTE   An3  v056
 BYTE   W24
 BYTE   An3  v052
 BYTE   W12
 BYTE   N06
 BYTE   W12
//  #13 //036   ----------------------------------------
 BYTE   N12  Dn1
 BYTE   N06  An3  v060
 BYTE   W24
 BYTE   An3  v044
 BYTE   W12
 BYTE   An3  v048
 BYTE   W12
 BYTE   An3  v056
 BYTE   W24
 BYTE   An3  v040
 BYTE   W12
 BYTE   N12  Dn1  v056
 BYTE   N06  An3  v048
 BYTE   W12
//  #13 //037   ----------------------------------------
 BYTE   N12  Dn1  v056
 BYTE   N06  An3  v060
 BYTE   W24
 BYTE   An3  v044
 BYTE   W12
 BYTE   An3  v048
 BYTE   W12
 BYTE   An3  v064
 BYTE   W24
 BYTE   An3  v056
 BYTE   W12
 BYTE   N06
 BYTE   W12
//  #13 //038   ----------------------------------------
 BYTE   N12  Dn1  v064
 BYTE   N06  An3  v060
 BYTE   W24
 BYTE   An3  v044
 BYTE   W12
 BYTE   An3  v048
 BYTE   W12
 BYTE   An3  v056
 BYTE   W36
 BYTE   N12  Dn1  v064
 BYTE   W12
//  #13 //039   ----------------------------------------
 BYTE   N12
 BYTE   N12  An3  v060
 BYTE   W36
 BYTE   N06  An3  v048
 BYTE   N07  En4  v056
 BYTE   W12
 BYTE   N06  An3  v064
 BYTE   N08  En4  v060
 BYTE   W24
 BYTE   N12  Dn1  v064
 BYTE   N06  An3  v072
 BYTE   N09  En4  v068
 BYTE   W12
 BYTE   N06  An3  v076
 BYTE   W12
//  #13 //040   ----------------------------------------
 BYTE   TIE  Fs1
 BYTE   N06  An3  v068
 BYTE   W24
 BYTE   An3  v052
 BYTE   W12
 BYTE   An3  v056
 BYTE   W12
 BYTE   N12  Fs2  v012
 BYTE   N06  An3  v064
 BYTE   W24
 BYTE   An3  v048
 BYTE   W12
 BYTE   An3  v056
 BYTE   W12
//  #13 //041   ----------------------------------------
 BYTE   N12  Fs2  v012
 BYTE   N06  An3  v068
 BYTE   W24
 BYTE   An3  v052
 BYTE   W12
 BYTE   An3  v056
 BYTE   W12
 BYTE   N12  Fs2  v012
 BYTE   N06  An3  v072
 BYTE   W06
 BYTE   EOT
 BYTE   Fs1
 BYTE   W18
 BYTE   N12  En2  v024
 BYTE   N06  An3  v064
 BYTE   W12
 BYTE   N06
 BYTE   W12
//  #13 //042   ----------------------------------------
 BYTE   N12  Fs2  v012
 BYTE   N06  An3  v068
 BYTE   W24
 BYTE   An3  v052
 BYTE   W12
 BYTE   An3  v056
 BYTE   W12
 BYTE   N12  Fs2  v012
 BYTE   N06  An3  v064
 BYTE   W24
 BYTE   An3  v048
 BYTE   W12
 BYTE   An3  v056
 BYTE   W12
//  #13 //043   ----------------------------------------
 BYTE   N12  Fs2  v012
 BYTE   N12  An3  v068
 BYTE   W24
 BYTE   N06  An3  v052
 BYTE   W12
 BYTE   An3  v056
 BYTE   W12
 BYTE   N12  Fs2  v016
 BYTE   N06  An3  v072
 BYTE   W24
 BYTE   N12  En2  v024
 BYTE   N06  An3  v064
 BYTE   W12
 BYTE   N06
 BYTE   W12
//  #13 //044   ----------------------------------------
 BYTE   N12  Fs2  v016
 BYTE   N06  An3  v068
 BYTE   W24
 BYTE   An3  v052
 BYTE   W12
 BYTE   An3  v056
 BYTE   W12
 BYTE   N12  Fs2  v016
 BYTE   N06  An3  v064
 BYTE   W24
 BYTE   An3  v048
 BYTE   W12
 BYTE   An3  v056
 BYTE   W12
//  #13 //045   ----------------------------------------
 BYTE   N12  Fs2  v016
 BYTE   N06  An3  v068
 BYTE   W24
 BYTE   N12  Fs2  v016
 BYTE   N06  An3  v052
 BYTE   W12
 BYTE   An3  v056
 BYTE   W12
 BYTE   N12  Fs2  v016
 BYTE   N06  An3  v072
 BYTE   W24
 BYTE   N12  En2  v028
 BYTE   N06  An3  v064
 BYTE   W12
 BYTE   N06
 BYTE   W12
//  #13 //046   ----------------------------------------
 BYTE   N12  Fs2  v016
 BYTE   N06  An3  v068
 BYTE   W24
 BYTE   N12  Fs2  v016
 BYTE   N06  An3  v052
 BYTE   W12
 BYTE   An3  v056
 BYTE   W12
 BYTE   N12  Fs2  v016
 BYTE   N06  An3  v064
 BYTE   W24
 BYTE   N12  En2  v016
 BYTE   N06  An3  v048
 BYTE   W12
 BYTE   An3  v056
 BYTE   W12
//  #13 //047   ----------------------------------------
 BYTE   N24  En2  v024
 BYTE   N12  An3  v068
 BYTE   W36
 BYTE   N06  An3  v056
 BYTE   W12
 BYTE   N12  Cn2  v036
 BYTE   N06  An3  v072
 BYTE   W12
 BYTE   N12  An1  v012
 BYTE   W12
 BYTE   An1  v020
 BYTE   N06  An3  v064
 BYTE   W12
 BYTE   N12  An1  v028
 BYTE   W12
//  #13 //048   ----------------------------------------
 BYTE   Dn1  v060
 BYTE   TIE  Gs1  v072
 BYTE   N06  An3  v068
 BYTE   W24
 BYTE   N24  Cn2  v028
 BYTE   N06  An3  v052
 BYTE   W12
 BYTE   An3  v056
 BYTE   W12
 BYTE   N24  Cn2  v028
 BYTE   N12  Cn3  v060
 BYTE   N06  An3  v064
 BYTE   W24
 BYTE   N24  Cn2  v028
 BYTE   N06  An3  v048
 BYTE   W12
 BYTE   An3  v056
 BYTE   W12
//  #13 //049   ----------------------------------------
 BYTE   N12  Dn1  v060
 BYTE   N24  Cn2  v028
 BYTE   N06  An3  v068
 BYTE   W24
 BYTE   N12  Dn1  v060
 BYTE   N24  Cn2  v028
 BYTE   N06  An3  v052
 BYTE   W12
 BYTE   An3  v056
 BYTE   W12
 BYTE   N24  Cn2  v028
 BYTE   N06  An3  v072
 BYTE   W06
 BYTE   EOT
 BYTE   Gs1
 BYTE   W18
 BYTE   N24  An1  v028
 BYTE   N06  An3  v064
 BYTE   W12
 BYTE   N06
 BYTE   W12
//  #13 //050   ----------------------------------------
Label_017B0219:
 BYTE   N12  Dn1  v060
 BYTE   N24  Cn2  v028
 BYTE   N06  An3  v068
 BYTE   W24
 BYTE   N24  Cn2  v028
 BYTE   N06  An3  v052
 BYTE   W12
 BYTE   An3  v056
 BYTE   W12
 BYTE   N24  Cn2  v028
 BYTE   N12  Cn3  v060
 BYTE   N06  An3  v064
 BYTE   W24
 BYTE   N24  Cn2  v028
 BYTE   N06  An3  v048
 BYTE   W12
 BYTE   An3  v056
 BYTE   W12
 BYTE   PEND 
//  #13 //051   ----------------------------------------
 BYTE   N12  Dn1  v060
 BYTE   N24  Cn2  v028
 BYTE   N12  An3  v068
 BYTE   W24
 BYTE   Dn1  v060
 BYTE   N24  Cn2  v028
 BYTE   N06  An3  v052
 BYTE   W12
 BYTE   An3  v056
 BYTE   W12
 BYTE   N24  Cn2  v028
 BYTE   N06  An3  v072
 BYTE   W24
 BYTE   N24  An1  v028
 BYTE   N06  An3  v064
 BYTE   W12
 BYTE   N06
 BYTE   W12
//  #13 //052   ----------------------------------------
 BYTE   PATT
  POIN2 Label_017B0219
//  #13 //053   ----------------------------------------
 BYTE   N12  Dn1  v060
 BYTE   N24  Cn2  v028
 BYTE   N06  Gs3  v068
 BYTE   W24
 BYTE   N12  Dn1  v060
 BYTE   N24  Cn2  v028
 BYTE   N06  Gs3  v052
 BYTE   W12
 BYTE   Gs3  v056
 BYTE   W12
 BYTE   N24  Cn2  v028
 BYTE   N06  Gs3  v072
 BYTE   W24
 BYTE   N24  An1  v028
 BYTE   N06  Gs3  v064
 BYTE   W12
 BYTE   N06
 BYTE   W12
//  #13 //054   ----------------------------------------
 BYTE   N12  Dn1  v060
 BYTE   TIE  Bn1  v068
 BYTE   N06  An3
 BYTE   W36
 BYTE   An3  v056
 BYTE   W06
 BYTE   An3  v068
 BYTE   W06
 BYTE   N12  Dn1  v064
 BYTE   N06  An3  v080
 BYTE   W48
//  #13 //055   ----------------------------------------
 BYTE   N12  An3  v068
 BYTE   W24
 BYTE   N06  An3  v052
 BYTE   W24
 BYTE   N12  Dn1  v060
 BYTE   N06  An3  v072
 BYTE   W06
 BYTE   EOT
 BYTE   Bn1
 BYTE   W18
 BYTE   N06  An3  v064
 BYTE   W12
 BYTE   N06
 BYTE   W12
//  #13 //056   ----------------------------------------
 BYTE   TIE  Gs1  v072
 BYTE   N12  An3  v060
 BYTE   W24
 BYTE   Dn1  v056
 BYTE   N06  An3  v044
 BYTE   W12
 BYTE   An3  v048
 BYTE   W12
 BYTE   An3  v056
 BYTE   W24
 BYTE   N12  Dn1
 BYTE   N06  An3  v040
 BYTE   W12
 BYTE   An3  v048
 BYTE   W12
//  #13 //057   ----------------------------------------
 BYTE   N12  An3  v060
 BYTE   W24
 BYTE   Dn1  v048
 BYTE   N06  An3  v044
 BYTE   W12
 BYTE   An3  v048
 BYTE   W12
 BYTE   An3  v064
 BYTE   W06
 BYTE   EOT
 BYTE   Gs1
 BYTE   W18
 BYTE   N12  Dn1  v040
 BYTE   N06  An3  v056
 BYTE   W12
 BYTE   N06
 BYTE   W12
//  #13 //058   ----------------------------------------
 BYTE   N12  An3  v052
 BYTE   W24
 BYTE   Dn1  v032
 BYTE   N06  An3  v036
 BYTE   W12
 BYTE   An3  v044
 BYTE   W12
 BYTE   An3  v052
 BYTE   W24
 BYTE   N12  Dn1  v028
 BYTE   N06  An3  v036
 BYTE   W12
 BYTE   An3  v040
 BYTE   W12
//  #13 //059   ----------------------------------------
 BYTE   N12  An3  v052
 BYTE   W24
 BYTE   Dn1  v020
 BYTE   N06  An3  v036
 BYTE   W12
 BYTE   An3  v040
 BYTE   W12
 BYTE   An3  v056
 BYTE   W24
 BYTE   N12  Dn1  v012
 BYTE   N06  An3  v052
 BYTE   W12
 BYTE   N06
 BYTE   W12
//  #13 //060   ----------------------------------------
 BYTE   GoTo
  POIN2 Label_017AFC9E
//  #13 //061   ----------------------------------------
 BYTE   N12  An2  v084
 BYTE   W24
 BYTE   N06  An2  v060
 BYTE   W12
 BYTE   An2  v068
 BYTE   W12
 BYTE   An2  v080
 BYTE   W24
 BYTE   An2  v056
 BYTE   W12
 BYTE   An2  v064
 BYTE   W12
//  #13 //062   ----------------------------------------
 BYTE   N12  An2  v072
 BYTE   W24
 BYTE   N06  An2  v052
 BYTE   W12
 BYTE   An2  v056
 BYTE   W12
 BYTE   An2  v076
 BYTE   W24
 BYTE   An2  v072
 BYTE   W12
 BYTE   N06
 BYTE   W12
//  #13 //063   ----------------------------------------
 BYTE   PATT
  POIN2 Label_017AFCCF
//  #13 //064   ----------------------------------------
 BYTE   N12  An2  v072
 BYTE   W24
 BYTE   N06  An2  v052
 BYTE   W12
 BYTE   An2  v056
 BYTE   W12
 BYTE   An2  v076
 BYTE   W24
 BYTE   An2  v072
 BYTE   W12
 BYTE   N06
 BYTE   W06
 BYTE   FINE

//******************************************************//
	ALIGN 4

LocksQuestWarMachine:
	BYTE	13	// NumTrks
	BYTE	0	// NumBlks
	BYTE	LocksQuestWarMachine_pri	// Priority
	BYTE	LocksQuestWarMachine_rev	// Reverb.
    
	POIN2	LocksQuestWarMachine_grp
    
	POIN2	LocksQuestWarMachine_001
	POIN2	LocksQuestWarMachine_002
	POIN2	LocksQuestWarMachine_003
	POIN2	LocksQuestWarMachine_004
	POIN2	LocksQuestWarMachine_005
	POIN2	LocksQuestWarMachine_006
	POIN2	LocksQuestWarMachine_007
	POIN2	LocksQuestWarMachine_008
	POIN2	LocksQuestWarMachine_009
	POIN2	LocksQuestWarMachine_010
	POIN2	LocksQuestWarMachine_011
	POIN2	LocksQuestWarMachine_012
	POIN2	LocksQuestWarMachine_013

	
