//Event file generated from Sappy .s format.
	#include "MPlayDef.event"

	#define	EtrianOdyssey3ThePortCityBathedinTwilightPsyche_grp  voicegroup000
	#define	EtrianOdyssey3ThePortCityBathedinTwilightPsyche_pri  0
	#define	EtrianOdyssey3ThePortCityBathedinTwilightPsyche_rev  132
	#define	EtrianOdyssey3ThePortCityBathedinTwilightPsyche_mvl  127
	#define	EtrianOdyssey3ThePortCityBathedinTwilightPsyche_key  0
	#define	EtrianOdyssey3ThePortCityBathedinTwilightPsyche_tbs  1
	#define	EtrianOdyssey3ThePortCityBathedinTwilightPsyche_exg  0
	#define	EtrianOdyssey3ThePortCityBathedinTwilightPsyche_cmp  1

	// .rodata
	//	EtrianOdyssey3ThePortCityBathedinTwilightPsyche
	ALIGN 4


//**************** Track 1 (Midi-Chn.0) ****************//

EtrianOdyssey3ThePortCityBathedinTwilightPsyche_001:
//  #01 //000   ----------------------------------------
 BYTE   KEYSH   EtrianOdyssey3ThePortCityBathedinTwilightPsyche_key+0
 BYTE   TEMPO   136*EtrianOdyssey3ThePortCityBathedinTwilightPsyche_tbs/2
 BYTE   VOICE   124
 BYTE   VOL   62*EtrianOdyssey3ThePortCityBathedinTwilightPsyche_mvl/mxv
 BYTE   PAN   c_v+0
 BYTE   N04  Gn1  v127
 BYTE   W04
 BYTE   N03  Dn1  v052
 BYTE   W04
 BYTE   Dn1  v060
 BYTE   W03
 BYTE   Dn1  v056
 BYTE   W04
 BYTE   Dn1  v072
 BYTE   W03
 BYTE   N05  Dn1  v124
 BYTE   W06
 BYTE   Dn1  v127
 BYTE   W06
 BYTE   N05
 BYTE   W06
 BYTE   N06  Cn2
 BYTE   W06
 BYTE   N05  Dn1  v060
 BYTE   W06
Label_0102A71F:
 BYTE   N11  Cn1  v127
 BYTE   N06  Cs2
 BYTE   W06
 BYTE   N05  Dn1  v044
 BYTE   W06
 BYTE   Dn1  v060
 BYTE   W06
 BYTE   N11  Cn1  v116
 BYTE   N05  Fs1  v060
 BYTE   W05
 BYTE   Dn1  v127
 BYTE   W01
 BYTE   Fs1  v116
 BYTE   W06
 BYTE   Dn1  v052
 BYTE   W05
 BYTE   N06  Fs1  v116
 BYTE   W06
 BYTE   N02  Dn1  v056
 BYTE   W03
 BYTE   N03  Dn1  v048
 BYTE   W04
//  #01 //001   ----------------------------------------
 BYTE   N11  Cn1  v116
 BYTE   N05  Fs1
 BYTE   W05
 BYTE   N11  Dn1  v127
 BYTE   W06
 BYTE   Cn1
 BYTE   N06  Fs1  v116
 BYTE   W07
 BYTE   N05  Fs1  v056
 BYTE   W05
 BYTE   N17  Dn1  v127
 BYTE   W01
 BYTE   N05  Fs1  v116
 BYTE   W06
 BYTE   Fs1  v056
 BYTE   W06
 BYTE   N06  Fs1  v112
 BYTE   W06
 BYTE   N05  Dn1  v084
 BYTE   W06
 BYTE   N11  Cn1  v124
 BYTE   N06  Fs1  v127
 BYTE   W06
 BYTE   N05  Dn1  v060
 BYTE   W06
 BYTE   N11  Cn1  v127
 BYTE   N11  As1
 BYTE   W12
 BYTE   Dn1
 BYTE   N06  Fs1
 BYTE   W06
 BYTE   N05  Fs1  v064
 BYTE   W06
 BYTE   Fs1  v104
 BYTE   W06
 BYTE   N03  Dn1  v056
 BYTE   N05  Fs1
 BYTE   W06
//  #01 //002   ----------------------------------------
Label_0102A790:
 BYTE   N11  Cn1  v127
 BYTE   N05  Fs1  v100
 BYTE   W06
 BYTE   Dn1  v104
 BYTE   W06
 BYTE   N06  Fs1  v080
 BYTE   W06
 BYTE   N05  Dn1  v068
 BYTE   W05
 BYTE   N11  Dn1  v127
 BYTE   W01
 BYTE   N05  Fs1
 BYTE   W06
 BYTE   Fs1  v056
 BYTE   W05
 BYTE   N06  Fs1  v104
 BYTE   W07
 BYTE   N05  Dn1  v072
 BYTE   W06
 BYTE   N11  Cn1  v124
 BYTE   N06  Fs1  v127
 BYTE   W06
 BYTE   N05  Dn1  v060
 BYTE   W06
 BYTE   N11  Cn1  v127
 BYTE   N11  As1
 BYTE   W12
 BYTE   Dn1
 BYTE   N06  Fs1
 BYTE   W06
 BYTE   N05  Fs1  v064
 BYTE   W06
 BYTE   Fs1  v104
 BYTE   W06
 BYTE   N03  Dn1  v056
 BYTE   N05  Fs1
 BYTE   W06
 BYTE   PEND 
//  #01 //003   ----------------------------------------
 BYTE   PATT
  POIN2 Label_0102A790
//  #01 //004   ----------------------------------------
 BYTE   PATT
  POIN2 Label_0102A790
//  #01 //005   ----------------------------------------
 BYTE   PATT
  POIN2 Label_0102A790
//  #01 //006   ----------------------------------------
 BYTE   PATT
  POIN2 Label_0102A790
//  #01 //007   ----------------------------------------
 BYTE   N11  Cn1  v127
 BYTE   N05  Fs1  v100
 BYTE   W06
 BYTE   Dn1  v104
 BYTE   W06
 BYTE   N06  Fs1  v080
 BYTE   W06
 BYTE   N05  Dn1  v068
 BYTE   W05
 BYTE   N11  Dn1  v127
 BYTE   W01
 BYTE   N05  Fs1
 BYTE   W06
 BYTE   Fs1  v056
 BYTE   W05
 BYTE   N06  Fs1  v104
 BYTE   W07
 BYTE   N05  Dn1  v072
 BYTE   W06
 BYTE   N11  Cn1  v127
 BYTE   N06  Fs1
 BYTE   W06
 BYTE   N05  Dn1  v060
 BYTE   W06
 BYTE   N11  Cn1  v127
 BYTE   W01
 BYTE   As1
 BYTE   W11
 BYTE   Dn1
 BYTE   N05  Fs1
 BYTE   W06
 BYTE   Fs1  v060
 BYTE   W06
 BYTE   Fs1  v127
 BYTE   W06
 BYTE   N11  Dn1  v108
 BYTE   W06
//  #01 //008   ----------------------------------------
 BYTE   Cn1  v104
 BYTE   N06  Fs1  v112
 BYTE   W06
 BYTE   N02  Dn1  v056
 BYTE   W02
 BYTE   N03  Dn1  v072
 BYTE   W04
 BYTE   N11  Dn1  v127
 BYTE   W06
 BYTE   Cn1
 BYTE   N05  As1
 BYTE   W06
 BYTE   N06  Fs1
 BYTE   W06
 BYTE   N05  Dn1  v088
 BYTE   W05
 BYTE   N06  Dn1  v124
 BYTE   W07
 BYTE   N05  Dn1  v112
 BYTE   W06
 BYTE   N11  Cn1  v127
 BYTE   N06  Cs2
 BYTE   W06
 BYTE   N05  Dn1  v044
 BYTE   W06
 BYTE   Dn1  v060
 BYTE   W06
 BYTE   N11  Cn1  v116
 BYTE   N05  Fs1  v060
 BYTE   W05
 BYTE   N06  Dn1  v127
 BYTE   W01
 BYTE   N05  Fs1  v116
 BYTE   W06
 BYTE   Dn1  v052
 BYTE   W05
 BYTE   N06  Fs1  v116
 BYTE   W06
 BYTE   N02  Dn1  v056
 BYTE   W03
 BYTE   N03  Dn1  v048
 BYTE   W04
//  #01 //009   ----------------------------------------
 BYTE   N11  Cn1  v116
 BYTE   N05  Fs1
 BYTE   W05
 BYTE   N11  Dn1  v127
 BYTE   W06
 BYTE   Cn1
 BYTE   N06  Fs1  v116
 BYTE   W07
 BYTE   N05  Fs1  v056
 BYTE   W05
 BYTE   N11  Dn1  v127
 BYTE   W01
 BYTE   N05  Fs1  v116
 BYTE   W06
 BYTE   Fs1  v056
 BYTE   W06
 BYTE   N06  Fs1  v112
 BYTE   W06
 BYTE   N11  Dn1  v084
 BYTE   W06
 BYTE   Cn1  v124
 BYTE   N06  Fs1  v127
 BYTE   W06
 BYTE   N11  Dn1  v060
 BYTE   W06
 BYTE   Cn1  v127
 BYTE   N11  As1
 BYTE   W12
 BYTE   Dn1
 BYTE   N06  Fs1
 BYTE   W06
 BYTE   N05  Fs1  v064
 BYTE   W06
 BYTE   Fs1  v104
 BYTE   W06
 BYTE   N11  Dn1  v056
 BYTE   N05  Fs1
 BYTE   W06
//  #01 //010   ----------------------------------------
Label_0102A8C3:
 BYTE   N11  Cn1  v127
 BYTE   N05  Fs1  v100
 BYTE   W06
 BYTE   N11  Dn1  v104
 BYTE   W06
 BYTE   N06  Fs1  v080
 BYTE   W06
 BYTE   N05  Dn1  v068
 BYTE   W05
 BYTE   N11  Dn1  v127
 BYTE   W01
 BYTE   N05  Fs1
 BYTE   W06
 BYTE   Fs1  v056
 BYTE   W05
 BYTE   N06  Fs1  v104
 BYTE   W07
 BYTE   N11  Dn1  v072
 BYTE   W06
 BYTE   Cn1  v124
 BYTE   N06  Fs1  v127
 BYTE   W06
 BYTE   N11  Dn1  v060
 BYTE   W06
 BYTE   Cn1  v127
 BYTE   N11  As1
 BYTE   W12
 BYTE   Dn1
 BYTE   N06  Fs1
 BYTE   W06
 BYTE   N05  Fs1  v064
 BYTE   W06
 BYTE   Fs1  v104
 BYTE   W06
 BYTE   N11  Dn1  v056
 BYTE   N05  Fs1
 BYTE   W06
 BYTE   PEND 
//  #01 //011   ----------------------------------------
 BYTE   PATT
  POIN2 Label_0102A8C3
//  #01 //012   ----------------------------------------
 BYTE   N11  Cn1  v127
 BYTE   N05  Fs1  v100
 BYTE   W06
 BYTE   Dn1  v104
 BYTE   W06
 BYTE   N06  Fs1  v080
 BYTE   W06
 BYTE   N05  Dn1  v068
 BYTE   W05
 BYTE   N11  Dn1  v127
 BYTE   W01
 BYTE   N05  Fs1
 BYTE   W06
 BYTE   Fs1  v056
 BYTE   W05
 BYTE   N03  Fs1  v104
 BYTE   W01
 BYTE   N05  Dn1  v096
 BYTE   W06
 BYTE   Dn1  v104
 BYTE   W06
 BYTE   N11  Cn1  v127
 BYTE   N06  Cs2
 BYTE   W06
 BYTE   N05  Dn1  v044
 BYTE   W06
 BYTE   Dn1  v060
 BYTE   W06
 BYTE   N11  Cn1  v116
 BYTE   N05  Fs1  v060
 BYTE   W05
 BYTE   N06  Dn1  v127
 BYTE   W01
 BYTE   N05  Fs1  v116
 BYTE   W06
 BYTE   Dn1  v052
 BYTE   W05
 BYTE   N06  Fs1  v116
 BYTE   W06
 BYTE   N02  Dn1  v056
 BYTE   W03
 BYTE   N03  Dn1  v048
 BYTE   W04
//  #01 //013   ----------------------------------------
 BYTE   N11  Cn1  v116
 BYTE   N05  Fs1
 BYTE   W05
 BYTE   N11  Dn1  v127
 BYTE   W06
 BYTE   Cn1
 BYTE   N06  Fs1  v116
 BYTE   W07
 BYTE   N05  Fs1  v056
 BYTE   W05
 BYTE   N11  Dn1  v127
 BYTE   W01
 BYTE   N05  Fs1  v116
 BYTE   W06
 BYTE   Fs1  v056
 BYTE   W06
 BYTE   N06  Fs1  v112
 BYTE   W06
 BYTE   N05  Dn1  v084
 BYTE   W06
 BYTE   N11  Cn1  v124
 BYTE   N06  Fs1  v127
 BYTE   W06
 BYTE   N05  Dn1  v060
 BYTE   W06
 BYTE   N11  Cn1  v127
 BYTE   N11  As1
 BYTE   W12
 BYTE   Dn1
 BYTE   N06  Fs1
 BYTE   W06
 BYTE   N05  Fs1  v064
 BYTE   W06
 BYTE   Fs1  v104
 BYTE   W06
 BYTE   N03  Dn1  v056
 BYTE   N05  Fs1
 BYTE   W06
//  #01 //014   ----------------------------------------
 BYTE   N11  Cn1  v127
 BYTE   N05  Fs1  v100
 BYTE   W06
 BYTE   Dn1  v104
 BYTE   W06
 BYTE   N06  Fs1  v080
 BYTE   W06
 BYTE   N05  Dn1  v068
 BYTE   W05
 BYTE   N11  Dn1  v127
 BYTE   W01
 BYTE   N05  Fs1
 BYTE   W06
 BYTE   Fs1  v056
 BYTE   W05
 BYTE   N06  Fs1  v104
 BYTE   W07
 BYTE   N11  Dn1  v072
 BYTE   W06
 BYTE   Cn1  v124
 BYTE   N06  Fs1  v127
 BYTE   W06
 BYTE   N11  Dn1  v060
 BYTE   W06
 BYTE   Cn1  v127
 BYTE   N11  As1
 BYTE   W12
 BYTE   Dn1
 BYTE   N06  Fs1
 BYTE   W06
 BYTE   N05  Fs1  v064
 BYTE   W06
 BYTE   Fs1  v104
 BYTE   W06
 BYTE   N11  Dn1  v056
 BYTE   N05  Fs1
 BYTE   W06
//  #01 //015   ----------------------------------------
 BYTE   N11  Cn1  v127
 BYTE   N05  Fs1  v100
 BYTE   W06
 BYTE   N11  Dn1  v104
 BYTE   W06
 BYTE   N06  Fs1  v080
 BYTE   W06
 BYTE   N05  Dn1  v068
 BYTE   W05
 BYTE   N11  Dn1  v127
 BYTE   W01
 BYTE   N05  Fs1
 BYTE   W06
 BYTE   Fs1  v056
 BYTE   W05
 BYTE   N06  Fs1  v104
 BYTE   W07
 BYTE   N11  Dn1  v072
 BYTE   W06
 BYTE   N05  Fs1  v120
 BYTE   W05
 BYTE   N11  Dn1  v100
 BYTE   W06
 BYTE   Cn1  v108
 BYTE   N11  Fs1  v120
 BYTE   W12
 BYTE   N05  Dn1  v104
 BYTE   W06
 BYTE   N11  Dn1  v127
 BYTE   W06
 BYTE   N06  An1  v120
 BYTE   W06
 BYTE   An1  v096
 BYTE   W07
//  #01 //016   ----------------------------------------
 BYTE   N11  Dn1  v116
 BYTE   W05
 BYTE   Cn1  v127
 BYTE   W01
 BYTE   N05  As1
 BYTE   W05
 BYTE   N06  Fs1  v104
 BYTE   W06
 BYTE   N11  Dn1  v100
 BYTE   W01
 BYTE   N05  Fs1  v068
 BYTE   W05
 BYTE   N11  Cn1  v127
 BYTE   W01
 BYTE   N05  Fs1  v092
 BYTE   W06
 BYTE   Dn1  v127
 BYTE   W05
 BYTE   N11  Dn1  v096
 BYTE   W01
 BYTE   As1  v127
 BYTE   W12
 BYTE   Cn1
 BYTE   N06  Cs2
 BYTE   W06
 BYTE   N05  Dn1  v044
 BYTE   W06
 BYTE   N11  Dn1  v060
 BYTE   W06
 BYTE   Cn1  v116
 BYTE   N05  Fs1  v060
 BYTE   W05
 BYTE   N06  Dn1  v127
 BYTE   W01
 BYTE   N05  Fs1  v116
 BYTE   W06
 BYTE   N11  Dn1  v052
 BYTE   W05
 BYTE   N06  Fs1  v116
 BYTE   W06
 BYTE   N02  Dn1  v056
 BYTE   W03
 BYTE   N09  Dn1  v048
 BYTE   W04
//  #01 //017   ----------------------------------------
 BYTE   N11  Cn1  v116
 BYTE   N05  Fs1
 BYTE   W06
 BYTE   N11  Dn1  v127
 BYTE   W05
 BYTE   Cn1
 BYTE   N06  Fs1  v116
 BYTE   W07
 BYTE   N05  Fs1  v056
 BYTE   W05
 BYTE   N11  Dn1  v127
 BYTE   W01
 BYTE   N05  Fs1  v116
 BYTE   W06
 BYTE   Fs1  v056
 BYTE   W06
 BYTE   N06  Fs1  v112
 BYTE   W06
 BYTE   N11  Dn1  v084
 BYTE   W06
 BYTE   Cn1  v124
 BYTE   N06  Fs1  v127
 BYTE   W06
 BYTE   N11  Dn1  v060
 BYTE   W06
 BYTE   Cn1  v127
 BYTE   N11  As1
 BYTE   W12
 BYTE   Dn1
 BYTE   N06  Fs1
 BYTE   W06
 BYTE   N05  Fs1  v064
 BYTE   W06
 BYTE   Fs1  v104
 BYTE   W06
 BYTE   N11  Dn1  v056
 BYTE   N05  Fs1
 BYTE   W06
//  #01 //018   ----------------------------------------
 BYTE   PATT
  POIN2 Label_0102A8C3
//  #01 //019   ----------------------------------------
 BYTE   N11  Cn1  v127
 BYTE   N05  Fs1  v100
 BYTE   W06
 BYTE   N11  Dn1  v104
 BYTE   W06
 BYTE   N06  Fs1  v080
 BYTE   W06
 BYTE   N05  Dn1  v068
 BYTE   W05
 BYTE   N11  Dn1  v127
 BYTE   W01
 BYTE   N05  Fs1
 BYTE   W06
 BYTE   Fs1  v056
 BYTE   W05
 BYTE   N06  Fs1  v104
 BYTE   W07
 BYTE   N11  Dn1  v072
 BYTE   W06
 BYTE   Cn1  v124
 BYTE   N06  Fs1  v127
 BYTE   W06
 BYTE   N05  Dn1  v060
 BYTE   W06
 BYTE   N11  Cn1  v127
 BYTE   N11  As1
 BYTE   W12
 BYTE   Dn1
 BYTE   N06  Fs1
 BYTE   W06
 BYTE   N05  Fs1  v064
 BYTE   W06
 BYTE   Fs1  v060
 BYTE   W06
 BYTE   N03  Dn1  v056
 BYTE   N05  Fs1  v104
 BYTE   W06
//  #01 //020   ----------------------------------------
 BYTE   N11  Cn1  v127
 BYTE   N11  Dn1
 BYTE   N17  Fs1
 BYTE   W18
 BYTE   N11  Cn1
 BYTE   N11  Dn1  v096
 BYTE   W01
 BYTE   N05  Fs1  v127
 BYTE   W18
 BYTE   Dn1  v112
 BYTE   W05
 BYTE   Dn1  v127
 BYTE   W07
 BYTE   GoTo
  POIN2 Label_0102A71F
 BYTE   FINE

//**************** Track 2 (Midi-Chn.1) ****************//

EtrianOdyssey3ThePortCityBathedinTwilightPsyche_002:
//  #02 //000   ----------------------------------------
 BYTE   KEYSH   EtrianOdyssey3ThePortCityBathedinTwilightPsyche_key+0
 BYTE   VOICE   4
 BYTE   VOL   54*EtrianOdyssey3ThePortCityBathedinTwilightPsyche_mvl/mxv
 BYTE   PAN   c_v+0
 BYTE   W48
Label_0102A38D:
 BYTE   N56  En4  v080
 BYTE   W48
//  #02 //001   ----------------------------------------
 BYTE   W12
 BYTE   N11  Dn4
 BYTE   W12
 BYTE   En4
 BYTE   W12
 BYTE   TIE  An3
 BYTE   W60
//  #02 //002   ----------------------------------------
 BYTE   W40
 BYTE   W01
 BYTE   EOT
 BYTE   W54
 BYTE   W01
//  #02 //003   ----------------------------------------
 BYTE   W12
 BYTE   N11
 BYTE   W12
 BYTE   Gn3
 BYTE   W12
 BYTE   An3
 BYTE   W12
 BYTE   N02
 BYTE   W01
 BYTE   N22  Cn4
 BYTE   W23
 BYTE   N11  As3
 BYTE   W12
 BYTE   N23  An3
 BYTE   W12
//  #02 //004   ----------------------------------------
 BYTE   W12
 BYTE   N17  Gn3
 BYTE   W24
 BYTE   N60  En4
 BYTE   W60
//  #02 //005   ----------------------------------------
 BYTE   W12
 BYTE   N02
 BYTE   W01
 BYTE   N10  Fn4
 BYTE   W11
 BYTE   N11  En4
 BYTE   W12
 BYTE   TIE  An3
 BYTE   W60
//  #02 //006   ----------------------------------------
 BYTE   W52
 BYTE   W01
 BYTE   EOT
 BYTE   W42
 BYTE   W01
//  #02 //007   ----------------------------------------
 BYTE   W12
 BYTE   N11  Gs3
 BYTE   W12
 BYTE   Ds4
 BYTE   W12
 BYTE   Fn4
 BYTE   W12
 BYTE   N02
 BYTE   W01
 BYTE   N22  Gn4
 BYTE   W23
 BYTE   N11  Gs4
 BYTE   W12
 BYTE   N23  Gn4
 BYTE   W12
//  #02 //008   ----------------------------------------
 BYTE   W12
 BYTE   N11  Fn4
 BYTE   W12
 BYTE   N10  Gn4
 BYTE   W12
 BYTE   N68  Dn4
 BYTE   W60
//  #02 //009   ----------------------------------------
 BYTE   W12
 BYTE   N11  Cn4
 BYTE   W12
 BYTE   Dn4
 BYTE   W12
 BYTE   N80  Gn3
 BYTE   W60
//  #02 //010   ----------------------------------------
 BYTE   W96
//  #02 //011   ----------------------------------------
 BYTE   W12
 BYTE   N11
 BYTE   W12
 BYTE   Dn4
 BYTE   W12
 BYTE   Ds4
 BYTE   W12
 BYTE   N23  Fn4
 BYTE   W24
 BYTE   N11  Fs4
 BYTE   W12
 BYTE   N23  Fn4
 BYTE   W12
//  #02 //012   ----------------------------------------
 BYTE   W12
 BYTE   N11  Ds4
 BYTE   W12
 BYTE   Fn4
 BYTE   W12
 BYTE   N68  Cn5
 BYTE   W60
//  #02 //013   ----------------------------------------
 BYTE   W12
 BYTE   N11  As4
 BYTE   W12
 BYTE   Cn5
 BYTE   W12
 BYTE   N88  Fn4
 BYTE   W60
//  #02 //014   ----------------------------------------
 BYTE   W96
//  #02 //015   ----------------------------------------
 BYTE   W11
 BYTE   N02
 BYTE   W02
 BYTE   N10  Gn4
 BYTE   W11
 BYTE   N11  Fn4
 BYTE   W12
 BYTE   Gn4
 BYTE   W12
 BYTE   N23  Cn4
 BYTE   W24
 BYTE   N11  As3
 BYTE   W12
 BYTE   N23  An3
 BYTE   W12
//  #02 //016   ----------------------------------------
 BYTE   W12
 BYTE   As3
 BYTE   W24
 BYTE   N76  An3
 BYTE   W60
//  #02 //017   ----------------------------------------
 BYTE   W21
 BYTE   N04  Cn4  v064
 BYTE   W03
 BYTE   N11  Dn4  v080
 BYTE   W12
 BYTE   N80  An3
 BYTE   W60
//  #02 //018   ----------------------------------------
 BYTE   W48
 BYTE   N64  Cn4
 BYTE   W48
//  #02 //019   ----------------------------------------
 BYTE   W21
 BYTE   N02  En4
 BYTE   W03
 BYTE   N11  Fn4
 BYTE   W12
 BYTE   N92  Cn4
 BYTE   W60
//  #02 //020   ----------------------------------------
 BYTE   W48
 BYTE   W01
 BYTE   GoTo
  POIN2 Label_0102A38D
 BYTE   FINE

//**************** Track 3 (Midi-Chn.2) ****************//

EtrianOdyssey3ThePortCityBathedinTwilightPsyche_003:
//  #03 //000   ----------------------------------------
 BYTE   KEYSH   EtrianOdyssey3ThePortCityBathedinTwilightPsyche_key+0
 BYTE   VOICE   4
 BYTE   VOL   20*EtrianOdyssey3ThePortCityBathedinTwilightPsyche_mvl/mxv
 BYTE   PAN   c_v+0
 BYTE   W48
Label_0102A46D:
 BYTE   W17
 BYTE   N56  En4  v080
 BYTE   W30
 BYTE   W01
//  #03 //001   ----------------------------------------
 BYTE   W28
 BYTE   W01
 BYTE   N11  Dn4
 BYTE   W12
 BYTE   En4
 BYTE   W12
 BYTE   TIE  An3
 BYTE   W42
 BYTE   W01
//  #03 //002   ----------------------------------------
 BYTE   W56
 BYTE   W02
 BYTE   EOT
 BYTE   W36
 BYTE   W02
//  #03 //003   ----------------------------------------
 BYTE   W28
 BYTE   W01
 BYTE   N11
 BYTE   W12
 BYTE   Gn3
 BYTE   W12
 BYTE   An3
 BYTE   W12
 BYTE   N02
 BYTE   W02
 BYTE   N22  Cn4
 BYTE   W22
 BYTE   N11  As3
 BYTE   W07
//  #03 //004   ----------------------------------------
 BYTE   W05
 BYTE   N23  An3
 BYTE   W24
 BYTE   N17  Gn3
 BYTE   W24
 BYTE   N60  En4
 BYTE   W42
 BYTE   W01
//  #03 //005   ----------------------------------------
 BYTE   W28
 BYTE   W01
 BYTE   N02
 BYTE   W02
 BYTE   N10  Fn4
 BYTE   W10
 BYTE   N11  En4
 BYTE   W12
 BYTE   TIE  An3
 BYTE   W42
 BYTE   W01
//  #03 //006   ----------------------------------------
 BYTE   W68
 BYTE   W02
 BYTE   EOT
 BYTE   W24
 BYTE   W02
//  #03 //007   ----------------------------------------
 BYTE   W28
 BYTE   W01
 BYTE   N11  Gs3
 BYTE   W12
 BYTE   Ds4
 BYTE   W12
 BYTE   Fn4
 BYTE   W12
 BYTE   N02
 BYTE   W02
 BYTE   N22  Gn4
 BYTE   W22
 BYTE   N11  Gs4
 BYTE   W07
//  #03 //008   ----------------------------------------
 BYTE   W05
 BYTE   N23  Gn4
 BYTE   W24
 BYTE   N11  Fn4
 BYTE   W12
 BYTE   N10  Gn4
 BYTE   W12
 BYTE   N68  Dn4
 BYTE   W42
 BYTE   W01
//  #03 //009   ----------------------------------------
 BYTE   W28
 BYTE   W01
 BYTE   N11  Cn4
 BYTE   W12
 BYTE   Dn4
 BYTE   W12
 BYTE   N80  Gn3
 BYTE   W42
 BYTE   W01
//  #03 //010   ----------------------------------------
 BYTE   W96
//  #03 //011   ----------------------------------------
 BYTE   W28
 BYTE   W01
 BYTE   N11
 BYTE   W12
 BYTE   Dn4
 BYTE   W12
 BYTE   Ds4
 BYTE   W12
 BYTE   N23  Fn4
 BYTE   W24
 BYTE   N11  Fs4
 BYTE   W07
//  #03 //012   ----------------------------------------
 BYTE   W05
 BYTE   N23  Fn4
 BYTE   W24
 BYTE   N11  Ds4
 BYTE   W12
 BYTE   Fn4
 BYTE   W12
 BYTE   N68  Cn5
 BYTE   W42
 BYTE   W01
//  #03 //013   ----------------------------------------
 BYTE   W28
 BYTE   W01
 BYTE   N11  As4
 BYTE   W12
 BYTE   Cn5
 BYTE   W12
 BYTE   N88  Fn4
 BYTE   W42
 BYTE   W01
//  #03 //014   ----------------------------------------
 BYTE   W96
//  #03 //015   ----------------------------------------
 BYTE   W28
 BYTE   N02
 BYTE   W03
 BYTE   N10  Gn4
 BYTE   W10
 BYTE   N11  Fn4
 BYTE   W12
 BYTE   Gn4
 BYTE   W12
 BYTE   N23  Cn4
 BYTE   W24
 BYTE   N11  As3
 BYTE   W07
//  #03 //016   ----------------------------------------
 BYTE   W05
 BYTE   N23  An3
 BYTE   W24
 BYTE   As3
 BYTE   W24
 BYTE   N76  An3
 BYTE   W42
 BYTE   W01
//  #03 //017   ----------------------------------------
 BYTE   W36
 BYTE   W03
 BYTE   N04  Cn4  v064
 BYTE   W02
 BYTE   N11  Dn4  v080
 BYTE   W12
 BYTE   N80  An3
 BYTE   W42
 BYTE   W01
//  #03 //018   ----------------------------------------
 BYTE   W64
 BYTE   W01
 BYTE   N64  Cn4
 BYTE   W30
 BYTE   W01
//  #03 //019   ----------------------------------------
 BYTE   W36
 BYTE   W03
 BYTE   N02  En4
 BYTE   W02
 BYTE   N11  Fn4
 BYTE   W12
 BYTE   N92  Cn4
 BYTE   W42
 BYTE   W01
//  #03 //020   ----------------------------------------
 BYTE   W48
 BYTE   W01
 BYTE   GoTo
  POIN2 Label_0102A46D
 BYTE   FINE

//**************** Track 4 (Midi-Chn.3) ****************//

EtrianOdyssey3ThePortCityBathedinTwilightPsyche_004:
//  #04 //000   ----------------------------------------
 BYTE   KEYSH   EtrianOdyssey3ThePortCityBathedinTwilightPsyche_key+0
 BYTE   VOICE   105
 BYTE   VOL   30*EtrianOdyssey3ThePortCityBathedinTwilightPsyche_mvl/mxv
 BYTE   PAN   c_v+0
 BYTE   W48
Label_0102A569:
 BYTE   TIE  Fn2  v076
 BYTE   TIE  Cn3
 BYTE   TIE  En3
 BYTE   W48
//  #04 //001   ----------------------------------------
 BYTE   W56
 BYTE   W03
 BYTE   EOT
 BYTE   Fn2  v060
 BYTE   En3
 BYTE   W01
 BYTE   N11  Fn2  v068
 BYTE   N11  Cn3
 BYTE   N11  En3
 BYTE   W12
 BYTE   Fn2  v072
 BYTE   N11  Cn3
 BYTE   N11  En3
 BYTE   W24
//  #04 //002   ----------------------------------------
 BYTE   W12
 BYTE   N32  Fn2  v060
 BYTE   N32  Cn3
 BYTE   N32  En3  v068
 BYTE   W36
 BYTE   N76  Fn2  v076
 BYTE   N76  An2
 BYTE   N80  Dn3
 BYTE   W48
//  #04 //003   ----------------------------------------
 BYTE   W48
 BYTE   N68  Gn2
 BYTE   N68  Cs3
 BYTE   N68  Fn3
 BYTE   W48
//  #04 //004   ----------------------------------------
 BYTE   W48
 BYTE   TIE  Fn2
 BYTE   TIE  Cn3
 BYTE   TIE  En3
 BYTE   W48
//  #04 //005   ----------------------------------------
 BYTE   W56
 BYTE   EOT
 BYTE   Cn3  v064
 BYTE   W01
 BYTE   Fn2
 BYTE   W03
 BYTE   N05  Fn2  v072
 BYTE   N05  Cn3
 BYTE   N05  En3
 BYTE   W24
 BYTE   N56  Fn2
 BYTE   N56  Cn3
 BYTE   N56  En3
 BYTE   W12
//  #04 //006   ----------------------------------------
Label_0102A5BF:
 BYTE   W48
 BYTE   N80  Fn2  v076
 BYTE   N80  Bn2
 BYTE   N80  Ds3
 BYTE   W48
 BYTE   PEND 
//  #04 //007   ----------------------------------------
 BYTE   PATT
  POIN2 Label_0102A5BF
//  #04 //008   ----------------------------------------
 BYTE   W48
 BYTE   TIE  Ds2  v076
 BYTE   TIE  As2
 BYTE   TIE  Dn3
 BYTE   W48
//  #04 //009   ----------------------------------------
 BYTE   W96
//  #04 //010   ----------------------------------------
 BYTE   W17
 BYTE   EOT
 BYTE   Ds2  v058
 BYTE   W06
 BYTE   Dn3
 BYTE   W24
 BYTE   W01
 BYTE   N88  Ds2
 BYTE   N88  As2
 BYTE   N88  Dn3
 BYTE   W48
//  #04 //011   ----------------------------------------
 BYTE   W48
 BYTE   N80  Ds2
 BYTE   N80  An2
 BYTE   N80  Cs3
 BYTE   W48
//  #04 //012   ----------------------------------------
 BYTE   W48
 BYTE   N88  Dn2
 BYTE   N88  An2
 BYTE   N88  Cn3
 BYTE   W48
//  #04 //013   ----------------------------------------
 BYTE   W60
 BYTE   N11  An2  v072
 BYTE   N11  Cn3
 BYTE   N11  Dn3
 BYTE   W12
 BYTE   An2  v068
 BYTE   N11  Cn3
 BYTE   N11  Dn3
 BYTE   W24
//  #04 //014   ----------------------------------------
 BYTE   W12
 BYTE   An2  v072
 BYTE   N11  Cn3
 BYTE   N11  Dn3
 BYTE   W36
 BYTE   TIE  Fn2  v076
 BYTE   TIE  Cn3
 BYTE   TIE  Cs3
 BYTE   W48
//  #04 //015   ----------------------------------------
 BYTE   W88
 BYTE   W01
 BYTE   EOT
 BYTE   Fn2  v060
 BYTE   Cs3
 BYTE   W07
//  #04 //016   ----------------------------------------
 BYTE   N42  Ds2
 BYTE   N42  Fn2
 BYTE   N44  Cn3
 BYTE   W48
 BYTE   TIE  Fn2
 BYTE   TIE  Cn3
 BYTE   TIE  En3
 BYTE   W48
//  #04 //017   ----------------------------------------
 BYTE   W92
 BYTE   W03
 BYTE   EOT
 BYTE   Fn2  v060
 BYTE   En3
 BYTE   W01
//  #04 //018   ----------------------------------------
 BYTE   W48
 BYTE   TIE  Fn2
 BYTE   TIE  Gn2
 BYTE   TIE  Cs3
 BYTE   W48
//  #04 //019   ----------------------------------------
 BYTE   W56
 BYTE   W03
 BYTE   EOT
 BYTE   Fn2  v055
 BYTE   Cs3
 BYTE   W01
 BYTE   N32  Fn2
 BYTE   N32  Gn2
 BYTE   N32  Cs3
 BYTE   W36
//  #04 //020   ----------------------------------------
 BYTE   N11  Cn3
 BYTE   N11  Cs3
 BYTE   N11  Fn3
 BYTE   W18
 BYTE   N05  Cn3
 BYTE   N05  Cs3
 BYTE   N05  Fn3
 BYTE   W30
 BYTE   W01
 BYTE   GoTo
  POIN2 Label_0102A569
 BYTE   FINE

//**************** Track 5 (Midi-Chn.4) ****************//

EtrianOdyssey3ThePortCityBathedinTwilightPsyche_005:
//  #05 //000   ----------------------------------------
 BYTE   KEYSH   EtrianOdyssey3ThePortCityBathedinTwilightPsyche_key+0
 BYTE   VOICE   2
 BYTE   VOL   47*EtrianOdyssey3ThePortCityBathedinTwilightPsyche_mvl/mxv
 BYTE   PAN   c_v+0
 BYTE   W48
Label_01029E8D:
 BYTE   N11  Dn1  v100
 BYTE   W12
 BYTE   Fn1
 BYTE   W12
 BYTE   Dn1
 BYTE   W12
 BYTE   N02  Gn1
 BYTE   W01
 BYTE   N22  An1
 BYTE   W11
//  #05 //001   ----------------------------------------
Label_01029E9B:
 BYTE   W12
 BYTE   N11  Gn1  v100
 BYTE   W12
 BYTE   Dn1
 BYTE   W12
 BYTE   N23  Cn2
 BYTE   W24
 BYTE   N11  Dn1
 BYTE   W12
 BYTE   Fn1
 BYTE   W12
 BYTE   Dn1
 BYTE   W12
 BYTE   PEND 
//  #05 //002   ----------------------------------------
 BYTE   Gn1
 BYTE   W12
 BYTE   Dn1
 BYTE   W12
 BYTE   Fn1
 BYTE   W12
 BYTE   Gn1
 BYTE   W12
 BYTE   As0
 BYTE   W12
 BYTE   Dn1
 BYTE   W12
 BYTE   As0
 BYTE   W12
 BYTE   N23  An1
 BYTE   W12
//  #05 //003   ----------------------------------------
 BYTE   W12
 BYTE   N11  As0
 BYTE   W12
 BYTE   N13
 BYTE   W12
 BYTE   N11  Dn1
 BYTE   W12
 BYTE   An0
 BYTE   W12
 BYTE   Cn1
 BYTE   W12
 BYTE   An0
 BYTE   W12
 BYTE   N24  Gn1
 BYTE   W12
//  #05 //004   ----------------------------------------
 BYTE   W12
 BYTE   N11  An0
 BYTE   W12
 BYTE   Cn1
 BYTE   W12
 BYTE   Dn1
 BYTE   W12
 BYTE   N11
 BYTE   W12
 BYTE   Fn1
 BYTE   W12
 BYTE   Dn1
 BYTE   W12
 BYTE   N23  An1
 BYTE   W12
//  #05 //005   ----------------------------------------
 BYTE   PATT
  POIN2 Label_01029E9B
//  #05 //006   ----------------------------------------
 BYTE   N11  Gn1  v100
 BYTE   W12
 BYTE   Dn1
 BYTE   W12
 BYTE   Fn1
 BYTE   W12
 BYTE   N02
 BYTE   W01
 BYTE   N10  Gn1
 BYTE   W11
 BYTE   N11  Gs0
 BYTE   W12
 BYTE   Ds1
 BYTE   W12
 BYTE   Gs0
 BYTE   W12
 BYTE   N04  Gn1
 BYTE   W01
 BYTE   N22  Gs1
 BYTE   W11
//  #05 //007   ----------------------------------------
 BYTE   W12
 BYTE   N11  Gs0
 BYTE   W12
 BYTE   N11
 BYTE   W12
 BYTE   Ds1
 BYTE   W12
 BYTE   Gn0
 BYTE   W12
 BYTE   Ds1
 BYTE   W12
 BYTE   Gn0
 BYTE   W12
 BYTE   N04  Fn1
 BYTE   W01
 BYTE   N22  Gn1
 BYTE   W11
//  #05 //008   ----------------------------------------
 BYTE   W12
 BYTE   N11  Gn0
 BYTE   W12
 BYTE   N11
 BYTE   W12
 BYTE   Ds1
 BYTE   W12
 BYTE   Cn1
 BYTE   W12
 BYTE   Ds1
 BYTE   W12
 BYTE   Cn1
 BYTE   W12
 BYTE   N23  Gn1
 BYTE   W12
//  #05 //009   ----------------------------------------
 BYTE   W12
 BYTE   N11  Fn1
 BYTE   W12
 BYTE   Cn1
 BYTE   W12
 BYTE   N23  As1
 BYTE   W24
 BYTE   N11  Cn1
 BYTE   W12
 BYTE   Gn1
 BYTE   W12
 BYTE   Cn1
 BYTE   W12
//  #05 //010   ----------------------------------------
 BYTE   Fn1
 BYTE   W12
 BYTE   Cn1
 BYTE   W12
 BYTE   Ds1
 BYTE   W12
 BYTE   Fn1
 BYTE   W12
 BYTE   N17  Gn1
 BYTE   W12
 BYTE   N11  Ds1
 BYTE   W12
 BYTE   Dn1
 BYTE   W12
 BYTE   N23  As0
 BYTE   W12
//  #05 //011   ----------------------------------------
 BYTE   W12
 BYTE   N11  Dn1
 BYTE   W12
 BYTE   N14  As0
 BYTE   W12
 BYTE   N11  Ds1
 BYTE   W12
 BYTE   Fn1
 BYTE   W12
 BYTE   Ds1
 BYTE   W12
 BYTE   Fn1
 BYTE   W12
 BYTE   N23  An1
 BYTE   W12
//  #05 //012   ----------------------------------------
 BYTE   W12
 BYTE   N11  Fn1
 BYTE   W12
 BYTE   Cn2
 BYTE   W12
 BYTE   Fn1
 BYTE   W12
 BYTE   As0
 BYTE   W12
 BYTE   Dn1
 BYTE   W12
 BYTE   As0
 BYTE   W12
 BYTE   N04  En1
 BYTE   W01
 BYTE   N22  Fn1
 BYTE   W11
//  #05 //013   ----------------------------------------
 BYTE   W12
 BYTE   N11  Dn1
 BYTE   W12
 BYTE   As0
 BYTE   W12
 BYTE   N23  As1
 BYTE   W24
 BYTE   N11  As0
 BYTE   W12
 BYTE   Dn1
 BYTE   W12
 BYTE   As0
 BYTE   W12
//  #05 //014   ----------------------------------------
 BYTE   Fn1
 BYTE   W12
 BYTE   As0
 BYTE   W12
 BYTE   Dn1
 BYTE   W12
 BYTE   Fn1
 BYTE   W12
 BYTE   An0
 BYTE   W12
 BYTE   Cs1
 BYTE   W12
 BYTE   An0
 BYTE   W12
 BYTE   N04  En1
 BYTE   W01
 BYTE   N22  Fn1
 BYTE   W11
//  #05 //015   ----------------------------------------
 BYTE   W12
 BYTE   N11  An0
 BYTE   W12
 BYTE   Cs1
 BYTE   W12
 BYTE   An0
 BYTE   W12
 BYTE   Gn1
 BYTE   W12
 BYTE   An0
 BYTE   W12
 BYTE   Fn1
 BYTE   W12
 BYTE   N23  Cn1
 BYTE   W12
//  #05 //016   ----------------------------------------
 BYTE   W12
 BYTE   N11  Fn1
 BYTE   W12
 BYTE   An1
 BYTE   W12
 BYTE   Cn2
 BYTE   W12
 BYTE   Dn1
 BYTE   W12
 BYTE   Cn1
 BYTE   W12
 BYTE   Dn1
 BYTE   W12
 BYTE   N23  An1
 BYTE   W12
//  #05 //017   ----------------------------------------
 BYTE   W12
 BYTE   N11  Fn1
 BYTE   W12
 BYTE   Cn1
 BYTE   W12
 BYTE   N23  Dn1
 BYTE   W24
 BYTE   N11  An1
 BYTE   W12
 BYTE   Fn1
 BYTE   W12
 BYTE   N23  Cn2
 BYTE   W12
//  #05 //018   ----------------------------------------
 BYTE   W12
 BYTE   N04  Dn2
 BYTE   W01
 BYTE   N10  En2
 BYTE   W11
 BYTE   N11  Dn2
 BYTE   W12
 BYTE   N23  Gn1
 BYTE   W24
 BYTE   N11  Fn1
 BYTE   W12
 BYTE   Cn1
 BYTE   W12
 BYTE   Cn2
 BYTE   W12
//  #05 //019   ----------------------------------------
 BYTE   Fn1
 BYTE   W12
 BYTE   Cn2
 BYTE   W12
 BYTE   Gn1
 BYTE   W12
 BYTE   N04  Fn2
 BYTE   W01
 BYTE   N22  Gn2
 BYTE   W23
 BYTE   N11  Fn1
 BYTE   W12
 BYTE   Cn1
 BYTE   W12
 BYTE   Fn1
 BYTE   W12
//  #05 //020   ----------------------------------------
 BYTE   N10  Ds1
 BYTE   W18
 BYTE   N10
 BYTE   W30
 BYTE   W01
 BYTE   GoTo
  POIN2 Label_01029E8D
 BYTE   FINE

//******************************************************//
	ALIGN 4

EtrianOdyssey3ThePortCityBathedinTwilightPsyche:
	BYTE	5	// NumTrks
	BYTE	0	// NumBlks
	BYTE	EtrianOdyssey3ThePortCityBathedinTwilightPsyche_pri	// Priority
	BYTE	EtrianOdyssey3ThePortCityBathedinTwilightPsyche_rev	// Reverb.
    
	POIN2	EtrianOdyssey3ThePortCityBathedinTwilightPsyche_grp
    
	POIN2	EtrianOdyssey3ThePortCityBathedinTwilightPsyche_001
	POIN2	EtrianOdyssey3ThePortCityBathedinTwilightPsyche_002
	POIN2	EtrianOdyssey3ThePortCityBathedinTwilightPsyche_003
	POIN2	EtrianOdyssey3ThePortCityBathedinTwilightPsyche_004
	POIN2	EtrianOdyssey3ThePortCityBathedinTwilightPsyche_005

	
