//Event file generated from Sappy .s format.
	#include "MPlayDef.event"

	#define	EtrianOdyssey3ChalkyWoodsThegis_grp  voicegroup000
	#define	EtrianOdyssey3ChalkyWoodsThegis_pri  0
	#define	EtrianOdyssey3ChalkyWoodsThegis_rev  0
	#define	EtrianOdyssey3ChalkyWoodsThegis_mvl  127
	#define	EtrianOdyssey3ChalkyWoodsThegis_key  0
	#define	EtrianOdyssey3ChalkyWoodsThegis_tbs  1
	#define	EtrianOdyssey3ChalkyWoodsThegis_exg  0
	#define	EtrianOdyssey3ChalkyWoodsThegis_cmp  1

	// .rodata
	//	EtrianOdyssey3ChalkyWoodsThegis
	ALIGN 4


//**************** Track 1 (Midi-Chn.0) ****************//

EtrianOdyssey3ChalkyWoodsThegis_001:
// 000   ----------------------------------------
 BYTE   KEYSH   EtrianOdyssey3ChalkyWoodsThegis_key+0
 BYTE   TEMPO   100*EtrianOdyssey3ChalkyWoodsThegis_tbs/2
 BYTE   VOICE   36
 BYTE   VOL   70*EtrianOdyssey3ChalkyWoodsThegis_mvl/mxv
 BYTE   PAN   c_v+0
 BYTE   W96
// 001   ----------------------------------------
 BYTE   W96
// 002   ----------------------------------------
 BYTE   W96
// 003   ----------------------------------------
 BYTE   W96
// 004   ----------------------------------------
 BYTE   W96
// 005   ----------------------------------------
 BYTE   W96
// 006   ----------------------------------------
 BYTE   W96
// 007   ----------------------------------------
 BYTE   W96
// 008   ----------------------------------------
 BYTE   W84
Label_0_01002713:
 BYTE   W12
// 009   ----------------------------------------
Label_0_01002714:
 BYTE   N05  Cn1  v068
 BYTE   W12
 BYTE   N05
 BYTE   W06
 BYTE   Cn1  v056
 BYTE   W06
 BYTE   Cn1  v068
 BYTE   W12
 BYTE   N05
 BYTE   W06
 BYTE   Cn1  v056
 BYTE   W06
 BYTE   Cn1  v068
 BYTE   W12
 BYTE   N05
 BYTE   W06
 BYTE   Cn1  v056
 BYTE   W06
 BYTE   Cn1  v068
 BYTE   W12
 BYTE   N05
 BYTE   W06
 BYTE   Cn1  v056
 BYTE   W06
 BYTE   PEND 
// 010   ----------------------------------------
Label_0_01002736:
 BYTE   N05  Fn1  v068
 BYTE   W12
 BYTE   N05
 BYTE   W06
 BYTE   Fn1  v056
 BYTE   W06
 BYTE   Fn1  v068
 BYTE   W12
 BYTE   N05
 BYTE   W06
 BYTE   Fn1  v056
 BYTE   W06
 BYTE   Fn1  v068
 BYTE   W12
 BYTE   N05
 BYTE   W06
 BYTE   Fn1  v056
 BYTE   W06
 BYTE   Fn1  v068
 BYTE   W06
 BYTE   Cn1  v056
 BYTE   W06
 BYTE   Cn1  v068
 BYTE   W06
 BYTE   Gs0  v056
 BYTE   W06
 BYTE   PEND 
// 011   ----------------------------------------
Label_0_0100275C:
 BYTE   N05  As0  v068
 BYTE   W12
 BYTE   N05
 BYTE   W06
 BYTE   As0  v056
 BYTE   W06
 BYTE   As0  v068
 BYTE   W12
 BYTE   N05
 BYTE   W06
 BYTE   As0  v056
 BYTE   W06
 BYTE   As0  v068
 BYTE   W12
 BYTE   N05
 BYTE   W06
 BYTE   As0  v056
 BYTE   W06
 BYTE   As0  v068
 BYTE   W12
 BYTE   N05
 BYTE   W06
 BYTE   As0  v056
 BYTE   W06
 BYTE   PEND 
// 012   ----------------------------------------
Label_0_0100277E:
 BYTE   N05  Ds1  v068
 BYTE   W12
 BYTE   N05
 BYTE   W06
 BYTE   Ds1  v056
 BYTE   W06
 BYTE   Ds1  v068
 BYTE   W12
 BYTE   N05
 BYTE   W06
 BYTE   Ds1  v056
 BYTE   W06
 BYTE   Ds1  v068
 BYTE   W12
 BYTE   N05
 BYTE   W06
 BYTE   Ds1  v056
 BYTE   W06
 BYTE   Gn1  v068
 BYTE   W06
 BYTE   Ds1  v056
 BYTE   W06
 BYTE   Ds1  v068
 BYTE   W06
 BYTE   As0  v056
 BYTE   W06
 BYTE   PEND 
// 013   ----------------------------------------
Label_0_010027A4:
 BYTE   N05  Gs0  v068
 BYTE   W12
 BYTE   N05
 BYTE   W06
 BYTE   Gs0  v056
 BYTE   W06
 BYTE   Gs0  v068
 BYTE   W12
 BYTE   N05
 BYTE   W06
 BYTE   Gs0  v056
 BYTE   W06
 BYTE   Gs0  v068
 BYTE   W12
 BYTE   N05
 BYTE   W06
 BYTE   Gs0  v056
 BYTE   W06
 BYTE   Gs0  v068
 BYTE   W12
 BYTE   N05
 BYTE   W06
 BYTE   Ds1  v056
 BYTE   W06
 BYTE   PEND 
// 014   ----------------------------------------
Label_0_010027C6:
 BYTE   N05  Cs1  v068
 BYTE   W12
 BYTE   N05
 BYTE   W06
 BYTE   Cs1  v056
 BYTE   W06
 BYTE   Cs1  v068
 BYTE   W12
 BYTE   N05
 BYTE   W06
 BYTE   Cs1  v056
 BYTE   W06
 BYTE   Cs1  v068
 BYTE   W12
 BYTE   N05
 BYTE   W06
 BYTE   Cs1  v056
 BYTE   W06
 BYTE   Cs1  v068
 BYTE   W12
 BYTE   N05
 BYTE   W06
 BYTE   Cs1  v056
 BYTE   W06
 BYTE   PEND 
// 015   ----------------------------------------
Label_0_010027E8:
 BYTE   N05  Dn1  v068
 BYTE   W12
 BYTE   N05
 BYTE   W06
 BYTE   Dn1  v056
 BYTE   W06
 BYTE   Dn1  v068
 BYTE   W12
 BYTE   N05
 BYTE   W06
 BYTE   Dn1  v056
 BYTE   W06
 BYTE   Dn1  v068
 BYTE   W12
 BYTE   N05
 BYTE   W06
 BYTE   Dn1  v056
 BYTE   W06
 BYTE   Gn1  v068
 BYTE   W06
 BYTE   Dn1  v056
 BYTE   W06
 BYTE   Dn1  v068
 BYTE   W06
 BYTE   Cn1  v056
 BYTE   W06
 BYTE   PEND 
// 016   ----------------------------------------
Label_0_0100280E:
 BYTE   N05  Gn0  v068
 BYTE   W12
 BYTE   N05
 BYTE   W06
 BYTE   Gn0  v056
 BYTE   W06
 BYTE   Gn0  v068
 BYTE   W12
 BYTE   N05
 BYTE   W06
 BYTE   Gn0  v056
 BYTE   W06
 BYTE   Gn0  v068
 BYTE   W12
 BYTE   N05
 BYTE   W06
 BYTE   Dn1  v056
 BYTE   W06
 BYTE   Fn1  v068
 BYTE   W06
 BYTE   Gn1
 BYTE   W06
 BYTE   Gn0
 BYTE   W12
 BYTE   PEND 
// 017   ----------------------------------------
 BYTE   PATT
  POIN2 Label_0_01002714
// 018   ----------------------------------------
 BYTE   PATT
  POIN2 Label_0_01002736
// 019   ----------------------------------------
 BYTE   PATT
  POIN2 Label_0_0100275C
// 020   ----------------------------------------
 BYTE   PATT
  POIN2 Label_0_0100277E
// 021   ----------------------------------------
 BYTE   PATT
  POIN2 Label_0_010027A4
// 022   ----------------------------------------
 BYTE   PATT
  POIN2 Label_0_010027C6
// 023   ----------------------------------------
 BYTE   PATT
  POIN2 Label_0_010027E8
// 024   ----------------------------------------
 BYTE   PATT
  POIN2 Label_0_0100280E
// 025   ----------------------------------------
 BYTE   N05  Gs0  v068
 BYTE   W12
 BYTE   N05
 BYTE   W06
 BYTE   Gs0  v056
 BYTE   W06
 BYTE   Gs0  v068
 BYTE   W12
 BYTE   N05
 BYTE   W06
 BYTE   Gs0  v056
 BYTE   W06
 BYTE   Gs0  v068
 BYTE   W12
 BYTE   N05
 BYTE   W06
 BYTE   Gs0  v056
 BYTE   W06
 BYTE   Gs0  v068
 BYTE   W12
 BYTE   N05
 BYTE   W06
 BYTE   As0  v064
 BYTE   W06
// 026   ----------------------------------------
 BYTE   Cn1  v068
 BYTE   W12
 BYTE   N05
 BYTE   W06
 BYTE   Cn1  v056
 BYTE   W06
 BYTE   Cn1  v068
 BYTE   W12
 BYTE   N05
 BYTE   W06
 BYTE   Cn1  v056
 BYTE   W06
 BYTE   Cn1  v068
 BYTE   W12
 BYTE   N05
 BYTE   W06
 BYTE   Fn1  v056
 BYTE   W06
 BYTE   Gn1  v068
 BYTE   W06
 BYTE   Cn1  v056
 BYTE   W06
 BYTE   Cn1  v068
 BYTE   W06
 BYTE   Cn1  v056
 BYTE   W06
// 027   ----------------------------------------
 BYTE   Gs0  v068
 BYTE   W12
 BYTE   N05
 BYTE   W06
 BYTE   Gs0  v056
 BYTE   W06
 BYTE   Gs0  v068
 BYTE   W12
 BYTE   N05
 BYTE   W06
 BYTE   Gs0  v056
 BYTE   W06
 BYTE   Gs0  v068
 BYTE   W12
 BYTE   N05
 BYTE   W06
 BYTE   Gs0  v056
 BYTE   W06
 BYTE   Gs0  v068
 BYTE   W12
 BYTE   N05
 BYTE   W06
 BYTE   As0  v056
 BYTE   W06
// 028   ----------------------------------------
 BYTE   PATT
  POIN2 Label_0_0100277E
// 029   ----------------------------------------
Label_0_010028C1:
 BYTE   N05  Gs0  v068
 BYTE   W12
 BYTE   N05
 BYTE   W06
 BYTE   Gs0  v056
 BYTE   W06
 BYTE   Gs0  v068
 BYTE   W12
 BYTE   N05
 BYTE   W06
 BYTE   Gs0  v056
 BYTE   W06
 BYTE   As0  v068
 BYTE   W12
 BYTE   N05
 BYTE   W06
 BYTE   As0  v056
 BYTE   W06
 BYTE   As0  v068
 BYTE   W12
 BYTE   N05
 BYTE   W06
 BYTE   As0  v056
 BYTE   W06
 BYTE   PEND 
// 030   ----------------------------------------
 BYTE   Fn1  v068
 BYTE   W12
 BYTE   N05
 BYTE   W06
 BYTE   Fn1  v056
 BYTE   W06
 BYTE   Fn1  v068
 BYTE   W12
 BYTE   N05
 BYTE   W06
 BYTE   Fn1  v056
 BYTE   W06
 BYTE   Gn0  v068
 BYTE   W12
 BYTE   N05
 BYTE   W06
 BYTE   Gn0  v056
 BYTE   W06
 BYTE   Gn0  v068
 BYTE   W12
 BYTE   N05
 BYTE   W06
 BYTE   Gn0  v056
 BYTE   W06
// 031   ----------------------------------------
 BYTE   PATT
  POIN2 Label_0_010028C1
// 032   ----------------------------------------
 BYTE   N05  Dn1  v068
 BYTE   W12
 BYTE   N05
 BYTE   W06
 BYTE   Dn1  v056
 BYTE   W06
 BYTE   Dn1  v068
 BYTE   W12
 BYTE   N05
 BYTE   W06
 BYTE   Dn1  v056
 BYTE   W06
 BYTE   Dn1  v068
 BYTE   W12
 BYTE   N05
 BYTE   W06
 BYTE   Dn1  v056
 BYTE   W06
 BYTE   Dn1  v068
 BYTE   W06
 BYTE   Cn1
 BYTE   W06
 BYTE   Dn1
 BYTE   W12
// 033   ----------------------------------------
 BYTE   Gn0
 BYTE   W12
 BYTE   N05
 BYTE   W06
 BYTE   Gn0  v056
 BYTE   W06
 BYTE   Gn0  v068
 BYTE   W12
 BYTE   N05
 BYTE   W06
 BYTE   Gn0  v056
 BYTE   W06
 BYTE   Gn0  v068
 BYTE   W12
 BYTE   N05
 BYTE   W06
 BYTE   Cn1  v056
 BYTE   W06
 BYTE   Fn1  v068
 BYTE   W06
 BYTE   Gn1
 BYTE   W06
 BYTE   Gn0
 BYTE   W12
// 034   ----------------------------------------
 BYTE   N64
 BYTE   W96
// 035   ----------------------------------------
Label_0_01002948:
 BYTE   N05  Gs0  v068
 BYTE   W12
 BYTE   N05
 BYTE   W06
 BYTE   Gs0  v056
 BYTE   W06
 BYTE   Gs0  v068
 BYTE   W12
 BYTE   N05
 BYTE   W06
 BYTE   Gs0  v056
 BYTE   W06
 BYTE   Gs0  v068
 BYTE   W12
 BYTE   N05
 BYTE   W06
 BYTE   Gs0  v056
 BYTE   W06
 BYTE   Gs0  v068
 BYTE   W12
 BYTE   N05
 BYTE   W06
 BYTE   Gs0  v056
 BYTE   W06
 BYTE   PEND 
// 036   ----------------------------------------
Label_0_0100296A:
 BYTE   N05  Gn0  v068
 BYTE   W12
 BYTE   N05
 BYTE   W06
 BYTE   Gn0  v056
 BYTE   W06
 BYTE   Gn0  v068
 BYTE   W12
 BYTE   N05
 BYTE   W06
 BYTE   Gn0  v056
 BYTE   W06
 BYTE   Gn0  v068
 BYTE   W12
 BYTE   N05
 BYTE   W06
 BYTE   Dn1  v056
 BYTE   W06
 BYTE   Dn1  v068
 BYTE   W06
 BYTE   Gn1
 BYTE   W06
 BYTE   N05
 BYTE   W06
 BYTE   Dn1  v056
 BYTE   W06
 BYTE   PEND 
// 037   ----------------------------------------
 BYTE   PATT
  POIN2 Label_0_01002948
// 038   ----------------------------------------
 BYTE   N05  Ds1  v068
 BYTE   W12
 BYTE   N05
 BYTE   W06
 BYTE   Ds1  v056
 BYTE   W06
 BYTE   Ds1  v068
 BYTE   W12
 BYTE   N05
 BYTE   W06
 BYTE   Ds1  v056
 BYTE   W06
 BYTE   Ds1  v068
 BYTE   W12
 BYTE   N05
 BYTE   W06
 BYTE   Ds1  v056
 BYTE   W06
 BYTE   Ds1  v068
 BYTE   W06
 BYTE   Ds1  v056
 BYTE   W06
 BYTE   Ds1  v068
 BYTE   W06
 BYTE   Gn0  v056
 BYTE   W06
// 039   ----------------------------------------
 BYTE   PATT
  POIN2 Label_0_01002948
// 040   ----------------------------------------
 BYTE   PATT
  POIN2 Label_0_0100296A
// 041   ----------------------------------------
 BYTE   N05  Fn1  v068
 BYTE   W12
 BYTE   N05
 BYTE   W06
 BYTE   Fn1  v056
 BYTE   W06
 BYTE   Fn1  v068
 BYTE   W12
 BYTE   N05
 BYTE   W06
 BYTE   Cn2  v056
 BYTE   W06
 BYTE   N05
 BYTE   W06
 BYTE   Fn2
 BYTE   W06
 BYTE   N05
 BYTE   W06
 BYTE   Cn2
 BYTE   W06
 BYTE   N05
 BYTE   W06
 BYTE   Fn1
 BYTE   W06
 BYTE   Fn1  v068
 BYTE   W06
 BYTE   Fn1  v036
 BYTE   W06
// 042   ----------------------------------------
 BYTE   Ds1  v068
 BYTE   W12
 BYTE   N05
 BYTE   W06
 BYTE   Ds1  v056
 BYTE   W06
 BYTE   Ds1  v068
 BYTE   W12
 BYTE   N05
 BYTE   W06
 BYTE   As1  v056
 BYTE   W06
 BYTE   N05
 BYTE   W06
 BYTE   Ds2
 BYTE   W06
 BYTE   N05
 BYTE   W06
 BYTE   As1
 BYTE   W06
 BYTE   N05
 BYTE   W06
 BYTE   Ds1
 BYTE   W06
 BYTE   Ds1  v068
 BYTE   W06
 BYTE   Ds1  v036
 BYTE   W06
// 043   ----------------------------------------
 BYTE   Dn1  v068
 BYTE   W12
 BYTE   N05
 BYTE   W06
 BYTE   Dn1  v056
 BYTE   W06
 BYTE   Dn1  v068
 BYTE   W12
 BYTE   N05
 BYTE   W06
 BYTE   Dn1  v056
 BYTE   W06
 BYTE   Dn1  v068
 BYTE   W12
 BYTE   N05
 BYTE   W06
 BYTE   Dn1  v056
 BYTE   W06
 BYTE   Dn1  v068
 BYTE   W06
 BYTE   Gs0  v056
 BYTE   W06
 BYTE   Gs0  v068
 BYTE   W06
 BYTE   Gs0  v056
 BYTE   W06
// 044   ----------------------------------------
 BYTE   Gn0  v068
 BYTE   W12
 BYTE   N05
 BYTE   W06
 BYTE   Gn0  v056
 BYTE   W06
 BYTE   Gn0  v068
 BYTE   W12
 BYTE   N05
 BYTE   W06
 BYTE   Gn0  v056
 BYTE   W06
 BYTE   Gn0  v068
 BYTE   W12
 BYTE   N05
 BYTE   W06
 BYTE   Gn0  v056
 BYTE   W06
 BYTE   Gn0  v068
 BYTE   W12
 BYTE   N05
 BYTE   W06
 BYTE   Gn0  v056
 BYTE   W06
// 045   ----------------------------------------
 BYTE   N68  Gn0  v068
 BYTE   W84
 BYTE   GoTo
  POIN2 Label_0_01002713
// 046   ----------------------------------------
 BYTE   W01
 BYTE   FINE

//**************** Track 2 (Midi-Chn.1) ****************//

EtrianOdyssey3ChalkyWoodsThegis_002:
// 000   ----------------------------------------
 BYTE   KEYSH   EtrianOdyssey3ChalkyWoodsThegis_key+0
 BYTE   VOICE   1
 BYTE   VOL   55*EtrianOdyssey3ChalkyWoodsThegis_mvl/mxv
 BYTE   PAN   c_v+0
 BYTE   W96
// 001   ----------------------------------------
 BYTE   W96
// 002   ----------------------------------------
 BYTE   W96
// 003   ----------------------------------------
 BYTE   W84
 BYTE   W03
 BYTE   N06  Cn4  v080
 BYTE   W02
 BYTE   N92  Dn4  v072
 BYTE   W03
 BYTE   Ds4  v084
 BYTE   W04
// 004   ----------------------------------------
 BYTE   Cn3  v064
 BYTE   N88  Gn3  v072
 BYTE   N32  Gn4  v092
 BYTE   W36
 BYTE   N05  Fn4
 BYTE   W06
 BYTE   Gn4  v088
 BYTE   W06
 BYTE   N40  Cn4  v080
 BYTE   W40
 BYTE   W01
 BYTE   N48  Fn2  v048
 BYTE   W02
 BYTE   N92  Gs2  v072
 BYTE   W03
 BYTE   Ds3  v076
 BYTE   W01
 BYTE   N40  Gn3  v080
 BYTE   W01
// 005   ----------------------------------------
 BYTE   W01
 BYTE   N32  Cn4  v092
 BYTE   W32
 BYTE   W02
 BYTE   N48  As3  v072
 BYTE   W06
 BYTE   N44  Cn4  v076
 BYTE   W07
 BYTE   N40  Gn3
 BYTE   W42
 BYTE   W01
 BYTE   N76  Gn2  v072
 BYTE   W02
 BYTE   N72  Dn3  v076
 BYTE   W02
 BYTE   Fn3
 BYTE   W01
// 006   ----------------------------------------
 BYTE   N40  As3  v084
 BYTE   W36
 BYTE   N44  Gn3  v080
 BYTE   W06
 BYTE   N54  As3
 BYTE   W06
 BYTE   N48  Ds4  v088
 BYTE   W44
 BYTE   W02
 BYTE   N03  Fn3  v084
 BYTE   N05  Gn3
 BYTE   W01
 BYTE   N04  Cn4  v088
 BYTE   W01
// 007   ----------------------------------------
 BYTE   Gs0  v080
 BYTE   N04  Gs1
 BYTE   W23
 BYTE   N66  Gn3  v092
 BYTE   N66  Cn4  v088
 BYTE   W01
 BYTE   N64  As0  v072
 BYTE   N64  As1  v080
 BYTE   N66  Fn3  v084
 BYTE   W66
 BYTE   N80  Fn4  v068
 BYTE   W01
 BYTE   N78  Gn4  v076
 BYTE   W02
 BYTE   N76  As4  v080
 BYTE   W02
 BYTE   Cn5
 BYTE   W01
// 008   ----------------------------------------
 BYTE   W72
 BYTE   N23  Gn0  v088
 BYTE   N23  Gn1  v092
 BYTE   W12
Label_1_01002AF5:
 BYTE   W12
// 009   ----------------------------------------
Label_1_01002AF6:
 BYTE   N05  Gn3  v084
 BYTE   W06
 BYTE   Cn4
 BYTE   W06
 BYTE   Dn4  v092
 BYTE   W06
 BYTE   Fn4
 BYTE   W06
 BYTE   N23  Gn4  v104
 BYTE   W36
 BYTE   N11  Gn4  v096
 BYTE   W12
 BYTE   Fn4  v100
 BYTE   W12
 BYTE   Cn4  v084
 BYTE   W12
 BYTE   PEND 
// 010   ----------------------------------------
Label_1_01002B10:
 BYTE   N14  Dn4  v100
 BYTE   W18
 BYTE   N05  Cn4  v084
 BYTE   W06
 BYTE   N44  Dn4  v100
 BYTE   W72
 BYTE   PEND 
// 011   ----------------------------------------
Label_1_01002B1D:
 BYTE   N05  Gn3  v084
 BYTE   W06
 BYTE   Cn4  v088
 BYTE   W06
 BYTE   Dn4  v108
 BYTE   W06
 BYTE   Fn4  v100
 BYTE   W06
 BYTE   N23  Gn4
 BYTE   W36
 BYTE   N11  Gn4  v096
 BYTE   W12
 BYTE   Fn4  v108
 BYTE   W12
 BYTE   Cn4  v096
 BYTE   W12
 BYTE   PEND 
// 012   ----------------------------------------
Label_1_01002B38:
 BYTE   N14  Gn4  v100
 BYTE   W18
 BYTE   N05  Fn4
 BYTE   W06
 BYTE   N44  Gn4  v096
 BYTE   W72
 BYTE   PEND 
// 013   ----------------------------------------
Label_1_01002B44:
 BYTE   N05  Gn4  v096
 BYTE   W06
 BYTE   Fn4
 BYTE   W06
 BYTE   Fn4  v100
 BYTE   W06
 BYTE   Gn4
 BYTE   W06
 BYTE   N28  Cn4  v088
 BYTE   W36
 BYTE   N11  Gn3  v096
 BYTE   W12
 BYTE   Cn4
 BYTE   W12
 BYTE   N05  Gn4  v100
 BYTE   W12
 BYTE   PEND 
// 014   ----------------------------------------
Label_1_01002B5E:
 BYTE   N05  Fn4  v100
 BYTE   W06
 BYTE   Gn4
 BYTE   W06
 BYTE   Fn4
 BYTE   W06
 BYTE   Ds4
 BYTE   W06
 BYTE   N44  Fn4  v096
 BYTE   W48
 BYTE   N11  Ds4  v092
 BYTE   W12
 BYTE   Fn4  v096
 BYTE   W12
 BYTE   PEND 
// 015   ----------------------------------------
Label_1_01002B74:
 BYTE   N32  Cn4  v068
 BYTE   N28  Gn4  v108
 BYTE   W36
 BYTE   N11  Cn5  v104
 BYTE   W12
 BYTE   N32  Cn4  v064
 BYTE   N32  Gn4  v108
 BYTE   W36
 BYTE   N11  Fn4  v104
 BYTE   W12
 BYTE   PEND 
// 016   ----------------------------------------
 BYTE   N64  Cn4  v060
 BYTE   N68  Gn4  v108
 BYTE   W96
// 017   ----------------------------------------
 BYTE   PATT
  POIN2 Label_1_01002AF6
// 018   ----------------------------------------
 BYTE   PATT
  POIN2 Label_1_01002B10
// 019   ----------------------------------------
 BYTE   PATT
  POIN2 Label_1_01002B1D
// 020   ----------------------------------------
 BYTE   PATT
  POIN2 Label_1_01002B38
// 021   ----------------------------------------
 BYTE   PATT
  POIN2 Label_1_01002B44
// 022   ----------------------------------------
 BYTE   PATT
  POIN2 Label_1_01002B5E
// 023   ----------------------------------------
 BYTE   PATT
  POIN2 Label_1_01002B74
// 024   ----------------------------------------
 BYTE   N64  Cn4  v060
 BYTE   N68  Gn4  v108
 BYTE   W84
 BYTE   N05  Fn4  v100
 BYTE   W06
 BYTE   Ds4
 BYTE   W06
// 025   ----------------------------------------
 BYTE   N32  Cn4  v108
 BYTE   W60
 BYTE   N05  As3  v076
 BYTE   W06
 BYTE   Cn4  v084
 BYTE   W06
 BYTE   Ds4  v096
 BYTE   W06
 BYTE   Dn4
 BYTE   W06
 BYTE   N05
 BYTE   W06
 BYTE   Cn4  v104
 BYTE   W06
// 026   ----------------------------------------
 BYTE   N44  Cn4  v096
 BYTE   W24
 BYTE   Gn3  v076
 BYTE   W60
 BYTE   N05  Fn4  v100
 BYTE   W06
 BYTE   Ds4
 BYTE   W06
// 027   ----------------------------------------
 BYTE   N40  Cn4  v108
 BYTE   W60
 BYTE   N05  As3  v088
 BYTE   W06
 BYTE   Cn4  v104
 BYTE   W06
 BYTE   Ds4  v100
 BYTE   W06
 BYTE   Dn4  v116
 BYTE   W06
 BYTE   Ds4
 BYTE   W06
 BYTE   Fn4  v100
 BYTE   W06
// 028   ----------------------------------------
 BYTE   N52  As3  v080
 BYTE   N56  Gn4  v116
 BYTE   W84
 BYTE   N05  Fn4  v084
 BYTE   W06
 BYTE   Ds4  v104
 BYTE   W06
// 029   ----------------------------------------
 BYTE   N44  Cn4
 BYTE   W12
 BYTE   N05  Gs2  v064
 BYTE   W06
 BYTE   Cn3
 BYTE   W06
 BYTE   N17  Fn3  v072
 BYTE   W36
 BYTE   N05  As3  v096
 BYTE   W06
 BYTE   Cn4
 BYTE   W06
 BYTE   Ds4
 BYTE   W06
 BYTE   Dn4  v104
 BYTE   W06
 BYTE   Dn4  v108
 BYTE   W06
 BYTE   Cn4
 BYTE   W06
// 030   ----------------------------------------
 BYTE   N44  Cn4  v112
 BYTE   W12
 BYTE   N05  Gs2  v064
 BYTE   W06
 BYTE   Cn3
 BYTE   W06
 BYTE   N17  Gn3  v080
 BYTE   W36
 BYTE   N05  As3  v100
 BYTE   W06
 BYTE   Cn4
 BYTE   W06
 BYTE   Ds4  v116
 BYTE   W06
 BYTE   Dn4  v104
 BYTE   W06
 BYTE   Dn4  v108
 BYTE   W06
 BYTE   Cn4  v116
 BYTE   W06
// 031   ----------------------------------------
 BYTE   N23  Cn4  v108
 BYTE   W24
 BYTE   N17  Cn4  v084
 BYTE   N23  Gn4  v116
 BYTE   W24
 BYTE   Fn4  v120
 BYTE   W24
 BYTE   N17  Fn4  v100
 BYTE   N23  Cn5  v112
 BYTE   W24
// 032   ----------------------------------------
 BYTE   N11  Cn4  v088
 BYTE   N05  Gs4  v104
 BYTE   W06
 BYTE   Gn4  v100
 BYTE   W06
 BYTE   N05
 BYTE   W06
 BYTE   Fn4  v116
 BYTE   W06
 BYTE   N40  Gn3  v080
 BYTE   N56  Cn4  v100
 BYTE   W72
// 033   ----------------------------------------
 BYTE   N11  Cn4  v088
 BYTE   N05  Gs4  v104
 BYTE   W06
 BYTE   Gn4  v092
 BYTE   W06
 BYTE   Gn4  v104
 BYTE   W06
 BYTE   Fn4  v112
 BYTE   W06
 BYTE   N52  Cn4  v080
 BYTE   N56  Gn4  v120
 BYTE   W72
// 034   ----------------------------------------
 BYTE   W03
 BYTE   N48  Dn4  v080
 BYTE   W03
 BYTE   N44  Gn4  v100
 BYTE   W54
 BYTE   N11  Gn4  v112
 BYTE   W12
 BYTE   Dn5  v116
 BYTE   W12
 BYTE   Fn5  v120
 BYTE   W12
// 035   ----------------------------------------
Label_1_01002C9A:
 BYTE   N23  Gn4  v108
 BYTE   N23  Ds5  v120
 BYTE   W36
 BYTE   N05  Dn5  v104
 BYTE   W06
 BYTE   Cn5  v112
 BYTE   W06
 BYTE   N28  Gn4
 BYTE   N28  Cn5
 BYTE   W36
 BYTE   N05  Dn5  v104
 BYTE   W12
 BYTE   PEND 
// 036   ----------------------------------------
 BYTE   N40  Fn4  v092
 BYTE   N40  As4  v108
 BYTE   W60
 BYTE   N11  Gn4  v120
 BYTE   W12
 BYTE   Dn5
 BYTE   W12
 BYTE   N05  Fn5  v112
 BYTE   W12
// 037   ----------------------------------------
 BYTE   N23  Gn4  v116
 BYTE   N28  Ds5  v127
 BYTE   W36
 BYTE   N05  Dn5  v112
 BYTE   W06
 BYTE   Cn5
 BYTE   W06
 BYTE   N28  Cn5  v116
 BYTE   W36
 BYTE   N05  Ds5  v112
 BYTE   W06
 BYTE   Fn5  v100
 BYTE   W06
// 038   ----------------------------------------
 BYTE   N32  As4  v112
 BYTE   N40  Gn5  v116
 BYTE   W60
 BYTE   N11  Gn4  v112
 BYTE   W12
 BYTE   Dn5  v116
 BYTE   W12
 BYTE   N05  Fn5  v120
 BYTE   W12
// 039   ----------------------------------------
 BYTE   PATT
  POIN2 Label_1_01002C9A
// 040   ----------------------------------------
 BYTE   N40  Fn4  v092
 BYTE   N40  As4  v108
 BYTE   W96
// 041   ----------------------------------------
 BYTE   N05  Gs4  v088
 BYTE   W06
 BYTE   As4  v100
 BYTE   W06
 BYTE   Gs4  v092
 BYTE   W06
 BYTE   Fn4  v112
 BYTE   W06
 BYTE   N44  Cn5  v116
 BYTE   W72
// 042   ----------------------------------------
 BYTE   N05  Gn4  v100
 BYTE   W06
 BYTE   Gs4
 BYTE   W06
 BYTE   Gn4
 BYTE   W06
 BYTE   Ds4
 BYTE   W06
 BYTE   N44  As3
 BYTE   W72
// 043   ----------------------------------------
 BYTE   N05  Fn4
 BYTE   W06
 BYTE   Gn4
 BYTE   W06
 BYTE   Fn4
 BYTE   W06
 BYTE   Cn4
 BYTE   W06
 BYTE   N32  Cn4  v092
 BYTE   N32  Fn4  v108
 BYTE   N32  Gs4  v112
 BYTE   W48
 BYTE   N17  Fn4  v108
 BYTE   N17  Gs4
 BYTE   N17  Cn5  v112
 BYTE   W24
// 044   ----------------------------------------
 BYTE   N40  Fn4  v104
 BYTE   N40  Gn4
 BYTE   N40  Cn5  v112
 BYTE   W48
 BYTE   Gn4  v096
 BYTE   N40  Bn4  v092
 BYTE   N40  Dn5  v108
 BYTE   W48
// 045   ----------------------------------------
 BYTE   N76  Gn1  v072
 BYTE   N78  Dn2  v084
 BYTE   N72  Bn2  v080
 BYTE   N72  Gn3  v084
 BYTE   W84
 BYTE   GoTo
  POIN2 Label_1_01002AF5
// 046   ----------------------------------------
 BYTE   W01
 BYTE   FINE

//**************** Track 3 (Midi-Chn.2) ****************//

EtrianOdyssey3ChalkyWoodsThegis_003:
// 000   ----------------------------------------
 BYTE   KEYSH   EtrianOdyssey3ChalkyWoodsThegis_key+0
 BYTE   VOICE   1
 BYTE   VOL   60*EtrianOdyssey3ChalkyWoodsThegis_mvl/mxv
 BYTE   PAN   c_v-62
 BYTE   W96
// 001   ----------------------------------------
 BYTE   W96
// 002   ----------------------------------------
 BYTE   W96
// 003   ----------------------------------------
 BYTE   W96
// 004   ----------------------------------------
 BYTE   W96
// 005   ----------------------------------------
 BYTE   W96
// 006   ----------------------------------------
 BYTE   W96
// 007   ----------------------------------------
 BYTE   W96
// 008   ----------------------------------------
 BYTE   W84
Label_2_01002D6D:
 BYTE   W12
// 009   ----------------------------------------
Label_2_01002D6E:
 BYTE   N11  Cn2  v048
 BYTE   W12
 BYTE   Gn2  v044
 BYTE   W12
 BYTE   N23  Cn3  v060
 BYTE   W24
 BYTE   N11  Cn2  v048
 BYTE   W12
 BYTE   Gn2  v052
 BYTE   W12
 BYTE   N23  Cn3  v044
 BYTE   W24
 BYTE   PEND 
// 010   ----------------------------------------
Label_2_01002D85:
 BYTE   N11  Fn2  v048
 BYTE   W12
 BYTE   Cn3  v052
 BYTE   W12
 BYTE   N23  Fn3  v048
 BYTE   W24
 BYTE   N11  Fn2  v044
 BYTE   W12
 BYTE   Cn3
 BYTE   W12
 BYTE   N23  Fn3  v048
 BYTE   W24
 BYTE   PEND 
// 011   ----------------------------------------
Label_2_01002D9B:
 BYTE   N11  As1  v056
 BYTE   W12
 BYTE   Fn2  v044
 BYTE   W12
 BYTE   N23  As2  v052
 BYTE   W24
 BYTE   N11  As1  v060
 BYTE   W12
 BYTE   Fn2  v048
 BYTE   W12
 BYTE   N23  As2
 BYTE   W24
 BYTE   PEND 
// 012   ----------------------------------------
Label_2_01002DB1:
 BYTE   N11  Ds1  v056
 BYTE   W12
 BYTE   As1  v052
 BYTE   W12
 BYTE   N23  Ds2
 BYTE   W24
 BYTE   N11  Ds1  v056
 BYTE   W12
 BYTE   As1  v052
 BYTE   W12
 BYTE   N23  Ds2
 BYTE   W24
 BYTE   PEND 
// 013   ----------------------------------------
Label_2_01002DC6:
 BYTE   N11  Gs1  v056
 BYTE   W12
 BYTE   Ds2  v052
 BYTE   W12
 BYTE   N23  Gs2
 BYTE   W24
 BYTE   N11  Gs1  v056
 BYTE   W12
 BYTE   Ds2  v052
 BYTE   W12
 BYTE   N23  Gs2
 BYTE   W24
 BYTE   PEND 
// 014   ----------------------------------------
Label_2_01002DDB:
 BYTE   N11  Cs1  v056
 BYTE   W12
 BYTE   Gs1  v052
 BYTE   W12
 BYTE   N23  Cs2
 BYTE   W24
 BYTE   N11  Cs1  v056
 BYTE   W12
 BYTE   Gs1  v052
 BYTE   W12
 BYTE   N23  Cs2
 BYTE   W24
 BYTE   PEND 
// 015   ----------------------------------------
Label_2_01002DF0:
 BYTE   N11  Dn1  v056
 BYTE   W12
 BYTE   An1  v052
 BYTE   W12
 BYTE   N23  Dn2
 BYTE   W24
 BYTE   N11  Dn1  v056
 BYTE   W12
 BYTE   An1  v052
 BYTE   W12
 BYTE   N23  Fn2
 BYTE   W24
 BYTE   PEND 
// 016   ----------------------------------------
Label_2_01002E05:
 BYTE   N11  Gn1  v056
 BYTE   W12
 BYTE   Dn2  v052
 BYTE   W12
 BYTE   An2  v064
 BYTE   W12
 BYTE   Cn3  v060
 BYTE   W12
 BYTE   Bn2
 BYTE   W12
 BYTE   Gn2
 BYTE   W12
 BYTE   Dn2
 BYTE   W12
 BYTE   Gn1
 BYTE   W12
 BYTE   PEND 
// 017   ----------------------------------------
 BYTE   PATT
  POIN2 Label_2_01002D6E
// 018   ----------------------------------------
 BYTE   PATT
  POIN2 Label_2_01002D85
// 019   ----------------------------------------
 BYTE   PATT
  POIN2 Label_2_01002D9B
// 020   ----------------------------------------
 BYTE   PATT
  POIN2 Label_2_01002DB1
// 021   ----------------------------------------
 BYTE   PATT
  POIN2 Label_2_01002DC6
// 022   ----------------------------------------
 BYTE   PATT
  POIN2 Label_2_01002DDB
// 023   ----------------------------------------
 BYTE   PATT
  POIN2 Label_2_01002DF0
// 024   ----------------------------------------
 BYTE   PATT
  POIN2 Label_2_01002E05
// 025   ----------------------------------------
Label_2_01002E43:
 BYTE   N11  Gs1  v056
 BYTE   W12
 BYTE   Ds2
 BYTE   W12
 BYTE   N23  Gs2
 BYTE   W24
 BYTE   N11  Gs1
 BYTE   W12
 BYTE   Ds2
 BYTE   W12
 BYTE   N23  Gs2
 BYTE   W24
 BYTE   PEND 
// 026   ----------------------------------------
 BYTE   N11  Cn2
 BYTE   W12
 BYTE   Gn2
 BYTE   W12
 BYTE   N23  Cn3
 BYTE   W24
 BYTE   N11  Cn2
 BYTE   W12
 BYTE   Gn2
 BYTE   W12
 BYTE   N23  Cn3
 BYTE   W24
// 027   ----------------------------------------
 BYTE   PATT
  POIN2 Label_2_01002E43
// 028   ----------------------------------------
 BYTE   N11  Ds1  v056
 BYTE   W12
 BYTE   As1
 BYTE   W12
 BYTE   N23  Ds2
 BYTE   W24
 BYTE   N11  Ds1
 BYTE   W12
 BYTE   As1
 BYTE   W12
 BYTE   N23  Gn2
 BYTE   W24
// 029   ----------------------------------------
 BYTE   N11  Gs1
 BYTE   W12
 BYTE   Ds2
 BYTE   W12
 BYTE   N23  Gs2
 BYTE   W24
 BYTE   N11  As1
 BYTE   W12
 BYTE   Fn2
 BYTE   W12
 BYTE   N23  As2
 BYTE   W24
// 030   ----------------------------------------
 BYTE   N11  Fn1
 BYTE   W12
 BYTE   Cn2
 BYTE   W12
 BYTE   N23  Cn3
 BYTE   W24
 BYTE   N11  Gn1
 BYTE   W12
 BYTE   Dn2
 BYTE   W12
 BYTE   N23  As2
 BYTE   W24
// 031   ----------------------------------------
 BYTE   N11  Gs1
 BYTE   W12
 BYTE   Ds2
 BYTE   W12
 BYTE   N23  Gn2
 BYTE   W24
 BYTE   N11  As1
 BYTE   W12
 BYTE   Fn2
 BYTE   W12
 BYTE   N23  Cn3
 BYTE   W24
// 032   ----------------------------------------
 BYTE   N11  Dn1  v048
 BYTE   W12
 BYTE   Cn2  v052
 BYTE   W12
 BYTE   Dn2  v056
 BYTE   W12
 BYTE   Fn2
 BYTE   W12
 BYTE   Gs2
 BYTE   W12
 BYTE   Cn3
 BYTE   W12
 BYTE   Dn3
 BYTE   W12
 BYTE   Fn3
 BYTE   W12
// 033   ----------------------------------------
 BYTE   Gn1  v048
 BYTE   W12
 BYTE   Cn2  v052
 BYTE   W12
 BYTE   Fn2  v056
 BYTE   W12
 BYTE   Gn2
 BYTE   W12
 BYTE   Cn3
 BYTE   W12
 BYTE   Dn3
 BYTE   W12
 BYTE   Fn3
 BYTE   W12
 BYTE   Gn3
 BYTE   W12
// 034   ----------------------------------------
 BYTE   N52  Bn3  v060
 BYTE   W96
// 035   ----------------------------------------
Label_2_01002ED6:
 BYTE   N44  Gs1  v072
 BYTE   W12
 BYTE   N11  Ds2  v076
 BYTE   W12
 BYTE   Gn2  v068
 BYTE   W12
 BYTE   Cn3
 BYTE   W12
 BYTE   N44  Gs1  v072
 BYTE   W12
 BYTE   N11  Ds2  v064
 BYTE   W12
 BYTE   Gn2  v068
 BYTE   W12
 BYTE   Cn3
 BYTE   W12
 BYTE   PEND 
// 036   ----------------------------------------
 BYTE   N44  Gn1  v072
 BYTE   W12
 BYTE   N11  Dn2  v076
 BYTE   W12
 BYTE   Fn2  v068
 BYTE   W12
 BYTE   As2
 BYTE   W12
 BYTE   N44  Gn1  v072
 BYTE   W12
 BYTE   N11  Dn2  v064
 BYTE   W12
 BYTE   Fn2  v068
 BYTE   W12
 BYTE   As2
 BYTE   W12
// 037   ----------------------------------------
 BYTE   PATT
  POIN2 Label_2_01002ED6
// 038   ----------------------------------------
 BYTE   N44  Ds1  v072
 BYTE   W12
 BYTE   N11  As1  v060
 BYTE   W12
 BYTE   Ds2
 BYTE   W12
 BYTE   Gn2
 BYTE   W12
 BYTE   N44  Ds1  v072
 BYTE   W12
 BYTE   N11  As1  v060
 BYTE   W12
 BYTE   Ds2
 BYTE   W12
 BYTE   Gn2
 BYTE   W12
// 039   ----------------------------------------
 BYTE   N44  Gs1  v072
 BYTE   W12
 BYTE   N11  Ds2  v060
 BYTE   W12
 BYTE   Gn2
 BYTE   W12
 BYTE   Cn3
 BYTE   W12
 BYTE   N44  Gs1  v072
 BYTE   W12
 BYTE   N11  Ds2  v060
 BYTE   W12
 BYTE   Gn2
 BYTE   W12
 BYTE   Cn3
 BYTE   W12
// 040   ----------------------------------------
 BYTE   N44  Gn1  v072
 BYTE   W12
 BYTE   N11  Dn2  v060
 BYTE   W12
 BYTE   Fn2
 BYTE   W12
 BYTE   As2
 BYTE   W12
 BYTE   N44  Gn1  v072
 BYTE   W12
 BYTE   N11  Dn2  v060
 BYTE   W12
 BYTE   Fn2
 BYTE   W12
 BYTE   As2
 BYTE   W12
// 041   ----------------------------------------
 BYTE   Fn1  v064
 BYTE   W12
 BYTE   Cn2  v060
 BYTE   W12
 BYTE   Fn2
 BYTE   W12
 BYTE   Gs2
 BYTE   W12
 BYTE   Cn3  v064
 BYTE   W12
 BYTE   Cn2  v060
 BYTE   W12
 BYTE   Fn2
 BYTE   W12
 BYTE   Gs2
 BYTE   W12
// 042   ----------------------------------------
 BYTE   Ds1  v064
 BYTE   W12
 BYTE   As1  v060
 BYTE   W12
 BYTE   Ds2
 BYTE   W12
 BYTE   Gn2
 BYTE   W12
 BYTE   As2
 BYTE   W12
 BYTE   As1
 BYTE   W12
 BYTE   Ds2
 BYTE   W12
 BYTE   Gn2
 BYTE   W12
// 043   ----------------------------------------
 BYTE   Dn1  v064
 BYTE   W12
 BYTE   Cn2  v060
 BYTE   W12
 BYTE   Dn2
 BYTE   W12
 BYTE   Fn2
 BYTE   W12
 BYTE   Gs2
 BYTE   W12
 BYTE   Cn2
 BYTE   W12
 BYTE   Dn2
 BYTE   W12
 BYTE   Fn2
 BYTE   W12
// 044   ----------------------------------------
 BYTE   Gn1
 BYTE   W12
 BYTE   Dn2
 BYTE   W12
 BYTE   Fn2
 BYTE   W12
 BYTE   Cn3
 BYTE   W12
 BYTE   Gn1
 BYTE   W12
 BYTE   Dn2
 BYTE   W12
 BYTE   Fn2
 BYTE   W12
 BYTE   Gn2
 BYTE   W12
// 045   ----------------------------------------
 BYTE   W84
 BYTE   GoTo
  POIN2 Label_2_01002D6D
// 046   ----------------------------------------
 BYTE   W01
 BYTE   FINE

//**************** Track 4 (Midi-Chn.3) ****************//

EtrianOdyssey3ChalkyWoodsThegis_004:
// 000   ----------------------------------------
 BYTE   KEYSH   EtrianOdyssey3ChalkyWoodsThegis_key+0
 BYTE   VOICE   1
 BYTE   VOL   57*EtrianOdyssey3ChalkyWoodsThegis_mvl/mxv
 BYTE   PAN   c_v+0
 BYTE   W96
// 001   ----------------------------------------
 BYTE   W96
// 002   ----------------------------------------
 BYTE   W96
// 003   ----------------------------------------
 BYTE   W96
// 004   ----------------------------------------
 BYTE   W96
// 005   ----------------------------------------
 BYTE   W96
// 006   ----------------------------------------
 BYTE   W96
// 007   ----------------------------------------
 BYTE   W96
// 008   ----------------------------------------
 BYTE   W84
Label_3_01002FB9:
 BYTE   W12
// 009   ----------------------------------------
 BYTE   W96
// 010   ----------------------------------------
 BYTE   W96
// 011   ----------------------------------------
 BYTE   W96
// 012   ----------------------------------------
 BYTE   W96
// 013   ----------------------------------------
 BYTE   W96
// 014   ----------------------------------------
 BYTE   W96
// 015   ----------------------------------------
 BYTE   W96
// 016   ----------------------------------------
 BYTE   W96
// 017   ----------------------------------------
 BYTE   W96
// 018   ----------------------------------------
 BYTE   W96
// 019   ----------------------------------------
 BYTE   W96
// 020   ----------------------------------------
 BYTE   W96
// 021   ----------------------------------------
 BYTE   W96
// 022   ----------------------------------------
 BYTE   W96
// 023   ----------------------------------------
 BYTE   W96
// 024   ----------------------------------------
 BYTE   W96
// 025   ----------------------------------------
Label_3_01002FCA:
 BYTE   W12
 BYTE   N05  Fn4  v076
 BYTE   W06
 BYTE   Ds4
 BYTE   W06
 BYTE   N11  Cn4
 BYTE   W12
 BYTE   N05  Fn4  v056
 BYTE   W06
 BYTE   Ds4
 BYTE   W06
 BYTE   N11  Cn4
 BYTE   W12
 BYTE   N05  Fn4  v036
 BYTE   W06
 BYTE   Ds4  v040
 BYTE   W06
 BYTE   N11  Cn4
 BYTE   W24
 BYTE   PEND 
// 026   ----------------------------------------
 BYTE   N05  Ds4  v076
 BYTE   W06
 BYTE   Dn4
 BYTE   W06
 BYTE   N05
 BYTE   W06
 BYTE   Cn4
 BYTE   W06
 BYTE   Ds4  v056
 BYTE   W06
 BYTE   Dn4
 BYTE   W06
 BYTE   N05
 BYTE   W06
 BYTE   Cn4
 BYTE   W06
 BYTE   Ds4  v036
 BYTE   W06
 BYTE   Dn4
 BYTE   W06
 BYTE   N05
 BYTE   W06
 BYTE   Cn4
 BYTE   W30
// 027   ----------------------------------------
 BYTE   PATT
  POIN2 Label_3_01002FCA
// 028   ----------------------------------------
 BYTE   N05  Gn4  v076
 BYTE   W06
 BYTE   Dn4
 BYTE   W06
 BYTE   Ds4
 BYTE   W06
 BYTE   Fn4
 BYTE   W06
 BYTE   Gn4  v056
 BYTE   W06
 BYTE   Dn4
 BYTE   W06
 BYTE   Ds4
 BYTE   W06
 BYTE   Fn4
 BYTE   W06
 BYTE   Gn4
 BYTE   W06
 BYTE   Dn4  v036
 BYTE   W06
 BYTE   Ds4
 BYTE   W06
 BYTE   Fn4
 BYTE   W06
 BYTE   Gn4
 BYTE   W24
// 029   ----------------------------------------
 BYTE   PATT
  POIN2 Label_3_01002FCA
// 030   ----------------------------------------
 BYTE   W96
// 031   ----------------------------------------
 BYTE   W96
// 032   ----------------------------------------
 BYTE   W96
// 033   ----------------------------------------
 BYTE   W96
// 034   ----------------------------------------
 BYTE   W96
// 035   ----------------------------------------
 BYTE   W96
// 036   ----------------------------------------
 BYTE   W96
// 037   ----------------------------------------
 BYTE   W96
// 038   ----------------------------------------
 BYTE   W96
// 039   ----------------------------------------
 BYTE   W96
// 040   ----------------------------------------
 BYTE   W96
// 041   ----------------------------------------
 BYTE   W96
// 042   ----------------------------------------
 BYTE   W96
// 043   ----------------------------------------
 BYTE   W96
// 044   ----------------------------------------
 BYTE   W96
// 045   ----------------------------------------
 BYTE   W84
 BYTE   GoTo
  POIN2 Label_3_01002FB9
// 046   ----------------------------------------
 BYTE   W01
 BYTE   FINE

//**************** Track 5 (Midi-Chn.4) ****************//

EtrianOdyssey3ChalkyWoodsThegis_005:
// 000   ----------------------------------------
 BYTE   KEYSH   EtrianOdyssey3ChalkyWoodsThegis_key+0
 BYTE   VOICE   1
 BYTE   VOL   38*EtrianOdyssey3ChalkyWoodsThegis_mvl/mxv
 BYTE   PAN   c_v-62
 BYTE   W96
// 001   ----------------------------------------
 BYTE   W96
// 002   ----------------------------------------
 BYTE   W96
// 003   ----------------------------------------
 BYTE   W96
// 004   ----------------------------------------
 BYTE   W96
// 005   ----------------------------------------
 BYTE   W96
// 006   ----------------------------------------
 BYTE   W96
// 007   ----------------------------------------
 BYTE   W96
// 008   ----------------------------------------
 BYTE   W84
Label_4_01003055:
 BYTE   W12
// 009   ----------------------------------------
 BYTE   W96
// 010   ----------------------------------------
 BYTE   W96
// 011   ----------------------------------------
 BYTE   W96
// 012   ----------------------------------------
 BYTE   W96
// 013   ----------------------------------------
 BYTE   W96
// 014   ----------------------------------------
 BYTE   W96
// 015   ----------------------------------------
 BYTE   W96
// 016   ----------------------------------------
 BYTE   W96
// 017   ----------------------------------------
 BYTE   W96
// 018   ----------------------------------------
 BYTE   W96
// 019   ----------------------------------------
 BYTE   W96
// 020   ----------------------------------------
 BYTE   W96
// 021   ----------------------------------------
 BYTE   W96
// 022   ----------------------------------------
 BYTE   W96
// 023   ----------------------------------------
 BYTE   W96
// 024   ----------------------------------------
 BYTE   W96
// 025   ----------------------------------------
 BYTE   W05
 BYTE   N32  Cn4  v108
 BYTE   W60
 BYTE   N05  As3  v076
 BYTE   W06
 BYTE   Cn4  v084
 BYTE   W06
 BYTE   Ds4  v096
 BYTE   W06
 BYTE   Dn4
 BYTE   W06
 BYTE   N05
 BYTE   W06
 BYTE   Cn4  v104
 BYTE   W01
// 026   ----------------------------------------
 BYTE   W05
 BYTE   N44  Cn4  v096
 BYTE   W84
 BYTE   N05  Fn4  v100
 BYTE   W06
 BYTE   Ds4
 BYTE   W01
// 027   ----------------------------------------
 BYTE   W05
 BYTE   N40  Cn4  v108
 BYTE   W60
 BYTE   N05  As3  v088
 BYTE   W06
 BYTE   Cn4  v104
 BYTE   W06
 BYTE   Ds4  v100
 BYTE   W06
 BYTE   Dn4  v116
 BYTE   W06
 BYTE   Ds4
 BYTE   W06
 BYTE   Fn4  v100
 BYTE   W01
// 028   ----------------------------------------
 BYTE   W05
 BYTE   N56  Gn4  v116
 BYTE   W84
 BYTE   N05  Fn4  v084
 BYTE   W06
 BYTE   Ds4  v104
 BYTE   W01
// 029   ----------------------------------------
 BYTE   W05
 BYTE   N44  Cn4
 BYTE   W60
 BYTE   N05  As3  v096
 BYTE   W06
 BYTE   Cn4
 BYTE   W06
 BYTE   Ds4
 BYTE   W06
 BYTE   Dn4  v104
 BYTE   W06
 BYTE   Dn4  v108
 BYTE   W06
 BYTE   Cn4
 BYTE   W01
// 030   ----------------------------------------
 BYTE   W05
 BYTE   N44  Cn4  v112
 BYTE   W60
 BYTE   N05  As3  v100
 BYTE   W06
 BYTE   Cn4
 BYTE   W06
 BYTE   Ds4  v116
 BYTE   W06
 BYTE   Dn4  v104
 BYTE   W06
 BYTE   Dn4  v108
 BYTE   W06
 BYTE   Cn4  v116
 BYTE   W01
// 031   ----------------------------------------
 BYTE   W05
 BYTE   N23  Cn4  v108
 BYTE   W24
 BYTE   N17  Cn4  v084
 BYTE   N23  Gn4  v116
 BYTE   W24
 BYTE   Fn4  v120
 BYTE   W24
 BYTE   N17  Fn4  v100
 BYTE   N23  Cn5  v112
 BYTE   W19
// 032   ----------------------------------------
 BYTE   W05
 BYTE   N11  Cn4  v088
 BYTE   N05  Gs4  v104
 BYTE   W06
 BYTE   Gn4  v100
 BYTE   W06
 BYTE   N05
 BYTE   W06
 BYTE   Fn4  v116
 BYTE   W06
 BYTE   N56  Cn4  v100
 BYTE   W66
 BYTE   W01
// 033   ----------------------------------------
 BYTE   W05
 BYTE   N11  Cn4  v088
 BYTE   N05  Gs4  v104
 BYTE   W06
 BYTE   Gn4  v092
 BYTE   W06
 BYTE   Gn4  v104
 BYTE   W06
 BYTE   Fn4  v112
 BYTE   W06
 BYTE   N56  Gn4  v120
 BYTE   W66
 BYTE   W01
// 034   ----------------------------------------
 BYTE   W11
 BYTE   N44  Gn4  v100
 BYTE   W54
 BYTE   N11  Gn4  v112
 BYTE   W12
 BYTE   Dn5  v116
 BYTE   W12
 BYTE   Fn5  v120
 BYTE   W07
// 035   ----------------------------------------
 BYTE   W96
// 036   ----------------------------------------
 BYTE   W96
// 037   ----------------------------------------
 BYTE   W96
// 038   ----------------------------------------
 BYTE   W96
// 039   ----------------------------------------
 BYTE   W96
// 040   ----------------------------------------
 BYTE   W96
// 041   ----------------------------------------
 BYTE   W96
// 042   ----------------------------------------
 BYTE   W96
// 043   ----------------------------------------
 BYTE   W96
// 044   ----------------------------------------
 BYTE   W96
// 045   ----------------------------------------
 BYTE   W84
 BYTE   GoTo
  POIN2 Label_4_01003055
// 046   ----------------------------------------
 BYTE   W01
 BYTE   FINE

//**************** Track 6 (Midi-Chn.5) ****************//

EtrianOdyssey3ChalkyWoodsThegis_006:
// 000   ----------------------------------------
 BYTE   KEYSH   EtrianOdyssey3ChalkyWoodsThegis_key+0
 BYTE   VOICE   18
 BYTE   VOL   60*EtrianOdyssey3ChalkyWoodsThegis_mvl/mxv
 BYTE   PAN   c_v+0
 BYTE   W96
// 001   ----------------------------------------
 BYTE   W96
// 002   ----------------------------------------
 BYTE   W96
// 003   ----------------------------------------
 BYTE   W96
// 004   ----------------------------------------
 BYTE   W96
// 005   ----------------------------------------
 BYTE   W96
// 006   ----------------------------------------
 BYTE   W96
// 007   ----------------------------------------
 BYTE   W96
// 008   ----------------------------------------
 BYTE   W84
Label_5_01003149:
 BYTE   W12
// 009   ----------------------------------------
 BYTE   W96
// 010   ----------------------------------------
 BYTE   W96
// 011   ----------------------------------------
 BYTE   W96
// 012   ----------------------------------------
 BYTE   W96
// 013   ----------------------------------------
 BYTE   W96
// 014   ----------------------------------------
 BYTE   W96
// 015   ----------------------------------------
 BYTE   W96
// 016   ----------------------------------------
 BYTE   W96
// 017   ----------------------------------------
 BYTE   W96
// 018   ----------------------------------------
 BYTE   W96
// 019   ----------------------------------------
 BYTE   W96
// 020   ----------------------------------------
 BYTE   W96
// 021   ----------------------------------------
 BYTE   W96
// 022   ----------------------------------------
 BYTE   W96
// 023   ----------------------------------------
 BYTE   W96
// 024   ----------------------------------------
 BYTE   W96
// 025   ----------------------------------------
 BYTE   W96
// 026   ----------------------------------------
 BYTE   W96
// 027   ----------------------------------------
 BYTE   W96
// 028   ----------------------------------------
 BYTE   W96
// 029   ----------------------------------------
 BYTE   W96
// 030   ----------------------------------------
 BYTE   W96
// 031   ----------------------------------------
 BYTE   W96
// 032   ----------------------------------------
 BYTE   W96
// 033   ----------------------------------------
 BYTE   W96
// 034   ----------------------------------------
 BYTE   W60
 BYTE   N11  Gn3  v080
 BYTE   W12
 BYTE   Dn4
 BYTE   W12
 BYTE   Fn4
 BYTE   W12
// 035   ----------------------------------------
Label_5_0100316C:
 BYTE   N32  Ds4  v080
 BYTE   W36
 BYTE   N05  Dn4
 BYTE   W06
 BYTE   N02  Cn4
 BYTE   W06
 BYTE   N32
 BYTE   W36
 BYTE   N11  Dn4
 BYTE   W12
 BYTE   PEND 
// 036   ----------------------------------------
 BYTE   N52  As3
 BYTE   W60
 BYTE   N11  Gn3
 BYTE   W12
 BYTE   Dn4
 BYTE   W12
 BYTE   Fn4
 BYTE   W12
// 037   ----------------------------------------
 BYTE   N32  Ds4
 BYTE   W36
 BYTE   N05  Dn4
 BYTE   W06
 BYTE   N02  Cn4
 BYTE   W06
 BYTE   N32
 BYTE   W36
 BYTE   N05  Ds4
 BYTE   W06
 BYTE   Fn4
 BYTE   W06
// 038   ----------------------------------------
 BYTE   N48  Gn4
 BYTE   W60
 BYTE   N11  Gn3
 BYTE   W12
 BYTE   Dn4
 BYTE   W12
 BYTE   Fn4
 BYTE   W12
// 039   ----------------------------------------
 BYTE   PATT
  POIN2 Label_5_0100316C
// 040   ----------------------------------------
 BYTE   N76  As3  v080
 BYTE   W96
// 041   ----------------------------------------
 BYTE   N05  Gs3
 BYTE   W06
 BYTE   As3
 BYTE   W06
 BYTE   Gs3
 BYTE   W06
 BYTE   Fn3
 BYTE   W06
 BYTE   N52  Cn4
 BYTE   W72
// 042   ----------------------------------------
 BYTE   N05  Gn3
 BYTE   W06
 BYTE   Gs3
 BYTE   W06
 BYTE   Gn3
 BYTE   W06
 BYTE   Ds3
 BYTE   W06
 BYTE   N52  As2
 BYTE   W72
// 043   ----------------------------------------
 BYTE   N05  Fn3
 BYTE   W06
 BYTE   Gn3
 BYTE   W06
 BYTE   Fn3
 BYTE   W06
 BYTE   Cn3
 BYTE   W06
 BYTE   N36  Gs3
 BYTE   W48
 BYTE   N17  Cn4
 BYTE   W24
// 044   ----------------------------------------
 BYTE   N44
 BYTE   W48
 BYTE   TIE  Dn4
 BYTE   W48
// 045   ----------------------------------------
 BYTE   W76
 BYTE   W01
 BYTE   EOT
 BYTE   W07
 BYTE   GoTo
  POIN2 Label_5_01003149
// 046   ----------------------------------------
 BYTE   W01
 BYTE   FINE

//**************** Track 7 (Midi-Chn.6) ****************//

EtrianOdyssey3ChalkyWoodsThegis_007:
// 000   ----------------------------------------
 BYTE   KEYSH   EtrianOdyssey3ChalkyWoodsThegis_key+0
 BYTE   VOICE   4
 BYTE   VOL   55*EtrianOdyssey3ChalkyWoodsThegis_mvl/mxv
 BYTE   PAN   c_v+62
 BYTE   W96
// 001   ----------------------------------------
 BYTE   W96
// 002   ----------------------------------------
 BYTE   W96
// 003   ----------------------------------------
 BYTE   W96
// 004   ----------------------------------------
 BYTE   W96
// 005   ----------------------------------------
 BYTE   W96
// 006   ----------------------------------------
 BYTE   W96
// 007   ----------------------------------------
 BYTE   W96
// 008   ----------------------------------------
 BYTE   W84
Label_6_010031F1:
 BYTE   W12
// 009   ----------------------------------------
Label_6_010031F2:
 BYTE   W24
 BYTE   N05  Gn3  v068
 BYTE   W06
 BYTE   Cn4
 BYTE   W06
 BYTE   Dn4
 BYTE   W06
 BYTE   Fn4
 BYTE   W06
 BYTE   N44  Gn4
 BYTE   W48
 BYTE   PEND 
// 010   ----------------------------------------
Label_6_01003201:
 BYTE   W24
 BYTE   N17  Dn4  v068
 BYTE   W18
 BYTE   N05  Cn4
 BYTE   W06
 BYTE   N17  Dn4
 BYTE   W18
 BYTE   N05  Cn4  v044
 BYTE   W06
 BYTE   N17  Dn4
 BYTE   W18
 BYTE   N05  Cn4  v028
 BYTE   W06
 BYTE   PEND 
// 011   ----------------------------------------
Label_6_01003218:
 BYTE   N17  Dn4  v028
 BYTE   W24
 BYTE   N05  Gn3  v068
 BYTE   W06
 BYTE   N06  Cn4
 BYTE   W06
 BYTE   Dn4
 BYTE   W06
 BYTE   Fn4
 BYTE   W06
 BYTE   N30  Gn4
 BYTE   W48
 BYTE   PEND 
// 012   ----------------------------------------
Label_6_0100322B:
 BYTE   W24
 BYTE   N17  Gn4  v068
 BYTE   W18
 BYTE   N05  Fn4
 BYTE   W06
 BYTE   N17  Gn4
 BYTE   W18
 BYTE   N05  Fn4  v044
 BYTE   W06
 BYTE   N17  Gn4
 BYTE   W18
 BYTE   N05  Fn4  v028
 BYTE   W06
 BYTE   PEND 
// 013   ----------------------------------------
Label_6_01003242:
 BYTE   N17  Gn4  v028
 BYTE   W24
 BYTE   N05  Gn4  v068
 BYTE   W06
 BYTE   Fn4
 BYTE   W06
 BYTE   N05
 BYTE   W06
 BYTE   Gn4
 BYTE   W06
 BYTE   N44  Cn4
 BYTE   W48
 BYTE   PEND 
// 014   ----------------------------------------
Label_6_01003254:
 BYTE   W24
 BYTE   N05  Fn4  v068
 BYTE   W06
 BYTE   Gn4
 BYTE   W06
 BYTE   Fn4
 BYTE   W06
 BYTE   Ds4
 BYTE   W06
 BYTE   N44  Fn4
 BYTE   W48
 BYTE   PEND 
// 015   ----------------------------------------
Label_6_01003263:
 BYTE   N32  Gn4  v068
 BYTE   W36
 BYTE   N11  Cn5
 BYTE   W12
 BYTE   N32  Gn4
 BYTE   W36
 BYTE   N11  Fn4
 BYTE   W12
 BYTE   PEND 
// 016   ----------------------------------------
 BYTE   N92  Gn4
 BYTE   W96
// 017   ----------------------------------------
 BYTE   PATT
  POIN2 Label_6_010031F2
// 018   ----------------------------------------
 BYTE   PATT
  POIN2 Label_6_01003201
// 019   ----------------------------------------
 BYTE   PATT
  POIN2 Label_6_01003218
// 020   ----------------------------------------
 BYTE   PATT
  POIN2 Label_6_0100322B
// 021   ----------------------------------------
 BYTE   PATT
  POIN2 Label_6_01003242
// 022   ----------------------------------------
 BYTE   PATT
  POIN2 Label_6_01003254
// 023   ----------------------------------------
 BYTE   PATT
  POIN2 Label_6_01003263
// 024   ----------------------------------------
 BYTE   N92  Gn4  v068
 BYTE   W96
// 025   ----------------------------------------
 BYTE   W96
// 026   ----------------------------------------
 BYTE   W96
// 027   ----------------------------------------
 BYTE   W96
// 028   ----------------------------------------
 BYTE   W96
// 029   ----------------------------------------
 BYTE   W96
// 030   ----------------------------------------
 BYTE   W96
// 031   ----------------------------------------
 BYTE   W96
// 032   ----------------------------------------
 BYTE   W96
// 033   ----------------------------------------
 BYTE   W96
// 034   ----------------------------------------
 BYTE   W96
// 035   ----------------------------------------
 BYTE   W96
// 036   ----------------------------------------
 BYTE   W96
// 037   ----------------------------------------
 BYTE   W96
// 038   ----------------------------------------
 BYTE   W96
// 039   ----------------------------------------
 BYTE   W96
// 040   ----------------------------------------
 BYTE   W96
// 041   ----------------------------------------
 BYTE   W96
// 042   ----------------------------------------
 BYTE   W96
// 043   ----------------------------------------
 BYTE   W96
// 044   ----------------------------------------
 BYTE   W96
// 045   ----------------------------------------
 BYTE   W84
 BYTE   GoTo
  POIN2 Label_6_010031F1
// 046   ----------------------------------------
 BYTE   W01
 BYTE   FINE

//**************** Track 8 (Midi-Chn.7) ****************//

EtrianOdyssey3ChalkyWoodsThegis_008:
// 000   ----------------------------------------
 BYTE   KEYSH   EtrianOdyssey3ChalkyWoodsThegis_key+0
 BYTE   VOICE   4
 BYTE   VOL   49*EtrianOdyssey3ChalkyWoodsThegis_mvl/mxv
 BYTE   PAN   c_v+0
 BYTE   N88  Cn3  v060
 BYTE   N80  Gn3  v068
 BYTE   N36  Cn4
 BYTE   N32  Gn4  v076
 BYTE   W36
 BYTE   N05  Fn4
 BYTE   W06
 BYTE   Gn4
 BYTE   W06
 BYTE   N36  Cn4  v084
 BYTE   W48
// 001   ----------------------------------------
 BYTE   N80  Gs2  v064
 BYTE   N80  Ds3  v084
 BYTE   N80  Fn3  v068
 BYTE   N32  Cn4  v080
 BYTE   W36
 BYTE   N09  As3  v072
 BYTE   W06
 BYTE   N44  Cn4  v080
 BYTE   W06
 BYTE   N40  Gn3  v084
 BYTE   W48
// 002   ----------------------------------------
 BYTE   N80  Gn2  v072
 BYTE   N80  Dn3
 BYTE   N80  Fn3  v084
 BYTE   N32  As3  v088
 BYTE   W36
 BYTE   N11  Gn3  v076
 BYTE   W06
 BYTE   N48  As3  v080
 BYTE   W06
 BYTE   N32  Ds4  v088
 BYTE   W48
// 003   ----------------------------------------
 BYTE   N05  Gs1  v064
 BYTE   N05  Ds2  v060
 BYTE   N02  Fn3  v068
 BYTE   N02  Cn4  v072
 BYTE   W24
 BYTE   N52  As1  v068
 BYTE   N52  Fn2
 BYTE   N54  Fn3
 BYTE   N54  Cn4  v076
 BYTE   W72
// 004   ----------------------------------------
 BYTE   N88  Cn3  v060
 BYTE   N80  Gn3  v068
 BYTE   N36  Cn4
 BYTE   N32  Gn4  v076
 BYTE   W36
 BYTE   N05  Fn4
 BYTE   W06
 BYTE   Gn4
 BYTE   W06
 BYTE   N36  Cn4  v084
 BYTE   W48
// 005   ----------------------------------------
 BYTE   N76  Gs2  v064
 BYTE   N76  Ds3  v068
 BYTE   N40  Fn3  v084
 BYTE   N32  Cn4  v080
 BYTE   W36
 BYTE   N09  As3  v072
 BYTE   W06
 BYTE   N44  Cn4  v080
 BYTE   W06
 BYTE   N40  Gn3  v084
 BYTE   W48
// 006   ----------------------------------------
 BYTE   N76  Gn2  v072
 BYTE   N80  Dn3
 BYTE   N80  Fn3  v084
 BYTE   N32  As3  v088
 BYTE   W36
 BYTE   N11  Gn3  v076
 BYTE   W06
 BYTE   N48  As3  v080
 BYTE   W06
 BYTE   N32  Ds4  v088
 BYTE   W48
// 007   ----------------------------------------
 BYTE   N05  Gs1  v064
 BYTE   N05  Ds2  v060
 BYTE   N02  Fn3  v068
 BYTE   N02  Cn4  v072
 BYTE   W24
 BYTE   TIE  As1  v068
 BYTE   TIE  Fn2
 BYTE   TIE  Fn3
 BYTE   TIE  Cn4  v076
 BYTE   W72
// 008   ----------------------------------------
 BYTE   W44
 BYTE   W02
 BYTE   EOT
 BYTE   As1  v053
 BYTE   W01
 BYTE   Fn3  v072
 BYTE   W36
 BYTE   W01
Label_7_01003386:
 BYTE   W12
// 009   ----------------------------------------
 BYTE   N05  Gn2  v088
 BYTE   W06
 BYTE   Cn3  v084
 BYTE   W06
 BYTE   Dn3  v092
 BYTE   W06
 BYTE   Fn3  v100
 BYTE   W06
 BYTE   N28  Gn3  v104
 BYTE   W36
 BYTE   N11
 BYTE   W12
 BYTE   Fn3  v096
 BYTE   W12
 BYTE   Cn3  v100
 BYTE   W12
// 010   ----------------------------------------
 BYTE   N17  Dn3  v104
 BYTE   W18
 BYTE   N05  Cn3  v084
 BYTE   W06
 BYTE   N56  Dn3  v096
 BYTE   W72
// 011   ----------------------------------------
 BYTE   N05  Gn2  v092
 BYTE   W06
 BYTE   Cn3  v096
 BYTE   W06
 BYTE   Dn3  v092
 BYTE   W06
 BYTE   Fn3  v104
 BYTE   W06
 BYTE   N28  Gn3  v096
 BYTE   W36
 BYTE   N11  Gn3  v104
 BYTE   W12
 BYTE   Fn3  v096
 BYTE   W12
 BYTE   Cn3  v100
 BYTE   W12
// 012   ----------------------------------------
 BYTE   N17  Gn3  v108
 BYTE   W18
 BYTE   N05  Fn3  v092
 BYTE   W06
 BYTE   N52  Gn3  v096
 BYTE   W72
// 013   ----------------------------------------
 BYTE   N05  Gn3  v100
 BYTE   W06
 BYTE   Fn3  v096
 BYTE   W06
 BYTE   N05
 BYTE   W06
 BYTE   Gn3  v084
 BYTE   W06
 BYTE   N28  Cn3  v104
 BYTE   W36
 BYTE   N11  Gn2  v108
 BYTE   W12
 BYTE   Cn3  v100
 BYTE   W12
 BYTE   Gn3  v104
 BYTE   W12
// 014   ----------------------------------------
 BYTE   N17  Fn3  v108
 BYTE   W18
 BYTE   N05  Ds3  v100
 BYTE   W06
 BYTE   N40  Fn3
 BYTE   W48
 BYTE   N11  Ds3  v108
 BYTE   W12
 BYTE   Fn3  v096
 BYTE   W12
// 015   ----------------------------------------
 BYTE   N28  Gn3  v112
 BYTE   W36
 BYTE   N11  Cn4
 BYTE   W12
 BYTE   N32  Gn3  v108
 BYTE   W36
 BYTE   N11  Fn3  v104
 BYTE   W12
// 016   ----------------------------------------
 BYTE   N80  Gn3  v108
 BYTE   W96
// 017   ----------------------------------------
 BYTE   N05  Gn2
 BYTE   W06
 BYTE   Cn3  v100
 BYTE   W06
 BYTE   Dn3
 BYTE   W06
 BYTE   Fn3  v096
 BYTE   W06
 BYTE   N28  Gn3  v112
 BYTE   W36
 BYTE   N11  Gn3  v104
 BYTE   W12
 BYTE   Fn3  v096
 BYTE   W12
 BYTE   Cn3  v104
 BYTE   W12
// 018   ----------------------------------------
 BYTE   N17  Dn3
 BYTE   W18
 BYTE   N05  Cn3  v096
 BYTE   W06
 BYTE   N56  Dn3  v108
 BYTE   W72
// 019   ----------------------------------------
 BYTE   N05  Gn2
 BYTE   W06
 BYTE   Cn3  v096
 BYTE   W06
 BYTE   Dn3  v100
 BYTE   W06
 BYTE   Fn3  v096
 BYTE   W06
 BYTE   N28  Gn3  v112
 BYTE   W36
 BYTE   N11  Gn3  v100
 BYTE   W12
 BYTE   Fn3  v104
 BYTE   W12
 BYTE   Cn3  v100
 BYTE   W12
// 020   ----------------------------------------
 BYTE   N17  Gn3  v112
 BYTE   W18
 BYTE   N05  Fn3  v092
 BYTE   W06
 BYTE   N56  Gn3  v104
 BYTE   W72
// 021   ----------------------------------------
 BYTE   N05  Gn3  v100
 BYTE   W06
 BYTE   Fn3  v092
 BYTE   W06
 BYTE   Fn3  v096
 BYTE   W06
 BYTE   Gn3
 BYTE   W06
 BYTE   N32  Cn3  v112
 BYTE   W36
 BYTE   N11  Gn2  v104
 BYTE   W12
 BYTE   Cn3
 BYTE   W12
 BYTE   N05  Gn3
 BYTE   W12
// 022   ----------------------------------------
 BYTE   Fn3  v100
 BYTE   W06
 BYTE   Gn3  v096
 BYTE   W06
 BYTE   Fn3
 BYTE   W06
 BYTE   Ds3
 BYTE   W06
 BYTE   N32  Fn3  v112
 BYTE   W48
 BYTE   N11  Ds3  v104
 BYTE   W12
 BYTE   Fn3  v100
 BYTE   W12
// 023   ----------------------------------------
 BYTE   N28  Gn3  v112
 BYTE   W36
 BYTE   N11  Cn4
 BYTE   W12
 BYTE   N28  Gn3  v108
 BYTE   W36
 BYTE   N11  Fn3  v104
 BYTE   W12
// 024   ----------------------------------------
 BYTE   N52  Gn3
 BYTE   W84
 BYTE   N05  Fn3  v092
 BYTE   W06
 BYTE   Ds3  v096
 BYTE   W06
// 025   ----------------------------------------
 BYTE   N52  Cn3  v100
 BYTE   W60
 BYTE   N05  As2  v092
 BYTE   W06
 BYTE   Cn3  v088
 BYTE   W06
 BYTE   Ds3  v092
 BYTE   W06
 BYTE   Dn3  v100
 BYTE   W06
 BYTE   N05
 BYTE   W06
 BYTE   Cn3  v092
 BYTE   W06
// 026   ----------------------------------------
 BYTE   N68  Cn3  v104
 BYTE   W84
 BYTE   N05  Fn3  v096
 BYTE   W06
 BYTE   Ds3
 BYTE   W06
// 027   ----------------------------------------
 BYTE   N52  Cn3  v100
 BYTE   W60
 BYTE   N05  As2  v092
 BYTE   W06
 BYTE   Cn3
 BYTE   W06
 BYTE   Ds3  v088
 BYTE   W06
 BYTE   Dn3  v096
 BYTE   W06
 BYTE   Ds3
 BYTE   W06
 BYTE   Fn3  v100
 BYTE   W06
// 028   ----------------------------------------
 BYTE   N68  Gn3  v112
 BYTE   W84
 BYTE   N05  Fn3  v092
 BYTE   W06
 BYTE   Ds3
 BYTE   W06
// 029   ----------------------------------------
 BYTE   N52  Cn3  v108
 BYTE   W60
 BYTE   N05  As2  v092
 BYTE   W06
 BYTE   Cn3  v088
 BYTE   W06
 BYTE   Ds3  v092
 BYTE   W06
 BYTE   Dn3  v096
 BYTE   W06
 BYTE   N05
 BYTE   W06
 BYTE   Cn3  v104
 BYTE   W06
// 030   ----------------------------------------
 BYTE   N52
 BYTE   W60
 BYTE   N05  As2  v088
 BYTE   W06
 BYTE   Cn3  v092
 BYTE   W06
 BYTE   Ds3
 BYTE   W06
 BYTE   Dn3
 BYTE   W06
 BYTE   N05
 BYTE   W06
 BYTE   Cn3
 BYTE   W06
// 031   ----------------------------------------
 BYTE   N23
 BYTE   W24
 BYTE   Gn3  v104
 BYTE   W24
 BYTE   Fn3
 BYTE   W24
 BYTE   Cn4
 BYTE   W24
// 032   ----------------------------------------
 BYTE   N05  Gs3  v100
 BYTE   W06
 BYTE   Gn3  v092
 BYTE   W06
 BYTE   Gn3  v088
 BYTE   W06
 BYTE   Fn3  v104
 BYTE   W06
 BYTE   N44  Cn3  v108
 BYTE   W72
// 033   ----------------------------------------
 BYTE   N05  Gs3  v096
 BYTE   W06
 BYTE   Gn3  v100
 BYTE   W06
 BYTE   Gn3  v104
 BYTE   W06
 BYTE   Fn3
 BYTE   W06
 BYTE   TIE  Gn3  v112
 BYTE   W72
// 034   ----------------------------------------
 BYTE   W44
 BYTE   W03
 BYTE   EOT
 BYTE   W13
 BYTE   N11  Gn2  v108
 BYTE   W12
 BYTE   Dn3
 BYTE   W12
 BYTE   Fn3
 BYTE   W12
// 035   ----------------------------------------
Label_7_0100353F:
 BYTE   N32  Ds3  v108
 BYTE   W36
 BYTE   N05  Dn3
 BYTE   W06
 BYTE   N02  Cn3
 BYTE   W06
 BYTE   N32
 BYTE   W36
 BYTE   N11  Dn3
 BYTE   W12
 BYTE   PEND 
// 036   ----------------------------------------
 BYTE   N44  As2
 BYTE   W60
 BYTE   N11  Gn2
 BYTE   W12
 BYTE   Dn3
 BYTE   W12
 BYTE   Fn3
 BYTE   W12
// 037   ----------------------------------------
 BYTE   N32  Ds3
 BYTE   W36
 BYTE   N05  Dn3
 BYTE   W06
 BYTE   N02  Cn3
 BYTE   W06
 BYTE   N32
 BYTE   W36
 BYTE   N05  Ds3
 BYTE   W06
 BYTE   Fn3
 BYTE   W06
// 038   ----------------------------------------
 BYTE   N52  Gn3
 BYTE   W60
 BYTE   N11  Gn2
 BYTE   W12
 BYTE   Dn3
 BYTE   W12
 BYTE   Fn3
 BYTE   W12
// 039   ----------------------------------------
 BYTE   PATT
  POIN2 Label_7_0100353F
// 040   ----------------------------------------
 BYTE   N80  As2  v108
 BYTE   W96
// 041   ----------------------------------------
 BYTE   N05  Gs2
 BYTE   W06
 BYTE   As2
 BYTE   W06
 BYTE   Gs2
 BYTE   W06
 BYTE   Fn2
 BYTE   W06
 BYTE   N56  Cn3
 BYTE   W72
// 042   ----------------------------------------
 BYTE   N05  Gn2
 BYTE   W06
 BYTE   Gs2
 BYTE   W06
 BYTE   Gn2
 BYTE   W06
 BYTE   Ds2
 BYTE   W06
 BYTE   N52  As2
 BYTE   W72
// 043   ----------------------------------------
 BYTE   N05  Fn2
 BYTE   W06
 BYTE   Gn2
 BYTE   W06
 BYTE   Fn2
 BYTE   W06
 BYTE   Cn2
 BYTE   W06
 BYTE   N44  Gs2
 BYTE   W48
 BYTE   N17  Cn3
 BYTE   W24
// 044   ----------------------------------------
 BYTE   N44
 BYTE   W48
 BYTE   TIE  Dn3
 BYTE   W48
// 045   ----------------------------------------
 BYTE   W80
 BYTE   W03
 BYTE   EOT
 BYTE   W01
 BYTE   GoTo
  POIN2 Label_7_01003386
// 046   ----------------------------------------
 BYTE   W01
 BYTE   FINE

//**************** Track 9 (Midi-Chn.8) ****************//

EtrianOdyssey3ChalkyWoodsThegis_009:
// 000   ----------------------------------------
 BYTE   KEYSH   EtrianOdyssey3ChalkyWoodsThegis_key+0
 BYTE   VOICE   4
 BYTE   VOL   44*EtrianOdyssey3ChalkyWoodsThegis_mvl/mxv
 BYTE   PAN   c_v+62
 BYTE   BEND   c_v+1
 BYTE   W02
 BYTE   N32  Gn4  v056
 BYTE   W36
 BYTE   N05  Fn4
 BYTE   W06
 BYTE   Gn4
 BYTE   W06
 BYTE   N36  Cn4  v064
 BYTE   W44
 BYTE   W02
// 001   ----------------------------------------
 BYTE   W02
 BYTE   N32  Cn4  v060
 BYTE   W36
 BYTE   N09  As3  v052
 BYTE   W06
 BYTE   N44  Cn4  v060
 BYTE   W52
// 002   ----------------------------------------
 BYTE   W02
 BYTE   N32  As3  v068
 BYTE   W36
 BYTE   N11  Gn3  v056
 BYTE   W06
 BYTE   N48  As3  v060
 BYTE   W06
 BYTE   N32  Ds4  v068
 BYTE   W44
 BYTE   W02
// 003   ----------------------------------------
 BYTE   W02
 BYTE   N02  Cn4  v052
 BYTE   W24
 BYTE   N54  Cn4  v056
 BYTE   W68
 BYTE   W02
// 004   ----------------------------------------
 BYTE   W02
 BYTE   N88  Cn3  v040
 BYTE   N80  Gn3  v048
 BYTE   N36  Cn4
 BYTE   N32  Gn4  v056
 BYTE   W36
 BYTE   N05  Fn4
 BYTE   W06
 BYTE   Gn4
 BYTE   W06
 BYTE   N36  Cn4  v064
 BYTE   W44
 BYTE   W02
// 005   ----------------------------------------
 BYTE   W02
 BYTE   N76  Gs2  v044
 BYTE   N76  Ds3  v048
 BYTE   N40  Fn3  v064
 BYTE   N32  Cn4  v060
 BYTE   W36
 BYTE   N09  As3  v052
 BYTE   W06
 BYTE   N44  Cn4  v060
 BYTE   W06
 BYTE   N40  Gn3  v064
 BYTE   W44
 BYTE   W02
// 006   ----------------------------------------
 BYTE   W02
 BYTE   N76  Gn2  v052
 BYTE   N80  Dn3
 BYTE   N80  Fn3  v064
 BYTE   N32  As3  v068
 BYTE   W36
 BYTE   N11  Gn3  v056
 BYTE   W06
 BYTE   N48  As3  v060
 BYTE   W06
 BYTE   N32  Ds4  v068
 BYTE   W44
 BYTE   W02
// 007   ----------------------------------------
 BYTE   W02
 BYTE   N05  Gs1  v044
 BYTE   N05  Ds2  v040
 BYTE   N02  Fn3  v048
 BYTE   N02  Cn4  v052
 BYTE   W24
 BYTE   TIE  As1  v048
 BYTE   TIE  Fn2
 BYTE   TIE  Fn3
 BYTE   TIE  Cn4  v056
 BYTE   W68
 BYTE   W02
// 008   ----------------------------------------
 BYTE   W48
 BYTE   EOT
 BYTE   As1  v053
 BYTE   W01
 BYTE   Fn3  v072
 BYTE   W32
 BYTE   W03
Label_8_01003665:
 BYTE   W12
// 009   ----------------------------------------
 BYTE   W96
// 010   ----------------------------------------
 BYTE   W96
// 011   ----------------------------------------
 BYTE   W96
// 012   ----------------------------------------
 BYTE   W96
// 013   ----------------------------------------
 BYTE   W96
// 014   ----------------------------------------
 BYTE   W96
// 015   ----------------------------------------
 BYTE   W96
// 016   ----------------------------------------
 BYTE   W96
// 017   ----------------------------------------
 BYTE   W96
// 018   ----------------------------------------
 BYTE   W96
// 019   ----------------------------------------
 BYTE   W96
// 020   ----------------------------------------
 BYTE   W96
// 021   ----------------------------------------
 BYTE   W96
// 022   ----------------------------------------
 BYTE   W96
// 023   ----------------------------------------
 BYTE   W96
// 024   ----------------------------------------
 BYTE   W96
// 025   ----------------------------------------
 BYTE   W96
// 026   ----------------------------------------
 BYTE   W96
// 027   ----------------------------------------
 BYTE   W96
// 028   ----------------------------------------
 BYTE   W96
// 029   ----------------------------------------
 BYTE   W96
// 030   ----------------------------------------
 BYTE   W96
// 031   ----------------------------------------
 BYTE   W96
// 032   ----------------------------------------
 BYTE   W96
// 033   ----------------------------------------
 BYTE   W96
// 034   ----------------------------------------
 BYTE   W96
// 035   ----------------------------------------
 BYTE   W96
// 036   ----------------------------------------
 BYTE   W96
// 037   ----------------------------------------
 BYTE   W96
// 038   ----------------------------------------
 BYTE   W96
// 039   ----------------------------------------
 BYTE   W96
// 040   ----------------------------------------
 BYTE   W96
// 041   ----------------------------------------
 BYTE   W96
// 042   ----------------------------------------
 BYTE   W96
// 043   ----------------------------------------
 BYTE   W96
// 044   ----------------------------------------
 BYTE   W96
// 045   ----------------------------------------
 BYTE   W84
 BYTE   GoTo
  POIN2 Label_8_01003665
// 046   ----------------------------------------
 BYTE   W01
 BYTE   FINE

//**************** Track 10 (Midi-Chn.9) ****************//

EtrianOdyssey3ChalkyWoodsThegis_010:
// 000   ----------------------------------------
 BYTE   KEYSH   EtrianOdyssey3ChalkyWoodsThegis_key+0
 BYTE   VOICE   62
 BYTE   VOL   70*EtrianOdyssey3ChalkyWoodsThegis_mvl/mxv
 BYTE   PAN   c_v+62
 BYTE   W96
// 001   ----------------------------------------
 BYTE   W96
// 002   ----------------------------------------
 BYTE   W96
// 003   ----------------------------------------
 BYTE   W96
// 004   ----------------------------------------
 BYTE   W96
// 005   ----------------------------------------
 BYTE   W96
// 006   ----------------------------------------
 BYTE   W96
// 007   ----------------------------------------
 BYTE   W96
// 008   ----------------------------------------
 BYTE   W84
Label_9_010036A5:
 BYTE   W12
// 009   ----------------------------------------
Label_9_010036A6:
 BYTE   N02  Gn3  v064
 BYTE   N02  Cn4  v068
 BYTE   W12
 BYTE   Gn3  v060
 BYTE   N02  Cn4  v056
 BYTE   W12
 BYTE   Gn3
 BYTE   N02  Cn4  v072
 BYTE   W12
 BYTE   Gn3  v064
 BYTE   N02  Cn4  v072
 BYTE   W12
 BYTE   Gn3  v068
 BYTE   N02  Cn4  v076
 BYTE   W12
 BYTE   Gn3  v072
 BYTE   N02  Cn4  v060
 BYTE   W12
 BYTE   Gn3  v064
 BYTE   N02  Cn4  v060
 BYTE   W12
 BYTE   Gn3  v068
 BYTE   N02  Cn4
 BYTE   W12
 BYTE   PEND 
// 010   ----------------------------------------
Label_9_010036D6:
 BYTE   N02  Fn3  v068
 BYTE   N02  Cn4  v064
 BYTE   W12
 BYTE   Fn3
 BYTE   N02  Cn4  v080
 BYTE   W12
 BYTE   Fn3  v072
 BYTE   N02  Cn4  v076
 BYTE   W12
 BYTE   Fn3  v052
 BYTE   N02  Cn4  v064
 BYTE   W12
 BYTE   Fn3
 BYTE   N02  Cn4  v072
 BYTE   W12
 BYTE   Fn3  v064
 BYTE   N02  Cn4  v072
 BYTE   W12
 BYTE   Fn3  v060
 BYTE   N02  Cn4  v072
 BYTE   W12
 BYTE   Fn3  v076
 BYTE   N02  Cn4  v072
 BYTE   W12
 BYTE   PEND 
// 011   ----------------------------------------
Label_9_01003706:
 BYTE   N02  Fn3  v068
 BYTE   N02  As3  v076
 BYTE   W12
 BYTE   Fn3  v060
 BYTE   N02  As3  v064
 BYTE   W12
 BYTE   Fn3  v080
 BYTE   N02  As3  v064
 BYTE   W12
 BYTE   Fn3  v060
 BYTE   N02  As3  v076
 BYTE   W12
 BYTE   Fn3  v064
 BYTE   N02  As3  v072
 BYTE   W12
 BYTE   Fn3  v060
 BYTE   N02  As3  v068
 BYTE   W12
 BYTE   Fn3  v072
 BYTE   N02  As3  v076
 BYTE   W12
 BYTE   Fn3  v064
 BYTE   N02  As3
 BYTE   W12
 BYTE   PEND 
// 012   ----------------------------------------
Label_9_01003737:
 BYTE   N02  Fn3  v076
 BYTE   N02  As3
 BYTE   W12
 BYTE   Fn3  v068
 BYTE   N02  As3  v064
 BYTE   W12
 BYTE   Fn3  v068
 BYTE   N02  As3  v072
 BYTE   W12
 BYTE   Fn3  v064
 BYTE   N02  As3  v072
 BYTE   W12
 BYTE   Fn3
 BYTE   N02  As3
 BYTE   W12
 BYTE   Fn3  v060
 BYTE   N02  As3  v064
 BYTE   W12
 BYTE   Fn3
 BYTE   N02  As3
 BYTE   W12
 BYTE   Fn3
 BYTE   N02  As3  v068
 BYTE   W12
 BYTE   PEND 
// 013   ----------------------------------------
Label_9_01003763:
 BYTE   N02  Gn3  v068
 BYTE   N02  Cn4  v076
 BYTE   W12
 BYTE   Gn3  v068
 BYTE   N02  Cn4  v064
 BYTE   W12
 BYTE   Gn3  v068
 BYTE   N02  Cn4  v072
 BYTE   W12
 BYTE   Gn3  v052
 BYTE   N02  Cn4  v060
 BYTE   W12
 BYTE   Gn3  v064
 BYTE   N02  Cn4
 BYTE   W12
 BYTE   Gn3
 BYTE   N02  Cn4  v060
 BYTE   W12
 BYTE   Gn3  v068
 BYTE   N02  Cn4  v060
 BYTE   W12
 BYTE   Gn3  v064
 BYTE   N02  Cn4
 BYTE   W12
 BYTE   PEND 
// 014   ----------------------------------------
Label_9_01003792:
 BYTE   N02  Fn3  v068
 BYTE   N02  Cn4  v060
 BYTE   W12
 BYTE   Fn3  v080
 BYTE   N02  Cn4  v072
 BYTE   W12
 BYTE   Fn3
 BYTE   N02  Cn4
 BYTE   W12
 BYTE   Fn3  v064
 BYTE   N02  Cn4  v072
 BYTE   W12
 BYTE   Fn3  v064
 BYTE   N02  Cn4  v068
 BYTE   W12
 BYTE   Fn3  v060
 BYTE   N02  Cn4  v064
 BYTE   W12
 BYTE   Fn3  v072
 BYTE   N02  Cn4  v068
 BYTE   W12
 BYTE   Fn3  v072
 BYTE   N02  Cn4  v064
 BYTE   W12
 BYTE   PEND 
// 015   ----------------------------------------
Label_9_010037C2:
 BYTE   N02  Gn3  v072
 BYTE   N02  Cn4  v076
 BYTE   W12
 BYTE   Gn3  v060
 BYTE   N02  Cn4  v068
 BYTE   W12
 BYTE   Gn3  v064
 BYTE   N02  Cn4  v068
 BYTE   W12
 BYTE   Gn3  v064
 BYTE   N02  Cn4
 BYTE   W12
 BYTE   Gn3  v056
 BYTE   N02  Cn4  v072
 BYTE   W12
 BYTE   Gn3  v060
 BYTE   N02  Cn4  v064
 BYTE   W12
 BYTE   Gn3  v068
 BYTE   N02  Cn4
 BYTE   W12
 BYTE   Gn3  v056
 BYTE   N02  Cn4  v076
 BYTE   W12
 BYTE   PEND 
// 016   ----------------------------------------
Label_9_010037F2:
 BYTE   N02  Gn3  v068
 BYTE   N02  Cn4  v072
 BYTE   W12
 BYTE   Gn3  v064
 BYTE   N02  Cn4  v076
 BYTE   W12
 BYTE   Gn3  v064
 BYTE   N02  Cn4  v072
 BYTE   W12
 BYTE   Gn3  v060
 BYTE   N02  Cn4  v076
 BYTE   W12
 BYTE   Gn3  v056
 BYTE   N02  Bn3  v072
 BYTE   W12
 BYTE   Gn3  v064
 BYTE   N02  Bn3
 BYTE   W12
 BYTE   Gn3
 BYTE   N02  Bn3  v072
 BYTE   W12
 BYTE   Gn3  v064
 BYTE   N02  Bn3
 BYTE   W12
 BYTE   PEND 
// 017   ----------------------------------------
 BYTE   PATT
  POIN2 Label_9_010036A6
// 018   ----------------------------------------
 BYTE   PATT
  POIN2 Label_9_010036D6
// 019   ----------------------------------------
 BYTE   PATT
  POIN2 Label_9_01003706
// 020   ----------------------------------------
 BYTE   PATT
  POIN2 Label_9_01003737
// 021   ----------------------------------------
 BYTE   PATT
  POIN2 Label_9_01003763
// 022   ----------------------------------------
 BYTE   PATT
  POIN2 Label_9_01003792
// 023   ----------------------------------------
 BYTE   PATT
  POIN2 Label_9_010037C2
// 024   ----------------------------------------
 BYTE   PATT
  POIN2 Label_9_010037F2
// 025   ----------------------------------------
 BYTE   N02  Ds3  v064
 BYTE   N02  Gs3  v076
 BYTE   W12
 BYTE   Ds3  v072
 BYTE   N02  Gs3  v068
 BYTE   W12
 BYTE   Ds3  v072
 BYTE   N02  Gs3  v068
 BYTE   W12
 BYTE   Ds3  v064
 BYTE   N02  Gs3  v068
 BYTE   W12
 BYTE   Ds3
 BYTE   N02  Gs3  v072
 BYTE   W12
 BYTE   Ds3  v064
 BYTE   N02  Gs3  v068
 BYTE   W12
 BYTE   Ds3  v076
 BYTE   N02  Gs3  v072
 BYTE   W12
 BYTE   Ds3  v056
 BYTE   N02  Gs3  v072
 BYTE   W12
// 026   ----------------------------------------
 BYTE   Ds3  v068
 BYTE   N02  Gn3  v072
 BYTE   W12
 BYTE   Ds3  v068
 BYTE   N02  Gn3  v072
 BYTE   W12
 BYTE   Ds3
 BYTE   N02  Gn3
 BYTE   W12
 BYTE   Ds3  v064
 BYTE   N02  Gn3  v060
 BYTE   W12
 BYTE   Ds3  v068
 BYTE   N02  Gn3  v072
 BYTE   W12
 BYTE   Ds3  v068
 BYTE   N02  Gn3
 BYTE   W12
 BYTE   Ds3
 BYTE   N02  Gn3  v072
 BYTE   W12
 BYTE   Ds3  v064
 BYTE   N02  Gn3  v076
 BYTE   W12
// 027   ----------------------------------------
 BYTE   Ds3  v072
 BYTE   N02  Gs3  v080
 BYTE   W12
 BYTE   Ds3  v076
 BYTE   N02  Gs3  v072
 BYTE   W12
 BYTE   Ds3  v068
 BYTE   N02  Gs3  v080
 BYTE   W12
 BYTE   Ds3  v060
 BYTE   N02  Gs3  v072
 BYTE   W12
 BYTE   Ds3  v060
 BYTE   N02  Gs3  v068
 BYTE   W12
 BYTE   Ds3  v072
 BYTE   N02  Gs3  v064
 BYTE   W12
 BYTE   Ds3  v068
 BYTE   N02  Gs3
 BYTE   W12
 BYTE   Ds3  v064
 BYTE   N02  Gs3  v068
 BYTE   W12
// 028   ----------------------------------------
 BYTE   Gn3  v076
 BYTE   N02  As3  v072
 BYTE   W12
 BYTE   Gn3
 BYTE   N02  As3  v076
 BYTE   W12
 BYTE   Gn3
 BYTE   N02  As3  v072
 BYTE   W12
 BYTE   Gn3  v068
 BYTE   N02  As3
 BYTE   W12
 BYTE   Gn3  v072
 BYTE   N02  As3  v080
 BYTE   W12
 BYTE   Gn3  v072
 BYTE   N02  As3  v068
 BYTE   W12
 BYTE   Gn3
 BYTE   N02  As3  v072
 BYTE   W12
 BYTE   Gn3
 BYTE   N02  As3  v076
 BYTE   W12
// 029   ----------------------------------------
 BYTE   Ds3
 BYTE   N02  Gs3  v084
 BYTE   W12
 BYTE   Ds3  v060
 BYTE   N02  Gs3  v068
 BYTE   W12
 BYTE   Ds3  v064
 BYTE   N02  Gs3  v076
 BYTE   W12
 BYTE   Ds3  v048
 BYTE   N02  Gs3  v068
 BYTE   W12
 BYTE   Fn3  v076
 BYTE   N02  As3  v072
 BYTE   W12
 BYTE   Fn3
 BYTE   N02  As3  v076
 BYTE   W12
 BYTE   Fn3
 BYTE   N02  As3  v084
 BYTE   W12
 BYTE   Fn3  v068
 BYTE   N02  As3  v076
 BYTE   W12
// 030   ----------------------------------------
 BYTE   Gn3  v088
 BYTE   N02  Cn4  v084
 BYTE   W12
 BYTE   Gn3  v076
 BYTE   N02  Cn4  v084
 BYTE   W12
 BYTE   Gn3  v080
 BYTE   N02  Cn4
 BYTE   W12
 BYTE   Gn3
 BYTE   N02  Cn4  v084
 BYTE   W12
 BYTE   Fn3  v080
 BYTE   N02  As3
 BYTE   W12
 BYTE   Fn3  v072
 BYTE   N02  As3  v076
 BYTE   W12
 BYTE   Fn3  v068
 BYTE   N02  As3  v076
 BYTE   W12
 BYTE   Fn3  v072
 BYTE   N02  As3  v076
 BYTE   W12
// 031   ----------------------------------------
 BYTE   Gs3  v084
 BYTE   N02  Cn4
 BYTE   W12
 BYTE   Gs3  v072
 BYTE   N02  Cn4
 BYTE   W12
 BYTE   Gs3  v080
 BYTE   N02  Cn4
 BYTE   W12
 BYTE   Gs3  v072
 BYTE   N02  Cn4  v080
 BYTE   W12
 BYTE   Fn3
 BYTE   N02  Cn4
 BYTE   W12
 BYTE   Fn3  v068
 BYTE   N02  Cn4  v072
 BYTE   W12
 BYTE   Fn3  v076
 BYTE   N02  Cn4
 BYTE   W12
 BYTE   Fn3
 BYTE   N02  Cn4
 BYTE   W12
// 032   ----------------------------------------
 BYTE   Gn3  v072
 BYTE   N02  Cn4  v080
 BYTE   W12
 BYTE   Gn3  v072
 BYTE   N02  Cn4  v068
 BYTE   W12
 BYTE   Gn3  v080
 BYTE   N02  Cn4  v076
 BYTE   W12
 BYTE   Gn3  v068
 BYTE   N02  Cn4  v072
 BYTE   W12
 BYTE   Gn3  v076
 BYTE   N02  Cn4  v072
 BYTE   W12
 BYTE   Gn3  v076
 BYTE   N02  Cn4
 BYTE   W12
 BYTE   Gn3  v080
 BYTE   N02  Cn4  v076
 BYTE   W12
 BYTE   Gn3
 BYTE   N02  Cn4
 BYTE   W12
// 033   ----------------------------------------
 BYTE   Gn3
 BYTE   N02  Cn4  v080
 BYTE   W12
 BYTE   Gn3  v068
 BYTE   N02  Cn4  v076
 BYTE   W12
 BYTE   Gn3  v080
 BYTE   N02  Cn4  v076
 BYTE   W12
 BYTE   Gn3  v068
 BYTE   N02  Cn4  v080
 BYTE   W12
 BYTE   Gn3  v076
 BYTE   N02  Cn4  v080
 BYTE   W12
 BYTE   Gn3  v072
 BYTE   N02  Cn4  v080
 BYTE   W12
 BYTE   Gn3  v072
 BYTE   N02  Cn4  v076
 BYTE   W12
 BYTE   Gn3  v068
 BYTE   N02  Cn4  v076
 BYTE   W12
// 034   ----------------------------------------
 BYTE   N56  Gn3  v080
 BYTE   N56  Bn3
 BYTE   W96
// 035   ----------------------------------------
Label_9_010039E3:
 BYTE   N02  Cn4  v084
 BYTE   N02  Ds4  v100
 BYTE   W12
 BYTE   Cn4  v076
 BYTE   N02  Ds4  v084
 BYTE   W12
 BYTE   Cn4  v076
 BYTE   N02  Ds4  v088
 BYTE   W12
 BYTE   Cn4  v076
 BYTE   N02  Ds4  v092
 BYTE   W12
 BYTE   Cn4  v080
 BYTE   N02  Ds4  v092
 BYTE   W12
 BYTE   Cn4  v076
 BYTE   N02  Ds4  v092
 BYTE   W12
 BYTE   Cn4  v080
 BYTE   N02  Ds4  v092
 BYTE   W12
 BYTE   Cn4  v080
 BYTE   N02  Ds4  v096
 BYTE   W12
 BYTE   PEND 
// 036   ----------------------------------------
Label_9_01003A15:
 BYTE   N02  Dn4  v088
 BYTE   N02  Fn4  v096
 BYTE   W12
 BYTE   Dn4  v092
 BYTE   N02  Fn4  v080
 BYTE   W12
 BYTE   Dn4  v088
 BYTE   N02  Fn4  v084
 BYTE   W12
 BYTE   Dn4  v076
 BYTE   N02  Fn4  v088
 BYTE   W12
 BYTE   Dn4
 BYTE   N02  Fn4  v080
 BYTE   W12
 BYTE   Dn4
 BYTE   N02  Fn4  v084
 BYTE   W12
 BYTE   Dn4  v088
 BYTE   N02  Fn4  v080
 BYTE   W12
 BYTE   Dn4  v088
 BYTE   N02  Fn4  v092
 BYTE   W12
 BYTE   PEND 
// 037   ----------------------------------------
 BYTE   Cn4  v080
 BYTE   N02  Ds4  v096
 BYTE   W12
 BYTE   Cn4  v076
 BYTE   N02  Ds4  v088
 BYTE   W12
 BYTE   Cn4  v080
 BYTE   N02  Ds4  v096
 BYTE   W12
 BYTE   Cn4  v080
 BYTE   N02  Ds4  v088
 BYTE   W12
 BYTE   Cn4
 BYTE   N02  Ds4  v100
 BYTE   W12
 BYTE   Cn4  v092
 BYTE   N02  Ds4  v100
 BYTE   W12
 BYTE   Cn4  v076
 BYTE   N02  Ds4  v100
 BYTE   W12
 BYTE   Cn4  v084
 BYTE   N02  Ds4  v096
 BYTE   W12
// 038   ----------------------------------------
 BYTE   N02
 BYTE   N02  Gn4  v092
 BYTE   W12
 BYTE   Ds4  v084
 BYTE   N02  Gn4  v076
 BYTE   W12
 BYTE   Ds4  v092
 BYTE   N02  Gn4  v084
 BYTE   W12
 BYTE   Ds4  v100
 BYTE   N02  Gn4  v084
 BYTE   W12
 BYTE   Ds4  v100
 BYTE   N02  Gn4  v080
 BYTE   W12
 BYTE   Ds4  v092
 BYTE   N02  Gn4  v076
 BYTE   W12
 BYTE   Ds4  v100
 BYTE   N02  Gn4  v080
 BYTE   W12
 BYTE   Ds4  v092
 BYTE   N02  Gn4  v088
 BYTE   W12
// 039   ----------------------------------------
 BYTE   PATT
  POIN2 Label_9_010039E3
// 040   ----------------------------------------
 BYTE   PATT
  POIN2 Label_9_01003A15
// 041   ----------------------------------------
 BYTE   W24
 BYTE   N05  Gs3  v092
 BYTE   W06
 BYTE   As3  v076
 BYTE   W06
 BYTE   Gs3
 BYTE   W06
 BYTE   Fn3  v084
 BYTE   W06
 BYTE   Gs3  v076
 BYTE   W06
 BYTE   Fn3  v088
 BYTE   W06
 BYTE   Gs3  v092
 BYTE   W06
 BYTE   Cn4
 BYTE   W06
 BYTE   Fn4  v104
 BYTE   W06
 BYTE   Cn4  v084
 BYTE   W06
 BYTE   Gs3  v092
 BYTE   W06
 BYTE   Fn3  v080
 BYTE   W06
// 042   ----------------------------------------
 BYTE   W24
 BYTE   Gn3  v100
 BYTE   W06
 BYTE   Gs3  v084
 BYTE   W06
 BYTE   Gn3  v088
 BYTE   W06
 BYTE   Ds3  v096
 BYTE   W06
 BYTE   Gn3  v088
 BYTE   W06
 BYTE   Ds3
 BYTE   W06
 BYTE   Gn3  v100
 BYTE   W06
 BYTE   As3  v096
 BYTE   W06
 BYTE   Ds4  v084
 BYTE   W06
 BYTE   As3  v080
 BYTE   W06
 BYTE   Gn3  v084
 BYTE   W06
 BYTE   Ds3  v088
 BYTE   W06
// 043   ----------------------------------------
 BYTE   W24
 BYTE   Gs3  v092
 BYTE   W06
 BYTE   As3  v080
 BYTE   W06
 BYTE   Gs3  v072
 BYTE   W06
 BYTE   Fn3  v096
 BYTE   W06
 BYTE   Cn4  v104
 BYTE   W06
 BYTE   Fn3  v084
 BYTE   W06
 BYTE   Gs3  v096
 BYTE   W06
 BYTE   Cn4
 BYTE   W06
 BYTE   Fn4  v100
 BYTE   W06
 BYTE   Cn4  v088
 BYTE   W06
 BYTE   Gs3  v080
 BYTE   W06
 BYTE   Fn3  v088
 BYTE   W06
// 044   ----------------------------------------
 BYTE   Gn3
 BYTE   W06
 BYTE   Dn3  v084
 BYTE   W06
 BYTE   Gn3  v080
 BYTE   W06
 BYTE   Cn4  v088
 BYTE   W06
 BYTE   Gn3  v096
 BYTE   W06
 BYTE   Dn3  v084
 BYTE   W06
 BYTE   Gn3  v072
 BYTE   W06
 BYTE   Cn4  v084
 BYTE   W06
 BYTE   Gn3  v096
 BYTE   W06
 BYTE   Dn3  v084
 BYTE   W06
 BYTE   Gn3  v080
 BYTE   W06
 BYTE   Bn3
 BYTE   W06
 BYTE   Dn4  v096
 BYTE   W06
 BYTE   Gn3  v092
 BYTE   W06
 BYTE   Bn3
 BYTE   W06
 BYTE   Dn4
 BYTE   W06
// 045   ----------------------------------------
 BYTE   N76  Gn4
 BYTE   W84
 BYTE   GoTo
  POIN2 Label_9_010036A5
// 046   ----------------------------------------
 BYTE   W01
 BYTE   FINE

//**************** Track 11 (Midi-Chn.10) ****************//

EtrianOdyssey3ChalkyWoodsThegis_011:
// 000   ----------------------------------------
 BYTE   KEYSH   EtrianOdyssey3ChalkyWoodsThegis_key+0
 BYTE   VOICE   85
 BYTE   VOL   49*EtrianOdyssey3ChalkyWoodsThegis_mvl/mxv
 BYTE   PAN   c_v-30
 BYTE   W96
// 001   ----------------------------------------
 BYTE   W96
// 002   ----------------------------------------
 BYTE   W96
// 003   ----------------------------------------
 BYTE   W96
// 004   ----------------------------------------
 BYTE   W96
// 005   ----------------------------------------
 BYTE   W96
// 006   ----------------------------------------
 BYTE   W96
// 007   ----------------------------------------
 BYTE   N02  Gs2  v068
 BYTE   N01  Cn3
 BYTE   W24
 BYTE   TIE  As2  v060
 BYTE   TIE  Cn3  v056
 BYTE   W72
// 008   ----------------------------------------
 BYTE   W64
 BYTE   W01
 BYTE   EOT
 BYTE   As2  v060
 BYTE   W01
 BYTE   N24  As2  v020
 BYTE   N24  Cn3
 BYTE   W18
Label_10_01003B78:
 BYTE   W12
// 009   ----------------------------------------
 BYTE   W96
// 010   ----------------------------------------
 BYTE   W96
// 011   ----------------------------------------
 BYTE   W96
// 012   ----------------------------------------
 BYTE   W96
// 013   ----------------------------------------
 BYTE   W96
// 014   ----------------------------------------
 BYTE   W96
// 015   ----------------------------------------
 BYTE   W96
// 016   ----------------------------------------
 BYTE   W96
// 017   ----------------------------------------
 BYTE   W96
// 018   ----------------------------------------
 BYTE   W96
// 019   ----------------------------------------
 BYTE   W96
// 020   ----------------------------------------
 BYTE   W96
// 021   ----------------------------------------
 BYTE   W96
// 022   ----------------------------------------
 BYTE   W96
// 023   ----------------------------------------
 BYTE   W96
// 024   ----------------------------------------
 BYTE   W96
// 025   ----------------------------------------
 BYTE   N40  Cn4  v092
 BYTE   N40  Ds4  v104
 BYTE   W44
 BYTE   W03
 BYTE   N23  As3  v092
 BYTE   N19  Ds4  v108
 BYTE   W24
 BYTE   N17  Cn4  v080
 BYTE   N17  Ds4  v092
 BYTE   W24
 BYTE   N15  Cn4  v096
 BYTE   N13  Fn4  v104
 BYTE   W01
// 026   ----------------------------------------
 BYTE   W19
 BYTE   N02  Cn4  v084
 BYTE   N01  Ds4  v092
 BYTE   W04
 BYTE   N60  Ds4  v108
 BYTE   W01
 BYTE   N56  Cn4  v084
 BYTE   W60
 BYTE   N11  Cn4  v036
 BYTE   N11  Ds4
 BYTE   W12
// 027   ----------------------------------------
 BYTE   N36  Cn4  v100
 BYTE   N36  Ds4  v096
 BYTE   W44
 BYTE   W03
 BYTE   N17  As3  v100
 BYTE   N17  Ds4  v108
 BYTE   W24
 BYTE   W01
 BYTE   N16  Cn4
 BYTE   N17  Ds4  v112
 BYTE   W23
 BYTE   N13  As3  v096
 BYTE   N15  Ds4  v108
 BYTE   W01
// 028   ----------------------------------------
 BYTE   W18
 BYTE   N02  Ds4  v092
 BYTE   W01
 BYTE   N03  Fn4  v100
 BYTE   W05
 BYTE   N56  Ds4  v112
 BYTE   W01
 BYTE   Gn4
 BYTE   W56
 BYTE   W03
 BYTE   N08  Ds4  v036
 BYTE   N11  Gn4
 BYTE   W12
// 029   ----------------------------------------
 BYTE   N24  Cn4  v092
 BYTE   N24  Ds4  v104
 BYTE   W30
 BYTE   N02  Cn4  v036
 BYTE   N02  Ds4
 BYTE   W05
 BYTE   N03  Ds4  v108
 BYTE   W01
 BYTE   Cn4  v092
 BYTE   W06
 BYTE   N02  Cn4  v036
 BYTE   N02  Ds4
 BYTE   W05
 BYTE   N30  Fn4  v112
 BYTE   W01
 BYTE   Dn4  v104
 BYTE   W32
 BYTE   W03
 BYTE   N05  Dn4  v096
 BYTE   N05  Fn4
 BYTE   W07
 BYTE   N02  Dn4  v036
 BYTE   N02  Fn4
 BYTE   W05
 BYTE   N20  As3  v100
 BYTE   N18  Ds4  v112
 BYTE   W01
// 030   ----------------------------------------
 BYTE   W23
 BYTE   N22  Ds4  v100
 BYTE   N20  Gn4
 BYTE   W24
 BYTE   W01
 BYTE   N28  Cn4
 BYTE   N28  Fn4  v108
 BYTE   W36
 BYTE   N04  Cn4  v096
 BYTE   N04  Fn4  v112
 BYTE   W12
// 031   ----------------------------------------
 BYTE   N17  As3  v096
 BYTE   N18  Ds4  v108
 BYTE   W24
 BYTE   Ds4  v112
 BYTE   N18  Gn4
 BYTE   W24
 BYTE   N15  Cn4  v100
 BYTE   N15  Fn4  v112
 BYTE   W18
 BYTE   N02  Cn4  v036
 BYTE   N02  Fn4
 BYTE   W06
 BYTE   N20  Fn4  v108
 BYTE   N20  Cn5  v112
 BYTE   W24
// 032   ----------------------------------------
 BYTE   N19  Cn4  v096
 BYTE   N06  Gs4  v108
 BYTE   W06
 BYTE   N03  Gn4  v104
 BYTE   W06
 BYTE   N04  Gn4  v092
 BYTE   W06
 BYTE   Fn4  v088
 BYTE   W06
 BYTE   N48  Cn4  v100
 BYTE   N48  Dn4  v104
 BYTE   W54
 BYTE   N11  Cn4  v036
 BYTE   N11  Dn4
 BYTE   W18
// 033   ----------------------------------------
 BYTE   N22  Cn4  v096
 BYTE   N05  Gs4  v104
 BYTE   W05
 BYTE   N03  Gn4  v100
 BYTE   W08
 BYTE   N05  Gn4  v104
 BYTE   W05
 BYTE   N03  Fn4
 BYTE   W06
 BYTE   N68  Gn4  v112
 BYTE   W01
 BYTE   Dn4  v076
 BYTE   W68
 BYTE   W03
// 034   ----------------------------------------
 BYTE   N54  Dn4  v088
 BYTE   N56  Gn4  v092
 BYTE   W60
 BYTE   N11  Dn4  v036
 BYTE   N11  Gn4
 BYTE   W12
 BYTE   N06  Gn3  v092
 BYTE   W03
 BYTE   N05  Dn4
 BYTE   W02
 BYTE   N03  Fn4
 BYTE   W02
 BYTE   N07  Gn4  v096
 BYTE   W03
 BYTE   N08  Bn4  v092
 BYTE   W04
 BYTE   Dn5  v100
 BYTE   W04
 BYTE   N06  Fn5
 BYTE   W05
 BYTE   N40  Gn5  v108
 BYTE   W01
// 035   ----------------------------------------
 BYTE   N36  Cn5  v096
 BYTE   W42
 BYTE   N05  Gn5  v036
 BYTE   W01
 BYTE   N01  Cn5  v080
 BYTE   N02  Ds5  v092
 BYTE   W05
 BYTE   N40  Cn5  v096
 BYTE   N40  Ds5  v080
 BYTE   W42
 BYTE   N05  Ds5  v036
 BYTE   W05
 BYTE   N09  Dn5  v104
 BYTE   N08  Fn5
 BYTE   W01
// 036   ----------------------------------------
 BYTE   W12
 BYTE   N02  As4  v088
 BYTE   N02  Dn5  v080
 BYTE   N05  Fn5  v036
 BYTE   W06
 BYTE   N02  Dn5  v108
 BYTE   W01
 BYTE   N03  As4  v088
 BYTE   W05
 BYTE   As4  v100
 BYTE   N04  Dn5  v112
 BYTE   W06
 BYTE   N03  Dn5  v072
 BYTE   W07
 BYTE   N01  Fn4  v076
 BYTE   N02  As4  v084
 BYTE   W05
 BYTE   Fn4  v096
 BYTE   N03  As4  v100
 BYTE   W06
 BYTE   N01  Fn4  v108
 BYTE   N03  As4  v112
 BYTE   W06
 BYTE   As4  v072
 BYTE   W06
 BYTE   Dn4  v092
 BYTE   N03  Fn4
 BYTE   W12
 BYTE   N06  Gn3
 BYTE   W03
 BYTE   N05  Dn4
 BYTE   W02
 BYTE   N03  Fn4
 BYTE   W02
 BYTE   N07  Gn4  v096
 BYTE   W03
 BYTE   N08  Bn4  v092
 BYTE   W04
 BYTE   Dn5  v100
 BYTE   W04
 BYTE   N06  Fn5
 BYTE   W05
 BYTE   N40  Gn5  v108
 BYTE   W01
// 037   ----------------------------------------
 BYTE   N36  Cn5  v096
 BYTE   W42
 BYTE   N05  Gn5  v036
 BYTE   W01
 BYTE   N01  Cn5  v080
 BYTE   N02  Ds5  v092
 BYTE   W05
 BYTE   N44  Cn5  v096
 BYTE   N40  Ds5  v080
 BYTE   W48
// 038   ----------------------------------------
 BYTE   N08  Ds5  v064
 BYTE   N11  Gn5  v096
 BYTE   W11
 BYTE   N02  As4
 BYTE   N02  Ds5  v088
 BYTE   W01
 BYTE   N05  Gn5  v036
 BYTE   W04
 BYTE   N03  Ds5  v096
 BYTE   W01
 BYTE   As4  v092
 BYTE   W06
 BYTE   N05  Ds5  v100
 BYTE   W01
 BYTE   N06  As4  v076
 BYTE   W06
 BYTE   N03  Ds5  v072
 BYTE   W05
 BYTE   N02  As4  v112
 BYTE   W01
 BYTE   Gn4  v088
 BYTE   W05
 BYTE   N03  As4  v112
 BYTE   W01
 BYTE   N01  Gn4  v104
 BYTE   W05
 BYTE   N03  Gn4  v092
 BYTE   N05  As4  v112
 BYTE   W07
 BYTE   N03  As4  v072
 BYTE   W05
 BYTE   Gn4  v096
 BYTE   W01
 BYTE   Ds4
 BYTE   W05
 BYTE   Gn4  v104
 BYTE   W01
 BYTE   Ds4
 BYTE   W06
 BYTE   N06  Gn3  v092
 BYTE   W03
 BYTE   N05  Dn4
 BYTE   W02
 BYTE   N03  Fn4
 BYTE   W02
 BYTE   N07  Gn4  v096
 BYTE   W03
 BYTE   N08  Bn4  v092
 BYTE   W04
 BYTE   Dn5  v100
 BYTE   W04
 BYTE   N06  Fn5
 BYTE   W05
 BYTE   N48  Gn4  v096
 BYTE   TIE  Cn5  v104
 BYTE   W01
// 039   ----------------------------------------
 BYTE   W06
 BYTE   N05  Fn5  v072
 BYTE   W42
 BYTE   N48  Gn5  v104
 BYTE   W48
// 040   ----------------------------------------
 BYTE   EOT
 BYTE   Cn5
 BYTE   N03  Dn5  v092
 BYTE   N04  Fn5  v100
 BYTE   W06
 BYTE   N05  Fn5  v072
 BYTE   W06
 BYTE   N01  As4  v084
 BYTE   N01  Dn5  v092
 BYTE   W05
 BYTE   N02  As4  v088
 BYTE   N01  Dn5
 BYTE   W06
 BYTE   N03  As4  v100
 BYTE   N03  Dn5
 BYTE   W13
 BYTE   Fn4  v092
 BYTE   N03  As4
 BYTE   W06
 BYTE   Fn4  v068
 BYTE   N03  As4  v108
 BYTE   W05
 BYTE   As4  v104
 BYTE   W01
 BYTE   Fn4  v096
 BYTE   W11
 BYTE   Fn4  v100
 BYTE   W01
 BYTE   N02  Dn4
 BYTE   W05
 BYTE   N03  Fn4
 BYTE   W01
 BYTE   Dn4  v096
 BYTE   W06
 BYTE   Dn4  v108
 BYTE   N03  Fn4
 BYTE   W22
 BYTE   N11  Cn4  v100
 BYTE   N11  Ds4  v104
 BYTE   W02
// 041   ----------------------------------------
 BYTE   W12
 BYTE   N05  Cn4  v052
 BYTE   N05  Ds4
 BYTE   W10
 BYTE   N44  Fn4  v104
 BYTE   W01
 BYTE   N40  Gs4  v100
 BYTE   W48
 BYTE   N14  Gs4  v112
 BYTE   N14  Cn5  v108
 BYTE   W19
 BYTE   N05  Cn5  v036
 BYTE   W05
 BYTE   N11  As3  v096
 BYTE   N11  Ds4  v112
 BYTE   W01
// 042   ----------------------------------------
 BYTE   W12
 BYTE   N05  As3  v052
 BYTE   N05  Ds4
 BYTE   W12
 BYTE   N48  Ds4  v104
 BYTE   N44  Gn4
 BYTE   W44
 BYTE   W03
 BYTE   N13  Gn4  v096
 BYTE   N13  As4
 BYTE   W19
 BYTE   N05  As4  v036
 BYTE   W04
 BYTE   N11  Cn4  v112
 BYTE   W01
 BYTE   Gs3  v100
 BYTE   W01
// 043   ----------------------------------------
 BYTE   W12
 BYTE   N05  Gs3  v052
 BYTE   N05  Cn4
 BYTE   W11
 BYTE   N36  Cn4  v100
 BYTE   W01
 BYTE   Fn4
 BYTE   W44
 BYTE   W03
 BYTE   N11  Fn4  v104
 BYTE   N15  Gs4
 BYTE   W19
 BYTE   N05  Gs4  v036
 BYTE   W06
// 044   ----------------------------------------
 BYTE   N40  Gn4  v104
 BYTE   N40  Cn5  v108
 BYTE   W42
 BYTE   N05  Cn5  v036
 BYTE   W06
 BYTE   TIE  Gn4  v092
 BYTE   TIE  Bn4  v104
 BYTE   W48
// 045   ----------------------------------------
 BYTE   W68
 BYTE   EOT
 BYTE   Gn4  v083
 BYTE   W04
 BYTE   N11  Gn4  v052
 BYTE   N11  Bn4
 BYTE   W12
 BYTE   GoTo
  POIN2 Label_10_01003B78
// 046   ----------------------------------------
 BYTE   W01
 BYTE   FINE

//**************** Track 12 (Midi-Chn.11) ****************//

EtrianOdyssey3ChalkyWoodsThegis_012:
// 000   ----------------------------------------
 BYTE   KEYSH   EtrianOdyssey3ChalkyWoodsThegis_key+0
 BYTE   VOICE   123
 BYTE   VOL   70*EtrianOdyssey3ChalkyWoodsThegis_mvl/mxv
 BYTE   PAN   c_v+0
 BYTE   W96
// 001   ----------------------------------------
 BYTE   W96
// 002   ----------------------------------------
 BYTE   W96
// 003   ----------------------------------------
 BYTE   W96
// 004   ----------------------------------------
 BYTE   W96
// 005   ----------------------------------------
 BYTE   W96
// 006   ----------------------------------------
 BYTE   W96
// 007   ----------------------------------------
 BYTE   W96
// 008   ----------------------------------------
 BYTE   W84
Label_11_01003E8D:
 BYTE   W12
// 009   ----------------------------------------
 BYTE   N23  Cn1  v127
 BYTE   N23  Cs2
 BYTE   W24
 BYTE   Dn1
 BYTE   N04  Fs1
 BYTE   W12
 BYTE   Fs1  v076
 BYTE   W12
 BYTE   N11  Cn1  v127
 BYTE   N04  Fs1  v108
 BYTE   W12
 BYTE   Fs1  v068
 BYTE   W12
 BYTE   N23  Dn1  v127
 BYTE   N04  Fs1
 BYTE   W12
 BYTE   Fs1  v068
 BYTE   W12
// 010   ----------------------------------------
Label_11_01003EAE:
 BYTE   N11  Cn1  v127
 BYTE   N04  Fs1  v116
 BYTE   W12
 BYTE   Fs1  v068
 BYTE   W12
 BYTE   N23  Dn1  v127
 BYTE   N04  Fs1
 BYTE   W12
 BYTE   Fs1  v068
 BYTE   W12
 BYTE   N11  Cn1  v127
 BYTE   N04  Fs1  v120
 BYTE   W12
 BYTE   Fs1  v068
 BYTE   W12
 BYTE   N23  Dn1  v127
 BYTE   N04  Fs1
 BYTE   W12
 BYTE   N11  Cn1
 BYTE   N04  Fs1  v064
 BYTE   W12
 BYTE   PEND 
// 011   ----------------------------------------
Label_11_01003ED8:
 BYTE   N11  Cn1  v127
 BYTE   N04  Fs1  v120
 BYTE   W12
 BYTE   Fs1  v060
 BYTE   W12
 BYTE   N23  Dn1  v127
 BYTE   N04  Fs1
 BYTE   W12
 BYTE   Fs1  v068
 BYTE   W12
 BYTE   N11  Cn1  v127
 BYTE   N04  Fs1
 BYTE   W12
 BYTE   Fs1  v068
 BYTE   W12
 BYTE   N23  Dn1  v127
 BYTE   N04  Fs1
 BYTE   W12
 BYTE   Fs1  v060
 BYTE   W12
 BYTE   PEND 
// 012   ----------------------------------------
 BYTE   N11  Cn1  v127
 BYTE   N04  Fs1  v116
 BYTE   W12
 BYTE   Fs1  v064
 BYTE   W12
 BYTE   N23  Dn1  v127
 BYTE   N04  Fs1
 BYTE   W12
 BYTE   Fs1  v068
 BYTE   W12
 BYTE   Fs1  v127
 BYTE   W12
 BYTE   N11  Cn1
 BYTE   N04  Fs1  v072
 BYTE   W12
 BYTE   N23  Dn1  v127
 BYTE   N04  Fs1
 BYTE   W12
 BYTE   N11  Cn1
 BYTE   N04  Fs1  v052
 BYTE   W12
// 013   ----------------------------------------
 BYTE   N11  Cn1  v127
 BYTE   N04  Fs1
 BYTE   W12
 BYTE   Fs1  v072
 BYTE   W12
 BYTE   N23  Dn1  v127
 BYTE   N04  Fs1
 BYTE   W12
 BYTE   Fs1  v076
 BYTE   W12
 BYTE   N11  Cn1  v127
 BYTE   N04  Fs1  v108
 BYTE   W12
 BYTE   Fs1  v068
 BYTE   W12
 BYTE   N23  Dn1  v127
 BYTE   N04  Fs1
 BYTE   W12
 BYTE   Fs1  v068
 BYTE   W12
// 014   ----------------------------------------
 BYTE   PATT
  POIN2 Label_11_01003EAE
// 015   ----------------------------------------
 BYTE   PATT
  POIN2 Label_11_01003ED8
// 016   ----------------------------------------
 BYTE   N11  Cn1  v127
 BYTE   N04  Fs1  v116
 BYTE   W12
 BYTE   Fs1  v064
 BYTE   W12
 BYTE   N23  Dn1  v127
 BYTE   N04  Fs1
 BYTE   W12
 BYTE   Fs1  v068
 BYTE   W12
 BYTE   Fs1  v127
 BYTE   W48
// 017   ----------------------------------------
Label_11_01003F6B:
 BYTE   N23  Cn1  v127
 BYTE   N23  Cs2
 BYTE   W24
 BYTE   Dn1
 BYTE   W24
 BYTE   N11  Cn1
 BYTE   W24
 BYTE   N23  Dn1
 BYTE   W24
 BYTE   PEND 
// 018   ----------------------------------------
Label_11_01003F7A:
 BYTE   N11  Cn1  v127
 BYTE   W24
 BYTE   N23  Dn1
 BYTE   W24
 BYTE   N11  Cn1
 BYTE   W24
 BYTE   N23  Dn1
 BYTE   W12
 BYTE   N11  Cn1
 BYTE   W12
 BYTE   PEND 
// 019   ----------------------------------------
Label_11_01003F8B:
 BYTE   N11  Cn1  v127
 BYTE   W24
 BYTE   N23  Dn1
 BYTE   W24
 BYTE   N11  Cn1
 BYTE   W24
 BYTE   N23  Dn1
 BYTE   W24
 BYTE   PEND 
// 020   ----------------------------------------
Label_11_01003F99:
 BYTE   N11  Cn1  v127
 BYTE   W24
 BYTE   N23  Dn1
 BYTE   W36
 BYTE   N11  Cn1
 BYTE   W12
 BYTE   N23  Dn1
 BYTE   W12
 BYTE   N11  Cn1
 BYTE   W12
 BYTE   PEND 
// 021   ----------------------------------------
 BYTE   PATT
  POIN2 Label_11_01003F8B
// 022   ----------------------------------------
 BYTE   PATT
  POIN2 Label_11_01003F7A
// 023   ----------------------------------------
 BYTE   PATT
  POIN2 Label_11_01003F8B
// 024   ----------------------------------------
 BYTE   N11  Cn1  v127
 BYTE   W24
 BYTE   N23  Dn1
 BYTE   W72
// 025   ----------------------------------------
 BYTE   PATT
  POIN2 Label_11_01003F6B
// 026   ----------------------------------------
 BYTE   PATT
  POIN2 Label_11_01003F7A
// 027   ----------------------------------------
 BYTE   PATT
  POIN2 Label_11_01003F8B
// 028   ----------------------------------------
 BYTE   PATT
  POIN2 Label_11_01003F99
// 029   ----------------------------------------
 BYTE   PATT
  POIN2 Label_11_01003F8B
// 030   ----------------------------------------
 BYTE   PATT
  POIN2 Label_11_01003F7A
// 031   ----------------------------------------
 BYTE   PATT
  POIN2 Label_11_01003F8B
// 032   ----------------------------------------
 BYTE   W96
// 033   ----------------------------------------
 BYTE   W96
// 034   ----------------------------------------
 BYTE   W96
// 035   ----------------------------------------
Label_11_01003FE6:
 BYTE   N23  Cn1  v127
 BYTE   N23  Cs2  v124
 BYTE   W24
 BYTE   Dn1  v127
 BYTE   N04  Ds2
 BYTE   W12
 BYTE   Ds2  v060
 BYTE   W12
 BYTE   N11  Cn1  v127
 BYTE   N04  Ds2  v096
 BYTE   W12
 BYTE   Ds2  v060
 BYTE   W12
 BYTE   N23  Dn1  v124
 BYTE   N04  Ds2  v127
 BYTE   W12
 BYTE   N11  Cn1
 BYTE   N04  Ds2  v056
 BYTE   W12
 BYTE   PEND 
// 036   ----------------------------------------
 BYTE   N11  Cn1  v127
 BYTE   N04  Ds2  v096
 BYTE   W12
 BYTE   Ds2  v064
 BYTE   W12
 BYTE   N23  Dn1  v127
 BYTE   N04  Ds2
 BYTE   W12
 BYTE   Ds2  v056
 BYTE   W12
 BYTE   N11  Cn1  v127
 BYTE   N04  Ds2  v096
 BYTE   W12
 BYTE   Ds2  v060
 BYTE   W12
 BYTE   N23  Dn1  v127
 BYTE   N04  Ds2
 BYTE   W12
 BYTE   N11  Cn1
 BYTE   N04  Ds2  v060
 BYTE   W12
// 037   ----------------------------------------
 BYTE   N11  Cn1  v127
 BYTE   N04  Ds2  v096
 BYTE   W12
 BYTE   Ds2  v060
 BYTE   W12
 BYTE   N23  Dn1  v127
 BYTE   N04  Ds2
 BYTE   W12
 BYTE   Ds2  v056
 BYTE   W12
 BYTE   N11  Cn1  v127
 BYTE   N04  Ds2  v096
 BYTE   W12
 BYTE   Ds2  v052
 BYTE   W12
 BYTE   N23  Dn1  v127
 BYTE   N04  Ds2
 BYTE   W12
 BYTE   N11  Cn1
 BYTE   N04  Ds2  v056
 BYTE   W12
// 038   ----------------------------------------
 BYTE   N11  Cn1  v127
 BYTE   N04  Ds2  v096
 BYTE   W12
 BYTE   Ds2  v052
 BYTE   W12
 BYTE   N23  Dn1  v120
 BYTE   N04  Ds2  v127
 BYTE   W12
 BYTE   Ds2  v056
 BYTE   W60
// 039   ----------------------------------------
 BYTE   PATT
  POIN2 Label_11_01003FE6
// 040   ----------------------------------------
 BYTE   N11  Cn1  v127
 BYTE   N04  Ds2  v096
 BYTE   W12
 BYTE   Ds2  v064
 BYTE   W12
 BYTE   N23  Dn1  v127
 BYTE   N04  Ds2
 BYTE   W12
 BYTE   Ds2  v056
 BYTE   W12
 BYTE   TIE  Cn1  v127
 BYTE   N04  Ds2  v096
 BYTE   W48
// 041   ----------------------------------------
 BYTE   W92
 BYTE   W03
 BYTE   EOT
 BYTE   Cn1
 BYTE   W01
// 042   ----------------------------------------
 BYTE   N11  Cn1  v127
 BYTE   N11  As1  v108
 BYTE   N23  Cs2  v127
 BYTE   W12
 BYTE   N11  As1  v056
 BYTE   W12
 BYTE   As1  v108
 BYTE   W72
// 043   ----------------------------------------
 BYTE   Cn1  v127
 BYTE   N11  As1  v108
 BYTE   N23  Cs2  v127
 BYTE   W12
 BYTE   N11  As1  v056
 BYTE   W12
 BYTE   N23  Dn1  v127
 BYTE   N11  As1  v108
 BYTE   W12
 BYTE   As1  v064
 BYTE   W11
 BYTE   N04  Cn1  v127
 BYTE   W01
 BYTE   N11  As1  v108
 BYTE   W12
 BYTE   As1  v056
 BYTE   W12
 BYTE   N23  Dn1  v127
 BYTE   N11  As1  v108
 BYTE   W12
 BYTE   As1  v064
 BYTE   W12
// 044   ----------------------------------------
 BYTE   W96
// 045   ----------------------------------------
 BYTE   Cn1  v127
 BYTE   N23  Cs2
 BYTE   W84
 BYTE   GoTo
  POIN2 Label_11_01003E8D
// 046   ----------------------------------------
 BYTE   W01
 BYTE   FINE

//**************** Track 13 (Midi-Chn.12) ****************//

EtrianOdyssey3ChalkyWoodsThegis_013:
// 000   ----------------------------------------
 BYTE   KEYSH   EtrianOdyssey3ChalkyWoodsThegis_key+0
 BYTE   VOICE   123
 BYTE   VOL   70*EtrianOdyssey3ChalkyWoodsThegis_mvl/mxv
 BYTE   PAN   c_v+0
 BYTE   W96
// 001   ----------------------------------------
 BYTE   W96
// 002   ----------------------------------------
 BYTE   W92
 BYTE   W02
 BYTE   N24  Ds2  v072
 BYTE   W02
// 003   ----------------------------------------
 BYTE   W24
 BYTE   N68  Ds2  v076
 BYTE   W72
// 004   ----------------------------------------
 BYTE   W96
// 005   ----------------------------------------
 BYTE   W96
// 006   ----------------------------------------
 BYTE   W92
 BYTE   W03
 BYTE   N23  Ds2  v068
 BYTE   W01
// 007   ----------------------------------------
 BYTE   W24
 BYTE   N44
 BYTE   W48
 BYTE   N01  Cs2  v020
 BYTE   W04
 BYTE   Cs2  v028
 BYTE   W04
 BYTE   Cs2  v032
 BYTE   W04
 BYTE   N02  Cs2  v040
 BYTE   W04
 BYTE   N01  Cs2  v056
 BYTE   W04
 BYTE   Cs2  v064
 BYTE   W04
// 008   ----------------------------------------
 BYTE   N68  Cs2  v076
 BYTE   W60
 BYTE   N01  Cn1  v127
 BYTE   N01  Dn1
 BYTE   W12
 BYTE   Cn1
 BYTE   N01  Dn1  v108
 BYTE   W06
 BYTE   Cn2  v127
 BYTE   W06
Label_12_0100421F:
 BYTE   N01  Cn1  v127
 BYTE   N01  Gn1
 BYTE   W12
// 009   ----------------------------------------
 BYTE   W96
// 010   ----------------------------------------
 BYTE   W96
// 011   ----------------------------------------
 BYTE   W96
// 012   ----------------------------------------
 BYTE   W96
// 013   ----------------------------------------
 BYTE   W96
// 014   ----------------------------------------
 BYTE   W96
// 015   ----------------------------------------
 BYTE   W96
// 016   ----------------------------------------
 BYTE   W54
 BYTE   Dn1  v052
 BYTE   W06
 BYTE   Dn1  v127
 BYTE   W06
 BYTE   Dn1  v112
 BYTE   W06
 BYTE   Dn1  v124
 BYTE   W06
 BYTE   Dn1  v104
 BYTE   W06
 BYTE   Cn1  v127
 BYTE   N23  As1  v088
 BYTE   W12
// 017   ----------------------------------------
 BYTE   W96
// 018   ----------------------------------------
 BYTE   W96
// 019   ----------------------------------------
 BYTE   W96
// 020   ----------------------------------------
 BYTE   W96
// 021   ----------------------------------------
 BYTE   W96
// 022   ----------------------------------------
 BYTE   W96
// 023   ----------------------------------------
 BYTE   W96
// 024   ----------------------------------------
 BYTE   W60
 BYTE   N01  Cn1  v127
 BYTE   N01  Dn1
 BYTE   W06
 BYTE   Dn1  v088
 BYTE   W06
 BYTE   Cn1  v127
 BYTE   N01  Dn1  v108
 BYTE   W06
 BYTE   Cn2  v127
 BYTE   W06
 BYTE   Cn1
 BYTE   N01  Gn1
 BYTE   W12
// 025   ----------------------------------------
 BYTE   W96
// 026   ----------------------------------------
 BYTE   W96
// 027   ----------------------------------------
 BYTE   W96
// 028   ----------------------------------------
 BYTE   W96
// 029   ----------------------------------------
 BYTE   W96
// 030   ----------------------------------------
 BYTE   W96
// 031   ----------------------------------------
 BYTE   W96
// 032   ----------------------------------------
 BYTE   N04  Cn1
 BYTE   N11  Cs2
 BYTE   W24
 BYTE   N04  Dn1
 BYTE   N23  As1  v088
 BYTE   W12
 BYTE   N04  Cn1  v127
 BYTE   W12
 BYTE   N04
 BYTE   W06
 BYTE   Dn1  v108
 BYTE   W06
 BYTE   Fs1  v056
 BYTE   W06
 BYTE   Cn1  v127
 BYTE   W06
 BYTE   Dn1
 BYTE   W12
 BYTE   N04
 BYTE   N11  Cs2  v116
 BYTE   W12
// 033   ----------------------------------------
 BYTE   N04  Cn1  v127
 BYTE   N11  Cs2
 BYTE   W24
 BYTE   N04  Dn1
 BYTE   N23  As1  v088
 BYTE   W12
 BYTE   N04  Cn1  v127
 BYTE   W12
 BYTE   Dn1
 BYTE   W06
 BYTE   Dn1  v108
 BYTE   W06
 BYTE   N01  Cn1  v127
 BYTE   N01  Dn1
 BYTE   W06
 BYTE   Dn1  v088
 BYTE   W06
 BYTE   Cn1  v127
 BYTE   N01  Dn1  v108
 BYTE   W06
 BYTE   Cn2  v127
 BYTE   W06
 BYTE   Cn1
 BYTE   N01  Gn1
 BYTE   W12
// 034   ----------------------------------------
 BYTE   N04  Cn1  v100
 BYTE   N11  Cs2  v116
 BYTE   W60
 BYTE   N01  Cn1  v127
 BYTE   N01  Dn1
 BYTE   W06
 BYTE   Dn1  v088
 BYTE   W06
 BYTE   Cn1  v127
 BYTE   N01  Dn1  v108
 BYTE   W06
 BYTE   Cn2  v127
 BYTE   W06
 BYTE   Cn1
 BYTE   N01  Gn1
 BYTE   W12
// 035   ----------------------------------------
 BYTE   W96
// 036   ----------------------------------------
 BYTE   W96
// 037   ----------------------------------------
 BYTE   W96
// 038   ----------------------------------------
 BYTE   W48
 BYTE   Cn1
 BYTE   W06
 BYTE   Dn1  v052
 BYTE   W06
 BYTE   Dn1  v127
 BYTE   W06
 BYTE   Dn1  v112
 BYTE   W06
 BYTE   Dn1  v124
 BYTE   W06
 BYTE   Dn1  v104
 BYTE   W06
 BYTE   Cn1  v127
 BYTE   N23  As1  v088
 BYTE   W12
// 039   ----------------------------------------
 BYTE   W96
// 040   ----------------------------------------
 BYTE   W60
 BYTE   N04  Ds2  v056
 BYTE   W06
 BYTE   Cn1  v127
 BYTE   W06
 BYTE   Dn1
 BYTE   N04  Ds2
 BYTE   W12
 BYTE   Dn1
 BYTE   W12
// 041   ----------------------------------------
 BYTE   Cn1
 BYTE   N11  Cs2
 BYTE   W24
 BYTE   N04  Dn1
 BYTE   N23  As1  v088
 BYTE   W12
 BYTE   N04  Cn1  v127
 BYTE   W12
 BYTE   Dn1
 BYTE   W06
 BYTE   Dn1  v108
 BYTE   W06
 BYTE   Cn1  v127
 BYTE   W12
 BYTE   Gn1
 BYTE   N04  Cn2
 BYTE   W12
 BYTE   Gn1
 BYTE   N04  Cn2
 BYTE   W12
// 042   ----------------------------------------
 BYTE   W24
 BYTE   Dn1
 BYTE   N11  As1  v088
 BYTE   W12
 BYTE   As1  v044
 BYTE   W12
 BYTE   N07  Cn1  v127
 BYTE   N04  Dn1
 BYTE   N23  As1  v088
 BYTE   W12
 BYTE   N07  Cn1  v127
 BYTE   N04  Dn1  v116
 BYTE   W06
 BYTE   N04
 BYTE   W04
 BYTE   N03  Dn1  v036
 BYTE   W01
 BYTE   N07  Cn1  v127
 BYTE   W03
 BYTE   N03  Dn1  v072
 BYTE   W04
 BYTE   N04  Dn1  v092
 BYTE   W05
 BYTE   N07  Cn1  v127
 BYTE   N04  Dn1  v116
 BYTE   W07
 BYTE   N05  Dn1  v020
 BYTE   W06
// 043   ----------------------------------------
 BYTE   W96
// 044   ----------------------------------------
 BYTE   N04  Cn1  v127
 BYTE   N12  As1  v088
 BYTE   N11  Cs2  v127
 BYTE   W12
 BYTE   As1  v036
 BYTE   W12
 BYTE   N04  Dn1  v127
 BYTE   N11  As1  v088
 BYTE   W12
 BYTE   N04  Cn1  v127
 BYTE   N11  As1  v044
 BYTE   W12
 BYTE   N04  Cn1  v127
 BYTE   N11  As1  v088
 BYTE   W12
 BYTE   As1  v036
 BYTE   W06
 BYTE   N01  Dn1  v088
 BYTE   W06
 BYTE   Cn1  v127
 BYTE   N01  Dn1  v108
 BYTE   W06
 BYTE   Cn2  v127
 BYTE   W06
 BYTE   Cn1
 BYTE   N01  Gn1
 BYTE   W12
// 045   ----------------------------------------
 BYTE   W60
 BYTE   Cn1
 BYTE   N01  Dn1
 BYTE   W12
 BYTE   Cn1
 BYTE   N01  Dn1  v108
 BYTE   W06
 BYTE   Cn2  v127
 BYTE   W06
 BYTE   GoTo
  POIN2 Label_12_0100421F
// 046   ----------------------------------------
 BYTE   N01  Cn1  v127
 BYTE   N01  Gn1
 BYTE   W01
 BYTE   FINE

//******************************************************//
	ALIGN 4

EtrianOdyssey3ChalkyWoodsThegis:
	BYTE	13	// NumTrks
	BYTE	0	// NumBlks
	BYTE	EtrianOdyssey3ChalkyWoodsThegis_pri	// Priority
	BYTE	EtrianOdyssey3ChalkyWoodsThegis_rev	// Reverb.
    
	POIN2	EtrianOdyssey3ChalkyWoodsThegis_grp
    
	POIN2	EtrianOdyssey3ChalkyWoodsThegis_001
	POIN2	EtrianOdyssey3ChalkyWoodsThegis_002
	POIN2	EtrianOdyssey3ChalkyWoodsThegis_003
	POIN2	EtrianOdyssey3ChalkyWoodsThegis_004
	POIN2	EtrianOdyssey3ChalkyWoodsThegis_005
	POIN2	EtrianOdyssey3ChalkyWoodsThegis_006
	POIN2	EtrianOdyssey3ChalkyWoodsThegis_007
	POIN2	EtrianOdyssey3ChalkyWoodsThegis_008
	POIN2	EtrianOdyssey3ChalkyWoodsThegis_009
	POIN2	EtrianOdyssey3ChalkyWoodsThegis_010
	POIN2	EtrianOdyssey3ChalkyWoodsThegis_011
	POIN2	EtrianOdyssey3ChalkyWoodsThegis_012
	POIN2	EtrianOdyssey3ChalkyWoodsThegis_013

	
