//Event file generated from Sappy .s format.
	#include "MPlayDef.event"

	#define	OgreBattleMarchoftheBlackQueenDoorDieRandomWizard_grp  voicegroup000
	#define	OgreBattleMarchoftheBlackQueenDoorDieRandomWizard_pri  0
	#define	OgreBattleMarchoftheBlackQueenDoorDieRandomWizard_rev  0
	#define	OgreBattleMarchoftheBlackQueenDoorDieRandomWizard_mvl  127
	#define	OgreBattleMarchoftheBlackQueenDoorDieRandomWizard_key  0
	#define	OgreBattleMarchoftheBlackQueenDoorDieRandomWizard_tbs  1
	#define	OgreBattleMarchoftheBlackQueenDoorDieRandomWizard_exg  0
	#define	OgreBattleMarchoftheBlackQueenDoorDieRandomWizard_cmp  1

	// .rodata
	//	OgreBattleMarchoftheBlackQueenDoorDieRandomWizard
	ALIGN 4


//**************** Track 1 (Midi-Chn.0) ****************//

OgreBattleMarchoftheBlackQueenDoorDieRandomWizard_001:
// 000   ----------------------------------------
 BYTE   KEYSH   OgreBattleMarchoftheBlackQueenDoorDieRandomWizard_key+0
 BYTE   TEMPO   170*OgreBattleMarchoftheBlackQueenDoorDieRandomWizard_tbs/2
 BYTE   VOICE   56
 BYTE   PAN   c_v+44
 BYTE   VOL   28*OgreBattleMarchoftheBlackQueenDoorDieRandomWizard_mvl/mxv
 BYTE   N10  Gn2  v104
 BYTE   N10  Bn2
 BYTE   W12
 BYTE   Gn2
 BYTE   N10  Bn2
 BYTE   W12
 BYTE   Gn2
 BYTE   N10  Bn2
 BYTE   W12
 BYTE   Gs2
 BYTE   N10  Cn3
 BYTE   W12
 BYTE   Gs2
 BYTE   N10  Cn3
 BYTE   W12
 BYTE   Gs2
 BYTE   N10  Cn3
 BYTE   W36
// 001   ----------------------------------------
 BYTE   W72
 BYTE   N04  An3  v096
 BYTE   N04  Fn4  v088
 BYTE   W06
 BYTE   Fn3  v104
 BYTE   N04  Cn4  v096
 BYTE   W06
 BYTE   Cn3  v100
 BYTE   N04  Gs3  v092
 BYTE   W06
 BYTE   Fn2  v084
 BYTE   N04  Cn3  v076
 BYTE   W06
// 002   ----------------------------------------
 BYTE   N10  En2  v108
 BYTE   N10  Gn2  v084
 BYTE   N10  Bn3
 BYTE   W12
 BYTE   En2  v108
 BYTE   N10  Gn2  v084
 BYTE   N10  Bn3
 BYTE   W12
 BYTE   En2  v112
 BYTE   N10  Gn2  v088
 BYTE   N10  Bn3  v084
 BYTE   W12
 BYTE   Fn2  v112
 BYTE   N10  Gs2  v088
 BYTE   N10  Cn4  v084
 BYTE   W12
 BYTE   Fn2  v112
 BYTE   N10  Gs2  v088
 BYTE   N10  Cn4  v084
 BYTE   W12
 BYTE   Fn2  v112
 BYTE   N10  Gs2  v088
 BYTE   N10  Cn4  v084
 BYTE   W12
 BYTE   Fs2  v112
 BYTE   N10  An2  v088
 BYTE   N10  Cs4  v084
 BYTE   W12
 BYTE   Fs2  v116
 BYTE   N10  An2  v088
 BYTE   N10  Cs4  v084
 BYTE   W12
// 003   ----------------------------------------
 BYTE   Fs2  v116
 BYTE   N10  An2  v088
 BYTE   N10  Cs4  v084
 BYTE   W12
 BYTE   Gn2  v116
 BYTE   N10  As2  v112
 BYTE   N10  Dn4  v084
 BYTE   W12
 BYTE   Gn2  v116
 BYTE   N10  As2  v112
 BYTE   N10  Dn4  v084
 BYTE   W12
 BYTE   Gn2  v116
 BYTE   N10  As2  v112
 BYTE   N10  Dn4  v084
 BYTE   W12
 BYTE   Gs2  v120
 BYTE   N10  Bn2  v116
 BYTE   N10  Ds4  v084
 BYTE   W12
 BYTE   Gs2  v096
 BYTE   N10  Bn2  v092
 BYTE   N10  Ds4  v068
 BYTE   W12
 BYTE   TEMPO   162*OgreBattleMarchoftheBlackQueenDoorDieRandomWizard_tbs/2
 BYTE   An2  v120
 BYTE   N10  Cn3  v116
 BYTE   N10  En4  v084
 BYTE   W12
 BYTE   An2  v096
 BYTE   N10  Cn3  v092
 BYTE   N10  En4  v068
 BYTE   W11
 BYTE   TEMPO   170*OgreBattleMarchoftheBlackQueenDoorDieRandomWizard_tbs/2
 BYTE   W01
// 004   ----------------------------------------
Label_0_015594C2:
 BYTE   N09  Bn3  v084
 BYTE   W12
 BYTE   Bn3  v120
 BYTE   W12
 BYTE   Bn3  v064
 BYTE   W12
 BYTE   Bn3  v096
 BYTE   W12
 BYTE   Bn3  v120
 BYTE   W12
 BYTE   Bn3  v060
 BYTE   W12
 BYTE   N04  Bn3  v080
 BYTE   W06
 BYTE   N04
 BYTE   W06
 BYTE   N09  Bn3  v084
 BYTE   W12
 BYTE   PEND 
// 005   ----------------------------------------
Label_0_015594E0:
 BYTE   N09  Cn4  v096
 BYTE   W12
 BYTE   Cn4  v120
 BYTE   W12
 BYTE   Cn4  v060
 BYTE   W12
 BYTE   Cn4  v096
 BYTE   W12
 BYTE   Cn4  v120
 BYTE   W12
 BYTE   Cn4  v060
 BYTE   W12
 BYTE   N04  Cn4  v080
 BYTE   W06
 BYTE   N04
 BYTE   W06
 BYTE   N09  Cn4  v096
 BYTE   W12
 BYTE   PEND 
 BYTE   PATT
  POIN2 Label_0_015594C2
 BYTE   PATT
  POIN2 Label_0_015594E0
 BYTE   PATT
  POIN2 Label_0_015594C2
 BYTE   PATT
  POIN2 Label_0_015594E0
 BYTE   PATT
  POIN2 Label_0_015594C2
 BYTE   PATT
  POIN2 Label_0_015594E0
// 006   ----------------------------------------
 BYTE   W96
// 007   ----------------------------------------
 BYTE   N04  As3  v084
 BYTE   W06
 BYTE   As3  v096
 BYTE   W06
 BYTE   N10  As3  v112
 BYTE   W24
 BYTE   N04  As3  v092
 BYTE   W06
 BYTE   N04
 BYTE   W06
 BYTE   N10  As3  v116
 BYTE   W24
 BYTE   N04  As3  v096
 BYTE   W06
 BYTE   N04
 BYTE   W06
 BYTE   N10  As3  v104
 BYTE   W12
// 008   ----------------------------------------
 BYTE   W96
// 009   ----------------------------------------
 BYTE   N04  Cs4  v084
 BYTE   W06
 BYTE   Cs4  v096
 BYTE   W06
 BYTE   N10  Cs4  v112
 BYTE   W24
 BYTE   N04  Cs4  v092
 BYTE   W06
 BYTE   N04
 BYTE   W06
 BYTE   N10  Cs4  v116
 BYTE   W24
 BYTE   N04  Cs4  v096
 BYTE   W06
 BYTE   N04
 BYTE   W06
 BYTE   N10  Cs4  v104
 BYTE   W12
// 010   ----------------------------------------
 BYTE   W96
// 011   ----------------------------------------
 BYTE   W96
// 012   ----------------------------------------
 BYTE   W96
// 013   ----------------------------------------
 BYTE   W96
// 014   ----------------------------------------
 BYTE   W96
// 015   ----------------------------------------
 BYTE   W96
// 016   ----------------------------------------
 BYTE   W96
// 017   ----------------------------------------
 BYTE   W96
// 018   ----------------------------------------
 BYTE   W96
// 019   ----------------------------------------
 BYTE   W96
// 020   ----------------------------------------
 BYTE   W96
// 021   ----------------------------------------
 BYTE   W96
// 022   ----------------------------------------
 BYTE   N04  Cn4  v108
 BYTE   W06
 BYTE   Ds4
 BYTE   W06
 BYTE   N07  Fs4  v120
 BYTE   W12
 BYTE   Ds4
 BYTE   W12
 BYTE   N04  An3
 BYTE   W06
 BYTE   Cn4
 BYTE   W06
 BYTE   N09  Ds4
 BYTE   W12
 BYTE   N07  Cn4
 BYTE   W12
 BYTE   N04  Fs3
 BYTE   W06
 BYTE   An3  v116
 BYTE   W06
 BYTE   N09  Cn4  v120
 BYTE   W12
// 023   ----------------------------------------
 BYTE   An3
 BYTE   W12
 BYTE   N04  Ds3
 BYTE   W06
 BYTE   Fs3  v116
 BYTE   W06
 BYTE   N09  An3
 BYTE   W12
 BYTE   Fs3
 BYTE   W12
 BYTE   N04  Cn3
 BYTE   W06
 BYTE   Ds3
 BYTE   W06
 BYTE   N07  Fs3
 BYTE   W12
 BYTE   N08  Ds3  v120
 BYTE   W12
 BYTE   N04  Cn3  v108
 BYTE   W06
 BYTE   Cn3  v112
 BYTE   W06
// 024   ----------------------------------------
 BYTE   Cs4  v108
 BYTE   W06
 BYTE   En4
 BYTE   W06
 BYTE   N07  Gn4  v120
 BYTE   W12
 BYTE   En4
 BYTE   W12
 BYTE   N04  As3
 BYTE   W06
 BYTE   Cs4
 BYTE   W06
 BYTE   N09  En4
 BYTE   W12
 BYTE   N07  Cs4
 BYTE   W12
 BYTE   N04  Gn3
 BYTE   W06
 BYTE   As3  v116
 BYTE   W06
 BYTE   N09  Cs4  v120
 BYTE   W12
// 025   ----------------------------------------
 BYTE   As3
 BYTE   W12
 BYTE   N04  En3
 BYTE   W06
 BYTE   Gn3  v116
 BYTE   W06
 BYTE   N09  As3
 BYTE   W12
 BYTE   Gn3
 BYTE   W12
 BYTE   N04  Cs3
 BYTE   W06
 BYTE   En3
 BYTE   W06
 BYTE   N07  Gn3
 BYTE   W12
 BYTE   N08  En3  v120
 BYTE   W12
 BYTE   N04  Cs3  v108
 BYTE   W06
 BYTE   Cs3  v112
 BYTE   W06
// 026   ----------------------------------------
 BYTE   N07  As2  v048
 BYTE   W12
 BYTE   Cs3
 BYTE   W12
 BYTE   As2  v064
 BYTE   W12
 BYTE   N07
 BYTE   W12
 BYTE   En3  v080
 BYTE   W12
 BYTE   N07
 BYTE   W12
 BYTE   Cs3
 BYTE   W12
 BYTE   N07
 BYTE   W12
// 027   ----------------------------------------
 BYTE   Gn3  v100
 BYTE   W12
 BYTE   Gn3  v092
 BYTE   W12
 BYTE   En3  v088
 BYTE   W12
 BYTE   En3  v092
 BYTE   W12
 BYTE   As3  v108
 BYTE   W12
 BYTE   As3  v100
 BYTE   W12
 BYTE   Gn3
 BYTE   W12
 BYTE   N07
 BYTE   W12
// 028   ----------------------------------------
 BYTE   N04  Fs4
 BYTE   W06
 BYTE   Fs4  v088
 BYTE   W06
 BYTE   N08  Fs4  v100
 BYTE   W24
 BYTE   N04
 BYTE   W06
 BYTE   Fs4  v096
 BYTE   W06
 BYTE   N08  Fs4  v100
 BYTE   W24
 BYTE   N04
 BYTE   W06
 BYTE   N04
 BYTE   W06
 BYTE   N08
 BYTE   W12
// 029   ----------------------------------------
 BYTE   W12
 BYTE   N04
 BYTE   W06
 BYTE   N04
 BYTE   W06
 BYTE   N08
 BYTE   W24
 BYTE   N04
 BYTE   W06
 BYTE   Dn4
 BYTE   W06
 BYTE   Bn3
 BYTE   W06
 BYTE   Fs3
 BYTE   W06
 BYTE   N09  Ds3
 BYTE   W24
 BYTE   PATT
  POIN2 Label_0_015594C2
// 030   ----------------------------------------
 BYTE   GoTo
  POIN2 Label_0_015594E0
 BYTE   FINE

//**************** Track 2 (Midi-Chn.1) ****************//

OgreBattleMarchoftheBlackQueenDoorDieRandomWizard_002:
// 000   ----------------------------------------
 BYTE   KEYSH   OgreBattleMarchoftheBlackQueenDoorDieRandomWizard_key+0
 BYTE   VOICE   59
 BYTE   PAN   c_v-15
 BYTE   VOL   35*OgreBattleMarchoftheBlackQueenDoorDieRandomWizard_mvl/mxv
 BYTE   N12  En0  v080
 BYTE   N12  En1
 BYTE   W12
 BYTE   En0
 BYTE   N12  En1
 BYTE   W12
 BYTE   En0
 BYTE   N12  En1
 BYTE   W12
 BYTE   Fn0
 BYTE   N12  Fn1
 BYTE   W12
 BYTE   Fn0
 BYTE   N12  Fn1
 BYTE   W12
 BYTE   Fn0
 BYTE   N12  Fn1
 BYTE   W36
// 001   ----------------------------------------
 BYTE   W96
// 002   ----------------------------------------
 BYTE   N10  En1
 BYTE   W12
 BYTE   N10
 BYTE   W12
 BYTE   N10
 BYTE   W12
 BYTE   Fn1  v084
 BYTE   W12
 BYTE   N10
 BYTE   W12
 BYTE   Fn1  v080
 BYTE   W12
 BYTE   Fs1
 BYTE   W12
 BYTE   N10
 BYTE   W12
// 003   ----------------------------------------
 BYTE   N10
 BYTE   W12
 BYTE   Gn1
 BYTE   W12
 BYTE   N10
 BYTE   W12
 BYTE   N10
 BYTE   W12
 BYTE   Gs1
 BYTE   W12
 BYTE   N10
 BYTE   W12
 BYTE   An1  v084
 BYTE   W12
 BYTE   N10
 BYTE   W12
// 004   ----------------------------------------
Label_1_01559693:
 BYTE   N06  En1  v127
 BYTE   W24
 BYTE   Bn0  v116
 BYTE   W12
 BYTE   En1  v127
 BYTE   W24
 BYTE   Bn0  v120
 BYTE   W12
 BYTE   N04  En1  v124
 BYTE   W06
 BYTE   N04
 BYTE   W06
 BYTE   Bn0  v100
 BYTE   W12
 BYTE   PEND 
// 005   ----------------------------------------
Label_1_015596AA:
 BYTE   N06  Fn1  v124
 BYTE   W24
 BYTE   Cn1  v116
 BYTE   W12
 BYTE   Fn1  v127
 BYTE   W24
 BYTE   Cn1  v116
 BYTE   W12
 BYTE   N04  Fn1  v127
 BYTE   W06
 BYTE   N04
 BYTE   W06
 BYTE   Fn1  v108
 BYTE   W12
 BYTE   PEND 
 BYTE   PATT
  POIN2 Label_1_01559693
 BYTE   PATT
  POIN2 Label_1_015596AA
 BYTE   PATT
  POIN2 Label_1_01559693
 BYTE   PATT
  POIN2 Label_1_015596AA
 BYTE   PATT
  POIN2 Label_1_01559693
 BYTE   PATT
  POIN2 Label_1_015596AA
// 006   ----------------------------------------
 BYTE   W02
 BYTE   N90  En1  v084
 BYTE   W92
 BYTE   W02
// 007   ----------------------------------------
 BYTE   W96
// 008   ----------------------------------------
 BYTE   N92  En1  v080
 BYTE   W96
// 009   ----------------------------------------
 BYTE   W96
// 010   ----------------------------------------
 BYTE   TIE  Dn1  v084
 BYTE   W96
// 011   ----------------------------------------
 BYTE   W84
 BYTE   W02
 BYTE   EOT
 BYTE   W10
// 012   ----------------------------------------
 BYTE   N10  Dn1  v088
 BYTE   W12
 BYTE   N10
 BYTE   W84
// 013   ----------------------------------------
 BYTE   W96
// 014   ----------------------------------------
 BYTE   TIE  Ds1  v100
 BYTE   W96
// 015   ----------------------------------------
 BYTE   W84
 BYTE   W02
 BYTE   EOT
 BYTE   W10
// 016   ----------------------------------------
 BYTE   N10  Ds1  v104
 BYTE   W12
 BYTE   Ds1  v108
 BYTE   W84
// 017   ----------------------------------------
 BYTE   W96
// 018   ----------------------------------------
 BYTE   TIE  En1
 BYTE   W96
// 019   ----------------------------------------
 BYTE   W84
 BYTE   W02
 BYTE   EOT
 BYTE   W10
// 020   ----------------------------------------
 BYTE   N10  En1  v116
 BYTE   W12
 BYTE   N10
 BYTE   W84
// 021   ----------------------------------------
 BYTE   W96
// 022   ----------------------------------------
 BYTE   N96  Cn1  v096
 BYTE   W96
// 023   ----------------------------------------
 BYTE   W24
 BYTE   N24  Cn1  v088
 BYTE   W24
 BYTE   Cn1  v096
 BYTE   W24
 BYTE   N24
 BYTE   W24
// 024   ----------------------------------------
 BYTE   N96  Cs1
 BYTE   W96
// 025   ----------------------------------------
 BYTE   W24
 BYTE   N24  Cs1  v088
 BYTE   W24
 BYTE   Cs1  v096
 BYTE   W24
 BYTE   N24
 BYTE   W24
// 026   ----------------------------------------
 BYTE   W96
// 027   ----------------------------------------
 BYTE   W96
// 028   ----------------------------------------
 BYTE   W96
// 029   ----------------------------------------
 BYTE   W96
 BYTE   PATT
  POIN2 Label_1_01559693
// 030   ----------------------------------------
 BYTE   GoTo
  POIN2 Label_1_015596AA
 BYTE   FINE

//**************** Track 3 (Midi-Chn.2) ****************//

OgreBattleMarchoftheBlackQueenDoorDieRandomWizard_003:
// 000   ----------------------------------------
 BYTE   KEYSH   OgreBattleMarchoftheBlackQueenDoorDieRandomWizard_key+0
 BYTE   VOICE   58
 BYTE   PAN   c_v+13
 BYTE   VOL   32*OgreBattleMarchoftheBlackQueenDoorDieRandomWizard_mvl/mxv
 BYTE   W96
// 001   ----------------------------------------
 BYTE   W96
// 002   ----------------------------------------
 BYTE   W96
// 003   ----------------------------------------
 BYTE   W96
// 004   ----------------------------------------
Label_2_01559750:
 BYTE   N90  En1  v096
 BYTE   N90  En2  v112
 BYTE   W96
 BYTE   PEND 
// 005   ----------------------------------------
Label_2_01559758:
 BYTE   N90  Fn1  v096
 BYTE   N90  Fn2  v112
 BYTE   W96
 BYTE   PEND 
 BYTE   PATT
  POIN2 Label_2_01559750
 BYTE   PATT
  POIN2 Label_2_01559758
// 006   ----------------------------------------
 BYTE   N90  Gn1  v096
 BYTE   N90  Gn2  v116
 BYTE   W96
// 007   ----------------------------------------
 BYTE   Gs1  v100
 BYTE   N90  Gs2  v116
 BYTE   W96
// 008   ----------------------------------------
 BYTE   Bn1  v104
 BYTE   N90  Bn2  v124
 BYTE   W96
// 009   ----------------------------------------
 BYTE   Cn2  v108
 BYTE   N90  Cn3  v124
 BYTE   W96
// 010   ----------------------------------------
 BYTE   Gn2  v120
 BYTE   W96
// 011   ----------------------------------------
 BYTE   W96
// 012   ----------------------------------------
 BYTE   En1  v108
 BYTE   W96
// 013   ----------------------------------------
 BYTE   W96
// 014   ----------------------------------------
 BYTE   TIE  Dn2  v100
 BYTE   W96
// 015   ----------------------------------------
 BYTE   W84
 BYTE   W02
 BYTE   EOT
 BYTE   W10
// 016   ----------------------------------------
 BYTE   N10
 BYTE   W12
 BYTE   N12
 BYTE   W84
// 017   ----------------------------------------
 BYTE   W96
// 018   ----------------------------------------
 BYTE   TIE  Ds2  v116
 BYTE   W96
// 019   ----------------------------------------
 BYTE   W84
 BYTE   W02
 BYTE   EOT
 BYTE   W10
// 020   ----------------------------------------
 BYTE   N10
 BYTE   W12
 BYTE   N12
 BYTE   W84
// 021   ----------------------------------------
 BYTE   W96
// 022   ----------------------------------------
 BYTE   TIE  En2  v127
 BYTE   W96
// 023   ----------------------------------------
 BYTE   W84
 BYTE   W02
 BYTE   EOT
 BYTE   W10
// 024   ----------------------------------------
 BYTE   N10
 BYTE   W12
 BYTE   N12
 BYTE   W84
// 025   ----------------------------------------
 BYTE   W96
// 026   ----------------------------------------
 BYTE   N96  Cn2  v116
 BYTE   W96
// 027   ----------------------------------------
 BYTE   W24
 BYTE   N24  Cn2  v096
 BYTE   W24
 BYTE   Cn2  v112
 BYTE   W24
 BYTE   Cn2  v116
 BYTE   W24
// 028   ----------------------------------------
 BYTE   N96  Cs2  v120
 BYTE   W96
// 029   ----------------------------------------
 BYTE   W24
 BYTE   N24  Cs2  v100
 BYTE   W24
 BYTE   Cs2  v116
 BYTE   W24
 BYTE   Cs2  v120
 BYTE   W24
// 030   ----------------------------------------
 BYTE   W96
// 031   ----------------------------------------
 BYTE   W96
// 032   ----------------------------------------
 BYTE   W96
// 033   ----------------------------------------
 BYTE   W96
 BYTE   PATT
  POIN2 Label_2_01559750
// 034   ----------------------------------------
 BYTE   GoTo
  POIN2 Label_2_01559758
 BYTE   FINE

//**************** Track 4 (Midi-Chn.3) ****************//

OgreBattleMarchoftheBlackQueenDoorDieRandomWizard_004:
// 000   ----------------------------------------
 BYTE   KEYSH   OgreBattleMarchoftheBlackQueenDoorDieRandomWizard_key+0
 BYTE   VOICE   59
 BYTE   PAN   c_v+27
 BYTE   VOL   32*OgreBattleMarchoftheBlackQueenDoorDieRandomWizard_mvl/mxv
 BYTE   W72
 BYTE   N07  Fn2  v100
 BYTE   W10
 BYTE   N04
 BYTE   W08
 BYTE   N04
 BYTE   W06
// 001   ----------------------------------------
 BYTE   N76  Cn3
 BYTE   W96
// 002   ----------------------------------------
 BYTE   N36  Bn2
 BYTE   W36
 BYTE   Gs2
 BYTE   W36
 BYTE   Fs2
 BYTE   W24
// 003   ----------------------------------------
 BYTE   W12
 BYTE   Dn2
 BYTE   W36
 BYTE   N21  Bn1
 BYTE   W24
 BYTE   An1
 BYTE   W24
// 004   ----------------------------------------
 BYTE   N92  En1
 BYTE   W96
// 005   ----------------------------------------
Label_3_01559806:
 BYTE   N92  Fn1  v096
 BYTE   W96
// 006   ----------------------------------------
 BYTE   En1
 BYTE   W96
// 007   ----------------------------------------
 BYTE   Fn1
 BYTE   W96
// 008   ----------------------------------------
 BYTE   Gn1  v104
 BYTE   W96
// 009   ----------------------------------------
 BYTE   Gs1  v100
 BYTE   W96
// 010   ----------------------------------------
 BYTE   Bn1  v108
 BYTE   W96
// 011   ----------------------------------------
 BYTE   Cn2  v104
 BYTE   W96
// 012   ----------------------------------------
 BYTE   En2
 BYTE   W96
// 013   ----------------------------------------
 BYTE   N24  Gn2
 BYTE   W24
 BYTE   En2
 BYTE   W24
 BYTE   Cs2
 BYTE   W24
 BYTE   As1
 BYTE   W24
// 014   ----------------------------------------
 BYTE   N92  Gn1  v084
 BYTE   W96
// 015   ----------------------------------------
 BYTE   N24  As1  v104
 BYTE   W24
 BYTE   Cs2
 BYTE   W24
 BYTE   En2
 BYTE   W24
 BYTE   Gn2
 BYTE   W24
// 016   ----------------------------------------
 BYTE   W96
// 017   ----------------------------------------
 BYTE   W96
// 018   ----------------------------------------
 BYTE   W96
// 019   ----------------------------------------
 BYTE   W96
// 020   ----------------------------------------
 BYTE   W96
// 021   ----------------------------------------
 BYTE   W96
// 022   ----------------------------------------
 BYTE   W96
// 023   ----------------------------------------
 BYTE   W96
// 024   ----------------------------------------
 BYTE   W96
// 025   ----------------------------------------
 BYTE   W96
// 026   ----------------------------------------
 BYTE   W96
// 027   ----------------------------------------
 BYTE   W96
// 028   ----------------------------------------
 BYTE   W96
// 029   ----------------------------------------
 BYTE   W96
// 030   ----------------------------------------
 BYTE   W96
// 031   ----------------------------------------
 BYTE   W96
// 032   ----------------------------------------
 BYTE   N21  As1  v068
 BYTE   W24
 BYTE   Gn1
 BYTE   W24
 BYTE   Cs2  v080
 BYTE   W24
 BYTE   As1
 BYTE   W24
// 033   ----------------------------------------
 BYTE   En2  v092
 BYTE   W24
 BYTE   Cs2
 BYTE   W24
 BYTE   Gn2  v104
 BYTE   W24
 BYTE   En2
 BYTE   W23
 BYTE   W01
// 034   ----------------------------------------
 BYTE   N80  Bn2  v100
 BYTE   W84
 BYTE   N04  Ds3  v096
 BYTE   W06
 BYTE   Fs3  v092
 BYTE   W06
// 035   ----------------------------------------
 BYTE   N44  Bn3  v100
 BYTE   W48
 BYTE   N28  Bn2
 BYTE   W44
 BYTE   W02
 BYTE   W02
// 036   ----------------------------------------
 BYTE   N92  En1
 BYTE   W96
// 037   ----------------------------------------
 BYTE   GoTo
  POIN2 Label_3_01559806
 BYTE   FINE

//**************** Track 5 (Midi-Chn.4) ****************//

OgreBattleMarchoftheBlackQueenDoorDieRandomWizard_005:
// 000   ----------------------------------------
 BYTE   KEYSH   OgreBattleMarchoftheBlackQueenDoorDieRandomWizard_key+0
 BYTE   VOICE   49
 BYTE   PAN   c_v+0
 BYTE   VOL   31*OgreBattleMarchoftheBlackQueenDoorDieRandomWizard_mvl/mxv
 BYTE   W96
// 001   ----------------------------------------
 BYTE   W72
 BYTE   N04  Fn4  v096
 BYTE   W06
 BYTE   Cn4  v108
 BYTE   W06
 BYTE   Gs3
 BYTE   W06
 BYTE   Cn3  v084
 BYTE   W06
// 002   ----------------------------------------
 BYTE   N08  En3  v080
 BYTE   N08  Bn3  v100
 BYTE   W12
 BYTE   En3  v084
 BYTE   N08  Bn3  v100
 BYTE   W12
 BYTE   En3  v084
 BYTE   N08  Bn3  v100
 BYTE   W12
 BYTE   Fn3  v084
 BYTE   N08  Cn4  v100
 BYTE   W12
 BYTE   Fn3  v084
 BYTE   N08  Cn4  v100
 BYTE   W12
 BYTE   Fn3  v088
 BYTE   N08  Cn4  v100
 BYTE   W12
 BYTE   Fs3  v088
 BYTE   N08  Cs4  v100
 BYTE   W12
 BYTE   Fs3  v088
 BYTE   N08  Cs4  v100
 BYTE   W12
// 003   ----------------------------------------
 BYTE   Fs3  v092
 BYTE   N08  Cs4  v100
 BYTE   W12
 BYTE   Gn3  v092
 BYTE   N08  Dn4  v100
 BYTE   W12
 BYTE   Gn3  v092
 BYTE   N08  Dn4  v100
 BYTE   W12
 BYTE   Gn3  v092
 BYTE   N08  Dn4  v100
 BYTE   W12
 BYTE   Gs3  v096
 BYTE   N08  Ds4  v100
 BYTE   W12
 BYTE   Gs3  v076
 BYTE   N08  Ds4  v080
 BYTE   W12
 BYTE   N06  An3  v108
 BYTE   N06  En4  v100
 BYTE   W12
 BYTE   An3  v084
 BYTE   N06  En4  v080
 BYTE   W12
// 004   ----------------------------------------
Label_4_015598F0:
 BYTE   N08  Bn3  v088
 BYTE   N08  Gn4  v108
 BYTE   W12
 BYTE   N04  Bn3  v072
 BYTE   N04  Gn4  v084
 BYTE   W06
 BYTE   Bn3  v072
 BYTE   N04  Gn4  v084
 BYTE   W06
 BYTE   N08  Bn3  v080
 BYTE   N08  Gn4  v096
 BYTE   W12
 BYTE   Bn3  v088
 BYTE   N08  Gn4  v108
 BYTE   W12
 BYTE   N04  Bn3  v072
 BYTE   N04  Gn4  v084
 BYTE   W06
 BYTE   Bn3  v072
 BYTE   N04  Gn4  v084
 BYTE   W06
 BYTE   N08  Bn3  v080
 BYTE   N08  Gn4  v096
 BYTE   W12
 BYTE   N04  Bn3  v080
 BYTE   N04  Gn4  v096
 BYTE   W06
 BYTE   Bn3  v080
 BYTE   N04  Gn4  v100
 BYTE   W06
 BYTE   N08  Bn3  v084
 BYTE   N08  Gn4  v100
 BYTE   W12
 BYTE   PEND 
// 005   ----------------------------------------
Label_4_0155993A:
 BYTE   N08  Cn4  v096
 BYTE   N08  Gs4  v116
 BYTE   W12
 BYTE   N04  Cn4  v068
 BYTE   N04  Gs4  v084
 BYTE   W06
 BYTE   Cn4  v068
 BYTE   N04  Gs4  v084
 BYTE   W06
 BYTE   N08  Cn4  v080
 BYTE   N08  Gs4  v096
 BYTE   W12
 BYTE   Cn4
 BYTE   N08  Gs4  v116
 BYTE   W12
 BYTE   N04  Cn4  v068
 BYTE   N04  Gs4  v080
 BYTE   W06
 BYTE   Cn4  v068
 BYTE   N04  Gs4  v080
 BYTE   W06
 BYTE   N08  Cn4  v076
 BYTE   N08  Gs4  v092
 BYTE   W12
 BYTE   N04  Cn4  v072
 BYTE   N04  Gs4  v084
 BYTE   W06
 BYTE   Cn4  v072
 BYTE   N04  Gs4  v088
 BYTE   W06
 BYTE   N08  Cn4  v076
 BYTE   N08  Gs4  v092
 BYTE   W12
 BYTE   PEND 
 BYTE   PATT
  POIN2 Label_4_015598F0
 BYTE   PATT
  POIN2 Label_4_0155993A
 BYTE   PATT
  POIN2 Label_4_015598F0
 BYTE   PATT
  POIN2 Label_4_0155993A
// 006   ----------------------------------------
 BYTE   N08  Bn3  v088
 BYTE   N08  Gn4  v108
 BYTE   W12
 BYTE   N02  Bn3  v076
 BYTE   N02  Gn4  v092
 BYTE   W06
 BYTE   Bn3  v076
 BYTE   N02  Gn4  v092
 BYTE   W06
 BYTE   N06  Bn3  v080
 BYTE   N06  Gn4  v096
 BYTE   W12
 BYTE   N08  Bn3  v088
 BYTE   N08  Gn4  v108
 BYTE   W12
 BYTE   N04  Bn3  v072
 BYTE   N04  Gn4  v084
 BYTE   W06
 BYTE   Bn3  v072
 BYTE   N04  Gn4  v084
 BYTE   W06
 BYTE   N08  Bn3  v080
 BYTE   N08  Gn4  v096
 BYTE   W12
 BYTE   N04  Bn3  v080
 BYTE   N04  Gn4  v096
 BYTE   W06
 BYTE   Bn3  v080
 BYTE   N04  Gn4  v100
 BYTE   W06
 BYTE   N08  Bn3  v084
 BYTE   N08  Gn4  v100
 BYTE   W12
// 007   ----------------------------------------
 BYTE   Cn4  v096
 BYTE   N08  Gs4  v116
 BYTE   W12
 BYTE   N04  Cn4  v068
 BYTE   N04  Gs4  v084
 BYTE   W06
 BYTE   Cn4  v068
 BYTE   N04  Gs4  v084
 BYTE   W06
 BYTE   N08  Cn4  v080
 BYTE   N08  Gs4  v096
 BYTE   W12
 BYTE   Cn4
 BYTE   N08  Gs4  v116
 BYTE   W12
 BYTE   N04  Cn4  v068
 BYTE   N04  Gs4  v080
 BYTE   W06
 BYTE   Cn4  v068
 BYTE   N04  Gs4  v080
 BYTE   W06
 BYTE   N08  Cn4  v076
 BYTE   N08  Gs4  v092
 BYTE   W12
 BYTE   N04  Cn4  v072
 BYTE   N04  Gs4  v084
 BYTE   W06
 BYTE   Cn4  v072
 BYTE   N04  Gs4  v088
 BYTE   W06
 BYTE   N08  Cn4  v076
 BYTE   N08  Gs4  v092
 BYTE   W11
 BYTE   W01
// 008   ----------------------------------------
 BYTE   N09  Gn2  v112
 BYTE   N09  Cs3
 BYTE   W01
 BYTE   W01
 BYTE   W06
 BYTE   W01
 BYTE   W01
 BYTE   W01
 BYTE   W01
 BYTE   As2  v124
 BYTE   N09  En3
 BYTE   W01
 BYTE   W01
 BYTE   W06
 BYTE   W01
 BYTE   W01
 BYTE   W01
 BYTE   W01
 BYTE   Gn2
 BYTE   N09  Cs3
 BYTE   W01
 BYTE   W01
 BYTE   W06
 BYTE   W01
 BYTE   W01
 BYTE   W01
 BYTE   W01
 BYTE   N09
 BYTE   N09  Gn3
 BYTE   W01
 BYTE   W01
 BYTE   W05
 BYTE   W01
 BYTE   W01
 BYTE   W01
 BYTE   W01
 BYTE   W01
 BYTE   Gn2
 BYTE   N09  Cs3
 BYTE   W01
 BYTE   W01
 BYTE   W06
 BYTE   W01
 BYTE   W01
 BYTE   W01
 BYTE   W01
 BYTE   TIE  En3  v112
 BYTE   TIE  As3
 BYTE   W01
 BYTE   W01
 BYTE   W01
 BYTE   W01
 BYTE   W01
 BYTE   W30
 BYTE   W01
// 009   ----------------------------------------
Label_4_01559A6B:
 BYTE   W36
 BYTE   W02
 BYTE   W01
 BYTE   W01
 BYTE   W02
 BYTE   W01
 BYTE   W01
 BYTE   W02
 BYTE   W01
 BYTE   W01
 BYTE   W02
 BYTE   W01
 BYTE   W01
 BYTE   W02
 BYTE   W01
 BYTE   W01
 BYTE   W02
 BYTE   W01
 BYTE   W01
 BYTE   W02
 BYTE   W01
 BYTE   W01
 BYTE   W02
 BYTE   W01
 BYTE   W01
 BYTE   PEND 
 BYTE   EOT
 BYTE   En3  v070
 BYTE   W01
 BYTE   W02
 BYTE   W01
 BYTE   N04  Gn3  v092
 BYTE   N04  Cs4
 BYTE   W06
 BYTE   As3
 BYTE   N04  En4
 BYTE   W06
 BYTE   Cs4
 BYTE   N04  Gn4
 BYTE   W06
 BYTE   En4  v084
 BYTE   N04  As4
 BYTE   W05
 BYTE   W01
// 010   ----------------------------------------
 BYTE   N09  Gn2  v112
 BYTE   N09  Cs3
 BYTE   W01
 BYTE   W01
 BYTE   W06
 BYTE   W01
 BYTE   W01
 BYTE   W01
 BYTE   W01
 BYTE   As2  v124
 BYTE   N09  En3
 BYTE   W01
 BYTE   W01
 BYTE   W06
 BYTE   W01
 BYTE   W01
 BYTE   W01
 BYTE   W01
 BYTE   Gn2
 BYTE   N09  Cs3
 BYTE   W01
 BYTE   W01
 BYTE   W06
 BYTE   W01
 BYTE   W01
 BYTE   W01
 BYTE   W01
 BYTE   N09
 BYTE   N09  Gn3
 BYTE   W01
 BYTE   W01
 BYTE   W05
 BYTE   W01
 BYTE   W01
 BYTE   W01
 BYTE   W01
 BYTE   W01
 BYTE   As2
 BYTE   N09  En3
 BYTE   W01
 BYTE   W01
 BYTE   W06
 BYTE   W01
 BYTE   W01
 BYTE   W01
 BYTE   W01
 BYTE   TIE  Gn3  v112
 BYTE   TIE  Cs4
 BYTE   W01
 BYTE   W01
 BYTE   W01
 BYTE   W01
 BYTE   W01
 BYTE   W30
 BYTE   W01
 BYTE   PATT
  POIN2 Label_4_01559A6B
// 011   ----------------------------------------
 BYTE   EOT
 BYTE   Gn3  v073
 BYTE   W01
 BYTE   W02
 BYTE   W01
 BYTE   N04  Cs5  v092
 BYTE   N04  En5
 BYTE   W06
 BYTE   As4
 BYTE   N04  Cs5
 BYTE   W06
 BYTE   Gn4  v084
 BYTE   N04  As4
 BYTE   W06
 BYTE   En4  v076
 BYTE   N04  Gn4
 BYTE   W04
 BYTE   W02
Label_4_01559B01:
 BYTE   N08  Fn4  v080
 BYTE   N08  Gs4  v100
 BYTE   W12
 BYTE   Fn4  v028
 BYTE   N08  Gs4  v036
 BYTE   W12
 BYTE   Fn4  v032
 BYTE   N08  Gs4  v040
 BYTE   W12
 BYTE   Fs4  v076
 BYTE   N08  An4  v096
 BYTE   W12
 BYTE   Fs4  v028
 BYTE   N08  An4  v036
 BYTE   W12
 BYTE   Fs4  v032
 BYTE   N08  An4  v040
 BYTE   W12
// 012   ----------------------------------------
 BYTE   Ds4  v076
 BYTE   N08  Fs4  v096
 BYTE   W12
 BYTE   Ds4  v024
 BYTE   N08  Fs4  v032
 BYTE   W12
 BYTE   PEND 
 BYTE   Ds4
 BYTE   N08  Fs4  v040
 BYTE   W12
 BYTE   En4  v076
 BYTE   N08  Gn4  v096
 BYTE   W12
 BYTE   En4  v028
 BYTE   N08  Gn4  v032
 BYTE   W12
 BYTE   En4
 BYTE   N08  Gn4  v040
 BYTE   W12
 BYTE   Cs4  v076
 BYTE   N08  En4  v096
 BYTE   W12
 BYTE   Cs4  v028
 BYTE   N08  En4  v036
 BYTE   W12
// 013   ----------------------------------------
 BYTE   Dn4  v080
 BYTE   N08  Fn4  v100
 BYTE   W12
 BYTE   Dn4  v028
 BYTE   N08  Fn4  v036
 BYTE   W12
 BYTE   PATT
  POIN2 Label_4_01559B01
// 014   ----------------------------------------
 BYTE   N08  Ds4  v032
 BYTE   N08  Fs4  v040
 BYTE   W12
 BYTE   En4  v076
 BYTE   N08  Gn4  v096
 BYTE   W12
 BYTE   En4  v028
 BYTE   N08  Gn4  v032
 BYTE   W12
 BYTE   En4
 BYTE   N08  Gn4  v040
 BYTE   W12
 BYTE   An4  v076
 BYTE   N08  Cn5  v096
 BYTE   W12
 BYTE   An4  v028
 BYTE   N08  Cn5  v036
 BYTE   W12
 BYTE   As4  v080
 BYTE   N08  Cs5  v100
 BYTE   W12
 BYTE   As4  v028
 BYTE   N08  Cs5  v036
 BYTE   W12
// 015   ----------------------------------------
Label_4_01559B96:
 BYTE   N08  Fs4  v080
 BYTE   N08  An4  v100
 BYTE   W12
 BYTE   Fs4  v028
 BYTE   N08  An4  v036
 BYTE   W12
 BYTE   Fs4  v032
 BYTE   N08  An4  v040
 BYTE   W12
 BYTE   Gn4  v076
 BYTE   N08  As4  v096
 BYTE   W12
 BYTE   Gn4  v028
 BYTE   N08  As4  v036
 BYTE   W12
 BYTE   Gn4  v032
 BYTE   N08  As4  v040
 BYTE   W12
 BYTE   En4  v076
 BYTE   N08  Gn4  v096
 BYTE   W12
 BYTE   En4  v024
 BYTE   N08  Gn4  v032
 BYTE   W12
 BYTE   PEND 
// 016   ----------------------------------------
 BYTE   En4
 BYTE   N08  Gn4  v040
 BYTE   W12
 BYTE   Fn4  v076
 BYTE   N08  Gs4  v096
 BYTE   W12
 BYTE   Fn4  v028
 BYTE   N08  Gs4  v032
 BYTE   W12
 BYTE   Fn4
 BYTE   N08  Gs4  v040
 BYTE   W12
 BYTE   Dn4  v076
 BYTE   N08  Fn4  v096
 BYTE   W12
 BYTE   Dn4  v028
 BYTE   N08  Fn4  v036
 BYTE   W12
 BYTE   Ds4  v080
 BYTE   N08  Fs4  v100
 BYTE   W12
 BYTE   Ds4  v028
 BYTE   N08  Fs4  v036
 BYTE   W12
 BYTE   PATT
  POIN2 Label_4_01559B96
// 017   ----------------------------------------
 BYTE   N08  En4  v032
 BYTE   N08  Gn4  v040
 BYTE   W12
 BYTE   Fn4  v076
 BYTE   N08  Gs4  v096
 BYTE   W12
 BYTE   Fn4  v028
 BYTE   N08  Gs4  v032
 BYTE   W12
 BYTE   Fn4
 BYTE   N08  Gs4  v040
 BYTE   W12
 BYTE   As4  v076
 BYTE   N08  Cs5  v096
 BYTE   W12
 BYTE   As4  v028
 BYTE   N08  Cs5  v036
 BYTE   W12
 BYTE   Bn4  v080
 BYTE   N08  Dn5  v100
 BYTE   W12
 BYTE   Bn4  v028
 BYTE   N08  Dn5  v036
 BYTE   W12
// 018   ----------------------------------------
Label_4_01559C2B:
 BYTE   N08  Gn4  v080
 BYTE   N08  As4  v100
 BYTE   W12
 BYTE   Gn4  v028
 BYTE   N08  As4  v036
 BYTE   W12
 BYTE   Gn4  v032
 BYTE   N08  As4  v040
 BYTE   W12
 BYTE   Gs4  v076
 BYTE   N08  Bn4  v096
 BYTE   W12
 BYTE   Gs4  v028
 BYTE   N08  Bn4  v036
 BYTE   W12
 BYTE   Gs4  v032
 BYTE   N08  Bn4  v040
 BYTE   W12
 BYTE   Fn4  v076
 BYTE   N08  Gs4  v096
 BYTE   W12
 BYTE   Fn4  v024
 BYTE   N08  Gs4  v032
 BYTE   W12
 BYTE   PEND 
// 019   ----------------------------------------
 BYTE   Fn4
 BYTE   N08  Gs4  v040
 BYTE   W12
 BYTE   Fs4  v076
 BYTE   N08  An4  v096
 BYTE   W12
 BYTE   Fs4  v028
 BYTE   N08  An4  v032
 BYTE   W12
 BYTE   Fs4
 BYTE   N08  An4  v040
 BYTE   W12
 BYTE   Ds4  v076
 BYTE   N08  Fs4  v096
 BYTE   W12
 BYTE   Ds4  v028
 BYTE   N08  Fs4  v036
 BYTE   W12
 BYTE   En4  v080
 BYTE   N08  Gn4  v100
 BYTE   W12
 BYTE   En4  v028
 BYTE   N08  Gn4  v036
 BYTE   W12
 BYTE   PATT
  POIN2 Label_4_01559C2B
// 020   ----------------------------------------
 BYTE   N08  Fn4  v032
 BYTE   N08  Gs4  v040
 BYTE   W12
 BYTE   Fs4  v076
 BYTE   N08  An4  v096
 BYTE   W12
 BYTE   Fs4  v028
 BYTE   N08  An4  v032
 BYTE   W12
 BYTE   Fs4
 BYTE   N08  An4  v040
 BYTE   W12
 BYTE   Bn4  v076
 BYTE   N08  Dn5  v096
 BYTE   W12
 BYTE   Bn4  v028
 BYTE   N08  Dn5  v036
 BYTE   W12
 BYTE   Cn5  v080
 BYTE   N08  Ds5  v100
 BYTE   W12
 BYTE   Cn5  v028
 BYTE   N08  Ds5  v036
 BYTE   W11
 BYTE   W01
// 021   ----------------------------------------
 BYTE   Cn5  v112
 BYTE   N08  Fs5
 BYTE   W12
 BYTE   An4  v096
 BYTE   N08  Ds5
 BYTE   W12
 BYTE   Fs4
 BYTE   N08  Cn5
 BYTE   W12
 BYTE   N32  Ds4  v092
 BYTE   N32  An4
 BYTE   W36
 BYTE   N08  Fs4  v096
 BYTE   N08  Cn5
 BYTE   W12
 BYTE   Ds4
 BYTE   N08  An4
 BYTE   W12
// 022   ----------------------------------------
 BYTE   Cn4
 BYTE   N08  Fs4
 BYTE   W12
 BYTE   N32  An3
 BYTE   N32  Ds4
 BYTE   W36
 BYTE   N08  Ds4  v092
 BYTE   N08  An4
 BYTE   W12
 BYTE   Cn4
 BYTE   N08  Fs4
 BYTE   W12
 BYTE   An3
 BYTE   N08  Ds4
 BYTE   W12
 BYTE   Fs3
 BYTE   N08  Cn4
 BYTE   W12
// 023   ----------------------------------------
 BYTE   Cs5  v116
 BYTE   N08  Gn5
 BYTE   W12
 BYTE   As4  v104
 BYTE   N08  En5
 BYTE   W12
 BYTE   Gn4
 BYTE   N08  Cs5
 BYTE   W12
 BYTE   N32  En4
 BYTE   N32  As4
 BYTE   W36
 BYTE   N08  Gn4  v108
 BYTE   N08  Cs5
 BYTE   W12
 BYTE   En4  v100
 BYTE   N08  As4
 BYTE   W12
// 024   ----------------------------------------
 BYTE   Cs4
 BYTE   N08  Gn4
 BYTE   W12
 BYTE   N32  As3
 BYTE   N32  En4
 BYTE   W36
 BYTE   N08  En4  v104
 BYTE   N08  As4
 BYTE   W12
 BYTE   Cs4  v092
 BYTE   N08  Gn4
 BYTE   W12
 BYTE   As3
 BYTE   N08  En4
 BYTE   W12
 BYTE   Gn3  v088
 BYTE   N08  Cs4
 BYTE   W10
 BYTE   W02
// 025   ----------------------------------------
 BYTE   N04  En2  v060
 BYTE   N04  As2  v080
 BYTE   W06
 BYTE   En2  v048
 BYTE   N04  As2  v064
 BYTE   W06
 BYTE   Gn2  v084
 BYTE   N04  Cs3  v064
 BYTE   W06
 BYTE   Gn2  v068
 BYTE   N04  Cs3  v052
 BYTE   W06
 BYTE   As2  v084
 BYTE   N04  En3  v064
 BYTE   W06
 BYTE   As2  v068
 BYTE   N04  En3  v052
 BYTE   W06
 BYTE   As2  v080
 BYTE   N04  En3  v064
 BYTE   W06
 BYTE   As2  v068
 BYTE   N04  En3  v052
 BYTE   W06
 BYTE   Gn2  v084
 BYTE   N04  Cs3  v064
 BYTE   W06
 BYTE   Gn2  v068
 BYTE   N04  Cs3  v052
 BYTE   W06
 BYTE   As2  v084
 BYTE   N04  En3  v064
 BYTE   W06
 BYTE   As2  v068
 BYTE   N04  En3  v052
 BYTE   W06
 BYTE   Cs3  v084
 BYTE   N04  Gn3  v064
 BYTE   W06
 BYTE   Cs3  v068
 BYTE   N04  Gn3  v052
 BYTE   W06
 BYTE   As2  v084
 BYTE   N04  En3  v064
 BYTE   W06
 BYTE   As2  v068
 BYTE   N04  En3  v052
 BYTE   W04
 BYTE   W02
// 026   ----------------------------------------
 BYTE   Cs3  v084
 BYTE   N04  Gn3  v088
 BYTE   W06
 BYTE   Cs3  v068
 BYTE   N04  Gn3  v072
 BYTE   W06
 BYTE   En3  v084
 BYTE   N04  As3  v092
 BYTE   W06
 BYTE   En3  v068
 BYTE   N04  As3  v076
 BYTE   W06
 BYTE   Gn3  v084
 BYTE   N04  Cs4  v096
 BYTE   W06
 BYTE   Gn3  v068
 BYTE   N04  Cs4  v076
 BYTE   W06
 BYTE   En3  v080
 BYTE   N04  As3  v096
 BYTE   W06
 BYTE   En3  v068
 BYTE   N04  As3  v080
 BYTE   W06
 BYTE   Gn3  v084
 BYTE   N04  Cs4  v100
 BYTE   W06
 BYTE   Gn3  v068
 BYTE   N04  Cs4  v084
 BYTE   W06
 BYTE   As3
 BYTE   N04  En4  v104
 BYTE   W06
 BYTE   As3  v068
 BYTE   N04  En4  v084
 BYTE   W06
 BYTE   Cs4
 BYTE   N04  Gn4  v108
 BYTE   W06
 BYTE   Cs4  v068
 BYTE   N04  Gn4  v088
 BYTE   W06
 BYTE   As3  v084
 BYTE   N04  En4  v112
 BYTE   W06
 BYTE   As3  v068
 BYTE   N04  En4  v092
 BYTE   W06
// 027   ----------------------------------------
 BYTE   N08  Ds4  v100
 BYTE   N08  Bn4  v108
 BYTE   W12
 BYTE   Fs4  v092
 BYTE   W12
 BYTE   N08
 BYTE   W12
 BYTE   Ds4  v100
 BYTE   N08  Bn4  v108
 BYTE   W12
 BYTE   Fs4  v096
 BYTE   W12
 BYTE   N08
 BYTE   W12
 BYTE   Ds4  v100
 BYTE   N08  Bn4  v108
 BYTE   W12
 BYTE   Fs4  v096
 BYTE   W12
// 028   ----------------------------------------
 BYTE   Fs4  v084
 BYTE   W12
 BYTE   Ds4  v100
 BYTE   N08  Bn4  v108
 BYTE   W12
 BYTE   Fs4  v100
 BYTE   W12
 BYTE   N08
 BYTE   W12
 BYTE   N04  Ds4  v080
 BYTE   N04  Bn4  v108
 BYTE   W06
 BYTE   Cs4  v080
 BYTE   N04  An4  v108
 BYTE   W06
 BYTE   An3  v080
 BYTE   N04  Fs4  v108
 BYTE   W05
 BYTE   Fs3  v080
 BYTE   W01
 BYTE   Ds4  v108
 BYTE   W06
 BYTE   N08  Ds3  v080
 BYTE   N08  Bn3  v108
 BYTE   W24
 BYTE   PATT
  POIN2 Label_4_015598F0
// 029   ----------------------------------------
 BYTE   GoTo
  POIN2 Label_4_0155993A
 BYTE   FINE

//**************** Track 6 (Midi-Chn.5) ****************//

OgreBattleMarchoftheBlackQueenDoorDieRandomWizard_006:
// 000   ----------------------------------------
 BYTE   KEYSH   OgreBattleMarchoftheBlackQueenDoorDieRandomWizard_key+0
 BYTE   VOICE   32
 BYTE   PAN   c_v+0
 BYTE   VOL   28*OgreBattleMarchoftheBlackQueenDoorDieRandomWizard_mvl/mxv
 BYTE   N11  En0  v100
 BYTE   W12
 BYTE   N11
 BYTE   W12
 BYTE   N11
 BYTE   W12
 BYTE   Fn0
 BYTE   W12
 BYTE   N11
 BYTE   W12
 BYTE   N11
 BYTE   W36
// 001   ----------------------------------------
 BYTE   W96
// 002   ----------------------------------------
 BYTE   N32  En1  v092
 BYTE   W36
 BYTE   Fn1
 BYTE   W36
 BYTE   Fs1
 BYTE   W24
// 003   ----------------------------------------
 BYTE   W12
 BYTE   Gn1
 BYTE   W36
 BYTE   N21  Gs1
 BYTE   W24
 BYTE   An1
 BYTE   W24
// 004   ----------------------------------------
 BYTE   N96  En1
 BYTE   W96
// 005   ----------------------------------------
Label_5_01559E7A:
 BYTE   N96  Fn1  v092
 BYTE   W96
// 006   ----------------------------------------
 BYTE   En1
 BYTE   W96
// 007   ----------------------------------------
 BYTE   Fn1
 BYTE   W96
// 008   ----------------------------------------
 BYTE   En1  v108
 BYTE   W96
// 009   ----------------------------------------
 BYTE   Fn1
 BYTE   W96
// 010   ----------------------------------------
 BYTE   En1
 BYTE   W96
// 011   ----------------------------------------
 BYTE   Fn1
 BYTE   W96
// 012   ----------------------------------------
 BYTE   W96
// 013   ----------------------------------------
 BYTE   W96
// 014   ----------------------------------------
 BYTE   W96
// 015   ----------------------------------------
 BYTE   W96
// 016   ----------------------------------------
 BYTE   TIE  Dn1  v084
 BYTE   W96
// 017   ----------------------------------------
 BYTE   W84
 BYTE   W02
 BYTE   EOT
 BYTE   W10
// 018   ----------------------------------------
 BYTE   W96
// 019   ----------------------------------------
 BYTE   W96
// 020   ----------------------------------------
 BYTE   TIE  Ds1
 BYTE   W96
// 021   ----------------------------------------
 BYTE   W84
 BYTE   W02
 BYTE   EOT
 BYTE   W10
// 022   ----------------------------------------
 BYTE   W96
// 023   ----------------------------------------
 BYTE   W96
// 024   ----------------------------------------
 BYTE   TIE  En1
 BYTE   W96
// 025   ----------------------------------------
 BYTE   W84
 BYTE   W02
 BYTE   EOT
 BYTE   W10
// 026   ----------------------------------------
 BYTE   W96
// 027   ----------------------------------------
 BYTE   W96
// 028   ----------------------------------------
 BYTE   N96  Cn0  v108
 BYTE   W96
// 029   ----------------------------------------
 BYTE   W24
 BYTE   N24  Cn0  v088
 BYTE   W24
 BYTE   N24
 BYTE   W24
 BYTE   N24
 BYTE   W24
// 030   ----------------------------------------
 BYTE   N96  Cs0  v112
 BYTE   W96
// 031   ----------------------------------------
 BYTE   W24
 BYTE   N24  Cs0  v088
 BYTE   W24
 BYTE   N24
 BYTE   W24
 BYTE   N24
 BYTE   W24
// 032   ----------------------------------------
 BYTE   W96
// 033   ----------------------------------------
 BYTE   W96
// 034   ----------------------------------------
 BYTE   W96
// 035   ----------------------------------------
 BYTE   W96
// 036   ----------------------------------------
 BYTE   N96  En1  v092
 BYTE   W96
// 037   ----------------------------------------
 BYTE   GoTo
  POIN2 Label_5_01559E7A
 BYTE   FINE

//**************** Track 7 (Midi-Chn.6) ****************//

OgreBattleMarchoftheBlackQueenDoorDieRandomWizard_007:
// 000   ----------------------------------------
 BYTE   KEYSH   OgreBattleMarchoftheBlackQueenDoorDieRandomWizard_key+0
 BYTE   VOICE   62
 BYTE   PAN   c_v+44
 BYTE   VOL   27*OgreBattleMarchoftheBlackQueenDoorDieRandomWizard_mvl/mxv
 BYTE   N09  Gn2  v104
 BYTE   N09  Bn2
 BYTE   W12
 BYTE   Gn2
 BYTE   N09  Bn2
 BYTE   W12
 BYTE   Gn2
 BYTE   N09  Bn2
 BYTE   W12
 BYTE   Gs2
 BYTE   N09  Cn3
 BYTE   W12
 BYTE   Gs2
 BYTE   N09  Cn3
 BYTE   W12
 BYTE   N18  Gs2
 BYTE   N18  Cn3
 BYTE   W36
// 001   ----------------------------------------
 BYTE   W72
 BYTE   N04  An3  v096
 BYTE   N04  Fn4  v088
 BYTE   W06
 BYTE   Fn3  v104
 BYTE   N04  Cn4  v096
 BYTE   W06
 BYTE   Cn3  v100
 BYTE   N04  Gs3  v092
 BYTE   W06
 BYTE   Fn2  v084
 BYTE   N04  Cn3  v076
 BYTE   W06
// 002   ----------------------------------------
 BYTE   N10  En2  v108
 BYTE   N10  Gn2  v084
 BYTE   N10  Bn3
 BYTE   W12
 BYTE   En2  v108
 BYTE   N10  Gn2  v084
 BYTE   N10  Bn3
 BYTE   W12
 BYTE   En2  v112
 BYTE   N10  Gn2  v088
 BYTE   N10  Bn3  v084
 BYTE   W12
 BYTE   Fn2  v112
 BYTE   N10  Gs2  v088
 BYTE   N10  Cn4  v084
 BYTE   W12
 BYTE   Fn2  v112
 BYTE   N10  Gs2  v088
 BYTE   N10  Cn4  v084
 BYTE   W12
 BYTE   Fn2  v112
 BYTE   N10  Gs2  v088
 BYTE   N10  Cn4  v084
 BYTE   W12
 BYTE   Fs2  v112
 BYTE   N10  An2  v088
 BYTE   N10  Cs4  v084
 BYTE   W12
 BYTE   Fs2  v116
 BYTE   N10  An2  v088
 BYTE   N10  Cs4  v084
 BYTE   W12
// 003   ----------------------------------------
 BYTE   Fs2  v116
 BYTE   N10  An2  v088
 BYTE   N10  Cs4  v084
 BYTE   W12
 BYTE   Gn2  v116
 BYTE   N10  As2  v112
 BYTE   N10  Dn4  v084
 BYTE   W12
 BYTE   Gn2  v116
 BYTE   N10  As2  v112
 BYTE   N10  Dn4  v084
 BYTE   W12
 BYTE   Gn2  v116
 BYTE   N10  As2  v112
 BYTE   N10  Dn4  v084
 BYTE   W12
 BYTE   Gs2  v120
 BYTE   N10  Bn2  v116
 BYTE   N10  Ds4  v084
 BYTE   W12
 BYTE   Gs2  v096
 BYTE   N10  Bn2  v092
 BYTE   N10  Ds4  v068
 BYTE   W12
 BYTE   An2  v120
 BYTE   N10  Cn3  v116
 BYTE   N10  En4  v084
 BYTE   W12
 BYTE   An2  v096
 BYTE   N10  Cn3  v092
 BYTE   N10  En4  v068
 BYTE   W12
// 004   ----------------------------------------
Label_6_01559FA0:
 BYTE   N11  Bn3  v080
 BYTE   W12
 BYTE   Bn3  v116
 BYTE   W12
 BYTE   Bn3  v060
 BYTE   W12
 BYTE   Bn3  v088
 BYTE   W12
 BYTE   Bn3  v112
 BYTE   W12
 BYTE   Bn3  v060
 BYTE   W12
 BYTE   N05  Bn3  v076
 BYTE   W06
 BYTE   N05
 BYTE   W06
 BYTE   N11  Bn3  v080
 BYTE   W12
 BYTE   PEND 
// 005   ----------------------------------------
Label_6_01559FBE:
 BYTE   N11  Cn4  v092
 BYTE   W12
 BYTE   Cn4  v116
 BYTE   W12
 BYTE   Cn4  v056
 BYTE   W12
 BYTE   Cn4  v088
 BYTE   W12
 BYTE   Cn4  v112
 BYTE   W12
 BYTE   Cn4  v060
 BYTE   W12
 BYTE   N05  Cn4  v076
 BYTE   W06
 BYTE   N05
 BYTE   W06
 BYTE   N11  Cn4  v088
 BYTE   W12
 BYTE   PEND 
 BYTE   PATT
  POIN2 Label_6_01559FA0
 BYTE   PATT
  POIN2 Label_6_01559FBE
 BYTE   PATT
  POIN2 Label_6_01559FA0
 BYTE   PATT
  POIN2 Label_6_01559FBE
 BYTE   PATT
  POIN2 Label_6_01559FA0
 BYTE   PATT
  POIN2 Label_6_01559FBE
// 006   ----------------------------------------
 BYTE   W96
// 007   ----------------------------------------
 BYTE   N04  As3  v084
 BYTE   W06
 BYTE   As3  v096
 BYTE   W06
 BYTE   N10  As3  v112
 BYTE   W24
 BYTE   N04  As3  v092
 BYTE   W06
 BYTE   N04
 BYTE   W06
 BYTE   N10  As3  v116
 BYTE   W24
 BYTE   N04  As3  v096
 BYTE   W06
 BYTE   N04
 BYTE   W06
 BYTE   N10  As3  v104
 BYTE   W12
// 008   ----------------------------------------
 BYTE   W96
// 009   ----------------------------------------
 BYTE   N04  Cs4  v084
 BYTE   W06
 BYTE   Cs4  v096
 BYTE   W06
 BYTE   N10  Cs4  v112
 BYTE   W24
 BYTE   N04  Cs4  v092
 BYTE   W06
 BYTE   N04
 BYTE   W06
 BYTE   N10  Cs4  v116
 BYTE   W24
 BYTE   N04  Cs4  v096
 BYTE   W06
 BYTE   N04
 BYTE   W06
 BYTE   N10  Cs4  v104
 BYTE   W12
// 010   ----------------------------------------
 BYTE   W96
// 011   ----------------------------------------
 BYTE   W96
// 012   ----------------------------------------
 BYTE   W96
// 013   ----------------------------------------
 BYTE   W96
// 014   ----------------------------------------
 BYTE   W96
// 015   ----------------------------------------
 BYTE   W96
// 016   ----------------------------------------
 BYTE   W96
// 017   ----------------------------------------
 BYTE   W96
// 018   ----------------------------------------
 BYTE   W96
// 019   ----------------------------------------
 BYTE   W96
// 020   ----------------------------------------
 BYTE   W96
// 021   ----------------------------------------
 BYTE   W96
// 022   ----------------------------------------
 BYTE   N04  Cn4  v084
 BYTE   W06
 BYTE   Ds4  v088
 BYTE   W06
 BYTE   N07  Fs4  v096
 BYTE   W12
 BYTE   Ds4
 BYTE   W12
 BYTE   N04  An3
 BYTE   W06
 BYTE   Cn4
 BYTE   W06
 BYTE   N09  Ds4
 BYTE   W12
 BYTE   N07  Cn4  v100
 BYTE   W12
 BYTE   N04  Fs3  v096
 BYTE   W06
 BYTE   An3
 BYTE   W06
 BYTE   N09  Cn4
 BYTE   W12
// 023   ----------------------------------------
 BYTE   An3
 BYTE   W12
 BYTE   N04  Ds3
 BYTE   W06
 BYTE   Fs3
 BYTE   W06
 BYTE   N09  An3
 BYTE   W12
 BYTE   Fs3  v092
 BYTE   W12
 BYTE   N04  Cn3
 BYTE   W06
 BYTE   Ds3  v096
 BYTE   W06
 BYTE   N07  Fs3
 BYTE   W12
 BYTE   N08  Ds3
 BYTE   W12
 BYTE   N04  Cn3  v088
 BYTE   W06
 BYTE   Cn3  v092
 BYTE   W06
// 024   ----------------------------------------
 BYTE   Cs4  v084
 BYTE   W06
 BYTE   En4  v088
 BYTE   W06
 BYTE   N07  Gn4  v096
 BYTE   W12
 BYTE   En4
 BYTE   W12
 BYTE   N04  As3
 BYTE   W06
 BYTE   Cs4
 BYTE   W06
 BYTE   N09  En4
 BYTE   W12
 BYTE   N07  Cs4  v100
 BYTE   W12
 BYTE   N04  Gn3  v096
 BYTE   W06
 BYTE   As3
 BYTE   W06
 BYTE   N09  Cs4
 BYTE   W12
// 025   ----------------------------------------
 BYTE   As3
 BYTE   W12
 BYTE   N04  En3
 BYTE   W06
 BYTE   Gn3
 BYTE   W06
 BYTE   N09  As3
 BYTE   W12
 BYTE   Gn3  v092
 BYTE   W12
 BYTE   N04  Cs3
 BYTE   W06
 BYTE   En3  v096
 BYTE   W06
 BYTE   N07  Gn3
 BYTE   W12
 BYTE   N08  En3
 BYTE   W12
 BYTE   N04  Cs3  v088
 BYTE   W06
 BYTE   Cs3  v092
 BYTE   W06
// 026   ----------------------------------------
 BYTE   N08  As2  v040
 BYTE   W12
 BYTE   Cs3
 BYTE   W12
 BYTE   As2  v052
 BYTE   W12
 BYTE   N08
 BYTE   W12
 BYTE   En3  v064
 BYTE   W12
 BYTE   N08
 BYTE   W12
 BYTE   Cs3
 BYTE   W12
 BYTE   N08
 BYTE   W12
// 027   ----------------------------------------
 BYTE   Gn3  v080
 BYTE   W12
 BYTE   Gn3  v072
 BYTE   W12
 BYTE   En3
 BYTE   W12
 BYTE   N08
 BYTE   W12
 BYTE   As3  v088
 BYTE   W12
 BYTE   As3  v080
 BYTE   W12
 BYTE   Gn3
 BYTE   W12
 BYTE   N08
 BYTE   W12
// 028   ----------------------------------------
 BYTE   N05  Fs4
 BYTE   W06
 BYTE   Fs4  v068
 BYTE   W06
 BYTE   N09  Fs4  v080
 BYTE   W24
 BYTE   N05
 BYTE   W06
 BYTE   Fs4  v076
 BYTE   W06
 BYTE   N09  Fs4  v080
 BYTE   W24
 BYTE   N05
 BYTE   W06
 BYTE   N05
 BYTE   W06
 BYTE   N09
 BYTE   W12
// 029   ----------------------------------------
 BYTE   W12
 BYTE   N05
 BYTE   W06
 BYTE   N05
 BYTE   W06
 BYTE   N09
 BYTE   W24
 BYTE   N05
 BYTE   W06
 BYTE   Dn4
 BYTE   W06
 BYTE   Bn3
 BYTE   W06
 BYTE   Fs3
 BYTE   W06
 BYTE   N10  Ds3
 BYTE   W24
 BYTE   PATT
  POIN2 Label_6_01559FA0
// 030   ----------------------------------------
 BYTE   GoTo
  POIN2 Label_6_01559FBE
 BYTE   FINE

//**************** Track 8 (Midi-Chn.7) ****************//

OgreBattleMarchoftheBlackQueenDoorDieRandomWizard_008:
// 000   ----------------------------------------
 BYTE   KEYSH   OgreBattleMarchoftheBlackQueenDoorDieRandomWizard_key+0
 BYTE   VOICE   63
 BYTE   PAN   c_v+0
 BYTE   VOL   18*OgreBattleMarchoftheBlackQueenDoorDieRandomWizard_mvl/mxv
 BYTE   W96
// 001   ----------------------------------------
 BYTE   W96
// 002   ----------------------------------------
 BYTE   W96
// 003   ----------------------------------------
 BYTE   W96
// 004   ----------------------------------------
Label_7_0155A134:
 BYTE   N09  Bn3  v076
 BYTE   N09  Gn4  v108
 BYTE   W12
 BYTE   N04  Bn3  v060
 BYTE   N04  Gn4  v084
 BYTE   W06
 BYTE   Bn3  v060
 BYTE   N04  Gn4  v084
 BYTE   W06
 BYTE   N09  Bn3  v068
 BYTE   N09  Gn4  v096
 BYTE   W12
 BYTE   Bn3  v076
 BYTE   N09  Gn4  v108
 BYTE   W12
 BYTE   N04  Bn3  v060
 BYTE   N04  Gn4  v084
 BYTE   W06
 BYTE   Bn3  v060
 BYTE   N04  Gn4  v084
 BYTE   W06
 BYTE   N09  Bn3  v068
 BYTE   N09  Gn4  v096
 BYTE   W12
 BYTE   N04  Bn3  v068
 BYTE   N04  Gn4  v096
 BYTE   W06
 BYTE   Bn3  v068
 BYTE   N04  Gn4  v100
 BYTE   W06
 BYTE   N09  Bn3  v068
 BYTE   N09  Gn4  v100
 BYTE   W12
 BYTE   PEND 
// 005   ----------------------------------------
Label_7_0155A17E:
 BYTE   N09  Cn4  v080
 BYTE   N09  Gs4  v116
 BYTE   W12
 BYTE   N04  Cn4  v056
 BYTE   N04  Gs4  v084
 BYTE   W06
 BYTE   Cn4  v060
 BYTE   N04  Gs4  v084
 BYTE   W06
 BYTE   N09  Cn4  v068
 BYTE   N09  Gs4  v096
 BYTE   W12
 BYTE   Cn4  v080
 BYTE   N09  Gs4  v116
 BYTE   W12
 BYTE   N04  Cn4  v056
 BYTE   N04  Gs4  v080
 BYTE   W06
 BYTE   Cn4  v056
 BYTE   N04  Gs4  v080
 BYTE   W06
 BYTE   N09  Cn4  v064
 BYTE   N09  Gs4  v092
 BYTE   W12
 BYTE   N04  Cn4  v060
 BYTE   N04  Gs4  v084
 BYTE   W06
 BYTE   Cn4  v060
 BYTE   N04  Gs4  v088
 BYTE   W06
 BYTE   N09  Cn4  v064
 BYTE   N09  Gs4  v092
 BYTE   W12
 BYTE   PEND 
 BYTE   PATT
  POIN2 Label_7_0155A134
 BYTE   PATT
  POIN2 Label_7_0155A17E
 BYTE   PATT
  POIN2 Label_7_0155A134
 BYTE   PATT
  POIN2 Label_7_0155A17E
// 006   ----------------------------------------
 BYTE   N09  Bn3  v076
 BYTE   N09  Gn4  v108
 BYTE   W12
 BYTE   N03  Bn3  v064
 BYTE   N03  Gn4  v092
 BYTE   W06
 BYTE   Bn3  v064
 BYTE   N03  Gn4  v092
 BYTE   W06
 BYTE   N08  Bn3  v068
 BYTE   N08  Gn4  v096
 BYTE   W12
 BYTE   N09  Bn3  v076
 BYTE   N09  Gn4  v108
 BYTE   W12
 BYTE   N04  Bn3  v060
 BYTE   N04  Gn4  v084
 BYTE   W06
 BYTE   Bn3  v060
 BYTE   N04  Gn4  v084
 BYTE   W06
 BYTE   N09  Bn3  v068
 BYTE   N09  Gn4  v096
 BYTE   W12
 BYTE   N04  Bn3  v068
 BYTE   N04  Gn4  v096
 BYTE   W06
 BYTE   Bn3  v068
 BYTE   N04  Gn4  v100
 BYTE   W06
 BYTE   N09  Bn3  v068
 BYTE   N09  Gn4  v100
 BYTE   W12
// 007   ----------------------------------------
 BYTE   Cn4  v080
 BYTE   N09  Gs4  v116
 BYTE   W12
 BYTE   N04  Cn4  v056
 BYTE   N04  Gs4  v084
 BYTE   W06
 BYTE   Cn4  v060
 BYTE   N04  Gs4  v084
 BYTE   W06
 BYTE   N09  Cn4  v068
 BYTE   N09  Gs4  v096
 BYTE   W12
 BYTE   Cn4  v080
 BYTE   N09  Gs4  v116
 BYTE   W12
 BYTE   N04  Cn4  v056
 BYTE   N04  Gs4  v080
 BYTE   W06
 BYTE   Cn4  v056
 BYTE   N04  Gs4  v080
 BYTE   W06
 BYTE   N09  Cn4  v064
 BYTE   N09  Gs4  v092
 BYTE   W12
 BYTE   N04  Cn4  v060
 BYTE   N04  Gs4  v084
 BYTE   W06
 BYTE   Cn4  v060
 BYTE   N04  Gs4  v088
 BYTE   W06
 BYTE   N09  Cn4  v064
 BYTE   N09  Gs4  v092
 BYTE   W11
 BYTE   W01
// 008   ----------------------------------------
 BYTE   Gn2  v112
 BYTE   N09  Cs3
 BYTE   W01
 BYTE   W01
 BYTE   W06
 BYTE   W01
 BYTE   W01
 BYTE   W01
 BYTE   W01
 BYTE   As2  v124
 BYTE   N09  En3
 BYTE   W01
 BYTE   W01
 BYTE   W06
 BYTE   W01
 BYTE   W01
 BYTE   W01
 BYTE   W01
 BYTE   Gn2
 BYTE   N09  Cs3
 BYTE   W01
 BYTE   W01
 BYTE   W06
 BYTE   W01
 BYTE   W01
 BYTE   W01
 BYTE   W01
 BYTE   N09
 BYTE   N09  Gn3
 BYTE   W01
 BYTE   W01
 BYTE   W05
 BYTE   W01
 BYTE   W01
 BYTE   W01
 BYTE   W01
 BYTE   W01
 BYTE   Gn2
 BYTE   N09  Cs3
 BYTE   W01
 BYTE   W01
 BYTE   W06
 BYTE   W01
 BYTE   W01
 BYTE   W01
 BYTE   W01
 BYTE   TIE  En3  v112
 BYTE   TIE  As3
 BYTE   W01
 BYTE   W01
 BYTE   W01
 BYTE   W01
 BYTE   W01
 BYTE   W30
 BYTE   W01
// 009   ----------------------------------------
Label_7_0155A2B0:
 BYTE   W36
 BYTE   W02
 BYTE   W01
 BYTE   W01
 BYTE   W02
 BYTE   W01
 BYTE   W01
 BYTE   W02
 BYTE   W01
 BYTE   W01
 BYTE   W02
 BYTE   W01
 BYTE   W01
 BYTE   W02
 BYTE   W01
 BYTE   W01
 BYTE   W02
 BYTE   W01
 BYTE   W01
 BYTE   W02
 BYTE   W01
 BYTE   W01
 BYTE   W02
 BYTE   W01
 BYTE   W01
 BYTE   PEND 
 BYTE   EOT
 BYTE   En3  v070
 BYTE   W01
 BYTE   W02
 BYTE   W01
 BYTE   N04  Gn3  v092
 BYTE   N04  Cs4
 BYTE   W06
 BYTE   As3
 BYTE   N04  En4
 BYTE   W06
 BYTE   Cs4
 BYTE   N04  Gn4
 BYTE   W06
 BYTE   En4  v084
 BYTE   N04  As4
 BYTE   W05
 BYTE   W01
// 010   ----------------------------------------
 BYTE   N09  Gn2  v112
 BYTE   N09  Cs3
 BYTE   W01
 BYTE   W01
 BYTE   W06
 BYTE   W01
 BYTE   W01
 BYTE   W01
 BYTE   W01
 BYTE   As2  v124
 BYTE   N09  En3
 BYTE   W01
 BYTE   W01
 BYTE   W06
 BYTE   W01
 BYTE   W01
 BYTE   W01
 BYTE   W01
 BYTE   Gn2
 BYTE   N09  Cs3
 BYTE   W01
 BYTE   W01
 BYTE   W06
 BYTE   W01
 BYTE   W01
 BYTE   W01
 BYTE   W01
 BYTE   N09
 BYTE   N09  Gn3
 BYTE   W01
 BYTE   W01
 BYTE   W05
 BYTE   W01
 BYTE   W01
 BYTE   W01
 BYTE   W01
 BYTE   W01
 BYTE   As2
 BYTE   N09  En3
 BYTE   W01
 BYTE   W01
 BYTE   W06
 BYTE   W01
 BYTE   W01
 BYTE   W01
 BYTE   W01
 BYTE   TIE  Gn3  v112
 BYTE   TIE  Cs4
 BYTE   W01
 BYTE   W01
 BYTE   W01
 BYTE   W01
 BYTE   W01
 BYTE   W30
 BYTE   W01
 BYTE   PATT
  POIN2 Label_7_0155A2B0
// 011   ----------------------------------------
 BYTE   EOT
 BYTE   Gn3  v073
 BYTE   W01
 BYTE   W02
 BYTE   W01
 BYTE   N04  Cs5  v092
 BYTE   N04  En5
 BYTE   W06
 BYTE   As4
 BYTE   N04  Cs5
 BYTE   W06
 BYTE   Gn4  v084
 BYTE   N04  As4
 BYTE   W06
 BYTE   En4  v076
 BYTE   N04  Gn4
 BYTE   W06
Label_7_0155A345:
 BYTE   N08  Fn4  v080
 BYTE   N08  Gs4  v100
 BYTE   W12
 BYTE   Fn4  v028
 BYTE   N08  Gs4  v036
 BYTE   W12
 BYTE   Fn4  v032
 BYTE   N08  Gs4  v040
 BYTE   W12
 BYTE   Fs4  v076
 BYTE   N08  An4  v096
 BYTE   W12
 BYTE   Fs4  v028
 BYTE   N08  An4  v036
 BYTE   W12
 BYTE   Fs4  v032
 BYTE   N08  An4  v040
 BYTE   W12
// 012   ----------------------------------------
 BYTE   Ds4  v076
 BYTE   N08  Fs4  v096
 BYTE   W12
 BYTE   Ds4  v024
 BYTE   N08  Fs4  v032
 BYTE   W12
 BYTE   PEND 
 BYTE   Ds4
 BYTE   N08  Fs4  v040
 BYTE   W12
 BYTE   En4  v076
 BYTE   N08  Gn4  v096
 BYTE   W12
 BYTE   En4  v028
 BYTE   N08  Gn4  v032
 BYTE   W12
 BYTE   En4
 BYTE   N08  Gn4  v040
 BYTE   W12
 BYTE   Cs4  v076
 BYTE   N08  En4  v096
 BYTE   W12
 BYTE   Cs4  v028
 BYTE   N08  En4  v036
 BYTE   W12
// 013   ----------------------------------------
 BYTE   Dn4  v080
 BYTE   N08  Fn4  v100
 BYTE   W12
 BYTE   Dn4  v028
 BYTE   N08  Fn4  v036
 BYTE   W12
 BYTE   PATT
  POIN2 Label_7_0155A345
// 014   ----------------------------------------
 BYTE   N08  Ds4  v032
 BYTE   N08  Fs4  v040
 BYTE   W12
 BYTE   En4  v076
 BYTE   N08  Gn4  v096
 BYTE   W12
 BYTE   En4  v028
 BYTE   N08  Gn4  v032
 BYTE   W12
 BYTE   En4
 BYTE   N08  Gn4  v040
 BYTE   W12
 BYTE   An4  v076
 BYTE   N08  Cn5  v096
 BYTE   W12
 BYTE   An4  v028
 BYTE   N08  Cn5  v036
 BYTE   W12
 BYTE   As4  v080
 BYTE   N08  Cs5  v100
 BYTE   W12
 BYTE   As4  v028
 BYTE   N08  Cs5  v036
 BYTE   W12
// 015   ----------------------------------------
Label_7_0155A3DA:
 BYTE   N08  Fs4  v080
 BYTE   N08  An4  v100
 BYTE   W12
 BYTE   Fs4  v028
 BYTE   N08  An4  v036
 BYTE   W12
 BYTE   Fs4  v032
 BYTE   N08  An4  v040
 BYTE   W12
 BYTE   Gn4  v076
 BYTE   N08  As4  v096
 BYTE   W12
 BYTE   Gn4  v028
 BYTE   N08  As4  v036
 BYTE   W12
 BYTE   Gn4  v032
 BYTE   N08  As4  v040
 BYTE   W12
 BYTE   En4  v076
 BYTE   N08  Gn4  v096
 BYTE   W12
 BYTE   En4  v024
 BYTE   N08  Gn4  v032
 BYTE   W12
 BYTE   PEND 
// 016   ----------------------------------------
 BYTE   En4
 BYTE   N08  Gn4  v040
 BYTE   W12
 BYTE   Fn4  v076
 BYTE   N08  Gs4  v096
 BYTE   W12
 BYTE   Fn4  v028
 BYTE   N08  Gs4  v032
 BYTE   W12
 BYTE   Fn4
 BYTE   N08  Gs4  v040
 BYTE   W12
 BYTE   Dn4  v076
 BYTE   N08  Fn4  v096
 BYTE   W12
 BYTE   Dn4  v028
 BYTE   N08  Fn4  v036
 BYTE   W12
 BYTE   Ds4  v080
 BYTE   N08  Fs4  v100
 BYTE   W12
 BYTE   Ds4  v028
 BYTE   N08  Fs4  v036
 BYTE   W12
 BYTE   PATT
  POIN2 Label_7_0155A3DA
// 017   ----------------------------------------
 BYTE   N08  En4  v032
 BYTE   N08  Gn4  v040
 BYTE   W12
 BYTE   Fn4  v076
 BYTE   N08  Gs4  v096
 BYTE   W12
 BYTE   Fn4  v028
 BYTE   N08  Gs4  v032
 BYTE   W12
 BYTE   Fn4
 BYTE   N08  Gs4  v040
 BYTE   W12
 BYTE   As4  v076
 BYTE   N08  Cs5  v096
 BYTE   W12
 BYTE   As4  v028
 BYTE   N08  Cs5  v036
 BYTE   W12
 BYTE   Bn4  v080
 BYTE   N08  Dn5  v100
 BYTE   W12
 BYTE   Bn4  v028
 BYTE   N08  Dn5  v036
 BYTE   W12
// 018   ----------------------------------------
Label_7_0155A46F:
 BYTE   N08  Gn4  v080
 BYTE   N08  As4  v100
 BYTE   W12
 BYTE   Gn4  v028
 BYTE   N08  As4  v036
 BYTE   W12
 BYTE   Gn4  v032
 BYTE   N08  As4  v040
 BYTE   W12
 BYTE   Gs4  v076
 BYTE   N08  Bn4  v096
 BYTE   W12
 BYTE   Gs4  v028
 BYTE   N08  Bn4  v036
 BYTE   W12
 BYTE   Gs4  v032
 BYTE   N08  Bn4  v040
 BYTE   W12
 BYTE   Fn4  v076
 BYTE   N08  Gs4  v096
 BYTE   W12
 BYTE   Fn4  v024
 BYTE   N08  Gs4  v032
 BYTE   W12
 BYTE   PEND 
// 019   ----------------------------------------
 BYTE   Fn4
 BYTE   N08  Gs4  v040
 BYTE   W12
 BYTE   Fs4  v076
 BYTE   N08  An4  v096
 BYTE   W12
 BYTE   Fs4  v028
 BYTE   N08  An4  v032
 BYTE   W12
 BYTE   Fs4
 BYTE   N08  An4  v040
 BYTE   W12
 BYTE   Ds4  v076
 BYTE   N08  Fs4  v096
 BYTE   W12
 BYTE   Ds4  v028
 BYTE   N08  Fs4  v036
 BYTE   W12
 BYTE   En4  v080
 BYTE   N08  Gn4  v100
 BYTE   W12
 BYTE   En4  v028
 BYTE   N08  Gn4  v036
 BYTE   W12
 BYTE   PATT
  POIN2 Label_7_0155A46F
// 020   ----------------------------------------
 BYTE   N08  Fn4  v032
 BYTE   N08  Gs4  v040
 BYTE   W12
 BYTE   Fs4  v076
 BYTE   N08  An4  v096
 BYTE   W12
 BYTE   Fs4  v028
 BYTE   N08  An4  v032
 BYTE   W12
 BYTE   Fs4
 BYTE   N08  An4  v040
 BYTE   W12
 BYTE   Bn4  v076
 BYTE   N08  Dn5  v096
 BYTE   W12
 BYTE   Bn4  v028
 BYTE   N08  Dn5  v036
 BYTE   W12
 BYTE   Cn5  v080
 BYTE   N08  Ds5  v100
 BYTE   W12
 BYTE   Cn5  v028
 BYTE   N08  Ds5  v036
 BYTE   W12
// 021   ----------------------------------------
 BYTE   Cn5  v112
 BYTE   N08  Fs5
 BYTE   W12
 BYTE   An4  v096
 BYTE   N08  Ds5
 BYTE   W12
 BYTE   Fs4
 BYTE   N08  Cn5
 BYTE   W12
 BYTE   N32  Ds4  v092
 BYTE   N32  An4
 BYTE   W36
 BYTE   N08  Fs4  v096
 BYTE   N08  Cn5
 BYTE   W12
 BYTE   Ds4
 BYTE   N08  An4
 BYTE   W12
// 022   ----------------------------------------
 BYTE   Cn4
 BYTE   N08  Fs4
 BYTE   W12
 BYTE   N32  An3
 BYTE   N32  Ds4
 BYTE   W36
 BYTE   N08  Ds4  v092
 BYTE   N08  An4
 BYTE   W12
 BYTE   Cn4
 BYTE   N08  Fs4
 BYTE   W12
 BYTE   An3
 BYTE   N08  Ds4
 BYTE   W12
 BYTE   Fs3
 BYTE   N08  Cn4
 BYTE   W12
// 023   ----------------------------------------
 BYTE   Cs5  v116
 BYTE   N08  Gn5
 BYTE   W12
 BYTE   As4  v104
 BYTE   N08  En5
 BYTE   W12
 BYTE   Gn4
 BYTE   N08  Cs5
 BYTE   W12
 BYTE   N32  En4
 BYTE   N32  As4
 BYTE   W36
 BYTE   N08  Gn4  v108
 BYTE   N08  Cs5
 BYTE   W12
 BYTE   En4  v100
 BYTE   N08  As4
 BYTE   W12
// 024   ----------------------------------------
 BYTE   Cs4
 BYTE   N08  Gn4
 BYTE   W12
 BYTE   N32  As3
 BYTE   N32  En4
 BYTE   W36
 BYTE   N08  En4  v104
 BYTE   N08  As4
 BYTE   W12
 BYTE   Cs4  v092
 BYTE   N08  Gn4
 BYTE   W12
 BYTE   As3
 BYTE   N08  En4
 BYTE   W12
 BYTE   Gn3  v088
 BYTE   N08  Cs4
 BYTE   W12
// 025   ----------------------------------------
 BYTE   N04  En2  v060
 BYTE   N04  As2  v080
 BYTE   W06
 BYTE   En2  v048
 BYTE   N04  As2  v064
 BYTE   W06
 BYTE   Gn2  v084
 BYTE   N04  Cs3  v064
 BYTE   W06
 BYTE   Gn2  v068
 BYTE   N04  Cs3  v052
 BYTE   W06
 BYTE   As2  v084
 BYTE   N04  En3  v064
 BYTE   W06
 BYTE   As2  v068
 BYTE   N04  En3  v052
 BYTE   W06
 BYTE   As2  v080
 BYTE   N04  En3  v064
 BYTE   W06
 BYTE   As2  v068
 BYTE   N04  En3  v052
 BYTE   W06
 BYTE   Gn2  v084
 BYTE   N04  Cs3  v064
 BYTE   W06
 BYTE   Gn2  v068
 BYTE   N04  Cs3  v052
 BYTE   W06
 BYTE   As2  v084
 BYTE   N04  En3  v064
 BYTE   W06
 BYTE   As2  v068
 BYTE   N04  En3  v052
 BYTE   W06
 BYTE   Cs3  v084
 BYTE   N04  Gn3  v064
 BYTE   W06
 BYTE   Cs3  v068
 BYTE   N04  Gn3  v052
 BYTE   W06
 BYTE   As2  v084
 BYTE   N04  En3  v064
 BYTE   W06
 BYTE   As2  v068
 BYTE   N04  En3  v052
 BYTE   W06
// 026   ----------------------------------------
 BYTE   Cs3  v084
 BYTE   N04  Gn3  v088
 BYTE   W06
 BYTE   Cs3  v068
 BYTE   N04  Gn3  v072
 BYTE   W06
 BYTE   En3  v084
 BYTE   N04  As3  v092
 BYTE   W06
 BYTE   En3  v068
 BYTE   N04  As3  v076
 BYTE   W06
 BYTE   Gn3  v084
 BYTE   N04  Cs4  v096
 BYTE   W06
 BYTE   Gn3  v068
 BYTE   N04  Cs4  v076
 BYTE   W06
 BYTE   En3  v080
 BYTE   N04  As3  v096
 BYTE   W06
 BYTE   En3  v068
 BYTE   N04  As3  v080
 BYTE   W06
 BYTE   Gn3  v084
 BYTE   N04  Cs4  v100
 BYTE   W06
 BYTE   Gn3  v068
 BYTE   N04  Cs4  v084
 BYTE   W06
 BYTE   As3
 BYTE   N04  En4  v104
 BYTE   W06
 BYTE   As3  v068
 BYTE   N04  En4  v084
 BYTE   W06
 BYTE   Cs4
 BYTE   N04  Gn4  v108
 BYTE   W06
 BYTE   Cs4  v068
 BYTE   N04  Gn4  v088
 BYTE   W06
 BYTE   As3  v084
 BYTE   N04  En4  v112
 BYTE   W06
 BYTE   As3  v068
 BYTE   N04  En4  v092
 BYTE   W06
// 027   ----------------------------------------
 BYTE   N08  Ds4  v100
 BYTE   N08  Bn4  v108
 BYTE   W12
 BYTE   Fs4  v092
 BYTE   W12
 BYTE   N08
 BYTE   W12
 BYTE   Ds4  v100
 BYTE   N08  Bn4  v108
 BYTE   W12
 BYTE   Fs4  v096
 BYTE   W12
 BYTE   N08
 BYTE   W12
 BYTE   Ds4  v100
 BYTE   N08  Bn4  v108
 BYTE   W12
 BYTE   Fs4  v096
 BYTE   W12
// 028   ----------------------------------------
 BYTE   Fs4  v084
 BYTE   W12
 BYTE   Ds4  v100
 BYTE   N08  Bn4  v108
 BYTE   W12
 BYTE   Fs4  v100
 BYTE   W12
 BYTE   N08
 BYTE   W12
 BYTE   N04  Ds4  v080
 BYTE   N04  Bn4  v108
 BYTE   W06
 BYTE   Cs4  v080
 BYTE   N04  An4  v108
 BYTE   W06
 BYTE   An3  v080
 BYTE   N04  Fs4  v108
 BYTE   W05
 BYTE   Fs3  v080
 BYTE   W01
 BYTE   Ds4  v108
 BYTE   W06
 BYTE   N08  Ds3  v080
 BYTE   N08  Bn3  v108
 BYTE   W24
 BYTE   PATT
  POIN2 Label_7_0155A134
// 029   ----------------------------------------
 BYTE   GoTo
  POIN2 Label_7_0155A17E
 BYTE   FINE

//**************** Track 9 (Midi-Chn.8) ****************//

OgreBattleMarchoftheBlackQueenDoorDieRandomWizard_009:
// 000   ----------------------------------------
 BYTE   KEYSH   OgreBattleMarchoftheBlackQueenDoorDieRandomWizard_key+0
 BYTE   VOICE   47
 BYTE   PAN   c_v+0
 BYTE   VOL   32*OgreBattleMarchoftheBlackQueenDoorDieRandomWizard_mvl/mxv
 BYTE   N10  Fn1  v120
 BYTE   W12
 BYTE   Fn1  v076
 BYTE   W12
 BYTE   N10
 BYTE   W12
 BYTE   N10
 BYTE   W12
 BYTE   Fn1  v080
 BYTE   W12
 BYTE   N10
 BYTE   W12
 BYTE   N08  Cn1  v104
 BYTE   W10
 BYTE   N05  Cn1  v112
 BYTE   W08
 BYTE   Cn1  v096
 BYTE   W06
// 001   ----------------------------------------
 BYTE   N10  Fn1  v120
 BYTE   W12
 BYTE   N05  Cn1  v096
 BYTE   W06
 BYTE   Cn1  v100
 BYTE   W06
 BYTE   Cn1  v096
 BYTE   W12
 BYTE   Fn1  v116
 BYTE   W12
 BYTE   Cn1  v096
 BYTE   W06
 BYTE   N05
 BYTE   W06
 BYTE   N05
 BYTE   W12
 BYTE   Fn1  v108
 BYTE   W06
 BYTE   Cn1  v096
 BYTE   W06
 BYTE   N05
 BYTE   W06
 BYTE   N05
 BYTE   W06
// 002   ----------------------------------------
 BYTE   En1  v108
 BYTE   W12
 BYTE   En1  v092
 BYTE   W06
 BYTE   N05
 BYTE   W06
 BYTE   En1  v104
 BYTE   W12
 BYTE   Fn1
 BYTE   W12
 BYTE   Fn1  v092
 BYTE   W06
 BYTE   Fn1  v096
 BYTE   W06
 BYTE   Fn1  v104
 BYTE   W12
 BYTE   Fs1
 BYTE   W12
 BYTE   Fs1  v096
 BYTE   W06
 BYTE   N05
 BYTE   W06
// 003   ----------------------------------------
 BYTE   Fs1  v108
 BYTE   W12
 BYTE   Gn1
 BYTE   W12
 BYTE   Gn1  v092
 BYTE   W06
 BYTE   Gn1  v096
 BYTE   W06
 BYTE   Gn1  v108
 BYTE   W12
 BYTE   Gs1  v104
 BYTE   W12
 BYTE   Gs1  v096
 BYTE   W06
 BYTE   Gs1  v104
 BYTE   W06
 BYTE   An1  v080
 BYTE   W06
 BYTE   An1  v096
 BYTE   W06
 BYTE   An1  v104
 BYTE   W06
 BYTE   En1
 BYTE   W06
// 004   ----------------------------------------
Label_8_0155A714:
 BYTE   N05  En1  v096
 BYTE   W12
 BYTE   N05
 BYTE   W12
 BYTE   N05
 BYTE   W12
 BYTE   N05
 BYTE   W12
 BYTE   N05
 BYTE   W12
 BYTE   N05
 BYTE   W12
 BYTE   En1  v088
 BYTE   W06
 BYTE   En1  v092
 BYTE   W06
 BYTE   En1  v096
 BYTE   W12
 BYTE   PEND 
// 005   ----------------------------------------
Label_8_0155A72C:
 BYTE   N05  Fn1  v100
 BYTE   W12
 BYTE   N05
 BYTE   W12
 BYTE   N05
 BYTE   W12
 BYTE   N05
 BYTE   W12
 BYTE   Fn1  v096
 BYTE   W12
 BYTE   N05
 BYTE   W12
 BYTE   Fn1  v092
 BYTE   W06
 BYTE   N05
 BYTE   W06
 BYTE   Fn1  v096
 BYTE   W12
 BYTE   PEND 
 BYTE   PATT
  POIN2 Label_8_0155A714
 BYTE   PATT
  POIN2 Label_8_0155A72C
 BYTE   PATT
  POIN2 Label_8_0155A714
 BYTE   PATT
  POIN2 Label_8_0155A72C
 BYTE   PATT
  POIN2 Label_8_0155A714
// 006   ----------------------------------------
 BYTE   N05  Fn1  v100
 BYTE   W12
 BYTE   N05
 BYTE   W12
 BYTE   N05
 BYTE   W12
 BYTE   N05
 BYTE   W12
 BYTE   Fn1  v096
 BYTE   W12
 BYTE   N05
 BYTE   W12
 BYTE   Fn1  v092
 BYTE   W06
 BYTE   N05
 BYTE   W06
 BYTE   Fn1  v096
 BYTE   W06
 BYTE   Fn1  v092
 BYTE   W06
// 007   ----------------------------------------
 BYTE   En1  v108
 BYTE   W96
// 008   ----------------------------------------
 BYTE   En1  v120
 BYTE   W12
 BYTE   N04  En1  v096
 BYTE   W06
 BYTE   En1  v076
 BYTE   W06
 BYTE   En1  v120
 BYTE   W12
 BYTE   En1  v108
 BYTE   W06
 BYTE   En1  v072
 BYTE   W06
 BYTE   En1  v116
 BYTE   W12
 BYTE   En1  v096
 BYTE   W12
 BYTE   En1  v112
 BYTE   W06
 BYTE   En1  v084
 BYTE   W06
 BYTE   En1  v108
 BYTE   W06
 BYTE   En1  v084
 BYTE   W06
// 009   ----------------------------------------
 BYTE   En1  v104
 BYTE   W96
// 010   ----------------------------------------
 BYTE   En1  v120
 BYTE   W12
 BYTE   En1  v088
 BYTE   W06
 BYTE   En1  v108
 BYTE   W06
 BYTE   En1  v112
 BYTE   W12
 BYTE   En1  v088
 BYTE   W06
 BYTE   En1  v092
 BYTE   W06
 BYTE   En1  v116
 BYTE   W12
 BYTE   En1  v104
 BYTE   W12
 BYTE   En1  v096
 BYTE   W06
 BYTE   N04
 BYTE   W06
 BYTE   N04
 BYTE   W06
 BYTE   N04
 BYTE   W06
// 011   ----------------------------------------
 BYTE   Dn1  v092
 BYTE   W06
 BYTE   Dn1  v068
 BYTE   W06
 BYTE   N04
 BYTE   W06
 BYTE   N04
 BYTE   W06
 BYTE   Dn1  v064
 BYTE   W06
 BYTE   N04
 BYTE   W06
 BYTE   Dn1  v096
 BYTE   W06
 BYTE   Dn1  v064
 BYTE   W06
 BYTE   N04
 BYTE   W06
 BYTE   N04
 BYTE   W06
 BYTE   N04
 BYTE   W06
 BYTE   N04
 BYTE   W06
 BYTE   Dn1  v096
 BYTE   W06
 BYTE   Dn1  v064
 BYTE   W06
 BYTE   Dn1  v068
 BYTE   W06
 BYTE   N04
 BYTE   W06
// 012   ----------------------------------------
 BYTE   N04
 BYTE   W06
 BYTE   N04
 BYTE   W06
 BYTE   Dn1  v096
 BYTE   W06
 BYTE   Dn1  v064
 BYTE   W06
 BYTE   Dn1  v068
 BYTE   W06
 BYTE   N04
 BYTE   W06
 BYTE   N04
 BYTE   W06
 BYTE   N04
 BYTE   W06
 BYTE   Dn1  v096
 BYTE   W06
 BYTE   Dn1  v068
 BYTE   W06
 BYTE   Dn1  v064
 BYTE   W06
 BYTE   N04
 BYTE   W06
 BYTE   Dn1  v096
 BYTE   W06
 BYTE   Dn1  v064
 BYTE   W06
 BYTE   Dn1  v068
 BYTE   W06
 BYTE   N04
 BYTE   W06
// 013   ----------------------------------------
 BYTE   Dn1  v100
 BYTE   W06
 BYTE   Dn1  v064
 BYTE   W06
 BYTE   Dn1  v068
 BYTE   W06
 BYTE   N04
 BYTE   W06
 BYTE   N04
 BYTE   W06
 BYTE   N04
 BYTE   W06
 BYTE   Dn1  v100
 BYTE   W06
 BYTE   Dn1  v064
 BYTE   W06
 BYTE   N04
 BYTE   W06
 BYTE   Dn1  v068
 BYTE   W06
 BYTE   N04
 BYTE   W06
 BYTE   N04
 BYTE   W06
 BYTE   Dn1  v096
 BYTE   W06
 BYTE   Dn1  v068
 BYTE   W06
 BYTE   N04
 BYTE   W06
 BYTE   N04
 BYTE   W06
// 014   ----------------------------------------
 BYTE   N04
 BYTE   W06
 BYTE   Dn1  v064
 BYTE   W06
 BYTE   Dn1  v100
 BYTE   W06
 BYTE   Dn1  v064
 BYTE   W06
 BYTE   N04
 BYTE   W06
 BYTE   N04
 BYTE   W06
 BYTE   N04
 BYTE   W06
 BYTE   Dn1  v068
 BYTE   W06
 BYTE   Dn1  v100
 BYTE   W06
 BYTE   Dn1  v064
 BYTE   W06
 BYTE   N04
 BYTE   W06
 BYTE   Dn1  v068
 BYTE   W06
 BYTE   Dn1  v096
 BYTE   W06
 BYTE   Dn1  v068
 BYTE   W06
 BYTE   N04
 BYTE   W06
 BYTE   N04
 BYTE   W06
// 015   ----------------------------------------
 BYTE   Ds1  v104
 BYTE   W06
 BYTE   Ds1  v072
 BYTE   W06
 BYTE   Ds1  v068
 BYTE   W06
 BYTE   N04
 BYTE   W06
 BYTE   N04
 BYTE   W06
 BYTE   N04
 BYTE   W06
 BYTE   Ds1  v104
 BYTE   W06
 BYTE   Ds1  v068
 BYTE   W06
 BYTE   N04
 BYTE   W06
 BYTE   Ds1  v064
 BYTE   W06
 BYTE   N04
 BYTE   W06
 BYTE   N04
 BYTE   W06
 BYTE   Ds1  v104
 BYTE   W06
 BYTE   Ds1  v064
 BYTE   W06
 BYTE   N04
 BYTE   W06
 BYTE   N04
 BYTE   W06
// 016   ----------------------------------------
 BYTE   N04
 BYTE   W06
 BYTE   N04
 BYTE   W06
 BYTE   Ds1  v108
 BYTE   W06
 BYTE   Ds1  v064
 BYTE   W06
 BYTE   N04
 BYTE   W06
 BYTE   N04
 BYTE   W06
 BYTE   N04
 BYTE   W06
 BYTE   N04
 BYTE   W06
 BYTE   Ds1  v104
 BYTE   W06
 BYTE   Ds1  v068
 BYTE   W06
 BYTE   N04
 BYTE   W06
 BYTE   N04
 BYTE   W06
 BYTE   Ds1  v104
 BYTE   W06
 BYTE   Ds1  v072
 BYTE   W06
 BYTE   N04
 BYTE   W06
 BYTE   N04
 BYTE   W06
// 017   ----------------------------------------
 BYTE   Ds1  v104
 BYTE   W06
 BYTE   Ds1  v068
 BYTE   W06
 BYTE   N04
 BYTE   W06
 BYTE   N04
 BYTE   W06
 BYTE   N04
 BYTE   W06
 BYTE   N04
 BYTE   W06
 BYTE   Ds1  v104
 BYTE   W06
 BYTE   Ds1  v072
 BYTE   W06
 BYTE   N04
 BYTE   W06
 BYTE   N04
 BYTE   W06
 BYTE   N04
 BYTE   W06
 BYTE   N04
 BYTE   W06
 BYTE   Ds1  v104
 BYTE   W06
 BYTE   Ds1  v072
 BYTE   W06
 BYTE   N04
 BYTE   W06
 BYTE   N04
 BYTE   W06
// 018   ----------------------------------------
 BYTE   N04
 BYTE   W06
 BYTE   N04
 BYTE   W06
 BYTE   Ds1  v100
 BYTE   W06
 BYTE   Ds1  v072
 BYTE   W06
 BYTE   N04
 BYTE   W06
 BYTE   N04
 BYTE   W06
 BYTE   N04
 BYTE   W06
 BYTE   N04
 BYTE   W06
 BYTE   Ds1  v104
 BYTE   W06
 BYTE   Ds1  v072
 BYTE   W06
 BYTE   N04
 BYTE   W06
 BYTE   N04
 BYTE   W06
 BYTE   Ds1  v108
 BYTE   W06
 BYTE   Ds1  v076
 BYTE   W06
 BYTE   N04
 BYTE   W06
 BYTE   N04
 BYTE   W06
// 019   ----------------------------------------
 BYTE   En1  v104
 BYTE   W06
 BYTE   En1  v084
 BYTE   W06
 BYTE   N04
 BYTE   W06
 BYTE   N04
 BYTE   W06
 BYTE   N04
 BYTE   W06
 BYTE   N04
 BYTE   W06
 BYTE   En1  v100
 BYTE   W06
 BYTE   En1  v084
 BYTE   W06
 BYTE   N04
 BYTE   W06
 BYTE   N04
 BYTE   W06
 BYTE   N04
 BYTE   W06
 BYTE   N04
 BYTE   W06
 BYTE   En1  v104
 BYTE   W06
 BYTE   En1  v084
 BYTE   W06
 BYTE   N04
 BYTE   W06
 BYTE   N04
 BYTE   W06
// 020   ----------------------------------------
 BYTE   N04
 BYTE   W06
 BYTE   N04
 BYTE   W06
 BYTE   En1  v108
 BYTE   W06
 BYTE   En1  v084
 BYTE   W06
 BYTE   N04
 BYTE   W06
 BYTE   N04
 BYTE   W06
 BYTE   En1  v088
 BYTE   W06
 BYTE   N04
 BYTE   W06
 BYTE   En1  v108
 BYTE   W06
 BYTE   En1  v084
 BYTE   W06
 BYTE   N04
 BYTE   W06
 BYTE   N04
 BYTE   W06
 BYTE   En1  v108
 BYTE   W06
 BYTE   En1  v088
 BYTE   W06
 BYTE   N04
 BYTE   W06
 BYTE   N04
 BYTE   W06
// 021   ----------------------------------------
 BYTE   En1  v108
 BYTE   W06
 BYTE   En1  v088
 BYTE   W06
 BYTE   N04
 BYTE   W06
 BYTE   N04
 BYTE   W06
 BYTE   N04
 BYTE   W06
 BYTE   N04
 BYTE   W06
 BYTE   En1  v108
 BYTE   W06
 BYTE   En1  v092
 BYTE   W06
 BYTE   En1  v088
 BYTE   W06
 BYTE   N04
 BYTE   W06
 BYTE   En1  v092
 BYTE   W06
 BYTE   N04
 BYTE   W06
 BYTE   En1  v112
 BYTE   W06
 BYTE   En1  v088
 BYTE   W06
 BYTE   N04
 BYTE   W06
 BYTE   N04
 BYTE   W06
// 022   ----------------------------------------
 BYTE   N04
 BYTE   W06
 BYTE   N04
 BYTE   W06
 BYTE   En1  v112
 BYTE   W06
 BYTE   En1  v088
 BYTE   W06
 BYTE   N04
 BYTE   W06
 BYTE   N04
 BYTE   W06
 BYTE   N04
 BYTE   W06
 BYTE   N04
 BYTE   W06
 BYTE   En1  v112
 BYTE   W06
 BYTE   En1  v088
 BYTE   W06
 BYTE   En1  v084
 BYTE   W06
 BYTE   En1  v088
 BYTE   W06
 BYTE   En1  v108
 BYTE   W06
 BYTE   En1  v092
 BYTE   W06
 BYTE   N04
 BYTE   W06
 BYTE   N04
 BYTE   W06
// 023   ----------------------------------------
 BYTE   N03  Cn1  v112
 BYTE   W84
 BYTE   N04  Cn1  v092
 BYTE   W06
 BYTE   N04
 BYTE   W06
// 024   ----------------------------------------
 BYTE   Fs1  v108
 BYTE   W24
 BYTE   Cn1  v096
 BYTE   W06
 BYTE   N04
 BYTE   W06
 BYTE   Cn1  v112
 BYTE   W12
 BYTE   Fs1
 BYTE   W06
 BYTE   N03  Cn1  v072
 BYTE   W06
 BYTE   N04  Fs1  v096
 BYTE   W06
 BYTE   N04
 BYTE   W06
 BYTE   N04
 BYTE   W06
 BYTE   Fs1  v100
 BYTE   W06
 BYTE   N04
 BYTE   W06
 BYTE   Fs1  v104
 BYTE   W06
// 025   ----------------------------------------
 BYTE   N03  Cs1  v112
 BYTE   W84
 BYTE   N04  Cs1  v092
 BYTE   W06
 BYTE   N04
 BYTE   W06
// 026   ----------------------------------------
 BYTE   Gn1  v108
 BYTE   W24
 BYTE   Cs1  v096
 BYTE   W06
 BYTE   N04
 BYTE   W06
 BYTE   Cs1  v112
 BYTE   W12
 BYTE   Gn1
 BYTE   W06
 BYTE   N03  Cs1  v072
 BYTE   W06
 BYTE   N04  Gn1  v096
 BYTE   W06
 BYTE   N04
 BYTE   W06
 BYTE   N04
 BYTE   W06
 BYTE   Gn1  v100
 BYTE   W06
 BYTE   N04
 BYTE   W06
 BYTE   Gn1  v104
 BYTE   W06
// 027   ----------------------------------------
 BYTE   W24
 BYTE   N02  Cs1  v036
 BYTE   W03
 BYTE   N02
 BYTE   W03
 BYTE   N02
 BYTE   W03
 BYTE   N02
 BYTE   W03
 BYTE   Cs1  v044
 BYTE   W03
 BYTE   N02
 BYTE   W03
 BYTE   N02
 BYTE   W03
 BYTE   N02
 BYTE   W03
 BYTE   Cs1  v060
 BYTE   W03
 BYTE   Cs1  v048
 BYTE   W03
 BYTE   Cs1  v052
 BYTE   W03
 BYTE   Cs1  v048
 BYTE   W03
 BYTE   Cs1  v060
 BYTE   W03
 BYTE   Cs1  v048
 BYTE   W03
 BYTE   Cs1  v052
 BYTE   W03
 BYTE   Cs1  v048
 BYTE   W03
 BYTE   Cs1  v060
 BYTE   W03
 BYTE   Cs1  v052
 BYTE   W03
 BYTE   Cs1  v056
 BYTE   W03
 BYTE   Cs1  v052
 BYTE   W03
 BYTE   Cs1  v060
 BYTE   W03
 BYTE   Cs1  v052
 BYTE   W03
 BYTE   Cs1  v056
 BYTE   W03
 BYTE   Cs1  v052
 BYTE   W03
// 028   ----------------------------------------
 BYTE   Cs1  v076
 BYTE   W03
 BYTE   Cs1  v064
 BYTE   W03
 BYTE   Cs1  v068
 BYTE   W03
 BYTE   Cs1  v064
 BYTE   W03
 BYTE   Cs1  v072
 BYTE   W03
 BYTE   Cs1  v064
 BYTE   W03
 BYTE   Cs1  v072
 BYTE   W03
 BYTE   Cs1  v064
 BYTE   W03
 BYTE   Cs1  v072
 BYTE   W03
 BYTE   Cs1  v064
 BYTE   W03
 BYTE   Cs1  v068
 BYTE   W03
 BYTE   Cs1  v064
 BYTE   W03
 BYTE   Cs1  v072
 BYTE   W03
 BYTE   Cs1  v064
 BYTE   W03
 BYTE   Cs1  v072
 BYTE   W03
 BYTE   Cs1  v064
 BYTE   W03
 BYTE   Cs1  v088
 BYTE   W03
 BYTE   Cs1  v080
 BYTE   W03
 BYTE   Cs1  v084
 BYTE   W03
 BYTE   Cs1  v076
 BYTE   W03
 BYTE   Cs1  v084
 BYTE   W03
 BYTE   Cs1  v076
 BYTE   W03
 BYTE   Cs1  v084
 BYTE   W03
 BYTE   Cs1  v076
 BYTE   W03
 BYTE   Cs1  v084
 BYTE   W03
 BYTE   Cs1  v076
 BYTE   W03
 BYTE   Cs1  v084
 BYTE   W03
 BYTE   Cs1  v076
 BYTE   W03
 BYTE   Cs1  v084
 BYTE   W03
 BYTE   Cs1  v076
 BYTE   W03
 BYTE   Cs1  v084
 BYTE   W03
 BYTE   Cs1  v076
 BYTE   W03
// 029   ----------------------------------------
 BYTE   N04  Fn1  v116
 BYTE   W12
 BYTE   N04
 BYTE   W06
 BYTE   Fn1  v088
 BYTE   W06
 BYTE   Fn1  v116
 BYTE   W12
 BYTE   N04
 BYTE   W12
 BYTE   N04
 BYTE   W06
 BYTE   Fn1  v088
 BYTE   W06
 BYTE   Fn1  v116
 BYTE   W12
 BYTE   Fn1  v120
 BYTE   W12
 BYTE   Fn1  v116
 BYTE   W06
 BYTE   Fn1  v088
 BYTE   W06
// 030   ----------------------------------------
 BYTE   N04
 BYTE   W12
 BYTE   Fn1  v120
 BYTE   W12
 BYTE   Fn1  v124
 BYTE   W06
 BYTE   Fn1  v088
 BYTE   W06
 BYTE   Fn1  v120
 BYTE   W06
 BYTE   Fn1  v088
 BYTE   W06
 BYTE   Fn1  v116
 BYTE   W06
 BYTE   Fn1  v088
 BYTE   W06
 BYTE   Fn1  v116
 BYTE   W06
 BYTE   Fn1  v088
 BYTE   W06
 BYTE   Fn1  v116
 BYTE   W24
 BYTE   PATT
  POIN2 Label_8_0155A714
// 031   ----------------------------------------
 BYTE   GoTo
  POIN2 Label_8_0155A72C
 BYTE   FINE

//**************** Track 10 (Midi-Chn.9) ****************//

OgreBattleMarchoftheBlackQueenDoorDieRandomWizard_010:
// 000   ----------------------------------------
 BYTE   KEYSH   OgreBattleMarchoftheBlackQueenDoorDieRandomWizard_key+0
 BYTE   VOICE   1
 BYTE   PAN   c_v+0
 BYTE   VOL   28*OgreBattleMarchoftheBlackQueenDoorDieRandomWizard_mvl/mxv
 BYTE   N01  En2  v127
 BYTE   W96
// 001   ----------------------------------------
 BYTE   W96
// 002   ----------------------------------------
 BYTE   W96
// 003   ----------------------------------------
 BYTE   W96
// 004   ----------------------------------------
 BYTE   W96
// 005   ----------------------------------------
Label_9_0155AAF0:
 BYTE   W96
// 006   ----------------------------------------
 BYTE   W96
// 007   ----------------------------------------
 BYTE   W96
// 008   ----------------------------------------
 BYTE   W96
// 009   ----------------------------------------
 BYTE   W96
// 010   ----------------------------------------
 BYTE   W96
// 011   ----------------------------------------
 BYTE   W96
// 012   ----------------------------------------
 BYTE   N03  En2  v120
 BYTE   W96
// 013   ----------------------------------------
 BYTE   W96
// 014   ----------------------------------------
 BYTE   N03
 BYTE   W96
// 015   ----------------------------------------
 BYTE   W96
// 016   ----------------------------------------
 BYTE   W96
// 017   ----------------------------------------
 BYTE   W96
// 018   ----------------------------------------
 BYTE   W96
// 019   ----------------------------------------
 BYTE   W96
// 020   ----------------------------------------
 BYTE   W96
// 021   ----------------------------------------
 BYTE   W96
// 022   ----------------------------------------
 BYTE   W96
// 023   ----------------------------------------
 BYTE   W96
// 024   ----------------------------------------
 BYTE   W96
// 025   ----------------------------------------
 BYTE   W96
// 026   ----------------------------------------
 BYTE   W96
// 027   ----------------------------------------
 BYTE   W96
// 028   ----------------------------------------
 BYTE   En2  v124
 BYTE   W96
// 029   ----------------------------------------
 BYTE   W96
// 030   ----------------------------------------
 BYTE   N03
 BYTE   W96
// 031   ----------------------------------------
 BYTE   W96
// 032   ----------------------------------------
 BYTE   W96
// 033   ----------------------------------------
 BYTE   W96
// 034   ----------------------------------------
 BYTE   En2  v127
 BYTE   W96
// 035   ----------------------------------------
 BYTE   En2  v124
 BYTE   W96
// 036   ----------------------------------------
 BYTE   W96
// 037   ----------------------------------------
 BYTE   GoTo
  POIN2 Label_9_0155AAF0
 BYTE   FINE

//**************** Track 11 (Midi-Chn.10) ****************//

OgreBattleMarchoftheBlackQueenDoorDieRandomWizard_011:
// 000   ----------------------------------------
 BYTE   KEYSH   OgreBattleMarchoftheBlackQueenDoorDieRandomWizard_key+0
 BYTE   VOICE   48
 BYTE   PAN   c_v+16
 BYTE   VOL   22*OgreBattleMarchoftheBlackQueenDoorDieRandomWizard_mvl/mxv
 BYTE   W96
// 001   ----------------------------------------
 BYTE   W96
// 002   ----------------------------------------
 BYTE   W96
// 003   ----------------------------------------
 BYTE   W96
// 004   ----------------------------------------
 BYTE   W96
// 005   ----------------------------------------
Label_10_0155AB31:
 BYTE   W96
// 006   ----------------------------------------
 BYTE   W96
// 007   ----------------------------------------
 BYTE   W96
// 008   ----------------------------------------
 BYTE   W96
// 009   ----------------------------------------
 BYTE   W96
// 010   ----------------------------------------
 BYTE   W96
// 011   ----------------------------------------
 BYTE   W96
// 012   ----------------------------------------
 BYTE   W96
// 013   ----------------------------------------
 BYTE   W96
// 014   ----------------------------------------
 BYTE   W96
// 015   ----------------------------------------
 BYTE   W96
// 016   ----------------------------------------
 BYTE   W96
// 017   ----------------------------------------
 BYTE   W96
// 018   ----------------------------------------
 BYTE   W96
// 019   ----------------------------------------
 BYTE   W12
 BYTE   N04  An4  v044
 BYTE   W05
 BYTE   As4  v056
 BYTE   W07
 BYTE   An4  v068
 BYTE   W06
 BYTE   As4  v076
 BYTE   W06
 BYTE   An4
 BYTE   W05
 BYTE   As4  v080
 BYTE   W06
 BYTE   An4
 BYTE   W06
 BYTE   As4
 BYTE   W06
 BYTE   An4  v084
 BYTE   W07
 BYTE   As4
 BYTE   W06
 BYTE   An4  v088
 BYTE   W06
 BYTE   As4
 BYTE   W06
 BYTE   An4  v100
 BYTE   W05
 BYTE   As4
 BYTE   W07
// 020   ----------------------------------------
 BYTE   W96
// 021   ----------------------------------------
 BYTE   W96
// 022   ----------------------------------------
 BYTE   W96
// 023   ----------------------------------------
 BYTE   W12
 BYTE   As4  v044
 BYTE   W05
 BYTE   Bn4  v056
 BYTE   W07
 BYTE   As4  v068
 BYTE   W05
 BYTE   Bn4  v076
 BYTE   W07
 BYTE   As4
 BYTE   W06
 BYTE   Bn4  v080
 BYTE   W05
 BYTE   As4
 BYTE   W06
 BYTE   Bn4
 BYTE   W07
 BYTE   As4  v084
 BYTE   W06
 BYTE   Bn4
 BYTE   W05
 BYTE   As4  v088
 BYTE   W07
 BYTE   Bn4
 BYTE   W06
 BYTE   As4  v100
 BYTE   W06
 BYTE   Bn4
 BYTE   W06
// 024   ----------------------------------------
 BYTE   W96
// 025   ----------------------------------------
 BYTE   W96
// 026   ----------------------------------------
 BYTE   W96
// 027   ----------------------------------------
 BYTE   W12
 BYTE   Bn4  v044
 BYTE   W05
 BYTE   Cn5  v056
 BYTE   W07
 BYTE   Bn4  v068
 BYTE   W05
 BYTE   Cn5  v076
 BYTE   W07
 BYTE   Bn4
 BYTE   W05
 BYTE   Cn5  v080
 BYTE   W07
 BYTE   Bn4
 BYTE   W05
 BYTE   Cn5
 BYTE   W06
 BYTE   Bn4  v084
 BYTE   W06
 BYTE   Cn5
 BYTE   W06
 BYTE   Bn4  v088
 BYTE   W06
 BYTE   Cn5
 BYTE   W07
 BYTE   Bn4  v100
 BYTE   W05
 BYTE   Cn5
 BYTE   W07
// 028   ----------------------------------------
 BYTE   W96
// 029   ----------------------------------------
 BYTE   W96
// 030   ----------------------------------------
 BYTE   W96
// 031   ----------------------------------------
 BYTE   W96
// 032   ----------------------------------------
 BYTE   W96
// 033   ----------------------------------------
 BYTE   W92
 BYTE   W03
 BYTE   N08  Ds3  v108
 BYTE   N08  Bn3  v120
 BYTE   W01
// 034   ----------------------------------------
 BYTE   W12
 BYTE   Fs3  v100
 BYTE   W12
 BYTE   N08
 BYTE   W11
 BYTE   Ds3  v108
 BYTE   N08  Bn3  v120
 BYTE   W13
 BYTE   Fs3  v104
 BYTE   W11
 BYTE   N08
 BYTE   W13
 BYTE   Ds3  v108
 BYTE   N08  Bn3  v120
 BYTE   W11
 BYTE   Fs3  v104
 BYTE   W13
// 035   ----------------------------------------
 BYTE   Fs3  v092
 BYTE   W12
 BYTE   Ds3  v108
 BYTE   N08  Bn3  v120
 BYTE   W12
 BYTE   Fs3  v108
 BYTE   W11
 BYTE   N08
 BYTE   W12
 BYTE   N04  Bn3  v120
 BYTE   W01
 BYTE   Ds3  v084
 BYTE   W05
 BYTE   Cs3
 BYTE   W01
 BYTE   An3  v120
 BYTE   W05
 BYTE   An2  v084
 BYTE   W01
 BYTE   Fs3  v120
 BYTE   W05
 BYTE   Fs2  v084
 BYTE   N04  Ds3  v120
 BYTE   W07
 BYTE   N08  Ds2  v084
 BYTE   N08  Bn2  v120
 BYTE   W24
// 036   ----------------------------------------
 BYTE   W96
// 037   ----------------------------------------
 BYTE   GoTo
  POIN2 Label_10_0155AB31
 BYTE   FINE

//**************** Track 12 (Midi-Chn.11) ****************//

OgreBattleMarchoftheBlackQueenDoorDieRandomWizard_012:
// 000   ----------------------------------------
 BYTE   KEYSH   OgreBattleMarchoftheBlackQueenDoorDieRandomWizard_key+0
 BYTE   VOICE   127
 BYTE   PAN   c_v+0
 BYTE   VOL   35*OgreBattleMarchoftheBlackQueenDoorDieRandomWizard_mvl/mxv
 BYTE   W96
// 001   ----------------------------------------
 BYTE   W72
 BYTE   N06  Dn1  v056
 BYTE   W06
 BYTE   N03  Dn1  v080
 BYTE   W06
 BYTE   Dn1  v092
 BYTE   W06
 BYTE   Dn1  v108
 BYTE   W06
// 002   ----------------------------------------
 BYTE   Dn1  v096
 BYTE   W12
 BYTE   Dn1  v056
 BYTE   W06
 BYTE   Dn1  v064
 BYTE   W06
 BYTE   Dn1  v068
 BYTE   W12
 BYTE   Dn1  v108
 BYTE   W12
 BYTE   Dn1  v060
 BYTE   W06
 BYTE   Dn1  v068
 BYTE   W06
 BYTE   N03
 BYTE   W12
 BYTE   Dn1  v108
 BYTE   W12
 BYTE   Dn1  v060
 BYTE   W06
 BYTE   Dn1  v072
 BYTE   W06
// 003   ----------------------------------------
 BYTE   Dn1  v068
 BYTE   W12
 BYTE   Dn1  v108
 BYTE   W12
 BYTE   Dn1  v056
 BYTE   W06
 BYTE   Dn1  v064
 BYTE   W06
 BYTE   Dn1  v068
 BYTE   W12
 BYTE   Dn1  v108
 BYTE   W12
 BYTE   Dn1  v096
 BYTE   W06
 BYTE   N03
 BYTE   W06
 BYTE   Dn1  v064
 BYTE   W06
 BYTE   Dn1  v084
 BYTE   W06
 BYTE   Dn1  v116
 BYTE   W06
 BYTE   Dn1  v092
 BYTE   W06
// 004   ----------------------------------------
Label_11_0155AC6F:
 BYTE   N03  Dn1  v116
 BYTE   W12
 BYTE   Dn1  v072
 BYTE   W06
 BYTE   Dn1  v076
 BYTE   W06
 BYTE   Dn1  v084
 BYTE   W12
 BYTE   Dn1  v112
 BYTE   W12
 BYTE   Dn1  v076
 BYTE   W06
 BYTE   Dn1  v072
 BYTE   W06
 BYTE   Dn1  v080
 BYTE   W12
 BYTE   Dn1  v076
 BYTE   W06
 BYTE   N03
 BYTE   W06
 BYTE   Dn1  v116
 BYTE   W12
 BYTE   PEND 
// 005   ----------------------------------------
Label_11_0155AC91:
 BYTE   PATT
  POIN2 Label_11_0155AC6F
 BYTE   PATT
  POIN2 Label_11_0155AC6F
 BYTE   PATT
  POIN2 Label_11_0155AC6F
 BYTE   PATT
  POIN2 Label_11_0155AC6F
 BYTE   PATT
  POIN2 Label_11_0155AC6F
 BYTE   PATT
  POIN2 Label_11_0155AC6F
// 006   ----------------------------------------
 BYTE   N03  Dn1  v116
 BYTE   W12
 BYTE   Dn1  v072
 BYTE   W06
 BYTE   Dn1  v076
 BYTE   W06
 BYTE   Dn1  v084
 BYTE   W12
 BYTE   Dn1  v112
 BYTE   W12
 BYTE   Dn1  v076
 BYTE   W06
 BYTE   Dn1  v072
 BYTE   W06
 BYTE   Dn1  v080
 BYTE   W12
 BYTE   Dn1  v076
 BYTE   W06
 BYTE   N03
 BYTE   W06
 BYTE   Dn1  v116
 BYTE   W06
 BYTE   N05  Dn1  v108
 BYTE   W06
// 007   ----------------------------------------
 BYTE   W96
// 008   ----------------------------------------
 BYTE   W60
 BYTE   N03  Dn1  v084
 BYTE   W12
 BYTE   Dn1  v100
 BYTE   W12
 BYTE   N03
 BYTE   W12
// 009   ----------------------------------------
 BYTE   W96
// 010   ----------------------------------------
 BYTE   W96
// 011   ----------------------------------------
Label_11_0155ACE1:
 BYTE   N03  Dn1  v084
 BYTE   W06
 BYTE   Dn1  v044
 BYTE   W06
 BYTE   N03
 BYTE   W06
 BYTE   Dn1  v060
 BYTE   W06
 BYTE   Dn1  v044
 BYTE   W06
 BYTE   Dn1  v056
 BYTE   W06
 BYTE   Dn1  v088
 BYTE   W06
 BYTE   Dn1  v044
 BYTE   W06
 BYTE   N03
 BYTE   W06
 BYTE   Dn1  v060
 BYTE   W06
 BYTE   Dn1  v044
 BYTE   W06
 BYTE   Dn1  v060
 BYTE   W06
 BYTE   Dn1  v088
 BYTE   W06
 BYTE   Dn1  v044
 BYTE   W06
 BYTE   N03
 BYTE   W06
 BYTE   Dn1  v060
 BYTE   W06
 BYTE   PEND 
// 012   ----------------------------------------
Label_11_0155AD10:
 BYTE   N03  Dn1  v048
 BYTE   W06
 BYTE   Dn1  v060
 BYTE   W06
 BYTE   Dn1  v084
 BYTE   W06
 BYTE   Dn1  v048
 BYTE   W06
 BYTE   N03
 BYTE   W06
 BYTE   Dn1  v064
 BYTE   W06
 BYTE   Dn1  v048
 BYTE   W06
 BYTE   Dn1  v064
 BYTE   W06
 BYTE   Dn1  v088
 BYTE   W06
 BYTE   Dn1  v044
 BYTE   W06
 BYTE   N03
 BYTE   W06
 BYTE   Dn1  v064
 BYTE   W06
 BYTE   Dn1  v088
 BYTE   W06
 BYTE   Dn1  v044
 BYTE   W06
 BYTE   Dn1  v060
 BYTE   W06
 BYTE   N03
 BYTE   W06
 BYTE   PEND 
// 013   ----------------------------------------
Label_11_0155AD3F:
 BYTE   N03  Dn1  v088
 BYTE   W06
 BYTE   Dn1  v048
 BYTE   W06
 BYTE   N03
 BYTE   W06
 BYTE   Dn1  v064
 BYTE   W06
 BYTE   Dn1  v044
 BYTE   W06
 BYTE   Dn1  v064
 BYTE   W06
 BYTE   Dn1  v084
 BYTE   W06
 BYTE   Dn1  v044
 BYTE   W06
 BYTE   N03
 BYTE   W06
 BYTE   Dn1  v060
 BYTE   W06
 BYTE   Dn1  v044
 BYTE   W06
 BYTE   Dn1  v060
 BYTE   W06
 BYTE   Dn1  v084
 BYTE   W06
 BYTE   Dn1  v044
 BYTE   W06
 BYTE   N03
 BYTE   W06
 BYTE   Dn1  v056
 BYTE   W06
 BYTE   PEND 
// 014   ----------------------------------------
 BYTE   Dn1  v044
 BYTE   W06
 BYTE   Dn1  v056
 BYTE   W06
 BYTE   Dn1  v080
 BYTE   W06
 BYTE   Dn1  v044
 BYTE   W06
 BYTE   N03
 BYTE   W06
 BYTE   Dn1  v060
 BYTE   W06
 BYTE   Dn1  v040
 BYTE   W06
 BYTE   Dn1  v060
 BYTE   W06
 BYTE   Dn1  v076
 BYTE   W06
 BYTE   Dn1  v044
 BYTE   W06
 BYTE   Dn1  v048
 BYTE   W06
 BYTE   Dn1  v060
 BYTE   W06
 BYTE   Dn1  v108
 BYTE   W06
 BYTE   N03
 BYTE   W06
 BYTE   Dn1  v112
 BYTE   W12
 BYTE   PATT
  POIN2 Label_11_0155ACE1
 BYTE   PATT
  POIN2 Label_11_0155AD10
 BYTE   PATT
  POIN2 Label_11_0155AD3F
// 015   ----------------------------------------
 BYTE   N03  Dn1  v044
 BYTE   W06
 BYTE   Dn1  v056
 BYTE   W06
 BYTE   Dn1  v080
 BYTE   W06
 BYTE   Dn1  v044
 BYTE   W06
 BYTE   N03
 BYTE   W06
 BYTE   Dn1  v060
 BYTE   W06
 BYTE   Dn1  v040
 BYTE   W06
 BYTE   Dn1  v060
 BYTE   W06
 BYTE   Dn1  v124
 BYTE   W06
 BYTE   Dn1  v092
 BYTE   W06
 BYTE   N03
 BYTE   W06
 BYTE   N03
 BYTE   W06
 BYTE   Dn1  v108
 BYTE   W06
 BYTE   N03
 BYTE   W06
 BYTE   Dn1  v124
 BYTE   W12
 BYTE   PATT
  POIN2 Label_11_0155ACE1
 BYTE   PATT
  POIN2 Label_11_0155AD10
 BYTE   PATT
  POIN2 Label_11_0155AD3F
// 016   ----------------------------------------
 BYTE   N03  Dn1  v044
 BYTE   W06
 BYTE   Dn1  v056
 BYTE   W06
 BYTE   Dn1  v080
 BYTE   W06
 BYTE   Dn1  v044
 BYTE   W06
 BYTE   N03
 BYTE   W06
 BYTE   Dn1  v060
 BYTE   W06
 BYTE   Dn1  v040
 BYTE   W06
 BYTE   Dn1  v060
 BYTE   W06
 BYTE   Dn1  v124
 BYTE   W12
 BYTE   Dn1  v088
 BYTE   W06
 BYTE   Dn1  v104
 BYTE   W06
 BYTE   Dn1  v124
 BYTE   W12
 BYTE   N03
 BYTE   W12
// 017   ----------------------------------------
 BYTE   W96
// 018   ----------------------------------------
 BYTE   W72
 BYTE   Dn1  v096
 BYTE   W06
 BYTE   Dn1  v100
 BYTE   W06
 BYTE   N03
 BYTE   W06
 BYTE   N03
 BYTE   W06
// 019   ----------------------------------------
 BYTE   W96
// 020   ----------------------------------------
 BYTE   W48
 BYTE   Dn1  v072
 BYTE   W06
 BYTE   Dn1  v076
 BYTE   W06
 BYTE   N03
 BYTE   W06
 BYTE   N03
 BYTE   W06
 BYTE   Dn1  v096
 BYTE   W06
 BYTE   Dn1  v100
 BYTE   W06
 BYTE   Dn1  v116
 BYTE   W06
 BYTE   Dn1  v127
 BYTE   W06
// 021   ----------------------------------------
 BYTE   Dn1  v048
 BYTE   W03
 BYTE   Dn1  v020
 BYTE   W03
 BYTE   Dn1  v036
 BYTE   W03
 BYTE   Dn1  v020
 BYTE   W03
 BYTE   Dn1  v052
 BYTE   W03
 BYTE   Dn1  v020
 BYTE   W03
 BYTE   Dn1  v040
 BYTE   W03
 BYTE   Dn1  v024
 BYTE   W03
 BYTE   Dn1  v052
 BYTE   W03
 BYTE   Dn1  v024
 BYTE   W03
 BYTE   Dn1  v032
 BYTE   W03
 BYTE   Dn1  v024
 BYTE   W03
 BYTE   Dn1  v052
 BYTE   W03
 BYTE   Dn1  v024
 BYTE   W03
 BYTE   Dn1  v040
 BYTE   W03
 BYTE   N02  Dn1  v020
 BYTE   W02
 BYTE   N01  Dn1  v076
 BYTE   W03
 BYTE   Dn1  v036
 BYTE   W03
 BYTE   N02  Dn1  v056
 BYTE   W03
 BYTE   N01  Dn1  v036
 BYTE   W03
 BYTE   Dn1  v056
 BYTE   W03
 BYTE   N02  Dn1  v036
 BYTE   W03
 BYTE   N01  Dn1  v052
 BYTE   W03
 BYTE   N03  Dn1  v044
 BYTE   W03
 BYTE   N02  Dn1  v056
 BYTE   W03
 BYTE   N01  Dn1  v040
 BYTE   W03
 BYTE   Dn1  v056
 BYTE   W03
 BYTE   N02  Dn1  v036
 BYTE   W03
 BYTE   N01  Dn1  v056
 BYTE   W03
 BYTE   N02  Dn1  v036
 BYTE   W03
 BYTE   N01  Dn1  v056
 BYTE   W03
 BYTE   Dn1  v036
 BYTE   W03
 BYTE   N02  Dn1  v104
 BYTE   W01
// 022   ----------------------------------------
 BYTE   W02
 BYTE   N01  Dn1  v048
 BYTE   W03
 BYTE   N02  Dn1  v072
 BYTE   W03
 BYTE   N01  Dn1  v048
 BYTE   W03
 BYTE   N02  Dn1  v072
 BYTE   W03
 BYTE   N01  Dn1  v048
 BYTE   W03
 BYTE   N03  Dn1  v072
 BYTE   W03
 BYTE   N02  Dn1  v048
 BYTE   W03
 BYTE   N01  Dn1  v072
 BYTE   W03
 BYTE   N02  Dn1  v048
 BYTE   W03
 BYTE   N01  Dn1  v072
 BYTE   W03
 BYTE   N03  Dn1  v048
 BYTE   W03
 BYTE   N02  Dn1  v072
 BYTE   W03
 BYTE   N01  Dn1  v048
 BYTE   W03
 BYTE   Dn1  v072
 BYTE   W03
 BYTE   Dn1  v048
 BYTE   W03
 BYTE   N03  Dn1  v124
 BYTE   W03
 BYTE   N02  Dn1  v064
 BYTE   W03
 BYTE   N01  Dn1  v096
 BYTE   W03
 BYTE   N02  Dn1  v064
 BYTE   W03
 BYTE   N01  Dn1  v096
 BYTE   W03
 BYTE   Dn1  v064
 BYTE   W03
 BYTE   N02  Dn1  v092
 BYTE   W03
 BYTE   N01  Dn1  v064
 BYTE   W03
 BYTE   N03  Dn1  v092
 BYTE   W03
 BYTE   Dn1  v064
 BYTE   W03
 BYTE   N02  Dn1  v092
 BYTE   W03
 BYTE   N01  Dn1  v064
 BYTE   W03
 BYTE   Dn1  v092
 BYTE   W03
 BYTE   N02  Dn1  v064
 BYTE   W03
 BYTE   N01  Dn1  v092
 BYTE   W03
 BYTE   N03  Dn1  v064
 BYTE   W04
// 023   ----------------------------------------
 BYTE   W48
 BYTE   Dn1  v072
 BYTE   W12
 BYTE   N03
 BYTE   W06
 BYTE   N03
 BYTE   W06
 BYTE   Dn1  v096
 BYTE   W06
 BYTE   Dn1  v104
 BYTE   W06
 BYTE   Dn1  v116
 BYTE   W12
// 024   ----------------------------------------
 BYTE   W48
 BYTE   Dn1  v060
 BYTE   W06
 BYTE   Dn1  v080
 BYTE   W06
 BYTE   Dn1  v092
 BYTE   W06
 BYTE   Dn1  v096
 BYTE   W06
 BYTE   Dn1  v104
 BYTE   W24
 BYTE   PATT
  POIN2 Label_11_0155AC6F
// 025   ----------------------------------------
 BYTE   GoTo
  POIN2 Label_11_0155AC91
 BYTE   FINE

//******************************************************//
	ALIGN 4

OgreBattleMarchoftheBlackQueenDoorDieRandomWizard:
	BYTE	12	// NumTrks
	BYTE	0	// NumBlks
	BYTE	OgreBattleMarchoftheBlackQueenDoorDieRandomWizard_pri	// Priority
	BYTE	OgreBattleMarchoftheBlackQueenDoorDieRandomWizard_rev	// Reverb.
    
	POIN2	OgreBattleMarchoftheBlackQueenDoorDieRandomWizard_grp
    
	POIN2	OgreBattleMarchoftheBlackQueenDoorDieRandomWizard_001
	POIN2	OgreBattleMarchoftheBlackQueenDoorDieRandomWizard_002
	POIN2	OgreBattleMarchoftheBlackQueenDoorDieRandomWizard_003
	POIN2	OgreBattleMarchoftheBlackQueenDoorDieRandomWizard_004
	POIN2	OgreBattleMarchoftheBlackQueenDoorDieRandomWizard_005
	POIN2	OgreBattleMarchoftheBlackQueenDoorDieRandomWizard_006
	POIN2	OgreBattleMarchoftheBlackQueenDoorDieRandomWizard_007
	POIN2	OgreBattleMarchoftheBlackQueenDoorDieRandomWizard_008
	POIN2	OgreBattleMarchoftheBlackQueenDoorDieRandomWizard_009
	POIN2	OgreBattleMarchoftheBlackQueenDoorDieRandomWizard_010
	POIN2	OgreBattleMarchoftheBlackQueenDoorDieRandomWizard_011
	POIN2	OgreBattleMarchoftheBlackQueenDoorDieRandomWizard_012

	
