//Event file generated from Sappy .s format.
	#include "MPlayDef.event"

	#define	TacticsOgreTheKnightofLodisGloomyPsyche_grp  voicegroup000
	#define	TacticsOgreTheKnightofLodisGloomyPsyche_pri  0
	#define	TacticsOgreTheKnightofLodisGloomyPsyche_rev  132
	#define	TacticsOgreTheKnightofLodisGloomyPsyche_mvl  127
	#define	TacticsOgreTheKnightofLodisGloomyPsyche_key  0
	#define	TacticsOgreTheKnightofLodisGloomyPsyche_tbs  1
	#define	TacticsOgreTheKnightofLodisGloomyPsyche_exg  0
	#define	TacticsOgreTheKnightofLodisGloomyPsyche_cmp  1

	// .rodata
	//	TacticsOgreTheKnightofLodisGloomyPsyche
	ALIGN 4


//**************** Track 1 (Midi-Chn.0) ****************//

TacticsOgreTheKnightofLodisGloomyPsyche_001:
//  #01 //000   ----------------------------------------
 BYTE   KEYSH   TacticsOgreTheKnightofLodisGloomyPsyche_key+0
 BYTE   TEMPO   92*TacticsOgreTheKnightofLodisGloomyPsyche_tbs/2
 BYTE   VOL   49*TacticsOgreTheKnightofLodisGloomyPsyche_mvl/mxv
 BYTE   PAN   c_v+0
 BYTE   W12
Label_0104E9D5:
 BYTE   VOICE   67
 BYTE   W36
 BYTE   N03  Fs3  v112
 BYTE   W08
 BYTE   N02  Gs3
 BYTE   W08
 BYTE   An3
 BYTE   W08
 BYTE   N03  Bn3
 BYTE   W12
 BYTE   N02  An3
 BYTE   W12
//  #01 //001   ----------------------------------------
Label_0104E9E7:
 BYTE   N02  Gs3  v112
 BYTE   W12
 BYTE   N90  Fs3
 BYTE   W84
 BYTE   PEND 
//  #01 //002   ----------------------------------------
 BYTE   W48
 BYTE   N03
 BYTE   W08
 BYTE   N02  Gs3
 BYTE   W08
 BYTE   An3
 BYTE   W08
 BYTE   N03  Bn3
 BYTE   W12
 BYTE   N02  An3
 BYTE   W12
//  #01 //003   ----------------------------------------
 BYTE   PATT
  POIN2 Label_0104E9E7
//  #01 //004   ----------------------------------------
 BYTE   W24
 BYTE   N60  Fs4  v100
 BYTE   W72
//  #01 //005   ----------------------------------------
 BYTE   N04  Cs4
 BYTE   W12
 BYTE   N03  Dn4
 BYTE   W12
 BYTE   N18  En4
 BYTE   W24
 BYTE   N15  Dn4
 BYTE   W24
 BYTE   N17  Cs4
 BYTE   W24
//  #01 //006   ----------------------------------------
 BYTE   N15  Dn4
 BYTE   W24
 BYTE   N04  Cs4
 BYTE   W06
 BYTE   N06  Dn4
 BYTE   W06
 BYTE   N80  Cs4
 BYTE   W60
//  #01 //007   ----------------------------------------
 BYTE   W24
 BYTE   An3
 BYTE   W72
//  #01 //008   ----------------------------------------
 BYTE   W24
 BYTE   N68  Fs4
 BYTE   W72
//  #01 //009   ----------------------------------------
 BYTE   N04  Dn4
 BYTE   W12
 BYTE   N03  En4
 BYTE   W12
 BYTE   N18  Fs4
 BYTE   W24
 BYTE   N20  En4
 BYTE   W24
 BYTE   Dn4
 BYTE   W24
//  #01 //010   ----------------------------------------
 BYTE   En4
 BYTE   W24
 BYTE   TIE  Fs4
 BYTE   W72
//  #01 //011   ----------------------------------------
 BYTE   W24
 BYTE   W03
 BYTE   EOT
 BYTE   W68
 BYTE   W01
//  #01 //012   ----------------------------------------
 BYTE   W12
 BYTE   GoTo
  POIN2 Label_0104E9D5
//  #01 //013   ----------------------------------------
 BYTE   W12
 BYTE   FINE

//**************** Track 2 (Midi-Chn.1) ****************//

TacticsOgreTheKnightofLodisGloomyPsyche_002:
//  #02 //000   ----------------------------------------
 BYTE   KEYSH   TacticsOgreTheKnightofLodisGloomyPsyche_key+0
 BYTE   VOL   25*TacticsOgreTheKnightofLodisGloomyPsyche_mvl/mxv
 BYTE   PAN   c_v+0
 BYTE   W12
Label_0104EA53:
 BYTE   VOICE   67
 BYTE   BEND   c_v-3
 BYTE   W48
 BYTE   N03  Fs3  v112
 BYTE   W08
 BYTE   N02  Gs3
 BYTE   W08
 BYTE   An3
 BYTE   W08
 BYTE   N03  Bn3
 BYTE   W12
//  #02 //001   ----------------------------------------
Label_0104EA64:
 BYTE   N02  An3  v112
 BYTE   W12
 BYTE   Gs3
 BYTE   W12
 BYTE   N90  Fs3
 BYTE   W72
 BYTE   PEND 
//  #02 //002   ----------------------------------------
 BYTE   W60
 BYTE   N03
 BYTE   W08
 BYTE   N02  Gs3
 BYTE   W08
 BYTE   An3
 BYTE   W08
 BYTE   N03  Bn3
 BYTE   W12
//  #02 //003   ----------------------------------------
 BYTE   PATT
  POIN2 Label_0104EA64
//  #02 //004   ----------------------------------------
 BYTE   W36
 BYTE   N60  Fs4  v100
 BYTE   W60
//  #02 //005   ----------------------------------------
 BYTE   W12
 BYTE   N04  Cs4
 BYTE   W12
 BYTE   N03  Dn4
 BYTE   W12
 BYTE   N18  En4
 BYTE   W24
 BYTE   N15  Dn4
 BYTE   W24
 BYTE   N17  Cs4
 BYTE   W12
//  #02 //006   ----------------------------------------
 BYTE   W12
 BYTE   N15  Dn4
 BYTE   W24
 BYTE   N04  Cs4
 BYTE   W06
 BYTE   N06  Dn4
 BYTE   W06
 BYTE   N80  Cs4
 BYTE   W48
//  #02 //007   ----------------------------------------
 BYTE   W36
 BYTE   An3
 BYTE   W60
//  #02 //008   ----------------------------------------
 BYTE   W36
 BYTE   N68  Fs4
 BYTE   W60
//  #02 //009   ----------------------------------------
 BYTE   W12
 BYTE   N04  Dn4
 BYTE   W12
 BYTE   N03  En4
 BYTE   W12
 BYTE   N18  Fs4
 BYTE   W24
 BYTE   N20  En4
 BYTE   W24
 BYTE   Dn4
 BYTE   W12
//  #02 //010   ----------------------------------------
 BYTE   W12
 BYTE   En4
 BYTE   W24
 BYTE   TIE  Fs4
 BYTE   W60
//  #02 //011   ----------------------------------------
 BYTE   W36
 BYTE   W03
 BYTE   EOT
 BYTE   W56
 BYTE   W01
//  #02 //012   ----------------------------------------
 BYTE   W12
 BYTE   GoTo
  POIN2 Label_0104EA53
//  #02 //013   ----------------------------------------
 BYTE   W12
 BYTE   FINE

//**************** Track 3 (Midi-Chn.2) ****************//

TacticsOgreTheKnightofLodisGloomyPsyche_003:
//  #03 //000   ----------------------------------------
 BYTE   KEYSH   TacticsOgreTheKnightofLodisGloomyPsyche_key+0
 BYTE   VOL   47*TacticsOgreTheKnightofLodisGloomyPsyche_mvl/mxv
 BYTE   PAN   c_v+0
 BYTE   W12
Label_55F67B:
 BYTE   VOICE   48
 BYTE   W12
 BYTE   N09  Fs2  v116
 BYTE   W24
 BYTE   TIE
 BYTE   W48
//  #03 //001   ----------------------------------------
 BYTE   W96
//  #03 //002   ----------------------------------------
 BYTE   W10
 BYTE   EOT
 BYTE   W14
 BYTE   N09
 BYTE   W24
 BYTE   TIE
 BYTE   W48
//  #03 //003   ----------------------------------------
 BYTE   W96
//  #03 //004   ----------------------------------------
 BYTE   W10
 BYTE   EOT
 BYTE   W14
 BYTE   N10  Fs2  v092
 BYTE   W12
 BYTE   N10
 BYTE   W36
 BYTE   N10
 BYTE   W12
 BYTE   N10
 BYTE   W12
//  #03 //005   ----------------------------------------
Label_55F69A:
 BYTE   W24
 BYTE   N10  Fs2  v092
 BYTE   W12
 BYTE   N10
 BYTE   W36
 BYTE   N10
 BYTE   W12
 BYTE   N10
 BYTE   W12
 BYTE   PEND 
//  #03 //006   ----------------------------------------
 BYTE   PATT
  POIN2 Label_55F69A
//  #03 //007   ----------------------------------------
 BYTE   PATT
  POIN2 Label_55F69A
//  #03 //008   ----------------------------------------
 BYTE   PATT
  POIN2 Label_55F69A
//  #03 //009   ----------------------------------------
 BYTE   PATT
  POIN2 Label_55F69A
//  #03 //010   ----------------------------------------
 BYTE   PATT
  POIN2 Label_55F69A
//  #03 //011   ----------------------------------------
 BYTE   PATT
  POIN2 Label_55F69A
//  #03 //012   ----------------------------------------
 BYTE   W12
 BYTE   GoTo
  POIN2 Label_55F67B
//  #03 //013   ----------------------------------------
 BYTE   W12
 BYTE   FINE

//**************** Track 4 (Midi-Chn.3) ****************//

TacticsOgreTheKnightofLodisGloomyPsyche_004:
//  #04 //000   ----------------------------------------
 BYTE   KEYSH   TacticsOgreTheKnightofLodisGloomyPsyche_key+0
 BYTE   VOL   19*TacticsOgreTheKnightofLodisGloomyPsyche_mvl/mxv
 BYTE   PAN   c_v+0
 BYTE   W12
Label_55F2DF:
 BYTE   VOICE   67
 BYTE   W12
 BYTE   N09  Fs3  v080
 BYTE   W24
 BYTE   TIE
 BYTE   W48
//  #04 //001   ----------------------------------------
 BYTE   W96
//  #04 //002   ----------------------------------------
 BYTE   W10
 BYTE   EOT
 BYTE   W14
 BYTE   N09
 BYTE   W24
 BYTE   TIE
 BYTE   W48
//  #04 //003   ----------------------------------------
 BYTE   W96
//  #04 //004   ----------------------------------------
 BYTE   W10
 BYTE   EOT
 BYTE   W14
 BYTE   N60  Cs5  v072
 BYTE   W72
//  #04 //005   ----------------------------------------
 BYTE   N04  An4
 BYTE   W12
 BYTE   N03
 BYTE   W12
 BYTE   N18  Cs5
 BYTE   W24
 BYTE   N15  An4
 BYTE   W24
 BYTE   N17
 BYTE   W24
//  #04 //006   ----------------------------------------
 BYTE   N15
 BYTE   W24
 BYTE   N04
 BYTE   W06
 BYTE   N06
 BYTE   W06
 BYTE   N80  Fs4
 BYTE   W60
//  #04 //007   ----------------------------------------
 BYTE   W24
 BYTE   N80
 BYTE   W72
//  #04 //008   ----------------------------------------
 BYTE   W24
 BYTE   N68  Cs5
 BYTE   W72
//  #04 //009   ----------------------------------------
 BYTE   N04  An4
 BYTE   W12
 BYTE   N03
 BYTE   W12
 BYTE   N18  Cs5
 BYTE   W24
 BYTE   N20
 BYTE   W24
 BYTE   An4
 BYTE   W24
//  #04 //010   ----------------------------------------
 BYTE   N20
 BYTE   W24
 BYTE   TIE  Cs5
 BYTE   W72
//  #04 //011   ----------------------------------------
 BYTE   W24
 BYTE   W03
 BYTE   EOT
 BYTE   W68
 BYTE   W01
//  #04 //012   ----------------------------------------
 BYTE   W12
 BYTE   GoTo
  POIN2 Label_55F2DF
//  #04 //013   ----------------------------------------
 BYTE   W12
 BYTE   FINE

//**************** Track 5 (Midi-Chn.4) ****************//

TacticsOgreTheKnightofLodisGloomyPsyche_005:
//  #05 //000   ----------------------------------------
 BYTE   KEYSH   TacticsOgreTheKnightofLodisGloomyPsyche_key+0
 BYTE   VOICE   105
 BYTE   VOL   47*TacticsOgreTheKnightofLodisGloomyPsyche_mvl/mxv
 BYTE   PAN   c_v+0
 BYTE   W12
Label_55EFA5:
 BYTE   VOICE   51
 BYTE   W12
 BYTE   N09  Cs1  v080
 BYTE   W24
 BYTE   TIE
 BYTE   W48
//  #05 //001   ----------------------------------------
 BYTE   W96
//  #05 //002   ----------------------------------------
 BYTE   W10
 BYTE   EOT
 BYTE   W14
 BYTE   N09
 BYTE   W24
 BYTE   TIE
 BYTE   W48
//  #05 //003   ----------------------------------------
 BYTE   W96
//  #05 //004   ----------------------------------------
 BYTE   W10
 BYTE   EOT
 BYTE   W14
 BYTE   VOICE   51
 BYTE   W12
 BYTE   N04
 BYTE   W12
 BYTE   Fs1
 BYTE   W12
 BYTE   Cs1
 BYTE   W24
 BYTE   N04
 BYTE   W12
//  #05 //005   ----------------------------------------
Label_55EFC5:
 BYTE   N04  Fs1  v080
 BYTE   W12
 BYTE   Cs1
 BYTE   W24
 BYTE   N04
 BYTE   W12
 BYTE   Fs1
 BYTE   W12
 BYTE   Cs1
 BYTE   W24
 BYTE   N04
 BYTE   W12
 BYTE   PEND 
//  #05 //006   ----------------------------------------
 BYTE   PATT
  POIN2 Label_55EFC5
//  #05 //007   ----------------------------------------
 BYTE   PATT
  POIN2 Label_55EFC5
//  #05 //008   ----------------------------------------
 BYTE   PATT
  POIN2 Label_55EFC5
//  #05 //009   ----------------------------------------
 BYTE   PATT
  POIN2 Label_55EFC5
//  #05 //010   ----------------------------------------
 BYTE   PATT
  POIN2 Label_55EFC5
//  #05 //011   ----------------------------------------
 BYTE   PATT
  POIN2 Label_55EFC5
//  #05 //012   ----------------------------------------
 BYTE   N04  Fs1  v080
 BYTE   W12
 BYTE   GoTo
  POIN2 Label_55EFA5
//  #05 //013   ----------------------------------------
 BYTE   N04  Cs1  v080
 BYTE   W12
 BYTE   FINE

//**************** Track 6 (Midi-Chn.5) ****************//

TacticsOgreTheKnightofLodisGloomyPsyche_006:
//  #06 //000   ----------------------------------------
 BYTE   KEYSH   TacticsOgreTheKnightofLodisGloomyPsyche_key+0
 BYTE   VOICE   127
 BYTE   VOL   51*TacticsOgreTheKnightofLodisGloomyPsyche_mvl/mxv
 BYTE   PAN   c_v+0
 BYTE   N06  Cs2  v112
 BYTE   W12
Label_55F60C:
 BYTE   N06  Cs2  v112
 BYTE   W12
 BYTE   N18  Fs2
 BYTE   W24
 BYTE   N48
 BYTE   W48
//  #06 //001   ----------------------------------------
 BYTE   W96
//  #06 //002   ----------------------------------------
 BYTE   W12
 BYTE   N06  Cs2
 BYTE   W06
 BYTE   N06
 BYTE   W06
 BYTE   N18  Fs2
 BYTE   W24
 BYTE   N48
 BYTE   W48
//  #06 //003   ----------------------------------------
 BYTE   W96
//  #06 //004   ----------------------------------------
Label_55F622:
 BYTE   W24
 BYTE   N10  Fs2  v060
 BYTE   W12
 BYTE   N10
 BYTE   W36
 BYTE   N10
 BYTE   W12
 BYTE   N10
 BYTE   W12
 BYTE   PEND 
//  #06 //005   ----------------------------------------
 BYTE   PATT
  POIN2 Label_55F622
//  #06 //006   ----------------------------------------
 BYTE   PATT
  POIN2 Label_55F622
//  #06 //007   ----------------------------------------
 BYTE   PATT
  POIN2 Label_55F622
//  #06 //008   ----------------------------------------
 BYTE   PATT
  POIN2 Label_55F622
//  #06 //009   ----------------------------------------
 BYTE   PATT
  POIN2 Label_55F622
//  #06 //010   ----------------------------------------
 BYTE   PATT
  POIN2 Label_55F622
//  #06 //011   ----------------------------------------
 BYTE   PATT
  POIN2 Label_55F622
//  #06 //012   ----------------------------------------
 BYTE   N12  Fs2  v112
 BYTE   W12
 BYTE   GoTo
  POIN2 Label_55F60C
//  #06 //013   ----------------------------------------
 BYTE   N12  Cs2  v112
 BYTE   W12
 BYTE   FINE

//******************************************************//
	ALIGN 4

TacticsOgreTheKnightofLodisGloomyPsyche:
	BYTE	6	// NumTrks
	BYTE	0	// NumBlks
	BYTE	TacticsOgreTheKnightofLodisGloomyPsyche_pri	// Priority
	BYTE	TacticsOgreTheKnightofLodisGloomyPsyche_rev	// Reverb.
    
	POIN2	TacticsOgreTheKnightofLodisGloomyPsyche_grp
    
	POIN2	TacticsOgreTheKnightofLodisGloomyPsyche_001
	POIN2	TacticsOgreTheKnightofLodisGloomyPsyche_002
	POIN2	TacticsOgreTheKnightofLodisGloomyPsyche_003
	POIN2	TacticsOgreTheKnightofLodisGloomyPsyche_004
	POIN2	TacticsOgreTheKnightofLodisGloomyPsyche_005
	POIN2	TacticsOgreTheKnightofLodisGloomyPsyche_006

	
