//Event file generated from Sappy .s format.
	#include "MPlayDef.event"

	#define	CastlevaniaStage6MeatOfJustice_grp  voicegroup000
	#define	CastlevaniaStage6MeatOfJustice_pri  10
	#define	CastlevaniaStage6MeatOfJustice_rev  0
	#define	CastlevaniaStage6MeatOfJustice_mvl  127
	#define	CastlevaniaStage6MeatOfJustice_key  0
	#define	CastlevaniaStage6MeatOfJustice_tbs  1
	#define	CastlevaniaStage6MeatOfJustice_exg  0
	#define	CastlevaniaStage6MeatOfJustice_cmp  1

	// .rodata
	//	CastlevaniaStage6MeatOfJustice
	ALIGN 4


//**************** Track 1 (Midi-Chn.0) ****************//

CastlevaniaStage6MeatOfJustice_001:
// 000   ----------------------------------------
Label_0_016506AC:
 BYTE   KEYSH   CastlevaniaStage6MeatOfJustice_key+0
 BYTE   VOICE   48
 BYTE   VOL   72*CastlevaniaStage6MeatOfJustice_mvl/mxv
 BYTE   PAN   c_v+0
 BYTE   N06  Dn3  v120
 BYTE   TEMPO   142*CastlevaniaStage6MeatOfJustice_tbs/2
 BYTE   W12
 BYTE   N06  Dn3  v120
 BYTE   W12
 BYTE   Gn3
 BYTE   W12
 BYTE   Dn3
 BYTE   W12
 BYTE   Gn3
 BYTE   W12
 BYTE   Dn3
 BYTE   W12
 BYTE   Fn3
 BYTE   W06
 BYTE   Gn3
 BYTE   W18
// 001   ----------------------------------------
Label_0_016506CA:
 BYTE   N06  Dn3  v120
 BYTE   W12
 BYTE   Dn3
 BYTE   W12
 BYTE   Gn3
 BYTE   W12
 BYTE   Dn3
 BYTE   W12
 BYTE   Gn3
 BYTE   W12
 BYTE   Dn3
 BYTE   W12
 BYTE   Fn3
 BYTE   W06
 BYTE   Gn3
 BYTE   W18
 BYTE   PEND 
 BYTE   PATT
  POIN2 Label_0_016506CA
 BYTE   PATT
  POIN2 Label_0_016506CA
// 002   ----------------------------------------
 BYTE   N36  Dn3  v120
 BYTE   W36
 BYTE   N48  Gn3
 BYTE   W48
 BYTE   N06  Fn3
 BYTE   W06
 BYTE   Gn3
 BYTE   W06
// 003   ----------------------------------------
 BYTE   N36  An3
 BYTE   W36
 BYTE   Gn3
 BYTE   W36
 BYTE   N24  Fn3
 BYTE   W24
// 004   ----------------------------------------
Label_0_016506FB:
 BYTE   N36  Ds3  v120
 BYTE   W36
 BYTE   Dn3
 BYTE   W36
 BYTE   N24  Cs3
 BYTE   W30
 BYTE   PEND 
// 005   ----------------------------------------
 BYTE   N18  Dn3  v100
 BYTE   W18
 BYTE   An3
 BYTE   W18
 BYTE   N54  Dn4
 BYTE   W54
 BYTE   N36  Dn3  v120
 BYTE   W36
// 006   ----------------------------------------
Label_0_01650712:
 BYTE   N48  Gn3  v120
 BYTE   W48
 BYTE   N06  Fn3
 BYTE   W06
 BYTE   Gn3
 BYTE   W06
 BYTE   N36  An3
 BYTE   W36
 BYTE   PEND 
// 007   ----------------------------------------
Label_0_0165071F:
 BYTE   N36  Gn3  v120
 BYTE   W36
 BYTE   N24  Fn3
 BYTE   W24
 BYTE   N36  Ds3
 BYTE   W36
 BYTE   PEND 
// 008   ----------------------------------------
Label_0_0165072A:
 BYTE   N36  Dn3  v120
 BYTE   W36
 BYTE   N24  Cs3
 BYTE   W30
 BYTE   N18  Dn3  v100
 BYTE   W18
 BYTE   An3
 BYTE   W18
 BYTE   PEND 
// 009   ----------------------------------------
 BYTE   N54  Dn4  v100
 BYTE   W54
 BYTE   N18  Gn4
 BYTE   W18
 BYTE   Dn4
 BYTE   W18
 BYTE   Gn4
 BYTE   W18
// 010   ----------------------------------------
Label_0_01650743:
 BYTE   N18  Dn4  v100
 BYTE   W18
 BYTE   N12  Gn4
 BYTE   W12
 BYTE   Dn4
 BYTE   W12
 BYTE   N18  Gn4
 BYTE   W18
 BYTE   Dn4
 BYTE   W18
 BYTE   Gn4
 BYTE   W18
 BYTE   PEND 
 BYTE   PATT
  POIN2 Label_0_01650743
 BYTE   PATT
  POIN2 Label_0_01650743
// 011   ----------------------------------------
 BYTE   N18  Dn4  v100
 BYTE   W18
 BYTE   N12  Gn4
 BYTE   W12
 BYTE   Dn4
 BYTE   W12
 BYTE   N18  Ds3  v120
 BYTE   W18
 BYTE   Fn3
 BYTE   W18
 BYTE   N12  Gn3
 BYTE   W12
 BYTE   N18  Fn3
 BYTE   W18
// 012   ----------------------------------------
 BYTE   Gn3
 BYTE   W18
 BYTE   N12  An3
 BYTE   W12
 BYTE   N18  Ds3
 BYTE   W18
 BYTE   Fn3
 BYTE   W18
 BYTE   N12  Gn3
 BYTE   W12
 BYTE   N18  Fn3
 BYTE   W18
// 013   ----------------------------------------
 BYTE   Gn3
 BYTE   W18
 BYTE   N12  Gs3
 BYTE   W12
 BYTE   N96  An3
 BYTE   W96
// 014   ----------------------------------------
 BYTE   W18
 BYTE   N12  Dn4  v100
 BYTE   W12
 BYTE   Cs4
 BYTE   W12
 BYTE   Cn4
 BYTE   W12
 BYTE   Bn3
 BYTE   W12
 BYTE   As3
 BYTE   W12
 BYTE   An3
 BYTE   W12
 BYTE   N06  Gs3
 BYTE   W06
// 015   ----------------------------------------
 BYTE   Dn3  v120
 BYTE   W12
 BYTE   Dn3
 BYTE   W12
Label_0_016507A2:
 BYTE   N06  Gn3  v120
 BYTE   W12
 BYTE   Dn3
 BYTE   W12
 BYTE   Gn3
 BYTE   W12
 BYTE   Dn3
 BYTE   W12
 BYTE   Fn3
 BYTE   W06
 BYTE   Gn3
 BYTE   W18
// 016   ----------------------------------------
 BYTE   Dn3
 BYTE   W12
 BYTE   Dn3
 BYTE   W12
 BYTE   PEND 
 BYTE   PATT
  POIN2 Label_0_016507A2
 BYTE   PATT
  POIN2 Label_0_016507A2
// 017   ----------------------------------------
 BYTE   N06  Gn3  v120
 BYTE   W12
 BYTE   Dn3
 BYTE   W12
 BYTE   Gn3
 BYTE   W12
 BYTE   Dn3
 BYTE   W12
 BYTE   Fn3
 BYTE   W06
 BYTE   Gn3
 BYTE   W06
 BYTE   W12
 BYTE   N36  Dn3  v120
 BYTE   W36
 BYTE   PATT
  POIN2 Label_0_01650712
 BYTE   PATT
  POIN2 Label_0_0165071F
 BYTE   PATT
  POIN2 Label_0_0165072A
// 018   ----------------------------------------
 BYTE   N54  Dn4  v100
 BYTE   W54
 BYTE   N36  Dn3  v120
 BYTE   W36
 BYTE   N48  Gn3
 BYTE   W48
// 019   ----------------------------------------
 BYTE   N06  Fn3
 BYTE   W06
 BYTE   Gn3
 BYTE   W06
 BYTE   N36  An3
 BYTE   W36
 BYTE   Gn3
 BYTE   W36
 BYTE   N24  Fn3
 BYTE   W24
 BYTE   PATT
  POIN2 Label_0_016506FB
// 020   ----------------------------------------
 BYTE   N18  Dn3  v100
 BYTE   W18
 BYTE   An3
 BYTE   W18
 BYTE   N54  Dn4
 BYTE   W54
 BYTE   N18  Gn4
 BYTE   W18
// 021   ----------------------------------------
Label_0_0165080A:
 BYTE   N18  Dn4  v100
 BYTE   W18
 BYTE   Gn4
 BYTE   W18
 BYTE   Dn4
 BYTE   W18
 BYTE   N12  Gn4
 BYTE   W12
 BYTE   Dn4
 BYTE   W12
 BYTE   N18  Gn4
 BYTE   W18
 BYTE   PEND 
 BYTE   PATT
  POIN2 Label_0_0165080A
 BYTE   PATT
  POIN2 Label_0_0165080A
// 022   ----------------------------------------
 BYTE   N18  Dn4  v100
 BYTE   W18
 BYTE   Gn4
 BYTE   W18
 BYTE   Dn4
 BYTE   W18
 BYTE   N12  Gn4
 BYTE   W12
 BYTE   Dn4
 BYTE   W12
 BYTE   N18  Ds3  v120
 BYTE   W18
// 023   ----------------------------------------
 BYTE   Fn3
 BYTE   W18
 BYTE   N12  Gn3
 BYTE   W12
 BYTE   N18  Fn3
 BYTE   W18
 BYTE   Gn3
 BYTE   W18
 BYTE   N12  An3
 BYTE   W12
 BYTE   N18  Ds3
 BYTE   W18
// 024   ----------------------------------------
 BYTE   Fn3
 BYTE   W18
 BYTE   N12  Gn3
 BYTE   W12
 BYTE   N18  Fn3
 BYTE   W18
 BYTE   Gn3
 BYTE   W18
 BYTE   N12  Gs3
 BYTE   W12
 BYTE   N96  An3
 BYTE   W96
// 025   ----------------------------------------
 BYTE   W18
 BYTE   N12  Dn4  v100
 BYTE   W12
 BYTE   Cs4
 BYTE   W12
 BYTE   Cn4
 BYTE   W12
 BYTE   Bn3
 BYTE   W12
 BYTE   As3
 BYTE   W12
 BYTE   An3
 BYTE   W12
 BYTE   N06  Gs3
 BYTE   GoTo
  POIN2 Label_0_016506AC
 BYTE   FINE

//**************** Track 2 (Midi-Chn.1) ****************//

CastlevaniaStage6MeatOfJustice_002:
// 000   ----------------------------------------
Label_1_01650870:
 BYTE   KEYSH   CastlevaniaStage6MeatOfJustice_key+0
 BYTE   VOICE   116
 BYTE   VOL   56*CastlevaniaStage6MeatOfJustice_mvl/mxv
 BYTE   PAN   c_v+0
 BYTE   N06  Gn2  v120
 BYTE   TEMPO   142*CastlevaniaStage6MeatOfJustice_tbs/2
 BYTE   W12
 BYTE   N06  Gn2  v120
 BYTE   W12
 BYTE   Gn4
 BYTE   W12
 BYTE   Gn2
 BYTE   W12
 BYTE   Gn2
 BYTE   W12
 BYTE   Dn2
 BYTE   W12
 BYTE   Fn2
 BYTE   W06
 BYTE   Gn2
 BYTE   W18
// 001   ----------------------------------------
Label_1_0165088E:
 BYTE   N06  Gn2  v120
 BYTE   W12
 BYTE   Gn2
 BYTE   W12
 BYTE   Gn4
 BYTE   W12
 BYTE   Gn2
 BYTE   W12
 BYTE   Gn2
 BYTE   W12
 BYTE   Dn2
 BYTE   W12
 BYTE   Fn2
 BYTE   W06
 BYTE   Gn2
 BYTE   W18
 BYTE   PEND 
 BYTE   PATT
  POIN2 Label_1_0165088E
 BYTE   PATT
  POIN2 Label_1_0165088E
// 002   ----------------------------------------
Label_1_016508AB:
 BYTE   N36  Gn3  v120
 BYTE   W36
 BYTE   N48  As3
 BYTE   W48
 BYTE   N06  An3
 BYTE   W06
 BYTE   As3
 BYTE   W06
 BYTE   PEND 
// 003   ----------------------------------------
Label_1_016508B8:
 BYTE   N36  Cn4  v120
 BYTE   W36
 BYTE   As3
 BYTE   W36
 BYTE   N24  An3
 BYTE   W24
 BYTE   PEND 
// 004   ----------------------------------------
Label_1_016508C2:
 BYTE   N36  As3  v120
 BYTE   W36
 BYTE   N60  Gn3
 BYTE   W60
 BYTE   PEND 
// 005   ----------------------------------------
 BYTE   N18  Dn3  v120
 BYTE   W18
 BYTE   An3
 BYTE   W18
 BYTE   N60  Dn4
 BYTE   W60
 BYTE   PATT
  POIN2 Label_1_016508AB
 BYTE   PATT
  POIN2 Label_1_016508B8
 BYTE   PATT
  POIN2 Label_1_016508C2
// 006   ----------------------------------------
 BYTE   N18  Dn3  v120
 BYTE   W18
 BYTE   An3
 BYTE   W18
 BYTE   N60  Dn4
 BYTE   W66
// 007   ----------------------------------------
Label_1_016508EB:
 BYTE   N18  Gn4  v100
 BYTE   W18
 BYTE   Dn4
 BYTE   W18
 BYTE   Gn4
 BYTE   W18
 BYTE   Dn4
 BYTE   W18
 BYTE   N12  Gn4
 BYTE   W12
 BYTE   N06  Dn4
 BYTE   W12
 BYTE   PEND 
 BYTE   PATT
  POIN2 Label_1_016508EB
 BYTE   PATT
  POIN2 Label_1_016508EB
// 008   ----------------------------------------
 BYTE   N18  Gn4  v100
 BYTE   W18
 BYTE   Dn4
 BYTE   W18
 BYTE   Gn4
 BYTE   W18
 BYTE   Dn4
 BYTE   W18
 BYTE   N12  Gn4
 BYTE   W12
 BYTE   N06  Dn4
 BYTE   W06
 BYTE   N18  Gn3  v120
 BYTE   W18
// 009   ----------------------------------------
 BYTE   An3
 BYTE   W18
 BYTE   N12  As3
 BYTE   W12
 BYTE   N18  An3
 BYTE   W18
 BYTE   As3
 BYTE   W18
 BYTE   N12  Cn4
 BYTE   W12
 BYTE   N18  As3
 BYTE   W18
// 010   ----------------------------------------
 BYTE   Cn4
 BYTE   W18
 BYTE   N12  Dn4
 BYTE   W12
 BYTE   N18  Cn4
 BYTE   W18
 BYTE   Dn4
 BYTE   W18
 BYTE   N12  Ds4
 BYTE   W12
 BYTE   N96  Dn4
 BYTE   W96
// 011   ----------------------------------------
 BYTE   W12
 BYTE   N12
 BYTE   W12
 BYTE   Cs4
 BYTE   W12
 BYTE   Cn4
 BYTE   W12
 BYTE   Bn3
 BYTE   W12
 BYTE   As3
 BYTE   W12
 BYTE   An3
 BYTE   W12
 BYTE   Gs3
 BYTE   W12
// 012   ----------------------------------------
 BYTE   N06  Gn2
 BYTE   W12
Label_1_0165094C:
 BYTE   N06  Gn2  v120
 BYTE   W12
 BYTE   Gn4
 BYTE   W12
 BYTE   Gn2
 BYTE   W12
 BYTE   Gn2
 BYTE   W12
 BYTE   Dn2
 BYTE   W12
 BYTE   Fn2
 BYTE   W06
 BYTE   Gn2
 BYTE   W18
// 013   ----------------------------------------
 BYTE   Gn2
 BYTE   W12
 BYTE   PEND 
 BYTE   PATT
  POIN2 Label_1_0165094C
 BYTE   PATT
  POIN2 Label_1_0165094C
// 014   ----------------------------------------
 BYTE   N06  Gn2  v120
 BYTE   W12
 BYTE   Gn4
 BYTE   W12
 BYTE   Gn2
 BYTE   W12
 BYTE   Gn2
 BYTE   W12
 BYTE   Dn2
 BYTE   W12
 BYTE   Fn2
 BYTE   W06
 BYTE   Gn2
 BYTE   W06
 BYTE   W12
 BYTE   N36  Gn3  v120
 BYTE   W36
// 015   ----------------------------------------
Label_1_0165097E:
 BYTE   N48  As3  v120
 BYTE   W48
 BYTE   N06  An3
 BYTE   W06
 BYTE   As3
 BYTE   W06
 BYTE   N36  Cn4
 BYTE   W36
 BYTE   PEND 
// 016   ----------------------------------------
Label_1_0165098B:
 BYTE   N36  As3  v120
 BYTE   W36
 BYTE   N24  An3
 BYTE   W24
 BYTE   N36  As3
 BYTE   W36
 BYTE   PEND 
// 017   ----------------------------------------
Label_1_01650996:
 BYTE   N60  Gn3  v120
 BYTE   W60
 BYTE   N18  Dn3
 BYTE   W18
 BYTE   An3
 BYTE   W18
 BYTE   PEND 
// 018   ----------------------------------------
 BYTE   N60  Dn4  v120
 BYTE   W60
 BYTE   N36  Gn3
 BYTE   W36
 BYTE   PATT
  POIN2 Label_1_0165097E
 BYTE   PATT
  POIN2 Label_1_0165098B
 BYTE   PATT
  POIN2 Label_1_01650996
// 019   ----------------------------------------
 BYTE   N60  Dn4  v120
 BYTE   W60
 BYTE   W06
 BYTE   N18  Gn4  v100
 BYTE   W18
 BYTE   Dn4
 BYTE   W18
// 020   ----------------------------------------
Label_1_016509C1:
 BYTE   N18  Gn4  v100
 BYTE   W18
 BYTE   Dn4
 BYTE   W18
 BYTE   N12  Gn4
 BYTE   W12
 BYTE   N06  Dn4
 BYTE   W12
 BYTE   N18  Gn4
 BYTE   W18
 BYTE   Dn4
 BYTE   W18
 BYTE   PEND 
 BYTE   PATT
  POIN2 Label_1_016509C1
 BYTE   PATT
  POIN2 Label_1_016509C1
// 021   ----------------------------------------
 BYTE   N18  Gn4  v100
 BYTE   W18
 BYTE   Dn4
 BYTE   W18
 BYTE   N12  Gn4
 BYTE   W12
 BYTE   N06  Dn4
 BYTE   W06
 BYTE   N18  Gn3  v120
 BYTE   W18
 BYTE   An3
 BYTE   W18
 BYTE   N12  As3
 BYTE   W12
// 022   ----------------------------------------
 BYTE   N18  An3
 BYTE   W18
 BYTE   As3
 BYTE   W18
 BYTE   N12  Cn4
 BYTE   W12
 BYTE   N18  As3
 BYTE   W18
 BYTE   Cn4
 BYTE   W18
 BYTE   N12  Dn4
 BYTE   W12
// 023   ----------------------------------------
 BYTE   N18  Cn4
 BYTE   W18
 BYTE   Dn4
 BYTE   W18
 BYTE   N12  Ds4
 BYTE   W12
 BYTE   N96  Dn4
 BYTE   W96
// 024   ----------------------------------------
 BYTE   W12
 BYTE   N12
 BYTE   W12
 BYTE   Cs4
 BYTE   W12
 BYTE   Cn4
 BYTE   W12
 BYTE   Bn3
 BYTE   W12
 BYTE   As3
 BYTE   W12
 BYTE   An3
 BYTE   W12
 BYTE   Gs3
 BYTE   W06
 BYTE   GoTo
  POIN2 Label_1_01650870
 BYTE   FINE

//**************** Track 3 (Midi-Chn.2) ****************//

CastlevaniaStage6MeatOfJustice_003:
// 000   ----------------------------------------
Label_2_01650A24:
 BYTE   KEYSH   CastlevaniaStage6MeatOfJustice_key+0
 BYTE   VOICE   110
 BYTE   VOL   64*CastlevaniaStage6MeatOfJustice_mvl/mxv
 BYTE   PAN   c_v+0
 BYTE   N06  Dn3  v120
 BYTE   TEMPO   142*CastlevaniaStage6MeatOfJustice_tbs/2
 BYTE   W12
 BYTE   N06  Dn3  v120
 BYTE   W12
 BYTE   Gn3
 BYTE   W12
 BYTE   Dn3
 BYTE   W12
 BYTE   Gn3
 BYTE   W12
 BYTE   Dn3
 BYTE   W12
 BYTE   Fn3
 BYTE   W06
 BYTE   Gn3
 BYTE   W18
// 001   ----------------------------------------
Label_2_01650A42:
 BYTE   N06  Dn3  v120
 BYTE   W12
 BYTE   Dn3
 BYTE   W12
 BYTE   Gn3
 BYTE   W12
 BYTE   Dn3
 BYTE   W12
 BYTE   Gn3
 BYTE   W12
 BYTE   Dn3
 BYTE   W12
 BYTE   Fn3
 BYTE   W06
 BYTE   Gn3
 BYTE   W18
 BYTE   PEND 
 BYTE   PATT
  POIN2 Label_2_01650A42
// 002   ----------------------------------------
 BYTE   N06  Dn3  v120
 BYTE   W12
 BYTE   Dn3
 BYTE   W12
 BYTE   Gn3
 BYTE   W12
 BYTE   Dn3
 BYTE   W12
 BYTE   Gn3
 BYTE   W12
 BYTE   Dn3
 BYTE   W12
 BYTE   Fn3
 BYTE   W06
 BYTE   Gn3
 BYTE   W96
// 003   ----------------------------------------
 BYTE   W96
// 004   ----------------------------------------
 BYTE   W96
// 005   ----------------------------------------
 BYTE   W96
// 006   ----------------------------------------
 BYTE   W96
// 007   ----------------------------------------
 BYTE   W96
// 008   ----------------------------------------
 BYTE   W96
// 009   ----------------------------------------
 BYTE   W96
// 010   ----------------------------------------
 BYTE   W96
// 011   ----------------------------------------
 BYTE   W96
// 012   ----------------------------------------
 BYTE   W96
// 013   ----------------------------------------
 BYTE   W96
// 014   ----------------------------------------
 BYTE   W96
// 015   ----------------------------------------
 BYTE   W96
// 016   ----------------------------------------
 BYTE   W96
// 017   ----------------------------------------
 BYTE   W96
// 018   ----------------------------------------
 BYTE   W18
 BYTE   PATT
  POIN2 Label_2_01650A42
 BYTE   PATT
  POIN2 Label_2_01650A42
 BYTE   PATT
  POIN2 Label_2_01650A42
// 019   ----------------------------------------
 BYTE   N06  Dn3  v120
 BYTE   W12
 BYTE   Dn3
 BYTE   W12
 BYTE   Gn3
 BYTE   W12
 BYTE   Dn3
 BYTE   W12
 BYTE   Gn3
 BYTE   W12
 BYTE   Dn3
 BYTE   W12
 BYTE   Fn3
 BYTE   W06
 BYTE   Gn3
 BYTE   W06
 BYTE   W96
// 020   ----------------------------------------
 BYTE   W96
// 021   ----------------------------------------
 BYTE   W96
// 022   ----------------------------------------
 BYTE   W96
// 023   ----------------------------------------
 BYTE   W96
// 024   ----------------------------------------
 BYTE   W96
// 025   ----------------------------------------
 BYTE   W96
// 026   ----------------------------------------
 BYTE   W96
// 027   ----------------------------------------
 BYTE   W12
 BYTE   W96
// 028   ----------------------------------------
 BYTE   W96
// 029   ----------------------------------------
 BYTE   W96
// 030   ----------------------------------------
 BYTE   W96
// 031   ----------------------------------------
 BYTE   W96
// 032   ----------------------------------------
 BYTE   W96
// 033   ----------------------------------------
 BYTE   W96
// 034   ----------------------------------------
 BYTE   W90
 BYTE   GoTo
  POIN2 Label_2_01650A24
 BYTE   FINE

//**************** Track 4 (Midi-Chn.3) ****************//

CastlevaniaStage6MeatOfJustice_004:
// 000   ----------------------------------------
Label_3_01650AB4:
 BYTE   KEYSH   CastlevaniaStage6MeatOfJustice_key+0
 BYTE   VOICE   85
 BYTE   VOL   64*CastlevaniaStage6MeatOfJustice_mvl/mxv
 BYTE   PAN   c_v+0
 BYTE   N06  Gn2  v120
 BYTE   TEMPO   142*CastlevaniaStage6MeatOfJustice_tbs/2
 BYTE   W12
 BYTE   N06  Gn2  v120
 BYTE   W12
 BYTE   Gn4
 BYTE   W12
 BYTE   Gn2
 BYTE   W12
 BYTE   Gn2
 BYTE   W12
 BYTE   Dn2
 BYTE   W12
 BYTE   Fn2
 BYTE   W06
 BYTE   Gn2
 BYTE   W18
// 001   ----------------------------------------
Label_3_01650AD2:
 BYTE   N06  Gn2  v120
 BYTE   W12
 BYTE   Gn2
 BYTE   W12
 BYTE   Gn4
 BYTE   W12
 BYTE   Gn2
 BYTE   W12
 BYTE   Gn2
 BYTE   W12
 BYTE   Dn2
 BYTE   W12
 BYTE   Fn2
 BYTE   W06
 BYTE   Gn2
 BYTE   W18
 BYTE   PEND 
 BYTE   PATT
  POIN2 Label_3_01650AD2
// 002   ----------------------------------------
 BYTE   N06  Gn2  v120
 BYTE   W12
 BYTE   Gn2
 BYTE   W12
 BYTE   Gn4
 BYTE   W12
 BYTE   Gn2
 BYTE   W12
 BYTE   Gn2
 BYTE   W12
 BYTE   Dn2
 BYTE   W12
 BYTE   Fn2
 BYTE   W06
 BYTE   Gn2
 BYTE   W96
// 003   ----------------------------------------
 BYTE   W96
// 004   ----------------------------------------
 BYTE   W96
// 005   ----------------------------------------
 BYTE   W96
// 006   ----------------------------------------
 BYTE   W96
// 007   ----------------------------------------
 BYTE   W96
// 008   ----------------------------------------
 BYTE   W96
// 009   ----------------------------------------
 BYTE   W96
// 010   ----------------------------------------
 BYTE   W96
// 011   ----------------------------------------
 BYTE   W96
// 012   ----------------------------------------
 BYTE   W96
// 013   ----------------------------------------
 BYTE   W96
// 014   ----------------------------------------
 BYTE   W96
// 015   ----------------------------------------
 BYTE   W96
// 016   ----------------------------------------
 BYTE   W96
// 017   ----------------------------------------
 BYTE   W96
// 018   ----------------------------------------
 BYTE   W18
 BYTE   PATT
  POIN2 Label_3_01650AD2
 BYTE   PATT
  POIN2 Label_3_01650AD2
 BYTE   PATT
  POIN2 Label_3_01650AD2
// 019   ----------------------------------------
 BYTE   N06  Gn2  v120
 BYTE   W12
 BYTE   Gn2
 BYTE   W12
 BYTE   Gn4
 BYTE   W12
 BYTE   Gn2
 BYTE   W12
 BYTE   Gn2
 BYTE   W12
 BYTE   Dn2
 BYTE   W12
 BYTE   Fn2
 BYTE   W06
 BYTE   Gn2
 BYTE   W06
 BYTE   W96
// 020   ----------------------------------------
 BYTE   W96
// 021   ----------------------------------------
 BYTE   W96
// 022   ----------------------------------------
 BYTE   W96
// 023   ----------------------------------------
 BYTE   W96
// 024   ----------------------------------------
 BYTE   W96
// 025   ----------------------------------------
 BYTE   W96
// 026   ----------------------------------------
 BYTE   W96
// 027   ----------------------------------------
 BYTE   W12
 BYTE   W96
// 028   ----------------------------------------
 BYTE   W96
// 029   ----------------------------------------
 BYTE   W96
// 030   ----------------------------------------
 BYTE   W96
// 031   ----------------------------------------
 BYTE   W96
// 032   ----------------------------------------
 BYTE   W96
// 033   ----------------------------------------
 BYTE   W96
// 034   ----------------------------------------
 BYTE   W90
 BYTE   GoTo
  POIN2 Label_3_01650AB4
 BYTE   FINE

//**************** Track 5 (Midi-Chn.4) ****************//

CastlevaniaStage6MeatOfJustice_005:
// 000   ----------------------------------------
Label_4_01650B44:
 BYTE   KEYSH   CastlevaniaStage6MeatOfJustice_key+0
 BYTE   VOICE   110
 BYTE   VOL   72*CastlevaniaStage6MeatOfJustice_mvl/mxv
 BYTE   PAN   c_v+0
 BYTE   TEMPO   142*CastlevaniaStage6MeatOfJustice_tbs/2
 BYTE   W96
// 001   ----------------------------------------
 BYTE   W96
// 002   ----------------------------------------
 BYTE   W96
// 003   ----------------------------------------
 BYTE   W96
// 004   ----------------------------------------
 BYTE   W96
// 005   ----------------------------------------
 BYTE   W96
// 006   ----------------------------------------
 BYTE   W96
// 007   ----------------------------------------
 BYTE   W96
// 008   ----------------------------------------
 BYTE   W96
// 009   ----------------------------------------
 BYTE   W96
// 010   ----------------------------------------
 BYTE   W96
// 011   ----------------------------------------
 BYTE   W96
// 012   ----------------------------------------
Label_4_01650B5A:
 BYTE   N18  Gn4  v100
 BYTE   W18
 BYTE   Dn4
 BYTE   W18
 BYTE   Gn4
 BYTE   W18
 BYTE   Dn4
 BYTE   W18
 BYTE   N12  Gn4
 BYTE   W12
 BYTE   Dn4
 BYTE   W12
 BYTE   PEND 
 BYTE   PATT
  POIN2 Label_4_01650B5A
 BYTE   PATT
  POIN2 Label_4_01650B5A
 BYTE   PATT
  POIN2 Label_4_01650B5A
// 013   ----------------------------------------
Label_4_01650B79:
 BYTE   N18  Ds3  v120
 BYTE   W18
 BYTE   Fn3
 BYTE   W18
 BYTE   N12  Gn3
 BYTE   W12
 BYTE   N18  Fn3
 BYTE   W18
 BYTE   Gn3
 BYTE   W18
 BYTE   N12  An3
 BYTE   W12
 BYTE   PEND 
// 014   ----------------------------------------
Label_4_01650B8B:
 BYTE   N18  Ds3  v120
 BYTE   W18
 BYTE   Fn3
 BYTE   W18
 BYTE   N12  Gn3
 BYTE   W12
 BYTE   N18  Fn3
 BYTE   W18
 BYTE   Gn3
 BYTE   W18
 BYTE   N12  Gs3
 BYTE   W12
 BYTE   PEND 
// 015   ----------------------------------------
 BYTE   N96  An3  v120
 BYTE   W96
// 016   ----------------------------------------
 BYTE   W18
 BYTE   N12  Dn4  v100
 BYTE   W12
 BYTE   Cs4
 BYTE   W12
 BYTE   Cn4
 BYTE   W12
 BYTE   Bn3
 BYTE   W12
 BYTE   As3
 BYTE   W12
 BYTE   An3
 BYTE   W12
 BYTE   N06  Gs3
 BYTE   W96
// 017   ----------------------------------------
 BYTE   W96
// 018   ----------------------------------------
 BYTE   W96
// 019   ----------------------------------------
 BYTE   W90
 BYTE   W96
// 020   ----------------------------------------
 BYTE   W96
// 021   ----------------------------------------
 BYTE   W96
// 022   ----------------------------------------
 BYTE   W96
// 023   ----------------------------------------
 BYTE   W96
// 024   ----------------------------------------
 BYTE   W96
// 025   ----------------------------------------
 BYTE   W96
// 026   ----------------------------------------
 BYTE   W96
// 027   ----------------------------------------
 BYTE   W12
 BYTE   N18  Gn4  v100
 BYTE   W18
 BYTE   N18  Dn4  v100
 BYTE   W18
 BYTE   Gn4
 BYTE   W18
 BYTE   Dn4
 BYTE   W18
 BYTE   N12  Gn4
 BYTE   W12
// 028   ----------------------------------------
 BYTE   Dn4
 BYTE   W12
 BYTE   PATT
  POIN2 Label_4_01650B5A
 BYTE   PATT
  POIN2 Label_4_01650B5A
 BYTE   PATT
  POIN2 Label_4_01650B5A
 BYTE   PATT
  POIN2 Label_4_01650B79
 BYTE   PATT
  POIN2 Label_4_01650B8B
// 029   ----------------------------------------
 BYTE   N96  An3  v120
 BYTE   W96
// 030   ----------------------------------------
 BYTE   W18
 BYTE   N12  Dn4  v100
 BYTE   W12
 BYTE   Cs4
 BYTE   W12
 BYTE   Cn4
 BYTE   W12
 BYTE   Bn3
 BYTE   W12
 BYTE   As3
 BYTE   W12
 BYTE   An3
 BYTE   W12
 BYTE   N06  Gs3
 BYTE   GoTo
  POIN2 Label_4_01650B44
 BYTE   FINE

//**************** Track 6 (Midi-Chn.5) ****************//

CastlevaniaStage6MeatOfJustice_006:
// 000   ----------------------------------------
Label_5_01650C04:
 BYTE   KEYSH   CastlevaniaStage6MeatOfJustice_key+0
 BYTE   VOICE   52
 BYTE   VOL   72*CastlevaniaStage6MeatOfJustice_mvl/mxv
 BYTE   PAN   c_v+0
 BYTE   TEMPO   142*CastlevaniaStage6MeatOfJustice_tbs/2
 BYTE   W96
// 001   ----------------------------------------
 BYTE   W96
// 002   ----------------------------------------
 BYTE   W96
// 003   ----------------------------------------
 BYTE   W96
// 004   ----------------------------------------
 BYTE   W96
// 005   ----------------------------------------
 BYTE   W96
// 006   ----------------------------------------
 BYTE   W96
// 007   ----------------------------------------
 BYTE   W96
// 008   ----------------------------------------
 BYTE   W96
// 009   ----------------------------------------
 BYTE   W96
// 010   ----------------------------------------
 BYTE   W96
// 011   ----------------------------------------
 BYTE   W96
// 012   ----------------------------------------
 BYTE   W06
Label_5_01650C1B:
 BYTE   N18  Gn4  v100
 BYTE   W18
 BYTE   Dn4
 BYTE   W18
 BYTE   Gn4
 BYTE   W18
 BYTE   Dn4
 BYTE   W18
 BYTE   N12  Gn4
 BYTE   W12
 BYTE   N06  Dn4
 BYTE   W12
 BYTE   PEND 
 BYTE   PATT
  POIN2 Label_5_01650C1B
 BYTE   PATT
  POIN2 Label_5_01650C1B
// 013   ----------------------------------------
Label_5_01650C36:
 BYTE   N18  Gn4  v100
 BYTE   W18
 BYTE   Dn4
 BYTE   W18
 BYTE   Gn4
 BYTE   W18
 BYTE   Dn4
 BYTE   W18
 BYTE   N12  Gn4
 BYTE   W12
 BYTE   N06  Dn4
 BYTE   W06
 BYTE   N18  Gn3  v120
 BYTE   W18
 BYTE   PEND 
// 014   ----------------------------------------
Label_5_01650C4B:
 BYTE   N18  An3  v120
 BYTE   W18
 BYTE   N12  As3
 BYTE   W12
 BYTE   N18  An3
 BYTE   W18
 BYTE   As3
 BYTE   W18
 BYTE   N12  Cn4
 BYTE   W12
 BYTE   N18  As3
 BYTE   W18
 BYTE   PEND 
// 015   ----------------------------------------
Label_5_01650C5E:
 BYTE   N18  Cn4  v120
 BYTE   W18
 BYTE   N12  Dn4
 BYTE   W12
 BYTE   N18  Cn4
 BYTE   W18
 BYTE   Dn4
 BYTE   W18
 BYTE   N12  Ds4
 BYTE   W12
 BYTE   N96  Dn4
 BYTE   W96
// 016   ----------------------------------------
 BYTE   W12
 BYTE   PEND 
 BYTE   N12  Dn4  v120
 BYTE   W12
 BYTE   Cs4
 BYTE   W12
 BYTE   Cn4
 BYTE   W12
 BYTE   Bn3
 BYTE   W12
 BYTE   As3
 BYTE   W12
 BYTE   An3
 BYTE   W12
 BYTE   Gs3
 BYTE   W96
// 017   ----------------------------------------
 BYTE   W96
// 018   ----------------------------------------
 BYTE   W96
// 019   ----------------------------------------
 BYTE   W96
// 020   ----------------------------------------
 BYTE   W96
// 021   ----------------------------------------
 BYTE   W96
// 022   ----------------------------------------
 BYTE   W96
// 023   ----------------------------------------
 BYTE   W96
// 024   ----------------------------------------
 BYTE   W96
// 025   ----------------------------------------
 BYTE   W96
// 026   ----------------------------------------
 BYTE   W96
// 027   ----------------------------------------
 BYTE   W96
// 028   ----------------------------------------
 BYTE   W12
 BYTE   W06
 BYTE   N18  Gn4  v100
 BYTE   W18
 BYTE   Dn4
 BYTE   W18
 BYTE   Gn4
 BYTE   W18
 BYTE   Dn4
 BYTE   W18
 BYTE   N12  Gn4
 BYTE   W12
// 029   ----------------------------------------
 BYTE   N06  Dn4
 BYTE   W12
 BYTE   PATT
  POIN2 Label_5_01650C1B
 BYTE   PATT
  POIN2 Label_5_01650C1B
 BYTE   PATT
  POIN2 Label_5_01650C36
 BYTE   PATT
  POIN2 Label_5_01650C4B
 BYTE   PATT
  POIN2 Label_5_01650C5E
// 030   ----------------------------------------
 BYTE   N12  Dn4  v120
 BYTE   W12
 BYTE   Cs4
 BYTE   W12
 BYTE   Cn4
 BYTE   W12
 BYTE   Bn3
 BYTE   W12
 BYTE   As3
 BYTE   W12
 BYTE   An3
 BYTE   W12
 BYTE   Gs3
 BYTE   W06
 BYTE   GoTo
  POIN2 Label_5_01650C04
 BYTE   FINE

//**************** Track 7 (Midi-Chn.6) ****************//

CastlevaniaStage6MeatOfJustice_007:
// 000   ----------------------------------------
Label_6_01650CD0:
 BYTE   KEYSH   CastlevaniaStage6MeatOfJustice_key+0
 BYTE   VOICE   49
 BYTE   VOL   64*CastlevaniaStage6MeatOfJustice_mvl/mxv
 BYTE   PAN   c_v+0
 BYTE   TEMPO   142*CastlevaniaStage6MeatOfJustice_tbs/2
 BYTE   W96
// 001   ----------------------------------------
 BYTE   W96
// 002   ----------------------------------------
 BYTE   W96
// 003   ----------------------------------------
 BYTE   W96
// 004   ----------------------------------------
 BYTE   N36  Dn3  v120
 BYTE   W36
 BYTE   N48  Gn3
 BYTE   W48
 BYTE   N06  Fn3
 BYTE   W06
 BYTE   Gn3
 BYTE   W06
// 005   ----------------------------------------
 BYTE   N36  An3
 BYTE   W36
 BYTE   Gn3
 BYTE   W36
 BYTE   N24  Fn3
 BYTE   W24
// 006   ----------------------------------------
Label_6_01650CF2:
 BYTE   N36  Ds3  v120
 BYTE   W36
 BYTE   Dn3
 BYTE   W36
 BYTE   N24  Cs3
 BYTE   W30
 BYTE   PEND 
// 007   ----------------------------------------
Label_6_01650CFC:
 BYTE   N18  Dn3  v100
 BYTE   W18
 BYTE   An3
 BYTE   W18
 BYTE   N54  Dn4
 BYTE   W54
 BYTE   N36  Dn3  v120
 BYTE   W36
 BYTE   PEND 
// 008   ----------------------------------------
Label_6_01650D0A:
 BYTE   N48  Gn3  v120
 BYTE   W48
 BYTE   N06  Fn3
 BYTE   W06
 BYTE   Gn3
 BYTE   W06
 BYTE   N36  An3
 BYTE   W36
 BYTE   PEND 
// 009   ----------------------------------------
Label_6_01650D17:
 BYTE   N36  Gn3  v120
 BYTE   W36
 BYTE   N24  Fn3
 BYTE   W24
 BYTE   N36  Ds3
 BYTE   W36
 BYTE   PEND 
// 010   ----------------------------------------
Label_6_01650D22:
 BYTE   N36  Dn3  v120
 BYTE   W36
 BYTE   N24  Cs3
 BYTE   W30
 BYTE   N18  Dn3  v100
 BYTE   W18
 BYTE   An3
 BYTE   W18
 BYTE   PEND 
// 011   ----------------------------------------
 BYTE   N54  Dn4  v100
 BYTE   W96
// 012   ----------------------------------------
 BYTE   W96
// 013   ----------------------------------------
 BYTE   W96
// 014   ----------------------------------------
 BYTE   W96
// 015   ----------------------------------------
 BYTE   W96
// 016   ----------------------------------------
 BYTE   W96
// 017   ----------------------------------------
 BYTE   W96
// 018   ----------------------------------------
 BYTE   W96
// 019   ----------------------------------------
 BYTE   W96
// 020   ----------------------------------------
 BYTE   W96
// 021   ----------------------------------------
 BYTE   W96
// 022   ----------------------------------------
 BYTE   W96
// 023   ----------------------------------------
 BYTE   W42
 BYTE   W12
 BYTE   N36  Dn3  v120
 BYTE   W36
 BYTE   N48  Gn3
 BYTE   W48
// 024   ----------------------------------------
 BYTE   N06  Fn3
 BYTE   W06
 BYTE   Gn3
 BYTE   W06
 BYTE   N36  An3
 BYTE   W36
 BYTE   Gn3
 BYTE   W36
 BYTE   N24  Fn3
 BYTE   W24
 BYTE   PATT
  POIN2 Label_6_01650CF2
 BYTE   PATT
  POIN2 Label_6_01650CFC
 BYTE   PATT
  POIN2 Label_6_01650D0A
 BYTE   PATT
  POIN2 Label_6_01650D17
 BYTE   PATT
  POIN2 Label_6_01650D22
// 025   ----------------------------------------
 BYTE   N54  Dn4  v100
 BYTE   W54
 BYTE   W96
// 026   ----------------------------------------
 BYTE   W96
// 027   ----------------------------------------
 BYTE   W96
// 028   ----------------------------------------
 BYTE   W96
// 029   ----------------------------------------
 BYTE   W96
// 030   ----------------------------------------
 BYTE   W96
// 031   ----------------------------------------
 BYTE   W96
// 032   ----------------------------------------
 BYTE   W90
 BYTE   GoTo
  POIN2 Label_6_01650CD0
 BYTE   FINE

//**************** Track 8 (Midi-Chn.7) ****************//

CastlevaniaStage6MeatOfJustice_008:
// 000   ----------------------------------------
Label_7_01650D80:
 BYTE   KEYSH   CastlevaniaStage6MeatOfJustice_key+0
 BYTE   VOICE   49
 BYTE   VOL   64*CastlevaniaStage6MeatOfJustice_mvl/mxv
 BYTE   PAN   c_v+0
 BYTE   TEMPO   142*CastlevaniaStage6MeatOfJustice_tbs/2
 BYTE   W96
// 001   ----------------------------------------
 BYTE   W96
// 002   ----------------------------------------
 BYTE   W96
// 003   ----------------------------------------
 BYTE   W96
// 004   ----------------------------------------
Label_7_01650D8E:
 BYTE   N36  Gn3  v120
 BYTE   W36
 BYTE   N48  As3
 BYTE   W48
 BYTE   N06  An3
 BYTE   W06
 BYTE   As3
 BYTE   W06
 BYTE   PEND 
// 005   ----------------------------------------
Label_7_01650D9B:
 BYTE   N36  Cn4  v120
 BYTE   W36
 BYTE   As3
 BYTE   W36
 BYTE   N24  An3
 BYTE   W24
 BYTE   PEND 
// 006   ----------------------------------------
Label_7_01650DA5:
 BYTE   N36  As3  v120
 BYTE   W36
 BYTE   N60  Gn3
 BYTE   W60
 BYTE   PEND 
// 007   ----------------------------------------
Label_7_01650DAD:
 BYTE   N18  Dn3  v120
 BYTE   W18
 BYTE   An3
 BYTE   W18
 BYTE   N60  Dn4
 BYTE   W60
 BYTE   PEND 
 BYTE   PATT
  POIN2 Label_7_01650D8E
 BYTE   PATT
  POIN2 Label_7_01650D9B
 BYTE   PATT
  POIN2 Label_7_01650DA5
// 008   ----------------------------------------
 BYTE   N18  Dn3  v120
 BYTE   W18
 BYTE   An3
 BYTE   W18
 BYTE   N60  Dn4
 BYTE   W96
// 009   ----------------------------------------
 BYTE   W96
// 010   ----------------------------------------
 BYTE   W96
// 011   ----------------------------------------
 BYTE   W96
// 012   ----------------------------------------
 BYTE   W96
// 013   ----------------------------------------
 BYTE   W96
// 014   ----------------------------------------
 BYTE   W96
// 015   ----------------------------------------
 BYTE   W96
// 016   ----------------------------------------
 BYTE   W96
// 017   ----------------------------------------
 BYTE   W96
// 018   ----------------------------------------
 BYTE   W96
// 019   ----------------------------------------
 BYTE   W96
// 020   ----------------------------------------
 BYTE   W48
 BYTE   W12
 BYTE   N36  Gn3  v120
 BYTE   W36
// 021   ----------------------------------------
 BYTE   N48  As3
 BYTE   W48
 BYTE   N06  An3
 BYTE   W06
 BYTE   As3
 BYTE   W06
 BYTE   N36  Cn4
 BYTE   W36
// 022   ----------------------------------------
 BYTE   As3
 BYTE   W36
 BYTE   N24  An3
 BYTE   W24
 BYTE   PATT
  POIN2 Label_7_01650DA5
 BYTE   PATT
  POIN2 Label_7_01650DAD
 BYTE   PATT
  POIN2 Label_7_01650D8E
 BYTE   PATT
  POIN2 Label_7_01650D9B
 BYTE   PATT
  POIN2 Label_7_01650DA5
 BYTE   PATT
  POIN2 Label_7_01650DAD
// 023   ----------------------------------------
 BYTE   W96
// 024   ----------------------------------------
 BYTE   W96
// 025   ----------------------------------------
 BYTE   W96
// 026   ----------------------------------------
 BYTE   W96
// 027   ----------------------------------------
 BYTE   W96
// 028   ----------------------------------------
 BYTE   W96
// 029   ----------------------------------------
 BYTE   W96
// 030   ----------------------------------------
 BYTE   W90
 BYTE   GoTo
  POIN2 Label_7_01650D80
 BYTE   FINE

//**************** Track 9 (Midi-Chn.8) ****************//

CastlevaniaStage6MeatOfJustice_009:
// 000   ----------------------------------------
Label_8_01650E1C:
 BYTE   KEYSH   CastlevaniaStage6MeatOfJustice_key+0
 BYTE   VOICE   36
 BYTE   VOL   64*CastlevaniaStage6MeatOfJustice_mvl/mxv
 BYTE   PAN   c_v+0
 BYTE   N06  Gn1  v120
 BYTE   TEMPO   142*CastlevaniaStage6MeatOfJustice_tbs/2
 BYTE   W12
 BYTE   N06  Gn1  v120
 BYTE   W12
 BYTE   Gn1
 BYTE   W12
 BYTE   Gn1
 BYTE   W12
 BYTE   Fn1
 BYTE   W12
 BYTE   Fn1
 BYTE   W12
 BYTE   Fn1
 BYTE   W06
 BYTE   N18
 BYTE   W18
// 001   ----------------------------------------
Label_8_01650E3A:
 BYTE   N06  Ds1  v120
 BYTE   W12
 BYTE   Ds1
 BYTE   W12
 BYTE   Ds1
 BYTE   W12
 BYTE   Ds1
 BYTE   W12
 BYTE   Fn1
 BYTE   W12
 BYTE   Fn1
 BYTE   W12
 BYTE   Fn1
 BYTE   W06
 BYTE   N18
 BYTE   W18
 BYTE   PEND 
// 002   ----------------------------------------
 BYTE   N06  Gn1  v120
 BYTE   W12
 BYTE   Gn1
 BYTE   W12
 BYTE   Gn1
 BYTE   W12
 BYTE   Gn1
 BYTE   W12
 BYTE   Fn1
 BYTE   W12
 BYTE   Fn1
 BYTE   W12
 BYTE   Fn1
 BYTE   W06
 BYTE   N18
 BYTE   W18
 BYTE   PATT
  POIN2 Label_8_01650E3A
// 003   ----------------------------------------
Label_8_01650E64:
 BYTE   N06  Gn1  v120
 BYTE   W06
 BYTE   Gn1
 BYTE   W06
 BYTE   N12
 BYTE   W12
 BYTE   N06
 BYTE   W06
 BYTE   N30
 BYTE   W30
 BYTE   N06  Cn1
 BYTE   W06
 BYTE   Dn1
 BYTE   W06
 BYTE   Fn1
 BYTE   W12
 BYTE   An1
 BYTE   W12
 BYTE   PEND 
 BYTE   PATT
  POIN2 Label_8_01650E64
// 004   ----------------------------------------
Label_8_01650E7F:
 BYTE   N06  Ds1  v120
 BYTE   W06
 BYTE   Ds1
 BYTE   W06
 BYTE   N12
 BYTE   W12
 BYTE   N06
 BYTE   W06
 BYTE   N30
 BYTE   W30
 BYTE   N06  An0
 BYTE   W06
 BYTE   As0
 BYTE   W06
 BYTE   Ds1
 BYTE   W12
 BYTE   Gn1
 BYTE   W12
 BYTE   PEND 
// 005   ----------------------------------------
Label_8_01650E95:
 BYTE   N06  Dn1  v120
 BYTE   W06
 BYTE   Dn1
 BYTE   W06
 BYTE   N12
 BYTE   W12
 BYTE   N06
 BYTE   W06
 BYTE   N30
 BYTE   W30
 BYTE   N06  Cn1
 BYTE   W06
 BYTE   Dn1
 BYTE   W06
 BYTE   Fn1
 BYTE   W06
 BYTE   Fn1
 BYTE   W06
 BYTE   An1
 BYTE   W12
 BYTE   PEND 
 BYTE   PATT
  POIN2 Label_8_01650E64
 BYTE   PATT
  POIN2 Label_8_01650E64
 BYTE   PATT
  POIN2 Label_8_01650E7F
 BYTE   PATT
  POIN2 Label_8_01650E95
// 006   ----------------------------------------
 BYTE   N06  Gn2  v120
 BYTE   W12
 BYTE   Gn2
 BYTE   W06
 BYTE   Gn2
 BYTE   W06
 BYTE   Gn2
 BYTE   W12
 BYTE   Gn2
 BYTE   W06
 BYTE   Gn2
 BYTE   W06
 BYTE   Fn2
 BYTE   W12
 BYTE   Fn2
 BYTE   W06
 BYTE   Fn2
 BYTE   W06
 BYTE   Fn2
 BYTE   W12
 BYTE   Fn2
 BYTE   W06
 BYTE   Fn2
 BYTE   W06
// 007   ----------------------------------------
 BYTE   En2
 BYTE   W12
 BYTE   En2
 BYTE   W06
 BYTE   En2
 BYTE   W06
 BYTE   En2
 BYTE   W12
 BYTE   En2
 BYTE   W06
 BYTE   En2
 BYTE   W06
 BYTE   Ds2
 BYTE   W12
 BYTE   Ds2
 BYTE   W06
 BYTE   Ds2
 BYTE   W06
 BYTE   Ds2
 BYTE   W12
 BYTE   Dn2
 BYTE   W06
 BYTE   Dn2
 BYTE   W06
// 008   ----------------------------------------
 BYTE   Gn1
 BYTE   W12
 BYTE   Gn2
 BYTE   W06
 BYTE   Gn2
 BYTE   W06
 BYTE   Gn1
 BYTE   W12
 BYTE   Gn2
 BYTE   W06
 BYTE   Gn2
 BYTE   W06
 BYTE   Fn1
 BYTE   W12
 BYTE   Fn2
 BYTE   W06
 BYTE   Fn2
 BYTE   W06
 BYTE   Fn1
 BYTE   W12
 BYTE   Fn2
 BYTE   W06
 BYTE   Fn2
 BYTE   W06
// 009   ----------------------------------------
 BYTE   En1
 BYTE   W12
 BYTE   En2
 BYTE   W06
 BYTE   En2
 BYTE   W06
 BYTE   En1
 BYTE   W12
 BYTE   En2
 BYTE   W06
 BYTE   En2
 BYTE   W06
 BYTE   Ds1
 BYTE   W12
 BYTE   Ds2
 BYTE   W06
 BYTE   Ds2
 BYTE   W06
 BYTE   Dn1
 BYTE   W12
 BYTE   Dn2
 BYTE   W06
 BYTE   Dn2
 BYTE   W06
// 010   ----------------------------------------
 BYTE   Ds1
 BYTE   W12
 BYTE   Ds1
 BYTE   W06
 BYTE   Ds1
 BYTE   W06
 BYTE   Ds1
 BYTE   W12
 BYTE   N18
 BYTE   W24
 BYTE   N06
 BYTE   W06
 BYTE   Ds1
 BYTE   W06
 BYTE   Ds1
 BYTE   W12
 BYTE   N18
 BYTE   W24
// 011   ----------------------------------------
Label_8_01650F35:
 BYTE   N06  Ds1  v120
 BYTE   W06
 BYTE   Ds1
 BYTE   W06
 BYTE   Ds1
 BYTE   W12
 BYTE   N18
 BYTE   W24
 BYTE   N06
 BYTE   W06
 BYTE   Ds1
 BYTE   W06
 BYTE   Ds1
 BYTE   W12
 BYTE   N12
 BYTE   W12
 BYTE   N06  Dn1
 BYTE   W12
 BYTE   PEND 
// 012   ----------------------------------------
Label_8_01650F4B:
 BYTE   N06  Dn1  v120
 BYTE   W06
 BYTE   Dn1
 BYTE   W06
 BYTE   Dn1
 BYTE   W12
 BYTE   Dn1
 BYTE   W06
 BYTE   Dn1
 BYTE   W06
 BYTE   Dn1
 BYTE   W12
 BYTE   Dn1
 BYTE   W06
 BYTE   Dn1
 BYTE   W06
 BYTE   Dn1
 BYTE   W12
 BYTE   Dn1
 BYTE   W06
 BYTE   Dn1
 BYTE   W06
 BYTE   Dn1
 BYTE   W12
 BYTE   PEND 
// 013   ----------------------------------------
 BYTE   N06  Dn1  v120
 BYTE   W12
 BYTE   Dn1
 BYTE   W12
 BYTE   Dn1
 BYTE   W12
 BYTE   Dn1
 BYTE   W12
 BYTE   Dn1
 BYTE   W12
 BYTE   N18
 BYTE   W24
 BYTE   N06  Gn1
 BYTE   W12
// 014   ----------------------------------------
Label_8_01650F77:
 BYTE   N06  Gn1  v120
 BYTE   W12
 BYTE   Gn1
 BYTE   W12
 BYTE   Gn1
 BYTE   W12
 BYTE   Fn1
 BYTE   W12
 BYTE   Fn1
 BYTE   W12
 BYTE   Fn1
 BYTE   W06
 BYTE   N18
 BYTE   W18
 BYTE   N06  Ds1
 BYTE   W12
 BYTE   PEND 
// 015   ----------------------------------------
 BYTE   N06  Ds1  v120
 BYTE   W12
 BYTE   Ds1
 BYTE   W12
 BYTE   Ds1
 BYTE   W12
 BYTE   Fn1
 BYTE   W12
 BYTE   Fn1
 BYTE   W12
 BYTE   Fn1
 BYTE   W06
 BYTE   N18
 BYTE   W18
 BYTE   N06  Gn1
 BYTE   W12
 BYTE   PATT
  POIN2 Label_8_01650F77
// 016   ----------------------------------------
 BYTE   N06  Ds1  v120
 BYTE   W12
 BYTE   Ds1
 BYTE   W12
 BYTE   Ds1
 BYTE   W12
 BYTE   Fn1
 BYTE   W12
 BYTE   Fn1
 BYTE   W12
 BYTE   Fn1
 BYTE   W06
 BYTE   N18
 BYTE   W06
 BYTE   W12
 BYTE   N06  Gn1  v120
 BYTE   W06
 BYTE   Gn1
 BYTE   W06
// 017   ----------------------------------------
Label_8_01650FBA:
 BYTE   N12  Gn1  v120
 BYTE   W12
 BYTE   N06
 BYTE   W06
 BYTE   N30
 BYTE   W30
 BYTE   N06  Cn1
 BYTE   W06
 BYTE   Dn1
 BYTE   W06
 BYTE   Fn1
 BYTE   W12
 BYTE   An1
 BYTE   W12
 BYTE   Gn1
 BYTE   W06
 BYTE   Gn1
 BYTE   W06
 BYTE   PEND 
// 018   ----------------------------------------
Label_8_01650FD0:
 BYTE   N12  Gn1  v120
 BYTE   W12
 BYTE   N06
 BYTE   W06
 BYTE   N30
 BYTE   W30
 BYTE   N06  Cn1
 BYTE   W06
 BYTE   Dn1
 BYTE   W06
 BYTE   Fn1
 BYTE   W12
 BYTE   An1
 BYTE   W12
 BYTE   Ds1
 BYTE   W06
 BYTE   Ds1
 BYTE   W06
 BYTE   PEND 
// 019   ----------------------------------------
Label_8_01650FE6:
 BYTE   N12  Ds1  v120
 BYTE   W12
 BYTE   N06
 BYTE   W06
 BYTE   N30
 BYTE   W30
 BYTE   N06  An0
 BYTE   W06
 BYTE   As0
 BYTE   W06
 BYTE   Ds1
 BYTE   W12
 BYTE   Gn1
 BYTE   W12
 BYTE   Dn1
 BYTE   W06
 BYTE   Dn1
 BYTE   W06
 BYTE   PEND 
// 020   ----------------------------------------
 BYTE   N12  Dn1  v120
 BYTE   W12
 BYTE   N06
 BYTE   W06
 BYTE   N30
 BYTE   W30
 BYTE   N06  Cn1
 BYTE   W06
 BYTE   Dn1
 BYTE   W06
 BYTE   Fn1
 BYTE   W06
 BYTE   Fn1
 BYTE   W06
 BYTE   An1
 BYTE   W12
 BYTE   Gn1
 BYTE   W06
 BYTE   Gn1
 BYTE   W06
 BYTE   PATT
  POIN2 Label_8_01650FBA
 BYTE   PATT
  POIN2 Label_8_01650FD0
 BYTE   PATT
  POIN2 Label_8_01650FE6
// 021   ----------------------------------------
 BYTE   N12  Dn1  v120
 BYTE   W12
 BYTE   N06
 BYTE   W06
 BYTE   N30
 BYTE   W30
 BYTE   N06  Cn1
 BYTE   W06
 BYTE   Dn1
 BYTE   W06
 BYTE   Fn1
 BYTE   W06
 BYTE   Fn1
 BYTE   W06
 BYTE   An1
 BYTE   W12
 BYTE   Gn2
 BYTE   W12
// 022   ----------------------------------------
 BYTE   N06  Gn2  v120
 BYTE   W06
 BYTE   Gn2
 BYTE   W06
 BYTE   Gn2
 BYTE   W12
 BYTE   Gn2
 BYTE   W06
 BYTE   Gn2
 BYTE   W06
 BYTE   Fn2
 BYTE   W12
 BYTE   Fn2
 BYTE   W06
 BYTE   Fn2
 BYTE   W06
 BYTE   Fn2
 BYTE   W12
 BYTE   Fn2
 BYTE   W06
 BYTE   Fn2
 BYTE   W06
 BYTE   En2
 BYTE   W12
// 023   ----------------------------------------
 BYTE   En2
 BYTE   W06
 BYTE   En2
 BYTE   W06
 BYTE   En2
 BYTE   W12
 BYTE   En2
 BYTE   W06
 BYTE   En2
 BYTE   W06
 BYTE   Ds2
 BYTE   W12
 BYTE   Ds2
 BYTE   W06
 BYTE   Ds2
 BYTE   W06
 BYTE   Ds2
 BYTE   W12
 BYTE   Dn2
 BYTE   W06
 BYTE   Dn2
 BYTE   W06
 BYTE   Gn1
 BYTE   W12
// 024   ----------------------------------------
 BYTE   Gn2
 BYTE   W06
 BYTE   Gn2
 BYTE   W06
 BYTE   Gn1
 BYTE   W12
 BYTE   Gn2
 BYTE   W06
 BYTE   Gn2
 BYTE   W06
 BYTE   Fn1
 BYTE   W12
 BYTE   Fn2
 BYTE   W06
 BYTE   Fn2
 BYTE   W06
 BYTE   Fn1
 BYTE   W12
 BYTE   Fn2
 BYTE   W06
 BYTE   Fn2
 BYTE   W06
 BYTE   En1
 BYTE   W12
// 025   ----------------------------------------
 BYTE   En2
 BYTE   W06
 BYTE   En2
 BYTE   W06
 BYTE   En1
 BYTE   W12
 BYTE   En2
 BYTE   W06
 BYTE   En2
 BYTE   W06
 BYTE   Ds1
 BYTE   W12
 BYTE   Ds2
 BYTE   W06
 BYTE   Ds2
 BYTE   W06
 BYTE   Dn1
 BYTE   W12
 BYTE   Dn2
 BYTE   W06
 BYTE   Dn2
 BYTE   W06
 BYTE   Ds1
 BYTE   W12
// 026   ----------------------------------------
 BYTE   Ds1
 BYTE   W06
 BYTE   Ds1
 BYTE   W06
 BYTE   Ds1
 BYTE   W12
 BYTE   N18
 BYTE   W24
 BYTE   N06
 BYTE   W06
 BYTE   Ds1
 BYTE   W06
 BYTE   Ds1
 BYTE   W12
 BYTE   N18
 BYTE   W24
 BYTE   PATT
  POIN2 Label_8_01650F35
 BYTE   PATT
  POIN2 Label_8_01650F4B
// 027   ----------------------------------------
 BYTE   N06  Dn1  v120
 BYTE   W12
 BYTE   Dn1
 BYTE   W12
 BYTE   Dn1
 BYTE   W12
 BYTE   Dn1
 BYTE   W12
 BYTE   Dn1
 BYTE   W12
 BYTE   N18
 BYTE   W18
 BYTE   GoTo
  POIN2 Label_8_01650E1C
 BYTE   FINE

//**************** Track 10 (Midi-Chn.9) ****************//

CastlevaniaStage6MeatOfJustice_010:
// 000   ----------------------------------------
Label_9_016510C8:
 BYTE   KEYSH   CastlevaniaStage6MeatOfJustice_key+0
 BYTE   VOICE   117
 BYTE   VOL   80*CastlevaniaStage6MeatOfJustice_mvl/mxv
 BYTE   PAN   c_v+0
 BYTE   N06  Dn1  v120
 BYTE   TEMPO   142*CastlevaniaStage6MeatOfJustice_tbs/2
 BYTE   W12
 BYTE   N06  Bn0  v120
 BYTE   N06  Fs1
 BYTE   W12
 BYTE   Dn1
 BYTE   W12
 BYTE   Bn0
 BYTE   N06  Fs1
 BYTE   W12
 BYTE   Dn1
 BYTE   W12
 BYTE   Bn0
 BYTE   N06  Fs1
 BYTE   W12
 BYTE   Dn1
 BYTE   W12
 BYTE   Bn0
 BYTE   N06  Fs1
 BYTE   W06
 BYTE   Bn0
 BYTE   N06  Fs1
 BYTE   W06
// 001   ----------------------------------------
Label_9_016510F2:
 BYTE   N06  Dn1  v120
 BYTE   W12
 BYTE   Bn0
 BYTE   N06  Fs1
 BYTE   W12
 BYTE   Dn1
 BYTE   W12
 BYTE   Bn0
 BYTE   N06  Fs1
 BYTE   W12
 BYTE   Dn1
 BYTE   W12
 BYTE   Bn0
 BYTE   N06  Fs1
 BYTE   W12
 BYTE   Dn1
 BYTE   W12
 BYTE   Bn0
 BYTE   N06  Fs1
 BYTE   W06
 BYTE   Bn0
 BYTE   N06  Fs1
 BYTE   W06
 BYTE   PEND 
 BYTE   PATT
  POIN2 Label_9_016510F2
 BYTE   PATT
  POIN2 Label_9_016510F2
// 002   ----------------------------------------
Label_9_0165111B:
 BYTE   N06  Fs1  v120
 BYTE   N06  Bn0
 BYTE   W06
 BYTE   Fs1
 BYTE   W06
 BYTE   Fs1
 BYTE   W06
 BYTE   Fs1
 BYTE   W06
 BYTE   Bn0
 BYTE   N06  Fs1
 BYTE   W06
 BYTE   Fs1
 BYTE   W06
 BYTE   Fs1
 BYTE   W06
 BYTE   Fs1
 BYTE   W06
 BYTE   Bn0
 BYTE   N06  Fs1
 BYTE   W06
 BYTE   Fs1
 BYTE   W06
 BYTE   Fs1
 BYTE   W06
 BYTE   Fs1
 BYTE   W06
 BYTE   Dn1
 BYTE   W12
 BYTE   Dn1
 BYTE   W12
 BYTE   PEND 
 BYTE   PATT
  POIN2 Label_9_0165111B
 BYTE   PATT
  POIN2 Label_9_0165111B
// 003   ----------------------------------------
Label_9_0165114A:
 BYTE   N06  Fs1  v120
 BYTE   N06  Bn0
 BYTE   W06
 BYTE   Fs1
 BYTE   W06
 BYTE   Fs1
 BYTE   W06
 BYTE   Fs1
 BYTE   W06
 BYTE   Bn0
 BYTE   N06  Fs1
 BYTE   W06
 BYTE   Fs1
 BYTE   W06
 BYTE   Fs1
 BYTE   W06
 BYTE   Fs1
 BYTE   W06
 BYTE   Bn0
 BYTE   N06  Fs1
 BYTE   W06
 BYTE   Fs1
 BYTE   W06
 BYTE   Fs1
 BYTE   W06
 BYTE   Fs1
 BYTE   W06
 BYTE   Dn1
 BYTE   W06
 BYTE   Dn1
 BYTE   W06
 BYTE   Dn1
 BYTE   W12
 BYTE   PEND 
 BYTE   PATT
  POIN2 Label_9_0165111B
 BYTE   PATT
  POIN2 Label_9_0165111B
 BYTE   PATT
  POIN2 Label_9_0165111B
 BYTE   PATT
  POIN2 Label_9_0165114A
// 004   ----------------------------------------
Label_9_01651185:
 BYTE   N06  Bn0  v120
 BYTE   N06  Fs1
 BYTE   W12
 BYTE   Bn0
 BYTE   N06  Fs1
 BYTE   W06
 BYTE   Bn0
 BYTE   N06  Fs1
 BYTE   W06
 BYTE   Dn1
 BYTE   W12
 BYTE   Bn0
 BYTE   N06  Fs1
 BYTE   W06
 BYTE   Bn0
 BYTE   N06  Fs1
 BYTE   W06
 BYTE   Bn0
 BYTE   N06  Fs1
 BYTE   W12
 BYTE   Bn0
 BYTE   N06  Fs1
 BYTE   W06
 BYTE   Bn0
 BYTE   N06  Fs1
 BYTE   W06
 BYTE   Dn1
 BYTE   W12
 BYTE   Dn1
 BYTE   W12
 BYTE   PEND 
 BYTE   PATT
  POIN2 Label_9_01651185
// 005   ----------------------------------------
Label_9_016511B3:
 BYTE   N06  Dn1  v120
 BYTE   W12
 BYTE   Fs1
 BYTE   N06  Bn0
 BYTE   W06
 BYTE   Fs1
 BYTE   N06  Bn0
 BYTE   W06
 BYTE   Dn1
 BYTE   W12
 BYTE   Fs1
 BYTE   N06  Bn0
 BYTE   W06
 BYTE   Fs1
 BYTE   N06  Bn0
 BYTE   W06
 BYTE   Dn1
 BYTE   W12
 BYTE   Fs1
 BYTE   N06  Bn0
 BYTE   W06
 BYTE   Fs1
 BYTE   N06  Bn0
 BYTE   W06
 BYTE   Dn1
 BYTE   W12
 BYTE   Fs1
 BYTE   N06  Bn0
 BYTE   W06
 BYTE   Fs1
 BYTE   N06  Bn0
 BYTE   W06
 BYTE   PEND 
// 006   ----------------------------------------
Label_9_016511DE:
 BYTE   N06  Dn1  v120
 BYTE   W12
 BYTE   Fs1
 BYTE   N06  Bn0
 BYTE   W06
 BYTE   Fs1
 BYTE   N06  Bn0
 BYTE   W06
 BYTE   Dn1
 BYTE   W12
 BYTE   Fs1
 BYTE   N06  Bn0
 BYTE   W06
 BYTE   Fs1
 BYTE   N06  Bn0
 BYTE   W06
 BYTE   Dn1
 BYTE   W12
 BYTE   Fs1
 BYTE   N06  Bn0
 BYTE   W06
 BYTE   Fs1
 BYTE   N06  Bn0
 BYTE   W06
 BYTE   Dn1
 BYTE   W12
 BYTE   Dn1
 BYTE   W12
 BYTE   PEND 
// 007   ----------------------------------------
Label_9_01651203:
 BYTE   N06  Fs1  v120
 BYTE   N06  Bn0
 BYTE   W12
 BYTE   Fs1
 BYTE   N06  Bn0
 BYTE   W06
 BYTE   Fs1
 BYTE   N06  Bn0
 BYTE   W06
 BYTE   Dn1
 BYTE   W12
 BYTE   Fs1
 BYTE   N06  Bn0
 BYTE   W06
 BYTE   Fs1
 BYTE   N06  Bn0
 BYTE   W06
 BYTE   Bn0
 BYTE   N06  Fs1
 BYTE   W12
 BYTE   Fs1
 BYTE   N06  Bn0
 BYTE   W06
 BYTE   Fs1
 BYTE   N06  Bn0
 BYTE   W06
 BYTE   Dn1
 BYTE   W12
 BYTE   Fs1
 BYTE   N06  Bn0
 BYTE   W06
 BYTE   Fs1
 BYTE   N06  Bn0
 BYTE   W06
 BYTE   PEND 
// 008   ----------------------------------------
Label_9_01651232:
 BYTE   N06  Bn0  v120
 BYTE   N06  Fs1
 BYTE   W12
 BYTE   Fs1
 BYTE   N06  Bn0
 BYTE   W06
 BYTE   Fs1
 BYTE   N06  Bn0
 BYTE   W06
 BYTE   Dn1
 BYTE   W12
 BYTE   Fs1
 BYTE   N06  Bn0
 BYTE   W06
 BYTE   Fs1
 BYTE   N06  Bn0
 BYTE   W06
 BYTE   Bn0
 BYTE   N06  Fs1
 BYTE   W12
 BYTE   Fs1
 BYTE   N06  Bn0
 BYTE   W06
 BYTE   Fs1
 BYTE   N06  Bn0
 BYTE   W06
 BYTE   Dn1
 BYTE   W12
 BYTE   Fs1
 BYTE   N06  Bn0
 BYTE   W06
 BYTE   Fs1
 BYTE   N06  Bn0
 BYTE   W06
 BYTE   PEND 
// 009   ----------------------------------------
Label_9_01651261:
 BYTE   N06  Bn0  v120
 BYTE   N06  Fs1
 BYTE   W24
 BYTE   Dn1
 BYTE   W24
 BYTE   Fs1
 BYTE   N06  Bn0
 BYTE   W24
 BYTE   Dn1
 BYTE   W24
 BYTE   PEND 
// 010   ----------------------------------------
 BYTE   N06  Fs1  v120
 BYTE   N06  Bn0
 BYTE   W12
 BYTE   Fs1
 BYTE   W12
 BYTE   Fs1
 BYTE   N06  Bn0
 BYTE   W12
 BYTE   Fs1
 BYTE   W12
 BYTE   Fs1
 BYTE   N06  Bn0
 BYTE   W12
 BYTE   Fs1
 BYTE   W12
 BYTE   Dn1
 BYTE   W06
 BYTE   Dn1
 BYTE   W06
 BYTE   Dn1
 BYTE   W12
 BYTE   PATT
  POIN2 Label_9_016510F2
 BYTE   PATT
  POIN2 Label_9_016510F2
 BYTE   PATT
  POIN2 Label_9_016510F2
// 011   ----------------------------------------
 BYTE   N06  Dn1  v120
 BYTE   W12
 BYTE   Bn0
 BYTE   N06  Fs1
 BYTE   W12
 BYTE   Dn1
 BYTE   W12
 BYTE   Bn0
 BYTE   N06  Fs1
 BYTE   W12
 BYTE   Dn1
 BYTE   W12
 BYTE   Bn0
 BYTE   N06  Fs1
 BYTE   W12
 BYTE   Dn1
 BYTE   W12
 BYTE   Bn0
 BYTE   N06  Fs1
 BYTE   W06
 BYTE   N06  Bn0  v120
 BYTE   N06  Fs1
 BYTE   W06
 BYTE   PATT
  POIN2 Label_9_0165111B
 BYTE   PATT
  POIN2 Label_9_0165111B
 BYTE   PATT
  POIN2 Label_9_0165111B
 BYTE   PATT
  POIN2 Label_9_0165114A
 BYTE   PATT
  POIN2 Label_9_0165111B
 BYTE   PATT
  POIN2 Label_9_0165111B
 BYTE   PATT
  POIN2 Label_9_0165111B
 BYTE   PATT
  POIN2 Label_9_0165114A
// 012   ----------------------------------------
 BYTE   N06  Bn0  v120
 BYTE   N06  Fs1
 BYTE   W12
 BYTE   N06  Bn0  v120
 BYTE   N06  Fs1
 BYTE   W06
 BYTE   Bn0
 BYTE   N06  Fs1
 BYTE   W06
 BYTE   Dn1
 BYTE   W12
 BYTE   Bn0
 BYTE   N06  Fs1
 BYTE   W06
 BYTE   Bn0
 BYTE   N06  Fs1
 BYTE   W06
 BYTE   Bn0
 BYTE   N06  Fs1
 BYTE   W12
 BYTE   Bn0
 BYTE   N06  Fs1
 BYTE   W06
 BYTE   Bn0
 BYTE   N06  Fs1
 BYTE   W06
 BYTE   Dn1
 BYTE   W12
 BYTE   Dn1
 BYTE   W12
 BYTE   PATT
  POIN2 Label_9_01651185
 BYTE   PATT
  POIN2 Label_9_016511B3
 BYTE   PATT
  POIN2 Label_9_016511DE
 BYTE   PATT
  POIN2 Label_9_01651203
 BYTE   PATT
  POIN2 Label_9_01651232
 BYTE   PATT
  POIN2 Label_9_01651261
// 013   ----------------------------------------
 BYTE   N06  Fs1  v120
 BYTE   N06  Bn0
 BYTE   W12
 BYTE   Fs1
 BYTE   W12
 BYTE   Fs1
 BYTE   N06  Bn0
 BYTE   W12
 BYTE   Fs1
 BYTE   W12
 BYTE   Fs1
 BYTE   N06  Bn0
 BYTE   W12
 BYTE   Fs1
 BYTE   W12
 BYTE   Dn1
 BYTE   W06
 BYTE   Dn1
 BYTE   W06
 BYTE   Dn1
 BYTE   W06
 BYTE   GoTo
  POIN2 Label_9_016510C8
 BYTE   FINE

//******************************************************//
	ALIGN 4

CastlevaniaStage6MeatOfJustice:
	BYTE	10	// NumTrks
	BYTE	0	// NumBlks
	BYTE	CastlevaniaStage6MeatOfJustice_pri	// Priority
	BYTE	CastlevaniaStage6MeatOfJustice_rev	// Reverb.
    
	POIN2	CastlevaniaStage6MeatOfJustice_grp
    
	POIN2	CastlevaniaStage6MeatOfJustice_001
	POIN2	CastlevaniaStage6MeatOfJustice_002
	POIN2	CastlevaniaStage6MeatOfJustice_003
	POIN2	CastlevaniaStage6MeatOfJustice_004
	POIN2	CastlevaniaStage6MeatOfJustice_005
	POIN2	CastlevaniaStage6MeatOfJustice_006
	POIN2	CastlevaniaStage6MeatOfJustice_007
	POIN2	CastlevaniaStage6MeatOfJustice_008
	POIN2	CastlevaniaStage6MeatOfJustice_009
	POIN2	CastlevaniaStage6MeatOfJustice_010

	
