//Event file generated from Sappy .s format.
	#include "MPlayDef.event"

	#define	CastlevaniaOrderofEcclesiaAnEmptyTomeStagePsyche_grp  voicegroup000
	#define	CastlevaniaOrderofEcclesiaAnEmptyTomeStagePsyche_pri  0
	#define	CastlevaniaOrderofEcclesiaAnEmptyTomeStagePsyche_rev  148
	#define	CastlevaniaOrderofEcclesiaAnEmptyTomeStagePsyche_mvl  127
	#define	CastlevaniaOrderofEcclesiaAnEmptyTomeStagePsyche_key  0
	#define	CastlevaniaOrderofEcclesiaAnEmptyTomeStagePsyche_tbs  1
	#define	CastlevaniaOrderofEcclesiaAnEmptyTomeStagePsyche_exg  0
	#define	CastlevaniaOrderofEcclesiaAnEmptyTomeStagePsyche_cmp  1

	// .rodata
	//	CastlevaniaOrderofEcclesiaAnEmptyTomeStagePsyche
	ALIGN 4


//**************** Track 1 (Midi-Chn.0) ****************//

CastlevaniaOrderofEcclesiaAnEmptyTomeStagePsyche_001:
//  #01 //000   ----------------------------------------
 BYTE   KEYSH   CastlevaniaOrderofEcclesiaAnEmptyTomeStagePsyche_key+0
 BYTE   TEMPO   150*CastlevaniaOrderofEcclesiaAnEmptyTomeStagePsyche_tbs/2
 BYTE   VOICE   124
 BYTE   VOL   45*CastlevaniaOrderofEcclesiaAnEmptyTomeStagePsyche_mvl/mxv
 BYTE   MOD 0
 BYTE   PAN   c_v+0
 BYTE   N05  En1  v127
 BYTE   W06
 BYTE   N05
 BYTE   W06
 BYTE   N11  Fn1
 BYTE   W12
 BYTE   N08  Cn1
 BYTE   N32  Cs2  v120
 BYTE   W24
 BYTE   N05  En1  v127
 BYTE   N02  An1  v092
 BYTE   W12
 BYTE   An1  v088
 BYTE   W06
 BYTE   N05  Cn1  v127
 BYTE   N02  An1  v088
 BYTE   W06
 BYTE   An1  v092
 BYTE   W12
 BYTE   N05  Cn1  v127
 BYTE   N02  An1  v088
 BYTE   W06
 BYTE   N02
 BYTE   W06
//  #01 //001   ----------------------------------------
 BYTE   N05  En1  v127
 BYTE   N02  An1  v092
 BYTE   W12
 BYTE   N08  Cn1  v127
 BYTE   N10  As1  v084
 BYTE   W12
 BYTE   N02  An1  v092
 BYTE   W06
 BYTE   N05  En1  v104
 BYTE   W06
 BYTE   N02  An1  v084
 BYTE   W06
 BYTE   N02
 BYTE   W06
 BYTE   N05  En1  v127
 BYTE   N02  An1  v092
 BYTE   W12
 BYTE   An1  v088
 BYTE   W06
 BYTE   N05  Cn1  v127
 BYTE   N02  An1  v088
 BYTE   W06
 BYTE   An1  v092
 BYTE   W12
 BYTE   N05  Cn1  v127
 BYTE   N02  An1  v088
 BYTE   W06
 BYTE   N02
 BYTE   W06
//  #01 //002   ----------------------------------------
Label_0117CBB5:
 BYTE   N05  En1  v127
 BYTE   N02  An1  v092
 BYTE   W12
 BYTE   An1  v084
 BYTE   W06
 BYTE   An1  v088
 BYTE   W06
 BYTE   N08  Cn1  v127
 BYTE   N02  An1  v092
 BYTE   W12
 BYTE   An1  v084
 BYTE   W06
 BYTE   N02
 BYTE   W06
 BYTE   N05  En1  v127
 BYTE   N02  An1  v092
 BYTE   W12
 BYTE   An1  v088
 BYTE   W06
 BYTE   N05  Cn1  v127
 BYTE   N02  An1  v088
 BYTE   W06
 BYTE   An1  v092
 BYTE   W12
 BYTE   N05  Cn1  v127
 BYTE   N02  An1  v088
 BYTE   W06
 BYTE   N02
 BYTE   W06
 BYTE   PEND 
//  #01 //003   ----------------------------------------
Label_0117CBEC:
 BYTE   N05  En1  v127
 BYTE   N02  An1  v092
 BYTE   W12
 BYTE   N10  As1  v084
 BYTE   W12
 BYTE   N08  Cn1  v127
 BYTE   N02  An1  v092
 BYTE   W12
 BYTE   An1  v084
 BYTE   W06
 BYTE   N02
 BYTE   W06
 BYTE   N05  En1  v127
 BYTE   N02  An1  v092
 BYTE   W12
 BYTE   An1  v088
 BYTE   W06
 BYTE   N05  Cn1  v127
 BYTE   N02  An1  v088
 BYTE   W06
 BYTE   An1  v092
 BYTE   W12
 BYTE   N05  Cn1  v127
 BYTE   N02  An1  v088
 BYTE   W06
 BYTE   N03  En1  v127
 BYTE   N02  An1  v088
 BYTE   W06
 BYTE   PEND 
//  #01 //004   ----------------------------------------
Label_0117CC26:
 BYTE   N03  En1  v127
 BYTE   N02  An1  v092
 BYTE   W06
 BYTE   N03  En1  v127
 BYTE   W06
 BYTE   N02  An1  v084
 BYTE   N11  Gn1  v120
 BYTE   W06
 BYTE   N02  An1  v088
 BYTE   W06
 BYTE   N08  Cn1  v127
 BYTE   N32  Cs2  v120
 BYTE   W24
 BYTE   N05  En1  v127
 BYTE   N02  An1  v092
 BYTE   W12
 BYTE   An1  v088
 BYTE   W06
 BYTE   N05  Cn1  v127
 BYTE   N02  An1  v088
 BYTE   W06
 BYTE   An1  v092
 BYTE   W12
 BYTE   N05  Cn1  v127
 BYTE   N02  An1  v088
 BYTE   W06
 BYTE   N02
 BYTE   W06
 BYTE   PEND 
//  #01 //005   ----------------------------------------
Label_0117CC61:
 BYTE   N05  En1  v127
 BYTE   N02  An1  v092
 BYTE   W12
 BYTE   N08  Cn1  v127
 BYTE   N10  As1  v084
 BYTE   W12
 BYTE   N02  An1  v092
 BYTE   W12
 BYTE   An1  v084
 BYTE   W06
 BYTE   N04  Cn1  v127
 BYTE   N02  An1  v084
 BYTE   W06
 BYTE   N05  En1  v127
 BYTE   N02  An1  v092
 BYTE   W12
 BYTE   An1  v088
 BYTE   W06
 BYTE   N05  Cn1  v127
 BYTE   N02  An1  v088
 BYTE   W06
 BYTE   An1  v092
 BYTE   W12
 BYTE   N05  Cn1  v127
 BYTE   N02  An1  v088
 BYTE   W06
 BYTE   N02
 BYTE   W06
 BYTE   PEND 
//  #01 //006   ----------------------------------------
 BYTE   N05  En1  v127
 BYTE   N02  An1  v092
 BYTE   W12
 BYTE   An1  v084
 BYTE   W06
Label_0117CCA5:
 BYTE   N02  An1  v088
 BYTE   W06
 BYTE   N08  Cn1  v127
 BYTE   N02  An1  v092
 BYTE   W12
 BYTE   An1  v084
 BYTE   W06
 BYTE   N02
 BYTE   W06
 BYTE   N05  En1  v127
 BYTE   N02  An1  v092
 BYTE   W12
 BYTE   An1  v088
 BYTE   W06
 BYTE   N05  Cn1  v127
 BYTE   N02  An1  v088
 BYTE   W06
 BYTE   An1  v092
 BYTE   W12
 BYTE   N05  Cn1  v127
 BYTE   N02  An1  v088
 BYTE   W06
 BYTE   N02
 BYTE   W06
//  #01 //007   ----------------------------------------
 BYTE   N05  En1  v127
 BYTE   N02  An1  v092
 BYTE   W12
 BYTE   N10  As1  v084
 BYTE   W12
 BYTE   N08  Cn1  v127
 BYTE   N02  An1  v092
 BYTE   W06
 BYTE   N05  En1  v112
 BYTE   W06
 BYTE   N08  Cn1  v127
 BYTE   N02  An1  v084
 BYTE   W06
 BYTE   N02
 BYTE   W06
 BYTE   N05  En1  v127
 BYTE   N02  An1  v092
 BYTE   W12
 BYTE   An1  v088
 BYTE   W06
 BYTE   N05  Cn1  v127
 BYTE   N02  An1  v088
 BYTE   W06
 BYTE   An1  v092
 BYTE   W12
 BYTE   N05  Cn1  v127
 BYTE   N02  An1  v088
 BYTE   W06
 BYTE   N03  En1  v127
 BYTE   N02  An1  v088
 BYTE   W06
//  #01 //008   ----------------------------------------
 BYTE   PATT
  POIN2 Label_0117CC26
//  #01 //009   ----------------------------------------
 BYTE   PATT
  POIN2 Label_0117CBB5
//  #01 //010   ----------------------------------------
 BYTE   N05  En1  v127
 BYTE   N02  An1  v092
 BYTE   W12
 BYTE   An1  v084
 BYTE   W06
 BYTE   N05  En1  v108
 BYTE   N02  An1  v088
 BYTE   W06
 BYTE   N08  Cn1  v127
 BYTE   N02  An1  v092
 BYTE   W12
 BYTE   An1  v084
 BYTE   W06
 BYTE   N02
 BYTE   W06
 BYTE   N05  En1  v127
 BYTE   N02  An1  v092
 BYTE   W12
 BYTE   An1  v088
 BYTE   W06
 BYTE   N05  Cn1  v127
 BYTE   N02  An1  v088
 BYTE   W06
 BYTE   An1  v092
 BYTE   W12
 BYTE   N05  Cn1  v127
 BYTE   N02  An1  v088
 BYTE   W06
 BYTE   N02
 BYTE   W06
//  #01 //011   ----------------------------------------
Label_0117CD57:
 BYTE   N05  En1  v127
 BYTE   N02  An1  v092
 BYTE   W12
 BYTE   An1  v084
 BYTE   W06
 BYTE   An1  v088
 BYTE   W06
 BYTE   N08  Cn1  v127
 BYTE   N02  An1  v092
 BYTE   W12
 BYTE   An1  v084
 BYTE   W06
 BYTE   N02
 BYTE   W06
 BYTE   N05  En1  v127
 BYTE   N02  An1  v092
 BYTE   W12
 BYTE   An1  v088
 BYTE   W06
 BYTE   N05  Cn1  v127
 BYTE   N02  An1  v088
 BYTE   W06
 BYTE   An1  v092
 BYTE   W12
 BYTE   N05  Cn1  v127
 BYTE   N02  An1  v088
 BYTE   W06
 BYTE   N03  En1  v127
 BYTE   N02  An1  v088
 BYTE   W06
 BYTE   PEND 
//  #01 //012   ----------------------------------------
Label_0117CD93:
 BYTE   N03  En1  v127
 BYTE   N02  An1  v092
 BYTE   W06
 BYTE   N03  En1  v127
 BYTE   W06
 BYTE   N02  An1  v084
 BYTE   N11  Gn1  v120
 BYTE   W06
 BYTE   N02  An1  v088
 BYTE   W06
 BYTE   N08  Cn1  v127
 BYTE   N32  An2  v120
 BYTE   W24
 BYTE   N05  En1  v127
 BYTE   N02  An1  v092
 BYTE   W12
 BYTE   An1  v088
 BYTE   W06
 BYTE   N05  Cn1  v127
 BYTE   N02  An1  v088
 BYTE   W06
 BYTE   An1  v092
 BYTE   W12
 BYTE   N05  Cn1  v127
 BYTE   N02  An1  v088
 BYTE   W06
 BYTE   N02
 BYTE   W06
 BYTE   PEND 
//  #01 //013   ----------------------------------------
 BYTE   PATT
  POIN2 Label_0117CBB5
//  #01 //014   ----------------------------------------
 BYTE   PATT
  POIN2 Label_0117CBB5
//  #01 //015   ----------------------------------------
 BYTE   N05  En1  v127
 BYTE   N02  An1  v092
 BYTE   W12
 BYTE   An1  v084
 BYTE   W06
 BYTE   An1  v088
 BYTE   W06
 BYTE   N08  Cn1  v127
 BYTE   N02  An1  v092
 BYTE   W12
 BYTE   An1  v084
 BYTE   W06
 BYTE   N02
 BYTE   W06
 BYTE   N05  En1  v127
 BYTE   N02  An1  v092
 BYTE   W12
 BYTE   An1  v088
 BYTE   W06
 BYTE   N05  Cn1  v127
 BYTE   N05  En1  v112
 BYTE   N02  An1  v088
 BYTE   W06
 BYTE   An1  v092
 BYTE   W12
 BYTE   N05  Cn1  v127
 BYTE   N02  An1  v088
 BYTE   W06
 BYTE   N03  En1  v127
 BYTE   N02  An1  v088
 BYTE   W06
//  #01 //016   ----------------------------------------
 BYTE   PATT
  POIN2 Label_0117CC26
//  #01 //017   ----------------------------------------
 BYTE   PATT
  POIN2 Label_0117CBB5
//  #01 //018   ----------------------------------------
 BYTE   PATT
  POIN2 Label_0117CBB5
//  #01 //019   ----------------------------------------
 BYTE   PATT
  POIN2 Label_0117CD57
//  #01 //020   ----------------------------------------
 BYTE   PATT
  POIN2 Label_0117CD93
//  #01 //021   ----------------------------------------
 BYTE   PATT
  POIN2 Label_0117CBB5
//  #01 //022   ----------------------------------------
 BYTE   PATT
  POIN2 Label_0117CBB5
//  #01 //023   ----------------------------------------
 BYTE   PATT
  POIN2 Label_0117CD57
//  #01 //024   ----------------------------------------
 BYTE   PATT
  POIN2 Label_0117CC26
//  #01 //025   ----------------------------------------
 BYTE   N05  En1  v127
 BYTE   N02  An1  v092
 BYTE   W12
 BYTE   N08  Cn1  v127
 BYTE   N02  An1  v084
 BYTE   W06
 BYTE   An1  v088
 BYTE   W06
 BYTE   An1  v092
 BYTE   W12
 BYTE   An1  v084
 BYTE   W06
 BYTE   N04  Cn1  v127
 BYTE   N02  An1  v084
 BYTE   W06
 BYTE   N05  En1  v127
 BYTE   N02  An1  v092
 BYTE   W12
 BYTE   An1  v088
 BYTE   W06
 BYTE   N05  Cn1  v127
 BYTE   N02  An1  v088
 BYTE   W06
 BYTE   An1  v092
 BYTE   W12
 BYTE   N05  Cn1  v127
 BYTE   N02  An1  v088
 BYTE   W06
 BYTE   N02
 BYTE   W06
//  #01 //026   ----------------------------------------
 BYTE   PATT
  POIN2 Label_0117CBB5
//  #01 //027   ----------------------------------------
 BYTE   PATT
  POIN2 Label_0117CD57
//  #01 //028   ----------------------------------------
 BYTE   PATT
  POIN2 Label_0117CD93
//  #01 //029   ----------------------------------------
 BYTE   PATT
  POIN2 Label_0117CBB5
//  #01 //030   ----------------------------------------
 BYTE   PATT
  POIN2 Label_0117CBB5
//  #01 //031   ----------------------------------------
 BYTE   PATT
  POIN2 Label_0117CD57
//  #01 //032   ----------------------------------------
 BYTE   PATT
  POIN2 Label_0117CC26
//  #01 //033   ----------------------------------------
 BYTE   PATT
  POIN2 Label_0117CBB5
//  #01 //034   ----------------------------------------
 BYTE   PATT
  POIN2 Label_0117CBB5
//  #01 //035   ----------------------------------------
 BYTE   PATT
  POIN2 Label_0117CD57
//  #01 //036   ----------------------------------------
 BYTE   PATT
  POIN2 Label_0117CD93
//  #01 //037   ----------------------------------------
 BYTE   PATT
  POIN2 Label_0117CBB5
//  #01 //038   ----------------------------------------
 BYTE   PATT
  POIN2 Label_0117CBB5
//  #01 //039   ----------------------------------------
 BYTE   PATT
  POIN2 Label_0117CD57
//  #01 //040   ----------------------------------------
 BYTE   PATT
  POIN2 Label_0117CD93
//  #01 //041   ----------------------------------------
 BYTE   PATT
  POIN2 Label_0117CBB5
//  #01 //042   ----------------------------------------
 BYTE   PATT
  POIN2 Label_0117CBB5
//  #01 //043   ----------------------------------------
 BYTE   N05  En1  v127
 BYTE   N02  An1  v092
 BYTE   W12
 BYTE   An1  v084
 BYTE   W06
 BYTE   An1  v088
 BYTE   W06
 BYTE   N08  Cn1  v127
 BYTE   N02  An1  v092
 BYTE   W12
 BYTE   An1  v084
 BYTE   W06
 BYTE   N02
 BYTE   W06
 BYTE   N05  En1  v127
 BYTE   N02  An1  v092
 BYTE   W12
 BYTE   An1  v088
 BYTE   W06
 BYTE   N05  Cn1  v127
 BYTE   N05  En1  v120
 BYTE   N02  An1  v088
 BYTE   W06
 BYTE   An1  v092
 BYTE   W12
 BYTE   N05  Cn1  v127
 BYTE   N02  An1  v088
 BYTE   W06
 BYTE   N03  En1  v127
 BYTE   N02  An1  v088
 BYTE   W06
//  #01 //044   ----------------------------------------
 BYTE   PATT
  POIN2 Label_0117CD93
//  #01 //045   ----------------------------------------
 BYTE   PATT
  POIN2 Label_0117CBB5
//  #01 //046   ----------------------------------------
 BYTE   PATT
  POIN2 Label_0117CBB5
//  #01 //047   ----------------------------------------
 BYTE   PATT
  POIN2 Label_0117CD57
//  #01 //048   ----------------------------------------
 BYTE   PATT
  POIN2 Label_0117CD93
//  #01 //049   ----------------------------------------
 BYTE   PATT
  POIN2 Label_0117CBB5
//  #01 //050   ----------------------------------------
 BYTE   N05  En1  v127
 BYTE   N02  An1  v092
 BYTE   W12
 BYTE   An1  v084
 BYTE   W06
 BYTE   An1  v088
 BYTE   W06
 BYTE   N08  Cn1  v127
 BYTE   N02  An1  v092
 BYTE   W12
 BYTE   An1  v084
 BYTE   W06
 BYTE   N02
 BYTE   W06
 BYTE   N05  En1  v127
 BYTE   N02  An1  v092
 BYTE   W12
 BYTE   An1  v088
 BYTE   W06
 BYTE   N02
 BYTE   W06
 BYTE   N06  Cn1  v127
 BYTE   N02  An1  v092
 BYTE   W12
 BYTE   An1  v088
 BYTE   W06
 BYTE   N02
 BYTE   W06
//  #01 //051   ----------------------------------------
 BYTE   N05  En1  v127
 BYTE   N02  An1  v092
 BYTE   W12
 BYTE   N08  Cn1  v127
 BYTE   N02  An1  v084
 BYTE   W06
 BYTE   An1  v088
 BYTE   W06
 BYTE   An1  v092
 BYTE   W12
 BYTE   N08  Cn1  v127
 BYTE   N02  An1  v084
 BYTE   W06
 BYTE   N02
 BYTE   W06
 BYTE   N05  En1  v127
 BYTE   N02  An1  v092
 BYTE   W12
 BYTE   An1  v088
 BYTE   W06
 BYTE   N02
 BYTE   W06
 BYTE   N08  Cn1  v127
 BYTE   N22  As1  v084
 BYTE   W12
 BYTE   N08  Cn1  v127
 BYTE   W06
 BYTE   N03  En1
 BYTE   W06
//  #01 //052   ----------------------------------------
 BYTE   N03
 BYTE   W06
 BYTE   N03
 BYTE   W06
 BYTE   N11  Gn1  v120
 BYTE   W12
 BYTE   En1  v127
 BYTE   N23  An2  v120
 BYTE   W12
 BYTE   N12  Cn1  v127
 BYTE   W12
 BYTE   N05  En1
 BYTE   N10  As1  v088
 BYTE   W06
 BYTE   N06  Cn1  v127
 BYTE   W06
 BYTE   N10  As1  v068
 BYTE   W06
 BYTE   N06  Cn1  v127
 BYTE   W06
 BYTE   N05  En1
 BYTE   N10  As1  v084
 BYTE   W06
 BYTE   N06  Cn1  v127
 BYTE   W06
 BYTE   N10  As1  v080
 BYTE   W06
 BYTE   N06  Cn1  v127
 BYTE   W06
//  #01 //053   ----------------------------------------
Label_0117CFCD:
 BYTE   N05  En1  v127
 BYTE   N10  As1  v084
 BYTE   W12
 BYTE   N06  Cn1  v127
 BYTE   N10  As1  v080
 BYTE   W12
 BYTE   N11  En1  v127
 BYTE   N10  As1  v088
 BYTE   W12
 BYTE   N12  Cn1  v127
 BYTE   N10  As1  v072
 BYTE   W12
 BYTE   N05  En1  v127
 BYTE   N10  As1  v088
 BYTE   W06
 BYTE   N06  Cn1  v127
 BYTE   W06
 BYTE   N10  As1  v068
 BYTE   W06
 BYTE   N06  Cn1  v127
 BYTE   W06
 BYTE   N05  En1
 BYTE   N10  As1  v084
 BYTE   W06
 BYTE   N06  Cn1  v127
 BYTE   W06
 BYTE   N10  As1  v080
 BYTE   W06
 BYTE   N06  Cn1  v127
 BYTE   W06
 BYTE   PEND 
//  #01 //054   ----------------------------------------
 BYTE   PATT
  POIN2 Label_0117CFCD
//  #01 //055   ----------------------------------------
 BYTE   N05  En1  v127
 BYTE   N10  As1  v084
 BYTE   W12
 BYTE   N06  Cn1  v127
 BYTE   N10  As1  v080
 BYTE   W12
 BYTE   N11  En1  v127
 BYTE   N10  As1  v088
 BYTE   W12
 BYTE   N12  Cn1  v127
 BYTE   N10  As1  v072
 BYTE   W12
 BYTE   N05  En1  v127
 BYTE   N10  As1  v088
 BYTE   W06
 BYTE   N06  Cn1  v127
 BYTE   W06
 BYTE   N10  As1  v068
 BYTE   W06
 BYTE   N06  Cn1  v127
 BYTE   W06
 BYTE   N05  En1
 BYTE   N10  As1  v084
 BYTE   W06
 BYTE   N06  Cn1  v127
 BYTE   W06
 BYTE   N10  As1  v080
 BYTE   W06
 BYTE   N05  En1  v127
 BYTE   W06
//  #01 //056   ----------------------------------------
 BYTE   N05
 BYTE   N10  As1  v084
 BYTE   W06
 BYTE   N05  En1  v127
 BYTE   W06
 BYTE   N06  Gn1
 BYTE   W06
 BYTE   Fn1
 BYTE   W06
 BYTE   N11  En1
 BYTE   N32  An2  v120
 BYTE   W12
 BYTE   N12  Cn1  v127
 BYTE   W12
 BYTE   N05  En1
 BYTE   N10  As1  v088
 BYTE   W06
 BYTE   N06  Cn1  v127
 BYTE   W06
 BYTE   N10  As1  v068
 BYTE   W06
 BYTE   N06  Cn1  v127
 BYTE   W06
 BYTE   N05  En1
 BYTE   N10  As1  v084
 BYTE   W06
 BYTE   N06  Cn1  v127
 BYTE   W06
 BYTE   N10  As1  v080
 BYTE   W06
 BYTE   N06  Cn1  v127
 BYTE   W06
//  #01 //057   ----------------------------------------
 BYTE   PATT
  POIN2 Label_0117CFCD
//  #01 //058   ----------------------------------------
 BYTE   N05  En1  v127
 BYTE   N10  As1  v084
 BYTE   W12
 BYTE   N05  En1  v127
 BYTE   N10  As1  v080
 BYTE   W06
 BYTE   N05  En1  v127
 BYTE   W06
 BYTE   N11
 BYTE   N32  An2  v120
 BYTE   W12
 BYTE   N05  Cn1  v127
 BYTE   W12
 BYTE   En1
 BYTE   N10  As1  v088
 BYTE   W12
 BYTE   As1  v068
 BYTE   W06
 BYTE   N06  Cn1  v127
 BYTE   W06
 BYTE   N05  En1
 BYTE   N10  As1  v084
 BYTE   W12
 BYTE   As1  v080
 BYTE   W06
 BYTE   N06  Cn1  v127
 BYTE   W06
//  #01 //059   ----------------------------------------
 BYTE   N05  En1
 BYTE   N10  As1  v084
 BYTE   W12
 BYTE   N06  Cn1  v127
 BYTE   N10  As1  v080
 BYTE   W12
 BYTE   N11  En1  v127
 BYTE   N10  As1  v088
 BYTE   W12
 BYTE   N04  Cn1  v127
 BYTE   N10  As1  v072
 BYTE   W12
 BYTE   N05  En1  v127
 BYTE   N10  As1  v088
 BYTE   W06
 BYTE   N06  Cn1  v127
 BYTE   W06
 BYTE   N10  As1  v068
 BYTE   W06
 BYTE   N06  Cn1  v127
 BYTE   W06
 BYTE   N05  En1
 BYTE   N10  As1  v084
 BYTE   W06
 BYTE   N06  Cn1  v127
 BYTE   W12
 BYTE   N05  En1
 BYTE   W06
//  #01 //060   ----------------------------------------
 BYTE   N05
 BYTE   W12
 BYTE   N05
 BYTE   W06
 BYTE   N05
 BYTE   W06
 BYTE   N08  Cn1
 BYTE   N48  Cs2  v120
 BYTE   W12
 BYTE   N02  An1  v084
 BYTE   W06
 BYTE   N02
 BYTE   W06
 BYTE   N05  En1  v127
 BYTE   N02  An1  v092
 BYTE   W12
 BYTE   An1  v088
 BYTE   W06
 BYTE   N05  Cn1  v127
 BYTE   N02  An1  v088
 BYTE   W06
 BYTE   An1  v092
 BYTE   W12
 BYTE   N05  Cn1  v127
 BYTE   N02  An1  v088
 BYTE   W06
 BYTE   N02
 BYTE   W06
//  #01 //061   ----------------------------------------
 BYTE   PATT
  POIN2 Label_0117CC61
//  #01 //062   ----------------------------------------
 BYTE   PATT
  POIN2 Label_0117CBB5
//  #01 //063   ----------------------------------------
 BYTE   PATT
  POIN2 Label_0117CBEC
//  #01 //064   ----------------------------------------
 BYTE   N03  En1  v127
 BYTE   N02  An1  v092
 BYTE   W06
 BYTE   N03  En1  v127
 BYTE   W06
 BYTE   N02  An1  v084
 BYTE   N11  Gn1  v120
 BYTE   W06
 BYTE   N02  An1  v088
 BYTE   W06
 BYTE   N08  Cn1  v127
 BYTE   N36  Cs2  v120
 BYTE   W12
 BYTE   N02  An1  v084
 BYTE   W06
 BYTE   N02
 BYTE   W06
 BYTE   N05  En1  v127
 BYTE   N02  An1  v092
 BYTE   W12
 BYTE   An1  v088
 BYTE   W06
 BYTE   N05  Cn1  v127
 BYTE   N02  An1  v088
 BYTE   W06
 BYTE   An1  v092
 BYTE   W12
 BYTE   N05  Cn1  v127
 BYTE   N02  An1  v088
 BYTE   W06
 BYTE   N02
 BYTE   W06
//  #01 //065   ----------------------------------------
 BYTE   PATT
  POIN2 Label_0117CC61
//  #01 //066   ----------------------------------------
 BYTE   N05  En1  v127
 BYTE   N02  An1  v092
 BYTE   W12
 BYTE   An1  v084
 BYTE   W06
 BYTE   An1  v088
 BYTE   W05
 BYTE   GoTo
  POIN2 Label_0117CCA5
 BYTE   FINE

//**************** Track 2 (Midi-Chn.1) ****************//

CastlevaniaOrderofEcclesiaAnEmptyTomeStagePsyche_002:
//  #02 //000   ----------------------------------------
 BYTE   KEYSH   CastlevaniaOrderofEcclesiaAnEmptyTomeStagePsyche_key+0
 BYTE   VOICE   2
 BYTE   VOL   50*CastlevaniaOrderofEcclesiaAnEmptyTomeStagePsyche_mvl/mxv
 BYTE   MOD 0
 BYTE   PAN   c_v+0
 BYTE   W24
 BYTE   N16  Fs0  v116
 BYTE   W18
 BYTE   N04
 BYTE   W06
 BYTE   N05
 BYTE   W12
 BYTE   N04
 BYTE   W06
 BYTE   N04
 BYTE   W06
 BYTE   N15
 BYTE   W18
 BYTE   N04
 BYTE   W06
//  #02 //001   ----------------------------------------
Label_01179E3B:
 BYTE   N05  Fs0  v116
 BYTE   W12
 BYTE   N04
 BYTE   W06
 BYTE   N04
 BYTE   W06
 BYTE   N16
 BYTE   W18
 BYTE   N04
 BYTE   W06
 BYTE   N05
 BYTE   W12
 BYTE   N04
 BYTE   W06
 BYTE   N04
 BYTE   W06
 BYTE   N15
 BYTE   W18
 BYTE   N04
 BYTE   W06
 BYTE   PEND 
//  #02 //002   ----------------------------------------
 BYTE   PATT
  POIN2 Label_01179E3B
//  #02 //003   ----------------------------------------
 BYTE   PATT
  POIN2 Label_01179E3B
//  #02 //004   ----------------------------------------
Label_01179E5C:
 BYTE   N04  Fs0  v116
 BYTE   W06
 BYTE   Bn0
 BYTE   W06
 BYTE   Cs1
 BYTE   W06
 BYTE   En1
 BYTE   W06
 BYTE   N16  Fs0
 BYTE   W18
 BYTE   N04
 BYTE   W06
 BYTE   N05
 BYTE   W12
 BYTE   N04
 BYTE   W06
 BYTE   N04
 BYTE   W06
 BYTE   N15
 BYTE   W18
 BYTE   N04
 BYTE   W06
 BYTE   PEND 
//  #02 //005   ----------------------------------------
 BYTE   PATT
  POIN2 Label_01179E3B
//  #02 //006   ----------------------------------------
 BYTE   N05  Fs0  v116
 BYTE   W12
 BYTE   N04
 BYTE   W06
Label_01179E81:
 BYTE   N04  Fs0  v116
 BYTE   W06
 BYTE   N16
 BYTE   W18
 BYTE   N04
 BYTE   W06
 BYTE   N05
 BYTE   W12
 BYTE   N04
 BYTE   W06
 BYTE   N04
 BYTE   W06
 BYTE   N15
 BYTE   W18
 BYTE   N04
 BYTE   W06
//  #02 //007   ----------------------------------------
 BYTE   PATT
  POIN2 Label_01179E3B
//  #02 //008   ----------------------------------------
 BYTE   PATT
  POIN2 Label_01179E5C
//  #02 //009   ----------------------------------------
 BYTE   PATT
  POIN2 Label_01179E3B
//  #02 //010   ----------------------------------------
Label_01179EA2:
 BYTE   N04  Fs0  v116
 BYTE   W06
 BYTE   Cs1
 BYTE   W06
 BYTE   En1
 BYTE   W06
 BYTE   Fs1
 BYTE   W06
 BYTE   N16  Fs0
 BYTE   W18
 BYTE   N04
 BYTE   W06
 BYTE   N05
 BYTE   W12
 BYTE   N04
 BYTE   W06
 BYTE   N04
 BYTE   W06
 BYTE   N15
 BYTE   W18
 BYTE   N04
 BYTE   W06
 BYTE   PEND 
//  #02 //011   ----------------------------------------
 BYTE   PATT
  POIN2 Label_01179E3B
//  #02 //012   ----------------------------------------
Label_01179EC1:
 BYTE   N05  En1  v116
 BYTE   W12
 BYTE   N04
 BYTE   W06
 BYTE   N04
 BYTE   W06
 BYTE   N16  Dn1
 BYTE   W18
 BYTE   N04
 BYTE   W06
 BYTE   N05
 BYTE   W12
 BYTE   N04
 BYTE   W06
 BYTE   N04
 BYTE   W06
 BYTE   N15
 BYTE   W18
 BYTE   N04
 BYTE   W06
 BYTE   PEND 
//  #02 //013   ----------------------------------------
Label_01179ED9:
 BYTE   N05  Dn1  v116
 BYTE   W12
 BYTE   N04
 BYTE   W06
 BYTE   N04
 BYTE   W06
 BYTE   N16  Cs1
 BYTE   W18
 BYTE   N04
 BYTE   W06
 BYTE   N05
 BYTE   W12
 BYTE   N04
 BYTE   W06
 BYTE   N04
 BYTE   W06
 BYTE   N15  Cn1
 BYTE   W18
 BYTE   N04
 BYTE   W06
 BYTE   PEND 
//  #02 //014   ----------------------------------------
Label_01179EF2:
 BYTE   N05  Cn1  v116
 BYTE   W12
 BYTE   N04
 BYTE   W06
 BYTE   N04
 BYTE   W06
 BYTE   N16  Bn0
 BYTE   W18
 BYTE   N04
 BYTE   W06
 BYTE   N05
 BYTE   W12
 BYTE   N04
 BYTE   W06
 BYTE   N04
 BYTE   W06
 BYTE   N15
 BYTE   W18
 BYTE   N04
 BYTE   W06
 BYTE   PEND 
//  #02 //015   ----------------------------------------
Label_01179F0A:
 BYTE   N05  Bn0  v116
 BYTE   W12
 BYTE   N04
 BYTE   W06
 BYTE   N04
 BYTE   W06
 BYTE   N16  En0
 BYTE   W18
 BYTE   N04
 BYTE   W06
 BYTE   N05
 BYTE   W12
 BYTE   N04
 BYTE   W06
 BYTE   N04
 BYTE   W06
 BYTE   N15
 BYTE   W18
 BYTE   N04
 BYTE   W06
 BYTE   PEND 
//  #02 //016   ----------------------------------------
Label_01179F22:
 BYTE   N05  En0  v116
 BYTE   W12
 BYTE   N04  Fn0
 BYTE   W06
 BYTE   N04
 BYTE   W06
 BYTE   N16  Fs0
 BYTE   W18
 BYTE   N04
 BYTE   W06
 BYTE   N05
 BYTE   W12
 BYTE   N04
 BYTE   W06
 BYTE   N04
 BYTE   W06
 BYTE   N15
 BYTE   W18
 BYTE   N04
 BYTE   W06
 BYTE   PEND 
//  #02 //017   ----------------------------------------
 BYTE   PATT
  POIN2 Label_01179E3B
//  #02 //018   ----------------------------------------
 BYTE   PATT
  POIN2 Label_01179EA2
//  #02 //019   ----------------------------------------
 BYTE   PATT
  POIN2 Label_01179E3B
//  #02 //020   ----------------------------------------
 BYTE   PATT
  POIN2 Label_01179EC1
//  #02 //021   ----------------------------------------
 BYTE   PATT
  POIN2 Label_01179ED9
//  #02 //022   ----------------------------------------
 BYTE   PATT
  POIN2 Label_01179EF2
//  #02 //023   ----------------------------------------
 BYTE   PATT
  POIN2 Label_01179F0A
//  #02 //024   ----------------------------------------
 BYTE   N05  En0  v116
 BYTE   W12
 BYTE   N04
 BYTE   W06
 BYTE   N04
 BYTE   W06
 BYTE   N16  Fs0
 BYTE   W18
 BYTE   N04
 BYTE   W06
 BYTE   N05
 BYTE   W12
 BYTE   N04
 BYTE   W06
 BYTE   N04
 BYTE   W06
 BYTE   N15
 BYTE   W18
 BYTE   N04
 BYTE   W06
//  #02 //025   ----------------------------------------
 BYTE   PATT
  POIN2 Label_01179E3B
//  #02 //026   ----------------------------------------
 BYTE   PATT
  POIN2 Label_01179E3B
//  #02 //027   ----------------------------------------
 BYTE   PATT
  POIN2 Label_01179E3B
//  #02 //028   ----------------------------------------
 BYTE   PATT
  POIN2 Label_01179E5C
//  #02 //029   ----------------------------------------
 BYTE   PATT
  POIN2 Label_01179E3B
//  #02 //030   ----------------------------------------
 BYTE   PATT
  POIN2 Label_01179EA2
//  #02 //031   ----------------------------------------
 BYTE   PATT
  POIN2 Label_01179E3B
//  #02 //032   ----------------------------------------
 BYTE   PATT
  POIN2 Label_01179EC1
//  #02 //033   ----------------------------------------
 BYTE   PATT
  POIN2 Label_01179ED9
//  #02 //034   ----------------------------------------
 BYTE   PATT
  POIN2 Label_01179EF2
//  #02 //035   ----------------------------------------
 BYTE   PATT
  POIN2 Label_01179F0A
//  #02 //036   ----------------------------------------
 BYTE   PATT
  POIN2 Label_01179F22
//  #02 //037   ----------------------------------------
 BYTE   PATT
  POIN2 Label_01179E3B
//  #02 //038   ----------------------------------------
 BYTE   PATT
  POIN2 Label_01179EA2
//  #02 //039   ----------------------------------------
 BYTE   PATT
  POIN2 Label_01179E3B
//  #02 //040   ----------------------------------------
 BYTE   PATT
  POIN2 Label_01179EC1
//  #02 //041   ----------------------------------------
 BYTE   PATT
  POIN2 Label_01179ED9
//  #02 //042   ----------------------------------------
 BYTE   PATT
  POIN2 Label_01179EF2
//  #02 //043   ----------------------------------------
 BYTE   PATT
  POIN2 Label_01179F0A
//  #02 //044   ----------------------------------------
 BYTE   N05  En0  v116
 BYTE   W12
 BYTE   N04
 BYTE   W06
 BYTE   N04
 BYTE   W06
 BYTE   N16  Dn1
 BYTE   W18
 BYTE   N04
 BYTE   W06
 BYTE   N05
 BYTE   W12
 BYTE   N04
 BYTE   W06
 BYTE   N04
 BYTE   W06
 BYTE   N15
 BYTE   W18
 BYTE   N04
 BYTE   W06
//  #02 //045   ----------------------------------------
 BYTE   N05
 BYTE   W12
 BYTE   N04
 BYTE   W06
 BYTE   N04
 BYTE   W06
 BYTE   N16
 BYTE   W18
 BYTE   N04
 BYTE   W06
 BYTE   N05
 BYTE   W12
 BYTE   N04
 BYTE   W06
 BYTE   N04
 BYTE   W06
 BYTE   N15
 BYTE   W18
 BYTE   N04
 BYTE   W06
//  #02 //046   ----------------------------------------
 BYTE   N05
 BYTE   W12
 BYTE   N04
 BYTE   W06
 BYTE   N04
 BYTE   W06
 BYTE   N16  Cs1
 BYTE   W18
 BYTE   N04
 BYTE   W06
 BYTE   N05
 BYTE   W12
 BYTE   N04
 BYTE   W06
 BYTE   N04
 BYTE   W06
 BYTE   N15
 BYTE   W18
 BYTE   N04
 BYTE   W06
//  #02 //047   ----------------------------------------
 BYTE   N05
 BYTE   W12
 BYTE   N04  Bn0
 BYTE   W06
 BYTE   Cs1
 BYTE   W06
 BYTE   N16  Fs0
 BYTE   W18
 BYTE   N04
 BYTE   W06
 BYTE   N05
 BYTE   W12
 BYTE   N04  Fs1
 BYTE   W06
 BYTE   N04
 BYTE   W06
 BYTE   N15  En1
 BYTE   W18
 BYTE   N04
 BYTE   W06
//  #02 //048   ----------------------------------------
 BYTE   PATT
  POIN2 Label_01179EC1
//  #02 //049   ----------------------------------------
 BYTE   N05  Dn1  v116
 BYTE   W12
 BYTE   N04
 BYTE   W06
 BYTE   Cs1
 BYTE   W06
 BYTE   N16  Bn0
 BYTE   W18
 BYTE   N04
 BYTE   W06
 BYTE   N05
 BYTE   W12
 BYTE   N04
 BYTE   W06
 BYTE   N04
 BYTE   W06
 BYTE   N15
 BYTE   W18
 BYTE   N04
 BYTE   W06
//  #02 //050   ----------------------------------------
 BYTE   N05
 BYTE   W12
 BYTE   N04
 BYTE   W06
 BYTE   N04
 BYTE   W06
 BYTE   N16  Cs1
 BYTE   W18
 BYTE   N04
 BYTE   W06
 BYTE   N05
 BYTE   W12
 BYTE   N04
 BYTE   W06
 BYTE   N04
 BYTE   W06
 BYTE   N15
 BYTE   W18
 BYTE   N04
 BYTE   W06
//  #02 //051   ----------------------------------------
 BYTE   N10
 BYTE   W12
 BYTE   N21
 BYTE   W24
 BYTE   N10
 BYTE   W12
 BYTE   N05  Bn0
 BYTE   W12
 BYTE   An0
 BYTE   W12
 BYTE   Gs0
 BYTE   W12
 BYTE   Fn0
 BYTE   W12
//  #02 //052   ----------------------------------------
 BYTE   N10  Cs1
 BYTE   W12
 BYTE   Cs0
 BYTE   W12
 BYTE   N09  Fs0
 BYTE   W12
 BYTE   N09
 BYTE   W12
 BYTE   Fn0
 BYTE   W12
 BYTE   N09
 BYTE   W12
 BYTE   Fs0
 BYTE   W12
 BYTE   N09
 BYTE   W12
//  #02 //053   ----------------------------------------
Label_0117A07E:
 BYTE   N09  An0  v116
 BYTE   W12
 BYTE   Cs1
 BYTE   W12
 BYTE   Bn0
 BYTE   W12
 BYTE   N09
 BYTE   W12
 BYTE   Fs0
 BYTE   W12
 BYTE   N09
 BYTE   W12
 BYTE   Bn0
 BYTE   W12
 BYTE   N09
 BYTE   W12
 BYTE   PEND 
//  #02 //054   ----------------------------------------
 BYTE   Fs0
 BYTE   W12
 BYTE   N09
 BYTE   W12
 BYTE   Cs0
 BYTE   W12
 BYTE   N09
 BYTE   W12
 BYTE   Fn0
 BYTE   W12
 BYTE   N09
 BYTE   W12
 BYTE   Gs0
 BYTE   W12
 BYTE   N09
 BYTE   W12
//  #02 //055   ----------------------------------------
 BYTE   Cs1
 BYTE   W12
 BYTE   N09
 BYTE   W12
 BYTE   N10  Fs0
 BYTE   W12
 BYTE   N10
 BYTE   W12
 BYTE   N10
 BYTE   W12
 BYTE   N10
 BYTE   W12
 BYTE   Cs1
 BYTE   W12
 BYTE   N10
 BYTE   W12
//  #02 //056   ----------------------------------------
 BYTE   Cs0
 BYTE   W12
 BYTE   Fn0
 BYTE   W12
 BYTE   N09  Fs0
 BYTE   W12
 BYTE   N09
 BYTE   W12
 BYTE   Fn0
 BYTE   W12
 BYTE   N09
 BYTE   W12
 BYTE   Fs0
 BYTE   W12
 BYTE   N09
 BYTE   W12
//  #02 //057   ----------------------------------------
 BYTE   PATT
  POIN2 Label_0117A07E
//  #02 //058   ----------------------------------------
 BYTE   N09  Fs0  v116
 BYTE   W12
 BYTE   N09
 BYTE   W12
 BYTE   N10  Dn1
 BYTE   W12
 BYTE   N04
 BYTE   W06
 BYTE   N04
 BYTE   W06
 BYTE   N10
 BYTE   W12
 BYTE   N04
 BYTE   W06
 BYTE   N04
 BYTE   W06
 BYTE   N10
 BYTE   W12
 BYTE   N04
 BYTE   W06
 BYTE   N04
 BYTE   W06
//  #02 //059   ----------------------------------------
 BYTE   N10
 BYTE   W12
 BYTE   N04
 BYTE   W06
 BYTE   N04
 BYTE   W06
 BYTE   N10  Cs1
 BYTE   W12
 BYTE   N04
 BYTE   W06
 BYTE   N04
 BYTE   W06
 BYTE   N10
 BYTE   W12
 BYTE   N04
 BYTE   W06
 BYTE   N04
 BYTE   W06
 BYTE   N10
 BYTE   W12
 BYTE   N04
 BYTE   W06
 BYTE   N04
 BYTE   W06
//  #02 //060   ----------------------------------------
 BYTE   N04
 BYTE   W06
 BYTE   Bn0
 BYTE   W06
 BYTE   Gs0
 BYTE   W06
 BYTE   Cs0
 BYTE   W06
 BYTE   N16  Fs0
 BYTE   W18
 BYTE   N04
 BYTE   W06
 BYTE   N05
 BYTE   W12
 BYTE   N04
 BYTE   W06
 BYTE   N04
 BYTE   W06
 BYTE   N15
 BYTE   W18
 BYTE   N04
 BYTE   W06
//  #02 //061   ----------------------------------------
 BYTE   PATT
  POIN2 Label_01179E3B
//  #02 //062   ----------------------------------------
 BYTE   PATT
  POIN2 Label_01179E3B
//  #02 //063   ----------------------------------------
 BYTE   PATT
  POIN2 Label_01179E3B
//  #02 //064   ----------------------------------------
 BYTE   PATT
  POIN2 Label_01179E5C
//  #02 //065   ----------------------------------------
 BYTE   PATT
  POIN2 Label_01179E3B
//  #02 //066   ----------------------------------------
 BYTE   N05  Fs0  v116
 BYTE   W12
 BYTE   N04
 BYTE   W06
 BYTE   N04
 BYTE   W05
 BYTE   GoTo
  POIN2 Label_01179E81
 BYTE   FINE

//**************** Track 3 (Midi-Chn.2) ****************//

CastlevaniaOrderofEcclesiaAnEmptyTomeStagePsyche_003:
//  #03 //000   ----------------------------------------
 BYTE   KEYSH   CastlevaniaOrderofEcclesiaAnEmptyTomeStagePsyche_key+0
 BYTE   VOICE   49
 BYTE   VOL   19*CastlevaniaOrderofEcclesiaAnEmptyTomeStagePsyche_mvl/mxv
 BYTE   MOD 0
 BYTE   PAN   c_v-30
 BYTE   W24
 BYTE   N80  Cs3  v088
 BYTE   N80  Fs3  v084
 BYTE   W72
//  #03 //001   ----------------------------------------
Label_01179802:
 BYTE   W12
 BYTE   TIE  Bn2  v080
 BYTE   TIE  En3
 BYTE   W84
 BYTE   PEND 
//  #03 //002   ----------------------------------------
 BYTE   W21
 BYTE   EOT
 BYTE   Bn2  v064
 BYTE   W03
 BYTE   N80  An2  v108
 BYTE   N80  Dn3  v100
 BYTE   W72
//  #03 //003   ----------------------------------------
 BYTE   PATT
  POIN2 Label_01179802
//  #03 //004   ----------------------------------------
 BYTE   W19
 BYTE   EOT
 BYTE   Bn2  v064
 BYTE   W05
 BYTE   N48  Cs3  v088
 BYTE   N48  Fs3  v084
 BYTE   W60
 BYTE   N10  Cs3  v088
 BYTE   N10  Fs3  v084
 BYTE   W12
//  #03 //005   ----------------------------------------
 BYTE   PATT
  POIN2 Label_01179802
//  #03 //006   ----------------------------------------
 BYTE   W18
Label_01179834:
 BYTE   W02
 BYTE   EOT
 BYTE   Bn2  v064
 BYTE   W04
 BYTE   N80  An2  v108
 BYTE   N80  Dn3  v100
 BYTE   W72
//  #03 //007   ----------------------------------------
 BYTE   PATT
  POIN2 Label_01179802
//  #03 //008   ----------------------------------------
 BYTE   W19
 BYTE   EOT
 BYTE   Bn2  v064
 BYTE   W05
 BYTE   N44  Cs3  v088
 BYTE   N44  En3  v084
 BYTE   W60
 BYTE   N09  Cs3  v088
 BYTE   N09  En3  v084
 BYTE   W12
//  #03 //009   ----------------------------------------
Label_01179858:
 BYTE   W12
 BYTE   N68  Bn2  v080
 BYTE   N68  Ds3
 BYTE   W72
 BYTE   N32  Bn2
 BYTE   N32  Cs3
 BYTE   W12
 BYTE   PEND 
//  #03 //010   ----------------------------------------
Label_01179865:
 BYTE   W24
 BYTE   N44  Cs3  v092
 BYTE   N44  En3  v084
 BYTE   W48
 BYTE   N32  Ds3  v104
 BYTE   N32  Fs3  v096
 BYTE   W24
 BYTE   PEND 
//  #03 //011   ----------------------------------------
Label_01179875:
 BYTE   W12
 BYTE   N56  Cs3  v104
 BYTE   N56  Fs3  v092
 BYTE   W72
 BYTE   N32  Cs3  v104
 BYTE   N32  En3  v092
 BYTE   W12
 BYTE   PEND 
//  #03 //012   ----------------------------------------
Label_01179885:
 BYTE   W24
 BYTE   N48  Dn3  v092
 BYTE   N48  Fs3
 BYTE   W60
 BYTE   N15  Dn3
 BYTE   N15  Fs3
 BYTE   W12
 BYTE   PEND 
//  #03 //013   ----------------------------------------
Label_01179892:
 BYTE   W06
 BYTE   N15  Dn3  v092
 BYTE   N15  Fs3
 BYTE   W18
 BYTE   N44  Bn2
 BYTE   N44  En3
 BYTE   W48
 BYTE   Cn3  v096
 BYTE   N44  En3  v104
 BYTE   W24
 BYTE   PEND 
//  #03 //014   ----------------------------------------
Label_011798A5:
 BYTE   W24
 BYTE   N44  An2  v100
 BYTE   N44  Dn3  v092
 BYTE   W60
 BYTE   N11  An2  v100
 BYTE   N11  Dn3  v092
 BYTE   W12
 BYTE   PEND 
//  #03 //015   ----------------------------------------
Label_011798B5:
 BYTE   W12
 BYTE   N56  Bn2  v088
 BYTE   N56  En3  v092
 BYTE   W60
 BYTE   N44  Bn2  v088
 BYTE   N44  En3  v092
 BYTE   W24
 BYTE   PEND 
//  #03 //016   ----------------------------------------
Label_011798C5:
 BYTE   W24
 BYTE   N44  Cs3  v088
 BYTE   N44  En3  v084
 BYTE   W60
 BYTE   N09  Cs3  v088
 BYTE   N09  En3  v084
 BYTE   W12
 BYTE   PEND 
//  #03 //017   ----------------------------------------
Label_011798D5:
 BYTE   W12
 BYTE   N68  Bn2  v080
 BYTE   N68  Ds3
 BYTE   W72
 BYTE   N04  Gs4  v088
 BYTE   W06
 BYTE   En4
 BYTE   W06
 BYTE   PEND 
//  #03 //018   ----------------------------------------
Label_011798E3:
 BYTE   N04  Cs4  v088
 BYTE   W06
 BYTE   An3
 BYTE   W06
 BYTE   Gs3
 BYTE   W06
 BYTE   En3
 BYTE   W06
 BYTE   N44  Cs3  v092
 BYTE   N44  En3  v084
 BYTE   W48
 BYTE   N16  Ds3  v104
 BYTE   N16  Fs3  v096
 BYTE   W18
 BYTE   N09  Ds3  v104
 BYTE   N09  Fs3  v096
 BYTE   W06
 BYTE   PEND 
//  #03 //019   ----------------------------------------
Label_01179903:
 BYTE   W12
 BYTE   N56  Cs3  v104
 BYTE   N56  Fs3  v092
 BYTE   W72
 BYTE   N13  Cs3  v104
 BYTE   N13  En3  v092
 BYTE   W12
 BYTE   PEND 
//  #03 //020   ----------------------------------------
 BYTE   W08
 BYTE   Cs3
 BYTE   W16
 BYTE   N92  Dn3
 BYTE   N92  Fs3
 BYTE   W72
//  #03 //021   ----------------------------------------
Label_0117991B:
 BYTE   W24
 BYTE   N44  Bn2  v092
 BYTE   N44  En3
 BYTE   W48
 BYTE   Cn3  v096
 BYTE   N44  En3  v104
 BYTE   W24
 BYTE   PEND 
//  #03 //022   ----------------------------------------
 BYTE   W24
 BYTE   An2  v100
 BYTE   N44  Dn3  v092
 BYTE   W60
 BYTE   N32  An2  v100
 BYTE   N32  Dn3  v092
 BYTE   W12
//  #03 //023   ----------------------------------------
 BYTE   W24
 BYTE   N44  Bn2  v088
 BYTE   N44  En3  v092
 BYTE   W48
 BYTE   Bn2  v088
 BYTE   N44  En3  v092
 BYTE   W24
//  #03 //024   ----------------------------------------
Label_01179945:
 BYTE   W24
 BYTE   N80  Cs3  v088
 BYTE   N80  Fs3  v084
 BYTE   W72
 BYTE   PEND 
//  #03 //025   ----------------------------------------
Label_0117994E:
 BYTE   W12
 BYTE   N92  Bn2  v080
 BYTE   N92  En3
 BYTE   W84
 BYTE   PEND 
//  #03 //026   ----------------------------------------
Label_01179956:
 BYTE   W24
 BYTE   N80  An2  v108
 BYTE   N80  Dn3  v100
 BYTE   W72
 BYTE   PEND 
//  #03 //027   ----------------------------------------
 BYTE   PATT
  POIN2 Label_0117994E
//  #03 //028   ----------------------------------------
 BYTE   PATT
  POIN2 Label_011798C5
//  #03 //029   ----------------------------------------
 BYTE   PATT
  POIN2 Label_01179858
//  #03 //030   ----------------------------------------
 BYTE   PATT
  POIN2 Label_01179865
//  #03 //031   ----------------------------------------
 BYTE   PATT
  POIN2 Label_01179875
//  #03 //032   ----------------------------------------
 BYTE   PATT
  POIN2 Label_01179885
//  #03 //033   ----------------------------------------
 BYTE   PATT
  POIN2 Label_01179892
//  #03 //034   ----------------------------------------
 BYTE   PATT
  POIN2 Label_011798A5
//  #03 //035   ----------------------------------------
 BYTE   PATT
  POIN2 Label_011798B5
//  #03 //036   ----------------------------------------
 BYTE   PATT
  POIN2 Label_011798C5
//  #03 //037   ----------------------------------------
 BYTE   PATT
  POIN2 Label_011798D5
//  #03 //038   ----------------------------------------
 BYTE   PATT
  POIN2 Label_011798E3
//  #03 //039   ----------------------------------------
 BYTE   PATT
  POIN2 Label_01179903
//  #03 //040   ----------------------------------------
 BYTE   W08
 BYTE   N13  An2  v104
 BYTE   N13  Cs3  v092
 BYTE   W16
 BYTE   N92  Dn3
 BYTE   N92  Fs3
 BYTE   W72
//  #03 //041   ----------------------------------------
 BYTE   PATT
  POIN2 Label_0117991B
//  #03 //042   ----------------------------------------
 BYTE   PATT
  POIN2 Label_011798A5
//  #03 //043   ----------------------------------------
 BYTE   PATT
  POIN2 Label_011798B5
//  #03 //044   ----------------------------------------
 BYTE   W24
 BYTE   N44  Cs3  v088
 BYTE   N44  Fs3  v084
 BYTE   W60
 BYTE   N13  Cs3  v088
 BYTE   N13  Fs3  v084
 BYTE   W12
//  #03 //045   ----------------------------------------
 BYTE   W12
 BYTE   N54  Bn2  v080
 BYTE   N54  En3
 BYTE   W60
 BYTE   N16  Bn2
 BYTE   N16  En3
 BYTE   W24
//  #03 //046   ----------------------------------------
 BYTE   Bn2
 BYTE   N16  En3
 BYTE   W24
 BYTE   N54  Bn2
 BYTE   N54  En3
 BYTE   W60
 BYTE   N13  Bn2
 BYTE   N13  En3
 BYTE   W12
//  #03 //047   ----------------------------------------
 BYTE   W12
 BYTE   N42  An2
 BYTE   N42  Cs3
 BYTE   W48
 BYTE   N32  An2  v096
 BYTE   N32  Cs3  v084
 BYTE   W36
//  #03 //048   ----------------------------------------
 BYTE   N21  An2  v096
 BYTE   N21  En3  v084
 BYTE   W24
 BYTE   N92  Dn3  v096
 BYTE   N92  Fs3  v092
 BYTE   W72
//  #03 //049   ----------------------------------------
 BYTE   W24
 BYTE   Bn2  v108
 BYTE   N92  Dn3
 BYTE   W72
//  #03 //050   ----------------------------------------
 BYTE   W24
 BYTE   N32  Cs3  v096
 BYTE   N32  Fs3  v092
 BYTE   W36
 BYTE   N10  Cs3  v096
 BYTE   N10  Fs3  v092
 BYTE   W12
 BYTE   Cs3  v096
 BYTE   N10  Fs3  v092
 BYTE   W12
 BYTE   Cs3  v096
 BYTE   N10  Fs3  v092
 BYTE   W12
//  #03 //051   ----------------------------------------
 BYTE   W12
 BYTE   N32  Cs3
 BYTE   N32  Fn3
 BYTE   W36
 BYTE   N13  Cs3
 BYTE   N13  Fn3
 BYTE   W24
 BYTE   Cs3
 BYTE   N13  Fs3
 BYTE   W24
//  #03 //052   ----------------------------------------
 BYTE   Fn3
 BYTE   N13  Gs3
 BYTE   W24
 BYTE   N92  Cs3  v108
 BYTE   N92  Fs3
 BYTE   W72
//  #03 //053   ----------------------------------------
 BYTE   W24
 BYTE   N44  Dn3
 BYTE   N44  Fs3
 BYTE   W48
 BYTE   N19  Dn3
 BYTE   N19  Gs3
 BYTE   W24
//  #03 //054   ----------------------------------------
 BYTE   Dn3
 BYTE   N19  Fs3
 BYTE   W24
 BYTE   N92  Cs3  v104
 BYTE   N92  Fn3
 BYTE   W72
//  #03 //055   ----------------------------------------
 BYTE   W24
 BYTE   N44  Cs3  v092
 BYTE   N44  Fs3
 BYTE   W48
 BYTE   Cs3  v084
 BYTE   N44  Fn3  v092
 BYTE   W24
//  #03 //056   ----------------------------------------
 BYTE   W24
 BYTE   N92  Cs3  v108
 BYTE   N92  Fs3
 BYTE   W72
//  #03 //057   ----------------------------------------
 BYTE   W24
 BYTE   N44  Dn3
 BYTE   N44  Fs3
 BYTE   W48
 BYTE   Dn3
 BYTE   N44  Fs3
 BYTE   W24
//  #03 //058   ----------------------------------------
 BYTE   W24
 BYTE   N92  Dn3  v096
 BYTE   N92  Fs3  v088
 BYTE   W72
//  #03 //059   ----------------------------------------
 BYTE   W24
 BYTE   N44  Cs3  v096
 BYTE   N44  Fs3  v100
 BYTE   W48
 BYTE   Cs3  v096
 BYTE   N44  Fn3
 BYTE   W24
//  #03 //060   ----------------------------------------
 BYTE   PATT
  POIN2 Label_01179945
//  #03 //061   ----------------------------------------
 BYTE   PATT
  POIN2 Label_0117994E
//  #03 //062   ----------------------------------------
 BYTE   PATT
  POIN2 Label_01179956
//  #03 //063   ----------------------------------------
 BYTE   PATT
  POIN2 Label_0117994E
//  #03 //064   ----------------------------------------
 BYTE   W24
 BYTE   N44  Cs3  v088
 BYTE   N44  Fs3  v084
 BYTE   W60
 BYTE   N12  Cs3  v088
 BYTE   N12  Fs3  v084
 BYTE   W12
//  #03 //065   ----------------------------------------
 BYTE   PATT
  POIN2 Label_0117994E
//  #03 //066   ----------------------------------------
 BYTE   W23
 BYTE   GoTo
  POIN2 Label_01179834
 BYTE   FINE

//**************** Track 4 (Midi-Chn.3) ****************//

CastlevaniaOrderofEcclesiaAnEmptyTomeStagePsyche_004:
//  #04 //000   ----------------------------------------
 BYTE   KEYSH   CastlevaniaOrderofEcclesiaAnEmptyTomeStagePsyche_key+0
 BYTE   VOICE   51
 BYTE   VOL   22*CastlevaniaOrderofEcclesiaAnEmptyTomeStagePsyche_mvl/mxv
 BYTE   MOD 0
 BYTE   PAN   c_v+15
 BYTE   W24
 BYTE   N80  An2  v080
 BYTE   W72
//  #04 //001   ----------------------------------------
Label_0117A80F:
 BYTE   W12
 BYTE   TIE  Gs2  v092
 BYTE   W84
 BYTE   PEND 
//  #04 //002   ----------------------------------------
 BYTE   W21
 BYTE   EOT
 BYTE   W03
 BYTE   N80  Fs2  v100
 BYTE   W72
//  #04 //003   ----------------------------------------
 BYTE   PATT
  POIN2 Label_0117A80F
//  #04 //004   ----------------------------------------
 BYTE   W19
 BYTE   EOT
 BYTE   Gs2
 BYTE   W05
 BYTE   N44  An2  v080
 BYTE   W60
 BYTE   N12
 BYTE   W12
//  #04 //005   ----------------------------------------
 BYTE   PATT
  POIN2 Label_0117A80F
//  #04 //006   ----------------------------------------
 BYTE   W18
Label_0117A831:
 BYTE   W02
 BYTE   EOT
 BYTE   Gs2
 BYTE   W04
 BYTE   N80  Fs2  v100
 BYTE   W72
//  #04 //007   ----------------------------------------
 BYTE   PATT
  POIN2 Label_0117A80F
//  #04 //008   ----------------------------------------
 BYTE   W19
 BYTE   EOT
 BYTE   Gs2
 BYTE   W05
 BYTE   N44  An2  v080
 BYTE   W60
 BYTE   N09
 BYTE   W12
//  #04 //009   ----------------------------------------
Label_0117A848:
 BYTE   W12
 BYTE   N68  Gs2  v092
 BYTE   W72
 BYTE   N32
 BYTE   W12
 BYTE   PEND 
//  #04 //010   ----------------------------------------
Label_0117A850:
 BYTE   W24
 BYTE   N44  An2  v092
 BYTE   W48
 BYTE   N32  Bn2  v088
 BYTE   W24
 BYTE   PEND 
//  #04 //011   ----------------------------------------
Label_0117A85A:
 BYTE   W12
 BYTE   N56  An2  v092
 BYTE   W72
 BYTE   N32
 BYTE   W12
 BYTE   PEND 
//  #04 //012   ----------------------------------------
Label_0117A862:
 BYTE   W24
 BYTE   N44  An2  v084
 BYTE   W60
 BYTE   N16
 BYTE   W12
 BYTE   PEND 
//  #04 //013   ----------------------------------------
Label_0117A86A:
 BYTE   W06
 BYTE   N16  An2  v084
 BYTE   W18
 BYTE   N44  Gs2
 BYTE   W48
 BYTE   An2  v096
 BYTE   W24
 BYTE   PEND 
//  #04 //014   ----------------------------------------
Label_0117A876:
 BYTE   W24
 BYTE   N44  Fs2  v100
 BYTE   W60
 BYTE   N11
 BYTE   W12
 BYTE   PEND 
//  #04 //015   ----------------------------------------
Label_0117A87E:
 BYTE   W12
 BYTE   N56  An2  v100
 BYTE   W60
 BYTE   N44  Gs2
 BYTE   W24
 BYTE   PEND 
//  #04 //016   ----------------------------------------
Label_0117A887:
 BYTE   W24
 BYTE   N44  An2  v080
 BYTE   W60
 BYTE   N09
 BYTE   W12
 BYTE   PEND 
//  #04 //017   ----------------------------------------
 BYTE   PATT
  POIN2 Label_0117A848
//  #04 //018   ----------------------------------------
Label_0117A894:
 BYTE   W24
 BYTE   N44  An2  v092
 BYTE   W48
 BYTE   N14  Bn2  v088
 BYTE   W18
 BYTE   N11
 BYTE   W06
 BYTE   PEND 
//  #04 //019   ----------------------------------------
Label_0117A8A0:
 BYTE   W12
 BYTE   N56  An2  v092
 BYTE   W72
 BYTE   N13
 BYTE   W12
 BYTE   PEND 
//  #04 //020   ----------------------------------------
 BYTE   W08
 BYTE   Fs2
 BYTE   N13  An2  v104
 BYTE   W16
 BYTE   N92  An2  v084
 BYTE   W72
//  #04 //021   ----------------------------------------
Label_0117A8B2:
 BYTE   W24
 BYTE   N44  Gs2  v084
 BYTE   W48
 BYTE   An2  v096
 BYTE   W24
 BYTE   PEND 
//  #04 //022   ----------------------------------------
 BYTE   W24
 BYTE   Fs2  v100
 BYTE   W60
 BYTE   N32
 BYTE   W12
//  #04 //023   ----------------------------------------
 BYTE   W24
 BYTE   N44  An2
 BYTE   W48
 BYTE   Gs2
 BYTE   W24
//  #04 //024   ----------------------------------------
 BYTE   W24
 BYTE   N80  An2  v080
 BYTE   W72
//  #04 //025   ----------------------------------------
 BYTE   W12
 BYTE   N92  Gs2  v092
 BYTE   W84
//  #04 //026   ----------------------------------------
 BYTE   W24
 BYTE   N80  Fs2  v100
 BYTE   W72
//  #04 //027   ----------------------------------------
 BYTE   W12
 BYTE   N92  Gs2  v092
 BYTE   W84
//  #04 //028   ----------------------------------------
 BYTE   PATT
  POIN2 Label_0117A887
//  #04 //029   ----------------------------------------
 BYTE   PATT
  POIN2 Label_0117A848
//  #04 //030   ----------------------------------------
 BYTE   PATT
  POIN2 Label_0117A850
//  #04 //031   ----------------------------------------
 BYTE   PATT
  POIN2 Label_0117A85A
//  #04 //032   ----------------------------------------
 BYTE   PATT
  POIN2 Label_0117A862
//  #04 //033   ----------------------------------------
 BYTE   PATT
  POIN2 Label_0117A86A
//  #04 //034   ----------------------------------------
 BYTE   PATT
  POIN2 Label_0117A876
//  #04 //035   ----------------------------------------
 BYTE   PATT
  POIN2 Label_0117A87E
//  #04 //036   ----------------------------------------
 BYTE   PATT
  POIN2 Label_0117A887
//  #04 //037   ----------------------------------------
 BYTE   PATT
  POIN2 Label_0117A848
//  #04 //038   ----------------------------------------
 BYTE   PATT
  POIN2 Label_0117A894
//  #04 //039   ----------------------------------------
 BYTE   PATT
  POIN2 Label_0117A8A0
//  #04 //040   ----------------------------------------
 BYTE   W08
 BYTE   N13  Fs2  v092
 BYTE   W16
 BYTE   N92  An2  v084
 BYTE   W72
//  #04 //041   ----------------------------------------
 BYTE   PATT
  POIN2 Label_0117A8B2
//  #04 //042   ----------------------------------------
 BYTE   PATT
  POIN2 Label_0117A876
//  #04 //043   ----------------------------------------
 BYTE   PATT
  POIN2 Label_0117A87E
//  #04 //044   ----------------------------------------
 BYTE   W24
 BYTE   N44  An2  v080
 BYTE   W60
 BYTE   N13
 BYTE   W12
//  #04 //045   ----------------------------------------
 BYTE   W12
 BYTE   N56  Gs2  v092
 BYTE   W60
 BYTE   N12
 BYTE   W24
//  #04 //046   ----------------------------------------
 BYTE   N12
 BYTE   W24
 BYTE   N48
 BYTE   W60
 BYTE   N09
 BYTE   W12
//  #04 //047   ----------------------------------------
 BYTE   W12
 BYTE   N36  Fs2
 BYTE   W48
 BYTE   N32  An2  v100
 BYTE   W36
//  #04 //048   ----------------------------------------
 BYTE   N21
 BYTE   W24
 BYTE   N92  An2  v096
 BYTE   W72
//  #04 //049   ----------------------------------------
 BYTE   W24
 BYTE   An2  v104
 BYTE   W72
//  #04 //050   ----------------------------------------
 BYTE   W24
 BYTE   N32  Gs2  v108
 BYTE   W36
 BYTE   N10
 BYTE   W12
 BYTE   N10
 BYTE   W12
 BYTE   N10
 BYTE   W12
//  #04 //051   ----------------------------------------
 BYTE   W12
 BYTE   N32
 BYTE   W36
 BYTE   N13
 BYTE   W24
 BYTE   N13
 BYTE   W24
//  #04 //052   ----------------------------------------
 BYTE   Bn2
 BYTE   W24
 BYTE   N92  An2  v092
 BYTE   W72
//  #04 //053   ----------------------------------------
 BYTE   W24
 BYTE   N44  Bn2  v104
 BYTE   W48
 BYTE   N15
 BYTE   W24
//  #04 //054   ----------------------------------------
 BYTE   N15
 BYTE   W24
 BYTE   N92  Gs2  v112
 BYTE   W72
//  #04 //055   ----------------------------------------
 BYTE   W24
 BYTE   N44  An2  v104
 BYTE   W48
 BYTE   Gs2  v096
 BYTE   W24
//  #04 //056   ----------------------------------------
 BYTE   W24
 BYTE   N92  An2  v092
 BYTE   W72
//  #04 //057   ----------------------------------------
 BYTE   W24
 BYTE   N44  Bn2  v104
 BYTE   W48
 BYTE   N44
 BYTE   W24
//  #04 //058   ----------------------------------------
 BYTE   W24
 BYTE   N92  An2  v096
 BYTE   W72
//  #04 //059   ----------------------------------------
 BYTE   W24
 BYTE   N44  Gs2  v108
 BYTE   W48
 BYTE   N44
 BYTE   W24
//  #04 //060   ----------------------------------------
 BYTE   W24
 BYTE   N80  An2  v080
 BYTE   W72
//  #04 //061   ----------------------------------------
 BYTE   W12
 BYTE   N92  Gs2  v092
 BYTE   W84
//  #04 //062   ----------------------------------------
 BYTE   W24
 BYTE   N80  Fs2  v100
 BYTE   W72
//  #04 //063   ----------------------------------------
 BYTE   W12
 BYTE   N92  Gs2  v092
 BYTE   W84
//  #04 //064   ----------------------------------------
 BYTE   W24
 BYTE   N44  An2  v080
 BYTE   W60
 BYTE   N12
 BYTE   W12
//  #04 //065   ----------------------------------------
 BYTE   W12
 BYTE   N92  Gs2  v092
 BYTE   W84
//  #04 //066   ----------------------------------------
 BYTE   W23
 BYTE   GoTo
  POIN2 Label_0117A831
 BYTE   FINE

//**************** Track 5 (Midi-Chn.4) ****************//

CastlevaniaOrderofEcclesiaAnEmptyTomeStagePsyche_005:
//  #05 //000   ----------------------------------------
 BYTE   KEYSH   CastlevaniaOrderofEcclesiaAnEmptyTomeStagePsyche_key+0
 BYTE   VOICE   100
 BYTE   VOL   18*CastlevaniaOrderofEcclesiaAnEmptyTomeStagePsyche_mvl/mxv
 BYTE   MOD 0
 BYTE   PAN   c_v+0
 BYTE   W96
//  #05 //001   ----------------------------------------
Label_0117A24B:
 BYTE   W32
 BYTE   PAN   c_v+58
 BYTE   W04
 BYTE   PAN   c_v+40
 BYTE   N03  Fs3  v060
 BYTE   W04
 BYTE   PAN   c_v+23
 BYTE   W02
 BYTE   N03  Gs3  v076
 BYTE   W02
 BYTE   PAN   c_v+5
 BYTE   W04
 BYTE   PAN   c_v-12
 BYTE   N03  Cs4  v068
 BYTE   W04
 BYTE   PAN   c_v-29
 BYTE   W02
 BYTE   N03  Fs4  v092
 BYTE   W02
 BYTE   PAN   c_v-47
 BYTE   W04
 BYTE   PAN   c_v-64
 BYTE   N03  Gs4  v088
 BYTE   W01
 BYTE   PAN   c_v-64
 BYTE   W04
 BYTE   PAN   c_v-44
 BYTE   W01
 BYTE   N03  Cs5  v076
 BYTE   W03
 BYTE   PAN   c_v-22
 BYTE   W03
 BYTE   N03  Fs5  v072
 BYTE   W01
 BYTE   PAN   c_v-1
 BYTE   W04
 BYTE   PAN   c_v+20
 BYTE   W01
 BYTE   N03  Gs5  v080
 BYTE   W03
 BYTE   PAN   c_v+41
 BYTE   W03
 BYTE   N03  Cs6
 BYTE   W01
 BYTE   PAN   c_v+63
 BYTE   W04
 BYTE   PAN   c_v+41
 BYTE   W01
 BYTE   N03  Gs5  v084
 BYTE   W03
 BYTE   PAN   c_v+20
 BYTE   W03
 BYTE   PEND 
//  #05 //002   ----------------------------------------
Label_0117A2A4:
 BYTE   N03  Fs5  v092
 BYTE   W01
 BYTE   PAN   c_v-1
 BYTE   W04
 BYTE   PAN   c_v-22
 BYTE   W01
 BYTE   N03  Cs5
 BYTE   W03
 BYTE   PAN   c_v-43
 BYTE   W03
 BYTE   N03  Gs4  v096
 BYTE   W01
 BYTE   PAN   c_v-64
 BYTE   W05
 BYTE   PAN   c_v-34
 BYTE   N03  Fs4  v092
 BYTE   W78
 BYTE   PEND 
//  #05 //003   ----------------------------------------
 BYTE   W96
//  #05 //004   ----------------------------------------
 BYTE   W96
//  #05 //005   ----------------------------------------
 BYTE   PATT
  POIN2 Label_0117A24B
//  #05 //006   ----------------------------------------
 BYTE   N03  Fs5  v092
 BYTE   W01
 BYTE   PAN   c_v-1
 BYTE   W04
 BYTE   PAN   c_v-22
 BYTE   W01
 BYTE   N03  Cs5
 BYTE   W03
 BYTE   PAN   c_v-43
 BYTE   W03
 BYTE   N03  Gs4  v096
 BYTE   W01
 BYTE   PAN   c_v-64
 BYTE   W05
Label_0117A2E0:
 BYTE   PAN   c_v-34
 BYTE   N03  Fs4  v092
 BYTE   W78
//  #05 //007   ----------------------------------------
 BYTE   W96
//  #05 //008   ----------------------------------------
 BYTE   W96
//  #05 //009   ----------------------------------------
 BYTE   W96
//  #05 //010   ----------------------------------------
 BYTE   W96
//  #05 //011   ----------------------------------------
 BYTE   W96
//  #05 //012   ----------------------------------------
 BYTE   W96
//  #05 //013   ----------------------------------------
 BYTE   W96
//  #05 //014   ----------------------------------------
 BYTE   W96
//  #05 //015   ----------------------------------------
 BYTE   W96
//  #05 //016   ----------------------------------------
 BYTE   W96
//  #05 //017   ----------------------------------------
 BYTE   W96
//  #05 //018   ----------------------------------------
 BYTE   W96
//  #05 //019   ----------------------------------------
 BYTE   W96
//  #05 //020   ----------------------------------------
 BYTE   W96
//  #05 //021   ----------------------------------------
 BYTE   W96
//  #05 //022   ----------------------------------------
 BYTE   W96
//  #05 //023   ----------------------------------------
 BYTE   W96
//  #05 //024   ----------------------------------------
 BYTE   W96
//  #05 //025   ----------------------------------------
 BYTE   PATT
  POIN2 Label_0117A24B
//  #05 //026   ----------------------------------------
 BYTE   PATT
  POIN2 Label_0117A2A4
//  #05 //027   ----------------------------------------
 BYTE   W96
//  #05 //028   ----------------------------------------
 BYTE   W96
//  #05 //029   ----------------------------------------
 BYTE   W96
//  #05 //030   ----------------------------------------
 BYTE   W96
//  #05 //031   ----------------------------------------
 BYTE   W96
//  #05 //032   ----------------------------------------
 BYTE   W96
//  #05 //033   ----------------------------------------
 BYTE   W96
//  #05 //034   ----------------------------------------
 BYTE   W96
//  #05 //035   ----------------------------------------
 BYTE   W96
//  #05 //036   ----------------------------------------
 BYTE   W96
//  #05 //037   ----------------------------------------
 BYTE   W96
//  #05 //038   ----------------------------------------
 BYTE   W96
//  #05 //039   ----------------------------------------
 BYTE   W96
//  #05 //040   ----------------------------------------
 BYTE   W96
//  #05 //041   ----------------------------------------
 BYTE   W96
//  #05 //042   ----------------------------------------
 BYTE   W96
//  #05 //043   ----------------------------------------
 BYTE   W96
//  #05 //044   ----------------------------------------
 BYTE   W96
//  #05 //045   ----------------------------------------
 BYTE   W96
//  #05 //046   ----------------------------------------
 BYTE   W96
//  #05 //047   ----------------------------------------
 BYTE   W96
//  #05 //048   ----------------------------------------
 BYTE   W96
//  #05 //049   ----------------------------------------
 BYTE   W96
//  #05 //050   ----------------------------------------
 BYTE   W96
//  #05 //051   ----------------------------------------
 BYTE   W96
//  #05 //052   ----------------------------------------
 BYTE   W96
//  #05 //053   ----------------------------------------
 BYTE   W96
//  #05 //054   ----------------------------------------
 BYTE   W96
//  #05 //055   ----------------------------------------
 BYTE   W96
//  #05 //056   ----------------------------------------
 BYTE   W96
//  #05 //057   ----------------------------------------
 BYTE   W96
//  #05 //058   ----------------------------------------
 BYTE   W96
//  #05 //059   ----------------------------------------
 BYTE   W96
//  #05 //060   ----------------------------------------
 BYTE   W96
//  #05 //061   ----------------------------------------
 BYTE   PATT
  POIN2 Label_0117A24B
//  #05 //062   ----------------------------------------
 BYTE   PATT
  POIN2 Label_0117A2A4
//  #05 //063   ----------------------------------------
 BYTE   W96
//  #05 //064   ----------------------------------------
 BYTE   W96
//  #05 //065   ----------------------------------------
 BYTE   PATT
  POIN2 Label_0117A24B
//  #05 //066   ----------------------------------------
 BYTE   N03  Fs5  v092
 BYTE   W01
 BYTE   PAN   c_v-1
 BYTE   W04
 BYTE   PAN   c_v-22
 BYTE   W01
 BYTE   N03  Cs5
 BYTE   W03
 BYTE   PAN   c_v-43
 BYTE   W03
 BYTE   N03  Gs4  v096
 BYTE   W01
 BYTE   PAN   c_v-64
 BYTE   W05
 BYTE   PAN   c_v-34
 BYTE   N03  Fs4  v092
 BYTE   W05
 BYTE   GoTo
  POIN2 Label_0117A2E0
 BYTE   FINE

//**************** Track 6 (Midi-Chn.5) ****************//

CastlevaniaOrderofEcclesiaAnEmptyTomeStagePsyche_006:
//  #06 //000   ----------------------------------------
 BYTE   KEYSH   CastlevaniaOrderofEcclesiaAnEmptyTomeStagePsyche_key+0
 BYTE   VOICE   48
 BYTE   VOL   45*CastlevaniaOrderofEcclesiaAnEmptyTomeStagePsyche_mvl/mxv
 BYTE   MOD 0
 BYTE   PAN   c_v+0
 BYTE   W24
 BYTE   N92  Fs1  v072
 BYTE   W72
//  #06 //001   ----------------------------------------
 BYTE   W24
 BYTE   N92
 BYTE   W72
//  #06 //002   ----------------------------------------
 BYTE   W24
 BYTE   N92
 BYTE   W72
//  #06 //003   ----------------------------------------
 BYTE   W24
 BYTE   N92
 BYTE   W72
//  #06 //004   ----------------------------------------
 BYTE   W24
 BYTE   N92
 BYTE   W72
//  #06 //005   ----------------------------------------
 BYTE   W24
 BYTE   N92
 BYTE   W72
//  #06 //006   ----------------------------------------
 BYTE   W18
Label_0117A4CB:
 BYTE   W06
 BYTE   N92  Fs1  v072
 BYTE   W72
//  #06 //007   ----------------------------------------
 BYTE   W24
 BYTE   N68  Fs1  v084
 BYTE   W72
//  #06 //008   ----------------------------------------
Label_0117A4D5:
 BYTE   N04  Gs2  v104
 BYTE   W04
 BYTE   An2
 BYTE   W04
 BYTE   Bn2  v092
 BYTE   W04
 BYTE   Cs3  v104
 BYTE   W04
 BYTE   Dn3
 BYTE   W04
 BYTE   En3  v108
 BYTE   W04
 BYTE   N22  Fs3  v116
 BYTE   W24
 BYTE   N10  Cs4
 BYTE   W24
 BYTE   N32
 BYTE   W24
 BYTE   PEND 
//  #06 //009   ----------------------------------------
Label_0117A4F0:
 BYTE   W12
 BYTE   N10  Bn3  v116
 BYTE   W12
 BYTE   An3
 BYTE   W12
 BYTE   N07  Bn3
 BYTE   W12
 BYTE   Gs3
 BYTE   W12
 BYTE   An3
 BYTE   W12
 BYTE   N22  Bn3
 BYTE   W24
 BYTE   PEND 
//  #06 //010   ----------------------------------------
Label_0117A502:
 BYTE   N05  An3  v116
 BYTE   W12
 BYTE   Gs3
 BYTE   W12
 BYTE   N22  Fs3
 BYTE   W24
 BYTE   Cs4
 BYTE   W24
 BYTE   Ds4
 BYTE   W24
 BYTE   PEND 
//  #06 //011   ----------------------------------------
Label_0117A510:
 BYTE   N22  Bn3  v116
 BYTE   W24
 BYTE   N10  An3
 BYTE   W12
 BYTE   N06  Bn3
 BYTE   W12
 BYTE   N05  Gs3
 BYTE   W12
 BYTE   N04  An3
 BYTE   W12
 BYTE   N22  Fs3
 BYTE   W24
 BYTE   PEND 
//  #06 //012   ----------------------------------------
Label_0117A524:
 BYTE   N11  Cs3  v116
 BYTE   W12
 BYTE   En3
 BYTE   W12
 BYTE   N22  Fs3
 BYTE   W24
 BYTE   N10  Gs3
 BYTE   W12
 BYTE   An3
 BYTE   W12
 BYTE   N44  Gs3
 BYTE   W24
 BYTE   PEND 
//  #06 //013   ----------------------------------------
Label_0117A536:
 BYTE   W24
 BYTE   N22  Gs3  v116
 BYTE   W24
 BYTE   N06  An3
 BYTE   W12
 BYTE   Bn3
 BYTE   W12
 BYTE   N22  An3
 BYTE   W24
 BYTE   PEND 
//  #06 //014   ----------------------------------------
Label_0117A544:
 BYTE   N05  Fs3  v116
 BYTE   W12
 BYTE   An3
 BYTE   W12
 BYTE   N44  Cs4
 BYTE   W48
 BYTE   Bn3
 BYTE   W24
 BYTE   PEND 
//  #06 //015   ----------------------------------------
Label_0117A550:
 BYTE   W24
 BYTE   N22  En4  v116
 BYTE   W24
 BYTE   Cs4
 BYTE   W24
 BYTE   N23  Bn3
 BYTE   W24
 BYTE   PEND 
//  #06 //016   ----------------------------------------
Label_0117A55B:
 BYTE   N23  En3  v116
 BYTE   W24
 BYTE   N22  Fs3
 BYTE   W24
 BYTE   N10  Cs4
 BYTE   W24
 BYTE   N32
 BYTE   W24
 BYTE   PEND 
//  #06 //017   ----------------------------------------
 BYTE   PATT
  POIN2 Label_0117A4F0
//  #06 //018   ----------------------------------------
 BYTE   PATT
  POIN2 Label_0117A502
//  #06 //019   ----------------------------------------
Label_0117A572:
 BYTE   N22  Bn3  v116
 BYTE   W24
 BYTE   N10  An3
 BYTE   W12
 BYTE   N06  Bn3
 BYTE   W12
 BYTE   N10  Gs3
 BYTE   W12
 BYTE   N06  An3
 BYTE   W12
 BYTE   N22  Fs3
 BYTE   W24
 BYTE   PEND 
//  #06 //020   ----------------------------------------
Label_0117A586:
 BYTE   N11  Cs3  v116
 BYTE   W12
 BYTE   En3
 BYTE   W12
 BYTE   N22  Fs3
 BYTE   W24
 BYTE   N11  Gs3
 BYTE   W12
 BYTE   An3
 BYTE   W12
 BYTE   N44  Gs3
 BYTE   W24
 BYTE   PEND 
//  #06 //021   ----------------------------------------
 BYTE   PATT
  POIN2 Label_0117A536
//  #06 //022   ----------------------------------------
 BYTE   PATT
  POIN2 Label_0117A544
//  #06 //023   ----------------------------------------
Label_0117A5A2:
 BYTE   W24
 BYTE   N44  En4  v116
 BYTE   W48
 BYTE   Gs4
 BYTE   W24
 BYTE   PEND 
//  #06 //024   ----------------------------------------
 BYTE   W24
 BYTE   N56  Fs4
 BYTE   W60
 BYTE   N30  Fs4  v060
 BYTE   W12
//  #06 //025   ----------------------------------------
 BYTE   W24
 BYTE   N92  Fs1  v072
 BYTE   W72
//  #06 //026   ----------------------------------------
 BYTE   W24
 BYTE   N92
 BYTE   W72
//  #06 //027   ----------------------------------------
 BYTE   W24
 BYTE   N68  Fs1  v084
 BYTE   W72
//  #06 //028   ----------------------------------------
 BYTE   PATT
  POIN2 Label_0117A4D5
//  #06 //029   ----------------------------------------
 BYTE   PATT
  POIN2 Label_0117A4F0
//  #06 //030   ----------------------------------------
 BYTE   PATT
  POIN2 Label_0117A502
//  #06 //031   ----------------------------------------
 BYTE   PATT
  POIN2 Label_0117A510
//  #06 //032   ----------------------------------------
 BYTE   PATT
  POIN2 Label_0117A524
//  #06 //033   ----------------------------------------
 BYTE   PATT
  POIN2 Label_0117A536
//  #06 //034   ----------------------------------------
 BYTE   PATT
  POIN2 Label_0117A544
//  #06 //035   ----------------------------------------
 BYTE   PATT
  POIN2 Label_0117A550
//  #06 //036   ----------------------------------------
 BYTE   PATT
  POIN2 Label_0117A55B
//  #06 //037   ----------------------------------------
 BYTE   PATT
  POIN2 Label_0117A4F0
//  #06 //038   ----------------------------------------
 BYTE   PATT
  POIN2 Label_0117A502
//  #06 //039   ----------------------------------------
 BYTE   PATT
  POIN2 Label_0117A572
//  #06 //040   ----------------------------------------
 BYTE   PATT
  POIN2 Label_0117A586
//  #06 //041   ----------------------------------------
 BYTE   PATT
  POIN2 Label_0117A536
//  #06 //042   ----------------------------------------
 BYTE   PATT
  POIN2 Label_0117A544
//  #06 //043   ----------------------------------------
 BYTE   PATT
  POIN2 Label_0117A5A2
//  #06 //044   ----------------------------------------
 BYTE   W24
 BYTE   N56  Fs4  v116
 BYTE   W60
 BYTE   N28  Fs4  v060
 BYTE   W12
//  #06 //045   ----------------------------------------
 BYTE   W96
//  #06 //046   ----------------------------------------
 BYTE   W96
//  #06 //047   ----------------------------------------
 BYTE   W96
//  #06 //048   ----------------------------------------
 BYTE   W96
//  #06 //049   ----------------------------------------
 BYTE   W96
//  #06 //050   ----------------------------------------
 BYTE   W96
//  #06 //051   ----------------------------------------
 BYTE   W96
//  #06 //052   ----------------------------------------
 BYTE   W24
 BYTE   PAN   c_v-30
 BYTE   W24
 BYTE   N24  Fs3  v072
 BYTE   W24
 BYTE   An3
 BYTE   W24
//  #06 //053   ----------------------------------------
 BYTE   Cs4
 BYTE   W24
 BYTE   N48  Dn4
 BYTE   W48
 BYTE   N24  Bn3
 BYTE   W24
//  #06 //054   ----------------------------------------
 BYTE   An3
 BYTE   W24
 BYTE   N24
 BYTE   W24
 BYTE   Gs3
 BYTE   W24
 BYTE   Cs4
 BYTE   W24
//  #06 //055   ----------------------------------------
 BYTE   Bn3
 BYTE   W24
 BYTE   N48
 BYTE   W48
 BYTE   N24  An3
 BYTE   W24
//  #06 //056   ----------------------------------------
 BYTE   Gs3
 BYTE   W48
 BYTE   Fs3
 BYTE   W24
 BYTE   An3
 BYTE   W24
//  #06 //057   ----------------------------------------
 BYTE   Cs4
 BYTE   W24
 BYTE   N48  Dn4
 BYTE   W48
 BYTE   N15  Bn3
 BYTE   W18
 BYTE   N17
 BYTE   W06
//  #06 //058   ----------------------------------------
 BYTE   W12
 BYTE   N10  Cs4
 BYTE   W12
 BYTE   N44  Fs4
 BYTE   W48
 BYTE   N13
 BYTE   W18
 BYTE   Gs4
 BYTE   W06
//  #06 //059   ----------------------------------------
 BYTE   W12
 BYTE   N10  An4
 BYTE   W12
 BYTE   N48
 BYTE   W48
 BYTE   Gs4
 BYTE   W24
//  #06 //060   ----------------------------------------
 BYTE   W24
 BYTE   N56  Fs4
 BYTE   W60
 BYTE   N32  Fs4  v036
 BYTE   W12
//  #06 //061   ----------------------------------------
 BYTE   W24
 BYTE   VOL   45*CastlevaniaOrderofEcclesiaAnEmptyTomeStagePsyche_mvl/mxv
 BYTE   MOD 0
 BYTE   PAN   c_v+0
 BYTE   W72
//  #06 //062   ----------------------------------------
 BYTE   W96
//  #06 //063   ----------------------------------------
 BYTE   W96
//  #06 //064   ----------------------------------------
 BYTE   W24
 BYTE   N92  Fs1  v072
 BYTE   W72
//  #06 //065   ----------------------------------------
 BYTE   W24
 BYTE   N92
 BYTE   W72
//  #06 //066   ----------------------------------------
 BYTE   W23
 BYTE   GoTo
  POIN2 Label_0117A4CB
 BYTE   FINE

//**************** Track 7 (Midi-Chn.6) ****************//

CastlevaniaOrderofEcclesiaAnEmptyTomeStagePsyche_007:
//  #07 //000   ----------------------------------------
 BYTE   KEYSH   CastlevaniaOrderofEcclesiaAnEmptyTomeStagePsyche_key+0
 BYTE   VOICE   105
 BYTE   VOL   12*CastlevaniaOrderofEcclesiaAnEmptyTomeStagePsyche_mvl/mxv
 BYTE   MOD 0
 BYTE   PAN   c_v+0
 BYTE   BEND   c_v-4
 BYTE   W24
 BYTE   N92  Fs2  v072
 BYTE   W72
//  #07 //001   ----------------------------------------
 BYTE   W24
 BYTE   N92
 BYTE   W72
//  #07 //002   ----------------------------------------
 BYTE   W24
 BYTE   N92
 BYTE   W72
//  #07 //003   ----------------------------------------
 BYTE   W24
 BYTE   N92
 BYTE   W72
//  #07 //004   ----------------------------------------
 BYTE   W24
 BYTE   N92
 BYTE   W72
//  #07 //005   ----------------------------------------
 BYTE   W24
 BYTE   N92
 BYTE   W72
//  #07 //006   ----------------------------------------
 BYTE   W18
Label_01179AD5:
 BYTE   W06
 BYTE   N92  Fs2  v072
 BYTE   W72
//  #07 //007   ----------------------------------------
 BYTE   W96
//  #07 //008   ----------------------------------------
 BYTE   W96
//  #07 //009   ----------------------------------------
 BYTE   W96
//  #07 //010   ----------------------------------------
 BYTE   W96
//  #07 //011   ----------------------------------------
 BYTE   W96
//  #07 //012   ----------------------------------------
 BYTE   W96
//  #07 //013   ----------------------------------------
 BYTE   W96
//  #07 //014   ----------------------------------------
 BYTE   W96
//  #07 //015   ----------------------------------------
 BYTE   W96
//  #07 //016   ----------------------------------------
Label_01179AE3:
 BYTE   W24
 BYTE   N22  Cs4  v100
 BYTE   W24
 BYTE   N10  An4
 BYTE   W24
 BYTE   N32
 BYTE   W24
 BYTE   PEND 
//  #07 //017   ----------------------------------------
Label_01179AEE:
 BYTE   W12
 BYTE   N10  Gs4  v100
 BYTE   W12
 BYTE   Fs4
 BYTE   W12
 BYTE   N07  Gs4
 BYTE   W12
 BYTE   En4
 BYTE   W12
 BYTE   Fs4
 BYTE   W12
 BYTE   N22  Gs4
 BYTE   W24
 BYTE   PEND 
//  #07 //018   ----------------------------------------
Label_01179B00:
 BYTE   N05  Fs4  v100
 BYTE   W12
 BYTE   En4
 BYTE   W12
 BYTE   N22  Cs4
 BYTE   W24
 BYTE   An4
 BYTE   W24
 BYTE   Bn4
 BYTE   W24
 BYTE   PEND 
//  #07 //019   ----------------------------------------
 BYTE   Gs4
 BYTE   W24
 BYTE   N10  Fs4
 BYTE   W12
 BYTE   N06  Gs4
 BYTE   W12
 BYTE   N10  En4
 BYTE   W12
 BYTE   N06  Fs4
 BYTE   W12
 BYTE   N44  Cs4
 BYTE   W24
//  #07 //020   ----------------------------------------
Label_01179B1F:
 BYTE   W24
 BYTE   N22  Dn4  v100
 BYTE   W24
 BYTE   N11  En4
 BYTE   W12
 BYTE   Fs4
 BYTE   W12
 BYTE   N44  En4
 BYTE   W24
 BYTE   PEND 
//  #07 //021   ----------------------------------------
Label_01179B2D:
 BYTE   W24
 BYTE   N22  En4  v100
 BYTE   W24
 BYTE   N06  Fs4
 BYTE   W12
 BYTE   Gs4
 BYTE   W12
 BYTE   N22  En4
 BYTE   W24
 BYTE   PEND 
//  #07 //022   ----------------------------------------
Label_01179B3B:
 BYTE   N05  Cs4  v100
 BYTE   W12
 BYTE   En4
 BYTE   W12
 BYTE   N44  An4
 BYTE   W48
 BYTE   Fs4
 BYTE   W24
 BYTE   PEND 
//  #07 //023   ----------------------------------------
Label_01179B47:
 BYTE   W24
 BYTE   N44  Cs5  v100
 BYTE   W48
 BYTE   Bn4
 BYTE   W24
 BYTE   PEND 
//  #07 //024   ----------------------------------------
 BYTE   W24
 BYTE   N56  Cs5
 BYTE   W60
 BYTE   N32  Cs5  v048
 BYTE   W12
//  #07 //025   ----------------------------------------
 BYTE   W24
 BYTE   N92  Fs2  v072
 BYTE   W72
//  #07 //026   ----------------------------------------
 BYTE   W24
 BYTE   N92
 BYTE   W72
//  #07 //027   ----------------------------------------
 BYTE   W96
//  #07 //028   ----------------------------------------
 BYTE   W96
//  #07 //029   ----------------------------------------
 BYTE   W96
//  #07 //030   ----------------------------------------
 BYTE   W96
//  #07 //031   ----------------------------------------
 BYTE   W96
//  #07 //032   ----------------------------------------
 BYTE   W96
//  #07 //033   ----------------------------------------
 BYTE   W96
//  #07 //034   ----------------------------------------
 BYTE   W96
//  #07 //035   ----------------------------------------
 BYTE   W96
//  #07 //036   ----------------------------------------
 BYTE   PATT
  POIN2 Label_01179AE3
//  #07 //037   ----------------------------------------
 BYTE   PATT
  POIN2 Label_01179AEE
//  #07 //038   ----------------------------------------
 BYTE   PATT
  POIN2 Label_01179B00
//  #07 //039   ----------------------------------------
 BYTE   N22  Gs4  v100
 BYTE   W24
 BYTE   N10  Fs4
 BYTE   W12
 BYTE   N06  Gs4
 BYTE   W12
 BYTE   N10  En4
 BYTE   W12
 BYTE   N06  Fs4
 BYTE   W12
 BYTE   N42  Cs4
 BYTE   W24
//  #07 //040   ----------------------------------------
 BYTE   PATT
  POIN2 Label_01179B1F
//  #07 //041   ----------------------------------------
 BYTE   PATT
  POIN2 Label_01179B2D
//  #07 //042   ----------------------------------------
 BYTE   PATT
  POIN2 Label_01179B3B
//  #07 //043   ----------------------------------------
 BYTE   PATT
  POIN2 Label_01179B47
//  #07 //044   ----------------------------------------
 BYTE   W24
 BYTE   N44  An4  v092
 BYTE   W60
 BYTE   N12
 BYTE   W12
//  #07 //045   ----------------------------------------
 BYTE   Dn5
 BYTE   W12
 BYTE   En5
 BYTE   W12
 BYTE   N21  Fs5
 BYTE   W24
 BYTE   N14
 BYTE   W24
 BYTE   Gs5
 BYTE   W24
//  #07 //046   ----------------------------------------
 BYTE   Fs5
 BYTE   W24
 BYTE   N12  En5
 BYTE   W12
 BYTE   N06  Fs5
 BYTE   W12
 BYTE   En5
 BYTE   W12
 BYTE   N22  Cs5
 BYTE   W24
 BYTE   An4
 BYTE   W12
//  #07 //047   ----------------------------------------
 BYTE   W12
 BYTE   N44  Cs5
 BYTE   W48
 BYTE   N32  An4
 BYTE   W36
//  #07 //048   ----------------------------------------
 BYTE   N23  Cs5
 BYTE   W24
 BYTE   N44  An4
 BYTE   W60
 BYTE   N12  Bn4
 BYTE   W12
//  #07 //049   ----------------------------------------
 BYTE   Cs5
 BYTE   W12
 BYTE   N56  Dn5
 BYTE   W60
 BYTE   N20  En5
 BYTE   W24
//  #07 //050   ----------------------------------------
 BYTE   Fs5
 BYTE   W24
 BYTE   N32
 BYTE   W36
 BYTE   N22  Fn5
 BYTE   W24
 BYTE   N06  Fs5
 BYTE   W12
//  #07 //051   ----------------------------------------
 BYTE   Gs5
 BYTE   W12
 BYTE   N32  Fn5
 BYTE   W36
 BYTE   N10
 BYTE   W24
 BYTE   Cs5
 BYTE   W24
//  #07 //052   ----------------------------------------
 BYTE   Bn4
 BYTE   W24
 BYTE   PAN   c_v+30
 BYTE   W24
 BYTE   N24  Cs4  v088
 BYTE   W24
 BYTE   Fs4
 BYTE   W24
//  #07 //053   ----------------------------------------
 BYTE   An4
 BYTE   W24
 BYTE   N48
 BYTE   W48
 BYTE   N24  Gs4
 BYTE   W24
//  #07 //054   ----------------------------------------
 BYTE   Fs4
 BYTE   W24
 BYTE   N24
 BYTE   W24
 BYTE   Fn4
 BYTE   W24
 BYTE   Gs4
 BYTE   W24
//  #07 //055   ----------------------------------------
 BYTE   Dn4
 BYTE   W24
 BYTE   N48
 BYTE   W48
 BYTE   N24  Cs4
 BYTE   W24
//  #07 //056   ----------------------------------------
 BYTE   Bn3
 BYTE   W48
 BYTE   Cs4
 BYTE   W24
 BYTE   Fs4
 BYTE   W24
//  #07 //057   ----------------------------------------
 BYTE   An4
 BYTE   W24
 BYTE   N48
 BYTE   W48
 BYTE   N15  Gs4
 BYTE   W18
 BYTE   N17  An4
 BYTE   W06
//  #07 //058   ----------------------------------------
 BYTE   W12
 BYTE   N10  Bn4
 BYTE   W12
 BYTE   N44  Dn5
 BYTE   W48
 BYTE   N13
 BYTE   W18
 BYTE   En5
 BYTE   W06
//  #07 //059   ----------------------------------------
 BYTE   W12
 BYTE   N10  Fs5
 BYTE   W12
 BYTE   N48
 BYTE   W48
 BYTE   Fn5
 BYTE   W24
//  #07 //060   ----------------------------------------
 BYTE   W24
 BYTE   N56  Cs5
 BYTE   W60
 BYTE   N32  Cs5  v044
 BYTE   W12
//  #07 //061   ----------------------------------------
 BYTE   W24
 BYTE   VOL   12*CastlevaniaOrderofEcclesiaAnEmptyTomeStagePsyche_mvl/mxv
 BYTE   MOD 0
 BYTE   PAN   c_v+0
 BYTE   BEND   c_v-4
 BYTE   W72
//  #07 //062   ----------------------------------------
 BYTE   W96
//  #07 //063   ----------------------------------------
 BYTE   W96
//  #07 //064   ----------------------------------------
 BYTE   W24
 BYTE   N92  Fs2  v072
 BYTE   W72
//  #07 //065   ----------------------------------------
 BYTE   W24
 BYTE   N92
 BYTE   W72
//  #07 //066   ----------------------------------------
 BYTE   W23
 BYTE   GoTo
  POIN2 Label_01179AD5
 BYTE   FINE

//**************** Track 8 (Midi-Chn.7) ****************//

CastlevaniaOrderofEcclesiaAnEmptyTomeStagePsyche_008:
//  #08 //000   ----------------------------------------
 BYTE   KEYSH   CastlevaniaOrderofEcclesiaAnEmptyTomeStagePsyche_key+0
 BYTE   VOICE   41
 BYTE   VOL   24*CastlevaniaOrderofEcclesiaAnEmptyTomeStagePsyche_mvl/mxv
 BYTE   MOD 0
 BYTE   PAN   c_v-20
 BYTE   W96
//  #08 //001   ----------------------------------------
 BYTE   W96
//  #08 //002   ----------------------------------------
 BYTE   W96
//  #08 //003   ----------------------------------------
 BYTE   W96
//  #08 //004   ----------------------------------------
 BYTE   W96
//  #08 //005   ----------------------------------------
 BYTE   W96
//  #08 //006   ----------------------------------------
 BYTE   W18
Label_0117D1AD:
 BYTE   W78
//  #08 //007   ----------------------------------------
 BYTE   W96
//  #08 //008   ----------------------------------------
Label_0117D1AF:
 BYTE   W12
 BYTE   N04  Gs2  v096
 BYTE   W04
 BYTE   An2  v100
 BYTE   W04
 BYTE   Bn2  v088
 BYTE   W04
 BYTE   Cs3  v100
 BYTE   W04
 BYTE   Dn3
 BYTE   W04
 BYTE   En3
 BYTE   W04
 BYTE   N22  Fs3  v108
 BYTE   W24
 BYTE   N10  Cs4
 BYTE   W24
 BYTE   N32
 BYTE   W12
 BYTE   PEND 
//  #08 //009   ----------------------------------------
Label_0117D1CB:
 BYTE   W24
 BYTE   N10  Bn3  v108
 BYTE   W12
 BYTE   An3
 BYTE   W12
 BYTE   N07  Bn3
 BYTE   W12
 BYTE   Gs3
 BYTE   W12
 BYTE   An3
 BYTE   W12
 BYTE   N22  Bn3
 BYTE   W12
 BYTE   PEND 
//  #08 //010   ----------------------------------------
Label_0117D1DD:
 BYTE   W12
 BYTE   N05  An3  v108
 BYTE   W12
 BYTE   Gs3
 BYTE   W12
 BYTE   N22  Fs3
 BYTE   W24
 BYTE   Cs4
 BYTE   W24
 BYTE   Ds4
 BYTE   W12
 BYTE   PEND 
//  #08 //011   ----------------------------------------
Label_0117D1EC:
 BYTE   W12
 BYTE   N22  Bn3  v108
 BYTE   W24
 BYTE   N10  An3
 BYTE   W12
 BYTE   N06  Bn3
 BYTE   W12
 BYTE   N05  Gs3
 BYTE   W12
 BYTE   N04  An3
 BYTE   W12
 BYTE   N22  Fs3
 BYTE   W12
 BYTE   PEND 
//  #08 //012   ----------------------------------------
Label_0117D201:
 BYTE   W12
 BYTE   N11  Cs3  v108
 BYTE   W12
 BYTE   En3
 BYTE   W12
 BYTE   N22  Fs3
 BYTE   W24
 BYTE   N10  Gs3
 BYTE   W12
 BYTE   An3
 BYTE   W12
 BYTE   N44  Gs3
 BYTE   W12
 BYTE   PEND 
//  #08 //013   ----------------------------------------
Label_0117D214:
 BYTE   W36
 BYTE   N22  Gs3  v108
 BYTE   W24
 BYTE   N06  An3
 BYTE   W12
 BYTE   Bn3
 BYTE   W12
 BYTE   N22  An3
 BYTE   W12
 BYTE   PEND 
//  #08 //014   ----------------------------------------
Label_0117D222:
 BYTE   W12
 BYTE   N05  Fs3  v108
 BYTE   W12
 BYTE   An3
 BYTE   W12
 BYTE   N44  Cs4
 BYTE   W48
 BYTE   Bn3
 BYTE   W12
 BYTE   PEND 
//  #08 //015   ----------------------------------------
Label_0117D22F:
 BYTE   W36
 BYTE   N22  En4  v108
 BYTE   W24
 BYTE   Cs4
 BYTE   W24
 BYTE   N23  Bn3
 BYTE   W12
 BYTE   PEND 
//  #08 //016   ----------------------------------------
Label_0117D23A:
 BYTE   W12
 BYTE   N23  En3  v108
 BYTE   W24
 BYTE   N22  Fs3
 BYTE   W24
 BYTE   N10  Cs4
 BYTE   W24
 BYTE   N32
 BYTE   W12
 BYTE   PEND 
//  #08 //017   ----------------------------------------
 BYTE   PATT
  POIN2 Label_0117D1CB
//  #08 //018   ----------------------------------------
 BYTE   PATT
  POIN2 Label_0117D1DD
//  #08 //019   ----------------------------------------
Label_0117D252:
 BYTE   W12
 BYTE   N22  Bn3  v108
 BYTE   W24
 BYTE   N10  An3
 BYTE   W12
 BYTE   N06  Bn3
 BYTE   W12
 BYTE   N10  Gs3
 BYTE   W12
 BYTE   N06  An3
 BYTE   W12
 BYTE   N22  Fs3
 BYTE   W12
 BYTE   PEND 
//  #08 //020   ----------------------------------------
Label_0117D267:
 BYTE   W12
 BYTE   N11  Cs3  v108
 BYTE   W12
 BYTE   En3
 BYTE   W12
 BYTE   N22  Fs3
 BYTE   W24
 BYTE   N11  Gs3
 BYTE   W12
 BYTE   An3
 BYTE   W12
 BYTE   N44  Gs3
 BYTE   W12
 BYTE   PEND 
//  #08 //021   ----------------------------------------
 BYTE   PATT
  POIN2 Label_0117D214
//  #08 //022   ----------------------------------------
 BYTE   PATT
  POIN2 Label_0117D222
//  #08 //023   ----------------------------------------
 BYTE   W36
 BYTE   N44  En4  v108
 BYTE   W48
 BYTE   Gs4
 BYTE   W12
//  #08 //024   ----------------------------------------
 BYTE   W36
 BYTE   N56  Fs4
 BYTE   W60
//  #08 //025   ----------------------------------------
 BYTE   N23  Fs4  v056
 BYTE   W96
//  #08 //026   ----------------------------------------
 BYTE   W96
//  #08 //027   ----------------------------------------
 BYTE   W96
//  #08 //028   ----------------------------------------
 BYTE   PATT
  POIN2 Label_0117D1AF
//  #08 //029   ----------------------------------------
 BYTE   PATT
  POIN2 Label_0117D1CB
//  #08 //030   ----------------------------------------
 BYTE   PATT
  POIN2 Label_0117D1DD
//  #08 //031   ----------------------------------------
 BYTE   PATT
  POIN2 Label_0117D1EC
//  #08 //032   ----------------------------------------
 BYTE   PATT
  POIN2 Label_0117D201
//  #08 //033   ----------------------------------------
 BYTE   PATT
  POIN2 Label_0117D214
//  #08 //034   ----------------------------------------
 BYTE   PATT
  POIN2 Label_0117D222
//  #08 //035   ----------------------------------------
 BYTE   PATT
  POIN2 Label_0117D22F
//  #08 //036   ----------------------------------------
 BYTE   PATT
  POIN2 Label_0117D23A
//  #08 //037   ----------------------------------------
 BYTE   PATT
  POIN2 Label_0117D1CB
//  #08 //038   ----------------------------------------
 BYTE   PATT
  POIN2 Label_0117D1DD
//  #08 //039   ----------------------------------------
 BYTE   PATT
  POIN2 Label_0117D252
//  #08 //040   ----------------------------------------
 BYTE   PATT
  POIN2 Label_0117D267
//  #08 //041   ----------------------------------------
 BYTE   PATT
  POIN2 Label_0117D214
//  #08 //042   ----------------------------------------
 BYTE   W12
 BYTE   N05  Fs3  v108
 BYTE   W12
 BYTE   An3
 BYTE   W12
 BYTE   N44  Cs4
 BYTE   W48
 BYTE   N32  Bn3
 BYTE   W12
//  #08 //043   ----------------------------------------
 BYTE   W24
 BYTE   VOL   51*CastlevaniaOrderofEcclesiaAnEmptyTomeStagePsyche_mvl/mxv
 BYTE   MOD 0
 BYTE   PAN   c_v-10
 BYTE   W72
//  #08 //044   ----------------------------------------
 BYTE   W24
 BYTE   N44  Fs3  v116
 BYTE   W60
 BYTE   N12  Dn3
 BYTE   W12
//  #08 //045   ----------------------------------------
 BYTE   Fs3
 BYTE   W12
 BYTE   Gs3
 BYTE   W12
 BYTE   N21  An3
 BYTE   W24
 BYTE   N14
 BYTE   W24
 BYTE   Bn3
 BYTE   W24
//  #08 //046   ----------------------------------------
 BYTE   An3
 BYTE   W21
 BYTE   N02  Fs3  v108
 BYTE   W03
 BYTE   N11  Gs3  v116
 BYTE   W12
 BYTE   N06  An3
 BYTE   W12
 BYTE   Gs3
 BYTE   W12
 BYTE   N22  En3
 BYTE   W24
 BYTE   Cs3
 BYTE   W12
//  #08 //047   ----------------------------------------
 BYTE   W12
 BYTE   N44  Fs3
 BYTE   W48
 BYTE   N32  Cs3
 BYTE   W36
//  #08 //048   ----------------------------------------
 BYTE   N23  En3
 BYTE   W24
 BYTE   N44  Dn3
 BYTE   W60
 BYTE   N12
 BYTE   W12
//  #08 //049   ----------------------------------------
 BYTE   En3
 BYTE   W12
 BYTE   N56  Fs3
 BYTE   W60
 BYTE   N20  Gs3
 BYTE   W24
//  #08 //050   ----------------------------------------
 BYTE   An3
 BYTE   W24
 BYTE   N32
 BYTE   W36
 BYTE   N23  Gs3
 BYTE   W24
 BYTE   N06  An3
 BYTE   W12
//  #08 //051   ----------------------------------------
 BYTE   Bn3
 BYTE   W10
 BYTE   N01  Cn4
 BYTE   W02
 BYTE   N32  Cs4
 BYTE   W36
 BYTE   N10  Gs3
 BYTE   W24
 BYTE   Fn3
 BYTE   W24
//  #08 //052   ----------------------------------------
 BYTE   Cs3
 BYTE   W24
 BYTE   N06  Cs4  v096
 BYTE   W06
 BYTE   Bn3
 BYTE   W06
 BYTE   An3
 BYTE   W06
 BYTE   Cs4
 BYTE   W06
 BYTE   Bn3
 BYTE   W06
 BYTE   An3
 BYTE   W06
 BYTE   Gs3
 BYTE   W06
 BYTE   Bn3
 BYTE   W06
 BYTE   An3
 BYTE   W06
 BYTE   Cs3
 BYTE   W06
 BYTE   Fs3
 BYTE   W06
 BYTE   Gs3
 BYTE   W06
//  #08 //053   ----------------------------------------
Label_0117D361:
 BYTE   N06  An3  v096
 BYTE   W06
 BYTE   Fs3
 BYTE   W06
 BYTE   Bn3
 BYTE   W06
 BYTE   Cs4
 BYTE   W06
 BYTE   Dn4
 BYTE   W06
 BYTE   Cs4
 BYTE   W06
 BYTE   Bn3
 BYTE   W06
 BYTE   Dn4
 BYTE   W06
 BYTE   Cs4
 BYTE   W06
 BYTE   Bn3
 BYTE   W06
 BYTE   As3
 BYTE   W06
 BYTE   Cs4
 BYTE   W06
 BYTE   Bn3
 BYTE   W06
 BYTE   Fs3
 BYTE   W06
 BYTE   Bn3
 BYTE   W06
 BYTE   Cs4
 BYTE   W06
 BYTE   PEND 
//  #08 //054   ----------------------------------------
 BYTE   Dn4
 BYTE   W06
 BYTE   Cs4
 BYTE   W06
 BYTE   Bn3
 BYTE   W06
 BYTE   An3
 BYTE   W06
 BYTE   Bn3
 BYTE   W06
 BYTE   An3
 BYTE   W06
 BYTE   Gs3
 BYTE   W06
 BYTE   Bn3
 BYTE   W06
 BYTE   An3
 BYTE   W06
 BYTE   Gs3
 BYTE   W06
 BYTE   Fn3
 BYTE   W06
 BYTE   Cs3
 BYTE   W06
 BYTE   Bn2
 BYTE   W06
 BYTE   Cs3
 BYTE   W06
 BYTE   Fn3
 BYTE   W06
 BYTE   Cs3
 BYTE   W06
//  #08 //055   ----------------------------------------
 BYTE   Gs3
 BYTE   W06
 BYTE   Fn3
 BYTE   W06
 BYTE   Gs3
 BYTE   W06
 BYTE   Bn3
 BYTE   W06
 BYTE   An3
 BYTE   W06
 BYTE   Cs3
 BYTE   W06
 BYTE   Fs3
 BYTE   W06
 BYTE   Gs3
 BYTE   W06
 BYTE   An3
 BYTE   W06
 BYTE   Gs3
 BYTE   W06
 BYTE   An3
 BYTE   W06
 BYTE   Bn3
 BYTE   W06
 BYTE   Cn4
 BYTE   W06
 BYTE   Cs4
 BYTE   W06
 BYTE   Gs3
 BYTE   W06
 BYTE   An3
 BYTE   W06
//  #08 //056   ----------------------------------------
 BYTE   Fn3
 BYTE   W06
 BYTE   Gs3
 BYTE   W06
 BYTE   Cs3
 BYTE   W06
 BYTE   Bn2
 BYTE   W06
 BYTE   Cs4
 BYTE   W06
 BYTE   Bn3
 BYTE   W06
 BYTE   An3
 BYTE   W06
 BYTE   Cs4
 BYTE   W06
 BYTE   Bn3
 BYTE   W06
 BYTE   An3
 BYTE   W06
 BYTE   Gs3
 BYTE   W06
 BYTE   Bn3
 BYTE   W06
 BYTE   An3
 BYTE   W06
 BYTE   Cs3
 BYTE   W06
 BYTE   Fs3
 BYTE   W06
 BYTE   Gs3
 BYTE   W06
//  #08 //057   ----------------------------------------
 BYTE   PATT
  POIN2 Label_0117D361
//  #08 //058   ----------------------------------------
 BYTE   N06  Dn4  v096
 BYTE   W06
 BYTE   Cs4
 BYTE   W06
 BYTE   Dn4
 BYTE   W06
 BYTE   En4
 BYTE   W06
 BYTE   N32  Fs4
 BYTE   W48
 BYTE   N13
 BYTE   W18
 BYTE   Gs4
 BYTE   W06
//  #08 //059   ----------------------------------------
 BYTE   W12
 BYTE   N08  An4
 BYTE   W10
 BYTE   N01  Gs4
 BYTE   W02
 BYTE   N48  An4
 BYTE   W48
 BYTE   Gs4
 BYTE   W24
//  #08 //060   ----------------------------------------
 BYTE   W24
 BYTE   N56  Fs4
 BYTE   W60
 BYTE   N32  Fs4  v048
 BYTE   W12
//  #08 //061   ----------------------------------------
 BYTE   W24
 BYTE   VOL   24*CastlevaniaOrderofEcclesiaAnEmptyTomeStagePsyche_mvl/mxv
 BYTE   MOD 0
 BYTE   PAN   c_v-20
 BYTE   W72
//  #08 //062   ----------------------------------------
 BYTE   W96
//  #08 //063   ----------------------------------------
 BYTE   W96
//  #08 //064   ----------------------------------------
 BYTE   W96
//  #08 //065   ----------------------------------------
 BYTE   W96
//  #08 //066   ----------------------------------------
 BYTE   W23
 BYTE   GoTo
  POIN2 Label_0117D1AD
 BYTE   FINE

//**************** Track 9 (Midi-Chn.8) ****************//

CastlevaniaOrderofEcclesiaAnEmptyTomeStagePsyche_009:
//  #09 //000   ----------------------------------------
 BYTE   KEYSH   CastlevaniaOrderofEcclesiaAnEmptyTomeStagePsyche_key+0
 BYTE   VOICE   10
 BYTE   VOL   21*CastlevaniaOrderofEcclesiaAnEmptyTomeStagePsyche_mvl/mxv
 BYTE   MOD 0
 BYTE   PAN   c_v+35
 BYTE   W24
 BYTE   N01  Fs4  v092
 BYTE   W06
 BYTE   N01
 BYTE   W06
 BYTE   Fs4  v100
 BYTE   W12
 BYTE   N10
 BYTE   W12
 BYTE   N01  Fs4  v080
 BYTE   W06
 BYTE   Fs4  v084
 BYTE   W06
 BYTE   N16  Fs4  v104
 BYTE   W18
 BYTE   N02  Fs4  v100
 BYTE   W06
//  #09 //001   ----------------------------------------
Label_0117D449:
 BYTE   W06
 BYTE   N01  Fs4  v060
 BYTE   W06
 BYTE   Fs4  v076
 BYTE   W06
 BYTE   N01
 BYTE   W06
 BYTE   En1  v092
 BYTE   W06
 BYTE   N01
 BYTE   W06
 BYTE   N10  En1  v100
 BYTE   W12
 BYTE   N10
 BYTE   W12
 BYTE   N01  En1  v080
 BYTE   W06
 BYTE   En1  v084
 BYTE   W06
 BYTE   N16  En1  v104
 BYTE   W18
 BYTE   N02  En1  v100
 BYTE   W06
 BYTE   PEND 
//  #09 //002   ----------------------------------------
Label_0117D46E:
 BYTE   W06
 BYTE   N01  Fs4  v060
 BYTE   W06
 BYTE   Fs4  v076
 BYTE   W06
 BYTE   N01
 BYTE   W06
 BYTE   Dn1  v092
 BYTE   W06
 BYTE   N01
 BYTE   W06
 BYTE   Dn1  v100
 BYTE   W06
 BYTE   N01
 BYTE   W06
 BYTE   N10
 BYTE   W12
 BYTE   N01  Dn1  v080
 BYTE   W06
 BYTE   Dn1  v084
 BYTE   W06
 BYTE   N16  Dn1  v104
 BYTE   W18
 BYTE   N02  Dn1  v100
 BYTE   W06
 BYTE   PEND 
//  #09 //003   ----------------------------------------
Label_0117D494:
 BYTE   W06
 BYTE   N01  Dn1  v060
 BYTE   W06
 BYTE   Dn1  v076
 BYTE   W06
 BYTE   N01
 BYTE   W06
 BYTE   En1  v092
 BYTE   W06
 BYTE   N01
 BYTE   W06
 BYTE   En1  v100
 BYTE   W06
 BYTE   N01
 BYTE   W06
 BYTE   N10
 BYTE   W12
 BYTE   N01  En1  v080
 BYTE   W06
 BYTE   En1  v084
 BYTE   W06
 BYTE   N16  En1  v104
 BYTE   W18
 BYTE   N02  En1  v100
 BYTE   W06
 BYTE   PEND 
//  #09 //004   ----------------------------------------
Label_0117D4BA:
 BYTE   W06
 BYTE   N01  Fs4  v060
 BYTE   W06
 BYTE   N05  En1  v108
 BYTE   W06
 BYTE   Fs4  v072
 BYTE   W06
 BYTE   N01  Fs4  v092
 BYTE   W06
 BYTE   N01
 BYTE   W06
 BYTE   N10  Fs4  v100
 BYTE   W12
 BYTE   N10
 BYTE   W12
 BYTE   N01  Fs4  v080
 BYTE   W06
 BYTE   Fs4  v084
 BYTE   W06
 BYTE   N16  Fs4  v104
 BYTE   W18
 BYTE   N02  Fs4  v100
 BYTE   W06
 BYTE   PEND 
//  #09 //005   ----------------------------------------
 BYTE   PATT
  POIN2 Label_0117D449
//  #09 //006   ----------------------------------------
 BYTE   W06
 BYTE   N01  Fs4  v060
 BYTE   W06
 BYTE   Fs4  v076
 BYTE   W06
Label_0117D4EF:
 BYTE   N01  Fs4  v076
 BYTE   W06
 BYTE   Dn1  v092
 BYTE   W06
 BYTE   N01
 BYTE   W06
 BYTE   N10  Dn1  v100
 BYTE   W12
 BYTE   N10
 BYTE   W12
 BYTE   N01  Dn1  v080
 BYTE   W06
 BYTE   Dn1  v084
 BYTE   W06
 BYTE   N16  Dn1  v104
 BYTE   W18
 BYTE   N02  Dn1  v100
 BYTE   W06
//  #09 //007   ----------------------------------------
 BYTE   PATT
  POIN2 Label_0117D494
//  #09 //008   ----------------------------------------
Label_0117D512:
 BYTE   W06
 BYTE   N01  Fs4  v060
 BYTE   W06
 BYTE   N05  En1  v108
 BYTE   W06
 BYTE   Fs4  v072
 BYTE   W06
 BYTE   N01  Fs4  v092
 BYTE   W12
 BYTE   Fs4  v100
 BYTE   W06
 BYTE   Fs4  v092
 BYTE   W06
 BYTE   N10  Fs4  v100
 BYTE   W12
 BYTE   N01  Fs4  v080
 BYTE   W06
 BYTE   Fs4  v084
 BYTE   W06
 BYTE   N16  Fs4  v104
 BYTE   W18
 BYTE   N02  Fs4  v100
 BYTE   W06
 BYTE   PEND 
//  #09 //009   ----------------------------------------
Label_0117D53C:
 BYTE   W06
 BYTE   N01  Fs4  v060
 BYTE   W06
 BYTE   Fs4  v076
 BYTE   W06
 BYTE   N01
 BYTE   W06
 BYTE   Fs4  v092
 BYTE   W12
 BYTE   Fs4  v100
 BYTE   W06
 BYTE   Fs4  v092
 BYTE   W06
 BYTE   N10  Fs4  v100
 BYTE   W12
 BYTE   N01  Fs4  v080
 BYTE   W06
 BYTE   Fs4  v084
 BYTE   W06
 BYTE   N16  Fs4  v104
 BYTE   W18
 BYTE   N02  En1  v100
 BYTE   W06
 BYTE   PEND 
//  #09 //010   ----------------------------------------
Label_0117D563:
 BYTE   W06
 BYTE   N01  Fs4  v060
 BYTE   W06
 BYTE   Fs4  v076
 BYTE   W06
 BYTE   N01
 BYTE   W06
 BYTE   Fs4  v092
 BYTE   W12
 BYTE   Fs4  v100
 BYTE   W06
 BYTE   Fs4  v092
 BYTE   W06
 BYTE   N10  Fs4  v100
 BYTE   W12
 BYTE   N01  Fs4  v080
 BYTE   W06
 BYTE   Fs4  v084
 BYTE   W06
 BYTE   N16  Gs4  v104
 BYTE   W18
 BYTE   N02  Gs4  v100
 BYTE   W06
 BYTE   PEND 
//  #09 //011   ----------------------------------------
 BYTE   PATT
  POIN2 Label_0117D53C
//  #09 //012   ----------------------------------------
Label_0117D58F:
 BYTE   W06
 BYTE   N01  En1  v060
 BYTE   W06
 BYTE   En1  v076
 BYTE   W06
 BYTE   N01
 BYTE   W06
 BYTE   Dn1  v092
 BYTE   W06
 BYTE   N01
 BYTE   W06
 BYTE   Dn1  v100
 BYTE   W06
 BYTE   N01
 BYTE   W06
 BYTE   N10
 BYTE   W12
 BYTE   N01  Dn1  v080
 BYTE   W06
 BYTE   Dn1  v084
 BYTE   W06
 BYTE   N16  Dn1  v104
 BYTE   W18
 BYTE   N02  Dn1  v100
 BYTE   W06
 BYTE   PEND 
//  #09 //013   ----------------------------------------
Label_0117D5B5:
 BYTE   W06
 BYTE   N01  Dn1  v060
 BYTE   W06
 BYTE   Dn1  v076
 BYTE   W06
 BYTE   N01
 BYTE   W06
 BYTE   Cs4  v092
 BYTE   W06
 BYTE   N01
 BYTE   W06
 BYTE   Cs4  v100
 BYTE   W06
 BYTE   N01
 BYTE   W06
 BYTE   N10
 BYTE   W12
 BYTE   N01  Cs4  v080
 BYTE   W06
 BYTE   Cs4  v084
 BYTE   W06
 BYTE   N16  Dn1  v104
 BYTE   W18
 BYTE   N02  Dn1  v100
 BYTE   W06
 BYTE   PEND 
//  #09 //014   ----------------------------------------
Label_0117D5DB:
 BYTE   W06
 BYTE   N01  Dn1  v060
 BYTE   W06
 BYTE   Dn1  v076
 BYTE   W06
 BYTE   N01
 BYTE   W06
 BYTE   Dn1  v092
 BYTE   W06
 BYTE   N01
 BYTE   W06
 BYTE   Dn1  v100
 BYTE   W06
 BYTE   N01
 BYTE   W06
 BYTE   N10
 BYTE   W12
 BYTE   N01  Dn1  v080
 BYTE   W06
 BYTE   Dn1  v084
 BYTE   W06
 BYTE   N16  Dn1  v104
 BYTE   W18
 BYTE   N02  Dn1  v100
 BYTE   W06
 BYTE   PEND 
//  #09 //015   ----------------------------------------
Label_0117D601:
 BYTE   W06
 BYTE   N01  Dn1  v060
 BYTE   W06
 BYTE   Dn1  v076
 BYTE   W06
 BYTE   N01
 BYTE   W06
 BYTE   Dn1  v092
 BYTE   W06
 BYTE   N01
 BYTE   W06
 BYTE   Dn1  v100
 BYTE   W06
 BYTE   N01
 BYTE   W06
 BYTE   N10
 BYTE   W12
 BYTE   N01  Dn1  v080
 BYTE   W06
 BYTE   Dn1  v084
 BYTE   W06
 BYTE   N16  Cs4  v104
 BYTE   W18
 BYTE   N02  Cs4  v100
 BYTE   W06
 BYTE   PEND 
//  #09 //016   ----------------------------------------
Label_0117D627:
 BYTE   W06
 BYTE   N01  Cs4  v060
 BYTE   W06
 BYTE   Cs4  v076
 BYTE   W06
 BYTE   N01
 BYTE   W06
 BYTE   Fs4  v092
 BYTE   W12
 BYTE   Fs4  v100
 BYTE   W06
 BYTE   Fs4  v092
 BYTE   W06
 BYTE   N10  Fs4  v100
 BYTE   W12
 BYTE   N01  Fs4  v080
 BYTE   W06
 BYTE   Fs4  v084
 BYTE   W06
 BYTE   N16  Fs4  v104
 BYTE   W18
 BYTE   N02  Fs4  v100
 BYTE   W06
 BYTE   PEND 
//  #09 //017   ----------------------------------------
 BYTE   PATT
  POIN2 Label_0117D53C
//  #09 //018   ----------------------------------------
 BYTE   PATT
  POIN2 Label_0117D563
//  #09 //019   ----------------------------------------
 BYTE   PATT
  POIN2 Label_0117D53C
//  #09 //020   ----------------------------------------
 BYTE   PATT
  POIN2 Label_0117D58F
//  #09 //021   ----------------------------------------
 BYTE   PATT
  POIN2 Label_0117D5B5
//  #09 //022   ----------------------------------------
 BYTE   PATT
  POIN2 Label_0117D5DB
//  #09 //023   ----------------------------------------
 BYTE   PATT
  POIN2 Label_0117D601
//  #09 //024   ----------------------------------------
Label_0117D671:
 BYTE   W06
 BYTE   N01  Cs4  v060
 BYTE   W06
 BYTE   Cs4  v076
 BYTE   W06
 BYTE   N01
 BYTE   W06
 BYTE   Fs4  v092
 BYTE   W06
 BYTE   N01
 BYTE   W06
 BYTE   Fs4  v100
 BYTE   W12
 BYTE   N10
 BYTE   W12
 BYTE   N01  Fs4  v080
 BYTE   W06
 BYTE   Fs4  v084
 BYTE   W06
 BYTE   N16  Fs4  v104
 BYTE   W18
 BYTE   N02  Fs4  v100
 BYTE   W06
 BYTE   PEND 
//  #09 //025   ----------------------------------------
 BYTE   W06
 BYTE   N01  Fs4  v060
 BYTE   W06
 BYTE   Fs4  v076
 BYTE   W06
 BYTE   N01
 BYTE   W06
 BYTE   En1  v092
 BYTE   W06
 BYTE   N01
 BYTE   W06
 BYTE   N10  En1  v072
 BYTE   W12
 BYTE   En1  v100
 BYTE   W12
 BYTE   N01  En1  v080
 BYTE   W06
 BYTE   En1  v084
 BYTE   W06
 BYTE   N16  En1  v104
 BYTE   W18
 BYTE   N02  En1  v100
 BYTE   W06
//  #09 //026   ----------------------------------------
 BYTE   PATT
  POIN2 Label_0117D46E
//  #09 //027   ----------------------------------------
 BYTE   PATT
  POIN2 Label_0117D494
//  #09 //028   ----------------------------------------
 BYTE   PATT
  POIN2 Label_0117D512
//  #09 //029   ----------------------------------------
 BYTE   PATT
  POIN2 Label_0117D53C
//  #09 //030   ----------------------------------------
 BYTE   PATT
  POIN2 Label_0117D563
//  #09 //031   ----------------------------------------
 BYTE   PATT
  POIN2 Label_0117D53C
//  #09 //032   ----------------------------------------
 BYTE   PATT
  POIN2 Label_0117D58F
//  #09 //033   ----------------------------------------
 BYTE   PATT
  POIN2 Label_0117D5B5
//  #09 //034   ----------------------------------------
 BYTE   PATT
  POIN2 Label_0117D5DB
//  #09 //035   ----------------------------------------
 BYTE   PATT
  POIN2 Label_0117D601
//  #09 //036   ----------------------------------------
 BYTE   PATT
  POIN2 Label_0117D627
//  #09 //037   ----------------------------------------
 BYTE   PATT
  POIN2 Label_0117D53C
//  #09 //038   ----------------------------------------
 BYTE   PATT
  POIN2 Label_0117D563
//  #09 //039   ----------------------------------------
 BYTE   PATT
  POIN2 Label_0117D53C
//  #09 //040   ----------------------------------------
 BYTE   PATT
  POIN2 Label_0117D58F
//  #09 //041   ----------------------------------------
 BYTE   PATT
  POIN2 Label_0117D5B5
//  #09 //042   ----------------------------------------
 BYTE   PATT
  POIN2 Label_0117D5DB
//  #09 //043   ----------------------------------------
 BYTE   PATT
  POIN2 Label_0117D601
//  #09 //044   ----------------------------------------
 BYTE   PATT
  POIN2 Label_0117D671
//  #09 //045   ----------------------------------------
 BYTE   W06
 BYTE   N01  Fs4  v060
 BYTE   W06
 BYTE   Fs4  v076
 BYTE   W06
 BYTE   N01
 BYTE   W06
 BYTE   En1  v092
 BYTE   W06
 BYTE   N01
 BYTE   W06
 BYTE   En1  v100
 BYTE   W12
 BYTE   N10
 BYTE   W12
 BYTE   N01  En1  v080
 BYTE   W06
 BYTE   En1  v084
 BYTE   W06
 BYTE   N16  En1  v104
 BYTE   W18
 BYTE   N02  En1  v100
 BYTE   W06
//  #09 //046   ----------------------------------------
 BYTE   W06
 BYTE   N01  En1  v060
 BYTE   W06
 BYTE   En1  v076
 BYTE   W06
 BYTE   N01
 BYTE   W06
 BYTE   En1  v092
 BYTE   W06
 BYTE   N01
 BYTE   W06
 BYTE   En1  v100
 BYTE   W12
 BYTE   N10
 BYTE   W12
 BYTE   N01  En1  v080
 BYTE   W06
 BYTE   En1  v084
 BYTE   W06
 BYTE   N16  En1  v104
 BYTE   W18
 BYTE   N02  En1  v100
 BYTE   W06
//  #09 //047   ----------------------------------------
 BYTE   W06
 BYTE   N01  En1  v060
 BYTE   W06
 BYTE   En1  v076
 BYTE   W06
 BYTE   N01
 BYTE   W06
 BYTE   Fs4  v092
 BYTE   W06
 BYTE   N01
 BYTE   W06
 BYTE   Fs4  v100
 BYTE   W12
 BYTE   N10
 BYTE   W12
 BYTE   N01  Fs4  v080
 BYTE   W06
 BYTE   Fs4  v084
 BYTE   W06
 BYTE   N16  Fs4  v104
 BYTE   W18
 BYTE   N02  Fs4  v100
 BYTE   W06
//  #09 //048   ----------------------------------------
Label_0117D782:
 BYTE   W06
 BYTE   N01  Fs4  v060
 BYTE   W06
 BYTE   Fs4  v076
 BYTE   W06
 BYTE   N01
 BYTE   W06
 BYTE   Dn1  v092
 BYTE   W06
 BYTE   N01
 BYTE   W06
 BYTE   Dn1  v100
 BYTE   W12
 BYTE   N10
 BYTE   W12
 BYTE   N01  Dn1  v080
 BYTE   W06
 BYTE   Dn1  v084
 BYTE   W06
 BYTE   N16  Dn1  v104
 BYTE   W18
 BYTE   N02  Dn1  v100
 BYTE   W06
 BYTE   PEND 
//  #09 //049   ----------------------------------------
Label_0117D7A6:
 BYTE   W06
 BYTE   N01  Dn1  v060
 BYTE   W06
 BYTE   Dn1  v076
 BYTE   W06
 BYTE   N01
 BYTE   W06
 BYTE   Dn1  v092
 BYTE   W06
 BYTE   N01
 BYTE   W06
 BYTE   Dn1  v100
 BYTE   W12
 BYTE   N10
 BYTE   W12
 BYTE   N01  Dn1  v080
 BYTE   W06
 BYTE   Dn1  v084
 BYTE   W06
 BYTE   N16  Dn1  v104
 BYTE   W18
 BYTE   N02  Dn1  v100
 BYTE   W06
 BYTE   PEND 
//  #09 //050   ----------------------------------------
 BYTE   W06
 BYTE   N01  Dn1  v060
 BYTE   W06
 BYTE   Dn1  v076
 BYTE   W06
 BYTE   N01
 BYTE   W06
 BYTE   Dn4  v092
 BYTE   W06
 BYTE   N01
 BYTE   W06
 BYTE   Dn4  v100
 BYTE   W12
 BYTE   N10
 BYTE   W12
 BYTE   N01  Dn4  v080
 BYTE   W06
 BYTE   Dn4  v084
 BYTE   W06
 BYTE   N16  Dn4  v104
 BYTE   W18
 BYTE   N02  Dn4  v100
 BYTE   W06
//  #09 //051   ----------------------------------------
 BYTE   W06
 BYTE   N01  Dn4  v060
 BYTE   W06
 BYTE   Dn4  v076
 BYTE   W06
 BYTE   N01
 BYTE   W06
 BYTE   Cs1  v092
 BYTE   W06
 BYTE   N01
 BYTE   W06
 BYTE   Cs1  v100
 BYTE   W12
 BYTE   N10
 BYTE   W12
 BYTE   N01  Cs1  v080
 BYTE   W06
 BYTE   Cs1  v084
 BYTE   W06
 BYTE   N16  Cs1  v104
 BYTE   W18
 BYTE   N02  Cs1  v100
 BYTE   W06
//  #09 //052   ----------------------------------------
Label_0117D810:
 BYTE   W06
 BYTE   N01  Cs1  v060
 BYTE   W06
 BYTE   Cs1  v076
 BYTE   W06
 BYTE   N01
 BYTE   W06
 BYTE   Fs4  v092
 BYTE   W06
 BYTE   N01
 BYTE   W06
 BYTE   Fs4  v100
 BYTE   W12
 BYTE   N10
 BYTE   W12
 BYTE   N01  Fs4  v080
 BYTE   W06
 BYTE   Fs4  v084
 BYTE   W06
 BYTE   N16  Fs4  v104
 BYTE   W18
 BYTE   N02  Fs4  v100
 BYTE   W06
 BYTE   PEND 
//  #09 //053   ----------------------------------------
 BYTE   PATT
  POIN2 Label_0117D782
//  #09 //054   ----------------------------------------
 BYTE   W06
 BYTE   N01  Dn1  v060
 BYTE   W06
 BYTE   Dn1  v076
 BYTE   W06
 BYTE   N01
 BYTE   W06
 BYTE   Cs1  v092
 BYTE   W06
 BYTE   N01
 BYTE   W06
 BYTE   Cs1  v100
 BYTE   W12
 BYTE   N10
 BYTE   W12
 BYTE   N01  Cs1  v080
 BYTE   W06
 BYTE   Cs1  v084
 BYTE   W06
 BYTE   N16  Cs1  v104
 BYTE   W18
 BYTE   N02  Cs1  v100
 BYTE   W06
//  #09 //055   ----------------------------------------
 BYTE   W06
 BYTE   N01  Cs1  v060
 BYTE   W06
 BYTE   Cs1  v076
 BYTE   W06
 BYTE   N01
 BYTE   W06
 BYTE   Dn1  v092
 BYTE   W06
 BYTE   N01
 BYTE   W06
 BYTE   Dn1  v100
 BYTE   W12
 BYTE   N10
 BYTE   W12
 BYTE   N01  Dn1  v080
 BYTE   W06
 BYTE   Dn1  v084
 BYTE   W06
 BYTE   N16  Cs1  v104
 BYTE   W18
 BYTE   N02  Cs1  v100
 BYTE   W06
//  #09 //056   ----------------------------------------
 BYTE   PATT
  POIN2 Label_0117D810
//  #09 //057   ----------------------------------------
 BYTE   PATT
  POIN2 Label_0117D782
//  #09 //058   ----------------------------------------
 BYTE   PATT
  POIN2 Label_0117D7A6
//  #09 //059   ----------------------------------------
 BYTE   W06
 BYTE   N01  Dn1  v060
 BYTE   W06
 BYTE   Dn1  v076
 BYTE   W06
 BYTE   N01
 BYTE   W06
 BYTE   Dn1  v092
 BYTE   W06
 BYTE   N01
 BYTE   W06
 BYTE   Dn1  v100
 BYTE   W12
 BYTE   N10
 BYTE   W12
 BYTE   N01  Dn1  v080
 BYTE   W06
 BYTE   Dn1  v084
 BYTE   W06
 BYTE   N16  Cs1  v104
 BYTE   W18
 BYTE   N02  Cs1  v100
 BYTE   W06
//  #09 //060   ----------------------------------------
 BYTE   PATT
  POIN2 Label_0117D810
//  #09 //061   ----------------------------------------
 BYTE   PATT
  POIN2 Label_0117D449
//  #09 //062   ----------------------------------------
 BYTE   PATT
  POIN2 Label_0117D46E
//  #09 //063   ----------------------------------------
 BYTE   PATT
  POIN2 Label_0117D494
//  #09 //064   ----------------------------------------
 BYTE   PATT
  POIN2 Label_0117D4BA
//  #09 //065   ----------------------------------------
 BYTE   PATT
  POIN2 Label_0117D449
//  #09 //066   ----------------------------------------
 BYTE   W06
 BYTE   N01  Fs4  v060
 BYTE   W06
 BYTE   Fs4  v076
 BYTE   W06
 BYTE   N01
 BYTE   W05
 BYTE   GoTo
  POIN2 Label_0117D4EF
 BYTE   FINE

//**************** Track 10 (Midi-Chn.9) ****************//

CastlevaniaOrderofEcclesiaAnEmptyTomeStagePsyche_010:
//  #10 //000   ----------------------------------------
 BYTE   KEYSH   CastlevaniaOrderofEcclesiaAnEmptyTomeStagePsyche_key+0
 BYTE   VOICE   99
 BYTE   W96
//  #10 //001   ----------------------------------------
 BYTE   W96
//  #10 //002   ----------------------------------------
 BYTE   W96
//  #10 //003   ----------------------------------------
 BYTE   W96
//  #10 //004   ----------------------------------------
 BYTE   W96
//  #10 //005   ----------------------------------------
 BYTE   W96
//  #10 //006   ----------------------------------------
 BYTE   W18
Label_0117A6FF:
 BYTE   W78
//  #10 //007   ----------------------------------------
 BYTE   W96
//  #10 //008   ----------------------------------------
 BYTE   W96
//  #10 //009   ----------------------------------------
 BYTE   W96
//  #10 //010   ----------------------------------------
 BYTE   W96
//  #10 //011   ----------------------------------------
 BYTE   W96
//  #10 //012   ----------------------------------------
 BYTE   W96
//  #10 //013   ----------------------------------------
 BYTE   W96
//  #10 //014   ----------------------------------------
 BYTE   W96
//  #10 //015   ----------------------------------------
 BYTE   W96
//  #10 //016   ----------------------------------------
 BYTE   W96
//  #10 //017   ----------------------------------------
 BYTE   W96
//  #10 //018   ----------------------------------------
 BYTE   W96
//  #10 //019   ----------------------------------------
 BYTE   W96
//  #10 //020   ----------------------------------------
 BYTE   W96
//  #10 //021   ----------------------------------------
 BYTE   W96
//  #10 //022   ----------------------------------------
 BYTE   W96
//  #10 //023   ----------------------------------------
 BYTE   W96
//  #10 //024   ----------------------------------------
 BYTE   W96
//  #10 //025   ----------------------------------------
 BYTE   W96
//  #10 //026   ----------------------------------------
 BYTE   W96
//  #10 //027   ----------------------------------------
 BYTE   W96
//  #10 //028   ----------------------------------------
 BYTE   W96
//  #10 //029   ----------------------------------------
 BYTE   W96
//  #10 //030   ----------------------------------------
 BYTE   W96
//  #10 //031   ----------------------------------------
 BYTE   W96
//  #10 //032   ----------------------------------------
 BYTE   W96
//  #10 //033   ----------------------------------------
 BYTE   W96
//  #10 //034   ----------------------------------------
 BYTE   W96
//  #10 //035   ----------------------------------------
 BYTE   W96
//  #10 //036   ----------------------------------------
 BYTE   W96
//  #10 //037   ----------------------------------------
 BYTE   W96
//  #10 //038   ----------------------------------------
 BYTE   W96
//  #10 //039   ----------------------------------------
 BYTE   W96
//  #10 //040   ----------------------------------------
 BYTE   W96
//  #10 //041   ----------------------------------------
 BYTE   W96
//  #10 //042   ----------------------------------------
 BYTE   W96
//  #10 //043   ----------------------------------------
 BYTE   W24
 BYTE   VOL   1*CastlevaniaOrderofEcclesiaAnEmptyTomeStagePsyche_mvl/mxv
 BYTE   MOD 0
 BYTE   PAN   c_v+10
 BYTE   W72
//  #10 //044   ----------------------------------------
 BYTE   W36
 BYTE   N44  Fs3  v116
 BYTE   W60
//  #10 //045   ----------------------------------------
 BYTE   N12  Dn3
 BYTE   W12
 BYTE   Fs3
 BYTE   W12
 BYTE   Gs3
 BYTE   W12
 BYTE   N21  An3
 BYTE   W24
 BYTE   N14
 BYTE   W24
 BYTE   Bn3
 BYTE   W12
//  #10 //046   ----------------------------------------
 BYTE   W12
 BYTE   An3
 BYTE   W24
 BYTE   N12  Gs3
 BYTE   W12
 BYTE   N06  An3
 BYTE   W12
 BYTE   Gs3
 BYTE   W12
 BYTE   N22  En3
 BYTE   W24
//  #10 //047   ----------------------------------------
 BYTE   Cs3
 BYTE   W24
 BYTE   N44  Fs3
 BYTE   W48
 BYTE   N32  Cs3
 BYTE   W24
//  #10 //048   ----------------------------------------
 BYTE   W12
 BYTE   N23  En3
 BYTE   W24
 BYTE   N44  Dn3
 BYTE   W60
//  #10 //049   ----------------------------------------
 BYTE   N12
 BYTE   W12
 BYTE   En3
 BYTE   W12
 BYTE   N56  Fs3
 BYTE   W60
 BYTE   N20  Gs3
 BYTE   W12
//  #10 //050   ----------------------------------------
 BYTE   W12
 BYTE   An3
 BYTE   W24
 BYTE   N32
 BYTE   W36
 BYTE   N22  Gs3
 BYTE   W24
//  #10 //051   ----------------------------------------
 BYTE   N06  An3
 BYTE   W12
 BYTE   Bn3
 BYTE   W12
 BYTE   N32  Cs4
 BYTE   W36
 BYTE   N10  Gs3
 BYTE   W24
 BYTE   Fn3
 BYTE   W12
//  #10 //052   ----------------------------------------
 BYTE   W12
 BYTE   Cs3
 BYTE   W84
//  #10 //053   ----------------------------------------
 BYTE   W96
//  #10 //054   ----------------------------------------
 BYTE   W96
//  #10 //055   ----------------------------------------
 BYTE   W96
//  #10 //056   ----------------------------------------
 BYTE   W96
//  #10 //057   ----------------------------------------
 BYTE   W96
//  #10 //058   ----------------------------------------
 BYTE   W96
//  #10 //059   ----------------------------------------
 BYTE   W96
//  #10 //060   ----------------------------------------
 BYTE   W96
//  #10 //061   ----------------------------------------
 BYTE   W96
//  #10 //062   ----------------------------------------
 BYTE   W96
//  #10 //063   ----------------------------------------
 BYTE   W96
//  #10 //064   ----------------------------------------
 BYTE   W96
//  #10 //065   ----------------------------------------
 BYTE   W96
//  #10 //066   ----------------------------------------
 BYTE   W23
 BYTE   GoTo
  POIN2 Label_0117A6FF
 BYTE   FINE

//******************************************************//
	ALIGN 4

CastlevaniaOrderofEcclesiaAnEmptyTomeStagePsyche:
	BYTE	10	// NumTrks
	BYTE	0	// NumBlks
	BYTE	CastlevaniaOrderofEcclesiaAnEmptyTomeStagePsyche_pri	// Priority
	BYTE	CastlevaniaOrderofEcclesiaAnEmptyTomeStagePsyche_rev	// Reverb.
    
	POIN2	CastlevaniaOrderofEcclesiaAnEmptyTomeStagePsyche_grp
    
	POIN2	CastlevaniaOrderofEcclesiaAnEmptyTomeStagePsyche_001
	POIN2	CastlevaniaOrderofEcclesiaAnEmptyTomeStagePsyche_002
	POIN2	CastlevaniaOrderofEcclesiaAnEmptyTomeStagePsyche_003
	POIN2	CastlevaniaOrderofEcclesiaAnEmptyTomeStagePsyche_004
	POIN2	CastlevaniaOrderofEcclesiaAnEmptyTomeStagePsyche_005
	POIN2	CastlevaniaOrderofEcclesiaAnEmptyTomeStagePsyche_006
	POIN2	CastlevaniaOrderofEcclesiaAnEmptyTomeStagePsyche_007
	POIN2	CastlevaniaOrderofEcclesiaAnEmptyTomeStagePsyche_008
	POIN2	CastlevaniaOrderofEcclesiaAnEmptyTomeStagePsyche_009
	POIN2	CastlevaniaOrderofEcclesiaAnEmptyTomeStagePsyche_010

	
