//Event file generated from Sappy .s format.
	#include "MPlayDef.event"

	#define	CastlevaniaOrderofEcclesiaSapphireElegyPsyche_grp  voicegroup000
	#define	CastlevaniaOrderofEcclesiaSapphireElegyPsyche_pri  0
	#define	CastlevaniaOrderofEcclesiaSapphireElegyPsyche_rev  0
	#define	CastlevaniaOrderofEcclesiaSapphireElegyPsyche_mvl  100
	#define	CastlevaniaOrderofEcclesiaSapphireElegyPsyche_key  0
	#define	CastlevaniaOrderofEcclesiaSapphireElegyPsyche_tbs  1
	#define	CastlevaniaOrderofEcclesiaSapphireElegyPsyche_exg  0
	#define	CastlevaniaOrderofEcclesiaSapphireElegyPsyche_cmp  1

	// .rodata
	//	CastlevaniaOrderofEcclesiaSapphireElegyPsyche
	ALIGN 4

//**************** Track 1 (Midi-Chn.1) ****************//

CastlevaniaOrderofEcclesiaSapphireElegyPsyche_1:
	BYTE	KEYSH   CastlevaniaOrderofEcclesiaSapphireElegyPsyche_key+0
CastlevaniaOrderofEcclesiaSapphireElegyPsyche_1_B1:
// 000   ----------------------------------------
	BYTE	TEMPO   76*CastlevaniaOrderofEcclesiaSapphireElegyPsyche_tbs/2
	BYTE		VOICE   127
	BYTE		VOL     75*CastlevaniaOrderofEcclesiaSapphireElegyPsyche_mvl/mxv
	BYTE		PAN     c_v+0
	BYTE		N03     Fs1   v092
	BYTE	W06
	BYTE		        Fs1   v068
	BYTE	W06
	BYTE		N03   
	BYTE	W06
	BYTE		N03   
	BYTE	W06
	BYTE		        Fs1   v084
	BYTE	W12
	BYTE		        Fs1   v068
	BYTE	W06
	BYTE		N03   
	BYTE	W06
	BYTE		        Fs1   v084
	BYTE	W12
	BYTE		        Fs1   v068
	BYTE	W06
	BYTE		N03   
	BYTE	W06
	BYTE		        Fs1   v080
	BYTE	W06
	BYTE		        Fs1   v068
	BYTE	W06
	BYTE		N11     As1   v096
	BYTE	W12
// 001   ----------------------------------------
CastlevaniaOrderofEcclesiaSapphireElegyPsyche_1_001:
	BYTE		N03     Fs1   v092
	BYTE	W06
	BYTE		        Fs1   v068
	BYTE	W06
	BYTE		N03   
	BYTE	W06
	BYTE		N03   
	BYTE	W06
	BYTE		        Fs1   v084
	BYTE	W12
	BYTE		        Fs1   v068
	BYTE	W06
	BYTE		N03   
	BYTE	W06
	BYTE		        Fs1   v084
	BYTE	W12
	BYTE		        Fs1   v068
	BYTE	W06
	BYTE		N03   
	BYTE	W06
	BYTE		        Fs1   v080
	BYTE	W06
	BYTE		        Fs1   v068
	BYTE	W06
	BYTE		N11     As1   v096
	BYTE	W12
	BYTE	PEND
// 002   ----------------------------------------
	BYTE	PATT
	 POIN2	CastlevaniaOrderofEcclesiaSapphireElegyPsyche_1_001
// 003   ----------------------------------------
	BYTE	PATT
	 POIN2	CastlevaniaOrderofEcclesiaSapphireElegyPsyche_1_001
// 004   ----------------------------------------
	BYTE	PATT
	 POIN2	CastlevaniaOrderofEcclesiaSapphireElegyPsyche_1_001
// 005   ----------------------------------------
	BYTE	PATT
	 POIN2	CastlevaniaOrderofEcclesiaSapphireElegyPsyche_1_001
// 006   ----------------------------------------
	BYTE	PATT
	 POIN2	CastlevaniaOrderofEcclesiaSapphireElegyPsyche_1_001
// 007   ----------------------------------------
	BYTE	PATT
	 POIN2	CastlevaniaOrderofEcclesiaSapphireElegyPsyche_1_001
// 008   ----------------------------------------
CastlevaniaOrderofEcclesiaSapphireElegyPsyche_1_008:
	BYTE		N03     Fs1   v092
	BYTE	W12
	BYTE		        Fs1   v068
	BYTE	W06
	BYTE		N03   
	BYTE	W06
	BYTE		        Fs1   v084
	BYTE	W12
	BYTE		        Fs1   v068
	BYTE	W06
	BYTE		N03   
	BYTE	W06
	BYTE		        Fs1   v084
	BYTE	W12
	BYTE		        Fs1   v068
	BYTE	W06
	BYTE		N03   
	BYTE	W06
	BYTE		        Fs1   v084
	BYTE	W12
	BYTE		        Fs1   v068
	BYTE	W06
	BYTE		N03   
	BYTE	W06
	BYTE	PEND
// 009   ----------------------------------------
CastlevaniaOrderofEcclesiaSapphireElegyPsyche_1_009:
	BYTE		N03     Fs1   v092
	BYTE	W06
	BYTE		        Fs1   v068
	BYTE	W06
	BYTE		N03   
	BYTE	W06
	BYTE		N03   
	BYTE	W06
	BYTE		        Fs1   v080
	BYTE	W06
	BYTE		        Fs1   v068
	BYTE	W06
	BYTE		N11     As1   v096
	BYTE	W12
	BYTE		N03     Fs1   v092
	BYTE	W12
	BYTE		        Fs1   v068
	BYTE	W06
	BYTE		N03   
	BYTE	W06
	BYTE		        Fs1   v084
	BYTE	W12
	BYTE		        Fs1   v068
	BYTE	W06
	BYTE		N03   
	BYTE	W06
	BYTE	PEND
// 010   ----------------------------------------
	BYTE		        Fs1   v084
	BYTE	W12
	BYTE		        Fs1   v068
	BYTE	W06
	BYTE		N03   
	BYTE	W06
	BYTE		        Fs1   v084
	BYTE	W12
	BYTE		        Fs1   v068
	BYTE	W06
	BYTE		N03   
	BYTE	W06
	BYTE		        Fs1   v092
	BYTE	W06
	BYTE		        Fs1   v068
	BYTE	W06
	BYTE		N03   
	BYTE	W06
	BYTE		N03   
	BYTE	W06
	BYTE		        Fs1   v080
	BYTE	W06
	BYTE		        Fs1   v068
	BYTE	W06
	BYTE		N11     As1   v096
	BYTE	W12
// 011   ----------------------------------------
	BYTE	PATT
	 POIN2	CastlevaniaOrderofEcclesiaSapphireElegyPsyche_1_001
// 012   ----------------------------------------
	BYTE	PATT
	 POIN2	CastlevaniaOrderofEcclesiaSapphireElegyPsyche_1_001
// 013   ----------------------------------------
	BYTE	PATT
	 POIN2	CastlevaniaOrderofEcclesiaSapphireElegyPsyche_1_001
// 014   ----------------------------------------
	BYTE	PATT
	 POIN2	CastlevaniaOrderofEcclesiaSapphireElegyPsyche_1_001
// 015   ----------------------------------------
	BYTE	PATT
	 POIN2	CastlevaniaOrderofEcclesiaSapphireElegyPsyche_1_001
// 016   ----------------------------------------
	BYTE	PATT
	 POIN2	CastlevaniaOrderofEcclesiaSapphireElegyPsyche_1_001
// 017   ----------------------------------------
	BYTE	PATT
	 POIN2	CastlevaniaOrderofEcclesiaSapphireElegyPsyche_1_008
// 018   ----------------------------------------
	BYTE	PATT
	 POIN2	CastlevaniaOrderofEcclesiaSapphireElegyPsyche_1_009
// 019   ----------------------------------------
	BYTE		N03     Fs1   v084
	BYTE	W12
	BYTE		        Fs1   v068
	BYTE	W06
	BYTE		N03   
	BYTE	W06
	BYTE		        Fs1   v084
	BYTE	W12
	BYTE		        Fs1   v068
	BYTE	W06
	BYTE		N03   
	BYTE	W06
	BYTE		        Fs1   v092
	BYTE	W06
	BYTE		        Fs1   v068
	BYTE	W06
	BYTE		N03   
	BYTE	W06
	BYTE		N03   
	BYTE	W06
	BYTE		        Fs1   v080
	BYTE	W06
	BYTE		        Fs1   v068
	BYTE	W06
	BYTE		N11     As1   v096
	BYTE	W11
	BYTE	GoTo
	 POIN2	CastlevaniaOrderofEcclesiaSapphireElegyPsyche_1_B1
CastlevaniaOrderofEcclesiaSapphireElegyPsyche_1_B2:
	BYTE	FINE

//**************** Track 2 (Midi-Chn.2) ****************//

CastlevaniaOrderofEcclesiaSapphireElegyPsyche_2:
	BYTE	KEYSH   CastlevaniaOrderofEcclesiaSapphireElegyPsyche_key+0
CastlevaniaOrderofEcclesiaSapphireElegyPsyche_2_B1:
// 000   ----------------------------------------
	BYTE		VOICE   2
	BYTE		VOL     45*CastlevaniaOrderofEcclesiaSapphireElegyPsyche_mvl/mxv
	BYTE		PAN     c_v+0
	BYTE	W96
// 001   ----------------------------------------
	BYTE	W96
// 002   ----------------------------------------
	BYTE	W96
// 003   ----------------------------------------
	BYTE	W96
// 004   ----------------------------------------
	BYTE	W96
// 005   ----------------------------------------
	BYTE	W96
// 006   ----------------------------------------
	BYTE	W96
// 007   ----------------------------------------
	BYTE	W96
// 008   ----------------------------------------
CastlevaniaOrderofEcclesiaSapphireElegyPsyche_2_008:
	BYTE		N11     Gn1   v120
	BYTE	W12
	BYTE		        Gn1   v060
	BYTE	W12
	BYTE		        Gn1   v120
	BYTE	W12
	BYTE		N05     Gn1   v060
	BYTE	W06
	BYTE		        Gn1   v120
	BYTE	W06
	BYTE		        Gn1   v060
	BYTE	W06
	BYTE		        Gn1   v120
	BYTE	W06
	BYTE		N17     As1 
	BYTE	W18
	BYTE		N11     Fs1 
	BYTE	W12
	BYTE		        As1 
	BYTE	W06
	BYTE	PEND
// 009   ----------------------------------------
CastlevaniaOrderofEcclesiaSapphireElegyPsyche_2_009:
	BYTE	W06
	BYTE		N05     Ds2   v120
	BYTE	W06
	BYTE		        Fn1 
	BYTE	W06
	BYTE		        Bn1 
	BYTE	W06
	BYTE		        Ds2 
	BYTE	W06
	BYTE		        Fn2 
	BYTE	W06
	BYTE		N03     Bn2 
	BYTE	W04
	BYTE		        Ds3 
	BYTE	W04
	BYTE		        Gs3 
	BYTE	W04
	BYTE		N11     Gn1 
	BYTE	W12
	BYTE		        Gn1   v060
	BYTE	W12
	BYTE		        Gn1   v120
	BYTE	W12
	BYTE		N05     Gn1   v060
	BYTE	W06
	BYTE		        Gn1   v120
	BYTE	W06
	BYTE	PEND
// 010   ----------------------------------------
	BYTE		        Gn1   v060
	BYTE	W06
	BYTE		N12     Fn1   v120
	BYTE	W12
	BYTE		N05     Bn1 
	BYTE	W06
	BYTE		        Ds2 
	BYTE	W06
	BYTE		        Fs1 
	BYTE	W06
	BYTE		        Cn2 
	BYTE	W06
	BYTE		        Fn2 
	BYTE	W06
	BYTE		        Gn1 
	BYTE	W06
	BYTE		        Cs2 
	BYTE	W06
	BYTE		        Gn2 
	BYTE	W06
	BYTE		        Cn2 
	BYTE	W06
	BYTE		        Fn2 
	BYTE	W06
	BYTE		        As2 
	BYTE	W06
	BYTE		N03     Bn2 
	BYTE	W04
	BYTE		        Ds3 
	BYTE	W04
	BYTE		        Gs3 
	BYTE	W04
// 011   ----------------------------------------
	BYTE	W96
// 012   ----------------------------------------
	BYTE	W96
// 013   ----------------------------------------
	BYTE	W96
// 014   ----------------------------------------
	BYTE	W96
// 015   ----------------------------------------
	BYTE	W96
// 016   ----------------------------------------
	BYTE	W96
// 017   ----------------------------------------
	BYTE	PATT
	 POIN2	CastlevaniaOrderofEcclesiaSapphireElegyPsyche_2_008
// 018   ----------------------------------------
	BYTE	PATT
	 POIN2	CastlevaniaOrderofEcclesiaSapphireElegyPsyche_2_009
// 019   ----------------------------------------
	BYTE		N05     Gn1   v060
	BYTE	W06
	BYTE		N12     Fn1   v120
	BYTE	W12
	BYTE		N05     Bn1 
	BYTE	W06
	BYTE		        Ds2 
	BYTE	W06
	BYTE		        Fs1 
	BYTE	W06
	BYTE		        Cn2 
	BYTE	W06
	BYTE		        Fn2 
	BYTE	W06
	BYTE		        Gn1 
	BYTE	W06
	BYTE		        Cs2 
	BYTE	W06
	BYTE		        Gn2 
	BYTE	W06
	BYTE		        Cn2 
	BYTE	W06
	BYTE		        Fn2 
	BYTE	W06
	BYTE		        As2 
	BYTE	W06
	BYTE		N03     Bn2 
	BYTE	W04
	BYTE		        Ds3 
	BYTE	W04
	BYTE		        Gs3 
	BYTE	W03
	BYTE	GoTo
	 POIN2	CastlevaniaOrderofEcclesiaSapphireElegyPsyche_2_B1
CastlevaniaOrderofEcclesiaSapphireElegyPsyche_2_B2:
	BYTE	FINE

//**************** Track 3 (Midi-Chn.3) ****************//

CastlevaniaOrderofEcclesiaSapphireElegyPsyche_3:
	BYTE	KEYSH   CastlevaniaOrderofEcclesiaSapphireElegyPsyche_key+0
CastlevaniaOrderofEcclesiaSapphireElegyPsyche_3_B1:
// 000   ----------------------------------------
	BYTE		VOICE   50
	BYTE		VOL     45*CastlevaniaOrderofEcclesiaSapphireElegyPsyche_mvl/mxv
	BYTE		PAN     c_v+0
	BYTE		N92     Dn3   v096
	BYTE	W96
// 001   ----------------------------------------
	BYTE		N92   
	BYTE	W96
// 002   ----------------------------------------
	BYTE		N44   
	BYTE	W48
	BYTE		        Cn3 
	BYTE	W48
// 003   ----------------------------------------
	BYTE		N32     As2 
	BYTE	W36
	BYTE		        An2 
	BYTE	W36
	BYTE		N20   
	BYTE	W24
// 004   ----------------------------------------
	BYTE		N92     As2 
	BYTE	W96
// 005   ----------------------------------------
	BYTE		N92   
	BYTE	W96
// 006   ----------------------------------------
	BYTE		N92   
	BYTE	W96
// 007   ----------------------------------------
CastlevaniaOrderofEcclesiaSapphireElegyPsyche_3_007:
	BYTE		N44     As2   v096
	BYTE	W48
	BYTE		        An2 
	BYTE	W48
	BYTE	PEND
// 008   ----------------------------------------
CastlevaniaOrderofEcclesiaSapphireElegyPsyche_3_008:
	BYTE		N11     Gn1   v104
	BYTE	W24
	BYTE		N11   
	BYTE	W18
	BYTE		N05   
	BYTE	W12
	BYTE		N05   
	BYTE	W06
	BYTE		N17     As1 
	BYTE	W18
	BYTE		N09     Fs1 
	BYTE	W12
	BYTE		N11     As1 
	BYTE	W06
	BYTE	PEND
// 009   ----------------------------------------
CastlevaniaOrderofEcclesiaSapphireElegyPsyche_3_009:
	BYTE	W06
	BYTE		N05     Ds2   v104
	BYTE	W06
	BYTE		        Fn1 
	BYTE	W06
	BYTE		        Bn1 
	BYTE	W06
	BYTE		        Ds2 
	BYTE	W06
	BYTE		        Fn2 
	BYTE	W06
	BYTE		N03     Bn2 
	BYTE	W04
	BYTE		        Ds3 
	BYTE	W04
	BYTE		        Gs3 
	BYTE	W04
	BYTE		N11     Gn1 
	BYTE	W24
	BYTE		N11   
	BYTE	W18
	BYTE		N05   
	BYTE	W06
	BYTE	PEND
// 010   ----------------------------------------
	BYTE	W06
	BYTE		N12     Fn1 
	BYTE	W12
	BYTE		N05     Bn1 
	BYTE	W06
	BYTE		        Ds2 
	BYTE	W06
	BYTE		        Fs1 
	BYTE	W06
	BYTE		        Cn2 
	BYTE	W06
	BYTE		        Fn2 
	BYTE	W06
	BYTE		        Gn1 
	BYTE	W06
	BYTE		        Cs2 
	BYTE	W06
	BYTE		        Gn2 
	BYTE	W06
	BYTE		        Cn2 
	BYTE	W06
	BYTE		        Fn2 
	BYTE	W06
	BYTE		        As2 
	BYTE	W06
	BYTE		N03     Bn2 
	BYTE	W04
	BYTE		        Ds3 
	BYTE	W04
	BYTE		        Gs3 
	BYTE	W04
// 011   ----------------------------------------
	BYTE		N92     As2   v096
	BYTE	W96
// 012   ----------------------------------------
	BYTE		        An2 
	BYTE	W96
// 013   ----------------------------------------
	BYTE		        Gn2 
	BYTE	W96
// 014   ----------------------------------------
	BYTE	PATT
	 POIN2	CastlevaniaOrderofEcclesiaSapphireElegyPsyche_3_007
// 015   ----------------------------------------
	BYTE		N92     Gn2   v096
	BYTE	W96
// 016   ----------------------------------------
	BYTE		N68     An2 
	BYTE	W72
	BYTE		N21   
	BYTE	W24
// 017   ----------------------------------------
	BYTE	PATT
	 POIN2	CastlevaniaOrderofEcclesiaSapphireElegyPsyche_3_008
// 018   ----------------------------------------
	BYTE	PATT
	 POIN2	CastlevaniaOrderofEcclesiaSapphireElegyPsyche_3_009
// 019   ----------------------------------------
	BYTE	W06
	BYTE		N12     Fn1   v104
	BYTE	W12
	BYTE		N05     Bn1 
	BYTE	W06
	BYTE		        Ds2 
	BYTE	W06
	BYTE		        Fs1 
	BYTE	W06
	BYTE		        Cn2 
	BYTE	W06
	BYTE		        Fn2 
	BYTE	W06
	BYTE		        Gn1 
	BYTE	W06
	BYTE		        Cs2 
	BYTE	W06
	BYTE		        Gn2 
	BYTE	W06
	BYTE		        Cn2 
	BYTE	W06
	BYTE		        Fn2 
	BYTE	W06
	BYTE		        As2 
	BYTE	W06
	BYTE		N03     Bn2 
	BYTE	W04
	BYTE		        Ds3 
	BYTE	W04
	BYTE		        Gs3 
	BYTE	W03
	BYTE	GoTo
	 POIN2	CastlevaniaOrderofEcclesiaSapphireElegyPsyche_3_B1
CastlevaniaOrderofEcclesiaSapphireElegyPsyche_3_B2:
	BYTE	FINE

//**************** Track 4 (Midi-Chn.4) ****************//

CastlevaniaOrderofEcclesiaSapphireElegyPsyche_4:
	BYTE	KEYSH   CastlevaniaOrderofEcclesiaSapphireElegyPsyche_key+0
CastlevaniaOrderofEcclesiaSapphireElegyPsyche_4_B1:
// 000   ----------------------------------------
	BYTE		VOICE   51
	BYTE		VOL     27*CastlevaniaOrderofEcclesiaSapphireElegyPsyche_mvl/mxv
	BYTE		PAN     c_v-30
	BYTE		N92     As2   v096
	BYTE	W96
// 001   ----------------------------------------
	BYTE		N92   
	BYTE	W96
// 002   ----------------------------------------
	BYTE		        Gn2 
	BYTE	W96
// 003   ----------------------------------------
	BYTE		N32   
	BYTE	W36
	BYTE		        Fn2 
	BYTE	W36
	BYTE		N20     Fs2 
	BYTE	W24
// 004   ----------------------------------------
	BYTE		N92     Gn2 
	BYTE	W96
// 005   ----------------------------------------
	BYTE		N92   
	BYTE	W96
// 006   ----------------------------------------
	BYTE		N92   
	BYTE	W96
// 007   ----------------------------------------
	BYTE		N44   
	BYTE	W48
	BYTE		        Fn2 
	BYTE	W48
// 008   ----------------------------------------
	BYTE	W96
// 009   ----------------------------------------
	BYTE	W96
// 010   ----------------------------------------
	BYTE	W96
// 011   ----------------------------------------
	BYTE		N92     Gn2 
	BYTE	W96
// 012   ----------------------------------------
	BYTE		        Fn2 
	BYTE	W96
// 013   ----------------------------------------
	BYTE		        En2 
	BYTE	W96
// 014   ----------------------------------------
	BYTE		N44     Gn2 
	BYTE	W48
	BYTE		        Fs2 
	BYTE	W48
// 015   ----------------------------------------
	BYTE		N92     Ds2 
	BYTE	W96
// 016   ----------------------------------------
	BYTE		N68     Fn2 
	BYTE	W72
	BYTE		N21   
	BYTE	W24
// 017   ----------------------------------------
	BYTE	W96
// 018   ----------------------------------------
	BYTE	W96
// 019   ----------------------------------------
	BYTE	W92
	BYTE	W03
	BYTE	GoTo
	 POIN2	CastlevaniaOrderofEcclesiaSapphireElegyPsyche_4_B1
CastlevaniaOrderofEcclesiaSapphireElegyPsyche_4_B2:
	BYTE	FINE

//**************** Track 5 (Midi-Chn.5) ****************//

CastlevaniaOrderofEcclesiaSapphireElegyPsyche_5:
	BYTE	KEYSH   CastlevaniaOrderofEcclesiaSapphireElegyPsyche_key+0
CastlevaniaOrderofEcclesiaSapphireElegyPsyche_5_B1:
// 000   ----------------------------------------
	BYTE		VOICE   50
	BYTE		VOL     45*CastlevaniaOrderofEcclesiaSapphireElegyPsyche_mvl/mxv
	BYTE		PAN     c_v+30
	BYTE		N92     Gn2   v096
	BYTE	W96
// 001   ----------------------------------------
	BYTE		N92   
	BYTE	W96
// 002   ----------------------------------------
	BYTE		        En2 
	BYTE	W96
// 003   ----------------------------------------
	BYTE		N32     Ds2 
	BYTE	W36
	BYTE		        Cn2 
	BYTE	W36
	BYTE		N20     Dn2 
	BYTE	W24
// 004   ----------------------------------------
	BYTE		N92   
	BYTE	W96
// 005   ----------------------------------------
	BYTE		N92   
	BYTE	W96
// 006   ----------------------------------------
	BYTE		        En2 
	BYTE	W96
// 007   ----------------------------------------
	BYTE		N44     Ds2 
	BYTE	W48
	BYTE		        Cn2 
	BYTE	W48
// 008   ----------------------------------------
CastlevaniaOrderofEcclesiaSapphireElegyPsyche_5_008:
	BYTE		N11     Gn0   v104
	BYTE	W24
	BYTE		N11   
	BYTE	W18
	BYTE		N05   
	BYTE	W12
	BYTE		N05   
	BYTE	W06
	BYTE		N17     As0 
	BYTE	W18
	BYTE		N09     Fs0 
	BYTE	W12
	BYTE		N11     As0 
	BYTE	W06
	BYTE	PEND
// 009   ----------------------------------------
CastlevaniaOrderofEcclesiaSapphireElegyPsyche_5_009:
	BYTE	W06
	BYTE		N05     Ds1   v104
	BYTE	W06
	BYTE		        Fn0 
	BYTE	W06
	BYTE		        Bn0 
	BYTE	W06
	BYTE		        Ds1 
	BYTE	W06
	BYTE		        Fn1 
	BYTE	W06
	BYTE		N03     Bn1 
	BYTE	W04
	BYTE		        Ds2 
	BYTE	W04
	BYTE		        Gs2 
	BYTE	W04
	BYTE		N11     Gn0 
	BYTE	W24
	BYTE		N11   
	BYTE	W18
	BYTE		N05   
	BYTE	W06
	BYTE	PEND
// 010   ----------------------------------------
	BYTE	W06
	BYTE		N12     Fn0 
	BYTE	W12
	BYTE		N05     Bn0 
	BYTE	W06
	BYTE		        Ds1 
	BYTE	W06
	BYTE		        Fs0 
	BYTE	W06
	BYTE		        Cn1 
	BYTE	W06
	BYTE		        Fn1 
	BYTE	W06
	BYTE		        Gn0 
	BYTE	W06
	BYTE		        Cs1 
	BYTE	W06
	BYTE		        Gn1 
	BYTE	W06
	BYTE		        Cn1 
	BYTE	W06
	BYTE		        Fn1 
	BYTE	W06
	BYTE		        As1 
	BYTE	W06
	BYTE		N03     Bn1 
	BYTE	W04
	BYTE		        Ds2 
	BYTE	W04
	BYTE		        Gs2 
	BYTE	W04
// 011   ----------------------------------------
	BYTE		N92     Dn2   v096
	BYTE	W96
// 012   ----------------------------------------
	BYTE		        Cn2 
	BYTE	W96
// 013   ----------------------------------------
	BYTE		N92   
	BYTE	W96
// 014   ----------------------------------------
	BYTE		N44     Ds2 
	BYTE	W48
	BYTE		        Dn2 
	BYTE	W48
// 015   ----------------------------------------
	BYTE		N92     As1 
	BYTE	W96
// 016   ----------------------------------------
	BYTE		N68     Cn2 
	BYTE	W72
	BYTE		N21   
	BYTE	W24
// 017   ----------------------------------------
	BYTE	PATT
	 POIN2	CastlevaniaOrderofEcclesiaSapphireElegyPsyche_5_008
// 018   ----------------------------------------
	BYTE	PATT
	 POIN2	CastlevaniaOrderofEcclesiaSapphireElegyPsyche_5_009
// 019   ----------------------------------------
	BYTE	W06
	BYTE		N12     Fn0   v104
	BYTE	W12
	BYTE		N05     Bn0 
	BYTE	W06
	BYTE		        Ds1 
	BYTE	W06
	BYTE		        Fs0 
	BYTE	W06
	BYTE		        Cn1 
	BYTE	W06
	BYTE		        Fn1 
	BYTE	W06
	BYTE		        Gn0 
	BYTE	W06
	BYTE		        Cs1 
	BYTE	W06
	BYTE		        Gn1 
	BYTE	W06
	BYTE		        Cn1 
	BYTE	W06
	BYTE		        Fn1 
	BYTE	W06
	BYTE		        As1 
	BYTE	W06
	BYTE		N03     Bn1 
	BYTE	W04
	BYTE		        Ds2 
	BYTE	W04
	BYTE		        Gs2 
	BYTE	W03
	BYTE	GoTo
	 POIN2	CastlevaniaOrderofEcclesiaSapphireElegyPsyche_5_B1
CastlevaniaOrderofEcclesiaSapphireElegyPsyche_5_B2:
	BYTE	FINE

//**************** Track 6 (Midi-Chn.6) ****************//

CastlevaniaOrderofEcclesiaSapphireElegyPsyche_6:
	BYTE	KEYSH   CastlevaniaOrderofEcclesiaSapphireElegyPsyche_key+0
CastlevaniaOrderofEcclesiaSapphireElegyPsyche_6_B1:
// 000   ----------------------------------------
	BYTE		VOICE   2
	BYTE		VOL     45*CastlevaniaOrderofEcclesiaSapphireElegyPsyche_mvl/mxv
	BYTE		PAN     c_v+30
	BYTE		BEND    c_v-2
	BYTE	W96
// 001   ----------------------------------------
	BYTE	W96
// 002   ----------------------------------------
	BYTE	W96
// 003   ----------------------------------------
	BYTE	W96
// 004   ----------------------------------------
	BYTE	W96
// 005   ----------------------------------------
	BYTE	W96
// 006   ----------------------------------------
	BYTE	W96
// 007   ----------------------------------------
	BYTE	W96
// 008   ----------------------------------------
CastlevaniaOrderofEcclesiaSapphireElegyPsyche_6_008:
	BYTE	W08
	BYTE		N11     Gn1   v104
	BYTE	W24
	BYTE		N11   
	BYTE	W18
	BYTE		N05   
	BYTE	W12
	BYTE		N05   
	BYTE	W06
	BYTE		N17     As1 
	BYTE	W18
	BYTE		N09     Fs1 
	BYTE	W10
	BYTE	PEND
// 009   ----------------------------------------
CastlevaniaOrderofEcclesiaSapphireElegyPsyche_6_009:
	BYTE	W02
	BYTE		N11     As1   v104
	BYTE	W12
	BYTE		N05     Ds2 
	BYTE	W06
	BYTE		        Fn1 
	BYTE	W06
	BYTE		        Bn1 
	BYTE	W06
	BYTE		        Ds2 
	BYTE	W06
	BYTE		        Fn2 
	BYTE	W06
	BYTE		N03     Bn2 
	BYTE	W04
	BYTE		        Ds3 
	BYTE	W04
	BYTE		        Gs3 
	BYTE	W04
	BYTE		N11     Gn1 
	BYTE	W24
	BYTE		N11   
	BYTE	W16
	BYTE	PEND
// 010   ----------------------------------------
	BYTE	W02
	BYTE		N05   
	BYTE	W12
	BYTE		N12     Fn1 
	BYTE	W12
	BYTE		N05     Bn1 
	BYTE	W06
	BYTE		        Ds2 
	BYTE	W06
	BYTE		        Fs1 
	BYTE	W06
	BYTE		        Cn2 
	BYTE	W06
	BYTE		        Fn2 
	BYTE	W06
	BYTE		        Gn1 
	BYTE	W06
	BYTE		        Cs2 
	BYTE	W06
	BYTE		        Gn2 
	BYTE	W06
	BYTE		        Cn2 
	BYTE	W06
	BYTE		        Fn2 
	BYTE	W06
	BYTE		        As2 
	BYTE	W06
	BYTE		N03     Bn2 
	BYTE	W04
// 011   ----------------------------------------
	BYTE	W96
// 012   ----------------------------------------
	BYTE	W96
// 013   ----------------------------------------
	BYTE	W96
// 014   ----------------------------------------
	BYTE	W96
// 015   ----------------------------------------
	BYTE	W96
// 016   ----------------------------------------
	BYTE	W96
// 017   ----------------------------------------
	BYTE	PATT
	 POIN2	CastlevaniaOrderofEcclesiaSapphireElegyPsyche_6_008
// 018   ----------------------------------------
	BYTE	PATT
	 POIN2	CastlevaniaOrderofEcclesiaSapphireElegyPsyche_6_009
// 019   ----------------------------------------
	BYTE	W02
	BYTE		N05     Gn1   v104
	BYTE	W12
	BYTE		N12     Fn1 
	BYTE	W12
	BYTE		N05     Bn1 
	BYTE	W06
	BYTE		        Ds2 
	BYTE	W06
	BYTE		        Fs1 
	BYTE	W06
	BYTE		        Cn2 
	BYTE	W06
	BYTE		        Fn2 
	BYTE	W06
	BYTE		        Gn1 
	BYTE	W06
	BYTE		        Cs2 
	BYTE	W06
	BYTE		        Gn2 
	BYTE	W06
	BYTE		        Cn2 
	BYTE	W06
	BYTE		        Fn2 
	BYTE	W06
	BYTE		        As2 
	BYTE	W06
	BYTE		N03     Bn2 
	BYTE	W03
	BYTE	GoTo
	 POIN2	CastlevaniaOrderofEcclesiaSapphireElegyPsyche_6_B1
CastlevaniaOrderofEcclesiaSapphireElegyPsyche_6_B2:
	BYTE	FINE

//**************** Track 7 (Midi-Chn.7) ****************//

CastlevaniaOrderofEcclesiaSapphireElegyPsyche_7:
	BYTE	KEYSH   CastlevaniaOrderofEcclesiaSapphireElegyPsyche_key+0
CastlevaniaOrderofEcclesiaSapphireElegyPsyche_7_B1:
// 000   ----------------------------------------
	BYTE		VOICE   28
	BYTE		VOL     35*CastlevaniaOrderofEcclesiaSapphireElegyPsyche_mvl/mxv
	BYTE		PAN     c_v-10
	BYTE		N11     Gn2   v116
	BYTE	W12
	BYTE		        Dn3 
	BYTE	W12
	BYTE		N10     An3 
	BYTE	W12
	BYTE		N56     As3 
	BYTE	W60
// 001   ----------------------------------------
CastlevaniaOrderofEcclesiaSapphireElegyPsyche_7_001:
	BYTE		N11     Fn2   v116
	BYTE	W12
	BYTE		        Dn3 
	BYTE	W12
	BYTE		        An3 
	BYTE	W12
	BYTE		N32     As3 
	BYTE	W36
	BYTE		N10     An3 
	BYTE	W12
	BYTE		        Gn3 
	BYTE	W12
	BYTE	PEND
// 002   ----------------------------------------
CastlevaniaOrderofEcclesiaSapphireElegyPsyche_7_002:
	BYTE		N11     Cn2   v116
	BYTE	W12
	BYTE		        Gn2 
	BYTE	W12
	BYTE		        Dn3 
	BYTE	W12
	BYTE		N44     En3 
	BYTE	W48
	BYTE		N11     Cn3 
	BYTE	W12
	BYTE	PEND
// 003   ----------------------------------------
	BYTE		        Ds2 
	BYTE	W12
	BYTE		        As2 
	BYTE	W12
	BYTE		N10     Ds3 
	BYTE	W12
	BYTE		N32     Fn3 
	BYTE	W36
	BYTE		N21     Fs3 
	BYTE	W24
// 004   ----------------------------------------
	BYTE		N11     Gn2 
	BYTE	W12
	BYTE		        Dn3 
	BYTE	W12
	BYTE		N10     An3 
	BYTE	W12
	BYTE		N56     As3 
	BYTE	W60
// 005   ----------------------------------------
	BYTE	PATT
	 POIN2	CastlevaniaOrderofEcclesiaSapphireElegyPsyche_7_001
// 006   ----------------------------------------
	BYTE	PATT
	 POIN2	CastlevaniaOrderofEcclesiaSapphireElegyPsyche_7_002
// 007   ----------------------------------------
	BYTE		N11     Ds2   v116
	BYTE	W12
	BYTE		N05     As2 
	BYTE	W06
	BYTE		N28     Ds3 
	BYTE	W30
	BYTE		N11     Fn2 
	BYTE	W12
	BYTE		N05     Cn3 
	BYTE	W06
	BYTE		N17     Fn3 
	BYTE	W18
	BYTE		N11     Fn2 
	BYTE	W12
// 008   ----------------------------------------
	BYTE	W96
// 009   ----------------------------------------
	BYTE	W96
// 010   ----------------------------------------
	BYTE	W96
// 011   ----------------------------------------
	BYTE		        Gn2 
	BYTE	W12
	BYTE		N05     Dn3 
	BYTE	W06
	BYTE		N11     Gn3 
	BYTE	W12
	BYTE		        An3 
	BYTE	W12
	BYTE		N23     As3 
	BYTE	W24
	BYTE		N17     An3 
	BYTE	W18
	BYTE		N11     Gn3 
	BYTE	W12
// 012   ----------------------------------------
	BYTE		N10     Fn2 
	BYTE	W12
	BYTE		N05     Cn3 
	BYTE	W06
	BYTE		N11     Fn3 
	BYTE	W12
	BYTE		N10     Gn3 
	BYTE	W12
	BYTE		N23     An3 
	BYTE	W24
	BYTE		N16     Gn3 
	BYTE	W18
	BYTE		N11     Dn3 
	BYTE	W12
// 013   ----------------------------------------
	BYTE		        Cn3 
	BYTE	W12
	BYTE		N05     Gn3 
	BYTE	W06
	BYTE		N11     Cn4 
	BYTE	W12
	BYTE		        Dn4 
	BYTE	W12
	BYTE		N23     En4 
	BYTE	W24
	BYTE		N17     Cn4 
	BYTE	W18
	BYTE		N11     Gn3 
	BYTE	W12
// 014   ----------------------------------------
	BYTE		        Ds3 
	BYTE	W12
	BYTE		N05     As3 
	BYTE	W06
	BYTE		N11     Ds4 
	BYTE	W12
	BYTE		        Gn4 
	BYTE	W12
	BYTE		N05     As3 
	BYTE	W06
	BYTE		N11     Dn3 
	BYTE	W12
	BYTE		N05     An3 
	BYTE	W06
	BYTE		N11     Dn4 
	BYTE	W12
	BYTE		        An4 
	BYTE	W12
	BYTE		N05     Dn3 
	BYTE	W06
// 015   ----------------------------------------
	BYTE		N28     Ds3 
	BYTE	W30
	BYTE		N06     As3 
	BYTE	W06
	BYTE		N05     Dn4 
	BYTE	W06
	BYTE		N11     Ds4 
	BYTE	W12
	BYTE		N16     Fn4 
	BYTE	W18
	BYTE		N11     Gn4 
	BYTE	W12
	BYTE		N10     Ds3 
	BYTE	W12
// 016   ----------------------------------------
	BYTE		N17     Fn3 
	BYTE	W18
	BYTE		        Cn3 
	BYTE	W18
	BYTE		N32     Fn2 
	BYTE	W36
	BYTE		N23     Dn3 
	BYTE	W24
// 017   ----------------------------------------
	BYTE	W96
// 018   ----------------------------------------
	BYTE	W96
// 019   ----------------------------------------
	BYTE	W92
	BYTE	W03
	BYTE	GoTo
	 POIN2	CastlevaniaOrderofEcclesiaSapphireElegyPsyche_7_B1
CastlevaniaOrderofEcclesiaSapphireElegyPsyche_7_B2:
	BYTE	FINE

//**************** Track 8 (Midi-Chn.8) ****************//

CastlevaniaOrderofEcclesiaSapphireElegyPsyche_8:
	BYTE	KEYSH   CastlevaniaOrderofEcclesiaSapphireElegyPsyche_key+0
CastlevaniaOrderofEcclesiaSapphireElegyPsyche_8_B1:
// 000   ----------------------------------------
	BYTE		VOICE   28
	BYTE		VOL     35*CastlevaniaOrderofEcclesiaSapphireElegyPsyche_mvl/mxv
	BYTE		PAN     c_v+40
	BYTE		BEND    c_v-2
	BYTE	W08
	BYTE		N11     Gn2   v100
	BYTE	W12
	BYTE		        Dn3 
	BYTE	W12
	BYTE		N10     An3 
	BYTE	W12
	BYTE		N56     As3 
	BYTE	W52
// 001   ----------------------------------------
CastlevaniaOrderofEcclesiaSapphireElegyPsyche_8_001:
	BYTE	W08
	BYTE		N11     Fn2   v100
	BYTE	W12
	BYTE		        Dn3 
	BYTE	W12
	BYTE		        An3 
	BYTE	W12
	BYTE		N32     As3 
	BYTE	W36
	BYTE		N10     An3 
	BYTE	W12
	BYTE		        Gn3 
	BYTE	W04
	BYTE	PEND
// 002   ----------------------------------------
CastlevaniaOrderofEcclesiaSapphireElegyPsyche_8_002:
	BYTE	W08
	BYTE		N11     Cn2   v100
	BYTE	W12
	BYTE		        Gn2 
	BYTE	W12
	BYTE		        Dn3 
	BYTE	W12
	BYTE		N44     En3 
	BYTE	W48
	BYTE		N11     Cn3 
	BYTE	W04
	BYTE	PEND
// 003   ----------------------------------------
	BYTE	W08
	BYTE		        Ds2 
	BYTE	W12
	BYTE		        As2 
	BYTE	W12
	BYTE		N10     Ds3 
	BYTE	W12
	BYTE		N32     Fn3 
	BYTE	W36
	BYTE		N21     Fs3 
	BYTE	W16
// 004   ----------------------------------------
	BYTE	W08
	BYTE		N11     Gn2 
	BYTE	W12
	BYTE		        Dn3 
	BYTE	W12
	BYTE		N10     An3 
	BYTE	W12
	BYTE		N56     As3 
	BYTE	W52
// 005   ----------------------------------------
	BYTE	PATT
	 POIN2	CastlevaniaOrderofEcclesiaSapphireElegyPsyche_8_001
// 006   ----------------------------------------
	BYTE	PATT
	 POIN2	CastlevaniaOrderofEcclesiaSapphireElegyPsyche_8_002
// 007   ----------------------------------------
	BYTE	W08
	BYTE		N11     Ds2   v100
	BYTE	W12
	BYTE		N05     As2 
	BYTE	W06
	BYTE		N28     Ds3 
	BYTE	W30
	BYTE		N11     Fn2 
	BYTE	W12
	BYTE		N05     Cn3 
	BYTE	W06
	BYTE		N17     Fn3 
	BYTE	W18
	BYTE		N11     Fn2 
	BYTE	W04
// 008   ----------------------------------------
	BYTE	W96
// 009   ----------------------------------------
	BYTE	W96
// 010   ----------------------------------------
	BYTE	W96
// 011   ----------------------------------------
	BYTE	W08
	BYTE		        Gn2 
	BYTE	W12
	BYTE		N05     Dn3 
	BYTE	W06
	BYTE		N11     Gn3 
	BYTE	W12
	BYTE		        An3 
	BYTE	W12
	BYTE		N23     As3 
	BYTE	W24
	BYTE		N17     An3 
	BYTE	W18
	BYTE		N11     Gn3 
	BYTE	W04
// 012   ----------------------------------------
	BYTE	W08
	BYTE		N10     Fn2 
	BYTE	W12
	BYTE		N05     Cn3 
	BYTE	W06
	BYTE		N11     Fn3 
	BYTE	W12
	BYTE		N10     Gn3 
	BYTE	W12
	BYTE		N23     An3 
	BYTE	W24
	BYTE		N16     Gn3 
	BYTE	W18
	BYTE		N11     Dn3 
	BYTE	W04
// 013   ----------------------------------------
	BYTE	W08
	BYTE		        Cn3 
	BYTE	W12
	BYTE		N05     Gn3 
	BYTE	W06
	BYTE		N11     Cn4 
	BYTE	W12
	BYTE		        Dn4 
	BYTE	W12
	BYTE		N23     En4 
	BYTE	W24
	BYTE		N17     Cn4 
	BYTE	W18
	BYTE		N11     Gn3 
	BYTE	W04
// 014   ----------------------------------------
	BYTE	W08
	BYTE		        Ds3 
	BYTE	W12
	BYTE		N05     As3 
	BYTE	W06
	BYTE		N11     Ds4 
	BYTE	W12
	BYTE		        Gn4 
	BYTE	W12
	BYTE		N05     As3 
	BYTE	W06
	BYTE		N11     Dn3 
	BYTE	W12
	BYTE		N05     An3 
	BYTE	W06
	BYTE		N11     Dn4 
	BYTE	W12
	BYTE		        An4 
	BYTE	W10
// 015   ----------------------------------------
	BYTE	W02
	BYTE		N05     Dn3 
	BYTE	W06
	BYTE		N28     Ds3 
	BYTE	W30
	BYTE		N06     As3 
	BYTE	W06
	BYTE		N05     Dn4 
	BYTE	W06
	BYTE		N11     Ds4 
	BYTE	W12
	BYTE		N16     Fn4 
	BYTE	W18
	BYTE		N11     Gn4 
	BYTE	W12
	BYTE		N10     Ds3 
	BYTE	W04
// 016   ----------------------------------------
	BYTE	W08
	BYTE		N17     Fn3 
	BYTE	W18
	BYTE		        Cn3 
	BYTE	W18
	BYTE		N32     Fn2 
	BYTE	W36
	BYTE		N23     Dn3 
	BYTE	W16
// 017   ----------------------------------------
	BYTE	W96
// 018   ----------------------------------------
	BYTE	W96
// 019   ----------------------------------------
	BYTE	W92
	BYTE	W03
	BYTE	GoTo
	 POIN2	CastlevaniaOrderofEcclesiaSapphireElegyPsyche_8_B1
CastlevaniaOrderofEcclesiaSapphireElegyPsyche_8_B2:
	BYTE	FINE

//**************** Track 9 (Midi-Chn.9) ****************//

CastlevaniaOrderofEcclesiaSapphireElegyPsyche_9:
	BYTE	KEYSH   CastlevaniaOrderofEcclesiaSapphireElegyPsyche_key+0
CastlevaniaOrderofEcclesiaSapphireElegyPsyche_9_B1:
// 000   ----------------------------------------
	BYTE		VOICE   89
	BYTE		VOL     80*CastlevaniaOrderofEcclesiaSapphireElegyPsyche_mvl/mxv
	BYTE		PAN     c_v+0
	BYTE		N92     Gn1   v120
	BYTE	W96
// 001   ----------------------------------------
	BYTE		        Fn1 
	BYTE	W96
// 002   ----------------------------------------
	BYTE		        Cn2 
	BYTE	W96
// 003   ----------------------------------------
	BYTE		N32     Ds1 
	BYTE	W36
	BYTE		        Fn1 
	BYTE	W36
	BYTE		N23     Fs1 
	BYTE	W24
// 004   ----------------------------------------
	BYTE		N92     Gn1 
	BYTE	W96
// 005   ----------------------------------------
	BYTE		        Fn1 
	BYTE	W96
// 006   ----------------------------------------
	BYTE		        Cn1 
	BYTE	W96
// 007   ----------------------------------------
	BYTE		N44     Ds1 
	BYTE	W48
	BYTE		        Fn1 
	BYTE	W48
// 008   ----------------------------------------
	BYTE		TIE     Gn1 
	BYTE	W96
// 009   ----------------------------------------
	BYTE	W44
	BYTE	W03
	BYTE		EOT   
	BYTE	W48
	BYTE	W01
// 010   ----------------------------------------
	BYTE	W96
// 011   ----------------------------------------
	BYTE		N92   
	BYTE	W96
// 012   ----------------------------------------
	BYTE		        Fn1 
	BYTE	W96
// 013   ----------------------------------------
	BYTE		        Cn1 
	BYTE	W96
// 014   ----------------------------------------
	BYTE		N44     Ds1 
	BYTE	W48
	BYTE		        Dn1 
	BYTE	W48
// 015   ----------------------------------------
	BYTE		N92     Ds1 
	BYTE	W96
// 016   ----------------------------------------
	BYTE		N68     Fn1 
	BYTE	W72
	BYTE		N23     Dn1 
	BYTE	W24
// 017   ----------------------------------------
	BYTE		N92     Gn1 
	BYTE	W96
// 018   ----------------------------------------
	BYTE	W96
// 019   ----------------------------------------
	BYTE	W92
	BYTE	W03
	BYTE	GoTo
	 POIN2	CastlevaniaOrderofEcclesiaSapphireElegyPsyche_9_B1
CastlevaniaOrderofEcclesiaSapphireElegyPsyche_9_B2:
	BYTE	FINE

//**************** Track 10 (Midi-Chn.10) ****************//

CastlevaniaOrderofEcclesiaSapphireElegyPsyche_10:
	BYTE	KEYSH   CastlevaniaOrderofEcclesiaSapphireElegyPsyche_key+0
CastlevaniaOrderofEcclesiaSapphireElegyPsyche_10_B1:
// 000   ----------------------------------------
	BYTE		VOICE   40
	BYTE		VOL     75*CastlevaniaOrderofEcclesiaSapphireElegyPsyche_mvl/mxv
	BYTE		PAN     c_v+0
	BYTE		N01     Cs4   v092
	BYTE	W01
	BYTE		N04     Dn4 
	BYTE	W05
	BYTE		N11     Cn4 
	BYTE	W12
	BYTE		N05     As3 
	BYTE	W06
	BYTE		N32     Gn3 
	BYTE	W36
	BYTE		N11     Gn3   v048
	BYTE	W12
	BYTE		N01     Cs4   v092
	BYTE	W01
	BYTE		N04     Dn4 
	BYTE	W05
	BYTE		N05     Cn4 
	BYTE	W06
	BYTE		        As3 
	BYTE	W06
	BYTE		        Gn3 
	BYTE	W06
// 001   ----------------------------------------
	BYTE		N01     Cs4 
	BYTE	W01
	BYTE		N04     Dn4 
	BYTE	W05
	BYTE		N11     Cn4 
	BYTE	W12
	BYTE		N05     As3 
	BYTE	W06
	BYTE		N32     Gn3 
	BYTE	W36
	BYTE		N11     Gn3   v048
	BYTE	W12
	BYTE		N05     Dn4   v092
	BYTE	W06
	BYTE		        Gn3 
	BYTE	W06
	BYTE		        Dn4 
	BYTE	W06
	BYTE		        Gn4 
	BYTE	W06
// 002   ----------------------------------------
	BYTE		N01     Cs4 
	BYTE	W01
	BYTE		N04     Dn4 
	BYTE	W05
	BYTE		N11     Cn4 
	BYTE	W12
	BYTE		N05     As3 
	BYTE	W06
	BYTE		N28     Gn3 
	BYTE	W30
	BYTE		N10     Gn3   v048
	BYTE	W12
	BYTE		N05     Cn3   v092
	BYTE	W06
	BYTE		N01     Fs3 
	BYTE	W01
	BYTE		N04     Gn3 
	BYTE	W05
	BYTE		N05     An3 
	BYTE	W06
	BYTE		        As3 
	BYTE	W06
	BYTE		        Gn3 
	BYTE	W06
// 003   ----------------------------------------
	BYTE		        Dn4 
	BYTE	W06
	BYTE		N11     Cn4 
	BYTE	W12
	BYTE		N05     As3 
	BYTE	W06
	BYTE		        Gn3 
	BYTE	W06
	BYTE		        Gn3   v048
	BYTE	W06
	BYTE		N16     An3   v092
	BYTE	W18
	BYTE		N05     Cn3 
	BYTE	W06
	BYTE		        Fn3 
	BYTE	W06
	BYTE		N11     Gn3 
	BYTE	W12
	BYTE		N05     An3 
	BYTE	W06
	BYTE		        Dn4 
	BYTE	W06
	BYTE		        An4 
	BYTE	W06
// 004   ----------------------------------------
	BYTE		N01     Cs4 
	BYTE	W01
	BYTE		N04     Dn4 
	BYTE	W05
	BYTE		N11     Cn4 
	BYTE	W12
	BYTE		N05     As3 
	BYTE	W06
	BYTE		N32     Gn3 
	BYTE	W36
	BYTE		N10     Gn3   v048
	BYTE	W12
	BYTE		N01     Cs4   v092
	BYTE	W01
	BYTE		N04     Dn4 
	BYTE	W05
	BYTE		N05     Cn4 
	BYTE	W06
	BYTE		        As3 
	BYTE	W06
	BYTE		        Gn3 
	BYTE	W06
// 005   ----------------------------------------
	BYTE		N01     Cs4 
	BYTE	W01
	BYTE		N04     Dn4 
	BYTE	W05
	BYTE		N11     Cn4 
	BYTE	W12
	BYTE		N05     As3 
	BYTE	W06
	BYTE		N32     Gn3 
	BYTE	W36
	BYTE		N10     Gn3   v048
	BYTE	W12
	BYTE		N05     Dn4   v092
	BYTE	W06
	BYTE		        Gn3 
	BYTE	W06
	BYTE		        Dn4 
	BYTE	W06
	BYTE		        Gn4 
	BYTE	W06
// 006   ----------------------------------------
	BYTE		N01     Cs4 
	BYTE	W01
	BYTE		N04     Dn4 
	BYTE	W05
	BYTE		N11     Cn4 
	BYTE	W12
	BYTE		N05     As3 
	BYTE	W06
	BYTE		N32     Gn3 
	BYTE	W36
	BYTE		N10     Gn3   v048
	BYTE	W12
	BYTE		N01     Fs3   v092
	BYTE	W01
	BYTE		N04     Gn3 
	BYTE	W05
	BYTE		N05     An3 
	BYTE	W06
	BYTE		        As3 
	BYTE	W06
	BYTE		        Gn3 
	BYTE	W06
// 007   ----------------------------------------
	BYTE		N19     Ds3 
	BYTE		N19     Gn3 
	BYTE	W21
	BYTE		N07     Ds3   v048
	BYTE		N07     Gn3 
	BYTE	W09
	BYTE		N05     Cn3   v092
	BYTE	W06
	BYTE		N04     Ds3 
	BYTE		N05     Gn3 
	BYTE	W06
	BYTE		N19     Fn3 
	BYTE		N19     An3 
	BYTE	W21
	BYTE		N07     Fn3   v048
	BYTE		N07     An3 
	BYTE	W09
	BYTE		N05     Cn3   v092
	BYTE	W06
	BYTE		        Fn3 
	BYTE	W06
	BYTE		        Gn3 
	BYTE	W06
	BYTE		        An3 
	BYTE	W06
// 008   ----------------------------------------
	BYTE		N80     As3 
	BYTE	W84
	BYTE		N32     As3   v060
	BYTE	W12
// 009   ----------------------------------------
	BYTE	W96
// 010   ----------------------------------------
	BYTE	W96
// 011   ----------------------------------------
	BYTE		N17     Dn4   v092
	BYTE	W18
	BYTE		        Gn4 
	BYTE	W18
	BYTE		N11     Dn4 
	BYTE	W12
	BYTE		N28     An4 
	BYTE	W30
	BYTE		N05     Dn4 
	BYTE	W06
	BYTE		        Gn4 
	BYTE	W06
	BYTE		        Dn4 
	BYTE	W06
// 012   ----------------------------------------
	BYTE		N17     Cn4 
	BYTE	W18
	BYTE		        Dn4 
	BYTE	W18
	BYTE		N10     Gn4 
	BYTE	W12
	BYTE		N17     Fn4 
	BYTE	W18
	BYTE		N15     As4 
	BYTE	W18
	BYTE		N11     Cn5 
	BYTE	W12
// 013   ----------------------------------------
	BYTE		N17     Dn5 
	BYTE	W18
	BYTE		N15     Cn5 
	BYTE	W18
	BYTE		N32     Gn4 
	BYTE	W36
	BYTE		N05     Gn4   v048
	BYTE	W06
	BYTE		        Cn4   v092
	BYTE	W06
	BYTE		        Gn4 
	BYTE	W06
	BYTE		        An4 
	BYTE	W06
// 014   ----------------------------------------
	BYTE		N17     As4 
	BYTE	W18
	BYTE		        An4 
	BYTE	W18
	BYTE		N32     Gn4 
	BYTE	W36
	BYTE		N23     Fs4 
	BYTE	W24
// 015   ----------------------------------------
	BYTE		N17     Dn4 
	BYTE	W18
	BYTE		N21     Gn3 
	BYTE	W24
	BYTE		N11   
	BYTE	W12
	BYTE		N17     Dn4 
	BYTE	W18
	BYTE		N23     Cn4 
	BYTE	W24
// 016   ----------------------------------------
	BYTE		N28     Gn3 
	BYTE		N28     Cn4 
	BYTE	W30
	BYTE		N05     An3 
	BYTE	W06
	BYTE		        Gn3 
	BYTE	W06
	BYTE		N16     Fn3 
	BYTE	W18
	BYTE		N10     Fn3   v048
	BYTE	W12
	BYTE		N17     Cn4   v092
	BYTE		N17     Fn4 
	BYTE	W18
	BYTE		N05     Cn4   v048
	BYTE		N05     Fn4 
	BYTE	W06
// 017   ----------------------------------------
	BYTE		N96     Gn3   v092
	BYTE	W96
// 018   ----------------------------------------
	BYTE	W96
// 019   ----------------------------------------
	BYTE	W92
	BYTE	W03
	BYTE	GoTo
	 POIN2	CastlevaniaOrderofEcclesiaSapphireElegyPsyche_10_B1
CastlevaniaOrderofEcclesiaSapphireElegyPsyche_10_B2:
	BYTE	FINE

//**************** Track 11 (Midi-Chn.11) ****************//

CastlevaniaOrderofEcclesiaSapphireElegyPsyche_11:
	BYTE	KEYSH   CastlevaniaOrderofEcclesiaSapphireElegyPsyche_key+0
CastlevaniaOrderofEcclesiaSapphireElegyPsyche_11_B1:
// 000   ----------------------------------------
	BYTE		VOICE   40
	BYTE		VOL     39*CastlevaniaOrderofEcclesiaSapphireElegyPsyche_mvl/mxv
	BYTE		PAN     c_v+40
	BYTE		BEND    c_v-2
	BYTE	W08
	BYTE		N01     Cs4   v092
	BYTE	W01
	BYTE		N04     Dn4 
	BYTE	W05
	BYTE		N11     Cn4 
	BYTE	W12
	BYTE		N05     As3 
	BYTE	W06
	BYTE		N32     Gn3 
	BYTE	W36
	BYTE		N11     Gn3   v048
	BYTE	W12
	BYTE		N01     Cs4   v092
	BYTE	W01
	BYTE		N04     Dn4 
	BYTE	W05
	BYTE		N05     Cn4 
	BYTE	W06
	BYTE		        As3 
	BYTE	W04
// 001   ----------------------------------------
	BYTE	W02
	BYTE		        Gn3 
	BYTE	W06
	BYTE		N01     Cs4 
	BYTE	W01
	BYTE		N04     Dn4 
	BYTE	W05
	BYTE		N11     Cn4 
	BYTE	W12
	BYTE		N05     As3 
	BYTE	W06
	BYTE		N32     Gn3 
	BYTE	W36
	BYTE		N11     Gn3   v048
	BYTE	W12
	BYTE		N05     Dn4   v092
	BYTE	W06
	BYTE		        Gn3 
	BYTE	W06
	BYTE		        Dn4 
	BYTE	W04
// 002   ----------------------------------------
	BYTE	W02
	BYTE		        Gn4 
	BYTE	W06
	BYTE		N01     Cs4 
	BYTE	W01
	BYTE		N04     Dn4 
	BYTE	W05
	BYTE		N11     Cn4 
	BYTE	W12
	BYTE		N05     As3 
	BYTE	W06
	BYTE		N28     Gn3 
	BYTE	W30
	BYTE		N10     Gn3   v048
	BYTE	W12
	BYTE		N05     Cn3   v092
	BYTE	W06
	BYTE		N01     Fs3 
	BYTE	W01
	BYTE		N04     Gn3 
	BYTE	W05
	BYTE		N05     An3 
	BYTE	W06
	BYTE		        As3 
	BYTE	W04
// 003   ----------------------------------------
	BYTE	W02
	BYTE		        Gn3 
	BYTE	W06
	BYTE		        Dn4 
	BYTE	W06
	BYTE		N11     Cn4 
	BYTE	W12
	BYTE		N05     As3 
	BYTE	W06
	BYTE		        Gn3 
	BYTE	W06
	BYTE		        Gn3   v048
	BYTE	W06
	BYTE		N16     An3   v092
	BYTE	W18
	BYTE		N05     Cn3 
	BYTE	W06
	BYTE		        Fn3 
	BYTE	W06
	BYTE		N11     Gn3 
	BYTE	W12
	BYTE		N05     An3 
	BYTE	W06
	BYTE		        Dn4 
	BYTE	W04
// 004   ----------------------------------------
	BYTE	W02
	BYTE		        An4 
	BYTE	W06
	BYTE		N01     Cs4 
	BYTE	W01
	BYTE		N04     Dn4 
	BYTE	W05
	BYTE		N11     Cn4 
	BYTE	W12
	BYTE		N05     As3 
	BYTE	W06
	BYTE		N32     Gn3 
	BYTE	W36
	BYTE		N10     Gn3   v048
	BYTE	W12
	BYTE		N01     Cs4   v092
	BYTE	W01
	BYTE		N04     Dn4 
	BYTE	W05
	BYTE		N05     Cn4 
	BYTE	W06
	BYTE		        As3 
	BYTE	W04
// 005   ----------------------------------------
	BYTE	W02
	BYTE		        Gn3 
	BYTE	W06
	BYTE		N01     Cs4 
	BYTE	W01
	BYTE		N04     Dn4 
	BYTE	W05
	BYTE		N11     Cn4 
	BYTE	W12
	BYTE		N05     As3 
	BYTE	W06
	BYTE		N32     Gn3 
	BYTE	W36
	BYTE		N10     Gn3   v048
	BYTE	W12
	BYTE		N05     Dn4   v092
	BYTE	W06
	BYTE		        Gn3 
	BYTE	W06
	BYTE		        Dn4 
	BYTE	W04
// 006   ----------------------------------------
	BYTE	W02
	BYTE		        Gn4 
	BYTE	W06
	BYTE		N01     Cs4 
	BYTE	W01
	BYTE		N04     Dn4 
	BYTE	W05
	BYTE		N11     Cn4 
	BYTE	W12
	BYTE		N05     As3 
	BYTE	W06
	BYTE		N32     Gn3 
	BYTE	W36
	BYTE		N10     Gn3   v048
	BYTE	W12
	BYTE		N01     Fs3   v092
	BYTE	W01
	BYTE		N04     Gn3 
	BYTE	W05
	BYTE		N05     An3 
	BYTE	W06
	BYTE		        As3 
	BYTE	W04
// 007   ----------------------------------------
	BYTE	W02
	BYTE		        Gn3 
	BYTE	W06
	BYTE		N19     Ds3 
	BYTE		N19     Gn3 
	BYTE	W21
	BYTE		N07     Ds3   v048
	BYTE		N07     Gn3 
	BYTE	W09
	BYTE		N05     Cn3   v092
	BYTE	W06
	BYTE		N04     Ds3 
	BYTE		N05     Gn3 
	BYTE	W06
	BYTE		N19     Fn3 
	BYTE		N19     An3 
	BYTE	W21
	BYTE		N07     Fn3   v048
	BYTE		N07     An3 
	BYTE	W09
	BYTE		N05     Cn3   v092
	BYTE	W06
	BYTE		        Fn3 
	BYTE	W06
	BYTE		        Gn3 
	BYTE	W04
// 008   ----------------------------------------
	BYTE	W02
	BYTE		        An3 
	BYTE	W06
	BYTE		N80     As3 
	BYTE	W84
	BYTE		N32     As3   v060
	BYTE	W04
// 009   ----------------------------------------
	BYTE	W96
// 010   ----------------------------------------
	BYTE	W96
// 011   ----------------------------------------
	BYTE	W08
	BYTE		N17     Dn4   v092
	BYTE	W18
	BYTE		        Gn4 
	BYTE	W18
	BYTE		N11     Dn4 
	BYTE	W12
	BYTE		N28     An4 
	BYTE	W30
	BYTE		N05     Dn4 
	BYTE	W06
	BYTE		        Gn4 
	BYTE	W04
// 012   ----------------------------------------
	BYTE	W02
	BYTE		        Dn4 
	BYTE	W06
	BYTE		N17     Cn4 
	BYTE	W18
	BYTE		        Dn4 
	BYTE	W18
	BYTE		N10     Gn4 
	BYTE	W12
	BYTE		N17     Fn4 
	BYTE	W18
	BYTE		N15     As4 
	BYTE	W18
	BYTE		N11     Cn5 
	BYTE	W04
// 013   ----------------------------------------
	BYTE	W08
	BYTE		N17     Dn5 
	BYTE	W18
	BYTE		N15     Cn5 
	BYTE	W18
	BYTE		N32     Gn4 
	BYTE	W36
	BYTE		N05     Gn4   v048
	BYTE	W06
	BYTE		        Cn4   v092
	BYTE	W06
	BYTE		        Gn4 
	BYTE	W04
// 014   ----------------------------------------
	BYTE	W02
	BYTE		        An4 
	BYTE	W06
	BYTE		N17     As4 
	BYTE	W18
	BYTE		        An4 
	BYTE	W18
	BYTE		N32     Gn4 
	BYTE	W36
	BYTE		N23     Fs4 
	BYTE	W16
// 015   ----------------------------------------
	BYTE	W08
	BYTE		N17     Dn4 
	BYTE	W18
	BYTE		N21     Gn3 
	BYTE	W24
	BYTE		N11   
	BYTE	W12
	BYTE		N17     Dn4 
	BYTE	W18
	BYTE		N23     Cn4 
	BYTE	W16
// 016   ----------------------------------------
	BYTE	W08
	BYTE		N28     Gn3 
	BYTE		N28     Cn4 
	BYTE	W30
	BYTE		N05     An3 
	BYTE	W06
	BYTE		        Gn3 
	BYTE	W06
	BYTE		N16     Fn3 
	BYTE	W18
	BYTE		N10     Fn3   v048
	BYTE	W12
	BYTE		N17     Cn4   v092
	BYTE		N17     Fn4 
	BYTE	W16
// 017   ----------------------------------------
	BYTE	W02
	BYTE		N05     Cn4   v048
	BYTE		N05     Fn4 
	BYTE	W06
	BYTE		N96     Gn3   v092
	BYTE	W88
// 018   ----------------------------------------
	BYTE	W96
// 019   ----------------------------------------
	BYTE	W92
	BYTE	W03
	BYTE	GoTo
	 POIN2	CastlevaniaOrderofEcclesiaSapphireElegyPsyche_11_B1
CastlevaniaOrderofEcclesiaSapphireElegyPsyche_11_B2:
	BYTE	FINE

//******************************************************//
	ALIGN 4

CastlevaniaOrderofEcclesiaSapphireElegyPsyche:
	BYTE	11	// NumTrks
	BYTE	0	// NumBlks
	BYTE	CastlevaniaOrderofEcclesiaSapphireElegyPsyche_pri	// Priority
	BYTE	CastlevaniaOrderofEcclesiaSapphireElegyPsyche_rev	// Reverb.

	POIN2	CastlevaniaOrderofEcclesiaSapphireElegyPsyche_grp

	POIN2	CastlevaniaOrderofEcclesiaSapphireElegyPsyche_1
	POIN2	CastlevaniaOrderofEcclesiaSapphireElegyPsyche_2
	POIN2	CastlevaniaOrderofEcclesiaSapphireElegyPsyche_3
	POIN2	CastlevaniaOrderofEcclesiaSapphireElegyPsyche_4
	POIN2	CastlevaniaOrderofEcclesiaSapphireElegyPsyche_5
	POIN2	CastlevaniaOrderofEcclesiaSapphireElegyPsyche_6
	POIN2	CastlevaniaOrderofEcclesiaSapphireElegyPsyche_7
	POIN2	CastlevaniaOrderofEcclesiaSapphireElegyPsyche_8
	POIN2	CastlevaniaOrderofEcclesiaSapphireElegyPsyche_9
	POIN2	CastlevaniaOrderofEcclesiaSapphireElegyPsyche_10
	POIN2	CastlevaniaOrderofEcclesiaSapphireElegyPsyche_11

	
