//Event file generated from Sappy .s format.
	#include "MPlayDef.event"

	#define	CastlevaniaCircleoftheMoonBigBattleRandomWizard_grp  voicegroup000
	#define	CastlevaniaCircleoftheMoonBigBattleRandomWizard_pri  0
	#define	CastlevaniaCircleoftheMoonBigBattleRandomWizard_rev  0
	#define	CastlevaniaCircleoftheMoonBigBattleRandomWizard_mvl  127
	#define	CastlevaniaCircleoftheMoonBigBattleRandomWizard_key  0
	#define	CastlevaniaCircleoftheMoonBigBattleRandomWizard_tbs  1
	#define	CastlevaniaCircleoftheMoonBigBattleRandomWizard_exg  0
	#define	CastlevaniaCircleoftheMoonBigBattleRandomWizard_cmp  1

	// .rodata
	//	CastlevaniaCircleoftheMoonBigBattleRandomWizard
	ALIGN 4


//**************** Track 1 (Midi-Chn.0) ****************//

CastlevaniaCircleoftheMoonBigBattleRandomWizard_001:
// 000   ----------------------------------------
 BYTE   KEYSH   CastlevaniaCircleoftheMoonBigBattleRandomWizard_key+0
 BYTE   TEMPO   130*CastlevaniaCircleoftheMoonBigBattleRandomWizard_tbs/2
 BYTE   VOICE   19
 BYTE   PAN   c_v+5
 BYTE   VOL   28*CastlevaniaCircleoftheMoonBigBattleRandomWizard_mvl/mxv
 BYTE   N06  Ds3  v127
 BYTE   W06
 BYTE   Gs3
 BYTE   W06
 BYTE   Bn3
 BYTE   W06
 BYTE   Ds4
 BYTE   W06
 BYTE   Bn3
 BYTE   W06
 BYTE   Gs3
 BYTE   W06
 BYTE   Ds3
 BYTE   W06
 BYTE   Ds4
 BYTE   W06
 BYTE   Bn3
 BYTE   W06
 BYTE   Gs3
 BYTE   W06
 BYTE   Ds3
 BYTE   W06
 BYTE   Ds4
 BYTE   W06
 BYTE   Fn3
 BYTE   W06
 BYTE   Gs3
 BYTE   W06
 BYTE   Bn3
 BYTE   W06
 BYTE   Fn4
 BYTE   W06
// 001   ----------------------------------------
Label_0_015D9DCC:
 BYTE   N06  Dn4  v127
 BYTE   W06
 BYTE   Bn3
 BYTE   W06
 BYTE   Gs3
 BYTE   W06
 BYTE   Fn4
 BYTE   W06
 BYTE   Dn4
 BYTE   W06
 BYTE   Bn3
 BYTE   W06
 BYTE   Gs3
 BYTE   W06
 BYTE   Fn4
 BYTE   W06
 BYTE   En3
 BYTE   W06
 BYTE   Gn3
 BYTE   W06
 BYTE   Cs4
 BYTE   W06
 BYTE   En4
 BYTE   W06
 BYTE   Cs4
 BYTE   W06
 BYTE   As3
 BYTE   W06
 BYTE   Gn3
 BYTE   W06
 BYTE   En4
 BYTE   W06
 BYTE   PEND 
// 002   ----------------------------------------
Label_0_015D9DEF:
 BYTE   N06  Cs4  v127
 BYTE   W06
 BYTE   As3
 BYTE   W06
 BYTE   Gn3
 BYTE   W06
 BYTE   En4
 BYTE   W06
 BYTE   As3
 BYTE   W06
 BYTE   Cs4
 BYTE   W06
 BYTE   En4
 BYTE   W06
 BYTE   Gn4
 BYTE   W06
 BYTE   Cs4
 BYTE   W06
 BYTE   En4
 BYTE   W06
 BYTE   Gn4
 BYTE   W06
 BYTE   Cs5
 BYTE   W06
 BYTE   Bn4
 BYTE   W06
 BYTE   As4
 BYTE   W06
 BYTE   Gs4
 BYTE   W06
 BYTE   Gn4
 BYTE   W06
 BYTE   PEND 
// 003   ----------------------------------------
Label_0_015D9E12:
 BYTE   N06  Ds4  v127
 BYTE   W06
 BYTE   Gs4
 BYTE   W06
 BYTE   Bn4
 BYTE   W06
 BYTE   Ds5
 BYTE   W06
 BYTE   Bn4
 BYTE   W06
 BYTE   Gs4
 BYTE   W06
 BYTE   Ds4
 BYTE   W06
 BYTE   Ds5
 BYTE   W06
 BYTE   Bn4
 BYTE   W06
 BYTE   Gs4
 BYTE   W06
 BYTE   Ds4
 BYTE   W06
 BYTE   Ds5
 BYTE   W06
 BYTE   Fn4
 BYTE   W06
 BYTE   Gs4
 BYTE   W06
 BYTE   Bn4
 BYTE   W06
 BYTE   Fn5
 BYTE   W06
 BYTE   PEND 
// 004   ----------------------------------------
Label_0_015D9E35:
 BYTE   N06  Dn5  v127
 BYTE   W06
 BYTE   Bn4
 BYTE   W06
 BYTE   Gs4
 BYTE   W06
 BYTE   Fn5
 BYTE   W06
 BYTE   Dn5
 BYTE   W06
 BYTE   Bn4
 BYTE   W06
 BYTE   Gs4
 BYTE   W06
 BYTE   Fn5
 BYTE   W06
 BYTE   En4
 BYTE   W06
 BYTE   Gn4
 BYTE   W06
 BYTE   Cs5
 BYTE   W06
 BYTE   En5
 BYTE   W06
 BYTE   Cs5
 BYTE   W06
 BYTE   As4
 BYTE   W06
 BYTE   Gn4
 BYTE   W06
 BYTE   En5
 BYTE   W06
 BYTE   PEND 
// 005   ----------------------------------------
Label_0_015D9E58:
 BYTE   N06  Cs5  v127
 BYTE   W06
 BYTE   As4
 BYTE   W06
 BYTE   Gn4
 BYTE   W06
 BYTE   En5
 BYTE   W06
 BYTE   Ds4
 BYTE   W06
 BYTE   Gs4
 BYTE   W06
 BYTE   Bn4
 BYTE   W06
 BYTE   Ds5
 BYTE   W06
 BYTE   Bn4
 BYTE   W06
 BYTE   Gs4
 BYTE   W06
 BYTE   Ds4
 BYTE   W06
 BYTE   Ds5
 BYTE   W06
 BYTE   Bn4
 BYTE   W06
 BYTE   Gs4
 BYTE   W06
 BYTE   Ds4
 BYTE   W06
 BYTE   Ds5
 BYTE   W06
 BYTE   PEND 
 BYTE   PATT
  POIN2 Label_0_015D9E12
 BYTE   PATT
  POIN2 Label_0_015D9E35
 BYTE   PATT
  POIN2 Label_0_015D9E58
// 006   ----------------------------------------
 BYTE   N06  Gs3  v127
 BYTE   W06
 BYTE   Ds3
 BYTE   W06
 BYTE   Gs3
 BYTE   W06
 BYTE   Ds3
 BYTE   W06
 BYTE   Gs3
 BYTE   W06
 BYTE   Ds3
 BYTE   W06
 BYTE   Gs3
 BYTE   W06
 BYTE   Ds4
 BYTE   W06
 BYTE   Cs4
 BYTE   W06
 BYTE   Bn3
 BYTE   W06
 BYTE   As3
 BYTE   W06
 BYTE   Gs3
 BYTE   W06
 BYTE   As3
 BYTE   W06
 BYTE   En3
 BYTE   W06
 BYTE   As3
 BYTE   W06
 BYTE   En3
 BYTE   W06
// 007   ----------------------------------------
 BYTE   As3
 BYTE   W06
 BYTE   En3
 BYTE   W06
 BYTE   As3
 BYTE   W06
 BYTE   En4
 BYTE   W06
 BYTE   Ds4
 BYTE   W06
 BYTE   Cs4
 BYTE   W06
 BYTE   Bn3
 BYTE   W06
 BYTE   As3
 BYTE   W06
 BYTE   Cn4
 BYTE   W06
 BYTE   Fs3
 BYTE   W06
 BYTE   Cn4
 BYTE   W06
 BYTE   Fs3
 BYTE   W06
 BYTE   Cn4
 BYTE   W06
 BYTE   Fs3
 BYTE   W06
 BYTE   Cn4
 BYTE   W06
 BYTE   Fs4
 BYTE   W06
// 008   ----------------------------------------
 BYTE   En4
 BYTE   W06
 BYTE   Ds4
 BYTE   W06
 BYTE   Cs4
 BYTE   W06
 BYTE   Cn4
 BYTE   W06
 BYTE   Ds4
 BYTE   W06
 BYTE   An3
 BYTE   W06
 BYTE   Cn4
 BYTE   W06
 BYTE   Ds4
 BYTE   W06
 BYTE   Fs4
 BYTE   W06
 BYTE   Cn4
 BYTE   W06
 BYTE   Ds4
 BYTE   W06
 BYTE   Fs4
 BYTE   W06
 BYTE   An4
 BYTE   W06
 BYTE   Ds4
 BYTE   W06
 BYTE   Fs4
 BYTE   W06
 BYTE   An4
 BYTE   W06
// 009   ----------------------------------------
 BYTE   N36  Gs4
 BYTE   W36
 BYTE   N06
 BYTE   W06
 BYTE   Fs4
 BYTE   W06
 BYTE   En4
 BYTE   W06
 BYTE   Fs4
 BYTE   W06
 BYTE   Gs4
 BYTE   W06
 BYTE   As4
 BYTE   W06
 BYTE   N36  Bn4
 BYTE   W24
// 010   ----------------------------------------
 BYTE   W12
 BYTE   N06  Gs4
 BYTE   W06
 BYTE   As4
 BYTE   W06
 BYTE   Bn4
 BYTE   W06
 BYTE   As4
 BYTE   W06
 BYTE   Bn4
 BYTE   W06
 BYTE   Gs4
 BYTE   W12
 BYTE   Gn4
 BYTE   W06
 BYTE   N06
 BYTE   W12
 BYTE   Bn4
 BYTE   W06
 BYTE   N06
 BYTE   W12
 BYTE   As4
 BYTE   W06
// 011   ----------------------------------------
 BYTE   W06
 BYTE   An3
 BYTE   W06
 BYTE   As3
 BYTE   W06
 BYTE   Bn3
 BYTE   W06
 BYTE   Cs4
 BYTE   W06
 BYTE   Ds4
 BYTE   W06
 BYTE   Fn4
 BYTE   W06
 BYTE   Gn4
 BYTE   W06
 BYTE   Gs3
 BYTE   W06
 BYTE   Ds3
 BYTE   W06
 BYTE   Gs3
 BYTE   W06
 BYTE   Ds3
 BYTE   W06
 BYTE   Gs3
 BYTE   W06
 BYTE   Ds3
 BYTE   W06
 BYTE   Gs3
 BYTE   W06
 BYTE   Ds4
 BYTE   W06
// 012   ----------------------------------------
 BYTE   Cs4
 BYTE   W06
 BYTE   Bn3
 BYTE   W06
 BYTE   As3
 BYTE   W06
 BYTE   Gs3
 BYTE   W06
 BYTE   As3
 BYTE   W06
 BYTE   En3
 BYTE   W06
 BYTE   As3
 BYTE   W06
 BYTE   En3
 BYTE   W06
 BYTE   As3
 BYTE   W06
 BYTE   En3
 BYTE   W06
 BYTE   As3
 BYTE   W06
 BYTE   En4
 BYTE   W06
 BYTE   Ds4
 BYTE   W06
 BYTE   Cs4
 BYTE   W06
 BYTE   Bn3
 BYTE   W06
 BYTE   As3
 BYTE   W06
// 013   ----------------------------------------
 BYTE   Cn4
 BYTE   W06
 BYTE   Fs3
 BYTE   W06
 BYTE   Cn4
 BYTE   W06
 BYTE   Fs3
 BYTE   W06
 BYTE   Cn4
 BYTE   W06
 BYTE   Fs3
 BYTE   W06
 BYTE   Cn4
 BYTE   W06
 BYTE   Fs4
 BYTE   W06
 BYTE   En4
 BYTE   W06
 BYTE   Ds4
 BYTE   W06
 BYTE   Cs4
 BYTE   W06
 BYTE   Cn4
 BYTE   W06
 BYTE   Ds4
 BYTE   W06
 BYTE   An3
 BYTE   W06
 BYTE   Cn4
 BYTE   W06
 BYTE   Ds4
 BYTE   W06
// 014   ----------------------------------------
 BYTE   Fs4
 BYTE   W06
 BYTE   Cn4
 BYTE   W06
 BYTE   Ds4
 BYTE   W06
 BYTE   Fs4
 BYTE   W06
 BYTE   An4
 BYTE   W06
 BYTE   Ds4
 BYTE   W06
 BYTE   Fs4
 BYTE   W06
 BYTE   An4
 BYTE   W06
 BYTE   N36  Gs4
 BYTE   W36
 BYTE   N06
 BYTE   W06
 BYTE   Fs4
 BYTE   W06
// 015   ----------------------------------------
 BYTE   En4
 BYTE   W06
 BYTE   Fs4
 BYTE   W06
 BYTE   Gs4
 BYTE   W06
 BYTE   As4
 BYTE   W06
 BYTE   N36  Bn4
 BYTE   W36
 BYTE   N06  Gs4
 BYTE   W06
 BYTE   As4
 BYTE   W06
 BYTE   Bn4
 BYTE   W06
 BYTE   As4
 BYTE   W06
 BYTE   Bn4
 BYTE   W06
 BYTE   Gs4
 BYTE   W06
// 016   ----------------------------------------
 BYTE   W06
 BYTE   Gn4
 BYTE   W06
 BYTE   N06
 BYTE   W12
 BYTE   Bn4
 BYTE   W06
 BYTE   N06
 BYTE   W12
 BYTE   As4
 BYTE   W12
 BYTE   An3
 BYTE   W06
 BYTE   As3
 BYTE   W06
 BYTE   Bn3
 BYTE   W06
 BYTE   Cs4
 BYTE   W06
 BYTE   Ds4
 BYTE   W06
 BYTE   Fn4
 BYTE   W06
 BYTE   Gn4
 BYTE   W06
// 017   ----------------------------------------
 BYTE   Ds3
 BYTE   W06
 BYTE   Gs3
 BYTE   W06
 BYTE   Bn3
 BYTE   W06
 BYTE   Ds4
 BYTE   W06
 BYTE   Bn3
 BYTE   W06
 BYTE   Gs3
 BYTE   W06
 BYTE   Ds3
 BYTE   W06
 BYTE   Ds4
 BYTE   W06
 BYTE   Bn3
 BYTE   W06
 BYTE   Gs3
 BYTE   W06
 BYTE   Ds3
 BYTE   W06
 BYTE   Ds4
 BYTE   W06
 BYTE   Fn3
 BYTE   W06
 BYTE   Gs3
 BYTE   W06
 BYTE   Bn3
 BYTE   W06
 BYTE   Fn4
 BYTE   W06
 BYTE   PATT
  POIN2 Label_0_015D9DCC
 BYTE   PATT
  POIN2 Label_0_015D9DEF
// 018   ----------------------------------------
 BYTE   GoTo
  POIN2 Label_0_015D9E12
 BYTE   PATT
  POIN2 Label_0_015D9E12
 BYTE   PATT
  POIN2 Label_0_015D9E35
 BYTE   FINE

//**************** Track 2 (Midi-Chn.1) ****************//

CastlevaniaCircleoftheMoonBigBattleRandomWizard_002:
// 000   ----------------------------------------
 BYTE   KEYSH   CastlevaniaCircleoftheMoonBigBattleRandomWizard_key+0
 BYTE   VOICE   93
 BYTE   PAN   c_v-59
 BYTE   VOL   40*CastlevaniaCircleoftheMoonBigBattleRandomWizard_mvl/mxv
 BYTE   N60  Ds1  v127
 BYTE   W60
 BYTE   N06
 BYTE   W06
 BYTE   N06
 BYTE   W06
 BYTE   N60
 BYTE   W24
// 001   ----------------------------------------
Label_1_547CC2:
 BYTE   W36
 BYTE   N06  Ds1  v127
 BYTE   W06
 BYTE   N06
 BYTE   W06
 BYTE   N24
 BYTE   W24
 BYTE   N24
 BYTE   W24
 BYTE   PEND 
// 002   ----------------------------------------
Label_1_547CCE:
 BYTE   N24  Ds1  v127
 BYTE   W24
 BYTE   N12
 BYTE   W12
 BYTE   N12
 BYTE   W12
 BYTE   N12
 BYTE   W12
 BYTE   N12
 BYTE   W12
 BYTE   N12
 BYTE   W12
 BYTE   N12
 BYTE   W12
 BYTE   PEND 
// 003   ----------------------------------------
Label_1_547CDF:
 BYTE   TIE  Gs1  v127
 BYTE   W96
// 004   ----------------------------------------
 BYTE   W96
// 005   ----------------------------------------
 BYTE   W72
 BYTE   EOT
 BYTE   N06  Ds1
 BYTE   W06
 BYTE   Fn1
 BYTE   W06
 BYTE   Fs1
 BYTE   W06
 BYTE   Gn1
 BYTE   W06
// 006   ----------------------------------------
 BYTE   TIE  Gs1
 BYTE   W96
// 007   ----------------------------------------
 BYTE   W96
// 008   ----------------------------------------
 BYTE   W72
 BYTE   EOT
 BYTE   N06  Ds1
 BYTE   W06
 BYTE   Fn1
 BYTE   W06
 BYTE   Fs1
 BYTE   W06
 BYTE   Gn1
 BYTE   W06
// 009   ----------------------------------------
 BYTE   TIE  Gs1
 BYTE   W96
// 010   ----------------------------------------
 BYTE   W96
// 011   ----------------------------------------
 BYTE   W96
// 012   ----------------------------------------
 BYTE   EOT
 BYTE   N60
 BYTE   W60
 BYTE   N12  Fs1
 BYTE   W12
 BYTE   N72  Fn1
 BYTE   W24
// 013   ----------------------------------------
 BYTE   W48
 BYTE   N06  Ds1
 BYTE   W06
 BYTE   N06
 BYTE   W06
 BYTE   N12
 BYTE   W12
 BYTE   N06
 BYTE   W06
 BYTE   N12
 BYTE   W12
 BYTE   N06
 BYTE   W06
// 014   ----------------------------------------
 BYTE   N06
 BYTE   W06
 BYTE   An1
 BYTE   W06
 BYTE   As1
 BYTE   W06
 BYTE   Bn1
 BYTE   W06
 BYTE   Cs2
 BYTE   W06
 BYTE   Ds2
 BYTE   W06
 BYTE   Fn2
 BYTE   W06
 BYTE   Gn2
 BYTE   W06
 BYTE   TIE  Gs1
 BYTE   W48
// 015   ----------------------------------------
 BYTE   W96
// 016   ----------------------------------------
 BYTE   W96
// 017   ----------------------------------------
 BYTE   W48
 BYTE   EOT
 BYTE   N60
 BYTE   W48
// 018   ----------------------------------------
 BYTE   W12
 BYTE   N12  Fs1
 BYTE   W12
 BYTE   N72  Fn1
 BYTE   W72
// 019   ----------------------------------------
 BYTE   N06  Ds1
 BYTE   W06
 BYTE   N06
 BYTE   W06
 BYTE   N12
 BYTE   W12
 BYTE   N06
 BYTE   W06
 BYTE   N12
 BYTE   W12
 BYTE   N06
 BYTE   W06
 BYTE   N06
 BYTE   W06
 BYTE   An1
 BYTE   W06
 BYTE   As1
 BYTE   W06
 BYTE   Bn1
 BYTE   W06
 BYTE   Cs2
 BYTE   W06
 BYTE   Ds2
 BYTE   W06
 BYTE   Fn2
 BYTE   W06
 BYTE   Gn2
 BYTE   W06
// 020   ----------------------------------------
 BYTE   N60  Ds1
 BYTE   W60
 BYTE   N06
 BYTE   W06
 BYTE   N06
 BYTE   W06
 BYTE   N60
 BYTE   W24
 BYTE   PATT
  POIN2 Label_1_547CC2
 BYTE   PATT
  POIN2 Label_1_547CCE
// 021   ----------------------------------------
 BYTE   GoTo
  POIN2 Label_1_547CDF
// 022   ----------------------------------------
 BYTE   W96
// 023   ----------------------------------------
 BYTE   W96
 BYTE   FINE

//**************** Track 3 (Midi-Chn.2) ****************//

CastlevaniaCircleoftheMoonBigBattleRandomWizard_003:
// 000   ----------------------------------------
 BYTE   KEYSH   CastlevaniaCircleoftheMoonBigBattleRandomWizard_key+0
 BYTE   VOICE   18
 BYTE   PAN   c_v+5
 BYTE   VOL   23*CastlevaniaCircleoftheMoonBigBattleRandomWizard_mvl/mxv
 BYTE   N06  Ds4  v127
 BYTE   W06
 BYTE   Gs4
 BYTE   W06
 BYTE   Bn4
 BYTE   W06
 BYTE   Ds5
 BYTE   W06
 BYTE   Bn4
 BYTE   W06
 BYTE   Gs4
 BYTE   W06
 BYTE   Ds4
 BYTE   W06
 BYTE   Ds5
 BYTE   W06
 BYTE   Bn4
 BYTE   W06
 BYTE   Gs4
 BYTE   W06
 BYTE   Ds4
 BYTE   W06
 BYTE   Ds5
 BYTE   W06
 BYTE   Fn4
 BYTE   W06
 BYTE   Gs4
 BYTE   W06
 BYTE   Bn4
 BYTE   W06
 BYTE   Fn5
 BYTE   W06
// 001   ----------------------------------------
Label_2_015DA022:
 BYTE   N06  Dn5  v127
 BYTE   W06
 BYTE   Bn4
 BYTE   W06
 BYTE   Gs4
 BYTE   W06
 BYTE   Fn5
 BYTE   W06
 BYTE   Dn5
 BYTE   W06
 BYTE   Bn4
 BYTE   W06
 BYTE   Gs4
 BYTE   W06
 BYTE   Fn5
 BYTE   W06
 BYTE   En4
 BYTE   W06
 BYTE   Gn4
 BYTE   W06
 BYTE   Cs5
 BYTE   W06
 BYTE   En5
 BYTE   W06
 BYTE   Cs5
 BYTE   W06
 BYTE   As4
 BYTE   W06
 BYTE   Gn4
 BYTE   W06
 BYTE   En5
 BYTE   W06
 BYTE   PEND 
// 002   ----------------------------------------
Label_2_015DA045:
 BYTE   N06  Cs5  v127
 BYTE   W06
 BYTE   As4
 BYTE   W06
 BYTE   Gn4
 BYTE   W06
 BYTE   En5
 BYTE   W06
 BYTE   As4
 BYTE   W06
 BYTE   Cs5
 BYTE   W06
 BYTE   En5
 BYTE   W06
 BYTE   Gn5
 BYTE   W06
 BYTE   Cs5
 BYTE   W06
 BYTE   En5
 BYTE   W06
 BYTE   Gn5
 BYTE   W06
 BYTE   Cs6
 BYTE   W06
 BYTE   Bn5
 BYTE   W06
 BYTE   As5
 BYTE   W06
 BYTE   Gs5
 BYTE   W06
 BYTE   Gn5
 BYTE   W06
 BYTE   PEND 
// 003   ----------------------------------------
Label_2_015DA068:
 BYTE   N06  Ds5  v127
 BYTE   W06
 BYTE   Gs5
 BYTE   W06
 BYTE   Bn5
 BYTE   W06
 BYTE   Ds6
 BYTE   W06
 BYTE   Bn5
 BYTE   W06
 BYTE   Gs5
 BYTE   W06
 BYTE   Ds5
 BYTE   W06
 BYTE   Ds6
 BYTE   W06
 BYTE   Bn5
 BYTE   W06
 BYTE   Gs5
 BYTE   W06
 BYTE   Ds5
 BYTE   W06
 BYTE   Ds6
 BYTE   W06
 BYTE   Fn5
 BYTE   W06
 BYTE   Gs5
 BYTE   W06
 BYTE   Bn5
 BYTE   W06
 BYTE   Fn6
 BYTE   W06
 BYTE   PEND 
// 004   ----------------------------------------
Label_2_015DA08B:
 BYTE   N06  Dn6  v127
 BYTE   W06
 BYTE   Bn5
 BYTE   W06
 BYTE   Gs5
 BYTE   W06
 BYTE   Fn6
 BYTE   W06
 BYTE   Dn6
 BYTE   W06
 BYTE   Bn5
 BYTE   W06
 BYTE   Gs5
 BYTE   W06
 BYTE   Fn6
 BYTE   W06
 BYTE   En5
 BYTE   W06
 BYTE   Gn5
 BYTE   W06
 BYTE   Cs6
 BYTE   W06
 BYTE   En6
 BYTE   W06
 BYTE   Cs6
 BYTE   W06
 BYTE   As5
 BYTE   W06
 BYTE   Gn5
 BYTE   W06
 BYTE   En6
 BYTE   W06
 BYTE   PEND 
// 005   ----------------------------------------
Label_2_015DA0AE:
 BYTE   N06  Cs6  v127
 BYTE   W06
 BYTE   As5
 BYTE   W06
 BYTE   Gn5
 BYTE   W06
 BYTE   En6
 BYTE   W06
 BYTE   Ds5
 BYTE   W06
 BYTE   Gs5
 BYTE   W06
 BYTE   Bn5
 BYTE   W06
 BYTE   Ds6
 BYTE   W06
 BYTE   Bn5
 BYTE   W06
 BYTE   Gs5
 BYTE   W06
 BYTE   Ds5
 BYTE   W06
 BYTE   Ds6
 BYTE   W06
 BYTE   Bn5
 BYTE   W06
 BYTE   Gs5
 BYTE   W06
 BYTE   Ds5
 BYTE   W06
 BYTE   Ds6
 BYTE   W06
 BYTE   PEND 
 BYTE   PATT
  POIN2 Label_2_015DA068
 BYTE   PATT
  POIN2 Label_2_015DA08B
 BYTE   PATT
  POIN2 Label_2_015DA0AE
// 006   ----------------------------------------
 BYTE   N06  Gs4  v127
 BYTE   W06
 BYTE   Ds4
 BYTE   W06
 BYTE   Gs4
 BYTE   W06
 BYTE   Ds4
 BYTE   W06
 BYTE   Gs4
 BYTE   W06
 BYTE   Ds4
 BYTE   W06
 BYTE   Gs4
 BYTE   W06
 BYTE   Ds5
 BYTE   W06
 BYTE   Cs5
 BYTE   W06
 BYTE   Bn4
 BYTE   W06
 BYTE   As4
 BYTE   W06
 BYTE   Gs4
 BYTE   W06
 BYTE   As4
 BYTE   W06
 BYTE   En4
 BYTE   W06
 BYTE   As4
 BYTE   W06
 BYTE   En4
 BYTE   W06
// 007   ----------------------------------------
 BYTE   As4
 BYTE   W06
 BYTE   En4
 BYTE   W06
 BYTE   As4
 BYTE   W06
 BYTE   En5
 BYTE   W06
 BYTE   Ds5
 BYTE   W06
 BYTE   Cs5
 BYTE   W06
 BYTE   Bn4
 BYTE   W06
 BYTE   As4
 BYTE   W06
 BYTE   Cn5
 BYTE   W06
 BYTE   Fs4
 BYTE   W06
 BYTE   Cn5
 BYTE   W06
 BYTE   Fs4
 BYTE   W06
 BYTE   Cn5
 BYTE   W06
 BYTE   Fs4
 BYTE   W06
 BYTE   Cn5
 BYTE   W06
 BYTE   Fs5
 BYTE   W06
// 008   ----------------------------------------
 BYTE   En5
 BYTE   W06
 BYTE   Ds5
 BYTE   W06
 BYTE   Cs5
 BYTE   W06
 BYTE   Cn5
 BYTE   W06
 BYTE   Ds5
 BYTE   W06
 BYTE   An4
 BYTE   W06
 BYTE   Cn5
 BYTE   W06
 BYTE   Ds5
 BYTE   W06
 BYTE   Fs5
 BYTE   W06
 BYTE   Cn5
 BYTE   W06
 BYTE   Ds5
 BYTE   W06
 BYTE   Fs5
 BYTE   W06
 BYTE   An5
 BYTE   W06
 BYTE   Ds5
 BYTE   W06
 BYTE   Fs5
 BYTE   W06
 BYTE   An5
 BYTE   W06
// 009   ----------------------------------------
 BYTE   N36  Gs5
 BYTE   W36
 BYTE   N06
 BYTE   W06
 BYTE   Fs5
 BYTE   W06
 BYTE   En5
 BYTE   W06
 BYTE   Fs5
 BYTE   W06
 BYTE   Gs5
 BYTE   W06
 BYTE   As5
 BYTE   W06
 BYTE   N36  Bn5
 BYTE   W24
// 010   ----------------------------------------
 BYTE   W12
 BYTE   N06  Gs5
 BYTE   W06
 BYTE   As5
 BYTE   W06
 BYTE   Bn5
 BYTE   W06
 BYTE   As5
 BYTE   W06
 BYTE   Bn5
 BYTE   W06
 BYTE   Gs5
 BYTE   W12
 BYTE   Gn5
 BYTE   W06
 BYTE   N06
 BYTE   W12
 BYTE   Bn5
 BYTE   W06
 BYTE   N06
 BYTE   W12
 BYTE   As5
 BYTE   W06
// 011   ----------------------------------------
 BYTE   W06
 BYTE   An4
 BYTE   W06
 BYTE   As4
 BYTE   W06
 BYTE   Bn4
 BYTE   W06
 BYTE   Cs5
 BYTE   W06
 BYTE   Ds5
 BYTE   W06
 BYTE   Fn5
 BYTE   W06
 BYTE   Gn5
 BYTE   W06
 BYTE   Gs4
 BYTE   W06
 BYTE   Ds4
 BYTE   W06
 BYTE   Gs4
 BYTE   W06
 BYTE   Ds4
 BYTE   W06
 BYTE   Gs4
 BYTE   W06
 BYTE   Ds4
 BYTE   W06
 BYTE   Gs4
 BYTE   W06
 BYTE   Ds5
 BYTE   W06
// 012   ----------------------------------------
 BYTE   Cs5
 BYTE   W06
 BYTE   Bn4
 BYTE   W06
 BYTE   As4
 BYTE   W06
 BYTE   Gs4
 BYTE   W06
 BYTE   As4
 BYTE   W06
 BYTE   En4
 BYTE   W06
 BYTE   As4
 BYTE   W06
 BYTE   En4
 BYTE   W06
 BYTE   As4
 BYTE   W06
 BYTE   En4
 BYTE   W06
 BYTE   As4
 BYTE   W06
 BYTE   En5
 BYTE   W06
 BYTE   Ds5
 BYTE   W06
 BYTE   Cs5
 BYTE   W06
 BYTE   Bn4
 BYTE   W06
 BYTE   As4
 BYTE   W06
// 013   ----------------------------------------
 BYTE   Cn5
 BYTE   W06
 BYTE   Fs4
 BYTE   W06
 BYTE   Cn5
 BYTE   W06
 BYTE   Fs4
 BYTE   W06
 BYTE   Cn5
 BYTE   W06
 BYTE   Fs4
 BYTE   W06
 BYTE   Cn5
 BYTE   W06
 BYTE   Fs5
 BYTE   W06
 BYTE   En5
 BYTE   W06
 BYTE   Ds5
 BYTE   W06
 BYTE   Cs5
 BYTE   W06
 BYTE   Cn5
 BYTE   W06
 BYTE   Ds5
 BYTE   W06
 BYTE   An4
 BYTE   W06
 BYTE   Cn5
 BYTE   W06
 BYTE   Ds5
 BYTE   W06
// 014   ----------------------------------------
 BYTE   Fs5
 BYTE   W06
 BYTE   Cn5
 BYTE   W06
 BYTE   Ds5
 BYTE   W06
 BYTE   Fs5
 BYTE   W06
 BYTE   An5
 BYTE   W06
 BYTE   Ds5
 BYTE   W06
 BYTE   Fs5
 BYTE   W06
 BYTE   An5
 BYTE   W06
 BYTE   N36  Gs5
 BYTE   W36
 BYTE   N06
 BYTE   W06
 BYTE   Fs5
 BYTE   W06
// 015   ----------------------------------------
 BYTE   En5
 BYTE   W06
 BYTE   Fs5
 BYTE   W06
 BYTE   Gs5
 BYTE   W06
 BYTE   As5
 BYTE   W06
 BYTE   N36  Bn5
 BYTE   W36
 BYTE   N06  Gs5
 BYTE   W06
 BYTE   As5
 BYTE   W06
 BYTE   Bn5
 BYTE   W06
 BYTE   As5
 BYTE   W06
 BYTE   Bn5
 BYTE   W06
 BYTE   Gs5
 BYTE   W06
// 016   ----------------------------------------
 BYTE   W06
 BYTE   Gn5
 BYTE   W06
 BYTE   N06
 BYTE   W12
 BYTE   Bn5
 BYTE   W06
 BYTE   N06
 BYTE   W12
 BYTE   As5
 BYTE   W12
 BYTE   An4
 BYTE   W06
 BYTE   As4
 BYTE   W06
 BYTE   Bn4
 BYTE   W06
 BYTE   Cs5
 BYTE   W06
 BYTE   Ds5
 BYTE   W06
 BYTE   Fn5
 BYTE   W06
 BYTE   Gn5
 BYTE   W06
// 017   ----------------------------------------
 BYTE   Ds4
 BYTE   W06
 BYTE   Gs4
 BYTE   W06
 BYTE   Bn4
 BYTE   W06
 BYTE   Ds5
 BYTE   W06
 BYTE   Bn4
 BYTE   W06
 BYTE   Gs4
 BYTE   W06
 BYTE   Ds4
 BYTE   W06
 BYTE   Ds5
 BYTE   W06
 BYTE   Bn4
 BYTE   W06
 BYTE   Gs4
 BYTE   W06
 BYTE   Ds4
 BYTE   W06
 BYTE   Ds5
 BYTE   W06
 BYTE   Fn4
 BYTE   W06
 BYTE   Gs4
 BYTE   W06
 BYTE   Bn4
 BYTE   W06
 BYTE   Fn5
 BYTE   W06
 BYTE   PATT
  POIN2 Label_2_015DA022
 BYTE   PATT
  POIN2 Label_2_015DA045
// 018   ----------------------------------------
 BYTE   GoTo
  POIN2 Label_2_015DA068
 BYTE   PATT
  POIN2 Label_2_015DA068
 BYTE   PATT
  POIN2 Label_2_015DA08B
 BYTE   FINE

//**************** Track 4 (Midi-Chn.3) ****************//

CastlevaniaCircleoftheMoonBigBattleRandomWizard_004:
// 000   ----------------------------------------
 BYTE   KEYSH   CastlevaniaCircleoftheMoonBigBattleRandomWizard_key+0
 BYTE   VOICE   34
 BYTE   PAN   c_v-59
 BYTE   VOL   29*CastlevaniaCircleoftheMoonBigBattleRandomWizard_mvl/mxv
 BYTE   N60  Ds1  v127
 BYTE   W60
 BYTE   N06
 BYTE   W06
 BYTE   N06
 BYTE   W06
 BYTE   N60
 BYTE   W24
// 001   ----------------------------------------
Label_3_547AEA:
 BYTE   W36
 BYTE   N06  Ds1  v127
 BYTE   W06
 BYTE   N06
 BYTE   W06
 BYTE   N24
 BYTE   W24
 BYTE   N24
 BYTE   W24
 BYTE   PEND 
// 002   ----------------------------------------
Label_3_547AF6:
 BYTE   N24  Ds1  v127
 BYTE   W24
 BYTE   N12
 BYTE   W12
 BYTE   N12
 BYTE   W12
 BYTE   N12
 BYTE   W12
 BYTE   N12
 BYTE   W12
 BYTE   N12
 BYTE   W12
 BYTE   N12
 BYTE   W12
 BYTE   PEND 
// 003   ----------------------------------------
Label_3_547B07:
 BYTE   TIE  Gs1  v127
 BYTE   W96
// 004   ----------------------------------------
 BYTE   W96
// 005   ----------------------------------------
 BYTE   W72
 BYTE   EOT
 BYTE   N06  Ds1
 BYTE   W06
 BYTE   Fn1
 BYTE   W06
 BYTE   Fs1
 BYTE   W06
 BYTE   Gn1
 BYTE   W06
// 006   ----------------------------------------
 BYTE   TIE  Gs1
 BYTE   W96
// 007   ----------------------------------------
 BYTE   W96
// 008   ----------------------------------------
 BYTE   W72
 BYTE   EOT
 BYTE   N06  Ds1
 BYTE   W06
 BYTE   Fn1
 BYTE   W06
 BYTE   Fs1
 BYTE   W06
 BYTE   Gn1
 BYTE   W06
// 009   ----------------------------------------
 BYTE   TIE  Gs1
 BYTE   W96
// 010   ----------------------------------------
 BYTE   W96
// 011   ----------------------------------------
 BYTE   W96
// 012   ----------------------------------------
 BYTE   EOT
 BYTE   N60
 BYTE   W60
 BYTE   N12  Fs1
 BYTE   W12
 BYTE   N72  Fn1
 BYTE   W24
// 013   ----------------------------------------
 BYTE   W48
 BYTE   N06  Ds1
 BYTE   W06
 BYTE   N06
 BYTE   W06
 BYTE   N12
 BYTE   W12
 BYTE   N06
 BYTE   W06
 BYTE   N12
 BYTE   W12
 BYTE   N06
 BYTE   W06
// 014   ----------------------------------------
 BYTE   N06
 BYTE   W06
 BYTE   An1
 BYTE   W06
 BYTE   As1
 BYTE   W06
 BYTE   Bn1
 BYTE   W06
 BYTE   Cs2
 BYTE   W06
 BYTE   Ds2
 BYTE   W06
 BYTE   Fn2
 BYTE   W06
 BYTE   Gn2
 BYTE   W06
 BYTE   TIE  Gs1
 BYTE   W48
// 015   ----------------------------------------
 BYTE   W96
// 016   ----------------------------------------
 BYTE   W96
// 017   ----------------------------------------
 BYTE   W48
 BYTE   EOT
 BYTE   N60
 BYTE   W48
// 018   ----------------------------------------
 BYTE   W12
 BYTE   N12  Fs1
 BYTE   W12
 BYTE   N72  Fn1
 BYTE   W72
// 019   ----------------------------------------
 BYTE   N06  Ds1
 BYTE   W06
 BYTE   N06
 BYTE   W06
 BYTE   N12
 BYTE   W12
 BYTE   N06
 BYTE   W06
 BYTE   N12
 BYTE   W12
 BYTE   N06
 BYTE   W06
 BYTE   N06
 BYTE   W06
 BYTE   An1
 BYTE   W06
 BYTE   As1
 BYTE   W06
 BYTE   Bn1
 BYTE   W06
 BYTE   Cs2
 BYTE   W06
 BYTE   Ds2
 BYTE   W06
 BYTE   Fn2
 BYTE   W06
 BYTE   Gn2
 BYTE   W06
// 020   ----------------------------------------
 BYTE   N60  Ds1
 BYTE   W60
 BYTE   N06
 BYTE   W06
 BYTE   N06
 BYTE   W06
 BYTE   N60
 BYTE   W24
 BYTE   PATT
  POIN2 Label_3_547AEA
 BYTE   PATT
  POIN2 Label_3_547AF6
// 021   ----------------------------------------
 BYTE   GoTo
  POIN2 Label_3_547B07
// 022   ----------------------------------------
 BYTE   W96
// 023   ----------------------------------------
 BYTE   W96
 BYTE   FINE

//**************** Track 5 (Midi-Chn.4) ****************//

CastlevaniaCircleoftheMoonBigBattleRandomWizard_005:
// 000   ----------------------------------------
 BYTE   KEYSH   CastlevaniaCircleoftheMoonBigBattleRandomWizard_key+0
 BYTE   VOICE   7
 BYTE   PAN   c_v-59
 BYTE   VOL   28*CastlevaniaCircleoftheMoonBigBattleRandomWizard_mvl/mxv
 BYTE   N60  Ds1  v127
 BYTE   W60
 BYTE   N06
 BYTE   W06
 BYTE   N06
 BYTE   W06
 BYTE   N60
 BYTE   W24
// 001   ----------------------------------------
Label_4_015DA262:
 BYTE   W36
 BYTE   N06  Ds1  v127
 BYTE   W06
 BYTE   N06
 BYTE   W06
 BYTE   N24
 BYTE   W24
 BYTE   N24
 BYTE   W24
 BYTE   PEND 
// 002   ----------------------------------------
Label_4_015DA26E:
 BYTE   N24  Ds1  v127
 BYTE   W24
 BYTE   N12
 BYTE   W12
 BYTE   N12
 BYTE   W12
 BYTE   N12
 BYTE   W12
 BYTE   N12
 BYTE   W12
 BYTE   N12
 BYTE   W12
 BYTE   N12
 BYTE   W12
 BYTE   PEND 
// 003   ----------------------------------------
Label_4_015DA27F:
 BYTE   TIE  Gs1  v127
 BYTE   W96
// 004   ----------------------------------------
 BYTE   W96
// 005   ----------------------------------------
 BYTE   W72
 BYTE   EOT
 BYTE   N06  Ds1
 BYTE   W06
 BYTE   Fn1
 BYTE   W06
 BYTE   Fs1
 BYTE   W06
 BYTE   Gn1
 BYTE   W06
// 006   ----------------------------------------
 BYTE   TIE  Gs1
 BYTE   W96
// 007   ----------------------------------------
 BYTE   W96
// 008   ----------------------------------------
 BYTE   W72
 BYTE   EOT
 BYTE   N06  Ds1
 BYTE   W06
 BYTE   Fn1
 BYTE   W06
 BYTE   Fs1
 BYTE   W06
 BYTE   Gn1
 BYTE   W06
// 009   ----------------------------------------
 BYTE   TIE  Gs1
 BYTE   W96
// 010   ----------------------------------------
 BYTE   W96
// 011   ----------------------------------------
 BYTE   W96
// 012   ----------------------------------------
 BYTE   EOT
 BYTE   N60
 BYTE   W60
 BYTE   N12  Fs1
 BYTE   W12
 BYTE   N72  Fn1
 BYTE   W24
// 013   ----------------------------------------
 BYTE   W48
 BYTE   N06  Ds1
 BYTE   W06
 BYTE   N06
 BYTE   W06
 BYTE   N12
 BYTE   W12
 BYTE   N06
 BYTE   W06
 BYTE   N12
 BYTE   W12
 BYTE   N06
 BYTE   W06
// 014   ----------------------------------------
 BYTE   N06
 BYTE   W06
 BYTE   An1
 BYTE   W06
 BYTE   As1
 BYTE   W06
 BYTE   Bn1
 BYTE   W06
 BYTE   Cs2
 BYTE   W06
 BYTE   Ds2
 BYTE   W06
 BYTE   Fn2
 BYTE   W06
 BYTE   Gn2
 BYTE   W06
 BYTE   TIE  Gs1
 BYTE   W48
// 015   ----------------------------------------
 BYTE   W96
// 016   ----------------------------------------
 BYTE   W96
// 017   ----------------------------------------
 BYTE   W48
 BYTE   EOT
 BYTE   N60
 BYTE   W48
// 018   ----------------------------------------
 BYTE   W12
 BYTE   N12  Fs1
 BYTE   W12
 BYTE   N72  Fn1
 BYTE   W72
// 019   ----------------------------------------
 BYTE   N06  Ds1
 BYTE   W06
 BYTE   N06
 BYTE   W06
 BYTE   N12
 BYTE   W12
 BYTE   N06
 BYTE   W06
 BYTE   N12
 BYTE   W12
 BYTE   N06
 BYTE   W06
 BYTE   N06
 BYTE   W06
 BYTE   An1
 BYTE   W06
 BYTE   As1
 BYTE   W06
 BYTE   Bn1
 BYTE   W06
 BYTE   Cs2
 BYTE   W06
 BYTE   Ds2
 BYTE   W06
 BYTE   Fn2
 BYTE   W06
 BYTE   Gn2
 BYTE   W06
// 020   ----------------------------------------
 BYTE   N60  Ds1
 BYTE   W60
 BYTE   N06
 BYTE   W06
 BYTE   N06
 BYTE   W06
 BYTE   N60
 BYTE   W24
 BYTE   PATT
  POIN2 Label_4_015DA262
 BYTE   PATT
  POIN2 Label_4_015DA26E
// 021   ----------------------------------------
 BYTE   GoTo
  POIN2 Label_4_015DA27F
// 022   ----------------------------------------
 BYTE   W96
// 023   ----------------------------------------
 BYTE   W96
 BYTE   FINE

//**************** Track 6 (Midi-Chn.5) ****************//

CastlevaniaCircleoftheMoonBigBattleRandomWizard_006:
// 000   ----------------------------------------
 BYTE   KEYSH   CastlevaniaCircleoftheMoonBigBattleRandomWizard_key+0
 BYTE   VOICE   52
 BYTE   PAN   c_v-27
 BYTE   VOL   25*CastlevaniaCircleoftheMoonBigBattleRandomWizard_mvl/mxv
 BYTE   N60  Ds4  v127
 BYTE   W60
 BYTE   N06
 BYTE   W06
 BYTE   N06
 BYTE   W06
 BYTE   N60  Fn4
 BYTE   W24
// 001   ----------------------------------------
Label_5_015DA327:
 BYTE   W36
 BYTE   N04  Fn4  v127
 BYTE   W04
 BYTE   N04
 BYTE   W04
 BYTE   N04
 BYTE   W04
 BYTE   N24  En4
 BYTE   W24
 BYTE   N24
 BYTE   W24
 BYTE   PEND 
// 002   ----------------------------------------
Label_5_015DA336:
 BYTE   N12  En4  v127
 BYTE   W12
 BYTE   N04
 BYTE   W04
 BYTE   Fn4
 BYTE   W04
 BYTE   Fs4
 BYTE   W04
 BYTE   N12  Gn4
 BYTE   W12
 BYTE   En4
 BYTE   W12
 BYTE   As4
 BYTE   W12
 BYTE   Gn4
 BYTE   W12
 BYTE   Cs5
 BYTE   W12
 BYTE   En5
 BYTE   W12
 BYTE   PEND 
// 003   ----------------------------------------
Label_5_015DA34E:
 BYTE   N04  Ds4  v127
 BYTE   W04
 BYTE   N04
 BYTE   W04
 BYTE   N04
 BYTE   W04
 BYTE   N24
 BYTE   W24
 BYTE   N06
 BYTE   W06
 BYTE   N06
 BYTE   W06
 BYTE   N06
 BYTE   W06
 BYTE   N06
 BYTE   W06
 BYTE   N06
 BYTE   W06
 BYTE   N06
 BYTE   W06
 BYTE   N04  Fn4
 BYTE   W04
 BYTE   N04
 BYTE   W04
 BYTE   N04
 BYTE   W04
 BYTE   N30
 BYTE   W12
 BYTE   PEND 
// 004   ----------------------------------------
Label_5_015DA36E:
 BYTE   W18
 BYTE   N06  Fn4  v127
 BYTE   W06
 BYTE   N06
 BYTE   W06
 BYTE   N06
 BYTE   W06
 BYTE   N06
 BYTE   W06
 BYTE   N06
 BYTE   W06
 BYTE   N04  En4
 BYTE   W04
 BYTE   N04
 BYTE   W04
 BYTE   N04
 BYTE   W04
 BYTE   N24
 BYTE   W24
 BYTE   N06
 BYTE   W06
 BYTE   N06
 BYTE   W06
 BYTE   PEND 
// 005   ----------------------------------------
Label_5_015DA389:
 BYTE   N06  En4  v127
 BYTE   W06
 BYTE   N06
 BYTE   W06
 BYTE   N06
 BYTE   W06
 BYTE   N06
 BYTE   W06
 BYTE   N04  Ds4
 BYTE   W04
 BYTE   N04
 BYTE   W04
 BYTE   N04
 BYTE   W04
 BYTE   N42
 BYTE   W42
 BYTE   N06  Fs4
 BYTE   W06
 BYTE   Fn4
 BYTE   W06
 BYTE   En4
 BYTE   W06
 BYTE   PEND 
 BYTE   PATT
  POIN2 Label_5_015DA34E
 BYTE   PATT
  POIN2 Label_5_015DA36E
 BYTE   PATT
  POIN2 Label_5_015DA389
// 006   ----------------------------------------
 BYTE   N06  Ds4  v127
 BYTE   W06
 BYTE   Gs3
 BYTE   W06
 BYTE   Ds4
 BYTE   W06
 BYTE   Gs3
 BYTE   W06
 BYTE   Ds4
 BYTE   W06
 BYTE   Gs3
 BYTE   W06
 BYTE   Ds4
 BYTE   W06
 BYTE   Gs3
 BYTE   W06
 BYTE   Ds4
 BYTE   W06
 BYTE   Gs3
 BYTE   W06
 BYTE   Ds4
 BYTE   W06
 BYTE   Gs3
 BYTE   W06
 BYTE   En4
 BYTE   W06
 BYTE   As3
 BYTE   W06
 BYTE   En4
 BYTE   W06
 BYTE   As3
 BYTE   W06
// 007   ----------------------------------------
 BYTE   En4
 BYTE   W06
 BYTE   As3
 BYTE   W06
 BYTE   En4
 BYTE   W06
 BYTE   As3
 BYTE   W06
 BYTE   En4
 BYTE   W06
 BYTE   As3
 BYTE   W06
 BYTE   En4
 BYTE   W06
 BYTE   As3
 BYTE   W06
 BYTE   Ds4
 BYTE   W06
 BYTE   An3
 BYTE   W06
 BYTE   Ds4
 BYTE   W06
 BYTE   An3
 BYTE   W06
 BYTE   Ds4
 BYTE   W06
 BYTE   An3
 BYTE   W06
 BYTE   Ds4
 BYTE   W06
 BYTE   An3
 BYTE   W06
// 008   ----------------------------------------
 BYTE   Ds4
 BYTE   W06
 BYTE   En4
 BYTE   W06
 BYTE   Fn4
 BYTE   W06
 BYTE   Fs4
 BYTE   W06
 BYTE   Cn5
 BYTE   W06
 BYTE   Fs4
 BYTE   W06
 BYTE   An4
 BYTE   W06
 BYTE   Cn5
 BYTE   W06
 BYTE   Ds5
 BYTE   W06
 BYTE   An4
 BYTE   W06
 BYTE   Cn5
 BYTE   W06
 BYTE   Ds5
 BYTE   W06
 BYTE   Fs5
 BYTE   W06
 BYTE   Cn5
 BYTE   W06
 BYTE   Ds5
 BYTE   W06
 BYTE   Fs5
 BYTE   W06
// 009   ----------------------------------------
 BYTE   En5
 BYTE   W06
 BYTE   En4
 BYTE   W06
 BYTE   Gs4
 BYTE   W06
 BYTE   Cs5
 BYTE   W06
 BYTE   En5
 BYTE   W06
 BYTE   Gs4
 BYTE   W06
 BYTE   En5
 BYTE   W06
 BYTE   Ds5
 BYTE   W06
 BYTE   Cs5
 BYTE   W06
 BYTE   Ds5
 BYTE   W06
 BYTE   En5
 BYTE   W06
 BYTE   Fs5
 BYTE   W06
 BYTE   Gs5
 BYTE   W06
 BYTE   Gs4
 BYTE   W06
 BYTE   Dn5
 BYTE   W06
 BYTE   Fn5
 BYTE   W06
// 010   ----------------------------------------
 BYTE   Gs5
 BYTE   W06
 BYTE   Dn5
 BYTE   W06
 BYTE   Fn5
 BYTE   W06
 BYTE   Gn5
 BYTE   W06
 BYTE   Gs5
 BYTE   W06
 BYTE   Gn5
 BYTE   W06
 BYTE   Gs5
 BYTE   W06
 BYTE   Fn5
 BYTE   W12
 BYTE   En5
 BYTE   W06
 BYTE   N06
 BYTE   W12
 BYTE   Gn5
 BYTE   W06
 BYTE   N06
 BYTE   W12
 BYTE   N06
 BYTE   W06
// 011   ----------------------------------------
 BYTE   W06
 BYTE   An3
 BYTE   W06
 BYTE   As3
 BYTE   W06
 BYTE   Bn3
 BYTE   W06
 BYTE   Cs4
 BYTE   W06
 BYTE   Ds4
 BYTE   W06
 BYTE   Fn4
 BYTE   W06
 BYTE   Gn4
 BYTE   W06
 BYTE   Ds4
 BYTE   W06
 BYTE   Gs3
 BYTE   W06
 BYTE   Ds4
 BYTE   W06
 BYTE   Gs3
 BYTE   W06
 BYTE   Ds4
 BYTE   W06
 BYTE   Gs3
 BYTE   W06
 BYTE   Ds4
 BYTE   W06
 BYTE   Gs3
 BYTE   W06
// 012   ----------------------------------------
 BYTE   Ds4
 BYTE   W06
 BYTE   Gs3
 BYTE   W06
 BYTE   Ds4
 BYTE   W06
 BYTE   Gs3
 BYTE   W06
 BYTE   En4
 BYTE   W06
 BYTE   As3
 BYTE   W06
 BYTE   En4
 BYTE   W06
 BYTE   As3
 BYTE   W06
 BYTE   En4
 BYTE   W06
 BYTE   As3
 BYTE   W06
 BYTE   En4
 BYTE   W06
 BYTE   As3
 BYTE   W06
 BYTE   En4
 BYTE   W06
 BYTE   As3
 BYTE   W06
 BYTE   En4
 BYTE   W06
 BYTE   As3
 BYTE   W06
// 013   ----------------------------------------
 BYTE   Ds4
 BYTE   W06
 BYTE   An3
 BYTE   W06
 BYTE   Ds4
 BYTE   W06
 BYTE   An3
 BYTE   W06
 BYTE   Ds4
 BYTE   W06
 BYTE   An3
 BYTE   W06
 BYTE   Ds4
 BYTE   W06
 BYTE   An3
 BYTE   W06
 BYTE   Ds4
 BYTE   W06
 BYTE   En4
 BYTE   W06
 BYTE   Fn4
 BYTE   W06
 BYTE   Fs4
 BYTE   W06
 BYTE   Cn5
 BYTE   W06
 BYTE   Fs4
 BYTE   W06
 BYTE   An4
 BYTE   W06
 BYTE   Cn5
 BYTE   W06
// 014   ----------------------------------------
 BYTE   Ds5
 BYTE   W06
 BYTE   An4
 BYTE   W06
 BYTE   Cn5
 BYTE   W06
 BYTE   Ds5
 BYTE   W06
 BYTE   Fs5
 BYTE   W06
 BYTE   Cn5
 BYTE   W06
 BYTE   Ds5
 BYTE   W06
 BYTE   Fs5
 BYTE   W06
 BYTE   En5
 BYTE   W06
 BYTE   En4
 BYTE   W06
 BYTE   Gs4
 BYTE   W06
 BYTE   Cs5
 BYTE   W06
 BYTE   En5
 BYTE   W06
 BYTE   Gs4
 BYTE   W06
 BYTE   En5
 BYTE   W06
 BYTE   Ds5
 BYTE   W06
// 015   ----------------------------------------
 BYTE   Cs5
 BYTE   W06
 BYTE   Ds5
 BYTE   W06
 BYTE   En5
 BYTE   W06
 BYTE   Fs5
 BYTE   W06
 BYTE   Gs5
 BYTE   W06
 BYTE   Gs4
 BYTE   W06
 BYTE   Dn5
 BYTE   W06
 BYTE   Fn5
 BYTE   W06
 BYTE   Gs5
 BYTE   W06
 BYTE   Dn5
 BYTE   W06
 BYTE   Fn5
 BYTE   W06
 BYTE   Gn5
 BYTE   W06
 BYTE   Gs5
 BYTE   W06
 BYTE   Gn5
 BYTE   W06
 BYTE   Gs5
 BYTE   W06
 BYTE   Fn5
 BYTE   W06
// 016   ----------------------------------------
 BYTE   W06
 BYTE   En5
 BYTE   W06
 BYTE   N06
 BYTE   W12
 BYTE   Gn5
 BYTE   W06
 BYTE   N06
 BYTE   W12
 BYTE   N06
 BYTE   W12
 BYTE   An3
 BYTE   W06
 BYTE   As3
 BYTE   W06
 BYTE   Bn3
 BYTE   W06
 BYTE   Cs4
 BYTE   W06
 BYTE   Ds4
 BYTE   W06
 BYTE   Fn4
 BYTE   W06
 BYTE   Gn4
 BYTE   W06
// 017   ----------------------------------------
 BYTE   N60  Ds4
 BYTE   W60
 BYTE   N06
 BYTE   W06
 BYTE   N06
 BYTE   W06
 BYTE   N60  Fn4
 BYTE   W24
 BYTE   PATT
  POIN2 Label_5_015DA327
 BYTE   PATT
  POIN2 Label_5_015DA336
// 018   ----------------------------------------
 BYTE   GoTo
  POIN2 Label_5_015DA34E
 BYTE   PATT
  POIN2 Label_5_015DA34E
 BYTE   PATT
  POIN2 Label_5_015DA36E
 BYTE   FINE

//**************** Track 7 (Midi-Chn.6) ****************//

CastlevaniaCircleoftheMoonBigBattleRandomWizard_007:
// 000   ----------------------------------------
 BYTE   KEYSH   CastlevaniaCircleoftheMoonBigBattleRandomWizard_key+0
 BYTE   VOICE   91
 BYTE   PAN   c_v-17
 BYTE   VOL   25*CastlevaniaCircleoftheMoonBigBattleRandomWizard_mvl/mxv
 BYTE   N60  Ds3  v127
 BYTE   W60
 BYTE   N06
 BYTE   W06
 BYTE   N06
 BYTE   W06
 BYTE   N60  Fn3
 BYTE   W24
// 001   ----------------------------------------
Label_6_015DA53F:
 BYTE   W36
 BYTE   N04  Fn3  v127
 BYTE   W04
 BYTE   N04
 BYTE   W04
 BYTE   N04
 BYTE   W04
 BYTE   N24  En3
 BYTE   W24
 BYTE   N24
 BYTE   W24
 BYTE   PEND 
// 002   ----------------------------------------
Label_6_015DA54E:
 BYTE   N12  En3  v127
 BYTE   W12
 BYTE   N04
 BYTE   W04
 BYTE   Fn3
 BYTE   W04
 BYTE   Fs3
 BYTE   W04
 BYTE   N12  Gn3
 BYTE   W12
 BYTE   En3
 BYTE   W12
 BYTE   As3
 BYTE   W12
 BYTE   Gn3
 BYTE   W12
 BYTE   Cs4
 BYTE   W12
 BYTE   En4
 BYTE   W12
 BYTE   PEND 
// 003   ----------------------------------------
Label_6_015DA566:
 BYTE   N04  Ds3  v127
 BYTE   W04
 BYTE   N04
 BYTE   W04
 BYTE   N04
 BYTE   W04
 BYTE   N24
 BYTE   W24
 BYTE   N06
 BYTE   W06
 BYTE   N06
 BYTE   W06
 BYTE   N06
 BYTE   W06
 BYTE   N06
 BYTE   W06
 BYTE   N06
 BYTE   W06
 BYTE   N06
 BYTE   W06
 BYTE   N04  Fn3
 BYTE   W04
 BYTE   N04
 BYTE   W04
 BYTE   N04
 BYTE   W04
 BYTE   N30
 BYTE   W12
 BYTE   PEND 
// 004   ----------------------------------------
Label_6_015DA586:
 BYTE   W18
 BYTE   N06  Fn3  v127
 BYTE   W06
 BYTE   N06
 BYTE   W06
 BYTE   N06
 BYTE   W06
 BYTE   N06
 BYTE   W06
 BYTE   N06
 BYTE   W06
 BYTE   N04  En3
 BYTE   W04
 BYTE   N04
 BYTE   W04
 BYTE   N04
 BYTE   W04
 BYTE   N24
 BYTE   W24
 BYTE   N06
 BYTE   W06
 BYTE   N06
 BYTE   W06
 BYTE   PEND 
// 005   ----------------------------------------
Label_6_015DA5A1:
 BYTE   N06  En3  v127
 BYTE   W06
 BYTE   N06
 BYTE   W06
 BYTE   N06
 BYTE   W06
 BYTE   N06
 BYTE   W06
 BYTE   N04  Ds3
 BYTE   W04
 BYTE   N04
 BYTE   W04
 BYTE   N04
 BYTE   W04
 BYTE   N42
 BYTE   W42
 BYTE   N06  Fs3
 BYTE   W06
 BYTE   Fn3
 BYTE   W06
 BYTE   En3
 BYTE   W06
 BYTE   PEND 
 BYTE   PATT
  POIN2 Label_6_015DA566
 BYTE   PATT
  POIN2 Label_6_015DA586
 BYTE   PATT
  POIN2 Label_6_015DA5A1
// 006   ----------------------------------------
 BYTE   N06  Ds3  v127
 BYTE   W06
 BYTE   Gs2
 BYTE   W06
 BYTE   Ds3
 BYTE   W06
 BYTE   Gs2
 BYTE   W06
 BYTE   Ds3
 BYTE   W06
 BYTE   Gs2
 BYTE   W06
 BYTE   Ds3
 BYTE   W06
 BYTE   Gs2
 BYTE   W06
 BYTE   Ds3
 BYTE   W06
 BYTE   Gs2
 BYTE   W06
 BYTE   Ds3
 BYTE   W06
 BYTE   Gs2
 BYTE   W06
 BYTE   En3
 BYTE   W06
 BYTE   As2
 BYTE   W06
 BYTE   En3
 BYTE   W06
 BYTE   As2
 BYTE   W06
// 007   ----------------------------------------
 BYTE   En3
 BYTE   W06
 BYTE   As2
 BYTE   W06
 BYTE   En3
 BYTE   W06
 BYTE   As2
 BYTE   W06
 BYTE   En3
 BYTE   W06
 BYTE   As2
 BYTE   W06
 BYTE   En3
 BYTE   W06
 BYTE   As2
 BYTE   W06
 BYTE   Ds3
 BYTE   W06
 BYTE   An2
 BYTE   W06
 BYTE   Ds3
 BYTE   W06
 BYTE   An2
 BYTE   W06
 BYTE   Ds3
 BYTE   W06
 BYTE   An2
 BYTE   W06
 BYTE   Ds3
 BYTE   W06
 BYTE   An2
 BYTE   W06
// 008   ----------------------------------------
 BYTE   Ds3
 BYTE   W06
 BYTE   En3
 BYTE   W06
 BYTE   Fn3
 BYTE   W06
 BYTE   Fs3
 BYTE   W06
 BYTE   Cn4
 BYTE   W06
 BYTE   Fs3
 BYTE   W06
 BYTE   An3
 BYTE   W06
 BYTE   Cn4
 BYTE   W06
 BYTE   Ds4
 BYTE   W06
 BYTE   An3
 BYTE   W06
 BYTE   Cn4
 BYTE   W06
 BYTE   Ds4
 BYTE   W06
 BYTE   Fs4
 BYTE   W06
 BYTE   Cn4
 BYTE   W06
 BYTE   Ds4
 BYTE   W06
 BYTE   Fs4
 BYTE   W06
// 009   ----------------------------------------
 BYTE   En4
 BYTE   W06
 BYTE   En3
 BYTE   W06
 BYTE   Gs3
 BYTE   W06
 BYTE   Cs4
 BYTE   W06
 BYTE   En4
 BYTE   W06
 BYTE   Gs3
 BYTE   W06
 BYTE   En4
 BYTE   W06
 BYTE   Ds4
 BYTE   W06
 BYTE   Cs4
 BYTE   W06
 BYTE   Ds4
 BYTE   W06
 BYTE   En4
 BYTE   W06
 BYTE   Fs4
 BYTE   W06
 BYTE   Gs4
 BYTE   W06
 BYTE   Gs3
 BYTE   W06
 BYTE   Dn4
 BYTE   W06
 BYTE   Fn4
 BYTE   W06
// 010   ----------------------------------------
 BYTE   Gs4
 BYTE   W06
 BYTE   Dn4
 BYTE   W06
 BYTE   Fn4
 BYTE   W06
 BYTE   Gn4
 BYTE   W06
 BYTE   Gs4
 BYTE   W06
 BYTE   Gn4
 BYTE   W06
 BYTE   Gs4
 BYTE   W06
 BYTE   Fn4
 BYTE   W12
 BYTE   En4
 BYTE   W06
 BYTE   N06
 BYTE   W12
 BYTE   Gn4
 BYTE   W06
 BYTE   N06
 BYTE   W12
 BYTE   N06
 BYTE   W06
// 011   ----------------------------------------
 BYTE   W06
 BYTE   An2
 BYTE   W06
 BYTE   As2
 BYTE   W06
 BYTE   Bn2
 BYTE   W06
 BYTE   Cs3
 BYTE   W06
 BYTE   Ds3
 BYTE   W06
 BYTE   Fn3
 BYTE   W06
 BYTE   Gn3
 BYTE   W06
 BYTE   Ds3
 BYTE   W06
 BYTE   Gs2
 BYTE   W06
 BYTE   Ds3
 BYTE   W06
 BYTE   Gs2
 BYTE   W06
 BYTE   Ds3
 BYTE   W06
 BYTE   Gs2
 BYTE   W06
 BYTE   Ds3
 BYTE   W06
 BYTE   Gs2
 BYTE   W06
// 012   ----------------------------------------
 BYTE   Ds3
 BYTE   W06
 BYTE   Gs2
 BYTE   W06
 BYTE   Ds3
 BYTE   W06
 BYTE   Gs2
 BYTE   W06
 BYTE   En3
 BYTE   W06
 BYTE   As2
 BYTE   W06
 BYTE   En3
 BYTE   W06
 BYTE   As2
 BYTE   W06
 BYTE   En3
 BYTE   W06
 BYTE   As2
 BYTE   W06
 BYTE   En3
 BYTE   W06
 BYTE   As2
 BYTE   W06
 BYTE   En3
 BYTE   W06
 BYTE   As2
 BYTE   W06
 BYTE   En3
 BYTE   W06
 BYTE   As2
 BYTE   W06
// 013   ----------------------------------------
 BYTE   Ds3
 BYTE   W06
 BYTE   An2
 BYTE   W06
 BYTE   Ds3
 BYTE   W06
 BYTE   An2
 BYTE   W06
 BYTE   Ds3
 BYTE   W06
 BYTE   An2
 BYTE   W06
 BYTE   Ds3
 BYTE   W06
 BYTE   An2
 BYTE   W06
 BYTE   Ds3
 BYTE   W06
 BYTE   En3
 BYTE   W06
 BYTE   Fn3
 BYTE   W06
 BYTE   Fs3
 BYTE   W06
 BYTE   Cn4
 BYTE   W06
 BYTE   Fs3
 BYTE   W06
 BYTE   An3
 BYTE   W06
 BYTE   Cn4
 BYTE   W06
// 014   ----------------------------------------
 BYTE   Ds4
 BYTE   W06
 BYTE   An3
 BYTE   W06
 BYTE   Cn4
 BYTE   W06
 BYTE   Ds4
 BYTE   W06
 BYTE   Fs4
 BYTE   W06
 BYTE   Cn4
 BYTE   W06
 BYTE   Ds4
 BYTE   W06
 BYTE   Fs4
 BYTE   W06
 BYTE   En4
 BYTE   W06
 BYTE   En3
 BYTE   W06
 BYTE   Gs3
 BYTE   W06
 BYTE   Cs4
 BYTE   W06
 BYTE   En4
 BYTE   W06
 BYTE   Gs3
 BYTE   W06
 BYTE   En4
 BYTE   W06
 BYTE   Ds4
 BYTE   W06
// 015   ----------------------------------------
 BYTE   Cs4
 BYTE   W06
 BYTE   Ds4
 BYTE   W06
 BYTE   En4
 BYTE   W06
 BYTE   Fs4
 BYTE   W06
 BYTE   Gs4
 BYTE   W06
 BYTE   Gs3
 BYTE   W06
 BYTE   Dn4
 BYTE   W06
 BYTE   Fn4
 BYTE   W06
 BYTE   Gs4
 BYTE   W06
 BYTE   Dn4
 BYTE   W06
 BYTE   Fn4
 BYTE   W06
 BYTE   Gn4
 BYTE   W06
 BYTE   Gs4
 BYTE   W06
 BYTE   Gn4
 BYTE   W06
 BYTE   Gs4
 BYTE   W06
 BYTE   Fn4
 BYTE   W06
// 016   ----------------------------------------
 BYTE   W06
 BYTE   En4
 BYTE   W06
 BYTE   N06
 BYTE   W12
 BYTE   Gn4
 BYTE   W06
 BYTE   N06
 BYTE   W12
 BYTE   N06
 BYTE   W12
 BYTE   An2
 BYTE   W06
 BYTE   As2
 BYTE   W06
 BYTE   Bn2
 BYTE   W06
 BYTE   Cs3
 BYTE   W06
 BYTE   Ds3
 BYTE   W06
 BYTE   Fn3
 BYTE   W06
 BYTE   Gn3
 BYTE   W06
// 017   ----------------------------------------
 BYTE   N60  Ds3
 BYTE   W60
 BYTE   N06
 BYTE   W06
 BYTE   N06
 BYTE   W06
 BYTE   N60  Fn3
 BYTE   W24
 BYTE   PATT
  POIN2 Label_6_015DA53F
 BYTE   PATT
  POIN2 Label_6_015DA54E
// 018   ----------------------------------------
 BYTE   GoTo
  POIN2 Label_6_015DA566
 BYTE   PATT
  POIN2 Label_6_015DA566
 BYTE   PATT
  POIN2 Label_6_015DA586
 BYTE   FINE

//**************** Track 8 (Midi-Chn.7) ****************//

CastlevaniaCircleoftheMoonBigBattleRandomWizard_008:
// 000   ----------------------------------------
 BYTE   KEYSH   CastlevaniaCircleoftheMoonBigBattleRandomWizard_key+0
 BYTE   VOICE   40
 BYTE   PAN   c_v+15
 BYTE   VOL   40*CastlevaniaCircleoftheMoonBigBattleRandomWizard_mvl/mxv
 BYTE   N60  Ds0  v127
 BYTE   W60
 BYTE   N06
 BYTE   W06
 BYTE   N06
 BYTE   W06
 BYTE   N60
 BYTE   W24
// 001   ----------------------------------------
Label_7_015DA756:
 BYTE   W36
 BYTE   N06  Ds0  v127
 BYTE   W06
 BYTE   N06
 BYTE   W06
 BYTE   N24
 BYTE   W24
 BYTE   N24
 BYTE   W24
 BYTE   PEND 
// 002   ----------------------------------------
Label_7_015DA762:
 BYTE   N24  Ds0  v127
 BYTE   W24
 BYTE   N12
 BYTE   W12
 BYTE   N12
 BYTE   W12
 BYTE   N12
 BYTE   W12
 BYTE   N12
 BYTE   W12
 BYTE   N12
 BYTE   W12
 BYTE   N12
 BYTE   W12
 BYTE   PEND 
// 003   ----------------------------------------
Label_7_015DA773:
 BYTE   N06  Gs0  v127
 BYTE   W06
 BYTE   Gs1
 BYTE   W06
 BYTE   Gs0
 BYTE   W06
 BYTE   Gs1
 BYTE   W06
 BYTE   Gs0
 BYTE   W06
 BYTE   Gs1
 BYTE   W06
 BYTE   Gs0
 BYTE   W06
 BYTE   Gs1
 BYTE   W06
 BYTE   Gs0
 BYTE   W06
 BYTE   Gs1
 BYTE   W06
 BYTE   Gs0
 BYTE   W06
 BYTE   Gs1
 BYTE   W06
 BYTE   Gs0
 BYTE   W06
 BYTE   Gs1
 BYTE   W06
 BYTE   Gs0
 BYTE   W06
 BYTE   Gs1
 BYTE   W06
 BYTE   PEND 
 BYTE   PATT
  POIN2 Label_7_015DA773
// 004   ----------------------------------------
Label_7_015DA79B:
 BYTE   N06  Gs0  v127
 BYTE   W06
 BYTE   Gs1
 BYTE   W06
 BYTE   Gs0
 BYTE   W06
 BYTE   Gs1
 BYTE   W06
 BYTE   Gs0
 BYTE   W06
 BYTE   Gs1
 BYTE   W06
 BYTE   Gs0
 BYTE   W06
 BYTE   Gs1
 BYTE   W06
 BYTE   Gs0
 BYTE   W06
 BYTE   Gs1
 BYTE   W06
 BYTE   Gs0
 BYTE   W06
 BYTE   Gs1
 BYTE   W06
 BYTE   Ds0
 BYTE   W06
 BYTE   Fn0
 BYTE   W06
 BYTE   Fs0
 BYTE   W06
 BYTE   Gn0
 BYTE   W06
 BYTE   PEND 
 BYTE   PATT
  POIN2 Label_7_015DA773
 BYTE   PATT
  POIN2 Label_7_015DA773
 BYTE   PATT
  POIN2 Label_7_015DA79B
 BYTE   PATT
  POIN2 Label_7_015DA773
 BYTE   PATT
  POIN2 Label_7_015DA773
// 005   ----------------------------------------
 BYTE   N06  Gs0  v127
 BYTE   W06
 BYTE   Gs1
 BYTE   W06
 BYTE   Gs0
 BYTE   W06
 BYTE   Gs1
 BYTE   W06
 BYTE   Gs0
 BYTE   W06
 BYTE   Gs1
 BYTE   W06
 BYTE   Gs0
 BYTE   W06
 BYTE   Gs1
 BYTE   W06
 BYTE   Gs0
 BYTE   W06
 BYTE   Gs1
 BYTE   W06
 BYTE   Gs0
 BYTE   W06
 BYTE   Gs1
 BYTE   W06
 BYTE   Gs0
 BYTE   W06
 BYTE   Gs1
 BYTE   W06
 BYTE   N06
 BYTE   W06
 BYTE   N06
 BYTE   W06
// 006   ----------------------------------------
 BYTE   Gs0
 BYTE   W06
 BYTE   Gs1
 BYTE   W06
 BYTE   Gs0
 BYTE   W06
 BYTE   Gs1
 BYTE   W06
 BYTE   Gs0
 BYTE   W06
 BYTE   Gs1
 BYTE   W06
 BYTE   Gs0
 BYTE   W06
 BYTE   Gs1
 BYTE   W06
 BYTE   Gs0
 BYTE   W06
 BYTE   Gs1
 BYTE   W06
 BYTE   Fs0
 BYTE   W06
 BYTE   Fs1
 BYTE   W06
 BYTE   Fn0
 BYTE   W06
 BYTE   Fn1
 BYTE   W06
 BYTE   Fn0
 BYTE   W06
 BYTE   Fn1
 BYTE   W06
// 007   ----------------------------------------
 BYTE   Fn0
 BYTE   W06
 BYTE   Fn1
 BYTE   W06
 BYTE   Fn0
 BYTE   W06
 BYTE   Fn1
 BYTE   W06
 BYTE   Fn0
 BYTE   W06
 BYTE   Fn1
 BYTE   W06
 BYTE   Fn0
 BYTE   W06
 BYTE   Fn1
 BYTE   W06
 BYTE   Ds0
 BYTE   W06
 BYTE   Ds1
 BYTE   W06
 BYTE   N06
 BYTE   W06
 BYTE   Ds0
 BYTE   W06
 BYTE   Ds1
 BYTE   W06
 BYTE   N06
 BYTE   W06
 BYTE   Ds0
 BYTE   W06
 BYTE   Ds1
 BYTE   W06
// 008   ----------------------------------------
 BYTE   Ds0
 BYTE   W06
 BYTE   An0
 BYTE   W06
 BYTE   As0
 BYTE   W06
 BYTE   Bn0
 BYTE   W06
 BYTE   Cs1
 BYTE   W06
 BYTE   Ds1
 BYTE   W06
 BYTE   Fn1
 BYTE   W06
 BYTE   Gn1
 BYTE   W06
 BYTE   Gs0
 BYTE   W06
 BYTE   Gs1
 BYTE   W06
 BYTE   Gs0
 BYTE   W06
 BYTE   Gs1
 BYTE   W06
 BYTE   Gs0
 BYTE   W06
 BYTE   Gs1
 BYTE   W06
 BYTE   Gs0
 BYTE   W06
 BYTE   Gs1
 BYTE   W06
 BYTE   PATT
  POIN2 Label_7_015DA773
 BYTE   PATT
  POIN2 Label_7_015DA773
// 009   ----------------------------------------
 BYTE   N06  Gs0  v127
 BYTE   W06
 BYTE   Gs1
 BYTE   W06
 BYTE   Gs0
 BYTE   W06
 BYTE   Gs1
 BYTE   W06
 BYTE   Gs0
 BYTE   W06
 BYTE   Gs1
 BYTE   W06
 BYTE   N06
 BYTE   W06
 BYTE   N06
 BYTE   W06
 BYTE   Gs0
 BYTE   W06
 BYTE   Gs1
 BYTE   W06
 BYTE   Gs0
 BYTE   W06
 BYTE   Gs1
 BYTE   W06
 BYTE   Gs0
 BYTE   W06
 BYTE   Gs1
 BYTE   W06
 BYTE   Gs0
 BYTE   W06
 BYTE   Gs1
 BYTE   W06
// 010   ----------------------------------------
 BYTE   Gs0
 BYTE   W06
 BYTE   Gs1
 BYTE   W06
 BYTE   Fs0
 BYTE   W06
 BYTE   Fs1
 BYTE   W06
 BYTE   Fn0
 BYTE   W06
 BYTE   Fn1
 BYTE   W06
 BYTE   Fn0
 BYTE   W06
 BYTE   Fn1
 BYTE   W06
 BYTE   Fn0
 BYTE   W06
 BYTE   Fn1
 BYTE   W06
 BYTE   Fn0
 BYTE   W06
 BYTE   Fn1
 BYTE   W06
 BYTE   Fn0
 BYTE   W06
 BYTE   Fn1
 BYTE   W06
 BYTE   Fn0
 BYTE   W06
 BYTE   Fn1
 BYTE   W06
// 011   ----------------------------------------
 BYTE   Ds0
 BYTE   W06
 BYTE   Ds1
 BYTE   W06
 BYTE   N06
 BYTE   W06
 BYTE   Ds0
 BYTE   W06
 BYTE   Ds1
 BYTE   W06
 BYTE   N06
 BYTE   W06
 BYTE   Ds0
 BYTE   W06
 BYTE   Ds1
 BYTE   W06
 BYTE   Ds0
 BYTE   W06
 BYTE   An0
 BYTE   W06
 BYTE   As0
 BYTE   W06
 BYTE   Bn0
 BYTE   W06
 BYTE   Cs1
 BYTE   W06
 BYTE   Ds1
 BYTE   W06
 BYTE   Fn1
 BYTE   W06
 BYTE   Gn1
 BYTE   W06
// 012   ----------------------------------------
 BYTE   N60  Ds0
 BYTE   W60
 BYTE   N06
 BYTE   W06
 BYTE   N06
 BYTE   W06
 BYTE   N60
 BYTE   W24
 BYTE   PATT
  POIN2 Label_7_015DA756
 BYTE   PATT
  POIN2 Label_7_015DA762
// 013   ----------------------------------------
 BYTE   GoTo
  POIN2 Label_7_015DA773
 BYTE   PATT
  POIN2 Label_7_015DA773
 BYTE   PATT
  POIN2 Label_7_015DA773
 BYTE   FINE

//**************** Track 9 (Midi-Chn.8) ****************//

CastlevaniaCircleoftheMoonBigBattleRandomWizard_009:
// 000   ----------------------------------------
 BYTE   KEYSH   CastlevaniaCircleoftheMoonBigBattleRandomWizard_key+0
 BYTE   VOICE   34
 BYTE   PAN   c_v+5
 BYTE   VOL   27*CastlevaniaCircleoftheMoonBigBattleRandomWizard_mvl/mxv
 BYTE   N60  Ds0  v127
 BYTE   W60
 BYTE   N06
 BYTE   W06
 BYTE   N06
 BYTE   W06
 BYTE   N60
 BYTE   W24
// 001   ----------------------------------------
Label_8_015DA8FA:
 BYTE   W36
 BYTE   N06  Ds0  v127
 BYTE   W06
 BYTE   N06
 BYTE   W06
 BYTE   N24
 BYTE   W24
 BYTE   N24
 BYTE   W24
 BYTE   PEND 
// 002   ----------------------------------------
Label_8_015DA906:
 BYTE   N24  Ds0  v127
 BYTE   W24
 BYTE   N12
 BYTE   W12
 BYTE   N12
 BYTE   W12
 BYTE   N12
 BYTE   W12
 BYTE   N12
 BYTE   W12
 BYTE   N12
 BYTE   W12
 BYTE   N12
 BYTE   W12
 BYTE   PEND 
// 003   ----------------------------------------
Label_8_015DA917:
 BYTE   N06  Gs0  v127
 BYTE   W06
 BYTE   Gs1
 BYTE   W06
 BYTE   Gs0
 BYTE   W06
 BYTE   Gs1
 BYTE   W06
 BYTE   Gs0
 BYTE   W06
 BYTE   Gs1
 BYTE   W06
 BYTE   Gs0
 BYTE   W06
 BYTE   Gs1
 BYTE   W06
 BYTE   Gs0
 BYTE   W06
 BYTE   Gs1
 BYTE   W06
 BYTE   Gs0
 BYTE   W06
 BYTE   Gs1
 BYTE   W06
 BYTE   Gs0
 BYTE   W06
 BYTE   Gs1
 BYTE   W06
 BYTE   Gs0
 BYTE   W06
 BYTE   Gs1
 BYTE   W06
 BYTE   PEND 
 BYTE   PATT
  POIN2 Label_8_015DA917
// 004   ----------------------------------------
Label_8_015DA93F:
 BYTE   N06  Gs0  v127
 BYTE   W06
 BYTE   Gs1
 BYTE   W06
 BYTE   Gs0
 BYTE   W06
 BYTE   Gs1
 BYTE   W06
 BYTE   Gs0
 BYTE   W06
 BYTE   Gs1
 BYTE   W06
 BYTE   Gs0
 BYTE   W06
 BYTE   Gs1
 BYTE   W06
 BYTE   Gs0
 BYTE   W06
 BYTE   Gs1
 BYTE   W06
 BYTE   Gs0
 BYTE   W06
 BYTE   Gs1
 BYTE   W06
 BYTE   Ds0
 BYTE   W06
 BYTE   Fn0
 BYTE   W06
 BYTE   Fs0
 BYTE   W06
 BYTE   Gn0
 BYTE   W06
 BYTE   PEND 
 BYTE   PATT
  POIN2 Label_8_015DA917
 BYTE   PATT
  POIN2 Label_8_015DA917
 BYTE   PATT
  POIN2 Label_8_015DA93F
 BYTE   PATT
  POIN2 Label_8_015DA917
 BYTE   PATT
  POIN2 Label_8_015DA917
// 005   ----------------------------------------
 BYTE   N06  Gs0  v127
 BYTE   W06
 BYTE   Gs1
 BYTE   W06
 BYTE   Gs0
 BYTE   W06
 BYTE   Gs1
 BYTE   W06
 BYTE   Gs0
 BYTE   W06
 BYTE   Gs1
 BYTE   W06
 BYTE   Gs0
 BYTE   W06
 BYTE   Gs1
 BYTE   W06
 BYTE   Gs0
 BYTE   W06
 BYTE   Gs1
 BYTE   W06
 BYTE   Gs0
 BYTE   W06
 BYTE   Gs1
 BYTE   W06
 BYTE   Gs0
 BYTE   W06
 BYTE   Gs1
 BYTE   W06
 BYTE   N06
 BYTE   W06
 BYTE   N06
 BYTE   W06
// 006   ----------------------------------------
 BYTE   Gs0
 BYTE   W06
 BYTE   Gs1
 BYTE   W06
 BYTE   Gs0
 BYTE   W06
 BYTE   Gs1
 BYTE   W06
 BYTE   Gs0
 BYTE   W06
 BYTE   Gs1
 BYTE   W06
 BYTE   Gs0
 BYTE   W06
 BYTE   Gs1
 BYTE   W06
 BYTE   Gs0
 BYTE   W06
 BYTE   Gs1
 BYTE   W06
 BYTE   Fs0
 BYTE   W06
 BYTE   Fs1
 BYTE   W06
 BYTE   Fn0
 BYTE   W06
 BYTE   Fn1
 BYTE   W06
 BYTE   Fn0
 BYTE   W06
 BYTE   Fn1
 BYTE   W06
// 007   ----------------------------------------
 BYTE   Fn0
 BYTE   W06
 BYTE   Fn1
 BYTE   W06
 BYTE   Fn0
 BYTE   W06
 BYTE   Fn1
 BYTE   W06
 BYTE   Fn0
 BYTE   W06
 BYTE   Fn1
 BYTE   W06
 BYTE   Fn0
 BYTE   W06
 BYTE   Fn1
 BYTE   W06
 BYTE   Ds0
 BYTE   W06
 BYTE   Ds1
 BYTE   W06
 BYTE   N06
 BYTE   W06
 BYTE   Ds0
 BYTE   W06
 BYTE   Ds1
 BYTE   W06
 BYTE   N06
 BYTE   W06
 BYTE   Ds0
 BYTE   W06
 BYTE   Ds1
 BYTE   W06
// 008   ----------------------------------------
 BYTE   Ds0
 BYTE   W06
 BYTE   An0
 BYTE   W06
 BYTE   As0
 BYTE   W06
 BYTE   Bn0
 BYTE   W06
 BYTE   Cs1
 BYTE   W06
 BYTE   Ds1
 BYTE   W06
 BYTE   Fn1
 BYTE   W06
 BYTE   Gn1
 BYTE   W06
 BYTE   Gs0
 BYTE   W06
 BYTE   Gs1
 BYTE   W06
 BYTE   Gs0
 BYTE   W06
 BYTE   Gs1
 BYTE   W06
 BYTE   Gs0
 BYTE   W06
 BYTE   Gs1
 BYTE   W06
 BYTE   Gs0
 BYTE   W06
 BYTE   Gs1
 BYTE   W06
 BYTE   PATT
  POIN2 Label_8_015DA917
 BYTE   PATT
  POIN2 Label_8_015DA917
// 009   ----------------------------------------
 BYTE   N06  Gs0  v127
 BYTE   W06
 BYTE   Gs1
 BYTE   W06
 BYTE   Gs0
 BYTE   W06
 BYTE   Gs1
 BYTE   W06
 BYTE   Gs0
 BYTE   W06
 BYTE   Gs1
 BYTE   W06
 BYTE   N06
 BYTE   W06
 BYTE   N06
 BYTE   W06
 BYTE   Gs0
 BYTE   W06
 BYTE   Gs1
 BYTE   W06
 BYTE   Gs0
 BYTE   W06
 BYTE   Gs1
 BYTE   W06
 BYTE   Gs0
 BYTE   W06
 BYTE   Gs1
 BYTE   W06
 BYTE   Gs0
 BYTE   W06
 BYTE   Gs1
 BYTE   W06
// 010   ----------------------------------------
 BYTE   Gs0
 BYTE   W06
 BYTE   Gs1
 BYTE   W06
 BYTE   Fs0
 BYTE   W06
 BYTE   Fs1
 BYTE   W06
 BYTE   Fn0
 BYTE   W06
 BYTE   Fn1
 BYTE   W06
 BYTE   Fn0
 BYTE   W06
 BYTE   Fn1
 BYTE   W06
 BYTE   Fn0
 BYTE   W06
 BYTE   Fn1
 BYTE   W06
 BYTE   Fn0
 BYTE   W06
 BYTE   Fn1
 BYTE   W06
 BYTE   Fn0
 BYTE   W06
 BYTE   Fn1
 BYTE   W06
 BYTE   Fn0
 BYTE   W06
 BYTE   Fn1
 BYTE   W06
// 011   ----------------------------------------
 BYTE   Ds0
 BYTE   W06
 BYTE   Ds1
 BYTE   W06
 BYTE   N06
 BYTE   W06
 BYTE   Ds0
 BYTE   W06
 BYTE   Ds1
 BYTE   W06
 BYTE   N06
 BYTE   W06
 BYTE   Ds0
 BYTE   W06
 BYTE   Ds1
 BYTE   W06
 BYTE   Ds0
 BYTE   W06
 BYTE   An0
 BYTE   W06
 BYTE   As0
 BYTE   W06
 BYTE   Bn0
 BYTE   W06
 BYTE   Cs1
 BYTE   W06
 BYTE   Ds1
 BYTE   W06
 BYTE   Fn1
 BYTE   W06
 BYTE   Gn1
 BYTE   W06
// 012   ----------------------------------------
 BYTE   N60  Ds0
 BYTE   W60
 BYTE   N06
 BYTE   W06
 BYTE   N06
 BYTE   W06
 BYTE   N60
 BYTE   W24
 BYTE   PATT
  POIN2 Label_8_015DA8FA
 BYTE   PATT
  POIN2 Label_8_015DA906
// 013   ----------------------------------------
 BYTE   GoTo
  POIN2 Label_8_015DA917
 BYTE   PATT
  POIN2 Label_8_015DA917
 BYTE   PATT
  POIN2 Label_8_015DA917
 BYTE   FINE

//**************** Track 10 (Midi-Chn.9) ****************//

CastlevaniaCircleoftheMoonBigBattleRandomWizard_010:
// 000   ----------------------------------------
 BYTE   KEYSH   CastlevaniaCircleoftheMoonBigBattleRandomWizard_key+0
 BYTE   VOICE   93
 BYTE   PAN   c_v+5
 BYTE   VOL   22*CastlevaniaCircleoftheMoonBigBattleRandomWizard_mvl/mxv
 BYTE   W12
 BYTE   N06  Ds3  v127
 BYTE   W06
 BYTE   Gs3
 BYTE   W06
 BYTE   Bn3
 BYTE   W06
 BYTE   Ds4
 BYTE   W06
 BYTE   Bn3
 BYTE   W06
 BYTE   Gs3
 BYTE   W06
 BYTE   Ds3
 BYTE   W06
 BYTE   Ds4
 BYTE   W06
 BYTE   Bn3
 BYTE   W06
 BYTE   Gs3
 BYTE   W06
 BYTE   Ds3
 BYTE   W06
 BYTE   Ds4
 BYTE   W06
 BYTE   Fn3
 BYTE   W06
 BYTE   Gs3
 BYTE   W06
// 001   ----------------------------------------
Label_9_015DAAB3:
 BYTE   N06  Bn3  v127
 BYTE   W06
 BYTE   Fn4
 BYTE   W06
 BYTE   Dn4
 BYTE   W06
 BYTE   Bn3
 BYTE   W06
 BYTE   Gs3
 BYTE   W06
 BYTE   Fn4
 BYTE   W06
 BYTE   Dn4
 BYTE   W06
 BYTE   Bn3
 BYTE   W06
 BYTE   Gs3
 BYTE   W06
 BYTE   Fn4
 BYTE   W06
 BYTE   En3
 BYTE   W06
 BYTE   Gn3
 BYTE   W06
 BYTE   Cs4
 BYTE   W06
 BYTE   En4
 BYTE   W06
 BYTE   Cs4
 BYTE   W06
 BYTE   As3
 BYTE   W06
 BYTE   PEND 
// 002   ----------------------------------------
Label_9_015DAAD6:
 BYTE   N06  Gn3  v127
 BYTE   W06
 BYTE   En4
 BYTE   W06
 BYTE   Cs4
 BYTE   W06
 BYTE   As3
 BYTE   W06
 BYTE   Gn3
 BYTE   W06
 BYTE   En4
 BYTE   W06
 BYTE   As3
 BYTE   W06
 BYTE   Cs4
 BYTE   W06
 BYTE   En4
 BYTE   W06
 BYTE   Gn4
 BYTE   W06
 BYTE   Cs4
 BYTE   W06
 BYTE   En4
 BYTE   W06
 BYTE   Gn4
 BYTE   W06
 BYTE   Cs5
 BYTE   W06
 BYTE   Bn4
 BYTE   W06
 BYTE   As4
 BYTE   W06
 BYTE   PEND 
// 003   ----------------------------------------
Label_9_015DAAF9:
 BYTE   N06  Gs4  v127
 BYTE   W06
 BYTE   Gn4
 BYTE   W06
 BYTE   Ds4
 BYTE   W06
 BYTE   Gs4
 BYTE   W06
 BYTE   Bn4
 BYTE   W06
 BYTE   Ds5
 BYTE   W06
 BYTE   Bn4
 BYTE   W06
 BYTE   Gs4
 BYTE   W06
 BYTE   Ds4
 BYTE   W06
 BYTE   Ds5
 BYTE   W06
 BYTE   Bn4
 BYTE   W06
 BYTE   Gs4
 BYTE   W06
 BYTE   Ds4
 BYTE   W06
 BYTE   Ds5
 BYTE   W06
 BYTE   Fn4
 BYTE   W06
 BYTE   Gs4
 BYTE   W06
 BYTE   PEND 
// 004   ----------------------------------------
Label_9_015DAB1C:
 BYTE   N06  Bn4  v127
 BYTE   W06
 BYTE   Fn5
 BYTE   W06
 BYTE   Dn5
 BYTE   W06
 BYTE   Bn4
 BYTE   W06
 BYTE   Gs4
 BYTE   W06
 BYTE   Fn5
 BYTE   W06
 BYTE   Dn5
 BYTE   W06
 BYTE   Bn4
 BYTE   W06
 BYTE   Gs4
 BYTE   W06
 BYTE   Fn5
 BYTE   W06
 BYTE   En4
 BYTE   W06
 BYTE   Gn4
 BYTE   W06
 BYTE   Cs5
 BYTE   W06
 BYTE   En5
 BYTE   W06
 BYTE   Cs5
 BYTE   W06
 BYTE   As4
 BYTE   W06
 BYTE   PEND 
// 005   ----------------------------------------
Label_9_015DAB3F:
 BYTE   N06  Gn4  v127
 BYTE   W06
 BYTE   En5
 BYTE   W06
 BYTE   Cs5
 BYTE   W06
 BYTE   As4
 BYTE   W06
 BYTE   Gn4
 BYTE   W06
 BYTE   En5
 BYTE   W06
 BYTE   Ds4
 BYTE   W06
 BYTE   Gs4
 BYTE   W06
 BYTE   Bn4
 BYTE   W06
 BYTE   Ds5
 BYTE   W06
 BYTE   Bn4
 BYTE   W06
 BYTE   Gs4
 BYTE   W06
 BYTE   Ds4
 BYTE   W06
 BYTE   Ds5
 BYTE   W06
 BYTE   Bn4
 BYTE   W06
 BYTE   Gs4
 BYTE   W06
 BYTE   PEND 
// 006   ----------------------------------------
 BYTE   Ds4
 BYTE   W06
 BYTE   Ds5
 BYTE   W06
 BYTE   Ds4
 BYTE   W06
 BYTE   Gs4
 BYTE   W06
 BYTE   Bn4
 BYTE   W06
 BYTE   Ds5
 BYTE   W06
 BYTE   Bn4
 BYTE   W06
 BYTE   Gs4
 BYTE   W06
 BYTE   Ds4
 BYTE   W06
 BYTE   Ds5
 BYTE   W06
 BYTE   Bn4
 BYTE   W06
 BYTE   Gs4
 BYTE   W06
 BYTE   Ds4
 BYTE   W06
 BYTE   Ds5
 BYTE   W06
 BYTE   Fn4
 BYTE   W06
 BYTE   Gs4
 BYTE   W06
 BYTE   PATT
  POIN2 Label_9_015DAB1C
 BYTE   PATT
  POIN2 Label_9_015DAB3F
// 007   ----------------------------------------
 BYTE   N06  Ds4  v127
 BYTE   W06
 BYTE   Ds5
 BYTE   W06
 BYTE   Gs3
 BYTE   W06
 BYTE   Ds3
 BYTE   W06
 BYTE   Gs3
 BYTE   W06
 BYTE   Ds3
 BYTE   W06
 BYTE   Gs3
 BYTE   W06
 BYTE   Ds3
 BYTE   W06
 BYTE   Gs3
 BYTE   W06
 BYTE   Ds4
 BYTE   W06
 BYTE   Cs4
 BYTE   W06
 BYTE   Bn3
 BYTE   W06
 BYTE   As3
 BYTE   W06
 BYTE   Gs3
 BYTE   W06
 BYTE   As3
 BYTE   W06
 BYTE   En3
 BYTE   W06
// 008   ----------------------------------------
 BYTE   As3
 BYTE   W06
 BYTE   En3
 BYTE   W06
 BYTE   As3
 BYTE   W06
 BYTE   En3
 BYTE   W06
 BYTE   As3
 BYTE   W06
 BYTE   En4
 BYTE   W06
 BYTE   Ds4
 BYTE   W06
 BYTE   Cs4
 BYTE   W06
 BYTE   Bn3
 BYTE   W06
 BYTE   As3
 BYTE   W06
 BYTE   Cn4
 BYTE   W06
 BYTE   Fs3
 BYTE   W06
 BYTE   Cn4
 BYTE   W06
 BYTE   Fs3
 BYTE   W06
 BYTE   Cn4
 BYTE   W06
 BYTE   Fs3
 BYTE   W06
// 009   ----------------------------------------
 BYTE   Cn4
 BYTE   W06
 BYTE   Fs4
 BYTE   W06
 BYTE   En4
 BYTE   W06
 BYTE   Ds4
 BYTE   W06
 BYTE   Cs4
 BYTE   W06
 BYTE   Cn4
 BYTE   W06
 BYTE   Ds4
 BYTE   W06
 BYTE   An3
 BYTE   W06
 BYTE   Cn4
 BYTE   W06
 BYTE   Ds4
 BYTE   W06
 BYTE   Fs4
 BYTE   W06
 BYTE   Cn4
 BYTE   W06
 BYTE   Ds4
 BYTE   W06
 BYTE   Fs4
 BYTE   W06
 BYTE   An4
 BYTE   W06
 BYTE   Ds4
 BYTE   W06
// 010   ----------------------------------------
 BYTE   Fs4
 BYTE   W06
 BYTE   An4
 BYTE   W06
 BYTE   N36  Gs4
 BYTE   W36
 BYTE   N06
 BYTE   W06
 BYTE   Fs4
 BYTE   W06
 BYTE   En4
 BYTE   W06
 BYTE   Fs4
 BYTE   W06
 BYTE   Gs4
 BYTE   W06
 BYTE   As4
 BYTE   W06
 BYTE   N36  Bn4
 BYTE   W12
// 011   ----------------------------------------
 BYTE   W24
 BYTE   N06  Gs4
 BYTE   W06
 BYTE   As4
 BYTE   W06
 BYTE   Bn4
 BYTE   W06
 BYTE   As4
 BYTE   W06
 BYTE   Bn4
 BYTE   W06
 BYTE   Cs3
 BYTE   W06
 BYTE   N06
 BYTE   W12
 BYTE   En3
 BYTE   W06
 BYTE   N06
 BYTE   W12
 BYTE   N06
 BYTE   W06
// 012   ----------------------------------------
 BYTE   W18
 BYTE   An3
 BYTE   W06
 BYTE   As3
 BYTE   W06
 BYTE   Bn3
 BYTE   W06
 BYTE   Cs4
 BYTE   W06
 BYTE   Ds4
 BYTE   W06
 BYTE   Fn4
 BYTE   W06
 BYTE   Gn4
 BYTE   W06
 BYTE   Gs3
 BYTE   W06
 BYTE   Ds3
 BYTE   W06
 BYTE   Gs3
 BYTE   W06
 BYTE   Ds3
 BYTE   W06
 BYTE   Gs3
 BYTE   W06
 BYTE   Ds3
 BYTE   W06
// 013   ----------------------------------------
 BYTE   Gs3
 BYTE   W06
 BYTE   Ds4
 BYTE   W06
 BYTE   Cs4
 BYTE   W06
 BYTE   Bn3
 BYTE   W06
 BYTE   As3
 BYTE   W06
 BYTE   Gs3
 BYTE   W06
 BYTE   As3
 BYTE   W06
 BYTE   En3
 BYTE   W06
 BYTE   As3
 BYTE   W06
 BYTE   En3
 BYTE   W06
 BYTE   As3
 BYTE   W06
 BYTE   En3
 BYTE   W06
 BYTE   As3
 BYTE   W06
 BYTE   En4
 BYTE   W06
 BYTE   Ds4
 BYTE   W06
 BYTE   Cs4
 BYTE   W06
// 014   ----------------------------------------
 BYTE   Bn3
 BYTE   W06
 BYTE   As3
 BYTE   W06
 BYTE   Cn4
 BYTE   W06
 BYTE   Fs3
 BYTE   W06
 BYTE   Cn4
 BYTE   W06
 BYTE   Fs3
 BYTE   W06
 BYTE   Cn4
 BYTE   W06
 BYTE   Fs3
 BYTE   W06
 BYTE   Cn4
 BYTE   W06
 BYTE   Fs4
 BYTE   W06
 BYTE   En4
 BYTE   W06
 BYTE   Ds4
 BYTE   W06
 BYTE   Cs4
 BYTE   W06
 BYTE   Cn4
 BYTE   W06
 BYTE   Ds4
 BYTE   W06
 BYTE   An3
 BYTE   W06
// 015   ----------------------------------------
 BYTE   Cn4
 BYTE   W06
 BYTE   Ds4
 BYTE   W06
 BYTE   Fs4
 BYTE   W06
 BYTE   Cn4
 BYTE   W06
 BYTE   Ds4
 BYTE   W06
 BYTE   Fs4
 BYTE   W06
 BYTE   An4
 BYTE   W06
 BYTE   Ds4
 BYTE   W06
 BYTE   Fs4
 BYTE   W06
 BYTE   An4
 BYTE   W06
 BYTE   N36  Gs4
 BYTE   W36
// 016   ----------------------------------------
 BYTE   N06
 BYTE   W06
 BYTE   Fs4
 BYTE   W06
 BYTE   En4
 BYTE   W06
 BYTE   Fs4
 BYTE   W06
 BYTE   Gs4
 BYTE   W06
 BYTE   As4
 BYTE   W06
 BYTE   N36  Bn4
 BYTE   W36
 BYTE   N06  Gs4
 BYTE   W06
 BYTE   As4
 BYTE   W06
 BYTE   Bn4
 BYTE   W06
 BYTE   As4
 BYTE   W06
// 017   ----------------------------------------
 BYTE   Bn4
 BYTE   W06
 BYTE   Cs3
 BYTE   W06
 BYTE   N06
 BYTE   W12
 BYTE   En3
 BYTE   W06
 BYTE   N06
 BYTE   W12
 BYTE   N06
 BYTE   W24
 BYTE   An3
 BYTE   W06
 BYTE   As3
 BYTE   W06
 BYTE   Bn3
 BYTE   W06
 BYTE   Cs4
 BYTE   W06
 BYTE   Ds4
 BYTE   W06
// 018   ----------------------------------------
 BYTE   Fn4
 BYTE   W06
 BYTE   Gn4
 BYTE   W06
 BYTE   Ds3
 BYTE   W06
 BYTE   Gs3
 BYTE   W06
 BYTE   Bn3
 BYTE   W06
 BYTE   Ds4
 BYTE   W06
 BYTE   Bn3
 BYTE   W06
 BYTE   Gs3
 BYTE   W06
 BYTE   Ds3
 BYTE   W06
 BYTE   Ds4
 BYTE   W06
 BYTE   Bn3
 BYTE   W06
 BYTE   Gs3
 BYTE   W06
 BYTE   Ds3
 BYTE   W06
 BYTE   Ds4
 BYTE   W06
 BYTE   Fn3
 BYTE   W06
 BYTE   Gs3
 BYTE   W06
 BYTE   PATT
  POIN2 Label_9_015DAAB3
 BYTE   PATT
  POIN2 Label_9_015DAAD6
// 019   ----------------------------------------
 BYTE   GoTo
  POIN2 Label_9_015DAAF9
 BYTE   PATT
  POIN2 Label_9_015DAAF9
 BYTE   PATT
  POIN2 Label_9_015DAB1C
 BYTE   FINE

//**************** Track 11 (Midi-Chn.10) ****************//

CastlevaniaCircleoftheMoonBigBattleRandomWizard_011:
// 000   ----------------------------------------
 BYTE   KEYSH   CastlevaniaCircleoftheMoonBigBattleRandomWizard_key+0
 BYTE   VOICE   19
 BYTE   PAN   c_v+37
 BYTE   VOL   24*CastlevaniaCircleoftheMoonBigBattleRandomWizard_mvl/mxv
 BYTE   N60  Bn2  v127
 BYTE   W60
 BYTE   N06
 BYTE   W06
 BYTE   N06
 BYTE   W06
 BYTE   N60  Dn3
 BYTE   W24
// 001   ----------------------------------------
Label_10_015DAD07:
 BYTE   W36
 BYTE   N12  Dn3  v127
 BYTE   W12
 BYTE   N24  Cs3
 BYTE   W24
 BYTE   N24
 BYTE   W24
 BYTE   PEND 
// 002   ----------------------------------------
Label_10_015DAD12:
 BYTE   N12  Cs3  v127
 BYTE   W12
 BYTE   N04
 BYTE   W04
 BYTE   Dn3
 BYTE   W04
 BYTE   Ds3
 BYTE   W04
 BYTE   N12  En3
 BYTE   W12
 BYTE   Cs3
 BYTE   W12
 BYTE   Gn3
 BYTE   W12
 BYTE   En3
 BYTE   W12
 BYTE   As3
 BYTE   W12
 BYTE   Cs4
 BYTE   W12
 BYTE   PEND 
// 003   ----------------------------------------
Label_10_015DAD2A:
 BYTE   N04  Bn2  v127
 BYTE   W04
 BYTE   N04
 BYTE   W04
 BYTE   N04
 BYTE   W04
 BYTE   N24
 BYTE   W24
 BYTE   N06
 BYTE   W06
 BYTE   N06
 BYTE   W06
 BYTE   N06
 BYTE   W06
 BYTE   N06
 BYTE   W06
 BYTE   N06
 BYTE   W06
 BYTE   N06
 BYTE   W06
 BYTE   N04  Dn3
 BYTE   W04
 BYTE   N04
 BYTE   W04
 BYTE   N04
 BYTE   W04
 BYTE   N30
 BYTE   W12
 BYTE   PEND 
// 004   ----------------------------------------
Label_10_015DAD4A:
 BYTE   W18
 BYTE   N06  Dn3  v127
 BYTE   W06
 BYTE   N06
 BYTE   W06
 BYTE   N06
 BYTE   W06
 BYTE   N06
 BYTE   W06
 BYTE   N06
 BYTE   W06
 BYTE   N04  Cs3
 BYTE   W04
 BYTE   N04
 BYTE   W04
 BYTE   N04
 BYTE   W04
 BYTE   N24
 BYTE   W24
 BYTE   N06
 BYTE   W06
 BYTE   N06
 BYTE   W06
 BYTE   PEND 
// 005   ----------------------------------------
Label_10_015DAD65:
 BYTE   N06  Cs3  v127
 BYTE   W06
 BYTE   N06
 BYTE   W06
 BYTE   N06
 BYTE   W06
 BYTE   N06
 BYTE   W06
 BYTE   N04  Bn2
 BYTE   W04
 BYTE   N04
 BYTE   W04
 BYTE   N04
 BYTE   W04
 BYTE   N42
 BYTE   W42
 BYTE   N06  Ds3
 BYTE   W06
 BYTE   Dn3
 BYTE   W06
 BYTE   Cs3
 BYTE   W06
 BYTE   PEND 
 BYTE   PATT
  POIN2 Label_10_015DAD2A
 BYTE   PATT
  POIN2 Label_10_015DAD4A
 BYTE   PATT
  POIN2 Label_10_015DAD65
// 006   ----------------------------------------
 BYTE   N06  Bn2  v127
 BYTE   W06
 BYTE   Ds2
 BYTE   W06
 BYTE   Bn2
 BYTE   W06
 BYTE   Ds2
 BYTE   W06
 BYTE   Bn2
 BYTE   W06
 BYTE   Ds2
 BYTE   W06
 BYTE   Bn2
 BYTE   W06
 BYTE   Ds2
 BYTE   W06
 BYTE   Bn2
 BYTE   W06
 BYTE   Ds2
 BYTE   W06
 BYTE   Bn2
 BYTE   W06
 BYTE   Ds2
 BYTE   W06
 BYTE   Cs3
 BYTE   W06
 BYTE   Gn2
 BYTE   W06
 BYTE   Cs3
 BYTE   W06
 BYTE   Gn2
 BYTE   W06
// 007   ----------------------------------------
 BYTE   Cs3
 BYTE   W06
 BYTE   Gn2
 BYTE   W06
 BYTE   Cs3
 BYTE   W06
 BYTE   Gn2
 BYTE   W06
 BYTE   Cs3
 BYTE   W06
 BYTE   Gn2
 BYTE   W06
 BYTE   Cs3
 BYTE   W06
 BYTE   Gn2
 BYTE   W06
 BYTE   Cn3
 BYTE   W06
 BYTE   Fs2
 BYTE   W06
 BYTE   Cn3
 BYTE   W06
 BYTE   Fs2
 BYTE   W06
 BYTE   Cn3
 BYTE   W06
 BYTE   Fs2
 BYTE   W06
 BYTE   Cn3
 BYTE   W06
 BYTE   Fs2
 BYTE   W06
// 008   ----------------------------------------
 BYTE   Cn3
 BYTE   W06
 BYTE   Cs3
 BYTE   W06
 BYTE   Dn3
 BYTE   W06
 BYTE   Ds3
 BYTE   W06
 BYTE   An3
 BYTE   W06
 BYTE   Ds3
 BYTE   W06
 BYTE   Fs3
 BYTE   W06
 BYTE   An3
 BYTE   W06
 BYTE   Cn4
 BYTE   W06
 BYTE   Fs3
 BYTE   W06
 BYTE   An3
 BYTE   W06
 BYTE   Cn4
 BYTE   W06
 BYTE   Ds4
 BYTE   W06
 BYTE   An3
 BYTE   W06
 BYTE   Cn4
 BYTE   W06
 BYTE   Ds4
 BYTE   W06
// 009   ----------------------------------------
 BYTE   Cs3
 BYTE   W06
 BYTE   Gs2
 BYTE   W06
 BYTE   Cs3
 BYTE   W06
 BYTE   Gs2
 BYTE   W06
 BYTE   Cs3
 BYTE   W06
 BYTE   Gs2
 BYTE   W06
 BYTE   N06
 BYTE   W06
 BYTE   Fs2
 BYTE   W06
 BYTE   En2
 BYTE   W06
 BYTE   Fs2
 BYTE   W06
 BYTE   Gs2
 BYTE   W06
 BYTE   As2
 BYTE   W06
 BYTE   Fn3
 BYTE   W06
 BYTE   Bn2
 BYTE   W06
 BYTE   Fn3
 BYTE   W06
 BYTE   Bn2
 BYTE   W06
// 010   ----------------------------------------
 BYTE   Fn3
 BYTE   W06
 BYTE   Bn2
 BYTE   W06
 BYTE   N06
 BYTE   W06
 BYTE   As2
 BYTE   W06
 BYTE   Gs2
 BYTE   W06
 BYTE   As2
 BYTE   W06
 BYTE   Bn2
 BYTE   W06
 BYTE   Dn3
 BYTE   W12
 BYTE   As3
 BYTE   W06
 BYTE   N06
 BYTE   W12
 BYTE   Cs4
 BYTE   W06
 BYTE   N06
 BYTE   W12
 BYTE   N06
 BYTE   W06
// 011   ----------------------------------------
 BYTE   W06
 BYTE   An2
 BYTE   W06
 BYTE   As2
 BYTE   W06
 BYTE   Bn2
 BYTE   W06
 BYTE   Cs3
 BYTE   W06
 BYTE   Ds3
 BYTE   W06
 BYTE   Fn3
 BYTE   W06
 BYTE   Gn3
 BYTE   W06
 BYTE   Bn2
 BYTE   W06
 BYTE   Ds2
 BYTE   W06
 BYTE   Bn2
 BYTE   W06
 BYTE   Ds2
 BYTE   W06
 BYTE   Bn2
 BYTE   W06
 BYTE   Ds2
 BYTE   W06
 BYTE   Bn2
 BYTE   W06
 BYTE   Ds2
 BYTE   W06
// 012   ----------------------------------------
 BYTE   Bn2
 BYTE   W06
 BYTE   Ds2
 BYTE   W06
 BYTE   Bn2
 BYTE   W06
 BYTE   Ds2
 BYTE   W06
 BYTE   Cs3
 BYTE   W06
 BYTE   Gn2
 BYTE   W06
 BYTE   Cs3
 BYTE   W06
 BYTE   Gn2
 BYTE   W06
 BYTE   Cs3
 BYTE   W06
 BYTE   Gn2
 BYTE   W06
 BYTE   Cs3
 BYTE   W06
 BYTE   Gn2
 BYTE   W06
 BYTE   Cs3
 BYTE   W06
 BYTE   Gn2
 BYTE   W06
 BYTE   Cs3
 BYTE   W06
 BYTE   Gn2
 BYTE   W06
// 013   ----------------------------------------
 BYTE   Cn3
 BYTE   W06
 BYTE   Fs2
 BYTE   W06
 BYTE   Cn3
 BYTE   W06
 BYTE   Fs2
 BYTE   W06
 BYTE   Cn3
 BYTE   W06
 BYTE   Fs2
 BYTE   W06
 BYTE   Cn3
 BYTE   W06
 BYTE   Fs2
 BYTE   W06
 BYTE   Cn3
 BYTE   W06
 BYTE   Cs3
 BYTE   W06
 BYTE   Dn3
 BYTE   W06
 BYTE   Ds3
 BYTE   W06
 BYTE   An3
 BYTE   W06
 BYTE   Ds3
 BYTE   W06
 BYTE   Fs3
 BYTE   W06
 BYTE   An3
 BYTE   W06
// 014   ----------------------------------------
 BYTE   Cn4
 BYTE   W06
 BYTE   Fs3
 BYTE   W06
 BYTE   An3
 BYTE   W06
 BYTE   Cn4
 BYTE   W06
 BYTE   Ds4
 BYTE   W06
 BYTE   An3
 BYTE   W06
 BYTE   Cn4
 BYTE   W06
 BYTE   Ds4
 BYTE   W06
 BYTE   Cs3
 BYTE   W06
 BYTE   Gs2
 BYTE   W06
 BYTE   Cs3
 BYTE   W06
 BYTE   Gs2
 BYTE   W06
 BYTE   Cs3
 BYTE   W06
 BYTE   Gs2
 BYTE   W06
 BYTE   N06
 BYTE   W06
 BYTE   Fs2
 BYTE   W06
// 015   ----------------------------------------
 BYTE   En2
 BYTE   W06
 BYTE   Fs2
 BYTE   W06
 BYTE   Gs2
 BYTE   W06
 BYTE   As2
 BYTE   W06
 BYTE   Fn3
 BYTE   W06
 BYTE   Bn2
 BYTE   W06
 BYTE   Fn3
 BYTE   W06
 BYTE   Bn2
 BYTE   W06
 BYTE   Fn3
 BYTE   W06
 BYTE   Bn2
 BYTE   W06
 BYTE   N06
 BYTE   W06
 BYTE   As2
 BYTE   W06
 BYTE   Gs2
 BYTE   W06
 BYTE   As2
 BYTE   W06
 BYTE   Bn2
 BYTE   W06
 BYTE   Dn3
 BYTE   W06
// 016   ----------------------------------------
 BYTE   W06
 BYTE   As3
 BYTE   W06
 BYTE   N06
 BYTE   W12
 BYTE   Cs4
 BYTE   W06
 BYTE   N06
 BYTE   W12
 BYTE   N06
 BYTE   W12
 BYTE   An2
 BYTE   W06
 BYTE   As2
 BYTE   W06
 BYTE   Bn2
 BYTE   W06
 BYTE   Cs3
 BYTE   W06
 BYTE   Ds3
 BYTE   W06
 BYTE   Fn3
 BYTE   W06
 BYTE   Gn3
 BYTE   W06
// 017   ----------------------------------------
 BYTE   N60  Bn2
 BYTE   W60
 BYTE   N06
 BYTE   W06
 BYTE   N06
 BYTE   W06
 BYTE   N60  Dn3
 BYTE   W24
 BYTE   PATT
  POIN2 Label_10_015DAD07
 BYTE   PATT
  POIN2 Label_10_015DAD12
// 018   ----------------------------------------
 BYTE   GoTo
  POIN2 Label_10_015DAD2A
 BYTE   PATT
  POIN2 Label_10_015DAD2A
 BYTE   PATT
  POIN2 Label_10_015DAD4A
 BYTE   FINE

//**************** Track 12 (Midi-Chn.11) ****************//

CastlevaniaCircleoftheMoonBigBattleRandomWizard_012:
// 000   ----------------------------------------
 BYTE   KEYSH   CastlevaniaCircleoftheMoonBigBattleRandomWizard_key+0
 BYTE   VOICE   93
 BYTE   PAN   c_v+37
 BYTE   VOL   17*CastlevaniaCircleoftheMoonBigBattleRandomWizard_mvl/mxv
 BYTE   N60  Bn2  v127
 BYTE   W60
 BYTE   N06
 BYTE   W06
 BYTE   N06
 BYTE   W06
 BYTE   N60  Dn3
 BYTE   W24
// 001   ----------------------------------------
Label_11_015DAF1B:
 BYTE   W36
 BYTE   N12  Dn3  v127
 BYTE   W12
 BYTE   N24  Cs3
 BYTE   W24
 BYTE   N24
 BYTE   W24
 BYTE   PEND 
// 002   ----------------------------------------
Label_11_015DAF26:
 BYTE   N12  Cs3  v127
 BYTE   W12
 BYTE   N04
 BYTE   W04
 BYTE   Dn3
 BYTE   W04
 BYTE   Ds3
 BYTE   W04
 BYTE   N12  En3
 BYTE   W12
 BYTE   Cs3
 BYTE   W12
 BYTE   Gn3
 BYTE   W12
 BYTE   En3
 BYTE   W12
 BYTE   As3
 BYTE   W12
 BYTE   Cs4
 BYTE   W12
 BYTE   PEND 
// 003   ----------------------------------------
Label_11_015DAF3E:
 BYTE   N04  Bn2  v127
 BYTE   W04
 BYTE   N04
 BYTE   W04
 BYTE   N04
 BYTE   W04
 BYTE   N24
 BYTE   W24
 BYTE   N06
 BYTE   W06
 BYTE   N06
 BYTE   W06
 BYTE   N06
 BYTE   W06
 BYTE   N06
 BYTE   W06
 BYTE   N06
 BYTE   W06
 BYTE   N06
 BYTE   W06
 BYTE   N04  Dn3
 BYTE   W04
 BYTE   N04
 BYTE   W04
 BYTE   N04
 BYTE   W04
 BYTE   N30
 BYTE   W12
 BYTE   PEND 
// 004   ----------------------------------------
Label_11_015DAF5E:
 BYTE   W18
 BYTE   N06  Dn3  v127
 BYTE   W06
 BYTE   N06
 BYTE   W06
 BYTE   N06
 BYTE   W06
 BYTE   N06
 BYTE   W06
 BYTE   N06
 BYTE   W06
 BYTE   N04  Cs3
 BYTE   W04
 BYTE   N04
 BYTE   W04
 BYTE   N04
 BYTE   W04
 BYTE   N24
 BYTE   W24
 BYTE   N06
 BYTE   W06
 BYTE   N06
 BYTE   W06
 BYTE   PEND 
// 005   ----------------------------------------
Label_11_015DAF79:
 BYTE   N06  Cs3  v127
 BYTE   W06
 BYTE   N06
 BYTE   W06
 BYTE   N06
 BYTE   W06
 BYTE   N06
 BYTE   W06
 BYTE   N04  Bn2
 BYTE   W04
 BYTE   N04
 BYTE   W04
 BYTE   N04
 BYTE   W04
 BYTE   N42
 BYTE   W42
 BYTE   N06  Ds3
 BYTE   W06
 BYTE   Dn3
 BYTE   W06
 BYTE   Cs3
 BYTE   W06
 BYTE   PEND 
 BYTE   PATT
  POIN2 Label_11_015DAF3E
 BYTE   PATT
  POIN2 Label_11_015DAF5E
 BYTE   PATT
  POIN2 Label_11_015DAF79
// 006   ----------------------------------------
 BYTE   N06  Bn2  v127
 BYTE   W06
 BYTE   Ds2
 BYTE   W06
 BYTE   Bn2
 BYTE   W06
 BYTE   Ds2
 BYTE   W06
 BYTE   Bn2
 BYTE   W06
 BYTE   Ds2
 BYTE   W06
 BYTE   Bn2
 BYTE   W06
 BYTE   Ds2
 BYTE   W06
 BYTE   Bn2
 BYTE   W06
 BYTE   Ds2
 BYTE   W06
 BYTE   Bn2
 BYTE   W06
 BYTE   Ds2
 BYTE   W06
 BYTE   Cs3
 BYTE   W06
 BYTE   Gn2
 BYTE   W06
 BYTE   Cs3
 BYTE   W06
 BYTE   Gn2
 BYTE   W06
// 007   ----------------------------------------
 BYTE   Cs3
 BYTE   W06
 BYTE   Gn2
 BYTE   W06
 BYTE   Cs3
 BYTE   W06
 BYTE   Gn2
 BYTE   W06
 BYTE   Cs3
 BYTE   W06
 BYTE   Gn2
 BYTE   W06
 BYTE   Cs3
 BYTE   W06
 BYTE   Gn2
 BYTE   W06
 BYTE   Cn3
 BYTE   W06
 BYTE   Fs2
 BYTE   W06
 BYTE   Cn3
 BYTE   W06
 BYTE   Fs2
 BYTE   W06
 BYTE   Cn3
 BYTE   W06
 BYTE   Fs2
 BYTE   W06
 BYTE   Cn3
 BYTE   W06
 BYTE   Fs2
 BYTE   W06
// 008   ----------------------------------------
 BYTE   Cn3
 BYTE   W06
 BYTE   Cs3
 BYTE   W06
 BYTE   Dn3
 BYTE   W06
 BYTE   Ds3
 BYTE   W06
 BYTE   An3
 BYTE   W06
 BYTE   Ds3
 BYTE   W06
 BYTE   Fs3
 BYTE   W06
 BYTE   An3
 BYTE   W06
 BYTE   Cn4
 BYTE   W06
 BYTE   Fs3
 BYTE   W06
 BYTE   An3
 BYTE   W06
 BYTE   Cn4
 BYTE   W06
 BYTE   Ds4
 BYTE   W06
 BYTE   An3
 BYTE   W06
 BYTE   Cn4
 BYTE   W06
 BYTE   Ds4
 BYTE   W06
// 009   ----------------------------------------
 BYTE   Cs3
 BYTE   W06
 BYTE   Gs2
 BYTE   W06
 BYTE   Cs3
 BYTE   W06
 BYTE   Gs2
 BYTE   W06
 BYTE   Cs3
 BYTE   W06
 BYTE   Gs2
 BYTE   W06
 BYTE   N06
 BYTE   W06
 BYTE   Fs2
 BYTE   W06
 BYTE   En2
 BYTE   W06
 BYTE   Fs2
 BYTE   W06
 BYTE   Gs2
 BYTE   W06
 BYTE   As2
 BYTE   W06
 BYTE   Fn3
 BYTE   W06
 BYTE   Bn2
 BYTE   W06
 BYTE   Fn3
 BYTE   W06
 BYTE   Bn2
 BYTE   W06
// 010   ----------------------------------------
 BYTE   Fn3
 BYTE   W06
 BYTE   Bn2
 BYTE   W06
 BYTE   N06
 BYTE   W06
 BYTE   As2
 BYTE   W06
 BYTE   Gs2
 BYTE   W06
 BYTE   As2
 BYTE   W06
 BYTE   Bn2
 BYTE   W06
 BYTE   Dn3
 BYTE   W12
 BYTE   As3
 BYTE   W06
 BYTE   N06
 BYTE   W12
 BYTE   Cs4
 BYTE   W06
 BYTE   N06
 BYTE   W12
 BYTE   N06
 BYTE   W06
// 011   ----------------------------------------
 BYTE   W06
 BYTE   An2
 BYTE   W06
 BYTE   As2
 BYTE   W06
 BYTE   Bn2
 BYTE   W06
 BYTE   Cs3
 BYTE   W06
 BYTE   Ds3
 BYTE   W06
 BYTE   Fn3
 BYTE   W06
 BYTE   Gn3
 BYTE   W06
 BYTE   Bn2
 BYTE   W06
 BYTE   Ds2
 BYTE   W06
 BYTE   Bn2
 BYTE   W06
 BYTE   Ds2
 BYTE   W06
 BYTE   Bn2
 BYTE   W06
 BYTE   Ds2
 BYTE   W06
 BYTE   Bn2
 BYTE   W06
 BYTE   Ds2
 BYTE   W06
// 012   ----------------------------------------
 BYTE   Bn2
 BYTE   W06
 BYTE   Ds2
 BYTE   W06
 BYTE   Bn2
 BYTE   W06
 BYTE   Ds2
 BYTE   W06
 BYTE   Cs3
 BYTE   W06
 BYTE   Gn2
 BYTE   W06
 BYTE   Cs3
 BYTE   W06
 BYTE   Gn2
 BYTE   W06
 BYTE   Cs3
 BYTE   W06
 BYTE   Gn2
 BYTE   W06
 BYTE   Cs3
 BYTE   W06
 BYTE   Gn2
 BYTE   W06
 BYTE   Cs3
 BYTE   W06
 BYTE   Gn2
 BYTE   W06
 BYTE   Cs3
 BYTE   W06
 BYTE   Gn2
 BYTE   W06
// 013   ----------------------------------------
 BYTE   Cn3
 BYTE   W06
 BYTE   Fs2
 BYTE   W06
 BYTE   Cn3
 BYTE   W06
 BYTE   Fs2
 BYTE   W06
 BYTE   Cn3
 BYTE   W06
 BYTE   Fs2
 BYTE   W06
 BYTE   Cn3
 BYTE   W06
 BYTE   Fs2
 BYTE   W06
 BYTE   Cn3
 BYTE   W06
 BYTE   Cs3
 BYTE   W06
 BYTE   Dn3
 BYTE   W06
 BYTE   Ds3
 BYTE   W06
 BYTE   An3
 BYTE   W06
 BYTE   Ds3
 BYTE   W06
 BYTE   Fs3
 BYTE   W06
 BYTE   An3
 BYTE   W06
// 014   ----------------------------------------
 BYTE   Cn4
 BYTE   W06
 BYTE   Fs3
 BYTE   W06
 BYTE   An3
 BYTE   W06
 BYTE   Cn4
 BYTE   W06
 BYTE   Ds4
 BYTE   W06
 BYTE   An3
 BYTE   W06
 BYTE   Cn4
 BYTE   W06
 BYTE   Ds4
 BYTE   W06
 BYTE   Cs3
 BYTE   W06
 BYTE   Gs2
 BYTE   W06
 BYTE   Cs3
 BYTE   W06
 BYTE   Gs2
 BYTE   W06
 BYTE   Cs3
 BYTE   W06
 BYTE   Gs2
 BYTE   W06
 BYTE   N06
 BYTE   W06
 BYTE   Fs2
 BYTE   W06
// 015   ----------------------------------------
 BYTE   En2
 BYTE   W06
 BYTE   Fs2
 BYTE   W06
 BYTE   Gs2
 BYTE   W06
 BYTE   As2
 BYTE   W06
 BYTE   Fn3
 BYTE   W06
 BYTE   Bn2
 BYTE   W06
 BYTE   Fn3
 BYTE   W06
 BYTE   Bn2
 BYTE   W06
 BYTE   Fn3
 BYTE   W06
 BYTE   Bn2
 BYTE   W06
 BYTE   N06
 BYTE   W06
 BYTE   As2
 BYTE   W06
 BYTE   Gs2
 BYTE   W06
 BYTE   As2
 BYTE   W06
 BYTE   Bn2
 BYTE   W06
 BYTE   Dn3
 BYTE   W06
// 016   ----------------------------------------
 BYTE   W06
 BYTE   As3
 BYTE   W06
 BYTE   N06
 BYTE   W12
 BYTE   Cs4
 BYTE   W06
 BYTE   N06
 BYTE   W12
 BYTE   N06
 BYTE   W12
 BYTE   An2
 BYTE   W06
 BYTE   As2
 BYTE   W06
 BYTE   Bn2
 BYTE   W06
 BYTE   Cs3
 BYTE   W06
 BYTE   Ds3
 BYTE   W06
 BYTE   Fn3
 BYTE   W06
 BYTE   Gn3
 BYTE   W06
// 017   ----------------------------------------
 BYTE   N60  Bn2
 BYTE   W60
 BYTE   N06
 BYTE   W06
 BYTE   N06
 BYTE   W06
 BYTE   N60  Dn3
 BYTE   W24
 BYTE   PATT
  POIN2 Label_11_015DAF1B
 BYTE   PATT
  POIN2 Label_11_015DAF26
// 018   ----------------------------------------
 BYTE   GoTo
  POIN2 Label_11_015DAF3E
 BYTE   PATT
  POIN2 Label_11_015DAF3E
 BYTE   PATT
  POIN2 Label_11_015DAF5E
 BYTE   FINE

//**************** Track 13 (Midi-Chn.12) ****************//

CastlevaniaCircleoftheMoonBigBattleRandomWizard_013:
// 000   ----------------------------------------
 BYTE   KEYSH   CastlevaniaCircleoftheMoonBigBattleRandomWizard_key+0
 BYTE   VOICE   124
 BYTE   VOL   32*CastlevaniaCircleoftheMoonBigBattleRandomWizard_mvl/mxv
 BYTE   PAN   c_v+5
 BYTE   N03  Cn1  v127
 BYTE   N03  Fs1
 BYTE   N03  Cs2
 BYTE   W24
 BYTE   Fs1
 BYTE   W24
 BYTE   N03
 BYTE   W12
 BYTE   Cn1
 BYTE   N03  Fs1
 BYTE   W06
 BYTE   Cn1
 BYTE   N03  Fs1
 BYTE   W06
 BYTE   Cn1
 BYTE   N03  Fs1
 BYTE   N03  Cs2
 BYTE   W24
// 001   ----------------------------------------
Label_12_015DB13E:
 BYTE   N03  Fs1  v127
 BYTE   W24
 BYTE   N03
 BYTE   W12
 BYTE   Cn1
 BYTE   N03  Fs1
 BYTE   W04
 BYTE   Cn1
 BYTE   N03  Fs1
 BYTE   W04
 BYTE   Cn1
 BYTE   N03  Fs1
 BYTE   W04
 BYTE   Cn1
 BYTE   N03  Fs1
 BYTE   N03  Cs2
 BYTE   W24
 BYTE   Cn1
 BYTE   N03  Fs1
 BYTE   W24
 BYTE   PEND 
// 002   ----------------------------------------
Label_12_015DB15B:
 BYTE   N03  Cn1  v127
 BYTE   N03  Fs1
 BYTE   W24
 BYTE   Cn1
 BYTE   N03  Fs1
 BYTE   N03  Cs2
 BYTE   W12
 BYTE   En1
 BYTE   N03  Fs1
 BYTE   W12
 BYTE   En1
 BYTE   N03  Fs1
 BYTE   W12
 BYTE   En1
 BYTE   N03  Fs1
 BYTE   W12
 BYTE   En1
 BYTE   N03  Fs1
 BYTE   W06
 BYTE   Cn1
 BYTE   W06
 BYTE   N03
 BYTE   N03  En1
 BYTE   N03  Fs1
 BYTE   W06
 BYTE   Cn1
 BYTE   N03  En1
 BYTE   N03  Fs1
 BYTE   W06
 BYTE   PEND 
// 003   ----------------------------------------
Label_12_015DB186:
 BYTE   N03  Cn1  v127
 BYTE   N03  As1
 BYTE   N03  Cs2
 BYTE   W06
 BYTE   Cn1
 BYTE   W06
 BYTE   En1
 BYTE   N03  As1
 BYTE   W12
 BYTE   Cn1
 BYTE   N03  As1
 BYTE   W06
 BYTE   Cn1
 BYTE   W06
 BYTE   En1
 BYTE   N03  As1
 BYTE   W06
 BYTE   Cn1
 BYTE   W06
 BYTE   N03
 BYTE   N03  As1
 BYTE   W06
 BYTE   Cn1
 BYTE   W06
 BYTE   En1
 BYTE   N03  As1
 BYTE   W12
 BYTE   Cn1
 BYTE   N03  As1
 BYTE   W06
 BYTE   Cn1
 BYTE   W06
 BYTE   En1
 BYTE   N03  As1
 BYTE   W12
 BYTE   PEND 
// 004   ----------------------------------------
Label_12_015DB1B5:
 BYTE   N03  Cn1  v127
 BYTE   N03  As1
 BYTE   W06
 BYTE   Cn1
 BYTE   W06
 BYTE   En1
 BYTE   N03  As1
 BYTE   W06
 BYTE   Cn1
 BYTE   W06
 BYTE   N03
 BYTE   N03  As1
 BYTE   W06
 BYTE   Cn1
 BYTE   W06
 BYTE   En1
 BYTE   N03  As1
 BYTE   W12
 BYTE   Cn1
 BYTE   N03  As1
 BYTE   W06
 BYTE   Cn1
 BYTE   W06
 BYTE   En1
 BYTE   N03  As1
 BYTE   W12
 BYTE   Cn1
 BYTE   N03  As1
 BYTE   W06
 BYTE   Cn1
 BYTE   W06
 BYTE   En1
 BYTE   N03  As1
 BYTE   W06
 BYTE   Cn1
 BYTE   W06
 BYTE   PEND 
// 005   ----------------------------------------
Label_12_015DB1E4:
 BYTE   N03  Cn1  v127
 BYTE   N03  As1
 BYTE   W06
 BYTE   Cn1
 BYTE   W06
 BYTE   En1
 BYTE   N03  As1
 BYTE   W12
 BYTE   Cn1
 BYTE   N03  As1
 BYTE   W06
 BYTE   Cn1
 BYTE   W06
 BYTE   En1
 BYTE   N03  As1
 BYTE   W12
 BYTE   Cn1
 BYTE   N03  As1
 BYTE   W06
 BYTE   Cn1
 BYTE   W06
 BYTE   En1
 BYTE   N03  As1
 BYTE   W06
 BYTE   Cn1
 BYTE   W06
 BYTE   N03
 BYTE   N03  As1
 BYTE   W06
 BYTE   Cn1
 BYTE   W06
 BYTE   En1
 BYTE   N03  As1
 BYTE   W12
 BYTE   PEND 
 BYTE   PATT
  POIN2 Label_12_015DB186
 BYTE   PATT
  POIN2 Label_12_015DB1B5
// 006   ----------------------------------------
 BYTE   N03  Cn1  v127
 BYTE   N03  As1
 BYTE   W06
 BYTE   Cn1
 BYTE   W06
 BYTE   En1
 BYTE   N03  As1
 BYTE   W12
 BYTE   Cn1
 BYTE   N03  As1
 BYTE   W06
 BYTE   Cn1
 BYTE   W06
 BYTE   En1
 BYTE   N03  As1
 BYTE   W12
 BYTE   Cn1
 BYTE   N03  As1
 BYTE   W06
 BYTE   Cn1
 BYTE   W06
 BYTE   En1
 BYTE   N03  As1
 BYTE   W06
 BYTE   Cn1
 BYTE   W06
 BYTE   N03
 BYTE   N03  As1
 BYTE   W06
 BYTE   Cn1
 BYTE   W06
 BYTE   En1
 BYTE   N03  As1
 BYTE   W06
 BYTE   Cn1
 BYTE   W06
 BYTE   PATT
  POIN2 Label_12_015DB186
 BYTE   PATT
  POIN2 Label_12_015DB1B5
 BYTE   PATT
  POIN2 Label_12_015DB1E4
 BYTE   PATT
  POIN2 Label_12_015DB186
// 007   ----------------------------------------
 BYTE   N03  Cn1  v127
 BYTE   N03  As1
 BYTE   W06
 BYTE   Cn1
 BYTE   W06
 BYTE   En1
 BYTE   N03  As1
 BYTE   W06
 BYTE   Cn1
 BYTE   W06
 BYTE   N03
 BYTE   N03  As1
 BYTE   W06
 BYTE   Cn1
 BYTE   W06
 BYTE   En1
 BYTE   N03  As1
 BYTE   W12
 BYTE   Cn1
 BYTE   N03  Cs2
 BYTE   W06
 BYTE   En1
 BYTE   W06
 BYTE   N03
 BYTE   W06
 BYTE   Cn1
 BYTE   W06
 BYTE   En1
 BYTE   W06
 BYTE   N03
 BYTE   W06
 BYTE   Cn1
 BYTE   W06
 BYTE   En1
 BYTE   N03  An2
 BYTE   W06
// 008   ----------------------------------------
 BYTE   Cn1
 BYTE   W06
 BYTE   N03
 BYTE   W06
 BYTE   N03
 BYTE   W06
 BYTE   En1
 BYTE   W06
 BYTE   N03
 BYTE   W06
 BYTE   N03
 BYTE   W06
 BYTE   N03
 BYTE   W06
 BYTE   N03
 BYTE   W06
 BYTE   Cn1
 BYTE   N03  As1
 BYTE   N03  Cs2
 BYTE   W06
 BYTE   Cn1
 BYTE   W06
 BYTE   En1
 BYTE   N03  As1
 BYTE   W12
 BYTE   Cn1
 BYTE   N03  As1
 BYTE   W06
 BYTE   Cn1
 BYTE   W06
 BYTE   En1
 BYTE   N03  As1
 BYTE   W06
 BYTE   Cn1
 BYTE   W06
 BYTE   PATT
  POIN2 Label_12_015DB1E4
// 009   ----------------------------------------
 BYTE   N03  Cn1  v127
 BYTE   N03  As1
 BYTE   W06
 BYTE   Cn1
 BYTE   W06
 BYTE   En1
 BYTE   N03  As1
 BYTE   W12
 BYTE   Cn1
 BYTE   N03  As1
 BYTE   W06
 BYTE   Cn1
 BYTE   W06
 BYTE   En1
 BYTE   N03  As1
 BYTE   W06
 BYTE   Cn1
 BYTE   W06
 BYTE   N03
 BYTE   N03  As1
 BYTE   W06
 BYTE   Cn1
 BYTE   W06
 BYTE   En1
 BYTE   N03  As1
 BYTE   W12
 BYTE   Cn1
 BYTE   N03  As1
 BYTE   W06
 BYTE   Cn1
 BYTE   W06
 BYTE   En1
 BYTE   N03  As1
 BYTE   W12
// 010   ----------------------------------------
 BYTE   Cn1
 BYTE   N03  As1
 BYTE   W06
 BYTE   Cn1
 BYTE   W06
 BYTE   En1
 BYTE   N03  As1
 BYTE   W06
 BYTE   Cn1
 BYTE   W06
 BYTE   N03
 BYTE   N03  As1
 BYTE   W06
 BYTE   Cn1
 BYTE   W06
 BYTE   En1
 BYTE   N03  As1
 BYTE   W12
 BYTE   Cn1
 BYTE   N03  As1
 BYTE   N03  Cs2
 BYTE   W06
 BYTE   Cn1
 BYTE   W06
 BYTE   En1
 BYTE   N03  As1
 BYTE   W12
 BYTE   Cn1
 BYTE   N03  As1
 BYTE   W06
 BYTE   Cn1
 BYTE   W06
 BYTE   En1
 BYTE   N03  As1
 BYTE   W06
 BYTE   Cn1
 BYTE   W06
 BYTE   PATT
  POIN2 Label_12_015DB1E4
// 011   ----------------------------------------
 BYTE   N03  Cn1  v127
 BYTE   N03  Cs2
 BYTE   W06
 BYTE   En1
 BYTE   W06
 BYTE   N03
 BYTE   W06
 BYTE   Cn1
 BYTE   W06
 BYTE   En1
 BYTE   W06
 BYTE   N03
 BYTE   W06
 BYTE   Cn1
 BYTE   W06
 BYTE   En1
 BYTE   N03  An2
 BYTE   W06
 BYTE   Cn1
 BYTE   W06
 BYTE   N03
 BYTE   W06
 BYTE   N03
 BYTE   W06
 BYTE   En1
 BYTE   W06
 BYTE   N03
 BYTE   W06
 BYTE   N03
 BYTE   W06
 BYTE   N03
 BYTE   W06
 BYTE   N03
 BYTE   W06
// 012   ----------------------------------------
 BYTE   Cn1
 BYTE   N03  Fs1
 BYTE   N03  Cs2
 BYTE   W24
 BYTE   Fs1
 BYTE   W24
 BYTE   N03
 BYTE   W12
 BYTE   Cn1
 BYTE   N03  Fs1
 BYTE   W06
 BYTE   Cn1
 BYTE   N03  Fs1
 BYTE   W06
 BYTE   Cn1
 BYTE   N03  Fs1
 BYTE   N03  Cs2
 BYTE   W24
 BYTE   PATT
  POIN2 Label_12_015DB13E
 BYTE   PATT
  POIN2 Label_12_015DB15B
// 013   ----------------------------------------
 BYTE   GoTo
  POIN2 Label_12_015DB186
 BYTE   PATT
  POIN2 Label_12_015DB186
 BYTE   PATT
  POIN2 Label_12_015DB1B5
 BYTE   FINE

//**************** Track 14 (Midi-Chn.13) ****************//

CastlevaniaCircleoftheMoonBigBattleRandomWizard_014:
// 000   ----------------------------------------
 BYTE   KEYSH   CastlevaniaCircleoftheMoonBigBattleRandomWizard_key+0
 BYTE   VOICE   124
 BYTE   VOL   36*CastlevaniaCircleoftheMoonBigBattleRandomWizard_mvl/mxv
 BYTE   PAN   c_v+5
 BYTE   N03  Cn1  v127
 BYTE   N03  Fs1
 BYTE   N03  Cs2
 BYTE   W24
 BYTE   Fs1
 BYTE   W24
 BYTE   N03
 BYTE   W12
 BYTE   Cn1
 BYTE   N03  Fs1
 BYTE   W04
 BYTE   Cn1
 BYTE   N03  Fs1
 BYTE   W04
 BYTE   Cn1
 BYTE   N03  Fs1
 BYTE   W04
 BYTE   Cn1
 BYTE   N03  Fs1
 BYTE   N03  Cs2
 BYTE   W24
// 001   ----------------------------------------
Label_13_015DB396:
 BYTE   N03  Cn1  v127
 BYTE   N03  Fs1
 BYTE   W24
 BYTE   Cn1
 BYTE   N03  Fs1
 BYTE   W24
 BYTE   Cn1
 BYTE   N03  Fs1
 BYTE   N03  Cs2
 BYTE   W12
 BYTE   En1
 BYTE   N03  Fs1
 BYTE   W12
 BYTE   En1
 BYTE   N03  Fs1
 BYTE   W12
 BYTE   En1
 BYTE   N03  Fs1
 BYTE   W12
 BYTE   PEND 
// 002   ----------------------------------------
Label_13_015DB3B3:
 BYTE   N03  En1  v127
 BYTE   N03  Fs1
 BYTE   W06
 BYTE   Cn1
 BYTE   W06
 BYTE   N03
 BYTE   N03  En1
 BYTE   N03  Fs1
 BYTE   W06
 BYTE   Cn1
 BYTE   N03  En1
 BYTE   N03  Fs1
 BYTE   W06
 BYTE   Cn1
 BYTE   N03  As1
 BYTE   N03  Cs2
 BYTE   W06
 BYTE   Cn1
 BYTE   W06
 BYTE   En1
 BYTE   N03  As1
 BYTE   W12
 BYTE   Cn1
 BYTE   N03  As1
 BYTE   W06
 BYTE   Cn1
 BYTE   W06
 BYTE   En1
 BYTE   N03  As1
 BYTE   W06
 BYTE   Cn1
 BYTE   W06
 BYTE   N03
 BYTE   N03  As1
 BYTE   W06
 BYTE   Cn1
 BYTE   W06
 BYTE   En1
 BYTE   N03  As1
 BYTE   W12
 BYTE   PEND 
// 003   ----------------------------------------
Label_13_015DB3EA:
 BYTE   N03  Cn1  v127
 BYTE   N03  As1
 BYTE   W06
 BYTE   Cn1
 BYTE   W06
 BYTE   En1
 BYTE   N03  As1
 BYTE   W12
 BYTE   Cn1
 BYTE   N03  As1
 BYTE   W06
 BYTE   Cn1
 BYTE   W06
 BYTE   En1
 BYTE   N03  As1
 BYTE   W06
 BYTE   Cn1
 BYTE   W06
 BYTE   N03
 BYTE   N03  As1
 BYTE   W06
 BYTE   Cn1
 BYTE   W06
 BYTE   En1
 BYTE   N03  As1
 BYTE   W12
 BYTE   Cn1
 BYTE   N03  As1
 BYTE   W06
 BYTE   Cn1
 BYTE   W06
 BYTE   En1
 BYTE   N03  As1
 BYTE   W12
 BYTE   PEND 
// 004   ----------------------------------------
Label_13_015DB417:
 BYTE   N03  Cn1  v127
 BYTE   N03  As1
 BYTE   W06
 BYTE   Cn1
 BYTE   W06
 BYTE   En1
 BYTE   N03  As1
 BYTE   W06
 BYTE   Cn1
 BYTE   W06
 BYTE   N03
 BYTE   N03  As1
 BYTE   W06
 BYTE   Cn1
 BYTE   W06
 BYTE   En1
 BYTE   N03  As1
 BYTE   W12
 BYTE   Cn1
 BYTE   N03  As1
 BYTE   W06
 BYTE   Cn1
 BYTE   W06
 BYTE   En1
 BYTE   N03  As1
 BYTE   W12
 BYTE   Cn1
 BYTE   N03  As1
 BYTE   W06
 BYTE   Cn1
 BYTE   W06
 BYTE   En1
 BYTE   N03  As1
 BYTE   W06
 BYTE   Cn1
 BYTE   W06
 BYTE   PEND 
// 005   ----------------------------------------
Label_13_015DB446:
 BYTE   N03  Cn1  v127
 BYTE   N03  As1
 BYTE   W06
 BYTE   Cn1
 BYTE   W06
 BYTE   En1
 BYTE   N03  As1
 BYTE   W12
 BYTE   Cn1
 BYTE   N03  As1
 BYTE   N03  Cs2
 BYTE   W06
 BYTE   Cn1
 BYTE   W06
 BYTE   En1
 BYTE   N03  As1
 BYTE   W12
 BYTE   Cn1
 BYTE   N03  As1
 BYTE   W06
 BYTE   Cn1
 BYTE   W06
 BYTE   En1
 BYTE   N03  As1
 BYTE   W06
 BYTE   Cn1
 BYTE   W06
 BYTE   N03
 BYTE   N03  As1
 BYTE   W06
 BYTE   Cn1
 BYTE   W06
 BYTE   En1
 BYTE   N03  As1
 BYTE   W12
 BYTE   PEND 
 BYTE   PATT
  POIN2 Label_13_015DB3EA
 BYTE   PATT
  POIN2 Label_13_015DB417
// 006   ----------------------------------------
 BYTE   N03  Cn1  v127
 BYTE   N03  As1
 BYTE   W06
 BYTE   Cn1
 BYTE   W06
 BYTE   En1
 BYTE   N03  As1
 BYTE   W06
 BYTE   Cn1
 BYTE   W06
 BYTE   N03
 BYTE   N03  As1
 BYTE   N03  Cs2
 BYTE   W06
 BYTE   Cn1
 BYTE   W06
 BYTE   En1
 BYTE   N03  As1
 BYTE   W12
 BYTE   Cn1
 BYTE   N03  As1
 BYTE   W06
 BYTE   Cn1
 BYTE   W06
 BYTE   En1
 BYTE   N03  As1
 BYTE   W06
 BYTE   Cn1
 BYTE   W06
 BYTE   N03
 BYTE   N03  As1
 BYTE   W06
 BYTE   Cn1
 BYTE   W06
 BYTE   En1
 BYTE   N03  As1
 BYTE   W12
 BYTE   PATT
  POIN2 Label_13_015DB3EA
 BYTE   PATT
  POIN2 Label_13_015DB417
 BYTE   PATT
  POIN2 Label_13_015DB446
// 007   ----------------------------------------
 BYTE   N03  Cn1  v127
 BYTE   N03  As1
 BYTE   W06
 BYTE   Cn1
 BYTE   W06
 BYTE   En1
 BYTE   N03  As1
 BYTE   W12
 BYTE   Cn1
 BYTE   N03  As1
 BYTE   W06
 BYTE   Cn1
 BYTE   W06
 BYTE   En1
 BYTE   N03  As1
 BYTE   W06
 BYTE   Cn1
 BYTE   W06
 BYTE   N03
 BYTE   N03  As1
 BYTE   W06
 BYTE   Cn1
 BYTE   W06
 BYTE   En1
 BYTE   N03  As1
 BYTE   W12
 BYTE   Cn1
 BYTE   N03  Cs2
 BYTE   W06
 BYTE   En1
 BYTE   W06
 BYTE   N03
 BYTE   W06
 BYTE   Cn1
 BYTE   W06
// 008   ----------------------------------------
 BYTE   En1
 BYTE   W06
 BYTE   N03
 BYTE   W06
 BYTE   Cn1
 BYTE   W06
 BYTE   En1
 BYTE   N03  An2
 BYTE   W06
 BYTE   Cn1
 BYTE   W06
 BYTE   N03
 BYTE   W06
 BYTE   N03
 BYTE   W06
 BYTE   En1
 BYTE   W06
 BYTE   N03
 BYTE   W06
 BYTE   N03
 BYTE   W06
 BYTE   N03
 BYTE   W06
 BYTE   N03
 BYTE   W06
 BYTE   Cn1
 BYTE   N03  As1
 BYTE   N03  Cs2
 BYTE   W06
 BYTE   Cn1
 BYTE   W06
 BYTE   En1
 BYTE   N03  As1
 BYTE   W12
 BYTE   PATT
  POIN2 Label_13_015DB417
// 009   ----------------------------------------
 BYTE   N03  Cn1  v127
 BYTE   N03  As1
 BYTE   W06
 BYTE   Cn1
 BYTE   W06
 BYTE   En1
 BYTE   N03  As1
 BYTE   W12
 BYTE   Cn1
 BYTE   N03  As1
 BYTE   W06
 BYTE   Cn1
 BYTE   W06
 BYTE   En1
 BYTE   N03  As1
 BYTE   W12
 BYTE   Cn1
 BYTE   N03  As1
 BYTE   W06
 BYTE   Cn1
 BYTE   W06
 BYTE   En1
 BYTE   N03  As1
 BYTE   W06
 BYTE   Cn1
 BYTE   W06
 BYTE   N03
 BYTE   N03  As1
 BYTE   W06
 BYTE   Cn1
 BYTE   W06
 BYTE   En1
 BYTE   N03  As1
 BYTE   W12
// 010   ----------------------------------------
 BYTE   Cn1
 BYTE   N03  As1
 BYTE   W06
 BYTE   Cn1
 BYTE   W06
 BYTE   En1
 BYTE   N03  As1
 BYTE   W12
 BYTE   Cn1
 BYTE   N03  As1
 BYTE   W06
 BYTE   Cn1
 BYTE   W06
 BYTE   En1
 BYTE   N03  As1
 BYTE   W06
 BYTE   Cn1
 BYTE   W06
 BYTE   N03
 BYTE   N03  As1
 BYTE   W06
 BYTE   Cn1
 BYTE   W06
 BYTE   En1
 BYTE   N03  As1
 BYTE   W12
 BYTE   Cn1
 BYTE   N03  As1
 BYTE   N03  Cs2
 BYTE   W06
 BYTE   Cn1
 BYTE   W06
 BYTE   En1
 BYTE   N03  As1
 BYTE   W12
 BYTE   PATT
  POIN2 Label_13_015DB417
// 011   ----------------------------------------
 BYTE   N03  Cn1  v127
 BYTE   N03  As1
 BYTE   W06
 BYTE   Cn1
 BYTE   W06
 BYTE   En1
 BYTE   N03  As1
 BYTE   W12
 BYTE   Cn1
 BYTE   N03  Cs2
 BYTE   W06
 BYTE   En1
 BYTE   W06
 BYTE   N03
 BYTE   W06
 BYTE   Cn1
 BYTE   W06
 BYTE   En1
 BYTE   W06
 BYTE   N03
 BYTE   W06
 BYTE   Cn1
 BYTE   W06
 BYTE   En1
 BYTE   N03  An2
 BYTE   W06
 BYTE   Cn1
 BYTE   W06
 BYTE   N03
 BYTE   W06
 BYTE   N03
 BYTE   W06
 BYTE   En1
 BYTE   W06
// 012   ----------------------------------------
 BYTE   N03
 BYTE   W06
 BYTE   N03
 BYTE   W06
 BYTE   N03
 BYTE   W06
 BYTE   N03
 BYTE   W06
 BYTE   Cn1
 BYTE   N03  Fs1
 BYTE   N03  Cs2
 BYTE   W24
 BYTE   Fs1
 BYTE   W24
 BYTE   N03
 BYTE   W12
 BYTE   Cn1
 BYTE   N03  Fs1
 BYTE   W06
 BYTE   Cn1
 BYTE   N03  Fs1
 BYTE   W06
// 013   ----------------------------------------
 BYTE   Cn1
 BYTE   N03  Fs1
 BYTE   N03  Cs2
 BYTE   W24
 BYTE   Fs1
 BYTE   W24
 BYTE   N03
 BYTE   W12
 BYTE   Cn1
 BYTE   N03  Fs1
 BYTE   W04
 BYTE   Cn1
 BYTE   N03  Fs1
 BYTE   W04
 BYTE   Cn1
 BYTE   N03  Fs1
 BYTE   W04
 BYTE   Cn1
 BYTE   N03  Fs1
 BYTE   N03  Cs2
 BYTE   W24
 BYTE   PATT
  POIN2 Label_13_015DB396
 BYTE   PATT
  POIN2 Label_13_015DB3B3
// 014   ----------------------------------------
 BYTE   GoTo
  POIN2 Label_13_015DB3EA
 BYTE   PATT
  POIN2 Label_13_015DB3EA
 BYTE   PATT
  POIN2 Label_13_015DB417
 BYTE   FINE

//******************************************************//
	ALIGN 4

CastlevaniaCircleoftheMoonBigBattleRandomWizard:
	BYTE	14	// NumTrks
	BYTE	0	// NumBlks
	BYTE	CastlevaniaCircleoftheMoonBigBattleRandomWizard_pri	// Priority
	BYTE	CastlevaniaCircleoftheMoonBigBattleRandomWizard_rev	// Reverb.
    
	POIN2	CastlevaniaCircleoftheMoonBigBattleRandomWizard_grp
    
	POIN2	CastlevaniaCircleoftheMoonBigBattleRandomWizard_001
	POIN2	CastlevaniaCircleoftheMoonBigBattleRandomWizard_002
	POIN2	CastlevaniaCircleoftheMoonBigBattleRandomWizard_003
	POIN2	CastlevaniaCircleoftheMoonBigBattleRandomWizard_004
	POIN2	CastlevaniaCircleoftheMoonBigBattleRandomWizard_005
	POIN2	CastlevaniaCircleoftheMoonBigBattleRandomWizard_006
	POIN2	CastlevaniaCircleoftheMoonBigBattleRandomWizard_007
	POIN2	CastlevaniaCircleoftheMoonBigBattleRandomWizard_008
	POIN2	CastlevaniaCircleoftheMoonBigBattleRandomWizard_009
	POIN2	CastlevaniaCircleoftheMoonBigBattleRandomWizard_010
	POIN2	CastlevaniaCircleoftheMoonBigBattleRandomWizard_011
	POIN2	CastlevaniaCircleoftheMoonBigBattleRandomWizard_012
	POIN2	CastlevaniaCircleoftheMoonBigBattleRandomWizard_013
	POIN2	CastlevaniaCircleoftheMoonBigBattleRandomWizard_014

	
