//Event file generated from Sappy .s format.
	#include "MPlayDef.event"

	#define	CastlevaniaOrderofEcclesiaRhapsodyoftheForsaken_grp  voicegroup000
	#define	CastlevaniaOrderofEcclesiaRhapsodyoftheForsaken_pri  0
	#define	CastlevaniaOrderofEcclesiaRhapsodyoftheForsaken_rev  0
	#define	CastlevaniaOrderofEcclesiaRhapsodyoftheForsaken_mvl  95
	#define	CastlevaniaOrderofEcclesiaRhapsodyoftheForsaken_key  0
	#define	CastlevaniaOrderofEcclesiaRhapsodyoftheForsaken_tbs  1
	#define	CastlevaniaOrderofEcclesiaRhapsodyoftheForsaken_exg  0
	#define	CastlevaniaOrderofEcclesiaRhapsodyoftheForsaken_cmp  1

	// .rodata
	//	CastlevaniaOrderofEcclesiaRhapsodyoftheForsaken
	ALIGN 4

//**************** Track 1 (Midi-Chn.1) ****************//

CastlevaniaOrderofEcclesiaRhapsodyoftheForsaken_1:
	BYTE	KEYSH   CastlevaniaOrderofEcclesiaRhapsodyoftheForsaken_key+0
// 000   ----------------------------------------
	BYTE	TEMPO   160*CastlevaniaOrderofEcclesiaRhapsodyoftheForsaken_tbs/2
	BYTE		VOICE   121
	BYTE		MODT    0
	BYTE		LFOS    44
	BYTE		VOL     120*CastlevaniaOrderofEcclesiaRhapsodyoftheForsaken_mvl/mxv
	BYTE	W96
// 001   ----------------------------------------
	BYTE	W72
	BYTE		N04     Cn1   v100
	BYTE	W11
	BYTE		        En1   v084
	BYTE	W13
// 002   ----------------------------------------
	BYTE	W12
	BYTE		        Cn1   v100
	BYTE		N32     An2   v092
	BYTE	W18
	BYTE		N04     Cn1   v100
	BYTE	W05
	BYTE		        En1   v084
	BYTE	W13
	BYTE		N02     Fs1   v032
	BYTE	W06
	BYTE		N04     Cn1   v092
	BYTE	W06
	BYTE		N02     Fs1   v052
	BYTE	W06
	BYTE		N04     Cs1   v080
	BYTE	W06
	BYTE		        Cn1   v100
	BYTE		N02     Fs1   v032
	BYTE	W11
	BYTE		N04     En1   v084
	BYTE	W01
	BYTE		N02     Fs1   v052
	BYTE	W12
// 003   ----------------------------------------
CastlevaniaOrderofEcclesiaRhapsodyoftheForsaken_1_003:
	BYTE		N02     Fs1   v032
	BYTE	W06
	BYTE		N04     Cn1   v100
	BYTE	W06
	BYTE		N04   
	BYTE		N02     Fs1   v052
	BYTE	W12
	BYTE		        Fs1   v032
	BYTE	W06
	BYTE		N04     Cn1   v100
	BYTE	W05
	BYTE		        En1   v084
	BYTE	W01
	BYTE		N02     Fs1   v052
	BYTE	W12
	BYTE		        Fs1   v032
	BYTE	W06
	BYTE		N04     Cn1   v092
	BYTE	W06
	BYTE		N02     Fs1   v052
	BYTE	W06
	BYTE		N04     Cs1   v080
	BYTE	W06
	BYTE		        Cn1   v100
	BYTE		N02     Fs1   v032
	BYTE	W11
	BYTE		N04     En1   v084
	BYTE	W01
	BYTE		N02     Fs1   v052
	BYTE	W05
	BYTE		N04     En1   v084
	BYTE	W07
	BYTE	PEND
// 004   ----------------------------------------
CastlevaniaOrderofEcclesiaRhapsodyoftheForsaken_1_004:
	BYTE		N02     Fs1   v032
	BYTE	W06
	BYTE		N04     Cn1   v100
	BYTE	W06
	BYTE		N04   
	BYTE		N02     Fs1   v052
	BYTE	W12
	BYTE		        Fs1   v032
	BYTE	W06
	BYTE		N04     Cn1   v100
	BYTE	W05
	BYTE		        En1   v084
	BYTE	W01
	BYTE		N02     Fs1   v052
	BYTE	W12
	BYTE		        Fs1   v032
	BYTE	W06
	BYTE		N04     Cn1   v092
	BYTE	W06
	BYTE		N02     Fs1   v052
	BYTE	W06
	BYTE		N04     Cs1   v080
	BYTE	W06
	BYTE		        Cn1   v100
	BYTE		N02     Fs1   v032
	BYTE	W11
	BYTE		N04     En1   v084
	BYTE	W01
	BYTE		N02     Fs1   v052
	BYTE	W12
	BYTE	PEND
// 005   ----------------------------------------
	BYTE	PATT
	 POIN2	CastlevaniaOrderofEcclesiaRhapsodyoftheForsaken_1_003
// 006   ----------------------------------------
CastlevaniaOrderofEcclesiaRhapsodyoftheForsaken_1_006:
	BYTE		N02     Fs1   v032
	BYTE	W06
	BYTE		N04     Cn1   v100
	BYTE	W06
	BYTE		N04   
	BYTE		N32     An2   v092
	BYTE	W18
	BYTE		N04     Cn1   v100
	BYTE	W05
	BYTE		        En1   v084
	BYTE	W13
	BYTE		N02     Fs1   v032
	BYTE	W06
	BYTE		N04     Cn1   v092
	BYTE	W06
	BYTE		N02     Fs1   v052
	BYTE	W06
	BYTE		N04     Cs1   v080
	BYTE	W06
	BYTE		        Cn1   v100
	BYTE		N02     Fs1   v032
	BYTE	W11
	BYTE		N04     En1   v084
	BYTE	W01
	BYTE		N02     Fs1   v052
	BYTE	W12
	BYTE	PEND
// 007   ----------------------------------------
	BYTE	PATT
	 POIN2	CastlevaniaOrderofEcclesiaRhapsodyoftheForsaken_1_003
// 008   ----------------------------------------
	BYTE	PATT
	 POIN2	CastlevaniaOrderofEcclesiaRhapsodyoftheForsaken_1_004
// 009   ----------------------------------------
	BYTE	PATT
	 POIN2	CastlevaniaOrderofEcclesiaRhapsodyoftheForsaken_1_003
// 010   ----------------------------------------
CastlevaniaOrderofEcclesiaRhapsodyoftheForsaken_1_010:
	BYTE		N02     Fs1   v032
	BYTE	W06
	BYTE		N04     Cn1   v100
	BYTE	W06
	BYTE	PEND
CastlevaniaOrderofEcclesiaRhapsodyoftheForsaken_1_B1:
	BYTE		N04     Cn1   v100
	BYTE		N32     An2   v092
	BYTE	W18
	BYTE		N04     Cn1   v100
	BYTE	W05
	BYTE		        En1   v084
	BYTE	W13
	BYTE		N02     Fs1   v032
	BYTE	W06
	BYTE		N04     Cn1   v092
	BYTE	W06
	BYTE		N02     Fs1   v052
	BYTE	W06
	BYTE		N04     Cs1   v080
	BYTE	W06
	BYTE		        Cn1   v100
	BYTE		N02     Fs1   v032
	BYTE	W11
	BYTE		N04     En1   v084
	BYTE	W01
	BYTE		N02     Fs1   v052
	BYTE	W12
// 011   ----------------------------------------
	BYTE	PATT
	 POIN2	CastlevaniaOrderofEcclesiaRhapsodyoftheForsaken_1_003
// 012   ----------------------------------------
	BYTE	PATT
	 POIN2	CastlevaniaOrderofEcclesiaRhapsodyoftheForsaken_1_004
// 013   ----------------------------------------
	BYTE	PATT
	 POIN2	CastlevaniaOrderofEcclesiaRhapsodyoftheForsaken_1_003
// 014   ----------------------------------------
	BYTE	PATT
	 POIN2	CastlevaniaOrderofEcclesiaRhapsodyoftheForsaken_1_004
// 015   ----------------------------------------
	BYTE	PATT
	 POIN2	CastlevaniaOrderofEcclesiaRhapsodyoftheForsaken_1_003
// 016   ----------------------------------------
	BYTE	PATT
	 POIN2	CastlevaniaOrderofEcclesiaRhapsodyoftheForsaken_1_004
// 017   ----------------------------------------
	BYTE	PATT
	 POIN2	CastlevaniaOrderofEcclesiaRhapsodyoftheForsaken_1_003
// 018   ----------------------------------------
	BYTE	PATT
	 POIN2	CastlevaniaOrderofEcclesiaRhapsodyoftheForsaken_1_004
// 019   ----------------------------------------
	BYTE	PATT
	 POIN2	CastlevaniaOrderofEcclesiaRhapsodyoftheForsaken_1_003
// 020   ----------------------------------------
	BYTE	PATT
	 POIN2	CastlevaniaOrderofEcclesiaRhapsodyoftheForsaken_1_004
// 021   ----------------------------------------
	BYTE	PATT
	 POIN2	CastlevaniaOrderofEcclesiaRhapsodyoftheForsaken_1_003
// 022   ----------------------------------------
	BYTE	PATT
	 POIN2	CastlevaniaOrderofEcclesiaRhapsodyoftheForsaken_1_004
// 023   ----------------------------------------
	BYTE	PATT
	 POIN2	CastlevaniaOrderofEcclesiaRhapsodyoftheForsaken_1_003
// 024   ----------------------------------------
	BYTE	PATT
	 POIN2	CastlevaniaOrderofEcclesiaRhapsodyoftheForsaken_1_004
// 025   ----------------------------------------
	BYTE	PATT
	 POIN2	CastlevaniaOrderofEcclesiaRhapsodyoftheForsaken_1_003
// 026   ----------------------------------------
CastlevaniaOrderofEcclesiaRhapsodyoftheForsaken_1_026:
	BYTE		N02     Fs1   v032
	BYTE	W06
	BYTE		N04     Cn1   v100
	BYTE	W06
	BYTE		N04   
	BYTE		N32     An2   v092
	BYTE	W18
	BYTE		N04     Cn1   v100
	BYTE	W05
	BYTE		        En1   v084
	BYTE	W01
	BYTE		N02     Fs1   v052
	BYTE	W12
	BYTE		        Fs1   v032
	BYTE	W06
	BYTE		N04     Cn1   v092
	BYTE	W06
	BYTE		N02     Fs1   v052
	BYTE	W06
	BYTE		N04     Cs1   v080
	BYTE	W06
	BYTE		        Cn1   v100
	BYTE		N02     Fs1   v032
	BYTE	W11
	BYTE		N04     En1   v084
	BYTE	W01
	BYTE		N02     Fs1   v052
	BYTE	W12
	BYTE	PEND
// 027   ----------------------------------------
	BYTE	PATT
	 POIN2	CastlevaniaOrderofEcclesiaRhapsodyoftheForsaken_1_003
// 028   ----------------------------------------
	BYTE	PATT
	 POIN2	CastlevaniaOrderofEcclesiaRhapsodyoftheForsaken_1_004
// 029   ----------------------------------------
	BYTE	PATT
	 POIN2	CastlevaniaOrderofEcclesiaRhapsodyoftheForsaken_1_003
// 030   ----------------------------------------
	BYTE	PATT
	 POIN2	CastlevaniaOrderofEcclesiaRhapsodyoftheForsaken_1_004
// 031   ----------------------------------------
	BYTE	PATT
	 POIN2	CastlevaniaOrderofEcclesiaRhapsodyoftheForsaken_1_003
// 032   ----------------------------------------
	BYTE	PATT
	 POIN2	CastlevaniaOrderofEcclesiaRhapsodyoftheForsaken_1_004
// 033   ----------------------------------------
	BYTE	PATT
	 POIN2	CastlevaniaOrderofEcclesiaRhapsodyoftheForsaken_1_003
// 034   ----------------------------------------
	BYTE		N11     Fn1   v056
	BYTE		N02     Fs1   v032
	BYTE	W06
	BYTE		N04     Cn1   v100
	BYTE	W06
	BYTE		N04   
	BYTE		N32     An2   v092
	BYTE	W18
	BYTE		N04     Cn1   v100
	BYTE	W05
	BYTE		        En1   v084
	BYTE	W13
	BYTE		N02     Fs1   v032
	BYTE	W06
	BYTE		N04     Cn1   v092
	BYTE	W06
	BYTE		N02     Fs1   v052
	BYTE	W06
	BYTE		N04     Cs1   v080
	BYTE	W06
	BYTE		        Cn1   v100
	BYTE		N02     Fs1   v032
	BYTE	W11
	BYTE		N04     En1   v084
	BYTE	W01
	BYTE		N02     Fs1   v052
	BYTE	W12
// 035   ----------------------------------------
	BYTE	PATT
	 POIN2	CastlevaniaOrderofEcclesiaRhapsodyoftheForsaken_1_003
// 036   ----------------------------------------
	BYTE	PATT
	 POIN2	CastlevaniaOrderofEcclesiaRhapsodyoftheForsaken_1_004
// 037   ----------------------------------------
	BYTE	PATT
	 POIN2	CastlevaniaOrderofEcclesiaRhapsodyoftheForsaken_1_003
// 038   ----------------------------------------
	BYTE	PATT
	 POIN2	CastlevaniaOrderofEcclesiaRhapsodyoftheForsaken_1_004
// 039   ----------------------------------------
	BYTE	PATT
	 POIN2	CastlevaniaOrderofEcclesiaRhapsodyoftheForsaken_1_003
// 040   ----------------------------------------
	BYTE	PATT
	 POIN2	CastlevaniaOrderofEcclesiaRhapsodyoftheForsaken_1_004
// 041   ----------------------------------------
	BYTE		N02     Fs1   v032
	BYTE	W06
	BYTE		N04     Cn1   v100
	BYTE	W06
	BYTE		N04   
	BYTE		N02     Fs1   v052
	BYTE		N03     Cn2   v072
	BYTE	W06
	BYTE		        Cn2   v060
	BYTE	W12
	BYTE		        Cn2   v072
	BYTE	W06
	BYTE		N02     Fs1   v052
	BYTE		N03     An1   v072
	BYTE	W12
	BYTE		N03   
	BYTE	W06
	BYTE		        An1   v060
	BYTE	W06
	BYTE		N04     Cn1   v092
	BYTE		N02     Fs1   v052
	BYTE	W12
	BYTE		N04     Cn1   v100
	BYTE		N03     An1   v072
	BYTE	W06
	BYTE		        An1   v060
	BYTE	W06
	BYTE		N02     Fs1   v052
	BYTE		N03     Gn1   v072
	BYTE	W06
	BYTE		        Gn1   v060
	BYTE	W06
// 042   ----------------------------------------
	BYTE		        Fn1   v072
	BYTE	W06
	BYTE		        Fn1   v060
	BYTE	W06
	BYTE		N04     Cn1   v100
	BYTE		N32     An2   v092
	BYTE	W23
	BYTE		N04     En1   v084
	BYTE	W13
	BYTE		N02     Fs1   v032
	BYTE	W06
	BYTE		N04     Cn1   v100
	BYTE	W06
	BYTE		N04   
	BYTE		N02     Fs1   v052
	BYTE	W06
	BYTE		N04     Cs1   v080
	BYTE	W06
	BYTE		        Cn1   v100
	BYTE		N02     Fs1   v032
	BYTE	W11
	BYTE		N04     En1   v084
	BYTE	W01
	BYTE		N02     Fs1   v052
	BYTE	W12
// 043   ----------------------------------------
CastlevaniaOrderofEcclesiaRhapsodyoftheForsaken_1_043:
	BYTE		N02     Fs1   v032
	BYTE	W12
	BYTE		N04     Cn1   v100
	BYTE		N02     Fs1   v052
	BYTE	W12
	BYTE		        Fs1   v032
	BYTE	W11
	BYTE		N04     En1   v084
	BYTE	W01
	BYTE		N02     Fs1   v052
	BYTE	W12
	BYTE		        Fs1   v032
	BYTE	W06
	BYTE		N04     Cn1   v100
	BYTE	W06
	BYTE		N04   
	BYTE		N02     Fs1   v052
	BYTE	W06
	BYTE		N04     Cs1   v080
	BYTE	W06
	BYTE		        Cn1   v100
	BYTE		N02     Fs1   v032
	BYTE	W11
	BYTE		N04     En1   v084
	BYTE	W01
	BYTE		N02     Fs1   v052
	BYTE	W12
	BYTE	PEND
// 044   ----------------------------------------
	BYTE	PATT
	 POIN2	CastlevaniaOrderofEcclesiaRhapsodyoftheForsaken_1_043
// 045   ----------------------------------------
	BYTE	PATT
	 POIN2	CastlevaniaOrderofEcclesiaRhapsodyoftheForsaken_1_043
// 046   ----------------------------------------
	BYTE	PATT
	 POIN2	CastlevaniaOrderofEcclesiaRhapsodyoftheForsaken_1_043
// 047   ----------------------------------------
	BYTE	PATT
	 POIN2	CastlevaniaOrderofEcclesiaRhapsodyoftheForsaken_1_043
// 048   ----------------------------------------
	BYTE	PATT
	 POIN2	CastlevaniaOrderofEcclesiaRhapsodyoftheForsaken_1_043
// 049   ----------------------------------------
	BYTE	PATT
	 POIN2	CastlevaniaOrderofEcclesiaRhapsodyoftheForsaken_1_043
// 050   ----------------------------------------
CastlevaniaOrderofEcclesiaRhapsodyoftheForsaken_1_050:
	BYTE		N32     An2   v092
	BYTE	W12
	BYTE		N04     Cn1   v100
	BYTE	W23
	BYTE		        En1   v084
	BYTE	W01
	BYTE		N02     Fs1   v052
	BYTE	W12
	BYTE		        Fs1   v032
	BYTE	W06
	BYTE		N04     Cn1   v100
	BYTE	W06
	BYTE		N04   
	BYTE		N02     Fs1   v052
	BYTE	W06
	BYTE		N04     Cs1   v080
	BYTE	W06
	BYTE		        Cn1   v100
	BYTE		N02     Fs1   v032
	BYTE	W11
	BYTE		N04     En1   v084
	BYTE	W01
	BYTE		N02     Fs1   v052
	BYTE	W12
	BYTE	PEND
// 051   ----------------------------------------
	BYTE	PATT
	 POIN2	CastlevaniaOrderofEcclesiaRhapsodyoftheForsaken_1_043
// 052   ----------------------------------------
	BYTE	PATT
	 POIN2	CastlevaniaOrderofEcclesiaRhapsodyoftheForsaken_1_043
// 053   ----------------------------------------
	BYTE	PATT
	 POIN2	CastlevaniaOrderofEcclesiaRhapsodyoftheForsaken_1_043
// 054   ----------------------------------------
	BYTE		N02     Fs1   v032
	BYTE	W12
	BYTE		N04     Cn1   v100
	BYTE		N32     An2   v092
	BYTE	W18
	BYTE		N04     Cn1   v100
	BYTE	W05
	BYTE		        En1   v084
	BYTE	W13
	BYTE		N02     Fs1   v032
	BYTE	W06
	BYTE		N04     Cn1   v092
	BYTE	W06
	BYTE		N02     Fs1   v052
	BYTE	W06
	BYTE		N04     Cs1   v080
	BYTE	W06
	BYTE		        Cn1   v100
	BYTE		N02     Fs1   v032
	BYTE	W11
	BYTE		N04     En1   v084
	BYTE	W01
	BYTE		N02     Fs1   v052
	BYTE	W12
// 055   ----------------------------------------
	BYTE	PATT
	 POIN2	CastlevaniaOrderofEcclesiaRhapsodyoftheForsaken_1_003
// 056   ----------------------------------------
	BYTE	PATT
	 POIN2	CastlevaniaOrderofEcclesiaRhapsodyoftheForsaken_1_004
// 057   ----------------------------------------
	BYTE	PATT
	 POIN2	CastlevaniaOrderofEcclesiaRhapsodyoftheForsaken_1_003
// 058   ----------------------------------------
	BYTE	PATT
	 POIN2	CastlevaniaOrderofEcclesiaRhapsodyoftheForsaken_1_004
// 059   ----------------------------------------
	BYTE	PATT
	 POIN2	CastlevaniaOrderofEcclesiaRhapsodyoftheForsaken_1_003
// 060   ----------------------------------------
	BYTE	PATT
	 POIN2	CastlevaniaOrderofEcclesiaRhapsodyoftheForsaken_1_006
// 061   ----------------------------------------
	BYTE	PATT
	 POIN2	CastlevaniaOrderofEcclesiaRhapsodyoftheForsaken_1_003
// 062   ----------------------------------------
	BYTE	PATT
	 POIN2	CastlevaniaOrderofEcclesiaRhapsodyoftheForsaken_1_004
// 063   ----------------------------------------
	BYTE	PATT
	 POIN2	CastlevaniaOrderofEcclesiaRhapsodyoftheForsaken_1_003
// 064   ----------------------------------------
	BYTE		N02     Fs1   v032
	BYTE	W06
	BYTE		N04     Cn1   v100
	BYTE	W06
	BYTE		N04   
	BYTE		N02     Fs1   v052
	BYTE	W23
	BYTE		N04     En1   v084
	BYTE	W01
	BYTE		N02     Fs1   v052
	BYTE	W12
	BYTE		N04     Cn1   v100
	BYTE	W12
	BYTE		N02     Fs1   v052
	BYTE	W12
	BYTE		N04     Cn1   v100
	BYTE	W11
	BYTE		        En1   v084
	BYTE	W01
	BYTE		N02     Fs1   v052
	BYTE	W12
// 065   ----------------------------------------
	BYTE	W12
	BYTE		N04     Cn1   v100
	BYTE		N02     Fs1   v052
	BYTE	W23
	BYTE		N04     En1   v084
	BYTE	W01
	BYTE		N02     Fs1   v052
	BYTE	W12
	BYTE		N04     Cn1   v100
	BYTE	W12
	BYTE		N02     Fs1   v052
	BYTE	W12
	BYTE		N04     Cn1   v100
	BYTE	W11
	BYTE		        En1   v084
	BYTE	W01
	BYTE		N02     Fs1   v052
	BYTE	W12
// 066   ----------------------------------------
	BYTE	W12
	BYTE		N04     Cn1   v100
	BYTE		N02     Fs1   v052
	BYTE	W23
	BYTE		N04     En1   v084
	BYTE	W01
	BYTE		N02     Fs1   v052
	BYTE	W12
	BYTE		N04     Cn1   v100
	BYTE	W12
	BYTE		N02     Fs1   v052
	BYTE	W12
	BYTE		N04     Cn1   v100
	BYTE	W11
	BYTE		        En1   v084
	BYTE	W01
	BYTE		N19     As1   v068
	BYTE	W12
// 067   ----------------------------------------
	BYTE	W12
	BYTE		N04     Cn1   v100
	BYTE	W11
	BYTE		        En1   v084
	BYTE	W13
	BYTE		        Cn1   v100
	BYTE	W11
	BYTE		        En1   v084
	BYTE	W01
	BYTE		        Cn1   v100
	BYTE	W18
	BYTE		        Cn2   v060
	BYTE	W06
	BYTE		N11     An1   v072
	BYTE	W12
	BYTE		        Gn1 
	BYTE	W12
// 068   ----------------------------------------
	BYTE		        Fn1 
	BYTE	W12
	BYTE		N04     Cn1   v100
	BYTE		N32     An2   v092
	BYTE	W18
	BYTE		N04     Cn1   v100
	BYTE	W05
	BYTE		        En1   v084
	BYTE	W01
	BYTE		N02     Fs1   v052
	BYTE	W12
	BYTE		        Fs1   v032
	BYTE	W06
	BYTE		N04     Cn1   v092
	BYTE	W06
	BYTE		N02     Fs1   v052
	BYTE	W06
	BYTE		N04     Cs1   v080
	BYTE	W06
	BYTE		        Cn1   v100
	BYTE		N02     Fs1   v032
	BYTE	W11
	BYTE		N04     En1   v084
	BYTE	W01
	BYTE		N02     Fs1   v052
	BYTE	W12
// 069   ----------------------------------------
	BYTE	PATT
	 POIN2	CastlevaniaOrderofEcclesiaRhapsodyoftheForsaken_1_003
// 070   ----------------------------------------
	BYTE	PATT
	 POIN2	CastlevaniaOrderofEcclesiaRhapsodyoftheForsaken_1_004
// 071   ----------------------------------------
	BYTE	PATT
	 POIN2	CastlevaniaOrderofEcclesiaRhapsodyoftheForsaken_1_003
// 072   ----------------------------------------
	BYTE	PATT
	 POIN2	CastlevaniaOrderofEcclesiaRhapsodyoftheForsaken_1_026
// 073   ----------------------------------------
	BYTE	PATT
	 POIN2	CastlevaniaOrderofEcclesiaRhapsodyoftheForsaken_1_003
// 074   ----------------------------------------
	BYTE	PATT
	 POIN2	CastlevaniaOrderofEcclesiaRhapsodyoftheForsaken_1_004
// 075   ----------------------------------------
	BYTE	PATT
	 POIN2	CastlevaniaOrderofEcclesiaRhapsodyoftheForsaken_1_003
// 076   ----------------------------------------
	BYTE	PATT
	 POIN2	CastlevaniaOrderofEcclesiaRhapsodyoftheForsaken_1_010
	BYTE	GoTo
	 POIN2	CastlevaniaOrderofEcclesiaRhapsodyoftheForsaken_1_B1
CastlevaniaOrderofEcclesiaRhapsodyoftheForsaken_1_B2:
	BYTE		N04     Cn1   v100
	BYTE		N32     An2   v092
	BYTE	W18
	BYTE		N04     Cn1   v100
	BYTE	W05
	BYTE		        En1   v084
	BYTE	W01
	BYTE		N02     Fs1   v052
	BYTE	W12
	BYTE		        Fs1   v032
	BYTE	W06
	BYTE		N04     Cn1   v092
	BYTE	W06
	BYTE		N02     Fs1   v052
	BYTE	W06
	BYTE		N04     Cs1   v080
	BYTE	W06
	BYTE		        Cn1   v100
	BYTE		N02     Fs1   v032
	BYTE	W11
	BYTE		N04     En1   v084
	BYTE	W01
	BYTE		N02     Fs1   v052
	BYTE	W12
// 077   ----------------------------------------
	BYTE	PATT
	 POIN2	CastlevaniaOrderofEcclesiaRhapsodyoftheForsaken_1_003
// 078   ----------------------------------------
	BYTE	PATT
	 POIN2	CastlevaniaOrderofEcclesiaRhapsodyoftheForsaken_1_004
// 079   ----------------------------------------
	BYTE	PATT
	 POIN2	CastlevaniaOrderofEcclesiaRhapsodyoftheForsaken_1_003
// 080   ----------------------------------------
	BYTE	PATT
	 POIN2	CastlevaniaOrderofEcclesiaRhapsodyoftheForsaken_1_004
// 081   ----------------------------------------
	BYTE	PATT
	 POIN2	CastlevaniaOrderofEcclesiaRhapsodyoftheForsaken_1_003
// 082   ----------------------------------------
	BYTE	PATT
	 POIN2	CastlevaniaOrderofEcclesiaRhapsodyoftheForsaken_1_004
// 083   ----------------------------------------
	BYTE	PATT
	 POIN2	CastlevaniaOrderofEcclesiaRhapsodyoftheForsaken_1_003
// 084   ----------------------------------------
	BYTE	PATT
	 POIN2	CastlevaniaOrderofEcclesiaRhapsodyoftheForsaken_1_004
// 085   ----------------------------------------
	BYTE	PATT
	 POIN2	CastlevaniaOrderofEcclesiaRhapsodyoftheForsaken_1_003
// 086   ----------------------------------------
	BYTE	PATT
	 POIN2	CastlevaniaOrderofEcclesiaRhapsodyoftheForsaken_1_004
// 087   ----------------------------------------
	BYTE	PATT
	 POIN2	CastlevaniaOrderofEcclesiaRhapsodyoftheForsaken_1_003
// 088   ----------------------------------------
	BYTE	PATT
	 POIN2	CastlevaniaOrderofEcclesiaRhapsodyoftheForsaken_1_004
// 089   ----------------------------------------
	BYTE	PATT
	 POIN2	CastlevaniaOrderofEcclesiaRhapsodyoftheForsaken_1_003
// 090   ----------------------------------------
	BYTE	PATT
	 POIN2	CastlevaniaOrderofEcclesiaRhapsodyoftheForsaken_1_004
// 091   ----------------------------------------
	BYTE	PATT
	 POIN2	CastlevaniaOrderofEcclesiaRhapsodyoftheForsaken_1_003
// 092   ----------------------------------------
	BYTE	W06
	BYTE		N04     Cn1   v100
	BYTE	W06
	BYTE		N04   
	BYTE		N32     An2   v092
	BYTE	W18
	BYTE		N04     Cn1   v100
	BYTE	W05
	BYTE		        En1   v084
	BYTE	W01
	BYTE		N02     Fs1   v052
	BYTE	W12
	BYTE		        Fs1   v032
	BYTE	W06
	BYTE		N04     Cn1   v092
	BYTE	W06
	BYTE		N02     Fs1   v052
	BYTE	W06
	BYTE		N04     Cs1   v080
	BYTE	W06
	BYTE		        Cn1   v100
	BYTE		N02     Fs1   v032
	BYTE	W11
	BYTE		N04     En1   v084
	BYTE	W01
	BYTE		N02     Fs1   v052
	BYTE	W12
// 093   ----------------------------------------
	BYTE	PATT
	 POIN2	CastlevaniaOrderofEcclesiaRhapsodyoftheForsaken_1_003
// 094   ----------------------------------------
	BYTE	PATT
	 POIN2	CastlevaniaOrderofEcclesiaRhapsodyoftheForsaken_1_004
// 095   ----------------------------------------
	BYTE	PATT
	 POIN2	CastlevaniaOrderofEcclesiaRhapsodyoftheForsaken_1_003
// 096   ----------------------------------------
	BYTE	PATT
	 POIN2	CastlevaniaOrderofEcclesiaRhapsodyoftheForsaken_1_004
// 097   ----------------------------------------
	BYTE	PATT
	 POIN2	CastlevaniaOrderofEcclesiaRhapsodyoftheForsaken_1_003
// 098   ----------------------------------------
	BYTE	PATT
	 POIN2	CastlevaniaOrderofEcclesiaRhapsodyoftheForsaken_1_004
// 099   ----------------------------------------
	BYTE	PATT
	 POIN2	CastlevaniaOrderofEcclesiaRhapsodyoftheForsaken_1_003
// 100   ----------------------------------------
	BYTE	PATT
	 POIN2	CastlevaniaOrderofEcclesiaRhapsodyoftheForsaken_1_026
// 101   ----------------------------------------
	BYTE	PATT
	 POIN2	CastlevaniaOrderofEcclesiaRhapsodyoftheForsaken_1_003
// 102   ----------------------------------------
	BYTE	PATT
	 POIN2	CastlevaniaOrderofEcclesiaRhapsodyoftheForsaken_1_004
// 103   ----------------------------------------
	BYTE	PATT
	 POIN2	CastlevaniaOrderofEcclesiaRhapsodyoftheForsaken_1_003
// 104   ----------------------------------------
	BYTE	PATT
	 POIN2	CastlevaniaOrderofEcclesiaRhapsodyoftheForsaken_1_004
// 105   ----------------------------------------
	BYTE	PATT
	 POIN2	CastlevaniaOrderofEcclesiaRhapsodyoftheForsaken_1_003
// 106   ----------------------------------------
	BYTE	PATT
	 POIN2	CastlevaniaOrderofEcclesiaRhapsodyoftheForsaken_1_004
// 107   ----------------------------------------
	BYTE		N02     Fs1   v032
	BYTE	W06
	BYTE		N04     Cn1   v100
	BYTE	W06
	BYTE		N04   
	BYTE		N03     Cn2   v072
	BYTE	W06
	BYTE		        Cn2   v060
	BYTE	W12
	BYTE		        Cn2   v072
	BYTE	W06
	BYTE		        An1 
	BYTE	W12
	BYTE		N03   
	BYTE	W06
	BYTE		        An1   v060
	BYTE	W06
	BYTE		N04     Cn1   v092
	BYTE	W12
	BYTE		        Cn1   v100
	BYTE		N03     An1   v072
	BYTE	W06
	BYTE		        An1   v060
	BYTE	W06
	BYTE		        Gn1   v072
	BYTE	W06
	BYTE		        Gn1   v060
	BYTE	W06
// 108   ----------------------------------------
	BYTE		        Fn1   v072
	BYTE	W06
	BYTE		        Fn1   v060
	BYTE	W06
	BYTE		N04     Cn1   v100
	BYTE		N32     An2   v092
	BYTE	W23
	BYTE		N04     En1   v084
	BYTE	W01
	BYTE		N02     Fs1   v052
	BYTE	W12
	BYTE		        Fs1   v032
	BYTE	W06
	BYTE		N04     Cn1   v100
	BYTE	W06
	BYTE		N04   
	BYTE		N02     Fs1   v052
	BYTE	W06
	BYTE		N04     Cs1   v080
	BYTE	W06
	BYTE		        Cn1   v100
	BYTE		N02     Fs1   v032
	BYTE	W11
	BYTE		N04     En1   v084
	BYTE	W01
	BYTE		N02     Fs1   v052
	BYTE	W12
// 109   ----------------------------------------
	BYTE	PATT
	 POIN2	CastlevaniaOrderofEcclesiaRhapsodyoftheForsaken_1_043
// 110   ----------------------------------------
	BYTE	PATT
	 POIN2	CastlevaniaOrderofEcclesiaRhapsodyoftheForsaken_1_043
// 111   ----------------------------------------
	BYTE	PATT
	 POIN2	CastlevaniaOrderofEcclesiaRhapsodyoftheForsaken_1_043
// 112   ----------------------------------------
	BYTE	PATT
	 POIN2	CastlevaniaOrderofEcclesiaRhapsodyoftheForsaken_1_043
// 113   ----------------------------------------
	BYTE	PATT
	 POIN2	CastlevaniaOrderofEcclesiaRhapsodyoftheForsaken_1_043
// 114   ----------------------------------------
	BYTE	PATT
	 POIN2	CastlevaniaOrderofEcclesiaRhapsodyoftheForsaken_1_043
// 115   ----------------------------------------
	BYTE	PATT
	 POIN2	CastlevaniaOrderofEcclesiaRhapsodyoftheForsaken_1_043
// 116   ----------------------------------------
	BYTE	PATT
	 POIN2	CastlevaniaOrderofEcclesiaRhapsodyoftheForsaken_1_050
// 117   ----------------------------------------
	BYTE	PATT
	 POIN2	CastlevaniaOrderofEcclesiaRhapsodyoftheForsaken_1_043
// 118   ----------------------------------------
	BYTE	PATT
	 POIN2	CastlevaniaOrderofEcclesiaRhapsodyoftheForsaken_1_043
// 119   ----------------------------------------
	BYTE	PATT
	 POIN2	CastlevaniaOrderofEcclesiaRhapsodyoftheForsaken_1_043
// 120   ----------------------------------------
	BYTE		N32     An2   v092
	BYTE	W12
	BYTE		N04     Cn1   v100
	BYTE	W23
	BYTE		        En1   v084
	BYTE	W13
	BYTE		N02     Fs1   v032
	BYTE	W06
	BYTE		N04     Cn1   v100
	BYTE	W06
	BYTE		N04   
	BYTE		N02     Fs1   v052
	BYTE	W06
	BYTE		N04     Cs1   v080
	BYTE	W06
	BYTE		        Cn1   v100
	BYTE		N02     Fs1   v032
	BYTE	W11
	BYTE		N04     En1   v084
	BYTE	W01
	BYTE		N02     Fs1   v052
	BYTE	W12
// 121   ----------------------------------------
	BYTE	PATT
	 POIN2	CastlevaniaOrderofEcclesiaRhapsodyoftheForsaken_1_043
// 122   ----------------------------------------
	BYTE	PATT
	 POIN2	CastlevaniaOrderofEcclesiaRhapsodyoftheForsaken_1_043
// 123   ----------------------------------------
	BYTE		N02     Fs1   v032
	BYTE	W12
	BYTE		N04     Cn1   v100
	BYTE		N03     Cn2   v072
	BYTE	W06
	BYTE		        Cn2   v060
	BYTE	W12
	BYTE		        Cn2   v072
	BYTE	W06
	BYTE		        An1 
	BYTE	W12
	BYTE		N03   
	BYTE	W06
	BYTE		        An1   v060
	BYTE	W06
	BYTE		N04     Cn1   v100
	BYTE	W12
	BYTE		N04   
	BYTE		N03     An1   v072
	BYTE	W06
	BYTE		        An1   v060
	BYTE	W06
	BYTE		        Gn1   v072
	BYTE	W06
	BYTE		        Gn1   v060
	BYTE	W06
// 124   ----------------------------------------
	BYTE		        Fn1   v072
	BYTE	W06
	BYTE		        Fn1   v060
	BYTE	W06
	BYTE		N04     Cn1   v100
	BYTE		N32     An2   v092
	BYTE	W18
	BYTE		N04     Cn1   v100
	BYTE	W05
	BYTE		        En1   v084
	BYTE	W01
	BYTE		N02     Fs1   v052
	BYTE	W12
	BYTE		        Fs1   v032
	BYTE	W06
	BYTE		N04     Cn1   v092
	BYTE	W06
	BYTE		N02     Fs1   v052
	BYTE	W06
	BYTE		N04     Cs1   v080
	BYTE	W06
	BYTE		        Cn1   v100
	BYTE		N02     Fs1   v032
	BYTE	W11
	BYTE		N04     En1   v084
	BYTE	W01
	BYTE		N02     Fs1   v052
	BYTE	W12
// 125   ----------------------------------------
	BYTE	PATT
	 POIN2	CastlevaniaOrderofEcclesiaRhapsodyoftheForsaken_1_003
// 126   ----------------------------------------
	BYTE	PATT
	 POIN2	CastlevaniaOrderofEcclesiaRhapsodyoftheForsaken_1_004
// 127   ----------------------------------------
	BYTE	PATT
	 POIN2	CastlevaniaOrderofEcclesiaRhapsodyoftheForsaken_1_003
// 128   ----------------------------------------
	BYTE	PATT
	 POIN2	CastlevaniaOrderofEcclesiaRhapsodyoftheForsaken_1_004
// 129   ----------------------------------------
	BYTE	PATT
	 POIN2	CastlevaniaOrderofEcclesiaRhapsodyoftheForsaken_1_003
// 130   ----------------------------------------
	BYTE	PATT
	 POIN2	CastlevaniaOrderofEcclesiaRhapsodyoftheForsaken_1_006
// 131   ----------------------------------------
	BYTE	PATT
	 POIN2	CastlevaniaOrderofEcclesiaRhapsodyoftheForsaken_1_003
// 132   ----------------------------------------
	BYTE	PATT
	 POIN2	CastlevaniaOrderofEcclesiaRhapsodyoftheForsaken_1_006
// 133   ----------------------------------------
	BYTE	PATT
	 POIN2	CastlevaniaOrderofEcclesiaRhapsodyoftheForsaken_1_003
// 134   ----------------------------------------
	BYTE		N02     Fs1   v032
	BYTE	W06
	BYTE		N04     Cn1   v100
	BYTE	W06
	BYTE		N04   
	BYTE		N02     Fs1   v052
	BYTE	W12
	BYTE		        Fs1   v032
	BYTE	W11
	BYTE		N04     En1   v084
	BYTE	W01
	BYTE		N02     Fs1   v052
	BYTE	W12
	BYTE		N04     Cn1   v100
	BYTE		N02     Fs1   v032
	BYTE	W12
	BYTE		        Fs1   v052
	BYTE	W12
	BYTE		N04     Cn1   v100
	BYTE		N02     Fs1   v032
	BYTE	W11
	BYTE		N04     En1   v084
	BYTE	W01
	BYTE		N02     Fs1   v052
	BYTE	W12
// 135   ----------------------------------------
CastlevaniaOrderofEcclesiaRhapsodyoftheForsaken_1_135:
	BYTE		N02     Fs1   v032
	BYTE	W12
	BYTE		N04     Cn1   v100
	BYTE		N02     Fs1   v052
	BYTE	W12
	BYTE		        Fs1   v032
	BYTE	W11
	BYTE		N04     En1   v084
	BYTE	W01
	BYTE		N02     Fs1   v052
	BYTE	W12
	BYTE		N04     Cn1   v100
	BYTE		N02     Fs1   v032
	BYTE	W12
	BYTE		        Fs1   v052
	BYTE	W12
	BYTE		N04     Cn1   v100
	BYTE		N02     Fs1   v032
	BYTE	W11
	BYTE		N04     En1   v084
	BYTE	W01
	BYTE		N02     Fs1   v052
	BYTE	W12
	BYTE	PEND
// 136   ----------------------------------------
	BYTE	PATT
	 POIN2	CastlevaniaOrderofEcclesiaRhapsodyoftheForsaken_1_135
// 137   ----------------------------------------
	BYTE		N02     Fs1   v032
	BYTE	W12
	BYTE		N04     Cn1   v100
	BYTE		N02     Fs1   v052
	BYTE	W11
	BYTE		N04     En1   v084
	BYTE	W01
	BYTE		N02     Fs1   v032
	BYTE	W12
	BYTE		        Fs1   v052
	BYTE	W11
	BYTE		N04     En1   v084
	BYTE	W01
	BYTE		        Cn1   v100
	BYTE		N02     Fs1   v032
	BYTE	W12
	BYTE		        Fs1   v052
	BYTE	W06
	BYTE		N03     Cn2   v060
	BYTE	W06
	BYTE		N02     Fs1   v032
	BYTE		N03     An1   v072
	BYTE	W12
	BYTE		N02     Fs1   v052
	BYTE		N03     Gn1   v072
	BYTE	W12
// 138   ----------------------------------------
	BYTE		        Fn1 
	BYTE		N02     Fs1   v032
	BYTE	W03
	BYTE	FINE

//**************** Track 2 (Midi-Chn.2) ****************//

CastlevaniaOrderofEcclesiaRhapsodyoftheForsaken_2:
	BYTE	KEYSH   CastlevaniaOrderofEcclesiaRhapsodyoftheForsaken_key+0
// 000   ----------------------------------------
	BYTE		VOICE   47
	BYTE		MODT    0
	BYTE		LFOS    44
	BYTE		VOL     109*CastlevaniaOrderofEcclesiaRhapsodyoftheForsaken_mvl/mxv
	BYTE		PAN     c_v+15
	BYTE		VOL     109*CastlevaniaOrderofEcclesiaRhapsodyoftheForsaken_mvl/mxv
	BYTE		N04     Bn0   v127
	BYTE		N04     Bn1 
	BYTE	W06
	BYTE		        Bn0 
	BYTE		N04     Bn1 
	BYTE	W06
	BYTE		N92     Bn0 
	BYTE		N92     Bn1 
	BYTE	W84
// 001   ----------------------------------------
	BYTE	W96
// 002   ----------------------------------------
	BYTE	W96
// 003   ----------------------------------------
	BYTE	W96
// 004   ----------------------------------------
	BYTE	W96
// 005   ----------------------------------------
CastlevaniaOrderofEcclesiaRhapsodyoftheForsaken_2_005:
	BYTE		N04     Dn2   v127
	BYTE	W06
	BYTE		N04   
	BYTE	W06
	BYTE		N52   
	BYTE	W84
	BYTE	PEND
// 006   ----------------------------------------
	BYTE	W96
// 007   ----------------------------------------
	BYTE	W96
// 008   ----------------------------------------
	BYTE	W96
// 009   ----------------------------------------
	BYTE	PATT
	 POIN2	CastlevaniaOrderofEcclesiaRhapsodyoftheForsaken_2_005
// 010   ----------------------------------------
	BYTE	W12
CastlevaniaOrderofEcclesiaRhapsodyoftheForsaken_2_B1:
	BYTE	W84
// 011   ----------------------------------------
	BYTE	W96
// 012   ----------------------------------------
	BYTE	W96
// 013   ----------------------------------------
	BYTE	W96
// 014   ----------------------------------------
	BYTE	W96
// 015   ----------------------------------------
	BYTE	W96
// 016   ----------------------------------------
	BYTE	W96
// 017   ----------------------------------------
	BYTE	W96
// 018   ----------------------------------------
	BYTE	W96
// 019   ----------------------------------------
	BYTE	W96
// 020   ----------------------------------------
	BYTE	W96
// 021   ----------------------------------------
	BYTE	W96
// 022   ----------------------------------------
	BYTE	W96
// 023   ----------------------------------------
	BYTE	W96
// 024   ----------------------------------------
	BYTE	W96
// 025   ----------------------------------------
	BYTE	W96
// 026   ----------------------------------------
	BYTE	W96
// 027   ----------------------------------------
	BYTE	W96
// 028   ----------------------------------------
	BYTE	W96
// 029   ----------------------------------------
	BYTE	W96
// 030   ----------------------------------------
	BYTE	W96
// 031   ----------------------------------------
	BYTE	W96
// 032   ----------------------------------------
	BYTE	W96
// 033   ----------------------------------------
	BYTE	W96
// 034   ----------------------------------------
	BYTE	W96
// 035   ----------------------------------------
	BYTE	W96
// 036   ----------------------------------------
	BYTE	W96
// 037   ----------------------------------------
	BYTE	W96
// 038   ----------------------------------------
	BYTE	W96
// 039   ----------------------------------------
	BYTE	W96
// 040   ----------------------------------------
	BYTE	W96
// 041   ----------------------------------------
	BYTE	W96
// 042   ----------------------------------------
	BYTE	W96
// 043   ----------------------------------------
	BYTE	W96
// 044   ----------------------------------------
	BYTE	W96
// 045   ----------------------------------------
	BYTE	W96
// 046   ----------------------------------------
	BYTE	W96
// 047   ----------------------------------------
	BYTE	W96
// 048   ----------------------------------------
	BYTE	W96
// 049   ----------------------------------------
	BYTE	W96
// 050   ----------------------------------------
	BYTE	W96
// 051   ----------------------------------------
	BYTE	W96
// 052   ----------------------------------------
	BYTE	W96
// 053   ----------------------------------------
	BYTE	W96
// 054   ----------------------------------------
	BYTE	W96
// 055   ----------------------------------------
	BYTE	W96
// 056   ----------------------------------------
	BYTE	W96
// 057   ----------------------------------------
	BYTE	PATT
	 POIN2	CastlevaniaOrderofEcclesiaRhapsodyoftheForsaken_2_005
// 058   ----------------------------------------
	BYTE	W96
// 059   ----------------------------------------
	BYTE	W96
// 060   ----------------------------------------
	BYTE		N04     En2   v127
	BYTE	W06
	BYTE		N04   
	BYTE	W06
	BYTE		N52   
	BYTE	W84
// 061   ----------------------------------------
	BYTE	W96
// 062   ----------------------------------------
	BYTE	W96
// 063   ----------------------------------------
	BYTE	W96
// 064   ----------------------------------------
	BYTE	W96
// 065   ----------------------------------------
	BYTE	W96
// 066   ----------------------------------------
	BYTE	W96
// 067   ----------------------------------------
	BYTE	W96
// 068   ----------------------------------------
	BYTE	W96
// 069   ----------------------------------------
	BYTE	W96
// 070   ----------------------------------------
	BYTE	W96
// 071   ----------------------------------------
	BYTE	PATT
	 POIN2	CastlevaniaOrderofEcclesiaRhapsodyoftheForsaken_2_005
// 072   ----------------------------------------
	BYTE	W96
// 073   ----------------------------------------
	BYTE	W96
// 074   ----------------------------------------
	BYTE	W96
// 075   ----------------------------------------
	BYTE	PATT
	 POIN2	CastlevaniaOrderofEcclesiaRhapsodyoftheForsaken_2_005
// 076   ----------------------------------------
	BYTE	W12
	BYTE	GoTo
	 POIN2	CastlevaniaOrderofEcclesiaRhapsodyoftheForsaken_2_B1
CastlevaniaOrderofEcclesiaRhapsodyoftheForsaken_2_B2:
	BYTE	W84
// 077   ----------------------------------------
	BYTE	W96
// 078   ----------------------------------------
	BYTE	W96
// 079   ----------------------------------------
	BYTE	W96
// 080   ----------------------------------------
	BYTE	W96
// 081   ----------------------------------------
	BYTE	W96
// 082   ----------------------------------------
	BYTE	W96
// 083   ----------------------------------------
	BYTE	W96
// 084   ----------------------------------------
	BYTE	W96
// 085   ----------------------------------------
	BYTE	W96
// 086   ----------------------------------------
	BYTE	W96
// 087   ----------------------------------------
	BYTE	W96
// 088   ----------------------------------------
	BYTE	W96
// 089   ----------------------------------------
	BYTE	W96
// 090   ----------------------------------------
	BYTE	W96
// 091   ----------------------------------------
	BYTE	W96
// 092   ----------------------------------------
	BYTE	W96
// 093   ----------------------------------------
	BYTE	W96
// 094   ----------------------------------------
	BYTE	W96
// 095   ----------------------------------------
	BYTE	W96
// 096   ----------------------------------------
	BYTE	W96
// 097   ----------------------------------------
	BYTE	W96
// 098   ----------------------------------------
	BYTE	W96
// 099   ----------------------------------------
	BYTE	W96
// 100   ----------------------------------------
	BYTE	W96
// 101   ----------------------------------------
	BYTE	W96
// 102   ----------------------------------------
	BYTE	W96
// 103   ----------------------------------------
	BYTE	W96
// 104   ----------------------------------------
	BYTE	W96
// 105   ----------------------------------------
	BYTE	W96
// 106   ----------------------------------------
	BYTE	W96
// 107   ----------------------------------------
	BYTE	W96
// 108   ----------------------------------------
	BYTE	W96
// 109   ----------------------------------------
	BYTE	W96
// 110   ----------------------------------------
	BYTE	W96
// 111   ----------------------------------------
	BYTE	W96
// 112   ----------------------------------------
	BYTE	W96
// 113   ----------------------------------------
	BYTE	W96
// 114   ----------------------------------------
	BYTE	W96
// 115   ----------------------------------------
	BYTE	W96
// 116   ----------------------------------------
	BYTE	W96
// 117   ----------------------------------------
	BYTE	W96
// 118   ----------------------------------------
	BYTE	W96
// 119   ----------------------------------------
	BYTE	W96
// 120   ----------------------------------------
	BYTE	W96
// 121   ----------------------------------------
	BYTE	W96
// 122   ----------------------------------------
	BYTE	W96
// 123   ----------------------------------------
	BYTE	W96
// 124   ----------------------------------------
	BYTE	W96
// 125   ----------------------------------------
	BYTE	W96
// 126   ----------------------------------------
	BYTE	W96
// 127   ----------------------------------------
	BYTE	PATT
	 POIN2	CastlevaniaOrderofEcclesiaRhapsodyoftheForsaken_2_005
// 128   ----------------------------------------
	BYTE	W96
// 129   ----------------------------------------
	BYTE	W96
// 130   ----------------------------------------
	BYTE		N04     An1   v127
	BYTE	W06
	BYTE		N04   
	BYTE	W06
	BYTE		N52   
	BYTE	W84
// 131   ----------------------------------------
	BYTE	W96
// 132   ----------------------------------------
	BYTE	W96
// 133   ----------------------------------------
	BYTE	W96
// 134   ----------------------------------------
	BYTE	W96
// 135   ----------------------------------------
	BYTE	W96
// 136   ----------------------------------------
	BYTE	W96
// 137   ----------------------------------------
	BYTE	W96
// 138   ----------------------------------------
	BYTE	W03
	BYTE	FINE

//**************** Track 3 (Midi-Chn.3) ****************//

CastlevaniaOrderofEcclesiaRhapsodyoftheForsaken_3:
	BYTE	KEYSH   CastlevaniaOrderofEcclesiaRhapsodyoftheForsaken_key+0
// 000   ----------------------------------------
	BYTE		VOICE   40
	BYTE		MODT    0
	BYTE		LFOS    44
	BYTE		VOL     91*CastlevaniaOrderofEcclesiaRhapsodyoftheForsaken_mvl/mxv
	BYTE		PAN     c_v-8
	BYTE		VOL     85*CastlevaniaOrderofEcclesiaRhapsodyoftheForsaken_mvl/mxv
	BYTE	W12
	BYTE		N10     Gn2   v060
	BYTE	W12
	BYTE		        An2 
	BYTE	W12
	BYTE		        Cn3 
	BYTE	W12
	BYTE		        Bn2 
	BYTE	W12
	BYTE		        En3 
	BYTE	W12
	BYTE		        Ds3 
	BYTE	W12
	BYTE		        Gn3 
	BYTE	W12
// 001   ----------------------------------------
	BYTE		        Fs3 
	BYTE	W12
	BYTE		        Cn4 
	BYTE	W12
	BYTE		        Bn3 
	BYTE	W12
	BYTE		        En4 
	BYTE	W12
	BYTE		        Ds4 
	BYTE	W12
	BYTE		        Gn4 
	BYTE	W12
	BYTE		        Fs4 
	BYTE	W12
	BYTE		        Cn5 
	BYTE	W12
// 002   ----------------------------------------
	BYTE		        Bn4 
	BYTE	W12
	BYTE		TIE     En4   v048
	BYTE	W84
// 003   ----------------------------------------
	BYTE	W96
// 004   ----------------------------------------
	BYTE	W08
	BYTE		EOT   
	BYTE	W04
	BYTE		TIE   
	BYTE	W84
// 005   ----------------------------------------
	BYTE	W96
// 006   ----------------------------------------
	BYTE	W08
	BYTE		EOT   
	BYTE	W04
	BYTE		TIE   
	BYTE	W84
// 007   ----------------------------------------
	BYTE	W96
// 008   ----------------------------------------
	BYTE	W08
	BYTE		EOT   
	BYTE	W04
	BYTE		TIE   
	BYTE	W84
// 009   ----------------------------------------
	BYTE	W96
// 010   ----------------------------------------
	BYTE	W08
	BYTE		EOT   
	BYTE	W04
CastlevaniaOrderofEcclesiaRhapsodyoftheForsaken_3_B1:
	BYTE		PAN     c_v-10
	BYTE		N10     Bn3   v080
	BYTE	W12
	BYTE		        En4 
	BYTE	W12
	BYTE		        Fs4 
	BYTE	W12
	BYTE		N92     Gn4 
	BYTE	W48
// 011   ----------------------------------------
CastlevaniaOrderofEcclesiaRhapsodyoftheForsaken_3_011:
	BYTE	W60
	BYTE		N22     Fs4   v080
	BYTE	W24
	BYTE		        En4 
	BYTE	W12
	BYTE	PEND
// 012   ----------------------------------------
	BYTE	W12
	BYTE		N32     Dn4 
	BYTE	W36
	BYTE		        An3 
	BYTE	W36
	BYTE		N88     Bn3 
	BYTE	W12
// 013   ----------------------------------------
	BYTE	W84
	BYTE		N10     Gn3 
	BYTE	W12
// 014   ----------------------------------------
	BYTE		        An3 
	BYTE	W12
	BYTE		N68     Bn3 
	BYTE	W72
	BYTE		N22     Gn3 
	BYTE	W12
// 015   ----------------------------------------
	BYTE	W12
	BYTE		N32     Fs3 
	BYTE	W36
	BYTE		N22     Gn3 
	BYTE	W24
	BYTE		        An3 
	BYTE	W24
// 016   ----------------------------------------
	BYTE		        Dn4 
	BYTE	W24
	BYTE		N10     An3 
	BYTE	W12
	BYTE		TIE     Bn3 
	BYTE	W60
// 017   ----------------------------------------
	BYTE	W80
	BYTE	W01
	BYTE		EOT   
	BYTE	W15
// 018   ----------------------------------------
	BYTE	W12
	BYTE		N10   
	BYTE	W12
	BYTE		        En4 
	BYTE	W12
	BYTE		        Fs4 
	BYTE	W12
	BYTE		N92     Gn4 
	BYTE	W48
// 019   ----------------------------------------
	BYTE	PATT
	 POIN2	CastlevaniaOrderofEcclesiaRhapsodyoftheForsaken_3_011
// 020   ----------------------------------------
	BYTE	W12
	BYTE		N32     Dn4   v080
	BYTE	W36
	BYTE		        An3 
	BYTE	W36
	BYTE		N90     Bn3 
	BYTE	W12
// 021   ----------------------------------------
	BYTE	W84
	BYTE		N10     Gn3 
	BYTE	W12
// 022   ----------------------------------------
	BYTE		        Bn3 
	BYTE	W12
	BYTE		N84     An3 
	BYTE	W84
// 023   ----------------------------------------
	BYTE	W12
	BYTE		N40     Dn4 
	BYTE	W48
	BYTE		N28     Fs4 
	BYTE	W36
// 024   ----------------------------------------
	BYTE		N22   
	BYTE	W24
	BYTE		N10     Gn4 
	BYTE	W12
	BYTE		TIE     En4 
	BYTE	W60
// 025   ----------------------------------------
	BYTE	W84
	BYTE	W03
	BYTE		EOT   
	BYTE	W09
// 026   ----------------------------------------
CastlevaniaOrderofEcclesiaRhapsodyoftheForsaken_3_026:
	BYTE		N22     En4   v080
	BYTE	W24
	BYTE		N10     Fs4 
	BYTE	W12
	BYTE		        Gn4 
	BYTE	W12
	BYTE		N22     Fs4 
	BYTE	W24
	BYTE		        Gn4 
	BYTE	W24
	BYTE	PEND
// 027   ----------------------------------------
	BYTE		N84     En4 
	BYTE	W96
// 028   ----------------------------------------
	BYTE	PATT
	 POIN2	CastlevaniaOrderofEcclesiaRhapsodyoftheForsaken_3_026
// 029   ----------------------------------------
	BYTE		N80     En4   v080
	BYTE	W96
// 030   ----------------------------------------
	BYTE		N22   
	BYTE	W24
	BYTE		N10     Fn4 
	BYTE	W12
	BYTE		        Gn4 
	BYTE	W12
	BYTE		N22     Fn4 
	BYTE	W24
	BYTE		        Gn4 
	BYTE	W24
// 031   ----------------------------------------
	BYTE		        En4 
	BYTE	W24
	BYTE		N10     An2 
	BYTE	W12
	BYTE		        Cn3 
	BYTE	W12
	BYTE		        En3 
	BYTE	W12
	BYTE		        An3 
	BYTE	W12
	BYTE		        Cn4 
	BYTE	W12
	BYTE		        En4 
	BYTE	W12
// 032   ----------------------------------------
	BYTE		        An4 
	BYTE	W12
	BYTE		N32   
	BYTE	W36
	BYTE		        Bn4 
	BYTE	W36
	BYTE		        An4 
	BYTE	W12
// 033   ----------------------------------------
	BYTE	W24
	BYTE		N78     Gs4 
	BYTE	W72
// 034   ----------------------------------------
	BYTE	W12
	BYTE		N10     En4 
	BYTE	W12
	BYTE		        Fs4 
	BYTE	W12
	BYTE		        Gn4 
	BYTE	W12
	BYTE		N22     Fs4 
	BYTE	W24
	BYTE		N10     Gn4 
	BYTE	W12
	BYTE		TIE     En4 
	BYTE	W12
// 035   ----------------------------------------
	BYTE	W84
	BYTE	W03
	BYTE		EOT   
	BYTE	W09
// 036   ----------------------------------------
	BYTE		N22   
	BYTE	W24
	BYTE		N10     Fs4 
	BYTE	W12
	BYTE		        Gn4 
	BYTE	W12
	BYTE		N22     Fs4 
	BYTE	W24
	BYTE		N10     Gn4 
	BYTE	W12
	BYTE		N56     En4 
	BYTE	W12
// 037   ----------------------------------------
	BYTE	W60
	BYTE		N10   
	BYTE	W12
	BYTE		        Fs4 
	BYTE	W12
	BYTE		        Gn4 
	BYTE	W12
// 038   ----------------------------------------
	BYTE		        An4 
	BYTE	W12
	BYTE		N32     Bn4 
	BYTE	W36
	BYTE		N16     An4 
	BYTE	W36
	BYTE		N32     Bn4 
	BYTE	W12
// 039   ----------------------------------------
	BYTE	W24
	BYTE		N16     An4 
	BYTE	W36
	BYTE		N10     Dn5 
	BYTE	W24
	BYTE		        Cn5 
	BYTE	W12
// 040   ----------------------------------------
	BYTE	W12
	BYTE		N28     Bn4 
	BYTE	W36
	BYTE		N10   
	BYTE	W36
	BYTE		N68   
	BYTE	W12
// 041   ----------------------------------------
	BYTE	W72
	BYTE		N10     Bn3   v084
	BYTE	W12
	BYTE		        En4 
	BYTE	W12
// 042   ----------------------------------------
CastlevaniaOrderofEcclesiaRhapsodyoftheForsaken_3_042:
	BYTE		N10     Fs4   v084
	BYTE	W12
	BYTE		        Gn4 
	BYTE	W12
	BYTE		        Bn3 
	BYTE	W12
	BYTE		        En4 
	BYTE	W12
	BYTE		        Fs4 
	BYTE	W12
	BYTE		        Gn4 
	BYTE	W12
	BYTE		        Bn3 
	BYTE	W12
	BYTE		        En4 
	BYTE	W12
	BYTE	PEND
// 043   ----------------------------------------
CastlevaniaOrderofEcclesiaRhapsodyoftheForsaken_3_043:
	BYTE		N10     Fs4   v084
	BYTE	W12
	BYTE		        Gn4 
	BYTE	W12
	BYTE		        Cn4 
	BYTE	W12
	BYTE		        En4 
	BYTE	W12
	BYTE		        Fs4 
	BYTE	W12
	BYTE		        Gn4 
	BYTE	W12
	BYTE		        Cn4 
	BYTE	W12
	BYTE		        En4 
	BYTE	W12
	BYTE	PEND
// 044   ----------------------------------------
CastlevaniaOrderofEcclesiaRhapsodyoftheForsaken_3_044:
	BYTE		N10     Fs4   v084
	BYTE	W12
	BYTE		        Gn4 
	BYTE	W12
	BYTE		        Cs4 
	BYTE	W12
	BYTE		        En4 
	BYTE	W12
	BYTE		        Fs4 
	BYTE	W12
	BYTE		        Gn4 
	BYTE	W12
	BYTE		        An4 
	BYTE	W12
	BYTE		        Bn4 
	BYTE	W12
	BYTE	PEND
// 045   ----------------------------------------
	BYTE		N22     An4 
	BYTE	W24
	BYTE		N10     Gn4 
	BYTE	W12
	BYTE		N22     Fs4 
	BYTE	W36
	BYTE		N10     Bn3 
	BYTE	W12
	BYTE		        En4 
	BYTE	W12
// 046   ----------------------------------------
	BYTE	PATT
	 POIN2	CastlevaniaOrderofEcclesiaRhapsodyoftheForsaken_3_042
// 047   ----------------------------------------
	BYTE	PATT
	 POIN2	CastlevaniaOrderofEcclesiaRhapsodyoftheForsaken_3_043
// 048   ----------------------------------------
	BYTE	PATT
	 POIN2	CastlevaniaOrderofEcclesiaRhapsodyoftheForsaken_3_044
// 049   ----------------------------------------
	BYTE		N22     An4   v084
	BYTE	W24
	BYTE		N10     Gn4 
	BYTE	W12
	BYTE		N32     Fs4 
	BYTE	W48
	BYTE		N10   
	BYTE	W12
// 050   ----------------------------------------
	BYTE		N44     Gn4 
	BYTE	W60
	BYTE		N10   
	BYTE	W12
	BYTE		        Fs4 
	BYTE	W12
	BYTE		        En4 
	BYTE	W12
// 051   ----------------------------------------
	BYTE		N56     Fs4 
	BYTE	W60
	BYTE		N44     Dn4 
	BYTE	W36
// 052   ----------------------------------------
CastlevaniaOrderofEcclesiaRhapsodyoftheForsaken_3_052:
	BYTE	W12
	BYTE		TIE     En4   v072
	BYTE	W84
	BYTE	PEND
// 053   ----------------------------------------
	BYTE	W96
// 054   ----------------------------------------
	BYTE	W08
	BYTE		EOT   
	BYTE	W02
	BYTE		PAN     c_v-8
	BYTE	W02
	BYTE		TIE     En4   v052
	BYTE	W84
// 055   ----------------------------------------
	BYTE	W96
// 056   ----------------------------------------
	BYTE	W80
	BYTE		EOT   
	BYTE	W04
	BYTE		TIE     Dn4 
	BYTE	W12
// 057   ----------------------------------------
	BYTE	W96
// 058   ----------------------------------------
	BYTE	W02
	BYTE		EOT   
	BYTE	W10
	BYTE		TIE     En4 
	BYTE	W84
// 059   ----------------------------------------
	BYTE	W96
// 060   ----------------------------------------
	BYTE	W08
	BYTE		EOT   
	BYTE	W04
	BYTE		TIE   
	BYTE	W84
// 061   ----------------------------------------
	BYTE	W96
// 062   ----------------------------------------
	BYTE	W08
	BYTE		EOT   
	BYTE	W04
	BYTE		TIE     Fs4 
	BYTE	W84
// 063   ----------------------------------------
	BYTE	W96
// 064   ----------------------------------------
	BYTE	W08
	BYTE		EOT   
	BYTE	W04
	BYTE		N14     En4   v060
	BYTE	W36
	BYTE		N10   
	BYTE	W24
	BYTE		        Dn4 
	BYTE	W12
	BYTE		N14     En4 
	BYTE	W12
// 065   ----------------------------------------
CastlevaniaOrderofEcclesiaRhapsodyoftheForsaken_3_065:
	BYTE	W24
	BYTE		N10     Bn3   v060
	BYTE	W12
	BYTE		        En4 
	BYTE	W12
	BYTE		        Fs4 
	BYTE	W12
	BYTE		        Gn4 
	BYTE	W12
	BYTE		        Fs4 
	BYTE	W12
	BYTE		        En4 
	BYTE	W12
	BYTE	PEND
// 066   ----------------------------------------
CastlevaniaOrderofEcclesiaRhapsodyoftheForsaken_3_066:
	BYTE		N10     Dn4   v060
	BYTE	W12
	BYTE		N14     En4 
	BYTE	W36
	BYTE		N10   
	BYTE	W24
	BYTE		        Dn4 
	BYTE	W12
	BYTE		N14     En4 
	BYTE	W12
	BYTE	PEND
// 067   ----------------------------------------
CastlevaniaOrderofEcclesiaRhapsodyoftheForsaken_3_067:
	BYTE	W12
	BYTE		N10     Dn4   v060
	BYTE	W12
	BYTE		N14     En4 
	BYTE	W24
	BYTE		N14   
	BYTE	W48
	BYTE	PEND
// 068   ----------------------------------------
	BYTE	W12
	BYTE		TIE     En4   v048
	BYTE	W84
// 069   ----------------------------------------
	BYTE	W96
// 070   ----------------------------------------
	BYTE	W96
// 071   ----------------------------------------
	BYTE	W96
// 072   ----------------------------------------
	BYTE	W07
	BYTE		EOT   
	BYTE	W05
	BYTE		TIE   
	BYTE	W84
// 073   ----------------------------------------
	BYTE	W96
// 074   ----------------------------------------
	BYTE	W96
// 075   ----------------------------------------
	BYTE	W96
// 076   ----------------------------------------
	BYTE	W07
	BYTE		EOT   
	BYTE	W05
	BYTE	GoTo
	 POIN2	CastlevaniaOrderofEcclesiaRhapsodyoftheForsaken_3_B1
CastlevaniaOrderofEcclesiaRhapsodyoftheForsaken_3_B2:
	BYTE		PAN     c_v-15
	BYTE		N10     Bn3   v068
	BYTE	W12
	BYTE		        En4 
	BYTE	W12
	BYTE		        Fs4 
	BYTE	W12
	BYTE		N92     Gn4 
	BYTE	W48
// 077   ----------------------------------------
CastlevaniaOrderofEcclesiaRhapsodyoftheForsaken_3_077:
	BYTE	W60
	BYTE		N22     Fs4   v068
	BYTE	W24
	BYTE		        En4 
	BYTE	W12
	BYTE	PEND
// 078   ----------------------------------------
	BYTE	W12
	BYTE		N32     Dn4 
	BYTE	W36
	BYTE		        An3 
	BYTE	W36
	BYTE		N88     Bn3 
	BYTE	W12
// 079   ----------------------------------------
	BYTE	W84
	BYTE		N10     Gn3 
	BYTE	W12
// 080   ----------------------------------------
	BYTE		        An3 
	BYTE	W12
	BYTE		N68     Bn3 
	BYTE	W72
	BYTE		N22     Gn3 
	BYTE	W12
// 081   ----------------------------------------
	BYTE	W12
	BYTE		N32     Fs3 
	BYTE	W36
	BYTE		N22     Gn3 
	BYTE	W24
	BYTE		        An3 
	BYTE	W24
// 082   ----------------------------------------
	BYTE		        Dn4 
	BYTE	W24
	BYTE		N10     An3 
	BYTE	W12
	BYTE		TIE     Bn3 
	BYTE	W60
// 083   ----------------------------------------
	BYTE	W80
	BYTE	W01
	BYTE		EOT   
	BYTE	W15
// 084   ----------------------------------------
	BYTE	W12
	BYTE		N10   
	BYTE	W12
	BYTE		        En4 
	BYTE	W12
	BYTE		        Fs4 
	BYTE	W12
	BYTE		N92     Gn4 
	BYTE	W48
// 085   ----------------------------------------
	BYTE	PATT
	 POIN2	CastlevaniaOrderofEcclesiaRhapsodyoftheForsaken_3_077
// 086   ----------------------------------------
	BYTE	W12
	BYTE		N32     Dn4   v068
	BYTE	W36
	BYTE		        An3 
	BYTE	W36
	BYTE		N90     Bn3 
	BYTE	W12
// 087   ----------------------------------------
	BYTE	W84
	BYTE		N10     Gn3 
	BYTE	W12
// 088   ----------------------------------------
	BYTE		        Bn3 
	BYTE	W12
	BYTE		N84     An3 
	BYTE	W84
// 089   ----------------------------------------
	BYTE	W12
	BYTE		N40     Dn4 
	BYTE	W48
	BYTE		N28     Fs4 
	BYTE	W36
// 090   ----------------------------------------
	BYTE		N22   
	BYTE	W24
	BYTE		N10     Gn4 
	BYTE	W12
	BYTE		TIE     En4 
	BYTE	W60
// 091   ----------------------------------------
	BYTE	W84
	BYTE	W03
	BYTE		EOT   
	BYTE	W09
// 092   ----------------------------------------
CastlevaniaOrderofEcclesiaRhapsodyoftheForsaken_3_092:
	BYTE		N22     En4   v068
	BYTE	W24
	BYTE		N10     Fs4 
	BYTE	W12
	BYTE		        Gn4 
	BYTE	W12
	BYTE		N22     Fs4 
	BYTE	W24
	BYTE		        Gn4 
	BYTE	W24
	BYTE	PEND
// 093   ----------------------------------------
	BYTE		N84     En4 
	BYTE	W96
// 094   ----------------------------------------
	BYTE	PATT
	 POIN2	CastlevaniaOrderofEcclesiaRhapsodyoftheForsaken_3_092
// 095   ----------------------------------------
	BYTE		N84     En4   v068
	BYTE	W96
// 096   ----------------------------------------
	BYTE		N22   
	BYTE	W24
	BYTE		N10     Fn4 
	BYTE	W12
	BYTE		        Gn4 
	BYTE	W12
	BYTE		N22     Fn4 
	BYTE	W24
	BYTE		        Gn4 
	BYTE	W24
// 097   ----------------------------------------
	BYTE		        En4 
	BYTE	W24
	BYTE		N10     An2 
	BYTE	W12
	BYTE		        Cn3 
	BYTE	W12
	BYTE		        En3 
	BYTE	W12
	BYTE		        An3 
	BYTE	W12
	BYTE		        Cn4 
	BYTE	W12
	BYTE		        En4 
	BYTE	W12
// 098   ----------------------------------------
	BYTE		        An4 
	BYTE	W12
	BYTE		N32   
	BYTE	W36
	BYTE		        Bn4 
	BYTE	W36
	BYTE		        An4 
	BYTE	W12
// 099   ----------------------------------------
	BYTE	W24
	BYTE		N78     Gs4 
	BYTE	W72
// 100   ----------------------------------------
	BYTE	W12
	BYTE		N10     En4 
	BYTE	W12
	BYTE		        Fs4 
	BYTE	W12
	BYTE		        Gn4 
	BYTE	W12
	BYTE		N22     Fs4 
	BYTE	W24
	BYTE		N10     Gn4 
	BYTE	W12
	BYTE		TIE     En4 
	BYTE	W12
// 101   ----------------------------------------
	BYTE	W84
	BYTE	W03
	BYTE		EOT   
	BYTE	W09
// 102   ----------------------------------------
	BYTE		N22   
	BYTE	W24
	BYTE		N10     Fs4 
	BYTE	W12
	BYTE		        Gn4 
	BYTE	W12
	BYTE		N22     Fs4 
	BYTE	W24
	BYTE		N10     Gn4 
	BYTE	W12
	BYTE		N56     En4 
	BYTE	W12
// 103   ----------------------------------------
	BYTE	W60
	BYTE		N10   
	BYTE	W12
	BYTE		        Fs4 
	BYTE	W12
	BYTE		        Gn4 
	BYTE	W12
// 104   ----------------------------------------
	BYTE		        An4 
	BYTE	W12
	BYTE		N32     Bn4 
	BYTE	W36
	BYTE		N16     An4 
	BYTE	W36
	BYTE		N32     Bn4 
	BYTE	W12
// 105   ----------------------------------------
	BYTE	W24
	BYTE		N16     An4 
	BYTE	W36
	BYTE		N10     Dn5 
	BYTE	W24
	BYTE		        Cn5 
	BYTE	W12
// 106   ----------------------------------------
	BYTE	W12
	BYTE		N28     Bn4 
	BYTE	W36
	BYTE		N10   
	BYTE	W36
	BYTE		N68   
	BYTE	W12
// 107   ----------------------------------------
	BYTE	W72
	BYTE		N10     Bn3 
	BYTE	W12
	BYTE		        En4 
	BYTE	W12
// 108   ----------------------------------------
	BYTE		        Fs4 
	BYTE	W12
	BYTE		        Gn4   v072
	BYTE	W12
	BYTE		        Bn3 
	BYTE	W12
	BYTE		        En4 
	BYTE	W12
	BYTE		        Fs4 
	BYTE	W12
	BYTE		        Gn4 
	BYTE	W12
	BYTE		        Bn3 
	BYTE	W12
	BYTE		        En4 
	BYTE	W12
// 109   ----------------------------------------
CastlevaniaOrderofEcclesiaRhapsodyoftheForsaken_3_109:
	BYTE		N10     Fs4   v072
	BYTE	W12
	BYTE		        Gn4 
	BYTE	W12
	BYTE		        Cn4 
	BYTE	W12
	BYTE		        En4 
	BYTE	W12
	BYTE		        Fs4 
	BYTE	W12
	BYTE		        Gn4 
	BYTE	W12
	BYTE		        Cn4 
	BYTE	W12
	BYTE		        En4 
	BYTE	W12
	BYTE	PEND
// 110   ----------------------------------------
CastlevaniaOrderofEcclesiaRhapsodyoftheForsaken_3_110:
	BYTE		N10     Fs4   v072
	BYTE	W12
	BYTE		        Gn4 
	BYTE	W12
	BYTE		        Cs4 
	BYTE	W12
	BYTE		        En4 
	BYTE	W12
	BYTE		        Fs4 
	BYTE	W12
	BYTE		        Gn4 
	BYTE	W12
	BYTE		        An4 
	BYTE	W12
	BYTE		        Bn4 
	BYTE	W12
	BYTE	PEND
// 111   ----------------------------------------
	BYTE		N22     An4 
	BYTE	W24
	BYTE		N10     Gn4 
	BYTE	W12
	BYTE		N22     Fs4 
	BYTE	W36
	BYTE		N10     Bn3 
	BYTE	W12
	BYTE		        En4 
	BYTE	W12
// 112   ----------------------------------------
	BYTE		        Fs4 
	BYTE	W12
	BYTE		        Gn4 
	BYTE	W12
	BYTE		        Bn3 
	BYTE	W12
	BYTE		        En4 
	BYTE	W12
	BYTE		        Fs4 
	BYTE	W12
	BYTE		        Gn4 
	BYTE	W12
	BYTE		        Bn3 
	BYTE	W12
	BYTE		        En4 
	BYTE	W12
// 113   ----------------------------------------
	BYTE	PATT
	 POIN2	CastlevaniaOrderofEcclesiaRhapsodyoftheForsaken_3_109
// 114   ----------------------------------------
	BYTE	PATT
	 POIN2	CastlevaniaOrderofEcclesiaRhapsodyoftheForsaken_3_110
// 115   ----------------------------------------
	BYTE		N22     Dn5   v072
	BYTE	W24
	BYTE		N10     Cs5 
	BYTE	W12
	BYTE		        An4 
	BYTE	W12
	BYTE		N28     Bn4 
	BYTE	W36
	BYTE		N10     Fs4 
	BYTE	W12
// 116   ----------------------------------------
CastlevaniaOrderofEcclesiaRhapsodyoftheForsaken_3_116:
	BYTE		N44     Gn4   v072
	BYTE	W60
	BYTE		N10   
	BYTE	W12
	BYTE		        Fs4 
	BYTE	W12
	BYTE		        En4 
	BYTE	W12
	BYTE	PEND
// 117   ----------------------------------------
CastlevaniaOrderofEcclesiaRhapsodyoftheForsaken_3_117:
	BYTE		N56     Fs4   v072
	BYTE	W60
	BYTE		N44     Dn4 
	BYTE	W36
	BYTE	PEND
// 118   ----------------------------------------
	BYTE	PATT
	 POIN2	CastlevaniaOrderofEcclesiaRhapsodyoftheForsaken_3_052
// 119   ----------------------------------------
	BYTE	W56
	BYTE		EOT     En4 
	BYTE	W28
	BYTE		N10     Fs4   v072
	BYTE	W12
// 120   ----------------------------------------
	BYTE	PATT
	 POIN2	CastlevaniaOrderofEcclesiaRhapsodyoftheForsaken_3_116
// 121   ----------------------------------------
	BYTE	PATT
	 POIN2	CastlevaniaOrderofEcclesiaRhapsodyoftheForsaken_3_117
// 122   ----------------------------------------
	BYTE	PATT
	 POIN2	CastlevaniaOrderofEcclesiaRhapsodyoftheForsaken_3_052
// 123   ----------------------------------------
	BYTE	W96
// 124   ----------------------------------------
	BYTE	W08
	BYTE		EOT     En4 
	BYTE	W04
	BYTE		TIE     En4   v052
	BYTE	W84
// 125   ----------------------------------------
	BYTE	W96
// 126   ----------------------------------------
	BYTE	W10
	BYTE		EOT   
	BYTE	W02
	BYTE		N68   
	BYTE	W72
	BYTE		TIE     Dn4 
	BYTE	W12
// 127   ----------------------------------------
	BYTE	W96
// 128   ----------------------------------------
	BYTE	W02
	BYTE		EOT   
	BYTE	W10
	BYTE		TIE     En4 
	BYTE	W84
// 129   ----------------------------------------
	BYTE	W96
// 130   ----------------------------------------
	BYTE	W08
	BYTE		EOT   
	BYTE	W04
	BYTE		TIE   
	BYTE	W84
// 131   ----------------------------------------
	BYTE	W96
// 132   ----------------------------------------
	BYTE	W08
	BYTE		EOT   
	BYTE	W04
	BYTE		TIE     Fs4 
	BYTE	W84
// 133   ----------------------------------------
	BYTE	W96
// 134   ----------------------------------------
	BYTE	W08
	BYTE		EOT   
	BYTE	W04
	BYTE		N14     En4   v060
	BYTE	W36
	BYTE		N10   
	BYTE	W24
	BYTE		        Dn4 
	BYTE	W12
	BYTE		N14     En4 
	BYTE	W12
// 135   ----------------------------------------
	BYTE	PATT
	 POIN2	CastlevaniaOrderofEcclesiaRhapsodyoftheForsaken_3_065
// 136   ----------------------------------------
	BYTE	PATT
	 POIN2	CastlevaniaOrderofEcclesiaRhapsodyoftheForsaken_3_066
// 137   ----------------------------------------
	BYTE	PATT
	 POIN2	CastlevaniaOrderofEcclesiaRhapsodyoftheForsaken_3_067
// 138   ----------------------------------------
	BYTE	W03
	BYTE	FINE

//**************** Track 4 (Midi-Chn.4) ****************//

CastlevaniaOrderofEcclesiaRhapsodyoftheForsaken_4:
	BYTE	KEYSH   CastlevaniaOrderofEcclesiaRhapsodyoftheForsaken_key+0
// 000   ----------------------------------------
	BYTE		VOICE   63
	BYTE		MODT    0
	BYTE		LFOS    44
	BYTE		VOL     82*CastlevaniaOrderofEcclesiaRhapsodyoftheForsaken_mvl/mxv
	BYTE	W96
// 001   ----------------------------------------
	BYTE	W96
// 002   ----------------------------------------
	BYTE	W96
// 003   ----------------------------------------
	BYTE	W96
// 004   ----------------------------------------
	BYTE	W96
// 005   ----------------------------------------
	BYTE	W96
// 006   ----------------------------------------
	BYTE	W96
// 007   ----------------------------------------
	BYTE	W96
// 008   ----------------------------------------
	BYTE	W96
// 009   ----------------------------------------
	BYTE	W12
	BYTE		PAN     c_v+15
	BYTE		VOL     77*CastlevaniaOrderofEcclesiaRhapsodyoftheForsaken_mvl/mxv
	BYTE	W84
// 010   ----------------------------------------
	BYTE	W12
CastlevaniaOrderofEcclesiaRhapsodyoftheForsaken_4_B1:
	BYTE		N10     Bn2   v080
	BYTE	W12
	BYTE		        En3 
	BYTE	W12
	BYTE		        Fs3 
	BYTE	W12
	BYTE		N92     Gn3 
	BYTE	W48
// 011   ----------------------------------------
CastlevaniaOrderofEcclesiaRhapsodyoftheForsaken_4_011:
	BYTE	W60
	BYTE		N22     Fs3   v080
	BYTE	W24
	BYTE		        En3 
	BYTE	W12
	BYTE	PEND
// 012   ----------------------------------------
	BYTE	W12
	BYTE		N32     Dn3 
	BYTE	W36
	BYTE		        An2 
	BYTE	W36
	BYTE		N88     Bn2 
	BYTE	W12
// 013   ----------------------------------------
	BYTE	W84
	BYTE		N10     Gn2 
	BYTE	W12
// 014   ----------------------------------------
	BYTE		        An2 
	BYTE	W12
	BYTE		N68     Bn2 
	BYTE	W72
	BYTE		N22     Gn2 
	BYTE	W12
// 015   ----------------------------------------
	BYTE	W12
	BYTE		N32     Fs2 
	BYTE	W36
	BYTE		N22     Gn2 
	BYTE	W24
	BYTE		        An2 
	BYTE	W24
// 016   ----------------------------------------
	BYTE		        Dn3 
	BYTE	W24
	BYTE		N10     An2 
	BYTE	W12
	BYTE		TIE     Bn2 
	BYTE	W60
// 017   ----------------------------------------
	BYTE	W80
	BYTE	W01
	BYTE		EOT   
	BYTE	W15
// 018   ----------------------------------------
	BYTE	W12
	BYTE		N10   
	BYTE	W12
	BYTE		        En3 
	BYTE	W12
	BYTE		        Fs3 
	BYTE	W12
	BYTE		N92     Gn3 
	BYTE	W48
// 019   ----------------------------------------
	BYTE	PATT
	 POIN2	CastlevaniaOrderofEcclesiaRhapsodyoftheForsaken_4_011
// 020   ----------------------------------------
	BYTE	W12
	BYTE		N32     Dn3   v080
	BYTE	W36
	BYTE		        An2 
	BYTE	W36
	BYTE		N90     Bn2 
	BYTE	W12
// 021   ----------------------------------------
	BYTE	W84
	BYTE		N10     Gn2 
	BYTE	W12
// 022   ----------------------------------------
	BYTE		        Bn2 
	BYTE	W12
	BYTE		N84     An2 
	BYTE	W84
// 023   ----------------------------------------
	BYTE	W12
	BYTE		N40     Dn3 
	BYTE	W48
	BYTE		N28     Fs3 
	BYTE	W36
// 024   ----------------------------------------
	BYTE		N22   
	BYTE	W24
	BYTE		N10     Gn3 
	BYTE	W12
	BYTE		TIE     En3 
	BYTE	W60
// 025   ----------------------------------------
	BYTE	W84
	BYTE	W03
	BYTE		EOT   
	BYTE	W09
// 026   ----------------------------------------
CastlevaniaOrderofEcclesiaRhapsodyoftheForsaken_4_026:
	BYTE		N22     En3   v080
	BYTE	W24
	BYTE		N10     Fs3 
	BYTE	W12
	BYTE		        Gn3 
	BYTE	W12
	BYTE		N22     Fs3 
	BYTE	W24
	BYTE		        Gn3 
	BYTE	W24
	BYTE	PEND
// 027   ----------------------------------------
	BYTE		N84     En3 
	BYTE	W96
// 028   ----------------------------------------
	BYTE	PATT
	 POIN2	CastlevaniaOrderofEcclesiaRhapsodyoftheForsaken_4_026
// 029   ----------------------------------------
	BYTE		N80     En3   v080
	BYTE	W96
// 030   ----------------------------------------
	BYTE		N22   
	BYTE	W24
	BYTE		N10     Fn3 
	BYTE	W12
	BYTE		        Gn3 
	BYTE	W12
	BYTE		N22     Fn3 
	BYTE	W24
	BYTE		        Gn3 
	BYTE	W24
// 031   ----------------------------------------
	BYTE		        En3 
	BYTE	W60
	BYTE		N10     An2 
	BYTE	W12
	BYTE		        Cn3 
	BYTE	W12
	BYTE		        En3 
	BYTE	W12
// 032   ----------------------------------------
	BYTE		        An3 
	BYTE	W12
	BYTE		N32   
	BYTE	W36
	BYTE		        Bn3 
	BYTE	W36
	BYTE		        An3 
	BYTE	W12
// 033   ----------------------------------------
	BYTE	W24
	BYTE		N78     Gs3 
	BYTE	W72
// 034   ----------------------------------------
	BYTE	W12
	BYTE		N10     En3 
	BYTE	W12
	BYTE		        Fs3 
	BYTE	W12
	BYTE		        Gn3 
	BYTE	W12
	BYTE		N22     Fs3 
	BYTE	W24
	BYTE		N10     Gn3 
	BYTE	W12
	BYTE		TIE     En3 
	BYTE	W12
// 035   ----------------------------------------
	BYTE	W84
	BYTE	W03
	BYTE		EOT   
	BYTE	W09
// 036   ----------------------------------------
	BYTE		N22   
	BYTE	W24
	BYTE		N10     Fs3 
	BYTE	W12
	BYTE		        Gn3 
	BYTE	W12
	BYTE		N22     Fs3 
	BYTE	W24
	BYTE		N10     Gn3 
	BYTE	W12
	BYTE		N56     En3 
	BYTE	W12
// 037   ----------------------------------------
	BYTE	W60
	BYTE		N10   
	BYTE	W12
	BYTE		        Fs3 
	BYTE	W12
	BYTE		        Gn3 
	BYTE	W12
// 038   ----------------------------------------
	BYTE		        An3 
	BYTE	W12
	BYTE		N32     Bn3 
	BYTE	W36
	BYTE		N16     An3 
	BYTE	W36
	BYTE		N32     Bn3 
	BYTE	W12
// 039   ----------------------------------------
	BYTE	W24
	BYTE		N16     An3 
	BYTE	W36
	BYTE		N10     Dn4 
	BYTE	W24
	BYTE		        Cn4 
	BYTE	W12
// 040   ----------------------------------------
	BYTE	W12
	BYTE		N28     Bn3 
	BYTE	W36
	BYTE		N10   
	BYTE	W36
	BYTE		N68   
	BYTE	W12
// 041   ----------------------------------------
	BYTE	W72
	BYTE		N10     Bn2 
	BYTE	W12
	BYTE		        En3 
	BYTE	W12
// 042   ----------------------------------------
	BYTE		        Fs3 
	BYTE	W12
	BYTE		        Gn3   v084
	BYTE	W12
	BYTE		        Bn2 
	BYTE	W12
	BYTE		        En3 
	BYTE	W12
	BYTE		        Fs3 
	BYTE	W12
	BYTE		        Gn3 
	BYTE	W12
	BYTE		        Bn2 
	BYTE	W12
	BYTE		        En3 
	BYTE	W12
// 043   ----------------------------------------
CastlevaniaOrderofEcclesiaRhapsodyoftheForsaken_4_043:
	BYTE		N10     Fs3   v084
	BYTE	W12
	BYTE		        Gn3 
	BYTE	W12
	BYTE		        Cn3 
	BYTE	W12
	BYTE		        En3 
	BYTE	W12
	BYTE		        Fs3 
	BYTE	W12
	BYTE		        Gn3 
	BYTE	W12
	BYTE		        Cn3 
	BYTE	W12
	BYTE		        En3 
	BYTE	W12
	BYTE	PEND
// 044   ----------------------------------------
CastlevaniaOrderofEcclesiaRhapsodyoftheForsaken_4_044:
	BYTE		N10     Fs3   v084
	BYTE	W12
	BYTE		        Gn3 
	BYTE	W12
	BYTE		        Cs3 
	BYTE	W12
	BYTE		        En3 
	BYTE	W12
	BYTE		        Fs3 
	BYTE	W12
	BYTE		        Gn3 
	BYTE	W12
	BYTE		        An3 
	BYTE	W12
	BYTE		        Bn3 
	BYTE	W12
	BYTE	PEND
// 045   ----------------------------------------
	BYTE		N22     An3 
	BYTE	W24
	BYTE		N10     Gn3 
	BYTE	W12
	BYTE		N22     Fs3 
	BYTE	W36
	BYTE		N10     Bn2 
	BYTE	W12
	BYTE		        En3 
	BYTE	W12
// 046   ----------------------------------------
	BYTE		        Fs3 
	BYTE	W12
	BYTE		        Gn3 
	BYTE	W12
	BYTE		        Bn2 
	BYTE	W12
	BYTE		        En3 
	BYTE	W12
	BYTE		        Fs3 
	BYTE	W12
	BYTE		        Gn3 
	BYTE	W12
	BYTE		        Bn2 
	BYTE	W12
	BYTE		        En3 
	BYTE	W12
// 047   ----------------------------------------
	BYTE	PATT
	 POIN2	CastlevaniaOrderofEcclesiaRhapsodyoftheForsaken_4_043
// 048   ----------------------------------------
	BYTE	PATT
	 POIN2	CastlevaniaOrderofEcclesiaRhapsodyoftheForsaken_4_044
// 049   ----------------------------------------
	BYTE		N22     An3   v084
	BYTE	W24
	BYTE		N10     Gn3 
	BYTE	W12
	BYTE		N32     Fs3 
	BYTE	W48
	BYTE		N10   
	BYTE	W12
// 050   ----------------------------------------
	BYTE		N44     Gn3 
	BYTE	W60
	BYTE		N10   
	BYTE	W12
	BYTE		        Fs3 
	BYTE	W12
	BYTE		        En3 
	BYTE	W12
// 051   ----------------------------------------
	BYTE		N56     Fs3 
	BYTE	W60
	BYTE		N44     Dn3 
	BYTE	W36
// 052   ----------------------------------------
	BYTE	W12
	BYTE		TIE     En3   v072
	BYTE	W84
// 053   ----------------------------------------
	BYTE	W96
// 054   ----------------------------------------
	BYTE	W08
	BYTE		EOT   
	BYTE	W88
// 055   ----------------------------------------
	BYTE	W96
// 056   ----------------------------------------
	BYTE	W96
// 057   ----------------------------------------
	BYTE	W96
// 058   ----------------------------------------
	BYTE	W96
// 059   ----------------------------------------
	BYTE	W96
// 060   ----------------------------------------
	BYTE	W96
// 061   ----------------------------------------
	BYTE	W96
// 062   ----------------------------------------
	BYTE	W96
// 063   ----------------------------------------
	BYTE	W96
// 064   ----------------------------------------
	BYTE	W96
// 065   ----------------------------------------
	BYTE	W96
// 066   ----------------------------------------
	BYTE	W96
// 067   ----------------------------------------
	BYTE	W96
// 068   ----------------------------------------
	BYTE	W96
// 069   ----------------------------------------
	BYTE	W96
// 070   ----------------------------------------
	BYTE	W96
// 071   ----------------------------------------
	BYTE	W96
// 072   ----------------------------------------
	BYTE	W96
// 073   ----------------------------------------
	BYTE	W96
// 074   ----------------------------------------
	BYTE	W96
// 075   ----------------------------------------
	BYTE	W96
// 076   ----------------------------------------
	BYTE	W12
	BYTE	GoTo
	 POIN2	CastlevaniaOrderofEcclesiaRhapsodyoftheForsaken_4_B1
CastlevaniaOrderofEcclesiaRhapsodyoftheForsaken_4_B2:
	BYTE		N10     Bn2   v068
	BYTE	W12
	BYTE		        En3 
	BYTE	W12
	BYTE		        Fs3 
	BYTE	W12
	BYTE		N92     Gn3 
	BYTE	W48
// 077   ----------------------------------------
CastlevaniaOrderofEcclesiaRhapsodyoftheForsaken_4_077:
	BYTE	W60
	BYTE		N22     Fs3   v068
	BYTE	W24
	BYTE		        En3 
	BYTE	W12
	BYTE	PEND
// 078   ----------------------------------------
	BYTE	W12
	BYTE		N32     Dn3 
	BYTE	W36
	BYTE		        An2 
	BYTE	W36
	BYTE		N88     Bn2 
	BYTE	W12
// 079   ----------------------------------------
	BYTE	W84
	BYTE		N10     Gn2 
	BYTE	W12
// 080   ----------------------------------------
	BYTE		        An2 
	BYTE	W12
	BYTE		N68     Bn2 
	BYTE	W72
	BYTE		N22     Gn2 
	BYTE	W12
// 081   ----------------------------------------
	BYTE	W12
	BYTE		N32     Fs2 
	BYTE	W36
	BYTE		N22     Gn2 
	BYTE	W24
	BYTE		        An2 
	BYTE	W24
// 082   ----------------------------------------
	BYTE		        Dn3 
	BYTE	W24
	BYTE		N10     An2 
	BYTE	W12
	BYTE		TIE     Bn2 
	BYTE	W60
// 083   ----------------------------------------
	BYTE	W80
	BYTE	W01
	BYTE		EOT   
	BYTE	W15
// 084   ----------------------------------------
	BYTE	W12
	BYTE		N10   
	BYTE	W12
	BYTE		        En3 
	BYTE	W12
	BYTE		        Fs3 
	BYTE	W12
	BYTE		N92     Gn3 
	BYTE	W48
// 085   ----------------------------------------
	BYTE	PATT
	 POIN2	CastlevaniaOrderofEcclesiaRhapsodyoftheForsaken_4_077
// 086   ----------------------------------------
	BYTE	W12
	BYTE		N32     Dn3   v068
	BYTE	W36
	BYTE		        An2 
	BYTE	W36
	BYTE		N90     Bn2 
	BYTE	W12
// 087   ----------------------------------------
	BYTE	W84
	BYTE		N10     Gn2 
	BYTE	W12
// 088   ----------------------------------------
	BYTE		        Bn2 
	BYTE	W12
	BYTE		N84     An2 
	BYTE	W84
// 089   ----------------------------------------
	BYTE	W12
	BYTE		N40     Dn3 
	BYTE	W48
	BYTE		N28     Fs3 
	BYTE	W36
// 090   ----------------------------------------
	BYTE		N22   
	BYTE	W24
	BYTE		N10     Gn3 
	BYTE	W12
	BYTE		TIE     En3 
	BYTE	W60
// 091   ----------------------------------------
	BYTE	W84
	BYTE	W03
	BYTE		EOT   
	BYTE	W09
// 092   ----------------------------------------
CastlevaniaOrderofEcclesiaRhapsodyoftheForsaken_4_092:
	BYTE		N22     En3   v068
	BYTE	W24
	BYTE		N10     Fs3 
	BYTE	W12
	BYTE		        Gn3 
	BYTE	W12
	BYTE		N22     Fs3 
	BYTE	W24
	BYTE		        Gn3 
	BYTE	W24
	BYTE	PEND
// 093   ----------------------------------------
	BYTE		N84     En3 
	BYTE	W96
// 094   ----------------------------------------
	BYTE	PATT
	 POIN2	CastlevaniaOrderofEcclesiaRhapsodyoftheForsaken_4_092
// 095   ----------------------------------------
	BYTE		N84     En3   v068
	BYTE	W96
// 096   ----------------------------------------
	BYTE		N22   
	BYTE	W24
	BYTE		N10     Fn3 
	BYTE	W12
	BYTE		        Gn3 
	BYTE	W12
	BYTE		N22     Fn3 
	BYTE	W24
	BYTE		        Gn3 
	BYTE	W24
// 097   ----------------------------------------
	BYTE		        En3 
	BYTE	W60
	BYTE		N10     An2 
	BYTE	W12
	BYTE		        Cn3 
	BYTE	W12
	BYTE		        En3 
	BYTE	W12
// 098   ----------------------------------------
	BYTE		        An3 
	BYTE	W12
	BYTE		N32   
	BYTE	W36
	BYTE		        Bn3 
	BYTE	W36
	BYTE		        An3 
	BYTE	W12
// 099   ----------------------------------------
	BYTE	W24
	BYTE		N78     Gs3 
	BYTE	W72
// 100   ----------------------------------------
	BYTE	W12
	BYTE		N10     En3 
	BYTE	W12
	BYTE		        Fs3 
	BYTE	W12
	BYTE		        Gn3 
	BYTE	W12
	BYTE		N22     Fs3 
	BYTE	W24
	BYTE		N10     Gn3 
	BYTE	W12
	BYTE		TIE     En3 
	BYTE	W12
// 101   ----------------------------------------
	BYTE	W84
	BYTE	W03
	BYTE		EOT   
	BYTE	W09
// 102   ----------------------------------------
	BYTE		N22   
	BYTE	W24
	BYTE		N10     Fs3 
	BYTE	W12
	BYTE		        Gn3 
	BYTE	W12
	BYTE		N22     Fs3 
	BYTE	W24
	BYTE		N10     Gn3 
	BYTE	W12
	BYTE		N56     En3 
	BYTE	W12
// 103   ----------------------------------------
	BYTE	W60
	BYTE		N10   
	BYTE	W12
	BYTE		        Fs3 
	BYTE	W12
	BYTE		        Gn3 
	BYTE	W12
// 104   ----------------------------------------
	BYTE		        An3 
	BYTE	W12
	BYTE		N32     Bn3 
	BYTE	W36
	BYTE		N16     An3 
	BYTE	W36
	BYTE		N32     Bn3 
	BYTE	W12
// 105   ----------------------------------------
	BYTE	W24
	BYTE		N16     An3 
	BYTE	W36
	BYTE		N10     Dn4 
	BYTE	W24
	BYTE		        Cn4 
	BYTE	W12
// 106   ----------------------------------------
	BYTE	W12
	BYTE		N28     Bn3 
	BYTE	W36
	BYTE		N10   
	BYTE	W36
	BYTE		N68   
	BYTE	W12
// 107   ----------------------------------------
	BYTE	W72
	BYTE		N10     Bn2 
	BYTE	W12
	BYTE		        En3 
	BYTE	W12
// 108   ----------------------------------------
	BYTE		        Fs3 
	BYTE	W12
	BYTE		        Gn3   v072
	BYTE	W12
	BYTE		        Bn2 
	BYTE	W12
	BYTE		        En3 
	BYTE	W12
	BYTE		        Fs3 
	BYTE	W12
	BYTE		        Gn3 
	BYTE	W12
	BYTE		        Bn2 
	BYTE	W12
	BYTE		        En3 
	BYTE	W12
// 109   ----------------------------------------
CastlevaniaOrderofEcclesiaRhapsodyoftheForsaken_4_109:
	BYTE		N10     Fs3   v072
	BYTE	W12
	BYTE		        Gn3 
	BYTE	W12
	BYTE		        Cn3 
	BYTE	W12
	BYTE		        En3 
	BYTE	W12
	BYTE		        Fs3 
	BYTE	W12
	BYTE		        Gn3 
	BYTE	W12
	BYTE		        Cn3 
	BYTE	W12
	BYTE		        En3 
	BYTE	W12
	BYTE	PEND
// 110   ----------------------------------------
CastlevaniaOrderofEcclesiaRhapsodyoftheForsaken_4_110:
	BYTE		N10     Fs3   v072
	BYTE	W12
	BYTE		        Gn3 
	BYTE	W12
	BYTE		        Cs3 
	BYTE	W12
	BYTE		        En3 
	BYTE	W12
	BYTE		        Fs3 
	BYTE	W12
	BYTE		        Gn3 
	BYTE	W12
	BYTE		        An3 
	BYTE	W12
	BYTE		        Bn3 
	BYTE	W12
	BYTE	PEND
// 111   ----------------------------------------
	BYTE		N22     An3 
	BYTE	W24
	BYTE		N10     Gn3 
	BYTE	W12
	BYTE		N22     Fs3 
	BYTE	W36
	BYTE		N10     Bn2 
	BYTE	W12
	BYTE		        En3 
	BYTE	W12
// 112   ----------------------------------------
	BYTE		        Fs3 
	BYTE	W12
	BYTE		        Gn3 
	BYTE	W12
	BYTE		        Bn2 
	BYTE	W12
	BYTE		        En3 
	BYTE	W12
	BYTE		        Fs3 
	BYTE	W12
	BYTE		        Gn3 
	BYTE	W12
	BYTE		        Bn2 
	BYTE	W12
	BYTE		        En3 
	BYTE	W12
// 113   ----------------------------------------
	BYTE	PATT
	 POIN2	CastlevaniaOrderofEcclesiaRhapsodyoftheForsaken_4_109
// 114   ----------------------------------------
	BYTE	PATT
	 POIN2	CastlevaniaOrderofEcclesiaRhapsodyoftheForsaken_4_110
// 115   ----------------------------------------
	BYTE		N22     Dn4   v072
	BYTE	W24
	BYTE		N10     Cs4 
	BYTE	W12
	BYTE		        An3 
	BYTE	W12
	BYTE		N28     Bn3 
	BYTE	W36
	BYTE		N10     Fs3 
	BYTE	W12
// 116   ----------------------------------------
CastlevaniaOrderofEcclesiaRhapsodyoftheForsaken_4_116:
	BYTE		N44     Gn3   v072
	BYTE	W60
	BYTE		N10   
	BYTE	W12
	BYTE		        Fs3 
	BYTE	W12
	BYTE		        En3 
	BYTE	W12
	BYTE	PEND
// 117   ----------------------------------------
CastlevaniaOrderofEcclesiaRhapsodyoftheForsaken_4_117:
	BYTE		N56     Fs3   v072
	BYTE	W60
	BYTE		N44     Dn3 
	BYTE	W36
	BYTE	PEND
// 118   ----------------------------------------
	BYTE	W12
	BYTE		TIE     En3 
	BYTE	W84
// 119   ----------------------------------------
	BYTE	W56
	BYTE		EOT   
	BYTE	W28
	BYTE		N10     Fs3 
	BYTE	W12
// 120   ----------------------------------------
	BYTE	PATT
	 POIN2	CastlevaniaOrderofEcclesiaRhapsodyoftheForsaken_4_116
// 121   ----------------------------------------
	BYTE	PATT
	 POIN2	CastlevaniaOrderofEcclesiaRhapsodyoftheForsaken_4_117
// 122   ----------------------------------------
	BYTE	W12
	BYTE		TIE     En3   v072
	BYTE	W84
// 123   ----------------------------------------
	BYTE	W96
// 124   ----------------------------------------
	BYTE	W08
	BYTE		EOT   
	BYTE	W88
// 125   ----------------------------------------
	BYTE	W96
// 126   ----------------------------------------
	BYTE	W96
// 127   ----------------------------------------
	BYTE	W96
// 128   ----------------------------------------
	BYTE	W96
// 129   ----------------------------------------
	BYTE	W96
// 130   ----------------------------------------
	BYTE	W96
// 131   ----------------------------------------
	BYTE	W96
// 132   ----------------------------------------
	BYTE	W96
// 133   ----------------------------------------
	BYTE	W96
// 134   ----------------------------------------
	BYTE	W96
// 135   ----------------------------------------
	BYTE	W96
// 136   ----------------------------------------
	BYTE	W96
// 137   ----------------------------------------
	BYTE	W96
// 138   ----------------------------------------
	BYTE	W03
	BYTE	FINE

//**************** Track 5 (Midi-Chn.5) ****************//

CastlevaniaOrderofEcclesiaRhapsodyoftheForsaken_5:
	BYTE	KEYSH   CastlevaniaOrderofEcclesiaRhapsodyoftheForsaken_key+0
// 000   ----------------------------------------
	BYTE		VOICE   36
	BYTE		MODT    0
	BYTE		LFOS    44
	BYTE		VOL     81*CastlevaniaOrderofEcclesiaRhapsodyoftheForsaken_mvl/mxv
	BYTE		BENDR   12
	BYTE		MOD     0
	BYTE		PAN     c_v+7
	BYTE		VOL     81*CastlevaniaOrderofEcclesiaRhapsodyoftheForsaken_mvl/mxv
	BYTE		N05     Bn0   v076
	BYTE	W06
	BYTE		        Bn0   v120
	BYTE	W06
	BYTE		TIE   
	BYTE	W84
// 001   ----------------------------------------
	BYTE	W80
	BYTE	W03
	BYTE		EOT   
	BYTE	W01
	BYTE		N22     Bn1   v084
	BYTE	W01
	BYTE		BEND    c_v+0
	BYTE	W04
	BYTE		        c_v-3
	BYTE	W04
	BYTE		        c_v-11
	BYTE	W03
// 002   ----------------------------------------
	BYTE	W01
	BYTE		        c_v-25
	BYTE	W04
	BYTE		        c_v-43
	BYTE	W04
	BYTE		        c_v-64
	BYTE	W03
	BYTE		        c_v+0
	BYTE		N10     En1   v120
	BYTE	W12
	BYTE		N04   
	BYTE	W06
	BYTE		N04   
	BYTE	W06
	BYTE		N08   
	BYTE	W12
	BYTE		N08   
	BYTE	W12
	BYTE		N08   
	BYTE	W12
	BYTE		N08   
	BYTE	W12
	BYTE		N08   
	BYTE	W12
// 003   ----------------------------------------
CastlevaniaOrderofEcclesiaRhapsodyoftheForsaken_5_003:
	BYTE		N05     En1   v120
	BYTE	W06
	BYTE		N05   
	BYTE	W06
	BYTE		N08   
	BYTE	W12
	BYTE		N08   
	BYTE	W12
	BYTE		N08   
	BYTE	W12
	BYTE		N08   
	BYTE	W12
	BYTE		N08   
	BYTE	W12
	BYTE		N08   
	BYTE	W12
	BYTE		N03   
	BYTE	W06
	BYTE		N03   
	BYTE	W06
	BYTE	PEND
// 004   ----------------------------------------
CastlevaniaOrderofEcclesiaRhapsodyoftheForsaken_5_004:
	BYTE		N10     En1   v120
	BYTE	W12
	BYTE		N08   
	BYTE	W12
	BYTE		N08   
	BYTE	W12
	BYTE		N08   
	BYTE	W12
	BYTE		N03   
	BYTE	W06
	BYTE		N03   
	BYTE	W06
	BYTE		N08   
	BYTE	W12
	BYTE		N08   
	BYTE	W12
	BYTE		N08   
	BYTE	W12
	BYTE	PEND
// 005   ----------------------------------------
CastlevaniaOrderofEcclesiaRhapsodyoftheForsaken_5_005:
	BYTE		N08     En1   v120
	BYTE	W12
	BYTE		N08   
	BYTE	W12
	BYTE		N08   
	BYTE	W12
	BYTE		N08   
	BYTE	W12
	BYTE		N08   
	BYTE	W12
	BYTE		N08   
	BYTE	W12
	BYTE		N08   
	BYTE	W12
	BYTE		N08   
	BYTE	W12
	BYTE	PEND
// 006   ----------------------------------------
	BYTE		N03     Bn0 
	BYTE	W06
	BYTE		N03   
	BYTE	W06
	BYTE		N08     En1 
	BYTE	W12
	BYTE		N08   
	BYTE	W12
	BYTE		N08   
	BYTE	W12
	BYTE		N08   
	BYTE	W12
	BYTE		N08   
	BYTE	W12
	BYTE		N08   
	BYTE	W12
	BYTE		N08   
	BYTE	W12
// 007   ----------------------------------------
	BYTE	PATT
	 POIN2	CastlevaniaOrderofEcclesiaRhapsodyoftheForsaken_5_005
// 008   ----------------------------------------
CastlevaniaOrderofEcclesiaRhapsodyoftheForsaken_5_008:
	BYTE		N04     En1   v120
	BYTE	W06
	BYTE		N04   
	BYTE	W06
	BYTE		N08   
	BYTE	W12
	BYTE		N08   
	BYTE	W12
	BYTE		N08   
	BYTE	W12
	BYTE		N08   
	BYTE	W12
	BYTE		N08   
	BYTE	W12
	BYTE		N08   
	BYTE	W12
	BYTE		N08   
	BYTE	W12
	BYTE	PEND
// 009   ----------------------------------------
	BYTE	PATT
	 POIN2	CastlevaniaOrderofEcclesiaRhapsodyoftheForsaken_5_005
// 010   ----------------------------------------
	BYTE		N08     En1   v120
	BYTE	W12
CastlevaniaOrderofEcclesiaRhapsodyoftheForsaken_5_B1:
	BYTE		N08     En1   v120
	BYTE	W12
	BYTE		N08   
	BYTE	W12
	BYTE		N08   
	BYTE	W12
	BYTE		N03   
	BYTE	W06
	BYTE		N03   
	BYTE	W06
	BYTE		N08   
	BYTE	W12
	BYTE		N08   
	BYTE	W12
	BYTE		N08   
	BYTE	W12
// 011   ----------------------------------------
	BYTE	PATT
	 POIN2	CastlevaniaOrderofEcclesiaRhapsodyoftheForsaken_5_005
// 012   ----------------------------------------
	BYTE	PATT
	 POIN2	CastlevaniaOrderofEcclesiaRhapsodyoftheForsaken_5_005
// 013   ----------------------------------------
CastlevaniaOrderofEcclesiaRhapsodyoftheForsaken_5_013:
	BYTE		N08     En1   v120
	BYTE	W12
	BYTE		N08   
	BYTE	W12
	BYTE		N08   
	BYTE	W12
	BYTE		N08   
	BYTE	W12
	BYTE		N08   
	BYTE	W12
	BYTE		N03   
	BYTE	W06
	BYTE		N03   
	BYTE	W06
	BYTE		N08   
	BYTE	W12
	BYTE		N08   
	BYTE	W12
	BYTE	PEND
// 014   ----------------------------------------
	BYTE	PATT
	 POIN2	CastlevaniaOrderofEcclesiaRhapsodyoftheForsaken_5_005
// 015   ----------------------------------------
CastlevaniaOrderofEcclesiaRhapsodyoftheForsaken_5_015:
	BYTE		N08     En1   v120
	BYTE	W12
	BYTE		        Dn1 
	BYTE	W12
	BYTE		N08   
	BYTE	W12
	BYTE		N08   
	BYTE	W12
	BYTE		N08   
	BYTE	W12
	BYTE		N08   
	BYTE	W12
	BYTE		N08   
	BYTE	W12
	BYTE		N08   
	BYTE	W12
	BYTE	PEND
// 016   ----------------------------------------
CastlevaniaOrderofEcclesiaRhapsodyoftheForsaken_5_016:
	BYTE		N08     Dn1   v120
	BYTE	W12
	BYTE		        En1 
	BYTE	W12
	BYTE		N08   
	BYTE	W12
	BYTE		N08   
	BYTE	W12
	BYTE		N08   
	BYTE	W12
	BYTE		N08   
	BYTE	W12
	BYTE		N08   
	BYTE	W12
	BYTE		N08   
	BYTE	W12
	BYTE	PEND
// 017   ----------------------------------------
CastlevaniaOrderofEcclesiaRhapsodyoftheForsaken_5_017:
	BYTE		N08     En1   v120
	BYTE	W12
	BYTE		        An0 
	BYTE	W12
	BYTE		N08   
	BYTE	W12
	BYTE		N08   
	BYTE	W12
	BYTE		N22   
	BYTE	W24
	BYTE		N08     Bn0 
	BYTE	W12
	BYTE		N08   
	BYTE	W12
	BYTE	PEND
// 018   ----------------------------------------
CastlevaniaOrderofEcclesiaRhapsodyoftheForsaken_5_018:
	BYTE		N08     Bn0   v120
	BYTE	W12
	BYTE		        En1 
	BYTE	W12
	BYTE		N08   
	BYTE	W12
	BYTE		N08   
	BYTE	W12
	BYTE		N08   
	BYTE	W12
	BYTE		N08   
	BYTE	W12
	BYTE		N08   
	BYTE	W12
	BYTE		N08   
	BYTE	W12
	BYTE	PEND
// 019   ----------------------------------------
	BYTE	PATT
	 POIN2	CastlevaniaOrderofEcclesiaRhapsodyoftheForsaken_5_005
// 020   ----------------------------------------
	BYTE	PATT
	 POIN2	CastlevaniaOrderofEcclesiaRhapsodyoftheForsaken_5_008
// 021   ----------------------------------------
CastlevaniaOrderofEcclesiaRhapsodyoftheForsaken_5_021:
	BYTE		N08     En1   v120
	BYTE	W12
	BYTE		N08   
	BYTE	W12
	BYTE		N08   
	BYTE	W12
	BYTE		N08   
	BYTE	W12
	BYTE		N08   
	BYTE	W12
	BYTE		N04   
	BYTE	W06
	BYTE		N04   
	BYTE	W06
	BYTE		N08   
	BYTE	W12
	BYTE		N08   
	BYTE	W12
	BYTE	PEND
// 022   ----------------------------------------
CastlevaniaOrderofEcclesiaRhapsodyoftheForsaken_5_022:
	BYTE		N08     En1   v120
	BYTE	W12
	BYTE		        Cn1 
	BYTE	W12
	BYTE		N08   
	BYTE	W12
	BYTE		N08   
	BYTE	W12
	BYTE		N08   
	BYTE	W12
	BYTE		N08   
	BYTE	W12
	BYTE		N08   
	BYTE	W12
	BYTE		N08   
	BYTE	W12
	BYTE	PEND
// 023   ----------------------------------------
CastlevaniaOrderofEcclesiaRhapsodyoftheForsaken_5_023:
	BYTE		N08     Cn1   v120
	BYTE	W12
	BYTE		        Dn1 
	BYTE	W12
	BYTE		N08   
	BYTE	W12
	BYTE		N08   
	BYTE	W12
	BYTE		N08   
	BYTE	W12
	BYTE		N08   
	BYTE	W12
	BYTE		N08   
	BYTE	W12
	BYTE		N08   
	BYTE	W12
	BYTE	PEND
// 024   ----------------------------------------
	BYTE	PATT
	 POIN2	CastlevaniaOrderofEcclesiaRhapsodyoftheForsaken_5_016
// 025   ----------------------------------------
CastlevaniaOrderofEcclesiaRhapsodyoftheForsaken_5_025:
	BYTE		N20     En1   v120
	BYTE	W24
	BYTE		N11     Fs1 
	BYTE	W12
	BYTE		        Gn1 
	BYTE	W12
	BYTE		        En1 
	BYTE	W12
	BYTE		        Fs1 
	BYTE	W12
	BYTE		MOD     63
	BYTE		N22     Gn1 
	BYTE	W22
	BYTE		MOD     0
	BYTE	W02
	BYTE	PEND
// 026   ----------------------------------------
CastlevaniaOrderofEcclesiaRhapsodyoftheForsaken_5_026:
	BYTE		N11     Bn0   v120
	BYTE	W12
	BYTE		N08     An0 
	BYTE	W12
	BYTE		N03   
	BYTE	W06
	BYTE		N03   
	BYTE	W06
	BYTE		N08   
	BYTE	W12
	BYTE		N03   
	BYTE	W06
	BYTE		N03   
	BYTE	W06
	BYTE		N08   
	BYTE	W12
	BYTE		N03   
	BYTE	W06
	BYTE		N03   
	BYTE	W06
	BYTE		N08   
	BYTE	W12
	BYTE	PEND
// 027   ----------------------------------------
CastlevaniaOrderofEcclesiaRhapsodyoftheForsaken_5_027:
	BYTE		N03     An0   v120
	BYTE	W06
	BYTE		N03   
	BYTE	W06
	BYTE		N08   
	BYTE	W12
	BYTE		N03   
	BYTE	W06
	BYTE		N03   
	BYTE	W06
	BYTE		N08   
	BYTE	W12
	BYTE		N03   
	BYTE	W06
	BYTE		N03   
	BYTE	W06
	BYTE		N08   
	BYTE	W12
	BYTE		N03   
	BYTE	W06
	BYTE		N03   
	BYTE	W06
	BYTE		N08   
	BYTE	W12
	BYTE	PEND
// 028   ----------------------------------------
	BYTE		N03   
	BYTE	W06
	BYTE		N03   
	BYTE	W06
	BYTE		N08     Bn0 
	BYTE	W12
	BYTE		N04   
	BYTE	W06
	BYTE		N04   
	BYTE	W06
	BYTE		N08   
	BYTE	W12
	BYTE		N04   
	BYTE	W06
	BYTE		N04   
	BYTE	W06
	BYTE		N08   
	BYTE	W12
	BYTE		N04   
	BYTE	W06
	BYTE		N04   
	BYTE	W06
	BYTE		N08   
	BYTE	W12
// 029   ----------------------------------------
	BYTE		N04   
	BYTE	W06
	BYTE		N04   
	BYTE	W06
	BYTE		N08   
	BYTE	W12
	BYTE		N04   
	BYTE	W06
	BYTE		N04   
	BYTE	W06
	BYTE		N08   
	BYTE	W12
	BYTE		N04   
	BYTE	W06
	BYTE		N04   
	BYTE	W06
	BYTE		N08   
	BYTE	W12
	BYTE		N04   
	BYTE	W06
	BYTE		N04   
	BYTE	W06
	BYTE		N08     En1 
	BYTE	W12
// 030   ----------------------------------------
	BYTE		        Gn1 
	BYTE	W12
	BYTE		        Fn1 
	BYTE	W12
	BYTE		N04   
	BYTE	W06
	BYTE		N04   
	BYTE	W06
	BYTE		N08   
	BYTE	W12
	BYTE		N04   
	BYTE	W06
	BYTE		N04   
	BYTE	W06
	BYTE		N08   
	BYTE	W12
	BYTE		N04   
	BYTE	W06
	BYTE		N04   
	BYTE	W06
	BYTE		N08   
	BYTE	W12
// 031   ----------------------------------------
	BYTE		N04   
	BYTE	W06
	BYTE		N04   
	BYTE	W06
	BYTE		N08   
	BYTE	W12
	BYTE		N04   
	BYTE	W06
	BYTE		N04   
	BYTE	W06
	BYTE		N08   
	BYTE	W12
	BYTE		N04   
	BYTE	W06
	BYTE		N04   
	BYTE	W06
	BYTE		N08   
	BYTE	W12
	BYTE		N04   
	BYTE	W06
	BYTE		N04   
	BYTE	W06
	BYTE		N08   
	BYTE	W12
// 032   ----------------------------------------
	BYTE		N04   
	BYTE	W06
	BYTE		N04   
	BYTE	W06
	BYTE		N08     En1 
	BYTE	W12
	BYTE		N02   
	BYTE	W06
	BYTE		N02   
	BYTE	W06
	BYTE		N08   
	BYTE	W12
	BYTE		N02   
	BYTE	W06
	BYTE		N02   
	BYTE	W06
	BYTE		N08   
	BYTE	W12
	BYTE		N02   
	BYTE	W06
	BYTE		N02   
	BYTE	W06
	BYTE		N08   
	BYTE	W12
// 033   ----------------------------------------
	BYTE		N02   
	BYTE	W06
	BYTE		N02   
	BYTE	W06
	BYTE		N08   
	BYTE	W12
	BYTE		N02   
	BYTE	W06
	BYTE		N02   
	BYTE	W06
	BYTE		N08   
	BYTE	W12
	BYTE		N04   
	BYTE	W06
	BYTE		N04   
	BYTE	W06
	BYTE		N03   
	BYTE	W06
	BYTE		N03   
	BYTE	W06
	BYTE		N10     Bn0 
	BYTE	W12
	BYTE		        Dn1 
	BYTE	W12
// 034   ----------------------------------------
	BYTE		        En1 
	BYTE	W12
	BYTE		N08     An0 
	BYTE	W12
	BYTE		N03   
	BYTE	W06
	BYTE		N03   
	BYTE	W06
	BYTE		N08   
	BYTE	W12
	BYTE		N03   
	BYTE	W06
	BYTE		N03   
	BYTE	W06
	BYTE		N08   
	BYTE	W12
	BYTE		N03   
	BYTE	W06
	BYTE		N03   
	BYTE	W06
	BYTE		N08   
	BYTE	W12
// 035   ----------------------------------------
	BYTE	PATT
	 POIN2	CastlevaniaOrderofEcclesiaRhapsodyoftheForsaken_5_027
// 036   ----------------------------------------
CastlevaniaOrderofEcclesiaRhapsodyoftheForsaken_5_036:
	BYTE		N03     An0   v120
	BYTE	W06
	BYTE		N03   
	BYTE	W06
	BYTE		N08     Gn0 
	BYTE	W12
	BYTE		N03   
	BYTE	W06
	BYTE		N03   
	BYTE	W06
	BYTE		N08   
	BYTE	W12
	BYTE		N03   
	BYTE	W06
	BYTE		N03   
	BYTE	W06
	BYTE		N08   
	BYTE	W12
	BYTE		N03   
	BYTE	W06
	BYTE		N03   
	BYTE	W06
	BYTE		N08   
	BYTE	W12
	BYTE	PEND
// 037   ----------------------------------------
	BYTE		N03   
	BYTE	W06
	BYTE		N03   
	BYTE	W06
	BYTE		N08   
	BYTE	W12
	BYTE		N03   
	BYTE	W06
	BYTE		N03   
	BYTE	W06
	BYTE		N08   
	BYTE	W12
	BYTE		N03   
	BYTE	W06
	BYTE		N03   
	BYTE	W06
	BYTE		N08   
	BYTE	W12
	BYTE		N03   
	BYTE	W06
	BYTE		N03   
	BYTE	W06
	BYTE		N08     Bn0 
	BYTE	W12
// 038   ----------------------------------------
	BYTE		        En1 
	BYTE	W12
	BYTE		        Fn1 
	BYTE	W12
	BYTE		N04   
	BYTE	W06
	BYTE		N04   
	BYTE	W06
	BYTE		N08   
	BYTE	W12
	BYTE		N04   
	BYTE	W06
	BYTE		N04   
	BYTE	W06
	BYTE		N08   
	BYTE	W12
	BYTE		N04   
	BYTE	W06
	BYTE		N04   
	BYTE	W06
	BYTE		N08   
	BYTE	W12
// 039   ----------------------------------------
	BYTE		N04   
	BYTE	W06
	BYTE		N04   
	BYTE	W06
	BYTE		N08   
	BYTE	W12
	BYTE		N04   
	BYTE	W06
	BYTE		N04   
	BYTE	W06
	BYTE		N08   
	BYTE	W12
	BYTE		N04   
	BYTE	W06
	BYTE		N04   
	BYTE	W06
	BYTE		N08   
	BYTE	W12
	BYTE		N04   
	BYTE	W06
	BYTE		N04   
	BYTE	W06
	BYTE		N03   
	BYTE	W06
	BYTE		N03   
	BYTE	W06
// 040   ----------------------------------------
	BYTE		N08     An0 
	BYTE	W12
	BYTE		        Bn0 
	BYTE	W12
	BYTE		N04   
	BYTE	W06
	BYTE		N04   
	BYTE	W06
	BYTE		N08   
	BYTE	W12
	BYTE		N04   
	BYTE	W06
	BYTE		N04   
	BYTE	W06
	BYTE		N08   
	BYTE	W12
	BYTE		N04   
	BYTE	W06
	BYTE		N04   
	BYTE	W06
	BYTE		N08   
	BYTE	W12
// 041   ----------------------------------------
	BYTE		N04   
	BYTE	W06
	BYTE		N04   
	BYTE	W06
	BYTE		N08   
	BYTE	W12
	BYTE		N04   
	BYTE	W06
	BYTE		N04   
	BYTE	W06
	BYTE		N08   
	BYTE	W12
	BYTE		N04   
	BYTE	W06
	BYTE		N04   
	BYTE	W06
	BYTE		N08   
	BYTE	W12
	BYTE		N04   
	BYTE	W06
	BYTE		N04   
	BYTE	W06
	BYTE		N08   
	BYTE	W12
// 042   ----------------------------------------
	BYTE		N04     Ds1 
	BYTE	W06
	BYTE		        Fs1 
	BYTE	W06
	BYTE		N08     En1 
	BYTE	W12
	BYTE		N03   
	BYTE	W06
	BYTE		N03   
	BYTE	W06
	BYTE		N08   
	BYTE	W12
	BYTE		N03   
	BYTE	W06
	BYTE		N03   
	BYTE	W06
	BYTE		N08   
	BYTE	W12
	BYTE		N03   
	BYTE	W06
	BYTE		N03   
	BYTE	W06
	BYTE		N08   
	BYTE	W12
// 043   ----------------------------------------
CastlevaniaOrderofEcclesiaRhapsodyoftheForsaken_5_043:
	BYTE		N03     En1   v120
	BYTE	W06
	BYTE		N03   
	BYTE	W06
	BYTE		N08   
	BYTE	W12
	BYTE		N03   
	BYTE	W06
	BYTE		N03   
	BYTE	W06
	BYTE		N08   
	BYTE	W12
	BYTE		N03   
	BYTE	W06
	BYTE		N03   
	BYTE	W06
	BYTE		N08   
	BYTE	W12
	BYTE		N03   
	BYTE	W06
	BYTE		N03   
	BYTE	W06
	BYTE		N08   
	BYTE	W12
	BYTE	PEND
// 044   ----------------------------------------
	BYTE		N03   
	BYTE	W06
	BYTE		N03   
	BYTE	W06
	BYTE		N08   
	BYTE	W12
	BYTE		N04   
	BYTE	W06
	BYTE		N04   
	BYTE	W06
	BYTE		N08   
	BYTE	W12
	BYTE		N04   
	BYTE	W06
	BYTE		N04   
	BYTE	W06
	BYTE		N08   
	BYTE	W12
	BYTE		N04   
	BYTE	W06
	BYTE		N04   
	BYTE	W06
	BYTE		N08   
	BYTE	W12
// 045   ----------------------------------------
CastlevaniaOrderofEcclesiaRhapsodyoftheForsaken_5_045:
	BYTE		N04     En1   v120
	BYTE	W06
	BYTE		N04   
	BYTE	W06
	BYTE		N08   
	BYTE	W12
	BYTE		N04   
	BYTE	W06
	BYTE		N04   
	BYTE	W06
	BYTE		N08   
	BYTE	W12
	BYTE		N04   
	BYTE	W06
	BYTE		N04   
	BYTE	W06
	BYTE		N08   
	BYTE	W12
	BYTE		N04   
	BYTE	W06
	BYTE		N04   
	BYTE	W06
	BYTE		N08   
	BYTE	W12
	BYTE	PEND
// 046   ----------------------------------------
	BYTE	PATT
	 POIN2	CastlevaniaOrderofEcclesiaRhapsodyoftheForsaken_5_045
// 047   ----------------------------------------
	BYTE	PATT
	 POIN2	CastlevaniaOrderofEcclesiaRhapsodyoftheForsaken_5_045
// 048   ----------------------------------------
	BYTE	PATT
	 POIN2	CastlevaniaOrderofEcclesiaRhapsodyoftheForsaken_5_045
// 049   ----------------------------------------
	BYTE		N04     En1   v120
	BYTE	W06
	BYTE		N04   
	BYTE	W06
	BYTE		N08   
	BYTE	W12
	BYTE		N04   
	BYTE	W06
	BYTE		N04   
	BYTE	W06
	BYTE		N08   
	BYTE	W12
	BYTE		N04   
	BYTE	W06
	BYTE		N04   
	BYTE	W06
	BYTE		N08   
	BYTE	W12
	BYTE		N04   
	BYTE	W06
	BYTE		N04   
	BYTE	W06
	BYTE		N08     Bn0 
	BYTE	W12
// 050   ----------------------------------------
CastlevaniaOrderofEcclesiaRhapsodyoftheForsaken_5_050:
	BYTE		N20     Cn1   v120
	BYTE	W24
	BYTE		N08   
	BYTE	W12
	BYTE		N08   
	BYTE	W12
	BYTE		N08   
	BYTE	W12
	BYTE		N08   
	BYTE	W12
	BYTE		N08   
	BYTE	W12
	BYTE		N08   
	BYTE	W12
	BYTE	PEND
// 051   ----------------------------------------
	BYTE		N21     Dn1 
	BYTE	W24
	BYTE		N08   
	BYTE	W12
	BYTE		N08   
	BYTE	W12
	BYTE		N08   
	BYTE	W12
	BYTE		N08   
	BYTE	W12
	BYTE		N08   
	BYTE	W12
	BYTE		N08   
	BYTE	W12
// 052   ----------------------------------------
	BYTE	PATT
	 POIN2	CastlevaniaOrderofEcclesiaRhapsodyoftheForsaken_5_016
// 053   ----------------------------------------
	BYTE	PATT
	 POIN2	CastlevaniaOrderofEcclesiaRhapsodyoftheForsaken_5_005
// 054   ----------------------------------------
	BYTE	PATT
	 POIN2	CastlevaniaOrderofEcclesiaRhapsodyoftheForsaken_5_005
// 055   ----------------------------------------
	BYTE	PATT
	 POIN2	CastlevaniaOrderofEcclesiaRhapsodyoftheForsaken_5_005
// 056   ----------------------------------------
	BYTE	PATT
	 POIN2	CastlevaniaOrderofEcclesiaRhapsodyoftheForsaken_5_005
// 057   ----------------------------------------
	BYTE	PATT
	 POIN2	CastlevaniaOrderofEcclesiaRhapsodyoftheForsaken_5_005
// 058   ----------------------------------------
	BYTE	PATT
	 POIN2	CastlevaniaOrderofEcclesiaRhapsodyoftheForsaken_5_005
// 059   ----------------------------------------
	BYTE	PATT
	 POIN2	CastlevaniaOrderofEcclesiaRhapsodyoftheForsaken_5_005
// 060   ----------------------------------------
	BYTE		N08     Bn0   v120
	BYTE	W12
	BYTE		N56     An0 
	BYTE	W60
	BYTE		N11   
	BYTE	W12
	BYTE		        En1 
	BYTE	W12
// 061   ----------------------------------------
CastlevaniaOrderofEcclesiaRhapsodyoftheForsaken_5_061:
	BYTE		N56     An1   v120
	BYTE	W60
	BYTE		N44     An0 
	BYTE	W36
	BYTE	PEND
// 062   ----------------------------------------
CastlevaniaOrderofEcclesiaRhapsodyoftheForsaken_5_062:
	BYTE	W12
	BYTE		N56     Bn0   v120
	BYTE	W60
	BYTE		N11   
	BYTE	W12
	BYTE		        Fs1 
	BYTE	W12
	BYTE	PEND
// 063   ----------------------------------------
	BYTE		N56     Bn1 
	BYTE	W60
	BYTE		N44     Bn0 
	BYTE	W36
// 064   ----------------------------------------
	BYTE	W12
	BYTE		N12     En1 
	BYTE	W18
	BYTE		        En1   v040
	BYTE	W18
	BYTE		N17     En1   v120
	BYTE	W24
	BYTE		N11     Dn1 
	BYTE	W12
	BYTE		N17     En1 
	BYTE	W12
// 065   ----------------------------------------
	BYTE	W12
	BYTE		N11     En1   v040
	BYTE	W12
	BYTE		        Bn0   v120
	BYTE	W12
	BYTE		        En1 
	BYTE	W12
	BYTE		        Fs1 
	BYTE	W12
	BYTE		        Gn1 
	BYTE	W12
	BYTE		        Fs1 
	BYTE	W12
	BYTE		        En1 
	BYTE	W12
// 066   ----------------------------------------
	BYTE		        Dn1 
	BYTE	W12
	BYTE		N16     En1 
	BYTE	W18
	BYTE		        En1   v040
	BYTE	W18
	BYTE		N11     En1   v120
	BYTE	W12
	BYTE		        En1   v040
	BYTE	W12
	BYTE		        Dn1   v120
	BYTE	W12
	BYTE		N08     En1 
	BYTE	W12
// 067   ----------------------------------------
	BYTE		        En1   v040
	BYTE	W12
	BYTE		N11     Dn1   v120
	BYTE	W12
	BYTE		N08     En1 
	BYTE	W12
	BYTE		        En1   v040
	BYTE	W12
	BYTE		N19     En1   v120
	BYTE	W24
	BYTE		N08     En1   v040
	BYTE	W24
// 068   ----------------------------------------
	BYTE	W12
	BYTE		BEND    c_v+0
	BYTE		N10     En1   v120
	BYTE	W12
	BYTE		N04   
	BYTE	W06
	BYTE		N04   
	BYTE	W06
	BYTE		N08   
	BYTE	W12
	BYTE		N08   
	BYTE	W12
	BYTE		N08   
	BYTE	W12
	BYTE		N08   
	BYTE	W12
	BYTE		N08   
	BYTE	W12
// 069   ----------------------------------------
	BYTE	PATT
	 POIN2	CastlevaniaOrderofEcclesiaRhapsodyoftheForsaken_5_003
// 070   ----------------------------------------
	BYTE	PATT
	 POIN2	CastlevaniaOrderofEcclesiaRhapsodyoftheForsaken_5_004
// 071   ----------------------------------------
	BYTE	PATT
	 POIN2	CastlevaniaOrderofEcclesiaRhapsodyoftheForsaken_5_005
// 072   ----------------------------------------
	BYTE		N03     En1   v120
	BYTE	W06
	BYTE		N03   
	BYTE	W06
	BYTE		N08   
	BYTE	W12
	BYTE		N08   
	BYTE	W12
	BYTE		N08   
	BYTE	W12
	BYTE		N08   
	BYTE	W12
	BYTE		N08   
	BYTE	W12
	BYTE		N08   
	BYTE	W12
	BYTE		N08   
	BYTE	W12
// 073   ----------------------------------------
	BYTE	PATT
	 POIN2	CastlevaniaOrderofEcclesiaRhapsodyoftheForsaken_5_005
// 074   ----------------------------------------
	BYTE	PATT
	 POIN2	CastlevaniaOrderofEcclesiaRhapsodyoftheForsaken_5_008
// 075   ----------------------------------------
	BYTE	PATT
	 POIN2	CastlevaniaOrderofEcclesiaRhapsodyoftheForsaken_5_005
// 076   ----------------------------------------
	BYTE		N08     En1   v120
	BYTE	W12
	BYTE	GoTo
	 POIN2	CastlevaniaOrderofEcclesiaRhapsodyoftheForsaken_5_B1
CastlevaniaOrderofEcclesiaRhapsodyoftheForsaken_5_B2:
	BYTE		N08     En1   v120
	BYTE	W12
	BYTE		N08   
	BYTE	W12
	BYTE		N08   
	BYTE	W12
	BYTE		N03   
	BYTE	W06
	BYTE		N03   
	BYTE	W06
	BYTE		N08   
	BYTE	W12
	BYTE		N08   
	BYTE	W12
	BYTE		N08   
	BYTE	W12
// 077   ----------------------------------------
	BYTE	PATT
	 POIN2	CastlevaniaOrderofEcclesiaRhapsodyoftheForsaken_5_005
// 078   ----------------------------------------
	BYTE	PATT
	 POIN2	CastlevaniaOrderofEcclesiaRhapsodyoftheForsaken_5_005
// 079   ----------------------------------------
	BYTE	PATT
	 POIN2	CastlevaniaOrderofEcclesiaRhapsodyoftheForsaken_5_013
// 080   ----------------------------------------
	BYTE	PATT
	 POIN2	CastlevaniaOrderofEcclesiaRhapsodyoftheForsaken_5_005
// 081   ----------------------------------------
	BYTE	PATT
	 POIN2	CastlevaniaOrderofEcclesiaRhapsodyoftheForsaken_5_015
// 082   ----------------------------------------
	BYTE	PATT
	 POIN2	CastlevaniaOrderofEcclesiaRhapsodyoftheForsaken_5_016
// 083   ----------------------------------------
	BYTE	PATT
	 POIN2	CastlevaniaOrderofEcclesiaRhapsodyoftheForsaken_5_017
// 084   ----------------------------------------
	BYTE	PATT
	 POIN2	CastlevaniaOrderofEcclesiaRhapsodyoftheForsaken_5_018
// 085   ----------------------------------------
	BYTE	PATT
	 POIN2	CastlevaniaOrderofEcclesiaRhapsodyoftheForsaken_5_005
// 086   ----------------------------------------
	BYTE	PATT
	 POIN2	CastlevaniaOrderofEcclesiaRhapsodyoftheForsaken_5_008
// 087   ----------------------------------------
	BYTE	PATT
	 POIN2	CastlevaniaOrderofEcclesiaRhapsodyoftheForsaken_5_021
// 088   ----------------------------------------
	BYTE	PATT
	 POIN2	CastlevaniaOrderofEcclesiaRhapsodyoftheForsaken_5_022
// 089   ----------------------------------------
	BYTE	PATT
	 POIN2	CastlevaniaOrderofEcclesiaRhapsodyoftheForsaken_5_023
// 090   ----------------------------------------
	BYTE	PATT
	 POIN2	CastlevaniaOrderofEcclesiaRhapsodyoftheForsaken_5_016
// 091   ----------------------------------------
	BYTE	PATT
	 POIN2	CastlevaniaOrderofEcclesiaRhapsodyoftheForsaken_5_025
// 092   ----------------------------------------
	BYTE	PATT
	 POIN2	CastlevaniaOrderofEcclesiaRhapsodyoftheForsaken_5_026
// 093   ----------------------------------------
	BYTE	PATT
	 POIN2	CastlevaniaOrderofEcclesiaRhapsodyoftheForsaken_5_027
// 094   ----------------------------------------
	BYTE		N03     An0   v120
	BYTE	W06
	BYTE		N03   
	BYTE	W06
	BYTE		N08     Bn0 
	BYTE	W12
	BYTE		N03   
	BYTE	W06
	BYTE		N03   
	BYTE	W06
	BYTE		N08   
	BYTE	W12
	BYTE		N03   
	BYTE	W06
	BYTE		N03   
	BYTE	W06
	BYTE		N08   
	BYTE	W12
	BYTE		N03   
	BYTE	W06
	BYTE		N03   
	BYTE	W06
	BYTE		N08   
	BYTE	W12
// 095   ----------------------------------------
	BYTE		N03   
	BYTE	W06
	BYTE		N03   
	BYTE	W06
	BYTE		N08   
	BYTE	W12
	BYTE		N03   
	BYTE	W06
	BYTE		N03   
	BYTE	W06
	BYTE		N08   
	BYTE	W12
	BYTE		N03   
	BYTE	W06
	BYTE		N03   
	BYTE	W06
	BYTE		N08   
	BYTE	W12
	BYTE		N03   
	BYTE	W06
	BYTE		N03   
	BYTE	W06
	BYTE		N08   
	BYTE	W12
// 096   ----------------------------------------
	BYTE		N03   
	BYTE	W06
	BYTE		N03   
	BYTE	W06
	BYTE		N08     Fn0 
	BYTE	W12
	BYTE		N04   
	BYTE	W06
	BYTE		N04   
	BYTE	W06
	BYTE		N08   
	BYTE	W12
	BYTE		N04   
	BYTE	W06
	BYTE		N04   
	BYTE	W06
	BYTE		N08   
	BYTE	W12
	BYTE		N04   
	BYTE	W06
	BYTE		N04   
	BYTE	W06
	BYTE		N08   
	BYTE	W12
// 097   ----------------------------------------
	BYTE		N04   
	BYTE	W06
	BYTE		N04   
	BYTE	W06
	BYTE		N08   
	BYTE	W12
	BYTE		N04   
	BYTE	W06
	BYTE		N04   
	BYTE	W06
	BYTE		N08   
	BYTE	W12
	BYTE		N04   
	BYTE	W06
	BYTE		N04   
	BYTE	W06
	BYTE		N08   
	BYTE	W12
	BYTE		N04   
	BYTE	W06
	BYTE		N04   
	BYTE	W06
	BYTE		N03   
	BYTE	W06
	BYTE		        An0 
	BYTE	W06
// 098   ----------------------------------------
	BYTE		        Cn1 
	BYTE	W06
	BYTE		        Dn1 
	BYTE	W06
	BYTE		N08     En1 
	BYTE	W12
	BYTE		N03   
	BYTE	W06
	BYTE		N03   
	BYTE	W06
	BYTE		N08   
	BYTE	W12
	BYTE		N03   
	BYTE	W06
	BYTE		N03   
	BYTE	W06
	BYTE		N08   
	BYTE	W12
	BYTE		N03   
	BYTE	W06
	BYTE		N03   
	BYTE	W06
	BYTE		N08   
	BYTE	W12
// 099   ----------------------------------------
	BYTE		N03   
	BYTE	W06
	BYTE		N03   
	BYTE	W06
	BYTE		N08   
	BYTE	W12
	BYTE		N03   
	BYTE	W06
	BYTE		N03   
	BYTE	W06
	BYTE		N08   
	BYTE	W12
	BYTE		N03   
	BYTE	W06
	BYTE		N03   
	BYTE	W06
	BYTE		N08   
	BYTE	W12
	BYTE		        Bn0 
	BYTE	W12
	BYTE		N03     Dn1 
	BYTE	W06
	BYTE		N03   
	BYTE	W06
// 100   ----------------------------------------
	BYTE		N08     En1 
	BYTE	W12
	BYTE		        An0 
	BYTE	W12
	BYTE		N03   
	BYTE	W06
	BYTE		N03   
	BYTE	W06
	BYTE		N08   
	BYTE	W12
	BYTE		N03   
	BYTE	W06
	BYTE		N03   
	BYTE	W06
	BYTE		N08   
	BYTE	W12
	BYTE		N03   
	BYTE	W06
	BYTE		N03   
	BYTE	W06
	BYTE		N08   
	BYTE	W12
// 101   ----------------------------------------
	BYTE	PATT
	 POIN2	CastlevaniaOrderofEcclesiaRhapsodyoftheForsaken_5_027
// 102   ----------------------------------------
	BYTE	PATT
	 POIN2	CastlevaniaOrderofEcclesiaRhapsodyoftheForsaken_5_036
// 103   ----------------------------------------
	BYTE		N03     Gn0   v120
	BYTE	W06
	BYTE		N03   
	BYTE	W06
	BYTE		N08   
	BYTE	W12
	BYTE		N03   
	BYTE	W06
	BYTE		N03   
	BYTE	W06
	BYTE		N08   
	BYTE	W12
	BYTE		N03   
	BYTE	W06
	BYTE		N03   
	BYTE	W06
	BYTE		N08   
	BYTE	W12
	BYTE		N03   
	BYTE	W06
	BYTE		N03   
	BYTE	W06
	BYTE		N08   
	BYTE	W12
// 104   ----------------------------------------
	BYTE		N03   
	BYTE	W06
	BYTE		N03   
	BYTE	W06
	BYTE		N08     Fn0 
	BYTE	W12
	BYTE		N03   
	BYTE	W06
	BYTE		N03   
	BYTE	W06
	BYTE		N08   
	BYTE	W12
	BYTE		N03   
	BYTE	W06
	BYTE		N03   
	BYTE	W06
	BYTE		N08   
	BYTE	W12
	BYTE		N03   
	BYTE	W06
	BYTE		N03   
	BYTE	W06
	BYTE		N08   
	BYTE	W12
// 105   ----------------------------------------
	BYTE		N03   
	BYTE	W06
	BYTE		N03   
	BYTE	W06
	BYTE		N08   
	BYTE	W12
	BYTE		N03   
	BYTE	W06
	BYTE		N03   
	BYTE	W06
	BYTE		N08   
	BYTE	W12
	BYTE		N03   
	BYTE	W06
	BYTE		N03   
	BYTE	W06
	BYTE		N08   
	BYTE	W12
	BYTE		N03   
	BYTE	W06
	BYTE		N03   
	BYTE	W06
	BYTE		N04   
	BYTE	W06
	BYTE		N04   
	BYTE	W06
// 106   ----------------------------------------
	BYTE		N08     An0 
	BYTE	W12
	BYTE		        Bn0 
	BYTE	W12
	BYTE		N03   
	BYTE	W06
	BYTE		N03   
	BYTE	W06
	BYTE		N08   
	BYTE	W12
	BYTE		N03   
	BYTE	W06
	BYTE		N03   
	BYTE	W06
	BYTE		N08   
	BYTE	W12
	BYTE		N03   
	BYTE	W06
	BYTE		N03   
	BYTE	W06
	BYTE		N08   
	BYTE	W12
// 107   ----------------------------------------
	BYTE		N03   
	BYTE	W06
	BYTE		N03   
	BYTE	W06
	BYTE		N08   
	BYTE	W12
	BYTE		N03   
	BYTE	W06
	BYTE		N03   
	BYTE	W06
	BYTE		N08   
	BYTE	W12
	BYTE		        Bn1 
	BYTE	W12
	BYTE		N03   
	BYTE	W06
	BYTE		N03   
	BYTE	W06
	BYTE		N08     Fs1 
	BYTE	W12
	BYTE		        Ds1 
	BYTE	W12
// 108   ----------------------------------------
	BYTE		        Bn0 
	BYTE	W12
	BYTE		        En1 
	BYTE	W12
	BYTE		N03   
	BYTE	W06
	BYTE		N03   
	BYTE	W06
	BYTE		N08   
	BYTE	W12
	BYTE		N03   
	BYTE	W06
	BYTE		N03   
	BYTE	W06
	BYTE		N08   
	BYTE	W12
	BYTE		N03   
	BYTE	W06
	BYTE		N03   
	BYTE	W06
	BYTE		N08   
	BYTE	W12
// 109   ----------------------------------------
	BYTE	PATT
	 POIN2	CastlevaniaOrderofEcclesiaRhapsodyoftheForsaken_5_043
// 110   ----------------------------------------
	BYTE	PATT
	 POIN2	CastlevaniaOrderofEcclesiaRhapsodyoftheForsaken_5_043
// 111   ----------------------------------------
	BYTE	PATT
	 POIN2	CastlevaniaOrderofEcclesiaRhapsodyoftheForsaken_5_043
// 112   ----------------------------------------
	BYTE	PATT
	 POIN2	CastlevaniaOrderofEcclesiaRhapsodyoftheForsaken_5_043
// 113   ----------------------------------------
	BYTE	PATT
	 POIN2	CastlevaniaOrderofEcclesiaRhapsodyoftheForsaken_5_043
// 114   ----------------------------------------
	BYTE	PATT
	 POIN2	CastlevaniaOrderofEcclesiaRhapsodyoftheForsaken_5_043
// 115   ----------------------------------------
	BYTE	PATT
	 POIN2	CastlevaniaOrderofEcclesiaRhapsodyoftheForsaken_5_043
// 116   ----------------------------------------
	BYTE	PATT
	 POIN2	CastlevaniaOrderofEcclesiaRhapsodyoftheForsaken_5_050
// 117   ----------------------------------------
CastlevaniaOrderofEcclesiaRhapsodyoftheForsaken_5_117:
	BYTE		N20     Dn1   v120
	BYTE	W24
	BYTE		N08   
	BYTE	W12
	BYTE		N08   
	BYTE	W12
	BYTE		N08   
	BYTE	W12
	BYTE		N08   
	BYTE	W12
	BYTE		N08   
	BYTE	W12
	BYTE		N08   
	BYTE	W12
	BYTE	PEND
// 118   ----------------------------------------
	BYTE	PATT
	 POIN2	CastlevaniaOrderofEcclesiaRhapsodyoftheForsaken_5_016
// 119   ----------------------------------------
	BYTE		N21     En1   v120
	BYTE	W24
	BYTE		N08     Bn0 
	BYTE	W12
	BYTE		        Dn1 
	BYTE	W12
	BYTE		        En1 
	BYTE	W12
	BYTE		N08   
	BYTE	W12
	BYTE		N08   
	BYTE	W12
	BYTE		        Dn1 
	BYTE	W12
// 120   ----------------------------------------
	BYTE	PATT
	 POIN2	CastlevaniaOrderofEcclesiaRhapsodyoftheForsaken_5_050
// 121   ----------------------------------------
	BYTE	PATT
	 POIN2	CastlevaniaOrderofEcclesiaRhapsodyoftheForsaken_5_117
// 122   ----------------------------------------
	BYTE	PATT
	 POIN2	CastlevaniaOrderofEcclesiaRhapsodyoftheForsaken_5_016
// 123   ----------------------------------------
	BYTE		N18     En1   v120
	BYTE	W24
	BYTE		N08     An0 
	BYTE	W12
	BYTE		        Dn1 
	BYTE	W12
	BYTE		N20     En1 
	BYTE	W24
	BYTE		N08     Bn0 
	BYTE	W12
	BYTE		        Dn1 
	BYTE	W12
// 124   ----------------------------------------
	BYTE	PATT
	 POIN2	CastlevaniaOrderofEcclesiaRhapsodyoftheForsaken_5_005
// 125   ----------------------------------------
	BYTE	PATT
	 POIN2	CastlevaniaOrderofEcclesiaRhapsodyoftheForsaken_5_005
// 126   ----------------------------------------
	BYTE	PATT
	 POIN2	CastlevaniaOrderofEcclesiaRhapsodyoftheForsaken_5_005
// 127   ----------------------------------------
	BYTE	PATT
	 POIN2	CastlevaniaOrderofEcclesiaRhapsodyoftheForsaken_5_005
// 128   ----------------------------------------
	BYTE	PATT
	 POIN2	CastlevaniaOrderofEcclesiaRhapsodyoftheForsaken_5_005
// 129   ----------------------------------------
	BYTE	PATT
	 POIN2	CastlevaniaOrderofEcclesiaRhapsodyoftheForsaken_5_005
// 130   ----------------------------------------
	BYTE		N08     En1   v120
	BYTE	W12
	BYTE		N56     An0 
	BYTE	W60
	BYTE		N11   
	BYTE	W12
	BYTE		        En1 
	BYTE	W12
// 131   ----------------------------------------
	BYTE	PATT
	 POIN2	CastlevaniaOrderofEcclesiaRhapsodyoftheForsaken_5_061
// 132   ----------------------------------------
	BYTE	PATT
	 POIN2	CastlevaniaOrderofEcclesiaRhapsodyoftheForsaken_5_062
// 133   ----------------------------------------
	BYTE		N56     Bn1   v120
	BYTE	W24
	BYTE	W03
	BYTE		MOD     64
	BYTE	W24
	BYTE	W01
	BYTE		        0
	BYTE	W08
	BYTE		N44     Bn0 
	BYTE	W36
// 134   ----------------------------------------
	BYTE	W12
	BYTE		N14     En1 
	BYTE	W18
	BYTE		        En1   v040
	BYTE	W18
	BYTE		N17     En1   v120
	BYTE	W24
	BYTE		N11     Dn1 
	BYTE	W12
	BYTE		N14     En1 
	BYTE	W12
// 135   ----------------------------------------
	BYTE	W06
	BYTE		        En1   v040
	BYTE	W18
	BYTE		N11     Bn0   v120
	BYTE	W12
	BYTE		        En1 
	BYTE	W12
	BYTE		        Fs1 
	BYTE	W12
	BYTE		        Gn1 
	BYTE	W12
	BYTE		        Fs1 
	BYTE	W12
	BYTE		        En1 
	BYTE	W12
// 136   ----------------------------------------
	BYTE		        Dn1 
	BYTE	W12
	BYTE		N12     En1 
	BYTE	W18
	BYTE		        En1   v040
	BYTE	W18
	BYTE		N09     En1   v120
	BYTE	W12
	BYTE		        En1   v040
	BYTE	W12
	BYTE		N11     Dn1   v120
	BYTE	W12
	BYTE		N10     En1 
	BYTE	W12
// 137   ----------------------------------------
	BYTE		N11     En1   v040
	BYTE	W12
	BYTE		        Dn1   v120
	BYTE	W12
	BYTE		N08     En1 
	BYTE	W12
	BYTE		        En1   v040
	BYTE	W12
	BYTE		N13     En1   v120
	BYTE	W18
	BYTE		        En1   v040
	BYTE	W30
// 138   ----------------------------------------
	BYTE	W03
	BYTE	FINE

//**************** Track 6 (Midi-Chn.6) ****************//

CastlevaniaOrderofEcclesiaRhapsodyoftheForsaken_6:
	BYTE	KEYSH   CastlevaniaOrderofEcclesiaRhapsodyoftheForsaken_key+0
// 000   ----------------------------------------
	BYTE		VOICE   30
	BYTE		MODT    0
	BYTE		LFOS    44
	BYTE		PAN     c_v-25
	BYTE		VOL     69*CastlevaniaOrderofEcclesiaRhapsodyoftheForsaken_mvl/mxv
	BYTE	W96
// 001   ----------------------------------------
	BYTE	W96
// 002   ----------------------------------------
CastlevaniaOrderofEcclesiaRhapsodyoftheForsaken_6_002:
	BYTE	W12
	BYTE		N22     En4   v056
	BYTE		N22     Gn4 
	BYTE	W24
	BYTE		N09     En4   v020
	BYTE		N09     Gn4 
	BYTE	W12
	BYTE		N21     En4   v056
	BYTE		N21     Gn4 
	BYTE	W24
	BYTE		N09     En4   v020
	BYTE		N09     Gn4 
	BYTE	W12
	BYTE		N23     Dn4   v056
	BYTE		N23     Fs4 
	BYTE	W12
	BYTE	PEND
// 003   ----------------------------------------
CastlevaniaOrderofEcclesiaRhapsodyoftheForsaken_6_003:
	BYTE	W12
	BYTE		N09     Dn4   v020
	BYTE		N09     Fs4 
	BYTE	W12
	BYTE		N22     En4   v056
	BYTE		N22     An4 
	BYTE	W24
	BYTE		N10     En4   v020
	BYTE		N10     An4 
	BYTE	W12
	BYTE		N11     En4   v056
	BYTE		N11     Gn4 
	BYTE	W12
	BYTE		N10     En4   v020
	BYTE		N10     Gn4 
	BYTE	W12
	BYTE		N11     Dn4   v056
	BYTE		N11     Fs4 
	BYTE	W12
	BYTE	PEND
// 004   ----------------------------------------
CastlevaniaOrderofEcclesiaRhapsodyoftheForsaken_6_004:
	BYTE		N10     Dn4   v020
	BYTE		N10     Fs4 
	BYTE	W12
	BYTE		N17     Cn4   v056
	BYTE		N17     En4 
	BYTE	W24
	BYTE		N09     Cn4   v020
	BYTE		N09     En4 
	BYTE	W12
	BYTE		N17     Cn4   v056
	BYTE		N17     En4 
	BYTE	W24
	BYTE		N09     Cn4   v020
	BYTE		N09     En4 
	BYTE	W12
	BYTE		N23     Dn4   v056
	BYTE		N92     Fs4 
	BYTE	W12
	BYTE	PEND
// 005   ----------------------------------------
	BYTE	W84
	BYTE		N23     Fs4   v020
	BYTE	W12
// 006   ----------------------------------------
	BYTE	PATT
	 POIN2	CastlevaniaOrderofEcclesiaRhapsodyoftheForsaken_6_002
// 007   ----------------------------------------
	BYTE	PATT
	 POIN2	CastlevaniaOrderofEcclesiaRhapsodyoftheForsaken_6_003
// 008   ----------------------------------------
	BYTE		N10     Dn4   v020
	BYTE		N10     Fs4 
	BYTE	W12
	BYTE		N23     Cn4   v056
	BYTE		N23     En4 
	BYTE	W24
	BYTE		N10     Cn4   v020
	BYTE		N10     En4 
	BYTE	W12
	BYTE		N23     Cn4   v056
	BYTE		N23     En4 
	BYTE	W24
	BYTE		N10     Cn4   v020
	BYTE		N10     En4 
	BYTE	W12
	BYTE		N22     Dn4   v056
	BYTE		N92     Fs4 
	BYTE	W12
// 009   ----------------------------------------
	BYTE	W84
	BYTE		N21     Fs4   v020
	BYTE	W12
// 010   ----------------------------------------
	BYTE	W12
CastlevaniaOrderofEcclesiaRhapsodyoftheForsaken_6_B1:
	BYTE		N32     En4   v040
	BYTE		N32     Gn4 
	BYTE	W36
	BYTE		N11     Dn4 
	BYTE		N11     Fs4 
	BYTE	W24
	BYTE		        Dn4   v012
	BYTE		N11     Fs4 
	BYTE	W12
	BYTE		N23     En4   v040
	BYTE		N23     Gn4 
	BYTE	W12
// 011   ----------------------------------------
CastlevaniaOrderofEcclesiaRhapsodyoftheForsaken_6_011:
	BYTE	W24
	BYTE		N09     Dn4   v040
	BYTE		N09     Fs4 
	BYTE	W24
	BYTE		        Dn4   v012
	BYTE		N09     Fs4 
	BYTE	W12
	BYTE		N08     En4   v040
	BYTE		N08     Gn4 
	BYTE	W12
	BYTE		        En4   v012
	BYTE		N08     Gn4 
	BYTE	W12
	BYTE		        Dn4   v040
	BYTE		N08     Fs4 
	BYTE	W12
	BYTE	PEND
// 012   ----------------------------------------
CastlevaniaOrderofEcclesiaRhapsodyoftheForsaken_6_012:
	BYTE		N08     Dn4   v012
	BYTE		N08     Fs4 
	BYTE	W12
	BYTE		N32     En4   v040
	BYTE		N32     Gn4 
	BYTE	W36
	BYTE		N11     Dn4 
	BYTE		N11     Fs4 
	BYTE	W24
	BYTE		        Dn4   v012
	BYTE		N11     Fs4 
	BYTE	W12
	BYTE		N23     En4   v040
	BYTE		N23     Gn4 
	BYTE	W12
	BYTE	PEND
// 013   ----------------------------------------
	BYTE	PATT
	 POIN2	CastlevaniaOrderofEcclesiaRhapsodyoftheForsaken_6_011
// 014   ----------------------------------------
	BYTE	PATT
	 POIN2	CastlevaniaOrderofEcclesiaRhapsodyoftheForsaken_6_012
// 015   ----------------------------------------
CastlevaniaOrderofEcclesiaRhapsodyoftheForsaken_6_015:
	BYTE	W24
	BYTE		N23     Dn4   v040
	BYTE		N23     Fs4 
	BYTE	W24
	BYTE		N10     Dn4   v012
	BYTE		N10     Fs4 
	BYTE	W12
	BYTE		N09     Cn4   v040
	BYTE		N09     En4 
	BYTE	W12
	BYTE		        Cn4   v012
	BYTE		N09     En4 
	BYTE	W12
	BYTE		        Dn4   v040
	BYTE		N09     Fs4 
	BYTE	W12
	BYTE	PEND
// 016   ----------------------------------------
CastlevaniaOrderofEcclesiaRhapsodyoftheForsaken_6_016:
	BYTE		N09     Dn4   v012
	BYTE		N09     Fs4 
	BYTE	W12
	BYTE		N32     En4   v040
	BYTE		N32     Gn4 
	BYTE	W36
	BYTE		N10     Dn4 
	BYTE		N10     Fs4 
	BYTE	W24
	BYTE		        Dn4   v012
	BYTE		N10     Fs4 
	BYTE	W12
	BYTE		N23     En4   v040
	BYTE		N23     Gn4 
	BYTE	W12
	BYTE	PEND
// 017   ----------------------------------------
CastlevaniaOrderofEcclesiaRhapsodyoftheForsaken_6_017:
	BYTE	W24
	BYTE		N21     Cn4   v040
	BYTE		N21     En4 
	BYTE	W24
	BYTE		N08     Cn4   v012
	BYTE		N08     En4 
	BYTE	W12
	BYTE		N09     Dn4   v040
	BYTE		N09     Fs4 
	BYTE	W12
	BYTE		        Dn4   v012
	BYTE		N09     Fs4 
	BYTE	W12
	BYTE		        Dn4   v040
	BYTE		N09     Fs4 
	BYTE	W12
	BYTE	PEND
// 018   ----------------------------------------
	BYTE	PATT
	 POIN2	CastlevaniaOrderofEcclesiaRhapsodyoftheForsaken_6_016
// 019   ----------------------------------------
CastlevaniaOrderofEcclesiaRhapsodyoftheForsaken_6_019:
	BYTE	W12
	BYTE		N10     En4   v012
	BYTE		N10     Gn4 
	BYTE	W12
	BYTE		        Dn4   v040
	BYTE		N10     Fs4 
	BYTE	W24
	BYTE		        Dn4   v012
	BYTE		N10     Fs4 
	BYTE	W12
	BYTE		N08     En4   v040
	BYTE		N08     Gn4 
	BYTE	W12
	BYTE		        En4   v012
	BYTE		N08     Gn4 
	BYTE	W12
	BYTE		        Dn4   v040
	BYTE		N08     Fs4 
	BYTE	W12
	BYTE	PEND
// 020   ----------------------------------------
CastlevaniaOrderofEcclesiaRhapsodyoftheForsaken_6_020:
	BYTE		N08     Dn4   v012
	BYTE		N08     Fs4 
	BYTE	W12
	BYTE		N32     En4   v040
	BYTE		N32     Gn4 
	BYTE	W36
	BYTE		N09     Dn4 
	BYTE		N09     Fs4 
	BYTE	W24
	BYTE		        Dn4   v012
	BYTE		N09     Fs4 
	BYTE	W12
	BYTE		N23     En4   v040
	BYTE		N23     Gn4 
	BYTE	W12
	BYTE	PEND
// 021   ----------------------------------------
CastlevaniaOrderofEcclesiaRhapsodyoftheForsaken_6_021:
	BYTE	W24
	BYTE		N10     Dn4   v040
	BYTE		N10     Fs4 
	BYTE	W24
	BYTE		        Dn4   v012
	BYTE		N10     Fs4 
	BYTE	W12
	BYTE		N09     En4   v040
	BYTE		N09     Gn4 
	BYTE	W12
	BYTE		        En4   v012
	BYTE		N09     Gn4 
	BYTE	W12
	BYTE		        Dn4   v040
	BYTE		N09     Fs4 
	BYTE	W12
	BYTE	PEND
// 022   ----------------------------------------
CastlevaniaOrderofEcclesiaRhapsodyoftheForsaken_6_022:
	BYTE		N09     Dn4   v012
	BYTE		N09     Fs4 
	BYTE	W12
	BYTE		N32     Bn3   v040
	BYTE		N32     En4 
	BYTE	W36
	BYTE		N10     Dn4 
	BYTE		N10     Fs4 
	BYTE	W24
	BYTE		        Dn4   v012
	BYTE		N10     Fs4 
	BYTE	W12
	BYTE		N23     En4   v040
	BYTE		N23     Gn4 
	BYTE	W12
	BYTE	PEND
// 023   ----------------------------------------
CastlevaniaOrderofEcclesiaRhapsodyoftheForsaken_6_023:
	BYTE	W24
	BYTE		N10     Dn4   v040
	BYTE		N10     Fs4 
	BYTE	W24
	BYTE		        Dn4   v012
	BYTE		N10     Fs4 
	BYTE	W12
	BYTE		N11     En4   v040
	BYTE		N11     Gn4 
	BYTE	W24
	BYTE		        Dn4 
	BYTE		N11     Fs4 
	BYTE	W12
	BYTE	PEND
// 024   ----------------------------------------
CastlevaniaOrderofEcclesiaRhapsodyoftheForsaken_6_024:
	BYTE	W12
	BYTE		N32     En4   v040
	BYTE		N32     Gn4 
	BYTE	W36
	BYTE		N09     Dn4 
	BYTE		N09     Fs4 
	BYTE	W24
	BYTE		        Dn4   v012
	BYTE		N09     Fs4 
	BYTE	W12
	BYTE		N23     En4   v040
	BYTE		N23     Gn4 
	BYTE	W12
	BYTE	PEND
// 025   ----------------------------------------
CastlevaniaOrderofEcclesiaRhapsodyoftheForsaken_6_025:
	BYTE	W24
	BYTE		N11     Dn4   v040
	BYTE		N11     Fs4 
	BYTE	W24
	BYTE		        Dn4   v012
	BYTE		N11     Fs4 
	BYTE	W12
	BYTE		        En4   v040
	BYTE		N11     Gn4 
	BYTE	W24
	BYTE		        Dn4 
	BYTE		N11     Fs4 
	BYTE	W12
	BYTE	PEND
// 026   ----------------------------------------
CastlevaniaOrderofEcclesiaRhapsodyoftheForsaken_6_026:
	BYTE	W12
	BYTE		N80     Cn4   v052
	BYTE		N80     En4 
	BYTE	W84
	BYTE	PEND
// 027   ----------------------------------------
CastlevaniaOrderofEcclesiaRhapsodyoftheForsaken_6_027:
	BYTE	W36
	BYTE		N32     Cn4   v052
	BYTE	W12
	BYTE		N44     En4 
	BYTE	W24
	BYTE		N23     Gn4 
	BYTE	W24
	BYTE	PEND
// 028   ----------------------------------------
	BYTE		N92     Bn3 
	BYTE		N92     En4 
	BYTE	W96
// 029   ----------------------------------------
CastlevaniaOrderofEcclesiaRhapsodyoftheForsaken_6_029:
	BYTE	W36
	BYTE		N36     Bn3   v052
	BYTE	W12
	BYTE		N44     En4 
	BYTE	W24
	BYTE		N23     Gn4 
	BYTE	W24
	BYTE	PEND
// 030   ----------------------------------------
	BYTE		N92     Cn4 
	BYTE		N92     Fn4 
	BYTE	W96
// 031   ----------------------------------------
CastlevaniaOrderofEcclesiaRhapsodyoftheForsaken_6_031:
	BYTE		TIE     En4   v052
	BYTE		TIE     An4 
	BYTE	W96
	BYTE	PEND
// 032   ----------------------------------------
	BYTE	W11
	BYTE		EOT     En4 
	BYTE		        An4 
	BYTE	W01
	BYTE		N23     En4 
	BYTE		N23     An4 
	BYTE	W24
	BYTE		N11     En4   v016
	BYTE		N11     An4 
	BYTE	W12
	BYTE		N23     En4   v052
	BYTE		N23     Bn4 
	BYTE	W24
	BYTE		N11     En4   v016
	BYTE		N11     Bn4 
	BYTE	W12
	BYTE		N23     En4   v052
	BYTE		N23     An4 
	BYTE	W12
// 033   ----------------------------------------
CastlevaniaOrderofEcclesiaRhapsodyoftheForsaken_6_033:
	BYTE	W12
	BYTE		N11     En4   v016
	BYTE		N11     An4 
	BYTE	W12
	BYTE		N80     En4   v052
	BYTE		N80     Gs4 
	BYTE	W72
	BYTE	PEND
// 034   ----------------------------------------
	BYTE	PATT
	 POIN2	CastlevaniaOrderofEcclesiaRhapsodyoftheForsaken_6_026
// 035   ----------------------------------------
	BYTE	W36
	BYTE		N36     Cn4   v052
	BYTE	W12
	BYTE		N44     En4 
	BYTE	W24
	BYTE		N17     Gn4 
	BYTE	W24
// 036   ----------------------------------------
	BYTE		N92     Bn3 
	BYTE		N92     En4 
	BYTE	W96
// 037   ----------------------------------------
CastlevaniaOrderofEcclesiaRhapsodyoftheForsaken_6_037:
	BYTE	W36
	BYTE		N32     Bn3   v052
	BYTE	W12
	BYTE		N56     En4 
	BYTE	W24
	BYTE		N32     Bn4 
	BYTE	W24
	BYTE	PEND
// 038   ----------------------------------------
CastlevaniaOrderofEcclesiaRhapsodyoftheForsaken_6_038:
	BYTE	W12
	BYTE		N21     Fn4   v072
	BYTE		N21     Bn4 
	BYTE	W24
	BYTE		N09     Fn4   v024
	BYTE		N09     Bn4 
	BYTE	W12
	BYTE		N21     Fn4   v072
	BYTE		N21     An4 
	BYTE	W24
	BYTE		N09     Fn4   v024
	BYTE		N09     An4 
	BYTE	W12
	BYTE		N21     Fn4   v072
	BYTE		N21     Bn4 
	BYTE	W12
	BYTE	PEND
// 039   ----------------------------------------
CastlevaniaOrderofEcclesiaRhapsodyoftheForsaken_6_039:
	BYTE	W12
	BYTE		N09     Fn4   v024
	BYTE		N09     Bn4 
	BYTE	W12
	BYTE		N21     Fn4   v072
	BYTE		N21     An4 
	BYTE	W24
	BYTE		N09     Fn4   v024
	BYTE		N09     An4 
	BYTE	W12
	BYTE		        An4   v072
	BYTE		N09     Dn5 
	BYTE	W12
	BYTE		        An4   v024
	BYTE		N09     Dn5 
	BYTE	W12
	BYTE		        An4   v072
	BYTE		N09     Cn5 
	BYTE	W12
	BYTE	PEND
// 040   ----------------------------------------
CastlevaniaOrderofEcclesiaRhapsodyoftheForsaken_6_040:
	BYTE		N09     An4   v024
	BYTE		N09     Cn5 
	BYTE	W12
	BYTE		N22     Fs4   v072
	BYTE		N22     Bn4 
	BYTE	W36
	BYTE		N09     Fs4 
	BYTE		N09     Bn4 
	BYTE	W24
	BYTE		        Fs4   v024
	BYTE		N09     Bn4 
	BYTE	W12
	BYTE		N68     Fs4   v072
	BYTE		N68     Bn4 
	BYTE	W12
	BYTE	PEND
// 041   ----------------------------------------
	BYTE	W96
// 042   ----------------------------------------
CastlevaniaOrderofEcclesiaRhapsodyoftheForsaken_6_042:
	BYTE	W12
	BYTE		N10     En5   v052
	BYTE	W24
	BYTE		N10   
	BYTE	W24
	BYTE		N10   
	BYTE	W24
	BYTE		N10   
	BYTE	W12
	BYTE	PEND
// 043   ----------------------------------------
	BYTE	PATT
	 POIN2	CastlevaniaOrderofEcclesiaRhapsodyoftheForsaken_6_042
// 044   ----------------------------------------
	BYTE	PATT
	 POIN2	CastlevaniaOrderofEcclesiaRhapsodyoftheForsaken_6_042
// 045   ----------------------------------------
	BYTE	PATT
	 POIN2	CastlevaniaOrderofEcclesiaRhapsodyoftheForsaken_6_042
// 046   ----------------------------------------
	BYTE	PATT
	 POIN2	CastlevaniaOrderofEcclesiaRhapsodyoftheForsaken_6_042
// 047   ----------------------------------------
	BYTE	PATT
	 POIN2	CastlevaniaOrderofEcclesiaRhapsodyoftheForsaken_6_042
// 048   ----------------------------------------
	BYTE	PATT
	 POIN2	CastlevaniaOrderofEcclesiaRhapsodyoftheForsaken_6_042
// 049   ----------------------------------------
	BYTE	W12
	BYTE		N10     En5   v044
	BYTE	W24
	BYTE		N10   
	BYTE	W24
	BYTE		N10   
	BYTE	W36
// 050   ----------------------------------------
CastlevaniaOrderofEcclesiaRhapsodyoftheForsaken_6_050:
	BYTE		N44     Cn4   v056
	BYTE		N44     En4 
	BYTE	W60
	BYTE		N11     Cn4 
	BYTE		N11     En4 
	BYTE	W24
	BYTE		        Cn4 
	BYTE		N11     En4 
	BYTE	W12
	BYTE	PEND
// 051   ----------------------------------------
CastlevaniaOrderofEcclesiaRhapsodyoftheForsaken_6_051:
	BYTE		N44     Dn4   v056
	BYTE		N44     Fs4 
	BYTE	W60
	BYTE		        Dn4 
	BYTE		N44     Fs4 
	BYTE	W36
	BYTE	PEND
// 052   ----------------------------------------
CastlevaniaOrderofEcclesiaRhapsodyoftheForsaken_6_052:
	BYTE	W12
	BYTE		N68     En4   v056
	BYTE		N68     An4 
	BYTE	W84
	BYTE	PEND
// 053   ----------------------------------------
	BYTE		N92     En4 
	BYTE		N92     Gs4 
	BYTE	W96
// 054   ----------------------------------------
	BYTE	PATT
	 POIN2	CastlevaniaOrderofEcclesiaRhapsodyoftheForsaken_6_002
// 055   ----------------------------------------
	BYTE	PATT
	 POIN2	CastlevaniaOrderofEcclesiaRhapsodyoftheForsaken_6_003
// 056   ----------------------------------------
	BYTE	PATT
	 POIN2	CastlevaniaOrderofEcclesiaRhapsodyoftheForsaken_6_004
// 057   ----------------------------------------
	BYTE	W84
	BYTE		N23     Fs4   v020
	BYTE	W12
// 058   ----------------------------------------
	BYTE	PATT
	 POIN2	CastlevaniaOrderofEcclesiaRhapsodyoftheForsaken_6_002
// 059   ----------------------------------------
	BYTE	PATT
	 POIN2	CastlevaniaOrderofEcclesiaRhapsodyoftheForsaken_6_003
// 060   ----------------------------------------
CastlevaniaOrderofEcclesiaRhapsodyoftheForsaken_6_060:
	BYTE		N10     Dn4   v020
	BYTE		N10     Fs4 
	BYTE	W12
	BYTE		N64     Cn4   v056
	BYTE		N76     En4 
	BYTE	W72
	BYTE		N66     Cn4 
	BYTE	W12
	BYTE	PEND
// 061   ----------------------------------------
CastlevaniaOrderofEcclesiaRhapsodyoftheForsaken_6_061:
	BYTE		N54     En4   v056
	BYTE	W60
	BYTE		N40   
	BYTE		N40     An4 
	BYTE	W36
	BYTE	PEND
// 062   ----------------------------------------
CastlevaniaOrderofEcclesiaRhapsodyoftheForsaken_6_062:
	BYTE	W12
	BYTE		N64     Dn4   v056
	BYTE		N76     Fs4 
	BYTE	W72
	BYTE		N66     Dn4 
	BYTE	W12
	BYTE	PEND
// 063   ----------------------------------------
CastlevaniaOrderofEcclesiaRhapsodyoftheForsaken_6_063:
	BYTE		N54     Fs4   v056
	BYTE	W60
	BYTE		N40   
	BYTE		N40     Bn4 
	BYTE	W36
	BYTE	PEND
// 064   ----------------------------------------
CastlevaniaOrderofEcclesiaRhapsodyoftheForsaken_6_064:
	BYTE	W12
	BYTE		N11     Bn4   v056
	BYTE		N11     En5 
	BYTE	W36
	BYTE		        Bn4 
	BYTE		N11     En5 
	BYTE	W24
	BYTE		N05     An4 
	BYTE		N05     Dn5 
	BYTE	W12
	BYTE		N11     Bn4 
	BYTE		N11     En5 
	BYTE	W12
	BYTE	PEND
// 065   ----------------------------------------
CastlevaniaOrderofEcclesiaRhapsodyoftheForsaken_6_065:
	BYTE	W24
	BYTE		N11     Bn4   v056
	BYTE	W12
	BYTE		        En5 
	BYTE	W12
	BYTE		        Fs5 
	BYTE	W12
	BYTE		        Gn5 
	BYTE	W12
	BYTE		        Fs5 
	BYTE	W12
	BYTE		        En5 
	BYTE	W12
	BYTE	PEND
// 066   ----------------------------------------
CastlevaniaOrderofEcclesiaRhapsodyoftheForsaken_6_066:
	BYTE		N11     Dn5   v056
	BYTE	W12
	BYTE		        Bn4 
	BYTE		N11     En5 
	BYTE	W36
	BYTE		        Bn4 
	BYTE		N11     En5 
	BYTE	W24
	BYTE		N05     An4 
	BYTE		N05     Dn5 
	BYTE	W12
	BYTE		N11     Bn4 
	BYTE		N11     En5 
	BYTE	W12
	BYTE	PEND
// 067   ----------------------------------------
CastlevaniaOrderofEcclesiaRhapsodyoftheForsaken_6_067:
	BYTE	W12
	BYTE		N05     An4   v056
	BYTE		N05     Dn5 
	BYTE	W12
	BYTE		N11     Bn4 
	BYTE		N11     En5 
	BYTE	W24
	BYTE		        Bn4 
	BYTE		N11     En5 
	BYTE	W48
	BYTE	PEND
// 068   ----------------------------------------
	BYTE	PATT
	 POIN2	CastlevaniaOrderofEcclesiaRhapsodyoftheForsaken_6_002
// 069   ----------------------------------------
	BYTE	PATT
	 POIN2	CastlevaniaOrderofEcclesiaRhapsodyoftheForsaken_6_003
// 070   ----------------------------------------
CastlevaniaOrderofEcclesiaRhapsodyoftheForsaken_6_070:
	BYTE		N10     Dn4   v020
	BYTE		N10     Fs4 
	BYTE	W12
	BYTE		N17     Cn4   v056
	BYTE		N17     En4 
	BYTE	W24
	BYTE		N09     Cn4   v020
	BYTE		N09     En4 
	BYTE	W12
	BYTE		N17     Cn4   v056
	BYTE		N17     En4 
	BYTE	W24
	BYTE		N09     Cn4   v020
	BYTE		N09     En4 
	BYTE	W12
	BYTE		N22     Dn4   v056
	BYTE		N92     Fs4 
	BYTE	W12
	BYTE	PEND
// 071   ----------------------------------------
	BYTE	W84
	BYTE		N23     Fs4   v020
	BYTE	W12
// 072   ----------------------------------------
	BYTE	PATT
	 POIN2	CastlevaniaOrderofEcclesiaRhapsodyoftheForsaken_6_002
// 073   ----------------------------------------
	BYTE	PATT
	 POIN2	CastlevaniaOrderofEcclesiaRhapsodyoftheForsaken_6_003
// 074   ----------------------------------------
	BYTE		N10     Dn4   v020
	BYTE		N10     Fs4 
	BYTE	W12
	BYTE		N23     Cn4   v056
	BYTE		N23     En4 
	BYTE	W24
	BYTE		N10     Cn4   v020
	BYTE		N10     En4 
	BYTE	W12
	BYTE		N23     Cn4   v056
	BYTE		N23     En4 
	BYTE	W24
	BYTE		N10     Cn4   v020
	BYTE		N10     En4 
	BYTE	W12
	BYTE		N23     Dn4   v056
	BYTE		N92     Fs4 
	BYTE	W12
// 075   ----------------------------------------
	BYTE	W84
	BYTE		N21     Fs4   v020
	BYTE	W12
// 076   ----------------------------------------
	BYTE	W12
	BYTE	GoTo
	 POIN2	CastlevaniaOrderofEcclesiaRhapsodyoftheForsaken_6_B1
CastlevaniaOrderofEcclesiaRhapsodyoftheForsaken_6_B2:
	BYTE		N32     En4   v040
	BYTE		N32     Gn4 
	BYTE	W36
	BYTE		N11     Dn4 
	BYTE		N11     Fs4 
	BYTE	W24
	BYTE		        Dn4   v012
	BYTE		N11     Fs4 
	BYTE	W12
	BYTE		N23     En4   v040
	BYTE		N23     Gn4 
	BYTE	W12
// 077   ----------------------------------------
	BYTE	PATT
	 POIN2	CastlevaniaOrderofEcclesiaRhapsodyoftheForsaken_6_011
// 078   ----------------------------------------
	BYTE	PATT
	 POIN2	CastlevaniaOrderofEcclesiaRhapsodyoftheForsaken_6_012
// 079   ----------------------------------------
	BYTE	PATT
	 POIN2	CastlevaniaOrderofEcclesiaRhapsodyoftheForsaken_6_011
// 080   ----------------------------------------
	BYTE	PATT
	 POIN2	CastlevaniaOrderofEcclesiaRhapsodyoftheForsaken_6_012
// 081   ----------------------------------------
	BYTE	PATT
	 POIN2	CastlevaniaOrderofEcclesiaRhapsodyoftheForsaken_6_015
// 082   ----------------------------------------
	BYTE	PATT
	 POIN2	CastlevaniaOrderofEcclesiaRhapsodyoftheForsaken_6_016
// 083   ----------------------------------------
	BYTE	PATT
	 POIN2	CastlevaniaOrderofEcclesiaRhapsodyoftheForsaken_6_017
// 084   ----------------------------------------
	BYTE	PATT
	 POIN2	CastlevaniaOrderofEcclesiaRhapsodyoftheForsaken_6_016
// 085   ----------------------------------------
	BYTE	PATT
	 POIN2	CastlevaniaOrderofEcclesiaRhapsodyoftheForsaken_6_019
// 086   ----------------------------------------
	BYTE	PATT
	 POIN2	CastlevaniaOrderofEcclesiaRhapsodyoftheForsaken_6_020
// 087   ----------------------------------------
	BYTE	PATT
	 POIN2	CastlevaniaOrderofEcclesiaRhapsodyoftheForsaken_6_021
// 088   ----------------------------------------
	BYTE	PATT
	 POIN2	CastlevaniaOrderofEcclesiaRhapsodyoftheForsaken_6_022
// 089   ----------------------------------------
	BYTE	PATT
	 POIN2	CastlevaniaOrderofEcclesiaRhapsodyoftheForsaken_6_023
// 090   ----------------------------------------
	BYTE	PATT
	 POIN2	CastlevaniaOrderofEcclesiaRhapsodyoftheForsaken_6_024
// 091   ----------------------------------------
	BYTE	PATT
	 POIN2	CastlevaniaOrderofEcclesiaRhapsodyoftheForsaken_6_025
// 092   ----------------------------------------
	BYTE	PATT
	 POIN2	CastlevaniaOrderofEcclesiaRhapsodyoftheForsaken_6_026
// 093   ----------------------------------------
	BYTE	PATT
	 POIN2	CastlevaniaOrderofEcclesiaRhapsodyoftheForsaken_6_027
// 094   ----------------------------------------
	BYTE		N92     Bn3   v052
	BYTE		N92     En4 
	BYTE	W96
// 095   ----------------------------------------
	BYTE	PATT
	 POIN2	CastlevaniaOrderofEcclesiaRhapsodyoftheForsaken_6_029
// 096   ----------------------------------------
	BYTE		N92     Cn4   v052
	BYTE		N92     Fn4 
	BYTE	W96
// 097   ----------------------------------------
	BYTE	PATT
	 POIN2	CastlevaniaOrderofEcclesiaRhapsodyoftheForsaken_6_031
// 098   ----------------------------------------
	BYTE	W11
	BYTE		EOT     En4 
	BYTE		        An4 
	BYTE	W01
	BYTE		N23     En4   v052
	BYTE		N23     An4 
	BYTE	W24
	BYTE		N11     En4   v016
	BYTE		N11     An4 
	BYTE	W12
	BYTE		N23     En4   v052
	BYTE		N23     Bn4 
	BYTE	W24
	BYTE		N11     En4   v016
	BYTE		N11     Bn4 
	BYTE	W12
	BYTE		N23     En4   v052
	BYTE		N23     An4 
	BYTE	W12
// 099   ----------------------------------------
	BYTE	PATT
	 POIN2	CastlevaniaOrderofEcclesiaRhapsodyoftheForsaken_6_033
// 100   ----------------------------------------
	BYTE	PATT
	 POIN2	CastlevaniaOrderofEcclesiaRhapsodyoftheForsaken_6_026
// 101   ----------------------------------------
	BYTE	W36
	BYTE		N32     Cn4   v052
	BYTE	W12
	BYTE		N44     En4 
	BYTE	W24
	BYTE		N17     Gn4 
	BYTE	W24
// 102   ----------------------------------------
	BYTE		N92     Bn3 
	BYTE		N92     En4 
	BYTE	W96
// 103   ----------------------------------------
	BYTE	PATT
	 POIN2	CastlevaniaOrderofEcclesiaRhapsodyoftheForsaken_6_037
// 104   ----------------------------------------
	BYTE	PATT
	 POIN2	CastlevaniaOrderofEcclesiaRhapsodyoftheForsaken_6_038
// 105   ----------------------------------------
	BYTE	PATT
	 POIN2	CastlevaniaOrderofEcclesiaRhapsodyoftheForsaken_6_039
// 106   ----------------------------------------
	BYTE	PATT
	 POIN2	CastlevaniaOrderofEcclesiaRhapsodyoftheForsaken_6_040
// 107   ----------------------------------------
	BYTE	W96
// 108   ----------------------------------------
CastlevaniaOrderofEcclesiaRhapsodyoftheForsaken_6_108:
	BYTE	W12
	BYTE		N11     En6   v044
	BYTE	W24
	BYTE		N11   
	BYTE	W24
	BYTE		N11   
	BYTE	W24
	BYTE		N11   
	BYTE	W12
	BYTE	PEND
// 109   ----------------------------------------
	BYTE	PATT
	 POIN2	CastlevaniaOrderofEcclesiaRhapsodyoftheForsaken_6_108
// 110   ----------------------------------------
	BYTE	PATT
	 POIN2	CastlevaniaOrderofEcclesiaRhapsodyoftheForsaken_6_108
// 111   ----------------------------------------
	BYTE	PATT
	 POIN2	CastlevaniaOrderofEcclesiaRhapsodyoftheForsaken_6_108
// 112   ----------------------------------------
	BYTE	PATT
	 POIN2	CastlevaniaOrderofEcclesiaRhapsodyoftheForsaken_6_108
// 113   ----------------------------------------
	BYTE	PATT
	 POIN2	CastlevaniaOrderofEcclesiaRhapsodyoftheForsaken_6_108
// 114   ----------------------------------------
	BYTE	PATT
	 POIN2	CastlevaniaOrderofEcclesiaRhapsodyoftheForsaken_6_108
// 115   ----------------------------------------
	BYTE	W12
	BYTE		N10     En6   v044
	BYTE	W24
	BYTE		N10   
	BYTE	W24
	BYTE		N10   
	BYTE	W36
// 116   ----------------------------------------
	BYTE	PATT
	 POIN2	CastlevaniaOrderofEcclesiaRhapsodyoftheForsaken_6_050
// 117   ----------------------------------------
	BYTE	PATT
	 POIN2	CastlevaniaOrderofEcclesiaRhapsodyoftheForsaken_6_051
// 118   ----------------------------------------
	BYTE	PATT
	 POIN2	CastlevaniaOrderofEcclesiaRhapsodyoftheForsaken_6_052
// 119   ----------------------------------------
	BYTE		N92     En4   v056
	BYTE		N92     Gn4 
	BYTE	W96
// 120   ----------------------------------------
	BYTE	PATT
	 POIN2	CastlevaniaOrderofEcclesiaRhapsodyoftheForsaken_6_050
// 121   ----------------------------------------
	BYTE	PATT
	 POIN2	CastlevaniaOrderofEcclesiaRhapsodyoftheForsaken_6_051
// 122   ----------------------------------------
	BYTE	PATT
	 POIN2	CastlevaniaOrderofEcclesiaRhapsodyoftheForsaken_6_052
// 123   ----------------------------------------
	BYTE		N92     En4   v056
	BYTE		N92     Gs4 
	BYTE	W96
// 124   ----------------------------------------
	BYTE	PATT
	 POIN2	CastlevaniaOrderofEcclesiaRhapsodyoftheForsaken_6_002
// 125   ----------------------------------------
	BYTE	PATT
	 POIN2	CastlevaniaOrderofEcclesiaRhapsodyoftheForsaken_6_003
// 126   ----------------------------------------
	BYTE	PATT
	 POIN2	CastlevaniaOrderofEcclesiaRhapsodyoftheForsaken_6_070
// 127   ----------------------------------------
	BYTE	W84
	BYTE		N23     Fs4   v020
	BYTE	W12
// 128   ----------------------------------------
	BYTE	PATT
	 POIN2	CastlevaniaOrderofEcclesiaRhapsodyoftheForsaken_6_002
// 129   ----------------------------------------
	BYTE	PATT
	 POIN2	CastlevaniaOrderofEcclesiaRhapsodyoftheForsaken_6_003
// 130   ----------------------------------------
	BYTE	PATT
	 POIN2	CastlevaniaOrderofEcclesiaRhapsodyoftheForsaken_6_060
// 131   ----------------------------------------
	BYTE	PATT
	 POIN2	CastlevaniaOrderofEcclesiaRhapsodyoftheForsaken_6_061
// 132   ----------------------------------------
	BYTE	PATT
	 POIN2	CastlevaniaOrderofEcclesiaRhapsodyoftheForsaken_6_062
// 133   ----------------------------------------
	BYTE	PATT
	 POIN2	CastlevaniaOrderofEcclesiaRhapsodyoftheForsaken_6_063
// 134   ----------------------------------------
	BYTE	PATT
	 POIN2	CastlevaniaOrderofEcclesiaRhapsodyoftheForsaken_6_064
// 135   ----------------------------------------
	BYTE	PATT
	 POIN2	CastlevaniaOrderofEcclesiaRhapsodyoftheForsaken_6_065
// 136   ----------------------------------------
	BYTE	PATT
	 POIN2	CastlevaniaOrderofEcclesiaRhapsodyoftheForsaken_6_066
// 137   ----------------------------------------
	BYTE	PATT
	 POIN2	CastlevaniaOrderofEcclesiaRhapsodyoftheForsaken_6_067
// 138   ----------------------------------------
	BYTE	W03
	BYTE	FINE

//**************** Track 7 (Midi-Chn.7) ****************//

CastlevaniaOrderofEcclesiaRhapsodyoftheForsaken_7:
	BYTE	KEYSH   CastlevaniaOrderofEcclesiaRhapsodyoftheForsaken_key+0
// 000   ----------------------------------------
	BYTE		VOICE   30
	BYTE		MODT    0
	BYTE		LFOS    44
	BYTE		VOL     68*CastlevaniaOrderofEcclesiaRhapsodyoftheForsaken_mvl/mxv
	BYTE		PAN     c_v+5
	BYTE		VOL     68*CastlevaniaOrderofEcclesiaRhapsodyoftheForsaken_mvl/mxv
	BYTE	W96
// 001   ----------------------------------------
	BYTE	W96
// 002   ----------------------------------------
CastlevaniaOrderofEcclesiaRhapsodyoftheForsaken_7_002:
	BYTE	W12
	BYTE		N22     Bn3   v056
	BYTE	W24
	BYTE		N09     Bn3   v020
	BYTE	W12
	BYTE		N21     Bn3   v056
	BYTE	W24
	BYTE		N09     Bn3   v020
	BYTE	W12
	BYTE		N23     An3   v056
	BYTE	W12
	BYTE	PEND
// 003   ----------------------------------------
CastlevaniaOrderofEcclesiaRhapsodyoftheForsaken_7_003:
	BYTE	W12
	BYTE		N09     An3   v020
	BYTE	W12
	BYTE		N22     Cn4   v056
	BYTE	W24
	BYTE		N10     Cn4   v020
	BYTE	W12
	BYTE		N11     Bn3   v056
	BYTE	W12
	BYTE		N10     Bn3   v020
	BYTE	W12
	BYTE		N11     An3   v056
	BYTE	W12
	BYTE	PEND
// 004   ----------------------------------------
	BYTE		N10     An3   v020
	BYTE	W12
	BYTE		N17     Gn3   v056
	BYTE	W24
	BYTE		N09     Gn3   v020
	BYTE	W12
	BYTE		N17     Gn3   v056
	BYTE	W24
	BYTE		N09     Gn3   v020
	BYTE	W12
	BYTE		N22     An3   v056
	BYTE	W12
// 005   ----------------------------------------
	BYTE	W96
// 006   ----------------------------------------
	BYTE	W36
	BYTE		N09     Bn3   v020
	BYTE	W12
	BYTE		N21     Bn3   v056
	BYTE	W24
	BYTE		N09     Bn3   v020
	BYTE	W12
	BYTE		N23     An3   v056
	BYTE	W12
// 007   ----------------------------------------
	BYTE	PATT
	 POIN2	CastlevaniaOrderofEcclesiaRhapsodyoftheForsaken_7_003
// 008   ----------------------------------------
CastlevaniaOrderofEcclesiaRhapsodyoftheForsaken_7_008:
	BYTE		N10     An3   v020
	BYTE	W12
	BYTE		N23     Gn3   v056
	BYTE	W24
	BYTE		N10     Gn3   v020
	BYTE	W12
	BYTE		N23     Gn3   v056
	BYTE	W24
	BYTE		N10     Gn3   v020
	BYTE	W12
	BYTE		N23     An3   v056
	BYTE	W12
	BYTE	PEND
// 009   ----------------------------------------
	BYTE	W96
// 010   ----------------------------------------
	BYTE	W12
CastlevaniaOrderofEcclesiaRhapsodyoftheForsaken_7_B1:
	BYTE		N32     Bn3   v040
	BYTE	W36
	BYTE		N11     An3 
	BYTE	W24
	BYTE		        An3   v012
	BYTE	W12
	BYTE		N23     Bn3   v040
	BYTE	W12
// 011   ----------------------------------------
CastlevaniaOrderofEcclesiaRhapsodyoftheForsaken_7_011:
	BYTE	W24
	BYTE		N09     An3   v040
	BYTE	W24
	BYTE		        An3   v012
	BYTE	W12
	BYTE		N08     Bn3   v040
	BYTE	W12
	BYTE		        Bn3   v012
	BYTE	W12
	BYTE		        An3   v040
	BYTE	W12
	BYTE	PEND
// 012   ----------------------------------------
CastlevaniaOrderofEcclesiaRhapsodyoftheForsaken_7_012:
	BYTE		N08     An3   v012
	BYTE	W12
	BYTE		N32     Bn3   v040
	BYTE	W36
	BYTE		N11     An3 
	BYTE	W24
	BYTE		        An3   v012
	BYTE	W12
	BYTE		N23     Bn3   v040
	BYTE	W12
	BYTE	PEND
// 013   ----------------------------------------
	BYTE	PATT
	 POIN2	CastlevaniaOrderofEcclesiaRhapsodyoftheForsaken_7_011
// 014   ----------------------------------------
	BYTE	PATT
	 POIN2	CastlevaniaOrderofEcclesiaRhapsodyoftheForsaken_7_012
// 015   ----------------------------------------
CastlevaniaOrderofEcclesiaRhapsodyoftheForsaken_7_015:
	BYTE	W24
	BYTE		N23     An3   v040
	BYTE	W24
	BYTE		N10     An3   v012
	BYTE	W12
	BYTE		N09     Gn3   v040
	BYTE	W12
	BYTE		        Gn3   v012
	BYTE	W12
	BYTE		        An3   v040
	BYTE	W12
	BYTE	PEND
// 016   ----------------------------------------
CastlevaniaOrderofEcclesiaRhapsodyoftheForsaken_7_016:
	BYTE		N09     An3   v012
	BYTE	W12
	BYTE		N32     Bn3   v040
	BYTE	W36
	BYTE		N10     An3 
	BYTE	W24
	BYTE		        An3   v012
	BYTE	W12
	BYTE		N23     Bn3   v040
	BYTE	W12
	BYTE	PEND
// 017   ----------------------------------------
CastlevaniaOrderofEcclesiaRhapsodyoftheForsaken_7_017:
	BYTE	W24
	BYTE		N21     Gn3   v040
	BYTE	W24
	BYTE		N08     Gn3   v012
	BYTE	W12
	BYTE		N09     An3   v040
	BYTE	W12
	BYTE		        An3   v012
	BYTE	W12
	BYTE		        An3   v040
	BYTE	W12
	BYTE	PEND
// 018   ----------------------------------------
	BYTE	PATT
	 POIN2	CastlevaniaOrderofEcclesiaRhapsodyoftheForsaken_7_016
// 019   ----------------------------------------
CastlevaniaOrderofEcclesiaRhapsodyoftheForsaken_7_019:
	BYTE	W12
	BYTE		N10     Bn3   v012
	BYTE	W12
	BYTE		        An3   v040
	BYTE	W24
	BYTE		        An3   v012
	BYTE	W12
	BYTE		N08     Bn3   v040
	BYTE	W12
	BYTE		        Bn3   v012
	BYTE	W12
	BYTE		        An3   v040
	BYTE	W12
	BYTE	PEND
// 020   ----------------------------------------
CastlevaniaOrderofEcclesiaRhapsodyoftheForsaken_7_020:
	BYTE		N08     An3   v012
	BYTE	W12
	BYTE		N32     Bn3   v040
	BYTE	W36
	BYTE		N09     An3 
	BYTE	W24
	BYTE		        An3   v012
	BYTE	W12
	BYTE		N23     Bn3   v040
	BYTE	W12
	BYTE	PEND
// 021   ----------------------------------------
CastlevaniaOrderofEcclesiaRhapsodyoftheForsaken_7_021:
	BYTE	W24
	BYTE		N10     An3   v040
	BYTE	W24
	BYTE		        An3   v012
	BYTE	W12
	BYTE		N09     Bn3   v040
	BYTE	W12
	BYTE		        Bn3   v012
	BYTE	W12
	BYTE		        An3   v040
	BYTE	W12
	BYTE	PEND
// 022   ----------------------------------------
	BYTE	PATT
	 POIN2	CastlevaniaOrderofEcclesiaRhapsodyoftheForsaken_7_016
// 023   ----------------------------------------
CastlevaniaOrderofEcclesiaRhapsodyoftheForsaken_7_023:
	BYTE	W24
	BYTE		N10     An3   v040
	BYTE	W24
	BYTE		        An3   v012
	BYTE	W12
	BYTE		N11     Bn3   v040
	BYTE	W24
	BYTE		        An3 
	BYTE	W12
	BYTE	PEND
// 024   ----------------------------------------
CastlevaniaOrderofEcclesiaRhapsodyoftheForsaken_7_024:
	BYTE	W12
	BYTE		N32     Bn3   v040
	BYTE	W36
	BYTE		N09     An3 
	BYTE	W24
	BYTE		        An3   v012
	BYTE	W12
	BYTE		N23     Bn3   v040
	BYTE	W12
	BYTE	PEND
// 025   ----------------------------------------
CastlevaniaOrderofEcclesiaRhapsodyoftheForsaken_7_025:
	BYTE	W24
	BYTE		N11     An3   v040
	BYTE	W24
	BYTE		        An3   v012
	BYTE	W12
	BYTE		        Bn3   v040
	BYTE	W24
	BYTE		        An3 
	BYTE	W12
	BYTE	PEND
// 026   ----------------------------------------
	BYTE	W12
	BYTE		N80     Gn3   v052
	BYTE	W84
// 027   ----------------------------------------
	BYTE		N44     En3 
	BYTE	W24
	BYTE		        Gn3 
	BYTE	W72
// 028   ----------------------------------------
	BYTE		N92   
	BYTE	W96
// 029   ----------------------------------------
	BYTE		N44     En3 
	BYTE	W24
	BYTE		        Gn3 
	BYTE	W72
// 030   ----------------------------------------
	BYTE		N92     An3 
	BYTE	W96
// 031   ----------------------------------------
	BYTE		TIE     Cn4 
	BYTE	W96
// 032   ----------------------------------------
	BYTE	W11
	BYTE		EOT   
	BYTE	W01
	BYTE		N23     Bn3 
	BYTE	W24
	BYTE		N11     Bn3   v016
	BYTE	W12
	BYTE		N23     Bn3   v052
	BYTE	W24
	BYTE		N11     Bn3   v016
	BYTE	W12
	BYTE		N23     Bn3   v052
	BYTE	W12
// 033   ----------------------------------------
CastlevaniaOrderofEcclesiaRhapsodyoftheForsaken_7_033:
	BYTE	W12
	BYTE		N11     Bn3   v016
	BYTE	W12
	BYTE		N80     Bn3   v052
	BYTE	W72
	BYTE	PEND
// 034   ----------------------------------------
	BYTE	W12
	BYTE		        Gn3 
	BYTE	W84
// 035   ----------------------------------------
	BYTE		N44     En3 
	BYTE	W24
	BYTE		        Gn3 
	BYTE	W72
// 036   ----------------------------------------
	BYTE		N92   
	BYTE	W96
// 037   ----------------------------------------
	BYTE		N44     En3 
	BYTE	W24
	BYTE		        Gn3 
	BYTE	W72
// 038   ----------------------------------------
CastlevaniaOrderofEcclesiaRhapsodyoftheForsaken_7_038:
	BYTE	W12
	BYTE		N21     Cn4   v072
	BYTE	W24
	BYTE		N09     Cn4   v024
	BYTE	W12
	BYTE		N21     Cn4   v072
	BYTE	W24
	BYTE		N09     Cn4   v024
	BYTE	W12
	BYTE		N21     Cn4   v072
	BYTE	W12
	BYTE	PEND
// 039   ----------------------------------------
CastlevaniaOrderofEcclesiaRhapsodyoftheForsaken_7_039:
	BYTE	W12
	BYTE		N09     Cn4   v024
	BYTE	W12
	BYTE		N21     Cn4   v072
	BYTE	W24
	BYTE		N09     Cn4   v024
	BYTE	W12
	BYTE		        Fn4   v072
	BYTE	W12
	BYTE		        Fn4   v024
	BYTE	W12
	BYTE		        Fn4   v072
	BYTE	W12
	BYTE	PEND
// 040   ----------------------------------------
CastlevaniaOrderofEcclesiaRhapsodyoftheForsaken_7_040:
	BYTE		N09     Fn4   v024
	BYTE	W12
	BYTE		N22     En4   v072
	BYTE	W36
	BYTE		N09   
	BYTE	W24
	BYTE		        En4   v024
	BYTE	W12
	BYTE		N68     Ds4   v072
	BYTE	W12
	BYTE	PEND
// 041   ----------------------------------------
	BYTE	W96
// 042   ----------------------------------------
CastlevaniaOrderofEcclesiaRhapsodyoftheForsaken_7_042:
	BYTE	W12
	BYTE		N10     En4   v052
	BYTE	W24
	BYTE		N10   
	BYTE	W24
	BYTE		N10   
	BYTE	W24
	BYTE		N10   
	BYTE	W12
	BYTE	PEND
// 043   ----------------------------------------
	BYTE	PATT
	 POIN2	CastlevaniaOrderofEcclesiaRhapsodyoftheForsaken_7_042
// 044   ----------------------------------------
	BYTE	PATT
	 POIN2	CastlevaniaOrderofEcclesiaRhapsodyoftheForsaken_7_042
// 045   ----------------------------------------
	BYTE	PATT
	 POIN2	CastlevaniaOrderofEcclesiaRhapsodyoftheForsaken_7_042
// 046   ----------------------------------------
	BYTE	PATT
	 POIN2	CastlevaniaOrderofEcclesiaRhapsodyoftheForsaken_7_042
// 047   ----------------------------------------
	BYTE	PATT
	 POIN2	CastlevaniaOrderofEcclesiaRhapsodyoftheForsaken_7_042
// 048   ----------------------------------------
	BYTE	PATT
	 POIN2	CastlevaniaOrderofEcclesiaRhapsodyoftheForsaken_7_042
// 049   ----------------------------------------
	BYTE	W12
	BYTE		N10     En4   v044
	BYTE	W24
	BYTE		N10   
	BYTE	W24
	BYTE		N10   
	BYTE	W36
// 050   ----------------------------------------
CastlevaniaOrderofEcclesiaRhapsodyoftheForsaken_7_050:
	BYTE		N44     Gn3   v056
	BYTE	W60
	BYTE		N11   
	BYTE	W24
	BYTE		N11   
	BYTE	W12
	BYTE	PEND
// 051   ----------------------------------------
CastlevaniaOrderofEcclesiaRhapsodyoftheForsaken_7_051:
	BYTE		N44     An3   v056
	BYTE	W60
	BYTE		N44   
	BYTE	W36
	BYTE	PEND
// 052   ----------------------------------------
	BYTE	W12
	BYTE		N68     Bn3 
	BYTE	W84
// 053   ----------------------------------------
	BYTE		N92   
	BYTE	W96
// 054   ----------------------------------------
	BYTE	PATT
	 POIN2	CastlevaniaOrderofEcclesiaRhapsodyoftheForsaken_7_002
// 055   ----------------------------------------
	BYTE	PATT
	 POIN2	CastlevaniaOrderofEcclesiaRhapsodyoftheForsaken_7_003
// 056   ----------------------------------------
CastlevaniaOrderofEcclesiaRhapsodyoftheForsaken_7_056:
	BYTE		N10     An3   v020
	BYTE	W12
	BYTE		N17     Gn3   v056
	BYTE	W24
	BYTE		N09     Gn3   v020
	BYTE	W12
	BYTE		N17     Gn3   v056
	BYTE	W24
	BYTE		N09     Gn3   v020
	BYTE	W12
	BYTE		N23     An3   v056
	BYTE	W12
	BYTE	PEND
// 057   ----------------------------------------
	BYTE	W84
	BYTE		        An3   v020
	BYTE	W12
// 058   ----------------------------------------
	BYTE	PATT
	 POIN2	CastlevaniaOrderofEcclesiaRhapsodyoftheForsaken_7_002
// 059   ----------------------------------------
	BYTE	PATT
	 POIN2	CastlevaniaOrderofEcclesiaRhapsodyoftheForsaken_7_003
// 060   ----------------------------------------
	BYTE		N10     An3   v020
	BYTE	W96
// 061   ----------------------------------------
	BYTE	W96
// 062   ----------------------------------------
	BYTE	W96
// 063   ----------------------------------------
	BYTE	W96
// 064   ----------------------------------------
CastlevaniaOrderofEcclesiaRhapsodyoftheForsaken_7_064:
	BYTE	W12
	BYTE		N11     Gn4   v056
	BYTE	W36
	BYTE		N11   
	BYTE	W24
	BYTE		N05     Fs4 
	BYTE	W12
	BYTE		N11     Gn4 
	BYTE	W12
	BYTE	PEND
// 065   ----------------------------------------
CastlevaniaOrderofEcclesiaRhapsodyoftheForsaken_7_065:
	BYTE	W24
	BYTE		N11     Bn3   v056
	BYTE	W12
	BYTE		        En4 
	BYTE	W12
	BYTE		        Fs4 
	BYTE	W12
	BYTE		        Gn4 
	BYTE	W12
	BYTE		        Fs4 
	BYTE	W12
	BYTE		        En4 
	BYTE	W12
	BYTE	PEND
// 066   ----------------------------------------
CastlevaniaOrderofEcclesiaRhapsodyoftheForsaken_7_066:
	BYTE		N11     Dn4   v056
	BYTE	W12
	BYTE		        Gn4 
	BYTE	W36
	BYTE		N11   
	BYTE	W24
	BYTE		N05     Fs4 
	BYTE	W12
	BYTE		N11     Gn4 
	BYTE	W12
	BYTE	PEND
// 067   ----------------------------------------
CastlevaniaOrderofEcclesiaRhapsodyoftheForsaken_7_067:
	BYTE	W12
	BYTE		N05     Fs4   v056
	BYTE	W12
	BYTE		N11     Gn4 
	BYTE	W24
	BYTE		N11   
	BYTE	W48
	BYTE	PEND
// 068   ----------------------------------------
	BYTE	PATT
	 POIN2	CastlevaniaOrderofEcclesiaRhapsodyoftheForsaken_7_002
// 069   ----------------------------------------
	BYTE	PATT
	 POIN2	CastlevaniaOrderofEcclesiaRhapsodyoftheForsaken_7_003
// 070   ----------------------------------------
	BYTE	PATT
	 POIN2	CastlevaniaOrderofEcclesiaRhapsodyoftheForsaken_7_056
// 071   ----------------------------------------
	BYTE	W96
// 072   ----------------------------------------
	BYTE	PATT
	 POIN2	CastlevaniaOrderofEcclesiaRhapsodyoftheForsaken_7_002
// 073   ----------------------------------------
	BYTE	PATT
	 POIN2	CastlevaniaOrderofEcclesiaRhapsodyoftheForsaken_7_003
// 074   ----------------------------------------
	BYTE	PATT
	 POIN2	CastlevaniaOrderofEcclesiaRhapsodyoftheForsaken_7_008
// 075   ----------------------------------------
	BYTE	W96
// 076   ----------------------------------------
	BYTE	W12
	BYTE	GoTo
	 POIN2	CastlevaniaOrderofEcclesiaRhapsodyoftheForsaken_7_B1
CastlevaniaOrderofEcclesiaRhapsodyoftheForsaken_7_B2:
	BYTE		N32     Bn3   v040
	BYTE	W36
	BYTE		N11     An3 
	BYTE	W24
	BYTE		        An3   v012
	BYTE	W12
	BYTE		N23     Bn3   v040
	BYTE	W12
// 077   ----------------------------------------
	BYTE	PATT
	 POIN2	CastlevaniaOrderofEcclesiaRhapsodyoftheForsaken_7_011
// 078   ----------------------------------------
	BYTE	PATT
	 POIN2	CastlevaniaOrderofEcclesiaRhapsodyoftheForsaken_7_012
// 079   ----------------------------------------
	BYTE	PATT
	 POIN2	CastlevaniaOrderofEcclesiaRhapsodyoftheForsaken_7_011
// 080   ----------------------------------------
	BYTE	PATT
	 POIN2	CastlevaniaOrderofEcclesiaRhapsodyoftheForsaken_7_012
// 081   ----------------------------------------
	BYTE	PATT
	 POIN2	CastlevaniaOrderofEcclesiaRhapsodyoftheForsaken_7_015
// 082   ----------------------------------------
	BYTE	PATT
	 POIN2	CastlevaniaOrderofEcclesiaRhapsodyoftheForsaken_7_016
// 083   ----------------------------------------
	BYTE	PATT
	 POIN2	CastlevaniaOrderofEcclesiaRhapsodyoftheForsaken_7_017
// 084   ----------------------------------------
	BYTE	PATT
	 POIN2	CastlevaniaOrderofEcclesiaRhapsodyoftheForsaken_7_016
// 085   ----------------------------------------
	BYTE	PATT
	 POIN2	CastlevaniaOrderofEcclesiaRhapsodyoftheForsaken_7_019
// 086   ----------------------------------------
	BYTE	PATT
	 POIN2	CastlevaniaOrderofEcclesiaRhapsodyoftheForsaken_7_020
// 087   ----------------------------------------
	BYTE	PATT
	 POIN2	CastlevaniaOrderofEcclesiaRhapsodyoftheForsaken_7_021
// 088   ----------------------------------------
	BYTE	PATT
	 POIN2	CastlevaniaOrderofEcclesiaRhapsodyoftheForsaken_7_016
// 089   ----------------------------------------
	BYTE	PATT
	 POIN2	CastlevaniaOrderofEcclesiaRhapsodyoftheForsaken_7_023
// 090   ----------------------------------------
	BYTE	PATT
	 POIN2	CastlevaniaOrderofEcclesiaRhapsodyoftheForsaken_7_024
// 091   ----------------------------------------
	BYTE	PATT
	 POIN2	CastlevaniaOrderofEcclesiaRhapsodyoftheForsaken_7_025
// 092   ----------------------------------------
	BYTE	W12
	BYTE		N80     Gn3   v052
	BYTE	W84
// 093   ----------------------------------------
	BYTE		N44     En3 
	BYTE	W24
	BYTE		        Gn3 
	BYTE	W72
// 094   ----------------------------------------
	BYTE		N92   
	BYTE	W96
// 095   ----------------------------------------
	BYTE		N44     En3 
	BYTE	W24
	BYTE		        Gn3 
	BYTE	W72
// 096   ----------------------------------------
	BYTE		N92     An3 
	BYTE	W96
// 097   ----------------------------------------
	BYTE		TIE     Cn4 
	BYTE	W96
// 098   ----------------------------------------
	BYTE	W11
	BYTE		EOT   
	BYTE	W01
	BYTE		N23     Bn3 
	BYTE	W24
	BYTE		N11     Bn3   v016
	BYTE	W12
	BYTE		N23     Bn3   v052
	BYTE	W24
	BYTE		N11     Bn3   v016
	BYTE	W12
	BYTE		N23     Bn3   v052
	BYTE	W12
// 099   ----------------------------------------
	BYTE	PATT
	 POIN2	CastlevaniaOrderofEcclesiaRhapsodyoftheForsaken_7_033
// 100   ----------------------------------------
	BYTE	W12
	BYTE		N80     Gn3   v052
	BYTE	W84
// 101   ----------------------------------------
	BYTE		N44     En3 
	BYTE	W24
	BYTE		        Gn3 
	BYTE	W72
// 102   ----------------------------------------
	BYTE		N92   
	BYTE	W96
// 103   ----------------------------------------
	BYTE		N44     En3 
	BYTE	W24
	BYTE		        Gn3 
	BYTE	W72
// 104   ----------------------------------------
	BYTE	PATT
	 POIN2	CastlevaniaOrderofEcclesiaRhapsodyoftheForsaken_7_038
// 105   ----------------------------------------
	BYTE	PATT
	 POIN2	CastlevaniaOrderofEcclesiaRhapsodyoftheForsaken_7_039
// 106   ----------------------------------------
	BYTE	PATT
	 POIN2	CastlevaniaOrderofEcclesiaRhapsodyoftheForsaken_7_040
// 107   ----------------------------------------
	BYTE	W96
// 108   ----------------------------------------
CastlevaniaOrderofEcclesiaRhapsodyoftheForsaken_7_108:
	BYTE	W12
	BYTE		N11     En5   v044
	BYTE	W24
	BYTE		N11   
	BYTE	W24
	BYTE		N11   
	BYTE	W24
	BYTE		N11   
	BYTE	W12
	BYTE	PEND
// 109   ----------------------------------------
	BYTE	PATT
	 POIN2	CastlevaniaOrderofEcclesiaRhapsodyoftheForsaken_7_108
// 110   ----------------------------------------
	BYTE	PATT
	 POIN2	CastlevaniaOrderofEcclesiaRhapsodyoftheForsaken_7_108
// 111   ----------------------------------------
	BYTE	PATT
	 POIN2	CastlevaniaOrderofEcclesiaRhapsodyoftheForsaken_7_108
// 112   ----------------------------------------
	BYTE	PATT
	 POIN2	CastlevaniaOrderofEcclesiaRhapsodyoftheForsaken_7_108
// 113   ----------------------------------------
	BYTE	PATT
	 POIN2	CastlevaniaOrderofEcclesiaRhapsodyoftheForsaken_7_108
// 114   ----------------------------------------
	BYTE	PATT
	 POIN2	CastlevaniaOrderofEcclesiaRhapsodyoftheForsaken_7_108
// 115   ----------------------------------------
	BYTE	W12
	BYTE		N10     En5   v044
	BYTE	W24
	BYTE		N10   
	BYTE	W24
	BYTE		N10   
	BYTE	W36
// 116   ----------------------------------------
	BYTE	PATT
	 POIN2	CastlevaniaOrderofEcclesiaRhapsodyoftheForsaken_7_050
// 117   ----------------------------------------
	BYTE	PATT
	 POIN2	CastlevaniaOrderofEcclesiaRhapsodyoftheForsaken_7_051
// 118   ----------------------------------------
	BYTE	W12
	BYTE		N68     Bn3   v056
	BYTE	W84
// 119   ----------------------------------------
	BYTE		N92   
	BYTE	W96
// 120   ----------------------------------------
	BYTE	PATT
	 POIN2	CastlevaniaOrderofEcclesiaRhapsodyoftheForsaken_7_050
// 121   ----------------------------------------
	BYTE	PATT
	 POIN2	CastlevaniaOrderofEcclesiaRhapsodyoftheForsaken_7_051
// 122   ----------------------------------------
	BYTE	W12
	BYTE		N68     Bn3   v056
	BYTE	W84
// 123   ----------------------------------------
	BYTE		N92   
	BYTE	W96
// 124   ----------------------------------------
	BYTE	PATT
	 POIN2	CastlevaniaOrderofEcclesiaRhapsodyoftheForsaken_7_002
// 125   ----------------------------------------
	BYTE	PATT
	 POIN2	CastlevaniaOrderofEcclesiaRhapsodyoftheForsaken_7_003
// 126   ----------------------------------------
	BYTE	PATT
	 POIN2	CastlevaniaOrderofEcclesiaRhapsodyoftheForsaken_7_056
// 127   ----------------------------------------
	BYTE	W96
// 128   ----------------------------------------
	BYTE	PATT
	 POIN2	CastlevaniaOrderofEcclesiaRhapsodyoftheForsaken_7_002
// 129   ----------------------------------------
	BYTE	PATT
	 POIN2	CastlevaniaOrderofEcclesiaRhapsodyoftheForsaken_7_003
// 130   ----------------------------------------
	BYTE		N10     An3   v020
	BYTE	W96
// 131   ----------------------------------------
	BYTE	W96
// 132   ----------------------------------------
	BYTE	W96
// 133   ----------------------------------------
	BYTE	W96
// 134   ----------------------------------------
	BYTE	PATT
	 POIN2	CastlevaniaOrderofEcclesiaRhapsodyoftheForsaken_7_064
// 135   ----------------------------------------
	BYTE	PATT
	 POIN2	CastlevaniaOrderofEcclesiaRhapsodyoftheForsaken_7_065
// 136   ----------------------------------------
	BYTE	PATT
	 POIN2	CastlevaniaOrderofEcclesiaRhapsodyoftheForsaken_7_066
// 137   ----------------------------------------
	BYTE	PATT
	 POIN2	CastlevaniaOrderofEcclesiaRhapsodyoftheForsaken_7_067
// 138   ----------------------------------------
	BYTE	W03
	BYTE	FINE

//**************** Track 8 (Midi-Chn.8) ****************//

CastlevaniaOrderofEcclesiaRhapsodyoftheForsaken_8:
	BYTE	KEYSH   CastlevaniaOrderofEcclesiaRhapsodyoftheForsaken_key+0
// 000   ----------------------------------------
	BYTE		VOICE   100
	BYTE		MODT    0
	BYTE		LFOS    44
	BYTE		MOD     0
	BYTE		VOL     116*CastlevaniaOrderofEcclesiaRhapsodyoftheForsaken_mvl/mxv
	BYTE		PAN     c_v+15
	BYTE		VOL     105*CastlevaniaOrderofEcclesiaRhapsodyoftheForsaken_mvl/mxv
	BYTE	W12
	BYTE		N10     Gn2   v060
	BYTE	W12
	BYTE		        An2 
	BYTE	W12
	BYTE		        Cn3 
	BYTE	W12
	BYTE		        Bn2 
	BYTE	W12
	BYTE		        En3 
	BYTE	W12
	BYTE		        Ds3 
	BYTE	W12
	BYTE		        Gn3 
	BYTE	W12
// 001   ----------------------------------------
	BYTE		        Fs3 
	BYTE	W12
	BYTE		        Cn4 
	BYTE	W12
	BYTE		        Bn3 
	BYTE	W12
	BYTE		        En4 
	BYTE	W12
	BYTE		        Ds4 
	BYTE	W12
	BYTE		        Gn4 
	BYTE	W12
	BYTE		        Fs4 
	BYTE	W12
	BYTE		        Cn5 
	BYTE	W12
// 002   ----------------------------------------
	BYTE		        Bn4 
	BYTE	W96
// 003   ----------------------------------------
	BYTE	W96
// 004   ----------------------------------------
	BYTE	W96
// 005   ----------------------------------------
	BYTE	W24
	BYTE		        An2 
	BYTE	W12
	BYTE		        Dn3 
	BYTE	W12
	BYTE		        En3 
	BYTE	W12
	BYTE		        Fs3 
	BYTE	W12
	BYTE		        An3 
	BYTE	W12
	BYTE		        Dn4 
	BYTE	W12
// 006   ----------------------------------------
	BYTE		        Fs4 
	BYTE	W12
	BYTE		        Gn4 
	BYTE	W84
// 007   ----------------------------------------
	BYTE	W96
// 008   ----------------------------------------
	BYTE	W96
// 009   ----------------------------------------
	BYTE	W24
	BYTE		        An4 
	BYTE	W12
	BYTE		        Gn4 
	BYTE	W12
	BYTE		        Fs4 
	BYTE	W12
	BYTE		        Dn4 
	BYTE	W12
	BYTE		        An3 
	BYTE	W12
	BYTE		        Gn3 
	BYTE	W12
// 010   ----------------------------------------
	BYTE		        Fs3 
	BYTE	W12
CastlevaniaOrderofEcclesiaRhapsodyoftheForsaken_8_B1:
	BYTE		PAN     c_v+15
	BYTE		VOL     105*CastlevaniaOrderofEcclesiaRhapsodyoftheForsaken_mvl/mxv
	BYTE	W84
// 011   ----------------------------------------
	BYTE	W96
// 012   ----------------------------------------
	BYTE	W96
// 013   ----------------------------------------
	BYTE	W96
// 014   ----------------------------------------
	BYTE	W96
// 015   ----------------------------------------
	BYTE	W96
// 016   ----------------------------------------
	BYTE	W96
// 017   ----------------------------------------
	BYTE	W96
// 018   ----------------------------------------
	BYTE	W96
// 019   ----------------------------------------
	BYTE	W96
// 020   ----------------------------------------
	BYTE	W96
// 021   ----------------------------------------
	BYTE	W96
// 022   ----------------------------------------
	BYTE	W96
// 023   ----------------------------------------
	BYTE	W96
// 024   ----------------------------------------
	BYTE	W12
	BYTE		PAN     c_v+10
	BYTE	W84
// 025   ----------------------------------------
	BYTE	W96
// 026   ----------------------------------------
CastlevaniaOrderofEcclesiaRhapsodyoftheForsaken_8_026:
	BYTE		N22     En3   v080
	BYTE	W24
	BYTE		N10     Fs3 
	BYTE	W12
	BYTE		        Gn3 
	BYTE	W12
	BYTE		N22     Fs3 
	BYTE	W24
	BYTE		        Gn3 
	BYTE	W24
	BYTE	PEND
// 027   ----------------------------------------
	BYTE		N36     En3 
	BYTE	W96
// 028   ----------------------------------------
	BYTE	PATT
	 POIN2	CastlevaniaOrderofEcclesiaRhapsodyoftheForsaken_8_026
// 029   ----------------------------------------
	BYTE		N40     En3   v080
	BYTE	W96
// 030   ----------------------------------------
	BYTE		N22   
	BYTE	W24
	BYTE		N10     Fn3 
	BYTE	W12
	BYTE		        Gn3 
	BYTE	W12
	BYTE		N22     Fn3 
	BYTE	W24
	BYTE		        Gn3 
	BYTE	W24
// 031   ----------------------------------------
	BYTE		        En3 
	BYTE	W24
	BYTE		N10     An2 
	BYTE	W12
	BYTE		        Cn3 
	BYTE	W12
	BYTE		        En3 
	BYTE	W12
	BYTE		        An3 
	BYTE	W12
	BYTE		        Cn4 
	BYTE	W12
	BYTE		        En4 
	BYTE	W12
// 032   ----------------------------------------
	BYTE		        An4 
	BYTE	W12
	BYTE		N32   
	BYTE	W36
	BYTE		        Bn4 
	BYTE	W36
	BYTE		        An4 
	BYTE	W12
// 033   ----------------------------------------
	BYTE	W24
	BYTE		N30     Gs4 
	BYTE	W72
// 034   ----------------------------------------
	BYTE	W12
	BYTE		N10     En3 
	BYTE	W12
	BYTE		        Fs3 
	BYTE	W12
	BYTE		        Gn3 
	BYTE	W12
	BYTE		N22     Fs3 
	BYTE	W24
	BYTE		N10     Gn3 
	BYTE	W12
	BYTE		N22     En3 
	BYTE	W12
// 035   ----------------------------------------
	BYTE	W96
// 036   ----------------------------------------
	BYTE		N22   
	BYTE	W24
	BYTE		N10     Fs3 
	BYTE	W12
	BYTE		        Gn3 
	BYTE	W12
	BYTE		N22     Fs3 
	BYTE	W24
	BYTE		N10     Gn3 
	BYTE	W12
	BYTE		N22     En3 
	BYTE	W12
// 037   ----------------------------------------
	BYTE	W60
	BYTE		N10   
	BYTE	W12
	BYTE		        Fs3 
	BYTE	W12
	BYTE		        Gn3 
	BYTE	W12
// 038   ----------------------------------------
	BYTE		        An3 
	BYTE	W12
	BYTE		N32     Bn3 
	BYTE	W36
	BYTE		N16     An3 
	BYTE	W36
	BYTE		N32     Bn3 
	BYTE	W12
// 039   ----------------------------------------
	BYTE	W24
	BYTE		N16     An3 
	BYTE	W36
	BYTE		N10     Dn4 
	BYTE	W24
	BYTE		        Cn4 
	BYTE	W12
// 040   ----------------------------------------
	BYTE	W12
	BYTE		N28     Bn3 
	BYTE	W36
	BYTE		N10   
	BYTE	W36
	BYTE		N16   
	BYTE	W12
// 041   ----------------------------------------
	BYTE	W84
	BYTE		VOL     90*CastlevaniaOrderofEcclesiaRhapsodyoftheForsaken_mvl/mxv
	BYTE		PAN     c_v+10
	BYTE		VOL     90*CastlevaniaOrderofEcclesiaRhapsodyoftheForsaken_mvl/mxv
	BYTE	W12
// 042   ----------------------------------------
	BYTE	W96
// 043   ----------------------------------------
	BYTE	W96
// 044   ----------------------------------------
	BYTE	W96
// 045   ----------------------------------------
	BYTE	W96
// 046   ----------------------------------------
	BYTE	W96
// 047   ----------------------------------------
	BYTE	W96
// 048   ----------------------------------------
	BYTE	W96
// 049   ----------------------------------------
	BYTE	W96
// 050   ----------------------------------------
	BYTE	W96
// 051   ----------------------------------------
	BYTE	W96
// 052   ----------------------------------------
	BYTE	W96
// 053   ----------------------------------------
	BYTE	W96
// 054   ----------------------------------------
	BYTE	W96
// 055   ----------------------------------------
	BYTE	W96
// 056   ----------------------------------------
	BYTE	W96
// 057   ----------------------------------------
CastlevaniaOrderofEcclesiaRhapsodyoftheForsaken_8_057:
	BYTE	W24
	BYTE		N10     An2   v076
	BYTE	W12
	BYTE		        Dn3 
	BYTE	W12
	BYTE		        En3 
	BYTE	W12
	BYTE		        Fs3 
	BYTE	W12
	BYTE		        An3 
	BYTE	W12
	BYTE		        Dn4 
	BYTE	W12
	BYTE	PEND
// 058   ----------------------------------------
	BYTE		        Fs4 
	BYTE	W12
	BYTE		N22     Gn4 
	BYTE	W84
// 059   ----------------------------------------
	BYTE	W96
// 060   ----------------------------------------
	BYTE	W48
	BYTE		N10     An2 
	BYTE	W12
	BYTE		        Bn2 
	BYTE	W12
	BYTE		        Cn3 
	BYTE	W12
	BYTE		        Dn3 
	BYTE	W12
// 061   ----------------------------------------
CastlevaniaOrderofEcclesiaRhapsodyoftheForsaken_8_061:
	BYTE		N10     En3   v076
	BYTE	W12
	BYTE		        Fs3 
	BYTE	W12
	BYTE		        Gn3 
	BYTE	W12
	BYTE		        An3 
	BYTE	W12
	BYTE		        Bn3 
	BYTE	W12
	BYTE		        Cn4 
	BYTE	W12
	BYTE		        Dn4 
	BYTE	W12
	BYTE		        En4 
	BYTE	W12
	BYTE	PEND
// 062   ----------------------------------------
	BYTE		        Gn4 
	BYTE	W12
	BYTE		N22     Fs4 
	BYTE	W36
	BYTE		N10     An2 
	BYTE	W12
	BYTE		        Bn2 
	BYTE	W12
	BYTE		        Cn3 
	BYTE	W12
	BYTE		        Dn3 
	BYTE	W12
// 063   ----------------------------------------
	BYTE	PATT
	 POIN2	CastlevaniaOrderofEcclesiaRhapsodyoftheForsaken_8_061
// 064   ----------------------------------------
	BYTE		N10     Fs4   v076
	BYTE	W96
// 065   ----------------------------------------
	BYTE	W96
// 066   ----------------------------------------
	BYTE	W96
// 067   ----------------------------------------
	BYTE	W96
// 068   ----------------------------------------
	BYTE	W96
// 069   ----------------------------------------
	BYTE	W96
// 070   ----------------------------------------
	BYTE	W96
// 071   ----------------------------------------
	BYTE	PATT
	 POIN2	CastlevaniaOrderofEcclesiaRhapsodyoftheForsaken_8_057
// 072   ----------------------------------------
	BYTE		N10     Fs4   v076
	BYTE	W12
	BYTE		N19     Gn4 
	BYTE	W84
// 073   ----------------------------------------
	BYTE	W96
// 074   ----------------------------------------
	BYTE	W96
// 075   ----------------------------------------
	BYTE	W24
	BYTE		N10     An4 
	BYTE	W12
	BYTE		        Gn4 
	BYTE	W12
	BYTE		        Fs4 
	BYTE	W12
	BYTE		        Dn4 
	BYTE	W12
	BYTE		        An3 
	BYTE	W12
	BYTE		        Gn3 
	BYTE	W12
// 076   ----------------------------------------
	BYTE		        Fs3 
	BYTE	W12
	BYTE	GoTo
	 POIN2	CastlevaniaOrderofEcclesiaRhapsodyoftheForsaken_8_B1
CastlevaniaOrderofEcclesiaRhapsodyoftheForsaken_8_B2:
	BYTE	W84
// 077   ----------------------------------------
	BYTE	W96
// 078   ----------------------------------------
	BYTE	W96
// 079   ----------------------------------------
	BYTE	W96
// 080   ----------------------------------------
	BYTE	W96
// 081   ----------------------------------------
	BYTE	W96
// 082   ----------------------------------------
	BYTE	W96
// 083   ----------------------------------------
	BYTE	W96
// 084   ----------------------------------------
	BYTE	W96
// 085   ----------------------------------------
	BYTE	W96
// 086   ----------------------------------------
	BYTE	W96
// 087   ----------------------------------------
	BYTE	W96
// 088   ----------------------------------------
	BYTE	W96
// 089   ----------------------------------------
	BYTE	W96
// 090   ----------------------------------------
	BYTE	W12
	BYTE		PAN     c_v+10
	BYTE	W84
// 091   ----------------------------------------
	BYTE	W96
// 092   ----------------------------------------
CastlevaniaOrderofEcclesiaRhapsodyoftheForsaken_8_092:
	BYTE		N22     En3   v064
	BYTE	W24
	BYTE		N10     Fs3 
	BYTE	W12
	BYTE		        Gn3 
	BYTE	W12
	BYTE		N22     Fs3 
	BYTE	W24
	BYTE		        Gn3 
	BYTE	W24
	BYTE	PEND
// 093   ----------------------------------------
	BYTE		N24     En3 
	BYTE	W96
// 094   ----------------------------------------
	BYTE	PATT
	 POIN2	CastlevaniaOrderofEcclesiaRhapsodyoftheForsaken_8_092
// 095   ----------------------------------------
	BYTE		N28     En3   v064
	BYTE	W96
// 096   ----------------------------------------
	BYTE		N22   
	BYTE	W24
	BYTE		N10     Fn3 
	BYTE	W12
	BYTE		        Gn3 
	BYTE	W12
	BYTE		N22     Fn3 
	BYTE	W24
	BYTE		        Gn3 
	BYTE	W24
// 097   ----------------------------------------
	BYTE		        En3 
	BYTE	W24
	BYTE		N10     An2 
	BYTE	W12
	BYTE		        Cn3 
	BYTE	W12
	BYTE		        En3 
	BYTE	W12
	BYTE		        An3 
	BYTE	W12
	BYTE		        Cn4 
	BYTE	W12
	BYTE		        En4 
	BYTE	W12
// 098   ----------------------------------------
	BYTE		        An4 
	BYTE	W12
	BYTE		N32   
	BYTE	W36
	BYTE		        Bn4 
	BYTE	W36
	BYTE		        An4 
	BYTE	W12
// 099   ----------------------------------------
	BYTE	W24
	BYTE		N30     Gs4 
	BYTE	W72
// 100   ----------------------------------------
	BYTE	W12
	BYTE		N10     En3 
	BYTE	W12
	BYTE		        Fs3 
	BYTE	W12
	BYTE		        Gn3 
	BYTE	W12
	BYTE		N22     Fs3 
	BYTE	W24
	BYTE		N10     Gn3 
	BYTE	W12
	BYTE		N28     En3 
	BYTE	W12
// 101   ----------------------------------------
	BYTE	W96
// 102   ----------------------------------------
	BYTE		N22   
	BYTE	W24
	BYTE		N10     Fs3 
	BYTE	W12
	BYTE		        Gn3 
	BYTE	W12
	BYTE		N22     Fs3 
	BYTE	W24
	BYTE		N10     Gn3 
	BYTE	W12
	BYTE		N28     En3 
	BYTE	W12
// 103   ----------------------------------------
	BYTE	W60
	BYTE		N10   
	BYTE	W12
	BYTE		        Fs3 
	BYTE	W12
	BYTE		        Gn3 
	BYTE	W12
// 104   ----------------------------------------
	BYTE		        An3 
	BYTE	W12
	BYTE		N32     Bn3 
	BYTE	W36
	BYTE		N16     An3 
	BYTE	W36
	BYTE		N32     Bn3 
	BYTE	W12
// 105   ----------------------------------------
	BYTE	W24
	BYTE		N16     An3 
	BYTE	W36
	BYTE		N10     Dn4 
	BYTE	W24
	BYTE		        Cn4 
	BYTE	W12
// 106   ----------------------------------------
	BYTE	W12
	BYTE		N28     Bn3 
	BYTE	W36
	BYTE		N10   
	BYTE	W36
	BYTE		N16   
	BYTE	W12
// 107   ----------------------------------------
	BYTE	W84
	BYTE		VOL     90*CastlevaniaOrderofEcclesiaRhapsodyoftheForsaken_mvl/mxv
	BYTE		PAN     c_v-20
	BYTE		VOL     90*CastlevaniaOrderofEcclesiaRhapsodyoftheForsaken_mvl/mxv
	BYTE	W12
// 108   ----------------------------------------
	BYTE	W96
// 109   ----------------------------------------
	BYTE	W96
// 110   ----------------------------------------
	BYTE	W96
// 111   ----------------------------------------
	BYTE	W96
// 112   ----------------------------------------
	BYTE	W96
// 113   ----------------------------------------
	BYTE	W96
// 114   ----------------------------------------
	BYTE	W96
// 115   ----------------------------------------
	BYTE	W96
// 116   ----------------------------------------
	BYTE	W96
// 117   ----------------------------------------
	BYTE	W96
// 118   ----------------------------------------
	BYTE	W96
// 119   ----------------------------------------
	BYTE	W96
// 120   ----------------------------------------
	BYTE	W96
// 121   ----------------------------------------
	BYTE	W96
// 122   ----------------------------------------
	BYTE	W96
// 123   ----------------------------------------
	BYTE	W96
// 124   ----------------------------------------
	BYTE	W96
// 125   ----------------------------------------
	BYTE	W96
// 126   ----------------------------------------
	BYTE	W96
// 127   ----------------------------------------
	BYTE	W24
	BYTE		N10     An2 
	BYTE	W12
	BYTE		        Dn3 
	BYTE	W12
	BYTE		        En3 
	BYTE	W12
	BYTE		        Fs3 
	BYTE	W12
	BYTE		        An3 
	BYTE	W12
	BYTE		        Dn4 
	BYTE	W12
// 128   ----------------------------------------
	BYTE		        Fs4 
	BYTE	W12
	BYTE		N32     Gn4 
	BYTE	W84
// 129   ----------------------------------------
	BYTE	W96
// 130   ----------------------------------------
	BYTE	W48
	BYTE		N10     An2 
	BYTE	W12
	BYTE		        Bn2 
	BYTE	W12
	BYTE		        Cn3 
	BYTE	W12
	BYTE		        Dn3 
	BYTE	W12
// 131   ----------------------------------------
CastlevaniaOrderofEcclesiaRhapsodyoftheForsaken_8_131:
	BYTE		N10     En3   v064
	BYTE	W12
	BYTE		        Fs3 
	BYTE	W12
	BYTE		        Gn3 
	BYTE	W12
	BYTE		        An3 
	BYTE	W12
	BYTE		        Bn3 
	BYTE	W12
	BYTE		        Cn4 
	BYTE	W12
	BYTE		        Dn4 
	BYTE	W12
	BYTE		        En4 
	BYTE	W12
	BYTE	PEND
// 132   ----------------------------------------
	BYTE		        Gn4 
	BYTE	W12
	BYTE		N32     Fs4 
	BYTE	W36
	BYTE		N10     An2 
	BYTE	W12
	BYTE		        Bn2 
	BYTE	W12
	BYTE		        Cn3 
	BYTE	W12
	BYTE		        Dn3 
	BYTE	W12
// 133   ----------------------------------------
	BYTE	PATT
	 POIN2	CastlevaniaOrderofEcclesiaRhapsodyoftheForsaken_8_131
// 134   ----------------------------------------
	BYTE		N10     Fs4   v064
	BYTE	W96
// 135   ----------------------------------------
	BYTE	W96
// 136   ----------------------------------------
	BYTE	W96
// 137   ----------------------------------------
	BYTE	W96
// 138   ----------------------------------------
	BYTE	W03
	BYTE	FINE

//**************** Track 9 (Midi-Chn.9) ****************//

CastlevaniaOrderofEcclesiaRhapsodyoftheForsaken_9:
	BYTE	KEYSH   CastlevaniaOrderofEcclesiaRhapsodyoftheForsaken_key+0
// 000   ----------------------------------------
	BYTE		VOICE   100
	BYTE		MODT    0
	BYTE		LFOS    44
	BYTE		VOL     116*CastlevaniaOrderofEcclesiaRhapsodyoftheForsaken_mvl/mxv
	BYTE		PAN     c_v-63
	BYTE		VOL     21*CastlevaniaOrderofEcclesiaRhapsodyoftheForsaken_mvl/mxv
	BYTE		BEND    c_v-2
	BYTE	W96
// 001   ----------------------------------------
	BYTE	W96
// 002   ----------------------------------------
	BYTE	W96
// 003   ----------------------------------------
	BYTE	W96
// 004   ----------------------------------------
	BYTE	W96
// 005   ----------------------------------------
	BYTE	W96
// 006   ----------------------------------------
	BYTE	W96
// 007   ----------------------------------------
	BYTE	W96
// 008   ----------------------------------------
	BYTE	W96
// 009   ----------------------------------------
	BYTE	W96
// 010   ----------------------------------------
	BYTE	W12
CastlevaniaOrderofEcclesiaRhapsodyoftheForsaken_9_B1:
	BYTE		VOL     21*CastlevaniaOrderofEcclesiaRhapsodyoftheForsaken_mvl/mxv
	BYTE	W84
// 011   ----------------------------------------
	BYTE	W96
// 012   ----------------------------------------
	BYTE	W96
// 013   ----------------------------------------
	BYTE	W96
// 014   ----------------------------------------
	BYTE	W96
// 015   ----------------------------------------
	BYTE	W96
// 016   ----------------------------------------
	BYTE	W96
// 017   ----------------------------------------
	BYTE	W96
// 018   ----------------------------------------
	BYTE	W96
// 019   ----------------------------------------
	BYTE	W96
// 020   ----------------------------------------
	BYTE	W96
// 021   ----------------------------------------
	BYTE	W96
// 022   ----------------------------------------
	BYTE	W96
// 023   ----------------------------------------
	BYTE	W96
// 024   ----------------------------------------
	BYTE	W96
// 025   ----------------------------------------
	BYTE	W96
// 026   ----------------------------------------
CastlevaniaOrderofEcclesiaRhapsodyoftheForsaken_9_026:
	BYTE	W24
	BYTE		N17     En3   v064
	BYTE	W24
	BYTE		N05     Fs3 
	BYTE	W12
	BYTE		        Gn3 
	BYTE	W12
	BYTE		N17     Fs3 
	BYTE	W24
	BYTE	PEND
// 027   ----------------------------------------
CastlevaniaOrderofEcclesiaRhapsodyoftheForsaken_9_027:
	BYTE		N17     Gn3   v064
	BYTE	W24
	BYTE		N32     En3 
	BYTE	W72
	BYTE	PEND
// 028   ----------------------------------------
	BYTE	PATT
	 POIN2	CastlevaniaOrderofEcclesiaRhapsodyoftheForsaken_9_026
// 029   ----------------------------------------
	BYTE	PATT
	 POIN2	CastlevaniaOrderofEcclesiaRhapsodyoftheForsaken_9_027
// 030   ----------------------------------------
CastlevaniaOrderofEcclesiaRhapsodyoftheForsaken_9_030:
	BYTE	W24
	BYTE		N17     En3   v064
	BYTE	W24
	BYTE		N05     Fn3 
	BYTE	W12
	BYTE		        Gn3 
	BYTE	W12
	BYTE		N17     Fn3 
	BYTE	W24
	BYTE	PEND
// 031   ----------------------------------------
CastlevaniaOrderofEcclesiaRhapsodyoftheForsaken_9_031:
	BYTE		N17     Gn3   v064
	BYTE	W24
	BYTE		        En3 
	BYTE	W24
	BYTE		N05     An2 
	BYTE	W12
	BYTE		        Cn3 
	BYTE	W12
	BYTE		        En3 
	BYTE	W12
	BYTE		        An3 
	BYTE	W12
	BYTE	PEND
// 032   ----------------------------------------
CastlevaniaOrderofEcclesiaRhapsodyoftheForsaken_9_032:
	BYTE		N05     Cn4   v064
	BYTE	W12
	BYTE		        En4 
	BYTE	W12
	BYTE		        An4 
	BYTE	W12
	BYTE		N28   
	BYTE	W36
	BYTE		        Bn4 
	BYTE	W24
	BYTE	PEND
// 033   ----------------------------------------
CastlevaniaOrderofEcclesiaRhapsodyoftheForsaken_9_033:
	BYTE	W12
	BYTE		N28     An4   v064
	BYTE	W36
	BYTE		N24     Gs4 
	BYTE	W48
	BYTE	PEND
// 034   ----------------------------------------
CastlevaniaOrderofEcclesiaRhapsodyoftheForsaken_9_034:
	BYTE	W36
	BYTE		N05     En3   v064
	BYTE	W12
	BYTE		        Fs3 
	BYTE	W12
	BYTE		        Gn3 
	BYTE	W12
	BYTE		N17     Fs3 
	BYTE	W24
	BYTE	PEND
// 035   ----------------------------------------
	BYTE		N05     Gn3 
	BYTE	W12
	BYTE		N17     En3 
	BYTE	W84
// 036   ----------------------------------------
	BYTE	PATT
	 POIN2	CastlevaniaOrderofEcclesiaRhapsodyoftheForsaken_9_026
// 037   ----------------------------------------
	BYTE		N05     Gn3   v064
	BYTE	W12
	BYTE		N17     En3 
	BYTE	W72
	BYTE		N05   
	BYTE	W12
// 038   ----------------------------------------
CastlevaniaOrderofEcclesiaRhapsodyoftheForsaken_9_038:
	BYTE		N05     Fs3   v064
	BYTE	W12
	BYTE		        Gn3 
	BYTE	W12
	BYTE		        An3 
	BYTE	W12
	BYTE		N28     Bn3 
	BYTE	W36
	BYTE		N11     An3 
	BYTE	W24
	BYTE	PEND
// 039   ----------------------------------------
CastlevaniaOrderofEcclesiaRhapsodyoftheForsaken_9_039:
	BYTE	W12
	BYTE		N28     Bn3   v064
	BYTE	W36
	BYTE		N11     An3 
	BYTE	W36
	BYTE		N05     Dn4 
	BYTE	W12
	BYTE	PEND
// 040   ----------------------------------------
CastlevaniaOrderofEcclesiaRhapsodyoftheForsaken_9_040:
	BYTE	W12
	BYTE		N05     Cn4   v064
	BYTE	W24
	BYTE		N23     Bn3 
	BYTE	W36
	BYTE		N05   
	BYTE	W24
	BYTE	PEND
// 041   ----------------------------------------
	BYTE	W12
	BYTE		VOL     18*CastlevaniaOrderofEcclesiaRhapsodyoftheForsaken_mvl/mxv
	BYTE		PAN     c_v-63
	BYTE		VOL     14*CastlevaniaOrderofEcclesiaRhapsodyoftheForsaken_mvl/mxv
	BYTE	W01
	BYTE		BEND    c_v-2
	BYTE	W80
	BYTE	W03
// 042   ----------------------------------------
	BYTE	W96
// 043   ----------------------------------------
	BYTE	W96
// 044   ----------------------------------------
	BYTE	W96
// 045   ----------------------------------------
	BYTE	W96
// 046   ----------------------------------------
	BYTE	W96
// 047   ----------------------------------------
	BYTE	W96
// 048   ----------------------------------------
	BYTE	W96
// 049   ----------------------------------------
	BYTE	W96
// 050   ----------------------------------------
	BYTE	W96
// 051   ----------------------------------------
	BYTE	W96
// 052   ----------------------------------------
	BYTE	W96
// 053   ----------------------------------------
	BYTE	W96
// 054   ----------------------------------------
	BYTE	W96
// 055   ----------------------------------------
	BYTE	W96
// 056   ----------------------------------------
	BYTE	W96
// 057   ----------------------------------------
	BYTE	W96
// 058   ----------------------------------------
	BYTE	W96
// 059   ----------------------------------------
	BYTE	W96
// 060   ----------------------------------------
	BYTE	W96
// 061   ----------------------------------------
	BYTE	W96
// 062   ----------------------------------------
	BYTE	W96
// 063   ----------------------------------------
	BYTE	W96
// 064   ----------------------------------------
	BYTE	W96
// 065   ----------------------------------------
	BYTE	W96
// 066   ----------------------------------------
	BYTE	W96
// 067   ----------------------------------------
	BYTE	W96
// 068   ----------------------------------------
	BYTE	W96
// 069   ----------------------------------------
	BYTE	W96
// 070   ----------------------------------------
	BYTE	W96
// 071   ----------------------------------------
	BYTE	W96
// 072   ----------------------------------------
	BYTE	W96
// 073   ----------------------------------------
	BYTE	W96
// 074   ----------------------------------------
	BYTE	W96
// 075   ----------------------------------------
	BYTE	W96
// 076   ----------------------------------------
	BYTE	W12
	BYTE	GoTo
	 POIN2	CastlevaniaOrderofEcclesiaRhapsodyoftheForsaken_9_B1
CastlevaniaOrderofEcclesiaRhapsodyoftheForsaken_9_B2:
	BYTE	W84
// 077   ----------------------------------------
	BYTE	W96
// 078   ----------------------------------------
	BYTE	W96
// 079   ----------------------------------------
	BYTE	W96
// 080   ----------------------------------------
	BYTE	W96
// 081   ----------------------------------------
	BYTE	W96
// 082   ----------------------------------------
	BYTE	W96
// 083   ----------------------------------------
	BYTE	W96
// 084   ----------------------------------------
	BYTE	W96
// 085   ----------------------------------------
	BYTE	W96
// 086   ----------------------------------------
	BYTE	W96
// 087   ----------------------------------------
	BYTE	W96
// 088   ----------------------------------------
	BYTE	W96
// 089   ----------------------------------------
	BYTE	W96
// 090   ----------------------------------------
	BYTE	W96
// 091   ----------------------------------------
	BYTE	W96
// 092   ----------------------------------------
	BYTE	PATT
	 POIN2	CastlevaniaOrderofEcclesiaRhapsodyoftheForsaken_9_026
// 093   ----------------------------------------
	BYTE		N17     Gn3   v064
	BYTE	W24
	BYTE		N21     En3 
	BYTE	W72
// 094   ----------------------------------------
	BYTE	PATT
	 POIN2	CastlevaniaOrderofEcclesiaRhapsodyoftheForsaken_9_026
// 095   ----------------------------------------
	BYTE		N17     Gn3   v064
	BYTE	W24
	BYTE		N23     En3 
	BYTE	W72
// 096   ----------------------------------------
	BYTE	PATT
	 POIN2	CastlevaniaOrderofEcclesiaRhapsodyoftheForsaken_9_030
// 097   ----------------------------------------
	BYTE	PATT
	 POIN2	CastlevaniaOrderofEcclesiaRhapsodyoftheForsaken_9_031
// 098   ----------------------------------------
	BYTE	PATT
	 POIN2	CastlevaniaOrderofEcclesiaRhapsodyoftheForsaken_9_032
// 099   ----------------------------------------
	BYTE	PATT
	 POIN2	CastlevaniaOrderofEcclesiaRhapsodyoftheForsaken_9_033
// 100   ----------------------------------------
	BYTE	PATT
	 POIN2	CastlevaniaOrderofEcclesiaRhapsodyoftheForsaken_9_034
// 101   ----------------------------------------
	BYTE		N05     Gn3   v064
	BYTE	W12
	BYTE		N23     En3 
	BYTE	W84
// 102   ----------------------------------------
	BYTE	PATT
	 POIN2	CastlevaniaOrderofEcclesiaRhapsodyoftheForsaken_9_026
// 103   ----------------------------------------
	BYTE		N05     Gn3   v064
	BYTE	W12
	BYTE		N23     En3 
	BYTE	W72
	BYTE		N05   
	BYTE	W12
// 104   ----------------------------------------
	BYTE	PATT
	 POIN2	CastlevaniaOrderofEcclesiaRhapsodyoftheForsaken_9_038
// 105   ----------------------------------------
	BYTE	PATT
	 POIN2	CastlevaniaOrderofEcclesiaRhapsodyoftheForsaken_9_039
// 106   ----------------------------------------
	BYTE	PATT
	 POIN2	CastlevaniaOrderofEcclesiaRhapsodyoftheForsaken_9_040
// 107   ----------------------------------------
	BYTE	W12
	BYTE		VOL     14*CastlevaniaOrderofEcclesiaRhapsodyoftheForsaken_mvl/mxv
	BYTE		PAN     c_v-63
	BYTE		VOL     14*CastlevaniaOrderofEcclesiaRhapsodyoftheForsaken_mvl/mxv
	BYTE	W01
	BYTE		BEND    c_v-2
	BYTE	W80
	BYTE	W03
// 108   ----------------------------------------
	BYTE	W96
// 109   ----------------------------------------
	BYTE	W96
// 110   ----------------------------------------
	BYTE	W96
// 111   ----------------------------------------
	BYTE	W96
// 112   ----------------------------------------
	BYTE	W96
// 113   ----------------------------------------
	BYTE	W96
// 114   ----------------------------------------
	BYTE	W96
// 115   ----------------------------------------
	BYTE	W96
// 116   ----------------------------------------
	BYTE	W96
// 117   ----------------------------------------
	BYTE	W96
// 118   ----------------------------------------
	BYTE	W96
// 119   ----------------------------------------
	BYTE	W96
// 120   ----------------------------------------
	BYTE	W96
// 121   ----------------------------------------
	BYTE	W96
// 122   ----------------------------------------
	BYTE	W96
// 123   ----------------------------------------
	BYTE	W96
// 124   ----------------------------------------
	BYTE	W96
// 125   ----------------------------------------
	BYTE	W96
// 126   ----------------------------------------
	BYTE	W96
// 127   ----------------------------------------
	BYTE	W96
// 128   ----------------------------------------
	BYTE	W96
// 129   ----------------------------------------
	BYTE	W96
// 130   ----------------------------------------
	BYTE	W96
// 131   ----------------------------------------
	BYTE	W96
// 132   ----------------------------------------
	BYTE	W96
// 133   ----------------------------------------
	BYTE	W96
// 134   ----------------------------------------
	BYTE	W96
// 135   ----------------------------------------
	BYTE	W96
// 136   ----------------------------------------
	BYTE	W96
// 137   ----------------------------------------
	BYTE	W96
// 138   ----------------------------------------
	BYTE	W03
	BYTE	FINE

//**************** Track 10 (Midi-Chn.11) ****************//

CastlevaniaOrderofEcclesiaRhapsodyoftheForsaken_10:
	BYTE	KEYSH   CastlevaniaOrderofEcclesiaRhapsodyoftheForsaken_key+0
// 000   ----------------------------------------
	BYTE		VOICE   61
	BYTE		MODT    0
	BYTE		LFOS    44
	BYTE		VOL     58*CastlevaniaOrderofEcclesiaRhapsodyoftheForsaken_mvl/mxv
	BYTE		PAN     c_v+8
	BYTE		VOL     58*CastlevaniaOrderofEcclesiaRhapsodyoftheForsaken_mvl/mxv
	BYTE		BEND    c_v-2
	BYTE	W12
	BYTE		TIE     Bn2   v092
	BYTE	W84
// 001   ----------------------------------------
	BYTE	W68
	BYTE	W01
	BYTE		EOT   
	BYTE	W03
	BYTE		N30     Bn2   v024
	BYTE	W24
// 002   ----------------------------------------
	BYTE	W12
	BYTE		TIE     En3   v092
	BYTE	W84
// 003   ----------------------------------------
	BYTE	W80
	BYTE	W02
	BYTE		EOT   
	BYTE	W02
	BYTE		N21     En3   v024
	BYTE	W12
// 004   ----------------------------------------
	BYTE	W12
	BYTE		N44     Cn3   v092
	BYTE	W48
	BYTE		N22     Cn3   v024
	BYTE	W24
	BYTE		N92     Dn3   v092
	BYTE	W12
// 005   ----------------------------------------
	BYTE	W84
	BYTE		N22     Dn3   v024
	BYTE	W12
// 006   ----------------------------------------
	BYTE	W12
	BYTE		TIE     En3   v092
	BYTE	W84
// 007   ----------------------------------------
	BYTE	W68
	BYTE		EOT   
	BYTE	W04
	BYTE		N32     En3   v024
	BYTE	W24
// 008   ----------------------------------------
	BYTE	W12
	BYTE		N56     Cn3   v092
	BYTE	W60
	BYTE		N10     Cn3   v024
	BYTE	W12
	BYTE		N80     Dn3   v092
	BYTE	W12
// 009   ----------------------------------------
	BYTE	W72
	BYTE		N32     Dn3   v024
	BYTE	W24
// 010   ----------------------------------------
	BYTE	W12
CastlevaniaOrderofEcclesiaRhapsodyoftheForsaken_10_B1:
	BYTE	W84
// 011   ----------------------------------------
	BYTE	W96
// 012   ----------------------------------------
	BYTE	W96
// 013   ----------------------------------------
	BYTE	W96
// 014   ----------------------------------------
	BYTE	W96
// 015   ----------------------------------------
	BYTE	W96
// 016   ----------------------------------------
	BYTE	W96
// 017   ----------------------------------------
	BYTE	W96
// 018   ----------------------------------------
	BYTE	W96
// 019   ----------------------------------------
	BYTE	W96
// 020   ----------------------------------------
	BYTE	W96
// 021   ----------------------------------------
	BYTE	W96
// 022   ----------------------------------------
	BYTE	W96
// 023   ----------------------------------------
	BYTE	W96
// 024   ----------------------------------------
	BYTE	W96
// 025   ----------------------------------------
	BYTE	W96
// 026   ----------------------------------------
	BYTE	W96
// 027   ----------------------------------------
	BYTE	W96
// 028   ----------------------------------------
	BYTE	W96
// 029   ----------------------------------------
	BYTE	W96
// 030   ----------------------------------------
	BYTE	W96
// 031   ----------------------------------------
	BYTE	W96
// 032   ----------------------------------------
	BYTE	W96
// 033   ----------------------------------------
	BYTE	W96
// 034   ----------------------------------------
	BYTE	W96
// 035   ----------------------------------------
	BYTE	W96
// 036   ----------------------------------------
	BYTE	W96
// 037   ----------------------------------------
	BYTE	W96
// 038   ----------------------------------------
	BYTE	W96
// 039   ----------------------------------------
	BYTE	W96
// 040   ----------------------------------------
	BYTE	W96
// 041   ----------------------------------------
	BYTE	W96
// 042   ----------------------------------------
	BYTE	W96
// 043   ----------------------------------------
	BYTE	W96
// 044   ----------------------------------------
	BYTE	W96
// 045   ----------------------------------------
	BYTE	W96
// 046   ----------------------------------------
	BYTE	W96
// 047   ----------------------------------------
	BYTE	W96
// 048   ----------------------------------------
	BYTE	W96
// 049   ----------------------------------------
	BYTE	W96
// 050   ----------------------------------------
	BYTE	W96
// 051   ----------------------------------------
	BYTE	W96
// 052   ----------------------------------------
	BYTE	W96
// 053   ----------------------------------------
	BYTE	W96
// 054   ----------------------------------------
	BYTE	W12
	BYTE		TIE     En3   v092
	BYTE	W84
// 055   ----------------------------------------
	BYTE	W68
	BYTE	W01
	BYTE		EOT   
	BYTE	W03
	BYTE		N32     En3   v024
	BYTE	W24
// 056   ----------------------------------------
	BYTE	W12
	BYTE		N56     En3   v092
	BYTE	W60
	BYTE		N10     En3   v024
	BYTE	W12
	BYTE		N80     Dn3   v092
	BYTE	W12
// 057   ----------------------------------------
	BYTE	W72
	BYTE		N32     Dn3   v024
	BYTE	W24
// 058   ----------------------------------------
	BYTE	W12
	BYTE		TIE     En3   v092
	BYTE	W84
// 059   ----------------------------------------
	BYTE	W68
	BYTE	W02
	BYTE		EOT   
	BYTE	W02
	BYTE		N32     En3   v024
	BYTE	W24
// 060   ----------------------------------------
	BYTE	W12
	BYTE		TIE     Cn3   v092
	BYTE	W84
// 061   ----------------------------------------
	BYTE	W72
	BYTE	W02
	BYTE		EOT   
	BYTE	W04
	BYTE		N24     Cn3   v024
	BYTE	W18
// 062   ----------------------------------------
	BYTE	W12
	BYTE		TIE     Dn3   v092
	BYTE	W84
// 063   ----------------------------------------
	BYTE	W68
	BYTE		EOT   
	BYTE	W04
	BYTE		N30     Dn3   v024
	BYTE	W24
// 064   ----------------------------------------
	BYTE	W96
// 065   ----------------------------------------
	BYTE	W96
// 066   ----------------------------------------
	BYTE	W96
// 067   ----------------------------------------
	BYTE	W96
// 068   ----------------------------------------
	BYTE	W12
	BYTE		TIE     En3   v072
	BYTE	W84
// 069   ----------------------------------------
	BYTE	W80
	BYTE	W02
	BYTE		EOT   
	BYTE	W02
	BYTE		N21     En3   v020
	BYTE	W12
// 070   ----------------------------------------
	BYTE	W12
	BYTE		N44     Cn3   v072
	BYTE	W48
	BYTE		N22     Cn3   v020
	BYTE	W24
	BYTE		N92     Dn3   v072
	BYTE	W12
// 071   ----------------------------------------
	BYTE	W84
	BYTE		N22     Dn3   v020
	BYTE	W12
// 072   ----------------------------------------
	BYTE	W12
	BYTE		TIE     En3   v072
	BYTE	W84
// 073   ----------------------------------------
	BYTE	W68
	BYTE		EOT   
	BYTE	W04
	BYTE		N32     En3   v020
	BYTE	W24
// 074   ----------------------------------------
	BYTE	W12
	BYTE		N56     Cn3   v072
	BYTE	W60
	BYTE		N10     Cn3   v020
	BYTE	W12
	BYTE		N80     Dn3   v072
	BYTE	W12
// 075   ----------------------------------------
	BYTE	W72
	BYTE		N32     Dn3   v020
	BYTE	W24
// 076   ----------------------------------------
	BYTE	W12
	BYTE	GoTo
	 POIN2	CastlevaniaOrderofEcclesiaRhapsodyoftheForsaken_10_B1
CastlevaniaOrderofEcclesiaRhapsodyoftheForsaken_10_B2:
	BYTE	W84
// 077   ----------------------------------------
	BYTE	W96
// 078   ----------------------------------------
	BYTE	W96
// 079   ----------------------------------------
	BYTE	W96
// 080   ----------------------------------------
	BYTE	W96
// 081   ----------------------------------------
	BYTE	W96
// 082   ----------------------------------------
	BYTE	W96
// 083   ----------------------------------------
	BYTE	W96
// 084   ----------------------------------------
	BYTE	W96
// 085   ----------------------------------------
	BYTE	W96
// 086   ----------------------------------------
	BYTE	W96
// 087   ----------------------------------------
	BYTE	W96
// 088   ----------------------------------------
	BYTE	W96
// 089   ----------------------------------------
	BYTE	W96
// 090   ----------------------------------------
	BYTE	W96
// 091   ----------------------------------------
	BYTE	W96
// 092   ----------------------------------------
	BYTE	W96
// 093   ----------------------------------------
	BYTE	W96
// 094   ----------------------------------------
	BYTE	W96
// 095   ----------------------------------------
	BYTE	W96
// 096   ----------------------------------------
	BYTE	W96
// 097   ----------------------------------------
	BYTE	W96
// 098   ----------------------------------------
	BYTE	W96
// 099   ----------------------------------------
	BYTE	W96
// 100   ----------------------------------------
	BYTE	W96
// 101   ----------------------------------------
	BYTE	W96
// 102   ----------------------------------------
	BYTE	W96
// 103   ----------------------------------------
	BYTE	W96
// 104   ----------------------------------------
	BYTE	W96
// 105   ----------------------------------------
	BYTE	W96
// 106   ----------------------------------------
	BYTE	W96
// 107   ----------------------------------------
	BYTE	W96
// 108   ----------------------------------------
	BYTE	W96
// 109   ----------------------------------------
	BYTE	W96
// 110   ----------------------------------------
	BYTE	W96
// 111   ----------------------------------------
	BYTE	W96
// 112   ----------------------------------------
	BYTE	W96
// 113   ----------------------------------------
	BYTE	W96
// 114   ----------------------------------------
	BYTE	W96
// 115   ----------------------------------------
	BYTE	W96
// 116   ----------------------------------------
	BYTE	W96
// 117   ----------------------------------------
	BYTE	W96
// 118   ----------------------------------------
	BYTE	W96
// 119   ----------------------------------------
	BYTE	W96
// 120   ----------------------------------------
	BYTE	W96
// 121   ----------------------------------------
	BYTE	W96
// 122   ----------------------------------------
	BYTE	W96
// 123   ----------------------------------------
	BYTE	W96
// 124   ----------------------------------------
	BYTE	W12
	BYTE		TIE     En3   v072
	BYTE	W84
// 125   ----------------------------------------
	BYTE	W68
	BYTE	W01
	BYTE		EOT   
	BYTE	W03
	BYTE		N32     En3   v020
	BYTE	W24
// 126   ----------------------------------------
	BYTE	W12
	BYTE		N56     En3   v072
	BYTE	W60
	BYTE		N10     En3   v020
	BYTE	W12
	BYTE		N80     Dn3   v072
	BYTE	W12
// 127   ----------------------------------------
	BYTE	W72
	BYTE		N32     Dn3   v020
	BYTE	W24
// 128   ----------------------------------------
	BYTE	W12
	BYTE		TIE     En3   v072
	BYTE	W84
// 129   ----------------------------------------
	BYTE	W68
	BYTE	W02
	BYTE		EOT   
	BYTE	W02
	BYTE		N32     En3   v020
	BYTE	W24
// 130   ----------------------------------------
	BYTE	W12
	BYTE		TIE     Cn3   v072
	BYTE	W84
// 131   ----------------------------------------
	BYTE	W72
	BYTE	W02
	BYTE		EOT   
	BYTE	W04
	BYTE		N24     Cn3   v020
	BYTE	W18
// 132   ----------------------------------------
	BYTE	W12
	BYTE		TIE     Dn3   v072
	BYTE	W84
// 133   ----------------------------------------
	BYTE	W68
	BYTE		EOT   
	BYTE	W04
	BYTE		N30     Dn3   v020
	BYTE	W24
// 134   ----------------------------------------
	BYTE	W96
// 135   ----------------------------------------
	BYTE	W96
// 136   ----------------------------------------
	BYTE	W96
// 137   ----------------------------------------
	BYTE	W96
// 138   ----------------------------------------
	BYTE	W03
	BYTE	FINE

//**************** Track 11 (Midi-Chn.12) ****************//

CastlevaniaOrderofEcclesiaRhapsodyoftheForsaken_11:
	BYTE	KEYSH   CastlevaniaOrderofEcclesiaRhapsodyoftheForsaken_key+0
// 000   ----------------------------------------
	BYTE		VOICE   57
	BYTE		MODT    0
	BYTE		LFOS    44
	BYTE		PAN     c_v-8
	BYTE		VOL     108*CastlevaniaOrderofEcclesiaRhapsodyoftheForsaken_mvl/mxv
	BYTE	W12
	BYTE		TIE     Bn2   v044
	BYTE	W84
// 001   ----------------------------------------
	BYTE	W80
	BYTE	W02
	BYTE		EOT   
	BYTE	W02
	BYTE		N23     Bn2   v016
	BYTE	W12
// 002   ----------------------------------------
	BYTE	W96
// 003   ----------------------------------------
	BYTE	W96
// 004   ----------------------------------------
	BYTE	W96
// 005   ----------------------------------------
	BYTE	W96
// 006   ----------------------------------------
	BYTE	W96
// 007   ----------------------------------------
	BYTE	W96
// 008   ----------------------------------------
	BYTE	W96
// 009   ----------------------------------------
	BYTE	W96
// 010   ----------------------------------------
	BYTE	W12
CastlevaniaOrderofEcclesiaRhapsodyoftheForsaken_11_B1:
	BYTE		TIE     En2   v056
	BYTE	W84
// 011   ----------------------------------------
	BYTE	W96
// 012   ----------------------------------------
	BYTE	W80
	BYTE	W02
	BYTE		EOT   
	BYTE	W02
	BYTE		N21     En2   v016
	BYTE	W12
// 013   ----------------------------------------
CastlevaniaOrderofEcclesiaRhapsodyoftheForsaken_11_013:
	BYTE	W12
	BYTE		N68     Bn2   v056
	BYTE	W72
	BYTE		N22     Bn2   v016
	BYTE	W12
	BYTE	PEND
// 014   ----------------------------------------
CastlevaniaOrderofEcclesiaRhapsodyoftheForsaken_11_014:
	BYTE	W12
	BYTE		N68     En2   v056
	BYTE	W72
	BYTE		N22     En2   v016
	BYTE	W12
	BYTE	PEND
// 015   ----------------------------------------
	BYTE	W12
	BYTE		N80     Dn2   v056
	BYTE	W84
// 016   ----------------------------------------
CastlevaniaOrderofEcclesiaRhapsodyoftheForsaken_11_016:
	BYTE		N10     Dn2   v016
	BYTE	W12
	BYTE		N80     En2   v056
	BYTE	W84
	BYTE	PEND
// 017   ----------------------------------------
CastlevaniaOrderofEcclesiaRhapsodyoftheForsaken_11_017:
	BYTE		N11     En2   v016
	BYTE	W12
	BYTE		N32     Cn2   v056
	BYTE	W36
	BYTE		N10     Cn2   v016
	BYTE	W12
	BYTE		N32     Dn2   v056
	BYTE	W36
	BYTE	PEND
// 018   ----------------------------------------
CastlevaniaOrderofEcclesiaRhapsodyoftheForsaken_11_018:
	BYTE		N10     Dn2   v016
	BYTE	W12
	BYTE		TIE     En2   v056
	BYTE	W84
	BYTE	PEND
// 019   ----------------------------------------
	BYTE	W32
	BYTE	W02
	BYTE		EOT   
	BYTE	W02
	BYTE		N23     En2   v016
	BYTE	W24
	BYTE		N32     Bn2   v056
	BYTE	W36
// 020   ----------------------------------------
CastlevaniaOrderofEcclesiaRhapsodyoftheForsaken_11_020:
	BYTE		N10     Bn2   v016
	BYTE	W12
	BYTE		TIE     En3   v056
	BYTE	W84
	BYTE	PEND
// 021   ----------------------------------------
	BYTE	W32
	BYTE	W02
	BYTE		EOT   
	BYTE	W02
	BYTE		N22     En3   v016
	BYTE	W24
	BYTE		N32     Bn2   v056
	BYTE	W36
// 022   ----------------------------------------
CastlevaniaOrderofEcclesiaRhapsodyoftheForsaken_11_022:
	BYTE		N11     Bn2   v016
	BYTE	W12
	BYTE		N80     En2   v056
	BYTE	W84
	BYTE	PEND
// 023   ----------------------------------------
CastlevaniaOrderofEcclesiaRhapsodyoftheForsaken_11_023:
	BYTE		N09     En2   v016
	BYTE	W12
	BYTE		N80     Dn2   v056
	BYTE	W84
	BYTE	PEND
// 024   ----------------------------------------
	BYTE	PATT
	 POIN2	CastlevaniaOrderofEcclesiaRhapsodyoftheForsaken_11_018
// 025   ----------------------------------------
	BYTE	W68
	BYTE	W02
	BYTE		EOT     En2 
	BYTE	W02
	BYTE		N32     En2   v016
	BYTE	W24
// 026   ----------------------------------------
	BYTE	W96
// 027   ----------------------------------------
	BYTE	W96
// 028   ----------------------------------------
	BYTE	W96
// 029   ----------------------------------------
	BYTE	W96
// 030   ----------------------------------------
	BYTE	W96
// 031   ----------------------------------------
	BYTE	W96
// 032   ----------------------------------------
	BYTE	W96
// 033   ----------------------------------------
	BYTE	W96
// 034   ----------------------------------------
	BYTE	W96
// 035   ----------------------------------------
	BYTE	W96
// 036   ----------------------------------------
	BYTE	W96
// 037   ----------------------------------------
	BYTE	W96
// 038   ----------------------------------------
	BYTE	W96
// 039   ----------------------------------------
	BYTE	W96
// 040   ----------------------------------------
	BYTE	W96
// 041   ----------------------------------------
	BYTE	W96
// 042   ----------------------------------------
CastlevaniaOrderofEcclesiaRhapsodyoftheForsaken_11_042:
	BYTE	W12
	BYTE		TIE     En2   v056
	BYTE	W84
	BYTE	PEND
// 043   ----------------------------------------
	BYTE	W96
// 044   ----------------------------------------
	BYTE	W96
// 045   ----------------------------------------
	BYTE	W36
	BYTE	W02
	BYTE		EOT   
	BYTE	W04
	BYTE		N56     En2   v016
	BYTE	W54
// 046   ----------------------------------------
	BYTE	PATT
	 POIN2	CastlevaniaOrderofEcclesiaRhapsodyoftheForsaken_11_042
// 047   ----------------------------------------
	BYTE	W96
// 048   ----------------------------------------
	BYTE	W96
// 049   ----------------------------------------
	BYTE	W36
	BYTE	W01
	BYTE		EOT     En2 
	BYTE	W05
	BYTE		N52     En2   v016
	BYTE	W54
// 050   ----------------------------------------
CastlevaniaOrderofEcclesiaRhapsodyoftheForsaken_11_050:
	BYTE		N68     En2   v056
	BYTE	W72
	BYTE		N21     En2   v016
	BYTE	W24
	BYTE	PEND
// 051   ----------------------------------------
CastlevaniaOrderofEcclesiaRhapsodyoftheForsaken_11_051:
	BYTE		N84     Fs2   v056
	BYTE	W90
	BYTE		N15     Fs2   v016
	BYTE	W06
	BYTE	PEND
// 052   ----------------------------------------
CastlevaniaOrderofEcclesiaRhapsodyoftheForsaken_11_052:
	BYTE	W12
	BYTE		TIE     Bn2   v056
	BYTE	W84
	BYTE	PEND
// 053   ----------------------------------------
	BYTE	W68
	BYTE	W01
	BYTE		EOT   
	BYTE	W03
	BYTE		N28     Bn2   v016
	BYTE	W24
// 054   ----------------------------------------
	BYTE	W96
// 055   ----------------------------------------
	BYTE	W96
// 056   ----------------------------------------
	BYTE	W96
// 057   ----------------------------------------
	BYTE	W96
// 058   ----------------------------------------
	BYTE	W96
// 059   ----------------------------------------
	BYTE	W96
// 060   ----------------------------------------
	BYTE	W96
// 061   ----------------------------------------
	BYTE	W96
// 062   ----------------------------------------
	BYTE	W96
// 063   ----------------------------------------
	BYTE	W96
// 064   ----------------------------------------
	BYTE	W96
// 065   ----------------------------------------
	BYTE	W96
// 066   ----------------------------------------
	BYTE	W96
// 067   ----------------------------------------
	BYTE	W96
// 068   ----------------------------------------
	BYTE	W96
// 069   ----------------------------------------
	BYTE	W96
// 070   ----------------------------------------
	BYTE	W96
// 071   ----------------------------------------
	BYTE	W96
// 072   ----------------------------------------
	BYTE	W96
// 073   ----------------------------------------
	BYTE	W96
// 074   ----------------------------------------
	BYTE	W96
// 075   ----------------------------------------
	BYTE	W96
// 076   ----------------------------------------
	BYTE	W12
	BYTE	GoTo
	 POIN2	CastlevaniaOrderofEcclesiaRhapsodyoftheForsaken_11_B1
CastlevaniaOrderofEcclesiaRhapsodyoftheForsaken_11_B2:
	BYTE		TIE     En2   v056
	BYTE	W84
// 077   ----------------------------------------
	BYTE	W96
// 078   ----------------------------------------
	BYTE	W80
	BYTE	W02
	BYTE		EOT   
	BYTE	W02
	BYTE		N21     En2   v016
	BYTE	W12
// 079   ----------------------------------------
	BYTE	PATT
	 POIN2	CastlevaniaOrderofEcclesiaRhapsodyoftheForsaken_11_013
// 080   ----------------------------------------
	BYTE	PATT
	 POIN2	CastlevaniaOrderofEcclesiaRhapsodyoftheForsaken_11_014
// 081   ----------------------------------------
	BYTE	W12
	BYTE		N80     Dn2   v056
	BYTE	W84
// 082   ----------------------------------------
	BYTE	PATT
	 POIN2	CastlevaniaOrderofEcclesiaRhapsodyoftheForsaken_11_016
// 083   ----------------------------------------
	BYTE	PATT
	 POIN2	CastlevaniaOrderofEcclesiaRhapsodyoftheForsaken_11_017
// 084   ----------------------------------------
	BYTE	PATT
	 POIN2	CastlevaniaOrderofEcclesiaRhapsodyoftheForsaken_11_018
// 085   ----------------------------------------
	BYTE	W32
	BYTE	W02
	BYTE		EOT     En2 
	BYTE	W02
	BYTE		N23     En2   v016
	BYTE	W24
	BYTE		N32     Bn2   v056
	BYTE	W36
// 086   ----------------------------------------
	BYTE	PATT
	 POIN2	CastlevaniaOrderofEcclesiaRhapsodyoftheForsaken_11_020
// 087   ----------------------------------------
	BYTE	W32
	BYTE	W02
	BYTE		EOT     En3 
	BYTE	W02
	BYTE		N22     En3   v016
	BYTE	W24
	BYTE		N32     Bn2   v056
	BYTE	W36
// 088   ----------------------------------------
	BYTE	PATT
	 POIN2	CastlevaniaOrderofEcclesiaRhapsodyoftheForsaken_11_022
// 089   ----------------------------------------
	BYTE	PATT
	 POIN2	CastlevaniaOrderofEcclesiaRhapsodyoftheForsaken_11_023
// 090   ----------------------------------------
	BYTE	PATT
	 POIN2	CastlevaniaOrderofEcclesiaRhapsodyoftheForsaken_11_018
// 091   ----------------------------------------
	BYTE	W68
	BYTE	W02
	BYTE		EOT     En2 
	BYTE	W02
	BYTE		N32     En2   v016
	BYTE	W24
// 092   ----------------------------------------
	BYTE	W96
// 093   ----------------------------------------
	BYTE	W96
// 094   ----------------------------------------
	BYTE	W96
// 095   ----------------------------------------
	BYTE	W96
// 096   ----------------------------------------
	BYTE	W96
// 097   ----------------------------------------
	BYTE	W96
// 098   ----------------------------------------
	BYTE	W96
// 099   ----------------------------------------
	BYTE	W96
// 100   ----------------------------------------
	BYTE	W96
// 101   ----------------------------------------
	BYTE	W96
// 102   ----------------------------------------
	BYTE	W96
// 103   ----------------------------------------
	BYTE	W96
// 104   ----------------------------------------
	BYTE	W96
// 105   ----------------------------------------
	BYTE	W96
// 106   ----------------------------------------
	BYTE	W96
// 107   ----------------------------------------
	BYTE	W96
// 108   ----------------------------------------
	BYTE	PATT
	 POIN2	CastlevaniaOrderofEcclesiaRhapsodyoftheForsaken_11_042
// 109   ----------------------------------------
	BYTE	W96
// 110   ----------------------------------------
	BYTE	W96
// 111   ----------------------------------------
	BYTE	W36
	BYTE	W02
	BYTE		EOT     En2 
	BYTE	W04
	BYTE		N56     En2   v016
	BYTE	W54
// 112   ----------------------------------------
	BYTE	PATT
	 POIN2	CastlevaniaOrderofEcclesiaRhapsodyoftheForsaken_11_042
// 113   ----------------------------------------
	BYTE	W96
// 114   ----------------------------------------
	BYTE	W96
// 115   ----------------------------------------
	BYTE	W36
	BYTE	W01
	BYTE		EOT     En2 
	BYTE	W05
	BYTE		N48     En2   v016
	BYTE	W54
// 116   ----------------------------------------
	BYTE	PATT
	 POIN2	CastlevaniaOrderofEcclesiaRhapsodyoftheForsaken_11_050
// 117   ----------------------------------------
	BYTE	PATT
	 POIN2	CastlevaniaOrderofEcclesiaRhapsodyoftheForsaken_11_051
// 118   ----------------------------------------
	BYTE	PATT
	 POIN2	CastlevaniaOrderofEcclesiaRhapsodyoftheForsaken_11_052
// 119   ----------------------------------------
	BYTE	W68
	BYTE	W01
	BYTE		EOT     Bn2 
	BYTE	W03
	BYTE		N22     Bn2   v016
	BYTE	W24
// 120   ----------------------------------------
	BYTE		N80     En2   v056
	BYTE	W84
	BYTE		N10     En2   v016
	BYTE	W12
// 121   ----------------------------------------
	BYTE		N92     Fs2   v056
	BYTE	W96
// 122   ----------------------------------------
	BYTE		N10     Fs2   v016
	BYTE	W12
	BYTE		TIE     Bn2   v056
	BYTE	W84
// 123   ----------------------------------------
	BYTE	W68
	BYTE	W02
	BYTE		EOT   
	BYTE	W02
	BYTE		N32     Bn2   v016
	BYTE	W24
// 124   ----------------------------------------
	BYTE	W96
// 125   ----------------------------------------
	BYTE	W96
// 126   ----------------------------------------
	BYTE	W96
// 127   ----------------------------------------
	BYTE	W96
// 128   ----------------------------------------
	BYTE	W96
// 129   ----------------------------------------
	BYTE	W96
// 130   ----------------------------------------
	BYTE	W96
// 131   ----------------------------------------
	BYTE	W96
// 132   ----------------------------------------
	BYTE	W96
// 133   ----------------------------------------
	BYTE	W96
// 134   ----------------------------------------
	BYTE	W96
// 135   ----------------------------------------
	BYTE	W96
// 136   ----------------------------------------
	BYTE	W96
// 137   ----------------------------------------
	BYTE	W96
// 138   ----------------------------------------
	BYTE	W03
	BYTE	FINE

//**************** Track 12 (Midi-Chn.13) ****************//

CastlevaniaOrderofEcclesiaRhapsodyoftheForsaken_12:
	BYTE	KEYSH   CastlevaniaOrderofEcclesiaRhapsodyoftheForsaken_key+0
// 000   ----------------------------------------
	BYTE		VOICE   68
	BYTE		MODT    0
	BYTE		LFOS    44
	BYTE		PAN     c_v+18
	BYTE		VOL     84*CastlevaniaOrderofEcclesiaRhapsodyoftheForsaken_mvl/mxv
	BYTE	W12
	BYTE		N11     Gn2   v052
	BYTE	W12
	BYTE		        An2 
	BYTE	W12
	BYTE		        Cn3 
	BYTE	W12
	BYTE		        Bn2 
	BYTE	W12
	BYTE		        En3 
	BYTE	W12
	BYTE		        Ds3 
	BYTE	W12
	BYTE		        Gn3 
	BYTE	W12
// 001   ----------------------------------------
	BYTE		        Fs3 
	BYTE	W12
	BYTE		        Cn4 
	BYTE	W12
	BYTE		        Bn3 
	BYTE	W12
	BYTE		        En4 
	BYTE	W12
	BYTE		        Ds4 
	BYTE	W12
	BYTE		        Gn4 
	BYTE	W12
	BYTE		        Fs4 
	BYTE	W12
	BYTE		        Cn5 
	BYTE	W12
// 002   ----------------------------------------
	BYTE		        Bn4 
	BYTE	W96
// 003   ----------------------------------------
	BYTE	W96
// 004   ----------------------------------------
	BYTE	W96
// 005   ----------------------------------------
CastlevaniaOrderofEcclesiaRhapsodyoftheForsaken_12_005:
	BYTE	W24
	BYTE		N11     An2   v052
	BYTE	W12
	BYTE		        Dn3 
	BYTE	W12
	BYTE		        En3 
	BYTE	W12
	BYTE		        Fs3 
	BYTE	W12
	BYTE		        An3 
	BYTE	W12
	BYTE		        Dn4 
	BYTE	W12
	BYTE	PEND
// 006   ----------------------------------------
CastlevaniaOrderofEcclesiaRhapsodyoftheForsaken_12_006:
	BYTE		N11     Fs4   v052
	BYTE	W12
	BYTE		TIE     Gn4 
	BYTE	W66
	BYTE		VOL     97*CastlevaniaOrderofEcclesiaRhapsodyoftheForsaken_mvl/mxv
	BYTE	W06
	BYTE		        95*CastlevaniaOrderofEcclesiaRhapsodyoftheForsaken_mvl/mxv
	BYTE	W06
	BYTE		        94*CastlevaniaOrderofEcclesiaRhapsodyoftheForsaken_mvl/mxv
	BYTE	W06
	BYTE	PEND
// 007   ----------------------------------------
CastlevaniaOrderofEcclesiaRhapsodyoftheForsaken_12_007:
	BYTE		VOL     92*CastlevaniaOrderofEcclesiaRhapsodyoftheForsaken_mvl/mxv
	BYTE	W06
	BYTE		        92*CastlevaniaOrderofEcclesiaRhapsodyoftheForsaken_mvl/mxv
	BYTE	W06
	BYTE		        91*CastlevaniaOrderofEcclesiaRhapsodyoftheForsaken_mvl/mxv
	BYTE	W06
	BYTE		        90*CastlevaniaOrderofEcclesiaRhapsodyoftheForsaken_mvl/mxv
	BYTE	W06
	BYTE		        88*CastlevaniaOrderofEcclesiaRhapsodyoftheForsaken_mvl/mxv
	BYTE	W06
	BYTE		        87*CastlevaniaOrderofEcclesiaRhapsodyoftheForsaken_mvl/mxv
	BYTE	W06
	BYTE		        85*CastlevaniaOrderofEcclesiaRhapsodyoftheForsaken_mvl/mxv
	BYTE	W06
	BYTE		        82*CastlevaniaOrderofEcclesiaRhapsodyoftheForsaken_mvl/mxv
	BYTE	W06
	BYTE		        81*CastlevaniaOrderofEcclesiaRhapsodyoftheForsaken_mvl/mxv
	BYTE	W06
	BYTE		        80*CastlevaniaOrderofEcclesiaRhapsodyoftheForsaken_mvl/mxv
	BYTE	W06
	BYTE		        78*CastlevaniaOrderofEcclesiaRhapsodyoftheForsaken_mvl/mxv
	BYTE	W06
	BYTE		        78*CastlevaniaOrderofEcclesiaRhapsodyoftheForsaken_mvl/mxv
	BYTE	W06
	BYTE		        77*CastlevaniaOrderofEcclesiaRhapsodyoftheForsaken_mvl/mxv
	BYTE	W06
	BYTE		        76*CastlevaniaOrderofEcclesiaRhapsodyoftheForsaken_mvl/mxv
	BYTE	W06
	BYTE		        74*CastlevaniaOrderofEcclesiaRhapsodyoftheForsaken_mvl/mxv
	BYTE	W06
	BYTE		        73*CastlevaniaOrderofEcclesiaRhapsodyoftheForsaken_mvl/mxv
	BYTE	W06
	BYTE	PEND
// 008   ----------------------------------------
CastlevaniaOrderofEcclesiaRhapsodyoftheForsaken_12_008:
	BYTE		VOL     72*CastlevaniaOrderofEcclesiaRhapsodyoftheForsaken_mvl/mxv
	BYTE	W06
	BYTE		        70*CastlevaniaOrderofEcclesiaRhapsodyoftheForsaken_mvl/mxv
	BYTE	W06
	BYTE		        68*CastlevaniaOrderofEcclesiaRhapsodyoftheForsaken_mvl/mxv
	BYTE	W06
	BYTE		        66*CastlevaniaOrderofEcclesiaRhapsodyoftheForsaken_mvl/mxv
	BYTE	W06
	BYTE		        66*CastlevaniaOrderofEcclesiaRhapsodyoftheForsaken_mvl/mxv
	BYTE	W06
	BYTE		        65*CastlevaniaOrderofEcclesiaRhapsodyoftheForsaken_mvl/mxv
	BYTE	W06
	BYTE		        64*CastlevaniaOrderofEcclesiaRhapsodyoftheForsaken_mvl/mxv
	BYTE	W06
	BYTE		        63*CastlevaniaOrderofEcclesiaRhapsodyoftheForsaken_mvl/mxv
	BYTE	W06
	BYTE		        61*CastlevaniaOrderofEcclesiaRhapsodyoftheForsaken_mvl/mxv
	BYTE	W06
	BYTE		        60*CastlevaniaOrderofEcclesiaRhapsodyoftheForsaken_mvl/mxv
	BYTE	W06
	BYTE		        59*CastlevaniaOrderofEcclesiaRhapsodyoftheForsaken_mvl/mxv
	BYTE	W06
	BYTE		        58*CastlevaniaOrderofEcclesiaRhapsodyoftheForsaken_mvl/mxv
	BYTE	W06
	BYTE		        56*CastlevaniaOrderofEcclesiaRhapsodyoftheForsaken_mvl/mxv
	BYTE	W06
	BYTE		        54*CastlevaniaOrderofEcclesiaRhapsodyoftheForsaken_mvl/mxv
	BYTE	W18
	BYTE	PEND
// 009   ----------------------------------------
	BYTE	W08
	BYTE		EOT     Gn4 
	BYTE	W03
	BYTE		VOL     97*CastlevaniaOrderofEcclesiaRhapsodyoftheForsaken_mvl/mxv
	BYTE	W13
	BYTE		N11     An4   v052
	BYTE	W12
	BYTE		        Gn4 
	BYTE	W12
	BYTE		        Fs4 
	BYTE	W12
	BYTE		        Dn4 
	BYTE	W12
	BYTE		        An3 
	BYTE	W12
	BYTE		        Gn3 
	BYTE	W12
// 010   ----------------------------------------
	BYTE		        Fs3 
	BYTE	W12
CastlevaniaOrderofEcclesiaRhapsodyoftheForsaken_12_B1:
	BYTE	W84
// 011   ----------------------------------------
	BYTE	W96
// 012   ----------------------------------------
	BYTE	W96
// 013   ----------------------------------------
	BYTE	W96
// 014   ----------------------------------------
	BYTE	W96
// 015   ----------------------------------------
	BYTE	W96
// 016   ----------------------------------------
	BYTE	W96
// 017   ----------------------------------------
	BYTE	W96
// 018   ----------------------------------------
	BYTE	W96
// 019   ----------------------------------------
	BYTE	W96
// 020   ----------------------------------------
	BYTE	W96
// 021   ----------------------------------------
	BYTE	W96
// 022   ----------------------------------------
	BYTE	W96
// 023   ----------------------------------------
	BYTE	W96
// 024   ----------------------------------------
	BYTE	W96
// 025   ----------------------------------------
	BYTE	W96
// 026   ----------------------------------------
	BYTE	W96
// 027   ----------------------------------------
	BYTE	W96
// 028   ----------------------------------------
	BYTE	W96
// 029   ----------------------------------------
	BYTE	W96
// 030   ----------------------------------------
	BYTE	W96
// 031   ----------------------------------------
	BYTE	W96
// 032   ----------------------------------------
	BYTE	W96
// 033   ----------------------------------------
	BYTE	W36
	BYTE		N08     Gs4   v076
	BYTE	W12
	BYTE		        En4 
	BYTE	W12
	BYTE		        Bn3 
	BYTE	W12
	BYTE		        An3 
	BYTE	W12
	BYTE		        Gs3 
	BYTE	W12
// 034   ----------------------------------------
	BYTE		        En3 
	BYTE	W96
// 035   ----------------------------------------
	BYTE	W96
// 036   ----------------------------------------
	BYTE	W96
// 037   ----------------------------------------
	BYTE	W96
// 038   ----------------------------------------
	BYTE	W96
// 039   ----------------------------------------
	BYTE	W96
// 040   ----------------------------------------
	BYTE	W12
	BYTE		N11     Bn2   v060
	BYTE	W12
	BYTE		        En3 
	BYTE	W12
	BYTE		        Fs3 
	BYTE	W12
	BYTE		        En3 
	BYTE	W12
	BYTE		        Fs3 
	BYTE	W12
	BYTE		        Bn3 
	BYTE	W12
	BYTE		        En4 
	BYTE	W12
// 041   ----------------------------------------
	BYTE		N23     Fs4 
	BYTE	W24
	BYTE		N11     Bn3 
	BYTE	W12
	BYTE		        En4 
	BYTE	W12
	BYTE		        Fs4 
	BYTE	W12
	BYTE		N17     Bn4 
	BYTE	W36
// 042   ----------------------------------------
	BYTE	W12
	BYTE		N92     Bn2   v052
	BYTE	W84
// 043   ----------------------------------------
	BYTE	W12
	BYTE		        Cn3 
	BYTE	W84
// 044   ----------------------------------------
	BYTE	W12
	BYTE		        Cs3 
	BYTE	W84
// 045   ----------------------------------------
	BYTE	W12
	BYTE		        Cn3 
	BYTE	W84
// 046   ----------------------------------------
	BYTE	W12
	BYTE		        Bn2 
	BYTE	W84
// 047   ----------------------------------------
	BYTE	W12
	BYTE		        Cn3 
	BYTE	W84
// 048   ----------------------------------------
	BYTE	W12
	BYTE		        Cs3 
	BYTE	W84
// 049   ----------------------------------------
	BYTE	W12
	BYTE		        Cn3 
	BYTE	W84
// 050   ----------------------------------------
	BYTE	W96
// 051   ----------------------------------------
	BYTE	W96
// 052   ----------------------------------------
	BYTE	W96
// 053   ----------------------------------------
	BYTE	W96
// 054   ----------------------------------------
	BYTE	W96
// 055   ----------------------------------------
	BYTE	W96
// 056   ----------------------------------------
	BYTE	W96
// 057   ----------------------------------------
	BYTE	PATT
	 POIN2	CastlevaniaOrderofEcclesiaRhapsodyoftheForsaken_12_005
// 058   ----------------------------------------
CastlevaniaOrderofEcclesiaRhapsodyoftheForsaken_12_058:
	BYTE		N11     Fs4   v052
	BYTE	W12
	BYTE		TIE     Gn4 
	BYTE	W48
	BYTE		VOL     97*CastlevaniaOrderofEcclesiaRhapsodyoftheForsaken_mvl/mxv
	BYTE	W06
	BYTE		        91*CastlevaniaOrderofEcclesiaRhapsodyoftheForsaken_mvl/mxv
	BYTE	W06
	BYTE		        85*CastlevaniaOrderofEcclesiaRhapsodyoftheForsaken_mvl/mxv
	BYTE	W06
	BYTE		        81*CastlevaniaOrderofEcclesiaRhapsodyoftheForsaken_mvl/mxv
	BYTE	W06
	BYTE		        78*CastlevaniaOrderofEcclesiaRhapsodyoftheForsaken_mvl/mxv
	BYTE	W06
	BYTE		        76*CastlevaniaOrderofEcclesiaRhapsodyoftheForsaken_mvl/mxv
	BYTE	W06
	BYTE	PEND
// 059   ----------------------------------------
CastlevaniaOrderofEcclesiaRhapsodyoftheForsaken_12_059:
	BYTE		VOL     73*CastlevaniaOrderofEcclesiaRhapsodyoftheForsaken_mvl/mxv
	BYTE	W06
	BYTE		        70*CastlevaniaOrderofEcclesiaRhapsodyoftheForsaken_mvl/mxv
	BYTE	W06
	BYTE		        69*CastlevaniaOrderofEcclesiaRhapsodyoftheForsaken_mvl/mxv
	BYTE	W06
	BYTE		        66*CastlevaniaOrderofEcclesiaRhapsodyoftheForsaken_mvl/mxv
	BYTE	W06
	BYTE		        65*CastlevaniaOrderofEcclesiaRhapsodyoftheForsaken_mvl/mxv
	BYTE	W06
	BYTE		        63*CastlevaniaOrderofEcclesiaRhapsodyoftheForsaken_mvl/mxv
	BYTE	W06
	BYTE		        60*CastlevaniaOrderofEcclesiaRhapsodyoftheForsaken_mvl/mxv
	BYTE	W06
	BYTE		        59*CastlevaniaOrderofEcclesiaRhapsodyoftheForsaken_mvl/mxv
	BYTE	W06
	BYTE		        56*CastlevaniaOrderofEcclesiaRhapsodyoftheForsaken_mvl/mxv
	BYTE	W06
	BYTE		        54*CastlevaniaOrderofEcclesiaRhapsodyoftheForsaken_mvl/mxv
	BYTE	W06
	BYTE		        53*CastlevaniaOrderofEcclesiaRhapsodyoftheForsaken_mvl/mxv
	BYTE	W06
	BYTE		        50*CastlevaniaOrderofEcclesiaRhapsodyoftheForsaken_mvl/mxv
	BYTE	W06
	BYTE		        47*CastlevaniaOrderofEcclesiaRhapsodyoftheForsaken_mvl/mxv
	BYTE	W06
	BYTE		        43*CastlevaniaOrderofEcclesiaRhapsodyoftheForsaken_mvl/mxv
	BYTE	W18
	BYTE	PEND
// 060   ----------------------------------------
	BYTE	W11
	BYTE		EOT     Gn4 
	BYTE	W32
	BYTE	W03
	BYTE		VOL     97*CastlevaniaOrderofEcclesiaRhapsodyoftheForsaken_mvl/mxv
	BYTE	W02
	BYTE		N11     An2   v052
	BYTE	W12
	BYTE		        Bn2 
	BYTE	W12
	BYTE		        Cn3 
	BYTE	W12
	BYTE		        Dn3 
	BYTE	W12
// 061   ----------------------------------------
CastlevaniaOrderofEcclesiaRhapsodyoftheForsaken_12_061:
	BYTE		N11     En3   v052
	BYTE	W12
	BYTE		        Fs3 
	BYTE	W12
	BYTE		        Gn3 
	BYTE	W12
	BYTE		        An3 
	BYTE	W12
	BYTE		        Bn3 
	BYTE	W12
	BYTE		        Cn4 
	BYTE	W12
	BYTE		        Dn4 
	BYTE	W12
	BYTE		        En4 
	BYTE	W12
	BYTE	PEND
// 062   ----------------------------------------
CastlevaniaOrderofEcclesiaRhapsodyoftheForsaken_12_062:
	BYTE		N11     Gn4   v052
	BYTE	W12
	BYTE		N32     Fs4 
	BYTE	W36
	BYTE		N11     An2 
	BYTE	W12
	BYTE		        Bn2 
	BYTE	W12
	BYTE		        Cn3 
	BYTE	W12
	BYTE		        Dn3 
	BYTE	W12
	BYTE	PEND
// 063   ----------------------------------------
	BYTE	PATT
	 POIN2	CastlevaniaOrderofEcclesiaRhapsodyoftheForsaken_12_061
// 064   ----------------------------------------
CastlevaniaOrderofEcclesiaRhapsodyoftheForsaken_12_064:
	BYTE		N11     Fs4   v052
	BYTE	W12
	BYTE		N15     En3 
	BYTE	W36
	BYTE		N11   
	BYTE	W24
	BYTE		        Dn3 
	BYTE	W12
	BYTE		N15     En3 
	BYTE	W12
	BYTE	PEND
// 065   ----------------------------------------
CastlevaniaOrderofEcclesiaRhapsodyoftheForsaken_12_065:
	BYTE	W24
	BYTE		N11     Bn2   v052
	BYTE	W12
	BYTE		        En3 
	BYTE	W12
	BYTE		        Fs3 
	BYTE	W12
	BYTE		        Gn3 
	BYTE	W12
	BYTE		        Fs3 
	BYTE	W12
	BYTE		        En3 
	BYTE	W12
	BYTE	PEND
// 066   ----------------------------------------
CastlevaniaOrderofEcclesiaRhapsodyoftheForsaken_12_066:
	BYTE		N11     Dn3   v052
	BYTE	W12
	BYTE		N15     En3 
	BYTE	W36
	BYTE		N11   
	BYTE	W24
	BYTE		        Dn3 
	BYTE	W12
	BYTE		N15     En3 
	BYTE	W12
	BYTE	PEND
// 067   ----------------------------------------
CastlevaniaOrderofEcclesiaRhapsodyoftheForsaken_12_067:
	BYTE	W12
	BYTE		N11     Dn3   v052
	BYTE	W12
	BYTE		N15     En3 
	BYTE	W24
	BYTE		N15   
	BYTE	W48
	BYTE	PEND
// 068   ----------------------------------------
	BYTE	W96
// 069   ----------------------------------------
	BYTE	W96
// 070   ----------------------------------------
	BYTE	W96
// 071   ----------------------------------------
	BYTE	PATT
	 POIN2	CastlevaniaOrderofEcclesiaRhapsodyoftheForsaken_12_005
// 072   ----------------------------------------
	BYTE	PATT
	 POIN2	CastlevaniaOrderofEcclesiaRhapsodyoftheForsaken_12_006
// 073   ----------------------------------------
	BYTE	PATT
	 POIN2	CastlevaniaOrderofEcclesiaRhapsodyoftheForsaken_12_007
// 074   ----------------------------------------
	BYTE	PATT
	 POIN2	CastlevaniaOrderofEcclesiaRhapsodyoftheForsaken_12_008
// 075   ----------------------------------------
	BYTE	W08
	BYTE		EOT     Gn4 
	BYTE	W03
	BYTE		VOL     97*CastlevaniaOrderofEcclesiaRhapsodyoftheForsaken_mvl/mxv
	BYTE	W13
	BYTE		N11     An4   v052
	BYTE	W12
	BYTE		        Gn4 
	BYTE	W12
	BYTE		        Fs4 
	BYTE	W12
	BYTE		        Dn4 
	BYTE	W12
	BYTE		        An3 
	BYTE	W12
	BYTE		        Gn3 
	BYTE	W12
// 076   ----------------------------------------
	BYTE		        Fs3 
	BYTE	W12
	BYTE	GoTo
	 POIN2	CastlevaniaOrderofEcclesiaRhapsodyoftheForsaken_12_B1
CastlevaniaOrderofEcclesiaRhapsodyoftheForsaken_12_B2:
	BYTE	W84
// 077   ----------------------------------------
	BYTE	W96
// 078   ----------------------------------------
	BYTE	W96
// 079   ----------------------------------------
	BYTE	W96
// 080   ----------------------------------------
	BYTE	W96
// 081   ----------------------------------------
	BYTE	W96
// 082   ----------------------------------------
	BYTE	W96
// 083   ----------------------------------------
	BYTE	W96
// 084   ----------------------------------------
	BYTE	W96
// 085   ----------------------------------------
	BYTE	W96
// 086   ----------------------------------------
	BYTE	W96
// 087   ----------------------------------------
	BYTE	W96
// 088   ----------------------------------------
	BYTE	W96
// 089   ----------------------------------------
	BYTE	W96
// 090   ----------------------------------------
	BYTE	W96
// 091   ----------------------------------------
	BYTE	W96
// 092   ----------------------------------------
	BYTE	W96
// 093   ----------------------------------------
	BYTE	W96
// 094   ----------------------------------------
	BYTE	W96
// 095   ----------------------------------------
	BYTE	W96
// 096   ----------------------------------------
	BYTE	W96
// 097   ----------------------------------------
	BYTE	W96
// 098   ----------------------------------------
	BYTE	W96
// 099   ----------------------------------------
	BYTE	W36
	BYTE		N11     Gs4   v052
	BYTE	W12
	BYTE		        En4 
	BYTE	W12
	BYTE		        Bn3 
	BYTE	W12
	BYTE		        An3 
	BYTE	W12
	BYTE		        Gs3 
	BYTE	W12
// 100   ----------------------------------------
	BYTE		        En3 
	BYTE	W96
// 101   ----------------------------------------
	BYTE	W96
// 102   ----------------------------------------
	BYTE	W96
// 103   ----------------------------------------
	BYTE	W96
// 104   ----------------------------------------
	BYTE	W96
// 105   ----------------------------------------
	BYTE	W96
// 106   ----------------------------------------
	BYTE	W12
	BYTE		        Bn2 
	BYTE	W12
	BYTE		        En3 
	BYTE	W12
	BYTE		        Fs3 
	BYTE	W12
	BYTE		        En3 
	BYTE	W12
	BYTE		        Fs3 
	BYTE	W12
	BYTE		        Bn3 
	BYTE	W12
	BYTE		        En4 
	BYTE	W12
// 107   ----------------------------------------
	BYTE		N23     Fs4 
	BYTE	W24
	BYTE		N11     Bn3 
	BYTE	W12
	BYTE		        En4 
	BYTE	W12
	BYTE		        Fs4 
	BYTE	W12
	BYTE		N17     Bn4 
	BYTE	W36
// 108   ----------------------------------------
	BYTE	W12
	BYTE		N92     Bn2 
	BYTE	W84
// 109   ----------------------------------------
	BYTE	W12
	BYTE		        Cn3 
	BYTE	W84
// 110   ----------------------------------------
	BYTE	W12
	BYTE		        Cs3 
	BYTE	W84
// 111   ----------------------------------------
	BYTE	W12
	BYTE		        Cn3 
	BYTE	W84
// 112   ----------------------------------------
	BYTE	W12
	BYTE		        Bn2 
	BYTE	W84
// 113   ----------------------------------------
	BYTE	W12
	BYTE		        Cn3 
	BYTE	W84
// 114   ----------------------------------------
	BYTE	W12
	BYTE		        Cs3 
	BYTE	W84
// 115   ----------------------------------------
	BYTE	W12
	BYTE		        Cn3 
	BYTE	W84
// 116   ----------------------------------------
	BYTE	W96
// 117   ----------------------------------------
	BYTE	W96
// 118   ----------------------------------------
	BYTE	W96
// 119   ----------------------------------------
	BYTE	W96
// 120   ----------------------------------------
	BYTE	W96
// 121   ----------------------------------------
	BYTE	W96
// 122   ----------------------------------------
	BYTE	W96
// 123   ----------------------------------------
	BYTE	W96
// 124   ----------------------------------------
	BYTE	W96
// 125   ----------------------------------------
	BYTE	W96
// 126   ----------------------------------------
	BYTE	W96
// 127   ----------------------------------------
	BYTE	PATT
	 POIN2	CastlevaniaOrderofEcclesiaRhapsodyoftheForsaken_12_005
// 128   ----------------------------------------
	BYTE	PATT
	 POIN2	CastlevaniaOrderofEcclesiaRhapsodyoftheForsaken_12_058
// 129   ----------------------------------------
	BYTE	PATT
	 POIN2	CastlevaniaOrderofEcclesiaRhapsodyoftheForsaken_12_059
// 130   ----------------------------------------
	BYTE	W11
	BYTE		EOT     Gn4 
	BYTE	W32
	BYTE	W03
	BYTE		VOL     97*CastlevaniaOrderofEcclesiaRhapsodyoftheForsaken_mvl/mxv
	BYTE	W02
	BYTE		N11     An2   v052
	BYTE	W12
	BYTE		        Bn2 
	BYTE	W12
	BYTE		        Cn3 
	BYTE	W12
	BYTE		        Dn3 
	BYTE	W12
// 131   ----------------------------------------
	BYTE	PATT
	 POIN2	CastlevaniaOrderofEcclesiaRhapsodyoftheForsaken_12_061
// 132   ----------------------------------------
	BYTE	PATT
	 POIN2	CastlevaniaOrderofEcclesiaRhapsodyoftheForsaken_12_062
// 133   ----------------------------------------
	BYTE	PATT
	 POIN2	CastlevaniaOrderofEcclesiaRhapsodyoftheForsaken_12_061
// 134   ----------------------------------------
	BYTE	PATT
	 POIN2	CastlevaniaOrderofEcclesiaRhapsodyoftheForsaken_12_064
// 135   ----------------------------------------
	BYTE	PATT
	 POIN2	CastlevaniaOrderofEcclesiaRhapsodyoftheForsaken_12_065
// 136   ----------------------------------------
	BYTE	PATT
	 POIN2	CastlevaniaOrderofEcclesiaRhapsodyoftheForsaken_12_066
// 137   ----------------------------------------
	BYTE	PATT
	 POIN2	CastlevaniaOrderofEcclesiaRhapsodyoftheForsaken_12_067
// 138   ----------------------------------------
	BYTE	W03
	BYTE	FINE

//**************** Track 13 (Midi-Chn.15) ****************//

CastlevaniaOrderofEcclesiaRhapsodyoftheForsaken_13:
	BYTE	KEYSH   CastlevaniaOrderofEcclesiaRhapsodyoftheForsaken_key+0
// 000   ----------------------------------------
	BYTE		VOICE   14
	BYTE		MODT    0
	BYTE		LFOS    44
	BYTE		VOL     114*CastlevaniaOrderofEcclesiaRhapsodyoftheForsaken_mvl/mxv
	BYTE		PAN     c_v-17
	BYTE		VOL     103*CastlevaniaOrderofEcclesiaRhapsodyoftheForsaken_mvl/mxv
	BYTE	W12
	BYTE		N84     Bn2   v048
	BYTE	W84
// 001   ----------------------------------------
	BYTE	W12
	BYTE		N84   
	BYTE	W84
// 002   ----------------------------------------
	BYTE	W96
// 003   ----------------------------------------
	BYTE	W96
// 004   ----------------------------------------
	BYTE	W96
// 005   ----------------------------------------
	BYTE	W12
	BYTE		N44     Dn3 
	BYTE	W84
// 006   ----------------------------------------
	BYTE	W96
// 007   ----------------------------------------
	BYTE	W96
// 008   ----------------------------------------
	BYTE	W96
// 009   ----------------------------------------
	BYTE	W12
	BYTE		N44   
	BYTE	W84
// 010   ----------------------------------------
	BYTE	W12
CastlevaniaOrderofEcclesiaRhapsodyoftheForsaken_13_B1:
	BYTE	W84
// 011   ----------------------------------------
	BYTE	W96
// 012   ----------------------------------------
	BYTE	W96
// 013   ----------------------------------------
	BYTE	W96
// 014   ----------------------------------------
	BYTE	W96
// 015   ----------------------------------------
	BYTE	W96
// 016   ----------------------------------------
	BYTE	W96
// 017   ----------------------------------------
	BYTE	W96
// 018   ----------------------------------------
	BYTE	W96
// 019   ----------------------------------------
	BYTE	W96
// 020   ----------------------------------------
	BYTE	W96
// 021   ----------------------------------------
	BYTE	W96
// 022   ----------------------------------------
	BYTE	W96
// 023   ----------------------------------------
	BYTE	W96
// 024   ----------------------------------------
	BYTE	W96
// 025   ----------------------------------------
	BYTE	W96
// 026   ----------------------------------------
	BYTE	W96
// 027   ----------------------------------------
	BYTE	W96
// 028   ----------------------------------------
	BYTE	W96
// 029   ----------------------------------------
	BYTE	W96
// 030   ----------------------------------------
	BYTE	W96
// 031   ----------------------------------------
	BYTE	W96
// 032   ----------------------------------------
	BYTE	W96
// 033   ----------------------------------------
	BYTE	W96
// 034   ----------------------------------------
	BYTE	W96
// 035   ----------------------------------------
	BYTE	W96
// 036   ----------------------------------------
	BYTE	W96
// 037   ----------------------------------------
	BYTE	W96
// 038   ----------------------------------------
	BYTE	W96
// 039   ----------------------------------------
	BYTE	W96
// 040   ----------------------------------------
	BYTE	W96
// 041   ----------------------------------------
	BYTE	W96
// 042   ----------------------------------------
	BYTE	W96
// 043   ----------------------------------------
	BYTE	W96
// 044   ----------------------------------------
	BYTE	W96
// 045   ----------------------------------------
	BYTE	W96
// 046   ----------------------------------------
	BYTE	W96
// 047   ----------------------------------------
	BYTE	W96
// 048   ----------------------------------------
	BYTE	W96
// 049   ----------------------------------------
	BYTE	W96
// 050   ----------------------------------------
	BYTE	W96
// 051   ----------------------------------------
	BYTE	W96
// 052   ----------------------------------------
	BYTE	W96
// 053   ----------------------------------------
	BYTE	W96
// 054   ----------------------------------------
	BYTE	W96
// 055   ----------------------------------------
	BYTE	W96
// 056   ----------------------------------------
	BYTE	W96
// 057   ----------------------------------------
	BYTE	W96
// 058   ----------------------------------------
	BYTE	W96
// 059   ----------------------------------------
	BYTE	W96
// 060   ----------------------------------------
	BYTE	W12
	BYTE		N84     En3   v068
	BYTE	W84
// 061   ----------------------------------------
	BYTE	W96
// 062   ----------------------------------------
	BYTE	W12
	BYTE		        Fs3   v080
	BYTE	W84
// 063   ----------------------------------------
	BYTE	W96
// 064   ----------------------------------------
	BYTE	W96
// 065   ----------------------------------------
	BYTE	W96
// 066   ----------------------------------------
	BYTE	W96
// 067   ----------------------------------------
	BYTE	W96
// 068   ----------------------------------------
	BYTE	W96
// 069   ----------------------------------------
	BYTE	W96
// 070   ----------------------------------------
	BYTE	W96
// 071   ----------------------------------------
	BYTE	W12
	BYTE		        Dn3   v060
	BYTE	W84
// 072   ----------------------------------------
	BYTE	W96
// 073   ----------------------------------------
	BYTE	W96
// 074   ----------------------------------------
	BYTE	W96
// 075   ----------------------------------------
	BYTE	W12
	BYTE		N84   
	BYTE	W84
// 076   ----------------------------------------
	BYTE	W12
	BYTE	GoTo
	 POIN2	CastlevaniaOrderofEcclesiaRhapsodyoftheForsaken_13_B1
CastlevaniaOrderofEcclesiaRhapsodyoftheForsaken_13_B2:
	BYTE	W84
// 077   ----------------------------------------
	BYTE	W96
// 078   ----------------------------------------
	BYTE	W96
// 079   ----------------------------------------
	BYTE	W96
// 080   ----------------------------------------
	BYTE	W96
// 081   ----------------------------------------
	BYTE	W96
// 082   ----------------------------------------
	BYTE	W96
// 083   ----------------------------------------
	BYTE	W96
// 084   ----------------------------------------
	BYTE	W96
// 085   ----------------------------------------
	BYTE	W96
// 086   ----------------------------------------
	BYTE	W96
// 087   ----------------------------------------
	BYTE	W96
// 088   ----------------------------------------
	BYTE	W96
// 089   ----------------------------------------
	BYTE	W96
// 090   ----------------------------------------
	BYTE	W96
// 091   ----------------------------------------
	BYTE	W96
// 092   ----------------------------------------
	BYTE	W96
// 093   ----------------------------------------
	BYTE	W96
// 094   ----------------------------------------
	BYTE	W96
// 095   ----------------------------------------
	BYTE	W96
// 096   ----------------------------------------
	BYTE	W96
// 097   ----------------------------------------
	BYTE	W96
// 098   ----------------------------------------
	BYTE	W96
// 099   ----------------------------------------
	BYTE	W96
// 100   ----------------------------------------
	BYTE	W96
// 101   ----------------------------------------
	BYTE	W96
// 102   ----------------------------------------
	BYTE	W96
// 103   ----------------------------------------
	BYTE	W96
// 104   ----------------------------------------
	BYTE	W96
// 105   ----------------------------------------
	BYTE	W96
// 106   ----------------------------------------
	BYTE	W96
// 107   ----------------------------------------
	BYTE	W96
// 108   ----------------------------------------
	BYTE	W96
// 109   ----------------------------------------
	BYTE	W96
// 110   ----------------------------------------
	BYTE	W96
// 111   ----------------------------------------
	BYTE	W96
// 112   ----------------------------------------
	BYTE	W96
// 113   ----------------------------------------
	BYTE	W96
// 114   ----------------------------------------
	BYTE	W96
// 115   ----------------------------------------
	BYTE	W96
// 116   ----------------------------------------
	BYTE	W96
// 117   ----------------------------------------
	BYTE	W96
// 118   ----------------------------------------
	BYTE	W96
// 119   ----------------------------------------
	BYTE	W96
// 120   ----------------------------------------
	BYTE	W96
// 121   ----------------------------------------
	BYTE	W96
// 122   ----------------------------------------
	BYTE	W96
// 123   ----------------------------------------
	BYTE	W96
// 124   ----------------------------------------
	BYTE	W96
// 125   ----------------------------------------
	BYTE	W96
// 126   ----------------------------------------
	BYTE	W96
// 127   ----------------------------------------
	BYTE	W96
// 128   ----------------------------------------
	BYTE	W96
// 129   ----------------------------------------
	BYTE	W96
// 130   ----------------------------------------
	BYTE	W12
	BYTE		N84     An3   v048
	BYTE	W84
// 131   ----------------------------------------
	BYTE	W96
// 132   ----------------------------------------
	BYTE	W96
// 133   ----------------------------------------
	BYTE	W96
// 134   ----------------------------------------
	BYTE	W96
// 135   ----------------------------------------
	BYTE	W96
// 136   ----------------------------------------
	BYTE	W96
// 137   ----------------------------------------
	BYTE	W96
// 138   ----------------------------------------
	BYTE	W03
	BYTE	FINE

//**************** Track 14 (Midi-Chn.16) ****************//

CastlevaniaOrderofEcclesiaRhapsodyoftheForsaken_14:
	BYTE	KEYSH   CastlevaniaOrderofEcclesiaRhapsodyoftheForsaken_key+0
// 000   ----------------------------------------
	BYTE		VOICE   14
	BYTE		MODT    0
	BYTE		LFOS    44
	BYTE		VOL     116*CastlevaniaOrderofEcclesiaRhapsodyoftheForsaken_mvl/mxv
	BYTE		PAN     c_v+17
	BYTE		VOL     105*CastlevaniaOrderofEcclesiaRhapsodyoftheForsaken_mvl/mxv
	BYTE	W12
	BYTE		N84     Bn3   v048
	BYTE	W84
// 001   ----------------------------------------
	BYTE	W12
	BYTE		N84   
	BYTE	W84
// 002   ----------------------------------------
	BYTE	W96
// 003   ----------------------------------------
	BYTE	W96
// 004   ----------------------------------------
	BYTE	W96
// 005   ----------------------------------------
	BYTE	W12
	BYTE		N44     Dn4 
	BYTE	W84
// 006   ----------------------------------------
	BYTE	W96
// 007   ----------------------------------------
	BYTE	W96
// 008   ----------------------------------------
	BYTE	W96
// 009   ----------------------------------------
	BYTE	W12
	BYTE		N44   
	BYTE	W84
// 010   ----------------------------------------
	BYTE	W12
CastlevaniaOrderofEcclesiaRhapsodyoftheForsaken_14_B1:
	BYTE	W84
// 011   ----------------------------------------
	BYTE	W96
// 012   ----------------------------------------
	BYTE	W96
// 013   ----------------------------------------
	BYTE	W96
// 014   ----------------------------------------
	BYTE	W96
// 015   ----------------------------------------
	BYTE	W96
// 016   ----------------------------------------
	BYTE	W96
// 017   ----------------------------------------
	BYTE	W96
// 018   ----------------------------------------
	BYTE	W96
// 019   ----------------------------------------
	BYTE	W96
// 020   ----------------------------------------
	BYTE	W96
// 021   ----------------------------------------
	BYTE	W96
// 022   ----------------------------------------
	BYTE	W96
// 023   ----------------------------------------
	BYTE	W96
// 024   ----------------------------------------
	BYTE	W96
// 025   ----------------------------------------
	BYTE	W96
// 026   ----------------------------------------
	BYTE	W96
// 027   ----------------------------------------
	BYTE	W96
// 028   ----------------------------------------
	BYTE	W96
// 029   ----------------------------------------
	BYTE	W96
// 030   ----------------------------------------
	BYTE	W96
// 031   ----------------------------------------
	BYTE	W96
// 032   ----------------------------------------
	BYTE	W96
// 033   ----------------------------------------
	BYTE	W96
// 034   ----------------------------------------
	BYTE	W96
// 035   ----------------------------------------
	BYTE	W96
// 036   ----------------------------------------
	BYTE	W96
// 037   ----------------------------------------
	BYTE	W96
// 038   ----------------------------------------
	BYTE	W96
// 039   ----------------------------------------
	BYTE	W96
// 040   ----------------------------------------
	BYTE	W96
// 041   ----------------------------------------
	BYTE	W96
// 042   ----------------------------------------
	BYTE	W96
// 043   ----------------------------------------
	BYTE	W96
// 044   ----------------------------------------
	BYTE	W96
// 045   ----------------------------------------
	BYTE	W96
// 046   ----------------------------------------
	BYTE	W96
// 047   ----------------------------------------
	BYTE	W96
// 048   ----------------------------------------
	BYTE	W96
// 049   ----------------------------------------
	BYTE	W96
// 050   ----------------------------------------
	BYTE	W96
// 051   ----------------------------------------
	BYTE	W96
// 052   ----------------------------------------
	BYTE	W96
// 053   ----------------------------------------
	BYTE	W96
// 054   ----------------------------------------
	BYTE	W96
// 055   ----------------------------------------
	BYTE	W96
// 056   ----------------------------------------
	BYTE	W84
	BYTE		N84     An2   v076
	BYTE	W12
// 057   ----------------------------------------
	BYTE	W96
// 058   ----------------------------------------
	BYTE	W96
// 059   ----------------------------------------
	BYTE	W96
// 060   ----------------------------------------
	BYTE	W96
// 061   ----------------------------------------
	BYTE	W96
// 062   ----------------------------------------
	BYTE	W96
// 063   ----------------------------------------
	BYTE	W96
// 064   ----------------------------------------
	BYTE	W96
// 065   ----------------------------------------
	BYTE	W96
// 066   ----------------------------------------
	BYTE	W96
// 067   ----------------------------------------
	BYTE	W96
// 068   ----------------------------------------
	BYTE	W96
// 069   ----------------------------------------
	BYTE	W96
// 070   ----------------------------------------
	BYTE	W96
// 071   ----------------------------------------
	BYTE	W12
	BYTE		N44     Dn4   v048
	BYTE	W84
// 072   ----------------------------------------
	BYTE	W96
// 073   ----------------------------------------
	BYTE	W96
// 074   ----------------------------------------
	BYTE	W96
// 075   ----------------------------------------
	BYTE	W12
	BYTE		N44   
	BYTE	W84
// 076   ----------------------------------------
	BYTE	W12
	BYTE	GoTo
	 POIN2	CastlevaniaOrderofEcclesiaRhapsodyoftheForsaken_14_B1
CastlevaniaOrderofEcclesiaRhapsodyoftheForsaken_14_B2:
	BYTE	W84
// 077   ----------------------------------------
	BYTE	W96
// 078   ----------------------------------------
	BYTE	W96
// 079   ----------------------------------------
	BYTE	W96
// 080   ----------------------------------------
	BYTE	W96
// 081   ----------------------------------------
	BYTE	W96
// 082   ----------------------------------------
	BYTE	W96
// 083   ----------------------------------------
	BYTE	W96
// 084   ----------------------------------------
	BYTE	W96
// 085   ----------------------------------------
	BYTE	W96
// 086   ----------------------------------------
	BYTE	W96
// 087   ----------------------------------------
	BYTE	W96
// 088   ----------------------------------------
	BYTE	W96
// 089   ----------------------------------------
	BYTE	W96
// 090   ----------------------------------------
	BYTE	W96
// 091   ----------------------------------------
	BYTE	W96
// 092   ----------------------------------------
	BYTE	W96
// 093   ----------------------------------------
	BYTE	W96
// 094   ----------------------------------------
	BYTE	W96
// 095   ----------------------------------------
	BYTE	W96
// 096   ----------------------------------------
	BYTE	W96
// 097   ----------------------------------------
	BYTE	W96
// 098   ----------------------------------------
	BYTE	W96
// 099   ----------------------------------------
	BYTE	W96
// 100   ----------------------------------------
	BYTE	W96
// 101   ----------------------------------------
	BYTE	W96
// 102   ----------------------------------------
	BYTE	W96
// 103   ----------------------------------------
	BYTE	W96
// 104   ----------------------------------------
	BYTE	W96
// 105   ----------------------------------------
	BYTE	W96
// 106   ----------------------------------------
	BYTE	W96
// 107   ----------------------------------------
	BYTE	W96
// 108   ----------------------------------------
	BYTE	W96
// 109   ----------------------------------------
	BYTE	W96
// 110   ----------------------------------------
	BYTE	W96
// 111   ----------------------------------------
	BYTE	W96
// 112   ----------------------------------------
	BYTE	W96
// 113   ----------------------------------------
	BYTE	W96
// 114   ----------------------------------------
	BYTE	W96
// 115   ----------------------------------------
	BYTE	W96
// 116   ----------------------------------------
	BYTE	W96
// 117   ----------------------------------------
	BYTE	W96
// 118   ----------------------------------------
	BYTE	W96
// 119   ----------------------------------------
	BYTE	W96
// 120   ----------------------------------------
	BYTE	W96
// 121   ----------------------------------------
	BYTE	W96
// 122   ----------------------------------------
	BYTE	W96
// 123   ----------------------------------------
	BYTE	W96
// 124   ----------------------------------------
	BYTE	W96
// 125   ----------------------------------------
	BYTE	W96
// 126   ----------------------------------------
	BYTE	W84
	BYTE		N84     An3   v048
	BYTE	W12
// 127   ----------------------------------------
	BYTE	W96
// 128   ----------------------------------------
	BYTE	W96
// 129   ----------------------------------------
	BYTE	W96
// 130   ----------------------------------------
	BYTE	W96
// 131   ----------------------------------------
	BYTE	W96
// 132   ----------------------------------------
	BYTE	W12
	BYTE		        Bn2   v092
	BYTE	W84
// 133   ----------------------------------------
	BYTE	W96
// 134   ----------------------------------------
	BYTE	W96
// 135   ----------------------------------------
	BYTE	W96
// 136   ----------------------------------------
	BYTE	W96
// 137   ----------------------------------------
	BYTE	W96
// 138   ----------------------------------------
	BYTE	W03
	BYTE	FINE

//******************************************************//
	ALIGN 4

CastlevaniaOrderofEcclesiaRhapsodyoftheForsaken:
	BYTE	14	// NumTrks
	BYTE	0	// NumBlks
	BYTE	CastlevaniaOrderofEcclesiaRhapsodyoftheForsaken_pri	// Priority
	BYTE	CastlevaniaOrderofEcclesiaRhapsodyoftheForsaken_rev	// Reverb.

	POIN2	CastlevaniaOrderofEcclesiaRhapsodyoftheForsaken_grp

	POIN2	CastlevaniaOrderofEcclesiaRhapsodyoftheForsaken_1
	POIN2	CastlevaniaOrderofEcclesiaRhapsodyoftheForsaken_2
	POIN2	CastlevaniaOrderofEcclesiaRhapsodyoftheForsaken_3
	POIN2	CastlevaniaOrderofEcclesiaRhapsodyoftheForsaken_4
	POIN2	CastlevaniaOrderofEcclesiaRhapsodyoftheForsaken_5
	POIN2	CastlevaniaOrderofEcclesiaRhapsodyoftheForsaken_6
	POIN2	CastlevaniaOrderofEcclesiaRhapsodyoftheForsaken_7
	POIN2	CastlevaniaOrderofEcclesiaRhapsodyoftheForsaken_8
	POIN2	CastlevaniaOrderofEcclesiaRhapsodyoftheForsaken_9
	POIN2	CastlevaniaOrderofEcclesiaRhapsodyoftheForsaken_10
	POIN2	CastlevaniaOrderofEcclesiaRhapsodyoftheForsaken_11
	POIN2	CastlevaniaOrderofEcclesiaRhapsodyoftheForsaken_12
	POIN2	CastlevaniaOrderofEcclesiaRhapsodyoftheForsaken_13
	POIN2	CastlevaniaOrderofEcclesiaRhapsodyoftheForsaken_14

	
