//Event file generated from Sappy .s format.
	#include "MPlayDef.event"

	#define	CastlevaniaPortraitofRuinJailofJewelTak_grp  voicegroup000
	#define	CastlevaniaPortraitofRuinJailofJewelTak_pri  0
	#define	CastlevaniaPortraitofRuinJailofJewelTak_rev  0
	#define	CastlevaniaPortraitofRuinJailofJewelTak_mvl  127
	#define	CastlevaniaPortraitofRuinJailofJewelTak_key  0
	#define	CastlevaniaPortraitofRuinJailofJewelTak_tbs  1
	#define	CastlevaniaPortraitofRuinJailofJewelTak_exg  0
	#define	CastlevaniaPortraitofRuinJailofJewelTak_cmp  1

	// .rodata
	//	CastlevaniaPortraitofRuinJailofJewelTak
	ALIGN 4


//**************** Track 1 (Midi-Chn.0) ****************//

CastlevaniaPortraitofRuinJailofJewelTak_001:
//  #01 //000   ----------------------------------------
 BYTE   KEYSH   CastlevaniaPortraitofRuinJailofJewelTak_key+0
 BYTE   TEMPO   160*CastlevaniaPortraitofRuinJailofJewelTak_tbs/2
 BYTE   VOICE   124
 BYTE   VOL   73*CastlevaniaPortraitofRuinJailofJewelTak_mvl/mxv
 BYTE   BENDR  12
 BYTE   N06  Cn1  v085
 BYTE   W24
 BYTE   Cn1
 BYTE   W24
 BYTE   Cn1
 BYTE   W24
 BYTE   Cn1
 BYTE   W24
//  #01 //001   ----------------------------------------
 BYTE   Cn1
 BYTE   W24
 BYTE   Cn1
 BYTE   W24
 BYTE   Cn1
 BYTE   W24
 BYTE   Cn1
 BYTE   W24
//  #01 //002   ----------------------------------------
 BYTE   Fs1
 BYTE   N06  Cn1
 BYTE   N24  As1
 BYTE   W12
 BYTE   N06  Fs1
 BYTE   W12
 BYTE   Fs1
 BYTE   N06  Cn1
 BYTE   N24  As1
 BYTE   W12
 BYTE   N06  Fs1
 BYTE   W12
 BYTE   Cn1
 BYTE   N06  Fs1
 BYTE   N24  As1
 BYTE   W12
 BYTE   N06  Fs1
 BYTE   W12
 BYTE   Fs1
 BYTE   N06  Cn1
 BYTE   N24  As1
 BYTE   W12
 BYTE   N06  Fs1
 BYTE   W12
//  #01 //003   ----------------------------------------
 BYTE   Fs1
 BYTE   N06  Cn1
 BYTE   N24  As1
 BYTE   W12
 BYTE   N06  Fs1
 BYTE   W12
 BYTE   Fs1
 BYTE   N06  Cn1
 BYTE   N24  As1
 BYTE   W12
 BYTE   N06  Fs1
 BYTE   W12
 BYTE   Fs1
 BYTE   N06  Cn1
 BYTE   N24  As1
 BYTE   W06
 BYTE   N06  Fs1
 BYTE   W06
 BYTE   Fs1
 BYTE   W12
 BYTE   Fs1
 BYTE   N06  Cn1
 BYTE   N24  As1
 BYTE   W12
 BYTE   N06  Fs1
 BYTE   W12
//  #01 //004   ----------------------------------------
 BYTE   Fs1
 BYTE   N06  Cn1
 BYTE   N48  Cs2
 BYTE   W12
 BYTE   N06  Fs1
 BYTE   W12
 BYTE   Fs1
 BYTE   N06  Cn1
 BYTE   N06  Dn1
 BYTE   W12
 BYTE   Fs1
 BYTE   W12
 BYTE   Fs1
 BYTE   N06  Cn1
 BYTE   W12
 BYTE   Fs1
 BYTE   W12
 BYTE   Fs1
 BYTE   N06  Cn1
 BYTE   N06  Dn1
 BYTE   W12
 BYTE   Fs1
 BYTE   W12
//  #01 //005   ----------------------------------------
 BYTE   Fs1
 BYTE   N06  Cn1
 BYTE   W12
 BYTE   Fs1
 BYTE   W12
 BYTE   Fs1
 BYTE   N06  Cn1
 BYTE   N06  Dn1
 BYTE   W12
 BYTE   Fs1
 BYTE   W12
 BYTE   Fs1
 BYTE   N06  Cn1
 BYTE   W12
 BYTE   Fs1
 BYTE   W12
 BYTE   Fs1
 BYTE   N06  Cn1
 BYTE   N06  Dn1
 BYTE   W12
 BYTE   N12  As1
 BYTE   N06  Fs1
 BYTE   W12
//  #01 //006   ----------------------------------------
 BYTE   Fs1
 BYTE   N06  Cn1
 BYTE   W12
 BYTE   Fs1
 BYTE   W12
 BYTE   Fs1
 BYTE   N06  Cn1
 BYTE   N06  Dn1
 BYTE   W12
 BYTE   Fs1
 BYTE   W12
 BYTE   Fs1
 BYTE   N06  Cn1
 BYTE   W12
 BYTE   Fs1
 BYTE   W12
 BYTE   Dn1
 BYTE   N06  Cn1
 BYTE   N06  Fs1
 BYTE   W12
 BYTE   Fs1
 BYTE   W12
//  #01 //007   ----------------------------------------
 BYTE   N96  En2  v095
 BYTE   N06  Cn1  v085
 BYTE   N06  Fs1
 BYTE   W12
 BYTE   Fs1
 BYTE   W12
 BYTE   Dn1
 BYTE   N06  Cn1
 BYTE   N06  Fs1
 BYTE   W12
 BYTE   Fs1
 BYTE   W12
 BYTE   Fs1
 BYTE   N06  Cn1
 BYTE   W06
 BYTE   Fs1
 BYTE   W06
 BYTE   Fs1
 BYTE   W12
 BYTE   Fs1
 BYTE   N06  Cn1
 BYTE   N06  Dn1
 BYTE   W12
 BYTE   N12  As1
 BYTE   N06  Fs1
 BYTE   W12
//  #01 //008   ----------------------------------------
Label_01026A4A:
 BYTE   N06  Cn1  v085
 BYTE   N06  Fs1
 BYTE   N96  Cs2  v095
 BYTE   W12
 BYTE   N06  Fs1  v085
 BYTE   W12
 BYTE   Dn1
 BYTE   N06  Cn1
 BYTE   N06  Fs1
 BYTE   W12
 BYTE   Fs1
 BYTE   W12
 BYTE   Fs1
 BYTE   N06  Cn1
 BYTE   W12
 BYTE   Fs1
 BYTE   W12
 BYTE   Dn1
 BYTE   N06  Cn1
 BYTE   N06  Fs1
 BYTE   W12
 BYTE   Fs1
 BYTE   W12
//  #01 //009   ----------------------------------------
 BYTE   Cn1
 BYTE   N06  Fs1
 BYTE   W12
 BYTE   Fs1
 BYTE   W12
 BYTE   Dn1
 BYTE   N06  Cn1
 BYTE   N06  Fs1
 BYTE   W12
 BYTE   Fs1
 BYTE   W12
 BYTE   Fs1
 BYTE   N06  Cn1
 BYTE   W12
 BYTE   Fs1
 BYTE   W12
 BYTE   Fs1
 BYTE   N06  Cn1
 BYTE   N06  Dn1
 BYTE   W12
 BYTE   Fs1
 BYTE   N12  As1
 BYTE   W12
//  #01 //010   ----------------------------------------
Label_01026A8B:
 BYTE   N06  Fs1  v085
 BYTE   N06  Cn1
 BYTE   W12
 BYTE   Fs1
 BYTE   W12
 BYTE   Fs1
 BYTE   N06  Cn1
 BYTE   N06  Dn1
 BYTE   W12
 BYTE   Fs1
 BYTE   W12
 BYTE   Cn1
 BYTE   N06  Fs1
 BYTE   W12
 BYTE   Fs1
 BYTE   W12
 BYTE   Fs1
 BYTE   N06  Cn1
 BYTE   N06  Dn1
 BYTE   W12
 BYTE   Fs1
 BYTE   W12
 BYTE   PEND 
//  #01 //011   ----------------------------------------
Label_01026AAA:
 BYTE   N06  Cn1  v085
 BYTE   N06  Fs1
 BYTE   W12
 BYTE   Fs1
 BYTE   W12
 BYTE   Fs1
 BYTE   N06  Cn1
 BYTE   N06  Dn1
 BYTE   W12
 BYTE   Fs1
 BYTE   W12
 BYTE   Cn1
 BYTE   N06  Fs1
 BYTE   W12
 BYTE   Fs1
 BYTE   W12
 BYTE   Fs1
 BYTE   N06  Cn1
 BYTE   N06  Dn1
 BYTE   W12
 BYTE   Fs1
 BYTE   N12  As1
 BYTE   W12
 BYTE   PEND 
//  #01 //012   ----------------------------------------
Label_01026ACB:
 BYTE   N06  Cn1  v085
 BYTE   N06  Fs1
 BYTE   W12
 BYTE   Fs1
 BYTE   W12
 BYTE   Fs1
 BYTE   N06  Cn1
 BYTE   N06  Dn1
 BYTE   W12
 BYTE   Fs1
 BYTE   W12
 BYTE   Cn1
 BYTE   N06  Fs1
 BYTE   W12
 BYTE   Fs1
 BYTE   W12
 BYTE   Fs1
 BYTE   N06  Cn1
 BYTE   N06  Dn1
 BYTE   W12
 BYTE   Fs1
 BYTE   W12
 BYTE   PEND 
//  #01 //013   ----------------------------------------
Label_01026AEA:
 BYTE   N06  Cn1  v085
 BYTE   N06  Fs1
 BYTE   W12
 BYTE   Fs1
 BYTE   W12
 BYTE   Dn1
 BYTE   N06  Cn1
 BYTE   N06  Fs1
 BYTE   W12
 BYTE   Fs1
 BYTE   W12
 BYTE   Cn1
 BYTE   N06  Fs1
 BYTE   W12
 BYTE   Fs1
 BYTE   W12
 BYTE   Dn1
 BYTE   N06  Cn1
 BYTE   N06  Fs1
 BYTE   W12
 BYTE   N12  As1
 BYTE   N06  Fs1
 BYTE   W12
 BYTE   PEND 
//  #01 //014   ----------------------------------------
 BYTE   Cn1
 BYTE   N06  Fs1
 BYTE   W12
 BYTE   Fs1
 BYTE   W12
 BYTE   Dn1
 BYTE   N06  Fs1
 BYTE   W12
 BYTE   Cn1
 BYTE   N06  Fs1
 BYTE   W12
 BYTE   Fs1
 BYTE   W12
 BYTE   Fs1
 BYTE   N06  Cn1
 BYTE   W12
 BYTE   Fs1
 BYTE   W12
 BYTE   N24  Gn2
 BYTE   N06  Dn1
 BYTE   N06  Fs1
 BYTE   N06  Cn1
 BYTE   W12
//  #01 //015   ----------------------------------------
 BYTE   Fs1
 BYTE   W12
 BYTE   N12  Gn2
 BYTE   N06  Dn1
 BYTE   N06  Fs1
 BYTE   N06  Cn1
 BYTE   W12
 BYTE   N30  Gn2
 BYTE   N06  Dn1
 BYTE   N06  Fs1
 BYTE   N06  Cn1
 BYTE   W12
 BYTE   Fs1
 BYTE   N06  Cn1
 BYTE   W12
 BYTE   Fs1
 BYTE   N06  Cn1
 BYTE   W06
 BYTE   Fs1
 BYTE   N06  Cn1
 BYTE   W06
 BYTE   Fs1
 BYTE   N06  Cn1
 BYTE   N12  As1
 BYTE   W12
 BYTE   N06  Fs1
 BYTE   N06  Cn1
 BYTE   W12
 BYTE   Fs1
 BYTE   N06  Cn1
 BYTE   N12  As1
 BYTE   W12
//  #01 //016   ----------------------------------------
Label_01026B5C:
 BYTE   N06  Fs1  v085
 BYTE   N06  Cn1
 BYTE   W12
 BYTE   Fs1
 BYTE   W12
 BYTE   Fs1
 BYTE   N06  Cn1
 BYTE   N06  Dn1
 BYTE   W12
 BYTE   Fs1
 BYTE   W12
 BYTE   Fs1
 BYTE   N06  Cn1
 BYTE   W12
 BYTE   Fs1
 BYTE   W12
 BYTE   Fs1
 BYTE   N06  Cn1
 BYTE   N06  Dn1
 BYTE   W12
 BYTE   Fs1
 BYTE   W12
 BYTE   PEND 
//  #01 //017   ----------------------------------------
Label_01026B7B:
 BYTE   N06  Cn1  v085
 BYTE   N06  Fs1
 BYTE   W12
 BYTE   Fs1
 BYTE   W12
 BYTE   Fs1
 BYTE   N06  Cn1
 BYTE   N06  Dn1
 BYTE   W12
 BYTE   Fs1
 BYTE   W12
 BYTE   Fs1
 BYTE   N06  Cn1
 BYTE   W12
 BYTE   Fs1
 BYTE   W12
 BYTE   Fs1
 BYTE   N06  Cn1
 BYTE   N06  Dn1
 BYTE   W12
 BYTE   Fs1
 BYTE   N12  As1
 BYTE   W12
 BYTE   PEND 
//  #01 //018   ----------------------------------------
 BYTE   PATT
  POIN2 Label_01026B5C
//  #01 //019   ----------------------------------------
 BYTE   N06  Fs1  v085
 BYTE   N06  Cn1
 BYTE   W12
 BYTE   Fs1
 BYTE   W12
 BYTE   Fs1
 BYTE   N06  Cn1
 BYTE   N06  Dn1
 BYTE   W12
 BYTE   Fs1
 BYTE   W12
 BYTE   Fs1
 BYTE   N06  Cn1
 BYTE   W12
 BYTE   Fs1
 BYTE   W12
 BYTE   Fs1
 BYTE   N06  Cn1
 BYTE   N06  Dn1
 BYTE   W12
 BYTE   Fs1
 BYTE   N12  As1
 BYTE   W12
//  #01 //020   ----------------------------------------
 BYTE   PATT
  POIN2 Label_01026ACB
//  #01 //021   ----------------------------------------
 BYTE   PATT
  POIN2 Label_01026B7B
//  #01 //022   ----------------------------------------
 BYTE   N06  Fs1  v085
 BYTE   N06  Cn1
 BYTE   W12
 BYTE   Fs1
 BYTE   W12
 BYTE   Fs1
 BYTE   N06  Dn1
 BYTE   W12
 BYTE   Fs1
 BYTE   N06  Cn1
 BYTE   W12
 BYTE   Fs1
 BYTE   W12
 BYTE   Fs1
 BYTE   N06  Cn1
 BYTE   W12
 BYTE   Fs1
 BYTE   W12
 BYTE   N24  Gn2
 BYTE   N06  Dn1
 BYTE   N06  Fs1
 BYTE   N06  Cn1
 BYTE   W12
//  #01 //023   ----------------------------------------
 BYTE   Fs1
 BYTE   W12
 BYTE   Dn1
 BYTE   N06  Fs1
 BYTE   N06  Cn1
 BYTE   N12  Gn2
 BYTE   W12
 BYTE   N30
 BYTE   N06  Dn1
 BYTE   N06  Fs1
 BYTE   N06  Cn1
 BYTE   W12
 BYTE   Cn1
 BYTE   N06  Fs1
 BYTE   W12
 BYTE   Cn1
 BYTE   N06  Fs1
 BYTE   W06
 BYTE   Fs1
 BYTE   N06  Cn1
 BYTE   W06
 BYTE   N12  As1
 BYTE   N06  Cn1
 BYTE   N06  Fs1
 BYTE   W12
 BYTE   Fs1
 BYTE   N06  Cn1
 BYTE   W06
 BYTE   Fs1
 BYTE   N06  Cn1
 BYTE   W06
 BYTE   Fs1
 BYTE   N06  Cn1
 BYTE   N12  As1
 BYTE   W12
//  #01 //024   ----------------------------------------
Label_01026C1F:
 BYTE   N06  Cn1  v085
 BYTE   N06  Fs1
 BYTE   W12
 BYTE   Fs1
 BYTE   W12
 BYTE   Fs1
 BYTE   N06  Cn1
 BYTE   N06  Dn1
 BYTE   W12
 BYTE   Fs1
 BYTE   W12
 BYTE   Fs1
 BYTE   N06  Cn1
 BYTE   W12
 BYTE   Fs1
 BYTE   W12
 BYTE   Fs1
 BYTE   N06  Cn1
 BYTE   N06  Dn1
 BYTE   W12
 BYTE   Fs1
 BYTE   W12
 BYTE   PEND 
//  #01 //025   ----------------------------------------
 BYTE   PATT
  POIN2 Label_01026C1F
//  #01 //026   ----------------------------------------
 BYTE   N06  Cn1  v085
 BYTE   N06  Fs1
 BYTE   W12
 BYTE   Fs1
 BYTE   W12
 BYTE   Dn1
 BYTE   N06  Cn1
 BYTE   N06  Fs1
 BYTE   W12
 BYTE   Fs1
 BYTE   W12
 BYTE   Cn1
 BYTE   N06  Fs1
 BYTE   W12
 BYTE   Fs1
 BYTE   W12
 BYTE   Fs1
 BYTE   N06  Cn1
 BYTE   N06  Dn1
 BYTE   W12
 BYTE   Fs1
 BYTE   W12
//  #01 //027   ----------------------------------------
 BYTE   PATT
  POIN2 Label_01026AEA
//  #01 //028   ----------------------------------------
Label_01026C66:
 BYTE   N06  Fs1  v085
 BYTE   N06  Cn1
 BYTE   W12
 BYTE   Fs1
 BYTE   W12
 BYTE   Dn1
 BYTE   N06  Cn1
 BYTE   N06  Fs1
 BYTE   W12
 BYTE   Fs1
 BYTE   W12
 BYTE   Cn1
 BYTE   N06  Fs1
 BYTE   W12
 BYTE   Fs1
 BYTE   W12
 BYTE   Dn1
 BYTE   N06  Cn1
 BYTE   N06  Fs1
 BYTE   W12
 BYTE   Fs1
 BYTE   W12
 BYTE   PEND 
//  #01 //029   ----------------------------------------
 BYTE   PATT
  POIN2 Label_01026C66
//  #01 //030   ----------------------------------------
 BYTE   PATT
  POIN2 Label_01026C66
//  #01 //031   ----------------------------------------
 BYTE   N06  Fs1  v085
 BYTE   N06  Cn1
 BYTE   W12
 BYTE   Fs1
 BYTE   W12
 BYTE   Dn1
 BYTE   N06  Cn1
 BYTE   N06  Fs1
 BYTE   W12
 BYTE   Fs1
 BYTE   W12
 BYTE   Cn1
 BYTE   N06  Fs1
 BYTE   W12
 BYTE   Fs1
 BYTE   W12
 BYTE   Dn1
 BYTE   N06  Cn1
 BYTE   N06  Fs1
 BYTE   W12
 BYTE   N12  As1
 BYTE   N06  Fs1
 BYTE   W12
//  #01 //032   ----------------------------------------
Label_01026CB0:
 BYTE   N06  Cn1  v085
 BYTE   N06  Fs1
 BYTE   W12
 BYTE   Fs1
 BYTE   W12
 BYTE   Dn1
 BYTE   N06  Cn1
 BYTE   N06  Fs1
 BYTE   W12
 BYTE   Fs1
 BYTE   W12
 BYTE   Cn1
 BYTE   N06  Fs1
 BYTE   W12
 BYTE   Fs1
 BYTE   W12
 BYTE   Dn1
 BYTE   N06  Cn1
 BYTE   N06  Fs1
 BYTE   W12
 BYTE   Fs1
 BYTE   W12
 BYTE   PEND 
//  #01 //033   ----------------------------------------
 BYTE   PATT
  POIN2 Label_01026CB0
//  #01 //034   ----------------------------------------
 BYTE   PATT
  POIN2 Label_01026CB0
//  #01 //035   ----------------------------------------
 BYTE   PATT
  POIN2 Label_01026AEA
//  #01 //036   ----------------------------------------
 BYTE   PATT
  POIN2 Label_01026CB0
//  #01 //037   ----------------------------------------
 BYTE   PATT
  POIN2 Label_01026CB0
//  #01 //038   ----------------------------------------
 BYTE   PATT
  POIN2 Label_01026CB0
//  #01 //039   ----------------------------------------
 BYTE   N06  Cn1  v085
 BYTE   N06  Fs1
 BYTE   W12
 BYTE   Fs1
 BYTE   W12
 BYTE   Dn1
 BYTE   N06  Cn1
 BYTE   N06  Fs1
 BYTE   W12
 BYTE   Fs1
 BYTE   W12
 BYTE   Cn1
 BYTE   N06  Fs1
 BYTE   W06
 BYTE   Fs1
 BYTE   W06
 BYTE   Fs1
 BYTE   W12
 BYTE   Dn1
 BYTE   N06  Cn1
 BYTE   N06  Fs1
 BYTE   W12
 BYTE   N12  As1
 BYTE   N06  Fs1
 BYTE   W12
//  #01 //040   ----------------------------------------
 BYTE   PATT
  POIN2 Label_01026CB0
//  #01 //041   ----------------------------------------
 BYTE   PATT
  POIN2 Label_01026AEA
//  #01 //042   ----------------------------------------
 BYTE   PATT
  POIN2 Label_01026CB0
//  #01 //043   ----------------------------------------
 BYTE   PATT
  POIN2 Label_01026AEA
//  #01 //044   ----------------------------------------
 BYTE   PATT
  POIN2 Label_01026CB0
//  #01 //045   ----------------------------------------
 BYTE   PATT
  POIN2 Label_01026AEA
//  #01 //046   ----------------------------------------
 BYTE   PATT
  POIN2 Label_01026CB0
//  #01 //047   ----------------------------------------
 BYTE   PATT
  POIN2 Label_01026AEA
//  #01 //048   ----------------------------------------
Label_01026D38:
 BYTE   N36  Gn2  v095
 BYTE   N06  Fs1  v085
 BYTE   N06  Cn1
 BYTE   W12
 BYTE   Fs1
 BYTE   W12
 BYTE   Fs1
 BYTE   N06  Cn1
 BYTE   N06  Dn1
 BYTE   W12
 BYTE   Fs1
 BYTE   W12
 BYTE   Cn1
 BYTE   N06  Fs1
 BYTE   W12
 BYTE   Fs1
 BYTE   W12
 BYTE   Fs1
 BYTE   N06  Cn1
 BYTE   N06  Dn1
 BYTE   W12
 BYTE   Fs1
 BYTE   W12
 BYTE   PEND 
//  #01 //049   ----------------------------------------
 BYTE   PATT
  POIN2 Label_01026AAA
//  #01 //050   ----------------------------------------
 BYTE   PATT
  POIN2 Label_01026A8B
//  #01 //051   ----------------------------------------
 BYTE   N06  Cn1  v085
 BYTE   N06  Fs1
 BYTE   W12
 BYTE   Fs1
 BYTE   W12
 BYTE   Fs1
 BYTE   N06  Cn1
 BYTE   N06  Dn1
 BYTE   W12
 BYTE   Fs1
 BYTE   W12
 BYTE   Cn1
 BYTE   N06  Fs1
 BYTE   W06
 BYTE   Fs1
 BYTE   W06
 BYTE   Fs1
 BYTE   W12
 BYTE   Fs1
 BYTE   N06  Cn1
 BYTE   N06  Dn1
 BYTE   W12
 BYTE   Fs1
 BYTE   N12  As1
 BYTE   W12
//  #01 //052   ----------------------------------------
 BYTE   PATT
  POIN2 Label_01026D38
//  #01 //053   ----------------------------------------
 BYTE   PATT
  POIN2 Label_01026AAA
//  #01 //054   ----------------------------------------
 BYTE   PATT
  POIN2 Label_01026A8B
//  #01 //055   ----------------------------------------
 BYTE   N06  Cn1  v085
 BYTE   N06  Fs1
 BYTE   W12
 BYTE   Fs1
 BYTE   W12
 BYTE   Fs1
 BYTE   N06  Cn1
 BYTE   N06  Dn1
 BYTE   W12
 BYTE   Fs1
 BYTE   W12
 BYTE   Cn1
 BYTE   N06  Fs1
 BYTE   W06
 BYTE   Fs1
 BYTE   W06
 BYTE   Fs1
 BYTE   W12
 BYTE   Dn1
 BYTE   N06  Cn1
 BYTE   N06  Fs1
 BYTE   W12
 BYTE   Fs1
 BYTE   N12  As1
 BYTE   W12
//  #01 //056   ----------------------------------------
Label_01026DB7:
 BYTE   N36  Gn2  v095
 BYTE   N06  Fs1  v085
 BYTE   N06  Cn1
 BYTE   W12
 BYTE   Fs1
 BYTE   W12
 BYTE   Dn1
 BYTE   N06  Cn1
 BYTE   N06  Fs1
 BYTE   W12
 BYTE   Fs1
 BYTE   W12
 BYTE   Cn1
 BYTE   N06  Fs1
 BYTE   W12
 BYTE   Fs1
 BYTE   W12
 BYTE   Dn1
 BYTE   N06  Cn1
 BYTE   N06  Fs1
 BYTE   W12
 BYTE   Fs1
 BYTE   W12
 BYTE   PEND 
//  #01 //057   ----------------------------------------
 BYTE   PATT
  POIN2 Label_01026C1F
//  #01 //058   ----------------------------------------
 BYTE   PATT
  POIN2 Label_01026C66
//  #01 //059   ----------------------------------------
 BYTE   PATT
  POIN2 Label_01026C1F
//  #01 //060   ----------------------------------------
 BYTE   PATT
  POIN2 Label_01026C66
//  #01 //061   ----------------------------------------
 BYTE   PATT
  POIN2 Label_01026C1F
//  #01 //062   ----------------------------------------
 BYTE   PATT
  POIN2 Label_01026C66
//  #01 //063   ----------------------------------------
 BYTE   PATT
  POIN2 Label_01026B5C
//  #01 //064   ----------------------------------------
 BYTE   PATT
  POIN2 Label_01026DB7
//  #01 //065   ----------------------------------------
 BYTE   PATT
  POIN2 Label_01026C1F
//  #01 //066   ----------------------------------------
 BYTE   PATT
  POIN2 Label_01026C66
//  #01 //067   ----------------------------------------
 BYTE   PATT
  POIN2 Label_01026C1F
//  #01 //068   ----------------------------------------
 BYTE   N06  Fs1  v085
 BYTE   N06  Cn1
 BYTE   W12
 BYTE   Fs1
 BYTE   W12
 BYTE   Fs1
 BYTE   N06  Cn1
 BYTE   N06  Dn1
 BYTE   W12
 BYTE   Fs1
 BYTE   W12
 BYTE   Cn1
 BYTE   N06  Fs1
 BYTE   W12
 BYTE   Fs1
 BYTE   W12
 BYTE   Dn1
 BYTE   N06  Cn1
 BYTE   N06  Fs1
 BYTE   W12
 BYTE   Fs1
 BYTE   W12
//  #01 //069   ----------------------------------------
 BYTE   PATT
  POIN2 Label_01026CB0
//  #01 //070   ----------------------------------------
 BYTE   PATT
  POIN2 Label_01026CB0
//  #01 //071   ----------------------------------------
 BYTE   N06  Cn1  v085
 BYTE   N06  Fs1
 BYTE   W12
 BYTE   Fs1
 BYTE   W12
 BYTE   Dn1
 BYTE   N06  Cn1
 BYTE   N06  Fs1
 BYTE   W12
 BYTE   Fs1
 BYTE   W12
 BYTE   Cn1
 BYTE   N06  Fs1
 BYTE   W12
 BYTE   Dn1
 BYTE   N06  Fs1
 BYTE   W12
 BYTE   Dn1
 BYTE   N06  Cn1
 BYTE   N06  Fs1
 BYTE   W12
 BYTE   Dn1
 BYTE   N06  Fs1
 BYTE   W12
//  #01 //072   ----------------------------------------
Label_01026E5A:
 BYTE   N06  Fs1  v085
 BYTE   W12
 BYTE   Fs1
 BYTE   W12
 BYTE   Fs1
 BYTE   W12
 BYTE   Fs1
 BYTE   W12
 BYTE   Fs1
 BYTE   W12
 BYTE   Fs1
 BYTE   W12
 BYTE   Fs1
 BYTE   W12
 BYTE   Fs1
 BYTE   W12
 BYTE   PEND 
//  #01 //073   ----------------------------------------
Label_01026E6D:
 BYTE   N06  Fs1  v085
 BYTE   W12
 BYTE   Fs1
 BYTE   W12
 BYTE   Fs1
 BYTE   W12
 BYTE   Fs1
 BYTE   W12
 BYTE   Fs1
 BYTE   N06  Cn1
 BYTE   W12
 BYTE   As1
 BYTE   N06  Fs1
 BYTE   W12
 BYTE   Fs1
 BYTE   N06  Cn1
 BYTE   W12
 BYTE   As1
 BYTE   N06  Fs1
 BYTE   W12
 BYTE   PEND 
//  #01 //074   ----------------------------------------
 BYTE   PATT
  POIN2 Label_01026E5A
//  #01 //075   ----------------------------------------
 BYTE   PATT
  POIN2 Label_01026E6D
//  #01 //076   ----------------------------------------
 BYTE   PATT
  POIN2 Label_01026E5A
//  #01 //077   ----------------------------------------
 BYTE   PATT
  POIN2 Label_01026E5A
//  #01 //078   ----------------------------------------
 BYTE   N06  Fs1  v085
 BYTE   N36  Gn2  v095
 BYTE   W12
 BYTE   N06  Fs1  v085
 BYTE   W12
 BYTE   Fs1
 BYTE   W12
 BYTE   Fs1
 BYTE   W12
 BYTE   Fs1
 BYTE   W12
 BYTE   Fs1
 BYTE   W12
 BYTE   Fs1
 BYTE   W12
 BYTE   Fs1
 BYTE   W12
//  #01 //079   ----------------------------------------
 BYTE   Fs1
 BYTE   W12
 BYTE   Fs1
 BYTE   W12
 BYTE   Fs1
 BYTE   W12
 BYTE   Fs1
 BYTE   W12
 BYTE   N96  En2  v095
 BYTE   N06  Fs1  v085
 BYTE   W12
 BYTE   Fs1
 BYTE   W12
 BYTE   Fs1
 BYTE   W12
 BYTE   Fs1
 BYTE   W12
//  #01 //080   ----------------------------------------
 BYTE   Fs1
 BYTE   N06  Cn1
 BYTE   W06
 BYTE   Cn1
 BYTE   W06
 BYTE   Fs1
 BYTE   N06  Dn1
 BYTE   W12
 BYTE   Fs1
 BYTE   N06  Dn1
 BYTE   W06
 BYTE   Dn1
 BYTE   W06
 BYTE   Fs1
 BYTE   N06  Cs1
 BYTE   W06
 BYTE   Cn1
 BYTE   W06
 BYTE   N96  Cs2  v095
 BYTE   N06  Fs1  v085
 BYTE   N06  Cn1
 BYTE   W12
 BYTE   Fs1
 BYTE   W12
 BYTE   Cn1
 BYTE   N06  Fs1
 BYTE   W12
 BYTE   Fs1
 BYTE   W12
//  #01 //081   ----------------------------------------
Label_01026EEF:
 BYTE   N06  Fs1  v085
 BYTE   N06  Cn1
 BYTE   W12
 BYTE   Fs1
 BYTE   W12
 BYTE   Cn1
 BYTE   N06  Fs1
 BYTE   W12
 BYTE   Fs1
 BYTE   W12
 BYTE   Cn1
 BYTE   N06  Fs1
 BYTE   W12
 BYTE   Fs1
 BYTE   W12
 BYTE   Cn1
 BYTE   N06  Fs1
 BYTE   W12
 BYTE   Fs1
 BYTE   W12
 BYTE   PEND 
//  #01 //082   ----------------------------------------
 BYTE   Cn1
 BYTE   N06  Fs1
 BYTE   W06
 BYTE   Fs1
 BYTE   W06
 BYTE   Fs1
 BYTE   W12
 BYTE   Cn1
 BYTE   N06  Fs1
 BYTE   W12
 BYTE   N12  As1
 BYTE   N06  Fs1
 BYTE   W12
 BYTE   Cn1
 BYTE   N06  Fs1
 BYTE   W12
 BYTE   Fs1
 BYTE   W12
 BYTE   Cn1
 BYTE   N06  Fs1
 BYTE   W12
 BYTE   Fs1
 BYTE   W12
//  #01 //083   ----------------------------------------
 BYTE   PATT
  POIN2 Label_01026EEF
//  #01 //084   ----------------------------------------
 BYTE   N06  Cn1  v085
 BYTE   N06  Fs1
 BYTE   W06
 BYTE   Fs1
 BYTE   W06
 BYTE   Fs1
 BYTE   W12
 BYTE   Cn1
 BYTE   N06  Fs1
 BYTE   W12
 BYTE   N12  As1
 BYTE   N06  Fs1
 BYTE   W12
 BYTE   GoTo
  POIN2 Label_01026A4A
 BYTE   FINE

//**************** Track 2 (Midi-Chn.1) ****************//

CastlevaniaPortraitofRuinJailofJewelTak_002:
//  #02 //000   ----------------------------------------
 BYTE   KEYSH   CastlevaniaPortraitofRuinJailofJewelTak_key+0
 BYTE   VOICE   51
 BYTE   VOL   56*CastlevaniaPortraitofRuinJailofJewelTak_mvl/mxv
 BYTE   BENDR  12
 BYTE   TIE  An0  v085
 BYTE   TIE  An1
 BYTE   W96
//  #02 //001   ----------------------------------------
 BYTE   W96
//  #02 //002   ----------------------------------------
 BYTE   W96
//  #02 //003   ----------------------------------------
 BYTE   EOT
 BYTE   EOT
 BYTE   An0
 BYTE   W96
//  #02 //004   ----------------------------------------
 BYTE   W96
//  #02 //005   ----------------------------------------
 BYTE   W96
//  #02 //006   ----------------------------------------
 BYTE   W96
//  #02 //007   ----------------------------------------
 BYTE   W96
//  #02 //008   ----------------------------------------
Label_0100303C:
 BYTE   W96
//  #02 //009   ----------------------------------------
 BYTE   W96
//  #02 //010   ----------------------------------------
 BYTE   W96
//  #02 //011   ----------------------------------------
 BYTE   W96
//  #02 //012   ----------------------------------------
 BYTE   W96
//  #02 //013   ----------------------------------------
 BYTE   W96
//  #02 //014   ----------------------------------------
 BYTE   W96
//  #02 //015   ----------------------------------------
 BYTE   W96
//  #02 //016   ----------------------------------------
 BYTE   N96  Cn2  v085
 BYTE   W96
//  #02 //017   ----------------------------------------
 BYTE   Bn1
 BYTE   W96
//  #02 //018   ----------------------------------------
 BYTE   An1
 BYTE   W96
//  #02 //019   ----------------------------------------
 BYTE   Bn1
 BYTE   W96
//  #02 //020   ----------------------------------------
 BYTE   Cn2
 BYTE   W96
//  #02 //021   ----------------------------------------
 BYTE   Bn1
 BYTE   W96
//  #02 //022   ----------------------------------------
 BYTE   W96
//  #02 //023   ----------------------------------------
 BYTE   W96
//  #02 //024   ----------------------------------------
 BYTE   W24
 BYTE   TIE  Cs2
 BYTE   W72
//  #02 //025   ----------------------------------------
 BYTE   W96
//  #02 //026   ----------------------------------------
 BYTE   W96
//  #02 //027   ----------------------------------------
 BYTE   W72
 BYTE   EOT
 BYTE   W24
//  #02 //028   ----------------------------------------
 BYTE   N84
 BYTE   W96
//  #02 //029   ----------------------------------------
 BYTE   En2
 BYTE   W96
//  #02 //030   ----------------------------------------
 BYTE   En2
 BYTE   W96
//  #02 //031   ----------------------------------------
 BYTE   Gs2
 BYTE   W96
//  #02 //032   ----------------------------------------
 BYTE   TIE  An1
 BYTE   W96
//  #02 //033   ----------------------------------------
 BYTE   W96
//  #02 //034   ----------------------------------------
 BYTE   W96
//  #02 //035   ----------------------------------------
 BYTE   EOT
 BYTE   W96
//  #02 //036   ----------------------------------------
 BYTE   TIE  Cs2
 BYTE   W96
//  #02 //037   ----------------------------------------
 BYTE   W48
 BYTE   EOT
 BYTE   N48  En2
 BYTE   W48
//  #02 //038   ----------------------------------------
 BYTE   N96  Bn1
 BYTE   W96
//  #02 //039   ----------------------------------------
 BYTE   Cs2
 BYTE   W96
//  #02 //040   ----------------------------------------
 BYTE   N36  Gn1
 BYTE   W36
 BYTE   TIE  Fs1
 BYTE   W60
//  #02 //041   ----------------------------------------
 BYTE   W96
//  #02 //042   ----------------------------------------
 BYTE   EOT
 BYTE   N36  Gn1
 BYTE   W36
 BYTE   TIE  An1
 BYTE   W60
//  #02 //043   ----------------------------------------
 BYTE   W96
//  #02 //044   ----------------------------------------
 BYTE   EOT
 BYTE   N36  As1
 BYTE   W36
 BYTE   N72  An1
 BYTE   W60
//  #02 //045   ----------------------------------------
 BYTE   W12
 BYTE   N36  As1
 BYTE   W36
 BYTE   N24  Cn2
 BYTE   W24
 BYTE   Dn2
 BYTE   W24
//  #02 //046   ----------------------------------------
 BYTE   N36  En2
 BYTE   W36
 BYTE   TIE  Ds2
 BYTE   W60
//  #02 //047   ----------------------------------------
 BYTE   W96
//  #02 //048   ----------------------------------------
 BYTE   EOT
 BYTE   N48  En2
 BYTE   W48
 BYTE   Dn2
 BYTE   W48
//  #02 //049   ----------------------------------------
Label_010030A5:
 BYTE   N48  Cn2  v085
 BYTE   W48
 BYTE   Dn2
 BYTE   W48
 BYTE   PEND 
//  #02 //050   ----------------------------------------
Label_010030AC:
 BYTE   N48  En2  v085
 BYTE   W48
 BYTE   Dn2
 BYTE   W48
 BYTE   PEND 
//  #02 //051   ----------------------------------------
 BYTE   PATT
  POIN2 Label_010030A5
//  #02 //052   ----------------------------------------
 BYTE   PATT
  POIN2 Label_010030AC
//  #02 //053   ----------------------------------------
 BYTE   PATT
  POIN2 Label_010030A5
//  #02 //054   ----------------------------------------
 BYTE   PATT
  POIN2 Label_010030AC
//  #02 //055   ----------------------------------------
 BYTE   N48  Fs2  v085
 BYTE   W48
 BYTE   TIE  An1
 BYTE   W48
//  #02 //056   ----------------------------------------
 BYTE   W96
//  #02 //057   ----------------------------------------
 BYTE   W96
//  #02 //058   ----------------------------------------
 BYTE   EOT
 BYTE   N96  Gn1
 BYTE   W96
//  #02 //059   ----------------------------------------
 BYTE   Bn1
 BYTE   W96
//  #02 //060   ----------------------------------------
 BYTE   Cn2
 BYTE   W96
//  #02 //061   ----------------------------------------
 BYTE   Dn2
 BYTE   W96
//  #02 //062   ----------------------------------------
 BYTE   En2
 BYTE   W96
//  #02 //063   ----------------------------------------
 BYTE   TIE  An2
 BYTE   W96
//  #02 //064   ----------------------------------------
 BYTE   W96
//  #02 //065   ----------------------------------------
 BYTE   W96
//  #02 //066   ----------------------------------------
 BYTE   EOT
 BYTE   TIE  Gn2
 BYTE   W96
//  #02 //067   ----------------------------------------
 BYTE   W96
//  #02 //068   ----------------------------------------
 BYTE   W36
 BYTE   EOT
 BYTE   TIE  En2
 BYTE   W60
//  #02 //069   ----------------------------------------
 BYTE   W96
//  #02 //070   ----------------------------------------
 BYTE   EOT
 BYTE   W96
//  #02 //071   ----------------------------------------
 BYTE   W96
//  #02 //072   ----------------------------------------
 BYTE   W96
//  #02 //073   ----------------------------------------
 BYTE   W96
//  #02 //074   ----------------------------------------
 BYTE   W96
//  #02 //075   ----------------------------------------
 BYTE   W96
//  #02 //076   ----------------------------------------
 BYTE   W96
//  #02 //077   ----------------------------------------
 BYTE   W96
//  #02 //078   ----------------------------------------
 BYTE   W96
//  #02 //079   ----------------------------------------
 BYTE   W96
//  #02 //080   ----------------------------------------
 BYTE   W96
//  #02 //081   ----------------------------------------
 BYTE   W96
//  #02 //082   ----------------------------------------
 BYTE   W96
//  #02 //083   ----------------------------------------
 BYTE   W96
//  #02 //084   ----------------------------------------
 BYTE   W48
 BYTE   GoTo
  POIN2 Label_0100303C
 BYTE   FINE

//**************** Track 3 (Midi-Chn.2) ****************//

CastlevaniaPortraitofRuinJailofJewelTak_003:
//  #03 //000   ----------------------------------------
 BYTE   KEYSH   CastlevaniaPortraitofRuinJailofJewelTak_key+0
 BYTE   VOICE   34
 BYTE   VOL   76*CastlevaniaPortraitofRuinJailofJewelTak_mvl/mxv
 BYTE   BENDR  12
 BYTE   N12  An1  v085
 BYTE   W12
 BYTE   An1
 BYTE   W12
 BYTE   Cn2
 BYTE   W12
 BYTE   An1
 BYTE   W12
 BYTE   An1
 BYTE   W12
 BYTE   Cn2
 BYTE   W12
 BYTE   An1
 BYTE   W12
 BYTE   An1
 BYTE   W12
//  #03 //001   ----------------------------------------
Label_01025BAA:
 BYTE   N12  An1  v085
 BYTE   W12
 BYTE   An1
 BYTE   W12
 BYTE   Cn2
 BYTE   W12
 BYTE   An1
 BYTE   W12
 BYTE   An1
 BYTE   W12
 BYTE   Cn2
 BYTE   W12
 BYTE   An1
 BYTE   W12
 BYTE   An1
 BYTE   W12
 BYTE   PEND 
//  #03 //002   ----------------------------------------
 BYTE   PATT
  POIN2 Label_01025BAA
//  #03 //003   ----------------------------------------
 BYTE   PATT
  POIN2 Label_01025BAA
//  #03 //004   ----------------------------------------
 BYTE   PATT
  POIN2 Label_01025BAA
//  #03 //005   ----------------------------------------
 BYTE   PATT
  POIN2 Label_01025BAA
//  #03 //006   ----------------------------------------
 BYTE   PATT
  POIN2 Label_01025BAA
//  #03 //007   ----------------------------------------
 BYTE   PATT
  POIN2 Label_01025BAA
//  #03 //008   ----------------------------------------
Label_01025BDB:
 BYTE   N12  An1  v085
 BYTE   W12
 BYTE   An1
 BYTE   W12
 BYTE   Cn2
 BYTE   W12
 BYTE   An1
 BYTE   W12
 BYTE   An1
 BYTE   W12
 BYTE   Cn2
 BYTE   W12
 BYTE   An1
 BYTE   W12
 BYTE   An1
 BYTE   W12
//  #03 //009   ----------------------------------------
Label_01025BED:
 BYTE   N12  Gn1  v085
 BYTE   W12
 BYTE   Gn1
 BYTE   W12
 BYTE   Bn1
 BYTE   W12
 BYTE   Gn1
 BYTE   W12
 BYTE   Gn1
 BYTE   W12
 BYTE   Bn1
 BYTE   W12
 BYTE   Gn1
 BYTE   W12
 BYTE   Gn1
 BYTE   W12
 BYTE   PEND 
//  #03 //010   ----------------------------------------
Label_01025C00:
 BYTE   N12  Fn1  v085
 BYTE   W12
 BYTE   Fn1
 BYTE   W12
 BYTE   An1
 BYTE   W12
 BYTE   Fn1
 BYTE   W12
 BYTE   Fn1
 BYTE   W12
 BYTE   An1
 BYTE   W12
 BYTE   Fn1
 BYTE   W12
 BYTE   Fn1
 BYTE   W12
 BYTE   PEND 
//  #03 //011   ----------------------------------------
 BYTE   PATT
  POIN2 Label_01025BED
//  #03 //012   ----------------------------------------
 BYTE   PATT
  POIN2 Label_01025BAA
//  #03 //013   ----------------------------------------
 BYTE   PATT
  POIN2 Label_01025BED
//  #03 //014   ----------------------------------------
Label_01025C22:
 BYTE   N12  Fn1  v085
 BYTE   W36
 BYTE   Gn1
 BYTE   W24
 BYTE   Gn1
 BYTE   W24
 BYTE   Gn1
 BYTE   W12
 BYTE   PEND 
//  #03 //015   ----------------------------------------
Label_01025C2D:
 BYTE   W12
 BYTE   N12  An1  v085
 BYTE   W12
 BYTE   An1
 BYTE   W72
 BYTE   PEND 
//  #03 //016   ----------------------------------------
 BYTE   PATT
  POIN2 Label_01025BAA
//  #03 //017   ----------------------------------------
 BYTE   PATT
  POIN2 Label_01025BED
//  #03 //018   ----------------------------------------
 BYTE   PATT
  POIN2 Label_01025C00
//  #03 //019   ----------------------------------------
 BYTE   PATT
  POIN2 Label_01025BED
//  #03 //020   ----------------------------------------
 BYTE   PATT
  POIN2 Label_01025BAA
//  #03 //021   ----------------------------------------
 BYTE   PATT
  POIN2 Label_01025BED
//  #03 //022   ----------------------------------------
 BYTE   PATT
  POIN2 Label_01025C22
//  #03 //023   ----------------------------------------
 BYTE   PATT
  POIN2 Label_01025C2D
//  #03 //024   ----------------------------------------
Label_01025C5D:
 BYTE   N12  Fs1  v085
 BYTE   W12
 BYTE   Fs1
 BYTE   W12
 BYTE   An1
 BYTE   W12
 BYTE   Fs1
 BYTE   W12
 BYTE   Fs1
 BYTE   W12
 BYTE   An1
 BYTE   W12
 BYTE   Fs1
 BYTE   W12
 BYTE   Fs1
 BYTE   W12
 BYTE   PEND 
//  #03 //025   ----------------------------------------
 BYTE   PATT
  POIN2 Label_01025C5D
//  #03 //026   ----------------------------------------
 BYTE   PATT
  POIN2 Label_01025C5D
//  #03 //027   ----------------------------------------
 BYTE   PATT
  POIN2 Label_01025C5D
//  #03 //028   ----------------------------------------
 BYTE   PATT
  POIN2 Label_01025C5D
//  #03 //029   ----------------------------------------
 BYTE   PATT
  POIN2 Label_01025C5D
//  #03 //030   ----------------------------------------
Label_01025C89:
 BYTE   N12  Gs1  v085
 BYTE   W12
 BYTE   Gs1
 BYTE   W12
 BYTE   Bn1
 BYTE   W12
 BYTE   Gs1
 BYTE   W12
 BYTE   Gs1
 BYTE   W12
 BYTE   Bn1
 BYTE   W12
 BYTE   Gs1
 BYTE   W12
 BYTE   Gs1
 BYTE   W12
 BYTE   PEND 
//  #03 //031   ----------------------------------------
 BYTE   PATT
  POIN2 Label_01025C89
//  #03 //032   ----------------------------------------
 BYTE   PATT
  POIN2 Label_01025C5D
//  #03 //033   ----------------------------------------
 BYTE   PATT
  POIN2 Label_01025C5D
//  #03 //034   ----------------------------------------
 BYTE   PATT
  POIN2 Label_01025C5D
//  #03 //035   ----------------------------------------
 BYTE   PATT
  POIN2 Label_01025C5D
//  #03 //036   ----------------------------------------
 BYTE   PATT
  POIN2 Label_01025C5D
//  #03 //037   ----------------------------------------
 BYTE   N12  Fs1  v085
 BYTE   W12
 BYTE   Fs1
 BYTE   W12
 BYTE   An1
 BYTE   W12
 BYTE   Fs1
 BYTE   W12
 BYTE   An1
 BYTE   W12
 BYTE   An1
 BYTE   W12
 BYTE   An1
 BYTE   W12
 BYTE   An1
 BYTE   W12
//  #03 //038   ----------------------------------------
 BYTE   En1
 BYTE   W12
 BYTE   En1
 BYTE   W12
 BYTE   En1
 BYTE   W12
 BYTE   En1
 BYTE   W12
 BYTE   En1
 BYTE   W12
 BYTE   En1
 BYTE   W12
 BYTE   En1
 BYTE   W12
 BYTE   En1
 BYTE   W12
//  #03 //039   ----------------------------------------
 BYTE   Fs1
 BYTE   W12
 BYTE   Fs1
 BYTE   W12
 BYTE   Fs1
 BYTE   W12
 BYTE   Fs1
 BYTE   W12
 BYTE   Fs1
 BYTE   W12
 BYTE   Fs1
 BYTE   W12
 BYTE   Fs1
 BYTE   W12
 BYTE   Fs1
 BYTE   W12
//  #03 //040   ----------------------------------------
 BYTE   PATT
  POIN2 Label_01025BAA
//  #03 //041   ----------------------------------------
 BYTE   PATT
  POIN2 Label_01025BAA
//  #03 //042   ----------------------------------------
 BYTE   PATT
  POIN2 Label_01025BAA
//  #03 //043   ----------------------------------------
 BYTE   PATT
  POIN2 Label_01025BAA
//  #03 //044   ----------------------------------------
 BYTE   PATT
  POIN2 Label_01025BAA
//  #03 //045   ----------------------------------------
 BYTE   PATT
  POIN2 Label_01025BAA
//  #03 //046   ----------------------------------------
 BYTE   PATT
  POIN2 Label_01025BAA
//  #03 //047   ----------------------------------------
 BYTE   PATT
  POIN2 Label_01025BAA
//  #03 //048   ----------------------------------------
Label_01025D14:
 BYTE   N12  An1  v085
 BYTE   W12
 BYTE   An2
 BYTE   W12
 BYTE   An1
 BYTE   W12
 BYTE   An0
 BYTE   W12
 BYTE   Gn0
 BYTE   W12
 BYTE   Gn2
 BYTE   W12
 BYTE   Gn1
 BYTE   W12
 BYTE   Gn0
 BYTE   W12
 BYTE   PEND 
//  #03 //049   ----------------------------------------
Label_01025D27:
 BYTE   N12  Fn0  v085
 BYTE   W12
 BYTE   Fn2
 BYTE   W12
 BYTE   Fn1
 BYTE   W12
 BYTE   Gn0
 BYTE   W12
 BYTE   Fn0
 BYTE   W12
 BYTE   Gn2
 BYTE   W12
 BYTE   Gn1
 BYTE   W12
 BYTE   Gn2
 BYTE   W12
 BYTE   PEND 
//  #03 //050   ----------------------------------------
 BYTE   PATT
  POIN2 Label_01025D14
//  #03 //051   ----------------------------------------
 BYTE   PATT
  POIN2 Label_01025D27
//  #03 //052   ----------------------------------------
 BYTE   PATT
  POIN2 Label_01025D14
//  #03 //053   ----------------------------------------
 BYTE   N12  Fn0  v085
 BYTE   W12
 BYTE   Fn2
 BYTE   W12
 BYTE   Fn1
 BYTE   W12
 BYTE   Gn0
 BYTE   W12
 BYTE   N06  Fn0
 BYTE   W12
 BYTE   Gn2
 BYTE   W12
 BYTE   N12  Gn1
 BYTE   W12
 BYTE   Gn2
 BYTE   W12
//  #03 //054   ----------------------------------------
 BYTE   An0
 BYTE   W12
 BYTE   An2
 BYTE   W12
 BYTE   An1
 BYTE   W12
 BYTE   N24  An2
 BYTE   W24
 BYTE   N12
 BYTE   W12
 BYTE   Cn1
 BYTE   W12
 BYTE   Bn0
 BYTE   W12
//  #03 //055   ----------------------------------------
 BYTE   An0
 BYTE   W12
 BYTE   Bn0
 BYTE   W12
 BYTE   Cn1
 BYTE   W12
 BYTE   Dn1
 BYTE   W12
 BYTE   En1
 BYTE   W12
 BYTE   N36  An0
 BYTE   W36
//  #03 //056   ----------------------------------------
Label_01025D79:
 BYTE   N12  Fn0  v085
 BYTE   W12
 BYTE   Fn1
 BYTE   W12
 BYTE   Fn0
 BYTE   W12
 BYTE   Fn1
 BYTE   W12
 BYTE   Fn0
 BYTE   W12
 BYTE   Fn1
 BYTE   W12
 BYTE   Fn0
 BYTE   W12
 BYTE   Fn1
 BYTE   W12
 BYTE   PEND 
//  #03 //057   ----------------------------------------
 BYTE   PATT
  POIN2 Label_01025D79
//  #03 //058   ----------------------------------------
Label_01025D91:
 BYTE   N12  En0  v085
 BYTE   W12
 BYTE   En1
 BYTE   W12
 BYTE   En0
 BYTE   W12
 BYTE   En1
 BYTE   W12
 BYTE   En0
 BYTE   W12
 BYTE   En1
 BYTE   W12
 BYTE   En0
 BYTE   W12
 BYTE   En1
 BYTE   W12
 BYTE   PEND 
//  #03 //059   ----------------------------------------
 BYTE   PATT
  POIN2 Label_01025D91
//  #03 //060   ----------------------------------------
Label_01025DA9:
 BYTE   N12  An0  v085
 BYTE   W12
 BYTE   An1
 BYTE   W12
 BYTE   An0
 BYTE   W12
 BYTE   An1
 BYTE   W12
 BYTE   An0
 BYTE   W12
 BYTE   An1
 BYTE   W12
 BYTE   An0
 BYTE   W12
 BYTE   An1
 BYTE   W12
 BYTE   PEND 
//  #03 //061   ----------------------------------------
 BYTE   PATT
  POIN2 Label_01025DA9
//  #03 //062   ----------------------------------------
 BYTE   PATT
  POIN2 Label_01025DA9
//  #03 //063   ----------------------------------------
 BYTE   N12  An0  v085
 BYTE   W12
 BYTE   An1
 BYTE   W12
 BYTE   An0
 BYTE   W12
 BYTE   An1
 BYTE   W12
 BYTE   Gn0
 BYTE   W12
 BYTE   Gn1
 BYTE   W12
 BYTE   Gn0
 BYTE   W12
 BYTE   Gn1
 BYTE   W12
//  #03 //064   ----------------------------------------
 BYTE   PATT
  POIN2 Label_01025D79
//  #03 //065   ----------------------------------------
 BYTE   PATT
  POIN2 Label_01025D79
//  #03 //066   ----------------------------------------
 BYTE   PATT
  POIN2 Label_01025D91
//  #03 //067   ----------------------------------------
 BYTE   PATT
  POIN2 Label_01025D91
//  #03 //068   ----------------------------------------
 BYTE   PATT
  POIN2 Label_01025DA9
//  #03 //069   ----------------------------------------
 BYTE   PATT
  POIN2 Label_01025DA9
//  #03 //070   ----------------------------------------
Label_01025DF6:
 BYTE   N12  An0  v085
 BYTE   W12
 BYTE   An0
 BYTE   W12
 BYTE   Cn1
 BYTE   W12
 BYTE   An0
 BYTE   W12
 BYTE   An0
 BYTE   W12
 BYTE   Cn1
 BYTE   W12
 BYTE   An0
 BYTE   W12
 BYTE   An0
 BYTE   W12
 BYTE   PEND 
//  #03 //071   ----------------------------------------
 BYTE   PATT
  POIN2 Label_01025DF6
//  #03 //072   ----------------------------------------
 BYTE   TIE  An1  v085
 BYTE   W96
//  #03 //073   ----------------------------------------
Label_01025E12:
 BYTE   W48
 BYTE   EOT
 BYTE   An1
 BYTE   N12  En1  v085
 BYTE   W24
 BYTE   En1
 BYTE   W24
 BYTE   PEND 
//  #03 //074   ----------------------------------------
 BYTE   TIE  An1
 BYTE   W96
//  #03 //075   ----------------------------------------
 BYTE   PATT
  POIN2 Label_01025E12
//  #03 //076   ----------------------------------------
 BYTE   TIE  An1  v085
 BYTE   W96
//  #03 //077   ----------------------------------------
 BYTE   W48
 BYTE   EOT
 BYTE   W48
//  #03 //078   ----------------------------------------
 BYTE   N96  En1
 BYTE   W96
//  #03 //079   ----------------------------------------
 BYTE   N48  Ds1
 BYTE   W48
 BYTE   Ds1
 BYTE   W48
//  #03 //080   ----------------------------------------
 BYTE   N18
 BYTE   W24
 BYTE   Ds1
 BYTE   W24
 BYTE   N12  An1
 BYTE   W12
 BYTE   An1
 BYTE   W12
 BYTE   Cn2
 BYTE   W12
 BYTE   An1
 BYTE   W12
//  #03 //081   ----------------------------------------
Label_01025E40:
 BYTE   N12  An1  v085
 BYTE   W12
 BYTE   Cn2
 BYTE   W12
 BYTE   An1
 BYTE   W12
 BYTE   An1
 BYTE   W12
 BYTE   An1
 BYTE   W12
 BYTE   An1
 BYTE   W12
 BYTE   Cn2
 BYTE   W12
 BYTE   An1
 BYTE   W12
 BYTE   PEND 
//  #03 //082   ----------------------------------------
 BYTE   PATT
  POIN2 Label_01025E40
//  #03 //083   ----------------------------------------
 BYTE   PATT
  POIN2 Label_01025E40
//  #03 //084   ----------------------------------------
 BYTE   N12  An1  v085
 BYTE   W12
 BYTE   Cn2
 BYTE   W12
 BYTE   An1
 BYTE   W12
 BYTE   An1
 BYTE   W12
 BYTE   GoTo
  POIN2 Label_01025BDB
 BYTE   FINE

//**************** Track 4 (Midi-Chn.3) ****************//

CastlevaniaPortraitofRuinJailofJewelTak_004:
//  #04 //000   ----------------------------------------
 BYTE   KEYSH   CastlevaniaPortraitofRuinJailofJewelTak_key+0
 BYTE   VOICE   40
 BYTE   BENDR  12
 BYTE   VOL   59*CastlevaniaPortraitofRuinJailofJewelTak_mvl/mxv
 BYTE   W96
//  #04 //001   ----------------------------------------
 BYTE   W96
//  #04 //002   ----------------------------------------
 BYTE   W96
//  #04 //003   ----------------------------------------
 BYTE   N06  An3  v085
 BYTE   W06
 BYTE   Gn3
 BYTE   W06
 BYTE   Fn3
 BYTE   W06
 BYTE   En3
 BYTE   W06
 BYTE   Gn3
 BYTE   W06
 BYTE   Fn3
 BYTE   W06
 BYTE   En3
 BYTE   W06
 BYTE   Dn3
 BYTE   W06
 BYTE   Fn3
 BYTE   W06
 BYTE   En3
 BYTE   W06
 BYTE   Dn3
 BYTE   W06
 BYTE   Cn3
 BYTE   W06
 BYTE   En3
 BYTE   W06
 BYTE   Dn3
 BYTE   W06
 BYTE   Cn3
 BYTE   W06
 BYTE   Bn2
 BYTE   W06
//  #04 //004   ----------------------------------------
 BYTE   TIE  An2
 BYTE   W96
//  #04 //005   ----------------------------------------
 BYTE   W96
//  #04 //006   ----------------------------------------
 BYTE   W96
//  #04 //007   ----------------------------------------
 BYTE   W96
//  #04 //008   ----------------------------------------
 BYTE   EOT
Label_01025EA4:
 BYTE   W96
//  #04 //009   ----------------------------------------
 BYTE   W96
//  #04 //010   ----------------------------------------
 BYTE   W96
//  #04 //011   ----------------------------------------
 BYTE   W96
//  #04 //012   ----------------------------------------
 BYTE   W96
//  #04 //013   ----------------------------------------
 BYTE   W96
//  #04 //014   ----------------------------------------
Label_01025EAA:
 BYTE   N36  An3  v085
 BYTE   W36
 BYTE   N12  Bn3
 BYTE   W24
 BYTE   Bn3
 BYTE   W24
 BYTE   N24
 BYTE   W12
 BYTE   PEND 
//  #04 //015   ----------------------------------------
Label_01025EB6:
 BYTE   W12
 BYTE   N12  Cn4  v085
 BYTE   W12
 BYTE   N72
 BYTE   W72
 BYTE   PEND 
//  #04 //016   ----------------------------------------
 BYTE   W96
//  #04 //017   ----------------------------------------
 BYTE   W96
//  #04 //018   ----------------------------------------
 BYTE   W96
//  #04 //019   ----------------------------------------
 BYTE   W96
//  #04 //020   ----------------------------------------
 BYTE   W96
//  #04 //021   ----------------------------------------
 BYTE   W96
//  #04 //022   ----------------------------------------
 BYTE   PATT
  POIN2 Label_01025EAA
//  #04 //023   ----------------------------------------
 BYTE   PATT
  POIN2 Label_01025EB6
//  #04 //024   ----------------------------------------
 BYTE   N96  An3  v085
 BYTE   W96
//  #04 //025   ----------------------------------------
 BYTE   N36  Cs4
 BYTE   W36
 BYTE   N24  Bn3
 BYTE   W24
 BYTE   TIE  An3
 BYTE   W36
//  #04 //026   ----------------------------------------
 BYTE   W96
//  #04 //027   ----------------------------------------
 BYTE   EOT
 BYTE   N12
 BYTE   W12
 BYTE   Bn3
 BYTE   W12
 BYTE   Cs4
 BYTE   W12
 BYTE   N24  An3
 BYTE   W24
 BYTE   TIE  Fs3
 BYTE   W36
//  #04 //028   ----------------------------------------
 BYTE   W96
//  #04 //029   ----------------------------------------
 BYTE   EOT
 BYTE   N96  An3
 BYTE   W96
//  #04 //030   ----------------------------------------
 BYTE   Gs3
 BYTE   W96
//  #04 //031   ----------------------------------------
 BYTE   Bn3
 BYTE   W96
//  #04 //032   ----------------------------------------
 BYTE   W96
//  #04 //033   ----------------------------------------
 BYTE   W96
//  #04 //034   ----------------------------------------
 BYTE   W96
//  #04 //035   ----------------------------------------
 BYTE   N12  An2
 BYTE   W12
 BYTE   Bn2
 BYTE   W12
 BYTE   Cs3
 BYTE   W12
 BYTE   N24  En3
 BYTE   W24
 BYTE   N12  Ds3
 BYTE   W12
 BYTE   Bn2
 BYTE   W12
 BYTE   TIE  Cs3
 BYTE   W12
//  #04 //036   ----------------------------------------
 BYTE   W96
//  #04 //037   ----------------------------------------
 BYTE   EOT
 BYTE   W96
//  #04 //038   ----------------------------------------
 BYTE   W96
//  #04 //039   ----------------------------------------
 BYTE   W96
//  #04 //040   ----------------------------------------
Label_01025F0C:
 BYTE   N06  An3  v085
 BYTE   N06  An2
 BYTE   W24
 BYTE   An3
 BYTE   N06  An2
 BYTE   W24
 BYTE   An3
 BYTE   N06  An2
 BYTE   W24
 BYTE   An3
 BYTE   N06  An2
 BYTE   W24
 BYTE   PEND 
//  #04 //041   ----------------------------------------
 BYTE   PATT
  POIN2 Label_01025F0C
//  #04 //042   ----------------------------------------
 BYTE   PATT
  POIN2 Label_01025F0C
//  #04 //043   ----------------------------------------
 BYTE   PATT
  POIN2 Label_01025F0C
//  #04 //044   ----------------------------------------
 BYTE   PATT
  POIN2 Label_01025F0C
//  #04 //045   ----------------------------------------
 BYTE   PATT
  POIN2 Label_01025F0C
//  #04 //046   ----------------------------------------
 BYTE   PATT
  POIN2 Label_01025F0C
//  #04 //047   ----------------------------------------
 BYTE   PATT
  POIN2 Label_01025F0C
//  #04 //048   ----------------------------------------
 BYTE   VOL   36*CastlevaniaPortraitofRuinJailofJewelTak_mvl/mxv
 BYTE   N48  En3  v085
 BYTE   W48
 BYTE   Dn3
 BYTE   W48
//  #04 //049   ----------------------------------------
Label_01025F4A:
 BYTE   N48  Cn3  v085
 BYTE   W48
 BYTE   Dn3
 BYTE   W48
 BYTE   PEND 
//  #04 //050   ----------------------------------------
 BYTE   En3
 BYTE   W48
 BYTE   N24  Gn3
 BYTE   W24
 BYTE   Fs3
 BYTE   W24
//  #04 //051   ----------------------------------------
 BYTE   PATT
  POIN2 Label_01025F4A
//  #04 //052   ----------------------------------------
Label_01025F5D:
 BYTE   N48  En3  v085
 BYTE   W48
 BYTE   Dn3
 BYTE   W48
 BYTE   PEND 
//  #04 //053   ----------------------------------------
 BYTE   PATT
  POIN2 Label_01025F4A
//  #04 //054   ----------------------------------------
 BYTE   PATT
  POIN2 Label_01025F5D
//  #04 //055   ----------------------------------------
 BYTE   N48  Fs3  v085
 BYTE   W48
 BYTE   An3
 BYTE   W48
//  #04 //056   ----------------------------------------
 BYTE   W96
//  #04 //057   ----------------------------------------
 BYTE   W96
//  #04 //058   ----------------------------------------
 BYTE   W96
//  #04 //059   ----------------------------------------
 BYTE   W96
//  #04 //060   ----------------------------------------
 BYTE   W96
//  #04 //061   ----------------------------------------
 BYTE   W96
//  #04 //062   ----------------------------------------
 BYTE   W96
//  #04 //063   ----------------------------------------
 BYTE   W96
//  #04 //064   ----------------------------------------
 BYTE   W96
//  #04 //065   ----------------------------------------
 BYTE   W96
//  #04 //066   ----------------------------------------
 BYTE   W96
//  #04 //067   ----------------------------------------
 BYTE   W96
//  #04 //068   ----------------------------------------
 BYTE   W96
//  #04 //069   ----------------------------------------
 BYTE   W96
//  #04 //070   ----------------------------------------
 BYTE   VOL   59*CastlevaniaPortraitofRuinJailofJewelTak_mvl/mxv
 BYTE   N36  Dn3
 BYTE   N36  Fn3
 BYTE   W36
 BYTE   TIE  Cn3
 BYTE   TIE  En3
 BYTE   W60
//  #04 //071   ----------------------------------------
 BYTE   W96
//  #04 //072   ----------------------------------------
 BYTE   EOT
 BYTE   Cn3  v064
 BYTE   N12  An3
 BYTE   W12
 BYTE   N24  En3
 BYTE   W24
 BYTE   N12  Gn3
 BYTE   W12
 BYTE   N24  Dn3
 BYTE   W24
 BYTE   N12  Fn3
 BYTE   W12
 BYTE   N24  Cn3
 BYTE   W12
//  #04 //073   ----------------------------------------
Label_01025FA4:
 BYTE   W12
 BYTE   N12  En3  v085
 BYTE   W12
 BYTE   N24  Bn2
 BYTE   W24
 BYTE   N12  Dn3
 BYTE   W12
 BYTE   As2
 BYTE   W12
 BYTE   Ds3
 BYTE   W12
 BYTE   As3
 BYTE   W12
 BYTE   PEND 
//  #04 //074   ----------------------------------------
Label_01025FB6:
 BYTE   N12  An3  v085
 BYTE   W12
 BYTE   N24  En3
 BYTE   W24
 BYTE   N12  Gn3
 BYTE   W12
 BYTE   N24  Dn3
 BYTE   W24
 BYTE   N12  Fn3
 BYTE   W12
 BYTE   N24  Cn3
 BYTE   W12
 BYTE   PEND 
//  #04 //075   ----------------------------------------
Label_01025FCA:
 BYTE   W12
 BYTE   N12  Cn4  v085
 BYTE   W12
 BYTE   N24  Gn3
 BYTE   W24
 BYTE   N12  Ds4
 BYTE   W12
 BYTE   As3
 BYTE   W12
 BYTE   Fn3
 BYTE   W12
 BYTE   As2
 BYTE   W12
 BYTE   PEND 
//  #04 //076   ----------------------------------------
 BYTE   PATT
  POIN2 Label_01025FB6
//  #04 //077   ----------------------------------------
Label_01025FE1:
 BYTE   W12
 BYTE   N12  En3  v085
 BYTE   W12
 BYTE   N24  Bn2
 BYTE   W24
 BYTE   N12  Dn3
 BYTE   W12
 BYTE   Fn2
 BYTE   W12
 BYTE   As2
 BYTE   W12
 BYTE   Ds3
 BYTE   W12
 BYTE   PEND 
//  #04 //078   ----------------------------------------
Label_01025FF3:
 BYTE   N12  Gs3  v085
 BYTE   W12
 BYTE   N24  Ds3
 BYTE   W24
 BYTE   N12  Cn4
 BYTE   W12
 BYTE   N24  Gs3
 BYTE   W24
 BYTE   N12  Bn3
 BYTE   W12
 BYTE   En3
 BYTE   W12
 BYTE   PEND 
//  #04 //079   ----------------------------------------
Label_01026006:
 BYTE   N12  Fn3  v085
 BYTE   W12
 BYTE   As3
 BYTE   W12
 BYTE   Ds4
 BYTE   W12
 BYTE   Fs3
 BYTE   W12
 BYTE   Bn3
 BYTE   W12
 BYTE   En4
 BYTE   W12
 BYTE   Gn4
 BYTE   W12
 BYTE   An3
 BYTE   W12
 BYTE   PEND 
//  #04 //080   ----------------------------------------
Label_01026019:
 BYTE   N12  Cn4  v085
 BYTE   W12
 BYTE   Fs4
 BYTE   W12
 BYTE   Dn4
 BYTE   W12
 BYTE   Gs4
 BYTE   W12
 BYTE   An4
 BYTE   W48
 BYTE   PEND 
//  #04 //081   ----------------------------------------
 BYTE   W96
//  #04 //082   ----------------------------------------
 BYTE   W96
//  #04 //083   ----------------------------------------
 BYTE   W96
//  #04 //084   ----------------------------------------
 BYTE   W48
 BYTE   GoTo
  POIN2 Label_01025EA4
 BYTE   FINE

//**************** Track 5 (Midi-Chn.4) ****************//

CastlevaniaPortraitofRuinJailofJewelTak_005:
//  #05 //000   ----------------------------------------
 BYTE   KEYSH   CastlevaniaPortraitofRuinJailofJewelTak_key+0
 BYTE   VOICE   104
 BYTE   VOL   39*CastlevaniaPortraitofRuinJailofJewelTak_mvl/mxv
 BYTE   PAN   c_v+43
 BYTE   BENDR  12
 BYTE   W24
 BYTE   N06  En2  v085
 BYTE   N06  An1
 BYTE   N06  En3
 BYTE   N06  An2
 BYTE   W36
 BYTE   An2
 BYTE   N06  Ds3
 BYTE   N06  An1
 BYTE   N06  Ds2
 BYTE   W36
//  #05 //001   ----------------------------------------
Label_0102604D:
 BYTE   W24
 BYTE   N06  En2  v085
 BYTE   N06  An1
 BYTE   N06  En3
 BYTE   N06  An2
 BYTE   W36
 BYTE   An2
 BYTE   N06  Ds3
 BYTE   N06  An1
 BYTE   N06  Ds2
 BYTE   W36
 BYTE   PEND 
//  #05 //002   ----------------------------------------
 BYTE   PATT
  POIN2 Label_0102604D
//  #05 //003   ----------------------------------------
 BYTE   PATT
  POIN2 Label_0102604D
//  #05 //004   ----------------------------------------
 BYTE   W96
//  #05 //005   ----------------------------------------
 BYTE   W96
//  #05 //006   ----------------------------------------
 BYTE   W96
//  #05 //007   ----------------------------------------
 BYTE   W96
//  #05 //008   ----------------------------------------
Label_0102606F:
 BYTE   N12  An2  v085
 BYTE   W12
 BYTE   Bn2
 BYTE   W12
 BYTE   Cn3
 BYTE   W12
 BYTE   N36  En3
 BYTE   W36
 BYTE   N12  Dn3
 BYTE   W12
 BYTE   Cn3
 BYTE   W12
//  #05 //009   ----------------------------------------
 BYTE   Dn3
 BYTE   W12
 BYTE   Cn3
 BYTE   W12
 BYTE   Dn3
 BYTE   W12
 BYTE   N60  En3
 BYTE   W60
//  #05 //010   ----------------------------------------
 BYTE   N12  An2
 BYTE   W12
 BYTE   Bn2
 BYTE   W12
 BYTE   Cn3
 BYTE   W12
 BYTE   N18  En3
 BYTE   W24
 BYTE   N12
 BYTE   W12
 BYTE   Dn3
 BYTE   W12
 BYTE   Cn3
 BYTE   W12
//  #05 //011   ----------------------------------------
Label_01026098:
 BYTE   N12  Dn3  v085
 BYTE   W12
 BYTE   Cn3
 BYTE   W12
 BYTE   Dn3
 BYTE   W12
 BYTE   N24  En3
 BYTE   W24
 BYTE   N12  Dn3
 BYTE   W12
 BYTE   Cn3
 BYTE   W12
 BYTE   Bn2
 BYTE   W12
 BYTE   PEND 
//  #05 //012   ----------------------------------------
 BYTE   An2
 BYTE   W12
 BYTE   Bn2
 BYTE   W12
 BYTE   Cn3
 BYTE   W12
 BYTE   N36  En3
 BYTE   W36
 BYTE   N12  Dn3
 BYTE   W12
 BYTE   Cn3
 BYTE   W12
//  #05 //013   ----------------------------------------
 BYTE   PATT
  POIN2 Label_01026098
//  #05 //014   ----------------------------------------
 BYTE   N12  An2  v085
 BYTE   W12
 BYTE   Bn2
 BYTE   W12
 BYTE   Cn3
 BYTE   W12
 BYTE   Bn2
 BYTE   W24
 BYTE   Gn2
 BYTE   W24
 BYTE   N24
 BYTE   W12
//  #05 //015   ----------------------------------------
 BYTE   W12
 BYTE   N12  An2
 BYTE   W12
 BYTE   N72
 BYTE   W72
//  #05 //016   ----------------------------------------
 BYTE   W96
//  #05 //017   ----------------------------------------
 BYTE   W96
//  #05 //018   ----------------------------------------
 BYTE   W96
//  #05 //019   ----------------------------------------
 BYTE   W96
//  #05 //020   ----------------------------------------
 BYTE   W96
//  #05 //021   ----------------------------------------
 BYTE   W96
//  #05 //022   ----------------------------------------
 BYTE   W96
//  #05 //023   ----------------------------------------
 BYTE   W96
//  #05 //024   ----------------------------------------
Label_010260DA:
 BYTE   W24
 BYTE   N06  Fs2  v085
 BYTE   N06  Cs3
 BYTE   W36
 BYTE   Fs2
 BYTE   N06  Cn3
 BYTE   W36
 BYTE   PEND 
//  #05 //025   ----------------------------------------
 BYTE   PATT
  POIN2 Label_010260DA
//  #05 //026   ----------------------------------------
 BYTE   W24
 BYTE   N06  Fs2  v085
 BYTE   N06  Cs3
 BYTE   W36
 BYTE   Cn3
 BYTE   N06  Fs2
 BYTE   W36
//  #05 //027   ----------------------------------------
 BYTE   PATT
  POIN2 Label_010260DA
//  #05 //028   ----------------------------------------
 BYTE   PATT
  POIN2 Label_010260DA
//  #05 //029   ----------------------------------------
 BYTE   PATT
  POIN2 Label_010260DA
//  #05 //030   ----------------------------------------
Label_01026105:
 BYTE   W24
 BYTE   N06  Bn2  v085
 BYTE   N06  En3
 BYTE   W36
 BYTE   Bn2
 BYTE   N06  En3
 BYTE   W36
 BYTE   PEND 
//  #05 //031   ----------------------------------------
 BYTE   PATT
  POIN2 Label_01026105
//  #05 //032   ----------------------------------------
Label_01026116:
 BYTE   W24
 BYTE   N06  As2  v085
 BYTE   N06  Cs3
 BYTE   W36
 BYTE   An2
 BYTE   N06  Cn3
 BYTE   W36
 BYTE   PEND 
//  #05 //033   ----------------------------------------
 BYTE   PATT
  POIN2 Label_01026116
//  #05 //034   ----------------------------------------
 BYTE   PATT
  POIN2 Label_01026116
//  #05 //035   ----------------------------------------
 BYTE   PATT
  POIN2 Label_01026116
//  #05 //036   ----------------------------------------
Label_01026131:
 BYTE   W24
 BYTE   N06  Bn2  v085
 BYTE   N06  Dn3
 BYTE   W36
 BYTE   As2
 BYTE   N06  Cs3
 BYTE   W36
 BYTE   PEND 
//  #05 //037   ----------------------------------------
 BYTE   PATT
  POIN2 Label_01026131
//  #05 //038   ----------------------------------------
Label_01026142:
 BYTE   W24
 BYTE   N06  Cs3  v085
 BYTE   N06  En3
 BYTE   W36
 BYTE   Cs3
 BYTE   N06  En3
 BYTE   W36
 BYTE   PEND 
//  #05 //039   ----------------------------------------
 BYTE   PATT
  POIN2 Label_01026142
//  #05 //040   ----------------------------------------
 BYTE   W96
//  #05 //041   ----------------------------------------
 BYTE   W96
//  #05 //042   ----------------------------------------
 BYTE   W96
//  #05 //043   ----------------------------------------
 BYTE   W96
//  #05 //044   ----------------------------------------
 BYTE   W96
//  #05 //045   ----------------------------------------
 BYTE   W96
//  #05 //046   ----------------------------------------
 BYTE   W96
//  #05 //047   ----------------------------------------
 BYTE   W96
//  #05 //048   ----------------------------------------
 BYTE   W96
//  #05 //049   ----------------------------------------
 BYTE   W96
//  #05 //050   ----------------------------------------
 BYTE   W96
//  #05 //051   ----------------------------------------
 BYTE   W96
//  #05 //052   ----------------------------------------
 BYTE   W96
//  #05 //053   ----------------------------------------
 BYTE   W96
//  #05 //054   ----------------------------------------
 BYTE   W96
//  #05 //055   ----------------------------------------
 BYTE   W96
//  #05 //056   ----------------------------------------
 BYTE   N12  An2  v085
 BYTE   N12  En2
 BYTE   W12
 BYTE   Fs2
 BYTE   N12  Bn2
 BYTE   W12
 BYTE   Gn2
 BYTE   N12  Cn3
 BYTE   W12
 BYTE   N24  En2
 BYTE   N24  An2
 BYTE   W24
 BYTE   N12  Fs2
 BYTE   N12  Bn2
 BYTE   W12
 BYTE   TIE  Gn2
 BYTE   TIE  Cn3
 BYTE   W24
//  #05 //057   ----------------------------------------
 BYTE   W96
//  #05 //058   ----------------------------------------
 BYTE   EOT
 BYTE   EOT
 BYTE   Gn2
 BYTE   N12  Bn2
 BYTE   N12  Fs2
 BYTE   W12
 BYTE   Gn2
 BYTE   N12  Cn3
 BYTE   W12
 BYTE   N06  An2
 BYTE   N06  Dn3
 BYTE   W12
 BYTE   N24  Fs2
 BYTE   N24  Bn2
 BYTE   W24
 BYTE   N12  Gn2
 BYTE   N12  Cn3
 BYTE   W12
 BYTE   TIE  An2
 BYTE   TIE  Dn3
 BYTE   W24
//  #05 //059   ----------------------------------------
 BYTE   W96
//  #05 //060   ----------------------------------------
 BYTE   EOT
 BYTE   EOT
 BYTE   An2
 BYTE   N12  Cn3  v127
 BYTE   N12  Gn2
 BYTE   W12
 BYTE   An2  v085
 BYTE   N12  Dn3
 BYTE   W12
 BYTE   Bn2
 BYTE   N12  En3
 BYTE   W12
 BYTE   N24  Gn2
 BYTE   N24  Cn3
 BYTE   W24
 BYTE   N12  An2
 BYTE   N12  Dn3
 BYTE   W12
 BYTE   N84  Bn2
 BYTE   N84  En3
 BYTE   W24
//  #05 //061   ----------------------------------------
 BYTE   W60
 BYTE   N12  An2
 BYTE   N12  En2
 BYTE   W12
 BYTE   Cn3
 BYTE   N12  Gn2
 BYTE   W12
 BYTE   En3
 BYTE   N12  Bn2
 BYTE   W12
//  #05 //062   ----------------------------------------
 BYTE   N24  Gn3
 BYTE   N24  Dn3
 BYTE   W24
 BYTE   Cs3
 BYTE   N24  Fs3
 BYTE   W24
 BYTE   Bn2
 BYTE   N24  En3
 BYTE   W24
 BYTE   N12  An2
 BYTE   N12  Dn3
 BYTE   W12
 BYTE   TIE  En3
 BYTE   TIE  Bn2
 BYTE   W12
//  #05 //063   ----------------------------------------
 BYTE   W96
//  #05 //064   ----------------------------------------
 BYTE   EOT
 BYTE   EOT
 BYTE   En3
 BYTE   N12  An2
 BYTE   N12  En2
 BYTE   W12
 BYTE   Fs2
 BYTE   N12  Bn2
 BYTE   W12
 BYTE   Gn2
 BYTE   N12  Cn3
 BYTE   W12
 BYTE   N24  En2
 BYTE   N24  An2
 BYTE   W24
 BYTE   N12  Fs2
 BYTE   N12  Bn2
 BYTE   W12
 BYTE   TIE  Gn2
 BYTE   TIE  Cn3
 BYTE   W24
//  #05 //065   ----------------------------------------
 BYTE   W96
//  #05 //066   ----------------------------------------
 BYTE   EOT
 BYTE   EOT
 BYTE   Gn2
 BYTE   N12  Bn2
 BYTE   N12  Fs2
 BYTE   W12
 BYTE   Gn2
 BYTE   N12  Cn3
 BYTE   W12
 BYTE   An2
 BYTE   N12  Dn3
 BYTE   W12
 BYTE   N24  Fs2
 BYTE   N24  Bn2
 BYTE   W24
 BYTE   N12  Gn2
 BYTE   N12  Cn3
 BYTE   W12
 BYTE   N72  An2
 BYTE   N72  Dn3
 BYTE   W24
//  #05 //067   ----------------------------------------
 BYTE   W48
 BYTE   N24  Bn2
 BYTE   N24  Fs2
 BYTE   W24
 BYTE   Gn2
 BYTE   N24  Dn2
 BYTE   W24
//  #05 //068   ----------------------------------------
 BYTE   N36  Gn2
 BYTE   N36  Dn2
 BYTE   W36
 BYTE   TIE  An2
 BYTE   TIE  En2
 BYTE   W60
//  #05 //069   ----------------------------------------
 BYTE   W96
//  #05 //070   ----------------------------------------
 BYTE   EOT
 BYTE   EOT
 BYTE   An2
 BYTE   W24
 BYTE   N06  Cn2
 BYTE   N06  Fn2
 BYTE   W36
 BYTE   Cn2
 BYTE   N06  En2
 BYTE   W36
//  #05 //071   ----------------------------------------
 BYTE   W24
 BYTE   An1
 BYTE   N06  En2
 BYTE   W36
 BYTE   Cn2
 BYTE   N06  En2
 BYTE   W36
//  #05 //072   ----------------------------------------
 BYTE   W96
//  #05 //073   ----------------------------------------
 BYTE   W96
//  #05 //074   ----------------------------------------
 BYTE   W96
//  #05 //075   ----------------------------------------
 BYTE   W96
//  #05 //076   ----------------------------------------
 BYTE   W96
//  #05 //077   ----------------------------------------
 BYTE   W96
//  #05 //078   ----------------------------------------
 BYTE   W96
//  #05 //079   ----------------------------------------
 BYTE   W96
//  #05 //080   ----------------------------------------
 BYTE   W72
 BYTE   An2
 BYTE   N06  En3
 BYTE   W24
//  #05 //081   ----------------------------------------
Label_01026260:
 BYTE   W12
 BYTE   N06  Fs3  v085
 BYTE   N06  An2
 BYTE   W60
 BYTE   Gn3
 BYTE   N06  An2
 BYTE   W24
 BYTE   PEND 
//  #05 //082   ----------------------------------------
 BYTE   W12
 BYTE   An3
 BYTE   N06  An2
 BYTE   W60
 BYTE   An2
 BYTE   N06  En3
 BYTE   W24
//  #05 //083   ----------------------------------------
 BYTE   PATT
  POIN2 Label_01026260
//  #05 //084   ----------------------------------------
 BYTE   W12
 BYTE   N06  An2  v085
 BYTE   N06  An3
 BYTE   W36
 BYTE   GoTo
  POIN2 Label_0102606F
 BYTE   FINE

//**************** Track 6 (Midi-Chn.5) ****************//

CastlevaniaPortraitofRuinJailofJewelTak_006:
//  #06 //000   ----------------------------------------
 BYTE   KEYSH   CastlevaniaPortraitofRuinJailofJewelTak_key+0
 BYTE   VOICE   75
 BYTE   VOL   19*CastlevaniaPortraitofRuinJailofJewelTak_mvl/mxv
 BYTE   PAN   c_v+63
 BYTE   BENDR  12
 BYTE   W96
//  #06 //001   ----------------------------------------
 BYTE   W96
//  #06 //002   ----------------------------------------
 BYTE   W96
//  #06 //003   ----------------------------------------
 BYTE   W96
//  #06 //004   ----------------------------------------
 BYTE   N36  En4  v085
 BYTE   W36
 BYTE   TIE  Ds4
 BYTE   W60
//  #06 //005   ----------------------------------------
 BYTE   W96
//  #06 //006   ----------------------------------------
 BYTE   EOT
 BYTE   N36  En4
 BYTE   W36
 BYTE   TIE  Gn4
 BYTE   W60
//  #06 //007   ----------------------------------------
 BYTE   W96
//  #06 //008   ----------------------------------------
 BYTE   EOT
Label_010262A7:
 BYTE   N96  En4  v085
 BYTE   W96
//  #06 //009   ----------------------------------------
 BYTE   Dn4
 BYTE   W96
//  #06 //010   ----------------------------------------
 BYTE   Cn4
 BYTE   W96
//  #06 //011   ----------------------------------------
 BYTE   Dn4
 BYTE   W96
//  #06 //012   ----------------------------------------
 BYTE   En4
 BYTE   W96
//  #06 //013   ----------------------------------------
 BYTE   Dn4
 BYTE   W96
//  #06 //014   ----------------------------------------
 BYTE   N36  Cn4
 BYTE   W36
 BYTE   N12  Dn4
 BYTE   W24
 BYTE   Dn4
 BYTE   W24
 BYTE   N24
 BYTE   W12
//  #06 //015   ----------------------------------------
 BYTE   W12
 BYTE   N06  En4
 BYTE   W12
 BYTE   N72
 BYTE   W72
//  #06 //016   ----------------------------------------
 BYTE   W96
//  #06 //017   ----------------------------------------
 BYTE   W96
//  #06 //018   ----------------------------------------
 BYTE   W96
//  #06 //019   ----------------------------------------
 BYTE   W96
//  #06 //020   ----------------------------------------
 BYTE   W96
//  #06 //021   ----------------------------------------
 BYTE   W96
//  #06 //022   ----------------------------------------
 BYTE   W96
//  #06 //023   ----------------------------------------
 BYTE   W96
//  #06 //024   ----------------------------------------
Label_010262CD:
 BYTE   W24
 BYTE   N36  Fs4  v085
 BYTE   W36
 BYTE   Cs4
 BYTE   W36
 BYTE   PEND 
//  #06 //025   ----------------------------------------
 BYTE   An4
 BYTE   W36
 BYTE   N24  Gs4
 BYTE   W24
 BYTE   N36  Fs4
 BYTE   W36
//  #06 //026   ----------------------------------------
 BYTE   N12
 BYTE   W12
 BYTE   Gs4
 BYTE   W12
 BYTE   An4
 BYTE   W12
 BYTE   N24  Gs4
 BYTE   W24
 BYTE   Fs4
 BYTE   W24
 BYTE   N96  Cs4
 BYTE   W12
//  #06 //027   ----------------------------------------
Label_010262EB:
 BYTE   W84
 BYTE   N12  Bn3  v085
 BYTE   W12
 BYTE   PEND 
//  #06 //028   ----------------------------------------
 BYTE   An3
 BYTE   W12
 BYTE   Bn3
 BYTE   W12
 BYTE   Cs4
 BYTE   W12
 BYTE   N24  An3
 BYTE   W24
 BYTE   Fs3
 BYTE   W24
 BYTE   N96  An3
 BYTE   W12
//  #06 //029   ----------------------------------------
 BYTE   W84
 BYTE   N12  Cs4
 BYTE   W12
//  #06 //030   ----------------------------------------
 BYTE   Bn3
 BYTE   W12
 BYTE   Cs4
 BYTE   W12
 BYTE   Bn3
 BYTE   W12
 BYTE   N24  Gs3
 BYTE   W24
 BYTE   Bn3
 BYTE   W24
 BYTE   N60  En4
 BYTE   W12
//  #06 //031   ----------------------------------------
 BYTE   W48
 BYTE   N48  Gs4
 BYTE   W48
//  #06 //032   ----------------------------------------
 BYTE   PATT
  POIN2 Label_010262CD
//  #06 //033   ----------------------------------------
 BYTE   N36  An4  v085
 BYTE   W36
 BYTE   N24  Gs4
 BYTE   W24
 BYTE   N36  Bn4
 BYTE   W36
//  #06 //034   ----------------------------------------
 BYTE   N12  An4
 BYTE   W12
 BYTE   Bn4
 BYTE   W12
 BYTE   Cs5
 BYTE   W12
 BYTE   N18  En5
 BYTE   W24
 BYTE   N12  Ds5
 BYTE   W12
 BYTE   Bn4
 BYTE   W12
 BYTE   N96  Cs5
 BYTE   W12
//  #06 //035   ----------------------------------------
 BYTE   W84
 BYTE   N12  Bn4
 BYTE   W12
//  #06 //036   ----------------------------------------
 BYTE   N24  An4
 BYTE   W24
 BYTE   N12  Gs4
 BYTE   W12
 BYTE   N24  Fs4
 BYTE   W24
 BYTE   En4
 BYTE   W24
 BYTE   Dn4
 BYTE   W12
//  #06 //037   ----------------------------------------
 BYTE   W12
 BYTE   Cs4
 BYTE   W24
 BYTE   N60  Bn3
 BYTE   W60
//  #06 //038   ----------------------------------------
 BYTE   N24  Bn4
 BYTE   W24
 BYTE   N12  An4
 BYTE   W12
 BYTE   N24  Gs4
 BYTE   W24
 BYTE   Fs4
 BYTE   W24
 BYTE   TIE  En4
 BYTE   W12
//  #06 //039   ----------------------------------------
 BYTE   W96
//  #06 //040   ----------------------------------------
 BYTE   EOT
 BYTE   N36  Gn4
 BYTE   W36
 BYTE   TIE  Fs4
 BYTE   W60
//  #06 //041   ----------------------------------------
 BYTE   W96
//  #06 //042   ----------------------------------------
 BYTE   EOT
 BYTE   N36  Gn4
 BYTE   W36
 BYTE   TIE  An4
 BYTE   W60
//  #06 //043   ----------------------------------------
 BYTE   W96
//  #06 //044   ----------------------------------------
 BYTE   EOT
 BYTE   N36  As4
 BYTE   W36
 BYTE   N72  An4
 BYTE   W60
//  #06 //045   ----------------------------------------
 BYTE   W12
 BYTE   N36  As4
 BYTE   W36
 BYTE   N24  Cn5
 BYTE   W24
 BYTE   Dn5
 BYTE   W24
//  #06 //046   ----------------------------------------
 BYTE   N36  En5
 BYTE   W36
 BYTE   TIE  Ds5
 BYTE   W60
//  #06 //047   ----------------------------------------
 BYTE   W96
//  #06 //048   ----------------------------------------
 BYTE   EOT
 BYTE   W96
//  #06 //049   ----------------------------------------
 BYTE   W96
//  #06 //050   ----------------------------------------
 BYTE   W96
//  #06 //051   ----------------------------------------
 BYTE   W96
//  #06 //052   ----------------------------------------
 BYTE   W96
//  #06 //053   ----------------------------------------
 BYTE   W96
//  #06 //054   ----------------------------------------
 BYTE   W96
//  #06 //055   ----------------------------------------
 BYTE   W96
//  #06 //056   ----------------------------------------
 BYTE   TIE  En5
 BYTE   W96
//  #06 //057   ----------------------------------------
Label_0102638F:
 BYTE   W24
 BYTE   EOT
 BYTE   En5
 BYTE   N18  An4  v085
 BYTE   W24
 BYTE   Cn5
 BYTE   W24
 BYTE   Fn5
 BYTE   W24
 BYTE   PEND 
//  #06 //058   ----------------------------------------
 BYTE   TIE  Gn5
 BYTE   W96
//  #06 //059   ----------------------------------------
Label_0102639E:
 BYTE   W24
 BYTE   EOT
 BYTE   Gn5
 BYTE   N18  En5  v085
 BYTE   W24
 BYTE   Bn4
 BYTE   W24
 BYTE   Gn4
 BYTE   W24
 BYTE   PEND 
//  #06 //060   ----------------------------------------
 BYTE   TIE  An4
 BYTE   W96
//  #06 //061   ----------------------------------------
 BYTE   W24
 BYTE   EOT
 BYTE   N18  Bn4
 BYTE   W24
 BYTE   Cn5
 BYTE   W24
 BYTE   En5
 BYTE   W24
//  #06 //062   ----------------------------------------
 BYTE   N96  An5
 BYTE   W96
//  #06 //063   ----------------------------------------
 BYTE   N18  Gn5
 BYTE   W24
 BYTE   Fs5
 BYTE   W24
 BYTE   En5
 BYTE   W24
 BYTE   Dn5
 BYTE   W24
//  #06 //064   ----------------------------------------
 BYTE   TIE  En5
 BYTE   W96
//  #06 //065   ----------------------------------------
 BYTE   PATT
  POIN2 Label_0102638F
//  #06 //066   ----------------------------------------
 BYTE   TIE  Gn5  v085
 BYTE   W96
//  #06 //067   ----------------------------------------
 BYTE   PATT
  POIN2 Label_0102639E
//  #06 //068   ----------------------------------------
 BYTE   N36  Bn4  v085
 BYTE   W36
 BYTE   TIE  Cn5
 BYTE   W60
//  #06 //069   ----------------------------------------
 BYTE   W96
//  #06 //070   ----------------------------------------
 BYTE   EOT
 BYTE   W96
//  #06 //071   ----------------------------------------
 BYTE   W96
//  #06 //072   ----------------------------------------
 BYTE   W96
//  #06 //073   ----------------------------------------
 BYTE   W96
//  #06 //074   ----------------------------------------
 BYTE   W96
//  #06 //075   ----------------------------------------
 BYTE   W96
//  #06 //076   ----------------------------------------
 BYTE   W96
//  #06 //077   ----------------------------------------
 BYTE   W96
//  #06 //078   ----------------------------------------
 BYTE   W96
//  #06 //079   ----------------------------------------
 BYTE   W96
//  #06 //080   ----------------------------------------
 BYTE   W96
//  #06 //081   ----------------------------------------
 BYTE   W96
//  #06 //082   ----------------------------------------
 BYTE   W96
//  #06 //083   ----------------------------------------
 BYTE   W96
//  #06 //084   ----------------------------------------
 BYTE   W48
 BYTE   GoTo
  POIN2 Label_010262A7
 BYTE   FINE

//**************** Track 7 (Midi-Chn.6) ****************//

CastlevaniaPortraitofRuinJailofJewelTak_007:
//  #07 //000   ----------------------------------------
 BYTE   KEYSH   CastlevaniaPortraitofRuinJailofJewelTak_key+0
 BYTE   VOICE   61
 BYTE   VOL   69*CastlevaniaPortraitofRuinJailofJewelTak_mvl/mxv
 BYTE   BENDR  12
 BYTE   W96
//  #07 //001   ----------------------------------------
 BYTE   W96
//  #07 //002   ----------------------------------------
 BYTE   W96
//  #07 //003   ----------------------------------------
 BYTE   W96
//  #07 //004   ----------------------------------------
 BYTE   W96
//  #07 //005   ----------------------------------------
 BYTE   N36  En3  v085
 BYTE   N36  An2
 BYTE   W36
 BYTE   N60
 BYTE   N60  Ds3
 BYTE   W60
//  #07 //006   ----------------------------------------
 BYTE   W96
//  #07 //007   ----------------------------------------
 BYTE   N36  An2
 BYTE   N36  En3
 BYTE   W36
 BYTE   N60  Gn3
 BYTE   N60  An2
 BYTE   W60
//  #07 //008   ----------------------------------------
Label_01026416:
 BYTE   W96
//  #07 //009   ----------------------------------------
 BYTE   W96
//  #07 //010   ----------------------------------------
 BYTE   W96
//  #07 //011   ----------------------------------------
 BYTE   W96
//  #07 //012   ----------------------------------------
 BYTE   W96
//  #07 //013   ----------------------------------------
 BYTE   W96
//  #07 //014   ----------------------------------------
 BYTE   W96
//  #07 //015   ----------------------------------------
 BYTE   W96
//  #07 //016   ----------------------------------------
 BYTE   N12  An2  v085
 BYTE   N12  An1
 BYTE   W12
 BYTE   Bn2
 BYTE   N12  Bn1
 BYTE   W12
 BYTE   Cn3
 BYTE   N12  Cn2
 BYTE   W12
 BYTE   N36  En2
 BYTE   N36  En3
 BYTE   W36
 BYTE   N12  Dn3
 BYTE   N12  Dn2
 BYTE   W12
 BYTE   Cn3
 BYTE   N12  Cn2
 BYTE   W12
//  #07 //017   ----------------------------------------
 BYTE   Dn2
 BYTE   N12  Dn3
 BYTE   W12
 BYTE   Cn2
 BYTE   N12  Cn3
 BYTE   W12
 BYTE   Dn3
 BYTE   N12  Dn2
 BYTE   W12
 BYTE   N60  En2
 BYTE   N60  En3
 BYTE   W60
//  #07 //018   ----------------------------------------
 BYTE   N12  An1
 BYTE   N12  An2
 BYTE   W12
 BYTE   Bn1
 BYTE   N12  Bn2
 BYTE   W12
 BYTE   Cn2
 BYTE   N12  Cn3
 BYTE   W12
 BYTE   N18  En3
 BYTE   N18  En2
 BYTE   W24
 BYTE   N12
 BYTE   N12  En3
 BYTE   W12
 BYTE   Dn2
 BYTE   N12  Dn3
 BYTE   W12
 BYTE   Cn2
 BYTE   N12  Cn3
 BYTE   W12
//  #07 //019   ----------------------------------------
 BYTE   Dn2
 BYTE   N12  Dn3
 BYTE   W12
 BYTE   Cn2
 BYTE   N12  Cn3
 BYTE   W12
 BYTE   Dn2
 BYTE   N12  Dn3
 BYTE   W12
 BYTE   N24  En3
 BYTE   N24  En2
 BYTE   W24
 BYTE   N12  Dn2
 BYTE   N12  Dn3
 BYTE   W12
 BYTE   Cn2
 BYTE   N12  Cn3
 BYTE   W12
 BYTE   Bn1
 BYTE   N12  Bn2
 BYTE   W12
//  #07 //020   ----------------------------------------
 BYTE   An2
 BYTE   N12  An1
 BYTE   W12
 BYTE   Bn2
 BYTE   N12  Bn1
 BYTE   W12
 BYTE   Cn2
 BYTE   N12  Cn3
 BYTE   W12
 BYTE   N36  En2
 BYTE   N36  En3
 BYTE   W36
 BYTE   N12  Dn2
 BYTE   N12  Dn3
 BYTE   W12
 BYTE   Cn2
 BYTE   N12  Cn3
 BYTE   W12
//  #07 //021   ----------------------------------------
 BYTE   Dn3
 BYTE   N12  Dn2
 BYTE   W12
 BYTE   Cn3
 BYTE   N12  Cn2
 BYTE   W12
 BYTE   Dn2
 BYTE   N12  Dn3
 BYTE   W12
 BYTE   N24  En3
 BYTE   N24  En2
 BYTE   W24
 BYTE   N12  Dn2
 BYTE   N12  Dn3
 BYTE   W12
 BYTE   Cn2
 BYTE   N12  Cn3
 BYTE   W12
 BYTE   Bn1
 BYTE   N12  Bn2
 BYTE   W12
//  #07 //022   ----------------------------------------
 BYTE   An2
 BYTE   N12  An1
 BYTE   W12
 BYTE   Bn2
 BYTE   N12  Bn1
 BYTE   W12
 BYTE   Cn2
 BYTE   N12  Cn3
 BYTE   W12
 BYTE   Bn2
 BYTE   N12  Bn1
 BYTE   W24
 BYTE   Gn2
 BYTE   N12  Gn1
 BYTE   W24
 BYTE   N24  Gn2
 BYTE   N24  Gn1
 BYTE   W12
//  #07 //023   ----------------------------------------
 BYTE   W12
 BYTE   N12  An2
 BYTE   N12  An1
 BYTE   W12
 BYTE   N72  An2
 BYTE   N72  An1
 BYTE   W72
//  #07 //024   ----------------------------------------
 BYTE   W96
//  #07 //025   ----------------------------------------
 BYTE   W96
//  #07 //026   ----------------------------------------
 BYTE   W96
//  #07 //027   ----------------------------------------
 BYTE   W96
//  #07 //028   ----------------------------------------
 BYTE   W96
//  #07 //029   ----------------------------------------
 BYTE   W96
//  #07 //030   ----------------------------------------
 BYTE   W96
//  #07 //031   ----------------------------------------
 BYTE   W96
//  #07 //032   ----------------------------------------
 BYTE   W96
//  #07 //033   ----------------------------------------
 BYTE   W96
//  #07 //034   ----------------------------------------
 BYTE   W96
//  #07 //035   ----------------------------------------
 BYTE   W96
//  #07 //036   ----------------------------------------
 BYTE   W96
//  #07 //037   ----------------------------------------
 BYTE   W96
//  #07 //038   ----------------------------------------
 BYTE   W96
//  #07 //039   ----------------------------------------
 BYTE   W96
//  #07 //040   ----------------------------------------
 BYTE   W96
//  #07 //041   ----------------------------------------
 BYTE   W96
//  #07 //042   ----------------------------------------
 BYTE   W96
//  #07 //043   ----------------------------------------
 BYTE   W96
//  #07 //044   ----------------------------------------
 BYTE   W96
//  #07 //045   ----------------------------------------
 BYTE   W96
//  #07 //046   ----------------------------------------
 BYTE   W96
//  #07 //047   ----------------------------------------
 BYTE   W96
//  #07 //048   ----------------------------------------
Label_010264FB:
 BYTE   N12  En3  v085
 BYTE   W12
 BYTE   Dn3
 BYTE   W12
 BYTE   Cn3
 BYTE   W12
 BYTE   N24  Dn3
 BYTE   W24
 BYTE   N12  Cn3
 BYTE   W12
 BYTE   Bn2
 BYTE   W12
 BYTE   N24  Cn3
 BYTE   W12
 BYTE   PEND 
//  #07 //049   ----------------------------------------
Label_0102650F:
 BYTE   W12
 BYTE   N12  Bn2  v085
 BYTE   W12
 BYTE   An2
 BYTE   W12
 BYTE   N24  Bn2
 BYTE   W24
 BYTE   N12
 BYTE   W12
 BYTE   Cn3
 BYTE   W12
 BYTE   Dn3
 BYTE   W12
 BYTE   PEND 
//  #07 //050   ----------------------------------------
 BYTE   En3
 BYTE   W12
 BYTE   Dn3
 BYTE   W12
 BYTE   En3
 BYTE   W12
 BYTE   N24  Gn3
 BYTE   W24
 BYTE   N12  Fs3
 BYTE   W12
 BYTE   Dn3
 BYTE   W12
 BYTE   N24  Fn3
 BYTE   W12
//  #07 //051   ----------------------------------------
 BYTE   W12
 BYTE   N12  En3
 BYTE   W12
 BYTE   Cn3
 BYTE   W12
 BYTE   N24  En3
 BYTE   W24
 BYTE   N12  Dn3
 BYTE   W12
 BYTE   Cn3
 BYTE   W12
 BYTE   Bn2
 BYTE   W12
//  #07 //052   ----------------------------------------
 BYTE   PATT
  POIN2 Label_010264FB
//  #07 //053   ----------------------------------------
 BYTE   PATT
  POIN2 Label_0102650F
//  #07 //054   ----------------------------------------
 BYTE   N12  En3  v085
 BYTE   W12
 BYTE   Dn3
 BYTE   W12
 BYTE   En3
 BYTE   W12
 BYTE   N24  Gn3
 BYTE   W24
 BYTE   N12  Fs3
 BYTE   W12
 BYTE   Dn3
 BYTE   W12
 BYTE   N24  Fs3
 BYTE   W12
//  #07 //055   ----------------------------------------
 BYTE   W12
 BYTE   N12  En3
 BYTE   W12
 BYTE   Dn3
 BYTE   W12
 BYTE   N60  En3
 BYTE   W60
//  #07 //056   ----------------------------------------
 BYTE   W96
//  #07 //057   ----------------------------------------
 BYTE   W96
//  #07 //058   ----------------------------------------
 BYTE   W96
//  #07 //059   ----------------------------------------
 BYTE   W96
//  #07 //060   ----------------------------------------
 BYTE   W96
//  #07 //061   ----------------------------------------
 BYTE   W96
//  #07 //062   ----------------------------------------
 BYTE   W96
//  #07 //063   ----------------------------------------
 BYTE   W96
//  #07 //064   ----------------------------------------
 BYTE   W96
//  #07 //065   ----------------------------------------
 BYTE   W96
//  #07 //066   ----------------------------------------
 BYTE   W96
//  #07 //067   ----------------------------------------
 BYTE   W96
//  #07 //068   ----------------------------------------
 BYTE   W96
//  #07 //069   ----------------------------------------
 BYTE   W96
//  #07 //070   ----------------------------------------
 BYTE   W96
//  #07 //071   ----------------------------------------
 BYTE   W96
//  #07 //072   ----------------------------------------
 BYTE   PATT
  POIN2 Label_01025FB6
//  #07 //073   ----------------------------------------
 BYTE   PATT
  POIN2 Label_01025FA4
//  #07 //074   ----------------------------------------
 BYTE   PATT
  POIN2 Label_01025FB6
//  #07 //075   ----------------------------------------
 BYTE   PATT
  POIN2 Label_01025FCA
//  #07 //076   ----------------------------------------
 BYTE   PATT
  POIN2 Label_01025FB6
//  #07 //077   ----------------------------------------
 BYTE   PATT
  POIN2 Label_01025FE1
//  #07 //078   ----------------------------------------
 BYTE   PATT
  POIN2 Label_01025FF3
//  #07 //079   ----------------------------------------
 BYTE   PATT
  POIN2 Label_01026006
//  #07 //080   ----------------------------------------
 BYTE   PATT
  POIN2 Label_01026019
//  #07 //081   ----------------------------------------
 BYTE   W96
//  #07 //082   ----------------------------------------
 BYTE   W96
//  #07 //083   ----------------------------------------
 BYTE   W96
//  #07 //084   ----------------------------------------
 BYTE   W48
 BYTE   GoTo
  POIN2 Label_01026416
 BYTE   FINE

//**************** Track 8 (Midi-Chn.7) ****************//

CastlevaniaPortraitofRuinJailofJewelTak_008:
//  #08 //000   ----------------------------------------
 BYTE   KEYSH   CastlevaniaPortraitofRuinJailofJewelTak_key+0
 BYTE   VOICE   68
 BYTE   VOL   47*CastlevaniaPortraitofRuinJailofJewelTak_mvl/mxv
 BYTE   PAN   c_v-54
 BYTE   BENDR  12
 BYTE   W96
//  #08 //001   ----------------------------------------
 BYTE   W96
//  #08 //002   ----------------------------------------
 BYTE   W96
//  #08 //003   ----------------------------------------
 BYTE   W96
//  #08 //004   ----------------------------------------
 BYTE   W96
//  #08 //005   ----------------------------------------
 BYTE   W96
//  #08 //006   ----------------------------------------
 BYTE   W96
//  #08 //007   ----------------------------------------
 BYTE   W96
//  #08 //008   ----------------------------------------
Label_010265C2:
 BYTE   N12  An3  v085
 BYTE   W12
 BYTE   Bn3
 BYTE   W12
 BYTE   Cn4
 BYTE   W12
 BYTE   N36  En4
 BYTE   W36
 BYTE   N12  Dn4
 BYTE   W12
 BYTE   Cn4
 BYTE   W12
//  #08 //009   ----------------------------------------
 BYTE   Dn4
 BYTE   W12
 BYTE   Cn4
 BYTE   W12
 BYTE   Dn4
 BYTE   W12
 BYTE   N60  En4
 BYTE   W60
//  #08 //010   ----------------------------------------
 BYTE   N12  An3
 BYTE   W12
 BYTE   Bn3
 BYTE   W12
 BYTE   Cn4
 BYTE   W12
 BYTE   En4
 BYTE   W24
 BYTE   En4
 BYTE   W12
 BYTE   Dn4
 BYTE   W12
 BYTE   Cn4
 BYTE   W12
//  #08 //011   ----------------------------------------
Label_010265EA:
 BYTE   N12  Dn4  v085
 BYTE   W12
 BYTE   Cn4
 BYTE   W12
 BYTE   Dn4
 BYTE   W12
 BYTE   N24  En4
 BYTE   W24
 BYTE   N12  Dn4
 BYTE   W12
 BYTE   Cn4
 BYTE   W12
 BYTE   Bn3
 BYTE   W12
 BYTE   PEND 
//  #08 //012   ----------------------------------------
 BYTE   An3
 BYTE   W12
 BYTE   Bn3
 BYTE   W12
 BYTE   Cn4
 BYTE   W12
 BYTE   N36  En4
 BYTE   W36
 BYTE   N12  Dn4
 BYTE   W12
 BYTE   Cn4
 BYTE   W12
//  #08 //013   ----------------------------------------
 BYTE   PATT
  POIN2 Label_010265EA
//  #08 //014   ----------------------------------------
 BYTE   N12  An3  v085
 BYTE   W12
 BYTE   Bn3
 BYTE   W12
 BYTE   Cn4
 BYTE   W12
 BYTE   Bn3
 BYTE   W24
 BYTE   Gn3
 BYTE   W24
 BYTE   N18
 BYTE   W12
//  #08 //015   ----------------------------------------
 BYTE   W12
 BYTE   N06  An3
 BYTE   W12
 BYTE   N66
 BYTE   W72
//  #08 //016   ----------------------------------------
 BYTE   W96
//  #08 //017   ----------------------------------------
 BYTE   W96
//  #08 //018   ----------------------------------------
 BYTE   W96
//  #08 //019   ----------------------------------------
 BYTE   W96
//  #08 //020   ----------------------------------------
 BYTE   W96
//  #08 //021   ----------------------------------------
 BYTE   W96
//  #08 //022   ----------------------------------------
 BYTE   W96
//  #08 //023   ----------------------------------------
 BYTE   W96
//  #08 //024   ----------------------------------------
Label_0102662C:
 BYTE   W24
 BYTE   N36  Fs3  v085
 BYTE   W36
 BYTE   Cs3
 BYTE   W36
 BYTE   PEND 
//  #08 //025   ----------------------------------------
 BYTE   An3
 BYTE   W36
 BYTE   N24  Gs3
 BYTE   W24
 BYTE   N36  Fs3
 BYTE   W36
//  #08 //026   ----------------------------------------
 BYTE   N12
 BYTE   W12
 BYTE   Gs3
 BYTE   W12
 BYTE   An3
 BYTE   W12
 BYTE   N24  Gs3
 BYTE   W24
 BYTE   Fs3
 BYTE   W24
 BYTE   N96  Cs3
 BYTE   W12
//  #08 //027   ----------------------------------------
 BYTE   W84
 BYTE   N12  Bn2
 BYTE   W12
//  #08 //028   ----------------------------------------
 BYTE   An2
 BYTE   W12
 BYTE   Bn2
 BYTE   W12
 BYTE   Cs3
 BYTE   W12
 BYTE   N24  An2
 BYTE   W24
 BYTE   Fs2
 BYTE   W24
 BYTE   N96  An2
 BYTE   W12
//  #08 //029   ----------------------------------------
 BYTE   W84
 BYTE   N12  Cs3
 BYTE   W12
//  #08 //030   ----------------------------------------
 BYTE   Bn2
 BYTE   W12
 BYTE   Cs3
 BYTE   W12
 BYTE   Bn2
 BYTE   W12
 BYTE   N24  Gs2
 BYTE   W24
 BYTE   Bn2
 BYTE   W24
 BYTE   N60  En3
 BYTE   W12
//  #08 //031   ----------------------------------------
 BYTE   W48
 BYTE   N48  Gs3
 BYTE   W48
//  #08 //032   ----------------------------------------
 BYTE   PATT
  POIN2 Label_0102662C
//  #08 //033   ----------------------------------------
 BYTE   N36  An3  v085
 BYTE   W36
 BYTE   N24  Gs3
 BYTE   W24
 BYTE   N36  Bn3
 BYTE   W36
//  #08 //034   ----------------------------------------
 BYTE   N12  An3
 BYTE   W12
 BYTE   Bn3
 BYTE   W12
 BYTE   Cs4
 BYTE   W12
 BYTE   N18  En4
 BYTE   W24
 BYTE   N12  Ds4
 BYTE   W12
 BYTE   Bn3
 BYTE   W12
 BYTE   N96  Cs4
 BYTE   W12
//  #08 //035   ----------------------------------------
 BYTE   PATT
  POIN2 Label_010262EB
//  #08 //036   ----------------------------------------
 BYTE   N24  An3  v085
 BYTE   W24
 BYTE   N12  Gs3
 BYTE   W12
 BYTE   N24  Fs3
 BYTE   W24
 BYTE   En3
 BYTE   W24
 BYTE   Dn3
 BYTE   W12
//  #08 //037   ----------------------------------------
 BYTE   W12
 BYTE   Cs3
 BYTE   W24
 BYTE   N60  Bn2
 BYTE   W60
//  #08 //038   ----------------------------------------
 BYTE   N24  Bn3
 BYTE   W24
 BYTE   N12  An3
 BYTE   W12
 BYTE   N24  Gs3
 BYTE   W24
 BYTE   Fs3
 BYTE   W24
 BYTE   TIE  En3
 BYTE   W12
//  #08 //039   ----------------------------------------
 BYTE   W96
//  #08 //040   ----------------------------------------
 BYTE   EOT
 BYTE   W96
//  #08 //041   ----------------------------------------
 BYTE   W96
//  #08 //042   ----------------------------------------
 BYTE   W96
//  #08 //043   ----------------------------------------
 BYTE   W96
//  #08 //044   ----------------------------------------
 BYTE   W96
//  #08 //045   ----------------------------------------
 BYTE   W96
//  #08 //046   ----------------------------------------
 BYTE   W96
//  #08 //047   ----------------------------------------
 BYTE   W96
//  #08 //048   ----------------------------------------
Label_010266C4:
 BYTE   N12  Cn4  v085
 BYTE   W12
 BYTE   Bn3
 BYTE   W12
 BYTE   An3
 BYTE   W12
 BYTE   N24  Bn3
 BYTE   W24
 BYTE   N12  An3
 BYTE   W12
 BYTE   Gn3
 BYTE   W12
 BYTE   N24  An3
 BYTE   W12
 BYTE   PEND 
//  #08 //049   ----------------------------------------
Label_010266D8:
 BYTE   W12
 BYTE   N12  Gn3  v085
 BYTE   W12
 BYTE   Fn3
 BYTE   W12
 BYTE   N24  Gn3
 BYTE   W24
 BYTE   N12
 BYTE   W12
 BYTE   An3
 BYTE   W12
 BYTE   Bn3
 BYTE   W12
 BYTE   PEND 
//  #08 //050   ----------------------------------------
Label_010266E9:
 BYTE   N12  Cn4  v085
 BYTE   W12
 BYTE   Bn3
 BYTE   W12
 BYTE   Cn4
 BYTE   W12
 BYTE   N24  En4
 BYTE   W24
 BYTE   N12  Dn4
 BYTE   W12
 BYTE   Bn3
 BYTE   W12
 BYTE   N24  Dn4
 BYTE   W12
 BYTE   PEND 
//  #08 //051   ----------------------------------------
 BYTE   W12
 BYTE   N12  Cn4
 BYTE   W12
 BYTE   An3
 BYTE   W12
 BYTE   N24  Cn4
 BYTE   W24
 BYTE   N12  Bn3
 BYTE   W12
 BYTE   An3
 BYTE   W12
 BYTE   Gn3
 BYTE   W12
//  #08 //052   ----------------------------------------
 BYTE   PATT
  POIN2 Label_010266C4
//  #08 //053   ----------------------------------------
 BYTE   PATT
  POIN2 Label_010266D8
//  #08 //054   ----------------------------------------
 BYTE   PATT
  POIN2 Label_010266E9
//  #08 //055   ----------------------------------------
 BYTE   W12
 BYTE   N12  Cn4  v085
 BYTE   W12
 BYTE   Bn3
 BYTE   W12
 BYTE   N60  Cn4
 BYTE   W60
//  #08 //056   ----------------------------------------
 BYTE   N12  An3
 BYTE   W12
 BYTE   Bn3
 BYTE   W12
 BYTE   Cn4
 BYTE   W12
 BYTE   N24  An3
 BYTE   W24
 BYTE   N12  Bn3
 BYTE   W12
 BYTE   TIE  Cn4
 BYTE   W24
//  #08 //057   ----------------------------------------
 BYTE   W96
//  #08 //058   ----------------------------------------
 BYTE   EOT
 BYTE   N12  Bn3
 BYTE   W12
 BYTE   Cn4
 BYTE   W12
 BYTE   N06  An3
 BYTE   N06  Dn4
 BYTE   W12
 BYTE   N24  Bn3
 BYTE   W24
 BYTE   N12  Cn4
 BYTE   W12
 BYTE   TIE  Dn4
 BYTE   W24
//  #08 //059   ----------------------------------------
 BYTE   W96
//  #08 //060   ----------------------------------------
 BYTE   EOT
 BYTE   N12  Cn4
 BYTE   W12
 BYTE   Dn4
 BYTE   W12
 BYTE   En4
 BYTE   W12
 BYTE   N24  Cn4
 BYTE   W24
 BYTE   N12  Dn4
 BYTE   W12
 BYTE   N84  En4
 BYTE   W24
//  #08 //061   ----------------------------------------
 BYTE   W60
 BYTE   N12  En3
 BYTE   W12
 BYTE   Cn4
 BYTE   W12
 BYTE   En4
 BYTE   W12
//  #08 //062   ----------------------------------------
 BYTE   N24  Gn4
 BYTE   W24
 BYTE   Fs4
 BYTE   W24
 BYTE   En4
 BYTE   W24
 BYTE   N12  Dn4
 BYTE   W12
 BYTE   TIE  En4
 BYTE   W12
//  #08 //063   ----------------------------------------
 BYTE   W96
//  #08 //064   ----------------------------------------
 BYTE   EOT
 BYTE   N12  An3
 BYTE   W12
 BYTE   Bn3
 BYTE   W12
 BYTE   Cn4
 BYTE   W12
 BYTE   N24  An3
 BYTE   W24
 BYTE   N12  Bn3
 BYTE   W12
 BYTE   TIE  Cn4
 BYTE   W24
//  #08 //065   ----------------------------------------
 BYTE   W96
//  #08 //066   ----------------------------------------
 BYTE   EOT
 BYTE   N12  Bn3
 BYTE   W12
 BYTE   Cn4
 BYTE   W12
 BYTE   Dn4
 BYTE   W12
 BYTE   N24  Bn3
 BYTE   W24
 BYTE   N12  Cn4
 BYTE   W12
 BYTE   N72  Dn4
 BYTE   W24
//  #08 //067   ----------------------------------------
 BYTE   W48
 BYTE   N24  Bn3
 BYTE   W24
 BYTE   Gn3
 BYTE   W24
//  #08 //068   ----------------------------------------
 BYTE   N36
 BYTE   W36
 BYTE   TIE  An3
 BYTE   W60
//  #08 //069   ----------------------------------------
 BYTE   W96
//  #08 //070   ----------------------------------------
 BYTE   EOT
 BYTE   W96
//  #08 //071   ----------------------------------------
 BYTE   W96
//  #08 //072   ----------------------------------------
 BYTE   PATT
  POIN2 Label_01025FB6
//  #08 //073   ----------------------------------------
 BYTE   PATT
  POIN2 Label_01025FA4
//  #08 //074   ----------------------------------------
 BYTE   PATT
  POIN2 Label_01025FB6
//  #08 //075   ----------------------------------------
 BYTE   PATT
  POIN2 Label_01025FCA
//  #08 //076   ----------------------------------------
 BYTE   PATT
  POIN2 Label_01025FB6
//  #08 //077   ----------------------------------------
 BYTE   PATT
  POIN2 Label_01025FE1
//  #08 //078   ----------------------------------------
 BYTE   PATT
  POIN2 Label_01025FF3
//  #08 //079   ----------------------------------------
 BYTE   PATT
  POIN2 Label_01026006
//  #08 //080   ----------------------------------------
 BYTE   PATT
  POIN2 Label_01026019
//  #08 //081   ----------------------------------------
 BYTE   W96
//  #08 //082   ----------------------------------------
 BYTE   W96
//  #08 //083   ----------------------------------------
 BYTE   W96
//  #08 //084   ----------------------------------------
 BYTE   W48
 BYTE   GoTo
  POIN2 Label_010265C2
 BYTE   FINE

//**************** Track 9 (Midi-Chn.8) ****************//

CastlevaniaPortraitofRuinJailofJewelTak_009:
//  #09 //000   ----------------------------------------
 BYTE   KEYSH   CastlevaniaPortraitofRuinJailofJewelTak_key+0
 BYTE   VOICE   11
 BYTE   VOL   60*CastlevaniaPortraitofRuinJailofJewelTak_mvl/mxv
 BYTE   BENDR  12
 BYTE   W96
//  #09 //001   ----------------------------------------
 BYTE   W96
//  #09 //002   ----------------------------------------
 BYTE   W96
//  #09 //003   ----------------------------------------
 BYTE   W96
//  #09 //004   ----------------------------------------
 BYTE   W96
//  #09 //005   ----------------------------------------
 BYTE   W96
//  #09 //006   ----------------------------------------
 BYTE   W96
//  #09 //007   ----------------------------------------
 BYTE   W96
//  #09 //008   ----------------------------------------
Label_010267EC:
 BYTE   W96
//  #09 //009   ----------------------------------------
 BYTE   W96
//  #09 //010   ----------------------------------------
 BYTE   W96
//  #09 //011   ----------------------------------------
 BYTE   W96
//  #09 //012   ----------------------------------------
 BYTE   W96
//  #09 //013   ----------------------------------------
 BYTE   W96
//  #09 //014   ----------------------------------------
 BYTE   W96
//  #09 //015   ----------------------------------------
 BYTE   W96
//  #09 //016   ----------------------------------------
Label_010267F4:
 BYTE   N12  An4  v085
 BYTE   W12
 BYTE   Bn4
 BYTE   W12
 BYTE   Cn5
 BYTE   W12
 BYTE   N36  En5
 BYTE   W36
 BYTE   N12  Dn5
 BYTE   W12
 BYTE   Cn5
 BYTE   W12
 BYTE   PEND 
//  #09 //017   ----------------------------------------
 BYTE   Dn5
 BYTE   W12
 BYTE   Cn5
 BYTE   W12
 BYTE   Dn5
 BYTE   W12
 BYTE   N60  En5
 BYTE   W60
//  #09 //018   ----------------------------------------
 BYTE   N12  An4
 BYTE   W12
 BYTE   Bn4
 BYTE   W12
 BYTE   Cn5
 BYTE   W12
 BYTE   N18  En5
 BYTE   W24
 BYTE   N12
 BYTE   W12
 BYTE   Dn5
 BYTE   W12
 BYTE   Cn5
 BYTE   W12
//  #09 //019   ----------------------------------------
Label_0102681E:
 BYTE   N12  Dn5  v085
 BYTE   W12
 BYTE   Cn5
 BYTE   W12
 BYTE   Dn5
 BYTE   W12
 BYTE   N24  En5
 BYTE   W24
 BYTE   N12  Dn5
 BYTE   W12
 BYTE   Cn5
 BYTE   W12
 BYTE   Bn4
 BYTE   W12
 BYTE   PEND 
//  #09 //020   ----------------------------------------
 BYTE   PATT
  POIN2 Label_010267F4
//  #09 //021   ----------------------------------------
 BYTE   PATT
  POIN2 Label_0102681E
//  #09 //022   ----------------------------------------
 BYTE   N12  An4  v085
 BYTE   W12
 BYTE   Bn4
 BYTE   W12
 BYTE   Cn5
 BYTE   W12
 BYTE   Bn4
 BYTE   W24
 BYTE   Gn4
 BYTE   W24
 BYTE   N24
 BYTE   W12
//  #09 //023   ----------------------------------------
 BYTE   W12
 BYTE   N12  An4
 BYTE   W12
 BYTE   N72
 BYTE   W72
//  #09 //024   ----------------------------------------
 BYTE   W96
//  #09 //025   ----------------------------------------
 BYTE   W96
//  #09 //026   ----------------------------------------
 BYTE   W96
//  #09 //027   ----------------------------------------
 BYTE   W96
//  #09 //028   ----------------------------------------
 BYTE   W96
//  #09 //029   ----------------------------------------
 BYTE   W96
//  #09 //030   ----------------------------------------
 BYTE   W96
//  #09 //031   ----------------------------------------
 BYTE   W96
//  #09 //032   ----------------------------------------
 BYTE   W96
//  #09 //033   ----------------------------------------
 BYTE   W96
//  #09 //034   ----------------------------------------
 BYTE   W96
//  #09 //035   ----------------------------------------
 BYTE   W96
//  #09 //036   ----------------------------------------
 BYTE   W96
//  #09 //037   ----------------------------------------
 BYTE   W96
//  #09 //038   ----------------------------------------
 BYTE   W96
//  #09 //039   ----------------------------------------
 BYTE   W96
//  #09 //040   ----------------------------------------
 BYTE   W96
//  #09 //041   ----------------------------------------
 BYTE   W96
//  #09 //042   ----------------------------------------
 BYTE   W96
//  #09 //043   ----------------------------------------
 BYTE   W96
//  #09 //044   ----------------------------------------
 BYTE   W96
//  #09 //045   ----------------------------------------
 BYTE   W96
//  #09 //046   ----------------------------------------
 BYTE   W96
//  #09 //047   ----------------------------------------
 BYTE   W96
//  #09 //048   ----------------------------------------
Label_01026867:
 BYTE   N12  En5  v085
 BYTE   W12
 BYTE   Dn5
 BYTE   W12
 BYTE   Cn5
 BYTE   W12
 BYTE   N24  Dn5
 BYTE   W24
 BYTE   N12  Cn5
 BYTE   W12
 BYTE   Bn4
 BYTE   W12
 BYTE   N24  Cn5
 BYTE   W12
 BYTE   PEND 
//  #09 //049   ----------------------------------------
Label_0102687B:
 BYTE   W12
 BYTE   N12  Bn4  v085
 BYTE   W12
 BYTE   An4
 BYTE   W12
 BYTE   N24  Bn4
 BYTE   W24
 BYTE   N12
 BYTE   W12
 BYTE   Cn5
 BYTE   W12
 BYTE   Dn5
 BYTE   W12
 BYTE   PEND 
//  #09 //050   ----------------------------------------
 BYTE   En5
 BYTE   W12
 BYTE   Dn5
 BYTE   W12
 BYTE   En5
 BYTE   W12
 BYTE   N24  Gn5
 BYTE   W24
 BYTE   N12  Fs5
 BYTE   W12
 BYTE   Dn5
 BYTE   W12
 BYTE   N24  Fn5
 BYTE   W12
//  #09 //051   ----------------------------------------
 BYTE   W12
 BYTE   N12  En5
 BYTE   W12
 BYTE   Cn5
 BYTE   W12
 BYTE   N24  En5
 BYTE   W24
 BYTE   N12  Dn5
 BYTE   W12
 BYTE   Cn5
 BYTE   W12
 BYTE   Bn4
 BYTE   W12
//  #09 //052   ----------------------------------------
 BYTE   PATT
  POIN2 Label_01026867
//  #09 //053   ----------------------------------------
 BYTE   PATT
  POIN2 Label_0102687B
//  #09 //054   ----------------------------------------
 BYTE   N12  En5  v085
 BYTE   W12
 BYTE   Dn5
 BYTE   W12
 BYTE   En5
 BYTE   W12
 BYTE   N24  Gn5
 BYTE   W24
 BYTE   N12  Fs5
 BYTE   W12
 BYTE   Dn5
 BYTE   W12
 BYTE   N24  Fs5
 BYTE   W12
//  #09 //055   ----------------------------------------
 BYTE   W12
 BYTE   N12  En5
 BYTE   W12
 BYTE   Dn5
 BYTE   W12
 BYTE   N60  En5
 BYTE   W60
//  #09 //056   ----------------------------------------
 BYTE   W96
//  #09 //057   ----------------------------------------
 BYTE   W96
//  #09 //058   ----------------------------------------
 BYTE   W96
//  #09 //059   ----------------------------------------
 BYTE   W96
//  #09 //060   ----------------------------------------
 BYTE   W96
//  #09 //061   ----------------------------------------
 BYTE   W96
//  #09 //062   ----------------------------------------
 BYTE   W96
//  #09 //063   ----------------------------------------
 BYTE   W96
//  #09 //064   ----------------------------------------
 BYTE   W96
//  #09 //065   ----------------------------------------
 BYTE   W96
//  #09 //066   ----------------------------------------
 BYTE   W96
//  #09 //067   ----------------------------------------
 BYTE   W96
//  #09 //068   ----------------------------------------
 BYTE   W96
//  #09 //069   ----------------------------------------
 BYTE   W96
//  #09 //070   ----------------------------------------
 BYTE   W96
//  #09 //071   ----------------------------------------
 BYTE   W96
//  #09 //072   ----------------------------------------
Label_010268E3:
 BYTE   N12  An5  v085
 BYTE   W12
 BYTE   N24  En5
 BYTE   W24
 BYTE   N12  Gn5
 BYTE   W12
 BYTE   N24  Dn5
 BYTE   W24
 BYTE   N12  Fn5
 BYTE   W12
 BYTE   N24  Cn5
 BYTE   W12
 BYTE   PEND 
//  #09 //073   ----------------------------------------
 BYTE   W12
 BYTE   N12  En5
 BYTE   W12
 BYTE   N24  Bn4
 BYTE   W24
 BYTE   N12  Dn5
 BYTE   W12
 BYTE   As4
 BYTE   W12
 BYTE   Ds5
 BYTE   W12
 BYTE   As5
 BYTE   W12
//  #09 //074   ----------------------------------------
 BYTE   PATT
  POIN2 Label_010268E3
//  #09 //075   ----------------------------------------
 BYTE   W12
 BYTE   N12  Cn6  v085
 BYTE   W12
 BYTE   N24  Gn5
 BYTE   W24
 BYTE   N12  Ds5
 BYTE   N12  Ds6
 BYTE   W12
 BYTE   As5
 BYTE   W12
 BYTE   Fn5
 BYTE   W24
//  #09 //076   ----------------------------------------
 BYTE   PATT
  POIN2 Label_010268E3
//  #09 //077   ----------------------------------------
 BYTE   W12
 BYTE   N12  En5  v085
 BYTE   W12
 BYTE   N24  Bn4
 BYTE   W24
 BYTE   N12  Dn5
 BYTE   W24
 BYTE   As4
 BYTE   W12
 BYTE   Ds5
 BYTE   W12
//  #09 //078   ----------------------------------------
 BYTE   Gs5
 BYTE   W12
 BYTE   N24  Ds5
 BYTE   W24
 BYTE   N12  Cn6
 BYTE   W12
 BYTE   N24  Gs5
 BYTE   W24
 BYTE   N12  Bn5
 BYTE   W12
 BYTE   En5
 BYTE   W12
//  #09 //079   ----------------------------------------
 BYTE   Fn5
 BYTE   W12
 BYTE   As5
 BYTE   W12
 BYTE   Ds6
 BYTE   W12
 BYTE   Fs5
 BYTE   W12
 BYTE   Bn5
 BYTE   W12
 BYTE   En6
 BYTE   W12
 BYTE   Gn6
 BYTE   W24
//  #09 //080   ----------------------------------------
 BYTE   Cn6
 BYTE   W12
 BYTE   Fs6
 BYTE   W12
 BYTE   Dn6
 BYTE   W12
 BYTE   Gs6
 BYTE   W12
 BYTE   An6
 BYTE   W48
//  #09 //081   ----------------------------------------
 BYTE   W96
//  #09 //082   ----------------------------------------
 BYTE   W96
//  #09 //083   ----------------------------------------
 BYTE   W96
//  #09 //084   ----------------------------------------
 BYTE   W48
 BYTE   GoTo
  POIN2 Label_010267EC
 BYTE   FINE

//**************** Track 10 (Midi-Chn.9) ****************//

CastlevaniaPortraitofRuinJailofJewelTak_010:
//  #10 //000   ----------------------------------------
 BYTE   KEYSH   CastlevaniaPortraitofRuinJailofJewelTak_key+0
 BYTE   VOICE   14
 BYTE   VOL   78*CastlevaniaPortraitofRuinJailofJewelTak_mvl/mxv
 BYTE   BENDR  12
 BYTE   N90  An2  v085
 BYTE   W96
//  #10 //001   ----------------------------------------
 BYTE   W96
//  #10 //002   ----------------------------------------
 BYTE   An2
 BYTE   W96
//  #10 //003   ----------------------------------------
 BYTE   W96
//  #10 //004   ----------------------------------------
 BYTE   An2
 BYTE   W96
//  #10 //005   ----------------------------------------
 BYTE   W96
//  #10 //006   ----------------------------------------
 BYTE   An2
 BYTE   W96
//  #10 //007   ----------------------------------------
 BYTE   W96
//  #10 //008   ----------------------------------------
Label_0100311A:
 BYTE   W96
//  #10 //009   ----------------------------------------
 BYTE   W96
//  #10 //010   ----------------------------------------
 BYTE   W96
//  #10 //011   ----------------------------------------
 BYTE   W96
//  #10 //012   ----------------------------------------
 BYTE   W96
//  #10 //013   ----------------------------------------
 BYTE   W96
//  #10 //014   ----------------------------------------
 BYTE   W96
//  #10 //015   ----------------------------------------
 BYTE   W96
//  #10 //016   ----------------------------------------
 BYTE   W96
//  #10 //017   ----------------------------------------
 BYTE   W96
//  #10 //018   ----------------------------------------
 BYTE   W96
//  #10 //019   ----------------------------------------
 BYTE   W96
//  #10 //020   ----------------------------------------
 BYTE   W96
//  #10 //021   ----------------------------------------
 BYTE   W96
//  #10 //022   ----------------------------------------
 BYTE   W96
//  #10 //023   ----------------------------------------
 BYTE   W96
//  #10 //024   ----------------------------------------
 BYTE   W96
//  #10 //025   ----------------------------------------
 BYTE   W96
//  #10 //026   ----------------------------------------
 BYTE   W96
//  #10 //027   ----------------------------------------
 BYTE   W96
//  #10 //028   ----------------------------------------
 BYTE   W96
//  #10 //029   ----------------------------------------
 BYTE   W96
//  #10 //030   ----------------------------------------
 BYTE   W96
//  #10 //031   ----------------------------------------
 BYTE   W96
//  #10 //032   ----------------------------------------
 BYTE   W96
//  #10 //033   ----------------------------------------
 BYTE   W96
//  #10 //034   ----------------------------------------
 BYTE   W96
//  #10 //035   ----------------------------------------
 BYTE   W96
//  #10 //036   ----------------------------------------
 BYTE   W96
//  #10 //037   ----------------------------------------
 BYTE   W96
//  #10 //038   ----------------------------------------
 BYTE   W96
//  #10 //039   ----------------------------------------
 BYTE   W96
//  #10 //040   ----------------------------------------
 BYTE   W96
//  #10 //041   ----------------------------------------
 BYTE   W96
//  #10 //042   ----------------------------------------
 BYTE   W96
//  #10 //043   ----------------------------------------
 BYTE   W96
//  #10 //044   ----------------------------------------
 BYTE   W96
//  #10 //045   ----------------------------------------
 BYTE   W96
//  #10 //046   ----------------------------------------
 BYTE   W96
//  #10 //047   ----------------------------------------
 BYTE   W96
//  #10 //048   ----------------------------------------
 BYTE   W96
//  #10 //049   ----------------------------------------
 BYTE   W96
//  #10 //050   ----------------------------------------
 BYTE   W96
//  #10 //051   ----------------------------------------
 BYTE   W96
//  #10 //052   ----------------------------------------
 BYTE   W96
//  #10 //053   ----------------------------------------
 BYTE   W96
//  #10 //054   ----------------------------------------
 BYTE   W96
//  #10 //055   ----------------------------------------
 BYTE   W96
//  #10 //056   ----------------------------------------
 BYTE   W96
//  #10 //057   ----------------------------------------
 BYTE   W96
//  #10 //058   ----------------------------------------
 BYTE   W96
//  #10 //059   ----------------------------------------
 BYTE   W96
//  #10 //060   ----------------------------------------
 BYTE   W96
//  #10 //061   ----------------------------------------
 BYTE   W96
//  #10 //062   ----------------------------------------
 BYTE   W96
//  #10 //063   ----------------------------------------
 BYTE   W96
//  #10 //064   ----------------------------------------
 BYTE   W96
//  #10 //065   ----------------------------------------
 BYTE   W96
//  #10 //066   ----------------------------------------
 BYTE   W96
//  #10 //067   ----------------------------------------
 BYTE   W96
//  #10 //068   ----------------------------------------
 BYTE   W96
//  #10 //069   ----------------------------------------
 BYTE   W96
//  #10 //070   ----------------------------------------
 BYTE   W96
//  #10 //071   ----------------------------------------
 BYTE   W96
//  #10 //072   ----------------------------------------
 BYTE   W96
//  #10 //073   ----------------------------------------
 BYTE   W96
//  #10 //074   ----------------------------------------
 BYTE   W96
//  #10 //075   ----------------------------------------
 BYTE   W96
//  #10 //076   ----------------------------------------
 BYTE   W96
//  #10 //077   ----------------------------------------
 BYTE   W96
//  #10 //078   ----------------------------------------
 BYTE   W96
//  #10 //079   ----------------------------------------
 BYTE   W96
//  #10 //080   ----------------------------------------
 BYTE   W96
//  #10 //081   ----------------------------------------
 BYTE   W96
//  #10 //082   ----------------------------------------
 BYTE   W96
//  #10 //083   ----------------------------------------
 BYTE   W96
//  #10 //084   ----------------------------------------
 BYTE   W48
 BYTE   GoTo
  POIN2 Label_0100311A
 BYTE   FINE

//******************************************************//
	ALIGN 4

CastlevaniaPortraitofRuinJailofJewelTak:
	BYTE	10	// NumTrks
	BYTE	0	// NumBlks
	BYTE	CastlevaniaPortraitofRuinJailofJewelTak_pri	// Priority
	BYTE	CastlevaniaPortraitofRuinJailofJewelTak_rev	// Reverb.
    
	POIN2	CastlevaniaPortraitofRuinJailofJewelTak_grp
    
	POIN2	CastlevaniaPortraitofRuinJailofJewelTak_001
	POIN2	CastlevaniaPortraitofRuinJailofJewelTak_002
	POIN2	CastlevaniaPortraitofRuinJailofJewelTak_003
	POIN2	CastlevaniaPortraitofRuinJailofJewelTak_004
	POIN2	CastlevaniaPortraitofRuinJailofJewelTak_005
	POIN2	CastlevaniaPortraitofRuinJailofJewelTak_006
	POIN2	CastlevaniaPortraitofRuinJailofJewelTak_007
	POIN2	CastlevaniaPortraitofRuinJailofJewelTak_008
	POIN2	CastlevaniaPortraitofRuinJailofJewelTak_009
	POIN2	CastlevaniaPortraitofRuinJailofJewelTak_010

	
