//Event file generated from Sappy .s format.
	#include "MPlayDef.event"

	#define	CastlevaniaStage5AReliableChair_grp  voicegroup000
	#define	CastlevaniaStage5AReliableChair_pri  0
	#define	CastlevaniaStage5AReliableChair_rev  0
	#define	CastlevaniaStage5AReliableChair_mvl  127
	#define	CastlevaniaStage5AReliableChair_key  0
	#define	CastlevaniaStage5AReliableChair_tbs  1
	#define	CastlevaniaStage5AReliableChair_exg  0
	#define	CastlevaniaStage5AReliableChair_cmp  1

	// .rodata
	//	CastlevaniaStage5AReliableChair
	ALIGN 4


//**************** Track 1 (Midi-Chn.0) ****************//

CastlevaniaStage5AReliableChair_001:
// 000   ----------------------------------------
 BYTE   KEYSH   CastlevaniaStage5AReliableChair_key+0
Label_0_013717BA:
 BYTE   TEMPO   126*CastlevaniaStage5AReliableChair_tbs/2
 BYTE   VOICE   81
 BYTE   MODT 0
 BYTE   CnM2
 BYTE   LFOS 0
 BYTE   Gs1
 BYTE   VOL   29*CastlevaniaStage5AReliableChair_mvl/mxv
 BYTE   PAN   c_v+0
 BYTE   N06  Cn4  v116
 BYTE   W12
 BYTE   Gn3
 BYTE   W12
 BYTE   Cn4
 BYTE   W12
 BYTE   Gn3
 BYTE   W06
 BYTE   N12  Cn4
 BYTE   W18
 BYTE   N06  Gn3
 BYTE   W12
 BYTE   Bn3
 BYTE   W12
 BYTE   Gn3
 BYTE   W12
// 001   ----------------------------------------
Label_0_013717DA:
 BYTE   W06
 BYTE   N06  Cn2  v116
 BYTE   W06
 BYTE   Dn2
 BYTE   W06
 BYTE   Ds2
 BYTE   W06
 BYTE   Dn2
 BYTE   W12
 BYTE   Cn2
 BYTE   W06
 BYTE   N12  Ds2
 BYTE   W18
 BYTE   Cn2
 BYTE   W12
 BYTE   Dn2
 BYTE   W12
 BYTE   Cn2
 BYTE   W12
 BYTE   PEND 
// 002   ----------------------------------------
Label_0_013717F1:
 BYTE   N06  Cn4  v116
 BYTE   W12
 BYTE   Gn3
 BYTE   W12
 BYTE   Cn4
 BYTE   W12
 BYTE   Gn3
 BYTE   W06
 BYTE   N12  Cn4
 BYTE   W18
 BYTE   N06  Gn3
 BYTE   W12
 BYTE   Bn3
 BYTE   W12
 BYTE   Gn3
 BYTE   W12
 BYTE   PEND 
 BYTE   PATT
  POIN2 Label_0_013717DA
// 003   ----------------------------------------
Label_0_0137180B:
 BYTE   N12  Ds3  v116
 BYTE   W18
 BYTE   N06  Gs3
 BYTE   W18
 BYTE   N18  Cn4
 BYTE   W24
 BYTE   N12  Ds3
 BYTE   W12
 BYTE   Gs3
 BYTE   W12
 BYTE   Cn4
 BYTE   W12
 BYTE   PEND 
// 004   ----------------------------------------
Label_0_0137181D:
 BYTE   N12  Fn3  v116
 BYTE   W18
 BYTE   N06  As3
 BYTE   W18
 BYTE   N18  Dn4
 BYTE   W24
 BYTE   N12  Fn3
 BYTE   W12
 BYTE   As3
 BYTE   W12
 BYTE   Dn4
 BYTE   W12
 BYTE   PEND 
 BYTE   PATT
  POIN2 Label_0_013717F1
 BYTE   PATT
  POIN2 Label_0_013717DA
 BYTE   PATT
  POIN2 Label_0_013717F1
 BYTE   PATT
  POIN2 Label_0_013717DA
 BYTE   PATT
  POIN2 Label_0_0137180B
 BYTE   PATT
  POIN2 Label_0_0137181D
// 005   ----------------------------------------
Label_0_0137184D:
 BYTE   N18  Dn3  v116
 BYTE   W18
 BYTE   N12  Gn3
 BYTE   W18
 BYTE   N48
 BYTE   W60
 BYTE   PEND 
// 006   ----------------------------------------
Label_0_01371857:
 BYTE   N18  Gn3  v116
 BYTE   W18
 BYTE   N12  Dn4
 BYTE   W18
 BYTE   N36
 BYTE   W42
 BYTE   N06
 BYTE   W06
 BYTE   N06
 BYTE   W06
 BYTE   N06
 BYTE   W06
 BYTE   PEND 
// 007   ----------------------------------------
 BYTE   W96
// 008   ----------------------------------------
 BYTE   W96
// 009   ----------------------------------------
 BYTE   W96
// 010   ----------------------------------------
Label_0_0137186A:
 BYTE   W06
 BYTE   N06  Gn3  v116
 BYTE   W06
 BYTE   Bn3
 BYTE   W06
 BYTE   N06
 BYTE   W06
 BYTE   N12  Dn4
 BYTE   W12
 BYTE   N06
 BYTE   W06
 BYTE   N06
 BYTE   W12
 BYTE   N06
 BYTE   W12
 BYTE   N06
 BYTE   W06
 BYTE   N12
 BYTE   W12
 BYTE   N12
 BYTE   W12
 BYTE   PEND 
// 011   ----------------------------------------
 BYTE   W96
// 012   ----------------------------------------
 BYTE   W96
// 013   ----------------------------------------
 BYTE   W96
 BYTE   PATT
  POIN2 Label_0_0137186A
// 014   ----------------------------------------
Label_0_0137188B:
 BYTE   N66  Cn3  v116
 BYTE   W84
 BYTE   N06  As2
 BYTE   W12
 BYTE   PEND 
// 015   ----------------------------------------
Label_0_01371893:
 BYTE   N66  Gs2  v116
 BYTE   W72
 BYTE   N18  Gn2
 BYTE   W24
 BYTE   PEND 
// 016   ----------------------------------------
Label_0_0137189B:
 BYTE   N42  Fn2  v116
 BYTE   W48
 BYTE   Gn2
 BYTE   W48
 BYTE   PEND 
// 017   ----------------------------------------
 BYTE   Gs2
 BYTE   W48
 BYTE   As2
 BYTE   W48
// 018   ----------------------------------------
 BYTE   N96  Gn4
 BYTE   W96
// 019   ----------------------------------------
 BYTE   W96
// 020   ----------------------------------------
 BYTE   N78  Gn3
 BYTE   W78
 BYTE   N01
 BYTE   W01
 BYTE   Gs3
 BYTE   W02
 BYTE   An3
 BYTE   W01
 BYTE   As3
 BYTE   W02
 BYTE   Bn3
 BYTE   W01
 BYTE   Cn4
 BYTE   W02
 BYTE   Cs4
 BYTE   W01
 BYTE   Dn4
 BYTE   W02
 BYTE   Ds4
 BYTE   W01
 BYTE   En4
 BYTE   W02
 BYTE   Fn4
 BYTE   W01
 BYTE   Fs4
 BYTE   W02
// 021   ----------------------------------------
 BYTE   N96  Gn4
 BYTE   W96
 BYTE   PATT
  POIN2 Label_0_013717F1
 BYTE   PATT
  POIN2 Label_0_013717DA
 BYTE   PATT
  POIN2 Label_0_013717F1
 BYTE   PATT
  POIN2 Label_0_013717DA
 BYTE   PATT
  POIN2 Label_0_0137180B
 BYTE   PATT
  POIN2 Label_0_0137181D
 BYTE   PATT
  POIN2 Label_0_013717F1
 BYTE   PATT
  POIN2 Label_0_013717DA
 BYTE   PATT
  POIN2 Label_0_013717F1
 BYTE   PATT
  POIN2 Label_0_013717DA
 BYTE   PATT
  POIN2 Label_0_0137180B
 BYTE   PATT
  POIN2 Label_0_0137181D
 BYTE   PATT
  POIN2 Label_0_0137184D
 BYTE   PATT
  POIN2 Label_0_01371857
// 022   ----------------------------------------
 BYTE   W96
// 023   ----------------------------------------
 BYTE   W96
// 024   ----------------------------------------
 BYTE   W96
 BYTE   PATT
  POIN2 Label_0_0137186A
// 025   ----------------------------------------
 BYTE   W96
// 026   ----------------------------------------
 BYTE   W96
// 027   ----------------------------------------
 BYTE   W96
 BYTE   PATT
  POIN2 Label_0_0137186A
 BYTE   PATT
  POIN2 Label_0_0137188B
 BYTE   PATT
  POIN2 Label_0_01371893
 BYTE   PATT
  POIN2 Label_0_0137189B
// 028   ----------------------------------------
 BYTE   N42  Gs2  v116
 BYTE   W48
 BYTE   As2
 BYTE   W42
 BYTE   GoTo
  POIN2 Label_0_013717BA
 BYTE   FINE

//**************** Track 2 (Midi-Chn.1) ****************//

CastlevaniaStage5AReliableChair_002:
// 000   ----------------------------------------
 BYTE   KEYSH   CastlevaniaStage5AReliableChair_key+0
Label_1_0137193E:
 BYTE   VOICE   81
 BYTE   MODT 0
 BYTE   CnM2
 BYTE   LFOS 0
 BYTE   Gs1
 BYTE   VOL   29*CastlevaniaStage5AReliableChair_mvl/mxv
 BYTE   PAN   c_v+0
 BYTE   N06  Gn4  v116
 BYTE   W12
 BYTE   Cn4
 BYTE   W12
 BYTE   Fn4
 BYTE   W12
 BYTE   Cn4
 BYTE   W06
 BYTE   N12  Ds4
 BYTE   W18
 BYTE   N06  Cn4
 BYTE   W12
 BYTE   Dn4
 BYTE   W12
 BYTE   Cn4
 BYTE   W12
// 001   ----------------------------------------
Label_1_0137195C:
 BYTE   W06
 BYTE   N06  Cn3  v116
 BYTE   W06
 BYTE   Dn3
 BYTE   W06
 BYTE   Ds3
 BYTE   W06
 BYTE   Dn3
 BYTE   W12
 BYTE   Cn3
 BYTE   W06
 BYTE   N12  Ds3
 BYTE   W18
 BYTE   Cn3
 BYTE   W12
 BYTE   Dn3
 BYTE   W12
 BYTE   Cn3
 BYTE   W12
 BYTE   PEND 
// 002   ----------------------------------------
Label_1_01371973:
 BYTE   N06  Gn4  v116
 BYTE   W12
 BYTE   Cn4
 BYTE   W12
 BYTE   Fn4
 BYTE   W12
 BYTE   Cn4
 BYTE   W06
 BYTE   N12  Ds4
 BYTE   W18
 BYTE   N06  Cn4
 BYTE   W12
 BYTE   Dn4
 BYTE   W12
 BYTE   Cn4
 BYTE   W12
 BYTE   PEND 
 BYTE   PATT
  POIN2 Label_1_0137195C
// 003   ----------------------------------------
Label_1_0137198D:
 BYTE   N12  Gs3  v116
 BYTE   W18
 BYTE   N06  Cn4
 BYTE   W18
 BYTE   N18  Ds4
 BYTE   W24
 BYTE   N12  Gs3
 BYTE   W12
 BYTE   Cn4
 BYTE   W12
 BYTE   Ds4
 BYTE   W12
 BYTE   PEND 
// 004   ----------------------------------------
Label_1_0137199F:
 BYTE   N12  As3  v116
 BYTE   W18
 BYTE   N06  Dn4
 BYTE   W18
 BYTE   N18  Fn4
 BYTE   W24
 BYTE   N12  As3
 BYTE   W12
 BYTE   Dn4
 BYTE   W12
 BYTE   Fn4
 BYTE   W12
 BYTE   PEND 
 BYTE   PATT
  POIN2 Label_1_01371973
 BYTE   PATT
  POIN2 Label_1_0137195C
 BYTE   PATT
  POIN2 Label_1_01371973
 BYTE   PATT
  POIN2 Label_1_0137195C
 BYTE   PATT
  POIN2 Label_1_0137198D
 BYTE   PATT
  POIN2 Label_1_0137199F
// 005   ----------------------------------------
Label_1_013719CF:
 BYTE   N18  Gn3  v116
 BYTE   W18
 BYTE   N12  Bn3
 BYTE   W18
 BYTE   N48  Dn4
 BYTE   W60
 BYTE   PEND 
// 006   ----------------------------------------
Label_1_013719DA:
 BYTE   N18  Dn4  v116
 BYTE   W18
 BYTE   N12  Fn4
 BYTE   W18
 BYTE   N36  Gn4
 BYTE   W42
 BYTE   N06
 BYTE   W06
 BYTE   An4
 BYTE   W06
 BYTE   Bn4
 BYTE   W06
 BYTE   PEND 
// 007   ----------------------------------------
Label_1_013719EB:
 BYTE   N06  Cn4  v116
 BYTE   W06
 BYTE   Gn4  v100
 BYTE   W06
 BYTE   Fn4  v116
 BYTE   W06
 BYTE   Gn4  v100
 BYTE   W06
 BYTE   Ds4  v116
 BYTE   W06
 BYTE   Gn4  v100
 BYTE   W06
 BYTE   Dn4  v116
 BYTE   W06
 BYTE   Gn4  v100
 BYTE   W06
 BYTE   Cn4  v116
 BYTE   W06
 BYTE   Gn4  v100
 BYTE   W06
 BYTE   Bn3  v116
 BYTE   W06
 BYTE   Gn4  v100
 BYTE   W06
 BYTE   Cn4  v116
 BYTE   W06
 BYTE   Gn4  v100
 BYTE   W06
 BYTE   Dn4  v116
 BYTE   W06
 BYTE   Gn4  v100
 BYTE   W06
 BYTE   PEND 
 BYTE   PATT
  POIN2 Label_1_013719EB
 BYTE   PATT
  POIN2 Label_1_013719EB
// 008   ----------------------------------------
Label_1_01371A27:
 BYTE   W06
 BYTE   N06  Dn4  v116
 BYTE   W06
 BYTE   Ds4
 BYTE   W06
 BYTE   Fn4
 BYTE   W06
 BYTE   N12  Gn4
 BYTE   W12
 BYTE   N06  Fn4
 BYTE   W06
 BYTE   Gn4
 BYTE   W12
 BYTE   N06
 BYTE   W12
 BYTE   N06
 BYTE   W06
 BYTE   N12
 BYTE   W12
 BYTE   Bn4
 BYTE   W12
 BYTE   PEND 
 BYTE   PATT
  POIN2 Label_1_013719EB
 BYTE   PATT
  POIN2 Label_1_013719EB
 BYTE   PATT
  POIN2 Label_1_013719EB
 BYTE   PATT
  POIN2 Label_1_01371A27
// 009   ----------------------------------------
Label_1_01371A55:
 BYTE   N06  Ds4  v116
 BYTE   W06
 BYTE   Dn4
 BYTE   W06
 BYTE   Ds4
 BYTE   W06
 BYTE   Dn4
 BYTE   W06
 BYTE   N12  Ds4
 BYTE   W12
 BYTE   N06  Cn4
 BYTE   W06
 BYTE   N18  Ds4
 BYTE   W18
 BYTE   N12  Cn4
 BYTE   W12
 BYTE   Dn4
 BYTE   W12
 BYTE   Cn4
 BYTE   W12
 BYTE   PEND 
 BYTE   PATT
  POIN2 Label_1_01371A55
// 010   ----------------------------------------
Label_1_01371A75:
 BYTE   N18  Ds4  v116
 BYTE   W18
 BYTE   Cn4
 BYTE   W18
 BYTE   N12  Ds4
 BYTE   W12
 BYTE   N18  Fn4
 BYTE   W18
 BYTE   Dn4
 BYTE   W18
 BYTE   N12  Fn4
 BYTE   W12
 BYTE   PEND 
// 011   ----------------------------------------
 BYTE   N18  Gn4
 BYTE   W18
 BYTE   Fn4
 BYTE   W18
 BYTE   N12  Gn4
 BYTE   W12
 BYTE   N18  As4
 BYTE   W18
 BYTE   Gs4
 BYTE   W18
 BYTE   N12  As4
 BYTE   W12
// 012   ----------------------------------------
 BYTE   N96  Cn5
 BYTE   W96
// 013   ----------------------------------------
 BYTE   W96
// 014   ----------------------------------------
 BYTE   N78  Cn4
 BYTE   W78
 BYTE   N01
 BYTE   W01
 BYTE   Cs4
 BYTE   W02
 BYTE   Dn4
 BYTE   W01
 BYTE   Ds4
 BYTE   W02
 BYTE   En4
 BYTE   W01
 BYTE   Fn4
 BYTE   W02
 BYTE   Fs4
 BYTE   W01
 BYTE   Gn4
 BYTE   W02
 BYTE   Gs4
 BYTE   W01
 BYTE   An4
 BYTE   W02
 BYTE   As4
 BYTE   W01
 BYTE   Bn4
 BYTE   W02
// 015   ----------------------------------------
 BYTE   N96  Cn5
 BYTE   W96
 BYTE   PATT
  POIN2 Label_1_01371973
 BYTE   PATT
  POIN2 Label_1_0137195C
 BYTE   PATT
  POIN2 Label_1_01371973
 BYTE   PATT
  POIN2 Label_1_0137195C
 BYTE   PATT
  POIN2 Label_1_0137198D
 BYTE   PATT
  POIN2 Label_1_0137199F
 BYTE   PATT
  POIN2 Label_1_01371973
 BYTE   PATT
  POIN2 Label_1_0137195C
 BYTE   PATT
  POIN2 Label_1_01371973
 BYTE   PATT
  POIN2 Label_1_0137195C
 BYTE   PATT
  POIN2 Label_1_0137198D
 BYTE   PATT
  POIN2 Label_1_0137199F
 BYTE   PATT
  POIN2 Label_1_013719CF
 BYTE   PATT
  POIN2 Label_1_013719DA
 BYTE   PATT
  POIN2 Label_1_013719EB
 BYTE   PATT
  POIN2 Label_1_013719EB
 BYTE   PATT
  POIN2 Label_1_013719EB
 BYTE   PATT
  POIN2 Label_1_01371A27
 BYTE   PATT
  POIN2 Label_1_013719EB
 BYTE   PATT
  POIN2 Label_1_013719EB
 BYTE   PATT
  POIN2 Label_1_013719EB
 BYTE   PATT
  POIN2 Label_1_01371A27
 BYTE   PATT
  POIN2 Label_1_01371A55
 BYTE   PATT
  POIN2 Label_1_01371A55
 BYTE   PATT
  POIN2 Label_1_01371A75
// 016   ----------------------------------------
 BYTE   N18  Gn4  v116
 BYTE   W18
 BYTE   Fn4
 BYTE   W18
 BYTE   N12  Gn4
 BYTE   W12
 BYTE   N18  As4
 BYTE   W18
 BYTE   Gs4
 BYTE   W24
 BYTE   GoTo
  POIN2 Label_1_0137193E
 BYTE   FINE

//**************** Track 3 (Midi-Chn.2) ****************//

CastlevaniaStage5AReliableChair_003:
// 000   ----------------------------------------
 BYTE   KEYSH   CastlevaniaStage5AReliableChair_key+0
Label_2_01371B4E:
 BYTE   VOICE   48
 BYTE   MODT 0
 BYTE   CnM2
 BYTE   LFOS 0
 BYTE   Gs1
 BYTE   VOL   40*CastlevaniaStage5AReliableChair_mvl/mxv
 BYTE   PAN   c_v+0
 BYTE   N06  Cn4  v116
 BYTE   W12
 BYTE   Gn3
 BYTE   W12
 BYTE   Cn4
 BYTE   W12
 BYTE   Gn3
 BYTE   W06
 BYTE   N12  Cn4
 BYTE   W18
 BYTE   N06  Gn3
 BYTE   W12
 BYTE   Bn3
 BYTE   W12
 BYTE   Gn3
 BYTE   W12
// 001   ----------------------------------------
Label_2_01371B6C:
 BYTE   W06
 BYTE   N06  Cn2  v116
 BYTE   W06
 BYTE   Dn2
 BYTE   W06
 BYTE   Ds2
 BYTE   W06
 BYTE   Dn2
 BYTE   W12
 BYTE   Cn2
 BYTE   W06
 BYTE   N12  Ds2
 BYTE   W18
 BYTE   Cn2
 BYTE   W12
 BYTE   Dn2
 BYTE   W12
 BYTE   Cn2
 BYTE   W12
 BYTE   PEND 
// 002   ----------------------------------------
Label_2_01371B83:
 BYTE   N06  Cn4  v116
 BYTE   W12
 BYTE   Gn3
 BYTE   W12
 BYTE   Cn4
 BYTE   W12
 BYTE   Gn3
 BYTE   W06
 BYTE   N12  Cn4
 BYTE   W18
 BYTE   N06  Gn3
 BYTE   W12
 BYTE   Bn3
 BYTE   W12
 BYTE   Gn3
 BYTE   W12
 BYTE   PEND 
 BYTE   PATT
  POIN2 Label_2_01371B6C
// 003   ----------------------------------------
Label_2_01371B9D:
 BYTE   N12  Ds3  v116
 BYTE   W18
 BYTE   N06  Gs3
 BYTE   W18
 BYTE   N18  Cn4
 BYTE   W24
 BYTE   N12  Ds3
 BYTE   W12
 BYTE   Gs3
 BYTE   W12
 BYTE   Cn4
 BYTE   W12
 BYTE   PEND 
// 004   ----------------------------------------
Label_2_01371BAF:
 BYTE   N12  Fn3  v116
 BYTE   W18
 BYTE   N06  As3
 BYTE   W18
 BYTE   N18  Dn4
 BYTE   W24
 BYTE   N12  Fn3
 BYTE   W12
 BYTE   As3
 BYTE   W12
 BYTE   Dn4
 BYTE   W12
 BYTE   PEND 
 BYTE   PATT
  POIN2 Label_2_01371B83
 BYTE   PATT
  POIN2 Label_2_01371B6C
 BYTE   PATT
  POIN2 Label_2_01371B83
 BYTE   PATT
  POIN2 Label_2_01371B6C
 BYTE   PATT
  POIN2 Label_2_01371B9D
 BYTE   PATT
  POIN2 Label_2_01371BAF
// 005   ----------------------------------------
Label_2_01371BDF:
 BYTE   N18  Dn3  v116
 BYTE   W18
 BYTE   N12  Gn3
 BYTE   W18
 BYTE   N48
 BYTE   W60
 BYTE   PEND 
// 006   ----------------------------------------
Label_2_01371BE9:
 BYTE   N18  Gn3  v116
 BYTE   W18
 BYTE   N12  Dn4
 BYTE   W18
 BYTE   N36
 BYTE   W42
 BYTE   N06
 BYTE   W06
 BYTE   N06
 BYTE   W06
 BYTE   N06
 BYTE   W06
 BYTE   PEND 
// 007   ----------------------------------------
 BYTE   W96
// 008   ----------------------------------------
 BYTE   W96
// 009   ----------------------------------------
 BYTE   W96
// 010   ----------------------------------------
Label_2_01371BFC:
 BYTE   W06
 BYTE   N06  Gn3  v116
 BYTE   W06
 BYTE   Bn3
 BYTE   W06
 BYTE   N06
 BYTE   W06
 BYTE   N12  Dn4
 BYTE   W12
 BYTE   N06
 BYTE   W06
 BYTE   N06
 BYTE   W12
 BYTE   N06
 BYTE   W12
 BYTE   N06
 BYTE   W06
 BYTE   N12
 BYTE   W12
 BYTE   N12
 BYTE   W12
 BYTE   PEND 
// 011   ----------------------------------------
 BYTE   W96
// 012   ----------------------------------------
 BYTE   W96
// 013   ----------------------------------------
 BYTE   W96
 BYTE   PATT
  POIN2 Label_2_01371BFC
// 014   ----------------------------------------
Label_2_01371C1D:
 BYTE   N66  Cn3  v116
 BYTE   W84
 BYTE   N06  As2
 BYTE   W12
 BYTE   PEND 
// 015   ----------------------------------------
Label_2_01371C25:
 BYTE   N66  Gs2  v116
 BYTE   W72
 BYTE   N18  Gn2
 BYTE   W24
 BYTE   PEND 
// 016   ----------------------------------------
Label_2_01371C2D:
 BYTE   N42  Fn2  v116
 BYTE   W48
 BYTE   Gn2
 BYTE   W48
 BYTE   PEND 
// 017   ----------------------------------------
 BYTE   Gs2
 BYTE   W48
 BYTE   As2
 BYTE   W48
// 018   ----------------------------------------
 BYTE   N96  Gn4
 BYTE   W96
// 019   ----------------------------------------
 BYTE   W96
// 020   ----------------------------------------
 BYTE   N78  Gn3
 BYTE   W78
 BYTE   N01
 BYTE   W01
 BYTE   Gs3
 BYTE   W02
 BYTE   An3
 BYTE   W01
 BYTE   As3
 BYTE   W02
 BYTE   Bn3
 BYTE   W01
 BYTE   Cn4
 BYTE   W02
 BYTE   Cs4
 BYTE   W01
 BYTE   Dn4
 BYTE   W02
 BYTE   Ds4
 BYTE   W01
 BYTE   En4
 BYTE   W02
 BYTE   Fn4
 BYTE   W01
 BYTE   Fs4
 BYTE   W02
// 021   ----------------------------------------
 BYTE   N96  Gn4
 BYTE   W96
 BYTE   PATT
  POIN2 Label_2_01371B83
 BYTE   PATT
  POIN2 Label_2_01371B6C
 BYTE   PATT
  POIN2 Label_2_01371B83
 BYTE   PATT
  POIN2 Label_2_01371B6C
 BYTE   PATT
  POIN2 Label_2_01371B9D
 BYTE   PATT
  POIN2 Label_2_01371BAF
 BYTE   PATT
  POIN2 Label_2_01371B83
 BYTE   PATT
  POIN2 Label_2_01371B6C
 BYTE   PATT
  POIN2 Label_2_01371B83
 BYTE   PATT
  POIN2 Label_2_01371B6C
 BYTE   PATT
  POIN2 Label_2_01371B9D
 BYTE   PATT
  POIN2 Label_2_01371BAF
 BYTE   PATT
  POIN2 Label_2_01371BDF
 BYTE   PATT
  POIN2 Label_2_01371BE9
// 022   ----------------------------------------
 BYTE   W96
// 023   ----------------------------------------
 BYTE   W96
// 024   ----------------------------------------
 BYTE   W96
 BYTE   PATT
  POIN2 Label_2_01371BFC
// 025   ----------------------------------------
 BYTE   W96
// 026   ----------------------------------------
 BYTE   W96
// 027   ----------------------------------------
 BYTE   W96
 BYTE   PATT
  POIN2 Label_2_01371BFC
 BYTE   PATT
  POIN2 Label_2_01371C1D
 BYTE   PATT
  POIN2 Label_2_01371C25
 BYTE   PATT
  POIN2 Label_2_01371C2D
// 028   ----------------------------------------
 BYTE   N42  Gs2  v116
 BYTE   W48
 BYTE   As2
 BYTE   W42
 BYTE   GoTo
  POIN2 Label_2_01371B4E
 BYTE   FINE

//**************** Track 4 (Midi-Chn.3) ****************//

CastlevaniaStage5AReliableChair_004:
// 000   ----------------------------------------
 BYTE   KEYSH   CastlevaniaStage5AReliableChair_key+0
Label_3_01371CCE:
 BYTE   VOICE   48
 BYTE   MODT 0
 BYTE   CnM2
 BYTE   LFOS 0
 BYTE   Gs1
 BYTE   VOL   40*CastlevaniaStage5AReliableChair_mvl/mxv
 BYTE   PAN   c_v+0
 BYTE   N06  Gn4  v116
 BYTE   W12
 BYTE   Cn4
 BYTE   W12
 BYTE   Fn4
 BYTE   W12
 BYTE   Cn4
 BYTE   W06
 BYTE   N12  Ds4
 BYTE   W18
 BYTE   N06  Cn4
 BYTE   W12
 BYTE   Dn4
 BYTE   W12
 BYTE   Cn4
 BYTE   W12
// 001   ----------------------------------------
Label_3_01371CEC:
 BYTE   W06
 BYTE   N06  Cn3  v116
 BYTE   W06
 BYTE   Dn3
 BYTE   W06
 BYTE   Ds3
 BYTE   W06
 BYTE   Dn3
 BYTE   W12
 BYTE   Cn3
 BYTE   W06
 BYTE   N12  Ds3
 BYTE   W18
 BYTE   Cn3
 BYTE   W12
 BYTE   Dn3
 BYTE   W12
 BYTE   Cn3
 BYTE   W12
 BYTE   PEND 
// 002   ----------------------------------------
Label_3_01371D03:
 BYTE   N06  Gn4  v116
 BYTE   W12
 BYTE   Cn4
 BYTE   W12
 BYTE   Fn4
 BYTE   W12
 BYTE   Cn4
 BYTE   W06
 BYTE   N12  Ds4
 BYTE   W18
 BYTE   N06  Cn4
 BYTE   W12
 BYTE   Dn4
 BYTE   W12
 BYTE   Cn4
 BYTE   W12
 BYTE   PEND 
 BYTE   PATT
  POIN2 Label_3_01371CEC
// 003   ----------------------------------------
Label_3_01371D1D:
 BYTE   N12  Gs3  v116
 BYTE   W18
 BYTE   N06  Cn4
 BYTE   W18
 BYTE   N18  Ds4
 BYTE   W24
 BYTE   N12  Gs3
 BYTE   W12
 BYTE   Cn4
 BYTE   W12
 BYTE   Ds4
 BYTE   W12
 BYTE   PEND 
// 004   ----------------------------------------
Label_3_01371D2F:
 BYTE   N12  As3  v116
 BYTE   W18
 BYTE   N06  Dn4
 BYTE   W18
 BYTE   N18  Fn4
 BYTE   W24
 BYTE   N12  As3
 BYTE   W12
 BYTE   Dn4
 BYTE   W12
 BYTE   Fn4
 BYTE   W12
 BYTE   PEND 
 BYTE   PATT
  POIN2 Label_3_01371D03
 BYTE   PATT
  POIN2 Label_3_01371CEC
 BYTE   PATT
  POIN2 Label_3_01371D03
 BYTE   PATT
  POIN2 Label_3_01371CEC
 BYTE   PATT
  POIN2 Label_3_01371D1D
 BYTE   PATT
  POIN2 Label_3_01371D2F
// 005   ----------------------------------------
Label_3_01371D5F:
 BYTE   N18  Gn3  v116
 BYTE   W18
 BYTE   N12  Bn3
 BYTE   W18
 BYTE   N48  Dn4
 BYTE   W60
 BYTE   PEND 
// 006   ----------------------------------------
Label_3_01371D6A:
 BYTE   N18  Dn4  v116
 BYTE   W18
 BYTE   N12  Fn4
 BYTE   W18
 BYTE   N36  Gn4
 BYTE   W42
 BYTE   N06
 BYTE   W06
 BYTE   An4
 BYTE   W06
 BYTE   Bn4
 BYTE   W06
 BYTE   PEND 
// 007   ----------------------------------------
Label_3_01371D7B:
 BYTE   N06  Cn4  v116
 BYTE   W06
 BYTE   Gn4  v100
 BYTE   W06
 BYTE   Fn4  v116
 BYTE   W06
 BYTE   Gn4  v100
 BYTE   W06
 BYTE   Ds4  v116
 BYTE   W06
 BYTE   Gn4  v100
 BYTE   W06
 BYTE   Dn4  v116
 BYTE   W06
 BYTE   Gn4  v100
 BYTE   W06
 BYTE   Cn4  v116
 BYTE   W06
 BYTE   Gn4  v100
 BYTE   W06
 BYTE   Bn3  v116
 BYTE   W06
 BYTE   Gn4  v100
 BYTE   W06
 BYTE   Cn4  v116
 BYTE   W06
 BYTE   Gn4  v100
 BYTE   W06
 BYTE   Dn4  v116
 BYTE   W06
 BYTE   Gn4  v100
 BYTE   W06
 BYTE   PEND 
 BYTE   PATT
  POIN2 Label_3_01371D7B
 BYTE   PATT
  POIN2 Label_3_01371D7B
// 008   ----------------------------------------
Label_3_01371DB7:
 BYTE   W06
 BYTE   N06  Dn4  v116
 BYTE   W06
 BYTE   Ds4
 BYTE   W06
 BYTE   Fn4
 BYTE   W06
 BYTE   N12  Gn4
 BYTE   W12
 BYTE   N06  Fn4
 BYTE   W06
 BYTE   Gn4
 BYTE   W12
 BYTE   N06
 BYTE   W12
 BYTE   N06
 BYTE   W06
 BYTE   N12
 BYTE   W12
 BYTE   Bn4
 BYTE   W12
 BYTE   PEND 
 BYTE   PATT
  POIN2 Label_3_01371D7B
 BYTE   PATT
  POIN2 Label_3_01371D7B
 BYTE   PATT
  POIN2 Label_3_01371D7B
 BYTE   PATT
  POIN2 Label_3_01371DB7
// 009   ----------------------------------------
Label_3_01371DE5:
 BYTE   N06  Ds4  v116
 BYTE   W06
 BYTE   Dn4
 BYTE   W06
 BYTE   Ds4
 BYTE   W06
 BYTE   Dn4
 BYTE   W06
 BYTE   N12  Ds4
 BYTE   W12
 BYTE   N06  Cn4
 BYTE   W06
 BYTE   N18  Ds4
 BYTE   W18
 BYTE   N12  Cn4
 BYTE   W12
 BYTE   Dn4
 BYTE   W12
 BYTE   Cn4
 BYTE   W12
 BYTE   PEND 
 BYTE   PATT
  POIN2 Label_3_01371DE5
// 010   ----------------------------------------
Label_3_01371E05:
 BYTE   N18  Ds4  v116
 BYTE   W18
 BYTE   Cn4
 BYTE   W18
 BYTE   N12  Ds4
 BYTE   W12
 BYTE   N18  Fn4
 BYTE   W18
 BYTE   Dn4
 BYTE   W18
 BYTE   N12  Fn4
 BYTE   W12
 BYTE   PEND 
// 011   ----------------------------------------
 BYTE   N18  Gn4
 BYTE   W18
 BYTE   Fn4
 BYTE   W18
 BYTE   N12  Gn4
 BYTE   W12
 BYTE   N18  As4
 BYTE   W18
 BYTE   Gs4
 BYTE   W18
 BYTE   N12  As4
 BYTE   W12
// 012   ----------------------------------------
 BYTE   N96  Cn5
 BYTE   W96
// 013   ----------------------------------------
 BYTE   W96
// 014   ----------------------------------------
 BYTE   N78  Cn4
 BYTE   W78
 BYTE   N01
 BYTE   W01
 BYTE   Cs4
 BYTE   W02
 BYTE   Dn4
 BYTE   W01
 BYTE   Ds4
 BYTE   W02
 BYTE   En4
 BYTE   W01
 BYTE   Fn4
 BYTE   W02
 BYTE   Fs4
 BYTE   W01
 BYTE   Gn4
 BYTE   W02
 BYTE   Gs4
 BYTE   W01
 BYTE   An4
 BYTE   W02
 BYTE   As4
 BYTE   W01
 BYTE   Bn4
 BYTE   W02
// 015   ----------------------------------------
 BYTE   N96  Cn5
 BYTE   W96
 BYTE   PATT
  POIN2 Label_3_01371D03
 BYTE   PATT
  POIN2 Label_3_01371CEC
 BYTE   PATT
  POIN2 Label_3_01371D03
 BYTE   PATT
  POIN2 Label_3_01371CEC
 BYTE   PATT
  POIN2 Label_3_01371D1D
 BYTE   PATT
  POIN2 Label_3_01371D2F
 BYTE   PATT
  POIN2 Label_3_01371D03
 BYTE   PATT
  POIN2 Label_3_01371CEC
 BYTE   PATT
  POIN2 Label_3_01371D03
 BYTE   PATT
  POIN2 Label_3_01371CEC
 BYTE   PATT
  POIN2 Label_3_01371D1D
 BYTE   PATT
  POIN2 Label_3_01371D2F
 BYTE   PATT
  POIN2 Label_3_01371D5F
 BYTE   PATT
  POIN2 Label_3_01371D6A
 BYTE   PATT
  POIN2 Label_3_01371D7B
 BYTE   PATT
  POIN2 Label_3_01371D7B
 BYTE   PATT
  POIN2 Label_3_01371D7B
 BYTE   PATT
  POIN2 Label_3_01371DB7
 BYTE   PATT
  POIN2 Label_3_01371D7B
 BYTE   PATT
  POIN2 Label_3_01371D7B
 BYTE   PATT
  POIN2 Label_3_01371D7B
 BYTE   PATT
  POIN2 Label_3_01371DB7
 BYTE   PATT
  POIN2 Label_3_01371DE5
 BYTE   PATT
  POIN2 Label_3_01371DE5
 BYTE   PATT
  POIN2 Label_3_01371E05
// 016   ----------------------------------------
 BYTE   N18  Gn4  v116
 BYTE   W18
 BYTE   Fn4
 BYTE   W18
 BYTE   N12  Gn4
 BYTE   W12
 BYTE   N18  As4
 BYTE   W18
 BYTE   Gs4
 BYTE   W24
 BYTE   GoTo
  POIN2 Label_3_01371CCE
 BYTE   FINE

//**************** Track 5 (Midi-Chn.4) ****************//

CastlevaniaStage5AReliableChair_005:
// 000   ----------------------------------------
 BYTE   KEYSH   CastlevaniaStage5AReliableChair_key+0
Label_4_01371EDE:
 BYTE   VOICE   80
 BYTE   MODT 0
 BYTE   CnM2
 BYTE   LFOS 0
 BYTE   Gs1
 BYTE   VOL   24*CastlevaniaStage5AReliableChair_mvl/mxv
 BYTE   PAN   c_v+0
 BYTE   W96
// 001   ----------------------------------------
 BYTE   W96
// 002   ----------------------------------------
 BYTE   W96
// 003   ----------------------------------------
 BYTE   W96
// 004   ----------------------------------------
 BYTE   W96
// 005   ----------------------------------------
 BYTE   W96
// 006   ----------------------------------------
 BYTE   W96
// 007   ----------------------------------------
 BYTE   W96
// 008   ----------------------------------------
 BYTE   W96
// 009   ----------------------------------------
 BYTE   W96
// 010   ----------------------------------------
 BYTE   W96
// 011   ----------------------------------------
 BYTE   W96
// 012   ----------------------------------------
 BYTE   W96
// 013   ----------------------------------------
 BYTE   W96
// 014   ----------------------------------------
Label_4_01371EF6:
 BYTE   N06  Cn4  v116
 BYTE   W06
 BYTE   Gn4  v100
 BYTE   W06
 BYTE   Fn4  v116
 BYTE   W06
 BYTE   Gn4  v100
 BYTE   W06
 BYTE   Ds4  v116
 BYTE   W06
 BYTE   Gn4  v100
 BYTE   W06
 BYTE   Dn4  v116
 BYTE   W06
 BYTE   Gn4  v100
 BYTE   W06
 BYTE   Cn4  v116
 BYTE   W06
 BYTE   Gn4  v100
 BYTE   W06
 BYTE   Bn3  v116
 BYTE   W06
 BYTE   Gn4  v100
 BYTE   W06
 BYTE   Cn4  v116
 BYTE   W06
 BYTE   Gn4  v100
 BYTE   W06
 BYTE   Dn4  v116
 BYTE   W06
 BYTE   Gn4  v100
 BYTE   W06
 BYTE   PEND 
 BYTE   PATT
  POIN2 Label_4_01371EF6
 BYTE   PATT
  POIN2 Label_4_01371EF6
// 015   ----------------------------------------
 BYTE   W96
 BYTE   PATT
  POIN2 Label_4_01371EF6
 BYTE   PATT
  POIN2 Label_4_01371EF6
 BYTE   PATT
  POIN2 Label_4_01371EF6
// 016   ----------------------------------------
 BYTE   W96
// 017   ----------------------------------------
 BYTE   W96
// 018   ----------------------------------------
 BYTE   W96
// 019   ----------------------------------------
 BYTE   W96
// 020   ----------------------------------------
 BYTE   W96
// 021   ----------------------------------------
 BYTE   W96
// 022   ----------------------------------------
 BYTE   W96
// 023   ----------------------------------------
 BYTE   W96
// 024   ----------------------------------------
 BYTE   W96
// 025   ----------------------------------------
 BYTE   W96
// 026   ----------------------------------------
 BYTE   W96
// 027   ----------------------------------------
 BYTE   W96
// 028   ----------------------------------------
 BYTE   W96
// 029   ----------------------------------------
 BYTE   W96
// 030   ----------------------------------------
 BYTE   W96
// 031   ----------------------------------------
 BYTE   W96
// 032   ----------------------------------------
 BYTE   W96
// 033   ----------------------------------------
 BYTE   W96
// 034   ----------------------------------------
 BYTE   W96
// 035   ----------------------------------------
 BYTE   W96
// 036   ----------------------------------------
 BYTE   W96
// 037   ----------------------------------------
 BYTE   W96
// 038   ----------------------------------------
 BYTE   W96
 BYTE   PATT
  POIN2 Label_4_01371EF6
 BYTE   PATT
  POIN2 Label_4_01371EF6
 BYTE   PATT
  POIN2 Label_4_01371EF6
// 039   ----------------------------------------
 BYTE   W96
 BYTE   PATT
  POIN2 Label_4_01371EF6
 BYTE   PATT
  POIN2 Label_4_01371EF6
 BYTE   PATT
  POIN2 Label_4_01371EF6
// 040   ----------------------------------------
 BYTE   W96
// 041   ----------------------------------------
 BYTE   W96
// 042   ----------------------------------------
 BYTE   W96
// 043   ----------------------------------------
 BYTE   W96
// 044   ----------------------------------------
 BYTE   W90
 BYTE   GoTo
  POIN2 Label_4_01371EDE
 BYTE   FINE

//**************** Track 6 (Midi-Chn.5) ****************//

CastlevaniaStage5AReliableChair_006:
// 000   ----------------------------------------
 BYTE   KEYSH   CastlevaniaStage5AReliableChair_key+0
Label_5_01371F86:
 BYTE   VOICE   121
 BYTE   MODT 0
 BYTE   CnM2
 BYTE   LFOS 0
 BYTE   Gs1
 BYTE   VOL   40*CastlevaniaStage5AReliableChair_mvl/mxv
 BYTE   PAN   c_v+0
 BYTE   N06  Bn0  v116
 BYTE   N06  Fs1
 BYTE   W12
 BYTE   N06
 BYTE   W12
 BYTE   Dn1
 BYTE   W12
 BYTE   Fs1
 BYTE   W12
 BYTE   Bn0
 BYTE   N06  Fs1
 BYTE   W12
 BYTE   N06
 BYTE   W12
 BYTE   Dn1
 BYTE   W12
 BYTE   N06
 BYTE   W06
 BYTE   N06
 BYTE   W06
// 001   ----------------------------------------
Label_5_01371FA8:
 BYTE   N06  Bn0  v116
 BYTE   N06  Fs1
 BYTE   W12
 BYTE   N06
 BYTE   W12
 BYTE   Dn1
 BYTE   W12
 BYTE   Fs1
 BYTE   W12
 BYTE   Bn0
 BYTE   N06  Fs1
 BYTE   W12
 BYTE   N06
 BYTE   W12
 BYTE   Dn1
 BYTE   W12
 BYTE   N06
 BYTE   W06
 BYTE   N06
 BYTE   W06
 BYTE   PEND 
 BYTE   PATT
  POIN2 Label_5_01371FA8
 BYTE   PATT
  POIN2 Label_5_01371FA8
 BYTE   PATT
  POIN2 Label_5_01371FA8
 BYTE   PATT
  POIN2 Label_5_01371FA8
 BYTE   PATT
  POIN2 Label_5_01371FA8
 BYTE   PATT
  POIN2 Label_5_01371FA8
 BYTE   PATT
  POIN2 Label_5_01371FA8
 BYTE   PATT
  POIN2 Label_5_01371FA8
 BYTE   PATT
  POIN2 Label_5_01371FA8
 BYTE   PATT
  POIN2 Label_5_01371FA8
 BYTE   PATT
  POIN2 Label_5_01371FA8
 BYTE   PATT
  POIN2 Label_5_01371FA8
// 002   ----------------------------------------
Label_5_01371FFD:
 BYTE   N06  Bn0  v116
 BYTE   N06  Fs1
 BYTE   W12
 BYTE   Bn0
 BYTE   N06  Fs1
 BYTE   W06
 BYTE   Bn0
 BYTE   N06  Fs1
 BYTE   W06
 BYTE   Dn1
 BYTE   W12
 BYTE   Bn0
 BYTE   N06  Fs1
 BYTE   W12
 BYTE   Bn0
 BYTE   N06  Fs1
 BYTE   W12
 BYTE   N06
 BYTE   W06
 BYTE   N06
 BYTE   W06
 BYTE   Dn1
 BYTE   W12
 BYTE   N06
 BYTE   W12
 BYTE   PEND 
 BYTE   PATT
  POIN2 Label_5_01371FFD
 BYTE   PATT
  POIN2 Label_5_01371FFD
// 003   ----------------------------------------
Label_5_01372028:
 BYTE   N06  Bn0  v116
 BYTE   N06  Fs1
 BYTE   W12
 BYTE   Bn0
 BYTE   N06  Fs1
 BYTE   W06
 BYTE   Bn0
 BYTE   N06  Fs1
 BYTE   W06
 BYTE   Dn1
 BYTE   W12
 BYTE   Bn0
 BYTE   N06  Fs1
 BYTE   W12
 BYTE   Bn0
 BYTE   N06  Fs1
 BYTE   W12
 BYTE   Bn0
 BYTE   N06  Fs1
 BYTE   W06
 BYTE   Bn0
 BYTE   N06  Fs1
 BYTE   W06
 BYTE   Dn1
 BYTE   W12
 BYTE   N06
 BYTE   W06
 BYTE   N06
 BYTE   W06
 BYTE   PEND 
 BYTE   PATT
  POIN2 Label_5_01371FFD
 BYTE   PATT
  POIN2 Label_5_01371FFD
 BYTE   PATT
  POIN2 Label_5_01371FFD
 BYTE   PATT
  POIN2 Label_5_01372028
// 004   ----------------------------------------
Label_5_01372063:
 BYTE   N06  Bn0  v116
 BYTE   N06  Fs1
 BYTE   W12
 BYTE   N06
 BYTE   W12
 BYTE   Dn1
 BYTE   W12
 BYTE   Fs1
 BYTE   W12
 BYTE   Bn0
 BYTE   N06  Fs1
 BYTE   W12
 BYTE   N06
 BYTE   W12
 BYTE   Dn1
 BYTE   W12
 BYTE   N06
 BYTE   W12
 BYTE   PEND 
 BYTE   PATT
  POIN2 Label_5_01372063
// 005   ----------------------------------------
Label_5_0137207F:
 BYTE   N06  Bn0  v116
 BYTE   N06  Fs1
 BYTE   W06
 BYTE   Bn0
 BYTE   N06  Fs1
 BYTE   W06
 BYTE   Dn1
 BYTE   W12
 BYTE   Bn0
 BYTE   N06  Fs1
 BYTE   W06
 BYTE   Bn0
 BYTE   N06  Fs1
 BYTE   W06
 BYTE   Dn1
 BYTE   W06
 BYTE   N06
 BYTE   W12
 BYTE   Bn0
 BYTE   N06  Fs1
 BYTE   W06
 BYTE   Dn1
 BYTE   W12
 BYTE   Bn0
 BYTE   N06  Fs1
 BYTE   W06
 BYTE   Bn0
 BYTE   N06  Fs1
 BYTE   W06
 BYTE   Dn1
 BYTE   W06
 BYTE   N06
 BYTE   W06
 BYTE   PEND 
// 006   ----------------------------------------
 BYTE   W06
 BYTE   Bn0
 BYTE   N06  Fs1
 BYTE   W06
 BYTE   Dn1
 BYTE   W12
 BYTE   Bn0
 BYTE   N06  Fs1
 BYTE   W06
 BYTE   Bn0
 BYTE   N06  Fs1
 BYTE   W06
 BYTE   Dn1
 BYTE   W06
 BYTE   N06
 BYTE   W12
 BYTE   Bn0
 BYTE   N06  Fs1
 BYTE   W06
 BYTE   Dn1
 BYTE   W06
 BYTE   N06
 BYTE   W12
 BYTE   N06
 BYTE   W06
 BYTE   N06
 BYTE   W06
 BYTE   N06
 BYTE   W06
// 007   ----------------------------------------
Label_5_013720CB:
 BYTE   N06  Bn0  v116
 BYTE   N06  Fs1
 BYTE   W12
 BYTE   N06
 BYTE   W12
 BYTE   Dn1
 BYTE   W12
 BYTE   Fs1
 BYTE   W12
 BYTE   Bn0
 BYTE   N06  Fs1
 BYTE   W12
 BYTE   Dn1
 BYTE   W06
 BYTE   N06
 BYTE   W12
 BYTE   N06
 BYTE   W12
 BYTE   Bn0
 BYTE   N06  Fs1
 BYTE   W06
 BYTE   PEND 
// 008   ----------------------------------------
Label_5_013720E6:
 BYTE   N06  Bn0  v116
 BYTE   N06  Fs1
 BYTE   W06
 BYTE   N06
 BYTE   W06
 BYTE   N06
 BYTE   W12
 BYTE   Dn1
 BYTE   W12
 BYTE   Fs1
 BYTE   W12
 BYTE   Bn0
 BYTE   N06  Fs1
 BYTE   W12
 BYTE   Dn1
 BYTE   W06
 BYTE   N06
 BYTE   W12
 BYTE   N06
 BYTE   W12
 BYTE   N06
 BYTE   W06
 BYTE   PEND 
 BYTE   PATT
  POIN2 Label_5_013720CB
 BYTE   PATT
  POIN2 Label_5_013720E6
 BYTE   PATT
  POIN2 Label_5_01371FA8
 BYTE   PATT
  POIN2 Label_5_01371FA8
 BYTE   PATT
  POIN2 Label_5_01371FA8
 BYTE   PATT
  POIN2 Label_5_01371FA8
 BYTE   PATT
  POIN2 Label_5_01371FA8
 BYTE   PATT
  POIN2 Label_5_01371FA8
 BYTE   PATT
  POIN2 Label_5_01371FA8
 BYTE   PATT
  POIN2 Label_5_01371FA8
 BYTE   PATT
  POIN2 Label_5_01371FA8
 BYTE   PATT
  POIN2 Label_5_01371FA8
 BYTE   PATT
  POIN2 Label_5_01371FA8
 BYTE   PATT
  POIN2 Label_5_01371FA8
 BYTE   PATT
  POIN2 Label_5_01371FA8
 BYTE   PATT
  POIN2 Label_5_01371FA8
 BYTE   PATT
  POIN2 Label_5_01371FFD
 BYTE   PATT
  POIN2 Label_5_01371FFD
 BYTE   PATT
  POIN2 Label_5_01371FFD
 BYTE   PATT
  POIN2 Label_5_01372028
 BYTE   PATT
  POIN2 Label_5_01371FFD
 BYTE   PATT
  POIN2 Label_5_01371FFD
 BYTE   PATT
  POIN2 Label_5_01371FFD
 BYTE   PATT
  POIN2 Label_5_01372028
 BYTE   PATT
  POIN2 Label_5_01372063
 BYTE   PATT
  POIN2 Label_5_01372063
 BYTE   PATT
  POIN2 Label_5_0137207F
// 009   ----------------------------------------
 BYTE   W06
 BYTE   N06  Bn0  v116
 BYTE   N06  Fs1
 BYTE   W06
 BYTE   Dn1
 BYTE   W12
 BYTE   Bn0
 BYTE   N06  Fs1
 BYTE   W06
 BYTE   Bn0
 BYTE   N06  Fs1
 BYTE   W06
 BYTE   Dn1
 BYTE   W06
 BYTE   N06
 BYTE   W12
 BYTE   Bn0
 BYTE   N06  Fs1
 BYTE   W06
 BYTE   Dn1
 BYTE   W06
 BYTE   N06
 BYTE   W12
 BYTE   N06
 BYTE   W06
 BYTE   N06
 BYTE   W06
 BYTE   GoTo
  POIN2 Label_5_01371F86
 BYTE   FINE

//******************************************************//
	ALIGN 4

CastlevaniaStage5AReliableChair:
	BYTE	6	// NumTrks
	BYTE	0	// NumBlks
	BYTE	CastlevaniaStage5AReliableChair_pri	// Priority
	BYTE	CastlevaniaStage5AReliableChair_rev	// Reverb.
    
	POIN2	CastlevaniaStage5AReliableChair_grp
    
	POIN2	CastlevaniaStage5AReliableChair_001
	POIN2	CastlevaniaStage5AReliableChair_002
	POIN2	CastlevaniaStage5AReliableChair_003
	POIN2	CastlevaniaStage5AReliableChair_004
	POIN2	CastlevaniaStage5AReliableChair_005
	POIN2	CastlevaniaStage5AReliableChair_006

	
