//Event file generated from Sappy .s format.
	#include "MPlayDef.event"

	#define	song0428_grp  voicegroup000
	#define	song0428_pri  0
	#define	song0428_rev  0
	#define	song0428_mvl  127
	#define	song0428_key  0
	#define	song0428_tbs  1
	#define	song0428_exg  0
	#define	song0428_cmp  1

	// .rodata
	//	song0428
	ALIGN 4


//**************** Track 1 (Midi-Chn.0) ****************//

song0428_001:
//  #01 //000   ----------------------------------------
 BYTE   KEYSH   song0428_key+0
 BYTE   TEMPO   170*song0428_tbs/2
 BYTE   VOICE   Trombone
 BYTE   VOL   38*song0428_mvl/mxv
 BYTE   PAN   c_v+26
 BYTE   W96
//  #01 //001   ----------------------------------------
Label_01A57803:
 BYTE   N21  Fn5  v127
 BYTE   W12
 BYTE   Cn5  v100
 BYTE   W12
 BYTE   Ds5  v112
 BYTE   W12
 BYTE   Cn5  v100
 BYTE   W12
 BYTE   Dn5  v124
 BYTE   W12
 BYTE   Gn4  v100
 BYTE   W12
 BYTE   Ds5  v112
 BYTE   W12
 BYTE   Gn4  v100
 BYTE   W12
 BYTE   PEND 
//  #01 //002   ----------------------------------------
 BYTE   PATT
  POIN2 Label_01A57803
//  #01 //003   ----------------------------------------
 BYTE   PATT
  POIN2 Label_01A57803
//  #01 //004   ----------------------------------------
 BYTE   N92  Gn5  v127
 BYTE   W96
//  #01 //005   ----------------------------------------
 BYTE   W96
//  #01 //006   ----------------------------------------
 BYTE   W96
//  #01 //007   ----------------------------------------
 BYTE   W96
//  #01 //008   ----------------------------------------
 BYTE   W96
//  #01 //009   ----------------------------------------
 BYTE   N21  Cn4  v088
 BYTE   N08  Fn5  v104
 BYTE   W06
 BYTE   N15  Fn6  v120
 BYTE   W12
 BYTE   N11  Ds5
 BYTE   W06
 BYTE   N21  Gn4  v088
 BYTE   N13  Ds6  v112
 BYTE   W12
 BYTE   N11  Dn5  v108
 BYTE   W06
 BYTE   N13  Dn6  v100
 BYTE   W06
 BYTE   N44  Cn4  v088
 BYTE   W06
 BYTE   N13  Ds5  v116
 BYTE   W06
 BYTE   N14  Ds6  v120
 BYTE   W12
 BYTE   N12  Fn5  v116
 BYTE   W06
 BYTE   N13  Fn6  v100
 BYTE   W12
 BYTE   N11  Ds5  v116
 BYTE   W06
//  #01 //010   ----------------------------------------
 BYTE   N21  As3  v088
 BYTE   N14  Ds6  v116
 BYTE   W12
 BYTE   N10  Dn5  v108
 BYTE   W06
 BYTE   N13  Dn6  v104
 BYTE   W06
 BYTE   N21  Gn4  v088
 BYTE   W06
 BYTE   N11  Ds5  v112
 BYTE   W06
 BYTE   N13  Ds6  v116
 BYTE   W12
 BYTE   N44  As3  v088
 BYTE   N09  Fn5  v100
 BYTE   W06
 BYTE   N13  Fn6  v116
 BYTE   W12
 BYTE   N09  Ds5  v120
 BYTE   W06
 BYTE   N14  Ds6
 BYTE   W12
 BYTE   N09  Dn5  v112
 BYTE   W06
 BYTE   N14  Dn6  v108
 BYTE   W06
//  #01 //011   ----------------------------------------
 BYTE   N21  An3  v088
 BYTE   W06
 BYTE   N10  Ds5  v120
 BYTE   W06
 BYTE   N13  Ds6
 BYTE   W12
 BYTE   N21  Gn4  v088
 BYTE   N09  Fn5  v108
 BYTE   W06
 BYTE   N14  Fn6
 BYTE   W12
 BYTE   N10  Ds5  v120
 BYTE   W06
 BYTE   N44  An3  v088
 BYTE   N14  Ds6  v120
 BYTE   W12
 BYTE   N08  Dn5
 BYTE   W06
 BYTE   N13  Dn6  v108
 BYTE   W12
 BYTE   N10  Ds5  v116
 BYTE   W06
 BYTE   N13  Ds6  v120
 BYTE   W12
//  #01 //012   ----------------------------------------
 BYTE   N21  Gs3  v088
 BYTE   N08  Fn5  v116
 BYTE   W06
 BYTE   N12  Fn6  v112
 BYTE   W12
 BYTE   N09  Ds5
 BYTE   W06
 BYTE   N21  Ds4  v088
 BYTE   N14  Ds6  v120
 BYTE   W12
 BYTE   N08  Dn5
 BYTE   W06
 BYTE   N13  Dn6  v100
 BYTE   W06
 BYTE   N44  Gs3  v088
 BYTE   W06
 BYTE   N23  Ds5  v120
 BYTE   W06
 BYTE   N24  Ds6
 BYTE   W36
//  #01 //013   ----------------------------------------
 BYTE   W96
//  #01 //014   ----------------------------------------
 BYTE   W96
//  #01 //015   ----------------------------------------
 BYTE   W96
//  #01 //016   ----------------------------------------
 BYTE   W96
//  #01 //017   ----------------------------------------
 BYTE   W96
//  #01 //018   ----------------------------------------
 BYTE   W96
//  #01 //019   ----------------------------------------
 BYTE   W96
//  #01 //020   ----------------------------------------
 BYTE   W96
//  #01 //021   ----------------------------------------
 BYTE   W96
//  #01 //022   ----------------------------------------
 BYTE   W96
//  #01 //023   ----------------------------------------
 BYTE   W96
//  #01 //024   ----------------------------------------
 BYTE   W92
 BYTE   W03
 BYTE   GoTo
  POIN2 Label_01A57803
 BYTE   FINE

//**************** Track 2 (Midi-Chn.1) ****************//

song0428_002:
//  #02 //000   ----------------------------------------
 BYTE   KEYSH   song0428_key+0
 BYTE   VOICE   65
 BYTE   VOL   50*song0428_mvl/mxv
 BYTE   PAN   c_v+0
 BYTE   W96
//  #02 //001   ----------------------------------------
Label_01A5790B:
 BYTE   W96
//  #02 //002   ----------------------------------------
 BYTE   W96
//  #02 //003   ----------------------------------------
 BYTE   W96
//  #02 //004   ----------------------------------------
 BYTE   W96
//  #02 //005   ----------------------------------------
Label_01A5790F:
 BYTE   N05  Cs2  v127
 BYTE   W06
 BYTE   N04  Fn1  v112
 BYTE   W06
 BYTE   Gs1  v116
 BYTE   W06
 BYTE   Cs2
 BYTE   W06
 BYTE   N05  Fn2  v127
 BYTE   W06
 BYTE   N04  Cs2  v116
 BYTE   W06
 BYTE   Fn2  v100
 BYTE   W06
 BYTE   Gs2  v104
 BYTE   W06
 BYTE   N44  Cs3  v127
 BYTE   W48
 BYTE   PEND 
//  #02 //006   ----------------------------------------
Label_01A5792F:
 BYTE   N05  Cs2  v127
 BYTE   W06
 BYTE   N04  Fs1  v112
 BYTE   W06
 BYTE   As1  v116
 BYTE   W06
 BYTE   Cs2
 BYTE   W06
 BYTE   N05  Fs2  v127
 BYTE   W06
 BYTE   N04  Cs2  v116
 BYTE   W06
 BYTE   Fs2  v100
 BYTE   W06
 BYTE   As2  v104
 BYTE   W06
 BYTE   N44  Cs3  v127
 BYTE   W48
 BYTE   PEND 
//  #02 //007   ----------------------------------------
 BYTE   N05  Dn3
 BYTE   W06
 BYTE   N04  Gn3  v112
 BYTE   W06
 BYTE   Fn3  v116
 BYTE   W06
 BYTE   Dn3
 BYTE   W06
 BYTE   N05  Cn3  v127
 BYTE   W06
 BYTE   N04  Dn3  v116
 BYTE   W06
 BYTE   Cn3  v100
 BYTE   W06
 BYTE   Gn2  v104
 BYTE   W06
 BYTE   N05  Dn2  v127
 BYTE   W06
 BYTE   N04  Gn2  v112
 BYTE   W06
 BYTE   Fn2  v116
 BYTE   W06
 BYTE   Dn2
 BYTE   W06
 BYTE   N05  Cn2  v127
 BYTE   W06
 BYTE   N04  Dn2  v116
 BYTE   W06
 BYTE   Cn2  v100
 BYTE   W06
 BYTE   Gn1  v104
 BYTE   W06
//  #02 //008   ----------------------------------------
 BYTE   W96
//  #02 //009   ----------------------------------------
 BYTE   W96
//  #02 //010   ----------------------------------------
 BYTE   W96
//  #02 //011   ----------------------------------------
 BYTE   W96
//  #02 //012   ----------------------------------------
 BYTE   W96
//  #02 //013   ----------------------------------------
 BYTE   PATT
  POIN2 Label_01A5790F
//  #02 //014   ----------------------------------------
 BYTE   PATT
  POIN2 Label_01A5792F
//  #02 //015   ----------------------------------------
 BYTE   N05  Dn2  v127
 BYTE   W06
 BYTE   N04  Gn1  v112
 BYTE   W06
 BYTE   Cn2  v116
 BYTE   W06
 BYTE   Dn2
 BYTE   W06
 BYTE   N05  Gn2  v127
 BYTE   W06
 BYTE   N04  Dn2  v116
 BYTE   W06
 BYTE   Gn2  v100
 BYTE   W06
 BYTE   Cn3  v104
 BYTE   W06
 BYTE   N23  Dn3  v127
 BYTE   W24
 BYTE   N05  Dn2
 BYTE   W06
 BYTE   N04  Gn2  v112
 BYTE   W06
 BYTE   Cn3  v116
 BYTE   W06
 BYTE   Dn3
 BYTE   W06
//  #02 //016   ----------------------------------------
 BYTE   N05  Gn3  v127
 BYTE   W06
 BYTE   N04  Dn3  v116
 BYTE   W06
 BYTE   Gn3  v100
 BYTE   W06
 BYTE   Bn3  v104
 BYTE   W06
 BYTE   N23  Dn4  v127
 BYTE   W24
 BYTE   N05  Gn4
 BYTE   W06
 BYTE   N04  Dn4  v112
 BYTE   W06
 BYTE   Bn3  v116
 BYTE   W06
 BYTE   Gn3
 BYTE   W06
 BYTE   N05  Fn3  v127
 BYTE   W06
 BYTE   N04  Dn3  v116
 BYTE   W06
 BYTE   Bn2  v100
 BYTE   W06
 BYTE   Gn2  v104
 BYTE   W06
//  #02 //017   ----------------------------------------
 BYTE   W96
//  #02 //018   ----------------------------------------
 BYTE   W96
//  #02 //019   ----------------------------------------
 BYTE   W96
//  #02 //020   ----------------------------------------
 BYTE   W96
//  #02 //021   ----------------------------------------
 BYTE   W96
//  #02 //022   ----------------------------------------
 BYTE   W96
//  #02 //023   ----------------------------------------
 BYTE   W96
//  #02 //024   ----------------------------------------
 BYTE   W92
 BYTE   W03
 BYTE   GoTo
  POIN2 Label_01A5790B
 BYTE   FINE

//**************** Track 3 (Midi-Chn.2) ****************//

song0428_003:
//  #03 //000   ----------------------------------------
 BYTE   KEYSH   song0428_key+0
 BYTE   VOICE   30
 BYTE   VOL   32*song0428_mvl/mxv
 BYTE   PAN   c_v-44
 BYTE   W96
//  #03 //001   ----------------------------------------
Label_01A57A02:
 BYTE   N92  Cn3  v127
 BYTE   W96
//  #03 //002   ----------------------------------------
 BYTE   As2  v104
 BYTE   W96
//  #03 //003   ----------------------------------------
 BYTE   An2  v096
 BYTE   W96
//  #03 //004   ----------------------------------------
 BYTE   Gs2  v120
 BYTE   W96
//  #03 //005   ----------------------------------------
 BYTE   Cs3  v116
 BYTE   W96
//  #03 //006   ----------------------------------------
 BYTE   Fs3  v127
 BYTE   W96
//  #03 //007   ----------------------------------------
 BYTE   Gn3  v096
 BYTE   W96
//  #03 //008   ----------------------------------------
 BYTE   Gn2  v112
 BYTE   W96
//  #03 //009   ----------------------------------------
 BYTE   Cn3  v127
 BYTE   W96
//  #03 //010   ----------------------------------------
 BYTE   As2  v104
 BYTE   W96
//  #03 //011   ----------------------------------------
 BYTE   An2  v096
 BYTE   W96
//  #03 //012   ----------------------------------------
 BYTE   Gs2  v120
 BYTE   W96
//  #03 //013   ----------------------------------------
 BYTE   Cs3  v116
 BYTE   W96
//  #03 //014   ----------------------------------------
 BYTE   Fs3  v127
 BYTE   W96
//  #03 //015   ----------------------------------------
 BYTE   Gn3  v096
 BYTE   W96
//  #03 //016   ----------------------------------------
 BYTE   Gn2  v112
 BYTE   W96
//  #03 //017   ----------------------------------------
 BYTE   Cn3  v127
 BYTE   W96
//  #03 //018   ----------------------------------------
 BYTE   As2  v104
 BYTE   W96
//  #03 //019   ----------------------------------------
 BYTE   An2  v096
 BYTE   W96
//  #03 //020   ----------------------------------------
 BYTE   Gs2  v120
 BYTE   W96
//  #03 //021   ----------------------------------------
 BYTE   Cs3  v116
 BYTE   W96
//  #03 //022   ----------------------------------------
 BYTE   Fs3  v127
 BYTE   W96
//  #03 //023   ----------------------------------------
 BYTE   Gn3  v096
 BYTE   W96
//  #03 //024   ----------------------------------------
 BYTE   Gn2  v112
 BYTE   W92
 BYTE   W03
 BYTE   GoTo
  POIN2 Label_01A57A02
 BYTE   FINE

//**************** Track 4 (Midi-Chn.3) ****************//

song0428_004:
//  #04 //000   ----------------------------------------
 BYTE   KEYSH   song0428_key+0
 BYTE   VOICE   33
 BYTE   VOL   50*song0428_mvl/mxv
 BYTE   PAN   c_v+0
 BYTE   W96
//  #04 //001   ----------------------------------------
Label_01A57A5B:
 BYTE   N11  Cn2  v127
 BYTE   W12
 BYTE   N03  Cn2  v112
 BYTE   W06
 BYTE   N05  Cn2  v100
 BYTE   W06
 BYTE   N11  Gn2  v124
 BYTE   W12
 BYTE   N02  Cn2  v112
 BYTE   W06
 BYTE   N03  Cn2  v108
 BYTE   W06
 BYTE   N11  Cn3  v127
 BYTE   W12
 BYTE   N02  Cn2  v116
 BYTE   W06
 BYTE   N05  Cn2  v120
 BYTE   W06
 BYTE   N11  Gn2  v104
 BYTE   W12
 BYTE   N03  Cn2  v116
 BYTE   W06
 BYTE   N04  Cn2  v104
 BYTE   W06
 BYTE   PEND 
//  #04 //002   ----------------------------------------
Label_01A57A8C:
 BYTE   N11  As1  v127
 BYTE   W12
 BYTE   N03  As1  v112
 BYTE   W06
 BYTE   N05  As1  v100
 BYTE   W06
 BYTE   N11  Gn2  v124
 BYTE   W12
 BYTE   N02  As1  v112
 BYTE   W06
 BYTE   N03  As1  v108
 BYTE   W06
 BYTE   N11  As2  v127
 BYTE   W12
 BYTE   N02  As1  v116
 BYTE   W06
 BYTE   N05  As1  v120
 BYTE   W06
 BYTE   N11  Gn2  v104
 BYTE   W12
 BYTE   N03  As1  v116
 BYTE   W06
 BYTE   N04  As1  v104
 BYTE   W06
 BYTE   PEND 
//  #04 //003   ----------------------------------------
Label_01A57ABD:
 BYTE   N11  An1  v127
 BYTE   W12
 BYTE   N03  An1  v112
 BYTE   W06
 BYTE   N05  An1  v100
 BYTE   W06
 BYTE   N11  Ds2  v124
 BYTE   W12
 BYTE   N02  An1  v112
 BYTE   W06
 BYTE   N03  An1  v108
 BYTE   W06
 BYTE   N11  An2  v127
 BYTE   W12
 BYTE   N02  An1  v116
 BYTE   W06
 BYTE   N05  An1  v120
 BYTE   W06
 BYTE   N11  Ds2  v104
 BYTE   W12
 BYTE   N03  An1  v116
 BYTE   W06
 BYTE   N04  An1  v104
 BYTE   W06
 BYTE   PEND 
//  #04 //004   ----------------------------------------
Label_01A57AEE:
 BYTE   N11  Gs1  v127
 BYTE   W12
 BYTE   N03  Gs1  v112
 BYTE   W06
 BYTE   N05  Gs1  v100
 BYTE   W06
 BYTE   N11  Ds2  v124
 BYTE   W12
 BYTE   N02  Gs1  v112
 BYTE   W06
 BYTE   N03  Gs1  v108
 BYTE   W06
 BYTE   N11  Gs2  v127
 BYTE   W12
 BYTE   N02  Gs1  v116
 BYTE   W06
 BYTE   N05  Gs1  v120
 BYTE   W06
 BYTE   N11  Ds2  v104
 BYTE   W12
 BYTE   N03  Gs1  v116
 BYTE   W06
 BYTE   N04  Gs1  v104
 BYTE   W06
 BYTE   PEND 
//  #04 //005   ----------------------------------------
Label_01A57B1F:
 BYTE   N11  Cs2  v127
 BYTE   W12
 BYTE   N03  Cs2  v120
 BYTE   W06
 BYTE   N06  Cs2  v096
 BYTE   W06
 BYTE   N11  Gs2  v120
 BYTE   W12
 BYTE   N02  Cs2  v112
 BYTE   W06
 BYTE   N05  Cs2  v116
 BYTE   W06
 BYTE   N11  Cs3  v127
 BYTE   W12
 BYTE   N02  Cs2
 BYTE   W06
 BYTE   N03
 BYTE   W06
 BYTE   N05
 BYTE   W06
 BYTE   Cs3
 BYTE   W06
 BYTE   Gs2
 BYTE   W06
 BYTE   Cs2
 BYTE   W06
 BYTE   PEND 
//  #04 //006   ----------------------------------------
Label_01A57B49:
 BYTE   N11  Fs2  v127
 BYTE   W12
 BYTE   N03  Fs2  v120
 BYTE   W06
 BYTE   N06  Fs2  v096
 BYTE   W06
 BYTE   N11  Cs2  v120
 BYTE   W12
 BYTE   N02  Fs2  v112
 BYTE   W06
 BYTE   N05  Fs2  v116
 BYTE   W06
 BYTE   N11  Cs3  v127
 BYTE   W12
 BYTE   N02  Fs2
 BYTE   W06
 BYTE   N03
 BYTE   W06
 BYTE   N05  Cs3
 BYTE   W06
 BYTE   Fs2
 BYTE   W06
 BYTE   Cs2
 BYTE   W06
 BYTE   Fs2
 BYTE   W06
 BYTE   PEND 
//  #04 //007   ----------------------------------------
Label_01A57B74:
 BYTE   N11  Gn1  v127
 BYTE   W12
 BYTE   N03  Gn1  v120
 BYTE   W06
 BYTE   N06  Gn1  v096
 BYTE   W06
 BYTE   N11  Dn2  v120
 BYTE   W12
 BYTE   N02  Gn1  v112
 BYTE   W06
 BYTE   N05  Gn1  v116
 BYTE   W06
 BYTE   N11  Gn2  v127
 BYTE   W12
 BYTE   N02  Gn1
 BYTE   W06
 BYTE   N03
 BYTE   W06
 BYTE   N05
 BYTE   W06
 BYTE   Gn2
 BYTE   W06
 BYTE   Dn2
 BYTE   W06
 BYTE   Gn1
 BYTE   W06
 BYTE   PEND 
//  #04 //008   ----------------------------------------
Label_01A57B9E:
 BYTE   N05  Fn2  v120
 BYTE   W06
 BYTE   Gn2  v112
 BYTE   W06
 BYTE   N02  Gn2  v108
 BYTE   W06
 BYTE   N04  Gn2  v112
 BYTE   W06
 BYTE   N05  Fn2  v127
 BYTE   W06
 BYTE   N04  Gn2  v124
 BYTE   W06
 BYTE   N02  Gn2  v100
 BYTE   W06
 BYTE   N04  Gn2  v108
 BYTE   W06
 BYTE   N05  Gn1  v127
 BYTE   W06
 BYTE   Cn2  v100
 BYTE   W06
 BYTE   Dn2  v112
 BYTE   W06
 BYTE   Fn2  v127
 BYTE   W06
 BYTE   Gn2
 BYTE   W06
 BYTE   Dn2  v120
 BYTE   W06
 BYTE   N11  Gn1  v127
 BYTE   W12
 BYTE   PEND 
//  #04 //009   ----------------------------------------
 BYTE   PATT
  POIN2 Label_01A57A5B
//  #04 //010   ----------------------------------------
 BYTE   PATT
  POIN2 Label_01A57A8C
//  #04 //011   ----------------------------------------
 BYTE   PATT
  POIN2 Label_01A57ABD
//  #04 //012   ----------------------------------------
 BYTE   PATT
  POIN2 Label_01A57AEE
//  #04 //013   ----------------------------------------
 BYTE   PATT
  POIN2 Label_01A57B1F
//  #04 //014   ----------------------------------------
 BYTE   PATT
  POIN2 Label_01A57B49
//  #04 //015   ----------------------------------------
 BYTE   PATT
  POIN2 Label_01A57B74
//  #04 //016   ----------------------------------------
 BYTE   PATT
  POIN2 Label_01A57B9E
//  #04 //017   ----------------------------------------
 BYTE   PATT
  POIN2 Label_01A57A5B
//  #04 //018   ----------------------------------------
 BYTE   PATT
  POIN2 Label_01A57A8C
//  #04 //019   ----------------------------------------
 BYTE   PATT
  POIN2 Label_01A57ABD
//  #04 //020   ----------------------------------------
 BYTE   PATT
  POIN2 Label_01A57AEE
//  #04 //021   ----------------------------------------
 BYTE   PATT
  POIN2 Label_01A57B1F
//  #04 //022   ----------------------------------------
 BYTE   PATT
  POIN2 Label_01A57B49
//  #04 //023   ----------------------------------------
 BYTE   PATT
  POIN2 Label_01A57B74
//  #04 //024   ----------------------------------------
 BYTE   N05  Fn2  v120
 BYTE   W06
 BYTE   Gn2  v112
 BYTE   W06
 BYTE   N02  Gn2  v108
 BYTE   W06
 BYTE   N04  Gn2  v112
 BYTE   W06
 BYTE   N05  Fn2  v127
 BYTE   W06
 BYTE   N04  Gn2  v124
 BYTE   W06
 BYTE   N02  Gn2  v100
 BYTE   W06
 BYTE   N04  Gn2  v108
 BYTE   W06
 BYTE   N05  Gn1  v127
 BYTE   W06
 BYTE   Cn2  v100
 BYTE   W06
 BYTE   Dn2  v112
 BYTE   W06
 BYTE   Fn2  v127
 BYTE   W06
 BYTE   Gn2
 BYTE   W06
 BYTE   Dn2  v120
 BYTE   W06
 BYTE   N11  Gn1  v127
 BYTE   W11
 BYTE   GoTo
  POIN2 Label_01A57A5B
 BYTE   FINE

//**************** Track 5 (Midi-Chn.4) ****************//

song0428_005:
//  #05 //000   ----------------------------------------
 BYTE   KEYSH   song0428_key+0
 BYTE   VOICE   21
 BYTE   VOL   26*song0428_mvl/mxv
 BYTE   PAN   c_v-6
 BYTE   W96
//  #05 //001   ----------------------------------------
Label_01A57C63:
 BYTE   TIE  Ds3  v127
 BYTE   TIE  Gn3
 BYTE   W96
 BYTE   PEND 
//  #05 //002   ----------------------------------------
 BYTE   W96
//  #05 //003   ----------------------------------------
 BYTE   W96
//  #05 //004   ----------------------------------------
Label_01A57C6C:
 BYTE   W68
 BYTE   W01
 BYTE   N01  An3  v076
 BYTE   N01  Bn3  v092
 BYTE   W01
 BYTE   Cn4  v088
 BYTE   W01
 BYTE   Dn4  v100
 BYTE   W01
 BYTE   PEND 
 BYTE   EOT
 BYTE   Gn3
 BYTE   N01  En4  v096
 BYTE   W01
 BYTE   Fn4  v104
 BYTE   W01
 BYTE   EOT
 BYTE   Ds3
 BYTE   N01  Gn4  v100
 BYTE   W01
 BYTE   An4  v104
 BYTE   W01
 BYTE   Bn4  v108
 BYTE   W01
 BYTE   N06  Cn5  v100
 BYTE   W07
 BYTE   N01  Bn4  v104
 BYTE   W01
 BYTE   N02  An4  v088
 BYTE   W01
 BYTE   Gn4
 BYTE   W01
 BYTE   Fn4
 BYTE   W01
 BYTE   En4  v100
 BYTE   W02
 BYTE   Dn4  v096
 BYTE   W01
 BYTE   Cn4  v088
 BYTE   W05
//  #05 //005   ----------------------------------------
Label_01A57CAA:
 BYTE   N88  Fn3  v124
 BYTE   N90  Gs3  v127
 BYTE   W96
 BYTE   PEND 
//  #05 //006   ----------------------------------------
Label_01A57CB2:
 BYTE   N84  Fs3  v127
 BYTE   N84  As3  v124
 BYTE   W96
 BYTE   PEND 
//  #05 //007   ----------------------------------------
Label_01A57CBA:
 BYTE   N92  Gn3  v127
 BYTE   N92  Cn4  v120
 BYTE   W96
 BYTE   PEND 
//  #05 //008   ----------------------------------------
 BYTE   N09  Bn3
 BYTE   N09  Gn4
 BYTE   W10
 BYTE   N01  Bn3  v060
 BYTE   N01  Gn4  v064
 BYTE   W02
 BYTE   Dn4  v116
 BYTE   N01  Bn4  v112
 BYTE   W02
 BYTE   Dn4  v060
 BYTE   N01  Bn4  v056
 BYTE   W02
 BYTE   Bn3  v096
 BYTE   N01  Gn4  v112
 BYTE   W02
 BYTE   Bn3  v040
 BYTE   N01  Gn4  v056
 BYTE   W02
 BYTE   Gn3  v112
 BYTE   N01  Dn4  v108
 BYTE   W02
 BYTE   Gn3  v056
 BYTE   N01  Dn4  v052
 BYTE   W02
 BYTE   N09  Bn3  v127
 BYTE   N09  Gn4  v120
 BYTE   W10
 BYTE   N01  Bn3  v068
 BYTE   N01  Gn4  v064
 BYTE   W02
 BYTE   Dn4  v112
 BYTE   N01  Bn4  v108
 BYTE   W02
 BYTE   Dn4  v056
 BYTE   N01  Bn4  v052
 BYTE   W02
 BYTE   Bn3  v108
 BYTE   N01  Gn4  v104
 BYTE   W02
 BYTE   Bn3  v052
 BYTE   N01  Gn4  v048
 BYTE   W02
 BYTE   Gn3  v116
 BYTE   N01  Dn4  v112
 BYTE   W02
 BYTE   Gn3  v060
 BYTE   N01  Dn4  v056
 BYTE   W02
 BYTE   N28  Bn3  v127
 BYTE   N28  Gn4
 BYTE   W24
 BYTE   W01
 BYTE   N01  Gn5
 BYTE   N01  An5  v120
 BYTE   W01
 BYTE   Fn5  v127
 BYTE   W01
 BYTE   Dn5  v124
 BYTE   N01  En5  v116
 BYTE   W01
 BYTE   Cn5  v120
 BYTE   W01
 BYTE   Bn4  v127
 BYTE   W01
 BYTE   An4  v120
 BYTE   W01
 BYTE   N02  Gn4  v112
 BYTE   W01
 BYTE   N01  Fn4  v108
 BYTE   W01
 BYTE   N02  En4  v116
 BYTE   W01
 BYTE   Dn4  v112
 BYTE   W01
 BYTE   Cn4
 BYTE   W01
 BYTE   Bn3  v124
 BYTE   W01
 BYTE   An3  v116
 BYTE   W01
 BYTE   Gn3  v120
 BYTE   W02
 BYTE   Fn3
 BYTE   W01
 BYTE   En3  v127
 BYTE   W01
 BYTE   N01  Dn3  v100
 BYTE   W01
 BYTE   Cn3  v080
 BYTE   W05
//  #05 //009   ----------------------------------------
 BYTE   W96
//  #05 //010   ----------------------------------------
 BYTE   W96
//  #05 //011   ----------------------------------------
 BYTE   W96
//  #05 //012   ----------------------------------------
 BYTE   W96
//  #05 //013   ----------------------------------------
 BYTE   W96
//  #05 //014   ----------------------------------------
 BYTE   W96
//  #05 //015   ----------------------------------------
 BYTE   W96
//  #05 //016   ----------------------------------------
 BYTE   W96
//  #05 //017   ----------------------------------------
 BYTE   PATT
  POIN2 Label_01A57C63
//  #05 //018   ----------------------------------------
 BYTE   W96
//  #05 //019   ----------------------------------------
 BYTE   W96
//  #05 //020   ----------------------------------------
 BYTE   PATT
  POIN2 Label_01A57C6C
//  #05 //021   ----------------------------------------
 BYTE   EOT
 BYTE   Gn3
 BYTE   N01  En4  v096
 BYTE   W01
 BYTE   Fn4  v104
 BYTE   W01
 BYTE   EOT
 BYTE   Ds3
 BYTE   N01  Gn4  v100
 BYTE   W01
 BYTE   An4  v104
 BYTE   W01
 BYTE   Bn4  v108
 BYTE   W01
 BYTE   N06  Cn5  v100
 BYTE   W07
 BYTE   N01  Bn4  v104
 BYTE   W01
 BYTE   N02  An4  v088
 BYTE   W01
 BYTE   Gn4
 BYTE   W01
 BYTE   Fn4
 BYTE   W01
 BYTE   En4  v100
 BYTE   W02
 BYTE   Dn4  v096
 BYTE   W01
 BYTE   Cn4  v088
 BYTE   W05
//  #05 //022   ----------------------------------------
 BYTE   PATT
  POIN2 Label_01A57CAA
//  #05 //023   ----------------------------------------
 BYTE   PATT
  POIN2 Label_01A57CB2
//  #05 //024   ----------------------------------------
 BYTE   PATT
  POIN2 Label_01A57CBA
//  #05 //025   ----------------------------------------
 BYTE   N09  Bn3  v120
 BYTE   N09  Gn4
 BYTE   W10
 BYTE   N01  Bn3  v060
 BYTE   N01  Gn4  v064
 BYTE   W02
 BYTE   Dn4  v116
 BYTE   N01  Bn4  v112
 BYTE   W02
 BYTE   Dn4  v060
 BYTE   N01  Bn4  v056
 BYTE   W02
 BYTE   Bn3  v096
 BYTE   N01  Gn4  v112
 BYTE   W02
 BYTE   Bn3  v040
 BYTE   N01  Gn4  v056
 BYTE   W02
 BYTE   Gn3  v112
 BYTE   N01  Dn4  v108
 BYTE   W02
 BYTE   Gn3  v056
 BYTE   N01  Dn4  v052
 BYTE   W02
 BYTE   N09  Bn3  v127
 BYTE   N09  Gn4  v120
 BYTE   W10
 BYTE   N01  Bn3  v068
 BYTE   N01  Gn4  v064
 BYTE   W02
 BYTE   Dn4  v112
 BYTE   N01  Bn4  v108
 BYTE   W02
 BYTE   Dn4  v056
 BYTE   N01  Bn4  v052
 BYTE   W02
 BYTE   Bn3  v108
 BYTE   N01  Gn4  v104
 BYTE   W02
 BYTE   Bn3  v052
 BYTE   N01  Gn4  v048
 BYTE   W02
 BYTE   Gn3  v116
 BYTE   N01  Dn4  v112
 BYTE   W02
 BYTE   Gn3  v060
 BYTE   N01  Dn4  v056
 BYTE   W02
 BYTE   N28  Bn3  v127
 BYTE   N28  Gn4
 BYTE   W24
 BYTE   W01
 BYTE   N01  Gn5
 BYTE   N01  An5  v120
 BYTE   W01
 BYTE   Fn5  v127
 BYTE   W01
 BYTE   Dn5  v124
 BYTE   N01  En5  v116
 BYTE   W01
 BYTE   Cn5  v120
 BYTE   W01
 BYTE   Bn4  v127
 BYTE   W01
 BYTE   An4  v120
 BYTE   W01
 BYTE   N02  Gn4  v112
 BYTE   W01
 BYTE   N01  Fn4  v108
 BYTE   W01
 BYTE   N02  En4  v116
 BYTE   W01
 BYTE   Dn4  v112
 BYTE   W01
 BYTE   Cn4
 BYTE   W01
 BYTE   Bn3  v124
 BYTE   W01
 BYTE   An3  v116
 BYTE   W01
 BYTE   Gn3  v120
 BYTE   W02
 BYTE   Fn3
 BYTE   W01
 BYTE   En3  v127
 BYTE   W01
 BYTE   N01  Dn3  v100
 BYTE   W01
 BYTE   Cn3  v080
 BYTE   W04
 BYTE   GoTo
  POIN2 Label_01A57C63
 BYTE   FINE

//**************** Track 6 (Midi-Chn.5) ****************//

song0428_006:
//  #06 //000   ----------------------------------------
 BYTE   KEYSH   song0428_key+0
 BYTE   VOICE   65
 BYTE   VOL   26*song0428_mvl/mxv
 BYTE   PAN   c_v-64
 BYTE   W96
//  #06 //001   ----------------------------------------
Label_01A57E71:
 BYTE   W96
//  #06 //002   ----------------------------------------
 BYTE   W96
//  #06 //003   ----------------------------------------
 BYTE   W96
//  #06 //004   ----------------------------------------
 BYTE   W96
//  #06 //005   ----------------------------------------
Label_01A57E75:
 BYTE   W16
 BYTE   N05  Cs2  v127
 BYTE   W06
 BYTE   N04  Fn1  v112
 BYTE   W06
 BYTE   Gs1  v116
 BYTE   W06
 BYTE   Cs2
 BYTE   W06
 BYTE   N05  Fn2  v127
 BYTE   W06
 BYTE   N04  Cs2  v116
 BYTE   W06
 BYTE   Fn2  v100
 BYTE   W06
 BYTE   Gs2  v104
 BYTE   W06
 BYTE   N44  Cs3  v127
 BYTE   W32
 BYTE   PEND 
//  #06 //006   ----------------------------------------
Label_01A57E96:
 BYTE   W16
 BYTE   N05  Cs2  v127
 BYTE   W06
 BYTE   N04  Fs1  v112
 BYTE   W06
 BYTE   As1  v116
 BYTE   W06
 BYTE   Cs2
 BYTE   W06
 BYTE   N05  Fs2  v127
 BYTE   W06
 BYTE   N04  Cs2  v116
 BYTE   W06
 BYTE   Fs2  v100
 BYTE   W06
 BYTE   As2  v104
 BYTE   W06
 BYTE   N44  Cs3  v127
 BYTE   W32
 BYTE   PEND 
//  #06 //007   ----------------------------------------
 BYTE   W16
 BYTE   N05  Dn3
 BYTE   W06
 BYTE   N04  Gn3  v112
 BYTE   W06
 BYTE   Fn3  v116
 BYTE   W06
 BYTE   Dn3
 BYTE   W06
 BYTE   N05  Cn3  v127
 BYTE   W06
 BYTE   N04  Dn3  v116
 BYTE   W06
 BYTE   Cn3  v100
 BYTE   W06
 BYTE   Gn2  v104
 BYTE   W06
 BYTE   N05  Dn2  v127
 BYTE   W06
 BYTE   N04  Gn2  v112
 BYTE   W06
 BYTE   Fn2  v116
 BYTE   W06
 BYTE   Dn2
 BYTE   W06
 BYTE   N05  Cn2  v127
 BYTE   W06
 BYTE   N04  Dn2  v116
 BYTE   W02
//  #06 //008   ----------------------------------------
 BYTE   W96
//  #06 //009   ----------------------------------------
 BYTE   W96
//  #06 //010   ----------------------------------------
 BYTE   W96
//  #06 //011   ----------------------------------------
 BYTE   W96
//  #06 //012   ----------------------------------------
 BYTE   W96
//  #06 //013   ----------------------------------------
 BYTE   PATT
  POIN2 Label_01A57E75
//  #06 //014   ----------------------------------------
 BYTE   PATT
  POIN2 Label_01A57E96
//  #06 //015   ----------------------------------------
 BYTE   W16
 BYTE   N05  Dn2  v127
 BYTE   W06
 BYTE   N04  Gn1  v112
 BYTE   W06
 BYTE   Cn2  v116
 BYTE   W06
 BYTE   Dn2
 BYTE   W06
 BYTE   N05  Gn2  v127
 BYTE   W06
 BYTE   N04  Dn2  v116
 BYTE   W06
 BYTE   Gn2  v100
 BYTE   W06
 BYTE   Cn3  v104
 BYTE   W06
 BYTE   N23  Dn3  v127
 BYTE   W24
 BYTE   N05  Dn2
 BYTE   W06
 BYTE   N04  Gn2  v112
 BYTE   W02
//  #06 //016   ----------------------------------------
 BYTE   W04
 BYTE   Cn3  v116
 BYTE   W06
 BYTE   Dn3
 BYTE   W06
 BYTE   N05  Gn3  v127
 BYTE   W06
 BYTE   N04  Dn3  v116
 BYTE   W06
 BYTE   Gn3  v100
 BYTE   W06
 BYTE   Bn3  v104
 BYTE   W06
 BYTE   N23  Dn4  v127
 BYTE   W24
 BYTE   N05  Gn4
 BYTE   W06
 BYTE   N04  Dn4  v112
 BYTE   W06
 BYTE   Bn3  v116
 BYTE   W06
 BYTE   Gn3
 BYTE   W06
 BYTE   N05  Fn3  v127
 BYTE   W06
 BYTE   N04  Dn3  v116
 BYTE   W02
//  #06 //017   ----------------------------------------
 BYTE   W96
//  #06 //018   ----------------------------------------
 BYTE   W96
//  #06 //019   ----------------------------------------
 BYTE   W96
//  #06 //020   ----------------------------------------
 BYTE   W96
//  #06 //021   ----------------------------------------
 BYTE   W96
//  #06 //022   ----------------------------------------
 BYTE   W96
//  #06 //023   ----------------------------------------
 BYTE   W96
//  #06 //024   ----------------------------------------
 BYTE   W92
 BYTE   W03
 BYTE   GoTo
  POIN2 Label_01A57E71
 BYTE   FINE

//**************** Track 7 (Midi-Chn.6) ****************//

song0428_007:
//  #07 //000   ----------------------------------------
 BYTE   KEYSH   song0428_key+0
 BYTE   VOICE   65
 BYTE   VOL   15*song0428_mvl/mxv
 BYTE   PAN   c_v+63
 BYTE   W96
//  #07 //001   ----------------------------------------
Label_01A57F61:
 BYTE   W96
//  #07 //002   ----------------------------------------
 BYTE   W96
//  #07 //003   ----------------------------------------
 BYTE   W96
//  #07 //004   ----------------------------------------
 BYTE   W96
//  #07 //005   ----------------------------------------
Label_01A57F65:
 BYTE   W32
 BYTE   N05  Cs2  v127
 BYTE   W06
 BYTE   N04  Fn1  v112
 BYTE   W06
 BYTE   Gs1  v116
 BYTE   W06
 BYTE   Cs2
 BYTE   W06
 BYTE   N05  Fn2  v127
 BYTE   W06
 BYTE   N04  Cs2  v116
 BYTE   W06
 BYTE   Fn2  v100
 BYTE   W06
 BYTE   Gs2  v104
 BYTE   W06
 BYTE   N44  Cs3  v127
 BYTE   W16
 BYTE   PEND 
//  #07 //006   ----------------------------------------
Label_01A57F86:
 BYTE   W32
 BYTE   N05  Cs2  v127
 BYTE   W06
 BYTE   N04  Fs1  v112
 BYTE   W06
 BYTE   As1  v116
 BYTE   W06
 BYTE   Cs2
 BYTE   W06
 BYTE   N05  Fs2  v127
 BYTE   W06
 BYTE   N04  Cs2  v116
 BYTE   W06
 BYTE   Fs2  v100
 BYTE   W06
 BYTE   As2  v104
 BYTE   W06
 BYTE   N44  Cs3  v127
 BYTE   W16
 BYTE   PEND 
//  #07 //007   ----------------------------------------
 BYTE   W32
 BYTE   N05  Dn3
 BYTE   W06
 BYTE   N04  Gn3  v112
 BYTE   W06
 BYTE   Fn3  v116
 BYTE   W06
 BYTE   Dn3
 BYTE   W06
 BYTE   N05  Cn3  v127
 BYTE   W06
 BYTE   N04  Dn3  v116
 BYTE   W06
 BYTE   Cn3  v100
 BYTE   W06
 BYTE   Gn2  v104
 BYTE   W06
 BYTE   N05  Dn2  v127
 BYTE   W06
 BYTE   N04  Gn2  v112
 BYTE   W06
 BYTE   Fn2  v116
 BYTE   W04
//  #07 //008   ----------------------------------------
 BYTE   W96
//  #07 //009   ----------------------------------------
 BYTE   W96
//  #07 //010   ----------------------------------------
 BYTE   W96
//  #07 //011   ----------------------------------------
 BYTE   W96
//  #07 //012   ----------------------------------------
 BYTE   W96
//  #07 //013   ----------------------------------------
 BYTE   PATT
  POIN2 Label_01A57F65
//  #07 //014   ----------------------------------------
 BYTE   PATT
  POIN2 Label_01A57F86
//  #07 //015   ----------------------------------------
 BYTE   W32
 BYTE   N05  Dn2  v127
 BYTE   W06
 BYTE   N04  Gn1  v112
 BYTE   W06
 BYTE   Cn2  v116
 BYTE   W06
 BYTE   Dn2
 BYTE   W06
 BYTE   N05  Gn2  v127
 BYTE   W06
 BYTE   N04  Dn2  v116
 BYTE   W06
 BYTE   Gn2  v100
 BYTE   W06
 BYTE   Cn3  v104
 BYTE   W06
 BYTE   N23  Dn3  v127
 BYTE   W16
//  #07 //016   ----------------------------------------
 BYTE   W08
 BYTE   N05  Dn2
 BYTE   W06
 BYTE   N04  Gn2  v112
 BYTE   W06
 BYTE   Cn3  v116
 BYTE   W06
 BYTE   Dn3
 BYTE   W06
 BYTE   N05  Gn3  v127
 BYTE   W06
 BYTE   N04  Dn3  v116
 BYTE   W06
 BYTE   Gn3  v100
 BYTE   W06
 BYTE   Bn3  v104
 BYTE   W06
 BYTE   N23  Dn4  v127
 BYTE   W24
 BYTE   N05  Gn4
 BYTE   W06
 BYTE   N04  Dn4  v112
 BYTE   W06
 BYTE   Bn3  v116
 BYTE   W04
//  #07 //017   ----------------------------------------
 BYTE   W96
//  #07 //018   ----------------------------------------
 BYTE   W96
//  #07 //019   ----------------------------------------
 BYTE   W96
//  #07 //020   ----------------------------------------
 BYTE   W96
//  #07 //021   ----------------------------------------
 BYTE   W96
//  #07 //022   ----------------------------------------
 BYTE   W96
//  #07 //023   ----------------------------------------
 BYTE   W96
//  #07 //024   ----------------------------------------
 BYTE   W92
 BYTE   W03
 BYTE   GoTo
  POIN2 Label_01A57F61
 BYTE   FINE

//**************** Track 8 (Midi-Chn.7) ****************//

song0428_008:
//  #08 //000   ----------------------------------------
 BYTE   KEYSH   song0428_key+0
 BYTE   VOICE   124
 BYTE   VOL   27*song0428_mvl/mxv
 BYTE   PAN   c_v+0
 BYTE   N28  Gn3  v068
 BYTE   N92  Cs6  v104
 BYTE   W06
 BYTE   N11  Cn1  v116
 BYTE   W06
 BYTE   N05  Dn1  v068
 BYTE   W06
 BYTE   Cn1  v120
 BYTE   W06
 BYTE   N11  Cn1  v112
 BYTE   W06
 BYTE   N05  Dn1  v072
 BYTE   W06
 BYTE   Cn1  v120
 BYTE   W06
 BYTE   N11  Cn1  v124
 BYTE   W06
 BYTE   N05  Dn1  v076
 BYTE   W06
 BYTE   Cn1  v120
 BYTE   W06
 BYTE   N11
 BYTE   W06
 BYTE   N05  Dn1  v072
 BYTE   W06
 BYTE   N23  An2  v080
 BYTE   W06
 BYTE   N05  Dn1
 BYTE   W06
 BYTE   Cn1  v120
 BYTE   W06
 BYTE   Cn1  v112
 BYTE   W06
//  #08 //001   ----------------------------------------
Label_01A58077:
 BYTE   N06  GnM1  v127
 BYTE   N44  Cn3  v104
 BYTE   W24
 BYTE   N22  Cn1  v127
 BYTE   N21  Bn2  v116
 BYTE   W24
 BYTE   N06  GnM1  v127
 BYTE   N21  Bn2  v120
 BYTE   W12
 BYTE   N06  GnM1  v127
 BYTE   W12
 BYTE   N22  Cn1
 BYTE   N21  Bn2  v120
 BYTE   W24
 BYTE   PEND 
//  #08 //002   ----------------------------------------
Label_01A58097:
 BYTE   N06  GnM1  v127
 BYTE   N21  Bn2  v120
 BYTE   W24
 BYTE   N22  Cn1  v127
 BYTE   N21  Bn2  v124
 BYTE   W24
 BYTE   N06  GnM1  v127
 BYTE   N21  Bn2  v116
 BYTE   W12
 BYTE   N06  GnM1  v124
 BYTE   W12
 BYTE   N22  Cn1  v127
 BYTE   N21  Bn2
 BYTE   W24
 BYTE   PEND 
//  #08 //003   ----------------------------------------
Label_01A580B7:
 BYTE   N06  GnM1  v127
 BYTE   N21  Bn2  v104
 BYTE   W24
 BYTE   N22  Cn1  v127
 BYTE   N21  Bn2
 BYTE   W24
 BYTE   N06  GnM1
 BYTE   N21  Bn2  v116
 BYTE   W12
 BYTE   N06  GnM1  v127
 BYTE   W12
 BYTE   N22  Cn1
 BYTE   N21  Bn2
 BYTE   W24
 BYTE   PEND 
//  #08 //004   ----------------------------------------
Label_01A580D4:
 BYTE   N06  GnM1  v127
 BYTE   N21  Bn2  v124
 BYTE   W24
 BYTE   N22  Cn1  v127
 BYTE   N21  Bn2  v116
 BYTE   W24
 BYTE   N06  GnM1  v127
 BYTE   N21  Bn2  v116
 BYTE   W12
 BYTE   N06  GnM1  v104
 BYTE   W12
 BYTE   N22  Cn1  v127
 BYTE   N21  Bn2  v124
 BYTE   W24
 BYTE   PEND 
//  #08 //005   ----------------------------------------
 BYTE   PATT
  POIN2 Label_01A58077
//  #08 //006   ----------------------------------------
 BYTE   PATT
  POIN2 Label_01A58097
//  #08 //007   ----------------------------------------
 BYTE   PATT
  POIN2 Label_01A580B7
//  #08 //008   ----------------------------------------
 BYTE   N06  GnM1  v127
 BYTE   N21  Bn2  v124
 BYTE   W24
 BYTE   N22  Cn1  v127
 BYTE   N21  Bn2  v116
 BYTE   W24
 BYTE   N06  GnM1  v127
 BYTE   N21  Bn2  v116
 BYTE   W12
 BYTE   N06  GnM1  v104
 BYTE   W12
 BYTE   N11  Cn1  v127
 BYTE   N21  Bn2  v124
 BYTE   W12
 BYTE   N05  Dn1  v076
 BYTE   W06
 BYTE   Cn1  v120
 BYTE   W06
//  #08 //009   ----------------------------------------
 BYTE   PATT
  POIN2 Label_01A58077
//  #08 //010   ----------------------------------------
 BYTE   PATT
  POIN2 Label_01A58097
//  #08 //011   ----------------------------------------
 BYTE   PATT
  POIN2 Label_01A580B7
//  #08 //012   ----------------------------------------
 BYTE   PATT
  POIN2 Label_01A580D4
//  #08 //013   ----------------------------------------
 BYTE   PATT
  POIN2 Label_01A58077
//  #08 //014   ----------------------------------------
 BYTE   PATT
  POIN2 Label_01A58097
//  #08 //015   ----------------------------------------
 BYTE   N06  GnM1  v127
 BYTE   N21  Bn2  v104
 BYTE   W24
 BYTE   N22  Cn1  v127
 BYTE   N21  Bn2
 BYTE   W24
 BYTE   N06  GnM1
 BYTE   N21  An2  v116
 BYTE   W12
 BYTE   N06  GnM1  v127
 BYTE   W12
 BYTE   N22  Cn1
 BYTE   N21  An2
 BYTE   W24
//  #08 //016   ----------------------------------------
 BYTE   N06  GnM1
 BYTE   N21  An2  v124
 BYTE   W24
 BYTE   N22  Cn1  v127
 BYTE   N21  An2  v116
 BYTE   W24
 BYTE   N06  GnM1  v127
 BYTE   N21  An2  v116
 BYTE   W12
 BYTE   N06  GnM1  v104
 BYTE   W12
 BYTE   N11  Cn1  v127
 BYTE   N21  An2  v124
 BYTE   W12
 BYTE   N05  Dn1  v076
 BYTE   W06
 BYTE   Cn1  v120
 BYTE   W06
//  #08 //017   ----------------------------------------
Label_01A5818B:
 BYTE   N06  GnM1  v127
 BYTE   N44  Bn2  v104
 BYTE   W24
 BYTE   N22  Cn1  v127
 BYTE   N21  An2  v116
 BYTE   W24
 BYTE   N06  GnM1  v127
 BYTE   N21  An2  v120
 BYTE   W12
 BYTE   N06  GnM1  v127
 BYTE   W12
 BYTE   N22  Cn1
 BYTE   N21  An2  v120
 BYTE   W24
 BYTE   PEND 
//  #08 //018   ----------------------------------------
Label_01A581AB:
 BYTE   N06  GnM1  v127
 BYTE   N21  An2  v120
 BYTE   W24
 BYTE   N22  Cn1  v127
 BYTE   N21  An2  v124
 BYTE   W24
 BYTE   N06  GnM1  v127
 BYTE   N21  An2  v116
 BYTE   W12
 BYTE   N06  GnM1  v124
 BYTE   W12
 BYTE   N22  Cn1  v127
 BYTE   N21  An2
 BYTE   W24
 BYTE   PEND 
//  #08 //019   ----------------------------------------
Label_01A581CB:
 BYTE   N06  GnM1  v127
 BYTE   N21  An2  v104
 BYTE   W24
 BYTE   N22  Cn1  v127
 BYTE   N21  An2
 BYTE   W24
 BYTE   N06  GnM1
 BYTE   N21  An2  v116
 BYTE   W12
 BYTE   N06  GnM1  v127
 BYTE   W12
 BYTE   N22  Cn1
 BYTE   N21  An2
 BYTE   W24
 BYTE   PEND 
//  #08 //020   ----------------------------------------
 BYTE   N06  GnM1
 BYTE   N21  An2  v124
 BYTE   W24
 BYTE   N22  Cn1  v127
 BYTE   N21  An2  v116
 BYTE   W24
 BYTE   N06  GnM1  v127
 BYTE   N21  An2  v116
 BYTE   W12
 BYTE   N06  GnM1  v104
 BYTE   W12
 BYTE   N22  Cn1  v127
 BYTE   N21  An2  v124
 BYTE   W24
//  #08 //021   ----------------------------------------
 BYTE   PATT
  POIN2 Label_01A5818B
//  #08 //022   ----------------------------------------
 BYTE   PATT
  POIN2 Label_01A581AB
//  #08 //023   ----------------------------------------
 BYTE   PATT
  POIN2 Label_01A581CB
//  #08 //024   ----------------------------------------
 BYTE   N28  An2  v068
 BYTE   N92  Bn2  v104
 BYTE   W06
 BYTE   N11  Cn1  v116
 BYTE   W06
 BYTE   N05  Dn1  v068
 BYTE   W06
 BYTE   Cn1  v120
 BYTE   W06
 BYTE   N11  Cn1  v112
 BYTE   W06
 BYTE   N05  Dn1  v072
 BYTE   W06
 BYTE   Cn1  v120
 BYTE   W06
 BYTE   N11  Cn1  v124
 BYTE   W06
 BYTE   N05  Dn1  v076
 BYTE   W06
 BYTE   Cn1  v120
 BYTE   W06
 BYTE   N11
 BYTE   W06
 BYTE   N05  Dn1  v072
 BYTE   W06
 BYTE   N23  An2  v080
 BYTE   W06
 BYTE   N05  Dn1
 BYTE   W06
 BYTE   Cn1  v120
 BYTE   W06
 BYTE   Cn1  v112
 BYTE   W05
 BYTE   GoTo
  POIN2 Label_01A58077
 BYTE   FINE

//******************************************************//
	ALIGN 4

song0428:
	BYTE	8	// NumTrks
	BYTE	0	// NumBlks
	BYTE	song0428_pri	// Priority
	BYTE	song0428_rev	// Reverb.
    
	POIN2	song0428_grp
    
	POIN2	song0428_001
	POIN2	song0428_002
	POIN2	song0428_003
	POIN2	song0428_004
	POIN2	song0428_005
	POIN2	song0428_006
	POIN2	song0428_007
	POIN2	song0428_008

	
