	.include "MPlayDef.s"

	.equ	LegendofZeldaOcarinaofTimeOwlThemes_grp, voicegroup000
	.equ	LegendofZeldaOcarinaofTimeOwlThemes_pri, 0
	.equ	LegendofZeldaOcarinaofTimeOwlThemes_rev, 0
	.equ	LegendofZeldaOcarinaofTimeOwlThemes_mvl, 127
	.equ	LegendofZeldaOcarinaofTimeOwlThemes_key, 0
	.equ	LegendofZeldaOcarinaofTimeOwlThemes_tbs, 1
	.equ	LegendofZeldaOcarinaofTimeOwlThemes_exg, 0
	.equ	LegendofZeldaOcarinaofTimeOwlThemes_cmp, 1

	.section .rodata
	.global	LegendofZeldaOcarinaofTimeOwlThemes
	.align	2


@**************** Track 1 (Midi-Chn.0) ****************@

LegendofZeldaOcarinaofTimeOwlThemes_001:
@  #01 @000   ----------------------------------------
 .byte   VOL , 45*LegendofZeldaOcarinaofTimeOwlThemes_mvl/mxv
 .byte   KEYSH , LegendofZeldaOcarinaofTimeOwlThemes_key+0
Label_012BD5D8:
 .byte   TEMPO , 150*LegendofZeldaOcarinaofTimeOwlThemes_tbs/2
 .byte   VOICE , 69
 .byte   MODT 0
 .byte   LFOS 44
 .byte   W72
 .byte   W72
@  #01 @001   ----------------------------------------
 .byte   W72
 .byte   W72
@  #01 @002   ----------------------------------------
 .byte   W72
 .byte   W72
@  #01 @003   ----------------------------------------
 .byte   W72
 .byte   W72
@  #01 @004   ----------------------------------------
 .byte   W72
 .byte   W72
@  #01 @005   ----------------------------------------
 .byte   W72
 .byte   W72
@  #01 @006   ----------------------------------------
 .byte   W72
 .byte   W72
@  #01 @007   ----------------------------------------
 .byte   W72
 .byte   W72
@  #01 @008   ----------------------------------------
 .byte   TEMPO , 150*LegendofZeldaOcarinaofTimeOwlThemes_tbs/2
 .byte   W72
 .byte   W72
@  #01 @009   ----------------------------------------
 .byte   W72
 .byte   W72
@  #01 @010   ----------------------------------------
 .byte   W72
 .byte   TEMPO , 124*LegendofZeldaOcarinaofTimeOwlThemes_tbs/2
 .byte   W06
 .byte   TEMPO , 106*LegendofZeldaOcarinaofTimeOwlThemes_tbs/2
 .byte   W06
 .byte   TEMPO , 92*LegendofZeldaOcarinaofTimeOwlThemes_tbs/2
 .byte   W06
 .byte   TEMPO , 82*LegendofZeldaOcarinaofTimeOwlThemes_tbs/2
 .byte   W06
@  #01 @011   ----------------------------------------
 .byte   TEMPO , 150*LegendofZeldaOcarinaofTimeOwlThemes_tbs/2
 .byte   W24
 .byte   N24 ,Ds3 ,v112
 .byte   N24 ,Gn3
 .byte   W24
 .byte   N24
 .byte   N24 ,As3
 .byte   W24
 .byte   N24
 .byte   N24 ,Ds4
 .byte   W24
@  #01 @012   ----------------------------------------
 .byte   N24
 .byte   N22 ,Gn4
 .byte   W24
 .byte   N24 ,As3
 .byte   N24 ,Ds4
 .byte   W24
 .byte   Gn3
 .byte   N24 ,As3
 .byte   W24
 .byte   N48 ,Ds3
 .byte   N44 ,Gn3
 .byte   W24
@  #01 @013   ----------------------------------------
 .byte   W24
 .byte   N24 ,Fn3
 .byte   N24 ,Gs3
 .byte   W24
 .byte   N24
 .byte   N24 ,Cn4
 .byte   W24
 .byte   N24
 .byte   N24 ,Fn4
 .byte   W24
@  #01 @014   ----------------------------------------
 .byte   N21 ,Gs4
 .byte   W48
 .byte   W72
@  #01 @015   ----------------------------------------
 .byte   N24 ,As2
 .byte   N24 ,Dn3
 .byte   W24
 .byte   N24
 .byte   N24 ,Fn3
 .byte   W24
 .byte   N24
 .byte   N24 ,As3
 .byte   W24
 .byte   N24
 .byte   N24 ,Dn4
 .byte   W24
@  #01 @016   ----------------------------------------
 .byte   Fn3
 .byte   N24 ,As3
 .byte   W24
 .byte   Dn3
 .byte   N24 ,Fn3
 .byte   W24
 .byte   N48 ,As2
 .byte   N48 ,Dn3
 .byte   W48
@  #01 @017   ----------------------------------------
 .byte   N24 ,Ds3
 .byte   N24 ,Gn3
 .byte   W24
 .byte   N24
 .byte   N24 ,As3
 .byte   W24
 .byte   N24
 .byte   N24 ,Ds4
 .byte   W24
 .byte   N22 ,Gn4
 .byte   W24
@  #01 @018   ----------------------------------------
 .byte   W72
 .byte   N24 ,Ds3
 .byte   W12
 .byte   Gn3
 .byte   W12
@  #01 @019   ----------------------------------------
 .byte   As3
 .byte   W12
 .byte   Ds4
 .byte   W12
 .byte   N22 ,Gn4
 .byte   W12
 .byte   N24 ,Ds4
 .byte   W12
 .byte   As3
 .byte   W12
 .byte   Gn3
 .byte   W12
 .byte   N22 ,Gn4
 .byte   W12
 .byte   N24 ,Ds4
 .byte   W12
@  #01 @020   ----------------------------------------
 .byte   As3
 .byte   W12
 .byte   Gn3
 .byte   W12
 .byte   N22 ,Gn4
 .byte   W12
 .byte   N24 ,Ds4
 .byte   W12
 .byte   As3
 .byte   W12
 .byte   Gn3
 .byte   W12
 .byte   Fn3
 .byte   W12
 .byte   Gs3
 .byte   W12
@  #01 @021   ----------------------------------------
 .byte   Cn4
 .byte   W12
 .byte   Fn4
 .byte   W12
 .byte   N21 ,Gs4
 .byte   W12
 .byte   N24 ,Fn4
 .byte   W12
 .byte   Cn4
 .byte   W12
 .byte   Gs3
 .byte   W12
 .byte   N21 ,Gs4
 .byte   W12
 .byte   N24 ,Fn4
 .byte   W12
@  #01 @022   ----------------------------------------
 .byte   Cn4
 .byte   W12
 .byte   Gs3
 .byte   W12
 .byte   N21 ,Gs4
 .byte   W12
 .byte   N24 ,Fn4
 .byte   W12
 .byte   Cn4
 .byte   W12
 .byte   Gs3
 .byte   W12
 .byte   TEMPO , 150*LegendofZeldaOcarinaofTimeOwlThemes_tbs/2
 .byte   As2
 .byte   W12
 .byte   Fn3
 .byte   W12
@  #01 @023   ----------------------------------------
 .byte   As3
 .byte   W12
 .byte   Dn4
 .byte   W12
 .byte   Fn4
 .byte   W12
 .byte   Dn4
 .byte   W12
 .byte   As3
 .byte   W12
 .byte   Fn3
 .byte   W12
 .byte   Fn4
 .byte   W12
 .byte   Dn4
 .byte   W12
@  #01 @024   ----------------------------------------
 .byte   As3
 .byte   W12
 .byte   Fn3
 .byte   W12
 .byte   Fn4
 .byte   W12
 .byte   Dn4
 .byte   W12
 .byte   As3
 .byte   W12
 .byte   Fn3
 .byte   W12
 .byte   Ds3
 .byte   W12
 .byte   As3
 .byte   W12
@  #01 @025   ----------------------------------------
 .byte   Ds4
 .byte   W12
 .byte   N22 ,Gn4
 .byte   W12
 .byte   N24 ,Dn3
 .byte   W12
 .byte   As3
 .byte   W12
 .byte   Cs4
 .byte   W12
 .byte   N12 ,Fn4
 .byte   W12
 .byte   TEMPO , 124*LegendofZeldaOcarinaofTimeOwlThemes_tbs/2
 .byte   N24 ,As3
 .byte   N23 ,Ds4
 .byte   W24
@  #01 @026   ----------------------------------------
 .byte   TEMPO , 106*LegendofZeldaOcarinaofTimeOwlThemes_tbs/2
 .byte   N20
 .byte   N16 ,Gn4
 .byte   W24
 .byte   TEMPO , 92*LegendofZeldaOcarinaofTimeOwlThemes_tbs/2
 .byte   N23 ,As3
 .byte   N17 ,Ds4
 .byte   W24
 .byte   GOTO
  .word Label_012BD5D8
@  #01 @027   ----------------------------------------
 .byte   N23 ,As3 ,v072
 .byte   W23
 .byte   FINE

@**************** Track 2 (Midi-Chn.1) ****************@

LegendofZeldaOcarinaofTimeOwlThemes_002:
@  #02 @000   ----------------------------------------
 .byte   VOL , 115*LegendofZeldaOcarinaofTimeOwlThemes_mvl/mxv
 .byte   KEYSH , LegendofZeldaOcarinaofTimeOwlThemes_key+0
Label_012BD35C:
 .byte   VOICE , 71
 .byte   MODT 0
 .byte   LFOS 44
 .byte   N36 ,Cn3 ,v040
 .byte   W36
 .byte   N12 ,Bn2
 .byte   W12
 .byte   N36 ,Cn3
 .byte   W24
Label_012BD36C:
 .byte   W12
 .byte   N12 ,Bn2 ,v040
 .byte   W12
@  #02 @001   ----------------------------------------
 .byte   Cn3
 .byte   W12
 .byte   Dn3
 .byte   W12
 .byte   Ds3
 .byte   W12
 .byte   Fn3
 .byte   W12
 .byte   PEND 
 .byte   N24 ,Gn3
 .byte   W24
 .byte   Cn3
 .byte   W24
@  #02 @002   ----------------------------------------
 .byte   Gn3
 .byte   W24
 .byte   Cn4
 .byte   W24
 .byte   N12 ,As3
 .byte   W12
 .byte   Gs3
 .byte   W12
 .byte   Gn3
 .byte   W12
 .byte   Fn3
 .byte   W12
@  #02 @003   ----------------------------------------
 .byte   N24 ,Ds3
 .byte   W24
 .byte   N12 ,Dn3
 .byte   W12
 .byte   Cn3
 .byte   W12
 .byte   N24 ,Bn2
 .byte   W24
 .byte   Gn2
 .byte   W24
@  #02 @004   ----------------------------------------
 .byte   N36 ,Cn3
 .byte   W36
 .byte   N12 ,Bn2
 .byte   W12
 .byte   N36 ,Cn3
 .byte   W36
 .byte   N12 ,Bn2
 .byte   W12
@  #02 @005   ----------------------------------------
 .byte   Cn3
 .byte   W12
 .byte   Dn3
 .byte   W12
 .byte   Ds3
 .byte   W12
 .byte   Fn3
 .byte   W12
 .byte   N24 ,Gn3
 .byte   W24
 .byte   Cn3
 .byte   W24
@  #02 @006   ----------------------------------------
 .byte   Fn3
 .byte   W24
 .byte   Gs3
 .byte   W24
 .byte   N12 ,Gn3
 .byte   W12
 .byte   Fn3
 .byte   W12
 .byte   Ds3
 .byte   W12
 .byte   Dn3
 .byte   W12
@  #02 @007   ----------------------------------------
 .byte   N36
 .byte   W36
 .byte   N12 ,Cn3
 .byte   W12
 .byte   N48
 .byte   W48
@  #02 @008   ----------------------------------------
 .byte   N36
 .byte   W24
 .byte   W12
 .byte   N12 ,Bn2
 .byte   W12
 .byte   N36 ,Cn3
 .byte   W36
 .byte   N12 ,Bn2
 .byte   W12
@  #02 @009   ----------------------------------------
 .byte   Cn3
 .byte   W12
 .byte   Dn3
 .byte   W12
 .byte   Ds3
 .byte   W12
 .byte   Fn3
 .byte   W12
 .byte   N24 ,Gn3
 .byte   W24
 .byte   Cn3
 .byte   W24
@  #02 @010   ----------------------------------------
 .byte   Gn3
 .byte   W24
 .byte   Cn4
 .byte   W24
 .byte   N12 ,As3
 .byte   W12
 .byte   Gs3
 .byte   W12
 .byte   Gn3
 .byte   W12
 .byte   Fn3
 .byte   W12
@  #02 @011   ----------------------------------------
 .byte   N24 ,Ds3
 .byte   W24
 .byte   N12 ,Dn3
 .byte   W12
 .byte   Cn3
 .byte   W12
 .byte   N24 ,Bn2
 .byte   W24
 .byte   Gn2
 .byte   W24
@  #02 @012   ----------------------------------------
 .byte   N36 ,Cn3
 .byte   W36
 .byte   N12 ,Bn2
 .byte   W12
 .byte   N36 ,Cn3
 .byte   W24
@  #02 @013   ----------------------------------------
 .byte   PATT
  .word Label_012BD36C
@  #02 @014   ----------------------------------------
 .byte   N24 ,Gn3 ,v040
 .byte   W24
 .byte   Cn3
 .byte   W24
 .byte   Fn3
 .byte   W24
 .byte   Gs3
 .byte   W24
@  #02 @015   ----------------------------------------
 .byte   N12 ,Gn3
 .byte   W12
 .byte   Fn3
 .byte   W12
 .byte   Ds3
 .byte   W12
 .byte   Dn3
 .byte   W12
 .byte   N36
 .byte   W36
 .byte   N12 ,Cn3
 .byte   W12
@  #02 @016   ----------------------------------------
 .byte   N48
 .byte   W24
 .byte   W24
 .byte   N24 ,As3
 .byte   W24
 .byte   N12 ,Gn3
 .byte   W12
 .byte   Gs3
 .byte   W12
@  #02 @017   ----------------------------------------
 .byte   N24 ,As3
 .byte   W24
 .byte   N12 ,Gn3
 .byte   W12
 .byte   Gs3
 .byte   W12
 .byte   N24 ,As3
 .byte   W24
 .byte   N12 ,Ds4
 .byte   W12
 .byte   Dn4
 .byte   W12
@  #02 @018   ----------------------------------------
 .byte   N24 ,Cn4
 .byte   W24
 .byte   As3
 .byte   W24
 .byte   Cn4
 .byte   W24
 .byte   N12 ,Gs3
 .byte   W12
 .byte   As3
 .byte   W12
@  #02 @019   ----------------------------------------
 .byte   N24 ,Gs3
 .byte   W24
 .byte   Gn3
 .byte   W24
 .byte   N96 ,Fn3
 .byte   N96 ,Gs3
 .byte   W48
@  #02 @020   ----------------------------------------
 .byte   W48
 .byte   N24 ,Fn3
 .byte   W24
 .byte   N12 ,Dn3
 .byte   W12
 .byte   Ds3
 .byte   W12
@  #02 @021   ----------------------------------------
 .byte   N24 ,Fn3
 .byte   W24
 .byte   N12 ,Dn3
 .byte   W12
 .byte   Ds3
 .byte   W12
 .byte   N24 ,Fn3
 .byte   W24
 .byte   N12 ,Dn4
 .byte   W12
 .byte   Cn4
 .byte   W12
@  #02 @022   ----------------------------------------
 .byte   N24 ,As3
 .byte   W24
 .byte   Gs3
 .byte   W24
 .byte   N24
 .byte   W24
 .byte   N12 ,As3
 .byte   W12
 .byte   Gs3
 .byte   W12
@  #02 @023   ----------------------------------------
 .byte   N24 ,Gn3
 .byte   W24
 .byte   Fn3
 .byte   W24
 .byte   TIE ,Ds3
 .byte   N96 ,Gn3
 .byte   W24
 .byte   W72
@  #02 @024   ----------------------------------------
 .byte   N24 ,As3
 .byte   W12
 .byte   EOT
 .byte   Ds3
 .byte   W12
 .byte   N12 ,Gn3
 .byte   W12
 .byte   Gs3
 .byte   W12
 .byte   N24 ,As3
 .byte   W24
 .byte   N12 ,Gn3
 .byte   W12
 .byte   Gs3
 .byte   W12
@  #02 @025   ----------------------------------------
 .byte   N24 ,As3
 .byte   W24
 .byte   N12 ,Ds4
 .byte   W12
 .byte   Dn4
 .byte   W12
 .byte   N24 ,Cn4
 .byte   W24
 .byte   As3
 .byte   W24
@  #02 @026   ----------------------------------------
 .byte   Cn4
 .byte   W24
 .byte   N12 ,Gs3
 .byte   W12
 .byte   As3
 .byte   W12
 .byte   N24 ,Gs3
 .byte   W24
 .byte   Gn3
 .byte   W24
@  #02 @027   ----------------------------------------
 .byte   N96 ,Gs3
 .byte   W72
 .byte   W24
@  #02 @028   ----------------------------------------
 .byte   N24 ,Fn3
 .byte   W24
 .byte   N12 ,Dn3
 .byte   W12
 .byte   Ds3
 .byte   W12
 .byte   N24 ,Fn3
 .byte   W24
 .byte   N12 ,Dn3
 .byte   W12
 .byte   Ds3
 .byte   W12
@  #02 @029   ----------------------------------------
 .byte   N24 ,Fn3
 .byte   W24
 .byte   N12 ,Dn4
 .byte   W12
 .byte   Cn4
 .byte   W12
 .byte   N24 ,As3
 .byte   W24
 .byte   Gs3
 .byte   W24
@  #02 @030   ----------------------------------------
 .byte   Gn3
 .byte   W24
 .byte   N12 ,Fn3
 .byte   W12
 .byte   Ds3
 .byte   W12
 .byte   N36 ,Dn3
 .byte   W24
 .byte   W12
 .byte   N12 ,Ds3
 .byte   W12
@  #02 @031   ----------------------------------------
 .byte   N96
 .byte   W48
 .byte   W24
 .byte   GOTO
  .word Label_012BD35C
@  #02 @032   ----------------------------------------
 .byte   W24
 .byte   FINE

@**************** Track 3 (Midi-Chn.2) ****************@

LegendofZeldaOcarinaofTimeOwlThemes_003:
@  #03 @000   ----------------------------------------
 .byte   VOL , 115*LegendofZeldaOcarinaofTimeOwlThemes_mvl/mxv
 .byte   KEYSH , LegendofZeldaOcarinaofTimeOwlThemes_key+0
Label_012BD70C:
 .byte   VOICE , 45
 .byte   MODT 0
 .byte   LFOS 44
 .byte   N24 ,Cn2 ,v072
 .byte   W24
 .byte   Gn2
 .byte   W24
 .byte   N36 ,Cn3
 .byte   W24
Label_012BD71B:
 .byte   W24
@  #03 @001   ----------------------------------------
 .byte   N24 ,Cn2 ,v072
 .byte   W24
 .byte   Gn2
 .byte   W24
 .byte   PEND 
 .byte   N36 ,Cn3
 .byte   W48
@  #03 @002   ----------------------------------------
 .byte   N24 ,Ds2
 .byte   W24
 .byte   As2
 .byte   W24
 .byte   N30 ,Ds3
 .byte   W48
@  #03 @003   ----------------------------------------
 .byte   N24 ,Ds2
 .byte   W24
 .byte   Gn2
 .byte   W24
 .byte   N32 ,Dn3
 .byte   W24
@  #03 @004   ----------------------------------------
 .byte   PATT
  .word Label_012BD71B
@  #03 @005   ----------------------------------------
Label_012BD73B:
 .byte   N36 ,Cn3 ,v072
 .byte   W48
 .byte   N24 ,Cn2
 .byte   W24
 .byte   PEND 
Label_012BD743:
 .byte   N24 ,Gn2 ,v072
 .byte   W24
@  #03 @006   ----------------------------------------
 .byte   N36 ,Cn3
 .byte   W48
 .byte   PEND 
 .byte   N24 ,Fn2
 .byte   W24
 .byte   Cn3
 .byte   W24
@  #03 @007   ----------------------------------------
 .byte   Fn3
 .byte   W24
 .byte   W48
 .byte   Gn2
 .byte   W24
@  #03 @008   ----------------------------------------
 .byte   PATT
  .word Label_012BD73B
@  #03 @009   ----------------------------------------
 .byte   PATT
  .word Label_012BD743
@  #03 @010   ----------------------------------------
Label_012BD75F:
 .byte   N24 ,Cn2 ,v072
 .byte   W24
 .byte   Gn2
 .byte   W24
 .byte   N36 ,Cn3
 .byte   W24
 .byte   PEND 
 .byte   W24
@  #03 @011   ----------------------------------------
 .byte   N24 ,Ds2
 .byte   W24
 .byte   As2
 .byte   W24
 .byte   N30 ,Ds3
 .byte   W48
@  #03 @012   ----------------------------------------
 .byte   N24 ,Ds2
 .byte   W24
 .byte   Gn2
 .byte   W24
 .byte   N32 ,Dn3
 .byte   W48
@  #03 @013   ----------------------------------------
 .byte   PATT
  .word Label_012BD75F
@  #03 @014   ----------------------------------------
 .byte   PATT
  .word Label_012BD71B
@  #03 @015   ----------------------------------------
 .byte   N36 ,Cn3 ,v072
 .byte   W48
 .byte   N24 ,Fn2
 .byte   W24
 .byte   Cn3
 .byte   W24
@  #03 @016   ----------------------------------------
 .byte   Fn3
 .byte   W48
 .byte   W24
 .byte   Gn2
 .byte   W24
@  #03 @017   ----------------------------------------
 .byte   N36 ,Cn3
 .byte   W24
 .byte   W72
@  #03 @018   ----------------------------------------
 .byte   W72
 .byte   W72
@  #03 @019   ----------------------------------------
 .byte   W72
 .byte   W72
@  #03 @020   ----------------------------------------
 .byte   W72
 .byte   W72
@  #03 @021   ----------------------------------------
 .byte   W72
 .byte   W72
@  #03 @022   ----------------------------------------
 .byte   W72
 .byte   W72
@  #03 @023   ----------------------------------------
 .byte   W72
 .byte   W72
@  #03 @024   ----------------------------------------
 .byte   W72
 .byte   W72
@  #03 @025   ----------------------------------------
 .byte   W72
 .byte   W72
@  #03 @026   ----------------------------------------
 .byte   W72
 .byte   W72
@  #03 @027   ----------------------------------------
 .byte   W72
 .byte   W72
@  #03 @028   ----------------------------------------
 .byte   W24
 .byte   GOTO
  .word Label_012BD70C
 .byte   FINE

@**************** Track 4 (Midi-Chn.3) ****************@

LegendofZeldaOcarinaofTimeOwlThemes_004:
@  #04 @000   ----------------------------------------
 .byte   VOL , 55*LegendofZeldaOcarinaofTimeOwlThemes_mvl/mxv
 .byte   KEYSH , LegendofZeldaOcarinaofTimeOwlThemes_key+0
Label_012B8EE4:
 .byte   VOICE , 67
 .byte   MODT 0
 .byte   LFOS 44
 .byte   W72
 .byte   W72
@  #04 @001   ----------------------------------------
 .byte   W72
 .byte   W72
@  #04 @002   ----------------------------------------
 .byte   W72
 .byte   W72
@  #04 @003   ----------------------------------------
 .byte   W72
 .byte   W72
@  #04 @004   ----------------------------------------
 .byte   W72
 .byte   W72
@  #04 @005   ----------------------------------------
 .byte   W48
 .byte   N72 ,Ds3 ,v127
 .byte   W24
 .byte   W48
@  #04 @006   ----------------------------------------
 .byte   N24 ,Fn3
 .byte   W24
 .byte   N48 ,Gn3
 .byte   W48
 .byte   Cn4
 .byte   W24
@  #04 @007   ----------------------------------------
 .byte   W24
 .byte   Ds4
 .byte   W48
 .byte   N24 ,Dn4
 .byte   W24
@  #04 @008   ----------------------------------------
 .byte   Cn4
 .byte   W24
 .byte   N48 ,Bn3
 .byte   W24
 .byte   W24
 .byte   Gn3
 .byte   W48
@  #04 @009   ----------------------------------------
 .byte   N72 ,Ds3
 .byte   W72
 .byte   N24 ,Fn3
 .byte   W24
@  #04 @010   ----------------------------------------
 .byte   N48 ,Gn3
 .byte   W48
 .byte   Cn4
 .byte   W48
@  #04 @011   ----------------------------------------
 .byte   Dn4
 .byte   W24
 .byte   W24
 .byte   Bn3
 .byte   W48
@  #04 @012   ----------------------------------------
 .byte   N48
 .byte   W48
 .byte   N72 ,Cn4
 .byte   W24
 .byte   W72
@  #04 @013   ----------------------------------------
 .byte   W72
 .byte   W72
@  #04 @014   ----------------------------------------
 .byte   W72
 .byte   W72
@  #04 @015   ----------------------------------------
 .byte   W72
 .byte   W72
@  #04 @016   ----------------------------------------
 .byte   W72
 .byte   W72
@  #04 @017   ----------------------------------------
 .byte   W72
 .byte   W72
@  #04 @018   ----------------------------------------
 .byte   W72
 .byte   W72
@  #04 @019   ----------------------------------------
 .byte   W72
 .byte   W72
@  #04 @020   ----------------------------------------
 .byte   W72
 .byte   W72
@  #04 @021   ----------------------------------------
 .byte   W72
 .byte   W72
@  #04 @022   ----------------------------------------
 .byte   W72
 .byte   W72
@  #04 @023   ----------------------------------------
 .byte   W24
 .byte   GOTO
  .word Label_012B8EE4
 .byte   FINE

@**************** Track 5 (Midi-Chn.4) ****************@

LegendofZeldaOcarinaofTimeOwlThemes_005:
@  #05 @000   ----------------------------------------
 .byte   VOL , 115*LegendofZeldaOcarinaofTimeOwlThemes_mvl/mxv
 .byte   KEYSH , LegendofZeldaOcarinaofTimeOwlThemes_key+0
Label_012BD4EC:
 .byte   VOICE , 42
 .byte   MODT 0
 .byte   LFOS 44
 .byte   W72
 .byte   W72
@  #05 @001   ----------------------------------------
 .byte   W72
 .byte   W72
@  #05 @002   ----------------------------------------
 .byte   W72
 .byte   W72
@  #05 @003   ----------------------------------------
 .byte   W72
 .byte   W72
@  #05 @004   ----------------------------------------
 .byte   W72
 .byte   W72
@  #05 @005   ----------------------------------------
 .byte   W72
 .byte   W72
@  #05 @006   ----------------------------------------
 .byte   W72
 .byte   W72
@  #05 @007   ----------------------------------------
 .byte   W72
 .byte   W72
@  #05 @008   ----------------------------------------
 .byte   W72
 .byte   W72
@  #05 @009   ----------------------------------------
 .byte   W72
 .byte   W72
@  #05 @010   ----------------------------------------
 .byte   W72
 .byte   W24
@  #05 @011   ----------------------------------------
 .byte   N72 ,Ds1 ,v060
 .byte   W48
Label_012BD50C:
 .byte   W24
 .byte   N24 ,As1 ,v060
 .byte   W24
@  #05 @012   ----------------------------------------
 .byte   N48 ,Ds2
 .byte   W24
 .byte   PEND 
 .byte   W24
 .byte   As1
 .byte   W48
@  #05 @013   ----------------------------------------
 .byte   N72 ,Fn1
 .byte   W72
 .byte   N24 ,Cn2
 .byte   W24
@  #05 @014   ----------------------------------------
 .byte   N48 ,Fn2
 .byte   W48
 .byte   Cn2
 .byte   W48
@  #05 @015   ----------------------------------------
 .byte   N72 ,As1
 .byte   W24
 .byte   W48
 .byte   N24 ,Fn2
 .byte   W24
@  #05 @016   ----------------------------------------
 .byte   N48 ,As2
 .byte   W48
 .byte   Fn2
 .byte   W24
 .byte   W24
@  #05 @017   ----------------------------------------
 .byte   N72 ,Ds1
 .byte   W48
@  #05 @018   ----------------------------------------
 .byte   PATT
  .word Label_012BD50C
@  #05 @019   ----------------------------------------
 .byte   W24
 .byte   N48 ,As1 ,v060
 .byte   W48
 .byte   N72 ,Ds1
 .byte   W72
@  #05 @020   ----------------------------------------
 .byte   N24 ,As1
 .byte   W24
 .byte   N48 ,Ds2
 .byte   W48
 .byte   As1
 .byte   W48
@  #05 @021   ----------------------------------------
 .byte   N72 ,Fn1
 .byte   W24
 .byte   W48
 .byte   N24 ,Cn2
 .byte   W24
@  #05 @022   ----------------------------------------
 .byte   N96 ,Fn2
 .byte   W72
 .byte   W24
@  #05 @023   ----------------------------------------
 .byte   N72 ,As0
 .byte   W48
 .byte   W24
 .byte   N24 ,Fn1
 .byte   W24
@  #05 @024   ----------------------------------------
 .byte   N48 ,As1
 .byte   W24
 .byte   W24
 .byte   Fn1
 .byte   W48
@  #05 @025   ----------------------------------------
 .byte   Ds1
 .byte   W48
 .byte   As1
 .byte   W24
 .byte   W24
@  #05 @026   ----------------------------------------
 .byte   N96 ,Ds1
 .byte   W48
 .byte   W24
 .byte   GOTO
  .word Label_012BD4EC
@  #05 @027   ----------------------------------------
 .byte   W24
 .byte   FINE

@******************************************************@
	.align	2

LegendofZeldaOcarinaofTimeOwlThemes:
	.byte	5	@ NumTrks
	.byte	0	@ NumBlks
	.byte	LegendofZeldaOcarinaofTimeOwlThemes_pri	@ Priority
	.byte	LegendofZeldaOcarinaofTimeOwlThemes_rev	@ Reverb.
    
	.word	LegendofZeldaOcarinaofTimeOwlThemes_grp
    
	.word	LegendofZeldaOcarinaofTimeOwlThemes_001
	.word	LegendofZeldaOcarinaofTimeOwlThemes_002
	.word	LegendofZeldaOcarinaofTimeOwlThemes_003
	.word	LegendofZeldaOcarinaofTimeOwlThemes_004
	.word	LegendofZeldaOcarinaofTimeOwlThemes_005

	.end
