//Event file generated from Sappy .s format.
	#include "MPlayDef.event"

	#define	LoZBreathoftheWildCalamityGanonSme_grp  voicegroup000
	#define	LoZBreathoftheWildCalamityGanonSme_pri  0
	#define	LoZBreathoftheWildCalamityGanonSme_rev  0
	#define	LoZBreathoftheWildCalamityGanonSme_mvl  85
	#define	LoZBreathoftheWildCalamityGanonSme_key  0
	#define	LoZBreathoftheWildCalamityGanonSme_tbs  1
	#define	LoZBreathoftheWildCalamityGanonSme_exg  0
	#define	LoZBreathoftheWildCalamityGanonSme_cmp  1

	// .rodata
	//	LoZBreathoftheWildCalamityGanonSme
	ALIGN 4

//**************** Track 1 (Midi-Chn.1) ****************//

LoZBreathoftheWildCalamityGanonSme_1:
	BYTE	KEYSH   LoZBreathoftheWildCalamityGanonSme_key+0
LoZBreathoftheWildCalamityGanonSme_1_B1:
// 000   ----------------------------------------
	BYTE	TEMPO   142*LoZBreathoftheWildCalamityGanonSme_tbs/2
	BYTE		VOICE   47
	BYTE		VOL     125*LoZBreathoftheWildCalamityGanonSme_mvl/mxv
	BYTE		PAN     c_v+0
	BYTE		N44     An1   v080
	BYTE	W48
	BYTE		N44   
	BYTE	W48
// 001   ----------------------------------------
LoZBreathoftheWildCalamityGanonSme_1_001:
	BYTE		N44     An1   v080
	BYTE	W48
	BYTE		N44   
	BYTE	W48
	BYTE	PEND
// 002   ----------------------------------------
	BYTE	PATT
	 POIN2	LoZBreathoftheWildCalamityGanonSme_1_001
// 003   ----------------------------------------
	BYTE	PATT
	 POIN2	LoZBreathoftheWildCalamityGanonSme_1_001
// 004   ----------------------------------------
	BYTE	PATT
	 POIN2	LoZBreathoftheWildCalamityGanonSme_1_001
// 005   ----------------------------------------
	BYTE	PATT
	 POIN2	LoZBreathoftheWildCalamityGanonSme_1_001
// 006   ----------------------------------------
	BYTE	PATT
	 POIN2	LoZBreathoftheWildCalamityGanonSme_1_001
// 007   ----------------------------------------
	BYTE	PATT
	 POIN2	LoZBreathoftheWildCalamityGanonSme_1_001
// 008   ----------------------------------------
	BYTE	PATT
	 POIN2	LoZBreathoftheWildCalamityGanonSme_1_001
// 009   ----------------------------------------
	BYTE	PATT
	 POIN2	LoZBreathoftheWildCalamityGanonSme_1_001
// 010   ----------------------------------------
	BYTE	PATT
	 POIN2	LoZBreathoftheWildCalamityGanonSme_1_001
// 011   ----------------------------------------
	BYTE	PATT
	 POIN2	LoZBreathoftheWildCalamityGanonSme_1_001
// 012   ----------------------------------------
	BYTE	PATT
	 POIN2	LoZBreathoftheWildCalamityGanonSme_1_001
// 013   ----------------------------------------
	BYTE	PATT
	 POIN2	LoZBreathoftheWildCalamityGanonSme_1_001
// 014   ----------------------------------------
	BYTE	PATT
	 POIN2	LoZBreathoftheWildCalamityGanonSme_1_001
// 015   ----------------------------------------
	BYTE		N44     An1   v080
	BYTE	W48
	BYTE		N23     En1   v100
	BYTE		N23     En2 
	BYTE	W48
// 016   ----------------------------------------
	BYTE		        Bn2 
	BYTE		N23     En3 
	BYTE	W36
	BYTE		N11     Ds1 
	BYTE		N11     Ds2 
	BYTE	W12
	BYTE		N23     Fn1 
	BYTE		N23     Fn2 
	BYTE	W48
// 017   ----------------------------------------
	BYTE		        Cn3 
	BYTE		N23     Fn3 
	BYTE	W36
	BYTE		N11     En1 
	BYTE		N11     En2 
	BYTE	W12
	BYTE		N23     Fs1 
	BYTE		N23     Fs2 
	BYTE	W48
// 018   ----------------------------------------
	BYTE		        Cs3 
	BYTE		N23     Fs3 
	BYTE	W36
	BYTE		N11     Fn1 
	BYTE		N11     Fn2 
	BYTE	W12
	BYTE		N23     Gn1 
	BYTE		N23     Gn2 
	BYTE	W48
// 019   ----------------------------------------
	BYTE		        Dn3 
	BYTE		N23     Gn3 
	BYTE	W36
	BYTE		N11     Fs1 
	BYTE		N11     Fs2 
	BYTE	W12
	BYTE		        Gs1 
	BYTE		N11     Gs2 
	BYTE	W24
	BYTE		        Ds3 
	BYTE	W12
	BYTE		        Gn1 
	BYTE		N11     Gn2 
	BYTE	W12
// 020   ----------------------------------------
	BYTE		        An1 
	BYTE		N11     An2 
	BYTE	W24
	BYTE		        En3 
	BYTE	W12
	BYTE		        Gs1 
	BYTE		N11     Gs2 
	BYTE	W12
	BYTE		        As1 
	BYTE		N11     As2 
	BYTE	W24
	BYTE		        Fn3 
	BYTE	W12
	BYTE		        An1 
	BYTE		N11     An2 
	BYTE	W12
// 021   ----------------------------------------
	BYTE		        Bn1 
	BYTE		N11     Bn2 
	BYTE	W24
	BYTE		        Fs3 
	BYTE	W12
	BYTE		        As1 
	BYTE		N11     As2 
	BYTE	W12
	BYTE		        Cn2 
	BYTE		N11     Cn3 
	BYTE	W12
	BYTE		        Bn1 
	BYTE		N11     Bn2 
	BYTE	W12
	BYTE		        Cs2 
	BYTE		N11     Cs3 
	BYTE	W12
	BYTE		        Cn2 
	BYTE		N11     Cn3 
	BYTE	W12
// 022   ----------------------------------------
	BYTE		        Dn2 
	BYTE		N11     Dn3 
	BYTE	W12
	BYTE		        Cs2 
	BYTE		N11     Cs3 
	BYTE	W12
	BYTE		        Ds2 
	BYTE		N11     Ds3 
	BYTE	W12
	BYTE		        Dn2 
	BYTE		N11     Dn3 
	BYTE	W12
	BYTE		N08     En2 
	BYTE		N08     En3 
	BYTE	W18
	BYTE		N11     En2 
	BYTE		N11     En3 
	BYTE	W18
	BYTE		        En2 
	BYTE		N11     En3 
	BYTE	W12
	BYTE	GoTo
	 POIN2	LoZBreathoftheWildCalamityGanonSme_1_B1
LoZBreathoftheWildCalamityGanonSme_1_B2:
// 023   ----------------------------------------
	BYTE	FINE

//**************** Track 2 (Midi-Chn.2) ****************//

LoZBreathoftheWildCalamityGanonSme_2:
	BYTE	KEYSH   LoZBreathoftheWildCalamityGanonSme_key+0
LoZBreathoftheWildCalamityGanonSme_2_B1:
// 000   ----------------------------------------
	BYTE		VOICE   52
	BYTE		VOL     100*LoZBreathoftheWildCalamityGanonSme_mvl/mxv
	BYTE		PAN     c_v+0
	BYTE		N68     Cs2   v127
	BYTE		N68     Cs3 
	BYTE	W72
	BYTE		N11     Dn2 
	BYTE		N11     Dn3 
	BYTE	W12
	BYTE		        En2 
	BYTE		N11     En3 
	BYTE	W12
// 001   ----------------------------------------
	BYTE		N23     Fn2 
	BYTE		N23     Fn3 
	BYTE	W24
	BYTE		N11     Gn2 
	BYTE		N11     Gn3 
	BYTE	W12
	BYTE		        An2 
	BYTE		N11     An3 
	BYTE	W12
	BYTE		N23     As2 
	BYTE		N23     As3 
	BYTE	W24
	BYTE		N11     Cs3 
	BYTE		N11     Cs4 
	BYTE	W12
	BYTE		        Dn3 
	BYTE		N11     Dn4 
	BYTE	W12
// 002   ----------------------------------------
	BYTE		TIE     En2 
	BYTE		TIE     En3 
	BYTE	W96
// 003   ----------------------------------------
	BYTE	W44
	BYTE	W03
	BYTE		EOT     En2 
	BYTE		        En3 
	BYTE	W01
	BYTE		N68     Cs2 
	BYTE		N68     Cs3 
	BYTE	W48
// 004   ----------------------------------------
	BYTE	W24
	BYTE		N11     Ds2 
	BYTE		N11     Ds3 
	BYTE	W12
	BYTE		        Fn2 
	BYTE		N11     Fn3 
	BYTE	W12
	BYTE		N23     Gn2 
	BYTE		N23     Gn3 
	BYTE	W24
	BYTE		N11     Gs2 
	BYTE		N11     Gs3 
	BYTE	W12
	BYTE		        As2 
	BYTE		N11     As3 
	BYTE	W12
// 005   ----------------------------------------
	BYTE		N23     Cn3 
	BYTE		N23     Cn4 
	BYTE	W24
	BYTE		N11     Cs3 
	BYTE		N11     Cs4 
	BYTE	W12
	BYTE		        Ds3 
	BYTE		N11     Ds4 
	BYTE	W12
	BYTE		N44     Fn3 
	BYTE		N44     Fn4 
	BYTE	W48
// 006   ----------------------------------------
	BYTE		N92     Gn3 
	BYTE		N92     Gn4 
	BYTE	W96
// 007   ----------------------------------------
	BYTE		N44     Gs3 
	BYTE		N44     Gs4 
	BYTE	W48
	BYTE		        An3 
	BYTE		N44     An4 
	BYTE	W48
// 008   ----------------------------------------
	BYTE		N92     An3 
	BYTE		N92     Ds4 
	BYTE		N92     An4 
	BYTE	W96
// 009   ----------------------------------------
	BYTE	W36
	BYTE		N11     As3 
	BYTE		N11     As4 
	BYTE	W12
	BYTE		        An3 
	BYTE		N11     An4 
	BYTE	W48
// 010   ----------------------------------------
	BYTE		N44     An3 
	BYTE		N44     Ds4 
	BYTE		N44     An4 
	BYTE	W96
// 011   ----------------------------------------
	BYTE	W96
// 012   ----------------------------------------
	BYTE	W96
// 013   ----------------------------------------
	BYTE	W96
// 014   ----------------------------------------
	BYTE	W48
	BYTE		N11     Bn3 
	BYTE	W12
	BYTE		        Cs4 
	BYTE	W12
	BYTE		        Cn4 
	BYTE	W12
	BYTE		        Bn3 
	BYTE	W12
// 015   ----------------------------------------
	BYTE		        As3 
	BYTE	W12
	BYTE		        Bn3 
	BYTE	W12
	BYTE		        Cs4 
	BYTE	W12
	BYTE		        Ds4 
	BYTE	W12
	BYTE		N80     En3   v100
	BYTE		N80     En4 
	BYTE	W48
// 016   ----------------------------------------
	BYTE	W36
	BYTE		N11     Ds3 
	BYTE		N11     Ds4 
	BYTE	W12
	BYTE		N80     Fn3 
	BYTE		N80     Fn4 
	BYTE	W48
// 017   ----------------------------------------
	BYTE	W36
	BYTE		N11     En3 
	BYTE		N11     En4 
	BYTE	W12
	BYTE		N80     Fs3 
	BYTE		N80     Fs4 
	BYTE	W48
// 018   ----------------------------------------
	BYTE	W36
	BYTE		N11     Fn3 
	BYTE		N11     Fn4 
	BYTE	W12
	BYTE		N80     Gn3 
	BYTE		N80     Gn4 
	BYTE	W48
// 019   ----------------------------------------
	BYTE	W36
	BYTE		N11     Fs3 
	BYTE		N11     Fs4 
	BYTE	W12
	BYTE		N32     Gs3 
	BYTE		N32     Gs4 
	BYTE	W36
	BYTE		N11     Gn3 
	BYTE		N11     Gn4 
	BYTE	W12
// 020   ----------------------------------------
	BYTE		N32     An3 
	BYTE		N32     An4 
	BYTE	W36
	BYTE		N11     Gs3 
	BYTE		N11     Gs4 
	BYTE	W12
	BYTE		N32     As3 
	BYTE		N32     As4 
	BYTE	W36
	BYTE		N11     An3 
	BYTE		N11     An4 
	BYTE	W12
// 021   ----------------------------------------
	BYTE		N32     Bn3 
	BYTE		N32     Bn4 
	BYTE	W36
	BYTE		N11     As3 
	BYTE		N11     As4 
	BYTE	W12
	BYTE		        Cn4 
	BYTE		N11     Cn5 
	BYTE	W12
	BYTE		        Bn3 
	BYTE		N11     Bn4 
	BYTE	W12
	BYTE		        Cs4 
	BYTE		N11     Cs5 
	BYTE	W12
	BYTE		        Cn4 
	BYTE		N11     Cn5 
	BYTE	W12
// 022   ----------------------------------------
	BYTE		        Dn4 
	BYTE		N11     Dn5 
	BYTE	W12
	BYTE		        Cs4 
	BYTE		N11     Cs5 
	BYTE	W12
	BYTE		        Ds4 
	BYTE		N11     Ds5 
	BYTE	W12
	BYTE		        Dn4 
	BYTE		N11     Dn5 
	BYTE	W12
	BYTE		N08     En4 
	BYTE		N08     En5 
	BYTE	W18
	BYTE		N11     En4 
	BYTE		N11     En5 
	BYTE	W18
	BYTE		        En4 
	BYTE		N11     En5 
	BYTE	W12
	BYTE	GoTo
	 POIN2	LoZBreathoftheWildCalamityGanonSme_2_B1
LoZBreathoftheWildCalamityGanonSme_2_B2:
// 023   ----------------------------------------
	BYTE	FINE

//**************** Track 3 (Midi-Chn.3) ****************//

LoZBreathoftheWildCalamityGanonSme_3:
	BYTE	KEYSH   LoZBreathoftheWildCalamityGanonSme_key+0
LoZBreathoftheWildCalamityGanonSme_3_B1:
// 000   ----------------------------------------
	BYTE		VOICE   48
	BYTE		VOL     100*LoZBreathoftheWildCalamityGanonSme_mvl/mxv
	BYTE		PAN     c_v+0
	BYTE	W96
// 001   ----------------------------------------
	BYTE	W96
// 002   ----------------------------------------
	BYTE	W96
// 003   ----------------------------------------
	BYTE	W96
// 004   ----------------------------------------
	BYTE	W96
// 005   ----------------------------------------
	BYTE	W96
// 006   ----------------------------------------
	BYTE	W96
// 007   ----------------------------------------
	BYTE	W96
// 008   ----------------------------------------
	BYTE	W96
// 009   ----------------------------------------
	BYTE	W96
// 010   ----------------------------------------
	BYTE	W96
// 011   ----------------------------------------
	BYTE	W48
	BYTE		N11     An0   v100
	BYTE		N11     An1 
	BYTE	W12
	BYTE		        Cn1 
	BYTE		N11     Cn2 
	BYTE	W12
	BYTE		        Bn0 
	BYTE		N11     Bn1 
	BYTE	W12
	BYTE		        As0 
	BYTE		N11     As1 
	BYTE	W12
// 012   ----------------------------------------
LoZBreathoftheWildCalamityGanonSme_3_012:
	BYTE		N11     An0   v100
	BYTE		N11     An1 
	BYTE	W12
	BYTE		        Cn1 
	BYTE		N11     Cn2 
	BYTE	W12
	BYTE		        Bn0 
	BYTE		N11     Bn1 
	BYTE	W12
	BYTE		        As0 
	BYTE		N11     As1 
	BYTE	W12
	BYTE		        An0 
	BYTE		N11     An1 
	BYTE	W12
	BYTE		        Cn1 
	BYTE		N11     Cn2 
	BYTE	W12
	BYTE		        Bn0 
	BYTE		N11     Bn1 
	BYTE	W12
	BYTE		        As0 
	BYTE		N11     As1 
	BYTE	W12
	BYTE	PEND
// 013   ----------------------------------------
	BYTE	PATT
	 POIN2	LoZBreathoftheWildCalamityGanonSme_3_012
// 014   ----------------------------------------
	BYTE	PATT
	 POIN2	LoZBreathoftheWildCalamityGanonSme_3_012
// 015   ----------------------------------------
	BYTE		N11     An0   v100
	BYTE		N11     An1 
	BYTE	W12
	BYTE		        Cn1 
	BYTE		N11     Cn2 
	BYTE	W12
	BYTE		        Bn0 
	BYTE		N11     Bn1 
	BYTE	W12
	BYTE		        As0 
	BYTE		N11     As1 
	BYTE	W60
// 016   ----------------------------------------
	BYTE	W96
// 017   ----------------------------------------
	BYTE	W96
// 018   ----------------------------------------
	BYTE	W96
// 019   ----------------------------------------
	BYTE	W96
// 020   ----------------------------------------
	BYTE	W96
// 021   ----------------------------------------
	BYTE	W96
// 022   ----------------------------------------
	BYTE	W96
	BYTE	GoTo
	 POIN2	LoZBreathoftheWildCalamityGanonSme_3_B1
LoZBreathoftheWildCalamityGanonSme_3_B2:
// 023   ----------------------------------------
	BYTE	FINE

//**************** Track 4 (Midi-Chn.4) ****************//

LoZBreathoftheWildCalamityGanonSme_4:
	BYTE	KEYSH   LoZBreathoftheWildCalamityGanonSme_key+0
LoZBreathoftheWildCalamityGanonSme_4_B1:
// 000   ----------------------------------------
	BYTE		VOICE   60
	BYTE		VOL     100*LoZBreathoftheWildCalamityGanonSme_mvl/mxv
	BYTE		PAN     c_v+0
	BYTE		N68     Cs2   v127
	BYTE		N68     Cs3 
	BYTE	W72
	BYTE		N11     Dn2 
	BYTE		N11     Dn3 
	BYTE	W12
	BYTE		        En2 
	BYTE		N11     En3 
	BYTE	W12
// 001   ----------------------------------------
	BYTE		N23     Fn2 
	BYTE		N23     Fn3 
	BYTE	W24
	BYTE		N11     Gn2 
	BYTE		N11     Gn3 
	BYTE	W12
	BYTE		        An2 
	BYTE		N11     An3 
	BYTE	W12
	BYTE		N23     As2 
	BYTE		N23     As3 
	BYTE	W24
	BYTE		N11     Cs3 
	BYTE		N11     Cs4 
	BYTE	W12
	BYTE		        Dn3 
	BYTE		N11     Dn4 
	BYTE	W12
// 002   ----------------------------------------
	BYTE		TIE     En2 
	BYTE		TIE     En3 
	BYTE	W96
// 003   ----------------------------------------
	BYTE	W44
	BYTE	W03
	BYTE		EOT     En2 
	BYTE		        En3 
	BYTE	W01
	BYTE		N68     Cs2 
	BYTE		N68     Cs3 
	BYTE	W48
// 004   ----------------------------------------
	BYTE	W24
	BYTE		N11     Ds2 
	BYTE		N11     Ds3 
	BYTE	W12
	BYTE		        Fn2 
	BYTE		N11     Fn3 
	BYTE	W12
	BYTE		N23     Gn2 
	BYTE		N23     Gn3 
	BYTE	W24
	BYTE		N11     Gs2 
	BYTE		N11     Gs3 
	BYTE	W12
	BYTE		        As2 
	BYTE		N11     As3 
	BYTE	W12
// 005   ----------------------------------------
	BYTE		N23     Cn3 
	BYTE		N23     Cn4 
	BYTE	W24
	BYTE		N11     Cs3 
	BYTE		N11     Cs4 
	BYTE	W12
	BYTE		        Ds3 
	BYTE		N11     Ds4 
	BYTE	W12
	BYTE		N44     Fn3 
	BYTE		N44     Fn4 
	BYTE	W48
// 006   ----------------------------------------
	BYTE		N92     Gn3 
	BYTE		N92     Gn4 
	BYTE	W96
// 007   ----------------------------------------
	BYTE		N44     Gs3 
	BYTE		N44     Gs4 
	BYTE	W48
	BYTE		        An3 
	BYTE		N44     An4 
	BYTE	W48
// 008   ----------------------------------------
	BYTE		N92     An3 
	BYTE		N92     An4 
	BYTE	W96
// 009   ----------------------------------------
	BYTE	W36
	BYTE		N11     As3 
	BYTE		N11     As4 
	BYTE	W12
	BYTE		        An3 
	BYTE		N11     An4 
	BYTE	W48
// 010   ----------------------------------------
	BYTE		N44     An3 
	BYTE		N44     An4 
	BYTE	W96
// 011   ----------------------------------------
	BYTE	W96
// 012   ----------------------------------------
	BYTE	W96
// 013   ----------------------------------------
	BYTE	W96
// 014   ----------------------------------------
	BYTE	W96
// 015   ----------------------------------------
	BYTE	W48
	BYTE		N80     En3   v100
	BYTE		N80     En4 
	BYTE	W48
// 016   ----------------------------------------
	BYTE	W36
	BYTE		N11     Ds3 
	BYTE		N11     Ds4 
	BYTE	W12
	BYTE		N80     Fn3 
	BYTE		N80     Fn4 
	BYTE	W48
// 017   ----------------------------------------
	BYTE	W36
	BYTE		N11     En3 
	BYTE		N11     En4 
	BYTE	W12
	BYTE		N80     Fs3 
	BYTE		N80     Fs4 
	BYTE	W48
// 018   ----------------------------------------
	BYTE	W36
	BYTE		N11     Fn3 
	BYTE		N11     Fn4 
	BYTE	W12
	BYTE		N80     Gn3 
	BYTE		N80     Gn4 
	BYTE	W48
// 019   ----------------------------------------
	BYTE	W36
	BYTE		N11     Fs3 
	BYTE		N11     Fs4 
	BYTE	W12
	BYTE		N32     Gs3 
	BYTE		N32     Gs4 
	BYTE	W36
	BYTE		N11     Gn3 
	BYTE		N11     Gn4 
	BYTE	W12
// 020   ----------------------------------------
	BYTE		N32     An3 
	BYTE		N32     An4 
	BYTE	W36
	BYTE		N11     Gs3 
	BYTE		N11     Gs4 
	BYTE	W12
	BYTE		N32     As3 
	BYTE		N32     As4 
	BYTE	W36
	BYTE		N11     An3 
	BYTE		N11     An4 
	BYTE	W12
// 021   ----------------------------------------
	BYTE		N32     Bn3 
	BYTE		N32     Bn4 
	BYTE	W36
	BYTE		N11     As3 
	BYTE		N11     As4 
	BYTE	W12
	BYTE		        Cn4 
	BYTE		N11     Cn5 
	BYTE	W12
	BYTE		        Bn3 
	BYTE		N11     Bn4 
	BYTE	W12
	BYTE		        Cs4 
	BYTE		N11     Cs5 
	BYTE	W12
	BYTE		        Cn4 
	BYTE		N11     Cn5 
	BYTE	W12
// 022   ----------------------------------------
	BYTE		        Dn4 
	BYTE		N11     Dn5 
	BYTE	W12
	BYTE		        Cs4 
	BYTE		N11     Cs5 
	BYTE	W12
	BYTE		        Ds4 
	BYTE		N11     Ds5 
	BYTE	W12
	BYTE		        Dn4 
	BYTE		N11     Dn5 
	BYTE	W12
	BYTE		N08     En4 
	BYTE		N08     En5 
	BYTE	W18
	BYTE		N11     En4 
	BYTE		N11     En5 
	BYTE	W18
	BYTE		        En4 
	BYTE		N11     En5 
	BYTE	W12
	BYTE	GoTo
	 POIN2	LoZBreathoftheWildCalamityGanonSme_4_B1
LoZBreathoftheWildCalamityGanonSme_4_B2:
// 023   ----------------------------------------
	BYTE	FINE

//**************** Track 5 (Midi-Chn.5) ****************//

LoZBreathoftheWildCalamityGanonSme_5:
	BYTE		VOL     127*LoZBreathoftheWildCalamityGanonSme_mvl/mxv
	BYTE	KEYSH   LoZBreathoftheWildCalamityGanonSme_key+0
LoZBreathoftheWildCalamityGanonSme_5_B1:
// 000   ----------------------------------------
	BYTE		VOICE   19
	BYTE		N11     AnM1  v100
	BYTE		N11     An0 
	BYTE	W12
	BYTE		        En1 
	BYTE	W12
	BYTE		        An1 
	BYTE	W24
	BYTE		        An0 
	BYTE		N11     An1 
	BYTE	W12
	BYTE		        En1 
	BYTE	W12
	BYTE		        An1 
	BYTE	W12
	BYTE		        Cs2 
	BYTE	W12
// 001   ----------------------------------------
	BYTE		        An0 
	BYTE		N11     An1 
	BYTE	W12
	BYTE		        Cs2 
	BYTE	W12
	BYTE		        An1 
	BYTE		N11     En2 
	BYTE	W12
	BYTE		        En1 
	BYTE	W12
	BYTE		        An0 
	BYTE		N11     An1 
	BYTE	W24
	BYTE		        AnM1
	BYTE		N11     An0 
	BYTE	W12
	BYTE		        AsM1
	BYTE		N11     As0 
	BYTE	W12
// 002   ----------------------------------------
	BYTE		        AnM1
	BYTE		N11     An0 
	BYTE	W24
	BYTE		        An1 
	BYTE	W24
	BYTE		        An0 
	BYTE		N11     An1 
	BYTE	W12
	BYTE		        Cs2 
	BYTE	W12
	BYTE		        An1 
	BYTE	W24
// 003   ----------------------------------------
	BYTE		        An0 
	BYTE		N11     An1 
	BYTE	W24
	BYTE		N11   
	BYTE	W12
	BYTE		        En1 
	BYTE	W12
	BYTE		        AsM1
	BYTE		N11     As0 
	BYTE	W24
	BYTE		        As1 
	BYTE	W24
// 004   ----------------------------------------
	BYTE		        As0 
	BYTE		N11     As1 
	BYTE	W12
	BYTE		        Fn1 
	BYTE	W12
	BYTE		        As1 
	BYTE	W12
	BYTE		        Fn1 
	BYTE	W12
	BYTE		        As0 
	BYTE		N11     As1 
	BYTE	W12
	BYTE		        Dn2 
	BYTE	W12
	BYTE		        As1 
	BYTE		N11     Fn2 
	BYTE	W12
	BYTE		        Dn2 
	BYTE	W12
// 005   ----------------------------------------
	BYTE		        As0 
	BYTE		N11     As1 
	BYTE	W24
	BYTE		        AsM1
	BYTE		N11     As0 
	BYTE	W12
	BYTE		        BnM1
	BYTE		N11     Bn0 
	BYTE	W12
	BYTE		        AsM1
	BYTE		N11     As0 
	BYTE	W24
	BYTE		        As1 
	BYTE	W24
// 006   ----------------------------------------
	BYTE		        As0 
	BYTE		N11     As1 
	BYTE	W12
	BYTE		        Fn1 
	BYTE	W12
	BYTE		        As1 
	BYTE		N11     Fn2 
	BYTE	W24
	BYTE		        As0 
	BYTE		N11     As1 
	BYTE	W24
	BYTE		N11   
	BYTE		N11     Fn2 
	BYTE	W12
	BYTE		        Dn2 
	BYTE	W12
// 007   ----------------------------------------
	BYTE		        As0 
	BYTE		N11     As1 
	BYTE	W24
	BYTE		        AsM1
	BYTE		N11     As0 
	BYTE	W12
	BYTE		        BnM1
	BYTE		N11     Bn0 
	BYTE	W12
	BYTE		        AnM1
	BYTE		N11     An0 
	BYTE	W24
	BYTE		        An1 
	BYTE	W12
	BYTE		        En1 
	BYTE	W12
// 008   ----------------------------------------
	BYTE		        An0 
	BYTE		N11     An1 
	BYTE	W12
	BYTE		        En1 
	BYTE	W12
	BYTE		        An1 
	BYTE	W24
	BYTE		        An0 
	BYTE		N11     An1 
	BYTE	W12
	BYTE		        Cs2 
	BYTE	W12
	BYTE		        An1 
	BYTE	W12
	BYTE		        En2 
	BYTE	W12
// 009   ----------------------------------------
	BYTE		        An0 
	BYTE		N11     An1 
	BYTE	W24
	BYTE		        AnM1
	BYTE		N11     An0 
	BYTE	W12
	BYTE		        AsM1
	BYTE		N11     As0 
	BYTE	W12
	BYTE		        AnM1
	BYTE		N11     An0 
	BYTE	W24
	BYTE		        An1 
	BYTE	W24
// 010   ----------------------------------------
	BYTE		        An0 
	BYTE		N11     An1 
	BYTE	W24
	BYTE		N11   
	BYTE	W24
	BYTE		        An0 
	BYTE		N11     An1 
	BYTE	W24
	BYTE		N11   
	BYTE	W24
// 011   ----------------------------------------
	BYTE		        An0 
	BYTE		N11     An1 
	BYTE	W24
	BYTE		        Gn0 
	BYTE		N11     Gn1 
	BYTE	W12
	BYTE		        Gs0 
	BYTE		N11     Gs1 
	BYTE	W12
	BYTE		        An0 
	BYTE		N11     An1 
	BYTE	W12
	BYTE		        Cn1 
	BYTE		N11     Cn2 
	BYTE	W12
	BYTE		        Bn0 
	BYTE		N11     Bn1 
	BYTE	W12
	BYTE		        As0 
	BYTE		N11     As1 
	BYTE	W12
// 012   ----------------------------------------
LoZBreathoftheWildCalamityGanonSme_5_012:
	BYTE		N11     An0   v100
	BYTE		N11     An1 
	BYTE	W12
	BYTE		        Cn1 
	BYTE		N11     Cn2 
	BYTE	W12
	BYTE		        Bn0 
	BYTE		N11     Bn1 
	BYTE	W12
	BYTE		        As0 
	BYTE		N11     As1 
	BYTE	W12
	BYTE		        An0 
	BYTE		N11     An1 
	BYTE	W12
	BYTE		        Cn1 
	BYTE		N11     Cn2 
	BYTE	W12
	BYTE		        Bn0 
	BYTE		N11     Bn1 
	BYTE	W12
	BYTE		        As0 
	BYTE		N11     As1 
	BYTE	W12
	BYTE	PEND
// 013   ----------------------------------------
	BYTE	PATT
	 POIN2	LoZBreathoftheWildCalamityGanonSme_5_012
// 014   ----------------------------------------
	BYTE	PATT
	 POIN2	LoZBreathoftheWildCalamityGanonSme_5_012
// 015   ----------------------------------------
	BYTE		N11     An0   v100
	BYTE		N11     An1 
	BYTE	W12
	BYTE		        Cn1 
	BYTE		N11     Cn2 
	BYTE	W12
	BYTE		        Bn0 
	BYTE		N11     Bn1 
	BYTE	W12
	BYTE		        As0 
	BYTE		N11     As1 
	BYTE	W12
	BYTE		N23     En0 
	BYTE		N23     En1 
	BYTE	W48
// 016   ----------------------------------------
	BYTE		        Bn1 
	BYTE		N23     En2 
	BYTE	W36
	BYTE		N11     Ds0 
	BYTE		N11     Ds1 
	BYTE	W12
	BYTE		N23     Fn0 
	BYTE		N23     Fn1 
	BYTE	W48
// 017   ----------------------------------------
	BYTE		        Cn2 
	BYTE		N23     Fn2 
	BYTE	W36
	BYTE		N11     En0 
	BYTE		N11     En1 
	BYTE	W12
	BYTE		N23     Fs0 
	BYTE		N23     Fs1 
	BYTE	W48
// 018   ----------------------------------------
	BYTE		        Cs2 
	BYTE		N23     Fs2 
	BYTE	W36
	BYTE		N11     Fn0 
	BYTE		N11     Fn1 
	BYTE	W12
	BYTE		N23     Gn0 
	BYTE		N23     Gn1 
	BYTE	W48
// 019   ----------------------------------------
	BYTE		        Dn2 
	BYTE		N23     Gn2 
	BYTE	W36
	BYTE		N11     Fs0 
	BYTE		N11     Fs1 
	BYTE	W12
	BYTE		        Gs0 
	BYTE		N11     Gs1 
	BYTE	W24
	BYTE		        Ds2 
	BYTE	W12
	BYTE		        Gn0 
	BYTE		N11     Gn1 
	BYTE	W12
// 020   ----------------------------------------
	BYTE		        An0 
	BYTE		N11     An1 
	BYTE	W24
	BYTE		        En2 
	BYTE	W12
	BYTE		        Gs0 
	BYTE		N11     Gs1 
	BYTE	W12
	BYTE		        As0 
	BYTE		N11     As1 
	BYTE	W24
	BYTE		        Fn2 
	BYTE	W12
	BYTE		        An0 
	BYTE		N11     An1 
	BYTE	W12
// 021   ----------------------------------------
	BYTE		        Bn0 
	BYTE		N11     Bn1 
	BYTE	W24
	BYTE		        Fs2 
	BYTE	W12
	BYTE		        As0 
	BYTE		N11     As1 
	BYTE	W12
	BYTE		        Cn1 
	BYTE		N11     Cn2 
	BYTE	W12
	BYTE		        Bn0 
	BYTE		N11     Bn1 
	BYTE	W12
	BYTE		        Cs1 
	BYTE		N11     Cs2 
	BYTE	W12
	BYTE		        Cn1 
	BYTE		N11     Cn2 
	BYTE	W12
// 022   ----------------------------------------
	BYTE		        Dn1 
	BYTE		N11     Dn2 
	BYTE	W12
	BYTE		        Cs1 
	BYTE		N11     Cs2 
	BYTE	W12
	BYTE		        Ds1 
	BYTE		N11     Ds2 
	BYTE	W12
	BYTE		        Dn1 
	BYTE		N11     Dn2 
	BYTE	W12
	BYTE		N08     En1 
	BYTE		N08     En2 
	BYTE	W18
	BYTE		N11     En1 
	BYTE		N11     En2 
	BYTE	W18
	BYTE		        En1 
	BYTE		N11     En2 
	BYTE	W12
	BYTE	GoTo
	 POIN2	LoZBreathoftheWildCalamityGanonSme_5_B1
LoZBreathoftheWildCalamityGanonSme_5_B2:
// 023   ----------------------------------------
	BYTE	FINE

//**************** Track 6 (Midi-Chn.6) ****************//

LoZBreathoftheWildCalamityGanonSme_6:
	BYTE	KEYSH   LoZBreathoftheWildCalamityGanonSme_key+0
LoZBreathoftheWildCalamityGanonSme_6_B1:
// 000   ----------------------------------------
	BYTE		VOICE   51
	BYTE		VOL     100*LoZBreathoftheWildCalamityGanonSme_mvl/mxv
	BYTE		PAN     c_v+0
	BYTE		N68     Cs2   v127
	BYTE		N68     Cs3 
	BYTE	W72
	BYTE		N11     Dn2 
	BYTE		N11     Dn3 
	BYTE	W12
	BYTE		        En2 
	BYTE		N11     En3 
	BYTE	W12
// 001   ----------------------------------------
	BYTE		N23     Fn2 
	BYTE		N23     Fn3 
	BYTE	W24
	BYTE		N11     Gn2 
	BYTE		N11     Gn3 
	BYTE	W12
	BYTE		        An2 
	BYTE		N11     An3 
	BYTE	W12
	BYTE		N23     As2 
	BYTE		N23     As3 
	BYTE	W24
	BYTE		N11     Cs3 
	BYTE		N11     Cs4 
	BYTE	W12
	BYTE		        Dn3 
	BYTE		N11     Dn4 
	BYTE	W12
// 002   ----------------------------------------
	BYTE		TIE     En2 
	BYTE		TIE     En3 
	BYTE	W96
// 003   ----------------------------------------
	BYTE	W44
	BYTE	W03
	BYTE		EOT     En2 
	BYTE		        En3 
	BYTE	W01
	BYTE		N68     Cs2 
	BYTE		N68     Cs3 
	BYTE	W48
// 004   ----------------------------------------
	BYTE	W24
	BYTE		N11     Ds2 
	BYTE		N11     Ds3 
	BYTE	W12
	BYTE		        Fn2 
	BYTE		N11     Fn3 
	BYTE	W12
	BYTE		N23     Gn2 
	BYTE		N23     Gn3 
	BYTE	W24
	BYTE		N11     Gs2 
	BYTE		N11     Gs3 
	BYTE	W12
	BYTE		        As2 
	BYTE		N11     As3 
	BYTE	W12
// 005   ----------------------------------------
	BYTE		N23     Cn3 
	BYTE		N23     Cn4 
	BYTE	W24
	BYTE		N11     Cs3 
	BYTE		N11     Cs4 
	BYTE	W12
	BYTE		        Ds3 
	BYTE		N11     Ds4 
	BYTE	W12
	BYTE		N44     Fn3 
	BYTE		N44     Fn4 
	BYTE	W48
// 006   ----------------------------------------
	BYTE		N92     Gn3 
	BYTE		N92     Gn4 
	BYTE	W96
// 007   ----------------------------------------
	BYTE		N44     Gs3 
	BYTE		N44     Gs4 
	BYTE	W48
	BYTE		        An3 
	BYTE		N44     An4 
	BYTE	W48
// 008   ----------------------------------------
	BYTE		N92     An3 
	BYTE		N92     An4 
	BYTE	W96
// 009   ----------------------------------------
	BYTE	W36
	BYTE		N11     As3 
	BYTE		N11     As4 
	BYTE	W12
	BYTE		        An3 
	BYTE		N11     An4 
	BYTE	W48
// 010   ----------------------------------------
	BYTE		N44     An3 
	BYTE		N44     An4 
	BYTE	W96
// 011   ----------------------------------------
	BYTE	W96
// 012   ----------------------------------------
	BYTE	W96
// 013   ----------------------------------------
	BYTE	W48
	BYTE		N11     Fn3   v100
	BYTE	W12
	BYTE		        Gs3 
	BYTE	W12
	BYTE		        Gn3 
	BYTE	W12
	BYTE		        Fs3 
	BYTE	W12
// 014   ----------------------------------------
	BYTE		        Fn3 
	BYTE	W12
	BYTE		        Gs3 
	BYTE	W12
	BYTE		        Gn3 
	BYTE	W12
	BYTE		        Fs3 
	BYTE	W12
	BYTE		N11   
	BYTE	W12
	BYTE		        An3 
	BYTE	W12
	BYTE		        Gs3 
	BYTE	W12
	BYTE		        Gn3 
	BYTE	W12
// 015   ----------------------------------------
	BYTE		        Fs3 
	BYTE	W12
	BYTE		        Gn3 
	BYTE	W12
	BYTE		        An3 
	BYTE	W12
	BYTE		        Bn3 
	BYTE	W12
	BYTE		N80     En3 
	BYTE		N80     En4 
	BYTE	W48
// 016   ----------------------------------------
	BYTE	W36
	BYTE		N11     Ds3 
	BYTE		N11     Ds4 
	BYTE	W12
	BYTE		N80     Fn3 
	BYTE		N80     Fn4 
	BYTE	W48
// 017   ----------------------------------------
	BYTE	W36
	BYTE		N11     En3 
	BYTE		N11     En4 
	BYTE	W12
	BYTE		N80     Fs3 
	BYTE		N80     Fs4 
	BYTE	W48
// 018   ----------------------------------------
	BYTE	W36
	BYTE		N11     Fn3 
	BYTE		N11     Fn4 
	BYTE	W12
	BYTE		N80     Gn3 
	BYTE		N80     Gn4 
	BYTE	W48
// 019   ----------------------------------------
	BYTE	W36
	BYTE		N11     Fs3 
	BYTE		N11     Fs4 
	BYTE	W12
	BYTE		N32     Gs3 
	BYTE		N32     Gs4 
	BYTE	W36
	BYTE		N11     Gn3 
	BYTE		N11     Gn4 
	BYTE	W12
// 020   ----------------------------------------
	BYTE		N32     An3 
	BYTE		N32     An4 
	BYTE	W36
	BYTE		N11     Gs3 
	BYTE		N11     Gs4 
	BYTE	W12
	BYTE		N32     As3 
	BYTE		N32     As4 
	BYTE	W36
	BYTE		N11     An3 
	BYTE		N11     An4 
	BYTE	W12
// 021   ----------------------------------------
	BYTE		N32     Bn3 
	BYTE		N32     Bn4 
	BYTE	W36
	BYTE		N11     As3 
	BYTE		N11     As4 
	BYTE	W12
	BYTE		        Cn4 
	BYTE		N11     Cn5 
	BYTE	W12
	BYTE		        Bn3 
	BYTE		N11     Bn4 
	BYTE	W12
	BYTE		        Cs4 
	BYTE		N11     Cs5 
	BYTE	W12
	BYTE		        Cn4 
	BYTE		N11     Cn5 
	BYTE	W12
// 022   ----------------------------------------
	BYTE		        Dn4 
	BYTE		N11     Dn5 
	BYTE	W12
	BYTE		        Cs4 
	BYTE		N11     Cs5 
	BYTE	W12
	BYTE		        Ds4 
	BYTE		N11     Ds5 
	BYTE	W12
	BYTE		        Dn4 
	BYTE		N11     Dn5 
	BYTE	W12
	BYTE		N08     En4 
	BYTE		N08     En5 
	BYTE	W18
	BYTE		N11     En4 
	BYTE		N11     En5 
	BYTE	W18
	BYTE		        En4 
	BYTE		N11     En5 
	BYTE	W12
	BYTE	GoTo
	 POIN2	LoZBreathoftheWildCalamityGanonSme_6_B1
LoZBreathoftheWildCalamityGanonSme_6_B2:
// 023   ----------------------------------------
	BYTE	FINE

//**************** Track 7 (Midi-Chn.7) ****************//

LoZBreathoftheWildCalamityGanonSme_7:
	BYTE	KEYSH   LoZBreathoftheWildCalamityGanonSme_key+0
LoZBreathoftheWildCalamityGanonSme_7_B1:
// 000   ----------------------------------------
	BYTE		VOICE   40
	BYTE		VOL     100*LoZBreathoftheWildCalamityGanonSme_mvl/mxv
	BYTE		PAN     c_v+0
	BYTE		N68     Cs2   v127
	BYTE		N68     Cs3 
	BYTE	W72
	BYTE		N11     Dn2 
	BYTE		N11     Dn3 
	BYTE	W12
	BYTE		        En2 
	BYTE		N11     En3 
	BYTE	W12
// 001   ----------------------------------------
	BYTE		N23     Fn2 
	BYTE		N23     Fn3 
	BYTE	W24
	BYTE		N11     Gn2 
	BYTE		N11     Gn3 
	BYTE	W12
	BYTE		        An2 
	BYTE		N11     An3 
	BYTE	W12
	BYTE		N23     As2 
	BYTE		N23     As3 
	BYTE	W24
	BYTE		N11     Cs3 
	BYTE		N11     Cs4 
	BYTE	W12
	BYTE		        Dn3 
	BYTE		N11     Dn4 
	BYTE	W12
// 002   ----------------------------------------
	BYTE		TIE     En2 
	BYTE		TIE     En3 
	BYTE	W96
// 003   ----------------------------------------
	BYTE	W44
	BYTE	W03
	BYTE		EOT     En2 
	BYTE		        En3 
	BYTE	W01
	BYTE		N68     Cs2 
	BYTE		N68     Cs3 
	BYTE	W48
// 004   ----------------------------------------
	BYTE	W24
	BYTE		N11     Ds2 
	BYTE		N11     Ds3 
	BYTE	W12
	BYTE		        Fn2 
	BYTE		N11     Fn3 
	BYTE	W12
	BYTE		N23     Gn2 
	BYTE		N23     Gn3 
	BYTE	W24
	BYTE		N11     Gs2 
	BYTE		N11     Gs3 
	BYTE	W12
	BYTE		        As2 
	BYTE		N11     As3 
	BYTE	W12
// 005   ----------------------------------------
	BYTE		N23     Cn3 
	BYTE		N23     Cn4 
	BYTE	W24
	BYTE		N11     Cs3 
	BYTE		N11     Cs4 
	BYTE	W12
	BYTE		        Ds3 
	BYTE		N11     Ds4 
	BYTE	W12
	BYTE		N44     Fn3 
	BYTE		N44     Fn4 
	BYTE	W48
// 006   ----------------------------------------
	BYTE		N92     Gn3 
	BYTE		N92     Gn4 
	BYTE	W96
// 007   ----------------------------------------
	BYTE		N44     Gs3 
	BYTE		N44     Gs4 
	BYTE	W48
	BYTE		        An3 
	BYTE		N44     An4 
	BYTE	W48
// 008   ----------------------------------------
	BYTE		N92     An3 
	BYTE		N92     An4 
	BYTE	W96
// 009   ----------------------------------------
	BYTE	W36
	BYTE		N11     As3 
	BYTE		N11     As4 
	BYTE	W12
	BYTE		        An3 
	BYTE		N11     An4 
	BYTE	W48
// 010   ----------------------------------------
	BYTE		N44     An3 
	BYTE		N44     An4 
	BYTE	W96
// 011   ----------------------------------------
	BYTE	W96
// 012   ----------------------------------------
	BYTE	W48
	BYTE		N11     Cs3   v100
	BYTE	W12
	BYTE		        En3 
	BYTE	W12
	BYTE		        Ds3 
	BYTE	W12
	BYTE		        Dn3 
	BYTE	W12
// 013   ----------------------------------------
LoZBreathoftheWildCalamityGanonSme_7_013:
	BYTE		N11     Cs3   v100
	BYTE	W12
	BYTE		        En3 
	BYTE	W12
	BYTE		        Ds3 
	BYTE	W12
	BYTE		        Dn3 
	BYTE	W12
	BYTE		        Cs3 
	BYTE	W12
	BYTE		        En3 
	BYTE	W12
	BYTE		        Ds3 
	BYTE	W12
	BYTE		        Dn3 
	BYTE	W12
	BYTE	PEND
// 014   ----------------------------------------
	BYTE	PATT
	 POIN2	LoZBreathoftheWildCalamityGanonSme_7_013
// 015   ----------------------------------------
	BYTE		N11     Cs3   v100
	BYTE	W12
	BYTE		        Dn3 
	BYTE	W12
	BYTE		        En3 
	BYTE	W12
	BYTE		        Fn3 
	BYTE	W12
	BYTE		N80     En3 
	BYTE		N80     En4 
	BYTE	W48
// 016   ----------------------------------------
	BYTE	W36
	BYTE		N11     Ds3 
	BYTE		N11     Ds4 
	BYTE	W12
	BYTE		N80     Fn3 
	BYTE		N80     Fn4 
	BYTE	W48
// 017   ----------------------------------------
	BYTE	W36
	BYTE		N11     En3 
	BYTE		N11     En4 
	BYTE	W12
	BYTE		N80     Fs3 
	BYTE		N80     Fs4 
	BYTE	W48
// 018   ----------------------------------------
	BYTE	W36
	BYTE		N11     Fn3 
	BYTE		N11     Fn4 
	BYTE	W12
	BYTE		N80     Gn3 
	BYTE		N80     Gn4 
	BYTE	W48
// 019   ----------------------------------------
	BYTE	W36
	BYTE		N11     Fs3 
	BYTE		N11     Fs4 
	BYTE	W12
	BYTE		N32     Gs3 
	BYTE		N32     Gs4 
	BYTE	W36
	BYTE		N11     Gn3 
	BYTE		N11     Gn4 
	BYTE	W12
// 020   ----------------------------------------
	BYTE		N32     An3 
	BYTE		N32     An4 
	BYTE	W36
	BYTE		N11     Gs3 
	BYTE		N11     Gs4 
	BYTE	W12
	BYTE		N32     As3 
	BYTE		N32     As4 
	BYTE	W36
	BYTE		N11     An3 
	BYTE		N11     An4 
	BYTE	W12
// 021   ----------------------------------------
	BYTE		N32     Bn3 
	BYTE		N32     Bn4 
	BYTE	W36
	BYTE		N11     As3 
	BYTE		N11     As4 
	BYTE	W12
	BYTE		        Cn4 
	BYTE		N11     Cn5 
	BYTE	W12
	BYTE		        Bn3 
	BYTE		N11     Bn4 
	BYTE	W12
	BYTE		        Cs4 
	BYTE		N11     Cs5 
	BYTE	W12
	BYTE		        Cn4 
	BYTE		N11     Cn5 
	BYTE	W12
// 022   ----------------------------------------
	BYTE		        Dn4 
	BYTE		N11     Dn5 
	BYTE	W12
	BYTE		        Cs4 
	BYTE		N11     Cs5 
	BYTE	W12
	BYTE		        Ds4 
	BYTE		N11     Ds5 
	BYTE	W12
	BYTE		        Dn4 
	BYTE		N11     Dn5 
	BYTE	W12
	BYTE		N08     En4 
	BYTE		N08     En5 
	BYTE	W18
	BYTE		N11     En4 
	BYTE		N11     En5 
	BYTE	W18
	BYTE		        En4 
	BYTE		N11     En5 
	BYTE	W12
	BYTE	GoTo
	 POIN2	LoZBreathoftheWildCalamityGanonSme_7_B1
LoZBreathoftheWildCalamityGanonSme_7_B2:
// 023   ----------------------------------------
	BYTE	FINE

//**************** Track 8 (Midi-Chn.8) ****************//

LoZBreathoftheWildCalamityGanonSme_8:
	BYTE	KEYSH   LoZBreathoftheWildCalamityGanonSme_key+0
LoZBreathoftheWildCalamityGanonSme_8_B1:
// 000   ----------------------------------------
	BYTE		VOICE   127
	BYTE		VOL     100*LoZBreathoftheWildCalamityGanonSme_mvl/mxv
	BYTE		PAN     c_v+0
	BYTE		N23     Cs2   v080
	BYTE	W96
// 001   ----------------------------------------
	BYTE	W96
// 002   ----------------------------------------
	BYTE	W96
// 003   ----------------------------------------
	BYTE	W48
	BYTE		N23   
	BYTE	W48
// 004   ----------------------------------------
	BYTE	W96
// 005   ----------------------------------------
	BYTE	W96
// 006   ----------------------------------------
	BYTE	W96
// 007   ----------------------------------------
	BYTE	W96
// 008   ----------------------------------------
	BYTE		N44   
	BYTE	W96
// 009   ----------------------------------------
	BYTE	W96
// 010   ----------------------------------------
	BYTE		N44   
	BYTE	W96
// 011   ----------------------------------------
	BYTE	W96
// 012   ----------------------------------------
	BYTE	W96
// 013   ----------------------------------------
	BYTE	W48
	BYTE		N23   
	BYTE	W48
// 014   ----------------------------------------
	BYTE	W48
	BYTE		N23   
	BYTE	W48
// 015   ----------------------------------------
	BYTE		N23   
	BYTE	W48
	BYTE		N23   
	BYTE	W48
// 016   ----------------------------------------
	BYTE	W96
// 017   ----------------------------------------
	BYTE	W96
// 018   ----------------------------------------
	BYTE	W96
// 019   ----------------------------------------
	BYTE	W96
// 020   ----------------------------------------
	BYTE	W96
// 021   ----------------------------------------
	BYTE	W96
// 022   ----------------------------------------
	BYTE	W96
	BYTE	GoTo
	 POIN2	LoZBreathoftheWildCalamityGanonSme_8_B1
LoZBreathoftheWildCalamityGanonSme_8_B2:
// 023   ----------------------------------------
	BYTE	FINE

//******************************************************//
	ALIGN 4

LoZBreathoftheWildCalamityGanonSme:
	BYTE	8	// NumTrks
	BYTE	0	// NumBlks
	BYTE	LoZBreathoftheWildCalamityGanonSme_pri	// Priority
	BYTE	LoZBreathoftheWildCalamityGanonSme_rev	// Reverb.

	POIN2	LoZBreathoftheWildCalamityGanonSme_grp

	POIN2	LoZBreathoftheWildCalamityGanonSme_1
	POIN2	LoZBreathoftheWildCalamityGanonSme_2
	POIN2	LoZBreathoftheWildCalamityGanonSme_3
	POIN2	LoZBreathoftheWildCalamityGanonSme_4
	POIN2	LoZBreathoftheWildCalamityGanonSme_5
	POIN2	LoZBreathoftheWildCalamityGanonSme_6
	POIN2	LoZBreathoftheWildCalamityGanonSme_7
	POIN2	LoZBreathoftheWildCalamityGanonSme_8

	
