//Event file generated from Sappy .s format.
	#include "MPlayDef.event"

	#define	LoZMajorasMaskMayorsThemePandan_grp  voicegroup000
	#define	LoZMajorasMaskMayorsThemePandan_pri  0
	#define	LoZMajorasMaskMayorsThemePandan_rev  0
	#define	LoZMajorasMaskMayorsThemePandan_mvl  127
	#define	LoZMajorasMaskMayorsThemePandan_key  0
	#define	LoZMajorasMaskMayorsThemePandan_tbs  1
	#define	LoZMajorasMaskMayorsThemePandan_exg  0
	#define	LoZMajorasMaskMayorsThemePandan_cmp  1

	// .rodata
	//	LoZMajorasMaskMayorsThemePandan
	ALIGN 4


//**************** Track 1 (Midi-Chn.0) ****************//

LoZMajorasMaskMayorsThemePandan_001:
// 000   ----------------------------------------
 BYTE   KEYSH   LoZMajorasMaskMayorsThemePandan_key+0
Label_0_017DB4BA:
 BYTE   TEMPO   120*LoZMajorasMaskMayorsThemePandan_tbs/2
 BYTE   VOICE   50
 BYTE   VOL   70*LoZMajorasMaskMayorsThemePandan_mvl/mxv
 BYTE   PAN   c_v+0
 BYTE   N10  Cn3  v100
 BYTE   W12
 BYTE   N03  Ds3
 BYTE   W12
 BYTE   N03
 BYTE   W12
 BYTE   N03
 BYTE   W12
 BYTE   N10  Dn3
 BYTE   W12
 BYTE   N03  Gn3
 BYTE   W12
 BYTE   N03
 BYTE   W12
 BYTE   Bn2
 BYTE   N03  Gn3
 BYTE   W12
// 001   ----------------------------------------
Label_0_017DB4D9:
 BYTE   N10  Cn3  v100
 BYTE   W12
 BYTE   N03  Ds3
 BYTE   W12
 BYTE   N03
 BYTE   W12
 BYTE   N03
 BYTE   W12
 BYTE   N10  Dn3
 BYTE   W12
 BYTE   N03  Gn2
 BYTE   W12
 BYTE   N20
 BYTE   W24
 BYTE   PEND 
// 002   ----------------------------------------
 BYTE   N02  Cn3
 BYTE   W12
 BYTE   N03  Ds3
 BYTE   W12
 BYTE   N03
 BYTE   W12
 BYTE   N03
 BYTE   W12
 BYTE   N01  Dn3
 BYTE   W12
 BYTE   N03  Gn3
 BYTE   W12
 BYTE   N03
 BYTE   W12
 BYTE   N03
 BYTE   W12
// 003   ----------------------------------------
Label_0_017DB501:
 BYTE   N10  Ds3  v100
 BYTE   W12
 BYTE   N03  Cn3
 BYTE   W12
 BYTE   N10  Dn3
 BYTE   W12
 BYTE   N03  Bn2
 BYTE   W12
 BYTE   N36  Cn3
 BYTE   W48
 BYTE   PEND 
// 004   ----------------------------------------
Label_0_017DB512:
 BYTE   VOL   46*LoZMajorasMaskMayorsThemePandan_mvl/mxv
 BYTE   N10  Cn3  v100
 BYTE   W12
 BYTE   N03  Ds3
 BYTE   W12
 BYTE   N03
 BYTE   W12
 BYTE   N03
 BYTE   W12
 BYTE   N10  Dn3
 BYTE   W12
 BYTE   N03  Gn3
 BYTE   W12
 BYTE   N03
 BYTE   W12
 BYTE   Bn2
 BYTE   N03  Gn3
 BYTE   W12
 BYTE   PEND 
 BYTE   PATT
  POIN2 Label_0_017DB4D9
// 005   ----------------------------------------
Label_0_017DB531:
 BYTE   N10  Cn3  v100
 BYTE   W12
 BYTE   N03  Ds3
 BYTE   W12
 BYTE   N03
 BYTE   W12
 BYTE   N03
 BYTE   W12
 BYTE   N10  Dn3
 BYTE   W12
 BYTE   N03  Gn3
 BYTE   W12
 BYTE   N03
 BYTE   W12
 BYTE   N03
 BYTE   W12
 BYTE   PEND 
 BYTE   PATT
  POIN2 Label_0_017DB501
// 006   ----------------------------------------
Label_0_017DB54C:
 BYTE   VOL   70*LoZMajorasMaskMayorsThemePandan_mvl/mxv
 BYTE   N48  Gs3  v088
 BYTE   W48
 BYTE   As3  v092
 BYTE   W48
 BYTE   PEND 
// 007   ----------------------------------------
Label_0_017DB556:
 BYTE   N48  Cn4  v096
 BYTE   W48
 BYTE   Dn4  v080
 BYTE   W48
 BYTE   PEND 
// 008   ----------------------------------------
Label_0_017DB55E:
 BYTE   N48  Gn3  v080
 BYTE   W48
 BYTE   An3  v088
 BYTE   W48
 BYTE   PEND 
// 009   ----------------------------------------
Label_0_017DB566:
 BYTE   N48  As3  v092
 BYTE   W48
 BYTE   Bn3  v080
 BYTE   W48
 BYTE   PEND 
// 010   ----------------------------------------
Label_0_017DB56E:
 BYTE   N48  Gs3  v088
 BYTE   W48
 BYTE   As3  v092
 BYTE   W48
 BYTE   PEND 
 BYTE   PATT
  POIN2 Label_0_017DB556
 BYTE   PATT
  POIN2 Label_0_017DB55E
 BYTE   PATT
  POIN2 Label_0_017DB566
 BYTE   PATT
  POIN2 Label_0_017DB56E
// 011   ----------------------------------------
Label_0_017DB58A:
 BYTE   N48  Cn4  v088
 BYTE   W48
 BYTE   Dn4  v080
 BYTE   W48
 BYTE   PEND 
// 012   ----------------------------------------
 BYTE   N96  Cn4  v096
 BYTE   W96
// 013   ----------------------------------------
 BYTE   N92  Bn3  v088
 BYTE   W96
// 014   ----------------------------------------
 BYTE   N10  Cn3  v100
 BYTE   W12
 BYTE   N03  Ds3
 BYTE   W12
 BYTE   N03
 BYTE   W12
 BYTE   N03
 BYTE   W12
 BYTE   N10  Dn3
 BYTE   W12
 BYTE   N03  Gn3
 BYTE   W12
 BYTE   N03
 BYTE   W12
 BYTE   Bn2
 BYTE   N03  Gn3
 BYTE   W12
 BYTE   PATT
  POIN2 Label_0_017DB4D9
 BYTE   PATT
  POIN2 Label_0_017DB531
 BYTE   PATT
  POIN2 Label_0_017DB501
 BYTE   PATT
  POIN2 Label_0_017DB512
 BYTE   PATT
  POIN2 Label_0_017DB4D9
 BYTE   PATT
  POIN2 Label_0_017DB531
 BYTE   PATT
  POIN2 Label_0_017DB501
 BYTE   PATT
  POIN2 Label_0_017DB54C
 BYTE   PATT
  POIN2 Label_0_017DB556
 BYTE   PATT
  POIN2 Label_0_017DB55E
 BYTE   PATT
  POIN2 Label_0_017DB566
 BYTE   PATT
  POIN2 Label_0_017DB56E
 BYTE   PATT
  POIN2 Label_0_017DB556
 BYTE   PATT
  POIN2 Label_0_017DB55E
 BYTE   PATT
  POIN2 Label_0_017DB566
 BYTE   PATT
  POIN2 Label_0_017DB56E
 BYTE   PATT
  POIN2 Label_0_017DB58A
// 015   ----------------------------------------
 BYTE   N96  Cn4  v096
 BYTE   W96
// 016   ----------------------------------------
 BYTE   N92  Bn3  v088
 BYTE   W92
 BYTE   W01
 BYTE   GoTo
  POIN2 Label_0_017DB4BA
 BYTE   FINE

//**************** Track 2 (Midi-Chn.1) ****************//

LoZMajorasMaskMayorsThemePandan_002:
// 000   ----------------------------------------
 BYTE   KEYSH   LoZMajorasMaskMayorsThemePandan_key+0
Label_1_017DB61A:
 BYTE   VOICE   50
 BYTE   VOL   65*LoZMajorasMaskMayorsThemePandan_mvl/mxv
 BYTE   PAN   c_v-10
 BYTE   N32  Cn2  v100
 BYTE   W36
 BYTE   N09  Cn2  v108
 BYTE   W12
 BYTE   N32  Bn1  v100
 BYTE   W36
 BYTE   N09  Gn1  v108
 BYTE   W12
// 001   ----------------------------------------
Label_1_017DB630:
 BYTE   N32  Cn2  v100
 BYTE   W36
 BYTE   N09  Cn2  v108
 BYTE   W12
 BYTE   N21  Bn1  v100
 BYTE   W24
 BYTE   N24  Gn1  v108
 BYTE   W24
 BYTE   PEND 
// 002   ----------------------------------------
Label_1_017DB641:
 BYTE   N32  Cn2  v100
 BYTE   W36
 BYTE   N09  Cn2  v108
 BYTE   W12
 BYTE   N32  Bn1  v100
 BYTE   W36
 BYTE   N09  Gn1  v108
 BYTE   W12
 BYTE   PEND 
// 003   ----------------------------------------
Label_1_017DB652:
 BYTE   N16  Cn2  v100
 BYTE   W24
 BYTE   Bn1
 BYTE   W24
 BYTE   N36  Cn2
 BYTE   W48
 BYTE   PEND 
 BYTE   PATT
  POIN2 Label_1_017DB641
 BYTE   PATT
  POIN2 Label_1_017DB630
 BYTE   PATT
  POIN2 Label_1_017DB641
 BYTE   PATT
  POIN2 Label_1_017DB652
// 004   ----------------------------------------
Label_1_017DB670:
 BYTE   N48  Cn3  v092
 BYTE   W48
 BYTE   Dn3  v096
 BYTE   W48
 BYTE   PEND 
// 005   ----------------------------------------
Label_1_017DB678:
 BYTE   N48  Ds3  v096
 BYTE   W48
 BYTE   Fn3  v088
 BYTE   W48
 BYTE   PEND 
// 006   ----------------------------------------
Label_1_017DB680:
 BYTE   N48  Cn3  v088
 BYTE   W48
 BYTE   Dn3  v096
 BYTE   W48
 BYTE   PEND 
 BYTE   PATT
  POIN2 Label_1_017DB678
 BYTE   PATT
  POIN2 Label_1_017DB670
 BYTE   PATT
  POIN2 Label_1_017DB678
 BYTE   PATT
  POIN2 Label_1_017DB680
 BYTE   PATT
  POIN2 Label_1_017DB678
 BYTE   PATT
  POIN2 Label_1_017DB670
 BYTE   PATT
  POIN2 Label_1_017DB678
// 007   ----------------------------------------
 BYTE   N96  Gn3  v092
 BYTE   W96
// 008   ----------------------------------------
 BYTE   N92  Fn3  v080
 BYTE   W96
 BYTE   PATT
  POIN2 Label_1_017DB641
 BYTE   PATT
  POIN2 Label_1_017DB630
 BYTE   PATT
  POIN2 Label_1_017DB641
 BYTE   PATT
  POIN2 Label_1_017DB652
 BYTE   PATT
  POIN2 Label_1_017DB641
 BYTE   PATT
  POIN2 Label_1_017DB630
 BYTE   PATT
  POIN2 Label_1_017DB641
 BYTE   PATT
  POIN2 Label_1_017DB652
 BYTE   PATT
  POIN2 Label_1_017DB670
 BYTE   PATT
  POIN2 Label_1_017DB678
 BYTE   PATT
  POIN2 Label_1_017DB680
 BYTE   PATT
  POIN2 Label_1_017DB678
 BYTE   PATT
  POIN2 Label_1_017DB670
 BYTE   PATT
  POIN2 Label_1_017DB678
 BYTE   PATT
  POIN2 Label_1_017DB680
 BYTE   PATT
  POIN2 Label_1_017DB678
 BYTE   PATT
  POIN2 Label_1_017DB670
 BYTE   PATT
  POIN2 Label_1_017DB678
// 009   ----------------------------------------
 BYTE   N96  Gn3  v092
 BYTE   W96
// 010   ----------------------------------------
 BYTE   N92  Fn3  v080
 BYTE   W92
 BYTE   W01
 BYTE   GoTo
  POIN2 Label_1_017DB61A
 BYTE   FINE

//**************** Track 3 (Midi-Chn.2) ****************//

LoZMajorasMaskMayorsThemePandan_003:
// 000   ----------------------------------------
 BYTE   KEYSH   LoZMajorasMaskMayorsThemePandan_key+0
Label_2_017DB71E:
 BYTE   VOICE   40
 BYTE   VOL   49*LoZMajorasMaskMayorsThemePandan_mvl/mxv
 BYTE   PAN   c_v+10
 BYTE   N32  Cn2  v100
 BYTE   W36
 BYTE   N09  Cn2  v108
 BYTE   W12
 BYTE   N32  Bn1  v100
 BYTE   W36
 BYTE   N09  Gn1  v108
 BYTE   W12
// 001   ----------------------------------------
Label_2_017DB734:
 BYTE   N32  Cn2  v100
 BYTE   W36
 BYTE   N09  Cn2  v108
 BYTE   W12
 BYTE   N21  Bn1  v100
 BYTE   W24
 BYTE   N24  Gn1  v108
 BYTE   W24
 BYTE   PEND 
// 002   ----------------------------------------
Label_2_017DB745:
 BYTE   N32  Cn2  v100
 BYTE   W36
 BYTE   N09  Cn2  v108
 BYTE   W12
 BYTE   N32  Bn1  v100
 BYTE   W36
 BYTE   N09  Gn1  v108
 BYTE   W12
 BYTE   PEND 
// 003   ----------------------------------------
Label_2_017DB756:
 BYTE   N16  Cn2  v100
 BYTE   W24
 BYTE   Bn1
 BYTE   W24
 BYTE   N36  Cn2
 BYTE   W48
 BYTE   PEND 
 BYTE   PATT
  POIN2 Label_2_017DB745
 BYTE   PATT
  POIN2 Label_2_017DB734
 BYTE   PATT
  POIN2 Label_2_017DB745
 BYTE   PATT
  POIN2 Label_2_017DB756
// 004   ----------------------------------------
 BYTE   W96
// 005   ----------------------------------------
 BYTE   W96
// 006   ----------------------------------------
 BYTE   W96
// 007   ----------------------------------------
 BYTE   W96
// 008   ----------------------------------------
 BYTE   W96
// 009   ----------------------------------------
 BYTE   W96
// 010   ----------------------------------------
 BYTE   W96
// 011   ----------------------------------------
 BYTE   W96
// 012   ----------------------------------------
 BYTE   W96
// 013   ----------------------------------------
 BYTE   W96
// 014   ----------------------------------------
 BYTE   W96
// 015   ----------------------------------------
 BYTE   W96
 BYTE   PATT
  POIN2 Label_2_017DB745
 BYTE   PATT
  POIN2 Label_2_017DB734
 BYTE   PATT
  POIN2 Label_2_017DB745
 BYTE   PATT
  POIN2 Label_2_017DB756
 BYTE   PATT
  POIN2 Label_2_017DB745
 BYTE   PATT
  POIN2 Label_2_017DB734
 BYTE   PATT
  POIN2 Label_2_017DB745
 BYTE   PATT
  POIN2 Label_2_017DB756
// 016   ----------------------------------------
 BYTE   W96
// 017   ----------------------------------------
 BYTE   W96
// 018   ----------------------------------------
 BYTE   W96
// 019   ----------------------------------------
 BYTE   W96
// 020   ----------------------------------------
 BYTE   W96
// 021   ----------------------------------------
 BYTE   W96
// 022   ----------------------------------------
 BYTE   W96
// 023   ----------------------------------------
 BYTE   W96
// 024   ----------------------------------------
 BYTE   W96
// 025   ----------------------------------------
 BYTE   W96
// 026   ----------------------------------------
 BYTE   W96
// 027   ----------------------------------------
 BYTE   W92
 BYTE   W01
 BYTE   GoTo
  POIN2 Label_2_017DB71E
 BYTE   FINE

//**************** Track 4 (Midi-Chn.3) ****************//

LoZMajorasMaskMayorsThemePandan_004:
// 000   ----------------------------------------
 BYTE   KEYSH   LoZMajorasMaskMayorsThemePandan_key+0
Label_3_017DB7BE:
 BYTE   VOICE   50
 BYTE   VOL   65*LoZMajorasMaskMayorsThemePandan_mvl/mxv
 BYTE   PAN   c_v+10
 BYTE   N36  Ds2  v100
 BYTE   W48
 BYTE   Fn2
 BYTE   W48
// 001   ----------------------------------------
Label_3_017DB7CA:
 BYTE   N36  Ds2  v100
 BYTE   W48
 BYTE   Fn2
 BYTE   W48
 BYTE   PEND 
 BYTE   PATT
  POIN2 Label_3_017DB7CA
// 002   ----------------------------------------
Label_3_017DB7D6:
 BYTE   N12  Gn2  v100
 BYTE   W24
 BYTE   Fn2
 BYTE   W24
 BYTE   N24  Gn2
 BYTE   W48
 BYTE   PEND 
 BYTE   PATT
  POIN2 Label_3_017DB7CA
 BYTE   PATT
  POIN2 Label_3_017DB7CA
 BYTE   PATT
  POIN2 Label_3_017DB7CA
 BYTE   PATT
  POIN2 Label_3_017DB7D6
// 003   ----------------------------------------
Label_3_017DB7F4:
 BYTE   N06  Fn1  v112
 BYTE   W12
 BYTE   Fn1  v096
 BYTE   W12
 BYTE   N06
 BYTE   W12
 BYTE   N06
 BYTE   W12
 BYTE   Fn1  v112
 BYTE   W12
 BYTE   Fn1  v100
 BYTE   W12
 BYTE   N06
 BYTE   W12
 BYTE   N06
 BYTE   W12
 BYTE   PEND 
// 004   ----------------------------------------
Label_3_017DB80A:
 BYTE   N06  Fn1  v112
 BYTE   W12
 BYTE   Fn1  v108
 BYTE   W12
 BYTE   N06
 BYTE   W12
 BYTE   N06
 BYTE   W12
 BYTE   Fn1  v112
 BYTE   W12
 BYTE   Fn1  v108
 BYTE   W12
 BYTE   N06
 BYTE   W12
 BYTE   N06
 BYTE   W12
 BYTE   PEND 
// 005   ----------------------------------------
Label_3_017DB820:
 BYTE   N06  Cn1  v112
 BYTE   W12
 BYTE   Cn1  v096
 BYTE   W12
 BYTE   N06
 BYTE   W12
 BYTE   N06
 BYTE   W12
 BYTE   Cn1  v112
 BYTE   W12
 BYTE   Cn1  v100
 BYTE   W12
 BYTE   N06
 BYTE   W12
 BYTE   N06
 BYTE   W12
 BYTE   PEND 
// 006   ----------------------------------------
Label_3_017DB836:
 BYTE   N06  Cn1  v112
 BYTE   W12
 BYTE   Cn1  v108
 BYTE   W12
 BYTE   N06
 BYTE   W12
 BYTE   N06
 BYTE   W12
 BYTE   Cn1  v112
 BYTE   W12
 BYTE   Cn1  v108
 BYTE   W12
 BYTE   N06
 BYTE   W12
 BYTE   N06
 BYTE   W12
 BYTE   PEND 
 BYTE   PATT
  POIN2 Label_3_017DB7F4
 BYTE   PATT
  POIN2 Label_3_017DB80A
 BYTE   PATT
  POIN2 Label_3_017DB820
 BYTE   PATT
  POIN2 Label_3_017DB836
 BYTE   PATT
  POIN2 Label_3_017DB7F4
 BYTE   PATT
  POIN2 Label_3_017DB80A
// 007   ----------------------------------------
Label_3_017DB86A:
 BYTE   N06  Gn1  v112
 BYTE   W12
 BYTE   Gn1  v096
 BYTE   W12
 BYTE   N06
 BYTE   W12
 BYTE   N06
 BYTE   W12
 BYTE   Gn1  v112
 BYTE   W12
 BYTE   Gn1  v100
 BYTE   W12
 BYTE   N06
 BYTE   W12
 BYTE   N06
 BYTE   W12
 BYTE   PEND 
// 008   ----------------------------------------
 BYTE   Gn1  v112
 BYTE   W12
 BYTE   Gn1  v108
 BYTE   W12
 BYTE   N06
 BYTE   W12
 BYTE   N06
 BYTE   W12
 BYTE   Gn1  v112
 BYTE   W12
 BYTE   N08  Dn1
 BYTE   W12
 BYTE   N15  Gn0
 BYTE   W24
 BYTE   PATT
  POIN2 Label_3_017DB7CA
 BYTE   PATT
  POIN2 Label_3_017DB7CA
 BYTE   PATT
  POIN2 Label_3_017DB7CA
 BYTE   PATT
  POIN2 Label_3_017DB7D6
 BYTE   PATT
  POIN2 Label_3_017DB7CA
 BYTE   PATT
  POIN2 Label_3_017DB7CA
 BYTE   PATT
  POIN2 Label_3_017DB7CA
 BYTE   PATT
  POIN2 Label_3_017DB7D6
 BYTE   PATT
  POIN2 Label_3_017DB7F4
 BYTE   PATT
  POIN2 Label_3_017DB80A
 BYTE   PATT
  POIN2 Label_3_017DB820
 BYTE   PATT
  POIN2 Label_3_017DB836
 BYTE   PATT
  POIN2 Label_3_017DB7F4
 BYTE   PATT
  POIN2 Label_3_017DB80A
 BYTE   PATT
  POIN2 Label_3_017DB820
 BYTE   PATT
  POIN2 Label_3_017DB836
 BYTE   PATT
  POIN2 Label_3_017DB7F4
 BYTE   PATT
  POIN2 Label_3_017DB80A
 BYTE   PATT
  POIN2 Label_3_017DB86A
// 009   ----------------------------------------
 BYTE   N06  Gn1  v112
 BYTE   W12
 BYTE   Gn1  v108
 BYTE   W12
 BYTE   N06
 BYTE   W12
 BYTE   N06
 BYTE   W12
 BYTE   Gn1  v112
 BYTE   W12
 BYTE   N08  Dn1
 BYTE   W12
 BYTE   N15  Gn0
 BYTE   W21
 BYTE   GoTo
  POIN2 Label_3_017DB7BE
 BYTE   FINE

//**************** Track 5 (Midi-Chn.4) ****************//

LoZMajorasMaskMayorsThemePandan_005:
// 000   ----------------------------------------
 BYTE   KEYSH   LoZMajorasMaskMayorsThemePandan_key+0
Label_4_017DB90E:
 BYTE   VOICE   40
 BYTE   VOL   15*LoZMajorasMaskMayorsThemePandan_mvl/mxv
 BYTE   PAN   c_v-10
 BYTE   N36  Ds2  v100
 BYTE   W48
 BYTE   Fn2
 BYTE   W48
// 001   ----------------------------------------
Label_4_017DB91A:
 BYTE   N36  Ds2  v100
 BYTE   W48
 BYTE   Fn2
 BYTE   W48
 BYTE   PEND 
 BYTE   PATT
  POIN2 Label_4_017DB91A
// 002   ----------------------------------------
Label_4_017DB926:
 BYTE   N12  Gn2  v100
 BYTE   W24
 BYTE   Fn2
 BYTE   W24
 BYTE   N24  Gn2
 BYTE   W48
 BYTE   PEND 
 BYTE   PATT
  POIN2 Label_4_017DB91A
 BYTE   PATT
  POIN2 Label_4_017DB91A
 BYTE   PATT
  POIN2 Label_4_017DB91A
 BYTE   PATT
  POIN2 Label_4_017DB926
// 003   ----------------------------------------
 BYTE   W96
// 004   ----------------------------------------
 BYTE   W96
// 005   ----------------------------------------
 BYTE   W96
// 006   ----------------------------------------
 BYTE   W96
// 007   ----------------------------------------
 BYTE   W96
// 008   ----------------------------------------
 BYTE   W96
// 009   ----------------------------------------
 BYTE   W96
// 010   ----------------------------------------
 BYTE   W96
// 011   ----------------------------------------
 BYTE   W96
// 012   ----------------------------------------
 BYTE   W96
// 013   ----------------------------------------
 BYTE   W96
// 014   ----------------------------------------
 BYTE   W96
 BYTE   PATT
  POIN2 Label_4_017DB91A
 BYTE   PATT
  POIN2 Label_4_017DB91A
 BYTE   PATT
  POIN2 Label_4_017DB91A
 BYTE   PATT
  POIN2 Label_4_017DB926
 BYTE   PATT
  POIN2 Label_4_017DB91A
 BYTE   PATT
  POIN2 Label_4_017DB91A
 BYTE   PATT
  POIN2 Label_4_017DB91A
 BYTE   PATT
  POIN2 Label_4_017DB926
// 015   ----------------------------------------
 BYTE   W96
// 016   ----------------------------------------
 BYTE   W96
// 017   ----------------------------------------
 BYTE   W96
// 018   ----------------------------------------
 BYTE   W96
// 019   ----------------------------------------
 BYTE   W96
// 020   ----------------------------------------
 BYTE   W96
// 021   ----------------------------------------
 BYTE   W96
// 022   ----------------------------------------
 BYTE   W96
// 023   ----------------------------------------
 BYTE   W96
// 024   ----------------------------------------
 BYTE   W96
// 025   ----------------------------------------
 BYTE   W96
// 026   ----------------------------------------
 BYTE   W92
 BYTE   W01
 BYTE   GoTo
  POIN2 Label_4_017DB90E
 BYTE   FINE

//**************** Track 6 (Midi-Chn.5) ****************//

LoZMajorasMaskMayorsThemePandan_006:
// 000   ----------------------------------------
 BYTE   KEYSH   LoZMajorasMaskMayorsThemePandan_key+0
Label_5_017DB98E:
 BYTE   VOICE   50
 BYTE   VOL   65*LoZMajorasMaskMayorsThemePandan_mvl/mxv
 BYTE   PAN   c_v+0
 BYTE   W12
 BYTE   N04  Gn2  v100
 BYTE   W12
 BYTE   N04
 BYTE   W12
 BYTE   N04
 BYTE   W24
 BYTE   N04
 BYTE   W12
 BYTE   N04
 BYTE   W12
 BYTE   N04
 BYTE   W12
// 001   ----------------------------------------
Label_5_017DB9A3:
 BYTE   W12
 BYTE   N04  Gn2  v100
 BYTE   W12
 BYTE   N04
 BYTE   W12
 BYTE   N04
 BYTE   W24
 BYTE   N04
 BYTE   W12
 BYTE   N16
 BYTE   W24
 BYTE   PEND 
// 002   ----------------------------------------
Label_5_017DB9B1:
 BYTE   W12
 BYTE   N04  Gn2  v100
 BYTE   W12
 BYTE   N04
 BYTE   W12
 BYTE   N04
 BYTE   W24
 BYTE   Bn2
 BYTE   W12
 BYTE   N04
 BYTE   W12
 BYTE   N04
 BYTE   W12
 BYTE   PEND 
// 003   ----------------------------------------
Label_5_017DB9C1:
 BYTE   N16  Gn2  v080
 BYTE   W24
 BYTE   Fn2
 BYTE   W24
 BYTE   N36  Gn2
 BYTE   W48
 BYTE   PEND 
// 004   ----------------------------------------
Label_5_017DB9CB:
 BYTE   W12
 BYTE   N04  Gn2  v100
 BYTE   W12
 BYTE   N04
 BYTE   W12
 BYTE   N04
 BYTE   W24
 BYTE   N04
 BYTE   W12
 BYTE   N04
 BYTE   W12
 BYTE   N04
 BYTE   W12
 BYTE   PEND 
 BYTE   PATT
  POIN2 Label_5_017DB9A3
 BYTE   PATT
  POIN2 Label_5_017DB9B1
 BYTE   PATT
  POIN2 Label_5_017DB9C1
// 005   ----------------------------------------
 BYTE   W96
// 006   ----------------------------------------
 BYTE   W96
// 007   ----------------------------------------
 BYTE   W96
// 008   ----------------------------------------
 BYTE   W96
// 009   ----------------------------------------
 BYTE   W96
// 010   ----------------------------------------
 BYTE   W96
// 011   ----------------------------------------
 BYTE   W96
// 012   ----------------------------------------
 BYTE   W96
// 013   ----------------------------------------
 BYTE   W96
// 014   ----------------------------------------
 BYTE   W96
// 015   ----------------------------------------
 BYTE   W96
// 016   ----------------------------------------
 BYTE   W96
 BYTE   PATT
  POIN2 Label_5_017DB9CB
 BYTE   PATT
  POIN2 Label_5_017DB9A3
 BYTE   PATT
  POIN2 Label_5_017DB9B1
 BYTE   PATT
  POIN2 Label_5_017DB9C1
 BYTE   PATT
  POIN2 Label_5_017DB9CB
 BYTE   PATT
  POIN2 Label_5_017DB9A3
 BYTE   PATT
  POIN2 Label_5_017DB9B1
 BYTE   PATT
  POIN2 Label_5_017DB9C1
// 017   ----------------------------------------
 BYTE   W96
// 018   ----------------------------------------
 BYTE   W96
// 019   ----------------------------------------
 BYTE   W96
// 020   ----------------------------------------
 BYTE   W96
// 021   ----------------------------------------
 BYTE   W96
// 022   ----------------------------------------
 BYTE   W96
// 023   ----------------------------------------
 BYTE   W96
// 024   ----------------------------------------
 BYTE   W96
// 025   ----------------------------------------
 BYTE   W96
// 026   ----------------------------------------
 BYTE   W96
// 027   ----------------------------------------
 BYTE   W96
// 028   ----------------------------------------
 BYTE   W92
 BYTE   W01
 BYTE   GoTo
  POIN2 Label_5_017DB98E
 BYTE   FINE

//**************** Track 7 (Midi-Chn.6) ****************//

LoZMajorasMaskMayorsThemePandan_007:
// 000   ----------------------------------------
 BYTE   KEYSH   LoZMajorasMaskMayorsThemePandan_key+0
Label_6_017DBA36:
 BYTE   VOICE   71
 BYTE   VOL   68*LoZMajorasMaskMayorsThemePandan_mvl/mxv
 BYTE   PAN   c_v-4
 BYTE   W96
// 001   ----------------------------------------
 BYTE   W96
// 002   ----------------------------------------
 BYTE   W96
// 003   ----------------------------------------
 BYTE   W96
// 004   ----------------------------------------
Label_6_017DBA40:
 BYTE   N10  Cn5  v100
 BYTE   W12
 BYTE   N04  Ds5
 BYTE   W12
 BYTE   N04
 BYTE   W12
 BYTE   N04
 BYTE   W12
 BYTE   N10  Dn5
 BYTE   W12
 BYTE   N04  Gn5
 BYTE   W12
 BYTE   N04
 BYTE   W12
 BYTE   N04
 BYTE   W12
 BYTE   PEND 
// 005   ----------------------------------------
Label_6_017DBA56:
 BYTE   N10  Cn5  v100
 BYTE   W12
 BYTE   N04  Ds5
 BYTE   W12
 BYTE   N04
 BYTE   W12
 BYTE   N04
 BYTE   W12
 BYTE   N10  Dn5
 BYTE   W12
 BYTE   N04  Gn4
 BYTE   W12
 BYTE   N20
 BYTE   W24
 BYTE   PEND 
 BYTE   PATT
  POIN2 Label_6_017DBA40
// 006   ----------------------------------------
Label_6_017DBA6F:
 BYTE   N10  Ds5  v100
 BYTE   W12
 BYTE   N04  Cn5
 BYTE   W12
 BYTE   N10  Dn5
 BYTE   W12
 BYTE   N04  Bn4
 BYTE   W12
 BYTE   N36  Cn5
 BYTE   W48
 BYTE   PEND 
// 007   ----------------------------------------
 BYTE   W96
// 008   ----------------------------------------
 BYTE   W96
// 009   ----------------------------------------
 BYTE   W96
// 010   ----------------------------------------
 BYTE   W96
// 011   ----------------------------------------
 BYTE   W96
// 012   ----------------------------------------
 BYTE   W96
// 013   ----------------------------------------
 BYTE   W96
// 014   ----------------------------------------
 BYTE   W96
// 015   ----------------------------------------
 BYTE   W96
// 016   ----------------------------------------
 BYTE   W96
// 017   ----------------------------------------
 BYTE   W96
// 018   ----------------------------------------
 BYTE   W96
// 019   ----------------------------------------
 BYTE   W96
// 020   ----------------------------------------
 BYTE   W96
// 021   ----------------------------------------
 BYTE   W96
// 022   ----------------------------------------
 BYTE   W96
 BYTE   PATT
  POIN2 Label_6_017DBA40
 BYTE   PATT
  POIN2 Label_6_017DBA56
 BYTE   PATT
  POIN2 Label_6_017DBA40
 BYTE   PATT
  POIN2 Label_6_017DBA6F
// 023   ----------------------------------------
 BYTE   W96
// 024   ----------------------------------------
 BYTE   W96
// 025   ----------------------------------------
 BYTE   W96
// 026   ----------------------------------------
 BYTE   W96
// 027   ----------------------------------------
 BYTE   W96
// 028   ----------------------------------------
 BYTE   W96
// 029   ----------------------------------------
 BYTE   W96
// 030   ----------------------------------------
 BYTE   W96
// 031   ----------------------------------------
 BYTE   W96
// 032   ----------------------------------------
 BYTE   W96
// 033   ----------------------------------------
 BYTE   W96
// 034   ----------------------------------------
 BYTE   W92
 BYTE   W01
 BYTE   GoTo
  POIN2 Label_6_017DBA36
 BYTE   FINE

//**************** Track 8 (Midi-Chn.7) ****************//

LoZMajorasMaskMayorsThemePandan_008:
// 000   ----------------------------------------
 BYTE   KEYSH   LoZMajorasMaskMayorsThemePandan_key+0
Label_7_017DBABA:
 BYTE   VOICE   60
 BYTE   VOL   43*LoZMajorasMaskMayorsThemePandan_mvl/mxv
 BYTE   PAN   c_v+10
 BYTE   W96
// 001   ----------------------------------------
 BYTE   W96
// 002   ----------------------------------------
 BYTE   W96
// 003   ----------------------------------------
 BYTE   W96
// 004   ----------------------------------------
 BYTE   W96
// 005   ----------------------------------------
 BYTE   W96
// 006   ----------------------------------------
 BYTE   W96
// 007   ----------------------------------------
 BYTE   W96
// 008   ----------------------------------------
 BYTE   TIE  Gs2  v100
 BYTE   W96
// 009   ----------------------------------------
 BYTE   W96
// 010   ----------------------------------------
 BYTE   EOT
Label_7_017DBACE:
 BYTE   TIE  Cn2  v052
 BYTE   TIE  Gn2  v100
 BYTE   W96
 BYTE   PEND 
// 011   ----------------------------------------
 BYTE   W96
// 012   ----------------------------------------
 BYTE   EOT
 BYTE   Cn2  v055
 BYTE   TIE  Gs2
 BYTE   W96
// 013   ----------------------------------------
 BYTE   W96
// 014   ----------------------------------------
 BYTE   EOT
 BYTE   PATT
  POIN2 Label_7_017DBACE
// 015   ----------------------------------------
 BYTE   W96
// 016   ----------------------------------------
 BYTE   EOT
 BYTE   Cn2  v055
 BYTE   TIE  Gs2  v100
 BYTE   W96
// 017   ----------------------------------------
 BYTE   W96
// 018   ----------------------------------------
 BYTE   EOT
 BYTE   TIE  Gn2
 BYTE   W96
// 019   ----------------------------------------
Label_7_017DBAF1:
 BYTE   N84  Dn2  v100
 BYTE   W92
 BYTE   W01
 BYTE   PEND 
 BYTE   EOT
 BYTE   Gn2
 BYTE   W03
// 020   ----------------------------------------
 BYTE   W96
// 021   ----------------------------------------
 BYTE   W96
// 022   ----------------------------------------
 BYTE   W96
// 023   ----------------------------------------
 BYTE   W96
// 024   ----------------------------------------
 BYTE   W96
// 025   ----------------------------------------
 BYTE   W96
// 026   ----------------------------------------
 BYTE   W96
// 027   ----------------------------------------
 BYTE   W96
// 028   ----------------------------------------
 BYTE   TIE  Gs2
 BYTE   W96
// 029   ----------------------------------------
 BYTE   W96
// 030   ----------------------------------------
 BYTE   EOT
 BYTE   PATT
  POIN2 Label_7_017DBACE
// 031   ----------------------------------------
 BYTE   W96
// 032   ----------------------------------------
 BYTE   EOT
 BYTE   Cn2  v055
 BYTE   TIE  Gs2  v100
 BYTE   W96
// 033   ----------------------------------------
 BYTE   W96
// 034   ----------------------------------------
 BYTE   EOT
 BYTE   PATT
  POIN2 Label_7_017DBACE
// 035   ----------------------------------------
 BYTE   W96
// 036   ----------------------------------------
 BYTE   EOT
 BYTE   Cn2  v055
 BYTE   TIE  Gs2  v100
 BYTE   W96
// 037   ----------------------------------------
 BYTE   W96
// 038   ----------------------------------------
 BYTE   EOT
 BYTE   TIE  Gn2
 BYTE   W96
 BYTE   PATT
  POIN2 Label_7_017DBAF1
// 039   ----------------------------------------
 BYTE   EOT
 BYTE   Gn2
 BYTE   GoTo
  POIN2 Label_7_017DBABA
 BYTE   FINE

//**************** Track 9 (Midi-Chn.8) ****************//

LoZMajorasMaskMayorsThemePandan_009:
// 000   ----------------------------------------
 BYTE   KEYSH   LoZMajorasMaskMayorsThemePandan_key+0
Label_8_017DBB3A:
 BYTE   VOICE   50
 BYTE   VOL   56*LoZMajorasMaskMayorsThemePandan_mvl/mxv
 BYTE   PAN   c_v-6
 BYTE   W96
// 001   ----------------------------------------
 BYTE   W96
// 002   ----------------------------------------
 BYTE   W96
// 003   ----------------------------------------
 BYTE   W96
// 004   ----------------------------------------
 BYTE   W96
// 005   ----------------------------------------
 BYTE   W96
// 006   ----------------------------------------
 BYTE   W96
// 007   ----------------------------------------
 BYTE   W96
// 008   ----------------------------------------
 BYTE   TIE  Gs2  v100
 BYTE   W96
// 009   ----------------------------------------
 BYTE   W96
// 010   ----------------------------------------
 BYTE   EOT
Label_8_017DBB4E:
 BYTE   TIE  Cn2  v052
 BYTE   TIE  Gn2  v100
 BYTE   W96
 BYTE   PEND 
// 011   ----------------------------------------
 BYTE   W96
// 012   ----------------------------------------
 BYTE   EOT
 BYTE   Cn2  v055
 BYTE   TIE  Gs2
 BYTE   W96
// 013   ----------------------------------------
 BYTE   W96
// 014   ----------------------------------------
 BYTE   EOT
 BYTE   PATT
  POIN2 Label_8_017DBB4E
// 015   ----------------------------------------
 BYTE   W96
// 016   ----------------------------------------
 BYTE   EOT
 BYTE   Cn2  v055
 BYTE   TIE  Gs2  v100
 BYTE   W96
// 017   ----------------------------------------
 BYTE   W96
// 018   ----------------------------------------
 BYTE   EOT
 BYTE   TIE  Gn2
 BYTE   W96
// 019   ----------------------------------------
Label_8_017DBB71:
 BYTE   N84  Dn2  v100
 BYTE   W92
 BYTE   W01
 BYTE   PEND 
 BYTE   EOT
 BYTE   Gn2
 BYTE   W03
// 020   ----------------------------------------
 BYTE   W96
// 021   ----------------------------------------
 BYTE   W96
// 022   ----------------------------------------
 BYTE   W96
// 023   ----------------------------------------
 BYTE   W96
// 024   ----------------------------------------
 BYTE   W96
// 025   ----------------------------------------
 BYTE   W96
// 026   ----------------------------------------
 BYTE   W96
// 027   ----------------------------------------
 BYTE   W96
// 028   ----------------------------------------
 BYTE   TIE  Gs2
 BYTE   W96
// 029   ----------------------------------------
 BYTE   W96
// 030   ----------------------------------------
 BYTE   EOT
 BYTE   PATT
  POIN2 Label_8_017DBB4E
// 031   ----------------------------------------
 BYTE   W96
// 032   ----------------------------------------
 BYTE   EOT
 BYTE   Cn2  v055
 BYTE   TIE  Gs2  v100
 BYTE   W96
// 033   ----------------------------------------
 BYTE   W96
// 034   ----------------------------------------
 BYTE   EOT
 BYTE   PATT
  POIN2 Label_8_017DBB4E
// 035   ----------------------------------------
 BYTE   W96
// 036   ----------------------------------------
 BYTE   EOT
 BYTE   Cn2  v055
 BYTE   TIE  Gs2  v100
 BYTE   W96
// 037   ----------------------------------------
 BYTE   W96
// 038   ----------------------------------------
 BYTE   EOT
 BYTE   TIE  Gn2
 BYTE   W96
 BYTE   PATT
  POIN2 Label_8_017DBB71
// 039   ----------------------------------------
 BYTE   EOT
 BYTE   Gn2
 BYTE   GoTo
  POIN2 Label_8_017DBB3A
 BYTE   FINE

//******************************************************//
	ALIGN 4

LoZMajorasMaskMayorsThemePandan:
	BYTE	9	// NumTrks
	BYTE	0	// NumBlks
	BYTE	LoZMajorasMaskMayorsThemePandan_pri	// Priority
	BYTE	LoZMajorasMaskMayorsThemePandan_rev	// Reverb.
    
	POIN2	LoZMajorasMaskMayorsThemePandan_grp
    
	POIN2	LoZMajorasMaskMayorsThemePandan_001
	POIN2	LoZMajorasMaskMayorsThemePandan_002
	POIN2	LoZMajorasMaskMayorsThemePandan_003
	POIN2	LoZMajorasMaskMayorsThemePandan_004
	POIN2	LoZMajorasMaskMayorsThemePandan_005
	POIN2	LoZMajorasMaskMayorsThemePandan_006
	POIN2	LoZMajorasMaskMayorsThemePandan_007
	POIN2	LoZMajorasMaskMayorsThemePandan_008
	POIN2	LoZMajorasMaskMayorsThemePandan_009

	
