//Event file generated from Sappy .s format.
	#include "MPlayDef.event"

	#define	LoZMajorasMaskNewWaveBossaNovaRSflame_grp  voicegroup000
	#define	LoZMajorasMaskNewWaveBossaNovaRSflame_pri  10
	#define	LoZMajorasMaskNewWaveBossaNovaRSflame_rev  0
	#define	LoZMajorasMaskNewWaveBossaNovaRSflame_mvl  127
	#define	LoZMajorasMaskNewWaveBossaNovaRSflame_key  0
	#define	LoZMajorasMaskNewWaveBossaNovaRSflame_tbs  1
	#define	LoZMajorasMaskNewWaveBossaNovaRSflame_exg  0
	#define	LoZMajorasMaskNewWaveBossaNovaRSflame_cmp  1

	// .rodata
	//	LoZMajorasMaskNewWaveBossaNovaRSflame
	ALIGN 4


//**************** Track 1 (Midi-Chn.0) ****************//

LoZMajorasMaskNewWaveBossaNovaRSflame_001:
// 000   ----------------------------------------
Label_0_55089C:
 BYTE   VOL   50*LoZMajorasMaskNewWaveBossaNovaRSflame_mvl/mxv
 BYTE   KEYSH   LoZMajorasMaskNewWaveBossaNovaRSflame_key+0
 BYTE   VOICE   33
 BYTE   N12  Fn1  v108
 BYTE   TEMPO   70*LoZMajorasMaskNewWaveBossaNovaRSflame_tbs/2
 BYTE   W18
 BYTE   N05  Cn2  v096
 BYTE   W06
 BYTE   N17  Cn2  v108
 BYTE   W18
 BYTE   N05  Fn1  v096
 BYTE   W06
 BYTE   N12  Fn1  v108
 BYTE   W18
 BYTE   N05  Cn2  v096
 BYTE   W06
 BYTE   N17  Cn2  v108
 BYTE   W18
 BYTE   N03  Fn1  v096
 BYTE   W06
// 001   ----------------------------------------
 BYTE   N12  En1  v108
 BYTE   W18
 BYTE   N05  Bn1  v096
 BYTE   W06
 BYTE   N17  Bn1  v108
 BYTE   W18
 BYTE   N05  En1  v096
 BYTE   W06
 BYTE   N12  En1  v108
 BYTE   W18
 BYTE   N05  Bn1  v096
 BYTE   W06
 BYTE   N17  Bn1  v108
 BYTE   W18
 BYTE   N03  En1  v096
 BYTE   W06
// 002   ----------------------------------------
 BYTE   N12  Fn1  v108
 BYTE   W18
 BYTE   N05  Cn2  v096
 BYTE   W06
 BYTE   N17  Cn2  v108
 BYTE   W18
 BYTE   N05  Fn1  v096
 BYTE   W06
 BYTE   N12  Fn1  v108
 BYTE   W18
 BYTE   N05  Cn2  v096
 BYTE   W06
 BYTE   N17  Cn2  v108
 BYTE   W18
 BYTE   N03  Fn1  v096
 BYTE   W06
// 003   ----------------------------------------
 BYTE   N12  En1  v108
 BYTE   W18
 BYTE   N05  Bn1  v096
 BYTE   W06
 BYTE   N17  Bn1  v108
 BYTE   W18
 BYTE   N05  En1  v096
 BYTE   W06
 BYTE   N12  En1  v108
 BYTE   W18
 BYTE   N05  Bn1  v096
 BYTE   W06
 BYTE   N17  Bn1  v108
 BYTE   W18
 BYTE   N03  En1  v096
 BYTE   W06
// 004   ----------------------------------------
 BYTE   N12  Ds1  v108
 BYTE   W18
 BYTE   N05  As1  v096
 BYTE   W06
 BYTE   N17  As1  v108
 BYTE   W18
 BYTE   N05  Ds2  v096
 BYTE   W06
 BYTE   N12  Ds2  v108
 BYTE   W18
 BYTE   N05  As1  v096
 BYTE   W06
 BYTE   N17  As1  v108
 BYTE   W18
 BYTE   N03  Ds1  v096
 BYTE   W06
// 005   ----------------------------------------
 BYTE   N12  Dn1  v108
 BYTE   W18
 BYTE   N05  An1  v096
 BYTE   W06
 BYTE   N17  An1  v108
 BYTE   W18
 BYTE   N05  Dn1  v096
 BYTE   W06
 BYTE   N12  Cs1  v108
 BYTE   W18
 BYTE   N05  Gs1  v096
 BYTE   W06
 BYTE   N17  Gs1  v108
 BYTE   W18
 BYTE   N03  Cs1  v096
 BYTE   W06
// 006   ----------------------------------------
 BYTE   N12  Cn1  v108
 BYTE   W18
 BYTE   N05  Gn1  v096
 BYTE   W06
 BYTE   N17  Gn1  v108
 BYTE   W18
 BYTE   N05  Cn1  v096
 BYTE   W12
 BYTE   N01  Cn1  v052
 BYTE   W06
 BYTE   N28  Cn1  v108
 BYTE   W11
 BYTE   W02
 BYTE   N01  Cn1  v108
 BYTE   GoTo
  POIN2 Label_0_55089C
 BYTE   FINE

//**************** Track 2 (Midi-Chn.1) ****************//

LoZMajorasMaskNewWaveBossaNovaRSflame_002:
// 000   ----------------------------------------
Label_1_550BD4:
 BYTE   KEYSH   LoZMajorasMaskNewWaveBossaNovaRSflame_key+0
 BYTE   VOICE   67
 BYTE   TEMPO   70*LoZMajorasMaskNewWaveBossaNovaRSflame_tbs/2
 BYTE   W96
// 001   ----------------------------------------
 BYTE   W96
// 002   ----------------------------------------
 BYTE   PAN   c_v+6
 BYTE   BEND   c_v-6
 BYTE   N28  Bn2  v102
 BYTE   W02
 BYTE   BEND   c_v-5
 BYTE   BEND   c_v-4
 BYTE   VOL   89*LoZMajorasMaskNewWaveBossaNovaRSflame_mvl/mxv
 BYTE   BEND   c_v-2
 BYTE   BEND   c_v-1
 BYTE   BEND   c_v+0
 BYTE   W02
 BYTE   VOL   76*LoZMajorasMaskNewWaveBossaNovaRSflame_mvl/mxv
 BYTE   W03
 BYTE   VOL   67*LoZMajorasMaskNewWaveBossaNovaRSflame_mvl/mxv
 BYTE   W03
 BYTE   VOL   58*LoZMajorasMaskNewWaveBossaNovaRSflame_mvl/mxv
 BYTE   W02
 BYTE   N01  Bn2  v102
 BYTE   W01
 BYTE   VOL   47*LoZMajorasMaskNewWaveBossaNovaRSflame_mvl/mxv
 BYTE   W03
 BYTE   VOL   39*LoZMajorasMaskNewWaveBossaNovaRSflame_mvl/mxv
 BYTE   W03
 BYTE   VOL   29*LoZMajorasMaskNewWaveBossaNovaRSflame_mvl/mxv
 BYTE   MOD 0
 BYTE   CnM2  v002
 BYTE   W03
 BYTE   VOL   19*LoZMajorasMaskNewWaveBossaNovaRSflame_mvl/mxv
 BYTE   W06
 BYTE   VOL   97*LoZMajorasMaskNewWaveBossaNovaRSflame_mvl/mxv
 BYTE   BEND   c_v-3
 BYTE   MOD 0
 BYTE   CnM2  v000
 BYTE   N06  Dn3  v098
 BYTE   W01
 BYTE   BEND   c_v-2
 BYTE   W01
 BYTE   BEND   c_v-1
 BYTE   W02
 BYTE   BEND   c_v+0
 BYTE   W02
 BYTE   N04  Bn2  v094
 BYTE   W06
 BYTE   N32  An2  v092
 BYTE   W06
 BYTE   VOL   90*LoZMajorasMaskNewWaveBossaNovaRSflame_mvl/mxv
 BYTE   W03
 BYTE   VOL   79*LoZMajorasMaskNewWaveBossaNovaRSflame_mvl/mxv
 BYTE   W03
 BYTE   VOL   70*LoZMajorasMaskNewWaveBossaNovaRSflame_mvl/mxv
 BYTE   W03
 BYTE   VOL   58*LoZMajorasMaskNewWaveBossaNovaRSflame_mvl/mxv
 BYTE   N02  An2  v092
 BYTE   W02
 BYTE   MOD 0
 BYTE   CnM2  v002
 BYTE   VOL   47*LoZMajorasMaskNewWaveBossaNovaRSflame_mvl/mxv
 BYTE   W03
 BYTE   VOL   39*LoZMajorasMaskNewWaveBossaNovaRSflame_mvl/mxv
 BYTE   W03
 BYTE   VOL   29*LoZMajorasMaskNewWaveBossaNovaRSflame_mvl/mxv
 BYTE   W03
 BYTE   VOL   19*LoZMajorasMaskNewWaveBossaNovaRSflame_mvl/mxv
 BYTE   W03
 BYTE   VOL   13*LoZMajorasMaskNewWaveBossaNovaRSflame_mvl/mxv
 BYTE   W05
 BYTE   VOL   97*LoZMajorasMaskNewWaveBossaNovaRSflame_mvl/mxv
 BYTE   MOD 0
 BYTE   CnM2  v000
 BYTE   N06  Fn2  v098
 BYTE   W06
 BYTE   BEND   c_v-4
 BYTE   N06  Bn2  v098
 BYTE   BEND   c_v-2
 BYTE   BEND   c_v-1
 BYTE   W01
 BYTE   BEND   c_v+0
 BYTE   W04
 BYTE   N96  An2  v094
 BYTE   W30
// 003   ----------------------------------------
 BYTE   MOD 0
 BYTE   CnM2  v002
 BYTE   VOL   95*LoZMajorasMaskNewWaveBossaNovaRSflame_mvl/mxv
 BYTE   W03
 BYTE   VOL   90*LoZMajorasMaskNewWaveBossaNovaRSflame_mvl/mxv
 BYTE   W03
 BYTE   VOL   82*LoZMajorasMaskNewWaveBossaNovaRSflame_mvl/mxv
 BYTE   W03
 BYTE   VOL   75*LoZMajorasMaskNewWaveBossaNovaRSflame_mvl/mxv
 BYTE   W03
 BYTE   VOL   67*LoZMajorasMaskNewWaveBossaNovaRSflame_mvl/mxv
 BYTE   W03
 BYTE   VOL   60*LoZMajorasMaskNewWaveBossaNovaRSflame_mvl/mxv
 BYTE   W02
 BYTE   N01  An2  v094
 BYTE   VOL   52*LoZMajorasMaskNewWaveBossaNovaRSflame_mvl/mxv
 BYTE   W03
 BYTE   VOL   46*LoZMajorasMaskNewWaveBossaNovaRSflame_mvl/mxv
 BYTE   W03
 BYTE   VOL   39*LoZMajorasMaskNewWaveBossaNovaRSflame_mvl/mxv
 BYTE   W03
 BYTE   VOL   33*LoZMajorasMaskNewWaveBossaNovaRSflame_mvl/mxv
 BYTE   W03
 BYTE   VOL   26*LoZMajorasMaskNewWaveBossaNovaRSflame_mvl/mxv
 BYTE   W03
 BYTE   VOL   19*LoZMajorasMaskNewWaveBossaNovaRSflame_mvl/mxv
 BYTE   W03
 BYTE   VOL   15*LoZMajorasMaskNewWaveBossaNovaRSflame_mvl/mxv
 BYTE   W03
 BYTE   VOL   8*LoZMajorasMaskNewWaveBossaNovaRSflame_mvl/mxv
 BYTE   W03
 BYTE   VOL   4*LoZMajorasMaskNewWaveBossaNovaRSflame_mvl/mxv
 BYTE   W03
 BYTE   VOL   0*LoZMajorasMaskNewWaveBossaNovaRSflame_mvl/mxv
 BYTE   W03
 BYTE   VOL   0*LoZMajorasMaskNewWaveBossaNovaRSflame_mvl/mxv
 BYTE   W03
 BYTE   VOL   0*LoZMajorasMaskNewWaveBossaNovaRSflame_mvl/mxv
 BYTE   W03
 BYTE   VOL   0*LoZMajorasMaskNewWaveBossaNovaRSflame_mvl/mxv
 BYTE   W03
 BYTE   VOL   0*LoZMajorasMaskNewWaveBossaNovaRSflame_mvl/mxv
 BYTE   W03
 BYTE   VOL   0*LoZMajorasMaskNewWaveBossaNovaRSflame_mvl/mxv
 BYTE   W03
 BYTE   VOL   0*LoZMajorasMaskNewWaveBossaNovaRSflame_mvl/mxv
 BYTE   W08
 BYTE   VOL   97*LoZMajorasMaskNewWaveBossaNovaRSflame_mvl/mxv
 BYTE   BEND   c_v-6
 BYTE   MOD 0
 BYTE   CnM2  v000
 BYTE   N30  Gn2  v098
 BYTE   W02
 BYTE   BEND   c_v-5
 BYTE   BEND   c_v-4
 BYTE   BEND   c_v-2
 BYTE   BEND   c_v-1
 BYTE   BEND   c_v+0
 BYTE   W05
 BYTE   VOL   86*LoZMajorasMaskNewWaveBossaNovaRSflame_mvl/mxv
 BYTE   W03
 BYTE   VOL   73*LoZMajorasMaskNewWaveBossaNovaRSflame_mvl/mxv
 BYTE   W02
 BYTE   MOD 0
 BYTE   CnM2  v002
 BYTE   VOL   58*LoZMajorasMaskNewWaveBossaNovaRSflame_mvl/mxv
 BYTE   W03
 BYTE   VOL   46*LoZMajorasMaskNewWaveBossaNovaRSflame_mvl/mxv
 BYTE   W03
 BYTE   VOL   33*LoZMajorasMaskNewWaveBossaNovaRSflame_mvl/mxv
 BYTE   W03
 BYTE   VOL   22*LoZMajorasMaskNewWaveBossaNovaRSflame_mvl/mxv
 BYTE   W05
// 004   ----------------------------------------
 BYTE   VOL   97*LoZMajorasMaskNewWaveBossaNovaRSflame_mvl/mxv
 BYTE   BEND   c_v-3
 BYTE   MOD 0
 BYTE   CnM2  v000
 BYTE   N05  Cn3  v104
 BYTE   W01
 BYTE   BEND   c_v-2
 BYTE   W01
 BYTE   BEND   c_v-1
 BYTE   W02
 BYTE   BEND   c_v+0
 BYTE   W02
 BYTE   N04  Gn2  v094
 BYTE   W06
 BYTE   N32  Fn2  v082
 BYTE   W12
 BYTE   MOD 0
 BYTE   CnM2  v002
 BYTE   W04
 BYTE   N02  Fn2  v082
 BYTE   W05
 BYTE   VOL   79*LoZMajorasMaskNewWaveBossaNovaRSflame_mvl/mxv
 BYTE   W03
 BYTE   VOL   61*LoZMajorasMaskNewWaveBossaNovaRSflame_mvl/mxv
 BYTE   W03
 BYTE   VOL   44*LoZMajorasMaskNewWaveBossaNovaRSflame_mvl/mxv
 BYTE   W03
 BYTE   VOL   29*LoZMajorasMaskNewWaveBossaNovaRSflame_mvl/mxv
 BYTE   W03
 BYTE   VOL   15*LoZMajorasMaskNewWaveBossaNovaRSflame_mvl/mxv
 BYTE   W03
 BYTE   VOL   97*LoZMajorasMaskNewWaveBossaNovaRSflame_mvl/mxv
 BYTE   MOD 0
 BYTE   CnM2  v000
 BYTE   N06  En2  v074
 BYTE   W06
 BYTE   N05  Fn2  v090
 BYTE   W06
 BYTE   N36  En2  v092
 BYTE   W18
 BYTE   MOD 0
 BYTE   CnM2  v002
 BYTE   W03
 BYTE   VOL   82*LoZMajorasMaskNewWaveBossaNovaRSflame_mvl/mxv
 BYTE   W03
 BYTE   VOL   61*LoZMajorasMaskNewWaveBossaNovaRSflame_mvl/mxv
 BYTE   W03
 BYTE   VOL   43*LoZMajorasMaskNewWaveBossaNovaRSflame_mvl/mxv
 BYTE   W03
 BYTE   VOL   26*LoZMajorasMaskNewWaveBossaNovaRSflame_mvl/mxv
 BYTE   W05
 BYTE   VOL   97*LoZMajorasMaskNewWaveBossaNovaRSflame_mvl/mxv
 BYTE   BEND   c_v-6
 BYTE   MOD 0
 BYTE   CnM2  v000
 BYTE   N03  Cn2  v094
 BYTE   W02
// 005   ----------------------------------------
 BYTE   BEND   c_v-5
 BYTE   BEND   c_v-4
 BYTE   BEND   c_v-2
 BYTE   W03
 BYTE   BEND   c_v+0
 BYTE   N04  Dn2  v086
 BYTE   W06
 BYTE   En2  v082
 BYTE   W06
 BYTE   BEND   c_v-3
 BYTE   N30  Fn2  v080
 BYTE   W01
 BYTE   BEND   c_v-2
 BYTE   W01
 BYTE   BEND   c_v-1
 BYTE   W02
 BYTE   BEND   c_v+0
 BYTE   W08
 BYTE   MOD 0
 BYTE   CnM2  v002
 BYTE   W07
 BYTE   VOL   89*LoZMajorasMaskNewWaveBossaNovaRSflame_mvl/mxv
 BYTE   W03
 BYTE   VOL   73*LoZMajorasMaskNewWaveBossaNovaRSflame_mvl/mxv
 BYTE   W03
 BYTE   VOL   58*LoZMajorasMaskNewWaveBossaNovaRSflame_mvl/mxv
 BYTE   W03
 BYTE   VOL   44*LoZMajorasMaskNewWaveBossaNovaRSflame_mvl/mxv
 BYTE   W02
 BYTE   VOL   97*LoZMajorasMaskNewWaveBossaNovaRSflame_mvl/mxv
 BYTE   BEND   c_v-4
 BYTE   MOD 0
 BYTE   CnM2  v000
 BYTE   N12  Gn2  v100
 BYTE   BEND   c_v-2
 BYTE   BEND   c_v-1
 BYTE   W01
 BYTE   BEND   c_v+0
 BYTE   W01
 BYTE   VOL   89*LoZMajorasMaskNewWaveBossaNovaRSflame_mvl/mxv
 BYTE   W03
 BYTE   VOL   73*LoZMajorasMaskNewWaveBossaNovaRSflame_mvl/mxv
 BYTE   W03
 BYTE   VOL   58*LoZMajorasMaskNewWaveBossaNovaRSflame_mvl/mxv
 BYTE   W03
 BYTE   VOL   44*LoZMajorasMaskNewWaveBossaNovaRSflame_mvl/mxv
 BYTE   N02  Fs2  v089
 BYTE   W03
 BYTE   N03  Fn2  v082
 BYTE   W03
 BYTE   VOL   97*LoZMajorasMaskNewWaveBossaNovaRSflame_mvl/mxv
 BYTE   N68  En2  v094
 BYTE   W18
 BYTE   MOD 0
 BYTE   CnM2  v002
 BYTE   VOL   92*LoZMajorasMaskNewWaveBossaNovaRSflame_mvl/mxv
 BYTE   W03
 BYTE   VOL   86*LoZMajorasMaskNewWaveBossaNovaRSflame_mvl/mxv
 BYTE   W03
 BYTE   VOL   76*LoZMajorasMaskNewWaveBossaNovaRSflame_mvl/mxv
 BYTE   W03
 BYTE   VOL   67*LoZMajorasMaskNewWaveBossaNovaRSflame_mvl/mxv
 BYTE   W03
 BYTE   VOL   60*LoZMajorasMaskNewWaveBossaNovaRSflame_mvl/mxv
 BYTE   W03
 BYTE   VOL   50*LoZMajorasMaskNewWaveBossaNovaRSflame_mvl/mxv
 BYTE   N03  En2  v094
 BYTE   W02
// 006   ----------------------------------------
 BYTE   VOL   44*LoZMajorasMaskNewWaveBossaNovaRSflame_mvl/mxv
 BYTE   W03
 BYTE   VOL   34*LoZMajorasMaskNewWaveBossaNovaRSflame_mvl/mxv
 BYTE   W03
 BYTE   VOL   29*LoZMajorasMaskNewWaveBossaNovaRSflame_mvl/mxv
 BYTE   W03
 BYTE   VOL   19*LoZMajorasMaskNewWaveBossaNovaRSflame_mvl/mxv
 BYTE   W03
 BYTE   VOL   15*LoZMajorasMaskNewWaveBossaNovaRSflame_mvl/mxv
 BYTE   W03
 BYTE   VOL   7*LoZMajorasMaskNewWaveBossaNovaRSflame_mvl/mxv
 BYTE   W03
 BYTE   VOL   2*LoZMajorasMaskNewWaveBossaNovaRSflame_mvl/mxv
 BYTE   W03
 BYTE   VOL   0*LoZMajorasMaskNewWaveBossaNovaRSflame_mvl/mxv
 BYTE   W03
 BYTE   VOL   0*LoZMajorasMaskNewWaveBossaNovaRSflame_mvl/mxv
 BYTE   W03
 BYTE   VOL   0*LoZMajorasMaskNewWaveBossaNovaRSflame_mvl/mxv
 BYTE   W03
 BYTE   VOL   0*LoZMajorasMaskNewWaveBossaNovaRSflame_mvl/mxv
 BYTE   W03
 BYTE   VOL   0*LoZMajorasMaskNewWaveBossaNovaRSflame_mvl/mxv
 BYTE   W02
 BYTE   W02
 BYTE   GoTo
  POIN2 Label_1_550BD4
 BYTE   FINE

//**************** Track 3 (Midi-Chn.2) ****************//

LoZMajorasMaskNewWaveBossaNovaRSflame_003:
// 000   ----------------------------------------
Label_2_550A08:
 BYTE   VOL   50*LoZMajorasMaskNewWaveBossaNovaRSflame_mvl/mxv
 BYTE   KEYSH   LoZMajorasMaskNewWaveBossaNovaRSflame_key+0
 BYTE   VOICE   34
 BYTE   TEMPO   70*LoZMajorasMaskNewWaveBossaNovaRSflame_tbs/2
 BYTE   W12
 BYTE   PAN   c_v+46
 BYTE   N04  En2  v105
 BYTE   W18
 BYTE   Gn2  v084
 BYTE   W12
 BYTE   N01  Dn2  v048
 BYTE   W06
 BYTE   N05  En2  v066
 BYTE   W06
 BYTE   N02  En2  v075
 BYTE   W12
 BYTE   N01  Gn2  v081
 BYTE   W12
 BYTE   N02  Gn2  v082
 BYTE   W18
// 001   ----------------------------------------
 BYTE   W12
 BYTE   N04  Dn2  v087
 BYTE   W18
 BYTE   Gn2  v091
 BYTE   W12
 BYTE   N02  Dn2  v055
 BYTE   W06
 BYTE   N05  Dn2  v051
 BYTE   W06
 BYTE   N02  Dn2  v061
 BYTE   W12
 BYTE   N04  Gn2  v096
 BYTE   W12
 BYTE   N02  Gn2  v090
 BYTE   W30
// 002   ----------------------------------------
 BYTE   N04  En2  v105
 BYTE   W18
 BYTE   Gn2  v084
 BYTE   W12
 BYTE   N01  Dn2  v048
 BYTE   W06
 BYTE   N05  En2  v066
 BYTE   W06
 BYTE   N02  En2  v075
 BYTE   W12
 BYTE   N01  Gn2  v088
 BYTE   W12
 BYTE   N02  Gn2  v085
 BYTE   W30
// 003   ----------------------------------------
 BYTE   N04  Dn2  v087
 BYTE   W18
 BYTE   Gn2  v091
 BYTE   W12
 BYTE   N02  Dn2  v055
 BYTE   W06
 BYTE   N05  Gn2  v087
 BYTE   W06
 BYTE   N02  Gn2  v097
 BYTE   W12
 BYTE   N04  Dn2  v062
 BYTE   W12
 BYTE   N02  Gn2  v099
 BYTE   W12
 BYTE   Gn2  v080
 BYTE   W18
// 004   ----------------------------------------
 BYTE   N06  Cn3  v100
 BYTE   W24
 BYTE   N03  Gn2  v087
 BYTE   W06
 BYTE   N04  Cn3
 BYTE   W12
 BYTE   N03  Gn2  v108
 BYTE   W12
 BYTE   N01  Dn2  v078
 BYTE   W06
 BYTE   N05  Gn2  v103
 BYTE   W06
 BYTE   N03  Gn2  v093
 BYTE   W30
// 005   ----------------------------------------
 BYTE   N04  Cn3  v099
 BYTE   W12
 BYTE   N03  Fn2
 BYTE   W06
 BYTE   N05  Cn3  v096
 BYTE   W12
 BYTE   N02  Fn2  v098
 BYTE   W12
 BYTE   Fn2
 BYTE   W12
 BYTE   Ds2  v099
 BYTE   W06
 BYTE   N04  Fn2  v096
 BYTE   W06
 BYTE   N02  Fn2  v084
 BYTE   W18
 BYTE   N03  En2  v098
 BYTE   W18
// 006   ----------------------------------------
 BYTE   En2  v081
 BYTE   W06
 BYTE   N04  En2  v075
 BYTE   W06
 BYTE   N01  En2  v067
 BYTE   W12
 BYTE   N02  En2  v091
 BYTE   W18
 BYTE   N19  En2  v098
 BYTE   W11
 BYTE   W02
 BYTE   GoTo
  POIN2 Label_2_550A08
 BYTE   FINE

//**************** Track 4 (Midi-Chn.3) ****************//

LoZMajorasMaskNewWaveBossaNovaRSflame_004:
// 000   ----------------------------------------
Label_3_550988:
 BYTE   KEYSH   LoZMajorasMaskNewWaveBossaNovaRSflame_key+0
 BYTE   VOICE   28
 BYTE   VOL   65*LoZMajorasMaskNewWaveBossaNovaRSflame_mvl/mxv
 BYTE   PAN   c_v+16
 BYTE   N06  Bn4  v074
 BYTE   TEMPO   70*LoZMajorasMaskNewWaveBossaNovaRSflame_tbs/2
 BYTE   W30
 BYTE   N06  Dn5  v088
 BYTE   W06
 BYTE   Bn4  v090
 BYTE   W06
 BYTE   An4  v088
 BYTE   W36
 BYTE   Fn4  v076
 BYTE   W06
 BYTE   Bn4
 BYTE   W06
 BYTE   An4
 BYTE   W06
// 001   ----------------------------------------
 BYTE   W96
// 002   ----------------------------------------
 BYTE   W96
// 003   ----------------------------------------
 BYTE   W96
// 004   ----------------------------------------
 BYTE   W96
// 005   ----------------------------------------
 BYTE   W96
// 006   ----------------------------------------
 BYTE   W68
 BYTE   W03
 BYTE   W02
 BYTE   GoTo
  POIN2 Label_3_550988
 BYTE   FINE

//**************** Track 5 (Midi-Chn.4) ****************//

LoZMajorasMaskNewWaveBossaNovaRSflame_005:
// 000   ----------------------------------------
Label_4_5509B8:
 BYTE   KEYSH   LoZMajorasMaskNewWaveBossaNovaRSflame_key+0
 BYTE   VOICE   24
 BYTE   VOL   44*LoZMajorasMaskNewWaveBossaNovaRSflame_mvl/mxv
 BYTE   PAN   c_v+16
 BYTE   N06  Bn4  v074
 BYTE   TEMPO   70*LoZMajorasMaskNewWaveBossaNovaRSflame_tbs/2
 BYTE   W30
 BYTE   N06  Dn5  v088
 BYTE   W06
 BYTE   Bn4  v090
 BYTE   W06
 BYTE   An4  v088
 BYTE   W36
 BYTE   Fn4  v076
 BYTE   W06
 BYTE   Bn4
 BYTE   W06
 BYTE   An4
 BYTE   W06
// 001   ----------------------------------------
 BYTE   W96
// 002   ----------------------------------------
 BYTE   W96
// 003   ----------------------------------------
 BYTE   W96
// 004   ----------------------------------------
 BYTE   W96
// 005   ----------------------------------------
 BYTE   W96
// 006   ----------------------------------------
 BYTE   W68
 BYTE   W03
 BYTE   W02
 BYTE   GoTo
  POIN2 Label_4_5509B8
 BYTE   FINE

//******************************************************//
	ALIGN 4

LoZMajorasMaskNewWaveBossaNovaRSflame:
	BYTE	5	// NumTrks
	BYTE	0	// NumBlks
	BYTE	LoZMajorasMaskNewWaveBossaNovaRSflame_pri	// Priority
	BYTE	LoZMajorasMaskNewWaveBossaNovaRSflame_rev	// Reverb.
    
	POIN2	LoZMajorasMaskNewWaveBossaNovaRSflame_grp
    
	POIN2	LoZMajorasMaskNewWaveBossaNovaRSflame_001
	POIN2	LoZMajorasMaskNewWaveBossaNovaRSflame_002
	POIN2	LoZMajorasMaskNewWaveBossaNovaRSflame_003
	POIN2	LoZMajorasMaskNewWaveBossaNovaRSflame_004
	POIN2	LoZMajorasMaskNewWaveBossaNovaRSflame_005

	
