//Event file generated from Sappy .s format.
	#include "MPlayDef.event"

	#define	LoZOcarinaofTimeLostWoodsAReliableChair_grp  voicegroup000
	#define	LoZOcarinaofTimeLostWoodsAReliableChair_pri  0
	#define	LoZOcarinaofTimeLostWoodsAReliableChair_rev  0
	#define	LoZOcarinaofTimeLostWoodsAReliableChair_mvl  127
	#define	LoZOcarinaofTimeLostWoodsAReliableChair_key  0
	#define	LoZOcarinaofTimeLostWoodsAReliableChair_tbs  1
	#define	LoZOcarinaofTimeLostWoodsAReliableChair_exg  0
	#define	LoZOcarinaofTimeLostWoodsAReliableChair_cmp  1

	// .rodata
	//	LoZOcarinaofTimeLostWoodsAReliableChair
	ALIGN 4


//**************** Track 1 (Midi-Chn.0) ****************//

LoZOcarinaofTimeLostWoodsAReliableChair_001:
// 000   ----------------------------------------
 BYTE   KEYSH   LoZOcarinaofTimeLostWoodsAReliableChair_key+0
 BYTE   TEMPO   140*LoZOcarinaofTimeLostWoodsAReliableChair_tbs/2
 BYTE   VOICE   24
 BYTE   PAN   c_v-1
 BYTE   VOL   58*LoZOcarinaofTimeLostWoodsAReliableChair_mvl/mxv
 BYTE   W96
// 001   ----------------------------------------
Label_0_014891D7:
 BYTE   N12  Fn2  v064
 BYTE   W12
 BYTE   N06  An2
 BYTE   N06  Cn3
 BYTE   W12
 BYTE   An2
 BYTE   N06  Cn3
 BYTE   W12
 BYTE   An2
 BYTE   N06  Cn3
 BYTE   W12
 BYTE   N12  Fn2
 BYTE   W12
 BYTE   N06  An2
 BYTE   N06  Cn3
 BYTE   W12
 BYTE   An2
 BYTE   N06  Cn3
 BYTE   W12
 BYTE   An2
 BYTE   N06  Cn3
 BYTE   W12
 BYTE   PEND 
 BYTE   PATT
  POIN2 Label_0_014891D7
// 002   ----------------------------------------
Label_0_014891FE:
 BYTE   N12  En2  v064
 BYTE   W12
 BYTE   N06  Gn2
 BYTE   N06  Cn3
 BYTE   W12
 BYTE   Gn2
 BYTE   N06  Cn3
 BYTE   W12
 BYTE   Gn2
 BYTE   N06  Cn3
 BYTE   W12
 BYTE   N12  En2
 BYTE   W12
 BYTE   N06  Gn2
 BYTE   N06  Cn3
 BYTE   W12
 BYTE   Gn2
 BYTE   N06  Cn3
 BYTE   W12
 BYTE   N12  Cn2
 BYTE   W12
 BYTE   PEND 
 BYTE   PATT
  POIN2 Label_0_014891FE
 BYTE   PATT
  POIN2 Label_0_014891D7
 BYTE   PATT
  POIN2 Label_0_014891D7
 BYTE   PATT
  POIN2 Label_0_014891FE
// 003   ----------------------------------------
 BYTE   N12  En2  v064
 BYTE   W12
 BYTE   N06  Gn2
 BYTE   N06  Cn3
 BYTE   W12
 BYTE   Gn2
 BYTE   N06  Cn3
 BYTE   W12
 BYTE   Gn2
 BYTE   N06  Cn3
 BYTE   W12
 BYTE   N12  En2
 BYTE   W12
 BYTE   N06  Gn2
 BYTE   N06  Cn3
 BYTE   W12
 BYTE   Gn2
 BYTE   N06  Cn3
 BYTE   W12
 BYTE   N12  En2
 BYTE   W12
// 004   ----------------------------------------
 BYTE   W96
// 005   ----------------------------------------
 BYTE   W96
// 006   ----------------------------------------
 BYTE   W96
// 007   ----------------------------------------
 BYTE   W96
// 008   ----------------------------------------
 BYTE   W96
// 009   ----------------------------------------
 BYTE   W96
// 010   ----------------------------------------
 BYTE   W96
// 011   ----------------------------------------
 BYTE   W96
// 012   ----------------------------------------
 BYTE   W96
// 013   ----------------------------------------
 BYTE   W96
// 014   ----------------------------------------
 BYTE   GoTo
  POIN2 Label_0_014891D7
 BYTE   FINE

//**************** Track 2 (Midi-Chn.1) ****************//

LoZOcarinaofTimeLostWoodsAReliableChair_002:
// 000   ----------------------------------------
 BYTE   KEYSH   LoZOcarinaofTimeLostWoodsAReliableChair_key+0
 BYTE   VOICE   46
 BYTE   PAN   c_v+63
 BYTE   VOL   64*LoZOcarinaofTimeLostWoodsAReliableChair_mvl/mxv
 BYTE   W96
// 001   ----------------------------------------
Label_1_0148926D:
 BYTE   N06  Fn2  v064
 BYTE   W48
 BYTE   N06
 BYTE   W48
// 002   ----------------------------------------
 BYTE   N05
 BYTE   W48
 BYTE   N06
 BYTE   W48
// 003   ----------------------------------------
Label_1_01489277:
 BYTE   N05  Cn2  v064
 BYTE   W48
 BYTE   N06
 BYTE   W48
 BYTE   PEND 
 BYTE   PATT
  POIN2 Label_1_01489277
// 004   ----------------------------------------
Label_1_01489283:
 BYTE   N06  Fn2  v064
 BYTE   W48
 BYTE   N05
 BYTE   W48
 BYTE   PEND 
 BYTE   PATT
  POIN2 Label_1_01489283
// 005   ----------------------------------------
 BYTE   N06  Cn2  v064
 BYTE   W48
 BYTE   N05
 BYTE   W48
// 006   ----------------------------------------
 BYTE   N06
 BYTE   W48
 BYTE   N06
 BYTE   W48
// 007   ----------------------------------------
 BYTE   N05  Dn2
 BYTE   W24
 BYTE   N06
 BYTE   W24
 BYTE   Gn1
 BYTE   W24
 BYTE   N05
 BYTE   W24
// 008   ----------------------------------------
 BYTE   Cn2
 BYTE   W24
 BYTE   N06
 BYTE   W24
 BYTE   An1
 BYTE   W24
 BYTE   N05
 BYTE   W24
// 009   ----------------------------------------
 BYTE   N06  Dn2
 BYTE   W24
 BYTE   N06
 BYTE   W24
 BYTE   N05  Gn1
 BYTE   W24
 BYTE   N05
 BYTE   W24
// 010   ----------------------------------------
 BYTE   N06  Cn2
 BYTE   W24
 BYTE   N06
 BYTE   W24
 BYTE   N05  An1
 BYTE   W24
 BYTE   N06
 BYTE   W24
// 011   ----------------------------------------
 BYTE   Dn2
 BYTE   W24
 BYTE   N05
 BYTE   W24
 BYTE   Gn1
 BYTE   W24
 BYTE   N06
 BYTE   W24
// 012   ----------------------------------------
 BYTE   Cn2
 BYTE   W24
 BYTE   N05
 BYTE   W24
 BYTE   N06  An1
 BYTE   W24
 BYTE   N06
 BYTE   W24
// 013   ----------------------------------------
 BYTE   N05  Dn2
 BYTE   W48
 BYTE   N06
 BYTE   W48
 BYTE   PATT
  POIN2 Label_1_01489277
// 014   ----------------------------------------
 BYTE   N06  En2  v064
 BYTE   W48
 BYTE   N05
 BYTE   W48
// 015   ----------------------------------------
 BYTE   N06
 BYTE   W36
 BYTE   N05
 BYTE   W12
 BYTE   N05
 BYTE   W24
 BYTE   N06
 BYTE   W24
// 016   ----------------------------------------
 BYTE   GoTo
  POIN2 Label_1_0148926D
 BYTE   FINE

//**************** Track 3 (Midi-Chn.2) ****************//

LoZOcarinaofTimeLostWoodsAReliableChair_003:
// 000   ----------------------------------------
 BYTE   KEYSH   LoZOcarinaofTimeLostWoodsAReliableChair_key+0
 BYTE   VOICE   46
 BYTE   PAN   c_v-1
 BYTE   VOL   64*LoZOcarinaofTimeLostWoodsAReliableChair_mvl/mxv
 BYTE   W96
// 001   ----------------------------------------
Label_2_014892F9:
 BYTE   W96
// 002   ----------------------------------------
 BYTE   W96
// 003   ----------------------------------------
 BYTE   W96
// 004   ----------------------------------------
 BYTE   W96
// 005   ----------------------------------------
 BYTE   W96
// 006   ----------------------------------------
 BYTE   W96
// 007   ----------------------------------------
 BYTE   W96
// 008   ----------------------------------------
 BYTE   W96
// 009   ----------------------------------------
 BYTE   W12
 BYTE   N05  Fn2  v064
 BYTE   N05  An2
 BYTE   W24
 BYTE   N06  Fn2
 BYTE   N06  An2
 BYTE   W24
 BYTE   Dn2
 BYTE   N06  Gn2
 BYTE   W24
 BYTE   N05  Dn2
 BYTE   N05  Gn2
 BYTE   W12
// 010   ----------------------------------------
 BYTE   W12
 BYTE   N06
 BYTE   N06  Cn3
 BYTE   W24
 BYTE   Gn2
 BYTE   N06  Cn3
 BYTE   W24
 BYTE   N05  En2
 BYTE   N05  An2
 BYTE   W24
 BYTE   En2
 BYTE   N05  An2
 BYTE   W12
// 011   ----------------------------------------
 BYTE   W12
 BYTE   N06  Fn2
 BYTE   N06  An2
 BYTE   W24
 BYTE   Fn2
 BYTE   N06  An2
 BYTE   W24
 BYTE   N05  Dn2
 BYTE   N05  Gn2
 BYTE   W24
 BYTE   N06  Dn2
 BYTE   N06  Gn2
 BYTE   W12
// 012   ----------------------------------------
 BYTE   W12
 BYTE   N06
 BYTE   N06  Cn3
 BYTE   W24
 BYTE   N05  Gn2
 BYTE   N05  Cn3
 BYTE   W24
 BYTE   En2
 BYTE   N05  An2
 BYTE   W24
 BYTE   N06  En2
 BYTE   N06  An2
 BYTE   W12
// 013   ----------------------------------------
 BYTE   W12
 BYTE   Fn2
 BYTE   N06  An2
 BYTE   W24
 BYTE   N05  Fn2
 BYTE   N05  An2
 BYTE   W24
 BYTE   N06  Dn2
 BYTE   N06  Gn2
 BYTE   W24
 BYTE   Dn2
 BYTE   N06  Gn2
 BYTE   W12
// 014   ----------------------------------------
 BYTE   W12
 BYTE   N05
 BYTE   N05  Cn3
 BYTE   W24
 BYTE   Gn2
 BYTE   N05  Cn3
 BYTE   W24
 BYTE   N06  En2
 BYTE   N06  An2
 BYTE   W24
 BYTE   En2
 BYTE   N06  An2
 BYTE   W12
// 015   ----------------------------------------
 BYTE   W12
 BYTE   N05  Fn2
 BYTE   N05  An2
 BYTE   W12
 BYTE   Fn2
 BYTE   N05  An2
 BYTE   W36
 BYTE   N06  Fn2
 BYTE   N06  An2
 BYTE   W12
 BYTE   Fn2
 BYTE   N06  An2
 BYTE   W24
// 016   ----------------------------------------
 BYTE   W12
 BYTE   N05  Gn2
 BYTE   N05  Bn2
 BYTE   W12
 BYTE   N06  Gn2
 BYTE   N06  Bn2
 BYTE   W36
 BYTE   Gn2
 BYTE   N06  Bn2
 BYTE   W12
 BYTE   N05  Gn2
 BYTE   N05  Bn2
 BYTE   W24
// 017   ----------------------------------------
 BYTE   W12
 BYTE   N06  An2
 BYTE   N06  Bn2
 BYTE   W24
 BYTE   An2
 BYTE   N06  Bn2
 BYTE   W24
 BYTE   N05  An2
 BYTE   N05  Bn2
 BYTE   W24
 BYTE   N06  An2
 BYTE   N06  Bn2
 BYTE   W12
// 018   ----------------------------------------
 BYTE   W12
 BYTE   Gs2
 BYTE   N06  Bn2
 BYTE   W12
 BYTE   Gs2
 BYTE   N06  Bn2
 BYTE   W12
 BYTE   N05  Gs2
 BYTE   N05  Bn2
 BYTE   W12
 BYTE   Gs2
 BYTE   N05  Bn2
 BYTE   W24
 BYTE   N06  Gs2
 BYTE   N06  Bn2
 BYTE   W24
// 019   ----------------------------------------
 BYTE   GoTo
  POIN2 Label_2_014892F9
 BYTE   FINE

//**************** Track 4 (Midi-Chn.3) ****************//

LoZOcarinaofTimeLostWoodsAReliableChair_004:
// 000   ----------------------------------------
 BYTE   KEYSH   LoZOcarinaofTimeLostWoodsAReliableChair_key+0
 BYTE   VOICE   46
 BYTE   PAN   c_v+63
 BYTE   VOL   34*LoZOcarinaofTimeLostWoodsAReliableChair_mvl/mxv
 BYTE   W96
// 001   ----------------------------------------
Label_3_014893D5:
 BYTE   W96
// 002   ----------------------------------------
 BYTE   W96
// 003   ----------------------------------------
 BYTE   W96
// 004   ----------------------------------------
 BYTE   W96
// 005   ----------------------------------------
 BYTE   W96
// 006   ----------------------------------------
 BYTE   W96
// 007   ----------------------------------------
 BYTE   W96
// 008   ----------------------------------------
 BYTE   W96
// 009   ----------------------------------------
 BYTE   W96
// 010   ----------------------------------------
 BYTE   W96
// 011   ----------------------------------------
 BYTE   W96
// 012   ----------------------------------------
 BYTE   W96
// 013   ----------------------------------------
 BYTE   W96
// 014   ----------------------------------------
 BYTE   W96
// 015   ----------------------------------------
 BYTE   W96
// 016   ----------------------------------------
 BYTE   W96
// 017   ----------------------------------------
 BYTE   W96
// 018   ----------------------------------------
 BYTE   W72
 BYTE   N03  En5  v064
 BYTE   W06
 BYTE   N02
 BYTE   W06
 BYTE   N03
 BYTE   W12
// 019   ----------------------------------------
 BYTE   GoTo
  POIN2 Label_3_014893D5
 BYTE   FINE

//**************** Track 5 (Midi-Chn.4) ****************//

LoZOcarinaofTimeLostWoodsAReliableChair_005:
// 000   ----------------------------------------
 BYTE   KEYSH   LoZOcarinaofTimeLostWoodsAReliableChair_key+0
 BYTE   VOICE   73
 BYTE   PAN   c_v-34
 BYTE   VOL   64*LoZOcarinaofTimeLostWoodsAReliableChair_mvl/mxv
 BYTE   W96
// 001   ----------------------------------------
Label_4_01489401:
 BYTE   MOD 0
 BYTE   FsM2
 BYTE   N09  Fn4  v064
 BYTE   W12
 BYTE   N08  An4
 BYTE   W12
 BYTE   N24  Bn4
 BYTE   W24
 BYTE   N08  Fn4
 BYTE   W12
 BYTE   An4
 BYTE   W12
 BYTE   N24  Bn4
 BYTE   W24
// 002   ----------------------------------------
 BYTE   N08  Fn4
 BYTE   W12
 BYTE   An4
 BYTE   W12
 BYTE   Bn4
 BYTE   W12
 BYTE   En5
 BYTE   W12
 BYTE   N24  Dn5
 BYTE   W24
 BYTE   N09  Bn4
 BYTE   W12
 BYTE   N08  Cn5
 BYTE   W12
// 003   ----------------------------------------
 BYTE   N12  Bn4
 BYTE   W12
 BYTE   N08  Gn4
 BYTE   W12
 BYTE   N60  En4
 BYTE   W36
 BYTE   VOL   62*LoZOcarinaofTimeLostWoodsAReliableChair_mvl/mxv
 BYTE   W01
 BYTE   Cs3
 BYTE   W01
 BYTE   Cs3
 BYTE   W01
 BYTE   Cn3
 BYTE   W01
 BYTE   Bn2
 BYTE   W01
 BYTE   As2
 BYTE   W01
 BYTE   An2
 BYTE   W01
 BYTE   Gs2
 BYTE   W01
 BYTE   Gn2
 BYTE   W01
 BYTE   Fs2
 BYTE   W01
 BYTE   Fn2
 BYTE   W01
 BYTE   En2
 BYTE   W01
 BYTE   Ds2
 BYTE   W01
 BYTE   Dn2
 BYTE   W01
 BYTE   Cs2
 BYTE   W01
 BYTE   Cn2
 BYTE   W01
 BYTE   Bn1
 BYTE   W01
 BYTE   Bn1
 BYTE   W01
 BYTE   As1
 BYTE   W01
 BYTE   An1
 BYTE   W01
 BYTE   Gs1
 BYTE   W01
 BYTE   Gn1
 BYTE   W01
 BYTE   Fs1
 BYTE   W01
 BYTE   Fn1
 BYTE   W01
 BYTE   En3
 BYTE   N12  Dn4
 BYTE   W12
// 004   ----------------------------------------
 BYTE   N08  En4
 BYTE   W12
 BYTE   Gn4
 BYTE   W12
 BYTE   N68  En4
 BYTE   W36
 BYTE   VOL   63*LoZOcarinaofTimeLostWoodsAReliableChair_mvl/mxv
 BYTE   W01
 BYTE   Dn3
 BYTE   W01
 BYTE   Cs3
 BYTE   W01
 BYTE   Cs3
 BYTE   W01
 BYTE   Cn3
 BYTE   W01
 BYTE   Cn3
 BYTE   W01
 BYTE   Bn2
 BYTE   W01
 BYTE   Bn2
 BYTE   W01
 BYTE   As2
 BYTE   W01
 BYTE   An2
 BYTE   W01
 BYTE   An2
 BYTE   W01
 BYTE   Gs2
 BYTE   W01
 BYTE   Gn2
 BYTE   W01
 BYTE   Gn2
 BYTE   W01
 BYTE   Fs2
 BYTE   W01
 BYTE   Fn2
 BYTE   W01
 BYTE   Fn2
 BYTE   W01
 BYTE   En2
 BYTE   W01
 BYTE   En2
 BYTE   W01
 BYTE   Ds2
 BYTE   W01
 BYTE   Dn2
 BYTE   W01
 BYTE   Dn2
 BYTE   W01
 BYTE   Cs2
 BYTE   W01
 BYTE   Cn2
 BYTE   W01
 BYTE   Cn2
 BYTE   W01
 BYTE   Bn1
 BYTE   W01
 BYTE   As1
 BYTE   W01
 BYTE   As1
 BYTE   W01
 BYTE   An1
 BYTE   W01
 BYTE   An1
 BYTE   W01
 BYTE   Gs1
 BYTE   W02
 BYTE   Gn1
 BYTE   W01
 BYTE   Fs1
 BYTE   W01
 BYTE   Fn1
 BYTE   W02
// 005   ----------------------------------------
 BYTE   En3
 BYTE   N08  Fn4
 BYTE   W12
 BYTE   An4
 BYTE   W12
 BYTE   N24  Bn4
 BYTE   W24
 BYTE   N08  Fn4
 BYTE   W12
 BYTE   An4
 BYTE   W12
 BYTE   N23  Bn4
 BYTE   W24
// 006   ----------------------------------------
 BYTE   N08  Fn4
 BYTE   W12
 BYTE   An4
 BYTE   W12
 BYTE   N09  Bn4
 BYTE   W12
 BYTE   N08  En5
 BYTE   W12
 BYTE   N23  Dn5
 BYTE   W24
 BYTE   N08  Bn4
 BYTE   W12
 BYTE   Cn5
 BYTE   W12
// 007   ----------------------------------------
 BYTE   N12  En5
 BYTE   W12
 BYTE   N09  Bn4
 BYTE   W12
 BYTE   N56  Gn4
 BYTE   W32
 BYTE   W03
 BYTE   VOL   63*LoZOcarinaofTimeLostWoodsAReliableChair_mvl/mxv
 BYTE   W01
 BYTE   Dn3
 BYTE   W01
 BYTE   Cs3
 BYTE   W01
 BYTE   Cn3
 BYTE   W01
 BYTE   Bn2
 BYTE   W01
 BYTE   As2
 BYTE   W01
 BYTE   An2
 BYTE   W01
 BYTE   Gs2
 BYTE   W01
 BYTE   Gn2
 BYTE   W01
 BYTE   Fs2
 BYTE   W01
 BYTE   Fn2
 BYTE   W01
 BYTE   En2
 BYTE   W01
 BYTE   Ds2
 BYTE   W01
 BYTE   Dn2
 BYTE   W01
 BYTE   Cs2
 BYTE   W01
 BYTE   Cn2
 BYTE   W01
 BYTE   Bn1
 BYTE   W01
 BYTE   As1
 BYTE   W01
 BYTE   An1
 BYTE   W01
 BYTE   Gs1
 BYTE   W01
 BYTE   Gn1
 BYTE   W01
 BYTE   Fs1
 BYTE   W01
 BYTE   Fn1
 BYTE   W01
 BYTE   En1
 BYTE   W01
 BYTE   Ds1
 BYTE   W01
 BYTE   En3
 BYTE   N08  Bn4
 BYTE   W12
// 008   ----------------------------------------
 BYTE   N12  Gn4
 BYTE   W12
 BYTE   N08  Dn4
 BYTE   W12
 BYTE   N68  En4
 BYTE   W36
 BYTE   W01
 BYTE   VOL   62*LoZOcarinaofTimeLostWoodsAReliableChair_mvl/mxv
 BYTE   W01
 BYTE   Dn3
 BYTE   W01
 BYTE   Cs3
 BYTE   W01
 BYTE   Cs3
 BYTE   W01
 BYTE   Cn3
 BYTE   W01
 BYTE   Bn2
 BYTE   W01
 BYTE   Bn2
 BYTE   W01
 BYTE   As2
 BYTE   W01
 BYTE   An2
 BYTE   W01
 BYTE   An2
 BYTE   W01
 BYTE   Gs2
 BYTE   W01
 BYTE   Gs2
 BYTE   W01
 BYTE   Gn2
 BYTE   W01
 BYTE   Fs2
 BYTE   W01
 BYTE   Fs2
 BYTE   W01
 BYTE   Fn2
 BYTE   W01
 BYTE   Fn2
 BYTE   W01
 BYTE   En2
 BYTE   W01
 BYTE   Ds2
 BYTE   W01
 BYTE   Ds2
 BYTE   W01
 BYTE   Dn2
 BYTE   W01
 BYTE   Cs2
 BYTE   W01
 BYTE   Cs2
 BYTE   W01
 BYTE   Cn2
 BYTE   W01
 BYTE   Bn1
 BYTE   W01
 BYTE   Bn1
 BYTE   W01
 BYTE   As1
 BYTE   W01
 BYTE   An1
 BYTE   W01
 BYTE   An1
 BYTE   W01
 BYTE   Gs1
 BYTE   W01
 BYTE   Gs1
 BYTE   W01
 BYTE   Gn1
 BYTE   W01
 BYTE   Fs1
 BYTE   W01
 BYTE   Fs1
 BYTE   W02
// 009   ----------------------------------------
 BYTE   En3
 BYTE   W96
// 010   ----------------------------------------
 BYTE   W96
// 011   ----------------------------------------
 BYTE   N11  Fn4
 BYTE   W12
 BYTE   N08  Gn4
 BYTE   W12
 BYTE   N24  An4
 BYTE   W24
 BYTE   N12  Bn4
 BYTE   W12
 BYTE   N08  Cn5
 BYTE   W12
 BYTE   N23  Dn5
 BYTE   W24
// 012   ----------------------------------------
 BYTE   N12  En5
 BYTE   W12
 BYTE   N08  Fn5
 BYTE   W12
 BYTE   N68  Gn5
 BYTE   W36
 BYTE   VOL   62*LoZOcarinaofTimeLostWoodsAReliableChair_mvl/mxv
 BYTE   W01
 BYTE   Dn3
 BYTE   W01
 BYTE   Cs3
 BYTE   W01
 BYTE   Cn3
 BYTE   W01
 BYTE   Bn2
 BYTE   W01
 BYTE   Bn2
 BYTE   W01
 BYTE   As2
 BYTE   W01
 BYTE   As2
 BYTE   W01
 BYTE   An2
 BYTE   W01
 BYTE   Gs2
 BYTE   W01
 BYTE   Gn2
 BYTE   W02
 BYTE   Fs2
 BYTE   W01
 BYTE   Fs2
 BYTE   W01
 BYTE   Fn2
 BYTE   W01
 BYTE   En2
 BYTE   W01
 BYTE   En2
 BYTE   W01
 BYTE   Ds2
 BYTE   W01
 BYTE   Dn2
 BYTE   W01
 BYTE   Cs2
 BYTE   W01
 BYTE   Cs2
 BYTE   W01
 BYTE   Cn2
 BYTE   W01
 BYTE   Bn1
 BYTE   W01
 BYTE   Bn1
 BYTE   W01
 BYTE   As1
 BYTE   W01
 BYTE   An1
 BYTE   W01
 BYTE   An1
 BYTE   W01
 BYTE   Gs1
 BYTE   W01
 BYTE   Gn1
 BYTE   W01
 BYTE   Gn1
 BYTE   W01
 BYTE   Fs1
 BYTE   W01
 BYTE   Fn1
 BYTE   W01
 BYTE   En1
 BYTE   W01
 BYTE   En1
 BYTE   W01
 BYTE   Ds1
 BYTE   W02
// 013   ----------------------------------------
 BYTE   En3
 BYTE   W96
// 014   ----------------------------------------
 BYTE   W96
// 015   ----------------------------------------
 BYTE   N12  Fn4
 BYTE   W12
 BYTE   N08  En4
 BYTE   W12
 BYTE   N11  An4
 BYTE   W12
 BYTE   N08  Gn4
 BYTE   W12
 BYTE   N12  Bn4
 BYTE   W12
 BYTE   N08  An4
 BYTE   W12
 BYTE   N12  Cn5
 BYTE   W12
 BYTE   N08  Bn4
 BYTE   W12
// 016   ----------------------------------------
 BYTE   N12  Dn5
 BYTE   W12
 BYTE   N08  Cn5
 BYTE   W12
 BYTE   N12  En5
 BYTE   W12
 BYTE   N08  Dn5
 BYTE   W12
 BYTE   N12  Fn5
 BYTE   W12
 BYTE   N09  En5
 BYTE   W12
 BYTE   N05  Bn4
 BYTE   W06
 BYTE   N08  Cn5
 BYTE   W12
 BYTE   N06  An4
 BYTE   W06
// 017   ----------------------------------------
 BYTE   N92  Bn4
 BYTE   W36
 BYTE   W01
 BYTE   VOL   63*LoZOcarinaofTimeLostWoodsAReliableChair_mvl/mxv
 BYTE   W01
 BYTE   Dn3
 BYTE   W01
 BYTE   Dn3
 BYTE   W01
 BYTE   Cs3
 BYTE   W01
 BYTE   Cs3
 BYTE   W01
 BYTE   Cn3
 BYTE   W01
 BYTE   Cn3
 BYTE   W01
 BYTE   Bn2
 BYTE   W01
 BYTE   Bn2
 BYTE   W01
 BYTE   As2
 BYTE   W01
 BYTE   As2
 BYTE   W01
 BYTE   An2
 BYTE   W01
 BYTE   An2
 BYTE   W01
 BYTE   Gs2
 BYTE   W01
 BYTE   Gs2
 BYTE   W01
 BYTE   Gn2
 BYTE   W01
 BYTE   Gn2
 BYTE   W01
 BYTE   Fs2
 BYTE   W01
 BYTE   Fs2
 BYTE   W01
 BYTE   Fn2
 BYTE   W02
 BYTE   En2
 BYTE   W01
 BYTE   En2
 BYTE   W01
 BYTE   Ds2
 BYTE   W01
 BYTE   Dn2
 BYTE   W01
 BYTE   Dn2
 BYTE   W01
 BYTE   Cs2
 BYTE   W01
 BYTE   Cs2
 BYTE   W01
 BYTE   Cn2
 BYTE   W01
 BYTE   Cn2
 BYTE   W01
 BYTE   Bn1
 BYTE   W01
 BYTE   Bn1
 BYTE   W01
 BYTE   As1
 BYTE   W01
 BYTE   As1
 BYTE   W01
 BYTE   An1
 BYTE   W01
 BYTE   An1
 BYTE   W01
 BYTE   Gs1
 BYTE   W01
 BYTE   Gs1
 BYTE   W01
 BYTE   Gn1
 BYTE   W01
 BYTE   Gn1
 BYTE   W01
 BYTE   Fs1
 BYTE   W01
 BYTE   Fs1
 BYTE   W01
 BYTE   Fn1
 BYTE   W01
 BYTE   Fn1
 BYTE   W01
 BYTE   En1
 BYTE   W01
 BYTE   En1
 BYTE   W01
 BYTE   Ds1
 BYTE   W01
 BYTE   Ds1
 BYTE   W01
 BYTE   Dn1
 BYTE   W01
 BYTE   Dn1
 BYTE   W01
 BYTE   Cs1
 BYTE   W01
 BYTE   Cs1
 BYTE   W01
 BYTE   Cn1
 BYTE   W01
 BYTE   Bn0
 BYTE   W02
 BYTE   As0
 BYTE   W01
 BYTE   As0
 BYTE   W01
 BYTE   An0
 BYTE   W02
// 018   ----------------------------------------
 BYTE   Gs0
 BYTE   W96
// 019   ----------------------------------------
 BYTE   GoTo
  POIN2 Label_4_01489401
 BYTE   FINE

//**************** Track 6 (Midi-Chn.5) ****************//

LoZOcarinaofTimeLostWoodsAReliableChair_006:
// 000   ----------------------------------------
 BYTE   KEYSH   LoZOcarinaofTimeLostWoodsAReliableChair_key+0
 BYTE   VOICE   68
 BYTE   PAN   c_v+46
 BYTE   VOL   60*LoZOcarinaofTimeLostWoodsAReliableChair_mvl/mxv
 BYTE   W96
// 001   ----------------------------------------
Label_5_01489685:
 BYTE   W96
// 002   ----------------------------------------
 BYTE   W96
// 003   ----------------------------------------
 BYTE   W96
// 004   ----------------------------------------
 BYTE   W96
// 005   ----------------------------------------
 BYTE   W96
// 006   ----------------------------------------
 BYTE   W96
// 007   ----------------------------------------
 BYTE   W96
// 008   ----------------------------------------
 BYTE   W96
// 009   ----------------------------------------
 BYTE   N12  Dn3  v064
 BYTE   W12
 BYTE   N08  En3
 BYTE   W12
 BYTE   N23  Fn3
 BYTE   W24
 BYTE   N12  Gn3
 BYTE   W12
 BYTE   N09  An3
 BYTE   W12
 BYTE   N24  Bn3
 BYTE   W24
// 010   ----------------------------------------
 BYTE   N12  Cn4
 BYTE   W12
 BYTE   N08  Bn3
 BYTE   W12
 BYTE   N68  En3
 BYTE   W32
 BYTE   W02
 BYTE   VOL   59*LoZOcarinaofTimeLostWoodsAReliableChair_mvl/mxv
 BYTE   W01
 BYTE   Bn2
 BYTE   W01
 BYTE   As2
 BYTE   W01
 BYTE   An2
 BYTE   W01
 BYTE   An2
 BYTE   W01
 BYTE   Gs2
 BYTE   W01
 BYTE   Gn2
 BYTE   W02
 BYTE   Fs2
 BYTE   W02
 BYTE   Fn2
 BYTE   W01
 BYTE   Fn2
 BYTE   W01
 BYTE   En2
 BYTE   W01
 BYTE   En2
 BYTE   W01
 BYTE   Ds2
 BYTE   W01
 BYTE   Dn2
 BYTE   W01
 BYTE   Dn2
 BYTE   W01
 BYTE   Cs2
 BYTE   W01
 BYTE   Cs2
 BYTE   W01
 BYTE   Cn2
 BYTE   W01
 BYTE   Bn1
 BYTE   W01
 BYTE   Bn1
 BYTE   W01
 BYTE   As1
 BYTE   W01
 BYTE   As1
 BYTE   W01
 BYTE   An1
 BYTE   W01
 BYTE   An1
 BYTE   W01
 BYTE   Gs1
 BYTE   W01
 BYTE   Gn1
 BYTE   W01
 BYTE   Gn1
 BYTE   W01
 BYTE   Fs1
 BYTE   W01
 BYTE   Fn1
 BYTE   W01
 BYTE   Fn1
 BYTE   W01
 BYTE   En1
 BYTE   W01
 BYTE   En1
 BYTE   W01
 BYTE   Ds1
 BYTE   W01
 BYTE   Ds1
 BYTE   W01
 BYTE   Dn1
 BYTE   W02
// 011   ----------------------------------------
 BYTE   Cn3
 BYTE   N11  Dn3
 BYTE   W12
 BYTE   N08  En3
 BYTE   W12
 BYTE   N24  Fn3
 BYTE   W24
 BYTE   N12  Gn3
 BYTE   W12
 BYTE   N08  An3
 BYTE   W12
 BYTE   N23  Bn3
 BYTE   W24
// 012   ----------------------------------------
 BYTE   N12  Cn4
 BYTE   W12
 BYTE   N08  Dn4
 BYTE   W12
 BYTE   N68  En4
 BYTE   W32
 BYTE   W02
 BYTE   VOL   59*LoZOcarinaofTimeLostWoodsAReliableChair_mvl/mxv
 BYTE   W01
 BYTE   Bn2
 BYTE   W01
 BYTE   As2
 BYTE   W01
 BYTE   As2
 BYTE   W01
 BYTE   An2
 BYTE   W01
 BYTE   Gs2
 BYTE   W01
 BYTE   Gs2
 BYTE   W01
 BYTE   Gn2
 BYTE   W01
 BYTE   Gn2
 BYTE   W01
 BYTE   Fs2
 BYTE   W01
 BYTE   Fs2
 BYTE   W01
 BYTE   Fn2
 BYTE   W01
 BYTE   Fn2
 BYTE   W01
 BYTE   En2
 BYTE   W01
 BYTE   En2
 BYTE   W01
 BYTE   Ds2
 BYTE   W01
 BYTE   Dn2
 BYTE   W01
 BYTE   Dn2
 BYTE   W01
 BYTE   Cs2
 BYTE   W01
 BYTE   Cs2
 BYTE   W01
 BYTE   Cn2
 BYTE   W01
 BYTE   Cn2
 BYTE   W01
 BYTE   Bn1
 BYTE   W01
 BYTE   As1
 BYTE   W01
 BYTE   As1
 BYTE   W01
 BYTE   An1
 BYTE   W01
 BYTE   An1
 BYTE   W01
 BYTE   Gs1
 BYTE   W01
 BYTE   Gs1
 BYTE   W01
 BYTE   Gn1
 BYTE   W01
 BYTE   Gn1
 BYTE   W01
 BYTE   Fs1
 BYTE   W01
 BYTE   Fn1
 BYTE   W02
 BYTE   En1
 BYTE   W01
 BYTE   En1
 BYTE   W01
 BYTE   Ds1
 BYTE   W02
// 013   ----------------------------------------
 BYTE   Cn3
 BYTE   N12  Dn3
 BYTE   W12
 BYTE   N09  En3
 BYTE   W12
 BYTE   N24  Fn3
 BYTE   W24
 BYTE   N11  Gn3
 BYTE   W12
 BYTE   N08  An3
 BYTE   W12
 BYTE   N24  Bn3
 BYTE   W24
// 014   ----------------------------------------
 BYTE   N12  Cn4
 BYTE   W12
 BYTE   N08  Bn3
 BYTE   W12
 BYTE   N68  En3
 BYTE   W32
 BYTE   W02
 BYTE   VOL   59*LoZOcarinaofTimeLostWoodsAReliableChair_mvl/mxv
 BYTE   W01
 BYTE   Bn2
 BYTE   W01
 BYTE   As2
 BYTE   W01
 BYTE   An2
 BYTE   W02
 BYTE   Gs2
 BYTE   W01
 BYTE   Gs2
 BYTE   W01
 BYTE   Gn2
 BYTE   W01
 BYTE   Gn2
 BYTE   W01
 BYTE   Fs2
 BYTE   W01
 BYTE   Fn2
 BYTE   W02
 BYTE   En2
 BYTE   W01
 BYTE   En2
 BYTE   W01
 BYTE   Ds2
 BYTE   W01
 BYTE   Ds2
 BYTE   W01
 BYTE   Dn2
 BYTE   W01
 BYTE   Dn2
 BYTE   W01
 BYTE   Cs2
 BYTE   W01
 BYTE   Cs2
 BYTE   W01
 BYTE   Cn2
 BYTE   W01
 BYTE   Bn1
 BYTE   W01
 BYTE   Bn1
 BYTE   W01
 BYTE   As1
 BYTE   W01
 BYTE   An1
 BYTE   W02
 BYTE   Gs1
 BYTE   W01
 BYTE   Gs1
 BYTE   W01
 BYTE   Gn1
 BYTE   W01
 BYTE   Gn1
 BYTE   W01
 BYTE   Fs1
 BYTE   W01
 BYTE   Fs1
 BYTE   W01
 BYTE   Fn1
 BYTE   W01
 BYTE   Fn1
 BYTE   W01
 BYTE   En1
 BYTE   W01
 BYTE   Ds1
 BYTE   W01
 BYTE   Ds1
 BYTE   W02
// 015   ----------------------------------------
 BYTE   Cn3
 BYTE   N12  Dn3
 BYTE   W12
 BYTE   N08  Cn3
 BYTE   W12
 BYTE   N11  Fn3
 BYTE   W12
 BYTE   N08  En3
 BYTE   W12
 BYTE   N12  Gn3
 BYTE   W12
 BYTE   N08  Fn3
 BYTE   W12
 BYTE   N12  An3
 BYTE   W12
 BYTE   N08  Gn3
 BYTE   W12
// 016   ----------------------------------------
 BYTE   N12  Bn3
 BYTE   W12
 BYTE   N08  An3
 BYTE   W12
 BYTE   N12  Cn4
 BYTE   W12
 BYTE   N08  Bn3
 BYTE   W12
 BYTE   N12  Dn4
 BYTE   W12
 BYTE   N09  Cn4
 BYTE   W12
 BYTE   N05  En4
 BYTE   W06
 BYTE   N08  Fn4
 BYTE   W12
 BYTE   N06  Dn4
 BYTE   W06
// 017   ----------------------------------------
 BYTE   N92  En4
 BYTE   W36
 BYTE   VOL   59*LoZOcarinaofTimeLostWoodsAReliableChair_mvl/mxv
 BYTE   W01
 BYTE   Bn2
 BYTE   W01
 BYTE   As2
 BYTE   W01
 BYTE   As2
 BYTE   W01
 BYTE   An2
 BYTE   W01
 BYTE   An2
 BYTE   W01
 BYTE   Gs2
 BYTE   W01
 BYTE   Gs2
 BYTE   W01
 BYTE   Gn2
 BYTE   W01
 BYTE   Gn2
 BYTE   W01
 BYTE   Fs2
 BYTE   W01
 BYTE   Fs2
 BYTE   W01
 BYTE   Fn2
 BYTE   W01
 BYTE   Fn2
 BYTE   W01
 BYTE   En2
 BYTE   W01
 BYTE   En2
 BYTE   W01
 BYTE   Ds2
 BYTE   W01
 BYTE   Ds2
 BYTE   W01
 BYTE   Dn2
 BYTE   W01
 BYTE   Dn2
 BYTE   W01
 BYTE   Cs2
 BYTE   W02
 BYTE   Cs2
 BYTE   W01
 BYTE   Cn2
 BYTE   W01
 BYTE   Bn1
 BYTE   W01
 BYTE   Bn1
 BYTE   W01
 BYTE   As1
 BYTE   W01
 BYTE   As1
 BYTE   W01
 BYTE   An1
 BYTE   W02
 BYTE   Gs1
 BYTE   W02
 BYTE   Gs1
 BYTE   W01
 BYTE   Gn1
 BYTE   W01
 BYTE   Gn1
 BYTE   W01
 BYTE   Fs1
 BYTE   W01
 BYTE   Fs1
 BYTE   W01
 BYTE   Fn1
 BYTE   W01
 BYTE   Fn1
 BYTE   W01
 BYTE   En1
 BYTE   W01
 BYTE   En1
 BYTE   W01
 BYTE   Ds1
 BYTE   W01
 BYTE   Ds1
 BYTE   W01
 BYTE   Dn1
 BYTE   W01
 BYTE   Dn1
 BYTE   W01
 BYTE   Cs1
 BYTE   W01
 BYTE   Cs1
 BYTE   W01
 BYTE   Cn1
 BYTE   W01
 BYTE   Cn1
 BYTE   W01
 BYTE   Bn0
 BYTE   W01
 BYTE   Bn0
 BYTE   W01
 BYTE   As0
 BYTE   W01
 BYTE   As0
 BYTE   W01
 BYTE   An0
 BYTE   W01
 BYTE   An0
 BYTE   W01
 BYTE   Gs0
 BYTE   W01
 BYTE   Gs0
 BYTE   W01
 BYTE   Gn0
 BYTE   W01
 BYTE   Gn0
 BYTE   W02
// 018   ----------------------------------------
 BYTE   Fs0
 BYTE   W96
// 019   ----------------------------------------
 BYTE   GoTo
  POIN2 Label_5_01489685
 BYTE   FINE

//**************** Track 7 (Midi-Chn.6) ****************//

LoZOcarinaofTimeLostWoodsAReliableChair_007:
// 000   ----------------------------------------
 BYTE   KEYSH   LoZOcarinaofTimeLostWoodsAReliableChair_key+0
 BYTE   VOICE   51
 BYTE   PAN   c_v-1
 BYTE   VOL   35*LoZOcarinaofTimeLostWoodsAReliableChair_mvl/mxv
 BYTE   W96
// 001   ----------------------------------------
Label_6_01489875:
 BYTE   TIE  Cn3  v032
 BYTE   TIE  Fn3
 BYTE   TIE  An3
 BYTE   W96
 BYTE   PEND 
// 002   ----------------------------------------
 BYTE   W96
// 003   ----------------------------------------
 BYTE   EOT
 BYTE   Cn3  v065
 BYTE   An3
Label_6_01489883:
 BYTE   TIE  En3  v032
 BYTE   TIE  Gn3
 BYTE   N96  Bn3
 BYTE   W96
 BYTE   PEND 
// 004   ----------------------------------------
 BYTE   N92  Cn3
 BYTE   W92
 BYTE   W03
 BYTE   EOT
 BYTE   En3  v067
 BYTE   W01
 BYTE   PATT
  POIN2 Label_6_01489875
// 005   ----------------------------------------
 BYTE   W96
// 006   ----------------------------------------
 BYTE   EOT
 BYTE   Cn3  v065
 BYTE   An3
 BYTE   PATT
  POIN2 Label_6_01489883
// 007   ----------------------------------------
 BYTE   N96  Cn3  v032
 BYTE   W96
// 008   ----------------------------------------
 BYTE   EOT
 BYTE   En3  v067
 BYTE   N44  Dn3
 BYTE   N44  Fn3
 BYTE   W48
 BYTE   N48  Dn3
 BYTE   N48  Gn3
 BYTE   W48
// 009   ----------------------------------------
 BYTE   N44  En3
 BYTE   N44  Gn3
 BYTE   W48
 BYTE   N48  En3
 BYTE   N48  An3
 BYTE   W48
// 010   ----------------------------------------
Label_6_014898BE:
 BYTE   N48  Dn3  v032
 BYTE   N48  Fn3
 BYTE   W48
 BYTE   N44  Dn3
 BYTE   N44  Gn3
 BYTE   W48
 BYTE   PEND 
// 011   ----------------------------------------
 BYTE   N48  En3
 BYTE   N48  Gn3
 BYTE   W48
 BYTE   N44  En3
 BYTE   N44  An3
 BYTE   W48
 BYTE   PATT
  POIN2 Label_6_014898BE
// 012   ----------------------------------------
 BYTE   N48  En3  v032
 BYTE   N48  Gn3
 BYTE   W48
 BYTE   En3
 BYTE   N48  An3
 BYTE   W48
// 013   ----------------------------------------
 BYTE   N96  Dn3
 BYTE   N96  Fn3
 BYTE   N96  An3
 BYTE   W96
// 014   ----------------------------------------
 BYTE   En3
 BYTE   N96  Gn3
 BYTE   N96  Bn3
 BYTE   W96
// 015   ----------------------------------------
 BYTE   N92  En3
 BYTE   N92  An3
 BYTE   N92  Bn3
 BYTE   W96
// 016   ----------------------------------------
 BYTE   N78  En3
 BYTE   N78  Gs3
 BYTE   N78  Bn3
 BYTE   W96
// 017   ----------------------------------------
 BYTE   GoTo
  POIN2 Label_6_01489875
 BYTE   FINE

//**************** Track 8 (Midi-Chn.7) ****************//

LoZOcarinaofTimeLostWoodsAReliableChair_008:
// 000   ----------------------------------------
 BYTE   KEYSH   LoZOcarinaofTimeLostWoodsAReliableChair_key+0
 BYTE   VOICE   121
 BYTE   PAN   c_v-1
 BYTE   VOL   60*LoZOcarinaofTimeLostWoodsAReliableChair_mvl/mxv
 BYTE   N03  Fs2  v064
 BYTE   W12
 BYTE   N03
 BYTE   W06
 BYTE   N03
 BYTE   W06
 BYTE   N02
 BYTE   W12
 BYTE   N02
 BYTE   W06
 BYTE   N03
 BYTE   W06
 BYTE   N02
 BYTE   W12
 BYTE   N03
 BYTE   W24
 BYTE   Cs1
 BYTE   N03  Fs2
 BYTE   N03  Cs3
 BYTE   W12
// 001   ----------------------------------------
Label_7_01489924:
 BYTE   N03  Fs2  v064
 BYTE   N03  As3
 BYTE   W12
 BYTE   N02  Fs2
 BYTE   N02  As3
 BYTE   W06
 BYTE   N03  Fs2
 BYTE   N03  As3
 BYTE   W06
 BYTE   N02  Fs2
 BYTE   N02  As3
 BYTE   W12
 BYTE   Fs2
 BYTE   N02  As3
 BYTE   W12
 BYTE   N03  Fs2
 BYTE   N03  As3
 BYTE   W12
 BYTE   Fs2
 BYTE   N03  As3
 BYTE   W06
 BYTE   N02  Fs2
 BYTE   N02  As3
 BYTE   W06
 BYTE   N03  Cs1
 BYTE   N03  Fs2
 BYTE   N03  Cs3
 BYTE   N03  As3
 BYTE   W12
 BYTE   Fs2
 BYTE   N03  As3
 BYTE   W12
// 002   ----------------------------------------
Label_7_01489958:
 BYTE   N02  Fs2  v064
 BYTE   N02  As3
 BYTE   W12
 BYTE   Fs2
 BYTE   N02  As3
 BYTE   W06
 BYTE   N03  Fs2
 BYTE   N03  As3
 BYTE   W06
 BYTE   N02  Fs2
 BYTE   N02  As3
 BYTE   W12
 BYTE   N03  Fs2
 BYTE   N03  As3
 BYTE   W12
 BYTE   Fs2
 BYTE   N03  As3
 BYTE   W12
 BYTE   Fs2
 BYTE   N03  As3
 BYTE   W06
 BYTE   N02  Fs2
 BYTE   N02  As3
 BYTE   W06
 BYTE   N03  Cs1
 BYTE   N03  Fs2
 BYTE   N03  Cs3
 BYTE   N03  As3
 BYTE   W12
 BYTE   N02  Fs2
 BYTE   N02  As3
 BYTE   W12
 BYTE   PEND 
// 003   ----------------------------------------
 BYTE   Fs2
 BYTE   N02  As3
 BYTE   W12
 BYTE   Fs2
 BYTE   N02  As3
 BYTE   W06
 BYTE   N03  Fs2
 BYTE   N03  As3
 BYTE   W06
 BYTE   Fs2
 BYTE   N03  As3
 BYTE   W12
 BYTE   Fs2
 BYTE   N03  As3
 BYTE   W12
 BYTE   Fs2
 BYTE   N03  As3
 BYTE   W12
 BYTE   Fs2
 BYTE   N03  As3
 BYTE   W06
 BYTE   Fs2
 BYTE   N03  As3
 BYTE   W06
 BYTE   N02  Cs1
 BYTE   N02  Fs2
 BYTE   N02  Cs3
 BYTE   N02  As3
 BYTE   W12
 BYTE   Fs2
 BYTE   N02  As3
 BYTE   W12
// 004   ----------------------------------------
 BYTE   Fs2
 BYTE   N02  As3
 BYTE   W12
 BYTE   N03  Fs2
 BYTE   N03  As3
 BYTE   W06
 BYTE   N02  Fs2
 BYTE   N02  As3
 BYTE   W06
 BYTE   N03  Fs2
 BYTE   N03  As3
 BYTE   W12
 BYTE   Fs2
 BYTE   N03  As3
 BYTE   W12
 BYTE   N02  Fs2
 BYTE   N02  As3
 BYTE   W12
 BYTE   Fs2
 BYTE   N02  As3
 BYTE   W06
 BYTE   N03  Fs2
 BYTE   N03  As3
 BYTE   W06
 BYTE   N02  Cs1
 BYTE   N02  Fs2
 BYTE   N02  Cs3
 BYTE   N02  As3
 BYTE   W12
 BYTE   Fs2
 BYTE   N02  As3
 BYTE   W12
// 005   ----------------------------------------
 BYTE   N03  Fs2
 BYTE   N03  As3
 BYTE   W12
 BYTE   Fs2
 BYTE   N03  As3
 BYTE   W06
 BYTE   N02  Fs2
 BYTE   N02  As3
 BYTE   W06
 BYTE   N03  Fs2
 BYTE   N03  As3
 BYTE   W12
 BYTE   N02  Fs2
 BYTE   N02  As3
 BYTE   W12
 BYTE   Fs2
 BYTE   N02  As3
 BYTE   W12
 BYTE   Fs2
 BYTE   N02  As3
 BYTE   W06
 BYTE   N03  Fs2
 BYTE   N03  As3
 BYTE   W06
 BYTE   N02  Cs1
 BYTE   N02  Fs2
 BYTE   N02  Cs3
 BYTE   N02  As3
 BYTE   W12
 BYTE   N03  Fs2
 BYTE   N03  As3
 BYTE   W12
// 006   ----------------------------------------
 BYTE   Fs2
 BYTE   N03  As3
 BYTE   W12
 BYTE   Fs2
 BYTE   N03  As3
 BYTE   W06
 BYTE   N02  Fs2
 BYTE   N02  As3
 BYTE   W06
 BYTE   Fs2
 BYTE   N02  As3
 BYTE   W12
 BYTE   Fs2
 BYTE   N02  As3
 BYTE   W12
 BYTE   Fs2
 BYTE   N02  As3
 BYTE   W12
 BYTE   Fs2
 BYTE   N02  As3
 BYTE   W06
 BYTE   Fs2
 BYTE   N02  As3
 BYTE   W06
 BYTE   N03  Cs1
 BYTE   N03  Fs2
 BYTE   N03  Cs3
 BYTE   N03  As3
 BYTE   W12
 BYTE   Fs2
 BYTE   N03  As3
 BYTE   W12
// 007   ----------------------------------------
 BYTE   Fs2
 BYTE   N03  As3
 BYTE   W12
 BYTE   N02  Fs2
 BYTE   N02  As3
 BYTE   W06
 BYTE   N03  Fs2
 BYTE   N03  As3
 BYTE   W06
 BYTE   N02  Fs2
 BYTE   N02  As3
 BYTE   W12
 BYTE   Fs2
 BYTE   N02  As3
 BYTE   W12
 BYTE   Fs2
 BYTE   N02  As3
 BYTE   W12
 BYTE   N03  Fs2
 BYTE   N03  As3
 BYTE   W06
 BYTE   N02  Fs2
 BYTE   N02  As3
 BYTE   W06
 BYTE   N03  Cs1
 BYTE   N03  Fs2
 BYTE   N03  Cs3
 BYTE   N03  As3
 BYTE   W12
 BYTE   Fs2
 BYTE   N03  As3
 BYTE   W12
 BYTE   PATT
  POIN2 Label_7_01489958
// 008   ----------------------------------------
 BYTE   N02  Fs2  v064
 BYTE   N02  As3
 BYTE   W12
 BYTE   Fs2
 BYTE   N02  As3
 BYTE   W12
 BYTE   N03  Fs2
 BYTE   N03  As3
 BYTE   W12
 BYTE   Fs2
 BYTE   N03  As3
 BYTE   W06
 BYTE   N02  Fs2
 BYTE   N02  As3
 BYTE   W06
 BYTE   N03  Fs2
 BYTE   N03  As3
 BYTE   W12
 BYTE   Fs2
 BYTE   N03  As3
 BYTE   W06
 BYTE   Fs2
 BYTE   N03  As3
 BYTE   W06
 BYTE   N02  Fs2
 BYTE   N02  As3
 BYTE   W12
 BYTE   Fs2
 BYTE   N02  As3
 BYTE   W06
 BYTE   N03  Fs2
 BYTE   N03  As3
 BYTE   W06
// 009   ----------------------------------------
 BYTE   N02  Fs2
 BYTE   N02  As3
 BYTE   W12
 BYTE   N03  Fs2
 BYTE   N03  As3
 BYTE   W06
 BYTE   N02  Fs2
 BYTE   N02  As3
 BYTE   W06
 BYTE   N03  Fs2
 BYTE   N03  As3
 BYTE   W12
 BYTE   Fs2
 BYTE   N03  As3
 BYTE   W06
 BYTE   N02  Fs2
 BYTE   N02  As3
 BYTE   W06
 BYTE   N03  Fs2
 BYTE   N03  As3
 BYTE   W12
 BYTE   N02  Fs2
 BYTE   N02  As3
 BYTE   W06
 BYTE   N03  Fs2
 BYTE   N03  As3
 BYTE   W06
 BYTE   N02  Fs2
 BYTE   N02  As3
 BYTE   W12
 BYTE   Fs2
 BYTE   N02  As3
 BYTE   W06
 BYTE   N03  Fs2
 BYTE   N03  As3
 BYTE   W06
// 010   ----------------------------------------
 BYTE   Fs2
 BYTE   N03  As3
 BYTE   W12
 BYTE   Fs2
 BYTE   N03  As3
 BYTE   W12
 BYTE   Fs2
 BYTE   N03  As3
 BYTE   W12
 BYTE   Fs2
 BYTE   N03  As3
 BYTE   W06
 BYTE   Fs2
 BYTE   N03  As3
 BYTE   W06
 BYTE   N02  Fs2
 BYTE   N02  As3
 BYTE   W12
 BYTE   Fs2
 BYTE   N02  As3
 BYTE   W06
 BYTE   N03  Fs2
 BYTE   N03  As3
 BYTE   W06
 BYTE   N02  Fs2
 BYTE   N02  As3
 BYTE   W12
 BYTE   N03  Fs2
 BYTE   N03  As3
 BYTE   W06
 BYTE   N02  Fs2
 BYTE   N02  As3
 BYTE   W06
// 011   ----------------------------------------
 BYTE   N03  Fs2
 BYTE   N03  As3
 BYTE   W12
 BYTE   Fs2
 BYTE   N03  As3
 BYTE   W06
 BYTE   N02  Fs2
 BYTE   N02  As3
 BYTE   W06
 BYTE   N03  Fs2
 BYTE   N03  As3
 BYTE   W12
 BYTE   N02  Fs2
 BYTE   N02  As3
 BYTE   W06
 BYTE   N03  Fs2
 BYTE   N03  As3
 BYTE   W06
 BYTE   N02  Fs2
 BYTE   N02  As3
 BYTE   W12
 BYTE   Fs2
 BYTE   N02  As3
 BYTE   W06
 BYTE   Fs2
 BYTE   N02  As3
 BYTE   W06
 BYTE   N03  Fs2
 BYTE   N03  As3
 BYTE   W12
 BYTE   Fs2
 BYTE   N03  As3
 BYTE   W06
 BYTE   N02  Fs2
 BYTE   N02  As3
 BYTE   W06
// 012   ----------------------------------------
 BYTE   N03  Fs2
 BYTE   N03  As3
 BYTE   W12
 BYTE   N02  Fs2
 BYTE   N02  As3
 BYTE   W12
 BYTE   Cs1
 BYTE   N02  Fs2
 BYTE   N02  Cs3
 BYTE   N02  As3
 BYTE   W12
 BYTE   Fs2
 BYTE   N02  As3
 BYTE   W06
 BYTE   N03  Fs2
 BYTE   N03  As3
 BYTE   W06
 BYTE   N02  Fs2
 BYTE   N02  As3
 BYTE   W12
 BYTE   N03  Fs2
 BYTE   N03  As3
 BYTE   W06
 BYTE   N02  Fs2
 BYTE   N02  As3
 BYTE   W06
 BYTE   N03  Cs1
 BYTE   N03  Fs2
 BYTE   N03  Cs3
 BYTE   N03  As3
 BYTE   W12
 BYTE   Fs2
 BYTE   N03  As3
 BYTE   W06
 BYTE   N02  Fs2
 BYTE   N02  As3
 BYTE   W06
// 013   ----------------------------------------
 BYTE   Fs2
 BYTE   N02  As3
 BYTE   W12
 BYTE   Fs2
 BYTE   N02  As3
 BYTE   W06
 BYTE   N03  Fs2
 BYTE   N03  As3
 BYTE   W06
 BYTE   N02  Cs1
 BYTE   N02  Fs2
 BYTE   N02  Cs3
 BYTE   N02  As3
 BYTE   W12
 BYTE   Fs2
 BYTE   N02  As3
 BYTE   W06
 BYTE   Fs2
 BYTE   N02  As3
 BYTE   W06
 BYTE   N03  Fs2
 BYTE   N03  As3
 BYTE   W12
 BYTE   Fs2
 BYTE   N03  As3
 BYTE   W06
 BYTE   N02  Fs2
 BYTE   N02  As3
 BYTE   W06
 BYTE   N03  Cs1
 BYTE   N03  Fs2
 BYTE   N03  Cs3
 BYTE   N03  As3
 BYTE   W12
 BYTE   N02  Fs2
 BYTE   N02  As3
 BYTE   W06
 BYTE   N03  Fs2
 BYTE   N03  As3
 BYTE   W06
// 014   ----------------------------------------
 BYTE   N02  Fs2
 BYTE   N02  As3
 BYTE   W12
 BYTE   Fs2
 BYTE   N02  As3
 BYTE   W06
 BYTE   N03  Fs2
 BYTE   N03  As3
 BYTE   W06
 BYTE   N02  Cs1
 BYTE   N02  Fs2
 BYTE   N02  Cs3
 BYTE   N02  As3
 BYTE   W24
 BYTE   N03  Fs2
 BYTE   N03  As3
 BYTE   W12
 BYTE   Fs2
 BYTE   N03  As3
 BYTE   W06
 BYTE   N02  Fs2
 BYTE   N02  As3
 BYTE   W06
 BYTE   Cs1
 BYTE   N02  Fs2
 BYTE   N02  Cs3
 BYTE   N02  As3
 BYTE   W24
// 015   ----------------------------------------
 BYTE   Fs2
 BYTE   N02  As3
 BYTE   W12
 BYTE   Fs2
 BYTE   N02  As3
 BYTE   W06
 BYTE   Fs2
 BYTE   N02  As3
 BYTE   W06
 BYTE   N03  Cs1
 BYTE   N03  Fs2
 BYTE   N03  Cs3
 BYTE   N03  As3
 BYTE   W24
 BYTE   Fs2
 BYTE   N03  As3
 BYTE   W12
 BYTE   N02  Fs2
 BYTE   N02  As3
 BYTE   W06
 BYTE   N03  Fs2
 BYTE   N03  As3
 BYTE   W06
 BYTE   N02  Cs1
 BYTE   N02  Fs2
 BYTE   N02  Cs3
 BYTE   N02  As3
 BYTE   W24
// 016   ----------------------------------------
 BYTE   N03  Fs2
 BYTE   N03  As3
 BYTE   W12
 BYTE   Fs2
 BYTE   N03  As3
 BYTE   W06
 BYTE   N02  Fs2
 BYTE   N02  As3
 BYTE   W06
 BYTE   N03  Fs2
 BYTE   N03  As3
 BYTE   W12
 BYTE   Fs2
 BYTE   N03  As3
 BYTE   W06
 BYTE   Fs2
 BYTE   N03  As3
 BYTE   W06
 BYTE   N02  Fs2
 BYTE   N02  As3
 BYTE   W12
 BYTE   Fs2
 BYTE   N02  As3
 BYTE   W06
 BYTE   N03  Fs2
 BYTE   N03  As3
 BYTE   W06
 BYTE   N02  Fs2
 BYTE   N02  As3
 BYTE   W12
 BYTE   N03  Fs2
 BYTE   N03  As3
 BYTE   W06
 BYTE   N02  Fs2
 BYTE   N02  As3
 BYTE   W06
// 017   ----------------------------------------
 BYTE   W12
 BYTE   N03  Fs2
 BYTE   N03  As3
 BYTE   W12
 BYTE   Fs2
 BYTE   N03  As3
 BYTE   W12
 BYTE   N02  Fs2
 BYTE   N02  As3
 BYTE   W12
 BYTE   Fs2
 BYTE   N02  As3
 BYTE   W24
 BYTE   N03  Cs1
 BYTE   N03  Fs2
 BYTE   N03  Cs3
 BYTE   N03  As3
 BYTE   W24
// 018   ----------------------------------------
 BYTE   GoTo
  POIN2 Label_7_01489924
 BYTE   FINE

//******************************************************//
	ALIGN 4

LoZOcarinaofTimeLostWoodsAReliableChair:
	BYTE	8	// NumTrks
	BYTE	0	// NumBlks
	BYTE	LoZOcarinaofTimeLostWoodsAReliableChair_pri	// Priority
	BYTE	LoZOcarinaofTimeLostWoodsAReliableChair_rev	// Reverb.
    
	POIN2	LoZOcarinaofTimeLostWoodsAReliableChair_grp
    
	POIN2	LoZOcarinaofTimeLostWoodsAReliableChair_001
	POIN2	LoZOcarinaofTimeLostWoodsAReliableChair_002
	POIN2	LoZOcarinaofTimeLostWoodsAReliableChair_003
	POIN2	LoZOcarinaofTimeLostWoodsAReliableChair_004
	POIN2	LoZOcarinaofTimeLostWoodsAReliableChair_005
	POIN2	LoZOcarinaofTimeLostWoodsAReliableChair_006
	POIN2	LoZOcarinaofTimeLostWoodsAReliableChair_007
	POIN2	LoZOcarinaofTimeLostWoodsAReliableChair_008

	
