//Event file generated from Sappy .s format.
	#include "MPlayDef.event"

	#define	LoZOcarinaofTimeGottheStoneRSflame_grp  voicegroup000
	#define	LoZOcarinaofTimeGottheStoneRSflame_pri  0
	#define	LoZOcarinaofTimeGottheStoneRSflame_rev  0
	#define	LoZOcarinaofTimeGottheStoneRSflame_mvl  127
	#define	LoZOcarinaofTimeGottheStoneRSflame_key  0
	#define	LoZOcarinaofTimeGottheStoneRSflame_tbs  1
	#define	LoZOcarinaofTimeGottheStoneRSflame_exg  0
	#define	LoZOcarinaofTimeGottheStoneRSflame_cmp  1

	// .rodata
	//	LoZOcarinaofTimeGottheStoneRSflame
	ALIGN 4


//**************** Track 1 (Midi-Chn.0) ****************//

LoZOcarinaofTimeGottheStoneRSflame_001:
// 000   ----------------------------------------
 BYTE   KEYSH   LoZOcarinaofTimeGottheStoneRSflame_key+0
 BYTE   TEMPO   74*LoZOcarinaofTimeGottheStoneRSflame_tbs/2
 BYTE   VOICE   46
 BYTE   VOL   47*LoZOcarinaofTimeGottheStoneRSflame_mvl/mxv
 BYTE   W96
// 001   ----------------------------------------
 BYTE   W72
 BYTE   PAN   c_v-4
 BYTE   N12  Bn2  v096
 BYTE   N12  Ds3
 BYTE   W12
 BYTE   Cs3
 BYTE   N12  Fn3
 BYTE   W12
// 002   ----------------------------------------
 BYTE   TEMPO   70*LoZOcarinaofTimeGottheStoneRSflame_tbs/2
 BYTE   N44  En3  v100
 BYTE   N44  Gs3
 BYTE   W18
 BYTE   MOD 0
 BYTE   DsM2
 BYTE   W03
 BYTE   EnM2
 BYTE   W03
 BYTE   FnM2
 BYTE   W24
 BYTE   TEMPO   60*LoZOcarinaofTimeGottheStoneRSflame_tbs/2
 BYTE   CnM2
 BYTE   N09  Gn3  v092
 BYTE   N09  Bn3
 BYTE   W12
 BYTE   Gn3
 BYTE   N09  Bn3
 BYTE   W12
 BYTE   N21  As3  v104
 BYTE   N21  Dn4
 BYTE   W24
// 003   ----------------------------------------
 BYTE   N96  An3  v096
 BYTE   N96  Cs4
 BYTE   W24
 BYTE   MOD 0
 BYTE   DsM2
 BYTE   W03
 BYTE   EnM2
 BYTE   W03
 BYTE   FnM2
 BYTE   W09
 BYTE   FsM2
 BYTE   W09
 BYTE   GnM2
 BYTE   W03
 BYTE   GsM2
 BYTE   W44
 BYTE   W01
 BYTE   FINE

//**************** Track 2 (Midi-Chn.1) ****************//

LoZOcarinaofTimeGottheStoneRSflame_002:
// 000   ----------------------------------------
 BYTE   KEYSH   LoZOcarinaofTimeGottheStoneRSflame_key+0
 BYTE   VOICE   49
 BYTE   VOL   39*LoZOcarinaofTimeGottheStoneRSflame_mvl/mxv
 BYTE   PAN   c_v+48
 BYTE   N36  As1  v088
 BYTE   W36
 BYTE   N12  As1  v096
 BYTE   W12
 BYTE   N24  Cs2  v080
 BYTE   W24
 BYTE   N12  Bn1  v100
 BYTE   W12
 BYTE   Cs2  v084
 BYTE   W12
// 001   ----------------------------------------
 BYTE   N68  As1  v096
 BYTE   W72
 BYTE   N12  Bn1
 BYTE   W12
 BYTE   Cs2
 BYTE   W12
// 002   ----------------------------------------
 BYTE   N48  En2  v100
 BYTE   W48
 BYTE   N12  Gn2  v092
 BYTE   W12
 BYTE   N12
 BYTE   W12
 BYTE   N24  As2  v104
 BYTE   W24
// 003   ----------------------------------------
 BYTE   N96  An2  v096
 BYTE   W96
 BYTE   FINE

//**************** Track 3 (Midi-Chn.2) ****************//

LoZOcarinaofTimeGottheStoneRSflame_003:
// 000   ----------------------------------------
 BYTE   KEYSH   LoZOcarinaofTimeGottheStoneRSflame_key+0
 BYTE   VOICE   13
 BYTE   VOL   47*LoZOcarinaofTimeGottheStoneRSflame_mvl/mxv
 BYTE   PAN   c_v+8
 BYTE   N09  En5  v068
 BYTE   W09
 BYTE   An4  v080
 BYTE   W09
 BYTE   En4  v076
 BYTE   W09
 BYTE   An4  v080
 BYTE   W09
 BYTE   En5  v084
 BYTE   W09
 BYTE   An4  v076
 BYTE   W09
 BYTE   En4  v064
 BYTE   W09
 BYTE   An4  v076
 BYTE   W09
 BYTE   En5
 BYTE   W09
 BYTE   An4  v080
 BYTE   W09
 BYTE   En4  v072
 BYTE   W06
// 001   ----------------------------------------
 BYTE   W03
 BYTE   An4  v076
 BYTE   W09
 BYTE   En5  v092
 BYTE   W09
 BYTE   An4  v080
 BYTE   W09
 BYTE   En4  v076
 BYTE   W09
 BYTE   An4  v052
 BYTE   W09
 BYTE   En5  v056
 BYTE   W09
 BYTE   An4
 BYTE   W09
 BYTE   En4  v048
 BYTE   W09
 BYTE   An4  v052
 BYTE   W09
 BYTE   En5  v056
 BYTE   W09
 BYTE   An4  v052
 BYTE   W03
// 002   ----------------------------------------
 BYTE   W06
 BYTE   En4  v076
 BYTE   W09
 BYTE   An4  v084
 BYTE   W09
 BYTE   En5  v088
 BYTE   W09
 BYTE   An4  v084
 BYTE   W09
 BYTE   En4  v076
 BYTE   W09
 BYTE   An4  v084
 BYTE   W09
 BYTE   En5  v080
 BYTE   W09
 BYTE   An4  v076
 BYTE   W09
 BYTE   En4
 BYTE   W09
 BYTE   An4
 BYTE   W09
// 003   ----------------------------------------
 BYTE   N12  En5  v080
 BYTE   W12
 BYTE   An4  v076
 BYTE   W12
 BYTE   En4  v072
 BYTE   W12
 BYTE   An4  v076
 BYTE   W24
 BYTE   En4  v072
 BYTE   W03
 BYTE   An4  v084
 BYTE   W03
 BYTE   En5  v092
 BYTE   W12
 BYTE   FINE

//**************** Track 4 (Midi-Chn.3) ****************//

LoZOcarinaofTimeGottheStoneRSflame_004:
// 000   ----------------------------------------
 BYTE   KEYSH   LoZOcarinaofTimeGottheStoneRSflame_key+0
 BYTE   VOICE   47
 BYTE   VOL   42*LoZOcarinaofTimeGottheStoneRSflame_mvl/mxv
 BYTE   W96
// 001   ----------------------------------------
 BYTE   W72
 BYTE   N24  An1  v104
 BYTE   W24
// 002   ----------------------------------------
 BYTE   N23  Cn2  v108
 BYTE   W24
 BYTE   Bn1  v104
 BYTE   W24
 BYTE   N22  En2  v112
 BYTE   W24
 BYTE   N24  Cn2  v104
 BYTE   W24
// 003   ----------------------------------------
 BYTE   Bn1  v112
 BYTE   W24
 BYTE   N03  Bn1  v044
 BYTE   W03
 BYTE   Bn1  v048
 BYTE   W03
 BYTE   Bn1  v052
 BYTE   W03
 BYTE   N03
 BYTE   W03
 BYTE   Bn1  v056
 BYTE   W03
 BYTE   Bn1  v060
 BYTE   W03
 BYTE   Bn1  v064
 BYTE   W03
 BYTE   N03
 BYTE   W03
 BYTE   N03
 BYTE   W03
 BYTE   N03
 BYTE   W03
 BYTE   N03
 BYTE   W03
 BYTE   N03
 BYTE   W03
 BYTE   N03
 BYTE   W03
 BYTE   Bn1  v060
 BYTE   W03
 BYTE   N03
 BYTE   W03
 BYTE   N03
 BYTE   W03
 BYTE   N24  Bn1  v056
 BYTE   W24
 BYTE   FINE

//**************** Track 5 (Midi-Chn.4) ****************//

LoZOcarinaofTimeGottheStoneRSflame_005:
// 000   ----------------------------------------
 BYTE   KEYSH   LoZOcarinaofTimeGottheStoneRSflame_key+0
 BYTE   VOICE   48
 BYTE   VOL   32*LoZOcarinaofTimeGottheStoneRSflame_mvl/mxv
 BYTE   PAN   c_v-64
 BYTE   N36  As2  v088
 BYTE   N36  Dn3
 BYTE   W36
 BYTE   N12  As2  v096
 BYTE   N12  Dn3
 BYTE   W12
 BYTE   N24  Cs3  v080
 BYTE   N24  Fn3
 BYTE   W24
 BYTE   N12  Bn2  v100
 BYTE   N12  Ds3
 BYTE   W12
 BYTE   Cs3  v084
 BYTE   N12  Fn3
 BYTE   W12
// 001   ----------------------------------------
 BYTE   N68  As2  v096
 BYTE   N68  Dn3
 BYTE   W72
 BYTE   N12  Bn2
 BYTE   N12  Ds3
 BYTE   W12
 BYTE   Cs3
 BYTE   N12  Fn3
 BYTE   W12
// 002   ----------------------------------------
 BYTE   N48  En3  v100
 BYTE   N48  Gs3
 BYTE   W48
 BYTE   N12  Gn3  v092
 BYTE   N12  Bn3
 BYTE   W12
 BYTE   Gn3
 BYTE   N12  Bn3
 BYTE   W12
 BYTE   N24  As3  v104
 BYTE   N24  Dn4
 BYTE   W24
// 003   ----------------------------------------
 BYTE   N96  An3  v096
 BYTE   N96  Cs4
 BYTE   W96
 BYTE   FINE

//**************** Track 6 (Midi-Chn.5) ****************//

LoZOcarinaofTimeGottheStoneRSflame_006:
// 000   ----------------------------------------
 BYTE   KEYSH   LoZOcarinaofTimeGottheStoneRSflame_key+0
 BYTE   VOICE   40
 BYTE   VOL   24*LoZOcarinaofTimeGottheStoneRSflame_mvl/mxv
 BYTE   PAN   c_v+63
 BYTE   N36  Fn2  v088
 BYTE   W36
 BYTE   N12  Fn2  v084
 BYTE   W12
 BYTE   N24  Gs2  v072
 BYTE   W24
 BYTE   N12  Fs2  v080
 BYTE   W12
 BYTE   Gs2  v068
 BYTE   W12
// 001   ----------------------------------------
 BYTE   N66  Fn2  v096
 BYTE   W72
 BYTE   N12  Fs2
 BYTE   W12
 BYTE   Gs2
 BYTE   W12
// 002   ----------------------------------------
 BYTE   N48  Bn2  v100
 BYTE   W48
 BYTE   N12  Dn3  v092
 BYTE   W12
 BYTE   N12
 BYTE   W12
 BYTE   N24  Fn3  v104
 BYTE   W24
// 003   ----------------------------------------
 BYTE   N96  En3  v096
 BYTE   W96
 BYTE   FINE

//**************** Track 7 (Midi-Chn.6) ****************//

LoZOcarinaofTimeGottheStoneRSflame_007:
// 000   ----------------------------------------
 BYTE   KEYSH   LoZOcarinaofTimeGottheStoneRSflame_key+0
 BYTE   VOICE   45
 BYTE   VOL   32*LoZOcarinaofTimeGottheStoneRSflame_mvl/mxv
 BYTE   PAN   c_v-24
 BYTE   N06  As2  v064
 BYTE   W06
 BYTE   Fn3  v076
 BYTE   W06
 BYTE   As3  v084
 BYTE   W06
 BYTE   Dn4  v088
 BYTE   W06
 BYTE   Fn4  v092
 BYTE   W06
 BYTE   Dn4  v072
 BYTE   W06
 BYTE   As3  v060
 BYTE   W06
 BYTE   Fn3  v056
 BYTE   W06
 BYTE   Gs2  v072
 BYTE   W06
 BYTE   Cs3  v080
 BYTE   W06
 BYTE   Fn3  v100
 BYTE   W06
 BYTE   Gs3
 BYTE   W06
 BYTE   Bn2  v080
 BYTE   W06
 BYTE   Ds3  v088
 BYTE   W06
 BYTE   Fs3  v104
 BYTE   W06
 BYTE   Bn3  v112
 BYTE   W06
// 001   ----------------------------------------
 BYTE   As2  v060
 BYTE   W06
 BYTE   Fn3  v068
 BYTE   W06
 BYTE   As3  v076
 BYTE   W06
 BYTE   Dn4  v080
 BYTE   W06
 BYTE   Fn4  v092
 BYTE   W06
 BYTE   Dn4  v084
 BYTE   W06
 BYTE   As3  v076
 BYTE   W06
 BYTE   Fn3  v060
 BYTE   W06
 BYTE   Dn4  v076
 BYTE   W06
 BYTE   As3
 BYTE   W06
 BYTE   Fn3  v064
 BYTE   W06
 BYTE   Dn3  v056
 BYTE   W06
 BYTE   Bn2  v068
 BYTE   W06
 BYTE   Ds3  v084
 BYTE   W06
 BYTE   Fs3  v096
 BYTE   W06
 BYTE   Bn3
 BYTE   W06
// 002   ----------------------------------------
 BYTE   Bn2  v076
 BYTE   W06
 BYTE   En3  v088
 BYTE   W06
 BYTE   Bn3  v092
 BYTE   W06
 BYTE   En4  v104
 BYTE   W06
 BYTE   Gs4  v112
 BYTE   W06
 BYTE   En4  v092
 BYTE   W06
 BYTE   Bn3  v080
 BYTE   W06
 BYTE   Gs3  v076
 BYTE   W06
 BYTE   Bn2  v064
 BYTE   W06
 BYTE   Dn3  v076
 BYTE   W06
 BYTE   Gn3  v088
 BYTE   W06
 BYTE   Bn3  v100
 BYTE   W06
 BYTE   As2  v072
 BYTE   W06
 BYTE   Dn3  v080
 BYTE   W06
 BYTE   Fn3  v096
 BYTE   W06
 BYTE   As3  v104
 BYTE   W06
// 003   ----------------------------------------
 BYTE   An2  v060
 BYTE   W06
 BYTE   En3  v080
 BYTE   W06
 BYTE   An3  v088
 BYTE   W06
 BYTE   Cs4  v100
 BYTE   W06
 BYTE   En4  v104
 BYTE   W06
 BYTE   An4  v120
 BYTE   W06
 BYTE   An3  v072
 BYTE   W06
 BYTE   Cs4  v088
 BYTE   W06
 BYTE   En4  v092
 BYTE   W06
 BYTE   An4  v108
 BYTE   W06
 BYTE   Cs5  v104
 BYTE   W03
 BYTE   En5  v088
 BYTE   W03
 BYTE   An5  v096
 BYTE   W06
 BYTE   FINE

//******************************************************//
	ALIGN 4

LoZOcarinaofTimeGottheStoneRSflame:
	BYTE	7	// NumTrks
	BYTE	0	// NumBlks
	BYTE	LoZOcarinaofTimeGottheStoneRSflame_pri	// Priority
	BYTE	LoZOcarinaofTimeGottheStoneRSflame_rev	// Reverb.
    
	POIN2	LoZOcarinaofTimeGottheStoneRSflame_grp
    
	POIN2	LoZOcarinaofTimeGottheStoneRSflame_001
	POIN2	LoZOcarinaofTimeGottheStoneRSflame_002
	POIN2	LoZOcarinaofTimeGottheStoneRSflame_003
	POIN2	LoZOcarinaofTimeGottheStoneRSflame_004
	POIN2	LoZOcarinaofTimeGottheStoneRSflame_005
	POIN2	LoZOcarinaofTimeGottheStoneRSflame_006
	POIN2	LoZOcarinaofTimeGottheStoneRSflame_007

	
