//Event file generated from Sappy .s format.
	#include "MPlayDef.event"

	#define	LoZPhantomHourglassLinebecksThemeSme_grp  voicegroup000
	#define	LoZPhantomHourglassLinebecksThemeSme_pri  0
	#define	LoZPhantomHourglassLinebecksThemeSme_rev  0
	#define	LoZPhantomHourglassLinebecksThemeSme_mvl  85
	#define	LoZPhantomHourglassLinebecksThemeSme_key  0
	#define	LoZPhantomHourglassLinebecksThemeSme_tbs  1
	#define	LoZPhantomHourglassLinebecksThemeSme_exg  0
	#define	LoZPhantomHourglassLinebecksThemeSme_cmp  1

	// .rodata
	//	LoZPhantomHourglassLinebecksThemeSme
	ALIGN 4

//**************** Track 1 (Midi-Chn.1) ****************//

LoZPhantomHourglassLinebecksThemeSme_1:
	BYTE	KEYSH   LoZPhantomHourglassLinebecksThemeSme_key+0
// 000   ----------------------------------------
	BYTE	TEMPO   112*LoZPhantomHourglassLinebecksThemeSme_tbs/2
	BYTE		VOICE   57
	BYTE		VOL     120*LoZPhantomHourglassLinebecksThemeSme_mvl/mxv
	BYTE		PAN     c_v+10
	BYTE		N03     Gn3   v108
	BYTE	W12
	BYTE		VOL     117*LoZPhantomHourglassLinebecksThemeSme_mvl/mxv
	BYTE		N32     Cn4 
	BYTE	W01
	BYTE		VOL     111*LoZPhantomHourglassLinebecksThemeSme_mvl/mxv
	BYTE	W01
	BYTE		        108*LoZPhantomHourglassLinebecksThemeSme_mvl/mxv
	BYTE	W01
	BYTE		        102*LoZPhantomHourglassLinebecksThemeSme_mvl/mxv
	BYTE	W01
	BYTE		        96*LoZPhantomHourglassLinebecksThemeSme_mvl/mxv
	BYTE	W01
	BYTE		        90*LoZPhantomHourglassLinebecksThemeSme_mvl/mxv
	BYTE	W16
	BYTE		        91*LoZPhantomHourglassLinebecksThemeSme_mvl/mxv
	BYTE	W01
	BYTE		        92*LoZPhantomHourglassLinebecksThemeSme_mvl/mxv
	BYTE	W02
	BYTE		        94*LoZPhantomHourglassLinebecksThemeSme_mvl/mxv
	BYTE	W01
	BYTE		        95*LoZPhantomHourglassLinebecksThemeSme_mvl/mxv
	BYTE	W01
	BYTE		        96*LoZPhantomHourglassLinebecksThemeSme_mvl/mxv
	BYTE	W01
	BYTE		        98*LoZPhantomHourglassLinebecksThemeSme_mvl/mxv
	BYTE	W01
	BYTE		        100*LoZPhantomHourglassLinebecksThemeSme_mvl/mxv
	BYTE	W01
	BYTE		        102*LoZPhantomHourglassLinebecksThemeSme_mvl/mxv
	BYTE	W01
	BYTE		        104*LoZPhantomHourglassLinebecksThemeSme_mvl/mxv
	BYTE	W01
	BYTE		        107*LoZPhantomHourglassLinebecksThemeSme_mvl/mxv
	BYTE	W01
	BYTE		        109*LoZPhantomHourglassLinebecksThemeSme_mvl/mxv
	BYTE	W01
	BYTE		        112*LoZPhantomHourglassLinebecksThemeSme_mvl/mxv
	BYTE	W01
	BYTE		        116*LoZPhantomHourglassLinebecksThemeSme_mvl/mxv
	BYTE	W01
	BYTE		        118*LoZPhantomHourglassLinebecksThemeSme_mvl/mxv
	BYTE	W01
	BYTE		        120*LoZPhantomHourglassLinebecksThemeSme_mvl/mxv
	BYTE		N03     Gn3 
	BYTE	W12
	BYTE		N09     Dn4 
	BYTE	W36
// 001   ----------------------------------------
	BYTE	W96
// 002   ----------------------------------------
	BYTE	W09
	BYTE		MOD     0
	BYTE	W72
	BYTE	W03
	BYTE		N04     Dn3   v104
	BYTE	W12
// 003   ----------------------------------------
	BYTE		N28     Gn3   v092
	BYTE	W36
	BYTE		N04     Dn3 
	BYTE	W12
	BYTE		N28     An3 
	BYTE	W36
	BYTE		N04     Dn3 
	BYTE	W12
LoZPhantomHourglassLinebecksThemeSme_1_B1:
// 004   ----------------------------------------
	BYTE		N12     As3   v092
	BYTE	W12
	BYTE		N04     Cn4 
	BYTE	W12
	BYTE		        Dn4 
	BYTE	W12
	BYTE		        As3 
	BYTE	W12
	BYTE		N32     Gn3 
	BYTE	W36
	BYTE		N04   
	BYTE	W12
// 005   ----------------------------------------
LoZPhantomHourglassLinebecksThemeSme_1_005:
	BYTE		N12     As3   v092
	BYTE	W12
	BYTE		N04     Cn4 
	BYTE	W12
	BYTE		        Dn4 
	BYTE	W12
	BYTE		N05     As3 
	BYTE	W12
	BYTE		N23     Gn3 
	BYTE	W24
	BYTE		N21     Fn3 
	BYTE	W24
	BYTE	PEND
// 006   ----------------------------------------
	BYTE		N04     Dn3 
	BYTE	W12
	BYTE		        Fn3 
	BYTE	W12
	BYTE		N48     Gn3 
	BYTE	W24
	BYTE		MOD     12
	BYTE	W36
	BYTE		        0
	BYTE		N04     Dn3 
	BYTE	W12
// 007   ----------------------------------------
	BYTE		N24     Gn3 
	BYTE	W36
	BYTE		N04     Dn3 
	BYTE	W12
	BYTE		N24     An3 
	BYTE	W36
	BYTE		N04     Dn3 
	BYTE	W12
// 008   ----------------------------------------
	BYTE		N12     As3 
	BYTE	W12
	BYTE		N04     Cn4 
	BYTE	W12
	BYTE		N05     Dn4 
	BYTE	W12
	BYTE		N06     As3 
	BYTE	W12
	BYTE		N28     Gn3 
	BYTE	W36
	BYTE		N05   
	BYTE	W12
// 009   ----------------------------------------
	BYTE	PATT
	 POIN2	LoZPhantomHourglassLinebecksThemeSme_1_005
// 010   ----------------------------------------
	BYTE		N04     Dn3   v092
	BYTE	W12
	BYTE		        Cn3   v080
	BYTE		N04     Fn3   v092
	BYTE	W12
	BYTE		N48     Bn2   v080
	BYTE		N48     Gn3   v092
	BYTE	W24
	BYTE		MOD     12
	BYTE	W48
// 011   ----------------------------------------
	BYTE	W96
// 012   ----------------------------------------
	BYTE	W96
// 013   ----------------------------------------
	BYTE	W96
// 014   ----------------------------------------
	BYTE	W60
	BYTE		        0
	BYTE	W36
// 015   ----------------------------------------
	BYTE	W96
// 016   ----------------------------------------
	BYTE	W96
// 017   ----------------------------------------
	BYTE	W96
// 018   ----------------------------------------
	BYTE	W84
	BYTE		N04     Dn3 
	BYTE	W12
// 019   ----------------------------------------
	BYTE		N28     Gn3 
	BYTE	W36
	BYTE		N04     Dn3 
	BYTE	W12
	BYTE		N28     An3 
	BYTE	W36
	BYTE		N04     Dn3 
	BYTE	W06
	BYTE	GoTo
	 POIN2	LoZPhantomHourglassLinebecksThemeSme_1_B1
LoZPhantomHourglassLinebecksThemeSme_1_B2:
	BYTE	FINE

//**************** Track 2 (Midi-Chn.2) ****************//

LoZPhantomHourglassLinebecksThemeSme_2:
	BYTE	KEYSH   LoZPhantomHourglassLinebecksThemeSme_key+0
// 000   ----------------------------------------
	BYTE		VOICE   5
	BYTE		MOD     0
	BYTE		VOL     100*LoZPhantomHourglassLinebecksThemeSme_mvl/mxv
	BYTE		PAN     c_v-10
	BYTE	W96
// 001   ----------------------------------------
	BYTE	W96
// 002   ----------------------------------------
	BYTE	W84
	BYTE		N01     Dn3   v112
	BYTE	W12
// 003   ----------------------------------------
	BYTE		N28     Gn3 
	BYTE	W36
	BYTE		N01     Dn3 
	BYTE	W12
	BYTE		N28     An3 
	BYTE	W36
	BYTE		N01     Dn3 
	BYTE	W12
LoZPhantomHourglassLinebecksThemeSme_2_B1:
// 004   ----------------------------------------
	BYTE		N12     As3   v112
	BYTE	W12
	BYTE		N03     Cn4 
	BYTE	W12
	BYTE		        Dn4 
	BYTE	W12
	BYTE		N04     As3 
	BYTE	W04
	BYTE		        Cn4   v092
	BYTE	W04
	BYTE		        As3 
	BYTE	W04
	BYTE		N32     Gn3   v112
	BYTE	W48
// 005   ----------------------------------------
	BYTE	W96
// 006   ----------------------------------------
	BYTE	W84
	BYTE		N03     Dn3 
	BYTE	W12
// 007   ----------------------------------------
	BYTE		N24     Gn3 
	BYTE	W36
	BYTE		N01     Dn3 
	BYTE	W12
	BYTE		N24     An3 
	BYTE	W36
	BYTE		N02     Dn3 
	BYTE	W12
// 008   ----------------------------------------
	BYTE		N12     As3 
	BYTE	W12
	BYTE		N03     Cn4 
	BYTE	W12
	BYTE		N05     Dn4 
	BYTE	W12
	BYTE		N04     As3 
	BYTE	W04
	BYTE		        Cn4   v092
	BYTE	W04
	BYTE		        As3 
	BYTE	W04
	BYTE		N32     Gn3   v112
	BYTE	W48
// 009   ----------------------------------------
	BYTE	W96
// 010   ----------------------------------------
	BYTE	W96
// 011   ----------------------------------------
	BYTE	W96
// 012   ----------------------------------------
	BYTE	W96
// 013   ----------------------------------------
	BYTE	W96
// 014   ----------------------------------------
	BYTE	W84
	BYTE		N03     Gn3   v092
	BYTE	W12
// 015   ----------------------------------------
	BYTE		N32     Ds4   v112
	BYTE	W36
	BYTE		N06   
	BYTE	W12
	BYTE		N12     Fn4 
	BYTE	W12
	BYTE		N02     Ds4 
	BYTE	W03
	BYTE		        Fn4   v104
	BYTE	W04
	BYTE		N03     Ds4 
	BYTE	W05
	BYTE		N05     Dn4   v112
	BYTE	W12
	BYTE		N03     Cn4 
	BYTE	W12
// 016   ----------------------------------------
	BYTE		N05   
	BYTE	W04
	BYTE		        Dn4   v084
	BYTE	W05
	BYTE		        Cn4 
	BYTE	W05
	BYTE		        Dn4 
	BYTE	W05
	BYTE		        Cn4 
	BYTE	W05
	BYTE		        As3   v112
	BYTE	W12
	BYTE		        Cn4 
	BYTE	W12
	BYTE		N24     Dn4 
	BYTE	W24
	BYTE		N05     Cs4 
	BYTE	W12
	BYTE		        Dn4 
	BYTE	W12
// 017   ----------------------------------------
	BYTE		N32     Ds4 
	BYTE	W36
	BYTE		N05     Cn4 
	BYTE	W12
	BYTE		N32     En4 
	BYTE	W36
	BYTE		N05     Gn4 
	BYTE	W06
	BYTE		N03     Fs4 
	BYTE	W03
	BYTE		        Gn4 
	BYTE	W03
// 018   ----------------------------------------
	BYTE		N72     Fs4 
	BYTE	W84
	BYTE		N03     Dn3 
	BYTE	W12
// 019   ----------------------------------------
	BYTE		N28     Gn3 
	BYTE	W36
	BYTE		N01     Dn3 
	BYTE	W12
	BYTE		N28     An3 
	BYTE	W36
	BYTE		N01     Dn3 
	BYTE	W06
	BYTE	GoTo
	 POIN2	LoZPhantomHourglassLinebecksThemeSme_2_B1
LoZPhantomHourglassLinebecksThemeSme_2_B2:
	BYTE	FINE

//**************** Track 3 (Midi-Chn.3) ****************//

LoZPhantomHourglassLinebecksThemeSme_3:
	BYTE	KEYSH   LoZPhantomHourglassLinebecksThemeSme_key+0
// 000   ----------------------------------------
	BYTE		VOICE   49
	BYTE		VOL     120*LoZPhantomHourglassLinebecksThemeSme_mvl/mxv
	BYTE		PAN     c_v+10
	BYTE		N10     Gn3   v104
	BYTE	W12
	BYTE		N32     Cn4 
	BYTE	W32
	BYTE	W02
	BYTE		N10     Gn3 
	BYTE	W13
	BYTE		N14     Dn4 
	BYTE	W36
	BYTE	W01
// 001   ----------------------------------------
	BYTE	W96
// 002   ----------------------------------------
	BYTE	W12
	BYTE		N12     Ds4 
	BYTE		N11     Gn4 
	BYTE	W12
	BYTE		N06     Dn4 
	BYTE		N04     Fs4 
	BYTE	W12
	BYTE		N02     Cn4 
	BYTE		N03     Ds4 
	BYTE	W12
	BYTE		N01     As3 
	BYTE		N04     Dn4 
	BYTE	W12
	BYTE		        An3 
	BYTE		N03     Cn4 
	BYTE	W12
	BYTE		N05     Gn3 
	BYTE		N05     As3 
	BYTE	W12
	BYTE		        Fs3 
	BYTE		N04     An3 
	BYTE	W12
// 003   ----------------------------------------
	BYTE	W96
LoZPhantomHourglassLinebecksThemeSme_3_B1:
// 004   ----------------------------------------
	BYTE	W96
// 005   ----------------------------------------
	BYTE	W96
// 006   ----------------------------------------
	BYTE	W96
// 007   ----------------------------------------
	BYTE	W96
// 008   ----------------------------------------
	BYTE	W96
// 009   ----------------------------------------
	BYTE	W96
// 010   ----------------------------------------
	BYTE	W84
	BYTE		N06     Gn3   v104
	BYTE	W12
// 011   ----------------------------------------
	BYTE		N32     Ds4 
	BYTE	W36
	BYTE		N07   
	BYTE	W12
	BYTE		N13     Fn4 
	BYTE	W12
	BYTE		N06     Ds4 
	BYTE	W12
	BYTE		N04     Dn4 
	BYTE	W12
	BYTE		N05     Cn4 
	BYTE	W12
// 012   ----------------------------------------
	BYTE		N23   
	BYTE	W24
	BYTE		N06     As3 
	BYTE	W12
	BYTE		N05     Cn4 
	BYTE	W12
	BYTE		N28     Dn4 
	BYTE	W36
	BYTE		N05   
	BYTE	W12
// 013   ----------------------------------------
	BYTE		N32     Cn4 
	BYTE	W36
	BYTE		N02     As3 
	BYTE	W12
	BYTE		N11     Gs3 
	BYTE	W12
	BYTE		N07     Ds4 
	BYTE	W12
	BYTE		N05     Dn4 
	BYTE	W12
	BYTE		N06     Cn4 
	BYTE	W12
// 014   ----------------------------------------
	BYTE		N72     Dn4 
	BYTE	W84
	BYTE		N03     Gn3 
	BYTE	W12
// 015   ----------------------------------------
	BYTE		N32     Ds4 
	BYTE	W36
	BYTE		N06   
	BYTE	W12
	BYTE		N12     Fn4 
	BYTE	W12
	BYTE		N03     Ds4 
	BYTE	W12
	BYTE		N05     Dn4 
	BYTE	W12
	BYTE		N03     Cn4 
	BYTE	W12
// 016   ----------------------------------------
	BYTE		N23   
	BYTE	W24
	BYTE		N05     As3 
	BYTE	W12
	BYTE		        Cn4 
	BYTE	W12
	BYTE		N24     Dn4 
	BYTE	W24
	BYTE		N05     Cs4 
	BYTE	W12
	BYTE		        Dn4 
	BYTE	W12
// 017   ----------------------------------------
	BYTE		N32     Ds4 
	BYTE	W36
	BYTE		N05     Cn4 
	BYTE	W12
	BYTE		N32     En4 
	BYTE	W36
	BYTE		N05     As3 
	BYTE		N05     Gn4 
	BYTE	W12
// 018   ----------------------------------------
	BYTE		N72     An3   v080
	BYTE		N72     Fs4   v104
	BYTE	W96
// 019   ----------------------------------------
	BYTE	W90
	BYTE	GoTo
	 POIN2	LoZPhantomHourglassLinebecksThemeSme_3_B1
LoZPhantomHourglassLinebecksThemeSme_3_B2:
	BYTE	FINE

//**************** Track 4 (Midi-Chn.4) ****************//

LoZPhantomHourglassLinebecksThemeSme_4:
	BYTE	KEYSH   LoZPhantomHourglassLinebecksThemeSme_key+0
// 000   ----------------------------------------
	BYTE		VOICE   117
	BYTE		VOL     76*LoZPhantomHourglassLinebecksThemeSme_mvl/mxv
	BYTE		PAN     c_v+30
	BYTE	W48
	BYTE	W03
	BYTE		N02     Cs3   v084
	BYTE	W03
	BYTE		        Bn2   v092
	BYTE	W03
	BYTE		        Cs3   v104
	BYTE	W03
	BYTE		N42     Bn2   v120
	BYTE	W36
// 001   ----------------------------------------
	BYTE	W96
// 002   ----------------------------------------
	BYTE	W96
// 003   ----------------------------------------
LoZPhantomHourglassLinebecksThemeSme_4_003:
	BYTE		N05     Bn2   v072
	BYTE	W12
	BYTE		        Cs3   v112
	BYTE	W06
	BYTE		        Bn2 
	BYTE	W06
	BYTE		        Cs3 
	BYTE	W12
	BYTE		        Bn2   v072
	BYTE	W12
	BYTE		        Cs3 
	BYTE	W12
	BYTE		        Bn2   v120
	BYTE	W12
	BYTE		        Cs3   v116
	BYTE	W12
	BYTE		        Bn2   v072
	BYTE	W12
	BYTE	PEND
LoZPhantomHourglassLinebecksThemeSme_4_B1:
// 004   ----------------------------------------
LoZPhantomHourglassLinebecksThemeSme_4_004:
	BYTE		N05     Cs3   v072
	BYTE	W12
	BYTE		N03     Bn2   v108
	BYTE	W04
	BYTE		        Cs3   v104
	BYTE	W04
	BYTE		        Bn2   v108
	BYTE	W04
	BYTE		N05     Bn2   v124
	BYTE	W12
	BYTE		        Cs3   v072
	BYTE	W12
	BYTE		        Bn2 
	BYTE	W12
	BYTE		        Cs3   v112
	BYTE	W12
	BYTE		        Bn2   v120
	BYTE	W12
	BYTE		        Cs3   v072
	BYTE	W12
	BYTE	PEND
// 005   ----------------------------------------
	BYTE	PATT
	 POIN2	LoZPhantomHourglassLinebecksThemeSme_4_003
// 006   ----------------------------------------
	BYTE	PATT
	 POIN2	LoZPhantomHourglassLinebecksThemeSme_4_004
// 007   ----------------------------------------
	BYTE	PATT
	 POIN2	LoZPhantomHourglassLinebecksThemeSme_4_003
// 008   ----------------------------------------
	BYTE	PATT
	 POIN2	LoZPhantomHourglassLinebecksThemeSme_4_004
// 009   ----------------------------------------
	BYTE	PATT
	 POIN2	LoZPhantomHourglassLinebecksThemeSme_4_003
// 010   ----------------------------------------
	BYTE	PATT
	 POIN2	LoZPhantomHourglassLinebecksThemeSme_4_004
// 011   ----------------------------------------
	BYTE	PATT
	 POIN2	LoZPhantomHourglassLinebecksThemeSme_4_003
// 012   ----------------------------------------
	BYTE	PATT
	 POIN2	LoZPhantomHourglassLinebecksThemeSme_4_004
// 013   ----------------------------------------
	BYTE	PATT
	 POIN2	LoZPhantomHourglassLinebecksThemeSme_4_003
// 014   ----------------------------------------
	BYTE	PATT
	 POIN2	LoZPhantomHourglassLinebecksThemeSme_4_004
// 015   ----------------------------------------
	BYTE	PATT
	 POIN2	LoZPhantomHourglassLinebecksThemeSme_4_003
// 016   ----------------------------------------
	BYTE	PATT
	 POIN2	LoZPhantomHourglassLinebecksThemeSme_4_004
// 017   ----------------------------------------
	BYTE	PATT
	 POIN2	LoZPhantomHourglassLinebecksThemeSme_4_003
// 018   ----------------------------------------
	BYTE	PATT
	 POIN2	LoZPhantomHourglassLinebecksThemeSme_4_004
// 019   ----------------------------------------
	BYTE		N05     Bn2   v072
	BYTE	W12
	BYTE		        Cs3   v112
	BYTE	W06
	BYTE		        Bn2 
	BYTE	W06
	BYTE		        Cs3 
	BYTE	W12
	BYTE		        Bn2   v072
	BYTE	W12
	BYTE		        Cs3 
	BYTE	W12
	BYTE		        Bn2   v120
	BYTE	W12
	BYTE		        Cs3   v116
	BYTE	W12
	BYTE		        Bn2   v072
	BYTE	W06
	BYTE	GoTo
	 POIN2	LoZPhantomHourglassLinebecksThemeSme_4_B1
LoZPhantomHourglassLinebecksThemeSme_4_B2:
	BYTE	FINE

//**************** Track 5 (Midi-Chn.5) ****************//

LoZPhantomHourglassLinebecksThemeSme_5:
	BYTE	KEYSH   LoZPhantomHourglassLinebecksThemeSme_key+0
// 000   ----------------------------------------
	BYTE		VOICE   60
	BYTE		VOL     100*LoZPhantomHourglassLinebecksThemeSme_mvl/mxv
	BYTE		PAN     c_v-30
	BYTE		N06     Gn2   v108
	BYTE	W12
	BYTE		VOL     117*LoZPhantomHourglassLinebecksThemeSme_mvl/mxv
	BYTE		N32     Cn3 
	BYTE	W01
	BYTE		VOL     111*LoZPhantomHourglassLinebecksThemeSme_mvl/mxv
	BYTE	W01
	BYTE		        108*LoZPhantomHourglassLinebecksThemeSme_mvl/mxv
	BYTE	W01
	BYTE		        102*LoZPhantomHourglassLinebecksThemeSme_mvl/mxv
	BYTE	W01
	BYTE		        96*LoZPhantomHourglassLinebecksThemeSme_mvl/mxv
	BYTE	W01
	BYTE		        90*LoZPhantomHourglassLinebecksThemeSme_mvl/mxv
	BYTE	W13
	BYTE		        90*LoZPhantomHourglassLinebecksThemeSme_mvl/mxv
	BYTE	W03
	BYTE		        91*LoZPhantomHourglassLinebecksThemeSme_mvl/mxv
	BYTE	W01
	BYTE		        92*LoZPhantomHourglassLinebecksThemeSme_mvl/mxv
	BYTE	W02
	BYTE		        94*LoZPhantomHourglassLinebecksThemeSme_mvl/mxv
	BYTE	W01
	BYTE		        95*LoZPhantomHourglassLinebecksThemeSme_mvl/mxv
	BYTE	W01
	BYTE		        96*LoZPhantomHourglassLinebecksThemeSme_mvl/mxv
	BYTE	W01
	BYTE		        98*LoZPhantomHourglassLinebecksThemeSme_mvl/mxv
	BYTE	W01
	BYTE		        100*LoZPhantomHourglassLinebecksThemeSme_mvl/mxv
	BYTE	W01
	BYTE		        102*LoZPhantomHourglassLinebecksThemeSme_mvl/mxv
	BYTE	W01
	BYTE		        104*LoZPhantomHourglassLinebecksThemeSme_mvl/mxv
	BYTE	W01
	BYTE		        107*LoZPhantomHourglassLinebecksThemeSme_mvl/mxv
	BYTE	W01
	BYTE		        109*LoZPhantomHourglassLinebecksThemeSme_mvl/mxv
	BYTE	W01
	BYTE		        112*LoZPhantomHourglassLinebecksThemeSme_mvl/mxv
	BYTE	W01
	BYTE		        116*LoZPhantomHourglassLinebecksThemeSme_mvl/mxv
	BYTE	W01
	BYTE		        118*LoZPhantomHourglassLinebecksThemeSme_mvl/mxv
	BYTE	W01
	BYTE		        120*LoZPhantomHourglassLinebecksThemeSme_mvl/mxv
	BYTE		N06     Gn2 
	BYTE	W12
	BYTE		        Dn2 
	BYTE	W36
// 001   ----------------------------------------
	BYTE		VOL     100*LoZPhantomHourglassLinebecksThemeSme_mvl/mxv
	BYTE	W96
// 002   ----------------------------------------
LoZPhantomHourglassLinebecksThemeSme_5_002:
	BYTE	W12
	BYTE		N12     Ds3   v127
	BYTE		N11     Gn3 
	BYTE	W12
	BYTE		N06     Dn3 
	BYTE		N04     Fs3 
	BYTE	W12
	BYTE		N02     Cn3 
	BYTE		N03     Ds3 
	BYTE	W12
	BYTE		N01     As2 
	BYTE		N04     Dn3 
	BYTE	W12
	BYTE		        An2 
	BYTE		N03     Cn3 
	BYTE	W12
	BYTE		N05     Gn2 
	BYTE		N05     As2 
	BYTE	W12
	BYTE		        Fs2 
	BYTE		N04     An2 
	BYTE	W12
	BYTE	PEND
// 003   ----------------------------------------
LoZPhantomHourglassLinebecksThemeSme_5_003:
	BYTE	W12
	BYTE		N04     Gn2   v104
	BYTE		N04     As2 
	BYTE	W12
	BYTE		N04   
	BYTE		N04     Dn3 
	BYTE	W36
	BYTE		        Gn2 
	BYTE		N04     As2 
	BYTE	W12
	BYTE		        Dn3 
	BYTE		N04     Fs3 
	BYTE	W24
	BYTE	PEND
LoZPhantomHourglassLinebecksThemeSme_5_B1:
// 004   ----------------------------------------
LoZPhantomHourglassLinebecksThemeSme_5_004:
	BYTE	W12
	BYTE		N04     Gn2   v104
	BYTE		N04     As2 
	BYTE	W12
	BYTE		        Dn3 
	BYTE		N04     Fn3 
	BYTE	W36
	BYTE		        Gn2 
	BYTE		N04     As2 
	BYTE	W12
	BYTE		N04   
	BYTE		N04     En3 
	BYTE	W24
	BYTE	PEND
// 005   ----------------------------------------
LoZPhantomHourglassLinebecksThemeSme_5_005:
	BYTE	W12
	BYTE		N04     Gn2   v104
	BYTE		N04     As2 
	BYTE	W12
	BYTE		N04   
	BYTE		N04     Ds3 
	BYTE	W36
	BYTE		        Dn2 
	BYTE		N04     Fn2 
	BYTE	W12
	BYTE		        An2 
	BYTE		N04     Dn3 
	BYTE	W24
	BYTE	PEND
// 006   ----------------------------------------
	BYTE		        Dn2   v127
	BYTE	W12
	BYTE		        Fn2 
	BYTE	W12
	BYTE		        Gn2 
	BYTE	W12
	BYTE		N11     Gn2   v104
	BYTE		N11     As2 
	BYTE	W12
	BYTE		N04   
	BYTE		N04     Dn3 
	BYTE	W12
	BYTE		N11     Dn2 
	BYTE		N11     Gn2 
	BYTE	W12
	BYTE		N04   
	BYTE		N04     As2 
	BYTE	W24
// 007   ----------------------------------------
	BYTE	PATT
	 POIN2	LoZPhantomHourglassLinebecksThemeSme_5_003
// 008   ----------------------------------------
	BYTE	PATT
	 POIN2	LoZPhantomHourglassLinebecksThemeSme_5_004
// 009   ----------------------------------------
	BYTE	PATT
	 POIN2	LoZPhantomHourglassLinebecksThemeSme_5_005
// 010   ----------------------------------------
	BYTE		N04     Dn2   v127
	BYTE	W12
	BYTE		        Fn2 
	BYTE	W12
	BYTE		        Gn2 
	BYTE	W12
	BYTE		N11     Gn2   v104
	BYTE		N11     Bn2 
	BYTE	W12
	BYTE		N04   
	BYTE		N04     Dn3 
	BYTE	W12
	BYTE		N11     Dn2 
	BYTE		N11     Gn2 
	BYTE	W12
	BYTE		N04   
	BYTE		N04     Bn2 
	BYTE	W24
// 011   ----------------------------------------
LoZPhantomHourglassLinebecksThemeSme_5_011:
	BYTE	W12
	BYTE		N04     Gn2   v104
	BYTE		N04     Cn3 
	BYTE	W12
	BYTE		N04   
	BYTE		N04     Ds3 
	BYTE	W36
	BYTE		        Gn2 
	BYTE		N04     Cn3 
	BYTE	W12
	BYTE		N04   
	BYTE		N04     Ds3 
	BYTE	W24
	BYTE	PEND
// 012   ----------------------------------------
	BYTE	W12
	BYTE		        As2 
	BYTE		N04     Dn3 
	BYTE	W12
	BYTE		N04   
	BYTE		N04     Fn3 
	BYTE	W36
	BYTE		        As2 
	BYTE		N04     Dn3 
	BYTE	W12
	BYTE		N04   
	BYTE		N04     Fn3 
	BYTE	W24
// 013   ----------------------------------------
	BYTE	W12
	BYTE		        Gs2 
	BYTE		N04     Cn3 
	BYTE	W12
	BYTE		N04   
	BYTE		N04     Ds3 
	BYTE	W36
	BYTE		        Fs2 
	BYTE		N04     Cn3 
	BYTE	W12
	BYTE		N04   
	BYTE		N04     Ds3 
	BYTE	W24
// 014   ----------------------------------------
	BYTE	W12
	BYTE		N11     Dn2   v127
	BYTE		N11     Gn2 
	BYTE	W12
	BYTE		N04   
	BYTE		N04     As2 
	BYTE	W12
	BYTE		N11     Gn2 
	BYTE		N11     As2 
	BYTE	W12
	BYTE		N04     Dn3 
	BYTE		N04     Gn3 
	BYTE	W12
	BYTE		N11     Dn3 
	BYTE		N11     Gn3 
	BYTE	W12
	BYTE		N04     As2 
	BYTE		N04     Dn3 
	BYTE	W24
// 015   ----------------------------------------
	BYTE	PATT
	 POIN2	LoZPhantomHourglassLinebecksThemeSme_5_011
// 016   ----------------------------------------
	BYTE	W12
	BYTE		N04     As2   v104
	BYTE		N04     Dn3 
	BYTE	W12
	BYTE		N04   
	BYTE		N04     Fn3 
	BYTE	W36
	BYTE		        Gs2 
	BYTE		N04     Dn3 
	BYTE	W12
	BYTE		N04   
	BYTE		N04     Fn3 
	BYTE	W24
// 017   ----------------------------------------
	BYTE	W12
	BYTE		        Cn3 
	BYTE		N04     Ds3 
	BYTE	W12
	BYTE		N04   
	BYTE		N04     Gn3 
	BYTE	W36
	BYTE		        An2 
	BYTE		N04     Cs3 
	BYTE	W12
	BYTE		N04   
	BYTE		N04     En3 
	BYTE	W24
// 018   ----------------------------------------
	BYTE	PATT
	 POIN2	LoZPhantomHourglassLinebecksThemeSme_5_002
// 019   ----------------------------------------
	BYTE	W12
	BYTE		N05     As2   v104
	BYTE		N05     Dn3 
	BYTE	W12
	BYTE		N05   
	BYTE		N05     Gn3 
	BYTE	W36
	BYTE		        As2 
	BYTE		N05     Dn3 
	BYTE	W12
	BYTE		N05   
	BYTE		N05     Fs3 
	BYTE	W18
	BYTE	GoTo
	 POIN2	LoZPhantomHourglassLinebecksThemeSme_5_B1
LoZPhantomHourglassLinebecksThemeSme_5_B2:
	BYTE	FINE

//**************** Track 6 (Midi-Chn.6) ****************//

LoZPhantomHourglassLinebecksThemeSme_6:
	BYTE	KEYSH   LoZPhantomHourglassLinebecksThemeSme_key+0
// 000   ----------------------------------------
	BYTE		VOICE   1
	BYTE		PAN     c_v+0
	BYTE		VOL     124*LoZPhantomHourglassLinebecksThemeSme_mvl/mxv
	BYTE	W60
	BYTE		N24     Dn2   v127
	BYTE	W36
// 001   ----------------------------------------
	BYTE	W96
// 002   ----------------------------------------
	BYTE	W84
	BYTE		N06     Dn2   v116
	BYTE	W12
// 003   ----------------------------------------
	BYTE		N08     Gn1 
	BYTE	W96
LoZPhantomHourglassLinebecksThemeSme_6_B1:
// 004   ----------------------------------------
	BYTE	W96
// 005   ----------------------------------------
	BYTE	W96
// 006   ----------------------------------------
LoZPhantomHourglassLinebecksThemeSme_6_006:
	BYTE		N09     Dn2   v116
	BYTE	W12
	BYTE		        Fn2 
	BYTE	W12
	BYTE		        Gn2 
	BYTE	W72
	BYTE	PEND
// 007   ----------------------------------------
	BYTE	W96
// 008   ----------------------------------------
	BYTE	W96
// 009   ----------------------------------------
	BYTE	W96
// 010   ----------------------------------------
	BYTE	PATT
	 POIN2	LoZPhantomHourglassLinebecksThemeSme_6_006
// 011   ----------------------------------------
	BYTE	W96
// 012   ----------------------------------------
	BYTE	W96
// 013   ----------------------------------------
	BYTE	W96
// 014   ----------------------------------------
	BYTE	W96
// 015   ----------------------------------------
	BYTE	W96
// 016   ----------------------------------------
	BYTE	W96
// 017   ----------------------------------------
	BYTE	W96
// 018   ----------------------------------------
	BYTE	W96
// 019   ----------------------------------------
	BYTE	W90
	BYTE	GoTo
	 POIN2	LoZPhantomHourglassLinebecksThemeSme_6_B1
LoZPhantomHourglassLinebecksThemeSme_6_B2:
	BYTE	FINE

//**************** Track 7 (Midi-Chn.8) ****************//

LoZPhantomHourglassLinebecksThemeSme_7:
	BYTE	KEYSH   LoZPhantomHourglassLinebecksThemeSme_key+0
// 000   ----------------------------------------
	BYTE		VOICE   58
	BYTE		VOL     127*LoZPhantomHourglassLinebecksThemeSme_mvl/mxv
	BYTE		PAN     c_v+0
	BYTE	W96
// 001   ----------------------------------------
	BYTE	W96
// 002   ----------------------------------------
	BYTE	W96
// 003   ----------------------------------------
LoZPhantomHourglassLinebecksThemeSme_7_003:
	BYTE		N06     Gn1   v127
	BYTE	W36
	BYTE		N06   
	BYTE	W12
	BYTE		        Fs1 
	BYTE	W48
	BYTE	PEND
LoZPhantomHourglassLinebecksThemeSme_7_B1:
// 004   ----------------------------------------
LoZPhantomHourglassLinebecksThemeSme_7_004:
	BYTE		N06     Fn1   v127
	BYTE	W36
	BYTE		N06   
	BYTE	W12
	BYTE		        En1 
	BYTE	W48
	BYTE	PEND
// 005   ----------------------------------------
LoZPhantomHourglassLinebecksThemeSme_7_005:
	BYTE		N06     Ds1   v127
	BYTE	W36
	BYTE		N06   
	BYTE	W12
	BYTE		        Dn1 
	BYTE	W24
	BYTE		N06   
	BYTE	W24
	BYTE	PEND
// 006   ----------------------------------------
LoZPhantomHourglassLinebecksThemeSme_7_006:
	BYTE		N06     Dn1   v127
	BYTE	W12
	BYTE		        Fn1 
	BYTE	W12
	BYTE		        Gn1 
	BYTE	W36
	BYTE		N06   
	BYTE	W24
	BYTE		        Dn1 
	BYTE	W12
	BYTE	PEND
// 007   ----------------------------------------
	BYTE	PATT
	 POIN2	LoZPhantomHourglassLinebecksThemeSme_7_003
// 008   ----------------------------------------
	BYTE	PATT
	 POIN2	LoZPhantomHourglassLinebecksThemeSme_7_004
// 009   ----------------------------------------
	BYTE	PATT
	 POIN2	LoZPhantomHourglassLinebecksThemeSme_7_005
// 010   ----------------------------------------
	BYTE	PATT
	 POIN2	LoZPhantomHourglassLinebecksThemeSme_7_006
// 011   ----------------------------------------
LoZPhantomHourglassLinebecksThemeSme_7_011:
	BYTE		N06     Cn1   v127
	BYTE	W36
	BYTE		N06   
	BYTE	W12
	BYTE		        Fn1 
	BYTE	W48
	BYTE	PEND
// 012   ----------------------------------------
	BYTE		        As1 
	BYTE	W36
	BYTE		N06   
	BYTE	W12
	BYTE		N06   
	BYTE	W48
// 013   ----------------------------------------
	BYTE		        Gs1 
	BYTE	W36
	BYTE		N06   
	BYTE	W12
	BYTE		N06   
	BYTE	W48
// 014   ----------------------------------------
	BYTE		        Gn1 
	BYTE	W36
	BYTE		N06   
	BYTE	W12
	BYTE		N06   
	BYTE	W48
// 015   ----------------------------------------
	BYTE	PATT
	 POIN2	LoZPhantomHourglassLinebecksThemeSme_7_011
// 016   ----------------------------------------
	BYTE		N06     As1   v127
	BYTE	W36
	BYTE		N06   
	BYTE	W12
	BYTE		        Bn1 
	BYTE	W48
// 017   ----------------------------------------
	BYTE		        Cn1 
	BYTE	W36
	BYTE		N06   
	BYTE	W12
	BYTE		        An1 
	BYTE	W48
// 018   ----------------------------------------
	BYTE		        Dn1 
	BYTE	W36
	BYTE		N06   
	BYTE	W12
	BYTE		        Dn2 
	BYTE	W48
// 019   ----------------------------------------
	BYTE		        Gn1 
	BYTE	W36
	BYTE		N06   
	BYTE	W12
	BYTE		        Fs1 
	BYTE	W36
	BYTE		N06   
	BYTE	W06
	BYTE	GoTo
	 POIN2	LoZPhantomHourglassLinebecksThemeSme_7_B1
LoZPhantomHourglassLinebecksThemeSme_7_B2:
	BYTE	FINE

//******************************************************//
	ALIGN 4

LoZPhantomHourglassLinebecksThemeSme:
	BYTE	7	// NumTrks
	BYTE	0	// NumBlks
	BYTE	LoZPhantomHourglassLinebecksThemeSme_pri	// Priority
	BYTE	LoZPhantomHourglassLinebecksThemeSme_rev	// Reverb.

	POIN2	LoZPhantomHourglassLinebecksThemeSme_grp

	POIN2	LoZPhantomHourglassLinebecksThemeSme_1
	POIN2	LoZPhantomHourglassLinebecksThemeSme_2
	POIN2	LoZPhantomHourglassLinebecksThemeSme_3
	POIN2	LoZPhantomHourglassLinebecksThemeSme_4
	POIN2	LoZPhantomHourglassLinebecksThemeSme_5
	POIN2	LoZPhantomHourglassLinebecksThemeSme_6
	POIN2	LoZPhantomHourglassLinebecksThemeSme_7

	
