//Event file generated from Sappy .s format.
	#include "MPlayDef.event"

	#define	LoZPhantomHourglassMercayIslandFeier_grp  voicegroup000
	#define	LoZPhantomHourglassMercayIslandFeier_pri  0
	#define	LoZPhantomHourglassMercayIslandFeier_rev  0
	#define	LoZPhantomHourglassMercayIslandFeier_mvl  127
	#define	LoZPhantomHourglassMercayIslandFeier_key  0
	#define	LoZPhantomHourglassMercayIslandFeier_tbs  1
	#define	LoZPhantomHourglassMercayIslandFeier_exg  0
	#define	LoZPhantomHourglassMercayIslandFeier_cmp  1

	// .rodata
	//	LoZPhantomHourglassMercayIslandFeier
	ALIGN 4


//**************** Track 1 (Midi-Chn.0) ****************//

LoZPhantomHourglassMercayIslandFeier_001:
// 000   ----------------------------------------
 BYTE   KEYSH   LoZPhantomHourglassMercayIslandFeier_key+0
 BYTE   TEMPO   106*LoZPhantomHourglassMercayIslandFeier_tbs/2
 BYTE   VOICE   71
 BYTE   VOL   80*LoZPhantomHourglassMercayIslandFeier_mvl/mxv
 BYTE   W04
 BYTE   N01  Dn3  v080
 BYTE   W02
 BYTE   Fs3
 BYTE   W01
 BYTE   An3
 BYTE   W02
 BYTE   N09  Dn4
 BYTE   W12
 BYTE   N03  Cn4
 BYTE   W12
 BYTE   An3
 BYTE   W12
 BYTE   Fs3
 BYTE   W12
 BYTE   N24  Dn3
 BYTE   W36
 BYTE   W03
// 001   ----------------------------------------
Label_0_54807F:
 BYTE   N06  Dn4  v080
 BYTE   W06
 BYTE   Cn4
 BYTE   W06
 BYTE   N12  Bn3
 BYTE   W24
 BYTE   N06  Dn4
 BYTE   W12
 BYTE   Gn4
 BYTE   W12
 BYTE   N24  Dn4
 BYTE   W36
 BYTE   PEND 
// 002   ----------------------------------------
 BYTE   N06  Cn4
 BYTE   W06
 BYTE   Bn3
 BYTE   W06
 BYTE   N12  Cn4
 BYTE   W24
 BYTE   N06  An3
 BYTE   W12
 BYTE   Bn3
 BYTE   W12
 BYTE   N24  Cn4
 BYTE   W36
// 003   ----------------------------------------
Label_0_5480A1:
 BYTE   W12
 BYTE   N01  Cn4  v080
 BYTE   W01
 BYTE   N10  Dn4
 BYTE   W11
 BYTE   N06  An4
 BYTE   W12
 BYTE   N06
 BYTE   W12
 BYTE   N06
 BYTE   W12
 BYTE   N24  Cn4
 BYTE   W36
 BYTE   PEND 
// 004   ----------------------------------------
 BYTE   N06  Dn4
 BYTE   W06
 BYTE   Cn4
 BYTE   W06
 BYTE   N12  Bn3
 BYTE   W24
 BYTE   N06  Gn3
 BYTE   W12
 BYTE   Bn3
 BYTE   W12
 BYTE   N24  An3
 BYTE   W36
 BYTE   PATT
  POIN2 Label_0_54807F
// 005   ----------------------------------------
 BYTE   N06  Cs4  v080
 BYTE   W06
 BYTE   Bn3
 BYTE   W06
 BYTE   N12  Cs4
 BYTE   W24
 BYTE   N06  An3
 BYTE   W12
 BYTE   Bn3
 BYTE   W12
 BYTE   N24  Cs4
 BYTE   W36
 BYTE   PATT
  POIN2 Label_0_5480A1
// 006   ----------------------------------------
 BYTE   N06  Dn4  v080
 BYTE   W06
 BYTE   Cn4
 BYTE   W06
 BYTE   N12  Bn3
 BYTE   W24
 BYTE   N60  Gn4
 BYTE   W60
// 007   ----------------------------------------
Label_0_5480EB:
 BYTE   W72
 BYTE   N06  En4  v080
 BYTE   W12
 BYTE   Fs4
 BYTE   W12
 BYTE   PEND 
// 008   ----------------------------------------
Label_0_5480F3:
 BYTE   N06  Gn4  v080
 BYTE   W12
 BYTE   An4
 BYTE   W24
 BYTE   Dn4
 BYTE   W12
 BYTE   N06
 BYTE   W48
 BYTE   PEND 
// 009   ----------------------------------------
Label_0_5480FE:
 BYTE   W72
 BYTE   N06  Dn4  v080
 BYTE   W12
 BYTE   En4
 BYTE   W12
 BYTE   PEND 
// 010   ----------------------------------------
Label_0_548106:
 BYTE   N06  Fn4  v080
 BYTE   W12
 BYTE   Gn4
 BYTE   W24
 BYTE   Gn3
 BYTE   W12
 BYTE   N06
 BYTE   W48
 BYTE   PEND 
 BYTE   PATT
  POIN2 Label_0_5480EB
 BYTE   PATT
  POIN2 Label_0_5480F3
 BYTE   PATT
  POIN2 Label_0_5480FE
 BYTE   PATT
  POIN2 Label_0_548106
// 011   ----------------------------------------
 BYTE   W72
 BYTE   N06  Gn3  v080
 BYTE   W24
// 012   ----------------------------------------
 BYTE   N06
 BYTE   W12
 BYTE   Cn4
 BYTE   W12
 BYTE   Bn3
 BYTE   W12
 BYTE   An3
 BYTE   W12
 BYTE   Gn3
 BYTE   W24
 BYTE   Fs3
 BYTE   W24
// 013   ----------------------------------------
 BYTE   An3
 BYTE   W12
 BYTE   Dn4
 BYTE   W84
// 014   ----------------------------------------
 BYTE   GoTo
  POIN2 Label_0_54807F
 BYTE   FINE

//**************** Track 2 (Midi-Chn.1) ****************//

LoZPhantomHourglassMercayIslandFeier_002:
// 000   ----------------------------------------
 BYTE   KEYSH   LoZPhantomHourglassMercayIslandFeier_key+0
 BYTE   VOICE   71
 BYTE   VOL   80*LoZPhantomHourglassMercayIslandFeier_mvl/mxv
 BYTE   W96
// 001   ----------------------------------------
Label_1_548732:
 BYTE   N06  Bn3  v080
 BYTE   W06
 BYTE   An3
 BYTE   W06
 BYTE   N12  Gn3
 BYTE   W24
 BYTE   N06  Bn3
 BYTE   W12
 BYTE   Dn4
 BYTE   W12
 BYTE   N24  Bn3
 BYTE   W36
 BYTE   PEND 
// 002   ----------------------------------------
 BYTE   N06  An3
 BYTE   W06
 BYTE   Gn3
 BYTE   W06
 BYTE   N12  An3
 BYTE   W24
 BYTE   N06  Fs3
 BYTE   W12
 BYTE   Gn3
 BYTE   W12
 BYTE   N24  An3
 BYTE   W36
// 003   ----------------------------------------
 BYTE   W12
 BYTE   N01
 BYTE   W01
 BYTE   N10  Bn3
 BYTE   W11
 BYTE   N06  Fs4
 BYTE   W12
 BYTE   N06
 BYTE   W12
 BYTE   N06
 BYTE   W12
 BYTE   N24  An3
 BYTE   W36
// 004   ----------------------------------------
 BYTE   N06  Bn3
 BYTE   W06
 BYTE   An3
 BYTE   W06
 BYTE   N12  Gn3
 BYTE   W24
 BYTE   N06  Dn3
 BYTE   W12
 BYTE   Gn3
 BYTE   W12
 BYTE   N24  Fs3
 BYTE   W36
 BYTE   PATT
  POIN2 Label_1_548732
// 005   ----------------------------------------
 BYTE   N06  An3  v080
 BYTE   W06
 BYTE   Gn3
 BYTE   W06
 BYTE   N12  An3
 BYTE   W24
 BYTE   N06  En3
 BYTE   W12
 BYTE   N06
 BYTE   W12
 BYTE   N24  An3
 BYTE   W36
// 006   ----------------------------------------
 BYTE   W12
 BYTE   N01  Fn3
 BYTE   W01
 BYTE   N10  Fs3
 BYTE   W11
 BYTE   N06  Fs4
 BYTE   W12
 BYTE   N06
 BYTE   W12
 BYTE   N06
 BYTE   W12
 BYTE   N24  An3
 BYTE   W36
// 007   ----------------------------------------
 BYTE   N06  Bn3
 BYTE   W06
 BYTE   An3
 BYTE   W06
 BYTE   N12  Gn3
 BYTE   W24
 BYTE   N60  Dn4
 BYTE   W60
// 008   ----------------------------------------
 BYTE   W96
// 009   ----------------------------------------
 BYTE   W96
// 010   ----------------------------------------
 BYTE   W96
// 011   ----------------------------------------
 BYTE   W96
// 012   ----------------------------------------
 BYTE   W96
// 013   ----------------------------------------
 BYTE   W96
// 014   ----------------------------------------
 BYTE   W96
// 015   ----------------------------------------
 BYTE   W96
// 016   ----------------------------------------
 BYTE   W96
// 017   ----------------------------------------
 BYTE   W96
// 018   ----------------------------------------
 BYTE   W96
// 019   ----------------------------------------
 BYTE   GoTo
  POIN2 Label_1_548732
 BYTE   FINE

//**************** Track 3 (Midi-Chn.2) ****************//

LoZPhantomHourglassMercayIslandFeier_003:
// 000   ----------------------------------------
 BYTE   KEYSH   LoZPhantomHourglassMercayIslandFeier_key+0
 BYTE   VOICE   46
 BYTE   VOL   80*LoZPhantomHourglassMercayIslandFeier_mvl/mxv
 BYTE   W04
 BYTE   N01  Dn3  v080
 BYTE   W02
 BYTE   Fs3
 BYTE   W01
 BYTE   An3
 BYTE   W02
 BYTE   N09  Dn4
 BYTE   W12
 BYTE   N03  Cn4
 BYTE   W12
 BYTE   An3
 BYTE   W12
 BYTE   Fs3
 BYTE   W12
 BYTE   N24  Dn3
 BYTE   W36
 BYTE   W03
// 001   ----------------------------------------
Label_2_54844E:
 BYTE   W12
 BYTE   N12  Gn2  v080
 BYTE   W12
 BYTE   Dn3
 BYTE   W12
 BYTE   N12
 BYTE   W24
 BYTE   Gn2
 BYTE   W12
 BYTE   Dn3
 BYTE   W12
 BYTE   N12
 BYTE   W12
 BYTE   PEND 
// 002   ----------------------------------------
Label_2_54845E:
 BYTE   W12
 BYTE   N12  Gn2  v080
 BYTE   W12
 BYTE   En3
 BYTE   W12
 BYTE   N12
 BYTE   W24
 BYTE   Gn2
 BYTE   W12
 BYTE   En3
 BYTE   W12
 BYTE   N12
 BYTE   W12
 BYTE   PEND 
// 003   ----------------------------------------
 BYTE   W12
 BYTE   Gn2
 BYTE   W12
 BYTE   Fs3
 BYTE   W12
 BYTE   N12
 BYTE   W24
 BYTE   Gn2
 BYTE   W12
 BYTE   Fs3
 BYTE   W12
 BYTE   N12
 BYTE   W12
// 004   ----------------------------------------
 BYTE   W12
 BYTE   Gn2
 BYTE   W12
 BYTE   Dn3
 BYTE   W12
 BYTE   N12
 BYTE   W24
 BYTE   Dn2
 BYTE   W12
 BYTE   An2
 BYTE   W12
 BYTE   N12
 BYTE   W12
 BYTE   PATT
  POIN2 Label_2_54844E
 BYTE   PATT
  POIN2 Label_2_54845E
// 005   ----------------------------------------
 BYTE   W12
 BYTE   N12  Fs2  v080
 BYTE   W12
 BYTE   Dn3
 BYTE   W12
 BYTE   N12
 BYTE   W24
 BYTE   Fs2
 BYTE   W12
 BYTE   Dn3
 BYTE   W12
 BYTE   N12
 BYTE   W12
// 006   ----------------------------------------
 BYTE   W12
 BYTE   Fn2
 BYTE   W12
 BYTE   Dn3
 BYTE   W12
 BYTE   N12
 BYTE   W24
 BYTE   Fn2
 BYTE   W12
 BYTE   Dn3
 BYTE   W12
 BYTE   N12
 BYTE   W12
// 007   ----------------------------------------
Label_2_5484AE:
 BYTE   W12
 BYTE   N12  Cn3  v080
 BYTE   W12
 BYTE   Gn3
 BYTE   W12
 BYTE   N12
 BYTE   W24
 BYTE   Cn3
 BYTE   W12
 BYTE   Gn3
 BYTE   W12
 BYTE   N12
 BYTE   W12
 BYTE   PEND 
// 008   ----------------------------------------
Label_2_5484BE:
 BYTE   W12
 BYTE   N12  Dn3  v080
 BYTE   W12
 BYTE   An3
 BYTE   W12
 BYTE   N12
 BYTE   W24
 BYTE   Dn3
 BYTE   W12
 BYTE   An3
 BYTE   W12
 BYTE   N12
 BYTE   W12
 BYTE   PEND 
// 009   ----------------------------------------
Label_2_5484CE:
 BYTE   W12
 BYTE   N12  Bn2  v080
 BYTE   W12
 BYTE   Gn3
 BYTE   W12
 BYTE   N12
 BYTE   W24
 BYTE   Bn2
 BYTE   W12
 BYTE   Gn3
 BYTE   W12
 BYTE   N12
 BYTE   W12
 BYTE   PEND 
// 010   ----------------------------------------
 BYTE   W12
 BYTE   En3
 BYTE   W12
 BYTE   Bn3
 BYTE   W12
 BYTE   N12
 BYTE   W24
 BYTE   En3
 BYTE   W12
 BYTE   Bn3
 BYTE   W12
 BYTE   N12
 BYTE   W12
 BYTE   PATT
  POIN2 Label_2_5484AE
 BYTE   PATT
  POIN2 Label_2_5484BE
 BYTE   PATT
  POIN2 Label_2_5484CE
// 011   ----------------------------------------
 BYTE   W12
 BYTE   N12  As2  v080
 BYTE   W12
 BYTE   Gn3
 BYTE   W12
 BYTE   N12
 BYTE   W24
 BYTE   As2
 BYTE   W12
 BYTE   Gn3
 BYTE   W12
 BYTE   N12
 BYTE   W12
// 012   ----------------------------------------
 BYTE   W12
 BYTE   An2
 BYTE   W12
 BYTE   Gn3
 BYTE   W12
 BYTE   N12
 BYTE   W24
 BYTE   An2
 BYTE   W12
 BYTE   Gn3
 BYTE   W12
 BYTE   N12
 BYTE   W12
// 013   ----------------------------------------
Label_2_548516:
 BYTE   W12
 BYTE   N12  Dn2  v080
 BYTE   W12
 BYTE   An2
 BYTE   W12
 BYTE   N12
 BYTE   W24
 BYTE   Dn2
 BYTE   W12
 BYTE   An2
 BYTE   W12
 BYTE   N12
 BYTE   W12
 BYTE   PEND 
 BYTE   PATT
  POIN2 Label_2_548516
// 014   ----------------------------------------
 BYTE   GoTo
  POIN2 Label_2_54844E
 BYTE   FINE

//**************** Track 4 (Midi-Chn.3) ****************//

LoZPhantomHourglassMercayIslandFeier_004:
// 000   ----------------------------------------
 BYTE   KEYSH   LoZPhantomHourglassMercayIslandFeier_key+0
 BYTE   VOICE   71
 BYTE   VOL   80*LoZPhantomHourglassMercayIslandFeier_mvl/mxv
 BYTE   W96
// 001   ----------------------------------------
Label_3_548244:
 BYTE   W12
 BYTE   N06  Gn2  v080
 BYTE   W12
 BYTE   Dn3
 BYTE   W24
 BYTE   N06
 BYTE   W12
 BYTE   Gn2
 BYTE   W12
 BYTE   Dn3
 BYTE   W24
 BYTE   PEND 
// 002   ----------------------------------------
Label_3_548252:
 BYTE   N06  Dn3  v080
 BYTE   W12
 BYTE   Gn2
 BYTE   W12
 BYTE   En3
 BYTE   W24
 BYTE   N06
 BYTE   W12
 BYTE   Gn2
 BYTE   W12
 BYTE   En3
 BYTE   W24
 BYTE   PEND 
// 003   ----------------------------------------
 BYTE   N06
 BYTE   W12
 BYTE   Gn2
 BYTE   W12
 BYTE   Fs3
 BYTE   W24
 BYTE   N06
 BYTE   W12
 BYTE   Gn2
 BYTE   W12
 BYTE   Fs3
 BYTE   W24
// 004   ----------------------------------------
 BYTE   N06
 BYTE   W12
 BYTE   Gn2
 BYTE   W12
 BYTE   Dn3
 BYTE   W24
 BYTE   N06
 BYTE   W12
 BYTE   Dn2
 BYTE   W12
 BYTE   An2
 BYTE   W12
 BYTE   N06
 BYTE   W12
 BYTE   PATT
  POIN2 Label_3_548244
 BYTE   PATT
  POIN2 Label_3_548252
// 005   ----------------------------------------
 BYTE   N06  En3  v080
 BYTE   W12
 BYTE   Fs2
 BYTE   W12
 BYTE   Dn3
 BYTE   W24
 BYTE   N06
 BYTE   W12
 BYTE   Fs2
 BYTE   W12
 BYTE   Dn3
 BYTE   W24
// 006   ----------------------------------------
 BYTE   N06
 BYTE   W12
 BYTE   Fn2
 BYTE   W12
 BYTE   Dn3
 BYTE   W24
 BYTE   N06
 BYTE   W12
 BYTE   Fn2
 BYTE   W12
 BYTE   Dn3
 BYTE   W24
// 007   ----------------------------------------
 BYTE   N06
 BYTE   W12
 BYTE   Cn3
 BYTE   W12
 BYTE   Gn3
 BYTE   W24
 BYTE   N06
 BYTE   W12
 BYTE   Cn3
 BYTE   W12
 BYTE   Gn3
 BYTE   W24
// 008   ----------------------------------------
Label_3_5482AB:
 BYTE   N06  Gn3  v080
 BYTE   W12
 BYTE   Dn3
 BYTE   W12
 BYTE   An3
 BYTE   W24
 BYTE   N06
 BYTE   W12
 BYTE   Dn3
 BYTE   W12
 BYTE   An3
 BYTE   W24
 BYTE   PEND 
// 009   ----------------------------------------
Label_3_5482BA:
 BYTE   N06  An3  v080
 BYTE   W12
 BYTE   Bn2
 BYTE   W12
 BYTE   Gn3
 BYTE   W24
 BYTE   N06
 BYTE   W12
 BYTE   Bn2
 BYTE   W12
 BYTE   Gn3
 BYTE   W24
 BYTE   PEND 
// 010   ----------------------------------------
 BYTE   N06
 BYTE   W12
 BYTE   En3
 BYTE   W12
 BYTE   Bn3
 BYTE   W24
 BYTE   N06
 BYTE   W12
 BYTE   En3
 BYTE   W12
 BYTE   Bn3
 BYTE   W24
// 011   ----------------------------------------
 BYTE   N06
 BYTE   W12
 BYTE   Cn3
 BYTE   W12
 BYTE   Gn3
 BYTE   W24
 BYTE   N06
 BYTE   W12
 BYTE   Cn3
 BYTE   W12
 BYTE   Gn3
 BYTE   W24
 BYTE   PATT
  POIN2 Label_3_5482AB
 BYTE   PATT
  POIN2 Label_3_5482BA
// 012   ----------------------------------------
 BYTE   N06  Gn3  v080
 BYTE   W12
 BYTE   As2
 BYTE   W12
 BYTE   Gn3
 BYTE   W24
 BYTE   N06
 BYTE   W12
 BYTE   As2
 BYTE   W12
 BYTE   Gn3
 BYTE   W24
// 013   ----------------------------------------
 BYTE   N06
 BYTE   W12
 BYTE   An2
 BYTE   W12
 BYTE   Gn3
 BYTE   W24
 BYTE   N06
 BYTE   W12
 BYTE   An2
 BYTE   W12
 BYTE   Gn3
 BYTE   W24
// 014   ----------------------------------------
 BYTE   N06
 BYTE   W12
 BYTE   Dn2
 BYTE   W12
 BYTE   Gn2
 BYTE   W24
 BYTE   N06
 BYTE   W12
 BYTE   Dn2
 BYTE   W12
 BYTE   Gn2
 BYTE   W24
// 015   ----------------------------------------
 BYTE   N06
 BYTE   W12
 BYTE   Dn2
 BYTE   W12
 BYTE   Fs2
 BYTE   W24
 BYTE   N06
 BYTE   W12
 BYTE   Dn2
 BYTE   W12
 BYTE   Fs2
 BYTE   W24
// 016   ----------------------------------------
 BYTE   GoTo
  POIN2 Label_3_548244
 BYTE   FINE

//******************************************************//
	ALIGN 4

LoZPhantomHourglassMercayIslandFeier:
	BYTE	4	// NumTrks
	BYTE	0	// NumBlks
	BYTE	LoZPhantomHourglassMercayIslandFeier_pri	// Priority
	BYTE	LoZPhantomHourglassMercayIslandFeier_rev	// Reverb.
    
	POIN2	LoZPhantomHourglassMercayIslandFeier_grp
    
	POIN2	LoZPhantomHourglassMercayIslandFeier_001
	POIN2	LoZPhantomHourglassMercayIslandFeier_002
	POIN2	LoZPhantomHourglassMercayIslandFeier_003
	POIN2	LoZPhantomHourglassMercayIslandFeier_004

	
