//Event file generated from Sappy .s format.
	#include "MPlayDef.event"

	#define	LoZTwilightPrincessHiddenVillagePandan_grp  voicegroup000
	#define	LoZTwilightPrincessHiddenVillagePandan_pri  0
	#define	LoZTwilightPrincessHiddenVillagePandan_rev  0
	#define	LoZTwilightPrincessHiddenVillagePandan_mvl  127
	#define	LoZTwilightPrincessHiddenVillagePandan_key  0
	#define	LoZTwilightPrincessHiddenVillagePandan_tbs  1
	#define	LoZTwilightPrincessHiddenVillagePandan_exg  0
	#define	LoZTwilightPrincessHiddenVillagePandan_cmp  1

	// .rodata
	//	LoZTwilightPrincessHiddenVillagePandan
	ALIGN 4


//**************** Track 1 (Midi-Chn.0) ****************//

LoZTwilightPrincessHiddenVillagePandan_001:
// 000   ----------------------------------------
 BYTE   KEYSH   LoZTwilightPrincessHiddenVillagePandan_key+0
 BYTE   TEMPO   138*LoZTwilightPrincessHiddenVillagePandan_tbs/2
 BYTE   VOICE   41
 BYTE   VOL   50*LoZTwilightPrincessHiddenVillagePandan_mvl/mxv
 BYTE   PAN   c_v+0
 BYTE   W80
 BYTE   W01
Label_0_0177D7C0:
 BYTE   W15
// 001   ----------------------------------------
 BYTE   W96
// 002   ----------------------------------------
 BYTE   W96
// 003   ----------------------------------------
Label_0_0177D7C3:
 BYTE   N60  Bn1  v100
 BYTE   W60
 BYTE   N12  Cs2
 BYTE   W12
 BYTE   Dn2
 BYTE   W12
 BYTE   Bn1
 BYTE   W12
 BYTE   PEND 
// 004   ----------------------------------------
Label_0_0177D7CF:
 BYTE   N48  An1  v100
 BYTE   W48
 BYTE   Fs1
 BYTE   W48
 BYTE   PEND 
 BYTE   PATT
  POIN2 Label_0_0177D7C3
// 005   ----------------------------------------
 BYTE   N96  An1  v100
 BYTE   W96
 BYTE   PATT
  POIN2 Label_0_0177D7C3
 BYTE   PATT
  POIN2 Label_0_0177D7CF
// 006   ----------------------------------------
 BYTE   N72  Bn1  v100
 BYTE   W96
// 007   ----------------------------------------
 BYTE   W96
// 008   ----------------------------------------
Label_0_0177D7EE:
 BYTE   N60  Dn2  v100
 BYTE   W60
 BYTE   N12  En2
 BYTE   W12
 BYTE   Fs2
 BYTE   W12
 BYTE   Dn2
 BYTE   W12
 BYTE   PEND 
// 009   ----------------------------------------
Label_0_0177D7FA:
 BYTE   N48  Cs2  v100
 BYTE   W48
 BYTE   An1
 BYTE   W48
 BYTE   PEND 
 BYTE   PATT
  POIN2 Label_0_0177D7EE
// 010   ----------------------------------------
 BYTE   N72  Cs2  v100
 BYTE   W96
 BYTE   PATT
  POIN2 Label_0_0177D7EE
 BYTE   PATT
  POIN2 Label_0_0177D7FA
// 011   ----------------------------------------
 BYTE   N72  Dn2  v100
 BYTE   W96
// 012   ----------------------------------------
 BYTE   W84
 BYTE   N06  En2
 BYTE   W06
 BYTE   Fs2
 BYTE   W06
// 013   ----------------------------------------
Label_0_0177D81E:
 BYTE   N48  Gn2  v100
 BYTE   W72
 BYTE   N12  An2
 BYTE   W12
 BYTE   Bn2
 BYTE   W12
 BYTE   PEND 
// 014   ----------------------------------------
 BYTE   N48  Fs2
 BYTE   W48
 BYTE   N36  Dn2
 BYTE   W36
 BYTE   N06
 BYTE   W06
 BYTE   En2
 BYTE   W06
// 015   ----------------------------------------
 BYTE   N48  Fn2
 BYTE   W72
 BYTE   N12  Gn2
 BYTE   W12
 BYTE   An2
 BYTE   W12
// 016   ----------------------------------------
 BYTE   N48  En2
 BYTE   W48
 BYTE   N36  Cn2
 BYTE   W36
 BYTE   N06  En2
 BYTE   W06
 BYTE   Fs2
 BYTE   W06
 BYTE   PATT
  POIN2 Label_0_0177D81E
// 017   ----------------------------------------
 BYTE   N48  Fs2  v100
 BYTE   W48
 BYTE   N36  Dn2
 BYTE   N36  Fs2
 BYTE   N36  Dn3
 BYTE   W36
 BYTE   N06  Bn2
 BYTE   W06
 BYTE   Cs3
 BYTE   W06
// 018   ----------------------------------------
 BYTE   N24  Dn2
 BYTE   N24  Gn2
 BYTE   N24  Dn3
 BYTE   W24
 BYTE   N48  Cs2
 BYTE   N48  Cs3
 BYTE   W48
 BYTE   N24  Fs2
 BYTE   N24  Fs3
 BYTE   W24
// 019   ----------------------------------------
 BYTE   N42  Cs2
 BYTE   N42  Cs3
 BYTE   W42
 BYTE   N03  Cn2
 BYTE   N03  Cn3
 BYTE   W03
 BYTE   Bn1
 BYTE   N03  Bn2
 BYTE   W03
 BYTE   N48  As1
 BYTE   N48  As2
 BYTE   W48
 BYTE   PATT
  POIN2 Label_0_0177D7C3
 BYTE   PATT
  POIN2 Label_0_0177D7CF
 BYTE   PATT
  POIN2 Label_0_0177D7C3
// 020   ----------------------------------------
 BYTE   N96  An1  v100
 BYTE   W96
 BYTE   PATT
  POIN2 Label_0_0177D7C3
 BYTE   PATT
  POIN2 Label_0_0177D7CF
// 021   ----------------------------------------
 BYTE   N72  Bn1  v100
 BYTE   W96
// 022   ----------------------------------------
 BYTE   W96
// 023   ----------------------------------------
 BYTE   W96
// 024   ----------------------------------------
 BYTE   W96
// 025   ----------------------------------------
 BYTE   W24
 BYTE   GoTo
  POIN2 Label_0_0177D7C0
 BYTE   FINE

//**************** Track 2 (Midi-Chn.1) ****************//

LoZTwilightPrincessHiddenVillagePandan_002:
// 000   ----------------------------------------
 BYTE   KEYSH   LoZTwilightPrincessHiddenVillagePandan_key+0
 BYTE   VOICE   41
 BYTE   VOL   47*LoZTwilightPrincessHiddenVillagePandan_mvl/mxv
 BYTE   PAN   c_v+0
 BYTE   W80
 BYTE   W01
Label_1_0177D8B6:
 BYTE   W03
 BYTE   N06  Fs2  v100
 BYTE   N06  Cs3
 BYTE   N06  Fs3
 BYTE   W06
 BYTE   Bn2
 BYTE   N06  Fs3
 BYTE   N06  Bn3
 BYTE   W06
// 001   ----------------------------------------
 BYTE   N12  Bn1
 BYTE   N12  Fs2
 BYTE   N36  Bn2
 BYTE   N36  Fs3
 BYTE   N36  Bn3
 BYTE   W12
 BYTE   N06  Bn1
 BYTE   N06  Fs2
 BYTE   W06
 BYTE   Bn1
 BYTE   N06  Fs2
 BYTE   W06
 BYTE   N12  Bn1
 BYTE   N12  Fs2
 BYTE   W12
 BYTE   N06  Bn1
 BYTE   N06  Fs2
 BYTE   W06
 BYTE   Bn1
 BYTE   N06  Fs2
 BYTE   W06
 BYTE   N12  Bn1
 BYTE   N12  Fs2
 BYTE   W12
 BYTE   N06  Bn1
 BYTE   N06  Fs2
 BYTE   W06
 BYTE   Bn1
 BYTE   N06  Fs2
 BYTE   W06
 BYTE   N12  Bn1
 BYTE   N12  Fs2
 BYTE   W12
 BYTE   N06  Bn1
 BYTE   N06  Fs2
 BYTE   W06
 BYTE   Bn1
 BYTE   N06  Fs2
 BYTE   W06
// 002   ----------------------------------------
Label_1_0177D903:
 BYTE   N12  Bn1  v100
 BYTE   N12  Fs2
 BYTE   W12
 BYTE   N06  Bn1
 BYTE   N06  Fs2
 BYTE   W06
 BYTE   Bn1
 BYTE   N06  Fs2
 BYTE   W06
 BYTE   N12  Bn1
 BYTE   N12  Fs2
 BYTE   W12
 BYTE   N06  Bn1
 BYTE   N06  Fs2
 BYTE   W06
 BYTE   Bn1
 BYTE   N06  Fs2
 BYTE   W06
 BYTE   N12  Bn1
 BYTE   N12  Fs2
 BYTE   W12
 BYTE   N06  Bn1
 BYTE   N06  Fs2
 BYTE   W06
 BYTE   Bn1
 BYTE   N06  Fs2
 BYTE   W06
 BYTE   N12  Bn1
 BYTE   N12  Fs2
 BYTE   W12
 BYTE   N06  Bn1
 BYTE   N06  Fs2
 BYTE   W06
 BYTE   Bn1
 BYTE   N06  Fs2
 BYTE   W06
 BYTE   PEND 
 BYTE   PATT
  POIN2 Label_1_0177D903
// 003   ----------------------------------------
Label_1_0177D942:
 BYTE   N12  An1  v100
 BYTE   N12  En2
 BYTE   W12
 BYTE   N06  An1
 BYTE   N06  En2
 BYTE   W06
 BYTE   An1
 BYTE   N06  En2
 BYTE   W06
 BYTE   N12  An1
 BYTE   N12  En2
 BYTE   W12
 BYTE   N06  An1
 BYTE   N06  En2
 BYTE   W06
 BYTE   An1
 BYTE   N06  En2
 BYTE   W06
 BYTE   N12  An1
 BYTE   N12  En2
 BYTE   W12
 BYTE   N06  An1
 BYTE   N06  En2
 BYTE   W06
 BYTE   An1
 BYTE   N06  En2
 BYTE   W06
 BYTE   N12  An1
 BYTE   N12  En2
 BYTE   W12
 BYTE   N06  An1
 BYTE   N06  En2
 BYTE   W06
 BYTE   An1
 BYTE   N06  En2
 BYTE   W06
 BYTE   PEND 
 BYTE   PATT
  POIN2 Label_1_0177D903
 BYTE   PATT
  POIN2 Label_1_0177D942
 BYTE   PATT
  POIN2 Label_1_0177D903
 BYTE   PATT
  POIN2 Label_1_0177D942
 BYTE   PATT
  POIN2 Label_1_0177D903
 BYTE   PATT
  POIN2 Label_1_0177D942
// 004   ----------------------------------------
Label_1_0177D99A:
 BYTE   N12  An1  v100
 BYTE   N12  Fs2
 BYTE   W12
 BYTE   N06  An1
 BYTE   N06  Fs2
 BYTE   W06
 BYTE   An1
 BYTE   N06  Fs2
 BYTE   W06
 BYTE   N12  An1
 BYTE   N12  Fs2
 BYTE   W12
 BYTE   N06  An1
 BYTE   N06  Fs2
 BYTE   W06
 BYTE   An1
 BYTE   N06  Fs2
 BYTE   W06
 BYTE   N12  An1
 BYTE   N12  Fs2
 BYTE   W12
 BYTE   N06  An1
 BYTE   N06  Fs2
 BYTE   W06
 BYTE   An1
 BYTE   N06  Fs2
 BYTE   W06
 BYTE   N12  An1
 BYTE   N12  Fs2
 BYTE   W12
 BYTE   N06  An1
 BYTE   N06  Fs2
 BYTE   W06
 BYTE   An1
 BYTE   N06  Fs2
 BYTE   W06
 BYTE   PEND 
 BYTE   PATT
  POIN2 Label_1_0177D942
 BYTE   PATT
  POIN2 Label_1_0177D903
 BYTE   PATT
  POIN2 Label_1_0177D99A
// 005   ----------------------------------------
 BYTE   N12  Bn1  v100
 BYTE   N12  Gn2
 BYTE   W12
 BYTE   N06  Bn1
 BYTE   N06  Gn2
 BYTE   W06
 BYTE   Bn1
 BYTE   N06  Gn2
 BYTE   W06
 BYTE   N12  Bn1
 BYTE   N12  Gn2
 BYTE   W12
 BYTE   N06  Bn1
 BYTE   N06  Gn2
 BYTE   W06
 BYTE   Bn1
 BYTE   N06  Gn2
 BYTE   W06
 BYTE   N12  Bn1
 BYTE   N12  Gn2
 BYTE   W12
 BYTE   N06  Bn1
 BYTE   N06  Gn2
 BYTE   W06
 BYTE   Bn1
 BYTE   N06  Gn2
 BYTE   W06
 BYTE   N12  Bn1
 BYTE   N12  Gn2
 BYTE   W12
 BYTE   N06  Bn1
 BYTE   N06  Gn2
 BYTE   W06
 BYTE   Bn1
 BYTE   N06  Gn2
 BYTE   W06
 BYTE   PATT
  POIN2 Label_1_0177D942
 BYTE   PATT
  POIN2 Label_1_0177D903
 BYTE   PATT
  POIN2 Label_1_0177D903
// 006   ----------------------------------------
Label_1_0177DA2B:
 BYTE   N12  Cn2  v100
 BYTE   N12  Gn2
 BYTE   W12
 BYTE   N06  Cn2
 BYTE   N06  Gn2
 BYTE   W06
 BYTE   Cn2
 BYTE   N06  Gn2
 BYTE   W06
 BYTE   N12  Cn2
 BYTE   N12  Gn2
 BYTE   W12
 BYTE   N06  Cn2
 BYTE   N06  Gn2
 BYTE   W06
 BYTE   Cn2
 BYTE   N06  Gn2
 BYTE   W06
 BYTE   N12  Cn2
 BYTE   N12  Gn2
 BYTE   W12
 BYTE   N06  Cn2
 BYTE   N06  Gn2
 BYTE   W06
 BYTE   Cn2
 BYTE   N06  Gn2
 BYTE   W06
 BYTE   N12  Cn2
 BYTE   N12  Gn2
 BYTE   W12
 BYTE   N06  Cn2
 BYTE   N06  Gn2
 BYTE   W06
 BYTE   Cn2
 BYTE   N06  Gn2
 BYTE   W06
 BYTE   PEND 
 BYTE   PATT
  POIN2 Label_1_0177D903
// 007   ----------------------------------------
 BYTE   N12  As1  v100
 BYTE   N12  Fn2
 BYTE   W12
 BYTE   N06  As1
 BYTE   N06  Fn2
 BYTE   W06
 BYTE   As1
 BYTE   N06  Fn2
 BYTE   W06
 BYTE   N12  As1
 BYTE   N12  Fn2
 BYTE   W12
 BYTE   N06  As1
 BYTE   N06  Fn2
 BYTE   W06
 BYTE   As1
 BYTE   N06  Fn2
 BYTE   W06
 BYTE   N12  As1
 BYTE   N12  Fn2
 BYTE   W12
 BYTE   N06  As1
 BYTE   N06  Fn2
 BYTE   W06
 BYTE   As1
 BYTE   N06  Fn2
 BYTE   W06
 BYTE   N12  As1
 BYTE   N12  Fn2
 BYTE   W12
 BYTE   N06  As1
 BYTE   N06  Fn2
 BYTE   W06
 BYTE   As1
 BYTE   N06  Fn2
 BYTE   W06
 BYTE   PATT
  POIN2 Label_1_0177D942
 BYTE   PATT
  POIN2 Label_1_0177DA2B
 BYTE   PATT
  POIN2 Label_1_0177D903
// 008   ----------------------------------------
 BYTE   N12  Dn2  v100
 BYTE   N12  Gn2
 BYTE   W12
 BYTE   N06  Dn2
 BYTE   N06  Gn2
 BYTE   W06
 BYTE   Dn2
 BYTE   N06  Gn2
 BYTE   W06
 BYTE   N12  Cs2
 BYTE   N12  Fs2
 BYTE   W12
 BYTE   N06  Cs2
 BYTE   N06  Fs2
 BYTE   W06
 BYTE   Cs2
 BYTE   N06  Fs2
 BYTE   W06
 BYTE   N12  Cs2
 BYTE   N12  Fs2
 BYTE   W12
 BYTE   N06  Cs2
 BYTE   N06  Fs2
 BYTE   W06
 BYTE   Cs2
 BYTE   N06  Fs2
 BYTE   W06
 BYTE   N12  Cs2
 BYTE   N12  Fs2
 BYTE   W12
 BYTE   N06  Cs2
 BYTE   N06  Fs2
 BYTE   W06
 BYTE   Cs2
 BYTE   N06  Fs2
 BYTE   W06
// 009   ----------------------------------------
 BYTE   N12  Cs2
 BYTE   N12  Fs2
 BYTE   W12
 BYTE   N06  Cs2
 BYTE   N06  Fs2
 BYTE   W06
 BYTE   Cs2
 BYTE   N06  Fs2
 BYTE   W06
 BYTE   N12  Cs2
 BYTE   N12  Fs2
 BYTE   W12
 BYTE   N06  Cs2
 BYTE   N06  Fs2
 BYTE   W06
 BYTE   Cs2
 BYTE   N06  Fs2
 BYTE   W06
 BYTE   N12  As1
 BYTE   N12  Fs2
 BYTE   W12
 BYTE   N06  As1
 BYTE   N06  Fs2
 BYTE   W06
 BYTE   As1
 BYTE   N06  Fs2
 BYTE   W06
 BYTE   N12  As1
 BYTE   N12  Fs2
 BYTE   W12
 BYTE   N06  As1
 BYTE   N06  Fs2
 BYTE   W06
 BYTE   As1
 BYTE   N06  Fs2
 BYTE   W06
 BYTE   PATT
  POIN2 Label_1_0177D903
 BYTE   PATT
  POIN2 Label_1_0177D942
 BYTE   PATT
  POIN2 Label_1_0177D903
 BYTE   PATT
  POIN2 Label_1_0177D942
 BYTE   PATT
  POIN2 Label_1_0177D903
 BYTE   PATT
  POIN2 Label_1_0177D942
 BYTE   PATT
  POIN2 Label_1_0177D903
 BYTE   PATT
  POIN2 Label_1_0177D903
 BYTE   PATT
  POIN2 Label_1_0177D903
 BYTE   PATT
  POIN2 Label_1_0177D903
// 010   ----------------------------------------
 BYTE   W24
 BYTE   GoTo
  POIN2 Label_1_0177D8B6
 BYTE   FINE

//**************** Track 3 (Midi-Chn.2) ****************//

LoZTwilightPrincessHiddenVillagePandan_003:
// 000   ----------------------------------------
 BYTE   KEYSH   LoZTwilightPrincessHiddenVillagePandan_key+0
 BYTE   VOICE   56
 BYTE   VOL   35*LoZTwilightPrincessHiddenVillagePandan_mvl/mxv
 BYTE   PAN   c_v+0
 BYTE   W80
 BYTE   W01
Label_2_0177DB66:
 BYTE   W15
// 001   ----------------------------------------
 BYTE   W96
// 002   ----------------------------------------
 BYTE   W96
// 003   ----------------------------------------
 BYTE   W96
// 004   ----------------------------------------
 BYTE   W96
// 005   ----------------------------------------
 BYTE   W96
// 006   ----------------------------------------
 BYTE   W96
// 007   ----------------------------------------
 BYTE   W96
// 008   ----------------------------------------
 BYTE   W96
// 009   ----------------------------------------
 BYTE   W96
// 010   ----------------------------------------
 BYTE   W96
// 011   ----------------------------------------
 BYTE   W96
// 012   ----------------------------------------
 BYTE   W96
// 013   ----------------------------------------
 BYTE   W96
// 014   ----------------------------------------
 BYTE   W96
// 015   ----------------------------------------
 BYTE   W96
// 016   ----------------------------------------
 BYTE   W96
// 017   ----------------------------------------
 BYTE   W96
// 018   ----------------------------------------
 BYTE   W96
// 019   ----------------------------------------
 BYTE   W96
// 020   ----------------------------------------
 BYTE   W96
// 021   ----------------------------------------
 BYTE   W96
// 022   ----------------------------------------
 BYTE   W96
// 023   ----------------------------------------
 BYTE   W96
// 024   ----------------------------------------
 BYTE   W96
// 025   ----------------------------------------
 BYTE   W96
// 026   ----------------------------------------
 BYTE   W96
// 027   ----------------------------------------
Label_2_0177DB81:
 BYTE   N60  Fs3  v100
 BYTE   N60  Bn3
 BYTE   W60
 BYTE   N12  Gs3
 BYTE   N12  Cs4
 BYTE   W12
 BYTE   An3
 BYTE   N12  Dn4
 BYTE   W12
 BYTE   Fs3
 BYTE   N12  Bn3
 BYTE   W12
 BYTE   PEND 
// 028   ----------------------------------------
Label_2_0177DB95:
 BYTE   N48  En3  v100
 BYTE   N48  An3
 BYTE   W48
 BYTE   Cs3
 BYTE   N48  Fs3
 BYTE   W48
 BYTE   PEND 
 BYTE   PATT
  POIN2 Label_2_0177DB81
// 029   ----------------------------------------
 BYTE   N72  En3  v100
 BYTE   N72  An3
 BYTE   W96
 BYTE   PATT
  POIN2 Label_2_0177DB81
 BYTE   PATT
  POIN2 Label_2_0177DB95
// 030   ----------------------------------------
 BYTE   N72  Fs3  v100
 BYTE   N72  Bn3
 BYTE   W96
// 031   ----------------------------------------
 BYTE   W96
// 032   ----------------------------------------
 BYTE   W96
// 033   ----------------------------------------
 BYTE   W96
// 034   ----------------------------------------
 BYTE   W24
 BYTE   GoTo
  POIN2 Label_2_0177DB66
 BYTE   FINE

//**************** Track 4 (Midi-Chn.3) ****************//

LoZTwilightPrincessHiddenVillagePandan_004:
// 000   ----------------------------------------
 BYTE   KEYSH   LoZTwilightPrincessHiddenVillagePandan_key+0
 BYTE   VOICE   73
 BYTE   VOL   50*LoZTwilightPrincessHiddenVillagePandan_mvl/mxv
 BYTE   PAN   c_v-45
 BYTE   W80
 BYTE   W01
Label_3_0177DBD2:
 BYTE   W15
// 001   ----------------------------------------
 BYTE   W96
// 002   ----------------------------------------
 BYTE   W96
// 003   ----------------------------------------
 BYTE   W96
// 004   ----------------------------------------
 BYTE   W96
// 005   ----------------------------------------
 BYTE   W96
// 006   ----------------------------------------
 BYTE   W96
// 007   ----------------------------------------
 BYTE   W96
// 008   ----------------------------------------
 BYTE   W96
// 009   ----------------------------------------
 BYTE   N24  Bn4  v100
 BYTE   W24
 BYTE   Gn5
 BYTE   W24
 BYTE   Fs5
 BYTE   W24
 BYTE   Dn5
 BYTE   W24
// 010   ----------------------------------------
 BYTE   N72  Cs5
 BYTE   W96
// 011   ----------------------------------------
 BYTE   W96
// 012   ----------------------------------------
 BYTE   W96
// 013   ----------------------------------------
 BYTE   W96
// 014   ----------------------------------------
 BYTE   W96
// 015   ----------------------------------------
 BYTE   W96
// 016   ----------------------------------------
 BYTE   W96
// 017   ----------------------------------------
 BYTE   N24  Bn4
 BYTE   W24
 BYTE   Dn6
 BYTE   W24
 BYTE   Cs6
 BYTE   W24
 BYTE   An5
 BYTE   W24
// 018   ----------------------------------------
 BYTE   N72  Fs5
 BYTE   W96
// 019   ----------------------------------------
Label_3_0177DBFA:
 BYTE   W12
 BYTE   N06  En4  v100
 BYTE   W06
 BYTE   Fs4
 BYTE   W06
 BYTE   Gn4
 BYTE   W06
 BYTE   Fs4
 BYTE   W06
 BYTE   En4
 BYTE   W06
 BYTE   Dn4
 BYTE   W06
 BYTE   N36  Cn4
 BYTE   W48
 BYTE   PEND 
// 020   ----------------------------------------
 BYTE   W96
// 021   ----------------------------------------
 BYTE   W12
 BYTE   N06  Dn4
 BYTE   W06
 BYTE   En4
 BYTE   W06
 BYTE   Fn4
 BYTE   W06
 BYTE   En4
 BYTE   W06
 BYTE   Dn4
 BYTE   W06
 BYTE   Cn4
 BYTE   W06
 BYTE   N36  As3
 BYTE   W48
// 022   ----------------------------------------
 BYTE   W96
 BYTE   PATT
  POIN2 Label_3_0177DBFA
// 023   ----------------------------------------
 BYTE   W78
 BYTE   N06  An4  v100
 BYTE   W06
 BYTE   Bn4
 BYTE   W06
 BYTE   Cs5
 BYTE   W06
// 024   ----------------------------------------
 BYTE   N24  Dn5
 BYTE   W24
 BYTE   N48  Cs5
 BYTE   W48
 BYTE   N24  Fs5
 BYTE   W24
// 025   ----------------------------------------
 BYTE   N48  Cs5
 BYTE   W48
 BYTE   As4
 BYTE   W48
// 026   ----------------------------------------
 BYTE   W96
// 027   ----------------------------------------
 BYTE   W96
// 028   ----------------------------------------
 BYTE   W96
// 029   ----------------------------------------
 BYTE   W96
// 030   ----------------------------------------
 BYTE   W96
// 031   ----------------------------------------
 BYTE   W96
// 032   ----------------------------------------
 BYTE   W96
// 033   ----------------------------------------
 BYTE   W96
// 034   ----------------------------------------
 BYTE   W96
// 035   ----------------------------------------
 BYTE   W96
// 036   ----------------------------------------
 BYTE   W24
 BYTE   GoTo
  POIN2 Label_3_0177DBD2
 BYTE   FINE

//**************** Track 5 (Midi-Chn.4) ****************//

LoZTwilightPrincessHiddenVillagePandan_005:
// 000   ----------------------------------------
 BYTE   KEYSH   LoZTwilightPrincessHiddenVillagePandan_key+0
 BYTE   VOICE   105
 BYTE   VOL   8*LoZTwilightPrincessHiddenVillagePandan_mvl/mxv
 BYTE   PAN   c_v+44
 BYTE   W80
 BYTE   W01
Label_4_0177DC5A:
 BYTE   W15
// 001   ----------------------------------------
 BYTE   W96
// 002   ----------------------------------------
 BYTE   W96
// 003   ----------------------------------------
 BYTE   W96
// 004   ----------------------------------------
 BYTE   W96
// 005   ----------------------------------------
 BYTE   W96
// 006   ----------------------------------------
 BYTE   W96
// 007   ----------------------------------------
 BYTE   W96
// 008   ----------------------------------------
 BYTE   W96
// 009   ----------------------------------------
Label_4_0177DC63:
 BYTE   N24  Bn2  v100
 BYTE   W24
 BYTE   N24
 BYTE   W24
 BYTE   Fs2
 BYTE   W24
 BYTE   N24
 BYTE   W24
 BYTE   PEND 
 BYTE   PATT
  POIN2 Label_4_0177DC63
// 010   ----------------------------------------
 BYTE   W96
// 011   ----------------------------------------
 BYTE   W96
// 012   ----------------------------------------
 BYTE   W96
// 013   ----------------------------------------
 BYTE   W96
// 014   ----------------------------------------
 BYTE   W96
// 015   ----------------------------------------
 BYTE   W96
 BYTE   PATT
  POIN2 Label_4_0177DC63
 BYTE   PATT
  POIN2 Label_4_0177DC63
// 016   ----------------------------------------
 BYTE   W96
// 017   ----------------------------------------
 BYTE   W96
// 018   ----------------------------------------
 BYTE   W96
// 019   ----------------------------------------
 BYTE   W96
// 020   ----------------------------------------
 BYTE   W96
// 021   ----------------------------------------
 BYTE   W96
// 022   ----------------------------------------
 BYTE   W96
// 023   ----------------------------------------
 BYTE   W96
// 024   ----------------------------------------
 BYTE   W96
// 025   ----------------------------------------
 BYTE   W96
// 026   ----------------------------------------
 BYTE   W96
// 027   ----------------------------------------
 BYTE   W96
// 028   ----------------------------------------
 BYTE   W96
// 029   ----------------------------------------
 BYTE   W96
 BYTE   PATT
  POIN2 Label_4_0177DC63
 BYTE   PATT
  POIN2 Label_4_0177DC63
 BYTE   PATT
  POIN2 Label_4_0177DC63
 BYTE   PATT
  POIN2 Label_4_0177DC63
// 030   ----------------------------------------
 BYTE   W24
 BYTE   GoTo
  POIN2 Label_4_0177DC5A
 BYTE   FINE

//**************** Track 6 (Midi-Chn.5) ****************//

LoZTwilightPrincessHiddenVillagePandan_006:
// 000   ----------------------------------------
 BYTE   KEYSH   LoZTwilightPrincessHiddenVillagePandan_key+0
 BYTE   VOICE   61
 BYTE   VOL   5*LoZTwilightPrincessHiddenVillagePandan_mvl/mxv
 BYTE   PAN   c_v+44
 BYTE   W80
 BYTE   W01
Label_5_0177DCB6:
 BYTE   W15
// 001   ----------------------------------------
 BYTE   W96
// 002   ----------------------------------------
 BYTE   W96
// 003   ----------------------------------------
 BYTE   W96
// 004   ----------------------------------------
 BYTE   W96
// 005   ----------------------------------------
 BYTE   W96
// 006   ----------------------------------------
 BYTE   W96
// 007   ----------------------------------------
 BYTE   W96
// 008   ----------------------------------------
 BYTE   W96
// 009   ----------------------------------------
 BYTE   W96
// 010   ----------------------------------------
 BYTE   W96
// 011   ----------------------------------------
 BYTE   W96
// 012   ----------------------------------------
 BYTE   W96
// 013   ----------------------------------------
 BYTE   W96
// 014   ----------------------------------------
 BYTE   W96
// 015   ----------------------------------------
 BYTE   W96
// 016   ----------------------------------------
 BYTE   W96
// 017   ----------------------------------------
 BYTE   W96
// 018   ----------------------------------------
 BYTE   W96
// 019   ----------------------------------------
 BYTE   W96
// 020   ----------------------------------------
 BYTE   W96
// 021   ----------------------------------------
 BYTE   W96
// 022   ----------------------------------------
 BYTE   W96
// 023   ----------------------------------------
 BYTE   W96
// 024   ----------------------------------------
 BYTE   W96
// 025   ----------------------------------------
 BYTE   W96
// 026   ----------------------------------------
 BYTE   W96
// 027   ----------------------------------------
Label_5_0177DCD1:
 BYTE   N60  Fs3  v100
 BYTE   N60  Bn3
 BYTE   W60
 BYTE   N12  Gs3
 BYTE   N12  Cs4
 BYTE   W12
 BYTE   An3
 BYTE   N12  Dn4
 BYTE   W12
 BYTE   Fs3
 BYTE   N12  Bn3
 BYTE   W12
 BYTE   PEND 
// 028   ----------------------------------------
Label_5_0177DCE5:
 BYTE   N48  En3  v100
 BYTE   N48  An3
 BYTE   W48
 BYTE   Cs3
 BYTE   N48  Fs3
 BYTE   W48
 BYTE   PEND 
 BYTE   PATT
  POIN2 Label_5_0177DCD1
// 029   ----------------------------------------
 BYTE   N72  En3  v100
 BYTE   N72  An3
 BYTE   W96
 BYTE   PATT
  POIN2 Label_5_0177DCD1
 BYTE   PATT
  POIN2 Label_5_0177DCE5
// 030   ----------------------------------------
 BYTE   N72  Fs3  v100
 BYTE   N72  Bn3
 BYTE   W96
// 031   ----------------------------------------
 BYTE   W96
// 032   ----------------------------------------
 BYTE   W96
// 033   ----------------------------------------
 BYTE   W96
// 034   ----------------------------------------
 BYTE   W24
 BYTE   GoTo
  POIN2 Label_5_0177DCB6
 BYTE   FINE

//**************** Track 7 (Midi-Chn.6) ****************//

LoZTwilightPrincessHiddenVillagePandan_007:
// 000   ----------------------------------------
 BYTE   KEYSH   LoZTwilightPrincessHiddenVillagePandan_key+0
 BYTE   VOICE   40
 BYTE   VOL   23*LoZTwilightPrincessHiddenVillagePandan_mvl/mxv
 BYTE   PAN   c_v-45
 BYTE   W80
 BYTE   W01
Label_6_0177DD22:
 BYTE   W15
// 001   ----------------------------------------
 BYTE   W96
// 002   ----------------------------------------
 BYTE   W96
// 003   ----------------------------------------
Label_6_0177DD25:
 BYTE   N60  Bn1  v100
 BYTE   W60
 BYTE   N12  Cs2
 BYTE   W12
 BYTE   Dn2
 BYTE   W12
 BYTE   Bn1
 BYTE   W12
 BYTE   PEND 
// 004   ----------------------------------------
Label_6_0177DD31:
 BYTE   N48  An1  v100
 BYTE   W48
 BYTE   Fs1
 BYTE   W48
 BYTE   PEND 
 BYTE   PATT
  POIN2 Label_6_0177DD25
// 005   ----------------------------------------
 BYTE   N96  An1  v100
 BYTE   W96
 BYTE   PATT
  POIN2 Label_6_0177DD25
 BYTE   PATT
  POIN2 Label_6_0177DD31
// 006   ----------------------------------------
 BYTE   N72  Bn1  v100
 BYTE   W96
// 007   ----------------------------------------
 BYTE   W96
// 008   ----------------------------------------
Label_6_0177DD50:
 BYTE   N60  Dn2  v100
 BYTE   W60
 BYTE   N12  En2
 BYTE   W12
 BYTE   Fs2
 BYTE   W12
 BYTE   Dn2
 BYTE   W12
 BYTE   PEND 
// 009   ----------------------------------------
Label_6_0177DD5C:
 BYTE   N48  Cs2  v100
 BYTE   W48
 BYTE   An1
 BYTE   W48
 BYTE   PEND 
 BYTE   PATT
  POIN2 Label_6_0177DD50
// 010   ----------------------------------------
 BYTE   N72  Cs2  v100
 BYTE   W96
 BYTE   PATT
  POIN2 Label_6_0177DD50
 BYTE   PATT
  POIN2 Label_6_0177DD5C
// 011   ----------------------------------------
 BYTE   N72  Dn2  v100
 BYTE   W96
// 012   ----------------------------------------
 BYTE   W84
 BYTE   N06  En2
 BYTE   W06
 BYTE   Fs2
 BYTE   W06
// 013   ----------------------------------------
Label_6_0177DD80:
 BYTE   N48  Gn2  v100
 BYTE   W72
 BYTE   N12  An2
 BYTE   W12
 BYTE   Bn2
 BYTE   W12
 BYTE   PEND 
// 014   ----------------------------------------
 BYTE   N48  Fs2
 BYTE   W48
 BYTE   N36  Dn2
 BYTE   W36
 BYTE   N06
 BYTE   W06
 BYTE   En2
 BYTE   W06
// 015   ----------------------------------------
 BYTE   N48  Fn2
 BYTE   W72
 BYTE   N12  Gn2
 BYTE   W12
 BYTE   An2
 BYTE   W12
// 016   ----------------------------------------
 BYTE   N48  En2
 BYTE   W48
 BYTE   N36  Cn2
 BYTE   W36
 BYTE   N06  En2
 BYTE   W06
 BYTE   Fs2
 BYTE   W06
 BYTE   PATT
  POIN2 Label_6_0177DD80
// 017   ----------------------------------------
 BYTE   N48  Fs2  v100
 BYTE   W48
 BYTE   N36  Dn2
 BYTE   N36  Fs2
 BYTE   N36  Dn3
 BYTE   W36
 BYTE   N06  Bn2
 BYTE   W06
 BYTE   Cs3
 BYTE   W06
// 018   ----------------------------------------
 BYTE   N24  Dn2
 BYTE   N24  Gn2
 BYTE   N24  Dn3
 BYTE   W24
 BYTE   N48  Cs2
 BYTE   N48  Cs3
 BYTE   W48
 BYTE   N24  Fs2
 BYTE   N24  Fs3
 BYTE   W24
// 019   ----------------------------------------
 BYTE   N48  Cs2
 BYTE   N48  Cs3
 BYTE   W48
 BYTE   As1
 BYTE   N48  As2
 BYTE   W48
 BYTE   PATT
  POIN2 Label_6_0177DD25
 BYTE   PATT
  POIN2 Label_6_0177DD31
 BYTE   PATT
  POIN2 Label_6_0177DD25
// 020   ----------------------------------------
 BYTE   N96  An1  v100
 BYTE   W96
 BYTE   PATT
  POIN2 Label_6_0177DD25
 BYTE   PATT
  POIN2 Label_6_0177DD31
// 021   ----------------------------------------
 BYTE   N72  Bn1  v100
 BYTE   W96
// 022   ----------------------------------------
 BYTE   W96
// 023   ----------------------------------------
 BYTE   W96
// 024   ----------------------------------------
 BYTE   W96
// 025   ----------------------------------------
 BYTE   W24
 BYTE   GoTo
  POIN2 Label_6_0177DD22
 BYTE   FINE

//**************** Track 8 (Midi-Chn.7) ****************//

LoZTwilightPrincessHiddenVillagePandan_008:
// 000   ----------------------------------------
 BYTE   KEYSH   LoZTwilightPrincessHiddenVillagePandan_key+0
 BYTE   VOICE   40
 BYTE   VOL   19*LoZTwilightPrincessHiddenVillagePandan_mvl/mxv
 BYTE   PAN   c_v+44
 BYTE   W80
 BYTE   W01
Label_7_0177DE0E:
 BYTE   W03
 BYTE   N06  Fs2  v100
 BYTE   N06  Cs3
 BYTE   N06  Fs3
 BYTE   W06
 BYTE   Bn2
 BYTE   N06  Fs3
 BYTE   N06  Bn3
 BYTE   W06
// 001   ----------------------------------------
 BYTE   N12  Bn1
 BYTE   N12  Fs2
 BYTE   N36  Bn2
 BYTE   N36  Fs3
 BYTE   N36  Bn3
 BYTE   W12
 BYTE   N06  Bn1
 BYTE   N06  Fs2
 BYTE   W06
 BYTE   Bn1
 BYTE   N06  Fs2
 BYTE   W06
 BYTE   N12  Bn1
 BYTE   N12  Fs2
 BYTE   W12
 BYTE   N06  Bn1
 BYTE   N06  Fs2
 BYTE   W06
 BYTE   Bn1
 BYTE   N06  Fs2
 BYTE   W06
 BYTE   N12  Bn1
 BYTE   N12  Fs2
 BYTE   W12
 BYTE   N06  Bn1
 BYTE   N06  Fs2
 BYTE   W06
 BYTE   Bn1
 BYTE   N06  Fs2
 BYTE   W06
 BYTE   N12  Bn1
 BYTE   N12  Fs2
 BYTE   W12
 BYTE   N06  Bn1
 BYTE   N06  Fs2
 BYTE   W06
 BYTE   Bn1
 BYTE   N06  Fs2
 BYTE   W06
// 002   ----------------------------------------
Label_7_0177DE5B:
 BYTE   N12  Bn1  v100
 BYTE   N12  Fs2
 BYTE   W12
 BYTE   N06  Bn1
 BYTE   N06  Fs2
 BYTE   W06
 BYTE   Bn1
 BYTE   N06  Fs2
 BYTE   W06
 BYTE   N12  Bn1
 BYTE   N12  Fs2
 BYTE   W12
 BYTE   N06  Bn1
 BYTE   N06  Fs2
 BYTE   W06
 BYTE   Bn1
 BYTE   N06  Fs2
 BYTE   W06
 BYTE   N12  Bn1
 BYTE   N12  Fs2
 BYTE   W12
 BYTE   N06  Bn1
 BYTE   N06  Fs2
 BYTE   W06
 BYTE   Bn1
 BYTE   N06  Fs2
 BYTE   W06
 BYTE   N12  Bn1
 BYTE   N12  Fs2
 BYTE   W12
 BYTE   N06  Bn1
 BYTE   N06  Fs2
 BYTE   W06
 BYTE   Bn1
 BYTE   N06  Fs2
 BYTE   W06
 BYTE   PEND 
 BYTE   PATT
  POIN2 Label_7_0177DE5B
// 003   ----------------------------------------
Label_7_0177DE9A:
 BYTE   N12  An1  v100
 BYTE   N12  En2
 BYTE   W12
 BYTE   N06  An1
 BYTE   N06  En2
 BYTE   W06
 BYTE   An1
 BYTE   N06  En2
 BYTE   W06
 BYTE   N12  An1
 BYTE   N12  En2
 BYTE   W12
 BYTE   N06  An1
 BYTE   N06  En2
 BYTE   W06
 BYTE   An1
 BYTE   N06  En2
 BYTE   W06
 BYTE   N12  An1
 BYTE   N12  En2
 BYTE   W12
 BYTE   N06  An1
 BYTE   N06  En2
 BYTE   W06
 BYTE   An1
 BYTE   N06  En2
 BYTE   W06
 BYTE   N12  An1
 BYTE   N12  En2
 BYTE   W12
 BYTE   N06  An1
 BYTE   N06  En2
 BYTE   W06
 BYTE   An1
 BYTE   N06  En2
 BYTE   W06
 BYTE   PEND 
 BYTE   PATT
  POIN2 Label_7_0177DE5B
 BYTE   PATT
  POIN2 Label_7_0177DE9A
 BYTE   PATT
  POIN2 Label_7_0177DE5B
 BYTE   PATT
  POIN2 Label_7_0177DE9A
 BYTE   PATT
  POIN2 Label_7_0177DE5B
 BYTE   PATT
  POIN2 Label_7_0177DE9A
// 004   ----------------------------------------
Label_7_0177DEF2:
 BYTE   N12  An1  v100
 BYTE   N12  Fs2
 BYTE   W12
 BYTE   N06  An1
 BYTE   N06  Fs2
 BYTE   W06
 BYTE   An1
 BYTE   N06  Fs2
 BYTE   W06
 BYTE   N12  An1
 BYTE   N12  Fs2
 BYTE   W12
 BYTE   N06  An1
 BYTE   N06  Fs2
 BYTE   W06
 BYTE   An1
 BYTE   N06  Fs2
 BYTE   W06
 BYTE   N12  An1
 BYTE   N12  Fs2
 BYTE   W12
 BYTE   N06  An1
 BYTE   N06  Fs2
 BYTE   W06
 BYTE   An1
 BYTE   N06  Fs2
 BYTE   W06
 BYTE   N12  An1
 BYTE   N12  Fs2
 BYTE   W12
 BYTE   N06  An1
 BYTE   N06  Fs2
 BYTE   W06
 BYTE   An1
 BYTE   N06  Fs2
 BYTE   W06
 BYTE   PEND 
 BYTE   PATT
  POIN2 Label_7_0177DE9A
 BYTE   PATT
  POIN2 Label_7_0177DE5B
 BYTE   PATT
  POIN2 Label_7_0177DEF2
// 005   ----------------------------------------
 BYTE   N12  Bn1  v100
 BYTE   N12  Gn2
 BYTE   W12
 BYTE   N06  Bn1
 BYTE   N06  Gn2
 BYTE   W06
 BYTE   Bn1
 BYTE   N06  Gn2
 BYTE   W06
 BYTE   N12  Bn1
 BYTE   N12  Gn2
 BYTE   W12
 BYTE   N06  Bn1
 BYTE   N06  Gn2
 BYTE   W06
 BYTE   Bn1
 BYTE   N06  Gn2
 BYTE   W06
 BYTE   N12  Bn1
 BYTE   N12  Gn2
 BYTE   W12
 BYTE   N06  Bn1
 BYTE   N06  Gn2
 BYTE   W06
 BYTE   Bn1
 BYTE   N06  Gn2
 BYTE   W06
 BYTE   N12  Bn1
 BYTE   N12  Gn2
 BYTE   W12
 BYTE   N06  Bn1
 BYTE   N06  Gn2
 BYTE   W06
 BYTE   Bn1
 BYTE   N06  Gn2
 BYTE   W06
 BYTE   PATT
  POIN2 Label_7_0177DE9A
 BYTE   PATT
  POIN2 Label_7_0177DE5B
 BYTE   PATT
  POIN2 Label_7_0177DE5B
// 006   ----------------------------------------
Label_7_0177DF83:
 BYTE   N12  Cn2  v100
 BYTE   N12  Gn2
 BYTE   W12
 BYTE   N06  Cn2
 BYTE   N06  Gn2
 BYTE   W06
 BYTE   Cn2
 BYTE   N06  Gn2
 BYTE   W06
 BYTE   N12  Cn2
 BYTE   N12  Gn2
 BYTE   W12
 BYTE   N06  Cn2
 BYTE   N06  Gn2
 BYTE   W06
 BYTE   Cn2
 BYTE   N06  Gn2
 BYTE   W06
 BYTE   N12  Cn2
 BYTE   N12  Gn2
 BYTE   W12
 BYTE   N06  Cn2
 BYTE   N06  Gn2
 BYTE   W06
 BYTE   Cn2
 BYTE   N06  Gn2
 BYTE   W06
 BYTE   N12  Cn2
 BYTE   N12  Gn2
 BYTE   W12
 BYTE   N06  Cn2
 BYTE   N06  Gn2
 BYTE   W06
 BYTE   Cn2
 BYTE   N06  Gn2
 BYTE   W06
 BYTE   PEND 
 BYTE   PATT
  POIN2 Label_7_0177DE5B
// 007   ----------------------------------------
 BYTE   N12  As1  v100
 BYTE   N12  Fn2
 BYTE   W12
 BYTE   N06  As1
 BYTE   N06  Fn2
 BYTE   W06
 BYTE   As1
 BYTE   N06  Fn2
 BYTE   W06
 BYTE   N12  As1
 BYTE   N12  Fn2
 BYTE   W12
 BYTE   N06  As1
 BYTE   N06  Fn2
 BYTE   W06
 BYTE   As1
 BYTE   N06  Fn2
 BYTE   W06
 BYTE   N12  As1
 BYTE   N12  Fn2
 BYTE   W12
 BYTE   N06  As1
 BYTE   N06  Fn2
 BYTE   W06
 BYTE   As1
 BYTE   N06  Fn2
 BYTE   W06
 BYTE   N12  As1
 BYTE   N12  Fn2
 BYTE   W12
 BYTE   N06  As1
 BYTE   N06  Fn2
 BYTE   W06
 BYTE   As1
 BYTE   N06  Fn2
 BYTE   W06
 BYTE   PATT
  POIN2 Label_7_0177DE9A
 BYTE   PATT
  POIN2 Label_7_0177DF83
 BYTE   PATT
  POIN2 Label_7_0177DE5B
// 008   ----------------------------------------
 BYTE   N12  Dn2  v100
 BYTE   N12  Gn2
 BYTE   W12
 BYTE   N06  Dn2
 BYTE   N06  Gn2
 BYTE   W06
 BYTE   Dn2
 BYTE   N06  Gn2
 BYTE   W06
 BYTE   N12  Cs2
 BYTE   N12  Fs2
 BYTE   W12
 BYTE   N06  Cs2
 BYTE   N06  Fs2
 BYTE   W06
 BYTE   Cs2
 BYTE   N06  Fs2
 BYTE   W06
 BYTE   N12  Cs2
 BYTE   N12  Fs2
 BYTE   W12
 BYTE   N06  Cs2
 BYTE   N06  Fs2
 BYTE   W06
 BYTE   Cs2
 BYTE   N06  Fs2
 BYTE   W06
 BYTE   N12  Cs2
 BYTE   N12  Fs2
 BYTE   W12
 BYTE   N06  Cs2
 BYTE   N06  Fs2
 BYTE   W06
 BYTE   Cs2
 BYTE   N06  Fs2
 BYTE   W06
// 009   ----------------------------------------
 BYTE   N12  Cs2
 BYTE   N12  Fs2
 BYTE   W12
 BYTE   N06  Cs2
 BYTE   N06  Fs2
 BYTE   W06
 BYTE   Cs2
 BYTE   N06  Fs2
 BYTE   W06
 BYTE   N12  Cs2
 BYTE   N12  Fs2
 BYTE   W12
 BYTE   N06  Cs2
 BYTE   N06  Fs2
 BYTE   W06
 BYTE   Cs2
 BYTE   N06  Fs2
 BYTE   W06
 BYTE   N12  As1
 BYTE   N12  Fs2
 BYTE   W12
 BYTE   N06  As1
 BYTE   N06  Fs2
 BYTE   W06
 BYTE   As1
 BYTE   N06  Fs2
 BYTE   W06
 BYTE   N12  As1
 BYTE   N12  Fs2
 BYTE   W12
 BYTE   N06  As1
 BYTE   N06  Fs2
 BYTE   W06
 BYTE   As1
 BYTE   N06  Fs2
 BYTE   W06
 BYTE   PATT
  POIN2 Label_7_0177DE5B
 BYTE   PATT
  POIN2 Label_7_0177DE9A
 BYTE   PATT
  POIN2 Label_7_0177DE5B
 BYTE   PATT
  POIN2 Label_7_0177DE9A
 BYTE   PATT
  POIN2 Label_7_0177DE5B
 BYTE   PATT
  POIN2 Label_7_0177DE9A
 BYTE   PATT
  POIN2 Label_7_0177DE5B
 BYTE   PATT
  POIN2 Label_7_0177DE5B
 BYTE   PATT
  POIN2 Label_7_0177DE5B
 BYTE   PATT
  POIN2 Label_7_0177DE5B
// 010   ----------------------------------------
 BYTE   W24
 BYTE   GoTo
  POIN2 Label_7_0177DE0E
 BYTE   FINE

//******************************************************//
	ALIGN 4

LoZTwilightPrincessHiddenVillagePandan:
	BYTE	8	// NumTrks
	BYTE	0	// NumBlks
	BYTE	LoZTwilightPrincessHiddenVillagePandan_pri	// Priority
	BYTE	LoZTwilightPrincessHiddenVillagePandan_rev	// Reverb.
    
	POIN2	LoZTwilightPrincessHiddenVillagePandan_grp
    
	POIN2	LoZTwilightPrincessHiddenVillagePandan_001
	POIN2	LoZTwilightPrincessHiddenVillagePandan_002
	POIN2	LoZTwilightPrincessHiddenVillagePandan_003
	POIN2	LoZTwilightPrincessHiddenVillagePandan_004
	POIN2	LoZTwilightPrincessHiddenVillagePandan_005
	POIN2	LoZTwilightPrincessHiddenVillagePandan_006
	POIN2	LoZTwilightPrincessHiddenVillagePandan_007
	POIN2	LoZTwilightPrincessHiddenVillagePandan_008

	
