//Event file generated from Sappy .s format.
	#include "MPlayDef.event"

	#define	DOOMIntermissionfromDoomDolkar_grp  voicegroup000
	#define	DOOMIntermissionfromDoomDolkar_pri  0
	#define	DOOMIntermissionfromDoomDolkar_rev  0
	#define	DOOMIntermissionfromDoomDolkar_mvl  127
	#define	DOOMIntermissionfromDoomDolkar_key  0
	#define	DOOMIntermissionfromDoomDolkar_tbs  1
	#define	DOOMIntermissionfromDoomDolkar_exg  0
	#define	DOOMIntermissionfromDoomDolkar_cmp  1

	// .rodata
	//	DOOMIntermissionfromDoomDolkar
	ALIGN 4


//**************** Track 1 (Midi-Chn.0) ****************//

DOOMIntermissionfromDoomDolkar_001:
// 000   ----------------------------------------
 BYTE   KEYSH   DOOMIntermissionfromDoomDolkar_key+0
Label_0_0118C0C6:
 BYTE   TEMPO   94*DOOMIntermissionfromDoomDolkar_tbs/2
 BYTE   VOICE   30
 BYTE   VOL   62*DOOMIntermissionfromDoomDolkar_mvl/mxv
 BYTE   PAN   c_v-30
 BYTE   N02  En1  v120
 BYTE   W07
 BYTE   En1  v116
 BYTE   W07
 BYTE   En1  v127
 BYTE   W07
 BYTE   En1  v112
 BYTE   W07
 BYTE   En1  v127
 BYTE   W08
 BYTE   N02
 BYTE   W07
 BYTE   En1  v124
 BYTE   W07
 BYTE   N02
 BYTE   W08
 BYTE   En1  v127
 BYTE   W07
 BYTE   N02
 BYTE   W07
 BYTE   N02
 BYTE   W08
 BYTE   N01
 BYTE   W07
 BYTE   N02
 BYTE   W09
// 001   ----------------------------------------
 BYTE   W05
 BYTE   N02
 BYTE   W07
 BYTE   N07
 BYTE   W08
 BYTE   Gn1  v124
 BYTE   W07
 BYTE   N02  En1  v127
 BYTE   W07
 BYTE   En1  v108
 BYTE   W08
 BYTE   N07  En1  v112
 BYTE   W07
 BYTE   N06  Fs1  v127
 BYTE   W07
 BYTE   N02  En1  v120
 BYTE   W08
 BYTE   En1  v112
 BYTE   W07
 BYTE   N08  En1  v096
 BYTE   W07
 BYTE   N07  As1  v127
 BYTE   W07
 BYTE   N06  En1  v104
 BYTE   W08
 BYTE   An1  v127
 BYTE   W03
// 002   ----------------------------------------
 BYTE   W04
 BYTE   N07  En1  v092
 BYTE   W07
 BYTE   N06  Gn1  v120
 BYTE   W08
 BYTE   N02  En1  v096
 BYTE   W07
 BYTE   En1  v100
 BYTE   W07
 BYTE   N06  En1  v104
 BYTE   W07
 BYTE   Gn1  v116
 BYTE   W08
 BYTE   N02  En1  v112
 BYTE   W07
 BYTE   En1  v092
 BYTE   W07
 BYTE   N07  En1  v100
 BYTE   W08
 BYTE   N06  Fs1  v127
 BYTE   W07
 BYTE   N02  En1  v108
 BYTE   W07
 BYTE   En1  v104
 BYTE   W08
 BYTE   N07  En1  v100
 BYTE   W04
// 003   ----------------------------------------
 BYTE   W03
 BYTE   N06  As1  v127
 BYTE   W07
 BYTE   En1  v104
 BYTE   W07
 BYTE   N07  An1  v127
 BYTE   W07
 BYTE   En1  v116
 BYTE   W08
 BYTE   N14  Gn1
 BYTE   W14
 BYTE   N02  En1  v100
 BYTE   W08
 BYTE   N06  En1  v120
 BYTE   W07
 BYTE   Gn1  v127
 BYTE   W07
 BYTE   N02  En1  v116
 BYTE   W08
 BYTE   En1  v100
 BYTE   W07
 BYTE   N07
 BYTE   W07
 BYTE   Fs1  v127
 BYTE   W06
// 004   ----------------------------------------
 BYTE   W01
 BYTE   N03  En1  v112
 BYTE   W08
 BYTE   N02  En1  v092
 BYTE   W07
 BYTE   N07  En1  v116
 BYTE   W07
 BYTE   N06  As1  v127
 BYTE   W08
 BYTE   En1  v112
 BYTE   W07
 BYTE   N07  An1  v127
 BYTE   W07
 BYTE   N06  En1  v120
 BYTE   W07
 BYTE   Gn1  v124
 BYTE   W08
 BYTE   N03  En1  v100
 BYTE   W07
 BYTE   N02
 BYTE   W07
 BYTE   N06  En1  v108
 BYTE   W08
 BYTE   Gn1  v127
 BYTE   W07
 BYTE   N02  En1  v100
 BYTE   W07
// 005   ----------------------------------------
 BYTE   En1  v104
 BYTE   W08
 BYTE   N07  En1  v120
 BYTE   W07
 BYTE   Fs1  v127
 BYTE   W07
 BYTE   N02  En1  v108
 BYTE   W07
 BYTE   En1  v116
 BYTE   W07
 BYTE   N07  En1  v108
 BYTE   W08
 BYTE   As1  v127
 BYTE   W07
 BYTE   N06  En1  v108
 BYTE   W07
 BYTE   An1  v127
 BYTE   W08
 BYTE   En1  v120
 BYTE   W07
 BYTE   Gn1  v127
 BYTE   W07
 BYTE   N02  En1  v124
 BYTE   W08
 BYTE   Fs1  v096
 BYTE   W07
 BYTE   N03  Gn1
 BYTE   W01
// 006   ----------------------------------------
 BYTE   W06
 BYTE   N07  As1  v116
 BYTE   W07
 BYTE   N03  Gn1  v112
 BYTE   W08
 BYTE   N02  Gn1  v104
 BYTE   W07
 BYTE   N06  Gn1  v100
 BYTE   W07
 BYTE   Cn2  v120
 BYTE   W07
 BYTE   N02  Gn1  v104
 BYTE   W08
 BYTE   N02
 BYTE   W07
 BYTE   N07  Gn1  v088
 BYTE   W07
 BYTE   N06  Cs2  v127
 BYTE   W08
 BYTE   Gn1  v100
 BYTE   W07
 BYTE   Cn2  v120
 BYTE   W07
 BYTE   Gn1  v104
 BYTE   W08
 BYTE   As1  v120
 BYTE   W02
// 007   ----------------------------------------
 BYTE   W05
 BYTE   N02  Gn1  v108
 BYTE   W07
 BYTE   Gn1  v092
 BYTE   W08
 BYTE   N07  Gn1  v104
 BYTE   W07
 BYTE   N06  As1  v127
 BYTE   W07
 BYTE   N03  Gn1  v104
 BYTE   W07
 BYTE   N02  Gn1  v096
 BYTE   W07
 BYTE   N07  Gn1  v108
 BYTE   W08
 BYTE   N06  Cn2  v127
 BYTE   W07
 BYTE   N02  Gn1  v108
 BYTE   W07
 BYTE   Gn1  v096
 BYTE   W08
 BYTE   N07  Gn1  v112
 BYTE   W07
 BYTE   N06  Cs2  v127
 BYTE   W07
 BYTE   Gn1  v120
 BYTE   N01  Gs1  v052
 BYTE   W04
// 008   ----------------------------------------
 BYTE   W04
 BYTE   N06  Cn2  v120
 BYTE   W07
 BYTE   N07  Gn1  v116
 BYTE   W07
 BYTE   N15  As1  v127
 BYTE   W14
 BYTE   N03  Gn1  v124
 BYTE   W08
 BYTE   N07  Gn1  v112
 BYTE   W07
 BYTE   N06  As1  v127
 BYTE   W07
 BYTE   N03  Gn1  v108
 BYTE   W08
 BYTE   N02  Gn1  v104
 BYTE   W07
 BYTE   N06  Gn1  v112
 BYTE   W07
 BYTE   N07  Cn2  v127
 BYTE   W08
 BYTE   N03  Gn1  v124
 BYTE   W07
 BYTE   N02  Gn1  v120
 BYTE   W05
// 009   ----------------------------------------
 BYTE   W02
 BYTE   N07  Gn1  v108
 BYTE   W08
 BYTE   Cs2  v127
 BYTE   W07
 BYTE   N06  Gn1  v108
 BYTE   W07
 BYTE   Cn2  v124
 BYTE   W08
 BYTE   Gn1  v112
 BYTE   W07
 BYTE   N07  As1  v127
 BYTE   W07
 BYTE   N02  Gn1  v104
 BYTE   W07
 BYTE   Gn1  v100
 BYTE   W07
 BYTE   N07  Gn1  v112
 BYTE   W08
 BYTE   N06  As1  v127
 BYTE   W07
 BYTE   N03  Gn1  v120
 BYTE   W07
 BYTE   N02  Gn1  v096
 BYTE   W08
 BYTE   N06  Gn1  v108
 BYTE   W06
// 010   ----------------------------------------
 BYTE   W01
 BYTE   N07  Cn2  v127
 BYTE   W07
 BYTE   N02  Gn1  v108
 BYTE   W08
 BYTE   Gn1  v124
 BYTE   W07
 BYTE   N07  Gn1  v120
 BYTE   W07
 BYTE   N06  Cs2  v127
 BYTE   W07
 BYTE   N07  Gn1  v104
 BYTE   W07
 BYTE   N06  Cn2  v124
 BYTE   W08
 BYTE   N07  Gn1  v104
 BYTE   W07
 BYTE   As1  v120
 BYTE   W07
 BYTE   N03  Fn1
 BYTE   W08
 BYTE   N07  Fn1  v096
 BYTE   W07
 BYTE   Fs1  v116
 BYTE   W07
 BYTE   Gn1  v120
 BYTE   W08
// 011   ----------------------------------------
 BYTE   N03  En1  v104
 BYTE   W07
 BYTE   En1  v092
 BYTE   W07
 BYTE   N07  En1  v108
 BYTE   W07
 BYTE   Fs1  v116
 BYTE   W08
 BYTE   N03  En1  v092
 BYTE   W07
 BYTE   N02  En1  v096
 BYTE   W07
 BYTE   N07
 BYTE   W08
 BYTE   N06  As1  v127
 BYTE   W07
 BYTE   En1  v104
 BYTE   W07
 BYTE   An1  v127
 BYTE   W07
 BYTE   N07  En1  v108
 BYTE   W08
 BYTE   N06  Gn1  v127
 BYTE   W07
 BYTE   N03  En1  v100
 BYTE   W07
 BYTE   N02  En1  v104
 BYTE   W02
// 012   ----------------------------------------
 BYTE   W06
 BYTE   N06  En1  v100
 BYTE   W07
 BYTE   N07  Gn1  v116
 BYTE   W07
 BYTE   N02  En1  v112
 BYTE   W08
 BYTE   En1  v096
 BYTE   W07
 BYTE   N07  En1  v100
 BYTE   W07
 BYTE   N06  Fs1  v127
 BYTE   W07
 BYTE   N02  En1  v112
 BYTE   W07
 BYTE   En1  v096
 BYTE   W08
 BYTE   N07  En1  v112
 BYTE   W07
 BYTE   N06  As1  v127
 BYTE   W07
 BYTE   En1  v116
 BYTE   W08
 BYTE   An1
 BYTE   W07
 BYTE   En1  v120
 BYTE   W03
// 013   ----------------------------------------
 BYTE   W04
 BYTE   N14  Gn1  v124
 BYTE   W15
 BYTE   N02  En1  v104
 BYTE   W07
 BYTE   N06  En1  v127
 BYTE   W07
 BYTE   N07  Gn1
 BYTE   W08
 BYTE   N02  En1  v100
 BYTE   W07
 BYTE   En1  v116
 BYTE   W07
 BYTE   N07  En1  v108
 BYTE   W08
 BYTE   N06  Fs1  v127
 BYTE   W07
 BYTE   N02  En1  v108
 BYTE   W07
 BYTE   En1  v104
 BYTE   W07
 BYTE   N08  En1  v112
 BYTE   W08
 BYTE   N07  As1  v127
 BYTE   W04
// 014   ----------------------------------------
 BYTE   W03
 BYTE   N06  En1  v116
 BYTE   W07
 BYTE   An1  v127
 BYTE   W08
 BYTE   En1  v112
 BYTE   W07
 BYTE   N07  Gn1  v124
 BYTE   W07
 BYTE   N02  En1  v112
 BYTE   W08
 BYTE   En1  v108
 BYTE   W07
 BYTE   N06
 BYTE   W07
 BYTE   N07  Gn1  v124
 BYTE   W07
 BYTE   N02  En1  v116
 BYTE   W07
 BYTE   En1  v104
 BYTE   W08
 BYTE   N07  En1  v120
 BYTE   W07
 BYTE   Fs1  v127
 BYTE   W07
 BYTE   N02  En1  v112
 BYTE   W06
// 015   ----------------------------------------
 BYTE   W02
 BYTE   N02
 BYTE   W07
 BYTE   N06  En1  v120
 BYTE   W07
 BYTE   As1  v127
 BYTE   W08
 BYTE   N07  En1  v104
 BYTE   W07
 BYTE   N06  An1  v127
 BYTE   W07
 BYTE   En1  v120
 BYTE   W07
 BYTE   N07  Gn1  v127
 BYTE   W08
 BYTE   N02  En1  v116
 BYTE   W07
 BYTE   N03  En1  v108
 BYTE   W07
 BYTE   N03
 BYTE   W07
 BYTE   N02  En1  v127
 BYTE   W22
// 016   ----------------------------------------
 BYTE   W96
// 017   ----------------------------------------
 BYTE   W96
// 018   ----------------------------------------
 BYTE   W96
// 019   ----------------------------------------
 BYTE   W96
// 020   ----------------------------------------
 BYTE   W44
 BYTE   W02
 BYTE   N02
 BYTE   W07
 BYTE   N07
 BYTE   W08
 BYTE   Gn1  v124
 BYTE   W07
 BYTE   N02  En1  v127
 BYTE   W07
 BYTE   En1  v108
 BYTE   W08
 BYTE   N07  En1  v112
 BYTE   W07
 BYTE   N06  Fs1  v127
 BYTE   W06
// 021   ----------------------------------------
 BYTE   W01
 BYTE   N02  En1  v120
 BYTE   W07
 BYTE   En1  v112
 BYTE   W08
 BYTE   N08  En1  v096
 BYTE   W07
 BYTE   N07  As1  v127
 BYTE   W07
 BYTE   N06  En1  v104
 BYTE   W08
 BYTE   An1  v127
 BYTE   W07
 BYTE   N07  En1  v092
 BYTE   W07
 BYTE   N06  Gn1  v120
 BYTE   W08
 BYTE   N02  En1  v096
 BYTE   W07
 BYTE   En1  v100
 BYTE   W07
 BYTE   N06  En1  v104
 BYTE   W07
 BYTE   Gn1  v116
 BYTE   W07
 BYTE   N02  En1  v112
 BYTE   W08
// 022   ----------------------------------------
 BYTE   En1  v092
 BYTE   W07
 BYTE   N07  En1  v100
 BYTE   W07
 BYTE   N06  Fs1  v127
 BYTE   W08
 BYTE   N02  En1  v108
 BYTE   W07
 BYTE   En1  v104
 BYTE   W07
 BYTE   N07  En1  v100
 BYTE   W08
 BYTE   N06  As1  v127
 BYTE   W07
 BYTE   En1  v104
 BYTE   W07
 BYTE   N07  An1  v127
 BYTE   W07
 BYTE   En1  v116
 BYTE   W08
 BYTE   N14  Gn1
 BYTE   W14
 BYTE   N02  En1  v100
 BYTE   W08
 BYTE   N06  En1  v120
 BYTE   W01
// 023   ----------------------------------------
 BYTE   W06
 BYTE   Gn1  v127
 BYTE   W07
 BYTE   N02  En1  v116
 BYTE   W07
 BYTE   En1  v100
 BYTE   W08
 BYTE   N07
 BYTE   W07
 BYTE   Fs1  v127
 BYTE   W07
 BYTE   N03  En1  v112
 BYTE   W08
 BYTE   N02  En1  v092
 BYTE   W07
 BYTE   N07  En1  v116
 BYTE   W07
 BYTE   N06  As1  v127
 BYTE   W08
 BYTE   En1  v112
 BYTE   W07
 BYTE   N07  An1  v127
 BYTE   W07
 BYTE   N06  En1  v120
 BYTE   W07
 BYTE   Gn1  v124
 BYTE   W03
// 024   ----------------------------------------
 BYTE   W04
 BYTE   N03  En1  v100
 BYTE   W08
 BYTE   N02
 BYTE   W07
 BYTE   N06  En1  v108
 BYTE   W07
 BYTE   Gn1  v127
 BYTE   W08
 BYTE   N02  En1  v100
 BYTE   W07
 BYTE   En1  v104
 BYTE   W07
 BYTE   N07  En1  v120
 BYTE   W08
 BYTE   Fs1  v127
 BYTE   W07
 BYTE   N02  En1  v108
 BYTE   W07
 BYTE   En1  v116
 BYTE   W07
 BYTE   N07  En1  v108
 BYTE   W08
 BYTE   As1  v127
 BYTE   W07
 BYTE   N06  En1  v108
 BYTE   W04
// 025   ----------------------------------------
 BYTE   W03
 BYTE   An1  v127
 BYTE   W07
 BYTE   N07  En1  v120
 BYTE   W08
 BYTE   N06  Gn1  v127
 BYTE   W07
 BYTE   N02  En1  v124
 BYTE   W07
 BYTE   Fs1  v096
 BYTE   W08
 BYTE   N03  Gn1
 BYTE   W07
 BYTE   N07  As1  v116
 BYTE   W07
 BYTE   N03  Gn1  v112
 BYTE   W08
 BYTE   N02  Gn1  v104
 BYTE   W07
 BYTE   N06  Gn1  v100
 BYTE   W07
 BYTE   Cn2  v120
 BYTE   W08
 BYTE   N02  Gn1  v104
 BYTE   W07
 BYTE   N02
 BYTE   W05
// 026   ----------------------------------------
 BYTE   W02
 BYTE   N07  Gn1  v088
 BYTE   W07
 BYTE   N06  Cs2  v127
 BYTE   W07
 BYTE   Gn1  v100
 BYTE   W08
 BYTE   N07  Cn2  v120
 BYTE   W07
 BYTE   N06  Gn1  v104
 BYTE   W07
 BYTE   As1  v120
 BYTE   W08
 BYTE   N03  Gn1  v108
 BYTE   W07
 BYTE   N02  Gn1  v092
 BYTE   W07
 BYTE   N07  Gn1  v104
 BYTE   W08
 BYTE   N06  As1  v127
 BYTE   W07
 BYTE   N03  Gn1  v104
 BYTE   W07
 BYTE   N02  Gn1  v096
 BYTE   W07
 BYTE   N07  Gn1  v108
 BYTE   W07
// 027   ----------------------------------------
 BYTE   N06  Cn2  v127
 BYTE   W08
 BYTE   N02  Gn1  v108
 BYTE   W07
 BYTE   Gn1  v096
 BYTE   W07
 BYTE   N07  Gn1  v112
 BYTE   W08
 BYTE   N06  Cs2  v127
 BYTE   W07
 BYTE   Gn1  v120
 BYTE   N01  Gs1  v052
 BYTE   W07
 BYTE   N06  Cn2  v120
 BYTE   W08
 BYTE   N07  Gn1  v116
 BYTE   W07
 BYTE   N15  As1  v127
 BYTE   W15
 BYTE   N02  Gn1  v124
 BYTE   W07
 BYTE   N07  Gn1  v112
 BYTE   W07
 BYTE   N06  As1  v127
 BYTE   W08
// 028   ----------------------------------------
 BYTE   N03  Gn1  v108
 BYTE   W07
 BYTE   N02  Gn1  v104
 BYTE   W07
 BYTE   N06  Gn1  v112
 BYTE   W07
 BYTE   N07  Cn2  v127
 BYTE   W07
 BYTE   N03  Gn1  v124
 BYTE   W08
 BYTE   N02  Gn1  v120
 BYTE   W07
 BYTE   N07  Gn1  v108
 BYTE   W07
 BYTE   Cs2  v127
 BYTE   W08
 BYTE   N06  Gn1  v108
 BYTE   W07
 BYTE   Cn2  v124
 BYTE   W07
 BYTE   Gn1  v112
 BYTE   W08
 BYTE   N07  As1  v127
 BYTE   W07
 BYTE   N02  Gn1  v104
 BYTE   W07
 BYTE   Gn1  v100
 BYTE   W02
// 029   ----------------------------------------
 BYTE   W05
 BYTE   N07  Gn1  v112
 BYTE   W07
 BYTE   N06  As1  v127
 BYTE   W08
 BYTE   N02  Gn1  v120
 BYTE   W07
 BYTE   Gn1  v096
 BYTE   W07
 BYTE   N06  Gn1  v108
 BYTE   W08
 BYTE   Cn2  v127
 BYTE   W07
 BYTE   N02  Gn1  v108
 BYTE   W07
 BYTE   Gn1  v124
 BYTE   W08
 BYTE   N07  Gn1  v120
 BYTE   W07
 BYTE   N06  Cs2  v127
 BYTE   W07
 BYTE   N07  Gn1  v104
 BYTE   W07
 BYTE   N06  Cn2  v124
 BYTE   W08
 BYTE   N07  Gn1  v104
 BYTE   W03
// 030   ----------------------------------------
 BYTE   W04
 BYTE   As1  v120
 BYTE   W07
 BYTE   N03  Fn1
 BYTE   W08
 BYTE   N07  Fn1  v096
 BYTE   W07
 BYTE   Fs1  v116
 BYTE   W07
 BYTE   Gn1  v120
 BYTE   W07
 BYTE   N03  En1  v104
 BYTE   W08
 BYTE   En1  v092
 BYTE   W07
 BYTE   N07  En1  v108
 BYTE   W07
 BYTE   N06  Fs1  v116
 BYTE   W08
 BYTE   N03  En1  v092
 BYTE   W07
 BYTE   N02  En1  v096
 BYTE   W07
 BYTE   N07
 BYTE   W08
 BYTE   N06  As1  v127
 BYTE   W04
// 031   ----------------------------------------
 BYTE   W03
 BYTE   En1  v104
 BYTE   W07
 BYTE   An1  v127
 BYTE   W07
 BYTE   N07  En1  v108
 BYTE   W07
 BYTE   N06  Gn1  v127
 BYTE   W08
 BYTE   N03  En1  v100
 BYTE   W07
 BYTE   N02  En1  v104
 BYTE   W07
 BYTE   N06  En1  v100
 BYTE   W08
 BYTE   N07  Gn1  v116
 BYTE   W07
 BYTE   N02  En1  v112
 BYTE   W07
 BYTE   En1  v096
 BYTE   W08
 BYTE   N07  En1  v100
 BYTE   W07
 BYTE   N06  Fs1  v127
 BYTE   W07
 BYTE   N03  En1  v112
 BYTE   W06
// 032   ----------------------------------------
 BYTE   W01
 BYTE   N02  En1  v096
 BYTE   W08
 BYTE   N07  En1  v112
 BYTE   W07
 BYTE   N06  As1  v127
 BYTE   W07
 BYTE   En1  v116
 BYTE   W08
 BYTE   An1
 BYTE   W07
 BYTE   En1  v120
 BYTE   W07
 BYTE   N07  Gn1  v124
 BYTE   W07
 BYTE   N02  En1  v112
 BYTE   W08
 BYTE   En1  v104
 BYTE   W07
 BYTE   N06  En1  v127
 BYTE   W07
 BYTE   N07  Gn1
 BYTE   W08
 BYTE   N02  En1  v100
 BYTE   W07
 BYTE   En1  v116
 BYTE   W07
// 033   ----------------------------------------
 BYTE   N07  En1  v108
 BYTE   W08
 BYTE   N06  Fs1  v127
 BYTE   W07
 BYTE   N02  En1  v108
 BYTE   W07
 BYTE   En1  v104
 BYTE   W07
 BYTE   N08  En1  v112
 BYTE   W07
 BYTE   N07  As1  v127
 BYTE   W08
 BYTE   En1  v116
 BYTE   W07
 BYTE   N06  An1  v127
 BYTE   W07
 BYTE   En1  v112
 BYTE   W08
 BYTE   N07  Gn1  v124
 BYTE   W07
 BYTE   N02  En1  v112
 BYTE   W07
 BYTE   En1  v108
 BYTE   W08
 BYTE   N06
 BYTE   W07
 BYTE   N07  Gn1  v124
 BYTE   W01
// 034   ----------------------------------------
 BYTE   W06
 BYTE   N02  En1  v116
 BYTE   W07
 BYTE   En1  v104
 BYTE   W08
 BYTE   N07  En1  v120
 BYTE   W07
 BYTE   Fs1  v127
 BYTE   W07
 BYTE   N02  En1  v112
 BYTE   W07
 BYTE   N02
 BYTE   W08
 BYTE   N06  En1  v120
 BYTE   W07
 BYTE   As1  v127
 BYTE   W07
 BYTE   N07  En1  v104
 BYTE   W08
 BYTE   N06  An1  v127
 BYTE   W07
 BYTE   N07  En1  v120
 BYTE   W07
 BYTE   Gn1  v127
 BYTE   W08
 BYTE   N02  En1  v116
 BYTE   W02
// 035   ----------------------------------------
 BYTE   W05
 BYTE   N03  Dn1  v108
 BYTE   W07
 BYTE   Ds1
 BYTE   W08
 BYTE   N02  En1  v127
 BYTE   W76
// 036   ----------------------------------------
 BYTE   W11
 BYTE   N10  Dn1
 BYTE   W09
 BYTE   N09  Fs1
 BYTE   W10
 BYTE   N08  Dn1
 BYTE   W10
 BYTE   N04  En1
 BYTE   W56
// 037   ----------------------------------------
 BYTE   W32
 BYTE   N10  Fs1
 BYTE   W09
 BYTE   An1
 BYTE   W10
 BYTE   N09  Fs1
 BYTE   W09
 BYTE   N05  En1
 BYTE   W36
// 038   ----------------------------------------
 BYTE   W52
 BYTE   N10  As1
 BYTE   W10
 BYTE   Gn1
 BYTE   W09
 BYTE   Fs1
 BYTE   W10
 BYTE   N02  En1  v120
 BYTE   W07
 BYTE   En1  v116
 BYTE   W08
// 039   ----------------------------------------
 BYTE   En1  v127
 BYTE   W07
 BYTE   En1  v112
 BYTE   W07
 BYTE   En1  v127
 BYTE   W07
 BYTE   N02
 BYTE   W08
 BYTE   En1  v124
 BYTE   W07
 BYTE   N02
 BYTE   W07
 BYTE   En1  v127
 BYTE   W08
 BYTE   N02
 BYTE   W07
 BYTE   N02
 BYTE   W07
 BYTE   N02
 BYTE   W07
 BYTE   N02
 BYTE   W15
 BYTE   N02
 BYTE   W07
 BYTE   N06
 BYTE   W02
// 040   ----------------------------------------
 BYTE   W06
 BYTE   N07  Gn1  v124
 BYTE   W07
 BYTE   N02  En1  v127
 BYTE   W07
 BYTE   En1  v108
 BYTE   W08
 BYTE   N07  En1  v112
 BYTE   W07
 BYTE   N06  Fs1  v127
 BYTE   W07
 BYTE   N02  En1  v120
 BYTE   W07
 BYTE   En1  v112
 BYTE   W07
 BYTE   N08  En1  v096
 BYTE   W08
 BYTE   N07  As1  v127
 BYTE   W07
 BYTE   N06  En1  v104
 BYTE   W07
 BYTE   An1  v127
 BYTE   W08
 BYTE   N07  En1  v092
 BYTE   W07
 BYTE   N06  Gn1  v120
 BYTE   W03
// 041   ----------------------------------------
 BYTE   W04
 BYTE   N02  En1  v096
 BYTE   W08
 BYTE   En1  v100
 BYTE   W07
 BYTE   N06  En1  v104
 BYTE   W07
 BYTE   Gn1  v116
 BYTE   W07
 BYTE   N03  En1  v112
 BYTE   W08
 BYTE   N02  En1  v092
 BYTE   W07
 BYTE   N07  En1  v100
 BYTE   W07
 BYTE   N06  Fs1  v127
 BYTE   W08
 BYTE   N02  En1  v108
 BYTE   W07
 BYTE   En1  v104
 BYTE   W07
 BYTE   N08  En1  v100
 BYTE   W07
 BYTE   N06  As1  v127
 BYTE   W08
 BYTE   En1  v104
 BYTE   W04
// 042   ----------------------------------------
 BYTE   W03
 BYTE   N07  An1  v127
 BYTE   W07
 BYTE   En1  v116
 BYTE   W08
 BYTE   N14  Gn1
 BYTE   W14
 BYTE   N02  En1  v100
 BYTE   W08
 BYTE   N06  En1  v120
 BYTE   W07
 BYTE   Gn1  v127
 BYTE   W07
 BYTE   N02  En1  v116
 BYTE   W07
 BYTE   En1  v100
 BYTE   W07
 BYTE   N07
 BYTE   W08
 BYTE   Fs1  v127
 BYTE   W07
 BYTE   N02  En1  v112
 BYTE   W07
 BYTE   En1  v092
 BYTE   W06
// 043   ----------------------------------------
 BYTE   W02
 BYTE   N07  En1  v116
 BYTE   W07
 BYTE   N06  As1  v127
 BYTE   W07
 BYTE   En1  v112
 BYTE   W08
 BYTE   N07  An1  v127
 BYTE   W07
 BYTE   N06  En1  v120
 BYTE   W07
 BYTE   Gn1  v124
 BYTE   W07
 BYTE   N03  En1  v100
 BYTE   W08
 BYTE   N02
 BYTE   W07
 BYTE   N06  En1  v108
 BYTE   W07
 BYTE   Gn1  v127
 BYTE   W07
 BYTE   N02  En1  v100
 BYTE   W08
 BYTE   En1  v104
 BYTE   W07
 BYTE   N07  En1  v120
 BYTE   W07
// 044   ----------------------------------------
 BYTE   Fs1  v127
 BYTE   W08
 BYTE   N02  En1  v108
 BYTE   W07
 BYTE   En1  v116
 BYTE   W07
 BYTE   N07  En1  v108
 BYTE   W08
 BYTE   As1  v127
 BYTE   W07
 BYTE   N06  En1  v108
 BYTE   W07
 BYTE   An1  v127
 BYTE   W08
 BYTE   En1  v120
 BYTE   W07
 BYTE   Gn1  v127
 BYTE   W07
 BYTE   N02  En1  v124
 BYTE   W07
 BYTE   Fs1  v096
 BYTE   W07
 BYTE   N03  Gn1
 BYTE   W08
 BYTE   N07  As1  v116
 BYTE   W07
 BYTE   N02  Gn1  v112
 BYTE   W01
// 045   ----------------------------------------
 BYTE   W06
 BYTE   Gn1  v104
 BYTE   W08
 BYTE   N06  Gn1  v100
 BYTE   W07
 BYTE   Cn2  v120
 BYTE   W07
 BYTE   N02  Gn1  v104
 BYTE   W08
 BYTE   N02
 BYTE   W07
 BYTE   N07  Gn1  v088
 BYTE   W07
 BYTE   N06  Cs2  v127
 BYTE   W07
 BYTE   Gn1  v100
 BYTE   W07
 BYTE   N07  Cn2  v120
 BYTE   W08
 BYTE   N06  Gn1  v104
 BYTE   W07
 BYTE   As1  v120
 BYTE   W07
 BYTE   N03  Gn1  v108
 BYTE   W08
 BYTE   N02  Gn1  v092
 BYTE   W02
// 046   ----------------------------------------
 BYTE   W05
 BYTE   N07  Gn1  v104
 BYTE   W07
 BYTE   N06  As1  v127
 BYTE   W08
 BYTE   N03  Gn1  v104
 BYTE   W07
 BYTE   N02  Gn1  v096
 BYTE   W07
 BYTE   N07  Gn1  v108
 BYTE   W08
 BYTE   N06  Cn2  v127
 BYTE   W07
 BYTE   N02  Gn1  v108
 BYTE   W07
 BYTE   Gn1  v096
 BYTE   W08
 BYTE   N07  Gn1  v112
 BYTE   W07
 BYTE   N06  Cs2  v127
 BYTE   W07
 BYTE   Gn1  v120
 BYTE   N01  Gs1  v052
 BYTE   W07
 BYTE   N06  Cn2  v120
 BYTE   W07
 BYTE   N07  Gn1  v116
 BYTE   W04
// 047   ----------------------------------------
 BYTE   W04
 BYTE   N15  As1  v127
 BYTE   W14
 BYTE   N02  Gn1  v124
 BYTE   W08
 BYTE   N07  Gn1  v112
 BYTE   W07
 BYTE   N06  As1  v127
 BYTE   W07
 BYTE   N03  Gn1  v108
 BYTE   W08
 BYTE   N02  Gn1  v104
 BYTE   W07
 BYTE   N06  Gn1  v112
 BYTE   W07
 BYTE   N07  Cn2  v127
 BYTE   W07
 BYTE   N03  Gn1  v124
 BYTE   W07
 BYTE   N02  Gn1  v120
 BYTE   W08
 BYTE   N06  Gn1  v108
 BYTE   W07
 BYTE   N07  Cs2  v127
 BYTE   W05
// 048   ----------------------------------------
 BYTE   W02
 BYTE   N06  Gn1  v108
 BYTE   W08
 BYTE   Cn2  v124
 BYTE   W07
 BYTE   Gn1  v112
 BYTE   W07
 BYTE   N07  As1  v127
 BYTE   W08
 BYTE   N02  Gn1  v104
 BYTE   W07
 BYTE   Gn1  v100
 BYTE   W07
 BYTE   N07  Gn1  v112
 BYTE   W07
 BYTE   N06  As1  v127
 BYTE   W08
 BYTE   N02  Gn1  v120
 BYTE   W07
 BYTE   Gn1  v096
 BYTE   W07
 BYTE   N06  Gn1  v108
 BYTE   W08
 BYTE   Cn2  v127
 BYTE   W07
 BYTE   N02  Gn1  v108
 BYTE   W06
// 049   ----------------------------------------
 BYTE   W01
 BYTE   Gn1  v124
 BYTE   W07
 BYTE   N07  Gn1  v120
 BYTE   W08
 BYTE   N06  Cs2  v127
 BYTE   W07
 BYTE   N07  Gn1  v104
 BYTE   W07
 BYTE   N06  Cn2  v124
 BYTE   W08
 BYTE   N07  Gn1  v104
 BYTE   W07
 BYTE   As1  v120
 BYTE   W07
 BYTE   N02  Fn1
 BYTE   W08
 BYTE   N07  Fn1  v096
 BYTE   W07
 BYTE   Fs1  v116
 BYTE   W07
 BYTE   Gn1  v120
 BYTE   W07
 BYTE   N03  En1  v104
 BYTE   W07
 BYTE   En1  v092
 BYTE   W08
// 050   ----------------------------------------
 BYTE   N07  En1  v108
 BYTE   W07
 BYTE   Fs1  v116
 BYTE   W07
 BYTE   N03  En1  v092
 BYTE   W08
 BYTE   N02  En1  v096
 BYTE   W07
 BYTE   N07
 BYTE   W07
 BYTE   N06  As1  v127
 BYTE   W08
 BYTE   En1  v104
 BYTE   W07
 BYTE   An1  v127
 BYTE   W07
 BYTE   N07  En1  v108
 BYTE   W07
 BYTE   N06  Gn1  v127
 BYTE   W08
 BYTE   N02  En1  v100
 BYTE   W07
 BYTE   En1  v104
 BYTE   W07
 BYTE   N06  En1  v100
 BYTE   W08
 BYTE   N07  Gn1  v116
 BYTE   W01
// 051   ----------------------------------------
 BYTE   W06
 BYTE   N02  En1  v112
 BYTE   W07
 BYTE   En1  v096
 BYTE   W07
 BYTE   N07  En1  v100
 BYTE   W08
 BYTE   N06  Fs1  v127
 BYTE   W07
 BYTE   N03  En1  v112
 BYTE   W07
 BYTE   N02  En1  v096
 BYTE   W08
 BYTE   N07  En1  v112
 BYTE   W07
 BYTE   N06  As1  v127
 BYTE   W07
 BYTE   En1  v116
 BYTE   W08
 BYTE   An1
 BYTE   W07
 BYTE   En1  v120
 BYTE   W07
 BYTE   N14  Gn1  v124
 BYTE   W10
// 052   ----------------------------------------
 BYTE   W04
 BYTE   N02  En1  v104
 BYTE   W08
 BYTE   N06  En1  v127
 BYTE   W07
 BYTE   Gn1
 BYTE   W07
 BYTE   N02  En1  v100
 BYTE   W08
 BYTE   En1  v116
 BYTE   W07
 BYTE   N06  En1  v108
 BYTE   W07
 BYTE   Fs1  v127
 BYTE   W08
 BYTE   N02  En1  v108
 BYTE   W07
 BYTE   En1  v104
 BYTE   W07
 BYTE   N08  En1  v112
 BYTE   W07
 BYTE   N07  As1  v127
 BYTE   W08
 BYTE   N06  En1  v116
 BYTE   W07
 BYTE   An1  v127
 BYTE   W04
// 053   ----------------------------------------
 BYTE   W03
 BYTE   En1  v112
 BYTE   W07
 BYTE   N07  Gn1  v124
 BYTE   W08
 BYTE   N02  En1  v112
 BYTE   W07
 BYTE   En1  v108
 BYTE   W07
 BYTE   N06
 BYTE   W08
 BYTE   N07  Gn1  v124
 BYTE   W07
 BYTE   N02  En1  v116
 BYTE   W07
 BYTE   N03  En1  v104
 BYTE   W08
 BYTE   N07  En1  v120
 BYTE   W07
 BYTE   Fs1  v127
 BYTE   W07
 BYTE   N02  En1  v112
 BYTE   W08
 BYTE   N02
 BYTE   W07
 BYTE   N06  En1  v120
 BYTE   W05
// 054   ----------------------------------------
 BYTE   W02
 BYTE   As1  v127
 BYTE   W07
 BYTE   N07  En1  v104
 BYTE   W07
 BYTE   An1  v127
 BYTE   W08
 BYTE   En1  v120
 BYTE   W07
 BYTE   Gn1  v127
 BYTE   W07
 BYTE   N02  En1  v116
 BYTE   W08
 BYTE   N03  En1  v108
 BYTE   W07
 BYTE   N03
 BYTE   W07
 BYTE   N02  En1  v127
 BYTE   W36
// 055   ----------------------------------------
 BYTE   W96
// 056   ----------------------------------------
 BYTE   W96
// 057   ----------------------------------------
 BYTE   W96
// 058   ----------------------------------------
 BYTE   W96
// 059   ----------------------------------------
 BYTE   W32
 BYTE   N02
 BYTE   W07
 BYTE   N06
 BYTE   W07
 BYTE   N07  Gn1  v124
 BYTE   W08
 BYTE   N02  En1  v127
 BYTE   W07
 BYTE   En1  v108
 BYTE   W07
 BYTE   N07  En1  v112
 BYTE   W08
 BYTE   N06  Fs1  v127
 BYTE   W07
 BYTE   N02  En1  v120
 BYTE   W07
 BYTE   En1  v112
 BYTE   W06
// 060   ----------------------------------------
 BYTE   W01
 BYTE   N08  En1  v096
 BYTE   W08
 BYTE   N07  As1  v127
 BYTE   W07
 BYTE   N06  En1  v104
 BYTE   W07
 BYTE   An1  v127
 BYTE   W08
 BYTE   N07  En1  v092
 BYTE   W07
 BYTE   N06  Gn1  v120
 BYTE   W07
 BYTE   N02  En1  v096
 BYTE   W07
 BYTE   En1  v100
 BYTE   W08
 BYTE   N06  En1  v104
 BYTE   W07
 BYTE   Gn1  v116
 BYTE   W07
 BYTE   N03  En1  v112
 BYTE   W08
 BYTE   N02  En1  v092
 BYTE   W07
 BYTE   N07  En1  v100
 BYTE   W07
// 061   ----------------------------------------
 BYTE   N06  Fs1  v127
 BYTE   W08
 BYTE   N02  En1  v108
 BYTE   W07
 BYTE   En1  v104
 BYTE   W07
 BYTE   N08  En1  v100
 BYTE   W07
 BYTE   N06  As1  v127
 BYTE   W07
 BYTE   N07  En1  v104
 BYTE   W08
 BYTE   An1  v127
 BYTE   W07
 BYTE   N06  En1  v116
 BYTE   W07
 BYTE   N14  Gn1
 BYTE   W15
 BYTE   N02  En1  v100
 BYTE   W07
 BYTE   N06  En1  v120
 BYTE   W08
 BYTE   Gn1  v127
 BYTE   W07
 BYTE   N02  En1  v116
 BYTE   W01
// 062   ----------------------------------------
 BYTE   W06
 BYTE   En1  v100
 BYTE   W07
 BYTE   N07
 BYTE   W08
 BYTE   N06  Fs1  v127
 BYTE   W07
 BYTE   N02  En1  v112
 BYTE   W07
 BYTE   En1  v092
 BYTE   W07
 BYTE   N07  En1  v116
 BYTE   W08
 BYTE   N06  As1  v127
 BYTE   W07
 BYTE   En1  v112
 BYTE   W07
 BYTE   N07  An1  v127
 BYTE   W08
 BYTE   N06  En1  v120
 BYTE   W07
 BYTE   Gn1  v124
 BYTE   W07
 BYTE   N03  En1  v100
 BYTE   W08
 BYTE   N02
 BYTE   W02
// 063   ----------------------------------------
 BYTE   W05
 BYTE   N06  En1  v108
 BYTE   W07
 BYTE   Gn1  v127
 BYTE   W08
 BYTE   N02  En1  v100
 BYTE   W07
 BYTE   En1  v104
 BYTE   W07
 BYTE   N07  En1  v120
 BYTE   W07
 BYTE   Fs1  v127
 BYTE   W07
 BYTE   N02  En1  v108
 BYTE   W08
 BYTE   En1  v116
 BYTE   W07
 BYTE   N06  En1  v108
 BYTE   W07
 BYTE   N07  As1  v127
 BYTE   W08
 BYTE   N06  En1  v108
 BYTE   W07
 BYTE   An1  v127
 BYTE   W07
 BYTE   En1  v120
 BYTE   W04
// 064   ----------------------------------------
 BYTE   W04
 BYTE   Gn1  v127
 BYTE   W07
 BYTE   N02  En1  v124
 BYTE   W07
 BYTE   Fs1  v096
 BYTE   W07
 BYTE   N03  Gn1
 BYTE   W07
 BYTE   N07  As1  v116
 BYTE   W08
 BYTE   N02  Gn1  v112
 BYTE   W07
 BYTE   Gn1  v104
 BYTE   W07
 BYTE   N06  Gn1  v100
 BYTE   W08
 BYTE   Cn2  v120
 BYTE   W07
 BYTE   N02  Gn1  v104
 BYTE   W07
 BYTE   N02
 BYTE   W08
 BYTE   N07  Gn1  v088
 BYTE   W07
 BYTE   N06  Cs2  v127
 BYTE   W05
// 065   ----------------------------------------
 BYTE   W02
 BYTE   N07  Gn1  v100
 BYTE   W08
 BYTE   N06  Cn2  v120
 BYTE   W07
 BYTE   Gn1  v104
 BYTE   W07
 BYTE   As1  v120
 BYTE   W08
 BYTE   N02  Gn1  v108
 BYTE   W07
 BYTE   Gn1  v092
 BYTE   W07
 BYTE   N07  Gn1  v104
 BYTE   W07
 BYTE   N06  As1  v127
 BYTE   W07
 BYTE   N03  Gn1  v104
 BYTE   W08
 BYTE   N02  Gn1  v096
 BYTE   W07
 BYTE   N07  Gn1  v108
 BYTE   W07
 BYTE   N06  Cn2  v127
 BYTE   W08
 BYTE   N02  Gn1  v108
 BYTE   W06
// 066   ----------------------------------------
 BYTE   W01
 BYTE   Gn1  v096
 BYTE   W07
 BYTE   N07  Gn1  v112
 BYTE   W08
 BYTE   N06  Cs2  v127
 BYTE   W07
 BYTE   Gn1  v120
 BYTE   N01  Gs1  v052
 BYTE   W07
 BYTE   N06  Cn2  v120
 BYTE   W07
 BYTE   N07  Gn1  v116
 BYTE   W07
 BYTE   N16  As1  v127
 BYTE   W15
 BYTE   N02  Gn1  v124
 BYTE   W07
 BYTE   N07  Gn1  v112
 BYTE   W08
 BYTE   N06  As1  v127
 BYTE   W07
 BYTE   N03  Gn1  v108
 BYTE   W07
 BYTE   N02  Gn1  v104
 BYTE   W08
// 067   ----------------------------------------
 BYTE   N06  Gn1  v112
 BYTE   W07
 BYTE   N07  Cn2  v127
 BYTE   W07
 BYTE   N03  Gn1  v124
 BYTE   W07
 BYTE   N02  Gn1  v120
 BYTE   W08
 BYTE   N06  Gn1  v108
 BYTE   W07
 BYTE   N07  Cs2  v127
 BYTE   W07
 BYTE   N06  Gn1  v108
 BYTE   W08
 BYTE   Cn2  v124
 BYTE   W07
 BYTE   Gn1  v112
 BYTE   W07
 BYTE   N07  As1  v127
 BYTE   W07
 BYTE   N02  Gn1  v104
 BYTE   W08
 BYTE   Gn1  v100
 BYTE   W07
 BYTE   N07  Gn1  v112
 BYTE   W07
 BYTE   N06  As1  v127
 BYTE   W02
// 068   ----------------------------------------
 BYTE   W06
 BYTE   N02  Gn1  v120
 BYTE   W07
 BYTE   Gn1  v096
 BYTE   W07
 BYTE   N06  Gn1  v108
 BYTE   W08
 BYTE   N07  Cn2  v127
 BYTE   W07
 BYTE   N02  Gn1  v108
 BYTE   W07
 BYTE   Gn1  v124
 BYTE   W07
 BYTE   N07  Gn1  v120
 BYTE   W07
 BYTE   N06  Cs2  v127
 BYTE   W08
 BYTE   N07  Gn1  v104
 BYTE   W07
 BYTE   N06  Cn2  v124
 BYTE   W07
 BYTE   N07  Gn1  v104
 BYTE   W08
 BYTE   As1  v120
 BYTE   W07
 BYTE   N02  Fn1
 BYTE   W03
// 069   ----------------------------------------
 BYTE   W04
 BYTE   N07  Fn1  v096
 BYTE   W08
 BYTE   Fs1  v116
 BYTE   W07
 BYTE   Gn1  v120
 BYTE   W07
 BYTE   N03  En1  v104
 BYTE   W07
 BYTE   En1  v092
 BYTE   W08
 BYTE   N06  En1  v108
 BYTE   W07
 BYTE   N07  Fs1  v116
 BYTE   W07
 BYTE   N03  En1  v092
 BYTE   W08
 BYTE   N02  En1  v096
 BYTE   W07
 BYTE   N07
 BYTE   W07
 BYTE   N06  As1  v127
 BYTE   W07
 BYTE   En1  v104
 BYTE   W08
 BYTE   An1  v127
 BYTE   W04
// 070   ----------------------------------------
 BYTE   W03
 BYTE   N07  En1  v108
 BYTE   W07
 BYTE   N06  Gn1  v127
 BYTE   W08
 BYTE   N02  En1  v100
 BYTE   W07
 BYTE   En1  v104
 BYTE   W07
 BYTE   N06  En1  v100
 BYTE   W08
 BYTE   N07  Gn1  v116
 BYTE   W07
 BYTE   N02  En1  v112
 BYTE   W07
 BYTE   En1  v096
 BYTE   W07
 BYTE   N07  En1  v100
 BYTE   W07
 BYTE   N06  Fs1  v127
 BYTE   W08
 BYTE   N03  En1  v112
 BYTE   W07
 BYTE   N02  En1  v096
 BYTE   W07
 BYTE   N07  En1  v112
 BYTE   W06
// 071   ----------------------------------------
 BYTE   W02
 BYTE   N06  As1  v127
 BYTE   W07
 BYTE   En1  v116
 BYTE   W07
 BYTE   An1
 BYTE   W08
 BYTE   En1  v120
 BYTE   W07
 BYTE   N07  Gn1  v124
 BYTE   W07
 BYTE   N02  En1  v112
 BYTE   W07
 BYTE   En1  v104
 BYTE   W08
 BYTE   N06  En1  v127
 BYTE   W07
 BYTE   Gn1
 BYTE   W07
 BYTE   N02  En1  v100
 BYTE   W07
 BYTE   En1  v116
 BYTE   W08
 BYTE   N06  En1  v108
 BYTE   W07
 BYTE   Fs1  v127
 BYTE   W07
// 072   ----------------------------------------
 BYTE   N02  En1  v108
 BYTE   W08
 BYTE   En1  v104
 BYTE   W07
 BYTE   N08  En1  v112
 BYTE   W07
 BYTE   N07  As1  v127
 BYTE   W08
 BYTE   N06  En1  v116
 BYTE   W07
 BYTE   An1  v127
 BYTE   W07
 BYTE   En1  v112
 BYTE   W08
 BYTE   N07  Gn1  v124
 BYTE   W07
 BYTE   N02  En1  v112
 BYTE   W07
 BYTE   En1  v108
 BYTE   W07
 BYTE   N06
 BYTE   W07
 BYTE   N07  Gn1  v124
 BYTE   W08
 BYTE   N02  En1  v116
 BYTE   W07
 BYTE   En1  v104
 BYTE   W01
// 073   ----------------------------------------
 BYTE   W06
 BYTE   N07  En1  v120
 BYTE   W08
 BYTE   Fs1  v127
 BYTE   W07
 BYTE   N03  En1  v112
 BYTE   W07
 BYTE   N02
 BYTE   W08
 BYTE   N06  En1  v120
 BYTE   W07
 BYTE   As1  v127
 BYTE   W07
 BYTE   N07  En1  v104
 BYTE   W07
 BYTE   An1  v127
 BYTE   W07
 BYTE   En1  v120
 BYTE   W08
 BYTE   Gn1  v127
 BYTE   W07
 BYTE   N02  En1  v116
 BYTE   W07
 BYTE   N03  Dn1  v108
 BYTE   W08
 BYTE   Ds1
 BYTE   W02
// 074   ----------------------------------------
 BYTE   W05
 BYTE   N02  En1  v127
 BYTE   W84
 BYTE   W03
 BYTE   N10  Dn1
 BYTE   W04
// 075   ----------------------------------------
 BYTE   W06
 BYTE   N09  Fs1
 BYTE   W10
 BYTE   N08  Dn1
 BYTE   W10
 BYTE   N05  En1
 BYTE   W68
 BYTE   W02
// 076   ----------------------------------------
 BYTE   W17
 BYTE   N10  Fs1
 BYTE   W10
 BYTE   An1
 BYTE   W09
 BYTE   N09  Fs1
 BYTE   W10
 BYTE   N05  En1
 BYTE   W48
 BYTE   W02
// 077   ----------------------------------------
 BYTE   W36
 BYTE   W02
 BYTE   N10  As1
 BYTE   W09
 BYTE   Gn1
 BYTE   W10
 BYTE   N09  Fs1
 BYTE   W10
 BYTE   GoTo
  POIN2 Label_0_0118C0C6
 BYTE   FINE

//**************** Track 2 (Midi-Chn.1) ****************//

DOOMIntermissionfromDoomDolkar_002:
// 000   ----------------------------------------
 BYTE   KEYSH   DOOMIntermissionfromDoomDolkar_key+0
Label_1_0118CC72:
 BYTE   VOICE   30
 BYTE   VOL   62*DOOMIntermissionfromDoomDolkar_mvl/mxv
 BYTE   PAN   c_v+30
 BYTE   N02  Bn1  v120
 BYTE   W07
 BYTE   Bn1  v116
 BYTE   W07
 BYTE   Bn1  v127
 BYTE   W08
 BYTE   Bn1  v112
 BYTE   W07
 BYTE   Bn1  v127
 BYTE   W07
 BYTE   N02
 BYTE   W08
 BYTE   Bn1  v124
 BYTE   W07
 BYTE   N02
 BYTE   W07
 BYTE   Bn1  v127
 BYTE   W07
 BYTE   N02
 BYTE   W07
 BYTE   N02
 BYTE   W08
 BYTE   N02
 BYTE   W07
 BYTE   N02
 BYTE   W09
// 001   ----------------------------------------
 BYTE   W06
 BYTE   N02
 BYTE   W07
 BYTE   N06
 BYTE   W07
 BYTE   N07  Dn2  v124
 BYTE   W08
 BYTE   N02  Bn1  v127
 BYTE   W07
 BYTE   Bn1  v108
 BYTE   W07
 BYTE   N07  Bn1  v112
 BYTE   W07
 BYTE   N06  Cs2  v127
 BYTE   W08
 BYTE   N02  Bn1  v120
 BYTE   W07
 BYTE   Bn1  v112
 BYTE   W07
 BYTE   N08  Bn1  v096
 BYTE   W08
 BYTE   N07  Fn2  v127
 BYTE   W07
 BYTE   N05  Bn1  v104
 BYTE   W07
 BYTE   N06  En2  v127
 BYTE   W03
// 002   ----------------------------------------
 BYTE   W04
 BYTE   N07  Bn1  v092
 BYTE   W08
 BYTE   N06  Dn2  v120
 BYTE   W07
 BYTE   N03  Bn1  v096
 BYTE   W07
 BYTE   N02  Bn1  v100
 BYTE   W08
 BYTE   N06  Bn1  v104
 BYTE   W07
 BYTE   Dn2  v116
 BYTE   W07
 BYTE   N02  Bn1  v112
 BYTE   W08
 BYTE   Bn1  v092
 BYTE   W07
 BYTE   N07  Bn1  v100
 BYTE   W07
 BYTE   N06  Cs2  v127
 BYTE   W07
 BYTE   N02  Bn1  v108
 BYTE   W07
 BYTE   Bn1  v104
 BYTE   W08
 BYTE   N08  Bn1  v100
 BYTE   W04
// 003   ----------------------------------------
 BYTE   W03
 BYTE   N06  Fn2  v127
 BYTE   W07
 BYTE   Bn1  v104
 BYTE   W08
 BYTE   N07  En2  v127
 BYTE   W07
 BYTE   N06  Bn1  v116
 BYTE   W07
 BYTE   N14  Dn2
 BYTE   W15
 BYTE   N02  Bn1  v100
 BYTE   W07
 BYTE   N06  Bn1  v120
 BYTE   W07
 BYTE   N07  Dn2  v127
 BYTE   W07
 BYTE   N02  Bn1  v116
 BYTE   W08
 BYTE   Bn1  v100
 BYTE   W07
 BYTE   N07
 BYTE   W07
 BYTE   Cs2  v127
 BYTE   W06
// 004   ----------------------------------------
 BYTE   W02
 BYTE   N02  Bn1  v112
 BYTE   W07
 BYTE   Bn1  v092
 BYTE   W07
 BYTE   N07  Bn1  v116
 BYTE   W08
 BYTE   N06  Fn2  v127
 BYTE   W07
 BYTE   Bn1  v112
 BYTE   W07
 BYTE   N07  En2  v127
 BYTE   W08
 BYTE   N06  Bn1  v120
 BYTE   W07
 BYTE   Dn2  v124
 BYTE   W07
 BYTE   N02  Bn1  v100
 BYTE   W08
 BYTE   N02
 BYTE   W07
 BYTE   N06  Bn1  v108
 BYTE   W07
 BYTE   Dn2  v127
 BYTE   W07
 BYTE   N02  Bn1  v100
 BYTE   W07
// 005   ----------------------------------------
 BYTE   Bn1  v104
 BYTE   W08
 BYTE   N07  Bn1  v120
 BYTE   W07
 BYTE   Cs2  v127
 BYTE   W07
 BYTE   N02  Bn1  v108
 BYTE   W08
 BYTE   Bn1  v116
 BYTE   W07
 BYTE   N07  Bn1  v108
 BYTE   W07
 BYTE   Fn2  v127
 BYTE   W08
 BYTE   N06  Bn1  v108
 BYTE   W07
 BYTE   En2  v127
 BYTE   W07
 BYTE   N07  Bn1  v120
 BYTE   W07
 BYTE   Dn2  v127
 BYTE   W07
 BYTE   N02  Bn1  v124
 BYTE   W08
 BYTE   Cs2  v096
 BYTE   W07
 BYTE   N03  Dn2
 BYTE   W01
// 006   ----------------------------------------
 BYTE   W06
 BYTE   N07  Fn2  v116
 BYTE   W08
 BYTE   N02  Dn2  v112
 BYTE   W07
 BYTE   Dn2  v104
 BYTE   W07
 BYTE   N06  Dn2  v100
 BYTE   W08
 BYTE   Gn2  v120
 BYTE   W07
 BYTE   N02  Dn2  v104
 BYTE   W07
 BYTE   N02
 BYTE   W08
 BYTE   N07  Dn2  v088
 BYTE   W07
 BYTE   N06  Gs2  v127
 BYTE   W07
 BYTE   Dn2  v100
 BYTE   W07
 BYTE   Gn2  v120
 BYTE   W08
 BYTE   Dn2  v104
 BYTE   W07
 BYTE   Fn2  v120
 BYTE   W02
// 007   ----------------------------------------
 BYTE   W05
 BYTE   N03  Dn2  v108
 BYTE   W07
 BYTE   N02  Dn2  v092
 BYTE   W08
 BYTE   N08  Dn2  v104
 BYTE   W07
 BYTE   N07  Fn2  v127
 BYTE   W07
 BYTE   N02  Dn2  v104
 BYTE   W08
 BYTE   Dn2  v096
 BYTE   W07
 BYTE   N06  Dn2  v108
 BYTE   W07
 BYTE   Gn2  v127
 BYTE   W08
 BYTE   N02  Dn2  v108
 BYTE   W07
 BYTE   Dn2  v096
 BYTE   W07
 BYTE   N07  Dn2  v112
 BYTE   W07
 BYTE   N06  Gs2  v127
 BYTE   W07
 BYTE   Dn2  v120
 BYTE   N02  Ds2  v052
 BYTE   W04
// 008   ----------------------------------------
 BYTE   W04
 BYTE   N06  Gn2  v120
 BYTE   W07
 BYTE   Dn2  v116
 BYTE   W07
 BYTE   N15  Fn2  v127
 BYTE   W15
 BYTE   N02  Dn2  v124
 BYTE   W07
 BYTE   N07  Dn2  v112
 BYTE   W08
 BYTE   N06  Fn2  v127
 BYTE   W07
 BYTE   N03  Dn2  v108
 BYTE   W07
 BYTE   N02  Dn2  v104
 BYTE   W07
 BYTE   N06  Dn2  v112
 BYTE   W08
 BYTE   N07  Gn2  v127
 BYTE   W07
 BYTE   N02  Dn2  v124
 BYTE   W07
 BYTE   Dn2  v120
 BYTE   W05
// 009   ----------------------------------------
 BYTE   W03
 BYTE   N06  Dn2  v108
 BYTE   W07
 BYTE   N07  Gs2  v127
 BYTE   W07
 BYTE   N06  Dn2  v108
 BYTE   W07
 BYTE   Gn2  v124
 BYTE   W08
 BYTE   N07  Dn2  v112
 BYTE   W07
 BYTE   Fn2  v127
 BYTE   W07
 BYTE   N02  Dn2  v104
 BYTE   W08
 BYTE   Dn2  v100
 BYTE   W07
 BYTE   N07  Dn2  v112
 BYTE   W07
 BYTE   N06  Fn2  v127
 BYTE   W08
 BYTE   N02  Dn2  v120
 BYTE   W07
 BYTE   Dn2  v096
 BYTE   W07
 BYTE   N06  Dn2  v108
 BYTE   W06
// 010   ----------------------------------------
 BYTE   W01
 BYTE   N07  Gn2  v127
 BYTE   W07
 BYTE   N02  Dn2  v108
 BYTE   W08
 BYTE   Dn2  v124
 BYTE   W07
 BYTE   N06  Dn2  v120
 BYTE   W07
 BYTE   Gs2  v127
 BYTE   W08
 BYTE   N07  Dn2  v104
 BYTE   W07
 BYTE   N06  Gn2  v124
 BYTE   W07
 BYTE   N07  Dn2  v104
 BYTE   W08
 BYTE   Fn2  v120
 BYTE   W07
 BYTE   N03  Cn2
 BYTE   W07
 BYTE   N07  Cn2  v096
 BYTE   W07
 BYTE   Cs2  v116
 BYTE   W08
 BYTE   Dn2  v120
 BYTE   W07
// 011   ----------------------------------------
 BYTE   N03  Bn1  v104
 BYTE   W07
 BYTE   N02  Bn1  v092
 BYTE   W08
 BYTE   N06  Bn1  v108
 BYTE   W07
 BYTE   N07  Cs2  v116
 BYTE   W07
 BYTE   N03  Bn1  v092
 BYTE   W07
 BYTE   N02  Bn1  v096
 BYTE   W08
 BYTE   N07
 BYTE   W07
 BYTE   Fn2  v127
 BYTE   W07
 BYTE   N06  Bn1  v104
 BYTE   W08
 BYTE   En2  v127
 BYTE   W07
 BYTE   N07  Bn1  v108
 BYTE   W07
 BYTE   N06  Dn2  v127
 BYTE   W08
 BYTE   N02  Bn1  v100
 BYTE   W07
 BYTE   Bn1  v104
 BYTE   W01
// 012   ----------------------------------------
 BYTE   W06
 BYTE   N06  Bn1  v100
 BYTE   W07
 BYTE   N07  Dn2  v116
 BYTE   W07
 BYTE   N02  Bn1  v112
 BYTE   W08
 BYTE   Bn1  v096
 BYTE   W07
 BYTE   N07  Bn1  v100
 BYTE   W07
 BYTE   N06  Cs2  v127
 BYTE   W08
 BYTE   N02  Bn1  v112
 BYTE   W07
 BYTE   Bn1  v096
 BYTE   W07
 BYTE   N07  Bn1  v112
 BYTE   W08
 BYTE   N06  Fn2  v127
 BYTE   W07
 BYTE   Bn1  v116
 BYTE   W07
 BYTE   En2
 BYTE   W07
 BYTE   N07  Bn1  v120
 BYTE   W03
// 013   ----------------------------------------
 BYTE   W04
 BYTE   N14  Dn2  v124
 BYTE   W15
 BYTE   N02  Bn1  v104
 BYTE   W07
 BYTE   N06  Bn1  v127
 BYTE   W08
 BYTE   Dn2
 BYTE   W07
 BYTE   N02  Bn1  v100
 BYTE   W07
 BYTE   Bn1  v116
 BYTE   W08
 BYTE   N07  Bn1  v108
 BYTE   W07
 BYTE   Cs2  v127
 BYTE   W07
 BYTE   N03  Bn1  v108
 BYTE   W08
 BYTE   N02  Bn1  v104
 BYTE   W07
 BYTE   N07  Bn1  v112
 BYTE   W07
 BYTE   Fn2  v127
 BYTE   W04
// 014   ----------------------------------------
 BYTE   W04
 BYTE   N06  Bn1  v116
 BYTE   W07
 BYTE   En2  v127
 BYTE   W07
 BYTE   Bn1  v112
 BYTE   W07
 BYTE   N07  Dn2  v124
 BYTE   W07
 BYTE   N02  Bn1  v112
 BYTE   W08
 BYTE   Bn1  v108
 BYTE   W07
 BYTE   N06
 BYTE   W07
 BYTE   Dn2  v124
 BYTE   W08
 BYTE   N02  Bn1  v116
 BYTE   W07
 BYTE   Bn1  v104
 BYTE   W07
 BYTE   N07  Bn1  v120
 BYTE   W08
 BYTE   Cs2  v127
 BYTE   W07
 BYTE   N02  Bn1  v112
 BYTE   W05
// 015   ----------------------------------------
 BYTE   W02
 BYTE   N02
 BYTE   W07
 BYTE   N07  Bn1  v120
 BYTE   W07
 BYTE   Fn2  v127
 BYTE   W08
 BYTE   N06  Bn1  v104
 BYTE   W07
 BYTE   En2  v127
 BYTE   W07
 BYTE   Bn1  v120
 BYTE   W08
 BYTE   N07  Dn2  v127
 BYTE   W07
 BYTE   N02  Bn1  v116
 BYTE   W07
 BYTE   N03  Bn1  v108
 BYTE   W08
 BYTE   N03
 BYTE   W07
 BYTE   N02  Bn1  v127
 BYTE   W21
// 016   ----------------------------------------
 BYTE   W96
// 017   ----------------------------------------
 BYTE   W96
// 018   ----------------------------------------
 BYTE   W96
// 019   ----------------------------------------
 BYTE   W96
// 020   ----------------------------------------
 BYTE   W44
 BYTE   W03
 BYTE   N01
 BYTE   W07
 BYTE   N06
 BYTE   W07
 BYTE   N07  Dn2  v124
 BYTE   W07
 BYTE   N02  Bn1  v127
 BYTE   W08
 BYTE   Bn1  v108
 BYTE   W07
 BYTE   N08  Bn1  v112
 BYTE   W07
 BYTE   N06  Cs2  v127
 BYTE   W06
// 021   ----------------------------------------
 BYTE   W02
 BYTE   N02  Bn1  v120
 BYTE   W07
 BYTE   Bn1  v112
 BYTE   W07
 BYTE   N08  Bn1  v096
 BYTE   W08
 BYTE   N07  Fn2  v127
 BYTE   W07
 BYTE   N05  Bn1  v104
 BYTE   W07
 BYTE   N06  En2  v127
 BYTE   W07
 BYTE   N07  Bn1  v092
 BYTE   W07
 BYTE   N06  Dn2  v120
 BYTE   W08
 BYTE   N03  Bn1  v096
 BYTE   W07
 BYTE   N02  Bn1  v100
 BYTE   W07
 BYTE   N06  Bn1  v104
 BYTE   W08
 BYTE   Dn2  v116
 BYTE   W07
 BYTE   N02  Bn1  v112
 BYTE   W07
// 022   ----------------------------------------
 BYTE   Bn1  v092
 BYTE   W08
 BYTE   N07  Bn1  v100
 BYTE   W07
 BYTE   N06  Cs2  v127
 BYTE   W07
 BYTE   N02  Bn1  v108
 BYTE   W07
 BYTE   Bn1  v104
 BYTE   W07
 BYTE   N08  Bn1  v100
 BYTE   W08
 BYTE   N06  Fn2  v127
 BYTE   W07
 BYTE   Bn1  v104
 BYTE   W07
 BYTE   N07  En2  v127
 BYTE   W08
 BYTE   N06  Bn1  v116
 BYTE   W07
 BYTE   N14  Dn2
 BYTE   W15
 BYTE   N02  Bn1  v100
 BYTE   W07
 BYTE   N06  Bn1  v120
 BYTE   W01
// 023   ----------------------------------------
 BYTE   W06
 BYTE   N07  Dn2  v127
 BYTE   W08
 BYTE   N02  Bn1  v116
 BYTE   W07
 BYTE   Bn1  v100
 BYTE   W07
 BYTE   N07
 BYTE   W08
 BYTE   N06  Cs2  v127
 BYTE   W07
 BYTE   N02  Bn1  v112
 BYTE   W07
 BYTE   Bn1  v092
 BYTE   W07
 BYTE   N07  Bn1  v116
 BYTE   W07
 BYTE   N06  Fn2  v127
 BYTE   W08
 BYTE   Bn1  v112
 BYTE   W07
 BYTE   N07  En2  v127
 BYTE   W07
 BYTE   N06  Bn1  v120
 BYTE   W08
 BYTE   Dn2  v124
 BYTE   W02
// 024   ----------------------------------------
 BYTE   W05
 BYTE   N03  Bn1  v100
 BYTE   W07
 BYTE   N02
 BYTE   W08
 BYTE   N06  Bn1  v108
 BYTE   W07
 BYTE   Dn2  v127
 BYTE   W07
 BYTE   N02  Bn1  v100
 BYTE   W07
 BYTE   Bn1  v104
 BYTE   W07
 BYTE   N07  Bn1  v120
 BYTE   W08
 BYTE   Cs2  v127
 BYTE   W07
 BYTE   N02  Bn1  v108
 BYTE   W07
 BYTE   Bn1  v116
 BYTE   W08
 BYTE   N06  Bn1  v108
 BYTE   W07
 BYTE   N07  Fn2  v127
 BYTE   W07
 BYTE   N06  Bn1  v108
 BYTE   W04
// 025   ----------------------------------------
 BYTE   W04
 BYTE   En2  v127
 BYTE   W07
 BYTE   N07  Bn1  v120
 BYTE   W07
 BYTE   Dn2  v127
 BYTE   W08
 BYTE   N02  Bn1  v124
 BYTE   W07
 BYTE   Cs2  v096
 BYTE   W07
 BYTE   N03  Dn2
 BYTE   W07
 BYTE   N07  Fn2  v116
 BYTE   W08
 BYTE   N02  Dn2  v112
 BYTE   W07
 BYTE   Dn2  v104
 BYTE   W07
 BYTE   N06  Dn2  v100
 BYTE   W07
 BYTE   Gn2  v120
 BYTE   W08
 BYTE   N03  Dn2  v104
 BYTE   W07
 BYTE   N03
 BYTE   W05
// 026   ----------------------------------------
 BYTE   W02
 BYTE   N07  Dn2  v088
 BYTE   W08
 BYTE   N06  Gs2  v127
 BYTE   W07
 BYTE   Dn2  v100
 BYTE   W07
 BYTE   Gn2  v120
 BYTE   W08
 BYTE   Dn2  v104
 BYTE   W07
 BYTE   Fn2  v120
 BYTE   W07
 BYTE   N03  Dn2  v108
 BYTE   W07
 BYTE   N02  Dn2  v092
 BYTE   W07
 BYTE   N08  Dn2  v104
 BYTE   W08
 BYTE   N06  Fn2  v127
 BYTE   W07
 BYTE   N02  Dn2  v104
 BYTE   W07
 BYTE   Dn2  v096
 BYTE   W08
 BYTE   N07  Dn2  v108
 BYTE   W06
// 027   ----------------------------------------
 BYTE   W01
 BYTE   N06  Gn2  v127
 BYTE   W07
 BYTE   N02  Dn2  v108
 BYTE   W08
 BYTE   Dn2  v096
 BYTE   W07
 BYTE   N07  Dn2  v112
 BYTE   W07
 BYTE   N06  Gs2  v127
 BYTE   W07
 BYTE   Dn2  v120
 BYTE   N02  Ds2  v052
 BYTE   W08
 BYTE   N06  Gn2  v120
 BYTE   W07
 BYTE   Dn2  v116
 BYTE   W07
 BYTE   N15  Fn2  v127
 BYTE   W15
 BYTE   N02  Dn2  v124
 BYTE   W07
 BYTE   N07  Dn2  v112
 BYTE   W07
 BYTE   Fn2  v127
 BYTE   W08
// 028   ----------------------------------------
 BYTE   N03  Dn2  v108
 BYTE   W07
 BYTE   N02  Dn2  v104
 BYTE   W07
 BYTE   N06  Dn2  v112
 BYTE   W08
 BYTE   N07  Gn2  v127
 BYTE   W07
 BYTE   N02  Dn2  v124
 BYTE   W07
 BYTE   Dn2  v120
 BYTE   W08
 BYTE   N06  Dn2  v108
 BYTE   W07
 BYTE   N07  Gs2  v127
 BYTE   W07
 BYTE   N06  Dn2  v108
 BYTE   W07
 BYTE   Gn2  v124
 BYTE   W07
 BYTE   N07  Dn2  v112
 BYTE   W08
 BYTE   Fn2  v127
 BYTE   W07
 BYTE   N02  Dn2  v104
 BYTE   W07
 BYTE   Dn2  v100
 BYTE   W02
// 029   ----------------------------------------
 BYTE   W06
 BYTE   N07  Dn2  v112
 BYTE   W07
 BYTE   N06  Fn2  v127
 BYTE   W07
 BYTE   N02  Dn2  v120
 BYTE   W08
 BYTE   Dn2  v096
 BYTE   W07
 BYTE   N07  Dn2  v108
 BYTE   W07
 BYTE   Gn2  v127
 BYTE   W07
 BYTE   N02  Dn2  v108
 BYTE   W08
 BYTE   Dn2  v124
 BYTE   W07
 BYTE   N06  Dn2  v120
 BYTE   W07
 BYTE   Gs2  v127
 BYTE   W08
 BYTE   Dn2  v104
 BYTE   W07
 BYTE   Gn2  v124
 BYTE   W07
 BYTE   N07  Dn2  v104
 BYTE   W03
// 030   ----------------------------------------
 BYTE   W04
 BYTE   N08  Fn2  v120
 BYTE   W08
 BYTE   N03  Cn2
 BYTE   W07
 BYTE   N07  Cn2  v096
 BYTE   W07
 BYTE   Cs2  v116
 BYTE   W08
 BYTE   Dn2  v120
 BYTE   W07
 BYTE   N03  Bn1  v104
 BYTE   W07
 BYTE   N02  Bn1  v092
 BYTE   W08
 BYTE   N06  Bn1  v108
 BYTE   W07
 BYTE   N07  Cs2  v116
 BYTE   W07
 BYTE   N03  Bn1  v092
 BYTE   W07
 BYTE   N02  Bn1  v096
 BYTE   W07
 BYTE   N07
 BYTE   W08
 BYTE   Fn2  v127
 BYTE   W04
// 031   ----------------------------------------
 BYTE   W03
 BYTE   N06  Bn1  v104
 BYTE   W07
 BYTE   En2  v127
 BYTE   W08
 BYTE   N07  Bn1  v108
 BYTE   W07
 BYTE   N06  Dn2  v127
 BYTE   W07
 BYTE   N02  Bn1  v100
 BYTE   W08
 BYTE   Bn1  v104
 BYTE   W07
 BYTE   N06  Bn1  v100
 BYTE   W07
 BYTE   N07  Dn2  v116
 BYTE   W07
 BYTE   N02  Bn1  v112
 BYTE   W07
 BYTE   Bn1  v096
 BYTE   W08
 BYTE   N07  Bn1  v100
 BYTE   W07
 BYTE   N06  Cs2  v127
 BYTE   W07
 BYTE   N02  Bn1  v112
 BYTE   W06
// 032   ----------------------------------------
 BYTE   W02
 BYTE   Bn1  v096
 BYTE   W07
 BYTE   N07  Bn1  v112
 BYTE   W07
 BYTE   N06  Fn2  v127
 BYTE   W08
 BYTE   Bn1  v116
 BYTE   W07
 BYTE   En2
 BYTE   W07
 BYTE   N07  Bn1  v120
 BYTE   W08
 BYTE   Dn2  v124
 BYTE   W07
 BYTE   N02  Bn1  v112
 BYTE   W07
 BYTE   Bn1  v104
 BYTE   W08
 BYTE   N06  Bn1  v127
 BYTE   W07
 BYTE   Dn2
 BYTE   W07
 BYTE   N02  Bn1  v100
 BYTE   W07
 BYTE   Bn1  v116
 BYTE   W07
// 033   ----------------------------------------
 BYTE   N07  Bn1  v108
 BYTE   W08
 BYTE   Cs2  v127
 BYTE   W07
 BYTE   N03  Bn1  v108
 BYTE   W07
 BYTE   N02  Bn1  v104
 BYTE   W08
 BYTE   N07  Bn1  v112
 BYTE   W07
 BYTE   Fn2  v127
 BYTE   W07
 BYTE   N06  Bn1  v116
 BYTE   W08
 BYTE   En2  v127
 BYTE   W07
 BYTE   N07  Bn1  v112
 BYTE   W07
 BYTE   Dn2  v124
 BYTE   W07
 BYTE   N02  Bn1  v112
 BYTE   W07
 BYTE   Bn1  v108
 BYTE   W08
 BYTE   N06
 BYTE   W07
 BYTE   Dn2  v124
 BYTE   W01
// 034   ----------------------------------------
 BYTE   W06
 BYTE   N02  Bn1  v116
 BYTE   W08
 BYTE   Bn1  v104
 BYTE   W07
 BYTE   N07  Bn1  v120
 BYTE   W07
 BYTE   Cs2  v127
 BYTE   W08
 BYTE   N03  Bn1  v112
 BYTE   W07
 BYTE   N02
 BYTE   W07
 BYTE   N07  Bn1  v120
 BYTE   W08
 BYTE   N06  Fn2  v127
 BYTE   W07
 BYTE   N07  Bn1  v104
 BYTE   W07
 BYTE   N06  En2  v127
 BYTE   W07
 BYTE   Bn1  v120
 BYTE   W08
 BYTE   N07  Dn2  v127
 BYTE   W07
 BYTE   N02  Bn1  v116
 BYTE   W02
// 035   ----------------------------------------
 BYTE   W05
 BYTE   N03  An1  v108
 BYTE   W07
 BYTE   As1
 BYTE   W08
 BYTE   N02  Bn1  v127
 BYTE   W76
// 036   ----------------------------------------
 BYTE   W11
 BYTE   N10  An1
 BYTE   W10
 BYTE   N09  Cs2
 BYTE   W10
 BYTE   N08  An1
 BYTE   W09
 BYTE   N04  Bn1
 BYTE   W56
// 037   ----------------------------------------
 BYTE   W32
 BYTE   N10  Cs2
 BYTE   W09
 BYTE   N11  En2
 BYTE   W10
 BYTE   N09  Cs2
 BYTE   W10
 BYTE   N05  Bn1
 BYTE   W32
 BYTE   W03
// 038   ----------------------------------------
 BYTE   W52
 BYTE   N10  Fn2
 BYTE   W10
 BYTE   Dn2
 BYTE   W10
 BYTE   N09  Cs2
 BYTE   W09
 BYTE   N02  Bn1  v120
 BYTE   W08
 BYTE   Bn1  v116
 BYTE   W07
// 039   ----------------------------------------
 BYTE   Bn1  v127
 BYTE   W07
 BYTE   Bn1  v112
 BYTE   W08
 BYTE   Bn1  v127
 BYTE   W07
 BYTE   N02
 BYTE   W07
 BYTE   Bn1  v124
 BYTE   W07
 BYTE   N02
 BYTE   W08
 BYTE   Bn1  v127
 BYTE   W07
 BYTE   N02
 BYTE   W07
 BYTE   N02
 BYTE   W08
 BYTE   N02
 BYTE   W07
 BYTE   N02
 BYTE   W15
 BYTE   N01
 BYTE   W07
 BYTE   N06
 BYTE   W01
// 040   ----------------------------------------
 BYTE   W06
 BYTE   N07  Dn2  v124
 BYTE   W07
 BYTE   N02  Bn1  v127
 BYTE   W07
 BYTE   Bn1  v108
 BYTE   W08
 BYTE   N08  Bn1  v112
 BYTE   W07
 BYTE   N06  Cs2  v127
 BYTE   W07
 BYTE   N02  Bn1  v120
 BYTE   W08
 BYTE   Bn1  v112
 BYTE   W07
 BYTE   N08  Bn1  v096
 BYTE   W07
 BYTE   N07  Fn2  v127
 BYTE   W08
 BYTE   N05  Bn1  v104
 BYTE   W07
 BYTE   N06  En2  v127
 BYTE   W07
 BYTE   N07  Bn1  v092
 BYTE   W07
 BYTE   N06  Dn2  v120
 BYTE   W03
// 041   ----------------------------------------
 BYTE   W04
 BYTE   N03  Bn1  v096
 BYTE   W08
 BYTE   N02  Bn1  v100
 BYTE   W07
 BYTE   N06  Bn1  v104
 BYTE   W07
 BYTE   Dn2  v116
 BYTE   W08
 BYTE   N02  Bn1  v112
 BYTE   W07
 BYTE   Bn1  v092
 BYTE   W07
 BYTE   N07  Bn1  v100
 BYTE   W08
 BYTE   N06  Cs2  v127
 BYTE   W07
 BYTE   N02  Bn1  v108
 BYTE   W07
 BYTE   Bn1  v104
 BYTE   W08
 BYTE   N07  Bn1  v100
 BYTE   W07
 BYTE   N06  Fn2  v127
 BYTE   W07
 BYTE   Bn1  v104
 BYTE   W04
// 042   ----------------------------------------
 BYTE   W04
 BYTE   En2  v127
 BYTE   W07
 BYTE   Bn1  v116
 BYTE   W07
 BYTE   N14  Dn2
 BYTE   W14
 BYTE   N02  Bn1  v100
 BYTE   W08
 BYTE   N06  Bn1  v120
 BYTE   W07
 BYTE   N07  Dn2  v127
 BYTE   W07
 BYTE   N02  Bn1  v116
 BYTE   W08
 BYTE   Bn1  v100
 BYTE   W07
 BYTE   N07
 BYTE   W07
 BYTE   Cs2  v127
 BYTE   W08
 BYTE   N02  Bn1  v112
 BYTE   W07
 BYTE   Bn1  v092
 BYTE   W05
// 043   ----------------------------------------
 BYTE   W02
 BYTE   N07  Bn1  v116
 BYTE   W07
 BYTE   N06  Fn2  v127
 BYTE   W07
 BYTE   Bn1  v112
 BYTE   W08
 BYTE   N07  En2  v127
 BYTE   W07
 BYTE   N06  Bn1  v120
 BYTE   W07
 BYTE   Dn2  v124
 BYTE   W08
 BYTE   N02  Bn1  v100
 BYTE   W07
 BYTE   N02
 BYTE   W07
 BYTE   N06  Bn1  v108
 BYTE   W08
 BYTE   Dn2  v127
 BYTE   W07
 BYTE   N02  Bn1  v100
 BYTE   W07
 BYTE   Bn1  v104
 BYTE   W08
 BYTE   N07  Bn1  v120
 BYTE   W06
// 044   ----------------------------------------
 BYTE   W01
 BYTE   Cs2  v127
 BYTE   W07
 BYTE   N02  Bn1  v108
 BYTE   W07
 BYTE   Bn1  v116
 BYTE   W08
 BYTE   N07  Bn1  v108
 BYTE   W07
 BYTE   Fn2  v127
 BYTE   W07
 BYTE   N06  Bn1  v108
 BYTE   W07
 BYTE   N07  En2  v127
 BYTE   W08
 BYTE   Bn1  v120
 BYTE   W07
 BYTE   Dn2  v127
 BYTE   W07
 BYTE   N02  Bn1  v124
 BYTE   W08
 BYTE   Cs2  v096
 BYTE   W07
 BYTE   N03  Dn2
 BYTE   W07
 BYTE   N07  Fn2  v116
 BYTE   W08
// 045   ----------------------------------------
 BYTE   N03  Dn2  v112
 BYTE   W07
 BYTE   N02  Dn2  v104
 BYTE   W07
 BYTE   N06  Dn2  v100
 BYTE   W07
 BYTE   Gn2  v120
 BYTE   W07
 BYTE   N03  Dn2  v104
 BYTE   W08
 BYTE   N02
 BYTE   W07
 BYTE   N07  Dn2  v088
 BYTE   W07
 BYTE   N06  Gs2  v127
 BYTE   W08
 BYTE   Dn2  v100
 BYTE   W07
 BYTE   Gn2  v120
 BYTE   W07
 BYTE   Dn2  v104
 BYTE   W08
 BYTE   N07  Fn2  v120
 BYTE   W07
 BYTE   N03  Dn2  v108
 BYTE   W07
 BYTE   N02  Dn2  v092
 BYTE   W02
// 046   ----------------------------------------
 BYTE   W05
 BYTE   N08  Dn2  v104
 BYTE   W08
 BYTE   N06  Fn2  v127
 BYTE   W07
 BYTE   N02  Dn2  v104
 BYTE   W07
 BYTE   Dn2  v096
 BYTE   W08
 BYTE   N06  Dn2  v108
 BYTE   W07
 BYTE   Gn2  v127
 BYTE   W07
 BYTE   N02  Dn2  v108
 BYTE   W07
 BYTE   Dn2  v096
 BYTE   W08
 BYTE   N07  Dn2  v112
 BYTE   W07
 BYTE   N06  Gs2  v127
 BYTE   W07
 BYTE   Dn2  v120
 BYTE   N01  Ds2  v052
 BYTE   W08
 BYTE   N06  Gn2  v120
 BYTE   W07
 BYTE   N07  Dn2  v116
 BYTE   W03
// 047   ----------------------------------------
 BYTE   W04
 BYTE   N15  Fn2  v127
 BYTE   W15
 BYTE   N02  Dn2  v124
 BYTE   W07
 BYTE   N07  Dn2  v112
 BYTE   W07
 BYTE   Fn2  v127
 BYTE   W07
 BYTE   N03  Dn2  v108
 BYTE   W08
 BYTE   N02  Dn2  v104
 BYTE   W07
 BYTE   N06  Dn2  v112
 BYTE   W07
 BYTE   N07  Gn2  v127
 BYTE   W08
 BYTE   N02  Dn2  v124
 BYTE   W07
 BYTE   Dn2  v120
 BYTE   W07
 BYTE   N06  Dn2  v108
 BYTE   W08
 BYTE   N07  Gs2  v127
 BYTE   W04
// 048   ----------------------------------------
 BYTE   W03
 BYTE   N06  Dn2  v108
 BYTE   W07
 BYTE   Gn2  v124
 BYTE   W07
 BYTE   N07  Dn2  v112
 BYTE   W08
 BYTE   N06  Fn2  v127
 BYTE   W07
 BYTE   N02  Dn2  v104
 BYTE   W07
 BYTE   Dn2  v100
 BYTE   W08
 BYTE   N06  Dn2  v112
 BYTE   W07
 BYTE   Fn2  v127
 BYTE   W07
 BYTE   N02  Dn2  v120
 BYTE   W07
 BYTE   Dn2  v096
 BYTE   W08
 BYTE   N07  Dn2  v108
 BYTE   W07
 BYTE   Gn2  v127
 BYTE   W07
 BYTE   N02  Dn2  v108
 BYTE   W06
// 049   ----------------------------------------
 BYTE   W02
 BYTE   Dn2  v124
 BYTE   W07
 BYTE   N07  Dn2  v120
 BYTE   W07
 BYTE   N06  Gs2  v127
 BYTE   W08
 BYTE   Dn2  v104
 BYTE   W07
 BYTE   Gn2  v124
 BYTE   W07
 BYTE   N07  Dn2  v104
 BYTE   W07
 BYTE   N08  Fn2  v120
 BYTE   W07
 BYTE   N03  Cn2
 BYTE   W08
 BYTE   N07  Cn2  v096
 BYTE   W07
 BYTE   Cs2  v116
 BYTE   W07
 BYTE   Dn2  v120
 BYTE   W08
 BYTE   N03  Bn1  v104
 BYTE   W07
 BYTE   N02  Bn1  v092
 BYTE   W07
// 050   ----------------------------------------
 BYTE   N06  Bn1  v108
 BYTE   W08
 BYTE   N07  Cs2  v116
 BYTE   W07
 BYTE   N03  Bn1  v092
 BYTE   W07
 BYTE   N02  Bn1  v096
 BYTE   W07
 BYTE   N08
 BYTE   W07
 BYTE   N07  Fn2  v127
 BYTE   W08
 BYTE   N06  Bn1  v104
 BYTE   W07
 BYTE   En2  v127
 BYTE   W07
 BYTE   N07  Bn1  v108
 BYTE   W08
 BYTE   N06  Dn2  v127
 BYTE   W07
 BYTE   N02  Bn1  v100
 BYTE   W07
 BYTE   Bn1  v104
 BYTE   W08
 BYTE   N06  Bn1  v100
 BYTE   W07
 BYTE   N07  Dn2  v116
 BYTE   W01
// 051   ----------------------------------------
 BYTE   W06
 BYTE   N02  Bn1  v112
 BYTE   W08
 BYTE   Bn1  v096
 BYTE   W07
 BYTE   N07  Bn1  v100
 BYTE   W07
 BYTE   N06  Cs2  v127
 BYTE   W08
 BYTE   N02  Bn1  v112
 BYTE   W07
 BYTE   Bn1  v096
 BYTE   W07
 BYTE   N07  Bn1  v112
 BYTE   W07
 BYTE   N06  Fn2  v127
 BYTE   W07
 BYTE   Bn1  v116
 BYTE   W08
 BYTE   En2
 BYTE   W07
 BYTE   N07  Bn1  v120
 BYTE   W07
 BYTE   N14  Dn2  v124
 BYTE   W10
// 052   ----------------------------------------
 BYTE   W05
 BYTE   N02  Bn1  v104
 BYTE   W07
 BYTE   N06  Bn1  v127
 BYTE   W08
 BYTE   Dn2
 BYTE   W07
 BYTE   N02  Bn1  v100
 BYTE   W07
 BYTE   Bn1  v116
 BYTE   W07
 BYTE   N07  Bn1  v108
 BYTE   W07
 BYTE   Cs2  v127
 BYTE   W08
 BYTE   N02  Bn1  v108
 BYTE   W07
 BYTE   Bn1  v104
 BYTE   W07
 BYTE   N07  Bn1  v112
 BYTE   W08
 BYTE   N06  Fn2  v127
 BYTE   W07
 BYTE   Bn1  v116
 BYTE   W07
 BYTE   En2  v127
 BYTE   W04
// 053   ----------------------------------------
 BYTE   W04
 BYTE   N07  Bn1  v112
 BYTE   W07
 BYTE   Dn2  v124
 BYTE   W07
 BYTE   N02  Bn1  v112
 BYTE   W08
 BYTE   Bn1  v108
 BYTE   W07
 BYTE   N06
 BYTE   W07
 BYTE   N07  Dn2  v124
 BYTE   W07
 BYTE   N02  Bn1  v116
 BYTE   W08
 BYTE   Bn1  v104
 BYTE   W07
 BYTE   N07  Bn1  v120
 BYTE   W07
 BYTE   Cs2  v127
 BYTE   W07
 BYTE   N03  Bn1  v112
 BYTE   W08
 BYTE   N02
 BYTE   W07
 BYTE   N07  Bn1  v120
 BYTE   W05
// 054   ----------------------------------------
 BYTE   W02
 BYTE   N06  Fn2  v127
 BYTE   W08
 BYTE   N07  Bn1  v104
 BYTE   W07
 BYTE   N06  En2  v127
 BYTE   W07
 BYTE   Bn1  v120
 BYTE   W08
 BYTE   N07  Dn2  v127
 BYTE   W07
 BYTE   N02  Bn1  v116
 BYTE   W07
 BYTE   N03  Bn1  v108
 BYTE   W07
 BYTE   N03
 BYTE   W07
 BYTE   N02  Bn1  v127
 BYTE   W36
// 055   ----------------------------------------
 BYTE   W96
// 056   ----------------------------------------
 BYTE   W96
// 057   ----------------------------------------
 BYTE   W96
// 058   ----------------------------------------
 BYTE   W96
// 059   ----------------------------------------
 BYTE   W32
 BYTE   N01
 BYTE   W08
 BYTE   N07
 BYTE   W07
 BYTE   Dn2  v124
 BYTE   W07
 BYTE   N02  Bn1  v127
 BYTE   W07
 BYTE   Bn1  v108
 BYTE   W07
 BYTE   N08  Bn1  v112
 BYTE   W08
 BYTE   N06  Cs2  v127
 BYTE   W07
 BYTE   N02  Bn1  v120
 BYTE   W07
 BYTE   Bn1  v112
 BYTE   W06
// 060   ----------------------------------------
 BYTE   W02
 BYTE   N08  Bn1  v096
 BYTE   W07
 BYTE   N07  Fn2  v127
 BYTE   W07
 BYTE   N06  Bn1  v104
 BYTE   W08
 BYTE   N07  En2  v127
 BYTE   W07
 BYTE   Bn1  v092
 BYTE   W07
 BYTE   N06  Dn2  v120
 BYTE   W08
 BYTE   N02  Bn1  v096
 BYTE   W07
 BYTE   Bn1  v100
 BYTE   W07
 BYTE   N06  Bn1  v104
 BYTE   W08
 BYTE   Dn2  v116
 BYTE   W07
 BYTE   N02  Bn1  v112
 BYTE   W07
 BYTE   Bn1  v092
 BYTE   W07
 BYTE   N07  Bn1  v100
 BYTE   W07
// 061   ----------------------------------------
 BYTE   N06  Cs2  v127
 BYTE   W08
 BYTE   N02  Bn1  v108
 BYTE   W07
 BYTE   Bn1  v104
 BYTE   W07
 BYTE   N07  Bn1  v100
 BYTE   W08
 BYTE   N06  Fn2  v127
 BYTE   W07
 BYTE   Bn1  v104
 BYTE   W07
 BYTE   N07  En2  v127
 BYTE   W08
 BYTE   Bn1  v116
 BYTE   W07
 BYTE   N14  Dn2
 BYTE   W14
 BYTE   N02  Bn1  v100
 BYTE   W07
 BYTE   N06  Bn1  v120
 BYTE   W08
 BYTE   Dn2  v127
 BYTE   W07
 BYTE   N02  Bn1  v116
 BYTE   W01
// 062   ----------------------------------------
 BYTE   W06
 BYTE   Bn1  v100
 BYTE   W08
 BYTE   N07
 BYTE   W07
 BYTE   Cs2  v127
 BYTE   W07
 BYTE   N02  Bn1  v112
 BYTE   W08
 BYTE   Bn1  v092
 BYTE   W07
 BYTE   N07  Bn1  v116
 BYTE   W07
 BYTE   N06  Fn2  v127
 BYTE   W08
 BYTE   Bn1  v112
 BYTE   W07
 BYTE   N07  En2  v127
 BYTE   W07
 BYTE   N06  Bn1  v120
 BYTE   W07
 BYTE   Dn2  v124
 BYTE   W08
 BYTE   N02  Bn1  v100
 BYTE   W07
 BYTE   N02
 BYTE   W02
// 063   ----------------------------------------
 BYTE   W05
 BYTE   N06  Bn1  v108
 BYTE   W07
 BYTE   N07  Dn2  v127
 BYTE   W08
 BYTE   N02  Bn1  v100
 BYTE   W07
 BYTE   Bn1  v104
 BYTE   W07
 BYTE   N07  Bn1  v120
 BYTE   W08
 BYTE   Cs2  v127
 BYTE   W07
 BYTE   N02  Bn1  v108
 BYTE   W07
 BYTE   Bn1  v116
 BYTE   W08
 BYTE   N07  Bn1  v108
 BYTE   W07
 BYTE   Fn2  v127
 BYTE   W07
 BYTE   N06  Bn1  v108
 BYTE   W07
 BYTE   N07  En2  v127
 BYTE   W07
 BYTE   Bn1  v120
 BYTE   W04
// 064   ----------------------------------------
 BYTE   W04
 BYTE   N06  Dn2  v127
 BYTE   W07
 BYTE   N02  Bn1  v124
 BYTE   W07
 BYTE   Cs2  v096
 BYTE   W08
 BYTE   N03  Dn2
 BYTE   W07
 BYTE   N07  Fn2  v116
 BYTE   W07
 BYTE   N03  Dn2  v112
 BYTE   W08
 BYTE   N02  Dn2  v104
 BYTE   W07
 BYTE   N06  Dn2  v100
 BYTE   W07
 BYTE   Gn2  v120
 BYTE   W07
 BYTE   N03  Dn2  v104
 BYTE   W08
 BYTE   N02
 BYTE   W07
 BYTE   N07  Dn2  v088
 BYTE   W07
 BYTE   N06  Gs2  v127
 BYTE   W05
// 065   ----------------------------------------
 BYTE   W03
 BYTE   Dn2  v100
 BYTE   W07
 BYTE   Gn2  v120
 BYTE   W07
 BYTE   Dn2  v104
 BYTE   W07
 BYTE   N07  Fn2  v120
 BYTE   W08
 BYTE   N03  Dn2  v108
 BYTE   W07
 BYTE   N02  Dn2  v092
 BYTE   W07
 BYTE   N07  Dn2  v104
 BYTE   W08
 BYTE   N06  Fn2  v127
 BYTE   W07
 BYTE   N03  Dn2  v104
 BYTE   W07
 BYTE   N02  Dn2  v096
 BYTE   W08
 BYTE   N06  Dn2  v108
 BYTE   W07
 BYTE   Gn2  v127
 BYTE   W07
 BYTE   N03  Dn2  v108
 BYTE   W06
// 066   ----------------------------------------
 BYTE   W01
 BYTE   N02  Dn2  v096
 BYTE   W07
 BYTE   N07  Dn2  v112
 BYTE   W08
 BYTE   N06  Gs2  v127
 BYTE   W07
 BYTE   Dn2  v120
 BYTE   N01  Ds2  v052
 BYTE   W07
 BYTE   N06  Gn2  v120
 BYTE   W08
 BYTE   N07  Dn2  v116
 BYTE   W07
 BYTE   N15  Fn2  v127
 BYTE   W15
 BYTE   N02  Dn2  v124
 BYTE   W07
 BYTE   N07  Dn2  v112
 BYTE   W07
 BYTE   Fn2  v127
 BYTE   W07
 BYTE   N03  Dn2  v108
 BYTE   W08
 BYTE   N02  Dn2  v104
 BYTE   W07
// 067   ----------------------------------------
 BYTE   N06  Dn2  v112
 BYTE   W07
 BYTE   N07  Gn2  v127
 BYTE   W08
 BYTE   N02  Dn2  v124
 BYTE   W07
 BYTE   Dn2  v120
 BYTE   W07
 BYTE   N07  Dn2  v108
 BYTE   W07
 BYTE   Gs2  v127
 BYTE   W08
 BYTE   N06  Dn2  v108
 BYTE   W07
 BYTE   Gn2  v124
 BYTE   W07
 BYTE   N07  Dn2  v112
 BYTE   W08
 BYTE   Fn2  v127
 BYTE   W07
 BYTE   N02  Dn2  v104
 BYTE   W07
 BYTE   Dn2  v100
 BYTE   W08
 BYTE   N06  Dn2  v112
 BYTE   W07
 BYTE   Fn2  v127
 BYTE   W01
// 068   ----------------------------------------
 BYTE   W06
 BYTE   N02  Dn2  v120
 BYTE   W07
 BYTE   Dn2  v096
 BYTE   W07
 BYTE   N07  Dn2  v108
 BYTE   W08
 BYTE   Gn2  v127
 BYTE   W07
 BYTE   N02  Dn2  v108
 BYTE   W07
 BYTE   Dn2  v124
 BYTE   W08
 BYTE   N07  Dn2  v120
 BYTE   W07
 BYTE   N06  Gs2  v127
 BYTE   W07
 BYTE   Dn2  v104
 BYTE   W08
 BYTE   Gn2  v124
 BYTE   W07
 BYTE   N07  Dn2  v104
 BYTE   W07
 BYTE   N08  Fn2  v120
 BYTE   W07
 BYTE   N03  Cn2
 BYTE   W03
// 069   ----------------------------------------
 BYTE   W04
 BYTE   N07  Cn2  v096
 BYTE   W08
 BYTE   Cs2  v116
 BYTE   W07
 BYTE   Dn2  v120
 BYTE   W07
 BYTE   N03  Bn1  v104
 BYTE   W08
 BYTE   N02  Bn1  v092
 BYTE   W07
 BYTE   N06  Bn1  v108
 BYTE   W07
 BYTE   N07  Cs2  v116
 BYTE   W08
 BYTE   N03  Bn1  v092
 BYTE   W07
 BYTE   N02  Bn1  v096
 BYTE   W07
 BYTE   N08
 BYTE   W08
 BYTE   N06  Fn2  v127
 BYTE   W07
 BYTE   Bn1  v104
 BYTE   W07
 BYTE   En2  v127
 BYTE   W04
// 070   ----------------------------------------
 BYTE   W04
 BYTE   N07  Bn1  v108
 BYTE   W07
 BYTE   N06  Dn2  v127
 BYTE   W07
 BYTE   N02  Bn1  v100
 BYTE   W07
 BYTE   Bn1  v104
 BYTE   W07
 BYTE   N06  Bn1  v100
 BYTE   W08
 BYTE   N07  Dn2  v116
 BYTE   W07
 BYTE   N02  Bn1  v112
 BYTE   W07
 BYTE   Bn1  v096
 BYTE   W08
 BYTE   N07  Bn1  v100
 BYTE   W07
 BYTE   N06  Cs2  v127
 BYTE   W07
 BYTE   N02  Bn1  v112
 BYTE   W08
 BYTE   Bn1  v096
 BYTE   W07
 BYTE   N07  Bn1  v112
 BYTE   W05
// 071   ----------------------------------------
 BYTE   W02
 BYTE   N06  Fn2  v127
 BYTE   W07
 BYTE   Bn1  v116
 BYTE   W07
 BYTE   En2
 BYTE   W08
 BYTE   Bn1  v120
 BYTE   W07
 BYTE   N07  Dn2  v124
 BYTE   W07
 BYTE   N02  Bn1  v112
 BYTE   W08
 BYTE   Bn1  v104
 BYTE   W07
 BYTE   N06  Bn1  v127
 BYTE   W07
 BYTE   Dn2
 BYTE   W08
 BYTE   N02  Bn1  v100
 BYTE   W07
 BYTE   Bn1  v116
 BYTE   W07
 BYTE   N07  Bn1  v108
 BYTE   W08
 BYTE   N06  Cs2  v127
 BYTE   W06
// 072   ----------------------------------------
 BYTE   W01
 BYTE   N02  Bn1  v108
 BYTE   W07
 BYTE   Bn1  v104
 BYTE   W07
 BYTE   N07  Bn1  v112
 BYTE   W08
 BYTE   Fn2  v127
 BYTE   W07
 BYTE   N06  Bn1  v116
 BYTE   W07
 BYTE   En2  v127
 BYTE   W07
 BYTE   N07  Bn1  v112
 BYTE   W08
 BYTE   Dn2  v124
 BYTE   W07
 BYTE   N03  Bn1  v112
 BYTE   W07
 BYTE   N02  Bn1  v108
 BYTE   W08
 BYTE   N06
 BYTE   W07
 BYTE   N07  Dn2  v124
 BYTE   W07
 BYTE   N02  Bn1  v116
 BYTE   W08
// 073   ----------------------------------------
 BYTE   Bn1  v104
 BYTE   W07
 BYTE   N07  Bn1  v120
 BYTE   W07
 BYTE   Cs2  v127
 BYTE   W07
 BYTE   N03  Bn1  v112
 BYTE   W07
 BYTE   N02
 BYTE   W08
 BYTE   N06  Bn1  v120
 BYTE   W07
 BYTE   Fn2  v127
 BYTE   W07
 BYTE   N07  Bn1  v104
 BYTE   W08
 BYTE   N06  En2  v127
 BYTE   W07
 BYTE   Bn1  v120
 BYTE   W07
 BYTE   N07  Dn2  v127
 BYTE   W08
 BYTE   N02  Bn1  v116
 BYTE   W07
 BYTE   N03  An1  v108
 BYTE   W07
 BYTE   As1
 BYTE   W02
// 074   ----------------------------------------
 BYTE   W05
 BYTE   N02  Bn1  v127
 BYTE   W88
 BYTE   N10  An1
 BYTE   W03
// 075   ----------------------------------------
 BYTE   W07
 BYTE   N09  Cs2
 BYTE   W09
 BYTE   N08  An1
 BYTE   W10
 BYTE   N04  Bn1
 BYTE   W68
 BYTE   W02
// 076   ----------------------------------------
 BYTE   W17
 BYTE   N10  Cs2
 BYTE   W10
 BYTE   En2
 BYTE   W10
 BYTE   N09  Cs2
 BYTE   W10
 BYTE   N04  Bn1
 BYTE   W48
 BYTE   W01
// 077   ----------------------------------------
 BYTE   W36
 BYTE   W02
 BYTE   N10  Fn2
 BYTE   W10
 BYTE   Dn2
 BYTE   W09
 BYTE   N09  Cs2
 BYTE   W10
 BYTE   GoTo
  POIN2 Label_1_0118CC72
 BYTE   FINE

//**************** Track 3 (Midi-Chn.2) ****************//

DOOMIntermissionfromDoomDolkar_003:
// 000   ----------------------------------------
 BYTE   KEYSH   DOOMIntermissionfromDoomDolkar_key+0
Label_2_0118D816:
 BYTE   VOICE   33
 BYTE   VOL   62*DOOMIntermissionfromDoomDolkar_mvl/mxv
 BYTE   PAN   c_v+0
 BYTE   VOL   62*DOOMIntermissionfromDoomDolkar_mvl/mxv
 BYTE   PAN   c_v+0
 BYTE   N02  En0  v120
 BYTE   W07
 BYTE   En0  v116
 BYTE   W07
 BYTE   En0  v127
 BYTE   W07
 BYTE   En0  v112
 BYTE   W07
 BYTE   En0  v127
 BYTE   W08
 BYTE   N02
 BYTE   W07
 BYTE   En0  v124
 BYTE   W07
 BYTE   N02
 BYTE   W08
 BYTE   En0  v127
 BYTE   W07
 BYTE   N02
 BYTE   W07
 BYTE   N02
 BYTE   W08
 BYTE   N01
 BYTE   W07
 BYTE   N02
 BYTE   W09
// 001   ----------------------------------------
 BYTE   W05
 BYTE   N02
 BYTE   W07
 BYTE   N07
 BYTE   W08
 BYTE   Gn0  v124
 BYTE   W07
 BYTE   N02  En0  v127
 BYTE   W07
 BYTE   En0  v108
 BYTE   W08
 BYTE   N07  En0  v112
 BYTE   W07
 BYTE   N06  Fs0  v127
 BYTE   W07
 BYTE   N02  En0  v120
 BYTE   W08
 BYTE   En0  v112
 BYTE   W07
 BYTE   N08  En0  v096
 BYTE   W07
 BYTE   N07  As0  v127
 BYTE   W07
 BYTE   N06  En0  v104
 BYTE   W08
 BYTE   An0  v127
 BYTE   W03
// 002   ----------------------------------------
 BYTE   W04
 BYTE   N07  En0  v092
 BYTE   W07
 BYTE   N06  Gn0  v120
 BYTE   W08
 BYTE   N02  En0  v096
 BYTE   W07
 BYTE   En0  v100
 BYTE   W07
 BYTE   N06  En0  v104
 BYTE   W07
 BYTE   Gn0  v116
 BYTE   W08
 BYTE   N02  En0  v112
 BYTE   W07
 BYTE   En0  v092
 BYTE   W07
 BYTE   N07  En0  v100
 BYTE   W08
 BYTE   N06  Fs0  v127
 BYTE   W07
 BYTE   N02  En0  v108
 BYTE   W07
 BYTE   En0  v104
 BYTE   W08
 BYTE   N07  En0  v100
 BYTE   W04
// 003   ----------------------------------------
 BYTE   W03
 BYTE   N06  As0  v127
 BYTE   W07
 BYTE   En0  v104
 BYTE   W07
 BYTE   N07  An0  v127
 BYTE   W07
 BYTE   En0  v116
 BYTE   W08
 BYTE   N14  Gn0
 BYTE   W14
 BYTE   N02  En0  v100
 BYTE   W08
 BYTE   N06  En0  v120
 BYTE   W07
 BYTE   Gn0  v127
 BYTE   W07
 BYTE   N02  En0  v116
 BYTE   W08
 BYTE   En0  v100
 BYTE   W07
 BYTE   N07
 BYTE   W07
 BYTE   Fs0  v127
 BYTE   W06
// 004   ----------------------------------------
 BYTE   W01
 BYTE   N03  En0  v112
 BYTE   W08
 BYTE   N02  En0  v092
 BYTE   W07
 BYTE   N07  En0  v116
 BYTE   W07
 BYTE   N06  As0  v127
 BYTE   W08
 BYTE   En0  v112
 BYTE   W07
 BYTE   N07  An0  v127
 BYTE   W07
 BYTE   N06  En0  v120
 BYTE   W07
 BYTE   Gn0  v124
 BYTE   W08
 BYTE   N03  En0  v100
 BYTE   W07
 BYTE   N02
 BYTE   W07
 BYTE   N06  En0  v108
 BYTE   W08
 BYTE   Gn0  v127
 BYTE   W07
 BYTE   N02  En0  v100
 BYTE   W07
// 005   ----------------------------------------
 BYTE   En0  v104
 BYTE   W08
 BYTE   N07  En0  v120
 BYTE   W07
 BYTE   Fs0  v127
 BYTE   W07
 BYTE   N02  En0  v108
 BYTE   W07
 BYTE   En0  v116
 BYTE   W07
 BYTE   N07  En0  v108
 BYTE   W08
 BYTE   As0  v127
 BYTE   W07
 BYTE   N06  En0  v108
 BYTE   W07
 BYTE   An0  v127
 BYTE   W08
 BYTE   En0  v120
 BYTE   W07
 BYTE   Gn0  v127
 BYTE   W07
 BYTE   N02  En0  v124
 BYTE   W08
 BYTE   Fs0  v096
 BYTE   W07
 BYTE   N03  Gn0
 BYTE   W01
// 006   ----------------------------------------
 BYTE   W06
 BYTE   N07  As0  v116
 BYTE   W07
 BYTE   N03  Gn0  v112
 BYTE   W08
 BYTE   N02  Gn0  v104
 BYTE   W07
 BYTE   N06  Gn0  v100
 BYTE   W07
 BYTE   Cn1  v120
 BYTE   W07
 BYTE   N02  Gn0  v104
 BYTE   W08
 BYTE   N02
 BYTE   W07
 BYTE   N07  Gn0  v088
 BYTE   W07
 BYTE   N06  Cs1  v127
 BYTE   W08
 BYTE   Gn0  v100
 BYTE   W07
 BYTE   Cn1  v120
 BYTE   W07
 BYTE   Gn0  v104
 BYTE   W08
 BYTE   As0  v120
 BYTE   W02
// 007   ----------------------------------------
 BYTE   W05
 BYTE   N02  Gn0  v108
 BYTE   W07
 BYTE   Gn0  v092
 BYTE   W08
 BYTE   N07  Gn0  v104
 BYTE   W07
 BYTE   N06  As0  v127
 BYTE   W07
 BYTE   N03  Gn0  v104
 BYTE   W07
 BYTE   N02  Gn0  v096
 BYTE   W07
 BYTE   N07  Gn0  v108
 BYTE   W08
 BYTE   N06  Cn1  v127
 BYTE   W07
 BYTE   N02  Gn0  v108
 BYTE   W07
 BYTE   Gn0  v096
 BYTE   W08
 BYTE   N07  Gn0  v112
 BYTE   W07
 BYTE   N06  Cs1  v127
 BYTE   W07
 BYTE   Gn0  v120
 BYTE   N01  Gs0  v052
 BYTE   W04
// 008   ----------------------------------------
 BYTE   W04
 BYTE   N06  Cn1  v120
 BYTE   W07
 BYTE   N07  Gn0  v116
 BYTE   W07
 BYTE   N15  As0  v127
 BYTE   W14
 BYTE   N03  Gn0  v124
 BYTE   W08
 BYTE   N07  Gn0  v112
 BYTE   W07
 BYTE   N06  As0  v127
 BYTE   W07
 BYTE   N03  Gn0  v108
 BYTE   W08
 BYTE   N02  Gn0  v104
 BYTE   W07
 BYTE   N06  Gn0  v112
 BYTE   W07
 BYTE   N07  Cn1  v127
 BYTE   W08
 BYTE   N03  Gn0  v124
 BYTE   W07
 BYTE   N02  Gn0  v120
 BYTE   W05
// 009   ----------------------------------------
 BYTE   W02
 BYTE   N07  Gn0  v108
 BYTE   W08
 BYTE   Cs1  v127
 BYTE   W07
 BYTE   N06  Gn0  v108
 BYTE   W07
 BYTE   Cn1  v124
 BYTE   W08
 BYTE   Gn0  v112
 BYTE   W07
 BYTE   N07  As0  v127
 BYTE   W07
 BYTE   N02  Gn0  v104
 BYTE   W07
 BYTE   Gn0  v100
 BYTE   W07
 BYTE   N07  Gn0  v112
 BYTE   W08
 BYTE   N06  As0  v127
 BYTE   W07
 BYTE   N03  Gn0  v120
 BYTE   W07
 BYTE   N02  Gn0  v096
 BYTE   W08
 BYTE   N06  Gn0  v108
 BYTE   W06
// 010   ----------------------------------------
 BYTE   W01
 BYTE   N07  Cn1  v127
 BYTE   W07
 BYTE   N02  Gn0  v108
 BYTE   W08
 BYTE   Gn0  v124
 BYTE   W07
 BYTE   N07  Gn0  v120
 BYTE   W07
 BYTE   N06  Cs1  v127
 BYTE   W07
 BYTE   N07  Gn0  v104
 BYTE   W07
 BYTE   N06  Cn1  v124
 BYTE   W08
 BYTE   N07  Gn0  v104
 BYTE   W07
 BYTE   As0  v120
 BYTE   W07
 BYTE   N03  Fn0
 BYTE   W08
 BYTE   N07  Fn0  v096
 BYTE   W07
 BYTE   Fs0  v116
 BYTE   W07
 BYTE   Gn0  v120
 BYTE   W08
// 011   ----------------------------------------
 BYTE   N03  En0  v104
 BYTE   W07
 BYTE   En0  v092
 BYTE   W07
 BYTE   N07  En0  v108
 BYTE   W07
 BYTE   Fs0  v116
 BYTE   W08
 BYTE   N03  En0  v092
 BYTE   W07
 BYTE   N02  En0  v096
 BYTE   W07
 BYTE   N07
 BYTE   W08
 BYTE   N06  As0  v127
 BYTE   W07
 BYTE   En0  v104
 BYTE   W07
 BYTE   An0  v127
 BYTE   W07
 BYTE   N07  En0  v108
 BYTE   W08
 BYTE   N06  Gn0  v127
 BYTE   W07
 BYTE   N03  En0  v100
 BYTE   W07
 BYTE   N02  En0  v104
 BYTE   W02
// 012   ----------------------------------------
 BYTE   W06
 BYTE   N06  En0  v100
 BYTE   W07
 BYTE   N07  Gn0  v116
 BYTE   W07
 BYTE   N02  En0  v112
 BYTE   W08
 BYTE   En0  v096
 BYTE   W07
 BYTE   N07  En0  v100
 BYTE   W07
 BYTE   N06  Fs0  v127
 BYTE   W07
 BYTE   N02  En0  v112
 BYTE   W07
 BYTE   En0  v096
 BYTE   W08
 BYTE   N07  En0  v112
 BYTE   W07
 BYTE   N06  As0  v127
 BYTE   W07
 BYTE   En0  v116
 BYTE   W08
 BYTE   An0
 BYTE   W07
 BYTE   En0  v120
 BYTE   W03
// 013   ----------------------------------------
 BYTE   W04
 BYTE   N14  Gn0  v124
 BYTE   W15
 BYTE   N02  En0  v104
 BYTE   W07
 BYTE   N06  En0  v127
 BYTE   W07
 BYTE   N07  Gn0
 BYTE   W08
 BYTE   N02  En0  v100
 BYTE   W07
 BYTE   En0  v116
 BYTE   W07
 BYTE   N07  En0  v108
 BYTE   W08
 BYTE   N06  Fs0  v127
 BYTE   W07
 BYTE   N02  En0  v108
 BYTE   W07
 BYTE   En0  v104
 BYTE   W07
 BYTE   N08  En0  v112
 BYTE   W08
 BYTE   N07  As0  v127
 BYTE   W04
// 014   ----------------------------------------
 BYTE   W03
 BYTE   N06  En0  v116
 BYTE   W07
 BYTE   An0  v127
 BYTE   W08
 BYTE   En0  v112
 BYTE   W07
 BYTE   N07  Gn0  v124
 BYTE   W07
 BYTE   N02  En0  v112
 BYTE   W08
 BYTE   En0  v108
 BYTE   W07
 BYTE   N06
 BYTE   W07
 BYTE   N07  Gn0  v124
 BYTE   W07
 BYTE   N02  En0  v116
 BYTE   W07
 BYTE   En0  v104
 BYTE   W08
 BYTE   N07  En0  v120
 BYTE   W07
 BYTE   Fs0  v127
 BYTE   W07
 BYTE   N02  En0  v112
 BYTE   W06
// 015   ----------------------------------------
 BYTE   W02
 BYTE   N02
 BYTE   W07
 BYTE   N06  En0  v120
 BYTE   W07
 BYTE   As0  v127
 BYTE   W08
 BYTE   N07  En0  v104
 BYTE   W07
 BYTE   N06  An0  v127
 BYTE   W07
 BYTE   En0  v120
 BYTE   W07
 BYTE   N07  Gn0  v127
 BYTE   W08
 BYTE   N02  En0  v116
 BYTE   W07
 BYTE   N03  En0  v108
 BYTE   W07
 BYTE   N03
 BYTE   W07
 BYTE   N02  En0  v116
 BYTE   W08
 BYTE   En0  v080
 BYTE   W07
 BYTE   N03  En0  v076
 BYTE   W07
// 016   ----------------------------------------
 BYTE   N02  En0  v092
 BYTE   W08
 BYTE   En0  v080
 BYTE   W07
 BYTE   N03  En0  v076
 BYTE   W07
 BYTE   En0  v084
 BYTE   W08
 BYTE   N02  En0  v080
 BYTE   W07
 BYTE   N02
 BYTE   W07
 BYTE   N03
 BYTE   W08
 BYTE   N02  En0  v092
 BYTE   W07
 BYTE   N02
 BYTE   W07
 BYTE   En0  v088
 BYTE   W07
 BYTE   En0  v092
 BYTE   W07
 BYTE   N03  En0  v080
 BYTE   W08
 BYTE   N02  En0  v092
 BYTE   W07
 BYTE   N03
 BYTE   W01
// 017   ----------------------------------------
 BYTE   W06
 BYTE   N02  En0  v084
 BYTE   W08
 BYTE   N03  En0  v080
 BYTE   W07
 BYTE   En0  v068
 BYTE   W07
 BYTE   N02  En0  v084
 BYTE   W08
 BYTE   N02
 BYTE   W07
 BYTE   N03  En0  v088
 BYTE   W07
 BYTE   N02  En0  v092
 BYTE   W07
 BYTE   N03  En0  v088
 BYTE   W07
 BYTE   En0  v080
 BYTE   W08
 BYTE   N02  En0  v084
 BYTE   W07
 BYTE   N02
 BYTE   W07
 BYTE   En0  v092
 BYTE   W08
 BYTE   N02
 BYTE   W02
// 018   ----------------------------------------
 BYTE   W05
 BYTE   En0  v084
 BYTE   W07
 BYTE   En0  v104
 BYTE   W08
 BYTE   N03  En0  v112
 BYTE   W07
 BYTE   N02  En0  v092
 BYTE   W07
 BYTE   N03
 BYTE   W08
 BYTE   N02
 BYTE   W07
 BYTE   N02
 BYTE   W07
 BYTE   N02
 BYTE   W08
 BYTE   En0  v084
 BYTE   W07
 BYTE   En0  v092
 BYTE   W07
 BYTE   En0  v088
 BYTE   W07
 BYTE   En0  v092
 BYTE   W07
 BYTE   N03
 BYTE   W04
// 019   ----------------------------------------
 BYTE   W04
 BYTE   N02
 BYTE   W07
 BYTE   N03
 BYTE   W07
 BYTE   N02  En0  v084
 BYTE   W08
 BYTE   En0  v092
 BYTE   W07
 BYTE   N02
 BYTE   W07
 BYTE   N03  En0  v104
 BYTE   W08
 BYTE   N02  En0  v092
 BYTE   W07
 BYTE   N03  En0  v104
 BYTE   W07
 BYTE   En0  v084
 BYTE   W07
 BYTE   En0  v088
 BYTE   W07
 BYTE   En0  v092
 BYTE   W08
 BYTE   N02  En0  v112
 BYTE   W07
 BYTE   En0  v104
 BYTE   W05
// 020   ----------------------------------------
 BYTE   W02
 BYTE   N03  En0  v112
 BYTE   W08
 BYTE   N02  En0  v124
 BYTE   W07
 BYTE   En0  v127
 BYTE   W07
 BYTE   N02
 BYTE   W08
 BYTE   N03
 BYTE   W14
 BYTE   N02
 BYTE   W07
 BYTE   N07
 BYTE   W08
 BYTE   Gn0  v124
 BYTE   W07
 BYTE   N02  En0  v127
 BYTE   W07
 BYTE   En0  v108
 BYTE   W08
 BYTE   N07  En0  v112
 BYTE   W07
 BYTE   N06  Fs0  v127
 BYTE   W06
// 021   ----------------------------------------
 BYTE   W01
 BYTE   N02  En0  v120
 BYTE   W07
 BYTE   En0  v112
 BYTE   W08
 BYTE   N08  En0  v096
 BYTE   W07
 BYTE   N07  As0  v127
 BYTE   W07
 BYTE   N06  En0  v104
 BYTE   W08
 BYTE   An0  v127
 BYTE   W07
 BYTE   N07  En0  v092
 BYTE   W07
 BYTE   N06  Gn0  v120
 BYTE   W08
 BYTE   N02  En0  v096
 BYTE   W07
 BYTE   En0  v100
 BYTE   W07
 BYTE   N06  En0  v104
 BYTE   W07
 BYTE   Gn0  v116
 BYTE   W07
 BYTE   N02  En0  v112
 BYTE   W08
// 022   ----------------------------------------
 BYTE   En0  v092
 BYTE   W07
 BYTE   N07  En0  v100
 BYTE   W07
 BYTE   N06  Fs0  v127
 BYTE   W08
 BYTE   N02  En0  v108
 BYTE   W07
 BYTE   En0  v104
 BYTE   W07
 BYTE   N07  En0  v100
 BYTE   W08
 BYTE   N06  As0  v127
 BYTE   W07
 BYTE   En0  v104
 BYTE   W07
 BYTE   N07  An0  v127
 BYTE   W07
 BYTE   En0  v116
 BYTE   W08
 BYTE   N14  Gn0
 BYTE   W14
 BYTE   N02  En0  v100
 BYTE   W08
 BYTE   N06  En0  v120
 BYTE   W01
// 023   ----------------------------------------
 BYTE   W06
 BYTE   Gn0  v127
 BYTE   W07
 BYTE   N02  En0  v116
 BYTE   W07
 BYTE   En0  v100
 BYTE   W08
 BYTE   N07
 BYTE   W07
 BYTE   Fs0  v127
 BYTE   W07
 BYTE   N03  En0  v112
 BYTE   W08
 BYTE   N02  En0  v092
 BYTE   W07
 BYTE   N07  En0  v116
 BYTE   W07
 BYTE   N06  As0  v127
 BYTE   W08
 BYTE   En0  v112
 BYTE   W07
 BYTE   N07  An0  v127
 BYTE   W07
 BYTE   N06  En0  v120
 BYTE   W07
 BYTE   Gn0  v124
 BYTE   W03
// 024   ----------------------------------------
 BYTE   W04
 BYTE   N03  En0  v100
 BYTE   W08
 BYTE   N02
 BYTE   W07
 BYTE   N06  En0  v108
 BYTE   W07
 BYTE   Gn0  v127
 BYTE   W08
 BYTE   N02  En0  v100
 BYTE   W07
 BYTE   En0  v104
 BYTE   W07
 BYTE   N07  En0  v120
 BYTE   W08
 BYTE   Fs0  v127
 BYTE   W07
 BYTE   N02  En0  v108
 BYTE   W07
 BYTE   En0  v116
 BYTE   W07
 BYTE   N07  En0  v108
 BYTE   W08
 BYTE   As0  v127
 BYTE   W07
 BYTE   N06  En0  v108
 BYTE   W04
// 025   ----------------------------------------
 BYTE   W03
 BYTE   An0  v127
 BYTE   W07
 BYTE   N07  En0  v120
 BYTE   W08
 BYTE   N06  Gn0  v127
 BYTE   W07
 BYTE   N02  En0  v124
 BYTE   W07
 BYTE   Fs0  v096
 BYTE   W08
 BYTE   N03  Gn0
 BYTE   W07
 BYTE   N07  As0  v116
 BYTE   W07
 BYTE   N03  Gn0  v112
 BYTE   W08
 BYTE   N02  Gn0  v104
 BYTE   W07
 BYTE   N06  Gn0  v100
 BYTE   W07
 BYTE   Cn1  v120
 BYTE   W08
 BYTE   N02  Gn0  v104
 BYTE   W07
 BYTE   N02
 BYTE   W05
// 026   ----------------------------------------
 BYTE   W02
 BYTE   N07  Gn0  v088
 BYTE   W07
 BYTE   N06  Cs1  v127
 BYTE   W07
 BYTE   Gn0  v100
 BYTE   W08
 BYTE   N07  Cn1  v120
 BYTE   W07
 BYTE   N06  Gn0  v104
 BYTE   W07
 BYTE   As0  v120
 BYTE   W08
 BYTE   N03  Gn0  v108
 BYTE   W07
 BYTE   N02  Gn0  v092
 BYTE   W07
 BYTE   N07  Gn0  v104
 BYTE   W08
 BYTE   N06  As0  v127
 BYTE   W07
 BYTE   N03  Gn0  v104
 BYTE   W07
 BYTE   N02  Gn0  v096
 BYTE   W07
 BYTE   N07  Gn0  v108
 BYTE   W07
// 027   ----------------------------------------
 BYTE   N06  Cn1  v127
 BYTE   W08
 BYTE   N02  Gn0  v108
 BYTE   W07
 BYTE   Gn0  v096
 BYTE   W07
 BYTE   N07  Gn0  v112
 BYTE   W08
 BYTE   N06  Cs1  v127
 BYTE   W07
 BYTE   Gn0  v120
 BYTE   N01  Gs0  v052
 BYTE   W07
 BYTE   N06  Cn1  v120
 BYTE   W08
 BYTE   N07  Gn0  v116
 BYTE   W07
 BYTE   N15  As0  v127
 BYTE   W15
 BYTE   N02  Gn0  v124
 BYTE   W07
 BYTE   N07  Gn0  v112
 BYTE   W07
 BYTE   N06  As0  v127
 BYTE   W08
// 028   ----------------------------------------
 BYTE   N03  Gn0  v108
 BYTE   W07
 BYTE   N02  Gn0  v104
 BYTE   W07
 BYTE   N06  Gn0  v112
 BYTE   W07
 BYTE   N07  Cn1  v127
 BYTE   W07
 BYTE   N03  Gn0  v124
 BYTE   W08
 BYTE   N02  Gn0  v120
 BYTE   W07
 BYTE   N07  Gn0  v108
 BYTE   W07
 BYTE   Cs1  v127
 BYTE   W08
 BYTE   N06  Gn0  v108
 BYTE   W07
 BYTE   Cn1  v124
 BYTE   W07
 BYTE   Gn0  v112
 BYTE   W08
 BYTE   N07  As0  v127
 BYTE   W07
 BYTE   N02  Gn0  v104
 BYTE   W07
 BYTE   Gn0  v100
 BYTE   W02
// 029   ----------------------------------------
 BYTE   W05
 BYTE   N07  Gn0  v112
 BYTE   W07
 BYTE   N06  As0  v127
 BYTE   W08
 BYTE   N02  Gn0  v120
 BYTE   W07
 BYTE   Gn0  v096
 BYTE   W07
 BYTE   N06  Gn0  v108
 BYTE   W08
 BYTE   Cn1  v127
 BYTE   W07
 BYTE   N02  Gn0  v108
 BYTE   W07
 BYTE   Gn0  v124
 BYTE   W08
 BYTE   N07  Gn0  v120
 BYTE   W07
 BYTE   N06  Cs1  v127
 BYTE   W07
 BYTE   N07  Gn0  v104
 BYTE   W07
 BYTE   N06  Cn1  v124
 BYTE   W08
 BYTE   N07  Gn0  v104
 BYTE   W03
// 030   ----------------------------------------
 BYTE   W04
 BYTE   As0  v120
 BYTE   W07
 BYTE   N03  Fn0
 BYTE   W08
 BYTE   N07  Fn0  v096
 BYTE   W07
 BYTE   Fs0  v116
 BYTE   W07
 BYTE   Gn0  v120
 BYTE   W07
 BYTE   N03  En0  v104
 BYTE   W08
 BYTE   En0  v092
 BYTE   W07
 BYTE   N07  En0  v108
 BYTE   W07
 BYTE   N06  Fs0  v116
 BYTE   W08
 BYTE   N03  En0  v092
 BYTE   W07
 BYTE   N02  En0  v096
 BYTE   W07
 BYTE   N07
 BYTE   W08
 BYTE   N06  As0  v127
 BYTE   W04
// 031   ----------------------------------------
 BYTE   W03
 BYTE   En0  v104
 BYTE   W07
 BYTE   An0  v127
 BYTE   W07
 BYTE   N07  En0  v108
 BYTE   W07
 BYTE   N06  Gn0  v127
 BYTE   W08
 BYTE   N03  En0  v100
 BYTE   W07
 BYTE   N02  En0  v104
 BYTE   W07
 BYTE   N06  En0  v100
 BYTE   W08
 BYTE   N07  Gn0  v116
 BYTE   W07
 BYTE   N02  En0  v112
 BYTE   W07
 BYTE   En0  v096
 BYTE   W08
 BYTE   N07  En0  v100
 BYTE   W07
 BYTE   N06  Fs0  v127
 BYTE   W07
 BYTE   N03  En0  v112
 BYTE   W06
// 032   ----------------------------------------
 BYTE   W01
 BYTE   N02  En0  v096
 BYTE   W08
 BYTE   N07  En0  v112
 BYTE   W07
 BYTE   N06  As0  v127
 BYTE   W07
 BYTE   En0  v116
 BYTE   W08
 BYTE   An0
 BYTE   W07
 BYTE   En0  v120
 BYTE   W07
 BYTE   N07  Gn0  v124
 BYTE   W07
 BYTE   N02  En0  v112
 BYTE   W08
 BYTE   En0  v104
 BYTE   W07
 BYTE   N06  En0  v127
 BYTE   W07
 BYTE   N07  Gn0
 BYTE   W08
 BYTE   N02  En0  v100
 BYTE   W07
 BYTE   En0  v116
 BYTE   W07
// 033   ----------------------------------------
 BYTE   N07  En0  v108
 BYTE   W08
 BYTE   N06  Fs0  v127
 BYTE   W07
 BYTE   N02  En0  v108
 BYTE   W07
 BYTE   En0  v104
 BYTE   W07
 BYTE   N08  En0  v112
 BYTE   W07
 BYTE   N07  As0  v127
 BYTE   W08
 BYTE   En0  v116
 BYTE   W07
 BYTE   N06  An0  v127
 BYTE   W07
 BYTE   En0  v112
 BYTE   W08
 BYTE   N07  Gn0  v124
 BYTE   W07
 BYTE   N02  En0  v112
 BYTE   W07
 BYTE   En0  v108
 BYTE   W08
 BYTE   N06
 BYTE   W07
 BYTE   N07  Gn0  v124
 BYTE   W01
// 034   ----------------------------------------
 BYTE   W06
 BYTE   N02  En0  v116
 BYTE   W07
 BYTE   En0  v104
 BYTE   W08
 BYTE   N07  En0  v120
 BYTE   W07
 BYTE   Fs0  v127
 BYTE   W07
 BYTE   N02  En0  v112
 BYTE   W07
 BYTE   N02
 BYTE   W08
 BYTE   N06  En0  v120
 BYTE   W07
 BYTE   As0  v127
 BYTE   W07
 BYTE   N07  En0  v104
 BYTE   W08
 BYTE   N06  An0  v127
 BYTE   W07
 BYTE   N07  En0  v120
 BYTE   W07
 BYTE   Gn0  v127
 BYTE   W08
 BYTE   N02  En0  v116
 BYTE   W02
// 035   ----------------------------------------
 BYTE   W05
 BYTE   N03  Dn0  v108
 BYTE   W07
 BYTE   Ds0
 BYTE   W08
 BYTE   N02  En0  v127
 BYTE   W14
 BYTE   En0  v100
 BYTE   W07
 BYTE   En0  v092
 BYTE   W07
 BYTE   N02
 BYTE   W08
 BYTE   En0  v088
 BYTE   W07
 BYTE   En0  v084
 BYTE   W07
 BYTE   En0  v100
 BYTE   W08
 BYTE   En0  v092
 BYTE   W07
 BYTE   En0  v100
 BYTE   W07
 BYTE   En0  v116
 BYTE   W04
// 036   ----------------------------------------
 BYTE   W04
 BYTE   N02
 BYTE   W07
 BYTE   N10  Dn0  v127
 BYTE   W09
 BYTE   N09  Fs0
 BYTE   W10
 BYTE   N08  Dn0
 BYTE   W10
 BYTE   N02  En0  v112
 BYTE   W07
 BYTE   En0  v100
 BYTE   W07
 BYTE   En0  v080
 BYTE   W08
 BYTE   En0  v116
 BYTE   W07
 BYTE   En0  v124
 BYTE   W07
 BYTE   En0  v100
 BYTE   W08
 BYTE   En0  v116
 BYTE   W07
 BYTE   En0  v104
 BYTE   W05
// 037   ----------------------------------------
 BYTE   W02
 BYTE   En0  v116
 BYTE   W08
 BYTE   En0  v100
 BYTE   W07
 BYTE   En0  v120
 BYTE   W07
 BYTE   En0  v127
 BYTE   W08
 BYTE   N10  Fs0
 BYTE   W09
 BYTE   An0
 BYTE   W10
 BYTE   N09  Fs0
 BYTE   W09
 BYTE   N02  En0  v120
 BYTE   W08
 BYTE   En0  v100
 BYTE   W07
 BYTE   N03  En0  v104
 BYTE   W07
 BYTE   N02  En0  v100
 BYTE   W08
 BYTE   En0  v112
 BYTE   W06
// 038   ----------------------------------------
 BYTE   W01
 BYTE   N02
 BYTE   W07
 BYTE   En0  v120
 BYTE   W08
 BYTE   En0  v112
 BYTE   W07
 BYTE   En0  v104
 BYTE   W07
 BYTE   N02
 BYTE   W07
 BYTE   En0  v112
 BYTE   W07
 BYTE   N03  En0  v127
 BYTE   W08
 BYTE   N10  As0
 BYTE   W10
 BYTE   Gn0
 BYTE   W09
 BYTE   Fs0
 BYTE   W10
 BYTE   N02  En0  v120
 BYTE   W07
 BYTE   En0  v116
 BYTE   W08
// 039   ----------------------------------------
 BYTE   En0  v127
 BYTE   W07
 BYTE   En0  v112
 BYTE   W07
 BYTE   En0  v127
 BYTE   W07
 BYTE   N02
 BYTE   W08
 BYTE   En0  v124
 BYTE   W07
 BYTE   N02
 BYTE   W07
 BYTE   En0  v127
 BYTE   W08
 BYTE   N02
 BYTE   W07
 BYTE   N02
 BYTE   W07
 BYTE   N02
 BYTE   W07
 BYTE   N02
 BYTE   W15
 BYTE   N02
 BYTE   W07
 BYTE   N06
 BYTE   W02
// 040   ----------------------------------------
 BYTE   W06
 BYTE   N07  Gn0  v124
 BYTE   W07
 BYTE   N02  En0  v127
 BYTE   W07
 BYTE   En0  v108
 BYTE   W08
 BYTE   N07  En0  v112
 BYTE   W07
 BYTE   N06  Fs0  v127
 BYTE   W07
 BYTE   N02  En0  v120
 BYTE   W07
 BYTE   En0  v112
 BYTE   W07
 BYTE   N08  En0  v096
 BYTE   W08
 BYTE   N07  As0  v127
 BYTE   W07
 BYTE   N06  En0  v104
 BYTE   W07
 BYTE   An0  v127
 BYTE   W08
 BYTE   N07  En0  v092
 BYTE   W07
 BYTE   N06  Gn0  v120
 BYTE   W03
// 041   ----------------------------------------
 BYTE   W04
 BYTE   N02  En0  v096
 BYTE   W08
 BYTE   En0  v100
 BYTE   W07
 BYTE   N06  En0  v104
 BYTE   W07
 BYTE   Gn0  v116
 BYTE   W07
 BYTE   N03  En0  v112
 BYTE   W08
 BYTE   N02  En0  v092
 BYTE   W07
 BYTE   N07  En0  v100
 BYTE   W07
 BYTE   N06  Fs0  v127
 BYTE   W08
 BYTE   N02  En0  v108
 BYTE   W07
 BYTE   En0  v104
 BYTE   W07
 BYTE   N08  En0  v100
 BYTE   W07
 BYTE   N06  As0  v127
 BYTE   W08
 BYTE   En0  v104
 BYTE   W04
// 042   ----------------------------------------
 BYTE   W03
 BYTE   N07  An0  v127
 BYTE   W07
 BYTE   En0  v116
 BYTE   W08
 BYTE   N14  Gn0
 BYTE   W14
 BYTE   N02  En0  v100
 BYTE   W08
 BYTE   N06  En0  v120
 BYTE   W07
 BYTE   Gn0  v127
 BYTE   W07
 BYTE   N02  En0  v116
 BYTE   W07
 BYTE   En0  v100
 BYTE   W07
 BYTE   N07
 BYTE   W08
 BYTE   Fs0  v127
 BYTE   W07
 BYTE   N02  En0  v112
 BYTE   W07
 BYTE   En0  v092
 BYTE   W06
// 043   ----------------------------------------
 BYTE   W02
 BYTE   N07  En0  v116
 BYTE   W07
 BYTE   N06  As0  v127
 BYTE   W07
 BYTE   En0  v112
 BYTE   W08
 BYTE   N07  An0  v127
 BYTE   W07
 BYTE   N06  En0  v120
 BYTE   W07
 BYTE   Gn0  v124
 BYTE   W07
 BYTE   N03  En0  v100
 BYTE   W08
 BYTE   N02
 BYTE   W07
 BYTE   N06  En0  v108
 BYTE   W07
 BYTE   Gn0  v127
 BYTE   W07
 BYTE   N02  En0  v100
 BYTE   W08
 BYTE   En0  v104
 BYTE   W07
 BYTE   N07  En0  v120
 BYTE   W07
// 044   ----------------------------------------
 BYTE   Fs0  v127
 BYTE   W08
 BYTE   N02  En0  v108
 BYTE   W07
 BYTE   En0  v116
 BYTE   W07
 BYTE   N07  En0  v108
 BYTE   W08
 BYTE   As0  v127
 BYTE   W07
 BYTE   N06  En0  v108
 BYTE   W07
 BYTE   An0  v127
 BYTE   W08
 BYTE   En0  v120
 BYTE   W07
 BYTE   Gn0  v127
 BYTE   W07
 BYTE   N02  En0  v124
 BYTE   W07
 BYTE   Fs0  v096
 BYTE   W07
 BYTE   N03  Gn0
 BYTE   W08
 BYTE   N07  As0  v116
 BYTE   W07
 BYTE   N02  Gn0  v112
 BYTE   W01
// 045   ----------------------------------------
 BYTE   W06
 BYTE   Gn0  v104
 BYTE   W08
 BYTE   N06  Gn0  v100
 BYTE   W07
 BYTE   Cn1  v120
 BYTE   W07
 BYTE   N02  Gn0  v104
 BYTE   W08
 BYTE   N02
 BYTE   W07
 BYTE   N07  Gn0  v088
 BYTE   W07
 BYTE   N06  Cs1  v127
 BYTE   W07
 BYTE   Gn0  v100
 BYTE   W07
 BYTE   N07  Cn1  v120
 BYTE   W08
 BYTE   N06  Gn0  v104
 BYTE   W07
 BYTE   As0  v120
 BYTE   W07
 BYTE   N03  Gn0  v108
 BYTE   W08
 BYTE   N02  Gn0  v092
 BYTE   W02
// 046   ----------------------------------------
 BYTE   W05
 BYTE   N07  Gn0  v104
 BYTE   W07
 BYTE   N06  As0  v127
 BYTE   W08
 BYTE   N03  Gn0  v104
 BYTE   W07
 BYTE   N02  Gn0  v096
 BYTE   W07
 BYTE   N07  Gn0  v108
 BYTE   W08
 BYTE   N06  Cn1  v127
 BYTE   W07
 BYTE   N02  Gn0  v108
 BYTE   W07
 BYTE   Gn0  v096
 BYTE   W08
 BYTE   N07  Gn0  v112
 BYTE   W07
 BYTE   N06  Cs1  v127
 BYTE   W07
 BYTE   Gn0  v120
 BYTE   N01  Gs0  v052
 BYTE   W07
 BYTE   N06  Cn1  v120
 BYTE   W07
 BYTE   N07  Gn0  v116
 BYTE   W04
// 047   ----------------------------------------
 BYTE   W04
 BYTE   N15  As0  v127
 BYTE   W14
 BYTE   N02  Gn0  v124
 BYTE   W08
 BYTE   N07  Gn0  v112
 BYTE   W07
 BYTE   N06  As0  v127
 BYTE   W07
 BYTE   N03  Gn0  v108
 BYTE   W08
 BYTE   N02  Gn0  v104
 BYTE   W07
 BYTE   N06  Gn0  v112
 BYTE   W07
 BYTE   N07  Cn1  v127
 BYTE   W07
 BYTE   N03  Gn0  v124
 BYTE   W07
 BYTE   N02  Gn0  v120
 BYTE   W08
 BYTE   N06  Gn0  v108
 BYTE   W07
 BYTE   N07  Cs1  v127
 BYTE   W05
// 048   ----------------------------------------
 BYTE   W02
 BYTE   N06  Gn0  v108
 BYTE   W08
 BYTE   Cn1  v124
 BYTE   W07
 BYTE   Gn0  v112
 BYTE   W07
 BYTE   N07  As0  v127
 BYTE   W08
 BYTE   N02  Gn0  v104
 BYTE   W07
 BYTE   Gn0  v100
 BYTE   W07
 BYTE   N07  Gn0  v112
 BYTE   W07
 BYTE   N06  As0  v127
 BYTE   W08
 BYTE   N02  Gn0  v120
 BYTE   W07
 BYTE   Gn0  v096
 BYTE   W07
 BYTE   N06  Gn0  v108
 BYTE   W08
 BYTE   Cn1  v127
 BYTE   W07
 BYTE   N02  Gn0  v108
 BYTE   W06
// 049   ----------------------------------------
 BYTE   W01
 BYTE   Gn0  v124
 BYTE   W07
 BYTE   N07  Gn0  v120
 BYTE   W08
 BYTE   N06  Cs1  v127
 BYTE   W07
 BYTE   N07  Gn0  v104
 BYTE   W07
 BYTE   N06  Cn1  v124
 BYTE   W08
 BYTE   N07  Gn0  v104
 BYTE   W07
 BYTE   As0  v120
 BYTE   W07
 BYTE   N02  Fn0
 BYTE   W08
 BYTE   N07  Fn0  v096
 BYTE   W07
 BYTE   Fs0  v116
 BYTE   W07
 BYTE   Gn0  v120
 BYTE   W07
 BYTE   N03  En0  v104
 BYTE   W07
 BYTE   En0  v092
 BYTE   W08
// 050   ----------------------------------------
 BYTE   N07  En0  v108
 BYTE   W07
 BYTE   Fs0  v116
 BYTE   W07
 BYTE   N03  En0  v092
 BYTE   W08
 BYTE   N02  En0  v096
 BYTE   W07
 BYTE   N07
 BYTE   W07
 BYTE   N06  As0  v127
 BYTE   W08
 BYTE   En0  v104
 BYTE   W07
 BYTE   An0  v127
 BYTE   W07
 BYTE   N07  En0  v108
 BYTE   W07
 BYTE   N06  Gn0  v127
 BYTE   W08
 BYTE   N02  En0  v100
 BYTE   W07
 BYTE   En0  v104
 BYTE   W07
 BYTE   N06  En0  v100
 BYTE   W08
 BYTE   N07  Gn0  v116
 BYTE   W01
// 051   ----------------------------------------
 BYTE   W06
 BYTE   N02  En0  v112
 BYTE   W07
 BYTE   En0  v096
 BYTE   W07
 BYTE   N07  En0  v100
 BYTE   W08
 BYTE   N06  Fs0  v127
 BYTE   W07
 BYTE   N03  En0  v112
 BYTE   W07
 BYTE   N02  En0  v096
 BYTE   W08
 BYTE   N07  En0  v112
 BYTE   W07
 BYTE   N06  As0  v127
 BYTE   W07
 BYTE   En0  v116
 BYTE   W08
 BYTE   An0
 BYTE   W07
 BYTE   En0  v120
 BYTE   W07
 BYTE   N14  Gn0  v124
 BYTE   W10
// 052   ----------------------------------------
 BYTE   W04
 BYTE   N02  En0  v104
 BYTE   W08
 BYTE   N06  En0  v127
 BYTE   W07
 BYTE   Gn0
 BYTE   W07
 BYTE   N02  En0  v100
 BYTE   W08
 BYTE   En0  v116
 BYTE   W07
 BYTE   N06  En0  v108
 BYTE   W07
 BYTE   Fs0  v127
 BYTE   W08
 BYTE   N02  En0  v108
 BYTE   W07
 BYTE   En0  v104
 BYTE   W07
 BYTE   N08  En0  v112
 BYTE   W07
 BYTE   N07  As0  v127
 BYTE   W08
 BYTE   N06  En0  v116
 BYTE   W07
 BYTE   An0  v127
 BYTE   W04
// 053   ----------------------------------------
 BYTE   W03
 BYTE   En0  v112
 BYTE   W07
 BYTE   N07  Gn0  v124
 BYTE   W08
 BYTE   N02  En0  v112
 BYTE   W07
 BYTE   En0  v108
 BYTE   W07
 BYTE   N06
 BYTE   W08
 BYTE   N07  Gn0  v124
 BYTE   W07
 BYTE   N02  En0  v116
 BYTE   W07
 BYTE   N03  En0  v104
 BYTE   W08
 BYTE   N07  En0  v120
 BYTE   W07
 BYTE   Fs0  v127
 BYTE   W07
 BYTE   N02  En0  v112
 BYTE   W08
 BYTE   N02
 BYTE   W07
 BYTE   N06  En0  v120
 BYTE   W05
// 054   ----------------------------------------
 BYTE   W02
 BYTE   As0  v127
 BYTE   W07
 BYTE   N07  En0  v104
 BYTE   W07
 BYTE   An0  v127
 BYTE   W08
 BYTE   En0  v120
 BYTE   W07
 BYTE   Gn0  v127
 BYTE   W07
 BYTE   N02  En0  v116
 BYTE   W08
 BYTE   N03  En0  v108
 BYTE   W07
 BYTE   N03
 BYTE   W07
 BYTE   N02  En0  v116
 BYTE   W08
 BYTE   En0  v080
 BYTE   W07
 BYTE   N03  En0  v076
 BYTE   W07
 BYTE   N02  En0  v092
 BYTE   W07
 BYTE   N03  En0  v080
 BYTE   W07
// 055   ----------------------------------------
 BYTE   En0  v076
 BYTE   W08
 BYTE   N02  En0  v084
 BYTE   W07
 BYTE   En0  v080
 BYTE   W07
 BYTE   N02
 BYTE   W08
 BYTE   N03
 BYTE   W07
 BYTE   En0  v092
 BYTE   W07
 BYTE   N02
 BYTE   W08
 BYTE   N03  En0  v088
 BYTE   W07
 BYTE   N02  En0  v092
 BYTE   W07
 BYTE   N03  En0  v080
 BYTE   W08
 BYTE   N02  En0  v092
 BYTE   W07
 BYTE   N03
 BYTE   W07
 BYTE   N02  En0  v084
 BYTE   W08
// 056   ----------------------------------------
 BYTE   En0  v080
 BYTE   W07
 BYTE   En0  v068
 BYTE   W07
 BYTE   N03  En0  v084
 BYTE   W07
 BYTE   N03
 BYTE   W07
 BYTE   En0  v088
 BYTE   W08
 BYTE   En0  v092
 BYTE   W07
 BYTE   En0  v088
 BYTE   W07
 BYTE   N02  En0  v080
 BYTE   W08
 BYTE   En0  v084
 BYTE   W07
 BYTE   N02
 BYTE   W07
 BYTE   En0  v092
 BYTE   W08
 BYTE   N02
 BYTE   W07
 BYTE   N03  En0  v084
 BYTE   W07
 BYTE   N02  En0  v104
 BYTE   W02
// 057   ----------------------------------------
 BYTE   W05
 BYTE   N03  En0  v112
 BYTE   W07
 BYTE   En0  v092
 BYTE   W08
 BYTE   N02
 BYTE   W07
 BYTE   N02
 BYTE   W07
 BYTE   N02
 BYTE   W08
 BYTE   N02
 BYTE   W07
 BYTE   En0  v084
 BYTE   W07
 BYTE   En0  v092
 BYTE   W08
 BYTE   N03  En0  v088
 BYTE   W07
 BYTE   N02  En0  v092
 BYTE   W07
 BYTE   N03
 BYTE   W07
 BYTE   N03
 BYTE   W08
 BYTE   N02
 BYTE   W03
// 058   ----------------------------------------
 BYTE   W04
 BYTE   En0  v084
 BYTE   W07
 BYTE   N03  En0  v092
 BYTE   W08
 BYTE   N02
 BYTE   W07
 BYTE   N03  En0  v104
 BYTE   W07
 BYTE   N02  En0  v092
 BYTE   W07
 BYTE   N03  En0  v104
 BYTE   W08
 BYTE   En0  v084
 BYTE   W07
 BYTE   En0  v088
 BYTE   W07
 BYTE   N02  En0  v092
 BYTE   W08
 BYTE   En0  v112
 BYTE   W07
 BYTE   En0  v104
 BYTE   W07
 BYTE   En0  v112
 BYTE   W08
 BYTE   En0  v124
 BYTE   W04
// 059   ----------------------------------------
 BYTE   W03
 BYTE   N03  En0  v127
 BYTE   W07
 BYTE   N02
 BYTE   W07
 BYTE   N03
 BYTE   W15
 BYTE   N02
 BYTE   W07
 BYTE   N06
 BYTE   W07
 BYTE   N07  Gn0  v124
 BYTE   W08
 BYTE   N02  En0  v127
 BYTE   W07
 BYTE   En0  v108
 BYTE   W07
 BYTE   N07  En0  v112
 BYTE   W08
 BYTE   N06  Fs0  v127
 BYTE   W07
 BYTE   N02  En0  v120
 BYTE   W07
 BYTE   En0  v112
 BYTE   W06
// 060   ----------------------------------------
 BYTE   W01
 BYTE   N08  En0  v096
 BYTE   W08
 BYTE   N07  As0  v127
 BYTE   W07
 BYTE   N06  En0  v104
 BYTE   W07
 BYTE   An0  v127
 BYTE   W08
 BYTE   N07  En0  v092
 BYTE   W07
 BYTE   N06  Gn0  v120
 BYTE   W07
 BYTE   N02  En0  v096
 BYTE   W07
 BYTE   En0  v100
 BYTE   W08
 BYTE   N06  En0  v104
 BYTE   W07
 BYTE   Gn0  v116
 BYTE   W07
 BYTE   N03  En0  v112
 BYTE   W08
 BYTE   N02  En0  v092
 BYTE   W07
 BYTE   N07  En0  v100
 BYTE   W07
// 061   ----------------------------------------
 BYTE   N06  Fs0  v127
 BYTE   W08
 BYTE   N02  En0  v108
 BYTE   W07
 BYTE   En0  v104
 BYTE   W07
 BYTE   N08  En0  v100
 BYTE   W07
 BYTE   N06  As0  v127
 BYTE   W07
 BYTE   N07  En0  v104
 BYTE   W08
 BYTE   An0  v127
 BYTE   W07
 BYTE   N06  En0  v116
 BYTE   W07
 BYTE   N14  Gn0
 BYTE   W15
 BYTE   N02  En0  v100
 BYTE   W07
 BYTE   N06  En0  v120
 BYTE   W08
 BYTE   Gn0  v127
 BYTE   W07
 BYTE   N02  En0  v116
 BYTE   W01
// 062   ----------------------------------------
 BYTE   W06
 BYTE   En0  v100
 BYTE   W07
 BYTE   N07
 BYTE   W08
 BYTE   N06  Fs0  v127
 BYTE   W07
 BYTE   N02  En0  v112
 BYTE   W07
 BYTE   En0  v092
 BYTE   W07
 BYTE   N07  En0  v116
 BYTE   W08
 BYTE   N06  As0  v127
 BYTE   W07
 BYTE   En0  v112
 BYTE   W07
 BYTE   N07  An0  v127
 BYTE   W08
 BYTE   N06  En0  v120
 BYTE   W07
 BYTE   Gn0  v124
 BYTE   W07
 BYTE   N03  En0  v100
 BYTE   W08
 BYTE   N02
 BYTE   W02
// 063   ----------------------------------------
 BYTE   W05
 BYTE   N06  En0  v108
 BYTE   W07
 BYTE   Gn0  v127
 BYTE   W08
 BYTE   N02  En0  v100
 BYTE   W07
 BYTE   En0  v104
 BYTE   W07
 BYTE   N07  En0  v120
 BYTE   W07
 BYTE   Fs0  v127
 BYTE   W07
 BYTE   N02  En0  v108
 BYTE   W08
 BYTE   En0  v116
 BYTE   W07
 BYTE   N06  En0  v108
 BYTE   W07
 BYTE   N07  As0  v127
 BYTE   W08
 BYTE   N06  En0  v108
 BYTE   W07
 BYTE   An0  v127
 BYTE   W07
 BYTE   En0  v120
 BYTE   W04
// 064   ----------------------------------------
 BYTE   W04
 BYTE   Gn0  v127
 BYTE   W07
 BYTE   N02  En0  v124
 BYTE   W07
 BYTE   Fs0  v096
 BYTE   W07
 BYTE   N03  Gn0
 BYTE   W07
 BYTE   N07  As0  v116
 BYTE   W08
 BYTE   N02  Gn0  v112
 BYTE   W07
 BYTE   Gn0  v104
 BYTE   W07
 BYTE   N06  Gn0  v100
 BYTE   W08
 BYTE   Cn1  v120
 BYTE   W07
 BYTE   N02  Gn0  v104
 BYTE   W07
 BYTE   N02
 BYTE   W08
 BYTE   N07  Gn0  v088
 BYTE   W07
 BYTE   N06  Cs1  v127
 BYTE   W05
// 065   ----------------------------------------
 BYTE   W02
 BYTE   N07  Gn0  v100
 BYTE   W08
 BYTE   N06  Cn1  v120
 BYTE   W07
 BYTE   Gn0  v104
 BYTE   W07
 BYTE   As0  v120
 BYTE   W08
 BYTE   N02  Gn0  v108
 BYTE   W07
 BYTE   Gn0  v092
 BYTE   W07
 BYTE   N07  Gn0  v104
 BYTE   W07
 BYTE   N06  As0  v127
 BYTE   W07
 BYTE   N03  Gn0  v104
 BYTE   W08
 BYTE   N02  Gn0  v096
 BYTE   W07
 BYTE   N07  Gn0  v108
 BYTE   W07
 BYTE   N06  Cn1  v127
 BYTE   W08
 BYTE   N02  Gn0  v108
 BYTE   W06
// 066   ----------------------------------------
 BYTE   W01
 BYTE   Gn0  v096
 BYTE   W07
 BYTE   N07  Gn0  v112
 BYTE   W08
 BYTE   N06  Cs1  v127
 BYTE   W07
 BYTE   Gn0  v120
 BYTE   N01  Gs0  v052
 BYTE   W07
 BYTE   N06  Cn1  v120
 BYTE   W07
 BYTE   N07  Gn0  v116
 BYTE   W07
 BYTE   N16  As0  v127
 BYTE   W15
 BYTE   N02  Gn0  v124
 BYTE   W07
 BYTE   N07  Gn0  v112
 BYTE   W08
 BYTE   N06  As0  v127
 BYTE   W07
 BYTE   N03  Gn0  v108
 BYTE   W07
 BYTE   N02  Gn0  v104
 BYTE   W08
// 067   ----------------------------------------
 BYTE   N06  Gn0  v112
 BYTE   W07
 BYTE   N07  Cn1  v127
 BYTE   W07
 BYTE   N03  Gn0  v124
 BYTE   W07
 BYTE   N02  Gn0  v120
 BYTE   W08
 BYTE   N06  Gn0  v108
 BYTE   W07
 BYTE   N07  Cs1  v127
 BYTE   W07
 BYTE   N06  Gn0  v108
 BYTE   W08
 BYTE   Cn1  v124
 BYTE   W07
 BYTE   Gn0  v112
 BYTE   W07
 BYTE   N07  As0  v127
 BYTE   W07
 BYTE   N02  Gn0  v104
 BYTE   W08
 BYTE   Gn0  v100
 BYTE   W07
 BYTE   N07  Gn0  v112
 BYTE   W07
 BYTE   N06  As0  v127
 BYTE   W02
// 068   ----------------------------------------
 BYTE   W06
 BYTE   N02  Gn0  v120
 BYTE   W07
 BYTE   Gn0  v096
 BYTE   W07
 BYTE   N06  Gn0  v108
 BYTE   W08
 BYTE   N07  Cn1  v127
 BYTE   W07
 BYTE   N02  Gn0  v108
 BYTE   W07
 BYTE   Gn0  v124
 BYTE   W07
 BYTE   N07  Gn0  v120
 BYTE   W07
 BYTE   N06  Cs1  v127
 BYTE   W08
 BYTE   N07  Gn0  v104
 BYTE   W07
 BYTE   N06  Cn1  v124
 BYTE   W07
 BYTE   N07  Gn0  v104
 BYTE   W08
 BYTE   As0  v120
 BYTE   W07
 BYTE   N02  Fn0
 BYTE   W03
// 069   ----------------------------------------
 BYTE   W04
 BYTE   N07  Fn0  v096
 BYTE   W08
 BYTE   Fs0  v116
 BYTE   W07
 BYTE   Gn0  v120
 BYTE   W07
 BYTE   N03  En0  v104
 BYTE   W07
 BYTE   En0  v092
 BYTE   W08
 BYTE   N06  En0  v108
 BYTE   W07
 BYTE   N07  Fs0  v116
 BYTE   W07
 BYTE   N03  En0  v092
 BYTE   W08
 BYTE   N02  En0  v096
 BYTE   W07
 BYTE   N07
 BYTE   W07
 BYTE   N06  As0  v127
 BYTE   W07
 BYTE   En0  v104
 BYTE   W08
 BYTE   An0  v127
 BYTE   W04
// 070   ----------------------------------------
 BYTE   W03
 BYTE   N07  En0  v108
 BYTE   W07
 BYTE   N06  Gn0  v127
 BYTE   W08
 BYTE   N02  En0  v100
 BYTE   W07
 BYTE   En0  v104
 BYTE   W07
 BYTE   N06  En0  v100
 BYTE   W08
 BYTE   N07  Gn0  v116
 BYTE   W07
 BYTE   N02  En0  v112
 BYTE   W07
 BYTE   En0  v096
 BYTE   W07
 BYTE   N07  En0  v100
 BYTE   W07
 BYTE   N06  Fs0  v127
 BYTE   W08
 BYTE   N03  En0  v112
 BYTE   W07
 BYTE   N02  En0  v096
 BYTE   W07
 BYTE   N07  En0  v112
 BYTE   W06
// 071   ----------------------------------------
 BYTE   W02
 BYTE   N06  As0  v127
 BYTE   W07
 BYTE   En0  v116
 BYTE   W07
 BYTE   An0
 BYTE   W08
 BYTE   En0  v120
 BYTE   W07
 BYTE   N07  Gn0  v124
 BYTE   W07
 BYTE   N02  En0  v112
 BYTE   W07
 BYTE   En0  v104
 BYTE   W08
 BYTE   N06  En0  v127
 BYTE   W07
 BYTE   Gn0
 BYTE   W07
 BYTE   N02  En0  v100
 BYTE   W07
 BYTE   En0  v116
 BYTE   W08
 BYTE   N06  En0  v108
 BYTE   W07
 BYTE   Fs0  v127
 BYTE   W07
// 072   ----------------------------------------
 BYTE   N02  En0  v108
 BYTE   W08
 BYTE   En0  v104
 BYTE   W07
 BYTE   N08  En0  v112
 BYTE   W07
 BYTE   N07  As0  v127
 BYTE   W08
 BYTE   N06  En0  v116
 BYTE   W07
 BYTE   An0  v127
 BYTE   W07
 BYTE   En0  v112
 BYTE   W08
 BYTE   N07  Gn0  v124
 BYTE   W07
 BYTE   N02  En0  v112
 BYTE   W07
 BYTE   En0  v108
 BYTE   W07
 BYTE   N06
 BYTE   W07
 BYTE   N07  Gn0  v124
 BYTE   W08
 BYTE   N02  En0  v116
 BYTE   W07
 BYTE   En0  v104
 BYTE   W01
// 073   ----------------------------------------
 BYTE   W06
 BYTE   N07  En0  v120
 BYTE   W08
 BYTE   Fs0  v127
 BYTE   W07
 BYTE   N03  En0  v112
 BYTE   W07
 BYTE   N02
 BYTE   W08
 BYTE   N06  En0  v120
 BYTE   W07
 BYTE   As0  v127
 BYTE   W07
 BYTE   N07  En0  v104
 BYTE   W07
 BYTE   An0  v127
 BYTE   W07
 BYTE   En0  v120
 BYTE   W08
 BYTE   Gn0  v127
 BYTE   W07
 BYTE   N02  En0  v116
 BYTE   W07
 BYTE   N03  Dn0  v108
 BYTE   W08
 BYTE   Ds0
 BYTE   W02
// 074   ----------------------------------------
 BYTE   W05
 BYTE   N02  En0  v127
 BYTE   W15
 BYTE   En0  v100
 BYTE   W07
 BYTE   En0  v092
 BYTE   W07
 BYTE   N02
 BYTE   W08
 BYTE   En0  v088
 BYTE   W07
 BYTE   En0  v084
 BYTE   W07
 BYTE   En0  v100
 BYTE   W08
 BYTE   En0  v092
 BYTE   W07
 BYTE   En0  v100
 BYTE   W07
 BYTE   En0  v116
 BYTE   W07
 BYTE   N02
 BYTE   W07
 BYTE   N10  Dn0  v127
 BYTE   W04
// 075   ----------------------------------------
 BYTE   W06
 BYTE   N09  Fs0
 BYTE   W10
 BYTE   N08  Dn0
 BYTE   W10
 BYTE   N02  En0  v112
 BYTE   W07
 BYTE   En0  v100
 BYTE   W07
 BYTE   En0  v080
 BYTE   W08
 BYTE   En0  v116
 BYTE   W07
 BYTE   En0  v124
 BYTE   W07
 BYTE   En0  v100
 BYTE   W07
 BYTE   En0  v116
 BYTE   W07
 BYTE   En0  v104
 BYTE   W08
 BYTE   En0  v116
 BYTE   W07
 BYTE   En0  v100
 BYTE   W05
// 076   ----------------------------------------
 BYTE   W02
 BYTE   En0  v120
 BYTE   W08
 BYTE   En0  v127
 BYTE   W07
 BYTE   N10  Fs0
 BYTE   W10
 BYTE   An0
 BYTE   W09
 BYTE   N09  Fs0
 BYTE   W10
 BYTE   N03  En0  v120
 BYTE   W07
 BYTE   N02  En0  v100
 BYTE   W08
 BYTE   En0  v104
 BYTE   W07
 BYTE   En0  v100
 BYTE   W07
 BYTE   En0  v112
 BYTE   W08
 BYTE   N02
 BYTE   W07
 BYTE   En0  v120
 BYTE   W06
// 077   ----------------------------------------
 BYTE   W01
 BYTE   En0  v112
 BYTE   W07
 BYTE   En0  v104
 BYTE   W08
 BYTE   N02
 BYTE   W07
 BYTE   N03  En0  v112
 BYTE   W07
 BYTE   N02  En0  v127
 BYTE   W08
 BYTE   N10  As0
 BYTE   W09
 BYTE   Gn0
 BYTE   W10
 BYTE   N09  Fs0
 BYTE   W10
 BYTE   GoTo
  POIN2 Label_2_0118D816
 BYTE   FINE

//**************** Track 4 (Midi-Chn.3) ****************//

DOOMIntermissionfromDoomDolkar_004:
// 000   ----------------------------------------
 BYTE   KEYSH   DOOMIntermissionfromDoomDolkar_key+0
Label_3_0118E5F2:
 BYTE   VOICE   81
 BYTE   VOL   56*DOOMIntermissionfromDoomDolkar_mvl/mxv
 BYTE   PAN   c_v+50
 BYTE   W96
// 001   ----------------------------------------
 BYTE   W96
// 002   ----------------------------------------
 BYTE   W96
// 003   ----------------------------------------
 BYTE   W96
// 004   ----------------------------------------
 BYTE   W96
// 005   ----------------------------------------
 BYTE   W96
// 006   ----------------------------------------
 BYTE   W96
// 007   ----------------------------------------
 BYTE   W96
// 008   ----------------------------------------
 BYTE   W96
// 009   ----------------------------------------
 BYTE   W96
// 010   ----------------------------------------
 BYTE   W96
// 011   ----------------------------------------
 BYTE   W96
// 012   ----------------------------------------
 BYTE   W96
// 013   ----------------------------------------
 BYTE   W96
// 014   ----------------------------------------
 BYTE   W96
// 015   ----------------------------------------
 BYTE   W96
// 016   ----------------------------------------
 BYTE   W96
// 017   ----------------------------------------
 BYTE   W96
// 018   ----------------------------------------
 BYTE   W96
// 019   ----------------------------------------
 BYTE   W96
// 020   ----------------------------------------
 BYTE   W96
// 021   ----------------------------------------
 BYTE   W96
// 022   ----------------------------------------
 BYTE   W96
// 023   ----------------------------------------
 BYTE   W96
// 024   ----------------------------------------
 BYTE   W96
// 025   ----------------------------------------
 BYTE   W96
// 026   ----------------------------------------
 BYTE   W96
// 027   ----------------------------------------
 BYTE   W96
// 028   ----------------------------------------
 BYTE   W96
// 029   ----------------------------------------
 BYTE   W96
// 030   ----------------------------------------
 BYTE   W96
// 031   ----------------------------------------
 BYTE   W96
// 032   ----------------------------------------
 BYTE   W96
// 033   ----------------------------------------
 BYTE   W96
// 034   ----------------------------------------
 BYTE   W96
// 035   ----------------------------------------
 BYTE   W96
// 036   ----------------------------------------
 BYTE   W96
// 037   ----------------------------------------
 BYTE   W96
// 038   ----------------------------------------
 BYTE   W80
 BYTE   W01
 BYTE   N02  Gs2  v120
 BYTE   W07
 BYTE   Gs2  v116
 BYTE   W08
// 039   ----------------------------------------
 BYTE   Gs2  v127
 BYTE   W07
 BYTE   Gs2  v112
 BYTE   W07
 BYTE   Gs2  v127
 BYTE   W07
 BYTE   N02
 BYTE   W08
 BYTE   Gs2  v124
 BYTE   W07
 BYTE   N02
 BYTE   W07
 BYTE   Gs2  v127
 BYTE   W08
 BYTE   N02
 BYTE   W07
 BYTE   N02
 BYTE   W07
 BYTE   N02
 BYTE   W07
 BYTE   N02
 BYTE   W15
 BYTE   N02
 BYTE   W07
 BYTE   N06
 BYTE   W02
// 040   ----------------------------------------
 BYTE   W06
 BYTE   N07  Bn2  v124
 BYTE   W07
 BYTE   N02  Gs2  v127
 BYTE   W07
 BYTE   Gs2  v108
 BYTE   W08
 BYTE   N07  Gs2  v112
 BYTE   W07
 BYTE   N06  As2  v127
 BYTE   W07
 BYTE   N02  Gs2  v120
 BYTE   W07
 BYTE   Gs2  v112
 BYTE   W07
 BYTE   N08  Gs2  v096
 BYTE   W08
 BYTE   N07  Dn3  v127
 BYTE   W07
 BYTE   N06  Gs2  v104
 BYTE   W07
 BYTE   Cs3  v127
 BYTE   W08
 BYTE   N07  Gs2  v092
 BYTE   W07
 BYTE   N06  Bn2  v120
 BYTE   W03
// 041   ----------------------------------------
 BYTE   W04
 BYTE   N02  Gs2  v096
 BYTE   W08
 BYTE   Gs2  v100
 BYTE   W07
 BYTE   N06  Gs2  v104
 BYTE   W07
 BYTE   Bn2  v116
 BYTE   W07
 BYTE   N03  Gs2  v112
 BYTE   W08
 BYTE   N02  Gs2  v092
 BYTE   W07
 BYTE   N07  Gs2  v100
 BYTE   W07
 BYTE   N06  As2  v127
 BYTE   W08
 BYTE   N02  Gs2  v108
 BYTE   W07
 BYTE   Gs2  v104
 BYTE   W07
 BYTE   N08  Gs2  v100
 BYTE   W07
 BYTE   N06  Dn3  v127
 BYTE   W08
 BYTE   Gs2  v104
 BYTE   W04
// 042   ----------------------------------------
 BYTE   W03
 BYTE   N07  Cs3  v127
 BYTE   W07
 BYTE   Gs2  v116
 BYTE   W08
 BYTE   N14  Bn2
 BYTE   W14
 BYTE   N02  Gs2  v100
 BYTE   W08
 BYTE   N06  Gs2  v120
 BYTE   W07
 BYTE   Bn2  v127
 BYTE   W07
 BYTE   N02  Gs2  v116
 BYTE   W07
 BYTE   Gs2  v100
 BYTE   W07
 BYTE   N07
 BYTE   W08
 BYTE   As2  v127
 BYTE   W07
 BYTE   N02  Gs2  v112
 BYTE   W07
 BYTE   Gs2  v092
 BYTE   W06
// 043   ----------------------------------------
 BYTE   W02
 BYTE   N07  Gs2  v116
 BYTE   W07
 BYTE   N06  Dn3  v127
 BYTE   W07
 BYTE   Gs2  v112
 BYTE   W08
 BYTE   N07  Cs3  v127
 BYTE   W07
 BYTE   N06  Gs2  v120
 BYTE   W07
 BYTE   Bn2  v124
 BYTE   W07
 BYTE   N03  Gs2  v100
 BYTE   W08
 BYTE   N02
 BYTE   W07
 BYTE   N06  Gs2  v108
 BYTE   W07
 BYTE   Bn2  v127
 BYTE   W07
 BYTE   N02  Gs2  v100
 BYTE   W08
 BYTE   Gs2  v104
 BYTE   W07
 BYTE   N07  Gs2  v120
 BYTE   W07
// 044   ----------------------------------------
 BYTE   As2  v127
 BYTE   W08
 BYTE   N02  Gs2  v108
 BYTE   W07
 BYTE   Gs2  v116
 BYTE   W07
 BYTE   N07  Gs2  v108
 BYTE   W08
 BYTE   Dn3  v127
 BYTE   W07
 BYTE   N06  Gs2  v108
 BYTE   W07
 BYTE   Cs3  v127
 BYTE   W08
 BYTE   Gs2  v120
 BYTE   W07
 BYTE   Bn2  v127
 BYTE   W07
 BYTE   N02  Gs2  v124
 BYTE   W07
 BYTE   As2  v096
 BYTE   W07
 BYTE   N03  Bn2
 BYTE   W08
 BYTE   N07  Dn3  v116
 BYTE   W07
 BYTE   N02  Bn2  v112
 BYTE   W01
// 045   ----------------------------------------
 BYTE   W06
 BYTE   Bn2  v104
 BYTE   W08
 BYTE   N06  Bn2  v100
 BYTE   W07
 BYTE   En3  v120
 BYTE   W07
 BYTE   N02  Bn2  v104
 BYTE   W08
 BYTE   N02
 BYTE   W07
 BYTE   N07  Bn2  v088
 BYTE   W07
 BYTE   N06  Fn3  v127
 BYTE   W07
 BYTE   Bn2  v100
 BYTE   W07
 BYTE   N07  En3  v120
 BYTE   W08
 BYTE   N06  Bn2  v104
 BYTE   W07
 BYTE   Dn3  v120
 BYTE   W07
 BYTE   N03  Bn2  v108
 BYTE   W08
 BYTE   N02  Bn2  v092
 BYTE   W02
// 046   ----------------------------------------
 BYTE   W05
 BYTE   N07  Bn2  v104
 BYTE   W07
 BYTE   N06  Dn3  v127
 BYTE   W08
 BYTE   N03  Bn2  v104
 BYTE   W07
 BYTE   N02  Bn2  v096
 BYTE   W07
 BYTE   N07  Bn2  v108
 BYTE   W08
 BYTE   N06  En3  v127
 BYTE   W07
 BYTE   N02  Bn2  v108
 BYTE   W07
 BYTE   Bn2  v096
 BYTE   W08
 BYTE   N07  Bn2  v112
 BYTE   W07
 BYTE   N06  Fn3  v127
 BYTE   W07
 BYTE   Bn2  v120
 BYTE   N01  Cn3  v052
 BYTE   W07
 BYTE   N06  En3  v120
 BYTE   W07
 BYTE   N07  Bn2  v116
 BYTE   W04
// 047   ----------------------------------------
 BYTE   W04
 BYTE   N15  Dn3  v127
 BYTE   W14
 BYTE   N02  Bn2  v124
 BYTE   W08
 BYTE   N07  Bn2  v112
 BYTE   W07
 BYTE   N06  Dn3  v127
 BYTE   W07
 BYTE   N03  Bn2  v108
 BYTE   W08
 BYTE   N02  Bn2  v104
 BYTE   W07
 BYTE   N06  Bn2  v112
 BYTE   W07
 BYTE   N07  En3  v127
 BYTE   W07
 BYTE   N03  Bn2  v124
 BYTE   W07
 BYTE   N02  Bn2  v120
 BYTE   W08
 BYTE   N06  Bn2  v108
 BYTE   W07
 BYTE   N07  Fn3  v127
 BYTE   W05
// 048   ----------------------------------------
 BYTE   W02
 BYTE   N06  Bn2  v108
 BYTE   W08
 BYTE   En3  v124
 BYTE   W07
 BYTE   Bn2  v112
 BYTE   W07
 BYTE   N07  Dn3  v127
 BYTE   W08
 BYTE   N02  Bn2  v104
 BYTE   W07
 BYTE   Bn2  v100
 BYTE   W07
 BYTE   N07  Bn2  v112
 BYTE   W07
 BYTE   N06  Dn3  v127
 BYTE   W08
 BYTE   N02  Bn2  v120
 BYTE   W07
 BYTE   Bn2  v096
 BYTE   W07
 BYTE   N06  Bn2  v108
 BYTE   W08
 BYTE   En3  v127
 BYTE   W07
 BYTE   N02  Bn2  v108
 BYTE   W06
// 049   ----------------------------------------
 BYTE   W01
 BYTE   Bn2  v124
 BYTE   W07
 BYTE   N07  Bn2  v120
 BYTE   W08
 BYTE   N06  Fn3  v127
 BYTE   W07
 BYTE   N07  Bn2  v104
 BYTE   W07
 BYTE   N06  En3  v124
 BYTE   W08
 BYTE   N07  Bn2  v104
 BYTE   W07
 BYTE   Dn3  v120
 BYTE   W07
 BYTE   N02  An2
 BYTE   W08
 BYTE   N07  An2  v096
 BYTE   W07
 BYTE   As2  v116
 BYTE   W07
 BYTE   Bn2  v120
 BYTE   W07
 BYTE   N03  Gs2  v104
 BYTE   W07
 BYTE   Gs2  v092
 BYTE   W08
// 050   ----------------------------------------
 BYTE   N07  Gs2  v108
 BYTE   W07
 BYTE   As2  v116
 BYTE   W07
 BYTE   N03  Gs2  v092
 BYTE   W08
 BYTE   N02  Gs2  v096
 BYTE   W07
 BYTE   N07
 BYTE   W07
 BYTE   N06  Dn3  v127
 BYTE   W08
 BYTE   Gs2  v104
 BYTE   W07
 BYTE   Cs3  v127
 BYTE   W07
 BYTE   N07  Gs2  v108
 BYTE   W07
 BYTE   N06  Bn2  v127
 BYTE   W08
 BYTE   N02  Gs2  v100
 BYTE   W07
 BYTE   Gs2  v104
 BYTE   W07
 BYTE   N06  Gs2  v100
 BYTE   W08
 BYTE   N07  Bn2  v116
 BYTE   W01
// 051   ----------------------------------------
 BYTE   W06
 BYTE   N02  Gs2  v112
 BYTE   W07
 BYTE   Gs2  v096
 BYTE   W07
 BYTE   N07  Gs2  v100
 BYTE   W08
 BYTE   N06  As2  v127
 BYTE   W07
 BYTE   N03  Gs2  v112
 BYTE   W07
 BYTE   N02  Gs2  v096
 BYTE   W08
 BYTE   N07  Gs2  v112
 BYTE   W07
 BYTE   N06  Dn3  v127
 BYTE   W07
 BYTE   Gs2  v116
 BYTE   W08
 BYTE   Cs3
 BYTE   W07
 BYTE   Gs2  v120
 BYTE   W07
 BYTE   N14  Bn2  v124
 BYTE   W10
// 052   ----------------------------------------
 BYTE   W04
 BYTE   N02  Gs2  v104
 BYTE   W08
 BYTE   N06  Gs2  v127
 BYTE   W07
 BYTE   Bn2
 BYTE   W07
 BYTE   N02  Gs2  v100
 BYTE   W08
 BYTE   Gs2  v116
 BYTE   W07
 BYTE   N06  Gs2  v108
 BYTE   W07
 BYTE   As2  v127
 BYTE   W08
 BYTE   N02  Gs2  v108
 BYTE   W07
 BYTE   Gs2  v104
 BYTE   W07
 BYTE   N08  Gs2  v112
 BYTE   W07
 BYTE   N07  Dn3  v127
 BYTE   W08
 BYTE   N06  Gs2  v116
 BYTE   W07
 BYTE   Cs3  v127
 BYTE   W04
// 053   ----------------------------------------
 BYTE   W03
 BYTE   Gs2  v112
 BYTE   W07
 BYTE   N07  Bn2  v124
 BYTE   W08
 BYTE   N02  Gs2  v112
 BYTE   W07
 BYTE   Gs2  v108
 BYTE   W07
 BYTE   N06
 BYTE   W08
 BYTE   N07  Bn2  v124
 BYTE   W07
 BYTE   N02  Gs2  v116
 BYTE   W07
 BYTE   N03  Gs2  v104
 BYTE   W08
 BYTE   N07  Gs2  v120
 BYTE   W07
 BYTE   As2  v127
 BYTE   W07
 BYTE   N02  Gs2  v112
 BYTE   W08
 BYTE   N02
 BYTE   W07
 BYTE   N06  Gs2  v120
 BYTE   W05
// 054   ----------------------------------------
 BYTE   W02
 BYTE   Dn3  v127
 BYTE   W07
 BYTE   N07  Gs2  v104
 BYTE   W07
 BYTE   Cs3  v127
 BYTE   W08
 BYTE   Gs2  v120
 BYTE   W07
 BYTE   Bn2  v127
 BYTE   W07
 BYTE   N02  Gs2  v116
 BYTE   W08
 BYTE   N03  Gs2  v108
 BYTE   W07
 BYTE   N03
 BYTE   W07
 BYTE   N02  Gs2  v127
 BYTE   W36
// 055   ----------------------------------------
 BYTE   W96
// 056   ----------------------------------------
 BYTE   W96
// 057   ----------------------------------------
 BYTE   W96
// 058   ----------------------------------------
 BYTE   W96
// 059   ----------------------------------------
 BYTE   W32
 BYTE   N02
 BYTE   W07
 BYTE   N06
 BYTE   W07
 BYTE   N07  Bn2  v124
 BYTE   W08
 BYTE   N02  Gs2  v127
 BYTE   W07
 BYTE   Gs2  v108
 BYTE   W07
 BYTE   N07  Gs2  v112
 BYTE   W08
 BYTE   N06  As2  v127
 BYTE   W07
 BYTE   N02  Gs2  v120
 BYTE   W07
 BYTE   Gs2  v112
 BYTE   W06
// 060   ----------------------------------------
 BYTE   W01
 BYTE   N08  Gs2  v096
 BYTE   W08
 BYTE   N07  Dn3  v127
 BYTE   W07
 BYTE   N06  Gs2  v104
 BYTE   W07
 BYTE   Cs3  v127
 BYTE   W08
 BYTE   N07  Gs2  v092
 BYTE   W07
 BYTE   N06  Bn2  v120
 BYTE   W07
 BYTE   N02  Gs2  v096
 BYTE   W07
 BYTE   Gs2  v100
 BYTE   W08
 BYTE   N06  Gs2  v104
 BYTE   W07
 BYTE   Bn2  v116
 BYTE   W07
 BYTE   N03  Gs2  v112
 BYTE   W08
 BYTE   N02  Gs2  v092
 BYTE   W07
 BYTE   N07  Gs2  v100
 BYTE   W07
// 061   ----------------------------------------
 BYTE   N06  As2  v127
 BYTE   W08
 BYTE   N02  Gs2  v108
 BYTE   W07
 BYTE   Gs2  v104
 BYTE   W07
 BYTE   N08  Gs2  v100
 BYTE   W07
 BYTE   N06  Dn3  v127
 BYTE   W07
 BYTE   N07  Gs2  v104
 BYTE   W08
 BYTE   Cs3  v127
 BYTE   W07
 BYTE   N06  Gs2  v116
 BYTE   W07
 BYTE   N14  Bn2
 BYTE   W15
 BYTE   N02  Gs2  v100
 BYTE   W07
 BYTE   N06  Gs2  v120
 BYTE   W08
 BYTE   Bn2  v127
 BYTE   W07
 BYTE   N02  Gs2  v116
 BYTE   W01
// 062   ----------------------------------------
 BYTE   W06
 BYTE   Gs2  v100
 BYTE   W07
 BYTE   N07
 BYTE   W08
 BYTE   N06  As2  v127
 BYTE   W07
 BYTE   N02  Gs2  v112
 BYTE   W07
 BYTE   Gs2  v092
 BYTE   W07
 BYTE   N07  Gs2  v116
 BYTE   W08
 BYTE   N06  Dn3  v127
 BYTE   W07
 BYTE   Gs2  v112
 BYTE   W07
 BYTE   N07  Cs3  v127
 BYTE   W08
 BYTE   N06  Gs2  v120
 BYTE   W07
 BYTE   Bn2  v124
 BYTE   W07
 BYTE   N03  Gs2  v100
 BYTE   W08
 BYTE   N02
 BYTE   W02
// 063   ----------------------------------------
 BYTE   W05
 BYTE   N06  Gs2  v108
 BYTE   W07
 BYTE   Bn2  v127
 BYTE   W08
 BYTE   N02  Gs2  v100
 BYTE   W07
 BYTE   Gs2  v104
 BYTE   W07
 BYTE   N07  Gs2  v120
 BYTE   W07
 BYTE   As2  v127
 BYTE   W07
 BYTE   N02  Gs2  v108
 BYTE   W08
 BYTE   Gs2  v116
 BYTE   W07
 BYTE   N06  Gs2  v108
 BYTE   W07
 BYTE   N07  Dn3  v127
 BYTE   W08
 BYTE   N06  Gs2  v108
 BYTE   W07
 BYTE   Cs3  v127
 BYTE   W07
 BYTE   Gs2  v120
 BYTE   W04
// 064   ----------------------------------------
 BYTE   W04
 BYTE   Bn2  v127
 BYTE   W07
 BYTE   N02  Gs2  v124
 BYTE   W07
 BYTE   As2  v096
 BYTE   W07
 BYTE   N03  Bn2
 BYTE   W07
 BYTE   N07  Dn3  v116
 BYTE   W08
 BYTE   N02  Bn2  v112
 BYTE   W07
 BYTE   Bn2  v104
 BYTE   W07
 BYTE   N06  Bn2  v100
 BYTE   W08
 BYTE   En3  v120
 BYTE   W07
 BYTE   N02  Bn2  v104
 BYTE   W07
 BYTE   N02
 BYTE   W08
 BYTE   N07  Bn2  v088
 BYTE   W07
 BYTE   N06  Fn3  v127
 BYTE   W05
// 065   ----------------------------------------
 BYTE   W02
 BYTE   N07  Bn2  v100
 BYTE   W08
 BYTE   N06  En3  v120
 BYTE   W07
 BYTE   Bn2  v104
 BYTE   W07
 BYTE   Dn3  v120
 BYTE   W08
 BYTE   N02  Bn2  v108
 BYTE   W07
 BYTE   Bn2  v092
 BYTE   W07
 BYTE   N07  Bn2  v104
 BYTE   W07
 BYTE   N06  Dn3  v127
 BYTE   W07
 BYTE   N03  Bn2  v104
 BYTE   W08
 BYTE   N02  Bn2  v096
 BYTE   W07
 BYTE   N07  Bn2  v108
 BYTE   W07
 BYTE   N06  En3  v127
 BYTE   W08
 BYTE   N02  Bn2  v108
 BYTE   W06
// 066   ----------------------------------------
 BYTE   W01
 BYTE   Bn2  v096
 BYTE   W07
 BYTE   N07  Bn2  v112
 BYTE   W08
 BYTE   N06  Fn3  v127
 BYTE   W07
 BYTE   Bn2  v120
 BYTE   N01  Cn3  v052
 BYTE   W07
 BYTE   N06  En3  v120
 BYTE   W07
 BYTE   N07  Bn2  v116
 BYTE   W07
 BYTE   N16  Dn3  v127
 BYTE   W15
 BYTE   N02  Bn2  v124
 BYTE   W07
 BYTE   N07  Bn2  v112
 BYTE   W08
 BYTE   N06  Dn3  v127
 BYTE   W07
 BYTE   N03  Bn2  v108
 BYTE   W07
 BYTE   N02  Bn2  v104
 BYTE   W08
// 067   ----------------------------------------
 BYTE   N06  Bn2  v112
 BYTE   W07
 BYTE   N07  En3  v127
 BYTE   W07
 BYTE   N03  Bn2  v124
 BYTE   W07
 BYTE   N02  Bn2  v120
 BYTE   W08
 BYTE   N06  Bn2  v108
 BYTE   W07
 BYTE   N07  Fn3  v127
 BYTE   W07
 BYTE   N06  Bn2  v108
 BYTE   W08
 BYTE   En3  v124
 BYTE   W07
 BYTE   Bn2  v112
 BYTE   W07
 BYTE   N07  Dn3  v127
 BYTE   W07
 BYTE   N02  Bn2  v104
 BYTE   W08
 BYTE   Bn2  v100
 BYTE   W07
 BYTE   N07  Bn2  v112
 BYTE   W07
 BYTE   N06  Dn3  v127
 BYTE   W02
// 068   ----------------------------------------
 BYTE   W06
 BYTE   N02  Bn2  v120
 BYTE   W07
 BYTE   Bn2  v096
 BYTE   W07
 BYTE   N06  Bn2  v108
 BYTE   W08
 BYTE   N07  En3  v127
 BYTE   W07
 BYTE   N02  Bn2  v108
 BYTE   W07
 BYTE   Bn2  v124
 BYTE   W07
 BYTE   N07  Bn2  v120
 BYTE   W07
 BYTE   N06  Fn3  v127
 BYTE   W08
 BYTE   N07  Bn2  v104
 BYTE   W07
 BYTE   N06  En3  v124
 BYTE   W07
 BYTE   N07  Bn2  v104
 BYTE   W08
 BYTE   Dn3  v120
 BYTE   W07
 BYTE   N02  An2
 BYTE   W03
// 069   ----------------------------------------
 BYTE   W04
 BYTE   N07  An2  v096
 BYTE   W08
 BYTE   As2  v116
 BYTE   W07
 BYTE   Bn2  v120
 BYTE   W07
 BYTE   N03  Gs2  v104
 BYTE   W07
 BYTE   Gs2  v092
 BYTE   W08
 BYTE   N06  Gs2  v108
 BYTE   W07
 BYTE   N07  As2  v116
 BYTE   W07
 BYTE   N03  Gs2  v092
 BYTE   W08
 BYTE   N02  Gs2  v096
 BYTE   W07
 BYTE   N07
 BYTE   W07
 BYTE   N06  Dn3  v127
 BYTE   W07
 BYTE   Gs2  v104
 BYTE   W08
 BYTE   Cs3  v127
 BYTE   W04
// 070   ----------------------------------------
 BYTE   W03
 BYTE   N07  Gs2  v108
 BYTE   W07
 BYTE   N06  Bn2  v127
 BYTE   W08
 BYTE   N02  Gs2  v100
 BYTE   W07
 BYTE   Gs2  v104
 BYTE   W07
 BYTE   N06  Gs2  v100
 BYTE   W08
 BYTE   N07  Bn2  v116
 BYTE   W07
 BYTE   N02  Gs2  v112
 BYTE   W07
 BYTE   Gs2  v096
 BYTE   W07
 BYTE   N07  Gs2  v100
 BYTE   W07
 BYTE   N06  As2  v127
 BYTE   W08
 BYTE   N03  Gs2  v112
 BYTE   W07
 BYTE   N02  Gs2  v096
 BYTE   W07
 BYTE   N07  Gs2  v112
 BYTE   W06
// 071   ----------------------------------------
 BYTE   W02
 BYTE   N06  Dn3  v127
 BYTE   W07
 BYTE   Gs2  v116
 BYTE   W07
 BYTE   Cs3
 BYTE   W08
 BYTE   Gs2  v120
 BYTE   W07
 BYTE   N07  Bn2  v124
 BYTE   W07
 BYTE   N02  Gs2  v112
 BYTE   W07
 BYTE   Gs2  v104
 BYTE   W08
 BYTE   N06  Gs2  v127
 BYTE   W07
 BYTE   Bn2
 BYTE   W07
 BYTE   N02  Gs2  v100
 BYTE   W07
 BYTE   Gs2  v116
 BYTE   W08
 BYTE   N06  Gs2  v108
 BYTE   W07
 BYTE   As2  v127
 BYTE   W07
// 072   ----------------------------------------
 BYTE   N02  Gs2  v108
 BYTE   W08
 BYTE   Gs2  v104
 BYTE   W07
 BYTE   N08  Gs2  v112
 BYTE   W07
 BYTE   N07  Dn3  v127
 BYTE   W08
 BYTE   N06  Gs2  v116
 BYTE   W07
 BYTE   Cs3  v127
 BYTE   W07
 BYTE   Gs2  v112
 BYTE   W08
 BYTE   N07  Bn2  v124
 BYTE   W07
 BYTE   N02  Gs2  v112
 BYTE   W07
 BYTE   Gs2  v108
 BYTE   W07
 BYTE   N06
 BYTE   W07
 BYTE   N07  Bn2  v124
 BYTE   W08
 BYTE   N02  Gs2  v116
 BYTE   W07
 BYTE   Gs2  v104
 BYTE   W01
// 073   ----------------------------------------
 BYTE   W06
 BYTE   N07  Gs2  v120
 BYTE   W08
 BYTE   As2  v127
 BYTE   W07
 BYTE   N03  Gs2  v112
 BYTE   W07
 BYTE   N02
 BYTE   W08
 BYTE   N06  Gs2  v120
 BYTE   W07
 BYTE   Dn3  v127
 BYTE   W07
 BYTE   N07  Gs2  v104
 BYTE   W07
 BYTE   Cs3  v127
 BYTE   W07
 BYTE   Gs2  v120
 BYTE   W08
 BYTE   Bn2  v127
 BYTE   W07
 BYTE   N02  Gs2  v116
 BYTE   W07
 BYTE   N03  Fs2  v108
 BYTE   W08
 BYTE   Gn2
 BYTE   W02
// 074   ----------------------------------------
 BYTE   W05
 BYTE   N02  Gs2  v127
 BYTE   W90
 BYTE   W01
// 075   ----------------------------------------
 BYTE   W96
// 076   ----------------------------------------
 BYTE   W96
// 077   ----------------------------------------
 BYTE   W66
 BYTE   W01
 BYTE   GoTo
  POIN2 Label_3_0118E5F2
 BYTE   FINE

//**************** Track 5 (Midi-Chn.4) ****************//

DOOMIntermissionfromDoomDolkar_005:
// 000   ----------------------------------------
 BYTE   KEYSH   DOOMIntermissionfromDoomDolkar_key+0
Label_4_0118EBD6:
 BYTE   VOICE   81
 BYTE   VOL   56*DOOMIntermissionfromDoomDolkar_mvl/mxv
 BYTE   PAN   c_v-50
 BYTE   W96
// 001   ----------------------------------------
 BYTE   W96
// 002   ----------------------------------------
 BYTE   W96
// 003   ----------------------------------------
 BYTE   W96
// 004   ----------------------------------------
 BYTE   W96
// 005   ----------------------------------------
 BYTE   W96
// 006   ----------------------------------------
 BYTE   W96
// 007   ----------------------------------------
 BYTE   W96
// 008   ----------------------------------------
 BYTE   W96
// 009   ----------------------------------------
 BYTE   W96
// 010   ----------------------------------------
 BYTE   W96
// 011   ----------------------------------------
 BYTE   W96
// 012   ----------------------------------------
 BYTE   W96
// 013   ----------------------------------------
 BYTE   W96
// 014   ----------------------------------------
 BYTE   W96
// 015   ----------------------------------------
 BYTE   W96
// 016   ----------------------------------------
 BYTE   W96
// 017   ----------------------------------------
 BYTE   W96
// 018   ----------------------------------------
 BYTE   W96
// 019   ----------------------------------------
 BYTE   W96
// 020   ----------------------------------------
 BYTE   W96
// 021   ----------------------------------------
 BYTE   W96
// 022   ----------------------------------------
 BYTE   W96
// 023   ----------------------------------------
 BYTE   W96
// 024   ----------------------------------------
 BYTE   W96
// 025   ----------------------------------------
 BYTE   W96
// 026   ----------------------------------------
 BYTE   W96
// 027   ----------------------------------------
 BYTE   W96
// 028   ----------------------------------------
 BYTE   W96
// 029   ----------------------------------------
 BYTE   W96
// 030   ----------------------------------------
 BYTE   W96
// 031   ----------------------------------------
 BYTE   W96
// 032   ----------------------------------------
 BYTE   W96
// 033   ----------------------------------------
 BYTE   W96
// 034   ----------------------------------------
 BYTE   W96
// 035   ----------------------------------------
 BYTE   W96
// 036   ----------------------------------------
 BYTE   W96
// 037   ----------------------------------------
 BYTE   W96
// 038   ----------------------------------------
 BYTE   W96
// 039   ----------------------------------------
 BYTE   W96
// 040   ----------------------------------------
 BYTE   W96
// 041   ----------------------------------------
 BYTE   W96
// 042   ----------------------------------------
 BYTE   W96
// 043   ----------------------------------------
 BYTE   W96
// 044   ----------------------------------------
 BYTE   W96
// 045   ----------------------------------------
 BYTE   W96
// 046   ----------------------------------------
 BYTE   W96
// 047   ----------------------------------------
 BYTE   W96
// 048   ----------------------------------------
 BYTE   W96
// 049   ----------------------------------------
 BYTE   W96
// 050   ----------------------------------------
 BYTE   W96
// 051   ----------------------------------------
 BYTE   W96
// 052   ----------------------------------------
 BYTE   W96
// 053   ----------------------------------------
 BYTE   W96
// 054   ----------------------------------------
 BYTE   W96
// 055   ----------------------------------------
 BYTE   W96
// 056   ----------------------------------------
 BYTE   W96
// 057   ----------------------------------------
 BYTE   W96
// 058   ----------------------------------------
 BYTE   W96
// 059   ----------------------------------------
 BYTE   W32
 BYTE   N02  Bn2  v127
 BYTE   W07
 BYTE   N06
 BYTE   W07
 BYTE   N07  Dn3  v124
 BYTE   W08
 BYTE   N02  Bn2  v127
 BYTE   W07
 BYTE   Bn2  v108
 BYTE   W07
 BYTE   N07  Bn2  v112
 BYTE   W08
 BYTE   N06  Cs3  v127
 BYTE   W07
 BYTE   N02  Bn2  v120
 BYTE   W07
 BYTE   Bn2  v112
 BYTE   W06
// 060   ----------------------------------------
 BYTE   W01
 BYTE   N08  Bn2  v096
 BYTE   W08
 BYTE   N07  Fn3  v127
 BYTE   W07
 BYTE   N06  Bn2  v104
 BYTE   W07
 BYTE   En3  v127
 BYTE   W08
 BYTE   N07  Bn2  v092
 BYTE   W07
 BYTE   N06  Dn3  v120
 BYTE   W07
 BYTE   N02  Bn2  v096
 BYTE   W07
 BYTE   Bn2  v100
 BYTE   W08
 BYTE   N06  Bn2  v104
 BYTE   W07
 BYTE   Dn3  v116
 BYTE   W07
 BYTE   N03  Bn2  v112
 BYTE   W08
 BYTE   N02  Bn2  v092
 BYTE   W07
 BYTE   N07  Bn2  v100
 BYTE   W07
// 061   ----------------------------------------
 BYTE   N06  Cs3  v127
 BYTE   W08
 BYTE   N02  Bn2  v108
 BYTE   W07
 BYTE   Bn2  v104
 BYTE   W07
 BYTE   N08  Bn2  v100
 BYTE   W07
 BYTE   N06  Fn3  v127
 BYTE   W07
 BYTE   N07  Bn2  v104
 BYTE   W08
 BYTE   En3  v127
 BYTE   W07
 BYTE   N06  Bn2  v116
 BYTE   W07
 BYTE   N14  Dn3
 BYTE   W15
 BYTE   N02  Bn2  v100
 BYTE   W07
 BYTE   N06  Bn2  v120
 BYTE   W08
 BYTE   Dn3  v127
 BYTE   W07
 BYTE   N02  Bn2  v116
 BYTE   W01
// 062   ----------------------------------------
 BYTE   W06
 BYTE   Bn2  v100
 BYTE   W07
 BYTE   N07
 BYTE   W08
 BYTE   N06  Cs3  v127
 BYTE   W07
 BYTE   N02  Bn2  v112
 BYTE   W07
 BYTE   Bn2  v092
 BYTE   W07
 BYTE   N07  Bn2  v116
 BYTE   W08
 BYTE   N06  Fn3  v127
 BYTE   W07
 BYTE   Bn2  v112
 BYTE   W07
 BYTE   N07  En3  v127
 BYTE   W08
 BYTE   N06  Bn2  v120
 BYTE   W07
 BYTE   Dn3  v124
 BYTE   W07
 BYTE   N03  Bn2  v100
 BYTE   W08
 BYTE   N02
 BYTE   W02
// 063   ----------------------------------------
 BYTE   W05
 BYTE   N06  Bn2  v108
 BYTE   W07
 BYTE   Dn3  v127
 BYTE   W08
 BYTE   N02  Bn2  v100
 BYTE   W07
 BYTE   Bn2  v104
 BYTE   W07
 BYTE   N07  Bn2  v120
 BYTE   W07
 BYTE   Cs3  v127
 BYTE   W07
 BYTE   N02  Bn2  v108
 BYTE   W08
 BYTE   Bn2  v116
 BYTE   W07
 BYTE   N06  Bn2  v108
 BYTE   W07
 BYTE   N07  Fn3  v127
 BYTE   W08
 BYTE   N06  Bn2  v108
 BYTE   W07
 BYTE   En3  v127
 BYTE   W07
 BYTE   Bn2  v120
 BYTE   W04
// 064   ----------------------------------------
 BYTE   W04
 BYTE   Dn3  v127
 BYTE   W07
 BYTE   N02  Bn2  v124
 BYTE   W07
 BYTE   Cs3  v096
 BYTE   W07
 BYTE   N03  Dn3
 BYTE   W07
 BYTE   N07  Fn3  v116
 BYTE   W08
 BYTE   N02  Dn3  v112
 BYTE   W07
 BYTE   Dn3  v104
 BYTE   W07
 BYTE   N06  Dn3  v100
 BYTE   W08
 BYTE   Gn3  v120
 BYTE   W07
 BYTE   N02  Dn3  v104
 BYTE   W07
 BYTE   N02
 BYTE   W08
 BYTE   N07  Dn3  v088
 BYTE   W07
 BYTE   N06  Gs3  v127
 BYTE   W05
// 065   ----------------------------------------
 BYTE   W02
 BYTE   N07  Dn3  v100
 BYTE   W08
 BYTE   N06  Gn3  v120
 BYTE   W07
 BYTE   Dn3  v104
 BYTE   W07
 BYTE   Fn3  v120
 BYTE   W08
 BYTE   N02  Dn3  v108
 BYTE   W07
 BYTE   Dn3  v092
 BYTE   W07
 BYTE   N07  Dn3  v104
 BYTE   W07
 BYTE   N06  Fn3  v127
 BYTE   W07
 BYTE   N03  Dn3  v104
 BYTE   W08
 BYTE   N02  Dn3  v096
 BYTE   W07
 BYTE   N07  Dn3  v108
 BYTE   W07
 BYTE   N06  Gn3  v127
 BYTE   W08
 BYTE   N02  Dn3  v108
 BYTE   W06
// 066   ----------------------------------------
 BYTE   W01
 BYTE   Dn3  v096
 BYTE   W07
 BYTE   N07  Dn3  v112
 BYTE   W08
 BYTE   N06  Gs3  v127
 BYTE   W07
 BYTE   Dn3  v120
 BYTE   N01  Ds3  v052
 BYTE   W07
 BYTE   N06  Gn3  v120
 BYTE   W07
 BYTE   N07  Dn3  v116
 BYTE   W07
 BYTE   N16  Fn3  v127
 BYTE   W15
 BYTE   N02  Dn3  v124
 BYTE   W07
 BYTE   N07  Dn3  v112
 BYTE   W08
 BYTE   N06  Fn3  v127
 BYTE   W07
 BYTE   N03  Dn3  v108
 BYTE   W07
 BYTE   N02  Dn3  v104
 BYTE   W08
// 067   ----------------------------------------
 BYTE   N06  Dn3  v112
 BYTE   W07
 BYTE   N07  Gn3  v127
 BYTE   W07
 BYTE   N03  Dn3  v124
 BYTE   W07
 BYTE   N02  Dn3  v120
 BYTE   W08
 BYTE   N06  Dn3  v108
 BYTE   W07
 BYTE   N07  Gs3  v127
 BYTE   W07
 BYTE   N06  Dn3  v108
 BYTE   W08
 BYTE   Gn3  v124
 BYTE   W07
 BYTE   Dn3  v112
 BYTE   W07
 BYTE   N07  Fn3  v127
 BYTE   W07
 BYTE   N02  Dn3  v104
 BYTE   W08
 BYTE   Dn3  v100
 BYTE   W07
 BYTE   N07  Dn3  v112
 BYTE   W07
 BYTE   N06  Fn3  v127
 BYTE   W02
// 068   ----------------------------------------
 BYTE   W06
 BYTE   N02  Dn3  v120
 BYTE   W07
 BYTE   Dn3  v096
 BYTE   W07
 BYTE   N06  Dn3  v108
 BYTE   W08
 BYTE   N07  Gn3  v127
 BYTE   W07
 BYTE   N02  Dn3  v108
 BYTE   W07
 BYTE   Dn3  v124
 BYTE   W07
 BYTE   N07  Dn3  v120
 BYTE   W07
 BYTE   N06  Gs3  v127
 BYTE   W08
 BYTE   N07  Dn3  v104
 BYTE   W07
 BYTE   N06  Gn3  v124
 BYTE   W07
 BYTE   N07  Dn3  v104
 BYTE   W08
 BYTE   Fn3  v120
 BYTE   W07
 BYTE   N02  Cn3
 BYTE   W03
// 069   ----------------------------------------
 BYTE   W04
 BYTE   N07  Cn3  v096
 BYTE   W08
 BYTE   Cs3  v116
 BYTE   W07
 BYTE   Dn3  v120
 BYTE   W07
 BYTE   N03  Bn2  v104
 BYTE   W07
 BYTE   Bn2  v092
 BYTE   W08
 BYTE   N06  Bn2  v108
 BYTE   W07
 BYTE   N07  Cs3  v116
 BYTE   W07
 BYTE   N03  Bn2  v092
 BYTE   W08
 BYTE   N02  Bn2  v096
 BYTE   W07
 BYTE   N07
 BYTE   W07
 BYTE   N06  Fn3  v127
 BYTE   W07
 BYTE   Bn2  v104
 BYTE   W08
 BYTE   En3  v127
 BYTE   W04
// 070   ----------------------------------------
 BYTE   W03
 BYTE   N07  Bn2  v108
 BYTE   W07
 BYTE   N06  Dn3  v127
 BYTE   W08
 BYTE   N02  Bn2  v100
 BYTE   W07
 BYTE   Bn2  v104
 BYTE   W07
 BYTE   N06  Bn2  v100
 BYTE   W08
 BYTE   N07  Dn3  v116
 BYTE   W07
 BYTE   N02  Bn2  v112
 BYTE   W07
 BYTE   Bn2  v096
 BYTE   W07
 BYTE   N07  Bn2  v100
 BYTE   W07
 BYTE   N06  Cs3  v127
 BYTE   W08
 BYTE   N03  Bn2  v112
 BYTE   W07
 BYTE   N02  Bn2  v096
 BYTE   W07
 BYTE   N07  Bn2  v112
 BYTE   W06
// 071   ----------------------------------------
 BYTE   W02
 BYTE   N06  Fn3  v127
 BYTE   W07
 BYTE   Bn2  v116
 BYTE   W07
 BYTE   En3
 BYTE   W08
 BYTE   Bn2  v120
 BYTE   W07
 BYTE   N07  Dn3  v124
 BYTE   W07
 BYTE   N02  Bn2  v112
 BYTE   W07
 BYTE   Bn2  v104
 BYTE   W08
 BYTE   N06  Bn2  v127
 BYTE   W07
 BYTE   Dn3
 BYTE   W07
 BYTE   N02  Bn2  v100
 BYTE   W07
 BYTE   Bn2  v116
 BYTE   W08
 BYTE   N06  Bn2  v108
 BYTE   W07
 BYTE   Cs3  v127
 BYTE   W07
// 072   ----------------------------------------
 BYTE   N02  Bn2  v108
 BYTE   W08
 BYTE   Bn2  v104
 BYTE   W07
 BYTE   N08  Bn2  v112
 BYTE   W07
 BYTE   N07  Fn3  v127
 BYTE   W08
 BYTE   N06  Bn2  v116
 BYTE   W07
 BYTE   En3  v127
 BYTE   W07
 BYTE   Bn2  v112
 BYTE   W08
 BYTE   N07  Dn3  v124
 BYTE   W07
 BYTE   N02  Bn2  v112
 BYTE   W07
 BYTE   Bn2  v108
 BYTE   W07
 BYTE   N06
 BYTE   W07
 BYTE   N07  Dn3  v124
 BYTE   W08
 BYTE   N02  Bn2  v116
 BYTE   W07
 BYTE   Bn2  v104
 BYTE   W01
// 073   ----------------------------------------
 BYTE   W06
 BYTE   N07  Bn2  v120
 BYTE   W08
 BYTE   Cs3  v127
 BYTE   W07
 BYTE   N03  Bn2  v112
 BYTE   W07
 BYTE   N02
 BYTE   W08
 BYTE   N06  Bn2  v120
 BYTE   W07
 BYTE   Fn3  v127
 BYTE   W07
 BYTE   N07  Bn2  v104
 BYTE   W07
 BYTE   En3  v127
 BYTE   W07
 BYTE   Bn2  v120
 BYTE   W08
 BYTE   Dn3  v127
 BYTE   W07
 BYTE   N02  Bn2  v116
 BYTE   W07
 BYTE   N03  An2  v108
 BYTE   W08
 BYTE   As2
 BYTE   W02
// 074   ----------------------------------------
 BYTE   W05
 BYTE   N02  Bn2  v127
 BYTE   W90
 BYTE   W01
// 075   ----------------------------------------
 BYTE   W96
// 076   ----------------------------------------
 BYTE   W96
// 077   ----------------------------------------
 BYTE   W66
 BYTE   W01
 BYTE   GoTo
  POIN2 Label_4_0118EBD6
 BYTE   FINE

//**************** Track 6 (Midi-Chn.5) ****************//

DOOMIntermissionfromDoomDolkar_006:
// 000   ----------------------------------------
 BYTE   KEYSH   DOOMIntermissionfromDoomDolkar_key+0
Label_5_0118EEEA:
 BYTE   VOICE   127
 BYTE   VOL   62*DOOMIntermissionfromDoomDolkar_mvl/mxv
 BYTE   PAN   c_v+0
 BYTE   N02  Cn1  v104
 BYTE   N02  En1  v068
 BYTE   N02  Fn1  v092
 BYTE   N02  Fs1  v100
 BYTE   W06
 BYTE   Fs1  v112
 BYTE   W01
 BYTE   Cn1
 BYTE   N02  En1  v084
 BYTE   N02  Fn1  v088
 BYTE   W07
 BYTE   Cn1  v092
 BYTE   N02  En1  v068
 BYTE   N02  Fn1  v084
 BYTE   N02  Fs1  v112
 BYTE   W07
 BYTE   Cn1  v104
 BYTE   N02  En1  v076
 BYTE   N02  Fn1  v100
 BYTE   N02  Fs1  v112
 BYTE   W07
 BYTE   Cn1  v100
 BYTE   N02  En1  v080
 BYTE   N02  Fn1
 BYTE   N02  Fs1  v127
 BYTE   W08
 BYTE   Cn1  v112
 BYTE   N02  En1  v076
 BYTE   N02  Fn1  v080
 BYTE   N02  Fs1  v120
 BYTE   W07
 BYTE   N03  Cn1  v116
 BYTE   N03  En1  v076
 BYTE   N02  Fn1  v092
 BYTE   N02  Fs1  v116
 BYTE   W07
 BYTE   Cn1  v100
 BYTE   N02  En1  v084
 BYTE   N02  Fn1  v092
 BYTE   N02  Fs1  v104
 BYTE   W08
 BYTE   Cn1  v116
 BYTE   N02  En1  v080
 BYTE   N02  Fn1  v100
 BYTE   N02  Fs1  v108
 BYTE   W07
 BYTE   Cn1  v104
 BYTE   N02  En1  v100
 BYTE   N02  Fn1
 BYTE   N02  Fs1  v116
 BYTE   W07
 BYTE   Cn1
 BYTE   N02  En1  v104
 BYTE   N02  Fn1  v100
 BYTE   N02  Fs1  v127
 BYTE   W08
 BYTE   Cn1  v120
 BYTE   N02  En1  v100
 BYTE   N02  Fn1  v104
 BYTE   N02  Fs1  v127
 BYTE   W07
 BYTE   N03  Cn1
 BYTE   N03  En1
 BYTE   N03  Fn1
 BYTE   N02  Fs1
 BYTE   N02  An2  v120
 BYTE   W05
 BYTE   An2  v004
 BYTE   W04
// 001   ----------------------------------------
 BYTE   W20
 BYTE   Cn1  v124
 BYTE   N03  Cs2  v104
 BYTE   W01
 BYTE   N02  Bn2  v116
 BYTE   W06
 BYTE   N03  Cn1  v127
 BYTE   W07
 BYTE   N04  En1
 BYTE   N02  Bn2  v112
 BYTE   W08
 BYTE   Cn1
 BYTE   W07
 BYTE   Cn1  v116
 BYTE   N02  Bn2  v124
 BYTE   W07
 BYTE   N03  Cn1  v127
 BYTE   W08
 BYTE   N04  En1
 BYTE   N02  Bn2  v116
 BYTE   W07
 BYTE   Cn1
 BYTE   W07
 BYTE   Cn1  v127
 BYTE   N02  Bn2  v112
 BYTE   W07
 BYTE   N05  Cn1  v127
 BYTE   W08
 BYTE   N04  En1
 BYTE   N02  Bn2  v124
 BYTE   W03
// 002   ----------------------------------------
 BYTE   W04
 BYTE   Cn1  v120
 BYTE   W07
 BYTE   N03  Cn1  v116
 BYTE   N02  Bn2  v124
 BYTE   W15
 BYTE   N04  En1  v127
 BYTE   N02  Bn2
 BYTE   W07
 BYTE   Cn1  v120
 BYTE   W07
 BYTE   Cn1  v127
 BYTE   N03  An2  v100
 BYTE   W08
 BYTE   N04  Cn1  v116
 BYTE   W06
 BYTE   N02  Bn2  v127
 BYTE   W01
 BYTE   N04  En1
 BYTE   W07
 BYTE   N02  Cn1  v124
 BYTE   W07
 BYTE   Bn2
 BYTE   W01
 BYTE   Cn1  v120
 BYTE   W07
 BYTE   N04
 BYTE   W07
 BYTE   En1  v127
 BYTE   N02  Bn2  v112
 BYTE   W08
 BYTE   Cn1  v104
 BYTE   W04
// 003   ----------------------------------------
 BYTE   W03
 BYTE   N03  Cn1  v127
 BYTE   N02  Bn2  v124
 BYTE   W07
 BYTE   N03  Cn1  v116
 BYTE   W07
 BYTE   N04  En1  v127
 BYTE   N03  Bn2
 BYTE   W07
 BYTE   N02  Cn1
 BYTE   W08
 BYTE   N03
 BYTE   N02  Bn2  v116
 BYTE   W14
 BYTE   En1  v127
 BYTE   N02  Bn2
 BYTE   W08
 BYTE   N04  En1  v120
 BYTE   W07
 BYTE   N02  Cn1  v127
 BYTE   N03  Cs2  v112
 BYTE   W07
 BYTE   Cn1  v120
 BYTE   W07
 BYTE   N02  Bn2  v127
 BYTE   W01
 BYTE   N03  En1
 BYTE   W07
 BYTE   N02  Cn1  v112
 BYTE   W07
 BYTE   N03  Cn1  v127
 BYTE   N02  Bn2  v116
 BYTE   W06
// 004   ----------------------------------------
 BYTE   W01
 BYTE   N03  Cn1  v127
 BYTE   W07
 BYTE   Bn2  v124
 BYTE   W01
 BYTE   N02  En1  v127
 BYTE   W07
 BYTE   N04  En1  v116
 BYTE   W07
 BYTE   N02  Cn1  v127
 BYTE   W01
 BYTE   Bn2
 BYTE   W07
 BYTE   N03  Cn1
 BYTE   W07
 BYTE   N04  En1
 BYTE   N02  Bn2
 BYTE   W07
 BYTE   Cn1
 BYTE   W07
 BYTE   N02
 BYTE   N02  Bn2
 BYTE   W08
 BYTE   N03  Cn1
 BYTE   W07
 BYTE   En1
 BYTE   N03  Bn2
 BYTE   W07
 BYTE   N04  En1
 BYTE   W08
 BYTE   N02  Cn1
 BYTE   N03  Cs2  v088
 BYTE   W07
 BYTE   Cn1  v116
 BYTE   W07
// 005   ----------------------------------------
 BYTE   En1  v127
 BYTE   N02  Bn2  v116
 BYTE   W08
 BYTE   Cn1  v127
 BYTE   W07
 BYTE   Cn1  v124
 BYTE   N02  Bn2  v120
 BYTE   W07
 BYTE   N03  Cn1  v127
 BYTE   W07
 BYTE   En1
 BYTE   W01
 BYTE   N02  Bn2
 BYTE   W06
 BYTE   Cn1  v124
 BYTE   W08
 BYTE   N03  Cn1  v127
 BYTE   N02  Bn2
 BYTE   W07
 BYTE   Cn1
 BYTE   W07
 BYTE   N03  En1
 BYTE   N03  Bn2  v120
 BYTE   W08
 BYTE   N02  Cn1  v124
 BYTE   W07
 BYTE   Cn1  v116
 BYTE   N02  Bn2  v127
 BYTE   W07
 BYTE   N03  Cn1
 BYTE   W08
 BYTE   En1
 BYTE   N02  Bn2
 BYTE   W07
 BYTE   Cn1  v124
 BYTE   W01
// 006   ----------------------------------------
 BYTE   W06
 BYTE   N02
 BYTE   N01  Gn2  v040
 BYTE   N02  An2  v080
 BYTE   W07
 BYTE   N03  Cn1  v127
 BYTE   W08
 BYTE   N02  En1
 BYTE   N02  Ds2  v104
 BYTE   W07
 BYTE   N04  En1  v127
 BYTE   W07
 BYTE   N02  Cn1  v124
 BYTE   N02  Ds2  v127
 BYTE   W07
 BYTE   N03  Cn1  v116
 BYTE   W08
 BYTE   En1  v127
 BYTE   N02  Ds2  v120
 BYTE   W07
 BYTE   Cn1  v127
 BYTE   W07
 BYTE   Cn1  v124
 BYTE   N02  Ds2  v127
 BYTE   W08
 BYTE   N03  Cn1
 BYTE   W07
 BYTE   En1
 BYTE   N02  Ds2  v112
 BYTE   W07
 BYTE   Cn1  v104
 BYTE   W08
 BYTE   Cn1  v127
 BYTE   N02  Ds2  v124
 BYTE   W02
// 007   ----------------------------------------
 BYTE   W05
 BYTE   N03  Cn1  v116
 BYTE   W07
 BYTE   En1  v127
 BYTE   N02  Ds2
 BYTE   W08
 BYTE   Cn1  v124
 BYTE   W07
 BYTE   Cn1  v127
 BYTE   N02  An2  v092
 BYTE   W07
 BYTE   N03  Cn1  v120
 BYTE   W07
 BYTE   N04  En1  v127
 BYTE   N02  Ds2
 BYTE   W07
 BYTE   Cn1  v116
 BYTE   W08
 BYTE   Cn1  v124
 BYTE   N02  Ds2
 BYTE   W07
 BYTE   N03  Cn1  v127
 BYTE   W07
 BYTE   En1
 BYTE   W01
 BYTE   N02  Ds2
 BYTE   W07
 BYTE   Cn1  v116
 BYTE   W07
 BYTE   Cn1  v127
 BYTE   N02  Ds2
 BYTE   W07
 BYTE   N03  Cn1  v124
 BYTE   W04
// 008   ----------------------------------------
 BYTE   W04
 BYTE   En1  v127
 BYTE   N02  Ds2
 BYTE   W07
 BYTE   Cn1  v116
 BYTE   W07
 BYTE   N03  Cn1  v127
 BYTE   N02  Ds2
 BYTE   W07
 BYTE   N03  En1
 BYTE   W07
 BYTE   N04
 BYTE   N02  Ds2
 BYTE   W08
 BYTE   Cn1  v100
 BYTE   W07
 BYTE   Cn1  v127
 BYTE   N02  An2  v100
 BYTE   W07
 BYTE   N03  Cn1  v127
 BYTE   W08
 BYTE   En1
 BYTE   N02  Ds2
 BYTE   W07
 BYTE   Cn1  v116
 BYTE   W07
 BYTE   Cn1  v127
 BYTE   N02  Ds2
 BYTE   W08
 BYTE   N03  Cn1
 BYTE   W07
 BYTE   En1
 BYTE   N02  Ds2  v116
 BYTE   W05
// 009   ----------------------------------------
 BYTE   W02
 BYTE   Cn1  v124
 BYTE   W07
 BYTE   Ds2  v127
 BYTE   W01
 BYTE   Cn1
 BYTE   W07
 BYTE   Cn1  v116
 BYTE   W07
 BYTE   N03  En1  v127
 BYTE   N02  Ds2
 BYTE   W08
 BYTE   Cn1
 BYTE   W07
 BYTE   N03  Cn1  v116
 BYTE   N02  Ds2  v127
 BYTE   W07
 BYTE   En1
 BYTE   W07
 BYTE   N04
 BYTE   N02  Ds2  v124
 BYTE   W07
 BYTE   Cn1  v100
 BYTE   W08
 BYTE   N03  Cn1  v127
 BYTE   N03  An2  v100
 BYTE   W07
 BYTE   Cn1  v127
 BYTE   W07
 BYTE   En1
 BYTE   N02  Ds2  v124
 BYTE   W08
 BYTE   Cn1  v127
 BYTE   W06
// 010   ----------------------------------------
 BYTE   W01
 BYTE   N02
 BYTE   N02  Ds2
 BYTE   W07
 BYTE   N03  Cn1
 BYTE   W08
 BYTE   En1
 BYTE   N02  Ds2  v120
 BYTE   W07
 BYTE   Cn1  v116
 BYTE   W07
 BYTE   Cn1  v127
 BYTE   N02  Ds2
 BYTE   W07
 BYTE   N03  Cn1  v124
 BYTE   W07
 BYTE   N04  En1  v127
 BYTE   W01
 BYTE   N02  Ds2  v124
 BYTE   W07
 BYTE   Cn1  v120
 BYTE   W07
 BYTE   Cn1  v127
 BYTE   N02  Ds2
 BYTE   W07
 BYTE   N03  Cn1
 BYTE   W08
 BYTE   En1
 BYTE   N02  Ds2
 BYTE   W07
 BYTE   Cn1  v124
 BYTE   W07
 BYTE   Cn1  v127
 BYTE   N03  Cs2  v092
 BYTE   W08
// 011   ----------------------------------------
 BYTE   Cn1  v124
 BYTE   W07
 BYTE   En1  v127
 BYTE   N02  Bn2  v124
 BYTE   W07
 BYTE   Cn1  v092
 BYTE   W07
 BYTE   Cn1  v104
 BYTE   W01
 BYTE   Bn2  v116
 BYTE   W07
 BYTE   Cn1  v104
 BYTE   W07
 BYTE   N03  En1  v127
 BYTE   N02  Bn2
 BYTE   W07
 BYTE   Cn1  v116
 BYTE   W08
 BYTE   Cn1  v124
 BYTE   N02  Bn2  v112
 BYTE   W07
 BYTE   N03  Cn1  v116
 BYTE   W07
 BYTE   En1  v127
 BYTE   N02  Bn2  v120
 BYTE   W07
 BYTE   Cn1  v116
 BYTE   W08
 BYTE   Cn1  v112
 BYTE   N02  Bn2  v124
 BYTE   W07
 BYTE   N03  Cn1
 BYTE   W07
 BYTE   N02  En1  v127
 BYTE   N02  Bn2  v116
 BYTE   W02
// 012   ----------------------------------------
 BYTE   W06
 BYTE   N03  En1  v127
 BYTE   W07
 BYTE   N02  Cn1  v124
 BYTE   N03  Cs2  v092
 BYTE   W07
 BYTE   Cn1  v127
 BYTE   W07
 BYTE   N02  Bn2  v116
 BYTE   W01
 BYTE   N03  En1  v127
 BYTE   W07
 BYTE   N02  Cn1  v124
 BYTE   W06
 BYTE   N03  Bn2  v112
 BYTE   W01
 BYTE   N02  Cn1  v116
 BYTE   W07
 BYTE   N03  Cn1  v127
 BYTE   W07
 BYTE   N02  En1
 BYTE   N02  Bn2  v116
 BYTE   W08
 BYTE   N04  En1  v127
 BYTE   W07
 BYTE   N02  Cn1  v104
 BYTE   N02  Bn2  v112
 BYTE   W07
 BYTE   N03  Cn1  v127
 BYTE   W08
 BYTE   En1
 BYTE   N02  Bn2
 BYTE   W07
 BYTE   Cn1
 BYTE   W03
// 013   ----------------------------------------
 BYTE   W04
 BYTE   Cn1  v116
 BYTE   N02  Bn2  v124
 BYTE   W08
 BYTE   N03  Cn1
 BYTE   W07
 BYTE   En1  v127
 BYTE   N02  Bn2
 BYTE   W07
 BYTE   Cn1  v116
 BYTE   W07
 BYTE   N03  Cn1  v120
 BYTE   N03  Cs2  v084
 BYTE   W08
 BYTE   Cn1  v120
 BYTE   W07
 BYTE   En1  v127
 BYTE   N02  Bn2  v112
 BYTE   W07
 BYTE   Cn1  v116
 BYTE   W07
 BYTE   Bn2
 BYTE   W01
 BYTE   Cn1  v112
 BYTE   W07
 BYTE   N03  Cn1  v120
 BYTE   W06
 BYTE   N02  Bn2  v124
 BYTE   W01
 BYTE   N03  En1  v127
 BYTE   W07
 BYTE   N02  Cn1  v104
 BYTE   W07
 BYTE   Bn2  v112
 BYTE   W01
 BYTE   Cn1  v116
 BYTE   W04
// 014   ----------------------------------------
 BYTE   W03
 BYTE   N03
 BYTE   W07
 BYTE   En1  v127
 BYTE   N02  Bn2  v104
 BYTE   W08
 BYTE   Cn1  v127
 BYTE   W06
 BYTE   Bn2  v112
 BYTE   W01
 BYTE   Cn1  v120
 BYTE   W07
 BYTE   N03  Cn1  v124
 BYTE   W08
 BYTE   N02  En1  v127
 BYTE   N02  Bn2
 BYTE   W07
 BYTE   Cn1
 BYTE   W07
 BYTE   Cn1  v116
 BYTE   N04  Cs2  v080
 BYTE   W07
 BYTE   N03  Cn1  v112
 BYTE   W07
 BYTE   En1  v127
 BYTE   W01
 BYTE   N02  Bn2  v116
 BYTE   W07
 BYTE   Cn1  v120
 BYTE   W07
 BYTE   Cn1  v124
 BYTE   N02  Bn2  v116
 BYTE   W07
 BYTE   N03  Cn1
 BYTE   W06
// 015   ----------------------------------------
 BYTE   W01
 BYTE   N02  Bn2  v124
 BYTE   W01
 BYTE   N03  En1  v127
 BYTE   W07
 BYTE   N02  Cn1  v116
 BYTE   W07
 BYTE   Cn1  v112
 BYTE   N02  Bn2  v120
 BYTE   W08
 BYTE   N03  Cn1  v124
 BYTE   W07
 BYTE   En1  v127
 BYTE   N02  Bn2  v124
 BYTE   W07
 BYTE   Cn1  v116
 BYTE   W07
 BYTE   N03  Cn1  v124
 BYTE   N02  Bn2  v116
 BYTE   W08
 BYTE   Cn1
 BYTE   W07
 BYTE   N03  En1  v127
 BYTE   N02  Bn2  v116
 BYTE   W07
 BYTE   Cn1  v127
 BYTE   W07
 BYTE   N03
 BYTE   N04  Fn1
 BYTE   N04  Gn1
 BYTE   N02  An2  v080
 BYTE   W01
 BYTE   N01  Bn2  v127
 BYTE   W14
 BYTE   N02  En1  v116
 BYTE   N06  Gs1  v127
 BYTE   W07
// 016   ----------------------------------------
 BYTE   N03  Cn1
 BYTE   W15
 BYTE   Cn1  v124
 BYTE   W07
 BYTE   En1  v127
 BYTE   N04  Gs1
 BYTE   W22
 BYTE   N03  Cn1  v116
 BYTE   W08
 BYTE   En1
 BYTE   N02  Gs1  v127
 BYTE   W14
 BYTE   Cn1  v088
 BYTE   N02  Dn2  v104
 BYTE   W01
 BYTE   Cn2  v112
 BYTE   W06
 BYTE   N03  Cn1  v092
 BYTE   W03
 BYTE   N02  Bn1  v112
 BYTE   N03  Cn2  v092
 BYTE   W04
 BYTE   Gs1  v127
 BYTE   W05
 BYTE   N02  An1  v116
 BYTE   N02  Bn1  v124
 BYTE   W10
 BYTE   N03  Cn1
 BYTE   N02  Fn1  v092
 BYTE   N02  Gn1  v127
 BYTE   N02  An1
 BYTE   W01
// 017   ----------------------------------------
 BYTE   W14
 BYTE   N03  En1  v112
 BYTE   N02  Gs1  v127
 BYTE   W07
 BYTE   N03  Cn1
 BYTE   W15
 BYTE   Cn1  v104
 BYTE   W07
 BYTE   En1  v127
 BYTE   N03  Gs1
 BYTE   W21
 BYTE   Cn1  v124
 BYTE   W08
 BYTE   N02  En1  v127
 BYTE   N02  Gs1
 BYTE   W14
 BYTE   Cn1
 BYTE   W01
 BYTE   Dn2  v116
 BYTE   W07
 BYTE   N03  Cn1  v120
 BYTE   W02
// 018   ----------------------------------------
 BYTE   Bn1  v112
 BYTE   N03  Cn2  v116
 BYTE   W05
 BYTE   N02  Gs1  v127
 BYTE   W05
 BYTE   An1
 BYTE   N03  Bn1  v116
 BYTE   W02
 BYTE   N02  Cn1  v104
 BYTE   W08
 BYTE   N04  Cn1  v116
 BYTE   N02  Gn1  v120
 BYTE   N02  An1  v127
 BYTE   W14
 BYTE   En1  v116
 BYTE   N03  Gs1  v127
 BYTE   W08
 BYTE   Cn1  v120
 BYTE   W14
 BYTE   Cn1  v127
 BYTE   W08
 BYTE   N02  En1
 BYTE   N02  Gs1
 BYTE   W21
 BYTE   N03  Cn1
 BYTE   W07
 BYTE   En1
 BYTE   N02  Gs1
 BYTE   W04
// 019   ----------------------------------------
 BYTE   W11
 BYTE   N03  Cn1  v120
 BYTE   N02  Cn2  v112
 BYTE   N02  Dn2  v100
 BYTE   W03
 BYTE   Cn2  v124
 BYTE   N02  Dn2  v116
 BYTE   W04
 BYTE   N03  Cn1  v112
 BYTE   W03
 BYTE   N02  Bn1
 BYTE   N02  Cn2  v124
 BYTE   W05
 BYTE   Gs1  v127
 BYTE   W03
 BYTE   N01  An1  v100
 BYTE   N02  Bn1  v127
 BYTE   W03
 BYTE   Gn1
 BYTE   N02  An1  v100
 BYTE   N02  Bn1  v127
 BYTE   W01
 BYTE   Cn1  v112
 BYTE   W07
 BYTE   N03  Cn1  v127
 BYTE   N01  Fn1
 BYTE   N02  Gn1
 BYTE   W15
 BYTE   En1  v116
 BYTE   N02  Gs1  v127
 BYTE   W07
 BYTE   N03  Cn1
 BYTE   W14
 BYTE   N03
 BYTE   W08
 BYTE   N01  Cn1  v044
 BYTE   N02  En1  v124
 BYTE   N02  Gs1
 BYTE   W12
// 020   ----------------------------------------
 BYTE   W02
 BYTE   Cn1  v116
 BYTE   N02  En1  v080
 BYTE   N02  Fn1  v100
 BYTE   N02  Fs1  v108
 BYTE   W08
 BYTE   Cn1  v104
 BYTE   N02  En1  v100
 BYTE   N02  Fn1
 BYTE   N02  Fs1  v116
 BYTE   W07
 BYTE   Cn1
 BYTE   N02  En1  v104
 BYTE   N02  Fn1  v100
 BYTE   N02  Fs1  v127
 BYTE   W07
 BYTE   Cn1  v120
 BYTE   N02  En1  v100
 BYTE   N02  Fn1  v104
 BYTE   N02  Fs1  v127
 BYTE   W08
 BYTE   N03  Cn1
 BYTE   N03  En1
 BYTE   N03  Fn1
 BYTE   N02  Fs1
 BYTE   N02  An2  v120
 BYTE   W04
 BYTE   An2  v004
 BYTE   W24
 BYTE   W01
 BYTE   Cn1  v124
 BYTE   N03  Cs2  v104
 BYTE   W02
 BYTE   N04  As1  v112
 BYTE   W05
 BYTE   N03  Cn1  v127
 BYTE   W07
 BYTE   N04  En1
 BYTE   W01
 BYTE   N03  As1  v100
 BYTE   W07
 BYTE   N02  Cn1  v112
 BYTE   W07
 BYTE   Cn1  v116
 BYTE   N05  As1  v084
 BYTE   W06
// 021   ----------------------------------------
 BYTE   W01
 BYTE   N03  Cn1  v127
 BYTE   W07
 BYTE   N04  En1
 BYTE   N03  As1  v100
 BYTE   W08
 BYTE   N02  Cn1  v116
 BYTE   W07
 BYTE   N03  Cn1  v127
 BYTE   N04  As1  v092
 BYTE   W07
 BYTE   Cn1  v127
 BYTE   W07
 BYTE   N03  As1  v104
 BYTE   W01
 BYTE   N04  En1  v127
 BYTE   W07
 BYTE   N02  Cn1  v120
 BYTE   W07
 BYTE   Cn1  v116
 BYTE   N02  As1
 BYTE   W15
 BYTE   N04  En1  v127
 BYTE   N02  As1  v104
 BYTE   W07
 BYTE   Cn1  v120
 BYTE   W07
 BYTE   Cn1  v127
 BYTE   N03  An2  v100
 BYTE   W07
 BYTE   N04  Cn1  v116
 BYTE   W07
 BYTE   N02  As1  v096
 BYTE   W01
// 022   ----------------------------------------
 BYTE   N04  En1  v127
 BYTE   W07
 BYTE   N02  Cn1  v124
 BYTE   W07
 BYTE   Cn1  v120
 BYTE   N02  As1  v076
 BYTE   W08
 BYTE   N04  Cn1  v120
 BYTE   W07
 BYTE   En1  v127
 BYTE   N02  As1  v084
 BYTE   W07
 BYTE   Cn1  v104
 BYTE   W08
 BYTE   N03  Cn1  v127
 BYTE   N02  As1  v084
 BYTE   W07
 BYTE   N03  Cn1  v116
 BYTE   W07
 BYTE   N04  En1  v127
 BYTE   N02  As1  v100
 BYTE   W07
 BYTE   Cn1  v127
 BYTE   W07
 BYTE   As1  v096
 BYTE   W01
 BYTE   Cn1  v127
 BYTE   W14
 BYTE   En1
 BYTE   W01
 BYTE   As1  v112
 BYTE   W07
 BYTE   N04  En1  v120
 BYTE   W01
// 023   ----------------------------------------
 BYTE   W06
 BYTE   N02  Cn1  v127
 BYTE   N03  Cs2  v112
 BYTE   W07
 BYTE   Cn1  v120
 BYTE   W07
 BYTE   En1  v127
 BYTE   N02  As1  v100
 BYTE   W08
 BYTE   Cn1  v112
 BYTE   W07
 BYTE   N03  Cn1  v127
 BYTE   N02  As1  v092
 BYTE   W07
 BYTE   N04  Cn1  v127
 BYTE   W08
 BYTE   N02  En1
 BYTE   N02  As1  v104
 BYTE   W07
 BYTE   N04  En1  v116
 BYTE   W07
 BYTE   N02  Cn1  v127
 BYTE   N02  As1  v080
 BYTE   W08
 BYTE   N03  Cn1  v127
 BYTE   W07
 BYTE   N04  En1
 BYTE   N02  As1  v104
 BYTE   W07
 BYTE   Cn1  v127
 BYTE   W07
 BYTE   N02
 BYTE   N02  As1  v096
 BYTE   W03
// 024   ----------------------------------------
 BYTE   W04
 BYTE   N03  Cn1  v127
 BYTE   W08
 BYTE   En1
 BYTE   N02  As1  v100
 BYTE   W07
 BYTE   N04  En1  v127
 BYTE   W07
 BYTE   N02  Cn1
 BYTE   N03  Cs2  v088
 BYTE   W08
 BYTE   Cn1  v116
 BYTE   W06
 BYTE   N02  As1  v100
 BYTE   W01
 BYTE   N03  En1  v127
 BYTE   W07
 BYTE   N02  Cn1
 BYTE   W07
 BYTE   As1  v104
 BYTE   W01
 BYTE   Cn1  v124
 BYTE   W07
 BYTE   N03  Cn1  v127
 BYTE   W07
 BYTE   En1
 BYTE   N02  As1  v104
 BYTE   W07
 BYTE   Cn1  v124
 BYTE   W08
 BYTE   Cn1  v127
 BYTE   N02  As1  v096
 BYTE   W07
 BYTE   Cn1  v127
 BYTE   W04
// 025   ----------------------------------------
 BYTE   W03
 BYTE   N03  En1
 BYTE   W01
 BYTE   N02  As1  v096
 BYTE   W06
 BYTE   Cn1  v124
 BYTE   W07
 BYTE   As1  v104
 BYTE   W01
 BYTE   Cn1  v116
 BYTE   W07
 BYTE   N03  Cn1  v127
 BYTE   W07
 BYTE   N04  En1
 BYTE   N02  As1  v120
 BYTE   W08
 BYTE   Cn1  v124
 BYTE   W07
 BYTE   N02
 BYTE   N01  Gn2  v040
 BYTE   N02  An2  v080
 BYTE   W07
 BYTE   N03  Cn1  v127
 BYTE   W08
 BYTE   N02  En1
 BYTE   N03  Fn2  v088
 BYTE   W07
 BYTE   N04  En1  v127
 BYTE   W07
 BYTE   N02  Cn1  v124
 BYTE   N02  Fn2  v088
 BYTE   W08
 BYTE   N03  Cn1  v116
 BYTE   W06
 BYTE   N02  Fn2  v112
 BYTE   W01
 BYTE   N03  En1  v127
 BYTE   W05
// 026   ----------------------------------------
 BYTE   W02
 BYTE   N02  Cn1
 BYTE   W07
 BYTE   Cn1  v124
 BYTE   N03  Fn2
 BYTE   W07
 BYTE   Cn1  v127
 BYTE   W08
 BYTE   En1
 BYTE   N02  Fn2  v116
 BYTE   W07
 BYTE   Cn1  v104
 BYTE   W07
 BYTE   Cn1  v127
 BYTE   N02  Fn2  v124
 BYTE   W08
 BYTE   N03  Cn1  v116
 BYTE   W07
 BYTE   En1  v127
 BYTE   N02  Fn2  v124
 BYTE   W07
 BYTE   Cn1
 BYTE   W08
 BYTE   Cn1  v127
 BYTE   N02  An2  v092
 BYTE   W07
 BYTE   N03  Cn1  v120
 BYTE   W07
 BYTE   N04  En1  v127
 BYTE   N03  Fn2  v124
 BYTE   W07
 BYTE   N02  Cn1  v116
 BYTE   W07
// 027   ----------------------------------------
 BYTE   N03  Cn1  v124
 BYTE   N03  Fn2  v116
 BYTE   W08
 BYTE   Cn1  v127
 BYTE   W07
 BYTE   En1
 BYTE   N02  Fn2  v112
 BYTE   W07
 BYTE   Cn1  v116
 BYTE   W08
 BYTE   Cn1  v127
 BYTE   N02  Fn2  v100
 BYTE   W07
 BYTE   N03  Cn1  v124
 BYTE   W07
 BYTE   En1  v127
 BYTE   N02  Fn2  v116
 BYTE   W08
 BYTE   Cn1
 BYTE   W07
 BYTE   N03  Cn1  v127
 BYTE   N03  Fn2  v116
 BYTE   W07
 BYTE   En1  v127
 BYTE   W08
 BYTE   N03
 BYTE   N02  Fn2
 BYTE   W07
 BYTE   Cn1  v100
 BYTE   W07
 BYTE   Cn1  v127
 BYTE   N02  An2  v100
 BYTE   W08
// 028   ----------------------------------------
 BYTE   N03  Cn1  v127
 BYTE   W07
 BYTE   En1
 BYTE   N02  Fn2  v116
 BYTE   W07
 BYTE   Cn1
 BYTE   W07
 BYTE   Cn1  v127
 BYTE   N02  Fn2
 BYTE   W07
 BYTE   N03  Cn1
 BYTE   W08
 BYTE   En1
 BYTE   N02  Fn2  v124
 BYTE   W07
 BYTE   Cn1
 BYTE   W07
 BYTE   Cn1  v127
 BYTE   N02  Fn2  v124
 BYTE   W08
 BYTE   Cn1  v116
 BYTE   W07
 BYTE   N03  En1  v127
 BYTE   N02  Fn2
 BYTE   W07
 BYTE   Cn1
 BYTE   W07
 BYTE   N03  Fn2  v116
 BYTE   W01
 BYTE   Cn1
 BYTE   W14
 BYTE   N04  En1  v127
 BYTE   N02  Fn2
 BYTE   W02
// 029   ----------------------------------------
 BYTE   W05
 BYTE   Cn1  v100
 BYTE   W07
 BYTE   N03  Cn1  v127
 BYTE   N03  An2  v100
 BYTE   W08
 BYTE   Cn1  v127
 BYTE   W07
 BYTE   En1
 BYTE   W01
 BYTE   N02  Fn2
 BYTE   W06
 BYTE   Cn1
 BYTE   W08
 BYTE   N02
 BYTE   N02  Fn2  v124
 BYTE   W07
 BYTE   N03  Cn1  v127
 BYTE   W07
 BYTE   En1
 BYTE   N02  Fn2
 BYTE   W08
 BYTE   Cn1  v116
 BYTE   W06
 BYTE   N01  Fn2  v127
 BYTE   W01
 BYTE   N03  Cn1
 BYTE   N02  Fn2  v124
 BYTE   W07
 BYTE   N03  Cn1
 BYTE   W07
 BYTE   N04  En1  v127
 BYTE   N02  Fn2  v112
 BYTE   W08
 BYTE   Cn1  v120
 BYTE   W03
// 030   ----------------------------------------
 BYTE   W04
 BYTE   Cn1  v127
 BYTE   N02  Fn2
 BYTE   W07
 BYTE   N03  Cn1
 BYTE   W08
 BYTE   En1
 BYTE   N02  Fn2
 BYTE   W07
 BYTE   Cn1  v124
 BYTE   W07
 BYTE   Cn1  v127
 BYTE   N03  Cs2  v092
 BYTE   W07
 BYTE   Cn1  v124
 BYTE   W08
 BYTE   N04  En1  v127
 BYTE   N02  As1  v084
 BYTE   W07
 BYTE   Cn1  v092
 BYTE   W07
 BYTE   Cn1  v104
 BYTE   N03  As1  v084
 BYTE   W08
 BYTE   N02  Cn1  v104
 BYTE   W07
 BYTE   N03  En1  v127
 BYTE   N02  As1  v072
 BYTE   W07
 BYTE   Cn1  v116
 BYTE   W08
 BYTE   Cn1  v124
 BYTE   N02  As1  v092
 BYTE   W04
// 031   ----------------------------------------
 BYTE   W03
 BYTE   N03  Cn1  v116
 BYTE   W07
 BYTE   En1  v127
 BYTE   N02  As1  v092
 BYTE   W07
 BYTE   Cn1  v116
 BYTE   W07
 BYTE   Cn1  v112
 BYTE   N02  As1  v080
 BYTE   W08
 BYTE   N03  Cn1  v124
 BYTE   W07
 BYTE   N02  En1  v127
 BYTE   N02  As1  v092
 BYTE   W07
 BYTE   N03  En1  v127
 BYTE   W08
 BYTE   N02  Cn1  v124
 BYTE   N03  Cs2  v092
 BYTE   W07
 BYTE   Cn1  v127
 BYTE   W07
 BYTE   En1
 BYTE   N02  As1  v092
 BYTE   W08
 BYTE   Cn1  v124
 BYTE   W07
 BYTE   Cn1  v116
 BYTE   N02  As1  v080
 BYTE   W07
 BYTE   N03  Cn1  v127
 BYTE   W06
// 032   ----------------------------------------
 BYTE   W01
 BYTE   En1
 BYTE   W01
 BYTE   N02  As1  v080
 BYTE   W07
 BYTE   N03  En1  v127
 BYTE   W07
 BYTE   N02  Cn1  v104
 BYTE   N02  As1  v096
 BYTE   W07
 BYTE   N03  Cn1  v127
 BYTE   W07
 BYTE   N02  As1  v080
 BYTE   W01
 BYTE   N03  En1  v127
 BYTE   W07
 BYTE   N02  Cn1
 BYTE   W07
 BYTE   Cn1  v116
 BYTE   N02  As1  v092
 BYTE   W07
 BYTE   N03  Cn1  v124
 BYTE   W08
 BYTE   N04  En1  v127
 BYTE   N02  As1  v092
 BYTE   W07
 BYTE   Cn1  v116
 BYTE   W07
 BYTE   N03  Cn1  v120
 BYTE   N03  Cs2  v084
 BYTE   W08
 BYTE   Cn1  v120
 BYTE   W07
 BYTE   En1  v127
 BYTE   N02  As1  v088
 BYTE   W07
// 033   ----------------------------------------
 BYTE   Cn1  v116
 BYTE   W07
 BYTE   As1  v092
 BYTE   W01
 BYTE   Cn1  v112
 BYTE   W07
 BYTE   N03  Cn1  v120
 BYTE   W07
 BYTE   En1  v127
 BYTE   N02  As1  v084
 BYTE   W07
 BYTE   Cn1  v104
 BYTE   W07
 BYTE   N03  Cn1  v116
 BYTE   N03  As1  v100
 BYTE   W08
 BYTE   Cn1  v116
 BYTE   W07
 BYTE   En1  v127
 BYTE   N03  As1  v084
 BYTE   W07
 BYTE   N02  Cn1  v127
 BYTE   W07
 BYTE   N03  As1  v076
 BYTE   W01
 BYTE   N02  Cn1  v120
 BYTE   W07
 BYTE   N03  Cn1  v124
 BYTE   W07
 BYTE   N02  En1  v127
 BYTE   N02  As1  v104
 BYTE   W08
 BYTE   Cn1  v127
 BYTE   W07
 BYTE   Cn1  v116
 BYTE   N04  Cs2  v080
 BYTE   W01
// 034   ----------------------------------------
 BYTE   W06
 BYTE   N03  Cn1  v112
 BYTE   W07
 BYTE   En1  v127
 BYTE   W01
 BYTE   N02  As1  v084
 BYTE   W07
 BYTE   Cn1  v120
 BYTE   W07
 BYTE   Cn1  v124
 BYTE   N02  As1  v080
 BYTE   W07
 BYTE   N03  Cn1  v116
 BYTE   W07
 BYTE   En1  v127
 BYTE   W01
 BYTE   N02  As1  v072
 BYTE   W07
 BYTE   Cn1  v116
 BYTE   W07
 BYTE   Cn1  v112
 BYTE   N02  As1  v096
 BYTE   W07
 BYTE   N03  Cn1  v124
 BYTE   W07
 BYTE   N02  As1  v084
 BYTE   W01
 BYTE   N03  En1  v127
 BYTE   W07
 BYTE   N02  Cn1  v116
 BYTE   W07
 BYTE   N03  Cn1  v124
 BYTE   N02  As1  v084
 BYTE   W08
 BYTE   Cn1  v116
 BYTE   W02
// 035   ----------------------------------------
 BYTE   W05
 BYTE   N03  En1  v127
 BYTE   N02  As1  v100
 BYTE   W07
 BYTE   Cn1  v127
 BYTE   W07
 BYTE   As1  v120
 BYTE   W01
 BYTE   N03  Cn1  v127
 BYTE   N03  Fn1
 BYTE   N03  Gn1
 BYTE   N02  An2  v080
 BYTE   W14
 BYTE   En1  v116
 BYTE   N06  Gs1  v127
 BYTE   W07
 BYTE   N03  Cn1
 BYTE   W15
 BYTE   Cn1  v124
 BYTE   W07
 BYTE   N02  En1  v127
 BYTE   N03  Gs1
 BYTE   W22
 BYTE   Cn1  v116
 BYTE   W07
 BYTE   En1
 BYTE   N02  Gs1  v127
 BYTE   W04
// 036   ----------------------------------------
 BYTE   W11
 BYTE   Cn1  v088
 BYTE   N03  Dn2  v104
 BYTE   W01
 BYTE   N02  Cn2  v112
 BYTE   W06
 BYTE   N03  Cn1  v092
 BYTE   W02
 BYTE   Cn2
 BYTE   W01
 BYTE   N02  Bn1  v112
 BYTE   W04
 BYTE   N03  Gs1  v127
 BYTE   W05
 BYTE   N02  An1  v116
 BYTE   N02  Bn1  v124
 BYTE   W10
 BYTE   N03  Cn1
 BYTE   N02  Fn1  v092
 BYTE   N02  Gn1  v127
 BYTE   N02  An1
 BYTE   N05  Cs2  v120
 BYTE   W14
 BYTE   N03  En1  v112
 BYTE   N02  Gs1  v127
 BYTE   W08
 BYTE   N03  Cn1
 BYTE   W14
 BYTE   Cn1  v104
 BYTE   W08
 BYTE   En1  v127
 BYTE   N03  Gs1
 BYTE   W12
// 037   ----------------------------------------
 BYTE   W10
 BYTE   Cn1  v124
 BYTE   W07
 BYTE   N02  En1  v127
 BYTE   N02  Gs1
 BYTE   W15
 BYTE   Cn1
 BYTE   N02  Dn2  v116
 BYTE   W07
 BYTE   N03  Cn1  v120
 BYTE   W02
 BYTE   Bn1  v112
 BYTE   N02  Cn2  v116
 BYTE   W05
 BYTE   Gs1  v127
 BYTE   W05
 BYTE   An1
 BYTE   N03  Bn1  v116
 BYTE   W02
 BYTE   N02  Cn1  v104
 BYTE   W07
 BYTE   N04  Cn1  v116
 BYTE   N02  Gn1  v120
 BYTE   N02  An1  v127
 BYTE   N07  An2  v112
 BYTE   W15
 BYTE   N02  En1  v116
 BYTE   N03  Gs1  v127
 BYTE   W07
 BYTE   Cn1  v120
 BYTE   W14
// 038   ----------------------------------------
 BYTE   W01
 BYTE   Cn1  v127
 BYTE   W07
 BYTE   N02  En1
 BYTE   N02  Gs1
 BYTE   W22
 BYTE   N03  Cn1
 BYTE   W07
 BYTE   En1
 BYTE   N02  Gs1
 BYTE   W15
 BYTE   Cn1  v120
 BYTE   N02  Cn2  v112
 BYTE   N02  Dn2  v100
 BYTE   W03
 BYTE   Cn2  v124
 BYTE   N02  Dn2  v116
 BYTE   W04
 BYTE   N03  Cn1  v112
 BYTE   W03
 BYTE   N02  Bn1
 BYTE   N03  Cn2  v124
 BYTE   W04
 BYTE   N02  Gs1  v127
 BYTE   W04
 BYTE   N01  An1  v100
 BYTE   N02  Bn1  v127
 BYTE   W03
 BYTE   Gn1
 BYTE   N02  An1  v100
 BYTE   N02  Bn1  v127
 BYTE   W01
 BYTE   Cn1  v112
 BYTE   W07
 BYTE   Cn1  v104
 BYTE   N02  En1  v068
 BYTE   N02  Fn1  v092
 BYTE   N02  Fs1  v100
 BYTE   W07
 BYTE   Cn1  v112
 BYTE   N02  En1  v084
 BYTE   N02  Fn1  v088
 BYTE   N02  Fs1  v112
 BYTE   W08
// 039   ----------------------------------------
 BYTE   Cn1  v092
 BYTE   N02  En1  v068
 BYTE   N02  Fn1  v084
 BYTE   N02  Fs1  v112
 BYTE   W07
 BYTE   Cn1  v104
 BYTE   N02  En1  v076
 BYTE   N02  Fn1  v100
 BYTE   N02  Fs1  v112
 BYTE   W07
 BYTE   N03  Cn1  v100
 BYTE   N02  En1  v080
 BYTE   N02  Fn1
 BYTE   N02  Fs1  v127
 BYTE   W07
 BYTE   N03  Cn1  v112
 BYTE   N02  En1  v076
 BYTE   N02  Fn1  v080
 BYTE   N02  Fs1  v120
 BYTE   W07
 BYTE   Fs1  v116
 BYTE   W01
 BYTE   Cn1
 BYTE   N02  En1  v076
 BYTE   N02  Fn1  v092
 BYTE   W07
 BYTE   Cn1  v100
 BYTE   N02  En1  v084
 BYTE   N02  Fn1  v092
 BYTE   N02  Fs1  v104
 BYTE   W07
 BYTE   Cn1  v116
 BYTE   N02  En1  v080
 BYTE   N02  Fn1  v100
 BYTE   W01
 BYTE   Fs1  v108
 BYTE   W06
 BYTE   Fs1  v116
 BYTE   W01
 BYTE   Cn1  v104
 BYTE   N02  En1  v100
 BYTE   N02  Fn1
 BYTE   W07
 BYTE   Cn1  v116
 BYTE   N02  En1  v104
 BYTE   N02  Fn1  v100
 BYTE   N02  Fs1  v127
 BYTE   W07
 BYTE   Cn1  v120
 BYTE   N02  En1  v100
 BYTE   N02  Fn1  v104
 BYTE   N02  Fs1  v127
 BYTE   W07
 BYTE   N03  Cn1
 BYTE   N03  En1
 BYTE   N03  Fn1
 BYTE   N02  An2  v120
 BYTE   W01
 BYTE   Fs1  v127
 BYTE   W04
 BYTE   An2  v004
 BYTE   W19
// 040   ----------------------------------------
 BYTE   W06
 BYTE   Cn1  v124
 BYTE   N03  Cs2  v104
 BYTE   N02  Bn2  v116
 BYTE   W07
 BYTE   N03  Cn1  v127
 BYTE   W07
 BYTE   N04  En1
 BYTE   N02  Bn2  v112
 BYTE   W08
 BYTE   Cn1
 BYTE   W06
 BYTE   Bn2  v124
 BYTE   W01
 BYTE   Cn1  v116
 BYTE   W07
 BYTE   N03  Cn1  v127
 BYTE   W07
 BYTE   N04  En1
 BYTE   N02  Bn2  v116
 BYTE   W07
 BYTE   Cn1
 BYTE   W08
 BYTE   N03  Cn1  v127
 BYTE   N02  Bn2  v112
 BYTE   W07
 BYTE   N04  Cn1  v127
 BYTE   W07
 BYTE   En1
 BYTE   W01
 BYTE   N02  Bn2  v124
 BYTE   W07
 BYTE   Cn1  v120
 BYTE   W07
 BYTE   Cn1  v116
 BYTE   N02  Bn2  v124
 BYTE   W03
// 041   ----------------------------------------
 BYTE   W12
 BYTE   N04  En1  v127
 BYTE   N02  Bn2
 BYTE   W07
 BYTE   Cn1  v120
 BYTE   W07
 BYTE   Cn1  v127
 BYTE   N03  An2  v100
 BYTE   W07
 BYTE   N04  Cn1  v116
 BYTE   W07
 BYTE   N02  Bn2  v127
 BYTE   W01
 BYTE   N03  En1
 BYTE   W07
 BYTE   N02  Cn1  v124
 BYTE   W07
 BYTE   Cn1  v120
 BYTE   N02  Bn2  v124
 BYTE   W08
 BYTE   N04  Cn1  v120
 BYTE   W07
 BYTE   En1  v127
 BYTE   N02  Bn2  v112
 BYTE   W07
 BYTE   Cn1  v104
 BYTE   W07
 BYTE   N03  Cn1  v127
 BYTE   N02  Bn2  v124
 BYTE   W08
 BYTE   N03  Cn1  v116
 BYTE   W04
// 042   ----------------------------------------
 BYTE   W03
 BYTE   N04  En1  v127
 BYTE   N02  Bn2
 BYTE   W07
 BYTE   Cn1
 BYTE   W07
 BYTE   Bn2  v116
 BYTE   W01
 BYTE   Cn1  v127
 BYTE   W14
 BYTE   En1
 BYTE   N02  Bn2
 BYTE   W08
 BYTE   N04  En1  v120
 BYTE   W07
 BYTE   N02  Cn1  v127
 BYTE   N03  Cs2  v112
 BYTE   W07
 BYTE   Cn1  v120
 BYTE   W07
 BYTE   En1  v127
 BYTE   N02  Bn2
 BYTE   W07
 BYTE   Cn1  v112
 BYTE   W08
 BYTE   N03  Cn1  v127
 BYTE   N02  Bn2  v116
 BYTE   W07
 BYTE   N03  Cn1  v127
 BYTE   W07
 BYTE   N02  En1
 BYTE   N02  Bn2  v124
 BYTE   W06
// 043   ----------------------------------------
 BYTE   W02
 BYTE   N04  En1  v116
 BYTE   W07
 BYTE   N02  Cn1  v127
 BYTE   N02  Bn2
 BYTE   W07
 BYTE   N03  Cn1
 BYTE   W08
 BYTE   N04  En1
 BYTE   N02  Bn2
 BYTE   W07
 BYTE   Cn1
 BYTE   W07
 BYTE   N02
 BYTE   N02  Bn2
 BYTE   W07
 BYTE   N04  Cn1
 BYTE   W08
 BYTE   N02  En1
 BYTE   N02  Bn2
 BYTE   W07
 BYTE   N04  En1
 BYTE   W07
 BYTE   N02  Cn1
 BYTE   N04  Cs2  v088
 BYTE   W07
 BYTE   N03  Cn1  v116
 BYTE   W08
 BYTE   En1  v127
 BYTE   N02  Bn2  v116
 BYTE   W07
 BYTE   Cn1  v127
 BYTE   W07
// 044   ----------------------------------------
 BYTE   Cn1  v124
 BYTE   N02  Bn2  v120
 BYTE   W08
 BYTE   N03  Cn1  v127
 BYTE   W07
 BYTE   En1
 BYTE   N02  Bn2
 BYTE   W07
 BYTE   Cn1  v124
 BYTE   W08
 BYTE   Cn1  v127
 BYTE   N02  Bn2
 BYTE   W07
 BYTE   Cn1
 BYTE   W07
 BYTE   N03  En1
 BYTE   N02  Bn2  v120
 BYTE   W08
 BYTE   Cn1  v124
 BYTE   W06
 BYTE   Bn2  v127
 BYTE   W01
 BYTE   Cn1  v116
 BYTE   W07
 BYTE   N03  Cn1  v127
 BYTE   W07
 BYTE   N04  En1
 BYTE   N02  Bn2
 BYTE   W07
 BYTE   Cn1  v124
 BYTE   W08
 BYTE   N02
 BYTE   N01  Gn2  v040
 BYTE   N02  An2  v080
 BYTE   W07
 BYTE   N03  Cn1  v127
 BYTE   W01
// 045   ----------------------------------------
 BYTE   W06
 BYTE   N02  En1
 BYTE   N02  Ds2  v104
 BYTE   W08
 BYTE   N04  En1  v127
 BYTE   W06
 BYTE   N02  Ds2
 BYTE   W01
 BYTE   Cn1  v124
 BYTE   W07
 BYTE   N03  Cn1  v116
 BYTE   W08
 BYTE   En1  v127
 BYTE   N02  Ds2  v120
 BYTE   W07
 BYTE   Cn1  v127
 BYTE   W07
 BYTE   Cn1  v124
 BYTE   N02  Ds2  v127
 BYTE   W07
 BYTE   N03  Cn1
 BYTE   W07
 BYTE   En1
 BYTE   N02  Ds2  v112
 BYTE   W08
 BYTE   Cn1  v104
 BYTE   W07
 BYTE   Cn1  v127
 BYTE   W01
 BYTE   Ds2  v124
 BYTE   W06
 BYTE   N03  Cn1  v116
 BYTE   W08
 BYTE   En1  v127
 BYTE   N02  Ds2
 BYTE   W02
// 046   ----------------------------------------
 BYTE   W05
 BYTE   Cn1  v124
 BYTE   W07
 BYTE   Cn1  v127
 BYTE   N03  An2  v092
 BYTE   W08
 BYTE   Cn1  v120
 BYTE   W07
 BYTE   N04  En1  v127
 BYTE   N02  Ds2
 BYTE   W07
 BYTE   Cn1  v116
 BYTE   W07
 BYTE   Ds2  v124
 BYTE   W01
 BYTE   Cn1
 BYTE   W07
 BYTE   N03  Cn1  v127
 BYTE   W07
 BYTE   En1
 BYTE   N02  Ds2
 BYTE   W08
 BYTE   Cn1  v116
 BYTE   W07
 BYTE   Cn1  v127
 BYTE   N02  Ds2
 BYTE   W07
 BYTE   N03  Cn1  v124
 BYTE   W07
 BYTE   En1  v127
 BYTE   W01
 BYTE   N02  Ds2
 BYTE   W06
 BYTE   Cn1  v116
 BYTE   W04
// 047   ----------------------------------------
 BYTE   W04
 BYTE   N03  Cn1  v127
 BYTE   N02  Ds2
 BYTE   W07
 BYTE   N03  En1
 BYTE   W07
 BYTE   N03
 BYTE   N02  Ds2
 BYTE   W08
 BYTE   Cn1  v100
 BYTE   W07
 BYTE   Cn1  v127
 BYTE   N02  An2  v100
 BYTE   W07
 BYTE   N03  Cn1  v127
 BYTE   W08
 BYTE   En1
 BYTE   N02  Ds2
 BYTE   W07
 BYTE   Cn1  v116
 BYTE   W07
 BYTE   Cn1  v127
 BYTE   N02  Ds2
 BYTE   W07
 BYTE   N03  Cn1
 BYTE   W07
 BYTE   N04  En1
 BYTE   W01
 BYTE   N02  Ds2  v116
 BYTE   W07
 BYTE   Cn1  v124
 BYTE   W07
 BYTE   Cn1  v127
 BYTE   N02  Ds2
 BYTE   W05
// 048   ----------------------------------------
 BYTE   W02
 BYTE   Cn1  v116
 BYTE   W08
 BYTE   N03  En1  v127
 BYTE   N02  Ds2
 BYTE   W07
 BYTE   Cn1
 BYTE   W07
 BYTE   N03  Cn1  v116
 BYTE   N02  Ds2  v127
 BYTE   W08
 BYTE   En1
 BYTE   W07
 BYTE   N04
 BYTE   N02  Ds2  v124
 BYTE   W07
 BYTE   Cn1  v100
 BYTE   W07
 BYTE   N03  Cn1  v127
 BYTE   N03  An2  v100
 BYTE   W08
 BYTE   Cn1  v127
 BYTE   W07
 BYTE   En1
 BYTE   N02  Ds2  v124
 BYTE   W07
 BYTE   Cn1  v127
 BYTE   W07
 BYTE   Ds2
 BYTE   W01
 BYTE   Cn1
 BYTE   W07
 BYTE   N03
 BYTE   W06
// 049   ----------------------------------------
 BYTE   W01
 BYTE   En1
 BYTE   N03  Ds2  v120
 BYTE   W07
 BYTE   N02  Cn1  v116
 BYTE   W08
 BYTE   N03  Cn1  v127
 BYTE   N02  Ds2
 BYTE   W07
 BYTE   N03  Cn1  v124
 BYTE   W07
 BYTE   N04  En1  v127
 BYTE   N02  Ds2  v124
 BYTE   W08
 BYTE   Cn1  v120
 BYTE   W07
 BYTE   Cn1  v127
 BYTE   N02  Ds2
 BYTE   W07
 BYTE   Cn1
 BYTE   W08
 BYTE   N03  En1
 BYTE   N02  Ds2
 BYTE   W07
 BYTE   Cn1  v124
 BYTE   W07
 BYTE   Cn1  v127
 BYTE   N03  Cs2  v092
 BYTE   W07
 BYTE   Cn1  v124
 BYTE   W07
 BYTE   N04  En1  v127
 BYTE   W01
 BYTE   N02  Bn2  v124
 BYTE   W07
// 050   ----------------------------------------
 BYTE   Cn1  v092
 BYTE   W07
 BYTE   Cn1  v104
 BYTE   W01
 BYTE   Bn2  v116
 BYTE   W06
 BYTE   Cn1  v104
 BYTE   W08
 BYTE   N03  En1  v127
 BYTE   N02  Bn2
 BYTE   W07
 BYTE   Cn1  v116
 BYTE   W07
 BYTE   Cn1  v124
 BYTE   N02  Bn2  v112
 BYTE   W08
 BYTE   N03  Cn1  v116
 BYTE   W07
 BYTE   N04  En1  v127
 BYTE   N02  Bn2  v120
 BYTE   W07
 BYTE   Cn1  v116
 BYTE   W07
 BYTE   Cn1  v112
 BYTE   N02  Bn2  v124
 BYTE   W08
 BYTE   N03  Cn1
 BYTE   W07
 BYTE   N02  En1  v127
 BYTE   N02  Bn2  v116
 BYTE   W07
 BYTE   N03  En1  v127
 BYTE   W08
 BYTE   N02  Cn1  v124
 BYTE   N03  Cs2  v092
 BYTE   W01
// 051   ----------------------------------------
 BYTE   W06
 BYTE   Cn1  v127
 BYTE   W06
 BYTE   N02  Bn2  v116
 BYTE   W01
 BYTE   N03  En1  v127
 BYTE   W07
 BYTE   N02  Cn1  v124
 BYTE   W07
 BYTE   N03  Bn2  v112
 BYTE   W01
 BYTE   N02  Cn1  v116
 BYTE   W07
 BYTE   N04  Cn1  v127
 BYTE   W07
 BYTE   N03  En1
 BYTE   N02  Bn2  v116
 BYTE   W08
 BYTE   N03  En1  v127
 BYTE   W07
 BYTE   N02  Cn1  v104
 BYTE   N02  Bn2  v112
 BYTE   W07
 BYTE   N03  Cn1  v127
 BYTE   W07
 BYTE   N02  Bn2
 BYTE   W01
 BYTE   N03  En1
 BYTE   W07
 BYTE   N02  Cn1
 BYTE   W07
 BYTE   Cn1  v116
 BYTE   N02  Bn2  v124
 BYTE   W07
 BYTE   N03  Cn1
 BYTE   W03
// 052   ----------------------------------------
 BYTE   W04
 BYTE   N04  En1  v127
 BYTE   W01
 BYTE   N02  Bn2
 BYTE   W07
 BYTE   Cn1  v116
 BYTE   W07
 BYTE   Cn1  v120
 BYTE   N03  Cs2  v084
 BYTE   W07
 BYTE   Cn1  v120
 BYTE   W07
 BYTE   N02  Bn2  v112
 BYTE   W01
 BYTE   N03  En1  v127
 BYTE   W07
 BYTE   N02  Cn1  v116
 BYTE   W07
 BYTE   Cn1  v112
 BYTE   N02  Bn2  v116
 BYTE   W08
 BYTE   N03  Cn1  v120
 BYTE   W06
 BYTE   N02  Bn2  v124
 BYTE   W01
 BYTE   N03  En1  v127
 BYTE   W07
 BYTE   N02  Cn1  v104
 BYTE   W07
 BYTE   N03  Cn1  v116
 BYTE   N02  Bn2  v112
 BYTE   W08
 BYTE   Cn1  v116
 BYTE   W07
 BYTE   N03  En1  v127
 BYTE   N02  Bn2  v104
 BYTE   W04
// 053   ----------------------------------------
 BYTE   W03
 BYTE   Cn1  v127
 BYTE   W07
 BYTE   Cn1  v120
 BYTE   N02  Bn2  v112
 BYTE   W08
 BYTE   N03  Cn1  v124
 BYTE   W07
 BYTE   N02  En1  v127
 BYTE   N02  Bn2
 BYTE   W07
 BYTE   Cn1
 BYTE   W08
 BYTE   Cn1  v116
 BYTE   N04  Cs2  v080
 BYTE   W07
 BYTE   N03  Cn1  v112
 BYTE   W07
 BYTE   En1  v127
 BYTE   N02  Bn2  v116
 BYTE   W08
 BYTE   Cn1  v120
 BYTE   W06
 BYTE   N03  Bn2  v116
 BYTE   W01
 BYTE   N02  Cn1  v124
 BYTE   W07
 BYTE   N03  Cn1  v116
 BYTE   W06
 BYTE   N02  Bn2  v124
 BYTE   W02
 BYTE   N03  En1  v127
 BYTE   W07
 BYTE   N02  Cn1  v116
 BYTE   W05
// 054   ----------------------------------------
 BYTE   W02
 BYTE   Cn1  v112
 BYTE   N02  Bn2  v120
 BYTE   W07
 BYTE   N03  Cn1  v124
 BYTE   W07
 BYTE   En1  v127
 BYTE   N02  Bn2  v124
 BYTE   W08
 BYTE   Cn1  v116
 BYTE   W07
 BYTE   Cn1  v124
 BYTE   N02  Bn2  v116
 BYTE   W07
 BYTE   Cn1
 BYTE   W08
 BYTE   N03  En1  v127
 BYTE   N02  Bn2  v116
 BYTE   W07
 BYTE   Cn1  v127
 BYTE   W07
 BYTE   N03
 BYTE   N04  Fn1
 BYTE   N03  Gn1
 BYTE   N02  An2  v080
 BYTE   N01  Bn2  v127
 BYTE   W08
 BYTE   N02  Cn1  v096
 BYTE   N06  As1
 BYTE   W07
 BYTE   N02  En1  v116
 BYTE   N02  Fs1  v084
 BYTE   W07
 BYTE   N03  Cn1  v127
 BYTE   N06  As1  v080
 BYTE   W04
 BYTE   N02  Cn1  v104
 BYTE   W03
 BYTE   N02
 BYTE   N03  Fs1  v084
 BYTE   W04
 BYTE   N02  Cn1  v104
 BYTE   W03
// 055   ----------------------------------------
 BYTE   N03  Cn1  v124
 BYTE   W01
 BYTE   N06  As1  v068
 BYTE   W07
 BYTE   N02  En1  v127
 BYTE   N04  Fs1  v096
 BYTE   W07
 BYTE   N02  Cn1  v104
 BYTE   N07  As1  v080
 BYTE   W04
 BYTE   N02  Cn1  v104
 BYTE   W03
 BYTE   N02
 BYTE   W01
 BYTE   N03  Fs1  v116
 BYTE   W07
 BYTE   Cn1
 BYTE   N06  As1  v092
 BYTE   W07
 BYTE   N03  En1  v116
 BYTE   N03  Fs1  v104
 BYTE   W07
 BYTE   N02  Cn1
 BYTE   N06  As1  v100
 BYTE   W04
 BYTE   N02  Cn1  v104
 BYTE   W04
 BYTE   Cn1  v108
 BYTE   N03  Fs1  v104
 BYTE   W03
 BYTE   N02  Cn1
 BYTE   W04
 BYTE   N03  Cn1  v112
 BYTE   N06  As1  v104
 BYTE   W07
 BYTE   N02  En1  v116
 BYTE   N03  Fs1
 BYTE   W07
 BYTE   N06  As1  v100
 BYTE   W01
 BYTE   N02  Cn1  v104
 BYTE   W03
 BYTE   N02
 BYTE   W03
 BYTE   N04  Fs1  v084
 BYTE   W01
 BYTE   N03  Cn1  v124
 BYTE   W06
 BYTE   N07  As1  v092
 BYTE   W01
 BYTE   N02  Cn1  v104
 BYTE   W07
 BYTE   N04  Fs1  v112
 BYTE   W01
// 056   ----------------------------------------
 BYTE   N02  En1
 BYTE   W06
 BYTE   N07  As1  v068
 BYTE   W01
 BYTE   N03  Cn1  v127
 BYTE   W03
 BYTE   N02  Cn1  v104
 BYTE   W04
 BYTE   N02
 BYTE   N05  Fs1  v100
 BYTE   W04
 BYTE   N02  Cn1  v104
 BYTE   W02
 BYTE   N06  As1  v100
 BYTE   W01
 BYTE   N03  Cn1  v104
 BYTE   W07
 BYTE   En1  v127
 BYTE   N07  Fs1  v104
 BYTE   W08
 BYTE   N02  Cn1
 BYTE   N06  As1  v100
 BYTE   W04
 BYTE   N02  Cn1  v104
 BYTE   W03
 BYTE   N02
 BYTE   N06  Fs1
 BYTE   W07
 BYTE   N03  Cn1  v124
 BYTE   N06  As1  v084
 BYTE   W07
 BYTE   Fs1  v092
 BYTE   W01
 BYTE   N02  En1  v127
 BYTE   W06
 BYTE   N06  As1  v084
 BYTE   W01
 BYTE   N02  Cn1  v104
 BYTE   W03
 BYTE   N02
 BYTE   W04
 BYTE   Cn1  v127
 BYTE   N07  Fs1  v100
 BYTE   W04
 BYTE   N02  Cn1  v104
 BYTE   W03
 BYTE   N06  As1  v092
 BYTE   W01
 BYTE   N03  Cn1  v120
 BYTE   W06
 BYTE   N06  Fs1  v104
 BYTE   W01
 BYTE   N02  En1
 BYTE   W07
 BYTE   Cn1
 BYTE   N06  As1  v084
 BYTE   W02
// 057   ----------------------------------------
 BYTE   W02
 BYTE   N02  Cn1  v104
 BYTE   W03
 BYTE   N04  Cn1  v116
 BYTE   W01
 BYTE   N06  Fs1  v100
 BYTE   W06
 BYTE   N02  Cn1  v104
 BYTE   N06  As1  v100
 BYTE   W08
 BYTE   N02  En1  v116
 BYTE   N06  Fs1  v092
 BYTE   W07
 BYTE   N03  Cn1  v120
 BYTE   N07  As1  v068
 BYTE   W04
 BYTE   N02  Cn1  v104
 BYTE   W03
 BYTE   N02
 BYTE   N06  Fs1  v116
 BYTE   W04
 BYTE   N02  Cn1  v104
 BYTE   W03
 BYTE   N06  As1  v100
 BYTE   W01
 BYTE   N03  Cn1  v127
 BYTE   W07
 BYTE   N02  En1
 BYTE   N07  Fs1  v092
 BYTE   W07
 BYTE   N02  Cn1  v104
 BYTE   N07  As1  v100
 BYTE   W04
 BYTE   N02  Cn1  v104
 BYTE   W04
 BYTE   N02
 BYTE   N06  Fs1
 BYTE   W06
 BYTE   N07  As1  v100
 BYTE   W01
 BYTE   N03  Cn1  v127
 BYTE   W07
 BYTE   En1
 BYTE   N06  Fs1  v104
 BYTE   W07
 BYTE   N02  Cn1
 BYTE   N06  As1  v080
 BYTE   W04
 BYTE   N02  Cn1  v104
 BYTE   W03
 BYTE   N07  Fs1  v120
 BYTE   W01
 BYTE   N02  Cn1
 BYTE   W03
// 058   ----------------------------------------
 BYTE   Cn1  v104
 BYTE   W04
 BYTE   N03  Cn1  v112
 BYTE   N07  As1  v104
 BYTE   W07
 BYTE   N02  En1
 BYTE   N06  Fs1  v112
 BYTE   W04
 BYTE   N02  Cn1  v104
 BYTE   W03
 BYTE   N07  As1  v072
 BYTE   W01
 BYTE   N02  En1  v112
 BYTE   W03
 BYTE   Cn1  v104
 BYTE   W04
 BYTE   N03  Cn1  v127
 BYTE   N06  Fs1  v104
 BYTE   W07
 BYTE   N02  Cn1
 BYTE   N06  As1  v092
 BYTE   W07
 BYTE   N02  En1  v116
 BYTE   N06  Fs1  v104
 BYTE   W07
 BYTE   N07  As1  v080
 BYTE   W01
 BYTE   N03  Cn1  v127
 BYTE   W04
 BYTE   N02  Cn1  v104
 BYTE   W03
 BYTE   N02
 BYTE   N06  Fs1  v116
 BYTE   W04
 BYTE   N02  Cn1  v104
 BYTE   W03
 BYTE   N03  Cn1  v127
 BYTE   N06  As1  v096
 BYTE   W07
 BYTE   N07  Fs1  v104
 BYTE   W01
 BYTE   N01  Cn1
 BYTE   N02  En1  v124
 BYTE   W07
 BYTE   N06  As1  v104
 BYTE   W07
 BYTE   N02  Cn1  v116
 BYTE   N02  En1  v080
 BYTE   N02  Fn1  v100
 BYTE   N02  Fs1  v108
 BYTE   W04
 BYTE   Cn1  v084
 BYTE   N02  En1
 BYTE   N02  Fn1
 BYTE   W03
 BYTE   Fs1  v116
 BYTE   W01
 BYTE   Cn1  v104
 BYTE   N02  En1  v100
 BYTE   N02  Fn1
 BYTE   W03
 BYTE   Cn1  v096
 BYTE   N02  En1
 BYTE   N02  Fn1
 BYTE   W01
// 059   ----------------------------------------
 BYTE   W03
 BYTE   Cn1  v116
 BYTE   N02  En1  v104
 BYTE   N02  Fn1  v100
 BYTE   N02  Fs1  v127
 BYTE   W03
 BYTE   Cn1  v104
 BYTE   N02  En1
 BYTE   N02  Fn1
 BYTE   W04
 BYTE   Cn1  v120
 BYTE   N02  En1  v100
 BYTE   N02  Fn1  v104
 BYTE   N02  Fs1  v127
 BYTE   W04
 BYTE   Cn1  v116
 BYTE   N02  En1
 BYTE   N02  Fn1
 BYTE   W03
 BYTE   N03  Cn1  v127
 BYTE   N03  En1
 BYTE   N03  Fn1
 BYTE   N02  An2  v120
 BYTE   W01
 BYTE   Fs1  v127
 BYTE   W04
 BYTE   An2  v004
 BYTE   W24
 BYTE   Cn1  v124
 BYTE   N03  Cs2  v104
 BYTE   W02
 BYTE   N05  As1  v112
 BYTE   W06
 BYTE   N03  Cn1  v127
 BYTE   W07
 BYTE   N04  En1
 BYTE   N04  As1  v100
 BYTE   W07
 BYTE   N02  Cn1  v112
 BYTE   W08
 BYTE   Cn1  v116
 BYTE   N04  As1  v084
 BYTE   W07
 BYTE   N03  Cn1  v127
 BYTE   W07
 BYTE   N04  En1
 BYTE   N04  As1  v100
 BYTE   W06
// 060   ----------------------------------------
 BYTE   W01
 BYTE   N02  Cn1  v116
 BYTE   W07
 BYTE   N04  As1  v092
 BYTE   W01
 BYTE   N02  Cn1  v127
 BYTE   W07
 BYTE   N04
 BYTE   W07
 BYTE   En1
 BYTE   N03  As1  v104
 BYTE   W08
 BYTE   N02  Cn1  v120
 BYTE   W07
 BYTE   Cn1  v116
 BYTE   N03  As1
 BYTE   W14
 BYTE   N04  En1  v127
 BYTE   W01
 BYTE   N02  As1  v104
 BYTE   W07
 BYTE   Cn1  v120
 BYTE   W07
 BYTE   Cn1  v127
 BYTE   N03  An2  v100
 BYTE   W07
 BYTE   N04  Cn1  v116
 BYTE   W07
 BYTE   N02  As1  v096
 BYTE   W01
 BYTE   N03  En1  v127
 BYTE   W07
 BYTE   N02  Cn1  v124
 BYTE   W07
// 061   ----------------------------------------
 BYTE   Cn1  v120
 BYTE   N03  As1  v076
 BYTE   W08
 BYTE   N04  Cn1  v120
 BYTE   W06
 BYTE   N02  As1  v084
 BYTE   W01
 BYTE   N04  En1  v127
 BYTE   W07
 BYTE   N02  Cn1  v104
 BYTE   W07
 BYTE   N03  Cn1  v127
 BYTE   N03  As1  v084
 BYTE   W07
 BYTE   Cn1  v116
 BYTE   W08
 BYTE   N04  En1  v127
 BYTE   N02  As1  v100
 BYTE   W07
 BYTE   Cn1  v127
 BYTE   W07
 BYTE   N02
 BYTE   N02  As1  v096
 BYTE   W15
 BYTE   En1  v127
 BYTE   N02  As1  v112
 BYTE   W07
 BYTE   N04  En1  v120
 BYTE   W08
 BYTE   N02  Cn1  v127
 BYTE   N03  Cs2  v112
 BYTE   W07
 BYTE   Cn1  v120
 BYTE   W01
// 062   ----------------------------------------
 BYTE   W06
 BYTE   En1  v127
 BYTE   N02  As1  v100
 BYTE   W07
 BYTE   Cn1  v112
 BYTE   W07
 BYTE   As1  v092
 BYTE   W01
 BYTE   Cn1  v127
 BYTE   W07
 BYTE   N03
 BYTE   W07
 BYTE   En1
 BYTE   W01
 BYTE   N02  As1  v104
 BYTE   W06
 BYTE   N04  En1  v116
 BYTE   W08
 BYTE   N02  Cn1  v127
 BYTE   N02  As1  v080
 BYTE   W07
 BYTE   N03  Cn1  v127
 BYTE   W07
 BYTE   N04  En1
 BYTE   N02  As1  v104
 BYTE   W08
 BYTE   Cn1  v127
 BYTE   W07
 BYTE   N02
 BYTE   N02  As1  v096
 BYTE   W07
 BYTE   N04  Cn1  v127
 BYTE   W08
 BYTE   N02  En1
 BYTE   N02  As1  v100
 BYTE   W02
// 063   ----------------------------------------
 BYTE   W05
 BYTE   N04  En1  v127
 BYTE   W07
 BYTE   N02  Cn1
 BYTE   N04  Cs2  v088
 BYTE   W08
 BYTE   N03  Cn1  v116
 BYTE   W06
 BYTE   N02  As1  v100
 BYTE   W01
 BYTE   N03  En1  v127
 BYTE   W07
 BYTE   N02  Cn1
 BYTE   W07
 BYTE   Cn1  v124
 BYTE   N02  As1  v104
 BYTE   W07
 BYTE   N03  Cn1  v127
 BYTE   W08
 BYTE   En1
 BYTE   N02  As1  v104
 BYTE   W07
 BYTE   Cn1  v124
 BYTE   W07
 BYTE   Cn1  v127
 BYTE   N02  As1  v096
 BYTE   W08
 BYTE   N03  Cn1  v127
 BYTE   W07
 BYTE   En1
 BYTE   N02  As1  v096
 BYTE   W07
 BYTE   Cn1  v124
 BYTE   W04
// 064   ----------------------------------------
 BYTE   W03
 BYTE   N03  As1  v104
 BYTE   W01
 BYTE   N02  Cn1  v116
 BYTE   W07
 BYTE   N03  Cn1  v127
 BYTE   W07
 BYTE   N04  En1
 BYTE   N02  As1  v120
 BYTE   W07
 BYTE   Cn1  v124
 BYTE   W07
 BYTE   N02
 BYTE   N01  Gn2  v040
 BYTE   N03  An2  v080
 BYTE   W08
 BYTE   Cn1  v127
 BYTE   W07
 BYTE   N02  En1
 BYTE   W01
 BYTE   Fn2  v088
 BYTE   W06
 BYTE   N04  En1  v127
 BYTE   W08
 BYTE   N02  Cn1  v124
 BYTE   N02  Fn2  v088
 BYTE   W07
 BYTE   N03  Cn1  v116
 BYTE   W07
 BYTE   En1  v127
 BYTE   N02  Fn2  v112
 BYTE   W08
 BYTE   Cn1  v127
 BYTE   W07
 BYTE   Cn1  v124
 BYTE   N02  Fn2
 BYTE   W05
// 065   ----------------------------------------
 BYTE   W02
 BYTE   N03  Cn1  v127
 BYTE   W08
 BYTE   En1
 BYTE   N02  Fn2  v116
 BYTE   W07
 BYTE   Cn1  v104
 BYTE   W07
 BYTE   Cn1  v127
 BYTE   N02  Fn2  v124
 BYTE   W08
 BYTE   N03  Cn1  v116
 BYTE   W07
 BYTE   En1  v127
 BYTE   N02  Fn2  v124
 BYTE   W07
 BYTE   Cn1
 BYTE   W07
 BYTE   Cn1  v127
 BYTE   N03  An2  v092
 BYTE   W07
 BYTE   Cn1  v120
 BYTE   W08
 BYTE   N04  En1  v127
 BYTE   N02  Fn2  v124
 BYTE   W07
 BYTE   Cn1  v116
 BYTE   W07
 BYTE   Cn1  v124
 BYTE   N02  Fn2  v116
 BYTE   W08
 BYTE   N03  Cn1  v127
 BYTE   W06
// 066   ----------------------------------------
 BYTE   W01
 BYTE   En1
 BYTE   N02  Fn2  v112
 BYTE   W07
 BYTE   Cn1  v116
 BYTE   W08
 BYTE   Cn1  v127
 BYTE   N03  Fn2  v100
 BYTE   W07
 BYTE   Cn1  v124
 BYTE   W07
 BYTE   En1  v127
 BYTE   N02  Fn2  v116
 BYTE   W07
 BYTE   Cn1
 BYTE   W07
 BYTE   N03  Cn1  v127
 BYTE   N03  Fn2  v116
 BYTE   W08
 BYTE   N02  En1  v127
 BYTE   W07
 BYTE   N03
 BYTE   W01
 BYTE   N02  Fn2
 BYTE   W06
 BYTE   Cn1  v100
 BYTE   W08
 BYTE   Cn1  v127
 BYTE   N02  An2  v100
 BYTE   W07
 BYTE   N03  Cn1  v127
 BYTE   W07
 BYTE   En1
 BYTE   W01
 BYTE   N02  Fn2  v116
 BYTE   W07
// 067   ----------------------------------------
 BYTE   Cn1
 BYTE   W07
 BYTE   Cn1  v127
 BYTE   N02  Fn2
 BYTE   W07
 BYTE   N03  Cn1
 BYTE   W07
 BYTE   N04  En1
 BYTE   N03  Fn2  v124
 BYTE   W08
 BYTE   N02  Cn1
 BYTE   W07
 BYTE   Cn1  v127
 BYTE   N02  Fn2  v124
 BYTE   W07
 BYTE   Cn1  v116
 BYTE   W07
 BYTE   Fn2  v127
 BYTE   W01
 BYTE   N03  En1
 BYTE   W07
 BYTE   N02  Cn1
 BYTE   W07
 BYTE   N03  Cn1  v116
 BYTE   N03  Fn2
 BYTE   W15
 BYTE   N04  En1  v127
 BYTE   N02  Fn2
 BYTE   W07
 BYTE   Cn1  v100
 BYTE   W07
 BYTE   Cn1  v127
 BYTE   N03  An2  v100
 BYTE   W02
// 068   ----------------------------------------
 BYTE   W06
 BYTE   Cn1  v127
 BYTE   W07
 BYTE   En1
 BYTE   N03  Fn2
 BYTE   W07
 BYTE   N02  Cn1
 BYTE   W07
 BYTE   Fn2  v124
 BYTE   W01
 BYTE   Cn1  v127
 BYTE   W07
 BYTE   N03
 BYTE   W07
 BYTE   En1
 BYTE   N02  Fn2
 BYTE   W07
 BYTE   Cn1  v116
 BYTE   W07
 BYTE   N03  Cn1  v127
 BYTE   N02  Fn2  v124
 BYTE   W08
 BYTE   N03  Cn1
 BYTE   W07
 BYTE   N04  En1  v127
 BYTE   N02  Fn2  v112
 BYTE   W07
 BYTE   Cn1  v120
 BYTE   W08
 BYTE   Cn1  v127
 BYTE   N02  Fn2
 BYTE   W07
 BYTE   Cn1
 BYTE   W03
// 069   ----------------------------------------
 BYTE   W04
 BYTE   N03  En1
 BYTE   N03  Fn2
 BYTE   W08
 BYTE   N02  Cn1  v124
 BYTE   W07
 BYTE   Cn1  v127
 BYTE   N03  Cs2  v092
 BYTE   W07
 BYTE   Cn1  v124
 BYTE   W07
 BYTE   N04  En1  v127
 BYTE   W01
 BYTE   N02  As1  v084
 BYTE   W07
 BYTE   Cn1  v092
 BYTE   W07
 BYTE   Cn1  v104
 BYTE   N03  As1  v084
 BYTE   W07
 BYTE   Cn1  v104
 BYTE   W08
 BYTE   En1  v127
 BYTE   N02  As1  v072
 BYTE   W07
 BYTE   Cn1  v116
 BYTE   W07
 BYTE   Cn1  v124
 BYTE   N02  As1  v092
 BYTE   W07
 BYTE   N03  Cn1  v116
 BYTE   W08
 BYTE   N04  En1  v127
 BYTE   N02  As1  v092
 BYTE   W04
// 070   ----------------------------------------
 BYTE   W03
 BYTE   Cn1  v116
 BYTE   W07
 BYTE   Cn1  v112
 BYTE   N02  As1  v080
 BYTE   W08
 BYTE   N03  Cn1  v124
 BYTE   W07
 BYTE   N02  En1  v127
 BYTE   N02  As1  v092
 BYTE   W07
 BYTE   N03  En1  v127
 BYTE   W08
 BYTE   N02  Cn1  v124
 BYTE   N03  Cs2  v092
 BYTE   W07
 BYTE   Cn1  v127
 BYTE   W07
 BYTE   En1
 BYTE   N02  As1  v092
 BYTE   W07
 BYTE   Cn1  v124
 BYTE   W07
 BYTE   Cn1  v116
 BYTE   N02  As1  v080
 BYTE   W08
 BYTE   N04  Cn1  v127
 BYTE   W07
 BYTE   N02  En1
 BYTE   W01
 BYTE   As1  v080
 BYTE   W06
 BYTE   N03  En1  v127
 BYTE   W06
// 071   ----------------------------------------
 BYTE   W02
 BYTE   N02  Cn1  v104
 BYTE   N02  As1  v096
 BYTE   W07
 BYTE   N03  Cn1  v127
 BYTE   W07
 BYTE   En1
 BYTE   N02  As1  v080
 BYTE   W08
 BYTE   Cn1  v127
 BYTE   W06
 BYTE   As1  v092
 BYTE   W01
 BYTE   Cn1  v116
 BYTE   W07
 BYTE   N03  Cn1  v124
 BYTE   W07
 BYTE   N04  En1  v127
 BYTE   W01
 BYTE   N02  As1  v092
 BYTE   W07
 BYTE   Cn1  v116
 BYTE   W07
 BYTE   Cn1  v120
 BYTE   N03  Cs2  v084
 BYTE   W07
 BYTE   Cn1  v120
 BYTE   W07
 BYTE   En1  v127
 BYTE   W01
 BYTE   N02  As1  v088
 BYTE   W07
 BYTE   Cn1  v116
 BYTE   W07
 BYTE   Cn1  v112
 BYTE   N02  As1  v092
 BYTE   W07
// 072   ----------------------------------------
 BYTE   N03  Cn1  v120
 BYTE   W08
 BYTE   En1  v127
 BYTE   N02  As1  v084
 BYTE   W07
 BYTE   Cn1  v104
 BYTE   W07
 BYTE   N03  Cn1  v116
 BYTE   N02  As1  v100
 BYTE   W08
 BYTE   N03  Cn1  v116
 BYTE   W07
 BYTE   En1  v127
 BYTE   N02  As1  v084
 BYTE   W07
 BYTE   Cn1  v127
 BYTE   W07
 BYTE   N03  As1  v076
 BYTE   W01
 BYTE   N02  Cn1  v120
 BYTE   W07
 BYTE   N03  Cn1  v124
 BYTE   W07
 BYTE   En1  v127
 BYTE   N02  As1  v104
 BYTE   W07
 BYTE   Cn1  v127
 BYTE   W07
 BYTE   Cn1  v116
 BYTE   N04  Cs2  v080
 BYTE   W08
 BYTE   N03  Cn1  v112
 BYTE   W07
 BYTE   En1  v127
 BYTE   W01
// 073   ----------------------------------------
 BYTE   N02  As1  v084
 BYTE   W06
 BYTE   Cn1  v120
 BYTE   W08
 BYTE   Cn1  v124
 BYTE   N02  As1  v080
 BYTE   W07
 BYTE   N03  Cn1  v116
 BYTE   W07
 BYTE   En1  v127
 BYTE   N02  As1  v072
 BYTE   W08
 BYTE   Cn1  v116
 BYTE   W07
 BYTE   N03  Cn1  v112
 BYTE   N02  As1  v096
 BYTE   W07
 BYTE   N03  Cn1  v124
 BYTE   W07
 BYTE   En1  v127
 BYTE   N02  As1  v084
 BYTE   W07
 BYTE   Cn1  v116
 BYTE   W08
 BYTE   Cn1  v124
 BYTE   N02  As1  v084
 BYTE   W07
 BYTE   Cn1  v116
 BYTE   W07
 BYTE   N03  En1  v127
 BYTE   W01
 BYTE   N02  As1  v100
 BYTE   W07
 BYTE   Cn1  v127
 BYTE   W02
// 074   ----------------------------------------
 BYTE   W04
 BYTE   As1  v120
 BYTE   W01
 BYTE   N03  Cn1  v127
 BYTE   N04  Fn1
 BYTE   N03  Gn1
 BYTE   N02  An2  v080
 BYTE   W15
 BYTE   En1  v116
 BYTE   N06  Gs1  v127
 BYTE   W07
 BYTE   N03  Cn1
 BYTE   W15
 BYTE   Cn1  v124
 BYTE   W07
 BYTE   N02  En1  v127
 BYTE   N03  Gs1
 BYTE   W22
 BYTE   Cn1  v116
 BYTE   W07
 BYTE   En1
 BYTE   N03  Gs1  v127
 BYTE   W14
 BYTE   Cn1  v088
 BYTE   W01
 BYTE   N02  Cn2  v112
 BYTE   N02  Dn2  v104
 BYTE   W03
// 075   ----------------------------------------
 BYTE   W04
 BYTE   N03  Cn1  v092
 BYTE   W02
 BYTE   N02  Cn2
 BYTE   W01
 BYTE   Bn1  v112
 BYTE   W04
 BYTE   N03  Gs1  v127
 BYTE   W05
 BYTE   N02  An1  v116
 BYTE   N02  Bn1  v124
 BYTE   W10
 BYTE   N03  Cn1
 BYTE   N01  Fn1  v092
 BYTE   N02  Gn1  v127
 BYTE   N02  An1
 BYTE   N05  Cs2  v120
 BYTE   W14
 BYTE   N02  En1  v112
 BYTE   N02  Gs1  v127
 BYTE   W08
 BYTE   N03  Cn1
 BYTE   W14
 BYTE   Cn1  v104
 BYTE   W07
 BYTE   En1  v127
 BYTE   N03  Gs1
 BYTE   W22
 BYTE   Cn1  v124
 BYTE   W05
// 076   ----------------------------------------
 BYTE   W02
 BYTE   N02  En1  v127
 BYTE   N02  Gs1
 BYTE   W15
 BYTE   Cn1
 BYTE   N03  Dn2  v116
 BYTE   W07
 BYTE   Cn1  v120
 BYTE   W03
 BYTE   N02  Bn1  v112
 BYTE   N03  Cn2  v116
 BYTE   W05
 BYTE   N02  Gs1  v127
 BYTE   W05
 BYTE   An1
 BYTE   N02  Bn1  v116
 BYTE   W02
 BYTE   Cn1  v104
 BYTE   W07
 BYTE   N04  Cn1  v116
 BYTE   N02  Gn1  v120
 BYTE   N02  An1  v127
 BYTE   N07  An2  v112
 BYTE   W15
 BYTE   N02  En1  v116
 BYTE   N02  Gs1  v127
 BYTE   W07
 BYTE   N03  Cn1  v120
 BYTE   W15
 BYTE   Cn1  v127
 BYTE   W07
 BYTE   N02  En1
 BYTE   N02  Gs1
 BYTE   W06
// 077   ----------------------------------------
 BYTE   W16
 BYTE   N03  Cn1
 BYTE   W07
 BYTE   En1
 BYTE   N03  Gs1
 BYTE   W15
 BYTE   N02  Cn1  v120
 BYTE   N01  Cn2  v112
 BYTE   N01  Dn2  v100
 BYTE   W02
 BYTE   N02  Cn2  v124
 BYTE   N02  Dn2  v116
 BYTE   W05
 BYTE   N03  Cn1  v112
 BYTE   W03
 BYTE   N02  Bn1
 BYTE   N02  Cn2  v124
 BYTE   W04
 BYTE   Gs1  v127
 BYTE   W04
 BYTE   N01  An1  v100
 BYTE   N01  Bn1  v127
 BYTE   W03
 BYTE   N02  Gn1
 BYTE   N02  An1  v100
 BYTE   N02  Bn1  v127
 BYTE   W01
 BYTE   Cn1  v112
 BYTE   W07
 BYTE   GoTo
  POIN2 Label_5_0118EEEA
 BYTE   FINE

//******************************************************//
	ALIGN 4

DOOMIntermissionfromDoomDolkar:
	BYTE	6	// NumTrks
	BYTE	0	// NumBlks
	BYTE	DOOMIntermissionfromDoomDolkar_pri	// Priority
	BYTE	DOOMIntermissionfromDoomDolkar_rev	// Reverb.
    
	POIN2	DOOMIntermissionfromDoomDolkar_grp
    
	POIN2	DOOMIntermissionfromDoomDolkar_001
	POIN2	DOOMIntermissionfromDoomDolkar_002
	POIN2	DOOMIntermissionfromDoomDolkar_003
	POIN2	DOOMIntermissionfromDoomDolkar_004
	POIN2	DOOMIntermissionfromDoomDolkar_005
	POIN2	DOOMIntermissionfromDoomDolkar_006

	
