//Event file generated from Sappy .s format.
	#include "MPlayDef.event"

	#define	TRSBerwickSagaBringtheWindRSflame_grp  voicegroup000
	#define	TRSBerwickSagaBringtheWindRSflame_pri  10
	#define	TRSBerwickSagaBringtheWindRSflame_rev  0
	#define	TRSBerwickSagaBringtheWindRSflame_mvl  127
	#define	TRSBerwickSagaBringtheWindRSflame_key  0
	#define	TRSBerwickSagaBringtheWindRSflame_tbs  1
	#define	TRSBerwickSagaBringtheWindRSflame_exg  0
	#define	TRSBerwickSagaBringtheWindRSflame_cmp  1

	// .rodata
	//	TRSBerwickSagaBringtheWindRSflame
	ALIGN 4


//**************** Track 1 (Midi-Chn.0) ****************//

TRSBerwickSagaBringtheWindRSflame_001:
// 000   ----------------------------------------
Label_0_017244F8:
 BYTE   TEMPO   200*TRSBerwickSagaBringtheWindRSflame_tbs/2
 BYTE   KEYSH   TRSBerwickSagaBringtheWindRSflame_key+0
 BYTE   VOICE   54
 BYTE   MOD 0
 BYTE   CnM2
 BYTE   VOL   54*TRSBerwickSagaBringtheWindRSflame_mvl/mxv
 BYTE   PAN   c_v-40
 BYTE   BEND   c_v+0
 BYTE   TEMPO   80*TRSBerwickSagaBringtheWindRSflame_tbs/2
 BYTE   W96
// 001   ----------------------------------------
 BYTE   W96
// 002   ----------------------------------------
 BYTE   W96
// 003   ----------------------------------------
 BYTE   W96
// 004   ----------------------------------------
 BYTE   W96
// 005   ----------------------------------------
 BYTE   W96
// 006   ----------------------------------------
 BYTE   W96
// 007   ----------------------------------------
 BYTE   W96
// 008   ----------------------------------------
 BYTE   W96
// 009   ----------------------------------------
 BYTE   W96
// 010   ----------------------------------------
 BYTE   W96
// 011   ----------------------------------------
 BYTE   W96
// 012   ----------------------------------------
 BYTE   W96
// 013   ----------------------------------------
 BYTE   W96
// 014   ----------------------------------------
 BYTE   W96
// 015   ----------------------------------------
 BYTE   W96
// 016   ----------------------------------------
 BYTE   W96
// 017   ----------------------------------------
 BYTE   W96
// 018   ----------------------------------------
 BYTE   N96  An4  v123
 BYTE   W96
// 019   ----------------------------------------
 BYTE   Gn4
 BYTE   W96
// 020   ----------------------------------------
 BYTE   N48  An4
 BYTE   W48
 BYTE   Bn4
 BYTE   W48
// 021   ----------------------------------------
 BYTE   N24  En5
 BYTE   W24
 BYTE   Cn5
 BYTE   W24
 BYTE   Bn4
 BYTE   W24
 BYTE   Gn4
 BYTE   W96
// 022   ----------------------------------------
 BYTE   W96
// 023   ----------------------------------------
 BYTE   W96
// 024   ----------------------------------------
 BYTE   W96
// 025   ----------------------------------------
 BYTE   W96
// 026   ----------------------------------------
 BYTE   W96
// 027   ----------------------------------------
 BYTE   W96
// 028   ----------------------------------------
 BYTE   W96
// 029   ----------------------------------------
 BYTE   W12
 BYTE   N06  Dn4
 BYTE   N06  Dn3
 BYTE   W06
 BYTE   En4
 BYTE   N06  En3
 BYTE   W06
 BYTE   N48  Fn4
 BYTE   N48  Fn3
 BYTE   W48
 BYTE   N18  Gn4
 BYTE   N18  Gn3
 BYTE   W18
 BYTE   Fn4
 BYTE   N18  Fn3
 BYTE   W18
// 030   ----------------------------------------
 BYTE   N12  Gn4
 BYTE   N12  Gn3
 BYTE   W12
 BYTE   N36  En4
 BYTE   N36  En3
 BYTE   W36
 BYTE   N12  Dn4
 BYTE   N12  Dn3
 BYTE   W12
 BYTE   N36  En4
 BYTE   N36  En3
 BYTE   W36
// 031   ----------------------------------------
 BYTE   N06  An4
 BYTE   N06  An3
 BYTE   W06
 BYTE   Cn5
 BYTE   N06  Cn4
 BYTE   W06
 BYTE   N24  Cn5
 BYTE   N24  Cn4
 BYTE   W24
 BYTE   As4
 BYTE   N24  As3
 BYTE   W24
 BYTE   An4
 BYTE   N24  An3
 BYTE   W24
 BYTE   Gn4
 BYTE   N24  Gn3
 BYTE   W24
// 032   ----------------------------------------
 BYTE   N12  Gn4
 BYTE   N12  Gn3
 BYTE   W12
 BYTE   N06  An4
 BYTE   N06  An3
 BYTE   W06
 BYTE   N18  Fn4
 BYTE   N18  Fn3
 BYTE   W18
 BYTE   N12  En4
 BYTE   N12  En3
 BYTE   W12
 BYTE   N36  Dn4
 BYTE   N36  Dn3
 BYTE   W36
 BYTE   N06  An4
 BYTE   N06  An3
 BYTE   W06
 BYTE   Cn5
 BYTE   N06  Cn4
 BYTE   W06
// 033   ----------------------------------------
 BYTE   N24  Cn5
 BYTE   N24  Cn4
 BYTE   W24
 BYTE   As4
 BYTE   N24  As3
 BYTE   W24
 BYTE   An4
 BYTE   N24  An3
 BYTE   W24
 BYTE   Gn4
 BYTE   N24  Gn3
 BYTE   W24
// 034   ----------------------------------------
 BYTE   N12  Gn4
 BYTE   N12  Gn3
 BYTE   W12
 BYTE   N18  An4
 BYTE   N18  An3
 BYTE   W18
 BYTE   N06  Fn4
 BYTE   N06  Fn3
 BYTE   W06
 BYTE   En4
 BYTE   N06  En3
 BYTE   W06
 BYTE   Fn4
 BYTE   N06  Fn3
 BYTE   W06
 BYTE   N36  Dn4
 BYTE   N36  Dn3
 BYTE   W36
 BYTE   N06  Dn4
 BYTE   N06  Dn3
 BYTE   W06
 BYTE   En4
 BYTE   N06  En3
 BYTE   W06
// 035   ----------------------------------------
 BYTE   N84  Fn4
 BYTE   N84  Fn3
 BYTE   W84
 BYTE   N06  Dn4
 BYTE   N06  Dn3
 BYTE   W06
 BYTE   En4
 BYTE   N06  En3
 BYTE   W06
// 036   ----------------------------------------
 BYTE   N48  Fn4
 BYTE   N48  Fn3
 BYTE   W48
 BYTE   Gn4
 BYTE   N48  Gn3
 BYTE   MOD 0
 BYTE   CnM2
 BYTE   W42
 BYTE   W01
 BYTE   W04
 BYTE   W54
// 037   ----------------------------------------
 BYTE   W17
 BYTE   GoTo
  POIN2 Label_0_017244F8
 BYTE   FINE

//**************** Track 2 (Midi-Chn.1) ****************//

TRSBerwickSagaBringtheWindRSflame_002:
// 000   ----------------------------------------
Label_1_017239F4:
 BYTE   TEMPO   200*TRSBerwickSagaBringtheWindRSflame_tbs/2
 BYTE   KEYSH   TRSBerwickSagaBringtheWindRSflame_key+0
 BYTE   VOICE   54
 BYTE   MOD 0
 BYTE   CnM2
 BYTE   VOL   27*TRSBerwickSagaBringtheWindRSflame_mvl/mxv
 BYTE   PAN   c_v+63
 BYTE   BEND   c_v+0
 BYTE   TEMPO   80*TRSBerwickSagaBringtheWindRSflame_tbs/2
 BYTE   W96
// 001   ----------------------------------------
 BYTE   W96
// 002   ----------------------------------------
 BYTE   W96
// 003   ----------------------------------------
 BYTE   W96
// 004   ----------------------------------------
 BYTE   W96
// 005   ----------------------------------------
 BYTE   W96
// 006   ----------------------------------------
 BYTE   W96
// 007   ----------------------------------------
 BYTE   W96
// 008   ----------------------------------------
 BYTE   W96
// 009   ----------------------------------------
 BYTE   W96
// 010   ----------------------------------------
 BYTE   W96
// 011   ----------------------------------------
 BYTE   W96
// 012   ----------------------------------------
 BYTE   W96
// 013   ----------------------------------------
 BYTE   W96
// 014   ----------------------------------------
 BYTE   W96
// 015   ----------------------------------------
 BYTE   W96
// 016   ----------------------------------------
 BYTE   W96
// 017   ----------------------------------------
 BYTE   W96
// 018   ----------------------------------------
 BYTE   N96  An4  v123
 BYTE   W96
// 019   ----------------------------------------
 BYTE   Gn4
 BYTE   W96
// 020   ----------------------------------------
 BYTE   N48  An4
 BYTE   W48
 BYTE   Bn4
 BYTE   W48
// 021   ----------------------------------------
 BYTE   N24  En5  v113
 BYTE   W24
 BYTE   Cn5  v123
 BYTE   W24
 BYTE   Bn4
 BYTE   W24
 BYTE   Gn4
 BYTE   W96
// 022   ----------------------------------------
 BYTE   W96
// 023   ----------------------------------------
 BYTE   W96
// 024   ----------------------------------------
 BYTE   W96
// 025   ----------------------------------------
 BYTE   W96
// 026   ----------------------------------------
 BYTE   W96
// 027   ----------------------------------------
 BYTE   W96
// 028   ----------------------------------------
 BYTE   W96
// 029   ----------------------------------------
 BYTE   W12
 BYTE   N06  Dn4
 BYTE   N06  Dn3
 BYTE   W06
 BYTE   En4
 BYTE   N06  En3
 BYTE   W06
 BYTE   N48  Fn4
 BYTE   N48  Fn3
 BYTE   W48
 BYTE   N18  Gn4
 BYTE   N18  Gn3
 BYTE   W18
 BYTE   Fn4
 BYTE   N18  Fn3
 BYTE   W18
// 030   ----------------------------------------
 BYTE   N12  Gn4
 BYTE   N12  Gn3
 BYTE   W12
 BYTE   N36  En4
 BYTE   N36  En3
 BYTE   W36
 BYTE   N12  Dn4
 BYTE   N12  Dn3
 BYTE   W12
 BYTE   N36  En4
 BYTE   N36  En3
 BYTE   W36
// 031   ----------------------------------------
 BYTE   N06  An4
 BYTE   N06  An3
 BYTE   W06
 BYTE   Cn5
 BYTE   N06  Cn4
 BYTE   W06
 BYTE   N24  Cn5
 BYTE   N24  Cn4
 BYTE   W24
 BYTE   As4
 BYTE   N24  As3
 BYTE   W24
 BYTE   An4
 BYTE   N24  An3
 BYTE   W24
 BYTE   Gn4
 BYTE   N24  Gn3
 BYTE   W24
// 032   ----------------------------------------
 BYTE   N12  Gn4
 BYTE   N12  Gn3
 BYTE   W12
 BYTE   N06  An4
 BYTE   N06  An3
 BYTE   W06
 BYTE   N18  Fn4
 BYTE   N18  Fn3
 BYTE   W18
 BYTE   N12  En4
 BYTE   N12  En3
 BYTE   W12
 BYTE   N36  Dn4
 BYTE   N36  Dn3
 BYTE   W36
 BYTE   N06  An4
 BYTE   N06  An3
 BYTE   W06
 BYTE   Cn5
 BYTE   N06  Cn4
 BYTE   W06
// 033   ----------------------------------------
 BYTE   N24  Cn5
 BYTE   N24  Cn4
 BYTE   W24
 BYTE   As4
 BYTE   N24  As3
 BYTE   W24
 BYTE   An4
 BYTE   N24  An3
 BYTE   W24
 BYTE   Gn4
 BYTE   N24  Gn3
 BYTE   W24
// 034   ----------------------------------------
 BYTE   N12  Gn4
 BYTE   N12  Gn3
 BYTE   W12
 BYTE   N18  An4
 BYTE   N18  An3
 BYTE   W18
 BYTE   N06  Fn4
 BYTE   N06  Fn3
 BYTE   W06
 BYTE   En4
 BYTE   N06  En3
 BYTE   W06
 BYTE   Fn4
 BYTE   N06  Fn3
 BYTE   W06
 BYTE   N36  Dn4
 BYTE   N36  Dn3
 BYTE   W36
 BYTE   N06  Dn4
 BYTE   N06  Dn3
 BYTE   W06
 BYTE   En4
 BYTE   N06  En3
 BYTE   W06
// 035   ----------------------------------------
 BYTE   N84  Fn4
 BYTE   N84  Fn3
 BYTE   W84
 BYTE   N06  Dn4
 BYTE   N06  Dn3
 BYTE   W06
 BYTE   En4
 BYTE   N06  En3
 BYTE   W06
// 036   ----------------------------------------
 BYTE   N48  Fn4
 BYTE   N48  Fn3
 BYTE   W48
 BYTE   Gn4
 BYTE   N48  Gn3
 BYTE   W42
 BYTE   W01
 BYTE   W04
 BYTE   W54
// 037   ----------------------------------------
 BYTE   W17
 BYTE   GoTo
  POIN2 Label_1_017239F4
 BYTE   FINE

//**************** Track 3 (Midi-Chn.2) ****************//

TRSBerwickSagaBringtheWindRSflame_003:
// 000   ----------------------------------------
Label_2_01722E84:
 BYTE   TEMPO   200*TRSBerwickSagaBringtheWindRSflame_tbs/2
 BYTE   KEYSH   TRSBerwickSagaBringtheWindRSflame_key+0
 BYTE   VOICE   42
 BYTE   MOD 0
 BYTE   CnM2
 BYTE   VOL   45*TRSBerwickSagaBringtheWindRSflame_mvl/mxv
 BYTE   PAN   c_v+36
 BYTE   BEND   c_v+0
 BYTE   N18  Dn1  v090
 BYTE   TEMPO   80*TRSBerwickSagaBringtheWindRSflame_tbs/2
 BYTE   W18
 BYTE   N78  Dn1  v090
 BYTE   W78
// 001   ----------------------------------------
 BYTE   N18
 BYTE   W18
 BYTE   N78
 BYTE   W78
// 002   ----------------------------------------
 BYTE   N18
 BYTE   W18
 BYTE   N78
 BYTE   W78
// 003   ----------------------------------------
 BYTE   N18
 BYTE   W18
 BYTE   N78
 BYTE   W78
// 004   ----------------------------------------
 BYTE   N18
 BYTE   W18
 BYTE   N78
 BYTE   W78
// 005   ----------------------------------------
 BYTE   N18
 BYTE   W18
 BYTE   N78
 BYTE   W78
// 006   ----------------------------------------
Label_2_01722EB0:
 BYTE   N18  Dn1  v090
 BYTE   W18
 BYTE   N78
 BYTE   W78
 BYTE   PEND 
// 007   ----------------------------------------
 BYTE   PATT
  POIN2 Label_2_01722EB0
// 008   ----------------------------------------
 BYTE   PATT
  POIN2 Label_2_01722EB0
// 009   ----------------------------------------
 BYTE   PATT
  POIN2 Label_2_01722EB0
// 010   ----------------------------------------
 BYTE   PATT
  POIN2 Label_2_01722EB0
// 011   ----------------------------------------
 BYTE   PATT
  POIN2 Label_2_01722EB0
// 012   ----------------------------------------
 BYTE   PATT
  POIN2 Label_2_01722EB0
// 013   ----------------------------------------
 BYTE   PATT
  POIN2 Label_2_01722EB0
// 014   ----------------------------------------
 BYTE   PATT
  POIN2 Label_2_01722EB0
// 015   ----------------------------------------
 BYTE   PATT
  POIN2 Label_2_01722EB0
// 016   ----------------------------------------
 BYTE   PATT
  POIN2 Label_2_01722EB0
// 017   ----------------------------------------
 BYTE   PATT
  POIN2 Label_2_01722EB0
// 018   ----------------------------------------
 BYTE   PATT
  POIN2 Label_2_01722EB0
// 019   ----------------------------------------
 BYTE   PATT
  POIN2 Label_2_01722EB0
// 020   ----------------------------------------
 BYTE   PATT
  POIN2 Label_2_01722EB0
// 021   ----------------------------------------
 BYTE   PATT
  POIN2 Label_2_01722EB0
// 022   ----------------------------------------
 BYTE   PATT
  POIN2 Label_2_01722EB0
// 023   ----------------------------------------
 BYTE   PATT
  POIN2 Label_2_01722EB0
// 024   ----------------------------------------
 BYTE   PATT
  POIN2 Label_2_01722EB0
// 025   ----------------------------------------
 BYTE   PATT
  POIN2 Label_2_01722EB0
// 026   ----------------------------------------
 BYTE   PATT
  POIN2 Label_2_01722EB0
// 027   ----------------------------------------
 BYTE   PATT
  POIN2 Label_2_01722EB0
// 028   ----------------------------------------
 BYTE   PATT
  POIN2 Label_2_01722EB0
// 029   ----------------------------------------
 BYTE   PATT
  POIN2 Label_2_01722EB0
// 030   ----------------------------------------
 BYTE   N18  As1  v090
 BYTE   W18
 BYTE   N30
 BYTE   W30
 BYTE   N18  An1
 BYTE   W18
 BYTE   N30
 BYTE   W30
// 031   ----------------------------------------
 BYTE   N18  Dn1
 BYTE   W18
 BYTE   N30
 BYTE   W30
 BYTE   N18
 BYTE   W18
 BYTE   N30
 BYTE   W30
// 032   ----------------------------------------
 BYTE   N18  As1
 BYTE   W18
 BYTE   N30
 BYTE   W30
 BYTE   N18  Cn2
 BYTE   W18
 BYTE   N30
 BYTE   W30
// 033   ----------------------------------------
Label_2_01722F48:
 BYTE   N18  Dn1  v090
 BYTE   W18
 BYTE   N30
 BYTE   W30
 BYTE   N18  Gn1
 BYTE   W18
 BYTE   N30
 BYTE   W30
 BYTE   PEND 
// 034   ----------------------------------------
 BYTE   N18  As1  v090
 BYTE   W18
 BYTE   N30
 BYTE   W30
 BYTE   N18  Cs2
 BYTE   W18
 BYTE   N30
 BYTE   W30
// 035   ----------------------------------------
 BYTE   PATT
  POIN2 Label_2_01722F48
// 036   ----------------------------------------
 BYTE   N18  Cn1  v090
 BYTE   W18
 BYTE   N30
 BYTE   W30
 BYTE   N18
 BYTE   W18
 BYTE   N30
 BYTE   W30
// 037   ----------------------------------------
 BYTE   N18  An1
 BYTE   W18
 BYTE   N30
 BYTE   W30
 BYTE   N18
 BYTE   W18
 BYTE   N30
 BYTE   W24
 BYTE   W01
 BYTE   W04
 BYTE   W54
// 038   ----------------------------------------
 BYTE   W17
 BYTE   GoTo
  POIN2 Label_2_01722E84
 BYTE   FINE

//**************** Track 4 (Midi-Chn.3) ****************//

TRSBerwickSagaBringtheWindRSflame_004:
// 000   ----------------------------------------
Label_3_01E53234:
 BYTE   TEMPO   200*TRSBerwickSagaBringtheWindRSflame_tbs/2
 BYTE   KEYSH   TRSBerwickSagaBringtheWindRSflame_key+0
 BYTE   VOICE   46
 BYTE   MOD 0
 BYTE   CnM2
 BYTE   VOL   17*TRSBerwickSagaBringtheWindRSflame_mvl/mxv
 BYTE   PAN   c_v+19
 BYTE   BEND   c_v+0
 BYTE   TEMPO   80*TRSBerwickSagaBringtheWindRSflame_tbs/2
 BYTE   W96
// 001   ----------------------------------------
 BYTE   W96
// 002   ----------------------------------------
 BYTE   W96
// 003   ----------------------------------------
 BYTE   W96
// 004   ----------------------------------------
 BYTE   W96
// 005   ----------------------------------------
 BYTE   W96
// 006   ----------------------------------------
 BYTE   W96
// 007   ----------------------------------------
 BYTE   W96
// 008   ----------------------------------------
 BYTE   W96
// 009   ----------------------------------------
 BYTE   W96
// 010   ----------------------------------------
 BYTE   W96
// 011   ----------------------------------------
 BYTE   W96
// 012   ----------------------------------------
 BYTE   W96
// 013   ----------------------------------------
 BYTE   W96
// 014   ----------------------------------------
 BYTE   W96
// 015   ----------------------------------------
 BYTE   W96
// 016   ----------------------------------------
 BYTE   W96
// 017   ----------------------------------------
 BYTE   W96
// 018   ----------------------------------------
 BYTE   W96
// 019   ----------------------------------------
 BYTE   W96
// 020   ----------------------------------------
 BYTE   W96
// 021   ----------------------------------------
 BYTE   W96
// 022   ----------------------------------------
Label_3_01E5325A:
 BYTE   N11  An3  v123
 BYTE   N11  Fn3
 BYTE   W18
 BYTE   Cn4
 BYTE   N11  An3
 BYTE   W18
 BYTE   Bn3
 BYTE   N11  Gn3
 BYTE   W18
 BYTE   Gn3
 BYTE   N11  Dn3
 BYTE   W18
 BYTE   An3
 BYTE   N11  Dn3
 BYTE   W12
 BYTE   Gn3
 BYTE   N11  Dn3
 BYTE   W12
 BYTE   PEND 
// 023   ----------------------------------------
Label_3_01E53275:
 BYTE   N11  An3  v123
 BYTE   N11  Fn3
 BYTE   W18
 BYTE   Dn4
 BYTE   N11  An3
 BYTE   W18
 BYTE   Cn4
 BYTE   N11  An3
 BYTE   W18
 BYTE   Bn3
 BYTE   N11  Gn3
 BYTE   W18
 BYTE   Cn4
 BYTE   N11  An3
 BYTE   W12
 BYTE   Bn3
 BYTE   N11  Gn3
 BYTE   W12
 BYTE   PEND 
// 024   ----------------------------------------
 BYTE   PATT
  POIN2 Label_3_01E5325A
// 025   ----------------------------------------
 BYTE   PATT
  POIN2 Label_3_01E53275
// 026   ----------------------------------------
 BYTE   PATT
  POIN2 Label_3_01E5325A
// 027   ----------------------------------------
 BYTE   PATT
  POIN2 Label_3_01E53275
// 028   ----------------------------------------
 BYTE   PATT
  POIN2 Label_3_01E5325A
// 029   ----------------------------------------
 BYTE   PATT
  POIN2 Label_3_01E53275
// 030   ----------------------------------------
 BYTE   N17  As1  v123
 BYTE   W18
 BYTE   N28  Fn3
 BYTE   N28  An3
 BYTE   N28  Dn3
 BYTE   W01
 BYTE   N01  An3
 BYTE   N01  Dn3
 BYTE   N01  Fn3
 BYTE   W28
 BYTE   N17  An1
 BYTE   W18
 BYTE   N28  Gn3
 BYTE   N28  Cn4
 BYTE   N28  En3
 BYTE   W01
 BYTE   N01  Cn4
 BYTE   N01  En3
 BYTE   N01  Gn3
 BYTE   W28
 BYTE   N17  Dn1
 BYTE   W18
// 031   ----------------------------------------
 BYTE   N28  Fn3
 BYTE   N28  An3
 BYTE   N28  Cn3
 BYTE   W01
 BYTE   N01  An3
 BYTE   N01  Cn3
 BYTE   N01  Fn3
 BYTE   W28
 BYTE   N17  Dn1
 BYTE   W18
 BYTE   N28  Fn3
 BYTE   N28  An3
 BYTE   N28  Cn3
 BYTE   W01
 BYTE   N01  An3
 BYTE   N01  Cn3
 BYTE   N01  Fn3
 BYTE   W28
 BYTE   N17  As1
 BYTE   W18
 BYTE   N28  Fn3
 BYTE   N28  An3
 BYTE   N28  Dn3
 BYTE   W01
 BYTE   N01  An3
 BYTE   N01  Dn3
 BYTE   N01  Fn3
 BYTE   W28
// 032   ----------------------------------------
 BYTE   N17  Cn2
 BYTE   W18
 BYTE   N28  Gn3
 BYTE   N28  Cn4
 BYTE   N28  En3
 BYTE   W01
 BYTE   N01  Cn4
 BYTE   N01  En3
 BYTE   N01  Gn3
 BYTE   W28
Label_3_01E53315:
 BYTE   N17  Dn1  v123
 BYTE   W18
 BYTE   N28  Fn3
 BYTE   N28  An3
 BYTE   N28  Cn3
 BYTE   W01
 BYTE   N01  An3
 BYTE   N01  Cn3
 BYTE   N01  Fn3
 BYTE   W28
 BYTE   N17  Gn1
 BYTE   W18
// 033   ----------------------------------------
 BYTE   N28  Bn3
 BYTE   N28  Dn4
 BYTE   N28  Gn3
 BYTE   W01
 BYTE   N01  Dn4
 BYTE   N01  Gn3
 BYTE   N01  Bn3
 BYTE   W28
 BYTE   PEND 
 BYTE   N17  As1  v123
 BYTE   W18
 BYTE   N28  Fn3
 BYTE   N28  An3
 BYTE   N28  Dn3
 BYTE   W01
 BYTE   N01  An3
 BYTE   N01  Dn3
 BYTE   N01  Fn3
 BYTE   W28
 BYTE   N17  Cs2
 BYTE   W18
 BYTE   N28  En3
 BYTE   N28  An3
 BYTE   N28  Cs3
 BYTE   W01
 BYTE   N01  An3
 BYTE   N01  Cs3
 BYTE   N01  En3
 BYTE   W28
// 034   ----------------------------------------
 BYTE   PATT
  POIN2 Label_3_01E53315
// 035   ----------------------------------------
 BYTE   N17  Cn1  v123
 BYTE   W18
 BYTE   N28  Gn3
 BYTE   N28  As3
 BYTE   N28  Dn3
 BYTE   W01
 BYTE   N01  As3
 BYTE   N01  Dn3
 BYTE   N01  Gn3
 BYTE   W28
 BYTE   N17  Cn1
 BYTE   W18
 BYTE   N28  Gn3
 BYTE   N28  As3
 BYTE   N28  Dn3
 BYTE   W01
 BYTE   N01  As3
 BYTE   N01  Dn3
 BYTE   N01  Gn3
 BYTE   W28
 BYTE   N17  An1
 BYTE   W18
// 036   ----------------------------------------
 BYTE   N28  Fn3
 BYTE   N28  An3
 BYTE   N28  Cs3
 BYTE   W01
 BYTE   N01  An3
 BYTE   N01  Cs3
 BYTE   N01  Fn3
 BYTE   W28
 BYTE   N17  An1
 BYTE   W18
 BYTE   N28  En3
 BYTE   N28  Gn3
 BYTE   N28  Cs3
 BYTE   W01
 BYTE   N01  Gn3
 BYTE   N01  Cs3
 BYTE   N01  En3
 BYTE   W23
 BYTE   W04
 BYTE   W54
// 037   ----------------------------------------
 BYTE   W17
 BYTE   GoTo
  POIN2 Label_3_01E53234
 BYTE   FINE

//**************** Track 5 (Midi-Chn.4) ****************//

TRSBerwickSagaBringtheWindRSflame_005:
// 000   ----------------------------------------
Label_4_01E53BB0:
 BYTE   TEMPO   200*TRSBerwickSagaBringtheWindRSflame_tbs/2
 BYTE   KEYSH   TRSBerwickSagaBringtheWindRSflame_key+0
 BYTE   VOICE   73
 BYTE   MOD 0
 BYTE   CnM2
 BYTE   VOL   40*TRSBerwickSagaBringtheWindRSflame_mvl/mxv
 BYTE   PAN   c_v-10
 BYTE   BEND   c_v+0
 BYTE   MOD 0
 BYTE   CnM2
 BYTE   VOL   40*TRSBerwickSagaBringtheWindRSflame_mvl/mxv
 BYTE   PAN   c_v+15
 BYTE   BEND   c_v+0
 BYTE   TEMPO   80*TRSBerwickSagaBringtheWindRSflame_tbs/2
 BYTE   W96
// 001   ----------------------------------------
 BYTE   W96
// 002   ----------------------------------------
 BYTE   W96
// 003   ----------------------------------------
 BYTE   W96
// 004   ----------------------------------------
 BYTE   W96
// 005   ----------------------------------------
 BYTE   W28
 BYTE   PAN   c_v+10
 BYTE   W56
 BYTE   N05  Dn4  v127
 BYTE   W06
 BYTE   En4
 BYTE   W06
// 006   ----------------------------------------
 BYTE   N44  Fn4
 BYTE   W02
 BYTE   N03
 BYTE   W44
 BYTE   W01
 BYTE   N17  En4
 BYTE   W18
 BYTE   Gn3
 BYTE   W18
 BYTE   N11  Cn4
 BYTE   W12
 BYTE   N32  An3
 BYTE   W01
// 007   ----------------------------------------
 BYTE   N03
 BYTE   W32
 BYTE   W02
 BYTE   N05  Gn3
 BYTE   W06
 BYTE   Fn3
 BYTE   W06
 BYTE   N44  En3
 BYTE   W02
 BYTE   N03
 BYTE   W44
 BYTE   W01
 BYTE   N32  Dn3
 BYTE   W01
 BYTE   N03
 BYTE   W32
// 008   ----------------------------------------
 BYTE   W02
 BYTE   N11  An3
 BYTE   W12
 BYTE   N17  Cn4
 BYTE   W18
 BYTE   Bn3
 BYTE   W18
 BYTE   N11  Gn3
 BYTE   W12
 BYTE   N68  An3
 BYTE   W03
 BYTE   N03
 BYTE   W68
// 009   ----------------------------------------
 BYTE   N05  Dn4
 BYTE   W06
 BYTE   An3
 BYTE   W06
 BYTE   Dn4
 BYTE   W06
 BYTE   En4
 BYTE   W06
 BYTE   N44  Fn4
 BYTE   W02
 BYTE   N03
 BYTE   W44
 BYTE   W01
 BYTE   N17  En4
 BYTE   W18
 BYTE   Gn3
 BYTE   W18
// 010   ----------------------------------------
 BYTE   N11  Cn4
 BYTE   W12
 BYTE   N32  An3
 BYTE   W01
 BYTE   N03
 BYTE   W32
 BYTE   W02
 BYTE   N05  Gn3
 BYTE   W06
 BYTE   Fn3
 BYTE   W06
 BYTE   N44  En3
 BYTE   W02
 BYTE   N03
 BYTE   W44
// 011   ----------------------------------------
 BYTE   W01
 BYTE   N32  Dn3
 BYTE   W01
 BYTE   N03
 BYTE   W32
 BYTE   W02
 BYTE   N11  An3
 BYTE   W12
 BYTE   N17
 BYTE   W18
 BYTE   Gn3
 BYTE   W18
 BYTE   N11  Fn3
 BYTE   W12
// 012   ----------------------------------------
 BYTE   N96  Dn3
 BYTE   W04
 BYTE   N92
 BYTE   W04
 BYTE   N03
 BYTE   W96
// 013   ----------------------------------------
 BYTE   W96
// 014   ----------------------------------------
 BYTE   W96
// 015   ----------------------------------------
 BYTE   W96
// 016   ----------------------------------------
 BYTE   W72
 BYTE   W02
 BYTE   N06  An5  v123
 BYTE   W06
 BYTE   Gn5
 BYTE   W06
 BYTE   N92  An5
 BYTE   W04
 BYTE   N03
 BYTE   W90
// 017   ----------------------------------------
 BYTE   W01
 BYTE   N84  Gn5
 BYTE   W84
 BYTE   N06  Fn5
 BYTE   W06
 BYTE   Gn5
 BYTE   W06
// 018   ----------------------------------------
 BYTE   N48  En5
 BYTE   W48
 BYTE   Dn5
 BYTE   W48
// 019   ----------------------------------------
 BYTE   N44  Cn5
 BYTE   W02
 BYTE   N02
 BYTE   W44
 BYTE   W01
 BYTE   N36  Dn5
 BYTE   W36
 BYTE   N05  Dn4  v127
 BYTE   N06  Dn5  v123
 BYTE   W06
 BYTE   N05  En4  v127
 BYTE   N06  En5  v123
 BYTE   W06
 BYTE   N44  Fn4  v127
 BYTE   N48  Fn5  v123
 BYTE   W02
// 020   ----------------------------------------
 BYTE   N03  Fn4  v127
 BYTE   W44
 BYTE   W01
 BYTE   N17  En4
 BYTE   N18  En5  v123
 BYTE   W18
 BYTE   N17  Gn3  v127
 BYTE   N18  Gn4  v123
 BYTE   W18
 BYTE   N11  Cn4  v127
 BYTE   N12  Cn5  v123
 BYTE   W12
 BYTE   N32  An3  v127
 BYTE   N36  An4  v123
 BYTE   W01
 BYTE   N03  An3  v127
 BYTE   W32
// 021   ----------------------------------------
 BYTE   W02
 BYTE   N05  Gn3
 BYTE   N06  Gn4  v123
 BYTE   W06
 BYTE   N05  Fn3  v127
 BYTE   N06  Fn4  v123
 BYTE   W06
 BYTE   N44  En3  v127
 BYTE   N48  En4  v123
 BYTE   W02
 BYTE   N03  En3  v127
 BYTE   W44
 BYTE   W01
 BYTE   N32  Dn3
 BYTE   N36  Dn4  v123
 BYTE   W01
 BYTE   N03  Dn3  v127
 BYTE   W32
 BYTE   W02
// 022   ----------------------------------------
 BYTE   N11  An3
 BYTE   N12  An4  v123
 BYTE   W12
 BYTE   N28  Cn4  v127
 BYTE   N30  Cn5  v123
 BYTE   W01
 BYTE   N01  Cn4  v127
 BYTE   W28
 BYTE   N05  Dn4
 BYTE   N06  Dn5  v123
 BYTE   W06
 BYTE   N05  Bn3  v127
 BYTE   N06  Bn4  v123
 BYTE   W06
 BYTE   N05  Gn3  v127
 BYTE   N06  Gn4  v123
 BYTE   W06
 BYTE   N68  An3  v127
 BYTE   N72  An4  v123
 BYTE   W03
 BYTE   N03  An3  v127
 BYTE   W68
// 023   ----------------------------------------
 BYTE   N05  Dn4
 BYTE   N06  Dn5  v123
 BYTE   W06
 BYTE   N05  An3  v127
 BYTE   N06  An4  v123
 BYTE   W06
 BYTE   N05  Dn4  v127
 BYTE   N06  Dn5  v123
 BYTE   W06
 BYTE   N05  En4  v127
 BYTE   N06  En5  v123
 BYTE   W06
 BYTE   N44  Fn4  v127
 BYTE   N48  Fn5  v123
 BYTE   W02
 BYTE   N03  Fn4  v127
 BYTE   W44
 BYTE   W01
 BYTE   N17  En4
 BYTE   N18  En5  v123
 BYTE   W18
 BYTE   N17  Gn3  v127
 BYTE   N18  Gn4  v123
 BYTE   W18
// 024   ----------------------------------------
 BYTE   N11  Cn4  v127
 BYTE   N12  Cn5  v123
 BYTE   W12
 BYTE   N32  An3  v127
 BYTE   N36  An4  v123
 BYTE   W01
 BYTE   N03  An3  v127
 BYTE   W32
 BYTE   W02
 BYTE   N05  Gn3
 BYTE   N06  Gn4  v123
 BYTE   W06
 BYTE   N05  Fn3  v127
 BYTE   N06  Fn4  v123
 BYTE   W06
 BYTE   N44  En3  v127
 BYTE   N48  En4  v123
 BYTE   W02
 BYTE   N03  En3  v127
 BYTE   W44
// 025   ----------------------------------------
 BYTE   W01
 BYTE   N32  Dn3
 BYTE   N36  Dn4  v123
 BYTE   W01
 BYTE   N03  Dn3  v127
 BYTE   W32
 BYTE   W02
 BYTE   N11  An3
 BYTE   N12  An4  v123
 BYTE   W12
 BYTE   N17  An3  v127
 BYTE   N18  An4  v123
 BYTE   W18
 BYTE   N17  Gn3  v127
 BYTE   N18  Gn4  v123
 BYTE   W18
 BYTE   N11  Fn3  v127
 BYTE   N12  Fn4  v123
 BYTE   W12
// 026   ----------------------------------------
 BYTE   N92  Dn3  v127
 BYTE   N96  Dn4  v123
 BYTE   W04
 BYTE   N03  Dn3  v127
 BYTE   W90
 BYTE   W01
 BYTE   PAN   c_v+10
 BYTE   PAN   c_v+40
 BYTE   N44  An3  v127
 BYTE   W02
// 027   ----------------------------------------
 BYTE   N03
 BYTE   W44
 BYTE   W01
 BYTE   N32  Cn4
 BYTE   W01
 BYTE   N03
 BYTE   W32
 BYTE   W02
 BYTE   N11  En4
 BYTE   W12
 BYTE   En4
 BYTE   W12
// 028   ----------------------------------------
 BYTE   N05  Dn4
 BYTE   W06
 BYTE   N17  En4
 BYTE   W18
 BYTE   N11  An3
 BYTE   W12
 BYTE   N23  Cn4
 BYTE   W24
 BYTE   N05
 BYTE   W06
 BYTE   As3
 BYTE   W06
 BYTE   An3
 BYTE   W06
 BYTE   Gn3
 BYTE   W06
 BYTE   N23  Fn3
 BYTE   W24
// 029   ----------------------------------------
 BYTE   N05  As3
 BYTE   N06  Dn5  v123
 BYTE   W06
 BYTE   N05  An3  v127
 BYTE   N06  Cn5  v123
 BYTE   W06
 BYTE   N05  Gn3  v127
 BYTE   N06  Dn5  v123
 BYTE   W06
 BYTE   N05  Fn3  v127
 BYTE   N06  En5  v123
 BYTE   W06
 BYTE   N23  En3  v127
 BYTE   N30  Fn5  v123
 BYTE   W24
 BYTE   N05  An3  v127
 BYTE   W06
 BYTE   Gn3
 BYTE   N06  En5  v123
 BYTE   W06
 BYTE   N05  Fn3  v127
 BYTE   N06  Fn5  v123
 BYTE   W06
 BYTE   N05  En3  v127
 BYTE   N06  Gn5  v123
 BYTE   W06
 BYTE   N28  Dn3  v127
 BYTE   N48  An5  v123
 BYTE   W01
 BYTE   N01  Dn3  v127
 BYTE   W28
// 030   ----------------------------------------
 BYTE   N05
 BYTE   W06
 BYTE   En3
 BYTE   W06
 BYTE   Fn3
 BYTE   W06
 BYTE   N32  Gn3  v113
 BYTE   N48  Bn5  v123
 BYTE   W01
 BYTE   N03  Gn3  v113
 BYTE   W32
 BYTE   W02
 BYTE   N05  Fn3
 BYTE   W06
 BYTE   En3
 BYTE   W06
 BYTE   N44  Fn3  v127
 BYTE   W02
 BYTE   N03
 BYTE   W44
// 031   ----------------------------------------
 BYTE   W01
 BYTE   N23  An3
 BYTE   W24
 BYTE   Cs4
 BYTE   W24
 BYTE   N11  En4
 BYTE   W12
 BYTE   N05  Dn4
 BYTE   W06
 BYTE   N11  En4
 BYTE   W12
 BYTE   N05  Fn4
 BYTE   W06
 BYTE   En4
 BYTE   W06
 BYTE   Fn4
 BYTE   W06
// 032   ----------------------------------------
 BYTE   N32  Dn4
 BYTE   W01
 BYTE   N03
 BYTE   W32
 BYTE   W02
 BYTE   N05
 BYTE   W06
 BYTE   En4
 BYTE   W06
 BYTE   N80  Fn4
 BYTE   W04
 BYTE   N03
 BYTE   W80
// 033   ----------------------------------------
 BYTE   N05
 BYTE   W06
 BYTE   Gn4
 BYTE   W06
 BYTE   N44  An4
 BYTE   W02
 BYTE   N03
 BYTE   W44
 BYTE   W01
 BYTE   N44  Gn4
 BYTE   W02
 BYTE   N03
 BYTE   W40
// 034   ----------------------------------------
 BYTE   W04
 BYTE   W54
 BYTE   W17
 BYTE   GoTo
  POIN2 Label_4_01E53BB0
 BYTE   FINE

//**************** Track 6 (Midi-Chn.5) ****************//

TRSBerwickSagaBringtheWindRSflame_006:
// 000   ----------------------------------------
Label_5_54BEB4:
 BYTE   TEMPO   200*TRSBerwickSagaBringtheWindRSflame_tbs/2
 BYTE   KEYSH   TRSBerwickSagaBringtheWindRSflame_key+0
 BYTE   VOICE   68
 BYTE   MOD 0
 BYTE   CnM2
 BYTE   VOL   8*TRSBerwickSagaBringtheWindRSflame_mvl/mxv
 BYTE   PAN   c_v+20
 BYTE   BEND   c_v+0
 BYTE   TEMPO   80*TRSBerwickSagaBringtheWindRSflame_tbs/2
 BYTE   W96
// 001   ----------------------------------------
 BYTE   W96
// 002   ----------------------------------------
 BYTE   W96
// 003   ----------------------------------------
 BYTE   W96
// 004   ----------------------------------------
 BYTE   W96
// 005   ----------------------------------------
 BYTE   W96
// 006   ----------------------------------------
 BYTE   W96
// 007   ----------------------------------------
 BYTE   W96
// 008   ----------------------------------------
 BYTE   W96
// 009   ----------------------------------------
 BYTE   W96
// 010   ----------------------------------------
 BYTE   W96
// 011   ----------------------------------------
 BYTE   W96
// 012   ----------------------------------------
 BYTE   W96
// 013   ----------------------------------------
 BYTE   W96
// 014   ----------------------------------------
 BYTE   W96
// 015   ----------------------------------------
 BYTE   W96
// 016   ----------------------------------------
 BYTE   W96
// 017   ----------------------------------------
 BYTE   W96
// 018   ----------------------------------------
 BYTE   N96  Fn3  v107
 BYTE   W96
// 019   ----------------------------------------
 BYTE   Gn3
 BYTE   W96
// 020   ----------------------------------------
Label_5_54BEDC:
 BYTE   N48  An3  v107
 BYTE   W48
 BYTE   Bn3
 BYTE   W48
 BYTE   PEND 
// 021   ----------------------------------------
 BYTE   N24  En4  v107
 BYTE   W24
 BYTE   Cn4
 BYTE   W24
 BYTE   Bn3
 BYTE   W24
 BYTE   Gn3
 BYTE   W24
// 022   ----------------------------------------
 BYTE   N48  Dn3
 BYTE   W48
 BYTE   N18  Cn3
 BYTE   W18
 BYTE   En3
 BYTE   W18
 BYTE   N12  Gn3
 BYTE   W12
// 023   ----------------------------------------
 BYTE   N48  Fn3
 BYTE   W48
 BYTE   Gn3
 BYTE   W48
// 024   ----------------------------------------
 BYTE   An3
 BYTE   W48
 BYTE   Gn3
 BYTE   W48
// 025   ----------------------------------------
 BYTE   N18  Fn3
 BYTE   W18
 BYTE   An3
 BYTE   W18
 BYTE   N12  Cn4
 BYTE   W12
 BYTE   N18  Bn3
 BYTE   W18
 BYTE   Gn3
 BYTE   W18
 BYTE   N12  Bn3
 BYTE   W12
// 026   ----------------------------------------
 BYTE   N96  An3
 BYTE   W96
// 027   ----------------------------------------
 BYTE   PATT
  POIN2 Label_5_54BEDC
// 028   ----------------------------------------
 BYTE   N48  Cn4  v107
 BYTE   W48
 BYTE   Dn4
 BYTE   W48
// 029   ----------------------------------------
 BYTE   N84
 BYTE   W84
 BYTE   N06
 BYTE   W06
 BYTE   En4
 BYTE   W06
// 030   ----------------------------------------
 BYTE   N48  Fn4  v113
 BYTE   W48
 BYTE   N18  Gn4
 BYTE   W18
 BYTE   Fn4
 BYTE   W18
 BYTE   N12  Gn4
 BYTE   W12
// 031   ----------------------------------------
 BYTE   N36  En4
 BYTE   W36
 BYTE   N12  Dn4
 BYTE   W12
 BYTE   N36  En4
 BYTE   W36
 BYTE   N06  An4
 BYTE   W06
 BYTE   Cn5
 BYTE   W06
// 032   ----------------------------------------
Label_5_54BF3F:
 BYTE   N24  Cn5  v113
 BYTE   W24
 BYTE   As4
 BYTE   W24
 BYTE   An4
 BYTE   W24
 BYTE   Gn4
 BYTE   W24
 BYTE   PEND 
// 033   ----------------------------------------
 BYTE   N12  Gn4  v113
 BYTE   W12
 BYTE   N06  An4
 BYTE   W06
 BYTE   N18  Fn4
 BYTE   W18
 BYTE   N12  En4
 BYTE   W12
 BYTE   N36  Dn4
 BYTE   W36
 BYTE   N06  An4
 BYTE   W06
 BYTE   Cn5
 BYTE   W06
// 034   ----------------------------------------
 BYTE   PATT
  POIN2 Label_5_54BF3F
// 035   ----------------------------------------
 BYTE   N12  Gn4  v113
 BYTE   W12
 BYTE   N18  An4
 BYTE   W18
 BYTE   N06  Fn4
 BYTE   W06
 BYTE   En4
 BYTE   W06
 BYTE   Fn4
 BYTE   W06
 BYTE   N36  Dn4
 BYTE   W36
 BYTE   N06
 BYTE   W06
 BYTE   En4
 BYTE   W06
// 036   ----------------------------------------
 BYTE   N84  Fn4
 BYTE   W84
 BYTE   N06  Dn4
 BYTE   W06
 BYTE   En4
 BYTE   W06
// 037   ----------------------------------------
 BYTE   N48  Fn4
 BYTE   W48
 BYTE   Gn4
 BYTE   W42
 BYTE   W01
 BYTE   W04
 BYTE   W54
// 038   ----------------------------------------
 BYTE   W17
 BYTE   GoTo
  POIN2 Label_5_54BEB4
 BYTE   FINE

//**************** Track 7 (Midi-Chn.6) ****************//

TRSBerwickSagaBringtheWindRSflame_007:
// 000   ----------------------------------------
Label_6_01E533EC:
 BYTE   TEMPO   200*TRSBerwickSagaBringtheWindRSflame_tbs/2
 BYTE   KEYSH   TRSBerwickSagaBringtheWindRSflame_key+0
 BYTE   VOICE   71
 BYTE   MOD 0
 BYTE   CnM2
 BYTE   VOL   0*TRSBerwickSagaBringtheWindRSflame_mvl/mxv
 BYTE   PAN   c_v-20
 BYTE   BEND   c_v+0
 BYTE   TEMPO   80*TRSBerwickSagaBringtheWindRSflame_tbs/2
 BYTE   W96
// 001   ----------------------------------------
 BYTE   W96
// 002   ----------------------------------------
 BYTE   W96
// 003   ----------------------------------------
 BYTE   W96
// 004   ----------------------------------------
 BYTE   W96
// 005   ----------------------------------------
 BYTE   W96
// 006   ----------------------------------------
 BYTE   W96
// 007   ----------------------------------------
 BYTE   W96
// 008   ----------------------------------------
 BYTE   W96
// 009   ----------------------------------------
 BYTE   W96
// 010   ----------------------------------------
 BYTE   W96
// 011   ----------------------------------------
 BYTE   W96
// 012   ----------------------------------------
 BYTE   W96
// 013   ----------------------------------------
 BYTE   W96
// 014   ----------------------------------------
Label_6_01E5340A:
 BYTE   N96  An3  v107
 BYTE   N96  Fn3
 BYTE   N96  Cn3
 BYTE   W96
 BYTE   PEND 
// 015   ----------------------------------------
Label_6_01E53413:
 BYTE   N96  Bn3  v107
 BYTE   N96  Gn3
 BYTE   N96  Dn3
 BYTE   W96
 BYTE   PEND 
// 016   ----------------------------------------
 BYTE   N96  Cn4  v107
 BYTE   N96  An3
 BYTE   N96  Fn3
 BYTE   W96
// 017   ----------------------------------------
 BYTE   PATT
  POIN2 Label_6_01E53413
// 018   ----------------------------------------
 BYTE   PATT
  POIN2 Label_6_01E5340A
// 019   ----------------------------------------
 BYTE   PATT
  POIN2 Label_6_01E53413
// 020   ----------------------------------------
 BYTE   N48  Cn4  v107
 BYTE   N48  An3
 BYTE   N48  Fn3
 BYTE   W48
 BYTE   Dn4
 BYTE   N48  Bn3
 BYTE   N48  Gn3
 BYTE   W48
// 021   ----------------------------------------
 BYTE   N24  En4
 BYTE   N24  Cn4
 BYTE   N24  An3
 BYTE   W24
 BYTE   Cn4
 BYTE   N24  An3
 BYTE   N24  Fn3
 BYTE   W24
 BYTE   Bn3
 BYTE   N24  Gn3
 BYTE   N24  Dn3
 BYTE   W24
 BYTE   Gn3
 BYTE   N24  Dn3
 BYTE   N24  Bn2
 BYTE   W96
// 022   ----------------------------------------
 BYTE   W96
// 023   ----------------------------------------
 BYTE   W96
// 024   ----------------------------------------
 BYTE   W96
// 025   ----------------------------------------
 BYTE   W96
// 026   ----------------------------------------
 BYTE   W96
// 027   ----------------------------------------
 BYTE   W96
// 028   ----------------------------------------
 BYTE   W96
// 029   ----------------------------------------
 BYTE   W24
Label_6_01E53462:
 BYTE   N48  An3  v107
 BYTE   N48  Fn3
 BYTE   N48  Dn3
 BYTE   W48
 BYTE   Gn3
 BYTE   N48  En3
 BYTE   N48  Cn3
 BYTE   W48
 BYTE   PEND 
// 030   ----------------------------------------
 BYTE   N92  Fn3  v107
 BYTE   N92  An3
 BYTE   N92  Cn3
 BYTE   W04
 BYTE   N03  An3
 BYTE   N03  Cn3
 BYTE   N03  Fn3
 BYTE   W90
 BYTE   W01
// 031   ----------------------------------------
 BYTE   PATT
  POIN2 Label_6_01E53462
// 032   ----------------------------------------
Label_6_01E53486:
 BYTE   N48  An3  v107
 BYTE   N48  Fn3
 BYTE   N48  Dn3
 BYTE   W48
 BYTE   Bn3
 BYTE   N48  Gn3
 BYTE   N48  Dn3
 BYTE   W48
 BYTE   PEND 
// 033   ----------------------------------------
 BYTE   N48  An3  v107
 BYTE   N48  Fn3
 BYTE   N48  Dn3
 BYTE   W48
 BYTE   An3
 BYTE   N48  En3
 BYTE   N48  Cs3
 BYTE   W48
// 034   ----------------------------------------
 BYTE   PATT
  POIN2 Label_6_01E53486
// 035   ----------------------------------------
 BYTE   N96  As3  v107
 BYTE   N96  Gn3
 BYTE   N96  Dn3
 BYTE   W96
// 036   ----------------------------------------
 BYTE   N48  An3
 BYTE   N48  Fn3
 BYTE   N48  Cs3
 BYTE   W48
 BYTE   Gn3
 BYTE   N48  En3
 BYTE   N48  Cs3
 BYTE   W42
 BYTE   W01
 BYTE   W04
 BYTE   W54
// 037   ----------------------------------------
 BYTE   W17
 BYTE   GoTo
  POIN2 Label_6_01E533EC
 BYTE   FINE

//**************** Track 8 (Midi-Chn.7) ****************//

TRSBerwickSagaBringtheWindRSflame_008:
// 000   ----------------------------------------
Label_7_01E53518:
 BYTE   TEMPO   200*TRSBerwickSagaBringtheWindRSflame_tbs/2
 BYTE   KEYSH   TRSBerwickSagaBringtheWindRSflame_key+0
 BYTE   VOICE   46
 BYTE   MOD 0
 BYTE   CnM2
 BYTE   VOL   32*TRSBerwickSagaBringtheWindRSflame_mvl/mxv
 BYTE   PAN   c_v+30
 BYTE   BEND   c_v+0
 BYTE   TEMPO   80*TRSBerwickSagaBringtheWindRSflame_tbs/2
 BYTE   W96
// 001   ----------------------------------------
 BYTE   W96
// 002   ----------------------------------------
 BYTE   N18  Dn2  v113
 BYTE   W06
 BYTE   N06  An3
 BYTE   W06
 BYTE   N06  Fn4
 BYTE   W06
 BYTE   N06  An3
 BYTE   W06
 BYTE   N18  Dn2
 BYTE   W06
 BYTE   N06  Gn3
 BYTE   W06
 BYTE   N06  En4
 BYTE   W06
 BYTE   N06  Gn3
 BYTE   W06
 BYTE   N18  Dn2
 BYTE   W06
 BYTE   N06  Fn3
 BYTE   W06
 BYTE   N06  Dn4
 BYTE   W06
 BYTE   N06  Fn3
 BYTE   W06
 BYTE   N18  Dn2
 BYTE   W06
 BYTE   N06  Dn3
 BYTE   W06
 BYTE   N06  Cn4
 BYTE   W06
 BYTE   N06  En3
 BYTE   W06
// 003   ----------------------------------------
 BYTE   N18  Dn2
 BYTE   W06
 BYTE   N06  An3
 BYTE   W06
 BYTE   N06  Fn4
 BYTE   W06
 BYTE   N06  An3
 BYTE   W06
 BYTE   N18  Dn2
 BYTE   W06
 BYTE   N06  Gn3
 BYTE   W06
 BYTE   N06  En4
 BYTE   W06
 BYTE   N06  Gn3
 BYTE   W06
 BYTE   N18  Dn2
 BYTE   W06
 BYTE   N06  Fn3
 BYTE   W06
 BYTE   N06  Dn4
 BYTE   W06
 BYTE   N06  Fn3
 BYTE   W06
 BYTE   N18  Dn2
 BYTE   W06
 BYTE   N06  Gn3
 BYTE   W06
 BYTE   N06  En4
 BYTE   W06
 BYTE   N06  Gn3
 BYTE   W06
// 004   ----------------------------------------
 BYTE   N18  Dn2
 BYTE   W06
 BYTE   N06  An3
 BYTE   W06
 BYTE   N06  Fn4
 BYTE   W06
 BYTE   N06  An3
 BYTE   W06
 BYTE   N18  Dn2
 BYTE   W06
 BYTE   N06  Gn3
 BYTE   W06
 BYTE   N06  En4
 BYTE   W06
 BYTE   N06  Gn3
 BYTE   W06
 BYTE   N18  Dn2
 BYTE   W06
 BYTE   N06  Fn3
 BYTE   W06
 BYTE   N06  Dn4
 BYTE   W06
 BYTE   N06  Fn3
 BYTE   W06
 BYTE   N18  Dn2
 BYTE   W06
 BYTE   N06  Dn3
 BYTE   W06
 BYTE   Cn4
 BYTE   W06
 BYTE   En3
 BYTE   W06
// 005   ----------------------------------------
 BYTE   N18  Dn2
 BYTE   W06
 BYTE   N06  An3
 BYTE   W06
 BYTE   Fn4
 BYTE   W06
 BYTE   An3
 BYTE   W06
 BYTE   N18  Dn2
 BYTE   W06
 BYTE   N06  Gn3
 BYTE   W06
 BYTE   En4
 BYTE   W06
 BYTE   Gn3
 BYTE   W06
 BYTE   N18  Dn2
 BYTE   W06
 BYTE   N06  Fn3
 BYTE   W06
 BYTE   Dn4
 BYTE   W06
 BYTE   Fn3
 BYTE   W06
Label_7_01E535D7:
 BYTE   N18  Dn2  v113
 BYTE   W06
 BYTE   N06  Gn3
 BYTE   W06
 BYTE   En4
 BYTE   W06
 BYTE   Gn3
 BYTE   W06
// 006   ----------------------------------------
 BYTE   N18  Dn2
 BYTE   W06
 BYTE   N06  An3
 BYTE   W06
 BYTE   Fn4
 BYTE   W06
 BYTE   An3
 BYTE   W06
 BYTE   N18  Dn2
 BYTE   W06
 BYTE   N06  Gn3
 BYTE   W06
 BYTE   En4
 BYTE   W06
 BYTE   Gn3
 BYTE   W06
 BYTE   N18  Dn2
 BYTE   W06
 BYTE   N06  Fn3
 BYTE   W06
 BYTE   Dn4
 BYTE   W06
 BYTE   Fn3
 BYTE   W06
 BYTE   PEND 
Label_7_01E53601:
 BYTE   N18  Dn2  v113
 BYTE   W06
 BYTE   N06  Dn3
 BYTE   W06
 BYTE   Cn4
 BYTE   W06
 BYTE   En3
 BYTE   W06
// 007   ----------------------------------------
 BYTE   N18  Dn2
 BYTE   W06
 BYTE   N06  An3
 BYTE   W06
 BYTE   Fn4
 BYTE   W06
 BYTE   An3
 BYTE   W06
 BYTE   N18  Dn2
 BYTE   W06
 BYTE   N06  Gn3
 BYTE   W06
 BYTE   En4
 BYTE   W06
 BYTE   Gn3
 BYTE   W06
 BYTE   N18  Dn2
 BYTE   W06
 BYTE   N06  Fn3
 BYTE   W06
 BYTE   Dn4
 BYTE   W06
 BYTE   Fn3
 BYTE   W06
 BYTE   PEND 
// 008   ----------------------------------------
 BYTE   PATT
  POIN2 Label_7_01E535D7
// 009   ----------------------------------------
 BYTE   PATT
  POIN2 Label_7_01E53601
// 010   ----------------------------------------
 BYTE   PATT
  POIN2 Label_7_01E535D7
// 011   ----------------------------------------
 BYTE   PATT
  POIN2 Label_7_01E53601
// 012   ----------------------------------------
 BYTE   PATT
  POIN2 Label_7_01E535D7
// 013   ----------------------------------------
 BYTE   PATT
  POIN2 Label_7_01E53601
// 014   ----------------------------------------
 BYTE   PATT
  POIN2 Label_7_01E535D7
// 015   ----------------------------------------
 BYTE   PATT
  POIN2 Label_7_01E53601
// 016   ----------------------------------------
 BYTE   PATT
  POIN2 Label_7_01E535D7
// 017   ----------------------------------------
 BYTE   PATT
  POIN2 Label_7_01E53601
// 018   ----------------------------------------
 BYTE   PATT
  POIN2 Label_7_01E535D7
// 019   ----------------------------------------
 BYTE   PATT
  POIN2 Label_7_01E53601
// 020   ----------------------------------------
 BYTE   PATT
  POIN2 Label_7_01E535D7
// 021   ----------------------------------------
 BYTE   PATT
  POIN2 Label_7_01E53601
// 022   ----------------------------------------
 BYTE   PATT
  POIN2 Label_7_01E535D7
// 023   ----------------------------------------
 BYTE   PATT
  POIN2 Label_7_01E53601
// 024   ----------------------------------------
 BYTE   PATT
  POIN2 Label_7_01E535D7
// 025   ----------------------------------------
 BYTE   PATT
  POIN2 Label_7_01E53601
// 026   ----------------------------------------
 BYTE   PATT
  POIN2 Label_7_01E535D7
// 027   ----------------------------------------
 BYTE   PATT
  POIN2 Label_7_01E53601
// 028   ----------------------------------------
 BYTE   PATT
  POIN2 Label_7_01E535D7
// 029   ----------------------------------------
 BYTE   PATT
  POIN2 Label_7_01E53601
// 030   ----------------------------------------
 BYTE   N18  Dn2  v113
 BYTE   W06
 BYTE   N06  Gn3
 BYTE   W06
 BYTE   En4
 BYTE   W06
 BYTE   Gn3
 BYTE   W96
// 031   ----------------------------------------
 BYTE   W96
// 032   ----------------------------------------
 BYTE   W96
// 033   ----------------------------------------
 BYTE   W96
// 034   ----------------------------------------
 BYTE   W96
// 035   ----------------------------------------
 BYTE   W96
// 036   ----------------------------------------
 BYTE   W06
 BYTE   Cn2
 BYTE   W06
 BYTE   Gn2
 BYTE   W06
 BYTE   As2
 BYTE   W06
 BYTE   Dn3
 BYTE   W06
 BYTE   Fn3
 BYTE   W06
 BYTE   As3
 BYTE   W06
 BYTE   Dn4
 BYTE   W06
 BYTE   As3
 BYTE   W06
 BYTE   Cn2
 BYTE   W06
 BYTE   Gn2
 BYTE   W06
 BYTE   As2
 BYTE   W06
 BYTE   Dn3
 BYTE   W06
 BYTE   Fn3
 BYTE   W06
 BYTE   As3
 BYTE   W06
 BYTE   Dn4
 BYTE   W06
// 037   ----------------------------------------
 BYTE   As3
 BYTE   W06
 BYTE   An1
 BYTE   W06
 BYTE   En2
 BYTE   W06
 BYTE   An2
 BYTE   W06
 BYTE   Cs3
 BYTE   W06
 BYTE   Fn3
 BYTE   W06
 BYTE   Cs3
 BYTE   W06
 BYTE   An2
 BYTE   W06
 BYTE   En2
 BYTE   W06
 BYTE   An1
 BYTE   W06
 BYTE   En2
 BYTE   W06
 BYTE   An2
 BYTE   W06
 BYTE   Cs3
 BYTE   W06
 BYTE   Gn3
 BYTE   W06
 BYTE   Cs3
 BYTE   W06
 BYTE   An2
 BYTE   W06
// 038   ----------------------------------------
 BYTE   En2
 BYTE   W01
 BYTE   W04
 BYTE   W54
 BYTE   W17
 BYTE   GoTo
  POIN2 Label_7_01E53518
 BYTE   FINE

//**************** Track 9 (Midi-Chn.8) ****************//

TRSBerwickSagaBringtheWindRSflame_009:
// 000   ----------------------------------------
Label_8_01E54508:
 BYTE   TEMPO   200*TRSBerwickSagaBringtheWindRSflame_tbs/2
 BYTE   KEYSH   TRSBerwickSagaBringtheWindRSflame_key+0
 BYTE   VOICE   28
 BYTE   MOD 0
 BYTE   CnM2
 BYTE   VOL   37*TRSBerwickSagaBringtheWindRSflame_mvl/mxv
 BYTE   PAN   c_v-44
 BYTE   BEND   c_v+0
 BYTE   MOD 0
 BYTE   CnM2
 BYTE   VOL   10*TRSBerwickSagaBringtheWindRSflame_mvl/mxv
 BYTE   PAN   c_v-54
 BYTE   BEND   c_v+0
 BYTE   N12  Dn1  v107
 BYTE   N12  Dn3  v113
 BYTE   TEMPO   80*TRSBerwickSagaBringtheWindRSflame_tbs/2
 BYTE   N11  An1  v107
 BYTE   N11  An3  v113
 BYTE   N11  Dn2  v107
 BYTE   N11  Dn4  v113
 BYTE   W11
 BYTE   N01  Dn1  v107
 BYTE   N01  An1
 BYTE   N01  Dn2
 BYTE   N01  Dn4  v113
 BYTE   N01  An3
 BYTE   N01  Dn3
 BYTE   W06
 BYTE   N12  Dn1  v107
 BYTE   N12  An1
 BYTE   N12  Dn2
 BYTE   N12  Dn4  v113
 BYTE   N12  An3
 BYTE   N12  Dn3
 BYTE   W12
 BYTE   N06  Dn1  v107
 BYTE   N06  An1
 BYTE   N06  Dn2
 BYTE   N06  Dn4  v113
 BYTE   N06  An3
 BYTE   N06  Dn3
 BYTE   W06
 BYTE   N01  Dn1  v107
 BYTE   N01  An1
 BYTE   N01  Dn2
 BYTE   N01  Dn4  v113
 BYTE   N01  An3
 BYTE   N01  Dn3
 BYTE   W06
 BYTE   N01  Dn1  v107
 BYTE   N01  An1
 BYTE   N01  Dn2
 BYTE   N01  Dn4  v113
 BYTE   N01  An3
 BYTE   N01  Dn3
 BYTE   W06
 BYTE   N12
 BYTE   N12  Dn1  v107
 BYTE   N11  An1
 BYTE   N11  An3  v113
 BYTE   N11  Dn2  v107
 BYTE   N11  Dn4  v113
 BYTE   W11
 BYTE   N01  Dn1  v107
 BYTE   N01  An1
 BYTE   N01  Dn2
 BYTE   N01  Dn4  v113
 BYTE   N01  An3
 BYTE   N01  Dn3
 BYTE   W06
 BYTE   N12  Dn1  v107
 BYTE   N12  An1
 BYTE   N12  Dn2
 BYTE   N12  Dn4  v113
 BYTE   N12  An3
 BYTE   N12  Dn3
 BYTE   W12
 BYTE   N06  Dn1  v107
 BYTE   N06  An1
 BYTE   N06  Dn2
 BYTE   N06  Dn4  v113
 BYTE   N06  An3
 BYTE   N06  Dn3
 BYTE   W06
 BYTE   N01  Dn1  v107
 BYTE   N01  An1
 BYTE   N01  Dn2
 BYTE   N01  Dn4  v113
 BYTE   N01  An3
 BYTE   N01  Dn3
 BYTE   W06
 BYTE   N01  Dn1  v107
 BYTE   N01  An1
 BYTE   N01  Dn2
 BYTE   N01  Dn4  v113
 BYTE   N01  An3
 BYTE   N01  Dn3
 BYTE   W06
 BYTE   N12
 BYTE   N12  Dn1  v107
 BYTE   N11  An1
 BYTE   N11  An3  v113
 BYTE   N11  Dn2  v107
 BYTE   N11  Dn4  v113
 BYTE   W11
// 001   ----------------------------------------
 BYTE   N01  Dn1  v107
 BYTE   N01  An1
 BYTE   N01  Dn2
 BYTE   N01  Dn4  v113
 BYTE   N01  An3
 BYTE   N01  Dn3
 BYTE   W06
 BYTE   N12  Dn1  v107
 BYTE   N12  An1
 BYTE   N12  Dn2
 BYTE   N12  Dn4  v113
 BYTE   N12  An3
 BYTE   N12  Dn3
 BYTE   W12
 BYTE   N06  Dn1  v107
 BYTE   N06  An1
 BYTE   N06  Dn2
 BYTE   N06  Dn4  v113
 BYTE   N06  An3
 BYTE   N06  Dn3
 BYTE   W06
 BYTE   N01  Dn1  v107
 BYTE   N01  An1
 BYTE   N01  Dn2
 BYTE   N01  Dn4  v113
 BYTE   N01  An3
 BYTE   N01  Dn3
 BYTE   W06
 BYTE   N01  Dn1  v107
 BYTE   N01  An1
 BYTE   N01  Dn2
 BYTE   N01  Dn4  v113
 BYTE   N01  An3
 BYTE   N01  Dn3
 BYTE   W06
 BYTE   N12
 BYTE   N12  Dn1  v107
 BYTE   N11  An1
 BYTE   N11  An3  v113
 BYTE   N11  Dn2  v107
 BYTE   N11  Dn4  v113
 BYTE   W11
 BYTE   N01  Dn1  v107
 BYTE   N01  An1
 BYTE   N01  Dn2
 BYTE   N01  Dn4  v113
 BYTE   N01  An3
 BYTE   N01  Dn3
 BYTE   W06
 BYTE   N12  Dn1  v107
 BYTE   N12  An1
 BYTE   N12  Dn2
 BYTE   N12  Dn4  v113
 BYTE   N12  An3
 BYTE   N12  Dn3
 BYTE   W12
 BYTE   N06  Dn1  v107
 BYTE   N06  An1
 BYTE   N06  Dn2
 BYTE   N06  Dn4  v113
 BYTE   N06  An3
 BYTE   N06  Dn3
 BYTE   W06
 BYTE   N01  Dn1  v107
 BYTE   N01  An1
 BYTE   N01  Dn2
 BYTE   N01  Dn4  v113
 BYTE   N01  An3
 BYTE   N01  Dn3
 BYTE   W06
 BYTE   N01  Dn1  v107
 BYTE   N01  An1
 BYTE   N01  Dn2
 BYTE   N01  Dn4  v113
 BYTE   N01  An3
 BYTE   N01  Dn3
 BYTE   W06
 BYTE   N12
 BYTE   N12  Dn1  v107
 BYTE   N11  An1
 BYTE   N11  An3  v113
 BYTE   N11  Dn2  v107
 BYTE   N11  Dn4  v113
 BYTE   W11
 BYTE   N01  Dn1  v107
 BYTE   N01  An1
 BYTE   N01  Dn2
 BYTE   N01  Dn4  v113
 BYTE   N01  An3
 BYTE   N01  Dn3
 BYTE   W06
// 002   ----------------------------------------
 BYTE   N12  Dn1  v107
 BYTE   N12  An1
 BYTE   N12  Dn2
 BYTE   N12  Dn4  v113
 BYTE   N12  An3
 BYTE   N12  Dn3
 BYTE   W12
 BYTE   N06  Dn1  v107
 BYTE   N06  An1
 BYTE   N06  Dn2
 BYTE   N06  Dn4  v113
 BYTE   N06  An3
 BYTE   N06  Dn3
 BYTE   W06
 BYTE   N01  Dn1  v107
 BYTE   N01  An1
 BYTE   N01  Dn2
 BYTE   N01  Dn4  v113
 BYTE   N01  An3
 BYTE   N01  Dn3
 BYTE   W06
 BYTE   N01  Dn1  v107
 BYTE   N01  An1
 BYTE   N01  Dn2
 BYTE   N01  Dn4  v113
 BYTE   N01  An3
 BYTE   N01  Dn3
 BYTE   W06
 BYTE   N12
 BYTE   N12  Dn1  v107
 BYTE   N11  An1
 BYTE   N11  An3  v113
 BYTE   N11  Dn2  v107
 BYTE   N11  Dn4  v113
 BYTE   W11
 BYTE   N01  Dn1  v107
 BYTE   N01  An1
 BYTE   N01  Dn2
 BYTE   N01  Dn4  v113
 BYTE   N01  An3
 BYTE   N01  Dn3
 BYTE   W06
 BYTE   N12  Dn1  v107
 BYTE   N12  An1
 BYTE   N12  Dn2
 BYTE   N12  Dn4  v113
 BYTE   N12  An3
 BYTE   N12  Dn3
 BYTE   W12
 BYTE   N06  Dn1  v107
 BYTE   N06  An1
 BYTE   N06  Dn2
 BYTE   N06  Dn4  v113
 BYTE   N06  An3
 BYTE   N06  Dn3
 BYTE   W06
 BYTE   N01  Dn1  v107
 BYTE   N01  An1
 BYTE   N01  Dn2
 BYTE   N01  Dn4  v113
 BYTE   N01  An3
 BYTE   N01  Dn3
 BYTE   W06
 BYTE   N01  Dn1  v107
 BYTE   N01  An1
 BYTE   N01  Dn2
 BYTE   N01  Dn4  v113
 BYTE   N01  An3
 BYTE   N01  Dn3
 BYTE   W06
 BYTE   N12
 BYTE   N12  Dn1  v107
 BYTE   N11  An1
 BYTE   N11  An3  v113
 BYTE   N11  Dn2  v107
 BYTE   N11  Dn4  v113
 BYTE   W11
 BYTE   N01  Dn1  v107
 BYTE   N01  An1
 BYTE   N01  Dn2
 BYTE   N01  Dn4  v113
 BYTE   N01  An3
 BYTE   N01  Dn3
 BYTE   W06
 BYTE   N12  Dn1  v107
 BYTE   N12  An1
 BYTE   N12  Dn2
 BYTE   N12  Dn4  v113
 BYTE   N12  An3
 BYTE   N12  Dn3
 BYTE   W12
// 003   ----------------------------------------
 BYTE   N06  Dn1  v107
 BYTE   N06  An1
 BYTE   N06  Dn2
 BYTE   N06  Dn4  v113
 BYTE   N06  An3
 BYTE   N06  Dn3
 BYTE   W06
 BYTE   N01  Dn1  v107
 BYTE   N01  An1
 BYTE   N01  Dn2
 BYTE   N01  Dn4  v113
 BYTE   N01  An3
 BYTE   N01  Dn3
 BYTE   W06
 BYTE   N01  Dn1  v107
 BYTE   N01  An1
 BYTE   N01  Dn2
 BYTE   N01  Dn4  v113
 BYTE   N01  An3
 BYTE   N01  Dn3
 BYTE   W06
 BYTE   N12
 BYTE   N12  Dn1  v107
 BYTE   N11  An1
 BYTE   N11  An3  v113
 BYTE   N11  Dn2  v107
 BYTE   N11  Dn4  v113
 BYTE   W11
 BYTE   N01  Dn1  v107
 BYTE   N01  An1
 BYTE   N01  Dn2
 BYTE   N01  Dn4  v113
 BYTE   N01  An3
 BYTE   N01  Dn3
 BYTE   W06
 BYTE   N12  Dn1  v107
 BYTE   N12  An1
 BYTE   N12  Dn2
 BYTE   N12  Dn4  v113
 BYTE   N12  An3
 BYTE   N12  Dn3
 BYTE   W12
 BYTE   N06  Dn1  v107
 BYTE   N06  An1
 BYTE   N06  Dn2
 BYTE   N06  Dn4  v113
 BYTE   N06  An3
 BYTE   N06  Dn3
 BYTE   W06
 BYTE   N01  Dn1  v107
 BYTE   N01  An1
 BYTE   N01  Dn2
 BYTE   N01  Dn4  v113
 BYTE   N01  An3
 BYTE   N01  Dn3
 BYTE   W06
 BYTE   N01  Dn1  v107
 BYTE   N01  An1
 BYTE   N01  Dn2
 BYTE   N01  Dn4  v113
 BYTE   N01  An3
 BYTE   N01  Dn3
 BYTE   W06
 BYTE   N12
 BYTE   N12  Dn1  v107
 BYTE   N11  An1
 BYTE   N11  An3  v113
 BYTE   N11  Dn2  v107
 BYTE   N11  Dn4  v113
 BYTE   W11
 BYTE   N01  Dn1  v107
 BYTE   N01  An1
 BYTE   N01  Dn2
 BYTE   N01  Dn4  v113
 BYTE   N01  An3
 BYTE   N01  Dn3
 BYTE   W06
 BYTE   N12  Dn1  v107
 BYTE   N12  An1
 BYTE   N12  Dn2
 BYTE   N12  Dn4  v113
 BYTE   N12  An3
 BYTE   N12  Dn3
 BYTE   W12
 BYTE   N06  Dn1  v107
 BYTE   N06  An1
 BYTE   N06  Dn2
 BYTE   N06  Dn4  v113
 BYTE   N06  An3
 BYTE   N06  Dn3
 BYTE   W06
// 004   ----------------------------------------
 BYTE   N01  Dn1  v107
 BYTE   N01  An1
 BYTE   N01  Dn2
 BYTE   N01  Dn4  v113
 BYTE   N01  An3
 BYTE   N01  Dn3
 BYTE   W06
 BYTE   N01  Dn1  v107
 BYTE   N01  An1
 BYTE   N01  Dn2
 BYTE   N01  Dn4  v113
 BYTE   N01  An3
 BYTE   N01  Dn3
 BYTE   W06
 BYTE   N12
 BYTE   N12  Dn1  v107
 BYTE   N11  An1
 BYTE   N11  An3  v113
 BYTE   N11  Dn2  v107
 BYTE   N11  Dn4  v113
 BYTE   W11
 BYTE   N01  Dn1  v107
 BYTE   N01  An1
 BYTE   N01  Dn2
 BYTE   N01  Dn4  v113
 BYTE   N01  An3
 BYTE   N01  Dn3
 BYTE   W06
 BYTE   N12  Dn1  v107
 BYTE   N12  An1
 BYTE   N12  Dn2
 BYTE   N12  Dn4  v113
 BYTE   N12  An3
 BYTE   N12  Dn3
 BYTE   W12
 BYTE   N06  Dn1  v107
 BYTE   N06  An1
 BYTE   N06  Dn2
 BYTE   N06  Dn4  v113
 BYTE   N06  An3
 BYTE   N06  Dn3
 BYTE   W06
 BYTE   N01  Dn1  v107
 BYTE   N01  An1
 BYTE   N01  Dn2
 BYTE   N01  Dn4  v113
 BYTE   N01  An3
 BYTE   N01  Dn3
 BYTE   W06
 BYTE   Dn1  v107
 BYTE   N01  An1
 BYTE   N01  Dn2
 BYTE   N01  Dn4  v113
 BYTE   N01  An3
 BYTE   N01  Dn3
 BYTE   W06
 BYTE   N12
 BYTE   N12  Dn1  v107
 BYTE   N11  An1
 BYTE   N11  An3  v113
 BYTE   Dn2  v107
 BYTE   N11  Dn4  v113
 BYTE   W11
 BYTE   N01  Dn1  v107
 BYTE   N01  An1
 BYTE   N01  Dn2
 BYTE   N01  Dn4  v113
 BYTE   N01  An3
 BYTE   N01  Dn3
 BYTE   W06
 BYTE   N12  Dn1  v107
 BYTE   N12  An1
 BYTE   N12  Dn2
 BYTE   N12  Dn4  v113
 BYTE   N12  An3
 BYTE   N12  Dn3
 BYTE   W12
 BYTE   N06  Dn1  v107
 BYTE   N06  An1
 BYTE   N06  Dn2
 BYTE   N06  Dn4  v113
 BYTE   N06  An3
 BYTE   N06  Dn3
 BYTE   W06
 BYTE   N01  Dn1  v107
 BYTE   N01  An1
 BYTE   N01  Dn2
 BYTE   N01  Dn4  v113
 BYTE   N01  An3
 BYTE   N01  Dn3
 BYTE   W06
// 005   ----------------------------------------
 BYTE   Dn1  v107
 BYTE   N01  An1
 BYTE   N01  Dn2
 BYTE   N01  Dn4  v113
 BYTE   N01  An3
 BYTE   N01  Dn3
 BYTE   W06
 BYTE   N12
 BYTE   N12  Dn1  v107
 BYTE   N11  An1
 BYTE   N11  An3  v113
 BYTE   Dn2  v107
 BYTE   N11  Dn4  v113
 BYTE   W11
 BYTE   N01  Dn1  v107
 BYTE   N01  An1
 BYTE   N01  Dn2
 BYTE   N01  Dn4  v113
 BYTE   N01  An3
 BYTE   N01  Dn3
 BYTE   W06
 BYTE   N12  Dn1  v107
 BYTE   N12  An1
 BYTE   N12  Dn2
 BYTE   N12  Dn4  v113
 BYTE   N12  An3
 BYTE   N12  Dn3
 BYTE   W12
Label_8_01E54936:
 BYTE   N06  Dn1  v107
 BYTE   N06  An1
 BYTE   N06  Dn2
 BYTE   N06  Dn4  v113
 BYTE   N06  An3
 BYTE   N06  Dn3
 BYTE   W06
 BYTE   N01  Dn1  v107
 BYTE   N01  An1
 BYTE   N01  Dn2
 BYTE   N01  Dn4  v113
 BYTE   N01  An3
 BYTE   N01  Dn3
 BYTE   W06
 BYTE   Dn1  v107
 BYTE   N01  An1
 BYTE   N01  Dn2
 BYTE   N01  Dn4  v113
 BYTE   N01  An3
 BYTE   N01  Dn3
 BYTE   W06
 BYTE   N12
 BYTE   N12  Dn1  v107
 BYTE   N11  An1
 BYTE   N11  An3  v113
 BYTE   Dn2  v107
 BYTE   N11  Dn4  v113
 BYTE   W11
 BYTE   N01  Dn1  v107
 BYTE   N01  An1
 BYTE   N01  Dn2
 BYTE   N01  Dn4  v113
 BYTE   N01  An3
 BYTE   N01  Dn3
 BYTE   W06
 BYTE   N12  Dn1  v107
 BYTE   N12  An1
 BYTE   N12  Dn2
 BYTE   N12  Dn4  v113
 BYTE   N12  An3
 BYTE   N12  Dn3
 BYTE   W12
 BYTE   N06  Dn1  v107
 BYTE   N06  An1
 BYTE   N06  Dn2
 BYTE   N06  Dn4  v113
 BYTE   N06  An3
 BYTE   N06  Dn3
 BYTE   W06
 BYTE   N01  Dn1  v107
 BYTE   N01  An1
 BYTE   N01  Dn2
 BYTE   N01  Dn4  v113
 BYTE   N01  An3
 BYTE   N01  Dn3
 BYTE   W06
 BYTE   Dn1  v107
 BYTE   N01  An1
 BYTE   N01  Dn2
 BYTE   N01  Dn4  v113
 BYTE   N01  An3
 BYTE   N01  Dn3
 BYTE   W06
// 006   ----------------------------------------
 BYTE   N12
 BYTE   N12  Dn1  v107
 BYTE   N11  An1
 BYTE   N11  An3  v113
 BYTE   Dn2  v107
 BYTE   N11  Dn4  v113
 BYTE   W11
 BYTE   N01  Dn1  v107
 BYTE   N01  An1
 BYTE   N01  Dn2
 BYTE   N01  Dn4  v113
 BYTE   N01  An3
 BYTE   N01  Dn3
 BYTE   W06
 BYTE   N12  Dn1  v107
 BYTE   N12  An1
 BYTE   N12  Dn2
 BYTE   N12  Dn4  v113
 BYTE   N12  An3
 BYTE   N12  Dn3
 BYTE   W12
 BYTE   PEND 
// 007   ----------------------------------------
 BYTE   PATT
  POIN2 Label_8_01E54936
// 008   ----------------------------------------
 BYTE   PATT
  POIN2 Label_8_01E54936
// 009   ----------------------------------------
 BYTE   PATT
  POIN2 Label_8_01E54936
// 010   ----------------------------------------
 BYTE   PATT
  POIN2 Label_8_01E54936
// 011   ----------------------------------------
 BYTE   PATT
  POIN2 Label_8_01E54936
// 012   ----------------------------------------
 BYTE   PATT
  POIN2 Label_8_01E54936
// 013   ----------------------------------------
 BYTE   PATT
  POIN2 Label_8_01E54936
// 014   ----------------------------------------
 BYTE   PATT
  POIN2 Label_8_01E54936
// 015   ----------------------------------------
 BYTE   PATT
  POIN2 Label_8_01E54936
// 016   ----------------------------------------
 BYTE   PATT
  POIN2 Label_8_01E54936
// 017   ----------------------------------------
 BYTE   PATT
  POIN2 Label_8_01E54936
// 018   ----------------------------------------
 BYTE   N06  Dn1  v107
 BYTE   N06  An1
 BYTE   N06  Dn2
 BYTE   N06  Dn4  v113
 BYTE   N06  An3
 BYTE   N06  Dn3
 BYTE   W06
 BYTE   N01  Dn1  v107
 BYTE   N01  An1
 BYTE   N01  Dn2
 BYTE   N01  Dn4  v113
 BYTE   N01  An3
 BYTE   N01  Dn3
 BYTE   W06
 BYTE   Dn1  v107
 BYTE   N01  An1
 BYTE   N01  Dn2
 BYTE   N01  Dn4  v113
 BYTE   N01  An3
 BYTE   N01  Dn3
 BYTE   W06
 BYTE   N12
 BYTE   N12  Dn1  v107
 BYTE   N11  An1
 BYTE   N11  An3  v113
 BYTE   Dn2  v107
 BYTE   N11  Dn4  v113
 BYTE   W11
 BYTE   N01  Dn1  v107
 BYTE   N01  An1
 BYTE   N01  Dn2
 BYTE   N01  Dn4  v113
 BYTE   N01  An3
 BYTE   N01  Dn3
 BYTE   W06
 BYTE   N12  Dn1  v107
 BYTE   N12  An1
 BYTE   N12  Dn2
 BYTE   N12  Dn4  v113
 BYTE   N12  An3
 BYTE   N12  Dn3
 BYTE   W12
 BYTE   N06  Dn1  v107
 BYTE   N06  An1
 BYTE   N06  Dn2
 BYTE   N06  Dn4  v113
 BYTE   N06  An3
 BYTE   N06  Dn3
 BYTE   W06
 BYTE   N01  Dn1  v107
 BYTE   N01  An1
 BYTE   N01  Dn2
 BYTE   N01  Dn4  v113
 BYTE   N01  An3
 BYTE   N01  Dn3
 BYTE   W06
 BYTE   Dn1  v107
 BYTE   N01  An1
 BYTE   N01  Dn2
 BYTE   N01  Dn4  v113
 BYTE   N01  An3
 BYTE   N01  Dn3
 BYTE   W06
 BYTE   N12  Dn1  v107
 BYTE   N12  Dn3  v113
 BYTE   N11  An1  v107
 BYTE   N11  An3  v113
 BYTE   Dn2  v107
 BYTE   N11  Dn4  v113
 BYTE   W11
 BYTE   N01  Dn1  v107
 BYTE   N01  An1
 BYTE   N01  Dn2
 BYTE   N01  Dn4  v113
 BYTE   N01  An3
 BYTE   N01  Dn3
 BYTE   W06
 BYTE   N12  Dn1  v107
 BYTE   N12  An1
 BYTE   N12  Dn2
 BYTE   N12  Dn4  v113
 BYTE   N12  An3
 BYTE   N12  Dn3
 BYTE   W12
// 019   ----------------------------------------
 BYTE   PATT
  POIN2 Label_8_01E54936
// 020   ----------------------------------------
 BYTE   PATT
  POIN2 Label_8_01E54936
// 021   ----------------------------------------
 BYTE   PATT
  POIN2 Label_8_01E54936
// 022   ----------------------------------------
 BYTE   PATT
  POIN2 Label_8_01E54936
// 023   ----------------------------------------
 BYTE   PATT
  POIN2 Label_8_01E54936
// 024   ----------------------------------------
 BYTE   PATT
  POIN2 Label_8_01E54936
// 025   ----------------------------------------
 BYTE   PATT
  POIN2 Label_8_01E54936
// 026   ----------------------------------------
 BYTE   PATT
  POIN2 Label_8_01E54936
// 027   ----------------------------------------
 BYTE   N06  Dn1  v107
 BYTE   N06  An1
 BYTE   N06  Dn2
 BYTE   N06  Dn4  v113
 BYTE   N06  An3
 BYTE   N06  Dn3
 BYTE   W06
 BYTE   N01  Dn1  v107
 BYTE   N01  An1
 BYTE   N01  Dn2
 BYTE   N01  Dn4  v113
 BYTE   N01  An3
 BYTE   N01  Dn3
 BYTE   W06
 BYTE   Dn1  v107
 BYTE   N01  An1
 BYTE   N01  Dn2
 BYTE   N01  Dn4  v113
 BYTE   N01  An3
 BYTE   N01  Dn3
 BYTE   W06
 BYTE   N12  Dn1  v107
 BYTE   N12  Dn3  v113
 BYTE   N11  An1  v107
 BYTE   N11  An3  v113
 BYTE   Dn2  v107
 BYTE   N11  Dn4  v113
 BYTE   W11
 BYTE   N01  Dn1  v107
 BYTE   N01  An1
 BYTE   N01  Dn2
 BYTE   N01  Dn4  v113
 BYTE   N01  An3
 BYTE   N01  Dn3
 BYTE   W06
 BYTE   N12  Dn1  v107
 BYTE   N12  An1
 BYTE   N12  Dn2
 BYTE   N12  Dn4  v113
 BYTE   N12  An3
 BYTE   N12  Dn3
 BYTE   W12
 BYTE   N06  Dn1  v107
 BYTE   N06  An1
 BYTE   N06  Dn2
 BYTE   N06  Dn4  v113
 BYTE   N06  An3
 BYTE   N06  Dn3
 BYTE   W06
 BYTE   N01  Dn1  v107
 BYTE   N01  An1
 BYTE   N01  Dn2
 BYTE   N01  Dn4  v113
 BYTE   N01  An3
 BYTE   N01  Dn3
 BYTE   W06
 BYTE   Dn1  v107
 BYTE   N01  An1
 BYTE   N01  Dn2
 BYTE   N01  Dn4  v113
 BYTE   N01  An3
 BYTE   N01  Dn3
 BYTE   W06
 BYTE   N12
 BYTE   N12  Dn1  v107
 BYTE   N11  An1
 BYTE   N11  An3  v113
 BYTE   Dn2  v107
 BYTE   N11  Dn4  v113
 BYTE   W11
 BYTE   N01  Dn1  v107
 BYTE   N01  An1
 BYTE   N01  Dn2
 BYTE   N01  Dn4  v113
 BYTE   N01  An3
 BYTE   N01  Dn3
 BYTE   W06
 BYTE   N12  Dn1  v107
 BYTE   N12  An1
 BYTE   N12  Dn2
 BYTE   N12  Dn4  v113
 BYTE   N12  An3
 BYTE   N12  Dn3
 BYTE   W12
// 028   ----------------------------------------
 BYTE   PATT
  POIN2 Label_8_01E54936
// 029   ----------------------------------------
 BYTE   PATT
  POIN2 Label_8_01E54936
// 030   ----------------------------------------
 BYTE   N06  Dn1  v107
 BYTE   N06  An1
 BYTE   N06  Dn2
 BYTE   N06  Dn4  v113
 BYTE   N06  An3
 BYTE   N06  Dn3
 BYTE   W06
 BYTE   N01  Dn1  v107
 BYTE   N01  An1
 BYTE   N01  Dn2
 BYTE   N01  Dn4  v113
 BYTE   N01  An3
 BYTE   N01  Dn3
 BYTE   W06
 BYTE   Dn1  v107
 BYTE   N01  An1
 BYTE   N01  Dn2
 BYTE   N01  Dn4  v113
 BYTE   N01  An3
 BYTE   N01  Dn3
 BYTE   W06
 BYTE   N12  As1  v107
 BYTE   N11  Fn2  v062
 BYTE   W11
 BYTE   N01
 BYTE   N01  Fn2
 BYTE   N01  As1
 BYTE   W06
 BYTE   N12  Dn3
 BYTE   N12  Fn2
 BYTE   N12  As1
 BYTE   W12
 BYTE   N06  Dn3
 BYTE   N06  Fn2
 BYTE   N06  As1
 BYTE   W06
 BYTE   N01  Dn3
 BYTE   N01  Fn2
 BYTE   N01  As1
 BYTE   W06
 BYTE   Dn3
 BYTE   N01  Fn2
 BYTE   N01  As1
 BYTE   W06
 BYTE   N12  An1
 BYTE   N11  En2  v057
 BYTE   W11
 BYTE   N01
 BYTE   N01  En2
 BYTE   N01  An1
 BYTE   W06
 BYTE   N12  An2
 BYTE   N12  En2
 BYTE   N12  An1
 BYTE   W12
 BYTE   N06  An2
 BYTE   N06  En2
 BYTE   N06  An1
 BYTE   W06
// 031   ----------------------------------------
 BYTE   N01  An2
 BYTE   N01  En2
 BYTE   N01  An1
 BYTE   W06
 BYTE   An2
 BYTE   N01  En2
 BYTE   N01  An1
 BYTE   W06
 BYTE   N12  Dn1
 BYTE   N11  An1  v050
 BYTE   W11
 BYTE   N01
 BYTE   N01  An1
 BYTE   N01  Dn1
 BYTE   W06
 BYTE   N12  Dn2
 BYTE   N12  An1
 BYTE   N12  Dn1
 BYTE   W12
 BYTE   N06  Dn2
 BYTE   N06  An1
 BYTE   N06  Dn1
 BYTE   W06
 BYTE   N01  Dn2
 BYTE   N01  An1
 BYTE   N01  Dn1
 BYTE   W06
 BYTE   Dn2
 BYTE   N01  An1
 BYTE   N01  Dn1
 BYTE   W06
 BYTE   N12
 BYTE   N11  An1  v050
 BYTE   W11
 BYTE   N01
 BYTE   N01  An1
 BYTE   N01  Dn1
 BYTE   W06
 BYTE   N12  Dn2
 BYTE   N12  An1
 BYTE   N12  Dn1
 BYTE   W12
 BYTE   N06  Dn2
 BYTE   N06  An1
 BYTE   N06  Dn1
 BYTE   W06
 BYTE   N01  Dn2
 BYTE   N01  An1
 BYTE   N01  Dn1
 BYTE   W06
// 032   ----------------------------------------
 BYTE   Dn2
 BYTE   N01  An1
 BYTE   N01  Dn1
 BYTE   W06
 BYTE   N12  As1
 BYTE   N11  Fn2  v062
 BYTE   W11
 BYTE   N01
 BYTE   N01  Fn2
 BYTE   N01  As1
 BYTE   W06
 BYTE   N12  Dn3
 BYTE   N12  Fn2
 BYTE   N12  As1
 BYTE   W12
 BYTE   N06  Dn3
 BYTE   N06  Fn2
 BYTE   N06  As1
 BYTE   W06
 BYTE   N01  Dn3
 BYTE   N01  Fn2
 BYTE   N01  As1
 BYTE   W06
 BYTE   Dn3
 BYTE   N01  Fn2
 BYTE   N01  As1
 BYTE   W06
 BYTE   N12  Cn2
 BYTE   N11  Gn2  v060
 BYTE   W11
 BYTE   N01
 BYTE   N01  Gn2
 BYTE   N01  Cn2
 BYTE   W06
 BYTE   N12  Cn3
 BYTE   N12  Gn2
 BYTE   N12  Cn2
 BYTE   W12
 BYTE   N06  Cn3
 BYTE   N06  Gn2
 BYTE   N06  Cn2
 BYTE   W06
 BYTE   N01  Cn3
 BYTE   N01  Gn2
 BYTE   N01  Cn2
 BYTE   W06
 BYTE   Cn3
 BYTE   N01  Gn2
 BYTE   N01  Cn2
 BYTE   W06
// 033   ----------------------------------------
 BYTE   N12  Dn1
 BYTE   N11  An1  v050
 BYTE   W11
 BYTE   N01
 BYTE   N01  An1
 BYTE   N01  Dn1
 BYTE   W06
 BYTE   N12  Dn2
 BYTE   N12  An1
 BYTE   N12  Dn1
 BYTE   W12
 BYTE   N06  Dn2
 BYTE   N06  An1
 BYTE   N06  Dn1
 BYTE   W06
 BYTE   N01  Dn2
 BYTE   N01  An1
 BYTE   N01  Dn1
 BYTE   W06
 BYTE   Dn2
 BYTE   N01  An1
 BYTE   N01  Dn1
 BYTE   W06
 BYTE   N12  Gn1
 BYTE   N11  Dn2  v055
 BYTE   W11
 BYTE   N01
 BYTE   N01  Dn2
 BYTE   N01  Gn1
 BYTE   W06
 BYTE   N12  Gn2
 BYTE   N12  Dn2
 BYTE   N12  Gn1
 BYTE   W12
 BYTE   N06  Gn2
 BYTE   N06  Dn2
 BYTE   N06  Gn1
 BYTE   W06
 BYTE   N01  Gn2
 BYTE   N01  Dn2
 BYTE   N01  Gn1
 BYTE   W06
 BYTE   Gn2
 BYTE   N01  Dn2
 BYTE   N01  Gn1
 BYTE   W06
 BYTE   N12  As1
 BYTE   N11  Fn2  v062
 BYTE   W11
// 034   ----------------------------------------
 BYTE   N01
 BYTE   N01  Fn2
 BYTE   N01  As1
 BYTE   W06
 BYTE   N12  Dn3
 BYTE   N12  Fn2
 BYTE   N12  As1
 BYTE   W12
 BYTE   N06  Dn3
 BYTE   N06  Fn2
 BYTE   N06  As1
 BYTE   W06
 BYTE   N01  Dn3
 BYTE   N01  Fn2
 BYTE   N01  As1
 BYTE   W06
 BYTE   Dn3
 BYTE   N01  Fn2
 BYTE   N01  As1
 BYTE   W06
 BYTE   N12  An1
 BYTE   N11  En2  v061
 BYTE   W11
 BYTE   N01
 BYTE   N01  En2
 BYTE   N01  An1
 BYTE   W06
 BYTE   N12  Cs3
 BYTE   N12  En2
 BYTE   N12  An1
 BYTE   W12
 BYTE   N06  Cs3
 BYTE   N06  En2
 BYTE   N06  An1
 BYTE   W06
 BYTE   N01  Cs3
 BYTE   N01  En2
 BYTE   N01  An1
 BYTE   W06
 BYTE   Cs3
 BYTE   N01  En2
 BYTE   N01  An1
 BYTE   W06
 BYTE   N12  Dn1
 BYTE   N11  An1  v050
 BYTE   W11
 BYTE   N01
 BYTE   N01  An1
 BYTE   N01  Dn1
 BYTE   W06
// 035   ----------------------------------------
 BYTE   N12  Dn2
 BYTE   N12  An1
 BYTE   N12  Dn1
 BYTE   W12
 BYTE   N06  Dn2
 BYTE   N06  An1
 BYTE   N06  Dn1
 BYTE   W06
 BYTE   N01  Dn2
 BYTE   N01  An1
 BYTE   N01  Dn1
 BYTE   W06
 BYTE   Dn2
 BYTE   N01  An1
 BYTE   N01  Dn1
 BYTE   W06
 BYTE   N12  Gn1
 BYTE   N11  Dn2  v055
 BYTE   W11
 BYTE   N01
 BYTE   N01  Dn2
 BYTE   N01  Gn1
 BYTE   W06
 BYTE   N12  Gn2
 BYTE   N12  Dn2
 BYTE   N12  Gn1
 BYTE   W12
 BYTE   N06  Gn2
 BYTE   N06  Dn2
 BYTE   N06  Gn1
 BYTE   W06
 BYTE   N01  Gn2
 BYTE   N01  Dn2
 BYTE   N01  Gn1
 BYTE   W06
 BYTE   Gn2
 BYTE   N01  Dn2
 BYTE   N01  Gn1
 BYTE   W06
 BYTE   N12  Cn2
 BYTE   N11  As2  v062
 BYTE   W11
 BYTE   N01
 BYTE   N01  As2
 BYTE   N01  Cn2
 BYTE   W06
 BYTE   N12  Dn3
 BYTE   N12  As2
 BYTE   N12  Cn2
 BYTE   W12
// 036   ----------------------------------------
 BYTE   N06  Dn3
 BYTE   N06  As2
 BYTE   N06  Cn2
 BYTE   W06
 BYTE   N01  Dn3
 BYTE   N01  As2
 BYTE   N01  Cn2
 BYTE   W06
 BYTE   Dn3
 BYTE   N01  As2
 BYTE   N01  Cn2
 BYTE   W06
 BYTE   N12
 BYTE   N11  As2  v062
 BYTE   W11
 BYTE   N01
 BYTE   N01  As2
 BYTE   N01  Cn2
 BYTE   W06
 BYTE   N12  Dn3
 BYTE   N12  As2
 BYTE   N12  Cn2
 BYTE   W12
 BYTE   N06  Dn3
 BYTE   N06  As2
 BYTE   N06  Cn2
 BYTE   W06
 BYTE   N01  Dn3
 BYTE   N01  As2
 BYTE   N01  Cn2
 BYTE   W06
 BYTE   Dn3
 BYTE   N01  As2
 BYTE   N01  Cn2
 BYTE   W06
 BYTE   N12  An1
 BYTE   N11  Fn2  v061
 BYTE   W11
 BYTE   N01
 BYTE   N01  Fn2
 BYTE   N01  An1
 BYTE   W06
 BYTE   N12  Cs3
 BYTE   N12  Fn2
 BYTE   N12  An1
 BYTE   W12
 BYTE   N06  Cs3
 BYTE   N06  Fn2
 BYTE   N06  An1
 BYTE   W06
// 037   ----------------------------------------
 BYTE   N01  Cs3
 BYTE   N01  Fn2
 BYTE   N01  An1
 BYTE   W06
 BYTE   Cs3
 BYTE   N01  Fn2
 BYTE   N01  An1
 BYTE   W06
 BYTE   N12
 BYTE   N11  En2  v061
 BYTE   W11
 BYTE   N01
 BYTE   N01  En2
 BYTE   N01  An1
 BYTE   W06
 BYTE   N12  Cs3
 BYTE   N12  En2
 BYTE   N12  An1
 BYTE   W12
 BYTE   N06  Cs3
 BYTE   N06  En2
 BYTE   N06  An1
 BYTE   W06
 BYTE   N01  Cs3
 BYTE   N01  En2
 BYTE   N01  An1
 BYTE   W06
 BYTE   Cs3
 BYTE   N01  En2
 BYTE   N01  An1
 BYTE   W01
 BYTE   W04
 BYTE   W54
// 038   ----------------------------------------
 BYTE   W17
 BYTE   GoTo
  POIN2 Label_8_01E54508
 BYTE   FINE

//**************** Track 10 (Midi-Chn.9) ****************//

TRSBerwickSagaBringtheWindRSflame_010:
// 000   ----------------------------------------
Label_9_01722C80:
 BYTE   TEMPO   200*TRSBerwickSagaBringtheWindRSflame_tbs/2
 BYTE   KEYSH   TRSBerwickSagaBringtheWindRSflame_key+0
 BYTE   VOICE   127
 BYTE   MOD 0
 BYTE   CnM2
 BYTE   VOL   20*TRSBerwickSagaBringtheWindRSflame_mvl/mxv
 BYTE   PAN   c_v+0
 BYTE   BEND   c_v+0
 BYTE   TEMPO   80*TRSBerwickSagaBringtheWindRSflame_tbs/2
 BYTE   W96
// 001   ----------------------------------------
 BYTE   W96
// 002   ----------------------------------------
 BYTE   W96
// 003   ----------------------------------------
 BYTE   W96
// 004   ----------------------------------------
 BYTE   N04  Cn3  v118
 BYTE   N11  Cn1  v127
 BYTE   W12
 BYTE   N23  Fn4
 BYTE   W24
 BYTE   N04  Cn3  v118
 BYTE   N11  Gn4  v127
 BYTE   W12
 BYTE   N04  Cn3  v118
 BYTE   N11  Cn1  v127
 BYTE   W12
 BYTE   N11  Gn4
 BYTE   W12
 BYTE   N11  Cn1
 BYTE   W12
 BYTE   N04  Cn3  v118
 BYTE   N11  Gn4  v127
 BYTE   W12
// 005   ----------------------------------------
 BYTE   N04  Cn3  v118
 BYTE   N11  Cn1  v127
 BYTE   W12
 BYTE   N23  Fn4
 BYTE   W24
 BYTE   N04  Cn3  v118
 BYTE   N11  Gn4  v127
 BYTE   W12
 BYTE   N04  Cn3  v118
 BYTE   N05  Cn1  v127
 BYTE   W06
 BYTE   Cn1
 BYTE   W06
 BYTE   N11  Gn4
 BYTE   W12
Label_9_01722CD6:
 BYTE   N11  Cn1  v127
 BYTE   W12
 BYTE   N04  Cn3  v118
 BYTE   N11  Gn4  v127
 BYTE   W12
// 006   ----------------------------------------
 BYTE   N04  Cn3  v118
 BYTE   N11  Cn1  v127
 BYTE   W12
 BYTE   N23  Fn4
 BYTE   W24
 BYTE   N04  Cn3  v118
 BYTE   N11  Gn4  v127
 BYTE   W12
 BYTE   N04  Cn3  v118
 BYTE   N11  Cn1  v127
 BYTE   W12
 BYTE   Gn4
 BYTE   W12
 BYTE   PEND 
Label_9_01722CFC:
 BYTE   N11  Cn1  v127
 BYTE   W12
 BYTE   N04  Cn3  v118
 BYTE   N11  Gn4  v127
 BYTE   W12
// 007   ----------------------------------------
 BYTE   N04  Cn3  v118
 BYTE   N11  Cn1  v127
 BYTE   W12
 BYTE   N23  Fn4
 BYTE   W24
 BYTE   N04  Cn3  v118
 BYTE   N11  Gn4  v127
 BYTE   W12
 BYTE   N04  Cn3  v118
 BYTE   N05  Cn1  v127
 BYTE   W06
 BYTE   Cn1
 BYTE   W06
 BYTE   N11  Gn4
 BYTE   W12
 BYTE   PEND 
// 008   ----------------------------------------
 BYTE   PATT
  POIN2 Label_9_01722CD6
// 009   ----------------------------------------
 BYTE   PATT
  POIN2 Label_9_01722CFC
// 010   ----------------------------------------
 BYTE   PATT
  POIN2 Label_9_01722CD6
// 011   ----------------------------------------
 BYTE   PATT
  POIN2 Label_9_01722CFC
// 012   ----------------------------------------
 BYTE   PATT
  POIN2 Label_9_01722CD6
// 013   ----------------------------------------
 BYTE   PATT
  POIN2 Label_9_01722CFC
// 014   ----------------------------------------
 BYTE   PATT
  POIN2 Label_9_01722CD6
// 015   ----------------------------------------
 BYTE   PATT
  POIN2 Label_9_01722CFC
// 016   ----------------------------------------
 BYTE   PATT
  POIN2 Label_9_01722CD6
// 017   ----------------------------------------
 BYTE   PATT
  POIN2 Label_9_01722CFC
// 018   ----------------------------------------
 BYTE   PATT
  POIN2 Label_9_01722CD6
// 019   ----------------------------------------
 BYTE   PATT
  POIN2 Label_9_01722CFC
// 020   ----------------------------------------
 BYTE   PATT
  POIN2 Label_9_01722CD6
// 021   ----------------------------------------
 BYTE   PATT
  POIN2 Label_9_01722CFC
// 022   ----------------------------------------
 BYTE   PATT
  POIN2 Label_9_01722CD6
// 023   ----------------------------------------
 BYTE   PATT
  POIN2 Label_9_01722CFC
// 024   ----------------------------------------
 BYTE   PATT
  POIN2 Label_9_01722CD6
// 025   ----------------------------------------
 BYTE   PATT
  POIN2 Label_9_01722CFC
// 026   ----------------------------------------
 BYTE   PATT
  POIN2 Label_9_01722CD6
// 027   ----------------------------------------
 BYTE   PATT
  POIN2 Label_9_01722CFC
// 028   ----------------------------------------
 BYTE   PATT
  POIN2 Label_9_01722CD6
// 029   ----------------------------------------
 BYTE   PATT
  POIN2 Label_9_01722CFC
// 030   ----------------------------------------
 BYTE   PATT
  POIN2 Label_9_01722CD6
// 031   ----------------------------------------
 BYTE   PATT
  POIN2 Label_9_01722CFC
// 032   ----------------------------------------
 BYTE   PATT
  POIN2 Label_9_01722CD6
// 033   ----------------------------------------
 BYTE   PATT
  POIN2 Label_9_01722CFC
// 034   ----------------------------------------
 BYTE   PATT
  POIN2 Label_9_01722CD6
// 035   ----------------------------------------
 BYTE   PATT
  POIN2 Label_9_01722CFC
// 036   ----------------------------------------
 BYTE   PATT
  POIN2 Label_9_01722CD6
// 037   ----------------------------------------
 BYTE   PATT
  POIN2 Label_9_01722CFC
// 038   ----------------------------------------
 BYTE   N11  Cn1  v127
 BYTE   W12
 BYTE   N04  Cn3  v118
 BYTE   N11  Gn4  v127
 BYTE   W07
 BYTE   W04
 BYTE   N92  Cn3  v118
 BYTE   W04
 BYTE   N03  Cn3  v118
 BYTE   W48
 BYTE   W01
 BYTE   W17
 BYTE   GoTo
  POIN2 Label_9_01722C80
 BYTE   FINE

//**************** Track 11 (Midi-Chn.10) ****************//

TRSBerwickSagaBringtheWindRSflame_011:
// 000   ----------------------------------------
Label_10_54C6EB:
 BYTE   TEMPO   200*TRSBerwickSagaBringtheWindRSflame_tbs/2
 BYTE   KEYSH   TRSBerwickSagaBringtheWindRSflame_key+0
 BYTE   VOICE   79
 BYTE   MOD 0
 BYTE   CnM2
 BYTE   VOL   30*TRSBerwickSagaBringtheWindRSflame_mvl/mxv
 BYTE   PAN   c_v+0
 BYTE   BEND   c_v+0
 BYTE   N96  Dn4  v113
 BYTE   TEMPO   80*TRSBerwickSagaBringtheWindRSflame_tbs/2
 BYTE   W96
// 001   ----------------------------------------
 BYTE   N96  Cn4  v113
 BYTE   W96
// 002   ----------------------------------------
 BYTE   N96  An3
 BYTE   W04
 BYTE   N96
 BYTE   W96
// 003   ----------------------------------------
 BYTE   W96
// 004   ----------------------------------------
 BYTE   W96
// 005   ----------------------------------------
 BYTE   W96
// 006   ----------------------------------------
 BYTE   W96
// 007   ----------------------------------------
 BYTE   W96
// 008   ----------------------------------------
 BYTE   W96
// 009   ----------------------------------------
 BYTE   W96
// 010   ----------------------------------------
 BYTE   W96
// 011   ----------------------------------------
 BYTE   W96
// 012   ----------------------------------------
 BYTE   W96
// 013   ----------------------------------------
 BYTE   W90
 BYTE   W01
 BYTE   An3
 BYTE   W04
 BYTE   An3
 BYTE   W96
// 014   ----------------------------------------
 BYTE   W90
 BYTE   W01
 BYTE   En4
 BYTE   W96
// 015   ----------------------------------------
 BYTE   N48  Fn4
 BYTE   W48
 BYTE   N36  Gn4
 BYTE   W36
 BYTE   N06  An4  v123
 BYTE   W06
 BYTE   Gn4
 BYTE   W06
// 016   ----------------------------------------
 BYTE   N96  En4
 BYTE   W96
// 017   ----------------------------------------
 BYTE   Dn4
 BYTE   W96
// 018   ----------------------------------------
 BYTE   An3
 BYTE   W96
// 019   ----------------------------------------
 BYTE   N48
 BYTE   W48
 BYTE   Bn3
 BYTE   W96
// 020   ----------------------------------------
 BYTE   W96
// 021   ----------------------------------------
 BYTE   W96
// 022   ----------------------------------------
 BYTE   W96
// 023   ----------------------------------------
 BYTE   W96
// 024   ----------------------------------------
 BYTE   W96
// 025   ----------------------------------------
 BYTE   W96
// 026   ----------------------------------------
 BYTE   W96
// 027   ----------------------------------------
 BYTE   W96
// 028   ----------------------------------------
 BYTE   W96
// 029   ----------------------------------------
 BYTE   W96
// 030   ----------------------------------------
 BYTE   W96
// 031   ----------------------------------------
 BYTE   W96
// 032   ----------------------------------------
 BYTE   W96
// 033   ----------------------------------------
 BYTE   W96
// 034   ----------------------------------------
 BYTE   W96
// 035   ----------------------------------------
 BYTE   W42
 BYTE   W01
 BYTE   W04
 BYTE   W24
 BYTE   N24  An3  v113
 BYTE   W24
 BYTE   En4
 BYTE   W06
// 036   ----------------------------------------
 BYTE   W17
 BYTE   N24  Gn4  v113
 BYTE   GoTo
  POIN2 Label_10_54C6EB
 BYTE   FINE

//******************************************************//
	ALIGN 4

TRSBerwickSagaBringtheWindRSflame:
	BYTE	11	// NumTrks
	BYTE	0	// NumBlks
	BYTE	TRSBerwickSagaBringtheWindRSflame_pri	// Priority
	BYTE	TRSBerwickSagaBringtheWindRSflame_rev	// Reverb.
    
	POIN2	TRSBerwickSagaBringtheWindRSflame_grp
    
	POIN2	TRSBerwickSagaBringtheWindRSflame_001
	POIN2	TRSBerwickSagaBringtheWindRSflame_002
	POIN2	TRSBerwickSagaBringtheWindRSflame_003
	POIN2	TRSBerwickSagaBringtheWindRSflame_004
	POIN2	TRSBerwickSagaBringtheWindRSflame_005
	POIN2	TRSBerwickSagaBringtheWindRSflame_006
	POIN2	TRSBerwickSagaBringtheWindRSflame_007
	POIN2	TRSBerwickSagaBringtheWindRSflame_008
	POIN2	TRSBerwickSagaBringtheWindRSflame_009
	POIN2	TRSBerwickSagaBringtheWindRSflame_010
	POIN2	TRSBerwickSagaBringtheWindRSflame_011

	
