//Event file generated from Sappy .s format.
	#include "MPlayDef.event"

	#define	TRSBerwickSagaFighttotheDeathGustabo_grp  voicegroup000
	#define	TRSBerwickSagaFighttotheDeathGustabo_pri  0
	#define	TRSBerwickSagaFighttotheDeathGustabo_rev  0
	#define	TRSBerwickSagaFighttotheDeathGustabo_mvl  127
	#define	TRSBerwickSagaFighttotheDeathGustabo_key  0
	#define	TRSBerwickSagaFighttotheDeathGustabo_tbs  1
	#define	TRSBerwickSagaFighttotheDeathGustabo_exg  0
	#define	TRSBerwickSagaFighttotheDeathGustabo_cmp  1

	// .rodata
	//	TRSBerwickSagaFighttotheDeathGustabo
	ALIGN 4


//**************** Track 1 (Midi-Chn.0) ****************//

TRSBerwickSagaFighttotheDeathGustabo_001:
//  #01 //000   ----------------------------------------
 BYTE   KEYSH   TRSBerwickSagaFighttotheDeathGustabo_key+0
 BYTE   TEMPO   200*TRSBerwickSagaFighttotheDeathGustabo_tbs/2
 BYTE   VOICE   38
 BYTE   VOL   23*TRSBerwickSagaFighttotheDeathGustabo_mvl/mxv
 BYTE   W48
 BYTE   TEMPO   130*TRSBerwickSagaFighttotheDeathGustabo_tbs/2
 BYTE   N12  An1  v107
 BYTE   W12
 BYTE   N05
 BYTE   W06
 BYTE   An1
 BYTE   W06
 BYTE   N12
 BYTE   W12
 BYTE   N05
 BYTE   W06
 BYTE   An1
 BYTE   W06
//  #01 //001   ----------------------------------------
Label_012A97E9:
 BYTE   N12  An1  v107
 BYTE   W12
 BYTE   N05
 BYTE   W06
 BYTE   An1
 BYTE   W06
 BYTE   N12
 BYTE   W12
 BYTE   N05
 BYTE   W06
 BYTE   An1
 BYTE   W06
 BYTE   N12
 BYTE   W12
 BYTE   N05
 BYTE   W06
 BYTE   An1
 BYTE   W06
 BYTE   N12
 BYTE   W12
 BYTE   N05
 BYTE   W06
 BYTE   An1
 BYTE   W06
 BYTE   PEND 
//  #01 //002   ----------------------------------------
 BYTE   PATT
  POIN2 Label_012A97E9
//  #01 //003   ----------------------------------------
 BYTE   PATT
  POIN2 Label_012A97E9
//  #01 //004   ----------------------------------------
 BYTE   PATT
  POIN2 Label_012A97E9
//  #01 //005   ----------------------------------------
 BYTE   PATT
  POIN2 Label_012A97E9
//  #01 //006   ----------------------------------------
 BYTE   PATT
  POIN2 Label_012A97E9
//  #01 //007   ----------------------------------------
 BYTE   PATT
  POIN2 Label_012A97E9
//  #01 //008   ----------------------------------------
 BYTE   PATT
  POIN2 Label_012A97E9
//  #01 //009   ----------------------------------------
 BYTE   PATT
  POIN2 Label_012A97E9
//  #01 //010   ----------------------------------------
 BYTE   PATT
  POIN2 Label_012A97E9
//  #01 //011   ----------------------------------------
 BYTE   PATT
  POIN2 Label_012A97E9
//  #01 //012   ----------------------------------------
 BYTE   PATT
  POIN2 Label_012A97E9
//  #01 //013   ----------------------------------------
 BYTE   PATT
  POIN2 Label_012A97E9
//  #01 //014   ----------------------------------------
 BYTE   PATT
  POIN2 Label_012A97E9
//  #01 //015   ----------------------------------------
 BYTE   PATT
  POIN2 Label_012A97E9
//  #01 //016   ----------------------------------------
 BYTE   PATT
  POIN2 Label_012A97E9
//  #01 //017   ----------------------------------------
 BYTE   PATT
  POIN2 Label_012A97E9
//  #01 //018   ----------------------------------------
 BYTE   PATT
  POIN2 Label_012A97E9
//  #01 //019   ----------------------------------------
 BYTE   PATT
  POIN2 Label_012A97E9
//  #01 //020   ----------------------------------------
 BYTE   N12  An1  v107
 BYTE   W12
 BYTE   N05
 BYTE   W06
 BYTE   An1
 BYTE   W06
 BYTE   N12
 BYTE   W12
 BYTE   N05
 BYTE   W06
 BYTE   An1
 BYTE   W06
 BYTE   N12  Cn2
 BYTE   W12
 BYTE   N05
 BYTE   W06
 BYTE   Cn2
 BYTE   W06
 BYTE   N12
 BYTE   W12
 BYTE   N05
 BYTE   W06
 BYTE   Cn2
 BYTE   W06
//  #01 //021   ----------------------------------------
 BYTE   N12
 BYTE   W12
 BYTE   N05
 BYTE   W06
 BYTE   Cn2
 BYTE   W06
 BYTE   N12
 BYTE   W12
 BYTE   N05
 BYTE   W06
 BYTE   Cn2
 BYTE   W06
Label_012A9885:
 BYTE   N12  Cn2  v107
 BYTE   W12
 BYTE   N05
 BYTE   W06
 BYTE   Cn2
 BYTE   W06
 BYTE   N12
 BYTE   W12
 BYTE   N05
 BYTE   W06
 BYTE   Cn2
 BYTE   W06
//  #01 //022   ----------------------------------------
Label_012A9893:
 BYTE   N12  Cn2  v107
 BYTE   W12
 BYTE   N05
 BYTE   W06
 BYTE   Cn2
 BYTE   W06
 BYTE   N12
 BYTE   W12
 BYTE   N05
 BYTE   W06
 BYTE   Cn2
 BYTE   W06
 BYTE   N12
 BYTE   W12
 BYTE   N05
 BYTE   W06
 BYTE   Cn2
 BYTE   W06
 BYTE   N12
 BYTE   W12
 BYTE   N05
 BYTE   W06
 BYTE   Cn2
 BYTE   W06
 BYTE   PEND 
//  #01 //023   ----------------------------------------
 BYTE   PATT
  POIN2 Label_012A9893
//  #01 //024   ----------------------------------------
 BYTE   PATT
  POIN2 Label_012A9893
//  #01 //025   ----------------------------------------
 BYTE   PATT
  POIN2 Label_012A9893
//  #01 //026   ----------------------------------------
 BYTE   PATT
  POIN2 Label_012A9893
//  #01 //027   ----------------------------------------
 BYTE   PATT
  POIN2 Label_012A9893
//  #01 //028   ----------------------------------------
 BYTE   PATT
  POIN2 Label_012A9893
//  #01 //029   ----------------------------------------
 BYTE   PATT
  POIN2 Label_012A9893
//  #01 //030   ----------------------------------------
 BYTE   PATT
  POIN2 Label_012A9893
//  #01 //031   ----------------------------------------
 BYTE   PATT
  POIN2 Label_012A9893
//  #01 //032   ----------------------------------------
 BYTE   PATT
  POIN2 Label_012A9893
//  #01 //033   ----------------------------------------
 BYTE   PATT
  POIN2 Label_012A9893
//  #01 //034   ----------------------------------------
 BYTE   PATT
  POIN2 Label_012A9893
//  #01 //035   ----------------------------------------
 BYTE   PATT
  POIN2 Label_012A9893
//  #01 //036   ----------------------------------------
 BYTE   PATT
  POIN2 Label_012A9893
//  #01 //037   ----------------------------------------
 BYTE   PATT
  POIN2 Label_012A9893
//  #01 //038   ----------------------------------------
 BYTE   PATT
  POIN2 Label_012A9893
//  #01 //039   ----------------------------------------
 BYTE   PATT
  POIN2 Label_012A9893
//  #01 //040   ----------------------------------------
 BYTE   N12  Bn1  v107
 BYTE   W12
 BYTE   N05  Cn2
 BYTE   W06
 BYTE   Cn2
 BYTE   W06
 BYTE   N12
 BYTE   W12
 BYTE   N05
 BYTE   W06
 BYTE   Cn2
 BYTE   W06
 BYTE   GoTo
  POIN2 Label_012A9885
 BYTE   FINE

//**************** Track 2 (Midi-Chn.1) ****************//

TRSBerwickSagaFighttotheDeathGustabo_002:
//  #02 //000   ----------------------------------------
 BYTE   KEYSH   TRSBerwickSagaFighttotheDeathGustabo_key+0
 BYTE   VOICE   56
 BYTE   VOL   52*TRSBerwickSagaFighttotheDeathGustabo_mvl/mxv
 BYTE   W96
//  #02 //001   ----------------------------------------
 BYTE   W96
//  #02 //002   ----------------------------------------
 BYTE   W96
//  #02 //003   ----------------------------------------
 BYTE   W96
//  #02 //004   ----------------------------------------
 BYTE   W96
//  #02 //005   ----------------------------------------
 BYTE   W96
//  #02 //006   ----------------------------------------
 BYTE   W96
//  #02 //007   ----------------------------------------
 BYTE   W96
//  #02 //008   ----------------------------------------
 BYTE   W96
//  #02 //009   ----------------------------------------
 BYTE   W96
//  #02 //010   ----------------------------------------
 BYTE   W96
//  #02 //011   ----------------------------------------
 BYTE   W48
 BYTE   N92  Cn3  v101  gtp3
 BYTE   En3
 BYTE   N92  Gn3  v101  gtp3
 BYTE   W03
 BYTE   VOL   41*TRSBerwickSagaFighttotheDeathGustabo_mvl/mxv
 BYTE   W03
 BYTE   VOL   42*TRSBerwickSagaFighttotheDeathGustabo_mvl/mxv
 BYTE   W03
 BYTE   VOL   43*TRSBerwickSagaFighttotheDeathGustabo_mvl/mxv
 BYTE   W03
 BYTE   VOL   44*TRSBerwickSagaFighttotheDeathGustabo_mvl/mxv
 BYTE   W03
 BYTE   VOL   45*TRSBerwickSagaFighttotheDeathGustabo_mvl/mxv
 BYTE   W06
 BYTE   VOL   46*TRSBerwickSagaFighttotheDeathGustabo_mvl/mxv
 BYTE   W03
 BYTE   VOL   47*TRSBerwickSagaFighttotheDeathGustabo_mvl/mxv
 BYTE   W03
 BYTE   VOL   48*TRSBerwickSagaFighttotheDeathGustabo_mvl/mxv
 BYTE   W06
 BYTE   VOL   49*TRSBerwickSagaFighttotheDeathGustabo_mvl/mxv
 BYTE   W03
 BYTE   VOL   50*TRSBerwickSagaFighttotheDeathGustabo_mvl/mxv
 BYTE   W06
 BYTE   VOL   51*TRSBerwickSagaFighttotheDeathGustabo_mvl/mxv
 BYTE   W06
//  #02 //012   ----------------------------------------
 BYTE   VOL   52*TRSBerwickSagaFighttotheDeathGustabo_mvl/mxv
 BYTE   W06
 BYTE   VOL   53*TRSBerwickSagaFighttotheDeathGustabo_mvl/mxv
 BYTE   W06
 BYTE   VOL   54*TRSBerwickSagaFighttotheDeathGustabo_mvl/mxv
 BYTE   W03
 BYTE   VOL   55*TRSBerwickSagaFighttotheDeathGustabo_mvl/mxv
 BYTE   W03
 BYTE   VOL   56*TRSBerwickSagaFighttotheDeathGustabo_mvl/mxv
 BYTE   W06
 BYTE   VOL   57*TRSBerwickSagaFighttotheDeathGustabo_mvl/mxv
 BYTE   W03
 BYTE   VOL   58*TRSBerwickSagaFighttotheDeathGustabo_mvl/mxv
 BYTE   W06
 BYTE   VOL   59*TRSBerwickSagaFighttotheDeathGustabo_mvl/mxv
 BYTE   W03
 BYTE   VOL   60*TRSBerwickSagaFighttotheDeathGustabo_mvl/mxv
 BYTE   W06
 BYTE   VOL   61*TRSBerwickSagaFighttotheDeathGustabo_mvl/mxv
 BYTE   W06
 BYTE   VOL   48*TRSBerwickSagaFighttotheDeathGustabo_mvl/mxv
 BYTE   N36  An2  v107
 BYTE   W36
 BYTE   N12  Cn3
 BYTE   W12
//  #02 //013   ----------------------------------------
 BYTE   N96  Gn3
 BYTE   W96
//  #02 //014   ----------------------------------------
Label_012A96EA:
 BYTE   N18  Fs3  v107
 BYTE   W18
 BYTE   Dn3
 BYTE   W18
 BYTE   N12  An2
 BYTE   W12
 BYTE   N36  Cn3
 BYTE   W36
 BYTE   N12  En3
 BYTE   W12
 BYTE   PEND 
//  #02 //015   ----------------------------------------
 BYTE   N96  Bn3
 BYTE   W96
//  #02 //016   ----------------------------------------
Label_012A96FD:
 BYTE   N18  Gn3  v107
 BYTE   W18
 BYTE   En3
 BYTE   W18
 BYTE   N12  Bn2
 BYTE   W12
 BYTE   N36  An2
 BYTE   W36
 BYTE   N12  Cn3
 BYTE   W12
 BYTE   PEND 
//  #02 //017   ----------------------------------------
 BYTE   N96  Gn3
 BYTE   W96
//  #02 //018   ----------------------------------------
Label_012A9710:
 BYTE   N18  Fs3  v107
 BYTE   W18
 BYTE   Dn3
 BYTE   W18
 BYTE   N12  Fs3
 BYTE   W12
 BYTE   N36  En3
 BYTE   W36
 BYTE   N12  Bn3
 BYTE   W12
 BYTE   PEND 
//  #02 //019   ----------------------------------------
Label_012A9720:
 BYTE   N36  Dn4  v107
 BYTE   W36
 BYTE   N12  Cn4
 BYTE   W12
 BYTE   N92  Bn3  v107  gtp3
 BYTE   W48
 BYTE   PEND 
//  #02 //020   ----------------------------------------
 BYTE   W96
//  #02 //021   ----------------------------------------
 BYTE   W48
Label_012A972F:
 BYTE   W48
//  #02 //022   ----------------------------------------
 BYTE   W96
//  #02 //023   ----------------------------------------
 BYTE   W96
//  #02 //024   ----------------------------------------
 BYTE   W96
//  #02 //025   ----------------------------------------
 BYTE   W96
//  #02 //026   ----------------------------------------
 BYTE   W96
//  #02 //027   ----------------------------------------
 BYTE   W96
//  #02 //028   ----------------------------------------
 BYTE   W96
//  #02 //029   ----------------------------------------
 BYTE   W96
//  #02 //030   ----------------------------------------
 BYTE   W96
//  #02 //031   ----------------------------------------
 BYTE   W48
 BYTE   VOL   52*TRSBerwickSagaFighttotheDeathGustabo_mvl/mxv
 BYTE   N92  Ds3  v094  gtp3
 BYTE   Gn3
 BYTE   N92  As3  v094  gtp3
 BYTE   Dn4
 BYTE   W03
 BYTE   VOL   41*TRSBerwickSagaFighttotheDeathGustabo_mvl/mxv
 BYTE   W03
 BYTE   VOL   42*TRSBerwickSagaFighttotheDeathGustabo_mvl/mxv
 BYTE   W03
 BYTE   VOL   43*TRSBerwickSagaFighttotheDeathGustabo_mvl/mxv
 BYTE   W03
 BYTE   VOL   44*TRSBerwickSagaFighttotheDeathGustabo_mvl/mxv
 BYTE   W03
 BYTE   VOL   45*TRSBerwickSagaFighttotheDeathGustabo_mvl/mxv
 BYTE   W06
 BYTE   VOL   46*TRSBerwickSagaFighttotheDeathGustabo_mvl/mxv
 BYTE   W03
 BYTE   VOL   47*TRSBerwickSagaFighttotheDeathGustabo_mvl/mxv
 BYTE   W03
 BYTE   VOL   48*TRSBerwickSagaFighttotheDeathGustabo_mvl/mxv
 BYTE   W06
 BYTE   VOL   49*TRSBerwickSagaFighttotheDeathGustabo_mvl/mxv
 BYTE   W03
 BYTE   VOL   50*TRSBerwickSagaFighttotheDeathGustabo_mvl/mxv
 BYTE   W06
 BYTE   VOL   51*TRSBerwickSagaFighttotheDeathGustabo_mvl/mxv
 BYTE   W06
//  #02 //032   ----------------------------------------
 BYTE   VOL   52*TRSBerwickSagaFighttotheDeathGustabo_mvl/mxv
 BYTE   W06
 BYTE   VOL   53*TRSBerwickSagaFighttotheDeathGustabo_mvl/mxv
 BYTE   W06
 BYTE   VOL   54*TRSBerwickSagaFighttotheDeathGustabo_mvl/mxv
 BYTE   W03
 BYTE   VOL   55*TRSBerwickSagaFighttotheDeathGustabo_mvl/mxv
 BYTE   W03
 BYTE   VOL   56*TRSBerwickSagaFighttotheDeathGustabo_mvl/mxv
 BYTE   W06
 BYTE   VOL   57*TRSBerwickSagaFighttotheDeathGustabo_mvl/mxv
 BYTE   W03
 BYTE   VOL   58*TRSBerwickSagaFighttotheDeathGustabo_mvl/mxv
 BYTE   W06
 BYTE   VOL   59*TRSBerwickSagaFighttotheDeathGustabo_mvl/mxv
 BYTE   W03
 BYTE   VOL   60*TRSBerwickSagaFighttotheDeathGustabo_mvl/mxv
 BYTE   W06
 BYTE   VOL   61*TRSBerwickSagaFighttotheDeathGustabo_mvl/mxv
 BYTE   W06
 BYTE   VOL   48*TRSBerwickSagaFighttotheDeathGustabo_mvl/mxv
 BYTE   N36  Cn3  v107
 BYTE   W36
 BYTE   N12  Ds3
 BYTE   W12
//  #02 //033   ----------------------------------------
 BYTE   N96  As3
 BYTE   W96
//  #02 //034   ----------------------------------------
Label_012A977D:
 BYTE   N18  An3  v107
 BYTE   W18
 BYTE   Fn3
 BYTE   W18
 BYTE   N12  Cn3
 BYTE   W12
 BYTE   N36  Ds3
 BYTE   W36
 BYTE   N12  Gn3
 BYTE   W12
 BYTE   PEND 
//  #02 //035   ----------------------------------------
 BYTE   N96  Dn4
 BYTE   W96
//  #02 //036   ----------------------------------------
Label_012A9790:
 BYTE   N18  As3  v107
 BYTE   W18
 BYTE   Gn3
 BYTE   W18
 BYTE   N12  Dn3
 BYTE   W12
 BYTE   N36  Cn3
 BYTE   W36
 BYTE   N12  Ds3
 BYTE   W12
 BYTE   PEND 
//  #02 //037   ----------------------------------------
 BYTE   N96  As3
 BYTE   W96
//  #02 //038   ----------------------------------------
Label_012A97A3:
 BYTE   N18  An3  v107
 BYTE   W18
 BYTE   Fn3
 BYTE   W18
 BYTE   N12  An3
 BYTE   W12
 BYTE   N36  Gn3
 BYTE   W36
 BYTE   N12  Dn4
 BYTE   W12
 BYTE   PEND 
//  #02 //039   ----------------------------------------
Label_012A97B3:
 BYTE   N36  Fn4  v107
 BYTE   W36
 BYTE   N12  Ds4
 BYTE   W12
 BYTE   N92  Dn4  v107  gtp3
 BYTE   W48
 BYTE   PEND 
//  #02 //040   ----------------------------------------
 BYTE   W48
 BYTE   GoTo
  POIN2 Label_012A972F
 BYTE   FINE

//**************** Track 3 (Midi-Chn.2) ****************//

TRSBerwickSagaFighttotheDeathGustabo_003:
//  #03 //000   ----------------------------------------
 BYTE   KEYSH   TRSBerwickSagaFighttotheDeathGustabo_key+0
 BYTE   W01
 BYTE   VOICE   57
 BYTE   VOL   62*TRSBerwickSagaFighttotheDeathGustabo_mvl/mxv
 BYTE   PAN   c_v-24
 BYTE   W92
 BYTE   W03
//  #03 //001   ----------------------------------------
 BYTE   W96
//  #03 //002   ----------------------------------------
 BYTE   W96
//  #03 //003   ----------------------------------------
 BYTE   W96
//  #03 //004   ----------------------------------------
 BYTE   W48
 BYTE   N36  An2  v107
 BYTE   W36
 BYTE   N12  Cn3
 BYTE   W12
//  #03 //005   ----------------------------------------
 BYTE   N96  Gn3
 BYTE   W96
//  #03 //006   ----------------------------------------
 BYTE   PATT
  POIN2 Label_012A96EA
//  #03 //007   ----------------------------------------
 BYTE   N96  Bn3  v107
 BYTE   W96
//  #03 //008   ----------------------------------------
 BYTE   PATT
  POIN2 Label_012A96FD
//  #03 //009   ----------------------------------------
 BYTE   N96  Gn3  v107
 BYTE   W96
//  #03 //010   ----------------------------------------
 BYTE   N18  Fs3
 BYTE   W18
 BYTE   Dn3
 BYTE   W18
 BYTE   N12  Fs3
 BYTE   W12
 BYTE   TIE  En3
 BYTE   W48
//  #03 //011   ----------------------------------------
 BYTE   W09
 BYTE   VOL   61*TRSBerwickSagaFighttotheDeathGustabo_mvl/mxv
 BYTE   W06
 BYTE   VOL   60*TRSBerwickSagaFighttotheDeathGustabo_mvl/mxv
 BYTE   W09
 BYTE   VOL   59*TRSBerwickSagaFighttotheDeathGustabo_mvl/mxv
 BYTE   W06
 BYTE   VOL   58*TRSBerwickSagaFighttotheDeathGustabo_mvl/mxv
 BYTE   W06
 BYTE   VOL   57*TRSBerwickSagaFighttotheDeathGustabo_mvl/mxv
 BYTE   W09
 BYTE   VOL   56*TRSBerwickSagaFighttotheDeathGustabo_mvl/mxv
 BYTE   W06
 BYTE   VOL   55*TRSBerwickSagaFighttotheDeathGustabo_mvl/mxv
 BYTE   W03
 BYTE   VOL   54*TRSBerwickSagaFighttotheDeathGustabo_mvl/mxv
 BYTE   W09
 BYTE   VOL   53*TRSBerwickSagaFighttotheDeathGustabo_mvl/mxv
 BYTE   W06
 BYTE   VOL   52*TRSBerwickSagaFighttotheDeathGustabo_mvl/mxv
 BYTE   W09
 BYTE   VOL   51*TRSBerwickSagaFighttotheDeathGustabo_mvl/mxv
 BYTE   W09
 BYTE   VOL   50*TRSBerwickSagaFighttotheDeathGustabo_mvl/mxv
 BYTE   W09
//  #03 //012   ----------------------------------------
 BYTE   VOL   49*TRSBerwickSagaFighttotheDeathGustabo_mvl/mxv
 BYTE   W06
 BYTE   VOL   48*TRSBerwickSagaFighttotheDeathGustabo_mvl/mxv
 BYTE   W06
 BYTE   VOL   47*TRSBerwickSagaFighttotheDeathGustabo_mvl/mxv
 BYTE   W06
 BYTE   VOL   46*TRSBerwickSagaFighttotheDeathGustabo_mvl/mxv
 BYTE   W06
 BYTE   VOL   45*TRSBerwickSagaFighttotheDeathGustabo_mvl/mxv
 BYTE   W06
 BYTE   VOL   44*TRSBerwickSagaFighttotheDeathGustabo_mvl/mxv
 BYTE   W06
 BYTE   VOL   43*TRSBerwickSagaFighttotheDeathGustabo_mvl/mxv
 BYTE   W06
 BYTE   VOL   42*TRSBerwickSagaFighttotheDeathGustabo_mvl/mxv
 BYTE   W03
 BYTE   VOL   41*TRSBerwickSagaFighttotheDeathGustabo_mvl/mxv
 BYTE   W02
 BYTE   EOT
 BYTE   W01
 BYTE   VOL   62*TRSBerwickSagaFighttotheDeathGustabo_mvl/mxv
 BYTE   N36  An2
 BYTE   W36
 BYTE   N12  Cn3
 BYTE   W12
//  #03 //013   ----------------------------------------
 BYTE   N96  Gn3
 BYTE   W96
//  #03 //014   ----------------------------------------
 BYTE   PATT
  POIN2 Label_012A96EA
//  #03 //015   ----------------------------------------
 BYTE   N96  Bn3  v107
 BYTE   W96
//  #03 //016   ----------------------------------------
 BYTE   PATT
  POIN2 Label_012A96FD
//  #03 //017   ----------------------------------------
 BYTE   N96  Gn3  v107
 BYTE   W96
//  #03 //018   ----------------------------------------
 BYTE   PATT
  POIN2 Label_012A9710
//  #03 //019   ----------------------------------------
 BYTE   PATT
  POIN2 Label_012A9720
//  #03 //020   ----------------------------------------
 BYTE   W96
//  #03 //021   ----------------------------------------
 BYTE   W48
Label_012AA219:
 BYTE   W48
//  #03 //022   ----------------------------------------
 BYTE   W96
//  #03 //023   ----------------------------------------
 BYTE   W96
//  #03 //024   ----------------------------------------
Label_012AA21C:
 BYTE   W48
 BYTE   N36  Cn3  v107
 BYTE   W36
 BYTE   N12  Ds3
 BYTE   W12
 BYTE   PEND 
//  #03 //025   ----------------------------------------
 BYTE   N96  As3
 BYTE   W96
//  #03 //026   ----------------------------------------
 BYTE   PATT
  POIN2 Label_012A977D
//  #03 //027   ----------------------------------------
 BYTE   N96  Dn4  v107
 BYTE   W96
//  #03 //028   ----------------------------------------
 BYTE   PATT
  POIN2 Label_012A9790
//  #03 //029   ----------------------------------------
 BYTE   N96  As3  v107
 BYTE   W96
//  #03 //030   ----------------------------------------
 BYTE   N18  An3
 BYTE   W18
 BYTE   Fn3
 BYTE   W18
 BYTE   N12  An3
 BYTE   W12
 BYTE   N84  Gn3
 BYTE   W48
//  #03 //031   ----------------------------------------
 BYTE   W36
 BYTE   N06  Fn3
 BYTE   W06
 BYTE   Ds3
 BYTE   W06
 BYTE   N92  Gn2  v087  gtp3
 BYTE   As2
 BYTE   N92  Dn3  v107  gtp3
 BYTE   W48
//  #03 //032   ----------------------------------------
 BYTE   PATT
  POIN2 Label_012AA21C
//  #03 //033   ----------------------------------------
 BYTE   N96  As3  v107
 BYTE   W96
//  #03 //034   ----------------------------------------
 BYTE   PATT
  POIN2 Label_012A977D
//  #03 //035   ----------------------------------------
 BYTE   N96  Dn4  v107
 BYTE   W96
//  #03 //036   ----------------------------------------
 BYTE   PATT
  POIN2 Label_012A9790
//  #03 //037   ----------------------------------------
 BYTE   N96  As3  v107
 BYTE   W96
//  #03 //038   ----------------------------------------
 BYTE   PATT
  POIN2 Label_012A97A3
//  #03 //039   ----------------------------------------
 BYTE   PATT
  POIN2 Label_012A97B3
//  #03 //040   ----------------------------------------
 BYTE   W48
 BYTE   GoTo
  POIN2 Label_012AA219
 BYTE   FINE

//**************** Track 4 (Midi-Chn.3) ****************//

TRSBerwickSagaFighttotheDeathGustabo_004:
//  #04 //000   ----------------------------------------
 BYTE   KEYSH   TRSBerwickSagaFighttotheDeathGustabo_key+0
 BYTE   W01
 BYTE   VOICE   60
 BYTE   VOL   48*TRSBerwickSagaFighttotheDeathGustabo_mvl/mxv
 BYTE   PAN   c_v+31
 BYTE   W92
 BYTE   W03
//  #04 //001   ----------------------------------------
 BYTE   W96
//  #04 //002   ----------------------------------------
 BYTE   W96
//  #04 //003   ----------------------------------------
 BYTE   W96
//  #04 //004   ----------------------------------------
 BYTE   W48
 BYTE   N36  An2  v118
 BYTE   W36
 BYTE   N12  Cn3
 BYTE   W12
//  #04 //005   ----------------------------------------
 BYTE   N96  Gn3
 BYTE   W96
//  #04 //006   ----------------------------------------
Label_012A9FB9:
 BYTE   N18  Fs3  v118
 BYTE   W18
 BYTE   Dn3
 BYTE   W18
 BYTE   N12  An2
 BYTE   W12
 BYTE   N36  Cn3
 BYTE   W36
 BYTE   N12  En3
 BYTE   W12
 BYTE   PEND 
//  #04 //007   ----------------------------------------
 BYTE   N96  Bn3
 BYTE   W96
//  #04 //008   ----------------------------------------
Label_012A9FCC:
 BYTE   N18  Gn3  v118
 BYTE   W18
 BYTE   En3
 BYTE   W18
 BYTE   N12  Bn2
 BYTE   W12
 BYTE   N36  An2
 BYTE   W36
 BYTE   N12  Cn3
 BYTE   W12
 BYTE   PEND 
//  #04 //009   ----------------------------------------
 BYTE   N96  Gn3
 BYTE   W96
//  #04 //010   ----------------------------------------
 BYTE   N18  Fs3
 BYTE   W18
 BYTE   Dn3
 BYTE   W18
 BYTE   N12  Fs3
 BYTE   W12
 BYTE   TIE  En3
 BYTE   W48
//  #04 //011   ----------------------------------------
 BYTE   W06
 BYTE   VOL   47*TRSBerwickSagaFighttotheDeathGustabo_mvl/mxv
 BYTE   W06
 BYTE   VOL   46*TRSBerwickSagaFighttotheDeathGustabo_mvl/mxv
 BYTE   W03
 BYTE   VOL   45*TRSBerwickSagaFighttotheDeathGustabo_mvl/mxv
 BYTE   W09
 BYTE   VOL   44*TRSBerwickSagaFighttotheDeathGustabo_mvl/mxv
 BYTE   W06
 BYTE   VOL   43*TRSBerwickSagaFighttotheDeathGustabo_mvl/mxv
 BYTE   W09
 BYTE   VOL   42*TRSBerwickSagaFighttotheDeathGustabo_mvl/mxv
 BYTE   W03
 BYTE   VOL   41*TRSBerwickSagaFighttotheDeathGustabo_mvl/mxv
 BYTE   W15
 BYTE   VOL   40*TRSBerwickSagaFighttotheDeathGustabo_mvl/mxv
 BYTE   W03
 BYTE   VOL   39*TRSBerwickSagaFighttotheDeathGustabo_mvl/mxv
 BYTE   W09
 BYTE   VOL   38*TRSBerwickSagaFighttotheDeathGustabo_mvl/mxv
 BYTE   W03
 BYTE   VOL   37*TRSBerwickSagaFighttotheDeathGustabo_mvl/mxv
 BYTE   W06
 BYTE   VOL   36*TRSBerwickSagaFighttotheDeathGustabo_mvl/mxv
 BYTE   W09
 BYTE   VOL   35*TRSBerwickSagaFighttotheDeathGustabo_mvl/mxv
 BYTE   W03
 BYTE   VOL   34*TRSBerwickSagaFighttotheDeathGustabo_mvl/mxv
 BYTE   W06
//  #04 //012   ----------------------------------------
 BYTE   VOL   33*TRSBerwickSagaFighttotheDeathGustabo_mvl/mxv
 BYTE   W06
 BYTE   VOL   32*TRSBerwickSagaFighttotheDeathGustabo_mvl/mxv
 BYTE   W06
 BYTE   VOL   31*TRSBerwickSagaFighttotheDeathGustabo_mvl/mxv
 BYTE   W03
 BYTE   VOL   30*TRSBerwickSagaFighttotheDeathGustabo_mvl/mxv
 BYTE   W09
 BYTE   VOL   29*TRSBerwickSagaFighttotheDeathGustabo_mvl/mxv
 BYTE   W03
 BYTE   VOL   28*TRSBerwickSagaFighttotheDeathGustabo_mvl/mxv
 BYTE   W12
 BYTE   VOL   27*TRSBerwickSagaFighttotheDeathGustabo_mvl/mxv
 BYTE   W03
 BYTE   VOL   26*TRSBerwickSagaFighttotheDeathGustabo_mvl/mxv
 BYTE   W05
 BYTE   EOT
 BYTE   W01
 BYTE   VOL   48*TRSBerwickSagaFighttotheDeathGustabo_mvl/mxv
 BYTE   N36  An2
 BYTE   W36
 BYTE   N12  Cn3
 BYTE   W12
//  #04 //013   ----------------------------------------
 BYTE   N96  Gn3
 BYTE   W96
//  #04 //014   ----------------------------------------
 BYTE   PATT
  POIN2 Label_012A9FB9
//  #04 //015   ----------------------------------------
 BYTE   N96  Bn3  v118
 BYTE   W96
//  #04 //016   ----------------------------------------
 BYTE   PATT
  POIN2 Label_012A9FCC
//  #04 //017   ----------------------------------------
 BYTE   N96  Gn3  v118
 BYTE   W96
//  #04 //018   ----------------------------------------
 BYTE   N18  Fs3
 BYTE   W18
 BYTE   Dn3
 BYTE   W18
 BYTE   N12  Fs3
 BYTE   W12
 BYTE   N36  En3
 BYTE   W36
 BYTE   N12  Bn3
 BYTE   W12
//  #04 //019   ----------------------------------------
 BYTE   N36  Dn4
 BYTE   W36
 BYTE   N12  Cn4
 BYTE   W12
 BYTE   N92  Bn3  v118  gtp3
 BYTE   W48
//  #04 //020   ----------------------------------------
 BYTE   W96
//  #04 //021   ----------------------------------------
 BYTE   W48
Label_012AA052:
 BYTE   W48
//  #04 //022   ----------------------------------------
 BYTE   W96
//  #04 //023   ----------------------------------------
 BYTE   W96
//  #04 //024   ----------------------------------------
Label_012AA055:
 BYTE   W48
 BYTE   N36  Cn3  v118
 BYTE   W36
 BYTE   N12  Ds3
 BYTE   W12
 BYTE   PEND 
//  #04 //025   ----------------------------------------
 BYTE   N96  As3
 BYTE   W96
//  #04 //026   ----------------------------------------
Label_012AA061:
 BYTE   N18  An3  v118
 BYTE   W18
 BYTE   Fn3
 BYTE   W18
 BYTE   N12  Cn3
 BYTE   W12
 BYTE   N36  Ds3
 BYTE   W36
 BYTE   N12  Gn3
 BYTE   W12
 BYTE   PEND 
//  #04 //027   ----------------------------------------
 BYTE   N96  Dn4
 BYTE   W96
//  #04 //028   ----------------------------------------
Label_012AA074:
 BYTE   N18  As3  v118
 BYTE   W18
 BYTE   Gn3
 BYTE   W18
 BYTE   N12  Dn3
 BYTE   W12
 BYTE   N36  Cn3
 BYTE   W36
 BYTE   N12  Ds3
 BYTE   W12
 BYTE   PEND 
//  #04 //029   ----------------------------------------
 BYTE   N96  As3
 BYTE   W96
//  #04 //030   ----------------------------------------
 BYTE   N18  An3
 BYTE   W18
 BYTE   Fn3
 BYTE   W18
 BYTE   N12  An3
 BYTE   W12
 BYTE   N84  Gn3
 BYTE   W48
//  #04 //031   ----------------------------------------
 BYTE   W36
 BYTE   N06  Fn3
 BYTE   W06
 BYTE   Ds3
 BYTE   W06
 BYTE   N92  Dn3  v118  gtp3
 BYTE   W48
//  #04 //032   ----------------------------------------
 BYTE   PATT
  POIN2 Label_012AA055
//  #04 //033   ----------------------------------------
 BYTE   N96  As3  v118
 BYTE   W96
//  #04 //034   ----------------------------------------
 BYTE   PATT
  POIN2 Label_012AA061
//  #04 //035   ----------------------------------------
 BYTE   N96  Dn4  v118
 BYTE   W96
//  #04 //036   ----------------------------------------
 BYTE   PATT
  POIN2 Label_012AA074
//  #04 //037   ----------------------------------------
 BYTE   N96  As3  v118
 BYTE   W96
//  #04 //038   ----------------------------------------
 BYTE   N18  An3
 BYTE   W18
 BYTE   Fn3
 BYTE   W18
 BYTE   N12  An3
 BYTE   W12
 BYTE   N36  Gn3
 BYTE   W36
 BYTE   N12  Dn4
 BYTE   W12
//  #04 //039   ----------------------------------------
 BYTE   N36  Fn4
 BYTE   W36
 BYTE   N12  Ds4
 BYTE   W12
 BYTE   N92  Dn4  v118  gtp3
 BYTE   W48
//  #04 //040   ----------------------------------------
 BYTE   W48
 BYTE   GoTo
  POIN2 Label_012AA052
 BYTE   FINE

//**************** Track 5 (Midi-Chn.4) ****************//

TRSBerwickSagaFighttotheDeathGustabo_005:
//  #05 //000   ----------------------------------------
 BYTE   KEYSH   TRSBerwickSagaFighttotheDeathGustabo_key+0
 BYTE   W01
 BYTE   VOICE   40
 BYTE   W01
 BYTE   VOL   21*TRSBerwickSagaFighttotheDeathGustabo_mvl/mxv
 BYTE   PAN   c_v-28
 BYTE   W44
 BYTE   W02
 BYTE   N06  An4  v123
 BYTE   W06
 BYTE   Bn4
 BYTE   W06
 BYTE   Cn5
 BYTE   W06
 BYTE   An4
 BYTE   W06
 BYTE   Dn5
 BYTE   W06
 BYTE   Cn5
 BYTE   W06
 BYTE   Bn4
 BYTE   W06
 BYTE   An4
 BYTE   W06
//  #05 //001   ----------------------------------------
Label_012B383E:
 BYTE   N06  An4  v123
 BYTE   W06
 BYTE   Bn4
 BYTE   W06
 BYTE   Cn5
 BYTE   W06
 BYTE   An4
 BYTE   W06
 BYTE   Bn4
 BYTE   W06
 BYTE   Cn5
 BYTE   W06
 BYTE   Dn5
 BYTE   W06
 BYTE   En5
 BYTE   W06
 BYTE   An4
 BYTE   W06
 BYTE   Bn4
 BYTE   W06
 BYTE   Cn5
 BYTE   W06
 BYTE   An4
 BYTE   W06
 BYTE   Dn5
 BYTE   W06
 BYTE   Cn5
 BYTE   W06
 BYTE   Bn4
 BYTE   W06
 BYTE   An4
 BYTE   W06
 BYTE   PEND 
//  #05 //002   ----------------------------------------
 BYTE   PATT
  POIN2 Label_012B383E
//  #05 //003   ----------------------------------------
 BYTE   PATT
  POIN2 Label_012B383E
//  #05 //004   ----------------------------------------
 BYTE   PATT
  POIN2 Label_012B383E
//  #05 //005   ----------------------------------------
 BYTE   PATT
  POIN2 Label_012B383E
//  #05 //006   ----------------------------------------
 BYTE   PATT
  POIN2 Label_012B383E
//  #05 //007   ----------------------------------------
 BYTE   PATT
  POIN2 Label_012B383E
//  #05 //008   ----------------------------------------
 BYTE   PATT
  POIN2 Label_012B383E
//  #05 //009   ----------------------------------------
 BYTE   PATT
  POIN2 Label_012B383E
//  #05 //010   ----------------------------------------
 BYTE   PATT
  POIN2 Label_012B383E
//  #05 //011   ----------------------------------------
 BYTE   PATT
  POIN2 Label_012B383E
//  #05 //012   ----------------------------------------
 BYTE   PATT
  POIN2 Label_012B383E
//  #05 //013   ----------------------------------------
 BYTE   PATT
  POIN2 Label_012B383E
//  #05 //014   ----------------------------------------
 BYTE   PATT
  POIN2 Label_012B383E
//  #05 //015   ----------------------------------------
 BYTE   PATT
  POIN2 Label_012B383E
//  #05 //016   ----------------------------------------
 BYTE   PATT
  POIN2 Label_012B383E
//  #05 //017   ----------------------------------------
 BYTE   PATT
  POIN2 Label_012B383E
//  #05 //018   ----------------------------------------
 BYTE   PATT
  POIN2 Label_012B383E
//  #05 //019   ----------------------------------------
 BYTE   N06  An4  v123
 BYTE   W06
 BYTE   Bn4
 BYTE   W06
 BYTE   Cn5
 BYTE   W06
 BYTE   An4
 BYTE   W06
 BYTE   Bn4
 BYTE   W06
 BYTE   Cn5
 BYTE   W06
 BYTE   Dn5
 BYTE   W06
 BYTE   En5
 BYTE   W06
 BYTE   An4
 BYTE   W03
 BYTE   VOL   22*TRSBerwickSagaFighttotheDeathGustabo_mvl/mxv
 BYTE   W03
 BYTE   VOL   23*TRSBerwickSagaFighttotheDeathGustabo_mvl/mxv
 BYTE   N06  Bn4
 BYTE   W06
 BYTE   VOL   24*TRSBerwickSagaFighttotheDeathGustabo_mvl/mxv
 BYTE   N06  Cn5
 BYTE   W06
 BYTE   An4
 BYTE   W03
 BYTE   VOL   25*TRSBerwickSagaFighttotheDeathGustabo_mvl/mxv
 BYTE   W03
 BYTE   VOL   26*TRSBerwickSagaFighttotheDeathGustabo_mvl/mxv
 BYTE   N06  Dn5
 BYTE   W03
 BYTE   VOL   27*TRSBerwickSagaFighttotheDeathGustabo_mvl/mxv
 BYTE   W03
 BYTE   N06  Cn5
 BYTE   W06
 BYTE   VOL   28*TRSBerwickSagaFighttotheDeathGustabo_mvl/mxv
 BYTE   N06  Bn4
 BYTE   W06
 BYTE   VOL   29*TRSBerwickSagaFighttotheDeathGustabo_mvl/mxv
 BYTE   N06  An4
 BYTE   W03
 BYTE   VOL   30*TRSBerwickSagaFighttotheDeathGustabo_mvl/mxv
 BYTE   W03
//  #05 //020   ----------------------------------------
 BYTE   N06
 BYTE   W06
 BYTE   VOL   31*TRSBerwickSagaFighttotheDeathGustabo_mvl/mxv
 BYTE   N06  Bn4
 BYTE   W06
 BYTE   VOL   32*TRSBerwickSagaFighttotheDeathGustabo_mvl/mxv
 BYTE   N06  Cn5
 BYTE   W03
 BYTE   VOL   33*TRSBerwickSagaFighttotheDeathGustabo_mvl/mxv
 BYTE   W03
 BYTE   N06  An4
 BYTE   W06
 BYTE   VOL   34*TRSBerwickSagaFighttotheDeathGustabo_mvl/mxv
 BYTE   N06  Bn4
 BYTE   W06
 BYTE   VOL   35*TRSBerwickSagaFighttotheDeathGustabo_mvl/mxv
 BYTE   N06  Cn5
 BYTE   W06
 BYTE   VOL   36*TRSBerwickSagaFighttotheDeathGustabo_mvl/mxv
 BYTE   N06  Dn5
 BYTE   W06
 BYTE   En5
 BYTE   W03
 BYTE   VOL   37*TRSBerwickSagaFighttotheDeathGustabo_mvl/mxv
 BYTE   W03
 BYTE   VOL   21*TRSBerwickSagaFighttotheDeathGustabo_mvl/mxv
 BYTE   N06  Cn5
 BYTE   W06
 BYTE   Dn5
 BYTE   W06
 BYTE   Ds5
 BYTE   W06
 BYTE   Cn5
 BYTE   W06
 BYTE   Fn5
 BYTE   W06
 BYTE   Ds5
 BYTE   W06
 BYTE   Dn5
 BYTE   W06
 BYTE   Cn5
 BYTE   W06
//  #05 //021   ----------------------------------------
 BYTE   Cn5
 BYTE   W06
 BYTE   Dn5
 BYTE   W06
 BYTE   Ds5
 BYTE   W06
 BYTE   Cn5
 BYTE   W06
 BYTE   Dn5
 BYTE   W06
 BYTE   Ds5
 BYTE   W06
 BYTE   Fn5
 BYTE   W06
 BYTE   Gn5
 BYTE   W06
Label_012B393A:
 BYTE   N06  Cn5  v123
 BYTE   W06
 BYTE   Dn5
 BYTE   W06
 BYTE   Ds5
 BYTE   W06
 BYTE   Cn5
 BYTE   W06
 BYTE   Fn5
 BYTE   W06
 BYTE   Ds5
 BYTE   W06
 BYTE   Dn5
 BYTE   W06
 BYTE   Cn5
 BYTE   W06
//  #05 //022   ----------------------------------------
Label_012B394C:
 BYTE   N06  Cn5  v123
 BYTE   W06
 BYTE   Dn5
 BYTE   W06
 BYTE   Ds5
 BYTE   W06
 BYTE   Cn5
 BYTE   W06
 BYTE   Dn5
 BYTE   W06
 BYTE   Ds5
 BYTE   W06
 BYTE   Fn5
 BYTE   W06
 BYTE   Gn5
 BYTE   W06
 BYTE   Cn5
 BYTE   W06
 BYTE   Dn5
 BYTE   W06
 BYTE   Ds5
 BYTE   W06
 BYTE   Cn5
 BYTE   W06
 BYTE   Fn5
 BYTE   W06
 BYTE   Ds5
 BYTE   W06
 BYTE   Dn5
 BYTE   W06
 BYTE   Cn5
 BYTE   W06
 BYTE   PEND 
//  #05 //023   ----------------------------------------
 BYTE   PATT
  POIN2 Label_012B394C
//  #05 //024   ----------------------------------------
 BYTE   PATT
  POIN2 Label_012B394C
//  #05 //025   ----------------------------------------
 BYTE   PATT
  POIN2 Label_012B394C
//  #05 //026   ----------------------------------------
 BYTE   PATT
  POIN2 Label_012B394C
//  #05 //027   ----------------------------------------
 BYTE   PATT
  POIN2 Label_012B394C
//  #05 //028   ----------------------------------------
 BYTE   PATT
  POIN2 Label_012B394C
//  #05 //029   ----------------------------------------
 BYTE   PATT
  POIN2 Label_012B394C
//  #05 //030   ----------------------------------------
 BYTE   PATT
  POIN2 Label_012B394C
//  #05 //031   ----------------------------------------
 BYTE   PATT
  POIN2 Label_012B394C
//  #05 //032   ----------------------------------------
 BYTE   PATT
  POIN2 Label_012B394C
//  #05 //033   ----------------------------------------
 BYTE   PATT
  POIN2 Label_012B394C
//  #05 //034   ----------------------------------------
 BYTE   PATT
  POIN2 Label_012B394C
//  #05 //035   ----------------------------------------
 BYTE   PATT
  POIN2 Label_012B394C
//  #05 //036   ----------------------------------------
 BYTE   PATT
  POIN2 Label_012B394C
//  #05 //037   ----------------------------------------
 BYTE   PATT
  POIN2 Label_012B394C
//  #05 //038   ----------------------------------------
 BYTE   PATT
  POIN2 Label_012B394C
//  #05 //039   ----------------------------------------
 BYTE   N06  Cn5  v123
 BYTE   W06
 BYTE   Dn5
 BYTE   W06
 BYTE   Ds5
 BYTE   W06
 BYTE   Cn5
 BYTE   W06
 BYTE   Dn5
 BYTE   W06
 BYTE   Ds5
 BYTE   W06
 BYTE   Fn5
 BYTE   W06
 BYTE   Gn5
 BYTE   W06
 BYTE   Cn5
 BYTE   W06
 BYTE   VOL   22*TRSBerwickSagaFighttotheDeathGustabo_mvl/mxv
 BYTE   N06  Dn5
 BYTE   W03
 BYTE   VOL   23*TRSBerwickSagaFighttotheDeathGustabo_mvl/mxv
 BYTE   W03
 BYTE   N06  Ds5
 BYTE   W03
 BYTE   VOL   24*TRSBerwickSagaFighttotheDeathGustabo_mvl/mxv
 BYTE   W03
 BYTE   N06  Cn5
 BYTE   W06
 BYTE   Fn5
 BYTE   W03
 BYTE   VOL   25*TRSBerwickSagaFighttotheDeathGustabo_mvl/mxv
 BYTE   W03
 BYTE   VOL   26*TRSBerwickSagaFighttotheDeathGustabo_mvl/mxv
 BYTE   N06  Ds5
 BYTE   W06
 BYTE   VOL   27*TRSBerwickSagaFighttotheDeathGustabo_mvl/mxv
 BYTE   N06  Dn5
 BYTE   W06
 BYTE   Cn5
 BYTE   W06
//  #05 //040   ----------------------------------------
 BYTE   VOL   28*TRSBerwickSagaFighttotheDeathGustabo_mvl/mxv
 BYTE   N06
 BYTE   W06
 BYTE   Dn5
 BYTE   W03
 BYTE   VOL   29*TRSBerwickSagaFighttotheDeathGustabo_mvl/mxv
 BYTE   W03
 BYTE   VOL   30*TRSBerwickSagaFighttotheDeathGustabo_mvl/mxv
 BYTE   N06  Ds5
 BYTE   W06
 BYTE   Cn5
 BYTE   W06
 BYTE   VOL   31*TRSBerwickSagaFighttotheDeathGustabo_mvl/mxv
 BYTE   N06  Dn5
 BYTE   W06
 BYTE   VOL   32*TRSBerwickSagaFighttotheDeathGustabo_mvl/mxv
 BYTE   N06  Ds5
 BYTE   W06
 BYTE   VOL   33*TRSBerwickSagaFighttotheDeathGustabo_mvl/mxv
 BYTE   N06  Fn5
 BYTE   W06
 BYTE   Gn5
 BYTE   W06
 BYTE   VOL   21*TRSBerwickSagaFighttotheDeathGustabo_mvl/mxv
 BYTE   GoTo
  POIN2 Label_012B393A
 BYTE   FINE

//**************** Track 6 (Midi-Chn.5) ****************//

TRSBerwickSagaFighttotheDeathGustabo_006:
//  #06 //000   ----------------------------------------
 BYTE   KEYSH   TRSBerwickSagaFighttotheDeathGustabo_key+0
 BYTE   W01
 BYTE   VOICE   40
 BYTE   W01
 BYTE   VOL   27*TRSBerwickSagaFighttotheDeathGustabo_mvl/mxv
 BYTE   PAN   c_v+10
 BYTE   W44
 BYTE   W02
 BYTE   N06  An3  v123
 BYTE   W06
 BYTE   Bn3
 BYTE   W06
 BYTE   Cn4
 BYTE   W06
 BYTE   An3
 BYTE   W06
 BYTE   Dn4
 BYTE   W06
 BYTE   Cn4
 BYTE   W06
 BYTE   Bn3
 BYTE   W06
 BYTE   An3
 BYTE   W06
//  #06 //001   ----------------------------------------
Label_012B3A3A:
 BYTE   N06  An3  v123
 BYTE   W06
 BYTE   Bn3
 BYTE   W06
 BYTE   Cn4
 BYTE   W06
 BYTE   An3
 BYTE   W06
 BYTE   Bn3
 BYTE   W06
 BYTE   Cn4
 BYTE   W06
 BYTE   Dn4
 BYTE   W06
 BYTE   En4
 BYTE   W06
 BYTE   An3
 BYTE   W06
 BYTE   Bn3
 BYTE   W06
 BYTE   Cn4
 BYTE   W06
 BYTE   An3
 BYTE   W06
 BYTE   Dn4
 BYTE   W06
 BYTE   Cn4
 BYTE   W06
 BYTE   Bn3
 BYTE   W06
 BYTE   An3
 BYTE   W06
 BYTE   PEND 
//  #06 //002   ----------------------------------------
 BYTE   PATT
  POIN2 Label_012B3A3A
//  #06 //003   ----------------------------------------
 BYTE   PATT
  POIN2 Label_012B3A3A
//  #06 //004   ----------------------------------------
 BYTE   PATT
  POIN2 Label_012B3A3A
//  #06 //005   ----------------------------------------
 BYTE   PATT
  POIN2 Label_012B3A3A
//  #06 //006   ----------------------------------------
 BYTE   PATT
  POIN2 Label_012B3A3A
//  #06 //007   ----------------------------------------
 BYTE   PATT
  POIN2 Label_012B3A3A
//  #06 //008   ----------------------------------------
 BYTE   PATT
  POIN2 Label_012B3A3A
//  #06 //009   ----------------------------------------
 BYTE   PATT
  POIN2 Label_012B3A3A
//  #06 //010   ----------------------------------------
 BYTE   PATT
  POIN2 Label_012B3A3A
//  #06 //011   ----------------------------------------
 BYTE   PATT
  POIN2 Label_012B3A3A
//  #06 //012   ----------------------------------------
 BYTE   PATT
  POIN2 Label_012B3A3A
//  #06 //013   ----------------------------------------
 BYTE   PATT
  POIN2 Label_012B3A3A
//  #06 //014   ----------------------------------------
 BYTE   PATT
  POIN2 Label_012B3A3A
//  #06 //015   ----------------------------------------
 BYTE   PATT
  POIN2 Label_012B3A3A
//  #06 //016   ----------------------------------------
 BYTE   PATT
  POIN2 Label_012B3A3A
//  #06 //017   ----------------------------------------
 BYTE   PATT
  POIN2 Label_012B3A3A
//  #06 //018   ----------------------------------------
 BYTE   PATT
  POIN2 Label_012B3A3A
//  #06 //019   ----------------------------------------
Label_012B3AB2:
 BYTE   N06  An3  v123
 BYTE   W06
 BYTE   Bn3
 BYTE   W06
 BYTE   Cn4
 BYTE   W06
 BYTE   An3
 BYTE   W06
 BYTE   Bn3
 BYTE   W06
 BYTE   Cn4
 BYTE   W06
 BYTE   Dn4
 BYTE   W06
 BYTE   En4
 BYTE   W06
 BYTE   An3
 BYTE   W03
 BYTE   VOL   28*TRSBerwickSagaFighttotheDeathGustabo_mvl/mxv
 BYTE   W03
 BYTE   VOL   29*TRSBerwickSagaFighttotheDeathGustabo_mvl/mxv
 BYTE   N06  Bn3
 BYTE   W06
 BYTE   VOL   30*TRSBerwickSagaFighttotheDeathGustabo_mvl/mxv
 BYTE   N06  Cn4
 BYTE   W06
 BYTE   An3
 BYTE   W03
 BYTE   VOL   31*TRSBerwickSagaFighttotheDeathGustabo_mvl/mxv
 BYTE   W03
 BYTE   VOL   32*TRSBerwickSagaFighttotheDeathGustabo_mvl/mxv
 BYTE   N06  Dn4
 BYTE   W03
 BYTE   VOL   33*TRSBerwickSagaFighttotheDeathGustabo_mvl/mxv
 BYTE   W03
 BYTE   N06  Cn4
 BYTE   W03
 BYTE   VOL   34*TRSBerwickSagaFighttotheDeathGustabo_mvl/mxv
 BYTE   W03
 BYTE   N06  Bn3
 BYTE   W06
 BYTE   VOL   35*TRSBerwickSagaFighttotheDeathGustabo_mvl/mxv
 BYTE   N06  An3
 BYTE   W03
 BYTE   VOL   36*TRSBerwickSagaFighttotheDeathGustabo_mvl/mxv
 BYTE   W03
 BYTE   PEND 
//  #06 //020   ----------------------------------------
Label_012B3AF0:
 BYTE   VOL   37*TRSBerwickSagaFighttotheDeathGustabo_mvl/mxv
 BYTE   N06  An3  v123
 BYTE   W06
 BYTE   VOL   38*TRSBerwickSagaFighttotheDeathGustabo_mvl/mxv
 BYTE   N06  Bn3
 BYTE   W06
 BYTE   Cn4
 BYTE   W03
 BYTE   VOL   39*TRSBerwickSagaFighttotheDeathGustabo_mvl/mxv
 BYTE   W03
 BYTE   N06  An3
 BYTE   W03
 BYTE   VOL   40*TRSBerwickSagaFighttotheDeathGustabo_mvl/mxv
 BYTE   W03
 BYTE   VOL   41*TRSBerwickSagaFighttotheDeathGustabo_mvl/mxv
 BYTE   N06  Bn3
 BYTE   W06
 BYTE   VOL   42*TRSBerwickSagaFighttotheDeathGustabo_mvl/mxv
 BYTE   N06  Cn4
 BYTE   W06
 BYTE   Dn4
 BYTE   W03
 BYTE   VOL   43*TRSBerwickSagaFighttotheDeathGustabo_mvl/mxv
 BYTE   W03
 BYTE   N06  En4
 BYTE   W03
 BYTE   VOL   44*TRSBerwickSagaFighttotheDeathGustabo_mvl/mxv
 BYTE   W03
 BYTE   VOL   27*TRSBerwickSagaFighttotheDeathGustabo_mvl/mxv
 BYTE   N06  Cn4
 BYTE   W06
 BYTE   Dn4
 BYTE   W06
 BYTE   Ds4
 BYTE   W06
 BYTE   Cn4
 BYTE   W06
 BYTE   Fn4
 BYTE   W06
 BYTE   Ds4
 BYTE   W06
 BYTE   Dn4
 BYTE   W06
 BYTE   Cn4
 BYTE   W06
 BYTE   PEND 
//  #06 //021   ----------------------------------------
 BYTE   Cn4
 BYTE   W06
 BYTE   Dn4
 BYTE   W06
 BYTE   Ds4
 BYTE   W06
 BYTE   Cn4
 BYTE   W06
 BYTE   Dn4
 BYTE   W06
 BYTE   Ds4
 BYTE   W06
 BYTE   Fn4
 BYTE   W06
 BYTE   Gn4
 BYTE   W06
Label_012B3B3D:
 BYTE   N06  Cn4  v123
 BYTE   W06
 BYTE   Dn4
 BYTE   W06
 BYTE   Ds4
 BYTE   W06
 BYTE   Cn4
 BYTE   W06
 BYTE   Fn4
 BYTE   W06
 BYTE   Ds4
 BYTE   W06
 BYTE   Dn4
 BYTE   W06
 BYTE   Cn4
 BYTE   W06
//  #06 //022   ----------------------------------------
Label_012B3B4F:
 BYTE   N06  Cn4  v123
 BYTE   W06
 BYTE   Dn4
 BYTE   W06
 BYTE   Ds4
 BYTE   W06
 BYTE   Cn4
 BYTE   W06
 BYTE   Dn4
 BYTE   W06
 BYTE   Ds4
 BYTE   W06
 BYTE   Fn4
 BYTE   W06
 BYTE   Gn4
 BYTE   W06
 BYTE   Cn4
 BYTE   W06
 BYTE   Dn4
 BYTE   W06
 BYTE   Ds4
 BYTE   W06
 BYTE   Cn4
 BYTE   W06
 BYTE   Fn4
 BYTE   W06
 BYTE   Ds4
 BYTE   W06
 BYTE   Dn4
 BYTE   W06
 BYTE   Cn4
 BYTE   W06
 BYTE   PEND 
//  #06 //023   ----------------------------------------
 BYTE   PATT
  POIN2 Label_012B3B4F
//  #06 //024   ----------------------------------------
 BYTE   PATT
  POIN2 Label_012B3B4F
//  #06 //025   ----------------------------------------
 BYTE   PATT
  POIN2 Label_012B3B4F
//  #06 //026   ----------------------------------------
 BYTE   PATT
  POIN2 Label_012B3B4F
//  #06 //027   ----------------------------------------
 BYTE   PATT
  POIN2 Label_012B3B4F
//  #06 //028   ----------------------------------------
 BYTE   PATT
  POIN2 Label_012B3B4F
//  #06 //029   ----------------------------------------
 BYTE   PATT
  POIN2 Label_012B3B4F
//  #06 //030   ----------------------------------------
 BYTE   PATT
  POIN2 Label_012B3B4F
//  #06 //031   ----------------------------------------
 BYTE   PATT
  POIN2 Label_012B3B4F
//  #06 //032   ----------------------------------------
 BYTE   PATT
  POIN2 Label_012B3B4F
//  #06 //033   ----------------------------------------
 BYTE   PATT
  POIN2 Label_012B3B4F
//  #06 //034   ----------------------------------------
 BYTE   PATT
  POIN2 Label_012B3B4F
//  #06 //035   ----------------------------------------
 BYTE   PATT
  POIN2 Label_012B3B4F
//  #06 //036   ----------------------------------------
 BYTE   PATT
  POIN2 Label_012B3B4F
//  #06 //037   ----------------------------------------
 BYTE   PATT
  POIN2 Label_012B3B4F
//  #06 //038   ----------------------------------------
 BYTE   PATT
  POIN2 Label_012B3B4F
//  #06 //039   ----------------------------------------
Label_012B3BC2:
 BYTE   N06  Cn4  v123
 BYTE   W06
 BYTE   Dn4
 BYTE   W06
 BYTE   Ds4
 BYTE   W06
 BYTE   Cn4
 BYTE   W06
 BYTE   Dn4
 BYTE   W06
 BYTE   Ds4
 BYTE   W06
 BYTE   Fn4
 BYTE   W06
 BYTE   Gn4
 BYTE   W06
 BYTE   Cn4
 BYTE   W06
 BYTE   VOL   28*TRSBerwickSagaFighttotheDeathGustabo_mvl/mxv
 BYTE   N06  Dn4
 BYTE   W03
 BYTE   VOL   29*TRSBerwickSagaFighttotheDeathGustabo_mvl/mxv
 BYTE   W03
 BYTE   N06  Ds4
 BYTE   W03
 BYTE   VOL   30*TRSBerwickSagaFighttotheDeathGustabo_mvl/mxv
 BYTE   W03
 BYTE   N06  Cn4
 BYTE   W06
 BYTE   Fn4
 BYTE   W03
 BYTE   VOL   31*TRSBerwickSagaFighttotheDeathGustabo_mvl/mxv
 BYTE   W03
 BYTE   VOL   32*TRSBerwickSagaFighttotheDeathGustabo_mvl/mxv
 BYTE   N06  Ds4
 BYTE   W06
 BYTE   VOL   33*TRSBerwickSagaFighttotheDeathGustabo_mvl/mxv
 BYTE   N06  Dn4
 BYTE   W06
 BYTE   VOL   34*TRSBerwickSagaFighttotheDeathGustabo_mvl/mxv
 BYTE   N06  Cn4
 BYTE   W06
 BYTE   PEND 
//  #06 //040   ----------------------------------------
 BYTE   Cn4
 BYTE   W06
 BYTE   Dn4
 BYTE   W03
 BYTE   VOL   35*TRSBerwickSagaFighttotheDeathGustabo_mvl/mxv
 BYTE   W03
 BYTE   VOL   36*TRSBerwickSagaFighttotheDeathGustabo_mvl/mxv
 BYTE   N06  Ds4
 BYTE   W06
 BYTE   VOL   37*TRSBerwickSagaFighttotheDeathGustabo_mvl/mxv
 BYTE   N06  Cn4
 BYTE   W06
 BYTE   VOL   38*TRSBerwickSagaFighttotheDeathGustabo_mvl/mxv
 BYTE   N06  Dn4
 BYTE   W06
 BYTE   Ds4
 BYTE   W06
 BYTE   VOL   39*TRSBerwickSagaFighttotheDeathGustabo_mvl/mxv
 BYTE   N06  Fn4
 BYTE   W06
 BYTE   VOL   40*TRSBerwickSagaFighttotheDeathGustabo_mvl/mxv
 BYTE   N06  Gn4
 BYTE   W06
 BYTE   VOL   27*TRSBerwickSagaFighttotheDeathGustabo_mvl/mxv
 BYTE   GoTo
  POIN2 Label_012B3B3D
 BYTE   FINE

//**************** Track 7 (Midi-Chn.6) ****************//

TRSBerwickSagaFighttotheDeathGustabo_007:
//  #07 //000   ----------------------------------------
 BYTE   KEYSH   TRSBerwickSagaFighttotheDeathGustabo_key+0
 BYTE   W02
 BYTE   VOICE   41
 BYTE   W01
 BYTE   VOL   27*TRSBerwickSagaFighttotheDeathGustabo_mvl/mxv
 BYTE   PAN   c_v-24
 BYTE   W44
 BYTE   W01
 BYTE   N06  An3  v123
 BYTE   W06
 BYTE   Bn3
 BYTE   W06
 BYTE   Cn4
 BYTE   W06
 BYTE   An3
 BYTE   W06
 BYTE   Dn4
 BYTE   W06
 BYTE   Cn4
 BYTE   W06
 BYTE   Bn3
 BYTE   W06
 BYTE   An3
 BYTE   W06
//  #07 //001   ----------------------------------------
 BYTE   PATT
  POIN2 Label_012B3A3A
//  #07 //002   ----------------------------------------
 BYTE   PATT
  POIN2 Label_012B3A3A
//  #07 //003   ----------------------------------------
 BYTE   PATT
  POIN2 Label_012B3A3A
//  #07 //004   ----------------------------------------
 BYTE   PATT
  POIN2 Label_012B3A3A
//  #07 //005   ----------------------------------------
 BYTE   PATT
  POIN2 Label_012B3A3A
//  #07 //006   ----------------------------------------
 BYTE   PATT
  POIN2 Label_012B3A3A
//  #07 //007   ----------------------------------------
 BYTE   PATT
  POIN2 Label_012B3A3A
//  #07 //008   ----------------------------------------
 BYTE   PATT
  POIN2 Label_012B3A3A
//  #07 //009   ----------------------------------------
 BYTE   PATT
  POIN2 Label_012B3A3A
//  #07 //010   ----------------------------------------
 BYTE   PATT
  POIN2 Label_012B3A3A
//  #07 //011   ----------------------------------------
 BYTE   PATT
  POIN2 Label_012B3A3A
//  #07 //012   ----------------------------------------
 BYTE   PATT
  POIN2 Label_012B3A3A
//  #07 //013   ----------------------------------------
 BYTE   PATT
  POIN2 Label_012B3A3A
//  #07 //014   ----------------------------------------
 BYTE   PATT
  POIN2 Label_012B3A3A
//  #07 //015   ----------------------------------------
 BYTE   PATT
  POIN2 Label_012B3A3A
//  #07 //016   ----------------------------------------
 BYTE   PATT
  POIN2 Label_012B3A3A
//  #07 //017   ----------------------------------------
 BYTE   PATT
  POIN2 Label_012B3A3A
//  #07 //018   ----------------------------------------
 BYTE   PATT
  POIN2 Label_012B3A3A
//  #07 //019   ----------------------------------------
 BYTE   PATT
  POIN2 Label_012B3AB2
//  #07 //020   ----------------------------------------
 BYTE   PATT
  POIN2 Label_012B3AF0
//  #07 //021   ----------------------------------------
 BYTE   N06  Cn4  v123
 BYTE   W06
 BYTE   Dn4
 BYTE   W06
 BYTE   Ds4
 BYTE   W06
 BYTE   Cn4
 BYTE   W06
 BYTE   Dn4
 BYTE   W06
 BYTE   Ds4
 BYTE   W06
 BYTE   Fn4
 BYTE   W06
 BYTE   Gn4
 BYTE   W06
Label_012A9504:
 BYTE   N06  Cn4  v123
 BYTE   W06
 BYTE   Dn4
 BYTE   W06
 BYTE   Ds4
 BYTE   W06
 BYTE   Cn4
 BYTE   W06
 BYTE   Fn4
 BYTE   W06
 BYTE   Ds4
 BYTE   W06
 BYTE   Dn4
 BYTE   W06
 BYTE   Cn4
 BYTE   W06
//  #07 //022   ----------------------------------------
 BYTE   PATT
  POIN2 Label_012B3B4F
//  #07 //023   ----------------------------------------
 BYTE   PATT
  POIN2 Label_012B3B4F
//  #07 //024   ----------------------------------------
 BYTE   PATT
  POIN2 Label_012B3B4F
//  #07 //025   ----------------------------------------
 BYTE   PATT
  POIN2 Label_012B3B4F
//  #07 //026   ----------------------------------------
 BYTE   PATT
  POIN2 Label_012B3B4F
//  #07 //027   ----------------------------------------
 BYTE   PATT
  POIN2 Label_012B3B4F
//  #07 //028   ----------------------------------------
 BYTE   PATT
  POIN2 Label_012B3B4F
//  #07 //029   ----------------------------------------
 BYTE   PATT
  POIN2 Label_012B3B4F
//  #07 //030   ----------------------------------------
 BYTE   PATT
  POIN2 Label_012B3B4F
//  #07 //031   ----------------------------------------
 BYTE   PATT
  POIN2 Label_012B3B4F
//  #07 //032   ----------------------------------------
 BYTE   PATT
  POIN2 Label_012B3B4F
//  #07 //033   ----------------------------------------
 BYTE   PATT
  POIN2 Label_012B3B4F
//  #07 //034   ----------------------------------------
 BYTE   PATT
  POIN2 Label_012B3B4F
//  #07 //035   ----------------------------------------
 BYTE   PATT
  POIN2 Label_012B3B4F
//  #07 //036   ----------------------------------------
 BYTE   PATT
  POIN2 Label_012B3B4F
//  #07 //037   ----------------------------------------
 BYTE   PATT
  POIN2 Label_012B3B4F
//  #07 //038   ----------------------------------------
 BYTE   PATT
  POIN2 Label_012B3B4F
//  #07 //039   ----------------------------------------
 BYTE   PATT
  POIN2 Label_012B3BC2
//  #07 //040   ----------------------------------------
 BYTE   N06  Cn4  v123
 BYTE   W06
 BYTE   Dn4
 BYTE   W03
 BYTE   VOL   35*TRSBerwickSagaFighttotheDeathGustabo_mvl/mxv
 BYTE   W03
 BYTE   VOL   36*TRSBerwickSagaFighttotheDeathGustabo_mvl/mxv
 BYTE   N06  Ds4
 BYTE   W06
 BYTE   VOL   37*TRSBerwickSagaFighttotheDeathGustabo_mvl/mxv
 BYTE   N06  Cn4
 BYTE   W06
 BYTE   VOL   38*TRSBerwickSagaFighttotheDeathGustabo_mvl/mxv
 BYTE   N06  Dn4
 BYTE   W06
 BYTE   Ds4
 BYTE   W06
 BYTE   VOL   39*TRSBerwickSagaFighttotheDeathGustabo_mvl/mxv
 BYTE   N06  Fn4
 BYTE   W06
 BYTE   VOL   40*TRSBerwickSagaFighttotheDeathGustabo_mvl/mxv
 BYTE   N06  Gn4
 BYTE   W06
 BYTE   VOL   27*TRSBerwickSagaFighttotheDeathGustabo_mvl/mxv
 BYTE   GoTo
  POIN2 Label_012A9504
 BYTE   FINE

//**************** Track 8 (Midi-Chn.7) ****************//

TRSBerwickSagaFighttotheDeathGustabo_008:
//  #08 //000   ----------------------------------------
 BYTE   KEYSH   TRSBerwickSagaFighttotheDeathGustabo_key+0
 BYTE   W02
 BYTE   VOICE   41
 BYTE   W01
 BYTE   VOL   21*TRSBerwickSagaFighttotheDeathGustabo_mvl/mxv
 BYTE   PAN   c_v+22
 BYTE   W44
 BYTE   W01
 BYTE   N06  An2  v123
 BYTE   W06
 BYTE   Bn2
 BYTE   W06
 BYTE   Cn3
 BYTE   W06
 BYTE   An2
 BYTE   W06
 BYTE   Dn3
 BYTE   W06
 BYTE   Cn3
 BYTE   W06
 BYTE   Bn2
 BYTE   W06
 BYTE   An2
 BYTE   W06
//  #08 //001   ----------------------------------------
Label_012B3C42:
 BYTE   N06  An2  v123
 BYTE   W06
 BYTE   Bn2
 BYTE   W06
 BYTE   Cn3
 BYTE   W06
 BYTE   An2
 BYTE   W06
 BYTE   Bn2
 BYTE   W06
 BYTE   Cn3
 BYTE   W06
 BYTE   Dn3
 BYTE   W06
 BYTE   En3
 BYTE   W06
 BYTE   An2
 BYTE   W06
 BYTE   Bn2
 BYTE   W06
 BYTE   Cn3
 BYTE   W06
 BYTE   An2
 BYTE   W06
 BYTE   Dn3
 BYTE   W06
 BYTE   Cn3
 BYTE   W06
 BYTE   Bn2
 BYTE   W06
 BYTE   An2
 BYTE   W06
 BYTE   PEND 
//  #08 //002   ----------------------------------------
 BYTE   PATT
  POIN2 Label_012B3C42
//  #08 //003   ----------------------------------------
 BYTE   PATT
  POIN2 Label_012B3C42
//  #08 //004   ----------------------------------------
 BYTE   PATT
  POIN2 Label_012B3C42
//  #08 //005   ----------------------------------------
 BYTE   PATT
  POIN2 Label_012B3C42
//  #08 //006   ----------------------------------------
 BYTE   PATT
  POIN2 Label_012B3C42
//  #08 //007   ----------------------------------------
 BYTE   PATT
  POIN2 Label_012B3C42
//  #08 //008   ----------------------------------------
 BYTE   PATT
  POIN2 Label_012B3C42
//  #08 //009   ----------------------------------------
 BYTE   PATT
  POIN2 Label_012B3C42
//  #08 //010   ----------------------------------------
 BYTE   PATT
  POIN2 Label_012B3C42
//  #08 //011   ----------------------------------------
 BYTE   PATT
  POIN2 Label_012B3C42
//  #08 //012   ----------------------------------------
 BYTE   PATT
  POIN2 Label_012B3C42
//  #08 //013   ----------------------------------------
 BYTE   PATT
  POIN2 Label_012B3C42
//  #08 //014   ----------------------------------------
 BYTE   PATT
  POIN2 Label_012B3C42
//  #08 //015   ----------------------------------------
 BYTE   PATT
  POIN2 Label_012B3C42
//  #08 //016   ----------------------------------------
 BYTE   PATT
  POIN2 Label_012B3C42
//  #08 //017   ----------------------------------------
 BYTE   PATT
  POIN2 Label_012B3C42
//  #08 //018   ----------------------------------------
 BYTE   PATT
  POIN2 Label_012B3C42
//  #08 //019   ----------------------------------------
 BYTE   N06  An2  v123
 BYTE   W06
 BYTE   Bn2
 BYTE   W06
 BYTE   Cn3
 BYTE   W06
 BYTE   An2
 BYTE   W06
 BYTE   Bn2
 BYTE   W06
 BYTE   Cn3
 BYTE   W06
 BYTE   Dn3
 BYTE   W06
 BYTE   En3
 BYTE   W06
 BYTE   An2
 BYTE   W03
 BYTE   VOL   22*TRSBerwickSagaFighttotheDeathGustabo_mvl/mxv
 BYTE   W03
 BYTE   VOL   23*TRSBerwickSagaFighttotheDeathGustabo_mvl/mxv
 BYTE   N06  Bn2
 BYTE   W06
 BYTE   VOL   24*TRSBerwickSagaFighttotheDeathGustabo_mvl/mxv
 BYTE   N06  Cn3
 BYTE   W06
 BYTE   An2
 BYTE   W03
 BYTE   VOL   25*TRSBerwickSagaFighttotheDeathGustabo_mvl/mxv
 BYTE   W03
 BYTE   VOL   26*TRSBerwickSagaFighttotheDeathGustabo_mvl/mxv
 BYTE   N06  Dn3
 BYTE   W03
 BYTE   VOL   27*TRSBerwickSagaFighttotheDeathGustabo_mvl/mxv
 BYTE   W03
 BYTE   N06  Cn3
 BYTE   W06
 BYTE   VOL   28*TRSBerwickSagaFighttotheDeathGustabo_mvl/mxv
 BYTE   N06  Bn2
 BYTE   W06
 BYTE   VOL   29*TRSBerwickSagaFighttotheDeathGustabo_mvl/mxv
 BYTE   N06  An2
 BYTE   W03
 BYTE   VOL   30*TRSBerwickSagaFighttotheDeathGustabo_mvl/mxv
 BYTE   W03
//  #08 //020   ----------------------------------------
 BYTE   N06
 BYTE   W06
 BYTE   VOL   31*TRSBerwickSagaFighttotheDeathGustabo_mvl/mxv
 BYTE   N06  Bn2
 BYTE   W06
 BYTE   VOL   32*TRSBerwickSagaFighttotheDeathGustabo_mvl/mxv
 BYTE   N06  Cn3
 BYTE   W03
 BYTE   VOL   33*TRSBerwickSagaFighttotheDeathGustabo_mvl/mxv
 BYTE   W03
 BYTE   N06  An2
 BYTE   W06
 BYTE   VOL   34*TRSBerwickSagaFighttotheDeathGustabo_mvl/mxv
 BYTE   N06  Bn2
 BYTE   W06
 BYTE   VOL   35*TRSBerwickSagaFighttotheDeathGustabo_mvl/mxv
 BYTE   N06  Cn3
 BYTE   W06
 BYTE   VOL   36*TRSBerwickSagaFighttotheDeathGustabo_mvl/mxv
 BYTE   N06  Dn3
 BYTE   W06
 BYTE   En3
 BYTE   W03
 BYTE   VOL   37*TRSBerwickSagaFighttotheDeathGustabo_mvl/mxv
 BYTE   W03
 BYTE   VOL   21*TRSBerwickSagaFighttotheDeathGustabo_mvl/mxv
 BYTE   N06  Cn3
 BYTE   W06
 BYTE   Dn3
 BYTE   W06
 BYTE   Ds3
 BYTE   W06
 BYTE   Cn3
 BYTE   W06
 BYTE   Fn3
 BYTE   W06
 BYTE   Ds3
 BYTE   W06
 BYTE   Dn3
 BYTE   W06
 BYTE   Cn3
 BYTE   W06
//  #08 //021   ----------------------------------------
 BYTE   Cn3
 BYTE   W06
 BYTE   Dn3
 BYTE   W06
 BYTE   Ds3
 BYTE   W06
 BYTE   Cn3
 BYTE   W06
 BYTE   Dn3
 BYTE   W06
 BYTE   Ds3
 BYTE   W06
 BYTE   Fn3
 BYTE   W06
 BYTE   Gn3
 BYTE   W06
Label_012B3D3E:
 BYTE   N06  Cn3  v123
 BYTE   W06
 BYTE   Dn3
 BYTE   W06
 BYTE   Ds3
 BYTE   W06
 BYTE   Cn3
 BYTE   W06
 BYTE   Fn3
 BYTE   W06
 BYTE   Ds3
 BYTE   W06
 BYTE   Dn3
 BYTE   W06
 BYTE   Cn3
 BYTE   W06
//  #08 //022   ----------------------------------------
Label_012B3D50:
 BYTE   N06  Cn3  v123
 BYTE   W06
 BYTE   Dn3
 BYTE   W06
 BYTE   Ds3
 BYTE   W06
 BYTE   Cn3
 BYTE   W06
 BYTE   Dn3
 BYTE   W06
 BYTE   Ds3
 BYTE   W06
 BYTE   Fn3
 BYTE   W06
 BYTE   Gn3
 BYTE   W06
 BYTE   Cn3
 BYTE   W06
 BYTE   Dn3
 BYTE   W06
 BYTE   Ds3
 BYTE   W06
 BYTE   Cn3
 BYTE   W06
 BYTE   Fn3
 BYTE   W06
 BYTE   Ds3
 BYTE   W06
 BYTE   Dn3
 BYTE   W06
 BYTE   Cn3
 BYTE   W06
 BYTE   PEND 
//  #08 //023   ----------------------------------------
 BYTE   PATT
  POIN2 Label_012B3D50
//  #08 //024   ----------------------------------------
 BYTE   PATT
  POIN2 Label_012B3D50
//  #08 //025   ----------------------------------------
 BYTE   PATT
  POIN2 Label_012B3D50
//  #08 //026   ----------------------------------------
 BYTE   PATT
  POIN2 Label_012B3D50
//  #08 //027   ----------------------------------------
 BYTE   PATT
  POIN2 Label_012B3D50
//  #08 //028   ----------------------------------------
 BYTE   PATT
  POIN2 Label_012B3D50
//  #08 //029   ----------------------------------------
 BYTE   PATT
  POIN2 Label_012B3D50
//  #08 //030   ----------------------------------------
 BYTE   PATT
  POIN2 Label_012B3D50
//  #08 //031   ----------------------------------------
 BYTE   PATT
  POIN2 Label_012B3D50
//  #08 //032   ----------------------------------------
 BYTE   PATT
  POIN2 Label_012B3D50
//  #08 //033   ----------------------------------------
 BYTE   PATT
  POIN2 Label_012B3D50
//  #08 //034   ----------------------------------------
 BYTE   PATT
  POIN2 Label_012B3D50
//  #08 //035   ----------------------------------------
 BYTE   PATT
  POIN2 Label_012B3D50
//  #08 //036   ----------------------------------------
 BYTE   PATT
  POIN2 Label_012B3D50
//  #08 //037   ----------------------------------------
 BYTE   PATT
  POIN2 Label_012B3D50
//  #08 //038   ----------------------------------------
 BYTE   PATT
  POIN2 Label_012B3D50
//  #08 //039   ----------------------------------------
 BYTE   N06  Cn3  v123
 BYTE   W06
 BYTE   Dn3
 BYTE   W06
 BYTE   Ds3
 BYTE   W06
 BYTE   Cn3
 BYTE   W06
 BYTE   Dn3
 BYTE   W06
 BYTE   Ds3
 BYTE   W06
 BYTE   Fn3
 BYTE   W06
 BYTE   Gn3
 BYTE   W06
 BYTE   Cn3
 BYTE   W06
 BYTE   VOL   22*TRSBerwickSagaFighttotheDeathGustabo_mvl/mxv
 BYTE   N06  Dn3
 BYTE   W03
 BYTE   VOL   23*TRSBerwickSagaFighttotheDeathGustabo_mvl/mxv
 BYTE   W03
 BYTE   N06  Ds3
 BYTE   W03
 BYTE   VOL   24*TRSBerwickSagaFighttotheDeathGustabo_mvl/mxv
 BYTE   W03
 BYTE   N06  Cn3
 BYTE   W06
 BYTE   Fn3
 BYTE   W03
 BYTE   VOL   25*TRSBerwickSagaFighttotheDeathGustabo_mvl/mxv
 BYTE   W03
 BYTE   VOL   26*TRSBerwickSagaFighttotheDeathGustabo_mvl/mxv
 BYTE   N06  Ds3
 BYTE   W06
 BYTE   VOL   27*TRSBerwickSagaFighttotheDeathGustabo_mvl/mxv
 BYTE   N06  Dn3
 BYTE   W06
 BYTE   Cn3
 BYTE   W06
//  #08 //040   ----------------------------------------
 BYTE   VOL   28*TRSBerwickSagaFighttotheDeathGustabo_mvl/mxv
 BYTE   N06
 BYTE   W06
 BYTE   Dn3
 BYTE   W03
 BYTE   VOL   29*TRSBerwickSagaFighttotheDeathGustabo_mvl/mxv
 BYTE   W03
 BYTE   VOL   30*TRSBerwickSagaFighttotheDeathGustabo_mvl/mxv
 BYTE   N06  Ds3
 BYTE   W06
 BYTE   Cn3
 BYTE   W06
 BYTE   VOL   31*TRSBerwickSagaFighttotheDeathGustabo_mvl/mxv
 BYTE   N06  Dn3
 BYTE   W06
 BYTE   VOL   32*TRSBerwickSagaFighttotheDeathGustabo_mvl/mxv
 BYTE   N06  Ds3
 BYTE   W06
 BYTE   VOL   33*TRSBerwickSagaFighttotheDeathGustabo_mvl/mxv
 BYTE   N06  Fn3
 BYTE   W06
 BYTE   Gn3
 BYTE   W06
 BYTE   VOL   21*TRSBerwickSagaFighttotheDeathGustabo_mvl/mxv
 BYTE   GoTo
  POIN2 Label_012B3D3E
 BYTE   FINE

//**************** Track 9 (Midi-Chn.8) ****************//

TRSBerwickSagaFighttotheDeathGustabo_009:
//  #09 //000   ----------------------------------------
 BYTE   KEYSH   TRSBerwickSagaFighttotheDeathGustabo_key+0
 BYTE   W03
 BYTE   VOICE   42
 BYTE   W01
 BYTE   VOL   66*TRSBerwickSagaFighttotheDeathGustabo_mvl/mxv
 BYTE   PAN   c_v+21
 BYTE   W44
 BYTE   N06  AnM1  v123
 BYTE   W24
 BYTE   AnM1
 BYTE   W12
 BYTE   AnM1
 BYTE   W12
//  #09 //001   ----------------------------------------
Label_012A934B:
 BYTE   W12
 BYTE   N06  AnM1  v123
 BYTE   W12
 BYTE   AnM1
 BYTE   W12
 BYTE   AnM1
 BYTE   W12
 BYTE   AnM1
 BYTE   W24
 BYTE   AnM1
 BYTE   W12
 BYTE   AnM1
 BYTE   W12
 BYTE   PEND 
//  #09 //002   ----------------------------------------
 BYTE   PATT
  POIN2 Label_012A934B
//  #09 //003   ----------------------------------------
 BYTE   PATT
  POIN2 Label_012A934B
//  #09 //004   ----------------------------------------
 BYTE   PATT
  POIN2 Label_012A934B
//  #09 //005   ----------------------------------------
 BYTE   PATT
  POIN2 Label_012A934B
//  #09 //006   ----------------------------------------
 BYTE   PATT
  POIN2 Label_012A934B
//  #09 //007   ----------------------------------------
 BYTE   PATT
  POIN2 Label_012A934B
//  #09 //008   ----------------------------------------
 BYTE   PATT
  POIN2 Label_012A934B
//  #09 //009   ----------------------------------------
 BYTE   PATT
  POIN2 Label_012A934B
//  #09 //010   ----------------------------------------
 BYTE   PATT
  POIN2 Label_012A934B
//  #09 //011   ----------------------------------------
 BYTE   PATT
  POIN2 Label_012A934B
//  #09 //012   ----------------------------------------
 BYTE   PATT
  POIN2 Label_012A934B
//  #09 //013   ----------------------------------------
 BYTE   PATT
  POIN2 Label_012A934B
//  #09 //014   ----------------------------------------
 BYTE   PATT
  POIN2 Label_012A934B
//  #09 //015   ----------------------------------------
 BYTE   PATT
  POIN2 Label_012A934B
//  #09 //016   ----------------------------------------
 BYTE   PATT
  POIN2 Label_012A934B
//  #09 //017   ----------------------------------------
 BYTE   PATT
  POIN2 Label_012A934B
//  #09 //018   ----------------------------------------
 BYTE   PATT
  POIN2 Label_012A934B
//  #09 //019   ----------------------------------------
 BYTE   PATT
  POIN2 Label_012A934B
//  #09 //020   ----------------------------------------
 BYTE   W12
 BYTE   N06  AnM1  v123
 BYTE   W12
 BYTE   AnM1
 BYTE   W12
 BYTE   AnM1
 BYTE   W12
 BYTE   Cn0
 BYTE   W24
 BYTE   Cn0
 BYTE   W12
 BYTE   Cn0
 BYTE   W12
//  #09 //021   ----------------------------------------
 BYTE   W12
 BYTE   Cn0
 BYTE   W12
 BYTE   Cn0
 BYTE   W12
 BYTE   Cn0
 BYTE   W12
Label_012A93CB:
 BYTE   N06  Cn0  v123
 BYTE   W24
 BYTE   Cn0
 BYTE   W12
 BYTE   Cn0
 BYTE   W12
//  #09 //022   ----------------------------------------
Label_012A93D3:
 BYTE   W12
 BYTE   N06  Cn0  v123
 BYTE   W12
 BYTE   Cn0
 BYTE   W12
 BYTE   Cn0
 BYTE   W12
 BYTE   Cn0
 BYTE   W24
 BYTE   Cn0
 BYTE   W12
 BYTE   Cn0
 BYTE   W12
 BYTE   PEND 
//  #09 //023   ----------------------------------------
 BYTE   PATT
  POIN2 Label_012A93D3
//  #09 //024   ----------------------------------------
 BYTE   PATT
  POIN2 Label_012A93D3
//  #09 //025   ----------------------------------------
 BYTE   PATT
  POIN2 Label_012A93D3
//  #09 //026   ----------------------------------------
 BYTE   PATT
  POIN2 Label_012A93D3
//  #09 //027   ----------------------------------------
 BYTE   PATT
  POIN2 Label_012A93D3
//  #09 //028   ----------------------------------------
 BYTE   PATT
  POIN2 Label_012A93D3
//  #09 //029   ----------------------------------------
 BYTE   PATT
  POIN2 Label_012A93D3
//  #09 //030   ----------------------------------------
 BYTE   PATT
  POIN2 Label_012A93D3
//  #09 //031   ----------------------------------------
 BYTE   PATT
  POIN2 Label_012A93D3
//  #09 //032   ----------------------------------------
 BYTE   PATT
  POIN2 Label_012A93D3
//  #09 //033   ----------------------------------------
 BYTE   PATT
  POIN2 Label_012A93D3
//  #09 //034   ----------------------------------------
 BYTE   PATT
  POIN2 Label_012A93D3
//  #09 //035   ----------------------------------------
 BYTE   PATT
  POIN2 Label_012A93D3
//  #09 //036   ----------------------------------------
 BYTE   PATT
  POIN2 Label_012A93D3
//  #09 //037   ----------------------------------------
 BYTE   PATT
  POIN2 Label_012A93D3
//  #09 //038   ----------------------------------------
 BYTE   PATT
  POIN2 Label_012A93D3
//  #09 //039   ----------------------------------------
 BYTE   PATT
  POIN2 Label_012A93D3
//  #09 //040   ----------------------------------------
 BYTE   W12
 BYTE   N06  Cn0  v123
 BYTE   W12
 BYTE   Cn0
 BYTE   W12
 BYTE   Cn0
 BYTE   W12
 BYTE   GoTo
  POIN2 Label_012A93CB
 BYTE   FINE

//**************** Track 10 (Midi-Chn.9) ****************//

TRSBerwickSagaFighttotheDeathGustabo_010:
//  #10 //000   ----------------------------------------
 BYTE   KEYSH   TRSBerwickSagaFighttotheDeathGustabo_key+0
 BYTE   W04
 BYTE   VOICE   55
 BYTE   W01
 BYTE   VOL   37*TRSBerwickSagaFighttotheDeathGustabo_mvl/mxv
 BYTE   W42
 BYTE   W01
 BYTE   N96  An2  v107
 BYTE   W48
//  #10 //001   ----------------------------------------
 BYTE   W96
//  #10 //002   ----------------------------------------
Label_012AA293:
 BYTE   W48
 BYTE   N96  An2  v107
 BYTE   W48
 BYTE   PEND 
//  #10 //003   ----------------------------------------
 BYTE   W96
//  #10 //004   ----------------------------------------
 BYTE   PATT
  POIN2 Label_012AA293
//  #10 //005   ----------------------------------------
 BYTE   W96
//  #10 //006   ----------------------------------------
 BYTE   PATT
  POIN2 Label_012AA293
//  #10 //007   ----------------------------------------
 BYTE   W96
//  #10 //008   ----------------------------------------
 BYTE   PATT
  POIN2 Label_012AA293
//  #10 //009   ----------------------------------------
 BYTE   W96
//  #10 //010   ----------------------------------------
 BYTE   PATT
  POIN2 Label_012AA293
//  #10 //011   ----------------------------------------
 BYTE   W96
//  #10 //012   ----------------------------------------
 BYTE   PATT
  POIN2 Label_012AA293
//  #10 //013   ----------------------------------------
 BYTE   W96
//  #10 //014   ----------------------------------------
 BYTE   PATT
  POIN2 Label_012AA293
//  #10 //015   ----------------------------------------
 BYTE   W96
//  #10 //016   ----------------------------------------
 BYTE   PATT
  POIN2 Label_012AA293
//  #10 //017   ----------------------------------------
 BYTE   W96
//  #10 //018   ----------------------------------------
 BYTE   PATT
  POIN2 Label_012AA293
//  #10 //019   ----------------------------------------
 BYTE   W96
//  #10 //020   ----------------------------------------
Label_012AA2CA:
 BYTE   W48
 BYTE   N96  Cn3  v107
 BYTE   W48
 BYTE   PEND 
//  #10 //021   ----------------------------------------
 BYTE   W48
Label_012AA2D1:
 BYTE   W48
//  #10 //022   ----------------------------------------
 BYTE   PATT
  POIN2 Label_012AA2CA
//  #10 //023   ----------------------------------------
 BYTE   W96
//  #10 //024   ----------------------------------------
 BYTE   PATT
  POIN2 Label_012AA2CA
//  #10 //025   ----------------------------------------
 BYTE   W96
//  #10 //026   ----------------------------------------
 BYTE   PATT
  POIN2 Label_012AA2CA
//  #10 //027   ----------------------------------------
 BYTE   W96
//  #10 //028   ----------------------------------------
 BYTE   PATT
  POIN2 Label_012AA2CA
//  #10 //029   ----------------------------------------
 BYTE   W96
//  #10 //030   ----------------------------------------
 BYTE   PATT
  POIN2 Label_012AA2CA
//  #10 //031   ----------------------------------------
 BYTE   W96
//  #10 //032   ----------------------------------------
 BYTE   PATT
  POIN2 Label_012AA2CA
//  #10 //033   ----------------------------------------
 BYTE   W96
//  #10 //034   ----------------------------------------
 BYTE   PATT
  POIN2 Label_012AA2CA
//  #10 //035   ----------------------------------------
 BYTE   W96
//  #10 //036   ----------------------------------------
 BYTE   PATT
  POIN2 Label_012AA2CA
//  #10 //037   ----------------------------------------
 BYTE   W96
//  #10 //038   ----------------------------------------
 BYTE   PATT
  POIN2 Label_012AA2CA
//  #10 //039   ----------------------------------------
 BYTE   W96
//  #10 //040   ----------------------------------------
 BYTE   W48
 BYTE   GoTo
  POIN2 Label_012AA2D1
 BYTE   FINE

//**************** Track 11 (Midi-Chn.10) ****************//

TRSBerwickSagaFighttotheDeathGustabo_011:
//  #11 //000   ----------------------------------------
 BYTE   KEYSH   TRSBerwickSagaFighttotheDeathGustabo_key+0
 BYTE   W04
 BYTE   VOICE   126
 BYTE   W01
 BYTE   VOL   70*TRSBerwickSagaFighttotheDeathGustabo_mvl/mxv
 BYTE   W42
 BYTE   W01
 BYTE   N22  Cn1  v094
 BYTE   N96  Fn2  v113
 BYTE   W24
 BYTE   N22  Cn1  v094
 BYTE   W24
//  #11 //001   ----------------------------------------
Label_012A9EAD:
 BYTE   N22  Cn1  v094
 BYTE   W24
 BYTE   Cn1
 BYTE   W24
 BYTE   Cn1
 BYTE   W24
 BYTE   Cn1
 BYTE   W24
 BYTE   PEND 
//  #11 //002   ----------------------------------------
 BYTE   PATT
  POIN2 Label_012A9EAD
//  #11 //003   ----------------------------------------
 BYTE   PATT
  POIN2 Label_012A9EAD
//  #11 //004   ----------------------------------------
Label_012A9EC2:
 BYTE   N22  Cn1  v094
 BYTE   W24
 BYTE   Cn1
 BYTE   W24
 BYTE   Cn1
 BYTE   N96  Fn2  v113
 BYTE   W24
 BYTE   N22  Cn1  v094
 BYTE   W24
 BYTE   PEND 
//  #11 //005   ----------------------------------------
 BYTE   PATT
  POIN2 Label_012A9EAD
//  #11 //006   ----------------------------------------
 BYTE   PATT
  POIN2 Label_012A9EAD
//  #11 //007   ----------------------------------------
 BYTE   PATT
  POIN2 Label_012A9EAD
//  #11 //008   ----------------------------------------
 BYTE   PATT
  POIN2 Label_012A9EC2
//  #11 //009   ----------------------------------------
 BYTE   PATT
  POIN2 Label_012A9EAD
//  #11 //010   ----------------------------------------
 BYTE   PATT
  POIN2 Label_012A9EAD
//  #11 //011   ----------------------------------------
 BYTE   PATT
  POIN2 Label_012A9EAD
//  #11 //012   ----------------------------------------
 BYTE   PATT
  POIN2 Label_012A9EC2
//  #11 //013   ----------------------------------------
 BYTE   PATT
  POIN2 Label_012A9EAD
//  #11 //014   ----------------------------------------
 BYTE   PATT
  POIN2 Label_012A9EAD
//  #11 //015   ----------------------------------------
 BYTE   PATT
  POIN2 Label_012A9EAD
//  #11 //016   ----------------------------------------
 BYTE   PATT
  POIN2 Label_012A9EC2
//  #11 //017   ----------------------------------------
 BYTE   PATT
  POIN2 Label_012A9EAD
//  #11 //018   ----------------------------------------
 BYTE   PATT
  POIN2 Label_012A9EAD
//  #11 //019   ----------------------------------------
 BYTE   PATT
  POIN2 Label_012A9EAD
//  #11 //020   ----------------------------------------
 BYTE   PATT
  POIN2 Label_012A9EC2
//  #11 //021   ----------------------------------------
 BYTE   N22  Cn1  v094
 BYTE   W24
 BYTE   Cn1
 BYTE   W24
Label_012A9F28:
 BYTE   N22  Cn1  v094
 BYTE   W24
 BYTE   Cn1
 BYTE   W24
//  #11 //022   ----------------------------------------
 BYTE   PATT
  POIN2 Label_012A9EAD
//  #11 //023   ----------------------------------------
 BYTE   PATT
  POIN2 Label_012A9EAD
//  #11 //024   ----------------------------------------
 BYTE   PATT
  POIN2 Label_012A9EC2
//  #11 //025   ----------------------------------------
 BYTE   PATT
  POIN2 Label_012A9EAD
//  #11 //026   ----------------------------------------
 BYTE   PATT
  POIN2 Label_012A9EAD
//  #11 //027   ----------------------------------------
 BYTE   PATT
  POIN2 Label_012A9EAD
//  #11 //028   ----------------------------------------
 BYTE   PATT
  POIN2 Label_012A9EC2
//  #11 //029   ----------------------------------------
 BYTE   PATT
  POIN2 Label_012A9EAD
//  #11 //030   ----------------------------------------
 BYTE   PATT
  POIN2 Label_012A9EAD
//  #11 //031   ----------------------------------------
 BYTE   PATT
  POIN2 Label_012A9EAD
//  #11 //032   ----------------------------------------
 BYTE   PATT
  POIN2 Label_012A9EC2
//  #11 //033   ----------------------------------------
 BYTE   PATT
  POIN2 Label_012A9EAD
//  #11 //034   ----------------------------------------
 BYTE   PATT
  POIN2 Label_012A9EAD
//  #11 //035   ----------------------------------------
 BYTE   PATT
  POIN2 Label_012A9EAD
//  #11 //036   ----------------------------------------
 BYTE   PATT
  POIN2 Label_012A9EC2
//  #11 //037   ----------------------------------------
 BYTE   PATT
  POIN2 Label_012A9EAD
//  #11 //038   ----------------------------------------
 BYTE   PATT
  POIN2 Label_012A9EAD
//  #11 //039   ----------------------------------------
 BYTE   PATT
  POIN2 Label_012A9EAD
//  #11 //040   ----------------------------------------
 BYTE   N22  Cn1  v094
 BYTE   W24
 BYTE   Cn1
 BYTE   W24
 BYTE   GoTo
  POIN2 Label_012A9F28
 BYTE   FINE

//**************** Track 12 (Midi-Chn.11) ****************//

TRSBerwickSagaFighttotheDeathGustabo_012:
//  #12 //000   ----------------------------------------
 BYTE   KEYSH   TRSBerwickSagaFighttotheDeathGustabo_key+0
 BYTE   VOICE   124
 BYTE   W03
 BYTE   Bn1
 BYTE   W01
 BYTE   VOL   70*TRSBerwickSagaFighttotheDeathGustabo_mvl/mxv
 BYTE   PAN   c_v-29
 BYTE   W44
 BYTE   N32  An1  v123  gtp3
 BYTE   W36
 BYTE   An1
 BYTE   W12
//  #12 //001   ----------------------------------------
Label_012A99C7:
 BYTE   W24
 BYTE   N23  An1  v123
 BYTE   W24
 BYTE   N32  An1  v123  gtp3
 BYTE   W36
 BYTE   An1
 BYTE   W12
 BYTE   PEND 
//  #12 //002   ----------------------------------------
Label_012A99D4:
 BYTE   W24
 BYTE   N02  An1  v087
 BYTE   W03
 BYTE   An1  v094
 BYTE   W03
 BYTE   An1  v099
 BYTE   W03
 BYTE   An1  v105
 BYTE   W03
 BYTE   An1  v109
 BYTE   W03
 BYTE   An1  v114
 BYTE   W03
 BYTE   An1  v119
 BYTE   W03
 BYTE   An1  v123
 BYTE   W03
 BYTE   N32  An1  v123  gtp3
 BYTE   W36
 BYTE   An1
 BYTE   W12
 BYTE   PEND 
//  #12 //003   ----------------------------------------
 BYTE   PATT
  POIN2 Label_012A99C7
//  #12 //004   ----------------------------------------
 BYTE   PATT
  POIN2 Label_012A99D4
//  #12 //005   ----------------------------------------
 BYTE   PATT
  POIN2 Label_012A99C7
//  #12 //006   ----------------------------------------
 BYTE   PATT
  POIN2 Label_012A99D4
//  #12 //007   ----------------------------------------
 BYTE   PATT
  POIN2 Label_012A99C7
//  #12 //008   ----------------------------------------
 BYTE   PATT
  POIN2 Label_012A99D4
//  #12 //009   ----------------------------------------
 BYTE   PATT
  POIN2 Label_012A99C7
//  #12 //010   ----------------------------------------
 BYTE   PATT
  POIN2 Label_012A99D4
//  #12 //011   ----------------------------------------
 BYTE   PATT
  POIN2 Label_012A99C7
//  #12 //012   ----------------------------------------
 BYTE   PATT
  POIN2 Label_012A99D4
//  #12 //013   ----------------------------------------
 BYTE   PATT
  POIN2 Label_012A99C7
//  #12 //014   ----------------------------------------
 BYTE   PATT
  POIN2 Label_012A99D4
//  #12 //015   ----------------------------------------
 BYTE   PATT
  POIN2 Label_012A99C7
//  #12 //016   ----------------------------------------
 BYTE   PATT
  POIN2 Label_012A99D4
//  #12 //017   ----------------------------------------
 BYTE   PATT
  POIN2 Label_012A99C7
//  #12 //018   ----------------------------------------
 BYTE   PATT
  POIN2 Label_012A99D4
//  #12 //019   ----------------------------------------
 BYTE   PATT
  POIN2 Label_012A99C7
//  #12 //020   ----------------------------------------
 BYTE   W24
 BYTE   N02  An1  v087
 BYTE   W03
 BYTE   An1  v094
 BYTE   W03
 BYTE   An1  v099
 BYTE   W03
 BYTE   An1  v105
 BYTE   W03
 BYTE   An1  v109
 BYTE   W03
 BYTE   An1  v114
 BYTE   W03
 BYTE   An1  v119
 BYTE   W03
 BYTE   N03  An1  v123
 BYTE   W03
 BYTE   N32  Cn2  v123  gtp3
 BYTE   W36
 BYTE   Cn2
 BYTE   W12
//  #12 //021   ----------------------------------------
 BYTE   W24
 BYTE   N23
 BYTE   W24
Label_012A9A70:
 BYTE   N32  Cn2  v123  gtp3
 BYTE   W36
 BYTE   Cn2
 BYTE   W12
//  #12 //022   ----------------------------------------
Label_012A9A77:
 BYTE   W24
 BYTE   N02  Cn2  v087
 BYTE   W03
 BYTE   Cn2  v094
 BYTE   W03
 BYTE   Cn2  v099
 BYTE   W03
 BYTE   Cn2  v105
 BYTE   W03
 BYTE   Cn2  v109
 BYTE   W03
 BYTE   Cn2  v114
 BYTE   W03
 BYTE   Cn2  v119
 BYTE   W03
 BYTE   Cn2  v123
 BYTE   W03
 BYTE   N32  Cn2  v123  gtp3
 BYTE   W36
 BYTE   Cn2
 BYTE   W12
 BYTE   PEND 
//  #12 //023   ----------------------------------------
Label_012A9A99:
 BYTE   W24
 BYTE   N23  Cn2  v123
 BYTE   W24
 BYTE   N32  Cn2  v123  gtp3
 BYTE   W36
 BYTE   Cn2
 BYTE   W12
 BYTE   PEND 
//  #12 //024   ----------------------------------------
 BYTE   PATT
  POIN2 Label_012A9A77
//  #12 //025   ----------------------------------------
 BYTE   PATT
  POIN2 Label_012A9A99
//  #12 //026   ----------------------------------------
 BYTE   PATT
  POIN2 Label_012A9A77
//  #12 //027   ----------------------------------------
 BYTE   PATT
  POIN2 Label_012A9A99
//  #12 //028   ----------------------------------------
 BYTE   PATT
  POIN2 Label_012A9A77
//  #12 //029   ----------------------------------------
 BYTE   PATT
  POIN2 Label_012A9A99
//  #12 //030   ----------------------------------------
 BYTE   PATT
  POIN2 Label_012A9A77
//  #12 //031   ----------------------------------------
 BYTE   PATT
  POIN2 Label_012A9A99
//  #12 //032   ----------------------------------------
 BYTE   PATT
  POIN2 Label_012A9A77
//  #12 //033   ----------------------------------------
 BYTE   PATT
  POIN2 Label_012A9A99
//  #12 //034   ----------------------------------------
 BYTE   PATT
  POIN2 Label_012A9A77
//  #12 //035   ----------------------------------------
 BYTE   PATT
  POIN2 Label_012A9A99
//  #12 //036   ----------------------------------------
 BYTE   PATT
  POIN2 Label_012A9A77
//  #12 //037   ----------------------------------------
 BYTE   PATT
  POIN2 Label_012A9A99
//  #12 //038   ----------------------------------------
 BYTE   PATT
  POIN2 Label_012A9A77
//  #12 //039   ----------------------------------------
 BYTE   PATT
  POIN2 Label_012A9A99
//  #12 //040   ----------------------------------------
 BYTE   W24
 BYTE   N02  Cn2  v087
 BYTE   W03
 BYTE   Cn2  v094
 BYTE   W03
 BYTE   Cn2  v099
 BYTE   W03
 BYTE   Cn2  v105
 BYTE   W03
 BYTE   Cn2  v109
 BYTE   W03
 BYTE   Cn2  v114
 BYTE   W03
 BYTE   Cn2  v119
 BYTE   W03
 BYTE   Cn2  v123
 BYTE   W03
 BYTE   GoTo
  POIN2 Label_012A9A70
 BYTE   FINE

//**************** Track 13 (Midi-Chn.12) ****************//

TRSBerwickSagaFighttotheDeathGustabo_013:
//  #13 //000   ----------------------------------------
 BYTE   KEYSH   TRSBerwickSagaFighttotheDeathGustabo_key+0
 BYTE   W05
 BYTE   VOICE   127
 BYTE   W01
 BYTE   VOL   70*TRSBerwickSagaFighttotheDeathGustabo_mvl/mxv
 BYTE   PAN   c_v-64
 BYTE   W42
 BYTE   N48  Cn1  v113
 BYTE   W48
//  #13 //001   ----------------------------------------
Label_012AA383:
 BYTE   N24  Cn5  v107
 BYTE   W24
 BYTE   Cn2  v121
 BYTE   W24
 BYTE   Cn3  v113
 BYTE   W24
 BYTE   Cn5  v107
 BYTE   W24
 BYTE   PEND 
//  #13 //002   ----------------------------------------
Label_012AA391:
 BYTE   N24  Cn4  v113
 BYTE   W24
 BYTE   Cn5  v121
 BYTE   W24
 BYTE   N48  Cn1  v113
 BYTE   W48
 BYTE   PEND 
//  #13 //003   ----------------------------------------
 BYTE   PATT
  POIN2 Label_012AA383
//  #13 //004   ----------------------------------------
 BYTE   PATT
  POIN2 Label_012AA391
//  #13 //005   ----------------------------------------
 BYTE   PATT
  POIN2 Label_012AA383
//  #13 //006   ----------------------------------------
 BYTE   PATT
  POIN2 Label_012AA391
//  #13 //007   ----------------------------------------
 BYTE   PATT
  POIN2 Label_012AA383
//  #13 //008   ----------------------------------------
 BYTE   PATT
  POIN2 Label_012AA391
//  #13 //009   ----------------------------------------
 BYTE   PATT
  POIN2 Label_012AA383
//  #13 //010   ----------------------------------------
 BYTE   PATT
  POIN2 Label_012AA391
//  #13 //011   ----------------------------------------
 BYTE   PATT
  POIN2 Label_012AA383
//  #13 //012   ----------------------------------------
 BYTE   PATT
  POIN2 Label_012AA391
//  #13 //013   ----------------------------------------
 BYTE   PATT
  POIN2 Label_012AA383
//  #13 //014   ----------------------------------------
 BYTE   PATT
  POIN2 Label_012AA391
//  #13 //015   ----------------------------------------
 BYTE   PATT
  POIN2 Label_012AA383
//  #13 //016   ----------------------------------------
 BYTE   PATT
  POIN2 Label_012AA391
//  #13 //017   ----------------------------------------
 BYTE   PATT
  POIN2 Label_012AA383
//  #13 //018   ----------------------------------------
 BYTE   PATT
  POIN2 Label_012AA391
//  #13 //019   ----------------------------------------
 BYTE   PATT
  POIN2 Label_012AA383
//  #13 //020   ----------------------------------------
 BYTE   PATT
  POIN2 Label_012AA391
//  #13 //021   ----------------------------------------
 BYTE   N24  Cn5  v107
 BYTE   W24
 BYTE   Cn2  v121
 BYTE   W24
Label_012AA3FE:
 BYTE   N24  Cn3  v113
 BYTE   W24
 BYTE   Cn5  v107
 BYTE   W24
//  #13 //022   ----------------------------------------
 BYTE   PATT
  POIN2 Label_012AA391
//  #13 //023   ----------------------------------------
 BYTE   PATT
  POIN2 Label_012AA383
//  #13 //024   ----------------------------------------
 BYTE   PATT
  POIN2 Label_012AA391
//  #13 //025   ----------------------------------------
 BYTE   PATT
  POIN2 Label_012AA383
//  #13 //026   ----------------------------------------
 BYTE   PATT
  POIN2 Label_012AA391
//  #13 //027   ----------------------------------------
 BYTE   PATT
  POIN2 Label_012AA383
//  #13 //028   ----------------------------------------
 BYTE   PATT
  POIN2 Label_012AA391
//  #13 //029   ----------------------------------------
 BYTE   PATT
  POIN2 Label_012AA383
//  #13 //030   ----------------------------------------
 BYTE   PATT
  POIN2 Label_012AA391
//  #13 //031   ----------------------------------------
 BYTE   PATT
  POIN2 Label_012AA383
//  #13 //032   ----------------------------------------
 BYTE   PATT
  POIN2 Label_012AA391
//  #13 //033   ----------------------------------------
 BYTE   PATT
  POIN2 Label_012AA383
//  #13 //034   ----------------------------------------
 BYTE   PATT
  POIN2 Label_012AA391
//  #13 //035   ----------------------------------------
 BYTE   PATT
  POIN2 Label_012AA383
//  #13 //036   ----------------------------------------
 BYTE   PATT
  POIN2 Label_012AA391
//  #13 //037   ----------------------------------------
 BYTE   PATT
  POIN2 Label_012AA383
//  #13 //038   ----------------------------------------
 BYTE   PATT
  POIN2 Label_012AA391
//  #13 //039   ----------------------------------------
 BYTE   PATT
  POIN2 Label_012AA383
//  #13 //040   ----------------------------------------
 BYTE   N24  Cn4  v113
 BYTE   W24
 BYTE   Cn5  v121
 BYTE   W24
 BYTE   GoTo
  POIN2 Label_012AA3FE
 BYTE   FINE

//**************** Track 14 (Midi-Chn.13) ****************//

TRSBerwickSagaFighttotheDeathGustabo_014:
//  #14 //000   ----------------------------------------
 BYTE   KEYSH   TRSBerwickSagaFighttotheDeathGustabo_key+0
 BYTE   W05
 BYTE   VOICE   127
 BYTE   W01
 BYTE   VOL   70*TRSBerwickSagaFighttotheDeathGustabo_mvl/mxv
 BYTE   PAN   c_v+63
 BYTE   W42
 BYTE   BEND   c_v-2
 BYTE   W01
 BYTE   N48  Cn1  v113
 BYTE   W44
 BYTE   W03
//  #14 //001   ----------------------------------------
Label_012A9CC7:
 BYTE   W01
 BYTE   N24  Cn5  v107
 BYTE   W24
 BYTE   Cn2  v121
 BYTE   W24
 BYTE   Cn3  v113
 BYTE   W24
 BYTE   Cn5  v107
 BYTE   W23
 BYTE   PEND 
//  #14 //002   ----------------------------------------
Label_012A9CD6:
 BYTE   W01
 BYTE   N24  Cn4  v113
 BYTE   W24
 BYTE   Cn5  v121
 BYTE   W24
 BYTE   N48  Cn1  v113
 BYTE   W44
 BYTE   W03
 BYTE   PEND 
//  #14 //003   ----------------------------------------
 BYTE   PATT
  POIN2 Label_012A9CC7
//  #14 //004   ----------------------------------------
 BYTE   PATT
  POIN2 Label_012A9CD6
//  #14 //005   ----------------------------------------
 BYTE   PATT
  POIN2 Label_012A9CC7
//  #14 //006   ----------------------------------------
 BYTE   PATT
  POIN2 Label_012A9CD6
//  #14 //007   ----------------------------------------
 BYTE   PATT
  POIN2 Label_012A9CC7
//  #14 //008   ----------------------------------------
 BYTE   PATT
  POIN2 Label_012A9CD6
//  #14 //009   ----------------------------------------
 BYTE   PATT
  POIN2 Label_012A9CC7
//  #14 //010   ----------------------------------------
 BYTE   PATT
  POIN2 Label_012A9CD6
//  #14 //011   ----------------------------------------
 BYTE   PATT
  POIN2 Label_012A9CC7
//  #14 //012   ----------------------------------------
 BYTE   PATT
  POIN2 Label_012A9CD6
//  #14 //013   ----------------------------------------
 BYTE   PATT
  POIN2 Label_012A9CC7
//  #14 //014   ----------------------------------------
 BYTE   PATT
  POIN2 Label_012A9CD6
//  #14 //015   ----------------------------------------
 BYTE   PATT
  POIN2 Label_012A9CC7
//  #14 //016   ----------------------------------------
 BYTE   PATT
  POIN2 Label_012A9CD6
//  #14 //017   ----------------------------------------
 BYTE   PATT
  POIN2 Label_012A9CC7
//  #14 //018   ----------------------------------------
 BYTE   PATT
  POIN2 Label_012A9CD6
//  #14 //019   ----------------------------------------
 BYTE   PATT
  POIN2 Label_012A9CC7
//  #14 //020   ----------------------------------------
 BYTE   PATT
  POIN2 Label_012A9CD6
//  #14 //021   ----------------------------------------
 BYTE   W01
 BYTE   N24  Cn5  v107
 BYTE   W24
 BYTE   Cn2  v121
 BYTE   W23
Label_012A9D46:
 BYTE   W01
 BYTE   N24  Cn3  v113
 BYTE   W24
 BYTE   Cn5  v107
 BYTE   W23
//  #14 //022   ----------------------------------------
 BYTE   PATT
  POIN2 Label_012A9CD6
//  #14 //023   ----------------------------------------
 BYTE   PATT
  POIN2 Label_012A9CC7
//  #14 //024   ----------------------------------------
 BYTE   PATT
  POIN2 Label_012A9CD6
//  #14 //025   ----------------------------------------
 BYTE   PATT
  POIN2 Label_012A9CC7
//  #14 //026   ----------------------------------------
 BYTE   PATT
  POIN2 Label_012A9CD6
//  #14 //027   ----------------------------------------
 BYTE   PATT
  POIN2 Label_012A9CC7
//  #14 //028   ----------------------------------------
 BYTE   PATT
  POIN2 Label_012A9CD6
//  #14 //029   ----------------------------------------
 BYTE   PATT
  POIN2 Label_012A9CC7
//  #14 //030   ----------------------------------------
 BYTE   PATT
  POIN2 Label_012A9CD6
//  #14 //031   ----------------------------------------
 BYTE   PATT
  POIN2 Label_012A9CC7
//  #14 //032   ----------------------------------------
 BYTE   PATT
  POIN2 Label_012A9CD6
//  #14 //033   ----------------------------------------
 BYTE   PATT
  POIN2 Label_012A9CC7
//  #14 //034   ----------------------------------------
 BYTE   PATT
  POIN2 Label_012A9CD6
//  #14 //035   ----------------------------------------
 BYTE   PATT
  POIN2 Label_012A9CC7
//  #14 //036   ----------------------------------------
 BYTE   PATT
  POIN2 Label_012A9CD6
//  #14 //037   ----------------------------------------
 BYTE   PATT
  POIN2 Label_012A9CC7
//  #14 //038   ----------------------------------------
 BYTE   PATT
  POIN2 Label_012A9CD6
//  #14 //039   ----------------------------------------
 BYTE   PATT
  POIN2 Label_012A9CC7
//  #14 //040   ----------------------------------------
 BYTE   W01
 BYTE   N24  Cn4  v113
 BYTE   W24
 BYTE   N22  Cn5  v121
 BYTE   W23
 BYTE   GoTo
  POIN2 Label_012A9D46
 BYTE   FINE

//******************************************************//
	ALIGN 4

TRSBerwickSagaFighttotheDeathGustabo:
	BYTE	14	// NumTrks
	BYTE	0	// NumBlks
	BYTE	TRSBerwickSagaFighttotheDeathGustabo_pri	// Priority
	BYTE	TRSBerwickSagaFighttotheDeathGustabo_rev	// Reverb.
    
	POIN2	TRSBerwickSagaFighttotheDeathGustabo_grp
    
	POIN2	TRSBerwickSagaFighttotheDeathGustabo_001
	POIN2	TRSBerwickSagaFighttotheDeathGustabo_002
	POIN2	TRSBerwickSagaFighttotheDeathGustabo_003
	POIN2	TRSBerwickSagaFighttotheDeathGustabo_004
	POIN2	TRSBerwickSagaFighttotheDeathGustabo_005
	POIN2	TRSBerwickSagaFighttotheDeathGustabo_006
	POIN2	TRSBerwickSagaFighttotheDeathGustabo_007
	POIN2	TRSBerwickSagaFighttotheDeathGustabo_008
	POIN2	TRSBerwickSagaFighttotheDeathGustabo_009
	POIN2	TRSBerwickSagaFighttotheDeathGustabo_010
	POIN2	TRSBerwickSagaFighttotheDeathGustabo_011
	POIN2	TRSBerwickSagaFighttotheDeathGustabo_012
	POIN2	TRSBerwickSagaFighttotheDeathGustabo_013
	POIN2	TRSBerwickSagaFighttotheDeathGustabo_014

	
