//Event file generated from Sappy .s format.
	#include "MPlayDef.event"

	#define	TRSBerwickSagaDepartureRSflame_grp  voicegroup000
	#define	TRSBerwickSagaDepartureRSflame_pri  0
	#define	TRSBerwickSagaDepartureRSflame_rev  0
	#define	TRSBerwickSagaDepartureRSflame_mvl  127
	#define	TRSBerwickSagaDepartureRSflame_key  0
	#define	TRSBerwickSagaDepartureRSflame_tbs  1
	#define	TRSBerwickSagaDepartureRSflame_exg  0
	#define	TRSBerwickSagaDepartureRSflame_cmp  1

	// .rodata
	//	TRSBerwickSagaDepartureRSflame
	ALIGN 4


//**************** Track 1 (Midi-Chn.0) ****************//

TRSBerwickSagaDepartureRSflame_001:
// 000   ----------------------------------------
 BYTE   KEYSH   TRSBerwickSagaDepartureRSflame_key+0
 BYTE   TEMPO   200*TRSBerwickSagaDepartureRSflame_tbs/2
 BYTE   VOICE   127
 BYTE   W02
 BYTE   MOD 0
 BYTE   CnM2
 BYTE   VOL   56*TRSBerwickSagaDepartureRSflame_mvl/mxv
 BYTE   PAN   c_v+0
 BYTE   BEND   c_v+0
 BYTE   W16
 BYTE   TEMPO   120*TRSBerwickSagaDepartureRSflame_tbs/2
 BYTE   W54
Label_0_01D05F57:
 BYTE   N96  Fn2  v120
 BYTE   W24
// 001   ----------------------------------------
 BYTE   W96
// 002   ----------------------------------------
 BYTE   W96
// 003   ----------------------------------------
 BYTE   W96
// 004   ----------------------------------------
 BYTE   W72
 BYTE   N96
 BYTE   W24
// 005   ----------------------------------------
 BYTE   W96
// 006   ----------------------------------------
 BYTE   W96
// 007   ----------------------------------------
 BYTE   W96
// 008   ----------------------------------------
 BYTE   W72
 BYTE   N96
 BYTE   W24
// 009   ----------------------------------------
 BYTE   W96
// 010   ----------------------------------------
 BYTE   W96
// 011   ----------------------------------------
 BYTE   W96
// 012   ----------------------------------------
 BYTE   W96
// 013   ----------------------------------------
 BYTE   W96
// 014   ----------------------------------------
 BYTE   W96
// 015   ----------------------------------------
 BYTE   W96
// 016   ----------------------------------------
 BYTE   W72
 BYTE   N96
 BYTE   W24
// 017   ----------------------------------------
 BYTE   W96
// 018   ----------------------------------------
 BYTE   W72
 BYTE   N96
 BYTE   W24
// 019   ----------------------------------------
 BYTE   W96
// 020   ----------------------------------------
 BYTE   W48
 BYTE   N23
 BYTE   W24
 BYTE   N96
 BYTE   W24
// 021   ----------------------------------------
 BYTE   W96
// 022   ----------------------------------------
 BYTE   W72
 BYTE   N96
 BYTE   W24
// 023   ----------------------------------------
 BYTE   W72
 BYTE   N96
 BYTE   W24
// 024   ----------------------------------------
 BYTE   W72
 BYTE   N96
 BYTE   W24
// 025   ----------------------------------------
 BYTE   W96
// 026   ----------------------------------------
 BYTE   W24
 BYTE   GoTo
  POIN2 Label_0_01D05F57
// 027   ----------------------------------------
 BYTE   W44
 BYTE   W03
 BYTE   FINE

//**************** Track 2 (Midi-Chn.1) ****************//

TRSBerwickSagaDepartureRSflame_002:
// 000   ----------------------------------------
 BYTE   KEYSH   TRSBerwickSagaDepartureRSflame_key+0
 BYTE   VOICE   40
 BYTE   VOL   39*TRSBerwickSagaDepartureRSflame_mvl/mxv
 BYTE   MOD 0
 BYTE   CnM2
 BYTE   PAN   c_v-31
 BYTE   BEND   c_v+0
 BYTE   W72
Label_1_01D048E1:
 BYTE   N44  Cs3  v120
 BYTE   W24
// 001   ----------------------------------------
Label_1_01D048E5:
 BYTE   W24
 BYTE   N23  Ds3  v116
 BYTE   W24
 BYTE   N12  En3  v112
 BYTE   W12
 BYTE   N06  Ds3  v116
 BYTE   W06
 BYTE   N04  En3  v108
 BYTE   W06
 BYTE   N48  Ds3  v116
 BYTE   W24
 BYTE   PEND 
// 002   ----------------------------------------
Label_1_01D048FB:
 BYTE   W24
 BYTE   N23  En3  v116
 BYTE   W24
 BYTE   N12  Fs3
 BYTE   W12
 BYTE   N05  En3  v108
 BYTE   W06
 BYTE   Fs3  v120
 BYTE   W06
 BYTE   N92  En3  v116
 BYTE   W24
 BYTE   PEND 
// 003   ----------------------------------------
 BYTE   W96
// 004   ----------------------------------------
 BYTE   W72
 BYTE   N44  Cs3  v120
 BYTE   W24
// 005   ----------------------------------------
 BYTE   W24
 BYTE   N22  Ds3  v116
 BYTE   W24
 BYTE   N12  En3
 BYTE   W12
 BYTE   N04  Ds3  v112
 BYTE   W06
 BYTE   N05  En3  v116
 BYTE   W06
 BYTE   N44  Ds3  v120
 BYTE   W24
// 006   ----------------------------------------
 BYTE   W24
 BYTE   N24  En3  v116
 BYTE   W24
 BYTE   N20  Bn3
 BYTE   W24
 BYTE   N32
 BYTE   W24
// 007   ----------------------------------------
 BYTE   W12
 BYTE   N06  An3  v108
 BYTE   W06
 BYTE   N04  Gs3  v116
 BYTE   W06
 BYTE   TIE  Fs3  v120
 BYTE   W72
// 008   ----------------------------------------
 BYTE   W56
 BYTE   W03
 BYTE   EOT
 BYTE   W13
 BYTE   N44  Cs3
 BYTE   W24
// 009   ----------------------------------------
 BYTE   PATT
  POIN2 Label_1_01D048E5
// 010   ----------------------------------------
 BYTE   PATT
  POIN2 Label_1_01D048FB
// 011   ----------------------------------------
 BYTE   W96
// 012   ----------------------------------------
 BYTE   W72
 BYTE   N44  Cs3  v120
 BYTE   W24
// 013   ----------------------------------------
 BYTE   W24
 BYTE   N22  Ds3  v112
 BYTE   W24
 BYTE   N11  En3
 BYTE   W12
 BYTE   N04  Ds3  v104
 BYTE   W06
 BYTE   N05  En3  v112
 BYTE   W06
 BYTE   N24  Ds3  v116
 BYTE   W24
// 014   ----------------------------------------
 BYTE   N22  Bn3
 BYTE   W24
 BYTE   N24  An3  v112
 BYTE   W24
 BYTE   N23  Gs3  v120
 BYTE   W24
 BYTE   N48  Cs4  v112
 BYTE   W24
// 015   ----------------------------------------
 BYTE   W24
 BYTE   N44  Ds4
 BYTE   W48
 BYTE   N48  En4  v108
 BYTE   W24
// 016   ----------------------------------------
 BYTE   W24
 BYTE   N40  Fs4  v112
 BYTE   W48
 BYTE   N60  En4  v096
 BYTE   N60  En5
 BYTE   W24
// 017   ----------------------------------------
 BYTE   W36
 BYTE   N05  Ds4
 BYTE   N05  Ds5
 BYTE   W12
 BYTE   N10  Cs4
 BYTE   N10  Cs5
 BYTE   W12
 BYTE   N04  Bn3
 BYTE   N04  Bn4
 BYTE   W12
 BYTE   N56  Bn3
 BYTE   N56  Bn4
 BYTE   W24
// 018   ----------------------------------------
 BYTE   W48
 BYTE   N07  Bn3
 BYTE   N07  Bn4
 BYTE   W06
 BYTE   Cs4
 BYTE   N07  Cs5
 BYTE   W06
 BYTE   N04  Ds4  v092
 BYTE   N04  Ds5
 BYTE   W06
 BYTE   N07  En4
 BYTE   N07  En5
 BYTE   W06
 BYTE   N30  Gs4  v096
 BYTE   N30  Gs5
 BYTE   W24
// 019   ----------------------------------------
 BYTE   W12
 BYTE   N08  An4  v092
 BYTE   N08  An5
 BYTE   W06
 BYTE   N06  Gs4  v096
 BYTE   N06  Gs5
 BYTE   W06
 BYTE   N19  Fs4  v092
 BYTE   N19  Fs5
 BYTE   W24
 BYTE   N24  En4  v096
 BYTE   N24  En5
 BYTE   W24
 BYTE   N44  Fs4
 BYTE   N44  Fs5
 BYTE   W24
// 020   ----------------------------------------
 BYTE   W24
 BYTE   N48  Ds4
 BYTE   N48  Ds5
 BYTE   W48
 BYTE   N52  En4
 BYTE   N52  En5
 BYTE   W24
// 021   ----------------------------------------
 BYTE   W36
 BYTE   N08  En4
 BYTE   N08  En5
 BYTE   W12
 BYTE   N09  Fs4
 BYTE   N09  Fs5
 BYTE   W12
 BYTE   N05  Gs4
 BYTE   N05  Gs5
 BYTE   W12
 BYTE   N44  Bn4  v092
 BYTE   N44  Bn5
 BYTE   W24
// 022   ----------------------------------------
 BYTE   W24
 BYTE   N32  Ds4  v096
 BYTE   N32  Ds5
 BYTE   W36
 BYTE   N06  En4  v092
 BYTE   N06  En5
 BYTE   W06
 BYTE   Ds4
 BYTE   N06  Ds5
 BYTE   W06
 BYTE   N68  En4
 BYTE   N68  En5
 BYTE   W24
// 023   ----------------------------------------
 BYTE   W48
 BYTE   N24  An4
 BYTE   N24  An5
 BYTE   W24
 BYTE   N48  Gs4  v096
 BYTE   N48  Gs5
 BYTE   W24
// 024   ----------------------------------------
 BYTE   W24
 BYTE   N30  Fs4
 BYTE   N30  Fs5
 BYTE   W36
 BYTE   N03  Fs4
 BYTE   N03  Fs5
 BYTE   W04
 BYTE   Gs4
 BYTE   N03  Gs5
 BYTE   W04
 BYTE   Fs4
 BYTE   N03  Fs5
 BYTE   W04
 BYTE   TIE  En4
 BYTE   TIE  En5
 BYTE   W24
// 025   ----------------------------------------
 BYTE   W96
// 026   ----------------------------------------
 BYTE   W24
 BYTE   GoTo
  POIN2 Label_1_01D048E1
// 027   ----------------------------------------
 BYTE   W22
 BYTE   EOT
 BYTE   En4  v088
 BYTE   W24
 BYTE   W01
 BYTE   FINE

//**************** Track 3 (Midi-Chn.2) ****************//

TRSBerwickSagaDepartureRSflame_003:
// 000   ----------------------------------------
 BYTE   KEYSH   TRSBerwickSagaDepartureRSflame_key+0
 BYTE   VOICE   41
 BYTE   VOL   37*TRSBerwickSagaDepartureRSflame_mvl/mxv
 BYTE   MOD 0
 BYTE   CnM2
 BYTE   PAN   c_v+36
 BYTE   BEND   c_v+0
 BYTE   W72
Label_2_01D04A5D:
 BYTE   N44  Cs3  v120
 BYTE   W24
// 001   ----------------------------------------
Label_2_01D04A61:
 BYTE   W24
 BYTE   N23  Ds3  v116
 BYTE   W24
 BYTE   N12  En3  v112
 BYTE   W12
 BYTE   N06  Ds3  v116
 BYTE   W06
 BYTE   N04  En3  v108
 BYTE   W06
 BYTE   N48  Ds3  v116
 BYTE   W24
 BYTE   PEND 
// 002   ----------------------------------------
Label_2_01D04A77:
 BYTE   W24
 BYTE   N23  En3  v116
 BYTE   W24
 BYTE   N12  Fs3
 BYTE   W12
 BYTE   N05  En3  v108
 BYTE   W06
 BYTE   Fs3  v120
 BYTE   W06
 BYTE   N92  En3  v116
 BYTE   W24
 BYTE   PEND 
// 003   ----------------------------------------
 BYTE   W96
// 004   ----------------------------------------
 BYTE   W72
 BYTE   N44  Cs3  v120
 BYTE   W24
// 005   ----------------------------------------
 BYTE   W24
 BYTE   N22  Ds3  v116
 BYTE   W24
 BYTE   N12  En3
 BYTE   W12
 BYTE   N04  Ds3  v112
 BYTE   W06
 BYTE   N05  En3  v116
 BYTE   W06
 BYTE   N44  Ds3  v120
 BYTE   W24
// 006   ----------------------------------------
 BYTE   W24
 BYTE   N24  En3  v116
 BYTE   W24
 BYTE   N20  Bn3
 BYTE   W24
 BYTE   N32
 BYTE   W24
// 007   ----------------------------------------
 BYTE   W12
 BYTE   N06  An3  v108
 BYTE   W06
 BYTE   N04  Gs3  v116
 BYTE   W06
 BYTE   TIE  Fs3  v120
 BYTE   W72
// 008   ----------------------------------------
 BYTE   W56
 BYTE   W03
 BYTE   EOT
 BYTE   W13
 BYTE   N44  Cs3
 BYTE   W24
// 009   ----------------------------------------
 BYTE   PATT
  POIN2 Label_2_01D04A61
// 010   ----------------------------------------
 BYTE   PATT
  POIN2 Label_2_01D04A77
// 011   ----------------------------------------
 BYTE   W96
// 012   ----------------------------------------
 BYTE   W72
 BYTE   N44  Cs3  v120
 BYTE   W24
// 013   ----------------------------------------
 BYTE   W24
 BYTE   N22  Ds3  v112
 BYTE   W24
 BYTE   N11  En3
 BYTE   W12
 BYTE   N04  Ds3  v104
 BYTE   W06
 BYTE   N05  En3  v112
 BYTE   W06
 BYTE   N24  Ds3  v116
 BYTE   W24
// 014   ----------------------------------------
 BYTE   N22  Bn3
 BYTE   W24
 BYTE   N24  An3  v112
 BYTE   W24
 BYTE   N23  Gs3  v120
 BYTE   W24
 BYTE   N48  Cs4  v112
 BYTE   W24
// 015   ----------------------------------------
 BYTE   W24
 BYTE   N44  Ds4
 BYTE   W48
 BYTE   N48  En4  v108
 BYTE   W24
// 016   ----------------------------------------
 BYTE   W24
 BYTE   N40  Fs4  v112
 BYTE   W48
 BYTE   N60  En4  v120
 BYTE   W24
// 017   ----------------------------------------
 BYTE   W36
 BYTE   N05  Ds4
 BYTE   W12
 BYTE   N10  Cs4
 BYTE   W12
 BYTE   N04  Bn3
 BYTE   W12
 BYTE   N56
 BYTE   W24
// 018   ----------------------------------------
 BYTE   W48
 BYTE   N09
 BYTE   W06
 BYTE   N07  Cs4
 BYTE   W06
 BYTE   N04  Ds4
 BYTE   W06
 BYTE   N07  En4
 BYTE   W06
 BYTE   N30  Gs4
 BYTE   W24
// 019   ----------------------------------------
 BYTE   W12
 BYTE   N08  An4
 BYTE   W06
 BYTE   N06  Gs4
 BYTE   W06
 BYTE   N19  Fs4
 BYTE   W24
 BYTE   N24  En4
 BYTE   W24
 BYTE   N44  Fs4
 BYTE   W24
// 020   ----------------------------------------
 BYTE   W24
 BYTE   N48  Ds4
 BYTE   W48
 BYTE   N52  En4
 BYTE   W24
// 021   ----------------------------------------
 BYTE   W36
 BYTE   N08
 BYTE   W12
 BYTE   N09  Fs4
 BYTE   W12
 BYTE   N05  Gs4
 BYTE   W12
 BYTE   N44  Bn4
 BYTE   W24
// 022   ----------------------------------------
 BYTE   W24
 BYTE   N32  Ds4
 BYTE   W36
 BYTE   N06  En4
 BYTE   W06
 BYTE   Ds4
 BYTE   W06
 BYTE   N68  En4
 BYTE   W24
// 023   ----------------------------------------
 BYTE   W48
 BYTE   N24  An4
 BYTE   W24
 BYTE   N48  Gs4
 BYTE   W24
// 024   ----------------------------------------
 BYTE   W24
 BYTE   N30  Fs4
 BYTE   W36
 BYTE   N03
 BYTE   W04
 BYTE   Gs4
 BYTE   W04
 BYTE   Fs4
 BYTE   W04
 BYTE   TIE  En4
 BYTE   W24
// 025   ----------------------------------------
 BYTE   W96
// 026   ----------------------------------------
 BYTE   W24
 BYTE   GoTo
  POIN2 Label_2_01D04A5D
// 027   ----------------------------------------
 BYTE   W22
 BYTE   EOT
 BYTE   En4
 BYTE   W24
 BYTE   W01
 BYTE   FINE

//**************** Track 4 (Midi-Chn.3) ****************//

TRSBerwickSagaDepartureRSflame_004:
// 000   ----------------------------------------
 BYTE   KEYSH   TRSBerwickSagaDepartureRSflame_key+0
 BYTE   VOL   34*TRSBerwickSagaDepartureRSflame_mvl/mxv
 BYTE   W01
 BYTE   VOICE   48
 BYTE   MOD 0
 BYTE   CnM2
 BYTE   PAN   c_v+0
 BYTE   BEND   c_v+0
 BYTE   W68
 BYTE   W03
Label_3_01D04B9B:
 BYTE   N96  En3  v112
 BYTE   N96  En4
 BYTE   W24
// 001   ----------------------------------------
 BYTE   W72
 BYTE   Fs3  v116
 BYTE   N96  Fs4
 BYTE   W24
// 002   ----------------------------------------
 BYTE   W72
 BYTE   N92  Gs3
 BYTE   N92  Gs4
 BYTE   W24
// 003   ----------------------------------------
 BYTE   W72
 BYTE   N36  Bn3  v112
 BYTE   N36  Bn4
 BYTE   W24
// 004   ----------------------------------------
 BYTE   W12
 BYTE   N06  An3  v108
 BYTE   N06  An4
 BYTE   W06
 BYTE   N05  Gs3  v120
 BYTE   N05  Gs4
 BYTE   W06
 BYTE   N21  Fs3  v112
 BYTE   N21  Fs4
 BYTE   W24
 BYTE   N23  Gs3  v116
 BYTE   N23  Gs4
 BYTE   W24
 BYTE   N92  En3
 BYTE   N92  En4
 BYTE   W24
// 005   ----------------------------------------
 BYTE   W72
 BYTE   Ds3
 BYTE   N92  Ds4
 BYTE   W24
// 006   ----------------------------------------
 BYTE   W72
 BYTE   Cs3  v120
 BYTE   N92  Cs4
 BYTE   W24
// 007   ----------------------------------------
 BYTE   W72
 BYTE   N32  Bn3  v116
 BYTE   N32  Bn4
 BYTE   W24
// 008   ----------------------------------------
 BYTE   W12
 BYTE   N06  Bn3  v104
 BYTE   N06  Bn4
 BYTE   W06
 BYTE   Cs4  v120
 BYTE   N06  Cs5
 BYTE   W06
 BYTE   N21  Ds4  v108
 BYTE   N21  Ds5
 BYTE   W24
 BYTE   N24  Cn4  v112
 BYTE   N24  Cn5
 BYTE   W24
 BYTE   N44  En3  v116
 BYTE   N44  En4
 BYTE   W24
// 009   ----------------------------------------
 BYTE   W24
 BYTE   N24  Fs3  v120
 BYTE   N24  Fs4
 BYTE   W24
 BYTE   N13  Gs3  v112
 BYTE   N13  Gs4
 BYTE   W12
 BYTE   N04  Fs3
 BYTE   N04  Fs4
 BYTE   W06
 BYTE   N05  Gs3  v116
 BYTE   N05  Gs4
 BYTE   W06
 BYTE   N44  Fs3  v112
 BYTE   N44  Fs4
 BYTE   W24
// 010   ----------------------------------------
 BYTE   W24
 BYTE   N21  Gs3  v120
 BYTE   N21  Gs4
 BYTE   W24
 BYTE   N13  An3  v112
 BYTE   N13  An4
 BYTE   W12
 BYTE   N05  Gs3  v116
 BYTE   N05  Gs4
 BYTE   W06
 BYTE   N06  An3  v112
 BYTE   N06  An4
 BYTE   W06
 BYTE   N60  Gs3
 BYTE   N60  Gs4
 BYTE   W24
// 011   ----------------------------------------
 BYTE   W48
 BYTE   N07  En3
 BYTE   N07  En4
 BYTE   W06
 BYTE   Fs3
 BYTE   N07  Fs4
 BYTE   W06
 BYTE   Gs3
 BYTE   N07  Gs4
 BYTE   W06
 BYTE   N05  An3  v116
 BYTE   N05  An4
 BYTE   W06
 BYTE   N36  Bn3
 BYTE   N36  Bn4
 BYTE   W24
// 012   ----------------------------------------
 BYTE   W12
 BYTE   N07  An3  v096
 BYTE   N07  An4
 BYTE   W06
 BYTE   N05  Gs3  v116
 BYTE   N05  Gs4
 BYTE   W06
 BYTE   N44  Fs3  v112
 BYTE   N44  Fs4
 BYTE   W48
 BYTE   N48  En3  v120
 BYTE   N48  En4
 BYTE   W24
// 013   ----------------------------------------
 BYTE   W24
 BYTE   N21  Fs3  v124
 BYTE   N21  Fs4
 BYTE   W24
 BYTE   N11  Gs3  v112
 BYTE   N11  Gs4
 BYTE   W12
 BYTE   N05  Fs3  v120
 BYTE   N05  Fs4
 BYTE   W06
 BYTE   N04  Gs3  v112
 BYTE   N04  Gs4
 BYTE   W06
 BYTE   N22  Fs3  v124
 BYTE   N22  Fs4
 BYTE   W24
// 014   ----------------------------------------
 BYTE   N24  Ds4  v112
 BYTE   N24  Ds5
 BYTE   W24
 BYTE   Cs4
 BYTE   N24  Cs5
 BYTE   W24
 BYTE   Bn3
 BYTE   N24  Bn4
 BYTE   W24
 BYTE   N48  En4
 BYTE   N48  En5
 BYTE   W24
// 015   ----------------------------------------
 BYTE   W24
 BYTE   Fs4
 BYTE   N48  Fs5
 BYTE   W48
 BYTE   Gs4
 BYTE   N48  Gs5
 BYTE   W24
// 016   ----------------------------------------
 BYTE   W24
 BYTE   N42  An4  v108
 BYTE   N42  An5
 BYTE   W48
 BYTE   N60  En3  v120
 BYTE   N60  En4
 BYTE   W24
// 017   ----------------------------------------
 BYTE   W36
 BYTE   N05  Ds3
 BYTE   N05  Ds4
 BYTE   W12
 BYTE   N10  Cs3
 BYTE   N10  Cs4
 BYTE   W12
 BYTE   N04  Bn2
 BYTE   N04  Bn3
 BYTE   W12
 BYTE   N56  Bn2
 BYTE   N56  Bn3
 BYTE   W24
// 018   ----------------------------------------
 BYTE   W48
 BYTE   N09  Bn2
 BYTE   N09  Bn3
 BYTE   W06
 BYTE   N07  Cs3
 BYTE   N07  Cs4
 BYTE   W06
 BYTE   N04  Ds3
 BYTE   N04  Ds4
 BYTE   W06
 BYTE   N07  En3
 BYTE   N07  En4
 BYTE   W06
 BYTE   N30  Gs3
 BYTE   N30  Gs4
 BYTE   W24
// 019   ----------------------------------------
 BYTE   W12
 BYTE   N08  An3
 BYTE   N08  An4
 BYTE   W06
 BYTE   N06  Gs3
 BYTE   N06  Gs4
 BYTE   W06
 BYTE   N19  Fs3
 BYTE   N19  Fs4
 BYTE   W24
 BYTE   N24  En3
 BYTE   N24  En4
 BYTE   W24
 BYTE   N44  Fs3
 BYTE   N44  Fs4
 BYTE   W24
// 020   ----------------------------------------
 BYTE   W24
 BYTE   N48  Ds3
 BYTE   N48  Ds4
 BYTE   W48
 BYTE   N52  En3
 BYTE   N52  En4
 BYTE   W24
// 021   ----------------------------------------
 BYTE   W36
 BYTE   N08  En3
 BYTE   N08  En4
 BYTE   W12
 BYTE   N09  Fs3
 BYTE   N09  Fs4
 BYTE   W12
 BYTE   N05  Gs3
 BYTE   N05  Gs4
 BYTE   W12
 BYTE   N44  Bn3
 BYTE   N44  Bn4
 BYTE   W24
// 022   ----------------------------------------
 BYTE   W24
 BYTE   N32  Ds3
 BYTE   N32  Ds4
 BYTE   W36
 BYTE   N06  En3
 BYTE   N06  En4
 BYTE   W06
 BYTE   Ds3
 BYTE   N06  Ds4
 BYTE   W06
 BYTE   N68  En3
 BYTE   N68  En4
 BYTE   W24
// 023   ----------------------------------------
 BYTE   W48
 BYTE   N24  An3
 BYTE   N24  An4
 BYTE   W24
 BYTE   N48  Gs3
 BYTE   N48  Gs4
 BYTE   W24
// 024   ----------------------------------------
 BYTE   W24
 BYTE   N30  Fs3
 BYTE   N30  Fs4
 BYTE   W36
 BYTE   N03  Fs3
 BYTE   N03  Fs4
 BYTE   W04
 BYTE   Gs3
 BYTE   N03  Gs4
 BYTE   W04
 BYTE   Fs3
 BYTE   N03  Fs4
 BYTE   W04
 BYTE   TIE  En3
 BYTE   TIE  En4
 BYTE   W24
// 025   ----------------------------------------
 BYTE   W96
// 026   ----------------------------------------
 BYTE   W24
 BYTE   GoTo
  POIN2 Label_3_01D04B9B
// 027   ----------------------------------------
 BYTE   W22
 BYTE   EOT
 BYTE   En3  v076
 BYTE   W24
 BYTE   W01
 BYTE   FINE

//**************** Track 5 (Midi-Chn.4) ****************//

TRSBerwickSagaDepartureRSflame_005:
// 000   ----------------------------------------
 BYTE   KEYSH   TRSBerwickSagaDepartureRSflame_key+0
 BYTE   VOICE   42
 BYTE   W01
 BYTE   MOD 0
 BYTE   CnM2
 BYTE   VOL   62*TRSBerwickSagaDepartureRSflame_mvl/mxv
 BYTE   PAN   c_v+0
 BYTE   BEND   c_v+0
 BYTE   W68
 BYTE   W03
Label_4_01D04DEB:
 BYTE   N04  Cs1  v120
 BYTE   N04  Cs2  v108
 BYTE   W24
// 001   ----------------------------------------
 BYTE   Cs1  v124
 BYTE   N04  Cs2  v108
 BYTE   W24
 BYTE   Cs1  v124
 BYTE   N04  Cs2  v108
 BYTE   W24
 BYTE   Cs1  v127
 BYTE   N03  Cs2  v108
 BYTE   W24
 BYTE   N04  Gs0  v120
 BYTE   N03  Gs1  v088
 BYTE   W24
// 002   ----------------------------------------
 BYTE   N04  Gs0  v124
 BYTE   N03  Gs1  v092
 BYTE   W24
 BYTE   N04  Gs0  v120
 BYTE   N04  Gs1  v092
 BYTE   W24
 BYTE   N03  Gs0  v120
 BYTE   N03  Gs1  v092
 BYTE   W12
 BYTE   Gs0  v120
 BYTE   N03  Gs1  v092
 BYTE   W12
 BYTE   N05  An0  v100
 BYTE   N04  An1  v084
 BYTE   W24
// 003   ----------------------------------------
 BYTE   An0  v116
 BYTE   N04  An1  v092
 BYTE   W24
 BYTE   An0  v116
 BYTE   N04  An1  v088
 BYTE   W24
 BYTE   N05  An0  v116
 BYTE   N04  An1  v092
 BYTE   W24
 BYTE   N05  Bn0  v112
 BYTE   N04  Bn1  v092
 BYTE   W24
// 004   ----------------------------------------
 BYTE   Bn0  v116
 BYTE   N04  Bn1  v092
 BYTE   W24
 BYTE   Bn0  v116
 BYTE   N04  Bn1  v092
 BYTE   W24
 BYTE   Bn0  v108
 BYTE   N04  Bn1  v084
 BYTE   W12
 BYTE   Bn0  v120
 BYTE   N03  Bn1  v084
 BYTE   W12
 BYTE   N04  Cs1  v120
 BYTE   N03  Cs2  v088
 BYTE   W24
// 005   ----------------------------------------
 BYTE   N04  Cs1  v124
 BYTE   N03  Cs2  v092
 BYTE   W24
 BYTE   N04  Cs1  v124
 BYTE   N04  Cs2  v092
 BYTE   W24
 BYTE   Cs1  v124
 BYTE   N03  Cs2  v092
 BYTE   W24
 BYTE   N04  Gs0  v120
 BYTE   N03  Gs1  v088
 BYTE   W24
// 006   ----------------------------------------
 BYTE   N04  Gs0  v120
 BYTE   N03  Gs1  v092
 BYTE   W24
 BYTE   Gs0  v120
 BYTE   N03  Gs1  v096
 BYTE   W24
 BYTE   Gs0  v116
 BYTE   N03  Gs1  v096
 BYTE   W12
 BYTE   Gs0  v112
 BYTE   N03  Gs1  v092
 BYTE   W12
 BYTE   N05  An0  v112
 BYTE   N04  An1  v088
 BYTE   W24
// 007   ----------------------------------------
 BYTE   An0  v112
 BYTE   N04  An1  v088
 BYTE   W24
 BYTE   An0  v112
 BYTE   N04  An1  v088
 BYTE   W24
 BYTE   N05  An0  v116
 BYTE   N04  An1  v088
 BYTE   W24
 BYTE   N05  Bn0  v116
 BYTE   N04  Bn1  v096
 BYTE   W24
// 008   ----------------------------------------
 BYTE   N05  Bn0  v116
 BYTE   N04  Bn1  v092
 BYTE   W24
 BYTE   N05  Cn1  v120
 BYTE   N04  Cn2  v092
 BYTE   W24
 BYTE   Cn1  v120
 BYTE   N04  Cn2  v092
 BYTE   W24
 BYTE   Cs1  v120
 BYTE   N04  Cs2  v092
 BYTE   W12
 BYTE   Cs1  v120
 BYTE   N03  Cs2  v092
 BYTE   W12
// 009   ----------------------------------------
 BYTE   W12
 BYTE   Cs1  v124
 BYTE   N04  Cs2  v092
 BYTE   W12
 BYTE   Cs1  v120
 BYTE   N04  Cs2  v092
 BYTE   W24
 BYTE   N03  Cs1  v127
 BYTE   N03  Cs2  v100
 BYTE   W24
 BYTE   Gs0  v108
 BYTE   N03  Gs1  v084
 BYTE   W12
 BYTE   Gs0  v116
 BYTE   N03  Gs1  v092
 BYTE   W12
// 010   ----------------------------------------
 BYTE   W12
 BYTE   Gs0  v112
 BYTE   N03  Gs1  v092
 BYTE   W12
 BYTE   Gs0  v112
 BYTE   N03  Gs1  v092
 BYTE   W24
 BYTE   N04  Gs0  v120
 BYTE   N04  Gs1  v092
 BYTE   W24
 BYTE   N03  An0  v108
 BYTE   N04  An1  v084
 BYTE   W12
 BYTE   An0  v108
 BYTE   N04  An1  v084
 BYTE   W12
// 011   ----------------------------------------
 BYTE   W12
 BYTE   N03  An0  v108
 BYTE   N04  An1  v084
 BYTE   W12
 BYTE   N03  An0  v108
 BYTE   N04  An1  v088
 BYTE   W24
 BYTE   An0  v108
 BYTE   N04  An1  v092
 BYTE   W24
 BYTE   Bn0  v112
 BYTE   N04  Bn1  v092
 BYTE   W12
 BYTE   Bn0  v112
 BYTE   N04  Bn1  v088
 BYTE   W12
// 012   ----------------------------------------
 BYTE   W12
 BYTE   N03  Bn0  v108
 BYTE   N04  Bn1  v084
 BYTE   W12
 BYTE   Bn0  v108
 BYTE   N04  Bn1  v088
 BYTE   W24
 BYTE   Bn0  v112
 BYTE   N04  Bn1  v088
 BYTE   W24
 BYTE   Cs1  v112
 BYTE   N03  Cs2  v092
 BYTE   W12
 BYTE   N04  Cs1  v112
 BYTE   N03  Cs2  v088
 BYTE   W12
// 013   ----------------------------------------
 BYTE   W12
 BYTE   Cs1  v112
 BYTE   N03  Cs2  v088
 BYTE   W12
 BYTE   N04  Cs1  v120
 BYTE   N04  Cs2  v092
 BYTE   W24
 BYTE   N05  Cs1  v116
 BYTE   N04  Cs2  v092
 BYTE   W24
 BYTE   N03  Gs0  v112
 BYTE   N03  Gs1  v088
 BYTE   W12
 BYTE   Gs0  v112
 BYTE   N03  Gs1  v088
 BYTE   W12
// 014   ----------------------------------------
 BYTE   W12
 BYTE   Gs0  v112
 BYTE   N03  Gs1  v088
 BYTE   W12
 BYTE   Gs0  v112
 BYTE   N04  Gs1  v092
 BYTE   W24
 BYTE   Gs0  v120
 BYTE   N04  Gs1  v096
 BYTE   W24
 BYTE   N03  An0  v112
 BYTE   N04  An1  v084
 BYTE   W12
 BYTE   An0  v112
 BYTE   N04  An1  v084
 BYTE   W12
// 015   ----------------------------------------
 BYTE   W12
 BYTE   An0  v108
 BYTE   N04  An1  v084
 BYTE   W12
 BYTE   An0  v108
 BYTE   N04  An1  v084
 BYTE   W24
 BYTE   An0  v112
 BYTE   N04  An1  v092
 BYTE   W24
 BYTE   N03  Bn0  v108
 BYTE   N04  Bn1  v084
 BYTE   W12
 BYTE   Bn0  v112
 BYTE   N04  Bn1  v092
 BYTE   W12
// 016   ----------------------------------------
 BYTE   W12
 BYTE   Bn0  v112
 BYTE   N04  Bn1  v088
 BYTE   W12
 BYTE   Cn1  v116
 BYTE   N04  Cn2  v084
 BYTE   W12
 BYTE   Cn1  v112
 BYTE   N04  Cn2  v088
 BYTE   W24
 BYTE   Cn1  v116
 BYTE   N04  Cn2  v092
 BYTE   W12
 BYTE   Cs1  v120
 BYTE   N04  Cs2  v092
 BYTE   W24
// 017   ----------------------------------------
 BYTE   Cs1  v116
 BYTE   N04  Cs2  v092
 BYTE   W24
 BYTE   N03  Cs1  v116
 BYTE   N04  Cs2  v092
 BYTE   W12
 BYTE   Cs1  v120
 BYTE   N03  Cs2  v092
 BYTE   W24
 BYTE   N04  Cs1  v120
 BYTE   N03  Cs2  v092
 BYTE   W12
 BYTE   N04  Gs0  v112
 BYTE   N04  Gs1  v092
 BYTE   W24
// 018   ----------------------------------------
 BYTE   Gs0  v120
 BYTE   N04  Gs1  v096
 BYTE   W24
 BYTE   N03  Gs0  v120
 BYTE   N04  Gs1  v092
 BYTE   W24
 BYTE   N03  Gs0  v120
 BYTE   N04  Gs1  v096
 BYTE   W24
 BYTE   An0  v108
 BYTE   N04  An1  v084
 BYTE   W24
// 019   ----------------------------------------
 BYTE   An0  v116
 BYTE   N04  An1  v092
 BYTE   W24
 BYTE   N03  An0  v104
 BYTE   N04  An1  v084
 BYTE   W12
 BYTE   An0  v112
 BYTE   N04  An1  v092
 BYTE   W24
 BYTE   N03  An0  v108
 BYTE   N04  An1  v080
 BYTE   W12
 BYTE   Gs0  v116
 BYTE   N04  Gs1  v092
 BYTE   W24
// 020   ----------------------------------------
 BYTE   Gs0  v116
 BYTE   N04  Gs1  v096
 BYTE   W24
 BYTE   N03  Gs0  v120
 BYTE   N04  Gs1  v092
 BYTE   W24
 BYTE   Gs0  v120
 BYTE   N03  Gs1  v096
 BYTE   W24
 BYTE   N04  Cs1  v112
 BYTE   N04  Cs2  v092
 BYTE   W24
// 021   ----------------------------------------
 BYTE   Cs1  v120
 BYTE   N04  Cs2  v092
 BYTE   W24
 BYTE   N03  Cs1  v116
 BYTE   N03  Cs2  v084
 BYTE   W12
 BYTE   N04  Cs1  v116
 BYTE   N04  Cs2  v092
 BYTE   W24
 BYTE   Cs1  v116
 BYTE   N03  Cs2  v096
 BYTE   W12
 BYTE   N04  Gs0  v112
 BYTE   N03  Gs1  v092
 BYTE   W24
// 022   ----------------------------------------
 BYTE   N04  Gs0  v120
 BYTE   N03  Gs1  v092
 BYTE   W24
 BYTE   Gs0  v120
 BYTE   N03  Gs1  v096
 BYTE   W24
 BYTE   N04  Gs0  v120
 BYTE   N04  Gs1  v096
 BYTE   W24
 BYTE   An0  v112
 BYTE   N04  An1  v084
 BYTE   W24
// 023   ----------------------------------------
 BYTE   An0  v116
 BYTE   N04  An1  v084
 BYTE   W24
 BYTE   An0  v108
 BYTE   N04  An1  v088
 BYTE   W12
 BYTE   N03  An0  v108
 BYTE   N04  An1  v084
 BYTE   W24
 BYTE   An0  v108
 BYTE   N04  An1  v088
 BYTE   W12
 BYTE   Bn0  v108
 BYTE   N04  Bn1  v088
 BYTE   W24
// 024   ----------------------------------------
 BYTE   Bn0  v112
 BYTE   N04  Bn1  v084
 BYTE   W24
 BYTE   Bn0  v108
 BYTE   N04  Bn1  v092
 BYTE   W24
 BYTE   Bn0  v112
 BYTE   N04  Bn1  v092
 BYTE   W24
 BYTE   Cs1  v120
 BYTE   N04  Cs2  v092
 BYTE   W12
 BYTE   Cs1  v120
 BYTE   N03  Cs2  v092
 BYTE   W12
// 025   ----------------------------------------
 BYTE   W12
 BYTE   Cs1  v124
 BYTE   N04  Cs2  v092
 BYTE   W12
 BYTE   Cs1  v120
 BYTE   N04  Cs2  v092
 BYTE   W24
 BYTE   N03  Cs1  v127
 BYTE   N03  Cs2  v100
 BYTE   W24
 BYTE   N04  Cs1  v120
 BYTE   N04  Cs2  v092
 BYTE   W12
 BYTE   Cs1  v120
 BYTE   N03  Cs2  v092
 BYTE   W12
// 026   ----------------------------------------
 BYTE   W12
 BYTE   Cs1  v124
 BYTE   N04  Cs2  v092
 BYTE   W12
 BYTE   GoTo
  POIN2 Label_4_01D04DEB
// 027   ----------------------------------------
 BYTE   N04  Cs1  v120
 BYTE   N04  Cs2  v092
 BYTE   W24
 BYTE   N03  Cs1  v127
 BYTE   N03  Cs2  v100
 BYTE   W23
 BYTE   FINE

//**************** Track 6 (Midi-Chn.5) ****************//

TRSBerwickSagaDepartureRSflame_006:
// 000   ----------------------------------------
 BYTE   KEYSH   TRSBerwickSagaDepartureRSflame_key+0
 BYTE   W01
 BYTE   VOICE   47
 BYTE   MOD 0
 BYTE   CnM2
 BYTE   VOL   59*TRSBerwickSagaDepartureRSflame_mvl/mxv
 BYTE   W01
 BYTE   PAN   c_v+0
 BYTE   BEND   c_v+0
 BYTE   W22
 BYTE   N02  Cs2  v104
 BYTE   W03
 BYTE   Cs2  v080
 BYTE   W03
 BYTE   Cs2  v072
 BYTE   W03
 BYTE   Cs2  v068
 BYTE   W03
 BYTE   Cs2  v080
 BYTE   W03
 BYTE   Cs2  v076
 BYTE   W03
 BYTE   Cs2  v088
 BYTE   W03
 BYTE   Cs2  v084
 BYTE   W03
 BYTE   Cs2  v100
 BYTE   W03
 BYTE   Cs2  v092
 BYTE   W03
 BYTE   Cs2  v104
 BYTE   W03
 BYTE   Cs2  v100
 BYTE   W03
 BYTE   Cs2  v116
 BYTE   W03
 BYTE   Cs2  v108
 BYTE   W03
 BYTE   Cs2  v120
 BYTE   W03
 BYTE   Cs2  v124
 BYTE   W03
Label_5_01D0514C:
 BYTE   N96  Cs2  v127
 BYTE   W24
// 001   ----------------------------------------
 BYTE   W96
// 002   ----------------------------------------
 BYTE   W96
// 003   ----------------------------------------
 BYTE   W96
// 004   ----------------------------------------
 BYTE   W72
 BYTE   N96
 BYTE   W24
// 005   ----------------------------------------
 BYTE   W96
// 006   ----------------------------------------
 BYTE   W96
// 007   ----------------------------------------
 BYTE   W96
// 008   ----------------------------------------
Label_5_01D05159:
 BYTE   W24
 BYTE   N02  Cs2  v088
 BYTE   W03
 BYTE   N02
 BYTE   W03
 BYTE   Cs2  v092
 BYTE   W03
 BYTE   N02
 BYTE   W03
 BYTE   Cs2  v096
 BYTE   W03
 BYTE   N02
 BYTE   W03
 BYTE   Cs2  v100
 BYTE   W03
 BYTE   N02
 BYTE   W03
 BYTE   Cs2  v104
 BYTE   W03
 BYTE   N02
 BYTE   W03
 BYTE   Cs2  v108
 BYTE   W03
 BYTE   Cs2  v112
 BYTE   W03
 BYTE   Cs2  v116
 BYTE   W03
 BYTE   N02
 BYTE   W03
 BYTE   Cs2  v120
 BYTE   W03
 BYTE   Cs2  v124
 BYTE   W03
 BYTE   N96  Cs2  v127
 BYTE   W24
 BYTE   PEND 
// 009   ----------------------------------------
 BYTE   W96
// 010   ----------------------------------------
 BYTE   W96
// 011   ----------------------------------------
 BYTE   W96
// 012   ----------------------------------------
 BYTE   W72
 BYTE   N96
 BYTE   W24
// 013   ----------------------------------------
 BYTE   W96
// 014   ----------------------------------------
 BYTE   W96
// 015   ----------------------------------------
 BYTE   W96
// 016   ----------------------------------------
 BYTE   PATT
  POIN2 Label_5_01D05159
// 017   ----------------------------------------
 BYTE   W96
// 018   ----------------------------------------
 BYTE   W36
 BYTE   N05  Gs1  v120
 BYTE   W06
 BYTE   N05
 BYTE   W06
 BYTE   Gs1  v127
 BYTE   W06
 BYTE   N05
 BYTE   W06
 BYTE   N11
 BYTE   W12
 BYTE   N92  An1
 BYTE   W24
// 019   ----------------------------------------
 BYTE   W72
 BYTE   N56  Gs1
 BYTE   W24
// 020   ----------------------------------------
 BYTE   W36
 BYTE   N05  Gs1  v124
 BYTE   W06
 BYTE   N05
 BYTE   W06
 BYTE   Gs1  v127
 BYTE   W06
 BYTE   N05
 BYTE   W06
 BYTE   N11
 BYTE   W12
 BYTE   N80  Cs2
 BYTE   W24
// 021   ----------------------------------------
 BYTE   W60
 BYTE   N11
 BYTE   W12
 BYTE   N56  Gs1
 BYTE   W24
// 022   ----------------------------------------
 BYTE   W36
 BYTE   N05  Gs1  v124
 BYTE   W06
 BYTE   Gs1  v127
 BYTE   W06
 BYTE   N05
 BYTE   W06
 BYTE   N05
 BYTE   W06
 BYTE   N11
 BYTE   W12
 BYTE   N80  An1
 BYTE   W24
// 023   ----------------------------------------
 BYTE   W60
 BYTE   N05  An1  v124
 BYTE   W06
 BYTE   An1  v116
 BYTE   W06
 BYTE   N56  Bn1  v127
 BYTE   W24
// 024   ----------------------------------------
 BYTE   W36
 BYTE   N05  Bn1  v120
 BYTE   W06
 BYTE   Bn1  v116
 BYTE   W06
 BYTE   Bn1  v120
 BYTE   W06
 BYTE   N05
 BYTE   W06
 BYTE   N11  Bn1  v124
 BYTE   W12
 BYTE   N92  Cs2  v127
 BYTE   W24
// 025   ----------------------------------------
 BYTE   W72
 BYTE   N44
 BYTE   W24
// 026   ----------------------------------------
 BYTE   W24
 BYTE   GoTo
  POIN2 Label_5_01D0514C
// 027   ----------------------------------------
 BYTE   N11  Cs2  v127
 BYTE   W12
 BYTE   Gs1  v124
 BYTE   W12
 BYTE   Cs2  v127
 BYTE   W12
 BYTE   Gs1
 BYTE   W11
 BYTE   FINE

//**************** Track 7 (Midi-Chn.6) ****************//

TRSBerwickSagaDepartureRSflame_007:
// 000   ----------------------------------------
 BYTE   KEYSH   TRSBerwickSagaDepartureRSflame_key+0
 BYTE   W02
 BYTE   VOICE   48
 BYTE   MOD 0
 BYTE   CnM2
 BYTE   VOL   62*TRSBerwickSagaDepartureRSflame_mvl/mxv
 BYTE   PAN   c_v-24
 BYTE   BEND   c_v+0
 BYTE   W68
 BYTE   W02
Label_6_01D0605F:
 BYTE   N04  Cs1  v120
 BYTE   N06  Gs2  v108
 BYTE   N06  Cs3  v112
 BYTE   N06  En3  v108
 BYTE   W24
// 001   ----------------------------------------
 BYTE   N04  Cs1  v124
 BYTE   N05  Gs2  v108
 BYTE   N05  Cs3  v112
 BYTE   N05  En3  v108
 BYTE   W24
 BYTE   N04  Cs1  v124
 BYTE   N05  Gs2  v108
 BYTE   N05  Cs3  v112
 BYTE   N05  En3  v108
 BYTE   W24
 BYTE   N04  Cs1  v127
 BYTE   N06  Gs2  v112
 BYTE   N04  Cs3
 BYTE   N04  En3
 BYTE   W24
 BYTE   Gs0  v120
 BYTE   N06  Gs2  v104
 BYTE   N06  Bn2  v108
 BYTE   N06  Ds3
 BYTE   W24
// 002   ----------------------------------------
 BYTE   N04  Gs0  v124
 BYTE   N05  Gs2  v108
 BYTE   N04  Bn2
 BYTE   N06  Ds3  v104
 BYTE   W24
 BYTE   N04  Gs0  v120
 BYTE   N05  Gs2  v112
 BYTE   N05  Bn2
 BYTE   N06  Ds3
 BYTE   W24
 BYTE   N03  Gs0  v120
 BYTE   N05  Gs2  v112
 BYTE   N05  Bn2  v108
 BYTE   N07  Ds3  v112
 BYTE   W12
 BYTE   N03  Gs0  v120
 BYTE   W12
 BYTE   N05  An0  v100
 BYTE   N08  An2
 BYTE   N06  Cs3  v112
 BYTE   N06  En3  v108
 BYTE   W24
// 003   ----------------------------------------
 BYTE   N04  An0  v116
 BYTE   N06  An2  v104
 BYTE   N05  Cs3  v112
 BYTE   N06  En3
 BYTE   W24
 BYTE   N04  An0  v116
 BYTE   N06  An2  v104
 BYTE   N05  Cs3  v112
 BYTE   N06  En3  v108
 BYTE   W24
 BYTE   N05  An0  v116
 BYTE   N06  An2  v104
 BYTE   N06  Cs3  v112
 BYTE   N07  En3
 BYTE   W24
 BYTE   N05  Bn0
 BYTE   N07  An2  v096
 BYTE   N06  Bn2
 BYTE   N06  Cs3
 BYTE   N06  En3  v104
 BYTE   W24
// 004   ----------------------------------------
 BYTE   N04  Bn0  v116
 BYTE   N05  An2  v096
 BYTE   N05  Bn2  v100
 BYTE   N05  Cs3
 BYTE   N05  En3  v104
 BYTE   W24
 BYTE   N04  Bn0  v116
 BYTE   N06  Fs2  v104
 BYTE   N07  Bn2
 BYTE   N06  Ds3
 BYTE   W24
 BYTE   N04  Bn0  v108
 BYTE   N05  Fs2  v112
 BYTE   N05  Bn2  v108
 BYTE   N06  Ds3
 BYTE   W12
 BYTE   N04  Bn0  v120
 BYTE   W12
 BYTE   Cs1
 BYTE   N07  Gs2  v104
 BYTE   N05  Cs3
 BYTE   N06  En3  v108
 BYTE   W24
// 005   ----------------------------------------
 BYTE   N04  Cs1  v124
 BYTE   N05  Gs2  v108
 BYTE   N04  Cs3
 BYTE   N05  En3
 BYTE   W24
 BYTE   N04  Cs1  v124
 BYTE   N05  Gs2  v108
 BYTE   N04  Cs3
 BYTE   N05  En3
 BYTE   W24
 BYTE   N04  Cs1  v124
 BYTE   N06  Gs2  v112
 BYTE   N04  Cs3  v108
 BYTE   N05  En3  v116
 BYTE   W24
 BYTE   N04  Gs0  v120
 BYTE   N05  Gs2  v104
 BYTE   N05  Bn2
 BYTE   N06  Ds3
 BYTE   W24
// 006   ----------------------------------------
 BYTE   N04  Gs0  v120
 BYTE   N06  Gs2  v100
 BYTE   N05  Bn2  v104
 BYTE   N05  Ds3
 BYTE   W24
 BYTE   N03  Gs0  v120
 BYTE   N04  Gs2  v104
 BYTE   N05  Bn2  v108
 BYTE   N05  Ds3  v104
 BYTE   W24
 BYTE   N03  Gs0  v116
 BYTE   N04  Gs2  v108
 BYTE   N05  Bn2
 BYTE   N05  Ds3
 BYTE   W12
 BYTE   N03  Gs0  v112
 BYTE   W12
 BYTE   N05  An0
 BYTE   N09  An2  v100
 BYTE   N06  Cs3  v108
 BYTE   N06  En3  v112
 BYTE   W24
// 007   ----------------------------------------
 BYTE   N04  An0
 BYTE   N07  An2  v100
 BYTE   N05  Cs3  v108
 BYTE   N07  En3  v104
 BYTE   W24
 BYTE   N04  An0  v112
 BYTE   N06  An2  v100
 BYTE   N05  Cs3  v112
 BYTE   N06  En3  v108
 BYTE   W24
 BYTE   N05  An0  v116
 BYTE   N04  An2  v104
 BYTE   N04  Cs3  v112
 BYTE   N05  En3  v108
 BYTE   W24
 BYTE   Bn0  v116
 BYTE   N08  Bn2  v096
 BYTE   N06  Ds3  v108
 BYTE   N06  Fs3
 BYTE   W24
// 008   ----------------------------------------
 BYTE   N05  Bn0  v116
 BYTE   N06  Bn2  v100
 BYTE   N06  Ds3  v112
 BYTE   N07  Fs3
 BYTE   W24
 BYTE   N05  Cn1  v120
 BYTE   N06  Cn3  v100
 BYTE   N06  Ds3  v108
 BYTE   N06  Fs3  v112
 BYTE   W24
 BYTE   N04  Cn1  v120
 BYTE   N06  Cn3  v108
 BYTE   N05  Ds3  v116
 BYTE   N06  Fs3  v112
 BYTE   W24
 BYTE   N04  Cs1  v120
 BYTE   N06  Gs2  v108
 BYTE   N06  Cs3  v112
 BYTE   N06  En3  v108
 BYTE   W12
 BYTE   N04  Cs1  v120
 BYTE   W12
// 009   ----------------------------------------
 BYTE   N05  Gs2  v108
 BYTE   N05  Cs3  v112
 BYTE   N05  En3  v108
 BYTE   W12
 BYTE   N03  Cs1  v124
 BYTE   W12
 BYTE   N04  Cs1  v120
 BYTE   N05  Gs2  v108
 BYTE   N05  Cs3  v112
 BYTE   N05  En3  v108
 BYTE   W24
 BYTE   N03  Cs1  v127
 BYTE   N06  Gs2  v112
 BYTE   N04  Cs3
 BYTE   N04  En3
 BYTE   W24
 BYTE   N03  Gs0  v108
 BYTE   N06  Gs2  v104
 BYTE   N06  Bn2  v108
 BYTE   N06  Ds3
 BYTE   W12
 BYTE   N03  Gs0  v116
 BYTE   W12
// 010   ----------------------------------------
 BYTE   N05  Gs2  v108
 BYTE   N04  Bn2
 BYTE   N06  Ds3  v104
 BYTE   W12
 BYTE   N03  Gs0  v112
 BYTE   W12
 BYTE   N03
 BYTE   N05  Gs2
 BYTE   N05  Bn2
 BYTE   N06  Ds3
 BYTE   W24
 BYTE   N04  Gs0  v120
 BYTE   N05  Gs2  v112
 BYTE   N05  Bn2  v108
 BYTE   N07  Ds3  v112
 BYTE   W24
 BYTE   N03  An0  v108
 BYTE   N08  An2  v100
 BYTE   N06  Cs3  v112
 BYTE   N06  En3  v108
 BYTE   W12
 BYTE   N04  An0
 BYTE   W12
// 011   ----------------------------------------
 BYTE   N06  An2  v104
 BYTE   N05  Cs3  v112
 BYTE   N06  En3
 BYTE   W12
 BYTE   N03  An0  v108
 BYTE   W12
 BYTE   N03
 BYTE   N06  An2  v104
 BYTE   N05  Cs3  v112
 BYTE   N06  En3  v108
 BYTE   W24
 BYTE   N04  An0
 BYTE   N06  An2  v104
 BYTE   N06  Cs3  v112
 BYTE   N07  En3
 BYTE   W24
 BYTE   N04  Bn0
 BYTE   N07  An2  v096
 BYTE   N06  Bn2
 BYTE   N06  Cs3
 BYTE   N06  En3  v104
 BYTE   W12
 BYTE   N04  Bn0  v112
 BYTE   W12
// 012   ----------------------------------------
 BYTE   N05  An2  v096
 BYTE   N05  Bn2  v100
 BYTE   N05  Cs3
 BYTE   N05  En3  v104
 BYTE   W12
 BYTE   N03  Bn0  v108
 BYTE   W12
 BYTE   N04
 BYTE   N06  Fs2  v104
 BYTE   N07  Bn2
 BYTE   N06  Ds3
 BYTE   W24
 BYTE   N04  Bn0  v112
 BYTE   N05  Fs2
 BYTE   N05  Bn2  v108
 BYTE   N06  Ds3
 BYTE   W24
 BYTE   N04  Cs1  v112
 BYTE   N07  Gs2  v104
 BYTE   N05  Cs3
 BYTE   N06  En3  v108
 BYTE   W12
 BYTE   N04  Cs1  v112
 BYTE   W12
// 013   ----------------------------------------
 BYTE   N05  Gs2  v108
 BYTE   N04  Cs3
 BYTE   N05  En3
 BYTE   W12
 BYTE   N03  Cs1  v112
 BYTE   W12
 BYTE   N04  Cs1  v120
 BYTE   N05  Gs2  v108
 BYTE   N04  Cs3
 BYTE   N05  En3
 BYTE   W24
 BYTE   Cs1  v116
 BYTE   N06  Gs2  v112
 BYTE   N04  Cs3  v108
 BYTE   N05  En3  v116
 BYTE   W24
 BYTE   N03  Gs0  v112
 BYTE   N05  Gs2  v104
 BYTE   N05  Bn2
 BYTE   N06  Ds3
 BYTE   W12
 BYTE   N03  Gs0  v112
 BYTE   W12
// 014   ----------------------------------------
 BYTE   N06  Gs2  v100
 BYTE   N05  Bn2  v104
 BYTE   N05  Ds3
 BYTE   W12
 BYTE   N03  Gs0  v112
 BYTE   W12
 BYTE   N03
 BYTE   N04  Gs2  v104
 BYTE   N05  Bn2  v108
 BYTE   N05  Ds3  v104
 BYTE   W24
 BYTE   N04  Gs0  v120
 BYTE   N04  Gs2  v108
 BYTE   N05  Bn2
 BYTE   N05  Ds3
 BYTE   W24
 BYTE   N03  An0  v112
 BYTE   N09  An2  v100
 BYTE   N06  Cs3  v108
 BYTE   N06  En3  v112
 BYTE   W12
 BYTE   N04  An0
 BYTE   W12
// 015   ----------------------------------------
 BYTE   N07  An2  v100
 BYTE   N05  Cs3  v108
 BYTE   N07  En3  v104
 BYTE   W12
 BYTE   N04  An0  v108
 BYTE   W12
 BYTE   N04
 BYTE   N06  An2  v100
 BYTE   N05  Cs3  v112
 BYTE   N06  En3  v108
 BYTE   W24
 BYTE   N04  An0  v112
 BYTE   N04  An2  v104
 BYTE   N04  Cs3  v112
 BYTE   N05  En3  v108
 BYTE   W24
 BYTE   N03  Bn0
 BYTE   N08  Bn2  v096
 BYTE   N06  Ds3  v108
 BYTE   N06  Fs3
 BYTE   W12
 BYTE   N04  Bn0  v112
 BYTE   W12
// 016   ----------------------------------------
 BYTE   N06  Bn2  v100
 BYTE   N06  Ds3  v112
 BYTE   N07  Fs3
 BYTE   W12
 BYTE   N04  Bn0
 BYTE   W12
 BYTE   Cn1  v116
 BYTE   N06  Cn3  v100
 BYTE   N06  Ds3  v108
 BYTE   N06  Fs3  v112
 BYTE   W12
 BYTE   N04  Cn1
 BYTE   W12
 BYTE   N06  Cn3  v108
 BYTE   N05  Ds3  v116
 BYTE   N06  Fs3  v112
 BYTE   W12
 BYTE   N04  Cn1  v116
 BYTE   W12
 BYTE   Cs1  v120
 BYTE   N07  Gs2  v112
 BYTE   N07  Cs3
 BYTE   N07  En3  v108
 BYTE   W24
// 017   ----------------------------------------
 BYTE   N04  Cs1  v116
 BYTE   N07  Gs2  v108
 BYTE   N06  Cs3  v112
 BYTE   N07  En3
 BYTE   W24
 BYTE   N03  Cs1  v116
 BYTE   N07  Gs2  v108
 BYTE   N06  Cs3  v112
 BYTE   N07  En3  v108
 BYTE   W12
 BYTE   N04  Cs1  v120
 BYTE   W12
 BYTE   N06  Gs2  v108
 BYTE   N05  Cs3  v112
 BYTE   N06  En3
 BYTE   W12
 BYTE   N04  Cs1  v120
 BYTE   W12
 BYTE   Gs0  v112
 BYTE   N07  Gs2  v108
 BYTE   N06  Bn2
 BYTE   N08  En3  v112
 BYTE   W24
// 018   ----------------------------------------
 BYTE   N04  Gs0  v120
 BYTE   N06  Gs2  v108
 BYTE   N06  Bn2
 BYTE   N07  En3  v112
 BYTE   W24
 BYTE   N03  Gs0  v120
 BYTE   N07  Gs2  v112
 BYTE   N07  Bn2  v108
 BYTE   N08  En3  v112
 BYTE   W24
 BYTE   N03  Gs0  v120
 BYTE   N07  Gs2  v112
 BYTE   N07  Bn2  v108
 BYTE   N08  En3
 BYTE   W24
 BYTE   N04  An0
 BYTE   N09  An2  v104
 BYTE   N06  Cs3  v108
 BYTE   N08  En3  v112
 BYTE   W24
// 019   ----------------------------------------
 BYTE   N04  An0  v116
 BYTE   N08  An2  v104
 BYTE   N05  Cs3
 BYTE   N07  En3  v112
 BYTE   W24
 BYTE   N03  An0  v104
 BYTE   N07  An2
 BYTE   N04  Cs3
 BYTE   N07  En3  v112
 BYTE   W12
 BYTE   N04  An0
 BYTE   W12
 BYTE   N07  An2  v104
 BYTE   N04  Cs3
 BYTE   N06  En3  v112
 BYTE   W12
 BYTE   N03  An0  v108
 BYTE   W12
 BYTE   N04  Gs0  v116
 BYTE   N07  Gs2  v100
 BYTE   N06  Cn3  v112
 BYTE   N06  Ds3  v108
 BYTE   W24
// 020   ----------------------------------------
 BYTE   N04  Gs0  v116
 BYTE   N07  Gs2  v108
 BYTE   N06  Cn3  v112
 BYTE   N07  Ds3  v108
 BYTE   W24
 BYTE   N03  Gs0  v120
 BYTE   N07  Gs2  v108
 BYTE   N06  Cn3  v116
 BYTE   N07  Ds3  v108
 BYTE   W24
 BYTE   N04  Gs0  v120
 BYTE   N06  Gs2  v104
 BYTE   N06  Cn3  v112
 BYTE   N07  Ds3  v108
 BYTE   W24
 BYTE   N04  Cs1  v112
 BYTE   N07  Gs2  v108
 BYTE   N07  Cs3  v112
 BYTE   N08  En3  v108
 BYTE   W24
// 021   ----------------------------------------
 BYTE   N04  Cs1  v120
 BYTE   N07  Gs2  v108
 BYTE   N05  Cs3
 BYTE   N08  En3  v112
 BYTE   W24
 BYTE   N03  Cs1  v116
 BYTE   N06  Gs2  v108
 BYTE   N06  Cs3
 BYTE   N07  En3
 BYTE   W12
 BYTE   N04  Cs1  v116
 BYTE   W12
 BYTE   N07  Gs2  v108
 BYTE   N05  Cs3  v112
 BYTE   N07  En3  v108
 BYTE   W12
 BYTE   N04  Cs1  v116
 BYTE   W12
 BYTE   Gs0  v112
 BYTE   N07  Gs2  v108
 BYTE   N06  Bn2
 BYTE   N07  Ds3  v112
 BYTE   W24
// 022   ----------------------------------------
 BYTE   N04  Gs0  v120
 BYTE   N07  Gs2  v108
 BYTE   N07  Bn2
 BYTE   N06  Ds3
 BYTE   W24
 BYTE   N03  Gs0  v120
 BYTE   N08  Gs2  v104
 BYTE   N08  Bn2  v108
 BYTE   N07  Ds3
 BYTE   W24
 BYTE   N04  Gs0  v120
 BYTE   N07  Gs2  v108
 BYTE   N08  Bn2
 BYTE   N06  Ds3
 BYTE   W24
 BYTE   N04  An0  v112
 BYTE   N08  An2  v100
 BYTE   N06  Cs3  v108
 BYTE   N07  En3  v112
 BYTE   W24
// 023   ----------------------------------------
 BYTE   N04  An0  v116
 BYTE   N09  An2  v096
 BYTE   N08  Cs3  v108
 BYTE   N08  En3  v104
 BYTE   W24
 BYTE   N04  An0  v108
 BYTE   N08  An2  v104
 BYTE   N08  Cs3  v112
 BYTE   N08  En3  v108
 BYTE   W12
 BYTE   N03  An0
 BYTE   W12
 BYTE   N07  An2  v100
 BYTE   N07  Cs3  v104
 BYTE   N07  En3  v108
 BYTE   W12
 BYTE   N04  An0
 BYTE   W12
 BYTE   Bn0
 BYTE   N08  Gs2
 BYTE   N07  Bn2
 BYTE   N08  En3
 BYTE   W24
// 024   ----------------------------------------
 BYTE   N04  Bn0  v112
 BYTE   N07  Gs2  v104
 BYTE   N07  Bn2
 BYTE   N09  En3  v108
 BYTE   W24
 BYTE   N04  Bn0
 BYTE   N11  Fs2  v104
 BYTE   N08  Bn2
 BYTE   N10  En3  v108
 BYTE   W24
 BYTE   N04  Bn0  v112
 BYTE   N07  Fs2  v096
 BYTE   N07  Bn2  v104
 BYTE   N08  En3  v108
 BYTE   W24
 BYTE   N04  Cs1  v120
 BYTE   N04  Gs2  v108
 BYTE   N04  Cs3  v112
 BYTE   N05  En3  v108
 BYTE   W12
 BYTE   N04  Cs1  v120
 BYTE   W12
// 025   ----------------------------------------
 BYTE   Gs2  v108
 BYTE   N03  Cs3  v112
 BYTE   N05  En3
 BYTE   W12
 BYTE   N03  Cs1  v124
 BYTE   W12
 BYTE   N04  Cs1  v120
 BYTE   N04  Gs2  v108
 BYTE   N03  Cs3  v112
 BYTE   N05  En3
 BYTE   W24
 BYTE   N03  Cs1  v127
 BYTE   N04  Gs2  v112
 BYTE   N03  Cs3
 BYTE   N05  En3
 BYTE   W24
 BYTE   N04  Cs1  v120
 BYTE   N03  Gs2  v112
 BYTE   N03  Cs3  v116
 BYTE   N05  En3  v112
 BYTE   W12
 BYTE   N04  Cs1  v120
 BYTE   W12
// 026   ----------------------------------------
 BYTE   N03  Gs2  v112
 BYTE   N03  Cs3
 BYTE   N04  En3
 BYTE   W12
 BYTE   N03  Cs1  v124
 BYTE   W12
 BYTE   GoTo
  POIN2 Label_6_01D0605F
// 027   ----------------------------------------
 BYTE   N04  Cs1  v120
 BYTE   N04  Gs2  v112
 BYTE   N03  Cs3
 BYTE   N05  En3
 BYTE   W24
 BYTE   N03  Cs1  v127
 BYTE   N04  Gs2  v112
 BYTE   N03  Cs3  v116
 BYTE   N05  En3  v112
 BYTE   W23
 BYTE   FINE

//**************** Track 8 (Midi-Chn.7) ****************//

TRSBerwickSagaDepartureRSflame_008:
// 000   ----------------------------------------
 BYTE   KEYSH   TRSBerwickSagaDepartureRSflame_key+0
 BYTE   W02
 BYTE   VOICE   45
 BYTE   MOD 0
 BYTE   CnM2
 BYTE   VOL   46*TRSBerwickSagaDepartureRSflame_mvl/mxv
 BYTE   PAN   c_v+24
 BYTE   BEND   c_v+0
 BYTE   W68
 BYTE   W02
Label_7_01D0470B:
 BYTE   W24
// 001   ----------------------------------------
 BYTE   W96
// 002   ----------------------------------------
 BYTE   W96
// 003   ----------------------------------------
 BYTE   W96
// 004   ----------------------------------------
 BYTE   W96
// 005   ----------------------------------------
 BYTE   W96
// 006   ----------------------------------------
 BYTE   W96
// 007   ----------------------------------------
 BYTE   W96
// 008   ----------------------------------------
 BYTE   W96
// 009   ----------------------------------------
 BYTE   W96
// 010   ----------------------------------------
 BYTE   W96
// 011   ----------------------------------------
 BYTE   W96
// 012   ----------------------------------------
 BYTE   W96
// 013   ----------------------------------------
 BYTE   W96
// 014   ----------------------------------------
 BYTE   W96
// 015   ----------------------------------------
 BYTE   W96
// 016   ----------------------------------------
 BYTE   W72
 BYTE   N04  Gs2  v116
 BYTE   W12
 BYTE   Cs3  v120
 BYTE   W12
// 017   ----------------------------------------
 BYTE   N05  En3  v112
 BYTE   W12
 BYTE   N06  Gs2  v120
 BYTE   W12
 BYTE   N04  Cs3  v116
 BYTE   W12
 BYTE   N05  En3  v112
 BYTE   W12
 BYTE   N04  Gs2  v120
 BYTE   W12
 BYTE   N03  Cs3
 BYTE   W12
 BYTE   N07  Gs2  v124
 BYTE   W12
 BYTE   N05  Bn2  v112
 BYTE   W12
// 018   ----------------------------------------
 BYTE   En3  v116
 BYTE   W12
 BYTE   N06  Gs2  v120
 BYTE   W12
 BYTE   N05  Bn2  v108
 BYTE   W12
 BYTE   En3  v112
 BYTE   W12
 BYTE   Gs2  v120
 BYTE   W12
 BYTE   N04  Bn2  v108
 BYTE   W12
 BYTE   N06  An2  v116
 BYTE   W12
 BYTE   N04  Cs3
 BYTE   W12
// 019   ----------------------------------------
 BYTE   N05  En3
 BYTE   W12
 BYTE   An2  v112
 BYTE   W12
 BYTE   N04  Cs3  v120
 BYTE   W12
 BYTE   N06  En3  v116
 BYTE   W12
 BYTE   N05  An2  v112
 BYTE   W12
 BYTE   N03  Cs3  v120
 BYTE   W12
 BYTE   N06  Gs2
 BYTE   W12
 BYTE   N05  Cn3  v116
 BYTE   W12
// 020   ----------------------------------------
 BYTE   N04  Ds3
 BYTE   W12
 BYTE   N06  Gs2  v120
 BYTE   W12
 BYTE   N05  Cn3  v116
 BYTE   W12
 BYTE   N04  Ds3  v120
 BYTE   W12
 BYTE   N05  Gs2
 BYTE   W12
 BYTE   N04  Cn3
 BYTE   W12
 BYTE   N08  Gs2  v116
 BYTE   W12
 BYTE   N04  Cs3  v120
 BYTE   W12
// 021   ----------------------------------------
 BYTE   N05  En3  v112
 BYTE   W12
 BYTE   N06  Gs2  v120
 BYTE   W12
 BYTE   N04  Cs3
 BYTE   W12
 BYTE   N06  En3  v112
 BYTE   W12
 BYTE   N05  Gs2  v120
 BYTE   W12
 BYTE   N03  Cs3  v116
 BYTE   W12
 BYTE   N08  Gs2  v120
 BYTE   W12
 BYTE   N05  Bn2  v104
 BYTE   W12
// 022   ----------------------------------------
 BYTE   Ds3  v116
 BYTE   W12
 BYTE   Gs2  v120
 BYTE   W12
 BYTE   Bn2  v104
 BYTE   W12
 BYTE   Ds3  v112
 BYTE   W12
 BYTE   N04  Gs2  v116
 BYTE   W12
 BYTE   N03  Bn2  v108
 BYTE   W12
 BYTE   N07  An2  v112
 BYTE   W12
 BYTE   N04  Cs3  v116
 BYTE   W12
// 023   ----------------------------------------
 BYTE   N05  En3  v112
 BYTE   W12
 BYTE   N07  An2  v108
 BYTE   W12
 BYTE   N04  Cs3  v116
 BYTE   W12
 BYTE   N05  En3  v112
 BYTE   W12
 BYTE   N06  An2  v108
 BYTE   W12
 BYTE   N03  Cs3  v116
 BYTE   W12
 BYTE   N07  Gs2  v120
 BYTE   W12
 BYTE   Bn2  v104
 BYTE   W12
// 024   ----------------------------------------
 BYTE   N05  En3  v116
 BYTE   W12
 BYTE   N06  Gs2  v120
 BYTE   W12
 BYTE   N07  Fs2
 BYTE   W12
 BYTE   N06  Bn2  v108
 BYTE   W12
 BYTE   N04  Ds3  v116
 BYTE   W12
 BYTE   N05  Fs2  v120
 BYTE   W12
 BYTE   N07  Gs2
 BYTE   W12
 BYTE   N05  Cs3  v116
 BYTE   W12
// 025   ----------------------------------------
 BYTE   N06  En3  v112
 BYTE   W12
 BYTE   N05  Gs2  v120
 BYTE   W12
 BYTE   Cs3  v116
 BYTE   W12
 BYTE   N06  En3  v112
 BYTE   W12
 BYTE   Gs2  v116
 BYTE   W12
 BYTE   N04  Cs3  v112
 BYTE   W12
 BYTE   N05  Gs2  v120
 BYTE   W12
 BYTE   Cs3  v112
 BYTE   W12
// 026   ----------------------------------------
 BYTE   N07  En3  v108
 BYTE   W12
 BYTE   N06  Gs2  v120
 BYTE   W12
 BYTE   GoTo
  POIN2 Label_7_01D0470B
// 027   ----------------------------------------
 BYTE   N04  Cs3  v112
 BYTE   W12
 BYTE   N05  En3
 BYTE   W12
 BYTE   N04  Gs2  v120
 BYTE   W12
 BYTE   N03  Cs3  v116
 BYTE   W11
 BYTE   FINE

//**************** Track 9 (Midi-Chn.8) ****************//

TRSBerwickSagaDepartureRSflame_009:
// 000   ----------------------------------------
 BYTE   KEYSH   TRSBerwickSagaDepartureRSflame_key+0
 BYTE   VOICE   127
 BYTE   W03
 BYTE   MOD 0
 BYTE   CnM2
 BYTE   W01
 BYTE   VOL   34*TRSBerwickSagaDepartureRSflame_mvl/mxv
 BYTE   PAN   c_v-7
 BYTE   BEND   c_v+0
 BYTE   W68
Label_8_01D0527F:
 BYTE   N11  Cs1  v120
 BYTE   N11  Dn1  v112
 BYTE   W12
 BYTE   Cs1  v084
 BYTE   N11  Dn1  v076
 BYTE   W12
// 001   ----------------------------------------
Label_8_01D0528C:
 BYTE   N11  Cs1  v116
 BYTE   N11  Dn1  v108
 BYTE   W12
 BYTE   Cs1  v084
 BYTE   N11  Dn1  v076
 BYTE   W12
 BYTE   Cs1  v116
 BYTE   N11  Dn1  v108
 BYTE   W12
 BYTE   N05  Cs1  v100
 BYTE   N05  Dn1  v088
 BYTE   W06
 BYTE   Cs1  v100
 BYTE   N05  Dn1  v088
 BYTE   W06
 BYTE   N11  Cs1  v120
 BYTE   N11  Dn1  v112
 BYTE   W12
 BYTE   Cs1  v084
 BYTE   N11  Dn1  v076
 BYTE   W12
 BYTE   Cs1  v116
 BYTE   N11  Dn1  v108
 BYTE   W12
 BYTE   Cs1  v084
 BYTE   N11  Dn1  v076
 BYTE   W12
 BYTE   PEND 
// 002   ----------------------------------------
Label_8_01D052C6:
 BYTE   N11  Cs1  v116
 BYTE   N11  Dn1  v112
 BYTE   W12
 BYTE   Cs1  v088
 BYTE   N11  Dn1  v076
 BYTE   W12
 BYTE   Cs1  v116
 BYTE   N11  Dn1  v108
 BYTE   W12
 BYTE   N04  Cs1  v096
 BYTE   N04  Dn1  v084
 BYTE   W04
 BYTE   N03  Cs1  v104
 BYTE   N03  Dn1  v092
 BYTE   W04
 BYTE   Cs1  v108
 BYTE   N03  Dn1  v100
 BYTE   W04
 BYTE   N11  Cs1  v120
 BYTE   N11  Dn1  v112
 BYTE   W12
 BYTE   Cs1  v084
 BYTE   N11  Dn1  v072
 BYTE   W12
 BYTE   Cs1  v120
 BYTE   N11  Dn1  v112
 BYTE   W12
 BYTE   Cs1  v084
 BYTE   N11  Dn1  v076
 BYTE   W12
 BYTE   PEND 
// 003   ----------------------------------------
 BYTE   PATT
  POIN2 Label_8_01D0528C
// 004   ----------------------------------------
 BYTE   PATT
  POIN2 Label_8_01D052C6
// 005   ----------------------------------------
 BYTE   PATT
  POIN2 Label_8_01D0528C
// 006   ----------------------------------------
 BYTE   PATT
  POIN2 Label_8_01D052C6
// 007   ----------------------------------------
 BYTE   PATT
  POIN2 Label_8_01D0528C
// 008   ----------------------------------------
 BYTE   N11  Cs1  v116
 BYTE   N11  Dn1  v112
 BYTE   W12
 BYTE   Cs1  v088
 BYTE   N11  Dn1  v076
 BYTE   W12
 BYTE   Cs1  v116
 BYTE   N11  Dn1  v108
 BYTE   W12
 BYTE   N04  Cs1  v096
 BYTE   N04  Dn1  v084
 BYTE   W04
 BYTE   N03  Cs1  v104
 BYTE   N03  Dn1  v092
 BYTE   W04
 BYTE   Cs1  v108
 BYTE   N03  Dn1  v100
 BYTE   W04
 BYTE   N11  Cs1  v120
 BYTE   N11  Dn1  v112
 BYTE   W12
 BYTE   Cs1  v084
 BYTE   N11  Dn1  v072
 BYTE   W12
 BYTE   Cs1  v120
 BYTE   N11  Dn1  v112
 BYTE   W12
 BYTE   N23  Cs1  v120
 BYTE   N23  Dn1  v116
 BYTE   W12
// 009   ----------------------------------------
 BYTE   W12
 BYTE   N11  Cs1
 BYTE   N11  Dn1  v112
 BYTE   W12
 BYTE   N23  Cs1  v120
 BYTE   N23  Dn1  v116
 BYTE   W24
 BYTE   Cs1  v120
 BYTE   N23  Dn1  v112
 BYTE   W24
 BYTE   N11  Cs1  v120
 BYTE   N11  Dn1  v112
 BYTE   W12
 BYTE   N23  Cs1  v120
 BYTE   N23  Dn1  v116
 BYTE   W12
// 010   ----------------------------------------
 BYTE   W12
 BYTE   N11  Cs1  v120
 BYTE   N11  Dn1  v112
 BYTE   W12
 BYTE   N23  Cs1  v120
 BYTE   N23  Dn1  v116
 BYTE   W24
 BYTE   Cs1  v120
 BYTE   N23  Dn1  v112
 BYTE   W24
 BYTE   N11  Cs1  v120
 BYTE   N11  Dn1  v112
 BYTE   W12
 BYTE   N23  Cs1  v120
 BYTE   N23  Dn1  v112
 BYTE   W12
// 011   ----------------------------------------
 BYTE   W12
 BYTE   N11  Cs1  v116
 BYTE   N11  Dn1  v108
 BYTE   W12
 BYTE   N23  Cs1  v120
 BYTE   N23  Dn1  v112
 BYTE   W24
 BYTE   Cs1  v120
 BYTE   N23  Dn1  v112
 BYTE   W24
 BYTE   N11  Cs1  v116
 BYTE   N11  Dn1  v108
 BYTE   W12
 BYTE   N23  Cs1  v120
 BYTE   N23  Dn1  v112
 BYTE   W12
// 012   ----------------------------------------
 BYTE   W12
 BYTE   N11  Cs1  v116
 BYTE   N11  Dn1  v112
 BYTE   W12
 BYTE   N23  Cs1  v124
 BYTE   N23  Dn1  v116
 BYTE   W24
 BYTE   Cs1  v120
 BYTE   N23  Dn1  v112
 BYTE   W24
 BYTE   N11  Cs1  v116
 BYTE   N11  Dn1  v112
 BYTE   W12
 BYTE   N23  Cs1  v116
 BYTE   N23  Dn1  v108
 BYTE   W12
// 013   ----------------------------------------
 BYTE   W12
 BYTE   N11  Cs1  v112
 BYTE   N11  Dn1  v108
 BYTE   W12
 BYTE   N23  Cs1  v116
 BYTE   N23  Dn1  v108
 BYTE   W24
 BYTE   Cs1  v120
 BYTE   N23  Dn1  v112
 BYTE   W24
 BYTE   N11  Cs1  v116
 BYTE   N11  Dn1  v112
 BYTE   W12
 BYTE   N23  Cs1  v116
 BYTE   N23  Dn1  v108
 BYTE   W12
// 014   ----------------------------------------
 BYTE   W12
 BYTE   N11  Cs1  v116
 BYTE   N11  Dn1  v112
 BYTE   W12
 BYTE   N23  Cs1  v120
 BYTE   N23  Dn1  v112
 BYTE   W24
 BYTE   Cs1  v120
 BYTE   N23  Dn1  v116
 BYTE   W24
 BYTE   N11  Cs1  v112
 BYTE   N11  Dn1  v108
 BYTE   W12
 BYTE   N23  Cs1  v116
 BYTE   N23  Dn1  v112
 BYTE   W12
// 015   ----------------------------------------
 BYTE   W12
 BYTE   N11  Cs1  v116
 BYTE   N11  Dn1  v108
 BYTE   W12
 BYTE   N23  Cs1  v120
 BYTE   N23  Dn1  v112
 BYTE   W24
 BYTE   Cs1  v120
 BYTE   N23  Dn1  v112
 BYTE   W24
 BYTE   N11  Cs1
 BYTE   N11  Dn1  v104
 BYTE   W12
 BYTE   N23  Cs1  v120
 BYTE   N23  Dn1  v116
 BYTE   W12
// 016   ----------------------------------------
 BYTE   W12
 BYTE   N11  Cs1  v120
 BYTE   N11  Dn1  v112
 BYTE   W12
 BYTE   N23  Cs1  v124
 BYTE   N23  Dn1  v116
 BYTE   W24
 BYTE   Cs1
 BYTE   N23  Dn1  v112
 BYTE   W24
 BYTE   Cs1  v127
 BYTE   N23  Dn1  v120
 BYTE   W24
// 017   ----------------------------------------
 BYTE   N11  Cs1  v124
 BYTE   N11  Dn1  v120
 BYTE   W12
 BYTE   N05  Cs1  v084
 BYTE   N05  Dn1  v076
 BYTE   W06
 BYTE   Cs1  v104
 BYTE   N05  Dn1  v096
 BYTE   W06
 BYTE   N23  Cs1  v116
 BYTE   N23  Dn1  v108
 BYTE   W24
 BYTE   N05  Cs1  v120
 BYTE   N05  Dn1  v116
 BYTE   W06
 BYTE   Cs1  v096
 BYTE   N05  Dn1  v088
 BYTE   W06
 BYTE   Cs1  v104
 BYTE   N05  Dn1  v096
 BYTE   W06
 BYTE   Cs1  v104
 BYTE   N05  Dn1  v092
 BYTE   W06
 BYTE   N23  Cs1  v120
 BYTE   N23  Dn1  v112
 BYTE   W24
// 018   ----------------------------------------
 BYTE   N11  Cs1  v127
 BYTE   N11  Dn1  v120
 BYTE   W12
 BYTE   N05  Cs1  v096
 BYTE   N05  Dn1  v088
 BYTE   W06
 BYTE   Cs1  v108
 BYTE   N05  Dn1  v100
 BYTE   W06
 BYTE   N11  Cs1  v116
 BYTE   N11  Dn1  v108
 BYTE   W12
 BYTE   N05  Cs1  v112
 BYTE   N05  Dn1  v108
 BYTE   W06
 BYTE   Cs1  v116
 BYTE   N05  Dn1  v108
 BYTE   W06
 BYTE   Cs1  v116
 BYTE   N05  Dn1  v112
 BYTE   W06
 BYTE   Cs1  v104
 BYTE   N05  Dn1  v096
 BYTE   W06
 BYTE   Cs1  v112
 BYTE   N05  Dn1  v104
 BYTE   W06
 BYTE   Cs1  v108
 BYTE   N05  Dn1  v100
 BYTE   W06
 BYTE   N23  Cs1  v116
 BYTE   N23  Dn1  v112
 BYTE   W24
// 019   ----------------------------------------
 BYTE   Cs1  v127
 BYTE   N23  Dn1  v120
 BYTE   W24
 BYTE   Cs1  v127
 BYTE   N23  Dn1  v120
 BYTE   W24
 BYTE   N05  Cs1
 BYTE   N05  Dn1  v112
 BYTE   W06
 BYTE   Cs1  v104
 BYTE   N05  Dn1  v096
 BYTE   W06
 BYTE   Cs1  v112
 BYTE   N05  Dn1  v104
 BYTE   W06
 BYTE   Cs1
 BYTE   N05  Dn1  v096
 BYTE   W06
 BYTE   N23  Cs1  v124
 BYTE   N23  Dn1  v120
 BYTE   W24
// 020   ----------------------------------------
 BYTE   N11  Cs1
 BYTE   N11  Dn1  v116
 BYTE   W12
 BYTE   N05  Cs1  v108
 BYTE   N05  Dn1  v100
 BYTE   W06
 BYTE   Cs1  v112
 BYTE   N05  Dn1  v104
 BYTE   W06
 BYTE   N11  Cs1  v116
 BYTE   N11  Dn1  v108
 BYTE   W12
 BYTE   N05  Cs1  v112
 BYTE   N05  Dn1  v108
 BYTE   W06
 BYTE   Cs1  v112
 BYTE   N05  Dn1  v104
 BYTE   W06
 BYTE   Cs1  v116
 BYTE   N05  Dn1  v108
 BYTE   W06
 BYTE   Cs1  v112
 BYTE   N05  Dn1  v104
 BYTE   W06
 BYTE   Cs1
 BYTE   N05  Dn1  v096
 BYTE   W06
 BYTE   Cs1  v108
 BYTE   N05  Dn1  v100
 BYTE   W06
 BYTE   N23  Cs1  v120
 BYTE   N23  Dn1  v112
 BYTE   W24
// 021   ----------------------------------------
 BYTE   Cs1  v120
 BYTE   N23  Dn1  v116
 BYTE   W24
 BYTE   N11  Cs1  v127
 BYTE   N11  Dn1  v120
 BYTE   W12
 BYTE   Cs1  v096
 BYTE   N11  Dn1  v088
 BYTE   W12
 BYTE   N05  Cs1  v116
 BYTE   N05  Dn1  v108
 BYTE   W06
 BYTE   Cs1  v096
 BYTE   N05  Dn1  v088
 BYTE   W06
 BYTE   Cs1  v112
 BYTE   N05  Dn1  v104
 BYTE   W06
 BYTE   Cs1
 BYTE   N05  Dn1  v096
 BYTE   W06
 BYTE   N23  Cs1  v120
 BYTE   N23  Dn1  v112
 BYTE   W24
// 022   ----------------------------------------
 BYTE   N11  Cs1  v120
 BYTE   N11  Dn1  v112
 BYTE   W12
 BYTE   N05  Cs1
 BYTE   N05  Dn1  v104
 BYTE   W06
 BYTE   Cs1  v116
 BYTE   N05  Dn1  v112
 BYTE   W06
 BYTE   N11  Cs1  v120
 BYTE   N11  Dn1  v112
 BYTE   W12
 BYTE   N05  Cs1  v116
 BYTE   N05  Dn1  v108
 BYTE   W06
 BYTE   Cs1  v116
 BYTE   N05  Dn1  v108
 BYTE   W06
 BYTE   Cs1  v116
 BYTE   N05  Dn1  v112
 BYTE   W06
 BYTE   Cs1
 BYTE   N05  Dn1  v104
 BYTE   W06
 BYTE   Cs1  v112
 BYTE   N05  Dn1  v104
 BYTE   W06
 BYTE   Cs1  v108
 BYTE   N05  Dn1  v100
 BYTE   W06
 BYTE   N23  Cs1  v127
 BYTE   N23  Dn1  v120
 BYTE   W24
// 023   ----------------------------------------
 BYTE   Cs1  v127
 BYTE   N23  Dn1  v120
 BYTE   W24
 BYTE   Cs1  v124
 BYTE   N23  Dn1  v120
 BYTE   W24
 BYTE   N05  Cs1
 BYTE   N05  Dn1  v112
 BYTE   W06
 BYTE   Cs1  v092
 BYTE   N05  Dn1  v080
 BYTE   W06
 BYTE   Cs1  v112
 BYTE   N05  Dn1  v104
 BYTE   W06
 BYTE   Cs1
 BYTE   N05  Dn1  v092
 BYTE   W06
 BYTE   N23  Cs1  v124
 BYTE   N23  Dn1  v116
 BYTE   W24
// 024   ----------------------------------------
 BYTE   Cs1  v124
 BYTE   N23  Dn1  v116
 BYTE   W24
 BYTE   N05  Cs1  v120
 BYTE   N05  Dn1  v112
 BYTE   W06
 BYTE   Cs1  v096
 BYTE   N05  Dn1  v088
 BYTE   W06
 BYTE   Cs1  v100
 BYTE   N05  Dn1  v092
 BYTE   W06
 BYTE   Cs1  v108
 BYTE   N05  Dn1  v100
 BYTE   W06
 BYTE   N23  Cs1  v124
 BYTE   N23  Dn1  v116
 BYTE   W24
 BYTE   N11  Cs1  v120
 BYTE   N11  Dn1  v112
 BYTE   W12
 BYTE   Cs1  v084
 BYTE   N11  Dn1  v076
 BYTE   W12
// 025   ----------------------------------------
 BYTE   PATT
  POIN2 Label_8_01D0528C
// 026   ----------------------------------------
 BYTE   N11  Cs1  v116
 BYTE   N11  Dn1  v112
 BYTE   W12
 BYTE   Cs1  v088
 BYTE   N11  Dn1  v076
 BYTE   W12
 BYTE   GoTo
  POIN2 Label_8_01D0527F
// 027   ----------------------------------------
 BYTE   N11  Cs1  v116
 BYTE   N11  Dn1  v108
 BYTE   W12
 BYTE   N04  Cs1  v096
 BYTE   N04  Dn1  v084
 BYTE   W04
 BYTE   N03  Cs1  v104
 BYTE   N03  Dn1  v092
 BYTE   W04
 BYTE   Cs1  v108
 BYTE   N03  Dn1  v100
 BYTE   W04
 BYTE   N11  Cs1  v120
 BYTE   N11  Dn1  v112
 BYTE   W12
 BYTE   N10  Cs1  v084
 BYTE   N10  Dn1  v072
 BYTE   W11
 BYTE   FINE

//**************** Track 10 (Midi-Chn.9) ****************//

TRSBerwickSagaDepartureRSflame_010:
// 000   ----------------------------------------
 BYTE   KEYSH   TRSBerwickSagaDepartureRSflame_key+0
 BYTE   W03
 BYTE   VOICE   41
 BYTE   MOD 0
 BYTE   CnM2
 BYTE   VOL   62*TRSBerwickSagaDepartureRSflame_mvl/mxv
 BYTE   PAN   c_v+24
 BYTE   BEND   c_v+0
 BYTE   W68
 BYTE   W01
Label_9_01D059B7:
 BYTE   N04  Cs1  v120
 BYTE   N06  Gs2  v108
 BYTE   N06  Cs3  v112
 BYTE   N06  En3  v108
 BYTE   W24
// 001   ----------------------------------------
 BYTE   N04  Cs1  v124
 BYTE   N05  Gs2  v108
 BYTE   N05  Cs3  v112
 BYTE   N05  En3  v108
 BYTE   W24
 BYTE   N04  Cs1  v124
 BYTE   N05  Gs2  v108
 BYTE   N05  Cs3  v112
 BYTE   N05  En3  v108
 BYTE   W24
 BYTE   N04  Cs1  v127
 BYTE   N06  Gs2  v112
 BYTE   N04  Cs3
 BYTE   N04  En3
 BYTE   W24
 BYTE   Gs0  v120
 BYTE   N06  Gs2  v104
 BYTE   N06  Bn2  v108
 BYTE   N06  Ds3
 BYTE   W24
// 002   ----------------------------------------
 BYTE   N04  Gs0  v124
 BYTE   N05  Gs2  v108
 BYTE   N04  Bn2
 BYTE   N06  Ds3  v104
 BYTE   W24
 BYTE   N04  Gs0  v120
 BYTE   N05  Gs2  v112
 BYTE   N05  Bn2
 BYTE   N06  Ds3
 BYTE   W24
 BYTE   N03  Gs0  v120
 BYTE   N05  Gs2  v112
 BYTE   N05  Bn2  v108
 BYTE   N07  Ds3  v112
 BYTE   W12
 BYTE   N03  Gs0  v120
 BYTE   W12
 BYTE   N05  An0  v100
 BYTE   N08  An2
 BYTE   N06  Cs3  v112
 BYTE   N06  En3  v108
 BYTE   W24
// 003   ----------------------------------------
 BYTE   N04  An0  v116
 BYTE   N06  An2  v104
 BYTE   N05  Cs3  v112
 BYTE   N06  En3
 BYTE   W24
 BYTE   N04  An0  v116
 BYTE   N06  An2  v104
 BYTE   N05  Cs3  v112
 BYTE   N06  En3  v108
 BYTE   W24
 BYTE   N05  An0  v116
 BYTE   N06  An2  v104
 BYTE   N06  Cs3  v112
 BYTE   N07  En3
 BYTE   W24
 BYTE   N05  Bn0
 BYTE   N07  An2  v096
 BYTE   N06  Bn2
 BYTE   N06  Cs3
 BYTE   N06  En3  v104
 BYTE   W24
// 004   ----------------------------------------
 BYTE   N04  Bn0  v116
 BYTE   N05  An2  v096
 BYTE   N05  Bn2  v100
 BYTE   N05  Cs3
 BYTE   N05  En3  v104
 BYTE   W24
 BYTE   N04  Bn0  v116
 BYTE   N06  Fs2  v104
 BYTE   N07  Bn2
 BYTE   N06  Ds3
 BYTE   W24
 BYTE   N04  Bn0  v108
 BYTE   N05  Fs2  v112
 BYTE   N05  Bn2  v108
 BYTE   N06  Ds3
 BYTE   W12
 BYTE   N04  Bn0  v120
 BYTE   W12
 BYTE   Cs1
 BYTE   N07  Gs2  v104
 BYTE   N05  Cs3
 BYTE   N06  En3  v108
 BYTE   W24
// 005   ----------------------------------------
 BYTE   N04  Cs1  v124
 BYTE   N05  Gs2  v108
 BYTE   N04  Cs3
 BYTE   N05  En3
 BYTE   W24
 BYTE   N04  Cs1  v124
 BYTE   N05  Gs2  v108
 BYTE   N04  Cs3
 BYTE   N05  En3
 BYTE   W24
 BYTE   N04  Cs1  v124
 BYTE   N06  Gs2  v112
 BYTE   N04  Cs3  v108
 BYTE   N05  En3  v116
 BYTE   W24
 BYTE   N04  Gs0  v120
 BYTE   N05  Gs2  v104
 BYTE   N05  Bn2
 BYTE   N06  Ds3
 BYTE   W24
// 006   ----------------------------------------
 BYTE   N04  Gs0  v120
 BYTE   N06  Gs2  v100
 BYTE   N05  Bn2  v104
 BYTE   N05  Ds3
 BYTE   W24
 BYTE   N03  Gs0  v120
 BYTE   N04  Gs2  v104
 BYTE   N05  Bn2  v108
 BYTE   N05  Ds3  v104
 BYTE   W24
 BYTE   N03  Gs0  v116
 BYTE   N04  Gs2  v108
 BYTE   N05  Bn2
 BYTE   N05  Ds3
 BYTE   W12
 BYTE   N03  Gs0  v112
 BYTE   W12
 BYTE   N05  An0
 BYTE   N09  An2  v100
 BYTE   N06  Cs3  v108
 BYTE   N06  En3  v112
 BYTE   W24
// 007   ----------------------------------------
 BYTE   N04  An0
 BYTE   N07  An2  v100
 BYTE   N05  Cs3  v108
 BYTE   N07  En3  v104
 BYTE   W24
 BYTE   N04  An0  v112
 BYTE   N06  An2  v100
 BYTE   N05  Cs3  v112
 BYTE   N06  En3  v108
 BYTE   W24
 BYTE   N05  An0  v116
 BYTE   N04  An2  v104
 BYTE   N04  Cs3  v112
 BYTE   N05  En3  v108
 BYTE   W24
 BYTE   Bn0  v116
 BYTE   N08  Bn2  v096
 BYTE   N06  Ds3  v108
 BYTE   N06  Fs3
 BYTE   W24
// 008   ----------------------------------------
 BYTE   N05  Bn0  v116
 BYTE   N06  Bn2  v100
 BYTE   N06  Ds3  v112
 BYTE   N07  Fs3
 BYTE   W24
 BYTE   N05  Cn1  v120
 BYTE   N06  Cn3  v100
 BYTE   N06  Ds3  v108
 BYTE   N06  Fs3  v112
 BYTE   W24
 BYTE   N04  Cn1  v120
 BYTE   N06  Cn3  v108
 BYTE   N05  Ds3  v116
 BYTE   N06  Fs3  v112
 BYTE   W24
 BYTE   N04  Cs1  v120
 BYTE   N06  Gs2  v108
 BYTE   N06  Cs3  v112
 BYTE   N06  En3  v108
 BYTE   W12
 BYTE   N04  Cs1  v120
 BYTE   W12
// 009   ----------------------------------------
 BYTE   N05  Gs2  v108
 BYTE   N05  Cs3  v112
 BYTE   N05  En3  v108
 BYTE   W12
 BYTE   N03  Cs1  v124
 BYTE   W12
 BYTE   N04  Cs1  v120
 BYTE   N05  Gs2  v108
 BYTE   N05  Cs3  v112
 BYTE   N05  En3  v108
 BYTE   W24
 BYTE   N03  Cs1  v127
 BYTE   N06  Gs2  v112
 BYTE   N04  Cs3
 BYTE   N04  En3
 BYTE   W24
 BYTE   N03  Gs0  v108
 BYTE   N06  Gs2  v104
 BYTE   N06  Bn2  v108
 BYTE   N06  Ds3
 BYTE   W12
 BYTE   N03  Gs0  v116
 BYTE   W12
// 010   ----------------------------------------
 BYTE   N05  Gs2  v108
 BYTE   N04  Bn2
 BYTE   N06  Ds3  v104
 BYTE   W12
 BYTE   N03  Gs0  v112
 BYTE   W12
 BYTE   N03
 BYTE   N05  Gs2
 BYTE   N05  Bn2
 BYTE   N06  Ds3
 BYTE   W24
 BYTE   N04  Gs0  v120
 BYTE   N05  Gs2  v112
 BYTE   N05  Bn2  v108
 BYTE   N07  Ds3  v112
 BYTE   W24
 BYTE   N03  An0  v108
 BYTE   N08  An2  v100
 BYTE   N06  Cs3  v112
 BYTE   N06  En3  v108
 BYTE   W12
 BYTE   N04  An0
 BYTE   W12
// 011   ----------------------------------------
 BYTE   N06  An2  v104
 BYTE   N05  Cs3  v112
 BYTE   N06  En3
 BYTE   W12
 BYTE   N03  An0  v108
 BYTE   W12
 BYTE   N03
 BYTE   N06  An2  v104
 BYTE   N05  Cs3  v112
 BYTE   N06  En3  v108
 BYTE   W24
 BYTE   N04  An0
 BYTE   N06  An2  v104
 BYTE   N06  Cs3  v112
 BYTE   N07  En3
 BYTE   W24
 BYTE   N04  Bn0
 BYTE   N07  An2  v096
 BYTE   N06  Bn2
 BYTE   N06  Cs3
 BYTE   N06  En3  v104
 BYTE   W12
 BYTE   N04  Bn0  v112
 BYTE   W12
// 012   ----------------------------------------
 BYTE   N05  An2  v096
 BYTE   N05  Bn2  v100
 BYTE   N05  Cs3
 BYTE   N05  En3  v104
 BYTE   W12
 BYTE   N03  Bn0  v108
 BYTE   W12
 BYTE   N04
 BYTE   N06  Fs2  v104
 BYTE   N07  Bn2
 BYTE   N06  Ds3
 BYTE   W24
 BYTE   N04  Bn0  v112
 BYTE   N05  Fs2
 BYTE   N05  Bn2  v108
 BYTE   N06  Ds3
 BYTE   W24
 BYTE   N04  Cs1  v112
 BYTE   N07  Gs2  v104
 BYTE   N05  Cs3
 BYTE   N06  En3  v108
 BYTE   W12
 BYTE   N04  Cs1  v112
 BYTE   W12
// 013   ----------------------------------------
 BYTE   N05  Gs2  v108
 BYTE   N04  Cs3
 BYTE   N05  En3
 BYTE   W12
 BYTE   N03  Cs1  v112
 BYTE   W12
 BYTE   N04  Cs1  v120
 BYTE   N05  Gs2  v108
 BYTE   N04  Cs3
 BYTE   N05  En3
 BYTE   W24
 BYTE   Cs1  v116
 BYTE   N06  Gs2  v112
 BYTE   N04  Cs3  v108
 BYTE   N05  En3  v116
 BYTE   W24
 BYTE   N03  Gs0  v112
 BYTE   N05  Gs2  v104
 BYTE   N05  Bn2
 BYTE   N06  Ds3
 BYTE   W12
 BYTE   N03  Gs0  v112
 BYTE   W12
// 014   ----------------------------------------
 BYTE   N06  Gs2  v100
 BYTE   N05  Bn2  v104
 BYTE   N05  Ds3
 BYTE   W12
 BYTE   N03  Gs0  v112
 BYTE   W12
 BYTE   N03
 BYTE   N04  Gs2  v104
 BYTE   N05  Bn2  v108
 BYTE   N05  Ds3  v104
 BYTE   W24
 BYTE   N04  Gs0  v120
 BYTE   N04  Gs2  v108
 BYTE   N05  Bn2
 BYTE   N05  Ds3
 BYTE   W24
 BYTE   N03  An0  v112
 BYTE   N09  An2  v100
 BYTE   N06  Cs3  v108
 BYTE   N06  En3  v112
 BYTE   W12
 BYTE   N04  An0
 BYTE   W12
// 015   ----------------------------------------
 BYTE   N07  An2  v100
 BYTE   N05  Cs3  v108
 BYTE   N07  En3  v104
 BYTE   W12
 BYTE   N04  An0  v108
 BYTE   W12
 BYTE   N04
 BYTE   N06  An2  v100
 BYTE   N05  Cs3  v112
 BYTE   N06  En3  v108
 BYTE   W24
 BYTE   N04  An0  v112
 BYTE   N04  An2  v104
 BYTE   N04  Cs3  v112
 BYTE   N05  En3  v108
 BYTE   W24
 BYTE   N03  Bn0
 BYTE   N08  Bn2  v096
 BYTE   N06  Ds3  v108
 BYTE   N06  Fs3
 BYTE   W12
 BYTE   N04  Bn0  v112
 BYTE   W12
// 016   ----------------------------------------
 BYTE   N06  Bn2  v100
 BYTE   N06  Ds3  v112
 BYTE   N07  Fs3
 BYTE   W12
 BYTE   N04  Bn0
 BYTE   W12
 BYTE   Cn1  v116
 BYTE   N06  Cn3  v100
 BYTE   N06  Ds3  v108
 BYTE   N06  Fs3  v112
 BYTE   W12
 BYTE   N04  Cn1
 BYTE   W12
 BYTE   N06  Cn3  v108
 BYTE   N05  Ds3  v116
 BYTE   N06  Fs3  v112
 BYTE   W12
 BYTE   N04  Cn1  v116
 BYTE   W12
 BYTE   Cs1  v120
 BYTE   N07  Gs2  v112
 BYTE   N07  Cs3
 BYTE   N07  En3  v108
 BYTE   W24
// 017   ----------------------------------------
 BYTE   N04  Cs1  v116
 BYTE   N07  Gs2  v108
 BYTE   N06  Cs3  v112
 BYTE   N07  En3
 BYTE   W24
 BYTE   N03  Cs1  v116
 BYTE   N07  Gs2  v108
 BYTE   N06  Cs3  v112
 BYTE   N07  En3  v108
 BYTE   W12
 BYTE   N04  Cs1  v120
 BYTE   W12
 BYTE   N06  Gs2  v108
 BYTE   N05  Cs3  v112
 BYTE   N06  En3
 BYTE   W12
 BYTE   N04  Cs1  v120
 BYTE   W12
 BYTE   Gs0  v112
 BYTE   N07  Gs2  v108
 BYTE   N06  Bn2
 BYTE   N08  En3  v112
 BYTE   W24
// 018   ----------------------------------------
 BYTE   N04  Gs0  v120
 BYTE   N06  Gs2  v108
 BYTE   N06  Bn2
 BYTE   N07  En3  v112
 BYTE   W24
 BYTE   N03  Gs0  v120
 BYTE   N07  Gs2  v112
 BYTE   N07  Bn2  v108
 BYTE   N08  En3  v112
 BYTE   W24
 BYTE   N03  Gs0  v120
 BYTE   N07  Gs2  v112
 BYTE   N07  Bn2  v108
 BYTE   N08  En3
 BYTE   W24
 BYTE   N04  An0
 BYTE   N09  An2  v104
 BYTE   N06  Cs3  v108
 BYTE   N08  En3  v112
 BYTE   W24
// 019   ----------------------------------------
 BYTE   N04  An0  v116
 BYTE   N08  An2  v104
 BYTE   N05  Cs3
 BYTE   N07  En3  v112
 BYTE   W24
 BYTE   N03  An0  v104
 BYTE   N07  An2
 BYTE   N04  Cs3
 BYTE   N07  En3  v112
 BYTE   W12
 BYTE   N04  An0
 BYTE   W12
 BYTE   N07  An2  v104
 BYTE   N04  Cs3
 BYTE   N06  En3  v112
 BYTE   W12
 BYTE   N03  An0  v108
 BYTE   W12
 BYTE   N04  Gs0  v116
 BYTE   N07  Gs2  v100
 BYTE   N06  Cn3  v112
 BYTE   N06  Ds3  v108
 BYTE   W24
// 020   ----------------------------------------
 BYTE   N04  Gs0  v116
 BYTE   N07  Gs2  v108
 BYTE   N06  Cn3  v112
 BYTE   N07  Ds3  v108
 BYTE   W24
 BYTE   N03  Gs0  v120
 BYTE   N07  Gs2  v108
 BYTE   N06  Cn3  v116
 BYTE   N07  Ds3  v108
 BYTE   W24
 BYTE   N04  Gs0  v120
 BYTE   N06  Gs2  v104
 BYTE   N06  Cn3  v112
 BYTE   N07  Ds3  v108
 BYTE   W24
 BYTE   N04  Cs1  v112
 BYTE   N07  Gs2  v108
 BYTE   N07  Cs3  v112
 BYTE   N08  En3  v108
 BYTE   W24
// 021   ----------------------------------------
 BYTE   N04  Cs1  v120
 BYTE   N07  Gs2  v108
 BYTE   N05  Cs3
 BYTE   N08  En3  v112
 BYTE   W24
 BYTE   N03  Cs1  v116
 BYTE   N06  Gs2  v108
 BYTE   N06  Cs3
 BYTE   N07  En3
 BYTE   W12
 BYTE   N04  Cs1  v116
 BYTE   W12
 BYTE   N07  Gs2  v108
 BYTE   N05  Cs3  v112
 BYTE   N07  En3  v108
 BYTE   W12
 BYTE   N04  Cs1  v116
 BYTE   W12
 BYTE   Gs0  v112
 BYTE   N07  Gs2  v108
 BYTE   N06  Bn2
 BYTE   N07  Ds3  v112
 BYTE   W24
// 022   ----------------------------------------
 BYTE   N04  Gs0  v120
 BYTE   N07  Gs2  v108
 BYTE   N07  Bn2
 BYTE   N06  Ds3
 BYTE   W24
 BYTE   N03  Gs0  v120
 BYTE   N08  Gs2  v104
 BYTE   N08  Bn2  v108
 BYTE   N07  Ds3
 BYTE   W24
 BYTE   N04  Gs0  v120
 BYTE   N07  Gs2  v108
 BYTE   N08  Bn2
 BYTE   N06  Ds3
 BYTE   W24
 BYTE   N04  An0  v112
 BYTE   N08  An2  v100
 BYTE   N06  Cs3  v108
 BYTE   N07  En3  v112
 BYTE   W24
// 023   ----------------------------------------
 BYTE   N04  An0  v116
 BYTE   N09  An2  v096
 BYTE   N08  Cs3  v108
 BYTE   N08  En3  v104
 BYTE   W24
 BYTE   N04  An0  v108
 BYTE   N08  An2  v104
 BYTE   N08  Cs3  v112
 BYTE   N08  En3  v108
 BYTE   W12
 BYTE   N03  An0
 BYTE   W12
 BYTE   N07  An2  v100
 BYTE   N07  Cs3  v104
 BYTE   N07  En3  v108
 BYTE   W12
 BYTE   N04  An0
 BYTE   W12
 BYTE   Bn0
 BYTE   N08  Gs2
 BYTE   N07  Bn2
 BYTE   N08  En3
 BYTE   W24
// 024   ----------------------------------------
 BYTE   N04  Bn0  v112
 BYTE   N07  Gs2  v104
 BYTE   N07  Bn2
 BYTE   N09  En3  v108
 BYTE   W24
 BYTE   N04  Bn0
 BYTE   N11  Fs2  v104
 BYTE   N08  Bn2
 BYTE   N10  En3  v108
 BYTE   W24
 BYTE   N04  Bn0  v112
 BYTE   N07  Fs2  v096
 BYTE   N07  Bn2  v104
 BYTE   N08  En3  v108
 BYTE   W24
 BYTE   N04  Cs1  v120
 BYTE   N04  Gs2  v108
 BYTE   N04  Cs3  v112
 BYTE   N05  En3  v108
 BYTE   W12
 BYTE   N04  Cs1  v120
 BYTE   W12
// 025   ----------------------------------------
 BYTE   Gs2  v108
 BYTE   N03  Cs3  v112
 BYTE   N05  En3
 BYTE   W12
 BYTE   N03  Cs1  v124
 BYTE   W12
 BYTE   N04  Cs1  v120
 BYTE   N04  Gs2  v108
 BYTE   N03  Cs3  v112
 BYTE   N05  En3
 BYTE   W24
 BYTE   N03  Cs1  v127
 BYTE   N04  Gs2  v112
 BYTE   N03  Cs3
 BYTE   N05  En3
 BYTE   W24
 BYTE   N04  Cs1  v120
 BYTE   N03  Gs2  v112
 BYTE   N03  Cs3  v116
 BYTE   N05  En3  v112
 BYTE   W12
 BYTE   N04  Cs1  v120
 BYTE   W12
// 026   ----------------------------------------
 BYTE   N03  Gs2  v112
 BYTE   N03  Cs3
 BYTE   N04  En3
 BYTE   W12
 BYTE   N03  Cs1  v124
 BYTE   W12
 BYTE   GoTo
  POIN2 Label_9_01D059B7
// 027   ----------------------------------------
 BYTE   N04  Cs1  v120
 BYTE   N04  Gs2  v112
 BYTE   N03  Cs3
 BYTE   N05  En3
 BYTE   W24
 BYTE   N03  Cs1  v127
 BYTE   N04  Gs2  v112
 BYTE   N03  Cs3  v116
 BYTE   N05  En3  v112
 BYTE   W23
 BYTE   FINE

//**************** Track 11 (Midi-Chn.10) ****************//

TRSBerwickSagaDepartureRSflame_011:
// 000   ----------------------------------------
 BYTE   KEYSH   TRSBerwickSagaDepartureRSflame_key+0
 BYTE   W03
 BYTE   VOICE   57
 BYTE   MOD 0
 BYTE   CnM2
 BYTE   VOL   62*TRSBerwickSagaDepartureRSflame_mvl/mxv
 BYTE   PAN   c_v+14
 BYTE   BEND   c_v+0
 BYTE   W68
 BYTE   W01
Label_10_01D05683:
 BYTE   W24
// 001   ----------------------------------------
 BYTE   W96
// 002   ----------------------------------------
 BYTE   W96
// 003   ----------------------------------------
 BYTE   W96
// 004   ----------------------------------------
 BYTE   W96
// 005   ----------------------------------------
 BYTE   W96
// 006   ----------------------------------------
 BYTE   W96
// 007   ----------------------------------------
 BYTE   W96
// 008   ----------------------------------------
 BYTE   W96
// 009   ----------------------------------------
 BYTE   W96
// 010   ----------------------------------------
 BYTE   W96
// 011   ----------------------------------------
 BYTE   W96
// 012   ----------------------------------------
 BYTE   W96
// 013   ----------------------------------------
 BYTE   W96
// 014   ----------------------------------------
 BYTE   W96
// 015   ----------------------------------------
 BYTE   W96
// 016   ----------------------------------------
 BYTE   W72
 BYTE   N54  En3  v120
 BYTE   W24
// 017   ----------------------------------------
 BYTE   W36
 BYTE   N03  Ds3  v124
 BYTE   W12
 BYTE   N11  Cs3  v120
 BYTE   W12
 BYTE   N05  Bn2  v116
 BYTE   W12
 BYTE   N60
 BYTE   W24
// 018   ----------------------------------------
 BYTE   W48
 BYTE   N05
 BYTE   W06
 BYTE   N06  Cs3  v120
 BYTE   W06
 BYTE   N05  Ds3  v116
 BYTE   W06
 BYTE   N07  En3
 BYTE   W12
 BYTE   N32  Gs3  v120
 BYTE   W18
// 019   ----------------------------------------
 BYTE   W12
 BYTE   N07  An3  v116
 BYTE   W06
 BYTE   N03  Gs3  v120
 BYTE   W06
 BYTE   N18  Fs3
 BYTE   W24
 BYTE   N23  En3
 BYTE   W24
 BYTE   N44  Fs3
 BYTE   W24
// 020   ----------------------------------------
 BYTE   W24
 BYTE   Ds3
 BYTE   W48
 BYTE   N48  Cs3
 BYTE   N48  En3  v116
 BYTE   W24
// 021   ----------------------------------------
 BYTE   W36
 BYTE   N04  Cs3  v124
 BYTE   N04  En3  v120
 BYTE   W12
 BYTE   N11  Fs3
 BYTE   W01
 BYTE   N09  Ds3
 BYTE   W11
 BYTE   N06  En3  v108
 BYTE   N05  Gs3  v124
 BYTE   W12
 BYTE   N44  Fs3  v120
 BYTE   N44  Bn3  v116
 BYTE   W24
// 022   ----------------------------------------
 BYTE   W24
 BYTE   N36  Bn2  v112
 BYTE   N32  Ds3  v116
 BYTE   W36
 BYTE   N05  En3
 BYTE   W02
 BYTE   N04  Cs3
 BYTE   W04
 BYTE   Ds3  v120
 BYTE   W01
 BYTE   N05  Bn2  v104
 BYTE   W05
 BYTE   N66  En3  v116
 BYTE   W02
 BYTE   N60  Cs3
 BYTE   W22
// 023   ----------------------------------------
 BYTE   W48
 BYTE   N21  En3
 BYTE   N24  An3
 BYTE   W24
 BYTE   N44  Gs3  v120
 BYTE   W02
 BYTE   En3  v116
 BYTE   W22
// 024   ----------------------------------------
 BYTE   W24
 BYTE   N28  Fs3  v120
 BYTE   W01
 BYTE   N24  Ds3
 BYTE   W32
 BYTE   W01
 BYTE   N05
 BYTE   W02
 BYTE   N04  Fs3  v112
 BYTE   W04
 BYTE   En3
 BYTE   W01
 BYTE   Gs3  v120
 BYTE   W03
 BYTE   Ds3  v112
 BYTE   W01
 BYTE   N03  Fs3  v116
 BYTE   W03
 BYTE   N92  En3  v120
 BYTE   W02
 BYTE   TIE  Cs3  v116
 BYTE   W22
// 025   ----------------------------------------
 BYTE   W72
 BYTE   N44  Fs3  v120
 BYTE   W24
// 026   ----------------------------------------
 BYTE   W24
 BYTE   GoTo
  POIN2 Label_10_01D05683
// 027   ----------------------------------------
 BYTE   N42  Gs3  v116
 BYTE   W40
 BYTE   EOT
 BYTE   Cs3
 BYTE   W07
 BYTE   FINE

//******************************************************//
	ALIGN 4

TRSBerwickSagaDepartureRSflame:
	BYTE	11	// NumTrks
	BYTE	0	// NumBlks
	BYTE	TRSBerwickSagaDepartureRSflame_pri	// Priority
	BYTE	TRSBerwickSagaDepartureRSflame_rev	// Reverb.
    
	POIN2	TRSBerwickSagaDepartureRSflame_grp
    
	POIN2	TRSBerwickSagaDepartureRSflame_001
	POIN2	TRSBerwickSagaDepartureRSflame_002
	POIN2	TRSBerwickSagaDepartureRSflame_003
	POIN2	TRSBerwickSagaDepartureRSflame_004
	POIN2	TRSBerwickSagaDepartureRSflame_005
	POIN2	TRSBerwickSagaDepartureRSflame_006
	POIN2	TRSBerwickSagaDepartureRSflame_007
	POIN2	TRSBerwickSagaDepartureRSflame_008
	POIN2	TRSBerwickSagaDepartureRSflame_009
	POIN2	TRSBerwickSagaDepartureRSflame_010
	POIN2	TRSBerwickSagaDepartureRSflame_011

	
