//Event file generated from Sappy .s format.
	#include "MPlayDef.event"

	#define	GoldenSunIsaacsBattleThemeMeatOfJustice_grp  voicegroup000
	#define	GoldenSunIsaacsBattleThemeMeatOfJustice_pri  10
	#define	GoldenSunIsaacsBattleThemeMeatOfJustice_rev  0
	#define	GoldenSunIsaacsBattleThemeMeatOfJustice_mvl  127
	#define	GoldenSunIsaacsBattleThemeMeatOfJustice_key  0
	#define	GoldenSunIsaacsBattleThemeMeatOfJustice_tbs  1
	#define	GoldenSunIsaacsBattleThemeMeatOfJustice_exg  0
	#define	GoldenSunIsaacsBattleThemeMeatOfJustice_cmp  1

	// .rodata
	//	GoldenSunIsaacsBattleThemeMeatOfJustice
	ALIGN 4


//**************** Track 1 (Midi-Chn.0) ****************//

GoldenSunIsaacsBattleThemeMeatOfJustice_001:
// 000   ----------------------------------------
Label_0_016559C0:
 BYTE   KEYSH   GoldenSunIsaacsBattleThemeMeatOfJustice_key+0
 BYTE   VOICE   110
 BYTE   VOL   50*GoldenSunIsaacsBattleThemeMeatOfJustice_mvl/mxv
 BYTE   VOL   74*GoldenSunIsaacsBattleThemeMeatOfJustice_mvl/mxv
 BYTE   PAN   c_v+0
 BYTE   N03  Fn3  v110
 BYTE   N03  Dn3
 BYTE   TEMPO   120*GoldenSunIsaacsBattleThemeMeatOfJustice_tbs/2
 BYTE   W04
 BYTE   N03  Gs3  v110
 BYTE   N03  Fn3
 BYTE   W04
 BYTE   Bn3
 BYTE   N03  Gs3
 BYTE   W04
 BYTE   Fn4
 BYTE   N03  Bn3
 BYTE   W04
 BYTE   Bn3
 BYTE   N03  Gs3
 BYTE   W04
 BYTE   Fn4
 BYTE   N03  Bn3
 BYTE   W04
 BYTE   Fs3
 BYTE   N03  Ds3
 BYTE   W04
 BYTE   An3
 BYTE   N03  Fs3
 BYTE   W04
 BYTE   Cn4
 BYTE   N03  An3
 BYTE   W04
 BYTE   An3
 BYTE   N03  Fs3
 BYTE   W04
 BYTE   Cn4
 BYTE   N03  An3
 BYTE   W04
 BYTE   Fs4
 BYTE   N03  Cn4
 BYTE   W04
 BYTE   Gs3
 BYTE   N03  Fn3
 BYTE   W04
 BYTE   Bn3
 BYTE   N03  Gs3
 BYTE   W04
 BYTE   Dn4
 BYTE   N03  Bn3
 BYTE   W04
 BYTE   Bn3
 BYTE   N03  Gs3
 BYTE   W04
 BYTE   Dn4
 BYTE   N03  Bn3
 BYTE   W04
 BYTE   Gs4
 BYTE   N03  Dn4
 BYTE   W04
 BYTE   Cn4
 BYTE   N03  An3
 BYTE   W04
 BYTE   Ds4
 BYTE   N03  Cn4
 BYTE   W04
 BYTE   An4
 BYTE   N03  Ds4
 BYTE   W04
 BYTE   Cn5
 BYTE   N03  An4
 BYTE   W04
 BYTE   Ds5
 BYTE   N03  Cn5
 BYTE   W04
 BYTE   Fs5
 BYTE   N03  Cn5
 BYTE   W04
// 001   ----------------------------------------
Label_0_01655A30:
 BYTE   VOL   74*GoldenSunIsaacsBattleThemeMeatOfJustice_mvl/mxv
 BYTE   N30  En4  v110
 BYTE   N30  Cn4
 BYTE   W30
 BYTE   N06  Dn4
 BYTE   N06  Bn3
 BYTE   W06
 BYTE   Cn4
 BYTE   N06  An3
 BYTE   W06
 BYTE   Dn4
 BYTE   N06  Bn3
 BYTE   W06
 BYTE   N24  En4
 BYTE   N24  Cn4
 BYTE   W24
 BYTE   An4
 BYTE   N24  En4
 BYTE   W24
// 002   ----------------------------------------
 BYTE   N30  Gn4
 BYTE   N30  Dn4
 BYTE   W30
 BYTE   N06  Fn4
 BYTE   N06  Dn4
 BYTE   W06
 BYTE   En4
 BYTE   N06  Cn4
 BYTE   W06
 BYTE   Dn4
 BYTE   N06  Bn3
 BYTE   W06
 BYTE   N24  Cn4
 BYTE   N24  An3
 BYTE   W24
 BYTE   Dn4
 BYTE   N24  Bn3
 BYTE   W24
// 003   ----------------------------------------
 BYTE   N30  Ds4
 BYTE   N30  Bn3
 BYTE   W30
 BYTE   N06  Ds4
 BYTE   N06  Bn3
 BYTE   W06
 BYTE   En4
 BYTE   N06  Cs4
 BYTE   W06
 BYTE   Fs4
 BYTE   N06  Ds4
 BYTE   W06
 BYTE   N48  En4
 BYTE   N48  Bn3
 BYTE   W48
// 004   ----------------------------------------
 BYTE   N30  Fs4
 BYTE   N30  Dn4
 BYTE   W30
 BYTE   N06  Fs4
 BYTE   N06  Dn4
 BYTE   W06
 BYTE   Gn4
 BYTE   N06  Dn4
 BYTE   W06
 BYTE   An4
 BYTE   N06  Dn4
 BYTE   W06
 BYTE   N24  Gn4
 BYTE   N24  Dn4
 BYTE   W24
 BYTE   Gs4
 BYTE   N24  En4
 BYTE   W24
// 005   ----------------------------------------
 BYTE   N04  An4
 BYTE   N04  En4
 BYTE   W06
 BYTE   En4
 BYTE   N04  Cn4
 BYTE   W06
 BYTE   An4
 BYTE   N04  En4
 BYTE   W06
 BYTE   Bn4
 BYTE   N04  En4
 BYTE   W06
 BYTE   En4
 BYTE   N04  Cn4
 BYTE   W06
 BYTE   Bn4
 BYTE   N04  En4
 BYTE   W06
 BYTE   N17  Cn5
 BYTE   N17  An4
 BYTE   W18
 BYTE   N04  En5
 BYTE   N04  Cn5
 BYTE   W06
 BYTE   Dn5
 BYTE   N04  Bn4
 BYTE   W06
 BYTE   Cn5
 BYTE   N04  An4
 BYTE   W06
 BYTE   Bn4
 BYTE   N04  Gn4
 BYTE   W06
 BYTE   An4
 BYTE   N04  Fn4
 BYTE   W06
 BYTE   Bn4
 BYTE   N04  Gn4
 BYTE   W06
 BYTE   Cn5
 BYTE   N04  An4
 BYTE   W06
// 006   ----------------------------------------
 BYTE   N17  Dn5
 BYTE   N17  Gn4
 BYTE   W18
 BYTE   Gn4
 BYTE   N17  Dn4
 BYTE   W18
 BYTE   N11  Dn5
 BYTE   N11  Gn4
 BYTE   W12
 BYTE   N17  Cn5
 BYTE   N17  Fn4
 BYTE   W18
 BYTE   Bn4
 BYTE   N17  Fn4
 BYTE   W18
 BYTE   N11  An4
 BYTE   N11  Fn4
 BYTE   W12
// 007   ----------------------------------------
 BYTE   N42  Bn4
 BYTE   N42  En4
 BYTE   W48
 BYTE   N17  Gs4
 BYTE   N17  En4
 BYTE   W18
 BYTE   An4
 BYTE   N17  Fn4
 BYTE   W18
 BYTE   N11  Bn4
 BYTE   N11  Gs4
 BYTE   W12
// 008   ----------------------------------------
 BYTE   N04  Cn5
 BYTE   N04  An4
 BYTE   W06
 BYTE   An4
 BYTE   N04  En4
 BYTE   W06
 BYTE   En4
 BYTE   N04  Cn4
 BYTE   W06
 BYTE   Bn4
 BYTE   N04  Gn4
 BYTE   W06
 BYTE   Gn4
 BYTE   N04  Dn4
 BYTE   W06
 BYTE   Dn4
 BYTE   N04  Bn3
 BYTE   W06
 BYTE   N32  An4
 BYTE   N32  Fn4
 BYTE   W36
 BYTE   N11  Gn4
 BYTE   N11  En4
 BYTE   W12
 BYTE   An4
 BYTE   N11  Fn4
 BYTE   W12
 BYTE   PEND 
// 009   ----------------------------------------
 BYTE   VOL   74*GoldenSunIsaacsBattleThemeMeatOfJustice_mvl/mxv
 BYTE   N30  En4  v110
 BYTE   N30  Cn4
 BYTE   W30
 BYTE   N06  Dn4
 BYTE   N06  Bn3
 BYTE   W06
 BYTE   Cn4
 BYTE   N06  An3
 BYTE   W06
 BYTE   Dn4
 BYTE   N06  Bn3
 BYTE   W06
 BYTE   N24  En4
 BYTE   N24  Cn4
 BYTE   W24
 BYTE   An4
 BYTE   N24  En4
 BYTE   W24
// 010   ----------------------------------------
 BYTE   N30  Gn4
 BYTE   N30  Dn4
 BYTE   W30
 BYTE   N06  Fn4
 BYTE   N06  Dn4
 BYTE   W06
 BYTE   En4
 BYTE   N06  Cn4
 BYTE   W06
 BYTE   Dn4
 BYTE   N06  Bn3
 BYTE   W06
 BYTE   N24  Cn4
 BYTE   N24  An3
 BYTE   W24
 BYTE   Dn4
 BYTE   N24  Bn3
 BYTE   W24
// 011   ----------------------------------------
 BYTE   N30  Ds4
 BYTE   N30  Bn3
 BYTE   W30
 BYTE   N06  Ds4
 BYTE   N06  Bn3
 BYTE   W06
 BYTE   En4
 BYTE   N06  Cs4
 BYTE   W06
 BYTE   Fs4
 BYTE   N06  Ds4
 BYTE   W06
 BYTE   N48  En4
 BYTE   N48  Bn3
 BYTE   W48
// 012   ----------------------------------------
 BYTE   N30  Fs4
 BYTE   N30  Dn4
 BYTE   W30
 BYTE   N06  Fs4
 BYTE   N06  Dn4
 BYTE   W06
 BYTE   Gn4
 BYTE   N06  Dn4
 BYTE   W06
 BYTE   An4
 BYTE   N06  Dn4
 BYTE   W06
 BYTE   N24  Gn4
 BYTE   N24  Dn4
 BYTE   W24
 BYTE   Gs4
 BYTE   N24  En4
 BYTE   W24
// 013   ----------------------------------------
 BYTE   N04  An4
 BYTE   N04  En4
 BYTE   W06
 BYTE   En4
 BYTE   N04  Cn4
 BYTE   W06
 BYTE   An4
 BYTE   N04  En4
 BYTE   W06
 BYTE   Bn4
 BYTE   N04  En4
 BYTE   W06
 BYTE   En4
 BYTE   N04  Cn4
 BYTE   W06
 BYTE   Bn4
 BYTE   N04  En4
 BYTE   W06
 BYTE   N17  Cn5
 BYTE   N17  An4
 BYTE   W18
 BYTE   N04  En5
 BYTE   N04  Cn5
 BYTE   W06
 BYTE   Dn5
 BYTE   N04  Bn4
 BYTE   W06
 BYTE   Cn5
 BYTE   N04  An4
 BYTE   W06
 BYTE   Bn4
 BYTE   N04  Gn4
 BYTE   W06
 BYTE   An4
 BYTE   N04  Fn4
 BYTE   W06
 BYTE   Bn4
 BYTE   N04  Gn4
 BYTE   W06
 BYTE   Cn5
 BYTE   N04  An4
 BYTE   W06
// 014   ----------------------------------------
 BYTE   N17  Dn5
 BYTE   N17  Gn4
 BYTE   W18
 BYTE   Gn4
 BYTE   N17  Dn4
 BYTE   W18
 BYTE   N11  Dn5
 BYTE   N11  Gn4
 BYTE   W12
 BYTE   N17  Cn5
 BYTE   N17  Fn4
 BYTE   W18
 BYTE   Bn4
 BYTE   N17  Fn4
 BYTE   W18
 BYTE   N11  An4
 BYTE   N11  Fn4
 BYTE   W12
// 015   ----------------------------------------
 BYTE   N42  Bn4
 BYTE   N42  En4
 BYTE   W48
 BYTE   N17  Gs4
 BYTE   N17  En4
 BYTE   W18
 BYTE   An4
 BYTE   N17  Fn4
 BYTE   W18
 BYTE   N11  Bn4
 BYTE   N11  Gs4
 BYTE   W96
// 016   ----------------------------------------
 BYTE   W96
// 017   ----------------------------------------
 BYTE   W96
// 018   ----------------------------------------
 BYTE   W96
// 019   ----------------------------------------
 BYTE   W11
 BYTE   N05  Cn4  v110
 BYTE   W06
 BYTE   Bn3
 BYTE   W06
 BYTE   N32  Cn4
 BYTE   W36
 BYTE   N17  Bn3
 BYTE   W18
 BYTE   An3
 BYTE   W18
 BYTE   N11  Gn3
 BYTE   W12
// 020   ----------------------------------------
 BYTE   N90  An3
 BYTE   W96
// 021   ----------------------------------------
 BYTE   N05  Cn4
 BYTE   W06
 BYTE   Bn3
 BYTE   W06
 BYTE   N32  Cn4
 BYTE   W36
 BYTE   N17  Bn3
 BYTE   W18
 BYTE   Cn4
 BYTE   W18
 BYTE   N11  Dn4
 BYTE   W12
// 022   ----------------------------------------
 BYTE   N90  An3
 BYTE   W96
// 023   ----------------------------------------
 BYTE   N05  Cn4
 BYTE   W06
 BYTE   Bn3
 BYTE   W06
 BYTE   N32  Cn4
 BYTE   W36
 BYTE   N17  Bn3
 BYTE   W18
 BYTE   An3
 BYTE   W18
 BYTE   N11  Gn3
 BYTE   W12
// 024   ----------------------------------------
 BYTE   N90  An3
 BYTE   W96
// 025   ----------------------------------------
 BYTE   N05  Cn4
 BYTE   W06
 BYTE   Bn3
 BYTE   W06
 BYTE   N32  Cn4
 BYTE   W36
 BYTE   N17  Bn3
 BYTE   W18
 BYTE   Cn4
 BYTE   W18
 BYTE   N11  Dn4
 BYTE   W12
// 026   ----------------------------------------
 BYTE   N90  An3
 BYTE   W96
// 027   ----------------------------------------
 BYTE   W96
// 028   ----------------------------------------
 BYTE   W96
// 029   ----------------------------------------
 BYTE   W96
// 030   ----------------------------------------
 BYTE   W96
// 031   ----------------------------------------
Label_0_01655C57:
 BYTE   BEND   c_v-64
 BYTE   N90  Cs4  v110
 BYTE   BEND   c_v-64
 BYTE   BEND   c_v-64
 BYTE   BEND   c_v-63
 BYTE   BEND   c_v-63
 BYTE   BEND   c_v-63
 BYTE   BEND   c_v-62
 BYTE   BEND   c_v-62
 BYTE   BEND   c_v-62
 BYTE   BEND   c_v-61
 BYTE   BEND   c_v-61
 BYTE   BEND   c_v-61
 BYTE   BEND   c_v-60
 BYTE   BEND   c_v-60
 BYTE   BEND   c_v-60
 BYTE   BEND   c_v-59
 BYTE   BEND   c_v-59
 BYTE   BEND   c_v-59
 BYTE   BEND   c_v-58
 BYTE   BEND   c_v-58
 BYTE   BEND   c_v-58
 BYTE   BEND   c_v-57
 BYTE   BEND   c_v-57
 BYTE   BEND   c_v-57
 BYTE   BEND   c_v-56
 BYTE   BEND   c_v-56
 BYTE   BEND   c_v-56
 BYTE   BEND   c_v-55
 BYTE   BEND   c_v-55
 BYTE   BEND   c_v-55
 BYTE   BEND   c_v-54
 BYTE   BEND   c_v-54
 BYTE   BEND   c_v-54
 BYTE   BEND   c_v-53
 BYTE   BEND   c_v-53
 BYTE   BEND   c_v-53
 BYTE   BEND   c_v-52
 BYTE   BEND   c_v-52
 BYTE   BEND   c_v-52
 BYTE   BEND   c_v-51
 BYTE   BEND   c_v-51
 BYTE   BEND   c_v-51
 BYTE   BEND   c_v-50
 BYTE   BEND   c_v-50
 BYTE   BEND   c_v-50
 BYTE   BEND   c_v-49
 BYTE   BEND   c_v-49
 BYTE   BEND   c_v-49
 BYTE   BEND   c_v-48
 BYTE   BEND   c_v-48
 BYTE   BEND   c_v-48
 BYTE   BEND   c_v-47
 BYTE   BEND   c_v-47
 BYTE   BEND   c_v-47
 BYTE   BEND   c_v-46
 BYTE   BEND   c_v-46
 BYTE   BEND   c_v-46
 BYTE   BEND   c_v-45
 BYTE   BEND   c_v-45
 BYTE   BEND   c_v-45
 BYTE   BEND   c_v-44
 BYTE   BEND   c_v-44
 BYTE   BEND   c_v-44
 BYTE   BEND   c_v-43
 BYTE   BEND   c_v-43
 BYTE   BEND   c_v-43
 BYTE   BEND   c_v-42
 BYTE   BEND   c_v-42
 BYTE   BEND   c_v-42
 BYTE   BEND   c_v-41
 BYTE   BEND   c_v-41
 BYTE   BEND   c_v-41
 BYTE   BEND   c_v-40
 BYTE   BEND   c_v-40
 BYTE   BEND   c_v-40
 BYTE   BEND   c_v-39
 BYTE   BEND   c_v-39
 BYTE   BEND   c_v-39
 BYTE   BEND   c_v-38
 BYTE   BEND   c_v-38
 BYTE   BEND   c_v-38
 BYTE   BEND   c_v-37
 BYTE   BEND   c_v-37
 BYTE   BEND   c_v-37
 BYTE   BEND   c_v-36
 BYTE   BEND   c_v-36
 BYTE   BEND   c_v-36
 BYTE   BEND   c_v-35
 BYTE   BEND   c_v-35
 BYTE   BEND   c_v-35
 BYTE   BEND   c_v-34
 BYTE   BEND   c_v-34
 BYTE   BEND   c_v-34
 BYTE   BEND   c_v-33
 BYTE   BEND   c_v-33
 BYTE   BEND   c_v-33
 BYTE   PEND 
Label_0_01655D1B:
 BYTE   BEND   c_v-32
 BYTE   BEND   c_v-32
 BYTE   BEND   c_v-32
 BYTE   BEND   c_v-31
 BYTE   BEND   c_v-31
 BYTE   BEND   c_v-31
 BYTE   BEND   c_v-30
 BYTE   BEND   c_v-30
 BYTE   BEND   c_v-30
 BYTE   BEND   c_v-29
 BYTE   BEND   c_v-29
 BYTE   BEND   c_v-29
 BYTE   BEND   c_v-28
 BYTE   BEND   c_v-28
 BYTE   BEND   c_v-28
 BYTE   BEND   c_v-27
 BYTE   BEND   c_v-27
 BYTE   BEND   c_v-27
 BYTE   BEND   c_v-26
 BYTE   BEND   c_v-26
 BYTE   BEND   c_v-26
 BYTE   BEND   c_v-25
 BYTE   BEND   c_v-25
 BYTE   BEND   c_v-25
 BYTE   BEND   c_v-24
 BYTE   BEND   c_v-24
 BYTE   BEND   c_v-24
 BYTE   BEND   c_v-23
 BYTE   BEND   c_v-23
 BYTE   BEND   c_v-23
 BYTE   BEND   c_v-22
 BYTE   BEND   c_v-22
 BYTE   BEND   c_v-22
 BYTE   BEND   c_v-21
 BYTE   BEND   c_v-21
 BYTE   BEND   c_v-21
 BYTE   BEND   c_v-20
 BYTE   BEND   c_v-20
 BYTE   BEND   c_v-20
 BYTE   BEND   c_v-19
 BYTE   BEND   c_v-19
 BYTE   BEND   c_v-19
 BYTE   BEND   c_v-18
 BYTE   BEND   c_v-18
 BYTE   BEND   c_v-18
 BYTE   BEND   c_v-17
 BYTE   BEND   c_v-17
 BYTE   BEND   c_v-17
 BYTE   BEND   c_v-16
 BYTE   BEND   c_v-16
 BYTE   BEND   c_v-16
 BYTE   BEND   c_v-15
 BYTE   BEND   c_v-15
 BYTE   BEND   c_v-15
 BYTE   BEND   c_v-14
 BYTE   BEND   c_v-14
 BYTE   BEND   c_v-14
 BYTE   BEND   c_v-13
 BYTE   BEND   c_v-13
 BYTE   BEND   c_v-13
 BYTE   BEND   c_v-12
 BYTE   BEND   c_v-12
 BYTE   BEND   c_v-12
 BYTE   BEND   c_v-11
 BYTE   BEND   c_v-11
 BYTE   BEND   c_v-11
 BYTE   BEND   c_v-10
 BYTE   BEND   c_v-10
 BYTE   BEND   c_v-10
 BYTE   BEND   c_v-9
 BYTE   BEND   c_v-9
 BYTE   BEND   c_v-9
 BYTE   BEND   c_v-8
 BYTE   BEND   c_v-8
 BYTE   BEND   c_v-8
 BYTE   BEND   c_v-7
 BYTE   BEND   c_v-7
 BYTE   BEND   c_v-7
 BYTE   BEND   c_v-6
 BYTE   BEND   c_v-6
 BYTE   BEND   c_v-6
 BYTE   BEND   c_v-5
 BYTE   BEND   c_v-5
 BYTE   BEND   c_v-5
 BYTE   BEND   c_v-4
 BYTE   BEND   c_v-4
 BYTE   BEND   c_v-4
 BYTE   BEND   c_v-3
 BYTE   BEND   c_v-3
 BYTE   BEND   c_v-3
 BYTE   BEND   c_v-2
 BYTE   BEND   c_v-2
 BYTE   BEND   c_v-2
 BYTE   BEND   c_v-1
 BYTE   BEND   c_v-1
 BYTE   BEND   c_v-1
 BYTE   PEND 
 BYTE   BEND   c_v+0
 BYTE   W72
Label_0_01655DDF:
 BYTE   BEND   c_v-64
 BYTE   N90  Bn3  v110
 BYTE   BEND   c_v-64
 BYTE   BEND   c_v-64
 BYTE   BEND   c_v-63
 BYTE   BEND   c_v-63
 BYTE   BEND   c_v-63
 BYTE   BEND   c_v-62
 BYTE   BEND   c_v-62
 BYTE   BEND   c_v-62
 BYTE   BEND   c_v-61
 BYTE   BEND   c_v-61
 BYTE   BEND   c_v-61
 BYTE   BEND   c_v-60
 BYTE   BEND   c_v-60
 BYTE   BEND   c_v-60
 BYTE   BEND   c_v-59
 BYTE   BEND   c_v-59
 BYTE   BEND   c_v-59
 BYTE   BEND   c_v-58
 BYTE   BEND   c_v-58
 BYTE   BEND   c_v-58
 BYTE   BEND   c_v-57
 BYTE   BEND   c_v-57
 BYTE   BEND   c_v-57
 BYTE   BEND   c_v-56
 BYTE   BEND   c_v-56
 BYTE   BEND   c_v-56
 BYTE   BEND   c_v-55
 BYTE   BEND   c_v-55
 BYTE   BEND   c_v-55
 BYTE   BEND   c_v-54
 BYTE   BEND   c_v-54
 BYTE   BEND   c_v-54
 BYTE   BEND   c_v-53
 BYTE   BEND   c_v-53
 BYTE   BEND   c_v-53
 BYTE   BEND   c_v-52
 BYTE   BEND   c_v-52
 BYTE   BEND   c_v-52
 BYTE   BEND   c_v-51
 BYTE   BEND   c_v-51
 BYTE   BEND   c_v-51
 BYTE   BEND   c_v-50
 BYTE   BEND   c_v-50
 BYTE   BEND   c_v-50
 BYTE   BEND   c_v-49
 BYTE   BEND   c_v-49
 BYTE   BEND   c_v-49
 BYTE   BEND   c_v-48
 BYTE   BEND   c_v-48
 BYTE   BEND   c_v-48
 BYTE   BEND   c_v-47
 BYTE   BEND   c_v-47
 BYTE   BEND   c_v-47
 BYTE   BEND   c_v-46
 BYTE   BEND   c_v-46
 BYTE   BEND   c_v-46
 BYTE   BEND   c_v-45
 BYTE   BEND   c_v-45
 BYTE   BEND   c_v-45
 BYTE   BEND   c_v-44
 BYTE   BEND   c_v-44
 BYTE   BEND   c_v-44
 BYTE   BEND   c_v-43
 BYTE   BEND   c_v-43
 BYTE   BEND   c_v-43
 BYTE   BEND   c_v-42
 BYTE   BEND   c_v-42
 BYTE   BEND   c_v-42
 BYTE   BEND   c_v-41
 BYTE   BEND   c_v-41
 BYTE   BEND   c_v-41
 BYTE   BEND   c_v-40
 BYTE   BEND   c_v-40
 BYTE   BEND   c_v-40
 BYTE   BEND   c_v-39
 BYTE   BEND   c_v-39
 BYTE   BEND   c_v-39
 BYTE   BEND   c_v-38
 BYTE   BEND   c_v-38
 BYTE   BEND   c_v-38
 BYTE   BEND   c_v-37
 BYTE   BEND   c_v-37
 BYTE   BEND   c_v-37
 BYTE   BEND   c_v-36
 BYTE   BEND   c_v-36
 BYTE   BEND   c_v-36
 BYTE   BEND   c_v-35
 BYTE   BEND   c_v-35
 BYTE   BEND   c_v-35
 BYTE   BEND   c_v-34
 BYTE   BEND   c_v-34
 BYTE   BEND   c_v-34
 BYTE   BEND   c_v-33
 BYTE   BEND   c_v-33
 BYTE   BEND   c_v-33
 BYTE   PEND 
 BYTE   PATT
  POIN2 Label_0_01655D1B
// 032   ----------------------------------------
 BYTE   BEND   c_v+0
 BYTE   W72
Label_0_01655EAB:
 BYTE   BEND   c_v-64
 BYTE   N90  An3  v110
 BYTE   BEND   c_v-64
 BYTE   BEND   c_v-64
 BYTE   BEND   c_v-63
 BYTE   BEND   c_v-63
 BYTE   BEND   c_v-63
 BYTE   BEND   c_v-62
 BYTE   BEND   c_v-62
 BYTE   BEND   c_v-62
 BYTE   BEND   c_v-61
 BYTE   BEND   c_v-61
 BYTE   BEND   c_v-61
 BYTE   BEND   c_v-60
 BYTE   BEND   c_v-60
 BYTE   BEND   c_v-60
 BYTE   BEND   c_v-59
 BYTE   BEND   c_v-59
 BYTE   BEND   c_v-59
 BYTE   BEND   c_v-58
 BYTE   BEND   c_v-58
 BYTE   BEND   c_v-58
 BYTE   BEND   c_v-57
 BYTE   BEND   c_v-57
 BYTE   BEND   c_v-57
 BYTE   BEND   c_v-56
 BYTE   BEND   c_v-56
 BYTE   BEND   c_v-56
 BYTE   BEND   c_v-55
 BYTE   BEND   c_v-55
 BYTE   BEND   c_v-55
 BYTE   BEND   c_v-54
 BYTE   BEND   c_v-54
 BYTE   BEND   c_v-54
 BYTE   BEND   c_v-53
 BYTE   BEND   c_v-53
 BYTE   BEND   c_v-53
 BYTE   BEND   c_v-52
 BYTE   BEND   c_v-52
 BYTE   BEND   c_v-52
 BYTE   BEND   c_v-51
 BYTE   BEND   c_v-51
 BYTE   BEND   c_v-51
 BYTE   BEND   c_v-50
 BYTE   BEND   c_v-50
 BYTE   BEND   c_v-50
 BYTE   BEND   c_v-49
 BYTE   BEND   c_v-49
 BYTE   BEND   c_v-49
 BYTE   BEND   c_v-48
 BYTE   BEND   c_v-48
 BYTE   BEND   c_v-48
 BYTE   BEND   c_v-47
 BYTE   BEND   c_v-47
 BYTE   BEND   c_v-47
 BYTE   BEND   c_v-46
 BYTE   BEND   c_v-46
 BYTE   BEND   c_v-46
 BYTE   BEND   c_v-45
 BYTE   BEND   c_v-45
 BYTE   BEND   c_v-45
 BYTE   BEND   c_v-44
 BYTE   BEND   c_v-44
 BYTE   BEND   c_v-44
 BYTE   BEND   c_v-43
 BYTE   BEND   c_v-43
 BYTE   BEND   c_v-43
 BYTE   BEND   c_v-42
 BYTE   BEND   c_v-42
 BYTE   BEND   c_v-42
 BYTE   BEND   c_v-41
 BYTE   BEND   c_v-41
 BYTE   BEND   c_v-41
 BYTE   BEND   c_v-40
 BYTE   BEND   c_v-40
 BYTE   BEND   c_v-40
 BYTE   BEND   c_v-39
 BYTE   BEND   c_v-39
 BYTE   BEND   c_v-39
 BYTE   BEND   c_v-38
 BYTE   BEND   c_v-38
 BYTE   BEND   c_v-38
 BYTE   BEND   c_v-37
 BYTE   BEND   c_v-37
 BYTE   BEND   c_v-37
 BYTE   BEND   c_v-36
 BYTE   BEND   c_v-36
 BYTE   BEND   c_v-36
 BYTE   BEND   c_v-35
 BYTE   BEND   c_v-35
 BYTE   BEND   c_v-35
 BYTE   BEND   c_v-34
 BYTE   BEND   c_v-34
 BYTE   BEND   c_v-34
 BYTE   BEND   c_v-33
 BYTE   BEND   c_v-33
 BYTE   BEND   c_v-33
 BYTE   PEND 
 BYTE   PATT
  POIN2 Label_0_01655D1B
// 033   ----------------------------------------
 BYTE   BEND   c_v+0
 BYTE   W72
 BYTE   PATT
  POIN2 Label_0_01655DDF
 BYTE   PATT
  POIN2 Label_0_01655D1B
// 034   ----------------------------------------
 BYTE   BEND   c_v+0
 BYTE   W72
 BYTE   PATT
  POIN2 Label_0_01655A30
// 035   ----------------------------------------
 BYTE   VOL   74*GoldenSunIsaacsBattleThemeMeatOfJustice_mvl/mxv
 BYTE   N30  En4  v110
 BYTE   N30  Cn4
 BYTE   W30
 BYTE   N06  Dn4
 BYTE   N06  Bn3
 BYTE   W06
 BYTE   Cn4
 BYTE   N06  An3
 BYTE   W06
 BYTE   Dn4
 BYTE   N06  Bn3
 BYTE   W06
 BYTE   N24  En4
 BYTE   N24  Cn4
 BYTE   W24
 BYTE   An4
 BYTE   N24  En4
 BYTE   W24
// 036   ----------------------------------------
 BYTE   N30  Gn4
 BYTE   N30  Dn4
 BYTE   W30
 BYTE   N06  Fn4
 BYTE   N06  Dn4
 BYTE   W06
 BYTE   En4
 BYTE   N06  Cn4
 BYTE   W06
 BYTE   Dn4
 BYTE   N06  Bn3
 BYTE   W06
 BYTE   N24  Cn4
 BYTE   N24  An3
 BYTE   W24
 BYTE   Dn4
 BYTE   N24  Bn3
 BYTE   W24
// 037   ----------------------------------------
 BYTE   N30  Ds4
 BYTE   N30  Bn3
 BYTE   W30
 BYTE   N06  Ds4
 BYTE   N06  Bn3
 BYTE   W06
 BYTE   En4
 BYTE   N06  Cs4
 BYTE   W06
 BYTE   Fs4
 BYTE   N06  Ds4
 BYTE   W06
 BYTE   N48  En4
 BYTE   N48  Bn3
 BYTE   W48
// 038   ----------------------------------------
 BYTE   N30  Fs4
 BYTE   N30  Dn4
 BYTE   W30
 BYTE   N06  Fs4
 BYTE   N06  Dn4
 BYTE   W06
 BYTE   Gn4
 BYTE   N06  Dn4
 BYTE   W06
 BYTE   An4
 BYTE   N06  Dn4
 BYTE   W06
 BYTE   N24  Gn4
 BYTE   N24  Dn4
 BYTE   W24
 BYTE   Gs4
 BYTE   N24  En4
 BYTE   W24
// 039   ----------------------------------------
 BYTE   N04  An4
 BYTE   N04  En4
 BYTE   W06
 BYTE   En4
 BYTE   N04  Cn4
 BYTE   W06
 BYTE   An4
 BYTE   N04  En4
 BYTE   W06
 BYTE   Bn4
 BYTE   N04  En4
 BYTE   W06
 BYTE   En4
 BYTE   N04  Cn4
 BYTE   W06
 BYTE   Bn4
 BYTE   N04  En4
 BYTE   W06
 BYTE   N17  Cn5
 BYTE   N17  An4
 BYTE   W18
 BYTE   N04  En5
 BYTE   N04  Cn5
 BYTE   W06
 BYTE   Dn5
 BYTE   N04  Bn4
 BYTE   W06
 BYTE   Cn5
 BYTE   N04  An4
 BYTE   W06
 BYTE   Bn4
 BYTE   N04  Gn4
 BYTE   W06
 BYTE   An4
 BYTE   N04  Fn4
 BYTE   W06
 BYTE   Bn4
 BYTE   N04  Gn4
 BYTE   W06
 BYTE   Cn5
 BYTE   N04  An4
 BYTE   W06
// 040   ----------------------------------------
 BYTE   N17  Dn5
 BYTE   N17  Gn4
 BYTE   W18
 BYTE   Gn4
 BYTE   N17  Dn4
 BYTE   W18
 BYTE   N11  Dn5
 BYTE   N11  Gn4
 BYTE   W12
 BYTE   N17  Cn5
 BYTE   N17  Fn4
 BYTE   W18
 BYTE   Bn4
 BYTE   N17  Fn4
 BYTE   W18
 BYTE   N11  An4
 BYTE   N11  Fn4
 BYTE   W12
// 041   ----------------------------------------
 BYTE   N42  Bn4
 BYTE   N42  En4
 BYTE   W48
 BYTE   N17  Gs4
 BYTE   N17  En4
 BYTE   W18
 BYTE   An4
 BYTE   N17  Fn4
 BYTE   W18
 BYTE   N11  Bn4
 BYTE   N11  Gs4
 BYTE   W96
// 042   ----------------------------------------
 BYTE   W96
// 043   ----------------------------------------
 BYTE   W96
// 044   ----------------------------------------
 BYTE   W96
// 045   ----------------------------------------
 BYTE   W12
 BYTE   N05  Cn4
 BYTE   W06
 BYTE   Bn3
 BYTE   W06
 BYTE   N32  Cn4
 BYTE   W36
 BYTE   N17  Bn3
 BYTE   W18
 BYTE   An3
 BYTE   W18
// 046   ----------------------------------------
 BYTE   N11  Gn3
 BYTE   W12
 BYTE   N90  An3
 BYTE   W96
// 047   ----------------------------------------
 BYTE   N05  Cn4
 BYTE   W06
 BYTE   Bn3
 BYTE   W06
 BYTE   N32  Cn4
 BYTE   W36
 BYTE   N17  Bn3
 BYTE   W18
 BYTE   Cn4
 BYTE   W18
 BYTE   N11  Dn4
 BYTE   W12
// 048   ----------------------------------------
 BYTE   N90  An3
 BYTE   W96
// 049   ----------------------------------------
 BYTE   N05  Cn4
 BYTE   W06
 BYTE   Bn3
 BYTE   W06
 BYTE   N32  Cn4
 BYTE   W36
 BYTE   N17  Bn3
 BYTE   W18
 BYTE   An3
 BYTE   W18
 BYTE   N11  Gn3
 BYTE   W12
// 050   ----------------------------------------
 BYTE   N90  An3
 BYTE   W96
// 051   ----------------------------------------
 BYTE   N05  Cn4
 BYTE   W06
 BYTE   Bn3
 BYTE   W06
 BYTE   N32  Cn4
 BYTE   W36
 BYTE   N17  Bn3
 BYTE   W18
 BYTE   Cn4
 BYTE   W18
 BYTE   N11  Dn4
 BYTE   W12
// 052   ----------------------------------------
 BYTE   N90  An3
 BYTE   W96
// 053   ----------------------------------------
 BYTE   W96
// 054   ----------------------------------------
 BYTE   W96
// 055   ----------------------------------------
 BYTE   W96
// 056   ----------------------------------------
 BYTE   W96
 BYTE   PATT
  POIN2 Label_0_01655C57
 BYTE   PATT
  POIN2 Label_0_01655D1B
// 057   ----------------------------------------
 BYTE   BEND   c_v+0
 BYTE   W72
 BYTE   PATT
  POIN2 Label_0_01655DDF
 BYTE   PATT
  POIN2 Label_0_01655D1B
// 058   ----------------------------------------
 BYTE   BEND   c_v+0
 BYTE   W72
 BYTE   PATT
  POIN2 Label_0_01655EAB
 BYTE   PATT
  POIN2 Label_0_01655D1B
// 059   ----------------------------------------
 BYTE   BEND   c_v+0
 BYTE   W72
 BYTE   PATT
  POIN2 Label_0_01655DDF
 BYTE   PATT
  POIN2 Label_0_01655D1B
// 060   ----------------------------------------
 BYTE   BEND   c_v+0
 BYTE   W72
 BYTE   PATT
  POIN2 Label_0_01655A30
// 061   ----------------------------------------
 BYTE   VOL   74*GoldenSunIsaacsBattleThemeMeatOfJustice_mvl/mxv
 BYTE   N30  En4  v110
 BYTE   N30  Cn4
 BYTE   W30
 BYTE   N06  Dn4
 BYTE   N06  Bn3
 BYTE   W06
 BYTE   Cn4
 BYTE   N06  An3
 BYTE   W06
 BYTE   Dn4
 BYTE   N06  Bn3
 BYTE   W06
 BYTE   N24  En4
 BYTE   N24  Cn4
 BYTE   W24
 BYTE   An4
 BYTE   N24  En4
 BYTE   W24
// 062   ----------------------------------------
 BYTE   N30  Gn4
 BYTE   N30  Dn4
 BYTE   W30
 BYTE   N06  Fn4
 BYTE   N06  Dn4
 BYTE   W06
 BYTE   En4
 BYTE   N06  Cn4
 BYTE   W06
 BYTE   Dn4
 BYTE   N06  Bn3
 BYTE   W06
 BYTE   N24  Cn4
 BYTE   N24  An3
 BYTE   W24
 BYTE   Dn4
 BYTE   N24  Bn3
 BYTE   W24
// 063   ----------------------------------------
 BYTE   N30  Ds4
 BYTE   N30  Bn3
 BYTE   W30
 BYTE   N06  Ds4
 BYTE   N06  Bn3
 BYTE   W06
 BYTE   En4
 BYTE   N06  Cs4
 BYTE   W06
 BYTE   Fs4
 BYTE   N06  Ds4
 BYTE   W06
 BYTE   N48  En4
 BYTE   N48  Bn3
 BYTE   W48
// 064   ----------------------------------------
 BYTE   N30  Fs4
 BYTE   N30  Dn4
 BYTE   W30
 BYTE   N06  Fs4
 BYTE   N06  Dn4
 BYTE   W06
 BYTE   Gn4
 BYTE   N06  Dn4
 BYTE   W06
 BYTE   An4
 BYTE   N06  Dn4
 BYTE   W06
 BYTE   N24  Gn4
 BYTE   N24  Dn4
 BYTE   W24
 BYTE   Gs4
 BYTE   N24  En4
 BYTE   W24
// 065   ----------------------------------------
 BYTE   N04  An4
 BYTE   N04  En4
 BYTE   W06
 BYTE   En4
 BYTE   N04  Cn4
 BYTE   W06
 BYTE   An4
 BYTE   N04  En4
 BYTE   W06
 BYTE   Bn4
 BYTE   N04  En4
 BYTE   W06
 BYTE   En4
 BYTE   N04  Cn4
 BYTE   W06
 BYTE   Bn4
 BYTE   N04  En4
 BYTE   W06
 BYTE   N17  Cn5
 BYTE   N17  An4
 BYTE   W18
 BYTE   N04  En5
 BYTE   N04  Cn5
 BYTE   W06
 BYTE   Dn5
 BYTE   N04  Bn4
 BYTE   W06
 BYTE   Cn5
 BYTE   N04  An4
 BYTE   W06
 BYTE   Bn4
 BYTE   N04  Gn4
 BYTE   W06
 BYTE   An4
 BYTE   N04  Fn4
 BYTE   W06
 BYTE   Bn4
 BYTE   N04  Gn4
 BYTE   W06
 BYTE   Cn5
 BYTE   N04  An4
 BYTE   W06
// 066   ----------------------------------------
 BYTE   N17  Dn5
 BYTE   N17  Gn4
 BYTE   W18
 BYTE   Gn4
 BYTE   N17  Dn4
 BYTE   W18
 BYTE   N11  Dn5
 BYTE   N11  Gn4
 BYTE   W12
 BYTE   N17  Cn5
 BYTE   N17  Fn4
 BYTE   W18
 BYTE   Bn4
 BYTE   N17  Fn4
 BYTE   W18
 BYTE   N11  An4
 BYTE   N11  Fn4
 BYTE   W12
// 067   ----------------------------------------
 BYTE   N42  Bn4
 BYTE   N42  En4
 BYTE   W48
 BYTE   N17  Gs4
 BYTE   N17  En4
 BYTE   W18
 BYTE   An4
 BYTE   N17  Fn4
 BYTE   W18
 BYTE   N11  Bn4
 BYTE   N11  Gs4
 BYTE   W96
// 068   ----------------------------------------
 BYTE   W96
// 069   ----------------------------------------
 BYTE   W96
// 070   ----------------------------------------
 BYTE   W96
// 071   ----------------------------------------
 BYTE   W11
 BYTE   N05  Cn4  v110
 BYTE   W06
 BYTE   Bn3
 BYTE   W06
 BYTE   N32  Cn4
 BYTE   W36
 BYTE   N17  Bn3
 BYTE   W18
 BYTE   An3
 BYTE   W18
 BYTE   N11  Gn3
 BYTE   W12
// 072   ----------------------------------------
 BYTE   N90  An3
 BYTE   W96
// 073   ----------------------------------------
 BYTE   N05  Cn4
 BYTE   W06
 BYTE   Bn3
 BYTE   W06
 BYTE   N32  Cn4
 BYTE   W36
 BYTE   N17  Bn3
 BYTE   W18
 BYTE   Cn4
 BYTE   W18
 BYTE   N11  Dn4
 BYTE   W12
// 074   ----------------------------------------
 BYTE   N90  An3
 BYTE   W96
// 075   ----------------------------------------
 BYTE   N05  Cn4
 BYTE   W06
 BYTE   Bn3
 BYTE   W06
 BYTE   N32  Cn4
 BYTE   W36
 BYTE   N17  Bn3
 BYTE   W18
 BYTE   An3
 BYTE   W18
 BYTE   N11  Gn3
 BYTE   W12
// 076   ----------------------------------------
 BYTE   N90  An3
 BYTE   W96
// 077   ----------------------------------------
 BYTE   N05  Cn4
 BYTE   W06
 BYTE   Bn3
 BYTE   W06
 BYTE   N32  Cn4
 BYTE   W36
 BYTE   N17  Bn3
 BYTE   W18
 BYTE   Cn4
 BYTE   W18
 BYTE   N11  Dn4
 BYTE   W12
// 078   ----------------------------------------
 BYTE   N90  An3
 BYTE   W96
// 079   ----------------------------------------
 BYTE   VOL   74*GoldenSunIsaacsBattleThemeMeatOfJustice_mvl/mxv
 BYTE   W06
 BYTE   VOL   72*GoldenSunIsaacsBattleThemeMeatOfJustice_mvl/mxv
 BYTE   W06
 BYTE   VOL   71*GoldenSunIsaacsBattleThemeMeatOfJustice_mvl/mxv
 BYTE   W06
 BYTE   VOL   69*GoldenSunIsaacsBattleThemeMeatOfJustice_mvl/mxv
 BYTE   W06
 BYTE   VOL   67*GoldenSunIsaacsBattleThemeMeatOfJustice_mvl/mxv
 BYTE   W06
 BYTE   VOL   66*GoldenSunIsaacsBattleThemeMeatOfJustice_mvl/mxv
 BYTE   W06
 BYTE   VOL   64*GoldenSunIsaacsBattleThemeMeatOfJustice_mvl/mxv
 BYTE   W06
 BYTE   VOL   63*GoldenSunIsaacsBattleThemeMeatOfJustice_mvl/mxv
 BYTE   W06
 BYTE   VOL   61*GoldenSunIsaacsBattleThemeMeatOfJustice_mvl/mxv
 BYTE   W06
 BYTE   VOL   59*GoldenSunIsaacsBattleThemeMeatOfJustice_mvl/mxv
 BYTE   W06
 BYTE   VOL   58*GoldenSunIsaacsBattleThemeMeatOfJustice_mvl/mxv
 BYTE   W06
 BYTE   VOL   56*GoldenSunIsaacsBattleThemeMeatOfJustice_mvl/mxv
 BYTE   W06
 BYTE   VOL   55*GoldenSunIsaacsBattleThemeMeatOfJustice_mvl/mxv
 BYTE   W06
 BYTE   VOL   53*GoldenSunIsaacsBattleThemeMeatOfJustice_mvl/mxv
 BYTE   W06
 BYTE   VOL   52*GoldenSunIsaacsBattleThemeMeatOfJustice_mvl/mxv
 BYTE   W06
 BYTE   VOL   50*GoldenSunIsaacsBattleThemeMeatOfJustice_mvl/mxv
 BYTE   W06
// 080   ----------------------------------------
 BYTE   VOL   48*GoldenSunIsaacsBattleThemeMeatOfJustice_mvl/mxv
 BYTE   W06
 BYTE   VOL   47*GoldenSunIsaacsBattleThemeMeatOfJustice_mvl/mxv
 BYTE   W06
 BYTE   VOL   45*GoldenSunIsaacsBattleThemeMeatOfJustice_mvl/mxv
 BYTE   W06
 BYTE   VOL   44*GoldenSunIsaacsBattleThemeMeatOfJustice_mvl/mxv
 BYTE   W06
 BYTE   VOL   42*GoldenSunIsaacsBattleThemeMeatOfJustice_mvl/mxv
 BYTE   W06
 BYTE   VOL   41*GoldenSunIsaacsBattleThemeMeatOfJustice_mvl/mxv
 BYTE   W06
 BYTE   VOL   39*GoldenSunIsaacsBattleThemeMeatOfJustice_mvl/mxv
 BYTE   W06
 BYTE   VOL   38*GoldenSunIsaacsBattleThemeMeatOfJustice_mvl/mxv
 BYTE   W06
 BYTE   VOL   37*GoldenSunIsaacsBattleThemeMeatOfJustice_mvl/mxv
 BYTE   W06
 BYTE   VOL   35*GoldenSunIsaacsBattleThemeMeatOfJustice_mvl/mxv
 BYTE   W06
 BYTE   VOL   34*GoldenSunIsaacsBattleThemeMeatOfJustice_mvl/mxv
 BYTE   W06
 BYTE   VOL   32*GoldenSunIsaacsBattleThemeMeatOfJustice_mvl/mxv
 BYTE   W06
 BYTE   VOL   31*GoldenSunIsaacsBattleThemeMeatOfJustice_mvl/mxv
 BYTE   W06
 BYTE   VOL   29*GoldenSunIsaacsBattleThemeMeatOfJustice_mvl/mxv
 BYTE   W06
 BYTE   VOL   28*GoldenSunIsaacsBattleThemeMeatOfJustice_mvl/mxv
 BYTE   W06
 BYTE   VOL   27*GoldenSunIsaacsBattleThemeMeatOfJustice_mvl/mxv
 BYTE   W06
// 081   ----------------------------------------
 BYTE   VOL   25*GoldenSunIsaacsBattleThemeMeatOfJustice_mvl/mxv
 BYTE   W06
 BYTE   VOL   24*GoldenSunIsaacsBattleThemeMeatOfJustice_mvl/mxv
 BYTE   W06
 BYTE   VOL   23*GoldenSunIsaacsBattleThemeMeatOfJustice_mvl/mxv
 BYTE   W06
 BYTE   VOL   21*GoldenSunIsaacsBattleThemeMeatOfJustice_mvl/mxv
 BYTE   W06
 BYTE   VOL   20*GoldenSunIsaacsBattleThemeMeatOfJustice_mvl/mxv
 BYTE   W06
 BYTE   VOL   19*GoldenSunIsaacsBattleThemeMeatOfJustice_mvl/mxv
 BYTE   W06
 BYTE   VOL   17*GoldenSunIsaacsBattleThemeMeatOfJustice_mvl/mxv
 BYTE   W06
 BYTE   VOL   16*GoldenSunIsaacsBattleThemeMeatOfJustice_mvl/mxv
 BYTE   W06
 BYTE   VOL   15*GoldenSunIsaacsBattleThemeMeatOfJustice_mvl/mxv
 BYTE   W06
 BYTE   VOL   13*GoldenSunIsaacsBattleThemeMeatOfJustice_mvl/mxv
 BYTE   W06
 BYTE   VOL   12*GoldenSunIsaacsBattleThemeMeatOfJustice_mvl/mxv
 BYTE   W06
 BYTE   VOL   11*GoldenSunIsaacsBattleThemeMeatOfJustice_mvl/mxv
 BYTE   W06
 BYTE   VOL   10*GoldenSunIsaacsBattleThemeMeatOfJustice_mvl/mxv
 BYTE   W06
 BYTE   VOL   8*GoldenSunIsaacsBattleThemeMeatOfJustice_mvl/mxv
 BYTE   W06
 BYTE   VOL   7*GoldenSunIsaacsBattleThemeMeatOfJustice_mvl/mxv
 BYTE   W06
 BYTE   VOL   6*GoldenSunIsaacsBattleThemeMeatOfJustice_mvl/mxv
 BYTE   W06
// 082   ----------------------------------------
 BYTE   VOL   5*GoldenSunIsaacsBattleThemeMeatOfJustice_mvl/mxv
 BYTE   W06
 BYTE   VOL   3*GoldenSunIsaacsBattleThemeMeatOfJustice_mvl/mxv
 BYTE   W06
 BYTE   VOL   2*GoldenSunIsaacsBattleThemeMeatOfJustice_mvl/mxv
 BYTE   W06
 BYTE   VOL   1*GoldenSunIsaacsBattleThemeMeatOfJustice_mvl/mxv
 BYTE   W06
 BYTE   VOL   0*GoldenSunIsaacsBattleThemeMeatOfJustice_mvl/mxv
 BYTE   W06
 BYTE   VOL   0*GoldenSunIsaacsBattleThemeMeatOfJustice_mvl/mxv
 BYTE   W06
 BYTE   VOL   0*GoldenSunIsaacsBattleThemeMeatOfJustice_mvl/mxv
 BYTE   W06
 BYTE   VOL   0*GoldenSunIsaacsBattleThemeMeatOfJustice_mvl/mxv
 BYTE   W06
 BYTE   VOL   0*GoldenSunIsaacsBattleThemeMeatOfJustice_mvl/mxv
 BYTE   W06
 BYTE   VOL   0*GoldenSunIsaacsBattleThemeMeatOfJustice_mvl/mxv
 BYTE   W06
 BYTE   VOL   0*GoldenSunIsaacsBattleThemeMeatOfJustice_mvl/mxv
 BYTE   W06
 BYTE   VOL   0*GoldenSunIsaacsBattleThemeMeatOfJustice_mvl/mxv
 BYTE   W06
 BYTE   VOL   0*GoldenSunIsaacsBattleThemeMeatOfJustice_mvl/mxv
 BYTE   W06
 BYTE   VOL   0*GoldenSunIsaacsBattleThemeMeatOfJustice_mvl/mxv
 BYTE   W06
 BYTE   VOL   0*GoldenSunIsaacsBattleThemeMeatOfJustice_mvl/mxv
 BYTE   W06
 BYTE   VOL   0*GoldenSunIsaacsBattleThemeMeatOfJustice_mvl/mxv
 BYTE   W03
 BYTE   BEND   c_v-64
 BYTE   N90  Cs4  v110
 BYTE   BEND   c_v-64
 BYTE   BEND   c_v-64
 BYTE   BEND   c_v-63
 BYTE   BEND   c_v-63
 BYTE   BEND   c_v-63
 BYTE   BEND   c_v-62
 BYTE   BEND   c_v-62
 BYTE   BEND   c_v-62
 BYTE   BEND   c_v-61
 BYTE   BEND   c_v-61
 BYTE   BEND   c_v-61
 BYTE   BEND   c_v-60
 BYTE   BEND   c_v-60
 BYTE   BEND   c_v-60
 BYTE   BEND   c_v-59
 BYTE   BEND   c_v-59
 BYTE   BEND   c_v-59
 BYTE   BEND   c_v-58
 BYTE   BEND   c_v-58
 BYTE   BEND   c_v-58
 BYTE   BEND   c_v-57
 BYTE   BEND   c_v-57
 BYTE   BEND   c_v-57
 BYTE   VOL   0*GoldenSunIsaacsBattleThemeMeatOfJustice_mvl/mxv
 BYTE   BEND   c_v-56
 BYTE   BEND   c_v-56
 BYTE   BEND   c_v-56
 BYTE   BEND   c_v-55
 BYTE   BEND   c_v-55
 BYTE   BEND   c_v-55
 BYTE   BEND   c_v-54
 BYTE   BEND   c_v-54
 BYTE   BEND   c_v-54
 BYTE   BEND   c_v-53
 BYTE   BEND   c_v-53
 BYTE   BEND   c_v-53
 BYTE   BEND   c_v-52
 BYTE   BEND   c_v-52
 BYTE   BEND   c_v-52
 BYTE   BEND   c_v-51
 BYTE   BEND   c_v-51
 BYTE   BEND   c_v-51
 BYTE   BEND   c_v-50
 BYTE   BEND   c_v-50
 BYTE   BEND   c_v-50
 BYTE   BEND   c_v-49
 BYTE   BEND   c_v-49
 BYTE   BEND   c_v-49
 BYTE   BEND   c_v-48
 BYTE   BEND   c_v-48
 BYTE   BEND   c_v-48
 BYTE   BEND   c_v-47
 BYTE   BEND   c_v-47
 BYTE   BEND   c_v-47
 BYTE   BEND   c_v-46
 BYTE   BEND   c_v-46
 BYTE   BEND   c_v-46
 BYTE   BEND   c_v-45
 BYTE   BEND   c_v-45
 BYTE   BEND   c_v-45
 BYTE   BEND   c_v-44
 BYTE   BEND   c_v-44
 BYTE   BEND   c_v-44
 BYTE   BEND   c_v-43
 BYTE   BEND   c_v-43
 BYTE   BEND   c_v-43
 BYTE   BEND   c_v-42
 BYTE   BEND   c_v-42
 BYTE   BEND   c_v-42
 BYTE   BEND   c_v-41
 BYTE   BEND   c_v-41
 BYTE   BEND   c_v-41
 BYTE   VOL   0*GoldenSunIsaacsBattleThemeMeatOfJustice_mvl/mxv
 BYTE   BEND   c_v-40
 BYTE   BEND   c_v-40
 BYTE   BEND   c_v-40
 BYTE   BEND   c_v-39
 BYTE   BEND   c_v-39
 BYTE   BEND   c_v-39
 BYTE   BEND   c_v-38
 BYTE   BEND   c_v-38
 BYTE   BEND   c_v-38
 BYTE   BEND   c_v-37
 BYTE   BEND   c_v-37
 BYTE   BEND   c_v-37
 BYTE   BEND   c_v-36
 BYTE   BEND   c_v-36
 BYTE   BEND   c_v-36
 BYTE   BEND   c_v-35
 BYTE   BEND   c_v-35
 BYTE   BEND   c_v-35
 BYTE   BEND   c_v-34
 BYTE   BEND   c_v-34
 BYTE   BEND   c_v-34
 BYTE   BEND   c_v-33
 BYTE   BEND   c_v-33
 BYTE   BEND   c_v-33
 BYTE   BEND   c_v-32
 BYTE   BEND   c_v-32
 BYTE   BEND   c_v-32
 BYTE   BEND   c_v-31
 BYTE   BEND   c_v-31
 BYTE   BEND   c_v-31
 BYTE   BEND   c_v-30
 BYTE   BEND   c_v-30
 BYTE   BEND   c_v-30
 BYTE   BEND   c_v-29
 BYTE   BEND   c_v-29
 BYTE   BEND   c_v-29
 BYTE   BEND   c_v-28
 BYTE   BEND   c_v-28
 BYTE   BEND   c_v-28
 BYTE   BEND   c_v-27
 BYTE   BEND   c_v-27
 BYTE   BEND   c_v-27
 BYTE   BEND   c_v-26
 BYTE   BEND   c_v-26
 BYTE   BEND   c_v-26
 BYTE   BEND   c_v-25
 BYTE   BEND   c_v-25
 BYTE   BEND   c_v-25
 BYTE   VOL   0*GoldenSunIsaacsBattleThemeMeatOfJustice_mvl/mxv
 BYTE   BEND   c_v-24
 BYTE   BEND   c_v-24
 BYTE   BEND   c_v-24
 BYTE   BEND   c_v-23
 BYTE   BEND   c_v-23
 BYTE   BEND   c_v-23
 BYTE   BEND   c_v-22
 BYTE   BEND   c_v-22
 BYTE   BEND   c_v-22
 BYTE   BEND   c_v-21
 BYTE   BEND   c_v-21
 BYTE   BEND   c_v-21
 BYTE   BEND   c_v-20
 BYTE   BEND   c_v-20
 BYTE   BEND   c_v-20
 BYTE   BEND   c_v-19
 BYTE   BEND   c_v-19
 BYTE   BEND   c_v-19
 BYTE   BEND   c_v-18
 BYTE   BEND   c_v-18
 BYTE   BEND   c_v-18
 BYTE   BEND   c_v-17
 BYTE   BEND   c_v-17
 BYTE   BEND   c_v-17
 BYTE   BEND   c_v-16
 BYTE   BEND   c_v-16
 BYTE   BEND   c_v-16
 BYTE   BEND   c_v-15
 BYTE   BEND   c_v-15
 BYTE   BEND   c_v-15
 BYTE   BEND   c_v-14
 BYTE   BEND   c_v-14
 BYTE   BEND   c_v-14
 BYTE   BEND   c_v-13
 BYTE   BEND   c_v-13
 BYTE   BEND   c_v-13
 BYTE   BEND   c_v-12
 BYTE   BEND   c_v-12
 BYTE   BEND   c_v-12
 BYTE   BEND   c_v-11
 BYTE   BEND   c_v-11
 BYTE   BEND   c_v-11
 BYTE   BEND   c_v-10
 BYTE   BEND   c_v-10
 BYTE   BEND   c_v-10
 BYTE   BEND   c_v-9
 BYTE   BEND   c_v-9
 BYTE   BEND   c_v-9
 BYTE   BEND   c_v-8
 BYTE   VOL   0*GoldenSunIsaacsBattleThemeMeatOfJustice_mvl/mxv
 BYTE   BEND   c_v-8
 BYTE   BEND   c_v-8
 BYTE   BEND   c_v-7
 BYTE   BEND   c_v-7
 BYTE   BEND   c_v-7
 BYTE   BEND   c_v-6
 BYTE   BEND   c_v-6
 BYTE   BEND   c_v-6
 BYTE   BEND   c_v-5
 BYTE   BEND   c_v-5
 BYTE   BEND   c_v-5
 BYTE   BEND   c_v-4
 BYTE   BEND   c_v-4
 BYTE   BEND   c_v-4
 BYTE   BEND   c_v-3
 BYTE   BEND   c_v-3
 BYTE   BEND   c_v-3
 BYTE   BEND   c_v-2
 BYTE   BEND   c_v-2
 BYTE   BEND   c_v-2
 BYTE   BEND   c_v-1
 BYTE   BEND   c_v-1
 BYTE   BEND   c_v-1
 BYTE   BEND   c_v+0
 BYTE   W03
// 083   ----------------------------------------
 BYTE   VOL   0*GoldenSunIsaacsBattleThemeMeatOfJustice_mvl/mxv
 BYTE   W06
 BYTE   VOL   0*GoldenSunIsaacsBattleThemeMeatOfJustice_mvl/mxv
 BYTE   W06
 BYTE   VOL   0*GoldenSunIsaacsBattleThemeMeatOfJustice_mvl/mxv
 BYTE   W06
 BYTE   VOL   0*GoldenSunIsaacsBattleThemeMeatOfJustice_mvl/mxv
 BYTE   W06
 BYTE   VOL   0*GoldenSunIsaacsBattleThemeMeatOfJustice_mvl/mxv
 BYTE   W06
 BYTE   VOL   0*GoldenSunIsaacsBattleThemeMeatOfJustice_mvl/mxv
 BYTE   W06
 BYTE   VOL   0*GoldenSunIsaacsBattleThemeMeatOfJustice_mvl/mxv
 BYTE   W06
 BYTE   VOL   0*GoldenSunIsaacsBattleThemeMeatOfJustice_mvl/mxv
 BYTE   W06
 BYTE   VOL   0*GoldenSunIsaacsBattleThemeMeatOfJustice_mvl/mxv
 BYTE   W06
 BYTE   VOL   0*GoldenSunIsaacsBattleThemeMeatOfJustice_mvl/mxv
 BYTE   W06
 BYTE   VOL   0*GoldenSunIsaacsBattleThemeMeatOfJustice_mvl/mxv
 BYTE   W06
 BYTE   VOL   0*GoldenSunIsaacsBattleThemeMeatOfJustice_mvl/mxv
 BYTE   W02
 BYTE   BEND   c_v-64
 BYTE   N90  Bn3  v110
 BYTE   BEND   c_v-64
 BYTE   BEND   c_v-64
 BYTE   BEND   c_v-63
 BYTE   BEND   c_v-63
 BYTE   BEND   c_v-63
 BYTE   BEND   c_v-62
 BYTE   BEND   c_v-62
 BYTE   BEND   c_v-62
 BYTE   BEND   c_v-61
 BYTE   BEND   c_v-61
 BYTE   BEND   c_v-61
 BYTE   BEND   c_v-60
 BYTE   BEND   c_v-60
 BYTE   BEND   c_v-60
 BYTE   BEND   c_v-59
 BYTE   BEND   c_v-59
 BYTE   BEND   c_v-59
 BYTE   BEND   c_v-58
 BYTE   BEND   c_v-58
 BYTE   BEND   c_v-58
 BYTE   BEND   c_v-57
 BYTE   BEND   c_v-57
 BYTE   BEND   c_v-57
 BYTE   BEND   c_v-56
 BYTE   BEND   c_v-56
 BYTE   BEND   c_v-56
 BYTE   BEND   c_v-55
 BYTE   BEND   c_v-55
 BYTE   BEND   c_v-55
 BYTE   VOL   0*GoldenSunIsaacsBattleThemeMeatOfJustice_mvl/mxv
 BYTE   BEND   c_v-54
 BYTE   BEND   c_v-54
 BYTE   BEND   c_v-54
 BYTE   BEND   c_v-53
 BYTE   BEND   c_v-53
 BYTE   BEND   c_v-53
 BYTE   BEND   c_v-52
 BYTE   BEND   c_v-52
 BYTE   BEND   c_v-52
 BYTE   BEND   c_v-51
 BYTE   BEND   c_v-51
 BYTE   BEND   c_v-51
 BYTE   BEND   c_v-50
 BYTE   BEND   c_v-50
 BYTE   BEND   c_v-50
 BYTE   BEND   c_v-49
 BYTE   BEND   c_v-49
 BYTE   BEND   c_v-49
 BYTE   BEND   c_v-48
 BYTE   BEND   c_v-48
 BYTE   BEND   c_v-48
 BYTE   BEND   c_v-47
 BYTE   BEND   c_v-47
 BYTE   BEND   c_v-47
 BYTE   BEND   c_v-46
 BYTE   BEND   c_v-46
 BYTE   BEND   c_v-46
 BYTE   BEND   c_v-45
 BYTE   BEND   c_v-45
 BYTE   BEND   c_v-45
 BYTE   BEND   c_v-44
 BYTE   BEND   c_v-44
 BYTE   BEND   c_v-44
 BYTE   BEND   c_v-43
 BYTE   BEND   c_v-43
 BYTE   BEND   c_v-43
 BYTE   BEND   c_v-42
 BYTE   BEND   c_v-42
 BYTE   BEND   c_v-42
 BYTE   BEND   c_v-41
 BYTE   BEND   c_v-41
 BYTE   BEND   c_v-41
 BYTE   BEND   c_v-40
 BYTE   BEND   c_v-40
 BYTE   BEND   c_v-40
 BYTE   BEND   c_v-39
 BYTE   BEND   c_v-39
 BYTE   BEND   c_v-39
 BYTE   VOL   0*GoldenSunIsaacsBattleThemeMeatOfJustice_mvl/mxv
 BYTE   BEND   c_v-38
 BYTE   BEND   c_v-38
 BYTE   BEND   c_v-38
 BYTE   BEND   c_v-37
 BYTE   BEND   c_v-37
 BYTE   BEND   c_v-37
 BYTE   BEND   c_v-36
 BYTE   BEND   c_v-36
 BYTE   BEND   c_v-36
 BYTE   BEND   c_v-35
 BYTE   BEND   c_v-35
 BYTE   BEND   c_v-35
 BYTE   BEND   c_v-34
 BYTE   BEND   c_v-34
 BYTE   BEND   c_v-34
 BYTE   BEND   c_v-33
 BYTE   BEND   c_v-33
 BYTE   BEND   c_v-33
 BYTE   BEND   c_v-32
 BYTE   BEND   c_v-32
 BYTE   BEND   c_v-32
 BYTE   BEND   c_v-31
 BYTE   BEND   c_v-31
 BYTE   BEND   c_v-31
 BYTE   BEND   c_v-30
 BYTE   BEND   c_v-30
 BYTE   BEND   c_v-30
 BYTE   BEND   c_v-29
 BYTE   BEND   c_v-29
 BYTE   BEND   c_v-29
 BYTE   BEND   c_v-28
 BYTE   BEND   c_v-28
 BYTE   BEND   c_v-28
 BYTE   BEND   c_v-27
 BYTE   BEND   c_v-27
 BYTE   BEND   c_v-27
 BYTE   BEND   c_v-26
 BYTE   BEND   c_v-26
 BYTE   BEND   c_v-26
 BYTE   BEND   c_v-25
 BYTE   BEND   c_v-25
 BYTE   BEND   c_v-25
 BYTE   BEND   c_v-24
 BYTE   BEND   c_v-24
 BYTE   BEND   c_v-24
 BYTE   BEND   c_v-23
 BYTE   BEND   c_v-23
 BYTE   BEND   c_v-23
 BYTE   VOL   0*GoldenSunIsaacsBattleThemeMeatOfJustice_mvl/mxv
 BYTE   BEND   c_v-22
 BYTE   BEND   c_v-22
 BYTE   BEND   c_v-22
 BYTE   BEND   c_v-21
 BYTE   BEND   c_v-21
 BYTE   BEND   c_v-21
 BYTE   BEND   c_v-20
 BYTE   BEND   c_v-20
 BYTE   BEND   c_v-20
 BYTE   BEND   c_v-19
 BYTE   BEND   c_v-19
 BYTE   BEND   c_v-19
 BYTE   BEND   c_v-18
 BYTE   BEND   c_v-18
 BYTE   BEND   c_v-18
 BYTE   BEND   c_v-17
 BYTE   BEND   c_v-17
 BYTE   BEND   c_v-17
 BYTE   BEND   c_v-16
 BYTE   BEND   c_v-16
 BYTE   BEND   c_v-16
 BYTE   BEND   c_v-15
 BYTE   BEND   c_v-15
 BYTE   BEND   c_v-15
 BYTE   BEND   c_v-14
 BYTE   BEND   c_v-14
 BYTE   BEND   c_v-14
 BYTE   BEND   c_v-13
 BYTE   BEND   c_v-13
 BYTE   BEND   c_v-13
 BYTE   BEND   c_v-12
 BYTE   BEND   c_v-12
 BYTE   BEND   c_v-12
 BYTE   BEND   c_v-11
 BYTE   BEND   c_v-11
 BYTE   BEND   c_v-11
 BYTE   BEND   c_v-10
 BYTE   BEND   c_v-10
 BYTE   BEND   c_v-10
 BYTE   BEND   c_v-9
 BYTE   BEND   c_v-9
 BYTE   BEND   c_v-9
 BYTE   BEND   c_v-8
 BYTE   BEND   c_v-8
 BYTE   BEND   c_v-8
 BYTE   BEND   c_v-7
 BYTE   BEND   c_v-7
 BYTE   BEND   c_v-7
 BYTE   BEND   c_v-6
 BYTE   VOL   0*GoldenSunIsaacsBattleThemeMeatOfJustice_mvl/mxv
 BYTE   BEND   c_v-6
 BYTE   BEND   c_v-6
 BYTE   BEND   c_v-5
 BYTE   BEND   c_v-5
 BYTE   BEND   c_v-5
 BYTE   BEND   c_v-4
 BYTE   BEND   c_v-4
 BYTE   BEND   c_v-4
 BYTE   BEND   c_v-3
 BYTE   BEND   c_v-3
 BYTE   BEND   c_v-3
 BYTE   BEND   c_v-2
 BYTE   BEND   c_v-2
 BYTE   BEND   c_v-2
 BYTE   BEND   c_v-1
 BYTE   BEND   c_v-1
 BYTE   BEND   c_v-1
 BYTE   BEND   c_v+0
 BYTE   W03
 BYTE   VOL   0*GoldenSunIsaacsBattleThemeMeatOfJustice_mvl/mxv
 BYTE   W06
 BYTE   VOL   0*GoldenSunIsaacsBattleThemeMeatOfJustice_mvl/mxv
 BYTE   W06
 BYTE   VOL   0*GoldenSunIsaacsBattleThemeMeatOfJustice_mvl/mxv
 BYTE   W06
 BYTE   VOL   0*GoldenSunIsaacsBattleThemeMeatOfJustice_mvl/mxv
 BYTE   W06
 BYTE   VOL   0*GoldenSunIsaacsBattleThemeMeatOfJustice_mvl/mxv
 BYTE   W06
// 084   ----------------------------------------
 BYTE   VOL   0*GoldenSunIsaacsBattleThemeMeatOfJustice_mvl/mxv
 BYTE   W06
 BYTE   VOL   0*GoldenSunIsaacsBattleThemeMeatOfJustice_mvl/mxv
 BYTE   W06
 BYTE   VOL   0*GoldenSunIsaacsBattleThemeMeatOfJustice_mvl/mxv
 BYTE   W06
 BYTE   VOL   0*GoldenSunIsaacsBattleThemeMeatOfJustice_mvl/mxv
 BYTE   W06
 BYTE   VOL   0*GoldenSunIsaacsBattleThemeMeatOfJustice_mvl/mxv
 BYTE   W06
 BYTE   VOL   0*GoldenSunIsaacsBattleThemeMeatOfJustice_mvl/mxv
 BYTE   W06
 BYTE   VOL   0*GoldenSunIsaacsBattleThemeMeatOfJustice_mvl/mxv
 BYTE   W01
 BYTE   BEND   c_v-64
 BYTE   N90  An3  v110
 BYTE   BEND   c_v-64
 BYTE   BEND   c_v-64
 BYTE   BEND   c_v-63
 BYTE   BEND   c_v-63
 BYTE   BEND   c_v-63
 BYTE   BEND   c_v-62
 BYTE   BEND   c_v-62
 BYTE   BEND   c_v-62
 BYTE   BEND   c_v-61
 BYTE   BEND   c_v-61
 BYTE   BEND   c_v-61
 BYTE   BEND   c_v-60
 BYTE   BEND   c_v-60
 BYTE   BEND   c_v-60
 BYTE   BEND   c_v-59
 BYTE   BEND   c_v-59
 BYTE   BEND   c_v-59
 BYTE   BEND   c_v-58
 BYTE   BEND   c_v-58
 BYTE   BEND   c_v-58
 BYTE   BEND   c_v-57
 BYTE   BEND   c_v-57
 BYTE   BEND   c_v-57
 BYTE   BEND   c_v-56
 BYTE   BEND   c_v-56
 BYTE   BEND   c_v-56
 BYTE   BEND   c_v-55
 BYTE   BEND   c_v-55
 BYTE   BEND   c_v-55
 BYTE   BEND   c_v-54
 BYTE   BEND   c_v-54
 BYTE   BEND   c_v-54
 BYTE   BEND   c_v-53
 BYTE   BEND   c_v-53
 BYTE   BEND   c_v-53
 BYTE   VOL   0*GoldenSunIsaacsBattleThemeMeatOfJustice_mvl/mxv
 BYTE   BEND   c_v-52
 BYTE   BEND   c_v-52
 BYTE   BEND   c_v-52
 BYTE   BEND   c_v-51
 BYTE   BEND   c_v-51
 BYTE   BEND   c_v-51
 BYTE   BEND   c_v-50
 BYTE   BEND   c_v-50
 BYTE   BEND   c_v-50
 BYTE   BEND   c_v-49
 BYTE   BEND   c_v-49
 BYTE   BEND   c_v-49
 BYTE   BEND   c_v-48
 BYTE   BEND   c_v-48
 BYTE   BEND   c_v-48
 BYTE   BEND   c_v-47
 BYTE   BEND   c_v-47
 BYTE   BEND   c_v-47
 BYTE   BEND   c_v-46
 BYTE   BEND   c_v-46
 BYTE   BEND   c_v-46
 BYTE   BEND   c_v-45
 BYTE   BEND   c_v-45
 BYTE   BEND   c_v-45
 BYTE   BEND   c_v-44
 BYTE   BEND   c_v-44
 BYTE   BEND   c_v-44
 BYTE   BEND   c_v-43
 BYTE   BEND   c_v-43
 BYTE   BEND   c_v-43
 BYTE   BEND   c_v-42
 BYTE   BEND   c_v-42
 BYTE   BEND   c_v-42
 BYTE   BEND   c_v-41
 BYTE   BEND   c_v-41
 BYTE   BEND   c_v-41
 BYTE   BEND   c_v-40
 BYTE   BEND   c_v-40
 BYTE   BEND   c_v-40
 BYTE   BEND   c_v-39
 BYTE   BEND   c_v-39
 BYTE   BEND   c_v-39
 BYTE   BEND   c_v-38
 BYTE   BEND   c_v-38
 BYTE   BEND   c_v-38
 BYTE   BEND   c_v-37
 BYTE   BEND   c_v-37
 BYTE   BEND   c_v-37
 BYTE   VOL   0*GoldenSunIsaacsBattleThemeMeatOfJustice_mvl/mxv
 BYTE   BEND   c_v-36
 BYTE   BEND   c_v-36
 BYTE   BEND   c_v-36
 BYTE   BEND   c_v-35
 BYTE   BEND   c_v-35
 BYTE   BEND   c_v-35
 BYTE   BEND   c_v-34
 BYTE   BEND   c_v-34
 BYTE   BEND   c_v-34
 BYTE   BEND   c_v-33
 BYTE   BEND   c_v-33
 BYTE   BEND   c_v-33
 BYTE   BEND   c_v-32
 BYTE   BEND   c_v-32
 BYTE   BEND   c_v-32
 BYTE   BEND   c_v-31
 BYTE   BEND   c_v-31
 BYTE   BEND   c_v-31
 BYTE   BEND   c_v-30
 BYTE   BEND   c_v-30
 BYTE   BEND   c_v-30
 BYTE   BEND   c_v-29
 BYTE   BEND   c_v-29
 BYTE   BEND   c_v-29
 BYTE   BEND   c_v-28
 BYTE   BEND   c_v-28
 BYTE   BEND   c_v-28
 BYTE   BEND   c_v-27
 BYTE   BEND   c_v-27
 BYTE   BEND   c_v-27
 BYTE   BEND   c_v-26
 BYTE   BEND   c_v-26
 BYTE   BEND   c_v-26
 BYTE   BEND   c_v-25
 BYTE   BEND   c_v-25
 BYTE   BEND   c_v-25
 BYTE   BEND   c_v-24
 BYTE   BEND   c_v-24
 BYTE   BEND   c_v-24
 BYTE   BEND   c_v-23
 BYTE   BEND   c_v-23
 BYTE   BEND   c_v-23
 BYTE   BEND   c_v-22
 BYTE   BEND   c_v-22
 BYTE   BEND   c_v-22
 BYTE   BEND   c_v-21
 BYTE   BEND   c_v-21
 BYTE   BEND   c_v-21
 BYTE   BEND   c_v-20
 BYTE   VOL   0*GoldenSunIsaacsBattleThemeMeatOfJustice_mvl/mxv
 BYTE   BEND   c_v-20
 BYTE   BEND   c_v-20
 BYTE   BEND   c_v-19
 BYTE   BEND   c_v-19
 BYTE   BEND   c_v-19
 BYTE   BEND   c_v-18
 BYTE   BEND   c_v-18
 BYTE   BEND   c_v-18
 BYTE   BEND   c_v-17
 BYTE   BEND   c_v-17
 BYTE   BEND   c_v-17
 BYTE   BEND   c_v-16
 BYTE   BEND   c_v-16
 BYTE   BEND   c_v-16
 BYTE   BEND   c_v-15
 BYTE   BEND   c_v-15
 BYTE   BEND   c_v-15
 BYTE   BEND   c_v-14
 BYTE   BEND   c_v-14
 BYTE   BEND   c_v-14
 BYTE   BEND   c_v-13
 BYTE   BEND   c_v-13
 BYTE   BEND   c_v-13
 BYTE   BEND   c_v-12
 BYTE   BEND   c_v-12
 BYTE   BEND   c_v-12
 BYTE   BEND   c_v-11
 BYTE   BEND   c_v-11
 BYTE   BEND   c_v-11
 BYTE   BEND   c_v-10
 BYTE   BEND   c_v-10
 BYTE   BEND   c_v-10
 BYTE   BEND   c_v-9
 BYTE   BEND   c_v-9
 BYTE   BEND   c_v-9
 BYTE   BEND   c_v-8
 BYTE   BEND   c_v-8
 BYTE   BEND   c_v-8
 BYTE   BEND   c_v-7
 BYTE   BEND   c_v-7
 BYTE   BEND   c_v-7
 BYTE   BEND   c_v-6
 BYTE   BEND   c_v-6
 BYTE   BEND   c_v-6
 BYTE   BEND   c_v-5
 BYTE   BEND   c_v-5
 BYTE   BEND   c_v-5
 BYTE   BEND   c_v-4
 BYTE   VOL   0*GoldenSunIsaacsBattleThemeMeatOfJustice_mvl/mxv
 BYTE   BEND   c_v-4
 BYTE   BEND   c_v-4
 BYTE   BEND   c_v-3
 BYTE   BEND   c_v-3
 BYTE   BEND   c_v-3
 BYTE   BEND   c_v-2
 BYTE   BEND   c_v-2
 BYTE   BEND   c_v-2
 BYTE   BEND   c_v-1
 BYTE   BEND   c_v-1
 BYTE   BEND   c_v-1
 BYTE   BEND   c_v+0
 BYTE   W04
 BYTE   VOL   0*GoldenSunIsaacsBattleThemeMeatOfJustice_mvl/mxv
 BYTE   W06
 BYTE   VOL   0*GoldenSunIsaacsBattleThemeMeatOfJustice_mvl/mxv
 BYTE   W06
 BYTE   VOL   0*GoldenSunIsaacsBattleThemeMeatOfJustice_mvl/mxv
 BYTE   W06
 BYTE   VOL   0*GoldenSunIsaacsBattleThemeMeatOfJustice_mvl/mxv
 BYTE   W06
 BYTE   VOL   0*GoldenSunIsaacsBattleThemeMeatOfJustice_mvl/mxv
 BYTE   W06
 BYTE   VOL   0*GoldenSunIsaacsBattleThemeMeatOfJustice_mvl/mxv
 BYTE   W06
 BYTE   VOL   0*GoldenSunIsaacsBattleThemeMeatOfJustice_mvl/mxv
 BYTE   W06
 BYTE   VOL   0*GoldenSunIsaacsBattleThemeMeatOfJustice_mvl/mxv
 BYTE   W06
 BYTE   VOL   0*GoldenSunIsaacsBattleThemeMeatOfJustice_mvl/mxv
 BYTE   W06
 BYTE   VOL   0*GoldenSunIsaacsBattleThemeMeatOfJustice_mvl/mxv
 BYTE   W06
// 085   ----------------------------------------
 BYTE   VOL   0*GoldenSunIsaacsBattleThemeMeatOfJustice_mvl/mxv
 BYTE   W06
 BYTE   VOL   0*GoldenSunIsaacsBattleThemeMeatOfJustice_mvl/mxv
 BYTE   BEND   c_v-64
 BYTE   N90  Bn3  v110
 BYTE   BEND   c_v-64
 BYTE   BEND   c_v-64
 BYTE   BEND   c_v-63
 BYTE   BEND   c_v-63
 BYTE   BEND   c_v-63
 BYTE   BEND   c_v-62
 BYTE   BEND   c_v-62
 BYTE   BEND   c_v-62
 BYTE   BEND   c_v-61
 BYTE   BEND   c_v-61
 BYTE   BEND   c_v-61
 BYTE   BEND   c_v-60
 BYTE   BEND   c_v-60
 BYTE   BEND   c_v-60
 BYTE   BEND   c_v-59
 BYTE   BEND   c_v-59
 BYTE   BEND   c_v-59
 BYTE   BEND   c_v-58
 BYTE   BEND   c_v-58
 BYTE   BEND   c_v-58
 BYTE   BEND   c_v-57
 BYTE   BEND   c_v-57
 BYTE   BEND   c_v-57
 BYTE   BEND   c_v-56
 BYTE   BEND   c_v-56
 BYTE   BEND   c_v-56
 BYTE   BEND   c_v-55
 BYTE   BEND   c_v-55
 BYTE   BEND   c_v-55
 BYTE   BEND   c_v-54
 BYTE   BEND   c_v-54
 BYTE   BEND   c_v-54
 BYTE   BEND   c_v-53
 BYTE   BEND   c_v-53
 BYTE   BEND   c_v-53
 BYTE   BEND   c_v-52
 BYTE   BEND   c_v-52
 BYTE   BEND   c_v-52
 BYTE   BEND   c_v-51
 BYTE   BEND   c_v-51
 BYTE   BEND   c_v-51
 BYTE   VOL   0*GoldenSunIsaacsBattleThemeMeatOfJustice_mvl/mxv
 BYTE   BEND   c_v-50
 BYTE   BEND   c_v-50
 BYTE   BEND   c_v-50
 BYTE   BEND   c_v-49
 BYTE   BEND   c_v-49
 BYTE   BEND   c_v-49
 BYTE   BEND   c_v-48
 BYTE   BEND   c_v-48
 BYTE   BEND   c_v-48
 BYTE   BEND   c_v-47
 BYTE   BEND   c_v-47
 BYTE   BEND   c_v-47
 BYTE   BEND   c_v-46
 BYTE   BEND   c_v-46
 BYTE   BEND   c_v-46
 BYTE   BEND   c_v-45
 BYTE   BEND   c_v-45
 BYTE   BEND   c_v-45
 BYTE   BEND   c_v-44
 BYTE   BEND   c_v-44
 BYTE   BEND   c_v-44
 BYTE   BEND   c_v-43
 BYTE   BEND   c_v-43
 BYTE   BEND   c_v-43
 BYTE   BEND   c_v-42
 BYTE   BEND   c_v-42
 BYTE   BEND   c_v-42
 BYTE   BEND   c_v-41
 BYTE   BEND   c_v-41
 BYTE   BEND   c_v-41
 BYTE   BEND   c_v-40
 BYTE   BEND   c_v-40
 BYTE   BEND   c_v-40
 BYTE   BEND   c_v-39
 BYTE   BEND   c_v-39
 BYTE   BEND   c_v-39
 BYTE   BEND   c_v-38
 BYTE   BEND   c_v-38
 BYTE   BEND   c_v-38
 BYTE   BEND   c_v-37
 BYTE   BEND   c_v-37
 BYTE   BEND   c_v-37
 BYTE   BEND   c_v-36
 BYTE   BEND   c_v-36
 BYTE   BEND   c_v-36
 BYTE   BEND   c_v-35
 BYTE   BEND   c_v-35
 BYTE   BEND   c_v-35
 BYTE   VOL   0*GoldenSunIsaacsBattleThemeMeatOfJustice_mvl/mxv
 BYTE   BEND   c_v-34
 BYTE   BEND   c_v-34
 BYTE   BEND   c_v-34
 BYTE   BEND   c_v-33
 BYTE   BEND   c_v-33
 BYTE   BEND   c_v-33
 BYTE   BEND   c_v-32
 BYTE   BEND   c_v-32
 BYTE   BEND   c_v-32
 BYTE   BEND   c_v-31
 BYTE   BEND   c_v-31
 BYTE   BEND   c_v-31
 BYTE   BEND   c_v-30
 BYTE   BEND   c_v-30
 BYTE   BEND   c_v-30
 BYTE   BEND   c_v-29
 BYTE   BEND   c_v-29
 BYTE   BEND   c_v-29
 BYTE   BEND   c_v-28
 BYTE   BEND   c_v-28
 BYTE   BEND   c_v-28
 BYTE   BEND   c_v-27
 BYTE   BEND   c_v-27
 BYTE   BEND   c_v-27
 BYTE   BEND   c_v-26
 BYTE   BEND   c_v-26
 BYTE   BEND   c_v-26
 BYTE   BEND   c_v-25
 BYTE   BEND   c_v-25
 BYTE   BEND   c_v-25
 BYTE   BEND   c_v-24
 BYTE   BEND   c_v-24
 BYTE   BEND   c_v-24
 BYTE   BEND   c_v-23
 BYTE   BEND   c_v-23
 BYTE   BEND   c_v-23
 BYTE   BEND   c_v-22
 BYTE   BEND   c_v-22
 BYTE   BEND   c_v-22
 BYTE   BEND   c_v-21
 BYTE   BEND   c_v-21
 BYTE   BEND   c_v-21
 BYTE   BEND   c_v-20
 BYTE   BEND   c_v-20
 BYTE   BEND   c_v-20
 BYTE   BEND   c_v-19
 BYTE   BEND   c_v-19
 BYTE   BEND   c_v-19
 BYTE   BEND   c_v-18
 BYTE   VOL   0*GoldenSunIsaacsBattleThemeMeatOfJustice_mvl/mxv
 BYTE   BEND   c_v-18
 BYTE   BEND   c_v-18
 BYTE   BEND   c_v-17
 BYTE   BEND   c_v-17
 BYTE   BEND   c_v-17
 BYTE   BEND   c_v-16
 BYTE   BEND   c_v-16
 BYTE   BEND   c_v-16
 BYTE   BEND   c_v-15
 BYTE   BEND   c_v-15
 BYTE   BEND   c_v-15
 BYTE   BEND   c_v-14
 BYTE   BEND   c_v-14
 BYTE   BEND   c_v-14
 BYTE   BEND   c_v-13
 BYTE   BEND   c_v-13
 BYTE   BEND   c_v-13
 BYTE   BEND   c_v-12
 BYTE   BEND   c_v-12
 BYTE   BEND   c_v-12
 BYTE   BEND   c_v-11
 BYTE   BEND   c_v-11
 BYTE   BEND   c_v-11
 BYTE   BEND   c_v-10
 BYTE   BEND   c_v-10
 BYTE   BEND   c_v-10
 BYTE   BEND   c_v-9
 BYTE   BEND   c_v-9
 BYTE   BEND   c_v-9
 BYTE   BEND   c_v-8
 BYTE   BEND   c_v-8
 BYTE   BEND   c_v-8
 BYTE   BEND   c_v-7
 BYTE   BEND   c_v-7
 BYTE   BEND   c_v-7
 BYTE   BEND   c_v-6
 BYTE   BEND   c_v-6
 BYTE   BEND   c_v-6
 BYTE   BEND   c_v-5
 BYTE   BEND   c_v-5
 BYTE   BEND   c_v-5
 BYTE   BEND   c_v-4
 BYTE   BEND   c_v-4
 BYTE   BEND   c_v-4
 BYTE   BEND   c_v-3
 BYTE   BEND   c_v-3
 BYTE   BEND   c_v-3
 BYTE   BEND   c_v-2
 BYTE   VOL   0*GoldenSunIsaacsBattleThemeMeatOfJustice_mvl/mxv
 BYTE   BEND   c_v-2
 BYTE   BEND   c_v-2
 BYTE   BEND   c_v-1
 BYTE   BEND   c_v-1
 BYTE   BEND   c_v-1
 BYTE   BEND   c_v+0
 BYTE   VOL   0*GoldenSunIsaacsBattleThemeMeatOfJustice_mvl/mxv
 BYTE   VOL   0*GoldenSunIsaacsBattleThemeMeatOfJustice_mvl/mxv
 BYTE   VOL   0*GoldenSunIsaacsBattleThemeMeatOfJustice_mvl/mxv
 BYTE   VOL   0*GoldenSunIsaacsBattleThemeMeatOfJustice_mvl/mxv
 BYTE   VOL   0*GoldenSunIsaacsBattleThemeMeatOfJustice_mvl/mxv
 BYTE   VOL   0*GoldenSunIsaacsBattleThemeMeatOfJustice_mvl/mxv
 BYTE   VOL   0*GoldenSunIsaacsBattleThemeMeatOfJustice_mvl/mxv
 BYTE   VOL   0*GoldenSunIsaacsBattleThemeMeatOfJustice_mvl/mxv
 BYTE   VOL   0*GoldenSunIsaacsBattleThemeMeatOfJustice_mvl/mxv
 BYTE   VOL   0*GoldenSunIsaacsBattleThemeMeatOfJustice_mvl/mxv
 BYTE   VOL   0*GoldenSunIsaacsBattleThemeMeatOfJustice_mvl/mxv
 BYTE   VOL   0*GoldenSunIsaacsBattleThemeMeatOfJustice_mvl/mxv
 BYTE   W90
// 086   ----------------------------------------
 BYTE   GoTo
  POIN2 Label_0_016559C0
 BYTE   FINE

//**************** Track 2 (Midi-Chn.1) ****************//

GoldenSunIsaacsBattleThemeMeatOfJustice_002:
// 000   ----------------------------------------
Label_1_01656994:
 BYTE   KEYSH   GoldenSunIsaacsBattleThemeMeatOfJustice_key+0
 BYTE   VOICE   109
 BYTE   VOL   95*GoldenSunIsaacsBattleThemeMeatOfJustice_mvl/mxv
 BYTE   PAN   c_v+0
 BYTE   TEMPO   120*GoldenSunIsaacsBattleThemeMeatOfJustice_tbs/2
 BYTE   W96
// 001   ----------------------------------------
 BYTE   W96
// 002   ----------------------------------------
 BYTE   W96
// 003   ----------------------------------------
 BYTE   W96
// 004   ----------------------------------------
 BYTE   W96
// 005   ----------------------------------------
 BYTE   W96
// 006   ----------------------------------------
 BYTE   W96
// 007   ----------------------------------------
 BYTE   W96
// 008   ----------------------------------------
 BYTE   W96
// 009   ----------------------------------------
 BYTE   W96
// 010   ----------------------------------------
 BYTE   W96
// 011   ----------------------------------------
 BYTE   W96
// 012   ----------------------------------------
 BYTE   W96
// 013   ----------------------------------------
 BYTE   W96
// 014   ----------------------------------------
 BYTE   W96
// 015   ----------------------------------------
 BYTE   W96
// 016   ----------------------------------------
 BYTE   W96
// 017   ----------------------------------------
 BYTE   W96
// 018   ----------------------------------------
 BYTE   W96
// 019   ----------------------------------------
 BYTE   W92
 BYTE   W03
 BYTE   VOL   48*GoldenSunIsaacsBattleThemeMeatOfJustice_mvl/mxv
 BYTE   W06
// 020   ----------------------------------------
 BYTE   N05  Cn4  v110
 BYTE   W06
 BYTE   Bn3
 BYTE   W06
 BYTE   N32  Cn4
 BYTE   W36
 BYTE   N17  Bn3
 BYTE   W18
 BYTE   An3
 BYTE   W18
 BYTE   N11  Gn3
 BYTE   W12
// 021   ----------------------------------------
 BYTE   N90  An3
 BYTE   W96
// 022   ----------------------------------------
 BYTE   N05  Cn4
 BYTE   W06
 BYTE   Bn3
 BYTE   W06
 BYTE   N32  Cn4
 BYTE   W36
 BYTE   N17  Bn3
 BYTE   W18
 BYTE   Cn4
 BYTE   W18
 BYTE   N11  Dn4
 BYTE   W12
// 023   ----------------------------------------
 BYTE   N90  An3
 BYTE   W96
// 024   ----------------------------------------
 BYTE   N05  Cn4
 BYTE   W06
 BYTE   Bn3
 BYTE   W06
 BYTE   N32  Cn4
 BYTE   W36
 BYTE   N17  Bn3
 BYTE   W18
 BYTE   An3
 BYTE   W18
 BYTE   N11  Gn3
 BYTE   W12
// 025   ----------------------------------------
 BYTE   N90  An3
 BYTE   W96
// 026   ----------------------------------------
 BYTE   N05  Cn4
 BYTE   W06
 BYTE   Bn3
 BYTE   W06
 BYTE   N32  Cn4
 BYTE   W36
 BYTE   N17  Bn3
 BYTE   W18
 BYTE   Cn4
 BYTE   W18
 BYTE   N11  Dn4
 BYTE   W12
// 027   ----------------------------------------
 BYTE   N66  An3
 BYTE   W90
 BYTE   N11  Fs1
 BYTE   W12
// 028   ----------------------------------------
 BYTE   N05  Fs2
 BYTE   N05  Fs1
 BYTE   W06
 BYTE   Fs1
 BYTE   W06
 BYTE   N11
 BYTE   W12
 BYTE   N05  En2
 BYTE   N05  Fs1
 BYTE   W06
 BYTE   Fs2
 BYTE   N05  Fs1
 BYTE   W06
 BYTE   N11
 BYTE   W12
 BYTE   N05  Fs2
 BYTE   N05  Fs1
 BYTE   W06
 BYTE   Fs1
 BYTE   W06
 BYTE   N11
 BYTE   W12
 BYTE   N05  En2
 BYTE   N05  Fs1
 BYTE   W06
 BYTE   Fs2
 BYTE   N05  Fs1
 BYTE   W06
 BYTE   N11
 BYTE   W12
// 029   ----------------------------------------
 BYTE   N05
 BYTE   W06
 BYTE   Fs1
 BYTE   W06
 BYTE   N11
 BYTE   W12
 BYTE   N05
 BYTE   W06
 BYTE   Fs1
 BYTE   W06
 BYTE   N11
 BYTE   W12
 BYTE   N05
 BYTE   W06
 BYTE   Fs1
 BYTE   W06
 BYTE   N11
 BYTE   W12
 BYTE   N05
 BYTE   W06
 BYTE   Fs1
 BYTE   W06
 BYTE   N11
 BYTE   W12
// 030   ----------------------------------------
 BYTE   N05  Fs2
 BYTE   N05  Fs1
 BYTE   W06
 BYTE   Fs1
 BYTE   W06
 BYTE   N11
 BYTE   W12
 BYTE   N05  En2
 BYTE   N05  Fs1
 BYTE   W06
 BYTE   Fs2
 BYTE   N05  Fs1
 BYTE   W06
 BYTE   N11
 BYTE   W12
 BYTE   N05  Fs2
 BYTE   N05  Fs1
 BYTE   W06
 BYTE   Fs1
 BYTE   W06
 BYTE   Fs1
 BYTE   W06
 BYTE   En2
 BYTE   W06
 BYTE   Fs2
 BYTE   N05  Fs1
 BYTE   W06
 BYTE   En2
 BYTE   N05  Fs1
 BYTE   W06
 BYTE   N11
 BYTE   W12
// 031   ----------------------------------------
 BYTE   N05
 BYTE   W06
 BYTE   Fs1
 BYTE   W06
 BYTE   N11
 BYTE   W12
 BYTE   N05
 BYTE   W06
 BYTE   Fs1
 BYTE   W06
 BYTE   N11
 BYTE   W12
 BYTE   N05
 BYTE   W06
 BYTE   Fs1
 BYTE   W06
 BYTE   N11
 BYTE   W12
 BYTE   N05
 BYTE   W06
 BYTE   Fs1
 BYTE   W06
 BYTE   N11
 BYTE   W12
// 032   ----------------------------------------
 BYTE   N05  Fs2
 BYTE   N05  Fs1
 BYTE   W06
 BYTE   Fs1
 BYTE   W06
 BYTE   N11
 BYTE   W12
 BYTE   N05  En2
 BYTE   N05  Fs1
 BYTE   W06
 BYTE   Fs2
 BYTE   N05  Fs1
 BYTE   W06
 BYTE   N11
 BYTE   W12
 BYTE   N05  Fs2
 BYTE   N05  Fs1
 BYTE   W06
 BYTE   Fs1
 BYTE   W06
 BYTE   N11
 BYTE   W12
 BYTE   N05  En2
 BYTE   N05  Fs1
 BYTE   W06
 BYTE   Fs2
 BYTE   N05  Fs1
 BYTE   W06
 BYTE   N11
 BYTE   W12
// 033   ----------------------------------------
 BYTE   N05
 BYTE   W06
 BYTE   Fs1
 BYTE   W06
 BYTE   N11
 BYTE   W12
 BYTE   N05
 BYTE   W06
 BYTE   Fs1
 BYTE   W06
 BYTE   N11
 BYTE   W12
 BYTE   N05
 BYTE   W06
 BYTE   Fs1
 BYTE   W06
 BYTE   N11
 BYTE   W12
 BYTE   N05
 BYTE   W06
 BYTE   Fs1
 BYTE   W06
 BYTE   N11
 BYTE   W12
// 034   ----------------------------------------
 BYTE   N05  Fs2
 BYTE   N05  Fs1
 BYTE   W06
 BYTE   Fs1
 BYTE   W06
 BYTE   N11
 BYTE   W12
 BYTE   N05  En2
 BYTE   N05  Fs1
 BYTE   W06
 BYTE   Fs2
 BYTE   N05  Fs1
 BYTE   W06
 BYTE   N11
 BYTE   W12
 BYTE   N05  Fs2
 BYTE   N05  Fs1
 BYTE   W06
 BYTE   Fs1
 BYTE   W06
 BYTE   Fs1
 BYTE   W06
 BYTE   En2
 BYTE   W06
 BYTE   Fs2
 BYTE   N05  Fs1
 BYTE   W06
 BYTE   En2
 BYTE   N05  Fs1
 BYTE   W06
 BYTE   N11
 BYTE   W12
// 035   ----------------------------------------
 BYTE   N05
 BYTE   W06
 BYTE   Fs1
 BYTE   W06
 BYTE   N11
 BYTE   W12
 BYTE   N05
 BYTE   W06
 BYTE   Fs1
 BYTE   W06
 BYTE   N11
 BYTE   W12
 BYTE   N05
 BYTE   W06
 BYTE   Fs1
 BYTE   W06
 BYTE   N11
 BYTE   W12
 BYTE   N05
 BYTE   W06
 BYTE   Fs1
 BYTE   W96
// 036   ----------------------------------------
 BYTE   W96
// 037   ----------------------------------------
 BYTE   W96
// 038   ----------------------------------------
 BYTE   W96
// 039   ----------------------------------------
 BYTE   W96
// 040   ----------------------------------------
 BYTE   W96
// 041   ----------------------------------------
 BYTE   W96
// 042   ----------------------------------------
 BYTE   W96
// 043   ----------------------------------------
 BYTE   W96
// 044   ----------------------------------------
 BYTE   W96
// 045   ----------------------------------------
 BYTE   W96
// 046   ----------------------------------------
 BYTE   W96
// 047   ----------------------------------------
 BYTE   W96
// 048   ----------------------------------------
 BYTE   W96
// 049   ----------------------------------------
 BYTE   W96
// 050   ----------------------------------------
 BYTE   W06
Label_1_01656B15:
 BYTE   VOL   48*GoldenSunIsaacsBattleThemeMeatOfJustice_mvl/mxv
 BYTE   N42  En3  v110
 BYTE   VOL   46*GoldenSunIsaacsBattleThemeMeatOfJustice_mvl/mxv
 BYTE   VOL   45*GoldenSunIsaacsBattleThemeMeatOfJustice_mvl/mxv
 BYTE   VOL   44*GoldenSunIsaacsBattleThemeMeatOfJustice_mvl/mxv
 BYTE   VOL   42*GoldenSunIsaacsBattleThemeMeatOfJustice_mvl/mxv
 BYTE   VOL   41*GoldenSunIsaacsBattleThemeMeatOfJustice_mvl/mxv
 BYTE   VOL   40*GoldenSunIsaacsBattleThemeMeatOfJustice_mvl/mxv
 BYTE   VOL   38*GoldenSunIsaacsBattleThemeMeatOfJustice_mvl/mxv
 BYTE   VOL   37*GoldenSunIsaacsBattleThemeMeatOfJustice_mvl/mxv
 BYTE   VOL   36*GoldenSunIsaacsBattleThemeMeatOfJustice_mvl/mxv
 BYTE   VOL   34*GoldenSunIsaacsBattleThemeMeatOfJustice_mvl/mxv
 BYTE   VOL   33*GoldenSunIsaacsBattleThemeMeatOfJustice_mvl/mxv
 BYTE   VOL   32*GoldenSunIsaacsBattleThemeMeatOfJustice_mvl/mxv
 BYTE   VOL   31*GoldenSunIsaacsBattleThemeMeatOfJustice_mvl/mxv
 BYTE   VOL   29*GoldenSunIsaacsBattleThemeMeatOfJustice_mvl/mxv
 BYTE   VOL   28*GoldenSunIsaacsBattleThemeMeatOfJustice_mvl/mxv
 BYTE   PEND 
Label_1_01656B39:
 BYTE   VOL   27*GoldenSunIsaacsBattleThemeMeatOfJustice_mvl/mxv
 BYTE   VOL   26*GoldenSunIsaacsBattleThemeMeatOfJustice_mvl/mxv
 BYTE   VOL   24*GoldenSunIsaacsBattleThemeMeatOfJustice_mvl/mxv
 BYTE   VOL   23*GoldenSunIsaacsBattleThemeMeatOfJustice_mvl/mxv
 BYTE   VOL   22*GoldenSunIsaacsBattleThemeMeatOfJustice_mvl/mxv
 BYTE   VOL   21*GoldenSunIsaacsBattleThemeMeatOfJustice_mvl/mxv
 BYTE   VOL   20*GoldenSunIsaacsBattleThemeMeatOfJustice_mvl/mxv
 BYTE   VOL   18*GoldenSunIsaacsBattleThemeMeatOfJustice_mvl/mxv
 BYTE   VOL   17*GoldenSunIsaacsBattleThemeMeatOfJustice_mvl/mxv
 BYTE   VOL   16*GoldenSunIsaacsBattleThemeMeatOfJustice_mvl/mxv
 BYTE   VOL   15*GoldenSunIsaacsBattleThemeMeatOfJustice_mvl/mxv
 BYTE   VOL   14*GoldenSunIsaacsBattleThemeMeatOfJustice_mvl/mxv
 BYTE   VOL   13*GoldenSunIsaacsBattleThemeMeatOfJustice_mvl/mxv
 BYTE   VOL   12*GoldenSunIsaacsBattleThemeMeatOfJustice_mvl/mxv
 BYTE   VOL   11*GoldenSunIsaacsBattleThemeMeatOfJustice_mvl/mxv
 BYTE   VOL   10*GoldenSunIsaacsBattleThemeMeatOfJustice_mvl/mxv
 BYTE   PEND 
 BYTE   VOL   9*GoldenSunIsaacsBattleThemeMeatOfJustice_mvl/mxv
 BYTE   W24
Label_1_01656B5D:
 BYTE   VOL   48*GoldenSunIsaacsBattleThemeMeatOfJustice_mvl/mxv
 BYTE   N20  Dn3  v110
 BYTE   VOL   46*GoldenSunIsaacsBattleThemeMeatOfJustice_mvl/mxv
 BYTE   VOL   45*GoldenSunIsaacsBattleThemeMeatOfJustice_mvl/mxv
 BYTE   VOL   44*GoldenSunIsaacsBattleThemeMeatOfJustice_mvl/mxv
 BYTE   VOL   42*GoldenSunIsaacsBattleThemeMeatOfJustice_mvl/mxv
 BYTE   VOL   41*GoldenSunIsaacsBattleThemeMeatOfJustice_mvl/mxv
 BYTE   VOL   40*GoldenSunIsaacsBattleThemeMeatOfJustice_mvl/mxv
 BYTE   VOL   38*GoldenSunIsaacsBattleThemeMeatOfJustice_mvl/mxv
 BYTE   VOL   37*GoldenSunIsaacsBattleThemeMeatOfJustice_mvl/mxv
 BYTE   VOL   36*GoldenSunIsaacsBattleThemeMeatOfJustice_mvl/mxv
 BYTE   VOL   34*GoldenSunIsaacsBattleThemeMeatOfJustice_mvl/mxv
 BYTE   VOL   33*GoldenSunIsaacsBattleThemeMeatOfJustice_mvl/mxv
 BYTE   VOL   32*GoldenSunIsaacsBattleThemeMeatOfJustice_mvl/mxv
 BYTE   VOL   31*GoldenSunIsaacsBattleThemeMeatOfJustice_mvl/mxv
 BYTE   VOL   29*GoldenSunIsaacsBattleThemeMeatOfJustice_mvl/mxv
 BYTE   VOL   28*GoldenSunIsaacsBattleThemeMeatOfJustice_mvl/mxv
 BYTE   PEND 
 BYTE   PATT
  POIN2 Label_1_01656B39
// 051   ----------------------------------------
Label_1_01656B86:
 BYTE   VOL   48*GoldenSunIsaacsBattleThemeMeatOfJustice_mvl/mxv
 BYTE   VOL   9*GoldenSunIsaacsBattleThemeMeatOfJustice_mvl/mxv
 BYTE   N20  Gn3  v110
 BYTE   VOL   46*GoldenSunIsaacsBattleThemeMeatOfJustice_mvl/mxv
 BYTE   VOL   45*GoldenSunIsaacsBattleThemeMeatOfJustice_mvl/mxv
 BYTE   VOL   44*GoldenSunIsaacsBattleThemeMeatOfJustice_mvl/mxv
 BYTE   VOL   42*GoldenSunIsaacsBattleThemeMeatOfJustice_mvl/mxv
 BYTE   VOL   41*GoldenSunIsaacsBattleThemeMeatOfJustice_mvl/mxv
 BYTE   VOL   40*GoldenSunIsaacsBattleThemeMeatOfJustice_mvl/mxv
 BYTE   VOL   38*GoldenSunIsaacsBattleThemeMeatOfJustice_mvl/mxv
 BYTE   VOL   37*GoldenSunIsaacsBattleThemeMeatOfJustice_mvl/mxv
 BYTE   VOL   36*GoldenSunIsaacsBattleThemeMeatOfJustice_mvl/mxv
 BYTE   VOL   34*GoldenSunIsaacsBattleThemeMeatOfJustice_mvl/mxv
 BYTE   VOL   33*GoldenSunIsaacsBattleThemeMeatOfJustice_mvl/mxv
 BYTE   VOL   32*GoldenSunIsaacsBattleThemeMeatOfJustice_mvl/mxv
 BYTE   VOL   31*GoldenSunIsaacsBattleThemeMeatOfJustice_mvl/mxv
 BYTE   VOL   29*GoldenSunIsaacsBattleThemeMeatOfJustice_mvl/mxv
 BYTE   VOL   28*GoldenSunIsaacsBattleThemeMeatOfJustice_mvl/mxv
 BYTE   PEND 
 BYTE   PATT
  POIN2 Label_1_01656B39
// 052   ----------------------------------------
Label_1_01656BB1:
 BYTE   VOL   48*GoldenSunIsaacsBattleThemeMeatOfJustice_mvl/mxv
 BYTE   VOL   9*GoldenSunIsaacsBattleThemeMeatOfJustice_mvl/mxv
 BYTE   N17  En3  v110
 BYTE   VOL   46*GoldenSunIsaacsBattleThemeMeatOfJustice_mvl/mxv
 BYTE   VOL   45*GoldenSunIsaacsBattleThemeMeatOfJustice_mvl/mxv
 BYTE   VOL   44*GoldenSunIsaacsBattleThemeMeatOfJustice_mvl/mxv
 BYTE   VOL   42*GoldenSunIsaacsBattleThemeMeatOfJustice_mvl/mxv
 BYTE   VOL   41*GoldenSunIsaacsBattleThemeMeatOfJustice_mvl/mxv
 BYTE   VOL   40*GoldenSunIsaacsBattleThemeMeatOfJustice_mvl/mxv
 BYTE   VOL   38*GoldenSunIsaacsBattleThemeMeatOfJustice_mvl/mxv
 BYTE   VOL   37*GoldenSunIsaacsBattleThemeMeatOfJustice_mvl/mxv
 BYTE   VOL   36*GoldenSunIsaacsBattleThemeMeatOfJustice_mvl/mxv
 BYTE   VOL   34*GoldenSunIsaacsBattleThemeMeatOfJustice_mvl/mxv
 BYTE   VOL   33*GoldenSunIsaacsBattleThemeMeatOfJustice_mvl/mxv
 BYTE   VOL   32*GoldenSunIsaacsBattleThemeMeatOfJustice_mvl/mxv
 BYTE   VOL   31*GoldenSunIsaacsBattleThemeMeatOfJustice_mvl/mxv
 BYTE   VOL   29*GoldenSunIsaacsBattleThemeMeatOfJustice_mvl/mxv
 BYTE   VOL   28*GoldenSunIsaacsBattleThemeMeatOfJustice_mvl/mxv
 BYTE   PEND 
 BYTE   VOL   27*GoldenSunIsaacsBattleThemeMeatOfJustice_mvl/mxv
 BYTE   VOL   26*GoldenSunIsaacsBattleThemeMeatOfJustice_mvl/mxv
 BYTE   VOL   24*GoldenSunIsaacsBattleThemeMeatOfJustice_mvl/mxv
 BYTE   VOL   23*GoldenSunIsaacsBattleThemeMeatOfJustice_mvl/mxv
 BYTE   VOL   22*GoldenSunIsaacsBattleThemeMeatOfJustice_mvl/mxv
 BYTE   VOL   21*GoldenSunIsaacsBattleThemeMeatOfJustice_mvl/mxv
 BYTE   VOL   20*GoldenSunIsaacsBattleThemeMeatOfJustice_mvl/mxv
 BYTE   VOL   18*GoldenSunIsaacsBattleThemeMeatOfJustice_mvl/mxv
 BYTE   VOL   48*GoldenSunIsaacsBattleThemeMeatOfJustice_mvl/mxv
 BYTE   VOL   17*GoldenSunIsaacsBattleThemeMeatOfJustice_mvl/mxv
 BYTE   N28  Bn2  v110
 BYTE   VOL   16*GoldenSunIsaacsBattleThemeMeatOfJustice_mvl/mxv
 BYTE   VOL   46*GoldenSunIsaacsBattleThemeMeatOfJustice_mvl/mxv
 BYTE   VOL   45*GoldenSunIsaacsBattleThemeMeatOfJustice_mvl/mxv
 BYTE   VOL   15*GoldenSunIsaacsBattleThemeMeatOfJustice_mvl/mxv
 BYTE   VOL   14*GoldenSunIsaacsBattleThemeMeatOfJustice_mvl/mxv
 BYTE   VOL   44*GoldenSunIsaacsBattleThemeMeatOfJustice_mvl/mxv
 BYTE   VOL   42*GoldenSunIsaacsBattleThemeMeatOfJustice_mvl/mxv
 BYTE   VOL   13*GoldenSunIsaacsBattleThemeMeatOfJustice_mvl/mxv
 BYTE   N01  Bn2  v110
 BYTE   VOL   12*GoldenSunIsaacsBattleThemeMeatOfJustice_mvl/mxv
 BYTE   VOL   41*GoldenSunIsaacsBattleThemeMeatOfJustice_mvl/mxv
 BYTE   VOL   40*GoldenSunIsaacsBattleThemeMeatOfJustice_mvl/mxv
 BYTE   VOL   11*GoldenSunIsaacsBattleThemeMeatOfJustice_mvl/mxv
 BYTE   VOL   10*GoldenSunIsaacsBattleThemeMeatOfJustice_mvl/mxv
 BYTE   VOL   38*GoldenSunIsaacsBattleThemeMeatOfJustice_mvl/mxv
Label_1_01656C0D:
 BYTE   VOL   37*GoldenSunIsaacsBattleThemeMeatOfJustice_mvl/mxv
 BYTE   VOL   9*GoldenSunIsaacsBattleThemeMeatOfJustice_mvl/mxv
 BYTE   VOL   36*GoldenSunIsaacsBattleThemeMeatOfJustice_mvl/mxv
 BYTE   VOL   34*GoldenSunIsaacsBattleThemeMeatOfJustice_mvl/mxv
 BYTE   VOL   33*GoldenSunIsaacsBattleThemeMeatOfJustice_mvl/mxv
 BYTE   VOL   32*GoldenSunIsaacsBattleThemeMeatOfJustice_mvl/mxv
 BYTE   VOL   31*GoldenSunIsaacsBattleThemeMeatOfJustice_mvl/mxv
 BYTE   VOL   29*GoldenSunIsaacsBattleThemeMeatOfJustice_mvl/mxv
 BYTE   VOL   28*GoldenSunIsaacsBattleThemeMeatOfJustice_mvl/mxv
 BYTE   VOL   27*GoldenSunIsaacsBattleThemeMeatOfJustice_mvl/mxv
 BYTE   VOL   26*GoldenSunIsaacsBattleThemeMeatOfJustice_mvl/mxv
 BYTE   VOL   24*GoldenSunIsaacsBattleThemeMeatOfJustice_mvl/mxv
 BYTE   VOL   23*GoldenSunIsaacsBattleThemeMeatOfJustice_mvl/mxv
 BYTE   VOL   22*GoldenSunIsaacsBattleThemeMeatOfJustice_mvl/mxv
 BYTE   VOL   21*GoldenSunIsaacsBattleThemeMeatOfJustice_mvl/mxv
 BYTE   VOL   20*GoldenSunIsaacsBattleThemeMeatOfJustice_mvl/mxv
 BYTE   VOL   18*GoldenSunIsaacsBattleThemeMeatOfJustice_mvl/mxv
 BYTE   PEND 
Label_1_01656C30:
 BYTE   VOL   17*GoldenSunIsaacsBattleThemeMeatOfJustice_mvl/mxv
 BYTE   VOL   16*GoldenSunIsaacsBattleThemeMeatOfJustice_mvl/mxv
 BYTE   VOL   15*GoldenSunIsaacsBattleThemeMeatOfJustice_mvl/mxv
 BYTE   VOL   14*GoldenSunIsaacsBattleThemeMeatOfJustice_mvl/mxv
 BYTE   VOL   13*GoldenSunIsaacsBattleThemeMeatOfJustice_mvl/mxv
 BYTE   VOL   12*GoldenSunIsaacsBattleThemeMeatOfJustice_mvl/mxv
 BYTE   VOL   11*GoldenSunIsaacsBattleThemeMeatOfJustice_mvl/mxv
 BYTE   VOL   10*GoldenSunIsaacsBattleThemeMeatOfJustice_mvl/mxv
 BYTE   VOL   9*GoldenSunIsaacsBattleThemeMeatOfJustice_mvl/mxv
 BYTE   W06
 BYTE   PEND 
Label_1_01656C44:
 BYTE   VOL   48*GoldenSunIsaacsBattleThemeMeatOfJustice_mvl/mxv
 BYTE   N17  Bn2  v110
 BYTE   VOL   46*GoldenSunIsaacsBattleThemeMeatOfJustice_mvl/mxv
 BYTE   VOL   45*GoldenSunIsaacsBattleThemeMeatOfJustice_mvl/mxv
 BYTE   VOL   44*GoldenSunIsaacsBattleThemeMeatOfJustice_mvl/mxv
 BYTE   VOL   42*GoldenSunIsaacsBattleThemeMeatOfJustice_mvl/mxv
 BYTE   VOL   41*GoldenSunIsaacsBattleThemeMeatOfJustice_mvl/mxv
 BYTE   VOL   40*GoldenSunIsaacsBattleThemeMeatOfJustice_mvl/mxv
 BYTE   VOL   38*GoldenSunIsaacsBattleThemeMeatOfJustice_mvl/mxv
 BYTE   VOL   37*GoldenSunIsaacsBattleThemeMeatOfJustice_mvl/mxv
 BYTE   VOL   36*GoldenSunIsaacsBattleThemeMeatOfJustice_mvl/mxv
 BYTE   VOL   34*GoldenSunIsaacsBattleThemeMeatOfJustice_mvl/mxv
 BYTE   VOL   33*GoldenSunIsaacsBattleThemeMeatOfJustice_mvl/mxv
 BYTE   VOL   32*GoldenSunIsaacsBattleThemeMeatOfJustice_mvl/mxv
 BYTE   VOL   31*GoldenSunIsaacsBattleThemeMeatOfJustice_mvl/mxv
 BYTE   VOL   29*GoldenSunIsaacsBattleThemeMeatOfJustice_mvl/mxv
 BYTE   VOL   28*GoldenSunIsaacsBattleThemeMeatOfJustice_mvl/mxv
 BYTE   PEND 
 BYTE   VOL   27*GoldenSunIsaacsBattleThemeMeatOfJustice_mvl/mxv
 BYTE   VOL   26*GoldenSunIsaacsBattleThemeMeatOfJustice_mvl/mxv
 BYTE   VOL   24*GoldenSunIsaacsBattleThemeMeatOfJustice_mvl/mxv
 BYTE   VOL   23*GoldenSunIsaacsBattleThemeMeatOfJustice_mvl/mxv
 BYTE   VOL   22*GoldenSunIsaacsBattleThemeMeatOfJustice_mvl/mxv
 BYTE   VOL   21*GoldenSunIsaacsBattleThemeMeatOfJustice_mvl/mxv
 BYTE   VOL   20*GoldenSunIsaacsBattleThemeMeatOfJustice_mvl/mxv
 BYTE   VOL   18*GoldenSunIsaacsBattleThemeMeatOfJustice_mvl/mxv
 BYTE   VOL   48*GoldenSunIsaacsBattleThemeMeatOfJustice_mvl/mxv
 BYTE   VOL   17*GoldenSunIsaacsBattleThemeMeatOfJustice_mvl/mxv
 BYTE   N17  Cn3  v110
 BYTE   VOL   16*GoldenSunIsaacsBattleThemeMeatOfJustice_mvl/mxv
 BYTE   VOL   46*GoldenSunIsaacsBattleThemeMeatOfJustice_mvl/mxv
 BYTE   VOL   15*GoldenSunIsaacsBattleThemeMeatOfJustice_mvl/mxv
 BYTE   VOL   45*GoldenSunIsaacsBattleThemeMeatOfJustice_mvl/mxv
 BYTE   VOL   44*GoldenSunIsaacsBattleThemeMeatOfJustice_mvl/mxv
 BYTE   VOL   14*GoldenSunIsaacsBattleThemeMeatOfJustice_mvl/mxv
 BYTE   VOL   13*GoldenSunIsaacsBattleThemeMeatOfJustice_mvl/mxv
 BYTE   VOL   42*GoldenSunIsaacsBattleThemeMeatOfJustice_mvl/mxv
 BYTE   VOL   41*GoldenSunIsaacsBattleThemeMeatOfJustice_mvl/mxv
 BYTE   VOL   12*GoldenSunIsaacsBattleThemeMeatOfJustice_mvl/mxv
 BYTE   VOL   40*GoldenSunIsaacsBattleThemeMeatOfJustice_mvl/mxv
 BYTE   VOL   11*GoldenSunIsaacsBattleThemeMeatOfJustice_mvl/mxv
 BYTE   VOL   10*GoldenSunIsaacsBattleThemeMeatOfJustice_mvl/mxv
 BYTE   VOL   38*GoldenSunIsaacsBattleThemeMeatOfJustice_mvl/mxv
Label_1_01656C9B:
 BYTE   VOL   9*GoldenSunIsaacsBattleThemeMeatOfJustice_mvl/mxv
 BYTE   VOL   37*GoldenSunIsaacsBattleThemeMeatOfJustice_mvl/mxv
 BYTE   VOL   36*GoldenSunIsaacsBattleThemeMeatOfJustice_mvl/mxv
 BYTE   VOL   34*GoldenSunIsaacsBattleThemeMeatOfJustice_mvl/mxv
 BYTE   VOL   33*GoldenSunIsaacsBattleThemeMeatOfJustice_mvl/mxv
 BYTE   VOL   32*GoldenSunIsaacsBattleThemeMeatOfJustice_mvl/mxv
 BYTE   VOL   31*GoldenSunIsaacsBattleThemeMeatOfJustice_mvl/mxv
 BYTE   VOL   29*GoldenSunIsaacsBattleThemeMeatOfJustice_mvl/mxv
 BYTE   VOL   28*GoldenSunIsaacsBattleThemeMeatOfJustice_mvl/mxv
 BYTE   VOL   27*GoldenSunIsaacsBattleThemeMeatOfJustice_mvl/mxv
 BYTE   VOL   26*GoldenSunIsaacsBattleThemeMeatOfJustice_mvl/mxv
 BYTE   VOL   24*GoldenSunIsaacsBattleThemeMeatOfJustice_mvl/mxv
 BYTE   VOL   23*GoldenSunIsaacsBattleThemeMeatOfJustice_mvl/mxv
 BYTE   VOL   22*GoldenSunIsaacsBattleThemeMeatOfJustice_mvl/mxv
 BYTE   VOL   21*GoldenSunIsaacsBattleThemeMeatOfJustice_mvl/mxv
 BYTE   VOL   20*GoldenSunIsaacsBattleThemeMeatOfJustice_mvl/mxv
 BYTE   VOL   18*GoldenSunIsaacsBattleThemeMeatOfJustice_mvl/mxv
 BYTE   PEND 
 BYTE   VOL   48*GoldenSunIsaacsBattleThemeMeatOfJustice_mvl/mxv
 BYTE   VOL   17*GoldenSunIsaacsBattleThemeMeatOfJustice_mvl/mxv
 BYTE   N11  Dn3  v110
 BYTE   VOL   46*GoldenSunIsaacsBattleThemeMeatOfJustice_mvl/mxv
 BYTE   VOL   16*GoldenSunIsaacsBattleThemeMeatOfJustice_mvl/mxv
 BYTE   VOL   15*GoldenSunIsaacsBattleThemeMeatOfJustice_mvl/mxv
 BYTE   VOL   45*GoldenSunIsaacsBattleThemeMeatOfJustice_mvl/mxv
 BYTE   VOL   14*GoldenSunIsaacsBattleThemeMeatOfJustice_mvl/mxv
 BYTE   VOL   44*GoldenSunIsaacsBattleThemeMeatOfJustice_mvl/mxv
 BYTE   VOL   42*GoldenSunIsaacsBattleThemeMeatOfJustice_mvl/mxv
 BYTE   VOL   13*GoldenSunIsaacsBattleThemeMeatOfJustice_mvl/mxv
 BYTE   VOL   12*GoldenSunIsaacsBattleThemeMeatOfJustice_mvl/mxv
 BYTE   VOL   41*GoldenSunIsaacsBattleThemeMeatOfJustice_mvl/mxv
 BYTE   VOL   40*GoldenSunIsaacsBattleThemeMeatOfJustice_mvl/mxv
 BYTE   VOL   11*GoldenSunIsaacsBattleThemeMeatOfJustice_mvl/mxv
 BYTE   VOL   10*GoldenSunIsaacsBattleThemeMeatOfJustice_mvl/mxv
 BYTE   VOL   38*GoldenSunIsaacsBattleThemeMeatOfJustice_mvl/mxv
 BYTE   VOL   37*GoldenSunIsaacsBattleThemeMeatOfJustice_mvl/mxv
 BYTE   VOL   9*GoldenSunIsaacsBattleThemeMeatOfJustice_mvl/mxv
 BYTE   VOL   36*GoldenSunIsaacsBattleThemeMeatOfJustice_mvl/mxv
 BYTE   VOL   34*GoldenSunIsaacsBattleThemeMeatOfJustice_mvl/mxv
 BYTE   VOL   33*GoldenSunIsaacsBattleThemeMeatOfJustice_mvl/mxv
 BYTE   VOL   32*GoldenSunIsaacsBattleThemeMeatOfJustice_mvl/mxv
 BYTE   VOL   31*GoldenSunIsaacsBattleThemeMeatOfJustice_mvl/mxv
 BYTE   VOL   29*GoldenSunIsaacsBattleThemeMeatOfJustice_mvl/mxv
 BYTE   VOL   28*GoldenSunIsaacsBattleThemeMeatOfJustice_mvl/mxv
 BYTE   VOL   48*GoldenSunIsaacsBattleThemeMeatOfJustice_mvl/mxv
 BYTE   VOL   27*GoldenSunIsaacsBattleThemeMeatOfJustice_mvl/mxv
 BYTE   N42  En3  v110
 BYTE   VOL   26*GoldenSunIsaacsBattleThemeMeatOfJustice_mvl/mxv
 BYTE   VOL   46*GoldenSunIsaacsBattleThemeMeatOfJustice_mvl/mxv
 BYTE   VOL   24*GoldenSunIsaacsBattleThemeMeatOfJustice_mvl/mxv
 BYTE   VOL   45*GoldenSunIsaacsBattleThemeMeatOfJustice_mvl/mxv
 BYTE   VOL   23*GoldenSunIsaacsBattleThemeMeatOfJustice_mvl/mxv
 BYTE   VOL   44*GoldenSunIsaacsBattleThemeMeatOfJustice_mvl/mxv
 BYTE   VOL   42*GoldenSunIsaacsBattleThemeMeatOfJustice_mvl/mxv
 BYTE   VOL   22*GoldenSunIsaacsBattleThemeMeatOfJustice_mvl/mxv
 BYTE   VOL   41*GoldenSunIsaacsBattleThemeMeatOfJustice_mvl/mxv
 BYTE   VOL   21*GoldenSunIsaacsBattleThemeMeatOfJustice_mvl/mxv
 BYTE   VOL   40*GoldenSunIsaacsBattleThemeMeatOfJustice_mvl/mxv
 BYTE   VOL   20*GoldenSunIsaacsBattleThemeMeatOfJustice_mvl/mxv
 BYTE   VOL   18*GoldenSunIsaacsBattleThemeMeatOfJustice_mvl/mxv
 BYTE   VOL   38*GoldenSunIsaacsBattleThemeMeatOfJustice_mvl/mxv
 BYTE   VOL   37*GoldenSunIsaacsBattleThemeMeatOfJustice_mvl/mxv
 BYTE   VOL   17*GoldenSunIsaacsBattleThemeMeatOfJustice_mvl/mxv
 BYTE   VOL   16*GoldenSunIsaacsBattleThemeMeatOfJustice_mvl/mxv
 BYTE   VOL   36*GoldenSunIsaacsBattleThemeMeatOfJustice_mvl/mxv
 BYTE   VOL   15*GoldenSunIsaacsBattleThemeMeatOfJustice_mvl/mxv
 BYTE   VOL   34*GoldenSunIsaacsBattleThemeMeatOfJustice_mvl/mxv
 BYTE   VOL   14*GoldenSunIsaacsBattleThemeMeatOfJustice_mvl/mxv
 BYTE   VOL   33*GoldenSunIsaacsBattleThemeMeatOfJustice_mvl/mxv
 BYTE   VOL   32*GoldenSunIsaacsBattleThemeMeatOfJustice_mvl/mxv
 BYTE   VOL   13*GoldenSunIsaacsBattleThemeMeatOfJustice_mvl/mxv
 BYTE   VOL   12*GoldenSunIsaacsBattleThemeMeatOfJustice_mvl/mxv
 BYTE   VOL   31*GoldenSunIsaacsBattleThemeMeatOfJustice_mvl/mxv
 BYTE   VOL   11*GoldenSunIsaacsBattleThemeMeatOfJustice_mvl/mxv
 BYTE   VOL   29*GoldenSunIsaacsBattleThemeMeatOfJustice_mvl/mxv
 BYTE   VOL   28*GoldenSunIsaacsBattleThemeMeatOfJustice_mvl/mxv
 BYTE   VOL   10*GoldenSunIsaacsBattleThemeMeatOfJustice_mvl/mxv
Label_1_01656D36:
 BYTE   VOL   9*GoldenSunIsaacsBattleThemeMeatOfJustice_mvl/mxv
 BYTE   VOL   27*GoldenSunIsaacsBattleThemeMeatOfJustice_mvl/mxv
 BYTE   VOL   26*GoldenSunIsaacsBattleThemeMeatOfJustice_mvl/mxv
 BYTE   VOL   24*GoldenSunIsaacsBattleThemeMeatOfJustice_mvl/mxv
 BYTE   VOL   23*GoldenSunIsaacsBattleThemeMeatOfJustice_mvl/mxv
 BYTE   VOL   22*GoldenSunIsaacsBattleThemeMeatOfJustice_mvl/mxv
 BYTE   VOL   21*GoldenSunIsaacsBattleThemeMeatOfJustice_mvl/mxv
 BYTE   VOL   20*GoldenSunIsaacsBattleThemeMeatOfJustice_mvl/mxv
 BYTE   VOL   18*GoldenSunIsaacsBattleThemeMeatOfJustice_mvl/mxv
 BYTE   VOL   17*GoldenSunIsaacsBattleThemeMeatOfJustice_mvl/mxv
 BYTE   VOL   16*GoldenSunIsaacsBattleThemeMeatOfJustice_mvl/mxv
 BYTE   VOL   15*GoldenSunIsaacsBattleThemeMeatOfJustice_mvl/mxv
 BYTE   VOL   14*GoldenSunIsaacsBattleThemeMeatOfJustice_mvl/mxv
 BYTE   VOL   13*GoldenSunIsaacsBattleThemeMeatOfJustice_mvl/mxv
 BYTE   VOL   12*GoldenSunIsaacsBattleThemeMeatOfJustice_mvl/mxv
 BYTE   VOL   11*GoldenSunIsaacsBattleThemeMeatOfJustice_mvl/mxv
 BYTE   VOL   10*GoldenSunIsaacsBattleThemeMeatOfJustice_mvl/mxv
 BYTE   PEND 
 BYTE   VOL   9*GoldenSunIsaacsBattleThemeMeatOfJustice_mvl/mxv
 BYTE   W24
 BYTE   PATT
  POIN2 Label_1_01656B5D
 BYTE   PATT
  POIN2 Label_1_01656B39
 BYTE   PATT
  POIN2 Label_1_01656B86
 BYTE   PATT
  POIN2 Label_1_01656B39
 BYTE   PATT
  POIN2 Label_1_01656BB1
// 053   ----------------------------------------
 BYTE   VOL   27*GoldenSunIsaacsBattleThemeMeatOfJustice_mvl/mxv
 BYTE   VOL   26*GoldenSunIsaacsBattleThemeMeatOfJustice_mvl/mxv
 BYTE   VOL   24*GoldenSunIsaacsBattleThemeMeatOfJustice_mvl/mxv
 BYTE   VOL   23*GoldenSunIsaacsBattleThemeMeatOfJustice_mvl/mxv
 BYTE   VOL   22*GoldenSunIsaacsBattleThemeMeatOfJustice_mvl/mxv
 BYTE   VOL   21*GoldenSunIsaacsBattleThemeMeatOfJustice_mvl/mxv
 BYTE   VOL   20*GoldenSunIsaacsBattleThemeMeatOfJustice_mvl/mxv
 BYTE   VOL   18*GoldenSunIsaacsBattleThemeMeatOfJustice_mvl/mxv
 BYTE   VOL   48*GoldenSunIsaacsBattleThemeMeatOfJustice_mvl/mxv
 BYTE   VOL   17*GoldenSunIsaacsBattleThemeMeatOfJustice_mvl/mxv
 BYTE   N17  Fs3  v110
 BYTE   VOL   16*GoldenSunIsaacsBattleThemeMeatOfJustice_mvl/mxv
 BYTE   VOL   46*GoldenSunIsaacsBattleThemeMeatOfJustice_mvl/mxv
 BYTE   VOL   15*GoldenSunIsaacsBattleThemeMeatOfJustice_mvl/mxv
 BYTE   VOL   45*GoldenSunIsaacsBattleThemeMeatOfJustice_mvl/mxv
 BYTE   VOL   14*GoldenSunIsaacsBattleThemeMeatOfJustice_mvl/mxv
 BYTE   VOL   44*GoldenSunIsaacsBattleThemeMeatOfJustice_mvl/mxv
 BYTE   VOL   42*GoldenSunIsaacsBattleThemeMeatOfJustice_mvl/mxv
 BYTE   VOL   13*GoldenSunIsaacsBattleThemeMeatOfJustice_mvl/mxv
 BYTE   VOL   12*GoldenSunIsaacsBattleThemeMeatOfJustice_mvl/mxv
 BYTE   VOL   41*GoldenSunIsaacsBattleThemeMeatOfJustice_mvl/mxv
 BYTE   VOL   40*GoldenSunIsaacsBattleThemeMeatOfJustice_mvl/mxv
 BYTE   VOL   11*GoldenSunIsaacsBattleThemeMeatOfJustice_mvl/mxv
 BYTE   VOL   10*GoldenSunIsaacsBattleThemeMeatOfJustice_mvl/mxv
 BYTE   VOL   38*GoldenSunIsaacsBattleThemeMeatOfJustice_mvl/mxv
 BYTE   PATT
  POIN2 Label_1_01656C9B
// 054   ----------------------------------------
 BYTE   VOL   48*GoldenSunIsaacsBattleThemeMeatOfJustice_mvl/mxv
 BYTE   VOL   17*GoldenSunIsaacsBattleThemeMeatOfJustice_mvl/mxv
 BYTE   N11  Gn3  v110
 BYTE   VOL   16*GoldenSunIsaacsBattleThemeMeatOfJustice_mvl/mxv
 BYTE   VOL   46*GoldenSunIsaacsBattleThemeMeatOfJustice_mvl/mxv
 BYTE   VOL   45*GoldenSunIsaacsBattleThemeMeatOfJustice_mvl/mxv
 BYTE   VOL   15*GoldenSunIsaacsBattleThemeMeatOfJustice_mvl/mxv
 BYTE   VOL   14*GoldenSunIsaacsBattleThemeMeatOfJustice_mvl/mxv
 BYTE   VOL   44*GoldenSunIsaacsBattleThemeMeatOfJustice_mvl/mxv
 BYTE   VOL   13*GoldenSunIsaacsBattleThemeMeatOfJustice_mvl/mxv
 BYTE   VOL   42*GoldenSunIsaacsBattleThemeMeatOfJustice_mvl/mxv
 BYTE   VOL   41*GoldenSunIsaacsBattleThemeMeatOfJustice_mvl/mxv
 BYTE   VOL   12*GoldenSunIsaacsBattleThemeMeatOfJustice_mvl/mxv
 BYTE   VOL   11*GoldenSunIsaacsBattleThemeMeatOfJustice_mvl/mxv
 BYTE   VOL   40*GoldenSunIsaacsBattleThemeMeatOfJustice_mvl/mxv
 BYTE   VOL   38*GoldenSunIsaacsBattleThemeMeatOfJustice_mvl/mxv
 BYTE   VOL   10*GoldenSunIsaacsBattleThemeMeatOfJustice_mvl/mxv
 BYTE   VOL   9*GoldenSunIsaacsBattleThemeMeatOfJustice_mvl/mxv
 BYTE   VOL   37*GoldenSunIsaacsBattleThemeMeatOfJustice_mvl/mxv
 BYTE   VOL   36*GoldenSunIsaacsBattleThemeMeatOfJustice_mvl/mxv
 BYTE   VOL   34*GoldenSunIsaacsBattleThemeMeatOfJustice_mvl/mxv
 BYTE   VOL   33*GoldenSunIsaacsBattleThemeMeatOfJustice_mvl/mxv
 BYTE   VOL   32*GoldenSunIsaacsBattleThemeMeatOfJustice_mvl/mxv
 BYTE   VOL   31*GoldenSunIsaacsBattleThemeMeatOfJustice_mvl/mxv
 BYTE   VOL   29*GoldenSunIsaacsBattleThemeMeatOfJustice_mvl/mxv
 BYTE   VOL   28*GoldenSunIsaacsBattleThemeMeatOfJustice_mvl/mxv
 BYTE   VOL   48*GoldenSunIsaacsBattleThemeMeatOfJustice_mvl/mxv
 BYTE   VOL   27*GoldenSunIsaacsBattleThemeMeatOfJustice_mvl/mxv
 BYTE   N17  Gs3  v110
 BYTE   VOL   26*GoldenSunIsaacsBattleThemeMeatOfJustice_mvl/mxv
 BYTE   VOL   46*GoldenSunIsaacsBattleThemeMeatOfJustice_mvl/mxv
 BYTE   VOL   45*GoldenSunIsaacsBattleThemeMeatOfJustice_mvl/mxv
 BYTE   VOL   24*GoldenSunIsaacsBattleThemeMeatOfJustice_mvl/mxv
 BYTE   VOL   23*GoldenSunIsaacsBattleThemeMeatOfJustice_mvl/mxv
 BYTE   VOL   44*GoldenSunIsaacsBattleThemeMeatOfJustice_mvl/mxv
 BYTE   VOL   22*GoldenSunIsaacsBattleThemeMeatOfJustice_mvl/mxv
 BYTE   VOL   42*GoldenSunIsaacsBattleThemeMeatOfJustice_mvl/mxv
 BYTE   VOL   41*GoldenSunIsaacsBattleThemeMeatOfJustice_mvl/mxv
 BYTE   VOL   21*GoldenSunIsaacsBattleThemeMeatOfJustice_mvl/mxv
 BYTE   VOL   40*GoldenSunIsaacsBattleThemeMeatOfJustice_mvl/mxv
 BYTE   VOL   20*GoldenSunIsaacsBattleThemeMeatOfJustice_mvl/mxv
 BYTE   VOL   18*GoldenSunIsaacsBattleThemeMeatOfJustice_mvl/mxv
 BYTE   VOL   38*GoldenSunIsaacsBattleThemeMeatOfJustice_mvl/mxv
 BYTE   VOL   37*GoldenSunIsaacsBattleThemeMeatOfJustice_mvl/mxv
 BYTE   VOL   17*GoldenSunIsaacsBattleThemeMeatOfJustice_mvl/mxv
 BYTE   VOL   16*GoldenSunIsaacsBattleThemeMeatOfJustice_mvl/mxv
 BYTE   VOL   36*GoldenSunIsaacsBattleThemeMeatOfJustice_mvl/mxv
 BYTE   VOL   34*GoldenSunIsaacsBattleThemeMeatOfJustice_mvl/mxv
 BYTE   VOL   15*GoldenSunIsaacsBattleThemeMeatOfJustice_mvl/mxv
 BYTE   VOL   14*GoldenSunIsaacsBattleThemeMeatOfJustice_mvl/mxv
 BYTE   VOL   33*GoldenSunIsaacsBattleThemeMeatOfJustice_mvl/mxv
 BYTE   VOL   13*GoldenSunIsaacsBattleThemeMeatOfJustice_mvl/mxv
 BYTE   VOL   32*GoldenSunIsaacsBattleThemeMeatOfJustice_mvl/mxv
 BYTE   VOL   31*GoldenSunIsaacsBattleThemeMeatOfJustice_mvl/mxv
 BYTE   VOL   12*GoldenSunIsaacsBattleThemeMeatOfJustice_mvl/mxv
 BYTE   VOL   11*GoldenSunIsaacsBattleThemeMeatOfJustice_mvl/mxv
 BYTE   VOL   29*GoldenSunIsaacsBattleThemeMeatOfJustice_mvl/mxv
 BYTE   VOL   10*GoldenSunIsaacsBattleThemeMeatOfJustice_mvl/mxv
 BYTE   VOL   28*GoldenSunIsaacsBattleThemeMeatOfJustice_mvl/mxv
 BYTE   VOL   27*GoldenSunIsaacsBattleThemeMeatOfJustice_mvl/mxv
 BYTE   VOL   9*GoldenSunIsaacsBattleThemeMeatOfJustice_mvl/mxv
 BYTE   VOL   26*GoldenSunIsaacsBattleThemeMeatOfJustice_mvl/mxv
 BYTE   VOL   24*GoldenSunIsaacsBattleThemeMeatOfJustice_mvl/mxv
 BYTE   VOL   23*GoldenSunIsaacsBattleThemeMeatOfJustice_mvl/mxv
 BYTE   VOL   22*GoldenSunIsaacsBattleThemeMeatOfJustice_mvl/mxv
 BYTE   VOL   21*GoldenSunIsaacsBattleThemeMeatOfJustice_mvl/mxv
 BYTE   VOL   20*GoldenSunIsaacsBattleThemeMeatOfJustice_mvl/mxv
 BYTE   VOL   18*GoldenSunIsaacsBattleThemeMeatOfJustice_mvl/mxv
 BYTE   VOL   48*GoldenSunIsaacsBattleThemeMeatOfJustice_mvl/mxv
 BYTE   VOL   17*GoldenSunIsaacsBattleThemeMeatOfJustice_mvl/mxv
 BYTE   N17  An3  v110
 BYTE   VOL   16*GoldenSunIsaacsBattleThemeMeatOfJustice_mvl/mxv
 BYTE   VOL   46*GoldenSunIsaacsBattleThemeMeatOfJustice_mvl/mxv
 BYTE   VOL   45*GoldenSunIsaacsBattleThemeMeatOfJustice_mvl/mxv
 BYTE   VOL   15*GoldenSunIsaacsBattleThemeMeatOfJustice_mvl/mxv
 BYTE   VOL   14*GoldenSunIsaacsBattleThemeMeatOfJustice_mvl/mxv
 BYTE   VOL   44*GoldenSunIsaacsBattleThemeMeatOfJustice_mvl/mxv
 BYTE   VOL   13*GoldenSunIsaacsBattleThemeMeatOfJustice_mvl/mxv
 BYTE   VOL   42*GoldenSunIsaacsBattleThemeMeatOfJustice_mvl/mxv
 BYTE   VOL   12*GoldenSunIsaacsBattleThemeMeatOfJustice_mvl/mxv
 BYTE   VOL   41*GoldenSunIsaacsBattleThemeMeatOfJustice_mvl/mxv
 BYTE   VOL   40*GoldenSunIsaacsBattleThemeMeatOfJustice_mvl/mxv
 BYTE   VOL   11*GoldenSunIsaacsBattleThemeMeatOfJustice_mvl/mxv
 BYTE   VOL   10*GoldenSunIsaacsBattleThemeMeatOfJustice_mvl/mxv
 BYTE   VOL   38*GoldenSunIsaacsBattleThemeMeatOfJustice_mvl/mxv
 BYTE   PATT
  POIN2 Label_1_01656C9B
// 055   ----------------------------------------
 BYTE   VOL   48*GoldenSunIsaacsBattleThemeMeatOfJustice_mvl/mxv
 BYTE   VOL   17*GoldenSunIsaacsBattleThemeMeatOfJustice_mvl/mxv
 BYTE   N11  Bn3  v110
 BYTE   VOL   16*GoldenSunIsaacsBattleThemeMeatOfJustice_mvl/mxv
 BYTE   VOL   46*GoldenSunIsaacsBattleThemeMeatOfJustice_mvl/mxv
 BYTE   VOL   45*GoldenSunIsaacsBattleThemeMeatOfJustice_mvl/mxv
 BYTE   VOL   15*GoldenSunIsaacsBattleThemeMeatOfJustice_mvl/mxv
 BYTE   VOL   14*GoldenSunIsaacsBattleThemeMeatOfJustice_mvl/mxv
 BYTE   VOL   44*GoldenSunIsaacsBattleThemeMeatOfJustice_mvl/mxv
 BYTE   VOL   13*GoldenSunIsaacsBattleThemeMeatOfJustice_mvl/mxv
 BYTE   VOL   42*GoldenSunIsaacsBattleThemeMeatOfJustice_mvl/mxv
 BYTE   VOL   41*GoldenSunIsaacsBattleThemeMeatOfJustice_mvl/mxv
 BYTE   VOL   12*GoldenSunIsaacsBattleThemeMeatOfJustice_mvl/mxv
 BYTE   VOL   11*GoldenSunIsaacsBattleThemeMeatOfJustice_mvl/mxv
 BYTE   VOL   40*GoldenSunIsaacsBattleThemeMeatOfJustice_mvl/mxv
 BYTE   VOL   10*GoldenSunIsaacsBattleThemeMeatOfJustice_mvl/mxv
 BYTE   VOL   38*GoldenSunIsaacsBattleThemeMeatOfJustice_mvl/mxv
 BYTE   VOL   9*GoldenSunIsaacsBattleThemeMeatOfJustice_mvl/mxv
 BYTE   VOL   37*GoldenSunIsaacsBattleThemeMeatOfJustice_mvl/mxv
 BYTE   VOL   36*GoldenSunIsaacsBattleThemeMeatOfJustice_mvl/mxv
 BYTE   VOL   34*GoldenSunIsaacsBattleThemeMeatOfJustice_mvl/mxv
 BYTE   VOL   33*GoldenSunIsaacsBattleThemeMeatOfJustice_mvl/mxv
 BYTE   VOL   32*GoldenSunIsaacsBattleThemeMeatOfJustice_mvl/mxv
 BYTE   VOL   31*GoldenSunIsaacsBattleThemeMeatOfJustice_mvl/mxv
 BYTE   VOL   29*GoldenSunIsaacsBattleThemeMeatOfJustice_mvl/mxv
 BYTE   VOL   28*GoldenSunIsaacsBattleThemeMeatOfJustice_mvl/mxv
Label_1_01656E94:
 BYTE   VOL   48*GoldenSunIsaacsBattleThemeMeatOfJustice_mvl/mxv
 BYTE   VOL   27*GoldenSunIsaacsBattleThemeMeatOfJustice_mvl/mxv
 BYTE   VOL   26*GoldenSunIsaacsBattleThemeMeatOfJustice_mvl/mxv
 BYTE   VOL   24*GoldenSunIsaacsBattleThemeMeatOfJustice_mvl/mxv
 BYTE   VOL   23*GoldenSunIsaacsBattleThemeMeatOfJustice_mvl/mxv
 BYTE   VOL   22*GoldenSunIsaacsBattleThemeMeatOfJustice_mvl/mxv
 BYTE   VOL   21*GoldenSunIsaacsBattleThemeMeatOfJustice_mvl/mxv
 BYTE   VOL   20*GoldenSunIsaacsBattleThemeMeatOfJustice_mvl/mxv
 BYTE   VOL   18*GoldenSunIsaacsBattleThemeMeatOfJustice_mvl/mxv
 BYTE   VOL   17*GoldenSunIsaacsBattleThemeMeatOfJustice_mvl/mxv
 BYTE   N05  Cn4  v110
 BYTE   VOL   16*GoldenSunIsaacsBattleThemeMeatOfJustice_mvl/mxv
 BYTE   VOL   15*GoldenSunIsaacsBattleThemeMeatOfJustice_mvl/mxv
 BYTE   VOL   14*GoldenSunIsaacsBattleThemeMeatOfJustice_mvl/mxv
 BYTE   VOL   13*GoldenSunIsaacsBattleThemeMeatOfJustice_mvl/mxv
 BYTE   VOL   12*GoldenSunIsaacsBattleThemeMeatOfJustice_mvl/mxv
 BYTE   VOL   11*GoldenSunIsaacsBattleThemeMeatOfJustice_mvl/mxv
 BYTE   VOL   10*GoldenSunIsaacsBattleThemeMeatOfJustice_mvl/mxv
 BYTE   PEND 
 BYTE   VOL   9*GoldenSunIsaacsBattleThemeMeatOfJustice_mvl/mxv
 BYTE   N05  Bn3  v110
 BYTE   W06
 BYTE   N32  Cn4
 BYTE   W36
 BYTE   N17  Bn3
 BYTE   W18
 BYTE   An3
 BYTE   W18
 BYTE   N11  Gn3
 BYTE   W12
 BYTE   N90  An3
 BYTE   W96
// 056   ----------------------------------------
 BYTE   N05  Cn4
 BYTE   W06
 BYTE   Bn3
 BYTE   W06
 BYTE   N32  Cn4
 BYTE   W36
 BYTE   N17  Bn3
 BYTE   W18
 BYTE   Cn4
 BYTE   W18
 BYTE   N11  Dn4
 BYTE   W12
// 057   ----------------------------------------
 BYTE   N90  An3
 BYTE   W96
// 058   ----------------------------------------
 BYTE   N05  Cn4
 BYTE   W06
 BYTE   Bn3
 BYTE   W06
 BYTE   N32  Cn4
 BYTE   W36
 BYTE   N17  Bn3
 BYTE   W18
 BYTE   An3
 BYTE   W18
 BYTE   N11  Gn3
 BYTE   W12
// 059   ----------------------------------------
 BYTE   N90  An3
 BYTE   W96
// 060   ----------------------------------------
 BYTE   N05  Cn4
 BYTE   W06
 BYTE   Bn3
 BYTE   W06
 BYTE   N32  Cn4
 BYTE   W36
 BYTE   N17  Bn3
 BYTE   W18
 BYTE   Cn4
 BYTE   W18
 BYTE   N11  Dn4
 BYTE   W12
// 061   ----------------------------------------
 BYTE   N66  An3
 BYTE   W90
 BYTE   N11  Fs1
 BYTE   W12
// 062   ----------------------------------------
 BYTE   N05  Fs2
 BYTE   N05  Fs1
 BYTE   W06
 BYTE   Fs1
 BYTE   W06
 BYTE   N11
 BYTE   W12
 BYTE   N05  En2
 BYTE   N05  Fs1
 BYTE   W06
 BYTE   Fs2
 BYTE   N05  Fs1
 BYTE   W06
 BYTE   N11
 BYTE   W12
 BYTE   N05  Fs2
 BYTE   N05  Fs1
 BYTE   W06
 BYTE   Fs1
 BYTE   W06
 BYTE   N11
 BYTE   W12
 BYTE   N05  En2
 BYTE   N05  Fs1
 BYTE   W06
 BYTE   Fs2
 BYTE   N05  Fs1
 BYTE   W06
 BYTE   N11
 BYTE   W12
// 063   ----------------------------------------
 BYTE   N05
 BYTE   W06
 BYTE   Fs1
 BYTE   W06
 BYTE   N11
 BYTE   W12
 BYTE   N05
 BYTE   W06
 BYTE   Fs1
 BYTE   W06
 BYTE   N11
 BYTE   W12
 BYTE   N05
 BYTE   W06
 BYTE   Fs1
 BYTE   W06
 BYTE   N11
 BYTE   W12
 BYTE   N05
 BYTE   W06
 BYTE   Fs1
 BYTE   W06
 BYTE   N11
 BYTE   W12
// 064   ----------------------------------------
 BYTE   N05  Fs2
 BYTE   N05  Fs1
 BYTE   W06
 BYTE   Fs1
 BYTE   W06
 BYTE   N11
 BYTE   W12
 BYTE   N05  En2
 BYTE   N05  Fs1
 BYTE   W06
 BYTE   Fs2
 BYTE   N05  Fs1
 BYTE   W06
 BYTE   N11
 BYTE   W12
 BYTE   N05  Fs2
 BYTE   N05  Fs1
 BYTE   W06
 BYTE   Fs1
 BYTE   W06
 BYTE   Fs1
 BYTE   W06
 BYTE   En2
 BYTE   W06
 BYTE   Fs2
 BYTE   N05  Fs1
 BYTE   W06
 BYTE   En2
 BYTE   N05  Fs1
 BYTE   W06
 BYTE   N11
 BYTE   W12
// 065   ----------------------------------------
 BYTE   N05
 BYTE   W06
 BYTE   Fs1
 BYTE   W06
 BYTE   N11
 BYTE   W12
 BYTE   N05
 BYTE   W06
 BYTE   Fs1
 BYTE   W06
 BYTE   N11
 BYTE   W12
 BYTE   N05
 BYTE   W06
 BYTE   Fs1
 BYTE   W06
 BYTE   N11
 BYTE   W12
 BYTE   N05
 BYTE   W06
 BYTE   Fs1
 BYTE   W06
 BYTE   N11
 BYTE   W12
// 066   ----------------------------------------
 BYTE   N05  Fs2
 BYTE   N05  Fs1
 BYTE   W06
 BYTE   Fs1
 BYTE   W06
 BYTE   N11
 BYTE   W12
 BYTE   N05  En2
 BYTE   N05  Fs1
 BYTE   W06
 BYTE   Fs2
 BYTE   N05  Fs1
 BYTE   W06
 BYTE   N11
 BYTE   W12
 BYTE   N05  Fs2
 BYTE   N05  Fs1
 BYTE   W06
 BYTE   Fs1
 BYTE   W06
 BYTE   N11
 BYTE   W12
 BYTE   N05  En2
 BYTE   N05  Fs1
 BYTE   W06
 BYTE   Fs2
 BYTE   N05  Fs1
 BYTE   W06
 BYTE   N11
 BYTE   W12
// 067   ----------------------------------------
 BYTE   N05
 BYTE   W06
 BYTE   Fs1
 BYTE   W06
 BYTE   N11
 BYTE   W12
 BYTE   N05
 BYTE   W06
 BYTE   Fs1
 BYTE   W06
 BYTE   N11
 BYTE   W12
 BYTE   N05
 BYTE   W06
 BYTE   Fs1
 BYTE   W06
 BYTE   N11
 BYTE   W12
 BYTE   N05
 BYTE   W06
 BYTE   Fs1
 BYTE   W06
 BYTE   N11
 BYTE   W12
// 068   ----------------------------------------
 BYTE   N05  Fs2
 BYTE   N05  Fs1
 BYTE   W06
 BYTE   Fs1
 BYTE   W06
 BYTE   N11
 BYTE   W12
 BYTE   N05  En2
 BYTE   N05  Fs1
 BYTE   W06
 BYTE   Fs2
 BYTE   N05  Fs1
 BYTE   W06
 BYTE   N11
 BYTE   W12
 BYTE   N05  Fs2
 BYTE   N05  Fs1
 BYTE   W06
 BYTE   Fs1
 BYTE   W06
 BYTE   Fs1
 BYTE   W06
 BYTE   En2
 BYTE   W06
 BYTE   Fs2
 BYTE   N05  Fs1
 BYTE   W06
 BYTE   En2
 BYTE   N05  Fs1
 BYTE   W06
 BYTE   N11
 BYTE   W12
// 069   ----------------------------------------
 BYTE   N05
 BYTE   W06
 BYTE   Fs1
 BYTE   W06
 BYTE   N11
 BYTE   W12
 BYTE   N05
 BYTE   W06
 BYTE   Fs1
 BYTE   W06
 BYTE   N11
 BYTE   W12
 BYTE   N05
 BYTE   W06
 BYTE   Fs1
 BYTE   W06
 BYTE   N11
 BYTE   W12
 BYTE   N05
 BYTE   W06
 BYTE   Fs1
 BYTE   W96
// 070   ----------------------------------------
 BYTE   W96
// 071   ----------------------------------------
 BYTE   W96
// 072   ----------------------------------------
 BYTE   W96
// 073   ----------------------------------------
 BYTE   W96
// 074   ----------------------------------------
 BYTE   W96
// 075   ----------------------------------------
 BYTE   W96
// 076   ----------------------------------------
 BYTE   W96
// 077   ----------------------------------------
 BYTE   W96
// 078   ----------------------------------------
 BYTE   W96
// 079   ----------------------------------------
 BYTE   W96
// 080   ----------------------------------------
 BYTE   W96
// 081   ----------------------------------------
 BYTE   W96
// 082   ----------------------------------------
 BYTE   W96
// 083   ----------------------------------------
 BYTE   W96
// 084   ----------------------------------------
 BYTE   W06
 BYTE   PATT
  POIN2 Label_1_01656B15
 BYTE   PATT
  POIN2 Label_1_01656B39
// 085   ----------------------------------------
 BYTE   VOL   9*GoldenSunIsaacsBattleThemeMeatOfJustice_mvl/mxv
 BYTE   W24
 BYTE   PATT
  POIN2 Label_1_01656B5D
 BYTE   PATT
  POIN2 Label_1_01656B39
 BYTE   PATT
  POIN2 Label_1_01656B86
 BYTE   PATT
  POIN2 Label_1_01656B39
 BYTE   PATT
  POIN2 Label_1_01656BB1
// 086   ----------------------------------------
 BYTE   VOL   27*GoldenSunIsaacsBattleThemeMeatOfJustice_mvl/mxv
 BYTE   VOL   26*GoldenSunIsaacsBattleThemeMeatOfJustice_mvl/mxv
 BYTE   VOL   24*GoldenSunIsaacsBattleThemeMeatOfJustice_mvl/mxv
 BYTE   VOL   23*GoldenSunIsaacsBattleThemeMeatOfJustice_mvl/mxv
 BYTE   VOL   22*GoldenSunIsaacsBattleThemeMeatOfJustice_mvl/mxv
 BYTE   VOL   21*GoldenSunIsaacsBattleThemeMeatOfJustice_mvl/mxv
 BYTE   VOL   20*GoldenSunIsaacsBattleThemeMeatOfJustice_mvl/mxv
 BYTE   VOL   18*GoldenSunIsaacsBattleThemeMeatOfJustice_mvl/mxv
 BYTE   VOL   48*GoldenSunIsaacsBattleThemeMeatOfJustice_mvl/mxv
 BYTE   VOL   17*GoldenSunIsaacsBattleThemeMeatOfJustice_mvl/mxv
 BYTE   N28  Bn2  v110
 BYTE   VOL   16*GoldenSunIsaacsBattleThemeMeatOfJustice_mvl/mxv
 BYTE   VOL   46*GoldenSunIsaacsBattleThemeMeatOfJustice_mvl/mxv
 BYTE   VOL   45*GoldenSunIsaacsBattleThemeMeatOfJustice_mvl/mxv
 BYTE   VOL   15*GoldenSunIsaacsBattleThemeMeatOfJustice_mvl/mxv
 BYTE   VOL   14*GoldenSunIsaacsBattleThemeMeatOfJustice_mvl/mxv
 BYTE   VOL   44*GoldenSunIsaacsBattleThemeMeatOfJustice_mvl/mxv
 BYTE   VOL   42*GoldenSunIsaacsBattleThemeMeatOfJustice_mvl/mxv
 BYTE   VOL   13*GoldenSunIsaacsBattleThemeMeatOfJustice_mvl/mxv
 BYTE   N01  Bn2  v110
 BYTE   VOL   41*GoldenSunIsaacsBattleThemeMeatOfJustice_mvl/mxv
 BYTE   VOL   12*GoldenSunIsaacsBattleThemeMeatOfJustice_mvl/mxv
 BYTE   VOL   11*GoldenSunIsaacsBattleThemeMeatOfJustice_mvl/mxv
 BYTE   VOL   40*GoldenSunIsaacsBattleThemeMeatOfJustice_mvl/mxv
 BYTE   VOL   10*GoldenSunIsaacsBattleThemeMeatOfJustice_mvl/mxv
 BYTE   VOL   38*GoldenSunIsaacsBattleThemeMeatOfJustice_mvl/mxv
 BYTE   PATT
  POIN2 Label_1_01656C9B
 BYTE   PATT
  POIN2 Label_1_01656C30
 BYTE   PATT
  POIN2 Label_1_01656C44
// 087   ----------------------------------------
 BYTE   VOL   27*GoldenSunIsaacsBattleThemeMeatOfJustice_mvl/mxv
 BYTE   VOL   26*GoldenSunIsaacsBattleThemeMeatOfJustice_mvl/mxv
 BYTE   VOL   24*GoldenSunIsaacsBattleThemeMeatOfJustice_mvl/mxv
 BYTE   VOL   23*GoldenSunIsaacsBattleThemeMeatOfJustice_mvl/mxv
 BYTE   VOL   22*GoldenSunIsaacsBattleThemeMeatOfJustice_mvl/mxv
 BYTE   VOL   21*GoldenSunIsaacsBattleThemeMeatOfJustice_mvl/mxv
 BYTE   VOL   20*GoldenSunIsaacsBattleThemeMeatOfJustice_mvl/mxv
 BYTE   VOL   18*GoldenSunIsaacsBattleThemeMeatOfJustice_mvl/mxv
 BYTE   VOL   48*GoldenSunIsaacsBattleThemeMeatOfJustice_mvl/mxv
 BYTE   VOL   17*GoldenSunIsaacsBattleThemeMeatOfJustice_mvl/mxv
 BYTE   N17  Cn3  v110
 BYTE   VOL   16*GoldenSunIsaacsBattleThemeMeatOfJustice_mvl/mxv
 BYTE   VOL   46*GoldenSunIsaacsBattleThemeMeatOfJustice_mvl/mxv
 BYTE   VOL   45*GoldenSunIsaacsBattleThemeMeatOfJustice_mvl/mxv
 BYTE   VOL   15*GoldenSunIsaacsBattleThemeMeatOfJustice_mvl/mxv
 BYTE   VOL   44*GoldenSunIsaacsBattleThemeMeatOfJustice_mvl/mxv
 BYTE   VOL   14*GoldenSunIsaacsBattleThemeMeatOfJustice_mvl/mxv
 BYTE   VOL   13*GoldenSunIsaacsBattleThemeMeatOfJustice_mvl/mxv
 BYTE   VOL   42*GoldenSunIsaacsBattleThemeMeatOfJustice_mvl/mxv
 BYTE   VOL   41*GoldenSunIsaacsBattleThemeMeatOfJustice_mvl/mxv
 BYTE   VOL   12*GoldenSunIsaacsBattleThemeMeatOfJustice_mvl/mxv
 BYTE   VOL   11*GoldenSunIsaacsBattleThemeMeatOfJustice_mvl/mxv
 BYTE   VOL   40*GoldenSunIsaacsBattleThemeMeatOfJustice_mvl/mxv
 BYTE   VOL   38*GoldenSunIsaacsBattleThemeMeatOfJustice_mvl/mxv
 BYTE   VOL   10*GoldenSunIsaacsBattleThemeMeatOfJustice_mvl/mxv
 BYTE   PATT
  POIN2 Label_1_01656C9B
// 088   ----------------------------------------
 BYTE   VOL   48*GoldenSunIsaacsBattleThemeMeatOfJustice_mvl/mxv
 BYTE   VOL   17*GoldenSunIsaacsBattleThemeMeatOfJustice_mvl/mxv
 BYTE   N11  Dn3  v110
 BYTE   VOL   16*GoldenSunIsaacsBattleThemeMeatOfJustice_mvl/mxv
 BYTE   VOL   46*GoldenSunIsaacsBattleThemeMeatOfJustice_mvl/mxv
 BYTE   VOL   45*GoldenSunIsaacsBattleThemeMeatOfJustice_mvl/mxv
 BYTE   VOL   15*GoldenSunIsaacsBattleThemeMeatOfJustice_mvl/mxv
 BYTE   VOL   14*GoldenSunIsaacsBattleThemeMeatOfJustice_mvl/mxv
 BYTE   VOL   44*GoldenSunIsaacsBattleThemeMeatOfJustice_mvl/mxv
 BYTE   VOL   42*GoldenSunIsaacsBattleThemeMeatOfJustice_mvl/mxv
 BYTE   VOL   13*GoldenSunIsaacsBattleThemeMeatOfJustice_mvl/mxv
 BYTE   VOL   12*GoldenSunIsaacsBattleThemeMeatOfJustice_mvl/mxv
 BYTE   VOL   41*GoldenSunIsaacsBattleThemeMeatOfJustice_mvl/mxv
 BYTE   VOL   40*GoldenSunIsaacsBattleThemeMeatOfJustice_mvl/mxv
 BYTE   VOL   11*GoldenSunIsaacsBattleThemeMeatOfJustice_mvl/mxv
 BYTE   VOL   10*GoldenSunIsaacsBattleThemeMeatOfJustice_mvl/mxv
 BYTE   VOL   38*GoldenSunIsaacsBattleThemeMeatOfJustice_mvl/mxv
 BYTE   VOL   9*GoldenSunIsaacsBattleThemeMeatOfJustice_mvl/mxv
 BYTE   VOL   37*GoldenSunIsaacsBattleThemeMeatOfJustice_mvl/mxv
 BYTE   VOL   36*GoldenSunIsaacsBattleThemeMeatOfJustice_mvl/mxv
 BYTE   VOL   34*GoldenSunIsaacsBattleThemeMeatOfJustice_mvl/mxv
 BYTE   VOL   33*GoldenSunIsaacsBattleThemeMeatOfJustice_mvl/mxv
 BYTE   VOL   32*GoldenSunIsaacsBattleThemeMeatOfJustice_mvl/mxv
 BYTE   VOL   31*GoldenSunIsaacsBattleThemeMeatOfJustice_mvl/mxv
 BYTE   VOL   29*GoldenSunIsaacsBattleThemeMeatOfJustice_mvl/mxv
 BYTE   VOL   28*GoldenSunIsaacsBattleThemeMeatOfJustice_mvl/mxv
 BYTE   VOL   48*GoldenSunIsaacsBattleThemeMeatOfJustice_mvl/mxv
 BYTE   VOL   27*GoldenSunIsaacsBattleThemeMeatOfJustice_mvl/mxv
 BYTE   N42  En3  v110
 BYTE   VOL   26*GoldenSunIsaacsBattleThemeMeatOfJustice_mvl/mxv
 BYTE   VOL   46*GoldenSunIsaacsBattleThemeMeatOfJustice_mvl/mxv
 BYTE   VOL   24*GoldenSunIsaacsBattleThemeMeatOfJustice_mvl/mxv
 BYTE   VOL   45*GoldenSunIsaacsBattleThemeMeatOfJustice_mvl/mxv
 BYTE   VOL   23*GoldenSunIsaacsBattleThemeMeatOfJustice_mvl/mxv
 BYTE   VOL   44*GoldenSunIsaacsBattleThemeMeatOfJustice_mvl/mxv
 BYTE   VOL   42*GoldenSunIsaacsBattleThemeMeatOfJustice_mvl/mxv
 BYTE   VOL   22*GoldenSunIsaacsBattleThemeMeatOfJustice_mvl/mxv
 BYTE   VOL   21*GoldenSunIsaacsBattleThemeMeatOfJustice_mvl/mxv
 BYTE   VOL   41*GoldenSunIsaacsBattleThemeMeatOfJustice_mvl/mxv
 BYTE   VOL   40*GoldenSunIsaacsBattleThemeMeatOfJustice_mvl/mxv
 BYTE   VOL   20*GoldenSunIsaacsBattleThemeMeatOfJustice_mvl/mxv
 BYTE   VOL   18*GoldenSunIsaacsBattleThemeMeatOfJustice_mvl/mxv
 BYTE   VOL   38*GoldenSunIsaacsBattleThemeMeatOfJustice_mvl/mxv
 BYTE   VOL   17*GoldenSunIsaacsBattleThemeMeatOfJustice_mvl/mxv
 BYTE   VOL   37*GoldenSunIsaacsBattleThemeMeatOfJustice_mvl/mxv
 BYTE   VOL   36*GoldenSunIsaacsBattleThemeMeatOfJustice_mvl/mxv
 BYTE   VOL   16*GoldenSunIsaacsBattleThemeMeatOfJustice_mvl/mxv
 BYTE   VOL   34*GoldenSunIsaacsBattleThemeMeatOfJustice_mvl/mxv
 BYTE   VOL   15*GoldenSunIsaacsBattleThemeMeatOfJustice_mvl/mxv
 BYTE   VOL   14*GoldenSunIsaacsBattleThemeMeatOfJustice_mvl/mxv
 BYTE   VOL   33*GoldenSunIsaacsBattleThemeMeatOfJustice_mvl/mxv
 BYTE   VOL   13*GoldenSunIsaacsBattleThemeMeatOfJustice_mvl/mxv
 BYTE   VOL   32*GoldenSunIsaacsBattleThemeMeatOfJustice_mvl/mxv
 BYTE   VOL   31*GoldenSunIsaacsBattleThemeMeatOfJustice_mvl/mxv
 BYTE   VOL   12*GoldenSunIsaacsBattleThemeMeatOfJustice_mvl/mxv
 BYTE   VOL   29*GoldenSunIsaacsBattleThemeMeatOfJustice_mvl/mxv
 BYTE   VOL   11*GoldenSunIsaacsBattleThemeMeatOfJustice_mvl/mxv
 BYTE   VOL   28*GoldenSunIsaacsBattleThemeMeatOfJustice_mvl/mxv
 BYTE   VOL   10*GoldenSunIsaacsBattleThemeMeatOfJustice_mvl/mxv
 BYTE   PATT
  POIN2 Label_1_01656D36
// 089   ----------------------------------------
 BYTE   VOL   9*GoldenSunIsaacsBattleThemeMeatOfJustice_mvl/mxv
 BYTE   W24
 BYTE   PATT
  POIN2 Label_1_01656B5D
 BYTE   PATT
  POIN2 Label_1_01656B39
 BYTE   PATT
  POIN2 Label_1_01656B86
 BYTE   PATT
  POIN2 Label_1_01656B39
 BYTE   PATT
  POIN2 Label_1_01656BB1
// 090   ----------------------------------------
 BYTE   VOL   27*GoldenSunIsaacsBattleThemeMeatOfJustice_mvl/mxv
 BYTE   VOL   26*GoldenSunIsaacsBattleThemeMeatOfJustice_mvl/mxv
 BYTE   VOL   24*GoldenSunIsaacsBattleThemeMeatOfJustice_mvl/mxv
 BYTE   VOL   23*GoldenSunIsaacsBattleThemeMeatOfJustice_mvl/mxv
 BYTE   VOL   22*GoldenSunIsaacsBattleThemeMeatOfJustice_mvl/mxv
 BYTE   VOL   21*GoldenSunIsaacsBattleThemeMeatOfJustice_mvl/mxv
 BYTE   VOL   20*GoldenSunIsaacsBattleThemeMeatOfJustice_mvl/mxv
 BYTE   VOL   18*GoldenSunIsaacsBattleThemeMeatOfJustice_mvl/mxv
 BYTE   VOL   48*GoldenSunIsaacsBattleThemeMeatOfJustice_mvl/mxv
 BYTE   VOL   17*GoldenSunIsaacsBattleThemeMeatOfJustice_mvl/mxv
 BYTE   N17  Fs3  v110
 BYTE   VOL   16*GoldenSunIsaacsBattleThemeMeatOfJustice_mvl/mxv
 BYTE   VOL   46*GoldenSunIsaacsBattleThemeMeatOfJustice_mvl/mxv
 BYTE   VOL   15*GoldenSunIsaacsBattleThemeMeatOfJustice_mvl/mxv
 BYTE   VOL   45*GoldenSunIsaacsBattleThemeMeatOfJustice_mvl/mxv
 BYTE   VOL   44*GoldenSunIsaacsBattleThemeMeatOfJustice_mvl/mxv
 BYTE   VOL   14*GoldenSunIsaacsBattleThemeMeatOfJustice_mvl/mxv
 BYTE   VOL   13*GoldenSunIsaacsBattleThemeMeatOfJustice_mvl/mxv
 BYTE   VOL   42*GoldenSunIsaacsBattleThemeMeatOfJustice_mvl/mxv
 BYTE   VOL   41*GoldenSunIsaacsBattleThemeMeatOfJustice_mvl/mxv
 BYTE   VOL   12*GoldenSunIsaacsBattleThemeMeatOfJustice_mvl/mxv
 BYTE   VOL   40*GoldenSunIsaacsBattleThemeMeatOfJustice_mvl/mxv
 BYTE   VOL   11*GoldenSunIsaacsBattleThemeMeatOfJustice_mvl/mxv
 BYTE   VOL   10*GoldenSunIsaacsBattleThemeMeatOfJustice_mvl/mxv
 BYTE   VOL   38*GoldenSunIsaacsBattleThemeMeatOfJustice_mvl/mxv
 BYTE   PATT
  POIN2 Label_1_01656C9B
// 091   ----------------------------------------
 BYTE   VOL   48*GoldenSunIsaacsBattleThemeMeatOfJustice_mvl/mxv
 BYTE   VOL   17*GoldenSunIsaacsBattleThemeMeatOfJustice_mvl/mxv
 BYTE   N11  Gn3  v110
 BYTE   VOL   46*GoldenSunIsaacsBattleThemeMeatOfJustice_mvl/mxv
 BYTE   VOL   16*GoldenSunIsaacsBattleThemeMeatOfJustice_mvl/mxv
 BYTE   VOL   15*GoldenSunIsaacsBattleThemeMeatOfJustice_mvl/mxv
 BYTE   VOL   45*GoldenSunIsaacsBattleThemeMeatOfJustice_mvl/mxv
 BYTE   VOL   14*GoldenSunIsaacsBattleThemeMeatOfJustice_mvl/mxv
 BYTE   VOL   44*GoldenSunIsaacsBattleThemeMeatOfJustice_mvl/mxv
 BYTE   VOL   42*GoldenSunIsaacsBattleThemeMeatOfJustice_mvl/mxv
 BYTE   VOL   13*GoldenSunIsaacsBattleThemeMeatOfJustice_mvl/mxv
 BYTE   VOL   12*GoldenSunIsaacsBattleThemeMeatOfJustice_mvl/mxv
 BYTE   VOL   41*GoldenSunIsaacsBattleThemeMeatOfJustice_mvl/mxv
 BYTE   VOL   40*GoldenSunIsaacsBattleThemeMeatOfJustice_mvl/mxv
 BYTE   VOL   11*GoldenSunIsaacsBattleThemeMeatOfJustice_mvl/mxv
 BYTE   VOL   10*GoldenSunIsaacsBattleThemeMeatOfJustice_mvl/mxv
 BYTE   VOL   38*GoldenSunIsaacsBattleThemeMeatOfJustice_mvl/mxv
 BYTE   VOL   37*GoldenSunIsaacsBattleThemeMeatOfJustice_mvl/mxv
 BYTE   VOL   9*GoldenSunIsaacsBattleThemeMeatOfJustice_mvl/mxv
 BYTE   VOL   36*GoldenSunIsaacsBattleThemeMeatOfJustice_mvl/mxv
 BYTE   VOL   34*GoldenSunIsaacsBattleThemeMeatOfJustice_mvl/mxv
 BYTE   VOL   33*GoldenSunIsaacsBattleThemeMeatOfJustice_mvl/mxv
 BYTE   VOL   32*GoldenSunIsaacsBattleThemeMeatOfJustice_mvl/mxv
 BYTE   VOL   31*GoldenSunIsaacsBattleThemeMeatOfJustice_mvl/mxv
 BYTE   VOL   29*GoldenSunIsaacsBattleThemeMeatOfJustice_mvl/mxv
 BYTE   VOL   28*GoldenSunIsaacsBattleThemeMeatOfJustice_mvl/mxv
 BYTE   VOL   48*GoldenSunIsaacsBattleThemeMeatOfJustice_mvl/mxv
 BYTE   VOL   27*GoldenSunIsaacsBattleThemeMeatOfJustice_mvl/mxv
 BYTE   N17  Gs3  v110
 BYTE   VOL   26*GoldenSunIsaacsBattleThemeMeatOfJustice_mvl/mxv
 BYTE   VOL   46*GoldenSunIsaacsBattleThemeMeatOfJustice_mvl/mxv
 BYTE   VOL   45*GoldenSunIsaacsBattleThemeMeatOfJustice_mvl/mxv
 BYTE   VOL   24*GoldenSunIsaacsBattleThemeMeatOfJustice_mvl/mxv
 BYTE   VOL   23*GoldenSunIsaacsBattleThemeMeatOfJustice_mvl/mxv
 BYTE   VOL   44*GoldenSunIsaacsBattleThemeMeatOfJustice_mvl/mxv
 BYTE   VOL   42*GoldenSunIsaacsBattleThemeMeatOfJustice_mvl/mxv
 BYTE   VOL   22*GoldenSunIsaacsBattleThemeMeatOfJustice_mvl/mxv
 BYTE   VOL   21*GoldenSunIsaacsBattleThemeMeatOfJustice_mvl/mxv
 BYTE   VOL   41*GoldenSunIsaacsBattleThemeMeatOfJustice_mvl/mxv
 BYTE   VOL   20*GoldenSunIsaacsBattleThemeMeatOfJustice_mvl/mxv
 BYTE   VOL   40*GoldenSunIsaacsBattleThemeMeatOfJustice_mvl/mxv
 BYTE   VOL   38*GoldenSunIsaacsBattleThemeMeatOfJustice_mvl/mxv
 BYTE   VOL   18*GoldenSunIsaacsBattleThemeMeatOfJustice_mvl/mxv
 BYTE   VOL   17*GoldenSunIsaacsBattleThemeMeatOfJustice_mvl/mxv
 BYTE   VOL   37*GoldenSunIsaacsBattleThemeMeatOfJustice_mvl/mxv
 BYTE   VOL   36*GoldenSunIsaacsBattleThemeMeatOfJustice_mvl/mxv
 BYTE   VOL   16*GoldenSunIsaacsBattleThemeMeatOfJustice_mvl/mxv
 BYTE   VOL   15*GoldenSunIsaacsBattleThemeMeatOfJustice_mvl/mxv
 BYTE   VOL   34*GoldenSunIsaacsBattleThemeMeatOfJustice_mvl/mxv
 BYTE   VOL   14*GoldenSunIsaacsBattleThemeMeatOfJustice_mvl/mxv
 BYTE   VOL   33*GoldenSunIsaacsBattleThemeMeatOfJustice_mvl/mxv
 BYTE   VOL   32*GoldenSunIsaacsBattleThemeMeatOfJustice_mvl/mxv
 BYTE   VOL   13*GoldenSunIsaacsBattleThemeMeatOfJustice_mvl/mxv
 BYTE   VOL   12*GoldenSunIsaacsBattleThemeMeatOfJustice_mvl/mxv
 BYTE   VOL   31*GoldenSunIsaacsBattleThemeMeatOfJustice_mvl/mxv
 BYTE   VOL   11*GoldenSunIsaacsBattleThemeMeatOfJustice_mvl/mxv
 BYTE   VOL   29*GoldenSunIsaacsBattleThemeMeatOfJustice_mvl/mxv
 BYTE   VOL   10*GoldenSunIsaacsBattleThemeMeatOfJustice_mvl/mxv
 BYTE   VOL   28*GoldenSunIsaacsBattleThemeMeatOfJustice_mvl/mxv
 BYTE   VOL   27*GoldenSunIsaacsBattleThemeMeatOfJustice_mvl/mxv
 BYTE   VOL   9*GoldenSunIsaacsBattleThemeMeatOfJustice_mvl/mxv
 BYTE   VOL   26*GoldenSunIsaacsBattleThemeMeatOfJustice_mvl/mxv
 BYTE   VOL   24*GoldenSunIsaacsBattleThemeMeatOfJustice_mvl/mxv
 BYTE   VOL   23*GoldenSunIsaacsBattleThemeMeatOfJustice_mvl/mxv
 BYTE   VOL   22*GoldenSunIsaacsBattleThemeMeatOfJustice_mvl/mxv
 BYTE   VOL   21*GoldenSunIsaacsBattleThemeMeatOfJustice_mvl/mxv
 BYTE   VOL   20*GoldenSunIsaacsBattleThemeMeatOfJustice_mvl/mxv
 BYTE   VOL   18*GoldenSunIsaacsBattleThemeMeatOfJustice_mvl/mxv
 BYTE   VOL   48*GoldenSunIsaacsBattleThemeMeatOfJustice_mvl/mxv
 BYTE   VOL   17*GoldenSunIsaacsBattleThemeMeatOfJustice_mvl/mxv
 BYTE   N17  An3  v110
 BYTE   VOL   46*GoldenSunIsaacsBattleThemeMeatOfJustice_mvl/mxv
 BYTE   VOL   16*GoldenSunIsaacsBattleThemeMeatOfJustice_mvl/mxv
 BYTE   VOL   15*GoldenSunIsaacsBattleThemeMeatOfJustice_mvl/mxv
 BYTE   VOL   45*GoldenSunIsaacsBattleThemeMeatOfJustice_mvl/mxv
 BYTE   VOL   14*GoldenSunIsaacsBattleThemeMeatOfJustice_mvl/mxv
 BYTE   VOL   44*GoldenSunIsaacsBattleThemeMeatOfJustice_mvl/mxv
 BYTE   VOL   13*GoldenSunIsaacsBattleThemeMeatOfJustice_mvl/mxv
 BYTE   VOL   42*GoldenSunIsaacsBattleThemeMeatOfJustice_mvl/mxv
 BYTE   VOL   41*GoldenSunIsaacsBattleThemeMeatOfJustice_mvl/mxv
 BYTE   VOL   12*GoldenSunIsaacsBattleThemeMeatOfJustice_mvl/mxv
 BYTE   VOL   11*GoldenSunIsaacsBattleThemeMeatOfJustice_mvl/mxv
 BYTE   VOL   40*GoldenSunIsaacsBattleThemeMeatOfJustice_mvl/mxv
 BYTE   VOL   10*GoldenSunIsaacsBattleThemeMeatOfJustice_mvl/mxv
 BYTE   VOL   38*GoldenSunIsaacsBattleThemeMeatOfJustice_mvl/mxv
 BYTE   PATT
  POIN2 Label_1_01656C0D
// 092   ----------------------------------------
 BYTE   VOL   48*GoldenSunIsaacsBattleThemeMeatOfJustice_mvl/mxv
 BYTE   VOL   17*GoldenSunIsaacsBattleThemeMeatOfJustice_mvl/mxv
 BYTE   N11  Bn3  v110
 BYTE   VOL   16*GoldenSunIsaacsBattleThemeMeatOfJustice_mvl/mxv
 BYTE   VOL   46*GoldenSunIsaacsBattleThemeMeatOfJustice_mvl/mxv
 BYTE   VOL   15*GoldenSunIsaacsBattleThemeMeatOfJustice_mvl/mxv
 BYTE   VOL   45*GoldenSunIsaacsBattleThemeMeatOfJustice_mvl/mxv
 BYTE   VOL   14*GoldenSunIsaacsBattleThemeMeatOfJustice_mvl/mxv
 BYTE   VOL   44*GoldenSunIsaacsBattleThemeMeatOfJustice_mvl/mxv
 BYTE   VOL   42*GoldenSunIsaacsBattleThemeMeatOfJustice_mvl/mxv
 BYTE   VOL   13*GoldenSunIsaacsBattleThemeMeatOfJustice_mvl/mxv
 BYTE   VOL   41*GoldenSunIsaacsBattleThemeMeatOfJustice_mvl/mxv
 BYTE   VOL   12*GoldenSunIsaacsBattleThemeMeatOfJustice_mvl/mxv
 BYTE   VOL   11*GoldenSunIsaacsBattleThemeMeatOfJustice_mvl/mxv
 BYTE   VOL   40*GoldenSunIsaacsBattleThemeMeatOfJustice_mvl/mxv
 BYTE   VOL   38*GoldenSunIsaacsBattleThemeMeatOfJustice_mvl/mxv
 BYTE   VOL   10*GoldenSunIsaacsBattleThemeMeatOfJustice_mvl/mxv
 BYTE   VOL   9*GoldenSunIsaacsBattleThemeMeatOfJustice_mvl/mxv
 BYTE   VOL   37*GoldenSunIsaacsBattleThemeMeatOfJustice_mvl/mxv
 BYTE   VOL   36*GoldenSunIsaacsBattleThemeMeatOfJustice_mvl/mxv
 BYTE   VOL   34*GoldenSunIsaacsBattleThemeMeatOfJustice_mvl/mxv
 BYTE   VOL   33*GoldenSunIsaacsBattleThemeMeatOfJustice_mvl/mxv
 BYTE   VOL   32*GoldenSunIsaacsBattleThemeMeatOfJustice_mvl/mxv
 BYTE   VOL   31*GoldenSunIsaacsBattleThemeMeatOfJustice_mvl/mxv
 BYTE   VOL   29*GoldenSunIsaacsBattleThemeMeatOfJustice_mvl/mxv
 BYTE   VOL   28*GoldenSunIsaacsBattleThemeMeatOfJustice_mvl/mxv
 BYTE   PATT
  POIN2 Label_1_01656E94
// 093   ----------------------------------------
 BYTE   VOL   9*GoldenSunIsaacsBattleThemeMeatOfJustice_mvl/mxv
 BYTE   N05  Bn3  v110
 BYTE   W06
 BYTE   N32  Cn4
 BYTE   W36
 BYTE   N17  Bn3
 BYTE   W18
 BYTE   An3
 BYTE   W18
 BYTE   N11  Gn3
 BYTE   W12
 BYTE   N90  An3
 BYTE   W96
// 094   ----------------------------------------
 BYTE   N05  Cn4
 BYTE   W06
 BYTE   Bn3
 BYTE   W06
 BYTE   N32  Cn4
 BYTE   W36
 BYTE   N17  Bn3
 BYTE   W18
 BYTE   Cn4
 BYTE   W18
 BYTE   N11  Dn4
 BYTE   W12
// 095   ----------------------------------------
 BYTE   N90  An3
 BYTE   W96
// 096   ----------------------------------------
 BYTE   N05  Cn4
 BYTE   W06
 BYTE   Bn3
 BYTE   W06
 BYTE   N32  Cn4
 BYTE   W36
 BYTE   N17  Bn3
 BYTE   W18
 BYTE   An3
 BYTE   W18
 BYTE   N11  Gn3
 BYTE   W12
// 097   ----------------------------------------
 BYTE   N90  An3
 BYTE   W96
// 098   ----------------------------------------
 BYTE   N05  Cn4
 BYTE   W06
 BYTE   Bn3
 BYTE   W06
 BYTE   N32  Cn4
 BYTE   W36
 BYTE   N17  Bn3
 BYTE   W18
 BYTE   Cn4
 BYTE   W18
 BYTE   N11  Dn4
 BYTE   W12
// 099   ----------------------------------------
 BYTE   N66  An3
 BYTE   W90
 BYTE   VOL   48*GoldenSunIsaacsBattleThemeMeatOfJustice_mvl/mxv
 BYTE   N11  Fs1  v110
 BYTE   W08
// 100   ----------------------------------------
 BYTE   VOL   46*GoldenSunIsaacsBattleThemeMeatOfJustice_mvl/mxv
 BYTE   W04
 BYTE   N05  Fs2  v110
 BYTE   N05  Fs1
 BYTE   W04
 BYTE   VOL   45*GoldenSunIsaacsBattleThemeMeatOfJustice_mvl/mxv
 BYTE   W02
 BYTE   N05  Fs1  v110
 BYTE   W06
 BYTE   VOL   44*GoldenSunIsaacsBattleThemeMeatOfJustice_mvl/mxv
 BYTE   N11  Fs1  v110
 BYTE   W08
 BYTE   VOL   42*GoldenSunIsaacsBattleThemeMeatOfJustice_mvl/mxv
 BYTE   W04
 BYTE   N05  En2  v110
 BYTE   N05  Fs1
 BYTE   W04
 BYTE   VOL   41*GoldenSunIsaacsBattleThemeMeatOfJustice_mvl/mxv
 BYTE   W02
 BYTE   N05  Fs2  v110
 BYTE   N05  Fs1
 BYTE   W06
 BYTE   VOL   40*GoldenSunIsaacsBattleThemeMeatOfJustice_mvl/mxv
 BYTE   N11  Fs1  v110
 BYTE   W08
 BYTE   VOL   38*GoldenSunIsaacsBattleThemeMeatOfJustice_mvl/mxv
 BYTE   W04
 BYTE   N05  Fs1  v110
 BYTE   N05  Fs2
 BYTE   W04
 BYTE   VOL   37*GoldenSunIsaacsBattleThemeMeatOfJustice_mvl/mxv
 BYTE   W02
 BYTE   N05  Fs1  v110
 BYTE   W06
 BYTE   VOL   36*GoldenSunIsaacsBattleThemeMeatOfJustice_mvl/mxv
 BYTE   N11  Fs1  v110
 BYTE   W08
 BYTE   VOL   34*GoldenSunIsaacsBattleThemeMeatOfJustice_mvl/mxv
 BYTE   W04
 BYTE   N05  Fs1  v110
 BYTE   N05  En2
 BYTE   W04
 BYTE   VOL   33*GoldenSunIsaacsBattleThemeMeatOfJustice_mvl/mxv
 BYTE   W02
 BYTE   N05  Fs2  v110
 BYTE   N05  Fs1
 BYTE   W06
 BYTE   VOL   32*GoldenSunIsaacsBattleThemeMeatOfJustice_mvl/mxv
 BYTE   N11  Fs1  v110
 BYTE   W08
// 101   ----------------------------------------
 BYTE   VOL   31*GoldenSunIsaacsBattleThemeMeatOfJustice_mvl/mxv
 BYTE   W04
 BYTE   N05  Fs1  v110
 BYTE   W04
 BYTE   VOL   29*GoldenSunIsaacsBattleThemeMeatOfJustice_mvl/mxv
 BYTE   W02
 BYTE   N05  Fs1  v110
 BYTE   W06
 BYTE   VOL   28*GoldenSunIsaacsBattleThemeMeatOfJustice_mvl/mxv
 BYTE   N11  Fs1  v110
 BYTE   W08
 BYTE   VOL   27*GoldenSunIsaacsBattleThemeMeatOfJustice_mvl/mxv
 BYTE   W04
 BYTE   N05  Fs1  v110
 BYTE   W04
 BYTE   VOL   26*GoldenSunIsaacsBattleThemeMeatOfJustice_mvl/mxv
 BYTE   W02
 BYTE   N05  Fs1  v110
 BYTE   W06
 BYTE   VOL   24*GoldenSunIsaacsBattleThemeMeatOfJustice_mvl/mxv
 BYTE   N11  Fs1  v110
 BYTE   W08
 BYTE   VOL   23*GoldenSunIsaacsBattleThemeMeatOfJustice_mvl/mxv
 BYTE   W04
 BYTE   N05  Fs1  v110
 BYTE   W04
 BYTE   VOL   22*GoldenSunIsaacsBattleThemeMeatOfJustice_mvl/mxv
 BYTE   W02
 BYTE   N05  Fs1  v110
 BYTE   W06
 BYTE   VOL   21*GoldenSunIsaacsBattleThemeMeatOfJustice_mvl/mxv
 BYTE   N11  Fs1  v110
 BYTE   W08
 BYTE   VOL   20*GoldenSunIsaacsBattleThemeMeatOfJustice_mvl/mxv
 BYTE   W04
 BYTE   N05  Fs1  v110
 BYTE   W04
 BYTE   VOL   18*GoldenSunIsaacsBattleThemeMeatOfJustice_mvl/mxv
 BYTE   W02
 BYTE   N05  Fs1  v110
 BYTE   W06
 BYTE   VOL   17*GoldenSunIsaacsBattleThemeMeatOfJustice_mvl/mxv
 BYTE   N11  Fs1  v110
 BYTE   W08
// 102   ----------------------------------------
 BYTE   VOL   16*GoldenSunIsaacsBattleThemeMeatOfJustice_mvl/mxv
 BYTE   W04
 BYTE   N05  Fs1  v110
 BYTE   N05  Fs2
 BYTE   W04
 BYTE   VOL   15*GoldenSunIsaacsBattleThemeMeatOfJustice_mvl/mxv
 BYTE   W02
 BYTE   N05  Fs1  v110
 BYTE   W06
 BYTE   VOL   14*GoldenSunIsaacsBattleThemeMeatOfJustice_mvl/mxv
 BYTE   N11  Fs1  v110
 BYTE   W08
 BYTE   VOL   13*GoldenSunIsaacsBattleThemeMeatOfJustice_mvl/mxv
 BYTE   W04
 BYTE   N05  Fs1  v110
 BYTE   N05  En2
 BYTE   W04
 BYTE   VOL   12*GoldenSunIsaacsBattleThemeMeatOfJustice_mvl/mxv
 BYTE   W02
 BYTE   N05  Fs2  v110
 BYTE   N05  Fs1
 BYTE   W06
 BYTE   VOL   11*GoldenSunIsaacsBattleThemeMeatOfJustice_mvl/mxv
 BYTE   N11  Fs1  v110
 BYTE   W08
 BYTE   VOL   10*GoldenSunIsaacsBattleThemeMeatOfJustice_mvl/mxv
 BYTE   W04
 BYTE   N05  Fs2  v110
 BYTE   N05  Fs1
 BYTE   W04
 BYTE   VOL   9*GoldenSunIsaacsBattleThemeMeatOfJustice_mvl/mxv
 BYTE   W02
 BYTE   N05  Fs1  v110
 BYTE   W06
 BYTE   VOL   7*GoldenSunIsaacsBattleThemeMeatOfJustice_mvl/mxv
 BYTE   N05  Fs1  v110
 BYTE   W06
 BYTE   En2
 BYTE   W02
 BYTE   VOL   6*GoldenSunIsaacsBattleThemeMeatOfJustice_mvl/mxv
 BYTE   W04
 BYTE   N05  Fs1  v110
 BYTE   N05  Fs2
 BYTE   W04
 BYTE   VOL   5*GoldenSunIsaacsBattleThemeMeatOfJustice_mvl/mxv
 BYTE   W02
 BYTE   N05  En2  v110
 BYTE   N05  Fs1
 BYTE   W06
 BYTE   VOL   4*GoldenSunIsaacsBattleThemeMeatOfJustice_mvl/mxv
 BYTE   N11  Fs1  v110
 BYTE   W08
// 103   ----------------------------------------
 BYTE   VOL   3*GoldenSunIsaacsBattleThemeMeatOfJustice_mvl/mxv
 BYTE   W04
 BYTE   N05  Fs1  v110
 BYTE   W04
 BYTE   VOL   2*GoldenSunIsaacsBattleThemeMeatOfJustice_mvl/mxv
 BYTE   W02
 BYTE   N05  Fs1  v110
 BYTE   W06
 BYTE   VOL   1*GoldenSunIsaacsBattleThemeMeatOfJustice_mvl/mxv
 BYTE   N11  Fs1  v110
 BYTE   W08
 BYTE   VOL   0*GoldenSunIsaacsBattleThemeMeatOfJustice_mvl/mxv
 BYTE   W04
 BYTE   N05  Fs1  v110
 BYTE   W04
 BYTE   VOL   0*GoldenSunIsaacsBattleThemeMeatOfJustice_mvl/mxv
 BYTE   W02
 BYTE   N05  Fs1  v110
 BYTE   W06
 BYTE   VOL   0*GoldenSunIsaacsBattleThemeMeatOfJustice_mvl/mxv
 BYTE   N11  Fs1  v110
 BYTE   W08
 BYTE   VOL   0*GoldenSunIsaacsBattleThemeMeatOfJustice_mvl/mxv
 BYTE   W04
 BYTE   N05  Fs1  v110
 BYTE   W04
 BYTE   VOL   0*GoldenSunIsaacsBattleThemeMeatOfJustice_mvl/mxv
 BYTE   W02
 BYTE   N05  Fs1  v110
 BYTE   W06
 BYTE   VOL   0*GoldenSunIsaacsBattleThemeMeatOfJustice_mvl/mxv
 BYTE   N11  Fs1  v110
 BYTE   W08
 BYTE   VOL   0*GoldenSunIsaacsBattleThemeMeatOfJustice_mvl/mxv
 BYTE   W04
 BYTE   N05  Fs1  v110
 BYTE   W04
 BYTE   VOL   0*GoldenSunIsaacsBattleThemeMeatOfJustice_mvl/mxv
 BYTE   W02
 BYTE   N05  Fs1  v110
 BYTE   W06
 BYTE   VOL   0*GoldenSunIsaacsBattleThemeMeatOfJustice_mvl/mxv
 BYTE   N11  Fs1  v110
 BYTE   W08
// 104   ----------------------------------------
 BYTE   VOL   0*GoldenSunIsaacsBattleThemeMeatOfJustice_mvl/mxv
 BYTE   W04
 BYTE   N05  Fs2  v110
 BYTE   N05  Fs1
 BYTE   W04
 BYTE   VOL   0*GoldenSunIsaacsBattleThemeMeatOfJustice_mvl/mxv
 BYTE   W02
 BYTE   N05  Fs1  v110
 BYTE   W06
 BYTE   VOL   0*GoldenSunIsaacsBattleThemeMeatOfJustice_mvl/mxv
 BYTE   N11  Fs1  v110
 BYTE   W08
 BYTE   VOL   0*GoldenSunIsaacsBattleThemeMeatOfJustice_mvl/mxv
 BYTE   W04
 BYTE   N05  En2  v110
 BYTE   N05  Fs1
 BYTE   W04
 BYTE   VOL   0*GoldenSunIsaacsBattleThemeMeatOfJustice_mvl/mxv
 BYTE   W02
 BYTE   N05  Fs2  v110
 BYTE   N05  Fs1
 BYTE   W06
 BYTE   VOL   0*GoldenSunIsaacsBattleThemeMeatOfJustice_mvl/mxv
 BYTE   N11  Fs1  v110
 BYTE   W08
 BYTE   VOL   0*GoldenSunIsaacsBattleThemeMeatOfJustice_mvl/mxv
 BYTE   W04
 BYTE   N05  Fs1  v110
 BYTE   N05  Fs2
 BYTE   W04
 BYTE   VOL   0*GoldenSunIsaacsBattleThemeMeatOfJustice_mvl/mxv
 BYTE   W02
 BYTE   N05  Fs1  v110
 BYTE   W06
 BYTE   VOL   0*GoldenSunIsaacsBattleThemeMeatOfJustice_mvl/mxv
 BYTE   N11  Fs1  v110
 BYTE   W08
 BYTE   VOL   0*GoldenSunIsaacsBattleThemeMeatOfJustice_mvl/mxv
 BYTE   W04
 BYTE   N05  Fs1  v110
 BYTE   N05  En2
 BYTE   W04
 BYTE   VOL   0*GoldenSunIsaacsBattleThemeMeatOfJustice_mvl/mxv
 BYTE   W02
 BYTE   N05  Fs2  v110
 BYTE   N05  Fs1
 BYTE   W06
 BYTE   VOL   0*GoldenSunIsaacsBattleThemeMeatOfJustice_mvl/mxv
 BYTE   N11  Fs1  v110
 BYTE   W08
// 105   ----------------------------------------
 BYTE   VOL   0*GoldenSunIsaacsBattleThemeMeatOfJustice_mvl/mxv
 BYTE   W04
 BYTE   N05  Fs1  v110
 BYTE   W04
 BYTE   VOL   0*GoldenSunIsaacsBattleThemeMeatOfJustice_mvl/mxv
 BYTE   W02
 BYTE   N05  Fs1  v110
 BYTE   W06
 BYTE   VOL   0*GoldenSunIsaacsBattleThemeMeatOfJustice_mvl/mxv
 BYTE   N11  Fs1  v110
 BYTE   W08
 BYTE   VOL   0*GoldenSunIsaacsBattleThemeMeatOfJustice_mvl/mxv
 BYTE   W04
 BYTE   N05  Fs1  v110
 BYTE   W04
 BYTE   VOL   0*GoldenSunIsaacsBattleThemeMeatOfJustice_mvl/mxv
 BYTE   W02
 BYTE   N05  Fs1  v110
 BYTE   W06
 BYTE   VOL   0*GoldenSunIsaacsBattleThemeMeatOfJustice_mvl/mxv
 BYTE   N11  Fs1  v110
 BYTE   W08
 BYTE   VOL   0*GoldenSunIsaacsBattleThemeMeatOfJustice_mvl/mxv
 BYTE   W04
 BYTE   N05  Fs1  v110
 BYTE   W04
 BYTE   VOL   0*GoldenSunIsaacsBattleThemeMeatOfJustice_mvl/mxv
 BYTE   W02
 BYTE   N05  Fs1  v110
 BYTE   W06
 BYTE   VOL   0*GoldenSunIsaacsBattleThemeMeatOfJustice_mvl/mxv
 BYTE   N11  Fs1  v110
 BYTE   W08
 BYTE   VOL   0*GoldenSunIsaacsBattleThemeMeatOfJustice_mvl/mxv
 BYTE   W04
 BYTE   N05  Fs1  v110
 BYTE   W04
 BYTE   VOL   0*GoldenSunIsaacsBattleThemeMeatOfJustice_mvl/mxv
 BYTE   W02
 BYTE   N05  Fs1  v110
 BYTE   W06
 BYTE   VOL   0*GoldenSunIsaacsBattleThemeMeatOfJustice_mvl/mxv
 BYTE   N11  Fs1  v110
 BYTE   W08
// 106   ----------------------------------------
 BYTE   VOL   0*GoldenSunIsaacsBattleThemeMeatOfJustice_mvl/mxv
 BYTE   W04
 BYTE   N05  Fs2  v110
 BYTE   N05  Fs1
 BYTE   W04
 BYTE   VOL   0*GoldenSunIsaacsBattleThemeMeatOfJustice_mvl/mxv
 BYTE   W02
 BYTE   N05  Fs1  v110
 BYTE   W06
 BYTE   VOL   0*GoldenSunIsaacsBattleThemeMeatOfJustice_mvl/mxv
 BYTE   N11  Fs1  v110
 BYTE   W08
 BYTE   VOL   0*GoldenSunIsaacsBattleThemeMeatOfJustice_mvl/mxv
 BYTE   W04
 BYTE   N05  Fs1  v110
 BYTE   N05  En2
 BYTE   W04
 BYTE   VOL   0*GoldenSunIsaacsBattleThemeMeatOfJustice_mvl/mxv
 BYTE   W02
 BYTE   N05  Fs2  v110
 BYTE   N05  Fs1
 BYTE   W06
 BYTE   VOL   0*GoldenSunIsaacsBattleThemeMeatOfJustice_mvl/mxv
 BYTE   N11  Fs1  v110
 BYTE   W08
 BYTE   VOL   0*GoldenSunIsaacsBattleThemeMeatOfJustice_mvl/mxv
 BYTE   W04
 BYTE   N05  Fs2  v110
 BYTE   N05  Fs1
 BYTE   W04
 BYTE   VOL   0*GoldenSunIsaacsBattleThemeMeatOfJustice_mvl/mxv
 BYTE   W02
 BYTE   N05  Fs1  v110
 BYTE   W06
 BYTE   VOL   0*GoldenSunIsaacsBattleThemeMeatOfJustice_mvl/mxv
 BYTE   N05  Fs1  v110
 BYTE   W06
 BYTE   En2
 BYTE   W02
 BYTE   VOL   0*GoldenSunIsaacsBattleThemeMeatOfJustice_mvl/mxv
 BYTE   W04
 BYTE   N05  Fs2  v110
 BYTE   N05  Fs1
 BYTE   W04
 BYTE   VOL   0*GoldenSunIsaacsBattleThemeMeatOfJustice_mvl/mxv
 BYTE   W02
 BYTE   N05  En2  v110
 BYTE   N05  Fs1
 BYTE   W06
 BYTE   VOL   0*GoldenSunIsaacsBattleThemeMeatOfJustice_mvl/mxv
 BYTE   N11  Fs1  v110
 BYTE   W08
// 107   ----------------------------------------
 BYTE   VOL   0*GoldenSunIsaacsBattleThemeMeatOfJustice_mvl/mxv
 BYTE   W04
 BYTE   N05  Fs1  v110
 BYTE   W04
 BYTE   VOL   0*GoldenSunIsaacsBattleThemeMeatOfJustice_mvl/mxv
 BYTE   W02
 BYTE   N05  Fs1  v110
 BYTE   W06
 BYTE   VOL   0*GoldenSunIsaacsBattleThemeMeatOfJustice_mvl/mxv
 BYTE   N11  Fs1  v110
 BYTE   W08
 BYTE   VOL   0*GoldenSunIsaacsBattleThemeMeatOfJustice_mvl/mxv
 BYTE   W04
 BYTE   N05  Fs1  v110
 BYTE   W04
 BYTE   VOL   0*GoldenSunIsaacsBattleThemeMeatOfJustice_mvl/mxv
 BYTE   W02
 BYTE   N05  Fs1  v110
 BYTE   W06
 BYTE   VOL   0*GoldenSunIsaacsBattleThemeMeatOfJustice_mvl/mxv
 BYTE   N11  Fs1  v110
 BYTE   W08
 BYTE   VOL   0*GoldenSunIsaacsBattleThemeMeatOfJustice_mvl/mxv
 BYTE   W04
 BYTE   N05  Fs1  v110
 BYTE   W04
 BYTE   VOL   0*GoldenSunIsaacsBattleThemeMeatOfJustice_mvl/mxv
 BYTE   W02
 BYTE   N05  Fs1  v110
 BYTE   W06
 BYTE   VOL   0*GoldenSunIsaacsBattleThemeMeatOfJustice_mvl/mxv
 BYTE   N11  Fs1  v110
 BYTE   W08
 BYTE   VOL   0*GoldenSunIsaacsBattleThemeMeatOfJustice_mvl/mxv
 BYTE   W04
 BYTE   N05  Fs1  v110
 BYTE   W04
 BYTE   VOL   0*GoldenSunIsaacsBattleThemeMeatOfJustice_mvl/mxv
 BYTE   W02
 BYTE   N05  Fs1  v110
 BYTE   VOL   0*GoldenSunIsaacsBattleThemeMeatOfJustice_mvl/mxv
 BYTE   GoTo
  POIN2 Label_1_01656994
 BYTE   FINE

//**************** Track 3 (Midi-Chn.2) ****************//

GoldenSunIsaacsBattleThemeMeatOfJustice_003:
// 000   ----------------------------------------
Label_2_01657584:
 BYTE   KEYSH   GoldenSunIsaacsBattleThemeMeatOfJustice_key+0
 BYTE   VOICE   117
 BYTE   VOL   80*GoldenSunIsaacsBattleThemeMeatOfJustice_mvl/mxv
 BYTE   PAN   c_v+0
 BYTE   N05  Dn1  v110
 BYTE   TEMPO   120*GoldenSunIsaacsBattleThemeMeatOfJustice_tbs/2
 BYTE   W06
 BYTE   N05  En1  v110
 BYTE   W06
 BYTE   Fn1
 BYTE   W06
 BYTE   Bn1
 BYTE   W06
 BYTE   Fs1
 BYTE   W06
 BYTE   Gs1
 BYTE   W06
 BYTE   An1
 BYTE   W06
 BYTE   Ds1
 BYTE   W06
 BYTE   Gs1
 BYTE   W06
 BYTE   Bn1
 BYTE   W06
 BYTE   Gs1
 BYTE   W06
 BYTE   Dn1
 BYTE   W06
 BYTE   Bn0
 BYTE   W06
 BYTE   Dn1
 BYTE   W06
 BYTE   Fn1
 BYTE   W06
 BYTE   Gs1
 BYTE   W06
// 001   ----------------------------------------
Label_2_016575B2:
 BYTE   N05  An0  v110
 BYTE   W06
 BYTE   An0
 BYTE   W06
 BYTE   An1
 BYTE   W06
 BYTE   N11  An0
 BYTE   W12
 BYTE   N05
 BYTE   W06
 BYTE   An1
 BYTE   W06
 BYTE   An0
 BYTE   W06
 BYTE   An1
 BYTE   W06
 BYTE   An0
 BYTE   W06
 BYTE   An1
 BYTE   W06
 BYTE   N11  An0
 BYTE   W12
 BYTE   N05
 BYTE   W06
 BYTE   An1
 BYTE   W06
 BYTE   An0
 BYTE   W06
 BYTE   PEND 
// 002   ----------------------------------------
Label_2_016575D3:
 BYTE   N05  Gn0  v110
 BYTE   W06
 BYTE   Gn0
 BYTE   W06
 BYTE   Gn1
 BYTE   W06
 BYTE   N11  Gn0
 BYTE   W12
 BYTE   N05
 BYTE   W06
 BYTE   Fn0
 BYTE   W06
 BYTE   Gn0
 BYTE   W06
 BYTE   Gn0
 BYTE   W06
 BYTE   Gn0
 BYTE   W06
 BYTE   Gn1
 BYTE   W06
 BYTE   N11  Gn0
 BYTE   W12
 BYTE   N05
 BYTE   W06
 BYTE   Gn1
 BYTE   W06
 BYTE   Gn0
 BYTE   W06
 BYTE   PEND 
// 003   ----------------------------------------
Label_2_016575F4:
 BYTE   N11  Bn0  v110
 BYTE   W12
 BYTE   N05
 BYTE   W06
 BYTE   N11  Bn1
 BYTE   W12
 BYTE   N05  Bn0
 BYTE   W06
 BYTE   Fs1
 BYTE   W06
 BYTE   Bn1
 BYTE   W06
 BYTE   En0
 BYTE   W06
 BYTE   En0
 BYTE   W06
 BYTE   En1
 BYTE   W06
 BYTE   N11  En0
 BYTE   W12
 BYTE   N05
 BYTE   W06
 BYTE   En1
 BYTE   W06
 BYTE   En0
 BYTE   W06
 BYTE   PEND 
// 004   ----------------------------------------
Label_2_01657614:
 BYTE   N05  Dn0  v110
 BYTE   W06
 BYTE   Dn0
 BYTE   W06
 BYTE   Dn0
 BYTE   W06
 BYTE   N11  Dn1
 BYTE   W12
 BYTE   N05  Dn0
 BYTE   W06
 BYTE   An0
 BYTE   W06
 BYTE   Dn1
 BYTE   W06
 BYTE   Gn0
 BYTE   W06
 BYTE   Gn0
 BYTE   W06
 BYTE   Gn1
 BYTE   W06
 BYTE   Gn0
 BYTE   W06
 BYTE   Gs0
 BYTE   W06
 BYTE   En1
 BYTE   W06
 BYTE   Gs1
 BYTE   W06
 BYTE   Gs0
 BYTE   W06
 BYTE   PEND 
// 005   ----------------------------------------
Label_2_01657637:
 BYTE   N11  An0  v110
 BYTE   W12
 BYTE   An0
 BYTE   W12
 BYTE   N05  Gn0
 BYTE   W06
 BYTE   An0
 BYTE   W06
 BYTE   N11
 BYTE   W12
 BYTE   An0
 BYTE   W12
 BYTE   N05  Gn0
 BYTE   W06
 BYTE   An0
 BYTE   W06
 BYTE   Cn2
 BYTE   W06
 BYTE   Bn1
 BYTE   W06
 BYTE   An1
 BYTE   W06
 BYTE   Gn1
 BYTE   W06
 BYTE   PEND 
// 006   ----------------------------------------
Label_2_01657654:
 BYTE   N05  Gn0  v110
 BYTE   W06
 BYTE   Gn0
 BYTE   W06
 BYTE   Gn1
 BYTE   W06
 BYTE   Gn0
 BYTE   W06
 BYTE   Dn1
 BYTE   W06
 BYTE   Gn0
 BYTE   W06
 BYTE   Gn1
 BYTE   W06
 BYTE   Gn0
 BYTE   W06
 BYTE   Fn0
 BYTE   W06
 BYTE   Fn0
 BYTE   W06
 BYTE   Fn1
 BYTE   W06
 BYTE   Fn0
 BYTE   W06
 BYTE   Cn1
 BYTE   W06
 BYTE   Fn1
 BYTE   W06
 BYTE   Fn0
 BYTE   W06
 BYTE   Fn1
 BYTE   W06
 BYTE   PEND 
// 007   ----------------------------------------
Label_2_01657677:
 BYTE   N05  En0  v110
 BYTE   W06
 BYTE   En0
 BYTE   W06
 BYTE   En1
 BYTE   W06
 BYTE   En0
 BYTE   W06
 BYTE   Bn0
 BYTE   W06
 BYTE   En0
 BYTE   W06
 BYTE   En1
 BYTE   W06
 BYTE   En0
 BYTE   W06
 BYTE   En1
 BYTE   W06
 BYTE   En0
 BYTE   W06
 BYTE   En0
 BYTE   W06
 BYTE   Dn1
 BYTE   W06
 BYTE   En0
 BYTE   W06
 BYTE   En0
 BYTE   W06
 BYTE   En1
 BYTE   W06
 BYTE   En0
 BYTE   W06
 BYTE   PEND 
// 008   ----------------------------------------
Label_2_0165769A:
 BYTE   N05  An0  v110
 BYTE   W06
 BYTE   En1
 BYTE   W06
 BYTE   An1
 BYTE   W06
 BYTE   Gn0
 BYTE   W06
 BYTE   Dn1
 BYTE   W06
 BYTE   Gn1
 BYTE   W06
 BYTE   N11  Fn0
 BYTE   W12
 BYTE   N05
 BYTE   W06
 BYTE   Fn0
 BYTE   W06
 BYTE   Fn1
 BYTE   W06
 BYTE   Fn0
 BYTE   W06
 BYTE   Cn1
 BYTE   W06
 BYTE   Fn0
 BYTE   W06
 BYTE   Fn1
 BYTE   W06
 BYTE   Fn0
 BYTE   W06
 BYTE   PEND 
 BYTE   PATT
  POIN2 Label_2_016575B2
 BYTE   PATT
  POIN2 Label_2_016575D3
 BYTE   PATT
  POIN2 Label_2_016575F4
 BYTE   PATT
  POIN2 Label_2_01657614
 BYTE   PATT
  POIN2 Label_2_01657637
 BYTE   PATT
  POIN2 Label_2_01657654
 BYTE   PATT
  POIN2 Label_2_01657677
// 009   ----------------------------------------
Label_2_016576DF:
 BYTE   N05  Fn0  v110
 BYTE   W06
 BYTE   Fn0
 BYTE   W06
 BYTE   Fn1
 BYTE   W06
 BYTE   Fn0
 BYTE   W06
 BYTE   Fn0
 BYTE   W06
 BYTE   Fn0
 BYTE   W06
 BYTE   Fn1
 BYTE   W06
 BYTE   Fn0
 BYTE   W06
 BYTE   Fn0
 BYTE   W06
 BYTE   Fn0
 BYTE   W06
 BYTE   Fn1
 BYTE   W06
 BYTE   N11  Fn0
 BYTE   W12
 BYTE   N05
 BYTE   W06
 BYTE   Fn1
 BYTE   W06
 BYTE   Fn0
 BYTE   W06
 BYTE   PEND 
// 010   ----------------------------------------
Label_2_01657701:
 BYTE   N05  En0  v110
 BYTE   W06
 BYTE   En0
 BYTE   W06
 BYTE   En1
 BYTE   W06
 BYTE   En0
 BYTE   W06
 BYTE   En0
 BYTE   W06
 BYTE   En0
 BYTE   W06
 BYTE   En1
 BYTE   W06
 BYTE   En0
 BYTE   W06
 BYTE   En0
 BYTE   W06
 BYTE   En0
 BYTE   W06
 BYTE   En1
 BYTE   W06
 BYTE   N11  En0
 BYTE   W12
 BYTE   N05
 BYTE   W06
 BYTE   En1
 BYTE   W06
 BYTE   En0
 BYTE   W06
 BYTE   PEND 
 BYTE   PATT
  POIN2 Label_2_016576DF
// 011   ----------------------------------------
Label_2_01657728:
 BYTE   N05  En0  v110
 BYTE   W06
 BYTE   En0
 BYTE   W06
 BYTE   En1
 BYTE   W06
 BYTE   En0
 BYTE   W06
 BYTE   En0
 BYTE   W06
 BYTE   En0
 BYTE   W06
 BYTE   En1
 BYTE   W06
 BYTE   En0
 BYTE   W06
 BYTE   En0
 BYTE   W06
 BYTE   En0
 BYTE   W06
 BYTE   En1
 BYTE   W06
 BYTE   N11  En0
 BYTE   W12
 BYTE   N05
 BYTE   W06
 BYTE   En1
 BYTE   W06
 BYTE   En0
 BYTE   W05
 BYTE   PEND 
Label_2_0165774A:
 BYTE   N11  An0  v110
 BYTE   W12
// 012   ----------------------------------------
 BYTE   N05  An1
 BYTE   W06
 BYTE   An0
 BYTE   W06
 BYTE   An0
 BYTE   W06
 BYTE   An0
 BYTE   W06
 BYTE   Gn0
 BYTE   W06
 BYTE   An0
 BYTE   W06
 BYTE   N11
 BYTE   W12
 BYTE   N05  An1
 BYTE   W06
 BYTE   N11  An0
 BYTE   W12
 BYTE   N05
 BYTE   W06
 BYTE   An1
 BYTE   W06
 BYTE   An0
 BYTE   W06
 BYTE   PEND 
Label_2_0165776A:
 BYTE   N11  Dn1  v110
 BYTE   W12
// 013   ----------------------------------------
 BYTE   N05  Dn2
 BYTE   W06
 BYTE   Dn1
 BYTE   W06
 BYTE   Dn1
 BYTE   W06
 BYTE   Dn1
 BYTE   W06
 BYTE   Cn1
 BYTE   W06
 BYTE   Dn1
 BYTE   W06
 BYTE   N11
 BYTE   W12
 BYTE   N05  Dn2
 BYTE   W06
 BYTE   N11  Dn1
 BYTE   W12
 BYTE   N05
 BYTE   W06
 BYTE   Dn2
 BYTE   W06
 BYTE   Dn1
 BYTE   W06
 BYTE   PEND 
 BYTE   PATT
  POIN2 Label_2_0165774A
// 014   ----------------------------------------
Label_2_0165778F:
 BYTE   N11  Fn0  v110
 BYTE   W12
 BYTE   N05  Fn1
 BYTE   W06
 BYTE   Fn0
 BYTE   W06
 BYTE   Fn0
 BYTE   W06
 BYTE   Fn0
 BYTE   W06
 BYTE   Fn1
 BYTE   W06
 BYTE   Fn0
 BYTE   W06
 BYTE   Gn0
 BYTE   W06
 BYTE   Dn1
 BYTE   W06
 BYTE   Gn1
 BYTE   W06
 BYTE   Gn0
 BYTE   W06
 BYTE   Dn1
 BYTE   W06
 BYTE   Gn1
 BYTE   W06
 BYTE   Gn0
 BYTE   W06
 BYTE   Dn1
 BYTE   W06
 BYTE   PEND 
// 015   ----------------------------------------
Label_2_016577B1:
 BYTE   N05  Fn0  v110
 BYTE   W06
 BYTE   Fn0
 BYTE   W06
 BYTE   Fn1
 BYTE   W06
 BYTE   Fn0
 BYTE   W06
 BYTE   Fn0
 BYTE   W06
 BYTE   Fn1
 BYTE   W06
 BYTE   Fn0
 BYTE   W06
 BYTE   Fn0
 BYTE   W06
 BYTE   Gn0
 BYTE   W06
 BYTE   Gn0
 BYTE   W06
 BYTE   Gn1
 BYTE   W06
 BYTE   Gn0
 BYTE   W06
 BYTE   Gn0
 BYTE   W06
 BYTE   Gn1
 BYTE   W06
 BYTE   Gn0
 BYTE   W06
 BYTE   Gn0
 BYTE   W06
 BYTE   PEND 
// 016   ----------------------------------------
Label_2_016577D4:
 BYTE   N05  An0  v110
 BYTE   W06
 BYTE   An0
 BYTE   W06
 BYTE   An1
 BYTE   W06
 BYTE   An0
 BYTE   W06
 BYTE   Gn1
 BYTE   W06
 BYTE   An0
 BYTE   W06
 BYTE   An1
 BYTE   W06
 BYTE   An0
 BYTE   W06
 BYTE   Gn0
 BYTE   W06
 BYTE   Gn0
 BYTE   W06
 BYTE   Gn1
 BYTE   W06
 BYTE   Gn0
 BYTE   W06
 BYTE   Fn1
 BYTE   W06
 BYTE   Gn0
 BYTE   W06
 BYTE   Gn1
 BYTE   W06
 BYTE   Gn0
 BYTE   W06
 BYTE   PEND 
// 017   ----------------------------------------
Label_2_016577F7:
 BYTE   N05  Fn0  v110
 BYTE   W06
 BYTE   Fn0
 BYTE   W06
 BYTE   Fn1
 BYTE   W06
 BYTE   Fn0
 BYTE   W06
 BYTE   En1
 BYTE   W06
 BYTE   Fn0
 BYTE   W06
 BYTE   Fn1
 BYTE   W06
 BYTE   Fn0
 BYTE   W06
 BYTE   Gn0
 BYTE   W06
 BYTE   Gn0
 BYTE   W06
 BYTE   Gn1
 BYTE   W06
 BYTE   Gn0
 BYTE   W06
 BYTE   Fn1
 BYTE   W06
 BYTE   Gn0
 BYTE   W06
 BYTE   Gn1
 BYTE   W06
 BYTE   Gn0
 BYTE   W06
 BYTE   PEND 
// 018   ----------------------------------------
Label_2_0165781A:
 BYTE   N05  An0  v110
 BYTE   W06
 BYTE   An0
 BYTE   W06
 BYTE   An1
 BYTE   W06
 BYTE   An0
 BYTE   W06
 BYTE   En1
 BYTE   W06
 BYTE   An0
 BYTE   W06
 BYTE   An1
 BYTE   W06
 BYTE   An0
 BYTE   W06
 BYTE   An1
 BYTE   W06
 BYTE   En1
 BYTE   W06
 BYTE   An0
 BYTE   W06
 BYTE   An1
 BYTE   W06
 BYTE   En1
 BYTE   W06
 BYTE   An0
 BYTE   W06
 BYTE   An1
 BYTE   W06
 BYTE   An0
 BYTE   W06
 BYTE   PEND 
// 019   ----------------------------------------
Label_2_0165783D:
 BYTE   N11  Fs0  v110
 BYTE   W12
 BYTE   N05
 BYTE   W06
 BYTE   Fs0
 BYTE   W06
 BYTE   Fs1
 BYTE   W06
 BYTE   En1
 BYTE   W06
 BYTE   Fs1
 BYTE   W06
 BYTE   Cs1
 BYTE   W06
 BYTE   N11  Fs0
 BYTE   W12
 BYTE   N05
 BYTE   W06
 BYTE   Fs0
 BYTE   W06
 BYTE   Fs1
 BYTE   W06
 BYTE   En1
 BYTE   W06
 BYTE   Fs1
 BYTE   W06
 BYTE   Cs1
 BYTE   W06
 BYTE   PEND 
 BYTE   PATT
  POIN2 Label_2_0165783D
 BYTE   PATT
  POIN2 Label_2_0165783D
 BYTE   PATT
  POIN2 Label_2_0165783D
 BYTE   PATT
  POIN2 Label_2_0165783D
 BYTE   PATT
  POIN2 Label_2_0165783D
 BYTE   PATT
  POIN2 Label_2_0165783D
 BYTE   PATT
  POIN2 Label_2_0165783D
 BYTE   PATT
  POIN2 Label_2_016575B2
 BYTE   PATT
  POIN2 Label_2_016575D3
 BYTE   PATT
  POIN2 Label_2_016575F4
 BYTE   PATT
  POIN2 Label_2_01657614
 BYTE   PATT
  POIN2 Label_2_01657637
 BYTE   PATT
  POIN2 Label_2_01657654
 BYTE   PATT
  POIN2 Label_2_01657677
 BYTE   PATT
  POIN2 Label_2_0165769A
 BYTE   PATT
  POIN2 Label_2_016575B2
 BYTE   PATT
  POIN2 Label_2_016575D3
 BYTE   PATT
  POIN2 Label_2_016575F4
 BYTE   PATT
  POIN2 Label_2_01657614
 BYTE   PATT
  POIN2 Label_2_01657637
 BYTE   PATT
  POIN2 Label_2_01657654
 BYTE   PATT
  POIN2 Label_2_01657677
 BYTE   PATT
  POIN2 Label_2_016576DF
 BYTE   PATT
  POIN2 Label_2_01657701
 BYTE   PATT
  POIN2 Label_2_016576DF
 BYTE   PATT
  POIN2 Label_2_01657701
 BYTE   PATT
  POIN2 Label_2_0165774A
 BYTE   PATT
  POIN2 Label_2_0165776A
 BYTE   PATT
  POIN2 Label_2_0165774A
 BYTE   PATT
  POIN2 Label_2_0165778F
 BYTE   PATT
  POIN2 Label_2_016577B1
 BYTE   PATT
  POIN2 Label_2_016577D4
 BYTE   PATT
  POIN2 Label_2_016577F7
 BYTE   PATT
  POIN2 Label_2_0165781A
 BYTE   PATT
  POIN2 Label_2_0165783D
 BYTE   PATT
  POIN2 Label_2_0165783D
 BYTE   PATT
  POIN2 Label_2_0165783D
 BYTE   PATT
  POIN2 Label_2_0165783D
 BYTE   PATT
  POIN2 Label_2_0165783D
 BYTE   PATT
  POIN2 Label_2_0165783D
 BYTE   PATT
  POIN2 Label_2_0165783D
 BYTE   PATT
  POIN2 Label_2_0165783D
 BYTE   PATT
  POIN2 Label_2_016575B2
 BYTE   PATT
  POIN2 Label_2_016575D3
 BYTE   PATT
  POIN2 Label_2_016575F4
 BYTE   PATT
  POIN2 Label_2_01657614
 BYTE   PATT
  POIN2 Label_2_01657637
 BYTE   PATT
  POIN2 Label_2_01657654
 BYTE   PATT
  POIN2 Label_2_01657677
 BYTE   PATT
  POIN2 Label_2_0165769A
 BYTE   PATT
  POIN2 Label_2_016575B2
 BYTE   PATT
  POIN2 Label_2_016575D3
 BYTE   PATT
  POIN2 Label_2_016575F4
 BYTE   PATT
  POIN2 Label_2_01657614
 BYTE   PATT
  POIN2 Label_2_01657637
 BYTE   PATT
  POIN2 Label_2_01657654
 BYTE   PATT
  POIN2 Label_2_01657677
 BYTE   PATT
  POIN2 Label_2_016576DF
 BYTE   PATT
  POIN2 Label_2_01657701
 BYTE   PATT
  POIN2 Label_2_016576DF
 BYTE   PATT
  POIN2 Label_2_01657728
 BYTE   PATT
  POIN2 Label_2_0165774A
 BYTE   PATT
  POIN2 Label_2_0165776A
 BYTE   PATT
  POIN2 Label_2_0165774A
 BYTE   PATT
  POIN2 Label_2_0165778F
 BYTE   PATT
  POIN2 Label_2_016577B1
 BYTE   PATT
  POIN2 Label_2_016577D4
 BYTE   PATT
  POIN2 Label_2_016577F7
// 020   ----------------------------------------
 BYTE   N05  An0  v110
 BYTE   W06
 BYTE   An0
 BYTE   W06
 BYTE   An1
 BYTE   W06
 BYTE   An0
 BYTE   W06
 BYTE   En1
 BYTE   W06
 BYTE   An0
 BYTE   W06
 BYTE   An1
 BYTE   W06
 BYTE   An0
 BYTE   W06
 BYTE   An1
 BYTE   W06
 BYTE   En1
 BYTE   W06
 BYTE   An0
 BYTE   W06
 BYTE   An1
 BYTE   W06
 BYTE   En1
 BYTE   W06
 BYTE   An0
 BYTE   W06
 BYTE   An1
 BYTE   W06
 BYTE   An0
 BYTE   W06
// 021   ----------------------------------------
 BYTE   VOL   80*GoldenSunIsaacsBattleThemeMeatOfJustice_mvl/mxv
 BYTE   N11  Fs0  v110
 BYTE   W06
 BYTE   VOL   78*GoldenSunIsaacsBattleThemeMeatOfJustice_mvl/mxv
 BYTE   W06
 BYTE   VOL   77*GoldenSunIsaacsBattleThemeMeatOfJustice_mvl/mxv
 BYTE   N05  Fs0  v110
 BYTE   W06
 BYTE   Fs0
 BYTE   VOL   75*GoldenSunIsaacsBattleThemeMeatOfJustice_mvl/mxv
 BYTE   W05
 BYTE   N05  Fs1  v110
 BYTE   VOL   73*GoldenSunIsaacsBattleThemeMeatOfJustice_mvl/mxv
 BYTE   W05
 BYTE   N05  En1  v110
 BYTE   VOL   72*GoldenSunIsaacsBattleThemeMeatOfJustice_mvl/mxv
 BYTE   W05
 BYTE   N05  Fs1  v110
 BYTE   VOL   70*GoldenSunIsaacsBattleThemeMeatOfJustice_mvl/mxv
 BYTE   W05
 BYTE   N05  Cs1  v110
 BYTE   VOL   69*GoldenSunIsaacsBattleThemeMeatOfJustice_mvl/mxv
 BYTE   W05
 BYTE   N11  Fs0  v110
 BYTE   VOL   67*GoldenSunIsaacsBattleThemeMeatOfJustice_mvl/mxv
 BYTE   W06
 BYTE   VOL   65*GoldenSunIsaacsBattleThemeMeatOfJustice_mvl/mxv
 BYTE   W05
 BYTE   N05  Fs0  v110
 BYTE   VOL   64*GoldenSunIsaacsBattleThemeMeatOfJustice_mvl/mxv
 BYTE   W05
 BYTE   N05  Fs0  v110
 BYTE   VOL   62*GoldenSunIsaacsBattleThemeMeatOfJustice_mvl/mxv
 BYTE   W05
 BYTE   N05  Fs1  v110
 BYTE   VOL   61*GoldenSunIsaacsBattleThemeMeatOfJustice_mvl/mxv
 BYTE   W05
 BYTE   N05  En1  v110
 BYTE   VOL   59*GoldenSunIsaacsBattleThemeMeatOfJustice_mvl/mxv
 BYTE   W05
 BYTE   N05  Fs1  v110
 BYTE   VOL   58*GoldenSunIsaacsBattleThemeMeatOfJustice_mvl/mxv
 BYTE   W05
 BYTE   N05  Cs1  v110
 BYTE   VOL   56*GoldenSunIsaacsBattleThemeMeatOfJustice_mvl/mxv
 BYTE   W05
 BYTE   N11  Fs0  v110
 BYTE   VOL   54*GoldenSunIsaacsBattleThemeMeatOfJustice_mvl/mxv
 BYTE   W06
 BYTE   VOL   53*GoldenSunIsaacsBattleThemeMeatOfJustice_mvl/mxv
 BYTE   W05
 BYTE   N05  Fs0  v110
 BYTE   VOL   51*GoldenSunIsaacsBattleThemeMeatOfJustice_mvl/mxv
 BYTE   W05
// 022   ----------------------------------------
 BYTE   N05  Fs0  v110
 BYTE   VOL   50*GoldenSunIsaacsBattleThemeMeatOfJustice_mvl/mxv
 BYTE   W05
 BYTE   N05  Fs1  v110
 BYTE   VOL   48*GoldenSunIsaacsBattleThemeMeatOfJustice_mvl/mxv
 BYTE   W05
 BYTE   N05  En1  v110
 BYTE   VOL   47*GoldenSunIsaacsBattleThemeMeatOfJustice_mvl/mxv
 BYTE   W05
 BYTE   N05  Fs1  v110
 BYTE   W01
 BYTE   VOL   45*GoldenSunIsaacsBattleThemeMeatOfJustice_mvl/mxv
 BYTE   W05
 BYTE   N05  Cs1  v110
 BYTE   W01
 BYTE   VOL   44*GoldenSunIsaacsBattleThemeMeatOfJustice_mvl/mxv
 BYTE   W05
 BYTE   N11  Fs0  v110
 BYTE   W01
 BYTE   VOL   43*GoldenSunIsaacsBattleThemeMeatOfJustice_mvl/mxv
 BYTE   W06
 BYTE   VOL   41*GoldenSunIsaacsBattleThemeMeatOfJustice_mvl/mxv
 BYTE   W04
 BYTE   N05  Fs0  v110
 BYTE   W01
 BYTE   VOL   40*GoldenSunIsaacsBattleThemeMeatOfJustice_mvl/mxv
 BYTE   W04
 BYTE   N05  Fs0  v110
 BYTE   W01
 BYTE   VOL   38*GoldenSunIsaacsBattleThemeMeatOfJustice_mvl/mxv
 BYTE   W04
 BYTE   N05  Fs1  v110
 BYTE   W01
 BYTE   VOL   37*GoldenSunIsaacsBattleThemeMeatOfJustice_mvl/mxv
 BYTE   W04
 BYTE   N05  En1  v110
 BYTE   W01
 BYTE   VOL   35*GoldenSunIsaacsBattleThemeMeatOfJustice_mvl/mxv
 BYTE   W04
 BYTE   N05  Fs1  v110
 BYTE   W01
 BYTE   VOL   34*GoldenSunIsaacsBattleThemeMeatOfJustice_mvl/mxv
 BYTE   W04
 BYTE   N05  Cs1  v110
 BYTE   W01
 BYTE   VOL   33*GoldenSunIsaacsBattleThemeMeatOfJustice_mvl/mxv
 BYTE   W04
 BYTE   N11  Fs0  v110
 BYTE   W01
 BYTE   VOL   31*GoldenSunIsaacsBattleThemeMeatOfJustice_mvl/mxv
 BYTE   W06
 BYTE   VOL   30*GoldenSunIsaacsBattleThemeMeatOfJustice_mvl/mxv
 BYTE   W04
 BYTE   N05  Fs0  v110
 BYTE   W01
 BYTE   VOL   29*GoldenSunIsaacsBattleThemeMeatOfJustice_mvl/mxv
 BYTE   W04
 BYTE   N05  Fs0  v110
 BYTE   W01
 BYTE   VOL   27*GoldenSunIsaacsBattleThemeMeatOfJustice_mvl/mxv
 BYTE   W04
 BYTE   N05  Fs1  v110
 BYTE   W01
 BYTE   VOL   26*GoldenSunIsaacsBattleThemeMeatOfJustice_mvl/mxv
 BYTE   W04
 BYTE   N05  En1  v110
 BYTE   W01
 BYTE   VOL   25*GoldenSunIsaacsBattleThemeMeatOfJustice_mvl/mxv
 BYTE   W04
// 023   ----------------------------------------
 BYTE   N05  Fs1  v110
 BYTE   W01
 BYTE   VOL   23*GoldenSunIsaacsBattleThemeMeatOfJustice_mvl/mxv
 BYTE   W04
 BYTE   N05  Cs1  v110
 BYTE   W01
 BYTE   VOL   22*GoldenSunIsaacsBattleThemeMeatOfJustice_mvl/mxv
 BYTE   W04
 BYTE   N11  Fs0  v110
 BYTE   W01
 BYTE   VOL   21*GoldenSunIsaacsBattleThemeMeatOfJustice_mvl/mxv
 BYTE   W06
 BYTE   VOL   19*GoldenSunIsaacsBattleThemeMeatOfJustice_mvl/mxv
 BYTE   W04
 BYTE   N05  Fs0  v110
 BYTE   W01
 BYTE   VOL   18*GoldenSunIsaacsBattleThemeMeatOfJustice_mvl/mxv
 BYTE   W04
 BYTE   N05  Fs0  v110
 BYTE   W02
 BYTE   VOL   17*GoldenSunIsaacsBattleThemeMeatOfJustice_mvl/mxv
 BYTE   W04
 BYTE   N05  Fs1  v110
 BYTE   W02
 BYTE   VOL   16*GoldenSunIsaacsBattleThemeMeatOfJustice_mvl/mxv
 BYTE   W04
 BYTE   N05  En1  v110
 BYTE   W02
 BYTE   VOL   14*GoldenSunIsaacsBattleThemeMeatOfJustice_mvl/mxv
 BYTE   W03
 BYTE   N05  Fs1  v110
 BYTE   W02
 BYTE   VOL   13*GoldenSunIsaacsBattleThemeMeatOfJustice_mvl/mxv
 BYTE   W03
 BYTE   N05  Cs1  v110
 BYTE   W02
 BYTE   VOL   12*GoldenSunIsaacsBattleThemeMeatOfJustice_mvl/mxv
 BYTE   W03
 BYTE   N11  Fs0  v110
 BYTE   W02
 BYTE   VOL   11*GoldenSunIsaacsBattleThemeMeatOfJustice_mvl/mxv
 BYTE   W06
 BYTE   VOL   9*GoldenSunIsaacsBattleThemeMeatOfJustice_mvl/mxv
 BYTE   W03
 BYTE   N05  Fs0  v110
 BYTE   W02
 BYTE   VOL   8*GoldenSunIsaacsBattleThemeMeatOfJustice_mvl/mxv
 BYTE   W03
 BYTE   N05  Fs0  v110
 BYTE   W02
 BYTE   VOL   7*GoldenSunIsaacsBattleThemeMeatOfJustice_mvl/mxv
 BYTE   W03
 BYTE   N05  Fs1  v110
 BYTE   W02
 BYTE   VOL   6*GoldenSunIsaacsBattleThemeMeatOfJustice_mvl/mxv
 BYTE   W03
 BYTE   N05  En1  v110
 BYTE   W02
 BYTE   VOL   5*GoldenSunIsaacsBattleThemeMeatOfJustice_mvl/mxv
 BYTE   W03
 BYTE   N05  Fs1  v110
 BYTE   W02
 BYTE   VOL   3*GoldenSunIsaacsBattleThemeMeatOfJustice_mvl/mxv
 BYTE   W03
 BYTE   N05  Cs1  v110
 BYTE   W02
 BYTE   VOL   2*GoldenSunIsaacsBattleThemeMeatOfJustice_mvl/mxv
 BYTE   W03
 BYTE   N11  Fs0  v110
 BYTE   W02
// 024   ----------------------------------------
 BYTE   VOL   1*GoldenSunIsaacsBattleThemeMeatOfJustice_mvl/mxv
 BYTE   W06
 BYTE   VOL   0*GoldenSunIsaacsBattleThemeMeatOfJustice_mvl/mxv
 BYTE   W03
 BYTE   N05  Fs0  v110
 BYTE   W02
 BYTE   VOL   0*GoldenSunIsaacsBattleThemeMeatOfJustice_mvl/mxv
 BYTE   W03
 BYTE   N05  Fs0  v110
 BYTE   W02
 BYTE   VOL   0*GoldenSunIsaacsBattleThemeMeatOfJustice_mvl/mxv
 BYTE   W03
 BYTE   N05  Fs1  v110
 BYTE   W02
 BYTE   VOL   0*GoldenSunIsaacsBattleThemeMeatOfJustice_mvl/mxv
 BYTE   W03
 BYTE   N05  En1  v110
 BYTE   W02
 BYTE   VOL   0*GoldenSunIsaacsBattleThemeMeatOfJustice_mvl/mxv
 BYTE   W03
 BYTE   N05  Fs1  v110
 BYTE   W02
 BYTE   VOL   0*GoldenSunIsaacsBattleThemeMeatOfJustice_mvl/mxv
 BYTE   W03
 BYTE   N05  Cs1  v110
 BYTE   W02
 BYTE   VOL   0*GoldenSunIsaacsBattleThemeMeatOfJustice_mvl/mxv
 BYTE   W03
 BYTE   N11  Fs0  v110
 BYTE   W03
 BYTE   VOL   0*GoldenSunIsaacsBattleThemeMeatOfJustice_mvl/mxv
 BYTE   W06
 BYTE   VOL   0*GoldenSunIsaacsBattleThemeMeatOfJustice_mvl/mxv
 BYTE   W03
 BYTE   N05  Fs0  v110
 BYTE   W03
 BYTE   VOL   0*GoldenSunIsaacsBattleThemeMeatOfJustice_mvl/mxv
 BYTE   W03
 BYTE   N05  Fs0  v110
 BYTE   W03
 BYTE   VOL   0*GoldenSunIsaacsBattleThemeMeatOfJustice_mvl/mxv
 BYTE   W02
 BYTE   N05  Fs1  v110
 BYTE   W03
 BYTE   VOL   0*GoldenSunIsaacsBattleThemeMeatOfJustice_mvl/mxv
 BYTE   W02
 BYTE   N05  En1  v110
 BYTE   W03
 BYTE   VOL   0*GoldenSunIsaacsBattleThemeMeatOfJustice_mvl/mxv
 BYTE   W02
 BYTE   N05  Fs1  v110
 BYTE   W03
 BYTE   VOL   0*GoldenSunIsaacsBattleThemeMeatOfJustice_mvl/mxv
 BYTE   W02
 BYTE   N05  Cs1  v110
 BYTE   W03
 BYTE   VOL   0*GoldenSunIsaacsBattleThemeMeatOfJustice_mvl/mxv
 BYTE   W02
 BYTE   N11  Fs0  v110
 BYTE   W03
 BYTE   VOL   0*GoldenSunIsaacsBattleThemeMeatOfJustice_mvl/mxv
 BYTE   W06
 BYTE   VOL   0*GoldenSunIsaacsBattleThemeMeatOfJustice_mvl/mxv
 BYTE   W02
 BYTE   N05  Fs0  v110
 BYTE   W03
// 025   ----------------------------------------
 BYTE   VOL   0*GoldenSunIsaacsBattleThemeMeatOfJustice_mvl/mxv
 BYTE   W02
 BYTE   N05  Fs0  v110
 BYTE   W03
 BYTE   VOL   0*GoldenSunIsaacsBattleThemeMeatOfJustice_mvl/mxv
 BYTE   W02
 BYTE   N05  Fs1  v110
 BYTE   W03
 BYTE   VOL   0*GoldenSunIsaacsBattleThemeMeatOfJustice_mvl/mxv
 BYTE   W02
 BYTE   N05  En1  v110
 BYTE   W03
 BYTE   VOL   0*GoldenSunIsaacsBattleThemeMeatOfJustice_mvl/mxv
 BYTE   W02
 BYTE   N05  Fs1  v110
 BYTE   W03
 BYTE   VOL   0*GoldenSunIsaacsBattleThemeMeatOfJustice_mvl/mxv
 BYTE   W02
 BYTE   N05  Cs1  v110
 BYTE   W03
 BYTE   VOL   0*GoldenSunIsaacsBattleThemeMeatOfJustice_mvl/mxv
 BYTE   W02
 BYTE   N11  Fs0  v110
 BYTE   W03
 BYTE   VOL   0*GoldenSunIsaacsBattleThemeMeatOfJustice_mvl/mxv
 BYTE   W06
 BYTE   VOL   0*GoldenSunIsaacsBattleThemeMeatOfJustice_mvl/mxv
 BYTE   W02
 BYTE   N05  Fs0  v110
 BYTE   W03
 BYTE   VOL   0*GoldenSunIsaacsBattleThemeMeatOfJustice_mvl/mxv
 BYTE   W02
 BYTE   N05  Fs0  v110
 BYTE   W03
 BYTE   VOL   0*GoldenSunIsaacsBattleThemeMeatOfJustice_mvl/mxv
 BYTE   W02
 BYTE   N05  Fs1  v110
 BYTE   W03
 BYTE   VOL   0*GoldenSunIsaacsBattleThemeMeatOfJustice_mvl/mxv
 BYTE   W02
 BYTE   N05  En1  v110
 BYTE   W04
 BYTE   VOL   0*GoldenSunIsaacsBattleThemeMeatOfJustice_mvl/mxv
 BYTE   W02
 BYTE   N05  Fs1  v110
 BYTE   W04
 BYTE   VOL   0*GoldenSunIsaacsBattleThemeMeatOfJustice_mvl/mxv
 BYTE   W02
 BYTE   N05  Cs1  v110
 BYTE   W04
 BYTE   VOL   0*GoldenSunIsaacsBattleThemeMeatOfJustice_mvl/mxv
 BYTE   W02
 BYTE   N11  Fs0  v110
 BYTE   W04
 BYTE   VOL   0*GoldenSunIsaacsBattleThemeMeatOfJustice_mvl/mxv
 BYTE   W06
 BYTE   VOL   0*GoldenSunIsaacsBattleThemeMeatOfJustice_mvl/mxv
 BYTE   W01
 BYTE   N05  Fs0  v110
 BYTE   W04
 BYTE   VOL   0*GoldenSunIsaacsBattleThemeMeatOfJustice_mvl/mxv
 BYTE   W01
 BYTE   N05  Fs0  v110
 BYTE   W04
 BYTE   VOL   0*GoldenSunIsaacsBattleThemeMeatOfJustice_mvl/mxv
 BYTE   W01
 BYTE   N05  Fs1  v110
 BYTE   W04
// 026   ----------------------------------------
 BYTE   VOL   0*GoldenSunIsaacsBattleThemeMeatOfJustice_mvl/mxv
 BYTE   W01
 BYTE   N05  En1  v110
 BYTE   W04
 BYTE   VOL   0*GoldenSunIsaacsBattleThemeMeatOfJustice_mvl/mxv
 BYTE   W01
 BYTE   N05  Fs1  v110
 BYTE   W04
 BYTE   VOL   0*GoldenSunIsaacsBattleThemeMeatOfJustice_mvl/mxv
 BYTE   W01
 BYTE   N05  Cs1  v110
 BYTE   W04
 BYTE   VOL   0*GoldenSunIsaacsBattleThemeMeatOfJustice_mvl/mxv
 BYTE   W01
 BYTE   N11  Fs0  v110
 BYTE   W04
 BYTE   VOL   0*GoldenSunIsaacsBattleThemeMeatOfJustice_mvl/mxv
 BYTE   W06
 BYTE   VOL   0*GoldenSunIsaacsBattleThemeMeatOfJustice_mvl/mxv
 BYTE   W01
 BYTE   N05  Fs0  v110
 BYTE   W04
 BYTE   VOL   0*GoldenSunIsaacsBattleThemeMeatOfJustice_mvl/mxv
 BYTE   W01
 BYTE   N05  Fs0  v110
 BYTE   W04
 BYTE   VOL   0*GoldenSunIsaacsBattleThemeMeatOfJustice_mvl/mxv
 BYTE   W01
 BYTE   N05  Fs1  v110
 BYTE   W04
 BYTE   VOL   0*GoldenSunIsaacsBattleThemeMeatOfJustice_mvl/mxv
 BYTE   W01
 BYTE   N05  En1  v110
 BYTE   W04
 BYTE   VOL   0*GoldenSunIsaacsBattleThemeMeatOfJustice_mvl/mxv
 BYTE   W01
 BYTE   N05  Fs1  v110
 BYTE   W04
 BYTE   VOL   0*GoldenSunIsaacsBattleThemeMeatOfJustice_mvl/mxv
 BYTE   W01
 BYTE   N05  Cs1  v110
 BYTE   W04
 BYTE   VOL   0*GoldenSunIsaacsBattleThemeMeatOfJustice_mvl/mxv
 BYTE   W01
 BYTE   N11  Fs0  v110
 BYTE   W04
 BYTE   VOL   0*GoldenSunIsaacsBattleThemeMeatOfJustice_mvl/mxv
 BYTE   W06
 BYTE   VOL   0*GoldenSunIsaacsBattleThemeMeatOfJustice_mvl/mxv
 BYTE   W01
 BYTE   N05  Fs0  v110
 BYTE   W05
 BYTE   VOL   0*GoldenSunIsaacsBattleThemeMeatOfJustice_mvl/mxv
 BYTE   W01
 BYTE   N05  Fs0  v110
 BYTE   W05
 BYTE   VOL   0*GoldenSunIsaacsBattleThemeMeatOfJustice_mvl/mxv
 BYTE   W01
 BYTE   N05  Fs1  v110
 BYTE   W05
 BYTE   VOL   0*GoldenSunIsaacsBattleThemeMeatOfJustice_mvl/mxv
 BYTE   W01
 BYTE   N05  En1  v110
 BYTE   W05
 BYTE   VOL   0*GoldenSunIsaacsBattleThemeMeatOfJustice_mvl/mxv
 BYTE   N05  Fs1  v110
 BYTE   W05
// 027   ----------------------------------------
 BYTE   VOL   0*GoldenSunIsaacsBattleThemeMeatOfJustice_mvl/mxv
 BYTE   N05  Cs1  v110
 BYTE   W05
 BYTE   VOL   0*GoldenSunIsaacsBattleThemeMeatOfJustice_mvl/mxv
 BYTE   N11  Fs0  v110
 BYTE   W05
 BYTE   VOL   0*GoldenSunIsaacsBattleThemeMeatOfJustice_mvl/mxv
 BYTE   W06
 BYTE   VOL   0*GoldenSunIsaacsBattleThemeMeatOfJustice_mvl/mxv
 BYTE   N05  Fs0  v110
 BYTE   W05
 BYTE   VOL   0*GoldenSunIsaacsBattleThemeMeatOfJustice_mvl/mxv
 BYTE   N05  Fs0  v110
 BYTE   W05
 BYTE   VOL   0*GoldenSunIsaacsBattleThemeMeatOfJustice_mvl/mxv
 BYTE   N05  Fs1  v110
 BYTE   W05
 BYTE   VOL   0*GoldenSunIsaacsBattleThemeMeatOfJustice_mvl/mxv
 BYTE   N05  En1  v110
 BYTE   W05
 BYTE   VOL   0*GoldenSunIsaacsBattleThemeMeatOfJustice_mvl/mxv
 BYTE   N05  Fs1  v110
 BYTE   W05
 BYTE   VOL   0*GoldenSunIsaacsBattleThemeMeatOfJustice_mvl/mxv
 BYTE   N05  Cs1  v110
 BYTE   W05
 BYTE   VOL   0*GoldenSunIsaacsBattleThemeMeatOfJustice_mvl/mxv
 BYTE   N11  Fs0  v110
 BYTE   W05
 BYTE   VOL   0*GoldenSunIsaacsBattleThemeMeatOfJustice_mvl/mxv
 BYTE   W06
 BYTE   VOL   0*GoldenSunIsaacsBattleThemeMeatOfJustice_mvl/mxv
 BYTE   N05  Fs0  v110
 BYTE   W05
 BYTE   VOL   0*GoldenSunIsaacsBattleThemeMeatOfJustice_mvl/mxv
 BYTE   N05  Fs0  v110
 BYTE   W05
 BYTE   VOL   0*GoldenSunIsaacsBattleThemeMeatOfJustice_mvl/mxv
 BYTE   N05  Fs1  v110
 BYTE   W05
 BYTE   VOL   0*GoldenSunIsaacsBattleThemeMeatOfJustice_mvl/mxv
 BYTE   N05  En1  v110
 BYTE   W05
 BYTE   VOL   0*GoldenSunIsaacsBattleThemeMeatOfJustice_mvl/mxv
 BYTE   N05  Fs1  v110
 BYTE   W05
 BYTE   VOL   0*GoldenSunIsaacsBattleThemeMeatOfJustice_mvl/mxv
 BYTE   N05  Cs1  v110
 BYTE   VOL   0*GoldenSunIsaacsBattleThemeMeatOfJustice_mvl/mxv
 BYTE   GoTo
  POIN2 Label_2_01657584
 BYTE   FINE

//**************** Track 4 (Midi-Chn.3) ****************//

GoldenSunIsaacsBattleThemeMeatOfJustice_004:
// 000   ----------------------------------------
Label_3_01657CF4:
 BYTE   KEYSH   GoldenSunIsaacsBattleThemeMeatOfJustice_key+0
 BYTE   VOICE   18
 BYTE   VOL   95*GoldenSunIsaacsBattleThemeMeatOfJustice_mvl/mxv
 BYTE   PAN   c_v+0
 BYTE   TEMPO   120*GoldenSunIsaacsBattleThemeMeatOfJustice_tbs/2
 BYTE   W96
// 001   ----------------------------------------
Label_3_01657CFF:
 BYTE   VOL   48*GoldenSunIsaacsBattleThemeMeatOfJustice_mvl/mxv
 BYTE   N96  En4  v110
 BYTE   N96  An3
 BYTE   W96
// 002   ----------------------------------------
 BYTE   Dn4
 BYTE   N96  Gn3
 BYTE   W96
// 003   ----------------------------------------
 BYTE   N48  Bn3
 BYTE   N48  Fs3
 BYTE   W48
 BYTE   Bn3
 BYTE   N48  Gn3
 BYTE   W48
// 004   ----------------------------------------
 BYTE   An3
 BYTE   N48  Fs3
 BYTE   W48
 BYTE   N24  Dn4
 BYTE   N24  Gn3
 BYTE   W24
 BYTE   En4
 BYTE   N24  Gs3
 BYTE   W24
// 005   ----------------------------------------
 BYTE   N90  En4
 BYTE   N90  An3
 BYTE   W96
// 006   ----------------------------------------
 BYTE   N42  Dn4
 BYTE   N42  Gn3
 BYTE   W48
 BYTE   Cn4
 BYTE   N42  Fn3
 BYTE   W48
// 007   ----------------------------------------
 BYTE   En4
 BYTE   N42  An3
 BYTE   W48
 BYTE   En4
 BYTE   N42  Gs3
 BYTE   W48
// 008   ----------------------------------------
 BYTE   N17  En4
 BYTE   N17  An3
 BYTE   W18
 BYTE   Dn4
 BYTE   N17  Gn3
 BYTE   W18
 BYTE   N54  Cn4
 BYTE   N54  Fn3
 BYTE   W60
 BYTE   PEND 
// 009   ----------------------------------------
 BYTE   VOL   48*GoldenSunIsaacsBattleThemeMeatOfJustice_mvl/mxv
 BYTE   N96  En4  v110
 BYTE   N96  An3
 BYTE   W96
// 010   ----------------------------------------
 BYTE   Dn4
 BYTE   N96  Gn3
 BYTE   W96
// 011   ----------------------------------------
 BYTE   N48  Bn3
 BYTE   N48  Fs3
 BYTE   W48
 BYTE   Bn3
 BYTE   N48  Gn3
 BYTE   W48
// 012   ----------------------------------------
 BYTE   An3
 BYTE   N48  Fs3
 BYTE   W48
 BYTE   N24  Dn4
 BYTE   N24  Gn3
 BYTE   W24
 BYTE   En4
 BYTE   N24  Gs3
 BYTE   W24
// 013   ----------------------------------------
 BYTE   N90  En4
 BYTE   N90  An3
 BYTE   W96
// 014   ----------------------------------------
 BYTE   N42  Dn4
 BYTE   N42  Gn3
 BYTE   W48
 BYTE   Cn4
 BYTE   N42  Fn3
 BYTE   W48
// 015   ----------------------------------------
 BYTE   En4
 BYTE   N42  An3
 BYTE   W48
 BYTE   En4
 BYTE   N42  Gs3
 BYTE   W48
// 016   ----------------------------------------
 BYTE   N90  Fn4
 BYTE   N90  An3
 BYTE   W96
// 017   ----------------------------------------
 BYTE   En4
 BYTE   N90  Gn3
 BYTE   W96
// 018   ----------------------------------------
 BYTE   Fn4
 BYTE   N90  An3
 BYTE   W96
// 019   ----------------------------------------
 BYTE   N42  Gn4
 BYTE   N42  Bn3
 BYTE   W48
 BYTE   Gs4
 BYTE   N42  Bn3
 BYTE   W44
 BYTE   W03
 BYTE   N48  An3  v110
 BYTE   N48  En3
 BYTE   W48
// 020   ----------------------------------------
 BYTE   Dn4
 BYTE   N48  Gn3
 BYTE   N48  Dn3
 BYTE   W48
 BYTE   N96  Dn4
 BYTE   N96  Fs3
 BYTE   N96  Dn3
 BYTE   W96
// 021   ----------------------------------------
 BYTE   N48  An3
 BYTE   N48  En3
 BYTE   W48
 BYTE   Dn4
 BYTE   N48  Gn3
 BYTE   N48  Dn3
 BYTE   W48
// 022   ----------------------------------------
 BYTE   En4
 BYTE   N48  Cn4
 BYTE   N48  An3
 BYTE   W48
 BYTE   Dn4
 BYTE   N48  Bn3
 BYTE   N48  Gn3
 BYTE   W48
// 023   ----------------------------------------
 BYTE   Fn4
 BYTE   N48  Cn4
 BYTE   N48  An3
 BYTE   W48
 BYTE   Gn4
 BYTE   N48  Dn4
 BYTE   N48  Bn3
 BYTE   W48
// 024   ----------------------------------------
 BYTE   En4
 BYTE   N48  Cn4
 BYTE   N48  An3
 BYTE   W48
 BYTE   Dn4
 BYTE   N48  Bn3
 BYTE   N48  Gn3
 BYTE   W48
// 025   ----------------------------------------
 BYTE   Cn4
 BYTE   N48  An3
 BYTE   N48  Fn3
 BYTE   W48
 BYTE   Dn4
 BYTE   N48  Bn3
 BYTE   N48  Gn3
 BYTE   W48
// 026   ----------------------------------------
 BYTE   Dn4
 BYTE   N90  En4
 BYTE   N90  An3
 BYTE   W48
 BYTE   N42  Cs4
 BYTE   W48
// 027   ----------------------------------------
 BYTE   N96
 BYTE   N96  An3
 BYTE   N96  En3
 BYTE   W96
// 028   ----------------------------------------
 BYTE   Bn3
 BYTE   N96  Gs3
 BYTE   N96  En3
 BYTE   W96
// 029   ----------------------------------------
 BYTE   An3
 BYTE   N96  Fs3
 BYTE   N96  Dn3
 BYTE   W96
// 030   ----------------------------------------
 BYTE   Bn3
 BYTE   N96  Gs3
 BYTE   N96  En3
 BYTE   W96
// 031   ----------------------------------------
 BYTE   An3
 BYTE   N96  En3
 BYTE   W96
// 032   ----------------------------------------
 BYTE   Gs3
 BYTE   N96  En3
 BYTE   W96
// 033   ----------------------------------------
 BYTE   Fs3
 BYTE   N96  Dn3
 BYTE   W96
// 034   ----------------------------------------
 BYTE   Gs3
 BYTE   N96  En3
 BYTE   W96
 BYTE   PATT
  POIN2 Label_3_01657CFF
// 035   ----------------------------------------
 BYTE   VOL   48*GoldenSunIsaacsBattleThemeMeatOfJustice_mvl/mxv
 BYTE   N96  En4  v110
 BYTE   N96  An3
 BYTE   W96
// 036   ----------------------------------------
 BYTE   Dn4
 BYTE   N96  Gn3
 BYTE   W96
// 037   ----------------------------------------
 BYTE   N48  Bn3
 BYTE   N48  Fs3
 BYTE   W48
 BYTE   Bn3
 BYTE   N48  Gn3
 BYTE   W48
// 038   ----------------------------------------
 BYTE   An3
 BYTE   N48  Fs3
 BYTE   W48
 BYTE   N24  Dn4
 BYTE   N24  Gn3
 BYTE   W24
 BYTE   En4
 BYTE   N24  Gs3
 BYTE   W24
// 039   ----------------------------------------
 BYTE   N90  En4
 BYTE   N90  An3
 BYTE   W96
// 040   ----------------------------------------
 BYTE   N42  Dn4
 BYTE   N42  Gn3
 BYTE   W48
 BYTE   Cn4
 BYTE   N42  Fn3
 BYTE   W48
// 041   ----------------------------------------
 BYTE   En4
 BYTE   N42  An3
 BYTE   W48
 BYTE   En4
 BYTE   N42  Gs3
 BYTE   W48
// 042   ----------------------------------------
 BYTE   N90  Fn4
 BYTE   N90  An3
 BYTE   W96
// 043   ----------------------------------------
 BYTE   En4
 BYTE   N90  Gn3
 BYTE   W96
// 044   ----------------------------------------
 BYTE   Fn4
 BYTE   N90  An3
 BYTE   W96
// 045   ----------------------------------------
 BYTE   N42  Gn4
 BYTE   N42  Bn3
 BYTE   W48
 BYTE   Gs4
 BYTE   N42  Bn3
 BYTE   W48
// 046   ----------------------------------------
 BYTE   N48  An3
 BYTE   N48  En3
 BYTE   W48
 BYTE   Dn4
 BYTE   N48  Gn3
 BYTE   N48  Dn3
 BYTE   W48
// 047   ----------------------------------------
 BYTE   N96  Dn4
 BYTE   N96  Fs3
 BYTE   N96  Dn3
 BYTE   W96
// 048   ----------------------------------------
 BYTE   N48  An3
 BYTE   N48  En3
 BYTE   W48
 BYTE   Dn4
 BYTE   N48  Gn3
 BYTE   N48  Dn3
 BYTE   W48
// 049   ----------------------------------------
 BYTE   En4
 BYTE   N48  Cn4
 BYTE   N48  An3
 BYTE   W48
 BYTE   Dn4
 BYTE   N48  Bn3
 BYTE   N48  Gn3
 BYTE   W48
// 050   ----------------------------------------
 BYTE   Fn4
 BYTE   N48  Cn4
 BYTE   N48  An3
 BYTE   W48
 BYTE   Gn4
 BYTE   N48  Dn4
 BYTE   N48  Bn3
 BYTE   W48
// 051   ----------------------------------------
 BYTE   En4
 BYTE   N48  Cn4
 BYTE   N48  An3
 BYTE   W48
 BYTE   Dn4
 BYTE   N48  Bn3
 BYTE   N48  Gn3
 BYTE   W48
// 052   ----------------------------------------
 BYTE   Cn4
 BYTE   N48  An3
 BYTE   N48  Fn3
 BYTE   W48
 BYTE   Dn4
 BYTE   N48  Bn3
 BYTE   N48  Gn3
 BYTE   W48
// 053   ----------------------------------------
 BYTE   Dn4
 BYTE   N90  En4
 BYTE   N90  An3
 BYTE   W48
 BYTE   N42  Cs4
 BYTE   W48
// 054   ----------------------------------------
 BYTE   N96
 BYTE   N96  An3
 BYTE   N96  En3
 BYTE   W96
// 055   ----------------------------------------
 BYTE   Bn3
 BYTE   N96  Gs3
 BYTE   N96  En3
 BYTE   W96
// 056   ----------------------------------------
 BYTE   An3
 BYTE   N96  Fs3
 BYTE   N96  Dn3
 BYTE   W96
// 057   ----------------------------------------
 BYTE   Bn3
 BYTE   N96  Gs3
 BYTE   N96  En3
 BYTE   W96
// 058   ----------------------------------------
 BYTE   An3
 BYTE   N96  En3
 BYTE   W96
// 059   ----------------------------------------
 BYTE   Gs3
 BYTE   N96  En3
 BYTE   W96
// 060   ----------------------------------------
 BYTE   Fs3
 BYTE   N96  Dn3
 BYTE   W96
// 061   ----------------------------------------
 BYTE   Gs3
 BYTE   N96  En3
 BYTE   W96
 BYTE   PATT
  POIN2 Label_3_01657CFF
// 062   ----------------------------------------
 BYTE   VOL   48*GoldenSunIsaacsBattleThemeMeatOfJustice_mvl/mxv
 BYTE   N96  En4  v110
 BYTE   N96  An3
 BYTE   W96
// 063   ----------------------------------------
 BYTE   Dn4
 BYTE   N96  Gn3
 BYTE   W96
// 064   ----------------------------------------
 BYTE   N48  Bn3
 BYTE   N48  Fs3
 BYTE   W48
 BYTE   Bn3
 BYTE   N48  Gn3
 BYTE   W48
// 065   ----------------------------------------
 BYTE   An3
 BYTE   N48  Fs3
 BYTE   W48
 BYTE   N24  Dn4
 BYTE   N24  Gn3
 BYTE   W24
 BYTE   En4
 BYTE   N24  Gs3
 BYTE   W24
// 066   ----------------------------------------
 BYTE   N90  En4
 BYTE   N90  An3
 BYTE   W96
// 067   ----------------------------------------
 BYTE   N42  Dn4
 BYTE   N42  Gn3
 BYTE   W48
 BYTE   Cn4
 BYTE   N42  Fn3
 BYTE   W48
// 068   ----------------------------------------
 BYTE   En4
 BYTE   N42  An3
 BYTE   W48
 BYTE   En4
 BYTE   N42  Gs3
 BYTE   W48
// 069   ----------------------------------------
 BYTE   N90  Fn4
 BYTE   N90  An3
 BYTE   W96
// 070   ----------------------------------------
 BYTE   En4
 BYTE   N90  Gn3
 BYTE   W96
// 071   ----------------------------------------
 BYTE   Fn4
 BYTE   N90  An3
 BYTE   W96
// 072   ----------------------------------------
 BYTE   N42  Gn4
 BYTE   N42  Bn3
 BYTE   W48
 BYTE   Gs4
 BYTE   N42  Bn3
 BYTE   W44
 BYTE   W03
 BYTE   N48  An3  v110
 BYTE   N48  En3
 BYTE   W48
// 073   ----------------------------------------
 BYTE   Dn4
 BYTE   N48  Gn3
 BYTE   N48  Dn3
 BYTE   W48
 BYTE   N96  Dn4
 BYTE   N96  Fs3
 BYTE   N96  Dn3
 BYTE   W96
// 074   ----------------------------------------
 BYTE   N48  An3
 BYTE   N48  En3
 BYTE   W48
 BYTE   Dn4
 BYTE   N48  Gn3
 BYTE   N48  Dn3
 BYTE   W48
// 075   ----------------------------------------
 BYTE   En4
 BYTE   N48  Cn4
 BYTE   N48  An3
 BYTE   W48
 BYTE   Dn4
 BYTE   N48  Bn3
 BYTE   N48  Gn3
 BYTE   W48
// 076   ----------------------------------------
 BYTE   Fn4
 BYTE   N48  Cn4
 BYTE   N48  An3
 BYTE   W48
 BYTE   Gn4
 BYTE   N48  Dn4
 BYTE   N48  Bn3
 BYTE   W48
// 077   ----------------------------------------
 BYTE   En4
 BYTE   N48  Cn4
 BYTE   N48  An3
 BYTE   W48
 BYTE   Dn4
 BYTE   N48  Bn3
 BYTE   N48  Gn3
 BYTE   W48
// 078   ----------------------------------------
 BYTE   Cn4
 BYTE   N48  An3
 BYTE   N48  Fn3
 BYTE   W48
 BYTE   Dn4
 BYTE   N48  Bn3
 BYTE   N48  Gn3
 BYTE   W48
// 079   ----------------------------------------
 BYTE   Dn4
 BYTE   N90  En4
 BYTE   N90  An3
 BYTE   W48
 BYTE   N42  Cs4
 BYTE   W48
// 080   ----------------------------------------
 BYTE   VOL   48*GoldenSunIsaacsBattleThemeMeatOfJustice_mvl/mxv
 BYTE   N96  An3  v110
 BYTE   N96  Cs4
 BYTE   N96  En3
 BYTE   W08
 BYTE   VOL   46*GoldenSunIsaacsBattleThemeMeatOfJustice_mvl/mxv
 BYTE   W08
 BYTE   VOL   45*GoldenSunIsaacsBattleThemeMeatOfJustice_mvl/mxv
 BYTE   W08
 BYTE   VOL   44*GoldenSunIsaacsBattleThemeMeatOfJustice_mvl/mxv
 BYTE   W08
 BYTE   VOL   42*GoldenSunIsaacsBattleThemeMeatOfJustice_mvl/mxv
 BYTE   W08
 BYTE   VOL   41*GoldenSunIsaacsBattleThemeMeatOfJustice_mvl/mxv
 BYTE   W08
 BYTE   VOL   40*GoldenSunIsaacsBattleThemeMeatOfJustice_mvl/mxv
 BYTE   W08
 BYTE   VOL   38*GoldenSunIsaacsBattleThemeMeatOfJustice_mvl/mxv
 BYTE   W08
 BYTE   VOL   37*GoldenSunIsaacsBattleThemeMeatOfJustice_mvl/mxv
 BYTE   W08
 BYTE   VOL   36*GoldenSunIsaacsBattleThemeMeatOfJustice_mvl/mxv
 BYTE   W08
 BYTE   VOL   34*GoldenSunIsaacsBattleThemeMeatOfJustice_mvl/mxv
 BYTE   W08
 BYTE   VOL   33*GoldenSunIsaacsBattleThemeMeatOfJustice_mvl/mxv
 BYTE   W08
// 081   ----------------------------------------
 BYTE   VOL   32*GoldenSunIsaacsBattleThemeMeatOfJustice_mvl/mxv
 BYTE   N96  En3  v110
 BYTE   N96  Bn3
 BYTE   N96  Gs3
 BYTE   W08
 BYTE   VOL   31*GoldenSunIsaacsBattleThemeMeatOfJustice_mvl/mxv
 BYTE   W08
 BYTE   VOL   29*GoldenSunIsaacsBattleThemeMeatOfJustice_mvl/mxv
 BYTE   W08
 BYTE   VOL   28*GoldenSunIsaacsBattleThemeMeatOfJustice_mvl/mxv
 BYTE   W08
 BYTE   VOL   27*GoldenSunIsaacsBattleThemeMeatOfJustice_mvl/mxv
 BYTE   W08
 BYTE   VOL   26*GoldenSunIsaacsBattleThemeMeatOfJustice_mvl/mxv
 BYTE   W08
 BYTE   VOL   24*GoldenSunIsaacsBattleThemeMeatOfJustice_mvl/mxv
 BYTE   W08
 BYTE   VOL   23*GoldenSunIsaacsBattleThemeMeatOfJustice_mvl/mxv
 BYTE   W08
 BYTE   VOL   22*GoldenSunIsaacsBattleThemeMeatOfJustice_mvl/mxv
 BYTE   W08
 BYTE   VOL   21*GoldenSunIsaacsBattleThemeMeatOfJustice_mvl/mxv
 BYTE   W08
 BYTE   VOL   20*GoldenSunIsaacsBattleThemeMeatOfJustice_mvl/mxv
 BYTE   W08
 BYTE   VOL   18*GoldenSunIsaacsBattleThemeMeatOfJustice_mvl/mxv
 BYTE   W08
// 082   ----------------------------------------
 BYTE   VOL   17*GoldenSunIsaacsBattleThemeMeatOfJustice_mvl/mxv
 BYTE   N96  An3  v110
 BYTE   N96  Fs3
 BYTE   N96  Dn3
 BYTE   W08
 BYTE   VOL   16*GoldenSunIsaacsBattleThemeMeatOfJustice_mvl/mxv
 BYTE   W08
 BYTE   VOL   15*GoldenSunIsaacsBattleThemeMeatOfJustice_mvl/mxv
 BYTE   W08
 BYTE   VOL   14*GoldenSunIsaacsBattleThemeMeatOfJustice_mvl/mxv
 BYTE   W08
 BYTE   VOL   13*GoldenSunIsaacsBattleThemeMeatOfJustice_mvl/mxv
 BYTE   W08
 BYTE   VOL   12*GoldenSunIsaacsBattleThemeMeatOfJustice_mvl/mxv
 BYTE   W08
 BYTE   VOL   11*GoldenSunIsaacsBattleThemeMeatOfJustice_mvl/mxv
 BYTE   W08
 BYTE   VOL   10*GoldenSunIsaacsBattleThemeMeatOfJustice_mvl/mxv
 BYTE   W08
 BYTE   VOL   9*GoldenSunIsaacsBattleThemeMeatOfJustice_mvl/mxv
 BYTE   W08
 BYTE   VOL   7*GoldenSunIsaacsBattleThemeMeatOfJustice_mvl/mxv
 BYTE   W08
 BYTE   VOL   6*GoldenSunIsaacsBattleThemeMeatOfJustice_mvl/mxv
 BYTE   W08
 BYTE   VOL   5*GoldenSunIsaacsBattleThemeMeatOfJustice_mvl/mxv
 BYTE   W08
// 083   ----------------------------------------
 BYTE   VOL   5*GoldenSunIsaacsBattleThemeMeatOfJustice_mvl/mxv
 BYTE   N96  En3  v110
 BYTE   N96  Gs3
 BYTE   N96  Bn3
 BYTE   W08
 BYTE   VOL   5*GoldenSunIsaacsBattleThemeMeatOfJustice_mvl/mxv
 BYTE   W08
 BYTE   VOL   5*GoldenSunIsaacsBattleThemeMeatOfJustice_mvl/mxv
 BYTE   W08
 BYTE   VOL   5*GoldenSunIsaacsBattleThemeMeatOfJustice_mvl/mxv
 BYTE   W08
 BYTE   VOL   5*GoldenSunIsaacsBattleThemeMeatOfJustice_mvl/mxv
 BYTE   W08
 BYTE   VOL   5*GoldenSunIsaacsBattleThemeMeatOfJustice_mvl/mxv
 BYTE   W08
 BYTE   VOL   5*GoldenSunIsaacsBattleThemeMeatOfJustice_mvl/mxv
 BYTE   W08
 BYTE   VOL   5*GoldenSunIsaacsBattleThemeMeatOfJustice_mvl/mxv
 BYTE   W08
 BYTE   VOL   5*GoldenSunIsaacsBattleThemeMeatOfJustice_mvl/mxv
 BYTE   W08
 BYTE   VOL   5*GoldenSunIsaacsBattleThemeMeatOfJustice_mvl/mxv
 BYTE   W08
 BYTE   VOL   5*GoldenSunIsaacsBattleThemeMeatOfJustice_mvl/mxv
 BYTE   W08
 BYTE   VOL   5*GoldenSunIsaacsBattleThemeMeatOfJustice_mvl/mxv
 BYTE   W08
// 084   ----------------------------------------
 BYTE   VOL   5*GoldenSunIsaacsBattleThemeMeatOfJustice_mvl/mxv
 BYTE   N96  An3  v110
 BYTE   N96  En3
 BYTE   W08
 BYTE   VOL   5*GoldenSunIsaacsBattleThemeMeatOfJustice_mvl/mxv
 BYTE   W08
 BYTE   VOL   5*GoldenSunIsaacsBattleThemeMeatOfJustice_mvl/mxv
 BYTE   W08
 BYTE   VOL   5*GoldenSunIsaacsBattleThemeMeatOfJustice_mvl/mxv
 BYTE   W08
 BYTE   VOL   5*GoldenSunIsaacsBattleThemeMeatOfJustice_mvl/mxv
 BYTE   W08
 BYTE   VOL   5*GoldenSunIsaacsBattleThemeMeatOfJustice_mvl/mxv
 BYTE   W08
 BYTE   VOL   5*GoldenSunIsaacsBattleThemeMeatOfJustice_mvl/mxv
 BYTE   W08
 BYTE   VOL   5*GoldenSunIsaacsBattleThemeMeatOfJustice_mvl/mxv
 BYTE   W08
 BYTE   VOL   5*GoldenSunIsaacsBattleThemeMeatOfJustice_mvl/mxv
 BYTE   W08
 BYTE   VOL   5*GoldenSunIsaacsBattleThemeMeatOfJustice_mvl/mxv
 BYTE   W08
 BYTE   VOL   5*GoldenSunIsaacsBattleThemeMeatOfJustice_mvl/mxv
 BYTE   W08
 BYTE   VOL   5*GoldenSunIsaacsBattleThemeMeatOfJustice_mvl/mxv
 BYTE   W08
// 085   ----------------------------------------
 BYTE   VOL   5*GoldenSunIsaacsBattleThemeMeatOfJustice_mvl/mxv
 BYTE   N96  Gs3  v110
 BYTE   N96  En3
 BYTE   W08
 BYTE   VOL   5*GoldenSunIsaacsBattleThemeMeatOfJustice_mvl/mxv
 BYTE   W08
 BYTE   VOL   5*GoldenSunIsaacsBattleThemeMeatOfJustice_mvl/mxv
 BYTE   W08
 BYTE   VOL   5*GoldenSunIsaacsBattleThemeMeatOfJustice_mvl/mxv
 BYTE   W08
 BYTE   VOL   5*GoldenSunIsaacsBattleThemeMeatOfJustice_mvl/mxv
 BYTE   W08
 BYTE   VOL   5*GoldenSunIsaacsBattleThemeMeatOfJustice_mvl/mxv
 BYTE   W08
 BYTE   VOL   5*GoldenSunIsaacsBattleThemeMeatOfJustice_mvl/mxv
 BYTE   W08
 BYTE   VOL   5*GoldenSunIsaacsBattleThemeMeatOfJustice_mvl/mxv
 BYTE   W08
 BYTE   VOL   5*GoldenSunIsaacsBattleThemeMeatOfJustice_mvl/mxv
 BYTE   W08
 BYTE   VOL   5*GoldenSunIsaacsBattleThemeMeatOfJustice_mvl/mxv
 BYTE   W08
 BYTE   VOL   5*GoldenSunIsaacsBattleThemeMeatOfJustice_mvl/mxv
 BYTE   W08
 BYTE   VOL   5*GoldenSunIsaacsBattleThemeMeatOfJustice_mvl/mxv
 BYTE   W08
// 086   ----------------------------------------
 BYTE   VOL   5*GoldenSunIsaacsBattleThemeMeatOfJustice_mvl/mxv
 BYTE   N96  Dn3  v110
 BYTE   N96  Fs3
 BYTE   W08
 BYTE   VOL   5*GoldenSunIsaacsBattleThemeMeatOfJustice_mvl/mxv
 BYTE   W08
 BYTE   VOL   5*GoldenSunIsaacsBattleThemeMeatOfJustice_mvl/mxv
 BYTE   W08
 BYTE   VOL   5*GoldenSunIsaacsBattleThemeMeatOfJustice_mvl/mxv
 BYTE   W08
 BYTE   VOL   5*GoldenSunIsaacsBattleThemeMeatOfJustice_mvl/mxv
 BYTE   W08
 BYTE   VOL   5*GoldenSunIsaacsBattleThemeMeatOfJustice_mvl/mxv
 BYTE   W08
 BYTE   VOL   5*GoldenSunIsaacsBattleThemeMeatOfJustice_mvl/mxv
 BYTE   W08
 BYTE   VOL   5*GoldenSunIsaacsBattleThemeMeatOfJustice_mvl/mxv
 BYTE   W08
 BYTE   VOL   5*GoldenSunIsaacsBattleThemeMeatOfJustice_mvl/mxv
 BYTE   W08
 BYTE   VOL   5*GoldenSunIsaacsBattleThemeMeatOfJustice_mvl/mxv
 BYTE   W08
 BYTE   VOL   5*GoldenSunIsaacsBattleThemeMeatOfJustice_mvl/mxv
 BYTE   W08
 BYTE   VOL   5*GoldenSunIsaacsBattleThemeMeatOfJustice_mvl/mxv
 BYTE   W08
// 087   ----------------------------------------
 BYTE   VOL   5*GoldenSunIsaacsBattleThemeMeatOfJustice_mvl/mxv
 BYTE   N96  En3  v110
 BYTE   N96  Gs3
 BYTE   W08
 BYTE   VOL   5*GoldenSunIsaacsBattleThemeMeatOfJustice_mvl/mxv
 BYTE   W08
 BYTE   VOL   5*GoldenSunIsaacsBattleThemeMeatOfJustice_mvl/mxv
 BYTE   W08
 BYTE   VOL   5*GoldenSunIsaacsBattleThemeMeatOfJustice_mvl/mxv
 BYTE   W08
Label_3_016580C8:
 BYTE   VOL   5*GoldenSunIsaacsBattleThemeMeatOfJustice_mvl/mxv
 BYTE   W08
 BYTE   VOL   5*GoldenSunIsaacsBattleThemeMeatOfJustice_mvl/mxv
 BYTE   W08
 BYTE   PEND 
 BYTE   PATT
  POIN2 Label_3_016580C8
// 088   ----------------------------------------
 BYTE   VOL   5*GoldenSunIsaacsBattleThemeMeatOfJustice_mvl/mxv
 BYTE   W08
 BYTE   VOL   5*GoldenSunIsaacsBattleThemeMeatOfJustice_mvl/mxv
 BYTE   W08
 BYTE   VOL   5*GoldenSunIsaacsBattleThemeMeatOfJustice_mvl/mxv
 BYTE   W08
 BYTE   VOL   5*GoldenSunIsaacsBattleThemeMeatOfJustice_mvl/mxv
 BYTE   W02
 BYTE   VOL   5*GoldenSunIsaacsBattleThemeMeatOfJustice_mvl/mxv
 BYTE   GoTo
  POIN2 Label_3_01657CF4
 BYTE   FINE

//**************** Track 5 (Midi-Chn.4) ****************//

GoldenSunIsaacsBattleThemeMeatOfJustice_005:
// 000   ----------------------------------------
Label_4_016580E8:
 BYTE   KEYSH   GoldenSunIsaacsBattleThemeMeatOfJustice_key+0
 BYTE   VOICE   36
 BYTE   VOL   80*GoldenSunIsaacsBattleThemeMeatOfJustice_mvl/mxv
 BYTE   PAN   c_v+0
 BYTE   N05  En2  v110
 BYTE   TEMPO   120*GoldenSunIsaacsBattleThemeMeatOfJustice_tbs/2
 BYTE   W06
 BYTE   N05  Bn1  v110
 BYTE   W06
 BYTE   Bn1
 BYTE   W06
 BYTE   Dn2
 BYTE   W06
 BYTE   Dn2
 BYTE   W06
 BYTE   Cn2
 BYTE   W06
 BYTE   Cn2
 BYTE   W06
 BYTE   Dn2
 BYTE   W06
 BYTE   Dn2
 BYTE   W06
 BYTE   Dn2
 BYTE   W06
 BYTE   Cn2
 BYTE   W06
 BYTE   Cn2
 BYTE   W06
 BYTE   Bn1
 BYTE   W06
 BYTE   An1
 BYTE   W06
 BYTE   Gn1
 BYTE   W06
 BYTE   Fn1
 BYTE   W06
// 001   ----------------------------------------
Label_4_01658116:
 BYTE   N11  Bn0  v110
 BYTE   W12
 BYTE   N05  En1
 BYTE   W06
 BYTE   N11  Bn0
 BYTE   W12
 BYTE   N05
 BYTE   W06
 BYTE   En1
 BYTE   W06
 BYTE   Bn0
 BYTE   W06
 BYTE   Bn0
 BYTE   W06
 BYTE   Bn0
 BYTE   W06
 BYTE   En1
 BYTE   W06
 BYTE   N11  Bn0
 BYTE   W12
 BYTE   N05
 BYTE   W06
 BYTE   En1
 BYTE   W06
 BYTE   Bn0
 BYTE   W06
 BYTE   PEND 
 BYTE   PATT
  POIN2 Label_4_01658116
 BYTE   PATT
  POIN2 Label_4_01658116
 BYTE   PATT
  POIN2 Label_4_01658116
 BYTE   PATT
  POIN2 Label_4_01658116
 BYTE   PATT
  POIN2 Label_4_01658116
 BYTE   PATT
  POIN2 Label_4_01658116
// 002   ----------------------------------------
Label_4_01658154:
 BYTE   N11  Bn0  v110
 BYTE   W12
 BYTE   N05  En1
 BYTE   W06
 BYTE   N11  Bn0
 BYTE   W12
 BYTE   N05
 BYTE   W06
 BYTE   En1
 BYTE   W06
 BYTE   Bn0
 BYTE   W06
 BYTE   Bn0
 BYTE   W06
 BYTE   Bn0
 BYTE   W06
 BYTE   En1
 BYTE   W06
 BYTE   Bn0
 BYTE   W06
 BYTE   En1
 BYTE   W06
 BYTE   En1
 BYTE   W06
 BYTE   En1
 BYTE   W06
 BYTE   En1
 BYTE   W06
 BYTE   PEND 
 BYTE   PATT
  POIN2 Label_4_01658116
 BYTE   PATT
  POIN2 Label_4_01658116
 BYTE   PATT
  POIN2 Label_4_01658116
 BYTE   PATT
  POIN2 Label_4_01658116
 BYTE   PATT
  POIN2 Label_4_01658116
 BYTE   PATT
  POIN2 Label_4_01658116
 BYTE   PATT
  POIN2 Label_4_01658154
 BYTE   PATT
  POIN2 Label_4_01658116
 BYTE   PATT
  POIN2 Label_4_01658116
 BYTE   PATT
  POIN2 Label_4_01658116
// 003   ----------------------------------------
Label_4_016581A7:
 BYTE   N11  Bn0  v110
 BYTE   W12
 BYTE   N05  En1
 BYTE   W06
 BYTE   N11  Bn0
 BYTE   W12
 BYTE   N05
 BYTE   W06
 BYTE   En1
 BYTE   W06
 BYTE   Bn0
 BYTE   W06
 BYTE   Bn0
 BYTE   W06
 BYTE   Bn0
 BYTE   W06
 BYTE   En1
 BYTE   W06
 BYTE   N11  Bn0
 BYTE   W12
 BYTE   N05
 BYTE   W06
 BYTE   En1
 BYTE   W06
 BYTE   Bn0
 BYTE   W05
 BYTE   PEND 
 BYTE   PATT
  POIN2 Label_4_01658116
 BYTE   PATT
  POIN2 Label_4_01658116
 BYTE   PATT
  POIN2 Label_4_01658116
 BYTE   PATT
  POIN2 Label_4_01658154
 BYTE   PATT
  POIN2 Label_4_01658116
 BYTE   PATT
  POIN2 Label_4_01658116
 BYTE   PATT
  POIN2 Label_4_01658116
 BYTE   PATT
  POIN2 Label_4_01658154
// 004   ----------------------------------------
Label_4_016581EF:
 BYTE   N05  En1  v110
 BYTE   W12
 BYTE   Bn0
 BYTE   W06
 BYTE   Bn0
 BYTE   W06
 BYTE   En1
 BYTE   W06
 BYTE   Bn0
 BYTE   W12
 BYTE   Bn0
 BYTE   W06
 BYTE   En1
 BYTE   W12
 BYTE   Bn0
 BYTE   W06
 BYTE   Bn0
 BYTE   W06
 BYTE   En1
 BYTE   W06
 BYTE   Bn0
 BYTE   W12
 BYTE   Bn0
 BYTE   W06
 BYTE   PEND 
 BYTE   PATT
  POIN2 Label_4_016581EF
 BYTE   PATT
  POIN2 Label_4_016581EF
// 005   ----------------------------------------
Label_4_01658214:
 BYTE   N05  En1  v110
 BYTE   W12
 BYTE   Bn0
 BYTE   W06
 BYTE   Bn0
 BYTE   W06
 BYTE   En1
 BYTE   W06
 BYTE   Bn0
 BYTE   W12
 BYTE   Bn0
 BYTE   W06
 BYTE   En1
 BYTE   W12
 BYTE   Bn0
 BYTE   W06
 BYTE   Bn0
 BYTE   W06
 BYTE   Dn2
 BYTE   N05  Cn2
 BYTE   N05  En1
 BYTE   W06
 BYTE   Cn2
 BYTE   N05  Bn1
 BYTE   N05  En1
 BYTE   W06
 BYTE   Bn1
 BYTE   N05  An1
 BYTE   N05  En1
 BYTE   W06
 BYTE   An1
 BYTE   N05  Gn1
 BYTE   N05  En1
 BYTE   W06
 BYTE   PEND 
 BYTE   PATT
  POIN2 Label_4_016581EF
 BYTE   PATT
  POIN2 Label_4_016581EF
 BYTE   PATT
  POIN2 Label_4_016581EF
 BYTE   PATT
  POIN2 Label_4_01658214
 BYTE   PATT
  POIN2 Label_4_01658116
 BYTE   PATT
  POIN2 Label_4_01658116
 BYTE   PATT
  POIN2 Label_4_01658116
 BYTE   PATT
  POIN2 Label_4_01658116
 BYTE   PATT
  POIN2 Label_4_01658116
 BYTE   PATT
  POIN2 Label_4_01658116
 BYTE   PATT
  POIN2 Label_4_01658116
 BYTE   PATT
  POIN2 Label_4_01658154
 BYTE   PATT
  POIN2 Label_4_01658116
 BYTE   PATT
  POIN2 Label_4_01658116
 BYTE   PATT
  POIN2 Label_4_01658116
 BYTE   PATT
  POIN2 Label_4_01658116
 BYTE   PATT
  POIN2 Label_4_01658116
 BYTE   PATT
  POIN2 Label_4_01658116
 BYTE   PATT
  POIN2 Label_4_01658154
 BYTE   PATT
  POIN2 Label_4_01658116
 BYTE   PATT
  POIN2 Label_4_01658116
 BYTE   PATT
  POIN2 Label_4_01658116
 BYTE   PATT
  POIN2 Label_4_01658116
 BYTE   PATT
  POIN2 Label_4_01658116
 BYTE   PATT
  POIN2 Label_4_01658116
 BYTE   PATT
  POIN2 Label_4_01658116
 BYTE   PATT
  POIN2 Label_4_01658154
 BYTE   PATT
  POIN2 Label_4_01658116
 BYTE   PATT
  POIN2 Label_4_01658116
 BYTE   PATT
  POIN2 Label_4_01658116
 BYTE   PATT
  POIN2 Label_4_01658154
 BYTE   PATT
  POIN2 Label_4_016581EF
 BYTE   PATT
  POIN2 Label_4_016581EF
 BYTE   PATT
  POIN2 Label_4_016581EF
 BYTE   PATT
  POIN2 Label_4_01658214
 BYTE   PATT
  POIN2 Label_4_016581EF
 BYTE   PATT
  POIN2 Label_4_016581EF
 BYTE   PATT
  POIN2 Label_4_016581EF
 BYTE   PATT
  POIN2 Label_4_01658214
 BYTE   PATT
  POIN2 Label_4_01658116
 BYTE   PATT
  POIN2 Label_4_01658116
 BYTE   PATT
  POIN2 Label_4_01658116
 BYTE   PATT
  POIN2 Label_4_01658116
 BYTE   PATT
  POIN2 Label_4_01658116
 BYTE   PATT
  POIN2 Label_4_01658116
 BYTE   PATT
  POIN2 Label_4_01658116
 BYTE   PATT
  POIN2 Label_4_01658154
 BYTE   PATT
  POIN2 Label_4_01658116
 BYTE   PATT
  POIN2 Label_4_01658116
 BYTE   PATT
  POIN2 Label_4_01658116
 BYTE   PATT
  POIN2 Label_4_01658116
 BYTE   PATT
  POIN2 Label_4_01658116
 BYTE   PATT
  POIN2 Label_4_01658116
 BYTE   PATT
  POIN2 Label_4_01658154
 BYTE   PATT
  POIN2 Label_4_01658116
 BYTE   PATT
  POIN2 Label_4_01658116
 BYTE   PATT
  POIN2 Label_4_01658116
 BYTE   PATT
  POIN2 Label_4_016581A7
 BYTE   PATT
  POIN2 Label_4_01658116
 BYTE   PATT
  POIN2 Label_4_01658116
 BYTE   PATT
  POIN2 Label_4_01658116
 BYTE   PATT
  POIN2 Label_4_01658154
 BYTE   PATT
  POIN2 Label_4_01658116
 BYTE   PATT
  POIN2 Label_4_01658116
 BYTE   PATT
  POIN2 Label_4_01658116
// 006   ----------------------------------------
 BYTE   N11  Bn0  v110
 BYTE   W12
 BYTE   N05  En1
 BYTE   W06
 BYTE   N11  Bn0
 BYTE   W12
 BYTE   N05
 BYTE   W06
 BYTE   En1
 BYTE   W06
 BYTE   Bn0
 BYTE   W06
 BYTE   Bn0
 BYTE   W06
 BYTE   Bn0
 BYTE   W06
 BYTE   En1
 BYTE   W06
 BYTE   Bn0
 BYTE   W06
 BYTE   En1
 BYTE   W06
 BYTE   En1
 BYTE   W06
 BYTE   En1
 BYTE   W06
 BYTE   En1
 BYTE   W06
// 007   ----------------------------------------
 BYTE   VOL   80*GoldenSunIsaacsBattleThemeMeatOfJustice_mvl/mxv
 BYTE   N05  En1  v110
 BYTE   W06
 BYTE   VOL   78*GoldenSunIsaacsBattleThemeMeatOfJustice_mvl/mxv
 BYTE   W06
 BYTE   VOL   77*GoldenSunIsaacsBattleThemeMeatOfJustice_mvl/mxv
 BYTE   N05  Bn0  v110
 BYTE   W06
 BYTE   Bn0
 BYTE   VOL   75*GoldenSunIsaacsBattleThemeMeatOfJustice_mvl/mxv
 BYTE   W05
 BYTE   N05  En1  v110
 BYTE   VOL   73*GoldenSunIsaacsBattleThemeMeatOfJustice_mvl/mxv
 BYTE   W05
 BYTE   N05  Bn0  v110
 BYTE   VOL   72*GoldenSunIsaacsBattleThemeMeatOfJustice_mvl/mxv
 BYTE   W06
 BYTE   VOL   70*GoldenSunIsaacsBattleThemeMeatOfJustice_mvl/mxv
 BYTE   W05
 BYTE   N05  Bn0  v110
 BYTE   VOL   69*GoldenSunIsaacsBattleThemeMeatOfJustice_mvl/mxv
 BYTE   W05
 BYTE   N05  En1  v110
 BYTE   VOL   67*GoldenSunIsaacsBattleThemeMeatOfJustice_mvl/mxv
 BYTE   W06
 BYTE   VOL   65*GoldenSunIsaacsBattleThemeMeatOfJustice_mvl/mxv
 BYTE   W05
 BYTE   N05  Bn0  v110
 BYTE   VOL   64*GoldenSunIsaacsBattleThemeMeatOfJustice_mvl/mxv
 BYTE   W05
 BYTE   N05  Bn0  v110
 BYTE   VOL   62*GoldenSunIsaacsBattleThemeMeatOfJustice_mvl/mxv
 BYTE   W05
 BYTE   N05  En1  v110
 BYTE   VOL   61*GoldenSunIsaacsBattleThemeMeatOfJustice_mvl/mxv
 BYTE   W05
 BYTE   N05  Bn0  v110
 BYTE   VOL   59*GoldenSunIsaacsBattleThemeMeatOfJustice_mvl/mxv
 BYTE   W06
 BYTE   VOL   58*GoldenSunIsaacsBattleThemeMeatOfJustice_mvl/mxv
 BYTE   W05
 BYTE   N05  Bn0  v110
 BYTE   VOL   56*GoldenSunIsaacsBattleThemeMeatOfJustice_mvl/mxv
 BYTE   W05
 BYTE   N05  En1  v110
 BYTE   VOL   54*GoldenSunIsaacsBattleThemeMeatOfJustice_mvl/mxv
 BYTE   W06
 BYTE   VOL   53*GoldenSunIsaacsBattleThemeMeatOfJustice_mvl/mxv
 BYTE   W05
// 008   ----------------------------------------
 BYTE   N05  Bn0  v110
 BYTE   VOL   51*GoldenSunIsaacsBattleThemeMeatOfJustice_mvl/mxv
 BYTE   W05
 BYTE   N05  Bn0  v110
 BYTE   VOL   50*GoldenSunIsaacsBattleThemeMeatOfJustice_mvl/mxv
 BYTE   W05
 BYTE   N05  En1  v110
 BYTE   VOL   48*GoldenSunIsaacsBattleThemeMeatOfJustice_mvl/mxv
 BYTE   W05
 BYTE   N05  Bn0  v110
 BYTE   VOL   47*GoldenSunIsaacsBattleThemeMeatOfJustice_mvl/mxv
 BYTE   W06
 BYTE   VOL   45*GoldenSunIsaacsBattleThemeMeatOfJustice_mvl/mxv
 BYTE   W05
 BYTE   N05  Bn0  v110
 BYTE   W01
 BYTE   VOL   44*GoldenSunIsaacsBattleThemeMeatOfJustice_mvl/mxv
 BYTE   W05
 BYTE   N05  En1  v110
 BYTE   W01
 BYTE   VOL   43*GoldenSunIsaacsBattleThemeMeatOfJustice_mvl/mxv
 BYTE   W06
 BYTE   VOL   41*GoldenSunIsaacsBattleThemeMeatOfJustice_mvl/mxv
 BYTE   W04
 BYTE   N05  Bn0  v110
 BYTE   W01
 BYTE   VOL   40*GoldenSunIsaacsBattleThemeMeatOfJustice_mvl/mxv
 BYTE   W04
 BYTE   N05  Bn0  v110
 BYTE   W01
 BYTE   VOL   38*GoldenSunIsaacsBattleThemeMeatOfJustice_mvl/mxv
 BYTE   W04
 BYTE   N05  En1  v110
 BYTE   W01
 BYTE   VOL   37*GoldenSunIsaacsBattleThemeMeatOfJustice_mvl/mxv
 BYTE   W04
 BYTE   N05  Bn0  v110
 BYTE   W01
 BYTE   VOL   35*GoldenSunIsaacsBattleThemeMeatOfJustice_mvl/mxv
 BYTE   W06
 BYTE   VOL   34*GoldenSunIsaacsBattleThemeMeatOfJustice_mvl/mxv
 BYTE   W04
 BYTE   N05  Bn0  v110
 BYTE   W01
 BYTE   VOL   33*GoldenSunIsaacsBattleThemeMeatOfJustice_mvl/mxv
 BYTE   W04
 BYTE   N05  En1  v110
 BYTE   W01
 BYTE   VOL   31*GoldenSunIsaacsBattleThemeMeatOfJustice_mvl/mxv
 BYTE   W06
 BYTE   VOL   30*GoldenSunIsaacsBattleThemeMeatOfJustice_mvl/mxv
 BYTE   W04
 BYTE   N05  Bn0  v110
 BYTE   W01
 BYTE   VOL   29*GoldenSunIsaacsBattleThemeMeatOfJustice_mvl/mxv
 BYTE   W04
 BYTE   N05  Bn0  v110
 BYTE   W01
 BYTE   VOL   27*GoldenSunIsaacsBattleThemeMeatOfJustice_mvl/mxv
 BYTE   W04
 BYTE   N05  En1  v110
 BYTE   W01
// 009   ----------------------------------------
 BYTE   VOL   26*GoldenSunIsaacsBattleThemeMeatOfJustice_mvl/mxv
 BYTE   W04
 BYTE   N05  Bn0  v110
 BYTE   W01
 BYTE   VOL   25*GoldenSunIsaacsBattleThemeMeatOfJustice_mvl/mxv
 BYTE   W06
 BYTE   VOL   23*GoldenSunIsaacsBattleThemeMeatOfJustice_mvl/mxv
 BYTE   W04
 BYTE   N05  Bn0  v110
 BYTE   W01
 BYTE   VOL   22*GoldenSunIsaacsBattleThemeMeatOfJustice_mvl/mxv
 BYTE   W04
 BYTE   N05  En1  v110
 BYTE   W01
 BYTE   VOL   21*GoldenSunIsaacsBattleThemeMeatOfJustice_mvl/mxv
 BYTE   W06
 BYTE   VOL   19*GoldenSunIsaacsBattleThemeMeatOfJustice_mvl/mxv
 BYTE   W04
 BYTE   N05  Bn0  v110
 BYTE   W01
 BYTE   VOL   18*GoldenSunIsaacsBattleThemeMeatOfJustice_mvl/mxv
 BYTE   W04
 BYTE   N05  Bn0  v110
 BYTE   W02
 BYTE   VOL   17*GoldenSunIsaacsBattleThemeMeatOfJustice_mvl/mxv
 BYTE   W04
 BYTE   N05  En1  v110
 BYTE   W02
 BYTE   VOL   16*GoldenSunIsaacsBattleThemeMeatOfJustice_mvl/mxv
 BYTE   W04
 BYTE   N05  Bn0  v110
 BYTE   W02
 BYTE   VOL   14*GoldenSunIsaacsBattleThemeMeatOfJustice_mvl/mxv
 BYTE   W06
 BYTE   VOL   13*GoldenSunIsaacsBattleThemeMeatOfJustice_mvl/mxv
 BYTE   W03
 BYTE   N05  Bn0  v110
 BYTE   W02
 BYTE   VOL   12*GoldenSunIsaacsBattleThemeMeatOfJustice_mvl/mxv
 BYTE   W03
 BYTE   N05  En1  v110
 BYTE   W02
 BYTE   VOL   11*GoldenSunIsaacsBattleThemeMeatOfJustice_mvl/mxv
 BYTE   W06
 BYTE   VOL   9*GoldenSunIsaacsBattleThemeMeatOfJustice_mvl/mxv
 BYTE   W03
 BYTE   N05  Bn0  v110
 BYTE   W02
 BYTE   VOL   8*GoldenSunIsaacsBattleThemeMeatOfJustice_mvl/mxv
 BYTE   W03
 BYTE   N05  Bn0  v110
 BYTE   W02
 BYTE   VOL   7*GoldenSunIsaacsBattleThemeMeatOfJustice_mvl/mxv
 BYTE   W03
 BYTE   N05  En1  v110
 BYTE   W02
 BYTE   VOL   6*GoldenSunIsaacsBattleThemeMeatOfJustice_mvl/mxv
 BYTE   W03
 BYTE   N05  Bn0  v110
 BYTE   W02
 BYTE   VOL   5*GoldenSunIsaacsBattleThemeMeatOfJustice_mvl/mxv
 BYTE   W06
// 010   ----------------------------------------
 BYTE   VOL   3*GoldenSunIsaacsBattleThemeMeatOfJustice_mvl/mxv
 BYTE   W03
 BYTE   N05  Bn0  v110
 BYTE   W02
 BYTE   VOL   2*GoldenSunIsaacsBattleThemeMeatOfJustice_mvl/mxv
 BYTE   W03
 BYTE   N05  En1  v110
 BYTE   W02
 BYTE   VOL   1*GoldenSunIsaacsBattleThemeMeatOfJustice_mvl/mxv
 BYTE   W06
 BYTE   VOL   0*GoldenSunIsaacsBattleThemeMeatOfJustice_mvl/mxv
 BYTE   W03
 BYTE   N05  Bn0  v110
 BYTE   W02
 BYTE   VOL   0*GoldenSunIsaacsBattleThemeMeatOfJustice_mvl/mxv
 BYTE   W03
 BYTE   N05  Bn0  v110
 BYTE   W02
 BYTE   VOL   0*GoldenSunIsaacsBattleThemeMeatOfJustice_mvl/mxv
 BYTE   W03
 BYTE   N05  Cn2  v110
 BYTE   N05  Dn2
 BYTE   N05  En1
 BYTE   W02
 BYTE   VOL   0*GoldenSunIsaacsBattleThemeMeatOfJustice_mvl/mxv
 BYTE   W03
 BYTE   N05  Bn1  v110
 BYTE   N05  Cn2
 BYTE   N05  En1
 BYTE   W02
 BYTE   VOL   0*GoldenSunIsaacsBattleThemeMeatOfJustice_mvl/mxv
 BYTE   W03
 BYTE   N05  An1  v110
 BYTE   N05  Bn1
 BYTE   N05  En1
 BYTE   W02
 BYTE   VOL   0*GoldenSunIsaacsBattleThemeMeatOfJustice_mvl/mxv
 BYTE   W03
 BYTE   N05  Gn1  v110
 BYTE   N05  An1
 BYTE   N05  En1
 BYTE   W02
 BYTE   VOL   0*GoldenSunIsaacsBattleThemeMeatOfJustice_mvl/mxv
 BYTE   W03
 BYTE   N05  En1  v110
 BYTE   W03
 BYTE   VOL   0*GoldenSunIsaacsBattleThemeMeatOfJustice_mvl/mxv
 BYTE   W06
 BYTE   VOL   0*GoldenSunIsaacsBattleThemeMeatOfJustice_mvl/mxv
 BYTE   W03
 BYTE   N05  Bn0  v110
 BYTE   W03
 BYTE   VOL   0*GoldenSunIsaacsBattleThemeMeatOfJustice_mvl/mxv
 BYTE   W03
 BYTE   N05  Bn0  v110
 BYTE   W03
 BYTE   VOL   0*GoldenSunIsaacsBattleThemeMeatOfJustice_mvl/mxv
 BYTE   W02
 BYTE   N05  En1  v110
 BYTE   W03
 BYTE   VOL   0*GoldenSunIsaacsBattleThemeMeatOfJustice_mvl/mxv
 BYTE   W02
 BYTE   N05  Bn0  v110
 BYTE   W03
 BYTE   VOL   0*GoldenSunIsaacsBattleThemeMeatOfJustice_mvl/mxv
 BYTE   W06
 BYTE   VOL   0*GoldenSunIsaacsBattleThemeMeatOfJustice_mvl/mxv
 BYTE   W02
 BYTE   N05  Bn0  v110
 BYTE   W03
 BYTE   VOL   0*GoldenSunIsaacsBattleThemeMeatOfJustice_mvl/mxv
 BYTE   W02
 BYTE   N05  En1  v110
 BYTE   W03
// 011   ----------------------------------------
 BYTE   VOL   0*GoldenSunIsaacsBattleThemeMeatOfJustice_mvl/mxv
 BYTE   W06
 BYTE   VOL   0*GoldenSunIsaacsBattleThemeMeatOfJustice_mvl/mxv
 BYTE   W02
 BYTE   N05  Bn0  v110
 BYTE   W03
 BYTE   VOL   0*GoldenSunIsaacsBattleThemeMeatOfJustice_mvl/mxv
 BYTE   W02
 BYTE   N05  Bn0  v110
 BYTE   W03
 BYTE   VOL   0*GoldenSunIsaacsBattleThemeMeatOfJustice_mvl/mxv
 BYTE   W02
 BYTE   N05  En1  v110
 BYTE   W03
 BYTE   VOL   0*GoldenSunIsaacsBattleThemeMeatOfJustice_mvl/mxv
 BYTE   W02
 BYTE   N05  Bn0  v110
 BYTE   W03
 BYTE   VOL   0*GoldenSunIsaacsBattleThemeMeatOfJustice_mvl/mxv
 BYTE   W06
 BYTE   VOL   0*GoldenSunIsaacsBattleThemeMeatOfJustice_mvl/mxv
 BYTE   W02
 BYTE   N05  Bn0  v110
 BYTE   W03
 BYTE   VOL   0*GoldenSunIsaacsBattleThemeMeatOfJustice_mvl/mxv
 BYTE   W02
 BYTE   N05  En1  v110
 BYTE   W03
 BYTE   VOL   0*GoldenSunIsaacsBattleThemeMeatOfJustice_mvl/mxv
 BYTE   W06
 BYTE   VOL   0*GoldenSunIsaacsBattleThemeMeatOfJustice_mvl/mxv
 BYTE   W02
 BYTE   N05  Bn0  v110
 BYTE   W03
 BYTE   VOL   0*GoldenSunIsaacsBattleThemeMeatOfJustice_mvl/mxv
 BYTE   W02
 BYTE   N05  Bn0  v110
 BYTE   W03
 BYTE   VOL   0*GoldenSunIsaacsBattleThemeMeatOfJustice_mvl/mxv
 BYTE   W02
 BYTE   N05  En1  v110
 BYTE   W03
 BYTE   VOL   0*GoldenSunIsaacsBattleThemeMeatOfJustice_mvl/mxv
 BYTE   W02
 BYTE   N05  Bn0  v110
 BYTE   W04
 BYTE   VOL   0*GoldenSunIsaacsBattleThemeMeatOfJustice_mvl/mxv
 BYTE   W06
 BYTE   VOL   0*GoldenSunIsaacsBattleThemeMeatOfJustice_mvl/mxv
 BYTE   W02
 BYTE   N05  Bn0  v110
 BYTE   W04
 BYTE   VOL   0*GoldenSunIsaacsBattleThemeMeatOfJustice_mvl/mxv
 BYTE   W02
 BYTE   N05  En1  v110
 BYTE   W04
 BYTE   VOL   0*GoldenSunIsaacsBattleThemeMeatOfJustice_mvl/mxv
 BYTE   W06
 BYTE   VOL   0*GoldenSunIsaacsBattleThemeMeatOfJustice_mvl/mxv
 BYTE   W01
 BYTE   N05  Bn0  v110
 BYTE   W04
// 012   ----------------------------------------
 BYTE   VOL   0*GoldenSunIsaacsBattleThemeMeatOfJustice_mvl/mxv
 BYTE   W01
 BYTE   N05  Bn0  v110
 BYTE   W04
 BYTE   VOL   0*GoldenSunIsaacsBattleThemeMeatOfJustice_mvl/mxv
 BYTE   W01
 BYTE   N05  En1  v110
 BYTE   W04
 BYTE   VOL   0*GoldenSunIsaacsBattleThemeMeatOfJustice_mvl/mxv
 BYTE   W01
 BYTE   N05  Bn0  v110
 BYTE   W04
 BYTE   VOL   0*GoldenSunIsaacsBattleThemeMeatOfJustice_mvl/mxv
 BYTE   W06
 BYTE   VOL   0*GoldenSunIsaacsBattleThemeMeatOfJustice_mvl/mxv
 BYTE   W01
 BYTE   N05  Bn0  v110
 BYTE   W04
 BYTE   VOL   0*GoldenSunIsaacsBattleThemeMeatOfJustice_mvl/mxv
 BYTE   W01
 BYTE   N05  En1  v110
 BYTE   W04
 BYTE   VOL   0*GoldenSunIsaacsBattleThemeMeatOfJustice_mvl/mxv
 BYTE   W06
 BYTE   VOL   0*GoldenSunIsaacsBattleThemeMeatOfJustice_mvl/mxv
 BYTE   W01
 BYTE   N05  Bn0  v110
 BYTE   W04
 BYTE   VOL   0*GoldenSunIsaacsBattleThemeMeatOfJustice_mvl/mxv
 BYTE   W01
 BYTE   N05  Bn0  v110
 BYTE   W04
 BYTE   VOL   0*GoldenSunIsaacsBattleThemeMeatOfJustice_mvl/mxv
 BYTE   W01
 BYTE   N05  En1  v110
 BYTE   W04
 BYTE   VOL   0*GoldenSunIsaacsBattleThemeMeatOfJustice_mvl/mxv
 BYTE   W01
 BYTE   N05  Bn0  v110
 BYTE   W04
 BYTE   VOL   0*GoldenSunIsaacsBattleThemeMeatOfJustice_mvl/mxv
 BYTE   W06
 BYTE   VOL   0*GoldenSunIsaacsBattleThemeMeatOfJustice_mvl/mxv
 BYTE   W01
 BYTE   N05  Bn0  v110
 BYTE   W04
 BYTE   VOL   0*GoldenSunIsaacsBattleThemeMeatOfJustice_mvl/mxv
 BYTE   W01
 BYTE   N05  En1  v110
 BYTE   W04
 BYTE   VOL   0*GoldenSunIsaacsBattleThemeMeatOfJustice_mvl/mxv
 BYTE   W06
 BYTE   VOL   0*GoldenSunIsaacsBattleThemeMeatOfJustice_mvl/mxv
 BYTE   W01
 BYTE   N05  Bn0  v110
 BYTE   W05
 BYTE   VOL   0*GoldenSunIsaacsBattleThemeMeatOfJustice_mvl/mxv
 BYTE   W01
 BYTE   N05  Bn0  v110
 BYTE   W05
 BYTE   VOL   0*GoldenSunIsaacsBattleThemeMeatOfJustice_mvl/mxv
 BYTE   W01
 BYTE   N05  En1  v110
 BYTE   W05
// 013   ----------------------------------------
 BYTE   VOL   0*GoldenSunIsaacsBattleThemeMeatOfJustice_mvl/mxv
 BYTE   W01
 BYTE   N05  Bn0  v110
 BYTE   W05
 BYTE   VOL   0*GoldenSunIsaacsBattleThemeMeatOfJustice_mvl/mxv
 BYTE   W06
 BYTE   VOL   0*GoldenSunIsaacsBattleThemeMeatOfJustice_mvl/mxv
 BYTE   N05  Bn0  v110
 BYTE   W05
 BYTE   VOL   0*GoldenSunIsaacsBattleThemeMeatOfJustice_mvl/mxv
 BYTE   N05  En1  v110
 BYTE   W05
 BYTE   VOL   0*GoldenSunIsaacsBattleThemeMeatOfJustice_mvl/mxv
 BYTE   W06
 BYTE   VOL   0*GoldenSunIsaacsBattleThemeMeatOfJustice_mvl/mxv
 BYTE   N05  Bn0  v110
 BYTE   W05
 BYTE   VOL   0*GoldenSunIsaacsBattleThemeMeatOfJustice_mvl/mxv
 BYTE   N05  Bn0  v110
 BYTE   W05
 BYTE   VOL   0*GoldenSunIsaacsBattleThemeMeatOfJustice_mvl/mxv
 BYTE   N05  En1  v110
 BYTE   W05
 BYTE   VOL   0*GoldenSunIsaacsBattleThemeMeatOfJustice_mvl/mxv
 BYTE   N05  Bn0  v110
 BYTE   W05
 BYTE   VOL   0*GoldenSunIsaacsBattleThemeMeatOfJustice_mvl/mxv
 BYTE   W06
 BYTE   VOL   0*GoldenSunIsaacsBattleThemeMeatOfJustice_mvl/mxv
 BYTE   N05  Bn0  v110
 BYTE   W05
 BYTE   VOL   0*GoldenSunIsaacsBattleThemeMeatOfJustice_mvl/mxv
 BYTE   N05  En1  v110
 BYTE   W05
 BYTE   VOL   0*GoldenSunIsaacsBattleThemeMeatOfJustice_mvl/mxv
 BYTE   W06
 BYTE   VOL   0*GoldenSunIsaacsBattleThemeMeatOfJustice_mvl/mxv
 BYTE   N05  Bn0  v110
 BYTE   W05
 BYTE   VOL   0*GoldenSunIsaacsBattleThemeMeatOfJustice_mvl/mxv
 BYTE   N05  Bn0  v110
 BYTE   W05
 BYTE   VOL   0*GoldenSunIsaacsBattleThemeMeatOfJustice_mvl/mxv
 BYTE   N05  Dn2  v110
 BYTE   N05  Cn2
 BYTE   N05  En1
 BYTE   W05
 BYTE   VOL   0*GoldenSunIsaacsBattleThemeMeatOfJustice_mvl/mxv
 BYTE   N05  Cn2  v110
 BYTE   N05  Bn1
 BYTE   N05  En1
 BYTE   W05
 BYTE   VOL   0*GoldenSunIsaacsBattleThemeMeatOfJustice_mvl/mxv
 BYTE   N05  Bn1  v110
 BYTE   N05  An1
 BYTE   N05  En1
 BYTE   W05
 BYTE   VOL   0*GoldenSunIsaacsBattleThemeMeatOfJustice_mvl/mxv
 BYTE   N05  An1  v110
 BYTE   N05  Gn1
 BYTE   N05  En1
 BYTE   VOL   0*GoldenSunIsaacsBattleThemeMeatOfJustice_mvl/mxv
 BYTE   GoTo
  POIN2 Label_4_016580E8
 BYTE   FINE

//**************** Track 6 (Midi-Chn.5) ****************//

GoldenSunIsaacsBattleThemeMeatOfJustice_006:
// 000   ----------------------------------------
Label_5_016586B4:
 BYTE   KEYSH   GoldenSunIsaacsBattleThemeMeatOfJustice_key+0
 BYTE   VOICE   24
 BYTE   VOL   85*GoldenSunIsaacsBattleThemeMeatOfJustice_mvl/mxv
 BYTE   PAN   c_v+0
 BYTE   TEMPO   120*GoldenSunIsaacsBattleThemeMeatOfJustice_tbs/2
 BYTE   W96
// 001   ----------------------------------------
 BYTE   W96
// 002   ----------------------------------------
 BYTE   W96
// 003   ----------------------------------------
 BYTE   W96
// 004   ----------------------------------------
 BYTE   W96
// 005   ----------------------------------------
 BYTE   W96
// 006   ----------------------------------------
 BYTE   W96
// 007   ----------------------------------------
 BYTE   W96
// 008   ----------------------------------------
 BYTE   W96
// 009   ----------------------------------------
 BYTE   W96
// 010   ----------------------------------------
 BYTE   W96
// 011   ----------------------------------------
 BYTE   W96
// 012   ----------------------------------------
 BYTE   W96
// 013   ----------------------------------------
 BYTE   W96
// 014   ----------------------------------------
 BYTE   W96
// 015   ----------------------------------------
 BYTE   W96
// 016   ----------------------------------------
 BYTE   VOL   61*GoldenSunIsaacsBattleThemeMeatOfJustice_mvl/mxv
 BYTE   N05  Fn3  v110
 BYTE   W06
 BYTE   An3
 BYTE   W06
 BYTE   Cn4
 BYTE   W06
 BYTE   En4
 BYTE   W06
 BYTE   Fn4
 BYTE   W06
 BYTE   An4
 BYTE   W06
 BYTE   Cn5
 BYTE   W06
 BYTE   En5
 BYTE   W06
 BYTE   Cn5
 BYTE   W06
 BYTE   An4
 BYTE   W06
 BYTE   Fn4
 BYTE   W06
 BYTE   En4
 BYTE   W06
 BYTE   Cn4
 BYTE   W06
 BYTE   An3
 BYTE   W06
 BYTE   Fn3
 BYTE   W06
 BYTE   An3
 BYTE   W06
// 017   ----------------------------------------
 BYTE   Dn3
 BYTE   W06
 BYTE   Gn3
 BYTE   W06
 BYTE   Bn3
 BYTE   W06
 BYTE   Dn4
 BYTE   W06
 BYTE   Gn4
 BYTE   W06
 BYTE   Bn4
 BYTE   W06
 BYTE   Dn5
 BYTE   W06
 BYTE   Bn4
 BYTE   W06
 BYTE   Gn5
 BYTE   W06
 BYTE   Dn5
 BYTE   W06
 BYTE   Bn4
 BYTE   W06
 BYTE   Gn4
 BYTE   W06
 BYTE   Dn4
 BYTE   W06
 BYTE   Bn3
 BYTE   W06
 BYTE   Gn3
 BYTE   W06
 BYTE   Bn3
 BYTE   W06
// 018   ----------------------------------------
 BYTE   Fn3
 BYTE   W06
 BYTE   An3
 BYTE   W06
 BYTE   Cn4
 BYTE   W06
 BYTE   En4
 BYTE   W06
 BYTE   Fn4
 BYTE   W06
 BYTE   An4
 BYTE   W06
 BYTE   Cn5
 BYTE   W06
 BYTE   En5
 BYTE   W06
 BYTE   Fn5
 BYTE   W06
 BYTE   En5
 BYTE   W06
 BYTE   Cn5
 BYTE   W06
 BYTE   An4
 BYTE   W06
 BYTE   Fn4
 BYTE   W06
 BYTE   En4
 BYTE   W06
 BYTE   Cn4
 BYTE   W06
 BYTE   An3
 BYTE   W06
// 019   ----------------------------------------
 BYTE   Gn3
 BYTE   W06
 BYTE   Bn3
 BYTE   W06
 BYTE   En4
 BYTE   W06
 BYTE   Gn4
 BYTE   W06
 BYTE   Bn4
 BYTE   W06
 BYTE   En5
 BYTE   W06
 BYTE   Gn5
 BYTE   W06
 BYTE   En5
 BYTE   W06
 BYTE   Gs5
 BYTE   W06
 BYTE   En5
 BYTE   W06
 BYTE   Bn4
 BYTE   W06
 BYTE   Gs4
 BYTE   W06
 BYTE   En4
 BYTE   W06
 BYTE   Bn3
 BYTE   W06
 BYTE   Gs3
 BYTE   W06
 BYTE   En3
 BYTE   W05
 BYTE   W96
// 020   ----------------------------------------
 BYTE   W96
// 021   ----------------------------------------
 BYTE   W96
// 022   ----------------------------------------
 BYTE   W96
// 023   ----------------------------------------
 BYTE   W96
// 024   ----------------------------------------
 BYTE   W96
// 025   ----------------------------------------
 BYTE   W96
// 026   ----------------------------------------
 BYTE   W96
// 027   ----------------------------------------
 BYTE   W96
// 028   ----------------------------------------
 BYTE   W96
// 029   ----------------------------------------
 BYTE   W96
// 030   ----------------------------------------
 BYTE   W96
// 031   ----------------------------------------
 BYTE   W96
// 032   ----------------------------------------
 BYTE   W96
// 033   ----------------------------------------
 BYTE   W96
// 034   ----------------------------------------
 BYTE   W96
// 035   ----------------------------------------
 BYTE   W96
// 036   ----------------------------------------
 BYTE   W96
// 037   ----------------------------------------
 BYTE   W96
// 038   ----------------------------------------
 BYTE   W96
// 039   ----------------------------------------
 BYTE   W96
// 040   ----------------------------------------
 BYTE   W96
// 041   ----------------------------------------
 BYTE   W96
// 042   ----------------------------------------
 BYTE   W96
// 043   ----------------------------------------
 BYTE   W96
// 044   ----------------------------------------
 BYTE   W96
// 045   ----------------------------------------
 BYTE   W96
// 046   ----------------------------------------
 BYTE   W96
// 047   ----------------------------------------
 BYTE   W96
// 048   ----------------------------------------
 BYTE   W96
// 049   ----------------------------------------
 BYTE   W96
// 050   ----------------------------------------
 BYTE   VOL   61*GoldenSunIsaacsBattleThemeMeatOfJustice_mvl/mxv
 BYTE   N05  Fn3  v110
 BYTE   W06
 BYTE   An3
 BYTE   W06
 BYTE   Cn4
 BYTE   W06
 BYTE   En4
 BYTE   W06
 BYTE   Fn4
 BYTE   W06
 BYTE   An4
 BYTE   W06
 BYTE   Cn5
 BYTE   W06
 BYTE   En5
 BYTE   W06
 BYTE   Cn5
 BYTE   W06
 BYTE   An4
 BYTE   W06
 BYTE   Fn4
 BYTE   W06
 BYTE   En4
 BYTE   W06
 BYTE   Cn4
 BYTE   W06
 BYTE   An3
 BYTE   W06
 BYTE   Fn3
 BYTE   W06
 BYTE   An3
 BYTE   W06
// 051   ----------------------------------------
 BYTE   Dn3
 BYTE   W06
 BYTE   Gn3
 BYTE   W06
 BYTE   Bn3
 BYTE   W06
 BYTE   Dn4
 BYTE   W06
 BYTE   Gn4
 BYTE   W06
 BYTE   Bn4
 BYTE   W06
 BYTE   Dn5
 BYTE   W06
 BYTE   Bn4
 BYTE   W06
 BYTE   Gn5
 BYTE   W06
 BYTE   Dn5
 BYTE   W06
 BYTE   Bn4
 BYTE   W06
 BYTE   Gn4
 BYTE   W06
 BYTE   Dn4
 BYTE   W06
 BYTE   Bn3
 BYTE   W06
 BYTE   Gn3
 BYTE   W06
 BYTE   Bn3
 BYTE   W06
// 052   ----------------------------------------
 BYTE   Fn3
 BYTE   W06
 BYTE   An3
 BYTE   W06
 BYTE   Cn4
 BYTE   W06
 BYTE   En4
 BYTE   W06
 BYTE   Fn4
 BYTE   W06
 BYTE   An4
 BYTE   W06
 BYTE   Cn5
 BYTE   W06
 BYTE   En5
 BYTE   W06
 BYTE   Fn5
 BYTE   W06
 BYTE   En5
 BYTE   W06
 BYTE   Cn5
 BYTE   W06
 BYTE   An4
 BYTE   W06
 BYTE   Fn4
 BYTE   W06
 BYTE   En4
 BYTE   W06
 BYTE   Cn4
 BYTE   W06
 BYTE   An3
 BYTE   W06
// 053   ----------------------------------------
 BYTE   Gn3
 BYTE   W06
 BYTE   Bn3
 BYTE   W06
 BYTE   En4
 BYTE   W06
 BYTE   Gn4
 BYTE   W06
 BYTE   Bn4
 BYTE   W06
 BYTE   En5
 BYTE   W06
 BYTE   Gn5
 BYTE   W06
 BYTE   En5
 BYTE   W06
 BYTE   Gs5
 BYTE   W06
 BYTE   En5
 BYTE   W06
 BYTE   Bn4
 BYTE   W06
 BYTE   Gs4
 BYTE   W06
 BYTE   En4
 BYTE   W06
 BYTE   Bn3
 BYTE   W06
 BYTE   Gs3
 BYTE   W06
 BYTE   En3
 BYTE   W96
// 054   ----------------------------------------
 BYTE   W96
// 055   ----------------------------------------
 BYTE   W96
// 056   ----------------------------------------
 BYTE   W96
// 057   ----------------------------------------
 BYTE   W96
// 058   ----------------------------------------
 BYTE   W96
// 059   ----------------------------------------
 BYTE   W96
// 060   ----------------------------------------
 BYTE   W96
// 061   ----------------------------------------
 BYTE   W96
// 062   ----------------------------------------
 BYTE   W96
// 063   ----------------------------------------
 BYTE   W96
// 064   ----------------------------------------
 BYTE   W96
// 065   ----------------------------------------
 BYTE   W96
// 066   ----------------------------------------
 BYTE   W96
// 067   ----------------------------------------
 BYTE   W96
// 068   ----------------------------------------
 BYTE   W96
// 069   ----------------------------------------
 BYTE   W96
// 070   ----------------------------------------
 BYTE   W96
// 071   ----------------------------------------
 BYTE   W96
// 072   ----------------------------------------
 BYTE   W96
// 073   ----------------------------------------
 BYTE   W96
// 074   ----------------------------------------
 BYTE   W96
// 075   ----------------------------------------
 BYTE   W96
// 076   ----------------------------------------
 BYTE   W96
// 077   ----------------------------------------
 BYTE   W96
// 078   ----------------------------------------
 BYTE   W96
// 079   ----------------------------------------
 BYTE   W96
// 080   ----------------------------------------
 BYTE   W96
// 081   ----------------------------------------
 BYTE   W96
// 082   ----------------------------------------
 BYTE   W96
// 083   ----------------------------------------
 BYTE   W96
// 084   ----------------------------------------
 BYTE   W06
 BYTE   VOL   61*GoldenSunIsaacsBattleThemeMeatOfJustice_mvl/mxv
 BYTE   N05  Fn3  v110
 BYTE   W06
 BYTE   An3
 BYTE   W06
 BYTE   Cn4
 BYTE   W06
 BYTE   En4
 BYTE   W06
 BYTE   Fn4
 BYTE   W06
 BYTE   An4
 BYTE   W06
 BYTE   Cn5
 BYTE   W06
 BYTE   En5
 BYTE   W06
 BYTE   Cn5
 BYTE   W06
 BYTE   An4
 BYTE   W06
 BYTE   Fn4
 BYTE   W06
 BYTE   En4
 BYTE   W06
 BYTE   Cn4
 BYTE   W06
 BYTE   An3
 BYTE   W06
 BYTE   Fn3
 BYTE   W06
// 085   ----------------------------------------
 BYTE   An3
 BYTE   W06
 BYTE   Dn3
 BYTE   W06
 BYTE   Gn3
 BYTE   W06
 BYTE   Bn3
 BYTE   W06
 BYTE   Dn4
 BYTE   W06
 BYTE   Gn4
 BYTE   W06
 BYTE   Bn4
 BYTE   W06
 BYTE   Dn5
 BYTE   W06
 BYTE   Bn4
 BYTE   W06
 BYTE   Gn5
 BYTE   W06
 BYTE   Dn5
 BYTE   W06
 BYTE   Bn4
 BYTE   W06
 BYTE   Gn4
 BYTE   W06
 BYTE   Dn4
 BYTE   W06
 BYTE   Bn3
 BYTE   W06
 BYTE   Gn3
 BYTE   W06
// 086   ----------------------------------------
 BYTE   Bn3
 BYTE   W06
 BYTE   Fn3
 BYTE   W06
 BYTE   An3
 BYTE   W06
 BYTE   Cn4
 BYTE   W06
 BYTE   En4
 BYTE   W06
 BYTE   Fn4
 BYTE   W06
 BYTE   An4
 BYTE   W06
 BYTE   Cn5
 BYTE   W06
 BYTE   En5
 BYTE   W06
 BYTE   Fn5
 BYTE   W06
 BYTE   En5
 BYTE   W06
 BYTE   Cn5
 BYTE   W06
 BYTE   An4
 BYTE   W06
 BYTE   Fn4
 BYTE   W06
 BYTE   En4
 BYTE   W06
 BYTE   Cn4
 BYTE   W06
// 087   ----------------------------------------
 BYTE   An3
 BYTE   W06
 BYTE   Gn3
 BYTE   W06
 BYTE   Bn3
 BYTE   W06
 BYTE   En4
 BYTE   W06
 BYTE   Gn4
 BYTE   W06
 BYTE   Bn4
 BYTE   W06
 BYTE   En5
 BYTE   W06
 BYTE   Gn5
 BYTE   W06
 BYTE   En5
 BYTE   W06
 BYTE   Gs5
 BYTE   W06
 BYTE   En5
 BYTE   W06
 BYTE   Bn4
 BYTE   W06
 BYTE   Gs4
 BYTE   W06
 BYTE   En4
 BYTE   W06
 BYTE   Bn3
 BYTE   W06
 BYTE   Gs3
 BYTE   W06
// 088   ----------------------------------------
 BYTE   En3
 BYTE   W05
 BYTE   W96
// 089   ----------------------------------------
 BYTE   W96
// 090   ----------------------------------------
 BYTE   W96
// 091   ----------------------------------------
 BYTE   W96
// 092   ----------------------------------------
 BYTE   W96
// 093   ----------------------------------------
 BYTE   W96
// 094   ----------------------------------------
 BYTE   W96
// 095   ----------------------------------------
 BYTE   W96
// 096   ----------------------------------------
 BYTE   W96
// 097   ----------------------------------------
 BYTE   W96
// 098   ----------------------------------------
 BYTE   W96
// 099   ----------------------------------------
 BYTE   W96
// 100   ----------------------------------------
 BYTE   W96
// 101   ----------------------------------------
 BYTE   W96
// 102   ----------------------------------------
 BYTE   W96
// 103   ----------------------------------------
 BYTE   W90
 BYTE   GoTo
  POIN2 Label_5_016586B4
 BYTE   FINE

//**************** Track 7 (Midi-Chn.6) ****************//

GoldenSunIsaacsBattleThemeMeatOfJustice_007:
// 000   ----------------------------------------
Label_6_016588B0:
 BYTE   KEYSH   GoldenSunIsaacsBattleThemeMeatOfJustice_key+0
 BYTE   VOICE   116
 BYTE   VOL   50*GoldenSunIsaacsBattleThemeMeatOfJustice_mvl/mxv
 BYTE   PAN   c_v+0
 BYTE   TEMPO   120*GoldenSunIsaacsBattleThemeMeatOfJustice_tbs/2
 BYTE   W96
// 001   ----------------------------------------
 BYTE   W96
// 002   ----------------------------------------
 BYTE   W96
// 003   ----------------------------------------
 BYTE   W96
// 004   ----------------------------------------
 BYTE   W96
// 005   ----------------------------------------
 BYTE   W96
// 006   ----------------------------------------
 BYTE   W96
// 007   ----------------------------------------
 BYTE   W96
// 008   ----------------------------------------
 BYTE   W96
// 009   ----------------------------------------
 BYTE   W96
// 010   ----------------------------------------
 BYTE   W96
// 011   ----------------------------------------
 BYTE   W96
// 012   ----------------------------------------
 BYTE   W96
// 013   ----------------------------------------
 BYTE   W96
// 014   ----------------------------------------
 BYTE   W96
// 015   ----------------------------------------
 BYTE   W96
// 016   ----------------------------------------
Label_6_016588CA:
 BYTE   N42  En4  v110
 BYTE   W48
 BYTE   N20  Dn4
 BYTE   W24
 BYTE   Gn4
 BYTE   W24
 BYTE   PEND 
// 017   ----------------------------------------
 BYTE   N17  En4  v110
 BYTE   W18
 BYTE   N28  Bn3
 BYTE   W03
 BYTE   N01
 BYTE   W24
 BYTE   W02
 BYTE   N17
 BYTE   W18
 BYTE   Cn4
 BYTE   W18
 BYTE   N11  Dn4
 BYTE   W12
 BYTE   PATT
  POIN2 Label_6_016588CA
// 018   ----------------------------------------
 BYTE   N17  En4  v110
 BYTE   W18
 BYTE   Fs4
 BYTE   W18
 BYTE   N05  Gn4
 BYTE   W12
 BYTE   N17  Gs4
 BYTE   W18
 BYTE   An4
 BYTE   W18
 BYTE   N11  Bn4
 BYTE   W11
 BYTE   W96
// 019   ----------------------------------------
 BYTE   W96
// 020   ----------------------------------------
 BYTE   W96
// 021   ----------------------------------------
 BYTE   W96
// 022   ----------------------------------------
 BYTE   W96
// 023   ----------------------------------------
 BYTE   W96
// 024   ----------------------------------------
 BYTE   W96
// 025   ----------------------------------------
 BYTE   W96
// 026   ----------------------------------------
 BYTE   W96
// 027   ----------------------------------------
 BYTE   W96
// 028   ----------------------------------------
 BYTE   W96
// 029   ----------------------------------------
 BYTE   W96
// 030   ----------------------------------------
 BYTE   W96
// 031   ----------------------------------------
 BYTE   W96
// 032   ----------------------------------------
 BYTE   W96
// 033   ----------------------------------------
 BYTE   W96
// 034   ----------------------------------------
 BYTE   W96
// 035   ----------------------------------------
 BYTE   W96
// 036   ----------------------------------------
 BYTE   W96
// 037   ----------------------------------------
 BYTE   W96
// 038   ----------------------------------------
 BYTE   W96
// 039   ----------------------------------------
 BYTE   W96
// 040   ----------------------------------------
 BYTE   W96
// 041   ----------------------------------------
 BYTE   W96
// 042   ----------------------------------------
 BYTE   W96
// 043   ----------------------------------------
 BYTE   W96
// 044   ----------------------------------------
 BYTE   W96
// 045   ----------------------------------------
 BYTE   W96
// 046   ----------------------------------------
 BYTE   W96
// 047   ----------------------------------------
 BYTE   W96
// 048   ----------------------------------------
 BYTE   W96
// 049   ----------------------------------------
 BYTE   W96
// 050   ----------------------------------------
 BYTE   W96
// 051   ----------------------------------------
 BYTE   W96
// 052   ----------------------------------------
 BYTE   W96
// 053   ----------------------------------------
 BYTE   W96
// 054   ----------------------------------------
 BYTE   W96
// 055   ----------------------------------------
 BYTE   W96
// 056   ----------------------------------------
 BYTE   W96
// 057   ----------------------------------------
 BYTE   W96
// 058   ----------------------------------------
 BYTE   W96
// 059   ----------------------------------------
 BYTE   W96
// 060   ----------------------------------------
 BYTE   W96
// 061   ----------------------------------------
 BYTE   W96
// 062   ----------------------------------------
 BYTE   W96
// 063   ----------------------------------------
 BYTE   W96
// 064   ----------------------------------------
 BYTE   W96
// 065   ----------------------------------------
 BYTE   W96
// 066   ----------------------------------------
 BYTE   W96
// 067   ----------------------------------------
 BYTE   W96
// 068   ----------------------------------------
 BYTE   W96
// 069   ----------------------------------------
 BYTE   W96
// 070   ----------------------------------------
 BYTE   W96
// 071   ----------------------------------------
 BYTE   W96
// 072   ----------------------------------------
 BYTE   W96
// 073   ----------------------------------------
 BYTE   W96
// 074   ----------------------------------------
 BYTE   W96
// 075   ----------------------------------------
 BYTE   W96
// 076   ----------------------------------------
 BYTE   W96
// 077   ----------------------------------------
 BYTE   W96
// 078   ----------------------------------------
 BYTE   W96
// 079   ----------------------------------------
 BYTE   W96
// 080   ----------------------------------------
 BYTE   W96
// 081   ----------------------------------------
 BYTE   W96
// 082   ----------------------------------------
 BYTE   W96
// 083   ----------------------------------------
 BYTE   W96
// 084   ----------------------------------------
 BYTE   W96
// 085   ----------------------------------------
 BYTE   W96
// 086   ----------------------------------------
 BYTE   W96
// 087   ----------------------------------------
 BYTE   W96
// 088   ----------------------------------------
 BYTE   W96
// 089   ----------------------------------------
 BYTE   W96
// 090   ----------------------------------------
 BYTE   W96
// 091   ----------------------------------------
 BYTE   W96
// 092   ----------------------------------------
 BYTE   W96
// 093   ----------------------------------------
 BYTE   W96
// 094   ----------------------------------------
 BYTE   W96
// 095   ----------------------------------------
 BYTE   W96
// 096   ----------------------------------------
 BYTE   W96
// 097   ----------------------------------------
 BYTE   W96
// 098   ----------------------------------------
 BYTE   W96
// 099   ----------------------------------------
 BYTE   W96
// 100   ----------------------------------------
 BYTE   W96
// 101   ----------------------------------------
 BYTE   W96
// 102   ----------------------------------------
 BYTE   W96
// 103   ----------------------------------------
 BYTE   W90
 BYTE   GoTo
  POIN2 Label_6_016588B0
 BYTE   FINE

//******************************************************//
	ALIGN 4

GoldenSunIsaacsBattleThemeMeatOfJustice:
	BYTE	7	// NumTrks
	BYTE	0	// NumBlks
	BYTE	GoldenSunIsaacsBattleThemeMeatOfJustice_pri	// Priority
	BYTE	GoldenSunIsaacsBattleThemeMeatOfJustice_rev	// Reverb.
    
	POIN2	GoldenSunIsaacsBattleThemeMeatOfJustice_grp
    
	POIN2	GoldenSunIsaacsBattleThemeMeatOfJustice_001
	POIN2	GoldenSunIsaacsBattleThemeMeatOfJustice_002
	POIN2	GoldenSunIsaacsBattleThemeMeatOfJustice_003
	POIN2	GoldenSunIsaacsBattleThemeMeatOfJustice_004
	POIN2	GoldenSunIsaacsBattleThemeMeatOfJustice_005
	POIN2	GoldenSunIsaacsBattleThemeMeatOfJustice_006
	POIN2	GoldenSunIsaacsBattleThemeMeatOfJustice_007

	
