//Event file generated from Sappy .s format.
	#include "MPlayDef.event"

	#define	GoldenSunSaturosandMenardiBattleMrGreen3339_grp  voicegroup000
	#define	GoldenSunSaturosandMenardiBattleMrGreen3339_pri  0
	#define	GoldenSunSaturosandMenardiBattleMrGreen3339_rev  0
	#define	GoldenSunSaturosandMenardiBattleMrGreen3339_mvl  127
	#define	GoldenSunSaturosandMenardiBattleMrGreen3339_key  0
	#define	GoldenSunSaturosandMenardiBattleMrGreen3339_tbs  1
	#define	GoldenSunSaturosandMenardiBattleMrGreen3339_exg  0
	#define	GoldenSunSaturosandMenardiBattleMrGreen3339_cmp  1

	// .rodata
	//	GoldenSunSaturosandMenardiBattleMrGreen3339
	ALIGN 4


//**************** Track 1 (Midi-Chn.0) ****************//

GoldenSunSaturosandMenardiBattleMrGreen3339_001:
// 000   ----------------------------------------
 BYTE   VOL   55*GoldenSunSaturosandMenardiBattleMrGreen3339_mvl/mxv
 BYTE   KEYSH   GoldenSunSaturosandMenardiBattleMrGreen3339_key+0
 BYTE   TEMPO   140*GoldenSunSaturosandMenardiBattleMrGreen3339_tbs/2
 BYTE   VOICE   81
 BYTE   N03  Gs1  v076
 BYTE   W03
 BYTE   N03
 BYTE   W03
 BYTE   N03
 BYTE   W03
 BYTE   N03
 BYTE   W03
 BYTE   N03
 BYTE   W03
 BYTE   N03
 BYTE   W03
 BYTE   N03
 BYTE   W03
 BYTE   N03
 BYTE   W03
 BYTE   N03
 BYTE   W03
 BYTE   N03
 BYTE   W03
 BYTE   N03
 BYTE   W03
 BYTE   N03
 BYTE   W03
 BYTE   N03
 BYTE   W03
 BYTE   N03
 BYTE   W03
 BYTE   N03
 BYTE   W03
 BYTE   N03
 BYTE   W03
 BYTE   As1
 BYTE   W03
 BYTE   N03
 BYTE   W03
 BYTE   N03
 BYTE   W03
 BYTE   N03
 BYTE   W03
 BYTE   N03
 BYTE   W03
 BYTE   N03
 BYTE   W03
 BYTE   N03
 BYTE   W03
 BYTE   N03
 BYTE   W03
 BYTE   N03
 BYTE   W03
 BYTE   N03
 BYTE   W03
 BYTE   N03
 BYTE   W03
 BYTE   N03
 BYTE   W03
 BYTE   N03
 BYTE   W03
 BYTE   N03
 BYTE   W03
 BYTE   N03
 BYTE   W03
 BYTE   N03
 BYTE   W03
// 001   ----------------------------------------
Label_0_01451A7E:
 BYTE   N44  Bn2  v127
 BYTE   N44  En3
 BYTE   W48
 BYTE   N22  Dn3
 BYTE   N22  Fs3
 BYTE   W24
 BYTE   N23  En3
 BYTE   N22  Gn3
 BYTE   W24
 BYTE   PEND 
// 002   ----------------------------------------
 BYTE   N92  En3
 BYTE   N92  As3
 BYTE   W96
// 003   ----------------------------------------
Label_0_01451A94:
 BYTE   N36  En3  v127
 BYTE   N32  Bn3
 BYTE   W36
 BYTE   N11  En3
 BYTE   N11  Bn3
 BYTE   W12
 BYTE   N17  As3
 BYTE   N17  En4
 BYTE   W18
 BYTE   N16  An3
 BYTE   N17  Ds4
 BYTE   W18
 BYTE   N10  Gs3
 BYTE   N11  Dn4
 BYTE   W12
 BYTE   PEND 
// 004   ----------------------------------------
Label_0_01451AAF:
 BYTE   N44  Gn3  v127
 BYTE   N44  Cs4
 BYTE   W48
 BYTE   Cs3
 BYTE   N44  Gn3
 BYTE   W48
 BYTE   PEND 
// 005   ----------------------------------------
Label_0_01451ABA:
 BYTE   N44  Bn2  v127
 BYTE   N44  En3
 BYTE   W48
 BYTE   N17  Dn3
 BYTE   N16  Fs3
 BYTE   W18
 BYTE   N17  En3
 BYTE   N16  Gn3
 BYTE   W18
 BYTE   N11
 BYTE   N10  Dn4
 BYTE   W12
 BYTE   PEND 
// 006   ----------------------------------------
 BYTE   N92  Gn3
 BYTE   N92  Cs4
 BYTE   W96
// 007   ----------------------------------------
Label_0_01451AD4:
 BYTE   N17  As3  v127
 BYTE   N16  En4
 BYTE   W18
 BYTE   N17  An3
 BYTE   N16  Ds4
 BYTE   W18
 BYTE   N22  Gs3
 BYTE   N22  Dn4
 BYTE   W24
 BYTE   N11  Gn3
 BYTE   N11  Cs4
 BYTE   W12
 BYTE   N10  Fs3
 BYTE   N12  Cn4
 BYTE   W12
 BYTE   N11  Gn3
 BYTE   N12  Cs4
 BYTE   W12
 BYTE   PEND 
// 008   ----------------------------------------
 BYTE   N17  As3
 BYTE   N16  En4
 BYTE   W18
 BYTE   N17  An3
 BYTE   N16  Ds4
 BYTE   W18
 BYTE   N22  Gs3
 BYTE   N22  Dn4
 BYTE   W24
 BYTE   N10  Gn3
 BYTE   N11  Cs4
 BYTE   W12
 BYTE   N10  Fs3
 BYTE   N12  Cn4
 BYTE   W12
 BYTE   Fn3
 BYTE   N11  Bn3
 BYTE   W12
 BYTE   PATT
  POIN2 Label_0_01451A7E
// 009   ----------------------------------------
 BYTE   N92  En3  v127
 BYTE   N92  As3
 BYTE   W96
 BYTE   PATT
  POIN2 Label_0_01451A94
 BYTE   PATT
  POIN2 Label_0_01451AAF
 BYTE   PATT
  POIN2 Label_0_01451ABA
// 010   ----------------------------------------
 BYTE   N92  Gn3  v127
 BYTE   N92  Cs4
 BYTE   W96
 BYTE   PATT
  POIN2 Label_0_01451AD4
// 011   ----------------------------------------
 BYTE   N17  As3  v127
 BYTE   N16  En4
 BYTE   W18
 BYTE   N17  An3
 BYTE   N16  Ds4
 BYTE   W18
 BYTE   N22  Gs3
 BYTE   N22  Dn4
 BYTE   W24
 BYTE   N10  Gn3
 BYTE   N11  Cs4
 BYTE   W12
 BYTE   N10  Fs3
 BYTE   N12  Cn4
 BYTE   W12
 BYTE   N11  Bn3
 BYTE   W12
// 012   ----------------------------------------
 BYTE   N16  En3
 BYTE   W18
 BYTE   Gn3
 BYTE   W18
 BYTE   N23  As3
 BYTE   W24
 BYTE   N11  An3
 BYTE   W12
 BYTE   Gn3
 BYTE   W12
 BYTE   N10  En3
 BYTE   W12
// 013   ----------------------------------------
 BYTE   N17  Dn3
 BYTE   W18
 BYTE   Ds3
 BYTE   W18
 BYTE   N16  En3
 BYTE   W18
 BYTE   Gn3
 BYTE   W18
 BYTE   N23  As3
 BYTE   W24
// 014   ----------------------------------------
 BYTE   N11  An3
 BYTE   W12
 BYTE   Gn3
 BYTE   W12
 BYTE   N10  En3
 BYTE   W12
 BYTE   N16  Dn4
 BYTE   W18
 BYTE   N18  Cs4
 BYTE   W18
 BYTE   N16  En3
 BYTE   W18
 BYTE   Gn3
 BYTE   W06
// 015   ----------------------------------------
 BYTE   W12
 BYTE   N23  As3
 BYTE   W24
 BYTE   N11  An3
 BYTE   W12
 BYTE   Gn3
 BYTE   W12
 BYTE   N10  En3
 BYTE   W12
 BYTE   N17  Dn3
 BYTE   W18
 BYTE   Ds3
 BYTE   W06
// 016   ----------------------------------------
 BYTE   W12
 BYTE   N16  En3
 BYTE   W18
 BYTE   Gn3
 BYTE   W18
 BYTE   N23  As3
 BYTE   W24
 BYTE   N11  An3
 BYTE   W12
 BYTE   Gn3
 BYTE   W12
// 017   ----------------------------------------
 BYTE   N10  En3
 BYTE   W12
 BYTE   N17  Fs3
 BYTE   W18
 BYTE   An3
 BYTE   W18
 BYTE   N23  Cs4
 BYTE   W24
 BYTE   N11  Bn3
 BYTE   W12
 BYTE   N10  An3
 BYTE   W12
// 018   ----------------------------------------
 BYTE   N11  Gs3
 BYTE   W12
 BYTE   N17  An3
 BYTE   W18
 BYTE   N16  Bn3
 BYTE   W18
 BYTE   N22  Cn4
 BYTE   W24
 BYTE   N11  En4
 BYTE   W12
 BYTE   Dn4
 BYTE   W12
// 019   ----------------------------------------
 BYTE   Cn4
 BYTE   W12
 BYTE   N06  Bn3
 BYTE   W06
 BYTE   Cn4
 BYTE   W06
 BYTE   N32  Dn4
 BYTE   W36
 BYTE   N16  Gn4
 BYTE   W18
 BYTE   N17  Fn4
 BYTE   W18
// 020   ----------------------------------------
 BYTE   N12  En4
 BYTE   W12
 BYTE   N03  Fn4
 BYTE   W06
 BYTE   N04  En4
 BYTE   W06
 BYTE   Bn3
 BYTE   W06
 BYTE   N03  Fn3
 BYTE   W06
 BYTE   N04  Bn3
 BYTE   W06
 BYTE   N03  En4
 BYTE   W06
 BYTE   Fn4
 BYTE   W06
 BYTE   N04  En4
 BYTE   W06
 BYTE   Bn3
 BYTE   W06
 BYTE   N03  Fn3
 BYTE   W06
 BYTE   N04  Bn3
 BYTE   W06
 BYTE   N03  En4
 BYTE   W06
 BYTE   Fn4
 BYTE   W06
 BYTE   N04  En4
 BYTE   W06
// 021   ----------------------------------------
 BYTE   Bn3
 BYTE   W06
 BYTE   N03  Fn3
 BYTE   W06
 BYTE   Fs4
 BYTE   W06
 BYTE   N04  Fn4
 BYTE   W06
 BYTE   Cn4
 BYTE   W06
 BYTE   N03  Fs3
 BYTE   W06
 BYTE   N04  Cn4
 BYTE   W06
 BYTE   N03  Fn4
 BYTE   W06
 BYTE   Fs4
 BYTE   W06
 BYTE   N04  Fn4
 BYTE   W06
 BYTE   Cn4
 BYTE   W06
 BYTE   N03  Fs3
 BYTE   W06
 BYTE   N04  Cn4
 BYTE   W06
 BYTE   N03  Fn4
 BYTE   W06
 BYTE   Fs4
 BYTE   W06
 BYTE   N04  Fn4
 BYTE   W06
// 022   ----------------------------------------
 BYTE   Cn4
 BYTE   W06
 BYTE   N03  Fs3
 BYTE   W06
 BYTE   N15  Dn3
 BYTE   N16  Gn3
 BYTE   W18
 BYTE   N15
 BYTE   N16  As3
 BYTE   W18
 BYTE   N11  Dn4
 BYTE   N11  Fn4
 BYTE   W12
 BYTE   N23  Cs4
 BYTE   N23  En4
 BYTE   W24
 BYTE   N16  Dn3
 BYTE   N17  Gn3
 BYTE   W12
// 023   ----------------------------------------
 BYTE   W06
 BYTE   N16
 BYTE   N16  As3
 BYTE   W18
 BYTE   N11  Cn4
 BYTE   N10  Ds4
 BYTE   W12
 BYTE   N22  Bn3
 BYTE   N23  Dn4
 BYTE   W24
 BYTE   N18  As3
 BYTE   N16  Cs4
 BYTE   W18
 BYTE   N17  An3
 BYTE   N16  Cn4
 BYTE   W18
// 024   ----------------------------------------
 BYTE   N22  Gs3
 BYTE   N24  Bn3
 BYTE   W24
 BYTE   N12  Gn3
 BYTE   N11  As3
 BYTE   W12
 BYTE   Fs3
 BYTE   N10  An3
 BYTE   W12
 BYTE   N11  Gn3
 BYTE   N10  As3
 BYTE   W12
 BYTE   N16
 BYTE   N16  Cs4
 BYTE   W18
 BYTE   An3
 BYTE   N16  Cn4
 BYTE   W18
// 025   ----------------------------------------
 BYTE   N23  Gs3
 BYTE   N24  Bn3
 BYTE   W24
 BYTE   N10  Gn3
 BYTE   N11  As3
 BYTE   W12
 BYTE   N10  Fs3
 BYTE   N10  An3
 BYTE   W12
 BYTE   N11  Fn3
 BYTE   N11  Gs3
 BYTE   W12
 BYTE   N44  Bn2
 BYTE   N44  En3
 BYTE   W36
// 026   ----------------------------------------
 BYTE   W12
 BYTE   N22  Dn3
 BYTE   N22  Fs3
 BYTE   W24
 BYTE   N23  En3
 BYTE   N22  Gn3
 BYTE   W24
 BYTE   N92  En3
 BYTE   N92  As3
 BYTE   W36
// 027   ----------------------------------------
 BYTE   W60
 BYTE   N36  En3
 BYTE   N32  Bn3
 BYTE   W36
// 028   ----------------------------------------
 BYTE   N11  En3
 BYTE   N11  Bn3
 BYTE   W12
 BYTE   N17  As3
 BYTE   N17  En4
 BYTE   W18
 BYTE   N16  An3
 BYTE   N17  Ds4
 BYTE   W18
 BYTE   N10  Gs3
 BYTE   N11  Dn4
 BYTE   W12
 BYTE   N44  Gn3
 BYTE   N44  Cs4
 BYTE   W36
// 029   ----------------------------------------
 BYTE   W12
 BYTE   Cs3
 BYTE   N44  Gn3
 BYTE   W48
 BYTE   Bn2
 BYTE   N44  En3
 BYTE   W36
// 030   ----------------------------------------
 BYTE   W12
 BYTE   N17  Dn3
 BYTE   N16  Fs3
 BYTE   W18
 BYTE   N17  En3
 BYTE   N16  Gn3
 BYTE   W18
 BYTE   N11
 BYTE   N10  Dn4
 BYTE   W12
 BYTE   N92  Gn3
 BYTE   N92  Cs4
 BYTE   W36
// 031   ----------------------------------------
 BYTE   W60
 BYTE   N17  As3
 BYTE   N16  En4
 BYTE   W18
 BYTE   N17  An3
 BYTE   N16  Ds4
 BYTE   W18
// 032   ----------------------------------------
 BYTE   N22  Gs3
 BYTE   N22  Dn4
 BYTE   W24
 BYTE   N11  Gn3
 BYTE   N11  Cs4
 BYTE   W12
 BYTE   N10  Fs3
 BYTE   N12  Cn4
 BYTE   W12
 BYTE   N11  Gn3
 BYTE   N12  Cs4
 BYTE   W12
 BYTE   N17  As3
 BYTE   N16  En4
 BYTE   W18
 BYTE   N17  An3
 BYTE   N16  Ds4
 BYTE   W18
// 033   ----------------------------------------
 BYTE   N22  Gs3
 BYTE   N22  Dn4
 BYTE   W24
 BYTE   N10  Gn3
 BYTE   N11  Cs4
 BYTE   W12
 BYTE   N10  Fs3
 BYTE   N12  Cn4
 BYTE   W12
 BYTE   N10  Fn3
 BYTE   N11  Bn3
 BYTE   W12
 BYTE   N17  An3
 BYTE   W18
 BYTE   N16  Cn4
 BYTE   W18
// 034   ----------------------------------------
 BYTE   N11  En4
 BYTE   W12
 BYTE   N12  Dn4
 BYTE   W12
 BYTE   N10  Bn3
 BYTE   W12
 BYTE   Cn4
 BYTE   W12
 BYTE   N12  Gn4
 BYTE   W12
 BYTE   N11  En4
 BYTE   W12
 BYTE   N06  Fn4
 BYTE   W06
 BYTE   N10  Dn4
 BYTE   W12
 BYTE   En4
 BYTE   W06
// 035   ----------------------------------------
 BYTE   W06
 BYTE   N06  Cn4
 BYTE   W06
 BYTE   N12  Dn4
 BYTE   W12
 BYTE   N17  An3
 BYTE   W18
 BYTE   N16  Cn4
 BYTE   W18
 BYTE   N11  En4
 BYTE   W12
 BYTE   N12  Dn4
 BYTE   W12
 BYTE   N10  Bn3
 BYTE   W12
// 036   ----------------------------------------
 BYTE   Cn4
 BYTE   W12
 BYTE   N11  An4
 BYTE   W12
 BYTE   Fs4
 BYTE   W12
 BYTE   N06  Gn4
 BYTE   W06
 BYTE   N11  En4
 BYTE   W12
 BYTE   N10  Fs4
 BYTE   W12
 BYTE   N06  Dn4
 BYTE   W06
 BYTE   N11  En4
 BYTE   W12
 BYTE   N17  An3
 BYTE   W12
// 037   ----------------------------------------
 BYTE   W06
 BYTE   N16  Cn4
 BYTE   W18
 BYTE   N11  En4
 BYTE   W12
 BYTE   N12  Dn4
 BYTE   W12
 BYTE   N10  Bn3
 BYTE   W12
 BYTE   Cn4
 BYTE   W12
 BYTE   N12  Gn4
 BYTE   W12
 BYTE   N11  En4
 BYTE   W12
// 038   ----------------------------------------
 BYTE   N06  Fn4
 BYTE   W06
 BYTE   N10  Dn4
 BYTE   W12
 BYTE   En4
 BYTE   W12
 BYTE   N06  Cn4
 BYTE   W06
 BYTE   N12  Dn4
 BYTE   W12
 BYTE   N17  An3
 BYTE   W18
 BYTE   N16  Cn4
 BYTE   W18
 BYTE   N11  En4
 BYTE   W12
// 039   ----------------------------------------
 BYTE   N12  Dn4
 BYTE   W12
 BYTE   N10  Bn3
 BYTE   W12
 BYTE   Cn4
 BYTE   W12
 BYTE   N11  An4
 BYTE   W12
 BYTE   Fs4
 BYTE   W12
 BYTE   N06  Gn4
 BYTE   W06
 BYTE   N11  En4
 BYTE   W12
 BYTE   N10  Fs4
 BYTE   W12
 BYTE   N06  Dn4
 BYTE   W06
// 040   ----------------------------------------
 BYTE   N11  En4
 BYTE   W12
 BYTE   N06  Bn3
 BYTE   N06  Ds4
 BYTE   W06
 BYTE   Bn3
 BYTE   N06  Ds4
 BYTE   W06
 BYTE   Fs3
 BYTE   N06  Bn3
 BYTE   W06
 BYTE   Fs3
 BYTE   N06  Bn3
 BYTE   W06
 BYTE   N06
 BYTE   N06  Ds4
 BYTE   N06  Gn4
 BYTE   W06
 BYTE   Fs3
 BYTE   N06  Bn3
 BYTE   W06
 BYTE   Fs3
 BYTE   N06  Bn3
 BYTE   W06
 BYTE   Fs4
 BYTE   N06  An4
 BYTE   W06
 BYTE   Fs4
 BYTE   N06  An4
 BYTE   W06
 BYTE   En4
 BYTE   N06  Gn4
 BYTE   W06
 BYTE   Bn3
 BYTE   N06  Ds4
 BYTE   N06  Fs4
 BYTE   W06
 BYTE   Bn3
 BYTE   N06  Ds4
 BYTE   N06  Fs4
 BYTE   W06
 BYTE   Fs3
 BYTE   N06  Bn3
 BYTE   W06
 BYTE   Fs3
 BYTE   N06  Bn3
 BYTE   W06
// 041   ----------------------------------------
 BYTE   N06
 BYTE   N06  Ds4
 BYTE   W06
 BYTE   Bn3
 BYTE   N06  Ds4
 BYTE   W06
 BYTE   Fs3
 BYTE   N06  Bn3
 BYTE   W06
 BYTE   Fs3
 BYTE   N06  Bn3
 BYTE   W06
 BYTE   N06
 BYTE   N06  Ds4
 BYTE   N06  Gn4
 BYTE   W06
 BYTE   Fs3
 BYTE   N06  Bn3
 BYTE   W06
 BYTE   Fs3
 BYTE   N06  Bn3
 BYTE   W06
 BYTE   Fs4
 BYTE   N06  An4
 BYTE   W06
 BYTE   Fs4
 BYTE   N06  An4
 BYTE   W06
 BYTE   En4
 BYTE   N06  Gn4
 BYTE   W06
 BYTE   Bn3
 BYTE   N06  Ds4
 BYTE   N06  Fs4
 BYTE   W06
 BYTE   Bn3
 BYTE   N06  Ds4
 BYTE   N06  Fs4
 BYTE   W06
 BYTE   Fs3
 BYTE   N06  Bn3
 BYTE   W06
 BYTE   Fs3
 BYTE   N06  Bn3
 BYTE   W06
 BYTE   Cn4
 BYTE   N06  En4
 BYTE   W06
 BYTE   Cn4
 BYTE   N06  En4
 BYTE   W06
// 042   ----------------------------------------
 BYTE   Gn3
 BYTE   N06  Cn4
 BYTE   W06
 BYTE   Gn3
 BYTE   N06  Cn4
 BYTE   W06
 BYTE   N06
 BYTE   N06  En4
 BYTE   N06  Gn4
 BYTE   W06
 BYTE   Gn3
 BYTE   N06  Cn4
 BYTE   W06
 BYTE   Gn3
 BYTE   N06  Cn4
 BYTE   W06
 BYTE   Gn4
 BYTE   N06  Bn4
 BYTE   W06
 BYTE   Gn4
 BYTE   N06  Bn4
 BYTE   W06
 BYTE   Fn4
 BYTE   N06  An4
 BYTE   W06
 BYTE   Cn4
 BYTE   N06  En4
 BYTE   N06  Gn4
 BYTE   W06
 BYTE   Cn4
 BYTE   N06  En4
 BYTE   N06  Gn4
 BYTE   W06
 BYTE   Gn3
 BYTE   N06  Cn4
 BYTE   W06
 BYTE   Gn3
 BYTE   N06  Cn4
 BYTE   W06
 BYTE   N06
 BYTE   N06  En4
 BYTE   W06
 BYTE   Cn4
 BYTE   N06  En4
 BYTE   W06
 BYTE   Gn3
 BYTE   N06  Cn4
 BYTE   W06
 BYTE   Gn3
 BYTE   N06  Cn4
 BYTE   W06
// 043   ----------------------------------------
 BYTE   N06
 BYTE   N06  En4
 BYTE   N06  Gn4
 BYTE   W06
 BYTE   Gn3
 BYTE   N06  Cn4
 BYTE   W06
 BYTE   Gn3
 BYTE   N06  Cn4
 BYTE   W06
 BYTE   Gn4
 BYTE   N06  Bn4
 BYTE   W06
 BYTE   Gn4
 BYTE   N06  Bn4
 BYTE   W06
 BYTE   Fn4
 BYTE   N06  An4
 BYTE   W06
 BYTE   Cn4
 BYTE   N06  En4
 BYTE   N06  Gn4
 BYTE   W06
 BYTE   Cn4
 BYTE   N06  En4
 BYTE   N06  Gn4
 BYTE   W06
 BYTE   Gn3
 BYTE   N06  Cn4
 BYTE   W06
 BYTE   Gn3
 BYTE   N06  Cn4
 BYTE   W06
 BYTE   Bn3
 BYTE   N06  Ds4
 BYTE   W06
 BYTE   Bn3
 BYTE   N06  Ds4
 BYTE   W06
 BYTE   Fs3
 BYTE   N06  Bn3
 BYTE   W06
 BYTE   Fs3
 BYTE   N06  Bn3
 BYTE   W06
 BYTE   N06
 BYTE   N06  Ds4
 BYTE   N06  Gn4
 BYTE   W06
 BYTE   Fs3
 BYTE   N06  Bn3
 BYTE   W06
// 044   ----------------------------------------
 BYTE   Fs3
 BYTE   N06  Bn3
 BYTE   W06
 BYTE   Fs4
 BYTE   N06  An4
 BYTE   W06
 BYTE   Fs4
 BYTE   N06  An4
 BYTE   W06
 BYTE   En4
 BYTE   N06  Gn4
 BYTE   W06
 BYTE   Bn3
 BYTE   N06  Ds4
 BYTE   N06  Fs4
 BYTE   W06
 BYTE   Bn3
 BYTE   N06  Ds4
 BYTE   N06  Fs4
 BYTE   W06
 BYTE   Fs3
 BYTE   N06  Bn3
 BYTE   W06
 BYTE   Fs3
 BYTE   N06  Bn3
 BYTE   W06
 BYTE   N06
 BYTE   N06  Ds4
 BYTE   W06
 BYTE   Bn3
 BYTE   N06  Ds4
 BYTE   W06
 BYTE   Fs3
 BYTE   N06  Bn3
 BYTE   W06
 BYTE   Fs3
 BYTE   N06  Bn3
 BYTE   W06
 BYTE   N06
 BYTE   N06  Ds4
 BYTE   N06  Gn4
 BYTE   W06
 BYTE   Fs3
 BYTE   N06  Bn3
 BYTE   W06
 BYTE   Fs3
 BYTE   N06  Bn3
 BYTE   W06
 BYTE   Fs4
 BYTE   N06  An4
 BYTE   W06
// 045   ----------------------------------------
 BYTE   Fs4
 BYTE   N06  An4
 BYTE   W06
 BYTE   En4
 BYTE   N06  Gn4
 BYTE   W06
 BYTE   Bn3
 BYTE   N06  Ds4
 BYTE   N06  Fs4
 BYTE   W06
 BYTE   Bn3
 BYTE   N06  Ds4
 BYTE   N06  Fs4
 BYTE   W06
 BYTE   Fs3
 BYTE   N06  Bn3
 BYTE   W06
 BYTE   Fs3
 BYTE   N06  Bn3
 BYTE   W06
 BYTE   Cn4
 BYTE   N06  En4
 BYTE   W06
 BYTE   Cn4
 BYTE   N06  En4
 BYTE   W06
 BYTE   Gn3
 BYTE   N06  Cn4
 BYTE   W06
 BYTE   Gn3
 BYTE   N06  Cn4
 BYTE   W06
 BYTE   N06
 BYTE   N06  En4
 BYTE   N06  Gn4
 BYTE   W06
 BYTE   Gn3
 BYTE   N06  Cn4
 BYTE   W06
 BYTE   Gn3
 BYTE   N06  Cn4
 BYTE   W06
 BYTE   Gn4
 BYTE   N06  Bn4
 BYTE   W06
 BYTE   Gn4
 BYTE   N06  Bn4
 BYTE   W06
 BYTE   Fn4
 BYTE   N06  An4
 BYTE   W06
// 046   ----------------------------------------
 BYTE   Cn4
 BYTE   N06  En4
 BYTE   N06  Gn4
 BYTE   W06
 BYTE   Cn4
 BYTE   N06  En4
 BYTE   N06  Gn4
 BYTE   W06
 BYTE   Gn3
 BYTE   N06  Cn4
 BYTE   W06
 BYTE   Gn3
 BYTE   N06  Cn4
 BYTE   W06
 BYTE   N06
 BYTE   N06  En4
 BYTE   W06
 BYTE   Cn4
 BYTE   N06  En4
 BYTE   W06
 BYTE   Gn3
 BYTE   N06  Cn4
 BYTE   W06
 BYTE   Gn3
 BYTE   N06  Cn4
 BYTE   W06
 BYTE   N06
 BYTE   N06  En4
 BYTE   N06  Gn4
 BYTE   W06
 BYTE   Gn3
 BYTE   N06  Cn4
 BYTE   W06
 BYTE   Gn3
 BYTE   N06  Cn4
 BYTE   W06
 BYTE   Gn4
 BYTE   N06  Bn4
 BYTE   W06
 BYTE   Gn4
 BYTE   N06  Bn4
 BYTE   W06
 BYTE   Fn4
 BYTE   N06  An4
 BYTE   W06
 BYTE   Cn4
 BYTE   N06  En4
 BYTE   N06  Gn4
 BYTE   W06
 BYTE   Cn4
 BYTE   N06  En4
 BYTE   N06  Gn4
 BYTE   W06
// 047   ----------------------------------------
 BYTE   Gn3
 BYTE   N06  Cn4
 BYTE   W06
 BYTE   Gn3
 BYTE   N06  Cn4
 BYTE   W06
 BYTE   N03  Bn4
 BYTE   W06
 BYTE   N04  An4
 BYTE   W06
 BYTE   Gn4
 BYTE   W06
 BYTE   N03  Fs4
 BYTE   W06
 BYTE   N04  En4
 BYTE   W06
 BYTE   Ds4
 BYTE   W06
 BYTE   Dn4
 BYTE   W06
 BYTE   N03  Bn3
 BYTE   W06
 BYTE   An3
 BYTE   W06
 BYTE   N04  En4
 BYTE   W06
 BYTE   Ds4
 BYTE   W06
 BYTE   Cn4
 BYTE   W06
 BYTE   Bn3
 BYTE   W06
 BYTE   An3
 BYTE   W06
// 048   ----------------------------------------
 BYTE   N05  Gn3
 BYTE   W06
 BYTE   N04  Fs3
 BYTE   W06
 BYTE   N44  Bn2
 BYTE   N44  En3
 BYTE   W48
 BYTE   N22  Dn3
 BYTE   N22  Fs3
 BYTE   W24
 BYTE   N23  En3
 BYTE   N22  Gn3
 BYTE   W12
// 049   ----------------------------------------
 BYTE   W12
 BYTE   N92  En3
 BYTE   N92  As3
 BYTE   W84
// 050   ----------------------------------------
 BYTE   W12
 BYTE   N36  En3
 BYTE   N32  Bn3
 BYTE   W36
 BYTE   N11  En3
 BYTE   N11  Bn3
 BYTE   W12
 BYTE   N17  As3
 BYTE   N17  En4
 BYTE   W18
 BYTE   N16  An3
 BYTE   N17  Ds4
 BYTE   W18
// 051   ----------------------------------------
 BYTE   N10  Gs3
 BYTE   N11  Dn4
 BYTE   W12
 BYTE   N44  Gn3
 BYTE   N44  Cs4
 BYTE   W48
 BYTE   Cs3
 BYTE   N44  Gn3
 BYTE   W36
// 052   ----------------------------------------
 BYTE   W12
 BYTE   Bn2
 BYTE   N44  En3
 BYTE   W48
 BYTE   N17  Dn3
 BYTE   N16  Fs3
 BYTE   W18
 BYTE   N17  En3
 BYTE   N16  Gn3
 BYTE   W18
// 053   ----------------------------------------
 BYTE   N11
 BYTE   N10  Dn4
 BYTE   W12
 BYTE   N92  Gn3
 BYTE   N92  Cs4
 BYTE   W84
// 054   ----------------------------------------
 BYTE   W96
// 055   ----------------------------------------
 BYTE   GoTo
  POIN2 Label_0_01451AD4
 BYTE   FINE

//**************** Track 2 (Midi-Chn.1) ****************//

GoldenSunSaturosandMenardiBattleMrGreen3339_002:
// 000   ----------------------------------------
 BYTE   VOL   55*GoldenSunSaturosandMenardiBattleMrGreen3339_mvl/mxv
 BYTE   KEYSH   GoldenSunSaturosandMenardiBattleMrGreen3339_key+0
 BYTE   VOICE   33
 BYTE   N96  Dn0  v127
 BYTE   W96
// 001   ----------------------------------------
Label_1_0145202A:
 BYTE   N11  En0  v127
 BYTE   W12
 BYTE   N11
 BYTE   W12
 BYTE   En1
 BYTE   W12
 BYTE   N06  En0
 BYTE   W06
 BYTE   N18  Dn1
 BYTE   W18
 BYTE   N11  En1
 BYTE   W12
 BYTE   N10  En0
 BYTE   W12
 BYTE   N06
 BYTE   W06
 BYTE   N06
 BYTE   W06
 BYTE   PEND 
 BYTE   PATT
  POIN2 Label_1_0145202A
// 002   ----------------------------------------
Label_1_01452048:
 BYTE   N11  En0  v127
 BYTE   W12
 BYTE   N11
 BYTE   W12
 BYTE   En1
 BYTE   W12
 BYTE   N06  En0
 BYTE   W06
 BYTE   N18  Dn1
 BYTE   W18
 BYTE   N11  En1
 BYTE   W12
 BYTE   N06  En0
 BYTE   W06
 BYTE   Fs0
 BYTE   W06
 BYTE   Gn0
 BYTE   W06
 BYTE   N06
 BYTE   W06
 BYTE   PEND 
// 003   ----------------------------------------
Label_1_01452063:
 BYTE   N11  En0  v127
 BYTE   W12
 BYTE   N11
 BYTE   W12
 BYTE   En1
 BYTE   W12
 BYTE   N06  En0
 BYTE   W06
 BYTE   N18  Dn1
 BYTE   W18
 BYTE   N11  En1
 BYTE   W12
 BYTE   N06  Dn1
 BYTE   W06
 BYTE   En1
 BYTE   W06
 BYTE   Fs1
 BYTE   W06
 BYTE   Gn1
 BYTE   W06
 BYTE   PEND 
 BYTE   PATT
  POIN2 Label_1_01452048
// 004   ----------------------------------------
Label_1_01452083:
 BYTE   N16  As0  v127
 BYTE   W18
 BYTE   Bn0
 BYTE   W18
 BYTE   N11  En0
 BYTE   W12
 BYTE   N16  Cs1
 BYTE   W18
 BYTE   Dn1
 BYTE   W18
 BYTE   N11  Ds1
 BYTE   W12
 BYTE   PEND 
// 005   ----------------------------------------
Label_1_01452095:
 BYTE   N17  En1  v127
 BYTE   W18
 BYTE   N16  Ds1
 BYTE   W18
 BYTE   N22  Dn1
 BYTE   W24
 BYTE   N10  Cs1
 BYTE   W12
 BYTE   N11  Cn1
 BYTE   W12
 BYTE   Cs1
 BYTE   W12
 BYTE   PEND 
// 006   ----------------------------------------
Label_1_014520A8:
 BYTE   N18  As0  v127
 BYTE   W18
 BYTE   An0
 BYTE   W18
 BYTE   N24  Gs0
 BYTE   W24
 BYTE   N11  Gn0
 BYTE   W12
 BYTE   N10  Fs0
 BYTE   W12
 BYTE   Fn0
 BYTE   W12
 BYTE   PEND 
 BYTE   PATT
  POIN2 Label_1_0145202A
 BYTE   PATT
  POIN2 Label_1_0145202A
 BYTE   PATT
  POIN2 Label_1_01452048
 BYTE   PATT
  POIN2 Label_1_01452063
 BYTE   PATT
  POIN2 Label_1_01452048
 BYTE   PATT
  POIN2 Label_1_01452083
 BYTE   PATT
  POIN2 Label_1_01452095
 BYTE   PATT
  POIN2 Label_1_014520A8
// 007   ----------------------------------------
 BYTE   N12  En0  v127
 BYTE   W12
 BYTE   N06
 BYTE   W06
 BYTE   N12  En1
 BYTE   W12
 BYTE   N06  En0
 BYTE   W06
 BYTE   N11  Dn1
 BYTE   W12
 BYTE   N06  En0
 BYTE   W06
 BYTE   N11  En1
 BYTE   W12
 BYTE   N06  En0
 BYTE   W06
 BYTE   N12  An0
 BYTE   W12
 BYTE   N11  As0
 BYTE   W12
// 008   ----------------------------------------
 BYTE   N12  Dn1
 BYTE   W12
 BYTE   N06  En0
 BYTE   W06
 BYTE   N16  Ds1
 BYTE   W18
 BYTE   N11  En0
 BYTE   W12
 BYTE   As0
 BYTE   W12
 BYTE   An0
 BYTE   W12
 BYTE   N10  Gs0
 BYTE   W12
 BYTE   N11  Gn0
 BYTE   W12
// 009   ----------------------------------------
 BYTE   N10  Fs0
 BYTE   W12
 BYTE   N11  Fn0
 BYTE   W12
 BYTE   En0
 BYTE   W12
 BYTE   N06  Dn1
 BYTE   W06
 BYTE   An1
 BYTE   W06
 BYTE   Dn2
 BYTE   W06
 BYTE   Cs1
 BYTE   W06
 BYTE   Gs1
 BYTE   W06
 BYTE   Cs2
 BYTE   W06
 BYTE   N12  En0
 BYTE   W12
 BYTE   N06
 BYTE   W06
 BYTE   N12  En1
 BYTE   W06
// 010   ----------------------------------------
 BYTE   W06
 BYTE   N06  En0
 BYTE   W06
 BYTE   N11  Dn1
 BYTE   W12
 BYTE   N06  En0
 BYTE   W06
 BYTE   N11  En1
 BYTE   W12
 BYTE   N06  En0
 BYTE   W06
 BYTE   N12  An0
 BYTE   W12
 BYTE   N11  As0
 BYTE   W12
 BYTE   N12  Dn1
 BYTE   W12
 BYTE   N06  En0
 BYTE   W06
 BYTE   N16  Ds1
 BYTE   W06
// 011   ----------------------------------------
 BYTE   W12
 BYTE   N11  En0
 BYTE   W12
 BYTE   As0
 BYTE   W12
 BYTE   An0
 BYTE   W12
 BYTE   N10  Gs0
 BYTE   W12
 BYTE   N11  Gn0
 BYTE   W12
 BYTE   N10  Fs0
 BYTE   W12
 BYTE   N11  Fn0
 BYTE   W12
// 012   ----------------------------------------
 BYTE   En0
 BYTE   W12
 BYTE   Fs0
 BYTE   W12
 BYTE   N06
 BYTE   W06
 BYTE   N12  Fs1
 BYTE   W12
 BYTE   N06  Fs0
 BYTE   W06
 BYTE   N11  En1
 BYTE   W12
 BYTE   N06  Fs0
 BYTE   W06
 BYTE   N16  Fs1
 BYTE   W18
 BYTE   N06  Bn0
 BYTE   W06
 BYTE   Cn1
 BYTE   W06
// 013   ----------------------------------------
 BYTE   Bn0
 BYTE   W06
 BYTE   As0
 BYTE   W06
 BYTE   An0
 BYTE   W06
 BYTE   N06
 BYTE   W06
 BYTE   N06
 BYTE   W06
 BYTE   N06
 BYTE   W06
 BYTE   N06
 BYTE   W06
 BYTE   N06
 BYTE   W06
 BYTE   N06
 BYTE   W06
 BYTE   N06
 BYTE   W06
 BYTE   N06
 BYTE   W06
 BYTE   N06
 BYTE   W06
 BYTE   N06
 BYTE   W06
 BYTE   N06
 BYTE   W06
 BYTE   N06
 BYTE   W06
 BYTE   N06
 BYTE   W06
// 014   ----------------------------------------
 BYTE   N06
 BYTE   W06
 BYTE   N06
 BYTE   W06
 BYTE   Gn0
 BYTE   W06
 BYTE   N06
 BYTE   W06
 BYTE   N06
 BYTE   W06
 BYTE   N06
 BYTE   W06
 BYTE   N06
 BYTE   W06
 BYTE   N06
 BYTE   W06
 BYTE   N06
 BYTE   W06
 BYTE   N06
 BYTE   W06
 BYTE   N06
 BYTE   W06
 BYTE   N06
 BYTE   W06
 BYTE   N06
 BYTE   W06
 BYTE   N06
 BYTE   W06
 BYTE   N06
 BYTE   W06
 BYTE   N06
 BYTE   W06
// 015   ----------------------------------------
 BYTE   N06
 BYTE   W06
 BYTE   N06
 BYTE   W06
 BYTE   N16  Fn0
 BYTE   W18
 BYTE   N17  Bn0
 BYTE   W18
 BYTE   N11  Fn1
 BYTE   W12
 BYTE   N44  En1
 BYTE   W36
// 016   ----------------------------------------
 BYTE   W12
 BYTE   N15  Fs0
 BYTE   W18
 BYTE   N16  Cn1
 BYTE   W18
 BYTE   N12  Fs1
 BYTE   W12
 BYTE   N44  Fn1
 BYTE   W36
// 017   ----------------------------------------
 BYTE   W12
 BYTE   N12  Gn0
 BYTE   W12
 BYTE   N11
 BYTE   W12
 BYTE   N06
 BYTE   W06
 BYTE   N12
 BYTE   W12
 BYTE   N06
 BYTE   W06
 BYTE   N12
 BYTE   W12
 BYTE   N06  Gn1
 BYTE   W06
 BYTE   Gn0
 BYTE   W06
 BYTE   N12
 BYTE   W12
// 018   ----------------------------------------
 BYTE   N11
 BYTE   W12
 BYTE   N06
 BYTE   W06
 BYTE   N12
 BYTE   W12
 BYTE   N06
 BYTE   W06
 BYTE   N12
 BYTE   W12
 BYTE   N06  Gn1
 BYTE   W06
 BYTE   Gn0
 BYTE   W06
 BYTE   N17
 BYTE   W18
 BYTE   Fs0
 BYTE   W18
// 019   ----------------------------------------
 BYTE   N23  Fn0
 BYTE   W24
 BYTE   N11  En0
 BYTE   W12
 BYTE   Ds0
 BYTE   W12
 BYTE   En0
 BYTE   W12
 BYTE   N06  Gn0
 BYTE   W06
 BYTE   N11  Gn1
 BYTE   W12
 BYTE   N06  Gs0
 BYTE   W06
 BYTE   N10  Gs1
 BYTE   W12
// 020   ----------------------------------------
 BYTE   N06  An0
 BYTE   W06
 BYTE   N10  An1
 BYTE   W12
 BYTE   N06  As0
 BYTE   W06
 BYTE   N10  As1
 BYTE   W12
 BYTE   N06  Bn0
 BYTE   W06
 BYTE   Bn1
 BYTE   W06
 BYTE   Cn1
 BYTE   W06
 BYTE   Cn2
 BYTE   W06
 BYTE   N11  En0
 BYTE   W12
 BYTE   N11
 BYTE   W12
 BYTE   En1
 BYTE   W12
// 021   ----------------------------------------
Label_1_01452237:
 BYTE   N06  En0  v127
 BYTE   W06
 BYTE   N18  Dn1
 BYTE   W18
 BYTE   N11  En1
 BYTE   W12
 BYTE   N10  En0
 BYTE   W12
 BYTE   N06
 BYTE   W06
 BYTE   N06
 BYTE   W06
 BYTE   N11
 BYTE   W12
 BYTE   N11
 BYTE   W12
 BYTE   En1
 BYTE   W12
 BYTE   PEND 
 BYTE   PATT
  POIN2 Label_1_01452237
// 022   ----------------------------------------
 BYTE   N06  En0  v127
 BYTE   W06
 BYTE   N18  Dn1
 BYTE   W18
 BYTE   N11  En1
 BYTE   W12
 BYTE   N06  En0
 BYTE   W06
 BYTE   Fs0
 BYTE   W06
 BYTE   Gn0
 BYTE   W06
 BYTE   N06
 BYTE   W06
 BYTE   N11  En0
 BYTE   W12
 BYTE   N11
 BYTE   W12
 BYTE   En1
 BYTE   W12
// 023   ----------------------------------------
 BYTE   N06  En0
 BYTE   W06
 BYTE   N18  Dn1
 BYTE   W18
 BYTE   N11  En1
 BYTE   W12
 BYTE   N06  Dn1
 BYTE   W06
 BYTE   En1
 BYTE   W06
 BYTE   Fs1
 BYTE   W06
 BYTE   Gn1
 BYTE   W06
 BYTE   N11  En0
 BYTE   W12
 BYTE   N11
 BYTE   W12
 BYTE   En1
 BYTE   W12
// 024   ----------------------------------------
 BYTE   N06  En0
 BYTE   W06
 BYTE   N18  Dn1
 BYTE   W18
 BYTE   N11  En1
 BYTE   W12
 BYTE   N06  En0
 BYTE   W06
 BYTE   Fs0
 BYTE   W06
 BYTE   Gn0
 BYTE   W06
 BYTE   N06
 BYTE   W06
 BYTE   N16  As0
 BYTE   W18
 BYTE   Bn0
 BYTE   W18
// 025   ----------------------------------------
 BYTE   N11  En0
 BYTE   W12
 BYTE   N16  Cs1
 BYTE   W18
 BYTE   Dn1
 BYTE   W18
 BYTE   N11  Ds1
 BYTE   W12
 BYTE   N17  En1
 BYTE   W18
 BYTE   N16  Ds1
 BYTE   W18
// 026   ----------------------------------------
 BYTE   N22  Dn1
 BYTE   W24
 BYTE   N10  Cs1
 BYTE   W12
 BYTE   N11  Cn1
 BYTE   W12
 BYTE   Cs1
 BYTE   W12
 BYTE   N18  As0
 BYTE   W18
 BYTE   An0
 BYTE   W18
// 027   ----------------------------------------
 BYTE   N24  Gs0
 BYTE   W24
 BYTE   N11  Gn0
 BYTE   W12
 BYTE   N10  Fs0
 BYTE   W12
 BYTE   Fn0
 BYTE   W12
 BYTE   N06  An0
 BYTE   W06
 BYTE   N06
 BYTE   W06
 BYTE   Gn0
 BYTE   W06
 BYTE   N06
 BYTE   W06
 BYTE   An0
 BYTE   W06
 BYTE   N06
 BYTE   W06
// 028   ----------------------------------------
 BYTE   Gn0
 BYTE   W06
 BYTE   N06
 BYTE   W06
 BYTE   An0
 BYTE   W06
 BYTE   N06
 BYTE   W06
 BYTE   Gn0
 BYTE   W06
 BYTE   N06
 BYTE   W06
 BYTE   An0
 BYTE   W06
 BYTE   N06
 BYTE   W06
 BYTE   N12  En1
 BYTE   W12
 BYTE   Cn1
 BYTE   W12
 BYTE   N06  Dn1
 BYTE   W06
 BYTE   N11  Bn0
 BYTE   W12
 BYTE   N12  Cn1
 BYTE   W06
// 029   ----------------------------------------
 BYTE   W06
 BYTE   N06  An0
 BYTE   W06
 BYTE   N10  Bn0
 BYTE   W12
 BYTE   N06  An0
 BYTE   W06
 BYTE   N06
 BYTE   W06
 BYTE   Gn0
 BYTE   W06
 BYTE   N06
 BYTE   W06
 BYTE   An0
 BYTE   W06
 BYTE   N06
 BYTE   W06
 BYTE   Gn0
 BYTE   W06
 BYTE   N06
 BYTE   W06
 BYTE   An0
 BYTE   W06
 BYTE   N06
 BYTE   W06
 BYTE   Gn0
 BYTE   W06
 BYTE   N06
 BYTE   W06
// 030   ----------------------------------------
 BYTE   An0
 BYTE   W06
 BYTE   N06
 BYTE   W06
 BYTE   N11  Fs1
 BYTE   W12
 BYTE   N10  Dn1
 BYTE   W12
 BYTE   N06  En1
 BYTE   W06
 BYTE   N12  Cn1
 BYTE   W12
 BYTE   N10  Dn1
 BYTE   W12
 BYTE   N06  Bn0
 BYTE   W06
 BYTE   N11  Cn1
 BYTE   W12
 BYTE   N06  An0
 BYTE   W06
 BYTE   N06
 BYTE   W06
// 031   ----------------------------------------
 BYTE   Gn0
 BYTE   W06
 BYTE   N06
 BYTE   W06
 BYTE   An0
 BYTE   W06
 BYTE   N06
 BYTE   W06
 BYTE   Gn0
 BYTE   W06
 BYTE   N06
 BYTE   W06
 BYTE   An0
 BYTE   W06
 BYTE   N06
 BYTE   W06
 BYTE   Gn0
 BYTE   W06
 BYTE   N06
 BYTE   W06
 BYTE   An0
 BYTE   W06
 BYTE   N06
 BYTE   W06
 BYTE   N12  En1
 BYTE   W12
 BYTE   Cn1
 BYTE   W12
// 032   ----------------------------------------
 BYTE   N06  Dn1
 BYTE   W06
 BYTE   N11  Bn0
 BYTE   W12
 BYTE   N12  Cn1
 BYTE   W12
 BYTE   N06  An0
 BYTE   W06
 BYTE   N10  Bn0
 BYTE   W12
 BYTE   N06  An0
 BYTE   W06
 BYTE   N06
 BYTE   W06
 BYTE   Gn0
 BYTE   W06
 BYTE   N06
 BYTE   W06
 BYTE   An0
 BYTE   W06
 BYTE   N06
 BYTE   W06
 BYTE   Gn0
 BYTE   W06
 BYTE   N06
 BYTE   W06
// 033   ----------------------------------------
 BYTE   An0
 BYTE   W06
 BYTE   N06
 BYTE   W06
 BYTE   Gn0
 BYTE   W06
 BYTE   N06
 BYTE   W06
 BYTE   An0
 BYTE   W06
 BYTE   N06
 BYTE   W06
 BYTE   N11  Fs1
 BYTE   W12
 BYTE   N10  Dn1
 BYTE   W12
 BYTE   N06  En1
 BYTE   W06
 BYTE   N12  Cn1
 BYTE   W12
 BYTE   N10  Dn1
 BYTE   W12
 BYTE   N06  Bn0
 BYTE   W06
// 034   ----------------------------------------
 BYTE   N11  Cn1
 BYTE   W12
 BYTE   N16  Bn0
 BYTE   W18
 BYTE   N18  Ds1
 BYTE   W18
 BYTE   N24  Fs1
 BYTE   W24
 BYTE   N12  Bn1
 BYTE   W12
 BYTE   N10  As0
 BYTE   W12
// 035   ----------------------------------------
 BYTE   N16  Bn0
 BYTE   W18
 BYTE   N18  Ds1
 BYTE   W18
 BYTE   N24  Fs1
 BYTE   W24
 BYTE   N12  Bn1
 BYTE   W12
 BYTE   N10  As0
 BYTE   W12
 BYTE   N17  Cn1
 BYTE   W12
// 036   ----------------------------------------
 BYTE   W06
 BYTE   En1
 BYTE   W18
 BYTE   N23  Gn1
 BYTE   W24
 BYTE   N12  Cn2
 BYTE   W12
 BYTE   N11  Bn0
 BYTE   W12
 BYTE   N17  Cn1
 BYTE   W18
 BYTE   En1
 BYTE   W06
// 037   ----------------------------------------
 BYTE   W12
 BYTE   N23  Gn1
 BYTE   W24
 BYTE   N12  Cn2
 BYTE   W12
 BYTE   N11  Bn0
 BYTE   W12
 BYTE   N16
 BYTE   W18
 BYTE   N18  Ds1
 BYTE   W18
// 038   ----------------------------------------
 BYTE   N24  Fs1
 BYTE   W24
 BYTE   N12  Bn1
 BYTE   W12
 BYTE   N10  As0
 BYTE   W12
 BYTE   N16  Bn0
 BYTE   W18
 BYTE   N18  Ds1
 BYTE   W18
 BYTE   N24  Fs1
 BYTE   W12
// 039   ----------------------------------------
 BYTE   W12
 BYTE   N12  Bn1
 BYTE   W12
 BYTE   N10  As0
 BYTE   W12
 BYTE   N17  Cn1
 BYTE   W18
 BYTE   En1
 BYTE   W18
 BYTE   N23  Gn1
 BYTE   W24
// 040   ----------------------------------------
 BYTE   N12  Cn2
 BYTE   W12
 BYTE   N11  Bn0
 BYTE   W12
 BYTE   N17  Cn1
 BYTE   W18
 BYTE   En1
 BYTE   W18
 BYTE   N23  Gn1
 BYTE   W24
 BYTE   N12  Cn2
 BYTE   W12
// 041   ----------------------------------------
 BYTE   N11  Bn0
 BYTE   W12
 BYTE   N06
 BYTE   W06
 BYTE   N06
 BYTE   W12
 BYTE   N06
 BYTE   W06
 BYTE   N06
 BYTE   W12
 BYTE   N06
 BYTE   W06
 BYTE   N06
 BYTE   W12
 BYTE   N06
 BYTE   W06
 BYTE   N06
 BYTE   W12
 BYTE   N06
 BYTE   W06
 BYTE   N06
 BYTE   W06
// 042   ----------------------------------------
 BYTE   W06
 BYTE   N06
 BYTE   W06
 BYTE   N11  En0
 BYTE   W12
 BYTE   N11
 BYTE   W12
 BYTE   En1
 BYTE   W12
 BYTE   N06  En0
 BYTE   W06
 BYTE   N18  Dn1
 BYTE   W18
 BYTE   N11  En1
 BYTE   W12
 BYTE   N10  En0
 BYTE   W12
// 043   ----------------------------------------
 BYTE   N06
 BYTE   W06
 BYTE   N06
 BYTE   W06
 BYTE   N11
 BYTE   W12
 BYTE   N11
 BYTE   W12
 BYTE   En1
 BYTE   W12
 BYTE   N06  En0
 BYTE   W06
 BYTE   N18  Dn1
 BYTE   W18
 BYTE   N11  En1
 BYTE   W12
 BYTE   N10  En0
 BYTE   W12
// 044   ----------------------------------------
 BYTE   N06
 BYTE   W06
 BYTE   N06
 BYTE   W06
 BYTE   N11
 BYTE   W12
 BYTE   N11
 BYTE   W12
 BYTE   En1
 BYTE   W12
 BYTE   N06  En0
 BYTE   W06
 BYTE   N18  Dn1
 BYTE   W18
 BYTE   N11  En1
 BYTE   W12
 BYTE   N06  En0
 BYTE   W06
 BYTE   Fs0
 BYTE   W06
// 045   ----------------------------------------
 BYTE   Gn0
 BYTE   W06
 BYTE   N06
 BYTE   W06
 BYTE   N11  En0
 BYTE   W12
 BYTE   N11
 BYTE   W12
 BYTE   En1
 BYTE   W12
 BYTE   N06  En0
 BYTE   W06
 BYTE   N18  Dn1
 BYTE   W18
 BYTE   N11  En1
 BYTE   W12
 BYTE   N06  Dn1
 BYTE   W06
 BYTE   En1
 BYTE   W06
// 046   ----------------------------------------
 BYTE   Fs1
 BYTE   W06
 BYTE   Gn1
 BYTE   W06
 BYTE   N11  En0
 BYTE   W12
 BYTE   N11
 BYTE   W12
 BYTE   En1
 BYTE   W12
 BYTE   N06  En0
 BYTE   W06
 BYTE   N18  Dn1
 BYTE   W18
 BYTE   N11  En1
 BYTE   W12
 BYTE   N06  En0
 BYTE   W06
 BYTE   Fs0
 BYTE   W06
// 047   ----------------------------------------
 BYTE   Gn0
 BYTE   W06
 BYTE   N06
 BYTE   W06
 BYTE   N16  As0
 BYTE   W18
 BYTE   Bn0
 BYTE   W18
 BYTE   N11  En0
 BYTE   W12
 BYTE   N16  Cs1
 BYTE   W18
 BYTE   Dn1
 BYTE   W18
// 048   ----------------------------------------
 BYTE   N11  Ds1
 BYTE   W96
// 049   ----------------------------------------
 BYTE   GoTo
  POIN2 Label_1_01452095
 BYTE   FINE

//**************** Track 3 (Midi-Chn.2) ****************//

GoldenSunSaturosandMenardiBattleMrGreen3339_003:
// 000   ----------------------------------------
 BYTE   VOL   55*GoldenSunSaturosandMenardiBattleMrGreen3339_mvl/mxv
 BYTE   KEYSH   GoldenSunSaturosandMenardiBattleMrGreen3339_key+0
 BYTE   VOICE   48
 BYTE   BEND   c_v+1
 BYTE   N92  As2  v127
 BYTE   W01
 BYTE   BEND   c_v+0
 BYTE   W02
 BYTE   Ds3
 BYTE   W01
 BYTE   Dn3
 BYTE   W02
 BYTE   Cs3
 BYTE   W01
 BYTE   Cn3
 BYTE   W02
 BYTE   Bn2
 BYTE   W01
 BYTE   As2
 BYTE   W02
 BYTE   An2
 BYTE   W01
 BYTE   Gs2
 BYTE   W02
 BYTE   Gn2
 BYTE   W01
 BYTE   Fs2
 BYTE   W02
 BYTE   Fn2
 BYTE   W01
 BYTE   En2
 BYTE   W02
 BYTE   Ds2
 BYTE   W01
 BYTE   Dn2
 BYTE   W02
 BYTE   Cs2
 BYTE   W02
 BYTE   Cn2
 BYTE   W01
 BYTE   Bn1
 BYTE   W02
 BYTE   As1
 BYTE   W01
 BYTE   An1
 BYTE   W02
 BYTE   Gs1
 BYTE   W01
 BYTE   Gn1
 BYTE   W02
 BYTE   Fs1
 BYTE   W01
 BYTE   Fn1
 BYTE   W02
 BYTE   En1
 BYTE   W01
 BYTE   Ds1
 BYTE   W02
 BYTE   Dn1
 BYTE   W01
 BYTE   Cs1
 BYTE   W02
 BYTE   Cn1
 BYTE   W01
 BYTE   Bn0
 BYTE   W02
 BYTE   As0
 BYTE   W02
 BYTE   An0
 BYTE   W01
 BYTE   Gs0
 BYTE   W02
 BYTE   Gn0
 BYTE   W01
 BYTE   Fs0
 BYTE   W02
 BYTE   Fn0
 BYTE   W01
 BYTE   En0
 BYTE   W02
 BYTE   Ds0
 BYTE   W01
 BYTE   Dn0
 BYTE   W02
 BYTE   Cs0
 BYTE   W01
 BYTE   Cn0
 BYTE   W02
 BYTE   BnM1
 BYTE   W01
 BYTE   AsM1
 BYTE   W02
 BYTE   AnM1
 BYTE   W01
 BYTE   GsM1
 BYTE   W02
 BYTE   GnM1
 BYTE   W02
 BYTE   FsM1
 BYTE   W01
 BYTE   FnM1
 BYTE   W02
 BYTE   EnM1
 BYTE   W01
 BYTE   DsM1
 BYTE   W02
 BYTE   DnM1
 BYTE   W01
 BYTE   CsM1
 BYTE   W02
 BYTE   CnM1
 BYTE   W01
 BYTE   BnM2
 BYTE   W02
 BYTE   AsM2
 BYTE   W01
 BYTE   AnM2
 BYTE   W02
 BYTE   GsM2
 BYTE   W01
 BYTE   GnM2
 BYTE   W02
 BYTE   FsM2
 BYTE   W01
 BYTE   FnM2
 BYTE   W02
 BYTE   EnM2
 BYTE   W01
 BYTE   DsM2
 BYTE   W02
// 001   ----------------------------------------
Label_2_01452535:
 BYTE   BEND   c_v+0
 BYTE   N92  Gn4  v127
 BYTE   W96
 BYTE   PEND 
// 002   ----------------------------------------
 BYTE   Fs4
 BYTE   W96
// 003   ----------------------------------------
 BYTE   Fn4
 BYTE   W96
// 004   ----------------------------------------
Label_2_01452540:
 BYTE   N44  En4  v127
 BYTE   W48
 BYTE   N12  Ds4
 BYTE   W12
 BYTE   En4
 BYTE   W12
 BYTE   Fn4
 BYTE   W12
 BYTE   Fs4
 BYTE   W12
 BYTE   PEND 
// 005   ----------------------------------------
 BYTE   N92  Gn4
 BYTE   W96
// 006   ----------------------------------------
 BYTE   Fs4
 BYTE   W96
// 007   ----------------------------------------
Label_2_01452553:
 BYTE   N18  En4  v127
 BYTE   W18
 BYTE   N17  Ds4
 BYTE   W18
 BYTE   N22  Dn4
 BYTE   W24
 BYTE   N11  Cs4
 BYTE   W12
 BYTE   Cn4
 BYTE   W12
 BYTE   N10  Cs4
 BYTE   W12
 BYTE   PEND 
// 008   ----------------------------------------
Label_2_01452566:
 BYTE   N16  Gn4  v127
 BYTE   W18
 BYTE   N18  Fs4
 BYTE   W18
 BYTE   N23  Fn4
 BYTE   W24
 BYTE   N11  En4
 BYTE   W12
 BYTE   Ds4
 BYTE   W12
 BYTE   N10  En4
 BYTE   W12
 BYTE   PEND 
 BYTE   PATT
  POIN2 Label_2_01452535
// 009   ----------------------------------------
 BYTE   N92  Fs4  v127
 BYTE   W96
// 010   ----------------------------------------
 BYTE   Fn4
 BYTE   W96
 BYTE   PATT
  POIN2 Label_2_01452540
// 011   ----------------------------------------
 BYTE   N92  Gn4  v127
 BYTE   W96
// 012   ----------------------------------------
 BYTE   Fs4
 BYTE   W96
 BYTE   PATT
  POIN2 Label_2_01452553
 BYTE   PATT
  POIN2 Label_2_01452566
// 013   ----------------------------------------
 BYTE   N92  En4  v127
 BYTE   N92  An4
 BYTE   W96
// 014   ----------------------------------------
 BYTE   N32  Dn4
 BYTE   N36  Gn4
 BYTE   W36
 BYTE   N92  En4
 BYTE   N92  An4
 BYTE   W60
// 015   ----------------------------------------
 BYTE   W36
 BYTE   N32  Gn4
 BYTE   N36  Cn5
 BYTE   W36
 BYTE   N92  En4
 BYTE   N92  An4
 BYTE   W24
// 016   ----------------------------------------
 BYTE   W72
 BYTE   N32  Dn4
 BYTE   N36  Gn4
 BYTE   W24
// 017   ----------------------------------------
 BYTE   W12
 BYTE   N92  En4
 BYTE   N92  An4
 BYTE   W84
// 018   ----------------------------------------
 BYTE   W12
 BYTE   Cs4
 BYTE   N92  Fs4
 BYTE   W84
// 019   ----------------------------------------
 BYTE   W12
 BYTE   An3
 BYTE   N92  En4
 BYTE   W84
// 020   ----------------------------------------
 BYTE   W12
 BYTE   N44  Bn3
 BYTE   N92  Dn4
 BYTE   W48
 BYTE   N44  Gn3
 BYTE   W36
// 021   ----------------------------------------
 BYTE   W12
 BYTE   N92  Fn3
 BYTE   N92  Bn3
 BYTE   W84
// 022   ----------------------------------------
 BYTE   W12
 BYTE   Fs3
 BYTE   N92  Cn4
 BYTE   W84
// 023   ----------------------------------------
 BYTE   W12
 BYTE   N68  Gn4
 BYTE   W72
 BYTE   Fs4
 BYTE   W12
// 024   ----------------------------------------
 BYTE   W60
 BYTE   N16  Gn4
 BYTE   N16  As4
 BYTE   W18
 BYTE   N17  Fs4
 BYTE   N17  An4
 BYTE   W18
// 025   ----------------------------------------
 BYTE   N22  Fn4
 BYTE   N22  Gs4
 BYTE   W24
 BYTE   N11  En4
 BYTE   N11  Gn4
 BYTE   W12
 BYTE   N10  Ds4
 BYTE   N11  Fs4
 BYTE   W12
 BYTE   N10  En4
 BYTE   N11  Gn4
 BYTE   W12
 BYTE   N16
 BYTE   N16  As4
 BYTE   W18
 BYTE   N17  Fs4
 BYTE   N17  An4
 BYTE   W18
// 026   ----------------------------------------
 BYTE   N22  Fn4
 BYTE   N22  Gs4
 BYTE   W24
 BYTE   N11  En4
 BYTE   N11  Gn4
 BYTE   W12
 BYTE   N10  Ds4
 BYTE   N11  Fs4
 BYTE   W12
 BYTE   N10  Dn4
 BYTE   N11  Fn4
 BYTE   W12
 BYTE   BEND   c_v+0
 BYTE   N92  Gn4
 BYTE   W36
// 027   ----------------------------------------
 BYTE   W60
 BYTE   Fs4
 BYTE   W36
// 028   ----------------------------------------
 BYTE   W60
 BYTE   Fn4
 BYTE   W36
// 029   ----------------------------------------
 BYTE   W60
 BYTE   N44  En4
 BYTE   W36
// 030   ----------------------------------------
 BYTE   W12
 BYTE   N12  Ds4
 BYTE   W12
 BYTE   En4
 BYTE   W12
 BYTE   Fn4
 BYTE   W12
 BYTE   Fs4
 BYTE   W12
 BYTE   N92  Gn4
 BYTE   W36
// 031   ----------------------------------------
 BYTE   W60
 BYTE   Fs4
 BYTE   W36
// 032   ----------------------------------------
 BYTE   W60
 BYTE   N18  En4
 BYTE   W18
 BYTE   N17  Ds4
 BYTE   W18
// 033   ----------------------------------------
 BYTE   N22  Dn4
 BYTE   W24
 BYTE   N11  Cs4
 BYTE   W12
 BYTE   Cn4
 BYTE   W12
 BYTE   N10  Cs4
 BYTE   W12
 BYTE   N16  Gn4
 BYTE   W18
 BYTE   N18  Fs4
 BYTE   W18
// 034   ----------------------------------------
 BYTE   N23  Fn4
 BYTE   W24
 BYTE   N11  En4
 BYTE   W12
 BYTE   Ds4
 BYTE   W12
 BYTE   N10  En4
 BYTE   W12
 BYTE   BEND   c_v+0
 BYTE   N92  An3
 BYTE   N92  Cn4
 BYTE   W36
// 035   ----------------------------------------
 BYTE   W60
 BYTE   N56  An3
 BYTE   N56  Dn4
 BYTE   W36
// 036   ----------------------------------------
 BYTE   W24
 BYTE   N92  An3
 BYTE   N92  En4
 BYTE   W72
// 037   ----------------------------------------
 BYTE   W24
 BYTE   N56  Dn4
 BYTE   N56  Fs4
 BYTE   W60
 BYTE   BEND   c_v+0
 BYTE   N92  An3
 BYTE   N92  Cn4
 BYTE   W12
// 038   ----------------------------------------
 BYTE   W84
 BYTE   N56  An3
 BYTE   N56  Dn4
 BYTE   W12
// 039   ----------------------------------------
 BYTE   W48
 BYTE   N92  An3
 BYTE   N92  En4
 BYTE   W48
// 040   ----------------------------------------
 BYTE   W48
 BYTE   N56  Dn4
 BYTE   N56  Fs4
 BYTE   W48
// 041   ----------------------------------------
 BYTE   W12
 BYTE   N80  Fs3
 BYTE   N78  Bn3
 BYTE   W84
// 042   ----------------------------------------
 BYTE   N80
 BYTE   N78  Ds4
 BYTE   W84
 BYTE   N80  Gn3
 BYTE   N80  Cn4
 BYTE   W12
// 043   ----------------------------------------
 BYTE   W72
 BYTE   N80
 BYTE   N80  En4
 BYTE   W24
// 044   ----------------------------------------
 BYTE   W60
 BYTE   Fs3
 BYTE   N78  Bn3
 BYTE   W36
// 045   ----------------------------------------
 BYTE   W48
 BYTE   N80
 BYTE   N78  Ds4
 BYTE   W48
// 046   ----------------------------------------
 BYTE   W36
 BYTE   N80  Gn3
 BYTE   N80  Cn4
 BYTE   W60
// 047   ----------------------------------------
 BYTE   W24
 BYTE   N80
 BYTE   N80  En4
 BYTE   W72
// 048   ----------------------------------------
 BYTE   W12
 BYTE   N92  Fs3  v072
 BYTE   N92  Bn3
 BYTE   W84
// 049   ----------------------------------------
 BYTE   W12
 BYTE   BEND   c_v+0
 BYTE   N92  Gn4  v127
 BYTE   W84
// 050   ----------------------------------------
 BYTE   W12
 BYTE   Fs4
 BYTE   W84
// 051   ----------------------------------------
 BYTE   W12
 BYTE   Fn4
 BYTE   W84
// 052   ----------------------------------------
 BYTE   W12
 BYTE   N44  En4
 BYTE   W48
 BYTE   N12  Ds4
 BYTE   W12
 BYTE   En4
 BYTE   W12
 BYTE   Fn4
 BYTE   W12
// 053   ----------------------------------------
 BYTE   Fs4
 BYTE   W12
 BYTE   N92  Gn4
 BYTE   W84
// 054   ----------------------------------------
 BYTE   W12
 BYTE   Fs4
 BYTE   W84
// 055   ----------------------------------------
 BYTE   W12
 BYTE   BEND   c_v+0
 BYTE   W84
// 056   ----------------------------------------
 BYTE   GoTo
  POIN2 Label_2_01452553
 BYTE   FINE

//**************** Track 4 (Midi-Chn.3) ****************//

GoldenSunSaturosandMenardiBattleMrGreen3339_004:
// 000   ----------------------------------------
 BYTE   VOL   55*GoldenSunSaturosandMenardiBattleMrGreen3339_mvl/mxv
 BYTE   KEYSH   GoldenSunSaturosandMenardiBattleMrGreen3339_key+0
 BYTE   VOICE   52
 BYTE   PAN   c_v-27
 BYTE   BEND   c_v+0
 BYTE   N92  Gs2  v127
 BYTE   N92  Cn3
 BYTE   N92  Fn3
 BYTE   W01
 BYTE   BEND   c_v+1
 BYTE   W02
 BYTE   Fs3
 BYTE   W01
 BYTE   Gn3
 BYTE   W02
 BYTE   Gs3
 BYTE   W01
 BYTE   An3
 BYTE   W01
 BYTE   As3
 BYTE   W02
 BYTE   Bn3
 BYTE   W02
 BYTE   Cn4
 BYTE   W01
 BYTE   Cs4
 BYTE   W02
 BYTE   Dn4
 BYTE   W01
 BYTE   Ds4
 BYTE   W01
 BYTE   En4
 BYTE   W02
 BYTE   Fn4
 BYTE   W01
 BYTE   Fs4
 BYTE   W02
 BYTE   Gn4
 BYTE   W01
 BYTE   Gs4
 BYTE   W02
 BYTE   An4
 BYTE   W01
 BYTE   As4
 BYTE   W02
 BYTE   Bn4
 BYTE   W01
 BYTE   Cn5
 BYTE   W02
 BYTE   Cs5
 BYTE   W01
 BYTE   Dn5
 BYTE   W02
 BYTE   Ds5
 BYTE   W01
 BYTE   En5
 BYTE   W02
 BYTE   Fn5
 BYTE   W01
 BYTE   Fs5
 BYTE   W02
 BYTE   Gn5
 BYTE   W01
 BYTE   Gs5
 BYTE   W02
 BYTE   An5
 BYTE   W01
 BYTE   As5
 BYTE   W02
 BYTE   Bn5
 BYTE   W01
 BYTE   Cn6
 BYTE   W02
 BYTE   Cs6
 BYTE   W01
 BYTE   Dn6
 BYTE   W02
 BYTE   Ds6
 BYTE   W01
 BYTE   En6
 BYTE   W02
 BYTE   Fn6
 BYTE   W01
 BYTE   Fs6
 BYTE   W01
 BYTE   Gn6
 BYTE   W02
 BYTE   Gs6
 BYTE   W02
 BYTE   An6
 BYTE   W01
 BYTE   As6
 BYTE   W01
 BYTE   Bn6
 BYTE   W02
 BYTE   Cn7
 BYTE   W01
 BYTE   Cs7
 BYTE   W02
 BYTE   Dn7
 BYTE   W01
 BYTE   Ds7
 BYTE   W02
 BYTE   En7
 BYTE   W01
 BYTE   Fn7
 BYTE   W02
 BYTE   Fs7
 BYTE   W01
 BYTE   Gn7
 BYTE   W02
 BYTE   Gs7
 BYTE   W01
 BYTE   An7
 BYTE   W02
 BYTE   As7
 BYTE   W01
 BYTE   Bn7
 BYTE   W02
 BYTE   Cn8
 BYTE   W01
 BYTE   Cs8
 BYTE   W02
 BYTE   Dn8
 BYTE   W01
 BYTE   Ds8
 BYTE   W02
 BYTE   En8
 BYTE   W01
 BYTE   Fn8
 BYTE   W02
 BYTE   Fs8
 BYTE   W01
 BYTE   Gn8
 BYTE   W01
 BYTE   Gn8
 BYTE   W02
// 001   ----------------------------------------
Label_3_01452783:
 BYTE   BEND   c_v+0
 BYTE   N96  Bn2  v127
 BYTE   W96
 BYTE   PEND 
// 002   ----------------------------------------
 BYTE   N92  Cn3
 BYTE   W96
// 003   ----------------------------------------
 BYTE   Cs3
 BYTE   W96
// 004   ----------------------------------------
Label_3_0145278F:
 BYTE   N44  Cs3  v127
 BYTE   W48
 BYTE   Gn2
 BYTE   W48
 BYTE   PEND 
 BYTE   PATT
  POIN2 Label_3_01452783
// 005   ----------------------------------------
 BYTE   N92  Cs3  v127
 BYTE   W96
// 006   ----------------------------------------
Label_3_0145279F:
 BYTE   N18  En3  v127
 BYTE   W18
 BYTE   Ds3
 BYTE   W18
 BYTE   N24  Dn3
 BYTE   W24
 BYTE   N11  Cs3
 BYTE   W12
 BYTE   N12  Cn3
 BYTE   W12
 BYTE   N11  Cs3
 BYTE   W12
 BYTE   PEND 
// 007   ----------------------------------------
Label_3_014527B2:
 BYTE   N18  As2  v127
 BYTE   W18
 BYTE   An2
 BYTE   W18
 BYTE   N24  Gs2
 BYTE   W24
 BYTE   N11  Gn2
 BYTE   W12
 BYTE   N12  Fs2
 BYTE   W12
 BYTE   N11  Gn2
 BYTE   W12
 BYTE   PEND 
 BYTE   PATT
  POIN2 Label_3_01452783
// 008   ----------------------------------------
 BYTE   N92  Cn3  v127
 BYTE   W96
// 009   ----------------------------------------
 BYTE   Cs3
 BYTE   W96
 BYTE   PATT
  POIN2 Label_3_0145278F
 BYTE   PATT
  POIN2 Label_3_01452783
// 010   ----------------------------------------
 BYTE   N92  Cs3  v127
 BYTE   W96
 BYTE   PATT
  POIN2 Label_3_0145279F
 BYTE   PATT
  POIN2 Label_3_014527B2
// 011   ----------------------------------------
 BYTE   W96
// 012   ----------------------------------------
 BYTE   W96
// 013   ----------------------------------------
 BYTE   W96
// 014   ----------------------------------------
 BYTE   W96
// 015   ----------------------------------------
 BYTE   W96
// 016   ----------------------------------------
 BYTE   W96
// 017   ----------------------------------------
 BYTE   W12
 BYTE   N92  An3  v127
 BYTE   N92  En4  v092
 BYTE   W84
// 018   ----------------------------------------
 BYTE   W12
 BYTE   Dn4  v127
 BYTE   N92  Gn4  v092
 BYTE   W84
// 019   ----------------------------------------
 BYTE   W96
// 020   ----------------------------------------
 BYTE   W96
// 021   ----------------------------------------
 BYTE   W96
// 022   ----------------------------------------
 BYTE   W96
// 023   ----------------------------------------
 BYTE   W96
// 024   ----------------------------------------
 BYTE   W60
 BYTE   BEND   c_v+0
 BYTE   N96  Bn2  v127
 BYTE   W36
// 025   ----------------------------------------
 BYTE   W60
 BYTE   N92  Cn3
 BYTE   W36
// 026   ----------------------------------------
 BYTE   W60
 BYTE   Cs3
 BYTE   W36
// 027   ----------------------------------------
 BYTE   W60
 BYTE   N44
 BYTE   W36
// 028   ----------------------------------------
 BYTE   W12
 BYTE   Gn2
 BYTE   W48
 BYTE   BEND   c_v+0
 BYTE   N96  Bn2
 BYTE   W36
// 029   ----------------------------------------
 BYTE   W60
 BYTE   N92  Cs3
 BYTE   W36
// 030   ----------------------------------------
 BYTE   W60
 BYTE   N18  En3
 BYTE   W18
 BYTE   Ds3
 BYTE   W18
// 031   ----------------------------------------
 BYTE   N24  Dn3
 BYTE   W24
 BYTE   N11  Cs3
 BYTE   W12
 BYTE   N12  Cn3
 BYTE   W12
 BYTE   N11  Cs3
 BYTE   W12
 BYTE   N18  As2
 BYTE   W18
 BYTE   An2
 BYTE   W18
// 032   ----------------------------------------
 BYTE   N24  Gs2
 BYTE   W24
 BYTE   N11  Gn2
 BYTE   W12
 BYTE   N12  Fs2
 BYTE   W12
 BYTE   N11  Gn2
 BYTE   W12
 BYTE   BEND   c_v+0
 BYTE   W36
// 033   ----------------------------------------
 BYTE   W96
// 034   ----------------------------------------
 BYTE   W96
// 035   ----------------------------------------
 BYTE   W96
// 036   ----------------------------------------
 BYTE   W96
// 037   ----------------------------------------
 BYTE   W96
// 038   ----------------------------------------
 BYTE   W96
// 039   ----------------------------------------
 BYTE   W96
// 040   ----------------------------------------
 BYTE   W96
// 041   ----------------------------------------
 BYTE   W96
// 042   ----------------------------------------
 BYTE   W60
 BYTE   TIE  Ds4  v088
 BYTE   W36
// 043   ----------------------------------------
 BYTE   W96
// 044   ----------------------------------------
 BYTE   W32
 BYTE   W03
 BYTE   EOT
 BYTE   W01
 BYTE   TIE  En4
 BYTE   W60
// 045   ----------------------------------------
 BYTE   W96
// 046   ----------------------------------------
 BYTE   W12
 BYTE   EOT
 BYTE   W84
// 047   ----------------------------------------
Label_3_0145285F:
 BYTE   W12
 BYTE   BEND   c_v+0
 BYTE   N96  Bn2  v127
 BYTE   W84
 BYTE   PEND 
// 048   ----------------------------------------
 BYTE   W12
 BYTE   N92  Cn3
 BYTE   W84
// 049   ----------------------------------------
 BYTE   W12
 BYTE   Cs3
 BYTE   W84
// 050   ----------------------------------------
 BYTE   W12
 BYTE   N44
 BYTE   W48
 BYTE   Gn2
 BYTE   W36
 BYTE   PATT
  POIN2 Label_3_0145285F
// 051   ----------------------------------------
 BYTE   W12
 BYTE   N92  Cs3  v127
 BYTE   W84
// 052   ----------------------------------------
 BYTE   W12
 BYTE   BEND   c_v+0
 BYTE   W84
// 053   ----------------------------------------
 BYTE   GoTo
  POIN2 Label_3_0145279F
 BYTE   FINE

//**************** Track 5 (Midi-Chn.4) ****************//

GoldenSunSaturosandMenardiBattleMrGreen3339_005:
// 000   ----------------------------------------
 BYTE   KEYSH   GoldenSunSaturosandMenardiBattleMrGreen3339_key+0
 BYTE   VOICE   54
 BYTE   VOL   14*GoldenSunSaturosandMenardiBattleMrGreen3339_mvl/mxv
 BYTE   PAN   c_v+63
 BYTE   BEND   c_v+0
 BYTE   N92  Gs2  v127
 BYTE   N92  Cn3
 BYTE   N92  Fn3
 BYTE   W01
 BYTE   BEND   c_v+1
 BYTE   W02
 BYTE   Fs3
 BYTE   W01
 BYTE   Gn3
 BYTE   W02
 BYTE   Gs3
 BYTE   W01
 BYTE   An3
 BYTE   W01
 BYTE   As3
 BYTE   W02
 BYTE   Bn3
 BYTE   W02
 BYTE   Cn4
 BYTE   W01
 BYTE   Cs4
 BYTE   W02
 BYTE   Dn4
 BYTE   W01
 BYTE   Ds4
 BYTE   W01
 BYTE   En4
 BYTE   W02
 BYTE   Fn4
 BYTE   W01
 BYTE   Fs4
 BYTE   W02
 BYTE   Gn4
 BYTE   W01
 BYTE   Gs4
 BYTE   W02
 BYTE   An4
 BYTE   W01
 BYTE   As4
 BYTE   W02
 BYTE   Bn4
 BYTE   W01
 BYTE   Cn5
 BYTE   W02
 BYTE   Cs5
 BYTE   W01
 BYTE   Dn5
 BYTE   W02
 BYTE   Ds5
 BYTE   W01
 BYTE   En5
 BYTE   W02
 BYTE   Fn5
 BYTE   W01
 BYTE   Fs5
 BYTE   W02
 BYTE   Gn5
 BYTE   W01
 BYTE   Gs5
 BYTE   W02
 BYTE   An5
 BYTE   W01
 BYTE   As5
 BYTE   W02
 BYTE   Bn5
 BYTE   W01
 BYTE   Cn6
 BYTE   W02
 BYTE   Cs6
 BYTE   W01
 BYTE   Dn6
 BYTE   W02
 BYTE   Ds6
 BYTE   W01
 BYTE   En6
 BYTE   W02
 BYTE   Fn6
 BYTE   W01
 BYTE   Fs6
 BYTE   W01
 BYTE   Gn6
 BYTE   W02
 BYTE   Gs6
 BYTE   W02
 BYTE   An6
 BYTE   W01
 BYTE   As6
 BYTE   W01
 BYTE   Bn6
 BYTE   W02
 BYTE   Cn7
 BYTE   W01
 BYTE   Cs7
 BYTE   W02
 BYTE   Dn7
 BYTE   W01
 BYTE   Ds7
 BYTE   W02
 BYTE   En7
 BYTE   W01
 BYTE   Fn7
 BYTE   W02
 BYTE   Fs7
 BYTE   W01
 BYTE   Gn7
 BYTE   W02
 BYTE   Gs7
 BYTE   W01
 BYTE   An7
 BYTE   W02
 BYTE   As7
 BYTE   W01
 BYTE   Bn7
 BYTE   W02
 BYTE   Cn8
 BYTE   W01
 BYTE   Cs8
 BYTE   W02
 BYTE   Dn8
 BYTE   W01
 BYTE   Ds8
 BYTE   W02
 BYTE   En8
 BYTE   W01
 BYTE   Fn8
 BYTE   W02
 BYTE   Fs8
 BYTE   W01
 BYTE   Gn8
 BYTE   W01
 BYTE   Gn8
 BYTE   W02
// 001   ----------------------------------------
Label_4_0145291B:
 BYTE   BEND   c_v+0
 BYTE   N96  Bn2  v127
 BYTE   W96
 BYTE   PEND 
// 002   ----------------------------------------
 BYTE   N92  Cn3
 BYTE   W96
// 003   ----------------------------------------
 BYTE   Cs3
 BYTE   W96
// 004   ----------------------------------------
Label_4_01452927:
 BYTE   N44  Cs3  v127
 BYTE   W48
 BYTE   Gn2
 BYTE   W48
 BYTE   PEND 
 BYTE   PATT
  POIN2 Label_4_0145291B
// 005   ----------------------------------------
 BYTE   N92  Cs3  v127
 BYTE   W96
// 006   ----------------------------------------
Label_4_01452937:
 BYTE   N18  En3  v127
 BYTE   W18
 BYTE   Ds3
 BYTE   W18
 BYTE   N24  Dn3
 BYTE   W24
 BYTE   N11  Cs3
 BYTE   W12
 BYTE   N12  Cn3
 BYTE   W12
 BYTE   N11  Cs3
 BYTE   W12
 BYTE   PEND 
// 007   ----------------------------------------
Label_4_0145294A:
 BYTE   N18  As2  v127
 BYTE   W18
 BYTE   An2
 BYTE   W18
 BYTE   N24  Gs2
 BYTE   W24
 BYTE   N11  Gn2
 BYTE   W12
 BYTE   N12  Fs2
 BYTE   W12
 BYTE   N11  Gn2
 BYTE   W12
 BYTE   PEND 
 BYTE   PATT
  POIN2 Label_4_0145291B
// 008   ----------------------------------------
 BYTE   N92  Cn3  v127
 BYTE   W96
// 009   ----------------------------------------
 BYTE   Cs3
 BYTE   W96
 BYTE   PATT
  POIN2 Label_4_01452927
 BYTE   PATT
  POIN2 Label_4_0145291B
// 010   ----------------------------------------
 BYTE   N92  Cs3  v127
 BYTE   W96
 BYTE   PATT
  POIN2 Label_4_01452937
 BYTE   PATT
  POIN2 Label_4_0145294A
// 011   ----------------------------------------
 BYTE   W96
// 012   ----------------------------------------
 BYTE   W96
// 013   ----------------------------------------
 BYTE   W96
// 014   ----------------------------------------
 BYTE   W96
// 015   ----------------------------------------
 BYTE   W96
// 016   ----------------------------------------
 BYTE   W96
// 017   ----------------------------------------
 BYTE   W12
 BYTE   N92  An3  v127
 BYTE   N92  En4  v092
 BYTE   W84
// 018   ----------------------------------------
 BYTE   W12
 BYTE   Dn4  v127
 BYTE   N92  Gn4  v092
 BYTE   W84
// 019   ----------------------------------------
 BYTE   W96
// 020   ----------------------------------------
 BYTE   W96
// 021   ----------------------------------------
 BYTE   W96
// 022   ----------------------------------------
 BYTE   W96
// 023   ----------------------------------------
 BYTE   W96
// 024   ----------------------------------------
 BYTE   W60
 BYTE   BEND   c_v+0
 BYTE   N96  Bn2  v127
 BYTE   W36
// 025   ----------------------------------------
 BYTE   W60
 BYTE   N92  Cn3
 BYTE   W36
// 026   ----------------------------------------
 BYTE   W60
 BYTE   Cs3
 BYTE   W36
// 027   ----------------------------------------
 BYTE   W60
 BYTE   N44
 BYTE   W36
// 028   ----------------------------------------
 BYTE   W12
 BYTE   Gn2
 BYTE   W48
 BYTE   BEND   c_v+0
 BYTE   N96  Bn2
 BYTE   W36
// 029   ----------------------------------------
 BYTE   W60
 BYTE   N92  Cs3
 BYTE   W36
// 030   ----------------------------------------
 BYTE   W60
 BYTE   N18  En3
 BYTE   W18
 BYTE   Ds3
 BYTE   W18
// 031   ----------------------------------------
 BYTE   N24  Dn3
 BYTE   W24
 BYTE   N11  Cs3
 BYTE   W12
 BYTE   N12  Cn3
 BYTE   W12
 BYTE   N11  Cs3
 BYTE   W12
 BYTE   N18  As2
 BYTE   W18
 BYTE   An2
 BYTE   W18
// 032   ----------------------------------------
 BYTE   N24  Gs2
 BYTE   W24
 BYTE   N11  Gn2
 BYTE   W12
 BYTE   N12  Fs2
 BYTE   W12
 BYTE   N11  Gn2
 BYTE   W12
 BYTE   BEND   c_v+0
 BYTE   W36
// 033   ----------------------------------------
 BYTE   W96
// 034   ----------------------------------------
 BYTE   W96
// 035   ----------------------------------------
 BYTE   W96
// 036   ----------------------------------------
 BYTE   W96
// 037   ----------------------------------------
 BYTE   W96
// 038   ----------------------------------------
 BYTE   W96
// 039   ----------------------------------------
 BYTE   W96
// 040   ----------------------------------------
 BYTE   W96
// 041   ----------------------------------------
 BYTE   W96
// 042   ----------------------------------------
 BYTE   W60
 BYTE   TIE  Ds4  v088
 BYTE   W36
// 043   ----------------------------------------
 BYTE   W96
// 044   ----------------------------------------
 BYTE   W32
 BYTE   W03
 BYTE   EOT
 BYTE   W01
 BYTE   TIE  En4
 BYTE   W60
// 045   ----------------------------------------
 BYTE   W96
// 046   ----------------------------------------
 BYTE   W12
 BYTE   EOT
 BYTE   W84
// 047   ----------------------------------------
Label_4_014529F7:
 BYTE   W12
 BYTE   BEND   c_v+0
 BYTE   N96  Bn2  v127
 BYTE   W84
 BYTE   PEND 
// 048   ----------------------------------------
 BYTE   W12
 BYTE   N92  Cn3
 BYTE   W84
// 049   ----------------------------------------
 BYTE   W12
 BYTE   Cs3
 BYTE   W84
// 050   ----------------------------------------
 BYTE   W12
 BYTE   N44
 BYTE   W48
 BYTE   Gn2
 BYTE   W36
 BYTE   PATT
  POIN2 Label_4_014529F7
// 051   ----------------------------------------
 BYTE   W12
 BYTE   N92  Cs3  v127
 BYTE   W84
// 052   ----------------------------------------
 BYTE   W12
 BYTE   BEND   c_v+0
 BYTE   W84
// 053   ----------------------------------------
 BYTE   GoTo
  POIN2 Label_4_01452937
 BYTE   FINE

//**************** Track 6 (Midi-Chn.5) ****************//

GoldenSunSaturosandMenardiBattleMrGreen3339_006:
// 000   ----------------------------------------
 BYTE   KEYSH   GoldenSunSaturosandMenardiBattleMrGreen3339_key+0
 BYTE   VOICE   88
 BYTE   VOL   15*GoldenSunSaturosandMenardiBattleMrGreen3339_mvl/mxv
 BYTE   PAN   c_v-51
 BYTE   N03  Gs1  v076
 BYTE   W03
 BYTE   N03
 BYTE   W03
 BYTE   N03
 BYTE   W03
 BYTE   N03
 BYTE   W03
 BYTE   N03
 BYTE   W03
 BYTE   N03
 BYTE   W03
 BYTE   N03
 BYTE   W03
 BYTE   N03
 BYTE   W03
 BYTE   N03
 BYTE   W03
 BYTE   N03
 BYTE   W03
 BYTE   N03
 BYTE   W03
 BYTE   N03
 BYTE   W03
 BYTE   N03
 BYTE   W03
 BYTE   N03
 BYTE   W03
 BYTE   N03
 BYTE   W03
 BYTE   N03
 BYTE   W03
 BYTE   As1
 BYTE   W03
 BYTE   N03
 BYTE   W03
 BYTE   N03
 BYTE   W03
 BYTE   N03
 BYTE   W03
 BYTE   N03
 BYTE   W03
 BYTE   N03
 BYTE   W03
 BYTE   N03
 BYTE   W03
 BYTE   N03
 BYTE   W03
 BYTE   N03
 BYTE   W03
 BYTE   N03
 BYTE   W03
 BYTE   N03
 BYTE   W03
 BYTE   N03
 BYTE   W03
 BYTE   N03
 BYTE   W03
 BYTE   N03
 BYTE   W03
 BYTE   N03
 BYTE   W03
 BYTE   N03
 BYTE   W03
// 001   ----------------------------------------
Label_5_01452A6A:
 BYTE   N44  Bn2  v127
 BYTE   N44  En3
 BYTE   W48
 BYTE   N22  Dn3
 BYTE   N22  Fs3
 BYTE   W24
 BYTE   N23  En3
 BYTE   N22  Gn3
 BYTE   W24
 BYTE   PEND 
// 002   ----------------------------------------
 BYTE   N92  En3
 BYTE   N92  As3
 BYTE   W96
// 003   ----------------------------------------
Label_5_01452A80:
 BYTE   N36  En3  v127
 BYTE   N32  Bn3
 BYTE   W36
 BYTE   N11  En3
 BYTE   N11  Bn3
 BYTE   W12
 BYTE   N17  As3
 BYTE   N17  En4
 BYTE   W18
 BYTE   N16  An3
 BYTE   N17  Ds4
 BYTE   W18
 BYTE   N10  Gs3
 BYTE   N11  Dn4
 BYTE   W12
 BYTE   PEND 
// 004   ----------------------------------------
Label_5_01452A9B:
 BYTE   N44  Gn3  v127
 BYTE   N44  Cs4
 BYTE   W48
 BYTE   Cs3
 BYTE   N44  Gn3
 BYTE   W48
 BYTE   PEND 
// 005   ----------------------------------------
Label_5_01452AA6:
 BYTE   N44  Bn2  v127
 BYTE   N44  En3
 BYTE   W48
 BYTE   N17  Dn3
 BYTE   N16  Fs3
 BYTE   W18
 BYTE   N17  En3
 BYTE   N16  Gn3
 BYTE   W18
 BYTE   N11
 BYTE   N10  Dn4
 BYTE   W12
 BYTE   PEND 
// 006   ----------------------------------------
 BYTE   N92  Gn3
 BYTE   N92  Cs4
 BYTE   W96
// 007   ----------------------------------------
Label_5_01452AC0:
 BYTE   N17  As3  v127
 BYTE   N16  En4
 BYTE   W18
 BYTE   N17  An3
 BYTE   N16  Ds4
 BYTE   W18
 BYTE   N22  Gs3
 BYTE   N22  Dn4
 BYTE   W24
 BYTE   N11  Gn3
 BYTE   N11  Cs4
 BYTE   W12
 BYTE   N10  Fs3
 BYTE   N12  Cn4
 BYTE   W12
 BYTE   N11  Gn3
 BYTE   N12  Cs4
 BYTE   W12
 BYTE   PEND 
// 008   ----------------------------------------
 BYTE   N17  As3
 BYTE   N16  En4
 BYTE   W18
 BYTE   N17  An3
 BYTE   N16  Ds4
 BYTE   W18
 BYTE   N22  Gs3
 BYTE   N22  Dn4
 BYTE   W24
 BYTE   N10  Gn3
 BYTE   N11  Cs4
 BYTE   W12
 BYTE   N10  Fs3
 BYTE   N12  Cn4
 BYTE   W12
 BYTE   Fn3
 BYTE   N11  Bn3
 BYTE   W12
 BYTE   PATT
  POIN2 Label_5_01452A6A
// 009   ----------------------------------------
 BYTE   N92  En3  v127
 BYTE   N92  As3
 BYTE   W96
 BYTE   PATT
  POIN2 Label_5_01452A80
 BYTE   PATT
  POIN2 Label_5_01452A9B
 BYTE   PATT
  POIN2 Label_5_01452AA6
// 010   ----------------------------------------
 BYTE   N92  Gn3  v127
 BYTE   N92  Cs4
 BYTE   W96
 BYTE   PATT
  POIN2 Label_5_01452AC0
// 011   ----------------------------------------
 BYTE   N17  As3  v127
 BYTE   N16  En4
 BYTE   W18
 BYTE   N17  An3
 BYTE   N16  Ds4
 BYTE   W18
 BYTE   N22  Gs3
 BYTE   N22  Dn4
 BYTE   W24
 BYTE   N10  Gn3
 BYTE   N11  Cs4
 BYTE   W12
 BYTE   N10  Fs3
 BYTE   N12  Cn4
 BYTE   W12
 BYTE   N11  Bn3
 BYTE   W12
// 012   ----------------------------------------
 BYTE   N16  En3
 BYTE   W18
 BYTE   Gn3
 BYTE   W18
 BYTE   N23  As3
 BYTE   W24
 BYTE   N11  An3
 BYTE   W12
 BYTE   Gn3
 BYTE   W12
 BYTE   N10  En3
 BYTE   W12
// 013   ----------------------------------------
 BYTE   N17  Dn3
 BYTE   W18
 BYTE   Ds3
 BYTE   W18
 BYTE   N16  En3
 BYTE   W18
 BYTE   Gn3
 BYTE   W18
 BYTE   N23  As3
 BYTE   W24
// 014   ----------------------------------------
 BYTE   N11  An3
 BYTE   W12
 BYTE   Gn3
 BYTE   W12
 BYTE   N10  En3
 BYTE   W12
 BYTE   N16  Dn4
 BYTE   W18
 BYTE   N18  Cs4
 BYTE   W18
 BYTE   N16  En3
 BYTE   W18
 BYTE   Gn3
 BYTE   W06
// 015   ----------------------------------------
 BYTE   W12
 BYTE   N23  As3
 BYTE   W24
 BYTE   N11  An3
 BYTE   W12
 BYTE   Gn3
 BYTE   W12
 BYTE   N10  En3
 BYTE   W12
 BYTE   N17  Dn3
 BYTE   W18
 BYTE   Ds3
 BYTE   W06
// 016   ----------------------------------------
 BYTE   W12
 BYTE   N16  En3
 BYTE   W18
 BYTE   Gn3
 BYTE   W18
 BYTE   N23  As3
 BYTE   W24
 BYTE   N11  An3
 BYTE   W12
 BYTE   Gn3
 BYTE   W12
// 017   ----------------------------------------
 BYTE   N10  En3
 BYTE   W12
 BYTE   N17  Fs3
 BYTE   W18
 BYTE   An3
 BYTE   W18
 BYTE   N23  Cs4
 BYTE   W24
 BYTE   N11  Bn3
 BYTE   W12
 BYTE   N10  An3
 BYTE   W12
// 018   ----------------------------------------
 BYTE   N11  Gs3
 BYTE   W12
 BYTE   N17  An3
 BYTE   W18
 BYTE   N16  Bn3
 BYTE   W18
 BYTE   N22  Cn4
 BYTE   W24
 BYTE   N11  En4
 BYTE   W12
 BYTE   Dn4
 BYTE   W12
// 019   ----------------------------------------
 BYTE   Cn4
 BYTE   W12
 BYTE   N06  Bn3
 BYTE   W06
 BYTE   Cn4
 BYTE   W06
 BYTE   N32  Dn4
 BYTE   W36
 BYTE   N16  Gn4
 BYTE   W18
 BYTE   N17  Fn4
 BYTE   W18
// 020   ----------------------------------------
 BYTE   N12  En4
 BYTE   W12
 BYTE   N03  Fn4
 BYTE   W06
 BYTE   N04  En4
 BYTE   W06
 BYTE   Bn3
 BYTE   W06
 BYTE   N03  Fn3
 BYTE   W06
 BYTE   N04  Bn3
 BYTE   W06
 BYTE   N03  En4
 BYTE   W06
 BYTE   Fn4
 BYTE   W06
 BYTE   N04  En4
 BYTE   W06
 BYTE   Bn3
 BYTE   W06
 BYTE   N03  Fn3
 BYTE   W06
 BYTE   N04  Bn3
 BYTE   W06
 BYTE   N03  En4
 BYTE   W06
 BYTE   Fn4
 BYTE   W06
 BYTE   N04  En4
 BYTE   W06
// 021   ----------------------------------------
 BYTE   Bn3
 BYTE   W06
 BYTE   N03  Fn3
 BYTE   W06
 BYTE   Fs4
 BYTE   W06
 BYTE   N04  Fn4
 BYTE   W06
 BYTE   Cn4
 BYTE   W06
 BYTE   N03  Fs3
 BYTE   W06
 BYTE   N04  Cn4
 BYTE   W06
 BYTE   N03  Fn4
 BYTE   W06
 BYTE   Fs4
 BYTE   W06
 BYTE   N04  Fn4
 BYTE   W06
 BYTE   Cn4
 BYTE   W06
 BYTE   N03  Fs3
 BYTE   W06
 BYTE   N04  Cn4
 BYTE   W06
 BYTE   N03  Fn4
 BYTE   W06
 BYTE   Fs4
 BYTE   W06
 BYTE   N04  Fn4
 BYTE   W06
// 022   ----------------------------------------
 BYTE   Cn4
 BYTE   W06
 BYTE   N03  Fs3
 BYTE   W06
 BYTE   N15  Dn3
 BYTE   N16  Gn3
 BYTE   W18
 BYTE   N15
 BYTE   N16  As3
 BYTE   W18
 BYTE   N11  Dn4
 BYTE   N11  Fn4
 BYTE   W12
 BYTE   N23  Cs4
 BYTE   N23  En4
 BYTE   W24
 BYTE   N16  Dn3
 BYTE   N17  Gn3
 BYTE   W12
// 023   ----------------------------------------
 BYTE   W06
 BYTE   N16
 BYTE   N16  As3
 BYTE   W18
 BYTE   N11  Cn4
 BYTE   N10  Ds4
 BYTE   W12
 BYTE   N22  Bn3
 BYTE   N23  Dn4
 BYTE   W24
 BYTE   N18  As3
 BYTE   N16  Cs4
 BYTE   W18
 BYTE   N17  An3
 BYTE   N16  Cn4
 BYTE   W18
// 024   ----------------------------------------
 BYTE   N22  Gs3
 BYTE   N24  Bn3
 BYTE   W24
 BYTE   N12  Gn3
 BYTE   N11  As3
 BYTE   W12
 BYTE   Fs3
 BYTE   N10  An3
 BYTE   W12
 BYTE   N11  Gn3
 BYTE   N10  As3
 BYTE   W12
 BYTE   N16
 BYTE   N16  Cs4
 BYTE   W18
 BYTE   An3
 BYTE   N16  Cn4
 BYTE   W18
// 025   ----------------------------------------
 BYTE   N23  Gs3
 BYTE   N24  Bn3
 BYTE   W24
 BYTE   N10  Gn3
 BYTE   N11  As3
 BYTE   W12
 BYTE   N10  Fs3
 BYTE   N10  An3
 BYTE   W12
 BYTE   N11  Fn3
 BYTE   N11  Gs3
 BYTE   W12
 BYTE   N44  Bn2
 BYTE   N44  En3
 BYTE   W36
// 026   ----------------------------------------
 BYTE   W12
 BYTE   N22  Dn3
 BYTE   N22  Fs3
 BYTE   W24
 BYTE   N23  En3
 BYTE   N22  Gn3
 BYTE   W24
 BYTE   N92  En3
 BYTE   N92  As3
 BYTE   W36
// 027   ----------------------------------------
 BYTE   W60
 BYTE   N36  En3
 BYTE   N32  Bn3
 BYTE   W36
// 028   ----------------------------------------
 BYTE   N11  En3
 BYTE   N11  Bn3
 BYTE   W12
 BYTE   N17  As3
 BYTE   N17  En4
 BYTE   W18
 BYTE   N16  An3
 BYTE   N17  Ds4
 BYTE   W18
 BYTE   N10  Gs3
 BYTE   N11  Dn4
 BYTE   W12
 BYTE   N44  Gn3
 BYTE   N44  Cs4
 BYTE   W36
// 029   ----------------------------------------
 BYTE   W12
 BYTE   Cs3
 BYTE   N44  Gn3
 BYTE   W48
 BYTE   Bn2
 BYTE   N44  En3
 BYTE   W36
// 030   ----------------------------------------
 BYTE   W12
 BYTE   N17  Dn3
 BYTE   N16  Fs3
 BYTE   W18
 BYTE   N17  En3
 BYTE   N16  Gn3
 BYTE   W18
 BYTE   N11
 BYTE   N10  Dn4
 BYTE   W12
 BYTE   N92  Gn3
 BYTE   N92  Cs4
 BYTE   W36
// 031   ----------------------------------------
 BYTE   W60
 BYTE   N17  As3
 BYTE   N16  En4
 BYTE   W18
 BYTE   N17  An3
 BYTE   N16  Ds4
 BYTE   W18
// 032   ----------------------------------------
 BYTE   N22  Gs3
 BYTE   N22  Dn4
 BYTE   W24
 BYTE   N11  Gn3
 BYTE   N11  Cs4
 BYTE   W12
 BYTE   N10  Fs3
 BYTE   N12  Cn4
 BYTE   W12
 BYTE   N11  Gn3
 BYTE   N12  Cs4
 BYTE   W12
 BYTE   N17  As3
 BYTE   N16  En4
 BYTE   W18
 BYTE   N17  An3
 BYTE   N16  Ds4
 BYTE   W18
// 033   ----------------------------------------
 BYTE   N22  Gs3
 BYTE   N22  Dn4
 BYTE   W24
 BYTE   N10  Gn3
 BYTE   N11  Cs4
 BYTE   W12
 BYTE   N10  Fs3
 BYTE   N12  Cn4
 BYTE   W12
 BYTE   N10  Fn3
 BYTE   N11  Bn3
 BYTE   W12
 BYTE   N17  An3
 BYTE   W18
 BYTE   N16  Cn4
 BYTE   W18
// 034   ----------------------------------------
 BYTE   N11  En4
 BYTE   W12
 BYTE   N12  Dn4
 BYTE   W12
 BYTE   N10  Bn3
 BYTE   W12
 BYTE   Cn4
 BYTE   W12
 BYTE   N12  Gn4
 BYTE   W12
 BYTE   N11  En4
 BYTE   W12
 BYTE   N06  Fn4
 BYTE   W06
 BYTE   N10  Dn4
 BYTE   W12
 BYTE   En4
 BYTE   W06
// 035   ----------------------------------------
 BYTE   W06
 BYTE   N06  Cn4
 BYTE   W06
 BYTE   N12  Dn4
 BYTE   W12
 BYTE   N17  An3
 BYTE   W18
 BYTE   N16  Cn4
 BYTE   W18
 BYTE   N11  En4
 BYTE   W12
 BYTE   N12  Dn4
 BYTE   W12
 BYTE   N10  Bn3
 BYTE   W12
// 036   ----------------------------------------
 BYTE   Cn4
 BYTE   W12
 BYTE   N11  An4
 BYTE   W12
 BYTE   Fs4
 BYTE   W12
 BYTE   N06  Gn4
 BYTE   W06
 BYTE   N11  En4
 BYTE   W12
 BYTE   N10  Fs4
 BYTE   W12
 BYTE   N06  Dn4
 BYTE   W06
 BYTE   N11  En4
 BYTE   W12
 BYTE   N17  An3
 BYTE   W12
// 037   ----------------------------------------
 BYTE   W06
 BYTE   N16  Cn4
 BYTE   W18
 BYTE   N11  En4
 BYTE   W12
 BYTE   N12  Dn4
 BYTE   W12
 BYTE   N10  Bn3
 BYTE   W12
 BYTE   Cn4
 BYTE   W12
 BYTE   N12  Gn4
 BYTE   W12
 BYTE   N11  En4
 BYTE   W12
// 038   ----------------------------------------
 BYTE   N06  Fn4
 BYTE   W06
 BYTE   N10  Dn4
 BYTE   W12
 BYTE   En4
 BYTE   W12
 BYTE   N06  Cn4
 BYTE   W06
 BYTE   N12  Dn4
 BYTE   W12
 BYTE   N17  An3
 BYTE   W18
 BYTE   N16  Cn4
 BYTE   W18
 BYTE   N11  En4
 BYTE   W12
// 039   ----------------------------------------
 BYTE   N12  Dn4
 BYTE   W12
 BYTE   N10  Bn3
 BYTE   W12
 BYTE   Cn4
 BYTE   W12
 BYTE   N11  An4
 BYTE   W12
 BYTE   Fs4
 BYTE   W12
 BYTE   N06  Gn4
 BYTE   W06
 BYTE   N11  En4
 BYTE   W12
 BYTE   N10  Fs4
 BYTE   W12
 BYTE   N06  Dn4
 BYTE   W06
// 040   ----------------------------------------
 BYTE   N11  En4
 BYTE   W12
 BYTE   N06  Bn3
 BYTE   N06  Ds4
 BYTE   W06
 BYTE   Bn3
 BYTE   N06  Ds4
 BYTE   W06
 BYTE   Fs3
 BYTE   N06  Bn3
 BYTE   W06
 BYTE   Fs3
 BYTE   N06  Bn3
 BYTE   W06
 BYTE   N06
 BYTE   N06  Ds4
 BYTE   N06  Gn4
 BYTE   W06
 BYTE   Fs3
 BYTE   N06  Bn3
 BYTE   W06
 BYTE   Fs3
 BYTE   N06  Bn3
 BYTE   W06
 BYTE   Fs4
 BYTE   N06  An4
 BYTE   W06
 BYTE   Fs4
 BYTE   N06  An4
 BYTE   W06
 BYTE   En4
 BYTE   N06  Gn4
 BYTE   W06
 BYTE   Bn3
 BYTE   N06  Ds4
 BYTE   N06  Fs4
 BYTE   W06
 BYTE   Bn3
 BYTE   N06  Ds4
 BYTE   N06  Fs4
 BYTE   W06
 BYTE   Fs3
 BYTE   N06  Bn3
 BYTE   W06
 BYTE   Fs3
 BYTE   N06  Bn3
 BYTE   W06
// 041   ----------------------------------------
 BYTE   N06
 BYTE   N06  Ds4
 BYTE   W06
 BYTE   Bn3
 BYTE   N06  Ds4
 BYTE   W06
 BYTE   Fs3
 BYTE   N06  Bn3
 BYTE   W06
 BYTE   Fs3
 BYTE   N06  Bn3
 BYTE   W06
 BYTE   N06
 BYTE   N06  Ds4
 BYTE   N06  Gn4
 BYTE   W06
 BYTE   Fs3
 BYTE   N06  Bn3
 BYTE   W06
 BYTE   Fs3
 BYTE   N06  Bn3
 BYTE   W06
 BYTE   Fs4
 BYTE   N06  An4
 BYTE   W06
 BYTE   Fs4
 BYTE   N06  An4
 BYTE   W06
 BYTE   En4
 BYTE   N06  Gn4
 BYTE   W06
 BYTE   Bn3
 BYTE   N06  Ds4
 BYTE   N06  Fs4
 BYTE   W06
 BYTE   Bn3
 BYTE   N06  Ds4
 BYTE   N06  Fs4
 BYTE   W06
 BYTE   Fs3
 BYTE   N06  Bn3
 BYTE   W06
 BYTE   Fs3
 BYTE   N06  Bn3
 BYTE   W06
 BYTE   Cn4
 BYTE   N06  En4
 BYTE   W06
 BYTE   Cn4
 BYTE   N06  En4
 BYTE   W06
// 042   ----------------------------------------
 BYTE   Gn3
 BYTE   N06  Cn4
 BYTE   W06
 BYTE   Gn3
 BYTE   N06  Cn4
 BYTE   W06
 BYTE   N06
 BYTE   N06  En4
 BYTE   N06  Gn4
 BYTE   W06
 BYTE   Gn3
 BYTE   N06  Cn4
 BYTE   W06
 BYTE   Gn3
 BYTE   N06  Cn4
 BYTE   W06
 BYTE   Gn4
 BYTE   N06  Bn4
 BYTE   W06
 BYTE   Gn4
 BYTE   N06  Bn4
 BYTE   W06
 BYTE   Fn4
 BYTE   N06  An4
 BYTE   W06
 BYTE   Cn4
 BYTE   N06  En4
 BYTE   N06  Gn4
 BYTE   W06
 BYTE   Cn4
 BYTE   N06  En4
 BYTE   N06  Gn4
 BYTE   W06
 BYTE   Gn3
 BYTE   N06  Cn4
 BYTE   W06
 BYTE   Gn3
 BYTE   N06  Cn4
 BYTE   W06
 BYTE   N06
 BYTE   N06  En4
 BYTE   W06
 BYTE   Cn4
 BYTE   N06  En4
 BYTE   W06
 BYTE   Gn3
 BYTE   N06  Cn4
 BYTE   W06
 BYTE   Gn3
 BYTE   N06  Cn4
 BYTE   W06
// 043   ----------------------------------------
 BYTE   N06
 BYTE   N06  En4
 BYTE   N06  Gn4
 BYTE   W06
 BYTE   Gn3
 BYTE   N06  Cn4
 BYTE   W06
 BYTE   Gn3
 BYTE   N06  Cn4
 BYTE   W06
 BYTE   Gn4
 BYTE   N06  Bn4
 BYTE   W06
 BYTE   Gn4
 BYTE   N06  Bn4
 BYTE   W06
 BYTE   Fn4
 BYTE   N06  An4
 BYTE   W06
 BYTE   Cn4
 BYTE   N06  En4
 BYTE   N06  Gn4
 BYTE   W06
 BYTE   Cn4
 BYTE   N06  En4
 BYTE   N06  Gn4
 BYTE   W06
 BYTE   Gn3
 BYTE   N06  Cn4
 BYTE   W06
 BYTE   Gn3
 BYTE   N06  Cn4
 BYTE   W06
 BYTE   Bn3
 BYTE   N06  Ds4
 BYTE   W06
 BYTE   Bn3
 BYTE   N06  Ds4
 BYTE   W06
 BYTE   Fs3
 BYTE   N06  Bn3
 BYTE   W06
 BYTE   Fs3
 BYTE   N06  Bn3
 BYTE   W06
 BYTE   N06
 BYTE   N06  Ds4
 BYTE   N06  Gn4
 BYTE   W06
 BYTE   Fs3
 BYTE   N06  Bn3
 BYTE   W06
// 044   ----------------------------------------
 BYTE   Fs3
 BYTE   N06  Bn3
 BYTE   W06
 BYTE   Fs4
 BYTE   N06  An4
 BYTE   W06
 BYTE   Fs4
 BYTE   N06  An4
 BYTE   W06
 BYTE   En4
 BYTE   N06  Gn4
 BYTE   W06
 BYTE   Bn3
 BYTE   N06  Ds4
 BYTE   N06  Fs4
 BYTE   W06
 BYTE   Bn3
 BYTE   N06  Ds4
 BYTE   N06  Fs4
 BYTE   W06
 BYTE   Fs3
 BYTE   N06  Bn3
 BYTE   W06
 BYTE   Fs3
 BYTE   N06  Bn3
 BYTE   W06
 BYTE   N06
 BYTE   N06  Ds4
 BYTE   W06
 BYTE   Bn3
 BYTE   N06  Ds4
 BYTE   W06
 BYTE   Fs3
 BYTE   N06  Bn3
 BYTE   W06
 BYTE   Fs3
 BYTE   N06  Bn3
 BYTE   W06
 BYTE   N06
 BYTE   N06  Ds4
 BYTE   N06  Gn4
 BYTE   W06
 BYTE   Fs3
 BYTE   N06  Bn3
 BYTE   W06
 BYTE   Fs3
 BYTE   N06  Bn3
 BYTE   W06
 BYTE   Fs4
 BYTE   N06  An4
 BYTE   W06
// 045   ----------------------------------------
 BYTE   Fs4
 BYTE   N06  An4
 BYTE   W06
 BYTE   En4
 BYTE   N06  Gn4
 BYTE   W06
 BYTE   Bn3
 BYTE   N06  Ds4
 BYTE   N06  Fs4
 BYTE   W06
 BYTE   Bn3
 BYTE   N06  Ds4
 BYTE   N06  Fs4
 BYTE   W06
 BYTE   Fs3
 BYTE   N06  Bn3
 BYTE   W06
 BYTE   Fs3
 BYTE   N06  Bn3
 BYTE   W06
 BYTE   Cn4
 BYTE   N06  En4
 BYTE   W06
 BYTE   Cn4
 BYTE   N06  En4
 BYTE   W06
 BYTE   Gn3
 BYTE   N06  Cn4
 BYTE   W06
 BYTE   Gn3
 BYTE   N06  Cn4
 BYTE   W06
 BYTE   N06
 BYTE   N06  En4
 BYTE   N06  Gn4
 BYTE   W06
 BYTE   Gn3
 BYTE   N06  Cn4
 BYTE   W06
 BYTE   Gn3
 BYTE   N06  Cn4
 BYTE   W06
 BYTE   Gn4
 BYTE   N06  Bn4
 BYTE   W06
 BYTE   Gn4
 BYTE   N06  Bn4
 BYTE   W06
 BYTE   Fn4
 BYTE   N06  An4
 BYTE   W06
// 046   ----------------------------------------
 BYTE   Cn4
 BYTE   N06  En4
 BYTE   N06  Gn4
 BYTE   W06
 BYTE   Cn4
 BYTE   N06  En4
 BYTE   N06  Gn4
 BYTE   W06
 BYTE   Gn3
 BYTE   N06  Cn4
 BYTE   W06
 BYTE   Gn3
 BYTE   N06  Cn4
 BYTE   W06
 BYTE   N06
 BYTE   N06  En4
 BYTE   W06
 BYTE   Cn4
 BYTE   N06  En4
 BYTE   W06
 BYTE   Gn3
 BYTE   N06  Cn4
 BYTE   W06
 BYTE   Gn3
 BYTE   N06  Cn4
 BYTE   W06
 BYTE   N06
 BYTE   N06  En4
 BYTE   N06  Gn4
 BYTE   W06
 BYTE   Gn3
 BYTE   N06  Cn4
 BYTE   W06
 BYTE   Gn3
 BYTE   N06  Cn4
 BYTE   W06
 BYTE   Gn4
 BYTE   N06  Bn4
 BYTE   W06
 BYTE   Gn4
 BYTE   N06  Bn4
 BYTE   W06
 BYTE   Fn4
 BYTE   N06  An4
 BYTE   W06
 BYTE   Cn4
 BYTE   N06  En4
 BYTE   N06  Gn4
 BYTE   W06
 BYTE   Cn4
 BYTE   N06  En4
 BYTE   N06  Gn4
 BYTE   W06
// 047   ----------------------------------------
 BYTE   Gn3
 BYTE   N06  Cn4
 BYTE   W06
 BYTE   Gn3
 BYTE   N06  Cn4
 BYTE   W06
 BYTE   N03  Bn4
 BYTE   W06
 BYTE   N04  An4
 BYTE   W06
 BYTE   Gn4
 BYTE   W06
 BYTE   N03  Fs4
 BYTE   W06
 BYTE   N04  En4
 BYTE   W06
 BYTE   Ds4
 BYTE   W06
 BYTE   Dn4
 BYTE   W06
 BYTE   N03  Bn3
 BYTE   W06
 BYTE   An3
 BYTE   W06
 BYTE   N04  En4
 BYTE   W06
 BYTE   Ds4
 BYTE   W06
 BYTE   Cn4
 BYTE   W06
 BYTE   Bn3
 BYTE   W06
 BYTE   An3
 BYTE   W06
// 048   ----------------------------------------
 BYTE   N05  Gn3
 BYTE   W06
 BYTE   N04  Fs3
 BYTE   W06
 BYTE   N44  Bn2
 BYTE   N44  En3
 BYTE   W48
 BYTE   N22  Dn3
 BYTE   N22  Fs3
 BYTE   W24
 BYTE   N23  En3
 BYTE   N22  Gn3
 BYTE   W12
// 049   ----------------------------------------
 BYTE   W12
 BYTE   N92  En3
 BYTE   N92  As3
 BYTE   W84
// 050   ----------------------------------------
 BYTE   W12
 BYTE   N36  En3
 BYTE   N32  Bn3
 BYTE   W36
 BYTE   N11  En3
 BYTE   N11  Bn3
 BYTE   W12
 BYTE   N17  As3
 BYTE   N17  En4
 BYTE   W18
 BYTE   N16  An3
 BYTE   N17  Ds4
 BYTE   W18
// 051   ----------------------------------------
 BYTE   N10  Gs3
 BYTE   N11  Dn4
 BYTE   W12
 BYTE   N44  Gn3
 BYTE   N44  Cs4
 BYTE   W48
 BYTE   Cs3
 BYTE   N44  Gn3
 BYTE   W36
// 052   ----------------------------------------
 BYTE   W12
 BYTE   Bn2
 BYTE   N44  En3
 BYTE   W48
 BYTE   N17  Dn3
 BYTE   N16  Fs3
 BYTE   W18
 BYTE   N17  En3
 BYTE   N16  Gn3
 BYTE   W18
// 053   ----------------------------------------
 BYTE   N11
 BYTE   N10  Dn4
 BYTE   W12
 BYTE   N92  Gn3
 BYTE   N92  Cs4
 BYTE   W84
// 054   ----------------------------------------
 BYTE   W96
// 055   ----------------------------------------
 BYTE   GoTo
  POIN2 Label_5_01452AC0
 BYTE   FINE

//**************** Track 7 (Midi-Chn.6) ****************//

GoldenSunSaturosandMenardiBattleMrGreen3339_007:
// 000   ----------------------------------------
 BYTE   KEYSH   GoldenSunSaturosandMenardiBattleMrGreen3339_key+0
 BYTE   VOICE   81
 BYTE   VOL   21*GoldenSunSaturosandMenardiBattleMrGreen3339_mvl/mxv
 BYTE   PAN   c_v+49
 BYTE   W06
 BYTE   N03  Gs1  v076
 BYTE   W03
 BYTE   N03
 BYTE   W03
 BYTE   N03
 BYTE   W03
 BYTE   N03
 BYTE   W03
 BYTE   N03
 BYTE   W03
 BYTE   N03
 BYTE   W03
 BYTE   N03
 BYTE   W03
 BYTE   N03
 BYTE   W03
 BYTE   N03
 BYTE   W03
 BYTE   N03
 BYTE   W03
 BYTE   N03
 BYTE   W03
 BYTE   N03
 BYTE   W03
 BYTE   N03
 BYTE   W03
 BYTE   N03
 BYTE   W03
 BYTE   N03
 BYTE   W03
 BYTE   N03
 BYTE   W03
 BYTE   As1
 BYTE   W03
 BYTE   N03
 BYTE   W03
 BYTE   N03
 BYTE   W03
 BYTE   N03
 BYTE   W03
 BYTE   N03
 BYTE   W03
 BYTE   N03
 BYTE   W03
 BYTE   N03
 BYTE   W03
 BYTE   N03
 BYTE   W03
 BYTE   N03
 BYTE   W03
 BYTE   N03
 BYTE   W03
 BYTE   N03
 BYTE   W03
 BYTE   N03
 BYTE   W03
 BYTE   N03
 BYTE   W03
 BYTE   N03
 BYTE   W03
// 001   ----------------------------------------
 BYTE   N03
 BYTE   W03
 BYTE   N03
 BYTE   W03
 BYTE   N44  Bn2  v127
 BYTE   N44  En3
 BYTE   W48
 BYTE   N22  Dn3
 BYTE   N22  Fs3
 BYTE   W24
 BYTE   N23  En3
 BYTE   N22  Gn3
 BYTE   W18
// 002   ----------------------------------------
 BYTE   W06
 BYTE   N92  En3
 BYTE   N92  As3
 BYTE   W90
// 003   ----------------------------------------
Label_6_0145306D:
 BYTE   W06
 BYTE   N36  En3  v127
 BYTE   N32  Bn3
 BYTE   W36
 BYTE   N11  En3
 BYTE   N11  Bn3
 BYTE   W12
 BYTE   N17  As3
 BYTE   N17  En4
 BYTE   W18
 BYTE   N16  An3
 BYTE   N17  Ds4
 BYTE   W18
 BYTE   N10  Gs3
 BYTE   N11  Dn4
 BYTE   W06
 BYTE   PEND 
// 004   ----------------------------------------
Label_6_01453089:
 BYTE   W06
 BYTE   N44  Gn3  v127
 BYTE   N44  Cs4
 BYTE   W48
 BYTE   Cs3
 BYTE   N44  Gn3
 BYTE   W42
 BYTE   PEND 
// 005   ----------------------------------------
Label_6_01453095:
 BYTE   W06
 BYTE   N44  Bn2  v127
 BYTE   N44  En3
 BYTE   W48
 BYTE   N17  Dn3
 BYTE   N16  Fs3
 BYTE   W18
 BYTE   N17  En3
 BYTE   N16  Gn3
 BYTE   W18
 BYTE   N11
 BYTE   N10  Dn4
 BYTE   W06
 BYTE   PEND 
// 006   ----------------------------------------
Label_6_014530AB:
 BYTE   W06
 BYTE   N92  Gn3  v127
 BYTE   N92  Cs4
 BYTE   W90
 BYTE   PEND 
// 007   ----------------------------------------
Label_6_014530B3:
 BYTE   W06
 BYTE   N17  As3  v127
 BYTE   N16  En4
 BYTE   W18
 BYTE   N17  An3
 BYTE   N16  Ds4
 BYTE   W18
 BYTE   N22  Gs3
 BYTE   N22  Dn4
 BYTE   W24
 BYTE   N11  Gn3
 BYTE   N11  Cs4
 BYTE   W12
 BYTE   N10  Fs3
 BYTE   N12  Cn4
 BYTE   W12
 BYTE   N11  Gn3
 BYTE   N12  Cs4
 BYTE   W06
 BYTE   PEND 
// 008   ----------------------------------------
 BYTE   W06
 BYTE   N17  As3
 BYTE   N16  En4
 BYTE   W18
 BYTE   N17  An3
 BYTE   N16  Ds4
 BYTE   W18
 BYTE   N22  Gs3
 BYTE   N22  Dn4
 BYTE   W24
 BYTE   N10  Gn3
 BYTE   N11  Cs4
 BYTE   W12
 BYTE   N10  Fs3
 BYTE   N12  Cn4
 BYTE   W12
 BYTE   Fn3
 BYTE   N11  Bn3
 BYTE   W06
// 009   ----------------------------------------
 BYTE   W06
 BYTE   N44  Bn2
 BYTE   N44  En3
 BYTE   W48
 BYTE   N22  Dn3
 BYTE   N22  Fs3
 BYTE   W24
 BYTE   N23  En3
 BYTE   N22  Gn3
 BYTE   W18
// 010   ----------------------------------------
 BYTE   W06
 BYTE   N92  En3
 BYTE   N92  As3
 BYTE   W90
 BYTE   PATT
  POIN2 Label_6_0145306D
 BYTE   PATT
  POIN2 Label_6_01453089
 BYTE   PATT
  POIN2 Label_6_01453095
 BYTE   PATT
  POIN2 Label_6_014530AB
 BYTE   PATT
  POIN2 Label_6_014530B3
// 011   ----------------------------------------
 BYTE   W06
 BYTE   N17  As3  v127
 BYTE   N16  En4
 BYTE   W18
 BYTE   N17  An3
 BYTE   N16  Ds4
 BYTE   W18
 BYTE   N22  Gs3
 BYTE   N22  Dn4
 BYTE   W24
 BYTE   N10  Gn3
 BYTE   N11  Cs4
 BYTE   W12
 BYTE   N10  Fs3
 BYTE   N12  Cn4
 BYTE   W12
 BYTE   N11  Bn3
 BYTE   W06
// 012   ----------------------------------------
 BYTE   W06
 BYTE   N16  En3
 BYTE   W18
 BYTE   Gn3
 BYTE   W18
 BYTE   N23  As3
 BYTE   W24
 BYTE   N11  An3
 BYTE   W12
 BYTE   Gn3
 BYTE   W12
 BYTE   N10  En3
 BYTE   W06
// 013   ----------------------------------------
 BYTE   W06
 BYTE   N17  Dn3
 BYTE   W18
 BYTE   Ds3
 BYTE   W18
 BYTE   N16  En3
 BYTE   W18
 BYTE   Gn3
 BYTE   W18
 BYTE   N23  As3
 BYTE   W18
// 014   ----------------------------------------
 BYTE   W06
 BYTE   N11  An3
 BYTE   W12
 BYTE   Gn3
 BYTE   W12
 BYTE   N10  En3
 BYTE   W12
 BYTE   N16  Dn4
 BYTE   W18
 BYTE   N18  Cs4
 BYTE   W18
 BYTE   N16  En3
 BYTE   W18
// 015   ----------------------------------------
 BYTE   Gn3
 BYTE   W18
 BYTE   N23  As3
 BYTE   W24
 BYTE   N11  An3
 BYTE   W12
 BYTE   Gn3
 BYTE   W12
 BYTE   N10  En3
 BYTE   W12
 BYTE   N17  Dn3
 BYTE   W18
// 016   ----------------------------------------
 BYTE   Ds3
 BYTE   W18
 BYTE   N16  En3
 BYTE   W18
 BYTE   Gn3
 BYTE   W18
 BYTE   N23  As3
 BYTE   W24
 BYTE   N11  An3
 BYTE   W12
 BYTE   Gn3
 BYTE   W06
// 017   ----------------------------------------
 BYTE   W06
 BYTE   N10  En3
 BYTE   W12
 BYTE   N17  Fs3
 BYTE   W18
 BYTE   An3
 BYTE   W18
 BYTE   N23  Cs4
 BYTE   W24
 BYTE   N11  Bn3
 BYTE   W12
 BYTE   N10  An3
 BYTE   W06
// 018   ----------------------------------------
 BYTE   W06
 BYTE   N11  Gs3
 BYTE   W12
 BYTE   N17  An3
 BYTE   W18
 BYTE   N16  Bn3
 BYTE   W18
 BYTE   N22  Cn4
 BYTE   W24
 BYTE   N11  En4
 BYTE   W12
 BYTE   Dn4
 BYTE   W06
// 019   ----------------------------------------
 BYTE   W06
 BYTE   Cn4
 BYTE   W12
 BYTE   N06  Bn3
 BYTE   W06
 BYTE   Cn4
 BYTE   W06
 BYTE   N32  Dn4
 BYTE   W36
 BYTE   N16  Gn4
 BYTE   W18
 BYTE   N17  Fn4
 BYTE   W12
// 020   ----------------------------------------
 BYTE   W06
 BYTE   N12  En4
 BYTE   W12
 BYTE   N03  Fn4
 BYTE   W06
 BYTE   N04  En4
 BYTE   W06
 BYTE   Bn3
 BYTE   W06
 BYTE   N03  Fn3
 BYTE   W06
 BYTE   N04  Bn3
 BYTE   W06
 BYTE   N03  En4
 BYTE   W06
 BYTE   Fn4
 BYTE   W06
 BYTE   N04  En4
 BYTE   W06
 BYTE   Bn3
 BYTE   W06
 BYTE   N03  Fn3
 BYTE   W06
 BYTE   N04  Bn3
 BYTE   W06
 BYTE   N03  En4
 BYTE   W06
 BYTE   Fn4
 BYTE   W06
// 021   ----------------------------------------
 BYTE   N04  En4
 BYTE   W06
 BYTE   Bn3
 BYTE   W06
 BYTE   N03  Fn3
 BYTE   W06
 BYTE   Fs4
 BYTE   W06
 BYTE   N04  Fn4
 BYTE   W06
 BYTE   Cn4
 BYTE   W06
 BYTE   N03  Fs3
 BYTE   W06
 BYTE   N04  Cn4
 BYTE   W06
 BYTE   N03  Fn4
 BYTE   W06
 BYTE   Fs4
 BYTE   W06
 BYTE   N04  Fn4
 BYTE   W06
 BYTE   Cn4
 BYTE   W06
 BYTE   N03  Fs3
 BYTE   W06
 BYTE   N04  Cn4
 BYTE   W06
 BYTE   N03  Fn4
 BYTE   W06
 BYTE   Fs4
 BYTE   W06
// 022   ----------------------------------------
 BYTE   N04  Fn4
 BYTE   W06
 BYTE   Cn4
 BYTE   W06
 BYTE   N03  Fs3
 BYTE   W06
 BYTE   N15  Dn3
 BYTE   N16  Gn3
 BYTE   W18
 BYTE   N15
 BYTE   N16  As3
 BYTE   W18
 BYTE   N11  Dn4
 BYTE   N11  Fn4
 BYTE   W12
 BYTE   N23  Cs4
 BYTE   N23  En4
 BYTE   W24
 BYTE   N16  Dn3
 BYTE   N17  Gn3
 BYTE   W06
// 023   ----------------------------------------
 BYTE   W12
 BYTE   N16
 BYTE   N16  As3
 BYTE   W18
 BYTE   N11  Cn4
 BYTE   N10  Ds4
 BYTE   W12
 BYTE   N22  Bn3
 BYTE   N23  Dn4
 BYTE   W24
 BYTE   N18  As3
 BYTE   N16  Cs4
 BYTE   W18
 BYTE   N17  An3
 BYTE   N16  Cn4
 BYTE   W12
// 024   ----------------------------------------
 BYTE   W06
 BYTE   N22  Gs3
 BYTE   N24  Bn3
 BYTE   W24
 BYTE   N12  Gn3
 BYTE   N11  As3
 BYTE   W12
 BYTE   Fs3
 BYTE   N10  An3
 BYTE   W12
 BYTE   N11  Gn3
 BYTE   N10  As3
 BYTE   W12
 BYTE   N16
 BYTE   N16  Cs4
 BYTE   W18
 BYTE   An3
 BYTE   N16  Cn4
 BYTE   W12
// 025   ----------------------------------------
 BYTE   W06
 BYTE   N23  Gs3
 BYTE   N24  Bn3
 BYTE   W24
 BYTE   N10  Gn3
 BYTE   N11  As3
 BYTE   W12
 BYTE   N10  Fs3
 BYTE   N10  An3
 BYTE   W12
 BYTE   N11  Fn3
 BYTE   N11  Gs3
 BYTE   W12
 BYTE   N44  Bn2
 BYTE   N44  En3
 BYTE   W30
// 026   ----------------------------------------
 BYTE   W18
 BYTE   N22  Dn3
 BYTE   N22  Fs3
 BYTE   W24
 BYTE   N23  En3
 BYTE   N22  Gn3
 BYTE   W24
 BYTE   N92  En3
 BYTE   N92  As3
 BYTE   W30
// 027   ----------------------------------------
 BYTE   W66
 BYTE   N36  En3
 BYTE   N32  Bn3
 BYTE   W30
// 028   ----------------------------------------
 BYTE   W06
 BYTE   N11  En3
 BYTE   N11  Bn3
 BYTE   W12
 BYTE   N17  As3
 BYTE   N17  En4
 BYTE   W18
 BYTE   N16  An3
 BYTE   N17  Ds4
 BYTE   W18
 BYTE   N10  Gs3
 BYTE   N11  Dn4
 BYTE   W12
 BYTE   N44  Gn3
 BYTE   N44  Cs4
 BYTE   W30
// 029   ----------------------------------------
 BYTE   W18
 BYTE   Cs3
 BYTE   N44  Gn3
 BYTE   W48
 BYTE   Bn2
 BYTE   N44  En3
 BYTE   W30
// 030   ----------------------------------------
 BYTE   W18
 BYTE   N17  Dn3
 BYTE   N16  Fs3
 BYTE   W18
 BYTE   N17  En3
 BYTE   N16  Gn3
 BYTE   W18
 BYTE   N11
 BYTE   N10  Dn4
 BYTE   W12
 BYTE   N92  Gn3
 BYTE   N92  Cs4
 BYTE   W30
// 031   ----------------------------------------
 BYTE   W66
 BYTE   N17  As3
 BYTE   N16  En4
 BYTE   W18
 BYTE   N17  An3
 BYTE   N16  Ds4
 BYTE   W12
// 032   ----------------------------------------
 BYTE   W06
 BYTE   N22  Gs3
 BYTE   N22  Dn4
 BYTE   W24
 BYTE   N11  Gn3
 BYTE   N11  Cs4
 BYTE   W12
 BYTE   N10  Fs3
 BYTE   N12  Cn4
 BYTE   W12
 BYTE   N11  Gn3
 BYTE   N12  Cs4
 BYTE   W12
 BYTE   N17  As3
 BYTE   N16  En4
 BYTE   W18
 BYTE   N17  An3
 BYTE   N16  Ds4
 BYTE   W12
// 033   ----------------------------------------
 BYTE   W06
 BYTE   N22  Gs3
 BYTE   N22  Dn4
 BYTE   W24
 BYTE   N10  Gn3
 BYTE   N11  Cs4
 BYTE   W12
 BYTE   N10  Fs3
 BYTE   N12  Cn4
 BYTE   W12
 BYTE   N10  Fn3
 BYTE   N11  Bn3
 BYTE   W12
 BYTE   N17  An3
 BYTE   W18
 BYTE   N16  Cn4
 BYTE   W12
// 034   ----------------------------------------
 BYTE   W06
 BYTE   N11  En4
 BYTE   W12
 BYTE   N12  Dn4
 BYTE   W12
 BYTE   N10  Bn3
 BYTE   W12
 BYTE   Cn4
 BYTE   W12
 BYTE   N12  Gn4
 BYTE   W12
 BYTE   N11  En4
 BYTE   W12
 BYTE   N06  Fn4
 BYTE   W06
 BYTE   N10  Dn4
 BYTE   W12
// 035   ----------------------------------------
 BYTE   En4
 BYTE   W12
 BYTE   N06  Cn4
 BYTE   W06
 BYTE   N12  Dn4
 BYTE   W12
 BYTE   N17  An3
 BYTE   W18
 BYTE   N16  Cn4
 BYTE   W18
 BYTE   N11  En4
 BYTE   W12
 BYTE   N12  Dn4
 BYTE   W12
 BYTE   N10  Bn3
 BYTE   W06
// 036   ----------------------------------------
 BYTE   W06
 BYTE   Cn4
 BYTE   W12
 BYTE   N11  An4
 BYTE   W12
 BYTE   Fs4
 BYTE   W12
 BYTE   N06  Gn4
 BYTE   W06
 BYTE   N11  En4
 BYTE   W12
 BYTE   N10  Fs4
 BYTE   W12
 BYTE   N06  Dn4
 BYTE   W06
 BYTE   N11  En4
 BYTE   W12
 BYTE   N17  An3
 BYTE   W06
// 037   ----------------------------------------
 BYTE   W12
 BYTE   N16  Cn4
 BYTE   W18
 BYTE   N11  En4
 BYTE   W12
 BYTE   N12  Dn4
 BYTE   W12
 BYTE   N10  Bn3
 BYTE   W12
 BYTE   Cn4
 BYTE   W12
 BYTE   N12  Gn4
 BYTE   W12
 BYTE   N11  En4
 BYTE   W06
// 038   ----------------------------------------
 BYTE   W06
 BYTE   N06  Fn4
 BYTE   W06
 BYTE   N10  Dn4
 BYTE   W12
 BYTE   En4
 BYTE   W12
 BYTE   N06  Cn4
 BYTE   W06
 BYTE   N12  Dn4
 BYTE   W12
 BYTE   N17  An3
 BYTE   W18
 BYTE   N16  Cn4
 BYTE   W18
 BYTE   N11  En4
 BYTE   W06
// 039   ----------------------------------------
 BYTE   W06
 BYTE   N12  Dn4
 BYTE   W12
 BYTE   N10  Bn3
 BYTE   W12
 BYTE   Cn4
 BYTE   W12
 BYTE   N11  An4
 BYTE   W12
 BYTE   Fs4
 BYTE   W12
 BYTE   N06  Gn4
 BYTE   W06
 BYTE   N11  En4
 BYTE   W12
 BYTE   N10  Fs4
 BYTE   W12
// 040   ----------------------------------------
 BYTE   N06  Dn4
 BYTE   W06
 BYTE   N11  En4
 BYTE   W12
 BYTE   N06  Bn3
 BYTE   N06  Ds4
 BYTE   W06
 BYTE   Bn3
 BYTE   N06  Ds4
 BYTE   W06
 BYTE   Fs3
 BYTE   N06  Bn3
 BYTE   W06
 BYTE   Fs3
 BYTE   N06  Bn3
 BYTE   W06
 BYTE   N06
 BYTE   N06  Ds4
 BYTE   N06  Gn4
 BYTE   W06
 BYTE   Fs3
 BYTE   N06  Bn3
 BYTE   W06
 BYTE   Fs3
 BYTE   N06  Bn3
 BYTE   W06
 BYTE   Fs4
 BYTE   N06  An4
 BYTE   W06
 BYTE   Fs4
 BYTE   N06  An4
 BYTE   W06
 BYTE   En4
 BYTE   N06  Gn4
 BYTE   W06
 BYTE   Bn3
 BYTE   N06  Ds4
 BYTE   N06  Fs4
 BYTE   W06
 BYTE   Bn3
 BYTE   N06  Ds4
 BYTE   N06  Fs4
 BYTE   W06
 BYTE   Fs3
 BYTE   N06  Bn3
 BYTE   W06
// 041   ----------------------------------------
 BYTE   Fs3
 BYTE   N06  Bn3
 BYTE   W06
 BYTE   N06
 BYTE   N06  Ds4
 BYTE   W06
 BYTE   Bn3
 BYTE   N06  Ds4
 BYTE   W06
 BYTE   Fs3
 BYTE   N06  Bn3
 BYTE   W06
 BYTE   Fs3
 BYTE   N06  Bn3
 BYTE   W06
 BYTE   N06
 BYTE   N06  Ds4
 BYTE   N06  Gn4
 BYTE   W06
 BYTE   Fs3
 BYTE   N06  Bn3
 BYTE   W06
 BYTE   Fs3
 BYTE   N06  Bn3
 BYTE   W06
 BYTE   Fs4
 BYTE   N06  An4
 BYTE   W06
 BYTE   Fs4
 BYTE   N06  An4
 BYTE   W06
 BYTE   En4
 BYTE   N06  Gn4
 BYTE   W06
 BYTE   Bn3
 BYTE   N06  Ds4
 BYTE   N06  Fs4
 BYTE   W06
 BYTE   Bn3
 BYTE   N06  Ds4
 BYTE   N06  Fs4
 BYTE   W06
 BYTE   Fs3
 BYTE   N06  Bn3
 BYTE   W06
 BYTE   Fs3
 BYTE   N06  Bn3
 BYTE   W06
 BYTE   Cn4
 BYTE   N06  En4
 BYTE   W06
// 042   ----------------------------------------
 BYTE   Cn4
 BYTE   N06  En4
 BYTE   W06
 BYTE   Gn3
 BYTE   N06  Cn4
 BYTE   W06
 BYTE   Gn3
 BYTE   N06  Cn4
 BYTE   W06
 BYTE   N06
 BYTE   N06  En4
 BYTE   N06  Gn4
 BYTE   W06
 BYTE   Gn3
 BYTE   N06  Cn4
 BYTE   W06
 BYTE   Gn3
 BYTE   N06  Cn4
 BYTE   W06
 BYTE   Gn4
 BYTE   N06  Bn4
 BYTE   W06
 BYTE   Gn4
 BYTE   N06  Bn4
 BYTE   W06
 BYTE   Fn4
 BYTE   N06  An4
 BYTE   W06
 BYTE   Cn4
 BYTE   N06  En4
 BYTE   N06  Gn4
 BYTE   W06
 BYTE   Cn4
 BYTE   N06  En4
 BYTE   N06  Gn4
 BYTE   W06
 BYTE   Gn3
 BYTE   N06  Cn4
 BYTE   W06
 BYTE   Gn3
 BYTE   N06  Cn4
 BYTE   W06
 BYTE   N06
 BYTE   N06  En4
 BYTE   W06
 BYTE   Cn4
 BYTE   N06  En4
 BYTE   W06
 BYTE   Gn3
 BYTE   N06  Cn4
 BYTE   W06
// 043   ----------------------------------------
 BYTE   Gn3
 BYTE   N06  Cn4
 BYTE   W06
 BYTE   N06
 BYTE   N06  En4
 BYTE   N06  Gn4
 BYTE   W06
 BYTE   Gn3
 BYTE   N06  Cn4
 BYTE   W06
 BYTE   Gn3
 BYTE   N06  Cn4
 BYTE   W06
 BYTE   Gn4
 BYTE   N06  Bn4
 BYTE   W06
 BYTE   Gn4
 BYTE   N06  Bn4
 BYTE   W06
 BYTE   Fn4
 BYTE   N06  An4
 BYTE   W06
 BYTE   Cn4
 BYTE   N06  En4
 BYTE   N06  Gn4
 BYTE   W06
 BYTE   Cn4
 BYTE   N06  En4
 BYTE   N06  Gn4
 BYTE   W06
 BYTE   Gn3
 BYTE   N06  Cn4
 BYTE   W06
 BYTE   Gn3
 BYTE   N06  Cn4
 BYTE   W06
 BYTE   Bn3
 BYTE   N06  Ds4
 BYTE   W06
 BYTE   Bn3
 BYTE   N06  Ds4
 BYTE   W06
 BYTE   Fs3
 BYTE   N06  Bn3
 BYTE   W06
 BYTE   Fs3
 BYTE   N06  Bn3
 BYTE   W06
 BYTE   N06
 BYTE   N06  Ds4
 BYTE   N06  Gn4
 BYTE   W06
// 044   ----------------------------------------
 BYTE   Fs3
 BYTE   N06  Bn3
 BYTE   W06
 BYTE   Fs3
 BYTE   N06  Bn3
 BYTE   W06
 BYTE   Fs4
 BYTE   N06  An4
 BYTE   W06
 BYTE   Fs4
 BYTE   N06  An4
 BYTE   W06
 BYTE   En4
 BYTE   N06  Gn4
 BYTE   W06
 BYTE   Bn3
 BYTE   N06  Ds4
 BYTE   N06  Fs4
 BYTE   W06
 BYTE   Bn3
 BYTE   N06  Ds4
 BYTE   N06  Fs4
 BYTE   W06
 BYTE   Fs3
 BYTE   N06  Bn3
 BYTE   W06
 BYTE   Fs3
 BYTE   N06  Bn3
 BYTE   W06
 BYTE   N06
 BYTE   N06  Ds4
 BYTE   W06
 BYTE   Bn3
 BYTE   N06  Ds4
 BYTE   W06
 BYTE   Fs3
 BYTE   N06  Bn3
 BYTE   W06
 BYTE   Fs3
 BYTE   N06  Bn3
 BYTE   W06
 BYTE   N06
 BYTE   N06  Ds4
 BYTE   N06  Gn4
 BYTE   W06
 BYTE   Fs3
 BYTE   N06  Bn3
 BYTE   W06
 BYTE   Fs3
 BYTE   N06  Bn3
 BYTE   W06
// 045   ----------------------------------------
 BYTE   Fs4
 BYTE   N06  An4
 BYTE   W06
 BYTE   Fs4
 BYTE   N06  An4
 BYTE   W06
 BYTE   En4
 BYTE   N06  Gn4
 BYTE   W06
 BYTE   Bn3
 BYTE   N06  Ds4
 BYTE   N06  Fs4
 BYTE   W06
 BYTE   Bn3
 BYTE   N06  Ds4
 BYTE   N06  Fs4
 BYTE   W06
 BYTE   Fs3
 BYTE   N06  Bn3
 BYTE   W06
 BYTE   Fs3
 BYTE   N06  Bn3
 BYTE   W06
 BYTE   Cn4
 BYTE   N06  En4
 BYTE   W06
 BYTE   Cn4
 BYTE   N06  En4
 BYTE   W06
 BYTE   Gn3
 BYTE   N06  Cn4
 BYTE   W06
 BYTE   Gn3
 BYTE   N06  Cn4
 BYTE   W06
 BYTE   N06
 BYTE   N06  En4
 BYTE   N06  Gn4
 BYTE   W06
 BYTE   Gn3
 BYTE   N06  Cn4
 BYTE   W06
 BYTE   Gn3
 BYTE   N06  Cn4
 BYTE   W06
 BYTE   Gn4
 BYTE   N06  Bn4
 BYTE   W06
 BYTE   Gn4
 BYTE   N06  Bn4
 BYTE   W06
// 046   ----------------------------------------
 BYTE   Fn4
 BYTE   N06  An4
 BYTE   W06
 BYTE   Cn4
 BYTE   N06  En4
 BYTE   N06  Gn4
 BYTE   W06
 BYTE   Cn4
 BYTE   N06  En4
 BYTE   N06  Gn4
 BYTE   W06
 BYTE   Gn3
 BYTE   N06  Cn4
 BYTE   W06
 BYTE   Gn3
 BYTE   N06  Cn4
 BYTE   W06
 BYTE   N06
 BYTE   N06  En4
 BYTE   W06
 BYTE   Cn4
 BYTE   N06  En4
 BYTE   W06
 BYTE   Gn3
 BYTE   N06  Cn4
 BYTE   W06
 BYTE   Gn3
 BYTE   N06  Cn4
 BYTE   W06
 BYTE   N06
 BYTE   N06  En4
 BYTE   N06  Gn4
 BYTE   W06
 BYTE   Gn3
 BYTE   N06  Cn4
 BYTE   W06
 BYTE   Gn3
 BYTE   N06  Cn4
 BYTE   W06
 BYTE   Gn4
 BYTE   N06  Bn4
 BYTE   W06
 BYTE   Gn4
 BYTE   N06  Bn4
 BYTE   W06
 BYTE   Fn4
 BYTE   N06  An4
 BYTE   W06
 BYTE   Cn4
 BYTE   N06  En4
 BYTE   N06  Gn4
 BYTE   W06
// 047   ----------------------------------------
 BYTE   Cn4
 BYTE   N06  En4
 BYTE   N06  Gn4
 BYTE   W06
 BYTE   Gn3
 BYTE   N06  Cn4
 BYTE   W06
 BYTE   Gn3
 BYTE   N06  Cn4
 BYTE   W06
 BYTE   N03  Bn4
 BYTE   W06
 BYTE   N04  An4
 BYTE   W06
 BYTE   Gn4
 BYTE   W06
 BYTE   N03  Fs4
 BYTE   W06
 BYTE   N04  En4
 BYTE   W06
 BYTE   Ds4
 BYTE   W06
 BYTE   Dn4
 BYTE   W06
 BYTE   N03  Bn3
 BYTE   W06
 BYTE   An3
 BYTE   W06
 BYTE   N04  En4
 BYTE   W06
 BYTE   Ds4
 BYTE   W06
 BYTE   Cn4
 BYTE   W06
 BYTE   Bn3
 BYTE   W06
// 048   ----------------------------------------
 BYTE   An3
 BYTE   W06
 BYTE   N05  Gn3
 BYTE   W06
 BYTE   N04  Fs3
 BYTE   W06
 BYTE   N44  Bn2
 BYTE   N44  En3
 BYTE   W48
 BYTE   N22  Dn3
 BYTE   N22  Fs3
 BYTE   W24
 BYTE   N23  En3
 BYTE   N22  Gn3
 BYTE   W06
// 049   ----------------------------------------
 BYTE   W18
 BYTE   N92  En3
 BYTE   N92  As3
 BYTE   W78
// 050   ----------------------------------------
 BYTE   W18
 BYTE   N36  En3
 BYTE   N32  Bn3
 BYTE   W36
 BYTE   N11  En3
 BYTE   N11  Bn3
 BYTE   W12
 BYTE   N17  As3
 BYTE   N17  En4
 BYTE   W18
 BYTE   N16  An3
 BYTE   N17  Ds4
 BYTE   W12
// 051   ----------------------------------------
 BYTE   W06
 BYTE   N10  Gs3
 BYTE   N11  Dn4
 BYTE   W12
 BYTE   N44  Gn3
 BYTE   N44  Cs4
 BYTE   W48
 BYTE   Cs3
 BYTE   N44  Gn3
 BYTE   W30
// 052   ----------------------------------------
 BYTE   W18
 BYTE   Bn2
 BYTE   N44  En3
 BYTE   W48
 BYTE   N17  Dn3
 BYTE   N16  Fs3
 BYTE   W18
 BYTE   N17  En3
 BYTE   N16  Gn3
 BYTE   W12
// 053   ----------------------------------------
 BYTE   W06
 BYTE   N11
 BYTE   N10  Dn4
 BYTE   W12
 BYTE   N92  Gn3
 BYTE   N92  Cs4
 BYTE   W78
// 054   ----------------------------------------
 BYTE   W96
// 055   ----------------------------------------
 BYTE   GoTo
  POIN2 Label_6_014530B3
 BYTE   FINE

//**************** Track 8 (Midi-Chn.7) ****************//

GoldenSunSaturosandMenardiBattleMrGreen3339_008:
// 000   ----------------------------------------
 BYTE   VOL   55*GoldenSunSaturosandMenardiBattleMrGreen3339_mvl/mxv
 BYTE   KEYSH   GoldenSunSaturosandMenardiBattleMrGreen3339_key+0
 BYTE   VOICE   127
 BYTE   W42
 BYTE   N03  Dn1  v052
 BYTE   N03  En1  v127
 BYTE   W03
 BYTE   Dn1  v052
 BYTE   N03  En1  v127
 BYTE   W03
 BYTE   Dn1  v052
 BYTE   N03  En1  v127
 BYTE   N48  An2
 BYTE   W03
 BYTE   N03  Dn1  v052
 BYTE   N03  En1  v127
 BYTE   W03
 BYTE   Dn1  v052
 BYTE   N03  En1  v127
 BYTE   W03
 BYTE   Dn1  v052
 BYTE   N03  En1  v127
 BYTE   W03
 BYTE   Dn2
 BYTE   W03
 BYTE   N03
 BYTE   W03
 BYTE   N03
 BYTE   W03
 BYTE   N03
 BYTE   W03
 BYTE   An1
 BYTE   W03
 BYTE   N03
 BYTE   W03
 BYTE   N03
 BYTE   W03
 BYTE   N03
 BYTE   W03
 BYTE   Gn1
 BYTE   W03
 BYTE   N03
 BYTE   W03
 BYTE   N03
 BYTE   W03
 BYTE   N03
 BYTE   W03
// 001   ----------------------------------------
Label_7_01453663:
 BYTE   N06  Bn0  v127
 BYTE   N11  As1  v040
 BYTE   N44  An2  v127
 BYTE   W12
 BYTE   N06  Bn0
 BYTE   N06  Gs1  v040
 BYTE   W06
 BYTE   N06
 BYTE   W06
 BYTE   Dn1  v060
 BYTE   N06  En1  v127
 BYTE   N10  As1  v040
 BYTE   W12
 BYTE   N06  Bn0  v127
 BYTE   N06  Gs1  v040
 BYTE   W06
 BYTE   Bn0  v127
 BYTE   N06  Gs1  v040
 BYTE   W06
 BYTE   Fs1
 BYTE   W06
 BYTE   Bn0  v127
 BYTE   W06
 BYTE   N06
 BYTE   N06  Gs1  v040
 BYTE   W06
 BYTE   N06
 BYTE   W06
 BYTE   Dn1  v060
 BYTE   N06  En1  v127
 BYTE   N12  As1  v040
 BYTE   W12
 BYTE   N06  Bn0  v127
 BYTE   N06  Gs1  v040
 BYTE   W06
 BYTE   N06
 BYTE   W06
 BYTE   PEND 
// 002   ----------------------------------------
Label_7_014536AA:
 BYTE   N06  Bn0  v127
 BYTE   N11  As1  v040
 BYTE   W12
 BYTE   N06  Bn0  v127
 BYTE   N06  Gs1  v040
 BYTE   W06
 BYTE   N06
 BYTE   W06
 BYTE   Dn1  v060
 BYTE   N06  En1  v127
 BYTE   N10  As1  v040
 BYTE   W12
 BYTE   N06  Bn0  v127
 BYTE   N06  Gs1  v040
 BYTE   W06
 BYTE   Bn0  v127
 BYTE   N06  Gs1  v040
 BYTE   W06
 BYTE   Fs1
 BYTE   W06
 BYTE   Bn0  v127
 BYTE   W06
 BYTE   N06
 BYTE   N06  Gs1  v040
 BYTE   W06
 BYTE   N06
 BYTE   W06
 BYTE   Dn1  v060
 BYTE   N06  En1  v127
 BYTE   N12  As1  v040
 BYTE   W12
 BYTE   N06  Bn0  v127
 BYTE   N06  Dn1  v048
 BYTE   N06  En1  v127
 BYTE   N06  Gs1  v040
 BYTE   W06
 BYTE   Dn1  v048
 BYTE   N06  En1  v127
 BYTE   N06  Gs1  v040
 BYTE   W06
 BYTE   PEND 
// 003   ----------------------------------------
Label_7_014536FC:
 BYTE   N06  Bn0  v127
 BYTE   N11  As1  v040
 BYTE   W12
 BYTE   N06  Bn0  v127
 BYTE   N06  Gs1  v040
 BYTE   W06
 BYTE   N06
 BYTE   W06
 BYTE   Dn1  v060
 BYTE   N06  En1  v127
 BYTE   N10  As1  v040
 BYTE   W12
 BYTE   N06  Bn0  v127
 BYTE   N06  Gs1  v040
 BYTE   W06
 BYTE   Bn0  v127
 BYTE   N06  Gs1  v040
 BYTE   W06
 BYTE   Fs1
 BYTE   W06
 BYTE   Bn0  v127
 BYTE   W06
 BYTE   N06
 BYTE   N06  Gs1  v040
 BYTE   W06
 BYTE   N06
 BYTE   W06
 BYTE   Dn1  v060
 BYTE   N06  En1  v127
 BYTE   N12  As1  v040
 BYTE   W12
 BYTE   N06  Bn0  v127
 BYTE   N06  Gs1  v040
 BYTE   W06
 BYTE   N06
 BYTE   W06
 BYTE   PEND 
 BYTE   PATT
  POIN2 Label_7_014536AA
 BYTE   PATT
  POIN2 Label_7_01453663
 BYTE   PATT
  POIN2 Label_7_014536AA
// 004   ----------------------------------------
Label_7_01453750:
 BYTE   N06  Dn1  v056
 BYTE   N06  En1  v127
 BYTE   N20  An2
 BYTE   W18
 BYTE   N06  Bn0
 BYTE   W18
 BYTE   Dn1  v056
 BYTE   N06  En1  v127
 BYTE   N19  An2
 BYTE   W24
 BYTE   N06  Bn0
 BYTE   W12
 BYTE   N06
 BYTE   N06  Cn2
 BYTE   W06
 BYTE   Bn1
 BYTE   W06
 BYTE   Bn0
 BYTE   N06  An1
 BYTE   W06
 BYTE   Gn1
 BYTE   W06
 BYTE   PEND 
// 005   ----------------------------------------
Label_7_01453774:
 BYTE   N06  Dn1  v056
 BYTE   N06  En1  v127
 BYTE   N20  An2
 BYTE   W18
 BYTE   N06  Bn0
 BYTE   W18
 BYTE   Dn1  v056
 BYTE   N06  En1  v127
 BYTE   N19  An2
 BYTE   W24
 BYTE   N06  Bn0
 BYTE   W12
 BYTE   N06
 BYTE   N06  Dn1  v064
 BYTE   N06  En1  v127
 BYTE   W12
 BYTE   Bn0
 BYTE   N06  Dn1  v064
 BYTE   N06  En1  v127
 BYTE   W06
 BYTE   Dn1  v064
 BYTE   N06  En1  v127
 BYTE   W06
 BYTE   PEND 
 BYTE   PATT
  POIN2 Label_7_01453663
 BYTE   PATT
  POIN2 Label_7_014536AA
 BYTE   PATT
  POIN2 Label_7_014536FC
 BYTE   PATT
  POIN2 Label_7_014536AA
 BYTE   PATT
  POIN2 Label_7_01453663
 BYTE   PATT
  POIN2 Label_7_014536AA
 BYTE   PATT
  POIN2 Label_7_01453750
 BYTE   PATT
  POIN2 Label_7_01453774
// 006   ----------------------------------------
 BYTE   N06  Bn0  v127
 BYTE   N06  Gs1  v052
 BYTE   N54  An2  v127
 BYTE   W18
 BYTE   N06  Bn0
 BYTE   N06  Gs1  v052
 BYTE   W18
 BYTE   Bn0  v127
 BYTE   N06  Dn1  v052
 BYTE   N06  En1  v127
 BYTE   N06  Gs1  v052
 BYTE   W18
 BYTE   Cn2  v127
 BYTE   W06
 BYTE   Bn0
 BYTE   N06  Gs1  v052
 BYTE   W06
 BYTE   Bn1  v127
 BYTE   W06
 BYTE   Bn0
 BYTE   N06  Gs1  v052
 BYTE   W06
 BYTE   An1  v127
 BYTE   W06
 BYTE   Bn0
 BYTE   N06  Gs1  v052
 BYTE   W12
// 007   ----------------------------------------
 BYTE   Bn0  v127
 BYTE   N06  Gs1  v052
 BYTE   N06  Bn1  v127
 BYTE   W06
 BYTE   N06
 BYTE   W06
 BYTE   N06
 BYTE   W06
 BYTE   Gn1
 BYTE   N06  Gs1  v052
 BYTE   W06
 BYTE   Bn0  v127
 BYTE   N06  Gn1
 BYTE   W06
 BYTE   N06
 BYTE   W06
 BYTE   Bn0
 BYTE   N06  Gs1  v052
 BYTE   N54  An2  v127
 BYTE   W18
 BYTE   N06  Bn0
 BYTE   N06  Gs1  v052
 BYTE   W18
 BYTE   Bn0  v127
 BYTE   N06  Dn1  v052
 BYTE   N06  En1  v127
 BYTE   N06  Gs1  v052
 BYTE   W18
 BYTE   Cn2  v127
 BYTE   W06
// 008   ----------------------------------------
 BYTE   Bn0
 BYTE   N06  Gs1  v052
 BYTE   W06
 BYTE   Bn1  v127
 BYTE   W06
 BYTE   Bn0
 BYTE   N06  Gs1  v052
 BYTE   W06
 BYTE   An1  v127
 BYTE   W06
 BYTE   Bn0
 BYTE   N06  Gs1  v052
 BYTE   W12
 BYTE   Bn0  v127
 BYTE   N06  Dn1  v060
 BYTE   N06  En1  v127
 BYTE   N06  Gs1  v052
 BYTE   N06  Bn1  v127
 BYTE   W06
 BYTE   Dn1  v060
 BYTE   N06  En1  v127
 BYTE   N06  Bn1
 BYTE   W06
 BYTE   Dn1  v060
 BYTE   N06  En1  v127
 BYTE   N06  Bn1
 BYTE   W06
 BYTE   Gn1
 BYTE   N06  Gs1  v052
 BYTE   N06  An1  v127
 BYTE   W06
 BYTE   Bn0
 BYTE   N06  Gn1
 BYTE   W06
 BYTE   N06
 BYTE   W06
 BYTE   Bn0
 BYTE   N06  Gs1  v052
 BYTE   N54  An2  v127
 BYTE   W18
 BYTE   N06  Bn0
 BYTE   N06  Gs1  v052
 BYTE   W06
// 009   ----------------------------------------
 BYTE   W12
 BYTE   Bn0  v127
 BYTE   N06  Dn1  v052
 BYTE   N06  En1  v127
 BYTE   N06  Gs1  v052
 BYTE   W18
 BYTE   Cn2  v127
 BYTE   W06
 BYTE   Bn0
 BYTE   N06  Gs1  v052
 BYTE   W06
 BYTE   Bn1  v127
 BYTE   W06
 BYTE   Bn0
 BYTE   N06  Gs1  v052
 BYTE   W06
 BYTE   An1  v127
 BYTE   W06
 BYTE   Bn0
 BYTE   N06  Gs1  v052
 BYTE   W12
 BYTE   Bn0  v127
 BYTE   N06  Gs1  v052
 BYTE   N06  Bn1  v127
 BYTE   W06
 BYTE   N06
 BYTE   W06
 BYTE   N06
 BYTE   W06
 BYTE   Gn1
 BYTE   N06  Gs1  v052
 BYTE   W06
// 010   ----------------------------------------
 BYTE   Bn0  v127
 BYTE   N06  Gn1
 BYTE   W06
 BYTE   N06
 BYTE   W06
 BYTE   Bn0
 BYTE   N06  Gs1  v052
 BYTE   N54  An2  v127
 BYTE   W18
 BYTE   N06  Bn0
 BYTE   N06  Gs1  v052
 BYTE   W18
 BYTE   Bn0  v127
 BYTE   N06  Dn1  v052
 BYTE   N06  En1  v127
 BYTE   N06  Gs1  v052
 BYTE   W18
 BYTE   Cn2  v127
 BYTE   W06
 BYTE   Bn0
 BYTE   N06  Gs1  v052
 BYTE   W06
 BYTE   Bn1  v127
 BYTE   W06
 BYTE   Bn0
 BYTE   N06  Gs1  v052
 BYTE   W06
 BYTE   An1  v127
 BYTE   W06
// 011   ----------------------------------------
 BYTE   Bn0
 BYTE   N06  Gs1  v052
 BYTE   W12
 BYTE   Bn0  v127
 BYTE   N06  Gs1  v064
 BYTE   N54  An2  v127
 BYTE   W12
 BYTE   N06  Gs1  v064
 BYTE   W06
 BYTE   Bn0  v127
 BYTE   W06
 BYTE   Gs1  v064
 BYTE   W12
 BYTE   Dn1  v056
 BYTE   N06  En1  v127
 BYTE   N06  Gs1  v064
 BYTE   W06
 BYTE   Bn0  v127
 BYTE   W06
 BYTE   Gs1  v064
 BYTE   W06
 BYTE   Dn1  v056
 BYTE   N06  En1  v127
 BYTE   W06
 BYTE   Bn0
 BYTE   N06  Gs1  v064
 BYTE   W06
 BYTE   As1
 BYTE   W06
 BYTE   Gs1
 BYTE   W06
 BYTE   Bn0  v127
 BYTE   N06  Gn1  v092
 BYTE   N06  As1  v064
 BYTE   W06
// 012   ----------------------------------------
 BYTE   Dn1  v056
 BYTE   N06  En1  v127
 BYTE   N06  Gs1  v064
 BYTE   W06
 BYTE   Dn1  v056
 BYTE   N06  En1  v127
 BYTE   N06  As1  v064
 BYTE   W06
 BYTE   Bn0  v127
 BYTE   N11  As1  v040
 BYTE   N44  An2  v127
 BYTE   W12
 BYTE   N06  Bn0
 BYTE   N06  Gs1  v040
 BYTE   W06
 BYTE   N06
 BYTE   W06
 BYTE   Dn1  v060
 BYTE   N06  En1  v127
 BYTE   N10  As1  v040
 BYTE   W12
 BYTE   N06  Bn0  v127
 BYTE   N06  Gs1  v040
 BYTE   W06
 BYTE   Bn0  v127
 BYTE   N06  Gs1  v040
 BYTE   W06
 BYTE   Fs1
 BYTE   W06
 BYTE   Bn0  v127
 BYTE   W06
 BYTE   N06
 BYTE   N06  Gs1  v040
 BYTE   W06
 BYTE   N06
 BYTE   W06
 BYTE   Dn1  v060
 BYTE   N06  En1  v127
 BYTE   N12  As1  v040
 BYTE   W12
// 013   ----------------------------------------
Label_7_0145397C:
 BYTE   N06  Bn0  v127
 BYTE   N06  Gs1  v040
 BYTE   W06
 BYTE   N06
 BYTE   W06
 BYTE   Bn0  v127
 BYTE   N11  As1  v040
 BYTE   W12
 BYTE   N06  Bn0  v127
 BYTE   N06  Gs1  v040
 BYTE   W06
 BYTE   N06
 BYTE   W06
 BYTE   Dn1  v060
 BYTE   N06  En1  v127
 BYTE   N10  As1  v040
 BYTE   W12
 BYTE   N06  Bn0  v127
 BYTE   N06  Gs1  v040
 BYTE   W06
 BYTE   Bn0  v127
 BYTE   N06  Gs1  v040
 BYTE   W06
 BYTE   Fs1
 BYTE   W06
 BYTE   Bn0  v127
 BYTE   W06
 BYTE   N06
 BYTE   N06  Gs1  v040
 BYTE   W06
 BYTE   N06
 BYTE   W06
 BYTE   Dn1  v060
 BYTE   N06  En1  v127
 BYTE   N12  As1  v040
 BYTE   W12
 BYTE   PEND 
// 014   ----------------------------------------
 BYTE   N06  Bn0  v127
 BYTE   N06  Dn1  v048
 BYTE   N06  En1  v127
 BYTE   N06  Gs1  v040
 BYTE   W06
 BYTE   Dn1  v048
 BYTE   N06  En1  v127
 BYTE   N06  Gs1  v040
 BYTE   W06
 BYTE   Bn0  v127
 BYTE   N06  Gs1  v052
 BYTE   W18
 BYTE   Bn0  v127
 BYTE   N06  Gs1  v052
 BYTE   W18
 BYTE   Bn0  v127
 BYTE   N06  Dn1  v052
 BYTE   N06  En1  v127
 BYTE   N06  Gs1  v052
 BYTE   W12
 BYTE   N42  An2  v127
 BYTE   W36
// 015   ----------------------------------------
 BYTE   W12
 BYTE   N06  Bn0
 BYTE   N06  Dn1  v044
 BYTE   N06  En1  v127
 BYTE   W06
 BYTE   Dn1  v044
 BYTE   N06  En1  v127
 BYTE   W06
 BYTE   Dn1  v044
 BYTE   N06  En1  v127
 BYTE   W06
 BYTE   Dn1  v044
 BYTE   N06  En1  v127
 BYTE   W06
 BYTE   Bn0
 BYTE   N06  Bn1
 BYTE   W06
 BYTE   N06
 BYTE   W06
 BYTE   An1
 BYTE   W06
 BYTE   N06
 BYTE   W06
 BYTE   Bn0
 BYTE   N06  Gn1
 BYTE   W06
 BYTE   N06
 BYTE   W06
 BYTE   N06
 BYTE   W06
 BYTE   N06
 BYTE   W06
 BYTE   Bn0
 BYTE   N06  Fn1
 BYTE   W06
 BYTE   N06
 BYTE   W06
// 016   ----------------------------------------
 BYTE   N06
 BYTE   W06
 BYTE   N06
 BYTE   W06
 BYTE   Dn1  v060
 BYTE   N06  En1  v127
 BYTE   N06  Fn2
 BYTE   N44  An2
 BYTE   W12
 BYTE   N06  Bn0
 BYTE   W12
 BYTE   Dn1  v060
 BYTE   N06  En1  v127
 BYTE   N06  Fn2
 BYTE   W06
 BYTE   Bn0
 BYTE   W12
 BYTE   N06
 BYTE   W06
 BYTE   Dn1  v060
 BYTE   N06  En1  v127
 BYTE   N06  Fn2
 BYTE   W12
 BYTE   Bn0
 BYTE   W12
 BYTE   Dn1  v060
 BYTE   N06  En1  v127
 BYTE   N06  Fn2
 BYTE   W12
// 017   ----------------------------------------
 BYTE   Bn0
 BYTE   W12
 BYTE   Dn1  v060
 BYTE   N06  En1  v127
 BYTE   N06  Fn2
 BYTE   W06
 BYTE   Bn0
 BYTE   W12
 BYTE   N06
 BYTE   W06
 BYTE   Dn1  v060
 BYTE   N06  En1  v127
 BYTE   N06  Fn2
 BYTE   W12
 BYTE   Bn0
 BYTE   W12
 BYTE   Dn1  v056
 BYTE   N06  En1  v127
 BYTE   N28  An2
 BYTE   W12
 BYTE   N06  Bn0
 BYTE   W24
// 018   ----------------------------------------
 BYTE   Dn1  v056
 BYTE   N06  En1  v127
 BYTE   N24  An2
 BYTE   W24
 BYTE   N06  Bn0
 BYTE   N06  An1
 BYTE   W06
 BYTE   Gn1
 BYTE   W06
 BYTE   Bn0
 BYTE   N06  Gn1
 BYTE   W06
 BYTE   Fn1
 BYTE   W06
 BYTE   Bn0
 BYTE   N06  Fn1
 BYTE   W06
 BYTE   N06
 BYTE   W06
 BYTE   Bn0
 BYTE   N06  Cn2
 BYTE   W06
 BYTE   N06
 BYTE   W06
 BYTE   Bn1
 BYTE   W06
 BYTE   Bn0
 BYTE   N06  Bn1
 BYTE   W06
 BYTE   An1
 BYTE   W06
 BYTE   N06
 BYTE   W06
// 019   ----------------------------------------
 BYTE   Bn0
 BYTE   N06  Gn1
 BYTE   N36  An2
 BYTE   W06
 BYTE   N06  Gn1
 BYTE   W06
 BYTE   An1
 BYTE   W06
 BYTE   N06
 BYTE   W06
 BYTE   Bn0
 BYTE   N06  Gn1
 BYTE   W06
 BYTE   N06
 BYTE   W06
 BYTE   Bn0
 BYTE   N06  Fn1
 BYTE   W06
 BYTE   N06
 BYTE   W06
 BYTE   Bn0
 BYTE   N06  Fn1
 BYTE   W06
 BYTE   N06
 BYTE   W06
 BYTE   Bn0
 BYTE   N06  Cn1
 BYTE   N06  As1  v044
 BYTE   N60  An2  v127
 BYTE   W12
 BYTE   N06  Dn1  v060
 BYTE   N06  En1  v127
 BYTE   N06  As1  v044
 BYTE   W06
 BYTE   Gs1
 BYTE   W06
 BYTE   Bn0  v127
 BYTE   N06  Cn1
 BYTE   N06  Fs1  v044
 BYTE   W06
 BYTE   Bn0  v127
 BYTE   N06  Cn1
 BYTE   W06
// 020   ----------------------------------------
Label_7_01453AE7:
 BYTE   N06  Dn1  v060
 BYTE   N06  En1  v127
 BYTE   N06  Fs1  v044
 BYTE   W12
 BYTE   Bn0  v127
 BYTE   N06  Cn1
 BYTE   N06  Fs1  v044
 BYTE   W06
 BYTE   Bn0  v127
 BYTE   N06  Cn1
 BYTE   N06  As1  v044
 BYTE   W06
 BYTE   Dn1  v060
 BYTE   N06  En1  v127
 BYTE   N06  Gs1  v044
 BYTE   W06
 BYTE   Bn0  v127
 BYTE   N06  Cn1
 BYTE   W06
 BYTE   Gs1  v044
 BYTE   W06
 BYTE   Bn0  v127
 BYTE   N06  Cn1
 BYTE   W06
 BYTE   Dn1  v060
 BYTE   N06  En1  v127
 BYTE   N06  Gs1  v044
 BYTE   W06
 BYTE   As1
 BYTE   W06
 BYTE   Bn0  v127
 BYTE   N06  Cn1
 BYTE   N06  As1  v044
 BYTE   W12
 BYTE   Dn1  v060
 BYTE   N06  En1  v127
 BYTE   N06  As1  v044
 BYTE   W06
 BYTE   Gs1
 BYTE   W06
 BYTE   Bn0  v127
 BYTE   N06  Cn1
 BYTE   N06  Fs1  v044
 BYTE   W06
 BYTE   Bn0  v127
 BYTE   N06  Cn1
 BYTE   W06
 BYTE   PEND 
 BYTE   PATT
  POIN2 Label_7_01453AE7
 BYTE   PATT
  POIN2 Label_7_01453AE7
// 021   ----------------------------------------
 BYTE   N06  Dn1  v060
 BYTE   N06  En1  v127
 BYTE   N06  Fs1  v044
 BYTE   W12
 BYTE   Bn0  v127
 BYTE   N06  Cn1
 BYTE   N06  Fs1  v044
 BYTE   W06
 BYTE   Bn0  v127
 BYTE   N06  Cn1
 BYTE   N06  As1  v044
 BYTE   W06
 BYTE   Dn1  v060
 BYTE   N06  En1  v127
 BYTE   N06  Gs1  v044
 BYTE   W06
 BYTE   Bn0  v127
 BYTE   N06  Cn1
 BYTE   W06
 BYTE   Gs1  v044
 BYTE   W06
 BYTE   Bn0  v127
 BYTE   N06  Cn1
 BYTE   W06
 BYTE   Dn1  v060
 BYTE   N06  En1  v127
 BYTE   N06  Gs1  v044
 BYTE   W06
 BYTE   As1
 BYTE   W06
 BYTE   Bn0  v127
 BYTE   N06  Cn1
 BYTE   N06  As1  v044
 BYTE   N21  An2  v127
 BYTE   W12
 BYTE   N06  Dn1  v060
 BYTE   N06  En1  v127
 BYTE   N06  As1  v044
 BYTE   W06
 BYTE   Gs1
 BYTE   W06
 BYTE   Bn0  v127
 BYTE   N06  Cn1
 BYTE   N06  Fs1  v044
 BYTE   W06
 BYTE   Bn0  v127
 BYTE   N06  Cn1
 BYTE   W06
 BYTE   PATT
  POIN2 Label_7_01453AE7
 BYTE   PATT
  POIN2 Label_7_01453AE7
// 022   ----------------------------------------
 BYTE   N06  Dn1  v060
 BYTE   N06  En1  v127
 BYTE   N06  Fs1  v044
 BYTE   W12
 BYTE   Bn0  v127
 BYTE   N06  Cn1
 BYTE   N06  Fs1  v044
 BYTE   W06
 BYTE   Bn0  v127
 BYTE   N06  Cn1
 BYTE   N06  As1  v044
 BYTE   W06
 BYTE   Dn1  v060
 BYTE   N06  En1  v127
 BYTE   N06  Gs1  v044
 BYTE   W06
 BYTE   Bn0  v127
 BYTE   N06  Cn1
 BYTE   W06
 BYTE   Gs1  v044
 BYTE   W06
 BYTE   Bn0  v127
 BYTE   N06  Cn1
 BYTE   W06
 BYTE   Dn1  v060
 BYTE   N06  En1  v127
 BYTE   N06  Gs1  v044
 BYTE   W06
 BYTE   As1
 BYTE   W06
 BYTE   Dn1  v076
 BYTE   N06  En1  v127
 BYTE   W06
 BYTE   Dn1  v076
 BYTE   N06  En1  v127
 BYTE   W06
 BYTE   Dn1  v076
 BYTE   N06  En1  v127
 BYTE   W06
 BYTE   Dn1  v076
 BYTE   N06  En1  v127
 BYTE   W06
 BYTE   Bn1
 BYTE   W06
 BYTE   N06
 BYTE   W06
// 023   ----------------------------------------
 BYTE   N06
 BYTE   W06
 BYTE   N06
 BYTE   W06
 BYTE   An1
 BYTE   W06
 BYTE   N06
 BYTE   W06
 BYTE   N06
 BYTE   W06
 BYTE   N06
 BYTE   W06
 BYTE   Bn0
 BYTE   N06  Gn1
 BYTE   W06
 BYTE   N06
 BYTE   W06
 BYTE   Bn0
 BYTE   N06  Gn1
 BYTE   W06
 BYTE   N06
 BYTE   W06
 BYTE   Bn0
 BYTE   N54  An2
 BYTE   W12
 BYTE   N06  Bn0
 BYTE   W06
 BYTE   N06
 BYTE   W06
 BYTE   Dn1  v064
 BYTE   N06  En1  v127
 BYTE   W12
// 024   ----------------------------------------
 BYTE   W12
 BYTE   An1
 BYTE   N06  Cn2
 BYTE   W06
 BYTE   An1
 BYTE   W06
 BYTE   Gn1
 BYTE   N06  An1
 BYTE   W06
 BYTE   Gn1
 BYTE   W06
 BYTE   Fn1
 BYTE   N06  Gn1
 BYTE   W06
 BYTE   Fn1
 BYTE   W06
 BYTE   Dn1  v064
 BYTE   N06  En1  v127
 BYTE   W12
 BYTE   Bn0
 BYTE   N06  Cn1
 BYTE   W12
 BYTE   Dn1  v044
 BYTE   N06  En1  v127
 BYTE   W12
 BYTE   Bn0
 BYTE   N06  Cn1
 BYTE   W06
 BYTE   Dn1  v044
 BYTE   N06  En1  v127
 BYTE   W06
// 025   ----------------------------------------
 BYTE   W06
 BYTE   Dn1  v044
 BYTE   N06  En1  v127
 BYTE   W06
 BYTE   Bn0
 BYTE   N06  Cn1
 BYTE   N06  An1
 BYTE   W06
 BYTE   Gn1
 BYTE   W06
 BYTE   Bn0
 BYTE   N54  An2
 BYTE   W12
 BYTE   N06  Bn0
 BYTE   W06
 BYTE   N06
 BYTE   W06
 BYTE   Dn1  v064
 BYTE   N06  En1  v127
 BYTE   W24
 BYTE   An1
 BYTE   N06  Cn2
 BYTE   W06
 BYTE   An1
 BYTE   W06
 BYTE   Gn1
 BYTE   N06  An1
 BYTE   W06
 BYTE   Gn1
 BYTE   W06
// 026   ----------------------------------------
 BYTE   Fn1
 BYTE   N06  Gn1
 BYTE   W06
 BYTE   Fn1
 BYTE   W06
 BYTE   Dn1  v064
 BYTE   N06  En1  v127
 BYTE   W12
 BYTE   Bn0
 BYTE   N06  Cn1
 BYTE   W12
 BYTE   Dn1  v044
 BYTE   N06  En1  v127
 BYTE   W12
 BYTE   Bn0
 BYTE   N06  Cn1
 BYTE   W06
 BYTE   Dn1  v044
 BYTE   N06  En1  v127
 BYTE   W12
 BYTE   Dn1  v044
 BYTE   N06  En1  v127
 BYTE   W06
 BYTE   Bn0
 BYTE   N06  Cn1
 BYTE   N06  An1
 BYTE   W06
 BYTE   Gn1
 BYTE   W06
 BYTE   Bn0
 BYTE   N54  An2
 BYTE   W12
// 027   ----------------------------------------
 BYTE   N06  Bn0
 BYTE   W06
 BYTE   N06
 BYTE   W06
 BYTE   Dn1  v064
 BYTE   N06  En1  v127
 BYTE   W24
 BYTE   An1
 BYTE   N06  Cn2
 BYTE   W06
 BYTE   An1
 BYTE   W06
 BYTE   Gn1
 BYTE   N06  An1
 BYTE   W06
 BYTE   Gn1
 BYTE   W06
 BYTE   Fn1
 BYTE   N06  Gn1
 BYTE   W06
 BYTE   Fn1
 BYTE   W06
 BYTE   Dn1  v064
 BYTE   N06  En1  v127
 BYTE   W12
 BYTE   Bn0
 BYTE   N06  Cn1
 BYTE   W12
// 028   ----------------------------------------
 BYTE   Dn1  v044
 BYTE   N06  En1  v127
 BYTE   W12
 BYTE   Bn0
 BYTE   N06  Cn1
 BYTE   W06
 BYTE   Dn1  v044
 BYTE   N06  En1  v127
 BYTE   W12
 BYTE   Dn1  v044
 BYTE   N06  En1  v127
 BYTE   W06
 BYTE   Bn0
 BYTE   N06  Cn1
 BYTE   N06  An1
 BYTE   W06
 BYTE   Gn1
 BYTE   W06
 BYTE   Bn0
 BYTE   N54  An2
 BYTE   W12
 BYTE   N06  Bn0
 BYTE   W06
 BYTE   N06
 BYTE   W06
 BYTE   Dn1  v064
 BYTE   N06  En1  v127
 BYTE   W24
// 029   ----------------------------------------
 BYTE   An1
 BYTE   N06  Cn2
 BYTE   W06
 BYTE   An1
 BYTE   W06
 BYTE   Gn1
 BYTE   N06  An1
 BYTE   W06
 BYTE   Gn1
 BYTE   W06
 BYTE   Fn1
 BYTE   N06  Gn1
 BYTE   W06
 BYTE   Fn1
 BYTE   W06
 BYTE   Dn1  v064
 BYTE   N06  En1  v127
 BYTE   W12
 BYTE   Bn0
 BYTE   N06  Cn1
 BYTE   W12
 BYTE   Dn1  v044
 BYTE   N06  En1  v127
 BYTE   W12
 BYTE   Bn0
 BYTE   N06  Cn1
 BYTE   W06
 BYTE   Dn1  v044
 BYTE   N06  En1  v127
 BYTE   W12
 BYTE   Dn1  v044
 BYTE   N06  En1  v127
 BYTE   W06
// 030   ----------------------------------------
 BYTE   Bn0
 BYTE   N06  Cn1
 BYTE   N06  An1
 BYTE   W06
 BYTE   Gn1
 BYTE   W06
 BYTE   Bn0
 BYTE   N06  Cn1
 BYTE   N06  Gs1  v072
 BYTE   N42  An2  v127
 BYTE   W12
 BYTE   N06  Dn1  v044
 BYTE   N06  En1  v127
 BYTE   N06  Gs1  v072
 BYTE   W06
 BYTE   As1
 BYTE   W06
 BYTE   Bn0  v127
 BYTE   N06  Cn1
 BYTE   N06  Gs1  v072
 BYTE   W06
 BYTE   Dn1  v044
 BYTE   N06  En1  v127
 BYTE   W06
 BYTE   Gs1  v072
 BYTE   W06
 BYTE   Dn1  v044
 BYTE   N06  En1  v127
 BYTE   W06
 BYTE   Gs1  v072
 BYTE   W06
 BYTE   Bn0  v127
 BYTE   N06  Cn1
 BYTE   W06
 BYTE   Dn1  v064
 BYTE   N06  En1  v127
 BYTE   N06  Gs1  v072
 BYTE   W12
 BYTE   Bn0  v127
 BYTE   N06  Cn1
 BYTE   N06  Gs1  v072
 BYTE   W12
// 031   ----------------------------------------
 BYTE   Bn0  v127
 BYTE   N06  Cn1
 BYTE   N06  Gs1  v072
 BYTE   W12
 BYTE   Dn1  v044
 BYTE   N06  En1  v127
 BYTE   N06  Gs1  v072
 BYTE   W06
 BYTE   As1
 BYTE   W06
 BYTE   Bn0  v127
 BYTE   N06  Cn1
 BYTE   N06  Gs1  v072
 BYTE   W06
 BYTE   Dn1  v044
 BYTE   N06  En1  v127
 BYTE   W06
 BYTE   Gs1  v072
 BYTE   W06
 BYTE   Dn1  v044
 BYTE   N06  En1  v127
 BYTE   W06
 BYTE   Gs1  v072
 BYTE   W06
 BYTE   Bn0  v127
 BYTE   N06  Cn1
 BYTE   W06
 BYTE   Dn1  v064
 BYTE   N06  En1  v127
 BYTE   N06  Gs1  v072
 BYTE   W12
 BYTE   Bn0  v127
 BYTE   N06  Cn1
 BYTE   N06  Gs1  v072
 BYTE   W12
 BYTE   Bn0  v127
 BYTE   N06  Cn1
 BYTE   N06  Gs1  v072
 BYTE   N42  An2  v127
 BYTE   W12
// 032   ----------------------------------------
 BYTE   N06  Dn1  v044
 BYTE   N06  En1  v127
 BYTE   N06  Gs1  v072
 BYTE   W06
 BYTE   As1
 BYTE   W06
 BYTE   Bn0  v127
 BYTE   N06  Cn1
 BYTE   N06  Gs1  v072
 BYTE   W06
 BYTE   Dn1  v044
 BYTE   N06  En1  v127
 BYTE   W06
 BYTE   Gs1  v072
 BYTE   W06
 BYTE   Dn1  v044
 BYTE   N06  En1  v127
 BYTE   W06
 BYTE   Gs1  v072
 BYTE   W06
 BYTE   Bn0  v127
 BYTE   N06  Cn1
 BYTE   W06
 BYTE   Dn1  v064
 BYTE   N06  En1  v127
 BYTE   N06  Gs1  v072
 BYTE   W12
 BYTE   Bn0  v127
 BYTE   N06  Cn1
 BYTE   N06  Gs1  v072
 BYTE   W12
 BYTE   Bn0  v127
 BYTE   N06  Cn1
 BYTE   N06  Gs1  v072
 BYTE   W12
 BYTE   Dn1  v044
 BYTE   N06  En1  v127
 BYTE   N06  Gs1  v072
 BYTE   W06
 BYTE   As1
 BYTE   W06
// 033   ----------------------------------------
 BYTE   Bn0  v127
 BYTE   N06  Cn1
 BYTE   N06  Gs1  v072
 BYTE   W06
 BYTE   Dn1  v044
 BYTE   N06  En1  v127
 BYTE   W06
 BYTE   Gs1  v072
 BYTE   W06
 BYTE   Dn1  v044
 BYTE   N06  En1  v127
 BYTE   W06
 BYTE   Gs1  v072
 BYTE   W06
 BYTE   Bn0  v127
 BYTE   N06  Cn1
 BYTE   W06
 BYTE   Dn1  v064
 BYTE   N06  En1  v127
 BYTE   N06  Gs1  v072
 BYTE   W12
 BYTE   Bn0  v127
 BYTE   N06  Cn1
 BYTE   N06  Gs1  v072
 BYTE   W12
 BYTE   Bn0  v127
 BYTE   N06  Cn1
 BYTE   N06  Gs1  v072
 BYTE   N42  An2  v127
 BYTE   W12
 BYTE   N06  Dn1  v044
 BYTE   N06  En1  v127
 BYTE   N06  Gs1  v072
 BYTE   W06
 BYTE   As1
 BYTE   W06
 BYTE   Bn0  v127
 BYTE   N06  Cn1
 BYTE   N06  Gs1  v072
 BYTE   W06
 BYTE   Dn1  v044
 BYTE   N06  En1  v127
 BYTE   W06
// 034   ----------------------------------------
 BYTE   Gs1  v072
 BYTE   W06
 BYTE   Dn1  v044
 BYTE   N06  En1  v127
 BYTE   W06
 BYTE   Gs1  v072
 BYTE   W06
 BYTE   Bn0  v127
 BYTE   N06  Cn1
 BYTE   W06
 BYTE   Dn1  v064
 BYTE   N06  En1  v127
 BYTE   N06  Gs1  v072
 BYTE   W12
 BYTE   Bn0  v127
 BYTE   N06  Cn1
 BYTE   N06  Gs1  v072
 BYTE   W12
 BYTE   Bn0  v127
 BYTE   N06  Cn1
 BYTE   N06  Gs1  v072
 BYTE   W12
 BYTE   Dn1  v044
 BYTE   N06  En1  v127
 BYTE   N06  Gs1  v072
 BYTE   W06
 BYTE   As1
 BYTE   W06
 BYTE   Bn0  v127
 BYTE   N06  Cn1
 BYTE   N06  Gs1  v072
 BYTE   W06
 BYTE   Dn1  v044
 BYTE   N06  En1  v127
 BYTE   W06
 BYTE   Gs1  v072
 BYTE   W06
 BYTE   Dn1  v044
 BYTE   N06  En1  v127
 BYTE   W06
// 035   ----------------------------------------
 BYTE   Gs1  v072
 BYTE   W06
 BYTE   Bn0  v127
 BYTE   N06  Cn1
 BYTE   W06
 BYTE   Dn1  v064
 BYTE   N06  En1  v127
 BYTE   N06  Gs1  v072
 BYTE   W12
 BYTE   Bn0  v127
 BYTE   N06  Cn1
 BYTE   N06  Gs1  v072
 BYTE   W12
 BYTE   Bn0  v127
 BYTE   N06  Cn1
 BYTE   N06  Gs1  v072
 BYTE   N42  An2  v127
 BYTE   W12
 BYTE   N06  Dn1  v044
 BYTE   N06  En1  v127
 BYTE   N06  Gs1  v072
 BYTE   W06
 BYTE   As1
 BYTE   W06
 BYTE   Bn0  v127
 BYTE   N06  Cn1
 BYTE   N06  Gs1  v072
 BYTE   W06
 BYTE   Dn1  v044
 BYTE   N06  En1  v127
 BYTE   W06
 BYTE   Gs1  v072
 BYTE   W06
 BYTE   Dn1  v044
 BYTE   N06  En1  v127
 BYTE   W06
 BYTE   Gs1  v072
 BYTE   W06
 BYTE   Bn0  v127
 BYTE   N06  Cn1
 BYTE   W06
// 036   ----------------------------------------
 BYTE   Dn1  v064
 BYTE   N06  En1  v127
 BYTE   N06  Gs1  v072
 BYTE   W12
 BYTE   Bn0  v127
 BYTE   N06  Cn1
 BYTE   N06  Gs1  v072
 BYTE   W12
 BYTE   Bn0  v127
 BYTE   N06  Cn1
 BYTE   N06  Gs1  v072
 BYTE   W12
 BYTE   Dn1  v044
 BYTE   N06  En1  v127
 BYTE   N06  Gs1  v072
 BYTE   W06
 BYTE   As1
 BYTE   W06
 BYTE   Bn0  v127
 BYTE   N06  Cn1
 BYTE   N06  Gs1  v072
 BYTE   W06
 BYTE   Dn1  v044
 BYTE   N06  En1  v127
 BYTE   W06
 BYTE   Gs1  v072
 BYTE   W06
 BYTE   Dn1  v044
 BYTE   N06  En1  v127
 BYTE   W06
 BYTE   Gs1  v072
 BYTE   W06
 BYTE   Bn0  v127
 BYTE   N06  Cn1
 BYTE   W06
 BYTE   Dn1  v064
 BYTE   N06  En1  v127
 BYTE   N06  Gs1  v072
 BYTE   W12
// 037   ----------------------------------------
 BYTE   Bn0  v127
 BYTE   N06  Cn1
 BYTE   N06  Gs1  v072
 BYTE   W12
 BYTE   Dn1
 BYTE   N06  En1  v127
 BYTE   W06
 BYTE   Dn1  v072
 BYTE   N06  En1  v127
 BYTE   W06
 BYTE   Bn0
 BYTE   W06
 BYTE   Dn1  v072
 BYTE   N06  En1  v127
 BYTE   W06
 BYTE   Dn1  v072
 BYTE   N06  En1  v127
 BYTE   W06
 BYTE   Bn0
 BYTE   W06
 BYTE   Dn1  v072
 BYTE   N06  En1  v127
 BYTE   W06
 BYTE   Dn1  v072
 BYTE   N06  En1  v127
 BYTE   W06
 BYTE   Bn0
 BYTE   W06
 BYTE   Dn1  v072
 BYTE   N06  En1  v127
 BYTE   W06
 BYTE   Dn1  v072
 BYTE   N06  En1  v127
 BYTE   W06
 BYTE   Bn0
 BYTE   W06
 BYTE   Dn1  v072
 BYTE   N06  En1  v127
 BYTE   W06
 BYTE   Dn1  v072
 BYTE   N06  En1  v127
 BYTE   W06
// 038   ----------------------------------------
 BYTE   Bn0
 BYTE   W06
 BYTE   Dn1  v072
 BYTE   N06  En1  v127
 BYTE   W06
 BYTE   Bn0
 BYTE   N11  As1  v040
 BYTE   N44  An2  v127
 BYTE   W12
 BYTE   N06  Bn0
 BYTE   N06  Gs1  v040
 BYTE   W06
 BYTE   N06
 BYTE   W06
 BYTE   Dn1  v060
 BYTE   N06  En1  v127
 BYTE   N10  As1  v040
 BYTE   W12
 BYTE   N06  Bn0  v127
 BYTE   N06  Gs1  v040
 BYTE   W06
 BYTE   Bn0  v127
 BYTE   N06  Gs1  v040
 BYTE   W06
 BYTE   Fs1
 BYTE   W06
 BYTE   Bn0  v127
 BYTE   W06
 BYTE   N06
 BYTE   N06  Gs1  v040
 BYTE   W06
 BYTE   N06
 BYTE   W06
 BYTE   Dn1  v060
 BYTE   N06  En1  v127
 BYTE   N12  As1  v040
 BYTE   W12
 BYTE   PATT
  POIN2 Label_7_0145397C
// 039   ----------------------------------------
 BYTE   N06  Bn0  v127
 BYTE   N06  Dn1  v048
 BYTE   N06  En1  v127
 BYTE   N06  Gs1  v040
 BYTE   W06
 BYTE   Dn1  v048
 BYTE   N06  En1  v127
 BYTE   N06  Gs1  v040
 BYTE   W06
 BYTE   Bn0  v127
 BYTE   N11  As1  v040
 BYTE   W12
 BYTE   N06  Bn0  v127
 BYTE   N06  Gs1  v040
 BYTE   W06
 BYTE   N06
 BYTE   W06
 BYTE   Dn1  v060
 BYTE   N06  En1  v127
 BYTE   N10  As1  v040
 BYTE   W12
 BYTE   N06  Bn0  v127
 BYTE   N06  Gs1  v040
 BYTE   W06
 BYTE   Bn0  v127
 BYTE   N06  Gs1  v040
 BYTE   W06
 BYTE   Fs1
 BYTE   W06
 BYTE   Bn0  v127
 BYTE   W06
 BYTE   N06
 BYTE   N06  Gs1  v040
 BYTE   W06
 BYTE   N06
 BYTE   W06
 BYTE   Dn1  v060
 BYTE   N06  En1  v127
 BYTE   N12  As1  v040
 BYTE   W12
 BYTE   PATT
  POIN2 Label_7_0145397C
// 040   ----------------------------------------
 BYTE   N06  Bn0  v127
 BYTE   N06  Dn1  v048
 BYTE   N06  En1  v127
 BYTE   N06  Gs1  v040
 BYTE   W06
 BYTE   Dn1  v048
 BYTE   N06  En1  v127
 BYTE   N06  Gs1  v040
 BYTE   W06
 BYTE   Bn0  v127
 BYTE   N11  As1  v040
 BYTE   N44  An2  v127
 BYTE   W12
 BYTE   N06  Bn0
 BYTE   N06  Gs1  v040
 BYTE   W06
 BYTE   N06
 BYTE   W06
 BYTE   Dn1  v060
 BYTE   N06  En1  v127
 BYTE   N10  As1  v040
 BYTE   W12
 BYTE   N06  Bn0  v127
 BYTE   N06  Gs1  v040
 BYTE   W06
 BYTE   Bn0  v127
 BYTE   N06  Gs1  v040
 BYTE   W06
 BYTE   Fs1
 BYTE   W06
 BYTE   Bn0  v127
 BYTE   W06
 BYTE   N06
 BYTE   N06  Gs1  v040
 BYTE   W06
 BYTE   N06
 BYTE   W06
 BYTE   Dn1  v060
 BYTE   N06  En1  v127
 BYTE   N12  As1  v040
 BYTE   W12
 BYTE   PATT
  POIN2 Label_7_0145397C
// 041   ----------------------------------------
 BYTE   N06  Bn0  v127
 BYTE   N06  Dn1  v048
 BYTE   N06  En1  v127
 BYTE   N06  Gs1  v040
 BYTE   W06
 BYTE   Dn1  v048
 BYTE   N06  En1  v127
 BYTE   N06  Gs1  v040
 BYTE   W06
 BYTE   Dn1  v056
 BYTE   N06  En1  v127
 BYTE   N06  An2
 BYTE   W84
// 042   ----------------------------------------
 BYTE   GoTo
  POIN2 Label_7_01453750
 BYTE   FINE

//******************************************************//
	ALIGN 4

GoldenSunSaturosandMenardiBattleMrGreen3339:
	BYTE	8	// NumTrks
	BYTE	0	// NumBlks
	BYTE	GoldenSunSaturosandMenardiBattleMrGreen3339_pri	// Priority
	BYTE	GoldenSunSaturosandMenardiBattleMrGreen3339_rev	// Reverb.
    
	POIN2	GoldenSunSaturosandMenardiBattleMrGreen3339_grp
    
	POIN2	GoldenSunSaturosandMenardiBattleMrGreen3339_001
	POIN2	GoldenSunSaturosandMenardiBattleMrGreen3339_002
	POIN2	GoldenSunSaturosandMenardiBattleMrGreen3339_003
	POIN2	GoldenSunSaturosandMenardiBattleMrGreen3339_004
	POIN2	GoldenSunSaturosandMenardiBattleMrGreen3339_005
	POIN2	GoldenSunSaturosandMenardiBattleMrGreen3339_006
	POIN2	GoldenSunSaturosandMenardiBattleMrGreen3339_007
	POIN2	GoldenSunSaturosandMenardiBattleMrGreen3339_008

	
