//Event file generated from Sappy .s format.
	#include "MPlayDef.event"

	#define	GoldenSun_EnemyBattle_grp  voicegroup000
	#define	GoldenSun_EnemyBattle_pri  0
	#define	GoldenSun_EnemyBattle_rev  0
	#define	GoldenSun_EnemyBattle_mvl  127
	#define	GoldenSun_EnemyBattle_key  0
	#define	GoldenSun_EnemyBattle_tbs  1
	#define	GoldenSun_EnemyBattle_exg  0
	#define	GoldenSun_EnemyBattle_cmp  1

	// .rodata
	//	GoldenSun_EnemyBattle
	ALIGN 4


//**************** Track 1 (Midi-Chn.0) ****************//

GoldenSun_EnemyBattle_001:
//  #01 //000   ----------------------------------------
 BYTE   KEYSH   GoldenSun_EnemyBattle_key+0
 BYTE   TEMPO   120*GoldenSun_EnemyBattle_tbs/2
 BYTE   VOICE   48
 BYTE   LFOS 44
 BYTE   VOL   45*GoldenSun_EnemyBattle_mvl/mxv
 BYTE   PAN   c_v+0
 BYTE   N03  Dn3  v044
 BYTE   W04
 BYTE   Fn3
 BYTE   W04
 BYTE   Gs3  v048
 BYTE   W04
 BYTE   Bn3  v052
 BYTE   W04
 BYTE   Dn4
 BYTE   W04
 BYTE   Fn4  v056
 BYTE   W04
 BYTE   Ds3  v060
 BYTE   W04
 BYTE   Fs3  v064
 BYTE   W04
 BYTE   An3
 BYTE   W04
 BYTE   Cn4  v068
 BYTE   W04
 BYTE   Ds4  v072
 BYTE   W04
 BYTE   Fs4
 BYTE   W04
 BYTE   Fn3  v076
 BYTE   W04
 BYTE   Gs3  v080
 BYTE   W04
 BYTE   Bn3
 BYTE   W04
 BYTE   Dn4  v084
 BYTE   W04
 BYTE   Fn4  v088
 BYTE   W04
 BYTE   Gs4
 BYTE   W04
 BYTE   Ds4  v092
 BYTE   W04
 BYTE   Fs4
 BYTE   W04
 BYTE   An4
 BYTE   W04
 BYTE   Cn5  v100
 BYTE   W04
 BYTE   Ds5
 BYTE   W04
 BYTE   Fs5
 BYTE   W04
//  #01 //001   ----------------------------------------
Label_011DFDD7:
 BYTE   BENDR  40
 BYTE   N28  En4  v104
 BYTE   W19
 BYTE   W09
 BYTE   CnM2
 BYTE   W02
 BYTE   N05  Dn4
 BYTE   W06
 BYTE   Cn4
 BYTE   W06
 BYTE   Dn4
 BYTE   W06
 BYTE   N23  En4
 BYTE   W19
 BYTE   W04
 BYTE   CnM2
 BYTE   W01
 BYTE   N23  An4
 BYTE   W19
 BYTE   W04
 BYTE   CnM2
 BYTE   W01
//  #01 //002   ----------------------------------------
Label_011DFDF3:
 BYTE   N28  Gn4  v104
 BYTE   W19
 BYTE   W09
 BYTE   CnM2
 BYTE   W02
 BYTE   N05  Fn4
 BYTE   W06
 BYTE   En4
 BYTE   W06
 BYTE   Dn4
 BYTE   W06
 BYTE   N23  Cn4
 BYTE   W19
 BYTE   W04
 BYTE   CnM2
 BYTE   W01
 BYTE   N23  Dn4
 BYTE   W19
 BYTE   W04
 BYTE   CnM2
 BYTE   W01
 BYTE   PEND 
//  #01 //003   ----------------------------------------
Label_011DFE0E:
 BYTE   N28  Ds4  v104
 BYTE   W19
 BYTE   W09
 BYTE   CnM2
 BYTE   W02
 BYTE   N05
 BYTE   W06
 BYTE   En4
 BYTE   W06
 BYTE   Fs4
 BYTE   W06
 BYTE   N44  En4
 BYTE   W19
 BYTE   W24
 BYTE   W01
 BYTE   CnM2
 BYTE   W04
 BYTE   PEND 
//  #01 //004   ----------------------------------------
Label_011DFE23:
 BYTE   N28  Fs4  v104
 BYTE   W19
 BYTE   W09
 BYTE   CnM2
 BYTE   W02
 BYTE   N05
 BYTE   W06
 BYTE   Gn4
 BYTE   W06
 BYTE   An4
 BYTE   W06
 BYTE   N23  Gn4
 BYTE   W19
 BYTE   W04
 BYTE   CnM2
 BYTE   W01
 BYTE   N23  Gs4
 BYTE   W19
 BYTE   W04
 BYTE   CnM2
 BYTE   W01
 BYTE   PEND 
//  #01 //005   ----------------------------------------
 BYTE   N05  An4  v092
 BYTE   W06
 BYTE   En4
 BYTE   W06
 BYTE   An4
 BYTE   W06
 BYTE   Bn4
 BYTE   W06
 BYTE   En4
 BYTE   W06
 BYTE   Bn4
 BYTE   W06
 BYTE   N15  Cn5  v104
 BYTE   W18
 BYTE   N05  En5
 BYTE   W06
 BYTE   Dn5
 BYTE   W06
 BYTE   Cn5
 BYTE   W06
 BYTE   Bn4
 BYTE   W06
 BYTE   An4
 BYTE   W06
 BYTE   Bn4
 BYTE   W06
 BYTE   Cn5
 BYTE   W06
//  #01 //006   ----------------------------------------
Label_011DFE5E:
 BYTE   N17  Dn5  v104
 BYTE   W18
 BYTE   Gn4
 BYTE   W18
 BYTE   N11  Dn5
 BYTE   W12
 BYTE   N17  Cn5
 BYTE   W18
 BYTE   Bn4
 BYTE   W18
 BYTE   N11  An4
 BYTE   W12
 BYTE   PEND 
//  #01 //007   ----------------------------------------
Label_011DFE70:
 BYTE   N44  Bn4  v104
 BYTE   W19
 BYTE   W24
 BYTE   W01
 BYTE   CnM2
 BYTE   W04
 BYTE   N17  Gs4
 BYTE   W18
 BYTE   An4
 BYTE   W18
 BYTE   N11  Bn4
 BYTE   W12
 BYTE   PEND 
//  #01 //008   ----------------------------------------
 BYTE   N05  Cn5
 BYTE   W06
 BYTE   An4
 BYTE   W06
 BYTE   En4
 BYTE   W06
 BYTE   Bn4
 BYTE   W06
 BYTE   Gn4
 BYTE   W06
 BYTE   Dn4
 BYTE   W06
 BYTE   N32  An4
 BYTE   W19
 BYTE   W13
 BYTE   CnM2
 BYTE   W04
 BYTE   N11  Gn4
 BYTE   W12
 BYTE   An4
 BYTE   W12
//  #01 //009   ----------------------------------------
 BYTE   N28  En4
 BYTE   W19
 BYTE   W09
 BYTE   CnM2
 BYTE   W02
 BYTE   N05  Dn4
 BYTE   W06
 BYTE   Cn4
 BYTE   W06
 BYTE   Dn4
 BYTE   W06
 BYTE   N23  En4
 BYTE   W19
 BYTE   W04
 BYTE   CnM2
 BYTE   W01
 BYTE   N23  An4
 BYTE   W19
 BYTE   W04
 BYTE   CnM2
 BYTE   W01
//  #01 //010   ----------------------------------------
 BYTE   PATT
  POIN2 Label_011DFDF3
//  #01 //011   ----------------------------------------
 BYTE   PATT
  POIN2 Label_011DFE0E
//  #01 //012   ----------------------------------------
 BYTE   PATT
  POIN2 Label_011DFE23
//  #01 //013   ----------------------------------------
 BYTE   N05  An4  v104
 BYTE   W06
 BYTE   En4
 BYTE   W06
 BYTE   An4
 BYTE   W06
 BYTE   Bn4
 BYTE   W06
 BYTE   En4
 BYTE   W06
 BYTE   Bn4
 BYTE   W06
 BYTE   N15  Cn5
 BYTE   W18
 BYTE   N05  En5
 BYTE   W06
 BYTE   Dn5
 BYTE   W06
 BYTE   Cn5
 BYTE   W06
 BYTE   Bn4
 BYTE   W06
 BYTE   An4
 BYTE   W06
 BYTE   Bn4
 BYTE   W06
 BYTE   Cn5
 BYTE   W06
//  #01 //014   ----------------------------------------
 BYTE   PATT
  POIN2 Label_011DFE5E
//  #01 //015   ----------------------------------------
 BYTE   PATT
  POIN2 Label_011DFE70
//  #01 //016   ----------------------------------------
 BYTE   W96
//  #01 //017   ----------------------------------------
 BYTE   W96
//  #01 //018   ----------------------------------------
 BYTE   W96
//  #01 //019   ----------------------------------------
 BYTE   W96
//  #01 //020   ----------------------------------------
Label_011DFEEF:
 BYTE   N05  Cn4  v108
 BYTE   W06
 BYTE   Bn3
 BYTE   W06
 BYTE   N32  Cn4
 BYTE   W19
 BYTE   W13
 BYTE   CnM2
 BYTE   W04
 BYTE   N17  Bn3
 BYTE   W18
 BYTE   An3
 BYTE   W18
 BYTE   N11  Gn3
 BYTE   W12
 BYTE   PEND 
//  #01 //021   ----------------------------------------
Label_011DFF04:
 BYTE   N92  An3  v108
 BYTE   W19
 BYTE   W72
 BYTE   W01
 BYTE   CnM2
 BYTE   W04
 BYTE   PEND 
//  #01 //022   ----------------------------------------
Label_011DFF0D:
 BYTE   N05  Cn4  v108
 BYTE   W06
 BYTE   Bn3
 BYTE   W06
 BYTE   N32  Cn4
 BYTE   W19
 BYTE   W13
 BYTE   CnM2
 BYTE   W04
 BYTE   N17  Bn3
 BYTE   W18
 BYTE   Cn4
 BYTE   W18
 BYTE   N11  Dn4
 BYTE   W12
 BYTE   PEND 
//  #01 //023   ----------------------------------------
 BYTE   PATT
  POIN2 Label_011DFF04
//  #01 //024   ----------------------------------------
 BYTE   PATT
  POIN2 Label_011DFEEF
//  #01 //025   ----------------------------------------
 BYTE   PATT
  POIN2 Label_011DFF04
//  #01 //026   ----------------------------------------
 BYTE   PATT
  POIN2 Label_011DFF0D
//  #01 //027   ----------------------------------------
 BYTE   PATT
  POIN2 Label_011DFF04
//  #01 //028   ----------------------------------------
 BYTE   W96
//  #01 //029   ----------------------------------------
 BYTE   W96
//  #01 //030   ----------------------------------------
 BYTE   W96
//  #01 //031   ----------------------------------------
 BYTE   BENDR  40
 BYTE   W96
//  #01 //032   ----------------------------------------
 BYTE   BEND   c_v-64
 BYTE   N92  Cs4  v088
 BYTE   W02
 BYTE   BEND   c_v-56
 BYTE   W02
 BYTE   BEND   c_v-50
 BYTE   W02
 BYTE   BEND   c_v-44
 BYTE   W02
 BYTE   BEND   c_v-39
 BYTE   W02
 BYTE   BEND   c_v-35
 BYTE   W02
 BYTE   BEND   c_v-31
 BYTE   W02
 BYTE   BEND   c_v-28
 BYTE   W02
 BYTE   BEND   c_v-25
 BYTE   W02
 BYTE   BEND   c_v-22
 BYTE   W01
 BYTE   W01
 BYTE   BEND   c_v-19
 BYTE   W02
 BYTE   BEND   c_v-17
 BYTE   W02
 BYTE   BEND   c_v-15
 BYTE   W02
 BYTE   BEND   c_v-14
 BYTE   W02
 BYTE   BEND   c_v-12
 BYTE   W02
 BYTE   BEND   c_v-11
 BYTE   W02
 BYTE   BEND   c_v-9
 BYTE   W02
 BYTE   BEND   c_v-8
 BYTE   W02
 BYTE   BEND   c_v-7
 BYTE   W04
 BYTE   BEND   c_v-6
 BYTE   W02
 BYTE   BEND   c_v-5
 BYTE   W02
 BYTE   BEND   c_v-4
 BYTE   W04
 BYTE   BEND   c_v-3
 BYTE   W06
 BYTE   BEND   c_v-2
 BYTE   W06
 BYTE   BEND   c_v-1
 BYTE   W12
 BYTE   BEND   c_v+0
 BYTE   W20
 BYTE   W04
//  #01 //033   ----------------------------------------
Label_011DFF7D:
 BYTE   BEND   c_v-64
 BYTE   N92  Bn3  v088
 BYTE   W02
 BYTE   BEND   c_v-56
 BYTE   W02
 BYTE   BEND   c_v-50
 BYTE   W02
 BYTE   BEND   c_v-44
 BYTE   W02
 BYTE   BEND   c_v-39
 BYTE   W02
 BYTE   BEND   c_v-35
 BYTE   W02
 BYTE   BEND   c_v-31
 BYTE   W02
 BYTE   BEND   c_v-28
 BYTE   W02
 BYTE   BEND   c_v-25
 BYTE   W02
 BYTE   BEND   c_v-22
 BYTE   W01
 BYTE   W01
 BYTE   BEND   c_v-19
 BYTE   W02
 BYTE   BEND   c_v-17
 BYTE   W02
 BYTE   BEND   c_v-15
 BYTE   W02
 BYTE   BEND   c_v-14
 BYTE   W02
 BYTE   BEND   c_v-12
 BYTE   W02
 BYTE   BEND   c_v-11
 BYTE   W02
 BYTE   BEND   c_v-9
 BYTE   W02
 BYTE   BEND   c_v-8
 BYTE   W02
 BYTE   BEND   c_v-7
 BYTE   W04
 BYTE   BEND   c_v-6
 BYTE   W02
 BYTE   BEND   c_v-5
 BYTE   W02
 BYTE   BEND   c_v-4
 BYTE   W04
 BYTE   BEND   c_v-3
 BYTE   W06
 BYTE   BEND   c_v-2
 BYTE   W06
 BYTE   BEND   c_v-1
 BYTE   W12
 BYTE   BEND   c_v+0
 BYTE   W20
 BYTE   W04
 BYTE   PEND 
//  #01 //034   ----------------------------------------
 BYTE   BEND   c_v-64
 BYTE   N92  An3
 BYTE   W02
 BYTE   BEND   c_v-56
 BYTE   W02
 BYTE   BEND   c_v-50
 BYTE   W02
 BYTE   BEND   c_v-44
 BYTE   W02
 BYTE   BEND   c_v-39
 BYTE   W02
 BYTE   BEND   c_v-35
 BYTE   W02
 BYTE   BEND   c_v-31
 BYTE   W02
 BYTE   BEND   c_v-28
 BYTE   W02
 BYTE   BEND   c_v-25
 BYTE   W02
 BYTE   BEND   c_v-22
 BYTE   W01
 BYTE   W01
 BYTE   BEND   c_v-19
 BYTE   W02
 BYTE   BEND   c_v-17
 BYTE   W02
 BYTE   BEND   c_v-15
 BYTE   W02
 BYTE   BEND   c_v-14
 BYTE   W02
 BYTE   BEND   c_v-12
 BYTE   W02
 BYTE   BEND   c_v-11
 BYTE   W02
 BYTE   BEND   c_v-9
 BYTE   W02
 BYTE   BEND   c_v-8
 BYTE   W02
 BYTE   BEND   c_v-7
 BYTE   W04
 BYTE   BEND   c_v-6
 BYTE   W02
 BYTE   BEND   c_v-5
 BYTE   W02
 BYTE   BEND   c_v-4
 BYTE   W04
 BYTE   BEND   c_v-3
 BYTE   W06
 BYTE   BEND   c_v-2
 BYTE   W06
 BYTE   BEND   c_v-1
 BYTE   W12
 BYTE   BEND   c_v+0
 BYTE   W20
 BYTE   W04
//  #01 //035   ----------------------------------------
 BYTE   PATT
  POIN2 Label_011DFF7D
//  #01 //036   ----------------------------------------
 BYTE   GoTo
  POIN2 Label_011DFDD7
//  #01 //037   ----------------------------------------
 BYTE   BENDR  40
 BYTE   FINE

//**************** Track 2 (Midi-Chn.1) ****************//

GoldenSun_EnemyBattle_002:
//  #02 //000   ----------------------------------------
 BYTE   KEYSH   GoldenSun_EnemyBattle_key+0
 BYTE   VOICE   52
 BYTE   LFOS 44
 BYTE   VOL   28*GoldenSun_EnemyBattle_mvl/mxv
 BYTE   PAN   c_v+0
 BYTE   W96
//  #02 //001   ----------------------------------------
Label_01190843:
 BYTE   N92  An2  v112
 BYTE   N92  En3
 BYTE   W96
//  #02 //002   ----------------------------------------
 BYTE   Gn2
 BYTE   N92  Dn3
 BYTE   W96
//  #02 //003   ----------------------------------------
Label_0119084D:
 BYTE   N44  Fs2  v112
 BYTE   N44  Ds3
 BYTE   W48
 BYTE   Gn2
 BYTE   N44  En3
 BYTE   W48
 BYTE   PEND 
//  #02 //004   ----------------------------------------
Label_01190858:
 BYTE   N44  Fs2  v112
 BYTE   N44  Dn3
 BYTE   W48
 BYTE   N23  Gn2
 BYTE   N23  Dn3
 BYTE   W24
 BYTE   Gs2
 BYTE   N23  En3
 BYTE   W24
 BYTE   PEND 
//  #02 //005   ----------------------------------------
 BYTE   N92  An2
 BYTE   N92  En3
 BYTE   W96
//  #02 //006   ----------------------------------------
Label_0119086D:
 BYTE   N44  Gn2  v112
 BYTE   N44  Dn3
 BYTE   W48
 BYTE   Fn2
 BYTE   N44  Cn3
 BYTE   W48
 BYTE   PEND 
//  #02 //007   ----------------------------------------
Label_01190878:
 BYTE   N44  An2  v112
 BYTE   N44  En3
 BYTE   W48
 BYTE   Gs2
 BYTE   N44  En3
 BYTE   W48
 BYTE   PEND 
//  #02 //008   ----------------------------------------
 BYTE   N17  An2
 BYTE   N17  En3
 BYTE   W18
 BYTE   Gn2
 BYTE   N17  Dn3
 BYTE   W18
 BYTE   N56  Fn2
 BYTE   N56  Cn3
 BYTE   W60
//  #02 //009   ----------------------------------------
 BYTE   N92  An2
 BYTE   N92  En3
 BYTE   W96
//  #02 //010   ----------------------------------------
 BYTE   Gn2
 BYTE   N92  Dn3
 BYTE   W96
//  #02 //011   ----------------------------------------
 BYTE   PATT
  POIN2 Label_0119084D
//  #02 //012   ----------------------------------------
 BYTE   PATT
  POIN2 Label_01190858
//  #02 //013   ----------------------------------------
 BYTE   N92  An2  v112
 BYTE   N92  En3
 BYTE   W96
//  #02 //014   ----------------------------------------
 BYTE   PATT
  POIN2 Label_0119086D
//  #02 //015   ----------------------------------------
 BYTE   PATT
  POIN2 Label_01190878
//  #02 //016   ----------------------------------------
 BYTE   N92  An2  v112
 BYTE   N92  Fn3
 BYTE   W96
//  #02 //017   ----------------------------------------
 BYTE   Gn2
 BYTE   N92  En3
 BYTE   W96
//  #02 //018   ----------------------------------------
 BYTE   An2
 BYTE   N92  Fn3
 BYTE   W96
//  #02 //019   ----------------------------------------
 BYTE   Bn2
 BYTE   N44  Gn3
 BYTE   W48
 BYTE   Gs3
 BYTE   W48
//  #02 //020   ----------------------------------------
Label_011908C8:
 BYTE   N44  En2  v092
 BYTE   N44  An2
 BYTE   N44  Cn3
 BYTE   W48
 BYTE   Gn2
 BYTE   N44  Bn2
 BYTE   N44  Dn3
 BYTE   W48
 BYTE   PEND 
//  #02 //021   ----------------------------------------
 BYTE   N92  Fs2
 BYTE   N92  An2
 BYTE   N92  Dn3
 BYTE   W96
//  #02 //022   ----------------------------------------
 BYTE   PATT
  POIN2 Label_011908C8
//  #02 //023   ----------------------------------------
Label_011908E3:
 BYTE   N44  An2  v092
 BYTE   N44  Cn3
 BYTE   N44  En3
 BYTE   W48
 BYTE   Gn2
 BYTE   N44  Bn2
 BYTE   N44  Dn3
 BYTE   W48
 BYTE   PEND 
//  #02 //024   ----------------------------------------
 BYTE   An2
 BYTE   N44  Cn3
 BYTE   N44  Fn3
 BYTE   W48
 BYTE   Bn2
 BYTE   N44  Dn3
 BYTE   N44  Gn3
 BYTE   W48
//  #02 //025   ----------------------------------------
 BYTE   PATT
  POIN2 Label_011908E3
//  #02 //026   ----------------------------------------
 BYTE   N44  Fn2  v092
 BYTE   N44  An2
 BYTE   N44  Cn3
 BYTE   W48
 BYTE   Gn2
 BYTE   N44  Bn2
 BYTE   N44  Dn3
 BYTE   W48
//  #02 //027   ----------------------------------------
 BYTE   N92  An2
 BYTE   N44  Dn3
 BYTE   N92  En3
 BYTE   W48
 BYTE   N44  Cs3
 BYTE   W48
//  #02 //028   ----------------------------------------
 BYTE   N92  En2
 BYTE   N92  An2
 BYTE   N92  Cs3
 BYTE   W96
//  #02 //029   ----------------------------------------
Label_01190922:
 BYTE   N92  En2  v092
 BYTE   N92  Gs2
 BYTE   N92  Bn2
 BYTE   W96
 BYTE   PEND 
//  #02 //030   ----------------------------------------
 BYTE   Dn2
 BYTE   N92  Fs2
 BYTE   N92  An2
 BYTE   W96
//  #02 //031   ----------------------------------------
 BYTE   PATT
  POIN2 Label_01190922
//  #02 //032   ----------------------------------------
 BYTE   N92  En2  v092
 BYTE   N92  An2
 BYTE   W96
//  #02 //033   ----------------------------------------
 BYTE   En2
 BYTE   N92  Gs2
 BYTE   W96
//  #02 //034   ----------------------------------------
 BYTE   Dn2
 BYTE   N92  Fs2
 BYTE   W96
//  #02 //035   ----------------------------------------
 BYTE   En2
 BYTE   N92  Gs2
 BYTE   W96
//  #02 //036   ----------------------------------------
 BYTE   GoTo
  POIN2 Label_01190843
 BYTE   FINE

//**************** Track 3 (Midi-Chn.2) ****************//

GoldenSun_EnemyBattle_003:
//  #03 //000   ----------------------------------------
 BYTE   KEYSH   GoldenSun_EnemyBattle_key+0
 BYTE   VOICE   34
 BYTE   LFOS 44
 BYTE   VOL   26*GoldenSun_EnemyBattle_mvl/mxv
 BYTE   PAN   c_v+0
 BYTE   N05  Dn3  v100
 BYTE   W06
 BYTE   Fn3
 BYTE   W06
 BYTE   Gs3
 BYTE   W06
 BYTE   Bn3  v104
 BYTE   W06
 BYTE   Fn3
 BYTE   W06
 BYTE   Gs3  v108
 BYTE   W06
 BYTE   Cn3
 BYTE   W06
 BYTE   Ds3  v112
 BYTE   W06
 BYTE   Fs3  v116
 BYTE   W06
 BYTE   An3
 BYTE   W06
 BYTE   Fs3  v120
 BYTE   W06
 BYTE   Ds3
 BYTE   W06
 BYTE   Bn2
 BYTE   W06
 BYTE   Dn3  v124
 BYTE   W06
 BYTE   Fn3
 BYTE   W06
 BYTE   Gs3  v127
 BYTE   W06
//  #03 //001   ----------------------------------------
Label_011E006B:
 BYTE   N10  An2  v127
 BYTE   W12
 BYTE   N05  An3
 BYTE   W06
 BYTE   N10  An2
 BYTE   W12
 BYTE   N05
 BYTE   W06
 BYTE   An3
 BYTE   W06
 BYTE   An2
 BYTE   W06
 BYTE   An3
 BYTE   W06
 BYTE   An2
 BYTE   W06
 BYTE   An3
 BYTE   W06
 BYTE   N11  An2
 BYTE   W12
 BYTE   N05
 BYTE   W06
 BYTE   An3
 BYTE   W06
 BYTE   An2
 BYTE   W06
//  #03 //002   ----------------------------------------
Label_011E008A:
 BYTE   N10  Gn2  v127
 BYTE   W12
 BYTE   N05  Gn3
 BYTE   W06
 BYTE   N10  Gn2
 BYTE   W12
 BYTE   N05
 BYTE   W06
 BYTE   Fn2
 BYTE   W06
 BYTE   Gn2
 BYTE   W06
 BYTE   N05
 BYTE   W06
 BYTE   N05
 BYTE   W06
 BYTE   Gn3
 BYTE   W06
 BYTE   N11  Gn2
 BYTE   W12
 BYTE   N05
 BYTE   W06
 BYTE   Gn3
 BYTE   W06
 BYTE   Gn2
 BYTE   W06
 BYTE   PEND 
//  #03 //003   ----------------------------------------
Label_011E00AA:
 BYTE   N10  Bn2  v127
 BYTE   W12
 BYTE   N05
 BYTE   W06
 BYTE   N10  Bn3
 BYTE   W12
 BYTE   N05  Bn2
 BYTE   W06
 BYTE   Fs3
 BYTE   W06
 BYTE   Bn3
 BYTE   W06
 BYTE   En2
 BYTE   W06
 BYTE   N05
 BYTE   W06
 BYTE   En3
 BYTE   W06
 BYTE   N11  En2
 BYTE   W12
 BYTE   N05
 BYTE   W06
 BYTE   En3
 BYTE   W06
 BYTE   En2
 BYTE   W06
 BYTE   PEND 
//  #03 //004   ----------------------------------------
Label_011E00CA:
 BYTE   N10  Dn2  v127
 BYTE   W12
 BYTE   N05
 BYTE   W06
 BYTE   N10  Dn3
 BYTE   W12
 BYTE   N05  Dn2
 BYTE   W06
 BYTE   An2
 BYTE   W06
 BYTE   Dn3
 BYTE   W06
 BYTE   Gn2
 BYTE   W06
 BYTE   N05
 BYTE   W06
 BYTE   Gn3
 BYTE   W06
 BYTE   Gn2
 BYTE   W06
 BYTE   Gs2
 BYTE   W06
 BYTE   En3
 BYTE   W06
 BYTE   Gs3
 BYTE   W06
 BYTE   Gs2
 BYTE   W06
 BYTE   PEND 
//  #03 //005   ----------------------------------------
Label_011E00EB:
 BYTE   N11  An2  v127
 BYTE   W12
 BYTE   N11
 BYTE   W12
 BYTE   N05  Gn2
 BYTE   W06
 BYTE   N11  An2
 BYTE   W12
 BYTE   N11
 BYTE   W12
 BYTE   N05  Gn2
 BYTE   W06
 BYTE   An2
 BYTE   W06
 BYTE   Gn2
 BYTE   W06
 BYTE   Cn4
 BYTE   W06
 BYTE   Bn3
 BYTE   W06
 BYTE   An3
 BYTE   W06
 BYTE   Gn3
 BYTE   W06
 BYTE   PEND 
//  #03 //006   ----------------------------------------
Label_011E0109:
 BYTE   N05  Gn2  v127
 BYTE   W06
 BYTE   N05
 BYTE   W06
 BYTE   Gn3
 BYTE   W06
 BYTE   Gn2
 BYTE   W06
 BYTE   Dn3
 BYTE   W06
 BYTE   Gn2
 BYTE   W06
 BYTE   Gn3
 BYTE   W06
 BYTE   Gn2
 BYTE   W06
 BYTE   Fn2
 BYTE   W06
 BYTE   N05
 BYTE   W06
 BYTE   Fn3
 BYTE   W06
 BYTE   Fn2
 BYTE   W06
 BYTE   Cn3
 BYTE   W06
 BYTE   Fn3
 BYTE   W06
 BYTE   Fn2
 BYTE   W06
 BYTE   Fn3
 BYTE   W06
 BYTE   PEND 
//  #03 //007   ----------------------------------------
Label_011E012C:
 BYTE   N05  En2  v127
 BYTE   W06
 BYTE   N05
 BYTE   W06
 BYTE   En3
 BYTE   W06
 BYTE   En2
 BYTE   W06
 BYTE   Bn2
 BYTE   W06
 BYTE   En2
 BYTE   W06
 BYTE   En3
 BYTE   W06
 BYTE   En2
 BYTE   W06
 BYTE   En3
 BYTE   W06
 BYTE   En2
 BYTE   W06
 BYTE   N05
 BYTE   W06
 BYTE   Dn3
 BYTE   W06
 BYTE   En2
 BYTE   W06
 BYTE   N05
 BYTE   W06
 BYTE   En3
 BYTE   W06
 BYTE   En2
 BYTE   W06
 BYTE   PEND 
//  #03 //008   ----------------------------------------
 BYTE   An2
 BYTE   W06
 BYTE   En3
 BYTE   W06
 BYTE   An3
 BYTE   W06
 BYTE   Gn2
 BYTE   W06
 BYTE   Dn3
 BYTE   W06
 BYTE   Gn3
 BYTE   W06
 BYTE   N17  Fn2
 BYTE   W18
 BYTE   N05
 BYTE   W06
 BYTE   Fn3
 BYTE   W06
 BYTE   Fn2
 BYTE   W06
 BYTE   N05
 BYTE   W06
 BYTE   Cn3
 BYTE   W06
 BYTE   Fn3
 BYTE   W06
 BYTE   Fn2
 BYTE   W06
//  #03 //009   ----------------------------------------
Label_011E016C:
 BYTE   N10  An2  v127
 BYTE   W12
 BYTE   N05  An3
 BYTE   W06
 BYTE   N10  An2
 BYTE   W12
 BYTE   N05
 BYTE   W06
 BYTE   Gn2
 BYTE   W06
 BYTE   An2
 BYTE   W06
 BYTE   N05
 BYTE   W06
 BYTE   N05
 BYTE   W06
 BYTE   An3
 BYTE   W06
 BYTE   N11  An2
 BYTE   W12
 BYTE   N05
 BYTE   W06
 BYTE   An3
 BYTE   W06
 BYTE   An2
 BYTE   W06
 BYTE   PEND 
//  #03 //010   ----------------------------------------
 BYTE   PATT
  POIN2 Label_011E008A
//  #03 //011   ----------------------------------------
 BYTE   PATT
  POIN2 Label_011E00AA
//  #03 //012   ----------------------------------------
 BYTE   PATT
  POIN2 Label_011E00CA
//  #03 //013   ----------------------------------------
 BYTE   PATT
  POIN2 Label_011E00EB
//  #03 //014   ----------------------------------------
 BYTE   PATT
  POIN2 Label_011E0109
//  #03 //015   ----------------------------------------
 BYTE   PATT
  POIN2 Label_011E012C
//  #03 //016   ----------------------------------------
Label_011E01AA:
 BYTE   N11  Fn2  v127
 BYTE   W12
 BYTE   N05  Fn3
 BYTE   W06
 BYTE   N11  Fn2
 BYTE   W12
 BYTE   N05
 BYTE   W06
 BYTE   Fn3
 BYTE   W06
 BYTE   Fn2
 BYTE   W06
 BYTE   N11
 BYTE   W12
 BYTE   N05  Fn3
 BYTE   W06
 BYTE   N11  Fn2
 BYTE   W12
 BYTE   N05
 BYTE   W06
 BYTE   Fn3
 BYTE   W06
 BYTE   Fn2
 BYTE   W06
 BYTE   PEND 
//  #03 //017   ----------------------------------------
Label_011E01C9:
 BYTE   N11  En2  v127
 BYTE   W12
 BYTE   N05  En3
 BYTE   W06
 BYTE   N11  En2
 BYTE   W12
 BYTE   N05
 BYTE   W06
 BYTE   En3
 BYTE   W06
 BYTE   En2
 BYTE   W06
 BYTE   N11
 BYTE   W12
 BYTE   N05  En3
 BYTE   W06
 BYTE   N11  En2
 BYTE   W12
 BYTE   N05
 BYTE   W06
 BYTE   En3
 BYTE   W06
 BYTE   En2
 BYTE   W06
 BYTE   PEND 
//  #03 //018   ----------------------------------------
 BYTE   PATT
  POIN2 Label_011E01AA
//  #03 //019   ----------------------------------------
 BYTE   PATT
  POIN2 Label_011E01C9
//  #03 //020   ----------------------------------------
 BYTE   PATT
  POIN2 Label_011E016C
//  #03 //021   ----------------------------------------
 BYTE   N10  Dn3  v127
 BYTE   W12
 BYTE   N05  Dn4
 BYTE   W06
 BYTE   N10  Dn3
 BYTE   W12
 BYTE   N05
 BYTE   W06
 BYTE   Cn3
 BYTE   W06
 BYTE   Dn3
 BYTE   W06
 BYTE   N05
 BYTE   W06
 BYTE   N05
 BYTE   W06
 BYTE   Dn4
 BYTE   W06
 BYTE   N11  Dn3
 BYTE   W12
 BYTE   N05
 BYTE   W06
 BYTE   Dn4
 BYTE   W06
 BYTE   Dn3
 BYTE   W06
//  #03 //022   ----------------------------------------
 BYTE   PATT
  POIN2 Label_011E016C
//  #03 //023   ----------------------------------------
 BYTE   N10  Fn2  v127
 BYTE   W12
 BYTE   N05  Fn3
 BYTE   W06
 BYTE   N10  Fn2
 BYTE   W12
 BYTE   N05
 BYTE   W06
 BYTE   Fn3
 BYTE   W06
 BYTE   Fn2
 BYTE   W06
 BYTE   Gn2
 BYTE   W06
 BYTE   Dn3
 BYTE   W06
 BYTE   Gn3
 BYTE   W06
 BYTE   N11  Gn2
 BYTE   W12
 BYTE   N05  Gn3
 BYTE   W06
 BYTE   Gn2
 BYTE   W06
 BYTE   Dn3
 BYTE   W06
//  #03 //024   ----------------------------------------
 BYTE   Fn2
 BYTE   W06
 BYTE   N05
 BYTE   W06
 BYTE   Fn3
 BYTE   W06
 BYTE   Fn2
 BYTE   W06
 BYTE   N05
 BYTE   W06
 BYTE   Fn3
 BYTE   W06
 BYTE   Fn2
 BYTE   W06
 BYTE   N05
 BYTE   W06
 BYTE   Gn2
 BYTE   W06
 BYTE   N05
 BYTE   W06
 BYTE   Gn3
 BYTE   W06
 BYTE   Gn2
 BYTE   W06
 BYTE   N05
 BYTE   W06
 BYTE   Gn3
 BYTE   W06
 BYTE   Gn2
 BYTE   W06
 BYTE   N05
 BYTE   W06
//  #03 //025   ----------------------------------------
 BYTE   An2
 BYTE   W06
 BYTE   N05
 BYTE   W06
 BYTE   An3
 BYTE   W06
 BYTE   An2
 BYTE   W06
 BYTE   Gn3
 BYTE   W06
 BYTE   An2
 BYTE   W06
 BYTE   An3
 BYTE   W06
 BYTE   An2
 BYTE   W06
 BYTE   Gn2
 BYTE   W06
 BYTE   N05
 BYTE   W06
 BYTE   Gn3
 BYTE   W06
 BYTE   Gn2
 BYTE   W06
 BYTE   Fn3
 BYTE   W06
 BYTE   Gn2
 BYTE   W06
 BYTE   Gn3
 BYTE   W06
 BYTE   Gn2
 BYTE   W06
//  #03 //026   ----------------------------------------
 BYTE   Fn2
 BYTE   W06
 BYTE   N05
 BYTE   W06
 BYTE   Fn3
 BYTE   W06
 BYTE   Fn2
 BYTE   W06
 BYTE   En3
 BYTE   W06
 BYTE   Fn2
 BYTE   W06
 BYTE   Fn3
 BYTE   W06
 BYTE   Fn2
 BYTE   W06
 BYTE   Gn2
 BYTE   W06
 BYTE   N05
 BYTE   W06
 BYTE   Gn3
 BYTE   W06
 BYTE   Gn2
 BYTE   W06
 BYTE   Fn3
 BYTE   W06
 BYTE   Gn2
 BYTE   W06
 BYTE   Gn3
 BYTE   W06
 BYTE   Gn2
 BYTE   W06
//  #03 //027   ----------------------------------------
 BYTE   An2
 BYTE   W06
 BYTE   N05
 BYTE   W06
 BYTE   An3
 BYTE   W06
 BYTE   An2
 BYTE   W06
 BYTE   En3
 BYTE   W06
 BYTE   An2
 BYTE   W06
 BYTE   An3
 BYTE   W06
 BYTE   An2
 BYTE   W06
 BYTE   An3
 BYTE   W06
 BYTE   En3
 BYTE   W06
 BYTE   An2
 BYTE   W06
 BYTE   An3
 BYTE   W06
 BYTE   En3
 BYTE   W06
 BYTE   An2
 BYTE   W06
 BYTE   An3
 BYTE   W06
 BYTE   An2
 BYTE   W06
//  #03 //028   ----------------------------------------
Label_011E02BB:
 BYTE   N11  Fs2  v127
 BYTE   W12
 BYTE   N11
 BYTE   W12
 BYTE   N05  Fs3
 BYTE   W06
 BYTE   En3
 BYTE   W06
 BYTE   Fs3
 BYTE   W06
 BYTE   N11  Fs2
 BYTE   W12
 BYTE   N05
 BYTE   W06
 BYTE   N11
 BYTE   W12
 BYTE   N05  Fs3
 BYTE   W06
 BYTE   En3
 BYTE   W06
 BYTE   Fs3
 BYTE   W06
 BYTE   Cs3
 BYTE   W06
 BYTE   PEND 
//  #03 //029   ----------------------------------------
 BYTE   PATT
  POIN2 Label_011E02BB
//  #03 //030   ----------------------------------------
 BYTE   PATT
  POIN2 Label_011E02BB
//  #03 //031   ----------------------------------------
 BYTE   PATT
  POIN2 Label_011E02BB
//  #03 //032   ----------------------------------------
 BYTE   PATT
  POIN2 Label_011E02BB
//  #03 //033   ----------------------------------------
 BYTE   PATT
  POIN2 Label_011E02BB
//  #03 //034   ----------------------------------------
 BYTE   PATT
  POIN2 Label_011E02BB
//  #03 //035   ----------------------------------------
 BYTE   PATT
  POIN2 Label_011E02BB
//  #03 //036   ----------------------------------------
 BYTE   GoTo
  POIN2 Label_011E006B
 BYTE   FINE

//**************** Track 4 (Midi-Chn.3) ****************//

GoldenSun_EnemyBattle_004:
//  #04 //000   ----------------------------------------
 BYTE   KEYSH   GoldenSun_EnemyBattle_key+0
 BYTE   VOICE   79
 BYTE   LFOS 44
 BYTE   VOL   42*GoldenSun_EnemyBattle_mvl/mxv
 BYTE   PAN   c_v+0
 BYTE   BENDR  40
 BYTE   W96
//  #04 //001   ----------------------------------------
Label_0116F389:
 BYTE   W96
//  #04 //002   ----------------------------------------
 BYTE   W96
//  #04 //003   ----------------------------------------
 BYTE   W96
//  #04 //004   ----------------------------------------
 BYTE   W96
//  #04 //005   ----------------------------------------
 BYTE   W96
//  #04 //006   ----------------------------------------
 BYTE   W96
//  #04 //007   ----------------------------------------
 BYTE   W96
//  #04 //008   ----------------------------------------
 BYTE   W96
//  #04 //009   ----------------------------------------
 BYTE   W96
//  #04 //010   ----------------------------------------
 BYTE   W96
//  #04 //011   ----------------------------------------
 BYTE   W96
//  #04 //012   ----------------------------------------
 BYTE   W96
//  #04 //013   ----------------------------------------
 BYTE   W96
//  #04 //014   ----------------------------------------
 BYTE   W96
//  #04 //015   ----------------------------------------
 BYTE   W96
//  #04 //016   ----------------------------------------
 BYTE   N44  En3  v108
 BYTE   W48
 BYTE   N23  Dn3
 BYTE   W24
 BYTE   Gn3
 BYTE   W24
//  #04 //017   ----------------------------------------
 BYTE   N17  En3
 BYTE   W18
 BYTE   N28  Bn2
 BYTE   W30
 BYTE   N17
 BYTE   W18
 BYTE   Cn3
 BYTE   W18
 BYTE   N11  Dn3
 BYTE   W12
//  #04 //018   ----------------------------------------
 BYTE   N44  En3
 BYTE   W48
 BYTE   N20  Dn3
 BYTE   W24
 BYTE   Gn3
 BYTE   W24
//  #04 //019   ----------------------------------------
 BYTE   N17  En3
 BYTE   W18
 BYTE   Fs3
 BYTE   W18
 BYTE   N08  Gn3
 BYTE   W12
 BYTE   N17  Gs3
 BYTE   W18
 BYTE   An3
 BYTE   W18
 BYTE   N08  Bn3
 BYTE   W12
//  #04 //020   ----------------------------------------
 BYTE   W96
//  #04 //021   ----------------------------------------
Label_0116F3C7:
 BYTE   W68
 BYTE   W02
 BYTE   W24
 BYTE   W02
 BYTE   PEND 
//  #04 //022   ----------------------------------------
Label_0116F3CC:
 BYTE   W07
 BYTE   W88
 BYTE   W01
 BYTE   PEND 
//  #04 //023   ----------------------------------------
 BYTE   PATT
  POIN2 Label_0116F3C7
//  #04 //024   ----------------------------------------
 BYTE   PATT
  POIN2 Label_0116F3CC
//  #04 //025   ----------------------------------------
 BYTE   PATT
  POIN2 Label_0116F3C7
//  #04 //026   ----------------------------------------
 BYTE   PATT
  POIN2 Label_0116F3CC
//  #04 //027   ----------------------------------------
 BYTE   W68
 BYTE   W02
 BYTE   W24
 BYTE   W01
 BYTE   CnM2
 BYTE   W01
//  #04 //028   ----------------------------------------
 BYTE   W96
//  #04 //029   ----------------------------------------
 BYTE   W96
//  #04 //030   ----------------------------------------
 BYTE   W96
//  #04 //031   ----------------------------------------
 BYTE   W96
//  #04 //032   ----------------------------------------
 BYTE   W96
//  #04 //033   ----------------------------------------
 BYTE   W96
//  #04 //034   ----------------------------------------
 BYTE   W96
//  #04 //035   ----------------------------------------
 BYTE   W96
//  #04 //036   ----------------------------------------
 BYTE   GoTo
  POIN2 Label_0116F389
 BYTE   FINE

//**************** Track 5 (Midi-Chn.4) ****************//

GoldenSun_EnemyBattle_005:
//  #05 //000   ----------------------------------------
 BYTE   KEYSH   GoldenSun_EnemyBattle_key+0
 BYTE   VOICE   104
 BYTE   LFOS 44
 BYTE   VOL   21*GoldenSun_EnemyBattle_mvl/mxv
 BYTE   PAN   c_v+0
 BYTE   N03  Gs2  v032
 BYTE   W04
 BYTE   Bn2  v036
 BYTE   W04
 BYTE   Dn3  v040
 BYTE   W04
 BYTE   Fn3
 BYTE   W04
 BYTE   Gs3  v044
 BYTE   W04
 BYTE   Bn3  v048
 BYTE   W04
 BYTE   An2
 BYTE   W04
 BYTE   Cn3  v052
 BYTE   W04
 BYTE   Ds3  v056
 BYTE   W04
 BYTE   Fs3
 BYTE   W04
 BYTE   An3  v060
 BYTE   W04
 BYTE   Cn4  v064
 BYTE   W04
 BYTE   Bn2
 BYTE   W04
 BYTE   Dn3  v068
 BYTE   W04
 BYTE   Fn3  v072
 BYTE   W04
 BYTE   Gs3
 BYTE   W04
 BYTE   Bn3  v076
 BYTE   W04
 BYTE   Dn4  v080
 BYTE   W04
 BYTE   An3
 BYTE   W04
 BYTE   Cn4  v084
 BYTE   W04
 BYTE   Ds4  v088
 BYTE   W04
 BYTE   Fs4  v092
 BYTE   W04
 BYTE   An4
 BYTE   W04
 BYTE   Cn5
 BYTE   W04
//  #05 //001   ----------------------------------------
Label_011E034F:
 BYTE   BENDR  40
 BYTE   N28  Cn4  v080
 BYTE   W19
 BYTE   W09
 BYTE   CnM2
 BYTE   W02
 BYTE   N05  Bn3
 BYTE   W06
 BYTE   An3
 BYTE   W06
 BYTE   Bn3
 BYTE   W06
 BYTE   N23  Cn4
 BYTE   W19
 BYTE   W04
 BYTE   CnM2
 BYTE   W01
 BYTE   N23  En4
 BYTE   W19
 BYTE   W04
 BYTE   CnM2
 BYTE   W01
//  #05 //002   ----------------------------------------
Label_011E036B:
 BYTE   N28  Dn4  v080
 BYTE   W19
 BYTE   W09
 BYTE   CnM2
 BYTE   W02
 BYTE   N05
 BYTE   W06
 BYTE   Cn4
 BYTE   W06
 BYTE   Bn3
 BYTE   W06
 BYTE   N23  An3
 BYTE   W19
 BYTE   W04
 BYTE   CnM2
 BYTE   W01
 BYTE   N23  Bn3
 BYTE   W19
 BYTE   W04
 BYTE   CnM2
 BYTE   W01
 BYTE   PEND 
//  #05 //003   ----------------------------------------
Label_011E0385:
 BYTE   N28  Bn3  v080
 BYTE   W19
 BYTE   W09
 BYTE   CnM2
 BYTE   W02
 BYTE   N05
 BYTE   W06
 BYTE   N05
 BYTE   W06
 BYTE   Ds4
 BYTE   W06
 BYTE   N44  Bn3
 BYTE   W19
 BYTE   W24
 BYTE   W01
 BYTE   CnM2
 BYTE   W04
 BYTE   PEND 
//  #05 //004   ----------------------------------------
Label_011E039A:
 BYTE   N28  Dn4  v080
 BYTE   W19
 BYTE   W09
 BYTE   CnM2
 BYTE   W02
 BYTE   N05
 BYTE   W06
 BYTE   En4
 BYTE   W06
 BYTE   Fs4
 BYTE   W06
 BYTE   N23  Dn4
 BYTE   W19
 BYTE   W04
 BYTE   CnM2
 BYTE   W01
 BYTE   N23  En4
 BYTE   W19
 BYTE   W04
 BYTE   CnM2
 BYTE   W01
 BYTE   PEND 
//  #05 //005   ----------------------------------------
 BYTE   N05  En4  v060
 BYTE   W06
 BYTE   Cn4
 BYTE   W06
 BYTE   En4
 BYTE   W06
 BYTE   N05
 BYTE   W06
 BYTE   Cn4
 BYTE   W06
 BYTE   En4
 BYTE   W06
 BYTE   N15  An4  v080
 BYTE   W18
 BYTE   N05  Cn5
 BYTE   W06
 BYTE   Bn4
 BYTE   W06
 BYTE   An4
 BYTE   W06
 BYTE   Gn4
 BYTE   W06
 BYTE   Fn4
 BYTE   W06
 BYTE   Gn4
 BYTE   W06
 BYTE   An4
 BYTE   W06
//  #05 //006   ----------------------------------------
Label_011E03D5:
 BYTE   N17  Gn4  v080
 BYTE   W18
 BYTE   Dn4
 BYTE   W18
 BYTE   N11  Gn4
 BYTE   W12
 BYTE   N17  Fn4
 BYTE   W18
 BYTE   N17
 BYTE   W18
 BYTE   N11
 BYTE   W12
 BYTE   PEND 
//  #05 //007   ----------------------------------------
Label_011E03E6:
 BYTE   N44  En4  v080
 BYTE   W19
 BYTE   W24
 BYTE   W01
 BYTE   CnM2
 BYTE   W04
 BYTE   N17
 BYTE   W18
 BYTE   Fn4
 BYTE   W18
 BYTE   N11  Gs4
 BYTE   W12
 BYTE   PEND 
//  #05 //008   ----------------------------------------
 BYTE   N05  An4
 BYTE   W06
 BYTE   En4
 BYTE   W06
 BYTE   Cn4
 BYTE   W06
 BYTE   Gn4
 BYTE   W06
 BYTE   Dn4
 BYTE   W06
 BYTE   Bn3
 BYTE   W06
 BYTE   N32  Fn4
 BYTE   W19
 BYTE   W13
 BYTE   CnM2
 BYTE   W04
 BYTE   N11  En4
 BYTE   W12
 BYTE   Fn4
 BYTE   W12
//  #05 //009   ----------------------------------------
 BYTE   N28  Cn4
 BYTE   W19
 BYTE   W09
 BYTE   CnM2
 BYTE   W02
 BYTE   N05  Bn3
 BYTE   W06
 BYTE   An3
 BYTE   W06
 BYTE   Bn3
 BYTE   W06
 BYTE   N23  Cn4
 BYTE   W19
 BYTE   W04
 BYTE   CnM2
 BYTE   W01
 BYTE   N23  En4
 BYTE   W19
 BYTE   W04
 BYTE   CnM2
 BYTE   W01
//  #05 //010   ----------------------------------------
 BYTE   PATT
  POIN2 Label_011E036B
//  #05 //011   ----------------------------------------
 BYTE   PATT
  POIN2 Label_011E0385
//  #05 //012   ----------------------------------------
 BYTE   PATT
  POIN2 Label_011E039A
//  #05 //013   ----------------------------------------
 BYTE   N05  En4  v080
 BYTE   W06
 BYTE   Cn4
 BYTE   W06
 BYTE   En4
 BYTE   W06
 BYTE   N05
 BYTE   W06
 BYTE   Cn4
 BYTE   W06
 BYTE   En4
 BYTE   W06
 BYTE   N15  An4
 BYTE   W18
 BYTE   N05  Cn5
 BYTE   W06
 BYTE   Bn4
 BYTE   W06
 BYTE   An4
 BYTE   W06
 BYTE   Gn4
 BYTE   W06
 BYTE   Fn4
 BYTE   W06
 BYTE   Gn4
 BYTE   W06
 BYTE   An4
 BYTE   W06
//  #05 //014   ----------------------------------------
 BYTE   PATT
  POIN2 Label_011E03D5
//  #05 //015   ----------------------------------------
 BYTE   PATT
  POIN2 Label_011E03E6
//  #05 //016   ----------------------------------------
 BYTE   W11
 BYTE   N05  Fn3  v048
 BYTE   W06
 BYTE   An3
 BYTE   W06
 BYTE   Cn4
 BYTE   W06
 BYTE   En4
 BYTE   W06
 BYTE   Fn4
 BYTE   W06
 BYTE   An4
 BYTE   W06
 BYTE   Cn5
 BYTE   W06
 BYTE   En5
 BYTE   W06
 BYTE   Cn5
 BYTE   W06
 BYTE   An4
 BYTE   W06
 BYTE   Fn4
 BYTE   W06
 BYTE   En4
 BYTE   W06
 BYTE   Cn4
 BYTE   W06
 BYTE   An3
 BYTE   W06
 BYTE   Fn3
 BYTE   W01
//  #05 //017   ----------------------------------------
 BYTE   W05
 BYTE   An3
 BYTE   W06
 BYTE   Dn3
 BYTE   W06
 BYTE   Gn3
 BYTE   W06
 BYTE   Bn3
 BYTE   W06
 BYTE   Dn4
 BYTE   W06
 BYTE   Gn4
 BYTE   W06
 BYTE   Bn4
 BYTE   W06
 BYTE   Dn5
 BYTE   W06
 BYTE   Bn4
 BYTE   W06
 BYTE   Gn5
 BYTE   W06
 BYTE   Dn5
 BYTE   W06
 BYTE   Bn4
 BYTE   W06
 BYTE   Gn4
 BYTE   W06
 BYTE   Bn3
 BYTE   W06
 BYTE   Dn4
 BYTE   W06
 BYTE   Gn3
 BYTE   W01
//  #05 //018   ----------------------------------------
 BYTE   W05
 BYTE   Bn3
 BYTE   W06
 BYTE   Fn3
 BYTE   W06
 BYTE   An3
 BYTE   W06
 BYTE   Cn4
 BYTE   W06
 BYTE   En4
 BYTE   W06
 BYTE   Fn4
 BYTE   W06
 BYTE   An4
 BYTE   W06
 BYTE   Cn5
 BYTE   W06
 BYTE   En5
 BYTE   W06
 BYTE   Fn5
 BYTE   W06
 BYTE   En5
 BYTE   W06
 BYTE   Cn5
 BYTE   W06
 BYTE   An4
 BYTE   W06
 BYTE   Fn4
 BYTE   W06
 BYTE   En4
 BYTE   W06
 BYTE   Cn4
 BYTE   W01
//  #05 //019   ----------------------------------------
 BYTE   W05
 BYTE   An3
 BYTE   W06
 BYTE   Gn3
 BYTE   W06
 BYTE   Bn3
 BYTE   W06
 BYTE   En4
 BYTE   W06
 BYTE   Gn4
 BYTE   W06
 BYTE   Bn4
 BYTE   W06
 BYTE   En5
 BYTE   W06
 BYTE   Gn5
 BYTE   W06
 BYTE   En5
 BYTE   W06
 BYTE   Gs5
 BYTE   W06
 BYTE   En5
 BYTE   W06
 BYTE   Bn4
 BYTE   W06
 BYTE   Gs4
 BYTE   W06
 BYTE   En4
 BYTE   W06
 BYTE   Bn3
 BYTE   W07
//  #05 //020   ----------------------------------------
 BYTE   W96
//  #05 //021   ----------------------------------------
 BYTE   W96
//  #05 //022   ----------------------------------------
 BYTE   W96
//  #05 //023   ----------------------------------------
 BYTE   W96
//  #05 //024   ----------------------------------------
 BYTE   W96
//  #05 //025   ----------------------------------------
 BYTE   W96
//  #05 //026   ----------------------------------------
 BYTE   W96
//  #05 //027   ----------------------------------------
 BYTE   W96
//  #05 //028   ----------------------------------------
 BYTE   W96
//  #05 //029   ----------------------------------------
 BYTE   W96
//  #05 //030   ----------------------------------------
 BYTE   W96
//  #05 //031   ----------------------------------------
 BYTE   W96
//  #05 //032   ----------------------------------------
 BYTE   W96
//  #05 //033   ----------------------------------------
 BYTE   W96
//  #05 //034   ----------------------------------------
 BYTE   W96
//  #05 //035   ----------------------------------------
 BYTE   W96
//  #05 //036   ----------------------------------------
 BYTE   GoTo
  POIN2 Label_011E034F
 BYTE   FINE

//**************** Track 6 (Midi-Chn.5) ****************//

GoldenSun_EnemyBattle_006:
//  #06 //000   ----------------------------------------
 BYTE   KEYSH   GoldenSun_EnemyBattle_key+0
 BYTE   VOICE   121
 BYTE   LFOS 44
 BYTE   VOL   44*GoldenSun_EnemyBattle_mvl/mxv
 BYTE   N11  Cn1  v127
 BYTE   W12
 BYTE   N05
 BYTE   N05  Cn2
 BYTE   W06
 BYTE   N05
 BYTE   W06
 BYTE   Cn1
 BYTE   N05  An1
 BYTE   W06
 BYTE   N05
 BYTE   W06
 BYTE   Cn1
 BYTE   W06
 BYTE   Dn1
 BYTE   W06
 BYTE   N05
 BYTE   W06
 BYTE   N05
 BYTE   W06
 BYTE   N03  Cn2
 BYTE   W04
 BYTE   N03
 BYTE   W04
 BYTE   N03
 BYTE   W04
 BYTE   An1
 BYTE   W04
 BYTE   N03
 BYTE   W04
 BYTE   N03
 BYTE   W04
 BYTE   Fn1
 BYTE   W04
 BYTE   N03
 BYTE   W04
 BYTE   N03
 BYTE   W04
//  #06 //001   ----------------------------------------
Label_011CA5E3:
 BYTE   N05  Cn1  v127
 BYTE   W06
 BYTE   Fn1  v104
 BYTE   W06
 BYTE   Dn1  v127
 BYTE   W06
 BYTE   Fn1  v104
 BYTE   W06
 BYTE   Cn1  v127
 BYTE   W06
 BYTE   N05
 BYTE   W06
 BYTE   Dn1
 BYTE   W06
 BYTE   Fn1  v104
 BYTE   W06
 BYTE   Cn1  v127
 BYTE   W06
 BYTE   N05
 BYTE   W06
 BYTE   Dn1
 BYTE   W06
 BYTE   Cn1
 BYTE   W06
 BYTE   Fn1  v104
 BYTE   W06
 BYTE   Cn1  v127
 BYTE   W06
 BYTE   Dn1
 BYTE   W06
 BYTE   Fn1  v104
 BYTE   W06
 BYTE   PEND 
//  #06 //002   ----------------------------------------
 BYTE   PATT
  POIN2 Label_011CA5E3
//  #06 //003   ----------------------------------------
 BYTE   PATT
  POIN2 Label_011CA5E3
//  #06 //004   ----------------------------------------
 BYTE   PATT
  POIN2 Label_011CA5E3
//  #06 //005   ----------------------------------------
 BYTE   PATT
  POIN2 Label_011CA5E3
//  #06 //006   ----------------------------------------
 BYTE   PATT
  POIN2 Label_011CA5E3
//  #06 //007   ----------------------------------------
 BYTE   PATT
  POIN2 Label_011CA5E3
//  #06 //008   ----------------------------------------
Label_011CA62D:
 BYTE   N05  Cn1  v127
 BYTE   W06
 BYTE   Fn1  v104
 BYTE   W06
 BYTE   Dn1  v127
 BYTE   W06
 BYTE   Fn1  v104
 BYTE   W06
 BYTE   Cn1  v127
 BYTE   W06
 BYTE   N05
 BYTE   W06
 BYTE   Dn1
 BYTE   W06
 BYTE   Fn1  v104
 BYTE   W06
 BYTE   Cn1  v127
 BYTE   W06
 BYTE   N05
 BYTE   W06
 BYTE   Dn1
 BYTE   W06
 BYTE   Cn1
 BYTE   W06
 BYTE   Dn1  v104
 BYTE   W06
 BYTE   Dn1  v127
 BYTE   W06
 BYTE   N05
 BYTE   W06
 BYTE   N05
 BYTE   W06
 BYTE   PEND 
//  #06 //009   ----------------------------------------
 BYTE   PATT
  POIN2 Label_011CA5E3
//  #06 //010   ----------------------------------------
 BYTE   PATT
  POIN2 Label_011CA5E3
//  #06 //011   ----------------------------------------
 BYTE   PATT
  POIN2 Label_011CA5E3
//  #06 //012   ----------------------------------------
 BYTE   PATT
  POIN2 Label_011CA5E3
//  #06 //013   ----------------------------------------
 BYTE   PATT
  POIN2 Label_011CA5E3
//  #06 //014   ----------------------------------------
 BYTE   PATT
  POIN2 Label_011CA5E3
//  #06 //015   ----------------------------------------
 BYTE   PATT
  POIN2 Label_011CA62D
//  #06 //016   ----------------------------------------
 BYTE   PATT
  POIN2 Label_011CA5E3
//  #06 //017   ----------------------------------------
 BYTE   PATT
  POIN2 Label_011CA5E3
//  #06 //018   ----------------------------------------
 BYTE   PATT
  POIN2 Label_011CA5E3
//  #06 //019   ----------------------------------------
 BYTE   PATT
  POIN2 Label_011CA5E3
//  #06 //020   ----------------------------------------
 BYTE   PATT
  POIN2 Label_011CA5E3
//  #06 //021   ----------------------------------------
 BYTE   PATT
  POIN2 Label_011CA5E3
//  #06 //022   ----------------------------------------
 BYTE   PATT
  POIN2 Label_011CA5E3
//  #06 //023   ----------------------------------------
 BYTE   PATT
  POIN2 Label_011CA62D
//  #06 //024   ----------------------------------------
 BYTE   PATT
  POIN2 Label_011CA5E3
//  #06 //025   ----------------------------------------
 BYTE   PATT
  POIN2 Label_011CA5E3
//  #06 //026   ----------------------------------------
 BYTE   PATT
  POIN2 Label_011CA5E3
//  #06 //027   ----------------------------------------
 BYTE   PATT
  POIN2 Label_011CA62D
//  #06 //028   ----------------------------------------
Label_011CA6B7:
 BYTE   N11  Dn1  v127
 BYTE   W12
 BYTE   N05  Cn1
 BYTE   W06
 BYTE   N05
 BYTE   W06
 BYTE   Dn1
 BYTE   W06
 BYTE   N11  Cn1
 BYTE   W12
 BYTE   N05
 BYTE   W06
 BYTE   N11  Dn1
 BYTE   W12
 BYTE   N05  Cn1
 BYTE   W06
 BYTE   N05
 BYTE   W06
 BYTE   Dn1
 BYTE   W06
 BYTE   N11  Cn1
 BYTE   W12
 BYTE   N05
 BYTE   W06
 BYTE   PEND 
//  #06 //029   ----------------------------------------
 BYTE   PATT
  POIN2 Label_011CA6B7
//  #06 //030   ----------------------------------------
 BYTE   PATT
  POIN2 Label_011CA6B7
//  #06 //031   ----------------------------------------
 BYTE   N11  Dn1  v127
 BYTE   W12
 BYTE   N05  Cn1
 BYTE   W06
 BYTE   N05
 BYTE   W06
 BYTE   Dn1
 BYTE   W06
 BYTE   N11  Cn1
 BYTE   W12
 BYTE   N05
 BYTE   W06
 BYTE   N11  Dn1
 BYTE   W12
 BYTE   N05  Cn1
 BYTE   W06
 BYTE   N05
 BYTE   W06
 BYTE   N10  Cn2
 BYTE   W01
 BYTE   N05  Dn1
 BYTE   W05
 BYTE   An1
 BYTE   W01
 BYTE   Dn1
 BYTE   W05
 BYTE   Fn1
 BYTE   W01
 BYTE   Dn1
 BYTE   W05
 BYTE   N10  Fn1
 BYTE   W01
 BYTE   N05  Dn1
 BYTE   W05
//  #06 //032   ----------------------------------------
 BYTE   PATT
  POIN2 Label_011CA6B7
//  #06 //033   ----------------------------------------
 BYTE   PATT
  POIN2 Label_011CA6B7
//  #06 //034   ----------------------------------------
 BYTE   PATT
  POIN2 Label_011CA6B7
//  #06 //035   ----------------------------------------
 BYTE   N11  Dn1  v127
 BYTE   W12
 BYTE   N05  Cn1
 BYTE   W06
 BYTE   N05
 BYTE   W06
 BYTE   Dn1
 BYTE   W06
 BYTE   N11  Cn1
 BYTE   W12
 BYTE   N05
 BYTE   W06
 BYTE   N11  Dn1
 BYTE   W12
 BYTE   N05  Cn1
 BYTE   W06
 BYTE   N05
 BYTE   W06
 BYTE   N10  Cn2
 BYTE   W01
 BYTE   N05  Dn1
 BYTE   W05
 BYTE   An1
 BYTE   W01
 BYTE   Dn1
 BYTE   W05
 BYTE   Fn1
 BYTE   W01
 BYTE   Dn1
 BYTE   W06
 BYTE   N05
 BYTE   W05
//  #06 //036   ----------------------------------------
 BYTE   GoTo
  POIN2 Label_011CA5E3
 BYTE   FINE

//**************** Track 7 (Midi-Chn.6) ****************//

GoldenSun_EnemyBattle_007:
//  #07 //000   ----------------------------------------
 BYTE   KEYSH   GoldenSun_EnemyBattle_key+0
 BYTE   VOICE   104
 BYTE   LFOS 44
 BYTE   VOL   33*GoldenSun_EnemyBattle_mvl/mxv
 BYTE   PAN   c_v+0
 BYTE   W96
//  #07 //001   ----------------------------------------
Label_011E0527:
 BYTE   BENDR  40
 BYTE   W19
 BYTE   W09
 BYTE   BENDR  0
 BYTE   W36
 BYTE   W03
 BYTE   BENDR  20
 BYTE   W04
 BYTE   BENDR  0
 BYTE   W20
 BYTE   BENDR  20
 BYTE   W04
 BYTE   BENDR  0
 BYTE   W01
//  #07 //002   ----------------------------------------
Label_011E0536:
 BYTE   W19
 BYTE   W09
 BYTE   BENDR  0
 BYTE   W36
 BYTE   W03
 BYTE   BENDR  20
 BYTE   W04
 BYTE   BENDR  0
 BYTE   W20
 BYTE   BENDR  20
 BYTE   W04
 BYTE   BENDR  0
 BYTE   W01
 BYTE   PEND 
//  #07 //003   ----------------------------------------
Label_011E0544:
 BYTE   W19
 BYTE   W09
 BYTE   CnM2
 BYTE   W36
 BYTE   W03
 BYTE   GsM1
 BYTE   W24
 BYTE   W01
 BYTE   CnM2
 BYTE   W04
 BYTE   PEND 
//  #07 //004   ----------------------------------------
 BYTE   PATT
  POIN2 Label_011E0536
//  #07 //005   ----------------------------------------
 BYTE   W96
//  #07 //006   ----------------------------------------
 BYTE   W96
//  #07 //007   ----------------------------------------
Label_011E0556:
 BYTE   W19
 BYTE   W24
 BYTE   W01
 BYTE   CnM2
 BYTE   W52
 BYTE   PEND 
//  #07 //008   ----------------------------------------
 BYTE   W54
 BYTE   W01
 BYTE   GsM1
 BYTE   W13
 BYTE   CnM2
 BYTE   W28
//  #07 //009   ----------------------------------------
 BYTE   PATT
  POIN2 Label_011E0536
//  #07 //010   ----------------------------------------
 BYTE   PATT
  POIN2 Label_011E0536
//  #07 //011   ----------------------------------------
 BYTE   PATT
  POIN2 Label_011E0544
//  #07 //012   ----------------------------------------
 BYTE   PATT
  POIN2 Label_011E0536
//  #07 //013   ----------------------------------------
 BYTE   W96
//  #07 //014   ----------------------------------------
 BYTE   W96
//  #07 //015   ----------------------------------------
 BYTE   PATT
  POIN2 Label_011E0556
//  #07 //016   ----------------------------------------
 BYTE   N05  Fn3  v092
 BYTE   W06
 BYTE   An3
 BYTE   W06
 BYTE   Cn4
 BYTE   W06
 BYTE   En4
 BYTE   W06
 BYTE   Fn4
 BYTE   W06
 BYTE   An4
 BYTE   W06
 BYTE   Cn5
 BYTE   W06
 BYTE   En5
 BYTE   W06
 BYTE   Cn5
 BYTE   W06
 BYTE   An4
 BYTE   W06
 BYTE   Fn4
 BYTE   W06
 BYTE   En4
 BYTE   W06
 BYTE   Cn4
 BYTE   W06
 BYTE   An3
 BYTE   W06
 BYTE   Fn3
 BYTE   W06
 BYTE   An3
 BYTE   W06
//  #07 //017   ----------------------------------------
 BYTE   Dn3
 BYTE   W06
 BYTE   Gn3
 BYTE   W06
 BYTE   Bn3
 BYTE   W06
 BYTE   Dn4
 BYTE   W06
 BYTE   Gn4
 BYTE   W06
 BYTE   Bn4
 BYTE   W06
 BYTE   Dn5
 BYTE   W06
 BYTE   Bn4
 BYTE   W06
 BYTE   Gn5
 BYTE   W06
 BYTE   Dn5
 BYTE   W06
 BYTE   Bn4
 BYTE   W06
 BYTE   Gn4
 BYTE   W06
 BYTE   Bn3
 BYTE   W06
 BYTE   Dn4
 BYTE   W06
 BYTE   Gn3
 BYTE   W06
 BYTE   Bn3
 BYTE   W06
//  #07 //018   ----------------------------------------
 BYTE   Fn3
 BYTE   W06
 BYTE   An3
 BYTE   W06
 BYTE   Cn4
 BYTE   W06
 BYTE   En4
 BYTE   W06
 BYTE   Fn4
 BYTE   W06
 BYTE   An4
 BYTE   W06
 BYTE   Cn5
 BYTE   W06
 BYTE   En5
 BYTE   W06
 BYTE   Fn5
 BYTE   W06
 BYTE   En5
 BYTE   W06
 BYTE   Cn5
 BYTE   W06
 BYTE   An4
 BYTE   W06
 BYTE   Fn4
 BYTE   W06
 BYTE   En4
 BYTE   W06
 BYTE   Cn4
 BYTE   W06
 BYTE   An3
 BYTE   W06
//  #07 //019   ----------------------------------------
 BYTE   Gn3
 BYTE   W06
 BYTE   Bn3
 BYTE   W06
 BYTE   En4
 BYTE   W06
 BYTE   Gn4
 BYTE   W06
 BYTE   Bn4
 BYTE   W06
 BYTE   En5
 BYTE   W06
 BYTE   Gn5
 BYTE   W06
 BYTE   En5
 BYTE   W06
 BYTE   Gs5
 BYTE   W06
 BYTE   En5
 BYTE   W06
 BYTE   Bn4
 BYTE   W06
 BYTE   Gs4
 BYTE   W06
 BYTE   En4
 BYTE   W06
 BYTE   Bn3
 BYTE   W06
 BYTE   Gs3
 BYTE   W06
 BYTE   En3
 BYTE   W06
//  #07 //020   ----------------------------------------
Label_011E05FF:
 BYTE   W30
 BYTE   W01
 BYTE   W13
 BYTE   CnM2
 BYTE   W52
 BYTE   PEND 
//  #07 //021   ----------------------------------------
Label_011E0605:
 BYTE   W19
 BYTE   W72
 BYTE   W01
 BYTE   CnM2
 BYTE   W04
 BYTE   PEND 
//  #07 //022   ----------------------------------------
 BYTE   PATT
  POIN2 Label_011E05FF
//  #07 //023   ----------------------------------------
 BYTE   PATT
  POIN2 Label_011E0605
//  #07 //024   ----------------------------------------
 BYTE   PATT
  POIN2 Label_011E05FF
//  #07 //025   ----------------------------------------
 BYTE   PATT
  POIN2 Label_011E0605
//  #07 //026   ----------------------------------------
 BYTE   PATT
  POIN2 Label_011E05FF
//  #07 //027   ----------------------------------------
 BYTE   PATT
  POIN2 Label_011E0605
//  #07 //028   ----------------------------------------
 BYTE   W96
//  #07 //029   ----------------------------------------
 BYTE   W96
//  #07 //030   ----------------------------------------
 BYTE   W96
//  #07 //031   ----------------------------------------
 BYTE   BENDR  40
 BYTE   W96
//  #07 //032   ----------------------------------------
Label_011E062F:
 BYTE   BEND   c_v-64
 BYTE   W02
 BYTE   BEND   c_v-56
 BYTE   W02
 BYTE   BEND   c_v-50
 BYTE   W02
 BYTE   BEND   c_v-44
 BYTE   W02
 BYTE   BEND   c_v-39
 BYTE   W02
 BYTE   BEND   c_v-35
 BYTE   W02
 BYTE   BEND   c_v-31
 BYTE   W02
 BYTE   BEND   c_v-28
 BYTE   W02
 BYTE   BEND   c_v-25
 BYTE   W02
 BYTE   BEND   c_v-22
 BYTE   W01
 BYTE   W01
 BYTE   BEND   c_v-19
 BYTE   W02
 BYTE   BEND   c_v-17
 BYTE   W02
 BYTE   BEND   c_v-15
 BYTE   W02
 BYTE   BEND   c_v-14
 BYTE   W02
 BYTE   BEND   c_v-12
 BYTE   W02
 BYTE   BEND   c_v-11
 BYTE   W02
 BYTE   BEND   c_v-9
 BYTE   W02
 BYTE   BEND   c_v-8
 BYTE   W02
 BYTE   BEND   c_v-7
 BYTE   W04
 BYTE   BEND   c_v-6
 BYTE   W02
 BYTE   BEND   c_v-5
 BYTE   W02
 BYTE   BEND   c_v-4
 BYTE   W04
 BYTE   BEND   c_v-3
 BYTE   W06
 BYTE   BEND   c_v-2
 BYTE   W06
 BYTE   BEND   c_v-1
 BYTE   W12
 BYTE   BEND   c_v+0
 BYTE   W20
 BYTE   W04
 BYTE   PEND 
//  #07 //033   ----------------------------------------
 BYTE   PATT
  POIN2 Label_011E062F
//  #07 //034   ----------------------------------------
 BYTE   PATT
  POIN2 Label_011E062F
//  #07 //035   ----------------------------------------
 BYTE   PATT
  POIN2 Label_011E062F
//  #07 //036   ----------------------------------------
 BYTE   GoTo
  POIN2 Label_011E0527
//  #07 //037   ----------------------------------------
 BYTE   BENDR  40
 BYTE   FINE

//**************** Track 8 (Midi-Chn.7) ****************//

GoldenSun_EnemyBattle_008:
//  #08 //000   ----------------------------------------
 BYTE   KEYSH   GoldenSun_EnemyBattle_key+0
 BYTE   VOICE   104
 BYTE   LFOS 44
 BYTE   VOL   21*GoldenSun_EnemyBattle_mvl/mxv
 BYTE   PAN   c_v+0
 BYTE   N03  Dn3  v044
 BYTE   W04
 BYTE   Fn3
 BYTE   W04
 BYTE   Gs3  v048
 BYTE   W04
 BYTE   Bn3  v052
 BYTE   W04
 BYTE   Dn4
 BYTE   W04
 BYTE   Fn4  v056
 BYTE   W04
 BYTE   Ds3  v060
 BYTE   W04
 BYTE   Fs3  v064
 BYTE   W04
 BYTE   An3
 BYTE   W04
 BYTE   Cn4  v068
 BYTE   W04
 BYTE   Ds4  v072
 BYTE   W04
 BYTE   Fs4
 BYTE   W04
 BYTE   Fn3  v076
 BYTE   W04
 BYTE   Gs3  v080
 BYTE   W04
 BYTE   Bn3
 BYTE   W04
 BYTE   Dn4  v084
 BYTE   W04
 BYTE   Fn4  v088
 BYTE   W04
 BYTE   Gs4
 BYTE   W04
 BYTE   Ds4  v092
 BYTE   W04
 BYTE   Fs4
 BYTE   W04
 BYTE   An4
 BYTE   W04
 BYTE   Cn5  v100
 BYTE   W04
 BYTE   Ds5
 BYTE   W04
 BYTE   Fs5
 BYTE   W04
//  #08 //001   ----------------------------------------
Label_011909A9:
 BYTE   BENDR  40
 BYTE   W19
 BYTE   W09
 BYTE   BENDR  0
 BYTE   W36
 BYTE   W03
 BYTE   BENDR  20
 BYTE   W04
 BYTE   BENDR  0
 BYTE   W20
 BYTE   BENDR  20
 BYTE   W04
 BYTE   BENDR  0
 BYTE   W01
//  #08 //002   ----------------------------------------
Label_011909B8:
 BYTE   W19
 BYTE   W09
 BYTE   BENDR  0
 BYTE   W36
 BYTE   W03
 BYTE   BENDR  20
 BYTE   W04
 BYTE   BENDR  0
 BYTE   W20
 BYTE   BENDR  20
 BYTE   W04
 BYTE   BENDR  0
 BYTE   W01
 BYTE   PEND 
//  #08 //003   ----------------------------------------
Label_011909C6:
 BYTE   W19
 BYTE   W09
 BYTE   CnM2
 BYTE   W36
 BYTE   W03
 BYTE   GsM1
 BYTE   W24
 BYTE   W01
 BYTE   CnM2
 BYTE   W04
 BYTE   PEND 
//  #08 //004   ----------------------------------------
 BYTE   PATT
  POIN2 Label_011909B8
//  #08 //005   ----------------------------------------
 BYTE   W96
//  #08 //006   ----------------------------------------
 BYTE   W96
//  #08 //007   ----------------------------------------
Label_011909D8:
 BYTE   W19
 BYTE   W24
 BYTE   W01
 BYTE   CnM2
 BYTE   W52
 BYTE   PEND 
//  #08 //008   ----------------------------------------
 BYTE   W54
 BYTE   W01
 BYTE   GsM1
 BYTE   W13
 BYTE   CnM2
 BYTE   W28
//  #08 //009   ----------------------------------------
 BYTE   PATT
  POIN2 Label_011909B8
//  #08 //010   ----------------------------------------
 BYTE   PATT
  POIN2 Label_011909B8
//  #08 //011   ----------------------------------------
 BYTE   PATT
  POIN2 Label_011909C6
//  #08 //012   ----------------------------------------
 BYTE   PATT
  POIN2 Label_011909B8
//  #08 //013   ----------------------------------------
 BYTE   W96
//  #08 //014   ----------------------------------------
 BYTE   W96
//  #08 //015   ----------------------------------------
 BYTE   PATT
  POIN2 Label_011909D8
//  #08 //016   ----------------------------------------
 BYTE   W96
//  #08 //017   ----------------------------------------
 BYTE   W96
//  #08 //018   ----------------------------------------
 BYTE   W96
//  #08 //019   ----------------------------------------
 BYTE   W96
//  #08 //020   ----------------------------------------
Label_01190A03:
 BYTE   W30
 BYTE   W01
 BYTE   W13
 BYTE   CnM2
 BYTE   W52
 BYTE   PEND 
//  #08 //021   ----------------------------------------
Label_01190A09:
 BYTE   W19
 BYTE   W72
 BYTE   W01
 BYTE   CnM2
 BYTE   W04
 BYTE   PEND 
//  #08 //022   ----------------------------------------
 BYTE   PATT
  POIN2 Label_01190A03
//  #08 //023   ----------------------------------------
 BYTE   PATT
  POIN2 Label_01190A09
//  #08 //024   ----------------------------------------
 BYTE   PATT
  POIN2 Label_01190A03
//  #08 //025   ----------------------------------------
 BYTE   PATT
  POIN2 Label_01190A09
//  #08 //026   ----------------------------------------
 BYTE   PATT
  POIN2 Label_01190A03
//  #08 //027   ----------------------------------------
 BYTE   PATT
  POIN2 Label_01190A09
//  #08 //028   ----------------------------------------
 BYTE   W96
//  #08 //029   ----------------------------------------
 BYTE   W96
//  #08 //030   ----------------------------------------
 BYTE   W96
//  #08 //031   ----------------------------------------
 BYTE   BENDR  40
 BYTE   W96
//  #08 //032   ----------------------------------------
Label_01190A33:
 BYTE   BEND   c_v-64
 BYTE   W02
 BYTE   BEND   c_v-56
 BYTE   W02
 BYTE   BEND   c_v-50
 BYTE   W02
 BYTE   BEND   c_v-44
 BYTE   W02
 BYTE   BEND   c_v-39
 BYTE   W02
 BYTE   BEND   c_v-35
 BYTE   W02
 BYTE   BEND   c_v-31
 BYTE   W02
 BYTE   BEND   c_v-28
 BYTE   W02
 BYTE   BEND   c_v-25
 BYTE   W02
 BYTE   BEND   c_v-22
 BYTE   W01
 BYTE   W01
 BYTE   BEND   c_v-19
 BYTE   W02
 BYTE   BEND   c_v-17
 BYTE   W02
 BYTE   BEND   c_v-15
 BYTE   W02
 BYTE   BEND   c_v-14
 BYTE   W02
 BYTE   BEND   c_v-12
 BYTE   W02
 BYTE   BEND   c_v-11
 BYTE   W02
 BYTE   BEND   c_v-9
 BYTE   W02
 BYTE   BEND   c_v-8
 BYTE   W02
 BYTE   BEND   c_v-7
 BYTE   W04
 BYTE   BEND   c_v-6
 BYTE   W02
 BYTE   BEND   c_v-5
 BYTE   W02
 BYTE   BEND   c_v-4
 BYTE   W04
 BYTE   BEND   c_v-3
 BYTE   W06
 BYTE   BEND   c_v-2
 BYTE   W06
 BYTE   BEND   c_v-1
 BYTE   W12
 BYTE   BEND   c_v+0
 BYTE   W20
 BYTE   W04
 BYTE   PEND 
//  #08 //033   ----------------------------------------
 BYTE   PATT
  POIN2 Label_01190A33
//  #08 //034   ----------------------------------------
 BYTE   PATT
  POIN2 Label_01190A33
//  #08 //035   ----------------------------------------
 BYTE   PATT
  POIN2 Label_01190A33
//  #08 //036   ----------------------------------------
 BYTE   GoTo
  POIN2 Label_011909A9
//  #08 //037   ----------------------------------------
 BYTE   BENDR  40
 BYTE   FINE

//**************** Track 9 (Midi-Chn.8) ****************//

GoldenSun_EnemyBattle_009:
//  #09 //000   ----------------------------------------
 BYTE   KEYSH   GoldenSun_EnemyBattle_key+0
 BYTE   VOICE   40
 BYTE   LFOS 44
 BYTE   VOL   39*GoldenSun_EnemyBattle_mvl/mxv
 BYTE   PAN   c_v+0
 BYTE   BENDR  40
 BYTE   W96
//  #09 //001   ----------------------------------------
Label_01172D35:
 BYTE   W96
//  #09 //002   ----------------------------------------
 BYTE   W96
//  #09 //003   ----------------------------------------
 BYTE   W96
//  #09 //004   ----------------------------------------
 BYTE   W96
//  #09 //005   ----------------------------------------
 BYTE   W96
//  #09 //006   ----------------------------------------
 BYTE   W96
//  #09 //007   ----------------------------------------
 BYTE   W96
//  #09 //008   ----------------------------------------
 BYTE   W96
//  #09 //009   ----------------------------------------
 BYTE   W96
//  #09 //010   ----------------------------------------
 BYTE   W96
//  #09 //011   ----------------------------------------
 BYTE   W96
//  #09 //012   ----------------------------------------
 BYTE   W96
//  #09 //013   ----------------------------------------
 BYTE   W96
//  #09 //014   ----------------------------------------
 BYTE   W96
//  #09 //015   ----------------------------------------
 BYTE   W96
//  #09 //016   ----------------------------------------
 BYTE   W96
//  #09 //017   ----------------------------------------
 BYTE   W96
//  #09 //018   ----------------------------------------
 BYTE   W96
//  #09 //019   ----------------------------------------
 BYTE   W96
//  #09 //020   ----------------------------------------
 BYTE   W96
//  #09 //021   ----------------------------------------
Label_01172D49:
 BYTE   W68
 BYTE   W02
 BYTE   W24
 BYTE   W02
 BYTE   PEND 
//  #09 //022   ----------------------------------------
Label_01172D4E:
 BYTE   W07
 BYTE   W88
 BYTE   W01
 BYTE   PEND 
//  #09 //023   ----------------------------------------
 BYTE   PATT
  POIN2 Label_01172D49
//  #09 //024   ----------------------------------------
 BYTE   PATT
  POIN2 Label_01172D4E
//  #09 //025   ----------------------------------------
 BYTE   PATT
  POIN2 Label_01172D49
//  #09 //026   ----------------------------------------
 BYTE   PATT
  POIN2 Label_01172D4E
//  #09 //027   ----------------------------------------
 BYTE   W68
 BYTE   W02
 BYTE   W24
 BYTE   W01
 BYTE   CnM2
 BYTE   W01
//  #09 //028   ----------------------------------------
Label_01172D6C:
 BYTE   N05  Fs1  v100
 BYTE   W06
 BYTE   N05
 BYTE   W06
 BYTE   Fs2
 BYTE   W06
 BYTE   Fs1
 BYTE   W06
 BYTE   Fs2
 BYTE   W06
 BYTE   Fs1
 BYTE   W06
 BYTE   En2
 BYTE   W06
 BYTE   Fs2
 BYTE   W06
 BYTE   Fs1
 BYTE   W06
 BYTE   N05
 BYTE   W06
 BYTE   Fs2
 BYTE   W06
 BYTE   Fs1
 BYTE   W06
 BYTE   En2
 BYTE   W06
 BYTE   Fs2
 BYTE   W06
 BYTE   Fs1
 BYTE   W06
 BYTE   Fs2
 BYTE   W06
 BYTE   PEND 
//  #09 //029   ----------------------------------------
Label_01172D8F:
 BYTE   N05  Fs1  v100
 BYTE   W06
 BYTE   N05
 BYTE   W06
 BYTE   N05
 BYTE   W06
 BYTE   N05
 BYTE   W06
 BYTE   N05
 BYTE   W06
 BYTE   N05
 BYTE   W06
 BYTE   N05
 BYTE   W06
 BYTE   N05
 BYTE   W06
 BYTE   N05
 BYTE   W06
 BYTE   N05
 BYTE   W06
 BYTE   N05
 BYTE   W06
 BYTE   N05
 BYTE   W06
 BYTE   N05
 BYTE   W06
 BYTE   N05
 BYTE   W06
 BYTE   N05
 BYTE   W06
 BYTE   N05
 BYTE   W06
 BYTE   PEND 
//  #09 //030   ----------------------------------------
 BYTE   PATT
  POIN2 Label_01172D6C
//  #09 //031   ----------------------------------------
 BYTE   PATT
  POIN2 Label_01172D8F
//  #09 //032   ----------------------------------------
 BYTE   PATT
  POIN2 Label_01172D6C
//  #09 //033   ----------------------------------------
 BYTE   PATT
  POIN2 Label_01172D6C
//  #09 //034   ----------------------------------------
 BYTE   PATT
  POIN2 Label_01172D6C
//  #09 //035   ----------------------------------------
 BYTE   PATT
  POIN2 Label_01172D6C
//  #09 //036   ----------------------------------------
 BYTE   GoTo
  POIN2 Label_01172D35
 BYTE   FINE

//******************************************************//
	ALIGN 4

GoldenSun_EnemyBattle:
	BYTE	9	// NumTrks
	BYTE	0	// NumBlks
	BYTE	GoldenSun_EnemyBattle_pri	// Priority
	BYTE	GoldenSun_EnemyBattle_rev	// Reverb.
    
	POIN2	GoldenSun_EnemyBattle_grp
    
	POIN2	GoldenSun_EnemyBattle_001
	POIN2	GoldenSun_EnemyBattle_002
	POIN2	GoldenSun_EnemyBattle_003
	POIN2	GoldenSun_EnemyBattle_004
	POIN2	GoldenSun_EnemyBattle_005
	POIN2	GoldenSun_EnemyBattle_006
	POIN2	GoldenSun_EnemyBattle_007
	POIN2	GoldenSun_EnemyBattle_008
	POIN2	GoldenSun_EnemyBattle_009

	
