//Event file generated from Sappy .s format.
	#include "MPlayDef.event"

	#define	GoldenSunVenusLighthouseSme_grp  voicegroup000
	#define	GoldenSunVenusLighthouseSme_pri  0
	#define	GoldenSunVenusLighthouseSme_rev  0
	#define	GoldenSunVenusLighthouseSme_mvl  75
	#define	GoldenSunVenusLighthouseSme_key  0
	#define	GoldenSunVenusLighthouseSme_tbs  1
	#define	GoldenSunVenusLighthouseSme_exg  0
	#define	GoldenSunVenusLighthouseSme_cmp  1

	// .rodata
	//	GoldenSunVenusLighthouseSme
	ALIGN 4

//**************** Track 1 (Midi-Chn.1) ****************//

GoldenSunVenusLighthouseSme_1:
	BYTE	KEYSH   GoldenSunVenusLighthouseSme_key+0
GoldenSunVenusLighthouseSme_1_B1:
// 000   ----------------------------------------
	BYTE	TEMPO   128*GoldenSunVenusLighthouseSme_tbs/2
	BYTE		VOICE   61
	BYTE		VOL     99*GoldenSunVenusLighthouseSme_mvl/mxv
	BYTE		N44     Fs3   v120
	BYTE	W48
	BYTE		N10     Gs3 
	BYTE	W12
	BYTE		        An3 
	BYTE	W12
	BYTE		        Bn3 
	BYTE	W12
	BYTE		        En4 
	BYTE	W12
// 001   ----------------------------------------
	BYTE		N90     Cs4 
	BYTE	W96
// 002   ----------------------------------------
GoldenSunVenusLighthouseSme_1_002:
	BYTE		N32     Dn4   v120
	BYTE	W36
	BYTE		N05     En4 
	BYTE	W06
	BYTE		        Fs4 
	BYTE	W06
	BYTE		N20     En4 
	BYTE	W24
	BYTE		        Bn3 
	BYTE	W24
	BYTE	PEND
// 003   ----------------------------------------
	BYTE		N90     Cs4 
	BYTE	W96
// 004   ----------------------------------------
GoldenSunVenusLighthouseSme_1_004:
	BYTE		N10     Bn3   v120
	BYTE	W12
	BYTE		        Cs4 
	BYTE	W12
	BYTE		N30     Fs3 
	BYTE	W36
	BYTE		N10     En3 
	BYTE	W12
	BYTE		N20     Fs3 
	BYTE	W24
	BYTE	PEND
// 005   ----------------------------------------
GoldenSunVenusLighthouseSme_1_005:
	BYTE		N10     Bn3   v120
	BYTE	W12
	BYTE		        Cs4 
	BYTE	W12
	BYTE		N30     Fs3 
	BYTE	W36
	BYTE		N10     En3 
	BYTE	W12
	BYTE		        Fs3 
	BYTE	W12
	BYTE		        Gs3 
	BYTE	W12
	BYTE	PEND
// 006   ----------------------------------------
	BYTE		N90     Fs3 
	BYTE	W96
// 007   ----------------------------------------
	BYTE		N44   
	BYTE	W48
	BYTE		N17   
	BYTE	W18
	BYTE		        Gs3 
	BYTE	W18
	BYTE		N11     An3 
	BYTE	W12
// 008   ----------------------------------------
GoldenSunVenusLighthouseSme_1_008:
	BYTE		N44     Fs3   v120
	BYTE	W48
	BYTE		N10     Gs3 
	BYTE	W12
	BYTE		        An3 
	BYTE	W12
	BYTE		        Bn3 
	BYTE	W12
	BYTE		        En4 
	BYTE	W12
	BYTE	PEND
// 009   ----------------------------------------
	BYTE		N90     Cs4 
	BYTE	W96
// 010   ----------------------------------------
	BYTE	PATT
	 POIN2	GoldenSunVenusLighthouseSme_1_002
// 011   ----------------------------------------
	BYTE		N90     Cs4   v120
	BYTE	W96
// 012   ----------------------------------------
	BYTE	PATT
	 POIN2	GoldenSunVenusLighthouseSme_1_004
// 013   ----------------------------------------
	BYTE	PATT
	 POIN2	GoldenSunVenusLighthouseSme_1_005
// 014   ----------------------------------------
	BYTE		N90     Fs3   v120
	BYTE	W96
// 015   ----------------------------------------
GoldenSunVenusLighthouseSme_1_015:
	BYTE		N44     Fs3   v120
	BYTE	W48
	BYTE		        En3 
	BYTE	W48
	BYTE	PEND
// 016   ----------------------------------------
	BYTE	W96
// 017   ----------------------------------------
	BYTE	W96
// 018   ----------------------------------------
	BYTE	W96
// 019   ----------------------------------------
	BYTE	W96
// 020   ----------------------------------------
	BYTE	W96
// 021   ----------------------------------------
	BYTE	W96
// 022   ----------------------------------------
	BYTE	W96
// 023   ----------------------------------------
	BYTE	W96
// 024   ----------------------------------------
	BYTE	PATT
	 POIN2	GoldenSunVenusLighthouseSme_1_008
// 025   ----------------------------------------
	BYTE		N90     Cs4   v120
	BYTE	W96
// 026   ----------------------------------------
	BYTE	PATT
	 POIN2	GoldenSunVenusLighthouseSme_1_002
// 027   ----------------------------------------
	BYTE		N90     Cs4   v120
	BYTE	W96
// 028   ----------------------------------------
	BYTE	PATT
	 POIN2	GoldenSunVenusLighthouseSme_1_004
// 029   ----------------------------------------
	BYTE	PATT
	 POIN2	GoldenSunVenusLighthouseSme_1_005
// 030   ----------------------------------------
	BYTE		N90     Fs3   v120
	BYTE	W96
// 031   ----------------------------------------
	BYTE	PATT
	 POIN2	GoldenSunVenusLighthouseSme_1_015
// 032   ----------------------------------------
	BYTE	W96
// 033   ----------------------------------------
	BYTE	W96
// 034   ----------------------------------------
	BYTE	W96
// 035   ----------------------------------------
	BYTE	W96
// 036   ----------------------------------------
	BYTE	W96
// 037   ----------------------------------------
	BYTE	W96
// 038   ----------------------------------------
	BYTE	W96
// 039   ----------------------------------------
	BYTE	W96
// 040   ----------------------------------------
	BYTE		N44     Cs4   v120
	BYTE		N44     En4 
	BYTE	W48
	BYTE		N15     Cs4 
	BYTE		N15     En4 
	BYTE	W18
	BYTE		        Bn3 
	BYTE		N15     Ds4 
	BYTE	W18
	BYTE		N10     Cs4 
	BYTE		N10     En4 
	BYTE	W12
// 041   ----------------------------------------
	BYTE		N92     Ds4 
	BYTE		N92     Fs4 
	BYTE	W96
// 042   ----------------------------------------
	BYTE		N44     Cn4 
	BYTE		N44     An4 
	BYTE	W48
	BYTE		N15     Cn4 
	BYTE		N15     An4 
	BYTE	W18
	BYTE		        Cn4 
	BYTE		N15     Gn4 
	BYTE	W18
	BYTE		N10     Cn4 
	BYTE		N10     An4 
	BYTE	W12
// 043   ----------------------------------------
	BYTE		N44     Dn4 
	BYTE		N44     Bn4 
	BYTE	W48
	BYTE		        En4 
	BYTE		N44     Bn4 
	BYTE	W48
	BYTE	GoTo
	 POIN2	GoldenSunVenusLighthouseSme_1_B1
GoldenSunVenusLighthouseSme_1_B2:
// 044   ----------------------------------------
	BYTE	TEMPO   128*GoldenSunVenusLighthouseSme_tbs/2
	BYTE	FINE

//**************** Track 2 (Midi-Chn.2) ****************//

GoldenSunVenusLighthouseSme_2:
	BYTE	KEYSH   GoldenSunVenusLighthouseSme_key+0
GoldenSunVenusLighthouseSme_2_B1:
// 000   ----------------------------------------
	BYTE		VOICE   52
	BYTE		VOL     88*GoldenSunVenusLighthouseSme_mvl/mxv
	BYTE		PAN     c_v+0
	BYTE		BEND    c_v+0
	BYTE		N44     An2   v116
	BYTE		N44     Cs3 
	BYTE	W48
	BYTE		        Gs2 
	BYTE		N44     Bn2 
	BYTE	W48
// 001   ----------------------------------------
GoldenSunVenusLighthouseSme_2_001:
	BYTE		N44     Fs2   v116
	BYTE		N44     An2 
	BYTE	W48
	BYTE		        Gs2 
	BYTE		N44     Bn2 
	BYTE	W48
	BYTE	PEND
// 002   ----------------------------------------
	BYTE	PATT
	 POIN2	GoldenSunVenusLighthouseSme_2_001
// 003   ----------------------------------------
GoldenSunVenusLighthouseSme_2_003:
	BYTE		N44     Fs2   v116
	BYTE		N44     Cs3 
	BYTE	W48
	BYTE		        Fn2 
	BYTE		N44     Cs3 
	BYTE	W48
	BYTE	PEND
// 004   ----------------------------------------
GoldenSunVenusLighthouseSme_2_004:
	BYTE		N92     Dn2   v116
	BYTE		N92     An2 
	BYTE	W56
	BYTE	W03
	BYTE		MOD     24
	BYTE	W32
	BYTE	W01
	BYTE		        0
	BYTE	W04
	BYTE	PEND
// 005   ----------------------------------------
GoldenSunVenusLighthouseSme_2_005:
	BYTE		N92     En2   v116
	BYTE		N92     Bn2 
	BYTE	W56
	BYTE	W03
	BYTE		MOD     24
	BYTE	W32
	BYTE	W01
	BYTE		        0
	BYTE	W04
	BYTE	PEND
// 006   ----------------------------------------
	BYTE		N92     Cs2 
	BYTE		N92     An2 
	BYTE	W56
	BYTE	W03
	BYTE		MOD     24
	BYTE	W32
	BYTE	W01
	BYTE		        0
	BYTE	W04
// 007   ----------------------------------------
	BYTE		N44     Dn2 
	BYTE		N44     An2 
	BYTE	W48
	BYTE		        Fs2 
	BYTE		N44     Dn3 
	BYTE	W48
// 008   ----------------------------------------
GoldenSunVenusLighthouseSme_2_008:
	BYTE		N44     An2   v116
	BYTE		N44     Cs3 
	BYTE	W48
	BYTE		        Gs2 
	BYTE		N44     Bn2 
	BYTE	W48
	BYTE	PEND
// 009   ----------------------------------------
	BYTE	PATT
	 POIN2	GoldenSunVenusLighthouseSme_2_001
// 010   ----------------------------------------
	BYTE	PATT
	 POIN2	GoldenSunVenusLighthouseSme_2_001
// 011   ----------------------------------------
	BYTE	PATT
	 POIN2	GoldenSunVenusLighthouseSme_2_003
// 012   ----------------------------------------
	BYTE	PATT
	 POIN2	GoldenSunVenusLighthouseSme_2_004
// 013   ----------------------------------------
	BYTE	PATT
	 POIN2	GoldenSunVenusLighthouseSme_2_005
// 014   ----------------------------------------
GoldenSunVenusLighthouseSme_2_014:
	BYTE		N92     Cs2   v116
	BYTE		N92     As2 
	BYTE	W56
	BYTE	W03
	BYTE		MOD     24
	BYTE	W32
	BYTE	W01
	BYTE		        0
	BYTE	W04
	BYTE	PEND
// 015   ----------------------------------------
	BYTE	PATT
	 POIN2	GoldenSunVenusLighthouseSme_2_005
// 016   ----------------------------------------
GoldenSunVenusLighthouseSme_2_016:
	BYTE		N44     Cs3   v127
	BYTE	W48
	BYTE		        Dn3 
	BYTE	W48
	BYTE	PEND
// 017   ----------------------------------------
	BYTE		        En3 
	BYTE	W48
	BYTE		        Bn2 
	BYTE	W48
// 018   ----------------------------------------
	BYTE	PATT
	 POIN2	GoldenSunVenusLighthouseSme_2_016
// 019   ----------------------------------------
	BYTE		N44     En3   v127
	BYTE	W48
	BYTE		N23     Fs3 
	BYTE	W24
	BYTE		        Bn2 
	BYTE	W24
// 020   ----------------------------------------
	BYTE	PATT
	 POIN2	GoldenSunVenusLighthouseSme_2_016
// 021   ----------------------------------------
	BYTE		N44     En3   v127
	BYTE	W48
	BYTE		        Bn2 
	BYTE	W48
// 022   ----------------------------------------
	BYTE		        Cs3 
	BYTE	W48
	BYTE		        Bn2 
	BYTE	W48
// 023   ----------------------------------------
	BYTE		        Gs2 
	BYTE	W48
	BYTE		        Cs3 
	BYTE	W48
// 024   ----------------------------------------
	BYTE	PATT
	 POIN2	GoldenSunVenusLighthouseSme_2_008
// 025   ----------------------------------------
	BYTE	PATT
	 POIN2	GoldenSunVenusLighthouseSme_2_001
// 026   ----------------------------------------
	BYTE	PATT
	 POIN2	GoldenSunVenusLighthouseSme_2_001
// 027   ----------------------------------------
	BYTE	PATT
	 POIN2	GoldenSunVenusLighthouseSme_2_003
// 028   ----------------------------------------
	BYTE	PATT
	 POIN2	GoldenSunVenusLighthouseSme_2_004
// 029   ----------------------------------------
	BYTE	PATT
	 POIN2	GoldenSunVenusLighthouseSme_2_005
// 030   ----------------------------------------
	BYTE	PATT
	 POIN2	GoldenSunVenusLighthouseSme_2_014
// 031   ----------------------------------------
	BYTE	PATT
	 POIN2	GoldenSunVenusLighthouseSme_2_005
// 032   ----------------------------------------
GoldenSunVenusLighthouseSme_2_032:
	BYTE		TIE     An2   v116
	BYTE		TIE     Fn3 
	BYTE	W56
	BYTE	W03
	BYTE		MOD     24
	BYTE	W36
	BYTE	W01
	BYTE	PEND
// 033   ----------------------------------------
	BYTE	W92
	BYTE	W03
	BYTE		EOT     An2 
	BYTE		        Fn3 
	BYTE		MOD     0
	BYTE	W01
// 034   ----------------------------------------
GoldenSunVenusLighthouseSme_2_034:
	BYTE		N92     Gn2   v116
	BYTE		N92     Dn3 
	BYTE	W56
	BYTE	W03
	BYTE		MOD     24
	BYTE	W32
	BYTE	W01
	BYTE		        0
	BYTE	W04
	BYTE	PEND
// 035   ----------------------------------------
GoldenSunVenusLighthouseSme_2_035:
	BYTE		N92     Bn2   v116
	BYTE		N92     Gn3 
	BYTE	W56
	BYTE	W03
	BYTE		MOD     24
	BYTE	W32
	BYTE	W01
	BYTE		        0
	BYTE	W04
	BYTE	PEND
// 036   ----------------------------------------
	BYTE	PATT
	 POIN2	GoldenSunVenusLighthouseSme_2_032
// 037   ----------------------------------------
	BYTE	W92
	BYTE	W03
	BYTE		EOT     An2 
	BYTE		        Fn3 
	BYTE		MOD     0
	BYTE	W01
// 038   ----------------------------------------
	BYTE	PATT
	 POIN2	GoldenSunVenusLighthouseSme_2_034
// 039   ----------------------------------------
	BYTE	PATT
	 POIN2	GoldenSunVenusLighthouseSme_2_035
// 040   ----------------------------------------
	BYTE	W96
// 041   ----------------------------------------
	BYTE	W96
// 042   ----------------------------------------
	BYTE	W96
// 043   ----------------------------------------
	BYTE	W96
	BYTE	GoTo
	 POIN2	GoldenSunVenusLighthouseSme_2_B1
GoldenSunVenusLighthouseSme_2_B2:
// 044   ----------------------------------------
	BYTE		VOICE   52
	BYTE		VOL     88*GoldenSunVenusLighthouseSme_mvl/mxv
	BYTE		PAN     c_v+0
	BYTE		BEND    c_v+0
	BYTE	FINE

//**************** Track 3 (Midi-Chn.3) ****************//

GoldenSunVenusLighthouseSme_3:
	BYTE	KEYSH   GoldenSunVenusLighthouseSme_key+0
GoldenSunVenusLighthouseSme_3_B1:
// 000   ----------------------------------------
	BYTE		VOICE   33
	BYTE		VOL     107*GoldenSunVenusLighthouseSme_mvl/mxv
	BYTE		PAN     c_v+0
	BYTE		BEND    c_v+0
	BYTE		N08     Fs2   v124
	BYTE	W12
	BYTE		N08   
	BYTE	W12
	BYTE		N08   
	BYTE	W12
	BYTE		N05   
	BYTE	W06
	BYTE		N08   
	BYTE	W12
	BYTE		N08   
	BYTE	W12
	BYTE		N05   
	BYTE	W06
	BYTE		N08   
	BYTE	W12
	BYTE		N08   
	BYTE	W12
// 001   ----------------------------------------
GoldenSunVenusLighthouseSme_3_001:
	BYTE		N08     Fs2   v124
	BYTE	W12
	BYTE		N08   
	BYTE	W12
	BYTE		N08   
	BYTE	W12
	BYTE		N05   
	BYTE	W06
	BYTE		N08   
	BYTE	W12
	BYTE		N08   
	BYTE	W12
	BYTE		N05   
	BYTE	W06
	BYTE		N08   
	BYTE	W12
	BYTE		N08   
	BYTE	W12
	BYTE	PEND
// 002   ----------------------------------------
GoldenSunVenusLighthouseSme_3_002:
	BYTE		N08     Dn2   v124
	BYTE	W12
	BYTE		N08   
	BYTE	W12
	BYTE		N08   
	BYTE	W12
	BYTE		N05     En2 
	BYTE	W06
	BYTE		N08   
	BYTE	W12
	BYTE		N08   
	BYTE	W12
	BYTE		N05   
	BYTE	W06
	BYTE		N08   
	BYTE	W12
	BYTE		N08   
	BYTE	W12
	BYTE	PEND
// 003   ----------------------------------------
GoldenSunVenusLighthouseSme_3_003:
	BYTE		N08     Fs2   v124
	BYTE	W12
	BYTE		N08   
	BYTE	W12
	BYTE		N08   
	BYTE	W12
	BYTE		N05     Cs2 
	BYTE	W06
	BYTE		N08   
	BYTE	W12
	BYTE		N08   
	BYTE	W12
	BYTE		N05   
	BYTE	W06
	BYTE		N08     Cs3 
	BYTE	W12
	BYTE		        Cs2 
	BYTE	W12
	BYTE	PEND
// 004   ----------------------------------------
GoldenSunVenusLighthouseSme_3_004:
	BYTE		N08     Dn2   v124
	BYTE	W12
	BYTE		N08   
	BYTE	W12
	BYTE		N08   
	BYTE	W12
	BYTE		N05   
	BYTE	W06
	BYTE		N08   
	BYTE	W12
	BYTE		N08   
	BYTE	W12
	BYTE		N05   
	BYTE	W06
	BYTE		N08   
	BYTE	W12
	BYTE		N08   
	BYTE	W12
	BYTE	PEND
// 005   ----------------------------------------
GoldenSunVenusLighthouseSme_3_005:
	BYTE		N08     En2   v124
	BYTE	W12
	BYTE		N08   
	BYTE	W12
	BYTE		N08   
	BYTE	W12
	BYTE		N05   
	BYTE	W06
	BYTE		N08   
	BYTE	W12
	BYTE		N08   
	BYTE	W12
	BYTE		N05   
	BYTE	W06
	BYTE		N08   
	BYTE	W12
	BYTE		N08   
	BYTE	W12
	BYTE	PEND
// 006   ----------------------------------------
	BYTE	PATT
	 POIN2	GoldenSunVenusLighthouseSme_3_001
// 007   ----------------------------------------
	BYTE		N08     Dn2   v124
	BYTE	W12
	BYTE		N08   
	BYTE	W12
	BYTE		N08   
	BYTE	W12
	BYTE		N05   
	BYTE	W06
	BYTE		N08   
	BYTE	W12
	BYTE		N08   
	BYTE	W12
	BYTE		N05   
	BYTE	W06
	BYTE		N08   
	BYTE	W12
	BYTE		        Dn3 
	BYTE	W12
// 008   ----------------------------------------
	BYTE	PATT
	 POIN2	GoldenSunVenusLighthouseSme_3_001
// 009   ----------------------------------------
	BYTE	PATT
	 POIN2	GoldenSunVenusLighthouseSme_3_001
// 010   ----------------------------------------
	BYTE	PATT
	 POIN2	GoldenSunVenusLighthouseSme_3_002
// 011   ----------------------------------------
	BYTE	PATT
	 POIN2	GoldenSunVenusLighthouseSme_3_003
// 012   ----------------------------------------
	BYTE	PATT
	 POIN2	GoldenSunVenusLighthouseSme_3_004
// 013   ----------------------------------------
	BYTE	PATT
	 POIN2	GoldenSunVenusLighthouseSme_3_005
// 014   ----------------------------------------
	BYTE	PATT
	 POIN2	GoldenSunVenusLighthouseSme_3_001
// 015   ----------------------------------------
GoldenSunVenusLighthouseSme_3_015:
	BYTE		N08     En2   v124
	BYTE	W12
	BYTE		N08   
	BYTE	W12
	BYTE		N08   
	BYTE	W12
	BYTE		N05   
	BYTE	W06
	BYTE		N08   
	BYTE	W12
	BYTE		N08   
	BYTE	W12
	BYTE		N05   
	BYTE	W06
	BYTE		N05   
	BYTE	W06
	BYTE		N05   
	BYTE	W06
	BYTE		        En3 
	BYTE	W06
	BYTE		N05   
	BYTE	W06
	BYTE	PEND
// 016   ----------------------------------------
	BYTE		N80     Dn2 
	BYTE	W56
	BYTE	W03
	BYTE		MOD     24
	BYTE	W21
	BYTE		        0
	BYTE	W04
	BYTE		N05     Dn3 
	BYTE	W06
	BYTE		N05   
	BYTE	W06
// 017   ----------------------------------------
	BYTE		N23     En2 
	BYTE	W24
	BYTE		N23   
	BYTE	W24
	BYTE		N23   
	BYTE	W24
	BYTE		N11   
	BYTE	W12
	BYTE		        Fn2 
	BYTE	W12
// 018   ----------------------------------------
	BYTE		        Fs2 
	BYTE	W12
	BYTE		N11   
	BYTE	W24
	BYTE		N05   
	BYTE	W06
	BYTE		N05   
	BYTE	W06
	BYTE		N11   
	BYTE	W12
	BYTE		N11   
	BYTE	W12
	BYTE		N11   
	BYTE	W12
	BYTE		N11   
	BYTE	W12
// 019   ----------------------------------------
GoldenSunVenusLighthouseSme_3_019:
	BYTE		N11     En2   v124
	BYTE	W12
	BYTE		        Bn2 
	BYTE	W12
	BYTE		        En2 
	BYTE	W12
	BYTE		        Bn2 
	BYTE	W12
	BYTE		        En2 
	BYTE	W12
	BYTE		        Bn2 
	BYTE	W12
	BYTE		        En2 
	BYTE	W12
	BYTE		        Bn2 
	BYTE	W12
	BYTE	PEND
// 020   ----------------------------------------
	BYTE		        Dn2 
	BYTE	W12
	BYTE		        An2 
	BYTE	W12
	BYTE		        Dn2 
	BYTE	W12
	BYTE		        An2 
	BYTE	W12
	BYTE		        Dn2 
	BYTE	W12
	BYTE		        An2 
	BYTE	W12
	BYTE		        Dn2 
	BYTE	W12
	BYTE		        An2 
	BYTE	W12
// 021   ----------------------------------------
	BYTE	PATT
	 POIN2	GoldenSunVenusLighthouseSme_3_019
// 022   ----------------------------------------
	BYTE		N11     Fs2   v124
	BYTE	W12
	BYTE		        Fs3 
	BYTE	W12
	BYTE		        Fs2 
	BYTE	W12
	BYTE		        Fs3 
	BYTE	W12
	BYTE		        Fs2 
	BYTE	W12
	BYTE		        Fs3 
	BYTE	W12
	BYTE		        Fs2 
	BYTE	W12
	BYTE		        Fs3 
	BYTE	W12
// 023   ----------------------------------------
	BYTE		        Cs2 
	BYTE	W12
	BYTE		        Cs3 
	BYTE	W12
	BYTE		        Cs2 
	BYTE	W12
	BYTE		        Cs3 
	BYTE	W12
	BYTE		        Cs2 
	BYTE	W12
	BYTE		        Cs3 
	BYTE	W12
	BYTE		        Cs2 
	BYTE	W12
	BYTE		        Cs3 
	BYTE	W12
// 024   ----------------------------------------
	BYTE	PATT
	 POIN2	GoldenSunVenusLighthouseSme_3_001
// 025   ----------------------------------------
	BYTE	PATT
	 POIN2	GoldenSunVenusLighthouseSme_3_001
// 026   ----------------------------------------
	BYTE	PATT
	 POIN2	GoldenSunVenusLighthouseSme_3_002
// 027   ----------------------------------------
	BYTE	PATT
	 POIN2	GoldenSunVenusLighthouseSme_3_003
// 028   ----------------------------------------
	BYTE	PATT
	 POIN2	GoldenSunVenusLighthouseSme_3_004
// 029   ----------------------------------------
	BYTE	PATT
	 POIN2	GoldenSunVenusLighthouseSme_3_005
// 030   ----------------------------------------
	BYTE	PATT
	 POIN2	GoldenSunVenusLighthouseSme_3_001
// 031   ----------------------------------------
	BYTE	PATT
	 POIN2	GoldenSunVenusLighthouseSme_3_015
// 032   ----------------------------------------
GoldenSunVenusLighthouseSme_3_032:
	BYTE		N10     Fn2   v124
	BYTE	W12
	BYTE		N10   
	BYTE	W12
	BYTE		N10   
	BYTE	W12
	BYTE		N10   
	BYTE	W12
	BYTE		N10   
	BYTE	W12
	BYTE		N10   
	BYTE	W12
	BYTE		N10   
	BYTE	W12
	BYTE		N10   
	BYTE	W12
	BYTE	PEND
// 033   ----------------------------------------
GoldenSunVenusLighthouseSme_3_033:
	BYTE		N10     Fn2   v124
	BYTE	W12
	BYTE		        Fn3 
	BYTE	W12
	BYTE		        Fn2 
	BYTE	W12
	BYTE		        En3 
	BYTE	W12
	BYTE		        Fn2 
	BYTE	W12
	BYTE		        Dn3 
	BYTE	W12
	BYTE		        Fn2 
	BYTE	W12
	BYTE		        Cn3 
	BYTE	W12
	BYTE	PEND
// 034   ----------------------------------------
GoldenSunVenusLighthouseSme_3_034:
	BYTE		N10     Gn2   v124
	BYTE	W12
	BYTE		        Gn3 
	BYTE	W12
	BYTE		        Gn2 
	BYTE	W12
	BYTE		        Fn3 
	BYTE	W12
	BYTE		        Gn2 
	BYTE	W12
	BYTE		        En3 
	BYTE	W12
	BYTE		        Gn2 
	BYTE	W12
	BYTE		        Dn3 
	BYTE	W12
	BYTE	PEND
// 035   ----------------------------------------
GoldenSunVenusLighthouseSme_3_035:
	BYTE		N10     Gn2   v124
	BYTE	W12
	BYTE		N10   
	BYTE	W12
	BYTE		N10   
	BYTE	W12
	BYTE		N10   
	BYTE	W12
	BYTE		N10   
	BYTE	W12
	BYTE		N10   
	BYTE	W12
	BYTE		        Gn3 
	BYTE	W12
	BYTE		        Gn2 
	BYTE	W12
	BYTE	PEND
// 036   ----------------------------------------
	BYTE	PATT
	 POIN2	GoldenSunVenusLighthouseSme_3_032
// 037   ----------------------------------------
	BYTE	PATT
	 POIN2	GoldenSunVenusLighthouseSme_3_033
// 038   ----------------------------------------
	BYTE	PATT
	 POIN2	GoldenSunVenusLighthouseSme_3_034
// 039   ----------------------------------------
	BYTE	PATT
	 POIN2	GoldenSunVenusLighthouseSme_3_035
// 040   ----------------------------------------
	BYTE		N32     An2   v124
	BYTE	W36
	BYTE		N10   
	BYTE	W12
	BYTE		N17     An3 
	BYTE	W18
	BYTE		        En3 
	BYTE	W18
	BYTE		N11     An3 
	BYTE	W12
// 041   ----------------------------------------
	BYTE		N44     Bn2 
	BYTE	W48
	BYTE		N23     Fs2 
	BYTE	W24
	BYTE		        Bn2 
	BYTE	W24
// 042   ----------------------------------------
	BYTE		N32     Fn2 
	BYTE	W36
	BYTE		N05   
	BYTE	W06
	BYTE		N05   
	BYTE	W06
	BYTE		N17     Fn3 
	BYTE	W18
	BYTE		        Cn3 
	BYTE	W18
	BYTE		N11     Fn3 
	BYTE	W12
// 043   ----------------------------------------
	BYTE		        Gn2 
	BYTE	W12
	BYTE		N11   
	BYTE	W12
	BYTE		        Gn3 
	BYTE	W12
	BYTE		        Gn2 
	BYTE	W12
	BYTE		        Gs2 
	BYTE	W12
	BYTE		        En3 
	BYTE	W12
	BYTE		        Gs3 
	BYTE	W12
	BYTE		        Bn3 
	BYTE	W12
	BYTE	GoTo
	 POIN2	GoldenSunVenusLighthouseSme_3_B1
GoldenSunVenusLighthouseSme_3_B2:
// 044   ----------------------------------------
	BYTE		VOICE   33
	BYTE		VOL     107*GoldenSunVenusLighthouseSme_mvl/mxv
	BYTE		PAN     c_v+0
	BYTE		BEND    c_v+0
	BYTE	FINE

//**************** Track 4 (Midi-Chn.4) ****************//

GoldenSunVenusLighthouseSme_4:
	BYTE	KEYSH   GoldenSunVenusLighthouseSme_key+0
GoldenSunVenusLighthouseSme_4_B1:
// 000   ----------------------------------------
	BYTE		VOICE   8
	BYTE		VOL     83*GoldenSunVenusLighthouseSme_mvl/mxv
	BYTE		PAN     c_v+0
	BYTE		BEND    c_v+0
	BYTE	W96
// 001   ----------------------------------------
	BYTE	W96
// 002   ----------------------------------------
	BYTE	W96
// 003   ----------------------------------------
	BYTE	W96
// 004   ----------------------------------------
	BYTE	W96
// 005   ----------------------------------------
	BYTE	W96
// 006   ----------------------------------------
	BYTE	W96
// 007   ----------------------------------------
	BYTE	W96
// 008   ----------------------------------------
	BYTE	W96
// 009   ----------------------------------------
	BYTE	W96
// 010   ----------------------------------------
	BYTE	W96
// 011   ----------------------------------------
	BYTE	W96
// 012   ----------------------------------------
	BYTE	W96
// 013   ----------------------------------------
	BYTE	W96
// 014   ----------------------------------------
	BYTE	W96
// 015   ----------------------------------------
	BYTE	W96
// 016   ----------------------------------------
GoldenSunVenusLighthouseSme_4_016:
	BYTE		N32     Fs2   v116
	BYTE	W36
	BYTE		N23     Fs3 
	BYTE	W24
	BYTE		N10     En3 
	BYTE	W12
	BYTE		        Dn3 
	BYTE	W12
	BYTE		        Cs3 
	BYTE	W12
	BYTE	PEND
// 017   ----------------------------------------
GoldenSunVenusLighthouseSme_4_017:
	BYTE		N44     Bn2   v116
	BYTE	W48
	BYTE		N17   
	BYTE	W18
	BYTE		        Cs3 
	BYTE	W18
	BYTE		N11     Dn3 
	BYTE	W12
	BYTE	PEND
// 018   ----------------------------------------
	BYTE		N32     Cs3 
	BYTE	W36
	BYTE		TIE     Fs2 
	BYTE	W56
	BYTE	W03
	BYTE		MOD     24
	BYTE	W01
// 019   ----------------------------------------
	BYTE	W44
	BYTE	W03
	BYTE		EOT   
	BYTE		MOD     0
	BYTE	W01
	BYTE		N17   
	BYTE	W18
	BYTE		        Gs2 
	BYTE	W18
	BYTE		N11     An2 
	BYTE	W12
// 020   ----------------------------------------
	BYTE	PATT
	 POIN2	GoldenSunVenusLighthouseSme_4_016
// 021   ----------------------------------------
	BYTE	PATT
	 POIN2	GoldenSunVenusLighthouseSme_4_017
// 022   ----------------------------------------
	BYTE		N32     Cs3   v127
	BYTE	W36
	BYTE		N56     Fs3 
	BYTE	W60
// 023   ----------------------------------------
	BYTE		N32     Fn3 
	BYTE	W36
	BYTE		        Fs3 
	BYTE	W36
	BYTE		N23     Gs3 
	BYTE	W24
// 024   ----------------------------------------
	BYTE	W96
// 025   ----------------------------------------
	BYTE	W96
// 026   ----------------------------------------
	BYTE	W96
// 027   ----------------------------------------
	BYTE	W96
// 028   ----------------------------------------
	BYTE	W96
// 029   ----------------------------------------
	BYTE	W96
// 030   ----------------------------------------
	BYTE	W96
// 031   ----------------------------------------
	BYTE	W96
// 032   ----------------------------------------
	BYTE	W96
// 033   ----------------------------------------
	BYTE	W96
// 034   ----------------------------------------
	BYTE	W96
// 035   ----------------------------------------
	BYTE	W96
// 036   ----------------------------------------
	BYTE	W96
// 037   ----------------------------------------
	BYTE	W96
// 038   ----------------------------------------
	BYTE	W96
// 039   ----------------------------------------
	BYTE	W96
// 040   ----------------------------------------
	BYTE		N05     En1   v112
	BYTE	W06
	BYTE		        An1 
	BYTE	W06
	BYTE		        Cs2 
	BYTE	W06
	BYTE		        En2 
	BYTE	W06
	BYTE		        An2 
	BYTE	W06
	BYTE		        Cs3 
	BYTE	W06
	BYTE		        En3 
	BYTE	W06
	BYTE		        An2 
	BYTE	W06
	BYTE		        An3 
	BYTE	W06
	BYTE		        En3 
	BYTE	W06
	BYTE		        Cs3 
	BYTE	W06
	BYTE		        An2 
	BYTE	W06
	BYTE		        En3 
	BYTE	W06
	BYTE		        Cs3 
	BYTE	W06
	BYTE		        An2 
	BYTE	W06
	BYTE		        En2 
	BYTE	W06
// 041   ----------------------------------------
	BYTE		        Fs1 
	BYTE	W06
	BYTE		        Bn1 
	BYTE	W06
	BYTE		        Ds2 
	BYTE	W06
	BYTE		        Fs2 
	BYTE	W06
	BYTE		        Bn2 
	BYTE	W06
	BYTE		        Ds2 
	BYTE	W06
	BYTE		        Fs2 
	BYTE	W06
	BYTE		        Bn2 
	BYTE	W06
	BYTE		        Fs3 
	BYTE	W06
	BYTE		        Ds3 
	BYTE	W06
	BYTE		        Bn2 
	BYTE	W06
	BYTE		        Fs2 
	BYTE	W06
	BYTE		        Bn2 
	BYTE	W06
	BYTE		        Fs2 
	BYTE	W06
	BYTE		        Ds2 
	BYTE	W06
	BYTE		        Bn1 
	BYTE	W06
// 042   ----------------------------------------
	BYTE		        Fn1 
	BYTE	W06
	BYTE		        An1 
	BYTE	W06
	BYTE		        Cn2 
	BYTE	W06
	BYTE		        Fn2 
	BYTE	W06
	BYTE		        An2 
	BYTE	W06
	BYTE		        Cn2 
	BYTE	W06
	BYTE		        Fn2 
	BYTE	W06
	BYTE		        An2 
	BYTE	W06
	BYTE		        An3 
	BYTE	W06
	BYTE		        Fn3 
	BYTE	W06
	BYTE		        Cn3 
	BYTE	W06
	BYTE		        An2 
	BYTE	W06
	BYTE		        Fn3 
	BYTE	W06
	BYTE		        Cn3 
	BYTE	W06
	BYTE		        An2 
	BYTE	W06
	BYTE		        Fn2 
	BYTE	W06
// 043   ----------------------------------------
	BYTE		        Gn1 
	BYTE	W06
	BYTE		        Bn1 
	BYTE	W06
	BYTE		        Dn2 
	BYTE	W06
	BYTE		        Gn2 
	BYTE	W06
	BYTE		        Bn2 
	BYTE	W06
	BYTE		        Dn3 
	BYTE	W06
	BYTE		        Gn3 
	BYTE	W06
	BYTE		        Bn3 
	BYTE	W06
	BYTE		        Gs3 
	BYTE	W06
	BYTE		        En4 
	BYTE	W06
	BYTE		        En3 
	BYTE	W06
	BYTE		        Bn3 
	BYTE	W06
	BYTE		        Bn2 
	BYTE	W06
	BYTE		        Gs3 
	BYTE	W06
	BYTE		        Gs2 
	BYTE	W06
	BYTE		        En3 
	BYTE	W06
	BYTE	GoTo
	 POIN2	GoldenSunVenusLighthouseSme_4_B1
GoldenSunVenusLighthouseSme_4_B2:
// 044   ----------------------------------------
	BYTE		VOICE   8
	BYTE		VOL     83*GoldenSunVenusLighthouseSme_mvl/mxv
	BYTE		PAN     c_v+0
	BYTE		BEND    c_v+0
	BYTE	FINE

//**************** Track 5 (Midi-Chn.5) ****************//

GoldenSunVenusLighthouseSme_5:
	BYTE	KEYSH   GoldenSunVenusLighthouseSme_key+0
GoldenSunVenusLighthouseSme_5_B1:
// 000   ----------------------------------------
	BYTE		VOICE   48
	BYTE		VOL     88*GoldenSunVenusLighthouseSme_mvl/mxv
	BYTE		PAN     c_v-9
	BYTE		BEND    c_v+0
	BYTE	W96
// 001   ----------------------------------------
	BYTE	W96
// 002   ----------------------------------------
	BYTE	W96
// 003   ----------------------------------------
	BYTE	W96
// 004   ----------------------------------------
	BYTE	W96
// 005   ----------------------------------------
	BYTE	W96
// 006   ----------------------------------------
	BYTE	W96
// 007   ----------------------------------------
	BYTE	W96
// 008   ----------------------------------------
	BYTE	W96
// 009   ----------------------------------------
	BYTE	W96
// 010   ----------------------------------------
	BYTE	W96
// 011   ----------------------------------------
	BYTE	W96
// 012   ----------------------------------------
	BYTE	W96
// 013   ----------------------------------------
	BYTE	W96
// 014   ----------------------------------------
	BYTE	W96
// 015   ----------------------------------------
	BYTE	W96
// 016   ----------------------------------------
GoldenSunVenusLighthouseSme_5_016:
	BYTE		N32     Fs2   v112
	BYTE	W36
	BYTE		N23     Fs3 
	BYTE	W24
	BYTE		N11     En3 
	BYTE	W12
	BYTE		        Dn3 
	BYTE	W12
	BYTE		        Cs3 
	BYTE	W12
	BYTE	PEND
// 017   ----------------------------------------
GoldenSunVenusLighthouseSme_5_017:
	BYTE		N44     Bn2   v112
	BYTE	W48
	BYTE		N17   
	BYTE	W18
	BYTE		        Cs3 
	BYTE	W18
	BYTE		N11     Dn3 
	BYTE	W12
	BYTE	PEND
// 018   ----------------------------------------
	BYTE		N32     Cs3 
	BYTE	W36
	BYTE		TIE     Fs2 
	BYTE	W56
	BYTE	W03
	BYTE		MOD     24
	BYTE	W01
// 019   ----------------------------------------
	BYTE	W64
	BYTE	W01
	BYTE		EOT   
	BYTE		MOD     0
	BYTE	W01
	BYTE		N17     Gs2   v100
	BYTE	W18
	BYTE		N11     An2 
	BYTE	W12
// 020   ----------------------------------------
	BYTE	PATT
	 POIN2	GoldenSunVenusLighthouseSme_5_016
// 021   ----------------------------------------
	BYTE	PATT
	 POIN2	GoldenSunVenusLighthouseSme_5_017
// 022   ----------------------------------------
	BYTE		N32     Cs3   v112
	BYTE	W36
	BYTE		N56     Fs3 
	BYTE	W60
// 023   ----------------------------------------
	BYTE		N32     Fn3 
	BYTE	W36
	BYTE		        Fs3 
	BYTE	W36
	BYTE		N23     Gs3 
	BYTE	W24
// 024   ----------------------------------------
	BYTE	W96
// 025   ----------------------------------------
	BYTE	W96
// 026   ----------------------------------------
	BYTE	W96
// 027   ----------------------------------------
	BYTE	W96
// 028   ----------------------------------------
	BYTE	W96
// 029   ----------------------------------------
	BYTE	W96
// 030   ----------------------------------------
	BYTE	W96
// 031   ----------------------------------------
	BYTE	W96
// 032   ----------------------------------------
	BYTE		N44     An3 
	BYTE	W48
	BYTE		        Gn3 
	BYTE	W48
// 033   ----------------------------------------
	BYTE		        Fn3 
	BYTE	W48
	BYTE		        En3 
	BYTE	W48
// 034   ----------------------------------------
	BYTE		N32     Dn3 
	BYTE	W36
	BYTE		        En3 
	BYTE	W36
	BYTE		N23     Fn3 
	BYTE	W24
// 035   ----------------------------------------
	BYTE		N32     Dn3 
	BYTE		N32     Gn3 
	BYTE	W36
	BYTE		        Fn3 
	BYTE		N32     An3 
	BYTE	W36
	BYTE		N23     Gn3 
	BYTE		N23     Bn3 
	BYTE	W24
// 036   ----------------------------------------
	BYTE		N44     An3 
	BYTE		N44     Cn4 
	BYTE	W48
	BYTE		        Gn3 
	BYTE		N44     Bn3 
	BYTE	W48
// 037   ----------------------------------------
	BYTE		        Fn3 
	BYTE		N44     An3 
	BYTE	W48
	BYTE		        En3 
	BYTE		N44     Gn3 
	BYTE	W48
// 038   ----------------------------------------
	BYTE		N32     Bn2 
	BYTE		N32     Dn3 
	BYTE	W36
	BYTE		        Cn3 
	BYTE		N32     En3 
	BYTE	W36
	BYTE		N23     Dn3 
	BYTE		N23     Fn3 
	BYTE	W24
// 039   ----------------------------------------
	BYTE		N44     Dn3 
	BYTE		N44     An3 
	BYTE	W48
	BYTE		        Dn3 
	BYTE		N44     Gn3 
	BYTE	W48
// 040   ----------------------------------------
	BYTE		N92     Cs3 
	BYTE	W56
	BYTE	W03
	BYTE		MOD     24
	BYTE	W32
	BYTE	W01
	BYTE		        0
	BYTE	W04
// 041   ----------------------------------------
	BYTE		N44     Bn2 
	BYTE	W48
	BYTE		        Ds3 
	BYTE	W48
// 042   ----------------------------------------
	BYTE		        Fn3 
	BYTE	W48
	BYTE		        An3 
	BYTE	W48
// 043   ----------------------------------------
	BYTE		N92     Bn3 
	BYTE	W56
	BYTE	W03
	BYTE		MOD     24
	BYTE	W32
	BYTE	W01
	BYTE		        0
	BYTE	W04
	BYTE	GoTo
	 POIN2	GoldenSunVenusLighthouseSme_5_B1
GoldenSunVenusLighthouseSme_5_B2:
// 044   ----------------------------------------
	BYTE		VOICE   48
	BYTE		VOL     88*GoldenSunVenusLighthouseSme_mvl/mxv
	BYTE		PAN     c_v-9
	BYTE		BEND    c_v+0
	BYTE	FINE

//**************** Track 6 (Midi-Chn.6) ****************//

GoldenSunVenusLighthouseSme_6:
	BYTE	KEYSH   GoldenSunVenusLighthouseSme_key+0
GoldenSunVenusLighthouseSme_6_B1:
// 000   ----------------------------------------
	BYTE		VOICE   48
	BYTE		VOL     94*GoldenSunVenusLighthouseSme_mvl/mxv
	BYTE		PAN     c_v+6
	BYTE		BEND    c_v+0
	BYTE		N08     Fs1   v127
	BYTE		N08     Cs2 
	BYTE	W12
	BYTE		        Fs1 
	BYTE		N08     Cs2 
	BYTE	W12
	BYTE		        Fs1 
	BYTE		N08     Cs2 
	BYTE	W12
	BYTE		        Fs1 
	BYTE		N08     Cs2 
	BYTE	W12
	BYTE		        Gs1 
	BYTE		N08     Dn2 
	BYTE	W12
	BYTE		        Gs1 
	BYTE		N08     Dn2 
	BYTE	W12
	BYTE		        Gs1 
	BYTE		N08     Dn2 
	BYTE	W12
	BYTE		        Gs1 
	BYTE		N08     Dn2 
	BYTE	W12
// 001   ----------------------------------------
	BYTE		        Fs1 
	BYTE		N08     Cs2 
	BYTE	W12
	BYTE		        Fs1 
	BYTE		N08     Cs2 
	BYTE	W12
	BYTE		        Fs1 
	BYTE		N08     Cs2 
	BYTE	W12
	BYTE		        Fs1 
	BYTE		N08     Cs2 
	BYTE	W12
	BYTE		        Gs1 
	BYTE		N08     En2 
	BYTE	W12
	BYTE		        Gs1 
	BYTE		N08     En2 
	BYTE	W12
	BYTE		        Gs1 
	BYTE		N08     En2 
	BYTE	W12
	BYTE		        Gs1 
	BYTE		N08     En2 
	BYTE	W12
// 002   ----------------------------------------
	BYTE		        Fs1 
	BYTE		N08     Dn2 
	BYTE	W12
	BYTE		        Fs1 
	BYTE		N08     Dn2 
	BYTE	W12
	BYTE		        Fs1 
	BYTE		N08     Dn2 
	BYTE	W12
	BYTE		        Fs1 
	BYTE		N08     Dn2 
	BYTE	W12
	BYTE		        En1 
	BYTE		N08     Bn1 
	BYTE	W12
	BYTE		        En1 
	BYTE		N08     Bn1 
	BYTE	W12
	BYTE		        En1 
	BYTE		N08     Bn1 
	BYTE	W12
	BYTE		        En1 
	BYTE		N08     Bn1 
	BYTE	W12
// 003   ----------------------------------------
	BYTE		        Fs1 
	BYTE		N08     Cs2 
	BYTE	W12
	BYTE		        Fs1 
	BYTE		N08     Cs2 
	BYTE	W12
	BYTE		        Fs1 
	BYTE		N08     Cs2 
	BYTE	W12
	BYTE		        Gs1 
	BYTE		N08     Cs2 
	BYTE	W12
	BYTE		        Gs1 
	BYTE		N08     Cs2 
	BYTE	W12
	BYTE		        Gs1 
	BYTE		N08     Cs2 
	BYTE	W12
	BYTE		        Gs1 
	BYTE		N08     Cs2 
	BYTE	W12
	BYTE		        Gs1 
	BYTE		N08     Cs2 
	BYTE	W12
// 004   ----------------------------------------
	BYTE	W96
// 005   ----------------------------------------
	BYTE	W96
// 006   ----------------------------------------
	BYTE		VOL     11*GoldenSunVenusLighthouseSme_mvl/mxv
	BYTE		TIE     Cs3 
	BYTE	W02
	BYTE		VOL     15*GoldenSunVenusLighthouseSme_mvl/mxv
	BYTE	W02
	BYTE		        19*GoldenSunVenusLighthouseSme_mvl/mxv
	BYTE	W02
	BYTE		        19*GoldenSunVenusLighthouseSme_mvl/mxv
	BYTE	W02
	BYTE		        22*GoldenSunVenusLighthouseSme_mvl/mxv
	BYTE	W02
	BYTE		        27*GoldenSunVenusLighthouseSme_mvl/mxv
	BYTE	W02
	BYTE		        29*GoldenSunVenusLighthouseSme_mvl/mxv
	BYTE	W02
	BYTE		        29*GoldenSunVenusLighthouseSme_mvl/mxv
	BYTE	W02
	BYTE		        31*GoldenSunVenusLighthouseSme_mvl/mxv
	BYTE	W02
	BYTE		        35*GoldenSunVenusLighthouseSme_mvl/mxv
	BYTE	W02
	BYTE		        37*GoldenSunVenusLighthouseSme_mvl/mxv
	BYTE	W02
	BYTE		        37*GoldenSunVenusLighthouseSme_mvl/mxv
	BYTE	W02
	BYTE		        39*GoldenSunVenusLighthouseSme_mvl/mxv
	BYTE	W02
	BYTE		        40*GoldenSunVenusLighthouseSme_mvl/mxv
	BYTE	W02
	BYTE		        42*GoldenSunVenusLighthouseSme_mvl/mxv
	BYTE	W02
	BYTE		        43*GoldenSunVenusLighthouseSme_mvl/mxv
	BYTE	W02
	BYTE		        45*GoldenSunVenusLighthouseSme_mvl/mxv
	BYTE	W02
	BYTE		        46*GoldenSunVenusLighthouseSme_mvl/mxv
	BYTE	W02
	BYTE		        47*GoldenSunVenusLighthouseSme_mvl/mxv
	BYTE	W02
	BYTE		        49*GoldenSunVenusLighthouseSme_mvl/mxv
	BYTE	W02
	BYTE		        50*GoldenSunVenusLighthouseSme_mvl/mxv
	BYTE	W02
	BYTE		        51*GoldenSunVenusLighthouseSme_mvl/mxv
	BYTE	W02
	BYTE		        52*GoldenSunVenusLighthouseSme_mvl/mxv
	BYTE	W02
	BYTE		        54*GoldenSunVenusLighthouseSme_mvl/mxv
	BYTE	W02
	BYTE		        55*GoldenSunVenusLighthouseSme_mvl/mxv
	BYTE	W02
	BYTE		        56*GoldenSunVenusLighthouseSme_mvl/mxv
	BYTE	W02
	BYTE		        56*GoldenSunVenusLighthouseSme_mvl/mxv
	BYTE	W02
	BYTE		        58*GoldenSunVenusLighthouseSme_mvl/mxv
	BYTE	W02
	BYTE		        59*GoldenSunVenusLighthouseSme_mvl/mxv
	BYTE	W02
	BYTE		        60*GoldenSunVenusLighthouseSme_mvl/mxv
	BYTE	W01
	BYTE		MOD     24
	BYTE	W01
	BYTE		VOL     60*GoldenSunVenusLighthouseSme_mvl/mxv
	BYTE	W02
	BYTE		        62*GoldenSunVenusLighthouseSme_mvl/mxv
	BYTE	W02
	BYTE		        63*GoldenSunVenusLighthouseSme_mvl/mxv
	BYTE	W02
	BYTE		        64*GoldenSunVenusLighthouseSme_mvl/mxv
	BYTE	W02
	BYTE		        64*GoldenSunVenusLighthouseSme_mvl/mxv
	BYTE	W02
	BYTE		        65*GoldenSunVenusLighthouseSme_mvl/mxv
	BYTE	W02
	BYTE		        67*GoldenSunVenusLighthouseSme_mvl/mxv
	BYTE	W02
	BYTE		        68*GoldenSunVenusLighthouseSme_mvl/mxv
	BYTE	W02
	BYTE		        68*GoldenSunVenusLighthouseSme_mvl/mxv
	BYTE	W02
	BYTE		        69*GoldenSunVenusLighthouseSme_mvl/mxv
	BYTE	W02
	BYTE		        71*GoldenSunVenusLighthouseSme_mvl/mxv
	BYTE	W02
	BYTE		        71*GoldenSunVenusLighthouseSme_mvl/mxv
	BYTE	W02
	BYTE		        72*GoldenSunVenusLighthouseSme_mvl/mxv
	BYTE	W02
	BYTE		        73*GoldenSunVenusLighthouseSme_mvl/mxv
	BYTE	W02
	BYTE		        73*GoldenSunVenusLighthouseSme_mvl/mxv
	BYTE	W02
	BYTE		        74*GoldenSunVenusLighthouseSme_mvl/mxv
	BYTE	W02
	BYTE		        75*GoldenSunVenusLighthouseSme_mvl/mxv
	BYTE	W02
	BYTE		        76*GoldenSunVenusLighthouseSme_mvl/mxv
	BYTE	W02
// 007   ----------------------------------------
	BYTE		        77*GoldenSunVenusLighthouseSme_mvl/mxv
	BYTE	W02
	BYTE		        78*GoldenSunVenusLighthouseSme_mvl/mxv
	BYTE	W02
	BYTE		        78*GoldenSunVenusLighthouseSme_mvl/mxv
	BYTE	W02
	BYTE		        79*GoldenSunVenusLighthouseSme_mvl/mxv
	BYTE	W02
	BYTE		        80*GoldenSunVenusLighthouseSme_mvl/mxv
	BYTE	W02
	BYTE		        81*GoldenSunVenusLighthouseSme_mvl/mxv
	BYTE	W02
	BYTE		        82*GoldenSunVenusLighthouseSme_mvl/mxv
	BYTE	W02
	BYTE		        82*GoldenSunVenusLighthouseSme_mvl/mxv
	BYTE	W02
	BYTE		        83*GoldenSunVenusLighthouseSme_mvl/mxv
	BYTE	W02
	BYTE		        83*GoldenSunVenusLighthouseSme_mvl/mxv
	BYTE	W02
	BYTE		        85*GoldenSunVenusLighthouseSme_mvl/mxv
	BYTE	W02
	BYTE		        85*GoldenSunVenusLighthouseSme_mvl/mxv
	BYTE	W02
	BYTE		        86*GoldenSunVenusLighthouseSme_mvl/mxv
	BYTE	W02
	BYTE		        86*GoldenSunVenusLighthouseSme_mvl/mxv
	BYTE	W02
	BYTE		        88*GoldenSunVenusLighthouseSme_mvl/mxv
	BYTE	W02
	BYTE		        88*GoldenSunVenusLighthouseSme_mvl/mxv
	BYTE	W02
	BYTE		        88*GoldenSunVenusLighthouseSme_mvl/mxv
	BYTE	W02
	BYTE		        89*GoldenSunVenusLighthouseSme_mvl/mxv
	BYTE	W02
	BYTE		        90*GoldenSunVenusLighthouseSme_mvl/mxv
	BYTE	W02
	BYTE		        91*GoldenSunVenusLighthouseSme_mvl/mxv
	BYTE	W02
	BYTE		        91*GoldenSunVenusLighthouseSme_mvl/mxv
	BYTE	W02
	BYTE		        92*GoldenSunVenusLighthouseSme_mvl/mxv
	BYTE	W02
	BYTE		        92*GoldenSunVenusLighthouseSme_mvl/mxv
	BYTE	W02
	BYTE		EOT   
	BYTE		MOD     0
	BYTE		VOL     94*GoldenSunVenusLighthouseSme_mvl/mxv
	BYTE	W02
	BYTE		        94*GoldenSunVenusLighthouseSme_mvl/mxv
	BYTE		N44     Bn2 
	BYTE	W48
// 008   ----------------------------------------
GoldenSunVenusLighthouseSme_6_008:
	BYTE		N05     Cs3   v127
	BYTE		N05     Fs3 
	BYTE	W06
	BYTE		        An2 
	BYTE		N05     Cs3 
	BYTE	W06
	BYTE		        Fs2 
	BYTE		N05     An2 
	BYTE	W06
	BYTE		        Cs2 
	BYTE		N05     Fs2 
	BYTE	W06
	BYTE		        An1 
	BYTE		N05     Cs2 
	BYTE	W06
	BYTE		        Fs1 
	BYTE		N05     An1 
	BYTE	W06
	BYTE		N08     Cs1 
	BYTE		N08     Fs1 
	BYTE	W60
	BYTE	PEND
// 009   ----------------------------------------
	BYTE	PATT
	 POIN2	GoldenSunVenusLighthouseSme_6_008
// 010   ----------------------------------------
GoldenSunVenusLighthouseSme_6_010:
	BYTE		N05     Dn3   v127
	BYTE		N05     Fs3 
	BYTE	W06
	BYTE		        An2 
	BYTE		N05     Dn3 
	BYTE	W06
	BYTE		        Fs2 
	BYTE		N05     An2 
	BYTE	W06
	BYTE		        Dn2 
	BYTE		N05     Fs2 
	BYTE	W06
	BYTE		        An1 
	BYTE		N05     Dn2 
	BYTE	W06
	BYTE		        Fs1 
	BYTE		N05     An1 
	BYTE	W06
	BYTE		N05   
	BYTE		N05     Dn2 
	BYTE	W06
	BYTE		N05   
	BYTE		N05     Fs2 
	BYTE	W06
	BYTE		        Bn2 
	BYTE		N05     En3 
	BYTE	W06
	BYTE		        Gs2 
	BYTE		N05     Bn2 
	BYTE	W06
	BYTE		        En2 
	BYTE		N05     Gs2 
	BYTE	W06
	BYTE		        Bn1 
	BYTE		N05     En2 
	BYTE	W06
	BYTE		        Gs1 
	BYTE		N05     Bn1 
	BYTE	W06
	BYTE		        En1 
	BYTE		N05     Gs1 
	BYTE	W06
	BYTE		N05   
	BYTE		N05     Bn1 
	BYTE	W06
	BYTE		N05   
	BYTE		N05     En2 
	BYTE	W06
	BYTE	PEND
// 011   ----------------------------------------
GoldenSunVenusLighthouseSme_6_011:
	BYTE		N05     Cs3   v127
	BYTE		N05     Fs3 
	BYTE	W06
	BYTE		        An2 
	BYTE		N05     Cs3 
	BYTE	W06
	BYTE		        Fs2 
	BYTE		N05     An2 
	BYTE	W06
	BYTE		        Cs2 
	BYTE		N05     Fs2 
	BYTE	W06
	BYTE		        An1 
	BYTE		N05     Cs2 
	BYTE	W06
	BYTE		        Fs1 
	BYTE		N05     An1 
	BYTE	W06
	BYTE		        Fn1 
	BYTE		N05     Gs1 
	BYTE	W06
	BYTE		N05   
	BYTE		N05     Cs2 
	BYTE	W06
	BYTE		N05   
	BYTE		N05     Fn2 
	BYTE	W06
	BYTE		N05   
	BYTE		N05     Gs2 
	BYTE	W06
	BYTE		        Cs2 
	BYTE		N05     Fn2 
	BYTE	W06
	BYTE		N05   
	BYTE		N05     Gs2 
	BYTE	W06
	BYTE		N05   
	BYTE		N05     Cs3 
	BYTE	W06
	BYTE		N05   
	BYTE		N05     Fn3 
	BYTE	W06
	BYTE		N05   
	BYTE		N05     Gs3 
	BYTE	W06
	BYTE		        Cs3 
	BYTE		N05     Fn3 
	BYTE	W06
	BYTE	PEND
// 012   ----------------------------------------
GoldenSunVenusLighthouseSme_6_012:
	BYTE		N08     An1   v127
	BYTE		N08     Dn2 
	BYTE	W12
	BYTE		        An1 
	BYTE		N08     Dn2 
	BYTE	W12
	BYTE		        An1 
	BYTE		N08     Dn2 
	BYTE	W12
	BYTE		        An1 
	BYTE		N08     Dn2 
	BYTE	W12
	BYTE		        An1 
	BYTE		N08     Dn2 
	BYTE	W12
	BYTE		        An1 
	BYTE		N08     Dn2 
	BYTE	W12
	BYTE		        An1 
	BYTE		N08     Dn2 
	BYTE	W12
	BYTE		        An1 
	BYTE		N08     Dn2 
	BYTE	W12
	BYTE	PEND
// 013   ----------------------------------------
GoldenSunVenusLighthouseSme_6_013:
	BYTE		N08     Bn1   v127
	BYTE		N08     En2 
	BYTE	W12
	BYTE		        Bn1 
	BYTE		N08     En2 
	BYTE	W12
	BYTE		        Bn1 
	BYTE		N08     En2 
	BYTE	W12
	BYTE		        Bn1 
	BYTE		N08     En2 
	BYTE	W12
	BYTE		        Bn1 
	BYTE		N08     En2 
	BYTE	W12
	BYTE		        Bn1 
	BYTE		N08     En2 
	BYTE	W12
	BYTE		        Bn1 
	BYTE		N08     En2 
	BYTE	W12
	BYTE		        Bn1 
	BYTE		N08     En2 
	BYTE	W12
	BYTE	PEND
// 014   ----------------------------------------
GoldenSunVenusLighthouseSme_6_014:
	BYTE		N08     As1   v127
	BYTE		N08     Cs2 
	BYTE	W12
	BYTE		        As1 
	BYTE		N08     Cs2 
	BYTE	W12
	BYTE		        As1 
	BYTE		N08     Cs2 
	BYTE	W12
	BYTE		        As1 
	BYTE		N08     Cs2 
	BYTE	W12
	BYTE		        As1 
	BYTE		N08     Cs2 
	BYTE	W12
	BYTE		        As1 
	BYTE		N08     Cs2 
	BYTE	W12
	BYTE		        As1 
	BYTE		N08     Cs2 
	BYTE	W12
	BYTE		        As1 
	BYTE		N08     Cs2 
	BYTE	W12
	BYTE	PEND
// 015   ----------------------------------------
GoldenSunVenusLighthouseSme_6_015:
	BYTE		N05     En1   v127
	BYTE		N05     Bn1 
	BYTE	W06
	BYTE		        Gs1 
	BYTE		N05     En2 
	BYTE	W06
	BYTE		        Bn1 
	BYTE		N05     Gs2 
	BYTE	W06
	BYTE		        En2 
	BYTE		N05     Bn2 
	BYTE	W06
	BYTE		        Gs1 
	BYTE		N05     En2 
	BYTE	W06
	BYTE		        Bn1 
	BYTE		N05     Gs2 
	BYTE	W06
	BYTE		        En2 
	BYTE		N05     Bn2 
	BYTE	W06
	BYTE		        Gs2 
	BYTE		N05     En3 
	BYTE	W06
	BYTE		        Bn2 
	BYTE		N05     Gs3 
	BYTE	W06
	BYTE		        Gs2 
	BYTE		N05     En3 
	BYTE	W06
	BYTE		        En2 
	BYTE		N05     Bn2 
	BYTE	W06
	BYTE		        Bn1 
	BYTE		N05     Gs2 
	BYTE	W06
	BYTE		        En2 
	BYTE		N05     Bn2 
	BYTE	W06
	BYTE		        Bn1 
	BYTE		N05     Gs2 
	BYTE	W06
	BYTE		        Gs1 
	BYTE		N05     En2 
	BYTE	W06
	BYTE		        En1 
	BYTE		N05     Bn1 
	BYTE	W06
	BYTE	PEND
// 016   ----------------------------------------
GoldenSunVenusLighthouseSme_6_016:
	BYTE		N08     Dn1   v127
	BYTE		N08     An1 
	BYTE	W12
	BYTE		        Dn1 
	BYTE		N08     An1 
	BYTE	W12
	BYTE		        Dn1 
	BYTE		N08     An1 
	BYTE	W12
	BYTE		        Dn1 
	BYTE		N08     An1 
	BYTE	W12
	BYTE		        Dn1 
	BYTE		N08     An1 
	BYTE	W12
	BYTE		        Dn1 
	BYTE		N08     An1 
	BYTE	W12
	BYTE		        Dn1 
	BYTE		N08     An1 
	BYTE	W12
	BYTE		        Dn1 
	BYTE		N08     An1 
	BYTE	W12
	BYTE	PEND
// 017   ----------------------------------------
GoldenSunVenusLighthouseSme_6_017:
	BYTE		N08     En1   v127
	BYTE		N08     Bn1 
	BYTE	W12
	BYTE		        En1 
	BYTE		N08     Bn1 
	BYTE	W12
	BYTE		        En1 
	BYTE		N08     Bn1 
	BYTE	W12
	BYTE		        En1 
	BYTE		N08     Bn1 
	BYTE	W12
	BYTE		        En1 
	BYTE		N08     Bn1 
	BYTE	W12
	BYTE		        En1 
	BYTE		N08     Bn1 
	BYTE	W12
	BYTE		        En1 
	BYTE		N08     Bn1 
	BYTE	W12
	BYTE		        En1 
	BYTE		N08     Bn1 
	BYTE	W12
	BYTE	PEND
// 018   ----------------------------------------
GoldenSunVenusLighthouseSme_6_018:
	BYTE		N08     Fs1   v127
	BYTE		N08     Cs2 
	BYTE	W12
	BYTE		        Fs1 
	BYTE		N08     Cs2 
	BYTE	W12
	BYTE		        Fs1 
	BYTE		N08     Cs2 
	BYTE	W12
	BYTE		        Fs1 
	BYTE		N08     Cs2 
	BYTE	W12
	BYTE		        Fs1 
	BYTE		N08     Cs2 
	BYTE	W12
	BYTE		        Fs1 
	BYTE		N08     Cs2 
	BYTE	W12
	BYTE		        Fs1 
	BYTE		N08     Cs2 
	BYTE	W12
	BYTE		        Fs1 
	BYTE		N08     Cs2 
	BYTE	W12
	BYTE	PEND
// 019   ----------------------------------------
	BYTE	PATT
	 POIN2	GoldenSunVenusLighthouseSme_6_017
// 020   ----------------------------------------
	BYTE	PATT
	 POIN2	GoldenSunVenusLighthouseSme_6_016
// 021   ----------------------------------------
	BYTE	PATT
	 POIN2	GoldenSunVenusLighthouseSme_6_017
// 022   ----------------------------------------
	BYTE	PATT
	 POIN2	GoldenSunVenusLighthouseSme_6_018
// 023   ----------------------------------------
	BYTE		N05     Cs1   v127
	BYTE		N05     Fn1 
	BYTE	W06
	BYTE		N05   
	BYTE		N05     Gs1 
	BYTE	W06
	BYTE		N05   
	BYTE		N05     Cs2 
	BYTE	W06
	BYTE		N05   
	BYTE		N05     Fn2 
	BYTE	W06
	BYTE		        Fn1 
	BYTE		N05     Gs1 
	BYTE	W06
	BYTE		N05   
	BYTE		N05     Cs2 
	BYTE	W06
	BYTE		N05   
	BYTE		N05     Fn2 
	BYTE	W06
	BYTE		N05   
	BYTE		N05     Gs2 
	BYTE	W06
	BYTE		N05   
	BYTE		N05     Cs3 
	BYTE	W06
	BYTE		        Fn2 
	BYTE		N05     Gs2 
	BYTE	W06
	BYTE		        Cs2 
	BYTE		N05     Fn2 
	BYTE	W06
	BYTE		        Gs1 
	BYTE		N05     Cs2 
	BYTE	W06
	BYTE		        Fn2 
	BYTE		N05     Gs2 
	BYTE	W06
	BYTE		        Cs2 
	BYTE		N05     Fn2 
	BYTE	W06
	BYTE		        Gs1 
	BYTE		N05     Cs2 
	BYTE	W06
	BYTE		        Fn1 
	BYTE		N05     Gs1 
	BYTE	W06
// 024   ----------------------------------------
	BYTE	PATT
	 POIN2	GoldenSunVenusLighthouseSme_6_008
// 025   ----------------------------------------
	BYTE	PATT
	 POIN2	GoldenSunVenusLighthouseSme_6_008
// 026   ----------------------------------------
	BYTE	PATT
	 POIN2	GoldenSunVenusLighthouseSme_6_010
// 027   ----------------------------------------
	BYTE	PATT
	 POIN2	GoldenSunVenusLighthouseSme_6_011
// 028   ----------------------------------------
	BYTE	PATT
	 POIN2	GoldenSunVenusLighthouseSme_6_012
// 029   ----------------------------------------
	BYTE	PATT
	 POIN2	GoldenSunVenusLighthouseSme_6_013
// 030   ----------------------------------------
	BYTE	PATT
	 POIN2	GoldenSunVenusLighthouseSme_6_014
// 031   ----------------------------------------
	BYTE	PATT
	 POIN2	GoldenSunVenusLighthouseSme_6_015
// 032   ----------------------------------------
	BYTE	W96
// 033   ----------------------------------------
	BYTE	W96
// 034   ----------------------------------------
	BYTE	W96
// 035   ----------------------------------------
	BYTE	W96
// 036   ----------------------------------------
	BYTE	W96
// 037   ----------------------------------------
	BYTE	W96
// 038   ----------------------------------------
	BYTE	W96
// 039   ----------------------------------------
	BYTE	W96
// 040   ----------------------------------------
	BYTE	W96
// 041   ----------------------------------------
	BYTE	W96
// 042   ----------------------------------------
	BYTE	W96
// 043   ----------------------------------------
	BYTE	W96
	BYTE	GoTo
	 POIN2	GoldenSunVenusLighthouseSme_6_B1
GoldenSunVenusLighthouseSme_6_B2:
// 044   ----------------------------------------
	BYTE		VOICE   48
	BYTE		VOL     94*GoldenSunVenusLighthouseSme_mvl/mxv
	BYTE		PAN     c_v+6
	BYTE		BEND    c_v+0
	BYTE	FINE

//**************** Track 7 (Midi-Chn.7) ****************//

GoldenSunVenusLighthouseSme_7:
	BYTE	KEYSH   GoldenSunVenusLighthouseSme_key+0
GoldenSunVenusLighthouseSme_7_B1:
// 000   ----------------------------------------
	BYTE		VOICE   73
	BYTE		VOL     99*GoldenSunVenusLighthouseSme_mvl/mxv
	BYTE		PAN     c_v+0
	BYTE		BEND    c_v+0
	BYTE	W96
// 001   ----------------------------------------
	BYTE	W96
// 002   ----------------------------------------
	BYTE	W96
// 003   ----------------------------------------
	BYTE	W96
// 004   ----------------------------------------
	BYTE	W96
// 005   ----------------------------------------
	BYTE	W96
// 006   ----------------------------------------
	BYTE	W96
// 007   ----------------------------------------
	BYTE	W96
// 008   ----------------------------------------
	BYTE	W96
// 009   ----------------------------------------
	BYTE	W96
// 010   ----------------------------------------
	BYTE	W96
// 011   ----------------------------------------
	BYTE	W96
// 012   ----------------------------------------
	BYTE	W96
// 013   ----------------------------------------
	BYTE	W96
// 014   ----------------------------------------
	BYTE	W96
// 015   ----------------------------------------
	BYTE	W96
// 016   ----------------------------------------
	BYTE	W96
// 017   ----------------------------------------
	BYTE	W96
// 018   ----------------------------------------
	BYTE	W96
// 019   ----------------------------------------
	BYTE	W96
// 020   ----------------------------------------
	BYTE	W96
// 021   ----------------------------------------
	BYTE	W96
// 022   ----------------------------------------
	BYTE	W96
// 023   ----------------------------------------
	BYTE	W96
// 024   ----------------------------------------
	BYTE	W96
// 025   ----------------------------------------
	BYTE	W96
// 026   ----------------------------------------
	BYTE	W96
// 027   ----------------------------------------
	BYTE	W96
// 028   ----------------------------------------
	BYTE	W96
// 029   ----------------------------------------
	BYTE	W96
// 030   ----------------------------------------
	BYTE	W96
// 031   ----------------------------------------
	BYTE	W96
// 032   ----------------------------------------
GoldenSunVenusLighthouseSme_7_032:
	BYTE		N06     An2   v116
	BYTE		N06     Cn3 
	BYTE	W12
	BYTE		        Bn2 
	BYTE		N06     Dn3 
	BYTE	W12
	BYTE		        Gn2 
	BYTE		N06     Bn2 
	BYTE	W12
	BYTE		        An2 
	BYTE		N06     Cn3 
	BYTE	W12
	BYTE		N20     Bn2 
	BYTE		N20     Dn3 
	BYTE	W24
	BYTE		N06     An2 
	BYTE		N06     Cn3 
	BYTE	W12
	BYTE		        Bn2 
	BYTE		N06     Dn3 
	BYTE	W12
	BYTE	PEND
// 033   ----------------------------------------
GoldenSunVenusLighthouseSme_7_033:
	BYTE		N06     Gn2   v116
	BYTE		N06     Bn2 
	BYTE	W12
	BYTE		        An2 
	BYTE		N06     Cn3 
	BYTE	W12
	BYTE		N20     Bn2 
	BYTE		N20     Dn3 
	BYTE	W24
	BYTE		N06     An2 
	BYTE		N06     Cn3 
	BYTE	W12
	BYTE		        Bn2 
	BYTE		N06     Dn3 
	BYTE	W12
	BYTE		        Gn2 
	BYTE		N06     Bn2 
	BYTE	W12
	BYTE		        An2 
	BYTE		N06     Cn3 
	BYTE	W12
	BYTE	PEND
// 034   ----------------------------------------
	BYTE	PATT
	 POIN2	GoldenSunVenusLighthouseSme_7_032
// 035   ----------------------------------------
	BYTE	PATT
	 POIN2	GoldenSunVenusLighthouseSme_7_033
// 036   ----------------------------------------
	BYTE	PATT
	 POIN2	GoldenSunVenusLighthouseSme_7_032
// 037   ----------------------------------------
	BYTE	PATT
	 POIN2	GoldenSunVenusLighthouseSme_7_033
// 038   ----------------------------------------
	BYTE	PATT
	 POIN2	GoldenSunVenusLighthouseSme_7_032
// 039   ----------------------------------------
	BYTE	PATT
	 POIN2	GoldenSunVenusLighthouseSme_7_033
// 040   ----------------------------------------
	BYTE	W96
// 041   ----------------------------------------
	BYTE	W96
// 042   ----------------------------------------
	BYTE	W96
// 043   ----------------------------------------
	BYTE	W96
	BYTE	GoTo
	 POIN2	GoldenSunVenusLighthouseSme_7_B1
GoldenSunVenusLighthouseSme_7_B2:
// 044   ----------------------------------------
	BYTE		VOICE   73
	BYTE		VOL     99*GoldenSunVenusLighthouseSme_mvl/mxv
	BYTE		PAN     c_v+0
	BYTE		BEND    c_v+0
	BYTE	FINE

//**************** Track 8 (Midi-Chn.8) ****************//

GoldenSunVenusLighthouseSme_8:
	BYTE	KEYSH   GoldenSunVenusLighthouseSme_key+0
GoldenSunVenusLighthouseSme_8_B1:
// 000   ----------------------------------------
	BYTE		VOICE   127
	BYTE		VOL     107*GoldenSunVenusLighthouseSme_mvl/mxv
	BYTE		PAN     c_v+0
	BYTE		N10     Cn1   v124
	BYTE		N48     Cs2 
	BYTE	W24
	BYTE		N10     Dn1 
	BYTE	W24
	BYTE		        Cn1 
	BYTE	W12
	BYTE		N10   
	BYTE	W12
	BYTE		        Dn1 
	BYTE	W24
// 001   ----------------------------------------
GoldenSunVenusLighthouseSme_8_001:
	BYTE		N10     Cn1   v124
	BYTE	W24
	BYTE		        Dn1 
	BYTE	W24
	BYTE		        Cn1 
	BYTE	W18
	BYTE		N05   
	BYTE	W06
	BYTE		N10     Dn1 
	BYTE	W24
	BYTE	PEND
// 002   ----------------------------------------
GoldenSunVenusLighthouseSme_8_002:
	BYTE		N10     Cn1   v124
	BYTE	W24
	BYTE		        Dn1 
	BYTE	W24
	BYTE		        Cn1 
	BYTE	W12
	BYTE		N10   
	BYTE	W12
	BYTE		        Dn1 
	BYTE	W24
	BYTE	PEND
// 003   ----------------------------------------
GoldenSunVenusLighthouseSme_8_003:
	BYTE		N10     Cn1   v124
	BYTE	W24
	BYTE		        Dn1 
	BYTE	W24
	BYTE		N05     Cn1 
	BYTE	W06
	BYTE		N05   
	BYTE	W06
	BYTE		N10   
	BYTE	W12
	BYTE		        Dn1 
	BYTE	W12
	BYTE		N10   
	BYTE	W12
	BYTE	PEND
// 004   ----------------------------------------
	BYTE	PATT
	 POIN2	GoldenSunVenusLighthouseSme_8_002
// 005   ----------------------------------------
GoldenSunVenusLighthouseSme_8_005:
	BYTE		N10     Cn1   v124
	BYTE	W24
	BYTE		        Dn1 
	BYTE	W24
	BYTE		        Cn1 
	BYTE	W18
	BYTE		N05   
	BYTE	W06
	BYTE		        Dn1 
	BYTE	W06
	BYTE		N05   
	BYTE	W06
	BYTE		N05   
	BYTE	W06
	BYTE		N05   
	BYTE	W06
	BYTE	PEND
// 006   ----------------------------------------
	BYTE	PATT
	 POIN2	GoldenSunVenusLighthouseSme_8_002
// 007   ----------------------------------------
	BYTE		N10     Cn1   v124
	BYTE	W18
	BYTE		N05   
	BYTE	W06
	BYTE		N10     Dn1 
	BYTE	W12
	BYTE		        Cn1 
	BYTE	W12
	BYTE		N05     Cn2 
	BYTE	W06
	BYTE		N05   
	BYTE	W06
	BYTE		        An1 
	BYTE	W06
	BYTE		N05   
	BYTE	W06
	BYTE		        Fn1 
	BYTE	W06
	BYTE		N05   
	BYTE	W06
	BYTE		        An1 
	BYTE	W06
	BYTE		        Fn1 
	BYTE	W06
// 008   ----------------------------------------
GoldenSunVenusLighthouseSme_8_008:
	BYTE		N10     Cn1   v124
	BYTE		N92     Cs2 
	BYTE	W24
	BYTE		N10     Dn1 
	BYTE	W24
	BYTE		        Cn1 
	BYTE	W12
	BYTE		N10   
	BYTE	W12
	BYTE		        Dn1 
	BYTE	W24
	BYTE	PEND
// 009   ----------------------------------------
	BYTE	PATT
	 POIN2	GoldenSunVenusLighthouseSme_8_001
// 010   ----------------------------------------
	BYTE	PATT
	 POIN2	GoldenSunVenusLighthouseSme_8_002
// 011   ----------------------------------------
	BYTE	PATT
	 POIN2	GoldenSunVenusLighthouseSme_8_003
// 012   ----------------------------------------
	BYTE	PATT
	 POIN2	GoldenSunVenusLighthouseSme_8_002
// 013   ----------------------------------------
	BYTE	PATT
	 POIN2	GoldenSunVenusLighthouseSme_8_005
// 014   ----------------------------------------
	BYTE	PATT
	 POIN2	GoldenSunVenusLighthouseSme_8_008
// 015   ----------------------------------------
GoldenSunVenusLighthouseSme_8_015:
	BYTE		N10     Cn1   v124
	BYTE	W18
	BYTE		N05   
	BYTE	W06
	BYTE		N10     Dn1 
	BYTE		N68     Cs2 
	BYTE	W12
	BYTE		N10     Cn1 
	BYTE	W12
	BYTE		N05     Cn2 
	BYTE	W06
	BYTE		        Dn1   v100
	BYTE	W06
	BYTE		N05   
	BYTE	W06
	BYTE		        An1   v124
	BYTE	W06
	BYTE		        Dn1   v100
	BYTE	W06
	BYTE		N05   
	BYTE	W06
	BYTE		        Fn1   v124
	BYTE	W06
	BYTE		        Dn1   v100
	BYTE	W06
	BYTE	PEND
// 016   ----------------------------------------
	BYTE		N32     Cn1   v124
	BYTE		N92     Cs2 
	BYTE	W36
	BYTE		N11     Cn1 
	BYTE	W12
	BYTE		        Dn1 
	BYTE	W36
	BYTE		N05     Fs1   v104
	BYTE	W06
	BYTE		N05   
	BYTE	W06
// 017   ----------------------------------------
	BYTE		N11     Cn1   v124
	BYTE	W12
	BYTE		N11   
	BYTE	W24
	BYTE		N11   
	BYTE	W12
	BYTE		        Dn1 
	BYTE	W12
	BYTE		        Cn1 
	BYTE	W12
	BYTE		        Dn1 
	BYTE	W12
	BYTE		N11   
	BYTE	W12
// 018   ----------------------------------------
	BYTE		N32     Cn1 
	BYTE	W36
	BYTE		N11   
	BYTE	W12
	BYTE		        Dn1 
	BYTE	W36
	BYTE		N05     Fs1   v104
	BYTE	W06
	BYTE		N05   
	BYTE	W06
// 019   ----------------------------------------
	BYTE		N11     Cn1   v124
	BYTE	W12
	BYTE		N11   
	BYTE	W24
	BYTE		N11   
	BYTE	W12
	BYTE		        Dn1 
	BYTE	W12
	BYTE		        Cn1 
	BYTE	W12
	BYTE		        Dn1 
	BYTE	W12
	BYTE		N05   
	BYTE	W06
	BYTE		N05   
	BYTE	W06
// 020   ----------------------------------------
	BYTE	PATT
	 POIN2	GoldenSunVenusLighthouseSme_8_008
// 021   ----------------------------------------
	BYTE	PATT
	 POIN2	GoldenSunVenusLighthouseSme_8_001
// 022   ----------------------------------------
	BYTE	PATT
	 POIN2	GoldenSunVenusLighthouseSme_8_002
// 023   ----------------------------------------
	BYTE		N10     Cn1   v124
	BYTE	W24
	BYTE		        Dn1 
	BYTE	W24
	BYTE		N05     Cn1 
	BYTE	W06
	BYTE		N05   
	BYTE	W06
	BYTE		N10   
	BYTE	W12
	BYTE		N05     Dn1 
	BYTE	W06
	BYTE		N05   
	BYTE	W06
	BYTE		N05   
	BYTE	W06
	BYTE		N05   
	BYTE	W06
// 024   ----------------------------------------
	BYTE	PATT
	 POIN2	GoldenSunVenusLighthouseSme_8_008
// 025   ----------------------------------------
	BYTE	PATT
	 POIN2	GoldenSunVenusLighthouseSme_8_001
// 026   ----------------------------------------
	BYTE	PATT
	 POIN2	GoldenSunVenusLighthouseSme_8_002
// 027   ----------------------------------------
	BYTE	PATT
	 POIN2	GoldenSunVenusLighthouseSme_8_003
// 028   ----------------------------------------
	BYTE	PATT
	 POIN2	GoldenSunVenusLighthouseSme_8_002
// 029   ----------------------------------------
	BYTE	PATT
	 POIN2	GoldenSunVenusLighthouseSme_8_005
// 030   ----------------------------------------
	BYTE	PATT
	 POIN2	GoldenSunVenusLighthouseSme_8_008
// 031   ----------------------------------------
	BYTE	PATT
	 POIN2	GoldenSunVenusLighthouseSme_8_015
// 032   ----------------------------------------
GoldenSunVenusLighthouseSme_8_032:
	BYTE		N11     Cn1   v124
	BYTE		N92     Cs2 
	BYTE	W24
	BYTE		N11     Cn1 
	BYTE	W12
	BYTE		        Dn1 
	BYTE	W24
	BYTE		        Cn1 
	BYTE	W12
	BYTE		        Dn1 
	BYTE	W24
	BYTE	PEND
// 033   ----------------------------------------
GoldenSunVenusLighthouseSme_8_033:
	BYTE	W12
	BYTE		N11     Cn1   v124
	BYTE	W12
	BYTE		        Dn1 
	BYTE	W36
	BYTE		        Cn1 
	BYTE	W12
	BYTE		        Dn1 
	BYTE	W12
	BYTE		N05   
	BYTE	W06
	BYTE		N05   
	BYTE	W06
	BYTE	PEND
// 034   ----------------------------------------
GoldenSunVenusLighthouseSme_8_034:
	BYTE		N11     Cn1   v124
	BYTE	W24
	BYTE		N11   
	BYTE	W12
	BYTE		        Dn1 
	BYTE	W24
	BYTE		        Cn1 
	BYTE	W12
	BYTE		        Dn1 
	BYTE	W24
	BYTE	PEND
// 035   ----------------------------------------
	BYTE	W12
	BYTE		        Cn1 
	BYTE	W12
	BYTE		        Dn1 
	BYTE	W36
	BYTE		        Cn1 
	BYTE	W12
	BYTE		N05     Cn2 
	BYTE	W06
	BYTE		        An1 
	BYTE	W06
	BYTE		        Fn1 
	BYTE	W06
	BYTE		N05   
	BYTE	W06
// 036   ----------------------------------------
	BYTE	PATT
	 POIN2	GoldenSunVenusLighthouseSme_8_032
// 037   ----------------------------------------
	BYTE	PATT
	 POIN2	GoldenSunVenusLighthouseSme_8_033
// 038   ----------------------------------------
	BYTE	PATT
	 POIN2	GoldenSunVenusLighthouseSme_8_034
// 039   ----------------------------------------
	BYTE		N05     Cn2   v124
	BYTE	W06
	BYTE		N05   
	BYTE	W06
	BYTE		N05   
	BYTE	W06
	BYTE		N05   
	BYTE	W06
	BYTE		        An1 
	BYTE	W06
	BYTE		N05   
	BYTE	W06
	BYTE		N05   
	BYTE	W06
	BYTE		N05   
	BYTE	W06
	BYTE		        Fn1 
	BYTE	W06
	BYTE		N05   
	BYTE	W06
	BYTE		N05   
	BYTE	W06
	BYTE		N05   
	BYTE	W06
	BYTE		        Dn1 
	BYTE	W06
	BYTE		N05   
	BYTE	W06
	BYTE		N05   
	BYTE	W06
	BYTE		N05   
	BYTE	W06
// 040   ----------------------------------------
GoldenSunVenusLighthouseSme_8_040:
	BYTE		N11     Cn1   v124
	BYTE		N44     Cs2 
	BYTE	W48
	BYTE		N11     Cn1 
	BYTE		N17     Cs2   v112
	BYTE	W18
	BYTE		N11     Cn1   v124
	BYTE		N17     Cs2   v116
	BYTE	W18
	BYTE		N11     Dn1   v124
	BYTE		N11     Cs2 
	BYTE	W12
	BYTE	PEND
// 041   ----------------------------------------
	BYTE		        Cn1 
	BYTE		N44     Cs2 
	BYTE	W48
	BYTE		N11     Cn1 
	BYTE		N44     Cs2 
	BYTE	W24
	BYTE		N11     Dn1 
	BYTE	W24
// 042   ----------------------------------------
	BYTE	PATT
	 POIN2	GoldenSunVenusLighthouseSme_8_040
// 043   ----------------------------------------
	BYTE		N05     Cn2   v124
	BYTE	W06
	BYTE		N05   
	BYTE	W06
	BYTE		N05   
	BYTE	W06
	BYTE		N05   
	BYTE	W06
	BYTE		        An1 
	BYTE	W06
	BYTE		N05   
	BYTE	W06
	BYTE		N05   
	BYTE	W06
	BYTE		N05   
	BYTE	W06
	BYTE		        Fn1 
	BYTE	W06
	BYTE		N05   
	BYTE	W06
	BYTE		N05   
	BYTE	W06
	BYTE		N05   
	BYTE	W06
	BYTE		N11     Dn1 
	BYTE	W12
	BYTE		N11   
	BYTE	W12
	BYTE	GoTo
	 POIN2	GoldenSunVenusLighthouseSme_8_B1
GoldenSunVenusLighthouseSme_8_B2:
// 044   ----------------------------------------
	BYTE		VOICE   127
	BYTE		VOL     107*GoldenSunVenusLighthouseSme_mvl/mxv
	BYTE		PAN     c_v+0
	BYTE	FINE

//**************** Track 9 (Midi-Chn.9) ****************//

GoldenSunVenusLighthouseSme_9:
	BYTE	KEYSH   GoldenSunVenusLighthouseSme_key+0
GoldenSunVenusLighthouseSme_9_B1:
// 000   ----------------------------------------
	BYTE		VOICE   61
	BYTE		VOL     83*GoldenSunVenusLighthouseSme_mvl/mxv
	BYTE	W11
	BYTE		N44     Fs3   v120
	BYTE	W48
	BYTE		N10     Gs3 
	BYTE	W12
	BYTE		        An3 
	BYTE	W12
	BYTE		        Bn3 
	BYTE	W12
	BYTE		        En4 
	BYTE	W01
// 001   ----------------------------------------
GoldenSunVenusLighthouseSme_9_001:
	BYTE	W11
	BYTE		N90     Cs4   v120
	BYTE	W84
	BYTE	W01
	BYTE	PEND
// 002   ----------------------------------------
GoldenSunVenusLighthouseSme_9_002:
	BYTE	W11
	BYTE		N32     Dn4   v120
	BYTE	W36
	BYTE		N05     En4 
	BYTE	W06
	BYTE		        Fs4 
	BYTE	W06
	BYTE		N20     En4 
	BYTE	W24
	BYTE		        Bn3 
	BYTE	W13
	BYTE	PEND
// 003   ----------------------------------------
	BYTE	PATT
	 POIN2	GoldenSunVenusLighthouseSme_9_001
// 004   ----------------------------------------
GoldenSunVenusLighthouseSme_9_004:
	BYTE	W11
	BYTE		N10     Bn3   v120
	BYTE	W12
	BYTE		        Cs4 
	BYTE	W12
	BYTE		N30     Fs3 
	BYTE	W36
	BYTE		N10     En3 
	BYTE	W12
	BYTE		N20     Fs3 
	BYTE	W13
	BYTE	PEND
// 005   ----------------------------------------
GoldenSunVenusLighthouseSme_9_005:
	BYTE	W11
	BYTE		N10     Bn3   v120
	BYTE	W12
	BYTE		        Cs4 
	BYTE	W12
	BYTE		N30     Fs3 
	BYTE	W36
	BYTE		N10     En3 
	BYTE	W12
	BYTE		        Fs3 
	BYTE	W12
	BYTE		        Gs3 
	BYTE	W01
	BYTE	PEND
// 006   ----------------------------------------
GoldenSunVenusLighthouseSme_9_006:
	BYTE	W11
	BYTE		N90     Fs3   v120
	BYTE	W84
	BYTE	W01
	BYTE	PEND
// 007   ----------------------------------------
	BYTE	W11
	BYTE		N44   
	BYTE	W48
	BYTE		N17   
	BYTE	W18
	BYTE		        Gs3 
	BYTE	W18
	BYTE		N11     An3 
	BYTE	W01
// 008   ----------------------------------------
GoldenSunVenusLighthouseSme_9_008:
	BYTE	W11
	BYTE		N44     Fs3   v120
	BYTE	W48
	BYTE		N10     Gs3 
	BYTE	W12
	BYTE		        An3 
	BYTE	W12
	BYTE		        Bn3 
	BYTE	W12
	BYTE		        En4 
	BYTE	W01
	BYTE	PEND
// 009   ----------------------------------------
	BYTE	PATT
	 POIN2	GoldenSunVenusLighthouseSme_9_001
// 010   ----------------------------------------
	BYTE	PATT
	 POIN2	GoldenSunVenusLighthouseSme_9_002
// 011   ----------------------------------------
	BYTE	PATT
	 POIN2	GoldenSunVenusLighthouseSme_9_001
// 012   ----------------------------------------
	BYTE	PATT
	 POIN2	GoldenSunVenusLighthouseSme_9_004
// 013   ----------------------------------------
	BYTE	PATT
	 POIN2	GoldenSunVenusLighthouseSme_9_005
// 014   ----------------------------------------
	BYTE	PATT
	 POIN2	GoldenSunVenusLighthouseSme_9_006
// 015   ----------------------------------------
GoldenSunVenusLighthouseSme_9_015:
	BYTE	W11
	BYTE		N44     Fs3   v120
	BYTE	W48
	BYTE		        En3 
	BYTE	W36
	BYTE	W01
	BYTE	PEND
// 016   ----------------------------------------
	BYTE	W96
// 017   ----------------------------------------
	BYTE	W96
// 018   ----------------------------------------
	BYTE	W96
// 019   ----------------------------------------
	BYTE	W96
// 020   ----------------------------------------
	BYTE	W96
// 021   ----------------------------------------
	BYTE	W96
// 022   ----------------------------------------
	BYTE	W96
// 023   ----------------------------------------
	BYTE	W96
// 024   ----------------------------------------
	BYTE	PATT
	 POIN2	GoldenSunVenusLighthouseSme_9_008
// 025   ----------------------------------------
	BYTE	PATT
	 POIN2	GoldenSunVenusLighthouseSme_9_001
// 026   ----------------------------------------
	BYTE	PATT
	 POIN2	GoldenSunVenusLighthouseSme_9_002
// 027   ----------------------------------------
	BYTE	PATT
	 POIN2	GoldenSunVenusLighthouseSme_9_001
// 028   ----------------------------------------
	BYTE	PATT
	 POIN2	GoldenSunVenusLighthouseSme_9_004
// 029   ----------------------------------------
	BYTE	PATT
	 POIN2	GoldenSunVenusLighthouseSme_9_005
// 030   ----------------------------------------
	BYTE	PATT
	 POIN2	GoldenSunVenusLighthouseSme_9_006
// 031   ----------------------------------------
	BYTE	PATT
	 POIN2	GoldenSunVenusLighthouseSme_9_015
// 032   ----------------------------------------
	BYTE	W96
// 033   ----------------------------------------
	BYTE	W96
// 034   ----------------------------------------
	BYTE	W96
// 035   ----------------------------------------
	BYTE	W96
// 036   ----------------------------------------
	BYTE	W96
// 037   ----------------------------------------
	BYTE	W96
// 038   ----------------------------------------
	BYTE	W96
// 039   ----------------------------------------
	BYTE	W96
// 040   ----------------------------------------
	BYTE	W96
// 041   ----------------------------------------
	BYTE	W96
// 042   ----------------------------------------
	BYTE	W96
// 043   ----------------------------------------
	BYTE	W96
	BYTE	GoTo
	 POIN2	GoldenSunVenusLighthouseSme_9_B1
GoldenSunVenusLighthouseSme_9_B2:
// 044   ----------------------------------------
	BYTE	FINE

//**************** Track 10 (Midi-Chn.11) ****************//

GoldenSunVenusLighthouseSme_10:
	BYTE	KEYSH   GoldenSunVenusLighthouseSme_key+0
GoldenSunVenusLighthouseSme_10_B1:
// 000   ----------------------------------------
	BYTE		VOICE   8
	BYTE		VOL     70*GoldenSunVenusLighthouseSme_mvl/mxv
	BYTE		PAN     c_v+0
	BYTE		BEND    c_v+0
	BYTE	W96
// 001   ----------------------------------------
	BYTE	W96
// 002   ----------------------------------------
	BYTE	W96
// 003   ----------------------------------------
	BYTE	W96
// 004   ----------------------------------------
	BYTE	W96
// 005   ----------------------------------------
	BYTE	W96
// 006   ----------------------------------------
	BYTE	W96
// 007   ----------------------------------------
	BYTE	W96
// 008   ----------------------------------------
	BYTE	W96
// 009   ----------------------------------------
	BYTE	W96
// 010   ----------------------------------------
	BYTE	W96
// 011   ----------------------------------------
	BYTE	W96
// 012   ----------------------------------------
	BYTE	W96
// 013   ----------------------------------------
	BYTE	W96
// 014   ----------------------------------------
	BYTE	W96
// 015   ----------------------------------------
	BYTE	W96
// 016   ----------------------------------------
GoldenSunVenusLighthouseSme_10_016:
	BYTE	W11
	BYTE		N32     Fs2   v116
	BYTE	W36
	BYTE		N23     Fs3 
	BYTE	W24
	BYTE		N10     En3 
	BYTE	W12
	BYTE		        Dn3 
	BYTE	W12
	BYTE		        Cs3 
	BYTE	W01
	BYTE	PEND
// 017   ----------------------------------------
GoldenSunVenusLighthouseSme_10_017:
	BYTE	W11
	BYTE		N44     Bn2   v116
	BYTE	W48
	BYTE		N17   
	BYTE	W18
	BYTE		        Cs3 
	BYTE	W18
	BYTE		N11     Dn3 
	BYTE	W01
	BYTE	PEND
// 018   ----------------------------------------
	BYTE	W11
	BYTE		N32     Cs3 
	BYTE	W36
	BYTE		TIE     Fs2 
	BYTE	W48
	BYTE	W01
// 019   ----------------------------------------
	BYTE	W10
	BYTE		MOD     24
	BYTE	W48
	BYTE		EOT   
	BYTE		MOD     0
	BYTE	W01
	BYTE		N17   
	BYTE	W18
	BYTE		        Gs2 
	BYTE	W18
	BYTE		N11     An2 
	BYTE	W01
// 020   ----------------------------------------
	BYTE	PATT
	 POIN2	GoldenSunVenusLighthouseSme_10_016
// 021   ----------------------------------------
	BYTE	PATT
	 POIN2	GoldenSunVenusLighthouseSme_10_017
// 022   ----------------------------------------
	BYTE	W11
	BYTE		N32     Cs3   v127
	BYTE	W36
	BYTE		N56     Fs3 
	BYTE	W48
	BYTE	W01
// 023   ----------------------------------------
	BYTE	W11
	BYTE		N32     Fn3 
	BYTE	W36
	BYTE		        Fs3 
	BYTE	W36
	BYTE		N23     Gs3 
	BYTE	W13
// 024   ----------------------------------------
	BYTE	W96
// 025   ----------------------------------------
	BYTE	W96
// 026   ----------------------------------------
	BYTE	W96
// 027   ----------------------------------------
	BYTE	W96
// 028   ----------------------------------------
	BYTE	W96
// 029   ----------------------------------------
	BYTE	W96
// 030   ----------------------------------------
	BYTE	W96
// 031   ----------------------------------------
	BYTE	W96
// 032   ----------------------------------------
	BYTE	W96
// 033   ----------------------------------------
	BYTE	W96
// 034   ----------------------------------------
	BYTE	W96
// 035   ----------------------------------------
	BYTE	W96
// 036   ----------------------------------------
	BYTE	W96
// 037   ----------------------------------------
	BYTE	W96
// 038   ----------------------------------------
	BYTE	W96
// 039   ----------------------------------------
	BYTE	W96
// 040   ----------------------------------------
	BYTE	W96
// 041   ----------------------------------------
	BYTE	W96
// 042   ----------------------------------------
	BYTE	W96
// 043   ----------------------------------------
	BYTE	W96
	BYTE	GoTo
	 POIN2	GoldenSunVenusLighthouseSme_10_B1
GoldenSunVenusLighthouseSme_10_B2:
// 044   ----------------------------------------
	BYTE		VOL     70*GoldenSunVenusLighthouseSme_mvl/mxv
	BYTE		PAN     c_v+0
	BYTE		BEND    c_v+0
	BYTE	FINE

//******************************************************//
	ALIGN 4

GoldenSunVenusLighthouseSme:
	BYTE	10	// NumTrks
	BYTE	0	// NumBlks
	BYTE	GoldenSunVenusLighthouseSme_pri	// Priority
	BYTE	GoldenSunVenusLighthouseSme_rev	// Reverb.

	POIN2	GoldenSunVenusLighthouseSme_grp

	POIN2	GoldenSunVenusLighthouseSme_1
	POIN2	GoldenSunVenusLighthouseSme_2
	POIN2	GoldenSunVenusLighthouseSme_3
	POIN2	GoldenSunVenusLighthouseSme_4
	POIN2	GoldenSunVenusLighthouseSme_5
	POIN2	GoldenSunVenusLighthouseSme_6
	POIN2	GoldenSunVenusLighthouseSme_7
	POIN2	GoldenSunVenusLighthouseSme_8
	POIN2	GoldenSunVenusLighthouseSme_9
	POIN2	GoldenSunVenusLighthouseSme_10

	
