//Event file generated from Sappy .s format.
	#include "MPlayDef.event"

	#define	GoldenSunFusionDragonBattleMrGreen3339_grp  voicegroup000
	#define	GoldenSunFusionDragonBattleMrGreen3339_pri  0
	#define	GoldenSunFusionDragonBattleMrGreen3339_rev  0
	#define	GoldenSunFusionDragonBattleMrGreen3339_mvl  127
	#define	GoldenSunFusionDragonBattleMrGreen3339_key  0
	#define	GoldenSunFusionDragonBattleMrGreen3339_tbs  1
	#define	GoldenSunFusionDragonBattleMrGreen3339_exg  0
	#define	GoldenSunFusionDragonBattleMrGreen3339_cmp  1

	// .rodata
	//	GoldenSunFusionDragonBattleMrGreen3339
	ALIGN 4


//**************** Track 1 (Midi-Chn.0) ****************//

GoldenSunFusionDragonBattleMrGreen3339_001:
// 000   ----------------------------------------
 BYTE   VOL   57*GoldenSunFusionDragonBattleMrGreen3339_mvl/mxv
 BYTE   KEYSH   GoldenSunFusionDragonBattleMrGreen3339_key+0
 BYTE   TEMPO   80*GoldenSunFusionDragonBattleMrGreen3339_tbs/2
 BYTE   VOICE   34
 BYTE   N06  Dn0  v127
 BYTE   W06
 BYTE   N06
 BYTE   W06
 BYTE   N06
 BYTE   W06
 BYTE   N06
 BYTE   W06
 BYTE   Ds0
 BYTE   W06
 BYTE   N06
 BYTE   W06
 BYTE   N06
 BYTE   W06
 BYTE   N06
 BYTE   W06
 BYTE   En0
 BYTE   W06
 BYTE   N06
 BYTE   W06
 BYTE   N06
 BYTE   W06
 BYTE   N06
 BYTE   W06
 BYTE   Fn0
 BYTE   W06
 BYTE   N06
 BYTE   W06
 BYTE   N06
 BYTE   W06
 BYTE   N06
 BYTE   W06
// 001   ----------------------------------------
Label_0_0142CF16:
 BYTE   N06  Fs0  v127
 BYTE   W12
 BYTE   N05
 BYTE   W12
 BYTE   N06
 BYTE   W06
 BYTE   Fs0  v088
 BYTE   W06
 BYTE   Fs0  v127
 BYTE   W06
 BYTE   N06
 BYTE   W12
 BYTE   N05
 BYTE   W12
 BYTE   N06
 BYTE   W06
 BYTE   Fs0  v088
 BYTE   W06
 BYTE   Fs0  v127
 BYTE   W06
 BYTE   Gs0
 BYTE   W06
 BYTE   Gn1
 BYTE   W06
// 002   ----------------------------------------
 BYTE   Gs0
 BYTE   W06
 BYTE   Gs1
 BYTE   W06
 BYTE   Gs0
 BYTE   W06
 BYTE   An1
 BYTE   W06
 BYTE   Gs0
 BYTE   W06
 BYTE   N06
 BYTE   W06
 BYTE   Gn1
 BYTE   W06
 BYTE   Gs0
 BYTE   W06
 BYTE   Gs1
 BYTE   W06
 BYTE   Gs0
 BYTE   W06
 BYTE   An1
 BYTE   W06
 BYTE   Gs0
 BYTE   W06
 BYTE   An0
 BYTE   W06
 BYTE   Gn1
 BYTE   W06
 BYTE   Gs1
 BYTE   W06
 BYTE   An1
 BYTE   W06
// 003   ----------------------------------------
 BYTE   Gs1
 BYTE   W06
 BYTE   Gn1
 BYTE   W06
 BYTE   An0
 BYTE   W06
 BYTE   Gs0
 BYTE   W06
 BYTE   Gn0
 BYTE   W06
 BYTE   An0
 BYTE   W06
 BYTE   Gn1
 BYTE   W06
 BYTE   Gs1
 BYTE   W06
 BYTE   An1
 BYTE   W06
 BYTE   Gs1
 BYTE   W06
 BYTE   Gn1
 BYTE   W06
 BYTE   An0
 BYTE   W06
 BYTE   Gs0
 BYTE   W06
 BYTE   Gn0
 BYTE   W06
 BYTE   An0
 BYTE   W06
 BYTE   An1
 BYTE   W06
// 004   ----------------------------------------
 BYTE   An0
 BYTE   W06
 BYTE   An1
 BYTE   W06
 BYTE   An0
 BYTE   W06
 BYTE   An1
 BYTE   W06
 BYTE   An0
 BYTE   W06
 BYTE   An1
 BYTE   W06
 BYTE   An0
 BYTE   W06
 BYTE   An1
 BYTE   W06
 BYTE   An0
 BYTE   W06
 BYTE   An1
 BYTE   W06
 BYTE   N03  Bn0
 BYTE   W03
 BYTE   Cn1
 BYTE   W03
 BYTE   Dn1
 BYTE   W03
 BYTE   En1
 BYTE   W03
 BYTE   Fn1
 BYTE   W03
 BYTE   Cs1
 BYTE   W03
 BYTE   Dn1
 BYTE   W03
 BYTE   En1
 BYTE   W03
 BYTE   N06  An0
 BYTE   W06
 BYTE   An1
 BYTE   W06
// 005   ----------------------------------------
 BYTE   An0
 BYTE   W06
 BYTE   An1
 BYTE   W06
 BYTE   Gn0
 BYTE   W06
 BYTE   Gn1
 BYTE   W06
 BYTE   Gn0
 BYTE   W06
 BYTE   Gn1
 BYTE   W06
 BYTE   Fn0
 BYTE   W06
 BYTE   Fn1
 BYTE   W06
 BYTE   Fn0
 BYTE   W06
 BYTE   Fn1
 BYTE   W06
 BYTE   Fn0
 BYTE   W06
 BYTE   Fn1
 BYTE   W06
 BYTE   Fn0
 BYTE   W06
 BYTE   Fn1
 BYTE   W06
 BYTE   Dn0
 BYTE   W06
 BYTE   Dn1
 BYTE   W06
// 006   ----------------------------------------
 BYTE   Dn0
 BYTE   W06
 BYTE   Dn1
 BYTE   W06
 BYTE   Dn0
 BYTE   W06
 BYTE   Dn1
 BYTE   W06
 BYTE   Dn0
 BYTE   W06
 BYTE   Dn1
 BYTE   W06
 BYTE   En0
 BYTE   W06
 BYTE   En1
 BYTE   W06
 BYTE   En0
 BYTE   W06
 BYTE   En1
 BYTE   W06
 BYTE   En0
 BYTE   W06
 BYTE   En1
 BYTE   W06
 BYTE   En0
 BYTE   W06
 BYTE   En1
 BYTE   W06
 BYTE   Dn0
 BYTE   W06
 BYTE   Dn1
 BYTE   W06
// 007   ----------------------------------------
 BYTE   Dn0
 BYTE   W06
 BYTE   Dn1
 BYTE   W06
 BYTE   N03  Fn0
 BYTE   W03
 BYTE   Gs0
 BYTE   W03
 BYTE   Bn0
 BYTE   W03
 BYTE   Dn1
 BYTE   W03
 BYTE   Fn1
 BYTE   W03
 BYTE   Gs1
 BYTE   W03
 BYTE   Bn1
 BYTE   W03
 BYTE   Dn2
 BYTE   W03
 BYTE   N06  En0
 BYTE   W06
 BYTE   En1
 BYTE   W06
 BYTE   En0
 BYTE   W06
 BYTE   Dn1
 BYTE   W06
 BYTE   En0
 BYTE   W06
 BYTE   Cn1
 BYTE   W06
 BYTE   En0
 BYTE   W06
 BYTE   Bn0
 BYTE   W06
 BYTE   N23  As0
 BYTE   W12
// 008   ----------------------------------------
 BYTE   W12
 BYTE   Bn0
 BYTE   W24
 BYTE   Ds1
 BYTE   W24
 BYTE   Dn1
 BYTE   W24
 BYTE   N22  Cs1
 BYTE   W12
// 009   ----------------------------------------
 BYTE   W12
 BYTE   Dn1
 BYTE   W24
 BYTE   N24  As0
 BYTE   W24
 BYTE   N06  Bn0
 BYTE   W06
 BYTE   Bn1
 BYTE   W06
 BYTE   Bn0
 BYTE   W06
 BYTE   Cs1
 BYTE   W06
 BYTE   Dn1
 BYTE   W06
 BYTE   Ds1
 BYTE   W06
// 010   ----------------------------------------
 BYTE   Cs1
 BYTE   W06
 BYTE   Dn1
 BYTE   W06
 BYTE   Ds1
 BYTE   W06
 BYTE   Cs1
 BYTE   W06
 BYTE   Dn1
 BYTE   W06
 BYTE   Ds1
 BYTE   W06
 BYTE   En1
 BYTE   W06
 BYTE   Ds1
 BYTE   W06
 BYTE   Dn1
 BYTE   W06
 BYTE   Gs1
 BYTE   W06
 BYTE   Gn1
 BYTE   W06
 BYTE   Fs1
 BYTE   W06
 BYTE   Gn1
 BYTE   W06
 BYTE   Gs1
 BYTE   W06
 BYTE   Gn1
 BYTE   W06
 BYTE   An1
 BYTE   W06
// 011   ----------------------------------------
 BYTE   Gs1
 BYTE   W06
 BYTE   Gn1
 BYTE   W06
 BYTE   Gs1
 BYTE   W06
 BYTE   An1
 BYTE   W06
 BYTE   Gs1
 BYTE   W06
 BYTE   An0
 BYTE   W06
 BYTE   An1
 BYTE   W06
 BYTE   An0
 BYTE   W06
 BYTE   An1
 BYTE   W06
 BYTE   An0
 BYTE   W06
 BYTE   An1
 BYTE   W06
 BYTE   An0
 BYTE   W06
 BYTE   An1
 BYTE   W06
 BYTE   An0
 BYTE   W06
 BYTE   An1
 BYTE   W06
 BYTE   An0
 BYTE   W06
// 012   ----------------------------------------
 BYTE   An1
 BYTE   W06
 BYTE   N03  Bn0
 BYTE   W03
 BYTE   Cn1
 BYTE   W03
 BYTE   Dn1
 BYTE   W03
 BYTE   En1
 BYTE   W03
 BYTE   Fn1
 BYTE   W03
 BYTE   Cs1
 BYTE   W03
 BYTE   Dn1
 BYTE   W03
 BYTE   En1
 BYTE   W03
 BYTE   N06  An0
 BYTE   W06
 BYTE   An1
 BYTE   W06
 BYTE   An0
 BYTE   W06
 BYTE   An1
 BYTE   W06
 BYTE   Gn0
 BYTE   W06
 BYTE   Gn1
 BYTE   W06
 BYTE   Gn0
 BYTE   W06
 BYTE   Gn1
 BYTE   W06
 BYTE   Fn0
 BYTE   W06
 BYTE   Fn1
 BYTE   W06
 BYTE   Fn0
 BYTE   W06
// 013   ----------------------------------------
 BYTE   Fn1
 BYTE   W06
 BYTE   Fn0
 BYTE   W06
 BYTE   Fn1
 BYTE   W06
 BYTE   Fn0
 BYTE   W06
 BYTE   Fn1
 BYTE   W06
 BYTE   Dn0
 BYTE   W06
 BYTE   Dn1
 BYTE   W06
 BYTE   Dn0
 BYTE   W06
 BYTE   Dn1
 BYTE   W06
 BYTE   Dn0
 BYTE   W06
 BYTE   Dn1
 BYTE   W06
 BYTE   Dn0
 BYTE   W06
 BYTE   Dn1
 BYTE   W06
 BYTE   En0
 BYTE   W06
 BYTE   En1
 BYTE   W06
 BYTE   En0
 BYTE   W06
// 014   ----------------------------------------
 BYTE   En1
 BYTE   W06
 BYTE   En0
 BYTE   W06
 BYTE   En1
 BYTE   W06
 BYTE   En0
 BYTE   W06
 BYTE   En1
 BYTE   W06
 BYTE   Dn0
 BYTE   W06
 BYTE   Dn1
 BYTE   W06
 BYTE   Dn0
 BYTE   W06
 BYTE   Dn1
 BYTE   W06
 BYTE   N03  Fn0
 BYTE   W03
 BYTE   Gs0
 BYTE   W03
 BYTE   Bn0
 BYTE   W03
 BYTE   Dn1
 BYTE   W03
 BYTE   Fn1
 BYTE   W03
 BYTE   Gs1
 BYTE   W03
 BYTE   Bn1
 BYTE   W03
 BYTE   Dn2
 BYTE   W03
 BYTE   N06  En0
 BYTE   W06
 BYTE   En1
 BYTE   W06
 BYTE   En0
 BYTE   W06
// 015   ----------------------------------------
 BYTE   Dn1
 BYTE   W06
 BYTE   En0
 BYTE   W06
 BYTE   Cn1
 BYTE   W06
 BYTE   En0
 BYTE   W06
 BYTE   Bn0
 BYTE   W72
// 016   ----------------------------------------
 BYTE   W96
// 017   ----------------------------------------
 BYTE   W30
 BYTE   N17  An0
 BYTE   W18
 BYTE   N03
 BYTE   W03
 BYTE   Bn0
 BYTE   W03
 BYTE   N23  Cn1
 BYTE   W24
 BYTE   N07  Gn1
 BYTE   W08
 BYTE   Cs1
 BYTE   W08
 BYTE   Fs1
 BYTE   W02
// 018   ----------------------------------------
Label_0_0142D0F5:
 BYTE   W06
 BYTE   N07  Fn1  v127
 BYTE   W08
 BYTE   Cn1
 BYTE   W08
 BYTE   Bn0
 BYTE   W08
 BYTE   N23  Gs0
 BYTE   W24
 BYTE   Dn1
 BYTE   W24
 BYTE   N06  Cs1
 BYTE   W06
 BYTE   Gn0
 BYTE   W06
 BYTE   Fs0
 BYTE   W06
 BYTE   PEND 
// 019   ----------------------------------------
 BYTE   Fn0
 BYTE   W06
 BYTE   N03  An1
 BYTE   W03
 BYTE   Gs1
 BYTE   W03
 BYTE   Gn1
 BYTE   W03
 BYTE   Fs1
 BYTE   W03
 BYTE   En1
 BYTE   W03
 BYTE   Dn1
 BYTE   W03
 BYTE   Cs1
 BYTE   W03
 BYTE   Bn0
 BYTE   W03
 BYTE   N17  An0
 BYTE   W18
 BYTE   N03
 BYTE   W03
 BYTE   Bn0
 BYTE   W03
 BYTE   N23  Cn1
 BYTE   W24
 BYTE   N07  Gn1
 BYTE   W08
 BYTE   Cs1
 BYTE   W08
 BYTE   Fs1
 BYTE   W02
 BYTE   PATT
  POIN2 Label_0_0142D0F5
// 020   ----------------------------------------
 BYTE   N06  Fn0  v127
 BYTE   W06
 BYTE   N03  An1
 BYTE   W03
 BYTE   Gs1
 BYTE   W03
 BYTE   Gn1
 BYTE   W03
 BYTE   Fs1
 BYTE   W03
 BYTE   En1
 BYTE   W03
 BYTE   Dn1
 BYTE   W03
 BYTE   Cs1
 BYTE   W03
 BYTE   Bn0
 BYTE   W03
 BYTE   N11  En0
 BYTE   W12
 BYTE   N11
 BYTE   W12
 BYTE   N06
 BYTE   W06
 BYTE   N05  Fs1
 BYTE   W06
 BYTE   N11  En0
 BYTE   W12
 BYTE   N11
 BYTE   W12
 BYTE   N06
 BYTE   W06
// 021   ----------------------------------------
 BYTE   N05  Fn1
 BYTE   W06
 BYTE   N11  En0
 BYTE   W12
 BYTE   N11
 BYTE   W12
 BYTE   N06
 BYTE   W06
 BYTE   N05  Fs1
 BYTE   W06
 BYTE   N11  En0
 BYTE   W12
 BYTE   N11
 BYTE   W12
 BYTE   N06
 BYTE   W06
 BYTE   N05  Gn1
 BYTE   W06
 BYTE   N11  En0
 BYTE   W12
 BYTE   N11
 BYTE   W06
// 022   ----------------------------------------
 BYTE   W06
 BYTE   N06
 BYTE   W06
 BYTE   N05  Fs1
 BYTE   W06
 BYTE   N11  En0
 BYTE   W12
 BYTE   N11
 BYTE   W12
 BYTE   N06
 BYTE   W06
 BYTE   N05  Fn1
 BYTE   W06
 BYTE   N11  En0
 BYTE   W12
 BYTE   N11
 BYTE   W12
 BYTE   N06
 BYTE   W06
 BYTE   N05  Fs1
 BYTE   W06
 BYTE   N11  En0
 BYTE   W06
// 023   ----------------------------------------
 BYTE   W06
 BYTE   N11
 BYTE   W12
 BYTE   N06
 BYTE   W06
 BYTE   N05  Gn1
 BYTE   W06
 BYTE   N06  As0
 BYTE   W06
 BYTE   N06
 BYTE   W06
 BYTE   N06
 BYTE   W06
 BYTE   N06
 BYTE   W06
 BYTE   N06
 BYTE   W06
 BYTE   N06
 BYTE   W06
 BYTE   N06
 BYTE   W06
 BYTE   N06
 BYTE   W06
 BYTE   N06
 BYTE   W06
 BYTE   N06
 BYTE   W06
 BYTE   N06
 BYTE   W06
// 024   ----------------------------------------
Label_0_0142D1B2:
 BYTE   N06  As0  v127
 BYTE   W06
 BYTE   N06
 BYTE   W06
 BYTE   N06
 BYTE   W06
 BYTE   N06
 BYTE   W06
 BYTE   N06
 BYTE   W06
 BYTE   N06
 BYTE   W06
 BYTE   N06
 BYTE   W06
 BYTE   N06
 BYTE   W06
 BYTE   N06
 BYTE   W06
 BYTE   N06
 BYTE   W06
 BYTE   N06
 BYTE   W06
 BYTE   N06
 BYTE   W06
 BYTE   N06
 BYTE   W06
 BYTE   N06
 BYTE   W06
 BYTE   N06
 BYTE   W06
 BYTE   N06
 BYTE   W06
 BYTE   PEND 
 BYTE   PATT
  POIN2 Label_0_0142D1B2
// 025   ----------------------------------------
 BYTE   N06  As0  v127
 BYTE   W06
 BYTE   N06
 BYTE   W06
 BYTE   N06
 BYTE   W06
 BYTE   N06
 BYTE   W06
 BYTE   N06
 BYTE   W06
 BYTE   N06
 BYTE   W06
 BYTE   N06
 BYTE   W06
 BYTE   N06
 BYTE   W06
 BYTE   N06
 BYTE   W06
 BYTE   N06
 BYTE   W06
 BYTE   N06
 BYTE   W06
 BYTE   N06
 BYTE   W06
 BYTE   N06
 BYTE   W06
 BYTE   Fs0
 BYTE   W12
 BYTE   N05
 BYTE   W06
// 026   ----------------------------------------
 BYTE   W06
 BYTE   N06
 BYTE   W06
 BYTE   Fs0  v088
 BYTE   W06
 BYTE   Fs0  v127
 BYTE   W06
 BYTE   N06
 BYTE   W12
 BYTE   N05
 BYTE   W12
 BYTE   N06
 BYTE   W06
 BYTE   Fs0  v088
 BYTE   W06
 BYTE   Fs0  v127
 BYTE   W06
 BYTE   Gs0
 BYTE   W06
 BYTE   Gn1
 BYTE   W06
 BYTE   Gs0
 BYTE   W06
 BYTE   Gs1
 BYTE   W06
 BYTE   Gs0
 BYTE   W06
// 027   ----------------------------------------
 BYTE   An1
 BYTE   W06
 BYTE   Gs0
 BYTE   W06
 BYTE   N06
 BYTE   W06
 BYTE   Gn1
 BYTE   W06
 BYTE   Gs0
 BYTE   W06
 BYTE   Gs1
 BYTE   W06
 BYTE   Gs0
 BYTE   W06
 BYTE   An1
 BYTE   W06
 BYTE   Gs0
 BYTE   W06
 BYTE   An0
 BYTE   W06
 BYTE   Gn1
 BYTE   W06
 BYTE   Gs1
 BYTE   W06
 BYTE   An1
 BYTE   W06
 BYTE   Gs1
 BYTE   W06
 BYTE   Gn1
 BYTE   W06
 BYTE   An0
 BYTE   W06
// 028   ----------------------------------------
 BYTE   Gs0
 BYTE   W06
 BYTE   Gn0
 BYTE   W06
 BYTE   An0
 BYTE   W06
 BYTE   Gn1
 BYTE   W06
 BYTE   Gs1
 BYTE   W06
 BYTE   An1
 BYTE   W06
 BYTE   Gs1
 BYTE   W06
 BYTE   Gn1
 BYTE   W06
 BYTE   An0
 BYTE   W06
 BYTE   Gs0
 BYTE   W06
 BYTE   Gn0
 BYTE   W06
 BYTE   An0
 BYTE   W06
 BYTE   An1
 BYTE   W06
 BYTE   An0
 BYTE   W06
 BYTE   An1
 BYTE   W06
 BYTE   An0
 BYTE   W06
// 029   ----------------------------------------
 BYTE   An1
 BYTE   W06
 BYTE   An0
 BYTE   W06
 BYTE   An1
 BYTE   W06
 BYTE   An0
 BYTE   W06
 BYTE   An1
 BYTE   W06
 BYTE   An0
 BYTE   W06
 BYTE   An1
 BYTE   W06
 BYTE   N03  Bn0
 BYTE   W03
 BYTE   Cn1
 BYTE   W03
 BYTE   Dn1
 BYTE   W03
 BYTE   En1
 BYTE   W03
 BYTE   Fn1
 BYTE   W03
 BYTE   Cs1
 BYTE   W03
 BYTE   Dn1
 BYTE   W03
 BYTE   En1
 BYTE   W03
 BYTE   N06  An0
 BYTE   W06
 BYTE   An1
 BYTE   W06
 BYTE   An0
 BYTE   W06
 BYTE   An1
 BYTE   W06
 BYTE   Gn0
 BYTE   W06
// 030   ----------------------------------------
 BYTE   Gn1
 BYTE   W06
 BYTE   Gn0
 BYTE   W06
 BYTE   Gn1
 BYTE   W06
 BYTE   Fn0
 BYTE   W06
 BYTE   Fn1
 BYTE   W06
 BYTE   Fn0
 BYTE   W06
 BYTE   Fn1
 BYTE   W06
 BYTE   Fn0
 BYTE   W06
 BYTE   Fn1
 BYTE   W06
 BYTE   Fn0
 BYTE   W06
 BYTE   Fn1
 BYTE   W06
 BYTE   Dn0
 BYTE   W06
 BYTE   Dn1
 BYTE   W06
 BYTE   Dn0
 BYTE   W06
 BYTE   Dn1
 BYTE   W06
 BYTE   Dn0
 BYTE   W06
// 031   ----------------------------------------
 BYTE   Dn1
 BYTE   W06
 BYTE   Dn0
 BYTE   W06
 BYTE   Dn1
 BYTE   W06
 BYTE   En0
 BYTE   W06
 BYTE   En1
 BYTE   W06
 BYTE   En0
 BYTE   W06
 BYTE   En1
 BYTE   W06
 BYTE   En0
 BYTE   W06
 BYTE   En1
 BYTE   W06
 BYTE   En0
 BYTE   W06
 BYTE   En1
 BYTE   W06
 BYTE   Dn0
 BYTE   W06
 BYTE   Dn1
 BYTE   W06
 BYTE   Dn0
 BYTE   W06
 BYTE   Dn1
 BYTE   W06
 BYTE   N03  Fn0
 BYTE   W03
 BYTE   Gs0
 BYTE   W03
// 032   ----------------------------------------
 BYTE   Bn0
 BYTE   W03
 BYTE   Dn1
 BYTE   W03
 BYTE   Fn1
 BYTE   W03
 BYTE   Gs1
 BYTE   W03
 BYTE   Bn1
 BYTE   W03
 BYTE   Dn2
 BYTE   W03
 BYTE   N06  En0
 BYTE   W06
 BYTE   En1
 BYTE   W06
 BYTE   En0
 BYTE   W06
 BYTE   Dn1
 BYTE   W06
 BYTE   En0
 BYTE   W06
 BYTE   Cn1
 BYTE   W06
 BYTE   En0
 BYTE   W06
 BYTE   Bn0
 BYTE   W06
 BYTE   N23  As0
 BYTE   W24
 BYTE   Bn0
 BYTE   W06
// 033   ----------------------------------------
 BYTE   W18
 BYTE   Ds1
 BYTE   W24
 BYTE   Dn1
 BYTE   W24
 BYTE   N22  Cs1
 BYTE   W24
 BYTE   Dn1
 BYTE   W06
// 034   ----------------------------------------
 BYTE   W18
 BYTE   N24  As0
 BYTE   W24
 BYTE   N06  Bn0
 BYTE   W06
 BYTE   Bn1
 BYTE   W06
 BYTE   Bn0
 BYTE   W06
 BYTE   Cs1
 BYTE   W06
 BYTE   Dn1
 BYTE   W06
 BYTE   Ds1
 BYTE   W06
 BYTE   Cs1
 BYTE   W06
 BYTE   Dn1
 BYTE   W06
 BYTE   Ds1
 BYTE   W06
// 035   ----------------------------------------
 BYTE   Cs1
 BYTE   W06
 BYTE   Dn1
 BYTE   W06
 BYTE   Ds1
 BYTE   W06
 BYTE   En1
 BYTE   W06
 BYTE   Ds1
 BYTE   W06
 BYTE   Dn1
 BYTE   W06
 BYTE   Gs1
 BYTE   W06
 BYTE   Gn1
 BYTE   W06
 BYTE   Fs1
 BYTE   W06
 BYTE   Gn1
 BYTE   W06
 BYTE   Gs1
 BYTE   W06
 BYTE   Gn1
 BYTE   W06
 BYTE   An1
 BYTE   W06
 BYTE   Gs1
 BYTE   W06
 BYTE   Gn1
 BYTE   W06
 BYTE   Gs1
 BYTE   W06
// 036   ----------------------------------------
 BYTE   An1
 BYTE   W06
 BYTE   Gs1
 BYTE   W06
 BYTE   An0
 BYTE   W06
 BYTE   An1
 BYTE   W06
 BYTE   An0
 BYTE   W06
 BYTE   An1
 BYTE   W06
 BYTE   An0
 BYTE   W06
 BYTE   An1
 BYTE   W06
 BYTE   An0
 BYTE   W06
 BYTE   An1
 BYTE   W06
 BYTE   An0
 BYTE   W06
 BYTE   An1
 BYTE   W06
 BYTE   An0
 BYTE   W06
 BYTE   An1
 BYTE   W06
 BYTE   N03  Bn0
 BYTE   W03
 BYTE   Cn1
 BYTE   W03
 BYTE   Dn1
 BYTE   W03
 BYTE   En1
 BYTE   W03
// 037   ----------------------------------------
 BYTE   Fn1
 BYTE   W03
 BYTE   Cs1
 BYTE   W03
 BYTE   Dn1
 BYTE   W03
 BYTE   En1
 BYTE   W03
 BYTE   N06  An0
 BYTE   W06
 BYTE   An1
 BYTE   W06
 BYTE   An0
 BYTE   W06
 BYTE   An1
 BYTE   W06
 BYTE   Gn0
 BYTE   W06
 BYTE   Gn1
 BYTE   W06
 BYTE   Gn0
 BYTE   W06
 BYTE   Gn1
 BYTE   W06
 BYTE   Fn0
 BYTE   W06
 BYTE   Fn1
 BYTE   W06
 BYTE   Fn0
 BYTE   W06
 BYTE   Fn1
 BYTE   W06
 BYTE   Fn0
 BYTE   W06
 BYTE   Fn1
 BYTE   W06
// 038   ----------------------------------------
 BYTE   Fn0
 BYTE   W06
 BYTE   Fn1
 BYTE   W06
 BYTE   Dn0
 BYTE   W06
 BYTE   Dn1
 BYTE   W06
 BYTE   Dn0
 BYTE   W06
 BYTE   Dn1
 BYTE   W06
 BYTE   Dn0
 BYTE   W06
 BYTE   Dn1
 BYTE   W06
 BYTE   Dn0
 BYTE   W06
 BYTE   Dn1
 BYTE   W06
 BYTE   En0
 BYTE   W06
 BYTE   En1
 BYTE   W06
 BYTE   En0
 BYTE   W06
 BYTE   En1
 BYTE   W06
 BYTE   En0
 BYTE   W06
 BYTE   En1
 BYTE   W06
// 039   ----------------------------------------
 BYTE   En0
 BYTE   W06
 BYTE   En1
 BYTE   W06
 BYTE   Dn0
 BYTE   W06
 BYTE   Dn1
 BYTE   W06
 BYTE   Dn0
 BYTE   W06
 BYTE   Dn1
 BYTE   W06
 BYTE   N03  Fn0
 BYTE   W03
 BYTE   Gs0
 BYTE   W03
 BYTE   Bn0
 BYTE   W03
 BYTE   Dn1
 BYTE   W03
 BYTE   Fn1
 BYTE   W03
 BYTE   Gs1
 BYTE   W03
 BYTE   Bn1
 BYTE   W03
 BYTE   Dn2
 BYTE   W03
 BYTE   N06  En0
 BYTE   W06
 BYTE   En1
 BYTE   W06
 BYTE   En0
 BYTE   W06
 BYTE   Dn1
 BYTE   W06
 BYTE   En0
 BYTE   W06
 BYTE   Cn1
 BYTE   W06
// 040   ----------------------------------------
 BYTE   En0
 BYTE   W06
 BYTE   Bn0
 BYTE   W90
// 041   ----------------------------------------
 BYTE   W96
// 042   ----------------------------------------
 BYTE   W12
 BYTE   N17  An0
 BYTE   W18
 BYTE   N03
 BYTE   W03
 BYTE   Bn0
 BYTE   W03
 BYTE   N23  Cn1
 BYTE   W24
 BYTE   N07  Gn1
 BYTE   W08
 BYTE   Cs1
 BYTE   W08
 BYTE   Fs1
 BYTE   W08
 BYTE   Fn1
 BYTE   W08
 BYTE   Cn1
 BYTE   W04
// 043   ----------------------------------------
Label_0_0142D3D8:
 BYTE   W04
 BYTE   N07  Bn0  v127
 BYTE   W08
 BYTE   N23  Gs0
 BYTE   W24
 BYTE   Dn1
 BYTE   W24
 BYTE   N06  Cs1
 BYTE   W06
 BYTE   Gn0
 BYTE   W06
 BYTE   Fs0
 BYTE   W06
 BYTE   Fn0
 BYTE   W06
 BYTE   N03  An1
 BYTE   W03
 BYTE   Gs1
 BYTE   W03
 BYTE   Gn1
 BYTE   W03
 BYTE   Fs1
 BYTE   W03
 BYTE   PEND 
// 044   ----------------------------------------
 BYTE   En1
 BYTE   W03
 BYTE   Dn1
 BYTE   W03
 BYTE   Cs1
 BYTE   W03
 BYTE   Bn0
 BYTE   W03
 BYTE   N17  An0
 BYTE   W18
 BYTE   N03
 BYTE   W03
 BYTE   Bn0
 BYTE   W03
 BYTE   N23  Cn1
 BYTE   W24
 BYTE   N07  Gn1
 BYTE   W08
 BYTE   Cs1
 BYTE   W08
 BYTE   Fs1
 BYTE   W08
 BYTE   Fn1
 BYTE   W08
 BYTE   Cn1
 BYTE   W04
 BYTE   PATT
  POIN2 Label_0_0142D3D8
// 045   ----------------------------------------
 BYTE   N03  En1  v127
 BYTE   W03
 BYTE   Dn1
 BYTE   W03
 BYTE   Cs1
 BYTE   W03
 BYTE   Bn0
 BYTE   W03
 BYTE   N11  En0
 BYTE   W12
 BYTE   N11
 BYTE   W12
 BYTE   N06
 BYTE   W06
 BYTE   N05  Fs1
 BYTE   W06
 BYTE   N11  En0
 BYTE   W12
 BYTE   N11
 BYTE   W12
 BYTE   N06
 BYTE   W06
 BYTE   N05  Fn1
 BYTE   W06
 BYTE   N11  En0
 BYTE   W12
// 046   ----------------------------------------
 BYTE   N11
 BYTE   W12
 BYTE   N06
 BYTE   W06
 BYTE   N05  Fs1
 BYTE   W06
 BYTE   N11  En0
 BYTE   W12
 BYTE   N11
 BYTE   W12
 BYTE   N06
 BYTE   W06
 BYTE   N05  Gn1
 BYTE   W06
 BYTE   N11  En0
 BYTE   W12
 BYTE   N11
 BYTE   W12
 BYTE   N06
 BYTE   W06
 BYTE   N05  Fs1
 BYTE   W06
// 047   ----------------------------------------
 BYTE   N11  En0
 BYTE   W12
 BYTE   N11
 BYTE   W12
 BYTE   N06
 BYTE   W06
 BYTE   N05  Fn1
 BYTE   W06
 BYTE   N11  En0
 BYTE   W12
 BYTE   N11
 BYTE   W12
 BYTE   N06
 BYTE   W06
 BYTE   N05  Fs1
 BYTE   W06
 BYTE   N11  En0
 BYTE   W12
 BYTE   N11
 BYTE   W12
// 048   ----------------------------------------
 BYTE   N06
 BYTE   W06
 BYTE   N05  Gn1
 BYTE   W06
 BYTE   N06  As0
 BYTE   W06
 BYTE   N06
 BYTE   W06
 BYTE   N06
 BYTE   W06
 BYTE   N06
 BYTE   W06
 BYTE   N06
 BYTE   W06
 BYTE   N06
 BYTE   W06
 BYTE   N06
 BYTE   W06
 BYTE   N06
 BYTE   W06
 BYTE   N06
 BYTE   W06
 BYTE   N06
 BYTE   W06
 BYTE   N06
 BYTE   W06
 BYTE   N06
 BYTE   W06
 BYTE   N06
 BYTE   W06
 BYTE   N06
 BYTE   W06
 BYTE   PATT
  POIN2 Label_0_0142D1B2
 BYTE   PATT
  POIN2 Label_0_0142D1B2
// 049   ----------------------------------------
 BYTE   N06  As0  v127
 BYTE   W06
 BYTE   N06
 BYTE   W06
 BYTE   N06
 BYTE   W06
 BYTE   N06
 BYTE   W06
 BYTE   N06
 BYTE   W06
 BYTE   N06
 BYTE   W06
 BYTE   N06
 BYTE   W06
 BYTE   N06
 BYTE   W06
 BYTE   N06
 BYTE   W06
 BYTE   N06
 BYTE   W06
 BYTE   GoTo
  POIN2 Label_0_0142CF16
 BYTE   FINE

//**************** Track 2 (Midi-Chn.1) ****************//

GoldenSunFusionDragonBattleMrGreen3339_002:
// 000   ----------------------------------------
 BYTE   VOL   57*GoldenSunFusionDragonBattleMrGreen3339_mvl/mxv
 BYTE   KEYSH   GoldenSunFusionDragonBattleMrGreen3339_key+0
 BYTE   VOICE   52
 BYTE   N21  As2  v127
 BYTE   N20  En3
 BYTE   W24
 BYTE   N22  Bn2
 BYTE   N21  Fn3
 BYTE   W24
 BYTE   N22  Cn3
 BYTE   N21  Fs3
 BYTE   W24
 BYTE   Cs3
 BYTE   N21  Gn3
 BYTE   W24
// 001   ----------------------------------------
Label_1_0142D4CE:
 BYTE   W96
// 002   ----------------------------------------
 BYTE   W96
// 003   ----------------------------------------
 BYTE   W96
// 004   ----------------------------------------
 BYTE   W96
// 005   ----------------------------------------
 BYTE   W96
// 006   ----------------------------------------
 BYTE   W96
// 007   ----------------------------------------
 BYTE   W96
// 008   ----------------------------------------
 BYTE   W96
// 009   ----------------------------------------
 BYTE   W96
// 010   ----------------------------------------
 BYTE   W96
// 011   ----------------------------------------
 BYTE   W96
// 012   ----------------------------------------
 BYTE   W96
// 013   ----------------------------------------
 BYTE   W96
// 014   ----------------------------------------
 BYTE   W96
// 015   ----------------------------------------
 BYTE   W96
// 016   ----------------------------------------
 BYTE   W96
// 017   ----------------------------------------
 BYTE   W96
// 018   ----------------------------------------
 BYTE   W96
// 019   ----------------------------------------
 BYTE   W30
 BYTE   N44  An2  v127
 BYTE   N44  Ds3
 BYTE   W48
 BYTE   As2
 BYTE   N48  En3
 BYTE   W18
// 020   ----------------------------------------
 BYTE   W30
 BYTE   N44  Gs2
 BYTE   N44  Dn3
 BYTE   W48
 BYTE   As2
 BYTE   N48  En3
 BYTE   W18
// 021   ----------------------------------------
 BYTE   W30
 BYTE   TIE  En2
 BYTE   W66
// 022   ----------------------------------------
 BYTE   W96
// 023   ----------------------------------------
 BYTE   W96
// 024   ----------------------------------------
 BYTE   W30
 BYTE   EOT
 BYTE   W66
// 025   ----------------------------------------
 BYTE   W96
// 026   ----------------------------------------
 BYTE   W96
// 027   ----------------------------------------
 BYTE   W96
// 028   ----------------------------------------
 BYTE   W96
// 029   ----------------------------------------
 BYTE   W96
// 030   ----------------------------------------
 BYTE   W96
// 031   ----------------------------------------
 BYTE   W96
// 032   ----------------------------------------
 BYTE   W96
// 033   ----------------------------------------
 BYTE   W96
// 034   ----------------------------------------
 BYTE   W96
// 035   ----------------------------------------
 BYTE   W96
// 036   ----------------------------------------
 BYTE   W96
// 037   ----------------------------------------
 BYTE   W96
// 038   ----------------------------------------
 BYTE   W96
// 039   ----------------------------------------
 BYTE   W96
// 040   ----------------------------------------
 BYTE   W96
// 041   ----------------------------------------
 BYTE   W96
// 042   ----------------------------------------
 BYTE   W96
// 043   ----------------------------------------
 BYTE   W96
// 044   ----------------------------------------
 BYTE   W96
// 045   ----------------------------------------
 BYTE   W96
// 046   ----------------------------------------
 BYTE   W12
 BYTE   N44  An2
 BYTE   N44  Ds3
 BYTE   W48
 BYTE   As2
 BYTE   N48  En3
 BYTE   W36
// 047   ----------------------------------------
 BYTE   W12
 BYTE   N44  Gs2
 BYTE   N44  Dn3
 BYTE   W48
 BYTE   As2
 BYTE   N48  En3
 BYTE   W36
// 048   ----------------------------------------
 BYTE   W12
 BYTE   TIE  En2
 BYTE   W84
// 049   ----------------------------------------
 BYTE   W96
// 050   ----------------------------------------
 BYTE   W96
// 051   ----------------------------------------
 BYTE   W12
 BYTE   EOT
 BYTE   W84
// 052   ----------------------------------------
 BYTE   W96
// 053   ----------------------------------------
 BYTE   W96
// 054   ----------------------------------------
 BYTE   W60
 BYTE   GoTo
  POIN2 Label_1_0142D4CE
 BYTE   FINE

//**************** Track 3 (Midi-Chn.2) ****************//

GoldenSunFusionDragonBattleMrGreen3339_003:
// 000   ----------------------------------------
 BYTE   VOL   57*GoldenSunFusionDragonBattleMrGreen3339_mvl/mxv
 BYTE   KEYSH   GoldenSunFusionDragonBattleMrGreen3339_key+0
 BYTE   VOICE   48
 BYTE   PAN   c_v+33
 BYTE   N22  As1  v088
 BYTE   W24
 BYTE   Bn1
 BYTE   W24
 BYTE   N23  Cn2
 BYTE   W24
 BYTE   N22  Cs2
 BYTE   W24
// 001   ----------------------------------------
Label_2_0142D550:
 BYTE   N23  As3  v127
 BYTE   N23  En4
 BYTE   W24
 BYTE   N16  An3
 BYTE   N18  Ds4
 BYTE   W18
 BYTE   N24  As3
 BYTE   N22  En4
 BYTE   W24
 BYTE   N16  Bn3
 BYTE   N17  Fn4
 BYTE   W18
 BYTE   N06  Cn4
 BYTE   N06  Fs4
 BYTE   W06
 BYTE   Cn4
 BYTE   N06  Fs4
 BYTE   W06
// 002   ----------------------------------------
 BYTE   Cn4
 BYTE   N06  Fs4
 BYTE   W06
 BYTE   Cn4
 BYTE   N06  Fs4
 BYTE   W06
 BYTE   Cn4
 BYTE   N06  Fs4
 BYTE   W06
 BYTE   Cn4
 BYTE   N06  Fs4
 BYTE   W06
 BYTE   Cn4
 BYTE   N06  Fs4
 BYTE   W06
 BYTE   Cs4
 BYTE   N06  Gn4
 BYTE   W06
 BYTE   Cs4
 BYTE   N06  Gn4
 BYTE   W06
 BYTE   Cs4
 BYTE   N06  Gn4
 BYTE   W06
 BYTE   Cs4
 BYTE   N06  Gn4
 BYTE   W06
 BYTE   Cs4
 BYTE   N06  Gn4
 BYTE   W06
 BYTE   Cs4
 BYTE   N06  Gn4
 BYTE   W06
 BYTE   Cs4
 BYTE   N06  Gn4
 BYTE   W06
 BYTE   Dn4
 BYTE   W06
 BYTE   Cs4
 BYTE   W12
 BYTE   Dn4
 BYTE   W06
// 003   ----------------------------------------
 BYTE   Cs4
 BYTE   W12
 BYTE   Dn4
 BYTE   W06
 BYTE   Cs4
 BYTE   W06
 BYTE   Cn4
 BYTE   W06
 BYTE   En4
 BYTE   W06
 BYTE   Ds4
 BYTE   W12
 BYTE   En4
 BYTE   W06
 BYTE   Ds4
 BYTE   W12
 BYTE   En4
 BYTE   W06
 BYTE   Ds4
 BYTE   W06
 BYTE   Dn4
 BYTE   W06
 BYTE   N23  En3
 BYTE   W12
// 004   ----------------------------------------
 BYTE   W12
 BYTE   N11
 BYTE   W12
 BYTE   N06  Dn3
 BYTE   W06
 BYTE   Cn3
 BYTE   W06
 BYTE   N12  Dn3
 BYTE   W12
 BYTE   N11  As2
 BYTE   W12
 BYTE   N10  Cs3
 BYTE   W12
 BYTE   N11  Dn3
 BYTE   W12
 BYTE   N23  En3
 BYTE   W12
// 005   ----------------------------------------
 BYTE   W12
 BYTE   N11  Dn3
 BYTE   W12
 BYTE   En3
 BYTE   W12
 BYTE   N36  Cn3
 BYTE   W36
 BYTE   N06  Bn2
 BYTE   W06
 BYTE   An2
 BYTE   W06
 BYTE   N22
 BYTE   W12
// 006   ----------------------------------------
 BYTE   W12
 BYTE   N11  Bn2
 BYTE   W12
 BYTE   Cn3
 BYTE   W12
 BYTE   N23  Dn3
 BYTE   W24
 BYTE   Bn2
 BYTE   W24
 BYTE   An2
 BYTE   W12
// 007   ----------------------------------------
 BYTE   W12
 BYTE   N11  Gs2
 BYTE   W12
 BYTE   N06  Bn2
 BYTE   W06
 BYTE   Dn3
 BYTE   W06
 BYTE   N11  Bn2
 BYTE   W12
 BYTE   N11
 BYTE   W12
 BYTE   N12  Gs2
 BYTE   W12
 BYTE   N10
 BYTE   W12
 BYTE   N06  En3
 BYTE   W06
 BYTE   Dn3
 BYTE   W06
// 008   ----------------------------------------
Label_2_0142D609:
 BYTE   N06  Ds3  v127
 BYTE   W06
 BYTE   En3
 BYTE   W06
 BYTE   Dn3
 BYTE   W06
 BYTE   Ds3
 BYTE   W06
 BYTE   En3
 BYTE   W06
 BYTE   Dn3
 BYTE   W06
 BYTE   Ds3
 BYTE   W06
 BYTE   En3
 BYTE   W06
 BYTE   Dn3
 BYTE   W06
 BYTE   Ds3
 BYTE   W06
 BYTE   En3
 BYTE   W06
 BYTE   Dn3
 BYTE   W06
 BYTE   Ds3
 BYTE   W06
 BYTE   En3
 BYTE   W06
 BYTE   Dn3
 BYTE   W06
 BYTE   Ds3
 BYTE   W06
 BYTE   PEND 
// 009   ----------------------------------------
 BYTE   En3
 BYTE   W06
 BYTE   Dn3
 BYTE   W06
 BYTE   Ds3
 BYTE   W06
 BYTE   En3
 BYTE   W06
 BYTE   Dn3
 BYTE   W06
 BYTE   Ds3
 BYTE   W06
 BYTE   En3
 BYTE   W06
 BYTE   Dn3
 BYTE   W06
 BYTE   Ds3
 BYTE   W06
 BYTE   N05  En3
 BYTE   W06
 BYTE   N06  Dn3
 BYTE   W06
 BYTE   Ds3
 BYTE   W06
 BYTE   En3
 BYTE   W06
 BYTE   Ds3
 BYTE   W06
 BYTE   Cs3
 BYTE   W06
 BYTE   An3
 BYTE   W06
// 010   ----------------------------------------
 BYTE   Fn3
 BYTE   W06
 BYTE   Ds3
 BYTE   W06
 BYTE   Dn3
 BYTE   W06
 BYTE   Cs3
 BYTE   W06
 BYTE   Dn3
 BYTE   W06
 BYTE   Ds3
 BYTE   W06
 BYTE   Dn3
 BYTE   W06
 BYTE   Ds3
 BYTE   W06
 BYTE   En3
 BYTE   W06
 BYTE   Ds3
 BYTE   W06
 BYTE   Cs3
 BYTE   W06
 BYTE   An3
 BYTE   W06
 BYTE   Fn3
 BYTE   W06
 BYTE   Ds3
 BYTE   W06
 BYTE   Dn3
 BYTE   W06
 BYTE   Cs3
 BYTE   W06
// 011   ----------------------------------------
 BYTE   Dn3
 BYTE   W06
 BYTE   Ds3
 BYTE   W06
 BYTE   Dn3
 BYTE   W06
 BYTE   Cs3
 BYTE   W06
 BYTE   Dn3
 BYTE   W06
 BYTE   N23  En3
 BYTE   W24
 BYTE   N11
 BYTE   W12
 BYTE   N06  Dn3
 BYTE   W06
 BYTE   Cn3
 BYTE   W06
 BYTE   N12  Dn3
 BYTE   W12
 BYTE   N11  As2
 BYTE   W06
// 012   ----------------------------------------
 BYTE   W06
 BYTE   N10  Cs3
 BYTE   W12
 BYTE   N11  Dn3
 BYTE   W12
 BYTE   N23  En3
 BYTE   W24
 BYTE   N11  Dn3
 BYTE   W12
 BYTE   En3
 BYTE   W12
 BYTE   N36  Cn3
 BYTE   W18
// 013   ----------------------------------------
 BYTE   W18
 BYTE   N06  Bn2
 BYTE   W06
 BYTE   An2
 BYTE   W06
 BYTE   N22
 BYTE   W24
 BYTE   N11  Bn2
 BYTE   W12
 BYTE   Cn3
 BYTE   W12
 BYTE   N23  Dn3
 BYTE   W18
// 014   ----------------------------------------
 BYTE   W06
 BYTE   Bn2
 BYTE   W24
 BYTE   An2
 BYTE   W24
 BYTE   N11  Gs2
 BYTE   W12
 BYTE   N06  Bn2
 BYTE   W06
 BYTE   Dn3
 BYTE   W06
 BYTE   N11  Bn2
 BYTE   W12
 BYTE   N11
 BYTE   W06
// 015   ----------------------------------------
 BYTE   W06
 BYTE   N12  Gs2
 BYTE   W12
 BYTE   N10
 BYTE   W12
 BYTE   N03  Bn3
 BYTE   W03
 BYTE   N03
 BYTE   W03
 BYTE   N03
 BYTE   W03
 BYTE   N03
 BYTE   W03
 BYTE   N03
 BYTE   W03
 BYTE   N03
 BYTE   W03
 BYTE   N03
 BYTE   W03
 BYTE   N03
 BYTE   W03
 BYTE   N03
 BYTE   W03
 BYTE   N03
 BYTE   W03
 BYTE   N03
 BYTE   W03
 BYTE   N03
 BYTE   W03
 BYTE   N03
 BYTE   W03
 BYTE   N03
 BYTE   W03
 BYTE   N03
 BYTE   W03
 BYTE   N03
 BYTE   W03
 BYTE   An3
 BYTE   W03
 BYTE   N03
 BYTE   W03
 BYTE   N03
 BYTE   W03
 BYTE   N03
 BYTE   W03
 BYTE   N03
 BYTE   W03
 BYTE   N03
 BYTE   W03
// 016   ----------------------------------------
 BYTE   N03
 BYTE   W03
 BYTE   N03
 BYTE   W03
 BYTE   N03
 BYTE   W03
 BYTE   N03
 BYTE   W03
 BYTE   N03
 BYTE   W03
 BYTE   N03
 BYTE   W03
 BYTE   N03
 BYTE   W03
 BYTE   N03
 BYTE   W03
 BYTE   N03
 BYTE   W03
 BYTE   N03
 BYTE   W03
 BYTE   Gs3
 BYTE   W03
 BYTE   N03
 BYTE   W03
 BYTE   N03
 BYTE   W03
 BYTE   N03
 BYTE   W03
 BYTE   N03
 BYTE   W03
 BYTE   N03
 BYTE   W03
 BYTE   N03
 BYTE   W03
 BYTE   N03
 BYTE   W03
 BYTE   N03
 BYTE   W03
 BYTE   N03
 BYTE   W03
 BYTE   N03
 BYTE   W03
 BYTE   N03
 BYTE   W03
 BYTE   N03
 BYTE   W03
 BYTE   N03
 BYTE   W03
 BYTE   N03
 BYTE   W03
 BYTE   N03
 BYTE   W03
 BYTE   Gn3
 BYTE   W03
 BYTE   N03
 BYTE   W03
 BYTE   N03
 BYTE   W03
 BYTE   N03
 BYTE   W03
 BYTE   N03
 BYTE   W03
 BYTE   N03
 BYTE   W03
// 017   ----------------------------------------
 BYTE   N03
 BYTE   W03
 BYTE   N03
 BYTE   W03
 BYTE   N03
 BYTE   W03
 BYTE   N03
 BYTE   W03
 BYTE   N03
 BYTE   W03
 BYTE   N03
 BYTE   W03
 BYTE   N03
 BYTE   W03
 BYTE   N03
 BYTE   W03
 BYTE   N03
 BYTE   W03
 BYTE   N03
 BYTE   W03
 BYTE   Bn3
 BYTE   N03  En4
 BYTE   W06
 BYTE   Bn3
 BYTE   N03  En4
 BYTE   W06
 BYTE   Bn3
 BYTE   N03  En4
 BYTE   W06
 BYTE   Bn3
 BYTE   N03  En4
 BYTE   W06
 BYTE   Bn3
 BYTE   N03  En4
 BYTE   W06
 BYTE   Bn3
 BYTE   N03  En4
 BYTE   W06
 BYTE   Bn3
 BYTE   N03  En4
 BYTE   W06
 BYTE   Bn3
 BYTE   N03  En4
 BYTE   W06
 BYTE   As3
 BYTE   N03  Ds4
 BYTE   W06
 BYTE   As3
 BYTE   N03  Ds4
 BYTE   W06
 BYTE   As3
 BYTE   N03  Ds4
 BYTE   W06
// 018   ----------------------------------------
Label_2_0142D76F:
 BYTE   N03  As3  v127
 BYTE   N03  Ds4
 BYTE   W06
 BYTE   As3
 BYTE   N03  Ds4
 BYTE   W06
 BYTE   As3
 BYTE   N03  Ds4
 BYTE   W06
 BYTE   As3
 BYTE   N03  Ds4
 BYTE   W06
 BYTE   As3
 BYTE   N03  Ds4
 BYTE   W06
 BYTE   Gs3
 BYTE   N03  Cs4
 BYTE   W06
 BYTE   Gs3
 BYTE   N03  Cs4
 BYTE   W06
 BYTE   Gs3
 BYTE   N03  Cs4
 BYTE   W06
 BYTE   Gs3
 BYTE   N03  Cs4
 BYTE   W06
 BYTE   Gs3
 BYTE   N03  Cs4
 BYTE   W06
 BYTE   Gs3
 BYTE   N03  Cs4
 BYTE   W06
 BYTE   Gs3
 BYTE   N03  Cs4
 BYTE   W06
 BYTE   Gs3
 BYTE   N03  Cs4
 BYTE   W06
 BYTE   Gn3
 BYTE   N03  Cn4
 BYTE   W06
 BYTE   Gn3
 BYTE   N03  Cn4
 BYTE   W06
 BYTE   Gn3
 BYTE   N03  Cn4
 BYTE   W06
 BYTE   PEND 
// 019   ----------------------------------------
 BYTE   Gn3
 BYTE   N03  Cn4
 BYTE   W06
 BYTE   Gn3
 BYTE   N03  Cn4
 BYTE   W06
 BYTE   Gn3
 BYTE   N03  Cn4
 BYTE   W06
 BYTE   Gn3
 BYTE   N03  Cn4
 BYTE   W06
 BYTE   Gn3
 BYTE   N03  Cn4
 BYTE   W06
 BYTE   Bn3
 BYTE   N03  En4
 BYTE   W06
 BYTE   Bn3
 BYTE   N03  En4
 BYTE   W06
 BYTE   Bn3
 BYTE   N03  En4
 BYTE   W06
 BYTE   Bn3
 BYTE   N03  En4
 BYTE   W06
 BYTE   Bn3
 BYTE   N03  En4
 BYTE   W06
 BYTE   Bn3
 BYTE   N03  En4
 BYTE   W06
 BYTE   Bn3
 BYTE   N03  En4
 BYTE   W06
 BYTE   Bn3
 BYTE   N03  En4
 BYTE   W06
 BYTE   As3
 BYTE   N03  Ds4
 BYTE   W06
 BYTE   As3
 BYTE   N03  Ds4
 BYTE   W06
 BYTE   As3
 BYTE   N03  Ds4
 BYTE   W06
 BYTE   PATT
  POIN2 Label_2_0142D76F
// 020   ----------------------------------------
 BYTE   N03  Gn3  v127
 BYTE   N03  Cn4
 BYTE   W06
 BYTE   Gn3
 BYTE   N03  Cn4
 BYTE   W06
 BYTE   Gn3
 BYTE   N03  Cn4
 BYTE   W06
 BYTE   Gn3
 BYTE   N03  Cn4
 BYTE   W06
 BYTE   Gn3
 BYTE   N03  Cn4
 BYTE   W72
// 021   ----------------------------------------
 BYTE   W96
// 022   ----------------------------------------
 BYTE   W96
// 023   ----------------------------------------
 BYTE   W30
 BYTE   N40  Gn2
 BYTE   W42
 BYTE   An2
 BYTE   W24
// 024   ----------------------------------------
 BYTE   W18
 BYTE   As2
 BYTE   W42
 BYTE   Cn3
 BYTE   W36
// 025   ----------------------------------------
 BYTE   W06
 BYTE   N40
 BYTE   N40  Fs3
 BYTE   W42
 BYTE   N42  Dn3
 BYTE   N40  Gs3
 BYTE   W42
 BYTE   En3
 BYTE   N40  As3
 BYTE   W06
// 026   ----------------------------------------
 BYTE   W36
 BYTE   Fs3
 BYTE   N40  Cn4
 BYTE   W42
 BYTE   PAN   c_v+33
 BYTE   N23  As3
 BYTE   N23  En4
 BYTE   W18
// 027   ----------------------------------------
 BYTE   W06
 BYTE   N16  An3
 BYTE   N18  Ds4
 BYTE   W18
 BYTE   N24  As3
 BYTE   N22  En4
 BYTE   W24
 BYTE   N16  Bn3
 BYTE   N17  Fn4
 BYTE   W18
 BYTE   N06  Cn4
 BYTE   N06  Fs4
 BYTE   W06
 BYTE   Cn4
 BYTE   N06  Fs4
 BYTE   W06
 BYTE   Cn4
 BYTE   N06  Fs4
 BYTE   W06
 BYTE   Cn4
 BYTE   N06  Fs4
 BYTE   W06
 BYTE   Cn4
 BYTE   N06  Fs4
 BYTE   W06
// 028   ----------------------------------------
 BYTE   Cn4
 BYTE   N06  Fs4
 BYTE   W06
 BYTE   Cn4
 BYTE   N06  Fs4
 BYTE   W06
 BYTE   Cs4
 BYTE   N06  Gn4
 BYTE   W06
 BYTE   Cs4
 BYTE   N06  Gn4
 BYTE   W06
 BYTE   Cs4
 BYTE   N06  Gn4
 BYTE   W06
 BYTE   Cs4
 BYTE   N06  Gn4
 BYTE   W06
 BYTE   Cs4
 BYTE   N06  Gn4
 BYTE   W06
 BYTE   Cs4
 BYTE   N06  Gn4
 BYTE   W06
 BYTE   Cs4
 BYTE   N06  Gn4
 BYTE   W06
 BYTE   Dn4
 BYTE   W06
 BYTE   Cs4
 BYTE   W12
 BYTE   Dn4
 BYTE   W06
 BYTE   Cs4
 BYTE   W12
 BYTE   Dn4
 BYTE   W06
// 029   ----------------------------------------
 BYTE   Cs4
 BYTE   W06
 BYTE   Cn4
 BYTE   W06
 BYTE   En4
 BYTE   W06
 BYTE   Ds4
 BYTE   W12
 BYTE   En4
 BYTE   W06
 BYTE   Ds4
 BYTE   W12
 BYTE   En4
 BYTE   W06
 BYTE   Ds4
 BYTE   W06
 BYTE   Dn4
 BYTE   W06
 BYTE   N23  En3
 BYTE   W24
 BYTE   N11
 BYTE   W06
// 030   ----------------------------------------
 BYTE   W06
 BYTE   N06  Dn3
 BYTE   W06
 BYTE   Cn3
 BYTE   W06
 BYTE   N12  Dn3
 BYTE   W12
 BYTE   N11  As2
 BYTE   W12
 BYTE   N10  Cs3
 BYTE   W12
 BYTE   N11  Dn3
 BYTE   W12
 BYTE   N23  En3
 BYTE   W24
 BYTE   N11  Dn3
 BYTE   W06
// 031   ----------------------------------------
 BYTE   W06
 BYTE   En3
 BYTE   W12
 BYTE   N36  Cn3
 BYTE   W36
 BYTE   N06  Bn2
 BYTE   W06
 BYTE   An2
 BYTE   W06
 BYTE   N22
 BYTE   W24
 BYTE   N11  Bn2
 BYTE   W06
// 032   ----------------------------------------
 BYTE   W06
 BYTE   Cn3
 BYTE   W12
 BYTE   N23  Dn3
 BYTE   W24
 BYTE   Bn2
 BYTE   W24
 BYTE   An2
 BYTE   W24
 BYTE   N11  Gs2
 BYTE   W06
// 033   ----------------------------------------
 BYTE   W06
 BYTE   N06  Bn2
 BYTE   W06
 BYTE   Dn3
 BYTE   W06
 BYTE   N11  Bn2
 BYTE   W12
 BYTE   N11
 BYTE   W12
 BYTE   N12  Gs2
 BYTE   W12
 BYTE   N10
 BYTE   W12
 BYTE   N06  En3
 BYTE   W06
 BYTE   Dn3
 BYTE   W06
 BYTE   Ds3
 BYTE   W06
 BYTE   En3
 BYTE   W06
 BYTE   Dn3
 BYTE   W06
 BYTE   PATT
  POIN2 Label_2_0142D609
// 034   ----------------------------------------
 BYTE   N06  En3  v127
 BYTE   W06
 BYTE   Dn3
 BYTE   W06
 BYTE   Ds3
 BYTE   W06
 BYTE   En3
 BYTE   W06
 BYTE   Dn3
 BYTE   W06
 BYTE   Ds3
 BYTE   W06
 BYTE   N05  En3
 BYTE   W06
 BYTE   N06  Dn3
 BYTE   W06
 BYTE   Ds3
 BYTE   W06
 BYTE   En3
 BYTE   W06
 BYTE   Ds3
 BYTE   W06
 BYTE   Cs3
 BYTE   W06
 BYTE   An3
 BYTE   W06
 BYTE   Fn3
 BYTE   W06
 BYTE   Ds3
 BYTE   W06
 BYTE   Dn3
 BYTE   W06
// 035   ----------------------------------------
 BYTE   Cs3
 BYTE   W06
 BYTE   Dn3
 BYTE   W06
 BYTE   Ds3
 BYTE   W06
 BYTE   Dn3
 BYTE   W06
 BYTE   Ds3
 BYTE   W06
 BYTE   En3
 BYTE   W06
 BYTE   Ds3
 BYTE   W06
 BYTE   Cs3
 BYTE   W06
 BYTE   An3
 BYTE   W06
 BYTE   Fn3
 BYTE   W06
 BYTE   Ds3
 BYTE   W06
 BYTE   Dn3
 BYTE   W06
 BYTE   Cs3
 BYTE   W06
 BYTE   Dn3
 BYTE   W06
 BYTE   Ds3
 BYTE   W06
 BYTE   Dn3
 BYTE   W06
// 036   ----------------------------------------
 BYTE   Cs3
 BYTE   W06
 BYTE   Dn3
 BYTE   W06
 BYTE   N23  En3
 BYTE   W24
 BYTE   N11
 BYTE   W12
 BYTE   N06  Dn3
 BYTE   W06
 BYTE   Cn3
 BYTE   W06
 BYTE   N12  Dn3
 BYTE   W12
 BYTE   N11  As2
 BYTE   W12
 BYTE   N10  Cs3
 BYTE   W12
// 037   ----------------------------------------
 BYTE   N11  Dn3
 BYTE   W12
 BYTE   N23  En3
 BYTE   W24
 BYTE   N11  Dn3
 BYTE   W12
 BYTE   En3
 BYTE   W12
 BYTE   N36  Cn3
 BYTE   W36
// 038   ----------------------------------------
 BYTE   N06  Bn2
 BYTE   W06
 BYTE   An2
 BYTE   W06
 BYTE   N22
 BYTE   W24
 BYTE   N11  Bn2
 BYTE   W12
 BYTE   Cn3
 BYTE   W12
 BYTE   N23  Dn3
 BYTE   W24
 BYTE   Bn2
 BYTE   W12
// 039   ----------------------------------------
 BYTE   W12
 BYTE   An2
 BYTE   W24
 BYTE   N11  Gs2
 BYTE   W12
 BYTE   N06  Bn2
 BYTE   W06
 BYTE   Dn3
 BYTE   W06
 BYTE   N11  Bn2
 BYTE   W12
 BYTE   N11
 BYTE   W12
 BYTE   N12  Gs2
 BYTE   W12
// 040   ----------------------------------------
 BYTE   N10
 BYTE   W12
 BYTE   N03  Bn3
 BYTE   W03
 BYTE   N03
 BYTE   W03
 BYTE   N03
 BYTE   W03
 BYTE   N03
 BYTE   W03
 BYTE   N03
 BYTE   W03
 BYTE   N03
 BYTE   W03
 BYTE   N03
 BYTE   W03
 BYTE   N03
 BYTE   W03
 BYTE   N03
 BYTE   W03
 BYTE   N03
 BYTE   W03
 BYTE   N03
 BYTE   W03
 BYTE   N03
 BYTE   W03
 BYTE   N03
 BYTE   W03
 BYTE   N03
 BYTE   W03
 BYTE   N03
 BYTE   W03
 BYTE   N03
 BYTE   W03
 BYTE   An3
 BYTE   W03
 BYTE   N03
 BYTE   W03
 BYTE   N03
 BYTE   W03
 BYTE   N03
 BYTE   W03
 BYTE   N03
 BYTE   W03
 BYTE   N03
 BYTE   W03
 BYTE   N03
 BYTE   W03
 BYTE   N03
 BYTE   W03
 BYTE   N03
 BYTE   W03
 BYTE   N03
 BYTE   W03
 BYTE   N03
 BYTE   W03
 BYTE   N03
 BYTE   W03
// 041   ----------------------------------------
 BYTE   N03
 BYTE   W03
 BYTE   N03
 BYTE   W03
 BYTE   N03
 BYTE   W03
 BYTE   N03
 BYTE   W03
 BYTE   Gs3
 BYTE   W03
 BYTE   N03
 BYTE   W03
 BYTE   N03
 BYTE   W03
 BYTE   N03
 BYTE   W03
 BYTE   N03
 BYTE   W03
 BYTE   N03
 BYTE   W03
 BYTE   N03
 BYTE   W03
 BYTE   N03
 BYTE   W03
 BYTE   N03
 BYTE   W03
 BYTE   N03
 BYTE   W03
 BYTE   N03
 BYTE   W03
 BYTE   N03
 BYTE   W03
 BYTE   N03
 BYTE   W03
 BYTE   N03
 BYTE   W03
 BYTE   N03
 BYTE   W03
 BYTE   N03
 BYTE   W03
 BYTE   Gn3
 BYTE   W03
 BYTE   N03
 BYTE   W03
 BYTE   N03
 BYTE   W03
 BYTE   N03
 BYTE   W03
 BYTE   N03
 BYTE   W03
 BYTE   N03
 BYTE   W03
 BYTE   N03
 BYTE   W03
 BYTE   N03
 BYTE   W03
 BYTE   N03
 BYTE   W03
 BYTE   N03
 BYTE   W03
 BYTE   N03
 BYTE   W03
 BYTE   N03
 BYTE   W03
// 042   ----------------------------------------
 BYTE   N03
 BYTE   W03
 BYTE   N03
 BYTE   W03
 BYTE   N03
 BYTE   W03
 BYTE   N03
 BYTE   W03
 BYTE   Bn3
 BYTE   N03  En4
 BYTE   W06
 BYTE   Bn3
 BYTE   N03  En4
 BYTE   W06
 BYTE   Bn3
 BYTE   N03  En4
 BYTE   W06
 BYTE   Bn3
 BYTE   N03  En4
 BYTE   W06
 BYTE   Bn3
 BYTE   N03  En4
 BYTE   W06
 BYTE   Bn3
 BYTE   N03  En4
 BYTE   W06
 BYTE   Bn3
 BYTE   N03  En4
 BYTE   W06
 BYTE   Bn3
 BYTE   N03  En4
 BYTE   W06
 BYTE   As3
 BYTE   N03  Ds4
 BYTE   W06
 BYTE   As3
 BYTE   N03  Ds4
 BYTE   W06
 BYTE   As3
 BYTE   N03  Ds4
 BYTE   W06
 BYTE   As3
 BYTE   N03  Ds4
 BYTE   W06
 BYTE   As3
 BYTE   N03  Ds4
 BYTE   W06
 BYTE   As3
 BYTE   N03  Ds4
 BYTE   W06
// 043   ----------------------------------------
Label_2_0142DA3B:
 BYTE   N03  As3  v127
 BYTE   N03  Ds4
 BYTE   W06
 BYTE   As3
 BYTE   N03  Ds4
 BYTE   W06
 BYTE   Gs3
 BYTE   N03  Cs4
 BYTE   W06
 BYTE   Gs3
 BYTE   N03  Cs4
 BYTE   W06
 BYTE   Gs3
 BYTE   N03  Cs4
 BYTE   W06
 BYTE   Gs3
 BYTE   N03  Cs4
 BYTE   W06
 BYTE   Gs3
 BYTE   N03  Cs4
 BYTE   W06
 BYTE   Gs3
 BYTE   N03  Cs4
 BYTE   W06
 BYTE   Gs3
 BYTE   N03  Cs4
 BYTE   W06
 BYTE   Gs3
 BYTE   N03  Cs4
 BYTE   W06
 BYTE   Gn3
 BYTE   N03  Cn4
 BYTE   W06
 BYTE   Gn3
 BYTE   N03  Cn4
 BYTE   W06
 BYTE   Gn3
 BYTE   N03  Cn4
 BYTE   W06
 BYTE   Gn3
 BYTE   N03  Cn4
 BYTE   W06
 BYTE   Gn3
 BYTE   N03  Cn4
 BYTE   W06
 BYTE   Gn3
 BYTE   N03  Cn4
 BYTE   W06
 BYTE   PEND 
// 044   ----------------------------------------
 BYTE   Gn3
 BYTE   N03  Cn4
 BYTE   W06
 BYTE   Gn3
 BYTE   N03  Cn4
 BYTE   W06
 BYTE   Bn3
 BYTE   N03  En4
 BYTE   W06
 BYTE   Bn3
 BYTE   N03  En4
 BYTE   W06
 BYTE   Bn3
 BYTE   N03  En4
 BYTE   W06
 BYTE   Bn3
 BYTE   N03  En4
 BYTE   W06
 BYTE   Bn3
 BYTE   N03  En4
 BYTE   W06
 BYTE   Bn3
 BYTE   N03  En4
 BYTE   W06
 BYTE   Bn3
 BYTE   N03  En4
 BYTE   W06
 BYTE   Bn3
 BYTE   N03  En4
 BYTE   W06
 BYTE   As3
 BYTE   N03  Ds4
 BYTE   W06
 BYTE   As3
 BYTE   N03  Ds4
 BYTE   W06
 BYTE   As3
 BYTE   N03  Ds4
 BYTE   W06
 BYTE   As3
 BYTE   N03  Ds4
 BYTE   W06
 BYTE   As3
 BYTE   N03  Ds4
 BYTE   W06
 BYTE   As3
 BYTE   N03  Ds4
 BYTE   W06
 BYTE   PATT
  POIN2 Label_2_0142DA3B
// 045   ----------------------------------------
 BYTE   N03  Gn3  v127
 BYTE   N03  Cn4
 BYTE   W06
 BYTE   Gn3
 BYTE   N03  Cn4
 BYTE   W90
// 046   ----------------------------------------
 BYTE   W96
// 047   ----------------------------------------
 BYTE   W96
// 048   ----------------------------------------
 BYTE   W12
 BYTE   N40  Gn2
 BYTE   W42
 BYTE   An2
 BYTE   W42
// 049   ----------------------------------------
 BYTE   As2
 BYTE   W42
 BYTE   Cn3
 BYTE   W42
 BYTE   N40
 BYTE   N40  Fs3
 BYTE   W12
// 050   ----------------------------------------
 BYTE   W30
 BYTE   N42  Dn3
 BYTE   N40  Gs3
 BYTE   W42
 BYTE   En3
 BYTE   N40  As3
 BYTE   W24
// 051   ----------------------------------------
 BYTE   W18
 BYTE   Fs3
 BYTE   N40  Cn4
 BYTE   W42
 BYTE   GoTo
  POIN2 Label_2_0142D550
 BYTE   FINE

//**************** Track 4 (Midi-Chn.3) ****************//

GoldenSunFusionDragonBattleMrGreen3339_004:
// 000   ----------------------------------------
 BYTE   VOL   57*GoldenSunFusionDragonBattleMrGreen3339_mvl/mxv
 BYTE   KEYSH   GoldenSunFusionDragonBattleMrGreen3339_key+0
 BYTE   VOICE   62
 BYTE   W96
// 001   ----------------------------------------
Label_3_0142DAFB:
 BYTE   N06  En4  v127
 BYTE   W06
 BYTE   Cn5
 BYTE   W06
 BYTE   Bn4
 BYTE   W06
 BYTE   Fs4
 BYTE   W06
 BYTE   As4
 BYTE   W06
 BYTE   En4
 BYTE   W06
 BYTE   Ds4
 BYTE   W06
 BYTE   As4
 BYTE   W06
 BYTE   Ds4
 BYTE   W06
 BYTE   En4
 BYTE   W06
 BYTE   Bn4
 BYTE   W06
 BYTE   As4
 BYTE   W06
 BYTE   An4
 BYTE   W06
 BYTE   Gs4
 BYTE   W06
 BYTE   Cs5
 BYTE   W06
 BYTE   En4
 BYTE   W06
// 002   ----------------------------------------
 BYTE   Ds4
 BYTE   W06
 BYTE   Bn4
 BYTE   W06
 BYTE   As4
 BYTE   W06
 BYTE   Fn4
 BYTE   W06
 BYTE   Cn4
 BYTE   W06
 BYTE   En5
 BYTE   W06
 BYTE   An4
 BYTE   W06
 BYTE   Gs4
 BYTE   W06
 BYTE   Dn5
 BYTE   W06
 BYTE   Cs5
 BYTE   W06
 BYTE   Fs4
 BYTE   W06
 BYTE   Fn4
 BYTE   W06
 BYTE   Gs4
 BYTE   W06
 BYTE   Gn4
 BYTE   W12
 BYTE   Gs4
 BYTE   W06
// 003   ----------------------------------------
 BYTE   Gn4
 BYTE   W12
 BYTE   Gs4
 BYTE   W06
 BYTE   Gn4
 BYTE   W06
 BYTE   Fs4
 BYTE   W06
 BYTE   As4
 BYTE   W06
 BYTE   An4
 BYTE   W12
 BYTE   As4
 BYTE   W06
 BYTE   An4
 BYTE   W12
 BYTE   As4
 BYTE   W06
 BYTE   An4
 BYTE   W06
 BYTE   Gs4
 BYTE   W06
 BYTE   N02  An2  v092
 BYTE   W03
 BYTE   N01  En3
 BYTE   W03
 BYTE   N02  An3
 BYTE   W03
 BYTE   N01  Cn4
 BYTE   W03
// 004   ----------------------------------------
 BYTE   En4
 BYTE   W03
 BYTE   N02  Cn4
 BYTE   W03
 BYTE   An3
 BYTE   W03
 BYTE   En3
 BYTE   W03
 BYTE   An2
 BYTE   W03
 BYTE   En3
 BYTE   W03
 BYTE   N01  An3
 BYTE   W03
 BYTE   N02  Cn4
 BYTE   W03
 BYTE   N01  En4
 BYTE   W03
 BYTE   N02  Cn4
 BYTE   W03
 BYTE   N01  An3
 BYTE   W03
 BYTE   N02  En3
 BYTE   W03
 BYTE   An2
 BYTE   W03
 BYTE   N01  En3
 BYTE   W03
 BYTE   N02  An3
 BYTE   W03
 BYTE   Cn4
 BYTE   N02  An4
 BYTE   W03
 BYTE   Gs4
 BYTE   W03
 BYTE   Gn4
 BYTE   W03
 BYTE   Fs4
 BYTE   W03
 BYTE   N01  Fn4
 BYTE   W03
 BYTE   En4
 BYTE   W03
 BYTE   N02  Ds4
 BYTE   W03
 BYTE   N01  Dn4
 BYTE   W03
 BYTE   N02  Cs4
 BYTE   W03
 BYTE   N01  Cn4
 BYTE   W03
 BYTE   N02  Bn3
 BYTE   W03
 BYTE   As3
 BYTE   W03
 BYTE   An3
 BYTE   W03
 BYTE   Cn3
 BYTE   W03
 BYTE   En3
 BYTE   W03
 BYTE   An3
 BYTE   W03
 BYTE   Cn4
 BYTE   W03
// 005   ----------------------------------------
 BYTE   En4
 BYTE   W03
 BYTE   N01  Cn4
 BYTE   W03
 BYTE   N02  An4
 BYTE   W03
 BYTE   En4
 BYTE   W03
 BYTE   Bn2
 BYTE   W03
 BYTE   Dn3
 BYTE   W03
 BYTE   Gn3
 BYTE   W03
 BYTE   Bn3
 BYTE   W03
 BYTE   Dn4
 BYTE   W03
 BYTE   Bn3
 BYTE   W03
 BYTE   Gn4
 BYTE   W03
 BYTE   Dn4
 BYTE   W03
 BYTE   Fn2
 BYTE   W03
 BYTE   An2
 BYTE   W03
 BYTE   Cn3
 BYTE   W03
 BYTE   Fn3
 BYTE   W03
 BYTE   An3
 BYTE   W03
 BYTE   Cn4
 BYTE   W03
 BYTE   N01  Fn4
 BYTE   W03
 BYTE   N02  An4
 BYTE   W03
 BYTE   N01  Cn5
 BYTE   W03
 BYTE   N02  An4
 BYTE   W03
 BYTE   N01  Fn4
 BYTE   W03
 BYTE   N02  Cn4
 BYTE   W03
 BYTE   N01  An3
 BYTE   W03
 BYTE   N02  Fn3
 BYTE   W03
 BYTE   Cn3
 BYTE   W03
 BYTE   An2
 BYTE   W03
 BYTE   Dn2
 BYTE   W03
 BYTE   Fn2
 BYTE   W03
 BYTE   An2
 BYTE   W03
 BYTE   Dn3
 BYTE   W03
// 006   ----------------------------------------
 BYTE   N01  Fn3
 BYTE   W03
 BYTE   N02  An3
 BYTE   W03
 BYTE   Dn4
 BYTE   W03
 BYTE   N01  Fn4
 BYTE   W03
 BYTE   N02  An4
 BYTE   W03
 BYTE   Fn4
 BYTE   W03
 BYTE   N01  Dn4
 BYTE   W03
 BYTE   N02  An3
 BYTE   W03
 BYTE   Fn3
 BYTE   W03
 BYTE   Dn3
 BYTE   W03
 BYTE   An2
 BYTE   W03
 BYTE   N01  Fn2
 BYTE   W03
 BYTE   En2
 BYTE   W03
 BYTE   N02  Gs2
 BYTE   W03
 BYTE   Bn2
 BYTE   W03
 BYTE   En3
 BYTE   W03
 BYTE   Gs3
 BYTE   W03
 BYTE   Bn3
 BYTE   W03
 BYTE   En4
 BYTE   W03
 BYTE   Bn3
 BYTE   W03
 BYTE   N03  Bn4  v127
 BYTE   W03
 BYTE   N02  Gs4  v092
 BYTE   W03
 BYTE   En4
 BYTE   W03
 BYTE   Bn3
 BYTE   W03
 BYTE   Gs3
 BYTE   W03
 BYTE   En3
 BYTE   W03
 BYTE   Bn2
 BYTE   W03
 BYTE   Gs2
 BYTE   W03
 BYTE   Dn2
 BYTE   W03
 BYTE   Fn2
 BYTE   W03
 BYTE   An2
 BYTE   W03
 BYTE   N01  Dn3
 BYTE   W03
// 007   ----------------------------------------
 BYTE   N02  Fn3
 BYTE   W03
 BYTE   An3
 BYTE   W03
 BYTE   Dn4
 BYTE   W03
 BYTE   Fn4
 BYTE   W03
 BYTE   An4
 BYTE   W03
 BYTE   Fn4
 BYTE   W03
 BYTE   Dn4
 BYTE   W03
 BYTE   N01  An3
 BYTE   W03
 BYTE   N02  Fn3
 BYTE   W03
 BYTE   Dn3
 BYTE   W03
 BYTE   An2
 BYTE   W03
 BYTE   Fn2
 BYTE   W03
 BYTE   En2
 BYTE   W03
 BYTE   Gs2
 BYTE   W03
 BYTE   Bn2
 BYTE   W03
 BYTE   En3
 BYTE   W03
 BYTE   Gs3
 BYTE   W03
 BYTE   Bn3
 BYTE   W03
 BYTE   En4
 BYTE   W03
 BYTE   N01  Bn3
 BYTE   W03
 BYTE   Bn4
 BYTE   W03
 BYTE   Gs4
 BYTE   W03
 BYTE   En4
 BYTE   W03
 BYTE   N02  Bn3
 BYTE   W03
 BYTE   N01  Gs3
 BYTE   W03
 BYTE   N02  En3
 BYTE   W03
 BYTE   Bn2
 BYTE   W03
 BYTE   Gs2
 BYTE   W03
 BYTE   Gs4
 BYTE   W03
 BYTE   An4
 BYTE   W03
 BYTE   Fs4
 BYTE   W03
 BYTE   Gs4
 BYTE   W03
// 008   ----------------------------------------
 BYTE   As4
 BYTE   W03
 BYTE   En4
 BYTE   W03
 BYTE   Ds4
 BYTE   W03
 BYTE   Dn4
 BYTE   W03
 BYTE   Fn4
 BYTE   W03
 BYTE   Fs4
 BYTE   W03
 BYTE   Dn4
 BYTE   W03
 BYTE   Ds4
 BYTE   W03
 BYTE   Dn4
 BYTE   W03
 BYTE   Cn4
 BYTE   W03
 BYTE   Bn3
 BYTE   W03
 BYTE   As3
 BYTE   W03
 BYTE   Bn4
 BYTE   W03
 BYTE   Cn5
 BYTE   W03
 BYTE   Fn4
 BYTE   W03
 BYTE   As4
 BYTE   W03
 BYTE   An4
 BYTE   W03
 BYTE   Gs4
 BYTE   W03
 BYTE   Fn4
 BYTE   W03
 BYTE   Ds4
 BYTE   W03
 BYTE   As4
 BYTE   W03
 BYTE   En4
 BYTE   W03
 BYTE   Dn4
 BYTE   W03
 BYTE   Cs4
 BYTE   W03
 BYTE   Gn4
 BYTE   W03
 BYTE   Fs4
 BYTE   W03
 BYTE   N03  Fn4
 BYTE   W03
 BYTE   N02  En4
 BYTE   W03
 BYTE   Gs4
 BYTE   W03
 BYTE   An4
 BYTE   W03
 BYTE   Fs4
 BYTE   W03
 BYTE   Gs4
 BYTE   W03
// 009   ----------------------------------------
 BYTE   As4
 BYTE   W03
 BYTE   En4
 BYTE   W03
 BYTE   Ds4
 BYTE   W03
 BYTE   Dn4
 BYTE   W03
 BYTE   Fn4
 BYTE   W03
 BYTE   Fs4
 BYTE   W03
 BYTE   Dn4
 BYTE   W03
 BYTE   Ds4
 BYTE   W03
 BYTE   Dn4
 BYTE   W03
 BYTE   Cn4
 BYTE   W03
 BYTE   Bn3
 BYTE   W03
 BYTE   As3
 BYTE   W03
 BYTE   Bn4
 BYTE   W03
 BYTE   Cn5
 BYTE   W03
 BYTE   Fn4
 BYTE   W03
 BYTE   As4
 BYTE   W03
 BYTE   An4
 BYTE   W03
 BYTE   Gs4
 BYTE   W03
 BYTE   Fn4
 BYTE   W03
 BYTE   Ds4
 BYTE   W03
 BYTE   As4
 BYTE   W03
 BYTE   En4
 BYTE   W03
 BYTE   Dn4
 BYTE   W03
 BYTE   Cs4
 BYTE   W03
 BYTE   Gn4
 BYTE   W03
 BYTE   Fs4
 BYTE   W03
 BYTE   N06  Gs3  v127
 BYTE   W06
 BYTE   Gn3
 BYTE   W06
 BYTE   As3
 BYTE   W06
// 010   ----------------------------------------
 BYTE   Fs3
 BYTE   W06
 BYTE   En3
 BYTE   W06
 BYTE   Ds3
 BYTE   W06
 BYTE   Dn3
 BYTE   W06
 BYTE   Ds3
 BYTE   W06
 BYTE   Gn3
 BYTE   W06
 BYTE   Fs3
 BYTE   W06
 BYTE   Fn3
 BYTE   W06
 BYTE   En3
 BYTE   W06
 BYTE   As3
 BYTE   W06
 BYTE   An3
 BYTE   W06
 BYTE   Gn3
 BYTE   W06
 BYTE   Fn3
 BYTE   W06
 BYTE   Dn4
 BYTE   W06
 BYTE   Cs4
 BYTE   W06
 BYTE   En4
 BYTE   W06
// 011   ----------------------------------------
 BYTE   Ds4
 BYTE   W06
 BYTE   Gn3
 BYTE   W06
 BYTE   Fn3
 BYTE   W06
 BYTE   Ds4
 BYTE   W06
 BYTE   Bn3
 BYTE   W06
 BYTE   N02  An2  v092
 BYTE   W03
 BYTE   N01  En3
 BYTE   W03
 BYTE   N02  An3
 BYTE   W03
 BYTE   N01  Cn4
 BYTE   W03
 BYTE   En4
 BYTE   W03
 BYTE   N02  Cn4
 BYTE   W03
 BYTE   An3
 BYTE   W03
 BYTE   En3
 BYTE   W03
 BYTE   An2
 BYTE   W03
 BYTE   En3
 BYTE   W03
 BYTE   N01  An3
 BYTE   W03
 BYTE   N02  Cn4
 BYTE   W03
 BYTE   N01  En4
 BYTE   W03
 BYTE   N02  Cn4
 BYTE   W03
 BYTE   N01  An3
 BYTE   W03
 BYTE   N02  En3
 BYTE   W03
 BYTE   An2
 BYTE   W03
 BYTE   N01  En3
 BYTE   W03
 BYTE   N02  An3
 BYTE   W03
 BYTE   Cn4
 BYTE   N02  An4
 BYTE   W03
 BYTE   Gs4
 BYTE   W03
 BYTE   Gn4
 BYTE   W03
// 012   ----------------------------------------
 BYTE   Fs4
 BYTE   W03
 BYTE   N01  Fn4
 BYTE   W03
 BYTE   En4
 BYTE   W03
 BYTE   N02  Ds4
 BYTE   W03
 BYTE   N01  Dn4
 BYTE   W03
 BYTE   N02  Cs4
 BYTE   W03
 BYTE   N01  Cn4
 BYTE   W03
 BYTE   N02  Bn3
 BYTE   W03
 BYTE   As3
 BYTE   W03
 BYTE   An3
 BYTE   W03
 BYTE   Cn3
 BYTE   W03
 BYTE   En3
 BYTE   W03
 BYTE   An3
 BYTE   W03
 BYTE   Cn4
 BYTE   W03
 BYTE   En4
 BYTE   W03
 BYTE   N01  Cn4
 BYTE   W03
 BYTE   N02  An4
 BYTE   W03
 BYTE   En4
 BYTE   W03
 BYTE   Bn2
 BYTE   W03
 BYTE   Dn3
 BYTE   W03
 BYTE   Gn3
 BYTE   W03
 BYTE   Bn3
 BYTE   W03
 BYTE   Dn4
 BYTE   W03
 BYTE   Bn3
 BYTE   W03
 BYTE   Gn4
 BYTE   W03
 BYTE   Dn4
 BYTE   W03
 BYTE   Fn2
 BYTE   W03
 BYTE   An2
 BYTE   W03
 BYTE   Cn3
 BYTE   W03
 BYTE   Fn3
 BYTE   W03
 BYTE   An3
 BYTE   W03
 BYTE   Cn4
 BYTE   W03
// 013   ----------------------------------------
 BYTE   N01  Fn4
 BYTE   W03
 BYTE   N02  An4
 BYTE   W03
 BYTE   N01  Cn5
 BYTE   W03
 BYTE   N02  An4
 BYTE   W03
 BYTE   N01  Fn4
 BYTE   W03
 BYTE   N02  Cn4
 BYTE   W03
 BYTE   N01  An3
 BYTE   W03
 BYTE   N02  Fn3
 BYTE   W03
 BYTE   Cn3
 BYTE   W03
 BYTE   An2
 BYTE   W03
 BYTE   Dn2
 BYTE   W03
 BYTE   Fn2
 BYTE   W03
 BYTE   An2
 BYTE   W03
 BYTE   Dn3
 BYTE   W03
 BYTE   N01  Fn3
 BYTE   W03
 BYTE   N02  An3
 BYTE   W03
 BYTE   Dn4
 BYTE   W03
 BYTE   N01  Fn4
 BYTE   W03
 BYTE   N02  An4
 BYTE   W03
 BYTE   Fn4
 BYTE   W03
 BYTE   N01  Dn4
 BYTE   W03
 BYTE   N02  An3
 BYTE   W03
 BYTE   Fn3
 BYTE   W03
 BYTE   Dn3
 BYTE   W03
 BYTE   An2
 BYTE   W03
 BYTE   N01  Fn2
 BYTE   W03
 BYTE   En2
 BYTE   W03
 BYTE   N02  Gs2
 BYTE   W03
 BYTE   Bn2
 BYTE   W03
 BYTE   En3
 BYTE   W03
 BYTE   Gs3
 BYTE   W03
 BYTE   Bn3
 BYTE   W03
// 014   ----------------------------------------
 BYTE   En4
 BYTE   W03
 BYTE   Bn3
 BYTE   W03
 BYTE   N03  Bn4  v127
 BYTE   W03
 BYTE   N02  Gs4  v092
 BYTE   W03
 BYTE   En4
 BYTE   W03
 BYTE   Bn3
 BYTE   W03
 BYTE   Gs3
 BYTE   W03
 BYTE   En3
 BYTE   W03
 BYTE   Bn2
 BYTE   W03
 BYTE   Gs2
 BYTE   W03
 BYTE   Dn2
 BYTE   W03
 BYTE   Fn2
 BYTE   W03
 BYTE   An2
 BYTE   W03
 BYTE   N01  Dn3
 BYTE   W03
 BYTE   N02  Fn3
 BYTE   W03
 BYTE   An3
 BYTE   W03
 BYTE   Dn4
 BYTE   W03
 BYTE   Fn4
 BYTE   W03
 BYTE   An4
 BYTE   W03
 BYTE   Fn4
 BYTE   W03
 BYTE   Dn4
 BYTE   W03
 BYTE   N01  An3
 BYTE   W03
 BYTE   N02  Fn3
 BYTE   W03
 BYTE   Dn3
 BYTE   W03
 BYTE   An2
 BYTE   W03
 BYTE   Fn2
 BYTE   W03
 BYTE   En2
 BYTE   W03
 BYTE   Gs2
 BYTE   W03
 BYTE   Bn2
 BYTE   W03
 BYTE   En3
 BYTE   W03
 BYTE   Gs3
 BYTE   W03
 BYTE   Bn3
 BYTE   W03
// 015   ----------------------------------------
 BYTE   En4
 BYTE   W03
 BYTE   N01  Bn3
 BYTE   W03
 BYTE   Bn4
 BYTE   W03
 BYTE   Gs4
 BYTE   W03
 BYTE   En4
 BYTE   W03
 BYTE   N02  Bn3
 BYTE   W03
 BYTE   N01  Gs3
 BYTE   W03
 BYTE   N02  En3
 BYTE   W03
 BYTE   Bn2
 BYTE   W03
 BYTE   Gs2
 BYTE   W68
 BYTE   W01
// 016   ----------------------------------------
 BYTE   W96
// 017   ----------------------------------------
 BYTE   W30
 BYTE   N17  An1  v127
 BYTE   W18
 BYTE   N03
 BYTE   W03
 BYTE   Bn1
 BYTE   W03
 BYTE   N23  Cn2
 BYTE   W24
 BYTE   N07  Gn2
 BYTE   W08
 BYTE   Cs2
 BYTE   W08
 BYTE   Fs2
 BYTE   W02
// 018   ----------------------------------------
 BYTE   W06
 BYTE   Fn2
 BYTE   W08
 BYTE   Cn2
 BYTE   W08
 BYTE   Bn1
 BYTE   W08
 BYTE   N23  Gs1
 BYTE   W24
 BYTE   Dn2
 BYTE   W24
 BYTE   N06  Cs2
 BYTE   W06
 BYTE   Gn1
 BYTE   W06
 BYTE   Fs1
 BYTE   W06
// 019   ----------------------------------------
 BYTE   Fn1
 BYTE   W06
 BYTE   N03  An2
 BYTE   W03
 BYTE   Gs2
 BYTE   W03
 BYTE   Gn2
 BYTE   W03
 BYTE   Fs2
 BYTE   W03
 BYTE   En2
 BYTE   W03
 BYTE   Dn2
 BYTE   W03
 BYTE   Cs2
 BYTE   W03
 BYTE   Bn1
 BYTE   W68
 BYTE   W01
// 020   ----------------------------------------
 BYTE   En4  v052
 BYTE   W03
 BYTE   Fn4
 BYTE   W03
 BYTE   Fs4
 BYTE   W03
 BYTE   Gn4
 BYTE   W03
 BYTE   Fn4
 BYTE   W03
 BYTE   Fs4
 BYTE   W03
 BYTE   Gn4
 BYTE   W03
 BYTE   Fs4
 BYTE   W03
 BYTE   Gn4
 BYTE   W03
 BYTE   Gs4
 BYTE   W03
 BYTE   An4
 BYTE   W03
 BYTE   Gn4
 BYTE   W03
 BYTE   Gs4  v080
 BYTE   W03
 BYTE   An4
 BYTE   W03
 BYTE   Gn4
 BYTE   W03
 BYTE   Gs4
 BYTE   W03
 BYTE   An4
 BYTE   W03
 BYTE   As4
 BYTE   W03
 BYTE   Gs4
 BYTE   W03
 BYTE   An4
 BYTE   W03
 BYTE   As4
 BYTE   W03
 BYTE   Bn4
 BYTE   W03
 BYTE   An4
 BYTE   W03
 BYTE   As4
 BYTE   W03
 BYTE   Bn4
 BYTE   W03
 BYTE   An4
 BYTE   W03
 BYTE   As4
 BYTE   W03
 BYTE   Bn4
 BYTE   W03
 BYTE   Cn5
 BYTE   W03
 BYTE   As4
 BYTE   W03
 BYTE   Bn4
 BYTE   W03
 BYTE   Cn5
 BYTE   W03
// 021   ----------------------------------------
 BYTE   Bn4  v104
 BYTE   W03
 BYTE   Cn5
 BYTE   W03
 BYTE   Cs5
 BYTE   W03
 BYTE   Dn5
 BYTE   W03
 BYTE   Bn4
 BYTE   W03
 BYTE   Cn5
 BYTE   W03
 BYTE   Cs5
 BYTE   W03
 BYTE   Dn5
 BYTE   W03
 BYTE   As4
 BYTE   W03
 BYTE   Bn4
 BYTE   W32
 BYTE   W01
 BYTE   N06  As3  v127
 BYTE   N06  En4
 BYTE   W36
// 022   ----------------------------------------
 BYTE   An3
 BYTE   N06  Ds4
 BYTE   W36
 BYTE   As3
 BYTE   N06  En4
 BYTE   W36
 BYTE   Bn3
 BYTE   N06  Fn4
 BYTE   W24
// 023   ----------------------------------------
 BYTE   W12
 BYTE   As3
 BYTE   N06  En4
 BYTE   W36
 BYTE   An3
 BYTE   N06  Ds4
 BYTE   W36
 BYTE   As3
 BYTE   N06  En4
 BYTE   W12
// 024   ----------------------------------------
 BYTE   W24
 BYTE   Bn3
 BYTE   N06  Fn4
 BYTE   W06
 BYTE   N24  Gn3
 BYTE   W24
 BYTE   N17  Cn4
 BYTE   W18
 BYTE   N22  An3
 BYTE   W24
// 025   ----------------------------------------
 BYTE   N16  Dn4
 BYTE   W18
 BYTE   N24  Ds4
 BYTE   W24
 BYTE   N06
 BYTE   W06
 BYTE   Dn4
 BYTE   W06
 BYTE   Cn4
 BYTE   W06
 BYTE   N23  Dn4
 BYTE   W24
 BYTE   N16  Cn4
 BYTE   W12
// 026   ----------------------------------------
 BYTE   W06
 BYTE   N03  Fn3
 BYTE   N03  Bn3
 BYTE   W06
 BYTE   Fs3
 BYTE   N03  Cn4
 BYTE   W06
 BYTE   Fn3
 BYTE   N03  Bn3
 BYTE   W06
 BYTE   Fs3
 BYTE   N03  Cn4
 BYTE   W06
 BYTE   Fn3
 BYTE   N03  Bn3
 BYTE   W06
 BYTE   Fs3
 BYTE   N03  Cn4
 BYTE   W06
 BYTE   Fn3
 BYTE   N03  Bn3
 BYTE   W06
 BYTE   Gn3
 BYTE   N03  Cs4
 BYTE   W06
 BYTE   Gs3
 BYTE   N03  Dn4
 BYTE   W06
 BYTE   Gn3
 BYTE   N03  Cs4
 BYTE   W06
 BYTE   Gs3
 BYTE   N03  Dn4
 BYTE   W06
 BYTE   Gn3
 BYTE   N03  Cs4
 BYTE   W06
 BYTE   Gs3
 BYTE   N03  Dn4
 BYTE   W06
 BYTE   Gn3
 BYTE   N03  Cs4
 BYTE   W06
 BYTE   An3
 BYTE   N03  Ds4
 BYTE   W06
// 027   ----------------------------------------
 BYTE   As3
 BYTE   N03  En4
 BYTE   W06
 BYTE   An3
 BYTE   N03  Ds4
 BYTE   W06
 BYTE   As3
 BYTE   N03  En4
 BYTE   W06
 BYTE   An3
 BYTE   N03  Ds4
 BYTE   W06
 BYTE   As3
 BYTE   N03  En4
 BYTE   W06
 BYTE   An3
 BYTE   N03  Ds4
 BYTE   W06
 BYTE   Bn3
 BYTE   N03  Fn4
 BYTE   W06
 BYTE   Cn4
 BYTE   N03  Fs4
 BYTE   W06
 BYTE   Bn3
 BYTE   N03  Fn4
 BYTE   W06
 BYTE   Cn4
 BYTE   N03  Fs4
 BYTE   W06
 BYTE   Bn3
 BYTE   N03  Fn4
 BYTE   W06
 BYTE   Cn4
 BYTE   N03  Fs4
 BYTE   W06
 BYTE   Bn3
 BYTE   N03  Fn4
 BYTE   W06
 BYTE   N06  En4
 BYTE   W06
 BYTE   Cn5
 BYTE   W06
 BYTE   Bn4
 BYTE   W06
// 028   ----------------------------------------
 BYTE   Fs4
 BYTE   W06
 BYTE   As4
 BYTE   W06
 BYTE   En4
 BYTE   W06
 BYTE   Ds4
 BYTE   W06
 BYTE   As4
 BYTE   W06
 BYTE   Ds4
 BYTE   W06
 BYTE   En4
 BYTE   W06
 BYTE   Bn4
 BYTE   W06
 BYTE   As4
 BYTE   W06
 BYTE   An4
 BYTE   W06
 BYTE   Gs4
 BYTE   W06
 BYTE   Cs5
 BYTE   W06
 BYTE   En4
 BYTE   W06
 BYTE   Ds4
 BYTE   W06
 BYTE   Bn4
 BYTE   W06
 BYTE   As4
 BYTE   W06
// 029   ----------------------------------------
 BYTE   Fn4
 BYTE   W06
 BYTE   Cn4
 BYTE   W06
 BYTE   En5
 BYTE   W06
 BYTE   An4
 BYTE   W06
 BYTE   Gs4
 BYTE   W06
 BYTE   Dn5
 BYTE   W06
 BYTE   Cs5
 BYTE   W06
 BYTE   Fs4
 BYTE   W06
 BYTE   Fn4
 BYTE   W06
 BYTE   Gs4
 BYTE   W06
 BYTE   Gn4
 BYTE   W12
 BYTE   Gs4
 BYTE   W06
 BYTE   Gn4
 BYTE   W12
 BYTE   Gs4
 BYTE   W06
// 030   ----------------------------------------
 BYTE   Gn4
 BYTE   W06
 BYTE   Fs4
 BYTE   W06
 BYTE   As4
 BYTE   W06
 BYTE   An4
 BYTE   W12
 BYTE   As4
 BYTE   W06
 BYTE   An4
 BYTE   W12
 BYTE   As4
 BYTE   W06
 BYTE   An4
 BYTE   W06
 BYTE   Gs4
 BYTE   W06
 BYTE   N02  An2  v092
 BYTE   W03
 BYTE   N01  En3
 BYTE   W03
 BYTE   N02  An3
 BYTE   W03
 BYTE   N01  Cn4
 BYTE   W03
 BYTE   En4
 BYTE   W03
 BYTE   N02  Cn4
 BYTE   W03
 BYTE   An3
 BYTE   W03
 BYTE   En3
 BYTE   W03
 BYTE   An2
 BYTE   W03
 BYTE   En3
 BYTE   W03
// 031   ----------------------------------------
 BYTE   N01  An3
 BYTE   W03
 BYTE   N02  Cn4
 BYTE   W03
 BYTE   N01  En4
 BYTE   W03
 BYTE   N02  Cn4
 BYTE   W03
 BYTE   N01  An3
 BYTE   W03
 BYTE   N02  En3
 BYTE   W03
 BYTE   An2
 BYTE   W03
 BYTE   N01  En3
 BYTE   W03
 BYTE   N02  An3
 BYTE   W03
 BYTE   Cn4
 BYTE   N02  An4
 BYTE   W03
 BYTE   Gs4
 BYTE   W03
 BYTE   Gn4
 BYTE   W03
 BYTE   Fs4
 BYTE   W03
 BYTE   N01  Fn4
 BYTE   W03
 BYTE   En4
 BYTE   W03
 BYTE   N02  Ds4
 BYTE   W03
 BYTE   N01  Dn4
 BYTE   W03
 BYTE   N02  Cs4
 BYTE   W03
 BYTE   N01  Cn4
 BYTE   W03
 BYTE   N02  Bn3
 BYTE   W03
 BYTE   As3
 BYTE   W03
 BYTE   An3
 BYTE   W03
 BYTE   Cn3
 BYTE   W03
 BYTE   En3
 BYTE   W03
 BYTE   An3
 BYTE   W03
 BYTE   Cn4
 BYTE   W03
 BYTE   En4
 BYTE   W03
 BYTE   N01  Cn4
 BYTE   W03
 BYTE   N02  An4
 BYTE   W03
 BYTE   En4
 BYTE   W03
 BYTE   Bn2
 BYTE   W03
 BYTE   Dn3
 BYTE   W03
// 032   ----------------------------------------
 BYTE   Gn3
 BYTE   W03
 BYTE   Bn3
 BYTE   W03
 BYTE   Dn4
 BYTE   W03
 BYTE   Bn3
 BYTE   W03
 BYTE   Gn4
 BYTE   W03
 BYTE   Dn4
 BYTE   W03
 BYTE   Fn2
 BYTE   W03
 BYTE   An2
 BYTE   W03
 BYTE   Cn3
 BYTE   W03
 BYTE   Fn3
 BYTE   W03
 BYTE   An3
 BYTE   W03
 BYTE   Cn4
 BYTE   W03
 BYTE   N01  Fn4
 BYTE   W03
 BYTE   N02  An4
 BYTE   W03
 BYTE   N01  Cn5
 BYTE   W03
 BYTE   N02  An4
 BYTE   W03
 BYTE   N01  Fn4
 BYTE   W03
 BYTE   N02  Cn4
 BYTE   W03
 BYTE   N01  An3
 BYTE   W03
 BYTE   N02  Fn3
 BYTE   W03
 BYTE   Cn3
 BYTE   W03
 BYTE   An2
 BYTE   W03
 BYTE   Dn2
 BYTE   W03
 BYTE   Fn2
 BYTE   W03
 BYTE   An2
 BYTE   W03
 BYTE   Dn3
 BYTE   W03
 BYTE   N01  Fn3
 BYTE   W03
 BYTE   N02  An3
 BYTE   W03
 BYTE   Dn4
 BYTE   W03
 BYTE   N01  Fn4
 BYTE   W03
 BYTE   N02  An4
 BYTE   W03
 BYTE   Fn4
 BYTE   W03
// 033   ----------------------------------------
 BYTE   N01  Dn4
 BYTE   W03
 BYTE   N02  An3
 BYTE   W03
 BYTE   Fn3
 BYTE   W03
 BYTE   Dn3
 BYTE   W03
 BYTE   An2
 BYTE   W03
 BYTE   N01  Fn2
 BYTE   W03
 BYTE   En2
 BYTE   W03
 BYTE   N02  Gs2
 BYTE   W03
 BYTE   Bn2
 BYTE   W03
 BYTE   En3
 BYTE   W03
 BYTE   Gs3
 BYTE   W03
 BYTE   Bn3
 BYTE   W03
 BYTE   En4
 BYTE   W03
 BYTE   Bn3
 BYTE   W03
 BYTE   N03  Bn4  v127
 BYTE   W03
 BYTE   N02  Gs4  v092
 BYTE   W03
 BYTE   En4
 BYTE   W03
 BYTE   Bn3
 BYTE   W03
 BYTE   Gs3
 BYTE   W03
 BYTE   En3
 BYTE   W03
 BYTE   Bn2
 BYTE   W03
 BYTE   Gs2
 BYTE   W03
 BYTE   Dn2
 BYTE   W03
 BYTE   Fn2
 BYTE   W03
 BYTE   An2
 BYTE   W03
 BYTE   N01  Dn3
 BYTE   W03
 BYTE   N02  Fn3
 BYTE   W03
 BYTE   An3
 BYTE   W03
 BYTE   Dn4
 BYTE   W03
 BYTE   Fn4
 BYTE   W03
 BYTE   An4
 BYTE   W03
 BYTE   Fn4
 BYTE   W03
// 034   ----------------------------------------
 BYTE   Dn4
 BYTE   W03
 BYTE   N01  An3
 BYTE   W03
 BYTE   N02  Fn3
 BYTE   W03
 BYTE   Dn3
 BYTE   W03
 BYTE   An2
 BYTE   W03
 BYTE   Fn2
 BYTE   W03
 BYTE   En2
 BYTE   W03
 BYTE   Gs2
 BYTE   W03
 BYTE   Bn2
 BYTE   W03
 BYTE   En3
 BYTE   W03
 BYTE   Gs3
 BYTE   W03
 BYTE   Bn3
 BYTE   W03
 BYTE   En4
 BYTE   W03
 BYTE   N01  Bn3
 BYTE   W03
 BYTE   Bn4
 BYTE   W03
 BYTE   Gs4
 BYTE   W03
 BYTE   En4
 BYTE   W03
 BYTE   N02  Bn3
 BYTE   W03
 BYTE   N01  Gs3
 BYTE   W03
 BYTE   N02  En3
 BYTE   W03
 BYTE   Bn2
 BYTE   W03
 BYTE   Gs2
 BYTE   W03
 BYTE   Gs4
 BYTE   W03
 BYTE   An4
 BYTE   W03
 BYTE   Fs4
 BYTE   W03
 BYTE   Gs4
 BYTE   W03
 BYTE   As4
 BYTE   W03
 BYTE   En4
 BYTE   W03
 BYTE   Ds4
 BYTE   W03
 BYTE   Dn4
 BYTE   W03
 BYTE   Fn4
 BYTE   W03
 BYTE   Fs4
 BYTE   W03
// 035   ----------------------------------------
 BYTE   Dn4
 BYTE   W03
 BYTE   Ds4
 BYTE   W03
 BYTE   Dn4
 BYTE   W03
 BYTE   Cn4
 BYTE   W03
 BYTE   Bn3
 BYTE   W03
 BYTE   As3
 BYTE   W03
 BYTE   Bn4
 BYTE   W03
 BYTE   Cn5
 BYTE   W03
 BYTE   Fn4
 BYTE   W03
 BYTE   As4
 BYTE   W03
 BYTE   An4
 BYTE   W03
 BYTE   Gs4
 BYTE   W03
 BYTE   Fn4
 BYTE   W03
 BYTE   Ds4
 BYTE   W03
 BYTE   As4
 BYTE   W03
 BYTE   En4
 BYTE   W03
 BYTE   Dn4
 BYTE   W03
 BYTE   Cs4
 BYTE   W03
 BYTE   Gn4
 BYTE   W03
 BYTE   Fs4
 BYTE   W03
 BYTE   N03  Fn4
 BYTE   W03
 BYTE   N02  En4
 BYTE   W03
 BYTE   Gs4
 BYTE   W03
 BYTE   An4
 BYTE   W03
 BYTE   Fs4
 BYTE   W03
 BYTE   Gs4
 BYTE   W03
 BYTE   As4
 BYTE   W03
 BYTE   En4
 BYTE   W03
 BYTE   Ds4
 BYTE   W03
 BYTE   Dn4
 BYTE   W03
 BYTE   Fn4
 BYTE   W03
 BYTE   Fs4
 BYTE   W03
// 036   ----------------------------------------
 BYTE   Dn4
 BYTE   W03
 BYTE   Ds4
 BYTE   W03
 BYTE   Dn4
 BYTE   W03
 BYTE   Cn4
 BYTE   W03
 BYTE   Bn3
 BYTE   W03
 BYTE   As3
 BYTE   W03
 BYTE   Bn4
 BYTE   W03
 BYTE   Cn5
 BYTE   W03
 BYTE   Fn4
 BYTE   W03
 BYTE   As4
 BYTE   W03
 BYTE   An4
 BYTE   W03
 BYTE   Gs4
 BYTE   W03
 BYTE   Fn4
 BYTE   W03
 BYTE   Ds4
 BYTE   W03
 BYTE   As4
 BYTE   W03
 BYTE   En4
 BYTE   W03
 BYTE   Dn4
 BYTE   W03
 BYTE   Cs4
 BYTE   W03
 BYTE   Gn4
 BYTE   W03
 BYTE   Fs4
 BYTE   W03
 BYTE   N06  Gs3  v127
 BYTE   W06
 BYTE   Gn3
 BYTE   W06
 BYTE   As3
 BYTE   W06
 BYTE   Fs3
 BYTE   W06
 BYTE   En3
 BYTE   W06
 BYTE   Ds3
 BYTE   W06
// 037   ----------------------------------------
 BYTE   Dn3
 BYTE   W06
 BYTE   Ds3
 BYTE   W06
 BYTE   Gn3
 BYTE   W06
 BYTE   Fs3
 BYTE   W06
 BYTE   Fn3
 BYTE   W06
 BYTE   En3
 BYTE   W06
 BYTE   As3
 BYTE   W06
 BYTE   An3
 BYTE   W06
 BYTE   Gn3
 BYTE   W06
 BYTE   Fn3
 BYTE   W06
 BYTE   Dn4
 BYTE   W06
 BYTE   Cs4
 BYTE   W06
 BYTE   En4
 BYTE   W06
 BYTE   Ds4
 BYTE   W06
 BYTE   Gn3
 BYTE   W06
 BYTE   Fn3
 BYTE   W06
// 038   ----------------------------------------
 BYTE   Ds4
 BYTE   W06
 BYTE   Bn3
 BYTE   W06
 BYTE   N02  An2  v092
 BYTE   W03
 BYTE   N01  En3
 BYTE   W03
 BYTE   N02  An3
 BYTE   W03
 BYTE   N01  Cn4
 BYTE   W03
 BYTE   En4
 BYTE   W03
 BYTE   N02  Cn4
 BYTE   W03
 BYTE   An3
 BYTE   W03
 BYTE   En3
 BYTE   W03
 BYTE   An2
 BYTE   W03
 BYTE   En3
 BYTE   W03
 BYTE   N01  An3
 BYTE   W03
 BYTE   N02  Cn4
 BYTE   W03
 BYTE   N01  En4
 BYTE   W03
 BYTE   N02  Cn4
 BYTE   W03
 BYTE   N01  An3
 BYTE   W03
 BYTE   N02  En3
 BYTE   W03
 BYTE   An2
 BYTE   W03
 BYTE   N01  En3
 BYTE   W03
 BYTE   N02  An3
 BYTE   W03
 BYTE   Cn4
 BYTE   N02  An4
 BYTE   W03
 BYTE   Gs4
 BYTE   W03
 BYTE   Gn4
 BYTE   W03
 BYTE   Fs4
 BYTE   W03
 BYTE   N01  Fn4
 BYTE   W03
 BYTE   En4
 BYTE   W03
 BYTE   N02  Ds4
 BYTE   W03
 BYTE   N01  Dn4
 BYTE   W03
 BYTE   N02  Cs4
 BYTE   W03
// 039   ----------------------------------------
 BYTE   N01  Cn4
 BYTE   W03
 BYTE   N02  Bn3
 BYTE   W03
 BYTE   As3
 BYTE   W03
 BYTE   An3
 BYTE   W03
 BYTE   Cn3
 BYTE   W03
 BYTE   En3
 BYTE   W03
 BYTE   An3
 BYTE   W03
 BYTE   Cn4
 BYTE   W03
 BYTE   En4
 BYTE   W03
 BYTE   N01  Cn4
 BYTE   W03
 BYTE   N02  An4
 BYTE   W03
 BYTE   En4
 BYTE   W03
 BYTE   Bn2
 BYTE   W03
 BYTE   Dn3
 BYTE   W03
 BYTE   Gn3
 BYTE   W03
 BYTE   Bn3
 BYTE   W03
 BYTE   Dn4
 BYTE   W03
 BYTE   Bn3
 BYTE   W03
 BYTE   Gn4
 BYTE   W03
 BYTE   Dn4
 BYTE   W03
 BYTE   Fn2
 BYTE   W03
 BYTE   An2
 BYTE   W03
 BYTE   Cn3
 BYTE   W03
 BYTE   Fn3
 BYTE   W03
 BYTE   An3
 BYTE   W03
 BYTE   Cn4
 BYTE   W03
 BYTE   N01  Fn4
 BYTE   W03
 BYTE   N02  An4
 BYTE   W03
 BYTE   N01  Cn5
 BYTE   W03
 BYTE   N02  An4
 BYTE   W03
 BYTE   N01  Fn4
 BYTE   W03
 BYTE   N02  Cn4
 BYTE   W03
// 040   ----------------------------------------
 BYTE   N01  An3
 BYTE   W03
 BYTE   N02  Fn3
 BYTE   W03
 BYTE   Cn3
 BYTE   W03
 BYTE   An2
 BYTE   W03
 BYTE   Dn2
 BYTE   W03
 BYTE   Fn2
 BYTE   W03
 BYTE   An2
 BYTE   W03
 BYTE   Dn3
 BYTE   W03
 BYTE   N01  Fn3
 BYTE   W03
 BYTE   N02  An3
 BYTE   W03
 BYTE   Dn4
 BYTE   W03
 BYTE   N01  Fn4
 BYTE   W03
 BYTE   N02  An4
 BYTE   W03
 BYTE   Fn4
 BYTE   W03
 BYTE   N01  Dn4
 BYTE   W03
 BYTE   N02  An3
 BYTE   W03
 BYTE   Fn3
 BYTE   W03
 BYTE   Dn3
 BYTE   W03
 BYTE   An2
 BYTE   W03
 BYTE   N01  Fn2
 BYTE   W03
 BYTE   En2
 BYTE   W03
 BYTE   N02  Gs2
 BYTE   W03
 BYTE   Bn2
 BYTE   W03
 BYTE   En3
 BYTE   W03
 BYTE   Gs3
 BYTE   W03
 BYTE   Bn3
 BYTE   W03
 BYTE   En4
 BYTE   W03
 BYTE   Bn3
 BYTE   W03
 BYTE   N03  Bn4  v127
 BYTE   W03
 BYTE   N02  Gs4  v092
 BYTE   W03
 BYTE   En4
 BYTE   W03
 BYTE   Bn3
 BYTE   W03
// 041   ----------------------------------------
 BYTE   Gs3
 BYTE   W03
 BYTE   En3
 BYTE   W03
 BYTE   Bn2
 BYTE   W03
 BYTE   Gs2
 BYTE   W03
 BYTE   Dn2
 BYTE   W03
 BYTE   Fn2
 BYTE   W03
 BYTE   An2
 BYTE   W03
 BYTE   N01  Dn3
 BYTE   W03
 BYTE   N02  Fn3
 BYTE   W03
 BYTE   An3
 BYTE   W03
 BYTE   Dn4
 BYTE   W03
 BYTE   Fn4
 BYTE   W03
 BYTE   An4
 BYTE   W03
 BYTE   Fn4
 BYTE   W03
 BYTE   Dn4
 BYTE   W03
 BYTE   N01  An3
 BYTE   W03
 BYTE   N02  Fn3
 BYTE   W03
 BYTE   Dn3
 BYTE   W03
 BYTE   An2
 BYTE   W03
 BYTE   Fn2
 BYTE   W03
 BYTE   En2
 BYTE   W03
 BYTE   Gs2
 BYTE   W03
 BYTE   Bn2
 BYTE   W03
 BYTE   En3
 BYTE   W03
 BYTE   Gs3
 BYTE   W03
 BYTE   Bn3
 BYTE   W03
 BYTE   En4
 BYTE   W03
 BYTE   N01  Bn3
 BYTE   W03
 BYTE   Bn4
 BYTE   W03
 BYTE   Gs4
 BYTE   W03
 BYTE   En4
 BYTE   W03
 BYTE   N02  Bn3
 BYTE   W03
// 042   ----------------------------------------
 BYTE   N01  Gs3
 BYTE   W03
 BYTE   N02  En3
 BYTE   W03
 BYTE   Bn2
 BYTE   W03
 BYTE   Gs2
 BYTE   W84
 BYTE   W03
// 043   ----------------------------------------
 BYTE   W96
// 044   ----------------------------------------
 BYTE   W12
 BYTE   N17  An1  v127
 BYTE   W18
 BYTE   N03
 BYTE   W03
 BYTE   Bn1
 BYTE   W03
 BYTE   N23  Cn2
 BYTE   W24
 BYTE   N07  Gn2
 BYTE   W08
 BYTE   Cs2
 BYTE   W08
 BYTE   Fs2
 BYTE   W08
 BYTE   Fn2
 BYTE   W08
 BYTE   Cn2
 BYTE   W04
// 045   ----------------------------------------
 BYTE   W04
 BYTE   Bn1
 BYTE   W08
 BYTE   N23  Gs1
 BYTE   W24
 BYTE   Dn2
 BYTE   W24
 BYTE   N06  Cs2
 BYTE   W06
 BYTE   Gn1
 BYTE   W06
 BYTE   Fs1
 BYTE   W06
 BYTE   Fn1
 BYTE   W06
 BYTE   N03  An2
 BYTE   W03
 BYTE   Gs2
 BYTE   W03
 BYTE   Gn2
 BYTE   W03
 BYTE   Fs2
 BYTE   W03
// 046   ----------------------------------------
 BYTE   En2
 BYTE   W03
 BYTE   Dn2
 BYTE   W03
 BYTE   Cs2
 BYTE   W03
 BYTE   Bn1
 BYTE   W68
 BYTE   W01
 BYTE   En4  v052
 BYTE   W03
 BYTE   Fn4
 BYTE   W03
 BYTE   Fs4
 BYTE   W03
 BYTE   Gn4
 BYTE   W03
 BYTE   Fn4
 BYTE   W03
 BYTE   Fs4
 BYTE   W03
// 047   ----------------------------------------
 BYTE   Gn4
 BYTE   W03
 BYTE   Fs4
 BYTE   W03
 BYTE   Gn4
 BYTE   W03
 BYTE   Gs4
 BYTE   W03
 BYTE   An4
 BYTE   W03
 BYTE   Gn4
 BYTE   W03
 BYTE   Gs4  v080
 BYTE   W03
 BYTE   An4
 BYTE   W03
 BYTE   Gn4
 BYTE   W03
 BYTE   Gs4
 BYTE   W03
 BYTE   An4
 BYTE   W03
 BYTE   As4
 BYTE   W03
 BYTE   Gs4
 BYTE   W03
 BYTE   An4
 BYTE   W03
 BYTE   As4
 BYTE   W03
 BYTE   Bn4
 BYTE   W03
 BYTE   An4
 BYTE   W03
 BYTE   As4
 BYTE   W03
 BYTE   Bn4
 BYTE   W03
 BYTE   An4
 BYTE   W03
 BYTE   As4
 BYTE   W03
 BYTE   Bn4
 BYTE   W03
 BYTE   Cn5
 BYTE   W03
 BYTE   As4
 BYTE   W03
 BYTE   Bn4
 BYTE   W03
 BYTE   Cn5
 BYTE   W03
 BYTE   Bn4  v104
 BYTE   W03
 BYTE   Cn5
 BYTE   W03
 BYTE   Cs5
 BYTE   W03
 BYTE   Dn5
 BYTE   W03
 BYTE   Bn4
 BYTE   W03
 BYTE   Cn5
 BYTE   W03
// 048   ----------------------------------------
 BYTE   Cs5
 BYTE   W03
 BYTE   Dn5
 BYTE   W03
 BYTE   As4
 BYTE   W03
 BYTE   Bn4
 BYTE   W32
 BYTE   W01
 BYTE   N06  As3  v127
 BYTE   N06  En4
 BYTE   W36
 BYTE   An3
 BYTE   N06  Ds4
 BYTE   W18
// 049   ----------------------------------------
 BYTE   W18
 BYTE   As3
 BYTE   N06  En4
 BYTE   W36
 BYTE   Bn3
 BYTE   N06  Fn4
 BYTE   W36
 BYTE   As3
 BYTE   N06  En4
 BYTE   W06
// 050   ----------------------------------------
 BYTE   W30
 BYTE   An3
 BYTE   N06  Ds4
 BYTE   W36
 BYTE   As3
 BYTE   N06  En4
 BYTE   W30
// 051   ----------------------------------------
 BYTE   W06
 BYTE   Bn3
 BYTE   N06  Fn4
 BYTE   W06
 BYTE   N24  Gn3
 BYTE   W24
 BYTE   N17  Cn4
 BYTE   W18
 BYTE   N22  An3
 BYTE   W24
 BYTE   N16  Dn4
 BYTE   W18
// 052   ----------------------------------------
 BYTE   N24  Ds4
 BYTE   W24
 BYTE   N06
 BYTE   W06
 BYTE   Dn4
 BYTE   W06
 BYTE   Cn4
 BYTE   W06
 BYTE   N23  Dn4
 BYTE   W24
 BYTE   N16  Cn4
 BYTE   W18
 BYTE   N03  Fn3
 BYTE   N03  Bn3
 BYTE   W06
 BYTE   Fs3
 BYTE   N03  Cn4
 BYTE   W06
// 053   ----------------------------------------
 BYTE   Fn3
 BYTE   N03  Bn3
 BYTE   W06
 BYTE   Fs3
 BYTE   N03  Cn4
 BYTE   W06
 BYTE   Fn3
 BYTE   N03  Bn3
 BYTE   W06
 BYTE   Fs3
 BYTE   N03  Cn4
 BYTE   W06
 BYTE   Fn3
 BYTE   N03  Bn3
 BYTE   W06
 BYTE   Gn3
 BYTE   N03  Cs4
 BYTE   W06
 BYTE   Gs3
 BYTE   N03  Dn4
 BYTE   W06
 BYTE   Gn3
 BYTE   N03  Cs4
 BYTE   W06
 BYTE   Gs3
 BYTE   N03  Dn4
 BYTE   W06
 BYTE   Gn3
 BYTE   N03  Cs4
 BYTE   W06
 BYTE   Gs3
 BYTE   N03  Dn4
 BYTE   W06
 BYTE   Gn3
 BYTE   N03  Cs4
 BYTE   W06
 BYTE   An3
 BYTE   N03  Ds4
 BYTE   W06
 BYTE   As3
 BYTE   N03  En4
 BYTE   W06
 BYTE   An3
 BYTE   N03  Ds4
 BYTE   W06
 BYTE   As3
 BYTE   N03  En4
 BYTE   W06
// 054   ----------------------------------------
 BYTE   An3
 BYTE   N03  Ds4
 BYTE   W06
 BYTE   As3
 BYTE   N03  En4
 BYTE   W06
 BYTE   An3
 BYTE   N03  Ds4
 BYTE   W06
 BYTE   Bn3
 BYTE   N03  Fn4
 BYTE   W06
 BYTE   Cn4
 BYTE   N03  Fs4
 BYTE   W06
 BYTE   Bn3
 BYTE   N03  Fn4
 BYTE   W06
 BYTE   Cn4
 BYTE   N03  Fs4
 BYTE   W06
 BYTE   Bn3
 BYTE   N03  Fn4
 BYTE   W06
 BYTE   Cn4
 BYTE   N03  Fs4
 BYTE   W06
 BYTE   Bn3
 BYTE   N03  Fn4
 BYTE   W06
 BYTE   GoTo
  POIN2 Label_3_0142DAFB
 BYTE   FINE

//**************** Track 5 (Midi-Chn.4) ****************//

GoldenSunFusionDragonBattleMrGreen3339_005:
// 000   ----------------------------------------
 BYTE   VOL   57*GoldenSunFusionDragonBattleMrGreen3339_mvl/mxv
 BYTE   KEYSH   GoldenSunFusionDragonBattleMrGreen3339_key+0
 BYTE   VOICE   48
 BYTE   W96
// 001   ----------------------------------------
Label_4_0142E46F:
 BYTE   N06  As2  v127
 BYTE   W06
 BYTE   Fn3
 BYTE   W06
 BYTE   Fs3
 BYTE   W06
 BYTE   N06
 BYTE   W06
 BYTE   N06
 BYTE   W06
 BYTE   Fn3
 BYTE   W06
 BYTE   En3
 BYTE   W06
 BYTE   As2
 BYTE   W06
 BYTE   Fn3
 BYTE   W06
 BYTE   Fs3
 BYTE   W06
 BYTE   Gn3
 BYTE   W06
 BYTE   Gs3
 BYTE   W06
 BYTE   An3
 BYTE   W06
 BYTE   Gs3
 BYTE   W06
 BYTE   N06
 BYTE   W06
 BYTE   N06
 BYTE   W06
// 002   ----------------------------------------
 BYTE   N06
 BYTE   W06
 BYTE   N06
 BYTE   W06
 BYTE   N06
 BYTE   W06
 BYTE   N06
 BYTE   W06
 BYTE   N06
 BYTE   W06
 BYTE   N06
 BYTE   W06
 BYTE   N06
 BYTE   W06
 BYTE   N06
 BYTE   W06
 BYTE   N06
 BYTE   W06
 BYTE   N06
 BYTE   W06
 BYTE   N06
 BYTE   W06
 BYTE   N06
 BYTE   W06
 BYTE   Dn4
 BYTE   N06  Gs4
 BYTE   W06
 BYTE   Cs4
 BYTE   N06  Gn4
 BYTE   W12
 BYTE   Dn4
 BYTE   N06  Gs4
 BYTE   W06
// 003   ----------------------------------------
 BYTE   Cs4
 BYTE   N06  Gn4
 BYTE   W12
 BYTE   Dn4
 BYTE   N06  Gs4
 BYTE   W06
 BYTE   Cs4
 BYTE   N06  Gn4
 BYTE   W06
 BYTE   Cn4
 BYTE   N06  Fs4
 BYTE   W06
 BYTE   En4
 BYTE   N06  As4
 BYTE   W06
 BYTE   Ds4
 BYTE   N06  An4
 BYTE   W12
 BYTE   En4
 BYTE   N06  As4
 BYTE   W06
 BYTE   Ds4
 BYTE   N06  An4
 BYTE   W12
 BYTE   En4
 BYTE   N06  As4
 BYTE   W06
 BYTE   Ds4
 BYTE   N06  An4
 BYTE   W06
 BYTE   Dn4
 BYTE   N06  Gs4
 BYTE   W06
 BYTE   N24  An3
 BYTE   W12
// 004   ----------------------------------------
 BYTE   W12
 BYTE   En4
 BYTE   W24
 BYTE   N11  Fn4
 BYTE   W12
 BYTE   N10  Cs4
 BYTE   W12
 BYTE   N12  En4
 BYTE   W12
 BYTE   N11  Fn4
 BYTE   W12
 BYTE   N22  An3
 BYTE   W12
// 005   ----------------------------------------
 BYTE   W12
 BYTE   En4
 BYTE   W24
 BYTE   N32  Gn4
 BYTE   W36
 BYTE   N06  Fn4
 BYTE   W06
 BYTE   En4
 BYTE   W06
 BYTE   N28  Fn4
 BYTE   W12
// 006   ----------------------------------------
 BYTE   W18
 BYTE   N06  En4
 BYTE   W06
 BYTE   Dn4
 BYTE   W06
 BYTE   Cn4
 BYTE   W06
 BYTE   N22  Bn3
 BYTE   W24
 BYTE   En4
 BYTE   W24
 BYTE   N28  Fn4
 BYTE   W12
// 007   ----------------------------------------
 BYTE   W18
 BYTE   N06  Dn4
 BYTE   W06
 BYTE   Bn3
 BYTE   W06
 BYTE   Dn3
 BYTE   W06
 BYTE   N11  En4
 BYTE   W12
 BYTE   Dn4
 BYTE   W12
 BYTE   Cn4
 BYTE   W12
 BYTE   N12  Bn3
 BYTE   W12
 BYTE   N06
 BYTE   W06
 BYTE   Cn4
 BYTE   W06
// 008   ----------------------------------------
 BYTE   Ds4
 BYTE   W06
 BYTE   Dn4
 BYTE   W06
 BYTE   Fs4
 BYTE   W06
 BYTE   Fn4
 BYTE   W06
 BYTE   Ds4
 BYTE   W06
 BYTE   Cn4
 BYTE   W06
 BYTE   Bn3
 BYTE   W06
 BYTE   Cn4
 BYTE   W06
 BYTE   An3
 BYTE   W06
 BYTE   Bn3
 BYTE   W06
 BYTE   Cn4
 BYTE   W06
 BYTE   Ds4
 BYTE   W06
 BYTE   Fs4
 BYTE   W06
 BYTE   Fn4
 BYTE   W06
 BYTE   An4
 BYTE   W06
 BYTE   Gs4
 BYTE   W06
// 009   ----------------------------------------
 BYTE   Fn4
 BYTE   W06
 BYTE   Ds4
 BYTE   W06
 BYTE   Dn4
 BYTE   W06
 BYTE   Cn4
 BYTE   W06
 BYTE   Bn3
 BYTE   W06
 BYTE   Cn4
 BYTE   W06
 BYTE   An3
 BYTE   W06
 BYTE   Gs3
 BYTE   W06
 BYTE   An3
 BYTE   W06
 BYTE   Bn3
 BYTE   W06
 BYTE   Cn4
 BYTE   W06
 BYTE   Dn4
 BYTE   W06
 BYTE   En4
 BYTE   W24
// 010   ----------------------------------------
 BYTE   W18
 BYTE   Bn3
 BYTE   W06
 BYTE   As3
 BYTE   W06
 BYTE   Gn3
 BYTE   W06
 BYTE   Fs3
 BYTE   W06
 BYTE   En4
 BYTE   W06
 BYTE   Ds4
 BYTE   W06
 BYTE   Bn3
 BYTE   W06
 BYTE   An3
 BYTE   W06
 BYTE   As3
 BYTE   W06
 BYTE   Fn3
 BYTE   W06
 BYTE   Gn3
 BYTE   W06
 BYTE   Fs3
 BYTE   W06
 BYTE   Ds4
 BYTE   W06
// 011   ----------------------------------------
 BYTE   Dn4
 BYTE   W06
 BYTE   Gn3
 BYTE   W06
 BYTE   Fs3
 BYTE   W06
 BYTE   Ds4
 BYTE   W06
 BYTE   Dn4
 BYTE   W06
 BYTE   N24  An3
 BYTE   W24
 BYTE   En4
 BYTE   W24
 BYTE   N11  Fn4
 BYTE   W12
 BYTE   N10  Cs4
 BYTE   W06
// 012   ----------------------------------------
 BYTE   W06
 BYTE   N12  En4
 BYTE   W12
 BYTE   N11  Fn4
 BYTE   W12
 BYTE   N22  An3
 BYTE   W24
 BYTE   En4
 BYTE   W24
 BYTE   N32  Gn4
 BYTE   W18
// 013   ----------------------------------------
 BYTE   W18
 BYTE   N06  Fn4
 BYTE   W06
 BYTE   En4
 BYTE   W06
 BYTE   N28  Fn4
 BYTE   W30
 BYTE   N06  En4
 BYTE   W06
 BYTE   Dn4
 BYTE   W06
 BYTE   Cn4
 BYTE   W06
 BYTE   N22  Bn3
 BYTE   W18
// 014   ----------------------------------------
 BYTE   W06
 BYTE   En4
 BYTE   W24
 BYTE   N28  Fn4
 BYTE   W30
 BYTE   N06  Dn4
 BYTE   W06
 BYTE   Bn3
 BYTE   W06
 BYTE   Dn3
 BYTE   W06
 BYTE   N11  En4
 BYTE   W12
 BYTE   Dn4
 BYTE   W06
// 015   ----------------------------------------
 BYTE   W06
 BYTE   Cn4
 BYTE   W12
 BYTE   N12  Bn3
 BYTE   W12
 BYTE   N06  Dn4
 BYTE   W06
 BYTE   Cs4
 BYTE   W06
 BYTE   N06
 BYTE   W06
 BYTE   Dn4
 BYTE   W06
 BYTE   N06
 BYTE   W06
 BYTE   Cs4
 BYTE   W06
 BYTE   N06
 BYTE   W06
 BYTE   Dn4
 BYTE   W06
 BYTE   Cn4
 BYTE   W06
 BYTE   Bn3
 BYTE   W06
 BYTE   N06
 BYTE   W06
// 016   ----------------------------------------
Label_4_0142E5E5:
 BYTE   N06  Cn4  v127
 BYTE   W06
 BYTE   N06
 BYTE   W06
 BYTE   Bn3
 BYTE   W06
 BYTE   N06
 BYTE   W06
 BYTE   Cn4
 BYTE   W06
 BYTE   Bn3
 BYTE   W06
 BYTE   As3
 BYTE   W06
 BYTE   N06
 BYTE   W06
 BYTE   Bn3
 BYTE   W06
 BYTE   N06
 BYTE   W06
 BYTE   As3
 BYTE   W06
 BYTE   N06
 BYTE   W06
 BYTE   Bn3
 BYTE   W06
 BYTE   As3
 BYTE   W06
 BYTE   An3
 BYTE   W06
 BYTE   N06
 BYTE   W06
 BYTE   PEND 
// 017   ----------------------------------------
Label_4_0142E608:
 BYTE   N06  As3  v127
 BYTE   W06
 BYTE   N06
 BYTE   W06
 BYTE   An3
 BYTE   W06
 BYTE   N06
 BYTE   W06
 BYTE   As3
 BYTE   W06
 BYTE   Dn4
 BYTE   W06
 BYTE   Cs4
 BYTE   W06
 BYTE   N06
 BYTE   W06
 BYTE   Dn4
 BYTE   W06
 BYTE   N06
 BYTE   W06
 BYTE   Cs4
 BYTE   W06
 BYTE   N06
 BYTE   W06
 BYTE   Dn4
 BYTE   W06
 BYTE   Cn4
 BYTE   W06
 BYTE   Bn3
 BYTE   W06
 BYTE   N06
 BYTE   W06
 BYTE   PEND 
 BYTE   PATT
  POIN2 Label_4_0142E5E5
 BYTE   PATT
  POIN2 Label_4_0142E608
 BYTE   PATT
  POIN2 Label_4_0142E5E5
// 018   ----------------------------------------
 BYTE   N06  As3  v127
 BYTE   W06
 BYTE   N06
 BYTE   W06
 BYTE   An3
 BYTE   W06
 BYTE   N06
 BYTE   W06
 BYTE   As3
 BYTE   W36
 BYTE   Fs3
 BYTE   N06  En4
 BYTE   W36
// 019   ----------------------------------------
 BYTE   Fn3
 BYTE   N06  Ds4
 BYTE   W36
 BYTE   Fs3
 BYTE   N06  En4
 BYTE   W36
 BYTE   Gn3
 BYTE   N06  Fn4
 BYTE   W24
// 020   ----------------------------------------
 BYTE   W12
 BYTE   Fs3
 BYTE   N06  En4
 BYTE   W36
 BYTE   Fn3
 BYTE   N06  Ds4
 BYTE   W36
 BYTE   Fs3
 BYTE   N06  En4
 BYTE   W12
// 021   ----------------------------------------
 BYTE   W24
 BYTE   Gn3
 BYTE   N06  Fn4
 BYTE   W06
 BYTE   N24  Gn3
 BYTE   W24
 BYTE   N17  Cn4
 BYTE   W18
 BYTE   N22  An3
 BYTE   W24
// 022   ----------------------------------------
 BYTE   N16  Dn4
 BYTE   W18
 BYTE   N24  Ds4
 BYTE   W24
 BYTE   N06
 BYTE   W06
 BYTE   Dn4
 BYTE   W06
 BYTE   Cn4
 BYTE   W06
 BYTE   N23  Dn4
 BYTE   W24
 BYTE   N16  Cn4
 BYTE   W12
// 023   ----------------------------------------
 BYTE   W06
 BYTE   N03  Fn3
 BYTE   N03  Bn3
 BYTE   W06
 BYTE   Fs3
 BYTE   N03  Cn4
 BYTE   W06
 BYTE   Fn3
 BYTE   N03  Bn3
 BYTE   W06
 BYTE   Fs3
 BYTE   N03  Cn4
 BYTE   W06
 BYTE   Fn3
 BYTE   N03  Bn3
 BYTE   W06
 BYTE   Fs3
 BYTE   N03  Cn4
 BYTE   W06
 BYTE   Fn3
 BYTE   N03  Bn3
 BYTE   W06
 BYTE   Gn3
 BYTE   N03  Cs4
 BYTE   W06
 BYTE   Gs3
 BYTE   N03  Dn4
 BYTE   W06
 BYTE   Gn3
 BYTE   N03  Cs4
 BYTE   W06
 BYTE   Gs3
 BYTE   N03  Dn4
 BYTE   W06
 BYTE   Gn3
 BYTE   N03  Cs4
 BYTE   W06
 BYTE   Gs3
 BYTE   N03  Dn4
 BYTE   W06
 BYTE   Gn3
 BYTE   N03  Cs4
 BYTE   W06
 BYTE   An3
 BYTE   N03  Ds4
 BYTE   W06
// 024   ----------------------------------------
 BYTE   As3
 BYTE   N03  En4
 BYTE   W06
 BYTE   An3
 BYTE   N03  Ds4
 BYTE   W06
 BYTE   As3
 BYTE   N03  En4
 BYTE   W06
 BYTE   An3
 BYTE   N03  Ds4
 BYTE   W06
 BYTE   As3
 BYTE   N03  En4
 BYTE   W06
 BYTE   An3
 BYTE   N03  Ds4
 BYTE   W06
 BYTE   Bn3
 BYTE   N03  Fn4
 BYTE   W06
 BYTE   Cn4
 BYTE   N03  Fs4
 BYTE   W06
 BYTE   Bn3
 BYTE   N03  Fn4
 BYTE   W06
 BYTE   Cn4
 BYTE   N03  Fs4
 BYTE   W06
 BYTE   Bn3
 BYTE   N03  Fn4
 BYTE   W06
 BYTE   Cn4
 BYTE   N03  Fs4
 BYTE   W06
 BYTE   Bn3
 BYTE   N03  Fn4
 BYTE   W06
 BYTE   N06  As2
 BYTE   W06
 BYTE   Fn3
 BYTE   W06
 BYTE   Fs3
 BYTE   W06
// 025   ----------------------------------------
 BYTE   N06
 BYTE   W06
 BYTE   N06
 BYTE   W06
 BYTE   Fn3
 BYTE   W06
 BYTE   En3
 BYTE   W06
 BYTE   As2
 BYTE   W06
 BYTE   Fn3
 BYTE   W06
 BYTE   Fs3
 BYTE   W06
 BYTE   Gn3
 BYTE   W06
 BYTE   Gs3
 BYTE   W06
 BYTE   An3
 BYTE   W06
 BYTE   Gs3
 BYTE   W06
 BYTE   N06
 BYTE   W06
 BYTE   N06
 BYTE   W06
 BYTE   N06
 BYTE   W06
 BYTE   N06
 BYTE   W06
 BYTE   N06
 BYTE   W06
// 026   ----------------------------------------
 BYTE   N06
 BYTE   W06
 BYTE   N06
 BYTE   W06
 BYTE   N06
 BYTE   W06
 BYTE   N06
 BYTE   W06
 BYTE   N06
 BYTE   W06
 BYTE   N06
 BYTE   W06
 BYTE   N06
 BYTE   W06
 BYTE   N06
 BYTE   W06
 BYTE   N06
 BYTE   W06
 BYTE   Dn4
 BYTE   N06  Gs4
 BYTE   W06
 BYTE   Cs4
 BYTE   N06  Gn4
 BYTE   W12
 BYTE   Dn4
 BYTE   N06  Gs4
 BYTE   W06
 BYTE   Cs4
 BYTE   N06  Gn4
 BYTE   W12
 BYTE   Dn4
 BYTE   N06  Gs4
 BYTE   W06
// 027   ----------------------------------------
 BYTE   Cs4
 BYTE   N06  Gn4
 BYTE   W06
 BYTE   Cn4
 BYTE   N06  Fs4
 BYTE   W06
 BYTE   En4
 BYTE   N06  As4
 BYTE   W06
 BYTE   Ds4
 BYTE   N06  An4
 BYTE   W12
 BYTE   En4
 BYTE   N06  As4
 BYTE   W06
 BYTE   Ds4
 BYTE   N06  An4
 BYTE   W12
 BYTE   En4
 BYTE   N06  As4
 BYTE   W06
 BYTE   Ds4
 BYTE   N06  An4
 BYTE   W06
 BYTE   Dn4
 BYTE   N06  Gs4
 BYTE   W06
 BYTE   N24  An3
 BYTE   W24
 BYTE   En4
 BYTE   W06
// 028   ----------------------------------------
 BYTE   W18
 BYTE   N11  Fn4
 BYTE   W12
 BYTE   N10  Cs4
 BYTE   W12
 BYTE   N12  En4
 BYTE   W12
 BYTE   N11  Fn4
 BYTE   W12
 BYTE   N22  An3
 BYTE   W24
 BYTE   En4
 BYTE   W06
// 029   ----------------------------------------
 BYTE   W18
 BYTE   N32  Gn4
 BYTE   W36
 BYTE   N06  Fn4
 BYTE   W06
 BYTE   En4
 BYTE   W06
 BYTE   N28  Fn4
 BYTE   W30
// 030   ----------------------------------------
 BYTE   N06  En4
 BYTE   W06
 BYTE   Dn4
 BYTE   W06
 BYTE   Cn4
 BYTE   W06
 BYTE   N22  Bn3
 BYTE   W24
 BYTE   En4
 BYTE   W24
 BYTE   N28  Fn4
 BYTE   W30
// 031   ----------------------------------------
 BYTE   N06  Dn4
 BYTE   W06
 BYTE   Bn3
 BYTE   W06
 BYTE   Dn3
 BYTE   W06
 BYTE   N11  En4
 BYTE   W12
 BYTE   Dn4
 BYTE   W12
 BYTE   Cn4
 BYTE   W12
 BYTE   N12  Bn3
 BYTE   W12
 BYTE   N06
 BYTE   W06
 BYTE   Cn4
 BYTE   W06
 BYTE   Ds4
 BYTE   W06
 BYTE   Dn4
 BYTE   W06
 BYTE   Fs4
 BYTE   W06
// 032   ----------------------------------------
 BYTE   Fn4
 BYTE   W06
 BYTE   Ds4
 BYTE   W06
 BYTE   Cn4
 BYTE   W06
 BYTE   Bn3
 BYTE   W06
 BYTE   Cn4
 BYTE   W06
 BYTE   An3
 BYTE   W06
 BYTE   Bn3
 BYTE   W06
 BYTE   Cn4
 BYTE   W06
 BYTE   Ds4
 BYTE   W06
 BYTE   Fs4
 BYTE   W06
 BYTE   Fn4
 BYTE   W06
 BYTE   An4
 BYTE   W06
 BYTE   Gs4
 BYTE   W06
 BYTE   Fn4
 BYTE   W06
 BYTE   Ds4
 BYTE   W06
 BYTE   Dn4
 BYTE   W06
// 033   ----------------------------------------
 BYTE   Cn4
 BYTE   W06
 BYTE   Bn3
 BYTE   W06
 BYTE   Cn4
 BYTE   W06
 BYTE   An3
 BYTE   W06
 BYTE   Gs3
 BYTE   W06
 BYTE   An3
 BYTE   W06
 BYTE   Bn3
 BYTE   W06
 BYTE   Cn4
 BYTE   W06
 BYTE   Dn4
 BYTE   W06
 BYTE   En4
 BYTE   W42
// 034   ----------------------------------------
 BYTE   Bn3
 BYTE   W06
 BYTE   As3
 BYTE   W06
 BYTE   Gn3
 BYTE   W06
 BYTE   Fs3
 BYTE   W06
 BYTE   En4
 BYTE   W06
 BYTE   Ds4
 BYTE   W06
 BYTE   Bn3
 BYTE   W06
 BYTE   An3
 BYTE   W06
 BYTE   As3
 BYTE   W06
 BYTE   Fn3
 BYTE   W06
 BYTE   Gn3
 BYTE   W06
 BYTE   Fs3
 BYTE   W06
 BYTE   Ds4
 BYTE   W06
 BYTE   Dn4
 BYTE   W06
 BYTE   Gn3
 BYTE   W06
 BYTE   Fs3
 BYTE   W06
// 035   ----------------------------------------
 BYTE   Ds4
 BYTE   W06
 BYTE   Dn4
 BYTE   W06
 BYTE   N24  An3
 BYTE   W24
 BYTE   En4
 BYTE   W24
 BYTE   N11  Fn4
 BYTE   W12
 BYTE   N10  Cs4
 BYTE   W12
 BYTE   N12  En4
 BYTE   W12
// 036   ----------------------------------------
 BYTE   N11  Fn4
 BYTE   W12
 BYTE   N22  An3
 BYTE   W24
 BYTE   En4
 BYTE   W24
 BYTE   N32  Gn4
 BYTE   W36
// 037   ----------------------------------------
 BYTE   N06  Fn4
 BYTE   W06
 BYTE   En4
 BYTE   W06
 BYTE   N28  Fn4
 BYTE   W30
 BYTE   N06  En4
 BYTE   W06
 BYTE   Dn4
 BYTE   W06
 BYTE   Cn4
 BYTE   W06
 BYTE   N22  Bn3
 BYTE   W24
 BYTE   En4
 BYTE   W12
// 038   ----------------------------------------
 BYTE   W12
 BYTE   N28  Fn4
 BYTE   W30
 BYTE   N06  Dn4
 BYTE   W06
 BYTE   Bn3
 BYTE   W06
 BYTE   Dn3
 BYTE   W06
 BYTE   N11  En4
 BYTE   W12
 BYTE   Dn4
 BYTE   W12
 BYTE   Cn4
 BYTE   W12
// 039   ----------------------------------------
 BYTE   N12  Bn3
 BYTE   W12
 BYTE   N06  Dn4
 BYTE   W06
 BYTE   Cs4
 BYTE   W06
 BYTE   N06
 BYTE   W06
 BYTE   Dn4
 BYTE   W06
 BYTE   N06
 BYTE   W06
 BYTE   Cs4
 BYTE   W06
 BYTE   N06
 BYTE   W06
 BYTE   Dn4
 BYTE   W06
 BYTE   Cn4
 BYTE   W06
 BYTE   Bn3
 BYTE   W06
 BYTE   N06
 BYTE   W06
 BYTE   Cn4
 BYTE   W06
 BYTE   N06
 BYTE   W06
 BYTE   Bn3
 BYTE   W06
// 040   ----------------------------------------
Label_4_0142E86A:
 BYTE   N06  Bn3  v127
 BYTE   W06
 BYTE   Cn4
 BYTE   W06
 BYTE   Bn3
 BYTE   W06
 BYTE   As3
 BYTE   W06
 BYTE   N06
 BYTE   W06
 BYTE   Bn3
 BYTE   W06
 BYTE   N06
 BYTE   W06
 BYTE   As3
 BYTE   W06
 BYTE   N06
 BYTE   W06
 BYTE   Bn3
 BYTE   W06
 BYTE   As3
 BYTE   W06
 BYTE   An3
 BYTE   W06
 BYTE   N06
 BYTE   W06
 BYTE   As3
 BYTE   W06
 BYTE   N06
 BYTE   W06
 BYTE   An3
 BYTE   W06
 BYTE   PEND 
// 041   ----------------------------------------
Label_4_0142E88D:
 BYTE   N06  An3  v127
 BYTE   W06
 BYTE   As3
 BYTE   W06
 BYTE   Dn4
 BYTE   W06
 BYTE   Cs4
 BYTE   W06
 BYTE   N06
 BYTE   W06
 BYTE   Dn4
 BYTE   W06
 BYTE   N06
 BYTE   W06
 BYTE   Cs4
 BYTE   W06
 BYTE   N06
 BYTE   W06
 BYTE   Dn4
 BYTE   W06
 BYTE   Cn4
 BYTE   W06
 BYTE   Bn3
 BYTE   W06
 BYTE   N06
 BYTE   W06
 BYTE   Cn4
 BYTE   W06
 BYTE   N06
 BYTE   W06
 BYTE   Bn3
 BYTE   W06
 BYTE   PEND 
 BYTE   PATT
  POIN2 Label_4_0142E86A
 BYTE   PATT
  POIN2 Label_4_0142E88D
 BYTE   PATT
  POIN2 Label_4_0142E86A
// 042   ----------------------------------------
 BYTE   N06  An3  v127
 BYTE   W06
 BYTE   As3
 BYTE   W36
 BYTE   Fs3
 BYTE   N06  En4
 BYTE   W36
 BYTE   Fn3
 BYTE   N06  Ds4
 BYTE   W18
// 043   ----------------------------------------
 BYTE   W18
 BYTE   Fs3
 BYTE   N06  En4
 BYTE   W36
 BYTE   Gn3
 BYTE   N06  Fn4
 BYTE   W36
 BYTE   Fs3
 BYTE   N06  En4
 BYTE   W06
// 044   ----------------------------------------
 BYTE   W30
 BYTE   Fn3
 BYTE   N06  Ds4
 BYTE   W36
 BYTE   Fs3
 BYTE   N06  En4
 BYTE   W30
// 045   ----------------------------------------
 BYTE   W06
 BYTE   Gn3
 BYTE   N06  Fn4
 BYTE   W06
 BYTE   N24  Gn3
 BYTE   W24
 BYTE   N17  Cn4
 BYTE   W18
 BYTE   N22  An3
 BYTE   W24
 BYTE   N16  Dn4
 BYTE   W18
// 046   ----------------------------------------
 BYTE   N24  Ds4
 BYTE   W24
 BYTE   N06
 BYTE   W06
 BYTE   Dn4
 BYTE   W06
 BYTE   Cn4
 BYTE   W06
 BYTE   N23  Dn4
 BYTE   W24
 BYTE   N16  Cn4
 BYTE   W18
 BYTE   N03  Fn3
 BYTE   N03  Bn3
 BYTE   W06
 BYTE   Fs3
 BYTE   N03  Cn4
 BYTE   W06
// 047   ----------------------------------------
 BYTE   Fn3
 BYTE   N03  Bn3
 BYTE   W06
 BYTE   Fs3
 BYTE   N03  Cn4
 BYTE   W06
 BYTE   Fn3
 BYTE   N03  Bn3
 BYTE   W06
 BYTE   Fs3
 BYTE   N03  Cn4
 BYTE   W06
 BYTE   Fn3
 BYTE   N03  Bn3
 BYTE   W06
 BYTE   Gn3
 BYTE   N03  Cs4
 BYTE   W06
 BYTE   Gs3
 BYTE   N03  Dn4
 BYTE   W06
 BYTE   Gn3
 BYTE   N03  Cs4
 BYTE   W06
 BYTE   Gs3
 BYTE   N03  Dn4
 BYTE   W06
 BYTE   Gn3
 BYTE   N03  Cs4
 BYTE   W06
 BYTE   Gs3
 BYTE   N03  Dn4
 BYTE   W06
 BYTE   Gn3
 BYTE   N03  Cs4
 BYTE   W06
 BYTE   An3
 BYTE   N03  Ds4
 BYTE   W06
 BYTE   As3
 BYTE   N03  En4
 BYTE   W06
 BYTE   An3
 BYTE   N03  Ds4
 BYTE   W06
 BYTE   As3
 BYTE   N03  En4
 BYTE   W06
// 048   ----------------------------------------
 BYTE   An3
 BYTE   N03  Ds4
 BYTE   W06
 BYTE   As3
 BYTE   N03  En4
 BYTE   W06
 BYTE   An3
 BYTE   N03  Ds4
 BYTE   W06
 BYTE   Bn3
 BYTE   N03  Fn4
 BYTE   W06
 BYTE   Cn4
 BYTE   N03  Fs4
 BYTE   W06
 BYTE   Bn3
 BYTE   N03  Fn4
 BYTE   W06
 BYTE   Cn4
 BYTE   N03  Fs4
 BYTE   W06
 BYTE   Bn3
 BYTE   N03  Fn4
 BYTE   W06
 BYTE   Cn4
 BYTE   N03  Fs4
 BYTE   W06
 BYTE   Bn3
 BYTE   N03  Fn4
 BYTE   W06
 BYTE   GoTo
  POIN2 Label_4_0142E46F
 BYTE   FINE

//**************** Track 6 (Midi-Chn.5) ****************//

GoldenSunFusionDragonBattleMrGreen3339_006:
// 000   ----------------------------------------
 BYTE   VOL   57*GoldenSunFusionDragonBattleMrGreen3339_mvl/mxv
 BYTE   KEYSH   GoldenSunFusionDragonBattleMrGreen3339_key+0
 BYTE   VOICE   70
 BYTE   W96
// 001   ----------------------------------------
Label_5_0142E983:
 BYTE   W96
// 002   ----------------------------------------
 BYTE   W96
// 003   ----------------------------------------
 BYTE   W96
// 004   ----------------------------------------
 BYTE   W96
// 005   ----------------------------------------
 BYTE   W96
// 006   ----------------------------------------
 BYTE   W96
// 007   ----------------------------------------
 BYTE   W96
// 008   ----------------------------------------
 BYTE   W96
// 009   ----------------------------------------
 BYTE   W96
// 010   ----------------------------------------
 BYTE   W96
// 011   ----------------------------------------
 BYTE   W96
// 012   ----------------------------------------
 BYTE   W96
// 013   ----------------------------------------
 BYTE   W96
// 014   ----------------------------------------
 BYTE   W96
// 015   ----------------------------------------
 BYTE   W96
// 016   ----------------------------------------
 BYTE   W96
// 017   ----------------------------------------
 BYTE   W30
 BYTE   N28  En4  v127
 BYTE   W15
 BYTE   MOD 0
 BYTE   DnM2
 BYTE   W01
 BYTE   CnM1
 BYTE   W01
 BYTE   BnM1
 BYTE   W01
 BYTE   Gn0
 BYTE   W01
 BYTE   Fn1
 BYTE   W01
 BYTE   Ds2
 BYTE   W01
 BYTE   Dn3
 BYTE   W01
 BYTE   Cn4
 BYTE   W01
 BYTE   As4
 BYTE   W01
 BYTE   An5
 BYTE   W01
 BYTE   Fn6
 BYTE   W05
 BYTE   CnM2
 BYTE   N08  Fn4
 BYTE   W09
 BYTE   En4
 BYTE   W09
 BYTE   N22  Ds4
 BYTE   W18
// 018   ----------------------------------------
 BYTE   W06
 BYTE   Bn3
 BYTE   W24
 BYTE   N28  Dn4
 BYTE   W12
 BYTE   MOD 0
 BYTE   CsM2
 BYTE   W01
 BYTE   GnM2
 BYTE   W01
 BYTE   CsM1
 BYTE   W01
 BYTE   GnM1
 BYTE   W01
 BYTE   Dn0
 BYTE   W01
 BYTE   Gs0
 BYTE   W01
 BYTE   Dn1
 BYTE   W01
 BYTE   Gs1
 BYTE   W01
 BYTE   Dn2
 BYTE   W01
 BYTE   Gs2
 BYTE   W01
 BYTE   Cs3
 BYTE   W01
 BYTE   Ds3
 BYTE   W07
 BYTE   CnM2
 BYTE   N08  Cs4
 BYTE   W09
 BYTE   Bn3
 BYTE   W09
 BYTE   N48  As3
 BYTE   W17
 BYTE   MOD 0
 BYTE   CsM2
 BYTE   W01
// 019   ----------------------------------------
 BYTE   GsM2
 BYTE   W01
 BYTE   DsM1
 BYTE   W01
 BYTE   AnM1
 BYTE   W01
 BYTE   En0
 BYTE   W01
 BYTE   An0
 BYTE   W01
 BYTE   En1
 BYTE   W01
 BYTE   Bn1
 BYTE   W01
 BYTE   Fn2
 BYTE   W01
 BYTE   Cn3
 BYTE   W01
 BYTE   Gn3
 BYTE   W01
 BYTE   Cs4
 BYTE   W01
 BYTE   Gs4
 BYTE   W01
 BYTE   Cn5
 BYTE   W16
 BYTE   CnM2
 BYTE   W02
 BYTE   CnM2
 BYTE   W66
// 020   ----------------------------------------
 BYTE   W96
// 021   ----------------------------------------
 BYTE   W96
// 022   ----------------------------------------
 BYTE   W78
 BYTE   N03  An3  v040
 BYTE   W03
 BYTE   Gs3
 BYTE   W03
 BYTE   En3  v056
 BYTE   W03
 BYTE   Gs3
 BYTE   W03
 BYTE   An3
 BYTE   W03
 BYTE   As3
 BYTE   W03
// 023   ----------------------------------------
 BYTE   En3  v040
 BYTE   W03
 BYTE   Fs3
 BYTE   W03
 BYTE   En3
 BYTE   W03
 BYTE   Gs3
 BYTE   W03
 BYTE   An3
 BYTE   W03
 BYTE   As3
 BYTE   W03
 BYTE   Bn3  v060
 BYTE   W03
 BYTE   Fn3
 BYTE   W03
 BYTE   Gn3
 BYTE   W03
 BYTE   An3
 BYTE   W03
 BYTE   Bn3
 BYTE   W03
 BYTE   Cn4
 BYTE   W03
 BYTE   Gn3
 BYTE   W03
 BYTE   An3
 BYTE   W03
 BYTE   Fn3
 BYTE   W03
 BYTE   Gn3
 BYTE   W03
 BYTE   En3
 BYTE   W03
 BYTE   Fn3
 BYTE   W03
 BYTE   Ds3
 BYTE   W03
 BYTE   Dn3
 BYTE   W03
 BYTE   Ds3
 BYTE   W03
 BYTE   En3
 BYTE   W03
 BYTE   Fs3  v080
 BYTE   W03
 BYTE   Gn3
 BYTE   W03
 BYTE   Ds3
 BYTE   W03
 BYTE   En3
 BYTE   W03
 BYTE   Fn3
 BYTE   W03
 BYTE   Gs3
 BYTE   W03
 BYTE   As3
 BYTE   W03
 BYTE   Dn3
 BYTE   W03
 BYTE   Ds3
 BYTE   W03
 BYTE   Fs3  v084
 BYTE   W03
// 024   ----------------------------------------
 BYTE   Gs3
 BYTE   W03
 BYTE   As3
 BYTE   W03
 BYTE   Dn3
 BYTE   W03
 BYTE   Ds3
 BYTE   W03
 BYTE   En3
 BYTE   W03
 BYTE   Fs3
 BYTE   W03
 BYTE   Gn3
 BYTE   W03
 BYTE   As3
 BYTE   W03
 BYTE   En3
 BYTE   W03
 BYTE   Fs3
 BYTE   W68
 BYTE   W01
// 025   ----------------------------------------
 BYTE   W96
// 026   ----------------------------------------
 BYTE   W96
// 027   ----------------------------------------
 BYTE   W96
// 028   ----------------------------------------
 BYTE   W96
// 029   ----------------------------------------
 BYTE   W96
// 030   ----------------------------------------
 BYTE   W96
// 031   ----------------------------------------
 BYTE   W96
// 032   ----------------------------------------
 BYTE   W96
// 033   ----------------------------------------
 BYTE   W96
// 034   ----------------------------------------
 BYTE   W96
// 035   ----------------------------------------
 BYTE   W96
// 036   ----------------------------------------
 BYTE   W96
// 037   ----------------------------------------
 BYTE   W96
// 038   ----------------------------------------
 BYTE   W96
// 039   ----------------------------------------
 BYTE   W96
// 040   ----------------------------------------
 BYTE   W96
// 041   ----------------------------------------
 BYTE   W96
// 042   ----------------------------------------
 BYTE   W96
// 043   ----------------------------------------
 BYTE   W96
// 044   ----------------------------------------
 BYTE   W12
 BYTE   N28  En4  v127
 BYTE   W15
 BYTE   MOD 0
 BYTE   DnM2
 BYTE   W01
 BYTE   CnM1
 BYTE   W01
 BYTE   BnM1
 BYTE   W01
 BYTE   Gn0
 BYTE   W01
 BYTE   Fn1
 BYTE   W01
 BYTE   Ds2
 BYTE   W01
 BYTE   Dn3
 BYTE   W01
 BYTE   Cn4
 BYTE   W01
 BYTE   As4
 BYTE   W01
 BYTE   An5
 BYTE   W01
 BYTE   Fn6
 BYTE   W05
 BYTE   CnM2
 BYTE   N08  Fn4
 BYTE   W09
 BYTE   En4
 BYTE   W09
 BYTE   N22  Ds4
 BYTE   W24
 BYTE   Bn3
 BYTE   W12
// 045   ----------------------------------------
 BYTE   W12
 BYTE   N28  Dn4
 BYTE   W12
 BYTE   MOD 0
 BYTE   CsM2
 BYTE   W01
 BYTE   GnM2
 BYTE   W01
 BYTE   CsM1
 BYTE   W01
 BYTE   GnM1
 BYTE   W01
 BYTE   Dn0
 BYTE   W01
 BYTE   Gs0
 BYTE   W01
 BYTE   Dn1
 BYTE   W01
 BYTE   Gs1
 BYTE   W01
 BYTE   Dn2
 BYTE   W01
 BYTE   Gs2
 BYTE   W01
 BYTE   Cs3
 BYTE   W01
 BYTE   Ds3
 BYTE   W07
 BYTE   CnM2
 BYTE   N08  Cs4
 BYTE   W09
 BYTE   Bn3
 BYTE   W09
 BYTE   N48  As3
 BYTE   W17
 BYTE   MOD 0
 BYTE   CsM2
 BYTE   W01
 BYTE   GsM2
 BYTE   W01
 BYTE   DsM1
 BYTE   W01
 BYTE   AnM1
 BYTE   W01
 BYTE   En0
 BYTE   W01
 BYTE   An0
 BYTE   W01
 BYTE   En1
 BYTE   W01
 BYTE   Bn1
 BYTE   W01
 BYTE   Fn2
 BYTE   W01
 BYTE   Cn3
 BYTE   W01
 BYTE   Gn3
 BYTE   W01
 BYTE   Cs4
 BYTE   W01
 BYTE   Gs4
 BYTE   W01
 BYTE   Cn5
 BYTE   W06
// 046   ----------------------------------------
 BYTE   W10
 BYTE   CnM2
 BYTE   W02
 BYTE   CnM2
 BYTE   W84
// 047   ----------------------------------------
 BYTE   W96
// 048   ----------------------------------------
 BYTE   W96
// 049   ----------------------------------------
 BYTE   W60
 BYTE   N03  An3  v040
 BYTE   W03
 BYTE   Gs3
 BYTE   W03
 BYTE   En3  v056
 BYTE   W03
 BYTE   Gs3
 BYTE   W03
 BYTE   An3
 BYTE   W03
 BYTE   As3
 BYTE   W03
 BYTE   En3  v040
 BYTE   W03
 BYTE   Fs3
 BYTE   W03
 BYTE   En3
 BYTE   W03
 BYTE   Gs3
 BYTE   W03
 BYTE   An3
 BYTE   W03
 BYTE   As3
 BYTE   W03
// 050   ----------------------------------------
 BYTE   Bn3  v060
 BYTE   W03
 BYTE   Fn3
 BYTE   W03
 BYTE   Gn3
 BYTE   W03
 BYTE   An3
 BYTE   W03
 BYTE   Bn3
 BYTE   W03
 BYTE   Cn4
 BYTE   W03
 BYTE   Gn3
 BYTE   W03
 BYTE   An3
 BYTE   W03
 BYTE   Fn3
 BYTE   W03
 BYTE   Gn3
 BYTE   W03
 BYTE   En3
 BYTE   W03
 BYTE   Fn3
 BYTE   W03
 BYTE   Ds3
 BYTE   W03
 BYTE   Dn3
 BYTE   W03
 BYTE   Ds3
 BYTE   W03
 BYTE   En3
 BYTE   W03
 BYTE   Fs3  v080
 BYTE   W03
 BYTE   Gn3
 BYTE   W03
 BYTE   Ds3
 BYTE   W03
 BYTE   En3
 BYTE   W03
 BYTE   Fn3
 BYTE   W03
 BYTE   Gs3
 BYTE   W03
 BYTE   As3
 BYTE   W03
 BYTE   Dn3
 BYTE   W03
 BYTE   Ds3
 BYTE   W03
 BYTE   Fs3  v084
 BYTE   W03
 BYTE   Gs3
 BYTE   W03
 BYTE   As3
 BYTE   W03
 BYTE   Dn3
 BYTE   W03
 BYTE   Ds3
 BYTE   W03
 BYTE   En3
 BYTE   W03
 BYTE   Fs3
 BYTE   W03
// 051   ----------------------------------------
 BYTE   Gn3
 BYTE   W03
 BYTE   As3
 BYTE   W03
 BYTE   En3
 BYTE   W03
 BYTE   Fs3
 BYTE   W84
 BYTE   W03
// 052   ----------------------------------------
 BYTE   W96
// 053   ----------------------------------------
 BYTE   W96
// 054   ----------------------------------------
 BYTE   W60
 BYTE   GoTo
  POIN2 Label_5_0142E983
 BYTE   FINE

//**************** Track 7 (Midi-Chn.6) ****************//

GoldenSunFusionDragonBattleMrGreen3339_007:
// 000   ----------------------------------------
 BYTE   KEYSH   GoldenSunFusionDragonBattleMrGreen3339_key+0
 BYTE   VOICE   62
 BYTE   VOL   34*GoldenSunFusionDragonBattleMrGreen3339_mvl/mxv
 BYTE   PAN   c_v+30
 BYTE   W96
// 001   ----------------------------------------
Label_6_0142EB6D:
 BYTE   W96
// 002   ----------------------------------------
 BYTE   W96
// 003   ----------------------------------------
 BYTE   W96
// 004   ----------------------------------------
 BYTE   W96
// 005   ----------------------------------------
 BYTE   W96
// 006   ----------------------------------------
 BYTE   W96
// 007   ----------------------------------------
 BYTE   W96
// 008   ----------------------------------------
 BYTE   W96
// 009   ----------------------------------------
 BYTE   W96
// 010   ----------------------------------------
 BYTE   W96
// 011   ----------------------------------------
 BYTE   W96
// 012   ----------------------------------------
 BYTE   W96
// 013   ----------------------------------------
 BYTE   W96
// 014   ----------------------------------------
 BYTE   W96
// 015   ----------------------------------------
 BYTE   W96
// 016   ----------------------------------------
 BYTE   W96
// 017   ----------------------------------------
 BYTE   W96
// 018   ----------------------------------------
 BYTE   W96
// 019   ----------------------------------------
 BYTE   W96
// 020   ----------------------------------------
 BYTE   W96
// 021   ----------------------------------------
 BYTE   W96
// 022   ----------------------------------------
 BYTE   W96
// 023   ----------------------------------------
 BYTE   W96
// 024   ----------------------------------------
 BYTE   W30
 BYTE   N03  En2  v080
 BYTE   W03
 BYTE   En2  v127
 BYTE   N03  Gn2  v080
 BYTE   W03
 BYTE   Gn2  v127
 BYTE   N03  Cn3  v080
 BYTE   W03
 BYTE   Cn3  v127
 BYTE   N03  En3  v080
 BYTE   W03
 BYTE   Gn2  v127
 BYTE   N03  Cn3  v080
 BYTE   W03
 BYTE   Cn3  v127
 BYTE   N03  En3  v080
 BYTE   W03
 BYTE   En3  v127
 BYTE   N03  Gn3  v080
 BYTE   W03
 BYTE   Cn3  v127
 BYTE   N03  En3  v080
 BYTE   W03
 BYTE   En3  v127
 BYTE   N03  Gn3  v080
 BYTE   W03
 BYTE   Gn3  v127
 BYTE   N03  Cn4  v080
 BYTE   W03
 BYTE   En3  v127
 BYTE   N03  Gn3  v080
 BYTE   W03
 BYTE   Gn3  v127
 BYTE   N03  Cn4  v080
 BYTE   W03
 BYTE   Cn4  v127
 BYTE   N03  En4  v080
 BYTE   W03
 BYTE   Gn3  v127
 BYTE   N03  Cn4  v080
 BYTE   W03
 BYTE   Fs2  v127
 BYTE   N03  An2  v064
 BYTE   W03
 BYTE   An2  v127
 BYTE   N03  Dn3  v064
 BYTE   W03
 BYTE   Dn3  v127
 BYTE   N03  Fs3  v064
 BYTE   W03
 BYTE   An2  v127
 BYTE   N03  Dn3  v064
 BYTE   W03
 BYTE   Dn3  v127
 BYTE   N03  Fs3  v064
 BYTE   W03
 BYTE   Fs3  v127
 BYTE   N03  An3  v064
 BYTE   W03
 BYTE   Dn3  v127
 BYTE   N03  Fs3  v064
 BYTE   W03
 BYTE   Fs3  v127
 BYTE   N03  An3  v064
 BYTE   W03
// 025   ----------------------------------------
 BYTE   An3  v127
 BYTE   N03  Dn4  v064
 BYTE   W03
 BYTE   Dn4  v127
 BYTE   N03  Fs4  v064
 BYTE   W03
 BYTE   An3  v127
 BYTE   N03  Dn4  v064
 BYTE   W03
 BYTE   Fs3  v127
 BYTE   N03  An3  v064
 BYTE   W03
 BYTE   An3  v127
 BYTE   N03  Dn4  v064
 BYTE   W03
 BYTE   Fs3  v127
 BYTE   N03  An3  v064
 BYTE   W03
 BYTE   As2  v127
 BYTE   N03  Ds3  v064
 BYTE   W03
 BYTE   Ds3  v127
 BYTE   N03  Gn3  v064
 BYTE   W03
 BYTE   Gn3  v127
 BYTE   N03  As3  v064
 BYTE   W03
 BYTE   Ds3  v127
 BYTE   N03  Gn3  v064
 BYTE   W03
 BYTE   Gn3  v127
 BYTE   N03  As3  v064
 BYTE   W03
 BYTE   As3  v127
 BYTE   N03  Ds4  v064
 BYTE   W03
 BYTE   Gn3  v127
 BYTE   N03  As3  v064
 BYTE   W03
 BYTE   As3  v127
 BYTE   N03  Ds4  v064
 BYTE   W03
 BYTE   Ds4  v127
 BYTE   N03  Gn4  v064
 BYTE   W03
 BYTE   Gn4  v127
 BYTE   N03  As4  v064
 BYTE   W03
 BYTE   Ds4  v127
 BYTE   N03  Gn4  v064
 BYTE   W03
 BYTE   As3  v127
 BYTE   N03  Ds4  v064
 BYTE   W03
 BYTE   Ds4  v127
 BYTE   N03  Gn4  v064
 BYTE   W03
 BYTE   As3  v127
 BYTE   N03  Ds4  v064
 BYTE   W03
 BYTE   Cn3  v127
 BYTE   N03  Fn3  v072
 BYTE   W03
 BYTE   Fn3  v127
 BYTE   N03  An3  v072
 BYTE   W03
 BYTE   An3  v127
 BYTE   N03  Cn4  v072
 BYTE   W03
 BYTE   Fn3  v127
 BYTE   N03  An3  v072
 BYTE   W03
 BYTE   An3  v127
 BYTE   N03  Cn4  v072
 BYTE   W03
 BYTE   Cn4  v127
 BYTE   N03  Fn4  v072
 BYTE   W03
 BYTE   An3  v127
 BYTE   N03  Cn4  v072
 BYTE   W03
 BYTE   Cn4  v127
 BYTE   N03  Fn4  v072
 BYTE   W03
 BYTE   Fn4  v127
 BYTE   N03  An4  v072
 BYTE   W03
 BYTE   An4  v127
 BYTE   N03  Cn5  v072
 BYTE   W03
 BYTE   Fn4  v127
 BYTE   N03  An4  v072
 BYTE   W03
 BYTE   Cn4  v127
 BYTE   N03  Fn4  v072
 BYTE   W03
// 026   ----------------------------------------
 BYTE   Fn4  v127
 BYTE   N03  An4  v072
 BYTE   W03
 BYTE   Cn4  v127
 BYTE   N03  Fn4  v072
 BYTE   W03
 BYTE   En2  v080
 BYTE   W03
 BYTE   En2  v127
 BYTE   N03  Gn2  v080
 BYTE   W03
 BYTE   Gn2  v127
 BYTE   N03  Cn3  v080
 BYTE   W03
 BYTE   Cn3  v127
 BYTE   N03  En3  v080
 BYTE   W03
 BYTE   Gn2  v127
 BYTE   N03  Cn3  v080
 BYTE   W03
 BYTE   Cn3  v127
 BYTE   N03  En3  v080
 BYTE   W03
 BYTE   En3  v127
 BYTE   N03  Gn3  v080
 BYTE   W03
 BYTE   Cn3  v127
 BYTE   N03  En3  v080
 BYTE   W03
 BYTE   En3  v127
 BYTE   N03  Gn3  v080
 BYTE   W03
 BYTE   Gn3  v127
 BYTE   N03  Cn4  v080
 BYTE   W03
 BYTE   En3  v127
 BYTE   N03  Gn3  v080
 BYTE   W03
 BYTE   Gn3  v127
 BYTE   N03  Cn4  v080
 BYTE   W03
 BYTE   Cn4  v127
 BYTE   N03  En4  v080
 BYTE   W03
 BYTE   Gn3  v127
 BYTE   N03  Cn4  v080
 BYTE   W03
 BYTE   Fs2  v127
 BYTE   N03  An2  v064
 BYTE   W03
 BYTE   An2  v127
 BYTE   N03  Dn3  v064
 BYTE   W03
 BYTE   Dn3  v127
 BYTE   N03  Fs3  v064
 BYTE   W03
 BYTE   An2  v127
 BYTE   N03  Dn3  v064
 BYTE   W03
 BYTE   Dn3  v127
 BYTE   N03  Fs3  v064
 BYTE   W03
 BYTE   Fs3  v127
 BYTE   N03  An3  v064
 BYTE   W03
 BYTE   Dn3  v127
 BYTE   N03  Fs3  v064
 BYTE   W03
 BYTE   Fs3  v127
 BYTE   N03  An3  v064
 BYTE   W03
 BYTE   An3  v127
 BYTE   N03  Dn4  v064
 BYTE   W03
 BYTE   Dn4  v127
 BYTE   N03  Fs4  v064
 BYTE   W03
 BYTE   An3  v127
 BYTE   N03  Dn4  v064
 BYTE   W03
 BYTE   Fs3  v127
 BYTE   N03  An3  v064
 BYTE   W03
 BYTE   An3  v127
 BYTE   N03  Dn4  v064
 BYTE   W03
 BYTE   Fs3  v127
 BYTE   N03  An3  v064
 BYTE   W03
 BYTE   As2  v127
 BYTE   N03  Ds3  v064
 BYTE   W03
 BYTE   Ds3  v127
 BYTE   N03  Gn3  v064
 BYTE   W03
// 027   ----------------------------------------
 BYTE   Gn3  v127
 BYTE   N03  As3  v064
 BYTE   W03
 BYTE   Ds3  v127
 BYTE   N03  Gn3  v064
 BYTE   W03
 BYTE   Gn3  v127
 BYTE   N03  As3  v064
 BYTE   W03
 BYTE   As3  v127
 BYTE   N03  Ds4  v064
 BYTE   W03
 BYTE   Gn3  v127
 BYTE   N03  As3  v064
 BYTE   W03
 BYTE   As3  v127
 BYTE   N03  Ds4  v064
 BYTE   W03
 BYTE   Ds4  v127
 BYTE   N03  Gn4  v064
 BYTE   W03
 BYTE   Gn4  v127
 BYTE   N03  As4  v064
 BYTE   W03
 BYTE   Ds4  v127
 BYTE   N03  Gn4  v064
 BYTE   W03
 BYTE   As3  v127
 BYTE   N03  Ds4  v064
 BYTE   W03
 BYTE   Ds4  v127
 BYTE   N03  Gn4  v064
 BYTE   W03
 BYTE   As3  v127
 BYTE   N03  Ds4  v064
 BYTE   W03
 BYTE   Cn3  v127
 BYTE   N03  Fn3  v072
 BYTE   W03
 BYTE   Fn3  v127
 BYTE   N03  An3  v072
 BYTE   W03
 BYTE   An3  v127
 BYTE   N03  Cn4  v072
 BYTE   W03
 BYTE   Fn3  v127
 BYTE   N03  An3  v072
 BYTE   W03
 BYTE   An3  v127
 BYTE   N03  Cn4  v072
 BYTE   W03
 BYTE   Cn4  v127
 BYTE   N03  Fn4  v072
 BYTE   W03
 BYTE   An3  v127
 BYTE   N03  Cn4  v072
 BYTE   W03
 BYTE   Cn4  v127
 BYTE   N03  Fn4  v072
 BYTE   W03
 BYTE   Fn4  v127
 BYTE   N03  An4  v072
 BYTE   W03
 BYTE   An4  v127
 BYTE   N03  Cn5  v072
 BYTE   W03
 BYTE   Fn4  v127
 BYTE   N03  An4  v072
 BYTE   W03
 BYTE   Cn4  v127
 BYTE   N03  Fn4  v072
 BYTE   W03
 BYTE   Fn4  v127
 BYTE   N03  An4  v072
 BYTE   W03
 BYTE   Cn4  v127
 BYTE   N03  Fn4  v072
 BYTE   W03
 BYTE   PAN   c_v+30
 BYTE   W18
// 028   ----------------------------------------
 BYTE   W96
// 029   ----------------------------------------
 BYTE   W96
// 030   ----------------------------------------
 BYTE   W96
// 031   ----------------------------------------
 BYTE   W96
// 032   ----------------------------------------
 BYTE   W96
// 033   ----------------------------------------
 BYTE   W96
// 034   ----------------------------------------
 BYTE   W96
// 035   ----------------------------------------
 BYTE   W96
// 036   ----------------------------------------
 BYTE   W96
// 037   ----------------------------------------
 BYTE   W96
// 038   ----------------------------------------
 BYTE   W96
// 039   ----------------------------------------
 BYTE   W96
// 040   ----------------------------------------
 BYTE   W96
// 041   ----------------------------------------
 BYTE   W96
// 042   ----------------------------------------
 BYTE   W96
// 043   ----------------------------------------
 BYTE   W96
// 044   ----------------------------------------
 BYTE   W96
// 045   ----------------------------------------
 BYTE   W96
// 046   ----------------------------------------
 BYTE   W96
// 047   ----------------------------------------
 BYTE   W96
// 048   ----------------------------------------
 BYTE   W96
// 049   ----------------------------------------
 BYTE   W96
// 050   ----------------------------------------
 BYTE   W96
// 051   ----------------------------------------
 BYTE   W12
 BYTE   N03  En2  v080
 BYTE   W03
 BYTE   En2  v127
 BYTE   N03  Gn2  v080
 BYTE   W03
 BYTE   Gn2  v127
 BYTE   N03  Cn3  v080
 BYTE   W03
 BYTE   Cn3  v127
 BYTE   N03  En3  v080
 BYTE   W03
 BYTE   Gn2  v127
 BYTE   N03  Cn3  v080
 BYTE   W03
 BYTE   Cn3  v127
 BYTE   N03  En3  v080
 BYTE   W03
 BYTE   En3  v127
 BYTE   N03  Gn3  v080
 BYTE   W03
 BYTE   Cn3  v127
 BYTE   N03  En3  v080
 BYTE   W03
 BYTE   En3  v127
 BYTE   N03  Gn3  v080
 BYTE   W03
 BYTE   Gn3  v127
 BYTE   N03  Cn4  v080
 BYTE   W03
 BYTE   En3  v127
 BYTE   N03  Gn3  v080
 BYTE   W03
 BYTE   Gn3  v127
 BYTE   N03  Cn4  v080
 BYTE   W03
 BYTE   Cn4  v127
 BYTE   N03  En4  v080
 BYTE   W03
 BYTE   Gn3  v127
 BYTE   N03  Cn4  v080
 BYTE   W03
 BYTE   Fs2  v127
 BYTE   N03  An2  v064
 BYTE   W03
 BYTE   An2  v127
 BYTE   N03  Dn3  v064
 BYTE   W03
 BYTE   Dn3  v127
 BYTE   N03  Fs3  v064
 BYTE   W03
 BYTE   An2  v127
 BYTE   N03  Dn3  v064
 BYTE   W03
 BYTE   Dn3  v127
 BYTE   N03  Fs3  v064
 BYTE   W03
 BYTE   Fs3  v127
 BYTE   N03  An3  v064
 BYTE   W03
 BYTE   Dn3  v127
 BYTE   N03  Fs3  v064
 BYTE   W03
 BYTE   Fs3  v127
 BYTE   N03  An3  v064
 BYTE   W03
 BYTE   An3  v127
 BYTE   N03  Dn4  v064
 BYTE   W03
 BYTE   Dn4  v127
 BYTE   N03  Fs4  v064
 BYTE   W03
 BYTE   An3  v127
 BYTE   N03  Dn4  v064
 BYTE   W03
 BYTE   Fs3  v127
 BYTE   N03  An3  v064
 BYTE   W03
 BYTE   An3  v127
 BYTE   N03  Dn4  v064
 BYTE   W03
 BYTE   Fs3  v127
 BYTE   N03  An3  v064
 BYTE   W03
// 052   ----------------------------------------
 BYTE   As2  v127
 BYTE   N03  Ds3  v064
 BYTE   W03
 BYTE   Ds3  v127
 BYTE   N03  Gn3  v064
 BYTE   W03
 BYTE   Gn3  v127
 BYTE   N03  As3  v064
 BYTE   W03
 BYTE   Ds3  v127
 BYTE   N03  Gn3  v064
 BYTE   W03
 BYTE   Gn3  v127
 BYTE   N03  As3  v064
 BYTE   W03
 BYTE   As3  v127
 BYTE   N03  Ds4  v064
 BYTE   W03
 BYTE   Gn3  v127
 BYTE   N03  As3  v064
 BYTE   W03
 BYTE   As3  v127
 BYTE   N03  Ds4  v064
 BYTE   W03
 BYTE   Ds4  v127
 BYTE   N03  Gn4  v064
 BYTE   W03
 BYTE   Gn4  v127
 BYTE   N03  As4  v064
 BYTE   W03
 BYTE   Ds4  v127
 BYTE   N03  Gn4  v064
 BYTE   W03
 BYTE   As3  v127
 BYTE   N03  Ds4  v064
 BYTE   W03
 BYTE   Ds4  v127
 BYTE   N03  Gn4  v064
 BYTE   W03
 BYTE   As3  v127
 BYTE   N03  Ds4  v064
 BYTE   W03
 BYTE   Cn3  v127
 BYTE   N03  Fn3  v072
 BYTE   W03
 BYTE   Fn3  v127
 BYTE   N03  An3  v072
 BYTE   W03
 BYTE   An3  v127
 BYTE   N03  Cn4  v072
 BYTE   W03
 BYTE   Fn3  v127
 BYTE   N03  An3  v072
 BYTE   W03
 BYTE   An3  v127
 BYTE   N03  Cn4  v072
 BYTE   W03
 BYTE   Cn4  v127
 BYTE   N03  Fn4  v072
 BYTE   W03
 BYTE   An3  v127
 BYTE   N03  Cn4  v072
 BYTE   W03
 BYTE   Cn4  v127
 BYTE   N03  Fn4  v072
 BYTE   W03
 BYTE   Fn4  v127
 BYTE   N03  An4  v072
 BYTE   W03
 BYTE   An4  v127
 BYTE   N03  Cn5  v072
 BYTE   W03
 BYTE   Fn4  v127
 BYTE   N03  An4  v072
 BYTE   W03
 BYTE   Cn4  v127
 BYTE   N03  Fn4  v072
 BYTE   W03
 BYTE   Fn4  v127
 BYTE   N03  An4  v072
 BYTE   W03
 BYTE   Cn4  v127
 BYTE   N03  Fn4  v072
 BYTE   W03
 BYTE   En2  v080
 BYTE   W03
 BYTE   En2  v127
 BYTE   N03  Gn2  v080
 BYTE   W03
 BYTE   Gn2  v127
 BYTE   N03  Cn3  v080
 BYTE   W03
 BYTE   Cn3  v127
 BYTE   N03  En3  v080
 BYTE   W03
// 053   ----------------------------------------
 BYTE   Gn2  v127
 BYTE   N03  Cn3  v080
 BYTE   W03
 BYTE   Cn3  v127
 BYTE   N03  En3  v080
 BYTE   W03
 BYTE   En3  v127
 BYTE   N03  Gn3  v080
 BYTE   W03
 BYTE   Cn3  v127
 BYTE   N03  En3  v080
 BYTE   W03
 BYTE   En3  v127
 BYTE   N03  Gn3  v080
 BYTE   W03
 BYTE   Gn3  v127
 BYTE   N03  Cn4  v080
 BYTE   W03
 BYTE   En3  v127
 BYTE   N03  Gn3  v080
 BYTE   W03
 BYTE   Gn3  v127
 BYTE   N03  Cn4  v080
 BYTE   W03
 BYTE   Cn4  v127
 BYTE   N03  En4  v080
 BYTE   W03
 BYTE   Gn3  v127
 BYTE   N03  Cn4  v080
 BYTE   W03
 BYTE   Fs2  v127
 BYTE   N03  An2  v064
 BYTE   W03
 BYTE   An2  v127
 BYTE   N03  Dn3  v064
 BYTE   W03
 BYTE   Dn3  v127
 BYTE   N03  Fs3  v064
 BYTE   W03
 BYTE   An2  v127
 BYTE   N03  Dn3  v064
 BYTE   W03
 BYTE   Dn3  v127
 BYTE   N03  Fs3  v064
 BYTE   W03
 BYTE   Fs3  v127
 BYTE   N03  An3  v064
 BYTE   W03
 BYTE   Dn3  v127
 BYTE   N03  Fs3  v064
 BYTE   W03
 BYTE   Fs3  v127
 BYTE   N03  An3  v064
 BYTE   W03
 BYTE   An3  v127
 BYTE   N03  Dn4  v064
 BYTE   W03
 BYTE   Dn4  v127
 BYTE   N03  Fs4  v064
 BYTE   W03
 BYTE   An3  v127
 BYTE   N03  Dn4  v064
 BYTE   W03
 BYTE   Fs3  v127
 BYTE   N03  An3  v064
 BYTE   W03
 BYTE   An3  v127
 BYTE   N03  Dn4  v064
 BYTE   W03
 BYTE   Fs3  v127
 BYTE   N03  An3  v064
 BYTE   W03
 BYTE   As2  v127
 BYTE   N03  Ds3  v064
 BYTE   W03
 BYTE   Ds3  v127
 BYTE   N03  Gn3  v064
 BYTE   W03
 BYTE   Gn3  v127
 BYTE   N03  As3  v064
 BYTE   W03
 BYTE   Ds3  v127
 BYTE   N03  Gn3  v064
 BYTE   W03
 BYTE   Gn3  v127
 BYTE   N03  As3  v064
 BYTE   W03
 BYTE   As3  v127
 BYTE   N03  Ds4  v064
 BYTE   W03
 BYTE   Gn3  v127
 BYTE   N03  As3  v064
 BYTE   W03
 BYTE   As3  v127
 BYTE   N03  Ds4  v064
 BYTE   W03
// 054   ----------------------------------------
 BYTE   Ds4  v127
 BYTE   N03  Gn4  v064
 BYTE   W03
 BYTE   Gn4  v127
 BYTE   N03  As4  v064
 BYTE   W03
 BYTE   Ds4  v127
 BYTE   N03  Gn4  v064
 BYTE   W03
 BYTE   As3  v127
 BYTE   N03  Ds4  v064
 BYTE   W03
 BYTE   Ds4  v127
 BYTE   N03  Gn4  v064
 BYTE   W03
 BYTE   As3  v127
 BYTE   N03  Ds4  v064
 BYTE   W03
 BYTE   Cn3  v127
 BYTE   N03  Fn3  v072
 BYTE   W03
 BYTE   Fn3  v127
 BYTE   N03  An3  v072
 BYTE   W03
 BYTE   An3  v127
 BYTE   N03  Cn4  v072
 BYTE   W03
 BYTE   Fn3  v127
 BYTE   N03  An3  v072
 BYTE   W03
 BYTE   An3  v127
 BYTE   N03  Cn4  v072
 BYTE   W03
 BYTE   Cn4  v127
 BYTE   N03  Fn4  v072
 BYTE   W03
 BYTE   An3  v127
 BYTE   N03  Cn4  v072
 BYTE   W03
 BYTE   Cn4  v127
 BYTE   N03  Fn4  v072
 BYTE   W03
 BYTE   Fn4  v127
 BYTE   N03  An4  v072
 BYTE   W03
 BYTE   An4  v127
 BYTE   N03  Cn5  v072
 BYTE   W03
 BYTE   Fn4  v127
 BYTE   N03  An4  v072
 BYTE   W03
 BYTE   Cn4  v127
 BYTE   N03  Fn4  v072
 BYTE   W03
 BYTE   Fn4  v127
 BYTE   N03  An4  v072
 BYTE   W03
 BYTE   Cn4  v127
 BYTE   N03  Fn4  v072
 BYTE   W03
 BYTE   GoTo
  POIN2 Label_6_0142EB6D
 BYTE   FINE

//**************** Track 8 (Midi-Chn.7) ****************//

GoldenSunFusionDragonBattleMrGreen3339_008:
// 000   ----------------------------------------
 BYTE   KEYSH   GoldenSunFusionDragonBattleMrGreen3339_key+0
 BYTE   VOICE   54
 BYTE   VOL   16*GoldenSunFusionDragonBattleMrGreen3339_mvl/mxv
 BYTE   PAN   c_v-48
 BYTE   N21  As2  v127
 BYTE   N20  En3
 BYTE   W24
 BYTE   N22  Bn2
 BYTE   N21  Fn3
 BYTE   W24
 BYTE   N22  Cn3
 BYTE   N21  Fs3
 BYTE   W24
 BYTE   Cs3
 BYTE   N21  Gn3
 BYTE   W24
// 001   ----------------------------------------
Label_7_0142F0F8:
 BYTE   W96
// 002   ----------------------------------------
 BYTE   W96
// 003   ----------------------------------------
 BYTE   W96
// 004   ----------------------------------------
 BYTE   W96
// 005   ----------------------------------------
 BYTE   W96
// 006   ----------------------------------------
 BYTE   W96
// 007   ----------------------------------------
 BYTE   W96
// 008   ----------------------------------------
 BYTE   W96
// 009   ----------------------------------------
 BYTE   W96
// 010   ----------------------------------------
 BYTE   W96
// 011   ----------------------------------------
 BYTE   W96
// 012   ----------------------------------------
 BYTE   W96
// 013   ----------------------------------------
 BYTE   W96
// 014   ----------------------------------------
 BYTE   W96
// 015   ----------------------------------------
 BYTE   W96
// 016   ----------------------------------------
 BYTE   W96
// 017   ----------------------------------------
 BYTE   W96
// 018   ----------------------------------------
 BYTE   W96
// 019   ----------------------------------------
 BYTE   W30
 BYTE   N44  An2  v127
 BYTE   N44  Ds3
 BYTE   W48
 BYTE   As2
 BYTE   N48  En3
 BYTE   W18
// 020   ----------------------------------------
 BYTE   W30
 BYTE   N44  Gs2
 BYTE   N44  Dn3
 BYTE   W48
 BYTE   As2
 BYTE   N48  En3
 BYTE   W18
// 021   ----------------------------------------
 BYTE   W30
 BYTE   TIE  En2
 BYTE   W66
// 022   ----------------------------------------
 BYTE   W96
// 023   ----------------------------------------
 BYTE   W96
// 024   ----------------------------------------
 BYTE   W30
 BYTE   EOT
 BYTE   W66
// 025   ----------------------------------------
 BYTE   W96
// 026   ----------------------------------------
 BYTE   W96
// 027   ----------------------------------------
 BYTE   W96
// 028   ----------------------------------------
 BYTE   W96
// 029   ----------------------------------------
 BYTE   W96
// 030   ----------------------------------------
 BYTE   W96
// 031   ----------------------------------------
 BYTE   W96
// 032   ----------------------------------------
 BYTE   W96
// 033   ----------------------------------------
 BYTE   W96
// 034   ----------------------------------------
 BYTE   W96
// 035   ----------------------------------------
 BYTE   W96
// 036   ----------------------------------------
 BYTE   W96
// 037   ----------------------------------------
 BYTE   W96
// 038   ----------------------------------------
 BYTE   W96
// 039   ----------------------------------------
 BYTE   W96
// 040   ----------------------------------------
 BYTE   W96
// 041   ----------------------------------------
 BYTE   W96
// 042   ----------------------------------------
 BYTE   W96
// 043   ----------------------------------------
 BYTE   W96
// 044   ----------------------------------------
 BYTE   W96
// 045   ----------------------------------------
 BYTE   W96
// 046   ----------------------------------------
 BYTE   W12
 BYTE   N44  An2
 BYTE   N44  Ds3
 BYTE   W48
 BYTE   As2
 BYTE   N48  En3
 BYTE   W36
// 047   ----------------------------------------
 BYTE   W12
 BYTE   N44  Gs2
 BYTE   N44  Dn3
 BYTE   W48
 BYTE   As2
 BYTE   N48  En3
 BYTE   W36
// 048   ----------------------------------------
 BYTE   W12
 BYTE   TIE  En2
 BYTE   W84
// 049   ----------------------------------------
 BYTE   W96
// 050   ----------------------------------------
 BYTE   W96
// 051   ----------------------------------------
 BYTE   W12
 BYTE   EOT
 BYTE   W84
// 052   ----------------------------------------
 BYTE   W96
// 053   ----------------------------------------
 BYTE   W96
// 054   ----------------------------------------
 BYTE   W60
 BYTE   GoTo
  POIN2 Label_7_0142F0F8
 BYTE   FINE

//**************** Track 9 (Midi-Chn.8) ****************//

GoldenSunFusionDragonBattleMrGreen3339_009:
// 000   ----------------------------------------
 BYTE   KEYSH   GoldenSunFusionDragonBattleMrGreen3339_key+0
 BYTE   VOICE   81
 BYTE   VOL   20*GoldenSunFusionDragonBattleMrGreen3339_mvl/mxv
 BYTE   PAN   c_v+21
 BYTE   W96
// 001   ----------------------------------------
Label_8_0142F16D:
 BYTE   N06  En4  v127
 BYTE   W06
 BYTE   Cn5
 BYTE   W06
 BYTE   Bn4
 BYTE   W06
 BYTE   Fs4
 BYTE   W06
 BYTE   As4
 BYTE   W06
 BYTE   En4
 BYTE   W06
 BYTE   Ds4
 BYTE   W06
 BYTE   As4
 BYTE   W06
 BYTE   Ds4
 BYTE   W06
 BYTE   En4
 BYTE   W06
 BYTE   Bn4
 BYTE   W06
 BYTE   As4
 BYTE   W06
 BYTE   An4
 BYTE   W06
 BYTE   Gs4
 BYTE   W06
 BYTE   Cs5
 BYTE   W06
 BYTE   En4
 BYTE   W06
// 002   ----------------------------------------
 BYTE   Ds4
 BYTE   W06
 BYTE   Bn4
 BYTE   W06
 BYTE   As4
 BYTE   W06
 BYTE   Fn4
 BYTE   W06
 BYTE   Cn4
 BYTE   W06
 BYTE   En5
 BYTE   W06
 BYTE   An4
 BYTE   W06
 BYTE   Gs4
 BYTE   W06
 BYTE   Dn5
 BYTE   W06
 BYTE   Cs5
 BYTE   W06
 BYTE   Fs4
 BYTE   W06
 BYTE   Fn4
 BYTE   W06
 BYTE   Gs4
 BYTE   W06
 BYTE   Gn4
 BYTE   W12
 BYTE   Gs4
 BYTE   W06
// 003   ----------------------------------------
 BYTE   Gn4
 BYTE   W12
 BYTE   Gs4
 BYTE   W06
 BYTE   Gn4
 BYTE   W06
 BYTE   Fs4
 BYTE   W06
 BYTE   As4
 BYTE   W06
 BYTE   An4
 BYTE   W12
 BYTE   As4
 BYTE   W06
 BYTE   An4
 BYTE   W12
 BYTE   As4
 BYTE   W06
 BYTE   An4
 BYTE   W06
 BYTE   Gs4
 BYTE   W06
 BYTE   N02  An2  v092
 BYTE   W03
 BYTE   N01  En3
 BYTE   W03
 BYTE   N02  An3
 BYTE   W03
 BYTE   N01  Cn4
 BYTE   W03
// 004   ----------------------------------------
 BYTE   En4
 BYTE   W03
 BYTE   N02  Cn4
 BYTE   W03
 BYTE   An3
 BYTE   W03
 BYTE   En3
 BYTE   W03
 BYTE   An2
 BYTE   W03
 BYTE   En3
 BYTE   W03
 BYTE   N01  An3
 BYTE   W03
 BYTE   N02  Cn4
 BYTE   W03
 BYTE   N01  En4
 BYTE   W03
 BYTE   N02  Cn4
 BYTE   W03
 BYTE   N01  An3
 BYTE   W03
 BYTE   N02  En3
 BYTE   W03
 BYTE   An2
 BYTE   W03
 BYTE   N01  En3
 BYTE   W03
 BYTE   N02  An3
 BYTE   W03
 BYTE   Cn4
 BYTE   N02  An4
 BYTE   W03
 BYTE   Gs4
 BYTE   W03
 BYTE   Gn4
 BYTE   W03
 BYTE   Fs4
 BYTE   W03
 BYTE   N01  Fn4
 BYTE   W03
 BYTE   En4
 BYTE   W03
 BYTE   N02  Ds4
 BYTE   W03
 BYTE   N01  Dn4
 BYTE   W03
 BYTE   N02  Cs4
 BYTE   W03
 BYTE   N01  Cn4
 BYTE   W03
 BYTE   N02  Bn3
 BYTE   W03
 BYTE   As3
 BYTE   W03
 BYTE   An3
 BYTE   W03
 BYTE   Cn3
 BYTE   W03
 BYTE   En3
 BYTE   W03
 BYTE   An3
 BYTE   W03
 BYTE   Cn4
 BYTE   W03
// 005   ----------------------------------------
 BYTE   En4
 BYTE   W03
 BYTE   N01  Cn4
 BYTE   W03
 BYTE   N02  An4
 BYTE   W03
 BYTE   En4
 BYTE   W03
 BYTE   Bn2
 BYTE   W03
 BYTE   Dn3
 BYTE   W03
 BYTE   Gn3
 BYTE   W03
 BYTE   Bn3
 BYTE   W03
 BYTE   Dn4
 BYTE   W03
 BYTE   Bn3
 BYTE   W03
 BYTE   Gn4
 BYTE   W03
 BYTE   Dn4
 BYTE   W03
 BYTE   Fn2
 BYTE   W03
 BYTE   An2
 BYTE   W03
 BYTE   Cn3
 BYTE   W03
 BYTE   Fn3
 BYTE   W03
 BYTE   An3
 BYTE   W03
 BYTE   Cn4
 BYTE   W03
 BYTE   N01  Fn4
 BYTE   W03
 BYTE   N02  An4
 BYTE   W03
 BYTE   N01  Cn5
 BYTE   W03
 BYTE   N02  An4
 BYTE   W03
 BYTE   N01  Fn4
 BYTE   W03
 BYTE   N02  Cn4
 BYTE   W03
 BYTE   N01  An3
 BYTE   W03
 BYTE   N02  Fn3
 BYTE   W03
 BYTE   Cn3
 BYTE   W03
 BYTE   An2
 BYTE   W03
 BYTE   Dn2
 BYTE   W03
 BYTE   Fn2
 BYTE   W03
 BYTE   An2
 BYTE   W03
 BYTE   Dn3
 BYTE   W03
// 006   ----------------------------------------
 BYTE   N01  Fn3
 BYTE   W03
 BYTE   N02  An3
 BYTE   W03
 BYTE   Dn4
 BYTE   W03
 BYTE   N01  Fn4
 BYTE   W03
 BYTE   N02  An4
 BYTE   W03
 BYTE   Fn4
 BYTE   W03
 BYTE   N01  Dn4
 BYTE   W03
 BYTE   N02  An3
 BYTE   W03
 BYTE   Fn3
 BYTE   W03
 BYTE   Dn3
 BYTE   W03
 BYTE   An2
 BYTE   W03
 BYTE   N01  Fn2
 BYTE   W03
 BYTE   En2
 BYTE   W03
 BYTE   N02  Gs2
 BYTE   W03
 BYTE   Bn2
 BYTE   W03
 BYTE   En3
 BYTE   W03
 BYTE   Gs3
 BYTE   W03
 BYTE   Bn3
 BYTE   W03
 BYTE   En4
 BYTE   W03
 BYTE   Bn3
 BYTE   W03
 BYTE   N03  Bn4  v127
 BYTE   W03
 BYTE   N02  Gs4  v092
 BYTE   W03
 BYTE   En4
 BYTE   W03
 BYTE   Bn3
 BYTE   W03
 BYTE   Gs3
 BYTE   W03
 BYTE   En3
 BYTE   W03
 BYTE   Bn2
 BYTE   W03
 BYTE   Gs2
 BYTE   W03
 BYTE   Dn2
 BYTE   W03
 BYTE   Fn2
 BYTE   W03
 BYTE   An2
 BYTE   W03
 BYTE   N01  Dn3
 BYTE   W03
// 007   ----------------------------------------
 BYTE   N02  Fn3
 BYTE   W03
 BYTE   An3
 BYTE   W03
 BYTE   Dn4
 BYTE   W03
 BYTE   Fn4
 BYTE   W03
 BYTE   An4
 BYTE   W03
 BYTE   Fn4
 BYTE   W03
 BYTE   Dn4
 BYTE   W03
 BYTE   N01  An3
 BYTE   W03
 BYTE   N02  Fn3
 BYTE   W03
 BYTE   Dn3
 BYTE   W03
 BYTE   An2
 BYTE   W03
 BYTE   Fn2
 BYTE   W03
 BYTE   En2
 BYTE   W03
 BYTE   Gs2
 BYTE   W03
 BYTE   Bn2
 BYTE   W03
 BYTE   En3
 BYTE   W03
 BYTE   Gs3
 BYTE   W03
 BYTE   Bn3
 BYTE   W03
 BYTE   En4
 BYTE   W03
 BYTE   N01  Bn3
 BYTE   W03
 BYTE   Bn4
 BYTE   W03
 BYTE   Gs4
 BYTE   W03
 BYTE   En4
 BYTE   W03
 BYTE   N02  Bn3
 BYTE   W03
 BYTE   N01  Gs3
 BYTE   W03
 BYTE   N02  En3
 BYTE   W03
 BYTE   Bn2
 BYTE   W03
 BYTE   Gs2
 BYTE   W03
 BYTE   Gs4
 BYTE   W03
 BYTE   An4
 BYTE   W03
 BYTE   Fs4
 BYTE   W03
 BYTE   Gs4
 BYTE   W03
// 008   ----------------------------------------
 BYTE   As4
 BYTE   W03
 BYTE   En4
 BYTE   W03
 BYTE   Ds4
 BYTE   W03
 BYTE   Dn4
 BYTE   W03
 BYTE   Fn4
 BYTE   W03
 BYTE   Fs4
 BYTE   W03
 BYTE   Dn4
 BYTE   W03
 BYTE   Ds4
 BYTE   W03
 BYTE   Dn4
 BYTE   W03
 BYTE   Cn4
 BYTE   W03
 BYTE   Bn3
 BYTE   W03
 BYTE   As3
 BYTE   W03
 BYTE   Bn4
 BYTE   W03
 BYTE   Cn5
 BYTE   W03
 BYTE   Fn4
 BYTE   W03
 BYTE   As4
 BYTE   W03
 BYTE   An4
 BYTE   W03
 BYTE   Gs4
 BYTE   W03
 BYTE   Fn4
 BYTE   W03
 BYTE   Ds4
 BYTE   W03
 BYTE   As4
 BYTE   W03
 BYTE   En4
 BYTE   W03
 BYTE   Dn4
 BYTE   W03
 BYTE   Cs4
 BYTE   W03
 BYTE   Gn4
 BYTE   W03
 BYTE   Fs4
 BYTE   W03
 BYTE   N03  Fn4
 BYTE   W03
 BYTE   N02  En4
 BYTE   W03
 BYTE   Gs4
 BYTE   W03
 BYTE   An4
 BYTE   W03
 BYTE   Fs4
 BYTE   W03
 BYTE   Gs4
 BYTE   W03
// 009   ----------------------------------------
 BYTE   As4
 BYTE   W03
 BYTE   En4
 BYTE   W03
 BYTE   Ds4
 BYTE   W03
 BYTE   Dn4
 BYTE   W03
 BYTE   Fn4
 BYTE   W03
 BYTE   Fs4
 BYTE   W03
 BYTE   Dn4
 BYTE   W03
 BYTE   Ds4
 BYTE   W03
 BYTE   Dn4
 BYTE   W03
 BYTE   Cn4
 BYTE   W03
 BYTE   Bn3
 BYTE   W03
 BYTE   As3
 BYTE   W03
 BYTE   Bn4
 BYTE   W03
 BYTE   Cn5
 BYTE   W03
 BYTE   Fn4
 BYTE   W03
 BYTE   As4
 BYTE   W03
 BYTE   An4
 BYTE   W03
 BYTE   Gs4
 BYTE   W03
 BYTE   Fn4
 BYTE   W03
 BYTE   Ds4
 BYTE   W03
 BYTE   As4
 BYTE   W03
 BYTE   En4
 BYTE   W03
 BYTE   Dn4
 BYTE   W03
 BYTE   Cs4
 BYTE   W03
 BYTE   Gn4
 BYTE   W03
 BYTE   Fs4
 BYTE   W03
 BYTE   N06  Gs3  v127
 BYTE   W06
 BYTE   Gn3
 BYTE   W06
 BYTE   As3
 BYTE   W06
// 010   ----------------------------------------
 BYTE   Fs3
 BYTE   W06
 BYTE   En3
 BYTE   W06
 BYTE   Ds3
 BYTE   W06
 BYTE   Dn3
 BYTE   W06
 BYTE   Ds3
 BYTE   W06
 BYTE   Gn3
 BYTE   W06
 BYTE   Fs3
 BYTE   W06
 BYTE   Fn3
 BYTE   W06
 BYTE   En3
 BYTE   W06
 BYTE   As3
 BYTE   W06
 BYTE   An3
 BYTE   W06
 BYTE   Gn3
 BYTE   W06
 BYTE   Fn3
 BYTE   W06
 BYTE   Dn4
 BYTE   W06
 BYTE   Cs4
 BYTE   W06
 BYTE   En4
 BYTE   W06
// 011   ----------------------------------------
 BYTE   Ds4
 BYTE   W06
 BYTE   Gn3
 BYTE   W06
 BYTE   Fn3
 BYTE   W06
 BYTE   Ds4
 BYTE   W06
 BYTE   Bn3
 BYTE   W06
 BYTE   N02  An2  v092
 BYTE   W03
 BYTE   N01  En3
 BYTE   W03
 BYTE   N02  An3
 BYTE   W03
 BYTE   N01  Cn4
 BYTE   W03
 BYTE   En4
 BYTE   W03
 BYTE   N02  Cn4
 BYTE   W03
 BYTE   An3
 BYTE   W03
 BYTE   En3
 BYTE   W03
 BYTE   An2
 BYTE   W03
 BYTE   En3
 BYTE   W03
 BYTE   N01  An3
 BYTE   W03
 BYTE   N02  Cn4
 BYTE   W03
 BYTE   N01  En4
 BYTE   W03
 BYTE   N02  Cn4
 BYTE   W03
 BYTE   N01  An3
 BYTE   W03
 BYTE   N02  En3
 BYTE   W03
 BYTE   An2
 BYTE   W03
 BYTE   N01  En3
 BYTE   W03
 BYTE   N02  An3
 BYTE   W03
 BYTE   Cn4
 BYTE   N02  An4
 BYTE   W03
 BYTE   Gs4
 BYTE   W03
 BYTE   Gn4
 BYTE   W03
// 012   ----------------------------------------
 BYTE   Fs4
 BYTE   W03
 BYTE   N01  Fn4
 BYTE   W03
 BYTE   En4
 BYTE   W03
 BYTE   N02  Ds4
 BYTE   W03
 BYTE   N01  Dn4
 BYTE   W03
 BYTE   N02  Cs4
 BYTE   W03
 BYTE   N01  Cn4
 BYTE   W03
 BYTE   N02  Bn3
 BYTE   W03
 BYTE   As3
 BYTE   W03
 BYTE   An3
 BYTE   W03
 BYTE   Cn3
 BYTE   W03
 BYTE   En3
 BYTE   W03
 BYTE   An3
 BYTE   W03
 BYTE   Cn4
 BYTE   W03
 BYTE   En4
 BYTE   W03
 BYTE   N01  Cn4
 BYTE   W03
 BYTE   N02  An4
 BYTE   W03
 BYTE   En4
 BYTE   W03
 BYTE   Bn2
 BYTE   W03
 BYTE   Dn3
 BYTE   W03
 BYTE   Gn3
 BYTE   W03
 BYTE   Bn3
 BYTE   W03
 BYTE   Dn4
 BYTE   W03
 BYTE   Bn3
 BYTE   W03
 BYTE   Gn4
 BYTE   W03
 BYTE   Dn4
 BYTE   W03
 BYTE   Fn2
 BYTE   W03
 BYTE   An2
 BYTE   W03
 BYTE   Cn3
 BYTE   W03
 BYTE   Fn3
 BYTE   W03
 BYTE   An3
 BYTE   W03
 BYTE   Cn4
 BYTE   W03
// 013   ----------------------------------------
 BYTE   N01  Fn4
 BYTE   W03
 BYTE   N02  An4
 BYTE   W03
 BYTE   N01  Cn5
 BYTE   W03
 BYTE   N02  An4
 BYTE   W03
 BYTE   N01  Fn4
 BYTE   W03
 BYTE   N02  Cn4
 BYTE   W03
 BYTE   N01  An3
 BYTE   W03
 BYTE   N02  Fn3
 BYTE   W03
 BYTE   Cn3
 BYTE   W03
 BYTE   An2
 BYTE   W03
 BYTE   Dn2
 BYTE   W03
 BYTE   Fn2
 BYTE   W03
 BYTE   An2
 BYTE   W03
 BYTE   Dn3
 BYTE   W03
 BYTE   N01  Fn3
 BYTE   W03
 BYTE   N02  An3
 BYTE   W03
 BYTE   Dn4
 BYTE   W03
 BYTE   N01  Fn4
 BYTE   W03
 BYTE   N02  An4
 BYTE   W03
 BYTE   Fn4
 BYTE   W03
 BYTE   N01  Dn4
 BYTE   W03
 BYTE   N02  An3
 BYTE   W03
 BYTE   Fn3
 BYTE   W03
 BYTE   Dn3
 BYTE   W03
 BYTE   An2
 BYTE   W03
 BYTE   N01  Fn2
 BYTE   W03
 BYTE   En2
 BYTE   W03
 BYTE   N02  Gs2
 BYTE   W03
 BYTE   Bn2
 BYTE   W03
 BYTE   En3
 BYTE   W03
 BYTE   Gs3
 BYTE   W03
 BYTE   Bn3
 BYTE   W03
// 014   ----------------------------------------
 BYTE   En4
 BYTE   W03
 BYTE   Bn3
 BYTE   W03
 BYTE   N03  Bn4  v127
 BYTE   W03
 BYTE   N02  Gs4  v092
 BYTE   W03
 BYTE   En4
 BYTE   W03
 BYTE   Bn3
 BYTE   W03
 BYTE   Gs3
 BYTE   W03
 BYTE   En3
 BYTE   W03
 BYTE   Bn2
 BYTE   W03
 BYTE   Gs2
 BYTE   W03
 BYTE   Dn2
 BYTE   W03
 BYTE   Fn2
 BYTE   W03
 BYTE   An2
 BYTE   W03
 BYTE   N01  Dn3
 BYTE   W03
 BYTE   N02  Fn3
 BYTE   W03
 BYTE   An3
 BYTE   W03
 BYTE   Dn4
 BYTE   W03
 BYTE   Fn4
 BYTE   W03
 BYTE   An4
 BYTE   W03
 BYTE   Fn4
 BYTE   W03
 BYTE   Dn4
 BYTE   W03
 BYTE   N01  An3
 BYTE   W03
 BYTE   N02  Fn3
 BYTE   W03
 BYTE   Dn3
 BYTE   W03
 BYTE   An2
 BYTE   W03
 BYTE   Fn2
 BYTE   W03
 BYTE   En2
 BYTE   W03
 BYTE   Gs2
 BYTE   W03
 BYTE   Bn2
 BYTE   W03
 BYTE   En3
 BYTE   W03
 BYTE   Gs3
 BYTE   W03
 BYTE   Bn3
 BYTE   W03
// 015   ----------------------------------------
 BYTE   En4
 BYTE   W03
 BYTE   N01  Bn3
 BYTE   W03
 BYTE   Bn4
 BYTE   W03
 BYTE   Gs4
 BYTE   W03
 BYTE   En4
 BYTE   W03
 BYTE   N02  Bn3
 BYTE   W03
 BYTE   N01  Gs3
 BYTE   W03
 BYTE   N02  En3
 BYTE   W03
 BYTE   Bn2
 BYTE   W03
 BYTE   Gs2
 BYTE   W68
 BYTE   W01
// 016   ----------------------------------------
 BYTE   W96
// 017   ----------------------------------------
 BYTE   W30
 BYTE   N17  An1  v127
 BYTE   W18
 BYTE   N03
 BYTE   W03
 BYTE   Bn1
 BYTE   W03
 BYTE   N23  Cn2
 BYTE   W24
 BYTE   N07  Gn2
 BYTE   W08
 BYTE   Cs2
 BYTE   W08
 BYTE   Fs2
 BYTE   W02
// 018   ----------------------------------------
 BYTE   W06
 BYTE   Fn2
 BYTE   W08
 BYTE   Cn2
 BYTE   W08
 BYTE   Bn1
 BYTE   W08
 BYTE   N23  Gs1
 BYTE   W24
 BYTE   Dn2
 BYTE   W24
 BYTE   N06  Cs2
 BYTE   W06
 BYTE   Gn1
 BYTE   W06
 BYTE   Fs1
 BYTE   W06
// 019   ----------------------------------------
 BYTE   Fn1
 BYTE   W06
 BYTE   N03  An2
 BYTE   W03
 BYTE   Gs2
 BYTE   W03
 BYTE   Gn2
 BYTE   W03
 BYTE   Fs2
 BYTE   W03
 BYTE   En2
 BYTE   W03
 BYTE   Dn2
 BYTE   W03
 BYTE   Cs2
 BYTE   W03
 BYTE   Bn1
 BYTE   W68
 BYTE   W01
// 020   ----------------------------------------
 BYTE   En4  v052
 BYTE   W03
 BYTE   Fn4
 BYTE   W03
 BYTE   Fs4
 BYTE   W03
 BYTE   Gn4
 BYTE   W03
 BYTE   Fn4
 BYTE   W03
 BYTE   Fs4
 BYTE   W03
 BYTE   Gn4
 BYTE   W03
 BYTE   Fs4
 BYTE   W03
 BYTE   Gn4
 BYTE   W03
 BYTE   Gs4
 BYTE   W03
 BYTE   An4
 BYTE   W03
 BYTE   Gn4
 BYTE   W03
 BYTE   Gs4  v080
 BYTE   W03
 BYTE   An4
 BYTE   W03
 BYTE   Gn4
 BYTE   W03
 BYTE   Gs4
 BYTE   W03
 BYTE   An4
 BYTE   W03
 BYTE   As4
 BYTE   W03
 BYTE   Gs4
 BYTE   W03
 BYTE   An4
 BYTE   W03
 BYTE   As4
 BYTE   W03
 BYTE   Bn4
 BYTE   W03
 BYTE   An4
 BYTE   W03
 BYTE   As4
 BYTE   W03
 BYTE   Bn4
 BYTE   W03
 BYTE   An4
 BYTE   W03
 BYTE   As4
 BYTE   W03
 BYTE   Bn4
 BYTE   W03
 BYTE   Cn5
 BYTE   W03
 BYTE   As4
 BYTE   W03
 BYTE   Bn4
 BYTE   W03
 BYTE   Cn5
 BYTE   W03
// 021   ----------------------------------------
 BYTE   Bn4  v104
 BYTE   W03
 BYTE   Cn5
 BYTE   W03
 BYTE   Cs5
 BYTE   W03
 BYTE   Dn5
 BYTE   W03
 BYTE   Bn4
 BYTE   W03
 BYTE   Cn5
 BYTE   W03
 BYTE   Cs5
 BYTE   W03
 BYTE   Dn5
 BYTE   W03
 BYTE   As4
 BYTE   W03
 BYTE   Bn4
 BYTE   W32
 BYTE   W01
 BYTE   N06  As3  v127
 BYTE   N06  En4
 BYTE   W36
// 022   ----------------------------------------
 BYTE   An3
 BYTE   N06  Ds4
 BYTE   W36
 BYTE   As3
 BYTE   N06  En4
 BYTE   W36
 BYTE   Bn3
 BYTE   N06  Fn4
 BYTE   W24
// 023   ----------------------------------------
 BYTE   W12
 BYTE   As3
 BYTE   N06  En4
 BYTE   W36
 BYTE   An3
 BYTE   N06  Ds4
 BYTE   W36
 BYTE   As3
 BYTE   N06  En4
 BYTE   W12
// 024   ----------------------------------------
 BYTE   W24
 BYTE   Bn3
 BYTE   N06  Fn4
 BYTE   W06
 BYTE   N24  Gn3
 BYTE   W24
 BYTE   N17  Cn4
 BYTE   W18
 BYTE   N22  An3
 BYTE   W24
// 025   ----------------------------------------
 BYTE   N16  Dn4
 BYTE   W18
 BYTE   N24  Ds4
 BYTE   W24
 BYTE   N06
 BYTE   W06
 BYTE   Dn4
 BYTE   W06
 BYTE   Cn4
 BYTE   W06
 BYTE   N23  Dn4
 BYTE   W24
 BYTE   N16  Cn4
 BYTE   W12
// 026   ----------------------------------------
 BYTE   W06
 BYTE   N03  Fn3
 BYTE   N03  Bn3
 BYTE   W06
 BYTE   Fs3
 BYTE   N03  Cn4
 BYTE   W06
 BYTE   Fn3
 BYTE   N03  Bn3
 BYTE   W06
 BYTE   Fs3
 BYTE   N03  Cn4
 BYTE   W06
 BYTE   Fn3
 BYTE   N03  Bn3
 BYTE   W06
 BYTE   Fs3
 BYTE   N03  Cn4
 BYTE   W06
 BYTE   Fn3
 BYTE   N03  Bn3
 BYTE   W06
 BYTE   Gn3
 BYTE   N03  Cs4
 BYTE   W06
 BYTE   Gs3
 BYTE   N03  Dn4
 BYTE   W06
 BYTE   Gn3
 BYTE   N03  Cs4
 BYTE   W06
 BYTE   Gs3
 BYTE   N03  Dn4
 BYTE   W06
 BYTE   Gn3
 BYTE   N03  Cs4
 BYTE   W06
 BYTE   Gs3
 BYTE   N03  Dn4
 BYTE   W06
 BYTE   Gn3
 BYTE   N03  Cs4
 BYTE   W06
 BYTE   An3
 BYTE   N03  Ds4
 BYTE   W06
// 027   ----------------------------------------
 BYTE   As3
 BYTE   N03  En4
 BYTE   W06
 BYTE   An3
 BYTE   N03  Ds4
 BYTE   W06
 BYTE   As3
 BYTE   N03  En4
 BYTE   W06
 BYTE   An3
 BYTE   N03  Ds4
 BYTE   W06
 BYTE   As3
 BYTE   N03  En4
 BYTE   W06
 BYTE   An3
 BYTE   N03  Ds4
 BYTE   W06
 BYTE   Bn3
 BYTE   N03  Fn4
 BYTE   W06
 BYTE   Cn4
 BYTE   N03  Fs4
 BYTE   W06
 BYTE   Bn3
 BYTE   N03  Fn4
 BYTE   W06
 BYTE   Cn4
 BYTE   N03  Fs4
 BYTE   W06
 BYTE   Bn3
 BYTE   N03  Fn4
 BYTE   W06
 BYTE   Cn4
 BYTE   N03  Fs4
 BYTE   W06
 BYTE   Bn3
 BYTE   N03  Fn4
 BYTE   W06
 BYTE   N06  En4
 BYTE   W06
 BYTE   Cn5
 BYTE   W06
 BYTE   Bn4
 BYTE   W06
// 028   ----------------------------------------
 BYTE   Fs4
 BYTE   W06
 BYTE   As4
 BYTE   W06
 BYTE   En4
 BYTE   W06
 BYTE   Ds4
 BYTE   W06
 BYTE   As4
 BYTE   W06
 BYTE   Ds4
 BYTE   W06
 BYTE   En4
 BYTE   W06
 BYTE   Bn4
 BYTE   W06
 BYTE   As4
 BYTE   W06
 BYTE   An4
 BYTE   W06
 BYTE   Gs4
 BYTE   W06
 BYTE   Cs5
 BYTE   W06
 BYTE   En4
 BYTE   W06
 BYTE   Ds4
 BYTE   W06
 BYTE   Bn4
 BYTE   W06
 BYTE   As4
 BYTE   W06
// 029   ----------------------------------------
 BYTE   Fn4
 BYTE   W06
 BYTE   Cn4
 BYTE   W06
 BYTE   En5
 BYTE   W06
 BYTE   An4
 BYTE   W06
 BYTE   Gs4
 BYTE   W06
 BYTE   Dn5
 BYTE   W06
 BYTE   Cs5
 BYTE   W06
 BYTE   Fs4
 BYTE   W06
 BYTE   Fn4
 BYTE   W06
 BYTE   Gs4
 BYTE   W06
 BYTE   Gn4
 BYTE   W12
 BYTE   Gs4
 BYTE   W06
 BYTE   Gn4
 BYTE   W12
 BYTE   Gs4
 BYTE   W06
// 030   ----------------------------------------
 BYTE   Gn4
 BYTE   W06
 BYTE   Fs4
 BYTE   W06
 BYTE   As4
 BYTE   W06
 BYTE   An4
 BYTE   W12
 BYTE   As4
 BYTE   W06
 BYTE   An4
 BYTE   W12
 BYTE   As4
 BYTE   W06
 BYTE   An4
 BYTE   W06
 BYTE   Gs4
 BYTE   W06
 BYTE   N02  An2  v092
 BYTE   W03
 BYTE   N01  En3
 BYTE   W03
 BYTE   N02  An3
 BYTE   W03
 BYTE   N01  Cn4
 BYTE   W03
 BYTE   En4
 BYTE   W03
 BYTE   N02  Cn4
 BYTE   W03
 BYTE   An3
 BYTE   W03
 BYTE   En3
 BYTE   W03
 BYTE   An2
 BYTE   W03
 BYTE   En3
 BYTE   W03
// 031   ----------------------------------------
 BYTE   N01  An3
 BYTE   W03
 BYTE   N02  Cn4
 BYTE   W03
 BYTE   N01  En4
 BYTE   W03
 BYTE   N02  Cn4
 BYTE   W03
 BYTE   N01  An3
 BYTE   W03
 BYTE   N02  En3
 BYTE   W03
 BYTE   An2
 BYTE   W03
 BYTE   N01  En3
 BYTE   W03
 BYTE   N02  An3
 BYTE   W03
 BYTE   Cn4
 BYTE   N02  An4
 BYTE   W03
 BYTE   Gs4
 BYTE   W03
 BYTE   Gn4
 BYTE   W03
 BYTE   Fs4
 BYTE   W03
 BYTE   N01  Fn4
 BYTE   W03
 BYTE   En4
 BYTE   W03
 BYTE   N02  Ds4
 BYTE   W03
 BYTE   N01  Dn4
 BYTE   W03
 BYTE   N02  Cs4
 BYTE   W03
 BYTE   N01  Cn4
 BYTE   W03
 BYTE   N02  Bn3
 BYTE   W03
 BYTE   As3
 BYTE   W03
 BYTE   An3
 BYTE   W03
 BYTE   Cn3
 BYTE   W03
 BYTE   En3
 BYTE   W03
 BYTE   An3
 BYTE   W03
 BYTE   Cn4
 BYTE   W03
 BYTE   En4
 BYTE   W03
 BYTE   N01  Cn4
 BYTE   W03
 BYTE   N02  An4
 BYTE   W03
 BYTE   En4
 BYTE   W03
 BYTE   Bn2
 BYTE   W03
 BYTE   Dn3
 BYTE   W03
// 032   ----------------------------------------
 BYTE   Gn3
 BYTE   W03
 BYTE   Bn3
 BYTE   W03
 BYTE   Dn4
 BYTE   W03
 BYTE   Bn3
 BYTE   W03
 BYTE   Gn4
 BYTE   W03
 BYTE   Dn4
 BYTE   W03
 BYTE   Fn2
 BYTE   W03
 BYTE   An2
 BYTE   W03
 BYTE   Cn3
 BYTE   W03
 BYTE   Fn3
 BYTE   W03
 BYTE   An3
 BYTE   W03
 BYTE   Cn4
 BYTE   W03
 BYTE   N01  Fn4
 BYTE   W03
 BYTE   N02  An4
 BYTE   W03
 BYTE   N01  Cn5
 BYTE   W03
 BYTE   N02  An4
 BYTE   W03
 BYTE   N01  Fn4
 BYTE   W03
 BYTE   N02  Cn4
 BYTE   W03
 BYTE   N01  An3
 BYTE   W03
 BYTE   N02  Fn3
 BYTE   W03
 BYTE   Cn3
 BYTE   W03
 BYTE   An2
 BYTE   W03
 BYTE   Dn2
 BYTE   W03
 BYTE   Fn2
 BYTE   W03
 BYTE   An2
 BYTE   W03
 BYTE   Dn3
 BYTE   W03
 BYTE   N01  Fn3
 BYTE   W03
 BYTE   N02  An3
 BYTE   W03
 BYTE   Dn4
 BYTE   W03
 BYTE   N01  Fn4
 BYTE   W03
 BYTE   N02  An4
 BYTE   W03
 BYTE   Fn4
 BYTE   W03
// 033   ----------------------------------------
 BYTE   N01  Dn4
 BYTE   W03
 BYTE   N02  An3
 BYTE   W03
 BYTE   Fn3
 BYTE   W03
 BYTE   Dn3
 BYTE   W03
 BYTE   An2
 BYTE   W03
 BYTE   N01  Fn2
 BYTE   W03
 BYTE   En2
 BYTE   W03
 BYTE   N02  Gs2
 BYTE   W03
 BYTE   Bn2
 BYTE   W03
 BYTE   En3
 BYTE   W03
 BYTE   Gs3
 BYTE   W03
 BYTE   Bn3
 BYTE   W03
 BYTE   En4
 BYTE   W03
 BYTE   Bn3
 BYTE   W03
 BYTE   N03  Bn4  v127
 BYTE   W03
 BYTE   N02  Gs4  v092
 BYTE   W03
 BYTE   En4
 BYTE   W03
 BYTE   Bn3
 BYTE   W03
 BYTE   Gs3
 BYTE   W03
 BYTE   En3
 BYTE   W03
 BYTE   Bn2
 BYTE   W03
 BYTE   Gs2
 BYTE   W03
 BYTE   Dn2
 BYTE   W03
 BYTE   Fn2
 BYTE   W03
 BYTE   An2
 BYTE   W03
 BYTE   N01  Dn3
 BYTE   W03
 BYTE   N02  Fn3
 BYTE   W03
 BYTE   An3
 BYTE   W03
 BYTE   Dn4
 BYTE   W03
 BYTE   Fn4
 BYTE   W03
 BYTE   An4
 BYTE   W03
 BYTE   Fn4
 BYTE   W03
// 034   ----------------------------------------
 BYTE   Dn4
 BYTE   W03
 BYTE   N01  An3
 BYTE   W03
 BYTE   N02  Fn3
 BYTE   W03
 BYTE   Dn3
 BYTE   W03
 BYTE   An2
 BYTE   W03
 BYTE   Fn2
 BYTE   W03
 BYTE   En2
 BYTE   W03
 BYTE   Gs2
 BYTE   W03
 BYTE   Bn2
 BYTE   W03
 BYTE   En3
 BYTE   W03
 BYTE   Gs3
 BYTE   W03
 BYTE   Bn3
 BYTE   W03
 BYTE   En4
 BYTE   W03
 BYTE   N01  Bn3
 BYTE   W03
 BYTE   Bn4
 BYTE   W03
 BYTE   Gs4
 BYTE   W03
 BYTE   En4
 BYTE   W03
 BYTE   N02  Bn3
 BYTE   W03
 BYTE   N01  Gs3
 BYTE   W03
 BYTE   N02  En3
 BYTE   W03
 BYTE   Bn2
 BYTE   W03
 BYTE   Gs2
 BYTE   W03
 BYTE   Gs4
 BYTE   W03
 BYTE   An4
 BYTE   W03
 BYTE   Fs4
 BYTE   W03
 BYTE   Gs4
 BYTE   W03
 BYTE   As4
 BYTE   W03
 BYTE   En4
 BYTE   W03
 BYTE   Ds4
 BYTE   W03
 BYTE   Dn4
 BYTE   W03
 BYTE   Fn4
 BYTE   W03
 BYTE   Fs4
 BYTE   W03
// 035   ----------------------------------------
 BYTE   Dn4
 BYTE   W03
 BYTE   Ds4
 BYTE   W03
 BYTE   Dn4
 BYTE   W03
 BYTE   Cn4
 BYTE   W03
 BYTE   Bn3
 BYTE   W03
 BYTE   As3
 BYTE   W03
 BYTE   Bn4
 BYTE   W03
 BYTE   Cn5
 BYTE   W03
 BYTE   Fn4
 BYTE   W03
 BYTE   As4
 BYTE   W03
 BYTE   An4
 BYTE   W03
 BYTE   Gs4
 BYTE   W03
 BYTE   Fn4
 BYTE   W03
 BYTE   Ds4
 BYTE   W03
 BYTE   As4
 BYTE   W03
 BYTE   En4
 BYTE   W03
 BYTE   Dn4
 BYTE   W03
 BYTE   Cs4
 BYTE   W03
 BYTE   Gn4
 BYTE   W03
 BYTE   Fs4
 BYTE   W03
 BYTE   N03  Fn4
 BYTE   W03
 BYTE   N02  En4
 BYTE   W03
 BYTE   Gs4
 BYTE   W03
 BYTE   An4
 BYTE   W03
 BYTE   Fs4
 BYTE   W03
 BYTE   Gs4
 BYTE   W03
 BYTE   As4
 BYTE   W03
 BYTE   En4
 BYTE   W03
 BYTE   Ds4
 BYTE   W03
 BYTE   Dn4
 BYTE   W03
 BYTE   Fn4
 BYTE   W03
 BYTE   Fs4
 BYTE   W03
// 036   ----------------------------------------
 BYTE   Dn4
 BYTE   W03
 BYTE   Ds4
 BYTE   W03
 BYTE   Dn4
 BYTE   W03
 BYTE   Cn4
 BYTE   W03
 BYTE   Bn3
 BYTE   W03
 BYTE   As3
 BYTE   W03
 BYTE   Bn4
 BYTE   W03
 BYTE   Cn5
 BYTE   W03
 BYTE   Fn4
 BYTE   W03
 BYTE   As4
 BYTE   W03
 BYTE   An4
 BYTE   W03
 BYTE   Gs4
 BYTE   W03
 BYTE   Fn4
 BYTE   W03
 BYTE   Ds4
 BYTE   W03
 BYTE   As4
 BYTE   W03
 BYTE   En4
 BYTE   W03
 BYTE   Dn4
 BYTE   W03
 BYTE   Cs4
 BYTE   W03
 BYTE   Gn4
 BYTE   W03
 BYTE   Fs4
 BYTE   W03
 BYTE   N06  Gs3  v127
 BYTE   W06
 BYTE   Gn3
 BYTE   W06
 BYTE   As3
 BYTE   W06
 BYTE   Fs3
 BYTE   W06
 BYTE   En3
 BYTE   W06
 BYTE   Ds3
 BYTE   W06
// 037   ----------------------------------------
 BYTE   Dn3
 BYTE   W06
 BYTE   Ds3
 BYTE   W06
 BYTE   Gn3
 BYTE   W06
 BYTE   Fs3
 BYTE   W06
 BYTE   Fn3
 BYTE   W06
 BYTE   En3
 BYTE   W06
 BYTE   As3
 BYTE   W06
 BYTE   An3
 BYTE   W06
 BYTE   Gn3
 BYTE   W06
 BYTE   Fn3
 BYTE   W06
 BYTE   Dn4
 BYTE   W06
 BYTE   Cs4
 BYTE   W06
 BYTE   En4
 BYTE   W06
 BYTE   Ds4
 BYTE   W06
 BYTE   Gn3
 BYTE   W06
 BYTE   Fn3
 BYTE   W06
// 038   ----------------------------------------
 BYTE   Ds4
 BYTE   W06
 BYTE   Bn3
 BYTE   W06
 BYTE   N02  An2  v092
 BYTE   W03
 BYTE   N01  En3
 BYTE   W03
 BYTE   N02  An3
 BYTE   W03
 BYTE   N01  Cn4
 BYTE   W03
 BYTE   En4
 BYTE   W03
 BYTE   N02  Cn4
 BYTE   W03
 BYTE   An3
 BYTE   W03
 BYTE   En3
 BYTE   W03
 BYTE   An2
 BYTE   W03
 BYTE   En3
 BYTE   W03
 BYTE   N01  An3
 BYTE   W03
 BYTE   N02  Cn4
 BYTE   W03
 BYTE   N01  En4
 BYTE   W03
 BYTE   N02  Cn4
 BYTE   W03
 BYTE   N01  An3
 BYTE   W03
 BYTE   N02  En3
 BYTE   W03
 BYTE   An2
 BYTE   W03
 BYTE   N01  En3
 BYTE   W03
 BYTE   N02  An3
 BYTE   W03
 BYTE   Cn4
 BYTE   N02  An4
 BYTE   W03
 BYTE   Gs4
 BYTE   W03
 BYTE   Gn4
 BYTE   W03
 BYTE   Fs4
 BYTE   W03
 BYTE   N01  Fn4
 BYTE   W03
 BYTE   En4
 BYTE   W03
 BYTE   N02  Ds4
 BYTE   W03
 BYTE   N01  Dn4
 BYTE   W03
 BYTE   N02  Cs4
 BYTE   W03
// 039   ----------------------------------------
 BYTE   N01  Cn4
 BYTE   W03
 BYTE   N02  Bn3
 BYTE   W03
 BYTE   As3
 BYTE   W03
 BYTE   An3
 BYTE   W03
 BYTE   Cn3
 BYTE   W03
 BYTE   En3
 BYTE   W03
 BYTE   An3
 BYTE   W03
 BYTE   Cn4
 BYTE   W03
 BYTE   En4
 BYTE   W03
 BYTE   N01  Cn4
 BYTE   W03
 BYTE   N02  An4
 BYTE   W03
 BYTE   En4
 BYTE   W03
 BYTE   Bn2
 BYTE   W03
 BYTE   Dn3
 BYTE   W03
 BYTE   Gn3
 BYTE   W03
 BYTE   Bn3
 BYTE   W03
 BYTE   Dn4
 BYTE   W03
 BYTE   Bn3
 BYTE   W03
 BYTE   Gn4
 BYTE   W03
 BYTE   Dn4
 BYTE   W03
 BYTE   Fn2
 BYTE   W03
 BYTE   An2
 BYTE   W03
 BYTE   Cn3
 BYTE   W03
 BYTE   Fn3
 BYTE   W03
 BYTE   An3
 BYTE   W03
 BYTE   Cn4
 BYTE   W03
 BYTE   N01  Fn4
 BYTE   W03
 BYTE   N02  An4
 BYTE   W03
 BYTE   N01  Cn5
 BYTE   W03
 BYTE   N02  An4
 BYTE   W03
 BYTE   N01  Fn4
 BYTE   W03
 BYTE   N02  Cn4
 BYTE   W03
// 040   ----------------------------------------
 BYTE   N01  An3
 BYTE   W03
 BYTE   N02  Fn3
 BYTE   W03
 BYTE   Cn3
 BYTE   W03
 BYTE   An2
 BYTE   W03
 BYTE   Dn2
 BYTE   W03
 BYTE   Fn2
 BYTE   W03
 BYTE   An2
 BYTE   W03
 BYTE   Dn3
 BYTE   W03
 BYTE   N01  Fn3
 BYTE   W03
 BYTE   N02  An3
 BYTE   W03
 BYTE   Dn4
 BYTE   W03
 BYTE   N01  Fn4
 BYTE   W03
 BYTE   N02  An4
 BYTE   W03
 BYTE   Fn4
 BYTE   W03
 BYTE   N01  Dn4
 BYTE   W03
 BYTE   N02  An3
 BYTE   W03
 BYTE   Fn3
 BYTE   W03
 BYTE   Dn3
 BYTE   W03
 BYTE   An2
 BYTE   W03
 BYTE   N01  Fn2
 BYTE   W03
 BYTE   En2
 BYTE   W03
 BYTE   N02  Gs2
 BYTE   W03
 BYTE   Bn2
 BYTE   W03
 BYTE   En3
 BYTE   W03
 BYTE   Gs3
 BYTE   W03
 BYTE   Bn3
 BYTE   W03
 BYTE   En4
 BYTE   W03
 BYTE   Bn3
 BYTE   W03
 BYTE   N03  Bn4  v127
 BYTE   W03
 BYTE   N02  Gs4  v092
 BYTE   W03
 BYTE   En4
 BYTE   W03
 BYTE   Bn3
 BYTE   W03
// 041   ----------------------------------------
 BYTE   Gs3
 BYTE   W03
 BYTE   En3
 BYTE   W03
 BYTE   Bn2
 BYTE   W03
 BYTE   Gs2
 BYTE   W03
 BYTE   Dn2
 BYTE   W03
 BYTE   Fn2
 BYTE   W03
 BYTE   An2
 BYTE   W03
 BYTE   N01  Dn3
 BYTE   W03
 BYTE   N02  Fn3
 BYTE   W03
 BYTE   An3
 BYTE   W03
 BYTE   Dn4
 BYTE   W03
 BYTE   Fn4
 BYTE   W03
 BYTE   An4
 BYTE   W03
 BYTE   Fn4
 BYTE   W03
 BYTE   Dn4
 BYTE   W03
 BYTE   N01  An3
 BYTE   W03
 BYTE   N02  Fn3
 BYTE   W03
 BYTE   Dn3
 BYTE   W03
 BYTE   An2
 BYTE   W03
 BYTE   Fn2
 BYTE   W03
 BYTE   En2
 BYTE   W03
 BYTE   Gs2
 BYTE   W03
 BYTE   Bn2
 BYTE   W03
 BYTE   En3
 BYTE   W03
 BYTE   Gs3
 BYTE   W03
 BYTE   Bn3
 BYTE   W03
 BYTE   En4
 BYTE   W03
 BYTE   N01  Bn3
 BYTE   W03
 BYTE   Bn4
 BYTE   W03
 BYTE   Gs4
 BYTE   W03
 BYTE   En4
 BYTE   W03
 BYTE   N02  Bn3
 BYTE   W03
// 042   ----------------------------------------
 BYTE   N01  Gs3
 BYTE   W03
 BYTE   N02  En3
 BYTE   W03
 BYTE   Bn2
 BYTE   W03
 BYTE   Gs2
 BYTE   W84
 BYTE   W03
// 043   ----------------------------------------
 BYTE   W96
// 044   ----------------------------------------
 BYTE   W12
 BYTE   N17  An1  v127
 BYTE   W18
 BYTE   N03
 BYTE   W03
 BYTE   Bn1
 BYTE   W03
 BYTE   N23  Cn2
 BYTE   W24
 BYTE   N07  Gn2
 BYTE   W08
 BYTE   Cs2
 BYTE   W08
 BYTE   Fs2
 BYTE   W08
 BYTE   Fn2
 BYTE   W08
 BYTE   Cn2
 BYTE   W04
// 045   ----------------------------------------
 BYTE   W04
 BYTE   Bn1
 BYTE   W08
 BYTE   N23  Gs1
 BYTE   W24
 BYTE   Dn2
 BYTE   W24
 BYTE   N06  Cs2
 BYTE   W06
 BYTE   Gn1
 BYTE   W06
 BYTE   Fs1
 BYTE   W06
 BYTE   Fn1
 BYTE   W06
 BYTE   N03  An2
 BYTE   W03
 BYTE   Gs2
 BYTE   W03
 BYTE   Gn2
 BYTE   W03
 BYTE   Fs2
 BYTE   W03
// 046   ----------------------------------------
 BYTE   En2
 BYTE   W03
 BYTE   Dn2
 BYTE   W03
 BYTE   Cs2
 BYTE   W03
 BYTE   Bn1
 BYTE   W68
 BYTE   W01
 BYTE   En4  v052
 BYTE   W03
 BYTE   Fn4
 BYTE   W03
 BYTE   Fs4
 BYTE   W03
 BYTE   Gn4
 BYTE   W03
 BYTE   Fn4
 BYTE   W03
 BYTE   Fs4
 BYTE   W03
// 047   ----------------------------------------
 BYTE   Gn4
 BYTE   W03
 BYTE   Fs4
 BYTE   W03
 BYTE   Gn4
 BYTE   W03
 BYTE   Gs4
 BYTE   W03
 BYTE   An4
 BYTE   W03
 BYTE   Gn4
 BYTE   W03
 BYTE   Gs4  v080
 BYTE   W03
 BYTE   An4
 BYTE   W03
 BYTE   Gn4
 BYTE   W03
 BYTE   Gs4
 BYTE   W03
 BYTE   An4
 BYTE   W03
 BYTE   As4
 BYTE   W03
 BYTE   Gs4
 BYTE   W03
 BYTE   An4
 BYTE   W03
 BYTE   As4
 BYTE   W03
 BYTE   Bn4
 BYTE   W03
 BYTE   An4
 BYTE   W03
 BYTE   As4
 BYTE   W03
 BYTE   Bn4
 BYTE   W03
 BYTE   An4
 BYTE   W03
 BYTE   As4
 BYTE   W03
 BYTE   Bn4
 BYTE   W03
 BYTE   Cn5
 BYTE   W03
 BYTE   As4
 BYTE   W03
 BYTE   Bn4
 BYTE   W03
 BYTE   Cn5
 BYTE   W03
 BYTE   Bn4  v104
 BYTE   W03
 BYTE   Cn5
 BYTE   W03
 BYTE   Cs5
 BYTE   W03
 BYTE   Dn5
 BYTE   W03
 BYTE   Bn4
 BYTE   W03
 BYTE   Cn5
 BYTE   W03
// 048   ----------------------------------------
 BYTE   Cs5
 BYTE   W03
 BYTE   Dn5
 BYTE   W03
 BYTE   As4
 BYTE   W03
 BYTE   Bn4
 BYTE   W32
 BYTE   W01
 BYTE   N06  As3  v127
 BYTE   N06  En4
 BYTE   W36
 BYTE   An3
 BYTE   N06  Ds4
 BYTE   W18
// 049   ----------------------------------------
 BYTE   W18
 BYTE   As3
 BYTE   N06  En4
 BYTE   W36
 BYTE   Bn3
 BYTE   N06  Fn4
 BYTE   W36
 BYTE   As3
 BYTE   N06  En4
 BYTE   W06
// 050   ----------------------------------------
 BYTE   W30
 BYTE   An3
 BYTE   N06  Ds4
 BYTE   W36
 BYTE   As3
 BYTE   N06  En4
 BYTE   W30
// 051   ----------------------------------------
 BYTE   W06
 BYTE   Bn3
 BYTE   N06  Fn4
 BYTE   W06
 BYTE   N24  Gn3
 BYTE   W24
 BYTE   N17  Cn4
 BYTE   W18
 BYTE   N22  An3
 BYTE   W24
 BYTE   N16  Dn4
 BYTE   W18
// 052   ----------------------------------------
 BYTE   N24  Ds4
 BYTE   W24
 BYTE   N06
 BYTE   W06
 BYTE   Dn4
 BYTE   W06
 BYTE   Cn4
 BYTE   W06
 BYTE   N23  Dn4
 BYTE   W24
 BYTE   N16  Cn4
 BYTE   W18
 BYTE   N03  Fn3
 BYTE   N03  Bn3
 BYTE   W06
 BYTE   Fs3
 BYTE   N03  Cn4
 BYTE   W06
// 053   ----------------------------------------
 BYTE   Fn3
 BYTE   N03  Bn3
 BYTE   W06
 BYTE   Fs3
 BYTE   N03  Cn4
 BYTE   W06
 BYTE   Fn3
 BYTE   N03  Bn3
 BYTE   W06
 BYTE   Fs3
 BYTE   N03  Cn4
 BYTE   W06
 BYTE   Fn3
 BYTE   N03  Bn3
 BYTE   W06
 BYTE   Gn3
 BYTE   N03  Cs4
 BYTE   W06
 BYTE   Gs3
 BYTE   N03  Dn4
 BYTE   W06
 BYTE   Gn3
 BYTE   N03  Cs4
 BYTE   W06
 BYTE   Gs3
 BYTE   N03  Dn4
 BYTE   W06
 BYTE   Gn3
 BYTE   N03  Cs4
 BYTE   W06
 BYTE   Gs3
 BYTE   N03  Dn4
 BYTE   W06
 BYTE   Gn3
 BYTE   N03  Cs4
 BYTE   W06
 BYTE   An3
 BYTE   N03  Ds4
 BYTE   W06
 BYTE   As3
 BYTE   N03  En4
 BYTE   W06
 BYTE   An3
 BYTE   N03  Ds4
 BYTE   W06
 BYTE   As3
 BYTE   N03  En4
 BYTE   W06
// 054   ----------------------------------------
 BYTE   An3
 BYTE   N03  Ds4
 BYTE   W06
 BYTE   As3
 BYTE   N03  En4
 BYTE   W06
 BYTE   An3
 BYTE   N03  Ds4
 BYTE   W06
 BYTE   Bn3
 BYTE   N03  Fn4
 BYTE   W06
 BYTE   Cn4
 BYTE   N03  Fs4
 BYTE   W06
 BYTE   Bn3
 BYTE   N03  Fn4
 BYTE   W06
 BYTE   Cn4
 BYTE   N03  Fs4
 BYTE   W06
 BYTE   Bn3
 BYTE   N03  Fn4
 BYTE   W06
 BYTE   Cn4
 BYTE   N03  Fs4
 BYTE   W06
 BYTE   Bn3
 BYTE   N03  Fn4
 BYTE   W06
 BYTE   GoTo
  POIN2 Label_8_0142F16D
 BYTE   FINE

//**************** Track 10 (Midi-Chn.9) ****************//

GoldenSunFusionDragonBattleMrGreen3339_010:
// 000   ----------------------------------------
 BYTE   KEYSH   GoldenSunFusionDragonBattleMrGreen3339_key+0
 BYTE   VOICE   62
 BYTE   VOL   25*GoldenSunFusionDragonBattleMrGreen3339_mvl/mxv
 BYTE   PAN   c_v-18
 BYTE   W96
// 001   ----------------------------------------
Label_9_0142FAE1:
 BYTE   W06
 BYTE   N06  En4  v127
 BYTE   W06
 BYTE   Cn5
 BYTE   W06
 BYTE   Bn4
 BYTE   W06
 BYTE   Fs4
 BYTE   W06
 BYTE   As4
 BYTE   W06
 BYTE   En4
 BYTE   W06
 BYTE   Ds4
 BYTE   W06
 BYTE   As4
 BYTE   W06
 BYTE   Ds4
 BYTE   W06
 BYTE   En4
 BYTE   W06
 BYTE   Bn4
 BYTE   W06
 BYTE   As4
 BYTE   W06
 BYTE   An4
 BYTE   W06
 BYTE   Gs4
 BYTE   W06
 BYTE   Cs5
 BYTE   W06
// 002   ----------------------------------------
 BYTE   En4
 BYTE   W06
 BYTE   Ds4
 BYTE   W06
 BYTE   Bn4
 BYTE   W06
 BYTE   As4
 BYTE   W06
 BYTE   Fn4
 BYTE   W06
 BYTE   Cn4
 BYTE   W06
 BYTE   En5
 BYTE   W06
 BYTE   An4
 BYTE   W06
 BYTE   Gs4
 BYTE   W06
 BYTE   Dn5
 BYTE   W06
 BYTE   Cs5
 BYTE   W06
 BYTE   Fs4
 BYTE   W06
 BYTE   Fn4
 BYTE   W06
 BYTE   Gs4
 BYTE   W06
 BYTE   Gn4
 BYTE   W12
// 003   ----------------------------------------
 BYTE   Gs4
 BYTE   W06
 BYTE   Gn4
 BYTE   W12
 BYTE   Gs4
 BYTE   W06
 BYTE   Gn4
 BYTE   W06
 BYTE   Fs4
 BYTE   W06
 BYTE   As4
 BYTE   W06
 BYTE   An4
 BYTE   W12
 BYTE   As4
 BYTE   W06
 BYTE   An4
 BYTE   W12
 BYTE   As4
 BYTE   W06
 BYTE   An4
 BYTE   W06
 BYTE   Gs4
 BYTE   W06
 BYTE   N02  An2  v092
 BYTE   W03
 BYTE   N01  En3
 BYTE   W03
// 004   ----------------------------------------
 BYTE   N02  An3
 BYTE   W03
 BYTE   N01  Cn4
 BYTE   W03
 BYTE   En4
 BYTE   W03
 BYTE   N02  Cn4
 BYTE   W03
 BYTE   An3
 BYTE   W03
 BYTE   En3
 BYTE   W03
 BYTE   An2
 BYTE   W03
 BYTE   En3
 BYTE   W03
 BYTE   N01  An3
 BYTE   W03
 BYTE   N02  Cn4
 BYTE   W03
 BYTE   N01  En4
 BYTE   W03
 BYTE   N02  Cn4
 BYTE   W03
 BYTE   N01  An3
 BYTE   W03
 BYTE   N02  En3
 BYTE   W03
 BYTE   An2
 BYTE   W03
 BYTE   N01  En3
 BYTE   W03
 BYTE   N02  An3
 BYTE   W03
 BYTE   Cn4
 BYTE   N02  An4
 BYTE   W03
 BYTE   Gs4
 BYTE   W03
 BYTE   Gn4
 BYTE   W03
 BYTE   Fs4
 BYTE   W03
 BYTE   N01  Fn4
 BYTE   W03
 BYTE   En4
 BYTE   W03
 BYTE   N02  Ds4
 BYTE   W03
 BYTE   N01  Dn4
 BYTE   W03
 BYTE   N02  Cs4
 BYTE   W03
 BYTE   N01  Cn4
 BYTE   W03
 BYTE   N02  Bn3
 BYTE   W03
 BYTE   As3
 BYTE   W03
 BYTE   An3
 BYTE   W03
 BYTE   Cn3
 BYTE   W03
 BYTE   En3
 BYTE   W03
// 005   ----------------------------------------
 BYTE   An3
 BYTE   W03
 BYTE   Cn4
 BYTE   W03
 BYTE   En4
 BYTE   W03
 BYTE   N01  Cn4
 BYTE   W03
 BYTE   N02  An4
 BYTE   W03
 BYTE   En4
 BYTE   W03
 BYTE   Bn2
 BYTE   W03
 BYTE   Dn3
 BYTE   W03
 BYTE   Gn3
 BYTE   W03
 BYTE   Bn3
 BYTE   W03
 BYTE   Dn4
 BYTE   W03
 BYTE   Bn3
 BYTE   W03
 BYTE   Gn4
 BYTE   W03
 BYTE   Dn4
 BYTE   W03
 BYTE   Fn2
 BYTE   W03
 BYTE   An2
 BYTE   W03
 BYTE   Cn3
 BYTE   W03
 BYTE   Fn3
 BYTE   W03
 BYTE   An3
 BYTE   W03
 BYTE   Cn4
 BYTE   W03
 BYTE   N01  Fn4
 BYTE   W03
 BYTE   N02  An4
 BYTE   W03
 BYTE   N01  Cn5
 BYTE   W03
 BYTE   N02  An4
 BYTE   W03
 BYTE   N01  Fn4
 BYTE   W03
 BYTE   N02  Cn4
 BYTE   W03
 BYTE   N01  An3
 BYTE   W03
 BYTE   N02  Fn3
 BYTE   W03
 BYTE   Cn3
 BYTE   W03
 BYTE   An2
 BYTE   W03
 BYTE   Dn2
 BYTE   W03
 BYTE   Fn2
 BYTE   W03
// 006   ----------------------------------------
 BYTE   An2
 BYTE   W03
 BYTE   Dn3
 BYTE   W03
 BYTE   N01  Fn3
 BYTE   W03
 BYTE   N02  An3
 BYTE   W03
 BYTE   Dn4
 BYTE   W03
 BYTE   N01  Fn4
 BYTE   W03
 BYTE   N02  An4
 BYTE   W03
 BYTE   Fn4
 BYTE   W03
 BYTE   N01  Dn4
 BYTE   W03
 BYTE   N02  An3
 BYTE   W03
 BYTE   Fn3
 BYTE   W03
 BYTE   Dn3
 BYTE   W03
 BYTE   An2
 BYTE   W03
 BYTE   N01  Fn2
 BYTE   W03
 BYTE   En2
 BYTE   W03
 BYTE   N02  Gs2
 BYTE   W03
 BYTE   Bn2
 BYTE   W03
 BYTE   En3
 BYTE   W03
 BYTE   Gs3
 BYTE   W03
 BYTE   Bn3
 BYTE   W03
 BYTE   En4
 BYTE   W03
 BYTE   Bn3
 BYTE   W03
 BYTE   N03  Bn4  v127
 BYTE   W03
 BYTE   N02  Gs4  v092
 BYTE   W03
 BYTE   En4
 BYTE   W03
 BYTE   Bn3
 BYTE   W03
 BYTE   Gs3
 BYTE   W03
 BYTE   En3
 BYTE   W03
 BYTE   Bn2
 BYTE   W03
 BYTE   Gs2
 BYTE   W03
 BYTE   Dn2
 BYTE   W03
 BYTE   Fn2
 BYTE   W03
// 007   ----------------------------------------
 BYTE   An2
 BYTE   W03
 BYTE   N01  Dn3
 BYTE   W03
 BYTE   N02  Fn3
 BYTE   W03
 BYTE   An3
 BYTE   W03
 BYTE   Dn4
 BYTE   W03
 BYTE   Fn4
 BYTE   W03
 BYTE   An4
 BYTE   W03
 BYTE   Fn4
 BYTE   W03
 BYTE   Dn4
 BYTE   W03
 BYTE   N01  An3
 BYTE   W03
 BYTE   N02  Fn3
 BYTE   W03
 BYTE   Dn3
 BYTE   W03
 BYTE   An2
 BYTE   W03
 BYTE   Fn2
 BYTE   W03
 BYTE   En2
 BYTE   W03
 BYTE   Gs2
 BYTE   W03
 BYTE   Bn2
 BYTE   W03
 BYTE   En3
 BYTE   W03
 BYTE   Gs3
 BYTE   W03
 BYTE   Bn3
 BYTE   W03
 BYTE   En4
 BYTE   W03
 BYTE   N01  Bn3
 BYTE   W03
 BYTE   Bn4
 BYTE   W03
 BYTE   Gs4
 BYTE   W03
 BYTE   En4
 BYTE   W03
 BYTE   N02  Bn3
 BYTE   W03
 BYTE   N01  Gs3
 BYTE   W03
 BYTE   N02  En3
 BYTE   W03
 BYTE   Bn2
 BYTE   W03
 BYTE   Gs2
 BYTE   W03
 BYTE   Gs4
 BYTE   W03
 BYTE   An4
 BYTE   W03
// 008   ----------------------------------------
 BYTE   Fs4
 BYTE   W03
 BYTE   Gs4
 BYTE   W03
 BYTE   As4
 BYTE   W03
 BYTE   En4
 BYTE   W03
 BYTE   Ds4
 BYTE   W03
 BYTE   Dn4
 BYTE   W03
 BYTE   Fn4
 BYTE   W03
 BYTE   Fs4
 BYTE   W03
 BYTE   Dn4
 BYTE   W03
 BYTE   Ds4
 BYTE   W03
 BYTE   Dn4
 BYTE   W03
 BYTE   Cn4
 BYTE   W03
 BYTE   Bn3
 BYTE   W03
 BYTE   As3
 BYTE   W03
 BYTE   Bn4
 BYTE   W03
 BYTE   Cn5
 BYTE   W03
 BYTE   Fn4
 BYTE   W03
 BYTE   As4
 BYTE   W03
 BYTE   An4
 BYTE   W03
 BYTE   Gs4
 BYTE   W03
 BYTE   Fn4
 BYTE   W03
 BYTE   Ds4
 BYTE   W03
 BYTE   As4
 BYTE   W03
 BYTE   En4
 BYTE   W03
 BYTE   Dn4
 BYTE   W03
 BYTE   Cs4
 BYTE   W03
 BYTE   Gn4
 BYTE   W03
 BYTE   Fs4
 BYTE   W03
 BYTE   N03  Fn4
 BYTE   W03
 BYTE   N02  En4
 BYTE   W03
 BYTE   Gs4
 BYTE   W03
 BYTE   An4
 BYTE   W03
// 009   ----------------------------------------
 BYTE   Fs4
 BYTE   W03
 BYTE   Gs4
 BYTE   W03
 BYTE   As4
 BYTE   W03
 BYTE   En4
 BYTE   W03
 BYTE   Ds4
 BYTE   W03
 BYTE   Dn4
 BYTE   W03
 BYTE   Fn4
 BYTE   W03
 BYTE   Fs4
 BYTE   W03
 BYTE   Dn4
 BYTE   W03
 BYTE   Ds4
 BYTE   W03
 BYTE   Dn4
 BYTE   W03
 BYTE   Cn4
 BYTE   W03
 BYTE   Bn3
 BYTE   W03
 BYTE   As3
 BYTE   W03
 BYTE   Bn4
 BYTE   W03
 BYTE   Cn5
 BYTE   W03
 BYTE   Fn4
 BYTE   W03
 BYTE   As4
 BYTE   W03
 BYTE   An4
 BYTE   W03
 BYTE   Gs4
 BYTE   W03
 BYTE   Fn4
 BYTE   W03
 BYTE   Ds4
 BYTE   W03
 BYTE   As4
 BYTE   W03
 BYTE   En4
 BYTE   W03
 BYTE   Dn4
 BYTE   W03
 BYTE   Cs4
 BYTE   W03
 BYTE   Gn4
 BYTE   W03
 BYTE   Fs4
 BYTE   W03
 BYTE   N06  Gs3  v127
 BYTE   W06
 BYTE   Gn3
 BYTE   W06
// 010   ----------------------------------------
 BYTE   As3
 BYTE   W06
 BYTE   Fs3
 BYTE   W06
 BYTE   En3
 BYTE   W06
 BYTE   Ds3
 BYTE   W06
 BYTE   Dn3
 BYTE   W06
 BYTE   Ds3
 BYTE   W06
 BYTE   Gn3
 BYTE   W06
 BYTE   Fs3
 BYTE   W06
 BYTE   Fn3
 BYTE   W06
 BYTE   En3
 BYTE   W06
 BYTE   As3
 BYTE   W06
 BYTE   An3
 BYTE   W06
 BYTE   Gn3
 BYTE   W06
 BYTE   Fn3
 BYTE   W06
 BYTE   Dn4
 BYTE   W06
 BYTE   Cs4
 BYTE   W06
// 011   ----------------------------------------
 BYTE   En4
 BYTE   W06
 BYTE   Ds4
 BYTE   W06
 BYTE   Gn3
 BYTE   W06
 BYTE   Fn3
 BYTE   W06
 BYTE   Ds4
 BYTE   W06
 BYTE   Bn3
 BYTE   W06
 BYTE   N02  An2  v092
 BYTE   W03
 BYTE   N01  En3
 BYTE   W03
 BYTE   N02  An3
 BYTE   W03
 BYTE   N01  Cn4
 BYTE   W03
 BYTE   En4
 BYTE   W03
 BYTE   N02  Cn4
 BYTE   W03
 BYTE   An3
 BYTE   W03
 BYTE   En3
 BYTE   W03
 BYTE   An2
 BYTE   W03
 BYTE   En3
 BYTE   W03
 BYTE   N01  An3
 BYTE   W03
 BYTE   N02  Cn4
 BYTE   W03
 BYTE   N01  En4
 BYTE   W03
 BYTE   N02  Cn4
 BYTE   W03
 BYTE   N01  An3
 BYTE   W03
 BYTE   N02  En3
 BYTE   W03
 BYTE   An2
 BYTE   W03
 BYTE   N01  En3
 BYTE   W03
 BYTE   N02  An3
 BYTE   W03
 BYTE   Cn4
 BYTE   N02  An4
 BYTE   W03
// 012   ----------------------------------------
 BYTE   Gs4
 BYTE   W03
 BYTE   Gn4
 BYTE   W03
 BYTE   Fs4
 BYTE   W03
 BYTE   N01  Fn4
 BYTE   W03
 BYTE   En4
 BYTE   W03
 BYTE   N02  Ds4
 BYTE   W03
 BYTE   N01  Dn4
 BYTE   W03
 BYTE   N02  Cs4
 BYTE   W03
 BYTE   N01  Cn4
 BYTE   W03
 BYTE   N02  Bn3
 BYTE   W03
 BYTE   As3
 BYTE   W03
 BYTE   An3
 BYTE   W03
 BYTE   Cn3
 BYTE   W03
 BYTE   En3
 BYTE   W03
 BYTE   An3
 BYTE   W03
 BYTE   Cn4
 BYTE   W03
 BYTE   En4
 BYTE   W03
 BYTE   N01  Cn4
 BYTE   W03
 BYTE   N02  An4
 BYTE   W03
 BYTE   En4
 BYTE   W03
 BYTE   Bn2
 BYTE   W03
 BYTE   Dn3
 BYTE   W03
 BYTE   Gn3
 BYTE   W03
 BYTE   Bn3
 BYTE   W03
 BYTE   Dn4
 BYTE   W03
 BYTE   Bn3
 BYTE   W03
 BYTE   Gn4
 BYTE   W03
 BYTE   Dn4
 BYTE   W03
 BYTE   Fn2
 BYTE   W03
 BYTE   An2
 BYTE   W03
 BYTE   Cn3
 BYTE   W03
 BYTE   Fn3
 BYTE   W03
// 013   ----------------------------------------
 BYTE   An3
 BYTE   W03
 BYTE   Cn4
 BYTE   W03
 BYTE   N01  Fn4
 BYTE   W03
 BYTE   N02  An4
 BYTE   W03
 BYTE   N01  Cn5
 BYTE   W03
 BYTE   N02  An4
 BYTE   W03
 BYTE   N01  Fn4
 BYTE   W03
 BYTE   N02  Cn4
 BYTE   W03
 BYTE   N01  An3
 BYTE   W03
 BYTE   N02  Fn3
 BYTE   W03
 BYTE   Cn3
 BYTE   W03
 BYTE   An2
 BYTE   W03
 BYTE   Dn2
 BYTE   W03
 BYTE   Fn2
 BYTE   W03
 BYTE   An2
 BYTE   W03
 BYTE   Dn3
 BYTE   W03
 BYTE   N01  Fn3
 BYTE   W03
 BYTE   N02  An3
 BYTE   W03
 BYTE   Dn4
 BYTE   W03
 BYTE   N01  Fn4
 BYTE   W03
 BYTE   N02  An4
 BYTE   W03
 BYTE   Fn4
 BYTE   W03
 BYTE   N01  Dn4
 BYTE   W03
 BYTE   N02  An3
 BYTE   W03
 BYTE   Fn3
 BYTE   W03
 BYTE   Dn3
 BYTE   W03
 BYTE   An2
 BYTE   W03
 BYTE   N01  Fn2
 BYTE   W03
 BYTE   En2
 BYTE   W03
 BYTE   N02  Gs2
 BYTE   W03
 BYTE   Bn2
 BYTE   W03
 BYTE   En3
 BYTE   W03
// 014   ----------------------------------------
 BYTE   Gs3
 BYTE   W03
 BYTE   Bn3
 BYTE   W03
 BYTE   En4
 BYTE   W03
 BYTE   Bn3
 BYTE   W03
 BYTE   N03  Bn4  v127
 BYTE   W03
 BYTE   N02  Gs4  v092
 BYTE   W03
 BYTE   En4
 BYTE   W03
 BYTE   Bn3
 BYTE   W03
 BYTE   Gs3
 BYTE   W03
 BYTE   En3
 BYTE   W03
 BYTE   Bn2
 BYTE   W03
 BYTE   Gs2
 BYTE   W03
 BYTE   Dn2
 BYTE   W03
 BYTE   Fn2
 BYTE   W03
 BYTE   An2
 BYTE   W03
 BYTE   N01  Dn3
 BYTE   W03
 BYTE   N02  Fn3
 BYTE   W03
 BYTE   An3
 BYTE   W03
 BYTE   Dn4
 BYTE   W03
 BYTE   Fn4
 BYTE   W03
 BYTE   An4
 BYTE   W03
 BYTE   Fn4
 BYTE   W03
 BYTE   Dn4
 BYTE   W03
 BYTE   N01  An3
 BYTE   W03
 BYTE   N02  Fn3
 BYTE   W03
 BYTE   Dn3
 BYTE   W03
 BYTE   An2
 BYTE   W03
 BYTE   Fn2
 BYTE   W03
 BYTE   En2
 BYTE   W03
 BYTE   Gs2
 BYTE   W03
 BYTE   Bn2
 BYTE   W03
 BYTE   En3
 BYTE   W03
// 015   ----------------------------------------
 BYTE   Gs3
 BYTE   W03
 BYTE   Bn3
 BYTE   W03
 BYTE   En4
 BYTE   W03
 BYTE   N01  Bn3
 BYTE   W03
 BYTE   Bn4
 BYTE   W03
 BYTE   Gs4
 BYTE   W03
 BYTE   En4
 BYTE   W03
 BYTE   N02  Bn3
 BYTE   W03
 BYTE   N01  Gs3
 BYTE   W03
 BYTE   N02  En3
 BYTE   W03
 BYTE   Bn2
 BYTE   W03
 BYTE   Gs2
 BYTE   W60
 BYTE   W03
// 016   ----------------------------------------
 BYTE   W96
// 017   ----------------------------------------
 BYTE   W36
 BYTE   N17  An1  v127
 BYTE   W18
 BYTE   N03
 BYTE   W03
 BYTE   Bn1
 BYTE   W03
 BYTE   N23  Cn2
 BYTE   W24
 BYTE   N07  Gn2
 BYTE   W08
 BYTE   Cs2
 BYTE   W04
// 018   ----------------------------------------
 BYTE   W04
 BYTE   Fs2
 BYTE   W08
 BYTE   Fn2
 BYTE   W08
 BYTE   Cn2
 BYTE   W08
 BYTE   Bn1
 BYTE   W08
 BYTE   N23  Gs1
 BYTE   W24
 BYTE   Dn2
 BYTE   W24
 BYTE   N06  Cs2
 BYTE   W06
 BYTE   Gn1
 BYTE   W06
// 019   ----------------------------------------
 BYTE   Fs1
 BYTE   W06
 BYTE   Fn1
 BYTE   W06
 BYTE   N03  An2
 BYTE   W03
 BYTE   Gs2
 BYTE   W03
 BYTE   Gn2
 BYTE   W03
 BYTE   Fs2
 BYTE   W03
 BYTE   En2
 BYTE   W03
 BYTE   Dn2
 BYTE   W03
 BYTE   Cs2
 BYTE   W03
 BYTE   Bn1
 BYTE   W60
 BYTE   W03
// 020   ----------------------------------------
 BYTE   W06
 BYTE   En4  v052
 BYTE   W03
 BYTE   Fn4
 BYTE   W03
 BYTE   Fs4
 BYTE   W03
 BYTE   Gn4
 BYTE   W03
 BYTE   Fn4
 BYTE   W03
 BYTE   Fs4
 BYTE   W03
 BYTE   Gn4
 BYTE   W03
 BYTE   Fs4
 BYTE   W03
 BYTE   Gn4
 BYTE   W03
 BYTE   Gs4
 BYTE   W03
 BYTE   An4
 BYTE   W03
 BYTE   Gn4
 BYTE   W03
 BYTE   Gs4  v080
 BYTE   W03
 BYTE   An4
 BYTE   W03
 BYTE   Gn4
 BYTE   W03
 BYTE   Gs4
 BYTE   W03
 BYTE   An4
 BYTE   W03
 BYTE   As4
 BYTE   W03
 BYTE   Gs4
 BYTE   W03
 BYTE   An4
 BYTE   W03
 BYTE   As4
 BYTE   W03
 BYTE   Bn4
 BYTE   W03
 BYTE   An4
 BYTE   W03
 BYTE   As4
 BYTE   W03
 BYTE   Bn4
 BYTE   W03
 BYTE   An4
 BYTE   W03
 BYTE   As4
 BYTE   W03
 BYTE   Bn4
 BYTE   W03
 BYTE   Cn5
 BYTE   W03
 BYTE   As4
 BYTE   W03
// 021   ----------------------------------------
 BYTE   Bn4
 BYTE   W03
 BYTE   Cn5
 BYTE   W03
 BYTE   Bn4  v104
 BYTE   W03
 BYTE   Cn5
 BYTE   W03
 BYTE   Cs5
 BYTE   W03
 BYTE   Dn5
 BYTE   W03
 BYTE   Bn4
 BYTE   W03
 BYTE   Cn5
 BYTE   W03
 BYTE   Cs5
 BYTE   W03
 BYTE   Dn5
 BYTE   W03
 BYTE   As4
 BYTE   W03
 BYTE   Bn4
 BYTE   W32
 BYTE   W01
 BYTE   N06  As3  v127
 BYTE   N06  En4
 BYTE   W30
// 022   ----------------------------------------
 BYTE   W06
 BYTE   An3
 BYTE   N06  Ds4
 BYTE   W36
 BYTE   As3
 BYTE   N06  En4
 BYTE   W36
 BYTE   Bn3
 BYTE   N06  Fn4
 BYTE   W18
// 023   ----------------------------------------
 BYTE   W18
 BYTE   As3
 BYTE   N06  En4
 BYTE   W36
 BYTE   An3
 BYTE   N06  Ds4
 BYTE   W36
 BYTE   As3
 BYTE   N06  En4
 BYTE   W06
// 024   ----------------------------------------
 BYTE   W30
 BYTE   Bn3
 BYTE   N06  Fn4
 BYTE   W06
 BYTE   N24  Gn3
 BYTE   W24
 BYTE   N17  Cn4
 BYTE   W18
 BYTE   N22  An3
 BYTE   W18
// 025   ----------------------------------------
 BYTE   W06
 BYTE   N16  Dn4
 BYTE   W18
 BYTE   N24  Ds4
 BYTE   W24
 BYTE   N06
 BYTE   W06
 BYTE   Dn4
 BYTE   W06
 BYTE   Cn4
 BYTE   W06
 BYTE   N23  Dn4
 BYTE   W24
 BYTE   N16  Cn4
 BYTE   W06
// 026   ----------------------------------------
 BYTE   W12
 BYTE   N03  Fn3
 BYTE   N03  Bn3
 BYTE   W06
 BYTE   Fs3
 BYTE   N03  Cn4
 BYTE   W06
 BYTE   Fn3
 BYTE   N03  Bn3
 BYTE   W06
 BYTE   Fs3
 BYTE   N03  Cn4
 BYTE   W06
 BYTE   Fn3
 BYTE   N03  Bn3
 BYTE   W06
 BYTE   Fs3
 BYTE   N03  Cn4
 BYTE   W06
 BYTE   Fn3
 BYTE   N03  Bn3
 BYTE   W06
 BYTE   Gn3
 BYTE   N03  Cs4
 BYTE   W06
 BYTE   Gs3
 BYTE   N03  Dn4
 BYTE   W06
 BYTE   Gn3
 BYTE   N03  Cs4
 BYTE   W06
 BYTE   Gs3
 BYTE   N03  Dn4
 BYTE   W06
 BYTE   Gn3
 BYTE   N03  Cs4
 BYTE   W06
 BYTE   Gs3
 BYTE   N03  Dn4
 BYTE   W06
 BYTE   Gn3
 BYTE   N03  Cs4
 BYTE   W06
// 027   ----------------------------------------
 BYTE   An3
 BYTE   N03  Ds4
 BYTE   W06
 BYTE   As3
 BYTE   N03  En4
 BYTE   W06
 BYTE   An3
 BYTE   N03  Ds4
 BYTE   W06
 BYTE   As3
 BYTE   N03  En4
 BYTE   W06
 BYTE   An3
 BYTE   N03  Ds4
 BYTE   W06
 BYTE   As3
 BYTE   N03  En4
 BYTE   W06
 BYTE   An3
 BYTE   N03  Ds4
 BYTE   W06
 BYTE   Bn3
 BYTE   N03  Fn4
 BYTE   W06
 BYTE   Cn4
 BYTE   N03  Fs4
 BYTE   W06
 BYTE   Bn3
 BYTE   N03  Fn4
 BYTE   W06
 BYTE   Cn4
 BYTE   N03  Fs4
 BYTE   W06
 BYTE   Bn3
 BYTE   N03  Fn4
 BYTE   W06
 BYTE   Cn4
 BYTE   N03  Fs4
 BYTE   W06
 BYTE   Bn3
 BYTE   N03  Fn4
 BYTE   W06
 BYTE   N06  En4
 BYTE   W06
 BYTE   Cn5
 BYTE   W06
// 028   ----------------------------------------
 BYTE   Bn4
 BYTE   W06
 BYTE   Fs4
 BYTE   W06
 BYTE   As4
 BYTE   W06
 BYTE   En4
 BYTE   W06
 BYTE   Ds4
 BYTE   W06
 BYTE   As4
 BYTE   W06
 BYTE   Ds4
 BYTE   W06
 BYTE   En4
 BYTE   W06
 BYTE   Bn4
 BYTE   W06
 BYTE   As4
 BYTE   W06
 BYTE   An4
 BYTE   W06
 BYTE   Gs4
 BYTE   W06
 BYTE   Cs5
 BYTE   W06
 BYTE   En4
 BYTE   W06
 BYTE   Ds4
 BYTE   W06
 BYTE   Bn4
 BYTE   W06
// 029   ----------------------------------------
 BYTE   As4
 BYTE   W06
 BYTE   Fn4
 BYTE   W06
 BYTE   Cn4
 BYTE   W06
 BYTE   En5
 BYTE   W06
 BYTE   An4
 BYTE   W06
 BYTE   Gs4
 BYTE   W06
 BYTE   Dn5
 BYTE   W06
 BYTE   Cs5
 BYTE   W06
 BYTE   Fs4
 BYTE   W06
 BYTE   Fn4
 BYTE   W06
 BYTE   Gs4
 BYTE   W06
 BYTE   Gn4
 BYTE   W12
 BYTE   Gs4
 BYTE   W06
 BYTE   Gn4
 BYTE   W12
// 030   ----------------------------------------
 BYTE   Gs4
 BYTE   W06
 BYTE   Gn4
 BYTE   W06
 BYTE   Fs4
 BYTE   W06
 BYTE   As4
 BYTE   W06
 BYTE   An4
 BYTE   W12
 BYTE   As4
 BYTE   W06
 BYTE   An4
 BYTE   W12
 BYTE   As4
 BYTE   W06
 BYTE   An4
 BYTE   W06
 BYTE   Gs4
 BYTE   W06
 BYTE   N02  An2  v092
 BYTE   W03
 BYTE   N01  En3
 BYTE   W03
 BYTE   N02  An3
 BYTE   W03
 BYTE   N01  Cn4
 BYTE   W03
 BYTE   En4
 BYTE   W03
 BYTE   N02  Cn4
 BYTE   W03
 BYTE   An3
 BYTE   W03
 BYTE   En3
 BYTE   W03
// 031   ----------------------------------------
 BYTE   An2
 BYTE   W03
 BYTE   En3
 BYTE   W03
 BYTE   N01  An3
 BYTE   W03
 BYTE   N02  Cn4
 BYTE   W03
 BYTE   N01  En4
 BYTE   W03
 BYTE   N02  Cn4
 BYTE   W03
 BYTE   N01  An3
 BYTE   W03
 BYTE   N02  En3
 BYTE   W03
 BYTE   An2
 BYTE   W03
 BYTE   N01  En3
 BYTE   W03
 BYTE   N02  An3
 BYTE   W03
 BYTE   Cn4
 BYTE   N02  An4
 BYTE   W03
 BYTE   Gs4
 BYTE   W03
 BYTE   Gn4
 BYTE   W03
 BYTE   Fs4
 BYTE   W03
 BYTE   N01  Fn4
 BYTE   W03
 BYTE   En4
 BYTE   W03
 BYTE   N02  Ds4
 BYTE   W03
 BYTE   N01  Dn4
 BYTE   W03
 BYTE   N02  Cs4
 BYTE   W03
 BYTE   N01  Cn4
 BYTE   W03
 BYTE   N02  Bn3
 BYTE   W03
 BYTE   As3
 BYTE   W03
 BYTE   An3
 BYTE   W03
 BYTE   Cn3
 BYTE   W03
 BYTE   En3
 BYTE   W03
 BYTE   An3
 BYTE   W03
 BYTE   Cn4
 BYTE   W03
 BYTE   En4
 BYTE   W03
 BYTE   N01  Cn4
 BYTE   W03
 BYTE   N02  An4
 BYTE   W03
 BYTE   En4
 BYTE   W03
// 032   ----------------------------------------
 BYTE   Bn2
 BYTE   W03
 BYTE   Dn3
 BYTE   W03
 BYTE   Gn3
 BYTE   W03
 BYTE   Bn3
 BYTE   W03
 BYTE   Dn4
 BYTE   W03
 BYTE   Bn3
 BYTE   W03
 BYTE   Gn4
 BYTE   W03
 BYTE   Dn4
 BYTE   W03
 BYTE   Fn2
 BYTE   W03
 BYTE   An2
 BYTE   W03
 BYTE   Cn3
 BYTE   W03
 BYTE   Fn3
 BYTE   W03
 BYTE   An3
 BYTE   W03
 BYTE   Cn4
 BYTE   W03
 BYTE   N01  Fn4
 BYTE   W03
 BYTE   N02  An4
 BYTE   W03
 BYTE   N01  Cn5
 BYTE   W03
 BYTE   N02  An4
 BYTE   W03
 BYTE   N01  Fn4
 BYTE   W03
 BYTE   N02  Cn4
 BYTE   W03
 BYTE   N01  An3
 BYTE   W03
 BYTE   N02  Fn3
 BYTE   W03
 BYTE   Cn3
 BYTE   W03
 BYTE   An2
 BYTE   W03
 BYTE   Dn2
 BYTE   W03
 BYTE   Fn2
 BYTE   W03
 BYTE   An2
 BYTE   W03
 BYTE   Dn3
 BYTE   W03
 BYTE   N01  Fn3
 BYTE   W03
 BYTE   N02  An3
 BYTE   W03
 BYTE   Dn4
 BYTE   W03
 BYTE   N01  Fn4
 BYTE   W03
// 033   ----------------------------------------
 BYTE   N02  An4
 BYTE   W03
 BYTE   Fn4
 BYTE   W03
 BYTE   N01  Dn4
 BYTE   W03
 BYTE   N02  An3
 BYTE   W03
 BYTE   Fn3
 BYTE   W03
 BYTE   Dn3
 BYTE   W03
 BYTE   An2
 BYTE   W03
 BYTE   N01  Fn2
 BYTE   W03
 BYTE   En2
 BYTE   W03
 BYTE   N02  Gs2
 BYTE   W03
 BYTE   Bn2
 BYTE   W03
 BYTE   En3
 BYTE   W03
 BYTE   Gs3
 BYTE   W03
 BYTE   Bn3
 BYTE   W03
 BYTE   En4
 BYTE   W03
 BYTE   Bn3
 BYTE   W03
 BYTE   N03  Bn4  v127
 BYTE   W03
 BYTE   N02  Gs4  v092
 BYTE   W03
 BYTE   En4
 BYTE   W03
 BYTE   Bn3
 BYTE   W03
 BYTE   Gs3
 BYTE   W03
 BYTE   En3
 BYTE   W03
 BYTE   Bn2
 BYTE   W03
 BYTE   Gs2
 BYTE   W03
 BYTE   Dn2
 BYTE   W03
 BYTE   Fn2
 BYTE   W03
 BYTE   An2
 BYTE   W03
 BYTE   N01  Dn3
 BYTE   W03
 BYTE   N02  Fn3
 BYTE   W03
 BYTE   An3
 BYTE   W03
 BYTE   Dn4
 BYTE   W03
 BYTE   Fn4
 BYTE   W03
// 034   ----------------------------------------
 BYTE   An4
 BYTE   W03
 BYTE   Fn4
 BYTE   W03
 BYTE   Dn4
 BYTE   W03
 BYTE   N01  An3
 BYTE   W03
 BYTE   N02  Fn3
 BYTE   W03
 BYTE   Dn3
 BYTE   W03
 BYTE   An2
 BYTE   W03
 BYTE   Fn2
 BYTE   W03
 BYTE   En2
 BYTE   W03
 BYTE   Gs2
 BYTE   W03
 BYTE   Bn2
 BYTE   W03
 BYTE   En3
 BYTE   W03
 BYTE   Gs3
 BYTE   W03
 BYTE   Bn3
 BYTE   W03
 BYTE   En4
 BYTE   W03
 BYTE   N01  Bn3
 BYTE   W03
 BYTE   Bn4
 BYTE   W03
 BYTE   Gs4
 BYTE   W03
 BYTE   En4
 BYTE   W03
 BYTE   N02  Bn3
 BYTE   W03
 BYTE   N01  Gs3
 BYTE   W03
 BYTE   N02  En3
 BYTE   W03
 BYTE   Bn2
 BYTE   W03
 BYTE   Gs2
 BYTE   W03
 BYTE   Gs4
 BYTE   W03
 BYTE   An4
 BYTE   W03
 BYTE   Fs4
 BYTE   W03
 BYTE   Gs4
 BYTE   W03
 BYTE   As4
 BYTE   W03
 BYTE   En4
 BYTE   W03
 BYTE   Ds4
 BYTE   W03
 BYTE   Dn4
 BYTE   W03
// 035   ----------------------------------------
 BYTE   Fn4
 BYTE   W03
 BYTE   Fs4
 BYTE   W03
 BYTE   Dn4
 BYTE   W03
 BYTE   Ds4
 BYTE   W03
 BYTE   Dn4
 BYTE   W03
 BYTE   Cn4
 BYTE   W03
 BYTE   Bn3
 BYTE   W03
 BYTE   As3
 BYTE   W03
 BYTE   Bn4
 BYTE   W03
 BYTE   Cn5
 BYTE   W03
 BYTE   Fn4
 BYTE   W03
 BYTE   As4
 BYTE   W03
 BYTE   An4
 BYTE   W03
 BYTE   Gs4
 BYTE   W03
 BYTE   Fn4
 BYTE   W03
 BYTE   Ds4
 BYTE   W03
 BYTE   As4
 BYTE   W03
 BYTE   En4
 BYTE   W03
 BYTE   Dn4
 BYTE   W03
 BYTE   Cs4
 BYTE   W03
 BYTE   Gn4
 BYTE   W03
 BYTE   Fs4
 BYTE   W03
 BYTE   N03  Fn4
 BYTE   W03
 BYTE   N02  En4
 BYTE   W03
 BYTE   Gs4
 BYTE   W03
 BYTE   An4
 BYTE   W03
 BYTE   Fs4
 BYTE   W03
 BYTE   Gs4
 BYTE   W03
 BYTE   As4
 BYTE   W03
 BYTE   En4
 BYTE   W03
 BYTE   Ds4
 BYTE   W03
 BYTE   Dn4
 BYTE   W03
// 036   ----------------------------------------
 BYTE   Fn4
 BYTE   W03
 BYTE   Fs4
 BYTE   W03
 BYTE   Dn4
 BYTE   W03
 BYTE   Ds4
 BYTE   W03
 BYTE   Dn4
 BYTE   W03
 BYTE   Cn4
 BYTE   W03
 BYTE   Bn3
 BYTE   W03
 BYTE   As3
 BYTE   W03
 BYTE   Bn4
 BYTE   W03
 BYTE   Cn5
 BYTE   W03
 BYTE   Fn4
 BYTE   W03
 BYTE   As4
 BYTE   W03
 BYTE   An4
 BYTE   W03
 BYTE   Gs4
 BYTE   W03
 BYTE   Fn4
 BYTE   W03
 BYTE   Ds4
 BYTE   W03
 BYTE   As4
 BYTE   W03
 BYTE   En4
 BYTE   W03
 BYTE   Dn4
 BYTE   W03
 BYTE   Cs4
 BYTE   W03
 BYTE   Gn4
 BYTE   W03
 BYTE   Fs4
 BYTE   W03
 BYTE   N06  Gs3  v127
 BYTE   W06
 BYTE   Gn3
 BYTE   W06
 BYTE   As3
 BYTE   W06
 BYTE   Fs3
 BYTE   W06
 BYTE   En3
 BYTE   W06
// 037   ----------------------------------------
 BYTE   Ds3
 BYTE   W06
 BYTE   Dn3
 BYTE   W06
 BYTE   Ds3
 BYTE   W06
 BYTE   Gn3
 BYTE   W06
 BYTE   Fs3
 BYTE   W06
 BYTE   Fn3
 BYTE   W06
 BYTE   En3
 BYTE   W06
 BYTE   As3
 BYTE   W06
 BYTE   An3
 BYTE   W06
 BYTE   Gn3
 BYTE   W06
 BYTE   Fn3
 BYTE   W06
 BYTE   Dn4
 BYTE   W06
 BYTE   Cs4
 BYTE   W06
 BYTE   En4
 BYTE   W06
 BYTE   Ds4
 BYTE   W06
 BYTE   Gn3
 BYTE   W06
// 038   ----------------------------------------
 BYTE   Fn3
 BYTE   W06
 BYTE   Ds4
 BYTE   W06
 BYTE   Bn3
 BYTE   W06
 BYTE   N02  An2  v092
 BYTE   W03
 BYTE   N01  En3
 BYTE   W03
 BYTE   N02  An3
 BYTE   W03
 BYTE   N01  Cn4
 BYTE   W03
 BYTE   En4
 BYTE   W03
 BYTE   N02  Cn4
 BYTE   W03
 BYTE   An3
 BYTE   W03
 BYTE   En3
 BYTE   W03
 BYTE   An2
 BYTE   W03
 BYTE   En3
 BYTE   W03
 BYTE   N01  An3
 BYTE   W03
 BYTE   N02  Cn4
 BYTE   W03
 BYTE   N01  En4
 BYTE   W03
 BYTE   N02  Cn4
 BYTE   W03
 BYTE   N01  An3
 BYTE   W03
 BYTE   N02  En3
 BYTE   W03
 BYTE   An2
 BYTE   W03
 BYTE   N01  En3
 BYTE   W03
 BYTE   N02  An3
 BYTE   W03
 BYTE   Cn4
 BYTE   N02  An4
 BYTE   W03
 BYTE   Gs4
 BYTE   W03
 BYTE   Gn4
 BYTE   W03
 BYTE   Fs4
 BYTE   W03
 BYTE   N01  Fn4
 BYTE   W03
 BYTE   En4
 BYTE   W03
 BYTE   N02  Ds4
 BYTE   W03
// 039   ----------------------------------------
 BYTE   N01  Dn4
 BYTE   W03
 BYTE   N02  Cs4
 BYTE   W03
 BYTE   N01  Cn4
 BYTE   W03
 BYTE   N02  Bn3
 BYTE   W03
 BYTE   As3
 BYTE   W03
 BYTE   An3
 BYTE   W03
 BYTE   Cn3
 BYTE   W03
 BYTE   En3
 BYTE   W03
 BYTE   An3
 BYTE   W03
 BYTE   Cn4
 BYTE   W03
 BYTE   En4
 BYTE   W03
 BYTE   N01  Cn4
 BYTE   W03
 BYTE   N02  An4
 BYTE   W03
 BYTE   En4
 BYTE   W03
 BYTE   Bn2
 BYTE   W03
 BYTE   Dn3
 BYTE   W03
 BYTE   Gn3
 BYTE   W03
 BYTE   Bn3
 BYTE   W03
 BYTE   Dn4
 BYTE   W03
 BYTE   Bn3
 BYTE   W03
 BYTE   Gn4
 BYTE   W03
 BYTE   Dn4
 BYTE   W03
 BYTE   Fn2
 BYTE   W03
 BYTE   An2
 BYTE   W03
 BYTE   Cn3
 BYTE   W03
 BYTE   Fn3
 BYTE   W03
 BYTE   An3
 BYTE   W03
 BYTE   Cn4
 BYTE   W03
 BYTE   N01  Fn4
 BYTE   W03
 BYTE   N02  An4
 BYTE   W03
 BYTE   N01  Cn5
 BYTE   W03
 BYTE   N02  An4
 BYTE   W03
// 040   ----------------------------------------
 BYTE   N01  Fn4
 BYTE   W03
 BYTE   N02  Cn4
 BYTE   W03
 BYTE   N01  An3
 BYTE   W03
 BYTE   N02  Fn3
 BYTE   W03
 BYTE   Cn3
 BYTE   W03
 BYTE   An2
 BYTE   W03
 BYTE   Dn2
 BYTE   W03
 BYTE   Fn2
 BYTE   W03
 BYTE   An2
 BYTE   W03
 BYTE   Dn3
 BYTE   W03
 BYTE   N01  Fn3
 BYTE   W03
 BYTE   N02  An3
 BYTE   W03
 BYTE   Dn4
 BYTE   W03
 BYTE   N01  Fn4
 BYTE   W03
 BYTE   N02  An4
 BYTE   W03
 BYTE   Fn4
 BYTE   W03
 BYTE   N01  Dn4
 BYTE   W03
 BYTE   N02  An3
 BYTE   W03
 BYTE   Fn3
 BYTE   W03
 BYTE   Dn3
 BYTE   W03
 BYTE   An2
 BYTE   W03
 BYTE   N01  Fn2
 BYTE   W03
 BYTE   En2
 BYTE   W03
 BYTE   N02  Gs2
 BYTE   W03
 BYTE   Bn2
 BYTE   W03
 BYTE   En3
 BYTE   W03
 BYTE   Gs3
 BYTE   W03
 BYTE   Bn3
 BYTE   W03
 BYTE   En4
 BYTE   W03
 BYTE   Bn3
 BYTE   W03
 BYTE   N03  Bn4  v127
 BYTE   W03
 BYTE   N02  Gs4  v092
 BYTE   W03
// 041   ----------------------------------------
 BYTE   En4
 BYTE   W03
 BYTE   Bn3
 BYTE   W03
 BYTE   Gs3
 BYTE   W03
 BYTE   En3
 BYTE   W03
 BYTE   Bn2
 BYTE   W03
 BYTE   Gs2
 BYTE   W03
 BYTE   Dn2
 BYTE   W03
 BYTE   Fn2
 BYTE   W03
 BYTE   An2
 BYTE   W03
 BYTE   N01  Dn3
 BYTE   W03
 BYTE   N02  Fn3
 BYTE   W03
 BYTE   An3
 BYTE   W03
 BYTE   Dn4
 BYTE   W03
 BYTE   Fn4
 BYTE   W03
 BYTE   An4
 BYTE   W03
 BYTE   Fn4
 BYTE   W03
 BYTE   Dn4
 BYTE   W03
 BYTE   N01  An3
 BYTE   W03
 BYTE   N02  Fn3
 BYTE   W03
 BYTE   Dn3
 BYTE   W03
 BYTE   An2
 BYTE   W03
 BYTE   Fn2
 BYTE   W03
 BYTE   En2
 BYTE   W03
 BYTE   Gs2
 BYTE   W03
 BYTE   Bn2
 BYTE   W03
 BYTE   En3
 BYTE   W03
 BYTE   Gs3
 BYTE   W03
 BYTE   Bn3
 BYTE   W03
 BYTE   En4
 BYTE   W03
 BYTE   N01  Bn3
 BYTE   W03
 BYTE   Bn4
 BYTE   W03
 BYTE   Gs4
 BYTE   W03
// 042   ----------------------------------------
 BYTE   En4
 BYTE   W03
 BYTE   N02  Bn3
 BYTE   W03
 BYTE   N01  Gs3
 BYTE   W03
 BYTE   N02  En3
 BYTE   W03
 BYTE   Bn2
 BYTE   W03
 BYTE   Gs2
 BYTE   W80
 BYTE   W01
// 043   ----------------------------------------
 BYTE   W96
// 044   ----------------------------------------
 BYTE   W18
 BYTE   N17  An1  v127
 BYTE   W18
 BYTE   N03
 BYTE   W03
 BYTE   Bn1
 BYTE   W03
 BYTE   N23  Cn2
 BYTE   W24
 BYTE   N07  Gn2
 BYTE   W08
 BYTE   Cs2
 BYTE   W08
 BYTE   Fs2
 BYTE   W08
 BYTE   Fn2
 BYTE   W06
// 045   ----------------------------------------
 BYTE   W02
 BYTE   Cn2
 BYTE   W08
 BYTE   Bn1
 BYTE   W08
 BYTE   N23  Gs1
 BYTE   W24
 BYTE   Dn2
 BYTE   W24
 BYTE   N06  Cs2
 BYTE   W06
 BYTE   Gn1
 BYTE   W06
 BYTE   Fs1
 BYTE   W06
 BYTE   Fn1
 BYTE   W06
 BYTE   N03  An2
 BYTE   W03
 BYTE   Gs2
 BYTE   W03
// 046   ----------------------------------------
 BYTE   Gn2
 BYTE   W03
 BYTE   Fs2
 BYTE   W03
 BYTE   En2
 BYTE   W03
 BYTE   Dn2
 BYTE   W03
 BYTE   Cs2
 BYTE   W03
 BYTE   Bn1
 BYTE   W68
 BYTE   W01
 BYTE   En4  v052
 BYTE   W03
 BYTE   Fn4
 BYTE   W03
 BYTE   Fs4
 BYTE   W03
 BYTE   Gn4
 BYTE   W03
// 047   ----------------------------------------
 BYTE   Fn4
 BYTE   W03
 BYTE   Fs4
 BYTE   W03
 BYTE   Gn4
 BYTE   W03
 BYTE   Fs4
 BYTE   W03
 BYTE   Gn4
 BYTE   W03
 BYTE   Gs4
 BYTE   W03
 BYTE   An4
 BYTE   W03
 BYTE   Gn4
 BYTE   W03
 BYTE   Gs4  v080
 BYTE   W03
 BYTE   An4
 BYTE   W03
 BYTE   Gn4
 BYTE   W03
 BYTE   Gs4
 BYTE   W03
 BYTE   An4
 BYTE   W03
 BYTE   As4
 BYTE   W03
 BYTE   Gs4
 BYTE   W03
 BYTE   An4
 BYTE   W03
 BYTE   As4
 BYTE   W03
 BYTE   Bn4
 BYTE   W03
 BYTE   An4
 BYTE   W03
 BYTE   As4
 BYTE   W03
 BYTE   Bn4
 BYTE   W03
 BYTE   An4
 BYTE   W03
 BYTE   As4
 BYTE   W03
 BYTE   Bn4
 BYTE   W03
 BYTE   Cn5
 BYTE   W03
 BYTE   As4
 BYTE   W03
 BYTE   Bn4
 BYTE   W03
 BYTE   Cn5
 BYTE   W03
 BYTE   Bn4  v104
 BYTE   W03
 BYTE   Cn5
 BYTE   W03
 BYTE   Cs5
 BYTE   W03
 BYTE   Dn5
 BYTE   W03
// 048   ----------------------------------------
 BYTE   Bn4
 BYTE   W03
 BYTE   Cn5
 BYTE   W03
 BYTE   Cs5
 BYTE   W03
 BYTE   Dn5
 BYTE   W03
 BYTE   As4
 BYTE   W03
 BYTE   Bn4
 BYTE   W32
 BYTE   W01
 BYTE   N06  As3  v127
 BYTE   N06  En4
 BYTE   W36
 BYTE   An3
 BYTE   N06  Ds4
 BYTE   W12
// 049   ----------------------------------------
 BYTE   W24
 BYTE   As3
 BYTE   N06  En4
 BYTE   W36
 BYTE   Bn3
 BYTE   N06  Fn4
 BYTE   W36
// 050   ----------------------------------------
 BYTE   As3
 BYTE   N06  En4
 BYTE   W36
 BYTE   An3
 BYTE   N06  Ds4
 BYTE   W36
 BYTE   As3
 BYTE   N06  En4
 BYTE   W24
// 051   ----------------------------------------
 BYTE   W12
 BYTE   Bn3
 BYTE   N06  Fn4
 BYTE   W06
 BYTE   N24  Gn3
 BYTE   W24
 BYTE   N17  Cn4
 BYTE   W18
 BYTE   N22  An3
 BYTE   W24
 BYTE   N16  Dn4
 BYTE   W12
// 052   ----------------------------------------
 BYTE   W06
 BYTE   N24  Ds4
 BYTE   W24
 BYTE   N06
 BYTE   W06
 BYTE   Dn4
 BYTE   W06
 BYTE   Cn4
 BYTE   W06
 BYTE   N23  Dn4
 BYTE   W24
 BYTE   N16  Cn4
 BYTE   W18
 BYTE   N03  Fn3
 BYTE   N03  Bn3
 BYTE   W06
// 053   ----------------------------------------
 BYTE   Fs3
 BYTE   N03  Cn4
 BYTE   W06
 BYTE   Fn3
 BYTE   N03  Bn3
 BYTE   W06
 BYTE   Fs3
 BYTE   N03  Cn4
 BYTE   W06
 BYTE   Fn3
 BYTE   N03  Bn3
 BYTE   W06
 BYTE   Fs3
 BYTE   N03  Cn4
 BYTE   W06
 BYTE   Fn3
 BYTE   N03  Bn3
 BYTE   W06
 BYTE   Gn3
 BYTE   N03  Cs4
 BYTE   W06
 BYTE   Gs3
 BYTE   N03  Dn4
 BYTE   W06
 BYTE   Gn3
 BYTE   N03  Cs4
 BYTE   W06
 BYTE   Gs3
 BYTE   N03  Dn4
 BYTE   W06
 BYTE   Gn3
 BYTE   N03  Cs4
 BYTE   W06
 BYTE   Gs3
 BYTE   N03  Dn4
 BYTE   W06
 BYTE   Gn3
 BYTE   N03  Cs4
 BYTE   W06
 BYTE   An3
 BYTE   N03  Ds4
 BYTE   W06
 BYTE   As3
 BYTE   N03  En4
 BYTE   W06
 BYTE   An3
 BYTE   N03  Ds4
 BYTE   W06
// 054   ----------------------------------------
 BYTE   As3
 BYTE   N03  En4
 BYTE   W06
 BYTE   An3
 BYTE   N03  Ds4
 BYTE   W06
 BYTE   As3
 BYTE   N03  En4
 BYTE   W06
 BYTE   An3
 BYTE   N03  Ds4
 BYTE   W06
 BYTE   Bn3
 BYTE   N03  Fn4
 BYTE   W06
 BYTE   Cn4
 BYTE   N03  Fs4
 BYTE   W06
 BYTE   Bn3
 BYTE   N03  Fn4
 BYTE   W06
 BYTE   Cn4
 BYTE   N03  Fs4
 BYTE   W06
 BYTE   Bn3
 BYTE   N03  Fn4
 BYTE   W06
 BYTE   Cn4
 BYTE   N03  Fs4
 BYTE   W06
 BYTE   GoTo
  POIN2 Label_9_0142FAE1
 BYTE   FINE

//**************** Track 11 (Midi-Chn.10) ****************//

GoldenSunFusionDragonBattleMrGreen3339_011:
// 000   ----------------------------------------
 BYTE   KEYSH   GoldenSunFusionDragonBattleMrGreen3339_key+0
 BYTE   VOICE   70
 BYTE   VOL   22*GoldenSunFusionDragonBattleMrGreen3339_mvl/mxv
 BYTE   PAN   c_v-51
 BYTE   W96
// 001   ----------------------------------------
Label_10_01430455:
 BYTE   W96
// 002   ----------------------------------------
 BYTE   W96
// 003   ----------------------------------------
 BYTE   W96
// 004   ----------------------------------------
 BYTE   W96
// 005   ----------------------------------------
 BYTE   W96
// 006   ----------------------------------------
 BYTE   W96
// 007   ----------------------------------------
 BYTE   W96
// 008   ----------------------------------------
 BYTE   W96
// 009   ----------------------------------------
 BYTE   W96
// 010   ----------------------------------------
 BYTE   W96
// 011   ----------------------------------------
 BYTE   W96
// 012   ----------------------------------------
 BYTE   W96
// 013   ----------------------------------------
 BYTE   W96
// 014   ----------------------------------------
 BYTE   W96
// 015   ----------------------------------------
 BYTE   W96
// 016   ----------------------------------------
 BYTE   W96
// 017   ----------------------------------------
 BYTE   W36
 BYTE   N28  En4  v127
 BYTE   W15
 BYTE   MOD 0
 BYTE   DnM2
 BYTE   W01
 BYTE   CnM1
 BYTE   W01
 BYTE   BnM1
 BYTE   W01
 BYTE   Gn0
 BYTE   W01
 BYTE   Fn1
 BYTE   W01
 BYTE   Ds2
 BYTE   W01
 BYTE   Dn3
 BYTE   W01
 BYTE   Cn4
 BYTE   W01
 BYTE   As4
 BYTE   W01
 BYTE   An5
 BYTE   W01
 BYTE   Fn6
 BYTE   W05
 BYTE   CnM2
 BYTE   N08  Fn4
 BYTE   W09
 BYTE   En4
 BYTE   W09
 BYTE   N22  Ds4
 BYTE   W12
// 018   ----------------------------------------
 BYTE   W12
 BYTE   Bn3
 BYTE   W24
 BYTE   N28  Dn4
 BYTE   W12
 BYTE   MOD 0
 BYTE   CsM2
 BYTE   W01
 BYTE   GnM2
 BYTE   W01
 BYTE   CsM1
 BYTE   W01
 BYTE   GnM1
 BYTE   W01
 BYTE   Dn0
 BYTE   W01
 BYTE   Gs0
 BYTE   W01
 BYTE   Dn1
 BYTE   W01
 BYTE   Gs1
 BYTE   W01
 BYTE   Dn2
 BYTE   W01
 BYTE   Gs2
 BYTE   W01
 BYTE   Cs3
 BYTE   W01
 BYTE   Ds3
 BYTE   W07
 BYTE   CnM2
 BYTE   N08  Cs4
 BYTE   W09
 BYTE   Bn3
 BYTE   W09
 BYTE   N48  As3
 BYTE   W12
// 019   ----------------------------------------
 BYTE   W05
 BYTE   MOD 0
 BYTE   CsM2
 BYTE   W01
 BYTE   GsM2
 BYTE   W01
 BYTE   DsM1
 BYTE   W01
 BYTE   AnM1
 BYTE   W01
 BYTE   En0
 BYTE   W01
 BYTE   An0
 BYTE   W01
 BYTE   En1
 BYTE   W01
 BYTE   Bn1
 BYTE   W01
 BYTE   Fn2
 BYTE   W01
 BYTE   Cn3
 BYTE   W01
 BYTE   Gn3
 BYTE   W01
 BYTE   Cs4
 BYTE   W01
 BYTE   Gs4
 BYTE   W01
 BYTE   Cn5
 BYTE   W16
 BYTE   CnM2
 BYTE   W02
 BYTE   CnM2
 BYTE   W60
// 020   ----------------------------------------
 BYTE   W96
// 021   ----------------------------------------
 BYTE   W96
// 022   ----------------------------------------
 BYTE   W84
 BYTE   N03  An3  v040
 BYTE   W03
 BYTE   Gs3
 BYTE   W03
 BYTE   En3  v056
 BYTE   W03
 BYTE   Gs3
 BYTE   W03
// 023   ----------------------------------------
 BYTE   An3
 BYTE   W03
 BYTE   As3
 BYTE   W03
 BYTE   En3  v040
 BYTE   W03
 BYTE   Fs3
 BYTE   W03
 BYTE   En3
 BYTE   W03
 BYTE   Gs3
 BYTE   W03
 BYTE   An3
 BYTE   W03
 BYTE   As3
 BYTE   W03
 BYTE   Bn3  v060
 BYTE   W03
 BYTE   Fn3
 BYTE   W03
 BYTE   Gn3
 BYTE   W03
 BYTE   An3
 BYTE   W03
 BYTE   Bn3
 BYTE   W03
 BYTE   Cn4
 BYTE   W03
 BYTE   Gn3
 BYTE   W03
 BYTE   An3
 BYTE   W03
 BYTE   Fn3
 BYTE   W03
 BYTE   Gn3
 BYTE   W03
 BYTE   En3
 BYTE   W03
 BYTE   Fn3
 BYTE   W03
 BYTE   Ds3
 BYTE   W03
 BYTE   Dn3
 BYTE   W03
 BYTE   Ds3
 BYTE   W03
 BYTE   En3
 BYTE   W03
 BYTE   Fs3  v080
 BYTE   W03
 BYTE   Gn3
 BYTE   W03
 BYTE   Ds3
 BYTE   W03
 BYTE   En3
 BYTE   W03
 BYTE   Fn3
 BYTE   W03
 BYTE   Gs3
 BYTE   W03
 BYTE   As3
 BYTE   W03
 BYTE   Dn3
 BYTE   W03
// 024   ----------------------------------------
 BYTE   Ds3
 BYTE   W03
 BYTE   Fs3  v084
 BYTE   W03
 BYTE   Gs3
 BYTE   W03
 BYTE   As3
 BYTE   W03
 BYTE   Dn3
 BYTE   W03
 BYTE   Ds3
 BYTE   W03
 BYTE   En3
 BYTE   W03
 BYTE   Fs3
 BYTE   W03
 BYTE   Gn3
 BYTE   W03
 BYTE   As3
 BYTE   W03
 BYTE   En3
 BYTE   W03
 BYTE   Fs3
 BYTE   W60
 BYTE   W03
// 025   ----------------------------------------
 BYTE   W96
// 026   ----------------------------------------
 BYTE   W96
// 027   ----------------------------------------
 BYTE   W96
// 028   ----------------------------------------
 BYTE   W96
// 029   ----------------------------------------
 BYTE   W96
// 030   ----------------------------------------
 BYTE   W96
// 031   ----------------------------------------
 BYTE   W96
// 032   ----------------------------------------
 BYTE   W96
// 033   ----------------------------------------
 BYTE   W96
// 034   ----------------------------------------
 BYTE   W96
// 035   ----------------------------------------
 BYTE   W96
// 036   ----------------------------------------
 BYTE   W96
// 037   ----------------------------------------
 BYTE   W96
// 038   ----------------------------------------
 BYTE   W96
// 039   ----------------------------------------
 BYTE   W96
// 040   ----------------------------------------
 BYTE   W96
// 041   ----------------------------------------
 BYTE   W96
// 042   ----------------------------------------
 BYTE   W96
// 043   ----------------------------------------
 BYTE   W96
// 044   ----------------------------------------
 BYTE   W18
 BYTE   N28  En4  v127
 BYTE   W15
 BYTE   MOD 0
 BYTE   DnM2
 BYTE   W01
 BYTE   CnM1
 BYTE   W01
 BYTE   BnM1
 BYTE   W01
 BYTE   Gn0
 BYTE   W01
 BYTE   Fn1
 BYTE   W01
 BYTE   Ds2
 BYTE   W01
 BYTE   Dn3
 BYTE   W01
 BYTE   Cn4
 BYTE   W01
 BYTE   As4
 BYTE   W01
 BYTE   An5
 BYTE   W01
 BYTE   Fn6
 BYTE   W05
 BYTE   CnM2
 BYTE   N08  Fn4
 BYTE   W09
 BYTE   En4
 BYTE   W09
 BYTE   N22  Ds4
 BYTE   W24
 BYTE   Bn3
 BYTE   W06
// 045   ----------------------------------------
 BYTE   W18
 BYTE   N28  Dn4
 BYTE   W12
 BYTE   MOD 0
 BYTE   CsM2
 BYTE   W01
 BYTE   GnM2
 BYTE   W01
 BYTE   CsM1
 BYTE   W01
 BYTE   GnM1
 BYTE   W01
 BYTE   Dn0
 BYTE   W01
 BYTE   Gs0
 BYTE   W01
 BYTE   Dn1
 BYTE   W01
 BYTE   Gs1
 BYTE   W01
 BYTE   Dn2
 BYTE   W01
 BYTE   Gs2
 BYTE   W01
 BYTE   Cs3
 BYTE   W01
 BYTE   Ds3
 BYTE   W07
 BYTE   CnM2
 BYTE   N08  Cs4
 BYTE   W09
 BYTE   Bn3
 BYTE   W09
 BYTE   N48  As3
 BYTE   W17
 BYTE   MOD 0
 BYTE   CsM2
 BYTE   W01
 BYTE   GsM2
 BYTE   W01
 BYTE   DsM1
 BYTE   W01
 BYTE   AnM1
 BYTE   W01
 BYTE   En0
 BYTE   W01
 BYTE   An0
 BYTE   W01
 BYTE   En1
 BYTE   W01
 BYTE   Bn1
 BYTE   W01
 BYTE   Fn2
 BYTE   W01
 BYTE   Cn3
 BYTE   W01
 BYTE   Gn3
 BYTE   W01
 BYTE   Cs4
 BYTE   W01
 BYTE   Gs4
 BYTE   W01
// 046   ----------------------------------------
 BYTE   Cn5
 BYTE   W16
 BYTE   CnM2
 BYTE   W02
 BYTE   CnM2
 BYTE   W78
// 047   ----------------------------------------
 BYTE   W96
// 048   ----------------------------------------
 BYTE   W96
// 049   ----------------------------------------
 BYTE   W66
 BYTE   N03  An3  v040
 BYTE   W03
 BYTE   Gs3
 BYTE   W03
 BYTE   En3  v056
 BYTE   W03
 BYTE   Gs3
 BYTE   W03
 BYTE   An3
 BYTE   W03
 BYTE   As3
 BYTE   W03
 BYTE   En3  v040
 BYTE   W03
 BYTE   Fs3
 BYTE   W03
 BYTE   En3
 BYTE   W03
 BYTE   Gs3
 BYTE   W03
// 050   ----------------------------------------
 BYTE   An3
 BYTE   W03
 BYTE   As3
 BYTE   W03
 BYTE   Bn3  v060
 BYTE   W03
 BYTE   Fn3
 BYTE   W03
 BYTE   Gn3
 BYTE   W03
 BYTE   An3
 BYTE   W03
 BYTE   Bn3
 BYTE   W03
 BYTE   Cn4
 BYTE   W03
 BYTE   Gn3
 BYTE   W03
 BYTE   An3
 BYTE   W03
 BYTE   Fn3
 BYTE   W03
 BYTE   Gn3
 BYTE   W03
 BYTE   En3
 BYTE   W03
 BYTE   Fn3
 BYTE   W03
 BYTE   Ds3
 BYTE   W03
 BYTE   Dn3
 BYTE   W03
 BYTE   Ds3
 BYTE   W03
 BYTE   En3
 BYTE   W03
 BYTE   Fs3  v080
 BYTE   W03
 BYTE   Gn3
 BYTE   W03
 BYTE   Ds3
 BYTE   W03
 BYTE   En3
 BYTE   W03
 BYTE   Fn3
 BYTE   W03
 BYTE   Gs3
 BYTE   W03
 BYTE   As3
 BYTE   W03
 BYTE   Dn3
 BYTE   W03
 BYTE   Ds3
 BYTE   W03
 BYTE   Fs3  v084
 BYTE   W03
 BYTE   Gs3
 BYTE   W03
 BYTE   As3
 BYTE   W03
 BYTE   Dn3
 BYTE   W03
 BYTE   Ds3
 BYTE   W03
// 051   ----------------------------------------
 BYTE   En3
 BYTE   W03
 BYTE   Fs3
 BYTE   W03
 BYTE   Gn3
 BYTE   W03
 BYTE   As3
 BYTE   W03
 BYTE   En3
 BYTE   W03
 BYTE   Fs3
 BYTE   W80
 BYTE   W01
// 052   ----------------------------------------
 BYTE   W96
// 053   ----------------------------------------
 BYTE   W96
// 054   ----------------------------------------
 BYTE   W60
 BYTE   GoTo
  POIN2 Label_10_01430455
 BYTE   FINE

//**************** Track 12 (Midi-Chn.11) ****************//

GoldenSunFusionDragonBattleMrGreen3339_012:
// 000   ----------------------------------------
 BYTE   VOL   57*GoldenSunFusionDragonBattleMrGreen3339_mvl/mxv
 BYTE   KEYSH   GoldenSunFusionDragonBattleMrGreen3339_key+0
 BYTE   VOICE   127
 BYTE   N06  Bn0  v127
 BYTE   N32  An2
 BYTE   W06
 BYTE   N06  Bn0
 BYTE   W06
 BYTE   N06
 BYTE   W06
 BYTE   N06
 BYTE   W06
 BYTE   N06
 BYTE   W06
 BYTE   N06
 BYTE   W06
 BYTE   N06
 BYTE   W06
 BYTE   N06
 BYTE   W06
 BYTE   N06
 BYTE   N22  An2
 BYTE   W06
 BYTE   N06  Bn0
 BYTE   W06
 BYTE   N06
 BYTE   W06
 BYTE   N06
 BYTE   W06
 BYTE   N06
 BYTE   N23  An2
 BYTE   W06
 BYTE   N06  Bn0
 BYTE   W06
 BYTE   N03  Dn1  v068
 BYTE   N03  En1  v127
 BYTE   W03
 BYTE   Dn1  v068
 BYTE   N03  En1  v127
 BYTE   W03
 BYTE   Dn1  v068
 BYTE   N03  En1  v127
 BYTE   W03
 BYTE   Dn1  v068
 BYTE   N03  En1  v127
 BYTE   W03
// 001   ----------------------------------------
Label_11_0143067A:
 BYTE   N06  Bn0  v127
 BYTE   N06  Cn1
 BYTE   N06  Gs1  v080
 BYTE   W06
 BYTE   As1  v036
 BYTE   W06
 BYTE   Dn1  v052
 BYTE   N06  En1  v127
 BYTE   N06  Gs1  v080
 BYTE   W06
 BYTE   As1  v036
 BYTE   W06
 BYTE   Bn0  v127
 BYTE   N06  Cn1
 BYTE   N06  Gs1  v080
 BYTE   W06
 BYTE   Bn0  v127
 BYTE   N06  Cn1
 BYTE   N06  As1  v036
 BYTE   W06
 BYTE   Dn1  v052
 BYTE   N06  En1  v127
 BYTE   N06  Gs1  v080
 BYTE   W06
 BYTE   Bn0  v127
 BYTE   N06  Cn1
 BYTE   N06  Gs1  v080
 BYTE   W06
 BYTE   As1  v036
 BYTE   W06
 BYTE   Dn1  v052
 BYTE   N06  En1  v127
 BYTE   N06  Gs1  v080
 BYTE   W06
 BYTE   As1  v036
 BYTE   W06
 BYTE   Bn0  v127
 BYTE   N06  Cn1
 BYTE   N06  Gs1  v080
 BYTE   W06
 BYTE   Bn0  v127
 BYTE   N06  Cn1
 BYTE   N06  As1  v036
 BYTE   W06
 BYTE   Dn1  v052
 BYTE   N06  En1  v127
 BYTE   N06  Gs1  v080
 BYTE   W06
 BYTE   Bn0  v127
 BYTE   N06  Cn1
 BYTE   N06  Gs1  v080
 BYTE   N28  An2  v127
 BYTE   W06
 BYTE   N06  As1  v036
 BYTE   W06
// 002   ----------------------------------------
 BYTE   Dn1  v052
 BYTE   N06  En1  v127
 BYTE   N06  Gs1  v080
 BYTE   W06
 BYTE   As1  v036
 BYTE   W06
 BYTE   Bn0  v127
 BYTE   N06  Cn1
 BYTE   N06  Gs1  v080
 BYTE   W06
 BYTE   Bn0  v127
 BYTE   N06  Cn1
 BYTE   N06  As1  v036
 BYTE   W06
 BYTE   Dn1  v052
 BYTE   N06  En1  v127
 BYTE   N06  Gs1  v080
 BYTE   W06
 BYTE   Bn0  v127
 BYTE   N06  Cn1
 BYTE   N06  Gs1  v080
 BYTE   N28  An2  v127
 BYTE   W06
 BYTE   N06  As1  v036
 BYTE   W06
 BYTE   Dn1  v052
 BYTE   N06  En1  v127
 BYTE   N06  Gs1  v080
 BYTE   W06
 BYTE   As1  v036
 BYTE   W06
 BYTE   Bn0  v127
 BYTE   N06  Cn1
 BYTE   N06  Gs1  v080
 BYTE   W06
 BYTE   Bn0  v127
 BYTE   N06  Cn1
 BYTE   N06  As1  v036
 BYTE   W06
 BYTE   Dn1  v052
 BYTE   N06  En1  v127
 BYTE   N06  Gs1  v080
 BYTE   W06
 BYTE   Dn1  v052
 BYTE   N06  En1  v127
 BYTE   N32  An2
 BYTE   W06
 BYTE   N06  Bn0
 BYTE   N06  Cn1
 BYTE   W06
 BYTE   Bn0
 BYTE   W06
 BYTE   Dn1  v052
 BYTE   N06  En1  v127
 BYTE   W06
// 003   ----------------------------------------
 BYTE   Bn0
 BYTE   N06  Cn1
 BYTE   W06
 BYTE   Bn0
 BYTE   W06
 BYTE   Dn1  v052
 BYTE   N06  En1  v127
 BYTE   W03
 BYTE   Bn1
 BYTE   W03
 BYTE   Bn0
 BYTE   N06  Cn1
 BYTE   N06  An1
 BYTE   W03
 BYTE   Gn1
 BYTE   W03
 BYTE   Bn0
 BYTE   N02  Fn1
 BYTE   W03
 BYTE   N02
 BYTE   W03
 BYTE   N06  Dn1  v052
 BYTE   N06  En1  v127
 BYTE   N32  An2
 BYTE   W06
 BYTE   N06  Bn0
 BYTE   N06  Cn1
 BYTE   W06
 BYTE   Bn0
 BYTE   W06
 BYTE   Dn1  v052
 BYTE   N06  En1  v127
 BYTE   W06
 BYTE   Bn0
 BYTE   N06  Cn1
 BYTE   W06
 BYTE   Bn0
 BYTE   W06
 BYTE   Dn1  v052
 BYTE   N06  En1  v127
 BYTE   W03
 BYTE   Bn1
 BYTE   W03
 BYTE   Bn0
 BYTE   N06  Cn1
 BYTE   N06  An1
 BYTE   W03
 BYTE   Gn1
 BYTE   W03
 BYTE   Bn0
 BYTE   N02  Fn1
 BYTE   W03
 BYTE   N02
 BYTE   W03
 BYTE   N06  Bn0
 BYTE   N06  As1  v052
 BYTE   N24  An2  v127
 BYTE   W06
 BYTE   N02  Gs1  v072
 BYTE   W03
 BYTE   N02
 BYTE   W03
// 004   ----------------------------------------
Label_11_014307B5:
 BYTE   N06  Dn1  v044
 BYTE   N06  En1  v127
 BYTE   N06  Fs1  v072
 BYTE   W06
 BYTE   Gs1
 BYTE   W06
 BYTE   Bn0  v127
 BYTE   N06  As1  v052
 BYTE   W06
 BYTE   Bn0  v127
 BYTE   N06  Gs1  v072
 BYTE   W06
 BYTE   Dn1  v044
 BYTE   N06  En1  v127
 BYTE   N06  Fs1  v072
 BYTE   W06
 BYTE   Gs1
 BYTE   W03
 BYTE   N02  Bn0  v127
 BYTE   W03
 BYTE   N06
 BYTE   N06  As1  v052
 BYTE   W06
 BYTE   Gs1  v064
 BYTE   W06
 BYTE   Dn1  v044
 BYTE   N06  En1  v127
 BYTE   N06  Fs1  v064
 BYTE   W06
 BYTE   Gs1
 BYTE   W06
 BYTE   N03  Bn0  v127
 BYTE   N06  As1  v052
 BYTE   W03
 BYTE   N03  Bn0  v127
 BYTE   W03
 BYTE   N03
 BYTE   N06  Gs1  v064
 BYTE   W06
 BYTE   Dn1  v044
 BYTE   N06  En1  v127
 BYTE   N06  Fs1  v064
 BYTE   W06
 BYTE   Dn1  v044
 BYTE   N06  En1  v127
 BYTE   N06  Gs1  v064
 BYTE   W06
 BYTE   Bn0  v127
 BYTE   N06  As1  v052
 BYTE   N24  An2  v127
 BYTE   W06
 BYTE   N02  Gs1  v072
 BYTE   W03
 BYTE   N02
 BYTE   W03
 BYTE   PEND 
 BYTE   PATT
  POIN2 Label_11_014307B5
 BYTE   PATT
  POIN2 Label_11_014307B5
// 005   ----------------------------------------
 BYTE   N06  Dn1  v044
 BYTE   N06  En1  v127
 BYTE   N06  Fs1  v072
 BYTE   W06
 BYTE   Gs1
 BYTE   W06
 BYTE   Bn0  v127
 BYTE   N06  As1  v052
 BYTE   W06
 BYTE   Bn0  v127
 BYTE   N06  Gs1  v072
 BYTE   W06
 BYTE   Dn1  v044
 BYTE   N06  En1  v127
 BYTE   N06  Fs1  v072
 BYTE   W06
 BYTE   Gs1
 BYTE   W03
 BYTE   N02  Bn0  v127
 BYTE   W03
 BYTE   N06
 BYTE   N06  As1  v052
 BYTE   W06
 BYTE   Gs1  v064
 BYTE   W06
 BYTE   Dn1  v044
 BYTE   N06  En1  v127
 BYTE   N06  Fs1  v064
 BYTE   W06
 BYTE   Gs1
 BYTE   W06
 BYTE   N03  Bn0  v127
 BYTE   N06  As1  v052
 BYTE   W03
 BYTE   N03  Bn0  v127
 BYTE   W03
 BYTE   N03
 BYTE   N06  Gs1  v064
 BYTE   W06
 BYTE   Dn1  v044
 BYTE   N06  En1  v127
 BYTE   N06  Fs1  v064
 BYTE   W06
 BYTE   Dn1  v044
 BYTE   N06  En1  v127
 BYTE   N06  Gs1  v064
 BYTE   W06
 BYTE   Bn0  v127
 BYTE   N22  An2
 BYTE   W12
// 006   ----------------------------------------
 BYTE   W12
 BYTE   N06  Bn0
 BYTE   N22  An2
 BYTE   W24
 BYTE   N06  Bn0
 BYTE   N22  An2
 BYTE   W24
 BYTE   N03  Cn2
 BYTE   W03
 BYTE   An1
 BYTE   N03  Cn2
 BYTE   W03
 BYTE   An1
 BYTE   W03
 BYTE   Gn1
 BYTE   N03  An1
 BYTE   W03
 BYTE   Gn1
 BYTE   W03
 BYTE   Fn1
 BYTE   N03  Gn1
 BYTE   W03
 BYTE   Dn1  v052
 BYTE   N03  En1  v127
 BYTE   W03
 BYTE   Dn1  v052
 BYTE   N03  En1  v127
 BYTE   W03
 BYTE   N06  Bn0
 BYTE   N22  An2
 BYTE   W12
// 007   ----------------------------------------
 BYTE   W12
 BYTE   N06  Bn0
 BYTE   N22  An2
 BYTE   W24
 BYTE   N06  Bn0
 BYTE   N22  An2
 BYTE   W24
 BYTE   N03  Cn2
 BYTE   W03
 BYTE   An1
 BYTE   N03  Cn2
 BYTE   W03
 BYTE   An1
 BYTE   W03
 BYTE   Gn1
 BYTE   N03  An1
 BYTE   W03
 BYTE   Gn1
 BYTE   W03
 BYTE   Fn1
 BYTE   N03  Gn1
 BYTE   W03
 BYTE   Fs1
 BYTE   W03
 BYTE   Bn0
 BYTE   N03  Fs1
 BYTE   W03
 BYTE   N06  Dn1  v044
 BYTE   N06  En1  v127
 BYTE   N06  Gs1  v056
 BYTE   W03
 BYTE   N03  Bn0  v127
 BYTE   W03
 BYTE   Fs1
 BYTE   W03
 BYTE   Bn0
 BYTE   N03  Fs1
 BYTE   W03
// 008   ----------------------------------------
 BYTE   N06  Dn1  v044
 BYTE   N06  En1  v127
 BYTE   N06  Gs1  v056
 BYTE   W03
 BYTE   N03  Bn0  v127
 BYTE   W03
 BYTE   Fs1
 BYTE   W03
 BYTE   Bn0
 BYTE   N03  Fs1
 BYTE   W03
 BYTE   N06  Dn1  v044
 BYTE   N06  En1  v127
 BYTE   N06  Gs1  v056
 BYTE   W03
 BYTE   N03  Bn0  v127
 BYTE   W03
 BYTE   Fs1
 BYTE   W03
 BYTE   Bn0
 BYTE   N03  Fs1
 BYTE   W03
 BYTE   N06  Dn1  v044
 BYTE   N06  En1  v127
 BYTE   N06  Gs1  v056
 BYTE   W03
 BYTE   N03  Bn0  v127
 BYTE   W03
 BYTE   Fs1
 BYTE   W03
 BYTE   Bn0
 BYTE   N03  Fs1
 BYTE   W03
 BYTE   N06  Dn1  v044
 BYTE   N06  En1  v127
 BYTE   N06  Gs1  v056
 BYTE   W03
 BYTE   N03  Bn0  v127
 BYTE   W03
 BYTE   Fs1
 BYTE   W03
 BYTE   Bn0
 BYTE   N03  Fs1
 BYTE   W03
 BYTE   N06  Dn1  v044
 BYTE   N06  En1  v127
 BYTE   N06  Gs1  v056
 BYTE   W03
 BYTE   N03  Bn0  v127
 BYTE   W03
 BYTE   Fs1
 BYTE   W03
 BYTE   Bn0
 BYTE   N03  Fs1
 BYTE   W03
 BYTE   N06  Dn1  v044
 BYTE   N06  En1  v127
 BYTE   N06  Gs1  v056
 BYTE   W03
 BYTE   N03  Bn0  v127
 BYTE   W03
 BYTE   Fs1
 BYTE   W03
 BYTE   Bn0
 BYTE   N03  Fs1
 BYTE   W03
 BYTE   N06  Dn1  v044
 BYTE   N06  En1  v127
 BYTE   N06  Gs1  v056
 BYTE   W03
 BYTE   N03  Bn0  v127
 BYTE   W03
 BYTE   Fs1
 BYTE   W03
 BYTE   Bn0
 BYTE   N03  Fs1
 BYTE   W03
 BYTE   N06  Dn1  v044
 BYTE   N06  En1  v127
 BYTE   N06  Gs1  v056
 BYTE   W03
 BYTE   N03  Bn0  v127
 BYTE   W03
 BYTE   Fs1
 BYTE   W03
 BYTE   Bn0
 BYTE   N03  Fs1
 BYTE   W03
// 009   ----------------------------------------
 BYTE   N06  Dn1  v044
 BYTE   N06  En1  v127
 BYTE   N06  Gs1  v056
 BYTE   W03
 BYTE   N03  Bn0  v127
 BYTE   W03
 BYTE   Fs1
 BYTE   W03
 BYTE   Bn0
 BYTE   N03  Fs1
 BYTE   W03
 BYTE   N06  Dn1  v044
 BYTE   N06  En1  v127
 BYTE   N06  Gs1  v056
 BYTE   W03
 BYTE   N03  Bn0  v127
 BYTE   W03
 BYTE   Dn1  v040
 BYTE   N03  En1  v127
 BYTE   W03
 BYTE   Bn0
 BYTE   N03  Dn1  v040
 BYTE   N03  En1  v127
 BYTE   W03
 BYTE   Dn1  v040
 BYTE   N03  En1  v127
 BYTE   W03
 BYTE   Bn0
 BYTE   W03
 BYTE   N06
 BYTE   N06  Cn1
 BYTE   N32  An2
 BYTE   W06
 BYTE   N06  Dn1  v048
 BYTE   N06  En1  v127
 BYTE   W06
 BYTE   N03  Bn0
 BYTE   N03  Cn1
 BYTE   W03
 BYTE   Bn0
 BYTE   N03  Cn1
 BYTE   W03
 BYTE   N06  Dn1  v048
 BYTE   N06  En1  v127
 BYTE   W06
 BYTE   Bn0
 BYTE   N06  Cn1
 BYTE   W06
 BYTE   Dn1  v048
 BYTE   N06  En1  v127
 BYTE   W03
 BYTE   Bn0
 BYTE   N06  Cn1
 BYTE   W06
 BYTE   Bn0
 BYTE   N06  Cn1
 BYTE   W03
 BYTE   Dn1  v048
 BYTE   N06  En1  v127
 BYTE   W06
 BYTE   Bn0
 BYTE   N06  Cn1
 BYTE   W06
 BYTE   Dn1  v048
 BYTE   N06  En1  v127
 BYTE   W06
 BYTE   N03  Bn0
 BYTE   N03  Cn1
 BYTE   W03
 BYTE   Bn0
 BYTE   N03  Cn1
 BYTE   W03
// 010   ----------------------------------------
 BYTE   N06  Dn1  v048
 BYTE   N06  En1  v127
 BYTE   W06
 BYTE   Bn0
 BYTE   N06  Cn1
 BYTE   W06
 BYTE   Dn1  v048
 BYTE   N06  En1  v127
 BYTE   W03
 BYTE   Bn0
 BYTE   N06  Cn1
 BYTE   W06
 BYTE   Bn0
 BYTE   N06  Cn1
 BYTE   W03
 BYTE   Dn1  v048
 BYTE   N06  En1  v127
 BYTE   W06
 BYTE   Bn0
 BYTE   N06  Cn1
 BYTE   N23  An2
 BYTE   W06
 BYTE   N06  Dn1  v048
 BYTE   N06  En1  v127
 BYTE   W06
 BYTE   N03  Bn0
 BYTE   N03  Cn1
 BYTE   W03
 BYTE   Bn0
 BYTE   N03  Cn1
 BYTE   W03
 BYTE   N06  Dn1  v048
 BYTE   N06  En1  v127
 BYTE   W06
 BYTE   Bn0
 BYTE   N06  Cn1
 BYTE   N12  An2
 BYTE   W06
 BYTE   N06  Dn1  v048
 BYTE   N06  En1  v127
 BYTE   W03
 BYTE   Bn0
 BYTE   N06  Cn1
 BYTE   W06
 BYTE   Bn0
 BYTE   N06  Cn1
 BYTE   W03
 BYTE   Dn1  v048
 BYTE   N06  En1  v127
 BYTE   W06
 BYTE   Bn0
 BYTE   N06  Cn1
 BYTE   N32  An2
 BYTE   W06
 BYTE   N06  Dn1  v048
 BYTE   N06  En1  v127
 BYTE   W06
 BYTE   N03  Bn0
 BYTE   N03  Cn1
 BYTE   W03
 BYTE   Bn0
 BYTE   N03  Cn1
 BYTE   W03
// 011   ----------------------------------------
 BYTE   N06  Dn1  v048
 BYTE   N06  En1  v127
 BYTE   W06
 BYTE   Bn0
 BYTE   N06  Cn1
 BYTE   W06
 BYTE   Dn1  v048
 BYTE   N06  En1  v127
 BYTE   W03
 BYTE   Bn0
 BYTE   N06  Cn1
 BYTE   W06
 BYTE   Bn0
 BYTE   N06  Cn1
 BYTE   W03
 BYTE   Dn1  v048
 BYTE   N06  En1  v127
 BYTE   W06
 BYTE   Bn0
 BYTE   N06  Cn1
 BYTE   N32  An2
 BYTE   W06
 BYTE   N06  Dn1  v048
 BYTE   N06  En1  v127
 BYTE   W06
 BYTE   N03  Bn0
 BYTE   N03  Cn1
 BYTE   W03
 BYTE   Bn0
 BYTE   N03  Cn1
 BYTE   W03
 BYTE   N06  Dn1  v048
 BYTE   N06  En1  v127
 BYTE   W06
 BYTE   Bn0
 BYTE   N06  Cn1
 BYTE   W06
 BYTE   Dn1  v048
 BYTE   N06  En1  v127
 BYTE   W03
 BYTE   Bn0
 BYTE   N06  Cn1
 BYTE   W06
 BYTE   Bn0
 BYTE   N06  Cn1
 BYTE   W03
 BYTE   Dn1  v048
 BYTE   N06  En1  v127
 BYTE   W06
 BYTE   Bn0
 BYTE   N06  Cn1
 BYTE   W06
 BYTE   Dn1  v048
 BYTE   N06  En1  v127
 BYTE   W06
 BYTE   N03  Bn0
 BYTE   N03  Cn1
 BYTE   W03
 BYTE   Bn0
 BYTE   N03  Cn1
 BYTE   W03
// 012   ----------------------------------------
 BYTE   N06  Dn1  v048
 BYTE   N06  En1  v127
 BYTE   W06
 BYTE   Bn0
 BYTE   N06  Cn1
 BYTE   W06
 BYTE   Dn1  v048
 BYTE   N06  En1  v127
 BYTE   W03
 BYTE   Bn0
 BYTE   N06  Cn1
 BYTE   W06
 BYTE   Bn0
 BYTE   N06  Cn1
 BYTE   W03
 BYTE   Dn1  v048
 BYTE   N06  En1  v127
 BYTE   W06
 BYTE   Bn0
 BYTE   N06  Cn1
 BYTE   N22  An2
 BYTE   W06
 BYTE   N06  Dn1  v048
 BYTE   N06  En1  v127
 BYTE   W06
 BYTE   N03  Bn0
 BYTE   N03  Cn1
 BYTE   W03
 BYTE   Bn0
 BYTE   N03  Cn1
 BYTE   W03
 BYTE   N06  Dn1  v048
 BYTE   N06  En1  v127
 BYTE   W06
 BYTE   Bn0
 BYTE   N06  Cn1
 BYTE   N20  An2
 BYTE   W06
 BYTE   N06  Dn1  v048
 BYTE   N06  En1  v127
 BYTE   W03
 BYTE   Bn0
 BYTE   N06  Cn1
 BYTE   W06
 BYTE   Bn0
 BYTE   N06  Cn1
 BYTE   W03
 BYTE   Dn1  v048
 BYTE   N06  En1  v127
 BYTE   W06
 BYTE   Bn0
 BYTE   N06  Cn1
 BYTE   N24  An2
 BYTE   W06
 BYTE   N06  Dn1  v048
 BYTE   N06  En1  v127
 BYTE   W06
 BYTE   N03  Bn0
 BYTE   N03  Cn1
 BYTE   W03
 BYTE   Bn0
 BYTE   N03  Cn1
 BYTE   W03
// 013   ----------------------------------------
 BYTE   N06  Dn1  v048
 BYTE   N06  En1  v127
 BYTE   W06
 BYTE   Bn0
 BYTE   N06  Cn1
 BYTE   W06
 BYTE   Dn1  v048
 BYTE   N06  En1  v127
 BYTE   W03
 BYTE   Bn0
 BYTE   N06  Cn1
 BYTE   W03
 BYTE   N03  An1
 BYTE   W03
 BYTE   N06  Bn0
 BYTE   N06  Cn1
 BYTE   N03  An1
 BYTE   W03
 BYTE   N06  Dn1  v048
 BYTE   N06  En1  v127
 BYTE   N03  Gn1
 BYTE   W03
 BYTE   N03
 BYTE   W03
 BYTE   N06  Fs1  v084
 BYTE   W06
 BYTE   Fs1  v060
 BYTE   W06
 BYTE   N06
 BYTE   W06
 BYTE   Fs1  v076
 BYTE   W06
 BYTE   Fs1  v060
 BYTE   W06
 BYTE   N06
 BYTE   W06
 BYTE   N06
 BYTE   W06
 BYTE   N06
 BYTE   W06
 BYTE   Fs1  v084
 BYTE   W06
 BYTE   Fs1  v060
 BYTE   W06
 BYTE   N06
 BYTE   W06
// 014   ----------------------------------------
 BYTE   Fs1  v076
 BYTE   W06
 BYTE   Fs1  v060
 BYTE   W06
 BYTE   N06
 BYTE   W06
 BYTE   N06
 BYTE   W06
 BYTE   N06
 BYTE   W06
 BYTE   Fs1  v084
 BYTE   W06
 BYTE   Fs1  v060
 BYTE   W06
 BYTE   N06
 BYTE   W06
 BYTE   Fs1  v076
 BYTE   W06
 BYTE   Fs1  v060
 BYTE   W06
 BYTE   N06
 BYTE   W06
 BYTE   N06
 BYTE   W06
 BYTE   N06
 BYTE   W06
 BYTE   Fs1  v084
 BYTE   W06
 BYTE   Fs1  v060
 BYTE   W06
 BYTE   N06
 BYTE   W06
// 015   ----------------------------------------
 BYTE   Fs1  v076
 BYTE   W06
 BYTE   Fs1  v060
 BYTE   W06
 BYTE   N06
 BYTE   W06
 BYTE   N06
 BYTE   W06
 BYTE   N06
 BYTE   W06
 BYTE   Bn0  v127
 BYTE   N06  Cn1
 BYTE   N24  An2
 BYTE   W12
 BYTE   N06  Dn1  v044
 BYTE   N06  En1  v127
 BYTE   W06
 BYTE   Cn2
 BYTE   W03
 BYTE   Bn1
 BYTE   W03
 BYTE   An1
 BYTE   W12
 BYTE   N03
 BYTE   W03
 BYTE   N03
 BYTE   W03
 BYTE   Gn1
 BYTE   W03
 BYTE   N03
 BYTE   W03
 BYTE   N06  An1
 BYTE   N23  An2
 BYTE   W08
 BYTE   N02  Fn1
 BYTE   W08
 BYTE   En1
 BYTE   W02
// 016   ----------------------------------------
 BYTE   N04  Dn1  v052
 BYTE   W06
 BYTE   N02  An1  v127
 BYTE   N20  An2
 BYTE   W08
 BYTE   N02  Gn1
 BYTE   W08
 BYTE   Fn1
 BYTE   W08
 BYTE   N06  Bn0
 BYTE   N06  Cn1
 BYTE   N21  An2
 BYTE   W24
 BYTE   N06  Bn0
 BYTE   N06  Cn1
 BYTE   N23  An2
 BYTE   W24
 BYTE   N03  Dn1  v056
 BYTE   N03  En1  v127
 BYTE   W03
 BYTE   Dn1  v056
 BYTE   N03  En1  v127
 BYTE   W03
 BYTE   Dn1  v056
 BYTE   N03  En1  v127
 BYTE   W03
 BYTE   Dn1  v056
 BYTE   N03  En1  v127
 BYTE   W03
 BYTE   Dn1  v036
 BYTE   N03  Cn2  v127
 BYTE   W03
 BYTE   Dn1  v036
 BYTE   N03  Cn2  v127
 BYTE   W03
// 017   ----------------------------------------
 BYTE   Dn1  v036
 BYTE   N03  Bn1  v127
 BYTE   W03
 BYTE   Dn1  v036
 BYTE   N03  Bn1  v127
 BYTE   W03
 BYTE   Dn1  v036
 BYTE   N03  An1  v127
 BYTE   W03
 BYTE   Dn1  v036
 BYTE   N03  An1  v127
 BYTE   W03
 BYTE   Dn1  v036
 BYTE   N03  Gn1  v127
 BYTE   W03
 BYTE   Dn1  v036
 BYTE   N03  Gn1  v127
 BYTE   W03
 BYTE   Dn1  v036
 BYTE   N03  Fn1  v127
 BYTE   W03
 BYTE   Dn1  v036
 BYTE   N03  Fn1  v127
 BYTE   W03
 BYTE   Dn1  v036
 BYTE   N03  Fn1  v127
 BYTE   W03
 BYTE   Dn1  v036
 BYTE   N03  Fn1  v127
 BYTE   W03
 BYTE   N06  Dn1  v036
 BYTE   N06  En1  v127
 BYTE   N24  An2
 BYTE   W06
 BYTE   N03  Bn0
 BYTE   N03  Cn1
 BYTE   W03
 BYTE   Bn0
 BYTE   N03  Cn1
 BYTE   W03
 BYTE   N06  Dn1  v036
 BYTE   N06  En1  v127
 BYTE   W03
 BYTE   N03  Bn0
 BYTE   N03  Cn1
 BYTE   W06
 BYTE   Bn0
 BYTE   N03  Cn1
 BYTE   W03
 BYTE   N06  Dn1  v036
 BYTE   N06  En1  v127
 BYTE   W06
 BYTE   Bn0
 BYTE   N06  Cn1
 BYTE   W06
 BYTE   Dn1  v036
 BYTE   N06  En1  v127
 BYTE   W06
 BYTE   Bn0
 BYTE   N06  Cn1
 BYTE   W06
 BYTE   Dn1  v036
 BYTE   N06  En1  v127
 BYTE   N24  An2
 BYTE   W06
 BYTE   N03  Bn0
 BYTE   N03  Cn1
 BYTE   W03
 BYTE   Bn0
 BYTE   N03  Cn1
 BYTE   W03
 BYTE   N06  Dn1  v036
 BYTE   N06  En1  v127
 BYTE   W03
 BYTE   N03  Bn0
 BYTE   N03  Cn1
 BYTE   W03
// 018   ----------------------------------------
 BYTE   W03
 BYTE   Bn0
 BYTE   N03  Cn1
 BYTE   W03
 BYTE   N06  Dn1  v036
 BYTE   N06  En1  v127
 BYTE   W06
 BYTE   Bn0
 BYTE   N06  Cn1
 BYTE   W06
 BYTE   Dn1  v036
 BYTE   N06  En1  v127
 BYTE   W06
 BYTE   Bn0
 BYTE   N06  Cn1
 BYTE   W06
 BYTE   Dn1  v036
 BYTE   N06  En1  v127
 BYTE   N24  An2
 BYTE   W06
 BYTE   N03  Bn0
 BYTE   N03  Cn1
 BYTE   W03
 BYTE   Bn0
 BYTE   N03  Cn1
 BYTE   W03
 BYTE   N06  Dn1  v036
 BYTE   N06  En1  v127
 BYTE   W03
 BYTE   N03  Bn0
 BYTE   N03  Cn1
 BYTE   W06
 BYTE   Bn0
 BYTE   N03  Cn1
 BYTE   W03
 BYTE   N06  Dn1  v036
 BYTE   N06  En1  v127
 BYTE   W06
 BYTE   Bn0
 BYTE   N06  Cn1
 BYTE   W06
 BYTE   Dn1  v036
 BYTE   N06  En1  v127
 BYTE   W06
 BYTE   Bn0
 BYTE   N06  Cn1
 BYTE   W06
 BYTE   Dn1  v036
 BYTE   N06  En1  v127
 BYTE   N24  An2
 BYTE   W06
 BYTE   N03  Bn0
 BYTE   N03  Cn1
 BYTE   W03
 BYTE   Bn0
 BYTE   N03  Cn1
 BYTE   W03
 BYTE   N06  Dn1  v036
 BYTE   N06  En1  v127
 BYTE   W03
 BYTE   N03  Bn0
 BYTE   N03  Cn1
 BYTE   W03
// 019   ----------------------------------------
 BYTE   W03
 BYTE   Bn0
 BYTE   N03  Cn1
 BYTE   W03
 BYTE   N06  Dn1  v036
 BYTE   N06  En1  v127
 BYTE   W06
 BYTE   Bn0
 BYTE   N06  Cn1
 BYTE   W06
 BYTE   Dn1  v036
 BYTE   N06  En1  v127
 BYTE   W06
 BYTE   Bn0
 BYTE   N06  Cn1
 BYTE   W06
 BYTE   N03  Bn0
 BYTE   N03  Cn1
 BYTE   N03  Gs1  v056
 BYTE   W03
 BYTE   Bn0  v127
 BYTE   N03  Cn1
 BYTE   W03
 BYTE   Bn0
 BYTE   N03  Cn1
 BYTE   W03
 BYTE   Bn0
 BYTE   N03  Cn1
 BYTE   W03
 BYTE   Bn0
 BYTE   N03  Cn1
 BYTE   W03
 BYTE   Bn0
 BYTE   N03  Cn1
 BYTE   W03
 BYTE   Bn0
 BYTE   N03  Cn1
 BYTE   W03
 BYTE   Bn0
 BYTE   N03  Cn1
 BYTE   W03
 BYTE   Bn0
 BYTE   N03  Cn1
 BYTE   W03
 BYTE   Bn0
 BYTE   N03  Cn1
 BYTE   W03
 BYTE   Bn0
 BYTE   N03  Cn1
 BYTE   N06  Dn1  v048
 BYTE   N06  En1  v127
 BYTE   N05  An2
 BYTE   W03
 BYTE   N03  Bn0
 BYTE   N03  Cn1
 BYTE   W03
 BYTE   Bn0
 BYTE   N03  Cn1
 BYTE   N03  Gs1  v056
 BYTE   W03
 BYTE   Bn0  v127
 BYTE   N03  Cn1
 BYTE   W03
 BYTE   Bn0
 BYTE   N03  Cn1
 BYTE   W03
 BYTE   Bn0
 BYTE   N03  Cn1
 BYTE   W03
 BYTE   Bn0
 BYTE   N03  Cn1
 BYTE   W03
 BYTE   Bn0
 BYTE   N03  Cn1
 BYTE   W03
 BYTE   Bn0
 BYTE   N03  Cn1
 BYTE   W03
 BYTE   Bn0
 BYTE   N03  Cn1
 BYTE   W03
 BYTE   Bn0
 BYTE   N03  Cn1
 BYTE   W03
 BYTE   Bn0
 BYTE   N03  Cn1
 BYTE   W03
// 020   ----------------------------------------
 BYTE   Bn0
 BYTE   N03  Cn1
 BYTE   N06  Dn1  v048
 BYTE   N06  En1  v127
 BYTE   N05  An2
 BYTE   W03
 BYTE   N03  Bn0
 BYTE   N03  Cn1
 BYTE   W03
 BYTE   Bn0
 BYTE   N03  Cn1
 BYTE   N03  Gs1  v056
 BYTE   W03
 BYTE   Bn0  v127
 BYTE   N03  Cn1
 BYTE   W03
 BYTE   Bn0
 BYTE   N03  Cn1
 BYTE   W03
 BYTE   Bn0
 BYTE   N03  Cn1
 BYTE   W03
 BYTE   Bn0
 BYTE   N03  Cn1
 BYTE   W03
 BYTE   Bn0
 BYTE   N03  Cn1
 BYTE   W03
 BYTE   Bn0
 BYTE   N03  Cn1
 BYTE   W03
 BYTE   Bn0
 BYTE   N03  Cn1
 BYTE   W03
 BYTE   Bn0
 BYTE   N03  Cn1
 BYTE   W03
 BYTE   Bn0
 BYTE   N03  Cn1
 BYTE   W03
 BYTE   Bn0
 BYTE   N03  Cn1
 BYTE   N06  Dn1  v048
 BYTE   N06  En1  v127
 BYTE   N05  An2
 BYTE   W03
 BYTE   N03  Bn0
 BYTE   N03  Cn1
 BYTE   W03
 BYTE   Bn0
 BYTE   N03  Cn1
 BYTE   N03  Gs1  v056
 BYTE   W03
 BYTE   Bn0  v127
 BYTE   N03  Cn1
 BYTE   W03
 BYTE   Bn0
 BYTE   N03  Cn1
 BYTE   W03
 BYTE   Bn0
 BYTE   N03  Cn1
 BYTE   W03
 BYTE   Bn0
 BYTE   N03  Cn1
 BYTE   W03
 BYTE   Bn0
 BYTE   N03  Cn1
 BYTE   W03
 BYTE   Bn0
 BYTE   N03  Cn1
 BYTE   W03
 BYTE   Bn0
 BYTE   N03  Cn1
 BYTE   W03
 BYTE   Bn0
 BYTE   N03  Cn1
 BYTE   W03
 BYTE   Bn0
 BYTE   N03  Cn1
 BYTE   W03
 BYTE   Bn0
 BYTE   N03  Cn1
 BYTE   N06  Dn1  v048
 BYTE   N06  En1  v127
 BYTE   N05  An2
 BYTE   W03
 BYTE   N03  Bn0
 BYTE   N03  Cn1
 BYTE   W03
 BYTE   Bn0
 BYTE   N03  Cn1
 BYTE   N03  Gs1  v056
 BYTE   W03
 BYTE   Bn0  v127
 BYTE   N03  Cn1
 BYTE   W03
 BYTE   Bn0
 BYTE   N03  Cn1
 BYTE   W03
 BYTE   Bn0
 BYTE   N03  Cn1
 BYTE   W03
 BYTE   Bn0
 BYTE   N03  Cn1
 BYTE   W03
 BYTE   Bn0
 BYTE   N03  Cn1
 BYTE   W03
// 021   ----------------------------------------
 BYTE   Bn0
 BYTE   N03  Cn1
 BYTE   W03
 BYTE   Bn0
 BYTE   N03  Cn1
 BYTE   W03
 BYTE   Bn0
 BYTE   N03  Cn1
 BYTE   W03
 BYTE   Bn0
 BYTE   N03  Cn1
 BYTE   W03
 BYTE   Bn0
 BYTE   N03  Cn1
 BYTE   N06  Dn1  v048
 BYTE   N06  En1  v127
 BYTE   N05  An2
 BYTE   W03
 BYTE   N03  Bn0
 BYTE   N03  Cn1
 BYTE   W03
 BYTE   Bn0
 BYTE   N03  Cn1
 BYTE   N03  Gs1  v056
 BYTE   W03
 BYTE   Bn0  v127
 BYTE   N03  Cn1
 BYTE   W03
 BYTE   Bn0
 BYTE   N03  Cn1
 BYTE   W03
 BYTE   Bn0
 BYTE   N03  Cn1
 BYTE   W03
 BYTE   Bn0
 BYTE   N03  Cn1
 BYTE   W03
 BYTE   Bn0
 BYTE   N03  Cn1
 BYTE   W03
 BYTE   Bn0
 BYTE   N03  Cn1
 BYTE   W03
 BYTE   Bn0
 BYTE   N03  Cn1
 BYTE   W03
 BYTE   Bn0
 BYTE   N03  Cn1
 BYTE   W03
 BYTE   Bn0
 BYTE   N03  Cn1
 BYTE   W03
 BYTE   Bn0
 BYTE   N03  Cn1
 BYTE   N06  Dn1  v048
 BYTE   N06  En1  v127
 BYTE   N05  An2
 BYTE   W03
 BYTE   N03  Bn0
 BYTE   N03  Cn1
 BYTE   W03
 BYTE   Bn0
 BYTE   N03  Cn1
 BYTE   N03  Gs1  v056
 BYTE   W03
 BYTE   Bn0  v127
 BYTE   N03  Cn1
 BYTE   W03
 BYTE   Bn0
 BYTE   N03  Cn1
 BYTE   W03
 BYTE   Bn0
 BYTE   N03  Cn1
 BYTE   W03
 BYTE   Bn0
 BYTE   N03  Cn1
 BYTE   W03
 BYTE   Bn0
 BYTE   N03  Cn1
 BYTE   W03
 BYTE   Bn0
 BYTE   N03  Cn1
 BYTE   W03
 BYTE   Bn0
 BYTE   N03  Cn1
 BYTE   W03
 BYTE   Bn0
 BYTE   N03  Cn1
 BYTE   W03
 BYTE   Bn0
 BYTE   N03  Cn1
 BYTE   W03
 BYTE   Bn0
 BYTE   N03  Cn1
 BYTE   N06  Dn1  v048
 BYTE   N06  En1  v127
 BYTE   N05  An2
 BYTE   W03
 BYTE   N03  Bn0
 BYTE   N03  Cn1
 BYTE   W03
 BYTE   Bn0
 BYTE   N03  Cn1
 BYTE   N03  Gs1  v056
 BYTE   W03
 BYTE   Bn0  v127
 BYTE   N03  Cn1
 BYTE   W03
// 022   ----------------------------------------
 BYTE   Bn0
 BYTE   N03  Cn1
 BYTE   W03
 BYTE   Bn0
 BYTE   N03  Cn1
 BYTE   W03
 BYTE   Bn0
 BYTE   N03  Cn1
 BYTE   W03
 BYTE   Bn0
 BYTE   N03  Cn1
 BYTE   W03
 BYTE   Bn0
 BYTE   N03  Cn1
 BYTE   W03
 BYTE   Bn0
 BYTE   N03  Cn1
 BYTE   W03
 BYTE   Bn0
 BYTE   N03  Cn1
 BYTE   W03
 BYTE   Bn0
 BYTE   N03  Cn1
 BYTE   W03
 BYTE   Bn0
 BYTE   N03  Cn1
 BYTE   N06  Dn1  v048
 BYTE   N06  En1  v127
 BYTE   N05  An2
 BYTE   W03
 BYTE   N03  Bn0
 BYTE   N03  Cn1
 BYTE   W03
 BYTE   N06  Bn0
 BYTE   N06  Cn1
 BYTE   N32  An2
 BYTE   W06
 BYTE   N06  Dn1  v048
 BYTE   N06  En1  v127
 BYTE   W06
 BYTE   N03  Bn0
 BYTE   N03  Cn1
 BYTE   W03
 BYTE   Bn0
 BYTE   N03  Cn1
 BYTE   W03
 BYTE   N06  Dn1  v048
 BYTE   N06  En1  v127
 BYTE   W06
 BYTE   Bn0
 BYTE   N06  Cn1
 BYTE   W06
 BYTE   Dn1  v048
 BYTE   N06  En1  v127
 BYTE   W03
 BYTE   N02  Bn0
 BYTE   N03  Cn1
 BYTE   W03
 BYTE   N06  Bn0
 BYTE   W03
 BYTE   N03  Dn1  v048
 BYTE   N03  En1  v127
 BYTE   W03
 BYTE   N06  Bn0
 BYTE   N06  Cn1
 BYTE   N32  An2
 BYTE   W06
 BYTE   N06  Dn1  v048
 BYTE   N06  En1  v127
 BYTE   W06
 BYTE   N03  Bn0
 BYTE   N03  Cn1
 BYTE   W03
 BYTE   Bn0
 BYTE   N03  Cn1
 BYTE   W03
 BYTE   N06  Dn1  v048
 BYTE   N06  En1  v127
 BYTE   W06
// 023   ----------------------------------------
 BYTE   Bn0
 BYTE   N06  Cn1
 BYTE   W06
 BYTE   Dn1  v048
 BYTE   N06  En1  v127
 BYTE   W03
 BYTE   N02  Bn0
 BYTE   N03  Cn1
 BYTE   W03
 BYTE   N06  Bn0
 BYTE   W03
 BYTE   N03  Dn1  v048
 BYTE   N03  En1  v127
 BYTE   W03
 BYTE   N06  Bn0
 BYTE   N06  Cn1
 BYTE   N32  An2
 BYTE   W06
 BYTE   N06  Dn1  v048
 BYTE   N06  En1  v127
 BYTE   W06
 BYTE   N03  Bn0
 BYTE   N03  Cn1
 BYTE   W03
 BYTE   Bn0
 BYTE   N03  Cn1
 BYTE   W03
 BYTE   N06  Dn1  v048
 BYTE   N06  En1  v127
 BYTE   W06
 BYTE   Bn0
 BYTE   N06  Cn1
 BYTE   W06
 BYTE   Dn1  v048
 BYTE   N06  En1  v127
 BYTE   W03
 BYTE   N02  Bn0
 BYTE   N03  Cn1
 BYTE   W03
 BYTE   N06  Bn0
 BYTE   W03
 BYTE   N03  Dn1  v048
 BYTE   N03  En1  v127
 BYTE   W03
 BYTE   N06  Bn0
 BYTE   N06  Cn1
 BYTE   N32  An2
 BYTE   W06
 BYTE   N06  Dn1  v048
 BYTE   N06  En1  v127
 BYTE   W06
 BYTE   N03  Bn0
 BYTE   N03  Cn1
 BYTE   W03
 BYTE   Bn0
 BYTE   N03  Cn1
 BYTE   W03
 BYTE   N06  Dn1  v048
 BYTE   N06  En1  v127
 BYTE   W06
 BYTE   Bn0
 BYTE   N06  Cn1
 BYTE   W06
 BYTE   Dn1  v048
 BYTE   N06  En1  v127
 BYTE   W03
 BYTE   N02  Bn0
 BYTE   N03  Cn1
 BYTE   W03
// 024   ----------------------------------------
 BYTE   N06  Bn0
 BYTE   W03
 BYTE   N03  Dn1  v048
 BYTE   N03  En1  v127
 BYTE   W03
 BYTE   N06  Bn0
 BYTE   N06  Cn1
 BYTE   N32  An2
 BYTE   W06
 BYTE   N06  Dn1  v048
 BYTE   N06  En1  v127
 BYTE   W06
 BYTE   N03  Bn0
 BYTE   N03  Cn1
 BYTE   W03
 BYTE   Bn0
 BYTE   N03  Cn1
 BYTE   W03
 BYTE   N06  Dn1  v048
 BYTE   N06  En1  v127
 BYTE   W06
 BYTE   Bn0
 BYTE   N06  Cn1
 BYTE   W06
 BYTE   Dn1  v048
 BYTE   N06  En1  v127
 BYTE   W03
 BYTE   N02  Bn0
 BYTE   N03  Cn1
 BYTE   W03
 BYTE   N06  Bn0
 BYTE   W03
 BYTE   N03  Dn1  v048
 BYTE   N03  En1  v127
 BYTE   W03
 BYTE   N06  Bn0
 BYTE   N06  Cn1
 BYTE   N32  An2
 BYTE   W06
 BYTE   N06  Dn1  v048
 BYTE   N06  En1  v127
 BYTE   W06
 BYTE   N03  Bn0
 BYTE   N03  Cn1
 BYTE   W03
 BYTE   Bn0
 BYTE   N03  Cn1
 BYTE   W03
 BYTE   N06  Dn1  v048
 BYTE   N06  En1  v127
 BYTE   W06
 BYTE   Bn0
 BYTE   N06  Cn1
 BYTE   W06
 BYTE   Dn1  v048
 BYTE   N06  En1  v127
 BYTE   W03
 BYTE   N02  Bn0
 BYTE   N03  Cn1
 BYTE   W03
 BYTE   N06  Bn0
 BYTE   W03
 BYTE   N03  Dn1  v048
 BYTE   N03  En1  v127
 BYTE   W03
 BYTE   N06  Bn0
 BYTE   N06  Cn1
 BYTE   N32  An2
 BYTE   W06
// 025   ----------------------------------------
 BYTE   N06  Dn1  v048
 BYTE   N06  En1  v127
 BYTE   W06
 BYTE   N03  Bn0
 BYTE   N03  Cn1
 BYTE   W03
 BYTE   Bn0
 BYTE   N03  Cn1
 BYTE   W03
 BYTE   N06  Dn1  v048
 BYTE   N06  En1  v127
 BYTE   W06
 BYTE   Bn0
 BYTE   N06  Cn1
 BYTE   W06
 BYTE   Dn1  v048
 BYTE   N06  En1  v127
 BYTE   W03
 BYTE   N02  Bn0
 BYTE   N03  Cn1
 BYTE   W03
 BYTE   N06  Bn0
 BYTE   W03
 BYTE   N03  Dn1  v048
 BYTE   N03  En1  v127
 BYTE   W03
 BYTE   N06  Bn0
 BYTE   N06  Cn1
 BYTE   N32  An2
 BYTE   W06
 BYTE   N06  Dn1  v048
 BYTE   N06  En1  v127
 BYTE   W06
 BYTE   N03  Bn0
 BYTE   N03  Cn1
 BYTE   W03
 BYTE   Bn0
 BYTE   N03  Cn1
 BYTE   W03
 BYTE   N06  Dn1  v048
 BYTE   N06  En1  v127
 BYTE   W06
 BYTE   Bn0
 BYTE   N06  Cn1
 BYTE   W06
 BYTE   Dn1  v048
 BYTE   N06  En1  v127
 BYTE   W03
 BYTE   N02  Bn0
 BYTE   N03  Cn1
 BYTE   W03
 BYTE   N06  Bn0
 BYTE   W03
 BYTE   N03  Dn1  v048
 BYTE   N03  En1  v127
 BYTE   W03
 BYTE   N06  Bn0
 BYTE   N06  Cn1
 BYTE   N06  Gs1  v080
 BYTE   W06
 BYTE   As1  v036
 BYTE   W06
 BYTE   Dn1  v052
 BYTE   N06  En1  v127
 BYTE   N06  Gs1  v080
 BYTE   W06
// 026   ----------------------------------------
 BYTE   As1  v036
 BYTE   W06
 BYTE   Bn0  v127
 BYTE   N06  Cn1
 BYTE   N06  Gs1  v080
 BYTE   W06
 BYTE   Bn0  v127
 BYTE   N06  Cn1
 BYTE   N06  As1  v036
 BYTE   W06
 BYTE   Dn1  v052
 BYTE   N06  En1  v127
 BYTE   N06  Gs1  v080
 BYTE   W06
 BYTE   Bn0  v127
 BYTE   N06  Cn1
 BYTE   N06  Gs1  v080
 BYTE   W06
 BYTE   As1  v036
 BYTE   W06
 BYTE   Dn1  v052
 BYTE   N06  En1  v127
 BYTE   N06  Gs1  v080
 BYTE   W06
 BYTE   As1  v036
 BYTE   W06
 BYTE   Bn0  v127
 BYTE   N06  Cn1
 BYTE   N06  Gs1  v080
 BYTE   W06
 BYTE   Bn0  v127
 BYTE   N06  Cn1
 BYTE   N06  As1  v036
 BYTE   W06
 BYTE   Dn1  v052
 BYTE   N06  En1  v127
 BYTE   N06  Gs1  v080
 BYTE   W06
 BYTE   Bn0  v127
 BYTE   N06  Cn1
 BYTE   N06  Gs1  v080
 BYTE   N28  An2  v127
 BYTE   W06
 BYTE   N06  As1  v036
 BYTE   W06
 BYTE   Dn1  v052
 BYTE   N06  En1  v127
 BYTE   N06  Gs1  v080
 BYTE   W06
 BYTE   As1  v036
 BYTE   W06
 BYTE   Bn0  v127
 BYTE   N06  Cn1
 BYTE   N06  Gs1  v080
 BYTE   W06
// 027   ----------------------------------------
 BYTE   Bn0  v127
 BYTE   N06  Cn1
 BYTE   N06  As1  v036
 BYTE   W06
 BYTE   Dn1  v052
 BYTE   N06  En1  v127
 BYTE   N06  Gs1  v080
 BYTE   W06
 BYTE   Bn0  v127
 BYTE   N06  Cn1
 BYTE   N06  Gs1  v080
 BYTE   N28  An2  v127
 BYTE   W06
 BYTE   N06  As1  v036
 BYTE   W06
 BYTE   Dn1  v052
 BYTE   N06  En1  v127
 BYTE   N06  Gs1  v080
 BYTE   W06
 BYTE   As1  v036
 BYTE   W06
 BYTE   Bn0  v127
 BYTE   N06  Cn1
 BYTE   N06  Gs1  v080
 BYTE   W06
 BYTE   Bn0  v127
 BYTE   N06  Cn1
 BYTE   N06  As1  v036
 BYTE   W06
 BYTE   Dn1  v052
 BYTE   N06  En1  v127
 BYTE   N06  Gs1  v080
 BYTE   W06
 BYTE   Dn1  v052
 BYTE   N06  En1  v127
 BYTE   N32  An2
 BYTE   W06
 BYTE   N06  Bn0
 BYTE   N06  Cn1
 BYTE   W06
 BYTE   Bn0
 BYTE   W06
 BYTE   Dn1  v052
 BYTE   N06  En1  v127
 BYTE   W06
 BYTE   Bn0
 BYTE   N06  Cn1
 BYTE   W06
 BYTE   Bn0
 BYTE   W06
 BYTE   Dn1  v052
 BYTE   N06  En1  v127
 BYTE   W03
 BYTE   Bn1
 BYTE   W03
// 028   ----------------------------------------
 BYTE   Bn0
 BYTE   N06  Cn1
 BYTE   N06  An1
 BYTE   W03
 BYTE   Gn1
 BYTE   W03
 BYTE   Bn0
 BYTE   N02  Fn1
 BYTE   W03
 BYTE   N02
 BYTE   W03
 BYTE   N06  Dn1  v052
 BYTE   N06  En1  v127
 BYTE   N32  An2
 BYTE   W06
 BYTE   N06  Bn0
 BYTE   N06  Cn1
 BYTE   W06
 BYTE   Bn0
 BYTE   W06
 BYTE   Dn1  v052
 BYTE   N06  En1  v127
 BYTE   W06
 BYTE   Bn0
 BYTE   N06  Cn1
 BYTE   W06
 BYTE   Bn0
 BYTE   W06
 BYTE   Dn1  v052
 BYTE   N06  En1  v127
 BYTE   W03
 BYTE   Bn1
 BYTE   W03
 BYTE   Bn0
 BYTE   N06  Cn1
 BYTE   N06  An1
 BYTE   W03
 BYTE   Gn1
 BYTE   W03
 BYTE   Bn0
 BYTE   N02  Fn1
 BYTE   W03
 BYTE   N02
 BYTE   W03
 BYTE   N06  Bn0
 BYTE   N06  As1  v052
 BYTE   N24  An2  v127
 BYTE   W06
 BYTE   N02  Gs1  v072
 BYTE   W03
 BYTE   N02
 BYTE   W03
 BYTE   N06  Dn1  v044
 BYTE   N06  En1  v127
 BYTE   N06  Fs1  v072
 BYTE   W06
 BYTE   Gs1
 BYTE   W06
 BYTE   Bn0  v127
 BYTE   N06  As1  v052
 BYTE   W06
// 029   ----------------------------------------
Label_11_0143123B:
 BYTE   N06  Bn0  v127
 BYTE   N06  Gs1  v072
 BYTE   W06
 BYTE   Dn1  v044
 BYTE   N06  En1  v127
 BYTE   N06  Fs1  v072
 BYTE   W06
 BYTE   Gs1
 BYTE   W03
 BYTE   N02  Bn0  v127
 BYTE   W03
 BYTE   N06
 BYTE   N06  As1  v052
 BYTE   W06
 BYTE   Gs1  v064
 BYTE   W06
 BYTE   Dn1  v044
 BYTE   N06  En1  v127
 BYTE   N06  Fs1  v064
 BYTE   W06
 BYTE   Gs1
 BYTE   W06
 BYTE   N03  Bn0  v127
 BYTE   N06  As1  v052
 BYTE   W03
 BYTE   N03  Bn0  v127
 BYTE   W03
 BYTE   N03
 BYTE   N06  Gs1  v064
 BYTE   W06
 BYTE   Dn1  v044
 BYTE   N06  En1  v127
 BYTE   N06  Fs1  v064
 BYTE   W06
 BYTE   Dn1  v044
 BYTE   N06  En1  v127
 BYTE   N06  Gs1  v064
 BYTE   W06
 BYTE   Bn0  v127
 BYTE   N06  As1  v052
 BYTE   N24  An2  v127
 BYTE   W06
 BYTE   N02  Gs1  v072
 BYTE   W03
 BYTE   N02
 BYTE   W03
 BYTE   N06  Dn1  v044
 BYTE   N06  En1  v127
 BYTE   N06  Fs1  v072
 BYTE   W06
 BYTE   Gs1
 BYTE   W06
 BYTE   Bn0  v127
 BYTE   N06  As1  v052
 BYTE   W06
 BYTE   PEND 
 BYTE   PATT
  POIN2 Label_11_0143123B
 BYTE   PATT
  POIN2 Label_11_0143123B
// 030   ----------------------------------------
 BYTE   N06  Bn0  v127
 BYTE   N06  Gs1  v072
 BYTE   W06
 BYTE   Dn1  v044
 BYTE   N06  En1  v127
 BYTE   N06  Fs1  v072
 BYTE   W06
 BYTE   Gs1
 BYTE   W03
 BYTE   N02  Bn0  v127
 BYTE   W03
 BYTE   N06
 BYTE   N06  As1  v052
 BYTE   W06
 BYTE   Gs1  v064
 BYTE   W06
 BYTE   Dn1  v044
 BYTE   N06  En1  v127
 BYTE   N06  Fs1  v064
 BYTE   W06
 BYTE   Gs1
 BYTE   W06
 BYTE   N03  Bn0  v127
 BYTE   N06  As1  v052
 BYTE   W03
 BYTE   N03  Bn0  v127
 BYTE   W03
 BYTE   N03
 BYTE   N06  Gs1  v064
 BYTE   W06
 BYTE   Dn1  v044
 BYTE   N06  En1  v127
 BYTE   N06  Fs1  v064
 BYTE   W06
 BYTE   Dn1  v044
 BYTE   N06  En1  v127
 BYTE   N06  Gs1  v064
 BYTE   W06
 BYTE   Bn0  v127
 BYTE   N22  An2
 BYTE   W24
 BYTE   N06  Bn0
 BYTE   N22  An2
 BYTE   W06
// 031   ----------------------------------------
 BYTE   W18
 BYTE   N06  Bn0
 BYTE   N22  An2
 BYTE   W24
 BYTE   N03  Cn2
 BYTE   W03
 BYTE   An1
 BYTE   N03  Cn2
 BYTE   W03
 BYTE   An1
 BYTE   W03
 BYTE   Gn1
 BYTE   N03  An1
 BYTE   W03
 BYTE   Gn1
 BYTE   W03
 BYTE   Fn1
 BYTE   N03  Gn1
 BYTE   W03
 BYTE   Dn1  v052
 BYTE   N03  En1  v127
 BYTE   W03
 BYTE   Dn1  v052
 BYTE   N03  En1  v127
 BYTE   W03
 BYTE   N06  Bn0
 BYTE   N22  An2
 BYTE   W24
 BYTE   N06  Bn0
 BYTE   N22  An2
 BYTE   W06
// 032   ----------------------------------------
 BYTE   W18
 BYTE   N06  Bn0
 BYTE   N22  An2
 BYTE   W24
 BYTE   N03  Cn2
 BYTE   W03
 BYTE   An1
 BYTE   N03  Cn2
 BYTE   W03
 BYTE   An1
 BYTE   W03
 BYTE   Gn1
 BYTE   N03  An1
 BYTE   W03
 BYTE   Gn1
 BYTE   W03
 BYTE   Fn1
 BYTE   N03  Gn1
 BYTE   W03
 BYTE   Fs1
 BYTE   W03
 BYTE   Bn0
 BYTE   N03  Fs1
 BYTE   W03
 BYTE   N06  Dn1  v044
 BYTE   N06  En1  v127
 BYTE   N06  Gs1  v056
 BYTE   W03
 BYTE   N03  Bn0  v127
 BYTE   W03
 BYTE   Fs1
 BYTE   W03
 BYTE   Bn0
 BYTE   N03  Fs1
 BYTE   W03
 BYTE   N06  Dn1  v044
 BYTE   N06  En1  v127
 BYTE   N06  Gs1  v056
 BYTE   W03
 BYTE   N03  Bn0  v127
 BYTE   W03
 BYTE   Fs1
 BYTE   W03
 BYTE   Bn0
 BYTE   N03  Fs1
 BYTE   W03
 BYTE   N06  Dn1  v044
 BYTE   N06  En1  v127
 BYTE   N06  Gs1  v056
 BYTE   W03
 BYTE   N03  Bn0  v127
 BYTE   W03
// 033   ----------------------------------------
 BYTE   Fs1
 BYTE   W03
 BYTE   Bn0
 BYTE   N03  Fs1
 BYTE   W03
 BYTE   N06  Dn1  v044
 BYTE   N06  En1  v127
 BYTE   N06  Gs1  v056
 BYTE   W03
 BYTE   N03  Bn0  v127
 BYTE   W03
 BYTE   Fs1
 BYTE   W03
 BYTE   Bn0
 BYTE   N03  Fs1
 BYTE   W03
 BYTE   N06  Dn1  v044
 BYTE   N06  En1  v127
 BYTE   N06  Gs1  v056
 BYTE   W03
 BYTE   N03  Bn0  v127
 BYTE   W03
 BYTE   Fs1
 BYTE   W03
 BYTE   Bn0
 BYTE   N03  Fs1
 BYTE   W03
 BYTE   N06  Dn1  v044
 BYTE   N06  En1  v127
 BYTE   N06  Gs1  v056
 BYTE   W03
 BYTE   N03  Bn0  v127
 BYTE   W03
 BYTE   Fs1
 BYTE   W03
 BYTE   Bn0
 BYTE   N03  Fs1
 BYTE   W03
 BYTE   N06  Dn1  v044
 BYTE   N06  En1  v127
 BYTE   N06  Gs1  v056
 BYTE   W03
 BYTE   N03  Bn0  v127
 BYTE   W03
 BYTE   Fs1
 BYTE   W03
 BYTE   Bn0
 BYTE   N03  Fs1
 BYTE   W03
 BYTE   N06  Dn1  v044
 BYTE   N06  En1  v127
 BYTE   N06  Gs1  v056
 BYTE   W03
 BYTE   N03  Bn0  v127
 BYTE   W03
 BYTE   Fs1
 BYTE   W03
 BYTE   Bn0
 BYTE   N03  Fs1
 BYTE   W03
 BYTE   N06  Dn1  v044
 BYTE   N06  En1  v127
 BYTE   N06  Gs1  v056
 BYTE   W03
 BYTE   N03  Bn0  v127
 BYTE   W03
 BYTE   Fs1
 BYTE   W03
 BYTE   Bn0
 BYTE   N03  Fs1
 BYTE   W03
 BYTE   N06  Dn1  v044
 BYTE   N06  En1  v127
 BYTE   N06  Gs1  v056
 BYTE   W03
 BYTE   N03  Bn0  v127
 BYTE   W03
 BYTE   Fs1
 BYTE   W03
 BYTE   Bn0
 BYTE   N03  Fs1
 BYTE   W03
 BYTE   N06  Dn1  v044
 BYTE   N06  En1  v127
 BYTE   N06  Gs1  v056
 BYTE   W03
 BYTE   N03  Bn0  v127
 BYTE   W03
// 034   ----------------------------------------
 BYTE   Dn1  v040
 BYTE   N03  En1  v127
 BYTE   W03
 BYTE   Bn0
 BYTE   N03  Dn1  v040
 BYTE   N03  En1  v127
 BYTE   W03
 BYTE   Dn1  v040
 BYTE   N03  En1  v127
 BYTE   W03
 BYTE   Bn0
 BYTE   W03
 BYTE   N06
 BYTE   N06  Cn1
 BYTE   N32  An2
 BYTE   W06
 BYTE   N06  Dn1  v048
 BYTE   N06  En1  v127
 BYTE   W06
 BYTE   N03  Bn0
 BYTE   N03  Cn1
 BYTE   W03
 BYTE   Bn0
 BYTE   N03  Cn1
 BYTE   W03
 BYTE   N06  Dn1  v048
 BYTE   N06  En1  v127
 BYTE   W06
 BYTE   Bn0
 BYTE   N06  Cn1
 BYTE   W06
 BYTE   Dn1  v048
 BYTE   N06  En1  v127
 BYTE   W03
 BYTE   Bn0
 BYTE   N06  Cn1
 BYTE   W06
 BYTE   Bn0
 BYTE   N06  Cn1
 BYTE   W03
 BYTE   Dn1  v048
 BYTE   N06  En1  v127
 BYTE   W06
 BYTE   Bn0
 BYTE   N06  Cn1
 BYTE   W06
 BYTE   Dn1  v048
 BYTE   N06  En1  v127
 BYTE   W06
 BYTE   N03  Bn0
 BYTE   N03  Cn1
 BYTE   W03
 BYTE   Bn0
 BYTE   N03  Cn1
 BYTE   W03
 BYTE   N06  Dn1  v048
 BYTE   N06  En1  v127
 BYTE   W06
 BYTE   Bn0
 BYTE   N06  Cn1
 BYTE   W06
 BYTE   Dn1  v048
 BYTE   N06  En1  v127
 BYTE   W03
 BYTE   Bn0
 BYTE   N06  Cn1
 BYTE   W03
// 035   ----------------------------------------
 BYTE   W03
 BYTE   Bn0
 BYTE   N06  Cn1
 BYTE   W03
 BYTE   Dn1  v048
 BYTE   N06  En1  v127
 BYTE   W06
 BYTE   Bn0
 BYTE   N06  Cn1
 BYTE   N23  An2
 BYTE   W06
 BYTE   N06  Dn1  v048
 BYTE   N06  En1  v127
 BYTE   W06
 BYTE   N03  Bn0
 BYTE   N03  Cn1
 BYTE   W03
 BYTE   Bn0
 BYTE   N03  Cn1
 BYTE   W03
 BYTE   N06  Dn1  v048
 BYTE   N06  En1  v127
 BYTE   W06
 BYTE   Bn0
 BYTE   N06  Cn1
 BYTE   N12  An2
 BYTE   W06
 BYTE   N06  Dn1  v048
 BYTE   N06  En1  v127
 BYTE   W03
 BYTE   Bn0
 BYTE   N06  Cn1
 BYTE   W06
 BYTE   Bn0
 BYTE   N06  Cn1
 BYTE   W03
 BYTE   Dn1  v048
 BYTE   N06  En1  v127
 BYTE   W06
 BYTE   Bn0
 BYTE   N06  Cn1
 BYTE   N32  An2
 BYTE   W06
 BYTE   N06  Dn1  v048
 BYTE   N06  En1  v127
 BYTE   W06
 BYTE   N03  Bn0
 BYTE   N03  Cn1
 BYTE   W03
 BYTE   Bn0
 BYTE   N03  Cn1
 BYTE   W03
 BYTE   N06  Dn1  v048
 BYTE   N06  En1  v127
 BYTE   W06
 BYTE   Bn0
 BYTE   N06  Cn1
 BYTE   W06
 BYTE   Dn1  v048
 BYTE   N06  En1  v127
 BYTE   W03
 BYTE   Bn0
 BYTE   N06  Cn1
 BYTE   W03
// 036   ----------------------------------------
 BYTE   W03
 BYTE   Bn0
 BYTE   N06  Cn1
 BYTE   W03
 BYTE   Dn1  v048
 BYTE   N06  En1  v127
 BYTE   W06
 BYTE   Bn0
 BYTE   N06  Cn1
 BYTE   N32  An2
 BYTE   W06
 BYTE   N06  Dn1  v048
 BYTE   N06  En1  v127
 BYTE   W06
 BYTE   N03  Bn0
 BYTE   N03  Cn1
 BYTE   W03
 BYTE   Bn0
 BYTE   N03  Cn1
 BYTE   W03
 BYTE   N06  Dn1  v048
 BYTE   N06  En1  v127
 BYTE   W06
 BYTE   Bn0
 BYTE   N06  Cn1
 BYTE   W06
 BYTE   Dn1  v048
 BYTE   N06  En1  v127
 BYTE   W03
 BYTE   Bn0
 BYTE   N06  Cn1
 BYTE   W06
 BYTE   Bn0
 BYTE   N06  Cn1
 BYTE   W03
 BYTE   Dn1  v048
 BYTE   N06  En1  v127
 BYTE   W06
 BYTE   Bn0
 BYTE   N06  Cn1
 BYTE   W06
 BYTE   Dn1  v048
 BYTE   N06  En1  v127
 BYTE   W06
 BYTE   N03  Bn0
 BYTE   N03  Cn1
 BYTE   W03
 BYTE   Bn0
 BYTE   N03  Cn1
 BYTE   W03
 BYTE   N06  Dn1  v048
 BYTE   N06  En1  v127
 BYTE   W06
 BYTE   Bn0
 BYTE   N06  Cn1
 BYTE   W06
 BYTE   Dn1  v048
 BYTE   N06  En1  v127
 BYTE   W03
 BYTE   Bn0
 BYTE   N06  Cn1
 BYTE   W03
// 037   ----------------------------------------
 BYTE   W03
 BYTE   Bn0
 BYTE   N06  Cn1
 BYTE   W03
 BYTE   Dn1  v048
 BYTE   N06  En1  v127
 BYTE   W06
 BYTE   Bn0
 BYTE   N06  Cn1
 BYTE   N22  An2
 BYTE   W06
 BYTE   N06  Dn1  v048
 BYTE   N06  En1  v127
 BYTE   W06
 BYTE   N03  Bn0
 BYTE   N03  Cn1
 BYTE   W03
 BYTE   Bn0
 BYTE   N03  Cn1
 BYTE   W03
 BYTE   N06  Dn1  v048
 BYTE   N06  En1  v127
 BYTE   W06
 BYTE   Bn0
 BYTE   N06  Cn1
 BYTE   N20  An2
 BYTE   W06
 BYTE   N06  Dn1  v048
 BYTE   N06  En1  v127
 BYTE   W03
 BYTE   Bn0
 BYTE   N06  Cn1
 BYTE   W06
 BYTE   Bn0
 BYTE   N06  Cn1
 BYTE   W03
 BYTE   Dn1  v048
 BYTE   N06  En1  v127
 BYTE   W06
 BYTE   Bn0
 BYTE   N06  Cn1
 BYTE   N24  An2
 BYTE   W06
 BYTE   N06  Dn1  v048
 BYTE   N06  En1  v127
 BYTE   W06
 BYTE   N03  Bn0
 BYTE   N03  Cn1
 BYTE   W03
 BYTE   Bn0
 BYTE   N03  Cn1
 BYTE   W03
 BYTE   N06  Dn1  v048
 BYTE   N06  En1  v127
 BYTE   W06
 BYTE   Bn0
 BYTE   N06  Cn1
 BYTE   W06
 BYTE   Dn1  v048
 BYTE   N06  En1  v127
 BYTE   W03
 BYTE   Bn0
 BYTE   N06  Cn1
 BYTE   W03
// 038   ----------------------------------------
 BYTE   N03  An1
 BYTE   W03
 BYTE   N06  Bn0
 BYTE   N06  Cn1
 BYTE   N03  An1
 BYTE   W03
 BYTE   N06  Dn1  v048
 BYTE   N06  En1  v127
 BYTE   N03  Gn1
 BYTE   W03
 BYTE   N03
 BYTE   W03
 BYTE   N06  Fs1  v084
 BYTE   W06
 BYTE   Fs1  v060
 BYTE   W06
 BYTE   N06
 BYTE   W06
 BYTE   Fs1  v076
 BYTE   W06
 BYTE   Fs1  v060
 BYTE   W06
 BYTE   N06
 BYTE   W06
 BYTE   N06
 BYTE   W06
 BYTE   N06
 BYTE   W06
 BYTE   Fs1  v084
 BYTE   W06
 BYTE   Fs1  v060
 BYTE   W06
 BYTE   N06
 BYTE   W06
 BYTE   Fs1  v076
 BYTE   W06
 BYTE   Fs1  v060
 BYTE   W06
 BYTE   N06
 BYTE   W06
// 039   ----------------------------------------
 BYTE   N06
 BYTE   W06
 BYTE   N06
 BYTE   W06
 BYTE   Fs1  v084
 BYTE   W06
 BYTE   Fs1  v060
 BYTE   W06
 BYTE   N06
 BYTE   W06
 BYTE   Fs1  v076
 BYTE   W06
 BYTE   Fs1  v060
 BYTE   W06
 BYTE   N06
 BYTE   W06
 BYTE   N06
 BYTE   W06
 BYTE   N06
 BYTE   W06
 BYTE   Fs1  v084
 BYTE   W06
 BYTE   Fs1  v060
 BYTE   W06
 BYTE   N06
 BYTE   W06
 BYTE   Fs1  v076
 BYTE   W06
 BYTE   Fs1  v060
 BYTE   W06
 BYTE   N06
 BYTE   W06
// 040   ----------------------------------------
 BYTE   N06
 BYTE   W06
 BYTE   N06
 BYTE   W06
 BYTE   Bn0  v127
 BYTE   N06  Cn1
 BYTE   N24  An2
 BYTE   W12
 BYTE   N06  Dn1  v044
 BYTE   N06  En1  v127
 BYTE   W06
 BYTE   Cn2
 BYTE   W03
 BYTE   Bn1
 BYTE   W03
 BYTE   An1
 BYTE   W12
 BYTE   N03
 BYTE   W03
 BYTE   N03
 BYTE   W03
 BYTE   Gn1
 BYTE   W03
 BYTE   N03
 BYTE   W03
 BYTE   N06  An1
 BYTE   N23  An2
 BYTE   W08
 BYTE   N02  Fn1
 BYTE   W08
 BYTE   En1
 BYTE   W02
 BYTE   N04  Dn1  v052
 BYTE   W06
 BYTE   N02  An1  v127
 BYTE   N20  An2
 BYTE   W08
 BYTE   N02  Gn1
 BYTE   W04
// 041   ----------------------------------------
 BYTE   W04
 BYTE   Fn1
 BYTE   W08
 BYTE   N06  Bn0
 BYTE   N06  Cn1
 BYTE   N21  An2
 BYTE   W24
 BYTE   N06  Bn0
 BYTE   N06  Cn1
 BYTE   N23  An2
 BYTE   W24
 BYTE   N03  Dn1  v056
 BYTE   N03  En1  v127
 BYTE   W03
 BYTE   Dn1  v056
 BYTE   N03  En1  v127
 BYTE   W03
 BYTE   Dn1  v056
 BYTE   N03  En1  v127
 BYTE   W03
 BYTE   Dn1  v056
 BYTE   N03  En1  v127
 BYTE   W03
 BYTE   Dn1  v036
 BYTE   N03  Cn2  v127
 BYTE   W03
 BYTE   Dn1  v036
 BYTE   N03  Cn2  v127
 BYTE   W03
 BYTE   Dn1  v036
 BYTE   N03  Bn1  v127
 BYTE   W03
 BYTE   Dn1  v036
 BYTE   N03  Bn1  v127
 BYTE   W03
 BYTE   Dn1  v036
 BYTE   N03  An1  v127
 BYTE   W03
 BYTE   Dn1  v036
 BYTE   N03  An1  v127
 BYTE   W03
 BYTE   Dn1  v036
 BYTE   N03  Gn1  v127
 BYTE   W03
 BYTE   Dn1  v036
 BYTE   N03  Gn1  v127
 BYTE   W03
// 042   ----------------------------------------
 BYTE   Dn1  v036
 BYTE   N03  Fn1  v127
 BYTE   W03
 BYTE   Dn1  v036
 BYTE   N03  Fn1  v127
 BYTE   W03
 BYTE   Dn1  v036
 BYTE   N03  Fn1  v127
 BYTE   W03
 BYTE   Dn1  v036
 BYTE   N03  Fn1  v127
 BYTE   W03
 BYTE   N06  Dn1  v036
 BYTE   N06  En1  v127
 BYTE   N24  An2
 BYTE   W06
 BYTE   N03  Bn0
 BYTE   N03  Cn1
 BYTE   W03
 BYTE   Bn0
 BYTE   N03  Cn1
 BYTE   W03
 BYTE   N06  Dn1  v036
 BYTE   N06  En1  v127
 BYTE   W03
 BYTE   N03  Bn0
 BYTE   N03  Cn1
 BYTE   W06
 BYTE   Bn0
 BYTE   N03  Cn1
 BYTE   W03
 BYTE   N06  Dn1  v036
 BYTE   N06  En1  v127
 BYTE   W06
 BYTE   Bn0
 BYTE   N06  Cn1
 BYTE   W06
 BYTE   Dn1  v036
 BYTE   N06  En1  v127
 BYTE   W06
 BYTE   Bn0
 BYTE   N06  Cn1
 BYTE   W06
 BYTE   Dn1  v036
 BYTE   N06  En1  v127
 BYTE   N24  An2
 BYTE   W06
 BYTE   N03  Bn0
 BYTE   N03  Cn1
 BYTE   W03
 BYTE   Bn0
 BYTE   N03  Cn1
 BYTE   W03
 BYTE   N06  Dn1  v036
 BYTE   N06  En1  v127
 BYTE   W03
 BYTE   N03  Bn0
 BYTE   N03  Cn1
 BYTE   W06
 BYTE   Bn0
 BYTE   N03  Cn1
 BYTE   W03
 BYTE   N06  Dn1  v036
 BYTE   N06  En1  v127
 BYTE   W06
 BYTE   Bn0
 BYTE   N06  Cn1
 BYTE   W06
// 043   ----------------------------------------
 BYTE   Dn1  v036
 BYTE   N06  En1  v127
 BYTE   W06
 BYTE   Bn0
 BYTE   N06  Cn1
 BYTE   W06
 BYTE   Dn1  v036
 BYTE   N06  En1  v127
 BYTE   N24  An2
 BYTE   W06
 BYTE   N03  Bn0
 BYTE   N03  Cn1
 BYTE   W03
 BYTE   Bn0
 BYTE   N03  Cn1
 BYTE   W03
 BYTE   N06  Dn1  v036
 BYTE   N06  En1  v127
 BYTE   W03
 BYTE   N03  Bn0
 BYTE   N03  Cn1
 BYTE   W06
 BYTE   Bn0
 BYTE   N03  Cn1
 BYTE   W03
 BYTE   N06  Dn1  v036
 BYTE   N06  En1  v127
 BYTE   W06
 BYTE   Bn0
 BYTE   N06  Cn1
 BYTE   W06
 BYTE   Dn1  v036
 BYTE   N06  En1  v127
 BYTE   W06
 BYTE   Bn0
 BYTE   N06  Cn1
 BYTE   W06
 BYTE   Dn1  v036
 BYTE   N06  En1  v127
 BYTE   N24  An2
 BYTE   W06
 BYTE   N03  Bn0
 BYTE   N03  Cn1
 BYTE   W03
 BYTE   Bn0
 BYTE   N03  Cn1
 BYTE   W03
 BYTE   N06  Dn1  v036
 BYTE   N06  En1  v127
 BYTE   W03
 BYTE   N03  Bn0
 BYTE   N03  Cn1
 BYTE   W06
 BYTE   Bn0
 BYTE   N03  Cn1
 BYTE   W03
 BYTE   N06  Dn1  v036
 BYTE   N06  En1  v127
 BYTE   W06
 BYTE   Bn0
 BYTE   N06  Cn1
 BYTE   W06
// 044   ----------------------------------------
 BYTE   Dn1  v036
 BYTE   N06  En1  v127
 BYTE   W06
 BYTE   Bn0
 BYTE   N06  Cn1
 BYTE   W06
 BYTE   N03  Bn0
 BYTE   N03  Cn1
 BYTE   N03  Gs1  v056
 BYTE   W03
 BYTE   Bn0  v127
 BYTE   N03  Cn1
 BYTE   W03
 BYTE   Bn0
 BYTE   N03  Cn1
 BYTE   W03
 BYTE   Bn0
 BYTE   N03  Cn1
 BYTE   W03
 BYTE   Bn0
 BYTE   N03  Cn1
 BYTE   W03
 BYTE   Bn0
 BYTE   N03  Cn1
 BYTE   W03
 BYTE   Bn0
 BYTE   N03  Cn1
 BYTE   W03
 BYTE   Bn0
 BYTE   N03  Cn1
 BYTE   W03
 BYTE   Bn0
 BYTE   N03  Cn1
 BYTE   W03
 BYTE   Bn0
 BYTE   N03  Cn1
 BYTE   W03
 BYTE   Bn0
 BYTE   N03  Cn1
 BYTE   N06  Dn1  v048
 BYTE   N06  En1  v127
 BYTE   N05  An2
 BYTE   W03
 BYTE   N03  Bn0
 BYTE   N03  Cn1
 BYTE   W03
 BYTE   Bn0
 BYTE   N03  Cn1
 BYTE   N03  Gs1  v056
 BYTE   W03
 BYTE   Bn0  v127
 BYTE   N03  Cn1
 BYTE   W03
 BYTE   Bn0
 BYTE   N03  Cn1
 BYTE   W03
 BYTE   Bn0
 BYTE   N03  Cn1
 BYTE   W03
 BYTE   Bn0
 BYTE   N03  Cn1
 BYTE   W03
 BYTE   Bn0
 BYTE   N03  Cn1
 BYTE   W03
 BYTE   Bn0
 BYTE   N03  Cn1
 BYTE   W03
 BYTE   Bn0
 BYTE   N03  Cn1
 BYTE   W03
 BYTE   Bn0
 BYTE   N03  Cn1
 BYTE   W03
 BYTE   Bn0
 BYTE   N03  Cn1
 BYTE   W03
 BYTE   Bn0
 BYTE   N03  Cn1
 BYTE   N06  Dn1  v048
 BYTE   N06  En1  v127
 BYTE   N05  An2
 BYTE   W03
 BYTE   N03  Bn0
 BYTE   N03  Cn1
 BYTE   W03
 BYTE   Bn0
 BYTE   N03  Cn1
 BYTE   N03  Gs1  v056
 BYTE   W03
 BYTE   Bn0  v127
 BYTE   N03  Cn1
 BYTE   W03
 BYTE   Bn0
 BYTE   N03  Cn1
 BYTE   W03
 BYTE   Bn0
 BYTE   N03  Cn1
 BYTE   W03
// 045   ----------------------------------------
 BYTE   Bn0
 BYTE   N03  Cn1
 BYTE   W03
 BYTE   Bn0
 BYTE   N03  Cn1
 BYTE   W03
 BYTE   Bn0
 BYTE   N03  Cn1
 BYTE   W03
 BYTE   Bn0
 BYTE   N03  Cn1
 BYTE   W03
 BYTE   Bn0
 BYTE   N03  Cn1
 BYTE   W03
 BYTE   Bn0
 BYTE   N03  Cn1
 BYTE   W03
 BYTE   Bn0
 BYTE   N03  Cn1
 BYTE   N06  Dn1  v048
 BYTE   N06  En1  v127
 BYTE   N05  An2
 BYTE   W03
 BYTE   N03  Bn0
 BYTE   N03  Cn1
 BYTE   W03
 BYTE   Bn0
 BYTE   N03  Cn1
 BYTE   N03  Gs1  v056
 BYTE   W03
 BYTE   Bn0  v127
 BYTE   N03  Cn1
 BYTE   W03
 BYTE   Bn0
 BYTE   N03  Cn1
 BYTE   W03
 BYTE   Bn0
 BYTE   N03  Cn1
 BYTE   W03
 BYTE   Bn0
 BYTE   N03  Cn1
 BYTE   W03
 BYTE   Bn0
 BYTE   N03  Cn1
 BYTE   W03
 BYTE   Bn0
 BYTE   N03  Cn1
 BYTE   W03
 BYTE   Bn0
 BYTE   N03  Cn1
 BYTE   W03
 BYTE   Bn0
 BYTE   N03  Cn1
 BYTE   W03
 BYTE   Bn0
 BYTE   N03  Cn1
 BYTE   W03
 BYTE   Bn0
 BYTE   N03  Cn1
 BYTE   N06  Dn1  v048
 BYTE   N06  En1  v127
 BYTE   N05  An2
 BYTE   W03
 BYTE   N03  Bn0
 BYTE   N03  Cn1
 BYTE   W03
 BYTE   Bn0
 BYTE   N03  Cn1
 BYTE   N03  Gs1  v056
 BYTE   W03
 BYTE   Bn0  v127
 BYTE   N03  Cn1
 BYTE   W03
 BYTE   Bn0
 BYTE   N03  Cn1
 BYTE   W03
 BYTE   Bn0
 BYTE   N03  Cn1
 BYTE   W03
 BYTE   Bn0
 BYTE   N03  Cn1
 BYTE   W03
 BYTE   Bn0
 BYTE   N03  Cn1
 BYTE   W03
 BYTE   Bn0
 BYTE   N03  Cn1
 BYTE   W03
 BYTE   Bn0
 BYTE   N03  Cn1
 BYTE   W03
 BYTE   Bn0
 BYTE   N03  Cn1
 BYTE   W03
 BYTE   Bn0
 BYTE   N03  Cn1
 BYTE   W03
 BYTE   Bn0
 BYTE   N03  Cn1
 BYTE   N06  Dn1  v048
 BYTE   N06  En1  v127
 BYTE   N05  An2
 BYTE   W03
 BYTE   N03  Bn0
 BYTE   N03  Cn1
 BYTE   W03
// 046   ----------------------------------------
 BYTE   Bn0
 BYTE   N03  Cn1
 BYTE   N03  Gs1  v056
 BYTE   W03
 BYTE   Bn0  v127
 BYTE   N03  Cn1
 BYTE   W03
 BYTE   Bn0
 BYTE   N03  Cn1
 BYTE   W03
 BYTE   Bn0
 BYTE   N03  Cn1
 BYTE   W03
 BYTE   Bn0
 BYTE   N03  Cn1
 BYTE   W03
 BYTE   Bn0
 BYTE   N03  Cn1
 BYTE   W03
 BYTE   Bn0
 BYTE   N03  Cn1
 BYTE   W03
 BYTE   Bn0
 BYTE   N03  Cn1
 BYTE   W03
 BYTE   Bn0
 BYTE   N03  Cn1
 BYTE   W03
 BYTE   Bn0
 BYTE   N03  Cn1
 BYTE   W03
 BYTE   Bn0
 BYTE   N03  Cn1
 BYTE   N06  Dn1  v048
 BYTE   N06  En1  v127
 BYTE   N05  An2
 BYTE   W03
 BYTE   N03  Bn0
 BYTE   N03  Cn1
 BYTE   W03
 BYTE   Bn0
 BYTE   N03  Cn1
 BYTE   N03  Gs1  v056
 BYTE   W03
 BYTE   Bn0  v127
 BYTE   N03  Cn1
 BYTE   W03
 BYTE   Bn0
 BYTE   N03  Cn1
 BYTE   W03
 BYTE   Bn0
 BYTE   N03  Cn1
 BYTE   W03
 BYTE   Bn0
 BYTE   N03  Cn1
 BYTE   W03
 BYTE   Bn0
 BYTE   N03  Cn1
 BYTE   W03
 BYTE   Bn0
 BYTE   N03  Cn1
 BYTE   W03
 BYTE   Bn0
 BYTE   N03  Cn1
 BYTE   W03
 BYTE   Bn0
 BYTE   N03  Cn1
 BYTE   W03
 BYTE   Bn0
 BYTE   N03  Cn1
 BYTE   W03
 BYTE   Bn0
 BYTE   N03  Cn1
 BYTE   N06  Dn1  v048
 BYTE   N06  En1  v127
 BYTE   N05  An2
 BYTE   W03
 BYTE   N03  Bn0
 BYTE   N03  Cn1
 BYTE   W03
 BYTE   Bn0
 BYTE   N03  Cn1
 BYTE   N03  Gs1  v056
 BYTE   W03
 BYTE   Bn0  v127
 BYTE   N03  Cn1
 BYTE   W03
 BYTE   Bn0
 BYTE   N03  Cn1
 BYTE   W03
 BYTE   Bn0
 BYTE   N03  Cn1
 BYTE   W03
 BYTE   Bn0
 BYTE   N03  Cn1
 BYTE   W03
 BYTE   Bn0
 BYTE   N03  Cn1
 BYTE   W03
 BYTE   Bn0
 BYTE   N03  Cn1
 BYTE   W03
 BYTE   Bn0
 BYTE   N03  Cn1
 BYTE   W03
// 047   ----------------------------------------
 BYTE   Bn0
 BYTE   N03  Cn1
 BYTE   W03
 BYTE   Bn0
 BYTE   N03  Cn1
 BYTE   W03
 BYTE   Bn0
 BYTE   N03  Cn1
 BYTE   N06  Dn1  v048
 BYTE   N06  En1  v127
 BYTE   N05  An2
 BYTE   W03
 BYTE   N03  Bn0
 BYTE   N03  Cn1
 BYTE   W03
 BYTE   N06  Bn0
 BYTE   N06  Cn1
 BYTE   N32  An2
 BYTE   W06
 BYTE   N06  Dn1  v048
 BYTE   N06  En1  v127
 BYTE   W06
 BYTE   N03  Bn0
 BYTE   N03  Cn1
 BYTE   W03
 BYTE   Bn0
 BYTE   N03  Cn1
 BYTE   W03
 BYTE   N06  Dn1  v048
 BYTE   N06  En1  v127
 BYTE   W06
 BYTE   Bn0
 BYTE   N06  Cn1
 BYTE   W06
 BYTE   Dn1  v048
 BYTE   N06  En1  v127
 BYTE   W03
 BYTE   N02  Bn0
 BYTE   N03  Cn1
 BYTE   W03
 BYTE   N06  Bn0
 BYTE   W03
 BYTE   N03  Dn1  v048
 BYTE   N03  En1  v127
 BYTE   W03
 BYTE   N06  Bn0
 BYTE   N06  Cn1
 BYTE   N32  An2
 BYTE   W06
 BYTE   N06  Dn1  v048
 BYTE   N06  En1  v127
 BYTE   W06
 BYTE   N03  Bn0
 BYTE   N03  Cn1
 BYTE   W03
 BYTE   Bn0
 BYTE   N03  Cn1
 BYTE   W03
 BYTE   N06  Dn1  v048
 BYTE   N06  En1  v127
 BYTE   W06
 BYTE   Bn0
 BYTE   N06  Cn1
 BYTE   W06
 BYTE   Dn1  v048
 BYTE   N06  En1  v127
 BYTE   W03
 BYTE   N02  Bn0
 BYTE   N03  Cn1
 BYTE   W03
 BYTE   N06  Bn0
 BYTE   W03
 BYTE   N03  Dn1  v048
 BYTE   N03  En1  v127
 BYTE   W03
// 048   ----------------------------------------
 BYTE   N06  Bn0
 BYTE   N06  Cn1
 BYTE   N32  An2
 BYTE   W06
 BYTE   N06  Dn1  v048
 BYTE   N06  En1  v127
 BYTE   W06
 BYTE   N03  Bn0
 BYTE   N03  Cn1
 BYTE   W03
 BYTE   Bn0
 BYTE   N03  Cn1
 BYTE   W03
 BYTE   N06  Dn1  v048
 BYTE   N06  En1  v127
 BYTE   W06
 BYTE   Bn0
 BYTE   N06  Cn1
 BYTE   W06
 BYTE   Dn1  v048
 BYTE   N06  En1  v127
 BYTE   W03
 BYTE   N02  Bn0
 BYTE   N03  Cn1
 BYTE   W03
 BYTE   N06  Bn0
 BYTE   W03
 BYTE   N03  Dn1  v048
 BYTE   N03  En1  v127
 BYTE   W03
 BYTE   N06  Bn0
 BYTE   N06  Cn1
 BYTE   N32  An2
 BYTE   W06
 BYTE   N06  Dn1  v048
 BYTE   N06  En1  v127
 BYTE   W06
 BYTE   N03  Bn0
 BYTE   N03  Cn1
 BYTE   W03
 BYTE   Bn0
 BYTE   N03  Cn1
 BYTE   W03
 BYTE   N06  Dn1  v048
 BYTE   N06  En1  v127
 BYTE   W06
 BYTE   Bn0
 BYTE   N06  Cn1
 BYTE   W06
 BYTE   Dn1  v048
 BYTE   N06  En1  v127
 BYTE   W03
 BYTE   N02  Bn0
 BYTE   N03  Cn1
 BYTE   W03
 BYTE   N06  Bn0
 BYTE   W03
 BYTE   N03  Dn1  v048
 BYTE   N03  En1  v127
 BYTE   W03
 BYTE   N06  Bn0
 BYTE   N06  Cn1
 BYTE   N32  An2
 BYTE   W06
 BYTE   N06  Dn1  v048
 BYTE   N06  En1  v127
 BYTE   W06
// 049   ----------------------------------------
 BYTE   N03  Bn0
 BYTE   N03  Cn1
 BYTE   W03
 BYTE   Bn0
 BYTE   N03  Cn1
 BYTE   W03
 BYTE   N06  Dn1  v048
 BYTE   N06  En1  v127
 BYTE   W06
 BYTE   Bn0
 BYTE   N06  Cn1
 BYTE   W06
 BYTE   Dn1  v048
 BYTE   N06  En1  v127
 BYTE   W03
 BYTE   N02  Bn0
 BYTE   N03  Cn1
 BYTE   W03
 BYTE   N06  Bn0
 BYTE   W03
 BYTE   N03  Dn1  v048
 BYTE   N03  En1  v127
 BYTE   W03
 BYTE   N06  Bn0
 BYTE   N06  Cn1
 BYTE   N32  An2
 BYTE   W06
 BYTE   N06  Dn1  v048
 BYTE   N06  En1  v127
 BYTE   W06
 BYTE   N03  Bn0
 BYTE   N03  Cn1
 BYTE   W03
 BYTE   Bn0
 BYTE   N03  Cn1
 BYTE   W03
 BYTE   N06  Dn1  v048
 BYTE   N06  En1  v127
 BYTE   W06
 BYTE   Bn0
 BYTE   N06  Cn1
 BYTE   W06
 BYTE   Dn1  v048
 BYTE   N06  En1  v127
 BYTE   W03
 BYTE   N02  Bn0
 BYTE   N03  Cn1
 BYTE   W03
 BYTE   N06  Bn0
 BYTE   W03
 BYTE   N03  Dn1  v048
 BYTE   N03  En1  v127
 BYTE   W03
 BYTE   N06  Bn0
 BYTE   N06  Cn1
 BYTE   N32  An2
 BYTE   W06
 BYTE   N06  Dn1  v048
 BYTE   N06  En1  v127
 BYTE   W06
 BYTE   N03  Bn0
 BYTE   N03  Cn1
 BYTE   W03
 BYTE   Bn0
 BYTE   N03  Cn1
 BYTE   W03
 BYTE   N06  Dn1  v048
 BYTE   N06  En1  v127
 BYTE   W06
// 050   ----------------------------------------
 BYTE   Bn0
 BYTE   N06  Cn1
 BYTE   W06
 BYTE   Dn1  v048
 BYTE   N06  En1  v127
 BYTE   W03
 BYTE   N02  Bn0
 BYTE   N03  Cn1
 BYTE   W03
 BYTE   N06  Bn0
 BYTE   W03
 BYTE   N03  Dn1  v048
 BYTE   N03  En1  v127
 BYTE   W03
 BYTE   N06  Bn0
 BYTE   N06  Cn1
 BYTE   N32  An2
 BYTE   W06
 BYTE   N06  Dn1  v048
 BYTE   N06  En1  v127
 BYTE   W06
 BYTE   N03  Bn0
 BYTE   N03  Cn1
 BYTE   W03
 BYTE   Bn0
 BYTE   N03  Cn1
 BYTE   W03
 BYTE   N06  Dn1  v048
 BYTE   N06  En1  v127
 BYTE   W06
 BYTE   Bn0
 BYTE   N06  Cn1
 BYTE   W06
 BYTE   Dn1  v048
 BYTE   N06  En1  v127
 BYTE   W03
 BYTE   N02  Bn0
 BYTE   N03  Cn1
 BYTE   W03
 BYTE   N06  Bn0
 BYTE   W03
 BYTE   N03  Dn1  v048
 BYTE   N03  En1  v127
 BYTE   W03
 BYTE   GoTo
  POIN2 Label_11_0143067A
 BYTE   FINE

//******************************************************//
	ALIGN 4

GoldenSunFusionDragonBattleMrGreen3339:
	BYTE	12	// NumTrks
	BYTE	0	// NumBlks
	BYTE	GoldenSunFusionDragonBattleMrGreen3339_pri	// Priority
	BYTE	GoldenSunFusionDragonBattleMrGreen3339_rev	// Reverb.
    
	POIN2	GoldenSunFusionDragonBattleMrGreen3339_grp
    
	POIN2	GoldenSunFusionDragonBattleMrGreen3339_001
	POIN2	GoldenSunFusionDragonBattleMrGreen3339_002
	POIN2	GoldenSunFusionDragonBattleMrGreen3339_003
	POIN2	GoldenSunFusionDragonBattleMrGreen3339_004
	POIN2	GoldenSunFusionDragonBattleMrGreen3339_005
	POIN2	GoldenSunFusionDragonBattleMrGreen3339_006
	POIN2	GoldenSunFusionDragonBattleMrGreen3339_007
	POIN2	GoldenSunFusionDragonBattleMrGreen3339_008
	POIN2	GoldenSunFusionDragonBattleMrGreen3339_009
	POIN2	GoldenSunFusionDragonBattleMrGreen3339_010
	POIN2	GoldenSunFusionDragonBattleMrGreen3339_011
	POIN2	GoldenSunFusionDragonBattleMrGreen3339_012

	
