//Event file generated from Sappy .s format.
	#include "MPlayDef.event"

	#define	YggdraUnionGulcasaThemeShinKuma_grp  voicegroup000
	#define	YggdraUnionGulcasaThemeShinKuma_pri  10
	#define	YggdraUnionGulcasaThemeShinKuma_rev  128
	#define	YggdraUnionGulcasaThemeShinKuma_mvl  127
	#define	YggdraUnionGulcasaThemeShinKuma_key  0
	#define	YggdraUnionGulcasaThemeShinKuma_tbs  1
	#define	YggdraUnionGulcasaThemeShinKuma_exg  0
	#define	YggdraUnionGulcasaThemeShinKuma_cmp  1

	// .rodata
	//	YggdraUnionGulcasaThemeShinKuma
	ALIGN 4


//**************** Track 1 (Midi-Chn.0) ****************//

YggdraUnionGulcasaThemeShinKuma_001:
// 000   ----------------------------------------
 BYTE   KEYSH   YggdraUnionGulcasaThemeShinKuma_key+0
 BYTE   TEMPO   166*YggdraUnionGulcasaThemeShinKuma_tbs/2
 BYTE   VOICE   7
 BYTE   VOL   23*YggdraUnionGulcasaThemeShinKuma_mvl/mxv
 BYTE   AsM2
 BYTE   W12
 BYTE   TIE  Dn4  v127
 BYTE   W12
 BYTE   VOL   25*YggdraUnionGulcasaThemeShinKuma_mvl/mxv
 BYTE   W12
 BYTE   Cs0
 BYTE   W12
 BYTE   Dn0
 BYTE   W12
 BYTE   Ds0
 BYTE   TIE  Gn4
 BYTE   W12
 BYTE   VOL   27*YggdraUnionGulcasaThemeShinKuma_mvl/mxv
 BYTE   W12
 BYTE   En0
 BYTE   W12
// 001   ----------------------------------------
 BYTE   Fn0
 BYTE   W12
 BYTE   Fs0
 BYTE   TIE  Dn5
 BYTE   W12
 BYTE   VOL   30*YggdraUnionGulcasaThemeShinKuma_mvl/mxv
 BYTE   W12
 BYTE   Gn0
 BYTE   W12
 BYTE   Gs0
 BYTE   W12
 BYTE   EOT
 BYTE   Dn4
 BYTE   VOL   33*YggdraUnionGulcasaThemeShinKuma_mvl/mxv
 BYTE   TIE  Gn5
 BYTE   W12
 BYTE   VOL   34*YggdraUnionGulcasaThemeShinKuma_mvl/mxv
 BYTE   W12
 BYTE   As0
 BYTE   W12
// 002   ----------------------------------------
 BYTE   Bn0
 BYTE   W12
 BYTE   Bn0
 BYTE   W12
 BYTE   Cs1
 BYTE   W12
 BYTE   Cs1
 BYTE   W03
 BYTE   Ds1
 BYTE   W03
 BYTE   En1
 BYTE   W03
 BYTE   Fs1
 BYTE   W03
 BYTE   Gn1
 BYTE   W03
 BYTE   Gs1
 BYTE   W03
 BYTE   As1
 BYTE   W03
 BYTE   Bn1
 BYTE   W03
 BYTE   Cs2
 BYTE   W03
 BYTE   Ds2
 BYTE   W03
 BYTE   En2
 BYTE   W03
 BYTE   Fs2
 BYTE   W03
 BYTE   Gn2
 BYTE   W06
 BYTE   EOT
 BYTE   Gn4  v086
 BYTE   Gn5
 BYTE   W06
Label_0_011EBA61:
 BYTE   VOICE   7
 BYTE   VOL   72*YggdraUnionGulcasaThemeShinKuma_mvl/mxv
 BYTE   N72  An3  v088
 BYTE   N72  Dn4  v127
 BYTE   W72
// 003   ----------------------------------------
 BYTE   N24  An3  v088
 BYTE   N24  En4  v127
 BYTE   W24
 BYTE   N48  Dn4  v088
 BYTE   N48  Fn4  v127
 BYTE   W48
 BYTE   Fn4  v088
 BYTE   N48  As4  v127
 BYTE   W48
// 004   ----------------------------------------
 BYTE   N36  Dn4  v088
 BYTE   N36  Gs4  v127
 BYTE   W36
 BYTE   TIE  Dn4  v088
 BYTE   TIE  An4  v127
 BYTE   W60
// 005   ----------------------------------------
 BYTE   W72
 BYTE   EOT
 BYTE   Dn4  v081
 BYTE   W24
// 006   ----------------------------------------
 BYTE   N36  An3  v088
 BYTE   N36  En4  v127
 BYTE   W36
 BYTE   Dn4  v088
 BYTE   N36  Fn4  v127
 BYTE   W36
 BYTE   N24  Dn3  v088
 BYTE   N24  An3  v127
 BYTE   W24
// 007   ----------------------------------------
 BYTE   N48  Dn4  v088
 BYTE   N48  Gn4  v127
 BYTE   W48
 BYTE   Fn4  v088
 BYTE   N48  As4  v127
 BYTE   W48
// 008   ----------------------------------------
 BYTE   N36  Fn4  v088
 BYTE   N36  An4  v127
 BYTE   W36
 BYTE   N60  Dn4  v088
 BYTE   N60  Fn4  v127
 BYTE   W60
// 009   ----------------------------------------
 BYTE   N36  En4  v088
 BYTE   N36  Gn4  v127
 BYTE   W36
 BYTE   Cn4  v088
 BYTE   N36  En4  v127
 BYTE   W36
 BYTE   N24  Gn3  v088
 BYTE   N24  Cn4  v127
 BYTE   W24
// 010   ----------------------------------------
 BYTE   N36  An3  v088
 BYTE   N36  Dn4  v127
 BYTE   W36
 BYTE   N06  Cn4  v088
 BYTE   N06  Fn4  v127
 BYTE   W06
 BYTE   An3  v088
 BYTE   N06  En4  v127
 BYTE   W06
 BYTE   N36  Dn4  v088
 BYTE   N36  Fn4  v127
 BYTE   W36
 BYTE   N06  Gn4  v088
 BYTE   N06  As4  v127
 BYTE   W06
 BYTE   Fn4  v088
 BYTE   N06  An4  v127
 BYTE   W06
// 011   ----------------------------------------
 BYTE   N48  Fn4  v088
 BYTE   N48  As4  v127
 BYTE   W48
 BYTE   N24  An4  v088
 BYTE   N24  Dn5  v127
 BYTE   W24
 BYTE   An4  v088
 BYTE   N24  En5  v127
 BYTE   W24
// 012   ----------------------------------------
 BYTE   N48  An4  v088
 BYTE   N48  Dn5  v127
 BYTE   W48
 BYTE   An4  v088
 BYTE   N48  Cs5  v127
 BYTE   W48
// 013   ----------------------------------------
 BYTE   An3  v088
 BYTE   N48  En4  v127
 BYTE   W48
 BYTE   En4  v088
 BYTE   N48  An4  v127
 BYTE   W48
// 014   ----------------------------------------
 BYTE   N18  Gn4  v088
 BYTE   N18  As4  v127
 BYTE   W18
 BYTE   Dn4  v088
 BYTE   N18  Gn4  v127
 BYTE   W18
 BYTE   N60  As3  v088
 BYTE   N60  Dn4  v127
 BYTE   W60
// 015   ----------------------------------------
 BYTE   N18  Gn4  v088
 BYTE   N18  As4  v127
 BYTE   W18
 BYTE   An4  v088
 BYTE   N18  Cn5  v127
 BYTE   W18
 BYTE   N12  As4  v088
 BYTE   N12  Dn5  v127
 BYTE   W12
 BYTE   N18  As4  v088
 BYTE   N18  Dn5  v127
 BYTE   W18
 BYTE   Cn5  v088
 BYTE   N18  En5  v127
 BYTE   W18
 BYTE   N12  As4  v088
 BYTE   N12  Dn5  v127
 BYTE   W12
// 016   ----------------------------------------
 BYTE   N96  An4  v088
 BYTE   N96  Dn5  v127
 BYTE   W96
// 017   ----------------------------------------
 BYTE   En4  v088
 BYTE   N96  Cs5  v127
 BYTE   W96
// 018   ----------------------------------------
Label_0_011EBB74:
 BYTE   VOICE   8
 BYTE   VOL   56*YggdraUnionGulcasaThemeShinKuma_mvl/mxv
 BYTE   N24  Dn3  v100
 BYTE   W24
 BYTE   VOICE   12
 BYTE   VOL   47*YggdraUnionGulcasaThemeShinKuma_mvl/mxv
 BYTE   N12  Dn4  v088
 BYTE   N12  An4  v127
 BYTE   W12
 BYTE   An3  v088
 BYTE   N12  Fn4  v127
 BYTE   W12
 BYTE   Fn3  v088
 BYTE   N12  Dn4  v127
 BYTE   W12
 BYTE   Fn4  v088
 BYTE   N12  Cn5  v127
 BYTE   W12
 BYTE   N06  Dn3  v100
 BYTE   N06  An3
 BYTE   W06
 BYTE   Dn3
 BYTE   N06  An3
 BYTE   W06
 BYTE   N12  En4  v088
 BYTE   N12  Bn4  v127
 BYTE   W12
 BYTE   PEND 
// 019   ----------------------------------------
 BYTE   Bn3  v088
 BYTE   N12  Gs4  v127
 BYTE   W12
 BYTE   Gs3  v088
 BYTE   N12  En4  v127
 BYTE   W12
 BYTE   En3  v088
 BYTE   N12  Bn3  v127
 BYTE   W12
 BYTE   Ds4  v088
 BYTE   N12  As4  v127
 BYTE   W12
 BYTE   N06  Dn3  v100
 BYTE   N06  An3
 BYTE   W06
 BYTE   Dn3
 BYTE   N06  An3
 BYTE   W06
 BYTE   N12  As3  v088
 BYTE   N12  Gn4  v127
 BYTE   W12
 BYTE   Gn3  v088
 BYTE   N12  Ds4  v127
 BYTE   W12
 BYTE   Ds3  v088
 BYTE   N12  As3  v127
 BYTE   W12
 BYTE   PATT
  POIN2 Label_0_011EBB74
// 020   ----------------------------------------
 BYTE   N12  Bn3  v088
 BYTE   N12  Gs4  v127
 BYTE   W12
 BYTE   Gs3  v088
 BYTE   N12  En4  v127
 BYTE   W12
 BYTE   En3  v088
 BYTE   N12  Bn3  v127
 BYTE   W12
 BYTE   Ds4  v088
 BYTE   N12  As4  v127
 BYTE   W12
 BYTE   N06  Dn3  v100
 BYTE   N06  An3
 BYTE   W06
 BYTE   Dn3
 BYTE   N06  An3
 BYTE   W06
 BYTE   N12  As3  v088
 BYTE   N12  Gn4  v127
 BYTE   W12
 BYTE   Ds4  v088
 BYTE   N12  As4  v127
 BYTE   W12
 BYTE   Gn4  v088
 BYTE   N12  Ds5  v127
 BYTE   W12
// 021   ----------------------------------------
 BYTE   VOICE   12
 BYTE   VOL   47*YggdraUnionGulcasaThemeShinKuma_mvl/mxv
 BYTE   N12  Cn3  v100
 BYTE   W12
 BYTE   En3
 BYTE   W12
 BYTE   Fn3
 BYTE   W12
 BYTE   En3
 BYTE   W12
 BYTE   Cn4
 BYTE   W12
 BYTE   En3
 BYTE   W12
 BYTE   Fn3
 BYTE   W12
 BYTE   Dn3
 BYTE   W12
// 022   ----------------------------------------
 BYTE   Cn3
 BYTE   W12
 BYTE   En3
 BYTE   W12
 BYTE   Fn3
 BYTE   W12
 BYTE   En3
 BYTE   W12
 BYTE   Cn4
 BYTE   W12
 BYTE   En3
 BYTE   W12
 BYTE   Fn3
 BYTE   W12
 BYTE   Dn3
 BYTE   W12
// 023   ----------------------------------------
 BYTE   GoTo
  POIN2 Label_0_011EBA61
 BYTE   FINE

//**************** Track 2 (Midi-Chn.1) ****************//

YggdraUnionGulcasaThemeShinKuma_002:
// 000   ----------------------------------------
 BYTE   KEYSH   YggdraUnionGulcasaThemeShinKuma_key+0
 BYTE   VOICE   8
 BYTE   VOL   56*YggdraUnionGulcasaThemeShinKuma_mvl/mxv
 BYTE   FsM2
 BYTE   W12
 BYTE   N24  Gn4  v096
 BYTE   W24
 BYTE   VOICE   12
 BYTE   VOL   47*YggdraUnionGulcasaThemeShinKuma_mvl/mxv
 BYTE   N12  Gn3
 BYTE   W12
 BYTE   Gn2
 BYTE   W12
 BYTE   N12
 BYTE   W12
 BYTE   Gs3
 BYTE   W12
 BYTE   Gn2
 BYTE   W12
// 001   ----------------------------------------
 BYTE   N12
 BYTE   W12
 BYTE   As3
 BYTE   W12
 BYTE   Gn2
 BYTE   W12
 BYTE   N12
 BYTE   W12
 BYTE   Fn3
 BYTE   W12
 BYTE   Gn2
 BYTE   W12
 BYTE   N12
 BYTE   W12
 BYTE   As3
 BYTE   W12
// 002   ----------------------------------------
 BYTE   Gs3
 BYTE   W12
 BYTE   W72
Label_1_011EBC76:
 BYTE   VOICE   8
 BYTE   VOL   56*YggdraUnionGulcasaThemeShinKuma_mvl/mxv
 BYTE   W96
 BYTE   PEND 
// 003   ----------------------------------------
 BYTE   W96
// 004   ----------------------------------------
 BYTE   W60
 BYTE   VOICE   13
 BYTE   VOL   31*YggdraUnionGulcasaThemeShinKuma_mvl/mxv
 BYTE   N12  Dn4  v127
 BYTE   W12
 BYTE   En4
 BYTE   W12
 BYTE   Fn4
 BYTE   W12
// 005   ----------------------------------------
 BYTE   N36
 BYTE   W36
 BYTE   En4
 BYTE   W36
 BYTE   N24  Ds4
 BYTE   W24
 BYTE   PATT
  POIN2 Label_1_011EBC76
// 006   ----------------------------------------
 BYTE   W96
// 007   ----------------------------------------
 BYTE   W60
 BYTE   VOICE   13
 BYTE   VOL   31*YggdraUnionGulcasaThemeShinKuma_mvl/mxv
 BYTE   N12  Dn3  v127
 BYTE   W12
 BYTE   Gs3
 BYTE   W12
 BYTE   Fn3
 BYTE   W12
// 008   ----------------------------------------
 BYTE   N36  Cn4
 BYTE   W36
 BYTE   Gn3
 BYTE   W36
 BYTE   N24  En3
 BYTE   W24
// 009   ----------------------------------------
 BYTE   VOICE   8
 BYTE   VOL   56*YggdraUnionGulcasaThemeShinKuma_mvl/mxv
 BYTE   N24  Dn4  v096
 BYTE   W48
 BYTE   VOICE   13
 BYTE   VOL   31*YggdraUnionGulcasaThemeShinKuma_mvl/mxv
 BYTE   N48  Fn2
 BYTE   W48
// 010   ----------------------------------------
 BYTE   As2
 BYTE   W48
 BYTE   An2
 BYTE   W48
// 011   ----------------------------------------
Label_1_011EBCBF:
 BYTE   N48  An2  v096
 BYTE   W48
 BYTE   N48
 BYTE   W48
 BYTE   PEND 
 BYTE   PATT
  POIN2 Label_1_011EBCBF
// 012   ----------------------------------------
 BYTE   VOICE   8
 BYTE   VOL   56*YggdraUnionGulcasaThemeShinKuma_mvl/mxv
 BYTE   N24  Gn3  v096
 BYTE   W36
 BYTE   VOICE   13
 BYTE   VOL   31*YggdraUnionGulcasaThemeShinKuma_mvl/mxv
 BYTE   N60  Dn3
 BYTE   W60
// 013   ----------------------------------------
 BYTE   N48  Gn2
 BYTE   W48
 BYTE   Gn3
 BYTE   W48
// 014   ----------------------------------------
 BYTE   N96  An2
 BYTE   W96
// 015   ----------------------------------------
 BYTE   En3
 BYTE   W96
// 016   ----------------------------------------
 BYTE   VOICE   13
 BYTE   VOL   28*YggdraUnionGulcasaThemeShinKuma_mvl/mxv
 BYTE   N06  An4
 BYTE   W06
 BYTE   N06
 BYTE   W06
 BYTE   N06
 BYTE   W12
 BYTE   N12  An5
 BYTE   W12
 BYTE   Fn5
 BYTE   W12
 BYTE   Dn5
 BYTE   W12
 BYTE   Cn6
 BYTE   W12
 BYTE   N06  An4
 BYTE   W06
 BYTE   N06
 BYTE   W06
 BYTE   N12  Bn5
 BYTE   W12
// 017   ----------------------------------------
 BYTE   Gs5
 BYTE   W12
 BYTE   En5
 BYTE   W12
 BYTE   Bn4
 BYTE   W12
 BYTE   As5
 BYTE   W12
 BYTE   N06  An4
 BYTE   W06
 BYTE   N06
 BYTE   W06
 BYTE   N12  Gn5
 BYTE   W12
 BYTE   Ds5
 BYTE   W12
 BYTE   As4
 BYTE   W12
// 018   ----------------------------------------
 BYTE   N06  An4
 BYTE   W06
 BYTE   N06
 BYTE   W06
 BYTE   N06
 BYTE   W12
 BYTE   N12  An5
 BYTE   W12
 BYTE   Fn5
 BYTE   W12
 BYTE   Dn5
 BYTE   W12
 BYTE   Cn6
 BYTE   W12
 BYTE   N06  An4
 BYTE   W06
 BYTE   N06
 BYTE   W06
 BYTE   N12  Bn5
 BYTE   W12
// 019   ----------------------------------------
 BYTE   Gs5
 BYTE   W12
 BYTE   En5
 BYTE   W12
 BYTE   Bn4
 BYTE   W12
 BYTE   As5
 BYTE   W12
 BYTE   N06  An4
 BYTE   W06
 BYTE   N06
 BYTE   W06
 BYTE   N12  Gn5
 BYTE   W12
 BYTE   As5
 BYTE   W12
 BYTE   Ds6
 BYTE   W12
// 020   ----------------------------------------
 BYTE   VOICE   8
 BYTE   VOL   56*YggdraUnionGulcasaThemeShinKuma_mvl/mxv
 BYTE   N24  Dn4
 BYTE   W96
// 021   ----------------------------------------
 BYTE   N24
 BYTE   W96
// 022   ----------------------------------------
 BYTE   GoTo
  POIN2 Label_1_011EBC76
 BYTE   FINE

//**************** Track 3 (Midi-Chn.2) ****************//

YggdraUnionGulcasaThemeShinKuma_003:
// 000   ----------------------------------------
 BYTE   KEYSH   YggdraUnionGulcasaThemeShinKuma_key+0
 BYTE   VOICE   14
 BYTE   VOL   34*YggdraUnionGulcasaThemeShinKuma_mvl/mxv
 BYTE   W12
 BYTE   N06  Gn4  v127
 BYTE   W06
 BYTE   Dn5
 BYTE   W06
 BYTE   Ds5
 BYTE   W06
 BYTE   As5
 BYTE   W06
 BYTE   Ds5
 BYTE   W06
 BYTE   Gn4
 BYTE   W06
 BYTE   Gn3
 BYTE   W06
 BYTE   Dn4
 BYTE   W06
 BYTE   Ds4
 BYTE   W06
 BYTE   As4
 BYTE   W06
 BYTE   Ds4
 BYTE   W06
 BYTE   Gn3
 BYTE   W06
 BYTE   Gn2
 BYTE   W06
 BYTE   Dn3
 BYTE   W06
// 001   ----------------------------------------
 BYTE   Gn3
 BYTE   W06
 BYTE   Dn3
 BYTE   W06
 BYTE   Gs3
 BYTE   W06
 BYTE   Dn4
 BYTE   W06
 BYTE   Ds4
 BYTE   W06
 BYTE   As4
 BYTE   W06
 BYTE   Ds4
 BYTE   W06
 BYTE   Gs3
 BYTE   W06
 BYTE   Gs2
 BYTE   W06
 BYTE   Dn3
 BYTE   W06
 BYTE   Ds3
 BYTE   W06
 BYTE   As3
 BYTE   W06
 BYTE   Ds3
 BYTE   W06
 BYTE   Gs2
 BYTE   W06
 BYTE   Dn1
 BYTE   W06
 BYTE   Dn2
 BYTE   W06
// 002   ----------------------------------------
 BYTE   Gs2
 BYTE   W06
 BYTE   Dn2
 BYTE   W06
 BYTE   W72
Label_2_011EBD99:
 BYTE   VOL   34*YggdraUnionGulcasaThemeShinKuma_mvl/mxv
 BYTE   N06  Dn3  v127
 BYTE   W06
 BYTE   An3
 BYTE   W06
// 003   ----------------------------------------
 BYTE   As3
 BYTE   W06
 BYTE   Fn4
 BYTE   W06
 BYTE   As3
 BYTE   W06
 BYTE   Dn3
 BYTE   W06
 BYTE   Dn2
 BYTE   W06
 BYTE   An2
 BYTE   W06
 BYTE   As2
 BYTE   W06
 BYTE   Fn3
 BYTE   W06
 BYTE   As2
 BYTE   W06
 BYTE   Dn2
 BYTE   W06
 BYTE   Dn1
 BYTE   W06
 BYTE   An1
 BYTE   W06
 BYTE   Dn2
 BYTE   W06
 BYTE   An1
 BYTE   W06
Label_2_011EBDBD:
 BYTE   N06  Ds3  v127
 BYTE   W06
 BYTE   An3
 BYTE   W06
// 004   ----------------------------------------
 BYTE   As3
 BYTE   W06
 BYTE   Fn4
 BYTE   W06
 BYTE   As3
 BYTE   W06
 BYTE   Ds3
 BYTE   W06
 BYTE   Ds2
 BYTE   W06
 BYTE   An2
 BYTE   W06
 BYTE   As2
 BYTE   W06
 BYTE   Fn3
 BYTE   W06
 BYTE   As2
 BYTE   W06
 BYTE   Ds2
 BYTE   W06
 BYTE   Dn1
 BYTE   W06
 BYTE   An1
 BYTE   W06
 BYTE   Ds2
 BYTE   W06
 BYTE   An1
 BYTE   W06
 BYTE   PEND 
Label_2_011EBDE0:
 BYTE   N06  Dn3  v127
 BYTE   W06
 BYTE   An3
 BYTE   W06
// 005   ----------------------------------------
 BYTE   As3
 BYTE   W06
 BYTE   Fn4
 BYTE   W06
 BYTE   As3
 BYTE   W06
 BYTE   Dn3
 BYTE   W06
 BYTE   Dn2
 BYTE   W06
 BYTE   An2
 BYTE   W06
 BYTE   As2
 BYTE   W06
 BYTE   Fn3
 BYTE   W06
 BYTE   As2
 BYTE   W06
 BYTE   Dn2
 BYTE   W06
 BYTE   Dn1
 BYTE   W06
 BYTE   An1
 BYTE   W06
 BYTE   Dn2
 BYTE   W06
 BYTE   An1
 BYTE   W06
 BYTE   PEND 
 BYTE   VOICE   15
 BYTE   VOL   31*YggdraUnionGulcasaThemeShinKuma_mvl/mxv
 BYTE   N36  Cn4  v100
 BYTE   W36
// 006   ----------------------------------------
 BYTE   N36
 BYTE   W36
 BYTE   N24  Gn3
 BYTE   W24
 BYTE   VOICE   14
 BYTE   VOL   34*YggdraUnionGulcasaThemeShinKuma_mvl/mxv
 BYTE   N06  Dn3  v127
 BYTE   W06
 BYTE   An3
 BYTE   W06
 BYTE   As3
 BYTE   W06
 BYTE   Fn4
 BYTE   W06
 BYTE   As3
 BYTE   W06
 BYTE   Dn3
 BYTE   W06
// 007   ----------------------------------------
 BYTE   Dn2
 BYTE   W06
 BYTE   An2
 BYTE   W06
 BYTE   As2
 BYTE   W06
 BYTE   Fn3
 BYTE   W06
 BYTE   As2
 BYTE   W06
 BYTE   Dn2
 BYTE   W06
 BYTE   Dn1
 BYTE   W06
 BYTE   An1
 BYTE   W06
 BYTE   Dn2
 BYTE   W06
 BYTE   An1
 BYTE   W06
 BYTE   PATT
  POIN2 Label_2_011EBDBD
 BYTE   PATT
  POIN2 Label_2_011EBDE0
// 008   ----------------------------------------
 BYTE   VOICE   15
 BYTE   VOL   31*YggdraUnionGulcasaThemeShinKuma_mvl/mxv
 BYTE   N36  Gn3  v100
 BYTE   W32
 BYTE   W03
 BYTE   En3
 BYTE   W36
 BYTE   W01
 BYTE   N24  Cn3
 BYTE   W24
// 009   ----------------------------------------
 BYTE   VOICE   15
 BYTE   VOL   25*YggdraUnionGulcasaThemeShinKuma_mvl/mxv
 BYTE   N48  An2  v127
 BYTE   W48
 BYTE   Dn3
 BYTE   W48
// 010   ----------------------------------------
 BYTE   Fn3
 BYTE   W48
 BYTE   Dn3
 BYTE   W48
// 011   ----------------------------------------
 BYTE   N48
 BYTE   W48
 BYTE   Cs3
 BYTE   W48
// 012   ----------------------------------------
 BYTE   En3
 BYTE   W48
 BYTE   N48
 BYTE   W48
// 013   ----------------------------------------
 BYTE   N36  Dn3
 BYTE   W36
 BYTE   N60  As2
 BYTE   W60
// 014   ----------------------------------------
 BYTE   N48
 BYTE   W48
 BYTE   Dn3
 BYTE   W48
// 015   ----------------------------------------
 BYTE   N96
 BYTE   W96
// 016   ----------------------------------------
 BYTE   Cs3
 BYTE   W96
// 017   ----------------------------------------
 BYTE   VOICE   14
 BYTE   VOL   34*YggdraUnionGulcasaThemeShinKuma_mvl/mxv
 BYTE   N06  Dn3
 BYTE   W06
 BYTE   Fn3
 BYTE   W06
 BYTE   An3
 BYTE   W06
 BYTE   Dn4
 BYTE   W06
 BYTE   An3
 BYTE   W06
 BYTE   Dn4
 BYTE   W06
 BYTE   Fn4
 BYTE   W06
 BYTE   An4
 BYTE   W06
 BYTE   Dn5
 BYTE   W06
 BYTE   Fn5
 BYTE   W06
 BYTE   Cn5
 BYTE   W06
 BYTE   An4
 BYTE   W06
 BYTE   Fn4
 BYTE   W06
 BYTE   Cn4
 BYTE   W06
 BYTE   Dn3
 BYTE   W06
 BYTE   En3
 BYTE   W06
// 018   ----------------------------------------
Label_2_011EBE98:
 BYTE   N06  Gs3  v127
 BYTE   W06
 BYTE   Bn3
 BYTE   W06
 BYTE   Dn4
 BYTE   W06
 BYTE   En4
 BYTE   W06
 BYTE   Gs4
 BYTE   W06
 BYTE   Bn4
 BYTE   W06
 BYTE   Ds4
 BYTE   W06
 BYTE   As3
 BYTE   W06
 BYTE   Dn3
 BYTE   W06
 BYTE   Dn4
 BYTE   W06
 BYTE   As3
 BYTE   W06
 BYTE   Ds4
 BYTE   W06
 BYTE   Gn4
 BYTE   W06
 BYTE   As4
 BYTE   W06
 BYTE   Gn4
 BYTE   W06
 BYTE   Ds4
 BYTE   W06
 BYTE   PEND 
// 019   ----------------------------------------
 BYTE   Dn3
 BYTE   W06
 BYTE   Fn3
 BYTE   W06
 BYTE   An3
 BYTE   W06
 BYTE   Dn4
 BYTE   W06
 BYTE   An3
 BYTE   W06
 BYTE   Dn4
 BYTE   W06
 BYTE   Fn4
 BYTE   W06
 BYTE   An4
 BYTE   W06
 BYTE   Dn5
 BYTE   W06
 BYTE   Fn5
 BYTE   W06
 BYTE   Cn5
 BYTE   W06
 BYTE   An4
 BYTE   W06
 BYTE   Fn4
 BYTE   W06
 BYTE   Cn4
 BYTE   W06
 BYTE   Dn3
 BYTE   W06
 BYTE   En3
 BYTE   W06
 BYTE   PATT
  POIN2 Label_2_011EBE98
// 020   ----------------------------------------
 BYTE   VOL   25*YggdraUnionGulcasaThemeShinKuma_mvl/mxv
 BYTE   N12  Fn4  v127
 BYTE   W12
 BYTE   An4
 BYTE   W12
 BYTE   As4
 BYTE   W12
 BYTE   An4
 BYTE   W12
 BYTE   Fn5
 BYTE   W12
 BYTE   An4
 BYTE   W12
 BYTE   As4
 BYTE   W12
 BYTE   Gn4
 BYTE   W12
// 021   ----------------------------------------
 BYTE   Fn4
 BYTE   W12
 BYTE   An4
 BYTE   W12
 BYTE   As4
 BYTE   W12
 BYTE   An4
 BYTE   W12
 BYTE   Fn5
 BYTE   W12
 BYTE   An4
 BYTE   W12
 BYTE   As4
 BYTE   W12
 BYTE   Gn4
 BYTE   W12
// 022   ----------------------------------------
 BYTE   GoTo
  POIN2 Label_2_011EBD99
 BYTE   FINE

//**************** Track 4 (Midi-Chn.3) ****************//

YggdraUnionGulcasaThemeShinKuma_004:
// 000   ----------------------------------------
 BYTE   KEYSH   YggdraUnionGulcasaThemeShinKuma_key+0
 BYTE   VOICE   21
 BYTE   VOL   47*YggdraUnionGulcasaThemeShinKuma_mvl/mxv
 BYTE   FnM2
 BYTE   W12
 BYTE   N12  Gn1  v100
 BYTE   W12
 BYTE   N12
 BYTE   W12
 BYTE   Dn2
 BYTE   N12  Gn2
 BYTE   W12
 BYTE   Gn1
 BYTE   W12
 BYTE   N12
 BYTE   W12
 BYTE   Ds2
 BYTE   N12  Gs2
 BYTE   W12
 BYTE   Gn1
 BYTE   W12
// 001   ----------------------------------------
 BYTE   N12
 BYTE   W12
 BYTE   Ds2
 BYTE   N12  As2
 BYTE   W12
 BYTE   Gn1
 BYTE   W12
 BYTE   N12
 BYTE   W12
 BYTE   Cn2
 BYTE   N12  Fn2
 BYTE   W12
 BYTE   Gn1
 BYTE   W12
 BYTE   N12
 BYTE   W12
 BYTE   As2
 BYTE   W12
// 002   ----------------------------------------
 BYTE   Gs2
 BYTE   W12
 BYTE   W72
Label_3_011EBF3E:
 BYTE   N12  Dn1  v100
 BYTE   W12
// 003   ----------------------------------------
 BYTE   N12
 BYTE   W12
 BYTE   An1
 BYTE   N12  Dn2
 BYTE   W12
 BYTE   Dn1
 BYTE   W12
 BYTE   N12
 BYTE   W12
 BYTE   As1
 BYTE   N12  Ds2
 BYTE   W12
 BYTE   Dn1
 BYTE   W12
 BYTE   N12
 BYTE   W12
 BYTE   PEND 
Label_3_011EBF55:
 BYTE   N12  Cn2  v100
 BYTE   N12  Fn2
 BYTE   W12
// 004   ----------------------------------------
 BYTE   Dn1
 BYTE   W12
 BYTE   N12
 BYTE   W12
 BYTE   Gn1
 BYTE   N12  Cn2
 BYTE   W12
 BYTE   Dn1
 BYTE   W12
 BYTE   N12
 BYTE   W12
 BYTE   Cn2
 BYTE   N12  Fn2
 BYTE   W12
 BYTE   As1
 BYTE   N12  Ds2
 BYTE   W12
 BYTE   PEND 
 BYTE   PATT
  POIN2 Label_3_011EBF3E
// 005   ----------------------------------------
Label_3_011EBF75:
 BYTE   N12  Cn3  v100
 BYTE   W12
 BYTE   Cn2
 BYTE   W12
 BYTE   N12
 BYTE   W12
 BYTE   Cn3
 BYTE   W12
 BYTE   Cn2
 BYTE   W12
 BYTE   N12
 BYTE   W12
 BYTE   Fn2
 BYTE   W12
 BYTE   Ds2
 BYTE   W12
 BYTE   PEND 
 BYTE   PATT
  POIN2 Label_3_011EBF3E
 BYTE   PATT
  POIN2 Label_3_011EBF55
 BYTE   PATT
  POIN2 Label_3_011EBF3E
 BYTE   PATT
  POIN2 Label_3_011EBF75
// 006   ----------------------------------------
Label_3_011EBF9C:
 BYTE   N12  Dn1  v100
 BYTE   W12
 BYTE   N12
 BYTE   W12
 BYTE   An1
 BYTE   N12  Dn2
 BYTE   W12
 BYTE   Dn1
 BYTE   W12
 BYTE   N12
 BYTE   W12
 BYTE   An1
 BYTE   N12  Dn2
 BYTE   W12
 BYTE   Dn1
 BYTE   W12
 BYTE   N12
 BYTE   W12
 BYTE   PEND 
 BYTE   PATT
  POIN2 Label_3_011EBF9C
// 007   ----------------------------------------
Label_3_011EBFB8:
 BYTE   N12  An1  v100
 BYTE   W12
 BYTE   N12
 BYTE   W12
 BYTE   En2
 BYTE   N12  An2
 BYTE   W12
 BYTE   An1
 BYTE   W12
 BYTE   N12
 BYTE   W12
 BYTE   En2
 BYTE   N12  An2
 BYTE   W12
 BYTE   An1
 BYTE   W12
 BYTE   N12
 BYTE   W12
 BYTE   PEND 
 BYTE   PATT
  POIN2 Label_3_011EBFB8
// 008   ----------------------------------------
Label_3_011EBFD4:
 BYTE   N12  Gn1  v100
 BYTE   W12
 BYTE   N12
 BYTE   W12
 BYTE   Dn2
 BYTE   N12  Gn2
 BYTE   W12
 BYTE   Gn1
 BYTE   W12
 BYTE   N12
 BYTE   W12
 BYTE   Dn2
 BYTE   N12  Gn2
 BYTE   W12
 BYTE   Gn1
 BYTE   W12
 BYTE   N12
 BYTE   W12
 BYTE   PEND 
 BYTE   PATT
  POIN2 Label_3_011EBFD4
 BYTE   PATT
  POIN2 Label_3_011EBFB8
 BYTE   PATT
  POIN2 Label_3_011EBFB8
// 009   ----------------------------------------
 BYTE   N06  Dn1  v100
 BYTE   W06
 BYTE   N06
 BYTE   W06
 BYTE   N06
 BYTE   W12
 BYTE   N12  Dn2
 BYTE   W12
 BYTE   An1
 BYTE   W12
 BYTE   Fn1
 BYTE   W12
 BYTE   Fn2
 BYTE   W12
 BYTE   N06  Dn1
 BYTE   W06
 BYTE   N06
 BYTE   W06
 BYTE   N12  En2
 BYTE   W12
// 010   ----------------------------------------
 BYTE   Bn1
 BYTE   W12
 BYTE   Gs1
 BYTE   W12
 BYTE   En1
 BYTE   W12
 BYTE   Ds2
 BYTE   W12
 BYTE   N06  Dn1
 BYTE   W06
 BYTE   N06
 BYTE   W06
 BYTE   N12  As1
 BYTE   W12
 BYTE   Gn1
 BYTE   W12
 BYTE   Ds1
 BYTE   W12
// 011   ----------------------------------------
 BYTE   N06  Dn1
 BYTE   W06
 BYTE   N06
 BYTE   W06
 BYTE   N06
 BYTE   W12
 BYTE   N11  Dn2
 BYTE   W12
 BYTE   N12  An1
 BYTE   W12
 BYTE   Fn1
 BYTE   W12
 BYTE   Fn2
 BYTE   W12
 BYTE   N06  Dn1
 BYTE   W06
 BYTE   N06
 BYTE   W06
 BYTE   N12  En2
 BYTE   W12
// 012   ----------------------------------------
 BYTE   Bn1
 BYTE   W12
 BYTE   N11  Gs1
 BYTE   W12
 BYTE   N12  En1
 BYTE   W12
 BYTE   Ds2
 BYTE   W12
 BYTE   N06  Dn1
 BYTE   W06
 BYTE   N06
 BYTE   W06
 BYTE   N12  As1
 BYTE   W12
 BYTE   Gn1
 BYTE   W12
 BYTE   Ds1
 BYTE   W12
// 013   ----------------------------------------
Label_3_011EC056:
 BYTE   N06  An1  v100
 BYTE   W06
 BYTE   N06
 BYTE   W06
 BYTE   N06
 BYTE   W06
 BYTE   N06
 BYTE   W06
 BYTE   N06
 BYTE   W12
 BYTE   N06
 BYTE   W06
 BYTE   N06
 BYTE   W06
 BYTE   N06
 BYTE   W06
 BYTE   N06
 BYTE   W06
 BYTE   N06
 BYTE   W12
 BYTE   N06
 BYTE   W06
 BYTE   N06
 BYTE   W06
 BYTE   N12  As1
 BYTE   W12
 BYTE   PEND 
 BYTE   PATT
  POIN2 Label_3_011EC056
// 014   ----------------------------------------
 BYTE   GoTo
  POIN2 Label_3_011EBF3E
 BYTE   FINE

//**************** Track 5 (Midi-Chn.4) ****************//

YggdraUnionGulcasaThemeShinKuma_005:
// 000   ----------------------------------------
 BYTE   KEYSH   YggdraUnionGulcasaThemeShinKuma_key+0
 BYTE   VOICE   26
 BYTE   VOL   62*YggdraUnionGulcasaThemeShinKuma_mvl/mxv
 BYTE   AnM2
 BYTE   W12
 BYTE   N11  Gn0  v127
 BYTE   W36
 BYTE   N11
 BYTE   W36
 BYTE   N11
 BYTE   W24
// 001   ----------------------------------------
 BYTE   W12
 BYTE   N12
 BYTE   W36
 BYTE   N11
 BYTE   W24
 BYTE   N24  Gs0
 BYTE   W24
// 002   ----------------------------------------
 BYTE   W72
Label_4_011EC099:
 BYTE   N11  Dn0  v127
 BYTE   W12
 BYTE   N12
 BYTE   W12
// 003   ----------------------------------------
 BYTE   An0
 BYTE   W12
 BYTE   N11  Dn0
 BYTE   W12
 BYTE   N12
 BYTE   W12
 BYTE   As0
 BYTE   W12
 BYTE   N11  Dn0
 BYTE   W12
 BYTE   N12
 BYTE   W12
 BYTE   PEND 
 BYTE   Cn1
 BYTE   W12
 BYTE   Dn0
 BYTE   W12
// 004   ----------------------------------------
 BYTE   N12
 BYTE   W12
 BYTE   Gn0
 BYTE   W12
 BYTE   Dn0
 BYTE   W12
 BYTE   N12
 BYTE   W12
 BYTE   N11  Cn1
 BYTE   W12
 BYTE   N12  As0
 BYTE   W12
 BYTE   Dn0
 BYTE   W12
 BYTE   N12
 BYTE   W12
// 005   ----------------------------------------
 BYTE   An0
 BYTE   W12
 BYTE   Dn0
 BYTE   W12
 BYTE   N12
 BYTE   W12
 BYTE   As0
 BYTE   W12
 BYTE   Dn0
 BYTE   W12
 BYTE   N12
 BYTE   W12
 BYTE   Cn1
 BYTE   W12
 BYTE   N12
 BYTE   W12
// 006   ----------------------------------------
 BYTE   N12
 BYTE   W12
 BYTE   N12
 BYTE   W12
 BYTE   N12
 BYTE   W12
 BYTE   N12
 BYTE   W12
 BYTE   N12
 BYTE   W12
 BYTE   N12
 BYTE   W12
 BYTE   Dn0
 BYTE   W12
 BYTE   N12
 BYTE   W12
// 007   ----------------------------------------
 BYTE   N11  An0
 BYTE   W12
 BYTE   N12  Dn0
 BYTE   W12
 BYTE   N12
 BYTE   W12
 BYTE   N11  As0
 BYTE   W12
 BYTE   N12  Dn0
 BYTE   W12
 BYTE   N12
 BYTE   W12
 BYTE   N11  Cn1
 BYTE   W12
 BYTE   N12  Dn0
 BYTE   W12
// 008   ----------------------------------------
 BYTE   N12
 BYTE   W12
 BYTE   N11  Gn0
 BYTE   W12
 BYTE   N12  Dn0
 BYTE   W12
 BYTE   N12
 BYTE   W12
 BYTE   N11  Cn1
 BYTE   W12
 BYTE   N12  As0
 BYTE   W12
 BYTE   PATT
  POIN2 Label_4_011EC099
// 009   ----------------------------------------
 BYTE   N12  Cn1  v127
 BYTE   W12
 BYTE   N12
 BYTE   W12
 BYTE   N11
 BYTE   W12
 BYTE   N12
 BYTE   W12
 BYTE   N12
 BYTE   W12
 BYTE   N11
 BYTE   W12
 BYTE   N12
 BYTE   W12
 BYTE   N12
 BYTE   W12
// 010   ----------------------------------------
 BYTE   Dn0
 BYTE   W12
 BYTE   N12
 BYTE   W12
 BYTE   Dn1
 BYTE   W12
 BYTE   Dn0
 BYTE   W12
 BYTE   N12
 BYTE   W12
 BYTE   Dn1
 BYTE   W12
 BYTE   An0
 BYTE   W12
 BYTE   Dn0
 BYTE   W12
// 011   ----------------------------------------
 BYTE   N12
 BYTE   W12
 BYTE   N12
 BYTE   W12
 BYTE   Dn1
 BYTE   W12
 BYTE   Dn0
 BYTE   W12
 BYTE   N12
 BYTE   W12
 BYTE   N11
 BYTE   W12
 BYTE   N12  Dn1
 BYTE   W12
 BYTE   Dn0
 BYTE   W12
// 012   ----------------------------------------
 BYTE   An0
 BYTE   W12
 BYTE   N12
 BYTE   W12
 BYTE   N12
 BYTE   W12
 BYTE   N11
 BYTE   W12
 BYTE   N12
 BYTE   W12
 BYTE   An1
 BYTE   W12
 BYTE   En1
 BYTE   W12
 BYTE   An0
 BYTE   W12
// 013   ----------------------------------------
 BYTE   N12
 BYTE   W12
 BYTE   N12
 BYTE   W12
 BYTE   N12
 BYTE   W12
 BYTE   N12
 BYTE   W12
 BYTE   N12
 BYTE   W12
 BYTE   N12
 BYTE   W12
 BYTE   N12
 BYTE   W12
 BYTE   An1
 BYTE   W12
// 014   ----------------------------------------
 BYTE   Gn0
 BYTE   W12
 BYTE   N12
 BYTE   W12
 BYTE   N12
 BYTE   W12
 BYTE   N12
 BYTE   W12
 BYTE   N12
 BYTE   W12
 BYTE   N12
 BYTE   W12
 BYTE   N12
 BYTE   W12
 BYTE   N12
 BYTE   W12
// 015   ----------------------------------------
 BYTE   N12
 BYTE   W12
 BYTE   N12
 BYTE   W12
 BYTE   N12
 BYTE   W12
 BYTE   N12
 BYTE   W12
 BYTE   N12
 BYTE   W12
 BYTE   N11
 BYTE   W12
 BYTE   N12
 BYTE   W12
 BYTE   N12
 BYTE   W12
// 016   ----------------------------------------
 BYTE   An0
 BYTE   W12
 BYTE   N12
 BYTE   W12
 BYTE   N12
 BYTE   W12
 BYTE   N11
 BYTE   W12
 BYTE   N12
 BYTE   W12
 BYTE   N12
 BYTE   W12
 BYTE   N12
 BYTE   W12
 BYTE   N12
 BYTE   W12
// 017   ----------------------------------------
 BYTE   N12
 BYTE   W12
 BYTE   N12
 BYTE   W12
 BYTE   N12
 BYTE   W12
 BYTE   N12
 BYTE   W12
 BYTE   N12
 BYTE   W12
 BYTE   N12
 BYTE   W12
 BYTE   N12
 BYTE   W12
 BYTE   N12
 BYTE   W12
// 018   ----------------------------------------
 BYTE   N06  Dn0
 BYTE   W06
 BYTE   N06
 BYTE   W06
 BYTE   N12
 BYTE   W24
 BYTE   N06
 BYTE   W06
 BYTE   N06
 BYTE   W06
 BYTE   N12
 BYTE   W24
 BYTE   N06
 BYTE   W06
 BYTE   N06
 BYTE   W06
 BYTE   N12
 BYTE   W12
// 019   ----------------------------------------
 BYTE   W12
 BYTE   N06
 BYTE   W06
 BYTE   N06
 BYTE   W06
 BYTE   N12
 BYTE   W24
 BYTE   N06
 BYTE   W06
 BYTE   N06
 BYTE   W06
 BYTE   N12  Ds0
 BYTE   W12
 BYTE   N06
 BYTE   W06
 BYTE   N06
 BYTE   W06
 BYTE   N06
 BYTE   W06
 BYTE   N06
 BYTE   W06
// 020   ----------------------------------------
 BYTE   Dn0
 BYTE   W06
 BYTE   N06
 BYTE   W06
 BYTE   N12
 BYTE   W24
 BYTE   N06
 BYTE   W06
 BYTE   N05
 BYTE   W06
 BYTE   N12
 BYTE   W24
 BYTE   N06
 BYTE   W06
 BYTE   N06
 BYTE   W06
 BYTE   N12
 BYTE   W12
// 021   ----------------------------------------
 BYTE   W12
 BYTE   N06
 BYTE   W06
 BYTE   N05
 BYTE   W06
 BYTE   N12
 BYTE   W24
 BYTE   N06
 BYTE   W06
 BYTE   N06
 BYTE   W06
 BYTE   N12
 BYTE   W12
 BYTE   N06  Ds0
 BYTE   W06
 BYTE   N06
 BYTE   W06
 BYTE   N06
 BYTE   W06
 BYTE   N06
 BYTE   W06
// 022   ----------------------------------------
 BYTE   Dn1
 BYTE   W06
 BYTE   N06
 BYTE   W06
 BYTE   N06
 BYTE   W06
 BYTE   N06
 BYTE   W06
 BYTE   N06
 BYTE   W12
 BYTE   N06
 BYTE   W06
 BYTE   N06
 BYTE   W06
 BYTE   N06
 BYTE   W06
 BYTE   N06
 BYTE   W06
 BYTE   N06
 BYTE   W12
 BYTE   N06
 BYTE   W06
 BYTE   N06
 BYTE   W06
 BYTE   N12  Ds1
 BYTE   W12
// 023   ----------------------------------------
 BYTE   N06  Dn1
 BYTE   W06
 BYTE   N06
 BYTE   W06
 BYTE   N06
 BYTE   W06
 BYTE   N06
 BYTE   W06
 BYTE   N06
 BYTE   W12
 BYTE   N06
 BYTE   W06
 BYTE   N06
 BYTE   W06
 BYTE   N06
 BYTE   W06
 BYTE   N06
 BYTE   W06
 BYTE   N05
 BYTE   W12
 BYTE   N06
 BYTE   W06
 BYTE   N06
 BYTE   W06
 BYTE   N12  Ds1
 BYTE   W12
// 024   ----------------------------------------
 BYTE   GoTo
  POIN2 Label_4_011EC099
 BYTE   FINE

//**************** Track 6 (Midi-Chn.5) ****************//

YggdraUnionGulcasaThemeShinKuma_006:
// 000   ----------------------------------------
 BYTE   KEYSH   YggdraUnionGulcasaThemeShinKuma_key+0
 BYTE   VOICE   0
 BYTE   VOL   56*YggdraUnionGulcasaThemeShinKuma_mvl/mxv
 BYTE   Ds0
 BYTE   W12
 BYTE   N05  En0  v108
 BYTE   N06  Fn0  v076
 BYTE   W12
 BYTE   Fs0  v092
 BYTE   W12
 BYTE   N06
 BYTE   W12
 BYTE   En0  v108
 BYTE   N06  Fn0  v076
 BYTE   W24
 BYTE   Fs0  v092
 BYTE   W12
 BYTE   En0  v108
 BYTE   N06  Fn0  v076
 BYTE   W24
// 001   ----------------------------------------
 BYTE   Fs0  v092
 BYTE   W12
 BYTE   En0  v108
 BYTE   W12
 BYTE   N06
 BYTE   N05  Fn0  v076
 BYTE   W12
 BYTE   Fs0  v092
 BYTE   W12
 BYTE   N06  En0  v108
 BYTE   N06  Fn0  v076
 BYTE   W12
 BYTE   Fs0  v092
 BYTE   W12
 BYTE   N05
 BYTE   W12
 BYTE   N06
 BYTE   W12
// 002   ----------------------------------------
 BYTE   W36
 BYTE   N03  Gn0  v008
 BYTE   W03
 BYTE   N03
 BYTE   W03
 BYTE   Gn0  v012
 BYTE   W03
 BYTE   Gn0  v016
 BYTE   W03
 BYTE   Gn0  v024
 BYTE   W03
 BYTE   Gn0  v032
 BYTE   W03
 BYTE   Gn0  v040
 BYTE   W03
 BYTE   Gn0  v052
 BYTE   W03
 BYTE   Gn0  v068
 BYTE   W03
 BYTE   Gn0  v080
 BYTE   W03
 BYTE   Gn0  v100
 BYTE   W03
 BYTE   Gn0  v116
 BYTE   W03
Label_5_011EC295:
 BYTE   N05  En0  v108
 BYTE   N05  Fn0  v076
 BYTE   N96  Gs0  v127
 BYTE   W18
 BYTE   N06  En0  v108
 BYTE   W06
// 003   ----------------------------------------
 BYTE   Fs0  v092
 BYTE   N06  An0  v060
 BYTE   W12
 BYTE   En0  v108
 BYTE   W12
 BYTE   An0  v060
 BYTE   W12
 BYTE   En0  v108
 BYTE   W12
 BYTE   N05  Fs0  v092
 BYTE   N05  An0  v060
 BYTE   W24
 BYTE   N06  En0  v108
 BYTE   N06  An0  v060
 BYTE   W18
 BYTE   En0  v108
 BYTE   W06
// 004   ----------------------------------------
 BYTE   Fs0  v092
 BYTE   N06  An0  v060
 BYTE   W12
 BYTE   En0  v108
 BYTE   W12
 BYTE   N05  An0  v060
 BYTE   W12
 BYTE   N06  En0  v108
 BYTE   W12
 BYTE   Fs0  v092
 BYTE   N06  An0  v060
 BYTE   W24
Label_5_011EC2DA:
 BYTE   N04  Gn0  v016
 BYTE   N06  En0  v108
 BYTE   N06  An0  v060
 BYTE   W04
 BYTE   N04  Gn0  v016
 BYTE   W04
 BYTE   N04
 BYTE   W04
 BYTE   N04
 BYTE   W04
 BYTE   N04
 BYTE   W02
 BYTE   N06  En0  v108
 BYTE   W02
 BYTE   N04  Gn0  v020
 BYTE   W04
// 005   ----------------------------------------
 BYTE   N04
 BYTE   N06  Fs0  v092
 BYTE   N06  An0  v060
 BYTE   W04
 BYTE   N04  Gn0  v024
 BYTE   W04
 BYTE   N04
 BYTE   W04
 BYTE   Gn0  v028
 BYTE   N06  En0  v108
 BYTE   W04
 BYTE   N04  Gn0  v032
 BYTE   W04
 BYTE   Gn0  v036
 BYTE   W04
 BYTE   N04
 BYTE   N06  An0  v060
 BYTE   W04
 BYTE   N04  Gn0  v040
 BYTE   W04
 BYTE   Gn0  v044
 BYTE   W04
 BYTE   Gn0  v052
 BYTE   N06  En0  v108
 BYTE   W04
 BYTE   N04  Gn0  v056
 BYTE   W04
 BYTE   Gn0  v060
 BYTE   W04
 BYTE   Gn0  v064
 BYTE   N06  Fs0  v092
 BYTE   N06  An0  v060
 BYTE   W04
 BYTE   N04  Gn0  v072
 BYTE   W04
 BYTE   Gn0  v076
 BYTE   W04
 BYTE   Gn0  v084
 BYTE   W04
 BYTE   Gn0  v088
 BYTE   W04
 BYTE   Gn0  v096
 BYTE   W04
 BYTE   PEND 
 BYTE   N12  As0
 BYTE   N06  En0  v108
 BYTE   N06  Fn0  v076
 BYTE   W12
 BYTE   N12  Bn0  v096
 BYTE   W06
 BYTE   N06  En0  v108
 BYTE   W06
// 006   ----------------------------------------
 BYTE   N12  Bn0  v096
 BYTE   N06  Fs0  v092
 BYTE   N06  An0  v060
 BYTE   W12
 BYTE   N12  As0  v096
 BYTE   N06  En0  v108
 BYTE   N06  Fn0  v076
 BYTE   W12
 BYTE   N12  Bn0  v096
 BYTE   W06
 BYTE   N06  Fs0  v092
 BYTE   W06
 BYTE   N11  Bn0  v096
 BYTE   W06
 BYTE   N06  En0  v108
 BYTE   W06
 BYTE   N12  As0  v096
 BYTE   N06  Fs0  v092
 BYTE   N06  An0  v060
 BYTE   W12
 BYTE   N03  Gn0  v036
 BYTE   W03
 BYTE   Gn0  v044
 BYTE   W03
 BYTE   Gn0  v060
 BYTE   W03
 BYTE   Gn0  v084
 BYTE   W03
 BYTE   N06  En0  v108
 BYTE   N06  Fn0  v076
 BYTE   N96  Gs0  v127
 BYTE   W18
 BYTE   N06  En0  v108
 BYTE   W06
// 007   ----------------------------------------
 BYTE   Fs0  v092
 BYTE   N06  An0  v060
 BYTE   W12
 BYTE   En0  v108
 BYTE   W12
 BYTE   An0  v060
 BYTE   W12
 BYTE   En0  v108
 BYTE   W12
 BYTE   Fs0  v092
 BYTE   N06  An0  v060
 BYTE   W24
 BYTE   N05  En0  v108
 BYTE   N05  An0  v060
 BYTE   W18
 BYTE   N06  En0  v108
 BYTE   W06
// 008   ----------------------------------------
 BYTE   Fs0  v092
 BYTE   N06  An0  v060
 BYTE   W12
 BYTE   N05  En0  v108
 BYTE   W12
 BYTE   N06  An0  v060
 BYTE   W12
 BYTE   En0  v108
 BYTE   W12
 BYTE   N05  Fs0  v092
 BYTE   N05  An0  v060
 BYTE   W24
 BYTE   PATT
  POIN2 Label_5_011EC2DA
// 009   ----------------------------------------
 BYTE   N12  As0  v096
 BYTE   N06  En0  v108
 BYTE   N06  Fn0  v076
 BYTE   W12
 BYTE   N12  Bn0  v096
 BYTE   W06
 BYTE   N06  Fs0  v092
 BYTE   W06
 BYTE   N12  Bn0  v096
 BYTE   N06  Fs0  v092
 BYTE   N06  An0  v060
 BYTE   W12
 BYTE   N12  As0  v096
 BYTE   N06  En0  v108
 BYTE   N06  Fn0  v076
 BYTE   W12
 BYTE   N12  Bn0  v096
 BYTE   W06
 BYTE   N06  Fs0  v092
 BYTE   W06
 BYTE   N11  Bn0  v096
 BYTE   N06  Fs0  v092
 BYTE   W12
 BYTE   N12  As0  v096
 BYTE   N06  Fs0  v092
 BYTE   N06  An0  v060
 BYTE   W06
 BYTE   Fs0  v092
 BYTE   W06
 BYTE   N03  Gn0  v036
 BYTE   N06  Fs0  v092
 BYTE   W03
 BYTE   N03  Gn0  v044
 BYTE   W03
 BYTE   Gn0  v060
 BYTE   N06  Fs0  v092
 BYTE   W03
 BYTE   N03  Gn0  v084
 BYTE   W03
// 010   ----------------------------------------
Label_5_011EC432:
 BYTE   N06  Fs0  v092
 BYTE   N06  Fn0  v076
 BYTE   W24
 BYTE   Fs0  v092
 BYTE   N06  An0  v060
 BYTE   W12
 BYTE   En0  v108
 BYTE   W06
 BYTE   N06
 BYTE   W06
 BYTE   Fs0  v092
 BYTE   N06  An0  v060
 BYTE   W12
 BYTE   En0  v108
 BYTE   W12
 BYTE   Fs0  v092
 BYTE   N06  An0  v060
 BYTE   W12
 BYTE   En0  v108
 BYTE   W12
 BYTE   PEND 
// 011   ----------------------------------------
Label_5_011EC457:
 BYTE   N06  Fs0  v092
 BYTE   N06  An0  v060
 BYTE   W24
 BYTE   Fs0  v092
 BYTE   N06  An0  v060
 BYTE   W12
 BYTE   En0  v108
 BYTE   W06
 BYTE   N06
 BYTE   W06
 BYTE   Fs0  v092
 BYTE   N06  An0  v060
 BYTE   W12
 BYTE   N05  En0  v108
 BYTE   W12
 BYTE   N06  Fs0  v092
 BYTE   N06  An0  v060
 BYTE   W12
 BYTE   En0  v108
 BYTE   W12
 BYTE   PEND 
// 012   ----------------------------------------
 BYTE   Fs0  v092
 BYTE   N06  An0  v060
 BYTE   W24
 BYTE   Fs0  v092
 BYTE   N06  An0  v060
 BYTE   W12
 BYTE   N05  En0  v108
 BYTE   W06
 BYTE   N06
 BYTE   W06
 BYTE   Fs0  v092
 BYTE   N06  An0  v060
 BYTE   W12
 BYTE   En0  v108
 BYTE   W12
 BYTE   Fs0  v092
 BYTE   N06  An0  v060
 BYTE   W12
 BYTE   En0  v108
 BYTE   W12
// 013   ----------------------------------------
 BYTE   N04  Gn0  v016
 BYTE   N06  Fs0  v092
 BYTE   N06  An0  v060
 BYTE   W04
 BYTE   N04  Gn0  v016
 BYTE   W04
 BYTE   N04
 BYTE   W04
 BYTE   N04
 BYTE   W04
 BYTE   N04
 BYTE   W04
 BYTE   Gn0  v020
 BYTE   W04
 BYTE   N04
 BYTE   N06  Fs0  v092
 BYTE   N06  An0  v060
 BYTE   W04
 BYTE   N04  Gn0  v024
 BYTE   W04
 BYTE   N04
 BYTE   W04
 BYTE   Gn0  v028
 BYTE   N06  En0  v108
 BYTE   W04
 BYTE   N04  Gn0  v032
 BYTE   W02
 BYTE   N06  En0  v108
 BYTE   W02
 BYTE   N04  Gn0  v036
 BYTE   W04
 BYTE   N04
 BYTE   N06  Fs0  v092
 BYTE   N06  An0  v060
 BYTE   W04
 BYTE   N04  Gn0  v040
 BYTE   W04
 BYTE   Gn0  v044
 BYTE   W04
 BYTE   Gn0  v052
 BYTE   N06  En0  v108
 BYTE   W04
 BYTE   N04  Gn0  v056
 BYTE   W04
 BYTE   Gn0  v060
 BYTE   W04
 BYTE   Gn0  v064
 BYTE   N06  Fs0  v092
 BYTE   N06  An0  v060
 BYTE   W04
 BYTE   N04  Gn0  v072
 BYTE   W04
 BYTE   Gn0  v076
 BYTE   W04
 BYTE   Gn0  v084
 BYTE   N06  En0  v108
 BYTE   W04
 BYTE   N04  Gn0  v088
 BYTE   W04
 BYTE   Gn0  v096
 BYTE   W04
 BYTE   PATT
  POIN2 Label_5_011EC432
 BYTE   PATT
  POIN2 Label_5_011EC457
// 014   ----------------------------------------
 BYTE   N04  Gn0  v012
 BYTE   N06  Fs0  v092
 BYTE   N06  Fn0  v076
 BYTE   W04
 BYTE   N04  Gn0  v012
 BYTE   W04
 BYTE   N04
 BYTE   W04
 BYTE   N04
 BYTE   W04
 BYTE   N04
 BYTE   W04
 BYTE   N04
 BYTE   W04
 BYTE   Gn0  v016
 BYTE   N06  Fs0  v092
 BYTE   N06  An0  v060
 BYTE   W04
 BYTE   N04  Gn0  v016
 BYTE   W04
 BYTE   N04
 BYTE   W04
 BYTE   N04
 BYTE   N06  En0  v108
 BYTE   W04
 BYTE   N04  Gn0  v016
 BYTE   W02
 BYTE   N05  En0  v108
 BYTE   W02
 BYTE   N04  Gn0  v020
 BYTE   W04
 BYTE   N04
 BYTE   N06  Fs0  v092
 BYTE   N06  An0  v060
 BYTE   W04
 BYTE   N04  Gn0  v020
 BYTE   W04
 BYTE   N04
 BYTE   W04
 BYTE   Gn0  v024
 BYTE   N06  En0  v108
 BYTE   W04
 BYTE   N04  Gn0  v024
 BYTE   W04
 BYTE   N04
 BYTE   W04
 BYTE   Gn0  v028
 BYTE   N06  Fs0  v092
 BYTE   N06  An0  v060
 BYTE   W04
 BYTE   N04  Gn0  v028
 BYTE   W04
 BYTE   Gn0  v032
 BYTE   W04
 BYTE   N04
 BYTE   N06  En0  v108
 BYTE   W04
 BYTE   N04  Gn0  v036
 BYTE   W04
 BYTE   N04
 BYTE   W04
// 015   ----------------------------------------
 BYTE   Gn0  v040
 BYTE   N06  Fs0  v092
 BYTE   N06  An0  v060
 BYTE   W04
 BYTE   N04  Gn0  v040
 BYTE   W04
 BYTE   Gn0  v044
 BYTE   W04
 BYTE   N04
 BYTE   W04
 BYTE   Gn0  v048
 BYTE   W04
 BYTE   Gn0  v052
 BYTE   W04
 BYTE   N04
 BYTE   N06  Fs0  v092
 BYTE   N06  An0  v060
 BYTE   W04
 BYTE   N04  Gn0  v056
 BYTE   W04
 BYTE   Gn0  v060
 BYTE   W04
 BYTE   N04
 BYTE   N06  Fs0  v092
 BYTE   W04
 BYTE   N04  Gn0  v064
 BYTE   W02
 BYTE   N06  Fs0  v092
 BYTE   W02
 BYTE   N04  Gn0  v068
 BYTE   W04
 BYTE   Gn0  v072
 BYTE   N06  Fs0  v092
 BYTE   N06  An0  v060
 BYTE   W04
 BYTE   N04  Gn0  v072
 BYTE   W02
 BYTE   N06  Fs0  v092
 BYTE   W02
 BYTE   N04  Gn0  v076
 BYTE   W04
 BYTE   Gn0  v080
 BYTE   N06  Fs0  v092
 BYTE   W04
 BYTE   N04  Gn0  v084
 BYTE   W04
 BYTE   Gn0  v088
 BYTE   W04
 BYTE   Gn0  v092
 BYTE   N06  Fs0
 BYTE   N06  An0  v060
 BYTE   W04
 BYTE   N04  Gn0  v096
 BYTE   W02
 BYTE   N06  Fs0  v092
 BYTE   W02
 BYTE   N04  Gn0  v100
 BYTE   W04
 BYTE   Gn0  v104
 BYTE   N06  Cn1  v120
 BYTE   W04
 BYTE   N04  Gn0  v104
 BYTE   W04
 BYTE   Gn0  v112
 BYTE   W04
// 016   ----------------------------------------
 BYTE   N06  Cs1  v088
 BYTE   N06  Fs0  v092
 BYTE   N06  Fn0  v076
 BYTE   W06
 BYTE   Cs1  v088
 BYTE   N06  En0  v108
 BYTE   W06
 BYTE   N24  Cs1  v088
 BYTE   N06  En0  v108
 BYTE   W12
 BYTE   Fs0  v092
 BYTE   N06  Dn1  v068
 BYTE   W12
 BYTE   En0  v108
 BYTE   W06
 BYTE   N06
 BYTE   W06
 BYTE   Fs0  v092
 BYTE   N06  Dn1  v068
 BYTE   W24
 BYTE   Fs0  v092
 BYTE   N06  Dn1  v068
 BYTE   W06
 BYTE   En0  v108
 BYTE   W06
 BYTE   N06
 BYTE   W12
// 017   ----------------------------------------
 BYTE   N04  Gn0  v016
 BYTE   N06  Fs0  v092
 BYTE   N06  Fn0  v076
 BYTE   W04
 BYTE   N04  Gn0  v016
 BYTE   W04
 BYTE   N04
 BYTE   W04
 BYTE   N04
 BYTE   N06  En0  v108
 BYTE   W04
 BYTE   N04  Gn0  v016
 BYTE   W02
 BYTE   N06  En0  v108
 BYTE   W02
 BYTE   N04  Gn0  v020
 BYTE   W04
 BYTE   N04
 BYTE   N06  Fs0  v092
 BYTE   N06  Dn1  v068
 BYTE   W04
 BYTE   N04  Gn0  v024
 BYTE   W04
 BYTE   N04
 BYTE   W04
 BYTE   Gn0  v028
 BYTE   W04
 BYTE   Gn0  v032
 BYTE   W04
 BYTE   Gn0  v036
 BYTE   W04
 BYTE   N04
 BYTE   N06  Fs0  v092
 BYTE   N06  Dn1  v068
 BYTE   W04
 BYTE   N04  Gn0  v040
 BYTE   W02
 BYTE   N06  En0  v108
 BYTE   W02
 BYTE   N04  Gn0  v044
 BYTE   W04
 BYTE   Gn0  v052
 BYTE   N06  En0  v108
 BYTE   W04
 BYTE   N04  Gn0  v056
 BYTE   W04
 BYTE   Gn0  v060
 BYTE   W04
 BYTE   Gn0  v064
 BYTE   N06  Fs0  v092
 BYTE   N06  Dn1  v068
 BYTE   W04
 BYTE   N04  Gn0  v072
 BYTE   W02
 BYTE   N06  En0  v108
 BYTE   W02
 BYTE   N04  Gn0  v076
 BYTE   W04
 BYTE   Gn0  v084
 BYTE   N06  En0  v108
 BYTE   W04
 BYTE   N04  Gn0  v088
 BYTE   W02
 BYTE   N06  En0  v108
 BYTE   W02
 BYTE   N04  Gn0  v096
 BYTE   W04
// 018   ----------------------------------------
 BYTE   N06  Cs1  v088
 BYTE   N06  Fs0  v092
 BYTE   N06  Fn0  v076
 BYTE   W06
 BYTE   Cs1  v088
 BYTE   N06  En0  v108
 BYTE   W06
 BYTE   N24  Cs1  v088
 BYTE   N06  En0  v108
 BYTE   W12
 BYTE   Fs0  v092
 BYTE   N06  Dn1  v068
 BYTE   W12
 BYTE   En0  v108
 BYTE   W06
 BYTE   N05
 BYTE   W06
 BYTE   N06  Fs0  v092
 BYTE   N06  Dn1  v068
 BYTE   W24
 BYTE   Fs0  v092
 BYTE   N06  Dn1  v068
 BYTE   W06
 BYTE   En0  v108
 BYTE   W06
 BYTE   N06
 BYTE   W12
// 019   ----------------------------------------
 BYTE   N04  Gn0  v016
 BYTE   N05  Fs0  v092
 BYTE   N06  Fn0  v076
 BYTE   W04
 BYTE   N04  Gn0  v016
 BYTE   W04
 BYTE   N04
 BYTE   W04
 BYTE   N04
 BYTE   N06  En0  v108
 BYTE   W04
 BYTE   N04  Gn0  v016
 BYTE   W02
 BYTE   N06  En0  v108
 BYTE   W02
 BYTE   N04  Gn0  v020
 BYTE   W04
 BYTE   N04
 BYTE   N06  Fs0  v092
 BYTE   N06  Dn1  v068
 BYTE   W04
 BYTE   N04  Gn0  v024
 BYTE   W04
 BYTE   N04
 BYTE   W04
 BYTE   Gn0  v028
 BYTE   W04
 BYTE   Gn0  v032
 BYTE   W04
 BYTE   Gn0  v036
 BYTE   W04
 BYTE   N04
 BYTE   N06  Fs0  v092
 BYTE   N06  Dn1  v068
 BYTE   W04
 BYTE   N04  Gn0  v040
 BYTE   W02
 BYTE   N06  En0  v108
 BYTE   W02
 BYTE   N04  Gn0  v044
 BYTE   W04
 BYTE   Gn0  v052
 BYTE   N06  En0  v108
 BYTE   W04
 BYTE   N04  Gn0  v056
 BYTE   W04
 BYTE   Gn0  v060
 BYTE   W04
 BYTE   Gn0  v064
 BYTE   N06  Fs0  v092
 BYTE   N06  Dn1  v068
 BYTE   W04
 BYTE   N04  Gn0  v072
 BYTE   W02
 BYTE   N06  Fs0  v092
 BYTE   W02
 BYTE   N04  Gn0  v076
 BYTE   W04
 BYTE   Gn0  v084
 BYTE   N06  Fs0  v092
 BYTE   W04
 BYTE   N04  Gn0  v088
 BYTE   W02
 BYTE   N06  Fs0  v092
 BYTE   W02
 BYTE   N04  Gn0  v096
 BYTE   W04
// 020   ----------------------------------------
 BYTE   N24  Cs1  v088
 BYTE   N06  Fs0  v092
 BYTE   W06
 BYTE   N06
 BYTE   W06
 BYTE   N06
 BYTE   W06
 BYTE   N06
 BYTE   W06
 BYTE   N06
 BYTE   W12
 BYTE   N06
 BYTE   W06
 BYTE   N06
 BYTE   W06
 BYTE   N06
 BYTE   W06
 BYTE   N06
 BYTE   W06
 BYTE   N06
 BYTE   W12
 BYTE   N06
 BYTE   W06
 BYTE   N06
 BYTE   W06
 BYTE   En0  v108
 BYTE   N06  Fn0  v076
 BYTE   W12
// 021   ----------------------------------------
 BYTE   N24  Cs1  v088
 BYTE   N06  Fs0  v092
 BYTE   W06
 BYTE   N06
 BYTE   W06
 BYTE   N06
 BYTE   W06
 BYTE   N06
 BYTE   W06
 BYTE   N06
 BYTE   W12
 BYTE   N06
 BYTE   W06
 BYTE   N06
 BYTE   W06
 BYTE   N06
 BYTE   W06
 BYTE   N06
 BYTE   W06
 BYTE   N05
 BYTE   W12
 BYTE   N06
 BYTE   W06
 BYTE   N06
 BYTE   W06
 BYTE   En0  v108
 BYTE   N06  Fn0  v076
 BYTE   W12
// 022   ----------------------------------------
 BYTE   GoTo
  POIN2 Label_5_011EC295
 BYTE   FINE

//******************************************************//
	ALIGN 4

YggdraUnionGulcasaThemeShinKuma:
	BYTE	6	// NumTrks
	BYTE	0	// NumBlks
	BYTE	YggdraUnionGulcasaThemeShinKuma_pri	// Priority
	BYTE	YggdraUnionGulcasaThemeShinKuma_rev	// Reverb.
    
	POIN2	YggdraUnionGulcasaThemeShinKuma_grp
    
	POIN2	YggdraUnionGulcasaThemeShinKuma_001
	POIN2	YggdraUnionGulcasaThemeShinKuma_002
	POIN2	YggdraUnionGulcasaThemeShinKuma_003
	POIN2	YggdraUnionGulcasaThemeShinKuma_004
	POIN2	YggdraUnionGulcasaThemeShinKuma_005
	POIN2	YggdraUnionGulcasaThemeShinKuma_006

	
