//Event file generated from Sappy .s format.
	#include "MPlayDef.event"

	#define	ChronoTriggerTheTrialRandomWizard_grp  voicegroup000
	#define	ChronoTriggerTheTrialRandomWizard_pri  0
	#define	ChronoTriggerTheTrialRandomWizard_rev  0
	#define	ChronoTriggerTheTrialRandomWizard_mvl  127
	#define	ChronoTriggerTheTrialRandomWizard_key  0
	#define	ChronoTriggerTheTrialRandomWizard_tbs  1
	#define	ChronoTriggerTheTrialRandomWizard_exg  0
	#define	ChronoTriggerTheTrialRandomWizard_cmp  1

	// .rodata
	//	ChronoTriggerTheTrialRandomWizard
	ALIGN 4


//**************** Track 1 (Midi-Chn.0) ****************//

ChronoTriggerTheTrialRandomWizard_001:
// 000   ----------------------------------------
 BYTE   KEYSH   ChronoTriggerTheTrialRandomWizard_key+0
Label_0_5473BC:
 BYTE   TEMPO   108*ChronoTriggerTheTrialRandomWizard_tbs/2
 BYTE   VOICE   0
 BYTE   VOL   31*ChronoTriggerTheTrialRandomWizard_mvl/mxv
 BYTE   PAN   c_v-24
 BYTE   N07  Cn1  v116
 BYTE   W48
 BYTE   Cn1  v104
 BYTE   W44
 BYTE   W03
 BYTE   N06  Cn1  v116
 BYTE   W01
// 001   ----------------------------------------
Label_0_5473D0:
 BYTE   W48
 BYTE   N24  Gn0  v116
 BYTE   W44
 BYTE   W02
 BYTE   N07  Cn1
 BYTE   W02
 BYTE   PEND 
// 002   ----------------------------------------
 BYTE   W44
 BYTE   W02
 BYTE   N11
 BYTE   W48
 BYTE   W01
 BYTE   Cn1  v108
 BYTE   W01
// 003   ----------------------------------------
 BYTE   W48
 BYTE   N24  Gn0  v116
 BYTE   W48
// 004   ----------------------------------------
Label_0_5473E7:
 BYTE   N07  Cn1  v116
 BYTE   W48
 BYTE   Cn1  v104
 BYTE   W44
 BYTE   W03
 BYTE   N06  Cn1  v116
 BYTE   W01
 BYTE   PEND 
 BYTE   PATT
  POIN2 Label_0_5473D0
// 005   ----------------------------------------
Label_0_5473F9:
 BYTE   W44
 BYTE   W01
 BYTE   N11  Fn0  v116
 BYTE   N11  Fn1
 BYTE   W48
 BYTE   W03
 BYTE   PEND 
// 006   ----------------------------------------
Label_0_547403:
 BYTE   N11  Gn0  v108
 BYTE   N11  Gn1
 BYTE   W48
 BYTE   N24  Gn0  v116
 BYTE   W48
 BYTE   PEND 
 BYTE   PATT
  POIN2 Label_0_5473E7
 BYTE   PATT
  POIN2 Label_0_5473D0
// 007   ----------------------------------------
Label_0_547418:
 BYTE   W44
 BYTE   W02
 BYTE   N11  Gn0  v116
 BYTE   W48
 BYTE   W01
 BYTE   Cn1  v108
 BYTE   W01
 BYTE   PEND 
// 008   ----------------------------------------
 BYTE   W48
 BYTE   N24  Cn1  v116
 BYTE   W48
 BYTE   PATT
  POIN2 Label_0_5473E7
 BYTE   PATT
  POIN2 Label_0_5473D0
 BYTE   PATT
  POIN2 Label_0_5473F9
 BYTE   PATT
  POIN2 Label_0_547403
 BYTE   PATT
  POIN2 Label_0_5473E7
 BYTE   PATT
  POIN2 Label_0_5473D0
 BYTE   PATT
  POIN2 Label_0_547418
// 009   ----------------------------------------
 BYTE   W48
 BYTE   N24  Cn1  v116
 BYTE   W48
// 010   ----------------------------------------
 BYTE   W72
 BYTE   W72
// 011   ----------------------------------------
 BYTE   W72
 BYTE   W72
// 012   ----------------------------------------
 BYTE   W72
 BYTE   W72
// 013   ----------------------------------------
 BYTE   W72
 BYTE   W72
// 014   ----------------------------------------
 BYTE   W72
 BYTE   W72
// 015   ----------------------------------------
 BYTE   W01
 BYTE   TIE  An0  v127
 BYTE   TIE  An1  v124
 BYTE   W68
 BYTE   W03
 BYTE   W68
// 016   ----------------------------------------
 BYTE   EOT
 BYTE   An0
 BYTE   W02
 BYTE   An1
 BYTE   W02
 BYTE   TIE  Dn0  v127
 BYTE   TIE  Dn1
 BYTE   W72
 BYTE   W66
// 017   ----------------------------------------
 BYTE   W01
 BYTE   EOT
 BYTE   Dn0
 BYTE   W01
 BYTE   Dn1
 BYTE   W03
 BYTE   TIE  An0
 BYTE   W01
 BYTE   An1
 BYTE   W72
 BYTE   W68
// 018   ----------------------------------------
 BYTE   EOT
 BYTE   An0
 BYTE   W02
 BYTE   TIE  As0
 BYTE   TIE  As1
 BYTE   W02
 BYTE   W10
 BYTE   EOT
 BYTE   An1
 BYTE   W60
 BYTE   W02
 BYTE   W68
// 019   ----------------------------------------
 BYTE   W01
 BYTE   As0
 BYTE   W01
 BYTE   As1
 BYTE   W02
 BYTE   TIE  Dn0  v116
 BYTE   TIE  Dn1  v127
 BYTE   W72
 BYTE   W68
// 020   ----------------------------------------
 BYTE   EOT
 BYTE   Dn0  v038
 BYTE   W04
 BYTE   W01
 BYTE   TIE  Fn0
 BYTE   TIE  Fn1
 BYTE   W68
 BYTE   W03
 BYTE   W66
// 021   ----------------------------------------
 BYTE   EOT
 BYTE   Fn0
 BYTE   W03
 BYTE   Fn1
 BYTE   W01
 BYTE   TIE  Gs1
 BYTE   W01
 BYTE   Gs0  v104
 BYTE   W01
 BYTE   W72
 BYTE   W68
// 022   ----------------------------------------
 BYTE   W01
 BYTE   EOT
 BYTE   Gs1
 BYTE   W01
 BYTE   Gs0
 BYTE   W02
 BYTE   W72
 BYTE   W72
// 023   ----------------------------------------
 BYTE   W72
 BYTE   W72
// 024   ----------------------------------------
 BYTE   W72
 BYTE   W72
// 025   ----------------------------------------
 BYTE   W72
 BYTE   W72
// 026   ----------------------------------------
 BYTE   W72
 BYTE   W72
// 027   ----------------------------------------
 BYTE   W72
 BYTE   W72
// 028   ----------------------------------------
 BYTE   GoTo
  POIN2 Label_0_5473BC
 BYTE   FINE

//**************** Track 2 (Midi-Chn.1) ****************//

ChronoTriggerTheTrialRandomWizard_002:
// 000   ----------------------------------------
 BYTE   KEYSH   ChronoTriggerTheTrialRandomWizard_key+0
Label_1_54771F:
 BYTE   VOICE   24
 BYTE   VOL   37*ChronoTriggerTheTrialRandomWizard_mvl/mxv
 BYTE   PAN   c_v+16
 BYTE   N07  Cn2  v116
 BYTE   W24
 BYTE   N05  Ds4  v076
 BYTE   N05  Gn4  v108
 BYTE   W11
 BYTE   Ds4  v064
 BYTE   W13
 BYTE   N07  Cn2  v104
 BYTE   W22
 BYTE   N04  Ds4  v072
 BYTE   N04  Gn4  v108
 BYTE   W12
 BYTE   N05  Ds4  v068
 BYTE   W13
 BYTE   N06  Cn2  v116
 BYTE   W01
// 001   ----------------------------------------
Label_1_547746:
 BYTE   W23
 BYTE   N04  Ds4  v072
 BYTE   N04  Gn4  v108
 BYTE   W11
 BYTE   N05  Ds4  v072
 BYTE   W11
 BYTE   N08  Fn4  v096
 BYTE   N09  Gs4  v084
 BYTE   W03
 BYTE   N24  Gn1  v116
 BYTE   W22
 BYTE   N06  Ds4  v092
 BYTE   N06  Gn4  v120
 BYTE   W24
 BYTE   N07  Cn2  v116
 BYTE   W02
 BYTE   PEND 
// 002   ----------------------------------------
 BYTE   W22
 BYTE   N05  Ds4  v084
 BYTE   N05  Gn4  v116
 BYTE   W11
 BYTE   N06  Ds4  v096
 BYTE   W13
 BYTE   N11  Cn2  v116
 BYTE   W24
 BYTE   W01
 BYTE   N04  Ds4  v080
 BYTE   N05  Gn4  v108
 BYTE   W11
 BYTE   Ds4  v096
 BYTE   W13
 BYTE   N11  Cn2  v108
 BYTE   W01
// 003   ----------------------------------------
 BYTE   W24
 BYTE   N04  Ds4  v088
 BYTE   N05  Gn4  v108
 BYTE   W10
 BYTE   N07  Ds4  v088
 BYTE   W13
 BYTE   N09  Fn4  v108
 BYTE   N10  Gs4  v088
 BYTE   W01
 BYTE   N24  Gn1  v116
 BYTE   W22
 BYTE   N06  Ds4  v092
 BYTE   N07  Gn4  v124
 BYTE   W24
 BYTE   W02
// 004   ----------------------------------------
Label_1_5477A7:
 BYTE   N07  Cn2  v116
 BYTE   W24
 BYTE   N05  Ds4  v076
 BYTE   N05  Gn4  v108
 BYTE   W11
 BYTE   Ds4  v064
 BYTE   W13
 BYTE   N07  Cn2  v104
 BYTE   W22
 BYTE   N04  Ds4  v072
 BYTE   N04  Gn4  v108
 BYTE   W12
 BYTE   N05  Ds4  v068
 BYTE   W13
 BYTE   N06  Cn2  v116
 BYTE   W01
 BYTE   PEND 
 BYTE   PATT
  POIN2 Label_1_547746
// 005   ----------------------------------------
Label_1_5477CE:
 BYTE   W22
 BYTE   N05  Ds4  v084
 BYTE   N05  Gn4  v116
 BYTE   W11
 BYTE   N06  Ds4  v096
 BYTE   W12
 BYTE   N11  Fn1  v116
 BYTE   N11  Fn2
 BYTE   W24
 BYTE   W03
 BYTE   N04  Fn4  v080
 BYTE   N05  Gs4  v108
 BYTE   W12
 BYTE   Fn4  v096
 BYTE   W12
 BYTE   PEND 
// 006   ----------------------------------------
Label_1_5477EC:
 BYTE   N11  Gn1  v108
 BYTE   N11  Gn2
 BYTE   W24
 BYTE   N05  Ds4
 BYTE   N04  Gn4  v088
 BYTE   W09
 BYTE   N07  Ds4
 BYTE   W14
 BYTE   N10  Fn4
 BYTE   W01
 BYTE   N24  Gn1  v116
 BYTE   N09  Gs4  v108
 BYTE   W20
 BYTE   N06  Gn4  v092
 BYTE   W01
 BYTE   N07  Ds4  v124
 BYTE   W24
 BYTE   W03
 BYTE   PEND 
 BYTE   PATT
  POIN2 Label_1_5477A7
 BYTE   PATT
  POIN2 Label_1_547746
// 007   ----------------------------------------
Label_1_547819:
 BYTE   W22
 BYTE   N05  Ds4  v084
 BYTE   N05  Gn4  v116
 BYTE   W11
 BYTE   N06  Ds4  v096
 BYTE   W13
 BYTE   N11  Gn1  v116
 BYTE   W24
 BYTE   W01
 BYTE   N04  Dn4  v080
 BYTE   N05  Fn4  v108
 BYTE   W11
 BYTE   Dn4  v096
 BYTE   W13
 BYTE   N11  Cn2  v108
 BYTE   W01
 BYTE   PEND 
// 008   ----------------------------------------
Label_1_547839:
 BYTE   W24
 BYTE   N04  Ds4  v088
 BYTE   N05  Gn4  v108
 BYTE   W10
 BYTE   N07  Ds4  v088
 BYTE   W13
 BYTE   N09  Fn4  v108
 BYTE   N10  Gs4  v088
 BYTE   W01
 BYTE   N24  Cn2  v116
 BYTE   W22
 BYTE   N06  Ds4  v092
 BYTE   N07  Gn4  v124
 BYTE   W24
 BYTE   W02
 BYTE   PEND 
 BYTE   PATT
  POIN2 Label_1_5477A7
 BYTE   PATT
  POIN2 Label_1_547746
 BYTE   PATT
  POIN2 Label_1_5477CE
 BYTE   PATT
  POIN2 Label_1_5477EC
 BYTE   PATT
  POIN2 Label_1_5477A7
 BYTE   PATT
  POIN2 Label_1_547746
 BYTE   PATT
  POIN2 Label_1_547819
 BYTE   PATT
  POIN2 Label_1_547839
// 009   ----------------------------------------
 BYTE   W72
 BYTE   W72
// 010   ----------------------------------------
 BYTE   W72
 BYTE   W72
// 011   ----------------------------------------
 BYTE   W72
 BYTE   W72
// 012   ----------------------------------------
 BYTE   W72
 BYTE   W72
// 013   ----------------------------------------
 BYTE   W72
 BYTE   W72
// 014   ----------------------------------------
 BYTE   W72
 BYTE   W72
// 015   ----------------------------------------
 BYTE   W72
 BYTE   W72
// 016   ----------------------------------------
 BYTE   W72
 BYTE   W72
// 017   ----------------------------------------
 BYTE   W72
 BYTE   W72
// 018   ----------------------------------------
 BYTE   W72
 BYTE   W72
// 019   ----------------------------------------
 BYTE   W72
 BYTE   W72
// 020   ----------------------------------------
 BYTE   W72
 BYTE   W72
// 021   ----------------------------------------
 BYTE   W72
 BYTE   W72
// 022   ----------------------------------------
 BYTE   W72
 BYTE   W72
// 023   ----------------------------------------
 BYTE   W72
 BYTE   W72
// 024   ----------------------------------------
 BYTE   W72
 BYTE   W72
// 025   ----------------------------------------
 BYTE   W72
 BYTE   W72
// 026   ----------------------------------------
 BYTE   W72
 BYTE   W72
// 027   ----------------------------------------
 BYTE   GoTo
  POIN2 Label_1_54771F
 BYTE   FINE

//**************** Track 3 (Midi-Chn.2) ****************//

ChronoTriggerTheTrialRandomWizard_003:
// 000   ----------------------------------------
 BYTE   KEYSH   ChronoTriggerTheTrialRandomWizard_key+0
Label_2_5478AE:
 BYTE   VOICE   71
 BYTE   VOL   26*ChronoTriggerTheTrialRandomWizard_mvl/mxv
 BYTE   PAN   c_v+21
 BYTE   W32
 BYTE   W03
 BYTE   N07  Ds3  v076
 BYTE   W01
 BYTE   Gn3  v100
 BYTE   W44
 BYTE   W01
 BYTE   N06  Ds3  v052
 BYTE   W01
 BYTE   Gn3  v104
 BYTE   W14
// 001   ----------------------------------------
 BYTE   W30
 BYTE   N08  Ds3  v076
 BYTE   W02
 BYTE   N07  Gn3  v108
 BYTE   W64
// 002   ----------------------------------------
 BYTE   W32
 BYTE   W01
 BYTE   N08  Ds3  v076
 BYTE   N06  Gn3  v104
 BYTE   W44
 BYTE   W03
 BYTE   N07  Ds3  v052
 BYTE   W01
 BYTE   N06  Gn3  v100
 BYTE   W15
// 003   ----------------------------------------
Label_2_5478E0:
 BYTE   W32
 BYTE   W01
 BYTE   N07  Ds3  v072
 BYTE   N07  Gn3  v104
 BYTE   W60
 BYTE   W03
 BYTE   PEND 
// 004   ----------------------------------------
 BYTE   W11
 BYTE   N08  Gn5
 BYTE   W13
 BYTE   N07  Fs5  v084
 BYTE   W10
 BYTE   Gn5  v096
 BYTE   W01
 BYTE   Ds3  v076
 BYTE   W01
 BYTE   Gn3  v100
 BYTE   W11
 BYTE   N30  Gs5  v084
 BYTE   W32
 BYTE   W02
 BYTE   N06  Ds3  v052
 BYTE   W01
 BYTE   Gn3  v104
 BYTE   W01
 BYTE   Gn5  v100
 BYTE   W11
 BYTE   N10  Fs5  v076
 BYTE   W02
// 005   ----------------------------------------
 BYTE   W09
 BYTE   N08  Gn5  v092
 BYTE   W12
 BYTE   N09  Dn5
 BYTE   W09
 BYTE   N08  Ds3  v076
 BYTE   W02
 BYTE   N07  Gn3  v108
 BYTE   W14
 BYTE   N32  Fn5  v104
 BYTE   W36
 BYTE   N05  Ds5
 BYTE   W14
// 006   ----------------------------------------
 BYTE   W10
 BYTE   N06  Cn5  v084
 BYTE   W11
 BYTE   N07  Bn4  v080
 BYTE   W11
 BYTE   Cn5  v100
 BYTE   W01
 BYTE   N08  Ds3  v076
 BYTE   N06  Gn3  v104
 BYTE   W13
 BYTE   N05  Dn5  v088
 BYTE   W32
 BYTE   W03
 BYTE   N07  Fn3  v052
 BYTE   N06  Gs3  v100
 BYTE   W12
 BYTE   N36  Gs4  v084
 BYTE   W03
// 007   ----------------------------------------
 BYTE   W32
 BYTE   W01
 BYTE   N07  Gn3  v072
 BYTE   N07  Bn3  v104
 BYTE   W03
 BYTE   N04  Gn4  v084
 BYTE   W05
 BYTE   N05  Gs4  v068
 BYTE   W04
 BYTE   N40  Gn4  v084
 BYTE   W48
 BYTE   W03
// 008   ----------------------------------------
 BYTE   W11
 BYTE   N06  Gn5  v100
 BYTE   W12
 BYTE   N07  Fs5  v076
 BYTE   W12
 BYTE   Ds3
 BYTE   N05  Gn5  v084
 BYTE   W01
 BYTE   N07  Gn3  v100
 BYTE   W12
 BYTE   N24  Gs5  v080
 BYTE   W32
 BYTE   W01
 BYTE   N06  Ds3  v052
 BYTE   W01
 BYTE   Gn3  v104
 BYTE   W02
 BYTE   N05  Gn5  v088
 BYTE   W10
 BYTE   N12  Fs5  v072
 BYTE   W02
// 009   ----------------------------------------
 BYTE   W09
 BYTE   N07  Gn5  v092
 BYTE   W12
 BYTE   Dn5  v084
 BYTE   W09
 BYTE   N08  Ds3  v076
 BYTE   W02
 BYTE   N07  Gn3  v108
 BYTE   W15
 BYTE   N28  Fn5  v104
 BYTE   W32
 BYTE   W02
 BYTE   N06  Ds5  v084
 BYTE   W15
// 010   ----------------------------------------
 BYTE   W09
 BYTE   Cn5
 BYTE   W12
 BYTE   N14  Bn4
 BYTE   W12
 BYTE   N08  Ds3  v076
 BYTE   N06  Gn3  v104
 BYTE   N07  Cn5  v092
 BYTE   W13
 BYTE   N09  Dn5  v080
 BYTE   W23
 BYTE   N13  Gn4  v092
 BYTE   W11
 BYTE   N07  Dn3  v052
 BYTE   W01
 BYTE   N06  Fn3  v100
 BYTE   W12
 BYTE   N92  Cn5  v088
 BYTE   W03
 BYTE   PATT
  POIN2 Label_2_5478E0
// 011   ----------------------------------------
 BYTE   W96
// 012   ----------------------------------------
 BYTE   W96
// 013   ----------------------------------------
 BYTE   W96
// 014   ----------------------------------------
 BYTE   W96
// 015   ----------------------------------------
 BYTE   W96
// 016   ----------------------------------------
 BYTE   W96
// 017   ----------------------------------------
 BYTE   W96
// 018   ----------------------------------------
 BYTE   W96
// 019   ----------------------------------------
 BYTE   W72
 BYTE   W72
// 020   ----------------------------------------
 BYTE   W72
 BYTE   W72
// 021   ----------------------------------------
 BYTE   W72
 BYTE   W72
// 022   ----------------------------------------
 BYTE   W72
 BYTE   W72
// 023   ----------------------------------------
 BYTE   W72
 BYTE   W72
// 024   ----------------------------------------
 BYTE   W72
 BYTE   W72
// 025   ----------------------------------------
 BYTE   W72
 BYTE   W72
// 026   ----------------------------------------
 BYTE   W72
 BYTE   W72
// 027   ----------------------------------------
 BYTE   W24
 BYTE   N24  Fn4  v060
 BYTE   W24
 BYTE   As4
 BYTE   W24
 BYTE   Cn5
 BYTE   W24
// 028   ----------------------------------------
 BYTE   Dn5
 BYTE   W24
 BYTE   En5
 BYTE   W24
 BYTE   N72  Fn5  v072
 BYTE   W72
// 029   ----------------------------------------
 BYTE   An4
 BYTE   W72
 BYTE   N24  Fn5
 BYTE   W24
// 030   ----------------------------------------
 BYTE   Gs4
 BYTE   W24
 BYTE   Cn5
 BYTE   W24
 BYTE   Gs5
 BYTE   W24
 BYTE   Gn5
 BYTE   W24
// 031   ----------------------------------------
 BYTE   Fn5
 BYTE   W24
 BYTE   Ds5
 BYTE   W24
 BYTE   Gs4
 BYTE   W24
 BYTE   Bn4
 BYTE   W24
// 032   ----------------------------------------
 BYTE   Ds5
 BYTE   W24
 BYTE   Bn4
 BYTE   W24
 BYTE   Cs5
 BYTE   W24
 BYTE   W72
// 033   ----------------------------------------
 BYTE   W72
 BYTE   W72
// 034   ----------------------------------------
 BYTE   W72
 BYTE   W72
// 035   ----------------------------------------
 BYTE   W72
 BYTE   W72
// 036   ----------------------------------------
 BYTE   W72
 BYTE   W24
// 037   ----------------------------------------
 BYTE   W02
 BYTE   N60  As4  v092
 BYTE   W44
 BYTE   W02
 BYTE   W15
 BYTE   N52  An4  v100
 BYTE   W54
// 038   ----------------------------------------
 BYTE   N24  Fn4  v068
 BYTE   W03
 BYTE   W23
 BYTE   TIE  Gn4  v084
 BYTE   W48
 BYTE   W01
 BYTE   W64
// 039   ----------------------------------------
 BYTE   EOT
 BYTE   W08
 BYTE   GoTo
  POIN2 Label_2_5478AE
 BYTE   FINE

//**************** Track 4 (Midi-Chn.3) ****************//

ChronoTriggerTheTrialRandomWizard_004:
// 000   ----------------------------------------
 BYTE   KEYSH   ChronoTriggerTheTrialRandomWizard_key+0
Label_3_015D92B2:
 BYTE   VOICE   40
 BYTE   VOL   34*ChronoTriggerTheTrialRandomWizard_mvl/mxv
 BYTE   PAN   c_v+0
 BYTE   W24
 BYTE   N05  Ds3  v080
 BYTE   N06  Gn3  v120
 BYTE   W44
 BYTE   W02
 BYTE   N03  Ds3  v080
 BYTE   N05  Gn3  v116
 BYTE   W24
 BYTE   W02
// 001   ----------------------------------------
Label_3_015D92C9:
 BYTE   W23
 BYTE   N05  Ds3  v084
 BYTE   N04  Gn3  v116
 BYTE   W22
 BYTE   N23  Fn3  v104
 BYTE   N23  Gs3  v088
 BYTE   W22
 BYTE   N08  Ds3  v080
 BYTE   W01
 BYTE   Gn3  v108
 BYTE   W28
 BYTE   PEND 
// 002   ----------------------------------------
 BYTE   W22
 BYTE   N05  Ds3  v096
 BYTE   N06  Gn3  v120
 BYTE   W44
 BYTE   W03
 BYTE   Ds3  v088
 BYTE   N06  Gn3  v116
 BYTE   W24
 BYTE   W03
// 003   ----------------------------------------
Label_3_015D92F0:
 BYTE   W21
 BYTE   N06  Ds3  v088
 BYTE   W01
 BYTE   Gn3  v124
 BYTE   W23
 BYTE   N24  Fn3  v104
 BYTE   N24  Gs3  v084
 BYTE   W24
 BYTE   N04  Ds3  v076
 BYTE   N04  Gn3  v108
 BYTE   W24
 BYTE   W03
 BYTE   PEND 
// 004   ----------------------------------------
Label_3_015D9308:
 BYTE   W24
 BYTE   N05  Ds3  v080
 BYTE   N06  Gn3  v120
 BYTE   W44
 BYTE   W02
 BYTE   N03  Ds3  v080
 BYTE   N05  Gn3  v116
 BYTE   W24
 BYTE   W02
 BYTE   PEND 
 BYTE   PATT
  POIN2 Label_3_015D92C9
// 005   ----------------------------------------
Label_3_015D931F:
 BYTE   W22
 BYTE   N05  Ds3  v096
 BYTE   N06  Gn3  v120
 BYTE   W44
 BYTE   W03
 BYTE   Fn3  v088
 BYTE   N06  Gs3  v116
 BYTE   W24
 BYTE   W03
 BYTE   PEND 
// 006   ----------------------------------------
Label_3_015D9330:
 BYTE   W21
 BYTE   N06  Ds3  v088
 BYTE   W01
 BYTE   Gn3  v124
 BYTE   W22
 BYTE   N24  Gs3  v104
 BYTE   W01
 BYTE   Fn3  v084
 BYTE   W24
 BYTE   N04  Ds3  v108
 BYTE   N04  Gn3  v076
 BYTE   W24
 BYTE   W03
 BYTE   PEND 
 BYTE   PATT
  POIN2 Label_3_015D9308
 BYTE   PATT
  POIN2 Label_3_015D92C9
// 007   ----------------------------------------
Label_3_015D9352:
 BYTE   W22
 BYTE   N05  Ds3  v096
 BYTE   N06  Gn3  v120
 BYTE   W44
 BYTE   W03
 BYTE   Dn3  v088
 BYTE   N06  Fn3  v116
 BYTE   W24
 BYTE   W03
 BYTE   PEND 
 BYTE   PATT
  POIN2 Label_3_015D92F0
 BYTE   PATT
  POIN2 Label_3_015D9308
 BYTE   PATT
  POIN2 Label_3_015D92C9
 BYTE   PATT
  POIN2 Label_3_015D931F
 BYTE   PATT
  POIN2 Label_3_015D9330
 BYTE   PATT
  POIN2 Label_3_015D9308
 BYTE   PATT
  POIN2 Label_3_015D92C9
 BYTE   PATT
  POIN2 Label_3_015D9352
 BYTE   PATT
  POIN2 Label_3_015D92F0
// 008   ----------------------------------------
 BYTE   N40  Cn4  v092
 BYTE   N40  Ds4  v076
 BYTE   N42  Gn4  v100
 BYTE   W02
 BYTE   Cn3  v104
 BYTE   W09
 BYTE   N11  Cn5  v096
 BYTE   W11
 BYTE   N14  Bn4  v116
 BYTE   W11
 BYTE   N15  Cn5  v104
 BYTE   W14
 BYTE   N03  Cn4  v092
 BYTE   N13  Dn4  v116
 BYTE   N14  Fn4  v104
 BYTE   N09  Dn5  v096
 BYTE   W01
 BYTE   N18  Gn2  v100
 BYTE   W10
 BYTE   N11  Gn4  v084
 BYTE   W12
 BYTE   N48  Cn4
 BYTE   N48  Ds4  v092
 BYTE   N48  Gs4  v088
 BYTE   W01
 BYTE   N44  Gs2  v076
 BYTE   W01
 BYTE   W10
 BYTE   N12  Ds5  v088
 BYTE   W12
 BYTE   N13  Dn5  v100
 BYTE   W11
// 009   ----------------------------------------
 BYTE   Ds5  v084
 BYTE   W12
 BYTE   N12  Fn5  v104
 BYTE   W03
 BYTE   N18  As3  v064
 BYTE   N13  Dn4  v104
 BYTE   W01
 BYTE   N20  Dn3
 BYTE   N13  Fn4
 BYTE   W08
 BYTE   N11  As4  v084
 BYTE   W14
 BYTE   N48  Gn4  v104
 BYTE   W01
 BYTE   As3  v076
 BYTE   N44  Ds4  v100
 BYTE   W01
 BYTE   Ds3  v104
 BYTE   W12
 BYTE   N12  Gn5  v096
 BYTE   W11
 BYTE   N11  Fn5  v100
 BYTE   W11
 BYTE   N14  Ds5  v080
 BYTE   W12
 BYTE   N09  Fn5  v096
 BYTE   W02
 BYTE   N20  Cn3  v084
 BYTE   W01
 BYTE   N16  Dn4  v104
 BYTE   N17  Fn4  v088
 BYTE   W10
// 010   ----------------------------------------
 BYTE   N07  Dn5  v084
 BYTE   W11
 BYTE   N48  Gs2  v096
 BYTE   W01
 BYTE   N40  Cn4  v100
 BYTE   N36  Ds4  v084
 BYTE   W11
 BYTE   N12  Ds5  v072
 BYTE   W11
 BYTE   N11  Dn5  v104
 BYTE   W12
 BYTE   Cn5  v084
 BYTE   W12
 BYTE   Dn5  v104
 BYTE   W02
 BYTE   N18  Bn3  v088
 BYTE   N19  Dn4  v084
 BYTE   W02
 BYTE   N18  Gn2  v104
 BYTE   W08
 BYTE   N11  Gn4  v088
 BYTE   W14
 BYTE   N44  Cn3  v116
 BYTE   N44  Cn4  v072
 BYTE   N44  Ds4  v064
 BYTE   N44  Gn4
 BYTE   W12
// 011   ----------------------------------------
 BYTE   N11  Cn5  v100
 BYTE   W11
 BYTE   N14  Bn4  v108
 BYTE   W12
 BYTE   N12  Cn5  v116
 BYTE   W11
 BYTE   N08  Dn5  v108
 BYTE   W02
 BYTE   N19  Gn2  v100
 BYTE   W01
 BYTE   N12  Dn4  v096
 BYTE   N12  Fn4  v104
 BYTE   W02
 BYTE   N10  Cn4  v052
 BYTE   W07
 BYTE   Gn4  v080
 BYTE   W12
 BYTE   N36  Ds4  v088
 BYTE   W01
 BYTE   N48  Gs2  v092
 BYTE   N40  Cn4  v072
 BYTE   N40  Gs4  v084
 BYTE   W01
 BYTE   W11
 BYTE   N12  Ds5
 BYTE   W12
 BYTE   N13  Dn5  v092
 BYTE   W11
 BYTE   N14  Ds5  v084
 BYTE   W12
// 012   ----------------------------------------
 BYTE   N17  As3  v072
 BYTE   N12  Fn5  v100
 BYTE   W01
 BYTE   N14  Dn4  v108
 BYTE   N14  Fn4  v100
 BYTE   W01
 BYTE   N19  Dn3  v120
 BYTE   W10
 BYTE   N08  As4  v092
 BYTE   W11
 BYTE   N44  Gn4  v104
 BYTE   W01
 BYTE   N42  As3  v064
 BYTE   N44  Ds4  v096
 BYTE   W02
 BYTE   Ds3  v080
 BYTE   W11
 BYTE   N13  Gn5  v100
 BYTE   W12
 BYTE   N11  Fn5
 BYTE   W11
 BYTE   N13  Ds5  v084
 BYTE   W12
 BYTE   N10  Fn5  v088
 BYTE   W02
 BYTE   N15  Cn3  v104
 BYTE   N20  Dn4  v100
 BYTE   N20  Fn4  v088
 BYTE   W10
 BYTE   N09  Dn5  v104
 BYTE   W11
 BYTE   N44  Gs2  v096
 BYTE   W03
// 013   ----------------------------------------
 BYTE   N40  Cn4  v084
 BYTE   N36  Ds4  v076
 BYTE   W11
 BYTE   N10  Ds5  v096
 BYTE   W11
 BYTE   N11  Dn5  v088
 BYTE   W11
 BYTE   Cn5  v084
 BYTE   W12
 BYTE   N13  Dn5  v100
 BYTE   W02
 BYTE   N17  Bn3  v088
 BYTE   W01
 BYTE   N16  Dn4  v092
 BYTE   W01
 BYTE   N17  Gn2  v104
 BYTE   W11
 BYTE   N12  Bn4  v060
 BYTE   W12
 BYTE   N72  Cn3  v084
 BYTE   TIE  Gn3
 BYTE   TIE  Cn4
 BYTE   TIE  Ds4
 BYTE   W02
 BYTE   Cn5  v092
 BYTE   W68
// 014   ----------------------------------------
 BYTE   W02
 BYTE   N72  As2  v084
 BYTE   W72
 BYTE   EOT
 BYTE   Gn3  v072
 BYTE   Ds4  v084
 BYTE   TIE  An0  v100
 BYTE   TIE  An1  v080
 BYTE   N72  An2  v100
 BYTE   N10  Cn4
 BYTE   N10  Cn5
 BYTE   W09
 BYTE   N11  Bn3  v088
 BYTE   N11  Bn4  v100
 BYTE   W13
// 015   ----------------------------------------
 BYTE   N10  Cn4  v080
 BYTE   N10  Cn5  v100
 BYTE   W10
 BYTE   N14  An3  v076
 BYTE   N14  An4  v100
 BYTE   W14
 BYTE   N12  Bn3  v080
 BYTE   N12  Bn4  v100
 BYTE   W12
 BYTE   N11  En3  v076
 BYTE   N11  En4  v100
 BYTE   W12
 BYTE   N10  Cn4  v088
 BYTE   N10  Cn5  v100
 BYTE   W02
 BYTE   N56  En3
 BYTE   W10
 BYTE   N12  Bn3  v084
 BYTE   N12  Bn4  v100
 BYTE   W12
 BYTE   N13  Cn4  v084
 BYTE   N13  Cn5  v100
 BYTE   W12
 BYTE   An3  v084
 BYTE   N13  An4  v100
 BYTE   W11
 BYTE   N12  Bn3  v084
 BYTE   N12  Bn4  v100
 BYTE   W13
// 016   ----------------------------------------
 BYTE   N09  En3  v072
 BYTE   N09  En4  v100
 BYTE   W12
 BYTE   Fn4  v076
 BYTE   N09  Fn5  v100
 BYTE   W02
 BYTE   EOT
 BYTE   An0  v045
 BYTE   TIE  Dn1
 BYTE   TIE  Dn2  v080
 BYTE   TIE  An2
 BYTE   N72  Dn3  v100
 BYTE   W08
 BYTE   N12  En4  v084
 BYTE   N12  En5  v100
 BYTE   W13
 BYTE   N10  Fn4  v088
 BYTE   N10  Fn5  v100
 BYTE   W12
 BYTE   N13  Dn4  v080
 BYTE   N13  Dn5  v100
 BYTE   W12
 BYTE   N12  En4  v084
 BYTE   N12  En5  v100
 BYTE   W13
 BYTE   N10  An3  v076
 BYTE   N10  An4  v100
 BYTE   W11
 BYTE   N11  Fn4  v088
 BYTE   N11  Fn5  v100
 BYTE   W03
 BYTE   N56  An3
 BYTE   W09
 BYTE   N09  En4  v080
 BYTE   N09  En5  v100
 BYTE   W13
// 017   ----------------------------------------
 BYTE   N10  Fn4  v080
 BYTE   N10  Fn5  v100
 BYTE   W11
 BYTE   N12  Dn4  v072
 BYTE   N12  Dn5  v100
 BYTE   W12
 BYTE   N10  En4  v076
 BYTE   N10  En5  v100
 BYTE   W13
 BYTE   N09  An3  v076
 BYTE   N09  An4  v100
 BYTE   W13
 BYTE   N10  Cn4
 BYTE   N10  Cn5
 BYTE   W01
 BYTE   EOT
 BYTE   Dn1  v050
 BYTE   An2
 BYTE   TIE  An0
 BYTE   TIE  An1  v080
 BYTE   TIE  En2
 BYTE   N72  An2  v100
 BYTE   W09
 BYTE   N12  Bn3  v088
 BYTE   N12  Bn4  v100
 BYTE   W12
 BYTE   Cn4  v068
 BYTE   N12  Cn5  v100
 BYTE   W13
 BYTE   An3  v080
 BYTE   N12  An4  v100
 BYTE   W12
// 018   ----------------------------------------
 BYTE   N10  Bn3  v080
 BYTE   N10  Bn4
 BYTE   W12
 BYTE   N11  En3  v072
 BYTE   N11  En4  v100
 BYTE   W12
 BYTE   N12  Cn4  v076
 BYTE   N12  Cn5  v100
 BYTE   W02
 BYTE   N72  Gn3
 BYTE   W10
 BYTE   N12  Bn3  v072
 BYTE   N12  Bn4  v100
 BYTE   W13
 BYTE   N11  Cn4  v068
 BYTE   N11  Cn5  v100
 BYTE   W11
 BYTE   N13  An3  v084
 BYTE   N13  An4  v100
 BYTE   W11
 BYTE   N10  Bn3  v088
 BYTE   N10  Bn4  v100
 BYTE   W13
 BYTE   N12  En3  v068
 BYTE   N12  En4  v100
 BYTE   W14
// 019   ----------------------------------------
 BYTE   EOT
 BYTE   An0  v045
 BYTE   En2
 BYTE   TIE  As0
 BYTE   TIE  As1  v080
 BYTE   TIE  Fn2
 BYTE   N56  Fn3  v100
 BYTE   N11  Dn4
 BYTE   N11  Dn5
 BYTE   W11
 BYTE   N12  Cn4  v084
 BYTE   N12  Cn5  v100
 BYTE   W12
 BYTE   N11  Dn4  v088
 BYTE   N11  Dn5  v100
 BYTE   W12
 BYTE   N12  As3  v072
 BYTE   N12  As4  v100
 BYTE   W10
 BYTE   N11  Cn4  v080
 BYTE   N11  Cn5  v100
 BYTE   W14
 BYTE   N10  Fn3  v084
 BYTE   N10  Fn4  v100
 BYTE   W12
 BYTE   N11  Dn4  v088
 BYTE   N11  Dn5  v100
 BYTE   W01
 BYTE   N72  As3
 BYTE   W11
 BYTE   N12  Cn4  v076
 BYTE   N12  Cn5  v100
 BYTE   W12
 BYTE   N10  Dn4  v080
 BYTE   N10  Dn5  v100
 BYTE   W12
// 020   ----------------------------------------
 BYTE   N13  As4
 BYTE   W13
 BYTE   N09  Dn4  v076
 BYTE   N09  Dn5  v100
 BYTE   W12
 BYTE   En4  v072
 BYTE   N09  En5  v100
 BYTE   W12
 BYTE   EOT
 BYTE   As0  v046
 BYTE   Fn2
 BYTE   TIE  Dn1
 BYTE   TIE  Dn2  v080
 BYTE   TIE  An2
 BYTE   N60  An3  v100
 BYTE   N09  Fn4  v072
 BYTE   N09  Fn5  v100
 BYTE   W12
 BYTE   En4  v072
 BYTE   N09  En5  v100
 BYTE   W12
 BYTE   Fn4  v072
 BYTE   N09  Fn5  v100
 BYTE   W12
 BYTE   Dn4  v072
 BYTE   N09  Dn5  v100
 BYTE   W12
 BYTE   En4  v072
 BYTE   N09  En5  v100
 BYTE   W12
// 021   ----------------------------------------
 BYTE   An3  v072
 BYTE   N09  An4  v100
 BYTE   W12
 BYTE   N36  Dn4
 BYTE   N09  Fn4  v072
 BYTE   N09  Fn5  v100
 BYTE   W12
 BYTE   En4  v072
 BYTE   N09  En5  v100
 BYTE   W12
 BYTE   Fn4  v072
 BYTE   N09  Fn5  v100
 BYTE   W12
 BYTE   Dn4  v072
 BYTE   N09  Dn5  v100
 BYTE   W12
 BYTE   Fn4  v072
 BYTE   N09  Fn5  v100
 BYTE   W12
 BYTE   Gn4  v072
 BYTE   N09  Gn5  v100
 BYTE   W12
 BYTE   EOT
 BYTE   Dn1  v050
 BYTE   An2
 BYTE   TIE  Fn1
 BYTE   TIE  Fn2  v080
 BYTE   TIE  Cn3
 BYTE   N72  Fn3  v100
 BYTE   N09  Gs4  v072
 BYTE   N09  Gs5  v100
 BYTE   W12
// 022   ----------------------------------------
 BYTE   Gn4  v072
 BYTE   N09  Gn5  v100
 BYTE   W12
 BYTE   Gs4  v072
 BYTE   N09  Gs5  v100
 BYTE   W12
 BYTE   Fn4  v072
 BYTE   N09  Fn5  v100
 BYTE   W12
 BYTE   Gn4  v072
 BYTE   N09  Gn5  v100
 BYTE   W12
 BYTE   Cn4  v072
 BYTE   N09  Cn5  v100
 BYTE   W12
 BYTE   N72  Cn4
 BYTE   N09  Gs4  v072
 BYTE   N09  Gs5  v100
 BYTE   W12
 BYTE   Gn4  v072
 BYTE   N09  Gn5  v100
 BYTE   W12
 BYTE   Gs4  v072
 BYTE   N09  Gs5  v100
 BYTE   W12
// 023   ----------------------------------------
 BYTE   Fn4  v072
 BYTE   N09  Fn5  v100
 BYTE   W12
 BYTE   Gs4  v072
 BYTE   N09  Gs5  v100
 BYTE   W12
 BYTE   As4  v072
 BYTE   N09  As5  v100
 BYTE   W12
 BYTE   EOT
 BYTE   Fn1  v053
 BYTE   Cn3
 BYTE   TIE  Gs0
 BYTE   TIE  Gs1  v080
 BYTE   TIE  Ds2
 BYTE   N72  Ds3  v100
 BYTE   N09  Bn4  v072
 BYTE   N09  Bn5  v100
 BYTE   W12
 BYTE   As4  v072
 BYTE   N09  As5  v100
 BYTE   W12
 BYTE   Bn4  v072
 BYTE   N09  Bn5  v100
 BYTE   W12
 BYTE   Gs4  v072
 BYTE   N09  Gs5  v100
 BYTE   W12
 BYTE   As4  v072
 BYTE   N09  As5  v100
 BYTE   W12
// 024   ----------------------------------------
 BYTE   Ds4  v072
 BYTE   N09  Ds5  v100
 BYTE   W12
 BYTE   N72  Gs3
 BYTE   N09  Bn4  v072
 BYTE   N09  Bn5  v100
 BYTE   W12
 BYTE   As4  v072
 BYTE   N09  As5  v100
 BYTE   W12
 BYTE   Bn4  v072
 BYTE   N09  Bn5  v100
 BYTE   W12
 BYTE   Gs4  v072
 BYTE   N09  Gs5  v100
 BYTE   W12
 BYTE   Bn4  v072
 BYTE   N09  Bn5  v100
 BYTE   W12
 BYTE   Cs5  v072
 BYTE   N09  Cs6  v100
 BYTE   W12
 BYTE   EOT
 BYTE   Gs0  v044
 BYTE   Ds2
 BYTE   N04  Dn2  v092
 BYTE   N04  Dn3  v084
 BYTE   N04  Dn4  v100
 BYTE   N05  Dn5  v088
 BYTE   W23
// 025   ----------------------------------------
 BYTE   Dn2  v104
 BYTE   N05  Dn3  v092
 BYTE   W01
 BYTE   Dn5  v088
 BYTE   W01
 BYTE   N04  Dn4
 BYTE   W32
 BYTE   W01
 BYTE   N12  Dn2  v100
 BYTE   W01
 BYTE   N11  Dn3  v092
 BYTE   N10  Dn4  v104
 BYTE   N12  Dn5  v096
 BYTE   W10
 BYTE   N06  Cs3  v084
 BYTE   N06  Cs4  v068
 BYTE   W01
 BYTE   N05  Cs2  v080
 BYTE   N06  Cs5  v096
 BYTE   W02
 BYTE   W20
 BYTE   N04  Cs4  v104
 BYTE   N04  Cs5  v100
 BYTE   W01
 BYTE   Cs2  v092
 BYTE   N05  Cs3  v084
 BYTE   W44
// 026   ----------------------------------------
 BYTE   W03
 BYTE   Dn2  v108
 BYTE   N05  Dn3  v092
 BYTE   W03
 BYTE   N04  Dn4  v108
 BYTE   N04  Dn5  v096
 BYTE   W01
 BYTE   W22
 BYTE   Dn2  v104
 BYTE   N04  Dn3
 BYTE   W01
 BYTE   Dn4
 BYTE   N04  Dn5  v096
 BYTE   W36
 BYTE   N10  Dn3  v092
 BYTE   N06  Dn4  v080
 BYTE   N07  Dn5  v092
 BYTE   W01
 BYTE   N08  Dn2  v100
 BYTE   W09
 BYTE   N09  Cs2  v072
 BYTE   W01
 BYTE   N08  Cs3  v084
 BYTE   N05  Cs4  v088
 BYTE   W01
 BYTE   N06  Cs5  v096
 BYTE   W01
 BYTE   W20
// 027   ----------------------------------------
 BYTE   N07  Cs3
 BYTE   W01
 BYTE   Cs2
 BYTE   N04  Cs4  v104
 BYTE   N04  Cs5  v096
 BYTE   W48
 BYTE   N06  Cn2  v104
 BYTE   N07  Cn3
 BYTE   N05  Cn4
 BYTE   N06  Cn5  v100
 BYTE   W03
 BYTE   W20
 BYTE   N09  Cn3  v092
 BYTE   W01
 BYTE   N07  Cn2  v088
 BYTE   W01
 BYTE   N05  Cn4  v104
 BYTE   N05  Cn5  v080
 BYTE   W32
// 028   ----------------------------------------
 BYTE   W03
 BYTE   N11  Cn2  v088
 BYTE   W01
 BYTE   N09  Cn3  v092
 BYTE   W01
 BYTE   N13  Cn4  v084
 BYTE   N12  Cn5  v088
 BYTE   W09
 BYTE   N09  Bn2
 BYTE   W01
 BYTE   N08  Bn1  v092
 BYTE   W01
 BYTE   N06  Bn3  v088
 BYTE   N06  Bn4  v080
 BYTE   W02
 BYTE   W20
 BYTE   N07  Bn1  v104
 BYTE   W01
 BYTE   N06  Bn2  v100
 BYTE   N05  Bn3  v080
 BYTE   N05  Bn4  v092
 BYTE   W48
 BYTE   W01
 BYTE   N06  Cn2  v100
 BYTE   N07  Cn3  v104
 BYTE   W02
 BYTE   N05  Cn4  v088
 BYTE   N05  Cn5  v096
 BYTE   W22
// 029   ----------------------------------------
 BYTE   N07  Cn3  v100
 BYTE   W01
 BYTE   N18  Cn2  v092
 BYTE   N05  Cn4  v104
 BYTE   W01
 BYTE   Cn5
 BYTE   W32
 BYTE   W02
 BYTE   N10  Cn5  v084
 BYTE   W01
 BYTE   N09  Cn4  v092
 BYTE   W01
 BYTE   N08  Cn3  v104
 BYTE   W01
 BYTE   Cn2  v100
 BYTE   W07
 BYTE   N10  Bn2  v092
 BYTE   N06  Bn3  v096
 BYTE   N06  Bn4  v092
 BYTE   W01
 BYTE   N09  Bn1
 BYTE   W03
 BYTE   W18
 BYTE   N08  Bn2  v096
 BYTE   W01
 BYTE   N07  Bn1  v088
 BYTE   W01
 BYTE   N06  Bn3  v120
 BYTE   N05  Bn4  v116
 BYTE   W52
// 030   ----------------------------------------
 BYTE   W01
 BYTE   TIE  Gn2  v092
 BYTE   TIE  Gn3  v072
 BYTE   TIE  Dn5  v088
 BYTE   TIE  Gn5  v072
 BYTE   W02
 BYTE   Gn1  v052
 BYTE   W09
 BYTE   VOL   34*ChronoTriggerTheTrialRandomWizard_mvl/mxv
 BYTE   W07
 BYTE   As0
 BYTE   W06
 BYTE   An0
 BYTE   W06
 BYTE   An0
 BYTE   W06
 BYTE   An0
 BYTE   W06
 BYTE   Gs0
 BYTE   W06
 BYTE   Gs0
 BYTE   W06
 BYTE   Gs0
 BYTE   W06
 BYTE   Gn0
 BYTE   W06
 BYTE   Gn0
 BYTE   W05
 BYTE   W01
 BYTE   Gn0
 BYTE   W06
 BYTE   Fs0
 BYTE   W06
 BYTE   Fs0
 BYTE   W06
 BYTE   Fs0
 BYTE   W06
// 031   ----------------------------------------
 BYTE   Fn0
 BYTE   W06
 BYTE   Fn0
 BYTE   W06
 BYTE   Fn0
 BYTE   W06
 BYTE   En0
 BYTE   W06
 BYTE   En0
 BYTE   W06
 BYTE   En0
 BYTE   W06
 BYTE   En0
 BYTE   W06
 BYTE   Ds0
 BYTE   W05
 BYTE   W01
 BYTE   Ds0
 BYTE   W07
 BYTE   Ds0
 BYTE   W06
 BYTE   Dn0
 BYTE   W06
 BYTE   Dn0
 BYTE   W06
 BYTE   Dn0
 BYTE   W06
 BYTE   Cs0
 BYTE   W06
 BYTE   Cs0
 BYTE   W06
 BYTE   Cs0
 BYTE   W06
// 032   ----------------------------------------
 BYTE   Cn0
 BYTE   W06
 BYTE   Cn0
 BYTE   W06
 BYTE   Cn0
 BYTE   W06
 BYTE   BnM1
 BYTE   W04
 BYTE   W02
 BYTE   BnM1
 BYTE   W06
 BYTE   BnM1
 BYTE   W06
 BYTE   AsM1
 BYTE   W06
 BYTE   AsM1
 BYTE   W06
 BYTE   AsM1
 BYTE   W06
 BYTE   AsM1
 BYTE   W06
 BYTE   AnM1
 BYTE   W06
 BYTE   AnM1
 BYTE   W06
 BYTE   AnM1
 BYTE   W06
 BYTE   GsM1
 BYTE   W06
 BYTE   GsM1
 BYTE   W02
 BYTE   EOT
 BYTE   Gn2  v067
 BYTE   Dn5
 BYTE   W01
 BYTE   Gn5
 BYTE   W01
 BYTE   Gn1
 BYTE   W02
 BYTE   VOL   20*ChronoTriggerTheTrialRandomWizard_mvl/mxv
 BYTE   W04
 BYTE   GoTo
  POIN2 Label_3_015D92B2
 BYTE   FINE

//**************** Track 5 (Midi-Chn.4) ****************//

ChronoTriggerTheTrialRandomWizard_005:
// 000   ----------------------------------------
 BYTE   KEYSH   ChronoTriggerTheTrialRandomWizard_key+0
Label_4_5466C0:
 BYTE   VOICE   13
 BYTE   VOL   37*ChronoTriggerTheTrialRandomWizard_mvl/mxv
 BYTE   PAN   c_v-44
 BYTE   W96
// 001   ----------------------------------------
 BYTE   W96
// 002   ----------------------------------------
 BYTE   W96
// 003   ----------------------------------------
 BYTE   W96
// 004   ----------------------------------------
 BYTE   W96
// 005   ----------------------------------------
 BYTE   W96
// 006   ----------------------------------------
 BYTE   W96
// 007   ----------------------------------------
 BYTE   W96
// 008   ----------------------------------------
 BYTE   W96
// 009   ----------------------------------------
 BYTE   W96
// 010   ----------------------------------------
 BYTE   W96
// 011   ----------------------------------------
 BYTE   VOL   35*ChronoTriggerTheTrialRandomWizard_mvl/mxv
 BYTE   W13
 BYTE   As0
 BYTE   W24
 BYTE   W01
 BYTE   An0
 BYTE   W01
 BYTE   An0
 BYTE   W01
 BYTE   Gs0
 BYTE   W03
 BYTE   Gn0
 BYTE   W32
 BYTE   W02
 BYTE   Gn0
 BYTE   W19
// 012   ----------------------------------------
 BYTE   W12
 BYTE   N06  Gn4  v100
 BYTE   W06
 BYTE   VOL   31*ChronoTriggerTheTrialRandomWizard_mvl/mxv
 BYTE   W06
 BYTE   N12  Fs4
 BYTE   W05
 BYTE   VOL   31*ChronoTriggerTheTrialRandomWizard_mvl/mxv
 BYTE   W03
 BYTE   Fs0
 BYTE   W04
 BYTE   Fn0
 BYTE   N06  Gn4
 BYTE   W04
 BYTE   VOL   28*ChronoTriggerTheTrialRandomWizard_mvl/mxv
 BYTE   W01
 BYTE   En0
 BYTE   W01
 BYTE   Ds0
 BYTE   W01
 BYTE   Dn0
 BYTE   W01
 BYTE   Cn0
 BYTE   W01
 BYTE   BnM1
 BYTE   W01
 BYTE   AsM1
 BYTE   W01
 BYTE   AnM1
 BYTE   W01
 BYTE   N04  Gs4
 BYTE   W04
 BYTE   VOL   22*ChronoTriggerTheTrialRandomWizard_mvl/mxv
 BYTE   N04
 BYTE   W01
 BYTE   VOL   22*ChronoTriggerTheTrialRandomWizard_mvl/mxv
 BYTE   W01
 BYTE   BnM1
 BYTE   W01
 BYTE   Cn0
 BYTE   W01
 BYTE   Cn0
 BYTE   N04
 BYTE   W01
 BYTE   VOL   25*ChronoTriggerTheTrialRandomWizard_mvl/mxv
 BYTE   W01
 BYTE   Cs0
 BYTE   W01
 BYTE   Dn0
 BYTE   W01
 BYTE   Dn0
 BYTE   N04
 BYTE   W01
 BYTE   VOL   27*ChronoTriggerTheTrialRandomWizard_mvl/mxv
 BYTE   W01
 BYTE   Ds0
 BYTE   W01
 BYTE   En0
 BYTE   W01
 BYTE   En0
 BYTE   N04
 BYTE   W03
 BYTE   VOL   29*ChronoTriggerTheTrialRandomWizard_mvl/mxv
 BYTE   W01
 BYTE   N04
 BYTE   W02
 BYTE   VOL   30*ChronoTriggerTheTrialRandomWizard_mvl/mxv
 BYTE   W02
 BYTE   N04
 BYTE   W01
 BYTE   VOL   31*ChronoTriggerTheTrialRandomWizard_mvl/mxv
 BYTE   W02
 BYTE   Gn0
 BYTE   W01
 BYTE   Gs0
 BYTE   N04
 BYTE   W03
 BYTE   VOL   33*ChronoTriggerTheTrialRandomWizard_mvl/mxv
 BYTE   W01
 BYTE   N04
 BYTE   W03
 BYTE   VOL   34*ChronoTriggerTheTrialRandomWizard_mvl/mxv
 BYTE   W01
 BYTE   N06  Gn4
 BYTE   W04
 BYTE   VOL   32*ChronoTriggerTheTrialRandomWizard_mvl/mxv
 BYTE   W04
 BYTE   Gn0
 BYTE   W04
// 013   ----------------------------------------
 BYTE   N12  Fs4
 BYTE   W01
 BYTE   VOL   31*ChronoTriggerTheTrialRandomWizard_mvl/mxv
 BYTE   W01
 BYTE   Fs0
 BYTE   W10
 BYTE   Gn0
 BYTE   N06  Gn4
 BYTE   W01
 BYTE   VOL   33*ChronoTriggerTheTrialRandomWizard_mvl/mxv
 BYTE   W01
 BYTE   An0
 BYTE   W01
 BYTE   An0
 BYTE   W05
 BYTE   Gs0
 BYTE   W01
 BYTE   Gn0
 BYTE   W01
 BYTE   Gn0
 BYTE   W01
 BYTE   Fs0
 BYTE   W01
 BYTE   N06  Dn4
 BYTE   W10
 BYTE   VOL   31*ChronoTriggerTheTrialRandomWizard_mvl/mxv
 BYTE   W05
 BYTE   Fn0
 BYTE   W01
 BYTE   En0
 BYTE   W01
 BYTE   Ds0
 BYTE   W01
 BYTE   Cs0
 BYTE   W01
 BYTE   Cn0
 BYTE   W01
 BYTE   AsM1
 BYTE   W01
 BYTE   AsM1
 BYTE   W01
 BYTE   AnM1
 BYTE   W01
 BYTE   GsM1
 BYTE   W01
 BYTE   N04  Fn4
 BYTE   W03
 BYTE   VOL   21*ChronoTriggerTheTrialRandomWizard_mvl/mxv
 BYTE   W01
 BYTE   AsM1
 BYTE   N04
 BYTE   W01
 BYTE   VOL   22*ChronoTriggerTheTrialRandomWizard_mvl/mxv
 BYTE   W01
 BYTE   BnM1
 BYTE   W02
 BYTE   N04
 BYTE   W01
 BYTE   VOL   24*ChronoTriggerTheTrialRandomWizard_mvl/mxv
 BYTE   W01
 BYTE   Cn0
 BYTE   W02
 BYTE   N04
 BYTE   W01
 BYTE   VOL   26*ChronoTriggerTheTrialRandomWizard_mvl/mxv
 BYTE   W03
 BYTE   Dn0
 BYTE   N04
 BYTE   W03
 BYTE   VOL   27*ChronoTriggerTheTrialRandomWizard_mvl/mxv
 BYTE   W01
 BYTE   N04
 BYTE   W01
 BYTE   VOL   28*ChronoTriggerTheTrialRandomWizard_mvl/mxv
 BYTE   W02
 BYTE   Fn0
 BYTE   W01
 BYTE   Fn0
 BYTE   N04
 BYTE   W01
 BYTE   VOL   30*ChronoTriggerTheTrialRandomWizard_mvl/mxv
 BYTE   W03
 BYTE   Fs0
 BYTE   N04
 BYTE   W04
 BYTE   N04
 BYTE   W01
 BYTE   VOL   30*ChronoTriggerTheTrialRandomWizard_mvl/mxv
 BYTE   W01
 BYTE   Fn0
 BYTE   W02
 BYTE   N06  Ds4
 BYTE   W12
// 014   ----------------------------------------
 BYTE   W02
 BYTE   VOL   28*ChronoTriggerTheTrialRandomWizard_mvl/mxv
 BYTE   W05
 BYTE   En0
 BYTE   W01
 BYTE   Ds0
 BYTE   W01
 BYTE   Dn0
 BYTE   W01
 BYTE   Dn0
 BYTE   W01
 BYTE   Cs0
 BYTE   W01
 BYTE   N06  Cn4
 BYTE   W04
 BYTE   VOL   27*ChronoTriggerTheTrialRandomWizard_mvl/mxv
 BYTE   W01
 BYTE   Ds0
 BYTE   W01
 BYTE   En0
 BYTE   W01
 BYTE   En0
 BYTE   W01
 BYTE   Fn0
 BYTE   W01
 BYTE   Fn0
 BYTE   W03
 BYTE   N12  Bn3
 BYTE   W05
 BYTE   VOL   29*ChronoTriggerTheTrialRandomWizard_mvl/mxv
 BYTE   W01
 BYTE   En0
 BYTE   W01
 BYTE   En0
 BYTE   W01
 BYTE   Ds0
 BYTE   W01
 BYTE   Dn0
 BYTE   W03
 BYTE   N12  Cn4
 BYTE   W03
 BYTE   VOL   27*ChronoTriggerTheTrialRandomWizard_mvl/mxv
 BYTE   W01
 BYTE   En0
 BYTE   W04
 BYTE   Dn0
 BYTE   W01
 BYTE   Cs0
 BYTE   W01
 BYTE   Cs0
 BYTE   W01
 BYTE   Cn0
 BYTE   W01
 BYTE   BnM1
 BYTE   N06  Dn4
 BYTE   W01
 BYTE   VOL   23*ChronoTriggerTheTrialRandomWizard_mvl/mxv
 BYTE   W11
 BYTE   Cn0
 BYTE   W09
 BYTE   Cs0
 BYTE   W01
 BYTE   Dn0
 BYTE   W01
 BYTE   Dn0
 BYTE   W01
 BYTE   Ds0
 BYTE   N06  Gn3
 BYTE   W01
 BYTE   VOL   27*ChronoTriggerTheTrialRandomWizard_mvl/mxv
 BYTE   W01
 BYTE   En0
 BYTE   W04
 BYTE   En0
 BYTE   W04
 BYTE   Ds0
 BYTE   W01
 BYTE   Dn0
 BYTE   W01
 BYTE   Cs0
 BYTE   W01
 BYTE   Cn0
 BYTE   W01
 BYTE   BnM1
 BYTE   W01
 BYTE   AsM1
 BYTE   W01
 BYTE   AsM1
 BYTE   W08
// 015   ----------------------------------------
 BYTE   N04  Gs3
 BYTE   W04
 BYTE   N04
 BYTE   W02
 BYTE   VOL   23*ChronoTriggerTheTrialRandomWizard_mvl/mxv
 BYTE   W02
 BYTE   N04
 BYTE   W01
 BYTE   VOL   24*ChronoTriggerTheTrialRandomWizard_mvl/mxv
 BYTE   W01
 BYTE   Cn0
 BYTE   W02
 BYTE   Cs0
 BYTE   N04
 BYTE   W04
 BYTE   VOL   26*ChronoTriggerTheTrialRandomWizard_mvl/mxv
 BYTE   N04
 BYTE   W04
 BYTE   VOL   27*ChronoTriggerTheTrialRandomWizard_mvl/mxv
 BYTE   N04
 BYTE   W03
 BYTE   VOL   27*ChronoTriggerTheTrialRandomWizard_mvl/mxv
 BYTE   W01
 BYTE   N06
 BYTE   W03
 BYTE   VOL   28*ChronoTriggerTheTrialRandomWizard_mvl/mxv
 BYTE   W02
 BYTE   Fn0
 BYTE   W01
 BYTE   Fn0
 BYTE   W03
 BYTE   Fs0
 BYTE   W03
 BYTE   N06  Gn3
 BYTE   W01
 BYTE   VOL   31*ChronoTriggerTheTrialRandomWizard_mvl/mxv
 BYTE   W03
 BYTE   Gs0
 BYTE   W02
 BYTE   N06  Gs3
 BYTE   W05
 BYTE   VOL   31*ChronoTriggerTheTrialRandomWizard_mvl/mxv
 BYTE   W01
 BYTE   N24  Gn3
 BYTE   W07
 BYTE   VOL   32*ChronoTriggerTheTrialRandomWizard_mvl/mxv
 BYTE   W09
 BYTE   An0
 BYTE   W09
 BYTE   As0
 BYTE   W23
// 016   ----------------------------------------
 BYTE   W02
 BYTE   Gs0
 BYTE   W01
 BYTE   Gs0
 BYTE   W01
 BYTE   Gn0
 BYTE   W08
 BYTE   N06  Gn4
 BYTE   W06
 BYTE   VOL   32*ChronoTriggerTheTrialRandomWizard_mvl/mxv
 BYTE   W04
 BYTE   An0
 BYTE   W02
 BYTE   N12  Fs4
 BYTE   W01
 BYTE   VOL   34*ChronoTriggerTheTrialRandomWizard_mvl/mxv
 BYTE   W04
 BYTE   As0
 BYTE   W02
 BYTE   As0
 BYTE   W01
 BYTE   An0
 BYTE   W01
 BYTE   Gs0
 BYTE   W01
 BYTE   Fs0
 BYTE   W01
 BYTE   Fn0
 BYTE   W01
 BYTE   Ds0
 BYTE   N06  Gn4
 BYTE   W01
 BYTE   VOL   25*ChronoTriggerTheTrialRandomWizard_mvl/mxv
 BYTE   W01
 BYTE   BnM1
 BYTE   W01
 BYTE   BnM1
 BYTE   W01
 BYTE   AsM1
 BYTE   W08
 BYTE   N04  Gs4
 BYTE   W03
 BYTE   VOL   23*ChronoTriggerTheTrialRandomWizard_mvl/mxv
 BYTE   W01
 BYTE   N04
 BYTE   W02
 BYTE   VOL   24*ChronoTriggerTheTrialRandomWizard_mvl/mxv
 BYTE   W02
 BYTE   Cs0
 BYTE   N04
 BYTE   W01
 BYTE   VOL   25*ChronoTriggerTheTrialRandomWizard_mvl/mxv
 BYTE   W01
 BYTE   Dn0
 BYTE   W02
 BYTE   Dn0
 BYTE   N04
 BYTE   W01
 BYTE   VOL   27*ChronoTriggerTheTrialRandomWizard_mvl/mxv
 BYTE   W01
 BYTE   Ds0
 BYTE   W02
 BYTE   N04
 BYTE   W01
 BYTE   VOL   28*ChronoTriggerTheTrialRandomWizard_mvl/mxv
 BYTE   W03
 BYTE   N04
 BYTE   W01
 BYTE   VOL   29*ChronoTriggerTheTrialRandomWizard_mvl/mxv
 BYTE   W02
 BYTE   Fs0
 BYTE   W01
 BYTE   N04
 BYTE   W01
 BYTE   VOL   31*ChronoTriggerTheTrialRandomWizard_mvl/mxv
 BYTE   W01
 BYTE   Gs0
 BYTE   W01
 BYTE   Gs0
 BYTE   W01
 BYTE   N04
 BYTE   W01
 BYTE   VOL   33*ChronoTriggerTheTrialRandomWizard_mvl/mxv
 BYTE   W03
 BYTE   As0
 BYTE   N04
 BYTE   W01
 BYTE   VOL   34*ChronoTriggerTheTrialRandomWizard_mvl/mxv
 BYTE   W01
 BYTE   As0
 BYTE   W02
 BYTE   N06  Gn4
 BYTE   W06
 BYTE   VOL   33*ChronoTriggerTheTrialRandomWizard_mvl/mxv
 BYTE   W01
 BYTE   An0
 BYTE   W01
 BYTE   An0
 BYTE   W04
// 017   ----------------------------------------
 BYTE   N12  Fs4
 BYTE   W12
 BYTE   N06  Gn4
 BYTE   W12
 BYTE   Dn4
 BYTE   W06
 BYTE   VOL   32*ChronoTriggerTheTrialRandomWizard_mvl/mxv
 BYTE   W01
 BYTE   Gn0
 BYTE   W01
 BYTE   Gn0
 BYTE   W01
 BYTE   Fs0
 BYTE   W01
 BYTE   Fn0
 BYTE   W01
 BYTE   En0
 BYTE   W01
 BYTE   Ds0
 BYTE   W01
 BYTE   Dn0
 BYTE   W01
 BYTE   Cn0
 BYTE   W01
 BYTE   Cn0
 BYTE   W01
 BYTE   AsM1
 BYTE   W01
 BYTE   AnM1
 BYTE   W01
 BYTE   GsM1
 BYTE   W01
 BYTE   GsM1
 BYTE   W05
 BYTE   N04  Fn4
 BYTE   W02
 BYTE   VOL   21*ChronoTriggerTheTrialRandomWizard_mvl/mxv
 BYTE   W01
 BYTE   AsM1
 BYTE   W01
 BYTE   AsM1
 BYTE   N04
 BYTE   W01
 BYTE   VOL   22*ChronoTriggerTheTrialRandomWizard_mvl/mxv
 BYTE   W01
 BYTE   BnM1
 BYTE   W01
 BYTE   BnM1
 BYTE   W01
 BYTE   Cn0
 BYTE   N04
 BYTE   W01
 BYTE   VOL   25*ChronoTriggerTheTrialRandomWizard_mvl/mxv
 BYTE   W01
 BYTE   Cs0
 BYTE   W01
 BYTE   Dn0
 BYTE   W01
 BYTE   N04
 BYTE   W02
 BYTE   VOL   26*ChronoTriggerTheTrialRandomWizard_mvl/mxv
 BYTE   W02
 BYTE   N04
 BYTE   W01
 BYTE   VOL   28*ChronoTriggerTheTrialRandomWizard_mvl/mxv
 BYTE   W01
 BYTE   En0
 BYTE   W01
 BYTE   Fn0
 BYTE   W01
 BYTE   Fn0
 BYTE   N04
 BYTE   W01
 BYTE   VOL   29*ChronoTriggerTheTrialRandomWizard_mvl/mxv
 BYTE   W02
 BYTE   Fs0
 BYTE   W01
 BYTE   Gn0
 BYTE   N04
 BYTE   W03
 BYTE   VOL   32*ChronoTriggerTheTrialRandomWizard_mvl/mxv
 BYTE   W01
 BYTE   N04
 BYTE   W04
 BYTE   N04
 BYTE   W04
 BYTE   N06  Ds4
 BYTE   W12
// 018   ----------------------------------------
 BYTE   W12
 BYTE   Cn4
 BYTE   W06
 BYTE   VOL   31*ChronoTriggerTheTrialRandomWizard_mvl/mxv
 BYTE   W01
 BYTE   Fs0
 BYTE   W01
 BYTE   Fs0
 BYTE   W01
 BYTE   Fs0
 BYTE   W02
 BYTE   Fn0
 BYTE   W01
 BYTE   En0
 BYTE   N12  Bn3
 BYTE   W01
 BYTE   VOL   28*ChronoTriggerTheTrialRandomWizard_mvl/mxv
 BYTE   W01
 BYTE   Ds0
 BYTE   W01
 BYTE   Ds0
 BYTE   W01
 BYTE   Cs0
 BYTE   W01
 BYTE   Cs0
 BYTE   W01
 BYTE   BnM1
 BYTE   W01
 BYTE   BnM1
 BYTE   W01
 BYTE   AsM1
 BYTE   W01
 BYTE   AnM1
 BYTE   W01
 BYTE   GsM1
 BYTE   W01
 BYTE   GnM1
 BYTE   W01
 BYTE   GnM1
 BYTE   N12  Cn4
 BYTE   W06
 BYTE   VOL   20*ChronoTriggerTheTrialRandomWizard_mvl/mxv
 BYTE   W01
 BYTE   GsM1
 BYTE   W02
 BYTE   AsM1
 BYTE   W01
 BYTE   BnM1
 BYTE   W01
 BYTE   BnM1
 BYTE   W01
 BYTE   Cn0
 BYTE   N06  Dn4
 BYTE   W01
 BYTE   VOL   25*ChronoTriggerTheTrialRandomWizard_mvl/mxv
 BYTE   W01
 BYTE   Cs0
 BYTE   W01
 BYTE   Cs0
 BYTE   W17
 BYTE   Ds0
 BYTE   W01
 BYTE   Ds0
 BYTE   W01
 BYTE   En0
 BYTE   W02
 BYTE   N06  Gn3
 BYTE   W01
 BYTE   VOL   28*ChronoTriggerTheTrialRandomWizard_mvl/mxv
 BYTE   W03
 BYTE   Fn0
 BYTE   W04
 BYTE   En0
 BYTE   W01
 BYTE   En0
 BYTE   W01
 BYTE   Dn0
 BYTE   W01
 BYTE   Dn0
 BYTE   W01
 BYTE   Cs0
 BYTE   W01
 BYTE   Cn0
 BYTE   W01
 BYTE   BnM1
 BYTE   W01
 BYTE   BnM1
 BYTE   W01
 BYTE   AsM1
 BYTE   W01
 BYTE   AsM1
 BYTE   W01
 BYTE   AnM1
 BYTE   W01
 BYTE   AnM1
 BYTE   W05
// 019   ----------------------------------------
 BYTE   N04  Cn4
 BYTE   W03
 BYTE   VOL   22*ChronoTriggerTheTrialRandomWizard_mvl/mxv
 BYTE   W01
 BYTE   N04
 BYTE   W02
 BYTE   VOL   22*ChronoTriggerTheTrialRandomWizard_mvl/mxv
 BYTE   W02
 BYTE   N04
 BYTE   W01
 BYTE   VOL   23*ChronoTriggerTheTrialRandomWizard_mvl/mxv
 BYTE   W01
 BYTE   Cn0
 BYTE   W01
 BYTE   Cs0
 BYTE   W01
 BYTE   N04
 BYTE   W02
 BYTE   VOL   25*ChronoTriggerTheTrialRandomWizard_mvl/mxv
 BYTE   W02
 BYTE   N04
 BYTE   W01
 BYTE   VOL   26*ChronoTriggerTheTrialRandomWizard_mvl/mxv
 BYTE   W03
 BYTE   Ds0
 BYTE   N04
 BYTE   W03
 BYTE   VOL   28*ChronoTriggerTheTrialRandomWizard_mvl/mxv
 BYTE   W01
 BYTE   N04
 BYTE   W02
 BYTE   VOL   29*ChronoTriggerTheTrialRandomWizard_mvl/mxv
 BYTE   W01
 BYTE   Fn0
 BYTE   W01
 BYTE   N04
 BYTE   W02
 BYTE   VOL   30*ChronoTriggerTheTrialRandomWizard_mvl/mxv
 BYTE   W02
 BYTE   N04
 BYTE   W01
 BYTE   VOL   31*ChronoTriggerTheTrialRandomWizard_mvl/mxv
 BYTE   W03
 BYTE   N04
 BYTE   W01
 BYTE   VOL   31*ChronoTriggerTheTrialRandomWizard_mvl/mxv
 BYTE   W03
 BYTE   N04
 BYTE   W02
 BYTE   VOL   32*ChronoTriggerTheTrialRandomWizard_mvl/mxv
 BYTE   W02
 BYTE   N04
 BYTE   W01
 BYTE   VOL   33*ChronoTriggerTheTrialRandomWizard_mvl/mxv
 BYTE   W03
 BYTE   N12
 BYTE   W48
// 020   ----------------------------------------
 BYTE   W72
 BYTE   W72
// 021   ----------------------------------------
 BYTE   W72
 BYTE   W72
// 022   ----------------------------------------
 BYTE   W72
 BYTE   W72
// 023   ----------------------------------------
 BYTE   W72
 BYTE   W72
// 024   ----------------------------------------
 BYTE   W72
 BYTE   W72
// 025   ----------------------------------------
 BYTE   W72
 BYTE   W72
// 026   ----------------------------------------
 BYTE   W72
 BYTE   W72
// 027   ----------------------------------------
 BYTE   W72
 BYTE   W72
// 028   ----------------------------------------
 BYTE   W72
 BYTE   W72
// 029   ----------------------------------------
 BYTE   W72
 BYTE   W72
// 030   ----------------------------------------
 BYTE   W72
 BYTE   W72
// 031   ----------------------------------------
 BYTE   W72
 BYTE   W72
// 032   ----------------------------------------
 BYTE   W72
 BYTE   W72
// 033   ----------------------------------------
 BYTE   W72
 BYTE   W72
// 034   ----------------------------------------
 BYTE   W72
 BYTE   W72
// 035   ----------------------------------------
 BYTE   W72
 BYTE   W72
// 036   ----------------------------------------
 BYTE   W72
 BYTE   W72
// 037   ----------------------------------------
 BYTE   W72
 BYTE   W72
// 038   ----------------------------------------
 BYTE   GoTo
  POIN2 Label_4_5466C0
 BYTE   FINE

//**************** Track 6 (Midi-Chn.5) ****************//

ChronoTriggerTheTrialRandomWizard_006:
// 000   ----------------------------------------
 BYTE   KEYSH   ChronoTriggerTheTrialRandomWizard_key+0
Label_5_546E4C:
 BYTE   VOICE   127
 BYTE   VOL   40*ChronoTriggerTheTrialRandomWizard_mvl/mxv
 BYTE   PAN   c_v+0
 BYTE   W24
 BYTE   N02  Fs2  v127
 BYTE   W03
 BYTE   Fs2  v068
 BYTE   W03
 BYTE   Fs2  v060
 BYTE   W03
 BYTE   Fs2  v052
 BYTE   W03
 BYTE   Fs2  v040
 BYTE   W03
 BYTE   Fs2  v032
 BYTE   W03
 BYTE   Fs2  v024
 BYTE   W03
 BYTE   Fs2  v016
 BYTE   W24
 BYTE   W03
 BYTE   Fs2  v127
 BYTE   W03
 BYTE   Fs2  v068
 BYTE   W03
 BYTE   Fs2  v060
 BYTE   W03
 BYTE   Fs2  v052
 BYTE   W03
 BYTE   Fs2  v040
 BYTE   W03
 BYTE   Fs2  v032
 BYTE   W03
 BYTE   Fs2  v024
 BYTE   W03
 BYTE   Fs2  v016
 BYTE   W03
// 001   ----------------------------------------
Label_5_546E85:
 BYTE   W24
 BYTE   N02  Fs2  v127
 BYTE   W03
 BYTE   Fs2  v068
 BYTE   W03
 BYTE   Fs2  v060
 BYTE   W03
 BYTE   Fs2  v052
 BYTE   W03
 BYTE   Fs2  v040
 BYTE   W03
 BYTE   Fs2  v032
 BYTE   W03
 BYTE   Fs2  v024
 BYTE   W03
 BYTE   Fs2  v016
 BYTE   W24
 BYTE   W03
 BYTE   Fs2  v127
 BYTE   W03
 BYTE   Fs2  v068
 BYTE   W03
 BYTE   Fs2  v060
 BYTE   W03
 BYTE   Fs2  v052
 BYTE   W03
 BYTE   Fs2  v040
 BYTE   W03
 BYTE   Fs2  v032
 BYTE   W03
 BYTE   Fs2  v024
 BYTE   W03
 BYTE   Fs2  v016
 BYTE   W03
 BYTE   PEND 
 BYTE   PATT
  POIN2 Label_5_546E85
 BYTE   PATT
  POIN2 Label_5_546E85
 BYTE   PATT
  POIN2 Label_5_546E85
 BYTE   PATT
  POIN2 Label_5_546E85
 BYTE   PATT
  POIN2 Label_5_546E85
 BYTE   PATT
  POIN2 Label_5_546E85
 BYTE   PATT
  POIN2 Label_5_546E85
 BYTE   PATT
  POIN2 Label_5_546E85
 BYTE   PATT
  POIN2 Label_5_546E85
 BYTE   PATT
  POIN2 Label_5_546E85
 BYTE   PATT
  POIN2 Label_5_546E85
 BYTE   PATT
  POIN2 Label_5_546E85
 BYTE   PATT
  POIN2 Label_5_546E85
 BYTE   PATT
  POIN2 Label_5_546E85
 BYTE   PATT
  POIN2 Label_5_546E85
 BYTE   PATT
  POIN2 Label_5_546E85
 BYTE   PATT
  POIN2 Label_5_546E85
 BYTE   PATT
  POIN2 Label_5_546E85
// 002   ----------------------------------------
Label_5_546F13:
 BYTE   N02  Bn2  v112
 BYTE   W24
 BYTE   Bn2  v052
 BYTE   W06
 BYTE   N02
 BYTE   W06
 BYTE   Bn2  v072
 BYTE   W12
 BYTE   Bn2  v112
 BYTE   W24
 BYTE   PEND 
Label_5_546F23:
 BYTE   N02  Bn2  v112
 BYTE   W24
// 003   ----------------------------------------
 BYTE   Bn2  v072
 BYTE   W12
 BYTE   N02
 BYTE   W12
 BYTE   Bn2  v112
 BYTE   W24
 BYTE   PEND 
Label_5_546F30:
 BYTE   N02  Bn2  v112
 BYTE   W24
 BYTE   Bn2  v072
 BYTE   W12
 BYTE   Bn2  v052
 BYTE   W06
 BYTE   Bn2  v072
 BYTE   W06
// 004   ----------------------------------------
 BYTE   Bn2  v112
 BYTE   W12
 BYTE   Bn2  v072
 BYTE   W12
 BYTE   PEND 
Label_5_546F44:
 BYTE   N02  Bn2  v112
 BYTE   W24
 BYTE   Bn2  v072
 BYTE   W12
 BYTE   N02
 BYTE   W12
 BYTE   Bn2  v112
 BYTE   W12
 BYTE   Bn2  v072
 BYTE   W12
 BYTE   PEND 
 BYTE   PATT
  POIN2 Label_5_546F13
 BYTE   PATT
  POIN2 Label_5_546F23
 BYTE   PATT
  POIN2 Label_5_546F30
 BYTE   PATT
  POIN2 Label_5_546F44
// 005   ----------------------------------------
Label_5_546F68:
 BYTE   N02  Bn2  v112
 BYTE   W24
 BYTE   Bn2  v072
 BYTE   W24
 BYTE   N02
 BYTE   W24
 BYTE   PEND 
 BYTE   PATT
  POIN2 Label_5_546F68
// 006   ----------------------------------------
Label_5_546F77:
 BYTE   N02  Bn2  v112
 BYTE   W24
 BYTE   Bn2  v072
 BYTE   W12
 BYTE   Bn2  v112
 BYTE   W12
 BYTE   Bn2  v072
 BYTE   W12
 BYTE   N02
 BYTE   W12
 BYTE   PEND 
Label_5_546F87:
 BYTE   N02  Bn2  v112
 BYTE   W24
// 007   ----------------------------------------
 BYTE   Bn2  v072
 BYTE   W12
 BYTE   Bn2  v112
 BYTE   W12
 BYTE   Bn2  v072
 BYTE   W06
 BYTE   N02
 BYTE   W06
 BYTE   N02
 BYTE   W12
 BYTE   PEND 
 BYTE   PATT
  POIN2 Label_5_546F77
 BYTE   PATT
  POIN2 Label_5_546F87
 BYTE   PATT
  POIN2 Label_5_546F77
 BYTE   PATT
  POIN2 Label_5_546F87
 BYTE   PATT
  POIN2 Label_5_546F77
 BYTE   PATT
  POIN2 Label_5_546F87
 BYTE   PATT
  POIN2 Label_5_546F77
 BYTE   PATT
  POIN2 Label_5_546F87
 BYTE   PATT
  POIN2 Label_5_546F77
 BYTE   PATT
  POIN2 Label_5_546F87
 BYTE   PATT
  POIN2 Label_5_546F77
 BYTE   PATT
  POIN2 Label_5_546F87
// 008   ----------------------------------------
Label_5_546FD5:
 BYTE   N02  Bn2  v112
 BYTE   W24
 BYTE   Bn2  v072
 BYTE   W24
 BYTE   Bn2  v040
 BYTE   W24
 BYTE   PEND 
 BYTE   PATT
  POIN2 Label_5_546FD5
 BYTE   PATT
  POIN2 Label_5_546FD5
 BYTE   PATT
  POIN2 Label_5_546FD5
 BYTE   PATT
  POIN2 Label_5_546FD5
 BYTE   PATT
  POIN2 Label_5_546FD5
 BYTE   PATT
  POIN2 Label_5_546FD5
 BYTE   PATT
  POIN2 Label_5_546FD5
// 009   ----------------------------------------
 BYTE   N02  Bn2  v112
 BYTE   W72
 BYTE   N02
 BYTE   W72
// 010   ----------------------------------------
 BYTE   N02
 BYTE   W72
 BYTE   N02
 BYTE   W72
// 011   ----------------------------------------
 BYTE   GoTo
  POIN2 Label_5_546E4C
 BYTE   FINE

//******************************************************//
	ALIGN 4

ChronoTriggerTheTrialRandomWizard:
	BYTE	6	// NumTrks
	BYTE	0	// NumBlks
	BYTE	ChronoTriggerTheTrialRandomWizard_pri	// Priority
	BYTE	ChronoTriggerTheTrialRandomWizard_rev	// Reverb.
    
	POIN2	ChronoTriggerTheTrialRandomWizard_grp
    
	POIN2	ChronoTriggerTheTrialRandomWizard_001
	POIN2	ChronoTriggerTheTrialRandomWizard_002
	POIN2	ChronoTriggerTheTrialRandomWizard_003
	POIN2	ChronoTriggerTheTrialRandomWizard_004
	POIN2	ChronoTriggerTheTrialRandomWizard_005
	POIN2	ChronoTriggerTheTrialRandomWizard_006

	
