//Event file generated from Sappy .s format.
	#include "MPlayDef.event"

	#define	ChronoTriggerSchalasThemeTak_grp  voicegroup000
	#define	ChronoTriggerSchalasThemeTak_pri  0
	#define	ChronoTriggerSchalasThemeTak_rev  0
	#define	ChronoTriggerSchalasThemeTak_mvl  127
	#define	ChronoTriggerSchalasThemeTak_key  0
	#define	ChronoTriggerSchalasThemeTak_tbs  1
	#define	ChronoTriggerSchalasThemeTak_exg  0
	#define	ChronoTriggerSchalasThemeTak_cmp  1

	// .rodata
	//	ChronoTriggerSchalasThemeTak
	ALIGN 4


//**************** Track 1 (Midi-Chn.0) ****************//

ChronoTriggerSchalasThemeTak_001:
//  #01 //000   ----------------------------------------
 BYTE   KEYSH   ChronoTriggerSchalasThemeTak_key+0
 BYTE   TEMPO   84*ChronoTriggerSchalasThemeTak_tbs/2
 BYTE   VOICE   75
 BYTE   VOL   65*ChronoTriggerSchalasThemeTak_mvl/mxv
 BYTE   PAN   c_v+6
 BYTE   BENDR  12
 BYTE   W96
//  #01 //001   ----------------------------------------
 BYTE   W96
//  #01 //002   ----------------------------------------
 BYTE   W96
//  #01 //003   ----------------------------------------
 BYTE   W96
//  #01 //004   ----------------------------------------
 BYTE   W96
//  #01 //005   ----------------------------------------
 BYTE   W96
//  #01 //006   ----------------------------------------
 BYTE   W96
//  #01 //007   ----------------------------------------
 BYTE   W96
//  #01 //008   ----------------------------------------
 BYTE   W96
//  #01 //009   ----------------------------------------
 BYTE   W96
//  #01 //010   ----------------------------------------
 BYTE   W96
//  #01 //011   ----------------------------------------
 BYTE   W96
//  #01 //012   ----------------------------------------
Label_010085AC:
 BYTE   N84  Ds4  v085
 BYTE   W84
 BYTE   N06  Cs4
 BYTE   W06
 BYTE   As3  v050
 BYTE   W06
 BYTE   PEND 
//  #01 //013   ----------------------------------------
Label_010085B7:
 BYTE   N44  Fn4  v085  gtp3
 BYTE   W48
 BYTE   Cs4
 BYTE   W48
 BYTE   PEND 
//  #01 //014   ----------------------------------------
Label_010085BF:
 BYTE   N03  Cn4  v085
 BYTE   W03
 BYTE   Cs4
 BYTE   W03
 BYTE   N78  Cn4
 BYTE   W78
 BYTE   N12  Cs4
 BYTE   W12
 BYTE   PEND 
//  #01 //015   ----------------------------------------
Label_010085CC:
 BYTE   N48  Ds4  v085
 BYTE   W48
 BYTE   Gs3
 BYTE   W48
 BYTE   PEND 
//  #01 //016   ----------------------------------------
Label_010085D3:
 BYTE   N84  As3  v085
 BYTE   W84
 BYTE   N12
 BYTE   W12
 BYTE   PEND 
//  #01 //017   ----------------------------------------
Label_010085DA:
 BYTE   N48  As4  v085
 BYTE   W48
 BYTE   N32  Gs4  v085  gtp3
 BYTE   W36
 BYTE   N12  Fs4
 BYTE   W12
 BYTE   PEND 
//  #01 //018   ----------------------------------------
 BYTE   TIE  Fn4
 BYTE   W96
//  #01 //019   ----------------------------------------
 BYTE   W96
//  #01 //020   ----------------------------------------
Label_010085EB:
 BYTE   EOT
 BYTE   Fn4
 BYTE   N84  Ds4  v085
 BYTE   W84
 BYTE   N06  Cs4
 BYTE   W06
 BYTE   As3
 BYTE   W06
 BYTE   PEND 
//  #01 //021   ----------------------------------------
Label_010085F7:
 BYTE   N48  Fn4  v085
 BYTE   W48
 BYTE   Cs4
 BYTE   W48
 BYTE   PEND 
//  #01 //022   ----------------------------------------
 BYTE   PATT
  POIN2 Label_010085BF
//  #01 //023   ----------------------------------------
 BYTE   PATT
  POIN2 Label_010085CC
//  #01 //024   ----------------------------------------
Label_01008608:
 BYTE   N84  As3  v085
 BYTE   W84
 BYTE   N04  Cn4
 BYTE   W04
 BYTE   Cs4
 BYTE   W04
 BYTE   Cn4
 BYTE   W04
 BYTE   PEND 
//  #01 //025   ----------------------------------------
Label_01008614:
 BYTE   N84  As3  v085
 BYTE   W84
 BYTE   N12  Gs3
 BYTE   W12
 BYTE   PEND 
//  #01 //026   ----------------------------------------
 BYTE   TIE  As3
 BYTE   W96
//  #01 //027   ----------------------------------------
 BYTE   W92
 BYTE   W03
 BYTE   EOT
 BYTE   W01
//  #01 //028   ----------------------------------------
Label_01008623:
 BYTE   W96
//  #01 //029   ----------------------------------------
 BYTE   W96
//  #01 //030   ----------------------------------------
 BYTE   W96
//  #01 //031   ----------------------------------------
 BYTE   W96
//  #01 //032   ----------------------------------------
 BYTE   PATT
  POIN2 Label_010085AC
//  #01 //033   ----------------------------------------
 BYTE   PATT
  POIN2 Label_010085B7
//  #01 //034   ----------------------------------------
 BYTE   PATT
  POIN2 Label_010085BF
//  #01 //035   ----------------------------------------
 BYTE   PATT
  POIN2 Label_010085CC
//  #01 //036   ----------------------------------------
 BYTE   PATT
  POIN2 Label_010085D3
//  #01 //037   ----------------------------------------
 BYTE   PATT
  POIN2 Label_010085DA
//  #01 //038   ----------------------------------------
 BYTE   TIE  Fn4  v085
 BYTE   W96
//  #01 //039   ----------------------------------------
 BYTE   W96
//  #01 //040   ----------------------------------------
 BYTE   PATT
  POIN2 Label_010085EB
//  #01 //041   ----------------------------------------
 BYTE   PATT
  POIN2 Label_010085F7
//  #01 //042   ----------------------------------------
 BYTE   PATT
  POIN2 Label_010085BF
//  #01 //043   ----------------------------------------
 BYTE   PATT
  POIN2 Label_010085CC
//  #01 //044   ----------------------------------------
 BYTE   PATT
  POIN2 Label_01008608
//  #01 //045   ----------------------------------------
 BYTE   PATT
  POIN2 Label_01008614
//  #01 //046   ----------------------------------------
 BYTE   TIE  As3  v085
 BYTE   W96
//  #01 //047   ----------------------------------------
 BYTE   W92
 BYTE   W03
 BYTE   EOT
 BYTE   W01
//  #01 //048   ----------------------------------------
 BYTE   GoTo
  POIN2 Label_01008623
//  #01 //049   ----------------------------------------
 BYTE   W96
//  #01 //050   ----------------------------------------
 BYTE   W96
//  #01 //051   ----------------------------------------
 BYTE   W96
//  #01 //052   ----------------------------------------
 BYTE   W96
//  #01 //053   ----------------------------------------
 BYTE   PATT
  POIN2 Label_010085AC
//  #01 //054   ----------------------------------------
 BYTE   PATT
  POIN2 Label_010085B7
//  #01 //055   ----------------------------------------
 BYTE   PATT
  POIN2 Label_010085BF
//  #01 //056   ----------------------------------------
 BYTE   W96
//  #01 //057   ----------------------------------------
 BYTE   VOICE   74
 BYTE   FINE

//**************** Track 2 (Midi-Chn.1) ****************//

ChronoTriggerSchalasThemeTak_002:
//  #02 //000   ----------------------------------------
 BYTE   KEYSH   ChronoTriggerSchalasThemeTak_key+0
 BYTE   VOICE   110
 BYTE   VOL   61*ChronoTriggerSchalasThemeTak_mvl/mxv
 BYTE   PAN   c_v-7
 BYTE   BENDR  12
 BYTE   W96
//  #02 //001   ----------------------------------------
 BYTE   W96
//  #02 //002   ----------------------------------------
 BYTE   W96
//  #02 //003   ----------------------------------------
 BYTE   W96
//  #02 //004   ----------------------------------------
 BYTE   N96  As4  v048
 BYTE   W96
//  #02 //005   ----------------------------------------
 BYTE   Gs4  v039
 BYTE   W96
//  #02 //006   ----------------------------------------
 BYTE   Fn4  v042
 BYTE   W96
//  #02 //007   ----------------------------------------
 BYTE   N48  Ds4  v046
 BYTE   W48
 BYTE   N24  Cs4  v045
 BYTE   W24
 BYTE   Cn4  v049
 BYTE   W24
//  #02 //008   ----------------------------------------
 BYTE   N96  As2  v036
 BYTE   TIE  Fn3
 BYTE   TIE  As3  v046
 BYTE   N96  As1  v036
 BYTE   W96
//  #02 //009   ----------------------------------------
Label_01008D5F:
 BYTE   N96  As2  v036
 BYTE   N96  As1
 BYTE   W96
 BYTE   PEND 
//  #02 //010   ----------------------------------------
 BYTE   As1
 BYTE   N96  As2
 BYTE   W96
//  #02 //011   ----------------------------------------
 BYTE   PATT
  POIN2 Label_01008D5F
//  #02 //012   ----------------------------------------
 BYTE   EOT
 BYTE   As3  v065
 BYTE   TIE  As3  v036
 BYTE   TIE  Fn3
 BYTE   N96  Fs2
 BYTE   TIE  Cs3
 BYTE   N96  Fs1
 BYTE   W96
//  #02 //013   ----------------------------------------
Label_01008D7E:
 BYTE   N48  Gs2  v036
 BYTE   N96  Gs1
 BYTE   W48
 BYTE   EOT
 BYTE   Fn3  v070
 BYTE   N48  Gs3
 BYTE   N48  Ds3
 BYTE   N48  Gs2
 BYTE   W48
 BYTE   PEND 
//  #02 //014   ----------------------------------------
Label_01008D8F:
 BYTE   EOT
 BYTE   Cs3
 BYTE   TIE  Gs3  v036
 BYTE   TIE  Fn3
 BYTE   TIE  Cn3
 BYTE   TIE  Gs2
 BYTE   TIE  As1
 BYTE   W96
 BYTE   PEND 
//  #02 //015   ----------------------------------------
 BYTE   W96
//  #02 //016   ----------------------------------------
Label_01008D9F:
 BYTE   EOT
 BYTE   As1  v056
 BYTE   Cn3  v065
 BYTE   Gs3
 BYTE   TIE  Cs3  v036
 BYTE   N96  Fs1
 BYTE   TIE  As3
 BYTE   TIE  Fn3
 BYTE   N96  Fs2
 BYTE   W96
 BYTE   PEND 
//  #02 //017   ----------------------------------------
Label_01008DB2:
 BYTE   N48  Gs2  v036
 BYTE   N96  Gs1
 BYTE   W48
 BYTE   EOT
 BYTE   Fn3  v070
 BYTE   N48  Ds3
 BYTE   N48  Gs3
 BYTE   N48  Gs2
 BYTE   W48
 BYTE   PEND 
//  #02 //018   ----------------------------------------
Label_01008DC3:
 BYTE   EOT
 BYTE   Cs3
 BYTE   TIE  Cs3  v036
 BYTE   TIE  As2
 BYTE   TIE  As1
 BYTE   TIE  As3
 BYTE   TIE  Fn3
 BYTE   W96
 BYTE   PEND 
//  #02 //019   ----------------------------------------
 BYTE   W96
//  #02 //020   ----------------------------------------
Label_01008DD3:
 BYTE   EOT
 BYTE   Fn3  v070
 BYTE   As1  v058
 BYTE   Cs3
 BYTE   TIE  As3  v036
 BYTE   TIE  Fn3
 BYTE   N96  Fs2
 BYTE   TIE  Cs3
 BYTE   N96  Fs1
 BYTE   W96
 BYTE   PEND 
//  #02 //021   ----------------------------------------
 BYTE   PATT
  POIN2 Label_01008D7E
//  #02 //022   ----------------------------------------
 BYTE   PATT
  POIN2 Label_01008D8F
//  #02 //023   ----------------------------------------
 BYTE   W96
//  #02 //024   ----------------------------------------
 BYTE   PATT
  POIN2 Label_01008D9F
//  #02 //025   ----------------------------------------
 BYTE   PATT
  POIN2 Label_01008DB2
//  #02 //026   ----------------------------------------
 BYTE   PATT
  POIN2 Label_01008DC3
//  #02 //027   ----------------------------------------
 BYTE   W96
//  #02 //028   ----------------------------------------
 BYTE   EOT
 BYTE   Fn3  v070
 BYTE   As1  v058
 BYTE   Cs3
Label_01008E07:
 BYTE   W96
//  #02 //029   ----------------------------------------
 BYTE   W96
//  #02 //030   ----------------------------------------
 BYTE   W96
//  #02 //031   ----------------------------------------
 BYTE   W96
//  #02 //032   ----------------------------------------
Label_01008E0B:
 BYTE   TIE  As3  v036
 BYTE   TIE  Fn3
 BYTE   N96  Fs2
 BYTE   TIE  Cs3
 BYTE   N96  Fs1
 BYTE   W96
 BYTE   PEND 
//  #02 //033   ----------------------------------------
Label_01008E18:
 BYTE   N48  Gs2  v036
 BYTE   N96  Gs1
 BYTE   W48
 BYTE   EOT
 BYTE   As3  v065
 BYTE   N48  Gs3
 BYTE   N48  Ds3
 BYTE   N48  Gs2
 BYTE   W48
 BYTE   PEND 
//  #02 //034   ----------------------------------------
 BYTE   PATT
  POIN2 Label_01008D8F
//  #02 //035   ----------------------------------------
 BYTE   W96
//  #02 //036   ----------------------------------------
 BYTE   PATT
  POIN2 Label_01008D9F
//  #02 //037   ----------------------------------------
 BYTE   PATT
  POIN2 Label_01008DB2
//  #02 //038   ----------------------------------------
 BYTE   PATT
  POIN2 Label_01008DC3
//  #02 //039   ----------------------------------------
 BYTE   W96
//  #02 //040   ----------------------------------------
 BYTE   PATT
  POIN2 Label_01008DD3
//  #02 //041   ----------------------------------------
 BYTE   PATT
  POIN2 Label_01008D7E
//  #02 //042   ----------------------------------------
 BYTE   PATT
  POIN2 Label_01008D8F
//  #02 //043   ----------------------------------------
 BYTE   W96
//  #02 //044   ----------------------------------------
 BYTE   PATT
  POIN2 Label_01008D9F
//  #02 //045   ----------------------------------------
 BYTE   PATT
  POIN2 Label_01008DB2
//  #02 //046   ----------------------------------------
 BYTE   PATT
  POIN2 Label_01008DC3
//  #02 //047   ----------------------------------------
 BYTE   W96
//  #02 //048   ----------------------------------------
 BYTE   EOT
 BYTE   Fn3  v070
 BYTE   As1  v058
 BYTE   Cs3
 BYTE   GoTo
  POIN2 Label_01008E07
//  #02 //049   ----------------------------------------
 BYTE   W96
//  #02 //050   ----------------------------------------
 BYTE   W96
//  #02 //051   ----------------------------------------
 BYTE   W96
//  #02 //052   ----------------------------------------
 BYTE   W96
//  #02 //053   ----------------------------------------
 BYTE   PATT
  POIN2 Label_01008E0B
//  #02 //054   ----------------------------------------
 BYTE   PATT
  POIN2 Label_01008E18
//  #02 //055   ----------------------------------------
 BYTE   EOT
 BYTE   Cs3
 BYTE   N96  Gs3  v036
 BYTE   N96  Fn3
 BYTE   N96  Cn3
 BYTE   N96  Gs2
 BYTE   N96  As1
 BYTE   W96
//  #02 //056   ----------------------------------------
 BYTE   W96
//  #02 //057   ----------------------------------------
 BYTE   VOICE   109
 BYTE   FINE

//**************** Track 3 (Midi-Chn.2) ****************//

ChronoTriggerSchalasThemeTak_003:
//  #03 //000   ----------------------------------------
 BYTE   KEYSH   ChronoTriggerSchalasThemeTak_key+0
 BYTE   VOICE   11
 BYTE   VOL   61*ChronoTriggerSchalasThemeTak_mvl/mxv
 BYTE   N06  As5  v095
 BYTE   BENDR  12
 BYTE   PAN   c_v+63
 BYTE   W12
 BYTE   N06  Fn5
 BYTE   W12
 BYTE   Gs5
 BYTE   W12
 BYTE   Fn5
 BYTE   W12
 BYTE   As5
 BYTE   W12
 BYTE   Fn5
 BYTE   W12
 BYTE   Cn6
 BYTE   W12
 BYTE   Gs5
 BYTE   W12
//  #03 //001   ----------------------------------------
 BYTE   As5
 BYTE   W12
 BYTE   Fn5
 BYTE   W12
 BYTE   Gs5
 BYTE   W12
 BYTE   Fn5
 BYTE   W12
 BYTE   As5
 BYTE   PAN   c_v+60
 BYTE   W01
 BYTE   PAN   c_v+58
 BYTE   W01
 BYTE   PAN   c_v+55
 BYTE   W01
 BYTE   PAN   c_v+53
 BYTE   W01
 BYTE   PAN   c_v+50
 BYTE   W01
 BYTE   PAN   c_v+48
 BYTE   W01
 BYTE   PAN   c_v+45
 BYTE   W01
 BYTE   PAN   c_v+43
 BYTE   W01
 BYTE   PAN   c_v+39
 BYTE   W01
 BYTE   PAN   c_v+37
 BYTE   W01
 BYTE   PAN   c_v+34
 BYTE   W01
 BYTE   PAN   c_v+32
 BYTE   W01
 BYTE   N06  Fn5
 BYTE   PAN   c_v+29
 BYTE   W01
 BYTE   PAN   c_v+27
 BYTE   W01
 BYTE   PAN   c_v+24
 BYTE   W01
 BYTE   PAN   c_v+22
 BYTE   W01
 BYTE   PAN   c_v+18
 BYTE   W01
 BYTE   PAN   c_v+16
 BYTE   W01
 BYTE   PAN   c_v+13
 BYTE   W01
 BYTE   PAN   c_v+11
 BYTE   W01
 BYTE   PAN   c_v+8
 BYTE   W01
 BYTE   PAN   c_v+6
 BYTE   W01
 BYTE   PAN   c_v+3
 BYTE   W01
 BYTE   PAN   c_v+1
 BYTE   W01
 BYTE   N06  Cn6
 BYTE   PAN   c_v-3
 BYTE   W01
 BYTE   PAN   c_v-5
 BYTE   W01
 BYTE   PAN   c_v-8
 BYTE   W01
 BYTE   PAN   c_v-10
 BYTE   W01
 BYTE   PAN   c_v-13
 BYTE   W01
 BYTE   PAN   c_v-15
 BYTE   W01
 BYTE   PAN   c_v-18
 BYTE   W01
 BYTE   PAN   c_v-20
 BYTE   W01
 BYTE   PAN   c_v-24
 BYTE   W01
 BYTE   PAN   c_v-26
 BYTE   W01
 BYTE   PAN   c_v-29
 BYTE   W01
 BYTE   PAN   c_v-31
 BYTE   W01
 BYTE   N06  Gs5
 BYTE   PAN   c_v-34
 BYTE   W01
 BYTE   PAN   c_v-36
 BYTE   W01
 BYTE   PAN   c_v-39
 BYTE   W01
 BYTE   PAN   c_v-41
 BYTE   W01
 BYTE   PAN   c_v-45
 BYTE   W01
 BYTE   PAN   c_v-47
 BYTE   W01
 BYTE   PAN   c_v-50
 BYTE   W01
 BYTE   PAN   c_v-52
 BYTE   W01
 BYTE   PAN   c_v-55
 BYTE   W01
 BYTE   PAN   c_v-57
 BYTE   W01
 BYTE   PAN   c_v-60
 BYTE   W01
 BYTE   PAN   c_v-62
 BYTE   W01
//  #03 //002   ----------------------------------------
 BYTE   PAN   c_v-64
 BYTE   N06  As5
 BYTE   W12
 BYTE   Fn5
 BYTE   W12
 BYTE   Gs5
 BYTE   W12
 BYTE   Fn5
 BYTE   W12
 BYTE   As5
 BYTE   W12
 BYTE   Fn5
 BYTE   W12
 BYTE   Cn6
 BYTE   W12
 BYTE   Gs5
 BYTE   W12
//  #03 //003   ----------------------------------------
 BYTE   As5
 BYTE   W12
 BYTE   Fn5
 BYTE   W12
 BYTE   Gs5
 BYTE   W12
 BYTE   Fn5
 BYTE   W12
 BYTE   As5
 BYTE   W03
 BYTE   PAN   c_v-63
 BYTE   W01
 BYTE   PAN   c_v-61
 BYTE   W01
 BYTE   PAN   c_v-60
 BYTE   W01
 BYTE   PAN   c_v-58
 BYTE   W01
 BYTE   PAN   c_v-57
 BYTE   W01
 BYTE   PAN   c_v-55
 BYTE   W01
 BYTE   PAN   c_v-54
 BYTE   W01
 BYTE   PAN   c_v-53
 BYTE   W01
 BYTE   PAN   c_v-52
 BYTE   W01
 BYTE   N06  Fn5
 BYTE   PAN   c_v-50
 BYTE   W01
 BYTE   PAN   c_v-49
 BYTE   W01
 BYTE   PAN   c_v-47
 BYTE   W01
 BYTE   PAN   c_v-46
 BYTE   W01
 BYTE   PAN   c_v-44
 BYTE   W01
 BYTE   PAN   c_v-43
 BYTE   W01
 BYTE   PAN   c_v-42
 BYTE   W01
 BYTE   PAN   c_v-41
 BYTE   W01
 BYTE   PAN   c_v-39
 BYTE   W01
 BYTE   PAN   c_v-38
 BYTE   W01
 BYTE   PAN   c_v-36
 BYTE   W01
 BYTE   PAN   c_v-35
 BYTE   W01
 BYTE   N06  Cn6
 BYTE   PAN   c_v-33
 BYTE   W01
 BYTE   PAN   c_v-32
 BYTE   W01
 BYTE   PAN   c_v-31
 BYTE   W01
 BYTE   PAN   c_v-30
 BYTE   W01
 BYTE   PAN   c_v-28
 BYTE   W01
 BYTE   PAN   c_v-27
 BYTE   W01
 BYTE   PAN   c_v-25
 BYTE   W01
 BYTE   PAN   c_v-24
 BYTE   W01
 BYTE   PAN   c_v-22
 BYTE   W01
 BYTE   PAN   c_v-21
 BYTE   W01
 BYTE   PAN   c_v-20
 BYTE   W01
 BYTE   PAN   c_v-19
 BYTE   W01
 BYTE   N06  Gs5
 BYTE   PAN   c_v-17
 BYTE   W01
 BYTE   PAN   c_v-16
 BYTE   W01
 BYTE   PAN   c_v-14
 BYTE   W01
 BYTE   PAN   c_v-13
 BYTE   W01
 BYTE   PAN   c_v-11
 BYTE   W01
 BYTE   PAN   c_v-10
 BYTE   W01
 BYTE   PAN   c_v-9
 BYTE   W01
 BYTE   PAN   c_v-8
 BYTE   W01
 BYTE   PAN   c_v-6
 BYTE   W01
 BYTE   PAN   c_v-5
 BYTE   W01
 BYTE   PAN   c_v-3
 BYTE   W01
 BYTE   PAN   c_v-2
 BYTE   W01
//  #03 //004   ----------------------------------------
 BYTE   PAN   c_v-1
 BYTE   N06  As5
 BYTE   W12
 BYTE   Fn5
 BYTE   W12
 BYTE   Gs5
 BYTE   W12
 BYTE   Fn5
 BYTE   W12
 BYTE   As5
 BYTE   W12
 BYTE   Fn5
 BYTE   W12
 BYTE   Cn6
 BYTE   W12
 BYTE   Gs5
 BYTE   W12
//  #03 //005   ----------------------------------------
Label_0100915A:
 BYTE   N06  As5  v095
 BYTE   W12
 BYTE   Fn5
 BYTE   W12
 BYTE   Gs5
 BYTE   W12
 BYTE   Fn5
 BYTE   W12
 BYTE   As5
 BYTE   W12
 BYTE   Fn5
 BYTE   W12
 BYTE   Cn6
 BYTE   W12
 BYTE   Gs5
 BYTE   W12
 BYTE   PEND 
//  #03 //006   ----------------------------------------
 BYTE   PATT
  POIN2 Label_0100915A
//  #03 //007   ----------------------------------------
 BYTE   PATT
  POIN2 Label_0100915A
//  #03 //008   ----------------------------------------
 BYTE   PATT
  POIN2 Label_0100915A
//  #03 //009   ----------------------------------------
 BYTE   PATT
  POIN2 Label_0100915A
//  #03 //010   ----------------------------------------
 BYTE   PATT
  POIN2 Label_0100915A
//  #03 //011   ----------------------------------------
 BYTE   PATT
  POIN2 Label_0100915A
//  #03 //012   ----------------------------------------
 BYTE   PATT
  POIN2 Label_0100915A
//  #03 //013   ----------------------------------------
 BYTE   PATT
  POIN2 Label_0100915A
//  #03 //014   ----------------------------------------
 BYTE   PATT
  POIN2 Label_0100915A
//  #03 //015   ----------------------------------------
 BYTE   PATT
  POIN2 Label_0100915A
//  #03 //016   ----------------------------------------
 BYTE   PATT
  POIN2 Label_0100915A
//  #03 //017   ----------------------------------------
 BYTE   PATT
  POIN2 Label_0100915A
//  #03 //018   ----------------------------------------
 BYTE   PATT
  POIN2 Label_0100915A
//  #03 //019   ----------------------------------------
 BYTE   PATT
  POIN2 Label_0100915A
//  #03 //020   ----------------------------------------
 BYTE   PATT
  POIN2 Label_0100915A
//  #03 //021   ----------------------------------------
 BYTE   PATT
  POIN2 Label_0100915A
//  #03 //022   ----------------------------------------
 BYTE   PATT
  POIN2 Label_0100915A
//  #03 //023   ----------------------------------------
 BYTE   PATT
  POIN2 Label_0100915A
//  #03 //024   ----------------------------------------
 BYTE   PATT
  POIN2 Label_0100915A
//  #03 //025   ----------------------------------------
 BYTE   PATT
  POIN2 Label_0100915A
//  #03 //026   ----------------------------------------
 BYTE   PATT
  POIN2 Label_0100915A
//  #03 //027   ----------------------------------------
 BYTE   PATT
  POIN2 Label_0100915A
//  #03 //028   ----------------------------------------
Label_010091DB:
 BYTE   N06  As5  v095
 BYTE   W12
 BYTE   Fn5
 BYTE   W12
 BYTE   Gs5
 BYTE   W12
 BYTE   Fn5
 BYTE   W12
 BYTE   As5
 BYTE   W12
 BYTE   Fn5
 BYTE   W12
 BYTE   Cn6
 BYTE   W12
 BYTE   Gs5
 BYTE   W12
//  #03 //029   ----------------------------------------
 BYTE   PATT
  POIN2 Label_0100915A
//  #03 //030   ----------------------------------------
 BYTE   PATT
  POIN2 Label_0100915A
//  #03 //031   ----------------------------------------
 BYTE   PATT
  POIN2 Label_0100915A
//  #03 //032   ----------------------------------------
 BYTE   PATT
  POIN2 Label_0100915A
//  #03 //033   ----------------------------------------
 BYTE   PATT
  POIN2 Label_0100915A
//  #03 //034   ----------------------------------------
 BYTE   PATT
  POIN2 Label_0100915A
//  #03 //035   ----------------------------------------
 BYTE   PATT
  POIN2 Label_0100915A
//  #03 //036   ----------------------------------------
 BYTE   PATT
  POIN2 Label_0100915A
//  #03 //037   ----------------------------------------
 BYTE   PATT
  POIN2 Label_0100915A
//  #03 //038   ----------------------------------------
 BYTE   PATT
  POIN2 Label_0100915A
//  #03 //039   ----------------------------------------
 BYTE   PATT
  POIN2 Label_0100915A
//  #03 //040   ----------------------------------------
 BYTE   PATT
  POIN2 Label_0100915A
//  #03 //041   ----------------------------------------
 BYTE   PATT
  POIN2 Label_0100915A
//  #03 //042   ----------------------------------------
 BYTE   PATT
  POIN2 Label_0100915A
//  #03 //043   ----------------------------------------
 BYTE   PATT
  POIN2 Label_0100915A
//  #03 //044   ----------------------------------------
 BYTE   PATT
  POIN2 Label_0100915A
//  #03 //045   ----------------------------------------
 BYTE   PATT
  POIN2 Label_0100915A
//  #03 //046   ----------------------------------------
 BYTE   PATT
  POIN2 Label_0100915A
//  #03 //047   ----------------------------------------
 BYTE   PATT
  POIN2 Label_0100915A
//  #03 //048   ----------------------------------------
 BYTE   N06  As5  v095
 BYTE   GoTo
  POIN2 Label_010091DB
//  #03 //049   ----------------------------------------
 BYTE   W12
 BYTE   Fn5
 BYTE   W12
 BYTE   Gs5
 BYTE   W12
 BYTE   Fn5
 BYTE   W12
 BYTE   As5
 BYTE   W12
 BYTE   Fn5
 BYTE   W12
 BYTE   Cn6
 BYTE   W12
 BYTE   Gs5
 BYTE   W12
//  #03 //050   ----------------------------------------
 BYTE   PATT
  POIN2 Label_0100915A
//  #03 //051   ----------------------------------------
 BYTE   PATT
  POIN2 Label_0100915A
//  #03 //052   ----------------------------------------
 BYTE   PATT
  POIN2 Label_0100915A
//  #03 //053   ----------------------------------------
 BYTE   PATT
  POIN2 Label_0100915A
//  #03 //054   ----------------------------------------
 BYTE   PATT
  POIN2 Label_0100915A
//  #03 //055   ----------------------------------------
 BYTE   PATT
  POIN2 Label_0100915A
//  #03 //056   ----------------------------------------
 BYTE   W96
//  #03 //057   ----------------------------------------
 BYTE   VOICE   10
 BYTE   FINE

//**************** Track 4 (Midi-Chn.3) ****************//

ChronoTriggerSchalasThemeTak_004:
//  #04 //000   ----------------------------------------
 BYTE   KEYSH   ChronoTriggerSchalasThemeTak_key+0
 BYTE   VOICE   11
 BYTE   VOL   61*ChronoTriggerSchalasThemeTak_mvl/mxv
 BYTE   BENDR  12
 BYTE   PAN   c_v+63
 BYTE   W06
 BYTE   N06  As5  v044
 BYTE   W12
 BYTE   Fn5
 BYTE   W12
 BYTE   Gs5
 BYTE   W12
 BYTE   Fn5
 BYTE   W12
 BYTE   As5
 BYTE   W12
 BYTE   Fn5
 BYTE   W12
 BYTE   Cn6
 BYTE   W12
 BYTE   Gs5
 BYTE   W06
//  #04 //001   ----------------------------------------
 BYTE   PAN   c_v+60
 BYTE   W01
 BYTE   PAN   c_v+58
 BYTE   W01
 BYTE   PAN   c_v+55
 BYTE   W01
 BYTE   PAN   c_v+53
 BYTE   W01
 BYTE   PAN   c_v+50
 BYTE   W01
 BYTE   PAN   c_v+48
 BYTE   W01
 BYTE   N06  As5
 BYTE   PAN   c_v+45
 BYTE   W01
 BYTE   PAN   c_v+43
 BYTE   W01
 BYTE   PAN   c_v+39
 BYTE   W01
 BYTE   PAN   c_v+37
 BYTE   W01
 BYTE   PAN   c_v+34
 BYTE   W01
 BYTE   PAN   c_v+32
 BYTE   W01
 BYTE   PAN   c_v+29
 BYTE   W01
 BYTE   PAN   c_v+27
 BYTE   W01
 BYTE   PAN   c_v+24
 BYTE   W01
 BYTE   PAN   c_v+22
 BYTE   W01
 BYTE   PAN   c_v+18
 BYTE   W01
 BYTE   PAN   c_v+16
 BYTE   W01
 BYTE   N06  Fn5
 BYTE   PAN   c_v+13
 BYTE   W01
 BYTE   PAN   c_v+11
 BYTE   W01
 BYTE   PAN   c_v+8
 BYTE   W01
 BYTE   PAN   c_v+6
 BYTE   W01
 BYTE   PAN   c_v+3
 BYTE   W01
 BYTE   PAN   c_v+1
 BYTE   W01
 BYTE   PAN   c_v-3
 BYTE   W01
 BYTE   PAN   c_v-5
 BYTE   W01
 BYTE   PAN   c_v-8
 BYTE   W01
 BYTE   PAN   c_v-10
 BYTE   W01
 BYTE   PAN   c_v-13
 BYTE   W01
 BYTE   PAN   c_v-15
 BYTE   W01
 BYTE   N06  Gs5
 BYTE   PAN   c_v-18
 BYTE   W01
 BYTE   PAN   c_v-20
 BYTE   W01
 BYTE   PAN   c_v-24
 BYTE   W01
 BYTE   PAN   c_v-26
 BYTE   W01
 BYTE   PAN   c_v-29
 BYTE   W01
 BYTE   PAN   c_v-31
 BYTE   W01
 BYTE   PAN   c_v-34
 BYTE   W01
 BYTE   PAN   c_v-36
 BYTE   W01
 BYTE   PAN   c_v-39
 BYTE   W01
 BYTE   PAN   c_v-41
 BYTE   W01
 BYTE   PAN   c_v-45
 BYTE   W01
 BYTE   PAN   c_v-47
 BYTE   W01
 BYTE   N06  Fn5
 BYTE   PAN   c_v-50
 BYTE   W01
 BYTE   PAN   c_v-52
 BYTE   W01
 BYTE   PAN   c_v-55
 BYTE   W01
 BYTE   PAN   c_v-57
 BYTE   W01
 BYTE   PAN   c_v-60
 BYTE   W01
 BYTE   PAN   c_v-62
 BYTE   W01
 BYTE   PAN   c_v-64
 BYTE   W06
 BYTE   N06  As5
 BYTE   W12
 BYTE   Fn5
 BYTE   W12
 BYTE   Cn6
 BYTE   W12
 BYTE   Gs5
 BYTE   W06
//  #04 //002   ----------------------------------------
Label_01004281:
 BYTE   W06
 BYTE   N06  As5  v044
 BYTE   W12
 BYTE   Fn5
 BYTE   W12
 BYTE   Gs5
 BYTE   W12
 BYTE   Fn5
 BYTE   W12
 BYTE   As5
 BYTE   W12
 BYTE   Fn5
 BYTE   W12
 BYTE   Cn6
 BYTE   W12
 BYTE   Gs5
 BYTE   W06
 BYTE   PEND 
//  #04 //003   ----------------------------------------
 BYTE   W06
 BYTE   As5
 BYTE   W12
 BYTE   Fn5
 BYTE   W12
 BYTE   Gs5
 BYTE   W12
 BYTE   Fn5
 BYTE   W08
 BYTE   PAN   c_v-63
 BYTE   W01
 BYTE   PAN   c_v-62
 BYTE   W01
 BYTE   PAN   c_v-60
 BYTE   W01
 BYTE   PAN   c_v-59
 BYTE   W01
 BYTE   N06  As5
 BYTE   PAN   c_v-57
 BYTE   W01
 BYTE   PAN   c_v-56
 BYTE   W01
 BYTE   PAN   c_v-55
 BYTE   W01
 BYTE   PAN   c_v-53
 BYTE   W01
 BYTE   PAN   c_v-52
 BYTE   W01
 BYTE   PAN   c_v-51
 BYTE   W01
 BYTE   PAN   c_v-49
 BYTE   W01
 BYTE   PAN   c_v-48
 BYTE   W01
 BYTE   PAN   c_v-46
 BYTE   W01
 BYTE   PAN   c_v-45
 BYTE   W01
 BYTE   PAN   c_v-44
 BYTE   W01
 BYTE   PAN   c_v-43
 BYTE   W01
 BYTE   N06  Fn5
 BYTE   PAN   c_v-41
 BYTE   W01
 BYTE   PAN   c_v-40
 BYTE   W01
 BYTE   PAN   c_v-38
 BYTE   W01
 BYTE   PAN   c_v-37
 BYTE   W01
 BYTE   PAN   c_v-36
 BYTE   W01
 BYTE   PAN   c_v-35
 BYTE   W01
 BYTE   PAN   c_v-33
 BYTE   W01
 BYTE   PAN   c_v-32
 BYTE   W01
 BYTE   PAN   c_v-30
 BYTE   W01
 BYTE   PAN   c_v-29
 BYTE   W01
 BYTE   PAN   c_v-27
 BYTE   W01
 BYTE   PAN   c_v-26
 BYTE   W01
 BYTE   N06  Cn6
 BYTE   PAN   c_v-25
 BYTE   W01
 BYTE   PAN   c_v-24
 BYTE   W01
 BYTE   PAN   c_v-22
 BYTE   W01
 BYTE   PAN   c_v-21
 BYTE   W01
 BYTE   PAN   c_v-19
 BYTE   W01
 BYTE   PAN   c_v-18
 BYTE   W01
 BYTE   PAN   c_v-17
 BYTE   W01
 BYTE   PAN   c_v-16
 BYTE   W01
 BYTE   PAN   c_v-14
 BYTE   W01
 BYTE   PAN   c_v-13
 BYTE   W01
 BYTE   PAN   c_v-11
 BYTE   W01
 BYTE   PAN   c_v-10
 BYTE   W01
 BYTE   N06  Gs5
 BYTE   PAN   c_v-9
 BYTE   W01
 BYTE   PAN   c_v-7
 BYTE   W01
 BYTE   PAN   c_v-6
 BYTE   W01
 BYTE   PAN   c_v-5
 BYTE   W01
 BYTE   PAN   c_v-3
 BYTE   W01
 BYTE   PAN   c_v-2
 BYTE   W01
//  #04 //004   ----------------------------------------
 BYTE   PAN   c_v-1
 BYTE   W06
 BYTE   N06  As5
 BYTE   W12
 BYTE   Fn5
 BYTE   W12
 BYTE   Gs5
 BYTE   W12
 BYTE   Fn5
 BYTE   W12
 BYTE   As5
 BYTE   W12
 BYTE   Fn5
 BYTE   W12
 BYTE   Cn6
 BYTE   W12
 BYTE   Gs5
 BYTE   W06
//  #04 //005   ----------------------------------------
 BYTE   PATT
  POIN2 Label_01004281
//  #04 //006   ----------------------------------------
 BYTE   PATT
  POIN2 Label_01004281
//  #04 //007   ----------------------------------------
 BYTE   PATT
  POIN2 Label_01004281
//  #04 //008   ----------------------------------------
 BYTE   PATT
  POIN2 Label_01004281
//  #04 //009   ----------------------------------------
 BYTE   PATT
  POIN2 Label_01004281
//  #04 //010   ----------------------------------------
 BYTE   PATT
  POIN2 Label_01004281
//  #04 //011   ----------------------------------------
 BYTE   PATT
  POIN2 Label_01004281
//  #04 //012   ----------------------------------------
 BYTE   PATT
  POIN2 Label_01004281
//  #04 //013   ----------------------------------------
 BYTE   PATT
  POIN2 Label_01004281
//  #04 //014   ----------------------------------------
 BYTE   PATT
  POIN2 Label_01004281
//  #04 //015   ----------------------------------------
 BYTE   PATT
  POIN2 Label_01004281
//  #04 //016   ----------------------------------------
 BYTE   PATT
  POIN2 Label_01004281
//  #04 //017   ----------------------------------------
 BYTE   PATT
  POIN2 Label_01004281
//  #04 //018   ----------------------------------------
 BYTE   PATT
  POIN2 Label_01004281
//  #04 //019   ----------------------------------------
 BYTE   PATT
  POIN2 Label_01004281
//  #04 //020   ----------------------------------------
 BYTE   PATT
  POIN2 Label_01004281
//  #04 //021   ----------------------------------------
 BYTE   PATT
  POIN2 Label_01004281
//  #04 //022   ----------------------------------------
 BYTE   PATT
  POIN2 Label_01004281
//  #04 //023   ----------------------------------------
 BYTE   PATT
  POIN2 Label_01004281
//  #04 //024   ----------------------------------------
 BYTE   PATT
  POIN2 Label_01004281
//  #04 //025   ----------------------------------------
 BYTE   PATT
  POIN2 Label_01004281
//  #04 //026   ----------------------------------------
 BYTE   PATT
  POIN2 Label_01004281
//  #04 //027   ----------------------------------------
 BYTE   PATT
  POIN2 Label_01004281
//  #04 //028   ----------------------------------------
Label_0100438D:
 BYTE   W06
 BYTE   N06  As5  v044
 BYTE   W12
 BYTE   Fn5
 BYTE   W12
 BYTE   Gs5
 BYTE   W12
 BYTE   Fn5
 BYTE   W12
 BYTE   As5
 BYTE   W12
 BYTE   Fn5
 BYTE   W12
 BYTE   Cn6
 BYTE   W12
 BYTE   Gs5
 BYTE   W06
//  #04 //029   ----------------------------------------
 BYTE   PATT
  POIN2 Label_01004281
//  #04 //030   ----------------------------------------
 BYTE   PATT
  POIN2 Label_01004281
//  #04 //031   ----------------------------------------
 BYTE   PATT
  POIN2 Label_01004281
//  #04 //032   ----------------------------------------
 BYTE   PATT
  POIN2 Label_01004281
//  #04 //033   ----------------------------------------
 BYTE   PATT
  POIN2 Label_01004281
//  #04 //034   ----------------------------------------
 BYTE   PATT
  POIN2 Label_01004281
//  #04 //035   ----------------------------------------
 BYTE   PATT
  POIN2 Label_01004281
//  #04 //036   ----------------------------------------
 BYTE   PATT
  POIN2 Label_01004281
//  #04 //037   ----------------------------------------
 BYTE   PATT
  POIN2 Label_01004281
//  #04 //038   ----------------------------------------
 BYTE   PATT
  POIN2 Label_01004281
//  #04 //039   ----------------------------------------
 BYTE   PATT
  POIN2 Label_01004281
//  #04 //040   ----------------------------------------
 BYTE   PATT
  POIN2 Label_01004281
//  #04 //041   ----------------------------------------
 BYTE   PATT
  POIN2 Label_01004281
//  #04 //042   ----------------------------------------
 BYTE   PATT
  POIN2 Label_01004281
//  #04 //043   ----------------------------------------
 BYTE   PATT
  POIN2 Label_01004281
//  #04 //044   ----------------------------------------
 BYTE   PATT
  POIN2 Label_01004281
//  #04 //045   ----------------------------------------
 BYTE   PATT
  POIN2 Label_01004281
//  #04 //046   ----------------------------------------
 BYTE   PATT
  POIN2 Label_01004281
//  #04 //047   ----------------------------------------
 BYTE   PATT
  POIN2 Label_01004281
//  #04 //048   ----------------------------------------
 BYTE   GoTo
  POIN2 Label_0100438D
//  #04 //049   ----------------------------------------
 BYTE   W06
 BYTE   N06  As5  v044
 BYTE   W12
 BYTE   Fn5
 BYTE   W12
 BYTE   Gs5
 BYTE   W12
 BYTE   Fn5
 BYTE   W12
 BYTE   As5
 BYTE   W12
 BYTE   Fn5
 BYTE   W12
 BYTE   Cn6
 BYTE   W12
 BYTE   Gs5
 BYTE   W06
//  #04 //050   ----------------------------------------
 BYTE   PATT
  POIN2 Label_01004281
//  #04 //051   ----------------------------------------
 BYTE   PATT
  POIN2 Label_01004281
//  #04 //052   ----------------------------------------
 BYTE   PATT
  POIN2 Label_01004281
//  #04 //053   ----------------------------------------
 BYTE   PATT
  POIN2 Label_01004281
//  #04 //054   ----------------------------------------
 BYTE   PATT
  POIN2 Label_01004281
//  #04 //055   ----------------------------------------
 BYTE   PATT
  POIN2 Label_01004281
//  #04 //056   ----------------------------------------
 BYTE   W96
//  #04 //057   ----------------------------------------
 BYTE   VOICE   10
 BYTE   FINE

//**************** Track 5 (Midi-Chn.4) ****************//

ChronoTriggerSchalasThemeTak_005:
//  #05 //000   ----------------------------------------
 BYTE   KEYSH   ChronoTriggerSchalasThemeTak_key+0
 BYTE   VOICE   11
 BYTE   VOL   60*ChronoTriggerSchalasThemeTak_mvl/mxv
 BYTE   BENDR  12
 BYTE   W96
//  #05 //001   ----------------------------------------
 BYTE   W96
//  #05 //002   ----------------------------------------
 BYTE   W96
//  #05 //003   ----------------------------------------
 BYTE   W96
//  #05 //004   ----------------------------------------
 BYTE   W12
 BYTE   N06  Cn5  v068
 BYTE   W12
 BYTE   Ds5
 BYTE   W12
 BYTE   Cn5
 BYTE   W12
 BYTE   Fn5
 BYTE   W12
 BYTE   Cn5
 BYTE   W12
 BYTE   Cn5
 BYTE   W12
 BYTE   Ds5
 BYTE   W12
//  #05 //005   ----------------------------------------
Label_01003FB5:
 BYTE   N06  Fn5  v068
 BYTE   W12
 BYTE   Cn5
 BYTE   W12
 BYTE   Ds5
 BYTE   W12
 BYTE   Cn5
 BYTE   W12
 BYTE   Fn5
 BYTE   W12
 BYTE   Cn5
 BYTE   W12
 BYTE   Cn5
 BYTE   W12
 BYTE   Ds5
 BYTE   W12
 BYTE   PEND 
//  #05 //006   ----------------------------------------
 BYTE   PATT
  POIN2 Label_01003FB5
//  #05 //007   ----------------------------------------
 BYTE   PATT
  POIN2 Label_01003FB5
//  #05 //008   ----------------------------------------
 BYTE   PATT
  POIN2 Label_01003FB5
//  #05 //009   ----------------------------------------
 BYTE   PATT
  POIN2 Label_01003FB5
//  #05 //010   ----------------------------------------
 BYTE   PATT
  POIN2 Label_01003FB5
//  #05 //011   ----------------------------------------
 BYTE   PATT
  POIN2 Label_01003FB5
//  #05 //012   ----------------------------------------
 BYTE   PATT
  POIN2 Label_01003FB5
//  #05 //013   ----------------------------------------
 BYTE   PATT
  POIN2 Label_01003FB5
//  #05 //014   ----------------------------------------
 BYTE   PATT
  POIN2 Label_01003FB5
//  #05 //015   ----------------------------------------
 BYTE   PATT
  POIN2 Label_01003FB5
//  #05 //016   ----------------------------------------
 BYTE   PATT
  POIN2 Label_01003FB5
//  #05 //017   ----------------------------------------
 BYTE   PATT
  POIN2 Label_01003FB5
//  #05 //018   ----------------------------------------
 BYTE   PATT
  POIN2 Label_01003FB5
//  #05 //019   ----------------------------------------
 BYTE   PATT
  POIN2 Label_01003FB5
//  #05 //020   ----------------------------------------
 BYTE   PATT
  POIN2 Label_01003FB5
//  #05 //021   ----------------------------------------
 BYTE   PATT
  POIN2 Label_01003FB5
//  #05 //022   ----------------------------------------
 BYTE   PATT
  POIN2 Label_01003FB5
//  #05 //023   ----------------------------------------
 BYTE   PATT
  POIN2 Label_01003FB5
//  #05 //024   ----------------------------------------
 BYTE   PATT
  POIN2 Label_01003FB5
//  #05 //025   ----------------------------------------
 BYTE   PATT
  POIN2 Label_01003FB5
//  #05 //026   ----------------------------------------
 BYTE   PATT
  POIN2 Label_01003FB5
//  #05 //027   ----------------------------------------
 BYTE   PATT
  POIN2 Label_01003FB5
//  #05 //028   ----------------------------------------
Label_01004036:
 BYTE   N06  Fn5  v068
 BYTE   W12
 BYTE   Cn5
 BYTE   W12
 BYTE   Ds5
 BYTE   W12
 BYTE   Cn5
 BYTE   W12
 BYTE   Fn5
 BYTE   W12
 BYTE   Cn5
 BYTE   W12
 BYTE   Cn5
 BYTE   W12
 BYTE   Ds5
 BYTE   W12
//  #05 //029   ----------------------------------------
 BYTE   PATT
  POIN2 Label_01003FB5
//  #05 //030   ----------------------------------------
 BYTE   PATT
  POIN2 Label_01003FB5
//  #05 //031   ----------------------------------------
 BYTE   PATT
  POIN2 Label_01003FB5
//  #05 //032   ----------------------------------------
 BYTE   PATT
  POIN2 Label_01003FB5
//  #05 //033   ----------------------------------------
 BYTE   PATT
  POIN2 Label_01003FB5
//  #05 //034   ----------------------------------------
 BYTE   PATT
  POIN2 Label_01003FB5
//  #05 //035   ----------------------------------------
 BYTE   PATT
  POIN2 Label_01003FB5
//  #05 //036   ----------------------------------------
 BYTE   PATT
  POIN2 Label_01003FB5
//  #05 //037   ----------------------------------------
 BYTE   PATT
  POIN2 Label_01003FB5
//  #05 //038   ----------------------------------------
 BYTE   PATT
  POIN2 Label_01003FB5
//  #05 //039   ----------------------------------------
 BYTE   PATT
  POIN2 Label_01003FB5
//  #05 //040   ----------------------------------------
 BYTE   PATT
  POIN2 Label_01003FB5
//  #05 //041   ----------------------------------------
 BYTE   PATT
  POIN2 Label_01003FB5
//  #05 //042   ----------------------------------------
 BYTE   PATT
  POIN2 Label_01003FB5
//  #05 //043   ----------------------------------------
 BYTE   PATT
  POIN2 Label_01003FB5
//  #05 //044   ----------------------------------------
 BYTE   PATT
  POIN2 Label_01003FB5
//  #05 //045   ----------------------------------------
 BYTE   PATT
  POIN2 Label_01003FB5
//  #05 //046   ----------------------------------------
 BYTE   PATT
  POIN2 Label_01003FB5
//  #05 //047   ----------------------------------------
 BYTE   PATT
  POIN2 Label_01003FB5
//  #05 //048   ----------------------------------------
 BYTE   N06  Fn5  v068
 BYTE   GoTo
  POIN2 Label_01004036
//  #05 //049   ----------------------------------------
 BYTE   W12
 BYTE   Cn5
 BYTE   W12
 BYTE   Ds5
 BYTE   W12
 BYTE   Cn5
 BYTE   W12
 BYTE   Fn5
 BYTE   W12
 BYTE   Cn5
 BYTE   W12
 BYTE   Cn5
 BYTE   W12
 BYTE   Ds5
 BYTE   W12
//  #05 //050   ----------------------------------------
 BYTE   PATT
  POIN2 Label_01003FB5
//  #05 //051   ----------------------------------------
 BYTE   PATT
  POIN2 Label_01003FB5
//  #05 //052   ----------------------------------------
 BYTE   PATT
  POIN2 Label_01003FB5
//  #05 //053   ----------------------------------------
 BYTE   PATT
  POIN2 Label_01003FB5
//  #05 //054   ----------------------------------------
 BYTE   PATT
  POIN2 Label_01003FB5
//  #05 //055   ----------------------------------------
 BYTE   PATT
  POIN2 Label_01003FB5
//  #05 //056   ----------------------------------------
 BYTE   W96
//  #05 //057   ----------------------------------------
 BYTE   VOICE   10
 BYTE   FINE

//**************** Track 6 (Midi-Chn.5) ****************//

ChronoTriggerSchalasThemeTak_006:
//  #06 //000   ----------------------------------------
 BYTE   KEYSH   ChronoTriggerSchalasThemeTak_key+0
 BYTE   VOICE   11
 BYTE   VOL   58*ChronoTriggerSchalasThemeTak_mvl/mxv
 BYTE   BENDR  12
 BYTE   W96
//  #06 //001   ----------------------------------------
 BYTE   W96
//  #06 //002   ----------------------------------------
 BYTE   W96
//  #06 //003   ----------------------------------------
 BYTE   W96
//  #06 //004   ----------------------------------------
 BYTE   W18
 BYTE   N06  Cn5  v038
 BYTE   W12
 BYTE   Ds5
 BYTE   W12
 BYTE   Cn5
 BYTE   W12
 BYTE   Fn5
 BYTE   W12
 BYTE   Cn5
 BYTE   W12
 BYTE   Cn5
 BYTE   W12
 BYTE   Ds5
 BYTE   W06
//  #06 //005   ----------------------------------------
Label_01008255:
 BYTE   W06
 BYTE   N06  Fn5  v038
 BYTE   W12
 BYTE   Cn5
 BYTE   W12
 BYTE   Ds5
 BYTE   W12
 BYTE   Cn5
 BYTE   W12
 BYTE   Fn5
 BYTE   W12
 BYTE   Cn5
 BYTE   W12
 BYTE   Cn5
 BYTE   W12
 BYTE   Ds5
 BYTE   W06
 BYTE   PEND 
//  #06 //006   ----------------------------------------
 BYTE   PATT
  POIN2 Label_01008255
//  #06 //007   ----------------------------------------
 BYTE   PATT
  POIN2 Label_01008255
//  #06 //008   ----------------------------------------
 BYTE   PATT
  POIN2 Label_01008255
//  #06 //009   ----------------------------------------
 BYTE   PATT
  POIN2 Label_01008255
//  #06 //010   ----------------------------------------
 BYTE   PATT
  POIN2 Label_01008255
//  #06 //011   ----------------------------------------
 BYTE   PATT
  POIN2 Label_01008255
//  #06 //012   ----------------------------------------
 BYTE   PATT
  POIN2 Label_01008255
//  #06 //013   ----------------------------------------
 BYTE   PATT
  POIN2 Label_01008255
//  #06 //014   ----------------------------------------
 BYTE   PATT
  POIN2 Label_01008255
//  #06 //015   ----------------------------------------
 BYTE   PATT
  POIN2 Label_01008255
//  #06 //016   ----------------------------------------
 BYTE   PATT
  POIN2 Label_01008255
//  #06 //017   ----------------------------------------
 BYTE   PATT
  POIN2 Label_01008255
//  #06 //018   ----------------------------------------
 BYTE   PATT
  POIN2 Label_01008255
//  #06 //019   ----------------------------------------
 BYTE   PATT
  POIN2 Label_01008255
//  #06 //020   ----------------------------------------
 BYTE   PATT
  POIN2 Label_01008255
//  #06 //021   ----------------------------------------
 BYTE   PATT
  POIN2 Label_01008255
//  #06 //022   ----------------------------------------
 BYTE   PATT
  POIN2 Label_01008255
//  #06 //023   ----------------------------------------
 BYTE   PATT
  POIN2 Label_01008255
//  #06 //024   ----------------------------------------
 BYTE   PATT
  POIN2 Label_01008255
//  #06 //025   ----------------------------------------
 BYTE   PATT
  POIN2 Label_01008255
//  #06 //026   ----------------------------------------
 BYTE   PATT
  POIN2 Label_01008255
//  #06 //027   ----------------------------------------
 BYTE   PATT
  POIN2 Label_01008255
//  #06 //028   ----------------------------------------
Label_010082D7:
 BYTE   W06
 BYTE   N06  Fn5  v038
 BYTE   W12
 BYTE   Cn5
 BYTE   W12
 BYTE   Ds5
 BYTE   W12
 BYTE   Cn5
 BYTE   W12
 BYTE   Fn5
 BYTE   W12
 BYTE   Cn5
 BYTE   W12
 BYTE   Cn5
 BYTE   W12
 BYTE   Ds5
 BYTE   W06
//  #06 //029   ----------------------------------------
 BYTE   PATT
  POIN2 Label_01008255
//  #06 //030   ----------------------------------------
 BYTE   PATT
  POIN2 Label_01008255
//  #06 //031   ----------------------------------------
 BYTE   PATT
  POIN2 Label_01008255
//  #06 //032   ----------------------------------------
 BYTE   PATT
  POIN2 Label_01008255
//  #06 //033   ----------------------------------------
 BYTE   PATT
  POIN2 Label_01008255
//  #06 //034   ----------------------------------------
 BYTE   PATT
  POIN2 Label_01008255
//  #06 //035   ----------------------------------------
 BYTE   PATT
  POIN2 Label_01008255
//  #06 //036   ----------------------------------------
 BYTE   PATT
  POIN2 Label_01008255
//  #06 //037   ----------------------------------------
 BYTE   PATT
  POIN2 Label_01008255
//  #06 //038   ----------------------------------------
 BYTE   PATT
  POIN2 Label_01008255
//  #06 //039   ----------------------------------------
 BYTE   PATT
  POIN2 Label_01008255
//  #06 //040   ----------------------------------------
 BYTE   PATT
  POIN2 Label_01008255
//  #06 //041   ----------------------------------------
 BYTE   PATT
  POIN2 Label_01008255
//  #06 //042   ----------------------------------------
 BYTE   PATT
  POIN2 Label_01008255
//  #06 //043   ----------------------------------------
 BYTE   PATT
  POIN2 Label_01008255
//  #06 //044   ----------------------------------------
 BYTE   PATT
  POIN2 Label_01008255
//  #06 //045   ----------------------------------------
 BYTE   PATT
  POIN2 Label_01008255
//  #06 //046   ----------------------------------------
 BYTE   PATT
  POIN2 Label_01008255
//  #06 //047   ----------------------------------------
 BYTE   PATT
  POIN2 Label_01008255
//  #06 //048   ----------------------------------------
 BYTE   GoTo
  POIN2 Label_010082D7
//  #06 //049   ----------------------------------------
 BYTE   W06
 BYTE   N06  Fn5  v038
 BYTE   W12
 BYTE   Cn5
 BYTE   W12
 BYTE   Ds5
 BYTE   W12
 BYTE   Cn5
 BYTE   W12
 BYTE   Fn5
 BYTE   W12
 BYTE   Cn5
 BYTE   W12
 BYTE   Cn5
 BYTE   W12
 BYTE   Ds5
 BYTE   W06
//  #06 //050   ----------------------------------------
 BYTE   PATT
  POIN2 Label_01008255
//  #06 //051   ----------------------------------------
 BYTE   PATT
  POIN2 Label_01008255
//  #06 //052   ----------------------------------------
 BYTE   PATT
  POIN2 Label_01008255
//  #06 //053   ----------------------------------------
 BYTE   PATT
  POIN2 Label_01008255
//  #06 //054   ----------------------------------------
 BYTE   PATT
  POIN2 Label_01008255
//  #06 //055   ----------------------------------------
 BYTE   PATT
  POIN2 Label_01008255
//  #06 //056   ----------------------------------------
 BYTE   W96
//  #06 //057   ----------------------------------------
 BYTE   VOICE   10
 BYTE   FINE

//**************** Track 7 (Midi-Chn.6) ****************//

ChronoTriggerSchalasThemeTak_007:
//  #07 //000   ----------------------------------------
 BYTE   KEYSH   ChronoTriggerSchalasThemeTak_key+0
 BYTE   VOICE   124
 BYTE   VOL   49*ChronoTriggerSchalasThemeTak_mvl/mxv
 BYTE   BENDR  12
 BYTE   W96
//  #07 //001   ----------------------------------------
 BYTE   W96
//  #07 //002   ----------------------------------------
 BYTE   W96
//  #07 //003   ----------------------------------------
 BYTE   W96
//  #07 //004   ----------------------------------------
 BYTE   W96
//  #07 //005   ----------------------------------------
 BYTE   W96
//  #07 //006   ----------------------------------------
 BYTE   W96
//  #07 //007   ----------------------------------------
 BYTE   W96
//  #07 //008   ----------------------------------------
Label_01009368:
 BYTE   N12  En3  v127
 BYTE   W12
 BYTE   En3
 BYTE   W12
 BYTE   Cn3
 BYTE   W12
 BYTE   N06
 BYTE   W06
 BYTE   Ds3
 BYTE   W06
 BYTE   Ds3
 BYTE   W06
 BYTE   N12  En3
 BYTE   W12
 BYTE   N06  Cn3
 BYTE   W06
 BYTE   Cn3
 BYTE   N06  Fs2
 BYTE   N18  Bn4
 BYTE   W12
 BYTE   N06  Cn3
 BYTE   N06  Fn4
 BYTE   W06
 BYTE   Cn3
 BYTE   W06
 BYTE   PEND 
//  #07 //009   ----------------------------------------
Label_0100938A:
 BYTE   N12  En3  v127
 BYTE   W12
 BYTE   En3
 BYTE   W12
 BYTE   Cn3
 BYTE   W12
 BYTE   N06
 BYTE   W06
 BYTE   N12  En3
 BYTE   W18
 BYTE   N06  Cn3
 BYTE   W06
 BYTE   Cn3
 BYTE   W06
 BYTE   Fs2
 BYTE   N18  Bn4
 BYTE   W12
 BYTE   N06  Fn4
 BYTE   N06  Cn3
 BYTE   W06
 BYTE   Cn3
 BYTE   W06
 BYTE   PEND 
//  #07 //010   ----------------------------------------
Label_010093A8:
 BYTE   N12  En3  v127
 BYTE   W12
 BYTE   En3
 BYTE   W12
 BYTE   Cn3
 BYTE   W12
 BYTE   N06
 BYTE   W06
 BYTE   Ds3
 BYTE   W06
 BYTE   Ds3
 BYTE   W06
 BYTE   N12  En3
 BYTE   W12
 BYTE   N06  Cn3
 BYTE   W06
 BYTE   N18  Bn4
 BYTE   N06  Cn3
 BYTE   N06  Fs2
 BYTE   W12
 BYTE   Fn4
 BYTE   N06  Cn3
 BYTE   W06
 BYTE   Cn3
 BYTE   W06
 BYTE   PEND 
//  #07 //011   ----------------------------------------
Label_010093CA:
 BYTE   N12  En3  v127
 BYTE   W12
 BYTE   En3
 BYTE   W12
 BYTE   Cn3
 BYTE   W12
 BYTE   N06
 BYTE   W06
 BYTE   N12  En3
 BYTE   W18
 BYTE   N06  Cn3
 BYTE   W06
 BYTE   Cn3
 BYTE   W06
 BYTE   Fs2
 BYTE   N18  Bn4
 BYTE   N08  Cn3
 BYTE   W08
 BYTE   Cn3
 BYTE   W04
 BYTE   N06  Fn4
 BYTE   W04
 BYTE   N08  Cn3
 BYTE   W08
 BYTE   PEND 
//  #07 //012   ----------------------------------------
Label_010093EB:
 BYTE   N12  En3  v127
 BYTE   W12
 BYTE   En3
 BYTE   W12
 BYTE   Cn3
 BYTE   W12
 BYTE   N06
 BYTE   W06
 BYTE   Ds3
 BYTE   W06
 BYTE   Ds3
 BYTE   W06
 BYTE   N12  En3
 BYTE   W12
 BYTE   N06  Cn3
 BYTE   W06
 BYTE   Cn3
 BYTE   N06  Fs2
 BYTE   N18  Bn4
 BYTE   W12
 BYTE   N06  Fn4
 BYTE   N06  Cn3
 BYTE   W06
 BYTE   Cn3
 BYTE   W06
 BYTE   PEND 
//  #07 //013   ----------------------------------------
 BYTE   PATT
  POIN2 Label_0100938A
//  #07 //014   ----------------------------------------
 BYTE   PATT
  POIN2 Label_01009368
//  #07 //015   ----------------------------------------
 BYTE   PATT
  POIN2 Label_010093CA
//  #07 //016   ----------------------------------------
 BYTE   PATT
  POIN2 Label_010093A8
//  #07 //017   ----------------------------------------
Label_01009421:
 BYTE   N12  En3  v127
 BYTE   W12
 BYTE   En3
 BYTE   W12
 BYTE   Cn3
 BYTE   W12
 BYTE   N06
 BYTE   W06
 BYTE   N12  En3
 BYTE   W18
 BYTE   N06  Cn3
 BYTE   W06
 BYTE   Cn3
 BYTE   W06
 BYTE   N18  Bn4
 BYTE   N06  Fs2
 BYTE   W12
 BYTE   Fn4
 BYTE   N06  Cn3
 BYTE   W06
 BYTE   Cn3
 BYTE   W06
 BYTE   PEND 
//  #07 //018   ----------------------------------------
 BYTE   PATT
  POIN2 Label_01009368
//  #07 //019   ----------------------------------------
 BYTE   PATT
  POIN2 Label_010093CA
//  #07 //020   ----------------------------------------
Label_01009449:
 BYTE   N12  En3  v127
 BYTE   W12
 BYTE   En3
 BYTE   W12
 BYTE   Cn3
 BYTE   W12
 BYTE   N06
 BYTE   W06
 BYTE   Ds3
 BYTE   W06
 BYTE   Ds3
 BYTE   W06
 BYTE   N12  En3
 BYTE   W12
 BYTE   N06  Cn3
 BYTE   W06
 BYTE   Fs2
 BYTE   N18  Bn4
 BYTE   W12
 BYTE   N06  Cn3
 BYTE   N06  Fn4
 BYTE   W06
 BYTE   Cn3
 BYTE   W06
 BYTE   PEND 
//  #07 //021   ----------------------------------------
 BYTE   PATT
  POIN2 Label_01009421
//  #07 //022   ----------------------------------------
 BYTE   PATT
  POIN2 Label_01009368
//  #07 //023   ----------------------------------------
Label_01009473:
 BYTE   N12  En3  v127
 BYTE   W12
 BYTE   En3
 BYTE   W12
 BYTE   Cn3
 BYTE   W12
 BYTE   N06
 BYTE   W06
 BYTE   N12  En3
 BYTE   W18
 BYTE   N06  Cn3
 BYTE   W06
 BYTE   Cn3
 BYTE   W06
 BYTE   N18  Bn4
 BYTE   N06  Fs2
 BYTE   N08  Cn3
 BYTE   W08
 BYTE   Cn3
 BYTE   W04
 BYTE   N06  Fn4
 BYTE   W04
 BYTE   N08  Cn3
 BYTE   W08
 BYTE   PEND 
//  #07 //024   ----------------------------------------
 BYTE   N12  En3
 BYTE   W12
 BYTE   En3
 BYTE   W12
 BYTE   Cn3
 BYTE   W12
 BYTE   N06
 BYTE   W06
 BYTE   Ds3
 BYTE   W06
 BYTE   Ds3
 BYTE   W06
 BYTE   N12  En3
 BYTE   W12
 BYTE   N06  Cn3
 BYTE   W06
 BYTE   N18  Bn4
 BYTE   N06  Fs2
 BYTE   W12
 BYTE   Fn4
 BYTE   N06  Cn3
 BYTE   W06
 BYTE   Cn3
 BYTE   W06
//  #07 //025   ----------------------------------------
 BYTE   PATT
  POIN2 Label_01009421
//  #07 //026   ----------------------------------------
 BYTE   PATT
  POIN2 Label_01009368
//  #07 //027   ----------------------------------------
 BYTE   N12  En3  v127
 BYTE   W12
 BYTE   En3
 BYTE   W12
 BYTE   Cn3
 BYTE   W12
 BYTE   N06
 BYTE   W06
 BYTE   N12  En3
 BYTE   W18
 BYTE   N06  Cn3
 BYTE   W06
 BYTE   Cn3
 BYTE   W06
 BYTE   N08
 BYTE   N06  Fs2
 BYTE   N18  Bn4
 BYTE   W08
 BYTE   N08  Cn3
 BYTE   W04
 BYTE   N06  Fn4
 BYTE   W04
 BYTE   N08  Cn3
 BYTE   W08
//  #07 //028   ----------------------------------------
Label_010094DE:
 BYTE   N12  En3  v127
 BYTE   W12
 BYTE   En3
 BYTE   W12
 BYTE   Cn3
 BYTE   W12
 BYTE   N06
 BYTE   W06
 BYTE   Ds3
 BYTE   W06
 BYTE   Ds3
 BYTE   W06
 BYTE   N12  En3
 BYTE   W12
 BYTE   N06  Cn3
 BYTE   W06
 BYTE   Fs2
 BYTE   N18  Bn4
 BYTE   W12
 BYTE   N06  Cn3
 BYTE   N06  Fn4
 BYTE   W06
 BYTE   Cn3
 BYTE   W06
//  #07 //029   ----------------------------------------
Label_010094FD:
 BYTE   N12  En3  v127
 BYTE   W12
 BYTE   En3
 BYTE   W12
 BYTE   Cn3
 BYTE   W12
 BYTE   N06
 BYTE   W06
 BYTE   N12  En3
 BYTE   W18
 BYTE   N06  Cn3
 BYTE   W06
 BYTE   Cn3
 BYTE   W06
 BYTE   N18  Bn4
 BYTE   N06  Fs2
 BYTE   W12
 BYTE   Cn3
 BYTE   N06  Fn4
 BYTE   W06
 BYTE   Cn3
 BYTE   W06
 BYTE   PEND 
//  #07 //030   ----------------------------------------
 BYTE   N12  En3
 BYTE   W12
 BYTE   En3
 BYTE   W12
 BYTE   Cn3
 BYTE   W12
 BYTE   N06
 BYTE   W06
 BYTE   Ds3
 BYTE   W06
 BYTE   Ds3
 BYTE   W06
 BYTE   N12  En3
 BYTE   W12
 BYTE   N06  Cn3
 BYTE   W06
 BYTE   Fs2
 BYTE   N06  Cn3
 BYTE   N18  Bn4
 BYTE   W12
 BYTE   N06  Cn3
 BYTE   N06  Fn4
 BYTE   W06
 BYTE   Cn3
 BYTE   W06
//  #07 //031   ----------------------------------------
 BYTE   N12  En3
 BYTE   W12
 BYTE   En3
 BYTE   W12
 BYTE   Cn3
 BYTE   W12
 BYTE   N06
 BYTE   W06
 BYTE   N12  En3
 BYTE   W18
 BYTE   N06  Cn3
 BYTE   W06
 BYTE   Cn3
 BYTE   W06
 BYTE   Fs2
 BYTE   N08  Cn3
 BYTE   N18  Bn4
 BYTE   W08
 BYTE   N08  Cn3
 BYTE   W04
 BYTE   N06  Fn4
 BYTE   W04
 BYTE   N08  Cn3
 BYTE   W08
//  #07 //032   ----------------------------------------
 BYTE   N12  En3
 BYTE   W12
 BYTE   En3
 BYTE   W12
 BYTE   Cn3
 BYTE   W12
 BYTE   N06
 BYTE   W06
 BYTE   Ds3
 BYTE   W06
 BYTE   Ds3
 BYTE   W06
 BYTE   N12  En3
 BYTE   W12
 BYTE   N06  Cn3
 BYTE   W06
 BYTE   Fs2
 BYTE   N18  Bn4
 BYTE   W12
 BYTE   N06  Fn4
 BYTE   N06  Cn3
 BYTE   W06
 BYTE   Cn3
 BYTE   W06
//  #07 //033   ----------------------------------------
 BYTE   PATT
  POIN2 Label_01009421
//  #07 //034   ----------------------------------------
 BYTE   PATT
  POIN2 Label_010093EB
//  #07 //035   ----------------------------------------
 BYTE   N12  En3  v127
 BYTE   W12
 BYTE   En3
 BYTE   W12
 BYTE   Cn3
 BYTE   W12
 BYTE   N06
 BYTE   W06
 BYTE   N12  En3
 BYTE   W18
 BYTE   N06  Cn3
 BYTE   W06
 BYTE   Cn3
 BYTE   W06
 BYTE   N18  Bn4
 BYTE   N08  Cn3
 BYTE   N06  Fs2
 BYTE   W08
 BYTE   N08  Cn3
 BYTE   W04
 BYTE   N06  Fn4
 BYTE   W04
 BYTE   N08  Cn3
 BYTE   W08
//  #07 //036   ----------------------------------------
 BYTE   PATT
  POIN2 Label_01009449
//  #07 //037   ----------------------------------------
 BYTE   PATT
  POIN2 Label_01009421
//  #07 //038   ----------------------------------------
 BYTE   PATT
  POIN2 Label_01009368
//  #07 //039   ----------------------------------------
 BYTE   PATT
  POIN2 Label_01009473
//  #07 //040   ----------------------------------------
Label_010095B9:
 BYTE   N12  En3  v127
 BYTE   W12
 BYTE   En3
 BYTE   W12
 BYTE   Cn3
 BYTE   W12
 BYTE   N06
 BYTE   W06
 BYTE   Ds3
 BYTE   W06
 BYTE   Ds3
 BYTE   W06
 BYTE   N12  En3
 BYTE   W12
 BYTE   N06  Cn3
 BYTE   W06
 BYTE   N18  Bn4
 BYTE   N06  Fs2
 BYTE   W12
 BYTE   Cn3
 BYTE   N06  Fn4
 BYTE   W06
 BYTE   Cn3
 BYTE   W06
 BYTE   PEND 
//  #07 //041   ----------------------------------------
Label_010095D9:
 BYTE   N12  En3  v127
 BYTE   W12
 BYTE   En3
 BYTE   W12
 BYTE   Cn3
 BYTE   W12
 BYTE   N06
 BYTE   W06
 BYTE   N12  En3
 BYTE   W18
 BYTE   N06  Cn3
 BYTE   W06
 BYTE   Cn3
 BYTE   W06
 BYTE   Fs2
 BYTE   N18  Bn4
 BYTE   W12
 BYTE   N06  Cn3
 BYTE   N06  Fn4
 BYTE   W06
 BYTE   Cn3
 BYTE   W06
 BYTE   PEND 
//  #07 //042   ----------------------------------------
Label_010095F7:
 BYTE   N12  En3  v127
 BYTE   W12
 BYTE   En3
 BYTE   W12
 BYTE   Cn3
 BYTE   W12
 BYTE   N06
 BYTE   W06
 BYTE   Ds3
 BYTE   W06
 BYTE   Ds3
 BYTE   W06
 BYTE   N12  En3
 BYTE   W12
 BYTE   N06  Cn3
 BYTE   W06
 BYTE   Fs2
 BYTE   N06  Cn3
 BYTE   N18  Bn4
 BYTE   W12
 BYTE   N06  Fn4
 BYTE   N06  Cn3
 BYTE   W06
 BYTE   Cn3
 BYTE   W06
 BYTE   PEND 
//  #07 //043   ----------------------------------------
 BYTE   PATT
  POIN2 Label_010093CA
//  #07 //044   ----------------------------------------
 BYTE   PATT
  POIN2 Label_010095B9
//  #07 //045   ----------------------------------------
 BYTE   PATT
  POIN2 Label_010095D9
//  #07 //046   ----------------------------------------
 BYTE   PATT
  POIN2 Label_010095F7
//  #07 //047   ----------------------------------------
 BYTE   PATT
  POIN2 Label_010093CA
//  #07 //048   ----------------------------------------
 BYTE   N12  En3  v127
 BYTE   GoTo
  POIN2 Label_010094DE
//  #07 //049   ----------------------------------------
 BYTE   W12
 BYTE   En3
 BYTE   W12
 BYTE   Cn3
 BYTE   W12
 BYTE   N06
 BYTE   W06
 BYTE   Ds3
 BYTE   W06
 BYTE   Ds3
 BYTE   W06
 BYTE   N12  En3
 BYTE   W12
 BYTE   N06  Cn3
 BYTE   W06
 BYTE   N18  Bn4
 BYTE   N06  Fs2
 BYTE   W12
 BYTE   Fn4
 BYTE   N06  Cn3
 BYTE   W06
 BYTE   Cn3
 BYTE   W06
//  #07 //050   ----------------------------------------
 BYTE   PATT
  POIN2 Label_010094FD
//  #07 //051   ----------------------------------------
 BYTE   PATT
  POIN2 Label_010093EB
//  #07 //052   ----------------------------------------
 BYTE   PATT
  POIN2 Label_01009473
//  #07 //053   ----------------------------------------
 BYTE   PATT
  POIN2 Label_01009449
//  #07 //054   ----------------------------------------
 BYTE   PATT
  POIN2 Label_01009421
//  #07 //055   ----------------------------------------
 BYTE   PATT
  POIN2 Label_01009368
//  #07 //056   ----------------------------------------
 BYTE   W96
//  #07 //057   ----------------------------------------
 BYTE   VOICE   123
 BYTE   FINE

//******************************************************//
	ALIGN 4

ChronoTriggerSchalasThemeTak:
	BYTE	7	// NumTrks
	BYTE	0	// NumBlks
	BYTE	ChronoTriggerSchalasThemeTak_pri	// Priority
	BYTE	ChronoTriggerSchalasThemeTak_rev	// Reverb.
    
	POIN2	ChronoTriggerSchalasThemeTak_grp
    
	POIN2	ChronoTriggerSchalasThemeTak_001
	POIN2	ChronoTriggerSchalasThemeTak_002
	POIN2	ChronoTriggerSchalasThemeTak_003
	POIN2	ChronoTriggerSchalasThemeTak_004
	POIN2	ChronoTriggerSchalasThemeTak_005
	POIN2	ChronoTriggerSchalasThemeTak_006
	POIN2	ChronoTriggerSchalasThemeTak_007

	
