//Event file generated from Sappy .s format.
	#include "MPlayDef.event"

	#define	ChronoTriggerWindScenePandan_grp  voicegroup000
	#define	ChronoTriggerWindScenePandan_pri  0
	#define	ChronoTriggerWindScenePandan_rev  0
	#define	ChronoTriggerWindScenePandan_mvl  127
	#define	ChronoTriggerWindScenePandan_key  0
	#define	ChronoTriggerWindScenePandan_tbs  1
	#define	ChronoTriggerWindScenePandan_exg  0
	#define	ChronoTriggerWindScenePandan_cmp  1

	// .rodata
	//	ChronoTriggerWindScenePandan
	ALIGN 4


//**************** Track 1 (Midi-Chn.0) ****************//

ChronoTriggerWindScenePandan_001:
// 000   ----------------------------------------
 BYTE   KEYSH   ChronoTriggerWindScenePandan_key+0
Label_0_016A8AAA:
 BYTE   TEMPO   164*ChronoTriggerWindScenePandan_tbs/2
 BYTE   VOICE   75
 BYTE   VOL   40*ChronoTriggerWindScenePandan_mvl/mxv
 BYTE   PAN   c_v+0
 BYTE   W48
 BYTE   W48
// 001   ----------------------------------------
 BYTE   W96
// 002   ----------------------------------------
 BYTE   W96
// 003   ----------------------------------------
 BYTE   W96
// 004   ----------------------------------------
 BYTE   W96
// 005   ----------------------------------------
 BYTE   W96
// 006   ----------------------------------------
 BYTE   W96
// 007   ----------------------------------------
 BYTE   W96
// 008   ----------------------------------------
 BYTE   W96
// 009   ----------------------------------------
 BYTE   W96
// 010   ----------------------------------------
 BYTE   W96
// 011   ----------------------------------------
 BYTE   W96
// 012   ----------------------------------------
 BYTE   W96
// 013   ----------------------------------------
 BYTE   W96
// 014   ----------------------------------------
 BYTE   W96
// 015   ----------------------------------------
 BYTE   W96
// 016   ----------------------------------------
 BYTE   W48
 BYTE   En3
 BYTE   W48
// 017   ----------------------------------------
 BYTE   VOL   0*ChronoTriggerWindScenePandan_mvl/mxv
 BYTE   N48  Dn5  v100
 BYTE   W01
 BYTE   VOL   7*ChronoTriggerWindScenePandan_mvl/mxv
 BYTE   W01
 BYTE   An2
 BYTE   W01
 BYTE   Gs3
 BYTE   W01
 BYTE   Gs4
 BYTE   W44
 BYTE   Cs1
 BYTE   N48  En5  v104
 BYTE   W01
 BYTE   VOL   7*ChronoTriggerWindScenePandan_mvl/mxv
 BYTE   W01
 BYTE   An2
 BYTE   W01
 BYTE   Gs3
 BYTE   W01
 BYTE   Gs4
 BYTE   W44
// 018   ----------------------------------------
Label_0_016A8AE3:
 BYTE   VOL   0*ChronoTriggerWindScenePandan_mvl/mxv
 BYTE   N24  Fn5  v116
 BYTE   W01
 BYTE   VOL   7*ChronoTriggerWindScenePandan_mvl/mxv
 BYTE   W01
 BYTE   An2
 BYTE   W01
 BYTE   Gs3
 BYTE   W01
 BYTE   Gs4
 BYTE   W20
 BYTE   Cs1
 BYTE   N24  En5
 BYTE   W01
 BYTE   VOL   7*ChronoTriggerWindScenePandan_mvl/mxv
 BYTE   W01
 BYTE   An2
 BYTE   W01
 BYTE   Gs3
 BYTE   W01
 BYTE   Gs4
 BYTE   W20
 BYTE   Cs1
 BYTE   N24  Cn5
 BYTE   W01
 BYTE   VOL   7*ChronoTriggerWindScenePandan_mvl/mxv
 BYTE   W01
 BYTE   An2
 BYTE   W01
 BYTE   Gs3
 BYTE   W01
 BYTE   Gs4
 BYTE   W20
 BYTE   Cs1
 BYTE   N24  An4
 BYTE   W01
 BYTE   VOL   7*ChronoTriggerWindScenePandan_mvl/mxv
 BYTE   W01
 BYTE   An2
 BYTE   W01
 BYTE   Gs3
 BYTE   W01
 BYTE   Gs4
 BYTE   W20
 BYTE   PEND 
// 019   ----------------------------------------
Label_0_016A8B1A:
 BYTE   VOL   0*ChronoTriggerWindScenePandan_mvl/mxv
 BYTE   N72  Dn5  v116
 BYTE   W01
 BYTE   VOL   7*ChronoTriggerWindScenePandan_mvl/mxv
 BYTE   W01
 BYTE   An2
 BYTE   W01
 BYTE   Gs3
 BYTE   W01
 BYTE   Gs4
 BYTE   W68
 BYTE   Cs1
 BYTE   N24
 BYTE   W01
 BYTE   VOL   7*ChronoTriggerWindScenePandan_mvl/mxv
 BYTE   W01
 BYTE   An2
 BYTE   W01
 BYTE   Gs3
 BYTE   W01
 BYTE   Gs4
 BYTE   W20
 BYTE   PEND 
// 020   ----------------------------------------
Label_0_016A8B36:
 BYTE   VOL   0*ChronoTriggerWindScenePandan_mvl/mxv
 BYTE   N24  Cn5  v116
 BYTE   W01
 BYTE   VOL   7*ChronoTriggerWindScenePandan_mvl/mxv
 BYTE   W01
 BYTE   An2
 BYTE   W01
 BYTE   Gs3
 BYTE   W01
 BYTE   Gs4
 BYTE   W20
 BYTE   Cs1
 BYTE   N24  An4
 BYTE   W01
 BYTE   VOL   7*ChronoTriggerWindScenePandan_mvl/mxv
 BYTE   W01
 BYTE   An2
 BYTE   W01
 BYTE   Gs3
 BYTE   W01
 BYTE   Gs4
 BYTE   W20
 BYTE   Cs1
 BYTE   N24  Fn4
 BYTE   W01
 BYTE   VOL   7*ChronoTriggerWindScenePandan_mvl/mxv
 BYTE   W01
 BYTE   An2
 BYTE   W01
 BYTE   Gs3
 BYTE   W01
 BYTE   Gs4
 BYTE   W20
 BYTE   Cs1
 BYTE   N24  Gn4
 BYTE   W01
 BYTE   VOL   7*ChronoTriggerWindScenePandan_mvl/mxv
 BYTE   W01
 BYTE   An2
 BYTE   W01
 BYTE   Gs3
 BYTE   W01
 BYTE   Gs4
 BYTE   W20
 BYTE   PEND 
// 021   ----------------------------------------
Label_0_016A8B6D:
 BYTE   VOL   0*ChronoTriggerWindScenePandan_mvl/mxv
 BYTE   N48  An4  v116
 BYTE   W01
 BYTE   VOL   7*ChronoTriggerWindScenePandan_mvl/mxv
 BYTE   W01
 BYTE   An2
 BYTE   W01
 BYTE   Gs3
 BYTE   W01
 BYTE   Gs4
 BYTE   W44
 BYTE   Cs1
 BYTE   N48  Gn4
 BYTE   W01
 BYTE   VOL   7*ChronoTriggerWindScenePandan_mvl/mxv
 BYTE   W01
 BYTE   An2
 BYTE   W01
 BYTE   Gs3
 BYTE   W01
 BYTE   Gs4
 BYTE   W44
 BYTE   PEND 
// 022   ----------------------------------------
Label_0_016A8B8A:
 BYTE   VOL   0*ChronoTriggerWindScenePandan_mvl/mxv
 BYTE   N24  En4  v116
 BYTE   W01
 BYTE   VOL   7*ChronoTriggerWindScenePandan_mvl/mxv
 BYTE   W01
 BYTE   An2
 BYTE   W01
 BYTE   Gs3
 BYTE   W01
 BYTE   Gs4
 BYTE   W20
 BYTE   Cs1
 BYTE   N24  Fn4
 BYTE   W01
 BYTE   VOL   7*ChronoTriggerWindScenePandan_mvl/mxv
 BYTE   W01
 BYTE   An2
 BYTE   W01
 BYTE   Gs3
 BYTE   W01
 BYTE   Gs4
 BYTE   W20
 BYTE   Cs1
 BYTE   N24  An4
 BYTE   W01
 BYTE   VOL   7*ChronoTriggerWindScenePandan_mvl/mxv
 BYTE   W01
 BYTE   An2
 BYTE   W01
 BYTE   Gs3
 BYTE   W01
 BYTE   Gs4
 BYTE   W20
 BYTE   Cs1
 BYTE   N24  Cn5
 BYTE   W01
 BYTE   VOL   7*ChronoTriggerWindScenePandan_mvl/mxv
 BYTE   W01
 BYTE   An2
 BYTE   W01
 BYTE   Gs3
 BYTE   W01
 BYTE   Gs4
 BYTE   W20
 BYTE   PEND 
// 023   ----------------------------------------
Label_0_016A8BC1:
 BYTE   VOL   0*ChronoTriggerWindScenePandan_mvl/mxv
 BYTE   N48  En5  v116
 BYTE   W01
 BYTE   VOL   7*ChronoTriggerWindScenePandan_mvl/mxv
 BYTE   W01
 BYTE   An2
 BYTE   W01
 BYTE   Gs3
 BYTE   W01
 BYTE   Gs4
 BYTE   W44
 BYTE   Cs1
 BYTE   N48  Fn5
 BYTE   W01
 BYTE   VOL   7*ChronoTriggerWindScenePandan_mvl/mxv
 BYTE   W01
 BYTE   An2
 BYTE   W01
 BYTE   Gs3
 BYTE   W01
 BYTE   Gs4
 BYTE   W44
 BYTE   PEND 
// 024   ----------------------------------------
Label_0_016A8BDE:
 BYTE   VOL   0*ChronoTriggerWindScenePandan_mvl/mxv
 BYTE   TIE  Cn5  v116
 BYTE   W01
 BYTE   VOL   7*ChronoTriggerWindScenePandan_mvl/mxv
 BYTE   W01
 BYTE   An2
 BYTE   W01
 BYTE   Gs3
 BYTE   W01
 BYTE   Gs4
 BYTE   W92
 BYTE   PEND 
// 025   ----------------------------------------
 BYTE   W48
 BYTE   EOT
 BYTE   VOL   0*ChronoTriggerWindScenePandan_mvl/mxv
 BYTE   N48  En5
 BYTE   W01
 BYTE   VOL   7*ChronoTriggerWindScenePandan_mvl/mxv
 BYTE   W01
 BYTE   An2
 BYTE   W01
 BYTE   Gs3
 BYTE   W01
 BYTE   Gs4
 BYTE   W44
 BYTE   PATT
  POIN2 Label_0_016A8AE3
 BYTE   PATT
  POIN2 Label_0_016A8B1A
 BYTE   PATT
  POIN2 Label_0_016A8B36
 BYTE   PATT
  POIN2 Label_0_016A8B6D
 BYTE   PATT
  POIN2 Label_0_016A8B8A
// 026   ----------------------------------------
 BYTE   VOL   0*ChronoTriggerWindScenePandan_mvl/mxv
 BYTE   N24  En5  v116
 BYTE   W01
 BYTE   VOL   7*ChronoTriggerWindScenePandan_mvl/mxv
 BYTE   W01
 BYTE   An2
 BYTE   W01
 BYTE   Gs3
 BYTE   W01
 BYTE   Gs4
 BYTE   W20
 BYTE   Cs1
 BYTE   N24  Dn5
 BYTE   W01
 BYTE   VOL   7*ChronoTriggerWindScenePandan_mvl/mxv
 BYTE   W01
 BYTE   An2
 BYTE   W01
 BYTE   Gs3
 BYTE   W01
 BYTE   Gs4
 BYTE   W20
 BYTE   Cs1
 BYTE   N24  Cn5
 BYTE   W01
 BYTE   VOL   7*ChronoTriggerWindScenePandan_mvl/mxv
 BYTE   W01
 BYTE   An2
 BYTE   W01
 BYTE   Gs3
 BYTE   W01
 BYTE   Gs4
 BYTE   W20
 BYTE   Cs1
 BYTE   N24  Dn5
 BYTE   W01
 BYTE   VOL   7*ChronoTriggerWindScenePandan_mvl/mxv
 BYTE   W01
 BYTE   An2
 BYTE   W01
 BYTE   Gs3
 BYTE   W01
 BYTE   Gs4
 BYTE   W20
// 027   ----------------------------------------
 BYTE   Cs1
 BYTE   TIE
 BYTE   W01
 BYTE   VOL   7*ChronoTriggerWindScenePandan_mvl/mxv
 BYTE   W01
 BYTE   An2
 BYTE   W01
 BYTE   Gs3
 BYTE   W01
 BYTE   Gs4
 BYTE   W92
// 028   ----------------------------------------
 BYTE   W72
 BYTE   EOT
 BYTE   VOL   0*ChronoTriggerWindScenePandan_mvl/mxv
 BYTE   N24  An5
 BYTE   W01
 BYTE   VOL   7*ChronoTriggerWindScenePandan_mvl/mxv
 BYTE   W01
 BYTE   An2
 BYTE   W01
 BYTE   Gs3
 BYTE   W01
 BYTE   Gs4
 BYTE   W20
// 029   ----------------------------------------
Label_0_016A8C69:
 BYTE   VOL   0*ChronoTriggerWindScenePandan_mvl/mxv
 BYTE   N96  An5  v116
 BYTE   W01
 BYTE   VOL   7*ChronoTriggerWindScenePandan_mvl/mxv
 BYTE   W01
 BYTE   An2
 BYTE   W01
 BYTE   Gs3
 BYTE   W01
 BYTE   Gs4
 BYTE   W92
 BYTE   PEND 
// 030   ----------------------------------------
Label_0_016A8C79:
 BYTE   VOL   0*ChronoTriggerWindScenePandan_mvl/mxv
 BYTE   N48  Gn5  v116
 BYTE   W01
 BYTE   VOL   7*ChronoTriggerWindScenePandan_mvl/mxv
 BYTE   W01
 BYTE   An2
 BYTE   W01
 BYTE   Gs3
 BYTE   W01
 BYTE   Gs4
 BYTE   W44
 BYTE   Cs1
 BYTE   N48  Fn5
 BYTE   W01
 BYTE   VOL   7*ChronoTriggerWindScenePandan_mvl/mxv
 BYTE   W01
 BYTE   An2
 BYTE   W01
 BYTE   Gs3
 BYTE   W01
 BYTE   Gs4
 BYTE   W44
 BYTE   PEND 
// 031   ----------------------------------------
Label_0_016A8C96:
 BYTE   VOL   0*ChronoTriggerWindScenePandan_mvl/mxv
 BYTE   N96  En5  v116
 BYTE   W01
 BYTE   VOL   7*ChronoTriggerWindScenePandan_mvl/mxv
 BYTE   W01
 BYTE   An2
 BYTE   W01
 BYTE   Gs3
 BYTE   W01
 BYTE   Gs4
 BYTE   W92
 BYTE   PEND 
// 032   ----------------------------------------
Label_0_016A8CA6:
 BYTE   VOL   0*ChronoTriggerWindScenePandan_mvl/mxv
 BYTE   N48  Fn5  v116
 BYTE   W01
 BYTE   VOL   7*ChronoTriggerWindScenePandan_mvl/mxv
 BYTE   W01
 BYTE   An2
 BYTE   W01
 BYTE   Gs3
 BYTE   W01
 BYTE   Gs4
 BYTE   W44
 BYTE   Cs1
 BYTE   N48  Gn5
 BYTE   W01
 BYTE   VOL   7*ChronoTriggerWindScenePandan_mvl/mxv
 BYTE   W01
 BYTE   An2
 BYTE   W01
 BYTE   Gs3
 BYTE   W01
 BYTE   Gs4
 BYTE   W44
 BYTE   PEND 
// 033   ----------------------------------------
Label_0_016A8CC3:
 BYTE   VOL   0*ChronoTriggerWindScenePandan_mvl/mxv
 BYTE   TIE  En5  v116
 BYTE   W01
 BYTE   VOL   7*ChronoTriggerWindScenePandan_mvl/mxv
 BYTE   W01
 BYTE   An2
 BYTE   W01
 BYTE   Gs3
 BYTE   W01
 BYTE   Gs4
 BYTE   W92
 BYTE   PEND 
// 034   ----------------------------------------
 BYTE   W48
 BYTE   EOT
 BYTE   VOL   0*ChronoTriggerWindScenePandan_mvl/mxv
 BYTE   N48  Cn5
 BYTE   W01
 BYTE   VOL   7*ChronoTriggerWindScenePandan_mvl/mxv
 BYTE   W01
 BYTE   An2
 BYTE   W01
 BYTE   Gs3
 BYTE   W01
 BYTE   Gs4
 BYTE   W44
// 035   ----------------------------------------
 BYTE   Cs1
 BYTE   TIE  An4
 BYTE   W01
 BYTE   VOL   7*ChronoTriggerWindScenePandan_mvl/mxv
 BYTE   W01
 BYTE   An2
 BYTE   W01
 BYTE   Gs3
 BYTE   W01
 BYTE   Gs4
 BYTE   W92
// 036   ----------------------------------------
 BYTE   W48
 BYTE   EOT
 BYTE   VOL   0*ChronoTriggerWindScenePandan_mvl/mxv
 BYTE   N48  Cn5
 BYTE   W01
 BYTE   VOL   7*ChronoTriggerWindScenePandan_mvl/mxv
 BYTE   W01
 BYTE   An2
 BYTE   W01
 BYTE   Gs3
 BYTE   W01
 BYTE   Gs4
 BYTE   W44
// 037   ----------------------------------------
 BYTE   Cs1
 BYTE   N96  As4
 BYTE   W01
 BYTE   VOL   7*ChronoTriggerWindScenePandan_mvl/mxv
 BYTE   W01
 BYTE   An2
 BYTE   W01
 BYTE   Gs3
 BYTE   W01
 BYTE   Gs4
 BYTE   W92
// 038   ----------------------------------------
 BYTE   Cs1
 BYTE   N48  Cn5
 BYTE   W01
 BYTE   VOL   7*ChronoTriggerWindScenePandan_mvl/mxv
 BYTE   W01
 BYTE   An2
 BYTE   W01
 BYTE   Gs3
 BYTE   W01
 BYTE   Gs4
 BYTE   W44
 BYTE   Cs1
 BYTE   N48  Dn5
 BYTE   W01
 BYTE   VOL   7*ChronoTriggerWindScenePandan_mvl/mxv
 BYTE   W01
 BYTE   An2
 BYTE   W01
 BYTE   Gs3
 BYTE   W01
 BYTE   Gs4
 BYTE   W44
 BYTE   PATT
  POIN2 Label_0_016A8C96
 BYTE   PATT
  POIN2 Label_0_016A8CA6
 BYTE   PATT
  POIN2 Label_0_016A8CC3
// 039   ----------------------------------------
 BYTE   W96
// 040   ----------------------------------------
 BYTE   EOT
 BYTE   En5
 BYTE   PATT
  POIN2 Label_0_016A8BDE
// 041   ----------------------------------------
 BYTE   W96
// 042   ----------------------------------------
 BYTE   EOT
 BYTE   Cn5
 BYTE   PATT
  POIN2 Label_0_016A8C69
 BYTE   PATT
  POIN2 Label_0_016A8C79
 BYTE   PATT
  POIN2 Label_0_016A8C96
 BYTE   PATT
  POIN2 Label_0_016A8CA6
 BYTE   PATT
  POIN2 Label_0_016A8C69
 BYTE   PATT
  POIN2 Label_0_016A8C79
// 043   ----------------------------------------
Label_0_016A8D5F:
 BYTE   VOL   0*ChronoTriggerWindScenePandan_mvl/mxv
 BYTE   N48  En5  v116
 BYTE   W01
 BYTE   VOL   7*ChronoTriggerWindScenePandan_mvl/mxv
 BYTE   W01
 BYTE   An2
 BYTE   W01
 BYTE   Gs3
 BYTE   W01
 BYTE   Gs4
 BYTE   W44
 BYTE   Cs1
 BYTE   N48  Dn5
 BYTE   W01
 BYTE   VOL   7*ChronoTriggerWindScenePandan_mvl/mxv
 BYTE   W01
 BYTE   An2
 BYTE   W01
 BYTE   Gs3
 BYTE   W01
 BYTE   Gs4
 BYTE   W44
 BYTE   PEND 
 BYTE   PATT
  POIN2 Label_0_016A8BC1
 BYTE   PATT
  POIN2 Label_0_016A8C69
 BYTE   PATT
  POIN2 Label_0_016A8C79
 BYTE   PATT
  POIN2 Label_0_016A8D5F
// 044   ----------------------------------------
 BYTE   VOL   0*ChronoTriggerWindScenePandan_mvl/mxv
 BYTE   N48  Cs5  v116
 BYTE   W01
 BYTE   VOL   7*ChronoTriggerWindScenePandan_mvl/mxv
 BYTE   W01
 BYTE   An2
 BYTE   W01
 BYTE   Gs3
 BYTE   W01
 BYTE   Gs4
 BYTE   W44
 BYTE   Cs1
 BYTE   N48  Dn5
 BYTE   W01
 BYTE   VOL   7*ChronoTriggerWindScenePandan_mvl/mxv
 BYTE   W01
 BYTE   An2
 BYTE   W01
 BYTE   Gs3
 BYTE   W01
 BYTE   Gs4
 BYTE   W44
 BYTE   PATT
  POIN2 Label_0_016A8CC3
// 045   ----------------------------------------
 BYTE   W96
// 046   ----------------------------------------
 BYTE   W96
// 047   ----------------------------------------
 BYTE   W96
// 048   ----------------------------------------
 BYTE   EOT
 BYTE   En5
 BYTE   W96
// 049   ----------------------------------------
 BYTE   W96
// 050   ----------------------------------------
 BYTE   W96
// 051   ----------------------------------------
 BYTE   W96
// 052   ----------------------------------------
 BYTE   W96
// 053   ----------------------------------------
 BYTE   W96
// 054   ----------------------------------------
 BYTE   W96
// 055   ----------------------------------------
 BYTE   W96
// 056   ----------------------------------------
 BYTE   W96
// 057   ----------------------------------------
 BYTE   W96
// 058   ----------------------------------------
 BYTE   W96
// 059   ----------------------------------------
 BYTE   W96
// 060   ----------------------------------------
 BYTE   W96
// 061   ----------------------------------------
 BYTE   W96
// 062   ----------------------------------------
 BYTE   W96
// 063   ----------------------------------------
 BYTE   W44
 BYTE   W02
 BYTE   GoTo
  POIN2 Label_0_016A8AAA
// 064   ----------------------------------------
 BYTE   W48
 BYTE   W02
 BYTE   FINE

//**************** Track 2 (Midi-Chn.1) ****************//

ChronoTriggerWindScenePandan_002:
// 000   ----------------------------------------
 BYTE   KEYSH   ChronoTriggerWindScenePandan_key+0
Label_1_016A8DD2:
 BYTE   VOICE   52
 BYTE   VOL   40*ChronoTriggerWindScenePandan_mvl/mxv
 BYTE   PAN   c_v+0
 BYTE   W48
 BYTE   VOL   40*ChronoTriggerWindScenePandan_mvl/mxv
 BYTE   PAN   c_v+3
 BYTE   W48
// 001   ----------------------------------------
Label_1_016A8DDE:
 BYTE   N48  Dn5  v127
 BYTE   W48
 BYTE   En5
 BYTE   W48
 BYTE   PEND 
// 002   ----------------------------------------
Label_1_016A8DE5:
 BYTE   N24  Fn5  v127
 BYTE   W24
 BYTE   En5
 BYTE   W24
 BYTE   Cn5
 BYTE   W24
 BYTE   An4
 BYTE   W24
 BYTE   PEND 
// 003   ----------------------------------------
Label_1_016A8DF0:
 BYTE   N72  Dn5  v127
 BYTE   W72
 BYTE   N24
 BYTE   W24
 BYTE   PEND 
// 004   ----------------------------------------
Label_1_016A8DF7:
 BYTE   N24  Cn5  v127
 BYTE   W24
 BYTE   An4
 BYTE   W24
 BYTE   Fn4
 BYTE   W24
 BYTE   Gn4
 BYTE   W24
 BYTE   PEND 
// 005   ----------------------------------------
Label_1_016A8E02:
 BYTE   N48  An4  v127
 BYTE   W48
 BYTE   Gn4
 BYTE   W48
 BYTE   PEND 
// 006   ----------------------------------------
Label_1_016A8E09:
 BYTE   N24  En4  v127
 BYTE   W24
 BYTE   Fn4
 BYTE   W24
 BYTE   An4
 BYTE   W24
 BYTE   Cn5
 BYTE   W24
 BYTE   PEND 
// 007   ----------------------------------------
Label_1_016A8E14:
 BYTE   N48  En5  v127
 BYTE   W48
 BYTE   Fn5
 BYTE   W48
 BYTE   PEND 
// 008   ----------------------------------------
 BYTE   N96  Cn5
 BYTE   W96
// 009   ----------------------------------------
 BYTE   W48
 BYTE   N48  En5
 BYTE   W48
 BYTE   PATT
  POIN2 Label_1_016A8DE5
 BYTE   PATT
  POIN2 Label_1_016A8DF0
 BYTE   PATT
  POIN2 Label_1_016A8DF7
 BYTE   PATT
  POIN2 Label_1_016A8E02
 BYTE   PATT
  POIN2 Label_1_016A8E09
// 010   ----------------------------------------
Label_1_016A8E3B:
 BYTE   N24  En5  v127
 BYTE   W24
 BYTE   Dn5
 BYTE   W24
 BYTE   Cn5
 BYTE   W24
 BYTE   Dn5
 BYTE   W24
 BYTE   PEND 
// 011   ----------------------------------------
 BYTE   N96
 BYTE   W96
// 012   ----------------------------------------
 BYTE   W96
// 013   ----------------------------------------
 BYTE   W96
// 014   ----------------------------------------
 BYTE   W96
// 015   ----------------------------------------
 BYTE   W96
// 016   ----------------------------------------
 BYTE   W96
// 017   ----------------------------------------
 BYTE   W96
// 018   ----------------------------------------
 BYTE   W96
// 019   ----------------------------------------
 BYTE   W96
// 020   ----------------------------------------
 BYTE   W96
// 021   ----------------------------------------
 BYTE   W96
// 022   ----------------------------------------
 BYTE   W96
// 023   ----------------------------------------
 BYTE   W96
// 024   ----------------------------------------
 BYTE   W96
// 025   ----------------------------------------
 BYTE   W96
// 026   ----------------------------------------
 BYTE   W96
// 027   ----------------------------------------
 BYTE   W96
// 028   ----------------------------------------
 BYTE   W96
// 029   ----------------------------------------
 BYTE   W96
// 030   ----------------------------------------
 BYTE   W96
// 031   ----------------------------------------
 BYTE   W96
// 032   ----------------------------------------
 BYTE   W96
// 033   ----------------------------------------
 BYTE   W96
// 034   ----------------------------------------
 BYTE   W96
// 035   ----------------------------------------
 BYTE   W96
// 036   ----------------------------------------
 BYTE   W96
// 037   ----------------------------------------
 BYTE   W96
// 038   ----------------------------------------
 BYTE   W96
// 039   ----------------------------------------
 BYTE   W96
// 040   ----------------------------------------
 BYTE   W96
// 041   ----------------------------------------
 BYTE   W96
// 042   ----------------------------------------
 BYTE   W96
// 043   ----------------------------------------
 BYTE   W96
// 044   ----------------------------------------
 BYTE   W96
// 045   ----------------------------------------
 BYTE   W96
// 046   ----------------------------------------
 BYTE   W96
// 047   ----------------------------------------
 BYTE   W96
// 048   ----------------------------------------
 BYTE   W96
// 049   ----------------------------------------
 BYTE   W96
// 050   ----------------------------------------
 BYTE   W96
// 051   ----------------------------------------
 BYTE   W96
// 052   ----------------------------------------
 BYTE   W96
// 053   ----------------------------------------
 BYTE   W96
// 054   ----------------------------------------
 BYTE   W96
// 055   ----------------------------------------
 BYTE   W96
// 056   ----------------------------------------
 BYTE   W96
// 057   ----------------------------------------
 BYTE   W96
// 058   ----------------------------------------
 BYTE   W96
// 059   ----------------------------------------
 BYTE   W96
 BYTE   PATT
  POIN2 Label_1_016A8DDE
 BYTE   PATT
  POIN2 Label_1_016A8DE5
 BYTE   PATT
  POIN2 Label_1_016A8DF0
 BYTE   PATT
  POIN2 Label_1_016A8DF7
 BYTE   PATT
  POIN2 Label_1_016A8E02
 BYTE   PATT
  POIN2 Label_1_016A8E09
 BYTE   PATT
  POIN2 Label_1_016A8E14
// 060   ----------------------------------------
 BYTE   N96  Cn5  v127
 BYTE   W96
// 061   ----------------------------------------
 BYTE   W48
 BYTE   N48  En5
 BYTE   W48
 BYTE   PATT
  POIN2 Label_1_016A8DE5
 BYTE   PATT
  POIN2 Label_1_016A8DF0
 BYTE   PATT
  POIN2 Label_1_016A8DF7
 BYTE   PATT
  POIN2 Label_1_016A8E02
 BYTE   PATT
  POIN2 Label_1_016A8E09
 BYTE   PATT
  POIN2 Label_1_016A8E3B
// 062   ----------------------------------------
 BYTE   N96  Dn5  v127
 BYTE   W96
// 063   ----------------------------------------
 BYTE   W44
 BYTE   W02
 BYTE   GoTo
  POIN2 Label_1_016A8DD2
// 064   ----------------------------------------
 BYTE   W48
 BYTE   W02
 BYTE   FINE

//**************** Track 3 (Midi-Chn.2) ****************//

ChronoTriggerWindScenePandan_003:
// 000   ----------------------------------------
 BYTE   KEYSH   ChronoTriggerWindScenePandan_key+0
Label_2_016A8ED2:
 BYTE   VOICE   73
 BYTE   VOL   40*ChronoTriggerWindScenePandan_mvl/mxv
 BYTE   PAN   c_v+0
 BYTE   W48
 BYTE   VOL   40*ChronoTriggerWindScenePandan_mvl/mxv
 BYTE   PAN   c_v+0
 BYTE   W48
// 001   ----------------------------------------
Label_2_016A8EDE:
 BYTE   N06  Dn5  v127
 BYTE   W48
 BYTE   En5
 BYTE   W48
 BYTE   PEND 
// 002   ----------------------------------------
Label_2_016A8EE5:
 BYTE   N06  Fn5  v127
 BYTE   W24
 BYTE   En5
 BYTE   W24
 BYTE   Cn5
 BYTE   W24
 BYTE   An4
 BYTE   W24
 BYTE   PEND 
// 003   ----------------------------------------
Label_2_016A8EF0:
 BYTE   N06  Dn5  v127
 BYTE   W72
 BYTE   N06
 BYTE   W24
 BYTE   PEND 
// 004   ----------------------------------------
Label_2_016A8EF7:
 BYTE   N06  Cn5  v127
 BYTE   W24
 BYTE   An4
 BYTE   W24
 BYTE   Fn4
 BYTE   W24
 BYTE   Gn4
 BYTE   W24
 BYTE   PEND 
// 005   ----------------------------------------
Label_2_016A8F02:
 BYTE   N06  An4  v127
 BYTE   W48
 BYTE   Gn4
 BYTE   W48
 BYTE   PEND 
// 006   ----------------------------------------
Label_2_016A8F09:
 BYTE   N06  En4  v127
 BYTE   W24
 BYTE   Fn4
 BYTE   W24
 BYTE   An4
 BYTE   W24
 BYTE   Cn5
 BYTE   W24
 BYTE   PEND 
// 007   ----------------------------------------
Label_2_016A8F14:
 BYTE   N06  En5  v127
 BYTE   W48
 BYTE   Fn5
 BYTE   W48
 BYTE   PEND 
// 008   ----------------------------------------
 BYTE   Cn5
 BYTE   W96
// 009   ----------------------------------------
 BYTE   W48
 BYTE   En5
 BYTE   W48
 BYTE   PATT
  POIN2 Label_2_016A8EE5
 BYTE   PATT
  POIN2 Label_2_016A8EF0
 BYTE   PATT
  POIN2 Label_2_016A8EF7
 BYTE   PATT
  POIN2 Label_2_016A8F02
 BYTE   PATT
  POIN2 Label_2_016A8F09
// 010   ----------------------------------------
Label_2_016A8F39:
 BYTE   N06  En5  v127
 BYTE   W24
 BYTE   Dn5
 BYTE   W24
 BYTE   Cn5
 BYTE   W24
 BYTE   Dn5
 BYTE   W24
 BYTE   PEND 
// 011   ----------------------------------------
 BYTE   N06
 BYTE   W96
// 012   ----------------------------------------
 BYTE   W96
// 013   ----------------------------------------
 BYTE   W96
// 014   ----------------------------------------
 BYTE   W96
// 015   ----------------------------------------
 BYTE   W96
// 016   ----------------------------------------
 BYTE   W96
// 017   ----------------------------------------
 BYTE   W96
// 018   ----------------------------------------
 BYTE   W96
// 019   ----------------------------------------
 BYTE   W96
// 020   ----------------------------------------
 BYTE   W96
// 021   ----------------------------------------
 BYTE   W96
// 022   ----------------------------------------
 BYTE   W96
// 023   ----------------------------------------
 BYTE   W96
// 024   ----------------------------------------
 BYTE   W96
// 025   ----------------------------------------
 BYTE   W96
// 026   ----------------------------------------
 BYTE   W96
// 027   ----------------------------------------
 BYTE   W96
// 028   ----------------------------------------
 BYTE   W96
// 029   ----------------------------------------
 BYTE   W96
// 030   ----------------------------------------
 BYTE   W96
// 031   ----------------------------------------
 BYTE   W96
// 032   ----------------------------------------
 BYTE   W96
// 033   ----------------------------------------
 BYTE   W96
// 034   ----------------------------------------
 BYTE   W96
// 035   ----------------------------------------
 BYTE   W96
// 036   ----------------------------------------
 BYTE   W96
// 037   ----------------------------------------
 BYTE   W96
// 038   ----------------------------------------
 BYTE   W96
// 039   ----------------------------------------
 BYTE   W96
// 040   ----------------------------------------
 BYTE   W96
// 041   ----------------------------------------
 BYTE   W96
// 042   ----------------------------------------
 BYTE   W96
// 043   ----------------------------------------
 BYTE   W96
// 044   ----------------------------------------
 BYTE   W96
// 045   ----------------------------------------
 BYTE   W96
// 046   ----------------------------------------
 BYTE   W96
// 047   ----------------------------------------
 BYTE   W96
// 048   ----------------------------------------
 BYTE   W96
// 049   ----------------------------------------
 BYTE   W96
// 050   ----------------------------------------
 BYTE   W96
// 051   ----------------------------------------
 BYTE   W96
// 052   ----------------------------------------
 BYTE   W96
// 053   ----------------------------------------
 BYTE   W96
// 054   ----------------------------------------
 BYTE   W96
// 055   ----------------------------------------
 BYTE   W96
// 056   ----------------------------------------
 BYTE   W96
// 057   ----------------------------------------
 BYTE   W96
// 058   ----------------------------------------
 BYTE   W96
// 059   ----------------------------------------
 BYTE   W96
 BYTE   PATT
  POIN2 Label_2_016A8EDE
 BYTE   PATT
  POIN2 Label_2_016A8EE5
 BYTE   PATT
  POIN2 Label_2_016A8EF0
 BYTE   PATT
  POIN2 Label_2_016A8EF7
 BYTE   PATT
  POIN2 Label_2_016A8F02
 BYTE   PATT
  POIN2 Label_2_016A8F09
 BYTE   PATT
  POIN2 Label_2_016A8F14
// 060   ----------------------------------------
 BYTE   N06  Cn5  v127
 BYTE   W96
// 061   ----------------------------------------
 BYTE   W48
 BYTE   En5
 BYTE   W48
 BYTE   PATT
  POIN2 Label_2_016A8EE5
 BYTE   PATT
  POIN2 Label_2_016A8EF0
 BYTE   PATT
  POIN2 Label_2_016A8EF7
 BYTE   PATT
  POIN2 Label_2_016A8F02
 BYTE   PATT
  POIN2 Label_2_016A8F09
 BYTE   PATT
  POIN2 Label_2_016A8F39
// 062   ----------------------------------------
 BYTE   N06  Dn5  v127
 BYTE   W96
// 063   ----------------------------------------
 BYTE   W44
 BYTE   W02
 BYTE   GoTo
  POIN2 Label_2_016A8ED2
// 064   ----------------------------------------
 BYTE   W48
 BYTE   W02
 BYTE   FINE

//**************** Track 4 (Midi-Chn.3) ****************//

ChronoTriggerWindScenePandan_004:
// 000   ----------------------------------------
 BYTE   KEYSH   ChronoTriggerWindScenePandan_key+0
Label_3_016A8FCE:
 BYTE   VOICE   32
 BYTE   VOL   40*ChronoTriggerWindScenePandan_mvl/mxv
 BYTE   PAN   c_v+0
 BYTE   W48
 BYTE   VOL   40*ChronoTriggerWindScenePandan_mvl/mxv
 BYTE   PAN   c_v+0
 BYTE   W48
// 001   ----------------------------------------
 BYTE   W96
// 002   ----------------------------------------
Label_3_016A8FDB:
 BYTE   VOL   40*ChronoTriggerWindScenePandan_mvl/mxv
 BYTE   N72  Dn2  v127
 BYTE   W06
 BYTE   VOL   37*ChronoTriggerWindScenePandan_mvl/mxv
 BYTE   W04
 BYTE   Dn4
 BYTE   W06
 BYTE   Cs4
 BYTE   W05
 BYTE   As3
 BYTE   W06
 BYTE   Gs3
 BYTE   W05
 BYTE   Fs3
 BYTE   W06
 BYTE   Ds3
 BYTE   W05
 BYTE   Cs3
 BYTE   W05
 BYTE   Bn2
 BYTE   W06
 BYTE   Gs2
 BYTE   W04
 BYTE   Fs2
 BYTE   W06
 BYTE   En2
 BYTE   W05
 BYTE   Cs2
 BYTE   W03
 BYTE   Gs4
 BYTE   N24
 BYTE   W06
 BYTE   VOL   37*ChronoTriggerWindScenePandan_mvl/mxv
 BYTE   W04
 BYTE   Dn4
 BYTE   W06
 BYTE   Cs4
 BYTE   W05
 BYTE   As3
 BYTE   W03
 BYTE   PEND 
// 003   ----------------------------------------
Label_3_016A9009:
 BYTE   VOL   40*ChronoTriggerWindScenePandan_mvl/mxv
 BYTE   N72  As1  v127
 BYTE   W06
 BYTE   VOL   37*ChronoTriggerWindScenePandan_mvl/mxv
 BYTE   W04
 BYTE   Dn4
 BYTE   W06
 BYTE   Cs4
 BYTE   W05
 BYTE   As3
 BYTE   W06
 BYTE   Gs3
 BYTE   W05
 BYTE   Fs3
 BYTE   W06
 BYTE   Ds3
 BYTE   W05
 BYTE   Cs3
 BYTE   W05
 BYTE   Bn2
 BYTE   W06
 BYTE   Gs2
 BYTE   W04
 BYTE   Fs2
 BYTE   W06
 BYTE   En2
 BYTE   W05
 BYTE   Cs2
 BYTE   W03
 BYTE   Gs4
 BYTE   N24
 BYTE   W06
 BYTE   VOL   37*ChronoTriggerWindScenePandan_mvl/mxv
 BYTE   W04
 BYTE   Dn4
 BYTE   W06
 BYTE   Cs4
 BYTE   W05
 BYTE   As3
 BYTE   W03
 BYTE   PEND 
// 004   ----------------------------------------
Label_3_016A9037:
 BYTE   VOL   40*ChronoTriggerWindScenePandan_mvl/mxv
 BYTE   N48  An1  v127
 BYTE   W06
 BYTE   VOL   37*ChronoTriggerWindScenePandan_mvl/mxv
 BYTE   W04
 BYTE   Dn4
 BYTE   W06
 BYTE   Cs4
 BYTE   W05
 BYTE   As3
 BYTE   W06
 BYTE   Gs3
 BYTE   W05
 BYTE   Fs3
 BYTE   W06
 BYTE   Ds3
 BYTE   W05
 BYTE   Cs3
 BYTE   W05
 BYTE   Gs4
 BYTE   N48  Cn2
 BYTE   W06
 BYTE   VOL   37*ChronoTriggerWindScenePandan_mvl/mxv
 BYTE   W04
 BYTE   Dn4
 BYTE   W06
 BYTE   Cs4
 BYTE   W05
 BYTE   As3
 BYTE   W06
 BYTE   Gs3
 BYTE   W05
 BYTE   Fs3
 BYTE   W06
 BYTE   Ds3
 BYTE   W05
 BYTE   Cs3
 BYTE   W05
 BYTE   PEND 
// 005   ----------------------------------------
Label_3_016A9064:
 BYTE   VOL   40*ChronoTriggerWindScenePandan_mvl/mxv
 BYTE   N48  Fn2  v127
 BYTE   W06
 BYTE   VOL   37*ChronoTriggerWindScenePandan_mvl/mxv
 BYTE   W04
 BYTE   Dn4
 BYTE   W06
 BYTE   Cs4
 BYTE   W05
 BYTE   As3
 BYTE   W06
 BYTE   Gs3
 BYTE   W05
 BYTE   Fs3
 BYTE   W06
 BYTE   Ds3
 BYTE   W05
 BYTE   Cs3
 BYTE   W05
 BYTE   Gs4
 BYTE   N48  En2
 BYTE   W06
 BYTE   VOL   37*ChronoTriggerWindScenePandan_mvl/mxv
 BYTE   W04
 BYTE   Dn4
 BYTE   W06
 BYTE   Cs4
 BYTE   W05
 BYTE   As3
 BYTE   W06
 BYTE   Gs3
 BYTE   W05
 BYTE   Fs3
 BYTE   W06
 BYTE   Ds3
 BYTE   W05
 BYTE   Cs3
 BYTE   W05
 BYTE   PEND 
 BYTE   PATT
  POIN2 Label_3_016A8FDB
// 006   ----------------------------------------
Label_3_016A9096:
 BYTE   VOL   40*ChronoTriggerWindScenePandan_mvl/mxv
 BYTE   N72  Gn1  v127
 BYTE   W06
 BYTE   VOL   37*ChronoTriggerWindScenePandan_mvl/mxv
 BYTE   W04
 BYTE   Dn4
 BYTE   W06
 BYTE   Cs4
 BYTE   W05
 BYTE   As3
 BYTE   W06
 BYTE   Gs3
 BYTE   W05
 BYTE   Fs3
 BYTE   W06
 BYTE   Ds3
 BYTE   W05
 BYTE   Cs3
 BYTE   W05
 BYTE   Bn2
 BYTE   W06
 BYTE   Gs2
 BYTE   W04
 BYTE   Fs2
 BYTE   W06
 BYTE   En2
 BYTE   W05
 BYTE   Cs2
 BYTE   W03
 BYTE   Gs4
 BYTE   N24
 BYTE   W06
 BYTE   VOL   37*ChronoTriggerWindScenePandan_mvl/mxv
 BYTE   W04
 BYTE   Dn4
 BYTE   W06
 BYTE   Cs4
 BYTE   W05
 BYTE   As3
 BYTE   W03
 BYTE   PEND 
// 007   ----------------------------------------
Label_3_016A90C4:
 BYTE   VOL   40*ChronoTriggerWindScenePandan_mvl/mxv
 BYTE   N72  Cn2  v127
 BYTE   W06
 BYTE   VOL   37*ChronoTriggerWindScenePandan_mvl/mxv
 BYTE   W04
 BYTE   Dn4
 BYTE   W06
 BYTE   Cs4
 BYTE   W05
 BYTE   As3
 BYTE   W06
 BYTE   Gs3
 BYTE   W05
 BYTE   Fs3
 BYTE   W06
 BYTE   Ds3
 BYTE   W05
 BYTE   Cs3
 BYTE   W05
 BYTE   Bn2
 BYTE   W06
 BYTE   Gs2
 BYTE   W04
 BYTE   Fs2
 BYTE   W06
 BYTE   En2
 BYTE   W05
 BYTE   Cs2
 BYTE   W03
 BYTE   Gs4
 BYTE   N24  Gn1
 BYTE   W06
 BYTE   VOL   37*ChronoTriggerWindScenePandan_mvl/mxv
 BYTE   W04
 BYTE   Dn4
 BYTE   W06
 BYTE   Cs4
 BYTE   W05
 BYTE   As3
 BYTE   W03
 BYTE   PEND 
// 008   ----------------------------------------
Label_3_016A90F3:
 BYTE   VOL   40*ChronoTriggerWindScenePandan_mvl/mxv
 BYTE   N96  Cn2  v127
 BYTE   W06
 BYTE   VOL   37*ChronoTriggerWindScenePandan_mvl/mxv
 BYTE   W06
 BYTE   Dn4
 BYTE   W04
 BYTE   Cs4
 BYTE   W06
 BYTE   As3
 BYTE   W06
 BYTE   Gs3
 BYTE   W05
 BYTE   Fs3
 BYTE   W06
 BYTE   Ds3
 BYTE   W06
 BYTE   Cs3
 BYTE   W05
 BYTE   Bn2
 BYTE   W06
 BYTE   Gs2
 BYTE   W06
 BYTE   Fs2
 BYTE   W05
 BYTE   En2
 BYTE   W06
 BYTE   Cs2
 BYTE   W06
 BYTE   Bn1
 BYTE   W05
 BYTE   An1
 BYTE   W06
 BYTE   Fs1
 BYTE   W04
 BYTE   En1
 BYTE   W02
 BYTE   PEND 
 BYTE   PATT
  POIN2 Label_3_016A8FDB
 BYTE   PATT
  POIN2 Label_3_016A9009
 BYTE   PATT
  POIN2 Label_3_016A9037
 BYTE   PATT
  POIN2 Label_3_016A9064
 BYTE   PATT
  POIN2 Label_3_016A8FDB
// 009   ----------------------------------------
Label_3_016A9136:
 BYTE   VOL   40*ChronoTriggerWindScenePandan_mvl/mxv
 BYTE   N48  Gn1  v127
 BYTE   W06
 BYTE   VOL   37*ChronoTriggerWindScenePandan_mvl/mxv
 BYTE   W04
 BYTE   Dn4
 BYTE   W06
 BYTE   Cs4
 BYTE   W05
 BYTE   As3
 BYTE   W06
 BYTE   Gs3
 BYTE   W05
 BYTE   Fs3
 BYTE   W06
 BYTE   Ds3
 BYTE   W05
 BYTE   Cs3
 BYTE   W05
 BYTE   Gs4
 BYTE   N48  An1
 BYTE   W06
 BYTE   VOL   37*ChronoTriggerWindScenePandan_mvl/mxv
 BYTE   W04
 BYTE   Dn4
 BYTE   W06
 BYTE   Cs4
 BYTE   W05
 BYTE   As3
 BYTE   W06
 BYTE   Gs3
 BYTE   W05
 BYTE   Fs3
 BYTE   W06
 BYTE   Ds3
 BYTE   W05
 BYTE   Cs3
 BYTE   W05
 BYTE   PEND 
// 010   ----------------------------------------
 BYTE   Gs4
 BYTE   TIE  Dn2
 BYTE   W06
 BYTE   VOL   37*ChronoTriggerWindScenePandan_mvl/mxv
 BYTE   W06
 BYTE   Dn4
 BYTE   W06
 BYTE   Cs4
 BYTE   W04
 BYTE   As3
 BYTE   W06
 BYTE   Gs3
 BYTE   W06
 BYTE   Fs3
 BYTE   W06
 BYTE   Ds3
 BYTE   W05
 BYTE   Cs3
 BYTE   W06
 BYTE   Bn2
 BYTE   W06
 BYTE   Gs2
 BYTE   W06
 BYTE   Fs2
 BYTE   W05
 BYTE   En2
 BYTE   W06
 BYTE   Cs2
 BYTE   W06
 BYTE   Bn1
 BYTE   W06
 BYTE   An1
 BYTE   W05
 BYTE   Fs1
 BYTE   W05
// 011   ----------------------------------------
 BYTE   W01
 BYTE   En1
 BYTE   W06
 BYTE   Dn1
 BYTE   W06
 BYTE   Cn1
 BYTE   W05
 BYTE   As0
 BYTE   W06
 BYTE   Gn0
 BYTE   W06
 BYTE   Fn0
 BYTE   W06
 BYTE   Ds0
 BYTE   W04
 BYTE   Cn0
 BYTE   W06
 BYTE   AsM1
 BYTE   W06
 BYTE   GsM1
 BYTE   W06
 BYTE   FsM1
 BYTE   W05
 BYTE   DsM1
 BYTE   W06
 BYTE   CsM1
 BYTE   W06
 BYTE   BnM2
 BYTE   W06
 BYTE   GsM2
 BYTE   W05
 BYTE   FsM2
 BYTE   W06
 BYTE   EnM2
 BYTE   W04
// 012   ----------------------------------------
 BYTE   EOT
 BYTE   W02
 BYTE   VOL   0*ChronoTriggerWindScenePandan_mvl/mxv
 BYTE   W05
 BYTE   CnM2
 BYTE   W88
 BYTE   W01
// 013   ----------------------------------------
 BYTE   W96
// 014   ----------------------------------------
 BYTE   W96
// 015   ----------------------------------------
 BYTE   W96
// 016   ----------------------------------------
 BYTE   W96
// 017   ----------------------------------------
 BYTE   W96
// 018   ----------------------------------------
 BYTE   W96
// 019   ----------------------------------------
 BYTE   W96
// 020   ----------------------------------------
 BYTE   W96
// 021   ----------------------------------------
 BYTE   W96
// 022   ----------------------------------------
 BYTE   W96
// 023   ----------------------------------------
 BYTE   W96
// 024   ----------------------------------------
 BYTE   W96
// 025   ----------------------------------------
 BYTE   W96
// 026   ----------------------------------------
 BYTE   W96
// 027   ----------------------------------------
 BYTE   W96
// 028   ----------------------------------------
 BYTE   W96
// 029   ----------------------------------------
 BYTE   W96
// 030   ----------------------------------------
 BYTE   W96
// 031   ----------------------------------------
 BYTE   W96
// 032   ----------------------------------------
 BYTE   W96
// 033   ----------------------------------------
 BYTE   W96
// 034   ----------------------------------------
 BYTE   W96
// 035   ----------------------------------------
 BYTE   W96
// 036   ----------------------------------------
 BYTE   W96
// 037   ----------------------------------------
 BYTE   W96
// 038   ----------------------------------------
 BYTE   W96
// 039   ----------------------------------------
 BYTE   W96
// 040   ----------------------------------------
 BYTE   W96
// 041   ----------------------------------------
 BYTE   W96
// 042   ----------------------------------------
 BYTE   W96
// 043   ----------------------------------------
 BYTE   W96
// 044   ----------------------------------------
 BYTE   W96
// 045   ----------------------------------------
 BYTE   W96
// 046   ----------------------------------------
 BYTE   W96
// 047   ----------------------------------------
 BYTE   W96
// 048   ----------------------------------------
 BYTE   W96
// 049   ----------------------------------------
 BYTE   W96
// 050   ----------------------------------------
 BYTE   W96
// 051   ----------------------------------------
 BYTE   W96
// 052   ----------------------------------------
 BYTE   W96
// 053   ----------------------------------------
 BYTE   W96
// 054   ----------------------------------------
 BYTE   W96
// 055   ----------------------------------------
 BYTE   W96
// 056   ----------------------------------------
 BYTE   W96
// 057   ----------------------------------------
 BYTE   W96
// 058   ----------------------------------------
 BYTE   W48
 BYTE   Gs4
 BYTE   W48
// 059   ----------------------------------------
 BYTE   W96
 BYTE   PATT
  POIN2 Label_3_016A8FDB
 BYTE   PATT
  POIN2 Label_3_016A9009
 BYTE   PATT
  POIN2 Label_3_016A9037
 BYTE   PATT
  POIN2 Label_3_016A9064
 BYTE   PATT
  POIN2 Label_3_016A8FDB
 BYTE   PATT
  POIN2 Label_3_016A9096
 BYTE   PATT
  POIN2 Label_3_016A90C4
 BYTE   PATT
  POIN2 Label_3_016A90F3
 BYTE   PATT
  POIN2 Label_3_016A8FDB
 BYTE   PATT
  POIN2 Label_3_016A9009
 BYTE   PATT
  POIN2 Label_3_016A9037
 BYTE   PATT
  POIN2 Label_3_016A9064
 BYTE   PATT
  POIN2 Label_3_016A8FDB
 BYTE   PATT
  POIN2 Label_3_016A9136
// 060   ----------------------------------------
 BYTE   VOL   40*ChronoTriggerWindScenePandan_mvl/mxv
 BYTE   N72  Dn2  v127
 BYTE   W06
 BYTE   VOL   37*ChronoTriggerWindScenePandan_mvl/mxv
 BYTE   W06
 BYTE   Dn4
 BYTE   W06
 BYTE   Cs4
 BYTE   W04
 BYTE   As3
 BYTE   W06
 BYTE   Gs3
 BYTE   W06
 BYTE   Fs3
 BYTE   W06
 BYTE   Ds3
 BYTE   W05
 BYTE   Cs3
 BYTE   W06
 BYTE   Bn2
 BYTE   W06
 BYTE   Gs2
 BYTE   W06
 BYTE   Fs2
 BYTE   W05
 BYTE   En2
 BYTE   W04
 BYTE   Gs4
 BYTE   N24  An1
 BYTE   W06
 BYTE   VOL   37*ChronoTriggerWindScenePandan_mvl/mxv
 BYTE   W04
 BYTE   Dn4
 BYTE   W06
 BYTE   Cs4
 BYTE   W05
 BYTE   As3
 BYTE   W03
// 061   ----------------------------------------
 BYTE   Gs4
 BYTE   N96  Dn1
 BYTE   W03
 BYTE   VOL   37*ChronoTriggerWindScenePandan_mvl/mxv
 BYTE   W03
 BYTE   Dn4
 BYTE   W02
 BYTE   Cs4
 BYTE   W04
 BYTE   As3
 BYTE   W02
 BYTE   Gs3
 BYTE   W02
 BYTE   Fs3
 BYTE   W03
 BYTE   Ds3
 BYTE   W03
 BYTE   Cs3
 BYTE   W03
 BYTE   Bn2
 BYTE   W02
 BYTE   Gs2
 BYTE   W04
 BYTE   Fs2
 BYTE   W02
 BYTE   En2
 BYTE   W03
 BYTE   Cs2
 BYTE   W02
 BYTE   Bn1
 BYTE   W04
 BYTE   An1
 BYTE   W02
 BYTE   Fs1
 BYTE   W02
 BYTE   GoTo
  POIN2 Label_3_016A8FCE
// 062   ----------------------------------------
 BYTE   VOL   0*ChronoTriggerWindScenePandan_mvl/mxv
 BYTE   W04
 BYTE   Dn1
 BYTE   W02
 BYTE   Cn1
 BYTE   W03
 BYTE   As0
 BYTE   W02
 BYTE   Gn0
 BYTE   W04
 BYTE   Fn0
 BYTE   W02
 BYTE   Ds0
 BYTE   W03
 BYTE   Cn0
 BYTE   W03
 BYTE   AsM1
 BYTE   W03
 BYTE   GsM1
 BYTE   W02
 BYTE   FsM1
 BYTE   W02
 BYTE   DsM1
 BYTE   W04
 BYTE   CsM1
 BYTE   W02
 BYTE   BnM2
 BYTE   W03
 BYTE   GsM2
 BYTE   W03
 BYTE   FsM2
 BYTE   W03
 BYTE   EnM2
 BYTE   W02
 BYTE   CsM2
 BYTE   W03
 BYTE   CnM2
 BYTE   FINE

//**************** Track 5 (Midi-Chn.4) ****************//

ChronoTriggerWindScenePandan_005:
// 000   ----------------------------------------
 BYTE   KEYSH   ChronoTriggerWindScenePandan_key+0
Label_4_016A92AA:
 BYTE   VOICE   52
 BYTE   VOL   40*ChronoTriggerWindScenePandan_mvl/mxv
 BYTE   PAN   c_v+0
 BYTE   W48
 BYTE   VOL   40*ChronoTriggerWindScenePandan_mvl/mxv
 BYTE   PAN   c_v+0
 BYTE   En3  v064
 BYTE   W48
// 001   ----------------------------------------
 BYTE   W96
// 002   ----------------------------------------
Label_4_016A92B9:
 BYTE   N96  Dn3  v092
 BYTE   W24
 BYTE   N72  An3  v112
 BYTE   W24
 BYTE   N48  En4  v116
 BYTE   W48
 BYTE   PEND 
// 003   ----------------------------------------
Label_4_016A92C6:
 BYTE   N96  As2  v092
 BYTE   W24
 BYTE   N72  Fn3  v112
 BYTE   W24
 BYTE   N48  Cn4  v116
 BYTE   W48
 BYTE   PEND 
// 004   ----------------------------------------
Label_4_016A92D3:
 BYTE   N48  An2  v092
 BYTE   W24
 BYTE   N72  En3  v112
 BYTE   W24
 BYTE   N48  Cn3  v092
 BYTE   W24
 BYTE   N24  Cn4  v116
 BYTE   W24
 BYTE   PEND 
// 005   ----------------------------------------
Label_4_016A92E4:
 BYTE   N48  Fn2  v092
 BYTE   W24
 BYTE   Fn3  v112
 BYTE   W24
 BYTE   En2  v092
 BYTE   N48  Dn4  v116
 BYTE   W24
 BYTE   N24  En3  v112
 BYTE   W24
 BYTE   PEND 
// 006   ----------------------------------------
Label_4_016A92F6:
 BYTE   N96  Dn2  v092
 BYTE   W24
 BYTE   N72  An2  v112
 BYTE   W24
 BYTE   N48  En3  v116
 BYTE   W48
 BYTE   PEND 
// 007   ----------------------------------------
Label_4_016A9303:
 BYTE   N96  Gn2  v092
 BYTE   N24  Gn4  v112
 BYTE   N72  Cn5  v116
 BYTE   W24
 BYTE   Dn3  v112
 BYTE   W48
 BYTE   N24  Fn3  v116
 BYTE   W24
 BYTE   PEND 
// 008   ----------------------------------------
Label_4_016A9315:
 BYTE   N96  Cn3  v092
 BYTE   N24  Fn4  v112
 BYTE   N72  Gn4  v116
 BYTE   W24
 BYTE   N24  Gn3  v112
 BYTE   W24
 BYTE   N48  Dn4
 BYTE   W24
 BYTE   N24  Fn4  v116
 BYTE   W24
 BYTE   PEND 
// 009   ----------------------------------------
Label_4_016A932B:
 BYTE   N96  Cn4  v112
 BYTE   N96  En4  v116
 BYTE   W96
 BYTE   PEND 
 BYTE   PATT
  POIN2 Label_4_016A92B9
 BYTE   PATT
  POIN2 Label_4_016A92C6
 BYTE   PATT
  POIN2 Label_4_016A92D3
 BYTE   PATT
  POIN2 Label_4_016A92E4
 BYTE   PATT
  POIN2 Label_4_016A92F6
// 010   ----------------------------------------
Label_4_016A934C:
 BYTE   N48  Gn2  v092
 BYTE   N24  Gn4  v112
 BYTE   N48  Cn5  v116
 BYTE   W24
 BYTE   Gn3  v112
 BYTE   W24
 BYTE   An2  v092
 BYTE   N48  An4  v116
 BYTE   W24
 BYTE   N24  An3  v112
 BYTE   W24
 BYTE   PEND 
// 011   ----------------------------------------
Label_4_016A9364:
 BYTE   N96  Dn3  v092
 BYTE   N72  Gn4  v112
 BYTE   N24  An4  v116
 BYTE   W24
 BYTE   An3
 BYTE   W24
 BYTE   N48  En4
 BYTE   W24
 BYTE   N24  Gn4  v112
 BYTE   W24
 BYTE   PEND 
// 012   ----------------------------------------
 BYTE   N96  Dn4  v092
 BYTE   N96  Fs4  v116
 BYTE   N96  An4  v112
 BYTE   W96
// 013   ----------------------------------------
 BYTE   W96
// 014   ----------------------------------------
 BYTE   W96
// 015   ----------------------------------------
 BYTE   W96
// 016   ----------------------------------------
 BYTE   W96
// 017   ----------------------------------------
 BYTE   W96
// 018   ----------------------------------------
 BYTE   W96
// 019   ----------------------------------------
 BYTE   W96
// 020   ----------------------------------------
 BYTE   W96
// 021   ----------------------------------------
 BYTE   W96
// 022   ----------------------------------------
 BYTE   W96
// 023   ----------------------------------------
 BYTE   W96
// 024   ----------------------------------------
 BYTE   W96
// 025   ----------------------------------------
 BYTE   W96
// 026   ----------------------------------------
 BYTE   W96
// 027   ----------------------------------------
 BYTE   W96
// 028   ----------------------------------------
 BYTE   W96
// 029   ----------------------------------------
 BYTE   W96
// 030   ----------------------------------------
 BYTE   W96
// 031   ----------------------------------------
 BYTE   W96
// 032   ----------------------------------------
 BYTE   W96
// 033   ----------------------------------------
 BYTE   W96
// 034   ----------------------------------------
 BYTE   W96
// 035   ----------------------------------------
 BYTE   W96
// 036   ----------------------------------------
 BYTE   W96
// 037   ----------------------------------------
 BYTE   W96
// 038   ----------------------------------------
 BYTE   W96
// 039   ----------------------------------------
 BYTE   W96
// 040   ----------------------------------------
 BYTE   W96
// 041   ----------------------------------------
 BYTE   W96
// 042   ----------------------------------------
 BYTE   W96
// 043   ----------------------------------------
 BYTE   W96
// 044   ----------------------------------------
 BYTE   W96
// 045   ----------------------------------------
 BYTE   W96
// 046   ----------------------------------------
 BYTE   W96
// 047   ----------------------------------------
 BYTE   W96
// 048   ----------------------------------------
 BYTE   W96
// 049   ----------------------------------------
 BYTE   W96
// 050   ----------------------------------------
 BYTE   W96
// 051   ----------------------------------------
 BYTE   W96
// 052   ----------------------------------------
 BYTE   W96
// 053   ----------------------------------------
 BYTE   W96
// 054   ----------------------------------------
 BYTE   W96
// 055   ----------------------------------------
 BYTE   W96
// 056   ----------------------------------------
 BYTE   W96
// 057   ----------------------------------------
 BYTE   W96
// 058   ----------------------------------------
 BYTE   W96
// 059   ----------------------------------------
 BYTE   W96
// 060   ----------------------------------------
 BYTE   W96
 BYTE   PATT
  POIN2 Label_4_016A92B9
 BYTE   PATT
  POIN2 Label_4_016A92C6
 BYTE   PATT
  POIN2 Label_4_016A92D3
 BYTE   PATT
  POIN2 Label_4_016A92E4
 BYTE   PATT
  POIN2 Label_4_016A92F6
 BYTE   PATT
  POIN2 Label_4_016A9303
 BYTE   PATT
  POIN2 Label_4_016A9315
 BYTE   PATT
  POIN2 Label_4_016A932B
 BYTE   PATT
  POIN2 Label_4_016A92B9
 BYTE   PATT
  POIN2 Label_4_016A92C6
 BYTE   PATT
  POIN2 Label_4_016A92D3
 BYTE   PATT
  POIN2 Label_4_016A92E4
 BYTE   PATT
  POIN2 Label_4_016A92F6
 BYTE   PATT
  POIN2 Label_4_016A934C
 BYTE   PATT
  POIN2 Label_4_016A9364
// 061   ----------------------------------------
 BYTE   N96  Dn4  v092
 BYTE   N96  Fs4  v116
 BYTE   N96  An4  v112
 BYTE   W44
 BYTE   W02
 BYTE   GoTo
  POIN2 Label_4_016A92AA
// 062   ----------------------------------------
 BYTE   W48
 BYTE   W02
 BYTE   FINE

//**************** Track 6 (Midi-Chn.5) ****************//

ChronoTriggerWindScenePandan_006:
// 000   ----------------------------------------
 BYTE   KEYSH   ChronoTriggerWindScenePandan_key+0
Label_5_016A9412:
 BYTE   VOICE   118
 BYTE   VOL   40*ChronoTriggerWindScenePandan_mvl/mxv
 BYTE   PAN   c_v+0
 BYTE   W48
 BYTE   VOL   40*ChronoTriggerWindScenePandan_mvl/mxv
 BYTE   PAN   c_v+0
 BYTE   W01
 BYTE   VOL   40*ChronoTriggerWindScenePandan_mvl/mxv
 BYTE   W44
 BYTE   W03
// 001   ----------------------------------------
 BYTE   W96
// 002   ----------------------------------------
 BYTE   W96
// 003   ----------------------------------------
 BYTE   W48
 BYTE   N12  Gn4  v127
 BYTE   W48
// 004   ----------------------------------------
 BYTE   W96
// 005   ----------------------------------------
 BYTE   W48
 BYTE   N12
 BYTE   W48
// 006   ----------------------------------------
 BYTE   W96
// 007   ----------------------------------------
 BYTE   W48
 BYTE   N12
 BYTE   W48
// 008   ----------------------------------------
 BYTE   W96
// 009   ----------------------------------------
 BYTE   W48
 BYTE   N12
 BYTE   W48
// 010   ----------------------------------------
 BYTE   W96
// 011   ----------------------------------------
 BYTE   W48
 BYTE   N12
 BYTE   W48
// 012   ----------------------------------------
 BYTE   W96
// 013   ----------------------------------------
 BYTE   W48
 BYTE   N12
 BYTE   W48
// 014   ----------------------------------------
 BYTE   W96
// 015   ----------------------------------------
 BYTE   W48
 BYTE   N12
 BYTE   W48
// 016   ----------------------------------------
 BYTE   W96
// 017   ----------------------------------------
 BYTE   W96
// 018   ----------------------------------------
 BYTE   W96
// 019   ----------------------------------------
 BYTE   W96
// 020   ----------------------------------------
 BYTE   W96
// 021   ----------------------------------------
 BYTE   W96
// 022   ----------------------------------------
 BYTE   W96
// 023   ----------------------------------------
 BYTE   W96
// 024   ----------------------------------------
 BYTE   W96
// 025   ----------------------------------------
 BYTE   W96
// 026   ----------------------------------------
 BYTE   W96
// 027   ----------------------------------------
 BYTE   W96
// 028   ----------------------------------------
 BYTE   W96
// 029   ----------------------------------------
 BYTE   W96
// 030   ----------------------------------------
 BYTE   W96
// 031   ----------------------------------------
 BYTE   W96
// 032   ----------------------------------------
 BYTE   W96
// 033   ----------------------------------------
 BYTE   W96
// 034   ----------------------------------------
 BYTE   W48
 BYTE   N12
 BYTE   W48
// 035   ----------------------------------------
 BYTE   W96
// 036   ----------------------------------------
 BYTE   W48
 BYTE   N12
 BYTE   W48
// 037   ----------------------------------------
 BYTE   W96
// 038   ----------------------------------------
 BYTE   W48
 BYTE   N12
 BYTE   W48
// 039   ----------------------------------------
 BYTE   W96
// 040   ----------------------------------------
 BYTE   W48
 BYTE   N12
 BYTE   W48
// 041   ----------------------------------------
 BYTE   W96
// 042   ----------------------------------------
 BYTE   W48
 BYTE   N12
 BYTE   W48
// 043   ----------------------------------------
 BYTE   W96
// 044   ----------------------------------------
 BYTE   W48
 BYTE   N12
 BYTE   W48
// 045   ----------------------------------------
 BYTE   W96
// 046   ----------------------------------------
 BYTE   W48
 BYTE   N12
 BYTE   W48
// 047   ----------------------------------------
 BYTE   W96
// 048   ----------------------------------------
 BYTE   W48
 BYTE   N12
 BYTE   W48
// 049   ----------------------------------------
 BYTE   W96
// 050   ----------------------------------------
 BYTE   W48
 BYTE   N12
 BYTE   W48
// 051   ----------------------------------------
 BYTE   W96
// 052   ----------------------------------------
 BYTE   W48
 BYTE   N12
 BYTE   W48
// 053   ----------------------------------------
 BYTE   W96
// 054   ----------------------------------------
 BYTE   W48
 BYTE   N12
 BYTE   W48
// 055   ----------------------------------------
 BYTE   W96
// 056   ----------------------------------------
 BYTE   W48
 BYTE   N12
 BYTE   W48
// 057   ----------------------------------------
 BYTE   W96
// 058   ----------------------------------------
 BYTE   W48
 BYTE   N12
 BYTE   W48
// 059   ----------------------------------------
 BYTE   W96
// 060   ----------------------------------------
 BYTE   W48
 BYTE   N12
 BYTE   W48
// 061   ----------------------------------------
 BYTE   W96
// 062   ----------------------------------------
 BYTE   W48
 BYTE   N12
 BYTE   W48
// 063   ----------------------------------------
 BYTE   W96
// 064   ----------------------------------------
 BYTE   W48
 BYTE   N12
 BYTE   W48
// 065   ----------------------------------------
 BYTE   W96
// 066   ----------------------------------------
 BYTE   W96
// 067   ----------------------------------------
 BYTE   W48
 BYTE   N12
 BYTE   W48
// 068   ----------------------------------------
 BYTE   W96
// 069   ----------------------------------------
 BYTE   W48
 BYTE   N12
 BYTE   W48
// 070   ----------------------------------------
 BYTE   W96
// 071   ----------------------------------------
 BYTE   W48
 BYTE   N12
 BYTE   W48
// 072   ----------------------------------------
 BYTE   W96
// 073   ----------------------------------------
 BYTE   W48
 BYTE   N12
 BYTE   W48
// 074   ----------------------------------------
 BYTE   W96
// 075   ----------------------------------------
 BYTE   W48
 BYTE   N12
 BYTE   W48
// 076   ----------------------------------------
 BYTE   W96
// 077   ----------------------------------------
 BYTE   W48
 BYTE   N12
 BYTE   W48
// 078   ----------------------------------------
 BYTE   W96
// 079   ----------------------------------------
 BYTE   W48
 BYTE   N12
 BYTE   W48
// 080   ----------------------------------------
 BYTE   W96
// 081   ----------------------------------------
 BYTE   W44
 BYTE   W02
 BYTE   GoTo
  POIN2 Label_5_016A9412
// 082   ----------------------------------------
 BYTE   W48
 BYTE   W02
 BYTE   FINE

//**************** Track 7 (Midi-Chn.6) ****************//

ChronoTriggerWindScenePandan_007:
// 000   ----------------------------------------
 BYTE   KEYSH   ChronoTriggerWindScenePandan_key+0
Label_6_016A94BE:
 BYTE   VOICE   40
 BYTE   VOL   40*ChronoTriggerWindScenePandan_mvl/mxv
 BYTE   PAN   c_v+0
 BYTE   W96
// 001   ----------------------------------------
 BYTE   W96
// 002   ----------------------------------------
 BYTE   W96
// 003   ----------------------------------------
 BYTE   W96
// 004   ----------------------------------------
 BYTE   W96
// 005   ----------------------------------------
 BYTE   W96
// 006   ----------------------------------------
 BYTE   W96
// 007   ----------------------------------------
 BYTE   W96
// 008   ----------------------------------------
 BYTE   W96
// 009   ----------------------------------------
 BYTE   W96
// 010   ----------------------------------------
 BYTE   W96
// 011   ----------------------------------------
 BYTE   W96
// 012   ----------------------------------------
 BYTE   W96
// 013   ----------------------------------------
 BYTE   W96
// 014   ----------------------------------------
 BYTE   W96
// 015   ----------------------------------------
 BYTE   W96
// 016   ----------------------------------------
 BYTE   W96
// 017   ----------------------------------------
 BYTE   W48
 BYTE   Fn1
 BYTE   W48
// 018   ----------------------------------------
Label_6_016A94D8:
 BYTE   VOL   0*ChronoTriggerWindScenePandan_mvl/mxv
 BYTE   TIE  Fn4  v096
 BYTE   W01
 BYTE   VOL   7*ChronoTriggerWindScenePandan_mvl/mxv
 BYTE   W01
 BYTE   An2
 BYTE   W01
 BYTE   Gs3
 BYTE   W01
 BYTE   Gs4
 BYTE   W92
 BYTE   PEND 
// 019   ----------------------------------------
 BYTE   W96
// 020   ----------------------------------------
 BYTE   EOT
Label_6_016A94EA:
 BYTE   VOL   0*ChronoTriggerWindScenePandan_mvl/mxv
 BYTE   N48  En4  v096
 BYTE   W01
 BYTE   VOL   7*ChronoTriggerWindScenePandan_mvl/mxv
 BYTE   W01
 BYTE   An2
 BYTE   W01
 BYTE   Gs3
 BYTE   W01
 BYTE   Gs4
 BYTE   W44
 BYTE   Cs1
 BYTE   N48  Dn4
 BYTE   W01
 BYTE   VOL   7*ChronoTriggerWindScenePandan_mvl/mxv
 BYTE   W01
 BYTE   An2
 BYTE   W01
 BYTE   Gs3
 BYTE   W01
 BYTE   Gs4
 BYTE   W44
 BYTE   PEND 
// 021   ----------------------------------------
Label_6_016A9507:
 BYTE   VOL   0*ChronoTriggerWindScenePandan_mvl/mxv
 BYTE   N48  Cn4  v096
 BYTE   W01
 BYTE   VOL   7*ChronoTriggerWindScenePandan_mvl/mxv
 BYTE   W01
 BYTE   An2
 BYTE   W01
 BYTE   Gs3
 BYTE   W01
 BYTE   Gs4
 BYTE   W44
 BYTE   Cs1
 BYTE   N48  Cs4
 BYTE   W01
 BYTE   VOL   7*ChronoTriggerWindScenePandan_mvl/mxv
 BYTE   W01
 BYTE   An2
 BYTE   W01
 BYTE   Gs3
 BYTE   W01
 BYTE   Gs4
 BYTE   W44
 BYTE   PEND 
// 022   ----------------------------------------
Label_6_016A9524:
 BYTE   VOL   0*ChronoTriggerWindScenePandan_mvl/mxv
 BYTE   TIE  Cn4  v096
 BYTE   W01
 BYTE   VOL   7*ChronoTriggerWindScenePandan_mvl/mxv
 BYTE   W01
 BYTE   An2
 BYTE   W01
 BYTE   Gs3
 BYTE   W01
 BYTE   Gs4
 BYTE   W92
 BYTE   PEND 
// 023   ----------------------------------------
 BYTE   W96
// 024   ----------------------------------------
 BYTE   EOT
 BYTE   VOL   0*ChronoTriggerWindScenePandan_mvl/mxv
 BYTE   N96  Fn4
 BYTE   W01
 BYTE   VOL   7*ChronoTriggerWindScenePandan_mvl/mxv
 BYTE   W01
 BYTE   An2
 BYTE   W01
 BYTE   Gs3
 BYTE   W01
 BYTE   Gs4
 BYTE   W92
// 025   ----------------------------------------
 BYTE   Cs1
 BYTE   N96  En4
 BYTE   W01
 BYTE   VOL   7*ChronoTriggerWindScenePandan_mvl/mxv
 BYTE   W01
 BYTE   An2
 BYTE   W01
 BYTE   Gs3
 BYTE   W01
 BYTE   Gs4
 BYTE   W92
 BYTE   PATT
  POIN2 Label_6_016A94D8
// 026   ----------------------------------------
 BYTE   W96
// 027   ----------------------------------------
 BYTE   EOT
 BYTE   Fn4
 BYTE   PATT
  POIN2 Label_6_016A94EA
 BYTE   PATT
  POIN2 Label_6_016A9507
 BYTE   PATT
  POIN2 Label_6_016A9524
// 028   ----------------------------------------
 BYTE   W96
// 029   ----------------------------------------
 BYTE   EOT
 BYTE   Cn4
Label_6_016A956B:
 BYTE   VOL   0*ChronoTriggerWindScenePandan_mvl/mxv
 BYTE   N96  Gn4  v096
 BYTE   W01
 BYTE   VOL   7*ChronoTriggerWindScenePandan_mvl/mxv
 BYTE   W01
 BYTE   An2
 BYTE   W01
 BYTE   Gs3
 BYTE   W01
 BYTE   Gs4
 BYTE   W92
 BYTE   PEND 
// 030   ----------------------------------------
 BYTE   Cs1
 BYTE   N96  Fs4
 BYTE   W01
 BYTE   VOL   7*ChronoTriggerWindScenePandan_mvl/mxv
 BYTE   W01
 BYTE   An2
 BYTE   W01
 BYTE   Gs3
 BYTE   W01
 BYTE   Gs4
 BYTE   W92
// 031   ----------------------------------------
Label_6_016A9588:
 BYTE   VOL   0*ChronoTriggerWindScenePandan_mvl/mxv
 BYTE   N96  Fn5  v096
 BYTE   W01
 BYTE   VOL   7*ChronoTriggerWindScenePandan_mvl/mxv
 BYTE   W01
 BYTE   An2
 BYTE   W01
 BYTE   Gs3
 BYTE   W01
 BYTE   Gs4
 BYTE   W92
 BYTE   PEND 
// 032   ----------------------------------------
Label_6_016A9598:
 BYTE   VOL   0*ChronoTriggerWindScenePandan_mvl/mxv
 BYTE   N48  En5  v096
 BYTE   W01
 BYTE   VOL   7*ChronoTriggerWindScenePandan_mvl/mxv
 BYTE   W01
 BYTE   An2
 BYTE   W01
 BYTE   Gs3
 BYTE   W01
 BYTE   Gs4
 BYTE   W44
 BYTE   Cs1
 BYTE   N48  Dn5
 BYTE   W01
 BYTE   VOL   7*ChronoTriggerWindScenePandan_mvl/mxv
 BYTE   W01
 BYTE   An2
 BYTE   W01
 BYTE   Gs3
 BYTE   W01
 BYTE   Gs4
 BYTE   W44
 BYTE   PEND 
// 033   ----------------------------------------
Label_6_016A95B5:
 BYTE   VOL   0*ChronoTriggerWindScenePandan_mvl/mxv
 BYTE   N96  Cn5  v096
 BYTE   W01
 BYTE   VOL   7*ChronoTriggerWindScenePandan_mvl/mxv
 BYTE   W01
 BYTE   An2
 BYTE   W01
 BYTE   Gs3
 BYTE   W01
 BYTE   Gs4
 BYTE   W92
 BYTE   PEND 
// 034   ----------------------------------------
Label_6_016A95C5:
 BYTE   VOL   0*ChronoTriggerWindScenePandan_mvl/mxv
 BYTE   N48  Dn5  v096
 BYTE   W01
 BYTE   VOL   7*ChronoTriggerWindScenePandan_mvl/mxv
 BYTE   W01
 BYTE   An2
 BYTE   W01
 BYTE   Gs3
 BYTE   W01
 BYTE   Gs4
 BYTE   W44
 BYTE   Cs1
 BYTE   N48  En5
 BYTE   W01
 BYTE   VOL   7*ChronoTriggerWindScenePandan_mvl/mxv
 BYTE   W01
 BYTE   An2
 BYTE   W01
 BYTE   Gs3
 BYTE   W01
 BYTE   Gs4
 BYTE   W44
 BYTE   PEND 
// 035   ----------------------------------------
 BYTE   Cs1
 BYTE   TIE  Cn5
 BYTE   W01
 BYTE   VOL   7*ChronoTriggerWindScenePandan_mvl/mxv
 BYTE   W01
 BYTE   An2
 BYTE   W01
 BYTE   Gs3
 BYTE   W01
 BYTE   Gs4
 BYTE   W92
// 036   ----------------------------------------
 BYTE   W48
 BYTE   EOT
 BYTE   VOL   0*ChronoTriggerWindScenePandan_mvl/mxv
 BYTE   N48  An4
 BYTE   W01
 BYTE   VOL   7*ChronoTriggerWindScenePandan_mvl/mxv
 BYTE   W01
 BYTE   An2
 BYTE   W01
 BYTE   Gs3
 BYTE   W01
 BYTE   Gs4
 BYTE   W44
// 037   ----------------------------------------
 BYTE   Cs1
 BYTE   N48  Fn4
 BYTE   W01
 BYTE   VOL   7*ChronoTriggerWindScenePandan_mvl/mxv
 BYTE   W01
 BYTE   An2
 BYTE   W01
 BYTE   Gs3
 BYTE   W01
 BYTE   Gs4
 BYTE   W44
 BYTE   Cs1
 BYTE   N48  En4
 BYTE   W01
 BYTE   VOL   7*ChronoTriggerWindScenePandan_mvl/mxv
 BYTE   W01
 BYTE   An2
 BYTE   W01
 BYTE   Gs3
 BYTE   W01
 BYTE   Gs4
 BYTE   W44
// 038   ----------------------------------------
 BYTE   Cs1
 BYTE   N48  Fn4
 BYTE   W01
 BYTE   VOL   7*ChronoTriggerWindScenePandan_mvl/mxv
 BYTE   W01
 BYTE   An2
 BYTE   W01
 BYTE   Gs3
 BYTE   W01
 BYTE   Gs4
 BYTE   W44
 BYTE   Cs1
 BYTE   N48  An4
 BYTE   W01
 BYTE   VOL   7*ChronoTriggerWindScenePandan_mvl/mxv
 BYTE   W01
 BYTE   An2
 BYTE   W01
 BYTE   Gs3
 BYTE   W01
 BYTE   Gs4
 BYTE   W44
 BYTE   PATT
  POIN2 Label_6_016A956B
// 039   ----------------------------------------
 BYTE   VOL   0*ChronoTriggerWindScenePandan_mvl/mxv
 BYTE   N48  An4  v096
 BYTE   W01
 BYTE   VOL   7*ChronoTriggerWindScenePandan_mvl/mxv
 BYTE   W01
 BYTE   An2
 BYTE   W01
 BYTE   Gs3
 BYTE   W01
 BYTE   Gs4
 BYTE   W44
 BYTE   Cs1
 BYTE   N48  As4
 BYTE   W01
 BYTE   VOL   7*ChronoTriggerWindScenePandan_mvl/mxv
 BYTE   W01
 BYTE   An2
 BYTE   W01
 BYTE   Gs3
 BYTE   W01
 BYTE   Gs4
 BYTE   W44
 BYTE   PATT
  POIN2 Label_6_016A95B5
 BYTE   PATT
  POIN2 Label_6_016A95C5
// 040   ----------------------------------------
 BYTE   VOL   0*ChronoTriggerWindScenePandan_mvl/mxv
 BYTE   N48  Cn5  v096
 BYTE   W01
 BYTE   VOL   7*ChronoTriggerWindScenePandan_mvl/mxv
 BYTE   W01
 BYTE   An2
 BYTE   W01
 BYTE   Gs3
 BYTE   W01
 BYTE   Gs4
 BYTE   W44
 BYTE   Cs1
 BYTE   N48  An4
 BYTE   W01
 BYTE   VOL   7*ChronoTriggerWindScenePandan_mvl/mxv
 BYTE   W01
 BYTE   An2
 BYTE   W01
 BYTE   Gs3
 BYTE   W01
 BYTE   Gs4
 BYTE   W44
// 041   ----------------------------------------
 BYTE   Cs1
 BYTE   N48  Gn4
 BYTE   W01
 BYTE   VOL   7*ChronoTriggerWindScenePandan_mvl/mxv
 BYTE   W01
 BYTE   An2
 BYTE   W01
 BYTE   Gs3
 BYTE   W01
 BYTE   Gs4
 BYTE   W44
 BYTE   Cs1
 BYTE   N48  An4
 BYTE   W01
 BYTE   VOL   7*ChronoTriggerWindScenePandan_mvl/mxv
 BYTE   W01
 BYTE   An2
 BYTE   W01
 BYTE   Gs3
 BYTE   W01
 BYTE   Gs4
 BYTE   W44
// 042   ----------------------------------------
 BYTE   Cs1
 BYTE   N48  Ds4
 BYTE   W01
 BYTE   VOL   7*ChronoTriggerWindScenePandan_mvl/mxv
 BYTE   W01
 BYTE   An2
 BYTE   W01
 BYTE   Gs3
 BYTE   W01
 BYTE   Gs4
 BYTE   W44
 BYTE   Cs1
 BYTE   N48  Fn4
 BYTE   W01
 BYTE   VOL   7*ChronoTriggerWindScenePandan_mvl/mxv
 BYTE   W01
 BYTE   An2
 BYTE   W01
 BYTE   Gs3
 BYTE   W01
 BYTE   Gs4
 BYTE   W44
// 043   ----------------------------------------
 BYTE   Cs1
 BYTE   N24  Gn4
 BYTE   W01
 BYTE   VOL   7*ChronoTriggerWindScenePandan_mvl/mxv
 BYTE   W01
 BYTE   An2
 BYTE   W01
 BYTE   Gs3
 BYTE   W01
 BYTE   Gs4
 BYTE   W20
 BYTE   Cs1
 BYTE   N24  An4
 BYTE   W01
 BYTE   VOL   7*ChronoTriggerWindScenePandan_mvl/mxv
 BYTE   W01
 BYTE   An2
 BYTE   W01
 BYTE   Gs3
 BYTE   W01
 BYTE   Gs4
 BYTE   W20
 BYTE   Cs1
 BYTE   N24  As4
 BYTE   W01
 BYTE   VOL   7*ChronoTriggerWindScenePandan_mvl/mxv
 BYTE   W01
 BYTE   An2
 BYTE   W01
 BYTE   Gs3
 BYTE   W01
 BYTE   Gs4
 BYTE   W20
 BYTE   Cs1
 BYTE   N24  Cn5
 BYTE   W01
 BYTE   VOL   7*ChronoTriggerWindScenePandan_mvl/mxv
 BYTE   W01
 BYTE   An2
 BYTE   W01
 BYTE   Gs3
 BYTE   W01
 BYTE   Gs4
 BYTE   W20
 BYTE   PATT
  POIN2 Label_6_016A9588
 BYTE   PATT
  POIN2 Label_6_016A9598
 BYTE   PATT
  POIN2 Label_6_016A95B5
 BYTE   PATT
  POIN2 Label_6_016A95C5
 BYTE   PATT
  POIN2 Label_6_016A9588
 BYTE   PATT
  POIN2 Label_6_016A9598
// 044   ----------------------------------------
Label_6_016A9700:
 BYTE   VOL   0*ChronoTriggerWindScenePandan_mvl/mxv
 BYTE   TIE  An4  v096
 BYTE   W01
 BYTE   VOL   7*ChronoTriggerWindScenePandan_mvl/mxv
 BYTE   W01
 BYTE   An2
 BYTE   W01
 BYTE   Gs3
 BYTE   W01
 BYTE   Gs4
 BYTE   W92
 BYTE   PEND 
// 045   ----------------------------------------
 BYTE   W24
 BYTE   EOT
 BYTE   VOL   0*ChronoTriggerWindScenePandan_mvl/mxv
 BYTE   N24  Gn4
 BYTE   W01
 BYTE   VOL   7*ChronoTriggerWindScenePandan_mvl/mxv
 BYTE   W01
 BYTE   An2
 BYTE   W01
 BYTE   Gs3
 BYTE   W01
 BYTE   Gs4
 BYTE   W20
 BYTE   Cs1
 BYTE   N24  An4
 BYTE   W01
 BYTE   VOL   7*ChronoTriggerWindScenePandan_mvl/mxv
 BYTE   W01
 BYTE   An2
 BYTE   W01
 BYTE   Gs3
 BYTE   W01
 BYTE   Gs4
 BYTE   W20
 BYTE   Cs1
 BYTE   N24  Cn5
 BYTE   W01
 BYTE   VOL   7*ChronoTriggerWindScenePandan_mvl/mxv
 BYTE   W01
 BYTE   An2
 BYTE   W01
 BYTE   Gs3
 BYTE   W01
 BYTE   Gs4
 BYTE   W20
 BYTE   PATT
  POIN2 Label_6_016A9700
// 046   ----------------------------------------
 BYTE   W96
// 047   ----------------------------------------
 BYTE   EOT
 BYTE   An4
 BYTE   VOL   0*ChronoTriggerWindScenePandan_mvl/mxv
 BYTE   TIE  Bn4  v096
 BYTE   W01
 BYTE   VOL   7*ChronoTriggerWindScenePandan_mvl/mxv
 BYTE   W01
 BYTE   An2
 BYTE   W01
 BYTE   Gs3
 BYTE   W01
 BYTE   Gs4
 BYTE   W92
// 048   ----------------------------------------
 BYTE   W96
// 049   ----------------------------------------
 BYTE   W96
// 050   ----------------------------------------
 BYTE   W96
// 051   ----------------------------------------
 BYTE   EOT
 BYTE   VOL   0*ChronoTriggerWindScenePandan_mvl/mxv
 BYTE   TIE  Cs5
 BYTE   W01
 BYTE   VOL   7*ChronoTriggerWindScenePandan_mvl/mxv
 BYTE   W01
 BYTE   An2
 BYTE   W01
 BYTE   Gs3
 BYTE   W01
 BYTE   Gs4
 BYTE   W92
// 052   ----------------------------------------
 BYTE   W96
// 053   ----------------------------------------
 BYTE   EOT
 BYTE   W96
// 054   ----------------------------------------
 BYTE   W96
// 055   ----------------------------------------
 BYTE   W96
// 056   ----------------------------------------
 BYTE   W96
// 057   ----------------------------------------
 BYTE   W96
// 058   ----------------------------------------
 BYTE   W96
// 059   ----------------------------------------
 BYTE   W96
// 060   ----------------------------------------
 BYTE   W96
// 061   ----------------------------------------
 BYTE   W96
// 062   ----------------------------------------
 BYTE   W96
// 063   ----------------------------------------
 BYTE   W96
// 064   ----------------------------------------
 BYTE   W96
// 065   ----------------------------------------
 BYTE   W96
// 066   ----------------------------------------
 BYTE   W96
// 067   ----------------------------------------
 BYTE   W96
// 068   ----------------------------------------
 BYTE   W44
 BYTE   W02
 BYTE   GoTo
  POIN2 Label_6_016A94BE
// 069   ----------------------------------------
 BYTE   W48
 BYTE   W02
 BYTE   FINE

//**************** Track 8 (Midi-Chn.7) ****************//

ChronoTriggerWindScenePandan_008:
// 000   ----------------------------------------
 BYTE   KEYSH   ChronoTriggerWindScenePandan_key+0
Label_7_016A9782:
 BYTE   VOICE   42
 BYTE   VOL   40*ChronoTriggerWindScenePandan_mvl/mxv
 BYTE   PAN   c_v+0
 BYTE   W96
// 001   ----------------------------------------
 BYTE   W96
// 002   ----------------------------------------
 BYTE   W96
// 003   ----------------------------------------
 BYTE   W96
// 004   ----------------------------------------
 BYTE   W96
// 005   ----------------------------------------
 BYTE   W96
// 006   ----------------------------------------
 BYTE   W96
// 007   ----------------------------------------
 BYTE   W96
// 008   ----------------------------------------
 BYTE   W96
// 009   ----------------------------------------
 BYTE   W96
// 010   ----------------------------------------
 BYTE   W96
// 011   ----------------------------------------
 BYTE   W96
// 012   ----------------------------------------
 BYTE   W96
// 013   ----------------------------------------
 BYTE   W96
// 014   ----------------------------------------
 BYTE   W96
// 015   ----------------------------------------
 BYTE   W96
// 016   ----------------------------------------
 BYTE   W48
 BYTE   En3
 BYTE   W48
// 017   ----------------------------------------
 BYTE   W96
// 018   ----------------------------------------
Label_7_016A979C:
 BYTE   VOL   0*ChronoTriggerWindScenePandan_mvl/mxv
 BYTE   N96  Cn4  v092
 BYTE   W01
 BYTE   VOL   7*ChronoTriggerWindScenePandan_mvl/mxv
 BYTE   W01
 BYTE   An2
 BYTE   W01
 BYTE   Gs3
 BYTE   W01
 BYTE   Gs4
 BYTE   W92
 BYTE   PEND 
// 019   ----------------------------------------
Label_7_016A97AC:
 BYTE   VOL   0*ChronoTriggerWindScenePandan_mvl/mxv
 BYTE   N96  Dn4  v092
 BYTE   W01
 BYTE   VOL   7*ChronoTriggerWindScenePandan_mvl/mxv
 BYTE   W01
 BYTE   An2
 BYTE   W01
 BYTE   Gs3
 BYTE   W01
 BYTE   Gs4
 BYTE   W92
 BYTE   PEND 
// 020   ----------------------------------------
Label_7_016A97BC:
 BYTE   VOL   0*ChronoTriggerWindScenePandan_mvl/mxv
 BYTE   N48  Gn3  v092
 BYTE   W01
 BYTE   VOL   7*ChronoTriggerWindScenePandan_mvl/mxv
 BYTE   W01
 BYTE   An2
 BYTE   W01
 BYTE   Gs3
 BYTE   W01
 BYTE   Gs4
 BYTE   W44
 BYTE   Cs1
 BYTE   N48  As3
 BYTE   W01
 BYTE   VOL   7*ChronoTriggerWindScenePandan_mvl/mxv
 BYTE   W01
 BYTE   An2
 BYTE   W01
 BYTE   Gs3
 BYTE   W01
 BYTE   Gs4
 BYTE   W44
 BYTE   PEND 
// 021   ----------------------------------------
Label_7_016A97D9:
 BYTE   VOL   0*ChronoTriggerWindScenePandan_mvl/mxv
 BYTE   N96  An3  v092
 BYTE   W01
 BYTE   VOL   7*ChronoTriggerWindScenePandan_mvl/mxv
 BYTE   W01
 BYTE   An2
 BYTE   W01
 BYTE   Gs3
 BYTE   W01
 BYTE   Gs4
 BYTE   W92
 BYTE   PEND 
// 022   ----------------------------------------
Label_7_016A97E9:
 BYTE   VOL   0*ChronoTriggerWindScenePandan_mvl/mxv
 BYTE   TIE  An3  v092
 BYTE   W01
 BYTE   VOL   7*ChronoTriggerWindScenePandan_mvl/mxv
 BYTE   W01
 BYTE   An2
 BYTE   W01
 BYTE   Gs3
 BYTE   W01
 BYTE   Gs4
 BYTE   W92
 BYTE   PEND 
// 023   ----------------------------------------
 BYTE   W96
// 024   ----------------------------------------
 BYTE   EOT
 BYTE   VOL   0*ChronoTriggerWindScenePandan_mvl/mxv
 BYTE   TIE  Gn3
 BYTE   W01
 BYTE   VOL   7*ChronoTriggerWindScenePandan_mvl/mxv
 BYTE   W01
 BYTE   An2
 BYTE   W01
 BYTE   Gs3
 BYTE   W01
 BYTE   Gs4
 BYTE   W92
// 025   ----------------------------------------
 BYTE   W96
// 026   ----------------------------------------
 BYTE   EOT
 BYTE   PATT
  POIN2 Label_7_016A979C
 BYTE   PATT
  POIN2 Label_7_016A97AC
 BYTE   PATT
  POIN2 Label_7_016A97BC
 BYTE   PATT
  POIN2 Label_7_016A97D9
 BYTE   PATT
  POIN2 Label_7_016A97E9
// 027   ----------------------------------------
 BYTE   W96
// 028   ----------------------------------------
 BYTE   EOT
 BYTE   An3
 BYTE   PATT
  POIN2 Label_7_016A97E9
// 029   ----------------------------------------
 BYTE   W96
// 030   ----------------------------------------
 BYTE   EOT
 BYTE   An3
Label_7_016A982F:
 BYTE   VOL   0*ChronoTriggerWindScenePandan_mvl/mxv
 BYTE   N12  Dn4  v092
 BYTE   W01
 BYTE   VOL   7*ChronoTriggerWindScenePandan_mvl/mxv
 BYTE   W01
 BYTE   An2
 BYTE   W01
 BYTE   Gs3
 BYTE   W01
 BYTE   Gs4
 BYTE   W05
 BYTE   Gs4
 BYTE   W01
 BYTE   Cn3
 BYTE   W02
 BYTE   Ds1
 BYTE   W01
 BYTE   GsM1
 BYTE   W01
 BYTE   CnM2
 BYTE   W10
 BYTE   Cs1
 BYTE   N12
 BYTE   W01
 BYTE   VOL   7*ChronoTriggerWindScenePandan_mvl/mxv
 BYTE   W01
 BYTE   An2
 BYTE   W01
 BYTE   Gs3
 BYTE   W01
 BYTE   Gs4
 BYTE   W05
 BYTE   Gs4
 BYTE   W01
 BYTE   Cn3
 BYTE   W02
 BYTE   Ds1
 BYTE   W01
 BYTE   GsM1
 BYTE   W01
 BYTE   CnM2
 BYTE   W32
 BYTE   W02
 BYTE   Cs1
 BYTE   N12
 BYTE   W01
 BYTE   VOL   7*ChronoTriggerWindScenePandan_mvl/mxv
 BYTE   W01
 BYTE   An2
 BYTE   W01
 BYTE   Gs3
 BYTE   W01
 BYTE   Gs4
 BYTE   W05
 BYTE   Gs4
 BYTE   W01
 BYTE   Cn3
 BYTE   W02
 BYTE   Ds1
 BYTE   W01
 BYTE   GsM1
 BYTE   W01
 BYTE   CnM2
 BYTE   W10
 BYTE   PEND 
 BYTE   PATT
  POIN2 Label_7_016A982F
// 031   ----------------------------------------
Label_7_016A987B:
 BYTE   VOL   0*ChronoTriggerWindScenePandan_mvl/mxv
 BYTE   N12  Cn4  v092
 BYTE   W01
 BYTE   VOL   7*ChronoTriggerWindScenePandan_mvl/mxv
 BYTE   W01
 BYTE   An2
 BYTE   W01
 BYTE   Gs3
 BYTE   W01
 BYTE   Gs4
 BYTE   W05
 BYTE   Gs4
 BYTE   W01
 BYTE   Cn3
 BYTE   W02
 BYTE   Ds1
 BYTE   W01
 BYTE   GsM1
 BYTE   W01
 BYTE   CnM2
 BYTE   W10
 BYTE   Cs1
 BYTE   N12
 BYTE   W01
 BYTE   VOL   7*ChronoTriggerWindScenePandan_mvl/mxv
 BYTE   W01
 BYTE   An2
 BYTE   W01
 BYTE   Gs3
 BYTE   W01
 BYTE   Gs4
 BYTE   W05
 BYTE   Gs4
 BYTE   W01
 BYTE   Cn3
 BYTE   W02
 BYTE   Ds1
 BYTE   W01
 BYTE   GsM1
 BYTE   W01
 BYTE   CnM2
 BYTE   W32
 BYTE   W02
 BYTE   Cs1
 BYTE   N12
 BYTE   W01
 BYTE   VOL   7*ChronoTriggerWindScenePandan_mvl/mxv
 BYTE   W01
 BYTE   An2
 BYTE   W01
 BYTE   Gs3
 BYTE   W01
 BYTE   Gs4
 BYTE   W05
 BYTE   Gs4
 BYTE   W01
 BYTE   Cn3
 BYTE   W02
 BYTE   Ds1
 BYTE   W01
 BYTE   GsM1
 BYTE   W01
 BYTE   CnM2
 BYTE   W10
 BYTE   PEND 
 BYTE   PATT
  POIN2 Label_7_016A987B
 BYTE   PATT
  POIN2 Label_7_016A987B
 BYTE   PATT
  POIN2 Label_7_016A987B
// 032   ----------------------------------------
Label_7_016A98D1:
 BYTE   VOL   0*ChronoTriggerWindScenePandan_mvl/mxv
 BYTE   N12  An3  v092
 BYTE   W01
 BYTE   VOL   7*ChronoTriggerWindScenePandan_mvl/mxv
 BYTE   W01
 BYTE   An2
 BYTE   W01
 BYTE   Gs3
 BYTE   W01
 BYTE   Gs4
 BYTE   W05
 BYTE   Gs4
 BYTE   W01
 BYTE   Cn3
 BYTE   W02
 BYTE   Ds1
 BYTE   W01
 BYTE   GsM1
 BYTE   W01
 BYTE   CnM2
 BYTE   W10
 BYTE   Cs1
 BYTE   N12
 BYTE   W01
 BYTE   VOL   7*ChronoTriggerWindScenePandan_mvl/mxv
 BYTE   W01
 BYTE   An2
 BYTE   W01
 BYTE   Gs3
 BYTE   W01
 BYTE   Gs4
 BYTE   W05
 BYTE   Gs4
 BYTE   W01
 BYTE   Cn3
 BYTE   W02
 BYTE   Ds1
 BYTE   W01
 BYTE   GsM1
 BYTE   W01
 BYTE   CnM2
 BYTE   W32
 BYTE   W02
 BYTE   Cs1
 BYTE   N12
 BYTE   W01
 BYTE   VOL   7*ChronoTriggerWindScenePandan_mvl/mxv
 BYTE   W01
 BYTE   An2
 BYTE   W01
 BYTE   Gs3
 BYTE   W01
 BYTE   Gs4
 BYTE   W05
 BYTE   Gs4
 BYTE   W01
 BYTE   Cn3
 BYTE   W02
 BYTE   Ds1
 BYTE   W01
 BYTE   GsM1
 BYTE   W01
 BYTE   CnM2
 BYTE   W10
 BYTE   PEND 
 BYTE   PATT
  POIN2 Label_7_016A98D1
// 033   ----------------------------------------
Label_7_016A991D:
 BYTE   VOL   0*ChronoTriggerWindScenePandan_mvl/mxv
 BYTE   N12  As3  v092
 BYTE   W01
 BYTE   VOL   7*ChronoTriggerWindScenePandan_mvl/mxv
 BYTE   W01
 BYTE   An2
 BYTE   W01
 BYTE   Gs3
 BYTE   W01
 BYTE   Gs4
 BYTE   W05
 BYTE   Gs4
 BYTE   W01
 BYTE   Cn3
 BYTE   W02
 BYTE   Ds1
 BYTE   W01
 BYTE   GsM1
 BYTE   W01
 BYTE   CnM2
 BYTE   W10
 BYTE   Cs1
 BYTE   N12
 BYTE   W01
 BYTE   VOL   7*ChronoTriggerWindScenePandan_mvl/mxv
 BYTE   W01
 BYTE   An2
 BYTE   W01
 BYTE   Gs3
 BYTE   W01
 BYTE   Gs4
 BYTE   W05
 BYTE   Gs4
 BYTE   W01
 BYTE   Cn3
 BYTE   W02
 BYTE   Ds1
 BYTE   W01
 BYTE   GsM1
 BYTE   W01
 BYTE   CnM2
 BYTE   W32
 BYTE   W02
 BYTE   Cs1
 BYTE   N12
 BYTE   W01
 BYTE   VOL   7*ChronoTriggerWindScenePandan_mvl/mxv
 BYTE   W01
 BYTE   An2
 BYTE   W01
 BYTE   Gs3
 BYTE   W01
 BYTE   Gs4
 BYTE   W05
 BYTE   Gs4
 BYTE   W01
 BYTE   Cn3
 BYTE   W02
 BYTE   Ds1
 BYTE   W01
 BYTE   GsM1
 BYTE   W01
 BYTE   CnM2
 BYTE   W10
 BYTE   PEND 
 BYTE   PATT
  POIN2 Label_7_016A991D
// 034   ----------------------------------------
Label_7_016A9969:
 BYTE   VOL   0*ChronoTriggerWindScenePandan_mvl/mxv
 BYTE   N12  Gn3  v092
 BYTE   W01
 BYTE   VOL   7*ChronoTriggerWindScenePandan_mvl/mxv
 BYTE   W01
 BYTE   An2
 BYTE   W01
 BYTE   Gs3
 BYTE   W01
 BYTE   Gs4
 BYTE   W05
 BYTE   Gs4
 BYTE   W01
 BYTE   Cn3
 BYTE   W02
 BYTE   Ds1
 BYTE   W01
 BYTE   GsM1
 BYTE   W01
 BYTE   CnM2
 BYTE   W10
 BYTE   Cs1
 BYTE   N12
 BYTE   W01
 BYTE   VOL   7*ChronoTriggerWindScenePandan_mvl/mxv
 BYTE   W01
 BYTE   An2
 BYTE   W01
 BYTE   Gs3
 BYTE   W01
 BYTE   Gs4
 BYTE   W05
 BYTE   Gs4
 BYTE   W01
 BYTE   Cn3
 BYTE   W02
 BYTE   Ds1
 BYTE   W01
 BYTE   GsM1
 BYTE   W01
 BYTE   CnM2
 BYTE   W32
 BYTE   W02
 BYTE   Cs1
 BYTE   N12
 BYTE   W01
 BYTE   VOL   7*ChronoTriggerWindScenePandan_mvl/mxv
 BYTE   W01
 BYTE   An2
 BYTE   W01
 BYTE   Gs3
 BYTE   W01
 BYTE   Gs4
 BYTE   W05
 BYTE   Gs4
 BYTE   W01
 BYTE   Cn3
 BYTE   W02
 BYTE   Ds1
 BYTE   W01
 BYTE   GsM1
 BYTE   W01
 BYTE   CnM2
 BYTE   W10
 BYTE   PEND 
 BYTE   PATT
  POIN2 Label_7_016A9969
 BYTE   PATT
  POIN2 Label_7_016A98D1
 BYTE   PATT
  POIN2 Label_7_016A98D1
 BYTE   PATT
  POIN2 Label_7_016A98D1
 BYTE   PATT
  POIN2 Label_7_016A98D1
 BYTE   PATT
  POIN2 Label_7_016A982F
 BYTE   PATT
  POIN2 Label_7_016A982F
 BYTE   PATT
  POIN2 Label_7_016A987B
 BYTE   PATT
  POIN2 Label_7_016A987B
 BYTE   PATT
  POIN2 Label_7_016A982F
 BYTE   PATT
  POIN2 Label_7_016A982F
 BYTE   PATT
  POIN2 Label_7_016A982F
 BYTE   PATT
  POIN2 Label_7_016A982F
 BYTE   PATT
  POIN2 Label_7_016A982F
 BYTE   PATT
  POIN2 Label_7_016A982F
 BYTE   PATT
  POIN2 Label_7_016A982F
 BYTE   PATT
  POIN2 Label_7_016A982F
 BYTE   PATT
  POIN2 Label_7_016A982F
 BYTE   PATT
  POIN2 Label_7_016A982F
// 035   ----------------------------------------
 BYTE   VOL   0*ChronoTriggerWindScenePandan_mvl/mxv
 BYTE   TIE  Cs4  v092
 BYTE   W01
 BYTE   VOL   7*ChronoTriggerWindScenePandan_mvl/mxv
 BYTE   W01
 BYTE   An2
 BYTE   W01
 BYTE   Gs3
 BYTE   W01
 BYTE   Gs4
 BYTE   W92
// 036   ----------------------------------------
 BYTE   W96
// 037   ----------------------------------------
 BYTE   EOT
 BYTE   W96
// 038   ----------------------------------------
 BYTE   W96
// 039   ----------------------------------------
 BYTE   W96
// 040   ----------------------------------------
 BYTE   W96
// 041   ----------------------------------------
 BYTE   W96
// 042   ----------------------------------------
 BYTE   W96
// 043   ----------------------------------------
 BYTE   W96
// 044   ----------------------------------------
 BYTE   W96
// 045   ----------------------------------------
 BYTE   W96
// 046   ----------------------------------------
 BYTE   W96
// 047   ----------------------------------------
 BYTE   W96
// 048   ----------------------------------------
 BYTE   W96
// 049   ----------------------------------------
 BYTE   W96
// 050   ----------------------------------------
 BYTE   W96
// 051   ----------------------------------------
 BYTE   W96
// 052   ----------------------------------------
 BYTE   W44
 BYTE   W02
 BYTE   GoTo
  POIN2 Label_7_016A9782
// 053   ----------------------------------------
 BYTE   W48
 BYTE   W02
 BYTE   FINE

//**************** Track 9 (Midi-Chn.8) ****************//

ChronoTriggerWindScenePandan_009:
// 000   ----------------------------------------
 BYTE   KEYSH   ChronoTriggerWindScenePandan_key+0
Label_8_016A9A3E:
 BYTE   VOICE   41
 BYTE   VOL   40*ChronoTriggerWindScenePandan_mvl/mxv
 BYTE   PAN   c_v+0
 BYTE   W96
// 001   ----------------------------------------
 BYTE   W96
// 002   ----------------------------------------
 BYTE   W96
// 003   ----------------------------------------
 BYTE   W96
// 004   ----------------------------------------
 BYTE   W96
// 005   ----------------------------------------
 BYTE   W96
// 006   ----------------------------------------
 BYTE   W96
// 007   ----------------------------------------
 BYTE   W96
// 008   ----------------------------------------
 BYTE   W96
// 009   ----------------------------------------
 BYTE   W96
// 010   ----------------------------------------
 BYTE   W96
// 011   ----------------------------------------
 BYTE   W96
// 012   ----------------------------------------
 BYTE   W96
// 013   ----------------------------------------
 BYTE   W96
// 014   ----------------------------------------
 BYTE   W96
// 015   ----------------------------------------
 BYTE   W96
// 016   ----------------------------------------
 BYTE   W96
// 017   ----------------------------------------
 BYTE   W48
 BYTE   An6
 BYTE   W48
// 018   ----------------------------------------
Label_8_016A9A58:
 BYTE   VOL   0*ChronoTriggerWindScenePandan_mvl/mxv
 BYTE   N96  Dn3  v076
 BYTE   W01
 BYTE   VOL   7*ChronoTriggerWindScenePandan_mvl/mxv
 BYTE   W01
 BYTE   An2
 BYTE   W01
 BYTE   Gs3
 BYTE   W01
 BYTE   Gs4
 BYTE   W92
 BYTE   PEND 
// 019   ----------------------------------------
Label_8_016A9A68:
 BYTE   VOL   0*ChronoTriggerWindScenePandan_mvl/mxv
 BYTE   N96  As2  v076
 BYTE   W01
 BYTE   VOL   7*ChronoTriggerWindScenePandan_mvl/mxv
 BYTE   W01
 BYTE   An2
 BYTE   W01
 BYTE   Gs3
 BYTE   W01
 BYTE   Gs4
 BYTE   W92
 BYTE   PEND 
// 020   ----------------------------------------
Label_8_016A9A78:
 BYTE   VOL   0*ChronoTriggerWindScenePandan_mvl/mxv
 BYTE   N48  An2  v076
 BYTE   W01
 BYTE   VOL   7*ChronoTriggerWindScenePandan_mvl/mxv
 BYTE   W01
 BYTE   An2
 BYTE   W01
 BYTE   Gs3
 BYTE   W01
 BYTE   Gs4
 BYTE   W44
 BYTE   Cs1
 BYTE   N48  Cn3
 BYTE   W01
 BYTE   VOL   7*ChronoTriggerWindScenePandan_mvl/mxv
 BYTE   W01
 BYTE   An2
 BYTE   W01
 BYTE   Gs3
 BYTE   W01
 BYTE   Gs4
 BYTE   W44
 BYTE   PEND 
// 021   ----------------------------------------
Label_8_016A9A95:
 BYTE   VOL   0*ChronoTriggerWindScenePandan_mvl/mxv
 BYTE   N48  Fn3  v076
 BYTE   W01
 BYTE   VOL   7*ChronoTriggerWindScenePandan_mvl/mxv
 BYTE   W01
 BYTE   An2
 BYTE   W01
 BYTE   Gs3
 BYTE   W01
 BYTE   Gs4
 BYTE   W44
 BYTE   Cs1
 BYTE   N48  En3
 BYTE   W01
 BYTE   VOL   7*ChronoTriggerWindScenePandan_mvl/mxv
 BYTE   W01
 BYTE   An2
 BYTE   W01
 BYTE   Gs3
 BYTE   W01
 BYTE   Gs4
 BYTE   W44
 BYTE   PEND 
 BYTE   PATT
  POIN2 Label_8_016A9A58
// 022   ----------------------------------------
 BYTE   VOL   0*ChronoTriggerWindScenePandan_mvl/mxv
 BYTE   N96  Gn2  v076
 BYTE   W01
 BYTE   VOL   7*ChronoTriggerWindScenePandan_mvl/mxv
 BYTE   W01
 BYTE   An2
 BYTE   W01
 BYTE   Gs3
 BYTE   W01
 BYTE   Gs4
 BYTE   W92
// 023   ----------------------------------------
 BYTE   Cs1
 BYTE   TIE  Cn3
 BYTE   W01
 BYTE   VOL   7*ChronoTriggerWindScenePandan_mvl/mxv
 BYTE   W01
 BYTE   An2
 BYTE   W01
 BYTE   Gs3
 BYTE   W01
 BYTE   Gs4
 BYTE   W92
// 024   ----------------------------------------
 BYTE   W96
// 025   ----------------------------------------
 BYTE   EOT
 BYTE   PATT
  POIN2 Label_8_016A9A58
 BYTE   PATT
  POIN2 Label_8_016A9A68
 BYTE   PATT
  POIN2 Label_8_016A9A78
 BYTE   PATT
  POIN2 Label_8_016A9A95
 BYTE   PATT
  POIN2 Label_8_016A9A58
// 026   ----------------------------------------
 BYTE   VOL   0*ChronoTriggerWindScenePandan_mvl/mxv
 BYTE   N48  Gn2  v076
 BYTE   W01
 BYTE   VOL   7*ChronoTriggerWindScenePandan_mvl/mxv
 BYTE   W01
 BYTE   An2
 BYTE   W01
 BYTE   Gs3
 BYTE   W01
 BYTE   Gs4
 BYTE   W44
 BYTE   Cs1
 BYTE   N48  An2
 BYTE   W01
 BYTE   VOL   7*ChronoTriggerWindScenePandan_mvl/mxv
 BYTE   W01
 BYTE   An2
 BYTE   W01
 BYTE   Gs3
 BYTE   W01
 BYTE   Gs4
 BYTE   W44
// 027   ----------------------------------------
 BYTE   Cs1
 BYTE   TIE  Dn3
 BYTE   W01
 BYTE   VOL   7*ChronoTriggerWindScenePandan_mvl/mxv
 BYTE   W01
 BYTE   An2
 BYTE   W01
 BYTE   Gs3
 BYTE   W01
 BYTE   Gs4
 BYTE   W92
// 028   ----------------------------------------
 BYTE   W96
// 029   ----------------------------------------
 BYTE   EOT
Label_8_016A9B19:
 BYTE   VOL   0*ChronoTriggerWindScenePandan_mvl/mxv
 BYTE   N12  As2  v076
 BYTE   W01
 BYTE   VOL   7*ChronoTriggerWindScenePandan_mvl/mxv
 BYTE   W01
 BYTE   An2
 BYTE   W01
 BYTE   Gs3
 BYTE   W01
 BYTE   Gs4
 BYTE   W05
 BYTE   Gs4
 BYTE   W01
 BYTE   Cn3
 BYTE   W02
 BYTE   Ds1
 BYTE   W01
 BYTE   GsM1
 BYTE   W01
 BYTE   CnM2
 BYTE   W10
 BYTE   Cs1
 BYTE   N12
 BYTE   W01
 BYTE   VOL   7*ChronoTriggerWindScenePandan_mvl/mxv
 BYTE   W01
 BYTE   An2
 BYTE   W01
 BYTE   Gs3
 BYTE   W01
 BYTE   Gs4
 BYTE   W05
 BYTE   Gs4
 BYTE   W01
 BYTE   Cn3
 BYTE   W02
 BYTE   Ds1
 BYTE   W01
 BYTE   GsM1
 BYTE   W01
 BYTE   CnM2
 BYTE   W32
 BYTE   W02
 BYTE   Cs1
 BYTE   N12
 BYTE   W01
 BYTE   VOL   7*ChronoTriggerWindScenePandan_mvl/mxv
 BYTE   W01
 BYTE   An2
 BYTE   W01
 BYTE   Gs3
 BYTE   W01
 BYTE   Gs4
 BYTE   W05
 BYTE   Gs4
 BYTE   W01
 BYTE   Cn3
 BYTE   W02
 BYTE   Ds1
 BYTE   W01
 BYTE   GsM1
 BYTE   W01
 BYTE   CnM2
 BYTE   W10
 BYTE   PEND 
 BYTE   PATT
  POIN2 Label_8_016A9B19
 BYTE   PATT
  POIN2 Label_8_016A9B19
 BYTE   PATT
  POIN2 Label_8_016A9B19
// 030   ----------------------------------------
Label_8_016A9B6F:
 BYTE   VOL   0*ChronoTriggerWindScenePandan_mvl/mxv
 BYTE   N12  An2  v076
 BYTE   W01
 BYTE   VOL   7*ChronoTriggerWindScenePandan_mvl/mxv
 BYTE   W01
 BYTE   An2
 BYTE   W01
 BYTE   Gs3
 BYTE   W01
 BYTE   Gs4
 BYTE   W05
 BYTE   Gs4
 BYTE   W01
 BYTE   Cn3
 BYTE   W02
 BYTE   Ds1
 BYTE   W01
 BYTE   GsM1
 BYTE   W01
 BYTE   CnM2
 BYTE   W10
 BYTE   Cs1
 BYTE   N12
 BYTE   W01
 BYTE   VOL   7*ChronoTriggerWindScenePandan_mvl/mxv
 BYTE   W01
 BYTE   An2
 BYTE   W01
 BYTE   Gs3
 BYTE   W01
 BYTE   Gs4
 BYTE   W05
 BYTE   Gs4
 BYTE   W01
 BYTE   Cn3
 BYTE   W02
 BYTE   Ds1
 BYTE   W01
 BYTE   GsM1
 BYTE   W01
 BYTE   CnM2
 BYTE   W32
 BYTE   W02
 BYTE   Cs1
 BYTE   N12
 BYTE   W01
 BYTE   VOL   7*ChronoTriggerWindScenePandan_mvl/mxv
 BYTE   W01
 BYTE   An2
 BYTE   W01
 BYTE   Gs3
 BYTE   W01
 BYTE   Gs4
 BYTE   W05
 BYTE   Gs4
 BYTE   W01
 BYTE   Cn3
 BYTE   W02
 BYTE   Ds1
 BYTE   W01
 BYTE   GsM1
 BYTE   W01
 BYTE   CnM2
 BYTE   W10
 BYTE   PEND 
 BYTE   PATT
  POIN2 Label_8_016A9B6F
// 031   ----------------------------------------
Label_8_016A9BBB:
 BYTE   VOL   0*ChronoTriggerWindScenePandan_mvl/mxv
 BYTE   N12  Dn3  v076
 BYTE   W01
 BYTE   VOL   7*ChronoTriggerWindScenePandan_mvl/mxv
 BYTE   W01
 BYTE   An2
 BYTE   W01
 BYTE   Gs3
 BYTE   W01
 BYTE   Gs4
 BYTE   W05
 BYTE   Gs4
 BYTE   W01
 BYTE   Cn3
 BYTE   W02
 BYTE   Ds1
 BYTE   W01
 BYTE   GsM1
 BYTE   W01
 BYTE   CnM2
 BYTE   W10
 BYTE   Cs1
 BYTE   N12
 BYTE   W01
 BYTE   VOL   7*ChronoTriggerWindScenePandan_mvl/mxv
 BYTE   W01
 BYTE   An2
 BYTE   W01
 BYTE   Gs3
 BYTE   W01
 BYTE   Gs4
 BYTE   W05
 BYTE   Gs4
 BYTE   W01
 BYTE   Cn3
 BYTE   W02
 BYTE   Ds1
 BYTE   W01
 BYTE   GsM1
 BYTE   W01
 BYTE   CnM2
 BYTE   W32
 BYTE   W02
 BYTE   Cs1
 BYTE   N12
 BYTE   W01
 BYTE   VOL   7*ChronoTriggerWindScenePandan_mvl/mxv
 BYTE   W01
 BYTE   An2
 BYTE   W01
 BYTE   Gs3
 BYTE   W01
 BYTE   Gs4
 BYTE   W05
 BYTE   Gs4
 BYTE   W01
 BYTE   Cn3
 BYTE   W02
 BYTE   Ds1
 BYTE   W01
 BYTE   GsM1
 BYTE   W01
 BYTE   CnM2
 BYTE   W10
 BYTE   PEND 
 BYTE   PATT
  POIN2 Label_8_016A9BBB
// 032   ----------------------------------------
Label_8_016A9C07:
 BYTE   VOL   0*ChronoTriggerWindScenePandan_mvl/mxv
 BYTE   N12  Gn2  v076
 BYTE   W01
 BYTE   VOL   7*ChronoTriggerWindScenePandan_mvl/mxv
 BYTE   W01
 BYTE   An2
 BYTE   W01
 BYTE   Gs3
 BYTE   W01
 BYTE   Gs4
 BYTE   W05
 BYTE   Gs4
 BYTE   W01
 BYTE   Cn3
 BYTE   W02
 BYTE   Ds1
 BYTE   W01
 BYTE   GsM1
 BYTE   W01
 BYTE   CnM2
 BYTE   W10
 BYTE   Cs1
 BYTE   N12
 BYTE   W01
 BYTE   VOL   7*ChronoTriggerWindScenePandan_mvl/mxv
 BYTE   W01
 BYTE   An2
 BYTE   W01
 BYTE   Gs3
 BYTE   W01
 BYTE   Gs4
 BYTE   W05
 BYTE   Gs4
 BYTE   W01
 BYTE   Cn3
 BYTE   W02
 BYTE   Ds1
 BYTE   W01
 BYTE   GsM1
 BYTE   W01
 BYTE   CnM2
 BYTE   W32
 BYTE   W02
 BYTE   Cs1
 BYTE   N12
 BYTE   W01
 BYTE   VOL   7*ChronoTriggerWindScenePandan_mvl/mxv
 BYTE   W01
 BYTE   An2
 BYTE   W01
 BYTE   Gs3
 BYTE   W01
 BYTE   Gs4
 BYTE   W05
 BYTE   Gs4
 BYTE   W01
 BYTE   Cn3
 BYTE   W02
 BYTE   Ds1
 BYTE   W01
 BYTE   GsM1
 BYTE   W01
 BYTE   CnM2
 BYTE   W10
 BYTE   PEND 
 BYTE   PATT
  POIN2 Label_8_016A9C07
// 033   ----------------------------------------
Label_8_016A9C53:
 BYTE   VOL   0*ChronoTriggerWindScenePandan_mvl/mxv
 BYTE   N12  Cn3  v076
 BYTE   W01
 BYTE   VOL   7*ChronoTriggerWindScenePandan_mvl/mxv
 BYTE   W01
 BYTE   An2
 BYTE   W01
 BYTE   Gs3
 BYTE   W01
 BYTE   Gs4
 BYTE   W05
 BYTE   Gs4
 BYTE   W01
 BYTE   Cn3
 BYTE   W02
 BYTE   Ds1
 BYTE   W01
 BYTE   GsM1
 BYTE   W01
 BYTE   CnM2
 BYTE   W10
 BYTE   Cs1
 BYTE   N12
 BYTE   W01
 BYTE   VOL   7*ChronoTriggerWindScenePandan_mvl/mxv
 BYTE   W01
 BYTE   An2
 BYTE   W01
 BYTE   Gs3
 BYTE   W01
 BYTE   Gs4
 BYTE   W05
 BYTE   Gs4
 BYTE   W01
 BYTE   Cn3
 BYTE   W02
 BYTE   Ds1
 BYTE   W01
 BYTE   GsM1
 BYTE   W01
 BYTE   CnM2
 BYTE   W32
 BYTE   W02
 BYTE   Cs1
 BYTE   N12
 BYTE   W01
 BYTE   VOL   7*ChronoTriggerWindScenePandan_mvl/mxv
 BYTE   W01
 BYTE   An2
 BYTE   W01
 BYTE   Gs3
 BYTE   W01
 BYTE   Gs4
 BYTE   W05
 BYTE   Gs4
 BYTE   W01
 BYTE   Cn3
 BYTE   W02
 BYTE   Ds1
 BYTE   W01
 BYTE   GsM1
 BYTE   W01
 BYTE   CnM2
 BYTE   W10
 BYTE   PEND 
 BYTE   PATT
  POIN2 Label_8_016A9C53
// 034   ----------------------------------------
Label_8_016A9C9F:
 BYTE   VOL   0*ChronoTriggerWindScenePandan_mvl/mxv
 BYTE   N12  Fn2  v076
 BYTE   W01
 BYTE   VOL   7*ChronoTriggerWindScenePandan_mvl/mxv
 BYTE   W01
 BYTE   An2
 BYTE   W01
 BYTE   Gs3
 BYTE   W01
 BYTE   Gs4
 BYTE   W05
 BYTE   Gs4
 BYTE   W01
 BYTE   Cn3
 BYTE   W02
 BYTE   Ds1
 BYTE   W01
 BYTE   GsM1
 BYTE   W01
 BYTE   CnM2
 BYTE   W10
 BYTE   Cs1
 BYTE   N12
 BYTE   W01
 BYTE   VOL   7*ChronoTriggerWindScenePandan_mvl/mxv
 BYTE   W01
 BYTE   An2
 BYTE   W01
 BYTE   Gs3
 BYTE   W01
 BYTE   Gs4
 BYTE   W05
 BYTE   Gs4
 BYTE   W01
 BYTE   Cn3
 BYTE   W02
 BYTE   Ds1
 BYTE   W01
 BYTE   GsM1
 BYTE   W01
 BYTE   CnM2
 BYTE   W32
 BYTE   W02
 BYTE   Cs1
 BYTE   N12
 BYTE   W01
 BYTE   VOL   7*ChronoTriggerWindScenePandan_mvl/mxv
 BYTE   W01
 BYTE   An2
 BYTE   W01
 BYTE   Gs3
 BYTE   W01
 BYTE   Gs4
 BYTE   W05
 BYTE   Gs4
 BYTE   W01
 BYTE   Cn3
 BYTE   W02
 BYTE   Ds1
 BYTE   W01
 BYTE   GsM1
 BYTE   W01
 BYTE   CnM2
 BYTE   W10
 BYTE   PEND 
 BYTE   PATT
  POIN2 Label_8_016A9C9F
 BYTE   PATT
  POIN2 Label_8_016A9C9F
 BYTE   PATT
  POIN2 Label_8_016A9C9F
 BYTE   PATT
  POIN2 Label_8_016A9B19
 BYTE   PATT
  POIN2 Label_8_016A9B19
 BYTE   PATT
  POIN2 Label_8_016A9B19
 BYTE   PATT
  POIN2 Label_8_016A9B19
// 035   ----------------------------------------
Label_8_016A9D09:
 BYTE   VOL   0*ChronoTriggerWindScenePandan_mvl/mxv
 BYTE   N12  Bn2  v076
 BYTE   W01
 BYTE   VOL   7*ChronoTriggerWindScenePandan_mvl/mxv
 BYTE   W01
 BYTE   An2
 BYTE   W01
 BYTE   Gs3
 BYTE   W01
 BYTE   Gs4
 BYTE   W05
 BYTE   Gs4
 BYTE   W01
 BYTE   Cn3
 BYTE   W02
 BYTE   Ds1
 BYTE   W01
 BYTE   GsM1
 BYTE   W01
 BYTE   CnM2
 BYTE   W10
 BYTE   Cs1
 BYTE   N12
 BYTE   W01
 BYTE   VOL   7*ChronoTriggerWindScenePandan_mvl/mxv
 BYTE   W01
 BYTE   An2
 BYTE   W01
 BYTE   Gs3
 BYTE   W01
 BYTE   Gs4
 BYTE   W05
 BYTE   Gs4
 BYTE   W01
 BYTE   Cn3
 BYTE   W02
 BYTE   Ds1
 BYTE   W01
 BYTE   GsM1
 BYTE   W01
 BYTE   CnM2
 BYTE   W32
 BYTE   W02
 BYTE   Cs1
 BYTE   N12
 BYTE   W01
 BYTE   VOL   7*ChronoTriggerWindScenePandan_mvl/mxv
 BYTE   W01
 BYTE   An2
 BYTE   W01
 BYTE   Gs3
 BYTE   W01
 BYTE   Gs4
 BYTE   W05
 BYTE   Gs4
 BYTE   W01
 BYTE   Cn3
 BYTE   W02
 BYTE   Ds1
 BYTE   W01
 BYTE   GsM1
 BYTE   W01
 BYTE   CnM2
 BYTE   W10
 BYTE   PEND 
 BYTE   PATT
  POIN2 Label_8_016A9D09
 BYTE   PATT
  POIN2 Label_8_016A9D09
 BYTE   PATT
  POIN2 Label_8_016A9D09
 BYTE   PATT
  POIN2 Label_8_016A9C07
 BYTE   PATT
  POIN2 Label_8_016A9C07
// 036   ----------------------------------------
Label_8_016A9D69:
 BYTE   VOL   0*ChronoTriggerWindScenePandan_mvl/mxv
 BYTE   N12  Gs2  v076
 BYTE   W01
 BYTE   VOL   7*ChronoTriggerWindScenePandan_mvl/mxv
 BYTE   W01
 BYTE   An2
 BYTE   W01
 BYTE   Gs3
 BYTE   W01
 BYTE   Gs4
 BYTE   W05
 BYTE   Gs4
 BYTE   W01
 BYTE   Cn3
 BYTE   W02
 BYTE   Ds1
 BYTE   W01
 BYTE   GsM1
 BYTE   W01
 BYTE   CnM2
 BYTE   W10
 BYTE   Cs1
 BYTE   N12
 BYTE   W01
 BYTE   VOL   7*ChronoTriggerWindScenePandan_mvl/mxv
 BYTE   W01
 BYTE   An2
 BYTE   W01
 BYTE   Gs3
 BYTE   W01
 BYTE   Gs4
 BYTE   W05
 BYTE   Gs4
 BYTE   W01
 BYTE   Cn3
 BYTE   W02
 BYTE   Ds1
 BYTE   W01
 BYTE   GsM1
 BYTE   W01
 BYTE   CnM2
 BYTE   W32
 BYTE   W02
 BYTE   Cs1
 BYTE   N12
 BYTE   W01
 BYTE   VOL   7*ChronoTriggerWindScenePandan_mvl/mxv
 BYTE   W01
 BYTE   An2
 BYTE   W01
 BYTE   Gs3
 BYTE   W01
 BYTE   Gs4
 BYTE   W05
 BYTE   Gs4
 BYTE   W01
 BYTE   Cn3
 BYTE   W02
 BYTE   Ds1
 BYTE   W01
 BYTE   GsM1
 BYTE   W01
 BYTE   CnM2
 BYTE   W10
 BYTE   PEND 
 BYTE   PATT
  POIN2 Label_8_016A9D69
 BYTE   PATT
  POIN2 Label_8_016A9B6F
 BYTE   PATT
  POIN2 Label_8_016A9B6F
// 037   ----------------------------------------
 BYTE   VOL   0*ChronoTriggerWindScenePandan_mvl/mxv
 BYTE   TIE  An2  v076
 BYTE   W01
 BYTE   VOL   7*ChronoTriggerWindScenePandan_mvl/mxv
 BYTE   W01
 BYTE   An2
 BYTE   W01
 BYTE   Gs3
 BYTE   W01
 BYTE   Gs4
 BYTE   W92
// 038   ----------------------------------------
 BYTE   W96
// 039   ----------------------------------------
 BYTE   EOT
 BYTE   W96
// 040   ----------------------------------------
 BYTE   W96
// 041   ----------------------------------------
 BYTE   W96
// 042   ----------------------------------------
 BYTE   W96
// 043   ----------------------------------------
 BYTE   W96
// 044   ----------------------------------------
 BYTE   W96
// 045   ----------------------------------------
 BYTE   W96
// 046   ----------------------------------------
 BYTE   W96
// 047   ----------------------------------------
 BYTE   W96
// 048   ----------------------------------------
 BYTE   W96
// 049   ----------------------------------------
 BYTE   W96
// 050   ----------------------------------------
 BYTE   W96
// 051   ----------------------------------------
 BYTE   W96
// 052   ----------------------------------------
 BYTE   W96
// 053   ----------------------------------------
 BYTE   W96
// 054   ----------------------------------------
 BYTE   W44
 BYTE   W02
 BYTE   GoTo
  POIN2 Label_8_016A9A3E
// 055   ----------------------------------------
 BYTE   W48
 BYTE   W02
 BYTE   FINE

//**************** Track 10 (Midi-Chn.9) ****************//

ChronoTriggerWindScenePandan_010:
// 000   ----------------------------------------
 BYTE   KEYSH   ChronoTriggerWindScenePandan_key+0
Label_9_016A9DEE:
 BYTE   VOICE   124
 BYTE   VOL   40*ChronoTriggerWindScenePandan_mvl/mxv
 BYTE   PAN   c_v+0
 BYTE   W48
 BYTE   Fn3
 BYTE   VOL   40*ChronoTriggerWindScenePandan_mvl/mxv
 BYTE   W48
// 001   ----------------------------------------
 BYTE   W96
// 002   ----------------------------------------
 BYTE   W48
 BYTE   N12  Fs2  v127
 BYTE   W48
// 003   ----------------------------------------
 BYTE   W96
// 004   ----------------------------------------
 BYTE   W48
 BYTE   N12
 BYTE   W48
// 005   ----------------------------------------
 BYTE   W96
// 006   ----------------------------------------
 BYTE   W48
 BYTE   N12
 BYTE   W48
// 007   ----------------------------------------
 BYTE   W96
// 008   ----------------------------------------
 BYTE   W48
 BYTE   N12
 BYTE   W48
// 009   ----------------------------------------
 BYTE   W96
// 010   ----------------------------------------
 BYTE   W48
 BYTE   N12
 BYTE   W48
// 011   ----------------------------------------
 BYTE   W96
// 012   ----------------------------------------
 BYTE   W48
 BYTE   N12
 BYTE   W48
// 013   ----------------------------------------
 BYTE   W96
// 014   ----------------------------------------
 BYTE   W48
 BYTE   N12
 BYTE   W48
// 015   ----------------------------------------
 BYTE   W96
// 016   ----------------------------------------
 BYTE   N03  Cs2  v012
 BYTE   W03
 BYTE   Cs2  v016
 BYTE   W03
 BYTE   Cs2  v020
 BYTE   W03
 BYTE   Cs2  v024
 BYTE   W03
 BYTE   Cs2  v028
 BYTE   W03
 BYTE   Cs2  v032
 BYTE   W03
 BYTE   N03
 BYTE   W03
 BYTE   Cs2  v040
 BYTE   W03
 BYTE   N03
 BYTE   W03
 BYTE   Cs2  v048
 BYTE   W03
 BYTE   N03
 BYTE   W03
 BYTE   Cs2  v052
 BYTE   W03
 BYTE   Cs2  v056
 BYTE   W03
 BYTE   Cs2  v060
 BYTE   W03
 BYTE   Cs2  v064
 BYTE   W03
 BYTE   Cs2  v068
 BYTE   W03
 BYTE   Cs2  v072
 BYTE   N12  Fs2  v127
 BYTE   W03
 BYTE   N03  Cs2  v076
 BYTE   W03
 BYTE   N03
 BYTE   W03
 BYTE   N03
 BYTE   W03
 BYTE   N03
 BYTE   W03
 BYTE   N03
 BYTE   W03
 BYTE   N03
 BYTE   W03
 BYTE   N03
 BYTE   W03
 BYTE   N03
 BYTE   W03
 BYTE   N03
 BYTE   W03
 BYTE   N03
 BYTE   W03
 BYTE   N03
 BYTE   W03
 BYTE   N03
 BYTE   W03
 BYTE   N03
 BYTE   W03
 BYTE   N03
 BYTE   W03
 BYTE   N03
 BYTE   W03
// 017   ----------------------------------------
 BYTE   N03
 BYTE   W03
 BYTE   Cs2  v072
 BYTE   W03
 BYTE   N03
 BYTE   W03
 BYTE   Cs2  v068
 BYTE   W03
 BYTE   N03
 BYTE   W03
 BYTE   N03
 BYTE   W03
 BYTE   Cs2  v064
 BYTE   W03
 BYTE   Cs2  v060
 BYTE   W03
 BYTE   N03
 BYTE   W03
 BYTE   Cs2  v056
 BYTE   W03
 BYTE   N03
 BYTE   W03
 BYTE   Cs2  v052
 BYTE   W03
 BYTE   N03
 BYTE   W03
 BYTE   Cs2  v048
 BYTE   W03
 BYTE   N03
 BYTE   W03
 BYTE   Cs2  v044
 BYTE   W03
 BYTE   N03
 BYTE   W03
 BYTE   Cs2  v040
 BYTE   W03
 BYTE   N03
 BYTE   W03
 BYTE   Cs2  v036
 BYTE   W03
 BYTE   N03
 BYTE   W03
 BYTE   Cs2  v032
 BYTE   W03
 BYTE   N03
 BYTE   W03
 BYTE   Cs2  v028
 BYTE   W03
 BYTE   N03
 BYTE   W03
 BYTE   Cs2  v024
 BYTE   W03
 BYTE   N03
 BYTE   W03
 BYTE   Cs2  v020
 BYTE   W03
 BYTE   N03
 BYTE   W03
 BYTE   Cs2  v016
 BYTE   W03
 BYTE   N03
 BYTE   W03
 BYTE   Cs2  v012
 BYTE   W03
// 018   ----------------------------------------
 BYTE   W96
// 019   ----------------------------------------
 BYTE   W96
// 020   ----------------------------------------
 BYTE   W96
// 021   ----------------------------------------
 BYTE   W96
// 022   ----------------------------------------
 BYTE   W96
// 023   ----------------------------------------
 BYTE   W96
// 024   ----------------------------------------
 BYTE   W96
// 025   ----------------------------------------
 BYTE   W96
// 026   ----------------------------------------
 BYTE   W96
// 027   ----------------------------------------
 BYTE   W96
// 028   ----------------------------------------
 BYTE   W96
// 029   ----------------------------------------
 BYTE   W96
// 030   ----------------------------------------
 BYTE   W96
// 031   ----------------------------------------
 BYTE   W96
// 032   ----------------------------------------
 BYTE   W96
// 033   ----------------------------------------
 BYTE   W96
// 034   ----------------------------------------
 BYTE   W96
// 035   ----------------------------------------
 BYTE   W96
// 036   ----------------------------------------
 BYTE   W96
// 037   ----------------------------------------
 BYTE   W96
// 038   ----------------------------------------
 BYTE   W96
// 039   ----------------------------------------
 BYTE   W96
// 040   ----------------------------------------
 BYTE   W96
// 041   ----------------------------------------
 BYTE   W96
// 042   ----------------------------------------
 BYTE   W96
// 043   ----------------------------------------
 BYTE   W96
// 044   ----------------------------------------
 BYTE   W96
// 045   ----------------------------------------
 BYTE   W96
// 046   ----------------------------------------
 BYTE   W96
// 047   ----------------------------------------
 BYTE   W96
// 048   ----------------------------------------
 BYTE   W96
// 049   ----------------------------------------
 BYTE   W96
// 050   ----------------------------------------
 BYTE   W96
// 051   ----------------------------------------
 BYTE   W96
// 052   ----------------------------------------
 BYTE   W96
// 053   ----------------------------------------
 BYTE   W96
// 054   ----------------------------------------
 BYTE   W96
// 055   ----------------------------------------
 BYTE   W96
// 056   ----------------------------------------
 BYTE   W96
// 057   ----------------------------------------
 BYTE   W96
// 058   ----------------------------------------
 BYTE   W96
// 059   ----------------------------------------
 BYTE   W96
// 060   ----------------------------------------
 BYTE   W96
// 061   ----------------------------------------
 BYTE   W96
// 062   ----------------------------------------
 BYTE   W96
// 063   ----------------------------------------
 BYTE   W96
// 064   ----------------------------------------
 BYTE   W96
// 065   ----------------------------------------
 BYTE   W96
// 066   ----------------------------------------
 BYTE   W48
 BYTE   N12  Fs2  v127
 BYTE   W48
// 067   ----------------------------------------
 BYTE   W96
// 068   ----------------------------------------
 BYTE   W48
 BYTE   N12
 BYTE   W48
// 069   ----------------------------------------
 BYTE   W96
// 070   ----------------------------------------
 BYTE   W48
 BYTE   N12
 BYTE   W48
// 071   ----------------------------------------
 BYTE   W96
// 072   ----------------------------------------
 BYTE   W48
 BYTE   N12
 BYTE   W48
// 073   ----------------------------------------
 BYTE   W96
// 074   ----------------------------------------
 BYTE   W48
 BYTE   N12
 BYTE   W48
// 075   ----------------------------------------
 BYTE   W96
// 076   ----------------------------------------
 BYTE   W48
 BYTE   N12
 BYTE   W48
// 077   ----------------------------------------
 BYTE   W96
// 078   ----------------------------------------
 BYTE   W48
 BYTE   N12
 BYTE   W48
// 079   ----------------------------------------
 BYTE   W96
// 080   ----------------------------------------
 BYTE   W48
 BYTE   N12
 BYTE   W48
// 081   ----------------------------------------
 BYTE   W44
 BYTE   W02
 BYTE   GoTo
  POIN2 Label_9_016A9DEE
// 082   ----------------------------------------
 BYTE   W48
 BYTE   W02
 BYTE   FINE

//******************************************************//
	ALIGN 4

ChronoTriggerWindScenePandan:
	BYTE	10	// NumTrks
	BYTE	0	// NumBlks
	BYTE	ChronoTriggerWindScenePandan_pri	// Priority
	BYTE	ChronoTriggerWindScenePandan_rev	// Reverb.
    
	POIN2	ChronoTriggerWindScenePandan_grp
    
	POIN2	ChronoTriggerWindScenePandan_001
	POIN2	ChronoTriggerWindScenePandan_002
	POIN2	ChronoTriggerWindScenePandan_003
	POIN2	ChronoTriggerWindScenePandan_004
	POIN2	ChronoTriggerWindScenePandan_005
	POIN2	ChronoTriggerWindScenePandan_006
	POIN2	ChronoTriggerWindScenePandan_007
	POIN2	ChronoTriggerWindScenePandan_008
	POIN2	ChronoTriggerWindScenePandan_009
	POIN2	ChronoTriggerWindScenePandan_010

	
