//Event file generated from Sappy .s format.
	#include "MPlayDef.event"

	#define	ChronoTriggerFrogsThemeRandomWizard_grp  voicegroup000
	#define	ChronoTriggerFrogsThemeRandomWizard_pri  0
	#define	ChronoTriggerFrogsThemeRandomWizard_rev  0
	#define	ChronoTriggerFrogsThemeRandomWizard_mvl  127
	#define	ChronoTriggerFrogsThemeRandomWizard_key  0
	#define	ChronoTriggerFrogsThemeRandomWizard_tbs  1
	#define	ChronoTriggerFrogsThemeRandomWizard_exg  0
	#define	ChronoTriggerFrogsThemeRandomWizard_cmp  1

	// .rodata
	//	ChronoTriggerFrogsThemeRandomWizard
	ALIGN 4


//**************** Track 1 (Midi-Chn.0) ****************//

ChronoTriggerFrogsThemeRandomWizard_001:
// 000   ----------------------------------------
 BYTE   KEYSH   ChronoTriggerFrogsThemeRandomWizard_key+0
Label_0_015D92B2:
 BYTE   TEMPO   120*ChronoTriggerFrogsThemeRandomWizard_tbs/2
 BYTE   VOICE   48
 BYTE   VOL   25*ChronoTriggerFrogsThemeRandomWizard_mvl/mxv
 BYTE   PAN   c_v+0
 BYTE   N11  Bn3  v127
 BYTE   N11  Ds4
 BYTE   N11  Gs4
 BYTE   N12  Bn4
 BYTE   W24
 BYTE   Bn3
 BYTE   N12  Ds4
 BYTE   N12  Gs4
 BYTE   N12  Bn4
 BYTE   W24
 BYTE   Bn3
 BYTE   N12  Ds4
 BYTE   N12  Gs4
 BYTE   N12  Bn4
 BYTE   W24
 BYTE   N23  Bn3
 BYTE   N23  Ds4
 BYTE   N23  Gs4
 BYTE   N24  Bn4
 BYTE   W24
// 001   ----------------------------------------
Label_0_015D92DD:
 BYTE   N11  As3  v127
 BYTE   N11  Cs4
 BYTE   N11  Fs4
 BYTE   N12  As4
 BYTE   W24
 BYTE   As3
 BYTE   N12  Cs4
 BYTE   N12  Fs4
 BYTE   N12  As4
 BYTE   W24
 BYTE   As3
 BYTE   N12  Cs4
 BYTE   N12  Fs4
 BYTE   N12  As4
 BYTE   W24
 BYTE   N23  As3
 BYTE   N23  Cs4
 BYTE   N15  Fs4
 BYTE   N07  As4
 BYTE   N07  Cs5
 BYTE   W07
 BYTE   Gs4
 BYTE   N07  Bn4
 BYTE   W08
 BYTE   Fs4
 BYTE   N07  As4
 BYTE   W09
 BYTE   PEND 
// 002   ----------------------------------------
Label_0_015D930B:
 BYTE   N11  Bn3  v127
 BYTE   N11  En4
 BYTE   N12  Gs4
 BYTE   N12  Bn4
 BYTE   W24
 BYTE   Bn3
 BYTE   N12  En4
 BYTE   N12  Gs4
 BYTE   N12  Bn4
 BYTE   W24
 BYTE   Bn3
 BYTE   N12  En4
 BYTE   N12  Gs4
 BYTE   N12  Bn4
 BYTE   W24
 BYTE   N24  Bn3
 BYTE   N24  En4
 BYTE   N24  Gs4
 BYTE   N24  Bn4
 BYTE   W24
 BYTE   PEND 
// 003   ----------------------------------------
Label_0_015D932F:
 BYTE   N12  As3  v127
 BYTE   N12  Cs4
 BYTE   N12  Fs4
 BYTE   N12  As4
 BYTE   W24
 BYTE   As3
 BYTE   N12  Cs4
 BYTE   N12  Fs4
 BYTE   N12  As4
 BYTE   W24
 BYTE   As3
 BYTE   N12  Cs4
 BYTE   N12  Fs4
 BYTE   N12  As4
 BYTE   W24
 BYTE   N24  Fs3
 BYTE   N24  As3
 BYTE   N23  Cs4
 BYTE   N23  Fs4
 BYTE   W24
 BYTE   PEND 
// 004   ----------------------------------------
Label_0_015D9353:
 BYTE   N11  Bn3  v127
 BYTE   N11  Ds4
 BYTE   N11  Gs4
 BYTE   N12  Bn4
 BYTE   W24
 BYTE   Bn3
 BYTE   N12  Ds4
 BYTE   N12  Gs4
 BYTE   N12  Bn4
 BYTE   W24
 BYTE   Bn3
 BYTE   N12  Ds4
 BYTE   N12  Gs4
 BYTE   N12  Bn4
 BYTE   W24
 BYTE   N24  Bn3
 BYTE   N23  Ds4
 BYTE   N23  Gs4
 BYTE   N24  Bn4
 BYTE   W24
 BYTE   PEND 
 BYTE   PATT
  POIN2 Label_0_015D92DD
// 005   ----------------------------------------
Label_0_015D937C:
 BYTE   N11  Gs3  v127
 BYTE   N11  Bn3
 BYTE   N11  En4
 BYTE   N11  Gs4
 BYTE   W24
 BYTE   N12  Gs3
 BYTE   N12  Bn3
 BYTE   N12  En4
 BYTE   N11  Gs4
 BYTE   W24
 BYTE   N12  As3
 BYTE   N12  Cs4
 BYTE   N12  Fs4
 BYTE   N12  As4
 BYTE   W24
 BYTE   N23  As3
 BYTE   N23  Cs4
 BYTE   N23  Fs4
 BYTE   N24  As4
 BYTE   W24
 BYTE   PEND 
// 006   ----------------------------------------
Label_0_015D93A2:
 BYTE   N05  Gs3  v127
 BYTE   N05  Bn3
 BYTE   N05  Ds4
 BYTE   N05  Gs4
 BYTE   W08
 BYTE   Fs3
 BYTE   N05  As3
 BYTE   N05  Cs4
 BYTE   N05  Fs4
 BYTE   W08
 BYTE   Gs3
 BYTE   N05  Bn3
 BYTE   N05  Ds4
 BYTE   N05  Gs4
 BYTE   W08
 BYTE   Gs3
 BYTE   N05  Bn3
 BYTE   N05  Ds4
 BYTE   N05  Gs4
 BYTE   W08
 BYTE   Fs3
 BYTE   N05  As3
 BYTE   N05  Cs4
 BYTE   N05  Fs4
 BYTE   W08
 BYTE   Gs3
 BYTE   N05  Bn3
 BYTE   N05  Ds4
 BYTE   N05  Gs4
 BYTE   W08
 BYTE   N11  Gs3
 BYTE   N11  Bn3
 BYTE   N11  Ds4
 BYTE   N11  Gs4
 BYTE   W48
 BYTE   PEND 
// 007   ----------------------------------------
Label_0_015D93DE:
 BYTE   W24
 BYTE   N12  Bn3  v100
 BYTE   N12  Ds4
 BYTE   N12  Gs4
 BYTE   N12  Bn4
 BYTE   W48
 BYTE   N23  Bn3  v127
 BYTE   N23  Ds4
 BYTE   N23  Gs4
 BYTE   N24  Bn4
 BYTE   W24
 BYTE   PEND 
// 008   ----------------------------------------
Label_0_015D93F4:
 BYTE   W24
 BYTE   N12  Bn3  v100
 BYTE   N12  Ds4
 BYTE   N12  Fs4
 BYTE   N12  Bn4
 BYTE   W48
 BYTE   N23  Bn3  v127
 BYTE   N23  Ds4
 BYTE   N23  Fs4
 BYTE   N24  Bn4
 BYTE   W24
 BYTE   PEND 
// 009   ----------------------------------------
Label_0_015D940A:
 BYTE   W24
 BYTE   N12  Gs3  v100
 BYTE   N12  Bn3
 BYTE   N12  En4
 BYTE   N12  Gs4
 BYTE   W48
 BYTE   N23  Gs3  v127
 BYTE   N23  Bn3
 BYTE   N23  En4
 BYTE   N23  Gs4
 BYTE   W24
 BYTE   PEND 
// 010   ----------------------------------------
Label_0_015D9420:
 BYTE   W24
 BYTE   N12  As3  v100
 BYTE   N12  Cs4
 BYTE   N12  Fs4
 BYTE   N12  As4
 BYTE   W48
 BYTE   N23  As3  v127
 BYTE   N23  Cs4
 BYTE   N23  Fs4
 BYTE   N23  As4
 BYTE   W24
 BYTE   PEND 
// 011   ----------------------------------------
Label_0_015D9436:
 BYTE   W24
 BYTE   N12  Bn3  v100
 BYTE   N12  Ds4
 BYTE   N12  Gs4
 BYTE   N12  Bn4
 BYTE   W48
 BYTE   N23  Bn3  v127
 BYTE   N23  Ds4
 BYTE   N23  Gs4
 BYTE   N23  Bn4
 BYTE   W24
 BYTE   PEND 
 BYTE   PATT
  POIN2 Label_0_015D9420
 BYTE   PATT
  POIN2 Label_0_015D940A
// 012   ----------------------------------------
Label_0_015D9456:
 BYTE   W24
 BYTE   N12  Gs3  v104
 BYTE   N12  Cs4
 BYTE   N12  Fn4
 BYTE   N12  Gs4
 BYTE   W48
 BYTE   N23  Gs3  v127
 BYTE   N23  Cs4
 BYTE   N23  Fn4
 BYTE   N23  Gs4
 BYTE   W24
 BYTE   PEND 
// 013   ----------------------------------------
Label_0_015D946C:
 BYTE   W24
 BYTE   N24  Gs3  v127
 BYTE   N24  Bn3
 BYTE   N24  En4
 BYTE   N24  Gs4
 BYTE   W48
 BYTE   N23  Bn3
 BYTE   N23  Ds4
 BYTE   N23  Fs4
 BYTE   N24  Bn4
 BYTE   W24
 BYTE   PEND 
// 014   ----------------------------------------
Label_0_015D9481:
 BYTE   W24
 BYTE   N12  Gs3  v104
 BYTE   N12  Bn3
 BYTE   N12  En4
 BYTE   N12  Gs4
 BYTE   W48
 BYTE   N23  Gs3  v127
 BYTE   N23  Bn3
 BYTE   N23  Ds4
 BYTE   N23  Gs4
 BYTE   W24
 BYTE   PEND 
// 015   ----------------------------------------
Label_0_015D9497:
 BYTE   W24
 BYTE   N12  En3  v100
 BYTE   N12  Gs3
 BYTE   N12  Bn3
 BYTE   N12  En4
 BYTE   W48
 BYTE   N23  Fs3  v127
 BYTE   N23  As3
 BYTE   N23  Cs4
 BYTE   N23  Fs4
 BYTE   W24
 BYTE   PEND 
// 016   ----------------------------------------
Label_0_015D94AD:
 BYTE   N48  Gs3  v100
 BYTE   N48  Cs4
 BYTE   N48  Fn4
 BYTE   N48  Gs4
 BYTE   W48
 BYTE   As3
 BYTE   N48  Cs4
 BYTE   N48  Fs4
 BYTE   N48  As4
 BYTE   W48
 BYTE   PEND 
// 017   ----------------------------------------
Label_0_015D94C0:
 BYTE   W24
 BYTE   N23  En3  v127
 BYTE   N23  Gs3
 BYTE   N23  Bn3
 BYTE   N23  En4
 BYTE   W48
 BYTE   Fs3
 BYTE   N23  Bn3
 BYTE   N23  Ds4
 BYTE   N23  Fs4
 BYTE   W24
 BYTE   PEND 
// 018   ----------------------------------------
Label_0_015D94D4:
 BYTE   W24
 BYTE   N23  En3  v127
 BYTE   N23  Gs3
 BYTE   N23  Bn3
 BYTE   N23  En4
 BYTE   W48
 BYTE   Gs3
 BYTE   N23  Bn3
 BYTE   N23  Ds4
 BYTE   N23  Gs4
 BYTE   W24
 BYTE   PEND 
// 019   ----------------------------------------
Label_0_015D94E8:
 BYTE   W24
 BYTE   N23  En3  v127
 BYTE   N23  Gs3
 BYTE   N23  Bn3
 BYTE   N23  En4
 BYTE   W48
 BYTE   Fs3
 BYTE   N23  As3
 BYTE   N23  Cs4
 BYTE   N23  Fs4
 BYTE   W24
 BYTE   PEND 
 BYTE   PATT
  POIN2 Label_0_015D93A2
// 020   ----------------------------------------
 BYTE   N11  Bn3  v127
 BYTE   N11  Ds4
 BYTE   N11  Gs4
 BYTE   N12  Bn4
 BYTE   W24
 BYTE   Bn3
 BYTE   N12  Ds4
 BYTE   N12  Gs4
 BYTE   N12  Bn4
 BYTE   W24
 BYTE   Bn3
 BYTE   N12  Ds4
 BYTE   N12  Gs4
 BYTE   N12  Bn4
 BYTE   W24
 BYTE   N23  Bn3
 BYTE   N23  Ds4
 BYTE   N23  Gs4
 BYTE   N24  Bn4
 BYTE   W24
 BYTE   PATT
  POIN2 Label_0_015D92DD
 BYTE   PATT
  POIN2 Label_0_015D930B
 BYTE   PATT
  POIN2 Label_0_015D932F
 BYTE   PATT
  POIN2 Label_0_015D9353
 BYTE   PATT
  POIN2 Label_0_015D92DD
 BYTE   PATT
  POIN2 Label_0_015D937C
 BYTE   PATT
  POIN2 Label_0_015D93A2
 BYTE   PATT
  POIN2 Label_0_015D93DE
 BYTE   PATT
  POIN2 Label_0_015D93F4
 BYTE   PATT
  POIN2 Label_0_015D940A
 BYTE   PATT
  POIN2 Label_0_015D9420
 BYTE   PATT
  POIN2 Label_0_015D9436
 BYTE   PATT
  POIN2 Label_0_015D9420
 BYTE   PATT
  POIN2 Label_0_015D940A
 BYTE   PATT
  POIN2 Label_0_015D9456
 BYTE   PATT
  POIN2 Label_0_015D946C
 BYTE   PATT
  POIN2 Label_0_015D9481
 BYTE   PATT
  POIN2 Label_0_015D9497
 BYTE   PATT
  POIN2 Label_0_015D94AD
 BYTE   PATT
  POIN2 Label_0_015D94C0
 BYTE   PATT
  POIN2 Label_0_015D94D4
 BYTE   PATT
  POIN2 Label_0_015D94E8
// 021   ----------------------------------------
 BYTE   N05  Gs3  v127
 BYTE   N05  Bn3
 BYTE   N05  Ds4
 BYTE   N05  Gs4
 BYTE   W08
 BYTE   Fs3
 BYTE   N05  As3
 BYTE   N05  Cs4
 BYTE   N05  Fs4
 BYTE   W08
 BYTE   Gs3
 BYTE   N05  Bn3
 BYTE   N05  Ds4
 BYTE   N05  Gs4
 BYTE   W08
 BYTE   Gs3
 BYTE   N05  Bn3
 BYTE   N05  Ds4
 BYTE   N05  Gs4
 BYTE   W08
 BYTE   Fs3
 BYTE   N05  As3
 BYTE   N05  Cs4
 BYTE   N05  Fs4
 BYTE   W08
 BYTE   Gs3
 BYTE   N05  Bn3
 BYTE   N05  Ds4
 BYTE   N05  Gs4
 BYTE   W08
 BYTE   N11  Gs3
 BYTE   N11  Bn3
 BYTE   N11  Ds4
 BYTE   N11  Gs4
 BYTE   W44
 BYTE   W03
 BYTE   GoTo
  POIN2 Label_0_015D92B2
 BYTE   FINE

//**************** Track 2 (Midi-Chn.1) ****************//

ChronoTriggerFrogsThemeRandomWizard_002:
// 000   ----------------------------------------
 BYTE   KEYSH   ChronoTriggerFrogsThemeRandomWizard_key+0
Label_1_015D95D6:
 BYTE   VOICE   56
 BYTE   PAN   c_v-20
 BYTE   VOL   40*ChronoTriggerFrogsThemeRandomWizard_mvl/mxv
 BYTE   N05  Gs3  v127
 BYTE   W07
 BYTE   Fs3
 BYTE   W08
 BYTE   Gs3
 BYTE   W09
 BYTE   N23  Ds3
 BYTE   W24
 BYTE   Gs3
 BYTE   W24
 BYTE   N17  As3
 BYTE   W18
 BYTE   N05  Bn3
 BYTE   W06
// 001   ----------------------------------------
Label_1_015D95EF:
 BYTE   N05  As3  v127
 BYTE   W07
 BYTE   Gs3
 BYTE   W08
 BYTE   As3
 BYTE   W09
 BYTE   N68  Fs3
 BYTE   W72
 BYTE   PEND 
// 002   ----------------------------------------
Label_1_015D95FB:
 BYTE   N05  Gs3  v127
 BYTE   W07
 BYTE   Fs3
 BYTE   W08
 BYTE   Gs3
 BYTE   W09
 BYTE   N23  Ds3
 BYTE   W24
 BYTE   Gs3
 BYTE   W24
 BYTE   N17  As3
 BYTE   W18
 BYTE   N05  Bn3
 BYTE   W06
 BYTE   PEND 
// 003   ----------------------------------------
Label_1_015D960F:
 BYTE   N05  As3  v127
 BYTE   W07
 BYTE   Bn3
 BYTE   W08
 BYTE   Cs4
 BYTE   W09
 BYTE   N44  As3
 BYTE   W48
 BYTE   N23  Fs3
 BYTE   W24
 BYTE   PEND 
// 004   ----------------------------------------
Label_1_015D961E:
 BYTE   N05  Gs3  v127
 BYTE   W07
 BYTE   Fs3
 BYTE   W08
 BYTE   Gs3
 BYTE   W09
 BYTE   N23  Ds3
 BYTE   W24
 BYTE   Gs3
 BYTE   W24
 BYTE   N17  As3
 BYTE   W18
 BYTE   N05  Bn3
 BYTE   W06
 BYTE   PEND 
 BYTE   PATT
  POIN2 Label_1_015D95EF
// 005   ----------------------------------------
Label_1_015D9637:
 BYTE   N05  Gs3  v127
 BYTE   W07
 BYTE   Fs3
 BYTE   W08
 BYTE   Gs3
 BYTE   W09
 BYTE   N23  As3
 BYTE   W24
 BYTE   Bn3
 BYTE   W24
 BYTE   As3
 BYTE   W24
 BYTE   PEND 
// 006   ----------------------------------------
Label_1_015D9647:
 BYTE   N05  Gs3  v127
 BYTE   W08
 BYTE   Fs3
 BYTE   W08
 BYTE   Gs3
 BYTE   W08
 BYTE   N05
 BYTE   W08
 BYTE   Fs3
 BYTE   W08
 BYTE   Gs3
 BYTE   W08
 BYTE   N12
 BYTE   W48
 BYTE   PEND 
// 007   ----------------------------------------
Label_1_015D9658:
 BYTE   W24
 BYTE   N12  Bn3  v127
 BYTE   W48
 BYTE   N24
 BYTE   W24
 BYTE   PEND 
 BYTE   PATT
  POIN2 Label_1_015D9658
// 008   ----------------------------------------
Label_1_015D9665:
 BYTE   W24
 BYTE   N12  Gs3  v127
 BYTE   W48
 BYTE   N24
 BYTE   W24
 BYTE   PEND 
// 009   ----------------------------------------
Label_1_015D966D:
 BYTE   W24
 BYTE   N12  As3  v127
 BYTE   W48
 BYTE   N24
 BYTE   W24
 BYTE   PEND 
 BYTE   PATT
  POIN2 Label_1_015D9658
 BYTE   PATT
  POIN2 Label_1_015D966D
 BYTE   PATT
  POIN2 Label_1_015D9665
// 010   ----------------------------------------
Label_1_015D9684:
 BYTE   W24
 BYTE   N12  Gs3  v127
 BYTE   W24
 BYTE   N06  Fn3
 BYTE   W08
 BYTE   Gs3
 BYTE   W08
 BYTE   Bn3
 BYTE   W08
 BYTE   N24  Gs4
 BYTE   W24
 BYTE   PEND 
// 011   ----------------------------------------
Label_1_015D9694:
 BYTE   N08  Gs3  v127
 BYTE   W08
 BYTE   N08
 BYTE   W16
 BYTE   N24
 BYTE   W48
 BYTE   Bn3
 BYTE   W24
 BYTE   PEND 
// 012   ----------------------------------------
Label_1_015D969F:
 BYTE   W24
 BYTE   N24  Gs3  v127
 BYTE   W24
 BYTE   N06
 BYTE   W08
 BYTE   Bn3
 BYTE   W08
 BYTE   Ds4
 BYTE   W08
 BYTE   N24  Gs4
 BYTE   W24
 BYTE   PEND 
// 013   ----------------------------------------
Label_1_015D96AE:
 BYTE   W24
 BYTE   N12  Gs3  v127
 BYTE   W48
 BYTE   N24  As3
 BYTE   W24
 BYTE   PEND 
// 014   ----------------------------------------
Label_1_015D96B7:
 BYTE   N48  Gs3  v127
 BYTE   W48
 BYTE   As3
 BYTE   W48
 BYTE   PEND 
// 015   ----------------------------------------
Label_1_015D96BE:
 BYTE   W24
 BYTE   N24  Bn3  v127
 BYTE   W48
 BYTE   N24
 BYTE   W24
 BYTE   PEND 
// 016   ----------------------------------------
Label_1_015D96C6:
 BYTE   W24
 BYTE   N24  Bn3  v127
 BYTE   W48
 BYTE   Gs3
 BYTE   W24
 BYTE   PEND 
// 017   ----------------------------------------
Label_1_015D96CE:
 BYTE   W24
 BYTE   N24  Bn3  v127
 BYTE   W48
 BYTE   Fs3
 BYTE   W24
 BYTE   PEND 
 BYTE   PATT
  POIN2 Label_1_015D9647
 BYTE   PATT
  POIN2 Label_1_015D961E
 BYTE   PATT
  POIN2 Label_1_015D95EF
 BYTE   PATT
  POIN2 Label_1_015D95FB
 BYTE   PATT
  POIN2 Label_1_015D960F
 BYTE   PATT
  POIN2 Label_1_015D961E
 BYTE   PATT
  POIN2 Label_1_015D95EF
 BYTE   PATT
  POIN2 Label_1_015D9637
 BYTE   PATT
  POIN2 Label_1_015D9647
 BYTE   PATT
  POIN2 Label_1_015D9658
 BYTE   PATT
  POIN2 Label_1_015D9658
 BYTE   PATT
  POIN2 Label_1_015D9665
 BYTE   PATT
  POIN2 Label_1_015D966D
 BYTE   PATT
  POIN2 Label_1_015D9658
 BYTE   PATT
  POIN2 Label_1_015D966D
 BYTE   PATT
  POIN2 Label_1_015D9665
 BYTE   PATT
  POIN2 Label_1_015D9684
 BYTE   PATT
  POIN2 Label_1_015D9694
 BYTE   PATT
  POIN2 Label_1_015D969F
 BYTE   PATT
  POIN2 Label_1_015D96AE
 BYTE   PATT
  POIN2 Label_1_015D96B7
 BYTE   PATT
  POIN2 Label_1_015D96BE
 BYTE   PATT
  POIN2 Label_1_015D96C6
 BYTE   PATT
  POIN2 Label_1_015D96CE
// 018   ----------------------------------------
 BYTE   N05  Gs3  v127
 BYTE   W08
 BYTE   Fs3
 BYTE   W08
 BYTE   Gs3
 BYTE   W08
 BYTE   N05
 BYTE   W08
 BYTE   Fs3
 BYTE   W08
 BYTE   Gs3
 BYTE   W08
 BYTE   N12
 BYTE   W44
 BYTE   W03
 BYTE   GoTo
  POIN2 Label_1_015D95D6
 BYTE   FINE

//**************** Track 3 (Midi-Chn.2) ****************//

ChronoTriggerFrogsThemeRandomWizard_003:
// 000   ----------------------------------------
 BYTE   KEYSH   ChronoTriggerFrogsThemeRandomWizard_key+0
Label_2_015D976A:
 BYTE   VOICE   62
 BYTE   PAN   c_v+18
 BYTE   VOL   36*ChronoTriggerFrogsThemeRandomWizard_mvl/mxv
 BYTE   BEND   c_v+0
 BYTE   N05  Bn4  v127
 BYTE   W07
 BYTE   As4
 BYTE   W08
 BYTE   Bn4
 BYTE   W09
 BYTE   Cs5
 BYTE   W07
 BYTE   Bn4
 BYTE   W08
 BYTE   As4
 BYTE   W09
 BYTE   Bn4
 BYTE   W07
 BYTE   As4
 BYTE   W08
 BYTE   Bn4
 BYTE   W09
 BYTE   Gs4
 BYTE   W07
 BYTE   As4
 BYTE   W08
 BYTE   Bn4
 BYTE   W09
// 001   ----------------------------------------
Label_2_015D978C:
 BYTE   N05  Fs4  v127
 BYTE   W07
 BYTE   Gs4
 BYTE   W08
 BYTE   As4
 BYTE   W09
 BYTE   Bn4
 BYTE   W07
 BYTE   As4
 BYTE   W08
 BYTE   Bn4
 BYTE   W09
 BYTE   Cs5
 BYTE   W07
 BYTE   As4
 BYTE   W08
 BYTE   Gs4
 BYTE   W09
 BYTE   As4
 BYTE   W07
 BYTE   Gs4
 BYTE   W08
 BYTE   Fs4
 BYTE   W09
 BYTE   PEND 
// 002   ----------------------------------------
Label_2_015D97A7:
 BYTE   N05  Bn4  v127
 BYTE   W07
 BYTE   As4
 BYTE   W08
 BYTE   Bn4
 BYTE   W09
 BYTE   Cs5
 BYTE   W07
 BYTE   Bn4
 BYTE   W08
 BYTE   As4
 BYTE   W09
 BYTE   Bn4
 BYTE   W07
 BYTE   As4
 BYTE   W08
 BYTE   Bn4
 BYTE   W09
 BYTE   Gs4
 BYTE   W07
 BYTE   As4
 BYTE   W08
 BYTE   Bn4
 BYTE   W09
 BYTE   PEND 
 BYTE   PATT
  POIN2 Label_2_015D978C
 BYTE   PATT
  POIN2 Label_2_015D97A7
 BYTE   PATT
  POIN2 Label_2_015D978C
// 003   ----------------------------------------
Label_2_015D97D1:
 BYTE   N05  Bn4  v127
 BYTE   W07
 BYTE   As4
 BYTE   W08
 BYTE   Bn4
 BYTE   W09
 BYTE   Cs5
 BYTE   W07
 BYTE   Bn4
 BYTE   W08
 BYTE   As4
 BYTE   W09
 BYTE   Bn4
 BYTE   W07
 BYTE   As4
 BYTE   W08
 BYTE   Bn4
 BYTE   W09
 BYTE   Cs5
 BYTE   W07
 BYTE   Bn4
 BYTE   W08
 BYTE   An4
 BYTE   W09
 BYTE   PEND 
// 004   ----------------------------------------
Label_2_015D97EC:
 BYTE   N05  Gs4  v127
 BYTE   W08
 BYTE   Fs4
 BYTE   W08
 BYTE   Gs4
 BYTE   W08
 BYTE   N05
 BYTE   W08
 BYTE   Fs4
 BYTE   W08
 BYTE   Gs4
 BYTE   W08
 BYTE   N12
 BYTE   W44
 BYTE   W03
 BYTE   VOL   40*ChronoTriggerFrogsThemeRandomWizard_mvl/mxv
 BYTE   BEND   c_v-13
 BYTE   W01
 BYTE   PEND 
// 005   ----------------------------------------
Label_2_015D9803:
 BYTE   BEND   c_v-17
 BYTE   N16  Ds5  v127
 BYTE   W01
 BYTE   BEND   c_v-20
 BYTE   W01
 BYTE   En1
 BYTE   W01
 BYTE   Dn1
 BYTE   W01
 BYTE   Cs1
 BYTE   W03
 BYTE   Ds1
 BYTE   W01
 BYTE   Dn2
 BYTE   W01
 BYTE   Ds3
 BYTE   W01
 BYTE   Fn3
 BYTE   W06
 BYTE   N07
 BYTE   W08
 BYTE   N07
 BYTE   W08
 BYTE   Bn4
 BYTE   W08
 BYTE   Cs5
 BYTE   W08
 BYTE   N24  Ds5
 BYTE   W24
 BYTE   Gs5
 BYTE   W23
 BYTE   BEND   c_v-15
 BYTE   W01
 BYTE   PEND 
// 006   ----------------------------------------
Label_2_015D982B:
 BYTE   BEND   c_v-8
 BYTE   N44  Fs5  v127
 BYTE   W01
 BYTE   BEND   c_v-17
 BYTE   W01
 BYTE   Fn1
 BYTE   W02
 BYTE   En1
 BYTE   W02
 BYTE   Fn1
 BYTE   W01
 BYTE   Bn2
 BYTE   W01
 BYTE   Ds3
 BYTE   W40
 BYTE   N40  Ds5
 BYTE   W40
 BYTE   N08  Bn4
 BYTE   W07
 BYTE   BEND   c_v-8
 BYTE   W01
 BYTE   PEND 
// 007   ----------------------------------------
Label_2_015D9848:
 BYTE   BEND   c_v-19
 BYTE   N92  Gs4  v127
 BYTE   W01
 BYTE   BEND   c_v-20
 BYTE   W03
 BYTE   Cs2
 BYTE   W01
 BYTE   Cs2
 BYTE   W01
 BYTE   An2
 BYTE   W01
 BYTE   En3
 BYTE   W88
 BYTE   W01
 BYTE   PEND 
// 008   ----------------------------------------
Label_2_015D985B:
 BYTE   N05  Gs4  v127
 BYTE   W08
 BYTE   As4
 BYTE   W08
 BYTE   Bn4
 BYTE   W08
 BYTE   As4
 BYTE   W08
 BYTE   Bn4
 BYTE   W08
 BYTE   Cs5
 BYTE   W08
 BYTE   Bn4
 BYTE   W08
 BYTE   Cs5
 BYTE   W08
 BYTE   Ds5
 BYTE   W08
 BYTE   Cs5
 BYTE   W08
 BYTE   Ds5
 BYTE   W08
 BYTE   Fs5
 BYTE   W07
 BYTE   BEND   c_v-5
 BYTE   W01
 BYTE   PEND 
// 009   ----------------------------------------
Label_2_015D9879:
 BYTE   BEND   c_v-19
 BYTE   N16  Ds5  v127
 BYTE   W01
 BYTE   BEND   c_v-22
 BYTE   W02
 BYTE   Fn1
 BYTE   W03
 BYTE   Gs1
 BYTE   W01
 BYTE   Dn2
 BYTE   W01
 BYTE   Fn3
 BYTE   W01
 BYTE   Ds3
 BYTE   W07
 BYTE   N08
 BYTE   W08
 BYTE   N08
 BYTE   W08
 BYTE   Bn4
 BYTE   W08
 BYTE   Cs5
 BYTE   W08
 BYTE   N23  Ds5
 BYTE   W24
 BYTE   Gs5
 BYTE   W24
 BYTE   PEND 
// 010   ----------------------------------------
Label_2_015D989A:
 BYTE   BEND   c_v-16
 BYTE   N32  As5  v127
 BYTE   W01
 BYTE   BEND   c_v-19
 BYTE   W01
 BYTE   Fs1
 BYTE   W01
 BYTE   Fn1
 BYTE   W03
 BYTE   Gn1
 BYTE   W01
 BYTE   Gs1
 BYTE   W01
 BYTE   Dn2
 BYTE   W01
 BYTE   Fn3
 BYTE   W23
 BYTE   N08  Bn5
 BYTE   W08
 BYTE   As5
 BYTE   W08
 BYTE   N23  Gs5
 BYTE   W24
 BYTE   Fs5
 BYTE   W24
 BYTE   PEND 
// 011   ----------------------------------------
Label_2_015D98BA:
 BYTE   BEND   c_v-16
 BYTE   N92  Gs5  v127
 BYTE   W01
 BYTE   BEND   c_v-19
 BYTE   W01
 BYTE   Fn1
 BYTE   W01
 BYTE   En1
 BYTE   W01
 BYTE   Ds1
 BYTE   W03
 BYTE   Fn3
 BYTE   W01
 BYTE   Fn3
 BYTE   W88
 BYTE   PEND 
// 012   ----------------------------------------
Label_2_015D98CE:
 BYTE   BEND   c_v-17
 BYTE   N44  Gs5  v127
 BYTE   W01
 BYTE   BEND   c_v-18
 BYTE   W01
 BYTE   Gs1
 BYTE   W04
 BYTE   As1
 BYTE   W01
 BYTE   Bn1
 BYTE   W01
 BYTE   Gn2
 BYTE   W01
 BYTE   En3
 BYTE   W36
 BYTE   W03
 BYTE   Fn2
 BYTE   N44  As5
 BYTE   W01
 BYTE   BEND   c_v-15
 BYTE   W01
 BYTE   Gs1
 BYTE   W01
 BYTE   Fs1
 BYTE   W03
 BYTE   An1
 BYTE   W01
 BYTE   As1
 BYTE   W01
 BYTE   Fs3
 BYTE   W01
 BYTE   En3
 BYTE   W36
 BYTE   W03
 BYTE   PEND 
// 013   ----------------------------------------
Label_2_015D98F7:
 BYTE   BEND   c_v-15
 BYTE   N16  Bn5  v127
 BYTE   W01
 BYTE   BEND   c_v-21
 BYTE   W01
 BYTE   Fs1
 BYTE   W03
 BYTE   An1
 BYTE   W01
 BYTE   Dn2
 BYTE   W01
 BYTE   Fn2
 BYTE   W01
 BYTE   En3
 BYTE   W08
 BYTE   N08
 BYTE   W08
 BYTE   N07
 BYTE   W08
 BYTE   N08  As5
 BYTE   W08
 BYTE   Gs5
 BYTE   W08
 BYTE   N23  Fs5
 BYTE   W24
 BYTE   Ds5
 BYTE   W24
 BYTE   PEND 
// 014   ----------------------------------------
Label_2_015D9919:
 BYTE   BEND   c_v-14
 BYTE   N16  Gs5  v127
 BYTE   W01
 BYTE   BEND   c_v-17
 BYTE   W01
 BYTE   Fs1
 BYTE   W03
 BYTE   As1
 BYTE   W01
 BYTE   Ds3
 BYTE   W01
 BYTE   En3
 BYTE   W09
 BYTE   N08
 BYTE   W08
 BYTE   N08
 BYTE   W08
 BYTE   Fs5
 BYTE   W08
 BYTE   En5
 BYTE   W08
 BYTE   N44  Ds5
 BYTE   W48
 BYTE   PEND 
// 015   ----------------------------------------
Label_2_015D9936:
 BYTE   BEND   c_v-15
 BYTE   N16  Bn5  v127
 BYTE   W01
 BYTE   BEND   c_v-16
 BYTE   W01
 BYTE   An1
 BYTE   W03
 BYTE   Bn1
 BYTE   W01
 BYTE   Ds2
 BYTE   W01
 BYTE   Gs3
 BYTE   W01
 BYTE   En3
 BYTE   W08
 BYTE   N08
 BYTE   W08
 BYTE   N07
 BYTE   W08
 BYTE   As5
 BYTE   W08
 BYTE   Bn5
 BYTE   W08
 BYTE   N23  Cs6
 BYTE   W24
 BYTE   As5
 BYTE   W24
 BYTE   PEND 
// 016   ----------------------------------------
Label_2_015D9957:
 BYTE   BEND   c_v-6
 BYTE   N44  Gs5  v127
 BYTE   W01
 BYTE   BEND   c_v-16
 BYTE   W01
 BYTE   Gs1
 BYTE   W01
 BYTE   Dn1
 BYTE   W03
 BYTE   Gn1
 BYTE   W01
 BYTE   Ds2
 BYTE   W01
 BYTE   As3
 BYTE   W01
 BYTE   En3
 BYTE   W36
 BYTE   W02
 BYTE   As2
 BYTE   W01
 BYTE   As1
 BYTE   N44  As5
 BYTE   W01
 BYTE   BEND   c_v-21
 BYTE   W01
 BYTE   Fn1
 BYTE   W01
 BYTE   En1
 BYTE   W03
 BYTE   Fs1
 BYTE   W01
 BYTE   Ds2
 BYTE   W01
 BYTE   Bn2
 BYTE   W01
 BYTE   En3
 BYTE   W36
 BYTE   W02
 BYTE   Fs2
 BYTE   W01
 BYTE   PEND 
// 017   ----------------------------------------
Label_2_015D9986:
 BYTE   BEND   c_v-14
 BYTE   N16  Bn5  v127
 BYTE   W01
 BYTE   BEND   c_v-17
 BYTE   W01
 BYTE   An1
 BYTE   W01
 BYTE   Gs1
 BYTE   W02
 BYTE   An1
 BYTE   W01
 BYTE   As1
 BYTE   W01
 BYTE   Ds2
 BYTE   W01
 BYTE   En3
 BYTE   W08
 BYTE   N08
 BYTE   W08
 BYTE   N07
 BYTE   W08
 BYTE   As5
 BYTE   W08
 BYTE   Gs5
 BYTE   W08
 BYTE   N23  Fs5
 BYTE   W24
 BYTE   Ds5
 BYTE   W23
 BYTE   BEND   c_v-3
 BYTE   W01
 BYTE   PEND 
// 018   ----------------------------------------
Label_2_015D99AC:
 BYTE   BEND   c_v-13
 BYTE   N16  Gs5  v127
 BYTE   W01
 BYTE   BEND   c_v-18
 BYTE   W01
 BYTE   Gn1
 BYTE   W01
 BYTE   Fs1
 BYTE   W04
 BYTE   An1
 BYTE   W01
 BYTE   En3
 BYTE   W08
 BYTE   N08
 BYTE   W08
 BYTE   N07
 BYTE   W08
 BYTE   Fs5
 BYTE   W08
 BYTE   En5
 BYTE   W08
 BYTE   N44  Ds5
 BYTE   W44
 BYTE   W02
 BYTE   BEND   c_v+0
 BYTE   W01
 BYTE   An1
 BYTE   W01
 BYTE   PEND 
// 019   ----------------------------------------
Label_2_015D99CF:
 BYTE   BEND   c_v-21
 BYTE   N16  Bn5  v127
 BYTE   W01
 BYTE   BEND   c_v-23
 BYTE   W05
 BYTE   Gn1
 BYTE   W01
 BYTE   En3
 BYTE   W09
 BYTE   N08
 BYTE   W08
 BYTE   N07
 BYTE   W08
 BYTE   As5
 BYTE   W08
 BYTE   Bn5
 BYTE   W08
 BYTE   N23  Cs6
 BYTE   W24
 BYTE   As5
 BYTE   W24
 BYTE   PEND 
// 020   ----------------------------------------
 BYTE   N05  Gs5
 BYTE   W08
 BYTE   Fs5
 BYTE   W08
 BYTE   Gs5
 BYTE   W08
 BYTE   N05
 BYTE   W08
 BYTE   Fs5
 BYTE   W08
 BYTE   Gs5
 BYTE   W08
 BYTE   N12
 BYTE   W48
// 021   ----------------------------------------
 BYTE   VOL   36*ChronoTriggerFrogsThemeRandomWizard_mvl/mxv
 BYTE   N05  Bn4
 BYTE   W07
 BYTE   As4
 BYTE   W08
 BYTE   Bn4
 BYTE   W09
 BYTE   Cs5
 BYTE   W07
 BYTE   Bn4
 BYTE   W08
 BYTE   As4
 BYTE   W09
 BYTE   Bn4
 BYTE   W07
 BYTE   As4
 BYTE   W08
 BYTE   Bn4
 BYTE   W09
 BYTE   Gs4
 BYTE   W07
 BYTE   As4
 BYTE   W08
 BYTE   Bn4
 BYTE   W09
 BYTE   PATT
  POIN2 Label_2_015D978C
 BYTE   PATT
  POIN2 Label_2_015D97A7
 BYTE   PATT
  POIN2 Label_2_015D978C
 BYTE   PATT
  POIN2 Label_2_015D97A7
 BYTE   PATT
  POIN2 Label_2_015D978C
 BYTE   PATT
  POIN2 Label_2_015D97D1
 BYTE   PATT
  POIN2 Label_2_015D97EC
 BYTE   PATT
  POIN2 Label_2_015D9803
 BYTE   PATT
  POIN2 Label_2_015D982B
 BYTE   PATT
  POIN2 Label_2_015D9848
 BYTE   PATT
  POIN2 Label_2_015D985B
 BYTE   PATT
  POIN2 Label_2_015D9879
 BYTE   PATT
  POIN2 Label_2_015D989A
 BYTE   PATT
  POIN2 Label_2_015D98BA
 BYTE   PATT
  POIN2 Label_2_015D98CE
 BYTE   PATT
  POIN2 Label_2_015D98F7
 BYTE   PATT
  POIN2 Label_2_015D9919
 BYTE   PATT
  POIN2 Label_2_015D9936
 BYTE   PATT
  POIN2 Label_2_015D9957
 BYTE   PATT
  POIN2 Label_2_015D9986
 BYTE   PATT
  POIN2 Label_2_015D99AC
 BYTE   PATT
  POIN2 Label_2_015D99CF
// 022   ----------------------------------------
 BYTE   N05  Gs5  v127
 BYTE   W08
 BYTE   Fs5
 BYTE   W08
 BYTE   Gs5
 BYTE   W08
 BYTE   N05
 BYTE   W08
 BYTE   Fs5
 BYTE   W08
 BYTE   Gs5
 BYTE   W08
 BYTE   N12
 BYTE   W44
 BYTE   W03
 BYTE   GoTo
  POIN2 Label_2_015D976A
 BYTE   FINE

//**************** Track 4 (Midi-Chn.3) ****************//

ChronoTriggerFrogsThemeRandomWizard_004:
// 000   ----------------------------------------
 BYTE   KEYSH   ChronoTriggerFrogsThemeRandomWizard_key+0
Label_3_015D9A9E:
 BYTE   VOICE   47
 BYTE   VOL   36*ChronoTriggerFrogsThemeRandomWizard_mvl/mxv
 BYTE   PAN   c_v-20
 BYTE   N23  Gs1  v127
 BYTE   W24
 BYTE   N23
 BYTE   W24
 BYTE   N23
 BYTE   W24
 BYTE   N07
 BYTE   W07
 BYTE   N07
 BYTE   W08
 BYTE   N07
 BYTE   W09
// 001   ----------------------------------------
Label_3_015D9AB2:
 BYTE   N23  Fs1  v127
 BYTE   W24
 BYTE   N23
 BYTE   W24
 BYTE   N23
 BYTE   W24
 BYTE   N07
 BYTE   W07
 BYTE   N07
 BYTE   W08
 BYTE   N07
 BYTE   W09
 BYTE   PEND 
// 002   ----------------------------------------
Label_3_015D9AC1:
 BYTE   N23  En1  v127
 BYTE   W24
 BYTE   N23
 BYTE   W24
 BYTE   N23
 BYTE   W24
 BYTE   N06
 BYTE   W07
 BYTE   N07
 BYTE   W08
 BYTE   N07
 BYTE   W09
 BYTE   PEND 
 BYTE   PATT
  POIN2 Label_3_015D9AB2
// 003   ----------------------------------------
Label_3_015D9AD5:
 BYTE   N23  Gs1  v127
 BYTE   W24
 BYTE   N23
 BYTE   W24
 BYTE   N23
 BYTE   W24
 BYTE   N07
 BYTE   W07
 BYTE   N07
 BYTE   W08
 BYTE   N07
 BYTE   W09
 BYTE   PEND 
 BYTE   PATT
  POIN2 Label_3_015D9AB2
// 004   ----------------------------------------
Label_3_015D9AE9:
 BYTE   N23  En1  v127
 BYTE   W24
 BYTE   N23
 BYTE   W24
 BYTE   Fs1
 BYTE   W24
 BYTE   N07
 BYTE   W07
 BYTE   N07
 BYTE   W08
 BYTE   N07
 BYTE   W09
 BYTE   PEND 
// 005   ----------------------------------------
Label_3_015D9AF8:
 BYTE   N07  Gs1  v127
 BYTE   W08
 BYTE   Fs1
 BYTE   W07
 BYTE   Gs1
 BYTE   W09
 BYTE   N07
 BYTE   W08
 BYTE   Fs1
 BYTE   W08
 BYTE   Gs1
 BYTE   W08
 BYTE   N12
 BYTE   W48
 BYTE   PEND 
// 006   ----------------------------------------
Label_3_015D9B09:
 BYTE   N23  Gs1  v127
 BYTE   W24
 BYTE   N08
 BYTE   W08
 BYTE   N08
 BYTE   W08
 BYTE   N08
 BYTE   W08
 BYTE   N23
 BYTE   W24
 BYTE   N24
 BYTE   W24
 BYTE   PEND 
// 007   ----------------------------------------
Label_3_015D9B18:
 BYTE   N23  Bn1  v127
 BYTE   W24
 BYTE   N08
 BYTE   W08
 BYTE   N08
 BYTE   W08
 BYTE   N08
 BYTE   W08
 BYTE   N23
 BYTE   W24
 BYTE   N23
 BYTE   W24
 BYTE   PEND 
// 008   ----------------------------------------
Label_3_015D9B27:
 BYTE   N23  En1  v127
 BYTE   W24
 BYTE   N08
 BYTE   W08
 BYTE   N08
 BYTE   W08
 BYTE   N08
 BYTE   W08
 BYTE   N23
 BYTE   W24
 BYTE   N24
 BYTE   W24
 BYTE   PEND 
// 009   ----------------------------------------
Label_3_015D9B36:
 BYTE   N23  Fs1  v127
 BYTE   W24
 BYTE   N08
 BYTE   W08
 BYTE   N08
 BYTE   W08
 BYTE   N08
 BYTE   W08
 BYTE   N23
 BYTE   W24
 BYTE   N24
 BYTE   W24
 BYTE   PEND 
 BYTE   PATT
  POIN2 Label_3_015D9B09
 BYTE   PATT
  POIN2 Label_3_015D9B36
 BYTE   PATT
  POIN2 Label_3_015D9B27
// 010   ----------------------------------------
Label_3_015D9B54:
 BYTE   N23  Fn1  v127
 BYTE   W24
 BYTE   N08
 BYTE   W08
 BYTE   N08
 BYTE   W08
 BYTE   N08
 BYTE   W08
 BYTE   N23
 BYTE   W24
 BYTE   N24
 BYTE   W24
 BYTE   PEND 
// 011   ----------------------------------------
Label_3_015D9B63:
 BYTE   N23  En1  v127
 BYTE   W24
 BYTE   N16
 BYTE   W16
 BYTE   N08
 BYTE   W08
 BYTE   N23  Bn1
 BYTE   W24
 BYTE   N24
 BYTE   W24
 BYTE   PEND 
// 012   ----------------------------------------
Label_3_015D9B71:
 BYTE   N23  En1  v127
 BYTE   W24
 BYTE   N16
 BYTE   W16
 BYTE   N08
 BYTE   W08
 BYTE   N23  Gs1
 BYTE   W24
 BYTE   N24
 BYTE   W24
 BYTE   PEND 
// 013   ----------------------------------------
Label_3_015D9B7F:
 BYTE   N23  En1  v127
 BYTE   W24
 BYTE   N16
 BYTE   W16
 BYTE   N08
 BYTE   W08
 BYTE   N23  Fs1
 BYTE   W24
 BYTE   N23
 BYTE   W24
 BYTE   PEND 
// 014   ----------------------------------------
Label_3_015D9B8D:
 BYTE   N23  Fn1  v127
 BYTE   W24
 BYTE   N23
 BYTE   W24
 BYTE   Fs1
 BYTE   W24
 BYTE   N23
 BYTE   W24
 BYTE   PEND 
 BYTE   PATT
  POIN2 Label_3_015D9B7F
// 015   ----------------------------------------
Label_3_015D9B9D:
 BYTE   N23  En1  v127
 BYTE   W24
 BYTE   N16
 BYTE   W16
 BYTE   N08
 BYTE   W08
 BYTE   N23  Gs1
 BYTE   W24
 BYTE   N23
 BYTE   W24
 BYTE   PEND 
 BYTE   PATT
  POIN2 Label_3_015D9B7F
 BYTE   PATT
  POIN2 Label_3_015D9AF8
 BYTE   PATT
  POIN2 Label_3_015D9AD5
 BYTE   PATT
  POIN2 Label_3_015D9AB2
 BYTE   PATT
  POIN2 Label_3_015D9AC1
 BYTE   PATT
  POIN2 Label_3_015D9AB2
 BYTE   PATT
  POIN2 Label_3_015D9AD5
 BYTE   PATT
  POIN2 Label_3_015D9AB2
 BYTE   PATT
  POIN2 Label_3_015D9AE9
 BYTE   PATT
  POIN2 Label_3_015D9AF8
 BYTE   PATT
  POIN2 Label_3_015D9B09
 BYTE   PATT
  POIN2 Label_3_015D9B18
 BYTE   PATT
  POIN2 Label_3_015D9B27
 BYTE   PATT
  POIN2 Label_3_015D9B36
 BYTE   PATT
  POIN2 Label_3_015D9B09
 BYTE   PATT
  POIN2 Label_3_015D9B36
 BYTE   PATT
  POIN2 Label_3_015D9B27
 BYTE   PATT
  POIN2 Label_3_015D9B54
 BYTE   PATT
  POIN2 Label_3_015D9B63
 BYTE   PATT
  POIN2 Label_3_015D9B71
 BYTE   PATT
  POIN2 Label_3_015D9B7F
 BYTE   PATT
  POIN2 Label_3_015D9B8D
 BYTE   PATT
  POIN2 Label_3_015D9B7F
 BYTE   PATT
  POIN2 Label_3_015D9B9D
 BYTE   PATT
  POIN2 Label_3_015D9B7F
// 016   ----------------------------------------
 BYTE   N07  Gs1  v127
 BYTE   W08
 BYTE   Fs1
 BYTE   W07
 BYTE   Gs1
 BYTE   W09
 BYTE   N07
 BYTE   W08
 BYTE   Fs1
 BYTE   W08
 BYTE   Gs1
 BYTE   W08
 BYTE   N12
 BYTE   W44
 BYTE   W03
 BYTE   GoTo
  POIN2 Label_3_015D9A9E
 BYTE   FINE

//**************** Track 5 (Midi-Chn.4) ****************//

ChronoTriggerFrogsThemeRandomWizard_005:
// 000   ----------------------------------------
 BYTE   KEYSH   ChronoTriggerFrogsThemeRandomWizard_key+0
Label_4_015D9C42:
 BYTE   VOICE   32
 BYTE   VOL   28*ChronoTriggerFrogsThemeRandomWizard_mvl/mxv
 BYTE   PAN   c_v+10
 BYTE   N24  Gs0  v100
 BYTE   W24
 BYTE   N24
 BYTE   W24
 BYTE   N24
 BYTE   W24
 BYTE   N24
 BYTE   W24
// 001   ----------------------------------------
Label_4_015D9C52:
 BYTE   N24  Fs0  v100
 BYTE   W24
 BYTE   N24
 BYTE   W24
 BYTE   N24
 BYTE   W24
 BYTE   N24
 BYTE   W24
 BYTE   PEND 
// 002   ----------------------------------------
Label_4_015D9C5D:
 BYTE   N24  En0  v127
 BYTE   W24
 BYTE   N24
 BYTE   W24
 BYTE   N24
 BYTE   W24
 BYTE   N24
 BYTE   W24
 BYTE   PEND 
// 003   ----------------------------------------
Label_4_015D9C68:
 BYTE   N24  Fs0  v127
 BYTE   W24
 BYTE   N24
 BYTE   W24
 BYTE   N24
 BYTE   W24
 BYTE   N24
 BYTE   W24
 BYTE   PEND 
// 004   ----------------------------------------
Label_4_015D9C73:
 BYTE   N24  Gs0  v100
 BYTE   W24
 BYTE   N24
 BYTE   W24
 BYTE   N24
 BYTE   W24
 BYTE   N24
 BYTE   W24
 BYTE   PEND 
 BYTE   PATT
  POIN2 Label_4_015D9C52
// 005   ----------------------------------------
Label_4_015D9C83:
 BYTE   N24  En0  v100
 BYTE   W24
 BYTE   N24
 BYTE   W24
 BYTE   Fs0
 BYTE   W24
 BYTE   N24
 BYTE   W24
 BYTE   PEND 
// 006   ----------------------------------------
Label_4_015D9C8E:
 BYTE   N05  Gs0  v100
 BYTE   W08
 BYTE   Fs0
 BYTE   W08
 BYTE   Gs0
 BYTE   W08
 BYTE   N05
 BYTE   W08
 BYTE   Fs0
 BYTE   W08
 BYTE   Gs0
 BYTE   W08
 BYTE   N12
 BYTE   W48
 BYTE   PEND 
// 007   ----------------------------------------
Label_4_015D9C9F:
 BYTE   N24  Gs0  v127
 BYTE   W24
 BYTE   N24
 BYTE   W24
 BYTE   N24
 BYTE   W24
 BYTE   N24
 BYTE   W24
 BYTE   PEND 
// 008   ----------------------------------------
Label_4_015D9CAA:
 BYTE   N24  Bn0  v127
 BYTE   W24
 BYTE   N24
 BYTE   W24
 BYTE   N24
 BYTE   W24
 BYTE   N24
 BYTE   W24
 BYTE   PEND 
 BYTE   PATT
  POIN2 Label_4_015D9C5D
 BYTE   PATT
  POIN2 Label_4_015D9C68
 BYTE   PATT
  POIN2 Label_4_015D9C9F
 BYTE   PATT
  POIN2 Label_4_015D9C68
 BYTE   PATT
  POIN2 Label_4_015D9C5D
// 009   ----------------------------------------
Label_4_015D9CCE:
 BYTE   N24  Fn0  v127
 BYTE   W24
 BYTE   N24
 BYTE   W24
 BYTE   N24
 BYTE   W24
 BYTE   N24
 BYTE   W24
 BYTE   PEND 
// 010   ----------------------------------------
Label_4_015D9CD9:
 BYTE   N24  En0  v127
 BYTE   W24
 BYTE   N24
 BYTE   W24
 BYTE   Bn0
 BYTE   W24
 BYTE   N24
 BYTE   W24
 BYTE   PEND 
// 011   ----------------------------------------
Label_4_015D9CE4:
 BYTE   N24  En0  v127
 BYTE   W24
 BYTE   N24
 BYTE   W24
 BYTE   Gs0
 BYTE   W24
 BYTE   N24
 BYTE   W24
 BYTE   PEND 
// 012   ----------------------------------------
Label_4_015D9CEF:
 BYTE   N24  En0  v127
 BYTE   W24
 BYTE   N24
 BYTE   W24
 BYTE   Fs0
 BYTE   W24
 BYTE   N24
 BYTE   W24
 BYTE   PEND 
// 013   ----------------------------------------
Label_4_015D9CFA:
 BYTE   N23  Fn0  v127
 BYTE   W24
 BYTE   N23
 BYTE   W24
 BYTE   Fs0
 BYTE   W24
 BYTE   N23
 BYTE   W24
 BYTE   PEND 
 BYTE   PATT
  POIN2 Label_4_015D9CEF
 BYTE   PATT
  POIN2 Label_4_015D9CE4
 BYTE   PATT
  POIN2 Label_4_015D9CEF
 BYTE   PATT
  POIN2 Label_4_015D9C8E
 BYTE   PATT
  POIN2 Label_4_015D9C73
 BYTE   PATT
  POIN2 Label_4_015D9C52
 BYTE   PATT
  POIN2 Label_4_015D9C5D
 BYTE   PATT
  POIN2 Label_4_015D9C68
 BYTE   PATT
  POIN2 Label_4_015D9C73
 BYTE   PATT
  POIN2 Label_4_015D9C52
 BYTE   PATT
  POIN2 Label_4_015D9C83
 BYTE   PATT
  POIN2 Label_4_015D9C8E
 BYTE   PATT
  POIN2 Label_4_015D9C9F
 BYTE   PATT
  POIN2 Label_4_015D9CAA
 BYTE   PATT
  POIN2 Label_4_015D9C5D
 BYTE   PATT
  POIN2 Label_4_015D9C68
 BYTE   PATT
  POIN2 Label_4_015D9C9F
 BYTE   PATT
  POIN2 Label_4_015D9C68
 BYTE   PATT
  POIN2 Label_4_015D9C5D
 BYTE   PATT
  POIN2 Label_4_015D9CCE
 BYTE   PATT
  POIN2 Label_4_015D9CD9
 BYTE   PATT
  POIN2 Label_4_015D9CE4
 BYTE   PATT
  POIN2 Label_4_015D9CEF
 BYTE   PATT
  POIN2 Label_4_015D9CFA
 BYTE   PATT
  POIN2 Label_4_015D9CEF
 BYTE   PATT
  POIN2 Label_4_015D9CE4
 BYTE   PATT
  POIN2 Label_4_015D9CEF
// 014   ----------------------------------------
 BYTE   N05  Gs0  v100
 BYTE   W08
 BYTE   Fs0
 BYTE   W08
 BYTE   Gs0
 BYTE   W08
 BYTE   N05
 BYTE   W08
 BYTE   Fs0
 BYTE   W08
 BYTE   Gs0
 BYTE   W08
 BYTE   N12
 BYTE   W44
 BYTE   W03
 BYTE   GoTo
  POIN2 Label_4_015D9C42
 BYTE   FINE

//**************** Track 6 (Midi-Chn.5) ****************//

ChronoTriggerFrogsThemeRandomWizard_006:
// 000   ----------------------------------------
 BYTE   KEYSH   ChronoTriggerFrogsThemeRandomWizard_key+0
Label_5_015D9DA6:
 BYTE   VOICE   127
 BYTE   VOL   31*ChronoTriggerFrogsThemeRandomWizard_mvl/mxv
 BYTE   PAN   c_v+0
 BYTE   N24  Dn1  v127
 BYTE   N96  Cs2
 BYTE   W24
 BYTE   N07  Dn1
 BYTE   W07
 BYTE   N07
 BYTE   W08
 BYTE   N07
 BYTE   W09
 BYTE   N15
 BYTE   W15
 BYTE   N07
 BYTE   W09
 BYTE   N07
 BYTE   W07
 BYTE   N07
 BYTE   W08
 BYTE   N07
 BYTE   W09
// 001   ----------------------------------------
Label_5_015D9DC3:
 BYTE   N24  Dn1  v127
 BYTE   N96  Cs2
 BYTE   W24
 BYTE   N07  Dn1
 BYTE   W07
 BYTE   N07
 BYTE   W08
 BYTE   N07
 BYTE   W09
 BYTE   N15
 BYTE   W15
 BYTE   N07
 BYTE   W09
 BYTE   N07
 BYTE   W07
 BYTE   N07
 BYTE   W08
 BYTE   N07
 BYTE   W09
 BYTE   PEND 
 BYTE   PATT
  POIN2 Label_5_015D9DC3
 BYTE   PATT
  POIN2 Label_5_015D9DC3
 BYTE   PATT
  POIN2 Label_5_015D9DC3
 BYTE   PATT
  POIN2 Label_5_015D9DC3
 BYTE   PATT
  POIN2 Label_5_015D9DC3
// 002   ----------------------------------------
Label_5_015D9DF4:
 BYTE   N05  Dn1  v127
 BYTE   N72  Cs2
 BYTE   W08
 BYTE   N05  Dn1
 BYTE   W08
 BYTE   N05
 BYTE   W08
 BYTE   N05
 BYTE   W08
 BYTE   N05
 BYTE   W08
 BYTE   N05
 BYTE   W08
 BYTE   N12
 BYTE   W24
 BYTE   N23  Cs2
 BYTE   W24
 BYTE   PEND 
 BYTE   PATT
  POIN2 Label_5_015D9DC3
 BYTE   PATT
  POIN2 Label_5_015D9DC3
 BYTE   PATT
  POIN2 Label_5_015D9DC3
 BYTE   PATT
  POIN2 Label_5_015D9DC3
 BYTE   PATT
  POIN2 Label_5_015D9DC3
 BYTE   PATT
  POIN2 Label_5_015D9DC3
 BYTE   PATT
  POIN2 Label_5_015D9DC3
 BYTE   PATT
  POIN2 Label_5_015D9DC3
 BYTE   PATT
  POIN2 Label_5_015D9DC3
 BYTE   PATT
  POIN2 Label_5_015D9DC3
 BYTE   PATT
  POIN2 Label_5_015D9DC3
 BYTE   PATT
  POIN2 Label_5_015D9DC3
 BYTE   PATT
  POIN2 Label_5_015D9DC3
 BYTE   PATT
  POIN2 Label_5_015D9DC3
 BYTE   PATT
  POIN2 Label_5_015D9DC3
 BYTE   PATT
  POIN2 Label_5_015D9DF4
 BYTE   PATT
  POIN2 Label_5_015D9DC3
 BYTE   PATT
  POIN2 Label_5_015D9DC3
 BYTE   PATT
  POIN2 Label_5_015D9DC3
 BYTE   PATT
  POIN2 Label_5_015D9DC3
 BYTE   PATT
  POIN2 Label_5_015D9DC3
 BYTE   PATT
  POIN2 Label_5_015D9DC3
 BYTE   PATT
  POIN2 Label_5_015D9DC3
 BYTE   PATT
  POIN2 Label_5_015D9DF4
 BYTE   PATT
  POIN2 Label_5_015D9DC3
 BYTE   PATT
  POIN2 Label_5_015D9DC3
 BYTE   PATT
  POIN2 Label_5_015D9DC3
 BYTE   PATT
  POIN2 Label_5_015D9DC3
 BYTE   PATT
  POIN2 Label_5_015D9DC3
 BYTE   PATT
  POIN2 Label_5_015D9DC3
 BYTE   PATT
  POIN2 Label_5_015D9DC3
 BYTE   PATT
  POIN2 Label_5_015D9DC3
 BYTE   PATT
  POIN2 Label_5_015D9DC3
 BYTE   PATT
  POIN2 Label_5_015D9DC3
 BYTE   PATT
  POIN2 Label_5_015D9DC3
 BYTE   PATT
  POIN2 Label_5_015D9DC3
 BYTE   PATT
  POIN2 Label_5_015D9DC3
 BYTE   PATT
  POIN2 Label_5_015D9DC3
 BYTE   PATT
  POIN2 Label_5_015D9DC3
// 003   ----------------------------------------
 BYTE   N05  Dn1  v127
 BYTE   N72  Cs2
 BYTE   W08
 BYTE   N05  Dn1
 BYTE   W08
 BYTE   N05
 BYTE   W08
 BYTE   N05
 BYTE   W08
 BYTE   N05
 BYTE   W08
 BYTE   N05
 BYTE   W08
 BYTE   N12
 BYTE   W24
 BYTE   N23  Cs2
 BYTE   W23
 BYTE   GoTo
  POIN2 Label_5_015D9DA6
 BYTE   FINE

//******************************************************//
	ALIGN 4

ChronoTriggerFrogsThemeRandomWizard:
	BYTE	6	// NumTrks
	BYTE	0	// NumBlks
	BYTE	ChronoTriggerFrogsThemeRandomWizard_pri	// Priority
	BYTE	ChronoTriggerFrogsThemeRandomWizard_rev	// Reverb.
    
	POIN2	ChronoTriggerFrogsThemeRandomWizard_grp
    
	POIN2	ChronoTriggerFrogsThemeRandomWizard_001
	POIN2	ChronoTriggerFrogsThemeRandomWizard_002
	POIN2	ChronoTriggerFrogsThemeRandomWizard_003
	POIN2	ChronoTriggerFrogsThemeRandomWizard_004
	POIN2	ChronoTriggerFrogsThemeRandomWizard_005
	POIN2	ChronoTriggerFrogsThemeRandomWizard_006

	
