//Event file generated from Sappy .s format.
	#include "MPlayDef.event"

	#define	AdvanceWarsDualStrikeJavierLemonTart_grp  voicegroup000
	#define	AdvanceWarsDualStrikeJavierLemonTart_pri  0
	#define	AdvanceWarsDualStrikeJavierLemonTart_rev  0
	#define	AdvanceWarsDualStrikeJavierLemonTart_mvl  127
	#define	AdvanceWarsDualStrikeJavierLemonTart_key  0
	#define	AdvanceWarsDualStrikeJavierLemonTart_tbs  1
	#define	AdvanceWarsDualStrikeJavierLemonTart_exg  0
	#define	AdvanceWarsDualStrikeJavierLemonTart_cmp  1

	// .rodata
	//	AdvanceWarsDualStrikeJavierLemonTart
	ALIGN 4


//**************** Track 1 (Midi-Chn.0) ****************//

AdvanceWarsDualStrikeJavierLemonTart_001:
// 000   ----------------------------------------
 BYTE   KEYSH   AdvanceWarsDualStrikeJavierLemonTart_key+0
 BYTE   TEMPO   162*AdvanceWarsDualStrikeJavierLemonTart_tbs/2
 BYTE   VOICE   0
 BYTE   VOL   53*AdvanceWarsDualStrikeJavierLemonTart_mvl/mxv
 BYTE   PAN   c_v+19
 BYTE   W24
 BYTE   W96
// 001   ----------------------------------------
 BYTE   W96
// 002   ----------------------------------------
 BYTE   W96
// 003   ----------------------------------------
 BYTE   W96
// 004   ----------------------------------------
 BYTE   W96
// 005   ----------------------------------------
 BYTE   W96
// 006   ----------------------------------------
 BYTE   W96
// 007   ----------------------------------------
 BYTE   W96
// 008   ----------------------------------------
 BYTE   W96
// 009   ----------------------------------------
 BYTE   W96
// 010   ----------------------------------------
 BYTE   W96
// 011   ----------------------------------------
 BYTE   W96
// 012   ----------------------------------------
Label_0_012BD95B:
 BYTE   W72
 BYTE   N06  Fn1  v088
 BYTE   N06  Fn2  v092
 BYTE   W06
 BYTE   Fn1  v048
 BYTE   N06  Fn2  v056
 BYTE   W06
 BYTE   Gn2  v096
 BYTE   N06  Bn2  v092
 BYTE   W06
 BYTE   Gn2  v052
 BYTE   N06  Bn2  v056
 BYTE   W06
 BYTE   PEND 
// 013   ----------------------------------------
Label_0_012BD976:
 BYTE   N06  An2  v096
 BYTE   N06  Cn3  v092
 BYTE   W06
 BYTE   An2  v056
 BYTE   N06  Cn3
 BYTE   W06
 BYTE   Fn1  v080
 BYTE   N06  Fn2  v088
 BYTE   W06
 BYTE   Fn1  v040
 BYTE   N06  Fn2  v052
 BYTE   W06
 BYTE   Gn2  v096
 BYTE   N06  Bn2  v088
 BYTE   W06
 BYTE   Gn2  v056
 BYTE   N06  Bn2  v052
 BYTE   W06
 BYTE   An2  v104
 BYTE   N06  Cn3  v092
 BYTE   W06
 BYTE   An2  v064
 BYTE   N06  Cn3  v056
 BYTE   W06
 BYTE   Bn2  v096
 BYTE   N06  Dn3  v088
 BYTE   W06
 BYTE   Bn2  v056
 BYTE   N06  Dn3  v052
 BYTE   W06
 BYTE   Cn3  v104
 BYTE   N06  En3  v096
 BYTE   W06
 BYTE   Cn3  v064
 BYTE   N06  En3  v060
 BYTE   W06
 BYTE   Fn1  v084
 BYTE   N06  Fn2  v096
 BYTE   W06
 BYTE   Fn1  v044
 BYTE   N06  Fn2  v056
 BYTE   W06
 BYTE   Gn3  v100
 BYTE   N06  Bn3
 BYTE   W06
 BYTE   Gn3  v056
 BYTE   N06  Bn3  v060
 BYTE   W06
 BYTE   PEND 
// 014   ----------------------------------------
 BYTE   An3  v100
 BYTE   N06  Cn4  v092
 BYTE   W06
 BYTE   An3  v060
 BYTE   N06  Cn4  v052
 BYTE   W06
 BYTE   Bn3  v084
 BYTE   N06  Dn4  v080
 BYTE   W06
 BYTE   Bn3  v044
 BYTE   N06  Dn4  v040
 BYTE   W06
 BYTE   Cn4  v076
 BYTE   N06  En4  v080
 BYTE   W06
 BYTE   Cn4  v036
 BYTE   N06  En4  v040
 BYTE   W06
 BYTE   Bn3  v092
 BYTE   N06  Dn4  v084
 BYTE   W06
 BYTE   Bn3  v052
 BYTE   N06  Dn4  v044
 BYTE   W06
 BYTE   An3  v096
 BYTE   N06  Cn4  v092
 BYTE   W06
 BYTE   An3  v056
 BYTE   N06  Cn4  v052
 BYTE   W06
 BYTE   Gn3  v104
 BYTE   N06  Bn3
 BYTE   W06
 BYTE   Gn3  v064
 BYTE   N06  Bn3  v060
 BYTE   W30
// 015   ----------------------------------------
 BYTE   W96
// 016   ----------------------------------------
 BYTE   W96
// 017   ----------------------------------------
 BYTE   W96
// 018   ----------------------------------------
 BYTE   W96
// 019   ----------------------------------------
 BYTE   W96
// 020   ----------------------------------------
 BYTE   W96
// 021   ----------------------------------------
 BYTE   W96
// 022   ----------------------------------------
 BYTE   W96
// 023   ----------------------------------------
 BYTE   W96
// 024   ----------------------------------------
 BYTE   W96
// 025   ----------------------------------------
 BYTE   W96
// 026   ----------------------------------------
 BYTE   W96
// 027   ----------------------------------------
 BYTE   W96
// 028   ----------------------------------------
 BYTE   W96
// 029   ----------------------------------------
 BYTE   W96
// 030   ----------------------------------------
 BYTE   W96
// 031   ----------------------------------------
 BYTE   W96
// 032   ----------------------------------------
 BYTE   W96
// 033   ----------------------------------------
 BYTE   W96
// 034   ----------------------------------------
 BYTE   W96
// 035   ----------------------------------------
 BYTE   W96
// 036   ----------------------------------------
 BYTE   W96
// 037   ----------------------------------------
 BYTE   W96
// 038   ----------------------------------------
 BYTE   W96
// 039   ----------------------------------------
 BYTE   W96
// 040   ----------------------------------------
 BYTE   W96
// 041   ----------------------------------------
 BYTE   W96
// 042   ----------------------------------------
 BYTE   W96
// 043   ----------------------------------------
 BYTE   W96
// 044   ----------------------------------------
 BYTE   W96
// 045   ----------------------------------------
 BYTE   W96
// 046   ----------------------------------------
 BYTE   W96
// 047   ----------------------------------------
 BYTE   W96
 BYTE   PATT
  POIN2 Label_0_012BD95B
 BYTE   PATT
  POIN2 Label_0_012BD976
// 048   ----------------------------------------
 BYTE   N06  An3  v100
 BYTE   N06  Cn4  v092
 BYTE   W06
 BYTE   An3  v060
 BYTE   N06  Cn4  v052
 BYTE   W06
 BYTE   Bn3  v084
 BYTE   N06  Dn4  v080
 BYTE   W06
 BYTE   Bn3  v044
 BYTE   N06  Dn4  v040
 BYTE   W06
 BYTE   Cn4  v076
 BYTE   N06  En4  v080
 BYTE   W06
 BYTE   Cn4  v036
 BYTE   N06  En4  v040
 BYTE   W06
 BYTE   Bn3  v092
 BYTE   N06  Dn4  v084
 BYTE   W06
 BYTE   Bn3  v052
 BYTE   N06  Dn4  v044
 BYTE   W06
 BYTE   An3  v096
 BYTE   N06  Cn4  v092
 BYTE   W06
 BYTE   An3  v056
 BYTE   N06  Cn4  v052
 BYTE   W06
 BYTE   Gn3  v104
 BYTE   N06  Bn3
 BYTE   W06
 BYTE   Gn3  v064
 BYTE   N06  Bn3  v060
 BYTE   W06
 BYTE   FINE

//**************** Track 2 (Midi-Chn.1) ****************//

AdvanceWarsDualStrikeJavierLemonTart_002:
// 000   ----------------------------------------
 BYTE   KEYSH   AdvanceWarsDualStrikeJavierLemonTart_key+0
 BYTE   VOICE   73
 BYTE   PAN   c_v-64
 BYTE   VOL   38*AdvanceWarsDualStrikeJavierLemonTart_mvl/mxv
 BYTE   W24
 BYTE   W96
// 001   ----------------------------------------
 BYTE   W96
// 002   ----------------------------------------
 BYTE   W96
// 003   ----------------------------------------
 BYTE   W96
// 004   ----------------------------------------
 BYTE   W96
// 005   ----------------------------------------
 BYTE   W96
// 006   ----------------------------------------
 BYTE   W96
// 007   ----------------------------------------
 BYTE   W96
// 008   ----------------------------------------
 BYTE   W96
// 009   ----------------------------------------
 BYTE   W96
// 010   ----------------------------------------
 BYTE   W96
// 011   ----------------------------------------
 BYTE   W96
// 012   ----------------------------------------
 BYTE   W96
// 013   ----------------------------------------
 BYTE   W96
// 014   ----------------------------------------
Label_1_012BDAAB:
 BYTE   PAN   c_v+0
 BYTE   W72
 BYTE   N24  Cn5  v112
 BYTE   W24
 BYTE   PEND 
// 015   ----------------------------------------
Label_1_012BDAB3:
 BYTE   N24  Fn4  v108
 BYTE   W24
 BYTE   Gn4  v127
 BYTE   W24
 BYTE   N12  Fn4  v108
 BYTE   W12
 BYTE   Ds4
 BYTE   W12
 BYTE   N24  Cn4  v112
 BYTE   W24
 BYTE   PEND 
// 016   ----------------------------------------
Label_1_012BDAC5:
 BYTE   N24  Gn4  v108
 BYTE   W24
 BYTE   Fn4  v120
 BYTE   W24
 BYTE   As4  v124
 BYTE   W24
 BYTE   Cn5  v112
 BYTE   W24
 BYTE   PEND 
// 017   ----------------------------------------
Label_1_012BDAD3:
 BYTE   N24  Ds5  v108
 BYTE   W24
 BYTE   Dn5  v127
 BYTE   W24
 BYTE   N12  Cn5  v108
 BYTE   W12
 BYTE   As4  v112
 BYTE   W12
 BYTE   N48  Gn4  v120
 BYTE   W24
 BYTE   PEND 
// 018   ----------------------------------------
Label_1_012BDAE6:
 BYTE   W48
 BYTE   N12  Fn4  v116
 BYTE   W12
 BYTE   Gn4  v120
 BYTE   W12
 BYTE   N36  Gs4  v116
 BYTE   W24
 BYTE   PEND 
// 019   ----------------------------------------
Label_1_012BDAF3:
 BYTE   W12
 BYTE   N12  Ds5  v100
 BYTE   W12
 BYTE   TIE  Ds5  v112
 BYTE   W72
 BYTE   PEND 
// 020   ----------------------------------------
 BYTE   W72
 BYTE   EOT
 BYTE   N36  Gn4  v088
 BYTE   W24
// 021   ----------------------------------------
Label_1_012BDB03:
 BYTE   W12
 BYTE   N12  Dn5  v072
 BYTE   W12
 BYTE   TIE  Cs5  v084
 BYTE   W72
 BYTE   PEND 
// 022   ----------------------------------------
 BYTE   W72
 BYTE   EOT
 BYTE   W24
// 023   ----------------------------------------
 BYTE   W96
// 024   ----------------------------------------
 BYTE   W96
// 025   ----------------------------------------
 BYTE   W96
// 026   ----------------------------------------
 BYTE   W96
// 027   ----------------------------------------
 BYTE   W96
// 028   ----------------------------------------
 BYTE   W96
// 029   ----------------------------------------
 BYTE   W96
// 030   ----------------------------------------
 BYTE   W96
// 031   ----------------------------------------
 BYTE   W96
// 032   ----------------------------------------
 BYTE   W96
// 033   ----------------------------------------
 BYTE   W96
// 034   ----------------------------------------
 BYTE   W96
// 035   ----------------------------------------
 BYTE   W96
// 036   ----------------------------------------
 BYTE   W96
// 037   ----------------------------------------
 BYTE   W96
// 038   ----------------------------------------
 BYTE   W96
// 039   ----------------------------------------
 BYTE   W96
// 040   ----------------------------------------
 BYTE   W96
// 041   ----------------------------------------
 BYTE   W96
// 042   ----------------------------------------
 BYTE   W96
// 043   ----------------------------------------
 BYTE   W96
// 044   ----------------------------------------
 BYTE   W96
// 045   ----------------------------------------
 BYTE   W96
// 046   ----------------------------------------
 BYTE   W96
// 047   ----------------------------------------
 BYTE   W96
// 048   ----------------------------------------
 BYTE   W96
// 049   ----------------------------------------
 BYTE   W96
 BYTE   PATT
  POIN2 Label_1_012BDAAB
 BYTE   PATT
  POIN2 Label_1_012BDAB3
 BYTE   PATT
  POIN2 Label_1_012BDAC5
 BYTE   PATT
  POIN2 Label_1_012BDAD3
 BYTE   PATT
  POIN2 Label_1_012BDAE6
 BYTE   PATT
  POIN2 Label_1_012BDAF3
// 050   ----------------------------------------
 BYTE   W72
 BYTE   EOT
 BYTE   Ds5
 BYTE   N36  Gn4  v088
 BYTE   W24
 BYTE   PATT
  POIN2 Label_1_012BDB03
// 051   ----------------------------------------
 BYTE   W72
 BYTE   EOT
 BYTE   Cs5
 BYTE   FINE

//**************** Track 3 (Midi-Chn.2) ****************//

AdvanceWarsDualStrikeJavierLemonTart_003:
// 000   ----------------------------------------
 BYTE   KEYSH   AdvanceWarsDualStrikeJavierLemonTart_key+0
 BYTE   VOICE   68
 BYTE   PAN   c_v-64
 BYTE   VOL   53*AdvanceWarsDualStrikeJavierLemonTart_mvl/mxv
 BYTE   PAN   c_v+21
 BYTE   N06  Bn3  v068
 BYTE   W06
 BYTE   N05  An3  v072
 BYTE   W06
 BYTE   Gn3
 BYTE   W06
 BYTE   Cs3  v076
 BYTE   W06
 BYTE   Cs4  v080
 BYTE   W06
 BYTE   Bn3  v068
 BYTE   W06
 BYTE   An3  v080
 BYTE   W06
 BYTE   Gn3
 BYTE   W06
 BYTE   Gn4  v068
 BYTE   W06
 BYTE   Cs4  v076
 BYTE   W06
 BYTE   Bn3  v072
 BYTE   W06
 BYTE   An3  v096
 BYTE   W06
 BYTE   Bn3  v108
 BYTE   W12
 BYTE   Cn4  v100
 BYTE   W12
// 001   ----------------------------------------
 BYTE   Fn4  v056
 BYTE   W24
 BYTE   Gs4
 BYTE   W12
 BYTE   Gn4
 BYTE   W12
 BYTE   Gs4
 BYTE   W12
 BYTE   Ds4
 BYTE   W12
 BYTE   Gs3
 BYTE   W12
 BYTE   Gs4
 BYTE   W12
// 002   ----------------------------------------
 BYTE   Gs3
 BYTE   W12
 BYTE   Ds4
 BYTE   W12
 BYTE   Gs4
 BYTE   W12
 BYTE   Gn4
 BYTE   W12
 BYTE   Gs4
 BYTE   W12
 BYTE   Gs3
 BYTE   W12
 BYTE   Ds4
 BYTE   W12
 BYTE   Gs4
 BYTE   W12
// 003   ----------------------------------------
 BYTE   Fn4  v060
 BYTE   W12
 BYTE   Ds4  v064
 BYTE   W12
 BYTE   Fn4
 BYTE   W12
 BYTE   Gn4  v068
 BYTE   W12
 BYTE   Ds4
 BYTE   W12
 BYTE   Dn4
 BYTE   W12
 BYTE   Cn4  v076
 BYTE   W12
 BYTE   As3  v072
 BYTE   W12
// 004   ----------------------------------------
 BYTE   Gs3
 BYTE   W12
 BYTE   Gn3
 BYTE   W12
 BYTE   Gs3  v076
 BYTE   W12
 BYTE   As3
 BYTE   W12
 BYTE   Gs3  v072
 BYTE   W12
 BYTE   Gn3  v076
 BYTE   W12
 BYTE   Fn3
 BYTE   W12
 BYTE   Dn3  v044
 BYTE   W32
// 005   ----------------------------------------
 BYTE   PAN   c_v+19
 BYTE   W01
 BYTE   Gs4
 BYTE   W01
 BYTE   Fs4
 BYTE   W01
 BYTE   Ds4
 BYTE   W01
Label_2_012BDBE1:
 BYTE   PAN   c_v+8
 BYTE   W01
 BYTE   As3
 BYTE   W01
 BYTE   Gn3
 BYTE   W01
 BYTE   Ds3
 BYTE   W01
 BYTE   Cs3
 BYTE   W01
 BYTE   As2
 BYTE   W01
 BYTE   Gn2
 BYTE   W01
 BYTE   Fn2
 BYTE   W01
 BYTE   Dn2
 BYTE   W01
 BYTE   Cn2
 BYTE   W84
// 006   ----------------------------------------
 BYTE   W03
 BYTE   PEND 
 BYTE   W96
// 007   ----------------------------------------
 BYTE   W96
// 008   ----------------------------------------
Label_2_012BDBFA:
 BYTE   W72
 BYTE   N05  An1  v112
 BYTE   W12
 BYTE   An2
 BYTE   W12
 BYTE   PEND 
// 009   ----------------------------------------
Label_2_012BDC02:
 BYTE   N05  As1  v112
 BYTE   W12
 BYTE   As2
 BYTE   W12
 BYTE   An1  v120
 BYTE   W12
 BYTE   An2
 BYTE   W12
 BYTE   Fn1  v112
 BYTE   W12
 BYTE   Fn2
 BYTE   W12
 BYTE   An0  v124
 BYTE   W12
 BYTE   N05
 BYTE   W12
 BYTE   PEND 
// 010   ----------------------------------------
Label_2_012BDC18:
 BYTE   N05  As0  v127
 BYTE   W12
 BYTE   N05
 BYTE   W12
 BYTE   Bn0
 BYTE   W12
 BYTE   N05
 BYTE   W12
 BYTE   N11  Cn1  v124
 BYTE   W12
 BYTE   Dn1  v120
 BYTE   W12
 BYTE   TIE  Ds1  v092
 BYTE   W24
 BYTE   PEND 
// 011   ----------------------------------------
 BYTE   W96
// 012   ----------------------------------------
 BYTE   W68
 BYTE   W03
 BYTE   EOT
 BYTE   W01
 BYTE   N05  Fn0  v076
 BYTE   W12
 BYTE   Bn0
 BYTE   W12
// 013   ----------------------------------------
Label_2_012BDC39:
 BYTE   N05  Cn1  v076
 BYTE   W12
 BYTE   Fn0  v072
 BYTE   W12
 BYTE   Bn0
 BYTE   W12
 BYTE   Cn1  v076
 BYTE   W12
 BYTE   Dn1  v072
 BYTE   W12
 BYTE   En1  v080
 BYTE   W12
 BYTE   Fn0
 BYTE   W12
 BYTE   Bn1  v084
 BYTE   W12
 BYTE   PEND 
// 014   ----------------------------------------
Label_2_012BDC51:
 BYTE   N05  Cn2  v076
 BYTE   W12
 BYTE   Dn2  v064
 BYTE   W12
 BYTE   En2
 BYTE   W12
 BYTE   Dn2  v068
 BYTE   W12
 BYTE   Cn2  v076
 BYTE   W12
 BYTE   Bn1  v088
 BYTE   W12
 BYTE   N11  Cs1  v056
 BYTE   N11  Fn2  v060
 BYTE   W12
 BYTE   Cn2  v056
 BYTE   W12
 BYTE   PEND 
// 015   ----------------------------------------
Label_2_012BDC6E:
 BYTE   N11  As1  v060
 BYTE   W12
 BYTE   Gn1  v072
 BYTE   W12
 BYTE   Cn2
 BYTE   W12
 BYTE   As1
 BYTE   W12
 BYTE   Ds2  v064
 BYTE   W12
 BYTE   As1  v072
 BYTE   W12
 BYTE   Cs1  v060
 BYTE   N11  Fn2  v064
 BYTE   W12
 BYTE   Cn2  v068
 BYTE   W12
 BYTE   PEND 
// 016   ----------------------------------------
Label_2_012BDC89:
 BYTE   N11  As1  v072
 BYTE   W12
 BYTE   Gn2  v064
 BYTE   W12
 BYTE   Fn2  v068
 BYTE   W12
 BYTE   Cn2  v056
 BYTE   W12
 BYTE   As2  v068
 BYTE   W12
 BYTE   Gn2
 BYTE   W12
 BYTE   Fn0  v064
 BYTE   N11  Fn1  v060
 BYTE   W12
 BYTE   As1
 BYTE   N11  Cn2  v052
 BYTE   W12
 BYTE   PEND 
// 017   ----------------------------------------
Label_2_012BDCA7:
 BYTE   N11  Cn2  v060
 BYTE   N11  Fn2  v044
 BYTE   W12
 BYTE   Fn0  v060
 BYTE   N11  Fn1  v052
 BYTE   W12
 BYTE   As1
 BYTE   N11  Cn2  v064
 BYTE   W12
 BYTE   N11
 BYTE   N11  Fn2  v060
 BYTE   W12
 BYTE   As1  v056
 BYTE   W12
 BYTE   Cn2  v064
 BYTE   N11  Fn2
 BYTE   W12
 BYTE   Ds0  v048
 BYTE   N11  Ds1  v040
 BYTE   W12
 BYTE   An1  v048
 BYTE   N11  Gn2
 BYTE   W12
 BYTE   PEND 
// 018   ----------------------------------------
Label_2_012BDCD2:
 BYTE   N11  As1  v044
 BYTE   N11  Dn2  v048
 BYTE   W12
 BYTE   Ds0  v044
 BYTE   N11  Ds1  v036
 BYTE   W12
 BYTE   An1  v044
 BYTE   N11  Gn2  v060
 BYTE   W12
 BYTE   As1  v048
 BYTE   N11  Ds2  v052
 BYTE   W12
 BYTE   Gn1
 BYTE   N11  As1  v060
 BYTE   W12
 BYTE   An1  v068
 BYTE   N11  Cn2  v064
 BYTE   W12
 BYTE   As1  v068
 BYTE   W12
 BYTE   Dn1
 BYTE   W12
 BYTE   PEND 
// 019   ----------------------------------------
Label_2_012BDCFC:
 BYTE   N11  Ds2  v068
 BYTE   W12
 BYTE   As2  v072
 BYTE   W12
 BYTE   En2  v060
 BYTE   W12
 BYTE   Fs3
 BYTE   W12
 BYTE   As3  v052
 BYTE   W12
 BYTE   As2  v072
 BYTE   W12
 BYTE   Fs1  v060
 BYTE   N11  As1  v052
 BYTE   W12
 BYTE   Dn1  v068
 BYTE   W12
 BYTE   PEND 
// 020   ----------------------------------------
Label_2_012BDD18:
 BYTE   N11  As1  v060
 BYTE   N11  Ds2
 BYTE   W12
 BYTE   As1
 BYTE   N11  Fs2  v056
 BYTE   W12
 BYTE   En2
 BYTE   W12
 BYTE   Fs2  v072
 BYTE   W12
 BYTE   As2
 BYTE   W12
 BYTE   Fn3  v068
 BYTE   W12
 BYTE   PAN   c_v-16
 BYTE   N05  En3  v036
 BYTE   W06
 BYTE   Cs3  v044
 BYTE   W06
 BYTE   As2
 BYTE   W06
 BYTE   Fs2
 BYTE   W06
 BYTE   PEND 
// 021   ----------------------------------------
Label_2_012BDD3B:
 BYTE   N05  En2  v048
 BYTE   W06
 BYTE   Cs2  v052
 BYTE   W06
 BYTE   As1  v068
 BYTE   W06
 BYTE   Fs1  v056
 BYTE   W06
 BYTE   En1  v060
 BYTE   W06
 BYTE   Fs1
 BYTE   W06
 BYTE   As1  v068
 BYTE   W06
 BYTE   Cs2  v056
 BYTE   W06
 BYTE   En2  v072
 BYTE   W06
 BYTE   Fs2  v064
 BYTE   W06
 BYTE   As2  v072
 BYTE   W06
 BYTE   Cn3  v076
 BYTE   W30
 BYTE   PEND 
// 022   ----------------------------------------
Label_2_012BDD60:
 BYTE   N23  Fs3  v064
 BYTE   W24
 BYTE   Gs3  v072
 BYTE   W24
 BYTE   As3  v088
 BYTE   W24
 BYTE   N44  Cn4  v096
 BYTE   W24
 BYTE   PEND 
// 023   ----------------------------------------
Label_2_012BDD6F:
 BYTE   W24
 BYTE   N15  Ds4  v072
 BYTE   W16
 BYTE   Dn4  v080
 BYTE   W16
 BYTE   As3  v088
 BYTE   W16
 BYTE   N32  Cn4  v072
 BYTE   W24
 BYTE   PEND 
// 024   ----------------------------------------
Label_2_012BDD7F:
 BYTE   W12
 BYTE   N11  Ds4  v056
 BYTE   W12
 BYTE   N32  Dn4  v072
 BYTE   W36
 BYTE   N11  Gn4  v076
 BYTE   W12
 BYTE   N23  Fs4  v068
 BYTE   W24
 BYTE   PEND 
// 025   ----------------------------------------
Label_2_012BDD91:
 BYTE   N44  Dn4  v068
 BYTE   W48
 BYTE   N07  As3  v084
 BYTE   W08
 BYTE   Bn3  v080
 BYTE   W08
 BYTE   Cn4  v092
 BYTE   W08
 BYTE   N23  Cs4  v080
 BYTE   W24
 BYTE   PEND 
// 026   ----------------------------------------
Label_2_012BDDA4:
 BYTE   N23  En4  v064
 BYTE   W24
 BYTE   N15  Gs4  v072
 BYTE   W16
 BYTE   Fs4  v068
 BYTE   W16
 BYTE   Dn4  v072
 BYTE   W16
 BYTE   TIE  As3  v064
 BYTE   W24
 BYTE   PEND 
// 027   ----------------------------------------
 BYTE   W92
 BYTE   W03
 BYTE   EOT
 BYTE   W01
// 028   ----------------------------------------
Label_2_012BDDBB:
 BYTE   N23  Cn3  v072
 BYTE   W24
 BYTE   Dn3
 BYTE   W24
 BYTE   Ds3
 BYTE   W24
 BYTE   N68  Fs3
 BYTE   W24
 BYTE   PEND 
// 029   ----------------------------------------
Label_2_012BDDC7:
 BYTE   W48
 BYTE   N23  As3  v072
 BYTE   W24
 BYTE   Bn3
 BYTE   W24
 BYTE   PEND 
// 030   ----------------------------------------
Label_2_012BDDCF:
 BYTE   N23  Gn3  v072
 BYTE   W24
 BYTE   N32  En3
 BYTE   W36
 BYTE   N11  Cs3
 BYTE   W12
 BYTE   N44  Bn2
 BYTE   W24
 BYTE   PEND 
// 031   ----------------------------------------
Label_2_012BDDDD:
 BYTE   W24
 BYTE   N44  Gs2  v072
 BYTE   W48
 BYTE   N17  Bn2
 BYTE   W18
 BYTE   N04  As2  v084
 BYTE   W06
 BYTE   PEND 
// 032   ----------------------------------------
Label_2_012BDDEA:
 BYTE   N06  Gn2  v084
 BYTE   W08
 BYTE   Fs2
 BYTE   W08
 BYTE   En2
 BYTE   W08
 BYTE   Fs2
 BYTE   W08
 BYTE   En2
 BYTE   W08
 BYTE   Fs2
 BYTE   W08
 BYTE   As2
 BYTE   W08
 BYTE   Gn2
 BYTE   W08
 BYTE   En2
 BYTE   W08
 BYTE   Fs2
 BYTE   W08
 BYTE   En2
 BYTE   W08
 BYTE   Fs2
 BYTE   W08
 BYTE   PEND 
// 033   ----------------------------------------
Label_2_012BDE05:
 BYTE   N06  As2  v084
 BYTE   W08
 BYTE   Gn2
 BYTE   W08
 BYTE   Fs2
 BYTE   W08
 BYTE   N17  Gn2
 BYTE   W18
 BYTE   N04
 BYTE   W06
 BYTE   N17  Fs2
 BYTE   W18
 BYTE   N04  As2
 BYTE   W06
 BYTE   N17  Cn3
 BYTE   W18
 BYTE   N04
 BYTE   W06
 BYTE   PEND 
// 034   ----------------------------------------
 BYTE   N06  Dn3
 BYTE   W08
 BYTE   Cn3
 BYTE   W08
 BYTE   As2
 BYTE   W08
 BYTE   En3
 BYTE   W08
 BYTE   Dn3
 BYTE   W08
 BYTE   Cn3
 BYTE   W08
 BYTE   Fn3
 BYTE   W08
 BYTE   En3
 BYTE   W08
 BYTE   Dn3
 BYTE   W08
 BYTE   N11  Cn3  v096
 BYTE   W24
// 035   ----------------------------------------
 BYTE   W96
// 036   ----------------------------------------
 BYTE   W96
// 037   ----------------------------------------
 BYTE   W96
// 038   ----------------------------------------
 BYTE   W96
// 039   ----------------------------------------
 BYTE   W96
// 040   ----------------------------------------
 BYTE   W92
 BYTE   PAN   c_v+19
 BYTE   W01
 BYTE   Gs4
 BYTE   W01
 BYTE   Fs4
 BYTE   W01
 BYTE   Ds4
 BYTE   W01
 BYTE   PATT
  POIN2 Label_2_012BDBE1
// 041   ----------------------------------------
 BYTE   W96
// 042   ----------------------------------------
 BYTE   W96
 BYTE   PATT
  POIN2 Label_2_012BDBFA
 BYTE   PATT
  POIN2 Label_2_012BDC02
 BYTE   PATT
  POIN2 Label_2_012BDC18
// 043   ----------------------------------------
 BYTE   W96
// 044   ----------------------------------------
 BYTE   W68
 BYTE   W03
 BYTE   EOT
 BYTE   Ds1
 BYTE   W01
 BYTE   N05  Fn0  v076
 BYTE   W12
 BYTE   Bn0
 BYTE   W12
 BYTE   PATT
  POIN2 Label_2_012BDC39
 BYTE   PATT
  POIN2 Label_2_012BDC51
 BYTE   PATT
  POIN2 Label_2_012BDC6E
 BYTE   PATT
  POIN2 Label_2_012BDC89
 BYTE   PATT
  POIN2 Label_2_012BDCA7
 BYTE   PATT
  POIN2 Label_2_012BDCD2
 BYTE   PATT
  POIN2 Label_2_012BDCFC
 BYTE   PATT
  POIN2 Label_2_012BDD18
 BYTE   PATT
  POIN2 Label_2_012BDD3B
 BYTE   PATT
  POIN2 Label_2_012BDD60
 BYTE   PATT
  POIN2 Label_2_012BDD6F
 BYTE   PATT
  POIN2 Label_2_012BDD7F
 BYTE   PATT
  POIN2 Label_2_012BDD91
 BYTE   PATT
  POIN2 Label_2_012BDDA4
// 045   ----------------------------------------
 BYTE   W92
 BYTE   W03
 BYTE   EOT
 BYTE   As3
 BYTE   W01
 BYTE   PATT
  POIN2 Label_2_012BDDBB
 BYTE   PATT
  POIN2 Label_2_012BDDC7
 BYTE   PATT
  POIN2 Label_2_012BDDCF
 BYTE   PATT
  POIN2 Label_2_012BDDDD
 BYTE   PATT
  POIN2 Label_2_012BDDEA
 BYTE   PATT
  POIN2 Label_2_012BDE05
// 046   ----------------------------------------
 BYTE   N06  Dn3  v084
 BYTE   W08
 BYTE   Cn3
 BYTE   W08
 BYTE   As2
 BYTE   W08
 BYTE   En3
 BYTE   W08
 BYTE   Dn3
 BYTE   W08
 BYTE   Cn3
 BYTE   W08
 BYTE   Fn3
 BYTE   W08
 BYTE   En3
 BYTE   W08
 BYTE   Dn3
 BYTE   W08
 BYTE   N11  Cn3  v096
 BYTE   W11
 BYTE   FINE

//**************** Track 4 (Midi-Chn.3) ****************//

AdvanceWarsDualStrikeJavierLemonTart_004:
// 000   ----------------------------------------
 BYTE   KEYSH   AdvanceWarsDualStrikeJavierLemonTart_key+0
 BYTE   VOICE   63
 BYTE   PAN   c_v-64
 BYTE   VOL   50*AdvanceWarsDualStrikeJavierLemonTart_mvl/mxv
 BYTE   W24
 BYTE   W96
// 001   ----------------------------------------
 BYTE   W96
// 002   ----------------------------------------
 BYTE   W96
// 003   ----------------------------------------
 BYTE   W72
 BYTE   PAN   c_v+0
 BYTE   W24
// 004   ----------------------------------------
Label_3_012BDEF8:
 BYTE   W54
 BYTE   N06  An2  v116
 BYTE   N06  An3  v108
 BYTE   W06
 BYTE   As2  v116
 BYTE   N06  As3  v112
 BYTE   W06
 BYTE   Bn2  v116
 BYTE   N06  Bn3  v108
 BYTE   W06
 BYTE   Cn3  v112
 BYTE   N06  Cn4  v108
 BYTE   W12
 BYTE   Cn3  v120
 BYTE   N06  Cn4
 BYTE   W12
 BYTE   PEND 
// 005   ----------------------------------------
Label_3_012BDF18:
 BYTE   N06  Cn3  v124
 BYTE   N06  Cn4  v120
 BYTE   W12
 BYTE   Cn3  v116
 BYTE   N06  Cn4  v120
 BYTE   W12
 BYTE   Cn3  v124
 BYTE   N06  Cn4  v127
 BYTE   W12
 BYTE   As2  v096
 BYTE   N06  As3  v104
 BYTE   W06
 BYTE   An2  v112
 BYTE   N06  An3  v108
 BYTE   W06
 BYTE   Gs2  v116
 BYTE   N06  Gs3  v120
 BYTE   W06
 BYTE   An2
 BYTE   N06  An3  v112
 BYTE   W06
 BYTE   As2  v120
 BYTE   N06  As3  v127
 BYTE   W06
 BYTE   Bn2  v120
 BYTE   N06  Bn3  v116
 BYTE   W06
 BYTE   Cn3  v127
 BYTE   N06  Cn4  v120
 BYTE   W12
 BYTE   Cn3  v116
 BYTE   N06  Cn4
 BYTE   W12
 BYTE   PEND 
// 006   ----------------------------------------
Label_3_012BDF5A:
 BYTE   N06  Cn3  v116
 BYTE   N06  Cn4
 BYTE   W12
 BYTE   Cn3  v120
 BYTE   N06  Cn4
 BYTE   W12
 BYTE   Cn3
 BYTE   N06  Cn4  v116
 BYTE   W12
 BYTE   Ds3  v108
 BYTE   N06  Ds4  v116
 BYTE   W12
 BYTE   Ds3  v112
 BYTE   N06  Ds4  v124
 BYTE   W12
 BYTE   Dn3  v116
 BYTE   N06  Dn4  v108
 BYTE   W06
 BYTE   Ds3  v116
 BYTE   N06  Ds4  v120
 BYTE   W06
 BYTE   Dn3
 BYTE   N06  Dn4  v116
 BYTE   W12
 BYTE   Cn3  v112
 BYTE   N06  Cn4
 BYTE   W12
 BYTE   PEND 
// 007   ----------------------------------------
Label_3_012BDF8D:
 BYTE   TIE  As2  v112
 BYTE   TIE  As3  v116
 BYTE   W96
 BYTE   PEND 
// 008   ----------------------------------------
 BYTE   W48
 BYTE   EOT
 BYTE   As2  v070
 BYTE   W24
 BYTE   N06  An2  v112
 BYTE   N06  An3
 BYTE   W24
// 009   ----------------------------------------
Label_3_012BDFA0:
 BYTE   N06  As2  v116
 BYTE   N06  As3  v112
 BYTE   W24
 BYTE   An2  v120
 BYTE   N06  An3
 BYTE   W24
 BYTE   Fn2  v116
 BYTE   N06  Fn3  v112
 BYTE   W24
 BYTE   An2  v127
 BYTE   N06  An3  v124
 BYTE   W24
 BYTE   PEND 
// 010   ----------------------------------------
Label_3_012BDFB9:
 BYTE   N06  As2  v120
 BYTE   N06  As3  v127
 BYTE   W24
 BYTE   Bn2
 BYTE   N06  Bn3
 BYTE   W24
 BYTE   N12  Cn3  v108
 BYTE   N12  Cn4  v124
 BYTE   W12
 BYTE   Dn3  v120
 BYTE   N12  Dn4
 BYTE   W12
 BYTE   TIE  Ds4  v092
 BYTE   W24
 BYTE   PEND 
// 011   ----------------------------------------
Label_3_012BDFD5:
 BYTE   N24  An3  v124
 BYTE   W24
 BYTE   Gn3
 BYTE   W24
 BYTE   Ds3
 BYTE   W24
 BYTE   Cs3
 BYTE   W24
 BYTE   PEND 
// 012   ----------------------------------------
Label_3_012BDFE0:
 BYTE   N24  Bn2  v124
 BYTE   W24
 BYTE   An2
 BYTE   W24
 BYTE   Gn2
 BYTE   W24
 BYTE   PEND 
 BYTE   EOT
 BYTE   Ds4
 BYTE   W24
// 013   ----------------------------------------
 BYTE   W96
// 014   ----------------------------------------
 BYTE   W96
// 015   ----------------------------------------
 BYTE   W96
// 016   ----------------------------------------
 BYTE   W96
// 017   ----------------------------------------
 BYTE   W96
// 018   ----------------------------------------
 BYTE   W96
// 019   ----------------------------------------
 BYTE   W96
// 020   ----------------------------------------
 BYTE   W96
// 021   ----------------------------------------
 BYTE   W96
// 022   ----------------------------------------
 BYTE   W96
// 023   ----------------------------------------
 BYTE   W96
// 024   ----------------------------------------
 BYTE   W96
// 025   ----------------------------------------
 BYTE   W96
// 026   ----------------------------------------
 BYTE   W96
// 027   ----------------------------------------
 BYTE   W96
// 028   ----------------------------------------
 BYTE   W96
// 029   ----------------------------------------
 BYTE   W96
// 030   ----------------------------------------
 BYTE   W96
// 031   ----------------------------------------
 BYTE   W96
// 032   ----------------------------------------
 BYTE   W96
// 033   ----------------------------------------
 BYTE   W96
// 034   ----------------------------------------
 BYTE   W96
// 035   ----------------------------------------
 BYTE   W96
// 036   ----------------------------------------
 BYTE   W96
// 037   ----------------------------------------
 BYTE   W96
// 038   ----------------------------------------
 BYTE   W96
// 039   ----------------------------------------
 BYTE   W96
 BYTE   PATT
  POIN2 Label_3_012BDEF8
 BYTE   PATT
  POIN2 Label_3_012BDF18
 BYTE   PATT
  POIN2 Label_3_012BDF5A
 BYTE   PATT
  POIN2 Label_3_012BDF8D
// 040   ----------------------------------------
 BYTE   W48
 BYTE   EOT
 BYTE   As2  v070
 BYTE   W24
 BYTE   N06  An2  v112
 BYTE   N06  An3
 BYTE   W24
 BYTE   PATT
  POIN2 Label_3_012BDFA0
 BYTE   PATT
  POIN2 Label_3_012BDFB9
 BYTE   PATT
  POIN2 Label_3_012BDFD5
 BYTE   PATT
  POIN2 Label_3_012BDFE0
// 041   ----------------------------------------
 BYTE   EOT
 BYTE   Ds4
 BYTE   FINE

//**************** Track 5 (Midi-Chn.4) ****************//

AdvanceWarsDualStrikeJavierLemonTart_005:
// 000   ----------------------------------------
 BYTE   KEYSH   AdvanceWarsDualStrikeJavierLemonTart_key+0
 BYTE   VOICE   68
 BYTE   PAN   c_v-64
 BYTE   VOL   53*AdvanceWarsDualStrikeJavierLemonTart_mvl/mxv
 BYTE   PAN   c_v-26
 BYTE   N06  Bn2  v068
 BYTE   W06
 BYTE   An2  v072
 BYTE   W06
 BYTE   Gn2
 BYTE   W06
 BYTE   Cs2  v076
 BYTE   W06
 BYTE   Cs3  v080
 BYTE   W06
 BYTE   Bn2  v068
 BYTE   W06
 BYTE   An2  v080
 BYTE   W06
 BYTE   Gn2
 BYTE   W06
 BYTE   Gn3  v068
 BYTE   W06
 BYTE   Cs3  v076
 BYTE   W06
 BYTE   Bn2  v072
 BYTE   W06
 BYTE   An2  v096
 BYTE   W06
 BYTE   Bn2  v108
 BYTE   W12
 BYTE   Cn3  v100
 BYTE   W12
// 001   ----------------------------------------
 BYTE   Fn3  v096
 BYTE   W24
 BYTE   W96
// 002   ----------------------------------------
 BYTE   W96
// 003   ----------------------------------------
 BYTE   W96
// 004   ----------------------------------------
 BYTE   W96
// 005   ----------------------------------------
 BYTE   W96
// 006   ----------------------------------------
 BYTE   W96
// 007   ----------------------------------------
Label_4_012BE07C:
 BYTE   W48
 BYTE   N06  En3  v116
 BYTE   W12
 BYTE   Gn3
 BYTE   W12
 BYTE   Fn3  v120
 BYTE   W12
 BYTE   En3  v112
 BYTE   W12
 BYTE   PEND 
// 008   ----------------------------------------
Label_4_012BE08A:
 BYTE   N48  Ds3  v112
 BYTE   W48
 BYTE   N06  Dn3  v092
 BYTE   W12
 BYTE   As2  v104
 BYTE   W12
 BYTE   An2  v112
 BYTE   W24
 BYTE   PEND 
// 009   ----------------------------------------
Label_4_012BE099:
 BYTE   N06  As2  v112
 BYTE   W24
 BYTE   An2  v120
 BYTE   W24
 BYTE   Fn2  v112
 BYTE   W24
 BYTE   Fn2  v124
 BYTE   W24
 BYTE   PEND 
// 010   ----------------------------------------
Label_4_012BE0A7:
 BYTE   N06  Fs2  v127
 BYTE   W24
 BYTE   Gn2
 BYTE   W24
 BYTE   N12  Gs2  v124
 BYTE   W12
 BYTE   As2  v120
 BYTE   W12
 BYTE   TIE  Bn2  v092
 BYTE   W24
 BYTE   PEND 
// 011   ----------------------------------------
 BYTE   W96
// 012   ----------------------------------------
 BYTE   W48
 BYTE   EOT
 BYTE   W48
// 013   ----------------------------------------
 BYTE   W96
// 014   ----------------------------------------
 BYTE   W96
// 015   ----------------------------------------
 BYTE   W96
// 016   ----------------------------------------
 BYTE   W96
// 017   ----------------------------------------
 BYTE   W96
// 018   ----------------------------------------
 BYTE   W96
// 019   ----------------------------------------
 BYTE   W96
// 020   ----------------------------------------
 BYTE   W96
// 021   ----------------------------------------
Label_4_012BE0C5:
 BYTE   W04
 BYTE   PAN   c_v-26
 BYTE   W01
 BYTE   Ds1
 BYTE   W01
 BYTE   En1
 BYTE   W01
 BYTE   Fn1
 BYTE   W01
 BYTE   Gn1
 BYTE   W01
 BYTE   Gs1
 BYTE   W01
 BYTE   An1
 BYTE   W01
 BYTE   As1
 BYTE   W01
 BYTE   Bn1
 BYTE   W01
 BYTE   Cs2
 BYTE   W01
 BYTE   Dn2
 BYTE   W01
 BYTE   Ds2
 BYTE   W01
 BYTE   En2
 BYTE   W01
 BYTE   Fn2
 BYTE   W01
 BYTE   Gn2
 BYTE   W01
 BYTE   Gs2
 BYTE   W76
 BYTE   W01
 BYTE   PEND 
// 022   ----------------------------------------
Label_4_012BE0E9:
 BYTE   N24  Fs2  v096
 BYTE   W24
 BYTE   Gs2  v104
 BYTE   W24
 BYTE   As2  v120
 BYTE   W24
 BYTE   N48  Cn3  v127
 BYTE   W24
 BYTE   PEND 
// 023   ----------------------------------------
Label_4_012BE0F8:
 BYTE   W24
 BYTE   N16  Ds3  v104
 BYTE   W16
 BYTE   Dn3  v112
 BYTE   W16
 BYTE   As2  v116
 BYTE   W16
 BYTE   N36  Cn3  v100
 BYTE   W24
 BYTE   PEND 
// 024   ----------------------------------------
Label_4_012BE108:
 BYTE   W12
 BYTE   N12  Ds3  v088
 BYTE   W12
 BYTE   N36  Dn3  v104
 BYTE   W36
 BYTE   N12  Gn3
 BYTE   W12
 BYTE   N24  Fs3  v100
 BYTE   W24
 BYTE   PEND 
// 025   ----------------------------------------
Label_4_012BE119:
 BYTE   N48  Dn3  v100
 BYTE   W48
 BYTE   N08  As2  v116
 BYTE   W08
 BYTE   Bn2  v108
 BYTE   W08
 BYTE   Cn3  v124
 BYTE   W08
 BYTE   N24  Cs3  v112
 BYTE   W24
 BYTE   PEND 
// 026   ----------------------------------------
Label_4_012BE12C:
 BYTE   N24  En3  v096
 BYTE   W24
 BYTE   N16  Gs3  v104
 BYTE   W16
 BYTE   Fs3  v100
 BYTE   W16
 BYTE   Dn3  v104
 BYTE   W16
 BYTE   TIE  As2  v096
 BYTE   W24
 BYTE   PEND 
// 027   ----------------------------------------
 BYTE   W96
// 028   ----------------------------------------
 BYTE   EOT
Label_4_012BE141:
 BYTE   N24  Cn3  v072
 BYTE   W24
 BYTE   Dn3
 BYTE   W24
 BYTE   Ds3
 BYTE   W24
 BYTE   N72  Fs3
 BYTE   W24
 BYTE   PEND 
// 029   ----------------------------------------
Label_4_012BE14D:
 BYTE   W48
 BYTE   N24  As3  v072
 BYTE   W24
 BYTE   Bn3
 BYTE   W24
 BYTE   PEND 
// 030   ----------------------------------------
Label_4_012BE155:
 BYTE   N24  Gn3  v072
 BYTE   W24
 BYTE   N36  En3
 BYTE   W36
 BYTE   N12  Cs3
 BYTE   W12
 BYTE   N48  Bn2
 BYTE   W24
 BYTE   PEND 
// 031   ----------------------------------------
Label_4_012BE163:
 BYTE   W24
 BYTE   N48  Gs2  v072
 BYTE   W48
 BYTE   N18  Bn2
 BYTE   W18
 BYTE   N04  As2  v084
 BYTE   W06
 BYTE   PEND 
// 032   ----------------------------------------
Label_4_012BE170:
 BYTE   N06  Gn2  v084
 BYTE   W08
 BYTE   Fs2
 BYTE   W08
 BYTE   En2
 BYTE   W08
 BYTE   Fs2
 BYTE   W08
 BYTE   En2
 BYTE   W08
 BYTE   Fs2
 BYTE   W08
 BYTE   As2
 BYTE   W08
 BYTE   Gn2
 BYTE   W08
 BYTE   En2
 BYTE   W08
 BYTE   Fs2
 BYTE   W08
 BYTE   En2
 BYTE   W08
 BYTE   Fs2
 BYTE   W08
 BYTE   PEND 
// 033   ----------------------------------------
Label_4_012BE18B:
 BYTE   N06  As2  v084
 BYTE   W08
 BYTE   Gn2
 BYTE   W08
 BYTE   Fs2
 BYTE   W08
 BYTE   N18  Gn2
 BYTE   W18
 BYTE   N04
 BYTE   W06
 BYTE   N18  Fs2
 BYTE   W18
 BYTE   N04  As2
 BYTE   W06
 BYTE   N18  Cn3
 BYTE   W18
 BYTE   N04
 BYTE   W06
 BYTE   PEND 
// 034   ----------------------------------------
 BYTE   N06  Dn3
 BYTE   W08
 BYTE   Cn3
 BYTE   W08
 BYTE   As2
 BYTE   W08
 BYTE   En3
 BYTE   W08
 BYTE   Dn3
 BYTE   W08
 BYTE   Cn3
 BYTE   W08
 BYTE   Fn3
 BYTE   W08
 BYTE   En3
 BYTE   W08
 BYTE   Dn3
 BYTE   W08
 BYTE   N12  Cn3  v108
 BYTE   W24
// 035   ----------------------------------------
 BYTE   W96
// 036   ----------------------------------------
 BYTE   W96
// 037   ----------------------------------------
 BYTE   W96
// 038   ----------------------------------------
 BYTE   W96
// 039   ----------------------------------------
 BYTE   W96
// 040   ----------------------------------------
 BYTE   W96
// 041   ----------------------------------------
 BYTE   W96
// 042   ----------------------------------------
 BYTE   W96
 BYTE   PATT
  POIN2 Label_4_012BE07C
 BYTE   PATT
  POIN2 Label_4_012BE08A
 BYTE   PATT
  POIN2 Label_4_012BE099
 BYTE   PATT
  POIN2 Label_4_012BE0A7
// 043   ----------------------------------------
 BYTE   W96
// 044   ----------------------------------------
 BYTE   W48
 BYTE   EOT
 BYTE   Bn2
 BYTE   W48
// 045   ----------------------------------------
 BYTE   W96
// 046   ----------------------------------------
 BYTE   W96
// 047   ----------------------------------------
 BYTE   W96
// 048   ----------------------------------------
 BYTE   W96
// 049   ----------------------------------------
 BYTE   W96
// 050   ----------------------------------------
 BYTE   W96
// 051   ----------------------------------------
 BYTE   W96
// 052   ----------------------------------------
 BYTE   W96
 BYTE   PATT
  POIN2 Label_4_012BE0C5
 BYTE   PATT
  POIN2 Label_4_012BE0E9
 BYTE   PATT
  POIN2 Label_4_012BE0F8
 BYTE   PATT
  POIN2 Label_4_012BE108
 BYTE   PATT
  POIN2 Label_4_012BE119
 BYTE   PATT
  POIN2 Label_4_012BE12C
// 053   ----------------------------------------
 BYTE   W96
// 054   ----------------------------------------
 BYTE   EOT
 BYTE   As2
 BYTE   PATT
  POIN2 Label_4_012BE141
 BYTE   PATT
  POIN2 Label_4_012BE14D
 BYTE   PATT
  POIN2 Label_4_012BE155
 BYTE   PATT
  POIN2 Label_4_012BE163
 BYTE   PATT
  POIN2 Label_4_012BE170
 BYTE   PATT
  POIN2 Label_4_012BE18B
// 055   ----------------------------------------
 BYTE   N06  Dn3  v084
 BYTE   W08
 BYTE   Cn3
 BYTE   W08
 BYTE   As2
 BYTE   W08
 BYTE   En3
 BYTE   W08
 BYTE   Dn3
 BYTE   W08
 BYTE   Cn3
 BYTE   W08
 BYTE   Fn3
 BYTE   W08
 BYTE   En3
 BYTE   W08
 BYTE   Dn3
 BYTE   W08
 BYTE   N12  Cn3  v108
 BYTE   W12
 BYTE   FINE

//**************** Track 6 (Midi-Chn.5) ****************//

AdvanceWarsDualStrikeJavierLemonTart_006:
// 000   ----------------------------------------
 BYTE   KEYSH   AdvanceWarsDualStrikeJavierLemonTart_key+0
 BYTE   VOICE   56
 BYTE   VOL   49*AdvanceWarsDualStrikeJavierLemonTart_mvl/mxv
 BYTE   PAN   c_v+19
 BYTE   N06  Cs1  v100
 BYTE   N06  Cs2
 BYTE   W12
 BYTE   Cs1
 BYTE   N06  Cs2
 BYTE   W12
 BYTE   Cs1
 BYTE   N06  Cs3
 BYTE   W12
 BYTE   Cs1
 BYTE   N06  Cs3
 BYTE   W12
 BYTE   Cs1
 BYTE   N06  Cs4
 BYTE   W12
 BYTE   Cs1
 BYTE   N06  Cs4
 BYTE   W12
 BYTE   N12  Dn1
 BYTE   N06  Dn2  v108
 BYTE   N06  Fn2  v120
 BYTE   N06  Bn4  v112
 BYTE   W12
 BYTE   N12  Ds1  v116
 BYTE   N06  Ds2
 BYTE   N06  Fs2  v120
 BYTE   N06  Cn5  v112
 BYTE   W12
// 001   ----------------------------------------
 BYTE   Fn1
 BYTE   N06  Fn2  v127
 BYTE   N06  Fn5  v120
 BYTE   W12
 BYTE   As2  v080
 BYTE   N06  Cn3  v076
 BYTE   W12
Label_5_012BE284:
 BYTE   N06  Fn1  v108
 BYTE   N06  Fn2  v124
 BYTE   W12
 BYTE   As2  v084
 BYTE   N06  Cn3
 BYTE   W12
 BYTE   Fn1  v112
 BYTE   N06  Fn2  v120
 BYTE   W12
 BYTE   As2  v088
 BYTE   N06  Cn3  v092
 BYTE   W12
 BYTE   Fn1  v116
 BYTE   N06  Fn2  v112
 BYTE   W12
 BYTE   As2  v096
 BYTE   N06  Cn3  v100
 BYTE   W12
// 002   ----------------------------------------
 BYTE   Fn1  v112
 BYTE   N06  Fn2  v127
 BYTE   W12
 BYTE   As2  v080
 BYTE   N06  Cn3  v076
 BYTE   W12
 BYTE   PEND 
 BYTE   PATT
  POIN2 Label_5_012BE284
 BYTE   PATT
  POIN2 Label_5_012BE284
 BYTE   PATT
  POIN2 Label_5_012BE284
 BYTE   PATT
  POIN2 Label_5_012BE284
 BYTE   PATT
  POIN2 Label_5_012BE284
 BYTE   PATT
  POIN2 Label_5_012BE284
// 003   ----------------------------------------
Label_5_012BE2D3:
 BYTE   N06  Fn1  v108
 BYTE   N06  Fn2  v124
 BYTE   W12
 BYTE   As2  v084
 BYTE   N06  Cn3
 BYTE   W12
 BYTE   Fn1  v112
 BYTE   N06  Fn2  v120
 BYTE   W12
 BYTE   As2  v088
 BYTE   N06  Cn3  v092
 BYTE   W12
 BYTE   Fn1  v116
 BYTE   N06  Fn2  v112
 BYTE   W12
 BYTE   As2  v096
 BYTE   N06  Cn3  v100
 BYTE   W36
 BYTE   PEND 
// 004   ----------------------------------------
 BYTE   W96
// 005   ----------------------------------------
 BYTE   W96
// 006   ----------------------------------------
 BYTE   W96
// 007   ----------------------------------------
 BYTE   W96
// 008   ----------------------------------------
 BYTE   W96
// 009   ----------------------------------------
 BYTE   W96
// 010   ----------------------------------------
 BYTE   W96
// 011   ----------------------------------------
 BYTE   W96
// 012   ----------------------------------------
 BYTE   W96
// 013   ----------------------------------------
 BYTE   W96
// 014   ----------------------------------------
 BYTE   W96
// 015   ----------------------------------------
 BYTE   W96
// 016   ----------------------------------------
 BYTE   W72
 BYTE   N12  Bn1  v104
 BYTE   W24
// 017   ----------------------------------------
Label_5_012BE309:
 BYTE   N12  As1  v104
 BYTE   W24
 BYTE   Fs1
 BYTE   W24
 BYTE   En1
 BYTE   W24
 BYTE   Fs1
 BYTE   W12
 BYTE   N08  En2
 BYTE   N08  As2
 BYTE   W12
 BYTE   PEND 
// 018   ----------------------------------------
Label_5_012BE319:
 BYTE   N12  As1  v104
 BYTE   N12  Fs2
 BYTE   W24
 BYTE   As1
 BYTE   N08  Ds2
 BYTE   W12
 BYTE   N08
 BYTE   N08  As2
 BYTE   W12
 BYTE   N12  En1
 BYTE   N12  Fs2
 BYTE   W24
 BYTE   Fs1
 BYTE   N08  En2
 BYTE   W12
 BYTE   N08
 BYTE   N08  An2
 BYTE   W12
 BYTE   PEND 
// 019   ----------------------------------------
Label_5_012BE335:
 BYTE   N12  Fn1  v104
 BYTE   N12  Fs2
 BYTE   W24
 BYTE   Ds1
 BYTE   N08  Ds2
 BYTE   W12
 BYTE   N08
 BYTE   N08  As2
 BYTE   W12
 BYTE   N12  Dn1
 BYTE   N32  Fs2
 BYTE   W24
 BYTE   N12  Ds1
 BYTE   W12
 BYTE   N08  Ds2
 BYTE   N08  As2
 BYTE   W12
 BYTE   PEND 
// 020   ----------------------------------------
Label_5_012BE351:
 BYTE   N12  Fn1  v104
 BYTE   N12  Fs2
 BYTE   W24
 BYTE   Fs1
 BYTE   N08  Ds2
 BYTE   W12
 BYTE   N08
 BYTE   N08  As2
 BYTE   W12
 BYTE   N12  En1
 BYTE   N32  Gn2
 BYTE   W24
 BYTE   N12  Gn1
 BYTE   W12
 BYTE   N08  En2
 BYTE   N08  Bn2
 BYTE   W12
 BYTE   PEND 
// 021   ----------------------------------------
Label_5_012BE36D:
 BYTE   N12  Fs1  v104
 BYTE   N12  Fs2
 BYTE   W24
 BYTE   Dn1
 BYTE   N08  Fs2
 BYTE   W12
 BYTE   N08
 BYTE   N08  Bn2
 BYTE   W12
 BYTE   N12  Gs1
 BYTE   N12  Gs2
 BYTE   W12
 BYTE   N08
 BYTE   N08  Dn3  v116
 BYTE   W12
 BYTE   Cn3  v100
 BYTE   W12
 BYTE   N08
 BYTE   N08  Dn3
 BYTE   W12
 BYTE   PEND 
// 022   ----------------------------------------
Label_5_012BE38D:
 BYTE   N12  As2  v100
 BYTE   W12
 BYTE   N06
 BYTE   W12
 BYTE   N08  Fs2
 BYTE   W12
 BYTE   N08
 BYTE   N08  Gs2
 BYTE   W12
 BYTE   N12  En2
 BYTE   W12
 BYTE   N06
 BYTE   W12
 BYTE   N12  Fs1  v104
 BYTE   N08  Cn3  v100
 BYTE   W12
 BYTE   N08
 BYTE   N08  Dn3
 BYTE   W12
 BYTE   PEND 
// 023   ----------------------------------------
Label_5_012BE3AB:
 BYTE   N12  As1  v104
 BYTE   N12  As2  v100
 BYTE   W12
 BYTE   N06
 BYTE   W12
 BYTE   N12  An1  v104
 BYTE   N08  Fs2  v100
 BYTE   W12
 BYTE   N08
 BYTE   N08  Gs2
 BYTE   W12
 BYTE   N12  Fs1  v104
 BYTE   N12  Ds2  v100
 BYTE   W12
 BYTE   N06
 BYTE   W12
 BYTE   N12  As1  v104
 BYTE   N08  Dn3  v100
 BYTE   W12
 BYTE   N08
 BYTE   N08  Ds3
 BYTE   W12
 BYTE   PEND 
// 024   ----------------------------------------
Label_5_012BE3D4:
 BYTE   N12  An1  v104
 BYTE   N12  As2  v100
 BYTE   W12
 BYTE   N06
 BYTE   W12
 BYTE   N12  Gs1  v104
 BYTE   N08  Fs2  v100
 BYTE   W12
 BYTE   N08
 BYTE   N08  Gs2
 BYTE   W12
 BYTE   N12  Ds1  v104
 BYTE   N12  Ds2  v100
 BYTE   W12
 BYTE   N06
 BYTE   W12
 BYTE   N12  En1  v104
 BYTE   N08  Cs3  v100
 BYTE   W12
 BYTE   N08
 BYTE   N08  En3
 BYTE   W12
 BYTE   PEND 
// 025   ----------------------------------------
Label_5_012BE3FD:
 BYTE   N12  Gn1  v104
 BYTE   N12  Bn2  v100
 BYTE   W12
 BYTE   N06
 BYTE   W12
 BYTE   N12  Fs1  v104
 BYTE   N08  Fs2  v100
 BYTE   W12
 BYTE   N08
 BYTE   N08  Gn2
 BYTE   W12
 BYTE   N12  En1  v104
 BYTE   N12  En2  v100
 BYTE   W12
 BYTE   N06
 BYTE   W12
 BYTE   N12  Gs1  v104
 BYTE   N18  Dn3
 BYTE   W12
 BYTE   N06  En3  v092
 BYTE   W12
 BYTE   PEND 
// 026   ----------------------------------------
Label_5_012BE425:
 BYTE   N12  Fs1  v104
 BYTE   N08  Dn3  v092
 BYTE   W12
 BYTE   Bn2  v084
 BYTE   N08  Dn3  v104
 BYTE   W12
 BYTE   N12  Dn1
 BYTE   N08  Gs2
 BYTE   W12
 BYTE   Gs2  v100
 BYTE   N08  Bn2  v092
 BYTE   W12
 BYTE   N12  Gs1  v104
 BYTE   N08  Fs2  v096
 BYTE   W12
 BYTE   Dn2
 BYTE   N08  Fs2
 BYTE   W12
 BYTE   N36
 BYTE   W24
 BYTE   PEND 
// 027   ----------------------------------------
Label_5_012BE44B:
 BYTE   W12
 BYTE   N12  Cn3  v104
 BYTE   W12
 BYTE   N36  As2
 BYTE   W36
 BYTE   N12  En2  v108
 BYTE   W12
 BYTE   N36  Fs2  v096
 BYTE   W24
 BYTE   PEND 
// 028   ----------------------------------------
Label_5_012BE45C:
 BYTE   W12
 BYTE   N12  Cn3  v104
 BYTE   W12
 BYTE   N36  En3  v092
 BYTE   W36
 BYTE   En1  v100
 BYTE   N36  En2
 BYTE   W36
 BYTE   PEND 
// 029   ----------------------------------------
Label_5_012BE46B:
 BYTE   N48  Fs1  v104
 BYTE   N48  Fs2
 BYTE   W48
 BYTE   N24  As1
 BYTE   N24  As2
 BYTE   W24
 BYTE   N12  Fs1  v108
 BYTE   N12  Fs2
 BYTE   W24
 BYTE   PEND 
// 030   ----------------------------------------
Label_5_012BE47D:
 BYTE   W24
 BYTE   N18  An1  v108
 BYTE   W12
 BYTE   N06  Cs2  v092
 BYTE   W12
 BYTE   N08  Bn1  v088
 BYTE   W12
 BYTE   Gn1  v104
 BYTE   N08  Cs2  v096
 BYTE   W12
 BYTE   Bn1  v088
 BYTE   W12
 BYTE   Gn1  v092
 BYTE   N08  Cs2  v096
 BYTE   W12
 BYTE   PEND 
// 031   ----------------------------------------
Label_5_012BE49A:
 BYTE   N08  Bn1  v096
 BYTE   W12
 BYTE   Gn1
 BYTE   N08  Cs2
 BYTE   W12
 BYTE   Bn1  v100
 BYTE   W12
 BYTE   Gn1
 BYTE   N08  Cs2  v104
 BYTE   W12
 BYTE   Bn1
 BYTE   W12
 BYTE   Gn1  v116
 BYTE   N08  Cs2  v104
 BYTE   W12
 BYTE   Bn1  v100
 BYTE   W12
 BYTE   Gs1
 BYTE   N08  Cn2
 BYTE   W12
 BYTE   PEND 
// 032   ----------------------------------------
Label_5_012BE4BA:
 BYTE   N08  Bn1  v100
 BYTE   W12
 BYTE   Gs1
 BYTE   N08  Cn2
 BYTE   W12
 BYTE   Bn1
 BYTE   W12
 BYTE   Gs1
 BYTE   N08  Cn2
 BYTE   W12
 BYTE   Bn1
 BYTE   W12
 BYTE   Gs1
 BYTE   N08  Cn2
 BYTE   W12
 BYTE   As1
 BYTE   W12
 BYTE   Fs1
 BYTE   N08  Cn2
 BYTE   W12
 BYTE   PEND 
// 033   ----------------------------------------
Label_5_012BE4D5:
 BYTE   N08  As1  v100
 BYTE   W12
 BYTE   Fs1
 BYTE   N08  Cn2
 BYTE   W12
 BYTE   As1
 BYTE   W12
 BYTE   Fs1
 BYTE   N08  Cn2
 BYTE   W12
 BYTE   As1  v127
 BYTE   W24
 BYTE   N06  Fn1  v112
 BYTE   N06  Fn2  v127
 BYTE   N06  Fn3  v120
 BYTE   W12
 BYTE   As2  v080
 BYTE   N06  Cn3  v076
 BYTE   W12
 BYTE   PEND 
 BYTE   PATT
  POIN2 Label_5_012BE284
 BYTE   PATT
  POIN2 Label_5_012BE284
 BYTE   PATT
  POIN2 Label_5_012BE284
 BYTE   PATT
  POIN2 Label_5_012BE284
 BYTE   PATT
  POIN2 Label_5_012BE284
 BYTE   PATT
  POIN2 Label_5_012BE2D3
// 034   ----------------------------------------
 BYTE   W96
// 035   ----------------------------------------
 BYTE   W96
// 036   ----------------------------------------
 BYTE   W96
// 037   ----------------------------------------
 BYTE   W96
// 038   ----------------------------------------
 BYTE   W96
// 039   ----------------------------------------
 BYTE   W96
// 040   ----------------------------------------
 BYTE   W96
// 041   ----------------------------------------
 BYTE   W96
// 042   ----------------------------------------
 BYTE   W96
// 043   ----------------------------------------
 BYTE   W96
// 044   ----------------------------------------
 BYTE   W96
// 045   ----------------------------------------
 BYTE   W96
// 046   ----------------------------------------
 BYTE   W72
 BYTE   N12  Bn1  v104
 BYTE   W24
 BYTE   PATT
  POIN2 Label_5_012BE309
 BYTE   PATT
  POIN2 Label_5_012BE319
 BYTE   PATT
  POIN2 Label_5_012BE335
 BYTE   PATT
  POIN2 Label_5_012BE351
 BYTE   PATT
  POIN2 Label_5_012BE36D
 BYTE   PATT
  POIN2 Label_5_012BE38D
 BYTE   PATT
  POIN2 Label_5_012BE3AB
 BYTE   PATT
  POIN2 Label_5_012BE3D4
 BYTE   PATT
  POIN2 Label_5_012BE3FD
 BYTE   PATT
  POIN2 Label_5_012BE425
 BYTE   PATT
  POIN2 Label_5_012BE44B
 BYTE   PATT
  POIN2 Label_5_012BE45C
 BYTE   PATT
  POIN2 Label_5_012BE46B
 BYTE   PATT
  POIN2 Label_5_012BE47D
 BYTE   PATT
  POIN2 Label_5_012BE49A
 BYTE   PATT
  POIN2 Label_5_012BE4BA
 BYTE   PATT
  POIN2 Label_5_012BE4D5
 BYTE   PATT
  POIN2 Label_5_012BE284
// 047   ----------------------------------------
 BYTE   N06  Fn1  v108
 BYTE   N06  Fn2  v124
 BYTE   W12
 BYTE   As2  v084
 BYTE   N06  Cn3
 BYTE   W12
 BYTE   Fn1  v112
 BYTE   N06  Fn2  v120
 BYTE   W12
 BYTE   As2  v088
 BYTE   N06  Cn3  v092
 BYTE   W12
 BYTE   Fn1  v116
 BYTE   N06  Fn2  v112
 BYTE   W12
 BYTE   As2  v096
 BYTE   N06  Cn3  v100
 BYTE   W06
 BYTE   FINE

//**************** Track 7 (Midi-Chn.6) ****************//

AdvanceWarsDualStrikeJavierLemonTart_007:
// 000   ----------------------------------------
 BYTE   KEYSH   AdvanceWarsDualStrikeJavierLemonTart_key+0
 BYTE   VOICE   121
 BYTE   VOL   65*AdvanceWarsDualStrikeJavierLemonTart_mvl/mxv
 BYTE   N03  Dn1  v044
 BYTE   N06  En1
 BYTE   W03
 BYTE   N03  Dn1
 BYTE   W03
 BYTE   N03
 BYTE   W03
 BYTE   N03
 BYTE   W03
 BYTE   N03
 BYTE   W03
 BYTE   N03
 BYTE   W03
 BYTE   N03
 BYTE   W03
 BYTE   N03
 BYTE   W03
 BYTE   N03
 BYTE   W03
 BYTE   N03
 BYTE   W03
 BYTE   N03
 BYTE   W03
 BYTE   N03
 BYTE   W03
 BYTE   N03
 BYTE   W03
 BYTE   N03
 BYTE   W03
 BYTE   N03
 BYTE   W03
 BYTE   N03
 BYTE   W03
 BYTE   N03
 BYTE   W03
 BYTE   N03
 BYTE   W03
 BYTE   N03
 BYTE   W03
 BYTE   N03
 BYTE   W03
 BYTE   N03
 BYTE   W03
 BYTE   N03
 BYTE   W03
 BYTE   N03
 BYTE   W03
 BYTE   N03
 BYTE   W03
 BYTE   N06  Cn1  v127
 BYTE   W12
 BYTE   N06
 BYTE   W12
// 001   ----------------------------------------
 BYTE   N06
 BYTE   N06  An2  v088
 BYTE   W12
 BYTE   En1  v044
 BYTE   W12
Label_6_012BE5F1:
 BYTE   W12
 BYTE   N06  En1  v044
 BYTE   W24
 BYTE   N06
 BYTE   W24
 BYTE   N06
 BYTE   W24
// 002   ----------------------------------------
 BYTE   N06
 BYTE   W12
 BYTE   PEND 
Label_6_012BE5FD:
 BYTE   W12
 BYTE   N06  En1  v044
 BYTE   W24
 BYTE   N06
 BYTE   W24
 BYTE   Cn1  v127
 BYTE   N06  En1  v044
 BYTE   W12
 BYTE   Cn1  v127
 BYTE   N06  An2  v088
 BYTE   W12
// 003   ----------------------------------------
 BYTE   En1  v044
 BYTE   W12
 BYTE   PEND 
 BYTE   PATT
  POIN2 Label_6_012BE5F1
// 004   ----------------------------------------
Label_6_012BE619:
 BYTE   W12
 BYTE   N06  En1  v044
 BYTE   W24
 BYTE   N06
 BYTE   W24
 BYTE   Cn1  v127
 BYTE   N06  En1  v044
 BYTE   W12
 BYTE   Cn1  v127
 BYTE   N06  En1  v044
 BYTE   N06  An2  v088
 BYTE   W24
 BYTE   PEND 
// 005   ----------------------------------------
Label_6_012BE630:
 BYTE   N03  Dn1  v044
 BYTE   W03
 BYTE   N03
 BYTE   W03
 BYTE   N03
 BYTE   W03
 BYTE   N03
 BYTE   W03
 BYTE   N03
 BYTE   W03
 BYTE   N03
 BYTE   W03
 BYTE   N03
 BYTE   W03
 BYTE   N03
 BYTE   W03
 BYTE   N06  En1
 BYTE   W12
 BYTE   N06
 BYTE   W36
 BYTE   N06
 BYTE   W24
 BYTE   PEND 
// 006   ----------------------------------------
Label_6_012BE64A:
 BYTE   N03  Dn1  v044
 BYTE   W03
 BYTE   N03
 BYTE   W03
 BYTE   N03
 BYTE   W03
 BYTE   N03
 BYTE   W03
 BYTE   N03
 BYTE   W03
 BYTE   N03
 BYTE   W03
 BYTE   N03
 BYTE   W03
 BYTE   N03
 BYTE   W03
 BYTE   N06  En1
 BYTE   W12
 BYTE   N06
 BYTE   W36
 BYTE   Cn1  v127
 BYTE   N06  En1  v044
 BYTE   N06  An2  v088
 BYTE   W24
 BYTE   PEND 
 BYTE   PATT
  POIN2 Label_6_012BE630
// 007   ----------------------------------------
 BYTE   N03  Dn1  v044
 BYTE   W03
 BYTE   N03
 BYTE   W03
 BYTE   N03
 BYTE   W03
 BYTE   N03
 BYTE   W03
 BYTE   N03
 BYTE   W03
 BYTE   N03
 BYTE   W03
 BYTE   N03
 BYTE   W03
 BYTE   N03
 BYTE   W03
 BYTE   N06  En1
 BYTE   W12
 BYTE   N06
 BYTE   W36
 BYTE   N03  Dn1
 BYTE   W03
 BYTE   N03
 BYTE   W03
 BYTE   N03
 BYTE   W03
 BYTE   N03
 BYTE   W03
 BYTE   N03
 BYTE   W03
 BYTE   N03
 BYTE   W03
 BYTE   N03
 BYTE   W03
 BYTE   N03
 BYTE   W03
// 008   ----------------------------------------
Label_6_012BE698:
 BYTE   N03  Dn1  v044
 BYTE   W03
 BYTE   N03
 BYTE   W03
 BYTE   N03
 BYTE   W03
 BYTE   N03
 BYTE   W03
 BYTE   N03
 BYTE   W03
 BYTE   N03
 BYTE   W03
 BYTE   N03
 BYTE   W03
 BYTE   N03
 BYTE   W03
 BYTE   N03
 BYTE   W03
 BYTE   N03
 BYTE   W03
 BYTE   N03
 BYTE   W03
 BYTE   N03
 BYTE   W03
 BYTE   N03
 BYTE   W03
 BYTE   N03
 BYTE   W03
 BYTE   N03
 BYTE   W03
 BYTE   N03
 BYTE   W03
 BYTE   N03
 BYTE   W03
 BYTE   N03
 BYTE   W03
 BYTE   N03
 BYTE   W03
 BYTE   N03
 BYTE   W03
 BYTE   N03
 BYTE   W03
 BYTE   N03
 BYTE   W03
 BYTE   N03
 BYTE   W03
 BYTE   N03
 BYTE   W03
 BYTE   N03
 BYTE   W03
 BYTE   N03
 BYTE   W03
 BYTE   N03
 BYTE   W03
 BYTE   N03
 BYTE   W03
 BYTE   N03
 BYTE   W03
 BYTE   N03
 BYTE   W03
 BYTE   N03
 BYTE   W03
 BYTE   N03
 BYTE   W03
 BYTE   PEND 
// 009   ----------------------------------------
Label_6_012BE6DB:
 BYTE   N03  Dn1  v044
 BYTE   W03
 BYTE   N03
 BYTE   W03
 BYTE   N03
 BYTE   W03
 BYTE   N03
 BYTE   W03
 BYTE   N03
 BYTE   W03
 BYTE   N03
 BYTE   W03
 BYTE   N03
 BYTE   W03
 BYTE   N03
 BYTE   W03
 BYTE   N03
 BYTE   W03
 BYTE   N03
 BYTE   W03
 BYTE   N03
 BYTE   W03
 BYTE   N03
 BYTE   W03
 BYTE   N03
 BYTE   W03
 BYTE   N03
 BYTE   W03
 BYTE   N03
 BYTE   W03
 BYTE   N03
 BYTE   W03
 BYTE   N06  Cn1  v127
 BYTE   N06  An2  v088
 BYTE   W12
 BYTE   Cn1  v127
 BYTE   W12
 BYTE   N06
 BYTE   N06  An2  v088
 BYTE   W24
 BYTE   PEND 
// 010   ----------------------------------------
Label_6_012BE70D:
 BYTE   N06  En1  v044
 BYTE   W12
 BYTE   N03  Dn1
 BYTE   W03
 BYTE   N03
 BYTE   W03
 BYTE   N03
 BYTE   W03
 BYTE   N03
 BYTE   W03
 BYTE   N06  En1
 BYTE   W42
 BYTE   N06
 BYTE   W06
 BYTE   N03  Dn1
 BYTE   W03
 BYTE   N03
 BYTE   W03
 BYTE   N03
 BYTE   W03
 BYTE   N03
 BYTE   W03
 BYTE   N03
 BYTE   W03
 BYTE   N03
 BYTE   W03
 BYTE   N03
 BYTE   W03
 BYTE   N03
 BYTE   W03
 BYTE   PEND 
// 011   ----------------------------------------
Label_6_012BE731:
 BYTE   N03  Dn1  v044
 BYTE   W03
 BYTE   N03
 BYTE   W03
 BYTE   N03
 BYTE   W03
 BYTE   N03
 BYTE   W03
 BYTE   N03
 BYTE   W03
 BYTE   N03
 BYTE   W03
 BYTE   N03
 BYTE   W03
 BYTE   N03
 BYTE   W03
 BYTE   N03
 BYTE   W03
 BYTE   N03
 BYTE   W03
 BYTE   N03
 BYTE   W03
 BYTE   N03
 BYTE   W03
 BYTE   N03
 BYTE   W03
 BYTE   N03
 BYTE   W03
 BYTE   N03
 BYTE   W03
 BYTE   N03
 BYTE   W03
 BYTE   N06  Cn1  v127
 BYTE   N06  An2  v088
 BYTE   W12
 BYTE   Cn1  v127
 BYTE   W12
 BYTE   N06
 BYTE   W12
 BYTE   En1  v044
 BYTE   W12
 BYTE   PEND 
// 012   ----------------------------------------
Label_6_012BE763:
 BYTE   W12
 BYTE   N06  En1  v044
 BYTE   W24
 BYTE   N06
 BYTE   W24
 BYTE   N06
 BYTE   W12
 BYTE   Cn1  v127
 BYTE   W12
 BYTE   En1  v044
 BYTE   W12
 BYTE   PEND 
// 013   ----------------------------------------
Label_6_012BE773:
 BYTE   W12
 BYTE   N06  En1  v044
 BYTE   W12
 BYTE   N03  Dn1
 BYTE   W03
 BYTE   N03
 BYTE   W03
 BYTE   N03
 BYTE   W03
 BYTE   N03
 BYTE   W03
 BYTE   N06  En1
 BYTE   W36
 BYTE   Cn1  v127
 BYTE   N06  An2  v088
 BYTE   W18
 BYTE   En1  v044
 BYTE   W06
 BYTE   PEND 
// 014   ----------------------------------------
Label_6_012BE78E:
 BYTE   W24
 BYTE   N06  En1  v044
 BYTE   W30
 BYTE   N06
 BYTE   W18
 BYTE   N03  Dn1
 BYTE   W03
 BYTE   N03
 BYTE   W03
 BYTE   N03
 BYTE   W03
 BYTE   N03
 BYTE   W15
 BYTE   PEND 
// 015   ----------------------------------------
Label_6_012BE79F:
 BYTE   N06  En1  v044
 BYTE   W24
 BYTE   N06
 BYTE   W18
 BYTE   N06
 BYTE   W30
 BYTE   Cn1  v127
 BYTE   N06  An2  v088
 BYTE   W24
 BYTE   PEND 
// 016   ----------------------------------------
Label_6_012BE7AE:
 BYTE   N06  En1  v044
 BYTE   W24
 BYTE   N06
 BYTE   W30
 BYTE   N06
 BYTE   W18
 BYTE   N03  Dn1
 BYTE   W03
 BYTE   N03
 BYTE   W03
 BYTE   N03
 BYTE   W03
 BYTE   N03
 BYTE   W15
 BYTE   PEND 
// 017   ----------------------------------------
Label_6_012BE7C0:
 BYTE   N06  En1  v044
 BYTE   W24
 BYTE   N06
 BYTE   W18
 BYTE   N06
 BYTE   W30
 BYTE   Cn1  v127
 BYTE   N06  An2  v088
 BYTE   W18
 BYTE   En1  v044
 BYTE   W06
 BYTE   PEND 
 BYTE   PATT
  POIN2 Label_6_012BE78E
 BYTE   PATT
  POIN2 Label_6_012BE79F
// 018   ----------------------------------------
Label_6_012BE7DC:
 BYTE   N06  En1  v044
 BYTE   W24
 BYTE   N06
 BYTE   W30
 BYTE   N06
 BYTE   W18
 BYTE   Cn1  v127
 BYTE   N06  An2  v088
 BYTE   W24
 BYTE   PEND 
// 019   ----------------------------------------
Label_6_012BE7EB:
 BYTE   N06  En1  v044
 BYTE   W24
 BYTE   Cn1  v127
 BYTE   N06  En1  v044
 BYTE   N06  An2  v088
 BYTE   W06
 BYTE   En1  v044
 BYTE   W06
 BYTE   N06
 BYTE   W06
 BYTE   N03  Dn1
 BYTE   W03
 BYTE   N03
 BYTE   W03
 BYTE   N03
 BYTE   W03
 BYTE   N03
 BYTE   W03
 BYTE   N03
 BYTE   W03
 BYTE   N03
 BYTE   W03
 BYTE   N03
 BYTE   W03
 BYTE   N03
 BYTE   W03
 BYTE   N03
 BYTE   W03
 BYTE   N03
 BYTE   W03
 BYTE   N06  Cn1  v127
 BYTE   N06  An2  v088
 BYTE   W12
 BYTE   En1  v044
 BYTE   W12
 BYTE   PEND 
 BYTE   PATT
  POIN2 Label_6_012BE5F1
 BYTE   PATT
  POIN2 Label_6_012BE5FD
 BYTE   PATT
  POIN2 Label_6_012BE5F1
 BYTE   PATT
  POIN2 Label_6_012BE5FD
// 020   ----------------------------------------
Label_6_012BE831:
 BYTE   W12
 BYTE   N06  En1  v044
 BYTE   W24
 BYTE   N06
 BYTE   W24
 BYTE   N06
 BYTE   W12
 BYTE   Cn1  v127
 BYTE   N06  An2  v088
 BYTE   W12
 BYTE   En1  v044
 BYTE   W12
 BYTE   PEND 
 BYTE   PATT
  POIN2 Label_6_012BE5F1
 BYTE   PATT
  POIN2 Label_6_012BE5FD
 BYTE   PATT
  POIN2 Label_6_012BE5F1
// 021   ----------------------------------------
 BYTE   W12
 BYTE   N06  En1  v044
 BYTE   W24
 BYTE   N06
 BYTE   W24
 BYTE   Cn1  v127
 BYTE   N06  En1  v044
 BYTE   W12
 BYTE   Cn1  v127
 BYTE   N06  An2  v088
 BYTE   W24
// 022   ----------------------------------------
 BYTE   W24
 BYTE   N03  Dn1  v044
 BYTE   W03
 BYTE   N03
 BYTE   W03
 BYTE   N03
 BYTE   W03
 BYTE   N03
 BYTE   W03
 BYTE   N03
 BYTE   W03
 BYTE   N03
 BYTE   W03
 BYTE   N03
 BYTE   W03
 BYTE   N03
 BYTE   W03
 BYTE   N03
 BYTE   W03
 BYTE   N03
 BYTE   W03
 BYTE   N03
 BYTE   W03
 BYTE   N03
 BYTE   W03
 BYTE   N03
 BYTE   W03
 BYTE   N03
 BYTE   W03
 BYTE   N03
 BYTE   W03
 BYTE   N03
 BYTE   W03
 BYTE   N03
 BYTE   W03
 BYTE   N03
 BYTE   W03
 BYTE   N03
 BYTE   W03
 BYTE   N03
 BYTE   W03
 BYTE   N03
 BYTE   W03
 BYTE   N03
 BYTE   W03
 BYTE   N03
 BYTE   W03
 BYTE   N03
 BYTE   W03
 BYTE   PATT
  POIN2 Label_6_012BE698
// 023   ----------------------------------------
Label_6_012BE89E:
 BYTE   N03  Dn1  v044
 BYTE   W03
 BYTE   N03
 BYTE   W03
 BYTE   N03
 BYTE   W03
 BYTE   N03
 BYTE   W03
 BYTE   N03
 BYTE   W03
 BYTE   N03
 BYTE   W03
 BYTE   N03
 BYTE   W03
 BYTE   N03
 BYTE   W03
 BYTE   N03
 BYTE   W03
 BYTE   N03
 BYTE   W03
 BYTE   N03
 BYTE   W03
 BYTE   N03
 BYTE   W03
 BYTE   N03
 BYTE   W03
 BYTE   N03
 BYTE   W03
 BYTE   N03
 BYTE   W03
 BYTE   N03
 BYTE   W03
 BYTE   N03
 BYTE   W03
 BYTE   N03
 BYTE   W03
 BYTE   N03
 BYTE   W03
 BYTE   N03
 BYTE   W03
 BYTE   N03
 BYTE   W03
 BYTE   N03
 BYTE   W03
 BYTE   N03
 BYTE   W03
 BYTE   N03
 BYTE   W03
 BYTE   N06  Cn1  v127
 BYTE   N06  An2  v088
 BYTE   W12
 BYTE   En1  v044
 BYTE   W12
 BYTE   PEND 
 BYTE   PATT
  POIN2 Label_6_012BE5F1
 BYTE   PATT
  POIN2 Label_6_012BE5FD
// 024   ----------------------------------------
Label_6_012BE8E5:
 BYTE   W12
 BYTE   N06  En1  v044
 BYTE   W24
 BYTE   N06
 BYTE   W24
 BYTE   N06
 BYTE   W12
 BYTE   N06
 BYTE   W24
 BYTE   PEND 
// 025   ----------------------------------------
Label_6_012BE8F1:
 BYTE   N03  Dn1  v044
 BYTE   W03
 BYTE   N03
 BYTE   W03
 BYTE   N03
 BYTE   W03
 BYTE   N03
 BYTE   W03
 BYTE   N03
 BYTE   W03
 BYTE   N03
 BYTE   W03
 BYTE   N03
 BYTE   W03
 BYTE   N03
 BYTE   W03
 BYTE   N03
 BYTE   W03
 BYTE   N03
 BYTE   W03
 BYTE   N03
 BYTE   W03
 BYTE   N03
 BYTE   W03
 BYTE   N03
 BYTE   W03
 BYTE   N03
 BYTE   W03
 BYTE   N03
 BYTE   W03
 BYTE   N03
 BYTE   W03
 BYTE   N06  An2  v088
 BYTE   W24
 BYTE   Cn1  v127
 BYTE   N06  An2  v088
 BYTE   W12
 BYTE   En1  v044
 BYTE   W12
 BYTE   PEND 
 BYTE   PATT
  POIN2 Label_6_012BE5F1
 BYTE   PATT
  POIN2 Label_6_012BE619
 BYTE   PATT
  POIN2 Label_6_012BE630
 BYTE   PATT
  POIN2 Label_6_012BE64A
 BYTE   PATT
  POIN2 Label_6_012BE630
// 026   ----------------------------------------
 BYTE   N03  Dn1  v044
 BYTE   W03
 BYTE   N03
 BYTE   W03
 BYTE   N03
 BYTE   W03
 BYTE   N03
 BYTE   W03
 BYTE   N03
 BYTE   W03
 BYTE   N03
 BYTE   W03
 BYTE   N03
 BYTE   W03
 BYTE   N03
 BYTE   W03
 BYTE   N06  En1
 BYTE   W12
 BYTE   N06
 BYTE   W36
 BYTE   VOL   11*AdvanceWarsDualStrikeJavierLemonTart_mvl/mxv
 BYTE   N03  Dn1
 BYTE   W01
 BYTE   VOL   9*AdvanceWarsDualStrikeJavierLemonTart_mvl/mxv
 BYTE   W01
 BYTE   BnM1
 BYTE   W01
 BYTE   BnM1
 BYTE   N03
 BYTE   W01
 BYTE   VOL   7*AdvanceWarsDualStrikeJavierLemonTart_mvl/mxv
 BYTE   W01
 BYTE   AsM1
 BYTE   W01
 BYTE   GsM1
 BYTE   N03
 BYTE   W01
 BYTE   VOL   5*AdvanceWarsDualStrikeJavierLemonTart_mvl/mxv
 BYTE   W01
 BYTE   GnM1
 BYTE   W01
 BYTE   FsM1
 BYTE   N03
 BYTE   W01
 BYTE   VOL   3*AdvanceWarsDualStrikeJavierLemonTart_mvl/mxv
 BYTE   W01
 BYTE   FnM1
 BYTE   W01
 BYTE   EnM1
 BYTE   N03
 BYTE   W01
 BYTE   VOL   0*AdvanceWarsDualStrikeJavierLemonTart_mvl/mxv
 BYTE   W01
 BYTE   DnM1
 BYTE   W01
 BYTE   N03
 BYTE   W01
 BYTE   VOL   0*AdvanceWarsDualStrikeJavierLemonTart_mvl/mxv
 BYTE   W01
 BYTE   EnM1
 BYTE   W01
 BYTE   FnM1
 BYTE   N03
 BYTE   W01
 BYTE   VOL   3*AdvanceWarsDualStrikeJavierLemonTart_mvl/mxv
 BYTE   W01
 BYTE   FsM1
 BYTE   W01
 BYTE   GnM1
 BYTE   N03
 BYTE   W01
 BYTE   VOL   5*AdvanceWarsDualStrikeJavierLemonTart_mvl/mxv
 BYTE   W01
 BYTE   AnM1
 BYTE   W01
// 027   ----------------------------------------
 BYTE   AsM1
 BYTE   N03
 BYTE   W01
 BYTE   VOL   8*AdvanceWarsDualStrikeJavierLemonTart_mvl/mxv
 BYTE   W01
 BYTE   BnM1
 BYTE   W01
 BYTE   Cn0
 BYTE   N03
 BYTE   W01
 BYTE   VOL   10*AdvanceWarsDualStrikeJavierLemonTart_mvl/mxv
 BYTE   W01
 BYTE   Dn0
 BYTE   W01
 BYTE   Ds0
 BYTE   N03
 BYTE   W01
 BYTE   VOL   13*AdvanceWarsDualStrikeJavierLemonTart_mvl/mxv
 BYTE   W01
 BYTE   En0
 BYTE   W01
 BYTE   Fn0
 BYTE   N03
 BYTE   W01
 BYTE   VOL   15*AdvanceWarsDualStrikeJavierLemonTart_mvl/mxv
 BYTE   W01
 BYTE   Gn0
 BYTE   W01
 BYTE   Gs0
 BYTE   N03
 BYTE   W01
 BYTE   VOL   18*AdvanceWarsDualStrikeJavierLemonTart_mvl/mxv
 BYTE   W01
 BYTE   As0
 BYTE   W01
 BYTE   As0
 BYTE   N03
 BYTE   W01
 BYTE   VOL   20*AdvanceWarsDualStrikeJavierLemonTart_mvl/mxv
 BYTE   W01
 BYTE   Cn1
 BYTE   W01
 BYTE   Cs1
 BYTE   N03
 BYTE   W01
 BYTE   VOL   23*AdvanceWarsDualStrikeJavierLemonTart_mvl/mxv
 BYTE   W01
 BYTE   Ds1
 BYTE   W01
 BYTE   Ds1
 BYTE   N03
 BYTE   W01
 BYTE   VOL   25*AdvanceWarsDualStrikeJavierLemonTart_mvl/mxv
 BYTE   W01
 BYTE   Fn1
 BYTE   W01
 BYTE   Fs1
 BYTE   N03
 BYTE   W01
 BYTE   VOL   28*AdvanceWarsDualStrikeJavierLemonTart_mvl/mxv
 BYTE   W01
 BYTE   Gs1
 BYTE   W01
 BYTE   Gs1
 BYTE   N03
 BYTE   W01
 BYTE   VOL   30*AdvanceWarsDualStrikeJavierLemonTart_mvl/mxv
 BYTE   W01
 BYTE   As1
 BYTE   W01
 BYTE   Bn1
 BYTE   N03
 BYTE   W01
 BYTE   VOL   33*AdvanceWarsDualStrikeJavierLemonTart_mvl/mxv
 BYTE   W01
 BYTE   Cs2
 BYTE   W01
 BYTE   Cs2
 BYTE   N03
 BYTE   W01
 BYTE   VOL   36*AdvanceWarsDualStrikeJavierLemonTart_mvl/mxv
 BYTE   W01
 BYTE   Ds2
 BYTE   W01
 BYTE   En2
 BYTE   N03
 BYTE   W01
 BYTE   VOL   38*AdvanceWarsDualStrikeJavierLemonTart_mvl/mxv
 BYTE   W01
 BYTE   Fs2
 BYTE   W01
 BYTE   Fs2
 BYTE   N03
 BYTE   W01
 BYTE   VOL   40*AdvanceWarsDualStrikeJavierLemonTart_mvl/mxv
 BYTE   W01
 BYTE   Gs2
 BYTE   W01
 BYTE   Gs2
 BYTE   N03
 BYTE   W01
 BYTE   VOL   42*AdvanceWarsDualStrikeJavierLemonTart_mvl/mxv
 BYTE   W01
 BYTE   As2
 BYTE   W01
 BYTE   Bn2
 BYTE   N03
 BYTE   W01
 BYTE   VOL   45*AdvanceWarsDualStrikeJavierLemonTart_mvl/mxv
 BYTE   W01
 BYTE   Cs3
 BYTE   W01
 BYTE   Cs3
 BYTE   N03
 BYTE   W01
 BYTE   VOL   47*AdvanceWarsDualStrikeJavierLemonTart_mvl/mxv
 BYTE   W01
 BYTE   Ds3
 BYTE   W01
 BYTE   En3
 BYTE   N03
 BYTE   W01
 BYTE   VOL   50*AdvanceWarsDualStrikeJavierLemonTart_mvl/mxv
 BYTE   W01
 BYTE   Fs3
 BYTE   W01
 BYTE   Fs3
 BYTE   N03
 BYTE   W01
 BYTE   VOL   53*AdvanceWarsDualStrikeJavierLemonTart_mvl/mxv
 BYTE   W01
 BYTE   Gs3
 BYTE   W01
 BYTE   An3
 BYTE   N03
 BYTE   W01
 BYTE   VOL   55*AdvanceWarsDualStrikeJavierLemonTart_mvl/mxv
 BYTE   W01
 BYTE   Bn3
 BYTE   W01
 BYTE   Bn3
 BYTE   N03
 BYTE   W01
 BYTE   VOL   58*AdvanceWarsDualStrikeJavierLemonTart_mvl/mxv
 BYTE   W01
 BYTE   Cs4
 BYTE   W01
 BYTE   Dn4
 BYTE   N03
 BYTE   W01
 BYTE   VOL   60*AdvanceWarsDualStrikeJavierLemonTart_mvl/mxv
 BYTE   W01
 BYTE   En4
 BYTE   W01
 BYTE   En4
 BYTE   N03
 BYTE   W01
 BYTE   VOL   63*AdvanceWarsDualStrikeJavierLemonTart_mvl/mxv
 BYTE   W01
 BYTE   Fs4
 BYTE   W01
 BYTE   Gs4
 BYTE   N03
 BYTE   W03
 BYTE   N03
 BYTE   W03
 BYTE   N03
 BYTE   W03
 BYTE   N03
 BYTE   W03
 BYTE   N03
 BYTE   W03
 BYTE   N03
 BYTE   W03
 BYTE   N03
 BYTE   W03
 BYTE   N03
 BYTE   W03
 BYTE   N03
 BYTE   W03
 BYTE   PATT
  POIN2 Label_6_012BE6DB
 BYTE   PATT
  POIN2 Label_6_012BE70D
 BYTE   PATT
  POIN2 Label_6_012BE731
 BYTE   PATT
  POIN2 Label_6_012BE763
 BYTE   PATT
  POIN2 Label_6_012BE773
 BYTE   PATT
  POIN2 Label_6_012BE78E
 BYTE   PATT
  POIN2 Label_6_012BE79F
 BYTE   PATT
  POIN2 Label_6_012BE7AE
 BYTE   PATT
  POIN2 Label_6_012BE7C0
 BYTE   PATT
  POIN2 Label_6_012BE78E
 BYTE   PATT
  POIN2 Label_6_012BE79F
 BYTE   PATT
  POIN2 Label_6_012BE7DC
 BYTE   PATT
  POIN2 Label_6_012BE7EB
 BYTE   PATT
  POIN2 Label_6_012BE5F1
 BYTE   PATT
  POIN2 Label_6_012BE5FD
 BYTE   PATT
  POIN2 Label_6_012BE5F1
 BYTE   PATT
  POIN2 Label_6_012BE5FD
 BYTE   PATT
  POIN2 Label_6_012BE831
 BYTE   PATT
  POIN2 Label_6_012BE5F1
 BYTE   PATT
  POIN2 Label_6_012BE5FD
 BYTE   PATT
  POIN2 Label_6_012BE5F1
// 028   ----------------------------------------
 BYTE   W12
 BYTE   N06  En1  v044
 BYTE   W24
 BYTE   N06
 BYTE   W24
 BYTE   Cn1  v127
 BYTE   N06  En1  v044
 BYTE   W12
 BYTE   VOL   41*AdvanceWarsDualStrikeJavierLemonTart_mvl/mxv
 BYTE   N06  Cn1  v127
 BYTE   N06  An2  v088
 BYTE   W01
 BYTE   VOL   40*AdvanceWarsDualStrikeJavierLemonTart_mvl/mxv
 BYTE   W01
 BYTE   Fs2
 BYTE   W01
 BYTE   Fn2
 BYTE   W01
 BYTE   En2
 BYTE   W01
 BYTE   Ds2
 BYTE   W01
 BYTE   Dn2
 BYTE   W01
 BYTE   Cs2
 BYTE   W01
 BYTE   Cs2
 BYTE   W01
 BYTE   Bn1
 BYTE   W01
 BYTE   Bn1
 BYTE   W01
 BYTE   An1
 BYTE   W01
 BYTE   An1
 BYTE   W01
 BYTE   Gs1
 BYTE   W01
 BYTE   Gn1
 BYTE   W01
 BYTE   Fs1
 BYTE   W01
 BYTE   Fn1
 BYTE   W01
 BYTE   En1
 BYTE   W01
 BYTE   Ds1
 BYTE   W01
 BYTE   Ds1
 BYTE   W01
 BYTE   Cs1
 BYTE   W01
 BYTE   Cs1
 BYTE   W01
 BYTE   Cn1
 BYTE   W01
 BYTE   Bn0
 BYTE   W01
// 029   ----------------------------------------
 BYTE   As0
 BYTE   W01
 BYTE   An0
 BYTE   W01
 BYTE   Gs0
 BYTE   W01
 BYTE   Gn0
 BYTE   W01
 BYTE   Fs0
 BYTE   W01
 BYTE   Fs0
 BYTE   W01
 BYTE   En0
 BYTE   W01
 BYTE   En0
 BYTE   W01
 BYTE   Ds0
 BYTE   W01
 BYTE   Dn0
 BYTE   W01
 BYTE   Cs0
 BYTE   W01
 BYTE   Cn0
 BYTE   W01
 BYTE   BnM1
 BYTE   W01
 BYTE   AsM1
 BYTE   W01
 BYTE   AsM1
 BYTE   W01
 BYTE   GsM1
 BYTE   W01
 BYTE   GsM1
 BYTE   W01
 BYTE   FsM1
 BYTE   W01
 BYTE   FsM1
 BYTE   W01
 BYTE   FnM1
 BYTE   W01
 BYTE   EnM1
 BYTE   W01
 BYTE   DsM1
 BYTE   W01
 BYTE   DsM1
 BYTE   W01
 BYTE   EnM1
 BYTE   W01
 BYTE   FnM1
 BYTE   N03  Dn1  v044
 BYTE   W01
 BYTE   VOL   3*AdvanceWarsDualStrikeJavierLemonTart_mvl/mxv
 BYTE   W01
 BYTE   GnM1
 BYTE   W01
 BYTE   GsM1
 BYTE   N03
 BYTE   W01
 BYTE   VOL   7*AdvanceWarsDualStrikeJavierLemonTart_mvl/mxv
 BYTE   W01
 BYTE   BnM1
 BYTE   W01
 BYTE   Cn0
 BYTE   N03
 BYTE   W01
 BYTE   VOL   10*AdvanceWarsDualStrikeJavierLemonTart_mvl/mxv
 BYTE   W01
 BYTE   Dn0
 BYTE   W01
 BYTE   Ds0
 BYTE   N03
 BYTE   W01
 BYTE   VOL   13*AdvanceWarsDualStrikeJavierLemonTart_mvl/mxv
 BYTE   W01
 BYTE   En0
 BYTE   W01
 BYTE   Fs0
 BYTE   N03
 BYTE   W01
 BYTE   VOL   15*AdvanceWarsDualStrikeJavierLemonTart_mvl/mxv
 BYTE   W01
 BYTE   Gs0
 BYTE   W01
 BYTE   Gs0
 BYTE   N03
 BYTE   W01
 BYTE   VOL   19*AdvanceWarsDualStrikeJavierLemonTart_mvl/mxv
 BYTE   W01
 BYTE   As0
 BYTE   W01
 BYTE   Bn0
 BYTE   N03
 BYTE   W01
 BYTE   VOL   20*AdvanceWarsDualStrikeJavierLemonTart_mvl/mxv
 BYTE   W01
 BYTE   Cs1
 BYTE   W01
 BYTE   Cs1
 BYTE   N03
 BYTE   W01
 BYTE   VOL   23*AdvanceWarsDualStrikeJavierLemonTart_mvl/mxv
 BYTE   W01
 BYTE   Ds1
 BYTE   W01
 BYTE   En1
 BYTE   N03
 BYTE   W02
 BYTE   VOL   26*AdvanceWarsDualStrikeJavierLemonTart_mvl/mxv
 BYTE   W01
 BYTE   Fs1
 BYTE   N03
 BYTE   W01
 BYTE   VOL   27*AdvanceWarsDualStrikeJavierLemonTart_mvl/mxv
 BYTE   W01
 BYTE   Gn1
 BYTE   W01
 BYTE   Gs1
 BYTE   N03
 BYTE   W01
 BYTE   VOL   30*AdvanceWarsDualStrikeJavierLemonTart_mvl/mxv
 BYTE   W01
 BYTE   An1
 BYTE   W01
 BYTE   As1
 BYTE   N03
 BYTE   W02
 BYTE   VOL   32*AdvanceWarsDualStrikeJavierLemonTart_mvl/mxv
 BYTE   W01
 BYTE   Bn1
 BYTE   N03
 BYTE   W01
 BYTE   VOL   34*AdvanceWarsDualStrikeJavierLemonTart_mvl/mxv
 BYTE   W02
 BYTE   Cs2
 BYTE   N03
 BYTE   W01
 BYTE   VOL   35*AdvanceWarsDualStrikeJavierLemonTart_mvl/mxv
 BYTE   W01
 BYTE   Ds2
 BYTE   W01
 BYTE   N03
 BYTE   W01
 BYTE   VOL   36*AdvanceWarsDualStrikeJavierLemonTart_mvl/mxv
 BYTE   W01
 BYTE   En2
 BYTE   W01
 BYTE   En2
 BYTE   N03
 BYTE   W02
 BYTE   VOL   38*AdvanceWarsDualStrikeJavierLemonTart_mvl/mxv
 BYTE   W01
 BYTE   Fs2
 BYTE   N03
 BYTE   W01
 BYTE   VOL   39*AdvanceWarsDualStrikeJavierLemonTart_mvl/mxv
 BYTE   W02
 BYTE   Gn2
 BYTE   N03
 BYTE   W01
 BYTE   VOL   41*AdvanceWarsDualStrikeJavierLemonTart_mvl/mxv
 BYTE   W01
 BYTE   Gs2
 BYTE   W01
 BYTE   N03
 BYTE   W01
 BYTE   VOL   42*AdvanceWarsDualStrikeJavierLemonTart_mvl/mxv
 BYTE   W01
 BYTE   An2
 BYTE   W01
 BYTE   As2
 BYTE   N03
 BYTE   W02
 BYTE   VOL   44*AdvanceWarsDualStrikeJavierLemonTart_mvl/mxv
 BYTE   W01
 BYTE   Bn2
 BYTE   N03
 BYTE   W01
 BYTE   VOL   45*AdvanceWarsDualStrikeJavierLemonTart_mvl/mxv
 BYTE   W02
 BYTE   Cs3
 BYTE   N03
 BYTE   W02
 BYTE   VOL   46*AdvanceWarsDualStrikeJavierLemonTart_mvl/mxv
 BYTE   W01
 BYTE   N03
 BYTE   W01
 BYTE   VOL   47*AdvanceWarsDualStrikeJavierLemonTart_mvl/mxv
 BYTE   W01
 BYTE   Dn3
 BYTE   W01
 BYTE   N03
 BYTE   W02
 BYTE   VOL   48*AdvanceWarsDualStrikeJavierLemonTart_mvl/mxv
 BYTE   W01
// 030   ----------------------------------------
 BYTE   En3
 BYTE   N03
 BYTE   W01
 BYTE   VOL   49*AdvanceWarsDualStrikeJavierLemonTart_mvl/mxv
 BYTE   W02
 BYTE   N03
 BYTE   W01
 BYTE   VOL   50*AdvanceWarsDualStrikeJavierLemonTart_mvl/mxv
 BYTE   W01
 BYTE   Fs3
 BYTE   W01
 BYTE   N03
 BYTE   W02
 BYTE   VOL   51*AdvanceWarsDualStrikeJavierLemonTart_mvl/mxv
 BYTE   W01
 BYTE   Gn3
 BYTE   N03
 BYTE   W03
 BYTE   VOL   53*AdvanceWarsDualStrikeJavierLemonTart_mvl/mxv
 BYTE   N03
 BYTE   W01
 BYTE   VOL   53*AdvanceWarsDualStrikeJavierLemonTart_mvl/mxv
 BYTE   W02
 BYTE   N03
 BYTE   W01
 BYTE   VOL   54*AdvanceWarsDualStrikeJavierLemonTart_mvl/mxv
 BYTE   W02
 BYTE   An3
 BYTE   N03
 BYTE   W03
 BYTE   VOL   55*AdvanceWarsDualStrikeJavierLemonTart_mvl/mxv
 BYTE   N03
 BYTE   W01
 BYTE   VOL   56*AdvanceWarsDualStrikeJavierLemonTart_mvl/mxv
 BYTE   W02
 BYTE   N03
 BYTE   W01
 BYTE   VOL   56*AdvanceWarsDualStrikeJavierLemonTart_mvl/mxv
 BYTE   W02
 BYTE   N03
 BYTE   W01
 BYTE   VOL   57*AdvanceWarsDualStrikeJavierLemonTart_mvl/mxv
 BYTE   W02
 BYTE   Cs4
 BYTE   N03
 BYTE   W03
 BYTE   VOL   58*AdvanceWarsDualStrikeJavierLemonTart_mvl/mxv
 BYTE   N03
 BYTE   W03
 BYTE   VOL   59*AdvanceWarsDualStrikeJavierLemonTart_mvl/mxv
 BYTE   N03
 BYTE   W02
 BYTE   VOL   59*AdvanceWarsDualStrikeJavierLemonTart_mvl/mxv
 BYTE   W01
 BYTE   N03
 BYTE   W03
 BYTE   VOL   60*AdvanceWarsDualStrikeJavierLemonTart_mvl/mxv
 BYTE   N03
 BYTE   W03
 BYTE   VOL   61*AdvanceWarsDualStrikeJavierLemonTart_mvl/mxv
 BYTE   N03
 BYTE   W03
 BYTE   VOL   61*AdvanceWarsDualStrikeJavierLemonTart_mvl/mxv
 BYTE   N03
 BYTE   W03
 BYTE   N03
 BYTE   W01
 BYTE   VOL   62*AdvanceWarsDualStrikeJavierLemonTart_mvl/mxv
 BYTE   W02
 BYTE   Fs4
 BYTE   N03
 BYTE   W03
 BYTE   N03
 BYTE   W01
 BYTE   VOL   63*AdvanceWarsDualStrikeJavierLemonTart_mvl/mxv
 BYTE   W02
 BYTE   N03
 BYTE   W01
 BYTE   VOL   64*AdvanceWarsDualStrikeJavierLemonTart_mvl/mxv
 BYTE   W02
 BYTE   N03
 BYTE   W01
 BYTE   VOL   65*AdvanceWarsDualStrikeJavierLemonTart_mvl/mxv
 BYTE   W02
 BYTE   N03
 BYTE   W03
 BYTE   N03
 BYTE   W03
 BYTE   N03
 BYTE   W03
 BYTE   N03
 BYTE   W03
 BYTE   N03
 BYTE   W03
 BYTE   N03
 BYTE   W03
 BYTE   N03
 BYTE   W03
 BYTE   N03
 BYTE   W03
 BYTE   N03
 BYTE   W03
 BYTE   N03
 BYTE   W03
 BYTE   PATT
  POIN2 Label_6_012BE89E
 BYTE   PATT
  POIN2 Label_6_012BE5F1
 BYTE   PATT
  POIN2 Label_6_012BE5FD
 BYTE   PATT
  POIN2 Label_6_012BE8E5
 BYTE   PATT
  POIN2 Label_6_012BE8F1
 BYTE   PATT
  POIN2 Label_6_012BE5F1
// 031   ----------------------------------------
 BYTE   W12
 BYTE   N06  En1  v044
 BYTE   W24
 BYTE   N06
 BYTE   W24
 BYTE   Cn1  v127
 BYTE   N06  En1  v044
 BYTE   W06
 BYTE   FINE

//**************** Track 8 (Midi-Chn.7) ****************//

AdvanceWarsDualStrikeJavierLemonTart_008:
// 000   ----------------------------------------
 BYTE   KEYSH   AdvanceWarsDualStrikeJavierLemonTart_key+0
 BYTE   VOICE   48
 BYTE   VOL   55*AdvanceWarsDualStrikeJavierLemonTart_mvl/mxv
 BYTE   PAN   c_v-11
 BYTE   N06  Cs1  v100
 BYTE   N06  Cs2
 BYTE   N06  Cs3
 BYTE   W12
 BYTE   Cs1
 BYTE   N06  Cs2
 BYTE   N06  Cs3
 BYTE   W12
 BYTE   Cs1
 BYTE   N06  Cs2
 BYTE   N06  Cs3
 BYTE   W12
 BYTE   Cs1
 BYTE   N06  Cs2
 BYTE   N06  Cs3
 BYTE   W12
 BYTE   Cs1
 BYTE   N06  Cs2
 BYTE   N06  Cs3
 BYTE   W12
 BYTE   Cs1
 BYTE   N06  Cs2
 BYTE   N06  Cs3
 BYTE   W12
 BYTE   N12  Dn1
 BYTE   N06  Dn2  v108
 BYTE   N06  Fn2  v120
 BYTE   N06  Bn2  v112
 BYTE   N06  Bn3
 BYTE   W12
 BYTE   N12  Ds1  v116
 BYTE   N06  Ds2
 BYTE   N06  Fs2  v120
 BYTE   N06  Cn3  v112
 BYTE   N06  Cn4
 BYTE   W12
// 001   ----------------------------------------
 BYTE   Fn1
 BYTE   N06  Fn2  v120
 BYTE   N06  Fn4
 BYTE   W12
 BYTE   As2  v080
 BYTE   N06  Cn3  v076
 BYTE   W12
Label_7_012BECE7:
 BYTE   N06  Fn1  v108
 BYTE   N06  Fn2  v124
 BYTE   W12
 BYTE   As2  v084
 BYTE   N06  Cn3
 BYTE   W12
 BYTE   Fn1  v112
 BYTE   N06  Fn2  v120
 BYTE   W12
 BYTE   As2  v088
 BYTE   N06  Cn3  v092
 BYTE   W12
 BYTE   Fn1  v116
 BYTE   N06  Fn2  v112
 BYTE   W12
 BYTE   As2  v096
 BYTE   N06  Cn3  v100
 BYTE   W12
// 002   ----------------------------------------
 BYTE   Fn1  v112
 BYTE   N06  Fn2  v127
 BYTE   W12
 BYTE   As2  v080
 BYTE   N06  Cn3  v076
 BYTE   W12
 BYTE   PEND 
 BYTE   PATT
  POIN2 Label_7_012BECE7
 BYTE   PATT
  POIN2 Label_7_012BECE7
 BYTE   PATT
  POIN2 Label_7_012BECE7
 BYTE   PATT
  POIN2 Label_7_012BECE7
 BYTE   PATT
  POIN2 Label_7_012BECE7
 BYTE   PATT
  POIN2 Label_7_012BECE7
// 003   ----------------------------------------
Label_7_012BED36:
 BYTE   N06  Fn1  v108
 BYTE   N06  Fn2  v124
 BYTE   W12
 BYTE   As2  v084
 BYTE   N06  Cn3
 BYTE   W12
 BYTE   Fn1  v112
 BYTE   N06  Fn2  v120
 BYTE   W12
 BYTE   As2  v088
 BYTE   N06  Cn3  v092
 BYTE   W12
 BYTE   Fn1  v116
 BYTE   N06  Fn2  v112
 BYTE   W12
 BYTE   As2  v096
 BYTE   N06  Cn3  v100
 BYTE   W12
 BYTE   Dn1  v112
 BYTE   N06  Dn2  v127
 BYTE   W12
 BYTE   As2  v080
 BYTE   N06  Cn3  v076
 BYTE   W12
 BYTE   PEND 
// 004   ----------------------------------------
Label_7_012BED67:
 BYTE   N06  Dn1  v108
 BYTE   N06  Dn2  v124
 BYTE   W12
 BYTE   As2  v084
 BYTE   N06  Cn3
 BYTE   W12
 BYTE   Ds1  v112
 BYTE   N06  Ds2  v120
 BYTE   W12
 BYTE   As2  v088
 BYTE   N06  Cn3  v092
 BYTE   W12
 BYTE   Ds1  v116
 BYTE   N06  Ds2  v112
 BYTE   W12
 BYTE   As2  v096
 BYTE   N06  Cn3  v100
 BYTE   W12
 BYTE   Fn1  v112
 BYTE   N06  Fn2  v127
 BYTE   W12
 BYTE   As2  v080
 BYTE   N06  Cn3  v076
 BYTE   W08
 BYTE   VOL   54*AdvanceWarsDualStrikeJavierLemonTart_mvl/mxv
 BYTE   W01
 BYTE   Fs4
 BYTE   W01
 BYTE   En4
 BYTE   W01
 BYTE   Dn4
 BYTE   W01
 BYTE   PEND 
// 005   ----------------------------------------
Label_7_012BEDA1:
 BYTE   VOL   48*AdvanceWarsDualStrikeJavierLemonTart_mvl/mxv
 BYTE   N06  Fn1  v108
 BYTE   N06  Fn2  v124
 BYTE   W01
 BYTE   VOL   47*AdvanceWarsDualStrikeJavierLemonTart_mvl/mxv
 BYTE   W01
 BYTE   As3
 BYTE   W01
 BYTE   An3
 BYTE   W01
 BYTE   Gs3
 BYTE   W01
 BYTE   Fs3
 BYTE   W01
 BYTE   En3
 BYTE   W01
 BYTE   Ds3
 BYTE   W01
 BYTE   Cs3
 BYTE   W01
 BYTE   Cn3
 BYTE   W01
 BYTE   As2
 BYTE   W01
 BYTE   An2
 BYTE   W01
 BYTE   N06  As2  v084
 BYTE   N06  Cn3
 BYTE   W08
 BYTE   VOL   33*AdvanceWarsDualStrikeJavierLemonTart_mvl/mxv
 BYTE   W04
 BYTE   Bn2
 BYTE   N06  Fn1  v112
 BYTE   N06  Fn2  v120
 BYTE   W05
 BYTE   VOL   34*AdvanceWarsDualStrikeJavierLemonTart_mvl/mxv
 BYTE   W04
 BYTE   Cn3
 BYTE   W03
 BYTE   N06  As2  v088
 BYTE   N06  Cn3  v092
 BYTE   W02
 BYTE   VOL   36*AdvanceWarsDualStrikeJavierLemonTart_mvl/mxv
 BYTE   W04
 BYTE   Cs3
 BYTE   W05
 BYTE   Dn3
 BYTE   W01
 BYTE   N06  Fn1  v116
 BYTE   N06  Fn2  v112
 BYTE   W03
 BYTE   VOL   37*AdvanceWarsDualStrikeJavierLemonTart_mvl/mxv
 BYTE   W04
 BYTE   Ds3
 BYTE   W05
 BYTE   En3
 BYTE   N06  As2  v096
 BYTE   N06  Cn3  v100
 BYTE   W04
 BYTE   VOL   39*AdvanceWarsDualStrikeJavierLemonTart_mvl/mxv
 BYTE   W05
 BYTE   Fn3
 BYTE   W03
 BYTE   N06  Ds5  v108
 BYTE   W01
 BYTE   VOL   41*AdvanceWarsDualStrikeJavierLemonTart_mvl/mxv
 BYTE   W05
 BYTE   Fs3
 BYTE   N06  Cs5
 BYTE   W04
 BYTE   VOL   42*AdvanceWarsDualStrikeJavierLemonTart_mvl/mxv
 BYTE   W02
 BYTE   N06  An4  v100
 BYTE   W03
 BYTE   VOL   43*AdvanceWarsDualStrikeJavierLemonTart_mvl/mxv
 BYTE   W03
 BYTE   N06  Ds4  v116
 BYTE   W01
 BYTE   VOL   43*AdvanceWarsDualStrikeJavierLemonTart_mvl/mxv
 BYTE   W04
 BYTE   An3
 BYTE   W01
 BYTE   PEND 
// 006   ----------------------------------------
Label_7_012BEE1D:
 BYTE   N06  Ds5  v112
 BYTE   W04
 BYTE   VOL   44*AdvanceWarsDualStrikeJavierLemonTart_mvl/mxv
 BYTE   W02
 BYTE   N06  Cs5  v108
 BYTE   W02
 BYTE   VOL   45*AdvanceWarsDualStrikeJavierLemonTart_mvl/mxv
 BYTE   W04
 BYTE   N06  An4  v112
 BYTE   W01
 BYTE   VOL   46*AdvanceWarsDualStrikeJavierLemonTart_mvl/mxv
 BYTE   W04
 BYTE   Bn3
 BYTE   W01
 BYTE   N06  Ds4  v116
 BYTE   W04
 BYTE   VOL   47*AdvanceWarsDualStrikeJavierLemonTart_mvl/mxv
 BYTE   W02
 BYTE   N06  Ds5
 BYTE   W02
 BYTE   VOL   48*AdvanceWarsDualStrikeJavierLemonTart_mvl/mxv
 BYTE   W04
 BYTE   N06  Cs5  v108
 BYTE   W01
 BYTE   VOL   48*AdvanceWarsDualStrikeJavierLemonTart_mvl/mxv
 BYTE   W04
 BYTE   Dn4
 BYTE   W01
 BYTE   N06  An4
 BYTE   W04
 BYTE   VOL   49*AdvanceWarsDualStrikeJavierLemonTart_mvl/mxv
 BYTE   W02
 BYTE   N06  Ds4  v116
 BYTE   W02
 BYTE   VOL   50*AdvanceWarsDualStrikeJavierLemonTart_mvl/mxv
 BYTE   W04
 BYTE   En4
 BYTE   N06  Ds5  v112
 BYTE   W05
 BYTE   VOL   51*AdvanceWarsDualStrikeJavierLemonTart_mvl/mxv
 BYTE   W01
 BYTE   N06  Cs5  v108
 BYTE   W03
 BYTE   VOL   52*AdvanceWarsDualStrikeJavierLemonTart_mvl/mxv
 BYTE   W03
 BYTE   N06  An4
 BYTE   W02
 BYTE   VOL   53*AdvanceWarsDualStrikeJavierLemonTart_mvl/mxv
 BYTE   W04
 BYTE   Fs4
 BYTE   N06  Ds4  v120
 BYTE   W05
 BYTE   VOL   54*AdvanceWarsDualStrikeJavierLemonTart_mvl/mxv
 BYTE   W01
 BYTE   Gs4
 BYTE   N06  Ds5
 BYTE   W06
 BYTE   Cs5  v112
 BYTE   W06
 BYTE   An4  v116
 BYTE   W06
 BYTE   Ds4  v120
 BYTE   W06
 BYTE   PEND 
// 007   ----------------------------------------
Label_7_012BEE82:
 BYTE   N06  Ds5  v124
 BYTE   W06
 BYTE   Cs5  v116
 BYTE   W06
 BYTE   An4  v127
 BYTE   W06
 BYTE   Ds4
 BYTE   W06
 BYTE   Ds5
 BYTE   W06
 BYTE   Cs5
 BYTE   W06
 BYTE   An4
 BYTE   W06
 BYTE   Ds4
 BYTE   W06
 BYTE   An3
 BYTE   N06  An4
 BYTE   W12
 BYTE   As3  v120
 BYTE   N06  Fn4
 BYTE   N06  As4
 BYTE   W12
 BYTE   Fn1  v112
 BYTE   N06  Fn2  v127
 BYTE   N06  Fn3  v120
 BYTE   W12
 BYTE   As2  v080
 BYTE   N06  Cn3  v076
 BYTE   W12
 BYTE   PEND 
 BYTE   PATT
  POIN2 Label_7_012BECE7
// 008   ----------------------------------------
Label_7_012BEEB6:
 BYTE   N06  En1  v108
 BYTE   N06  En2  v124
 BYTE   W12
 BYTE   As2  v084
 BYTE   N06  Cn3
 BYTE   W12
 BYTE   Ds1  v112
 BYTE   N06  Ds2  v120
 BYTE   W12
 BYTE   As2  v088
 BYTE   N06  Cn3  v092
 BYTE   W12
 BYTE   Dn1  v116
 BYTE   N06  Dn2  v112
 BYTE   W12
 BYTE   As2  v096
 BYTE   N06  Cn3  v100
 BYTE   W12
 BYTE   Cs1  v112
 BYTE   N06  Cs2  v127
 BYTE   W12
 BYTE   Fn2  v080
 BYTE   N06  Gn2  v076
 BYTE   W12
 BYTE   PEND 
// 009   ----------------------------------------
Label_7_012BEEE7:
 BYTE   N06  Cs1  v112
 BYTE   N06  Cs2  v127
 BYTE   W12
 BYTE   Fn2  v080
 BYTE   N06  Gn2  v076
 BYTE   W12
 BYTE   Cs1  v112
 BYTE   N06  Cs2  v127
 BYTE   W12
 BYTE   Fn2  v080
 BYTE   N06  Gn2  v076
 BYTE   W12
 BYTE   Cs1  v112
 BYTE   N06  Cs2  v127
 BYTE   W12
 BYTE   Fn2  v080
 BYTE   N06  Gn2  v076
 BYTE   W12
 BYTE   Cs1  v112
 BYTE   N06  Cs2  v127
 BYTE   W12
 BYTE   Fn2  v080
 BYTE   N06  Gn2  v076
 BYTE   W12
 BYTE   PEND 
// 010   ----------------------------------------
Label_7_012BEF19:
 BYTE   N06  Cs1  v112
 BYTE   N06  Cs2  v127
 BYTE   W12
 BYTE   Gs2  v080
 BYTE   N06  As2  v076
 BYTE   W12
 BYTE   Cs1  v112
 BYTE   N06  Cs2  v127
 BYTE   W12
 BYTE   As2  v080
 BYTE   N06  Cn3  v076
 BYTE   W12
 BYTE   Cs1  v112
 BYTE   N06  Cs2  v127
 BYTE   W12
 BYTE   Ds3  v080
 BYTE   N06  Fn3  v076
 BYTE   W12
 BYTE   Cs1  v112
 BYTE   N06  Cs2  v127
 BYTE   W12
 BYTE   Fn3  v080
 BYTE   N06  Gn3  v076
 BYTE   W12
 BYTE   PEND 
// 011   ----------------------------------------
Label_7_012BEF4B:
 BYTE   N06  Ds1  v112
 BYTE   N06  Ds2  v127
 BYTE   W12
 BYTE   Fn3  v080
 BYTE   N06  Gn3  v076
 BYTE   W12
 BYTE   As0  v112
 BYTE   N06  As1  v127
 BYTE   W12
 BYTE   Fn3  v080
 BYTE   N06  Gn3  v076
 BYTE   W12
 BYTE   Gs0  v112
 BYTE   N06  Gs1  v127
 BYTE   W12
 BYTE   Fn3  v080
 BYTE   N06  Gn3  v076
 BYTE   W12
 BYTE   Ds1  v112
 BYTE   N06  Ds2  v127
 BYTE   W12
 BYTE   Gn2  v080
 BYTE   N06  An2  v076
 BYTE   W12
 BYTE   PEND 
// 012   ----------------------------------------
Label_7_012BEF7D:
 BYTE   N06  Ds1  v112
 BYTE   N06  Ds2  v127
 BYTE   W12
 BYTE   Gn2  v080
 BYTE   N06  An2  v076
 BYTE   W12
 BYTE   Ds1  v112
 BYTE   N06  Ds2  v127
 BYTE   W12
 BYTE   Gn2  v080
 BYTE   N06  An2  v076
 BYTE   W12
 BYTE   Ds1  v112
 BYTE   N06  Ds2  v127
 BYTE   W12
 BYTE   Gn2  v080
 BYTE   N06  An2  v076
 BYTE   W12
 BYTE   Dn1  v112
 BYTE   N06  Dn2  v127
 BYTE   W12
 BYTE   Fs2  v080
 BYTE   N06  As2  v076
 BYTE   W12
 BYTE   PEND 
// 013   ----------------------------------------
Label_7_012BEFAF:
 BYTE   N06  Ds1  v112
 BYTE   N06  Ds2  v127
 BYTE   W12
 BYTE   Fs2  v080
 BYTE   N06  As2  v076
 BYTE   W12
 BYTE   En1  v112
 BYTE   N06  En2  v127
 BYTE   W12
 BYTE   Fs2  v080
 BYTE   N06  As2  v076
 BYTE   W12
 BYTE   En1  v112
 BYTE   N06  En2  v127
 BYTE   W12
 BYTE   Fs2  v080
 BYTE   N06  As2  v076
 BYTE   W12
 BYTE   Dn1  v112
 BYTE   N06  Dn2  v127
 BYTE   W12
 BYTE   Fs2  v080
 BYTE   N06  As2  v076
 BYTE   W12
 BYTE   PEND 
// 014   ----------------------------------------
Label_7_012BEFE1:
 BYTE   N06  Ds1  v112
 BYTE   N06  Ds2  v127
 BYTE   W12
 BYTE   Fs2  v080
 BYTE   N06  As2  v076
 BYTE   W12
 BYTE   En1  v112
 BYTE   N06  En2  v127
 BYTE   W12
 BYTE   Fs2  v080
 BYTE   N06  As2  v076
 BYTE   W12
 BYTE   Fn1  v112
 BYTE   N06  Fn2  v127
 BYTE   W12
 BYTE   As2  v076
 BYTE   N06  Fs3  v080
 BYTE   W12
 BYTE   En1  v112
 BYTE   N06  En2  v127
 BYTE   W12
 BYTE   Bn2  v076
 BYTE   N06  Fs3  v080
 BYTE   W12
 BYTE   PEND 
// 015   ----------------------------------------
Label_7_012BF013:
 BYTE   N06  En1  v112
 BYTE   N06  En2  v127
 BYTE   W12
 BYTE   Bn2  v076
 BYTE   N06  Fs3  v080
 BYTE   W12
 BYTE   En1  v112
 BYTE   N06  En2  v127
 BYTE   W12
 BYTE   Bn2  v076
 BYTE   N06  An3  v080
 BYTE   W12
 BYTE   En1  v112
 BYTE   N06  En2  v127
 BYTE   W12
 BYTE   Bn2  v076
 BYTE   N06  An3  v080
 BYTE   W12
 BYTE   Bn1  v104
 BYTE   N06  Bn2
 BYTE   W12
 BYTE   Bn3
 BYTE   N06  Bn4
 BYTE   W12
 BYTE   PEND 
// 016   ----------------------------------------
Label_7_012BF042:
 BYTE   N06  As1  v104
 BYTE   N06  As2
 BYTE   W12
 BYTE   As3
 BYTE   N06  As4
 BYTE   W12
 BYTE   Fs1
 BYTE   N06  Fs2
 BYTE   W12
 BYTE   Fs3
 BYTE   N06  Fs4
 BYTE   W12
 BYTE   En1
 BYTE   N06  En2
 BYTE   W12
 BYTE   En3
 BYTE   N06  En4
 BYTE   W12
 BYTE   N12  Fs1
 BYTE   N06  As2  v108
 BYTE   W12
 BYTE   N06
 BYTE   W12
 BYTE   PEND 
// 017   ----------------------------------------
Label_7_012BF065:
 BYTE   N12  As1  v104
 BYTE   N08  Cn3  v108
 BYTE   W12
 BYTE   N08
 BYTE   N08  Ds3
 BYTE   W12
 BYTE   N12  As1  v104
 BYTE   N06  As2  v108
 BYTE   W12
 BYTE   N06
 BYTE   W12
 BYTE   N12  En1  v104
 BYTE   N08  Cn3  v108
 BYTE   W12
 BYTE   N08
 BYTE   N08  Ds3
 BYTE   W12
 BYTE   N12  Fs1  v104
 BYTE   N06  An2  v108
 BYTE   W12
 BYTE   N06
 BYTE   W12
 BYTE   PEND 
// 018   ----------------------------------------
Label_7_012BF08E:
 BYTE   N12  Fn1  v104
 BYTE   N08  Cn3  v108
 BYTE   W12
 BYTE   N08
 BYTE   N08  Ds3
 BYTE   W12
 BYTE   N12  Ds1  v104
 BYTE   N06  An2  v108
 BYTE   W12
 BYTE   N06
 BYTE   W12
 BYTE   N12  Dn1  v104
 BYTE   N08  Cn3  v108
 BYTE   W12
 BYTE   N08
 BYTE   N08  Ds3
 BYTE   W12
 BYTE   N12  Ds1  v104
 BYTE   N06  As2  v108
 BYTE   W12
 BYTE   N06
 BYTE   W12
 BYTE   PEND 
// 019   ----------------------------------------
Label_7_012BF0B7:
 BYTE   N12  Fn1  v104
 BYTE   N08  As2  v108
 BYTE   W12
 BYTE   N08
 BYTE   N08  Ds3
 BYTE   W12
 BYTE   N12  Fs1  v104
 BYTE   N06  Fs2  v108
 BYTE   W12
 BYTE   N06
 BYTE   W12
 BYTE   N12  En1  v104
 BYTE   N08  As2  v108
 BYTE   W12
 BYTE   N08
 BYTE   N08  Dn3
 BYTE   W12
 BYTE   N12  Gn1  v104
 BYTE   N06  Bn2  v108
 BYTE   W12
 BYTE   N06
 BYTE   W12
 BYTE   PEND 
// 020   ----------------------------------------
Label_7_012BF0E0:
 BYTE   N12  Fs1  v104
 BYTE   N08  Bn2  v108
 BYTE   W12
 BYTE   N08
 BYTE   N08  En3
 BYTE   W12
 BYTE   N12  Dn1  v104
 BYTE   N06  Gs2  v108
 BYTE   W12
 BYTE   N06
 BYTE   W12
 BYTE   N12  Gs1  v104
 BYTE   N08  Bn2  v108
 BYTE   W12
 BYTE   N08
 BYTE   N08  En3
 BYTE   W36
 BYTE   PEND 
// 021   ----------------------------------------
Label_7_012BF100:
 BYTE   N24  Cn3  v092
 BYTE   N24  Cn4  v080
 BYTE   W24
 BYTE   Dn3  v104
 BYTE   N24  Dn4  v096
 BYTE   W24
 BYTE   En3  v120
 BYTE   N24  En4  v112
 BYTE   W24
 BYTE   N12  Fs1  v104
 BYTE   N48  Fs3
 BYTE   N48  Fs4  v096
 BYTE   W24
 BYTE   PEND 
// 022   ----------------------------------------
Label_7_012BF11D:
 BYTE   N12  As1  v104
 BYTE   W24
 BYTE   An1
 BYTE   N16  An3
 BYTE   N16  An4  v096
 BYTE   W16
 BYTE   Gs3  v104
 BYTE   N16  Gs4  v096
 BYTE   W08
 BYTE   N12  Fs1  v104
 BYTE   W08
 BYTE   N16  Ds3
 BYTE   N16  Ds4  v096
 BYTE   W16
 BYTE   N12  As1  v104
 BYTE   N36  Fs3  v092
 BYTE   N36  Fs4  v080
 BYTE   W24
 BYTE   PEND 
// 023   ----------------------------------------
Label_7_012BF143:
 BYTE   N12  An1  v104
 BYTE   W12
 BYTE   As3  v120
 BYTE   N12  As4  v112
 BYTE   W12
 BYTE   Gs1  v104
 BYTE   N36  Gs3  v116
 BYTE   N36  Gs4  v104
 BYTE   W24
 BYTE   N12  Ds1
 BYTE   W12
 BYTE   Dn4  v116
 BYTE   N12  Dn5  v108
 BYTE   W12
 BYTE   En1  v104
 BYTE   N24  Cs4  v100
 BYTE   N24  Cs5  v088
 BYTE   W24
 BYTE   PEND 
// 024   ----------------------------------------
Label_7_012BF169:
 BYTE   N12  Gn1  v104
 BYTE   N48  Gn3  v124
 BYTE   N48  Gn4  v092
 BYTE   W24
 BYTE   N12  Fs1  v104
 BYTE   W24
 BYTE   En1
 BYTE   N06  En3  v108
 BYTE   N06  En4  v076
 BYTE   W06
 BYTE   Fn3  v124
 BYTE   N06  Fn4  v088
 BYTE   W06
 BYTE   Fs3  v116
 BYTE   N06  Fs4  v080
 BYTE   W06
 BYTE   Gn3  v124
 BYTE   N06  Gn4  v088
 BYTE   W06
 BYTE   N12  Gs1  v104
 BYTE   N24  Gs3  v127
 BYTE   N24  Gs4  v092
 BYTE   W24
 BYTE   PEND 
// 025   ----------------------------------------
Label_7_012BF19C:
 BYTE   N12  Fs1  v104
 BYTE   N24  Dn4  v108
 BYTE   N24  Dn5  v072
 BYTE   W24
 BYTE   N12  Dn1  v104
 BYTE   N16  Fs4  v124
 BYTE   N16  Fs5  v088
 BYTE   W16
 BYTE   Dn4  v120
 BYTE   N16  Dn5  v088
 BYTE   W08
 BYTE   N12  Gs1  v104
 BYTE   W08
 BYTE   N16  Fs4  v127
 BYTE   N16  Fs5  v092
 BYTE   W16
 BYTE   N18  Fn4  v120
 BYTE   W18
 BYTE   N06  En4  v084
 BYTE   W06
 BYTE   PEND 
// 026   ----------------------------------------
Label_7_012BF1CA:
 BYTE   N05  Gn4  v084
 BYTE   W08
 BYTE   Fs4
 BYTE   W08
 BYTE   En4
 BYTE   W08
 BYTE   Fs4
 BYTE   W08
 BYTE   En4
 BYTE   W08
 BYTE   Fs4
 BYTE   W08
 BYTE   As4
 BYTE   W08
 BYTE   Gn4
 BYTE   W08
 BYTE   En4
 BYTE   W08
 BYTE   Fs4
 BYTE   W08
 BYTE   En4
 BYTE   W08
 BYTE   Fs4
 BYTE   W08
 BYTE   PEND 
// 027   ----------------------------------------
Label_7_012BF1E5:
 BYTE   N05  As4  v084
 BYTE   W08
 BYTE   Gn4
 BYTE   W08
 BYTE   Fs4
 BYTE   W08
 BYTE   N15  Gn2  v104
 BYTE   N15  Gn4  v084
 BYTE   W18
 BYTE   N03  Gn2  v104
 BYTE   N03  Gn4  v084
 BYTE   W06
 BYTE   N15  Fs2  v104
 BYTE   N15  Fs4  v084
 BYTE   W18
 BYTE   N03  As2  v104
 BYTE   N03  As4  v084
 BYTE   W06
 BYTE   N15  Cn3  v104
 BYTE   N15  Cn5  v084
 BYTE   W18
 BYTE   N03  Cn3  v104
 BYTE   N03  Cn5  v084
 BYTE   W06
 BYTE   PEND 
// 028   ----------------------------------------
Label_7_012BF218:
 BYTE   N05  Dn3  v104
 BYTE   N05  Dn5  v084
 BYTE   W08
 BYTE   Cn3  v104
 BYTE   N05  Cn5  v084
 BYTE   W08
 BYTE   As2  v104
 BYTE   N05  As4  v084
 BYTE   W08
 BYTE   En3  v104
 BYTE   N05  En5  v084
 BYTE   W08
 BYTE   Dn3  v104
 BYTE   N05  Dn5  v084
 BYTE   W08
 BYTE   Cn3  v104
 BYTE   N05  Cn5  v084
 BYTE   W08
 BYTE   Fn3  v104
 BYTE   N05  Fn5  v084
 BYTE   W08
 BYTE   En3  v104
 BYTE   N05  En5  v084
 BYTE   W08
 BYTE   Dn3  v104
 BYTE   N05  Dn5  v084
 BYTE   W08
 BYTE   N07  Fs3  v127
 BYTE   N07  Fs5  v108
 BYTE   W18
 BYTE   N06  Fs4  v088
 BYTE   W06
 BYTE   PEND 
// 029   ----------------------------------------
Label_7_012BF25B:
 BYTE   N08  Gn4  v096
 BYTE   W08
 BYTE   Fs4  v092
 BYTE   W08
 BYTE   En4  v112
 BYTE   W08
 BYTE   N18  An2  v108
 BYTE   N72  Ds4  v072
 BYTE   W12
 BYTE   N06  Cs3  v092
 BYTE   W12
 BYTE   N08  Bn2  v088
 BYTE   W12
 BYTE   Gn2  v104
 BYTE   N08  Cs3  v096
 BYTE   W12
 BYTE   Bn2  v088
 BYTE   W12
 BYTE   Gn2  v092
 BYTE   N08  Cs3  v096
 BYTE   W12
 BYTE   PEND 
// 030   ----------------------------------------
Label_7_012BF284:
 BYTE   N08  Bn2  v096
 BYTE   N04  Ds4  v072
 BYTE   W04
 BYTE   En4
 BYTE   W05
 BYTE   Ds4
 BYTE   W03
 BYTE   N08  Gn2  v096
 BYTE   N08  Cs3
 BYTE   W02
 BYTE   N04  En4  v076
 BYTE   W05
 BYTE   Ds4
 BYTE   W05
 BYTE   N08  Bn2  v100
 BYTE   N04  En4  v080
 BYTE   W04
 BYTE   Ds4  v076
 BYTE   W05
 BYTE   En4
 BYTE   W03
 BYTE   N08  Gn2  v100
 BYTE   N08  Cs3  v104
 BYTE   W02
 BYTE   N04  Ds4  v080
 BYTE   W05
 BYTE   En4  v084
 BYTE   W05
 BYTE   N08  Bn2  v104
 BYTE   N04  Ds4  v076
 BYTE   W04
 BYTE   En4
 BYTE   W05
 BYTE   Ds4  v072
 BYTE   W03
 BYTE   N08  Gn2  v116
 BYTE   N08  Cs3  v104
 BYTE   W02
 BYTE   N04  En4  v084
 BYTE   W05
 BYTE   Ds4
 BYTE   W05
 BYTE   N08  Bn2  v100
 BYTE   N04  En4  v072
 BYTE   W04
 BYTE   Ds4  v080
 BYTE   W05
 BYTE   En4  v088
 BYTE   W03
 BYTE   N08  Gs2  v100
 BYTE   N08  Cn3
 BYTE   W02
 BYTE   N04  Ds4  v076
 BYTE   W05
 BYTE   En4  v088
 BYTE   W05
 BYTE   PEND 
// 031   ----------------------------------------
Label_7_012BF2E9:
 BYTE   N08  Bn2  v100
 BYTE   N04  Ds4  v076
 BYTE   W04
 BYTE   En4  v092
 BYTE   W05
 BYTE   Ds4  v076
 BYTE   W03
 BYTE   N08  Gs2  v100
 BYTE   N08  Cn3
 BYTE   W02
 BYTE   N04  En4  v076
 BYTE   W05
 BYTE   Ds4  v072
 BYTE   W05
 BYTE   N08  Bn2  v100
 BYTE   N04  En4  v088
 BYTE   W04
 BYTE   Ds4  v072
 BYTE   W05
 BYTE   En4  v092
 BYTE   W03
 BYTE   N08  Gs2  v100
 BYTE   N08  Cn3
 BYTE   W02
 BYTE   N04  Ds4  v076
 BYTE   W05
 BYTE   En4  v088
 BYTE   W05
 BYTE   N08  Bn2  v100
 BYTE   N04  Ds4  v072
 BYTE   W04
 BYTE   En4  v088
 BYTE   W05
 BYTE   Ds4  v072
 BYTE   W03
 BYTE   N08  Gs2  v100
 BYTE   N08  Cn3
 BYTE   W02
 BYTE   N04  En4  v092
 BYTE   W05
 BYTE   Ds4  v084
 BYTE   W05
 BYTE   N08  As2  v100
 BYTE   N72  En4  v076
 BYTE   W12
 BYTE   N08  Fs1  v100
 BYTE   N08  Fs2
 BYTE   N08  Cn3
 BYTE   W12
 BYTE   PEND 
// 032   ----------------------------------------
Label_7_012BF347:
 BYTE   N08  As2  v100
 BYTE   W12
 BYTE   Fs1
 BYTE   N08  Fs2
 BYTE   N08  Cn3
 BYTE   W12
 BYTE   As2
 BYTE   W12
 BYTE   Fs1
 BYTE   N08  Fs2
 BYTE   N08  Cn3
 BYTE   W12
 BYTE   N12  Fs3  v127
 BYTE   N12  Fs4
 BYTE   W24
 BYTE   N06  Fn1  v112
 BYTE   N06  Fn2  v127
 BYTE   N06  Fn3  v120
 BYTE   W12
 BYTE   As2  v080
 BYTE   N06  Cn3  v076
 BYTE   W12
 BYTE   PEND 
 BYTE   PATT
  POIN2 Label_7_012BECE7
 BYTE   PATT
  POIN2 Label_7_012BECE7
 BYTE   PATT
  POIN2 Label_7_012BECE7
 BYTE   PATT
  POIN2 Label_7_012BECE7
 BYTE   PATT
  POIN2 Label_7_012BECE7
 BYTE   PATT
  POIN2 Label_7_012BED36
 BYTE   PATT
  POIN2 Label_7_012BED67
 BYTE   PATT
  POIN2 Label_7_012BEDA1
 BYTE   PATT
  POIN2 Label_7_012BEE1D
 BYTE   PATT
  POIN2 Label_7_012BEE82
 BYTE   PATT
  POIN2 Label_7_012BECE7
 BYTE   PATT
  POIN2 Label_7_012BEEB6
 BYTE   PATT
  POIN2 Label_7_012BEEE7
 BYTE   PATT
  POIN2 Label_7_012BEF19
 BYTE   PATT
  POIN2 Label_7_012BEF4B
 BYTE   PATT
  POIN2 Label_7_012BEF7D
 BYTE   PATT
  POIN2 Label_7_012BEFAF
 BYTE   PATT
  POIN2 Label_7_012BEFE1
 BYTE   PATT
  POIN2 Label_7_012BF013
 BYTE   PATT
  POIN2 Label_7_012BF042
 BYTE   PATT
  POIN2 Label_7_012BF065
 BYTE   PATT
  POIN2 Label_7_012BF08E
 BYTE   PATT
  POIN2 Label_7_012BF0B7
 BYTE   PATT
  POIN2 Label_7_012BF0E0
 BYTE   PATT
  POIN2 Label_7_012BF100
 BYTE   PATT
  POIN2 Label_7_012BF11D
 BYTE   PATT
  POIN2 Label_7_012BF143
 BYTE   PATT
  POIN2 Label_7_012BF169
 BYTE   PATT
  POIN2 Label_7_012BF19C
 BYTE   PATT
  POIN2 Label_7_012BF1CA
 BYTE   PATT
  POIN2 Label_7_012BF1E5
 BYTE   PATT
  POIN2 Label_7_012BF218
 BYTE   PATT
  POIN2 Label_7_012BF25B
 BYTE   PATT
  POIN2 Label_7_012BF284
 BYTE   PATT
  POIN2 Label_7_012BF2E9
 BYTE   PATT
  POIN2 Label_7_012BF347
 BYTE   PATT
  POIN2 Label_7_012BECE7
// 033   ----------------------------------------
 BYTE   N06  Fn1  v108
 BYTE   N06  Fn2  v124
 BYTE   W12
 BYTE   As2  v084
 BYTE   N06  Cn3
 BYTE   W12
 BYTE   Fn1  v112
 BYTE   N06  Fn2  v120
 BYTE   W12
 BYTE   As2  v088
 BYTE   N06  Cn3  v092
 BYTE   W12
 BYTE   Fn1  v116
 BYTE   N06  Fn2  v112
 BYTE   W12
 BYTE   As2  v096
 BYTE   N06  Cn3  v100
 BYTE   W06
 BYTE   FINE

//******************************************************//
	ALIGN 4

AdvanceWarsDualStrikeJavierLemonTart:
	BYTE	8	// NumTrks
	BYTE	0	// NumBlks
	BYTE	AdvanceWarsDualStrikeJavierLemonTart_pri	// Priority
	BYTE	AdvanceWarsDualStrikeJavierLemonTart_rev	// Reverb.
    
	POIN2	AdvanceWarsDualStrikeJavierLemonTart_grp
    
	POIN2	AdvanceWarsDualStrikeJavierLemonTart_001
	POIN2	AdvanceWarsDualStrikeJavierLemonTart_002
	POIN2	AdvanceWarsDualStrikeJavierLemonTart_003
	POIN2	AdvanceWarsDualStrikeJavierLemonTart_004
	POIN2	AdvanceWarsDualStrikeJavierLemonTart_005
	POIN2	AdvanceWarsDualStrikeJavierLemonTart_006
	POIN2	AdvanceWarsDualStrikeJavierLemonTart_007
	POIN2	AdvanceWarsDualStrikeJavierLemonTart_008

	
