//Event file generated from Sappy .s format.
	#include "MPlayDef.event"

	#define	StreetFighterAlpha2KenTak_grp  voicegroup000
	#define	StreetFighterAlpha2KenTak_pri  0
	#define	StreetFighterAlpha2KenTak_rev  0
	#define	StreetFighterAlpha2KenTak_mvl  127
	#define	StreetFighterAlpha2KenTak_key  0
	#define	StreetFighterAlpha2KenTak_tbs  1
	#define	StreetFighterAlpha2KenTak_exg  0
	#define	StreetFighterAlpha2KenTak_cmp  1

	// .rodata
	//	StreetFighterAlpha2KenTak
	ALIGN 4


//**************** Track 1 (Midi-Chn.0) ****************//

StreetFighterAlpha2KenTak_001:
//  #01 //000   ----------------------------------------
 BYTE   KEYSH   StreetFighterAlpha2KenTak_key+0
 BYTE   TEMPO   156*StreetFighterAlpha2KenTak_tbs/2
Label_01003028:
 BYTE   VOICE   57
 BYTE   VOL   78*StreetFighterAlpha2KenTak_mvl/mxv
 BYTE   PAN   c_v-20
 BYTE   BENDR  12
 BYTE   W96
//  #01 //001   ----------------------------------------
 BYTE   W96
//  #01 //002   ----------------------------------------
 BYTE   W24
 BYTE   N24  An2  v127
 BYTE   W24
 BYTE   Dn3
 BYTE   W24
 BYTE   N12  Gn3
 BYTE   W12
 BYTE   N24  Fn3
 BYTE   W12
//  #01 //003   ----------------------------------------
Label_0100303F:
 BYTE   W12
 BYTE   N12  En3  v127
 BYTE   W12
 BYTE   N36  Dn3
 BYTE   W36
 BYTE   N12  Cn3
 BYTE   W24
 BYTE   TIE  Dn3
 BYTE   W12
 BYTE   PEND 
//  #01 //004   ----------------------------------------
 BYTE   W96
//  #01 //005   ----------------------------------------
 BYTE   W96
//  #01 //006   ----------------------------------------
 BYTE   W24
 BYTE   EOT
 BYTE   N24  An2
 BYTE   W24
 BYTE   Dn3
 BYTE   W24
 BYTE   N12  Gn3
 BYTE   W12
 BYTE   N24  Fn3
 BYTE   W12
//  #01 //007   ----------------------------------------
 BYTE   PATT
  POIN2 Label_0100303F
//  #01 //008   ----------------------------------------
 BYTE   W96
//  #01 //009   ----------------------------------------
 BYTE   W24
 BYTE   EOT
 BYTE   Dn3
 BYTE   N12  Dn3  v127
 BYTE   W12
 BYTE   En3
 BYTE   W12
 BYTE   Fn3
 BYTE   W12
 BYTE   N24  Gn3
 BYTE   W24
 BYTE   N60  An3
 BYTE   W12
//  #01 //010   ----------------------------------------
 BYTE   W60
 BYTE   N12  Dn3
 BYTE   W12
 BYTE   Cn4
 BYTE   W12
 BYTE   N60  An3
 BYTE   W12
//  #01 //011   ----------------------------------------
 BYTE   W48
 BYTE   N24  Fn3
 BYTE   W24
 BYTE   N12  Gn3
 BYTE   W12
 BYTE   N24  En3
 BYTE   W12
//  #01 //012   ----------------------------------------
 BYTE   W12
 BYTE   Cn3
 BYTE   W24
 BYTE   TIE  Dn3
 BYTE   W60
//  #01 //013   ----------------------------------------
 BYTE   W96
//  #01 //014   ----------------------------------------
 BYTE   EOT
 BYTE   W48
 BYTE   N12  Cn3
 BYTE   W12
 BYTE   Ds3
 BYTE   W12
 BYTE   Gn3
 BYTE   W12
 BYTE   N60  As3
 BYTE   W12
//  #01 //015   ----------------------------------------
Label_0100309A:
 BYTE   W60
 BYTE   N12  Gs3  v127
 BYTE   W12
 BYTE   Gn3
 BYTE   W12
 BYTE   N60  Fn3
 BYTE   W12
 BYTE   PEND 
//  #01 //016   ----------------------------------------
 BYTE   W60
 BYTE   N12  Ds3
 BYTE   W12
 BYTE   Gn3
 BYTE   W12
 BYTE   N72  Fn3
 BYTE   W12
//  #01 //017   ----------------------------------------
 BYTE   W60
 BYTE   N12  Ds3
 BYTE   W12
 BYTE   Dn3
 BYTE   W12
 BYTE   N60  Cn3
 BYTE   W12
//  #01 //018   ----------------------------------------
 BYTE   W48
 BYTE   N12
 BYTE   W12
 BYTE   Ds3
 BYTE   W12
 BYTE   Gn3
 BYTE   W12
 BYTE   N60  As3
 BYTE   W12
//  #01 //019   ----------------------------------------
 BYTE   PATT
  POIN2 Label_0100309A
//  #01 //020   ----------------------------------------
 BYTE   W60
 BYTE   N12  Ds3  v127
 BYTE   W12
 BYTE   Gn3
 BYTE   W12
 BYTE   TIE  Fn3
 BYTE   W12
//  #01 //021   ----------------------------------------
 BYTE   W96
//  #01 //022   ----------------------------------------
 BYTE   EOT
 BYTE   W96
//  #01 //023   ----------------------------------------
 BYTE   W96
//  #01 //024   ----------------------------------------
 BYTE   W96
//  #01 //025   ----------------------------------------
 BYTE   W96
//  #01 //026   ----------------------------------------
 BYTE   W96
//  #01 //027   ----------------------------------------
 BYTE   W96
//  #01 //028   ----------------------------------------
 BYTE   W96
//  #01 //029   ----------------------------------------
 BYTE   W96
//  #01 //030   ----------------------------------------
 BYTE   W24
 BYTE   N24  Dn3
 BYTE   W24
 BYTE   Gn3
 BYTE   W24
 BYTE   N12  Cn4
 BYTE   W12
 BYTE   N24  As3
 BYTE   W12
//  #01 //031   ----------------------------------------
Label_010030E6:
 BYTE   W12
 BYTE   N12  An3  v127
 BYTE   W12
 BYTE   N36  Gn3
 BYTE   W36
 BYTE   N12  Fn3
 BYTE   W24
 BYTE   TIE  Gn3
 BYTE   W12
 BYTE   PEND 
//  #01 //032   ----------------------------------------
 BYTE   W96
//  #01 //033   ----------------------------------------
 BYTE   W96
//  #01 //034   ----------------------------------------
 BYTE   EOT
 BYTE   W24
 BYTE   N24  Dn3
 BYTE   W24
 BYTE   Gn3
 BYTE   W24
 BYTE   N12  Cn4
 BYTE   W12
 BYTE   N24  As3
 BYTE   W12
//  #01 //035   ----------------------------------------
 BYTE   PATT
  POIN2 Label_010030E6
//  #01 //036   ----------------------------------------
 BYTE   W96
//  #01 //037   ----------------------------------------
 BYTE   W96
//  #01 //038   ----------------------------------------
 BYTE   EOT
 BYTE   Gn3
 BYTE   W24
 BYTE   N24  Dn3  v127
 BYTE   W24
 BYTE   Gn3
 BYTE   W24
 BYTE   N12  Cn4
 BYTE   W12
 BYTE   N24  Dn4
 BYTE   W12
//  #01 //039   ----------------------------------------
 BYTE   W12
 BYTE   N12  Ds4
 BYTE   W12
 BYTE   Dn4
 BYTE   W12
 BYTE   N24  Cn4
 BYTE   W24
 BYTE   N12  As3
 BYTE   W12
 BYTE   An3
 BYTE   W12
 BYTE   N60  Dn4
 BYTE   W12
//  #01 //040   ----------------------------------------
 BYTE   W48
 BYTE   N24  Cn4
 BYTE   W24
 BYTE   N12  As3
 BYTE   W12
 BYTE   TIE  An3
 BYTE   W12
//  #01 //041   ----------------------------------------
 BYTE   W96
//  #01 //042   ----------------------------------------
 BYTE   EOT
 BYTE   GoTo
  POIN2 Label_01003028
 BYTE   FINE

//**************** Track 2 (Midi-Chn.1) ****************//

StreetFighterAlpha2KenTak_002:
//  #02 //000   ----------------------------------------
 BYTE   KEYSH   StreetFighterAlpha2KenTak_key+0
Label_01003D52:
 BYTE   VOICE   100
 BYTE   PAN   c_v+12
 BYTE   VOL   54*StreetFighterAlpha2KenTak_mvl/mxv
 BYTE   BENDR  12
 BYTE   W96
//  #02 //001   ----------------------------------------
 BYTE   W96
//  #02 //002   ----------------------------------------
 BYTE   W96
//  #02 //003   ----------------------------------------
 BYTE   W96
//  #02 //004   ----------------------------------------
 BYTE   W24
 BYTE   N24  Dn4  v127
 BYTE   W24
 BYTE   Gn4
 BYTE   W24
 BYTE   N12  Cn5
 BYTE   W12
 BYTE   N24  An4
 BYTE   W12
//  #02 //005   ----------------------------------------
 BYTE   W12
 BYTE   N12  Gn4
 BYTE   W12
 BYTE   N36  Fn4
 BYTE   W36
 BYTE   N12  En4
 BYTE   W24
 BYTE   TIE  Dn4
 BYTE   W12
//  #02 //006   ----------------------------------------
 BYTE   W96
//  #02 //007   ----------------------------------------
 BYTE   W24
 BYTE   EOT
 BYTE   N24  An3
 BYTE   W24
 BYTE   Dn4
 BYTE   W24
 BYTE   N12  Gn4
 BYTE   W12
 BYTE   N24  Fn4
 BYTE   W12
//  #02 //008   ----------------------------------------
 BYTE   W12
 BYTE   N12  En4
 BYTE   W12
 BYTE   N36  Dn4
 BYTE   W36
 BYTE   N12  En4
 BYTE   W12
 BYTE   Fn4
 BYTE   W12
 BYTE   N60  Cn5
 BYTE   W12
//  #02 //009   ----------------------------------------
 BYTE   W48
 BYTE   N12  Cn4
 BYTE   W12
 BYTE   Dn4
 BYTE   W12
 BYTE   En4
 BYTE   W12
 BYTE   N60  Fn4
 BYTE   W12
//  #02 //010   ----------------------------------------
 BYTE   W60
 BYTE   N12  Fn3
 BYTE   W12
 BYTE   An3
 BYTE   W12
 BYTE   N60  Cn4
 BYTE   W12
//  #02 //011   ----------------------------------------
 BYTE   W48
 BYTE   N24  An3
 BYTE   W24
 BYTE   N12  As3
 BYTE   W12
 BYTE   N24  Gn3
 BYTE   W12
//  #02 //012   ----------------------------------------
 BYTE   W12
 BYTE   En3
 BYTE   W24
 BYTE   TIE  Fn3
 BYTE   W60
//  #02 //013   ----------------------------------------
 BYTE   W96
//  #02 //014   ----------------------------------------
 BYTE   EOT
 BYTE   W96
//  #02 //015   ----------------------------------------
 BYTE   W96
//  #02 //016   ----------------------------------------
 BYTE   W96
//  #02 //017   ----------------------------------------
 BYTE   W96
//  #02 //018   ----------------------------------------
 BYTE   W96
//  #02 //019   ----------------------------------------
 BYTE   W96
//  #02 //020   ----------------------------------------
 BYTE   W96
//  #02 //021   ----------------------------------------
 BYTE   W96
//  #02 //022   ----------------------------------------
 BYTE   W96
//  #02 //023   ----------------------------------------
 BYTE   N12  Cn4
 BYTE   W12
 BYTE   An3
 BYTE   W12
 BYTE   En3
 BYTE   W12
 BYTE   TIE  Dn3
 BYTE   W60
//  #02 //024   ----------------------------------------
 BYTE   W48
 BYTE   EOT
 BYTE   W48
//  #02 //025   ----------------------------------------
 BYTE   N12  Cn4
 BYTE   W12
 BYTE   Bn3
 BYTE   W12
 BYTE   Gn3
 BYTE   W12
 BYTE   TIE  Cn3
 BYTE   W60
//  #02 //026   ----------------------------------------
 BYTE   W48
 BYTE   EOT
 BYTE   W48
//  #02 //027   ----------------------------------------
 BYTE   N12  Cn4
 BYTE   W12
 BYTE   Bn3
 BYTE   W12
 BYTE   Cn3
 BYTE   W12
 BYTE   N24  En3
 BYTE   W24
 BYTE   Cn3
 BYTE   W24
 BYTE   TIE  Dn3
 BYTE   W12
//  #02 //028   ----------------------------------------
 BYTE   W96
//  #02 //029   ----------------------------------------
 BYTE   W96
//  #02 //030   ----------------------------------------
 BYTE   EOT
 BYTE   W96
//  #02 //031   ----------------------------------------
 BYTE   W96
//  #02 //032   ----------------------------------------
 BYTE   W24
 BYTE   N24  Gn3
 BYTE   W24
 BYTE   Dn4
 BYTE   W24
 BYTE   N12  Gn4
 BYTE   W12
 BYTE   N60  En4
 BYTE   W12
//  #02 //033   ----------------------------------------
 BYTE   W48
 BYTE   N24  Fn4
 BYTE   W24
 BYTE   N12  Dn4
 BYTE   W12
 BYTE   TIE  Cn4
 BYTE   W12
//  #02 //034   ----------------------------------------
 BYTE   W96
//  #02 //035   ----------------------------------------
 BYTE   W48
 BYTE   EOT
 BYTE   N12  As3
 BYTE   W12
 BYTE   An3
 BYTE   W24
 BYTE   N60  Gn3
 BYTE   W12
//  #02 //036   ----------------------------------------
 BYTE   W48
 BYTE   N24  Cn3
 BYTE   W24
 BYTE   N12  Fn3
 BYTE   W12
 BYTE   N60  Dn3
 BYTE   W12
//  #02 //037   ----------------------------------------
 BYTE   W48
 BYTE   N24  Ds3
 BYTE   W24
 BYTE   N12  As3
 BYTE   W12
 BYTE   N60  An3
 BYTE   W12
//  #02 //038   ----------------------------------------
 BYTE   W72
 BYTE   N12  Fn3
 BYTE   W12
 BYTE   N84  Gn3
 BYTE   W12
//  #02 //039   ----------------------------------------
 BYTE   W84
 BYTE   N96
 BYTE   W12
//  #02 //040   ----------------------------------------
 BYTE   W84
 BYTE   TIE  An3
 BYTE   W12
//  #02 //041   ----------------------------------------
 BYTE   W96
//  #02 //042   ----------------------------------------
 BYTE   EOT
 BYTE   GoTo
  POIN2 Label_01003D52
 BYTE   FINE

//**************** Track 3 (Midi-Chn.2) ****************//

StreetFighterAlpha2KenTak_003:
//  #03 //000   ----------------------------------------
 BYTE   KEYSH   StreetFighterAlpha2KenTak_key+0
Label_010005D2:
 BYTE   VOICE   40
 BYTE   PAN   c_v-13
 BYTE   VOL   60*StreetFighterAlpha2KenTak_mvl/mxv
 BYTE   BENDR  12
 BYTE   W96
//  #03 //001   ----------------------------------------
 BYTE   W96
//  #03 //002   ----------------------------------------
 BYTE   W96
//  #03 //003   ----------------------------------------
 BYTE   W96
//  #03 //004   ----------------------------------------
 BYTE   W96
//  #03 //005   ----------------------------------------
 BYTE   W96
//  #03 //006   ----------------------------------------
 BYTE   W96
//  #03 //007   ----------------------------------------
 BYTE   W96
//  #03 //008   ----------------------------------------
 BYTE   W96
//  #03 //009   ----------------------------------------
 BYTE   W96
//  #03 //010   ----------------------------------------
 BYTE   W96
//  #03 //011   ----------------------------------------
 BYTE   W96
//  #03 //012   ----------------------------------------
 BYTE   W96
//  #03 //013   ----------------------------------------
 BYTE   W96
//  #03 //014   ----------------------------------------
 BYTE   W96
//  #03 //015   ----------------------------------------
 BYTE   W96
//  #03 //016   ----------------------------------------
 BYTE   W96
//  #03 //017   ----------------------------------------
 BYTE   W96
//  #03 //018   ----------------------------------------
 BYTE   W96
//  #03 //019   ----------------------------------------
 BYTE   W96
//  #03 //020   ----------------------------------------
 BYTE   W96
//  #03 //021   ----------------------------------------
Label_010005EF:
 BYTE   W84
 BYTE   N48  Cn4  v085
 BYTE   W12
 BYTE   PEND 
//  #03 //022   ----------------------------------------
 BYTE   W48
 BYTE   N12
 BYTE   W12
 BYTE   An3
 BYTE   W12
 BYTE   En3
 BYTE   W12
 BYTE   N36  Dn3
 BYTE   W12
//  #03 //023   ----------------------------------------
 BYTE   W36
 BYTE   N12  An2
 BYTE   W12
 BYTE   Cn3
 BYTE   W12
 BYTE   En3
 BYTE   W12
 BYTE   Gn3
 BYTE   W12
 BYTE   N48  Cn4
 BYTE   W12
//  #03 //024   ----------------------------------------
 BYTE   W48
 BYTE   N12
 BYTE   W12
 BYTE   Bn3
 BYTE   W12
 BYTE   Gn3
 BYTE   W12
 BYTE   N72  Cn3
 BYTE   W12
//  #03 //025   ----------------------------------------
 BYTE   PATT
  POIN2 Label_010005EF
//  #03 //026   ----------------------------------------
 BYTE   W48
 BYTE   N12  Cn4  v085
 BYTE   W12
 BYTE   Bn3
 BYTE   W12
 BYTE   Gn3
 BYTE   W12
 BYTE   N24  Cn3
 BYTE   W12
//  #03 //027   ----------------------------------------
 BYTE   W24
 BYTE   N12  Fn3
 BYTE   W12
 BYTE   En3
 BYTE   W24
 BYTE   Cn3
 BYTE   W24
 BYTE   TIE  Dn3
 BYTE   W12
//  #03 //028   ----------------------------------------
 BYTE   W96
//  #03 //029   ----------------------------------------
 BYTE   W84
 BYTE   EOT
 BYTE   W12
//  #03 //030   ----------------------------------------
 BYTE   W96
//  #03 //031   ----------------------------------------
 BYTE   W96
//  #03 //032   ----------------------------------------
 BYTE   W96
//  #03 //033   ----------------------------------------
 BYTE   W96
//  #03 //034   ----------------------------------------
 BYTE   W96
//  #03 //035   ----------------------------------------
 BYTE   W96
//  #03 //036   ----------------------------------------
 BYTE   W96
//  #03 //037   ----------------------------------------
 BYTE   W96
//  #03 //038   ----------------------------------------
 BYTE   W96
//  #03 //039   ----------------------------------------
 BYTE   W96
//  #03 //040   ----------------------------------------
 BYTE   W96
//  #03 //041   ----------------------------------------
 BYTE   W96
//  #03 //042   ----------------------------------------
 BYTE   GoTo
  POIN2 Label_010005D2
 BYTE   FINE

//**************** Track 4 (Midi-Chn.3) ****************//

StreetFighterAlpha2KenTak_004:
//  #04 //000   ----------------------------------------
 BYTE   KEYSH   StreetFighterAlpha2KenTak_key+0
Label_01025B92:
 BYTE   VOICE   4
 BYTE   VOL   33*StreetFighterAlpha2KenTak_mvl/mxv
 BYTE   N24  Dn2  v116
 BYTE   BENDR  12
 BYTE   W36
 BYTE   N12
 BYTE   W12
 BYTE   Gn2
 BYTE   W12
 BYTE   An2
 BYTE   W12
 BYTE   Cn3
 BYTE   W12
 BYTE   Fn3
 BYTE   W12
//  #04 //001   ----------------------------------------
 BYTE   W12
 BYTE   En3
 BYTE   W24
 BYTE   Cn3
 BYTE   W24
 BYTE   An2
 BYTE   W12
 BYTE   Cn3
 BYTE   W12
 BYTE   N24  An3
 BYTE   N24  En3
 BYTE   N24  Cn3
 BYTE   W12
//  #04 //002   ----------------------------------------
 BYTE   W12
 BYTE   N12
 BYTE   N12  En3
 BYTE   N12  An3
 BYTE   W12
 BYTE   N24  Cn3
 BYTE   N24  Fn3
 BYTE   N24  An3
 BYTE   W24
 BYTE   An3
 BYTE   N24  Fn3
 BYTE   N24  Cn3
 BYTE   W24
 BYTE   Cn3
 BYTE   N24  En3
 BYTE   N24  An3
 BYTE   W24
//  #04 //003   ----------------------------------------
Label_01025BD0:
 BYTE   N24  Cn3  v116
 BYTE   N24  Fn3
 BYTE   N24  An3
 BYTE   W36
 BYTE   N12  Cn3
 BYTE   N12  En3
 BYTE   N12  An3
 BYTE   W24
 BYTE   An3
 BYTE   N12  Fn3
 BYTE   N12  Cn3
 BYTE   W24
 BYTE   N24  Gn3
 BYTE   N24  Dn3
 BYTE   N24  Bn2
 BYTE   W12
 BYTE   PEND 
//  #04 //004   ----------------------------------------
 BYTE   W12
 BYTE   N12  Gn3
 BYTE   N12  Dn3
 BYTE   N12  Bn2
 BYTE   W12
 BYTE   N24  Gn3
 BYTE   N24  En3
 BYTE   N24  Bn2
 BYTE   W24
 BYTE   Bn2
 BYTE   N24  En3
 BYTE   N24  Gn3
 BYTE   W24
 BYTE   Gn3
 BYTE   N24  En3
 BYTE   N24  Bn2
 BYTE   W24
//  #04 //005   ----------------------------------------
 BYTE   Gn3
 BYTE   N24  En3
 BYTE   N24  Bn2
 BYTE   W36
 BYTE   N12  Gn3
 BYTE   N12  Dn3
 BYTE   N12  Bn2
 BYTE   W24
 BYTE   Bn2
 BYTE   N12  En3
 BYTE   N12  Gn3
 BYTE   W24
 BYTE   N24
 BYTE   N24  En3
 BYTE   N24  Cn3
 BYTE   W12
//  #04 //006   ----------------------------------------
 BYTE   W12
 BYTE   N12
 BYTE   N12  En3
 BYTE   N12  Gn3
 BYTE   W12
 BYTE   N24  Cn3
 BYTE   N24  Fn3
 BYTE   N24  An3
 BYTE   W24
 BYTE   An3
 BYTE   N24  Fn3
 BYTE   N24  Cn3
 BYTE   W24
 BYTE   Cn3
 BYTE   N24  En3
 BYTE   N24  An3
 BYTE   W24
//  #04 //007   ----------------------------------------
 BYTE   PATT
  POIN2 Label_01025BD0
//  #04 //008   ----------------------------------------
 BYTE   W12
 BYTE   N12  Gn3  v116
 BYTE   N12  Dn3
 BYTE   N12  Bn2
 BYTE   W12
 BYTE   N24  Gn3
 BYTE   N24  En3
 BYTE   N24  Bn2
 BYTE   W24
 BYTE   Gn3
 BYTE   N24  En3
 BYTE   N24  Bn2
 BYTE   W24
 BYTE   Gn3
 BYTE   N24  Dn3
 BYTE   N24  Bn2
 BYTE   W24
//  #04 //009   ----------------------------------------
 BYTE   Gn3
 BYTE   N24  En3
 BYTE   N24  Bn2
 BYTE   W36
 BYTE   N12  Gn3
 BYTE   N12  Dn3
 BYTE   N12  Bn2
 BYTE   W24
 BYTE   Gn3
 BYTE   N12  En3
 BYTE   N12  Bn2
 BYTE   W24
 BYTE   N96  Fn3
 BYTE   N96  Dn3
 BYTE   N96  An2
 BYTE   W12
//  #04 //010   ----------------------------------------
 BYTE   W84
 BYTE   N84  Gn3
 BYTE   N84  En3
 BYTE   N84  Cs3
 BYTE   W12
//  #04 //011   ----------------------------------------
 BYTE   W84
 BYTE   N24  An3
 BYTE   N24  En3
 BYTE   N24  Cn3
 BYTE   W12
//  #04 //012   ----------------------------------------
 BYTE   W12
 BYTE   N12  An3
 BYTE   N12  En3
 BYTE   N12  Cn3
 BYTE   W12
 BYTE   N24
 BYTE   N24  Fn3
 BYTE   N24  An3
 BYTE   W24
 BYTE   An3
 BYTE   N24  Fn3
 BYTE   N24  Cn3
 BYTE   W24
 BYTE   N12
 BYTE   N12  En3
 BYTE   N12  An3
 BYTE   W24
//  #04 //013   ----------------------------------------
 BYTE   N24  Cn3
 BYTE   N24  An3
 BYTE   N24  Fn3
 BYTE   W36
 BYTE   N48  An3
 BYTE   N48  Fn3
 BYTE   N48  En3
 BYTE   N48  Bn2
 BYTE   W48
 BYTE   TIE  Gn3
 BYTE   TIE  Ds3
 BYTE   TIE  Gs2
 BYTE   W12
//  #04 //014   ----------------------------------------
 BYTE   W96
//  #04 //015   ----------------------------------------
 BYTE   W72
 BYTE   EOT
 BYTE   EOT
 BYTE   Ds3  v067
 BYTE   W12
 BYTE   TIE
 BYTE   TIE  Gs2
 BYTE   TIE  Dn3
 BYTE   W12
//  #04 //016   ----------------------------------------
 BYTE   W96
//  #04 //017   ----------------------------------------
 BYTE   W48
 BYTE   EOT
 BYTE   EOT
 BYTE   Gs2  v067
 BYTE   W12
 BYTE   N12
 BYTE   N12  Dn3
 BYTE   N12  Gs2
 BYTE   W24
 BYTE   TIE  Gn3
 BYTE   TIE  Ds3
 BYTE   TIE  Gs2
 BYTE   W12
//  #04 //018   ----------------------------------------
 BYTE   W96
//  #04 //019   ----------------------------------------
 BYTE   W48
 BYTE   EOT
 BYTE   EOT
 BYTE   Ds3  v067
 BYTE   W12
 BYTE   N12
 BYTE   N12  Ds3
 BYTE   N12  Gs2
 BYTE   W24
 BYTE   TIE  Gn3
 BYTE   TIE  Dn3
 BYTE   TIE  Gs2
 BYTE   W12
//  #04 //020   ----------------------------------------
 BYTE   W96
//  #04 //021   ----------------------------------------
 BYTE   W84
 BYTE   EOT
 BYTE   EOT
 BYTE   Dn3  v067
 BYTE   N24  Cn4
 BYTE   N24  Gn3
 BYTE   N24  Dn3
 BYTE   W12
//  #04 //022   ----------------------------------------
Label_01025CF9:
 BYTE   W12
 BYTE   N12  Cn4  v116
 BYTE   N12  Gn3
 BYTE   N12  Dn3
 BYTE   W12
 BYTE   Dn3
 BYTE   N12  Gn3
 BYTE   N12  Cn4
 BYTE   W12
 BYTE   Cn4
 BYTE   N12  Gn3
 BYTE   N12  Dn3
 BYTE   W12
 BYTE   Dn3
 BYTE   N12  Gn3
 BYTE   N12  Cn4
 BYTE   W12
 BYTE   Cn4
 BYTE   N12  Gn3
 BYTE   N12  Dn3
 BYTE   W12
 BYTE   Dn3
 BYTE   N12  Gn3
 BYTE   N12  Cn4
 BYTE   W12
 BYTE   Cn4
 BYTE   N12  Gn3
 BYTE   N12  Dn3
 BYTE   W12
 BYTE   PEND 
//  #04 //023   ----------------------------------------
Label_01025D27:
 BYTE   N12  Dn3  v116
 BYTE   N12  Gn3
 BYTE   N12  Cn4
 BYTE   W12
 BYTE   Cn4
 BYTE   N12  Gn3
 BYTE   N12  Dn3
 BYTE   W12
 BYTE   Dn3
 BYTE   N12  Gn3
 BYTE   N12  Cn4
 BYTE   W12
 BYTE   Cn4
 BYTE   N12  Gn3
 BYTE   N12  Dn3
 BYTE   W12
 BYTE   Dn3
 BYTE   N12  Gn3
 BYTE   N12  Cn4
 BYTE   W12
 BYTE   Cn4
 BYTE   N12  Gn3
 BYTE   N12  Dn3
 BYTE   W12
 BYTE   Dn3
 BYTE   N12  Gn3
 BYTE   N12  Cn4
 BYTE   W12
 BYTE   N24  Fn4
 BYTE   N24  Cn4
 BYTE   N24  As3
 BYTE   W12
 BYTE   PEND 
//  #04 //024   ----------------------------------------
Label_01025D5B:
 BYTE   W12
 BYTE   N12  Fn4  v116
 BYTE   N12  Cn4
 BYTE   N12  As3
 BYTE   W12
 BYTE   Fn4
 BYTE   N12  Cn4
 BYTE   N12  As3
 BYTE   W12
 BYTE   As3
 BYTE   N12  Cn4
 BYTE   N12  Fn4
 BYTE   W12
 BYTE   Fn4
 BYTE   N12  Cn4
 BYTE   N12  As3
 BYTE   W12
 BYTE   Fn4
 BYTE   N12  Cn4
 BYTE   N12  As3
 BYTE   W12
 BYTE   Fn4
 BYTE   N12  Cn4
 BYTE   N12  As3
 BYTE   W12
 BYTE   Cn4
 BYTE   N12  As3
 BYTE   N12  Fn4
 BYTE   W12
 BYTE   PEND 
//  #04 //025   ----------------------------------------
 BYTE   Fn4
 BYTE   N12  Cn4
 BYTE   N12  As3
 BYTE   W12
 BYTE   Fn4
 BYTE   N12  Cn4
 BYTE   N12  As3
 BYTE   W12
 BYTE   Fn4
 BYTE   N12  Cn4
 BYTE   N12  As3
 BYTE   W12
 BYTE   As3
 BYTE   N12  Cn4
 BYTE   N12  Fn4
 BYTE   W12
 BYTE   Fn4
 BYTE   N12  Cn4
 BYTE   N12  As3
 BYTE   W12
 BYTE   As3
 BYTE   N12  Cn4
 BYTE   N12  Fn4
 BYTE   W12
 BYTE   Fn4
 BYTE   N12  Cn4
 BYTE   N12  As3
 BYTE   W12
 BYTE   N24  Cn4
 BYTE   N24  Gn3
 BYTE   N24  Dn3
 BYTE   W12
//  #04 //026   ----------------------------------------
 BYTE   PATT
  POIN2 Label_01025CF9
//  #04 //027   ----------------------------------------
 BYTE   PATT
  POIN2 Label_01025D27
//  #04 //028   ----------------------------------------
 BYTE   PATT
  POIN2 Label_01025D5B
//  #04 //029   ----------------------------------------
 BYTE   N12  Fn4  v116
 BYTE   N12  Cn4
 BYTE   N12  As3
 BYTE   W12
 BYTE   Fn4
 BYTE   N12  Cn4
 BYTE   N12  As3
 BYTE   W12
 BYTE   Fn4
 BYTE   N12  Cn4
 BYTE   N12  As3
 BYTE   W12
 BYTE   As3
 BYTE   N12  Cn4
 BYTE   N12  Fn4
 BYTE   W12
 BYTE   Fn4
 BYTE   N12  Cn4
 BYTE   N12  As3
 BYTE   W12
 BYTE   As3
 BYTE   N12  Cn4
 BYTE   N12  Fn4
 BYTE   W12
 BYTE   Fn4
 BYTE   N12  Cn4
 BYTE   N12  As3
 BYTE   W12
 BYTE   N24  Fn3
 BYTE   N24  Gn3
 BYTE   N24  As3
 BYTE   W12
//  #04 //030   ----------------------------------------
 BYTE   W12
 BYTE   N12
 BYTE   N12  Gn3
 BYTE   N12  Fn3
 BYTE   W12
 BYTE   Fn3
 BYTE   N12  Gn3
 BYTE   N12  As3
 BYTE   W12
 BYTE   As3
 BYTE   N12  Gn3
 BYTE   N12  Fn3
 BYTE   W12
 BYTE   Fn3
 BYTE   N12  Gn3
 BYTE   N12  As3
 BYTE   W12
 BYTE   As3
 BYTE   N12  Gn3
 BYTE   N12  Fn3
 BYTE   W12
 BYTE   Fn3
 BYTE   N12  Gn3
 BYTE   N12  As3
 BYTE   W12
 BYTE   N24
 BYTE   N24  Gn3
 BYTE   N24  Fn3
 BYTE   W12
//  #04 //031   ----------------------------------------
Label_01025E27:
 BYTE   W12
 BYTE   N12  As3  v116
 BYTE   N12  Gn3
 BYTE   N12  Fn3
 BYTE   W12
 BYTE   Fn3
 BYTE   N12  Gn3
 BYTE   N12  As3
 BYTE   W12
 BYTE   As3
 BYTE   N12  Gn3
 BYTE   N12  Fn3
 BYTE   W12
 BYTE   Fn3
 BYTE   N12  Gn3
 BYTE   N12  As3
 BYTE   W12
 BYTE   As3
 BYTE   N12  Gn3
 BYTE   N12  Fn3
 BYTE   W12
 BYTE   Fn3
 BYTE   N12  Gn3
 BYTE   N12  As3
 BYTE   W12
 BYTE   N24  Dn3
 BYTE   N24  Ds3
 BYTE   N24  Gn3
 BYTE   W12
 BYTE   PEND 
//  #04 //032   ----------------------------------------
Label_01025E56:
 BYTE   W12
 BYTE   N12  Gn3  v116
 BYTE   N12  Ds3
 BYTE   N12  Dn3
 BYTE   W12
 BYTE   Dn3
 BYTE   N12  Ds3
 BYTE   N12  Gn3
 BYTE   W12
 BYTE   Gn3
 BYTE   N12  Ds3
 BYTE   N12  Dn3
 BYTE   W12
 BYTE   Dn3
 BYTE   N12  Ds3
 BYTE   N12  Gn3
 BYTE   W12
 BYTE   Dn3
 BYTE   N12  Ds3
 BYTE   N12  Gn3
 BYTE   W12
 BYTE   Gn3
 BYTE   N12  Ds3
 BYTE   N12  Dn3
 BYTE   W12
 BYTE   N24  Gn3
 BYTE   N24  En3
 BYTE   N24  Dn3
 BYTE   N24  Bn2
 BYTE   W12
 BYTE   PEND 
//  #04 //033   ----------------------------------------
Label_01025E87:
 BYTE   W12
 BYTE   N12  Gn3  v116
 BYTE   N12  En3
 BYTE   N12  Dn3
 BYTE   N12  Bn2
 BYTE   W12
 BYTE   Gn3
 BYTE   N12  En3
 BYTE   N12  Bn2
 BYTE   N12  Dn3
 BYTE   W12
 BYTE   Gn3
 BYTE   N12  En3
 BYTE   N12  Dn3
 BYTE   N12  Bn2
 BYTE   W12
 BYTE   Gn3
 BYTE   N12  Ds3
 BYTE   N12  Dn3
 BYTE   N12  As2
 BYTE   W12
 BYTE   Gn3
 BYTE   N12  Ds3
 BYTE   N12  Dn3
 BYTE   N12  As2
 BYTE   W12
 BYTE   As2
 BYTE   N12  Dn3
 BYTE   N12  Ds3
 BYTE   N12  Gn3
 BYTE   W12
 BYTE   Gn3
 BYTE   N12  Ds3
 BYTE   N12  Dn3
 BYTE   N12  As2
 BYTE   W12
 BYTE   PEND 
//  #04 //034   ----------------------------------------
 BYTE   As3
 BYTE   N12  Fn3
 BYTE   N12  Gn3
 BYTE   W12
 BYTE   As3
 BYTE   N12  Gn3
 BYTE   N12  Fn3
 BYTE   W12
 BYTE   Fn3
 BYTE   N12  Gn3
 BYTE   N12  As3
 BYTE   W12
 BYTE   As3
 BYTE   N12  Gn3
 BYTE   N12  Fn3
 BYTE   W12
 BYTE   Fn3
 BYTE   N12  Gn3
 BYTE   N12  As3
 BYTE   W12
 BYTE   As3
 BYTE   N12  Gn3
 BYTE   N12  Fn3
 BYTE   W12
 BYTE   Fn3
 BYTE   N12  Gn3
 BYTE   N12  As3
 BYTE   W12
 BYTE   N24
 BYTE   N24  Gn3
 BYTE   N24  Fn3
 BYTE   W12
//  #04 //035   ----------------------------------------
 BYTE   PATT
  POIN2 Label_01025E27
//  #04 //036   ----------------------------------------
 BYTE   PATT
  POIN2 Label_01025E56
//  #04 //037   ----------------------------------------
 BYTE   PATT
  POIN2 Label_01025E87
//  #04 //038   ----------------------------------------
 BYTE   N12  An2  v116
 BYTE   N12  Cn3
 BYTE   N12  Dn3
 BYTE   N12  Fn3
 BYTE   W12
 BYTE   Fn3
 BYTE   N12  Dn3
 BYTE   N12  Cn3
 BYTE   N12  An2
 BYTE   W12
 BYTE   An2
 BYTE   N12  Cn3
 BYTE   N12  Dn3
 BYTE   N12  Fn3
 BYTE   W12
 BYTE   Fn3
 BYTE   N12  Dn3
 BYTE   N12  Cn3
 BYTE   N12  An2
 BYTE   W12
 BYTE   Fn3
 BYTE   N12  Dn3
 BYTE   N12  Cn3
 BYTE   N12  An2
 BYTE   W12
 BYTE   Fn3
 BYTE   N12  Dn3
 BYTE   N12  Cn3
 BYTE   N12  An2
 BYTE   W12
 BYTE   Fn3
 BYTE   N12  Dn3
 BYTE   N12  Cn3
 BYTE   N12  An2
 BYTE   W12
 BYTE   N24  Fs3
 BYTE   N24  Dn3
 BYTE   N24  Bn2
 BYTE   W12
//  #04 //039   ----------------------------------------
 BYTE   W12
 BYTE   N12  Fs3
 BYTE   N12  Bn2
 BYTE   N12  Dn3
 BYTE   W12
 BYTE   Fs3
 BYTE   N12  Dn3
 BYTE   N12  Bn2
 BYTE   W12
 BYTE   Dn3
 BYTE   N12  Bn2
 BYTE   N12  Fs3
 BYTE   W12
 BYTE   Dn3
 BYTE   N12  Bn2
 BYTE   N12  Fs3
 BYTE   W12
 BYTE   Fs3
 BYTE   N12  Bn2
 BYTE   N12  Dn3
 BYTE   W12
 BYTE   Fs3
 BYTE   N12  Dn3
 BYTE   N12  Bn2
 BYTE   W12
 BYTE   N24  Fs3
 BYTE   N24  Dn3
 BYTE   N24  Bn2
 BYTE   W12
//  #04 //040   ----------------------------------------
 BYTE   W12
 BYTE   N12  Fs3
 BYTE   N12  Dn3
 BYTE   N12  As2
 BYTE   W12
 BYTE   Dn3
 BYTE   N12  Fs3
 BYTE   N12  As2
 BYTE   W12
 BYTE   Dn3
 BYTE   N12  Fs3
 BYTE   N12  As2
 BYTE   W12
 BYTE   Dn3
 BYTE   N12  Fs3
 BYTE   N12  As2
 BYTE   W12
 BYTE   Fs3
 BYTE   N12  Dn3
 BYTE   N12  As2
 BYTE   W12
 BYTE   Dn3
 BYTE   N12  Fs3
 BYTE   N12  As2
 BYTE   W12
 BYTE   N24  Cs3
 BYTE   N24  Fs3
 BYTE   N24  Gn3
 BYTE   W12
//  #04 //041   ----------------------------------------
 BYTE   W12
 BYTE   N12  Cs3
 BYTE   N12  Fs3
 BYTE   N12  Gn3
 BYTE   W12
 BYTE   Gn3
 BYTE   N12  Fs3
 BYTE   N12  Cs3
 BYTE   W12
 BYTE   Gn3
 BYTE   N12  Fs3
 BYTE   N12  Cs3
 BYTE   W12
 BYTE   Cs3
 BYTE   N12  Gn3
 BYTE   N12  Fn3
 BYTE   W12
 BYTE   Gn3
 BYTE   N12  Cs3
 BYTE   N12  Fn3
 BYTE   W12
 BYTE   Gn3
 BYTE   N12  Cs3
 BYTE   N12  Fn3
 BYTE   W12
 BYTE   Cs3
 BYTE   N12  Gn3
 BYTE   N12  Fn3
 BYTE   W12
//  #04 //042   ----------------------------------------
 BYTE   GoTo
  POIN2 Label_01025B92
 BYTE   FINE

//**************** Track 5 (Midi-Chn.4) ****************//

StreetFighterAlpha2KenTak_005:
//  #05 //000   ----------------------------------------
 BYTE   KEYSH   StreetFighterAlpha2KenTak_key+0
Label_01003F62:
 BYTE   VOICE   34
 BYTE   VOL   49*StreetFighterAlpha2KenTak_mvl/mxv
 BYTE   N36  Dn1  v127
 BYTE   BENDR  12
 BYTE   W36
 BYTE   N12
 BYTE   W12
 BYTE   Gn1
 BYTE   W12
 BYTE   An1
 BYTE   W12
 BYTE   Cn2
 BYTE   W12
 BYTE   Fn2
 BYTE   W12
//  #05 //001   ----------------------------------------
 BYTE   W12
 BYTE   En2
 BYTE   W24
 BYTE   Cn2
 BYTE   W24
 BYTE   An1
 BYTE   W12
 BYTE   Cn2
 BYTE   W12
 BYTE   N24  Dn1
 BYTE   W12
//  #05 //002   ----------------------------------------
Label_01003F82:
 BYTE   W12
 BYTE   N12  Dn1  v127
 BYTE   W12
 BYTE   Dn2
 BYTE   W12
 BYTE   Cn1
 BYTE   W12
 BYTE   Dn1
 BYTE   W12
 BYTE   Dn2
 BYTE   W24
 BYTE   Cn1
 BYTE   W12
 BYTE   PEND 
//  #05 //003   ----------------------------------------
Label_01003F92:
 BYTE   N12  Dn1  v127
 BYTE   W12
 BYTE   Dn2
 BYTE   W24
 BYTE   Cn1
 BYTE   W12
 BYTE   Dn1
 BYTE   W12
 BYTE   Dn2
 BYTE   W12
 BYTE   Cs1
 BYTE   W12
 BYTE   N24  Cn1
 BYTE   W12
 BYTE   PEND 
//  #05 //004   ----------------------------------------
Label_01003FA4:
 BYTE   W12
 BYTE   N12  Cn1  v127
 BYTE   W12
 BYTE   Cn2
 BYTE   W12
 BYTE   Bn0
 BYTE   W12
 BYTE   Cn1
 BYTE   W12
 BYTE   Cn2
 BYTE   W24
 BYTE   Bn0
 BYTE   W12
 BYTE   PEND 
//  #05 //005   ----------------------------------------
 BYTE   Cn1
 BYTE   W12
 BYTE   Cn2
 BYTE   W24
 BYTE   Bn0
 BYTE   W12
 BYTE   Cn1
 BYTE   W12
 BYTE   Cn2
 BYTE   W12
 BYTE   Cs1
 BYTE   W12
 BYTE   N24  Dn1
 BYTE   W12
//  #05 //006   ----------------------------------------
 BYTE   PATT
  POIN2 Label_01003F82
//  #05 //007   ----------------------------------------
 BYTE   PATT
  POIN2 Label_01003F92
//  #05 //008   ----------------------------------------
 BYTE   PATT
  POIN2 Label_01003FA4
//  #05 //009   ----------------------------------------
 BYTE   N12  Cn1  v127
 BYTE   W12
 BYTE   Cn2
 BYTE   W24
 BYTE   Bn0
 BYTE   W12
 BYTE   Cn1
 BYTE   W12
 BYTE   Cn2
 BYTE   W12
 BYTE   Bn0
 BYTE   W12
 BYTE   N24  As0
 BYTE   W12
//  #05 //010   ----------------------------------------
 BYTE   W12
 BYTE   N12  As1
 BYTE   W12
 BYTE   As0
 BYTE   W12
 BYTE   As1
 BYTE   W12
 BYTE   As0
 BYTE   W12
 BYTE   As1
 BYTE   W12
 BYTE   As0
 BYTE   W12
 BYTE   N24  An0
 BYTE   W12
//  #05 //011   ----------------------------------------
 BYTE   W12
 BYTE   N12  An1
 BYTE   W12
 BYTE   An0
 BYTE   W12
 BYTE   An1
 BYTE   W12
 BYTE   En1
 BYTE   W12
 BYTE   En2
 BYTE   W12
 BYTE   Ds1
 BYTE   W12
 BYTE   N24  Dn1
 BYTE   W12
//  #05 //012   ----------------------------------------
 BYTE   W12
 BYTE   N12
 BYTE   W12
 BYTE   Dn2
 BYTE   W12
 BYTE   Cn1
 BYTE   W12
 BYTE   Dn1
 BYTE   W12
 BYTE   An0
 BYTE   W12
 BYTE   Gs0
 BYTE   W12
 BYTE   Gn0
 BYTE   W12
//  #05 //013   ----------------------------------------
 BYTE   W12
 BYTE   Gn0
 BYTE   W12
 BYTE   Gn1
 BYTE   W12
 BYTE   Fn0
 BYTE   W12
 BYTE   Gn0
 BYTE   W12
 BYTE   N18  Gn1
 BYTE   W18
 BYTE   N06  Fn1
 BYTE   W06
 BYTE   N24  Fn0
 BYTE   W12
//  #05 //014   ----------------------------------------
 BYTE   W12
 BYTE   N12
 BYTE   W12
 BYTE   N24  Gn0
 BYTE   W24
 BYTE   Gs0
 BYTE   W24
 BYTE   N12  As0
 BYTE   W12
 BYTE   Gn0
 BYTE   W12
//  #05 //015   ----------------------------------------
 BYTE   W48
 BYTE   Fn0
 BYTE   W12
 BYTE   Gn0
 BYTE   W12
 BYTE   Gs0
 BYTE   W12
 BYTE   N24  As0
 BYTE   W12
//  #05 //016   ----------------------------------------
 BYTE   W12
 BYTE   N12
 BYTE   W12
 BYTE   N24  Cn1
 BYTE   W24
 BYTE   Dn1
 BYTE   W36
 BYTE   N12  As0
 BYTE   W12
//  #05 //017   ----------------------------------------
 BYTE   W24
 BYTE   As0
 BYTE   W12
 BYTE   N24  Ds1
 BYTE   W24
 BYTE   As0
 BYTE   W24
 BYTE   Fn0
 BYTE   W12
//  #05 //018   ----------------------------------------
 BYTE   W12
 BYTE   N12
 BYTE   W12
 BYTE   N24  Gn0
 BYTE   W24
 BYTE   Gs0
 BYTE   W24
 BYTE   N12  As0
 BYTE   W12
 BYTE   Fn0
 BYTE   W12
//  #05 //019   ----------------------------------------
 BYTE   W48
 BYTE   Fn0
 BYTE   W12
 BYTE   Gn0
 BYTE   W12
 BYTE   Gs0
 BYTE   W12
 BYTE   As0
 BYTE   W12
//  #05 //020   ----------------------------------------
 BYTE   W36
 BYTE   Gs0
 BYTE   W12
 BYTE   N24  As0
 BYTE   W36
 BYTE   N12  Gs0
 BYTE   W12
//  #05 //021   ----------------------------------------
 BYTE   As0
 BYTE   W12
 BYTE   As1
 BYTE   W24
 BYTE   Gs0
 BYTE   W12
 BYTE   As0
 BYTE   W12
 BYTE   As1
 BYTE   W12
 BYTE   As0
 BYTE   W12
 BYTE   N24  An0
 BYTE   W12
//  #05 //022   ----------------------------------------
 BYTE   W12
 BYTE   N12
 BYTE   W12
 BYTE   N24  Bn0
 BYTE   W24
 BYTE   N12  Cn1
 BYTE   W36
 BYTE   N24  An0
 BYTE   W12
//  #05 //023   ----------------------------------------
 BYTE   W12
 BYTE   N12
 BYTE   W12
 BYTE   N24  Bn0
 BYTE   W24
 BYTE   N12  Cn1
 BYTE   W12
 BYTE   An0
 BYTE   W12
 BYTE   En1
 BYTE   W12
 BYTE   N24  Dn1
 BYTE   W12
//  #05 //024   ----------------------------------------
Label_0100409C:
 BYTE   W12
 BYTE   N12  Dn1  v127
 BYTE   W12
 BYTE   N24  En1
 BYTE   W24
 BYTE   Fn1
 BYTE   W36
 BYTE   N12  Dn1
 BYTE   W12
 BYTE   PEND 
//  #05 //025   ----------------------------------------
 BYTE   En1
 BYTE   W12
 BYTE   Fn1
 BYTE   W36
 BYTE   Gn1
 BYTE   W12
 BYTE   Fn1
 BYTE   W12
 BYTE   En1
 BYTE   W12
 BYTE   N24  An0
 BYTE   W12
//  #05 //026   ----------------------------------------
 BYTE   W12
 BYTE   N12
 BYTE   W12
 BYTE   N24  Bn0
 BYTE   W24
 BYTE   Cn1
 BYTE   W36
 BYTE   N12  An0
 BYTE   W12
//  #05 //027   ----------------------------------------
 BYTE   Bn0
 BYTE   W12
 BYTE   Cn1
 BYTE   W24
 BYTE   An0
 BYTE   W12
 BYTE   Cn1
 BYTE   W12
 BYTE   An0
 BYTE   W12
 BYTE   En1
 BYTE   W12
 BYTE   N24  Dn1
 BYTE   W12
//  #05 //028   ----------------------------------------
 BYTE   PATT
  POIN2 Label_0100409C
//  #05 //029   ----------------------------------------
 BYTE   N12  En1  v127
 BYTE   W12
 BYTE   Fn1
 BYTE   W36
 BYTE   Gn1
 BYTE   W12
 BYTE   Fn1
 BYTE   W12
 BYTE   En1
 BYTE   W12
 BYTE   Dn0
 BYTE   W12
//  #05 //030   ----------------------------------------
 BYTE   Gn0
 BYTE   W12
 BYTE   Gn0
 BYTE   W12
 BYTE   N24  An0
 BYTE   W24
 BYTE   As0
 BYTE   W36
 BYTE   Gn0
 BYTE   W12
//  #05 //031   ----------------------------------------
 BYTE   W12
 BYTE   N12
 BYTE   W12
 BYTE   N24  An0
 BYTE   W24
 BYTE   N12  As0
 BYTE   W12
 BYTE   Gn0
 BYTE   W12
 BYTE   Dn1
 BYTE   W12
 BYTE   N24  Cn1
 BYTE   W12
//  #05 //032   ----------------------------------------
 BYTE   W12
 BYTE   N12
 BYTE   W12
 BYTE   N24  Dn1
 BYTE   W24
 BYTE   Ds1
 BYTE   W36
 BYTE   N12  Cn1
 BYTE   W12
//  #05 //033   ----------------------------------------
 BYTE   Dn1
 BYTE   W12
 BYTE   En1
 BYTE   W36
 BYTE   Fn1
 BYTE   W12
 BYTE   Ds1
 BYTE   W12
 BYTE   Dn1
 BYTE   W12
 BYTE   Dn0
 BYTE   W12
//  #05 //034   ----------------------------------------
 BYTE   Gn0
 BYTE   W12
 BYTE   Gn0
 BYTE   W12
 BYTE   N24  An0
 BYTE   W24
 BYTE   As0
 BYTE   W36
 BYTE   N12  Gn0
 BYTE   W12
//  #05 //035   ----------------------------------------
 BYTE   An0
 BYTE   W12
 BYTE   As0
 BYTE   W24
 BYTE   Gn0
 BYTE   W12
 BYTE   As0
 BYTE   W12
 BYTE   Gn0
 BYTE   W12
 BYTE   Dn1
 BYTE   W12
 BYTE   Gn0
 BYTE   W12
//  #05 //036   ----------------------------------------
 BYTE   Cn1
 BYTE   W12
 BYTE   Cn1
 BYTE   W12
 BYTE   N24  Dn1
 BYTE   W24
 BYTE   Ds1
 BYTE   W36
 BYTE   N12  Cn1
 BYTE   W12
//  #05 //037   ----------------------------------------
 BYTE   Dn1
 BYTE   W12
 BYTE   En1
 BYTE   W36
 BYTE   Fn1
 BYTE   W12
 BYTE   Ds1
 BYTE   W12
 BYTE   Dn1
 BYTE   W12
 BYTE   Fn0
 BYTE   W12
//  #05 //038   ----------------------------------------
 BYTE   As0
 BYTE   W12
 BYTE   As0
 BYTE   W12
 BYTE   N24  Cn1
 BYTE   W24
 BYTE   Dn1
 BYTE   W36
 BYTE   En0
 BYTE   W12
//  #05 //039   ----------------------------------------
 BYTE   W12
 BYTE   N12
 BYTE   W12
 BYTE   N24  Fs0
 BYTE   W24
 BYTE   Gn0
 BYTE   W36
 BYTE   Gn0
 BYTE   W12
//  #05 //040   ----------------------------------------
 BYTE   W12
 BYTE   N12
 BYTE   W12
 BYTE   N24  An0
 BYTE   W24
 BYTE   Bn0
 BYTE   W36
 BYTE   An0
 BYTE   W12
//  #05 //041   ----------------------------------------
 BYTE   W12
 BYTE   N12
 BYTE   W12
 BYTE   N24  Bn0
 BYTE   W24
 BYTE   Cs1
 BYTE   W48
//  #05 //042   ----------------------------------------
 BYTE   GoTo
  POIN2 Label_01003F62
 BYTE   FINE

//**************** Track 6 (Midi-Chn.5) ****************//

StreetFighterAlpha2KenTak_006:
//  #06 //000   ----------------------------------------
 BYTE   KEYSH   StreetFighterAlpha2KenTak_key+0
Label_010260D2:
 BYTE   VOICE   124
 BYTE   VOL   58*StreetFighterAlpha2KenTak_mvl/mxv
 BYTE   N24  Cs2  v127
 BYTE   BENDR  12
 BYTE   W24
 BYTE   N24  Fs1
 BYTE   W24
 BYTE   Fs1
 BYTE   W24
 BYTE   Fs1
 BYTE   W12
 BYTE   N36  Ds2
 BYTE   W12
//  #06 //001   ----------------------------------------
 BYTE   W24
 BYTE   N12  Cn2
 BYTE   W12
 BYTE   Cn2
 BYTE   W12
 BYTE   Bn1
 BYTE   N42  An2
 BYTE   W12
 BYTE   N06  En1
 BYTE   W06
 BYTE   En1
 BYTE   W06
 BYTE   N12
 BYTE   W12
 BYTE   N36  Cs2
 BYTE   N12  Cn1
 BYTE   W12
//  #06 //002   ----------------------------------------
Label_010260FC:
 BYTE   N24  As1  v127
 BYTE   W12
 BYTE   N12  Cn1
 BYTE   W12
 BYTE   N24  As1
 BYTE   N24  En1
 BYTE   W24
 BYTE   As1
 BYTE   N24  Cn1
 BYTE   W24
 BYTE   As1
 BYTE   N24  En1
 BYTE   W24
 BYTE   PEND 
//  #06 //003   ----------------------------------------
Label_01026111:
 BYTE   N24  As1  v127
 BYTE   N24  Cn1
 BYTE   W24
 BYTE   As1
 BYTE   N24  En1
 BYTE   W24
 BYTE   As1
 BYTE   N12  Cn1
 BYTE   W12
 BYTE   Cn1
 BYTE   W12
 BYTE   N24  As1
 BYTE   N24  En1
 BYTE   W12
 BYTE   N12  Cn1
 BYTE   W12
 BYTE   PEND 
//  #06 //004   ----------------------------------------
 BYTE   PATT
  POIN2 Label_010260FC
//  #06 //005   ----------------------------------------
 BYTE   PATT
  POIN2 Label_01026111
//  #06 //006   ----------------------------------------
 BYTE   PATT
  POIN2 Label_010260FC
//  #06 //007   ----------------------------------------
 BYTE   PATT
  POIN2 Label_01026111
//  #06 //008   ----------------------------------------
 BYTE   PATT
  POIN2 Label_010260FC
//  #06 //009   ----------------------------------------
 BYTE   N24  As1  v127
 BYTE   N24  Cn1
 BYTE   W24
 BYTE   As1
 BYTE   N24  En1
 BYTE   W24
 BYTE   N12  Cn1
 BYTE   N12  As1
 BYTE   W12
 BYTE   Bn1
 BYTE   W12
 BYTE   En1
 BYTE   W12
 BYTE   Cn1
 BYTE   N42  An2
 BYTE   W12
//  #06 //010   ----------------------------------------
Label_0102615A:
 BYTE   W12
 BYTE   N12  Cn1  v127
 BYTE   W12
 BYTE   N24  As1
 BYTE   N24  En1
 BYTE   W24
 BYTE   As1
 BYTE   N24  Cn1
 BYTE   W24
 BYTE   As1
 BYTE   N24  En1
 BYTE   W12
 BYTE   N12  Cn1
 BYTE   W12
 BYTE   PEND 
//  #06 //011   ----------------------------------------
Label_01026170:
 BYTE   N24  As1  v127
 BYTE   W12
 BYTE   N12  Cn1
 BYTE   W12
 BYTE   N24  As1
 BYTE   N24  En1
 BYTE   W24
 BYTE   As1
 BYTE   N24  Cn1
 BYTE   W24
 BYTE   As1
 BYTE   N24  En1
 BYTE   W12
 BYTE   N12  Cn1
 BYTE   W12
 BYTE   PEND 
//  #06 //012   ----------------------------------------
 BYTE   PATT
  POIN2 Label_01026170
//  #06 //013   ----------------------------------------
 BYTE   N24  As1  v127
 BYTE   W12
 BYTE   N12  Cn1
 BYTE   W12
 BYTE   As1
 BYTE   N12  En1
 BYTE   W12
 BYTE   N42  An2
 BYTE   N12  Cn1
 BYTE   N12  Cn2
 BYTE   W24
 BYTE   Cn1
 BYTE   N12  Bn1
 BYTE   W12
 BYTE   En1
 BYTE   W12
 BYTE   N24  Cs2
 BYTE   N12  Cn1
 BYTE   W12
//  #06 //014   ----------------------------------------
Label_010261AA:
 BYTE   W12
 BYTE   N12  Cs2  v127
 BYTE   W12
 BYTE   Fs1
 BYTE   N36  Cs2
 BYTE   N12  En1
 BYTE   W12
 BYTE   Fs1
 BYTE   W12
 BYTE   Fs1
 BYTE   W12
 BYTE   Fs1
 BYTE   W12
 BYTE   Fs1
 BYTE   N12  En1
 BYTE   W12
 BYTE   Fs1
 BYTE   N12  Cn1
 BYTE   W12
 BYTE   PEND 
//  #06 //015   ----------------------------------------
Label_010261C4:
 BYTE   N12  Fs1  v127
 BYTE   W12
 BYTE   Fs1
 BYTE   N12  Cn1
 BYTE   W12
 BYTE   Fs1
 BYTE   N12  En1
 BYTE   W12
 BYTE   Fs1
 BYTE   W12
 BYTE   Fs1
 BYTE   W12
 BYTE   Fs1
 BYTE   W12
 BYTE   Fs1
 BYTE   N12  En1
 BYTE   W12
 BYTE   Fs1
 BYTE   N12  Cn1
 BYTE   W12
 BYTE   PEND 
//  #06 //016   ----------------------------------------
Label_010261DF:
 BYTE   N12  Fs1  v127
 BYTE   W12
 BYTE   Fs1
 BYTE   W12
 BYTE   Fs1
 BYTE   N12  En1
 BYTE   W12
 BYTE   Fs1
 BYTE   W12
 BYTE   Fs1
 BYTE   W12
 BYTE   Fs1
 BYTE   N12  Cn1
 BYTE   W12
 BYTE   Fs1
 BYTE   N12  En1
 BYTE   W12
 BYTE   Fs1
 BYTE   N12  Cn1
 BYTE   W12
 BYTE   PEND 
//  #06 //017   ----------------------------------------
 BYTE   Fs1
 BYTE   W12
 BYTE   Fs1
 BYTE   N12  Cn1
 BYTE   W12
 BYTE   Fs1
 BYTE   N12  En1
 BYTE   W12
 BYTE   Fs1
 BYTE   W12
 BYTE   Fs1
 BYTE   W12
 BYTE   Fs1
 BYTE   N12  Cn1
 BYTE   W12
 BYTE   Fs1
 BYTE   N12  En1
 BYTE   W12
 BYTE   Fs1
 BYTE   N12  Cn1
 BYTE   W12
//  #06 //018   ----------------------------------------
 BYTE   PATT
  POIN2 Label_010261C4
//  #06 //019   ----------------------------------------
 BYTE   PATT
  POIN2 Label_010261DF
//  #06 //020   ----------------------------------------
 BYTE   PATT
  POIN2 Label_010261DF
//  #06 //021   ----------------------------------------
 BYTE   N12  Fs1  v127
 BYTE   W12
 BYTE   Fs1
 BYTE   W12
 BYTE   Fs1
 BYTE   N12  En1
 BYTE   W12
 BYTE   Fs1
 BYTE   N12  Gn1
 BYTE   W12
 BYTE   Fs1
 BYTE   N24  Cn1
 BYTE   W12
 BYTE   N12  Fs1
 BYTE   N12  Fn1
 BYTE   W12
 BYTE   Fs1
 BYTE   N12  En1
 BYTE   W12
 BYTE   Fs1
 BYTE   N12  Cn1
 BYTE   W12
//  #06 //022   ----------------------------------------
 BYTE   PATT
  POIN2 Label_0102615A
//  #06 //023   ----------------------------------------
 BYTE   PATT
  POIN2 Label_01026170
//  #06 //024   ----------------------------------------
 BYTE   PATT
  POIN2 Label_01026170
//  #06 //025   ----------------------------------------
 BYTE   N24  As1  v127
 BYTE   W12
 BYTE   N12  Cn1
 BYTE   W12
 BYTE   N24  As1
 BYTE   N24  En1
 BYTE   W24
 BYTE   Cn1
 BYTE   N24  As1
 BYTE   W12
 BYTE   N12  En1
 BYTE   W12
 BYTE   En1
 BYTE   N12  As1
 BYTE   W12
 BYTE   Cn1
 BYTE   N36  Cs2
 BYTE   W12
//  #06 //026   ----------------------------------------
 BYTE   PATT
  POIN2 Label_0102615A
//  #06 //027   ----------------------------------------
 BYTE   PATT
  POIN2 Label_01026170
//  #06 //028   ----------------------------------------
 BYTE   N24  As1  v127
 BYTE   W12
 BYTE   N12  Cn1
 BYTE   W12
 BYTE   N24  As1
 BYTE   N24  En1
 BYTE   W24
 BYTE   As1
 BYTE   N24  Cn1
 BYTE   W12
 BYTE   N12  Cn2
 BYTE   W12
 BYTE   En1
 BYTE   N24  As1
 BYTE   W12
 BYTE   Ds2
 BYTE   N12  Cn1
 BYTE   W12
//  #06 //029   ----------------------------------------
 BYTE   N24  As1
 BYTE   W12
 BYTE   N12  Cn1
 BYTE   W12
 BYTE   N36  Cs2
 BYTE   W12
 BYTE   N06  En1
 BYTE   W06
 BYTE   En1
 BYTE   W06
 BYTE   N24  Cn1
 BYTE   N12  En1
 BYTE   W12
 BYTE   N24  Ds2
 BYTE   W12
 BYTE   N12  Bn1
 BYTE   W12
 BYTE   N24  Cs2
 BYTE   N12  Cn1
 BYTE   W12
//  #06 //030   ----------------------------------------
 BYTE   PATT
  POIN2 Label_010261AA
//  #06 //031   ----------------------------------------
Label_010262B4:
 BYTE   N12  Fs1  v127
 BYTE   W12
 BYTE   Fs1
 BYTE   N12  Cn1
 BYTE   W12
 BYTE   Fs1
 BYTE   N12  En1
 BYTE   W12
 BYTE   Fs1
 BYTE   W12
 BYTE   Fs1
 BYTE   N24  Cn1
 BYTE   W12
 BYTE   N12  Fs1
 BYTE   W12
 BYTE   Fs1
 BYTE   N12  En1
 BYTE   W12
 BYTE   Fs1
 BYTE   N12  Cn1
 BYTE   W12
 BYTE   PEND 
//  #06 //032   ----------------------------------------
 BYTE   PATT
  POIN2 Label_010262B4
//  #06 //033   ----------------------------------------
Label_010262D7:
 BYTE   N12  Fs1  v127
 BYTE   W12
 BYTE   Fs1
 BYTE   N12  Cn1
 BYTE   W12
 BYTE   Fs1
 BYTE   N12  En1
 BYTE   W12
 BYTE   Fs1
 BYTE   W12
 BYTE   N24  En1
 BYTE   N24  Cn1
 BYTE   W24
 BYTE   N12  En1
 BYTE   N12  Fs1
 BYTE   W12
 BYTE   Cs2
 BYTE   N12  Cn1
 BYTE   W12
 BYTE   PEND 
//  #06 //034   ----------------------------------------
 BYTE   Fs1
 BYTE   W12
 BYTE   Fs1
 BYTE   W12
 BYTE   Fs1
 BYTE   N36  Cs2
 BYTE   N12  En1
 BYTE   W12
 BYTE   Fs1
 BYTE   W12
 BYTE   Fs1
 BYTE   W12
 BYTE   Fs1
 BYTE   W12
 BYTE   Fs1
 BYTE   N12  En1
 BYTE   W12
 BYTE   Fs1
 BYTE   N12  Cn1
 BYTE   W12
//  #06 //035   ----------------------------------------
 BYTE   PATT
  POIN2 Label_010262B4
//  #06 //036   ----------------------------------------
 BYTE   PATT
  POIN2 Label_010262B4
//  #06 //037   ----------------------------------------
 BYTE   PATT
  POIN2 Label_010262D7
//  #06 //038   ----------------------------------------
 BYTE   PATT
  POIN2 Label_010261AA
//  #06 //039   ----------------------------------------
 BYTE   PATT
  POIN2 Label_010262B4
//  #06 //040   ----------------------------------------
 BYTE   PATT
  POIN2 Label_010262B4
//  #06 //041   ----------------------------------------
 BYTE   N24  As1  v127
 BYTE   W12
 BYTE   N12  Cn1
 BYTE   W12
 BYTE   As1
 BYTE   N12  En1
 BYTE   W12
 BYTE   N24  Cs2
 BYTE   N12  Cn1
 BYTE   W12
 BYTE   As1
 BYTE   W12
 BYTE   Cs2
 BYTE   N12  Cn1
 BYTE   W12
 BYTE   N24  As1
 BYTE   N24  En1
 BYTE   W12
 BYTE   N12  Cn1
 BYTE   W12
//  #06 //042   ----------------------------------------
 BYTE   GoTo
  POIN2 Label_010260D2
 BYTE   FINE

//******************************************************//
	ALIGN 4

StreetFighterAlpha2KenTak:
	BYTE	6	// NumTrks
	BYTE	0	// NumBlks
	BYTE	StreetFighterAlpha2KenTak_pri	// Priority
	BYTE	StreetFighterAlpha2KenTak_rev	// Reverb.
    
	POIN2	StreetFighterAlpha2KenTak_grp
    
	POIN2	StreetFighterAlpha2KenTak_001
	POIN2	StreetFighterAlpha2KenTak_002
	POIN2	StreetFighterAlpha2KenTak_003
	POIN2	StreetFighterAlpha2KenTak_004
	POIN2	StreetFighterAlpha2KenTak_005
	POIN2	StreetFighterAlpha2KenTak_006

	
