//Event file generated from Sappy .s format.
	#include "MPlayDef.event"

	#define	StreetFighter33rdStrikeSnowlandNecroTwelveTak_grp  voicegroup000
	#define	StreetFighter33rdStrikeSnowlandNecroTwelveTak_pri  0
	#define	StreetFighter33rdStrikeSnowlandNecroTwelveTak_rev  0
	#define	StreetFighter33rdStrikeSnowlandNecroTwelveTak_mvl  127
	#define	StreetFighter33rdStrikeSnowlandNecroTwelveTak_key  0
	#define	StreetFighter33rdStrikeSnowlandNecroTwelveTak_tbs  1
	#define	StreetFighter33rdStrikeSnowlandNecroTwelveTak_exg  0
	#define	StreetFighter33rdStrikeSnowlandNecroTwelveTak_cmp  1

	// .rodata
	//	StreetFighter33rdStrikeSnowlandNecroTwelveTak
	ALIGN 4


//**************** Track 1 (Midi-Chn.0) ****************//

StreetFighter33rdStrikeSnowlandNecroTwelveTak_001:
//  #01 //000   ----------------------------------------
 BYTE   KEYSH   StreetFighter33rdStrikeSnowlandNecroTwelveTak_key+0
 BYTE   TEMPO   160*StreetFighter33rdStrikeSnowlandNecroTwelveTak_tbs/2
Label_01008060:
 BYTE   VOICE   59
 BYTE   VOL   65*StreetFighter33rdStrikeSnowlandNecroTwelveTak_mvl/mxv
 BYTE   BENDR  12
 BYTE   W36
 BYTE   N05  Gn2  v080
 BYTE   W12
 BYTE   N11  Cn3
 BYTE   W12
 BYTE   N23  Dn3
 BYTE   W24
 BYTE   En3
 BYTE   W12
//  #01 //001   ----------------------------------------
Label_01008073:
 BYTE   W12
 BYTE   N23  Dn3  v080
 BYTE   W24
 BYTE   Cn3
 BYTE   W24
 BYTE   N11  Gn2
 BYTE   W12
 BYTE   As2
 BYTE   W12
 BYTE   Cn3
 BYTE   W12
 BYTE   PEND 
//  #01 //002   ----------------------------------------
Label_01008082:
 BYTE   N11  As2  v080
 BYTE   W12
 BYTE   N23  Gn2
 BYTE   W24
 BYTE   N11  Fn2
 BYTE   W12
 BYTE   Gn2
 BYTE   W12
 BYTE   N23  As2
 BYTE   W24
 BYTE   N11  Cn3
 BYTE   W12
 BYTE   PEND 
//  #01 //003   ----------------------------------------
Label_01008095:
 BYTE   W12
 BYTE   N05  Gn2  v080
 BYTE   W12
 BYTE   N11  As2
 BYTE   W12
 BYTE   N32  Cn3  v080  gtp3
 BYTE   W60
 BYTE   PEND 
//  #01 //004   ----------------------------------------
Label_010080A3:
 BYTE   W36
 BYTE   N05  Gn2  v080
 BYTE   W12
 BYTE   N11  Cn3
 BYTE   W12
 BYTE   N23  Dn3
 BYTE   W24
 BYTE   En3
 BYTE   W12
 BYTE   PEND 
//  #01 //005   ----------------------------------------
Label_010080B1:
 BYTE   W12
 BYTE   N23  Fn3  v080
 BYTE   W24
 BYTE   Gn3
 BYTE   W24
 BYTE   As3
 BYTE   W24
 BYTE   N11  Cn4
 BYTE   W12
 BYTE   PEND 
//  #01 //006   ----------------------------------------
Label_010080BE:
 BYTE   W12
 BYTE   N05  Gn3  v080
 BYTE   W12
 BYTE   N11  As3
 BYTE   W12
 BYTE   Cn4
 BYTE   W24
 BYTE   N23  Gn3
 BYTE   W24
 BYTE   N11  Fn3
 BYTE   W12
 BYTE   PEND 
//  #01 //007   ----------------------------------------
Label_010080CF:
 BYTE   N11  As3  v080
 BYTE   W12
 BYTE   Gn3
 BYTE   W12
 BYTE   Fn3
 BYTE   W12
 BYTE   N23  Cn3
 BYTE   W24
 BYTE   N11  Ds3
 BYTE   W12
 BYTE   Fn3
 BYTE   W12
 BYTE   As3
 BYTE   W12
 BYTE   PEND 
//  #01 //008   ----------------------------------------
Label_010080E2:
 BYTE   N16  Cn4  v127
 BYTE   W24
 BYTE   Cn4  v000
 BYTE   W24
 BYTE   Cn4
 BYTE   W24
 BYTE   Cn4
 BYTE   W24
 BYTE   PEND 
//  #01 //009   ----------------------------------------
Label_010080EE:
 BYTE   N16  Cn4  v000
 BYTE   W24
 BYTE   Cn4
 BYTE   W24
 BYTE   Cn4
 BYTE   W24
 BYTE   Cn4
 BYTE   W24
 BYTE   PEND 
//  #01 //010   ----------------------------------------
Label_010080F9:
 BYTE   N11  As3  v127
 BYTE   W12
 BYTE   Cn4  v080
 BYTE   W12
 BYTE   As3
 BYTE   W24
 BYTE   As3  v127
 BYTE   W12
 BYTE   Cn4  v080
 BYTE   W12
 BYTE   As3
 BYTE   W24
 BYTE   PEND 
//  #01 //011   ----------------------------------------
 BYTE   PATT
  POIN2 Label_010080F9
//  #01 //012   ----------------------------------------
Label_01008110:
 BYTE   N16  Cn4  v108
 BYTE   W24
 BYTE   Cn4  v000
 BYTE   W24
 BYTE   Cn4
 BYTE   W24
 BYTE   Cn4
 BYTE   W24
 BYTE   PEND 
//  #01 //013   ----------------------------------------
 BYTE   PATT
  POIN2 Label_010080EE
//  #01 //014   ----------------------------------------
 BYTE   PATT
  POIN2 Label_010080F9
//  #01 //015   ----------------------------------------
 BYTE   PATT
  POIN2 Label_010080F9
//  #01 //016   ----------------------------------------
 BYTE   PATT
  POIN2 Label_010080A3
//  #01 //017   ----------------------------------------
 BYTE   PATT
  POIN2 Label_01008073
//  #01 //018   ----------------------------------------
 BYTE   PATT
  POIN2 Label_01008082
//  #01 //019   ----------------------------------------
 BYTE   PATT
  POIN2 Label_01008095
//  #01 //020   ----------------------------------------
 BYTE   PATT
  POIN2 Label_010080A3
//  #01 //021   ----------------------------------------
 BYTE   PATT
  POIN2 Label_010080B1
//  #01 //022   ----------------------------------------
 BYTE   PATT
  POIN2 Label_010080BE
//  #01 //023   ----------------------------------------
 BYTE   PATT
  POIN2 Label_010080CF
//  #01 //024   ----------------------------------------
 BYTE   PATT
  POIN2 Label_010080E2
//  #01 //025   ----------------------------------------
 BYTE   PATT
  POIN2 Label_010080EE
//  #01 //026   ----------------------------------------
 BYTE   PATT
  POIN2 Label_010080F9
//  #01 //027   ----------------------------------------
 BYTE   PATT
  POIN2 Label_010080F9
//  #01 //028   ----------------------------------------
 BYTE   PATT
  POIN2 Label_01008110
//  #01 //029   ----------------------------------------
 BYTE   PATT
  POIN2 Label_010080EE
//  #01 //030   ----------------------------------------
 BYTE   PATT
  POIN2 Label_010080F9
//  #01 //031   ----------------------------------------
 BYTE   PATT
  POIN2 Label_010080F9
//  #01 //032   ----------------------------------------
 BYTE   PATT
  POIN2 Label_010080A3
//  #01 //033   ----------------------------------------
 BYTE   PATT
  POIN2 Label_01008073
//  #01 //034   ----------------------------------------
 BYTE   PATT
  POIN2 Label_01008082
//  #01 //035   ----------------------------------------
 BYTE   PATT
  POIN2 Label_01008095
//  #01 //036   ----------------------------------------
 BYTE   PATT
  POIN2 Label_010080A3
//  #01 //037   ----------------------------------------
 BYTE   PATT
  POIN2 Label_010080B1
//  #01 //038   ----------------------------------------
 BYTE   PATT
  POIN2 Label_010080BE
//  #01 //039   ----------------------------------------
 BYTE   PATT
  POIN2 Label_010080CF
//  #01 //040   ----------------------------------------
 BYTE   PATT
  POIN2 Label_010080E2
//  #01 //041   ----------------------------------------
 BYTE   PATT
  POIN2 Label_010080EE
//  #01 //042   ----------------------------------------
 BYTE   PATT
  POIN2 Label_010080F9
//  #01 //043   ----------------------------------------
 BYTE   PATT
  POIN2 Label_010080F9
//  #01 //044   ----------------------------------------
 BYTE   PATT
  POIN2 Label_01008110
//  #01 //045   ----------------------------------------
 BYTE   PATT
  POIN2 Label_010080EE
//  #01 //046   ----------------------------------------
 BYTE   PATT
  POIN2 Label_010080F9
//  #01 //047   ----------------------------------------
 BYTE   PATT
  POIN2 Label_010080F9
//  #01 //048   ----------------------------------------
 BYTE   PATT
  POIN2 Label_010080A3
//  #01 //049   ----------------------------------------
 BYTE   PATT
  POIN2 Label_01008073
//  #01 //050   ----------------------------------------
 BYTE   PATT
  POIN2 Label_01008082
//  #01 //051   ----------------------------------------
 BYTE   PATT
  POIN2 Label_01008095
//  #01 //052   ----------------------------------------
 BYTE   PATT
  POIN2 Label_010080A3
//  #01 //053   ----------------------------------------
 BYTE   PATT
  POIN2 Label_010080B1
//  #01 //054   ----------------------------------------
 BYTE   PATT
  POIN2 Label_010080BE
//  #01 //055   ----------------------------------------
 BYTE   PATT
  POIN2 Label_010080CF
//  #01 //056   ----------------------------------------
 BYTE   PATT
  POIN2 Label_010080E2
//  #01 //057   ----------------------------------------
 BYTE   PATT
  POIN2 Label_010080EE
//  #01 //058   ----------------------------------------
 BYTE   PATT
  POIN2 Label_010080F9
//  #01 //059   ----------------------------------------
 BYTE   PATT
  POIN2 Label_010080F9
//  #01 //060   ----------------------------------------
 BYTE   PATT
  POIN2 Label_01008110
//  #01 //061   ----------------------------------------
 BYTE   PATT
  POIN2 Label_010080EE
//  #01 //062   ----------------------------------------
 BYTE   PATT
  POIN2 Label_010080F9
//  #01 //063   ----------------------------------------
 BYTE   PATT
  POIN2 Label_010080F9
//  #01 //064   ----------------------------------------
 BYTE   W96
//  #01 //065   ----------------------------------------
 BYTE   W96
//  #01 //066   ----------------------------------------
Label_0100821D:
 BYTE   N11  An3  v127
 BYTE   W12
 BYTE   En3  v080
 BYTE   W84
 BYTE   PEND 
//  #01 //067   ----------------------------------------
Label_01008225:
 BYTE   W12
 BYTE   N11  En3  v080
 BYTE   W12
 BYTE   Gn3
 BYTE   W12
 BYTE   Gs3
 BYTE   W12
 BYTE   An3
 BYTE   W12
 BYTE   Cn4  v127
 BYTE   W24
 BYTE   An3  v023
 BYTE   W12
 BYTE   PEND 
//  #01 //068   ----------------------------------------
Label_01008237:
 BYTE   N11  Cn4  v023
 BYTE   W24
 BYTE   An3  v015
 BYTE   W12
 BYTE   Cn4
 BYTE   W24
 BYTE   An3  v002
 BYTE   W12
 BYTE   Cn4
 BYTE   W24
 BYTE   PEND 
//  #01 //069   ----------------------------------------
Label_01008246:
 BYTE   N11  An3  v000
 BYTE   W12
 BYTE   Cn4
 BYTE   W84
 BYTE   PEND 
//  #01 //070   ----------------------------------------
 BYTE   PATT
  POIN2 Label_0100821D
//  #01 //071   ----------------------------------------
 BYTE   PATT
  POIN2 Label_01008225
//  #01 //072   ----------------------------------------
 BYTE   PATT
  POIN2 Label_01008237
//  #01 //073   ----------------------------------------
 BYTE   PATT
  POIN2 Label_01008246
//  #01 //074   ----------------------------------------
Label_01008261:
 BYTE   N11  Gn3  v127
 BYTE   W12
 BYTE   Dn3  v080
 BYTE   W84
 BYTE   PEND 
//  #01 //075   ----------------------------------------
Label_01008269:
 BYTE   W12
 BYTE   N11  An2  v080
 BYTE   W12
 BYTE   Cn3
 BYTE   W12
 BYTE   Dn3
 BYTE   W12
 BYTE   En3
 BYTE   W12
 BYTE   Gn3  v127
 BYTE   W24
 BYTE   En3  v023
 BYTE   W12
 BYTE   PEND 
//  #01 //076   ----------------------------------------
Label_0100827B:
 BYTE   N11  Gn3  v023
 BYTE   W24
 BYTE   En3  v015
 BYTE   W12
 BYTE   Gn3
 BYTE   W24
 BYTE   En3  v002
 BYTE   W12
 BYTE   Gn3
 BYTE   W24
 BYTE   PEND 
//  #01 //077   ----------------------------------------
Label_0100828A:
 BYTE   N11  En3  v000
 BYTE   W12
 BYTE   Gn3
 BYTE   W84
 BYTE   PEND 
//  #01 //078   ----------------------------------------
 BYTE   PATT
  POIN2 Label_01008261
//  #01 //079   ----------------------------------------
 BYTE   PATT
  POIN2 Label_01008269
//  #01 //080   ----------------------------------------
 BYTE   PATT
  POIN2 Label_0100827B
//  #01 //081   ----------------------------------------
 BYTE   PATT
  POIN2 Label_0100828A
//  #01 //082   ----------------------------------------
 BYTE   PATT
  POIN2 Label_0100821D
//  #01 //083   ----------------------------------------
 BYTE   PATT
  POIN2 Label_01008225
//  #01 //084   ----------------------------------------
 BYTE   PATT
  POIN2 Label_01008237
//  #01 //085   ----------------------------------------
 BYTE   PATT
  POIN2 Label_01008246
//  #01 //086   ----------------------------------------
 BYTE   PATT
  POIN2 Label_0100821D
//  #01 //087   ----------------------------------------
 BYTE   PATT
  POIN2 Label_01008225
//  #01 //088   ----------------------------------------
 BYTE   PATT
  POIN2 Label_01008237
//  #01 //089   ----------------------------------------
 BYTE   PATT
  POIN2 Label_01008246
//  #01 //090   ----------------------------------------
 BYTE   PATT
  POIN2 Label_01008261
//  #01 //091   ----------------------------------------
 BYTE   PATT
  POIN2 Label_01008269
//  #01 //092   ----------------------------------------
 BYTE   PATT
  POIN2 Label_0100827B
//  #01 //093   ----------------------------------------
 BYTE   PATT
  POIN2 Label_0100828A
//  #01 //094   ----------------------------------------
 BYTE   PATT
  POIN2 Label_01008261
//  #01 //095   ----------------------------------------
 BYTE   PATT
  POIN2 Label_01008269
//  #01 //096   ----------------------------------------
 BYTE   PATT
  POIN2 Label_0100827B
//  #01 //097   ----------------------------------------
 BYTE   PATT
  POIN2 Label_0100828A
//  #01 //098   ----------------------------------------
 BYTE   PATT
  POIN2 Label_010080A3
//  #01 //099   ----------------------------------------
 BYTE   PATT
  POIN2 Label_01008073
//  #01 //100   ----------------------------------------
 BYTE   PATT
  POIN2 Label_01008082
//  #01 //101   ----------------------------------------
 BYTE   PATT
  POIN2 Label_01008095
//  #01 //102   ----------------------------------------
 BYTE   PATT
  POIN2 Label_010080A3
//  #01 //103   ----------------------------------------
 BYTE   PATT
  POIN2 Label_010080B1
//  #01 //104   ----------------------------------------
 BYTE   PATT
  POIN2 Label_010080BE
//  #01 //105   ----------------------------------------
 BYTE   PATT
  POIN2 Label_010080CF
//  #01 //106   ----------------------------------------
 BYTE   PATT
  POIN2 Label_010080E2
//  #01 //107   ----------------------------------------
 BYTE   PATT
  POIN2 Label_010080EE
//  #01 //108   ----------------------------------------
 BYTE   PATT
  POIN2 Label_010080F9
//  #01 //109   ----------------------------------------
 BYTE   PATT
  POIN2 Label_010080F9
//  #01 //110   ----------------------------------------
 BYTE   PATT
  POIN2 Label_01008110
//  #01 //111   ----------------------------------------
 BYTE   PATT
  POIN2 Label_010080EE
//  #01 //112   ----------------------------------------
 BYTE   PATT
  POIN2 Label_010080F9
//  #01 //113   ----------------------------------------
 BYTE   PATT
  POIN2 Label_010080F9
//  #01 //114   ----------------------------------------
 BYTE   PATT
  POIN2 Label_010080A3
//  #01 //115   ----------------------------------------
 BYTE   PATT
  POIN2 Label_01008073
//  #01 //116   ----------------------------------------
 BYTE   PATT
  POIN2 Label_01008082
//  #01 //117   ----------------------------------------
 BYTE   PATT
  POIN2 Label_01008095
//  #01 //118   ----------------------------------------
 BYTE   PATT
  POIN2 Label_010080A3
//  #01 //119   ----------------------------------------
 BYTE   PATT
  POIN2 Label_010080B1
//  #01 //120   ----------------------------------------
 BYTE   PATT
  POIN2 Label_010080BE
//  #01 //121   ----------------------------------------
 BYTE   PATT
  POIN2 Label_010080CF
//  #01 //122   ----------------------------------------
 BYTE   PATT
  POIN2 Label_010080E2
//  #01 //123   ----------------------------------------
 BYTE   PATT
  POIN2 Label_010080EE
//  #01 //124   ----------------------------------------
 BYTE   PATT
  POIN2 Label_010080F9
//  #01 //125   ----------------------------------------
 BYTE   PATT
  POIN2 Label_010080F9
//  #01 //126   ----------------------------------------
 BYTE   PATT
  POIN2 Label_01008110
//  #01 //127   ----------------------------------------
 BYTE   PATT
  POIN2 Label_010080EE
//  #01 //128   ----------------------------------------
 BYTE   PATT
  POIN2 Label_010080F9
//  #01 //129   ----------------------------------------
 BYTE   PATT
  POIN2 Label_010080F9
//  #01 //130   ----------------------------------------
 BYTE   PATT
  POIN2 Label_010080A3
//  #01 //131   ----------------------------------------
 BYTE   PATT
  POIN2 Label_01008073
//  #01 //132   ----------------------------------------
 BYTE   PATT
  POIN2 Label_01008082
//  #01 //133   ----------------------------------------
 BYTE   PATT
  POIN2 Label_01008095
//  #01 //134   ----------------------------------------
 BYTE   PATT
  POIN2 Label_010080A3
//  #01 //135   ----------------------------------------
 BYTE   PATT
  POIN2 Label_010080B1
//  #01 //136   ----------------------------------------
 BYTE   PATT
  POIN2 Label_010080BE
//  #01 //137   ----------------------------------------
 BYTE   PATT
  POIN2 Label_010080CF
//  #01 //138   ----------------------------------------
 BYTE   PATT
  POIN2 Label_010080E2
//  #01 //139   ----------------------------------------
 BYTE   PATT
  POIN2 Label_010080EE
//  #01 //140   ----------------------------------------
 BYTE   PATT
  POIN2 Label_010080F9
//  #01 //141   ----------------------------------------
 BYTE   PATT
  POIN2 Label_010080F9
//  #01 //142   ----------------------------------------
 BYTE   PATT
  POIN2 Label_01008110
//  #01 //143   ----------------------------------------
 BYTE   PATT
  POIN2 Label_010080EE
//  #01 //144   ----------------------------------------
 BYTE   PATT
  POIN2 Label_010080F9
//  #01 //145   ----------------------------------------
 BYTE   PATT
  POIN2 Label_010080F9
//  #01 //146   ----------------------------------------
 BYTE   PATT
  POIN2 Label_010080A3
//  #01 //147   ----------------------------------------
 BYTE   PATT
  POIN2 Label_01008073
//  #01 //148   ----------------------------------------
 BYTE   PATT
  POIN2 Label_01008082
//  #01 //149   ----------------------------------------
 BYTE   PATT
  POIN2 Label_01008095
//  #01 //150   ----------------------------------------
 BYTE   PATT
  POIN2 Label_010080A3
//  #01 //151   ----------------------------------------
 BYTE   PATT
  POIN2 Label_010080B1
//  #01 //152   ----------------------------------------
 BYTE   PATT
  POIN2 Label_010080BE
//  #01 //153   ----------------------------------------
 BYTE   PATT
  POIN2 Label_010080CF
//  #01 //154   ----------------------------------------
 BYTE   PATT
  POIN2 Label_010080E2
//  #01 //155   ----------------------------------------
 BYTE   PATT
  POIN2 Label_010080EE
//  #01 //156   ----------------------------------------
 BYTE   PATT
  POIN2 Label_010080F9
//  #01 //157   ----------------------------------------
 BYTE   PATT
  POIN2 Label_010080F9
//  #01 //158   ----------------------------------------
 BYTE   PATT
  POIN2 Label_01008110
//  #01 //159   ----------------------------------------
 BYTE   PATT
  POIN2 Label_010080EE
//  #01 //160   ----------------------------------------
 BYTE   PATT
  POIN2 Label_010080F9
//  #01 //161   ----------------------------------------
 BYTE   PATT
  POIN2 Label_010080F9
//  #01 //162   ----------------------------------------
 BYTE   GoTo
  POIN2 Label_01008060
 BYTE   FINE

//**************** Track 2 (Midi-Chn.1) ****************//

StreetFighter33rdStrikeSnowlandNecroTwelveTak_002:
//  #02 //000   ----------------------------------------
 BYTE   KEYSH   StreetFighter33rdStrikeSnowlandNecroTwelveTak_key+0
Label_0100843E:
 BYTE   VOICE   108
 BYTE   PAN   c_v+31
 BYTE   VOL   33*StreetFighter33rdStrikeSnowlandNecroTwelveTak_mvl/mxv
 BYTE   TIE  Gn3  v041
 BYTE   TIE  En3
 BYTE   TIE  Cn3
 BYTE   TIE  An2
 BYTE   BENDR  12
 BYTE   W96
//  #02 //001   ----------------------------------------
Label_01008450:
 BYTE   W92
 BYTE   W03
 BYTE   EOT
 BYTE   Gn3  v057
 BYTE   Cn3  v064
 BYTE   W01
 BYTE   PEND 
//  #02 //002   ----------------------------------------
Label_01008459:
 BYTE   N92  Ds3  v041  gtp3
 BYTE   Cn3
 BYTE   N92  Gs2  v041  gtp3
 BYTE   Fn2
 BYTE   W96
 BYTE   PEND 
//  #02 //003   ----------------------------------------
Label_01008465:
 BYTE   N92  Fn3  v041  gtp3
 BYTE   Dn3
 BYTE   N92  As2  v041  gtp3
 BYTE   Gn2
 BYTE   W96
 BYTE   PEND 
//  #02 //004   ----------------------------------------
Label_01008471:
 BYTE   TIE  Gn3  v041
 BYTE   TIE  En3
 BYTE   TIE  Cn3
 BYTE   TIE  An2
 BYTE   W96
 BYTE   PEND 
//  #02 //005   ----------------------------------------
Label_0100847C:
 BYTE   W92
 BYTE   W03
 BYTE   EOT
 BYTE   Gn3  v057
 BYTE   En3  v060
 BYTE   W01
 BYTE   PEND 
//  #02 //006   ----------------------------------------
 BYTE   PATT
  POIN2 Label_01008459
//  #02 //007   ----------------------------------------
 BYTE   PATT
  POIN2 Label_01008465
//  #02 //008   ----------------------------------------
 BYTE   PATT
  POIN2 Label_01008471
//  #02 //009   ----------------------------------------
Label_01008494:
 BYTE   W92
 BYTE   W03
 BYTE   EOT
 BYTE   An2  v064
 BYTE   Cn3  v067
 BYTE   W01
 BYTE   PEND 
//  #02 //010   ----------------------------------------
 BYTE   PATT
  POIN2 Label_01008459
//  #02 //011   ----------------------------------------
 BYTE   PATT
  POIN2 Label_01008465
//  #02 //012   ----------------------------------------
 BYTE   PATT
  POIN2 Label_01008471
//  #02 //013   ----------------------------------------
Label_010084AC:
 BYTE   W92
 BYTE   W03
 BYTE   EOT
 BYTE   Cn3  v064
 BYTE   An2  v067
 BYTE   W01
 BYTE   PEND 
//  #02 //014   ----------------------------------------
 BYTE   PATT
  POIN2 Label_01008459
//  #02 //015   ----------------------------------------
 BYTE   PATT
  POIN2 Label_01008465
//  #02 //016   ----------------------------------------
 BYTE   PATT
  POIN2 Label_01008471
//  #02 //017   ----------------------------------------
Label_010084C4:
 BYTE   W92
 BYTE   W03
 BYTE   EOT
 BYTE   Gn3  v064
 BYTE   An2  v060
 BYTE   W01
 BYTE   PEND 
//  #02 //018   ----------------------------------------
 BYTE   PATT
  POIN2 Label_01008459
//  #02 //019   ----------------------------------------
 BYTE   PATT
  POIN2 Label_01008465
//  #02 //020   ----------------------------------------
 BYTE   PATT
  POIN2 Label_01008471
//  #02 //021   ----------------------------------------
 BYTE   PATT
  POIN2 Label_01008450
//  #02 //022   ----------------------------------------
 BYTE   PATT
  POIN2 Label_01008459
//  #02 //023   ----------------------------------------
 BYTE   PATT
  POIN2 Label_01008465
//  #02 //024   ----------------------------------------
 BYTE   PATT
  POIN2 Label_01008471
//  #02 //025   ----------------------------------------
Label_010084F0:
 BYTE   W92
 BYTE   W03
 BYTE   EOT
 BYTE   An2  v060
 BYTE   Gn3  v064
 BYTE   W01
 BYTE   PEND 
//  #02 //026   ----------------------------------------
 BYTE   PATT
  POIN2 Label_01008459
//  #02 //027   ----------------------------------------
 BYTE   PATT
  POIN2 Label_01008465
//  #02 //028   ----------------------------------------
 BYTE   PATT
  POIN2 Label_01008471
//  #02 //029   ----------------------------------------
Label_01008508:
 BYTE   W92
 BYTE   W03
 BYTE   EOT
 BYTE   Cn3  v064
 BYTE   Gn3  v057
 BYTE   W01
 BYTE   PEND 
//  #02 //030   ----------------------------------------
 BYTE   PATT
  POIN2 Label_01008459
//  #02 //031   ----------------------------------------
 BYTE   PATT
  POIN2 Label_01008465
//  #02 //032   ----------------------------------------
 BYTE   PATT
  POIN2 Label_01008471
//  #02 //033   ----------------------------------------
 BYTE   PATT
  POIN2 Label_010084C4
//  #02 //034   ----------------------------------------
 BYTE   PATT
  POIN2 Label_01008459
//  #02 //035   ----------------------------------------
 BYTE   PATT
  POIN2 Label_01008465
//  #02 //036   ----------------------------------------
 BYTE   PATT
  POIN2 Label_01008471
//  #02 //037   ----------------------------------------
 BYTE   PATT
  POIN2 Label_01008450
//  #02 //038   ----------------------------------------
 BYTE   PATT
  POIN2 Label_01008459
//  #02 //039   ----------------------------------------
 BYTE   PATT
  POIN2 Label_01008465
//  #02 //040   ----------------------------------------
 BYTE   PATT
  POIN2 Label_01008471
//  #02 //041   ----------------------------------------
 BYTE   PATT
  POIN2 Label_01008494
//  #02 //042   ----------------------------------------
 BYTE   PATT
  POIN2 Label_01008459
//  #02 //043   ----------------------------------------
 BYTE   PATT
  POIN2 Label_01008465
//  #02 //044   ----------------------------------------
 BYTE   PATT
  POIN2 Label_01008471
//  #02 //045   ----------------------------------------
 BYTE   PATT
  POIN2 Label_010084AC
//  #02 //046   ----------------------------------------
 BYTE   PATT
  POIN2 Label_01008459
//  #02 //047   ----------------------------------------
 BYTE   PATT
  POIN2 Label_01008465
//  #02 //048   ----------------------------------------
 BYTE   PATT
  POIN2 Label_01008471
//  #02 //049   ----------------------------------------
 BYTE   PATT
  POIN2 Label_01008450
//  #02 //050   ----------------------------------------
 BYTE   PATT
  POIN2 Label_01008459
//  #02 //051   ----------------------------------------
 BYTE   PATT
  POIN2 Label_01008465
//  #02 //052   ----------------------------------------
 BYTE   PATT
  POIN2 Label_01008471
//  #02 //053   ----------------------------------------
 BYTE   PATT
  POIN2 Label_0100847C
//  #02 //054   ----------------------------------------
 BYTE   PATT
  POIN2 Label_01008459
//  #02 //055   ----------------------------------------
 BYTE   PATT
  POIN2 Label_01008465
//  #02 //056   ----------------------------------------
 BYTE   PATT
  POIN2 Label_01008471
//  #02 //057   ----------------------------------------
 BYTE   PATT
  POIN2 Label_01008494
//  #02 //058   ----------------------------------------
 BYTE   PATT
  POIN2 Label_01008459
//  #02 //059   ----------------------------------------
 BYTE   PATT
  POIN2 Label_01008465
//  #02 //060   ----------------------------------------
 BYTE   PATT
  POIN2 Label_01008471
//  #02 //061   ----------------------------------------
 BYTE   PATT
  POIN2 Label_010084AC
//  #02 //062   ----------------------------------------
 BYTE   PATT
  POIN2 Label_01008459
//  #02 //063   ----------------------------------------
 BYTE   PATT
  POIN2 Label_01008465
//  #02 //064   ----------------------------------------
 BYTE   W96
//  #02 //065   ----------------------------------------
 BYTE   W96
//  #02 //066   ----------------------------------------
 BYTE   PATT
  POIN2 Label_01008471
//  #02 //067   ----------------------------------------
 BYTE   W96
//  #02 //068   ----------------------------------------
 BYTE   W96
//  #02 //069   ----------------------------------------
 BYTE   PATT
  POIN2 Label_01008450
//  #02 //070   ----------------------------------------
 BYTE   PATT
  POIN2 Label_01008471
//  #02 //071   ----------------------------------------
 BYTE   W96
//  #02 //072   ----------------------------------------
 BYTE   W96
//  #02 //073   ----------------------------------------
Label_010085D0:
 BYTE   W92
 BYTE   W03
 BYTE   EOT
 BYTE   En3  v057
 BYTE   Cn3  v067
 BYTE   W01
 BYTE   PEND 
//  #02 //074   ----------------------------------------
Label_010085D9:
 BYTE   TIE  Fn3  v041
 BYTE   TIE  Dn3
 BYTE   TIE  As2
 BYTE   TIE  Gn2
 BYTE   W96
 BYTE   PEND 
//  #02 //075   ----------------------------------------
 BYTE   W96
//  #02 //076   ----------------------------------------
 BYTE   W96
//  #02 //077   ----------------------------------------
Label_010085E6:
 BYTE   W92
 BYTE   W03
 BYTE   EOT
 BYTE   Fn3  v055
 BYTE   As2  v062
 BYTE   W01
 BYTE   PEND 
//  #02 //078   ----------------------------------------
 BYTE   PATT
  POIN2 Label_010085D9
//  #02 //079   ----------------------------------------
 BYTE   W96
//  #02 //080   ----------------------------------------
 BYTE   W96
//  #02 //081   ----------------------------------------
Label_010085F6:
 BYTE   W92
 BYTE   W03
 BYTE   EOT
 BYTE   Dn3  v055
 BYTE   As2  v065
 BYTE   W01
 BYTE   PEND 
//  #02 //082   ----------------------------------------
 BYTE   PATT
  POIN2 Label_01008471
//  #02 //083   ----------------------------------------
 BYTE   W96
//  #02 //084   ----------------------------------------
 BYTE   W96
//  #02 //085   ----------------------------------------
 BYTE   PATT
  POIN2 Label_01008450
//  #02 //086   ----------------------------------------
 BYTE   PATT
  POIN2 Label_01008471
//  #02 //087   ----------------------------------------
 BYTE   W96
//  #02 //088   ----------------------------------------
 BYTE   W96
//  #02 //089   ----------------------------------------
 BYTE   PATT
  POIN2 Label_010085D0
//  #02 //090   ----------------------------------------
 BYTE   PATT
  POIN2 Label_010085D9
//  #02 //091   ----------------------------------------
 BYTE   W96
//  #02 //092   ----------------------------------------
 BYTE   W96
//  #02 //093   ----------------------------------------
 BYTE   PATT
  POIN2 Label_010085E6
//  #02 //094   ----------------------------------------
 BYTE   PATT
  POIN2 Label_010085D9
//  #02 //095   ----------------------------------------
 BYTE   W96
//  #02 //096   ----------------------------------------
 BYTE   W96
//  #02 //097   ----------------------------------------
 BYTE   PATT
  POIN2 Label_010085F6
//  #02 //098   ----------------------------------------
 BYTE   PATT
  POIN2 Label_01008471
//  #02 //099   ----------------------------------------
 BYTE   PATT
  POIN2 Label_01008450
//  #02 //100   ----------------------------------------
 BYTE   PATT
  POIN2 Label_01008459
//  #02 //101   ----------------------------------------
 BYTE   PATT
  POIN2 Label_01008465
//  #02 //102   ----------------------------------------
 BYTE   PATT
  POIN2 Label_01008471
//  #02 //103   ----------------------------------------
 BYTE   PATT
  POIN2 Label_0100847C
//  #02 //104   ----------------------------------------
 BYTE   PATT
  POIN2 Label_01008459
//  #02 //105   ----------------------------------------
 BYTE   PATT
  POIN2 Label_01008465
//  #02 //106   ----------------------------------------
 BYTE   PATT
  POIN2 Label_01008471
//  #02 //107   ----------------------------------------
 BYTE   PATT
  POIN2 Label_01008494
//  #02 //108   ----------------------------------------
 BYTE   PATT
  POIN2 Label_01008459
//  #02 //109   ----------------------------------------
 BYTE   PATT
  POIN2 Label_01008465
//  #02 //110   ----------------------------------------
 BYTE   PATT
  POIN2 Label_01008471
//  #02 //111   ----------------------------------------
 BYTE   PATT
  POIN2 Label_010084AC
//  #02 //112   ----------------------------------------
 BYTE   PATT
  POIN2 Label_01008459
//  #02 //113   ----------------------------------------
 BYTE   PATT
  POIN2 Label_01008465
//  #02 //114   ----------------------------------------
 BYTE   PATT
  POIN2 Label_01008471
//  #02 //115   ----------------------------------------
 BYTE   PATT
  POIN2 Label_010084C4
//  #02 //116   ----------------------------------------
 BYTE   PATT
  POIN2 Label_01008459
//  #02 //117   ----------------------------------------
 BYTE   PATT
  POIN2 Label_01008465
//  #02 //118   ----------------------------------------
 BYTE   PATT
  POIN2 Label_01008471
//  #02 //119   ----------------------------------------
 BYTE   PATT
  POIN2 Label_01008450
//  #02 //120   ----------------------------------------
 BYTE   PATT
  POIN2 Label_01008459
//  #02 //121   ----------------------------------------
 BYTE   PATT
  POIN2 Label_01008465
//  #02 //122   ----------------------------------------
 BYTE   PATT
  POIN2 Label_01008471
//  #02 //123   ----------------------------------------
 BYTE   PATT
  POIN2 Label_010084F0
//  #02 //124   ----------------------------------------
 BYTE   PATT
  POIN2 Label_01008459
//  #02 //125   ----------------------------------------
 BYTE   PATT
  POIN2 Label_01008465
//  #02 //126   ----------------------------------------
 BYTE   PATT
  POIN2 Label_01008471
//  #02 //127   ----------------------------------------
 BYTE   PATT
  POIN2 Label_01008508
//  #02 //128   ----------------------------------------
 BYTE   PATT
  POIN2 Label_01008459
//  #02 //129   ----------------------------------------
 BYTE   PATT
  POIN2 Label_01008465
//  #02 //130   ----------------------------------------
 BYTE   PATT
  POIN2 Label_01008471
//  #02 //131   ----------------------------------------
 BYTE   PATT
  POIN2 Label_010084C4
//  #02 //132   ----------------------------------------
 BYTE   PATT
  POIN2 Label_01008459
//  #02 //133   ----------------------------------------
 BYTE   PATT
  POIN2 Label_01008465
//  #02 //134   ----------------------------------------
 BYTE   PATT
  POIN2 Label_01008471
//  #02 //135   ----------------------------------------
 BYTE   PATT
  POIN2 Label_01008450
//  #02 //136   ----------------------------------------
 BYTE   PATT
  POIN2 Label_01008459
//  #02 //137   ----------------------------------------
 BYTE   PATT
  POIN2 Label_01008465
//  #02 //138   ----------------------------------------
 BYTE   PATT
  POIN2 Label_01008471
//  #02 //139   ----------------------------------------
 BYTE   PATT
  POIN2 Label_01008494
//  #02 //140   ----------------------------------------
 BYTE   PATT
  POIN2 Label_01008459
//  #02 //141   ----------------------------------------
 BYTE   PATT
  POIN2 Label_01008465
//  #02 //142   ----------------------------------------
 BYTE   PATT
  POIN2 Label_01008471
//  #02 //143   ----------------------------------------
 BYTE   PATT
  POIN2 Label_010084AC
//  #02 //144   ----------------------------------------
 BYTE   PATT
  POIN2 Label_01008459
//  #02 //145   ----------------------------------------
 BYTE   PATT
  POIN2 Label_01008465
//  #02 //146   ----------------------------------------
 BYTE   PATT
  POIN2 Label_01008471
//  #02 //147   ----------------------------------------
 BYTE   PATT
  POIN2 Label_01008450
//  #02 //148   ----------------------------------------
 BYTE   PATT
  POIN2 Label_01008459
//  #02 //149   ----------------------------------------
 BYTE   PATT
  POIN2 Label_01008465
//  #02 //150   ----------------------------------------
 BYTE   PATT
  POIN2 Label_01008471
//  #02 //151   ----------------------------------------
 BYTE   PATT
  POIN2 Label_0100847C
//  #02 //152   ----------------------------------------
 BYTE   PATT
  POIN2 Label_01008459
//  #02 //153   ----------------------------------------
 BYTE   PATT
  POIN2 Label_01008465
//  #02 //154   ----------------------------------------
 BYTE   PATT
  POIN2 Label_01008471
//  #02 //155   ----------------------------------------
 BYTE   PATT
  POIN2 Label_01008494
//  #02 //156   ----------------------------------------
 BYTE   PATT
  POIN2 Label_01008459
//  #02 //157   ----------------------------------------
 BYTE   PATT
  POIN2 Label_01008465
//  #02 //158   ----------------------------------------
 BYTE   PATT
  POIN2 Label_01008471
//  #02 //159   ----------------------------------------
 BYTE   PATT
  POIN2 Label_010084AC
//  #02 //160   ----------------------------------------
 BYTE   PATT
  POIN2 Label_01008459
//  #02 //161   ----------------------------------------
 BYTE   PATT
  POIN2 Label_01008465
//  #02 //162   ----------------------------------------
 BYTE   GoTo
  POIN2 Label_0100843E
 BYTE   FINE

//**************** Track 3 (Midi-Chn.2) ****************//

StreetFighter33rdStrikeSnowlandNecroTwelveTak_003:
//  #03 //000   ----------------------------------------
 BYTE   KEYSH   StreetFighter33rdStrikeSnowlandNecroTwelveTak_key+0
Label_0100880A:
 BYTE   VOICE   100
 BYTE   PAN   c_v-32
 BYTE   VOL   28*StreetFighter33rdStrikeSnowlandNecroTwelveTak_mvl/mxv
 BYTE   N11  An4  v116
 BYTE   N11  An3
 BYTE   BENDR  12
 BYTE   W12
 BYTE   N11  An4  v059
 BYTE   N11  An3
 BYTE   W12
 BYTE   Gn4
 BYTE   N11  Gn3
 BYTE   W12
 BYTE   An4  v116
 BYTE   N11  An3
 BYTE   W60
//  #03 //001   ----------------------------------------
Label_01008827:
 BYTE   W12
 BYTE   N11  En4  v116
 BYTE   N11  En3
 BYTE   W36
 BYTE   N16  Dn4  v080
 BYTE   N16  Dn3
 BYTE   W24
 BYTE   En4
 BYTE   N16  En3
 BYTE   W24
 BYTE   PEND 
//  #03 //002   ----------------------------------------
Label_01008839:
 BYTE   N11  Gn4  v116
 BYTE   N11  Gn3
 BYTE   W12
 BYTE   Gn4  v059
 BYTE   N11  Gn3
 BYTE   W12
 BYTE   Fn4
 BYTE   N11  Fn3
 BYTE   W12
 BYTE   Gn4  v116
 BYTE   N11  Gn3
 BYTE   W24
 BYTE   Dn4
 BYTE   N11  Dn3
 BYTE   W36
 BYTE   PEND 
//  #03 //003   ----------------------------------------
Label_01008852:
 BYTE   N11  Dn4  v116
 BYTE   N11  Dn3
 BYTE   W96
 BYTE   PEND 
//  #03 //004   ----------------------------------------
Label_01008859:
 BYTE   N11  An4  v116
 BYTE   N11  An3
 BYTE   W12
 BYTE   An4  v059
 BYTE   N11  An3
 BYTE   W12
 BYTE   Gn4
 BYTE   N11  Gn3
 BYTE   W12
 BYTE   An4  v116
 BYTE   N11  An3
 BYTE   W60
 BYTE   PEND 
//  #03 //005   ----------------------------------------
Label_0100886E:
 BYTE   W36
 BYTE   N11  En4  v116
 BYTE   N11  En3
 BYTE   W12
 BYTE   N16  Dn4  v080
 BYTE   N16  Dn3
 BYTE   W24
 BYTE   En4
 BYTE   N16  En3
 BYTE   W24
 BYTE   PEND 
//  #03 //006   ----------------------------------------
Label_01008880:
 BYTE   N11  Gn4  v116
 BYTE   N11  Gn3
 BYTE   W12
 BYTE   Gn4  v059
 BYTE   N11  Gn3
 BYTE   W12
 BYTE   Fn4
 BYTE   N11  Fn3
 BYTE   W12
 BYTE   Gn4  v116
 BYTE   N11  Gn3
 BYTE   W24
 BYTE   Dn4
 BYTE   N11  Dn3
 BYTE   W24
 BYTE   Cn4
 BYTE   N11  Cn3
 BYTE   W12
 BYTE   PEND 
//  #03 //007   ----------------------------------------
 BYTE   PATT
  POIN2 Label_01008852
//  #03 //008   ----------------------------------------
Label_010088A2:
 BYTE   W48
 BYTE   N16  An4  v080
 BYTE   N16  An3
 BYTE   W48
 BYTE   PEND 
//  #03 //009   ----------------------------------------
Label_010088AA:
 BYTE   N16  Gn4  v080
 BYTE   N16  Gn3
 BYTE   W36
 BYTE   N07  Dn4
 BYTE   N07  Dn3
 BYTE   W60
 BYTE   PEND 
//  #03 //010   ----------------------------------------
Label_010088B6:
 BYTE   W48
 BYTE   N16  Gn4  v080
 BYTE   N16  Gn3
 BYTE   W48
 BYTE   PEND 
//  #03 //011   ----------------------------------------
Label_010088BE:
 BYTE   N16  Fn4  v080
 BYTE   N16  Fn3
 BYTE   W36
 BYTE   N07  Cn4
 BYTE   N07  Cn3
 BYTE   W60
 BYTE   PEND 
//  #03 //012   ----------------------------------------
 BYTE   PATT
  POIN2 Label_010088A2
//  #03 //013   ----------------------------------------
 BYTE   PATT
  POIN2 Label_010088AA
//  #03 //014   ----------------------------------------
 BYTE   PATT
  POIN2 Label_010088B6
//  #03 //015   ----------------------------------------
 BYTE   PATT
  POIN2 Label_010088BE
//  #03 //016   ----------------------------------------
 BYTE   PATT
  POIN2 Label_01008859
//  #03 //017   ----------------------------------------
 BYTE   PATT
  POIN2 Label_01008827
//  #03 //018   ----------------------------------------
 BYTE   PATT
  POIN2 Label_01008839
//  #03 //019   ----------------------------------------
 BYTE   PATT
  POIN2 Label_01008852
//  #03 //020   ----------------------------------------
 BYTE   PATT
  POIN2 Label_01008859
//  #03 //021   ----------------------------------------
 BYTE   PATT
  POIN2 Label_0100886E
//  #03 //022   ----------------------------------------
 BYTE   PATT
  POIN2 Label_01008880
//  #03 //023   ----------------------------------------
 BYTE   PATT
  POIN2 Label_01008852
//  #03 //024   ----------------------------------------
 BYTE   PATT
  POIN2 Label_010088A2
//  #03 //025   ----------------------------------------
 BYTE   PATT
  POIN2 Label_010088AA
//  #03 //026   ----------------------------------------
 BYTE   PATT
  POIN2 Label_010088B6
//  #03 //027   ----------------------------------------
 BYTE   PATT
  POIN2 Label_010088BE
//  #03 //028   ----------------------------------------
 BYTE   PATT
  POIN2 Label_010088A2
//  #03 //029   ----------------------------------------
 BYTE   PATT
  POIN2 Label_010088AA
//  #03 //030   ----------------------------------------
 BYTE   PATT
  POIN2 Label_010088B6
//  #03 //031   ----------------------------------------
 BYTE   PATT
  POIN2 Label_010088BE
//  #03 //032   ----------------------------------------
 BYTE   PATT
  POIN2 Label_01008859
//  #03 //033   ----------------------------------------
 BYTE   PATT
  POIN2 Label_01008827
//  #03 //034   ----------------------------------------
 BYTE   PATT
  POIN2 Label_01008839
//  #03 //035   ----------------------------------------
 BYTE   PATT
  POIN2 Label_01008852
//  #03 //036   ----------------------------------------
 BYTE   PATT
  POIN2 Label_01008859
//  #03 //037   ----------------------------------------
 BYTE   PATT
  POIN2 Label_0100886E
//  #03 //038   ----------------------------------------
 BYTE   PATT
  POIN2 Label_01008880
//  #03 //039   ----------------------------------------
 BYTE   PATT
  POIN2 Label_01008852
//  #03 //040   ----------------------------------------
 BYTE   PATT
  POIN2 Label_010088A2
//  #03 //041   ----------------------------------------
 BYTE   PATT
  POIN2 Label_010088AA
//  #03 //042   ----------------------------------------
 BYTE   PATT
  POIN2 Label_010088B6
//  #03 //043   ----------------------------------------
 BYTE   PATT
  POIN2 Label_010088BE
//  #03 //044   ----------------------------------------
 BYTE   PATT
  POIN2 Label_010088A2
//  #03 //045   ----------------------------------------
 BYTE   PATT
  POIN2 Label_010088AA
//  #03 //046   ----------------------------------------
 BYTE   PATT
  POIN2 Label_010088B6
//  #03 //047   ----------------------------------------
 BYTE   PATT
  POIN2 Label_010088BE
//  #03 //048   ----------------------------------------
 BYTE   PATT
  POIN2 Label_01008859
//  #03 //049   ----------------------------------------
 BYTE   PATT
  POIN2 Label_01008827
//  #03 //050   ----------------------------------------
 BYTE   PATT
  POIN2 Label_01008839
//  #03 //051   ----------------------------------------
 BYTE   PATT
  POIN2 Label_01008852
//  #03 //052   ----------------------------------------
 BYTE   PATT
  POIN2 Label_01008859
//  #03 //053   ----------------------------------------
 BYTE   PATT
  POIN2 Label_0100886E
//  #03 //054   ----------------------------------------
 BYTE   PATT
  POIN2 Label_01008880
//  #03 //055   ----------------------------------------
 BYTE   PATT
  POIN2 Label_01008852
//  #03 //056   ----------------------------------------
 BYTE   PATT
  POIN2 Label_010088A2
//  #03 //057   ----------------------------------------
 BYTE   PATT
  POIN2 Label_010088AA
//  #03 //058   ----------------------------------------
 BYTE   PATT
  POIN2 Label_010088B6
//  #03 //059   ----------------------------------------
 BYTE   PATT
  POIN2 Label_010088BE
//  #03 //060   ----------------------------------------
 BYTE   PATT
  POIN2 Label_010088A2
//  #03 //061   ----------------------------------------
 BYTE   PATT
  POIN2 Label_010088AA
//  #03 //062   ----------------------------------------
 BYTE   PATT
  POIN2 Label_010088B6
//  #03 //063   ----------------------------------------
 BYTE   PATT
  POIN2 Label_010088BE
//  #03 //064   ----------------------------------------
 BYTE   W96
//  #03 //065   ----------------------------------------
 BYTE   W96
//  #03 //066   ----------------------------------------
 BYTE   PATT
  POIN2 Label_01008859
//  #03 //067   ----------------------------------------
 BYTE   W96
//  #03 //068   ----------------------------------------
 BYTE   PATT
  POIN2 Label_010088A2
//  #03 //069   ----------------------------------------
Label_010089DB:
 BYTE   N16  Gn4  v080
 BYTE   N16  Gn3
 BYTE   W36
 BYTE   N07  En4
 BYTE   N07  En3
 BYTE   W60
 BYTE   PEND 
//  #03 //070   ----------------------------------------
Label_010089E7:
 BYTE   W24
 BYTE   N11  An4  v116
 BYTE   N11  An3
 BYTE   W12
 BYTE   An4  v059
 BYTE   N11  An3
 BYTE   W12
 BYTE   Gn4
 BYTE   N11  Gn3
 BYTE   W12
 BYTE   An4  v116
 BYTE   N11  An3
 BYTE   W36
 BYTE   PEND 
//  #03 //071   ----------------------------------------
 BYTE   W96
//  #03 //072   ----------------------------------------
 BYTE   PATT
  POIN2 Label_010088A2
//  #03 //073   ----------------------------------------
 BYTE   PATT
  POIN2 Label_010089DB
//  #03 //074   ----------------------------------------
Label_01008A08:
 BYTE   N11  Gn4  v116
 BYTE   N11  Gn3
 BYTE   W12
 BYTE   Gn4  v059
 BYTE   N11  Gn3
 BYTE   W12
 BYTE   Fn4
 BYTE   N11  Fn3
 BYTE   W12
 BYTE   Gn4  v116
 BYTE   N11  Gn3
 BYTE   W60
 BYTE   PEND 
//  #03 //075   ----------------------------------------
 BYTE   W96
//  #03 //076   ----------------------------------------
 BYTE   PATT
  POIN2 Label_010088B6
//  #03 //077   ----------------------------------------
Label_01008A23:
 BYTE   N16  Fn4  v080
 BYTE   N16  Fn3
 BYTE   W36
 BYTE   N07  Dn4
 BYTE   N07  Dn3
 BYTE   W60
 BYTE   PEND 
//  #03 //078   ----------------------------------------
Label_01008A2F:
 BYTE   W24
 BYTE   N11  Gn4  v116
 BYTE   N11  Gn3
 BYTE   W12
 BYTE   Gn4  v059
 BYTE   N11  Gn3
 BYTE   W12
 BYTE   Fn4
 BYTE   N11  Fn3
 BYTE   W12
 BYTE   Gn4  v116
 BYTE   N11  Gn3
 BYTE   W36
 BYTE   PEND 
//  #03 //079   ----------------------------------------
 BYTE   W96
//  #03 //080   ----------------------------------------
 BYTE   PATT
  POIN2 Label_010088B6
//  #03 //081   ----------------------------------------
 BYTE   PATT
  POIN2 Label_01008A23
//  #03 //082   ----------------------------------------
 BYTE   PATT
  POIN2 Label_01008859
//  #03 //083   ----------------------------------------
 BYTE   W96
//  #03 //084   ----------------------------------------
 BYTE   PATT
  POIN2 Label_010088A2
//  #03 //085   ----------------------------------------
 BYTE   PATT
  POIN2 Label_010089DB
//  #03 //086   ----------------------------------------
 BYTE   PATT
  POIN2 Label_010089E7
//  #03 //087   ----------------------------------------
 BYTE   W96
//  #03 //088   ----------------------------------------
 BYTE   PATT
  POIN2 Label_010088A2
//  #03 //089   ----------------------------------------
 BYTE   PATT
  POIN2 Label_010089DB
//  #03 //090   ----------------------------------------
 BYTE   PATT
  POIN2 Label_01008A08
//  #03 //091   ----------------------------------------
 BYTE   W96
//  #03 //092   ----------------------------------------
 BYTE   PATT
  POIN2 Label_010088B6
//  #03 //093   ----------------------------------------
 BYTE   PATT
  POIN2 Label_01008A23
//  #03 //094   ----------------------------------------
 BYTE   PATT
  POIN2 Label_01008A2F
//  #03 //095   ----------------------------------------
 BYTE   W96
//  #03 //096   ----------------------------------------
 BYTE   PATT
  POIN2 Label_010088B6
//  #03 //097   ----------------------------------------
 BYTE   PATT
  POIN2 Label_01008A23
//  #03 //098   ----------------------------------------
 BYTE   PATT
  POIN2 Label_01008859
//  #03 //099   ----------------------------------------
 BYTE   PATT
  POIN2 Label_01008827
//  #03 //100   ----------------------------------------
 BYTE   PATT
  POIN2 Label_01008839
//  #03 //101   ----------------------------------------
 BYTE   PATT
  POIN2 Label_01008852
//  #03 //102   ----------------------------------------
 BYTE   PATT
  POIN2 Label_01008859
//  #03 //103   ----------------------------------------
 BYTE   PATT
  POIN2 Label_0100886E
//  #03 //104   ----------------------------------------
 BYTE   PATT
  POIN2 Label_01008880
//  #03 //105   ----------------------------------------
 BYTE   PATT
  POIN2 Label_01008852
//  #03 //106   ----------------------------------------
 BYTE   PATT
  POIN2 Label_010088A2
//  #03 //107   ----------------------------------------
 BYTE   PATT
  POIN2 Label_010088AA
//  #03 //108   ----------------------------------------
 BYTE   PATT
  POIN2 Label_010088B6
//  #03 //109   ----------------------------------------
 BYTE   PATT
  POIN2 Label_010088BE
//  #03 //110   ----------------------------------------
 BYTE   PATT
  POIN2 Label_010088A2
//  #03 //111   ----------------------------------------
 BYTE   PATT
  POIN2 Label_010088AA
//  #03 //112   ----------------------------------------
 BYTE   PATT
  POIN2 Label_010088B6
//  #03 //113   ----------------------------------------
 BYTE   PATT
  POIN2 Label_010088BE
//  #03 //114   ----------------------------------------
 BYTE   PATT
  POIN2 Label_01008859
//  #03 //115   ----------------------------------------
 BYTE   PATT
  POIN2 Label_01008827
//  #03 //116   ----------------------------------------
 BYTE   PATT
  POIN2 Label_01008839
//  #03 //117   ----------------------------------------
 BYTE   PATT
  POIN2 Label_01008852
//  #03 //118   ----------------------------------------
 BYTE   PATT
  POIN2 Label_01008859
//  #03 //119   ----------------------------------------
 BYTE   PATT
  POIN2 Label_0100886E
//  #03 //120   ----------------------------------------
 BYTE   PATT
  POIN2 Label_01008880
//  #03 //121   ----------------------------------------
 BYTE   PATT
  POIN2 Label_01008852
//  #03 //122   ----------------------------------------
 BYTE   PATT
  POIN2 Label_010088A2
//  #03 //123   ----------------------------------------
 BYTE   PATT
  POIN2 Label_010088AA
//  #03 //124   ----------------------------------------
 BYTE   PATT
  POIN2 Label_010088B6
//  #03 //125   ----------------------------------------
 BYTE   PATT
  POIN2 Label_010088BE
//  #03 //126   ----------------------------------------
 BYTE   PATT
  POIN2 Label_010088A2
//  #03 //127   ----------------------------------------
 BYTE   PATT
  POIN2 Label_010088AA
//  #03 //128   ----------------------------------------
 BYTE   PATT
  POIN2 Label_010088B6
//  #03 //129   ----------------------------------------
 BYTE   PATT
  POIN2 Label_010088BE
//  #03 //130   ----------------------------------------
 BYTE   PATT
  POIN2 Label_01008859
//  #03 //131   ----------------------------------------
 BYTE   PATT
  POIN2 Label_01008827
//  #03 //132   ----------------------------------------
 BYTE   PATT
  POIN2 Label_01008839
//  #03 //133   ----------------------------------------
 BYTE   PATT
  POIN2 Label_01008852
//  #03 //134   ----------------------------------------
 BYTE   PATT
  POIN2 Label_01008859
//  #03 //135   ----------------------------------------
 BYTE   PATT
  POIN2 Label_0100886E
//  #03 //136   ----------------------------------------
 BYTE   PATT
  POIN2 Label_01008880
//  #03 //137   ----------------------------------------
 BYTE   PATT
  POIN2 Label_01008852
//  #03 //138   ----------------------------------------
 BYTE   PATT
  POIN2 Label_010088A2
//  #03 //139   ----------------------------------------
 BYTE   PATT
  POIN2 Label_010088AA
//  #03 //140   ----------------------------------------
 BYTE   PATT
  POIN2 Label_010088B6
//  #03 //141   ----------------------------------------
 BYTE   PATT
  POIN2 Label_010088BE
//  #03 //142   ----------------------------------------
 BYTE   PATT
  POIN2 Label_010088A2
//  #03 //143   ----------------------------------------
 BYTE   PATT
  POIN2 Label_010088AA
//  #03 //144   ----------------------------------------
 BYTE   PATT
  POIN2 Label_010088B6
//  #03 //145   ----------------------------------------
 BYTE   PATT
  POIN2 Label_010088BE
//  #03 //146   ----------------------------------------
 BYTE   PATT
  POIN2 Label_01008859
//  #03 //147   ----------------------------------------
 BYTE   PATT
  POIN2 Label_01008827
//  #03 //148   ----------------------------------------
 BYTE   PATT
  POIN2 Label_01008839
//  #03 //149   ----------------------------------------
 BYTE   PATT
  POIN2 Label_01008852
//  #03 //150   ----------------------------------------
 BYTE   PATT
  POIN2 Label_01008859
//  #03 //151   ----------------------------------------
 BYTE   PATT
  POIN2 Label_0100886E
//  #03 //152   ----------------------------------------
 BYTE   PATT
  POIN2 Label_01008880
//  #03 //153   ----------------------------------------
 BYTE   PATT
  POIN2 Label_01008852
//  #03 //154   ----------------------------------------
 BYTE   PATT
  POIN2 Label_010088A2
//  #03 //155   ----------------------------------------
 BYTE   PATT
  POIN2 Label_010088AA
//  #03 //156   ----------------------------------------
 BYTE   PATT
  POIN2 Label_010088B6
//  #03 //157   ----------------------------------------
 BYTE   PATT
  POIN2 Label_010088BE
//  #03 //158   ----------------------------------------
 BYTE   PATT
  POIN2 Label_010088A2
//  #03 //159   ----------------------------------------
 BYTE   PATT
  POIN2 Label_010088AA
//  #03 //160   ----------------------------------------
 BYTE   PATT
  POIN2 Label_010088B6
//  #03 //161   ----------------------------------------
 BYTE   PATT
  POIN2 Label_010088BE
//  #03 //162   ----------------------------------------
 BYTE   GoTo
  POIN2 Label_0100880A
 BYTE   FINE

//**************** Track 4 (Midi-Chn.3) ****************//

StreetFighter33rdStrikeSnowlandNecroTwelveTak_004:
//  #04 //000   ----------------------------------------
 BYTE   KEYSH   StreetFighter33rdStrikeSnowlandNecroTwelveTak_key+0
Label_0100409E:
 BYTE   VOICE   39
 BYTE   BENDR  12
 BYTE   VOL   85*StreetFighter33rdStrikeSnowlandNecroTwelveTak_mvl/mxv
 BYTE   W96
//  #04 //001   ----------------------------------------
 BYTE   W96
//  #04 //002   ----------------------------------------
 BYTE   W96
//  #04 //003   ----------------------------------------
 BYTE   W96
//  #04 //004   ----------------------------------------
 BYTE   W96
//  #04 //005   ----------------------------------------
 BYTE   W96
//  #04 //006   ----------------------------------------
 BYTE   W96
//  #04 //007   ----------------------------------------
 BYTE   W96
//  #04 //008   ----------------------------------------
Label_010040AC:
 BYTE   N11  An0  v059
 BYTE   W12
 BYTE   Cn1
 BYTE   W12
 BYTE   En1
 BYTE   W12
 BYTE   N23  An0
 BYTE   W24
 BYTE   N32  An1  v059  gtp3
 BYTE   W36
 BYTE   PEND 
//  #04 //009   ----------------------------------------
Label_010040BD:
 BYTE   N23  Gn1  v059
 BYTE   W24
 BYTE   N11
 BYTE   W12
 BYTE   N56  Dn1  v059  gtp3
 BYTE   W60
 BYTE   PEND 
//  #04 //010   ----------------------------------------
Label_010040C9:
 BYTE   N11  Gs0  v059
 BYTE   W12
 BYTE   Cn1
 BYTE   W12
 BYTE   En1
 BYTE   W12
 BYTE   N23  Gs0
 BYTE   W24
 BYTE   N32  Gs1  v059  gtp3
 BYTE   W36
 BYTE   PEND 
//  #04 //011   ----------------------------------------
 BYTE   PATT
  POIN2 Label_010040BD
//  #04 //012   ----------------------------------------
 BYTE   PATT
  POIN2 Label_010040AC
//  #04 //013   ----------------------------------------
 BYTE   PATT
  POIN2 Label_010040BD
//  #04 //014   ----------------------------------------
 BYTE   PATT
  POIN2 Label_010040C9
//  #04 //015   ----------------------------------------
 BYTE   PATT
  POIN2 Label_010040BD
//  #04 //016   ----------------------------------------
 BYTE   PATT
  POIN2 Label_010040AC
//  #04 //017   ----------------------------------------
 BYTE   PATT
  POIN2 Label_010040BD
//  #04 //018   ----------------------------------------
 BYTE   PATT
  POIN2 Label_010040C9
//  #04 //019   ----------------------------------------
 BYTE   PATT
  POIN2 Label_010040BD
//  #04 //020   ----------------------------------------
 BYTE   PATT
  POIN2 Label_010040AC
//  #04 //021   ----------------------------------------
 BYTE   PATT
  POIN2 Label_010040BD
//  #04 //022   ----------------------------------------
 BYTE   PATT
  POIN2 Label_010040C9
//  #04 //023   ----------------------------------------
 BYTE   PATT
  POIN2 Label_010040BD
//  #04 //024   ----------------------------------------
 BYTE   W96
//  #04 //025   ----------------------------------------
 BYTE   W96
//  #04 //026   ----------------------------------------
 BYTE   W96
//  #04 //027   ----------------------------------------
 BYTE   W96
//  #04 //028   ----------------------------------------
 BYTE   W96
//  #04 //029   ----------------------------------------
 BYTE   W96
//  #04 //030   ----------------------------------------
 BYTE   W96
//  #04 //031   ----------------------------------------
 BYTE   W96
//  #04 //032   ----------------------------------------
 BYTE   PATT
  POIN2 Label_010040AC
//  #04 //033   ----------------------------------------
 BYTE   PATT
  POIN2 Label_010040BD
//  #04 //034   ----------------------------------------
 BYTE   PATT
  POIN2 Label_010040C9
//  #04 //035   ----------------------------------------
 BYTE   PATT
  POIN2 Label_010040BD
//  #04 //036   ----------------------------------------
 BYTE   PATT
  POIN2 Label_010040AC
//  #04 //037   ----------------------------------------
 BYTE   PATT
  POIN2 Label_010040BD
//  #04 //038   ----------------------------------------
 BYTE   PATT
  POIN2 Label_010040C9
//  #04 //039   ----------------------------------------
 BYTE   PATT
  POIN2 Label_010040BD
//  #04 //040   ----------------------------------------
 BYTE   PATT
  POIN2 Label_010040AC
//  #04 //041   ----------------------------------------
 BYTE   PATT
  POIN2 Label_010040BD
//  #04 //042   ----------------------------------------
 BYTE   PATT
  POIN2 Label_010040C9
//  #04 //043   ----------------------------------------
 BYTE   PATT
  POIN2 Label_010040BD
//  #04 //044   ----------------------------------------
 BYTE   PATT
  POIN2 Label_010040AC
//  #04 //045   ----------------------------------------
 BYTE   PATT
  POIN2 Label_010040BD
//  #04 //046   ----------------------------------------
 BYTE   PATT
  POIN2 Label_010040C9
//  #04 //047   ----------------------------------------
 BYTE   PATT
  POIN2 Label_010040BD
//  #04 //048   ----------------------------------------
 BYTE   W96
//  #04 //049   ----------------------------------------
 BYTE   W96
//  #04 //050   ----------------------------------------
 BYTE   W96
//  #04 //051   ----------------------------------------
 BYTE   W96
//  #04 //052   ----------------------------------------
 BYTE   W96
//  #04 //053   ----------------------------------------
 BYTE   W96
//  #04 //054   ----------------------------------------
 BYTE   W96
//  #04 //055   ----------------------------------------
 BYTE   W96
//  #04 //056   ----------------------------------------
 BYTE   PATT
  POIN2 Label_010040AC
//  #04 //057   ----------------------------------------
 BYTE   PATT
  POIN2 Label_010040BD
//  #04 //058   ----------------------------------------
 BYTE   PATT
  POIN2 Label_010040C9
//  #04 //059   ----------------------------------------
 BYTE   PATT
  POIN2 Label_010040BD
//  #04 //060   ----------------------------------------
 BYTE   PATT
  POIN2 Label_010040AC
//  #04 //061   ----------------------------------------
 BYTE   PATT
  POIN2 Label_010040BD
//  #04 //062   ----------------------------------------
 BYTE   PATT
  POIN2 Label_010040C9
//  #04 //063   ----------------------------------------
 BYTE   PATT
  POIN2 Label_010040BD
//  #04 //064   ----------------------------------------
 BYTE   W96
//  #04 //065   ----------------------------------------
 BYTE   W96
//  #04 //066   ----------------------------------------
Label_010041A5:
 BYTE   N11  An0  v059
 BYTE   W12
 BYTE   Cn1
 BYTE   W12
 BYTE   En1
 BYTE   W12
 BYTE   N56  An0  v059  gtp3
 BYTE   W60
 BYTE   PEND 
//  #04 //067   ----------------------------------------
 BYTE   W96
//  #04 //068   ----------------------------------------
 BYTE   PATT
  POIN2 Label_010041A5
//  #04 //069   ----------------------------------------
Label_010041B9:
 BYTE   W24
 BYTE   N23  Gn1  v059
 BYTE   W24
 BYTE   N44  An1  v059  gtp3
 BYTE   W48
 BYTE   PEND 
//  #04 //070   ----------------------------------------
 BYTE   PATT
  POIN2 Label_010041A5
//  #04 //071   ----------------------------------------
Label_010041C9:
 BYTE   W60
 BYTE   N11  An1  v059
 BYTE   W12
 BYTE   Gn1
 BYTE   W12
 BYTE   En1
 BYTE   W12
 BYTE   PEND 
//  #04 //072   ----------------------------------------
 BYTE   PATT
  POIN2 Label_010041A5
//  #04 //073   ----------------------------------------
 BYTE   W96
//  #04 //074   ----------------------------------------
Label_010041D9:
 BYTE   N11  Gn0  v059
 BYTE   W12
 BYTE   As0
 BYTE   W12
 BYTE   Dn1
 BYTE   W12
 BYTE   N56  Gn0  v059  gtp3
 BYTE   W60
 BYTE   PEND 
//  #04 //075   ----------------------------------------
 BYTE   W96
//  #04 //076   ----------------------------------------
 BYTE   PATT
  POIN2 Label_010041D9
//  #04 //077   ----------------------------------------
Label_010041ED:
 BYTE   W24
 BYTE   N23  Fn1  v059
 BYTE   W24
 BYTE   N44  Gn1  v059  gtp3
 BYTE   W48
 BYTE   PEND 
//  #04 //078   ----------------------------------------
 BYTE   PATT
  POIN2 Label_010041D9
//  #04 //079   ----------------------------------------
Label_010041FD:
 BYTE   W60
 BYTE   N32  Gn1  v059  gtp3
 BYTE   W36
 BYTE   PEND 
//  #04 //080   ----------------------------------------
 BYTE   PATT
  POIN2 Label_010041D9
//  #04 //081   ----------------------------------------
 BYTE   W96
//  #04 //082   ----------------------------------------
 BYTE   PATT
  POIN2 Label_010041A5
//  #04 //083   ----------------------------------------
 BYTE   W96
//  #04 //084   ----------------------------------------
 BYTE   PATT
  POIN2 Label_010041A5
//  #04 //085   ----------------------------------------
 BYTE   PATT
  POIN2 Label_010041B9
//  #04 //086   ----------------------------------------
 BYTE   PATT
  POIN2 Label_010041A5
//  #04 //087   ----------------------------------------
 BYTE   PATT
  POIN2 Label_010041C9
//  #04 //088   ----------------------------------------
 BYTE   PATT
  POIN2 Label_010041A5
//  #04 //089   ----------------------------------------
 BYTE   W96
//  #04 //090   ----------------------------------------
 BYTE   PATT
  POIN2 Label_010041D9
//  #04 //091   ----------------------------------------
 BYTE   W96
//  #04 //092   ----------------------------------------
 BYTE   PATT
  POIN2 Label_010041D9
//  #04 //093   ----------------------------------------
 BYTE   PATT
  POIN2 Label_010041ED
//  #04 //094   ----------------------------------------
 BYTE   PATT
  POIN2 Label_010041D9
//  #04 //095   ----------------------------------------
 BYTE   PATT
  POIN2 Label_010041FD
//  #04 //096   ----------------------------------------
 BYTE   PATT
  POIN2 Label_010041D9
//  #04 //097   ----------------------------------------
 BYTE   W96
//  #04 //098   ----------------------------------------
 BYTE   W96
//  #04 //099   ----------------------------------------
 BYTE   W96
//  #04 //100   ----------------------------------------
 BYTE   W96
//  #04 //101   ----------------------------------------
 BYTE   W96
//  #04 //102   ----------------------------------------
 BYTE   W96
//  #04 //103   ----------------------------------------
 BYTE   W96
//  #04 //104   ----------------------------------------
 BYTE   W96
//  #04 //105   ----------------------------------------
 BYTE   W96
//  #04 //106   ----------------------------------------
 BYTE   PATT
  POIN2 Label_010040AC
//  #04 //107   ----------------------------------------
 BYTE   PATT
  POIN2 Label_010040BD
//  #04 //108   ----------------------------------------
 BYTE   PATT
  POIN2 Label_010040C9
//  #04 //109   ----------------------------------------
 BYTE   PATT
  POIN2 Label_010040BD
//  #04 //110   ----------------------------------------
 BYTE   PATT
  POIN2 Label_010040AC
//  #04 //111   ----------------------------------------
 BYTE   PATT
  POIN2 Label_010040BD
//  #04 //112   ----------------------------------------
 BYTE   PATT
  POIN2 Label_010040C9
//  #04 //113   ----------------------------------------
 BYTE   PATT
  POIN2 Label_010040BD
//  #04 //114   ----------------------------------------
 BYTE   PATT
  POIN2 Label_010040AC
//  #04 //115   ----------------------------------------
 BYTE   PATT
  POIN2 Label_010040BD
//  #04 //116   ----------------------------------------
 BYTE   PATT
  POIN2 Label_010040C9
//  #04 //117   ----------------------------------------
 BYTE   PATT
  POIN2 Label_010040BD
//  #04 //118   ----------------------------------------
 BYTE   PATT
  POIN2 Label_010040AC
//  #04 //119   ----------------------------------------
 BYTE   PATT
  POIN2 Label_010040BD
//  #04 //120   ----------------------------------------
 BYTE   PATT
  POIN2 Label_010040C9
//  #04 //121   ----------------------------------------
 BYTE   PATT
  POIN2 Label_010040BD
//  #04 //122   ----------------------------------------
 BYTE   W96
//  #04 //123   ----------------------------------------
 BYTE   W96
//  #04 //124   ----------------------------------------
 BYTE   W96
//  #04 //125   ----------------------------------------
 BYTE   W96
//  #04 //126   ----------------------------------------
 BYTE   W96
//  #04 //127   ----------------------------------------
 BYTE   W96
//  #04 //128   ----------------------------------------
 BYTE   W96
//  #04 //129   ----------------------------------------
 BYTE   W96
//  #04 //130   ----------------------------------------
 BYTE   PATT
  POIN2 Label_010040AC
//  #04 //131   ----------------------------------------
 BYTE   PATT
  POIN2 Label_010040BD
//  #04 //132   ----------------------------------------
 BYTE   PATT
  POIN2 Label_010040C9
//  #04 //133   ----------------------------------------
 BYTE   PATT
  POIN2 Label_010040BD
//  #04 //134   ----------------------------------------
 BYTE   PATT
  POIN2 Label_010040AC
//  #04 //135   ----------------------------------------
 BYTE   PATT
  POIN2 Label_010040BD
//  #04 //136   ----------------------------------------
 BYTE   PATT
  POIN2 Label_010040C9
//  #04 //137   ----------------------------------------
 BYTE   PATT
  POIN2 Label_010040BD
//  #04 //138   ----------------------------------------
 BYTE   PATT
  POIN2 Label_010040AC
//  #04 //139   ----------------------------------------
 BYTE   PATT
  POIN2 Label_010040BD
//  #04 //140   ----------------------------------------
 BYTE   PATT
  POIN2 Label_010040C9
//  #04 //141   ----------------------------------------
 BYTE   PATT
  POIN2 Label_010040BD
//  #04 //142   ----------------------------------------
 BYTE   PATT
  POIN2 Label_010040AC
//  #04 //143   ----------------------------------------
 BYTE   PATT
  POIN2 Label_010040BD
//  #04 //144   ----------------------------------------
 BYTE   PATT
  POIN2 Label_010040C9
//  #04 //145   ----------------------------------------
 BYTE   PATT
  POIN2 Label_010040BD
//  #04 //146   ----------------------------------------
 BYTE   W96
//  #04 //147   ----------------------------------------
 BYTE   W96
//  #04 //148   ----------------------------------------
 BYTE   W96
//  #04 //149   ----------------------------------------
 BYTE   W96
//  #04 //150   ----------------------------------------
 BYTE   W96
//  #04 //151   ----------------------------------------
 BYTE   W96
//  #04 //152   ----------------------------------------
 BYTE   W96
//  #04 //153   ----------------------------------------
 BYTE   W96
//  #04 //154   ----------------------------------------
 BYTE   PATT
  POIN2 Label_010040AC
//  #04 //155   ----------------------------------------
 BYTE   PATT
  POIN2 Label_010040BD
//  #04 //156   ----------------------------------------
 BYTE   PATT
  POIN2 Label_010040C9
//  #04 //157   ----------------------------------------
 BYTE   PATT
  POIN2 Label_010040BD
//  #04 //158   ----------------------------------------
 BYTE   PATT
  POIN2 Label_010040AC
//  #04 //159   ----------------------------------------
 BYTE   PATT
  POIN2 Label_010040BD
//  #04 //160   ----------------------------------------
 BYTE   PATT
  POIN2 Label_010040C9
//  #04 //161   ----------------------------------------
 BYTE   PATT
  POIN2 Label_010040BD
//  #04 //162   ----------------------------------------
 BYTE   GoTo
  POIN2 Label_0100409E
 BYTE   FINE

//**************** Track 5 (Midi-Chn.4) ****************//

StreetFighter33rdStrikeSnowlandNecroTwelveTak_005:
//  #05 //000   ----------------------------------------
 BYTE   KEYSH   StreetFighter33rdStrikeSnowlandNecroTwelveTak_key+0
Label_01008CB2:
 BYTE   VOICE   124
 BYTE   VOL   72*StreetFighter33rdStrikeSnowlandNecroTwelveTak_mvl/mxv
 BYTE   N23  Cn1  v059
 BYTE   N11  Ds2
 BYTE   BENDR  12
 BYTE   W12
 BYTE   N11
 BYTE   W12
 BYTE   Ds2
 BYTE   N11  Dn1
 BYTE   W12
 BYTE   N05  Ds2
 BYTE   W06
 BYTE   Dn1  v041
 BYTE   W06
 BYTE   Ds2  v059
 BYTE   W06
 BYTE   Dn1  v041
 BYTE   W06
 BYTE   N11  Cn1  v059
 BYTE   N11  Ds2
 BYTE   W12
 BYTE   Ds2
 BYTE   N11  Dn1
 BYTE   W12
 BYTE   N05  Ds2
 BYTE   W06
 BYTE   Dn1  v041
 BYTE   W06
//  #05 //001   ----------------------------------------
Label_01008CE0:
 BYTE   N23  Cn1  v059
 BYTE   N11  Ds2
 BYTE   W12
 BYTE   Ds2
 BYTE   W12
 BYTE   Ds2
 BYTE   N11  Dn1
 BYTE   W12
 BYTE   N05  Ds2
 BYTE   W06
 BYTE   Dn1  v041
 BYTE   W06
 BYTE   Ds2  v059
 BYTE   W06
 BYTE   Dn1  v041
 BYTE   W06
 BYTE   N11  Cn1  v059
 BYTE   N11  Ds2
 BYTE   W12
 BYTE   Ds2
 BYTE   N11  Dn1
 BYTE   W12
 BYTE   N05  Ds2
 BYTE   W06
 BYTE   Dn1  v041
 BYTE   W06
 BYTE   PEND 
//  #05 //002   ----------------------------------------
 BYTE   PATT
  POIN2 Label_01008CE0
//  #05 //003   ----------------------------------------
Label_01008D0E:
 BYTE   N23  Cn1  v059
 BYTE   N11  Ds2
 BYTE   W12
 BYTE   Ds2
 BYTE   W12
 BYTE   Ds2
 BYTE   N11  Dn1
 BYTE   W12
 BYTE   N05  Ds2
 BYTE   W06
 BYTE   Dn1  v041
 BYTE   W06
 BYTE   Ds2  v059
 BYTE   W06
 BYTE   Dn1  v041
 BYTE   W06
 BYTE   N02  Ds2  v059
 BYTE   N02  Dn1  v041
 BYTE   W03
 BYTE   Dn1
 BYTE   W03
 BYTE   Dn1
 BYTE   W03
 BYTE   Dn1
 BYTE   W03
 BYTE   N12  Gn2  v116
 BYTE   N11  Dn1
 BYTE   W12
 BYTE   N18  Gn2
 BYTE   N11  Dn1
 BYTE   W12
 BYTE   PEND 
//  #05 //004   ----------------------------------------
 BYTE   PATT
  POIN2 Label_01008CE0
//  #05 //005   ----------------------------------------
 BYTE   PATT
  POIN2 Label_01008CE0
//  #05 //006   ----------------------------------------
 BYTE   PATT
  POIN2 Label_01008CE0
//  #05 //007   ----------------------------------------
Label_01008D4E:
 BYTE   N23  Cn1  v059
 BYTE   N11  Ds2
 BYTE   W12
 BYTE   Ds2
 BYTE   W12
 BYTE   Ds2
 BYTE   N11  Dn1
 BYTE   W12
 BYTE   Cn1  v116
 BYTE   W12
 BYTE   N05  Ds2  v059
 BYTE   W06
 BYTE   Dn1  v041
 BYTE   W06
 BYTE   Ds2  v059
 BYTE   W06
 BYTE   Dn1  v041
 BYTE   W06
 BYTE   Ds2  v059
 BYTE   W06
 BYTE   Dn1  v041
 BYTE   W06
 BYTE   Ds2  v059
 BYTE   W06
 BYTE   Dn1  v041
 BYTE   W06
 BYTE   PEND 
//  #05 //008   ----------------------------------------
Label_01008D77:
 BYTE   N23  Cn1  v059
 BYTE   N30  Gn2
 BYTE   W12
 BYTE   N11  Ds2
 BYTE   W12
 BYTE   Ds2
 BYTE   N11  Dn1
 BYTE   W12
 BYTE   N05  Ds2
 BYTE   W06
 BYTE   Dn1  v041
 BYTE   W06
 BYTE   Ds2  v059
 BYTE   W06
 BYTE   Dn1  v041
 BYTE   W06
 BYTE   N11  Cn1  v059
 BYTE   N11  Ds2
 BYTE   W12
 BYTE   Ds2
 BYTE   N11  Dn1
 BYTE   W12
 BYTE   N05  Ds2
 BYTE   W06
 BYTE   Dn1  v041
 BYTE   W06
 BYTE   PEND 
//  #05 //009   ----------------------------------------
 BYTE   PATT
  POIN2 Label_01008CE0
//  #05 //010   ----------------------------------------
 BYTE   PATT
  POIN2 Label_01008CE0
//  #05 //011   ----------------------------------------
 BYTE   PATT
  POIN2 Label_01008CE0
//  #05 //012   ----------------------------------------
 BYTE   PATT
  POIN2 Label_01008CE0
//  #05 //013   ----------------------------------------
 BYTE   PATT
  POIN2 Label_01008CE0
//  #05 //014   ----------------------------------------
 BYTE   PATT
  POIN2 Label_01008CE0
//  #05 //015   ----------------------------------------
 BYTE   PATT
  POIN2 Label_01008D4E
//  #05 //016   ----------------------------------------
 BYTE   PATT
  POIN2 Label_01008D77
//  #05 //017   ----------------------------------------
 BYTE   PATT
  POIN2 Label_01008CE0
//  #05 //018   ----------------------------------------
 BYTE   PATT
  POIN2 Label_01008CE0
//  #05 //019   ----------------------------------------
 BYTE   PATT
  POIN2 Label_01008CE0
//  #05 //020   ----------------------------------------
 BYTE   PATT
  POIN2 Label_01008CE0
//  #05 //021   ----------------------------------------
 BYTE   PATT
  POIN2 Label_01008CE0
//  #05 //022   ----------------------------------------
 BYTE   PATT
  POIN2 Label_01008CE0
//  #05 //023   ----------------------------------------
 BYTE   PATT
  POIN2 Label_01008D4E
//  #05 //024   ----------------------------------------
 BYTE   PATT
  POIN2 Label_01008CE0
//  #05 //025   ----------------------------------------
 BYTE   PATT
  POIN2 Label_01008CE0
//  #05 //026   ----------------------------------------
 BYTE   PATT
  POIN2 Label_01008CE0
//  #05 //027   ----------------------------------------
 BYTE   PATT
  POIN2 Label_01008D0E
//  #05 //028   ----------------------------------------
 BYTE   PATT
  POIN2 Label_01008CE0
//  #05 //029   ----------------------------------------
 BYTE   PATT
  POIN2 Label_01008CE0
//  #05 //030   ----------------------------------------
 BYTE   PATT
  POIN2 Label_01008CE0
//  #05 //031   ----------------------------------------
 BYTE   PATT
  POIN2 Label_01008D4E
//  #05 //032   ----------------------------------------
 BYTE   PATT
  POIN2 Label_01008D77
//  #05 //033   ----------------------------------------
 BYTE   PATT
  POIN2 Label_01008CE0
//  #05 //034   ----------------------------------------
 BYTE   PATT
  POIN2 Label_01008CE0
//  #05 //035   ----------------------------------------
 BYTE   PATT
  POIN2 Label_01008CE0
//  #05 //036   ----------------------------------------
 BYTE   PATT
  POIN2 Label_01008CE0
//  #05 //037   ----------------------------------------
 BYTE   PATT
  POIN2 Label_01008CE0
//  #05 //038   ----------------------------------------
 BYTE   PATT
  POIN2 Label_01008CE0
//  #05 //039   ----------------------------------------
 BYTE   PATT
  POIN2 Label_01008D4E
//  #05 //040   ----------------------------------------
 BYTE   PATT
  POIN2 Label_01008D77
//  #05 //041   ----------------------------------------
 BYTE   PATT
  POIN2 Label_01008CE0
//  #05 //042   ----------------------------------------
 BYTE   PATT
  POIN2 Label_01008CE0
//  #05 //043   ----------------------------------------
 BYTE   PATT
  POIN2 Label_01008CE0
//  #05 //044   ----------------------------------------
 BYTE   PATT
  POIN2 Label_01008CE0
//  #05 //045   ----------------------------------------
 BYTE   PATT
  POIN2 Label_01008CE0
//  #05 //046   ----------------------------------------
 BYTE   PATT
  POIN2 Label_01008CE0
//  #05 //047   ----------------------------------------
 BYTE   PATT
  POIN2 Label_01008D4E
//  #05 //048   ----------------------------------------
 BYTE   PATT
  POIN2 Label_01008CE0
//  #05 //049   ----------------------------------------
 BYTE   PATT
  POIN2 Label_01008CE0
//  #05 //050   ----------------------------------------
 BYTE   PATT
  POIN2 Label_01008CE0
//  #05 //051   ----------------------------------------
 BYTE   PATT
  POIN2 Label_01008D0E
//  #05 //052   ----------------------------------------
 BYTE   PATT
  POIN2 Label_01008CE0
//  #05 //053   ----------------------------------------
 BYTE   PATT
  POIN2 Label_01008CE0
//  #05 //054   ----------------------------------------
 BYTE   PATT
  POIN2 Label_01008CE0
//  #05 //055   ----------------------------------------
 BYTE   PATT
  POIN2 Label_01008D4E
//  #05 //056   ----------------------------------------
 BYTE   PATT
  POIN2 Label_01008D77
//  #05 //057   ----------------------------------------
 BYTE   PATT
  POIN2 Label_01008CE0
//  #05 //058   ----------------------------------------
 BYTE   PATT
  POIN2 Label_01008CE0
//  #05 //059   ----------------------------------------
 BYTE   PATT
  POIN2 Label_01008CE0
//  #05 //060   ----------------------------------------
 BYTE   PATT
  POIN2 Label_01008CE0
//  #05 //061   ----------------------------------------
 BYTE   PATT
  POIN2 Label_01008CE0
//  #05 //062   ----------------------------------------
 BYTE   PATT
  POIN2 Label_01008CE0
//  #05 //063   ----------------------------------------
 BYTE   PATT
  POIN2 Label_01008D4E
//  #05 //064   ----------------------------------------
 BYTE   N11  Ds2  v116
 BYTE   N11  Dn1
 BYTE   W12
 BYTE   N05  Ds2
 BYTE   W06
 BYTE   Dn1  v032
 BYTE   W06
 BYTE   N11  Cn1  v059
 BYTE   N11  Ds2
 BYTE   W12
 BYTE   Ds2  v116
 BYTE   N11  Dn1
 BYTE   W12
 BYTE   N05  Ds2
 BYTE   W06
 BYTE   Dn1  v032
 BYTE   W06
 BYTE   N11  Cn1  v059
 BYTE   N11  Ds2
 BYTE   W12
 BYTE   N23  Cn1
 BYTE   W24
//  #05 //065   ----------------------------------------
 BYTE   N11  Dn1  v116
 BYTE   W12
 BYTE   Dn1
 BYTE   W12
 BYTE   Cn1  v059
 BYTE   N05  Ds2
 BYTE   W06
 BYTE   Dn1
 BYTE   W06
 BYTE   N11  Cn1
 BYTE   N11  Ds2
 BYTE   W12
 BYTE   N05
 BYTE   W06
 BYTE   Dn1  v032
 BYTE   W06
 BYTE   N11  Cn1  v059
 BYTE   N11  Ds2
 BYTE   W12
 BYTE   N23  Dn1  v116
 BYTE   W24
//  #05 //066   ----------------------------------------
Label_01008EFB:
 BYTE   N23  Cn1  v059
 BYTE   N11  Ds2
 BYTE   W12
 BYTE   Ds2
 BYTE   W12
 BYTE   Ds2
 BYTE   N11  Dn1
 BYTE   W12
 BYTE   Cn1
 BYTE   N11  Ds2
 BYTE   W12
 BYTE   Ds2
 BYTE   W12
 BYTE   Ds2
 BYTE   N11  Dn1
 BYTE   W12
 BYTE   N23  Cn1
 BYTE   N11  Ds2
 BYTE   W12
 BYTE   Ds2
 BYTE   W12
 BYTE   PEND 
//  #05 //067   ----------------------------------------
Label_01008F19:
 BYTE   N11  Ds2  v059
 BYTE   N11  Dn1
 BYTE   W12
 BYTE   Cn1
 BYTE   N11  Ds2
 BYTE   W12
 BYTE   Ds2
 BYTE   W12
 BYTE   Ds2
 BYTE   N11  Dn1
 BYTE   W12
 BYTE   N05  Ds2
 BYTE   W06
 BYTE   Dn1  v025
 BYTE   W06
 BYTE   N11  Cn1  v059
 BYTE   N11  Ds2
 BYTE   W12
 BYTE   Ds2
 BYTE   N11  Dn1
 BYTE   W12
 BYTE   N05  Ds2
 BYTE   W06
 BYTE   Dn1  v025
 BYTE   W06
 BYTE   PEND 
//  #05 //068   ----------------------------------------
 BYTE   PATT
  POIN2 Label_01008EFB
//  #05 //069   ----------------------------------------
Label_01008F45:
 BYTE   N11  Ds2  v059
 BYTE   N11  Dn1
 BYTE   W12
 BYTE   Cn1
 BYTE   N11  Ds2
 BYTE   W12
 BYTE   Ds2
 BYTE   W12
 BYTE   Ds2
 BYTE   N11  Dn1
 BYTE   W12
 BYTE   N05  Ds2
 BYTE   W06
 BYTE   Dn1  v025
 BYTE   W06
 BYTE   N11  Cn1  v059
 BYTE   N11  Ds2
 BYTE   W12
 BYTE   N23  Dn1
 BYTE   W24
 BYTE   PEND 
//  #05 //070   ----------------------------------------
 BYTE   PATT
  POIN2 Label_01008EFB
//  #05 //071   ----------------------------------------
 BYTE   PATT
  POIN2 Label_01008F19
//  #05 //072   ----------------------------------------
 BYTE   PATT
  POIN2 Label_01008EFB
//  #05 //073   ----------------------------------------
Label_01008F74:
 BYTE   N11  Cn1  v059
 BYTE   W12
 BYTE   Cn1
 BYTE   W12
 BYTE   Ds2
 BYTE   W12
 BYTE   Ds2
 BYTE   N11  Dn1
 BYTE   W12
 BYTE   N05  Ds2
 BYTE   W06
 BYTE   Dn1  v025
 BYTE   W06
 BYTE   Ds2  v059
 BYTE   W06
 BYTE   Dn1  v025
 BYTE   W06
 BYTE   Ds2  v059
 BYTE   W06
 BYTE   Dn1  v025
 BYTE   W06
 BYTE   Ds2  v059
 BYTE   W06
 BYTE   Dn1  v025
 BYTE   W06
 BYTE   PEND 
//  #05 //074   ----------------------------------------
 BYTE   PATT
  POIN2 Label_01008EFB
//  #05 //075   ----------------------------------------
 BYTE   PATT
  POIN2 Label_01008F19
//  #05 //076   ----------------------------------------
 BYTE   PATT
  POIN2 Label_01008EFB
//  #05 //077   ----------------------------------------
 BYTE   PATT
  POIN2 Label_01008F45
//  #05 //078   ----------------------------------------
 BYTE   PATT
  POIN2 Label_01008EFB
//  #05 //079   ----------------------------------------
 BYTE   PATT
  POIN2 Label_01008F19
//  #05 //080   ----------------------------------------
 BYTE   PATT
  POIN2 Label_01008EFB
//  #05 //081   ----------------------------------------
 BYTE   PATT
  POIN2 Label_01008F74
//  #05 //082   ----------------------------------------
 BYTE   PATT
  POIN2 Label_01008EFB
//  #05 //083   ----------------------------------------
 BYTE   PATT
  POIN2 Label_01008F19
//  #05 //084   ----------------------------------------
 BYTE   PATT
  POIN2 Label_01008EFB
//  #05 //085   ----------------------------------------
 BYTE   PATT
  POIN2 Label_01008F45
//  #05 //086   ----------------------------------------
 BYTE   PATT
  POIN2 Label_01008EFB
//  #05 //087   ----------------------------------------
 BYTE   PATT
  POIN2 Label_01008F19
//  #05 //088   ----------------------------------------
 BYTE   PATT
  POIN2 Label_01008EFB
//  #05 //089   ----------------------------------------
 BYTE   PATT
  POIN2 Label_01008F74
//  #05 //090   ----------------------------------------
 BYTE   PATT
  POIN2 Label_01008EFB
//  #05 //091   ----------------------------------------
 BYTE   PATT
  POIN2 Label_01008F19
//  #05 //092   ----------------------------------------
 BYTE   PATT
  POIN2 Label_01008EFB
//  #05 //093   ----------------------------------------
 BYTE   PATT
  POIN2 Label_01008F45
//  #05 //094   ----------------------------------------
 BYTE   PATT
  POIN2 Label_01008EFB
//  #05 //095   ----------------------------------------
 BYTE   PATT
  POIN2 Label_01008F19
//  #05 //096   ----------------------------------------
 BYTE   PATT
  POIN2 Label_01008EFB
//  #05 //097   ----------------------------------------
 BYTE   PATT
  POIN2 Label_01008F74
//  #05 //098   ----------------------------------------
 BYTE   PATT
  POIN2 Label_01008CE0
//  #05 //099   ----------------------------------------
 BYTE   PATT
  POIN2 Label_01008CE0
//  #05 //100   ----------------------------------------
 BYTE   PATT
  POIN2 Label_01008CE0
//  #05 //101   ----------------------------------------
 BYTE   PATT
  POIN2 Label_01008D0E
//  #05 //102   ----------------------------------------
 BYTE   PATT
  POIN2 Label_01008CE0
//  #05 //103   ----------------------------------------
 BYTE   PATT
  POIN2 Label_01008CE0
//  #05 //104   ----------------------------------------
 BYTE   PATT
  POIN2 Label_01008CE0
//  #05 //105   ----------------------------------------
 BYTE   PATT
  POIN2 Label_01008D4E
//  #05 //106   ----------------------------------------
 BYTE   PATT
  POIN2 Label_01008D77
//  #05 //107   ----------------------------------------
 BYTE   PATT
  POIN2 Label_01008CE0
//  #05 //108   ----------------------------------------
 BYTE   PATT
  POIN2 Label_01008CE0
//  #05 //109   ----------------------------------------
 BYTE   PATT
  POIN2 Label_01008CE0
//  #05 //110   ----------------------------------------
 BYTE   PATT
  POIN2 Label_01008CE0
//  #05 //111   ----------------------------------------
 BYTE   PATT
  POIN2 Label_01008CE0
//  #05 //112   ----------------------------------------
 BYTE   PATT
  POIN2 Label_01008CE0
//  #05 //113   ----------------------------------------
 BYTE   PATT
  POIN2 Label_01008D4E
//  #05 //114   ----------------------------------------
 BYTE   PATT
  POIN2 Label_01008D77
//  #05 //115   ----------------------------------------
 BYTE   PATT
  POIN2 Label_01008CE0
//  #05 //116   ----------------------------------------
 BYTE   PATT
  POIN2 Label_01008CE0
//  #05 //117   ----------------------------------------
 BYTE   PATT
  POIN2 Label_01008CE0
//  #05 //118   ----------------------------------------
 BYTE   PATT
  POIN2 Label_01008CE0
//  #05 //119   ----------------------------------------
 BYTE   PATT
  POIN2 Label_01008CE0
//  #05 //120   ----------------------------------------
 BYTE   PATT
  POIN2 Label_01008CE0
//  #05 //121   ----------------------------------------
 BYTE   PATT
  POIN2 Label_01008D4E
//  #05 //122   ----------------------------------------
 BYTE   PATT
  POIN2 Label_01008CE0
//  #05 //123   ----------------------------------------
 BYTE   PATT
  POIN2 Label_01008CE0
//  #05 //124   ----------------------------------------
 BYTE   PATT
  POIN2 Label_01008CE0
//  #05 //125   ----------------------------------------
 BYTE   PATT
  POIN2 Label_01008D0E
//  #05 //126   ----------------------------------------
 BYTE   PATT
  POIN2 Label_01008CE0
//  #05 //127   ----------------------------------------
 BYTE   PATT
  POIN2 Label_01008CE0
//  #05 //128   ----------------------------------------
 BYTE   PATT
  POIN2 Label_01008CE0
//  #05 //129   ----------------------------------------
 BYTE   PATT
  POIN2 Label_01008D4E
//  #05 //130   ----------------------------------------
 BYTE   PATT
  POIN2 Label_01008D77
//  #05 //131   ----------------------------------------
 BYTE   PATT
  POIN2 Label_01008CE0
//  #05 //132   ----------------------------------------
 BYTE   PATT
  POIN2 Label_01008CE0
//  #05 //133   ----------------------------------------
 BYTE   PATT
  POIN2 Label_01008CE0
//  #05 //134   ----------------------------------------
 BYTE   PATT
  POIN2 Label_01008CE0
//  #05 //135   ----------------------------------------
 BYTE   PATT
  POIN2 Label_01008CE0
//  #05 //136   ----------------------------------------
 BYTE   PATT
  POIN2 Label_01008CE0
//  #05 //137   ----------------------------------------
 BYTE   PATT
  POIN2 Label_01008D4E
//  #05 //138   ----------------------------------------
 BYTE   PATT
  POIN2 Label_01008D77
//  #05 //139   ----------------------------------------
 BYTE   PATT
  POIN2 Label_01008CE0
//  #05 //140   ----------------------------------------
 BYTE   PATT
  POIN2 Label_01008CE0
//  #05 //141   ----------------------------------------
 BYTE   PATT
  POIN2 Label_01008CE0
//  #05 //142   ----------------------------------------
 BYTE   PATT
  POIN2 Label_01008CE0
//  #05 //143   ----------------------------------------
 BYTE   PATT
  POIN2 Label_01008CE0
//  #05 //144   ----------------------------------------
 BYTE   PATT
  POIN2 Label_01008CE0
//  #05 //145   ----------------------------------------
 BYTE   PATT
  POIN2 Label_01008D4E
//  #05 //146   ----------------------------------------
 BYTE   PATT
  POIN2 Label_01008CE0
//  #05 //147   ----------------------------------------
 BYTE   PATT
  POIN2 Label_01008CE0
//  #05 //148   ----------------------------------------
 BYTE   PATT
  POIN2 Label_01008CE0
//  #05 //149   ----------------------------------------
 BYTE   PATT
  POIN2 Label_01008D0E
//  #05 //150   ----------------------------------------
 BYTE   PATT
  POIN2 Label_01008CE0
//  #05 //151   ----------------------------------------
 BYTE   PATT
  POIN2 Label_01008CE0
//  #05 //152   ----------------------------------------
 BYTE   PATT
  POIN2 Label_01008CE0
//  #05 //153   ----------------------------------------
 BYTE   PATT
  POIN2 Label_01008D4E
//  #05 //154   ----------------------------------------
 BYTE   PATT
  POIN2 Label_01008D77
//  #05 //155   ----------------------------------------
 BYTE   PATT
  POIN2 Label_01008CE0
//  #05 //156   ----------------------------------------
 BYTE   PATT
  POIN2 Label_01008CE0
//  #05 //157   ----------------------------------------
 BYTE   PATT
  POIN2 Label_01008CE0
//  #05 //158   ----------------------------------------
 BYTE   PATT
  POIN2 Label_01008CE0
//  #05 //159   ----------------------------------------
 BYTE   PATT
  POIN2 Label_01008CE0
//  #05 //160   ----------------------------------------
 BYTE   PATT
  POIN2 Label_01008CE0
//  #05 //161   ----------------------------------------
 BYTE   PATT
  POIN2 Label_01008D4E
//  #05 //162   ----------------------------------------
 BYTE   GoTo
  POIN2 Label_01008CB2
 BYTE   FINE

//******************************************************//
	ALIGN 4

StreetFighter33rdStrikeSnowlandNecroTwelveTak:
	BYTE	5	// NumTrks
	BYTE	0	// NumBlks
	BYTE	StreetFighter33rdStrikeSnowlandNecroTwelveTak_pri	// Priority
	BYTE	StreetFighter33rdStrikeSnowlandNecroTwelveTak_rev	// Reverb.
    
	POIN2	StreetFighter33rdStrikeSnowlandNecroTwelveTak_grp
    
	POIN2	StreetFighter33rdStrikeSnowlandNecroTwelveTak_001
	POIN2	StreetFighter33rdStrikeSnowlandNecroTwelveTak_002
	POIN2	StreetFighter33rdStrikeSnowlandNecroTwelveTak_003
	POIN2	StreetFighter33rdStrikeSnowlandNecroTwelveTak_004
	POIN2	StreetFighter33rdStrikeSnowlandNecroTwelveTak_005

	
