//Event file generated from Sappy .s format.
	#include "MPlayDef.event"

	#define	StreetFighter33rdStikeJazzyNYC99AlexKenTak_grp  voicegroup000
	#define	StreetFighter33rdStikeJazzyNYC99AlexKenTak_pri  0
	#define	StreetFighter33rdStikeJazzyNYC99AlexKenTak_rev  0
	#define	StreetFighter33rdStikeJazzyNYC99AlexKenTak_mvl  127
	#define	StreetFighter33rdStikeJazzyNYC99AlexKenTak_key  0
	#define	StreetFighter33rdStikeJazzyNYC99AlexKenTak_tbs  1
	#define	StreetFighter33rdStikeJazzyNYC99AlexKenTak_exg  0
	#define	StreetFighter33rdStikeJazzyNYC99AlexKenTak_cmp  1

	// .rodata
	//	StreetFighter33rdStikeJazzyNYC99AlexKenTak
	ALIGN 4


//**************** Track 1 (Midi-Chn.0) ****************//

StreetFighter33rdStikeJazzyNYC99AlexKenTak_001:
//  #01 //000   ----------------------------------------
 BYTE   KEYSH   StreetFighter33rdStikeJazzyNYC99AlexKenTak_key+0
 BYTE   TEMPO   120*StreetFighter33rdStikeJazzyNYC99AlexKenTak_tbs/2
Label_01003D54:
 BYTE   VOICE   100
 BYTE   BENDR  12
 BYTE   PAN   c_v-32
 BYTE   VOL   55*StreetFighter33rdStikeJazzyNYC99AlexKenTak_mvl/mxv
 BYTE   N32  Bn2  v077  gtp1
 BYTE   W36
 BYTE   En3
 BYTE   W36
 BYTE   An3
 BYTE   W24
//  #01 //001   ----------------------------------------
Label_01003D65:
 BYTE   W12
 BYTE   N32  Bn3  v077  gtp1
 BYTE   W36
 BYTE   N21  En4
 BYTE   W24
 BYTE   Dn4
 BYTE   W24
 BYTE   PEND 
//  #01 //002   ----------------------------------------
Label_01003D71:
 BYTE   N32  Bn2  v077  gtp1
 BYTE   W36
 BYTE   En3
 BYTE   W36
 BYTE   An3
 BYTE   W24
 BYTE   PEND 
//  #01 //003   ----------------------------------------
 BYTE   PATT
  POIN2 Label_01003D65
//  #01 //004   ----------------------------------------
 BYTE   PATT
  POIN2 Label_01003D71
//  #01 //005   ----------------------------------------
 BYTE   PATT
  POIN2 Label_01003D65
//  #01 //006   ----------------------------------------
 BYTE   PATT
  POIN2 Label_01003D71
//  #01 //007   ----------------------------------------
 BYTE   PATT
  POIN2 Label_01003D65
//  #01 //008   ----------------------------------------
 BYTE   TIE  Bn2  v077
 BYTE   W96
//  #01 //009   ----------------------------------------
Label_01003D98:
 BYTE   W48
 BYTE   EOT
 BYTE   Bn2
 BYTE   N24  En3  v077
 BYTE   W24
 BYTE   An3
 BYTE   W24
 BYTE   PEND 
//  #01 //010   ----------------------------------------
 BYTE   TIE  Bn2
 BYTE   W96
//  #01 //011   ----------------------------------------
Label_01003DA5:
 BYTE   W48
 BYTE   EOT
 BYTE   Bn2
 BYTE   N24  An3  v077
 BYTE   W24
 BYTE   En3
 BYTE   W24
 BYTE   PEND 
//  #01 //012   ----------------------------------------
 BYTE   TIE  Dn3
 BYTE   W96
//  #01 //013   ----------------------------------------
Label_01003DB2:
 BYTE   W48
 BYTE   EOT
 BYTE   Dn3
 BYTE   N24  En3  v077
 BYTE   W24
 BYTE   An3
 BYTE   W24
 BYTE   PEND 
//  #01 //014   ----------------------------------------
Label_01003DBC:
 BYTE   N36  Bn3  v077
 BYTE   W36
 BYTE   En4
 BYTE   W36
 BYTE   N12  Cn4
 BYTE   W12
 BYTE   N48  Dn4
 BYTE   W12
 BYTE   PEND 
//  #01 //015   ----------------------------------------
Label_01003DC9:
 BYTE   W36
 BYTE   N36  Gn3  v077
 BYTE   W36
 BYTE   N24  Cn4
 BYTE   W24
 BYTE   PEND 
//  #01 //016   ----------------------------------------
Label_01003DD2:
 BYTE   N36  En3  v077
 BYTE   W36
 BYTE   En4
 BYTE   W36
 BYTE   N12  Cn4
 BYTE   W12
 BYTE   N48  Dn4
 BYTE   W12
 BYTE   PEND 
//  #01 //017   ----------------------------------------
 BYTE   PATT
  POIN2 Label_01003DC9
//  #01 //018   ----------------------------------------
 BYTE   TIE  Bn2  v077
 BYTE   W96
//  #01 //019   ----------------------------------------
 BYTE   PATT
  POIN2 Label_01003D98
//  #01 //020   ----------------------------------------
 BYTE   TIE  Bn2  v077
 BYTE   W96
//  #01 //021   ----------------------------------------
 BYTE   PATT
  POIN2 Label_01003DA5
//  #01 //022   ----------------------------------------
 BYTE   TIE  Dn3  v077
 BYTE   W96
//  #01 //023   ----------------------------------------
 BYTE   PATT
  POIN2 Label_01003DB2
//  #01 //024   ----------------------------------------
 BYTE   PATT
  POIN2 Label_01003DBC
//  #01 //025   ----------------------------------------
 BYTE   PATT
  POIN2 Label_01003DC9
//  #01 //026   ----------------------------------------
 BYTE   PATT
  POIN2 Label_01003DD2
//  #01 //027   ----------------------------------------
 BYTE   W36
 BYTE   N36  Gn3  v077
 BYTE   W60
//  #01 //028   ----------------------------------------
 BYTE   N10  Bn2
 BYTE   W12
 BYTE   N21
 BYTE   W24
 BYTE   N32  En3  v077  gtp1
 BYTE   W36
 BYTE   An3
 BYTE   W24
//  #01 //029   ----------------------------------------
 BYTE   PATT
  POIN2 Label_01003D65
//  #01 //030   ----------------------------------------
 BYTE   W96
//  #01 //031   ----------------------------------------
 BYTE   W96
//  #01 //032   ----------------------------------------
 BYTE   W96
//  #01 //033   ----------------------------------------
 BYTE   W96
//  #01 //034   ----------------------------------------
 BYTE   W96
//  #01 //035   ----------------------------------------
 BYTE   W96
//  #01 //036   ----------------------------------------
 BYTE   W96
//  #01 //037   ----------------------------------------
 BYTE   W96
//  #01 //038   ----------------------------------------
 BYTE   W96
//  #01 //039   ----------------------------------------
 BYTE   W96
//  #01 //040   ----------------------------------------
 BYTE   W96
//  #01 //041   ----------------------------------------
 BYTE   W96
//  #01 //042   ----------------------------------------
 BYTE   W96
//  #01 //043   ----------------------------------------
 BYTE   W96
//  #01 //044   ----------------------------------------
 BYTE   W96
//  #01 //045   ----------------------------------------
 BYTE   W96
//  #01 //046   ----------------------------------------
 BYTE   W96
//  #01 //047   ----------------------------------------
 BYTE   W96
//  #01 //048   ----------------------------------------
 BYTE   W96
//  #01 //049   ----------------------------------------
 BYTE   W96
//  #01 //050   ----------------------------------------
 BYTE   W96
//  #01 //051   ----------------------------------------
 BYTE   W96
//  #01 //052   ----------------------------------------
 BYTE   W96
//  #01 //053   ----------------------------------------
 BYTE   W96
//  #01 //054   ----------------------------------------
 BYTE   W96
//  #01 //055   ----------------------------------------
 BYTE   W96
//  #01 //056   ----------------------------------------
 BYTE   W96
//  #01 //057   ----------------------------------------
 BYTE   W96
//  #01 //058   ----------------------------------------
 BYTE   W96
//  #01 //059   ----------------------------------------
 BYTE   W96
//  #01 //060   ----------------------------------------
 BYTE   W96
//  #01 //061   ----------------------------------------
 BYTE   W96
//  #01 //062   ----------------------------------------
 BYTE   GoTo
  POIN2 Label_01003D54
 BYTE   FINE

//**************** Track 2 (Midi-Chn.1) ****************//

StreetFighter33rdStikeJazzyNYC99AlexKenTak_002:
//  #02 //000   ----------------------------------------
 BYTE   KEYSH   StreetFighter33rdStikeJazzyNYC99AlexKenTak_key+0
Label_01026006:
 BYTE   VOICE   36
 BYTE   BENDR  12
 BYTE   VOL   79*StreetFighter33rdStikeJazzyNYC99AlexKenTak_mvl/mxv
 BYTE   N36  An1  v085
 BYTE   W36
 BYTE   Dn2
 BYTE   W36
 BYTE   Bn1
 BYTE   W24
//  #02 //001   ----------------------------------------
Label_01026014:
 BYTE   W12
 BYTE   N36  En2  v085
 BYTE   W36
 BYTE   N22  Gn1
 BYTE   W24
 BYTE   N24
 BYTE   W24
 BYTE   PEND 
//  #02 //002   ----------------------------------------
Label_0102601F:
 BYTE   N36  An1  v085
 BYTE   W36
 BYTE   Dn2
 BYTE   W36
 BYTE   Bn1
 BYTE   W24
 BYTE   PEND 
//  #02 //003   ----------------------------------------
 BYTE   PATT
  POIN2 Label_01026014
//  #02 //004   ----------------------------------------
 BYTE   PATT
  POIN2 Label_0102601F
//  #02 //005   ----------------------------------------
 BYTE   PATT
  POIN2 Label_01026014
//  #02 //006   ----------------------------------------
 BYTE   PATT
  POIN2 Label_0102601F
//  #02 //007   ----------------------------------------
 BYTE   PATT
  POIN2 Label_01026014
//  #02 //008   ----------------------------------------
Label_01026041:
 BYTE   N15  An1  v085
 BYTE   W18
 BYTE   N09
 BYTE   W12
 BYTE   N03
 BYTE   W06
 BYTE   N09
 BYTE   W12
 BYTE   N10
 BYTE   W12
 BYTE   Fs1
 BYTE   W12
 BYTE   Fs2
 BYTE   W12
 BYTE   En2
 BYTE   W12
 BYTE   PEND 
//  #02 //009   ----------------------------------------
Label_01026054:
 BYTE   N04  An1  v085
 BYTE   W06
 BYTE   N09  Bn1
 BYTE   W12
 BYTE   Bn1
 BYTE   W12
 BYTE   N03
 BYTE   W06
 BYTE   N09
 BYTE   W12
 BYTE   Bn1
 BYTE   W12
 BYTE   N10  An1
 BYTE   W12
 BYTE   En2
 BYTE   W12
 BYTE   Fs2
 BYTE   W12
 BYTE   PEND 
//  #02 //010   ----------------------------------------
 BYTE   PATT
  POIN2 Label_01026041
//  #02 //011   ----------------------------------------
 BYTE   PATT
  POIN2 Label_01026054
//  #02 //012   ----------------------------------------
Label_01026075:
 BYTE   N04  Fn1  v085
 BYTE   W06
 BYTE   N09  Gn1
 BYTE   W12
 BYTE   Gn1
 BYTE   W12
 BYTE   N03
 BYTE   W06
 BYTE   N09
 BYTE   W12
 BYTE   Gn1
 BYTE   W12
 BYTE   N10  Fn1
 BYTE   W12
 BYTE   Dn2
 BYTE   W12
 BYTE   Cn2
 BYTE   W12
 BYTE   PEND 
//  #02 //013   ----------------------------------------
 BYTE   N04  Gn1
 BYTE   W06
 BYTE   N09  An1
 BYTE   W12
 BYTE   An1
 BYTE   W12
 BYTE   N03
 BYTE   W06
 BYTE   N04
 BYTE   W06
 BYTE   Gn1
 BYTE   W06
 BYTE   N09  An1
 BYTE   W12
 BYTE   N06
 BYTE   W06
 BYTE   N09
 BYTE   W12
 BYTE   N06  Gn1
 BYTE   W06
 BYTE   N10  An1
 BYTE   W12
//  #02 //014   ----------------------------------------
Label_010260A7:
 BYTE   N04  An1  v085
 BYTE   W06
 BYTE   N09  Bn1
 BYTE   W12
 BYTE   Bn1
 BYTE   W12
 BYTE   N03
 BYTE   W06
 BYTE   N04
 BYTE   W06
 BYTE   An1
 BYTE   W06
 BYTE   N09  Bn1
 BYTE   W12
 BYTE   N10  An1
 BYTE   W12
 BYTE   Bn1
 BYTE   W12
 BYTE   Bn1
 BYTE   W12
 BYTE   PEND 
//  #02 //015   ----------------------------------------
Label_010260C1:
 BYTE   N04  Gn1  v085
 BYTE   W06
 BYTE   N09  An1
 BYTE   W12
 BYTE   An1
 BYTE   W12
 BYTE   N03
 BYTE   W06
 BYTE   N04
 BYTE   W06
 BYTE   Gn1
 BYTE   W06
 BYTE   N15  An1
 BYTE   W18
 BYTE   N06  Gn1
 BYTE   W06
 BYTE   N10  An1
 BYTE   W12
 BYTE   An1
 BYTE   W12
 BYTE   PEND 
//  #02 //016   ----------------------------------------
 BYTE   PATT
  POIN2 Label_010260A7
//  #02 //017   ----------------------------------------
 BYTE   N04  Gn1  v085
 BYTE   W06
 BYTE   N09  An1
 BYTE   W12
 BYTE   An1
 BYTE   W12
 BYTE   N03
 BYTE   W06
 BYTE   N04
 BYTE   W06
 BYTE   Gn1
 BYTE   W06
 BYTE   N15  An1
 BYTE   W18
 BYTE   N04  Gn1
 BYTE   W06
 BYTE   N21  An1
 BYTE   W24
//  #02 //018   ----------------------------------------
 BYTE   PATT
  POIN2 Label_01026041
//  #02 //019   ----------------------------------------
 BYTE   PATT
  POIN2 Label_01026054
//  #02 //020   ----------------------------------------
 BYTE   PATT
  POIN2 Label_01026041
//  #02 //021   ----------------------------------------
 BYTE   PATT
  POIN2 Label_01026054
//  #02 //022   ----------------------------------------
 BYTE   PATT
  POIN2 Label_01026075
//  #02 //023   ----------------------------------------
 BYTE   N04  Gn1  v085
 BYTE   W06
 BYTE   N09  An1
 BYTE   W12
 BYTE   An1
 BYTE   W12
 BYTE   N03
 BYTE   W06
 BYTE   N04
 BYTE   W06
 BYTE   Gn1
 BYTE   W06
 BYTE   N09  An1
 BYTE   W12
 BYTE   N06  Gn1
 BYTE   W06
 BYTE   N09
 BYTE   W12
 BYTE   N06
 BYTE   W06
 BYTE   N10  An1
 BYTE   W12
//  #02 //024   ----------------------------------------
 BYTE   PATT
  POIN2 Label_010260A7
//  #02 //025   ----------------------------------------
 BYTE   PATT
  POIN2 Label_010260C1
//  #02 //026   ----------------------------------------
 BYTE   PATT
  POIN2 Label_010260A7
//  #02 //027   ----------------------------------------
 BYTE   N04  Gn1  v085
 BYTE   W06
 BYTE   N09  An1
 BYTE   W12
 BYTE   An1
 BYTE   W12
 BYTE   N03
 BYTE   W06
 BYTE   N04
 BYTE   W06
 BYTE   Gn1
 BYTE   W06
 BYTE   N15  An1
 BYTE   W18
 BYTE   N06  Gn1
 BYTE   W06
 BYTE   N12  An1
 BYTE   W24
//  #02 //028   ----------------------------------------
 BYTE   PATT
  POIN2 Label_0102601F
//  #02 //029   ----------------------------------------
 BYTE   PATT
  POIN2 Label_01026014
//  #02 //030   ----------------------------------------
Label_0102615F:
 BYTE   N06  En1  v085
 BYTE   W06
 BYTE   N09
 BYTE   W12
 BYTE   N10
 BYTE   W12
 BYTE   N06  Dn1
 BYTE   W06
 BYTE   En1
 BYTE   W06
 BYTE   Dn1
 BYTE   W06
 BYTE   N09  En1
 BYTE   W12
 BYTE   N06  Dn1
 BYTE   W06
 BYTE   N12  En1
 BYTE   W12
 BYTE   N06  Gn1
 BYTE   W06
 BYTE   N12  An1
 BYTE   W12
 BYTE   PEND 
//  #02 //031   ----------------------------------------
Label_0102617E:
 BYTE   N06  En1  v085
 BYTE   W06
 BYTE   N09
 BYTE   W12
 BYTE   N10
 BYTE   W12
 BYTE   N06  Dn1
 BYTE   W06
 BYTE   En1
 BYTE   W06
 BYTE   Dn1
 BYTE   W06
 BYTE   N15  En1
 BYTE   W18
 BYTE   N06  Dn1
 BYTE   W06
 BYTE   N10  Fs2
 BYTE   W12
 BYTE   En2
 BYTE   W12
 BYTE   PEND 
//  #02 //032   ----------------------------------------
Label_01026199:
 BYTE   N06  En1  v085
 BYTE   W06
 BYTE   N09
 BYTE   W12
 BYTE   N12
 BYTE   W12
 BYTE   N06  Dn1
 BYTE   W06
 BYTE   En1
 BYTE   W06
 BYTE   Dn1
 BYTE   W06
 BYTE   N12  En1
 BYTE   W12
 BYTE   N06  Dn1
 BYTE   W06
 BYTE   N10  En1
 BYTE   W12
 BYTE   N06
 BYTE   W06
 BYTE   N10  Gn1
 BYTE   W12
 BYTE   PEND 
//  #02 //033   ----------------------------------------
Label_010261B7:
 BYTE   N15  An1  v085
 BYTE   W18
 BYTE   An1
 BYTE   W18
 BYTE   N09
 BYTE   W12
 BYTE   Cn2
 BYTE   W12
 BYTE   Dn2
 BYTE   W12
 BYTE   N21  En2
 BYTE   W24
 BYTE   PEND 
//  #02 //034   ----------------------------------------
 BYTE   PATT
  POIN2 Label_0102615F
//  #02 //035   ----------------------------------------
 BYTE   PATT
  POIN2 Label_0102617E
//  #02 //036   ----------------------------------------
 BYTE   PATT
  POIN2 Label_01026199
//  #02 //037   ----------------------------------------
 BYTE   PATT
  POIN2 Label_010261B7
//  #02 //038   ----------------------------------------
 BYTE   PATT
  POIN2 Label_0102615F
//  #02 //039   ----------------------------------------
 BYTE   PATT
  POIN2 Label_0102617E
//  #02 //040   ----------------------------------------
 BYTE   PATT
  POIN2 Label_01026199
//  #02 //041   ----------------------------------------
 BYTE   PATT
  POIN2 Label_010261B7
//  #02 //042   ----------------------------------------
 BYTE   PATT
  POIN2 Label_0102615F
//  #02 //043   ----------------------------------------
 BYTE   PATT
  POIN2 Label_0102617E
//  #02 //044   ----------------------------------------
 BYTE   PATT
  POIN2 Label_01026199
//  #02 //045   ----------------------------------------
 BYTE   PATT
  POIN2 Label_010261B7
//  #02 //046   ----------------------------------------
 BYTE   PATT
  POIN2 Label_0102615F
//  #02 //047   ----------------------------------------
 BYTE   PATT
  POIN2 Label_0102617E
//  #02 //048   ----------------------------------------
 BYTE   PATT
  POIN2 Label_01026199
//  #02 //049   ----------------------------------------
 BYTE   PATT
  POIN2 Label_010261B7
//  #02 //050   ----------------------------------------
 BYTE   PATT
  POIN2 Label_0102615F
//  #02 //051   ----------------------------------------
 BYTE   PATT
  POIN2 Label_0102617E
//  #02 //052   ----------------------------------------
 BYTE   PATT
  POIN2 Label_01026199
//  #02 //053   ----------------------------------------
 BYTE   PATT
  POIN2 Label_010261B7
//  #02 //054   ----------------------------------------
 BYTE   PATT
  POIN2 Label_0102615F
//  #02 //055   ----------------------------------------
 BYTE   PATT
  POIN2 Label_0102617E
//  #02 //056   ----------------------------------------
 BYTE   PATT
  POIN2 Label_01026199
//  #02 //057   ----------------------------------------
 BYTE   PATT
  POIN2 Label_010261B7
//  #02 //058   ----------------------------------------
 BYTE   PATT
  POIN2 Label_0102615F
//  #02 //059   ----------------------------------------
 BYTE   PATT
  POIN2 Label_0102617E
//  #02 //060   ----------------------------------------
 BYTE   PATT
  POIN2 Label_01026199
//  #02 //061   ----------------------------------------
 BYTE   PATT
  POIN2 Label_010261B7
//  #02 //062   ----------------------------------------
 BYTE   GoTo
  POIN2 Label_01026006
 BYTE   FINE

//**************** Track 3 (Midi-Chn.2) ****************//

StreetFighter33rdStikeJazzyNYC99AlexKenTak_003:
//  #03 //000   ----------------------------------------
 BYTE   KEYSH   StreetFighter33rdStikeJazzyNYC99AlexKenTak_key+0
Label_01026542:
 BYTE   VOICE   33
 BYTE   BENDR  12
 BYTE   VOL   34*StreetFighter33rdStikeJazzyNYC99AlexKenTak_mvl/mxv
 BYTE   N36  An0  v085
 BYTE   W36
 BYTE   Dn1
 BYTE   W36
 BYTE   Bn0
 BYTE   W24
//  #03 //001   ----------------------------------------
Label_01026550:
 BYTE   W12
 BYTE   N36  En1  v085
 BYTE   W36
 BYTE   N22  Gn0
 BYTE   W24
 BYTE   N24
 BYTE   W24
 BYTE   PEND 
//  #03 //002   ----------------------------------------
Label_0102655B:
 BYTE   N36  An0  v085
 BYTE   W36
 BYTE   Dn1
 BYTE   W36
 BYTE   Bn0
 BYTE   W24
 BYTE   PEND 
//  #03 //003   ----------------------------------------
 BYTE   PATT
  POIN2 Label_01026550
//  #03 //004   ----------------------------------------
 BYTE   PATT
  POIN2 Label_0102655B
//  #03 //005   ----------------------------------------
 BYTE   PATT
  POIN2 Label_01026550
//  #03 //006   ----------------------------------------
 BYTE   PATT
  POIN2 Label_0102655B
//  #03 //007   ----------------------------------------
 BYTE   PATT
  POIN2 Label_01026550
//  #03 //008   ----------------------------------------
Label_0102657D:
 BYTE   N15  An0  v085
 BYTE   W18
 BYTE   N09
 BYTE   W12
 BYTE   N03
 BYTE   W06
 BYTE   N09
 BYTE   W12
 BYTE   N10
 BYTE   W12
 BYTE   Fs0
 BYTE   W12
 BYTE   Fs1
 BYTE   W12
 BYTE   En1
 BYTE   W12
 BYTE   PEND 
//  #03 //009   ----------------------------------------
Label_01026590:
 BYTE   N04  An0  v085
 BYTE   W06
 BYTE   N09  Bn0
 BYTE   W12
 BYTE   Bn0
 BYTE   W12
 BYTE   N03
 BYTE   W06
 BYTE   N09
 BYTE   W12
 BYTE   Bn0
 BYTE   W12
 BYTE   N10  An0
 BYTE   W12
 BYTE   En1
 BYTE   W12
 BYTE   Fs1
 BYTE   W12
 BYTE   PEND 
//  #03 //010   ----------------------------------------
 BYTE   PATT
  POIN2 Label_0102657D
//  #03 //011   ----------------------------------------
 BYTE   PATT
  POIN2 Label_01026590
//  #03 //012   ----------------------------------------
Label_010265B1:
 BYTE   N04  Fn0  v085
 BYTE   W06
 BYTE   N09  Gn0
 BYTE   W12
 BYTE   Gn0
 BYTE   W12
 BYTE   N03
 BYTE   W06
 BYTE   N09
 BYTE   W12
 BYTE   Gn0
 BYTE   W12
 BYTE   N10  Fn0
 BYTE   W12
 BYTE   Dn1
 BYTE   W12
 BYTE   Cn1
 BYTE   W12
 BYTE   PEND 
//  #03 //013   ----------------------------------------
 BYTE   N04  Gn0
 BYTE   W06
 BYTE   N09  An0
 BYTE   W12
 BYTE   An0
 BYTE   W12
 BYTE   N03
 BYTE   W06
 BYTE   N04
 BYTE   W06
 BYTE   Gn0
 BYTE   W06
 BYTE   N09  An0
 BYTE   W12
 BYTE   N06
 BYTE   W06
 BYTE   N09
 BYTE   W12
 BYTE   N06  Gn0
 BYTE   W06
 BYTE   N10  An0
 BYTE   W12
//  #03 //014   ----------------------------------------
Label_010265E3:
 BYTE   N04  An0  v085
 BYTE   W06
 BYTE   N09  Bn0
 BYTE   W12
 BYTE   Bn0
 BYTE   W12
 BYTE   N03
 BYTE   W06
 BYTE   N04
 BYTE   W06
 BYTE   An0
 BYTE   W06
 BYTE   N09  Bn0
 BYTE   W12
 BYTE   N10  An0
 BYTE   W12
 BYTE   Bn0
 BYTE   W12
 BYTE   Bn0
 BYTE   W12
 BYTE   PEND 
//  #03 //015   ----------------------------------------
Label_010265FD:
 BYTE   N04  Gn0  v085
 BYTE   W06
 BYTE   N09  An0
 BYTE   W12
 BYTE   An0
 BYTE   W12
 BYTE   N03
 BYTE   W06
 BYTE   N04
 BYTE   W06
 BYTE   Gn0
 BYTE   W06
 BYTE   N15  An0
 BYTE   W18
 BYTE   N06  Gn0
 BYTE   W06
 BYTE   N10  An0
 BYTE   W12
 BYTE   An0
 BYTE   W12
 BYTE   PEND 
//  #03 //016   ----------------------------------------
 BYTE   PATT
  POIN2 Label_010265E3
//  #03 //017   ----------------------------------------
 BYTE   N04  Gn0  v085
 BYTE   W06
 BYTE   N09  An0
 BYTE   W12
 BYTE   An0
 BYTE   W12
 BYTE   N03
 BYTE   W06
 BYTE   N04
 BYTE   W06
 BYTE   Gn0
 BYTE   W06
 BYTE   N15  An0
 BYTE   W18
 BYTE   N04  Gn0
 BYTE   W06
 BYTE   N21  An0
 BYTE   W24
//  #03 //018   ----------------------------------------
 BYTE   PATT
  POIN2 Label_0102657D
//  #03 //019   ----------------------------------------
 BYTE   PATT
  POIN2 Label_01026590
//  #03 //020   ----------------------------------------
 BYTE   PATT
  POIN2 Label_0102657D
//  #03 //021   ----------------------------------------
 BYTE   PATT
  POIN2 Label_01026590
//  #03 //022   ----------------------------------------
 BYTE   PATT
  POIN2 Label_010265B1
//  #03 //023   ----------------------------------------
 BYTE   N04  Gn0  v085
 BYTE   W06
 BYTE   N09  An0
 BYTE   W12
 BYTE   An0
 BYTE   W12
 BYTE   N03
 BYTE   W06
 BYTE   N04
 BYTE   W06
 BYTE   Gn0
 BYTE   W06
 BYTE   N09  An0
 BYTE   W12
 BYTE   N06  Gn0
 BYTE   W06
 BYTE   N09
 BYTE   W12
 BYTE   N06
 BYTE   W06
 BYTE   N10  An0
 BYTE   W12
//  #03 //024   ----------------------------------------
 BYTE   PATT
  POIN2 Label_010265E3
//  #03 //025   ----------------------------------------
 BYTE   PATT
  POIN2 Label_010265FD
//  #03 //026   ----------------------------------------
 BYTE   PATT
  POIN2 Label_010265E3
//  #03 //027   ----------------------------------------
 BYTE   N04  Gn0  v085
 BYTE   W06
 BYTE   N09  An0
 BYTE   W12
 BYTE   An0
 BYTE   W12
 BYTE   N03
 BYTE   W06
 BYTE   N04
 BYTE   W06
 BYTE   Gn0
 BYTE   W06
 BYTE   N15  An0
 BYTE   W18
 BYTE   N06  Gn0
 BYTE   W06
 BYTE   N12  An0
 BYTE   W24
//  #03 //028   ----------------------------------------
 BYTE   PATT
  POIN2 Label_0102655B
//  #03 //029   ----------------------------------------
 BYTE   PATT
  POIN2 Label_01026550
//  #03 //030   ----------------------------------------
Label_0102669B:
 BYTE   N06  En0  v085
 BYTE   W06
 BYTE   N09
 BYTE   W12
 BYTE   N10
 BYTE   W12
 BYTE   N06  Dn0
 BYTE   W06
 BYTE   En0
 BYTE   W06
 BYTE   Dn0
 BYTE   W06
 BYTE   N09  En0
 BYTE   W12
 BYTE   N06  Dn0
 BYTE   W06
 BYTE   N12  En0
 BYTE   W12
 BYTE   N06  Gn0
 BYTE   W06
 BYTE   N12  An0
 BYTE   W12
 BYTE   PEND 
//  #03 //031   ----------------------------------------
Label_010266BA:
 BYTE   N06  En0  v085
 BYTE   W06
 BYTE   N09
 BYTE   W12
 BYTE   N10
 BYTE   W12
 BYTE   N06  Dn0
 BYTE   W06
 BYTE   En0
 BYTE   W06
 BYTE   Dn0
 BYTE   W06
 BYTE   N15  En0
 BYTE   W18
 BYTE   N06  Dn0
 BYTE   W06
 BYTE   N10  Fs1
 BYTE   W12
 BYTE   En1
 BYTE   W12
 BYTE   PEND 
//  #03 //032   ----------------------------------------
Label_010266D5:
 BYTE   N06  En0  v085
 BYTE   W06
 BYTE   N09
 BYTE   W12
 BYTE   N12
 BYTE   W12
 BYTE   N06  Dn0
 BYTE   W06
 BYTE   En0
 BYTE   W06
 BYTE   Dn0
 BYTE   W06
 BYTE   N12  En0
 BYTE   W12
 BYTE   N06  Dn0
 BYTE   W06
 BYTE   N10  En0
 BYTE   W12
 BYTE   N06
 BYTE   W06
 BYTE   N10  Gn0
 BYTE   W12
 BYTE   PEND 
//  #03 //033   ----------------------------------------
Label_010266F3:
 BYTE   N15  An0  v085
 BYTE   W18
 BYTE   An0
 BYTE   W18
 BYTE   N09
 BYTE   W12
 BYTE   Cn1
 BYTE   W12
 BYTE   Dn1
 BYTE   W12
 BYTE   N21  En1
 BYTE   W24
 BYTE   PEND 
//  #03 //034   ----------------------------------------
 BYTE   PATT
  POIN2 Label_0102669B
//  #03 //035   ----------------------------------------
 BYTE   PATT
  POIN2 Label_010266BA
//  #03 //036   ----------------------------------------
 BYTE   PATT
  POIN2 Label_010266D5
//  #03 //037   ----------------------------------------
 BYTE   PATT
  POIN2 Label_010266F3
//  #03 //038   ----------------------------------------
 BYTE   PATT
  POIN2 Label_0102669B
//  #03 //039   ----------------------------------------
 BYTE   PATT
  POIN2 Label_010266BA
//  #03 //040   ----------------------------------------
 BYTE   PATT
  POIN2 Label_010266D5
//  #03 //041   ----------------------------------------
 BYTE   PATT
  POIN2 Label_010266F3
//  #03 //042   ----------------------------------------
 BYTE   PATT
  POIN2 Label_0102669B
//  #03 //043   ----------------------------------------
 BYTE   PATT
  POIN2 Label_010266BA
//  #03 //044   ----------------------------------------
 BYTE   PATT
  POIN2 Label_010266D5
//  #03 //045   ----------------------------------------
 BYTE   PATT
  POIN2 Label_010266F3
//  #03 //046   ----------------------------------------
 BYTE   PATT
  POIN2 Label_0102669B
//  #03 //047   ----------------------------------------
 BYTE   PATT
  POIN2 Label_010266BA
//  #03 //048   ----------------------------------------
 BYTE   PATT
  POIN2 Label_010266D5
//  #03 //049   ----------------------------------------
 BYTE   PATT
  POIN2 Label_010266F3
//  #03 //050   ----------------------------------------
 BYTE   PATT
  POIN2 Label_0102669B
//  #03 //051   ----------------------------------------
 BYTE   PATT
  POIN2 Label_010266BA
//  #03 //052   ----------------------------------------
 BYTE   PATT
  POIN2 Label_010266D5
//  #03 //053   ----------------------------------------
 BYTE   PATT
  POIN2 Label_010266F3
//  #03 //054   ----------------------------------------
 BYTE   PATT
  POIN2 Label_0102669B
//  #03 //055   ----------------------------------------
 BYTE   PATT
  POIN2 Label_010266BA
//  #03 //056   ----------------------------------------
 BYTE   PATT
  POIN2 Label_010266D5
//  #03 //057   ----------------------------------------
 BYTE   PATT
  POIN2 Label_010266F3
//  #03 //058   ----------------------------------------
 BYTE   PATT
  POIN2 Label_0102669B
//  #03 //059   ----------------------------------------
 BYTE   PATT
  POIN2 Label_010266BA
//  #03 //060   ----------------------------------------
 BYTE   PATT
  POIN2 Label_010266D5
//  #03 //061   ----------------------------------------
 BYTE   PATT
  POIN2 Label_010266F3
//  #03 //062   ----------------------------------------
 BYTE   GoTo
  POIN2 Label_01026542
 BYTE   FINE

//**************** Track 4 (Midi-Chn.3) ****************//

StreetFighter33rdStikeJazzyNYC99AlexKenTak_004:
//  #04 //000   ----------------------------------------
 BYTE   KEYSH   StreetFighter33rdStikeJazzyNYC99AlexKenTak_key+0
Label_0102679A:
 BYTE   VOICE   59
 BYTE   BENDR  12
 BYTE   VOL   68*StreetFighter33rdStikeJazzyNYC99AlexKenTak_mvl/mxv
 BYTE   N09  Dn3  v047
 BYTE   N09  Gn3  v088
 BYTE   W12
 BYTE   N12  En3
 BYTE   N12  An2  v047
 BYTE   W23
 BYTE   PAN   c_v+17
 BYTE   W01
 BYTE   PAN   c_v+63
 BYTE   N09  Dn3  v023
 BYTE   N09  Gn3  v055
 BYTE   W12
 BYTE   N12  En3
 BYTE   N12  An2  v023
 BYTE   W24
 BYTE   PAN   c_v-64
 BYTE   N09  Dn3  v013
 BYTE   N09  Gn3  v041
 BYTE   W12
 BYTE   N12  An2  v013
 BYTE   N12  En3  v041
 BYTE   W12
//  #04 //001   ----------------------------------------
Label_010267CF:
 BYTE   W12
 BYTE   PAN   c_v+63
 BYTE   N09  Dn3  v013
 BYTE   N09  Gn3  v041
 BYTE   W12
 BYTE   N12  An2  v013
 BYTE   N12  En3  v041
 BYTE   W24
 BYTE   PAN   c_v-33
 BYTE   N09  Dn3  v023
 BYTE   N09  Gn3  v055
 BYTE   W12
 BYTE   Dn3  v023
 BYTE   N09  Gn3  v055
 BYTE   W12
 BYTE   PAN   c_v-64
 BYTE   N09  Dn3  v023
 BYTE   N09  Gn3  v055
 BYTE   W24
 BYTE   PEND 
//  #04 //002   ----------------------------------------
Label_010267F9:
 BYTE   PAN   c_v+0
 BYTE   N09  Dn3  v047
 BYTE   N09  Gn3  v088
 BYTE   W12
 BYTE   N12  En3
 BYTE   N12  An2  v047
 BYTE   W23
 BYTE   PAN   c_v+17
 BYTE   W01
 BYTE   PAN   c_v+63
 BYTE   N09  Dn3  v023
 BYTE   N09  Gn3  v055
 BYTE   W12
 BYTE   N12  En3
 BYTE   N12  An2  v023
 BYTE   W24
 BYTE   PAN   c_v-64
 BYTE   N09  Dn3  v013
 BYTE   N09  Gn3  v041
 BYTE   W12
 BYTE   N12  An2  v013
 BYTE   N12  En3  v041
 BYTE   W12
 BYTE   PEND 
//  #04 //003   ----------------------------------------
 BYTE   PATT
  POIN2 Label_010267CF
//  #04 //004   ----------------------------------------
 BYTE   PATT
  POIN2 Label_010267F9
//  #04 //005   ----------------------------------------
 BYTE   PATT
  POIN2 Label_010267CF
//  #04 //006   ----------------------------------------
 BYTE   PATT
  POIN2 Label_010267F9
//  #04 //007   ----------------------------------------
 BYTE   W12
 BYTE   PAN   c_v+63
 BYTE   N09  Dn3  v013
 BYTE   N09  Gn3  v041
 BYTE   W12
 BYTE   N12  An2  v013
 BYTE   N12  En3  v041
 BYTE   W24
 BYTE   PAN   c_v-33
 BYTE   N09  Dn3  v023
 BYTE   N09  Gn3  v055
 BYTE   W12
 BYTE   Dn3  v023
 BYTE   N09  Gn3  v055
 BYTE   W12
 BYTE   PAN   c_v-64
 BYTE   N09  Dn3  v023
 BYTE   N09  Gn3  v055
 BYTE   W12
 BYTE   PAN   c_v+0
 BYTE   N10  Cn4  v103
 BYTE   W12
//  #04 //008   ----------------------------------------
Label_0102686E:
 BYTE   N09  Bn3  v103
 BYTE   W12
 BYTE   An3
 BYTE   W12
 BYTE   Gn3
 BYTE   W12
 BYTE   En3
 BYTE   W12
 BYTE   N04  Fs3
 BYTE   W06
 BYTE   N09  Gn3
 BYTE   W12
 BYTE   An3
 BYTE   W12
 BYTE   Bn3
 BYTE   W12
 BYTE   N04  Cn4
 BYTE   W06
 BYTE   PEND 
//  #04 //009   ----------------------------------------
Label_01026886:
 BYTE   N09  Bn3  v103
 BYTE   W12
 BYTE   N04  An3
 BYTE   W06
 BYTE   N09  Bn3
 BYTE   W12
 BYTE   Fs3
 BYTE   W12
 BYTE   N04
 BYTE   W06
 BYTE   Gn3
 BYTE   W06
 BYTE   N06
 BYTE   W12
 BYTE   An3
 BYTE   W18
 BYTE   N10  Cn4
 BYTE   W12
 BYTE   PEND 
//  #04 //010   ----------------------------------------
 BYTE   PATT
  POIN2 Label_0102686E
//  #04 //011   ----------------------------------------
Label_010268A3:
 BYTE   N09  Bn3  v103
 BYTE   W12
 BYTE   N04  An3
 BYTE   W06
 BYTE   N09  Bn3
 BYTE   W12
 BYTE   Fs3
 BYTE   W12
 BYTE   N04
 BYTE   W06
 BYTE   Gn3
 BYTE   W06
 BYTE   N06
 BYTE   W12
 BYTE   An3
 BYTE   W30
 BYTE   PEND 
//  #04 //012   ----------------------------------------
Label_010268B8:
 BYTE   W24
 BYTE   N36  Bn3  v103
 BYTE   W36
 BYTE   N18  Cn4
 BYTE   W24
 BYTE   N24  Bn3
 BYTE   W12
 BYTE   PEND 
//  #04 //013   ----------------------------------------
Label_010268C4:
 BYTE   W12
 BYTE   N10  An3  v103
 BYTE   W12
 BYTE   Gn3
 BYTE   W12
 BYTE   En3
 BYTE   W12
 BYTE   Dn3
 BYTE   W12
 BYTE   N18  Cn3
 BYTE   W24
 BYTE   N56  En3  v103  gtp2
 BYTE   W12
 BYTE   PEND 
//  #04 //014   ----------------------------------------
 BYTE   N44  An2  v103  gtp2
 BYTE   W48
 BYTE   N06  Fn3
 BYTE   N06  Dn3
 BYTE   W06
 BYTE   N09  Gn3
 BYTE   N09  En3
 BYTE   W12
 BYTE   N12  An3
 BYTE   N12  Fn3
 BYTE   W12
 BYTE   N09  En3
 BYTE   N09  Cn3
 BYTE   W12
 BYTE   N60  Dn3
 BYTE   N60  Fn3
 BYTE   W06
//  #04 //015   ----------------------------------------
Label_010268F6:
 BYTE   W60
 BYTE   N24  Dn3  v103
 BYTE   N24  An2
 BYTE   W24
 BYTE   N10  Cn3
 BYTE   N10  Gn2
 BYTE   W12
 BYTE   PEND 
//  #04 //016   ----------------------------------------
Label_01026903:
 BYTE   N44  An2  v103  gtp2
 BYTE   En3
 BYTE   W48
 BYTE   N06  Dn3
 BYTE   N06  Fn3
 BYTE   W06
 BYTE   N09  En3
 BYTE   N09  Gn3
 BYTE   W12
 BYTE   N12  Fn3
 BYTE   N12  An3
 BYTE   W12
 BYTE   N07  Cn3
 BYTE   N07  En3
 BYTE   W12
 BYTE   N84  Dn3
 BYTE   N84  Fn3
 BYTE   W06
 BYTE   PEND 
//  #04 //017   ----------------------------------------
 BYTE   W84
 BYTE   N10  Cn4
 BYTE   W12
//  #04 //018   ----------------------------------------
 BYTE   PATT
  POIN2 Label_0102686E
//  #04 //019   ----------------------------------------
 BYTE   PATT
  POIN2 Label_01026886
//  #04 //020   ----------------------------------------
 BYTE   PATT
  POIN2 Label_0102686E
//  #04 //021   ----------------------------------------
 BYTE   PATT
  POIN2 Label_010268A3
//  #04 //022   ----------------------------------------
 BYTE   PATT
  POIN2 Label_010268B8
//  #04 //023   ----------------------------------------
 BYTE   PATT
  POIN2 Label_010268C4
//  #04 //024   ----------------------------------------
 BYTE   N44  An2  v103  gtp2
 BYTE   W48
 BYTE   N06  Dn3
 BYTE   N06  Fn3
 BYTE   W06
 BYTE   N09  En3
 BYTE   N09  Gn3
 BYTE   W12
 BYTE   N12  Fn3
 BYTE   N12  An3
 BYTE   W12
 BYTE   N09  Cn3
 BYTE   N09  En3
 BYTE   W12
 BYTE   N60  Fn3
 BYTE   N60  Dn3
 BYTE   W06
//  #04 //025   ----------------------------------------
 BYTE   PATT
  POIN2 Label_010268F6
//  #04 //026   ----------------------------------------
 BYTE   PATT
  POIN2 Label_01026903
//  #04 //027   ----------------------------------------
 BYTE   W96
//  #04 //028   ----------------------------------------
 BYTE   N09  Dn3  v047
 BYTE   N09  Gn3  v088
 BYTE   W12
 BYTE   N12  En3
 BYTE   N12  An2  v047
 BYTE   W23
 BYTE   PAN   c_v+17
 BYTE   W01
 BYTE   PAN   c_v+63
 BYTE   N09  Dn3  v023
 BYTE   N09  Gn3  v055
 BYTE   W12
 BYTE   N12  En3
 BYTE   N12  An2  v023
 BYTE   W24
 BYTE   PAN   c_v-64
 BYTE   N09  Dn3  v013
 BYTE   N09  Gn3  v041
 BYTE   W12
 BYTE   N12  An2  v013
 BYTE   N12  En3  v041
 BYTE   W12
//  #04 //029   ----------------------------------------
 BYTE   PATT
  POIN2 Label_010267CF
//  #04 //030   ----------------------------------------
 BYTE   PAN   c_v+0
 BYTE   N09  Bn2  v100
 BYTE   W12
 BYTE   N04  Dn3
 BYTE   W06
 BYTE   N09  En3
 BYTE   W12
 BYTE   N04  Dn3
 BYTE   W06
 BYTE   N09  En3
 BYTE   W12
 BYTE   N04  Dn3
 BYTE   W06
 BYTE   N09  En3
 BYTE   W12
 BYTE   N04  Dn3
 BYTE   W06
 BYTE   N09  En3
 BYTE   W12
 BYTE   Gn3
 BYTE   W12
//  #04 //031   ----------------------------------------
Label_010269C2:
 BYTE   N09  Bn2  v100
 BYTE   W12
 BYTE   N04  Dn3
 BYTE   W06
 BYTE   N09  En3
 BYTE   W12
 BYTE   N04  Dn3
 BYTE   W06
 BYTE   N09  En3
 BYTE   W12
 BYTE   N04  Dn3
 BYTE   W06
 BYTE   N09  En3
 BYTE   W12
 BYTE   N04  Dn3
 BYTE   W06
 BYTE   N09  En3
 BYTE   W12
 BYTE   Dn3
 BYTE   W12
 BYTE   PEND 
//  #04 //032   ----------------------------------------
Label_010269E1:
 BYTE   N09  Bn2  v100
 BYTE   W12
 BYTE   N04  Dn3
 BYTE   W06
 BYTE   N09  En3
 BYTE   W12
 BYTE   N04  Dn3
 BYTE   W06
 BYTE   N09  En3
 BYTE   W12
 BYTE   N04  Dn3
 BYTE   W06
 BYTE   N09  En3
 BYTE   W12
 BYTE   N04  Dn3
 BYTE   W06
 BYTE   N09  En3
 BYTE   W12
 BYTE   Gn3
 BYTE   W12
 BYTE   PEND 
//  #04 //033   ----------------------------------------
 BYTE   PATT
  POIN2 Label_010269C2
//  #04 //034   ----------------------------------------
 BYTE   PATT
  POIN2 Label_010269E1
//  #04 //035   ----------------------------------------
 BYTE   PATT
  POIN2 Label_010269C2
//  #04 //036   ----------------------------------------
 BYTE   PATT
  POIN2 Label_010269E1
//  #04 //037   ----------------------------------------
 BYTE   PATT
  POIN2 Label_010269C2
//  #04 //038   ----------------------------------------
Label_01026A19:
 BYTE   N09  En3  v056
 BYTE   N09  An3  v100
 BYTE   W12
 BYTE   N04  Gn3
 BYTE   N04  Dn3  v056
 BYTE   W06
 BYTE   Bn2
 BYTE   N04  En3  v100
 BYTE   W42
 BYTE   N15
 BYTE   N15  Bn2  v056
 BYTE   W18
 BYTE   Gn3  v100
 BYTE   N15  Dn3  v056
 BYTE   W18
 BYTE   PEND 
//  #04 //039   ----------------------------------------
Label_01026A37:
 BYTE   N09  An3  v100
 BYTE   N09  En3  v056
 BYTE   W12
 BYTE   N04  Dn3
 BYTE   N04  Gn3  v100
 BYTE   W06
 BYTE   En3
 BYTE   N04  Bn2  v056
 BYTE   W42
 BYTE   N15  En3  v100
 BYTE   N15  Bn2  v056
 BYTE   W18
 BYTE   Gn3  v100
 BYTE   N15  Dn3  v056
 BYTE   W18
 BYTE   PEND 
//  #04 //040   ----------------------------------------
Label_01026A57:
 BYTE   N09  An3  v100
 BYTE   N09  En3  v056
 BYTE   W12
 BYTE   N04  Gn3  v100
 BYTE   N04  Dn3  v056
 BYTE   W06
 BYTE   En3  v100
 BYTE   N04  Bn2  v056
 BYTE   W42
 BYTE   N15  En3  v100
 BYTE   N15  Bn2  v056
 BYTE   W18
 BYTE   Gn3  v100
 BYTE   N15  Dn3  v056
 BYTE   W18
 BYTE   PEND 
//  #04 //041   ----------------------------------------
Label_01026A79:
 BYTE   N09  An3  v100
 BYTE   N09  En3  v056
 BYTE   W12
 BYTE   N04  Gn3  v100
 BYTE   N04  Dn3  v056
 BYTE   W06
 BYTE   N09  An3  v100
 BYTE   N09  En3  v056
 BYTE   W12
 BYTE   N04  En3  v100
 BYTE   N04  Bn2  v056
 BYTE   W06
 BYTE   N09  Gn3  v100
 BYTE   N09  Dn3  v056
 BYTE   W12
 BYTE   N04  Gn3  v100
 BYTE   N04  Dn3  v056
 BYTE   W06
 BYTE   N09  An3  v100
 BYTE   N09  En3  v056
 BYTE   W12
 BYTE   N04  Gn3  v100
 BYTE   N04  Dn3  v056
 BYTE   W06
 BYTE   N09  An3  v100
 BYTE   N09  En3  v056
 BYTE   W12
 BYTE   Gn3  v100
 BYTE   N09  Dn3  v056
 BYTE   W12
 BYTE   PEND 
//  #04 //042   ----------------------------------------
 BYTE   PATT
  POIN2 Label_01026A57
//  #04 //043   ----------------------------------------
 BYTE   PATT
  POIN2 Label_01026A57
//  #04 //044   ----------------------------------------
 BYTE   PATT
  POIN2 Label_01026A57
//  #04 //045   ----------------------------------------
 BYTE   PATT
  POIN2 Label_01026A79
//  #04 //046   ----------------------------------------
 BYTE   PATT
  POIN2 Label_010269E1
//  #04 //047   ----------------------------------------
 BYTE   PATT
  POIN2 Label_010269C2
//  #04 //048   ----------------------------------------
 BYTE   PATT
  POIN2 Label_010269E1
//  #04 //049   ----------------------------------------
 BYTE   PATT
  POIN2 Label_010269C2
//  #04 //050   ----------------------------------------
 BYTE   PATT
  POIN2 Label_010269E1
//  #04 //051   ----------------------------------------
 BYTE   PATT
  POIN2 Label_010269C2
//  #04 //052   ----------------------------------------
 BYTE   PATT
  POIN2 Label_010269E1
//  #04 //053   ----------------------------------------
 BYTE   PATT
  POIN2 Label_010269C2
//  #04 //054   ----------------------------------------
 BYTE   PATT
  POIN2 Label_01026A19
//  #04 //055   ----------------------------------------
 BYTE   PATT
  POIN2 Label_01026A37
//  #04 //056   ----------------------------------------
 BYTE   PATT
  POIN2 Label_01026A57
//  #04 //057   ----------------------------------------
 BYTE   PATT
  POIN2 Label_01026A79
//  #04 //058   ----------------------------------------
 BYTE   PATT
  POIN2 Label_01026A57
//  #04 //059   ----------------------------------------
 BYTE   PATT
  POIN2 Label_01026A57
//  #04 //060   ----------------------------------------
 BYTE   PATT
  POIN2 Label_01026A57
//  #04 //061   ----------------------------------------
 BYTE   PATT
  POIN2 Label_01026A79
//  #04 //062   ----------------------------------------
 BYTE   GoTo
  POIN2 Label_0102679A
 BYTE   FINE

//**************** Track 5 (Midi-Chn.4) ****************//

StreetFighter33rdStikeJazzyNYC99AlexKenTak_005:
//  #05 //000   ----------------------------------------
 BYTE   KEYSH   StreetFighter33rdStikeJazzyNYC99AlexKenTak_key+0
Label_01003026:
 BYTE   VOICE   42
 BYTE   BENDR  12
 BYTE   PAN   c_v-25
 BYTE   VOL   61*StreetFighter33rdStikeJazzyNYC99AlexKenTak_mvl/mxv
 BYTE   W96
//  #05 //001   ----------------------------------------
 BYTE   W96
//  #05 //002   ----------------------------------------
 BYTE   W96
//  #05 //003   ----------------------------------------
 BYTE   W96
//  #05 //004   ----------------------------------------
 BYTE   W96
//  #05 //005   ----------------------------------------
 BYTE   W96
//  #05 //006   ----------------------------------------
 BYTE   W96
//  #05 //007   ----------------------------------------
 BYTE   W96
//  #05 //008   ----------------------------------------
 BYTE   W96
//  #05 //009   ----------------------------------------
 BYTE   W96
//  #05 //010   ----------------------------------------
 BYTE   W96
//  #05 //011   ----------------------------------------
 BYTE   W96
//  #05 //012   ----------------------------------------
 BYTE   W96
//  #05 //013   ----------------------------------------
 BYTE   W96
//  #05 //014   ----------------------------------------
 BYTE   W96
//  #05 //015   ----------------------------------------
 BYTE   W96
//  #05 //016   ----------------------------------------
 BYTE   W96
//  #05 //017   ----------------------------------------
 BYTE   W96
//  #05 //018   ----------------------------------------
 BYTE   W96
//  #05 //019   ----------------------------------------
 BYTE   W96
//  #05 //020   ----------------------------------------
 BYTE   W96
//  #05 //021   ----------------------------------------
 BYTE   W96
//  #05 //022   ----------------------------------------
 BYTE   W96
//  #05 //023   ----------------------------------------
 BYTE   W96
//  #05 //024   ----------------------------------------
 BYTE   W96
//  #05 //025   ----------------------------------------
 BYTE   W96
//  #05 //026   ----------------------------------------
 BYTE   W96
//  #05 //027   ----------------------------------------
 BYTE   W96
//  #05 //028   ----------------------------------------
 BYTE   W96
//  #05 //029   ----------------------------------------
 BYTE   W96
//  #05 //030   ----------------------------------------
 BYTE   W96
//  #05 //031   ----------------------------------------
 BYTE   W96
//  #05 //032   ----------------------------------------
 BYTE   W96
//  #05 //033   ----------------------------------------
 BYTE   W96
//  #05 //034   ----------------------------------------
 BYTE   W96
//  #05 //035   ----------------------------------------
 BYTE   W96
//  #05 //036   ----------------------------------------
 BYTE   W96
//  #05 //037   ----------------------------------------
 BYTE   W92
 BYTE   W03
 BYTE   VOL   43*StreetFighter33rdStikeJazzyNYC99AlexKenTak_mvl/mxv
 BYTE   W01
//  #05 //038   ----------------------------------------
Label_01003058:
 BYTE   TIE  En5  v095
 BYTE   VOL   44*StreetFighter33rdStikeJazzyNYC99AlexKenTak_mvl/mxv
 BYTE   W02
 BYTE   VOL   45*StreetFighter33rdStikeJazzyNYC99AlexKenTak_mvl/mxv
 BYTE   W03
 BYTE   VOL   46*StreetFighter33rdStikeJazzyNYC99AlexKenTak_mvl/mxv
 BYTE   W04
 BYTE   VOL   48*StreetFighter33rdStikeJazzyNYC99AlexKenTak_mvl/mxv
 BYTE   W05
 BYTE   VOL   49*StreetFighter33rdStikeJazzyNYC99AlexKenTak_mvl/mxv
 BYTE   W02
 BYTE   VOL   50*StreetFighter33rdStikeJazzyNYC99AlexKenTak_mvl/mxv
 BYTE   W03
 BYTE   VOL   51*StreetFighter33rdStikeJazzyNYC99AlexKenTak_mvl/mxv
 BYTE   W05
 BYTE   VOL   53*StreetFighter33rdStikeJazzyNYC99AlexKenTak_mvl/mxv
 BYTE   W04
 BYTE   VOL   54*StreetFighter33rdStikeJazzyNYC99AlexKenTak_mvl/mxv
 BYTE   W03
 BYTE   VOL   55*StreetFighter33rdStikeJazzyNYC99AlexKenTak_mvl/mxv
 BYTE   W02
 BYTE   VOL   56*StreetFighter33rdStikeJazzyNYC99AlexKenTak_mvl/mxv
 BYTE   W03
 BYTE   VOL   57*StreetFighter33rdStikeJazzyNYC99AlexKenTak_mvl/mxv
 BYTE   W02
 BYTE   VOL   58*StreetFighter33rdStikeJazzyNYC99AlexKenTak_mvl/mxv
 BYTE   W02
 BYTE   VOL   59*StreetFighter33rdStikeJazzyNYC99AlexKenTak_mvl/mxv
 BYTE   W05
 BYTE   VOL   61*StreetFighter33rdStikeJazzyNYC99AlexKenTak_mvl/mxv
 BYTE   W48
 BYTE   W03
 BYTE   PEND 
//  #05 //039   ----------------------------------------
 BYTE   W96
//  #05 //040   ----------------------------------------
 BYTE   W96
//  #05 //041   ----------------------------------------
 BYTE   W96
//  #05 //042   ----------------------------------------
 BYTE   W96
//  #05 //043   ----------------------------------------
 BYTE   W96
//  #05 //044   ----------------------------------------
 BYTE   W96
//  #05 //045   ----------------------------------------
 BYTE   W96
//  #05 //046   ----------------------------------------
 BYTE   EOT
 BYTE   W96
//  #05 //047   ----------------------------------------
 BYTE   W96
//  #05 //048   ----------------------------------------
 BYTE   W96
//  #05 //049   ----------------------------------------
 BYTE   W96
//  #05 //050   ----------------------------------------
 BYTE   W96
//  #05 //051   ----------------------------------------
 BYTE   W96
//  #05 //052   ----------------------------------------
 BYTE   W96
//  #05 //053   ----------------------------------------
 BYTE   W96
//  #05 //054   ----------------------------------------
 BYTE   PATT
  POIN2 Label_01003058
//  #05 //055   ----------------------------------------
 BYTE   W96
//  #05 //056   ----------------------------------------
 BYTE   W96
//  #05 //057   ----------------------------------------
 BYTE   W96
//  #05 //058   ----------------------------------------
 BYTE   W96
//  #05 //059   ----------------------------------------
 BYTE   W96
//  #05 //060   ----------------------------------------
 BYTE   W96
//  #05 //061   ----------------------------------------
 BYTE   W96
//  #05 //062   ----------------------------------------
 BYTE   EOT
 BYTE   En5
 BYTE   GoTo
  POIN2 Label_01003026
 BYTE   FINE

//**************** Track 6 (Midi-Chn.5) ****************//

StreetFighter33rdStikeJazzyNYC99AlexKenTak_006:
//  #06 //000   ----------------------------------------
 BYTE   KEYSH   StreetFighter33rdStikeJazzyNYC99AlexKenTak_key+0
Label_01026B2E:
 BYTE   VOICE   124
 BYTE   BENDR  12
 BYTE   VOL   79*StreetFighter33rdStikeJazzyNYC99AlexKenTak_mvl/mxv
 BYTE   N03  Cn1  v097
 BYTE   N03  As1  v032
 BYTE   N06  Ds2  v029
 BYTE   W06
 BYTE   N03  En1  v127
 BYTE   N03  As1  v011
 BYTE   W06
 BYTE   Cn1  v097
 BYTE   N03  As1  v031
 BYTE   N06  Ds2  v029
 BYTE   W06
 BYTE   N03  Cn1  v097
 BYTE   W06
 BYTE   As1  v060
 BYTE   N03  En1  v127
 BYTE   N06  Ds2  v085
 BYTE   W12
 BYTE   N03  Cn1  v097
 BYTE   N03  As1  v032
 BYTE   N06  Ds2  v029
 BYTE   W06
 BYTE   N03  As1  v011
 BYTE   W06
 BYTE   As1  v031
 BYTE   N06  Ds2  v029
 BYTE   W06
 BYTE   N03  Cn1  v097
 BYTE   W06
 BYTE   En1  v127
 BYTE   N06  Ds2  v085
 BYTE   N03  As1  v060
 BYTE   W12
 BYTE   As1  v032
 BYTE   N06  Ds2  v029
 BYTE   W06
 BYTE   N03  As1  v011
 BYTE   N03  En1  v127
 BYTE   W06
 BYTE   N06  Ds2  v085
 BYTE   N03  As1  v061
 BYTE   W06
 BYTE   Cn1  v097
 BYTE   W06
//  #06 //001   ----------------------------------------
 BYTE   As1  v033
 BYTE   N03  Cn1  v097
 BYTE   N06  Ds2  v029
 BYTE   W06
 BYTE   N03  En1  v127
 BYTE   W06
 BYTE   Cn1  v097
 BYTE   N06  Ds2  v029
 BYTE   N03  As1  v032
 BYTE   W06
 BYTE   Cn1  v097
 BYTE   N03  As1  v011
 BYTE   W06
 BYTE   En1  v127
 BYTE   N06  Ds2  v085
 BYTE   N03  As1  v061
 BYTE   W12
 BYTE   Cn1  v097
 BYTE   N06  Ds2  v029
 BYTE   N03  As1  v032
 BYTE   W06
 BYTE   As1  v011
 BYTE   W06
 BYTE   Cn1  v097
 BYTE   N06  Ds2  v029
 BYTE   N03  As1  v036
 BYTE   W12
 BYTE   As1  v060
 BYTE   N03  En1  v127
 BYTE   N06  Ds2  v085
 BYTE   W12
 BYTE   Ds2  v029
 BYTE   N03  As1  v036
 BYTE   W06
 BYTE   En1  v127
 BYTE   W06
 BYTE   N06  Ds2  v085
 BYTE   N03  As1  v060
 BYTE   W06
 BYTE   Cn1  v097
 BYTE   W06
//  #06 //002   ----------------------------------------
Label_01026BE9:
 BYTE   N06  Ds2  v029
 BYTE   N03  Cn1  v097
 BYTE   N03  As1  v032
 BYTE   W06
 BYTE   As1  v011
 BYTE   N03  En1  v127
 BYTE   W06
 BYTE   N06  Ds2  v029
 BYTE   N03  Cn1  v097
 BYTE   N03  As1  v031
 BYTE   W06
 BYTE   Cn1  v097
 BYTE   W06
 BYTE   N06  Ds2  v085
 BYTE   N03  En1  v127
 BYTE   N03  As1  v060
 BYTE   W12
 BYTE   N06  Ds2  v029
 BYTE   N03  Cn1  v097
 BYTE   N03  As1  v032
 BYTE   W06
 BYTE   As1  v011
 BYTE   W06
 BYTE   N06  Ds2  v029
 BYTE   N03  As1  v031
 BYTE   W06
 BYTE   Cn1  v097
 BYTE   W06
 BYTE   N06  Ds2  v085
 BYTE   N03  En1  v127
 BYTE   N03  As1  v060
 BYTE   W12
 BYTE   N06  Ds2  v029
 BYTE   N03  As1  v032
 BYTE   W06
 BYTE   As1  v011
 BYTE   N03  En1  v127
 BYTE   W06
 BYTE   N06  Ds2  v085
 BYTE   N03  As1  v061
 BYTE   W06
 BYTE   Cn1  v097
 BYTE   W06
 BYTE   PEND 
//  #06 //003   ----------------------------------------
Label_01026C49:
 BYTE   N06  Ds2  v029
 BYTE   N03  Cn1  v097
 BYTE   N03  As1  v033
 BYTE   W06
 BYTE   En1  v127
 BYTE   W06
 BYTE   N06  Ds2  v029
 BYTE   N03  Cn1  v097
 BYTE   N03  As1  v032
 BYTE   W06
 BYTE   As1  v011
 BYTE   N03  Cn1  v097
 BYTE   W06
 BYTE   N06  Ds2  v085
 BYTE   N03  En1  v127
 BYTE   N03  As1  v061
 BYTE   W12
 BYTE   N06  Ds2  v029
 BYTE   N03  Cn1  v097
 BYTE   N03  As1  v032
 BYTE   W06
 BYTE   As1  v011
 BYTE   W06
 BYTE   N06  Ds2  v029
 BYTE   N03  Cn1  v097
 BYTE   N03  As1  v036
 BYTE   W12
 BYTE   N06  Ds2  v085
 BYTE   N03  En1  v127
 BYTE   N03  As1  v060
 BYTE   W12
 BYTE   N06  Ds2  v029
 BYTE   N03  As1  v036
 BYTE   W06
 BYTE   En1  v127
 BYTE   W06
 BYTE   N06  Ds2  v085
 BYTE   N03  As1  v060
 BYTE   W06
 BYTE   Cn1  v097
 BYTE   W06
 BYTE   PEND 
//  #06 //004   ----------------------------------------
 BYTE   PATT
  POIN2 Label_01026BE9
//  #06 //005   ----------------------------------------
 BYTE   PATT
  POIN2 Label_01026C49
//  #06 //006   ----------------------------------------
 BYTE   N03  As1  v032
 BYTE   N03  Cn1  v097
 BYTE   N06  Ds2  v029
 BYTE   W06
 BYTE   N03  En1  v127
 BYTE   N03  As1  v011
 BYTE   W06
 BYTE   As1  v031
 BYTE   N03  Cn1  v097
 BYTE   N06  Ds2  v029
 BYTE   W06
 BYTE   N03  Cn1  v097
 BYTE   W06
 BYTE   As1  v060
 BYTE   N03  En1  v127
 BYTE   N06  Ds2  v085
 BYTE   W12
 BYTE   N03  As1  v032
 BYTE   N03  Cn1  v097
 BYTE   N06  Ds2  v029
 BYTE   W06
 BYTE   N03  As1  v011
 BYTE   W06
 BYTE   As1  v031
 BYTE   N06  Ds2  v029
 BYTE   W06
 BYTE   N03  Cn1  v097
 BYTE   W06
 BYTE   As1  v060
 BYTE   N03  En1  v127
 BYTE   N06  Ds2  v085
 BYTE   W12
 BYTE   N03  As1  v032
 BYTE   N06  Ds2  v029
 BYTE   W06
 BYTE   N03  En1  v127
 BYTE   N03  As1  v011
 BYTE   W06
 BYTE   As1  v061
 BYTE   N06  Ds2  v085
 BYTE   W06
 BYTE   N03  Cn1  v097
 BYTE   W06
//  #06 //007   ----------------------------------------
 BYTE   As1  v033
 BYTE   N03  Cn1  v097
 BYTE   N06  Ds2  v029
 BYTE   W06
 BYTE   N03  En1  v127
 BYTE   W06
 BYTE   As1  v032
 BYTE   N03  Cn1  v097
 BYTE   N06  Ds2  v029
 BYTE   W06
 BYTE   N03  Cn1  v097
 BYTE   N03  As1  v011
 BYTE   W06
 BYTE   As1  v061
 BYTE   N03  En1  v127
 BYTE   N06  Ds2  v085
 BYTE   W12
 BYTE   N03  As1  v032
 BYTE   N03  Cn1  v097
 BYTE   N06  Ds2  v029
 BYTE   W06
 BYTE   N03  En1  v127
 BYTE   N03  As1  v011
 BYTE   W06
 BYTE   As1  v036
 BYTE   N03  Cn1  v097
 BYTE   N06  Ds2  v029
 BYTE   W06
 BYTE   N03  Cn1  v097
 BYTE   W06
 BYTE   As1  v060
 BYTE   N03  En1  v127
 BYTE   N06  Ds2  v085
 BYTE   W12
 BYTE   N03  As1  v036
 BYTE   N03  Dn1  v097
 BYTE   N03  Cn1
 BYTE   N06  Ds2  v029
 BYTE   W06
 BYTE   N03  Cn1  v097
 BYTE   N03  Dn1
 BYTE   W06
 BYTE   Dn1
 BYTE   N06  Ds2  v085
 BYTE   W06
 BYTE   N03  Dn1  v097
 BYTE   W06
//  #06 //008   ----------------------------------------
Label_01026D78:
 BYTE   N03  As1  v036
 BYTE   W06
 BYTE   En1  v082
 BYTE   W06
 BYTE   As1  v013
 BYTE   W06
 BYTE   Cn1  v097
 BYTE   W06
 BYTE   En1  v127
 BYTE   N03  As1  v060
 BYTE   W12
 BYTE   As1  v036
 BYTE   W06
 BYTE   Cn1  v097
 BYTE   W06
 BYTE   As1  v013
 BYTE   W12
 BYTE   Cn1  v097
 BYTE   N03  En1  v127
 BYTE   N03  As1  v060
 BYTE   W12
 BYTE   En1  v127
 BYTE   N03  As1  v036
 BYTE   W06
 BYTE   En1  v085
 BYTE   W06
 BYTE   En1  v058
 BYTE   N03  As1  v060
 BYTE   W12
 BYTE   PEND 
//  #06 //009   ----------------------------------------
Label_01026DAD:
 BYTE   N03  As1  v036
 BYTE   W06
 BYTE   En1  v082
 BYTE   W06
 BYTE   As1  v013
 BYTE   W06
 BYTE   Cn1  v097
 BYTE   W06
 BYTE   En1  v127
 BYTE   N03  As1  v060
 BYTE   W12
 BYTE   As1  v036
 BYTE   W06
 BYTE   Cn1  v097
 BYTE   W06
 BYTE   En1  v058
 BYTE   N03  As1  v013
 BYTE   W12
 BYTE   Cn1  v097
 BYTE   N03  As1  v060
 BYTE   W12
 BYTE   En1  v127
 BYTE   N03  As1  v036
 BYTE   W06
 BYTE   En1  v058
 BYTE   W06
 BYTE   En1  v081
 BYTE   N03  As1  v060
 BYTE   W06
 BYTE   En1  v127
 BYTE   W06
 BYTE   PEND 
//  #06 //010   ----------------------------------------
 BYTE   As1  v036
 BYTE   W06
 BYTE   En1  v082
 BYTE   W06
 BYTE   As1  v013
 BYTE   W06
 BYTE   Cn1  v097
 BYTE   W06
 BYTE   As1  v060
 BYTE   N03  En1  v127
 BYTE   W12
 BYTE   As1  v036
 BYTE   W06
 BYTE   Cn1  v097
 BYTE   W06
 BYTE   As1  v013
 BYTE   W12
 BYTE   As1  v060
 BYTE   N03  Cn1  v097
 BYTE   N03  En1  v127
 BYTE   W12
 BYTE   As1  v036
 BYTE   N03  En1  v127
 BYTE   W06
 BYTE   En1  v085
 BYTE   W06
 BYTE   As1  v060
 BYTE   N03  En1  v058
 BYTE   W12
//  #06 //011   ----------------------------------------
 BYTE   As1  v036
 BYTE   W06
 BYTE   En1  v082
 BYTE   W06
 BYTE   As1  v013
 BYTE   W06
 BYTE   Cn1  v097
 BYTE   W06
 BYTE   As1  v060
 BYTE   N03  En1  v127
 BYTE   W12
 BYTE   As1  v036
 BYTE   W06
 BYTE   Cn1  v097
 BYTE   W06
 BYTE   As1  v013
 BYTE   N03  En1  v058
 BYTE   W12
 BYTE   As1  v060
 BYTE   N03  Cn1  v097
 BYTE   W12
 BYTE   As1  v036
 BYTE   N03  En1  v127
 BYTE   W06
 BYTE   En1  v058
 BYTE   W06
 BYTE   As1  v060
 BYTE   N03  En1  v081
 BYTE   W06
 BYTE   En1  v127
 BYTE   W06
//  #06 //012   ----------------------------------------
Label_01026E4E:
 BYTE   N03  As1  v036
 BYTE   W06
 BYTE   En1  v082
 BYTE   W06
 BYTE   As1  v013
 BYTE   W06
 BYTE   Cn1  v097
 BYTE   W06
 BYTE   En1  v127
 BYTE   N03  As1  v060
 BYTE   W12
 BYTE   As1  v036
 BYTE   W06
 BYTE   Cn1  v097
 BYTE   W06
 BYTE   As1  v013
 BYTE   W12
 BYTE   En1  v127
 BYTE   N03  Cn1  v097
 BYTE   N03  As1  v060
 BYTE   W12
 BYTE   En1  v127
 BYTE   N03  As1  v036
 BYTE   W06
 BYTE   En1  v085
 BYTE   W06
 BYTE   En1  v058
 BYTE   N03  As1  v060
 BYTE   W12
 BYTE   PEND 
//  #06 //013   ----------------------------------------
 BYTE   PATT
  POIN2 Label_01026DAD
//  #06 //014   ----------------------------------------
 BYTE   PATT
  POIN2 Label_01026E4E
//  #06 //015   ----------------------------------------
 BYTE   PATT
  POIN2 Label_01026DAD
//  #06 //016   ----------------------------------------
 BYTE   PATT
  POIN2 Label_01026E4E
//  #06 //017   ----------------------------------------
 BYTE   N03  As1  v036
 BYTE   W06
 BYTE   En1  v082
 BYTE   W06
 BYTE   As1  v013
 BYTE   W06
 BYTE   Cn1  v097
 BYTE   W06
 BYTE   En1  v127
 BYTE   N03  As1  v060
 BYTE   W12
 BYTE   As1  v036
 BYTE   W06
 BYTE   Cn1  v097
 BYTE   W06
 BYTE   En1  v127
 BYTE   N03  As1  v013
 BYTE   W06
 BYTE   En1  v085
 BYTE   W06
 BYTE   En1  v058
 BYTE   N03  Cn1  v097
 BYTE   N03  As1  v060
 BYTE   W12
 BYTE   En1  v127
 BYTE   N03  As1  v036
 BYTE   W06
 BYTE   En1  v085
 BYTE   W06
 BYTE   En1  v058
 BYTE   N03  As1  v060
 BYTE   W06
 BYTE   Cn1  v097
 BYTE   W06
//  #06 //018   ----------------------------------------
 BYTE   PATT
  POIN2 Label_01026D78
//  #06 //019   ----------------------------------------
 BYTE   PATT
  POIN2 Label_01026DAD
//  #06 //020   ----------------------------------------
 BYTE   PATT
  POIN2 Label_01026E4E
//  #06 //021   ----------------------------------------
 BYTE   PATT
  POIN2 Label_01026DAD
//  #06 //022   ----------------------------------------
 BYTE   PATT
  POIN2 Label_01026E4E
//  #06 //023   ----------------------------------------
 BYTE   PATT
  POIN2 Label_01026DAD
//  #06 //024   ----------------------------------------
 BYTE   PATT
  POIN2 Label_01026E4E
//  #06 //025   ----------------------------------------
 BYTE   N03  As1  v036
 BYTE   W06
 BYTE   En1  v082
 BYTE   W06
 BYTE   As1  v013
 BYTE   W06
 BYTE   Cn1  v097
 BYTE   W06
 BYTE   En1  v127
 BYTE   N03  As1  v060
 BYTE   W12
 BYTE   As1  v036
 BYTE   W06
 BYTE   Cn1  v097
 BYTE   W06
 BYTE   En1  v058
 BYTE   N03  As1  v013
 BYTE   W12
 BYTE   As1  v060
 BYTE   N03  Cn1  v097
 BYTE   W12
 BYTE   En1  v127
 BYTE   N03  As1  v036
 BYTE   W06
 BYTE   En1  v058
 BYTE   W06
 BYTE   As1  v060
 BYTE   N03  En1  v081
 BYTE   W06
 BYTE   En1  v127
 BYTE   W06
//  #06 //026   ----------------------------------------
 BYTE   PATT
  POIN2 Label_01026D78
//  #06 //027   ----------------------------------------
 BYTE   N03  As1  v036
 BYTE   W06
 BYTE   En1  v082
 BYTE   W06
 BYTE   As1  v013
 BYTE   W06
 BYTE   Cn1  v097
 BYTE   W06
 BYTE   En1  v127
 BYTE   N03  As1  v060
 BYTE   W12
 BYTE   As1  v036
 BYTE   W06
 BYTE   Cn1  v097
 BYTE   W06
 BYTE   En1  v127
 BYTE   N03  As1  v013
 BYTE   W06
 BYTE   En1  v085
 BYTE   W06
 BYTE   En1  v058
 BYTE   N03  Cn1  v097
 BYTE   N03  As1  v060
 BYTE   W12
 BYTE   En1  v127
 BYTE   N03  As1  v036
 BYTE   W12
 BYTE   As1  v060
 BYTE   W12
//  #06 //028   ----------------------------------------
 BYTE   As1  v032
 BYTE   N06  Ds2  v029
 BYTE   N03  Cn1  v097
 BYTE   W06
 BYTE   As1  v011
 BYTE   N03  En1  v127
 BYTE   W06
 BYTE   As1  v031
 BYTE   N06  Ds2  v029
 BYTE   N03  Cn1  v097
 BYTE   W06
 BYTE   Cn1
 BYTE   W06
 BYTE   As1  v060
 BYTE   N06  Ds2  v085
 BYTE   N03  En1  v127
 BYTE   W12
 BYTE   As1  v032
 BYTE   N06  Ds2  v029
 BYTE   N03  Cn1  v097
 BYTE   W06
 BYTE   As1  v011
 BYTE   W06
 BYTE   As1  v031
 BYTE   N06  Ds2  v029
 BYTE   W06
 BYTE   N03  Cn1  v097
 BYTE   W06
 BYTE   N06  Ds2  v085
 BYTE   N03  As1  v060
 BYTE   N03  En1  v127
 BYTE   W12
 BYTE   As1  v032
 BYTE   N06  Ds2  v029
 BYTE   W06
 BYTE   N03  As1  v011
 BYTE   N03  En1  v127
 BYTE   W06
 BYTE   As1  v061
 BYTE   N06  Ds2  v085
 BYTE   W06
 BYTE   N03  Cn1  v097
 BYTE   W06
//  #06 //029   ----------------------------------------
 BYTE   As1  v033
 BYTE   N06  Ds2  v029
 BYTE   N03  Cn1  v097
 BYTE   W06
 BYTE   En1  v127
 BYTE   W06
 BYTE   N06  Ds2  v029
 BYTE   N03  As1  v032
 BYTE   N03  Cn1  v097
 BYTE   W06
 BYTE   As1  v011
 BYTE   N03  Cn1  v097
 BYTE   W06
 BYTE   As1  v061
 BYTE   N06  Ds2  v085
 BYTE   N03  En1  v127
 BYTE   W12
 BYTE   As1  v032
 BYTE   N06  Ds2  v029
 BYTE   N03  Cn1  v097
 BYTE   W06
 BYTE   As1  v011
 BYTE   W06
 BYTE   N06  Ds2  v029
 BYTE   N03  As1  v036
 BYTE   N03  Cn1  v097
 BYTE   W12
 BYTE   N06  Ds2  v085
 BYTE   N03  As1  v060
 BYTE   N03  En1  v127
 BYTE   W12
 BYTE   N06  Ds2  v029
 BYTE   N03  As1  v036
 BYTE   N03  En1  v127
 BYTE   W06
 BYTE   En1  v100
 BYTE   W06
 BYTE   N06  Ds2  v085
 BYTE   N03  As1  v060
 BYTE   N03  En1  v085
 BYTE   W06
 BYTE   En1  v064
 BYTE   N03  Cn1  v097
 BYTE   W06
//  #06 //030   ----------------------------------------
 BYTE   As1  v060
 BYTE   W06
 BYTE   En1  v064
 BYTE   W18
 BYTE   En1  v127
 BYTE   N03  Cn1  v097
 BYTE   N03  Ds1
 BYTE   N03  Dn1  v054
 BYTE   W12
 BYTE   Cn1  v097
 BYTE   W06
 BYTE   Cn1
 BYTE   W06
 BYTE   Cn1
 BYTE   N03  As1  v060
 BYTE   W18
 BYTE   Cn1  v097
 BYTE   N03  Ds1
 BYTE   W06
 BYTE   Dn1  v054
 BYTE   N03  En1  v095
 BYTE   N03  Cn1  v097
 BYTE   W06
 BYTE   As1  v060
 BYTE   N03  En1  v127
 BYTE   W06
 BYTE   Ds1  v097
 BYTE   W06
 BYTE   Cn1
 BYTE   W06
//  #06 //031   ----------------------------------------
 BYTE   As1  v060
 BYTE   W06
 BYTE   En1  v064
 BYTE   W18
 BYTE   Dn1  v054
 BYTE   N03  Cn1  v097
 BYTE   N03  En1  v127
 BYTE   N03  Ds1  v097
 BYTE   W12
 BYTE   Cn1
 BYTE   W06
 BYTE   Cn1
 BYTE   N03  En1  v065
 BYTE   W06
 BYTE   Cn1  v097
 BYTE   N03  As1  v060
 BYTE   N03  En1  v090
 BYTE   W06
 BYTE   En1  v063
 BYTE   W12
 BYTE   Ds1  v097
 BYTE   N03  Cn1
 BYTE   W06
 BYTE   Dn1  v054
 BYTE   N03  Cn1  v097
 BYTE   N03  En1  v095
 BYTE   W06
 BYTE   As1  v060
 BYTE   N03  En1  v061
 BYTE   W06
 BYTE   En1  v095
 BYTE   N03  Ds1  v097
 BYTE   W06
 BYTE   En1  v127
 BYTE   N03  Cn1  v097
 BYTE   W06
//  #06 //032   ----------------------------------------
 BYTE   As1  v060
 BYTE   W06
 BYTE   En1  v064
 BYTE   W18
 BYTE   Dn1  v054
 BYTE   N03  Cn1  v097
 BYTE   N03  En1  v127
 BYTE   N03  Ds1  v097
 BYTE   W12
 BYTE   Cn1
 BYTE   W06
 BYTE   Cn1
 BYTE   W06
 BYTE   As1  v060
 BYTE   N03  Cn1  v097
 BYTE   W18
 BYTE   Ds1
 BYTE   N03  Cn1
 BYTE   W06
 BYTE   Dn1  v054
 BYTE   N03  En1  v095
 BYTE   N03  Cn1  v097
 BYTE   W06
 BYTE   As1  v060
 BYTE   N03  En1  v127
 BYTE   W06
 BYTE   Ds1  v097
 BYTE   W06
 BYTE   Cn1
 BYTE   W06
//  #06 //033   ----------------------------------------
 BYTE   As1  v060
 BYTE   W06
 BYTE   En1  v064
 BYTE   W18
 BYTE   Dn1  v054
 BYTE   N03  Cn1  v097
 BYTE   N03  En1  v127
 BYTE   N03  Ds1  v097
 BYTE   W12
 BYTE   Cn1
 BYTE   W06
 BYTE   En1  v095
 BYTE   N03  Cn1  v097
 BYTE   W06
 BYTE   As1  v060
 BYTE   N03  Cn1  v097
 BYTE   W06
 BYTE   En1  v095
 BYTE   W06
 BYTE   En1  v061
 BYTE   W06
 BYTE   Ds1  v097
 BYTE   N03  Cn1
 BYTE   W06
 BYTE   Dn1  v054
 BYTE   N03  En1  v095
 BYTE   N03  Cn1  v097
 BYTE   W06
 BYTE   As1  v060
 BYTE   N03  En1  v061
 BYTE   W06
 BYTE   En1  v095
 BYTE   N03  Ds1  v097
 BYTE   W06
 BYTE   En1  v127
 BYTE   N03  Cn1  v097
 BYTE   W06
//  #06 //034   ----------------------------------------
 BYTE   As1  v060
 BYTE   W06
 BYTE   En1  v064
 BYTE   W18
 BYTE   Dn1  v054
 BYTE   N03  Cn1  v097
 BYTE   N03  En1  v127
 BYTE   N03  Ds1  v097
 BYTE   W12
 BYTE   Cn1
 BYTE   W06
 BYTE   Cn1
 BYTE   W06
 BYTE   Cn1
 BYTE   N03  As1  v060
 BYTE   W18
 BYTE   Cn1  v097
 BYTE   N03  Ds1
 BYTE   W06
 BYTE   Dn1  v054
 BYTE   N03  Cn1  v097
 BYTE   N03  En1  v095
 BYTE   W06
 BYTE   En1  v127
 BYTE   N03  As1  v060
 BYTE   W06
 BYTE   Ds1  v097
 BYTE   W06
 BYTE   Cn1
 BYTE   W06
//  #06 //035   ----------------------------------------
 BYTE   As1  v060
 BYTE   W06
 BYTE   En1  v064
 BYTE   W18
 BYTE   Dn1  v054
 BYTE   N03  Cn1  v097
 BYTE   N03  En1  v127
 BYTE   N03  Ds1  v097
 BYTE   W12
 BYTE   Cn1
 BYTE   W06
 BYTE   Cn1
 BYTE   N03  En1  v095
 BYTE   W06
 BYTE   As1  v060
 BYTE   N03  Cn1  v097
 BYTE   N03  En1  v127
 BYTE   W06
 BYTE   En1  v095
 BYTE   W12
 BYTE   Cn1  v097
 BYTE   N03  Ds1
 BYTE   W06
 BYTE   Dn1  v054
 BYTE   N03  En1  v095
 BYTE   N03  Cn1  v097
 BYTE   W06
 BYTE   En1  v061
 BYTE   N03  As1  v060
 BYTE   W06
 BYTE   Ds1  v097
 BYTE   N03  En1  v095
 BYTE   W06
 BYTE   En1  v127
 BYTE   N03  Cn1  v097
 BYTE   W06
//  #06 //036   ----------------------------------------
 BYTE   As1  v060
 BYTE   W06
 BYTE   En1  v064
 BYTE   W18
 BYTE   Dn1  v054
 BYTE   N03  Ds1  v097
 BYTE   N03  En1  v127
 BYTE   N03  Cn1  v097
 BYTE   W12
 BYTE   Cn1
 BYTE   W06
 BYTE   Cn1
 BYTE   W06
 BYTE   As1  v060
 BYTE   N03  Cn1  v097
 BYTE   W18
 BYTE   Ds1
 BYTE   N03  Cn1
 BYTE   W06
 BYTE   Dn1  v054
 BYTE   N03  Cn1  v097
 BYTE   N03  En1  v095
 BYTE   W06
 BYTE   En1  v127
 BYTE   N03  As1  v060
 BYTE   W06
 BYTE   Ds1  v097
 BYTE   W06
 BYTE   Cn1
 BYTE   W06
//  #06 //037   ----------------------------------------
Label_010271C3:
 BYTE   N03  As1  v060
 BYTE   W06
 BYTE   En1  v064
 BYTE   W18
 BYTE   Dn1  v054
 BYTE   N03  Ds1  v097
 BYTE   N03  En1  v127
 BYTE   N03  Cn1  v097
 BYTE   W12
 BYTE   Cn1
 BYTE   W06
 BYTE   En1  v095
 BYTE   N03  Cn1  v097
 BYTE   W06
 BYTE   En1  v127
 BYTE   N03  As1  v060
 BYTE   N03  Cn1  v097
 BYTE   W06
 BYTE   En1  v095
 BYTE   W06
 BYTE   En1  v061
 BYTE   W06
 BYTE   Ds1  v097
 BYTE   N03  Cn1
 BYTE   W06
 BYTE   Dn1  v054
 BYTE   N03  Cn1  v097
 BYTE   N03  En1  v127
 BYTE   W06
 BYTE   En1  v095
 BYTE   N03  As1  v060
 BYTE   W06
 BYTE   En1  v058
 BYTE   N03  Ds1  v097
 BYTE   W06
 BYTE   Cn1
 BYTE   W06
 BYTE   PEND 
//  #06 //038   ----------------------------------------
 BYTE   As1  v060
 BYTE   W06
 BYTE   En1  v064
 BYTE   W18
 BYTE   Ds1  v097
 BYTE   N03  En1  v127
 BYTE   N03  Cn1  v097
 BYTE   N03  Dn1  v054
 BYTE   W12
 BYTE   Cn1  v097
 BYTE   W06
 BYTE   Cn1
 BYTE   W06
 BYTE   Cn1
 BYTE   N03  As1  v060
 BYTE   W18
 BYTE   Cn1  v097
 BYTE   N03  Ds1
 BYTE   W06
 BYTE   Cn1
 BYTE   N03  En1  v095
 BYTE   N03  Dn1  v054
 BYTE   W06
 BYTE   As1  v060
 BYTE   N03  En1  v127
 BYTE   W06
 BYTE   Ds1  v097
 BYTE   W06
 BYTE   Cn1
 BYTE   W06
//  #06 //039   ----------------------------------------
 BYTE   As1  v060
 BYTE   W06
 BYTE   En1  v064
 BYTE   W18
 BYTE   Dn1  v054
 BYTE   N03  Cn1  v097
 BYTE   N03  En1  v127
 BYTE   N03  Ds1  v097
 BYTE   W12
 BYTE   Cn1
 BYTE   W06
 BYTE   En1  v065
 BYTE   N03  Cn1  v097
 BYTE   W06
 BYTE   En1  v090
 BYTE   N03  As1  v060
 BYTE   N03  Cn1  v097
 BYTE   W06
 BYTE   En1  v063
 BYTE   W12
 BYTE   Ds1  v097
 BYTE   N03  Cn1
 BYTE   W06
 BYTE   Dn1  v054
 BYTE   N03  En1  v095
 BYTE   N03  Cn1  v097
 BYTE   W06
 BYTE   En1  v061
 BYTE   N03  As1  v060
 BYTE   W06
 BYTE   En1  v095
 BYTE   N03  Ds1  v097
 BYTE   W06
 BYTE   En1  v127
 BYTE   N03  Cn1  v097
 BYTE   W06
//  #06 //040   ----------------------------------------
 BYTE   As1  v060
 BYTE   W06
 BYTE   En1  v064
 BYTE   W18
 BYTE   Dn1  v054
 BYTE   N03  Cn1  v097
 BYTE   N03  En1  v127
 BYTE   N03  Ds1  v097
 BYTE   W12
 BYTE   Cn1
 BYTE   W06
 BYTE   Cn1
 BYTE   W06
 BYTE   As1  v060
 BYTE   N03  Cn1  v097
 BYTE   W18
 BYTE   Ds1
 BYTE   N03  Cn1
 BYTE   W06
 BYTE   Dn1  v054
 BYTE   N03  En1  v095
 BYTE   N03  Cn1  v097
 BYTE   W06
 BYTE   En1  v127
 BYTE   N03  As1  v060
 BYTE   W06
 BYTE   Ds1  v097
 BYTE   W06
 BYTE   Cn1
 BYTE   W06
//  #06 //041   ----------------------------------------
 BYTE   As1  v060
 BYTE   W06
 BYTE   En1  v064
 BYTE   W18
 BYTE   Dn1  v054
 BYTE   N03  Cn1  v097
 BYTE   N03  En1  v127
 BYTE   N03  Ds1  v097
 BYTE   W12
 BYTE   Cn1
 BYTE   W06
 BYTE   En1  v095
 BYTE   N03  Cn1  v097
 BYTE   W06
 BYTE   En1  v127
 BYTE   N03  As1  v060
 BYTE   N03  Cn1  v097
 BYTE   W06
 BYTE   En1  v095
 BYTE   W06
 BYTE   En1  v061
 BYTE   W06
 BYTE   Ds1  v097
 BYTE   N03  Cn1
 BYTE   W06
 BYTE   Dn1  v054
 BYTE   N03  En1  v095
 BYTE   N03  Cn1  v097
 BYTE   W06
 BYTE   En1  v061
 BYTE   N03  As1  v060
 BYTE   W06
 BYTE   En1  v095
 BYTE   N03  Ds1  v097
 BYTE   W06
 BYTE   En1  v127
 BYTE   N03  Cn1  v097
 BYTE   W06
//  #06 //042   ----------------------------------------
 BYTE   As1  v060
 BYTE   W06
 BYTE   En1  v064
 BYTE   W18
 BYTE   Dn1  v054
 BYTE   N03  Ds1  v097
 BYTE   N03  En1  v127
 BYTE   N03  Cn1  v097
 BYTE   W12
 BYTE   Cn1
 BYTE   W06
 BYTE   Cn1
 BYTE   W06
 BYTE   Cn1
 BYTE   N03  As1  v060
 BYTE   W18
 BYTE   Ds1  v097
 BYTE   N03  Cn1
 BYTE   W06
 BYTE   Dn1  v054
 BYTE   N03  Cn1  v097
 BYTE   N03  En1  v095
 BYTE   W06
 BYTE   As1  v060
 BYTE   N03  En1  v127
 BYTE   W06
 BYTE   Ds1  v097
 BYTE   W06
 BYTE   Cn1
 BYTE   W06
//  #06 //043   ----------------------------------------
 BYTE   As1  v060
 BYTE   W06
 BYTE   En1  v064
 BYTE   W18
 BYTE   Dn1  v054
 BYTE   N03  Ds1  v097
 BYTE   N03  En1  v127
 BYTE   N03  Cn1  v097
 BYTE   W12
 BYTE   Cn1
 BYTE   W06
 BYTE   Cn1
 BYTE   N03  En1  v095
 BYTE   W06
 BYTE   As1  v060
 BYTE   N03  Cn1  v097
 BYTE   N03  En1  v127
 BYTE   W06
 BYTE   En1  v095
 BYTE   W12
 BYTE   Ds1  v097
 BYTE   N03  Cn1
 BYTE   W06
 BYTE   Dn1  v054
 BYTE   N03  En1  v095
 BYTE   N03  Cn1  v097
 BYTE   W06
 BYTE   En1  v061
 BYTE   N03  As1  v060
 BYTE   W06
 BYTE   En1  v095
 BYTE   N03  Ds1  v097
 BYTE   W06
 BYTE   En1  v127
 BYTE   N03  Cn1  v097
 BYTE   W06
//  #06 //044   ----------------------------------------
 BYTE   As1  v060
 BYTE   W06
 BYTE   En1  v064
 BYTE   W18
 BYTE   Dn1  v054
 BYTE   N03  Ds1  v097
 BYTE   N03  Cn1
 BYTE   N03  En1  v127
 BYTE   W12
 BYTE   Cn1  v097
 BYTE   W06
 BYTE   Cn1
 BYTE   W06
 BYTE   Cn1
 BYTE   N03  As1  v060
 BYTE   W18
 BYTE   Ds1  v097
 BYTE   N03  Cn1
 BYTE   W06
 BYTE   Dn1  v054
 BYTE   N03  Cn1  v097
 BYTE   N03  En1  v095
 BYTE   W06
 BYTE   As1  v060
 BYTE   N03  En1  v127
 BYTE   W06
 BYTE   Ds1  v097
 BYTE   W06
 BYTE   Cn1
 BYTE   W06
//  #06 //045   ----------------------------------------
 BYTE   PATT
  POIN2 Label_010271C3
//  #06 //046   ----------------------------------------
Label_010273B3:
 BYTE   N03  As1  v060
 BYTE   W06
 BYTE   En1  v064
 BYTE   W18
 BYTE   Dn1  v054
 BYTE   N03  Ds1  v097
 BYTE   N03  En1  v127
 BYTE   N03  Cn1  v097
 BYTE   W12
 BYTE   Cn1
 BYTE   W06
 BYTE   Cn1
 BYTE   W06
 BYTE   As1  v060
 BYTE   N03  Cn1  v097
 BYTE   W18
 BYTE   Cn1
 BYTE   N03  Ds1
 BYTE   W06
 BYTE   Dn1  v054
 BYTE   N03  En1  v095
 BYTE   N03  Cn1  v097
 BYTE   W06
 BYTE   En1  v127
 BYTE   N03  As1  v060
 BYTE   W06
 BYTE   Ds1  v097
 BYTE   W06
 BYTE   Cn1
 BYTE   W06
 BYTE   PEND 
//  #06 //047   ----------------------------------------
Label_010273E9:
 BYTE   N03  As1  v060
 BYTE   W06
 BYTE   En1  v064
 BYTE   W18
 BYTE   Dn1  v054
 BYTE   N03  Ds1  v097
 BYTE   N03  En1  v127
 BYTE   N03  Cn1  v097
 BYTE   W12
 BYTE   Cn1
 BYTE   W06
 BYTE   En1  v065
 BYTE   N03  Cn1  v097
 BYTE   W06
 BYTE   En1  v090
 BYTE   N03  As1  v060
 BYTE   N03  Cn1  v097
 BYTE   W06
 BYTE   En1  v063
 BYTE   W12
 BYTE   Cn1  v097
 BYTE   N03  Ds1
 BYTE   W06
 BYTE   Dn1  v054
 BYTE   N03  En1  v095
 BYTE   N03  Cn1  v097
 BYTE   W06
 BYTE   En1  v061
 BYTE   N03  As1  v060
 BYTE   W06
 BYTE   Ds1  v097
 BYTE   N03  En1  v095
 BYTE   W06
 BYTE   En1  v127
 BYTE   N03  Cn1  v097
 BYTE   W06
 BYTE   PEND 
//  #06 //048   ----------------------------------------
 BYTE   PATT
  POIN2 Label_010273B3
//  #06 //049   ----------------------------------------
Label_01027436:
 BYTE   N03  As1  v060
 BYTE   W06
 BYTE   En1  v064
 BYTE   W18
 BYTE   Dn1  v054
 BYTE   N03  Ds1  v097
 BYTE   N03  En1  v127
 BYTE   N03  Cn1  v097
 BYTE   W12
 BYTE   Cn1
 BYTE   W06
 BYTE   En1  v095
 BYTE   N03  Cn1  v097
 BYTE   W06
 BYTE   En1  v127
 BYTE   N03  As1  v060
 BYTE   N03  Cn1  v097
 BYTE   W06
 BYTE   En1  v095
 BYTE   W06
 BYTE   En1  v061
 BYTE   W06
 BYTE   Cn1  v097
 BYTE   N03  Ds1
 BYTE   W06
 BYTE   Dn1  v054
 BYTE   N03  En1  v095
 BYTE   N03  Cn1  v097
 BYTE   W06
 BYTE   En1  v061
 BYTE   N03  As1  v060
 BYTE   W06
 BYTE   Ds1  v097
 BYTE   N03  En1  v095
 BYTE   W06
 BYTE   En1  v127
 BYTE   N03  Cn1  v097
 BYTE   W06
 BYTE   PEND 
//  #06 //050   ----------------------------------------
 BYTE   As1  v060
 BYTE   W06
 BYTE   En1  v064
 BYTE   W18
 BYTE   Dn1  v054
 BYTE   N03  Ds1  v097
 BYTE   N03  En1  v127
 BYTE   N03  Cn1  v097
 BYTE   W12
 BYTE   Cn1
 BYTE   W06
 BYTE   Cn1
 BYTE   W06
 BYTE   Cn1
 BYTE   N03  As1  v060
 BYTE   W18
 BYTE   Cn1  v097
 BYTE   N03  Ds1
 BYTE   W06
 BYTE   Dn1  v054
 BYTE   N03  En1  v095
 BYTE   N03  Cn1  v097
 BYTE   W06
 BYTE   En1  v127
 BYTE   N03  As1  v060
 BYTE   W06
 BYTE   Ds1  v097
 BYTE   W06
 BYTE   Cn1
 BYTE   W06
//  #06 //051   ----------------------------------------
Label_010274B5:
 BYTE   N03  As1  v060
 BYTE   W06
 BYTE   En1  v064
 BYTE   W18
 BYTE   Dn1  v054
 BYTE   N03  Ds1  v097
 BYTE   N03  En1  v127
 BYTE   N03  Cn1  v097
 BYTE   W12
 BYTE   Cn1
 BYTE   W06
 BYTE   Cn1
 BYTE   N03  En1  v095
 BYTE   W06
 BYTE   As1  v060
 BYTE   N03  Cn1  v097
 BYTE   N03  En1  v127
 BYTE   W06
 BYTE   En1  v095
 BYTE   W12
 BYTE   Cn1  v097
 BYTE   N03  Ds1
 BYTE   W06
 BYTE   Dn1  v054
 BYTE   N03  Cn1  v097
 BYTE   N03  En1  v095
 BYTE   W06
 BYTE   En1  v061
 BYTE   N03  As1  v060
 BYTE   W06
 BYTE   Ds1  v097
 BYTE   N03  En1  v095
 BYTE   W06
 BYTE   En1  v127
 BYTE   N03  Cn1  v097
 BYTE   W06
 BYTE   PEND 
//  #06 //052   ----------------------------------------
 BYTE   PATT
  POIN2 Label_010273B3
//  #06 //053   ----------------------------------------
 BYTE   N03  As1  v060
 BYTE   W06
 BYTE   En1  v064
 BYTE   W18
 BYTE   Dn1  v054
 BYTE   N03  Ds1  v097
 BYTE   N03  En1  v127
 BYTE   N03  Cn1  v097
 BYTE   W12
 BYTE   Cn1
 BYTE   W06
 BYTE   En1  v095
 BYTE   N03  Cn1  v097
 BYTE   W06
 BYTE   En1  v127
 BYTE   N03  As1  v060
 BYTE   N03  Cn1  v097
 BYTE   W06
 BYTE   En1  v095
 BYTE   W06
 BYTE   En1  v061
 BYTE   W06
 BYTE   Cn1  v097
 BYTE   N03  Ds1
 BYTE   W06
 BYTE   Dn1  v054
 BYTE   N03  En1  v127
 BYTE   N03  Cn1  v097
 BYTE   W06
 BYTE   En1  v095
 BYTE   N03  As1  v060
 BYTE   W06
 BYTE   Ds1  v097
 BYTE   N03  En1  v058
 BYTE   W06
 BYTE   Cn1  v097
 BYTE   W06
//  #06 //054   ----------------------------------------
 BYTE   As1  v060
 BYTE   W06
 BYTE   En1  v064
 BYTE   W18
 BYTE   Cn1  v097
 BYTE   N03  En1  v127
 BYTE   N03  Ds1  v097
 BYTE   N03  Dn1  v054
 BYTE   W12
 BYTE   Cn1  v097
 BYTE   W06
 BYTE   Cn1
 BYTE   W06
 BYTE   Cn1
 BYTE   N03  As1  v060
 BYTE   W18
 BYTE   Ds1  v097
 BYTE   N03  Cn1
 BYTE   W06
 BYTE   Cn1
 BYTE   N03  En1  v095
 BYTE   N03  Dn1  v054
 BYTE   W06
 BYTE   As1  v060
 BYTE   N03  En1  v127
 BYTE   W06
 BYTE   Ds1  v097
 BYTE   W06
 BYTE   Cn1
 BYTE   W06
//  #06 //055   ----------------------------------------
 BYTE   PATT
  POIN2 Label_010273E9
//  #06 //056   ----------------------------------------
 BYTE   PATT
  POIN2 Label_010273B3
//  #06 //057   ----------------------------------------
 BYTE   PATT
  POIN2 Label_01027436
//  #06 //058   ----------------------------------------
 BYTE   N03  As1  v060
 BYTE   W06
 BYTE   En1  v064
 BYTE   W18
 BYTE   Dn1  v054
 BYTE   N03  Ds1  v097
 BYTE   N03  En1  v127
 BYTE   N03  Cn1  v097
 BYTE   W12
 BYTE   Cn1
 BYTE   W06
 BYTE   Cn1
 BYTE   W06
 BYTE   Cn1
 BYTE   N03  As1  v060
 BYTE   W18
 BYTE   Cn1  v097
 BYTE   N03  Ds1
 BYTE   W06
 BYTE   Dn1  v054
 BYTE   N03  En1  v095
 BYTE   N03  Cn1  v097
 BYTE   W06
 BYTE   As1  v060
 BYTE   N03  En1  v127
 BYTE   W06
 BYTE   Ds1  v097
 BYTE   W06
 BYTE   Cn1
 BYTE   W06
//  #06 //059   ----------------------------------------
 BYTE   PATT
  POIN2 Label_010274B5
//  #06 //060   ----------------------------------------
 BYTE   N03  As1  v060
 BYTE   W06
 BYTE   En1  v064
 BYTE   W18
 BYTE   Dn1  v054
 BYTE   N03  En1  v127
 BYTE   N03  Cn1  v097
 BYTE   N03  Ds1
 BYTE   W12
 BYTE   Cn1
 BYTE   W06
 BYTE   Cn1
 BYTE   W06
 BYTE   As1  v060
 BYTE   N03  Cn1  v097
 BYTE   W18
 BYTE   Ds1
 BYTE   N03  Cn1
 BYTE   W06
 BYTE   Dn1  v054
 BYTE   N03  En1  v095
 BYTE   N03  Cn1  v097
 BYTE   W06
 BYTE   As1  v060
 BYTE   N03  En1  v127
 BYTE   W06
 BYTE   Ds1  v097
 BYTE   W06
 BYTE   Cn1
 BYTE   W06
//  #06 //061   ----------------------------------------
 BYTE   As1  v060
 BYTE   W06
 BYTE   En1  v064
 BYTE   W18
 BYTE   Dn1  v054
 BYTE   N03  Cn1  v097
 BYTE   N03  En1  v127
 BYTE   N03  Ds1  v097
 BYTE   W12
 BYTE   Cn1
 BYTE   W06
 BYTE   Cn1
 BYTE   N03  En1  v095
 BYTE   W06
 BYTE   Cn1  v097
 BYTE   N03  As1  v060
 BYTE   N03  En1  v127
 BYTE   W06
 BYTE   En1  v095
 BYTE   W06
 BYTE   En1  v061
 BYTE   W06
 BYTE   Ds1  v097
 BYTE   N03  Cn1
 BYTE   W06
 BYTE   Dn1  v054
 BYTE   N03  En1  v127
 BYTE   N03  Cn1  v097
 BYTE   W06
 BYTE   As1  v060
 BYTE   N03  En1  v095
 BYTE   W06
 BYTE   En1  v058
 BYTE   N03  Ds1  v097
 BYTE   W06
 BYTE   Cn1
 BYTE   W06
//  #06 //062   ----------------------------------------
 BYTE   GoTo
  POIN2 Label_01026B2E
 BYTE   FINE

//******************************************************//
	ALIGN 4

StreetFighter33rdStikeJazzyNYC99AlexKenTak:
	BYTE	6	// NumTrks
	BYTE	0	// NumBlks
	BYTE	StreetFighter33rdStikeJazzyNYC99AlexKenTak_pri	// Priority
	BYTE	StreetFighter33rdStikeJazzyNYC99AlexKenTak_rev	// Reverb.
    
	POIN2	StreetFighter33rdStikeJazzyNYC99AlexKenTak_grp
    
	POIN2	StreetFighter33rdStikeJazzyNYC99AlexKenTak_001
	POIN2	StreetFighter33rdStikeJazzyNYC99AlexKenTak_002
	POIN2	StreetFighter33rdStikeJazzyNYC99AlexKenTak_003
	POIN2	StreetFighter33rdStikeJazzyNYC99AlexKenTak_004
	POIN2	StreetFighter33rdStikeJazzyNYC99AlexKenTak_005
	POIN2	StreetFighter33rdStikeJazzyNYC99AlexKenTak_006

	
