//Event file generated from Sappy .s format.
	#include "MPlayDef.event"

	#define	StreetFighter33rdStrikeTheLongshoremanSeanOroTak_grp  voicegroup000
	#define	StreetFighter33rdStrikeTheLongshoremanSeanOroTak_pri  0
	#define	StreetFighter33rdStrikeTheLongshoremanSeanOroTak_rev  0
	#define	StreetFighter33rdStrikeTheLongshoremanSeanOroTak_mvl  127
	#define	StreetFighter33rdStrikeTheLongshoremanSeanOroTak_key  0
	#define	StreetFighter33rdStrikeTheLongshoremanSeanOroTak_tbs  1
	#define	StreetFighter33rdStrikeTheLongshoremanSeanOroTak_exg  0
	#define	StreetFighter33rdStrikeTheLongshoremanSeanOroTak_cmp  1

	// .rodata
	//	StreetFighter33rdStrikeTheLongshoremanSeanOroTak
	ALIGN 4


//**************** Track 1 (Midi-Chn.0) ****************//

StreetFighter33rdStrikeTheLongshoremanSeanOroTak_001:
//  #01 //000   ----------------------------------------
 BYTE   KEYSH   StreetFighter33rdStrikeTheLongshoremanSeanOroTak_key+0
 BYTE   TEMPO   124*StreetFighter33rdStrikeTheLongshoremanSeanOroTak_tbs/2
 BYTE   VOICE   36
 BYTE   VOL   69*StreetFighter33rdStrikeTheLongshoremanSeanOroTak_mvl/mxv
 BYTE   BENDR  12
 BYTE   W48
 BYTE   N18  Dn1  v108
 BYTE   W18
 BYTE   N06  Cn1
 BYTE   W06
 BYTE   N24  Dn1
 BYTE   W24
//  #01 //001   ----------------------------------------
Label_01008071:
 BYTE   N12  Bn0  v108
 BYTE   W12
 BYTE   Dn1
 BYTE   W12
 BYTE   Bn0
 BYTE   W12
 BYTE   Cn1
 BYTE   W12
 BYTE   N18  Dn1
 BYTE   W18
 BYTE   N06  Cn1
 BYTE   W06
 BYTE   N24  Dn1
 BYTE   W24
 BYTE   PEND 
//  #01 //002   ----------------------------------------
Label_01008085:
 BYTE   N12  Bn0  v108
 BYTE   W12
 BYTE   Gn1
 BYTE   W12
 BYTE   N24  Fn1
 BYTE   W24
 BYTE   N18  Dn1
 BYTE   W18
 BYTE   N06  Cn1
 BYTE   W06
 BYTE   N24  Dn1
 BYTE   W24
 BYTE   PEND 
//  #01 //003   ----------------------------------------
 BYTE   PATT
  POIN2 Label_01008071
//  #01 //004   ----------------------------------------
 BYTE   PATT
  POIN2 Label_01008085
//  #01 //005   ----------------------------------------
 BYTE   PATT
  POIN2 Label_01008071
//  #01 //006   ----------------------------------------
 BYTE   PATT
  POIN2 Label_01008085
//  #01 //007   ----------------------------------------
 BYTE   PATT
  POIN2 Label_01008071
//  #01 //008   ----------------------------------------
 BYTE   N12  Bn0  v108
 BYTE   W12
 BYTE   Gn1
 BYTE   W12
 BYTE   N24  Fn1
 BYTE   W24
Label_010080BA:
 BYTE   N18  Dn1  v108
 BYTE   W18
 BYTE   N06  Cn1
 BYTE   W06
 BYTE   N24  Dn1
 BYTE   W24
//  #01 //009   ----------------------------------------
 BYTE   PATT
  POIN2 Label_01008071
//  #01 //010   ----------------------------------------
 BYTE   PATT
  POIN2 Label_01008085
//  #01 //011   ----------------------------------------
 BYTE   PATT
  POIN2 Label_01008071
//  #01 //012   ----------------------------------------
 BYTE   PATT
  POIN2 Label_01008085
//  #01 //013   ----------------------------------------
 BYTE   PATT
  POIN2 Label_01008071
//  #01 //014   ----------------------------------------
 BYTE   PATT
  POIN2 Label_01008085
//  #01 //015   ----------------------------------------
 BYTE   PATT
  POIN2 Label_01008071
//  #01 //016   ----------------------------------------
 BYTE   PATT
  POIN2 Label_01008085
//  #01 //017   ----------------------------------------
 BYTE   PATT
  POIN2 Label_01008071
//  #01 //018   ----------------------------------------
 BYTE   PATT
  POIN2 Label_01008085
//  #01 //019   ----------------------------------------
 BYTE   PATT
  POIN2 Label_01008071
//  #01 //020   ----------------------------------------
 BYTE   PATT
  POIN2 Label_01008085
//  #01 //021   ----------------------------------------
 BYTE   PATT
  POIN2 Label_01008071
//  #01 //022   ----------------------------------------
 BYTE   PATT
  POIN2 Label_01008085
//  #01 //023   ----------------------------------------
 BYTE   PATT
  POIN2 Label_01008071
//  #01 //024   ----------------------------------------
 BYTE   PATT
  POIN2 Label_01008085
//  #01 //025   ----------------------------------------
 BYTE   PATT
  POIN2 Label_01008071
//  #01 //026   ----------------------------------------
 BYTE   PATT
  POIN2 Label_01008085
//  #01 //027   ----------------------------------------
 BYTE   PATT
  POIN2 Label_01008071
//  #01 //028   ----------------------------------------
 BYTE   PATT
  POIN2 Label_01008085
//  #01 //029   ----------------------------------------
 BYTE   PATT
  POIN2 Label_01008071
//  #01 //030   ----------------------------------------
 BYTE   PATT
  POIN2 Label_01008085
//  #01 //031   ----------------------------------------
 BYTE   PATT
  POIN2 Label_01008071
//  #01 //032   ----------------------------------------
 BYTE   PATT
  POIN2 Label_01008085
//  #01 //033   ----------------------------------------
 BYTE   PATT
  POIN2 Label_01008071
//  #01 //034   ----------------------------------------
 BYTE   PATT
  POIN2 Label_01008085
//  #01 //035   ----------------------------------------
 BYTE   PATT
  POIN2 Label_01008071
//  #01 //036   ----------------------------------------
 BYTE   PATT
  POIN2 Label_01008085
//  #01 //037   ----------------------------------------
 BYTE   PATT
  POIN2 Label_01008071
//  #01 //038   ----------------------------------------
 BYTE   PATT
  POIN2 Label_01008085
//  #01 //039   ----------------------------------------
 BYTE   PATT
  POIN2 Label_01008071
//  #01 //040   ----------------------------------------
 BYTE   PATT
  POIN2 Label_01008085
//  #01 //041   ----------------------------------------
 BYTE   PATT
  POIN2 Label_01008071
//  #01 //042   ----------------------------------------
 BYTE   PATT
  POIN2 Label_01008085
//  #01 //043   ----------------------------------------
 BYTE   PATT
  POIN2 Label_01008071
//  #01 //044   ----------------------------------------
 BYTE   PATT
  POIN2 Label_01008085
//  #01 //045   ----------------------------------------
 BYTE   PATT
  POIN2 Label_01008071
//  #01 //046   ----------------------------------------
 BYTE   N12  Bn0  v108
 BYTE   W12
 BYTE   Gn1
 BYTE   W12
 BYTE   N24  Fn1
 BYTE   W24
 BYTE   N18  Dn1
 BYTE   W48
//  #01 //047   ----------------------------------------
 BYTE   W96
//  #01 //048   ----------------------------------------
 BYTE   W48
 BYTE   Dn1
 BYTE   W18
 BYTE   N06  Cn1
 BYTE   W06
 BYTE   N24  Dn1
 BYTE   W24
//  #01 //049   ----------------------------------------
 BYTE   PATT
  POIN2 Label_01008071
//  #01 //050   ----------------------------------------
 BYTE   PATT
  POIN2 Label_01008085
//  #01 //051   ----------------------------------------
 BYTE   PATT
  POIN2 Label_01008071
//  #01 //052   ----------------------------------------
 BYTE   PATT
  POIN2 Label_01008085
//  #01 //053   ----------------------------------------
 BYTE   PATT
  POIN2 Label_01008071
//  #01 //054   ----------------------------------------
 BYTE   PATT
  POIN2 Label_01008085
//  #01 //055   ----------------------------------------
 BYTE   PATT
  POIN2 Label_01008071
//  #01 //056   ----------------------------------------
 BYTE   PATT
  POIN2 Label_01008085
//  #01 //057   ----------------------------------------
 BYTE   PATT
  POIN2 Label_01008071
//  #01 //058   ----------------------------------------
 BYTE   PATT
  POIN2 Label_01008085
//  #01 //059   ----------------------------------------
 BYTE   PATT
  POIN2 Label_01008071
//  #01 //060   ----------------------------------------
 BYTE   PATT
  POIN2 Label_01008085
//  #01 //061   ----------------------------------------
 BYTE   PATT
  POIN2 Label_01008071
//  #01 //062   ----------------------------------------
 BYTE   PATT
  POIN2 Label_01008085
//  #01 //063   ----------------------------------------
 BYTE   PATT
  POIN2 Label_01008071
//  #01 //064   ----------------------------------------
 BYTE   PATT
  POIN2 Label_01008085
//  #01 //065   ----------------------------------------
 BYTE   PATT
  POIN2 Label_01008071
//  #01 //066   ----------------------------------------
 BYTE   PATT
  POIN2 Label_01008085
//  #01 //067   ----------------------------------------
 BYTE   PATT
  POIN2 Label_01008071
//  #01 //068   ----------------------------------------
 BYTE   PATT
  POIN2 Label_01008085
//  #01 //069   ----------------------------------------
 BYTE   PATT
  POIN2 Label_01008071
//  #01 //070   ----------------------------------------
 BYTE   PATT
  POIN2 Label_01008085
//  #01 //071   ----------------------------------------
 BYTE   PATT
  POIN2 Label_01008071
//  #01 //072   ----------------------------------------
 BYTE   N12  Bn0  v108
 BYTE   W12
 BYTE   Gn1
 BYTE   W12
 BYTE   N24  Fn1
 BYTE   W18
 BYTE   GoTo
  POIN2 Label_010080BA
//  #01 //073   ----------------------------------------
 BYTE   W54
 BYTE   FINE

//**************** Track 2 (Midi-Chn.1) ****************//

StreetFighter33rdStrikeTheLongshoremanSeanOroTak_002:
//  #02 //000   ----------------------------------------
 BYTE   KEYSH   StreetFighter33rdStrikeTheLongshoremanSeanOroTak_key+0
 BYTE   VOICE   94
 BYTE   VOL   22*StreetFighter33rdStrikeTheLongshoremanSeanOroTak_mvl/mxv
 BYTE   PAN   c_v+30
 BYTE   BENDR  12
 BYTE   W48
 BYTE   TIE  Dn3  v108
 BYTE   TIE  Dn2
 BYTE   W48
//  #02 //001   ----------------------------------------
Label_01003D61:
 BYTE   W48
 BYTE   N96  Dn4  v059
 BYTE   W48
 BYTE   PEND 
//  #02 //002   ----------------------------------------
Label_01003D67:
 BYTE   W48
 BYTE   EOT
 BYTE   Dn2  v062
 BYTE   TIE  Dn4  v108
 BYTE   TIE  Dn3
 BYTE   W48
 BYTE   PEND 
//  #02 //003   ----------------------------------------
 BYTE   Dn5  v059
 BYTE   W96
//  #02 //004   ----------------------------------------
Label_01003D75:
 BYTE   W48
 BYTE   EOT
 BYTE   Dn3  v074
 BYTE   Dn5
 BYTE   TIE  Dn3  v108
 BYTE   TIE  Dn2
 BYTE   W48
 BYTE   PEND 
//  #02 //005   ----------------------------------------
 BYTE   PATT
  POIN2 Label_01003D61
//  #02 //006   ----------------------------------------
 BYTE   PATT
  POIN2 Label_01003D67
//  #02 //007   ----------------------------------------
 BYTE   TIE  Dn5  v059
 BYTE   W96
//  #02 //008   ----------------------------------------
 BYTE   W48
 BYTE   EOT
 BYTE   Dn3  v074
 BYTE   Dn5
Label_01003D94:
 BYTE   W48
//  #02 //009   ----------------------------------------
 BYTE   W96
//  #02 //010   ----------------------------------------
 BYTE   W96
//  #02 //011   ----------------------------------------
 BYTE   W96
//  #02 //012   ----------------------------------------
 BYTE   W96
//  #02 //013   ----------------------------------------
 BYTE   W96
//  #02 //014   ----------------------------------------
 BYTE   W96
//  #02 //015   ----------------------------------------
 BYTE   W96
//  #02 //016   ----------------------------------------
 BYTE   W96
//  #02 //017   ----------------------------------------
 BYTE   W96
//  #02 //018   ----------------------------------------
 BYTE   W96
//  #02 //019   ----------------------------------------
 BYTE   W96
//  #02 //020   ----------------------------------------
 BYTE   W96
//  #02 //021   ----------------------------------------
 BYTE   W96
//  #02 //022   ----------------------------------------
 BYTE   W96
//  #02 //023   ----------------------------------------
 BYTE   W96
//  #02 //024   ----------------------------------------
Label_01003DA4:
 BYTE   W48
 BYTE   TIE  Dn3  v108
 BYTE   TIE  Dn2
 BYTE   W48
 BYTE   PEND 
//  #02 //025   ----------------------------------------
 BYTE   PATT
  POIN2 Label_01003D61
//  #02 //026   ----------------------------------------
 BYTE   PATT
  POIN2 Label_01003D67
//  #02 //027   ----------------------------------------
 BYTE   TIE  Dn5  v059
 BYTE   W96
//  #02 //028   ----------------------------------------
 BYTE   PATT
  POIN2 Label_01003D75
//  #02 //029   ----------------------------------------
 BYTE   PATT
  POIN2 Label_01003D61
//  #02 //030   ----------------------------------------
 BYTE   PATT
  POIN2 Label_01003D67
//  #02 //031   ----------------------------------------
 BYTE   TIE  Dn5  v059
 BYTE   W96
//  #02 //032   ----------------------------------------
 BYTE   W48
 BYTE   EOT
 BYTE   Dn3  v074
 BYTE   Dn5
 BYTE   W48
//  #02 //033   ----------------------------------------
 BYTE   W96
//  #02 //034   ----------------------------------------
 BYTE   W96
//  #02 //035   ----------------------------------------
 BYTE   W96
//  #02 //036   ----------------------------------------
 BYTE   W96
//  #02 //037   ----------------------------------------
 BYTE   W96
//  #02 //038   ----------------------------------------
 BYTE   W96
//  #02 //039   ----------------------------------------
 BYTE   W96
//  #02 //040   ----------------------------------------
 BYTE   W96
//  #02 //041   ----------------------------------------
 BYTE   W96
//  #02 //042   ----------------------------------------
 BYTE   W96
//  #02 //043   ----------------------------------------
 BYTE   W96
//  #02 //044   ----------------------------------------
 BYTE   W96
//  #02 //045   ----------------------------------------
 BYTE   W96
//  #02 //046   ----------------------------------------
 BYTE   W96
//  #02 //047   ----------------------------------------
 BYTE   W96
//  #02 //048   ----------------------------------------
 BYTE   W96
//  #02 //049   ----------------------------------------
 BYTE   W96
//  #02 //050   ----------------------------------------
 BYTE   W96
//  #02 //051   ----------------------------------------
 BYTE   W96
//  #02 //052   ----------------------------------------
 BYTE   W96
//  #02 //053   ----------------------------------------
 BYTE   W96
//  #02 //054   ----------------------------------------
 BYTE   W96
//  #02 //055   ----------------------------------------
 BYTE   W96
//  #02 //056   ----------------------------------------
 BYTE   W96
//  #02 //057   ----------------------------------------
 BYTE   W96
//  #02 //058   ----------------------------------------
 BYTE   W96
//  #02 //059   ----------------------------------------
 BYTE   W96
//  #02 //060   ----------------------------------------
 BYTE   W96
//  #02 //061   ----------------------------------------
 BYTE   W96
//  #02 //062   ----------------------------------------
 BYTE   W96
//  #02 //063   ----------------------------------------
 BYTE   W96
//  #02 //064   ----------------------------------------
 BYTE   PATT
  POIN2 Label_01003DA4
//  #02 //065   ----------------------------------------
 BYTE   PATT
  POIN2 Label_01003D61
//  #02 //066   ----------------------------------------
 BYTE   PATT
  POIN2 Label_01003D67
//  #02 //067   ----------------------------------------
 BYTE   TIE  Dn5  v059
 BYTE   W96
//  #02 //068   ----------------------------------------
 BYTE   PATT
  POIN2 Label_01003D75
//  #02 //069   ----------------------------------------
 BYTE   PATT
  POIN2 Label_01003D61
//  #02 //070   ----------------------------------------
 BYTE   PATT
  POIN2 Label_01003D67
//  #02 //071   ----------------------------------------
 BYTE   TIE  Dn5  v059
 BYTE   W96
//  #02 //072   ----------------------------------------
 BYTE   W42
 BYTE   GoTo
  POIN2 Label_01003D94
//  #02 //073   ----------------------------------------
 BYTE   W06
 BYTE   EOT
 BYTE   Dn3  v074
 BYTE   Dn5
 BYTE   W48
 BYTE   FINE

//**************** Track 3 (Midi-Chn.2) ****************//

StreetFighter33rdStrikeTheLongshoremanSeanOroTak_003:
//  #03 //000   ----------------------------------------
 BYTE   KEYSH   StreetFighter33rdStrikeTheLongshoremanSeanOroTak_key+0
 BYTE   VOICE   59
 BYTE   VOL   72*StreetFighter33rdStrikeTheLongshoremanSeanOroTak_mvl/mxv
 BYTE   PAN   c_v+12
 BYTE   BENDR  12
 BYTE   W96
//  #03 //001   ----------------------------------------
 BYTE   W96
//  #03 //002   ----------------------------------------
 BYTE   W96
//  #03 //003   ----------------------------------------
 BYTE   W96
//  #03 //004   ----------------------------------------
 BYTE   W96
//  #03 //005   ----------------------------------------
 BYTE   W96
//  #03 //006   ----------------------------------------
 BYTE   W96
//  #03 //007   ----------------------------------------
 BYTE   W96
//  #03 //008   ----------------------------------------
 BYTE   W48
Label_01008417:
 BYTE   N04  Fn3  v112
 BYTE   W06
 BYTE   N06  En3
 BYTE   W12
 BYTE   Dn3
 BYTE   W30
//  #03 //009   ----------------------------------------
Label_01008420:
 BYTE   W12
 BYTE   N06  An2  v112
 BYTE   W12
 BYTE   N04  Cn3
 BYTE   W06
 BYTE   N06  Dn3
 BYTE   W12
 BYTE   An2
 BYTE   W12
 BYTE   Cn3
 BYTE   W12
 BYTE   Dn3
 BYTE   W30
 BYTE   PEND 
//  #03 //010   ----------------------------------------
Label_01008432:
 BYTE   W48
 BYTE   N04  Fn3  v112
 BYTE   W06
 BYTE   N06  En3
 BYTE   W12
 BYTE   Dn3
 BYTE   W30
 BYTE   PEND 
//  #03 //011   ----------------------------------------
Label_0100843D:
 BYTE   W12
 BYTE   N06  An2  v112
 BYTE   W12
 BYTE   N04  Cn3
 BYTE   W06
 BYTE   N06  Dn3
 BYTE   W12
 BYTE   Dn3
 BYTE   W12
 BYTE   Dn3
 BYTE   W12
 BYTE   Dn3
 BYTE   W30
 BYTE   PEND 
//  #03 //012   ----------------------------------------
 BYTE   PATT
  POIN2 Label_01008432
//  #03 //013   ----------------------------------------
 BYTE   PATT
  POIN2 Label_01008420
//  #03 //014   ----------------------------------------
 BYTE   PATT
  POIN2 Label_01008432
//  #03 //015   ----------------------------------------
 BYTE   PATT
  POIN2 Label_0100843D
//  #03 //016   ----------------------------------------
 BYTE   PATT
  POIN2 Label_01008432
//  #03 //017   ----------------------------------------
 BYTE   PATT
  POIN2 Label_01008420
//  #03 //018   ----------------------------------------
 BYTE   PATT
  POIN2 Label_01008432
//  #03 //019   ----------------------------------------
 BYTE   PATT
  POIN2 Label_0100843D
//  #03 //020   ----------------------------------------
 BYTE   PATT
  POIN2 Label_01008432
//  #03 //021   ----------------------------------------
 BYTE   PATT
  POIN2 Label_01008420
//  #03 //022   ----------------------------------------
 BYTE   PATT
  POIN2 Label_01008432
//  #03 //023   ----------------------------------------
 BYTE   PATT
  POIN2 Label_0100843D
//  #03 //024   ----------------------------------------
 BYTE   W96
//  #03 //025   ----------------------------------------
 BYTE   W96
//  #03 //026   ----------------------------------------
 BYTE   W96
//  #03 //027   ----------------------------------------
 BYTE   W96
//  #03 //028   ----------------------------------------
 BYTE   W96
//  #03 //029   ----------------------------------------
 BYTE   W96
//  #03 //030   ----------------------------------------
 BYTE   W96
//  #03 //031   ----------------------------------------
 BYTE   W96
//  #03 //032   ----------------------------------------
 BYTE   PATT
  POIN2 Label_01008432
//  #03 //033   ----------------------------------------
 BYTE   PATT
  POIN2 Label_01008420
//  #03 //034   ----------------------------------------
 BYTE   PATT
  POIN2 Label_01008432
//  #03 //035   ----------------------------------------
 BYTE   PATT
  POIN2 Label_0100843D
//  #03 //036   ----------------------------------------
 BYTE   PATT
  POIN2 Label_01008432
//  #03 //037   ----------------------------------------
 BYTE   PATT
  POIN2 Label_01008420
//  #03 //038   ----------------------------------------
 BYTE   PATT
  POIN2 Label_01008432
//  #03 //039   ----------------------------------------
 BYTE   PATT
  POIN2 Label_0100843D
//  #03 //040   ----------------------------------------
 BYTE   PATT
  POIN2 Label_01008432
//  #03 //041   ----------------------------------------
 BYTE   PATT
  POIN2 Label_01008420
//  #03 //042   ----------------------------------------
 BYTE   PATT
  POIN2 Label_01008432
//  #03 //043   ----------------------------------------
 BYTE   PATT
  POIN2 Label_0100843D
//  #03 //044   ----------------------------------------
 BYTE   PATT
  POIN2 Label_01008432
//  #03 //045   ----------------------------------------
 BYTE   PATT
  POIN2 Label_01008420
//  #03 //046   ----------------------------------------
 BYTE   PATT
  POIN2 Label_01008432
//  #03 //047   ----------------------------------------
 BYTE   PATT
  POIN2 Label_0100843D
//  #03 //048   ----------------------------------------
Label_010084E3:
 BYTE   W72
 BYTE   N06  An2  v112
 BYTE   W06
 BYTE   Cn3
 BYTE   W06
 BYTE   Dn3
 BYTE   W12
 BYTE   PEND 
//  #03 //049   ----------------------------------------
Label_010084ED:
 BYTE   N06  Dn3  v112
 BYTE   W12
 BYTE   Cn3
 BYTE   W12
 BYTE   Dn3
 BYTE   W12
 BYTE   En3
 BYTE   W12
 BYTE   N24  Gn3
 BYTE   W24
 BYTE   En3
 BYTE   W24
 BYTE   PEND 
//  #03 //050   ----------------------------------------
Label_010084FD:
 BYTE   N24  Dn3  v112
 BYTE   W24
 BYTE   Cn3
 BYTE   W48
 BYTE   N06  An2
 BYTE   W06
 BYTE   Cn3
 BYTE   W06
 BYTE   Dn3
 BYTE   W12
 BYTE   PEND 
//  #03 //051   ----------------------------------------
Label_0100850B:
 BYTE   N06  Dn3  v112
 BYTE   W12
 BYTE   Cn3
 BYTE   W12
 BYTE   Dn3
 BYTE   W12
 BYTE   En3
 BYTE   W12
 BYTE   N12  Gn3
 BYTE   W18
 BYTE   N06
 BYTE   W18
 BYTE   N60  An3
 BYTE   W12
 BYTE   PEND 
//  #03 //052   ----------------------------------------
 BYTE   PATT
  POIN2 Label_010084E3
//  #03 //053   ----------------------------------------
 BYTE   PATT
  POIN2 Label_010084ED
//  #03 //054   ----------------------------------------
 BYTE   PATT
  POIN2 Label_010084FD
//  #03 //055   ----------------------------------------
 BYTE   PATT
  POIN2 Label_0100850B
//  #03 //056   ----------------------------------------
 BYTE   PATT
  POIN2 Label_010084E3
//  #03 //057   ----------------------------------------
 BYTE   PATT
  POIN2 Label_010084ED
//  #03 //058   ----------------------------------------
 BYTE   PATT
  POIN2 Label_010084FD
//  #03 //059   ----------------------------------------
 BYTE   PATT
  POIN2 Label_0100850B
//  #03 //060   ----------------------------------------
 BYTE   PATT
  POIN2 Label_010084E3
//  #03 //061   ----------------------------------------
 BYTE   PATT
  POIN2 Label_010084ED
//  #03 //062   ----------------------------------------
 BYTE   PATT
  POIN2 Label_010084FD
//  #03 //063   ----------------------------------------
 BYTE   PATT
  POIN2 Label_0100850B
//  #03 //064   ----------------------------------------
 BYTE   W96
//  #03 //065   ----------------------------------------
 BYTE   W96
//  #03 //066   ----------------------------------------
 BYTE   W96
//  #03 //067   ----------------------------------------
 BYTE   W96
//  #03 //068   ----------------------------------------
 BYTE   W96
//  #03 //069   ----------------------------------------
 BYTE   W96
//  #03 //070   ----------------------------------------
 BYTE   W96
//  #03 //071   ----------------------------------------
 BYTE   W96
//  #03 //072   ----------------------------------------
 BYTE   W42
 BYTE   GoTo
  POIN2 Label_01008417
//  #03 //073   ----------------------------------------
 BYTE   W54
 BYTE   VOICE   57
 BYTE   FINE

//**************** Track 4 (Midi-Chn.3) ****************//

StreetFighter33rdStrikeTheLongshoremanSeanOroTak_004:
//  #04 //000   ----------------------------------------
 BYTE   KEYSH   StreetFighter33rdStrikeTheLongshoremanSeanOroTak_key+0
 BYTE   VOICE   18
 BYTE   VOL   23*StreetFighter33rdStrikeTheLongshoremanSeanOroTak_mvl/mxv
 BYTE   BENDR  12
 BYTE   PAN   c_v-32
 BYTE   W96
//  #04 //001   ----------------------------------------
 BYTE   W96
//  #04 //002   ----------------------------------------
 BYTE   W96
//  #04 //003   ----------------------------------------
 BYTE   W96
//  #04 //004   ----------------------------------------
 BYTE   W96
//  #04 //005   ----------------------------------------
 BYTE   W96
//  #04 //006   ----------------------------------------
 BYTE   W96
//  #04 //007   ----------------------------------------
 BYTE   W96
//  #04 //008   ----------------------------------------
 BYTE   W48
Label_01003EDB:
 BYTE   N12  En4  v085
 BYTE   N12  An3
 BYTE   N12  Dn4
 BYTE   N12  An4
 BYTE   W18
 BYTE   En4
 BYTE   N12  An3
 BYTE   N12  Dn4
 BYTE   N12  An4
 BYTE   W18
 BYTE   En4
 BYTE   N12  An3
 BYTE   N12  Dn4
 BYTE   N12  An4
 BYTE   W12
//  #04 //009   ----------------------------------------
Label_01003EF5:
 BYTE   W06
 BYTE   N12  En4  v085
 BYTE   N12  An3
 BYTE   N12  Dn4
 BYTE   N12  An4
 BYTE   W18
 BYTE   En4
 BYTE   N12  An3
 BYTE   N12  Dn4
 BYTE   N12  An4
 BYTE   W24
 BYTE   En4
 BYTE   N12  An3
 BYTE   N12  An4
 BYTE   N12  Dn4
 BYTE   W18
 BYTE   En4
 BYTE   N12  An3
 BYTE   N12  An4
 BYTE   N12  Dn4
 BYTE   W18
 BYTE   En4
 BYTE   N12  An3
 BYTE   N12  An4
 BYTE   N12  Dn4
 BYTE   W12
 BYTE   PEND 
//  #04 //010   ----------------------------------------
Label_01003F21:
 BYTE   N24  Cn4  v085
 BYTE   N24  Cn5
 BYTE   N24  Gn4
 BYTE   N24  Dn4
 BYTE   W24
 BYTE   Bn3
 BYTE   N24  Bn4
 BYTE   N24  Gn4
 BYTE   N24  Dn4
 BYTE   W24
 BYTE   N12  En4
 BYTE   N12  An3
 BYTE   N12  Dn4
 BYTE   N12  An4
 BYTE   W18
 BYTE   En4
 BYTE   N12  An3
 BYTE   N12  Dn4
 BYTE   N12  An4
 BYTE   W18
 BYTE   En4
 BYTE   N12  An3
 BYTE   N12  Dn4
 BYTE   N12  An4
 BYTE   W12
 BYTE   PEND 
//  #04 //011   ----------------------------------------
 BYTE   PATT
  POIN2 Label_01003EF5
//  #04 //012   ----------------------------------------
Label_01003F52:
 BYTE   N24  Cn5  v085
 BYTE   N24  Cn4
 BYTE   N24  Gs4
 BYTE   N24  Fn4
 BYTE   W24
 BYTE   Dn4
 BYTE   N24  Dn5
 BYTE   N24  Bn4
 BYTE   N24  Fn4
 BYTE   W24
 BYTE   N12  En4
 BYTE   N12  An3
 BYTE   N12  Dn4
 BYTE   N12  An4
 BYTE   W18
 BYTE   En4
 BYTE   N12  An3
 BYTE   N12  Dn4
 BYTE   N12  An4
 BYTE   W18
 BYTE   En4
 BYTE   N12  An3
 BYTE   N12  Dn4
 BYTE   N12  An4
 BYTE   W12
 BYTE   PEND 
//  #04 //013   ----------------------------------------
 BYTE   PATT
  POIN2 Label_01003EF5
//  #04 //014   ----------------------------------------
 BYTE   PATT
  POIN2 Label_01003F21
//  #04 //015   ----------------------------------------
 BYTE   PATT
  POIN2 Label_01003EF5
//  #04 //016   ----------------------------------------
 BYTE   PATT
  POIN2 Label_01003F52
//  #04 //017   ----------------------------------------
 BYTE   PATT
  POIN2 Label_01003EF5
//  #04 //018   ----------------------------------------
 BYTE   PATT
  POIN2 Label_01003F21
//  #04 //019   ----------------------------------------
 BYTE   PATT
  POIN2 Label_01003EF5
//  #04 //020   ----------------------------------------
 BYTE   PATT
  POIN2 Label_01003F52
//  #04 //021   ----------------------------------------
 BYTE   PATT
  POIN2 Label_01003EF5
//  #04 //022   ----------------------------------------
 BYTE   PATT
  POIN2 Label_01003F21
//  #04 //023   ----------------------------------------
 BYTE   PATT
  POIN2 Label_01003EF5
//  #04 //024   ----------------------------------------
 BYTE   N24  Cn5  v085
 BYTE   N24  Cn4
 BYTE   N24  Gs4
 BYTE   N24  Fn4
 BYTE   W24
 BYTE   Dn4
 BYTE   N24  Dn5
 BYTE   N24  Bn4
 BYTE   N24  Fn4
 BYTE   W72
//  #04 //025   ----------------------------------------
 BYTE   W96
//  #04 //026   ----------------------------------------
 BYTE   W96
//  #04 //027   ----------------------------------------
 BYTE   W96
//  #04 //028   ----------------------------------------
 BYTE   W96
//  #04 //029   ----------------------------------------
 BYTE   W96
//  #04 //030   ----------------------------------------
 BYTE   W96
//  #04 //031   ----------------------------------------
 BYTE   W96
//  #04 //032   ----------------------------------------
 BYTE   W48
 BYTE   N12  En4
 BYTE   N12  An3
 BYTE   N12  Dn4
 BYTE   N12  An4
 BYTE   W18
 BYTE   En4
 BYTE   N12  An3
 BYTE   N12  Dn4
 BYTE   N12  An4
 BYTE   W18
 BYTE   En4
 BYTE   N12  An3
 BYTE   N12  Dn4
 BYTE   N12  An4
 BYTE   W12
//  #04 //033   ----------------------------------------
 BYTE   PATT
  POIN2 Label_01003EF5
//  #04 //034   ----------------------------------------
 BYTE   PATT
  POIN2 Label_01003F21
//  #04 //035   ----------------------------------------
 BYTE   PATT
  POIN2 Label_01003EF5
//  #04 //036   ----------------------------------------
 BYTE   PATT
  POIN2 Label_01003F52
//  #04 //037   ----------------------------------------
 BYTE   PATT
  POIN2 Label_01003EF5
//  #04 //038   ----------------------------------------
 BYTE   PATT
  POIN2 Label_01003F21
//  #04 //039   ----------------------------------------
 BYTE   PATT
  POIN2 Label_01003EF5
//  #04 //040   ----------------------------------------
 BYTE   PATT
  POIN2 Label_01003F52
//  #04 //041   ----------------------------------------
 BYTE   PATT
  POIN2 Label_01003EF5
//  #04 //042   ----------------------------------------
 BYTE   PATT
  POIN2 Label_01003F21
//  #04 //043   ----------------------------------------
 BYTE   PATT
  POIN2 Label_01003EF5
//  #04 //044   ----------------------------------------
 BYTE   PATT
  POIN2 Label_01003F52
//  #04 //045   ----------------------------------------
 BYTE   PATT
  POIN2 Label_01003EF5
//  #04 //046   ----------------------------------------
 BYTE   N24  Cn4  v085
 BYTE   N24  Cn5
 BYTE   N24  Gn4
 BYTE   N24  Dn4
 BYTE   W24
 BYTE   Bn3
 BYTE   N24  Bn4
 BYTE   N24  Gn4
 BYTE   N24  Dn4
 BYTE   W72
//  #04 //047   ----------------------------------------
 BYTE   W96
//  #04 //048   ----------------------------------------
Label_0100403C:
 BYTE   W48
 BYTE   N96  An3  v085
 BYTE   N96  En4
 BYTE   N96  An4
 BYTE   N96  Cn4
 BYTE   W48
 BYTE   PEND 
//  #04 //049   ----------------------------------------
Label_01004048:
 BYTE   W48
 BYTE   N96  Bn3  v085
 BYTE   N96  Gn4
 BYTE   N96  Bn4
 BYTE   N96  Dn4
 BYTE   W48
 BYTE   PEND 
//  #04 //050   ----------------------------------------
Label_01004054:
 BYTE   W48
 BYTE   N96  Fn4  v085
 BYTE   N96  Cn4
 BYTE   N96  An4
 BYTE   N96  Cn5
 BYTE   W48
 BYTE   PEND 
//  #04 //051   ----------------------------------------
 BYTE   PATT
  POIN2 Label_01004048
//  #04 //052   ----------------------------------------
 BYTE   PATT
  POIN2 Label_0100403C
//  #04 //053   ----------------------------------------
 BYTE   PATT
  POIN2 Label_01004048
//  #04 //054   ----------------------------------------
 BYTE   PATT
  POIN2 Label_01004054
//  #04 //055   ----------------------------------------
 BYTE   PATT
  POIN2 Label_01004048
//  #04 //056   ----------------------------------------
 BYTE   PATT
  POIN2 Label_0100403C
//  #04 //057   ----------------------------------------
 BYTE   PATT
  POIN2 Label_01004048
//  #04 //058   ----------------------------------------
 BYTE   PATT
  POIN2 Label_01004054
//  #04 //059   ----------------------------------------
 BYTE   PATT
  POIN2 Label_01004048
//  #04 //060   ----------------------------------------
 BYTE   PATT
  POIN2 Label_0100403C
//  #04 //061   ----------------------------------------
 BYTE   PATT
  POIN2 Label_01004048
//  #04 //062   ----------------------------------------
 BYTE   PATT
  POIN2 Label_01004054
//  #04 //063   ----------------------------------------
 BYTE   PATT
  POIN2 Label_01004048
//  #04 //064   ----------------------------------------
 BYTE   W96
//  #04 //065   ----------------------------------------
 BYTE   W96
//  #04 //066   ----------------------------------------
 BYTE   W96
//  #04 //067   ----------------------------------------
 BYTE   W96
//  #04 //068   ----------------------------------------
 BYTE   W96
//  #04 //069   ----------------------------------------
 BYTE   W96
//  #04 //070   ----------------------------------------
 BYTE   W96
//  #04 //071   ----------------------------------------
 BYTE   W96
//  #04 //072   ----------------------------------------
 BYTE   W42
 BYTE   GoTo
  POIN2 Label_01003EDB
//  #04 //073   ----------------------------------------
 BYTE   W54
 BYTE   VOICE   16
 BYTE   FINE

//**************** Track 5 (Midi-Chn.4) ****************//

StreetFighter33rdStrikeTheLongshoremanSeanOroTak_005:
//  #05 //000   ----------------------------------------
 BYTE   KEYSH   StreetFighter33rdStrikeTheLongshoremanSeanOroTak_key+0
 BYTE   VOICE   42
 BYTE   VOL   22*StreetFighter33rdStrikeTheLongshoremanSeanOroTak_mvl/mxv
 BYTE   BENDR  12
 BYTE   PAN   c_v+32
 BYTE   W96
//  #05 //001   ----------------------------------------
 BYTE   W96
//  #05 //002   ----------------------------------------
 BYTE   W96
//  #05 //003   ----------------------------------------
 BYTE   W96
//  #05 //004   ----------------------------------------
 BYTE   W96
//  #05 //005   ----------------------------------------
 BYTE   W96
//  #05 //006   ----------------------------------------
 BYTE   W96
//  #05 //007   ----------------------------------------
 BYTE   W96
//  #05 //008   ----------------------------------------
 BYTE   W48
Label_010005E3:
 BYTE   W48
//  #05 //009   ----------------------------------------
 BYTE   W96
//  #05 //010   ----------------------------------------
 BYTE   W96
//  #05 //011   ----------------------------------------
 BYTE   W96
//  #05 //012   ----------------------------------------
 BYTE   W96
//  #05 //013   ----------------------------------------
 BYTE   W96
//  #05 //014   ----------------------------------------
 BYTE   W96
//  #05 //015   ----------------------------------------
 BYTE   W96
//  #05 //016   ----------------------------------------
 BYTE   W96
//  #05 //017   ----------------------------------------
 BYTE   W96
//  #05 //018   ----------------------------------------
 BYTE   W96
//  #05 //019   ----------------------------------------
 BYTE   W96
//  #05 //020   ----------------------------------------
 BYTE   W96
//  #05 //021   ----------------------------------------
 BYTE   W96
//  #05 //022   ----------------------------------------
 BYTE   W96
//  #05 //023   ----------------------------------------
 BYTE   W96
//  #05 //024   ----------------------------------------
 BYTE   W96
//  #05 //025   ----------------------------------------
 BYTE   W96
//  #05 //026   ----------------------------------------
 BYTE   W96
//  #05 //027   ----------------------------------------
 BYTE   W96
//  #05 //028   ----------------------------------------
 BYTE   W96
//  #05 //029   ----------------------------------------
 BYTE   W96
//  #05 //030   ----------------------------------------
 BYTE   W96
//  #05 //031   ----------------------------------------
 BYTE   W96
//  #05 //032   ----------------------------------------
 BYTE   W96
//  #05 //033   ----------------------------------------
 BYTE   W96
//  #05 //034   ----------------------------------------
 BYTE   W96
//  #05 //035   ----------------------------------------
 BYTE   W96
//  #05 //036   ----------------------------------------
 BYTE   W96
//  #05 //037   ----------------------------------------
 BYTE   W96
//  #05 //038   ----------------------------------------
 BYTE   W96
//  #05 //039   ----------------------------------------
 BYTE   W96
//  #05 //040   ----------------------------------------
 BYTE   W96
//  #05 //041   ----------------------------------------
 BYTE   W96
//  #05 //042   ----------------------------------------
 BYTE   W96
//  #05 //043   ----------------------------------------
 BYTE   W96
//  #05 //044   ----------------------------------------
 BYTE   W96
//  #05 //045   ----------------------------------------
 BYTE   W96
//  #05 //046   ----------------------------------------
 BYTE   W96
//  #05 //047   ----------------------------------------
 BYTE   W96
//  #05 //048   ----------------------------------------
 BYTE   W48
 BYTE   TIE  En5  v085
 BYTE   W48
//  #05 //049   ----------------------------------------
 BYTE   W96
//  #05 //050   ----------------------------------------
Label_01000611:
 BYTE   W36
 BYTE   EOT
 BYTE   En5
 BYTE   N06  Gn5  v085
 BYTE   W06
 BYTE   Fn5
 BYTE   W06
 BYTE   TIE  En5
 BYTE   W48
 BYTE   PEND 
//  #05 //051   ----------------------------------------
 BYTE   W96
//  #05 //052   ----------------------------------------
Label_0100061F:
 BYTE   EOT
 BYTE   En5
 BYTE   N48  Dn5  v085
 BYTE   W48
 BYTE   TIE  En5
 BYTE   W48
 BYTE   PEND 
//  #05 //053   ----------------------------------------
 BYTE   W96
//  #05 //054   ----------------------------------------
 BYTE   PATT
  POIN2 Label_01000611
//  #05 //055   ----------------------------------------
 BYTE   W96
//  #05 //056   ----------------------------------------
 BYTE   EOT
 BYTE   En5
 BYTE   N48  Gn5  v085
 BYTE   W48
 BYTE   TIE  En5
 BYTE   W48
//  #05 //057   ----------------------------------------
 BYTE   W96
//  #05 //058   ----------------------------------------
 BYTE   PATT
  POIN2 Label_01000611
//  #05 //059   ----------------------------------------
 BYTE   W96
//  #05 //060   ----------------------------------------
 BYTE   PATT
  POIN2 Label_0100061F
//  #05 //061   ----------------------------------------
 BYTE   W96
//  #05 //062   ----------------------------------------
 BYTE   PATT
  POIN2 Label_01000611
//  #05 //063   ----------------------------------------
 BYTE   W96
//  #05 //064   ----------------------------------------
 BYTE   EOT
 BYTE   En5
 BYTE   N48  Gn5  v085
 BYTE   W96
//  #05 //065   ----------------------------------------
 BYTE   W96
//  #05 //066   ----------------------------------------
 BYTE   W96
//  #05 //067   ----------------------------------------
 BYTE   W96
//  #05 //068   ----------------------------------------
 BYTE   W96
//  #05 //069   ----------------------------------------
 BYTE   W96
//  #05 //070   ----------------------------------------
 BYTE   W96
//  #05 //071   ----------------------------------------
 BYTE   W96
//  #05 //072   ----------------------------------------
 BYTE   W42
 BYTE   GoTo
  POIN2 Label_010005E3
//  #05 //073   ----------------------------------------
 BYTE   W54
 BYTE   VOICE   40
 BYTE   FINE

//**************** Track 6 (Midi-Chn.5) ****************//

StreetFighter33rdStrikeTheLongshoremanSeanOroTak_006:
//  #06 //000   ----------------------------------------
 BYTE   KEYSH   StreetFighter33rdStrikeTheLongshoremanSeanOroTak_key+0
 BYTE   VOICE   104
 BYTE   VOL   36*StreetFighter33rdStrikeTheLongshoremanSeanOroTak_mvl/mxv
 BYTE   BENDR  12
 BYTE   PAN   c_v-25
 BYTE   W96
//  #06 //001   ----------------------------------------
 BYTE   W96
//  #06 //002   ----------------------------------------
 BYTE   W96
//  #06 //003   ----------------------------------------
 BYTE   W96
//  #06 //004   ----------------------------------------
 BYTE   W96
//  #06 //005   ----------------------------------------
 BYTE   W96
//  #06 //006   ----------------------------------------
 BYTE   W96
//  #06 //007   ----------------------------------------
 BYTE   W96
//  #06 //008   ----------------------------------------
 BYTE   W48
Label_01003037:
 BYTE   W48
//  #06 //009   ----------------------------------------
 BYTE   W96
//  #06 //010   ----------------------------------------
 BYTE   W96
//  #06 //011   ----------------------------------------
 BYTE   W96
//  #06 //012   ----------------------------------------
 BYTE   W96
//  #06 //013   ----------------------------------------
 BYTE   W96
//  #06 //014   ----------------------------------------
 BYTE   W96
//  #06 //015   ----------------------------------------
 BYTE   W96
//  #06 //016   ----------------------------------------
 BYTE   W96
//  #06 //017   ----------------------------------------
 BYTE   W96
//  #06 //018   ----------------------------------------
 BYTE   W96
//  #06 //019   ----------------------------------------
 BYTE   W96
//  #06 //020   ----------------------------------------
 BYTE   W96
//  #06 //021   ----------------------------------------
 BYTE   W96
//  #06 //022   ----------------------------------------
 BYTE   W96
//  #06 //023   ----------------------------------------
 BYTE   W96
//  #06 //024   ----------------------------------------
 BYTE   W96
//  #06 //025   ----------------------------------------
 BYTE   W96
//  #06 //026   ----------------------------------------
 BYTE   W96
//  #06 //027   ----------------------------------------
 BYTE   W96
//  #06 //028   ----------------------------------------
 BYTE   W96
//  #06 //029   ----------------------------------------
 BYTE   W96
//  #06 //030   ----------------------------------------
 BYTE   W96
//  #06 //031   ----------------------------------------
 BYTE   W96
//  #06 //032   ----------------------------------------
 BYTE   W96
//  #06 //033   ----------------------------------------
 BYTE   W96
//  #06 //034   ----------------------------------------
 BYTE   W96
//  #06 //035   ----------------------------------------
 BYTE   W96
//  #06 //036   ----------------------------------------
 BYTE   W96
//  #06 //037   ----------------------------------------
 BYTE   W96
//  #06 //038   ----------------------------------------
 BYTE   W96
//  #06 //039   ----------------------------------------
 BYTE   W96
//  #06 //040   ----------------------------------------
 BYTE   W96
//  #06 //041   ----------------------------------------
 BYTE   W96
//  #06 //042   ----------------------------------------
 BYTE   W96
//  #06 //043   ----------------------------------------
 BYTE   W96
//  #06 //044   ----------------------------------------
 BYTE   W96
//  #06 //045   ----------------------------------------
 BYTE   W96
//  #06 //046   ----------------------------------------
 BYTE   W96
//  #06 //047   ----------------------------------------
 BYTE   W96
//  #06 //048   ----------------------------------------
 BYTE   W60
 BYTE   N12  An3  v085
 BYTE   W32
 BYTE   W03
 BYTE   PAN   c_v+25
 BYTE   W01
//  #06 //049   ----------------------------------------
Label_01003068:
 BYTE   N12  An2  v085
 BYTE   W32
 BYTE   W03
 BYTE   PAN   c_v-25
 BYTE   W01
 BYTE   N12  An3
 BYTE   W24
 BYTE   An3
 BYTE   W32
 BYTE   W03
 BYTE   PAN   c_v+25
 BYTE   W01
 BYTE   PEND 
//  #06 //050   ----------------------------------------
 BYTE   PATT
  POIN2 Label_01003068
//  #06 //051   ----------------------------------------
 BYTE   PATT
  POIN2 Label_01003068
//  #06 //052   ----------------------------------------
 BYTE   PATT
  POIN2 Label_01003068
//  #06 //053   ----------------------------------------
 BYTE   PATT
  POIN2 Label_01003068
//  #06 //054   ----------------------------------------
 BYTE   PATT
  POIN2 Label_01003068
//  #06 //055   ----------------------------------------
 BYTE   PATT
  POIN2 Label_01003068
//  #06 //056   ----------------------------------------
 BYTE   PATT
  POIN2 Label_01003068
//  #06 //057   ----------------------------------------
 BYTE   PATT
  POIN2 Label_01003068
//  #06 //058   ----------------------------------------
 BYTE   PATT
  POIN2 Label_01003068
//  #06 //059   ----------------------------------------
 BYTE   PATT
  POIN2 Label_01003068
//  #06 //060   ----------------------------------------
 BYTE   PATT
  POIN2 Label_01003068
//  #06 //061   ----------------------------------------
 BYTE   PATT
  POIN2 Label_01003068
//  #06 //062   ----------------------------------------
 BYTE   PATT
  POIN2 Label_01003068
//  #06 //063   ----------------------------------------
 BYTE   PATT
  POIN2 Label_01003068
//  #06 //064   ----------------------------------------
 BYTE   N12  An2  v085
 BYTE   W32
 BYTE   W03
 BYTE   PAN   c_v-25
 BYTE   W01
 BYTE   N12  An3
 BYTE   W60
//  #06 //065   ----------------------------------------
 BYTE   W96
//  #06 //066   ----------------------------------------
 BYTE   W96
//  #06 //067   ----------------------------------------
 BYTE   W96
//  #06 //068   ----------------------------------------
 BYTE   W96
//  #06 //069   ----------------------------------------
 BYTE   W96
//  #06 //070   ----------------------------------------
 BYTE   W96
//  #06 //071   ----------------------------------------
 BYTE   W96
//  #06 //072   ----------------------------------------
 BYTE   W42
 BYTE   GoTo
  POIN2 Label_01003037
//  #06 //073   ----------------------------------------
 BYTE   W54
 BYTE   VOICE   98
 BYTE   FINE

//**************** Track 7 (Midi-Chn.6) ****************//

StreetFighter33rdStrikeTheLongshoremanSeanOroTak_007:
//  #07 //000   ----------------------------------------
 BYTE   KEYSH   StreetFighter33rdStrikeTheLongshoremanSeanOroTak_key+0
 BYTE   VOICE   124
 BYTE   VOL   41*StreetFighter33rdStrikeTheLongshoremanSeanOroTak_mvl/mxv
 BYTE   BENDR  12
 BYTE   W48
 BYTE   N03  As3  v108
 BYTE   N03  Gs1  v111
 BYTE   W12
 BYTE   Gs1  v059
 BYTE   W12
 BYTE   Gs1  v058
 BYTE   W12
 BYTE   Gs1  v127
 BYTE   W12
//  #07 //001   ----------------------------------------
Label_01008F49:
 BYTE   N03  Gs1  v059
 BYTE   W12
 BYTE   Gs1
 BYTE   W12
 BYTE   Gs1  v127
 BYTE   W12
 BYTE   Gs1  v059
 BYTE   W12
 BYTE   As3  v108
 BYTE   N03  Gs1  v111
 BYTE   W12
 BYTE   Gs1  v059
 BYTE   W12
 BYTE   Gs1  v058
 BYTE   W12
 BYTE   Gs1  v127
 BYTE   W12
 BYTE   PEND 
//  #07 //002   ----------------------------------------
 BYTE   PATT
  POIN2 Label_01008F49
//  #07 //003   ----------------------------------------
 BYTE   PATT
  POIN2 Label_01008F49
//  #07 //004   ----------------------------------------
 BYTE   N03  Gs1  v036
 BYTE   W12
 BYTE   Gs1
 BYTE   W12
 BYTE   Gs1  v127
 BYTE   W12
 BYTE   Gs1  v059
 BYTE   W12
 BYTE   As3  v108
 BYTE   N03  Gs1  v111
 BYTE   W12
 BYTE   Gs1  v059
 BYTE   W12
 BYTE   Gs1  v058
 BYTE   W12
 BYTE   Gs1  v127
 BYTE   W12
//  #07 //005   ----------------------------------------
 BYTE   PATT
  POIN2 Label_01008F49
//  #07 //006   ----------------------------------------
 BYTE   PATT
  POIN2 Label_01008F49
//  #07 //007   ----------------------------------------
 BYTE   N03  Gs1  v059
 BYTE   W12
 BYTE   Gs1
 BYTE   W12
 BYTE   Gs1  v127
 BYTE   W12
 BYTE   Gs1  v059
 BYTE   W12
 BYTE   As3  v108
 BYTE   N03  Gs1  v111
 BYTE   W12
 BYTE   Gs1  v059
 BYTE   W12
 BYTE   Gs1  v058
 BYTE   W12
 BYTE   Gs1  v127
 BYTE   W06
 BYTE   Cn1  v081
 BYTE   W06
//  #07 //008   ----------------------------------------
 BYTE   Dn1  v074
 BYTE   N03  En1  v111
 BYTE   N03  Gs1  v059
 BYTE   N03  Cs2  v127
 BYTE   N03  Fs0  v064
 BYTE   W06
 BYTE   En1  v111
 BYTE   N03  Fn0  v025
 BYTE   N03  Dn1  v074
 BYTE   W06
 BYTE   Cn1  v081
 BYTE   N03  Fs0  v061
 BYTE   N03  Gs1  v059
 BYTE   W06
 BYTE   En1  v111
 BYTE   N03  Fn0  v028
 BYTE   N03  Dn1  v074
 BYTE   W06
 BYTE   Dn1
 BYTE   N03  Fn0  v043
 BYTE   N03  En1  v111
 BYTE   N03  Gs1  v127
 BYTE   N03  An2
 BYTE   W06
 BYTE   Cn1  v081
 BYTE   N03  Fs0  v065
 BYTE   W06
 BYTE   Dn1  v074
 BYTE   N03  Fn0  v043
 BYTE   N03  En1  v111
 BYTE   N03  Gs1  v059
 BYTE   W12
Label_01008FFB:
 BYTE   N03  Cn1  v081
 BYTE   N03  Cs2  v127
 BYTE   N03  Fs0  v065
 BYTE   W06
 BYTE   Fn0  v031
 BYTE   W06
 BYTE   Gs1  v059
 BYTE   N03  Fs0  v065
 BYTE   W06
 BYTE   Cn1  v081
 BYTE   N03  Fn0  v033
 BYTE   W06
 BYTE   Dn1  v074
 BYTE   N03  En1  v111
 BYTE   N03  Gs1  v059
 BYTE   N03  Fs0  v065
 BYTE   W06
 BYTE   Fn0  v033
 BYTE   W06
 BYTE   Fs0  v065
 BYTE   N03  Gs1  v059
 BYTE   W06
 BYTE   Fn0  v031
 BYTE   W06
//  #07 //009   ----------------------------------------
Label_0100902C:
 BYTE   N03  Gs1  v059
 BYTE   N03  Fs0  v065
 BYTE   N03  Cn1  v081
 BYTE   W06
 BYTE   Fn0  v031
 BYTE   W06
 BYTE   As1  v085
 BYTE   N03  Fs0  v065
 BYTE   W06
 BYTE   Fn0  v033
 BYTE   W06
 BYTE   Gs1  v059
 BYTE   N03  En1  v111
 BYTE   N03  Dn1  v074
 BYTE   N03  Fs0  v065
 BYTE   W06
 BYTE   Fn0  v033
 BYTE   W06
 BYTE   Gs1  v059
 BYTE   N03  Fs0  v065
 BYTE   W06
 BYTE   Fn0  v031
 BYTE   W06
 BYTE   Gs1  v059
 BYTE   N03  Fs0  v065
 BYTE   N03  Cn1  v081
 BYTE   W06
 BYTE   Fn0  v031
 BYTE   W06
 BYTE   Gs1  v059
 BYTE   N03  Fs0  v065
 BYTE   W06
 BYTE   Fn0  v033
 BYTE   N03  Cn1  v081
 BYTE   W06
 BYTE   Fs0  v065
 BYTE   N03  En1  v111
 BYTE   N03  Dn1  v074
 BYTE   N03  Gs1  v059
 BYTE   W06
 BYTE   Fn0  v033
 BYTE   W06
 BYTE   Gs1  v059
 BYTE   N03  Fs0  v065
 BYTE   W06
 BYTE   Fn0  v031
 BYTE   W06
 BYTE   PEND 
//  #07 //010   ----------------------------------------
Label_0100908B:
 BYTE   N03  Fn0  v065
 BYTE   N03  Ds0  v127
 BYTE   N03  As1  v085
 BYTE   N03  Cn1  v081
 BYTE   W06
 BYTE   Fn0  v031
 BYTE   W06
 BYTE   Gs1  v059
 BYTE   N03  Fs0  v065
 BYTE   W06
 BYTE   Fn0
 BYTE   N03  Ds0  v127
 BYTE   W06
 BYTE   En1  v111
 BYTE   N03  Dn1  v074
 BYTE   N03  Fs0  v065
 BYTE   N03  As1  v085
 BYTE   W06
 BYTE   Fn0  v033
 BYTE   W06
 BYTE   Fs0  v065
 BYTE   N03  Gs1  v059
 BYTE   W06
 BYTE   Fn0  v031
 BYTE   W06
 BYTE   Cn1  v081
 BYTE   N03  Fs0  v065
 BYTE   W06
 BYTE   Fn0  v031
 BYTE   W06
 BYTE   Gs1  v059
 BYTE   N03  Fs0  v065
 BYTE   W06
 BYTE   Cn1  v081
 BYTE   N03  Fn0  v033
 BYTE   W06
 BYTE   Dn1  v074
 BYTE   N03  En1  v111
 BYTE   N03  Gs1  v059
 BYTE   N03  Fs0  v065
 BYTE   W06
 BYTE   Fn0  v033
 BYTE   W06
 BYTE   Gs1  v059
 BYTE   N03  Fs0  v065
 BYTE   W06
 BYTE   Fn0  v031
 BYTE   W06
 BYTE   PEND 
//  #07 //011   ----------------------------------------
Label_010090EC:
 BYTE   N03  Cn1  v081
 BYTE   N03  Fs0  v065
 BYTE   N03  Gs1  v059
 BYTE   W06
 BYTE   Fn0  v031
 BYTE   W06
 BYTE   Fs0  v065
 BYTE   N03  As1  v085
 BYTE   W06
 BYTE   Fn0  v033
 BYTE   W06
 BYTE   Fs0  v065
 BYTE   N03  Dn1  v074
 BYTE   N03  En1  v111
 BYTE   N03  Gs1  v059
 BYTE   W06
 BYTE   Fn0  v033
 BYTE   W06
 BYTE   Fs0  v065
 BYTE   N03  Gs1  v059
 BYTE   W06
 BYTE   Fn0  v031
 BYTE   W06
 BYTE   Cn1  v081
 BYTE   N03  Fs0  v065
 BYTE   N03  Gs1  v059
 BYTE   W06
 BYTE   Fn0  v031
 BYTE   W06
 BYTE   Fs0  v065
 BYTE   N03  Gs1  v059
 BYTE   W06
 BYTE   Cn1  v081
 BYTE   N03  Fn0  v033
 BYTE   W06
 BYTE   Gs1  v059
 BYTE   N03  Dn1  v074
 BYTE   N03  En1  v111
 BYTE   N03  Fs0  v065
 BYTE   W06
 BYTE   Fn0  v033
 BYTE   W06
 BYTE   Fs0  v065
 BYTE   N03  Gs1  v059
 BYTE   W06
 BYTE   Fn0  v031
 BYTE   W06
 BYTE   PEND 
//  #07 //012   ----------------------------------------
Label_0100914B:
 BYTE   N03  Cn1  v081
 BYTE   N03  As1  v085
 BYTE   N03  Ds0  v127
 BYTE   N03  Fn0  v065
 BYTE   W06
 BYTE   Fn0  v031
 BYTE   W06
 BYTE   Fs0  v065
 BYTE   N03  Gs1  v059
 BYTE   W06
 BYTE   Fn0  v065
 BYTE   N03  Ds0  v127
 BYTE   W06
 BYTE   As1  v085
 BYTE   N03  Fs0  v065
 BYTE   N03  Dn1  v074
 BYTE   N03  En1  v111
 BYTE   W06
 BYTE   Fn0  v033
 BYTE   W06
 BYTE   Fs0  v065
 BYTE   N03  Gs1  v059
 BYTE   W06
 BYTE   Fn0  v031
 BYTE   W06
 BYTE   Cn1  v081
 BYTE   N03  Fs0  v065
 BYTE   W06
 BYTE   Fn0  v031
 BYTE   W06
 BYTE   Gs1  v059
 BYTE   N03  Fs0  v065
 BYTE   W06
 BYTE   Cn1  v081
 BYTE   N03  Fn0  v033
 BYTE   W06
 BYTE   Dn1  v074
 BYTE   N03  En1  v111
 BYTE   N03  Gs1  v059
 BYTE   N03  Fs0  v065
 BYTE   W06
 BYTE   Fn0  v033
 BYTE   W06
 BYTE   Gs1  v059
 BYTE   N03  Fs0  v065
 BYTE   W06
 BYTE   Fn0  v031
 BYTE   W06
 BYTE   PEND 
//  #07 //013   ----------------------------------------
 BYTE   PATT
  POIN2 Label_010090EC
//  #07 //014   ----------------------------------------
Label_010091B2:
 BYTE   N03  Cn1  v081
 BYTE   N03  As1  v085
 BYTE   N03  Ds0  v127
 BYTE   N03  Fn0  v065
 BYTE   W06
 BYTE   Fn0  v031
 BYTE   W06
 BYTE   Fs0  v065
 BYTE   N03  Gs1  v059
 BYTE   W06
 BYTE   Ds0  v127
 BYTE   N03  Fn0  v065
 BYTE   W06
 BYTE   Dn1  v074
 BYTE   N03  En1  v111
 BYTE   N03  As1  v085
 BYTE   N03  Fs0  v065
 BYTE   W06
 BYTE   Fn0  v033
 BYTE   W06
 BYTE   Fs0  v065
 BYTE   N03  Gs1  v059
 BYTE   W06
 BYTE   Fn0  v031
 BYTE   W06
 BYTE   Cn1  v081
 BYTE   N03  Fs0  v065
 BYTE   W06
 BYTE   Fn0  v031
 BYTE   W06
 BYTE   Gs1  v059
 BYTE   N03  Fs0  v065
 BYTE   W06
 BYTE   Cn1  v081
 BYTE   N03  Fn0  v033
 BYTE   W06
 BYTE   Dn1  v074
 BYTE   N03  En1  v111
 BYTE   N03  Gs1  v059
 BYTE   N03  Fs0  v065
 BYTE   W06
 BYTE   Fn0  v033
 BYTE   W06
 BYTE   Gs1  v059
 BYTE   N03  Fs0  v065
 BYTE   W06
 BYTE   Fn0  v031
 BYTE   W06
 BYTE   PEND 
//  #07 //015   ----------------------------------------
Label_01009214:
 BYTE   N03  Cn1  v081
 BYTE   N03  Fs0  v065
 BYTE   N03  Gs1  v059
 BYTE   W06
 BYTE   Fn0  v031
 BYTE   W06
 BYTE   Fs0  v065
 BYTE   N03  As1  v085
 BYTE   W06
 BYTE   Fn0  v033
 BYTE   W06
 BYTE   Fs0  v065
 BYTE   N03  Dn1  v074
 BYTE   N03  En1  v111
 BYTE   N03  Gs1  v059
 BYTE   W06
 BYTE   Fn0  v033
 BYTE   W06
 BYTE   Fs0  v065
 BYTE   N03  Gs1  v059
 BYTE   W06
 BYTE   Fn0  v031
 BYTE   W06
 BYTE   Cn1  v081
 BYTE   N03  Fs0  v065
 BYTE   N03  Gs1  v059
 BYTE   W06
 BYTE   Fn0  v031
 BYTE   W06
 BYTE   Fs0  v065
 BYTE   N03  Gs1  v059
 BYTE   W06
 BYTE   Cn1  v081
 BYTE   N03  Fn0  v033
 BYTE   W06
 BYTE   Gs1  v059
 BYTE   N03  Dn1  v074
 BYTE   N03  En1  v111
 BYTE   N03  Fs0  v065
 BYTE   W06
 BYTE   Fn0  v033
 BYTE   W06
 BYTE   Gs1  v059
 BYTE   N03  Fs0  v065
 BYTE   W06
 BYTE   Fn0  v031
 BYTE   N03  Dn1  v074
 BYTE   N03  En1  v111
 BYTE   W06
 BYTE   PEND 
//  #07 //016   ----------------------------------------
Label_01009279:
 BYTE   N03  Cn1  v081
 BYTE   N03  Fn0  v065
 BYTE   N03  Ds0  v127
 BYTE   N03  As1  v085
 BYTE   W06
 BYTE   Fn0  v031
 BYTE   N03  En1  v111
 BYTE   N03  Dn1  v074
 BYTE   W06
 BYTE   En1  v111
 BYTE   N03  Dn1  v074
 BYTE   N03  Gs1  v059
 BYTE   N03  Fs0  v065
 BYTE   W06
 BYTE   Ds0  v127
 BYTE   N03  Fn0  v065
 BYTE   N03  Dn1  v074
 BYTE   N03  En1  v111
 BYTE   W06
 BYTE   As1  v085
 BYTE   N03  Fs0  v065
 BYTE   W06
 BYTE   Fn0  v033
 BYTE   N03  Cn1  v081
 BYTE   W06
 BYTE   En1  v111
 BYTE   N03  Dn1  v074
 BYTE   N03  Gs1  v059
 BYTE   N03  Fs0  v065
 BYTE   W06
 BYTE   Fn0  v031
 BYTE   W06
 BYTE   Cn1  v081
 BYTE   N03  Fs0  v065
 BYTE   N03  Cs2  v127
 BYTE   W06
 BYTE   Fn0  v031
 BYTE   W06
 BYTE   Gs1  v059
 BYTE   N03  Fs0  v065
 BYTE   W06
 BYTE   Cn1  v081
 BYTE   N03  Fn0  v033
 BYTE   W06
 BYTE   Dn1  v074
 BYTE   N03  En1  v111
 BYTE   N03  Gs1  v059
 BYTE   N03  Fs0  v065
 BYTE   W06
 BYTE   Fn0  v033
 BYTE   W06
 BYTE   Gs1  v059
 BYTE   N03  Fs0  v065
 BYTE   W06
 BYTE   Fn0  v031
 BYTE   W06
 BYTE   PEND 
//  #07 //017   ----------------------------------------
 BYTE   PATT
  POIN2 Label_010090EC
//  #07 //018   ----------------------------------------
Label_010092F8:
 BYTE   N03  Cn1  v081
 BYTE   N03  As1  v085
 BYTE   N03  Ds0  v127
 BYTE   N03  Fn0  v065
 BYTE   W06
 BYTE   Fn0  v031
 BYTE   W06
 BYTE   Fs0  v065
 BYTE   N03  Gs1  v059
 BYTE   W06
 BYTE   Ds0  v127
 BYTE   N03  Fn0  v065
 BYTE   W06
 BYTE   En1  v111
 BYTE   N03  Dn1  v074
 BYTE   N03  As1  v085
 BYTE   N03  Fs0  v065
 BYTE   W06
 BYTE   Fn0  v033
 BYTE   W06
 BYTE   Fs0  v065
 BYTE   N03  Gs1  v059
 BYTE   W06
 BYTE   Fn0  v031
 BYTE   W06
 BYTE   Cn1  v081
 BYTE   N03  Fs0  v065
 BYTE   W06
 BYTE   Fn0  v031
 BYTE   W06
 BYTE   Gs1  v059
 BYTE   N03  Fs0  v065
 BYTE   W06
 BYTE   Cn1  v081
 BYTE   N03  Fn0  v033
 BYTE   W06
 BYTE   Dn1  v074
 BYTE   N03  En1  v111
 BYTE   N03  Gs1  v059
 BYTE   N03  Fs0  v065
 BYTE   W06
 BYTE   Fn0  v033
 BYTE   W06
 BYTE   Gs1  v059
 BYTE   N03  Fs0  v065
 BYTE   W06
 BYTE   Fn0  v031
 BYTE   W06
 BYTE   PEND 
//  #07 //019   ----------------------------------------
Label_0100935A:
 BYTE   N03  Cn1  v081
 BYTE   N03  Fs0  v065
 BYTE   N03  Gs1  v059
 BYTE   W06
 BYTE   Fn0  v031
 BYTE   W06
 BYTE   Fs0  v065
 BYTE   N03  As1  v085
 BYTE   W06
 BYTE   Fn0  v033
 BYTE   W06
 BYTE   Fs0  v065
 BYTE   N03  Dn1  v074
 BYTE   N03  En1  v111
 BYTE   N03  Gs1  v059
 BYTE   W06
 BYTE   Fn0  v033
 BYTE   W06
 BYTE   Fs0  v065
 BYTE   N03  Gs1  v059
 BYTE   W06
 BYTE   Fn0  v031
 BYTE   W06
 BYTE   Cn1  v081
 BYTE   N03  Fs0  v065
 BYTE   N03  Gs1  v059
 BYTE   W06
 BYTE   Fn0  v031
 BYTE   W06
 BYTE   Fs0  v065
 BYTE   N03  Gs1  v059
 BYTE   W06
 BYTE   Cn1  v081
 BYTE   N03  Fn0  v033
 BYTE   W06
 BYTE   Gs1  v059
 BYTE   N03  Dn1  v074
 BYTE   N03  En1  v111
 BYTE   N03  Fs0  v065
 BYTE   W06
 BYTE   Fn0  v033
 BYTE   W06
 BYTE   Gs1  v059
 BYTE   N03  Fs0  v065
 BYTE   W06
 BYTE   Fn0  v031
 BYTE   W06
 BYTE   PEND 
//  #07 //020   ----------------------------------------
Label_010093B9:
 BYTE   N03  Fn0  v065
 BYTE   N03  Ds0  v127
 BYTE   N03  As1  v085
 BYTE   N03  Cn1  v081
 BYTE   W06
 BYTE   Fn0  v031
 BYTE   W06
 BYTE   Gs1  v059
 BYTE   N03  Fs0  v065
 BYTE   W06
 BYTE   Fn0
 BYTE   N03  Ds0  v127
 BYTE   W06
 BYTE   Dn1  v074
 BYTE   N03  En1  v111
 BYTE   N03  Fs0  v065
 BYTE   N03  As1  v085
 BYTE   W06
 BYTE   Fn0  v033
 BYTE   W06
 BYTE   Fs0  v065
 BYTE   N03  Gs1  v059
 BYTE   W06
 BYTE   Fn0  v031
 BYTE   W06
 BYTE   Cn1  v081
 BYTE   N03  Fs0  v065
 BYTE   W06
 BYTE   Fn0  v031
 BYTE   W06
 BYTE   Gs1  v059
 BYTE   N03  Fs0  v065
 BYTE   W06
 BYTE   Cn1  v081
 BYTE   N03  Fn0  v033
 BYTE   W06
 BYTE   Dn1  v074
 BYTE   N03  En1  v111
 BYTE   N03  Gs1  v059
 BYTE   N03  Fs0  v065
 BYTE   W06
 BYTE   Fn0  v033
 BYTE   W06
 BYTE   Gs1  v059
 BYTE   N03  Fs0  v065
 BYTE   W06
 BYTE   Fn0  v031
 BYTE   W06
 BYTE   PEND 
//  #07 //021   ----------------------------------------
 BYTE   PATT
  POIN2 Label_010090EC
//  #07 //022   ----------------------------------------
 BYTE   PATT
  POIN2 Label_010092F8
//  #07 //023   ----------------------------------------
 BYTE   N03  Cn1  v081
 BYTE   N03  Fs0  v065
 BYTE   N03  Gs1  v059
 BYTE   W06
 BYTE   Fn0  v031
 BYTE   W06
 BYTE   Fs0  v065
 BYTE   N03  As1  v085
 BYTE   W06
 BYTE   Fn0  v033
 BYTE   W06
 BYTE   Fs0  v065
 BYTE   N03  Dn1  v074
 BYTE   N03  En1  v111
 BYTE   N03  Gs1  v059
 BYTE   W06
 BYTE   Fn0  v033
 BYTE   W06
 BYTE   Fs0  v065
 BYTE   N03  Gs1  v059
 BYTE   W06
 BYTE   Fn0  v031
 BYTE   W06
 BYTE   Cn1  v081
 BYTE   N03  Fs0  v065
 BYTE   N03  Gs1  v059
 BYTE   W06
 BYTE   Fn0  v031
 BYTE   W06
 BYTE   Fs0  v065
 BYTE   N03  Gs1  v059
 BYTE   W06
 BYTE   Cn1  v081
 BYTE   N03  Fn0  v033
 BYTE   W06
 BYTE   Gs1  v059
 BYTE   N03  Dn1  v074
 BYTE   N03  En1  v111
 BYTE   N03  Fs0  v065
 BYTE   W06
 BYTE   Fn0  v033
 BYTE   W06
 BYTE   Fs0  v065
 BYTE   N03  Gs1  v059
 BYTE   W06
 BYTE   Fn0  v031
 BYTE   N03  Dn1  v074
 BYTE   N03  En1  v111
 BYTE   W06
//  #07 //024   ----------------------------------------
 BYTE   Cn1  v081
 BYTE   N03  As1  v085
 BYTE   N03  Ds0  v127
 BYTE   N03  Fn0  v065
 BYTE   W06
 BYTE   En1  v111
 BYTE   N03  Dn1  v074
 BYTE   N03  Fn0  v031
 BYTE   W06
 BYTE   En1  v111
 BYTE   N03  Dn1  v074
 BYTE   N03  Gs1  v059
 BYTE   N03  Fs0  v065
 BYTE   W06
 BYTE   Dn1  v074
 BYTE   N03  En1  v111
 BYTE   N03  Fn0  v065
 BYTE   N03  Ds0  v127
 BYTE   W06
 BYTE   Fs0  v065
 BYTE   N03  As1  v085
 BYTE   W06
 BYTE   Cn1  v081
 BYTE   N03  Fn0  v033
 BYTE   W06
 BYTE   Fs0  v065
 BYTE   N03  Gs1  v059
 BYTE   N03  En1  v111
 BYTE   N03  Dn1  v074
 BYTE   W06
 BYTE   Fn0  v031
 BYTE   W06
 BYTE   Cn1  v081
 BYTE   N03  Cs2
 BYTE   N03  As3  v108
 BYTE   W12
 BYTE   Gs1  v059
 BYTE   W06
 BYTE   Cn1  v081
 BYTE   W06
 BYTE   Dn1  v074
 BYTE   N03  En1  v111
 BYTE   N03  Gs1  v059
 BYTE   W12
 BYTE   Gs1
 BYTE   W12
//  #07 //025   ----------------------------------------
Label_010094E9:
 BYTE   N03  Cn1  v081
 BYTE   N03  Gs1  v059
 BYTE   W12
 BYTE   As1  v085
 BYTE   W12
 BYTE   Dn1  v074
 BYTE   N03  En1  v111
 BYTE   N03  Gs1  v059
 BYTE   W12
 BYTE   Gs1
 BYTE   W12
 BYTE   Cn1  v081
 BYTE   N03  Gs1  v059
 BYTE   N03  As3  v108
 BYTE   W12
 BYTE   Gs1  v059
 BYTE   W06
 BYTE   Cn1  v081
 BYTE   W06
 BYTE   En1  v111
 BYTE   N03  Dn1  v074
 BYTE   N03  Gs1  v059
 BYTE   W12
 BYTE   Gs1
 BYTE   W12
 BYTE   PEND 
//  #07 //026   ----------------------------------------
Label_01009519:
 BYTE   N03  Fn0  v065
 BYTE   N03  Ds0  v127
 BYTE   N03  As1  v085
 BYTE   N03  Cn1  v081
 BYTE   W06
 BYTE   Fn0  v031
 BYTE   W06
 BYTE   Gs1  v059
 BYTE   N03  Fs0  v065
 BYTE   W06
 BYTE   Fn0
 BYTE   N03  Ds0  v127
 BYTE   W06
 BYTE   As1  v085
 BYTE   N03  Fs0  v065
 BYTE   N03  En1  v111
 BYTE   N03  Dn1  v074
 BYTE   W06
 BYTE   Fn0  v033
 BYTE   W06
 BYTE   Gs1  v059
 BYTE   N03  Fs0  v065
 BYTE   W06
 BYTE   Fn0  v031
 BYTE   W06
 BYTE   Cn1  v081
 BYTE   N03  An2
 BYTE   N03  As3  v108
 BYTE   W12
 BYTE   Gs1  v059
 BYTE   W06
 BYTE   Cn1  v081
 BYTE   W06
 BYTE   Dn1  v074
 BYTE   N03  En1  v111
 BYTE   N03  Gs1  v059
 BYTE   W12
 BYTE   Gs1
 BYTE   W12
 BYTE   PEND 
//  #07 //027   ----------------------------------------
Label_01009566:
 BYTE   N03  Cn1  v081
 BYTE   N03  Gs1  v059
 BYTE   W12
 BYTE   As1  v085
 BYTE   W12
 BYTE   Dn1  v074
 BYTE   N03  En1  v111
 BYTE   N03  Gs1  v059
 BYTE   W12
 BYTE   Gs1
 BYTE   W12
 BYTE   Gs1
 BYTE   N03  Cn1  v081
 BYTE   N03  As3  v108
 BYTE   W12
 BYTE   Gs1  v059
 BYTE   W06
 BYTE   Cn1  v081
 BYTE   W06
 BYTE   Gs1  v059
 BYTE   N03  Dn1  v074
 BYTE   N03  En1  v111
 BYTE   W12
 BYTE   Gs1  v059
 BYTE   W12
 BYTE   PEND 
//  #07 //028   ----------------------------------------
Label_01009596:
 BYTE   N03  Fn0  v065
 BYTE   N03  Ds0  v127
 BYTE   N03  As1  v085
 BYTE   N03  Cn1  v081
 BYTE   W06
 BYTE   Fn0  v031
 BYTE   W06
 BYTE   Gs1  v059
 BYTE   N03  Fs0  v065
 BYTE   W06
 BYTE   Fn0
 BYTE   N03  Ds0  v127
 BYTE   W06
 BYTE   Dn1  v074
 BYTE   N03  En1  v111
 BYTE   N03  As1  v085
 BYTE   N03  Fn0  v127
 BYTE   W12
 BYTE   Gs1  v059
 BYTE   W12
 BYTE   Cn1  v081
 BYTE   N03  Cs2
 BYTE   N03  As3  v108
 BYTE   W12
 BYTE   Gs1  v059
 BYTE   W06
 BYTE   Cn1  v081
 BYTE   W06
 BYTE   Dn1  v074
 BYTE   N03  En1  v111
 BYTE   N03  Gs1  v059
 BYTE   W12
 BYTE   Gs1
 BYTE   W12
 BYTE   PEND 
//  #07 //029   ----------------------------------------
 BYTE   PATT
  POIN2 Label_01009566
//  #07 //030   ----------------------------------------
Label_010095DF:
 BYTE   N03  Fn0  v065
 BYTE   N03  Ds0  v127
 BYTE   N03  As1  v085
 BYTE   N03  Cn1  v081
 BYTE   W06
 BYTE   Fn0  v031
 BYTE   W06
 BYTE   Gs1  v059
 BYTE   N03  Fs0  v065
 BYTE   W06
 BYTE   Fn0
 BYTE   N03  Ds0  v127
 BYTE   W06
 BYTE   Dn1  v074
 BYTE   N03  En1  v111
 BYTE   N03  Fs0  v065
 BYTE   N03  As1  v085
 BYTE   W06
 BYTE   Fn0  v033
 BYTE   W06
 BYTE   Fs0  v065
 BYTE   N03  Gs1  v059
 BYTE   W06
 BYTE   Fn0  v031
 BYTE   W06
 BYTE   Cn1  v081
 BYTE   N03  An2
 BYTE   N03  As3  v108
 BYTE   W12
 BYTE   Gs1  v059
 BYTE   W06
 BYTE   Cn1  v081
 BYTE   W06
 BYTE   Dn1  v074
 BYTE   N03  En1  v111
 BYTE   N03  Gs1  v059
 BYTE   W12
 BYTE   Gs1
 BYTE   W12
 BYTE   PEND 
//  #07 //031   ----------------------------------------
Label_0100962C:
 BYTE   N03  Cn1  v081
 BYTE   N03  Gs1  v059
 BYTE   W12
 BYTE   As1  v085
 BYTE   W12
 BYTE   Dn1  v074
 BYTE   N03  En1  v111
 BYTE   N03  Gs1  v059
 BYTE   W12
 BYTE   Gs1
 BYTE   W12
 BYTE   Gs1
 BYTE   N03  Cn1  v081
 BYTE   N03  As3  v108
 BYTE   W12
 BYTE   Gs1  v059
 BYTE   W06
 BYTE   Cn1  v081
 BYTE   W06
 BYTE   Gs1  v059
 BYTE   N03  Dn1  v074
 BYTE   N03  En1  v111
 BYTE   W12
 BYTE   Gs1  v059
 BYTE   W06
 BYTE   En1  v111
 BYTE   N03  Dn1  v074
 BYTE   W06
 BYTE   PEND 
//  #07 //032   ----------------------------------------
 BYTE   Cn1  v081
 BYTE   N03  As1  v085
 BYTE   N03  Ds0  v127
 BYTE   N03  Fn0  v065
 BYTE   W06
 BYTE   Dn1  v074
 BYTE   N03  En1  v111
 BYTE   N03  Fn0  v031
 BYTE   W06
 BYTE   Fs0  v065
 BYTE   N03  Gs1  v059
 BYTE   N03  En1  v111
 BYTE   N03  Dn1  v074
 BYTE   W06
 BYTE   Dn1
 BYTE   N03  En1  v111
 BYTE   N03  Ds0  v127
 BYTE   N03  Fn0  v065
 BYTE   W06
 BYTE   As1  v085
 BYTE   N03  Fn0  v127
 BYTE   W12
 BYTE   En1  v111
 BYTE   N03  Dn1  v074
 BYTE   N03  Gs1  v059
 BYTE   W12
 BYTE   Cn1  v081
 BYTE   N03  Cs2  v127
 BYTE   N03  Fs0  v065
 BYTE   W06
 BYTE   Fn0  v031
 BYTE   W06
 BYTE   Gs1  v059
 BYTE   N03  Fs0  v065
 BYTE   W06
 BYTE   Cn1  v081
 BYTE   N03  Fn0  v033
 BYTE   W06
 BYTE   Dn1  v074
 BYTE   N03  En1  v111
 BYTE   N03  Gs1  v059
 BYTE   N03  Fs0  v065
 BYTE   W06
 BYTE   Fn0  v033
 BYTE   W06
 BYTE   Fs0  v065
 BYTE   N03  Gs1  v059
 BYTE   W06
 BYTE   Fn0  v031
 BYTE   W06
//  #07 //033   ----------------------------------------
 BYTE   PATT
  POIN2 Label_0100902C
//  #07 //034   ----------------------------------------
 BYTE   PATT
  POIN2 Label_0100908B
//  #07 //035   ----------------------------------------
 BYTE   PATT
  POIN2 Label_010090EC
//  #07 //036   ----------------------------------------
 BYTE   PATT
  POIN2 Label_0100914B
//  #07 //037   ----------------------------------------
 BYTE   PATT
  POIN2 Label_010090EC
//  #07 //038   ----------------------------------------
 BYTE   PATT
  POIN2 Label_010091B2
//  #07 //039   ----------------------------------------
 BYTE   PATT
  POIN2 Label_01009214
//  #07 //040   ----------------------------------------
 BYTE   PATT
  POIN2 Label_01009279
//  #07 //041   ----------------------------------------
 BYTE   PATT
  POIN2 Label_010090EC
//  #07 //042   ----------------------------------------
 BYTE   PATT
  POIN2 Label_010092F8
//  #07 //043   ----------------------------------------
 BYTE   PATT
  POIN2 Label_0100935A
//  #07 //044   ----------------------------------------
 BYTE   PATT
  POIN2 Label_010093B9
//  #07 //045   ----------------------------------------
 BYTE   PATT
  POIN2 Label_010090EC
//  #07 //046   ----------------------------------------
 BYTE   N03  Cn1  v081
 BYTE   N03  As1  v085
 BYTE   N03  Ds0  v127
 BYTE   N03  Fn0  v065
 BYTE   W06
 BYTE   Fn0  v031
 BYTE   W06
 BYTE   Fs0  v065
 BYTE   N03  Gs1  v059
 BYTE   W06
 BYTE   Ds0  v127
 BYTE   N03  Fn0  v065
 BYTE   W06
 BYTE   En1  v111
 BYTE   N03  Dn1  v074
 BYTE   N03  As1  v085
 BYTE   N03  Fs0  v065
 BYTE   W06
 BYTE   Fn0  v033
 BYTE   W06
 BYTE   Fs0  v065
 BYTE   N03  Gs1  v059
 BYTE   W06
 BYTE   Fn0  v031
 BYTE   W06
 BYTE   Cn1  v081
 BYTE   N03  Cs2
 BYTE   W48
//  #07 //047   ----------------------------------------
 BYTE   W96
//  #07 //048   ----------------------------------------
 BYTE   En1  v111
 BYTE   N03  Dn1  v074
 BYTE   N03  Cn1  v081
 BYTE   N03  Ds0  v127
 BYTE   N03  Fn0  v065
 BYTE   N03  Cs2  v081
 BYTE   W06
 BYTE   Dn1  v074
 BYTE   N03  En1  v111
 BYTE   N03  Fn0  v031
 BYTE   W06
 BYTE   Fs0  v065
 BYTE   W06
 BYTE   Dn1  v074
 BYTE   N03  En1  v111
 BYTE   N03  Ds0  v127
 BYTE   N03  Fn0  v065
 BYTE   N03  Cn1  v081
 BYTE   W06
 BYTE   An2
 BYTE   N03  En1  v111
 BYTE   N03  Dn1  v074
 BYTE   N03  Fn0  v127
 BYTE   W12
 BYTE   En1  v111
 BYTE   N03  Dn1  v074
 BYTE   N03  Cn1  v081
 BYTE   W12
 BYTE   Cn1
 BYTE   N03  Cs2  v085
 BYTE   W12
 BYTE   Gs1  v059
 BYTE   W06
 BYTE   Cn1  v081
 BYTE   W06
 BYTE   Dn1  v074
 BYTE   N03  En1  v111
 BYTE   N03  Gs1  v059
 BYTE   W12
 BYTE   Gs1
 BYTE   W12
//  #07 //049   ----------------------------------------
Label_0100979F:
 BYTE   N03  Cn1  v081
 BYTE   N03  Gs1  v059
 BYTE   W12
 BYTE   As1  v077
 BYTE   W12
 BYTE   Dn1  v074
 BYTE   N03  En1  v111
 BYTE   N03  Gs1  v059
 BYTE   W12
 BYTE   Gs1
 BYTE   W12
 BYTE   Cn1  v081
 BYTE   N03  Gs1  v059
 BYTE   W12
 BYTE   Gs1
 BYTE   W06
 BYTE   Cn1  v081
 BYTE   W06
 BYTE   En1  v111
 BYTE   N03  Dn1  v074
 BYTE   N03  Gs1  v059
 BYTE   W12
 BYTE   Gs1
 BYTE   W12
 BYTE   PEND 
//  #07 //050   ----------------------------------------
Label_010097CB:
 BYTE   N03  Fn0  v065
 BYTE   N03  Ds0  v127
 BYTE   N03  As1  v077
 BYTE   N03  Cn1  v081
 BYTE   W06
 BYTE   Fn0  v031
 BYTE   W06
 BYTE   Gs1  v059
 BYTE   N03  Fs0  v065
 BYTE   W06
 BYTE   Fn0
 BYTE   N03  Ds0  v127
 BYTE   W06
 BYTE   As1  v077
 BYTE   N03  Fs0  v065
 BYTE   N03  En1  v111
 BYTE   N03  Dn1  v074
 BYTE   W06
 BYTE   Fn0  v033
 BYTE   W06
 BYTE   Gs1  v059
 BYTE   N03  Fs0  v065
 BYTE   W06
 BYTE   Fn0  v031
 BYTE   W06
 BYTE   Cn1  v081
 BYTE   W12
 BYTE   Gs1  v059
 BYTE   W06
 BYTE   Cn1  v081
 BYTE   W06
 BYTE   Dn1  v074
 BYTE   N03  En1  v111
 BYTE   N03  Gs1  v059
 BYTE   W12
 BYTE   Gs1
 BYTE   W12
 BYTE   PEND 
//  #07 //051   ----------------------------------------
Label_01009813:
 BYTE   N03  Cn1  v081
 BYTE   N03  Gs1  v059
 BYTE   W12
 BYTE   As1  v077
 BYTE   W12
 BYTE   Dn1  v074
 BYTE   N03  En1  v111
 BYTE   N03  Gs1  v059
 BYTE   W12
 BYTE   Gs1
 BYTE   W12
 BYTE   Gs1
 BYTE   N03  Cn1  v081
 BYTE   W12
 BYTE   Gs1  v059
 BYTE   W06
 BYTE   Cn1  v081
 BYTE   W06
 BYTE   Gs1  v059
 BYTE   N03  Dn1  v074
 BYTE   N03  En1  v111
 BYTE   W12
 BYTE   Gs1  v059
 BYTE   W12
 BYTE   PEND 
//  #07 //052   ----------------------------------------
Label_01009840:
 BYTE   N03  Fn0  v065
 BYTE   N03  Ds0  v127
 BYTE   N03  As1  v077
 BYTE   N03  Cn1  v081
 BYTE   W06
 BYTE   Fn0  v031
 BYTE   W06
 BYTE   Gs1  v059
 BYTE   N03  Fs0  v065
 BYTE   W06
 BYTE   Fn0
 BYTE   N03  Ds0  v127
 BYTE   W06
 BYTE   Dn1  v074
 BYTE   N03  En1  v111
 BYTE   N03  As1  v077
 BYTE   N03  Fn0  v127
 BYTE   W12
 BYTE   Gs1  v059
 BYTE   W12
 BYTE   Cn1  v081
 BYTE   N03  Cs2
 BYTE   W12
 BYTE   Gs1  v059
 BYTE   W06
 BYTE   Cn1  v081
 BYTE   W06
 BYTE   Dn1  v074
 BYTE   N03  En1  v111
 BYTE   N03  Gs1  v059
 BYTE   W12
 BYTE   Gs1
 BYTE   W12
 BYTE   PEND 
//  #07 //053   ----------------------------------------
 BYTE   PATT
  POIN2 Label_01009813
//  #07 //054   ----------------------------------------
Label_01009886:
 BYTE   N03  Fn0  v065
 BYTE   N03  Ds0  v127
 BYTE   N03  As1  v077
 BYTE   N03  Cn1  v081
 BYTE   W06
 BYTE   Fn0  v031
 BYTE   W06
 BYTE   Gs1  v059
 BYTE   N03  Fs0  v065
 BYTE   W06
 BYTE   Fn0
 BYTE   N03  Ds0  v127
 BYTE   W06
 BYTE   Dn1  v074
 BYTE   N03  En1  v111
 BYTE   N03  Fs0  v065
 BYTE   N03  As1  v077
 BYTE   W06
 BYTE   Fn0  v033
 BYTE   W06
 BYTE   Fs0  v065
 BYTE   N03  Gs1  v059
 BYTE   W06
 BYTE   Fn0  v031
 BYTE   W06
 BYTE   Cn1  v081
 BYTE   W12
 BYTE   Gs1  v059
 BYTE   W06
 BYTE   Cn1  v081
 BYTE   W06
 BYTE   Dn1  v074
 BYTE   N03  En1  v111
 BYTE   N03  Gs1  v059
 BYTE   W12
 BYTE   Gs1
 BYTE   W12
 BYTE   PEND 
//  #07 //055   ----------------------------------------
 BYTE   Cn1  v081
 BYTE   N03  Gs1  v059
 BYTE   W12
 BYTE   As1  v077
 BYTE   W12
 BYTE   Dn1  v074
 BYTE   N03  En1  v111
 BYTE   N03  Gs1  v059
 BYTE   W12
 BYTE   Gs1
 BYTE   W12
 BYTE   Cn1  v081
 BYTE   N03  Gs1  v059
 BYTE   W12
 BYTE   Gs1
 BYTE   W06
 BYTE   Cn1  v081
 BYTE   W06
 BYTE   Gs1  v059
 BYTE   N03  Dn1  v074
 BYTE   N03  En1  v111
 BYTE   W12
 BYTE   Gs1  v059
 BYTE   W06
 BYTE   Dn1  v074
 BYTE   N03  En1  v111
 BYTE   W06
//  #07 //056   ----------------------------------------
 BYTE   Cn1  v081
 BYTE   N03  As1  v077
 BYTE   N03  Ds0  v127
 BYTE   N03  Fn0  v065
 BYTE   W06
 BYTE   Dn1  v074
 BYTE   N03  En1  v111
 BYTE   N03  Fn0  v031
 BYTE   W06
 BYTE   Dn1  v074
 BYTE   N03  En1  v111
 BYTE   N03  Gs1  v059
 BYTE   N03  Fs0  v065
 BYTE   W06
 BYTE   Fn0
 BYTE   N03  Ds0  v127
 BYTE   N03  En1  v111
 BYTE   N03  Dn1  v074
 BYTE   W06
 BYTE   Fn0  v127
 BYTE   N03  As1  v077
 BYTE   W12
 BYTE   Gs1  v059
 BYTE   N03  Dn1  v074
 BYTE   N03  En1  v111
 BYTE   W12
 BYTE   Cn1  v081
 BYTE   N03  Cs2
 BYTE   W12
 BYTE   Gs1  v059
 BYTE   W06
 BYTE   Cn1  v081
 BYTE   W06
 BYTE   Dn1  v074
 BYTE   N03  En1  v111
 BYTE   N03  Gs1  v059
 BYTE   W12
 BYTE   Gs1
 BYTE   W12
//  #07 //057   ----------------------------------------
 BYTE   PATT
  POIN2 Label_0100979F
//  #07 //058   ----------------------------------------
 BYTE   PATT
  POIN2 Label_010097CB
//  #07 //059   ----------------------------------------
 BYTE   PATT
  POIN2 Label_01009813
//  #07 //060   ----------------------------------------
 BYTE   PATT
  POIN2 Label_01009840
//  #07 //061   ----------------------------------------
 BYTE   PATT
  POIN2 Label_01009813
//  #07 //062   ----------------------------------------
 BYTE   PATT
  POIN2 Label_01009886
//  #07 //063   ----------------------------------------
 BYTE   N03  Cn1  v081
 BYTE   N03  Gs1  v059
 BYTE   W12
 BYTE   As1  v077
 BYTE   W12
 BYTE   Dn1  v074
 BYTE   N03  En1  v111
 BYTE   N03  Gs1  v059
 BYTE   W12
 BYTE   Gs1
 BYTE   W12
 BYTE   Gs1
 BYTE   N03  Cn1  v081
 BYTE   W12
 BYTE   Gs1  v059
 BYTE   W06
 BYTE   Cn1  v081
 BYTE   W06
 BYTE   Gs1  v059
 BYTE   N03  Dn1  v074
 BYTE   N03  En1  v111
 BYTE   W12
 BYTE   Gs1  v059
 BYTE   W06
 BYTE   En1  v111
 BYTE   N03  Dn1  v074
 BYTE   W06
//  #07 //064   ----------------------------------------
 BYTE   Cn1  v081
 BYTE   N03  As1  v077
 BYTE   N03  Ds0  v127
 BYTE   N03  Fn0  v065
 BYTE   W06
 BYTE   Dn1  v074
 BYTE   N03  En1  v111
 BYTE   N03  Fn0  v031
 BYTE   W06
 BYTE   Fs0  v065
 BYTE   N03  Gs1  v059
 BYTE   N03  En1  v111
 BYTE   N03  Dn1  v074
 BYTE   W06
 BYTE   Dn1
 BYTE   N03  En1  v111
 BYTE   N03  Ds0  v127
 BYTE   N03  Fn0  v065
 BYTE   W06
 BYTE   As1  v077
 BYTE   N03  Fn0  v127
 BYTE   W12
 BYTE   En1  v111
 BYTE   N03  Dn1  v074
 BYTE   N03  Gs1  v059
 BYTE   W12
 BYTE   Cn1  v081
 BYTE   N03  Cs2
 BYTE   N03  As3  v108
 BYTE   W12
 BYTE   Gs1  v059
 BYTE   W06
 BYTE   Cn1  v081
 BYTE   W06
 BYTE   Dn1  v074
 BYTE   N03  En1  v111
 BYTE   N03  Gs1  v059
 BYTE   W12
 BYTE   Gs1
 BYTE   W12
//  #07 //065   ----------------------------------------
 BYTE   PATT
  POIN2 Label_010094E9
//  #07 //066   ----------------------------------------
 BYTE   PATT
  POIN2 Label_01009519
//  #07 //067   ----------------------------------------
 BYTE   PATT
  POIN2 Label_01009566
//  #07 //068   ----------------------------------------
 BYTE   PATT
  POIN2 Label_01009596
//  #07 //069   ----------------------------------------
 BYTE   PATT
  POIN2 Label_01009566
//  #07 //070   ----------------------------------------
 BYTE   PATT
  POIN2 Label_010095DF
//  #07 //071   ----------------------------------------
 BYTE   PATT
  POIN2 Label_0100962C
//  #07 //072   ----------------------------------------
 BYTE   N03  Cn1  v081
 BYTE   N03  As1  v085
 BYTE   N03  Ds0  v127
 BYTE   N03  Fn0  v065
 BYTE   W06
 BYTE   Dn1  v074
 BYTE   N03  En1  v111
 BYTE   N03  Fn0  v031
 BYTE   W06
 BYTE   Fs0  v065
 BYTE   N03  Gs1  v059
 BYTE   N03  En1  v111
 BYTE   N03  Dn1  v074
 BYTE   W06
 BYTE   Dn1
 BYTE   N03  En1  v111
 BYTE   N03  Ds0  v127
 BYTE   N03  Fn0  v065
 BYTE   W06
 BYTE   As1  v085
 BYTE   N03  Fn0  v127
 BYTE   W12
 BYTE   En1  v111
 BYTE   N03  Dn1  v074
 BYTE   N03  Gs1  v059
 BYTE   W06
 BYTE   GoTo
  POIN2 Label_01008FFB
//  #07 //073   ----------------------------------------
 BYTE   W54
 BYTE   FINE

//******************************************************//
	ALIGN 4

StreetFighter33rdStrikeTheLongshoremanSeanOroTak:
	BYTE	7	// NumTrks
	BYTE	0	// NumBlks
	BYTE	StreetFighter33rdStrikeTheLongshoremanSeanOroTak_pri	// Priority
	BYTE	StreetFighter33rdStrikeTheLongshoremanSeanOroTak_rev	// Reverb.
    
	POIN2	StreetFighter33rdStrikeTheLongshoremanSeanOroTak_grp
    
	POIN2	StreetFighter33rdStrikeTheLongshoremanSeanOroTak_001
	POIN2	StreetFighter33rdStrikeTheLongshoremanSeanOroTak_002
	POIN2	StreetFighter33rdStrikeTheLongshoremanSeanOroTak_003
	POIN2	StreetFighter33rdStrikeTheLongshoremanSeanOroTak_004
	POIN2	StreetFighter33rdStrikeTheLongshoremanSeanOroTak_005
	POIN2	StreetFighter33rdStrikeTheLongshoremanSeanOroTak_006
	POIN2	StreetFighter33rdStrikeTheLongshoremanSeanOroTak_007

	
