//Event file generated from Sappy .s format.
	#include "MPlayDef.event"

	#define	StreetFighterAlpha2SakuraTak_grp  voicegroup000
	#define	StreetFighterAlpha2SakuraTak_pri  0
	#define	StreetFighterAlpha2SakuraTak_rev  0
	#define	StreetFighterAlpha2SakuraTak_mvl  127
	#define	StreetFighterAlpha2SakuraTak_key  0
	#define	StreetFighterAlpha2SakuraTak_tbs  1
	#define	StreetFighterAlpha2SakuraTak_exg  0
	#define	StreetFighterAlpha2SakuraTak_cmp  1

	// .rodata
	//	StreetFighterAlpha2SakuraTak
	ALIGN 4


//**************** Track 1 (Midi-Chn.0) ****************//

StreetFighterAlpha2SakuraTak_001:
//  #01 //000   ----------------------------------------
 BYTE   KEYSH   StreetFighterAlpha2SakuraTak_key+0
 BYTE   TEMPO   138*StreetFighterAlpha2SakuraTak_tbs/2
Label_01003ED4:
 BYTE   VOICE   68
 BYTE   PAN   c_v-7
 BYTE   VOL   82*StreetFighterAlpha2SakuraTak_mvl/mxv
 BYTE   BENDR  12
 BYTE   W96
//  #01 //001   ----------------------------------------
 BYTE   W96
//  #01 //002   ----------------------------------------
 BYTE   W96
//  #01 //003   ----------------------------------------
 BYTE   W72
 BYTE   N12  Cs3  v085
 BYTE   W12
 BYTE   Fn3
 BYTE   W12
//  #01 //004   ----------------------------------------
Label_01003EE6:
 BYTE   N12  Gs3  v085
 BYTE   W12
 BYTE   N18
 BYTE   W18
 BYTE   N06  As3
 BYTE   W18
 BYTE   N24
 BYTE   W24
 BYTE   N12  Gs3
 BYTE   W12
 BYTE   As3
 BYTE   W12
 BYTE   PEND 
//  #01 //005   ----------------------------------------
 BYTE   Gs3
 BYTE   W12
 BYTE   N24  Cs4
 BYTE   W24
 BYTE   Cn4
 BYTE   W24
 BYTE   As3
 BYTE   W24
 BYTE   Gs3
 BYTE   W12
//  #01 //006   ----------------------------------------
 BYTE   W12
 BYTE   N18
 BYTE   W18
 BYTE   N06  As3
 BYTE   W18
 BYTE   TIE
 BYTE   W48
//  #01 //007   ----------------------------------------
 BYTE   W60
 BYTE   EOT
 BYTE   W12
 BYTE   N12  Cs3
 BYTE   W12
 BYTE   Fn3
 BYTE   W12
//  #01 //008   ----------------------------------------
 BYTE   PATT
  POIN2 Label_01003EE6
//  #01 //009   ----------------------------------------
 BYTE   N12  Cn4  v085
 BYTE   W12
 BYTE   N24  Cs4
 BYTE   W24
 BYTE   Cn4
 BYTE   W24
 BYTE   Cs4
 BYTE   W24
 BYTE   Ds4
 BYTE   W12
//  #01 //010   ----------------------------------------
 BYTE   W12
 BYTE   N18  Cn4
 BYTE   W18
 BYTE   N06  Cs4
 BYTE   W18
 BYTE   TIE  As3
 BYTE   W48
//  #01 //011   ----------------------------------------
 BYTE   W80
 BYTE   W03
 BYTE   EOT
 BYTE   W13
//  #01 //012   ----------------------------------------
 BYTE   W12
 BYTE   N18  Cs4
 BYTE   W18
 BYTE   N06
 BYTE   W18
 BYTE   As3
 BYTE   W06
 BYTE   Gs3
 BYTE   W06
 BYTE   N18  Ds4
 BYTE   W18
 BYTE   Ds4
 BYTE   W18
//  #01 //013   ----------------------------------------
 BYTE   N12  Fn4
 BYTE   W12
 BYTE   N18  Cs4
 BYTE   W18
 BYTE   N06
 BYTE   W18
 BYTE   As3
 BYTE   W06
 BYTE   Gs3
 BYTE   W06
 BYTE   N18  Ds4
 BYTE   W18
 BYTE   Ds4
 BYTE   W18
//  #01 //014   ----------------------------------------
 BYTE   N12  Fn4
 BYTE   W12
 BYTE   N18  Cs4
 BYTE   W18
 BYTE   Cn4
 BYTE   W18
 BYTE   N24  As3
 BYTE   W24
 BYTE   Gs3
 BYTE   W24
//  #01 //015   ----------------------------------------
 BYTE   N52  As3  v085  gtp1
 BYTE   W60
 BYTE   N24
 BYTE   W24
 BYTE   Gs3
 BYTE   W12
//  #01 //016   ----------------------------------------
 BYTE   W12
 BYTE   N72  As3
 BYTE   W72
 BYTE   N24  Cn4
 BYTE   W12
//  #01 //017   ----------------------------------------
 BYTE   W12
 BYTE   N72  Cs4
 BYTE   W78
 BYTE   N06  As3
 BYTE   W06
//  #01 //018   ----------------------------------------
 BYTE   Gs3
 BYTE   W06
 BYTE   Fn3
 BYTE   W06
 BYTE   N18  Ds4
 BYTE   W18
 BYTE   Fn4
 BYTE   W18
 BYTE   N12  Cs4
 BYTE   W24
 BYTE   Cs4
 BYTE   W12
 BYTE   Gs3
 BYTE   W12
//  #01 //019   ----------------------------------------
 BYTE   Cn4
 BYTE   W12
 BYTE   Ds4
 BYTE   W12
 BYTE   N06  Fn4
 BYTE   W06
 BYTE   N12  Cs4
 BYTE   W12
 BYTE   N06  Cn4
 BYTE   W06
 BYTE   N12  Cs4
 BYTE   W48
//  #01 //020   ----------------------------------------
 BYTE   W12
 BYTE   N36  Cn4
 BYTE   W36
 BYTE   N12  Bn3
 BYTE   W12
 BYTE   An3
 BYTE   W12
 BYTE   Gn3
 BYTE   W12
 BYTE   An3
 BYTE   W12
//  #01 //021   ----------------------------------------
 BYTE   An3
 BYTE   W12
 BYTE   Cn4
 BYTE   W12
 BYTE   Dn4
 BYTE   W12
 BYTE   En4
 BYTE   W12
 BYTE   N48  Dn4
 BYTE   W48
//  #01 //022   ----------------------------------------
 BYTE   W12
 BYTE   N18  En4
 BYTE   W18
 BYTE   Dn4
 BYTE   W18
 BYTE   N36
 BYTE   W36
 BYTE   N24  Gn4
 BYTE   W12
//  #01 //023   ----------------------------------------
 BYTE   W12
 BYTE   N18  En4
 BYTE   W18
 BYTE   Dn4
 BYTE   W18
 BYTE   N48
 BYTE   W48
//  #01 //024   ----------------------------------------
 BYTE   W12
 BYTE   N36  Cs4
 BYTE   W36
 BYTE   N12  Cn4
 BYTE   W12
 BYTE   As3
 BYTE   W12
 BYTE   Gs3
 BYTE   W12
 BYTE   As3
 BYTE   W12
//  #01 //025   ----------------------------------------
 BYTE   As3
 BYTE   W12
 BYTE   Cs4
 BYTE   W12
 BYTE   Ds4
 BYTE   W12
 BYTE   Fn4
 BYTE   W12
 BYTE   N48  Ds4
 BYTE   W48
//  #01 //026   ----------------------------------------
 BYTE   W12
 BYTE   N18  Fn4
 BYTE   W18
 BYTE   Ds4
 BYTE   W18
 BYTE   N52  Ds4  v085  gtp1
 BYTE   W48
//  #01 //027   ----------------------------------------
 BYTE   W12
 BYTE   N18  Fs4
 BYTE   W18
 BYTE   Gs4
 BYTE   W18
 BYTE   TIE  Fn4
 BYTE   W48
//  #01 //028   ----------------------------------------
 BYTE   W96
//  #01 //029   ----------------------------------------
 BYTE   EOT
 BYTE   GoTo
  POIN2 Label_01003ED4
 BYTE   FINE

//**************** Track 2 (Midi-Chn.1) ****************//

StreetFighterAlpha2SakuraTak_002:
//  #02 //000   ----------------------------------------
 BYTE   KEYSH   StreetFighterAlpha2SakuraTak_key+0
Label_010006A6:
 BYTE   VOICE   100
 BYTE   VOL   64*StreetFighterAlpha2SakuraTak_mvl/mxv
 BYTE   PAN   c_v+20
 BYTE   BENDR  12
 BYTE   W96
//  #02 //001   ----------------------------------------
 BYTE   W90
 BYTE   N06  Gs3  v085
 BYTE   W06
//  #02 //002   ----------------------------------------
 BYTE   Cs4
 BYTE   W06
 BYTE   Ds4
 BYTE   W06
 BYTE   N18  Gs4
 BYTE   W18
 BYTE   TIE
 BYTE   W66
//  #02 //003   ----------------------------------------
 BYTE   W66
 BYTE   EOT
 BYTE   W30
//  #02 //004   ----------------------------------------
 BYTE   W96
//  #02 //005   ----------------------------------------
 BYTE   W12
 BYTE   N24  As3
 BYTE   W24
 BYTE   Gs3
 BYTE   W24
 BYTE   Cs4
 BYTE   W24
 BYTE   Cn4
 BYTE   W12
//  #02 //006   ----------------------------------------
 BYTE   W12
 BYTE   N18
 BYTE   W18
 BYTE   N06  Cs4
 BYTE   W18
 BYTE   TIE
 BYTE   W48
//  #02 //007   ----------------------------------------
 BYTE   W60
 BYTE   EOT
 BYTE   W36
//  #02 //008   ----------------------------------------
 BYTE   W96
//  #02 //009   ----------------------------------------
 BYTE   W12
 BYTE   N24  As3
 BYTE   W24
 BYTE   Gs3
 BYTE   W24
 BYTE   As3
 BYTE   W24
 BYTE   Cn4
 BYTE   W12
//  #02 //010   ----------------------------------------
 BYTE   W12
 BYTE   N18  Gs3
 BYTE   W18
 BYTE   N06  As3
 BYTE   W18
 BYTE   TIE  Fn3
 BYTE   W48
//  #02 //011   ----------------------------------------
 BYTE   W96
//  #02 //012   ----------------------------------------
 BYTE   W12
 BYTE   EOT
 BYTE   W84
//  #02 //013   ----------------------------------------
 BYTE   W96
//  #02 //014   ----------------------------------------
 BYTE   W96
//  #02 //015   ----------------------------------------
 BYTE   W96
//  #02 //016   ----------------------------------------
 BYTE   W96
//  #02 //017   ----------------------------------------
 BYTE   W96
//  #02 //018   ----------------------------------------
 BYTE   W96
//  #02 //019   ----------------------------------------
 BYTE   W96
//  #02 //020   ----------------------------------------
 BYTE   W96
//  #02 //021   ----------------------------------------
 BYTE   W96
//  #02 //022   ----------------------------------------
 BYTE   W96
//  #02 //023   ----------------------------------------
 BYTE   W96
//  #02 //024   ----------------------------------------
 BYTE   W96
//  #02 //025   ----------------------------------------
 BYTE   W96
//  #02 //026   ----------------------------------------
 BYTE   W96
//  #02 //027   ----------------------------------------
 BYTE   W96
//  #02 //028   ----------------------------------------
 BYTE   W96
//  #02 //029   ----------------------------------------
 BYTE   GoTo
  POIN2 Label_010006A6
 BYTE   FINE

//**************** Track 3 (Midi-Chn.2) ****************//

StreetFighterAlpha2SakuraTak_003:
//  #03 //000   ----------------------------------------
 BYTE   KEYSH   StreetFighterAlpha2SakuraTak_key+0
Label_01004016:
 BYTE   VOICE   4
 BYTE   VOL   50*StreetFighterAlpha2SakuraTak_mvl/mxv
 BYTE   BENDR  12
 BYTE   W12
 BYTE   N12  Cs3  v085
 BYTE   N12  Fn3
 BYTE   W12
 BYTE   N06  Cn3
 BYTE   N06  Ds3
 BYTE   W06
 BYTE   N12  Cs3
 BYTE   N12  Fn3
 BYTE   W12
 BYTE   Cn3
 BYTE   N12  Ds3
 BYTE   W12
 BYTE   Cs3
 BYTE   N12  Fn3
 BYTE   W12
 BYTE   Cn3
 BYTE   N12  Ds3
 BYTE   W12
 BYTE   N06  Cs3
 BYTE   N06  Fn3
 BYTE   W06
 BYTE   N24  Cs3
 BYTE   N24  Fn3
 BYTE   W12
//  #03 //001   ----------------------------------------
 BYTE   W12
 BYTE   N12  Cs3
 BYTE   N12  Fn3
 BYTE   W12
 BYTE   N06  Ds3
 BYTE   N06  Cn3
 BYTE   W06
 BYTE   N12  Cs3
 BYTE   N12  Fn3
 BYTE   W12
 BYTE   Cn3
 BYTE   N12  Ds3
 BYTE   W12
 BYTE   Cs3
 BYTE   N12  Fn3
 BYTE   W12
 BYTE   Ds3
 BYTE   N12  Cn3
 BYTE   W12
 BYTE   N06  Cs3
 BYTE   N06  Fn3
 BYTE   W06
 BYTE   N24  Cs3
 BYTE   N24  Fn3
 BYTE   W12
//  #03 //002   ----------------------------------------
 BYTE   W12
 BYTE   N12  Cs3
 BYTE   N12  Fn3
 BYTE   W12
 BYTE   N06  Ds3
 BYTE   N06  Cn3
 BYTE   W06
 BYTE   N12  Cs3
 BYTE   N12  Fn3
 BYTE   W12
 BYTE   Ds3
 BYTE   N12  Cn3
 BYTE   W12
 BYTE   Cs3
 BYTE   N12  Fn3
 BYTE   W12
 BYTE   Cn3
 BYTE   N12  Ds3
 BYTE   W12
 BYTE   N06  Cs3
 BYTE   N06  Fn3
 BYTE   W06
 BYTE   N24  Cs3
 BYTE   N24  Fn3
 BYTE   W12
//  #03 //003   ----------------------------------------
 BYTE   W12
 BYTE   N12  Cs3
 BYTE   N12  Fn3
 BYTE   W12
 BYTE   N06  Cn3
 BYTE   N06  Ds3
 BYTE   W06
 BYTE   N12  Cs3
 BYTE   N12  Fn3
 BYTE   W12
 BYTE   Cn3
 BYTE   N12  Ds3
 BYTE   W12
 BYTE   Cs3
 BYTE   N12  Fn3
 BYTE   W12
 BYTE   Ds3
 BYTE   N12  Cn3
 BYTE   W12
 BYTE   N06  Fn3
 BYTE   N06  Cs3
 BYTE   W06
 BYTE   N24  Fn3
 BYTE   N24  Cs3
 BYTE   W12
//  #03 //004   ----------------------------------------
 BYTE   W96
//  #03 //005   ----------------------------------------
 BYTE   W96
//  #03 //006   ----------------------------------------
 BYTE   W96
//  #03 //007   ----------------------------------------
 BYTE   W96
//  #03 //008   ----------------------------------------
 BYTE   W96
//  #03 //009   ----------------------------------------
 BYTE   W96
//  #03 //010   ----------------------------------------
 BYTE   W18
 BYTE   N06  Fn3
 BYTE   W06
 BYTE   Gs3
 BYTE   W06
 BYTE   As3
 BYTE   W06
 BYTE   As3
 BYTE   W06
 BYTE   Gs3
 BYTE   W06
 BYTE   As3
 BYTE   W06
 BYTE   Cn4
 BYTE   W06
 BYTE   Gs3
 BYTE   W06
 BYTE   As3
 BYTE   W06
 BYTE   Cn4
 BYTE   W06
 BYTE   Cs4
 BYTE   W06
 BYTE   Ds4
 BYTE   W06
 BYTE   Cs4
 BYTE   W06
//  #03 //011   ----------------------------------------
 BYTE   Ds4
 BYTE   W06
 BYTE   Fn4
 BYTE   W06
 BYTE   N12  Gs4
 BYTE   N12  Fn4
 BYTE   W12
 BYTE   N06  Gs4
 BYTE   N06  Fn4
 BYTE   W06
 BYTE   Fn4
 BYTE   N06  Gs4
 BYTE   W06
 BYTE   N12  Fn4
 BYTE   N12  Gs4
 BYTE   W12
 BYTE   N06  Fn4
 BYTE   N06  Gs4
 BYTE   W06
 BYTE   Gs4
 BYTE   N06  Fn4
 BYTE   W12
 BYTE   Gs4
 BYTE   N06  Fn4
 BYTE   W06
 BYTE   N12  Gs4
 BYTE   N12  Fn4
 BYTE   W12
 BYTE   Gs4
 BYTE   N12  Fn4
 BYTE   W12
//  #03 //012   ----------------------------------------
 BYTE   Gs4
 BYTE   N12  Fn4
 BYTE   W12
 BYTE   N48  Fn3
 BYTE   N48  As3
 BYTE   W60
 BYTE   N18  Fn3
 BYTE   N18  As3
 BYTE   W18
 BYTE   Fn3
 BYTE   N18  Gs3
 BYTE   W06
//  #03 //013   ----------------------------------------
 BYTE   W12
 BYTE   N48  As3
 BYTE   N48  Gs3
 BYTE   W60
 BYTE   N18
 BYTE   N18  Fn3
 BYTE   W18
 BYTE   Cs3
 BYTE   N18  Fn3
 BYTE   W06
//  #03 //014   ----------------------------------------
 BYTE   W12
 BYTE   N96  Gs3
 BYTE   N96  Ds3
 BYTE   W84
//  #03 //015   ----------------------------------------
 BYTE   W12
 BYTE   N24  Cs3
 BYTE   N24  Fn3
 BYTE   W24
 BYTE   Cn3
 BYTE   N24  Ds3
 BYTE   W24
 BYTE   Cs3
 BYTE   N24  Fn3
 BYTE   W24
 BYTE   Gs3
 BYTE   N24  Fn3
 BYTE   W12
//  #03 //016   ----------------------------------------
 BYTE   W12
 BYTE   N18  Cs3
 BYTE   N18  Fn3
 BYTE   W18
 BYTE   Cs3
 BYTE   N18  Fn3
 BYTE   W18
 BYTE   N24  Cs3
 BYTE   N24  Fn3
 BYTE   W24
 BYTE   N18
 BYTE   N18  Cs3
 BYTE   W18
 BYTE   Cs3
 BYTE   N18  Fn3
 BYTE   W06
//  #03 //017   ----------------------------------------
 BYTE   W12
 BYTE   Cn3
 BYTE   N18  Ds3
 BYTE   W18
 BYTE   Ds3
 BYTE   N18  Cn3
 BYTE   W18
 BYTE   N24  Ds3
 BYTE   N24  Cn3
 BYTE   W24
 BYTE   N18
 BYTE   N18  Ds3
 BYTE   W18
 BYTE   Ds3
 BYTE   N18  Cn3
 BYTE   W06
//  #03 //018   ----------------------------------------
 BYTE   W12
 BYTE   N96  Ds3
 BYTE   N96  Cs3
 BYTE   W84
//  #03 //019   ----------------------------------------
 BYTE   W12
 BYTE   N18
 BYTE   W18
 BYTE   Cn3
 BYTE   W18
 BYTE   N12  Cs3
 BYTE   W48
//  #03 //020   ----------------------------------------
 BYTE   W96
//  #03 //021   ----------------------------------------
 BYTE   W96
//  #03 //022   ----------------------------------------
 BYTE   W96
//  #03 //023   ----------------------------------------
 BYTE   W96
//  #03 //024   ----------------------------------------
 BYTE   W96
//  #03 //025   ----------------------------------------
 BYTE   W96
//  #03 //026   ----------------------------------------
 BYTE   W96
//  #03 //027   ----------------------------------------
 BYTE   W96
//  #03 //028   ----------------------------------------
 BYTE   W96
//  #03 //029   ----------------------------------------
 BYTE   GoTo
  POIN2 Label_01004016
 BYTE   FINE

//**************** Track 4 (Midi-Chn.3) ****************//

StreetFighterAlpha2SakuraTak_004:
//  #04 //000   ----------------------------------------
 BYTE   KEYSH   StreetFighterAlpha2SakuraTak_key+0
Label_01003026:
 BYTE   VOICE   100
 BYTE   VOL   60*StreetFighterAlpha2SakuraTak_mvl/mxv
 BYTE   PAN   c_v+20
 BYTE   BENDR  12
 BYTE   W96
//  #04 //001   ----------------------------------------
 BYTE   W96
//  #04 //002   ----------------------------------------
 BYTE   W96
//  #04 //003   ----------------------------------------
 BYTE   W96
//  #04 //004   ----------------------------------------
 BYTE   W96
//  #04 //005   ----------------------------------------
 BYTE   W96
//  #04 //006   ----------------------------------------
 BYTE   W96
//  #04 //007   ----------------------------------------
 BYTE   W96
//  #04 //008   ----------------------------------------
 BYTE   W96
//  #04 //009   ----------------------------------------
 BYTE   W96
//  #04 //010   ----------------------------------------
 BYTE   W96
//  #04 //011   ----------------------------------------
 BYTE   W96
//  #04 //012   ----------------------------------------
 BYTE   W96
//  #04 //013   ----------------------------------------
 BYTE   W96
//  #04 //014   ----------------------------------------
 BYTE   W96
//  #04 //015   ----------------------------------------
 BYTE   W96
//  #04 //016   ----------------------------------------
 BYTE   W96
//  #04 //017   ----------------------------------------
 BYTE   W96
//  #04 //018   ----------------------------------------
 BYTE   W96
//  #04 //019   ----------------------------------------
 BYTE   W96
//  #04 //020   ----------------------------------------
Label_01003042:
 BYTE   W12
 BYTE   N06  An3  v085
 BYTE   W06
 BYTE   Cn4
 BYTE   W06
 BYTE   Dn4
 BYTE   W06
 BYTE   N78  Fn4
 BYTE   W66
 BYTE   PEND 
//  #04 //021   ----------------------------------------
 BYTE   W12
 BYTE   N06  Bn3
 BYTE   W06
 BYTE   Dn4
 BYTE   W06
 BYTE   En4
 BYTE   W06
 BYTE   N78  Gn4
 BYTE   W66
//  #04 //022   ----------------------------------------
 BYTE   PATT
  POIN2 Label_01003042
//  #04 //023   ----------------------------------------
 BYTE   W96
//  #04 //024   ----------------------------------------
Label_01003060:
 BYTE   W12
 BYTE   N06  As3  v085
 BYTE   W06
 BYTE   Cs4
 BYTE   W06
 BYTE   Ds4
 BYTE   W06
 BYTE   N78  Fs4
 BYTE   W66
 BYTE   PEND 
//  #04 //025   ----------------------------------------
 BYTE   W12
 BYTE   N06  Cn4
 BYTE   W06
 BYTE   Ds4
 BYTE   W06
 BYTE   Fn4
 BYTE   W06
 BYTE   N78  Gs4
 BYTE   W66
//  #04 //026   ----------------------------------------
 BYTE   PATT
  POIN2 Label_01003060
//  #04 //027   ----------------------------------------
 BYTE   W96
//  #04 //028   ----------------------------------------
 BYTE   W96
//  #04 //029   ----------------------------------------
 BYTE   GoTo
  POIN2 Label_01003026
 BYTE   FINE

//**************** Track 5 (Midi-Chn.4) ****************//

StreetFighterAlpha2SakuraTak_005:
//  #05 //000   ----------------------------------------
 BYTE   KEYSH   StreetFighterAlpha2SakuraTak_key+0
Label_01003D52:
 BYTE   VOICE   18
 BYTE   VOL   44*StreetFighterAlpha2SakuraTak_mvl/mxv
 BYTE   PAN   c_v-51
 BYTE   BENDR  12
 BYTE   W96
//  #05 //001   ----------------------------------------
 BYTE   W96
//  #05 //002   ----------------------------------------
 BYTE   W96
//  #05 //003   ----------------------------------------
 BYTE   W12
 BYTE   N03  As5  v085
 BYTE   W04
 BYTE   Cs6
 BYTE   W03
 BYTE   As5
 BYTE   W05
 BYTE   Cs6
 BYTE   W03
 BYTE   As5
 BYTE   W04
 BYTE   Cs6
 BYTE   W05
 BYTE   As5
 BYTE   W04
 BYTE   Cs6
 BYTE   W03
 BYTE   As5
 BYTE   W05
 BYTE   Cs6
 BYTE   W03
 BYTE   As5
 BYTE   W04
 BYTE   Cs6
 BYTE   W05
 BYTE   As5
 BYTE   W03
 BYTE   Cs6
 BYTE   W06
 BYTE   Cn6
 BYTE   W04
 BYTE   Bn5
 BYTE   W05
 BYTE   As5
 BYTE   W04
 BYTE   An5
 BYTE   W05
 BYTE   Gs5
 BYTE   W04
 BYTE   Gn5
 BYTE   W03
 BYTE   Fs5
 BYTE   W02
//  #05 //004   ----------------------------------------
 BYTE   W03
 BYTE   Fn5
 BYTE   W03
 BYTE   N07  En5
 BYTE   W06
 BYTE   N12  Fn5
 BYTE   N12  Cs5
 BYTE   W12
 BYTE   N06  Ds5
 BYTE   W06
 BYTE   N12  Fn5
 BYTE   N12  Cs5
 BYTE   W12
 BYTE   N06  Ds5
 BYTE   W06
 BYTE   N12  Fn5
 BYTE   N12  Cs5
 BYTE   W24
 BYTE   Fn5
 BYTE   N12  Cs5
 BYTE   W18
 BYTE   N18  Fn5
 BYTE   N18  Cs5
 BYTE   W06
//  #05 //005   ----------------------------------------
 BYTE   W12
 BYTE   N12  Ds5
 BYTE   N12  Gs5
 BYTE   W12
 BYTE   N06  Ds5
 BYTE   N06  Gs5
 BYTE   W06
 BYTE   Ds5
 BYTE   N06  Gs5
 BYTE   W12
 BYTE   N18  Ds5
 BYTE   N18  Gs5
 BYTE   W30
 BYTE   N12  Ds5
 BYTE   N12  Gs5
 BYTE   W18
 BYTE   N18  Ds5
 BYTE   N18  Gs5
 BYTE   W06
//  #05 //006   ----------------------------------------
 BYTE   W12
 BYTE   N96
 BYTE   N96  Ds5
 BYTE   W84
//  #05 //007   ----------------------------------------
 BYTE   W12
 BYTE   Gs5
 BYTE   N96  Cs5
 BYTE   W84
//  #05 //008   ----------------------------------------
 BYTE   W12
 BYTE   N12  Fn5
 BYTE   N12  Cs5
 BYTE   W12
 BYTE   N06  Ds5
 BYTE   W06
 BYTE   N12  Fn5
 BYTE   N12  Cs5
 BYTE   W12
 BYTE   N06  Ds5
 BYTE   W06
 BYTE   N12  Fn5
 BYTE   N12  Cs5
 BYTE   W24
 BYTE   Cs5
 BYTE   N12  Fn5
 BYTE   W18
 BYTE   N18  Cs5
 BYTE   N18  Fn5
 BYTE   W06
//  #05 //009   ----------------------------------------
 BYTE   W12
 BYTE   N12  Ds5
 BYTE   N12  Gs5
 BYTE   W12
 BYTE   N06
 BYTE   N06  Ds5
 BYTE   W06
 BYTE   Ds5
 BYTE   N06  Gs5
 BYTE   W12
 BYTE   N18  Ds5
 BYTE   N18  Gs5
 BYTE   W30
 BYTE   N12
 BYTE   N12  Ds5
 BYTE   W18
 BYTE   N18  Gs5
 BYTE   N18  Ds5
 BYTE   W06
//  #05 //010   ----------------------------------------
 BYTE   W12
 BYTE   N96
 BYTE   N96  Gs5
 BYTE   W84
//  #05 //011   ----------------------------------------
 BYTE   W96
//  #05 //012   ----------------------------------------
 BYTE   N12  Fn4
 BYTE   W12
 BYTE   N18  Gs4
 BYTE   W18
 BYTE   N06  As4
 BYTE   W18
 BYTE   N12
 BYTE   W48
//  #05 //013   ----------------------------------------
 BYTE   W12
 BYTE   N18  Gs4
 BYTE   W18
 BYTE   N06  As4
 BYTE   W18
 BYTE   N12
 BYTE   W48
//  #05 //014   ----------------------------------------
 BYTE   W12
 BYTE   N18  Gs4
 BYTE   W18
 BYTE   N06  As4
 BYTE   W18
 BYTE   TIE
 BYTE   W48
//  #05 //015   ----------------------------------------
 BYTE   W96
//  #05 //016   ----------------------------------------
 BYTE   W12
 BYTE   EOT
 BYTE   N72  Cs5
 BYTE   W72
 BYTE   N24  Ds5
 BYTE   W12
//  #05 //017   ----------------------------------------
 BYTE   W12
 BYTE   N72  Fn5
 BYTE   W78
 BYTE   N06  Cs5
 BYTE   W06
//  #05 //018   ----------------------------------------
 BYTE   Cn5
 BYTE   W06
 BYTE   As4
 BYTE   W06
 BYTE   N18  Cn5
 BYTE   W18
 BYTE   N06  Cs5
 BYTE   W18
 BYTE   N12  As4
 BYTE   W24
 BYTE   Fn5
 BYTE   W12
 BYTE   Cn5
 BYTE   W12
//  #05 //019   ----------------------------------------
 BYTE   Cs5
 BYTE   W12
 BYTE   N18  As4
 BYTE   W18
 BYTE   Gs4
 BYTE   W18
 BYTE   N12  As4
 BYTE   W48
//  #05 //020   ----------------------------------------
 BYTE   W12
 BYTE   N96  Fn4
 BYTE   N96  An4
 BYTE   W84
//  #05 //021   ----------------------------------------
 BYTE   W12
 BYTE   Gn4
 BYTE   N96  Bn4
 BYTE   W84
//  #05 //022   ----------------------------------------
 BYTE   W12
 BYTE   An4
 BYTE   N96  Cn5
 BYTE   W84
//  #05 //023   ----------------------------------------
 BYTE   W96
//  #05 //024   ----------------------------------------
 BYTE   W12
 BYTE   As4
 BYTE   N96  Fs4
 BYTE   W84
//  #05 //025   ----------------------------------------
 BYTE   W12
 BYTE   Gs4
 BYTE   N96  Cn5
 BYTE   W84
//  #05 //026   ----------------------------------------
 BYTE   W12
 BYTE   As4
 BYTE   N96  Cs5
 BYTE   W84
//  #05 //027   ----------------------------------------
 BYTE   W96
//  #05 //028   ----------------------------------------
 BYTE   W96
//  #05 //029   ----------------------------------------
 BYTE   GoTo
  POIN2 Label_01003D52
 BYTE   FINE

//**************** Track 6 (Midi-Chn.5) ****************//

StreetFighterAlpha2SakuraTak_006:
//  #06 //000   ----------------------------------------
 BYTE   KEYSH   StreetFighterAlpha2SakuraTak_key+0
Label_01003146:
 BYTE   VOICE   49
 BYTE   VOL   72*StreetFighterAlpha2SakuraTak_mvl/mxv
 BYTE   PAN   c_v+31
 BYTE   BENDR  12
 BYTE   W12
 BYTE   N96  Fn3  v085
 BYTE   W84
//  #06 //001   ----------------------------------------
 BYTE   W12
 BYTE   Cs3
 BYTE   W84
//  #06 //002   ----------------------------------------
Label_01003156:
 BYTE   W12
 BYTE   N96  Fn3  v085
 BYTE   W84
 BYTE   PEND 
//  #06 //003   ----------------------------------------
 BYTE   W12
 BYTE   Gs3
 BYTE   N96  Fn3
 BYTE   W84
//  #06 //004   ----------------------------------------
 BYTE   W96
//  #06 //005   ----------------------------------------
 BYTE   W96
//  #06 //006   ----------------------------------------
 BYTE   W96
//  #06 //007   ----------------------------------------
 BYTE   W96
//  #06 //008   ----------------------------------------
 BYTE   W96
//  #06 //009   ----------------------------------------
 BYTE   W96
//  #06 //010   ----------------------------------------
 BYTE   W96
//  #06 //011   ----------------------------------------
 BYTE   W96
//  #06 //012   ----------------------------------------
 BYTE   PATT
  POIN2 Label_01003156
//  #06 //013   ----------------------------------------
 BYTE   W12
 BYTE   N96  Ds3  v085
 BYTE   W84
//  #06 //014   ----------------------------------------
 BYTE   PATT
  POIN2 Label_01003156
//  #06 //015   ----------------------------------------
Label_01003178:
 BYTE   W12
 BYTE   N96  Gs3  v085
 BYTE   W84
 BYTE   PEND 
//  #06 //016   ----------------------------------------
 BYTE   PATT
  POIN2 Label_01003156
//  #06 //017   ----------------------------------------
 BYTE   PATT
  POIN2 Label_01003178
//  #06 //018   ----------------------------------------
 BYTE   W12
 BYTE   TIE  As3  v085
 BYTE   W84
//  #06 //019   ----------------------------------------
 BYTE   W66
 BYTE   EOT
 BYTE   W30
//  #06 //020   ----------------------------------------
 BYTE   W96
//  #06 //021   ----------------------------------------
 BYTE   W96
//  #06 //022   ----------------------------------------
 BYTE   W96
//  #06 //023   ----------------------------------------
 BYTE   W96
//  #06 //024   ----------------------------------------
 BYTE   W96
//  #06 //025   ----------------------------------------
 BYTE   W96
//  #06 //026   ----------------------------------------
 BYTE   W96
//  #06 //027   ----------------------------------------
 BYTE   W96
//  #06 //028   ----------------------------------------
 BYTE   W96
//  #06 //029   ----------------------------------------
 BYTE   GoTo
  POIN2 Label_01003146
 BYTE   FINE

//**************** Track 7 (Midi-Chn.6) ****************//

StreetFighterAlpha2SakuraTak_007:
//  #07 //000   ----------------------------------------
 BYTE   KEYSH   StreetFighterAlpha2SakuraTak_key+0
Label_0100308A:
 BYTE   VOICE   61
 BYTE   VOL   56*StreetFighterAlpha2SakuraTak_mvl/mxv
 BYTE   PAN   c_v+37
 BYTE   BENDR  12
 BYTE   W96
//  #07 //001   ----------------------------------------
 BYTE   W96
//  #07 //002   ----------------------------------------
 BYTE   W96
//  #07 //003   ----------------------------------------
 BYTE   W96
//  #07 //004   ----------------------------------------
 BYTE   W96
//  #07 //005   ----------------------------------------
 BYTE   W96
//  #07 //006   ----------------------------------------
 BYTE   W60
 BYTE   N12  Gs2  v085
 BYTE   W12
 BYTE   As2
 BYTE   W12
 BYTE   Cs3
 BYTE   W12
//  #07 //007   ----------------------------------------
 BYTE   As2
 BYTE   W12
 BYTE   N18  Ds3
 BYTE   W18
 BYTE   Ds3
 BYTE   W18
 BYTE   N60  Cs3
 BYTE   W48
//  #07 //008   ----------------------------------------
 BYTE   W96
//  #07 //009   ----------------------------------------
 BYTE   W96
//  #07 //010   ----------------------------------------
 BYTE   W96
//  #07 //011   ----------------------------------------
 BYTE   W12
 BYTE   N24  As2
 BYTE   W24
 BYTE   Cn3
 BYTE   W24
 BYTE   Cs3
 BYTE   W24
 BYTE   Fn3
 BYTE   W12
//  #07 //012   ----------------------------------------
 BYTE   W96
//  #07 //013   ----------------------------------------
 BYTE   W96
//  #07 //014   ----------------------------------------
 BYTE   W24
 BYTE   N12  Gs4
 BYTE   W12
 BYTE   N24
 BYTE   W24
 BYTE   N18
 BYTE   W18
 BYTE   N06
 BYTE   W18
//  #07 //015   ----------------------------------------
 BYTE   N12  As4
 BYTE   W24
 BYTE   Gs4
 BYTE   W12
 BYTE   N24
 BYTE   W24
 BYTE   N18
 BYTE   W18
 BYTE   N06
 BYTE   W18
//  #07 //016   ----------------------------------------
 BYTE   N12  As4
 BYTE   W96
//  #07 //017   ----------------------------------------
 BYTE   W96
//  #07 //018   ----------------------------------------
 BYTE   W96
//  #07 //019   ----------------------------------------
 BYTE   W96
//  #07 //020   ----------------------------------------
 BYTE   W96
//  #07 //021   ----------------------------------------
 BYTE   W96
//  #07 //022   ----------------------------------------
 BYTE   W96
//  #07 //023   ----------------------------------------
 BYTE   W96
//  #07 //024   ----------------------------------------
 BYTE   W96
//  #07 //025   ----------------------------------------
 BYTE   W96
//  #07 //026   ----------------------------------------
 BYTE   W96
//  #07 //027   ----------------------------------------
 BYTE   W12
 BYTE   N96  As3
 BYTE   W84
//  #07 //028   ----------------------------------------
 BYTE   W12
 BYTE   N24
 BYTE   W24
 BYTE   Gs3
 BYTE   W24
 BYTE   N18  Fs3
 BYTE   W18
 BYTE   Fn3
 BYTE   W18
//  #07 //029   ----------------------------------------
 BYTE   GoTo
  POIN2 Label_0100308A
 BYTE   FINE

//**************** Track 8 (Midi-Chn.7) ****************//

StreetFighterAlpha2SakuraTak_008:
//  #08 //000   ----------------------------------------
 BYTE   KEYSH   StreetFighterAlpha2SakuraTak_key+0
Label_01025B92:
 BYTE   VOICE   34
 BYTE   VOL   64*StreetFighterAlpha2SakuraTak_mvl/mxv
 BYTE   BENDR  12
 BYTE   W12
 BYTE   N96  Fs1  v085
 BYTE   W84
//  #08 //001   ----------------------------------------
Label_01025B9D:
 BYTE   W12
 BYTE   N96  Gs1  v085
 BYTE   W84
 BYTE   PEND 
//  #08 //002   ----------------------------------------
 BYTE   W12
 BYTE   Fs1
 BYTE   W84
//  #08 //003   ----------------------------------------
 BYTE   PATT
  POIN2 Label_01025B9D
//  #08 //004   ----------------------------------------
 BYTE   W12
 BYTE   N18  Fs1  v085
 BYTE   W18
 BYTE   N06
 BYTE   W06
 BYTE   N12
 BYTE   W12
 BYTE   N24
 BYTE   W24
 BYTE   N12
 BYTE   W12
 BYTE   Fs1
 BYTE   W12
//  #08 //005   ----------------------------------------
 BYTE   N06
 BYTE   W06
 BYTE   Fs1
 BYTE   W06
 BYTE   N18  Gs1
 BYTE   W18
 BYTE   N06
 BYTE   W06
 BYTE   N12
 BYTE   W12
 BYTE   N24
 BYTE   W24
 BYTE   N12
 BYTE   W12
 BYTE   Gs1
 BYTE   W12
//  #08 //006   ----------------------------------------
 BYTE   N06
 BYTE   W06
 BYTE   Gs1
 BYTE   W06
 BYTE   N18  As1
 BYTE   W18
 BYTE   N24
 BYTE   W30
 BYTE   N12
 BYTE   W12
 BYTE   N06
 BYTE   W06
 BYTE   N12
 BYTE   W12
 BYTE   N06
 BYTE   W06
//  #08 //007   ----------------------------------------
 BYTE   N12  Cs2
 BYTE   W12
 BYTE   N18  As1
 BYTE   W18
 BYTE   N24
 BYTE   W30
 BYTE   N12
 BYTE   W12
 BYTE   N06
 BYTE   W06
 BYTE   N12
 BYTE   W12
 BYTE   N06
 BYTE   W06
//  #08 //008   ----------------------------------------
 BYTE   N12  Cs2
 BYTE   W12
 BYTE   N18  Fs1
 BYTE   W18
 BYTE   Fs1
 BYTE   W18
 BYTE   N24
 BYTE   W24
 BYTE   N06
 BYTE   W06
 BYTE   N12
 BYTE   W12
 BYTE   N06
 BYTE   W06
//  #08 //009   ----------------------------------------
 BYTE   N12
 BYTE   W12
 BYTE   N18  Gs1
 BYTE   W18
 BYTE   Gs1
 BYTE   W18
 BYTE   N24
 BYTE   W24
 BYTE   N06
 BYTE   W06
 BYTE   N12
 BYTE   W12
 BYTE   N06
 BYTE   W06
//  #08 //010   ----------------------------------------
 BYTE   N12
 BYTE   W12
 BYTE   N18  As1
 BYTE   W18
 BYTE   N24
 BYTE   W30
 BYTE   N12
 BYTE   W12
 BYTE   N06
 BYTE   W06
 BYTE   N12
 BYTE   W12
 BYTE   N06
 BYTE   W06
//  #08 //011   ----------------------------------------
 BYTE   N12  Gs1
 BYTE   W12
 BYTE   As1
 BYTE   W12
 BYTE   As1
 BYTE   W12
 BYTE   Gs1
 BYTE   W12
 BYTE   Gs1
 BYTE   W12
 BYTE   Fs1
 BYTE   W12
 BYTE   Fs1
 BYTE   W12
 BYTE   Cs2
 BYTE   W12
//  #08 //012   ----------------------------------------
 BYTE   Cs2
 BYTE   W12
 BYTE   N96  Fs1
 BYTE   W84
//  #08 //013   ----------------------------------------
 BYTE   PATT
  POIN2 Label_01025B9D
//  #08 //014   ----------------------------------------
 BYTE   W12
 BYTE   N18  As1  v085
 BYTE   W18
 BYTE   As1
 BYTE   W18
 BYTE   N48
 BYTE   W48
//  #08 //015   ----------------------------------------
 BYTE   N12  Gs1
 BYTE   W12
 BYTE   N18  As1
 BYTE   W18
 BYTE   Cn2
 BYTE   W18
 BYTE   N24  Cs2
 BYTE   W24
 BYTE   N12  Cn2
 BYTE   W12
 BYTE   As1
 BYTE   W12
//  #08 //016   ----------------------------------------
 BYTE   Gs1
 BYTE   W12
 BYTE   N18  Fs1
 BYTE   W18
 BYTE   Fs1
 BYTE   W18
 BYTE   N24
 BYTE   W24
 BYTE   N12
 BYTE   W12
 BYTE   Fs1
 BYTE   W12
//  #08 //017   ----------------------------------------
 BYTE   Fs1
 BYTE   W12
 BYTE   N18  Gs1
 BYTE   W18
 BYTE   Gs1
 BYTE   W18
 BYTE   N24
 BYTE   W24
 BYTE   N12
 BYTE   W12
 BYTE   Gs1
 BYTE   W12
//  #08 //018   ----------------------------------------
 BYTE   Gs1
 BYTE   W12
 BYTE   N24  As1
 BYTE   W24
 BYTE   N06
 BYTE   W06
 BYTE   N18
 BYTE   W18
 BYTE   N12
 BYTE   W12
 BYTE   N06
 BYTE   W06
 BYTE   N12
 BYTE   W12
 BYTE   N06
 BYTE   W06
//  #08 //019   ----------------------------------------
 BYTE   N12
 BYTE   W12
 BYTE   N18
 BYTE   W18
 BYTE   Gs1
 BYTE   W18
 BYTE   N12  As1
 BYTE   W48
//  #08 //020   ----------------------------------------
 BYTE   W12
 BYTE   N18  Dn2
 BYTE   W18
 BYTE   Dn2
 BYTE   W18
 BYTE   N24
 BYTE   W24
 BYTE   N12
 BYTE   W12
 BYTE   Dn2
 BYTE   W12
//  #08 //021   ----------------------------------------
 BYTE   Dn2
 BYTE   W12
 BYTE   N18  En2
 BYTE   W18
 BYTE   En2
 BYTE   W18
 BYTE   N12
 BYTE   W18
 BYTE   N06
 BYTE   W06
 BYTE   N12  En1
 BYTE   W12
 BYTE   En2
 BYTE   W12
//  #08 //022   ----------------------------------------
 BYTE   En1
 BYTE   W12
 BYTE   N18  Fn1
 BYTE   W18
 BYTE   Fn1
 BYTE   W18
 BYTE   N24
 BYTE   W24
 BYTE   N12
 BYTE   W12
 BYTE   Fn1
 BYTE   W12
//  #08 //023   ----------------------------------------
 BYTE   Cn2
 BYTE   W12
 BYTE   Gn1
 BYTE   W12
 BYTE   Gn1
 BYTE   W12
 BYTE   Gn1
 BYTE   W12
 BYTE   N06
 BYTE   W06
 BYTE   N12
 BYTE   W12
 BYTE   N06
 BYTE   W06
 BYTE   N12
 BYTE   W12
 BYTE   Gn1
 BYTE   W12
//  #08 //024   ----------------------------------------
 BYTE   Dn2
 BYTE   W12
 BYTE   As1
 BYTE   W12
 BYTE   N06
 BYTE   W06
 BYTE   N12
 BYTE   W12
 BYTE   N06
 BYTE   W06
 BYTE   N12
 BYTE   W18
 BYTE   N06
 BYTE   W06
 BYTE   N12  Fn2
 BYTE   W12
 BYTE   Fn1
 BYTE   W12
//  #08 //025   ----------------------------------------
 BYTE   Fs1
 BYTE   W12
 BYTE   Fn1
 BYTE   W12
 BYTE   N06
 BYTE   W06
 BYTE   N12
 BYTE   W12
 BYTE   N06
 BYTE   W06
 BYTE   N12
 BYTE   W18
 BYTE   N06
 BYTE   W06
 BYTE   N12
 BYTE   W12
 BYTE   Fn1
 BYTE   W12
//  #08 //026   ----------------------------------------
 BYTE   Cn2
 BYTE   W12
 BYTE   Fs1
 BYTE   W12
 BYTE   N06
 BYTE   W06
 BYTE   N12
 BYTE   W12
 BYTE   N06
 BYTE   W06
 BYTE   N12
 BYTE   W12
 BYTE   Fs1
 BYTE   W12
 BYTE   N06
 BYTE   W06
 BYTE   N12
 BYTE   W12
 BYTE   N06
 BYTE   W06
//  #08 //027   ----------------------------------------
 BYTE   N12
 BYTE   W12
 BYTE   Gs1
 BYTE   W12
 BYTE   N06
 BYTE   W06
 BYTE   N12
 BYTE   W12
 BYTE   N06
 BYTE   W06
 BYTE   N12
 BYTE   W12
 BYTE   Gs1
 BYTE   W12
 BYTE   N06
 BYTE   W06
 BYTE   N12
 BYTE   W12
 BYTE   N06
 BYTE   W06
//  #08 //028   ----------------------------------------
 BYTE   N12  Cs2
 BYTE   W12
 BYTE   N24  Gs1
 BYTE   W24
 BYTE   As1
 BYTE   W24
 BYTE   N18  Fn1
 BYTE   W18
 BYTE   Ds1
 BYTE   W18
//  #08 //029   ----------------------------------------
 BYTE   GoTo
  POIN2 Label_01025B92
 BYTE   FINE

//**************** Track 9 (Midi-Chn.8) ****************//

StreetFighterAlpha2SakuraTak_009:
//  #09 //000   ----------------------------------------
 BYTE   KEYSH   StreetFighterAlpha2SakuraTak_key+0
Label_01025E72:
 BYTE   VOICE   124
 BYTE   VOL   81*StreetFighterAlpha2SakuraTak_mvl/mxv
 BYTE   BENDR  12
 BYTE   N06  Dn2  v085
 BYTE   N06  As1
 BYTE   W06
 BYTE   As1
 BYTE   N06  Dn2
 BYTE   W06
 BYTE   N24  As1
 BYTE   N36  Dn2
 BYTE   W42
 BYTE   N06
 BYTE   W06
 BYTE   N36
 BYTE   W36
//  #09 //001   ----------------------------------------
 BYTE   W12
 BYTE   Dn2
 BYTE   W42
 BYTE   N06
 BYTE   W06
 BYTE   N30
 BYTE   W24
 BYTE   N18  En1
 BYTE   W12
//  #09 //002   ----------------------------------------
 BYTE   W06
 BYTE   N06  Dn2
 BYTE   W06
 BYTE   N24
 BYTE   W24
 BYTE   Dn2  v074
 BYTE   W24
 BYTE   Dn2
 BYTE   W24
 BYTE   Dn2
 BYTE   W12
//  #09 //003   ----------------------------------------
 BYTE   W12
 BYTE   Dn2
 BYTE   N06  En1  v085
 BYTE   W12
 BYTE   En1
 BYTE   W12
 BYTE   N24  Dn2  v074
 BYTE   N06  En1  v085
 BYTE   W12
 BYTE   En1
 BYTE   W06
 BYTE   En1
 BYTE   W06
 BYTE   N24  Dn2  v074
 BYTE   W06
 BYTE   N06  En1  v085
 BYTE   W06
 BYTE   En1
 BYTE   W12
 BYTE   En1
 BYTE   N24  Dn2  v074
 BYTE   W06
 BYTE   N06  En1  v085
 BYTE   W06
//  #09 //004   ----------------------------------------
 BYTE   En1
 BYTE   W06
 BYTE   En1
 BYTE   W06
 BYTE   Fs1
 BYTE   N24  Dn2  v074
 BYTE   W06
 BYTE   N06  Fs1  v085
 BYTE   W06
 BYTE   As1
 BYTE   W12
 BYTE   Fs1
 BYTE   N06  En1
 BYTE   W06
 BYTE   Fs1
 BYTE   W06
 BYTE   As1
 BYTE   W06
 BYTE   Dn2
 BYTE   W06
 BYTE   Fs1
 BYTE   N12  Dn2
 BYTE   W06
 BYTE   N06  Fs1
 BYTE   W06
 BYTE   As1
 BYTE   N24  Dn2
 BYTE   W12
 BYTE   N06  En1
 BYTE   N06  Fs1
 BYTE   W06
 BYTE   Fs1
 BYTE   W06
//  #09 //005   ----------------------------------------
 BYTE   As1
 BYTE   N12  Dn2
 BYTE   W12
 BYTE   N06  Fs1
 BYTE   N24  Dn2
 BYTE   W06
 BYTE   N06  Fs1
 BYTE   W06
 BYTE   As1
 BYTE   W12
 BYTE   Fs1
 BYTE   N06  En1
 BYTE   W06
 BYTE   Fs1
 BYTE   W06
 BYTE   As1
 BYTE   W06
 BYTE   Dn2
 BYTE   W06
 BYTE   N12
 BYTE   N06  Fs1
 BYTE   W06
 BYTE   Fs1
 BYTE   W06
 BYTE   As1
 BYTE   N24  Dn2
 BYTE   W12
 BYTE   N06  En1
 BYTE   N06  Fs1
 BYTE   W06
 BYTE   Fs1
 BYTE   W06
//  #09 //006   ----------------------------------------
 BYTE   As1
 BYTE   N12  Dn2
 BYTE   W12
 BYTE   N24
 BYTE   N06  Fs1
 BYTE   W06
 BYTE   Fs1
 BYTE   W06
 BYTE   As1
 BYTE   W12
 BYTE   En1
 BYTE   N06  Fs1
 BYTE   W06
 BYTE   Fs1
 BYTE   W06
 BYTE   As1
 BYTE   W06
 BYTE   Dn2
 BYTE   W06
 BYTE   Fs1
 BYTE   N12  Dn2
 BYTE   W06
 BYTE   N06  Fs1
 BYTE   W06
 BYTE   N24  Dn2
 BYTE   N06  As1
 BYTE   W12
 BYTE   En1
 BYTE   N06  Fs1
 BYTE   W06
 BYTE   Fs1
 BYTE   W06
//  #09 //007   ----------------------------------------
Label_01025F44:
 BYTE   N06  As1  v085
 BYTE   N12  Dn2
 BYTE   W12
 BYTE   N24
 BYTE   N06  Fs1
 BYTE   W06
 BYTE   Fs1
 BYTE   W06
 BYTE   As1
 BYTE   W12
 BYTE   En1
 BYTE   N06  Fs1
 BYTE   W06
 BYTE   Fs1
 BYTE   W06
 BYTE   As1
 BYTE   W06
 BYTE   Dn2
 BYTE   W06
 BYTE   Fs1
 BYTE   N12  Dn2
 BYTE   W06
 BYTE   N06  Fs1
 BYTE   W06
 BYTE   N24  Dn2
 BYTE   N06  As1
 BYTE   W12
 BYTE   Fs1
 BYTE   N06  En1
 BYTE   W06
 BYTE   Fs1
 BYTE   W06
 BYTE   PEND 
//  #09 //008   ----------------------------------------
 BYTE   As1
 BYTE   N06  En1
 BYTE   N12  Dn2
 BYTE   W06
 BYTE   N06  En1
 BYTE   W06
 BYTE   N24  Dn2
 BYTE   N06  Fs1
 BYTE   W06
 BYTE   Fs1
 BYTE   W06
 BYTE   As1
 BYTE   W12
 BYTE   En1
 BYTE   N06  Fs1
 BYTE   W06
 BYTE   Fs1
 BYTE   W06
 BYTE   As1
 BYTE   W06
 BYTE   Dn2
 BYTE   W06
 BYTE   Fs1
 BYTE   N12  Dn2
 BYTE   W06
 BYTE   N06  Fs1
 BYTE   W06
 BYTE   N24  Dn2
 BYTE   N06  As1
 BYTE   W12
 BYTE   En1
 BYTE   N06  Fs1
 BYTE   W06
 BYTE   Fs1
 BYTE   W06
//  #09 //009   ----------------------------------------
 BYTE   N12  Dn2
 BYTE   N06  As1
 BYTE   W12
 BYTE   N24  Dn2
 BYTE   N06  Fs1
 BYTE   W06
 BYTE   Fs1
 BYTE   W06
 BYTE   As1
 BYTE   W12
 BYTE   En1
 BYTE   N06  Fs1
 BYTE   W06
 BYTE   Fs1
 BYTE   W06
 BYTE   As1
 BYTE   W06
 BYTE   Dn2
 BYTE   W06
 BYTE   Fs1
 BYTE   N12  Dn2
 BYTE   W06
 BYTE   N06  Fs1
 BYTE   W06
 BYTE   As1
 BYTE   N24  Dn2
 BYTE   W12
 BYTE   N06  En1
 BYTE   N06  Fs1
 BYTE   W06
 BYTE   Fs1
 BYTE   W06
//  #09 //010   ----------------------------------------
Label_01025FC7:
 BYTE   N12  Dn2  v085
 BYTE   N06  As1
 BYTE   W12
 BYTE   Fs1
 BYTE   N24  Dn2
 BYTE   W06
 BYTE   N06  Fs1
 BYTE   W06
 BYTE   As1
 BYTE   W12
 BYTE   Fs1
 BYTE   N06  En1
 BYTE   W06
 BYTE   Fs1
 BYTE   W06
 BYTE   As1
 BYTE   W06
 BYTE   Dn2
 BYTE   W06
 BYTE   N12
 BYTE   N06  Fs1
 BYTE   W06
 BYTE   Fs1
 BYTE   W06
 BYTE   N24  Dn2
 BYTE   N06  As1
 BYTE   W12
 BYTE   Fs1
 BYTE   N06  En1
 BYTE   W06
 BYTE   Fs1
 BYTE   W06
 BYTE   PEND 
//  #09 //011   ----------------------------------------
 BYTE   As1
 BYTE   N12  Dn2
 BYTE   W12
 BYTE   N24
 BYTE   N06  Fs1
 BYTE   W06
 BYTE   Fs1
 BYTE   W06
 BYTE   As1
 BYTE   W12
 BYTE   Fs1
 BYTE   N06  En1
 BYTE   W06
 BYTE   Fs1
 BYTE   W06
 BYTE   As1
 BYTE   W06
 BYTE   Dn2
 BYTE   W06
 BYTE   N12
 BYTE   N06  Fs1
 BYTE   W06
 BYTE   Fs1
 BYTE   W06
 BYTE   As1
 BYTE   N24  Dn2
 BYTE   W12
 BYTE   N06  En1
 BYTE   N06  Fs1
 BYTE   W06
 BYTE   Fs1
 BYTE   W06
//  #09 //012   ----------------------------------------
 BYTE   N12  Dn2
 BYTE   N06  As1
 BYTE   N06  En1
 BYTE   W06
 BYTE   En1
 BYTE   W06
 BYTE   Fs1
 BYTE   N24  Dn2
 BYTE   W06
 BYTE   N06  Fs1
 BYTE   W06
 BYTE   As1
 BYTE   W12
 BYTE   Fs1
 BYTE   W06
 BYTE   Fs1
 BYTE   W06
 BYTE   As1
 BYTE   W06
 BYTE   Dn2
 BYTE   W06
 BYTE   N12
 BYTE   N06  Fs1
 BYTE   W06
 BYTE   Fs1
 BYTE   W06
 BYTE   N24  Dn2
 BYTE   N06  As1
 BYTE   W12
 BYTE   Fs1
 BYTE   N06  En1
 BYTE   W06
 BYTE   Fs1
 BYTE   W06
//  #09 //013   ----------------------------------------
 BYTE   N12  Dn2
 BYTE   N06  As1
 BYTE   W12
 BYTE   Fs1
 BYTE   N24  Dn2
 BYTE   W06
 BYTE   N06  Fs1
 BYTE   W06
 BYTE   As1
 BYTE   W12
 BYTE   Fs1
 BYTE   W06
 BYTE   Fs1
 BYTE   W06
 BYTE   As1
 BYTE   W06
 BYTE   Dn2
 BYTE   W06
 BYTE   N12
 BYTE   N06  Fs1
 BYTE   W06
 BYTE   Fs1
 BYTE   W06
 BYTE   As1
 BYTE   N24  Dn2
 BYTE   W12
 BYTE   N06  Fs1
 BYTE   N06  En1
 BYTE   W06
 BYTE   Fs1
 BYTE   W06
//  #09 //014   ----------------------------------------
 BYTE   PATT
  POIN2 Label_01025F44
//  #09 //015   ----------------------------------------
 BYTE   PATT
  POIN2 Label_01025FC7
//  #09 //016   ----------------------------------------
 BYTE   N06  As1  v085
 BYTE   N12  Dn2
 BYTE   W12
 BYTE   N06  Fs1
 BYTE   N24  Dn2
 BYTE   W06
 BYTE   N06  Fs1
 BYTE   W06
 BYTE   As1
 BYTE   W12
 BYTE   En1
 BYTE   N06  Fs1
 BYTE   W06
 BYTE   Fs1
 BYTE   W06
 BYTE   As1
 BYTE   W06
 BYTE   Dn2
 BYTE   W06
 BYTE   N12
 BYTE   N06  Fs1
 BYTE   W06
 BYTE   Fs1
 BYTE   W06
 BYTE   N24  Dn2
 BYTE   N06  As1
 BYTE   W12
 BYTE   En1
 BYTE   N06  Fs1
 BYTE   W06
 BYTE   Fs1
 BYTE   W06
//  #09 //017   ----------------------------------------
 BYTE   N12  Dn2
 BYTE   N06  As1
 BYTE   W12
 BYTE   Fs1
 BYTE   N24  Dn2
 BYTE   W06
 BYTE   N06  Fs1
 BYTE   W06
 BYTE   As1
 BYTE   W12
 BYTE   Fs1
 BYTE   N06  En1
 BYTE   W06
 BYTE   Fs1
 BYTE   W06
 BYTE   As1
 BYTE   W06
 BYTE   Dn2
 BYTE   W06
 BYTE   N12
 BYTE   N06  Fs1
 BYTE   W06
 BYTE   Fs1
 BYTE   W06
 BYTE   As1
 BYTE   N24  Dn2
 BYTE   W12
 BYTE   N06  En1
 BYTE   N06  Fs1
 BYTE   W06
 BYTE   Fs1
 BYTE   W06
//  #09 //018   ----------------------------------------
 BYTE   N12  Dn2
 BYTE   N06  As1
 BYTE   W12
 BYTE   N12  En1
 BYTE   N24  Dn2
 BYTE   W24
 BYTE   Dn2
 BYTE   N06  En1
 BYTE   W24
 BYTE   N24  Dn2
 BYTE   N06  En1
 BYTE   W06
 BYTE   En1
 BYTE   W18
 BYTE   N24  Dn2
 BYTE   N12  En1
 BYTE   W12
//  #09 //019   ----------------------------------------
 BYTE   En1
 BYTE   W12
 BYTE   N06
 BYTE   W12
 BYTE   En1
 BYTE   W06
 BYTE   En1
 BYTE   W12
 BYTE   En1
 BYTE   W06
 BYTE   En1
 BYTE   W36
 BYTE   N24  Fn1  v085  gtp3
 BYTE   W12
//  #09 //020   ----------------------------------------
Label_010260F4:
 BYTE   W36
 BYTE   N06  En1  v085
 BYTE   W18
 BYTE   En1
 BYTE   W12
 BYTE   En1
 BYTE   W17
 BYTE   En1
 BYTE   W01
 BYTE   Ds1
 BYTE   W12
 BYTE   PEND 
//  #09 //021   ----------------------------------------
 BYTE   PATT
  POIN2 Label_010260F4
//  #09 //022   ----------------------------------------
 BYTE   PATT
  POIN2 Label_010260F4
//  #09 //023   ----------------------------------------
 BYTE   W12
 BYTE   N06  En1  v085
 BYTE   W24
 BYTE   En1
 BYTE   W18
 BYTE   En1
 BYTE   W06
 BYTE   En1
 BYTE   W12
 BYTE   En1
 BYTE   W12
 BYTE   Ds1
 BYTE   N06  En1
 BYTE   W12
//  #09 //024   ----------------------------------------
 BYTE   Ds1
 BYTE   N06  En1
 BYTE   W06
 BYTE   Ds1
 BYTE   N06  En1
 BYTE   W30
 BYTE   En1
 BYTE   W18
 BYTE   En1
 BYTE   W12
 BYTE   En1
 BYTE   W17
 BYTE   En1
 BYTE   W01
 BYTE   Ds1
 BYTE   W12
//  #09 //025   ----------------------------------------
 BYTE   PATT
  POIN2 Label_010260F4
//  #09 //026   ----------------------------------------
 BYTE   PATT
  POIN2 Label_010260F4
//  #09 //027   ----------------------------------------
 BYTE   W36
 BYTE   N06  En1  v085
 BYTE   W12
 BYTE   En1
 BYTE   W36
 BYTE   En1
 BYTE   W12
//  #09 //028   ----------------------------------------
 BYTE   W18
 BYTE   En1
 BYTE   W18
 BYTE   En1
 BYTE   W12
 BYTE   En1
 BYTE   W12
 BYTE   En1
 BYTE   W24
 BYTE   En1
 BYTE   W06
 BYTE   En1
 BYTE   W06
//  #09 //029   ----------------------------------------
 BYTE   GoTo
  POIN2 Label_01025E72
 BYTE   FINE

//******************************************************//
	ALIGN 4

StreetFighterAlpha2SakuraTak:
	BYTE	9	// NumTrks
	BYTE	0	// NumBlks
	BYTE	StreetFighterAlpha2SakuraTak_pri	// Priority
	BYTE	StreetFighterAlpha2SakuraTak_rev	// Reverb.
    
	POIN2	StreetFighterAlpha2SakuraTak_grp
    
	POIN2	StreetFighterAlpha2SakuraTak_001
	POIN2	StreetFighterAlpha2SakuraTak_002
	POIN2	StreetFighterAlpha2SakuraTak_003
	POIN2	StreetFighterAlpha2SakuraTak_004
	POIN2	StreetFighterAlpha2SakuraTak_005
	POIN2	StreetFighterAlpha2SakuraTak_006
	POIN2	StreetFighterAlpha2SakuraTak_007
	POIN2	StreetFighterAlpha2SakuraTak_008
	POIN2	StreetFighterAlpha2SakuraTak_009

	
