//Event file generated from Sappy .s format.
	#include "MPlayDef.event"

	#define	FE02CelicaEnemyPhasehypergammaspaces_grp  voicegroup000
	#define	FE02CelicaEnemyPhasehypergammaspaces_pri  0
	#define	FE02CelicaEnemyPhasehypergammaspaces_rev  0
	#define	FE02CelicaEnemyPhasehypergammaspaces_mvl  85
	#define	FE02CelicaEnemyPhasehypergammaspaces_key  0
	#define	FE02CelicaEnemyPhasehypergammaspaces_tbs  1
	#define	FE02CelicaEnemyPhasehypergammaspaces_exg  0
	#define	FE02CelicaEnemyPhasehypergammaspaces_cmp  1

	// .rodata
	//	FE02CelicaEnemyPhasehypergammaspaces
	ALIGN 4

//**************** Track 1 (Midi-Chn.1) ****************//

FE02CelicaEnemyPhasehypergammaspaces_1:
	BYTE	KEYSH   FE02CelicaEnemyPhasehypergammaspaces_key+0
FE02CelicaEnemyPhasehypergammaspaces_1_B1:
// 000   ----------------------------------------
	BYTE	TEMPO   172*FE02CelicaEnemyPhasehypergammaspaces_tbs/2
	BYTE		VOICE   102
	BYTE		VOL     55*FE02CelicaEnemyPhasehypergammaspaces_mvl/mxv
	BYTE		PAN     c_v+7
	BYTE		BEND    c_v-6
	BYTE		N11     Gn2   v096
	BYTE	W12
	BYTE		        As2   v076
	BYTE	W12
	BYTE		        Dn3   v092
	BYTE	W12
	BYTE		        Fn3 
	BYTE	W12
	BYTE		        En3   v088
	BYTE	W12
	BYTE		        Cn3 
	BYTE	W12
	BYTE		        Dn3   v092
	BYTE	W12
	BYTE		        As2   v072
	BYTE	W12
// 001   ----------------------------------------
	BYTE		        Cn3   v080
	BYTE	W12
	BYTE		        An2   v072
	BYTE	W12
	BYTE		        As2   v076
	BYTE	W12
	BYTE		        Gn2 
	BYTE	W12
	BYTE		        An2   v080
	BYTE	W12
	BYTE		        Fs2   v084
	BYTE	W12
	BYTE		        An2 
	BYTE	W12
	BYTE		        Cn3   v096
	BYTE	W12
// 002   ----------------------------------------
	BYTE		        Ds3   v108
	BYTE	W12
	BYTE		        Cn3   v088
	BYTE	W12
	BYTE		        As2   v092
	BYTE	W12
	BYTE		        Cn3   v096
	BYTE	W12
	BYTE		        As2   v068
	BYTE	W12
	BYTE		        An2   v080
	BYTE	W12
	BYTE		        Gn2   v076
	BYTE	W12
	BYTE		        An2   v080
	BYTE	W12
// 003   ----------------------------------------
	BYTE		        Gn2   v100
	BYTE	W12
	BYTE		        As2   v072
	BYTE	W12
	BYTE		        Dn3   v096
	BYTE	W12
	BYTE		        Fn3   v088
	BYTE	W12
	BYTE		        En3 
	BYTE	W12
	BYTE		        Cn3 
	BYTE	W12
	BYTE		        Dn3   v096
	BYTE	W12
	BYTE		        As2   v064
	BYTE	W12
// 004   ----------------------------------------
	BYTE		        Cn3   v084
	BYTE	W12
	BYTE		        An2   v080
	BYTE	W12
	BYTE		        As2   v076
	BYTE	W12
	BYTE		        Gn2   v080
	BYTE	W12
	BYTE		        An2   v096
	BYTE	W12
	BYTE		        Fs2   v072
	BYTE	W12
	BYTE		        An2   v076
	BYTE	W12
	BYTE		        Cn3   v096
	BYTE	W12
// 005   ----------------------------------------
	BYTE		        Ds3   v080
	BYTE	W12
	BYTE		        Cn3   v092
	BYTE	W12
	BYTE		        As2   v088
	BYTE	W12
	BYTE		        Cn3   v092
	BYTE	W12
	BYTE		        As2   v080
	BYTE	W12
	BYTE		        An2   v084
	BYTE	W12
	BYTE		        Gn2   v076
	BYTE	W12
	BYTE		        As2   v096
	BYTE	W12
// 006   ----------------------------------------
	BYTE		        An2   v088
	BYTE	W12
	BYTE		        Bn2   v092
	BYTE	W12
	BYTE		        Cn3   v088
	BYTE	W12
	BYTE		        Dn3   v100
	BYTE	W12
	BYTE		        En3   v092
	BYTE	W12
	BYTE		        Gn3   v096
	BYTE	W12
	BYTE		        Fs3   v080
	BYTE	W12
	BYTE		        Dn3   v100
	BYTE	W12
// 007   ----------------------------------------
	BYTE		        Cn3   v088
	BYTE	W12
	BYTE		        En3   v092
	BYTE	W12
	BYTE		        Dn3   v088
	BYTE	W12
	BYTE		        Bn2   v092
	BYTE	W12
	BYTE		        Cn3   v088
	BYTE	W12
	BYTE		        An2   v076
	BYTE	W12
	BYTE		        Gs2   v080
	BYTE	W12
	BYTE		        An2   v084
	BYTE	W12
// 008   ----------------------------------------
	BYTE		        Bn2   v096
	BYTE	W12
	BYTE		        Cn3   v084
	BYTE	W12
	BYTE		        Ds3   v096
	BYTE	W12
	BYTE		        En3   v092
	BYTE	W12
	BYTE		        Fn3   v100
	BYTE	W12
	BYTE		        En3   v096
	BYTE	W12
	BYTE		        Ds3   v080
	BYTE	W12
	BYTE		        En3   v088
	BYTE	W12
// 009   ----------------------------------------
	BYTE		        An2   v080
	BYTE	W12
	BYTE		        Bn2   v100
	BYTE	W12
	BYTE		        Cn3   v092
	BYTE	W12
	BYTE		        Dn3   v084
	BYTE	W12
	BYTE		        En3   v096
	BYTE	W12
	BYTE		        Gn3 
	BYTE	W12
	BYTE		        Fs3   v076
	BYTE	W12
	BYTE		        Dn3   v096
	BYTE	W12
// 010   ----------------------------------------
	BYTE		        Cn3 
	BYTE	W12
	BYTE		        En3   v088
	BYTE	W12
	BYTE		        Dn3   v092
	BYTE	W12
	BYTE		        Bn2   v088
	BYTE	W12
	BYTE		        Cn3   v096
	BYTE	W12
	BYTE		N05     Bn2   v088
	BYTE	W06
	BYTE		        An2 
	BYTE	W06
	BYTE		N44     Gs2   v080
	BYTE	W24
// 011   ----------------------------------------
	BYTE	W24
	BYTE		N68     An2 
	BYTE	W72
// 012   ----------------------------------------
	BYTE		N11     Gn2   v104
	BYTE	W12
	BYTE		        As2   v080
	BYTE	W12
	BYTE		        Dn3   v092
	BYTE	W12
	BYTE		        Fn3 
	BYTE	W12
	BYTE		        En3   v096
	BYTE	W12
	BYTE		        Cn3   v088
	BYTE	W12
	BYTE		        Dn3   v104
	BYTE	W12
	BYTE		        As2   v076
	BYTE	W12
// 013   ----------------------------------------
	BYTE		        Cn3   v088
	BYTE	W12
	BYTE		        An2   v080
	BYTE	W12
	BYTE		        As2   v076
	BYTE	W12
	BYTE		        Gn2   v072
	BYTE	W12
	BYTE		        An2   v088
	BYTE	W12
	BYTE		        Fs2   v072
	BYTE	W12
	BYTE		        An2   v084
	BYTE	W12
	BYTE		        Cn3   v072
	BYTE	W12
// 014   ----------------------------------------
	BYTE		        Ds3   v076
	BYTE	W12
	BYTE		        Cn3   v088
	BYTE	W12
	BYTE		        As2   v084
	BYTE	W12
	BYTE		        Cn3   v092
	BYTE	W12
	BYTE		        As2   v076
	BYTE	W12
	BYTE		        An2   v088
	BYTE	W12
	BYTE		        Gn2   v084
	BYTE	W12
	BYTE		        An2   v092
	BYTE	W12
// 015   ----------------------------------------
	BYTE		        Gn2 
	BYTE	W12
	BYTE		        As2   v084
	BYTE	W12
	BYTE		        Dn3   v100
	BYTE	W12
	BYTE		        Fn3 
	BYTE	W12
	BYTE		        En3   v096
	BYTE	W12
	BYTE		        Cn3   v088
	BYTE	W12
	BYTE		        Dn3   v096
	BYTE	W12
	BYTE		        As2   v072
	BYTE	W12
// 016   ----------------------------------------
	BYTE		        Cn3   v100
	BYTE	W12
	BYTE		        An2   v080
	BYTE	W12
	BYTE		        As2   v076
	BYTE	W12
	BYTE		        Gn2 
	BYTE	W12
	BYTE		        An2   v088
	BYTE	W12
	BYTE		        Fs2   v072
	BYTE	W12
	BYTE		        An2   v080
	BYTE	W12
	BYTE		        Cn3   v088
	BYTE	W12
// 017   ----------------------------------------
	BYTE		        Ds3   v072
	BYTE	W12
	BYTE		        Cn3   v076
	BYTE	W12
	BYTE		        As2   v080
	BYTE	W12
	BYTE		        Cn3   v088
	BYTE	W12
	BYTE		        As2   v068
	BYTE	W12
	BYTE		        An2   v076
	BYTE	W12
	BYTE		        Gn2   v064
	BYTE	W12
	BYTE		        As2   v080
	BYTE	W12
// 018   ----------------------------------------
	BYTE		        An2 
	BYTE	W12
	BYTE		        As2   v088
	BYTE	W12
	BYTE		        Cn3   v064
	BYTE	W12
	BYTE		        Dn3   v096
	BYTE	W12
	BYTE		        En3   v088
	BYTE	W12
	BYTE		        Gn3   v080
	BYTE	W12
	BYTE		        Fs3   v072
	BYTE	W12
	BYTE		        Dn3   v092
	BYTE	W12
// 019   ----------------------------------------
	BYTE		        Cn3   v072
	BYTE	W12
	BYTE		        En3   v096
	BYTE	W12
	BYTE		        Dn3   v088
	BYTE	W12
	BYTE		        Bn2   v076
	BYTE	W12
	BYTE		        Cn3   v084
	BYTE	W12
	BYTE		        An2   v076
	BYTE	W12
	BYTE		        Gs2   v080
	BYTE	W12
	BYTE		        An2   v084
	BYTE	W12
// 020   ----------------------------------------
	BYTE		        Bn2   v092
	BYTE	W12
	BYTE		        Cn3   v088
	BYTE	W12
	BYTE		        Ds3 
	BYTE	W12
	BYTE		        En3   v072
	BYTE	W12
	BYTE		        Fn3   v080
	BYTE	W12
	BYTE		        En3   v088
	BYTE	W12
	BYTE		        Ds3   v076
	BYTE	W12
	BYTE		        En3   v088
	BYTE	W12
// 021   ----------------------------------------
	BYTE		        An2   v076
	BYTE	W12
	BYTE		        Bn2   v092
	BYTE	W12
	BYTE		        Cn3   v084
	BYTE	W12
	BYTE		        Dn3   v096
	BYTE	W12
	BYTE		        En3   v092
	BYTE	W12
	BYTE		        Gn3   v096
	BYTE	W12
	BYTE		        Fs3   v076
	BYTE	W12
	BYTE		        Dn3   v096
	BYTE	W12
// 022   ----------------------------------------
	BYTE		        Cn3   v084
	BYTE	W12
	BYTE		        En3   v092
	BYTE	W12
	BYTE		        Dn3   v080
	BYTE	W12
	BYTE		        Bn2   v084
	BYTE	W12
	BYTE		        Cn3   v088
	BYTE	W12
	BYTE		N05     Bn2   v084
	BYTE	W06
	BYTE		        An2   v068
	BYTE	W06
	BYTE		N44     Gs2   v076
	BYTE	W24
// 023   ----------------------------------------
	BYTE	W96
// 024   ----------------------------------------
	BYTE		VOL     74*FE02CelicaEnemyPhasehypergammaspaces_mvl/mxv
	BYTE		PAN     c_v+10
	BYTE		N23     Gn2   v088
	BYTE	W24
	BYTE		N11     Gn2   v020
	BYTE	W12
	BYTE		N23     As2   v088
	BYTE	W24
	BYTE		N11     As2   v020
	BYTE	W12
	BYTE		N23     An2   v088
	BYTE	W24
// 025   ----------------------------------------
	BYTE		N11     An2   v020
	BYTE	W12
	BYTE		N23     Cn3   v088
	BYTE	W24
	BYTE		N11     Cn3   v020
	BYTE	W12
	BYTE		N64     As2   v088
	BYTE	W48
// 026   ----------------------------------------
	BYTE	W18
	BYTE		N11     As2   v020
	BYTE	W18
	BYTE		N08     Cs3   v088
	BYTE	W08
	BYTE		N02     Cs3   v020
	BYTE	W04
	BYTE		N08     Dn3   v088
	BYTE	W08
	BYTE		N02     Dn3   v020
	BYTE	W04
	BYTE		N08     An2   v088
	BYTE	W08
	BYTE		N02     An2   v020
	BYTE	W04
	BYTE		N08     As2   v088
	BYTE	W08
	BYTE		N02     As2   v020
	BYTE	W04
	BYTE		N08     Fs2   v088
	BYTE	W08
	BYTE		N02     Fs2   v020
	BYTE	W04
	BYTE	GoTo
	 POIN2	FE02CelicaEnemyPhasehypergammaspaces_1_B1
FE02CelicaEnemyPhasehypergammaspaces_1_B2:
// 027   ----------------------------------------
	BYTE	FINE

//**************** Track 2 (Midi-Chn.2) ****************//

FE02CelicaEnemyPhasehypergammaspaces_2:
	BYTE	KEYSH   FE02CelicaEnemyPhasehypergammaspaces_key+0
FE02CelicaEnemyPhasehypergammaspaces_2_B1:
// 000   ----------------------------------------
	BYTE		VOICE   13
	BYTE		VOL     100*FE02CelicaEnemyPhasehypergammaspaces_mvl/mxv
	BYTE		PAN     c_v+7
	BYTE		N11     Gn2   v096
	BYTE	W12
	BYTE		        As2   v076
	BYTE	W12
	BYTE		        Dn3   v092
	BYTE	W12
	BYTE		        Fn3 
	BYTE	W12
	BYTE		        En3   v088
	BYTE	W12
	BYTE		        Cn3 
	BYTE	W12
	BYTE		        Dn3   v092
	BYTE	W12
	BYTE		        As2   v072
	BYTE	W12
// 001   ----------------------------------------
	BYTE		        Cn3   v080
	BYTE	W12
	BYTE		        An2   v072
	BYTE	W12
	BYTE		        As2   v076
	BYTE	W12
	BYTE		        Gn2 
	BYTE	W12
	BYTE		        An2   v080
	BYTE	W12
	BYTE		        Fs2   v084
	BYTE	W12
	BYTE		        An2 
	BYTE	W12
	BYTE		        Cn3   v096
	BYTE	W12
// 002   ----------------------------------------
	BYTE		        Ds3   v108
	BYTE	W12
	BYTE		        Cn3   v088
	BYTE	W12
	BYTE		        As2   v092
	BYTE	W12
	BYTE		        Cn3   v096
	BYTE	W12
	BYTE		        As2   v068
	BYTE	W12
	BYTE		        An2   v080
	BYTE	W12
	BYTE		        Gn2   v076
	BYTE	W12
	BYTE		        An2   v080
	BYTE	W12
// 003   ----------------------------------------
	BYTE		        Gn2   v100
	BYTE	W12
	BYTE		        As2   v072
	BYTE	W12
	BYTE		        Dn3   v096
	BYTE	W12
	BYTE		        Fn3   v088
	BYTE	W12
	BYTE		        En3 
	BYTE	W12
	BYTE		        Cn3 
	BYTE	W12
	BYTE		        Dn3   v096
	BYTE	W12
	BYTE		        As2   v064
	BYTE	W12
// 004   ----------------------------------------
	BYTE		        Cn3   v084
	BYTE	W12
	BYTE		        An2   v080
	BYTE	W12
	BYTE		        As2   v076
	BYTE	W12
	BYTE		        Gn2   v080
	BYTE	W12
	BYTE		        An2   v096
	BYTE	W12
	BYTE		        Fs2   v072
	BYTE	W12
	BYTE		        An2   v076
	BYTE	W12
	BYTE		        Cn3   v096
	BYTE	W12
// 005   ----------------------------------------
	BYTE		        Ds3   v080
	BYTE	W12
	BYTE		        Cn3   v092
	BYTE	W12
	BYTE		        As2   v088
	BYTE	W12
	BYTE		        Cn3   v092
	BYTE	W12
	BYTE		        As2   v080
	BYTE	W12
	BYTE		        An2   v084
	BYTE	W12
	BYTE		        Gn2   v076
	BYTE	W12
	BYTE		        As2   v096
	BYTE	W12
// 006   ----------------------------------------
	BYTE		        An2   v088
	BYTE	W12
	BYTE		        Bn2   v092
	BYTE	W12
	BYTE		        Cn3   v088
	BYTE	W12
	BYTE		        Dn3   v100
	BYTE	W12
	BYTE		        En3   v092
	BYTE	W12
	BYTE		        Gn3   v096
	BYTE	W12
	BYTE		        Fs3   v080
	BYTE	W12
	BYTE		        Dn3   v100
	BYTE	W12
// 007   ----------------------------------------
	BYTE		        Cn3   v088
	BYTE	W12
	BYTE		        En3   v092
	BYTE	W12
	BYTE		        Dn3   v088
	BYTE	W12
	BYTE		        Bn2   v092
	BYTE	W12
	BYTE		        Cn3   v088
	BYTE	W12
	BYTE		        An2   v076
	BYTE	W12
	BYTE		        Gs2   v080
	BYTE	W12
	BYTE		        An2   v084
	BYTE	W12
// 008   ----------------------------------------
	BYTE		        Bn2   v096
	BYTE	W12
	BYTE		        Cn3   v084
	BYTE	W12
	BYTE		        Ds3   v096
	BYTE	W12
	BYTE		        En3   v092
	BYTE	W12
	BYTE		        Fn3   v100
	BYTE	W12
	BYTE		        En3   v096
	BYTE	W12
	BYTE		        Ds3   v080
	BYTE	W12
	BYTE		        En3   v088
	BYTE	W12
// 009   ----------------------------------------
	BYTE		        An2   v080
	BYTE	W12
	BYTE		        Bn2   v100
	BYTE	W12
	BYTE		        Cn3   v092
	BYTE	W12
	BYTE		        Dn3   v084
	BYTE	W12
	BYTE		        En3   v096
	BYTE	W12
	BYTE		        Gn3 
	BYTE	W12
	BYTE		        Fs3   v076
	BYTE	W12
	BYTE		        Dn3   v096
	BYTE	W12
// 010   ----------------------------------------
	BYTE		        Cn3 
	BYTE	W12
	BYTE		        En3   v088
	BYTE	W12
	BYTE		        Dn3   v092
	BYTE	W12
	BYTE		        Bn2   v088
	BYTE	W12
	BYTE		        Cn3   v096
	BYTE	W12
	BYTE		N05     Bn2   v088
	BYTE	W06
	BYTE		        An2 
	BYTE	W06
	BYTE		N44     Gs2   v080
	BYTE	W24
// 011   ----------------------------------------
	BYTE	W24
	BYTE		N68     An2 
	BYTE	W72
// 012   ----------------------------------------
	BYTE		N11     Gn2   v104
	BYTE	W12
	BYTE		        As2   v080
	BYTE	W12
	BYTE		        Dn3   v092
	BYTE	W12
	BYTE		        Fn3 
	BYTE	W12
	BYTE		        En3   v096
	BYTE	W12
	BYTE		        Cn3   v088
	BYTE	W12
	BYTE		        Dn3   v104
	BYTE	W12
	BYTE		        As2   v076
	BYTE	W12
// 013   ----------------------------------------
	BYTE		        Cn3   v088
	BYTE	W12
	BYTE		        An2   v080
	BYTE	W12
	BYTE		        As2   v076
	BYTE	W12
	BYTE		        Gn2   v072
	BYTE	W12
	BYTE		        An2   v088
	BYTE	W12
	BYTE		        Fs2   v072
	BYTE	W12
	BYTE		        An2   v084
	BYTE	W12
	BYTE		        Cn3   v072
	BYTE	W12
// 014   ----------------------------------------
	BYTE		        Ds3   v076
	BYTE	W12
	BYTE		        Cn3   v088
	BYTE	W12
	BYTE		        As2   v084
	BYTE	W12
	BYTE		        Cn3   v092
	BYTE	W12
	BYTE		        As2   v076
	BYTE	W12
	BYTE		        An2   v088
	BYTE	W12
	BYTE		        Gn2   v084
	BYTE	W12
	BYTE		        An2   v092
	BYTE	W12
// 015   ----------------------------------------
	BYTE		        Gn2 
	BYTE	W12
	BYTE		        As2   v084
	BYTE	W12
	BYTE		        Dn3   v100
	BYTE	W12
	BYTE		        Fn3 
	BYTE	W12
	BYTE		        En3   v096
	BYTE	W12
	BYTE		        Cn3   v088
	BYTE	W12
	BYTE		        Dn3   v096
	BYTE	W12
	BYTE		        As2   v072
	BYTE	W12
// 016   ----------------------------------------
	BYTE		        Cn3   v100
	BYTE	W12
	BYTE		        An2   v080
	BYTE	W12
	BYTE		        As2   v076
	BYTE	W12
	BYTE		        Gn2 
	BYTE	W12
	BYTE		        An2   v088
	BYTE	W12
	BYTE		        Fs2   v072
	BYTE	W12
	BYTE		        An2   v080
	BYTE	W12
	BYTE		        Cn3   v088
	BYTE	W12
// 017   ----------------------------------------
	BYTE		        Ds3   v072
	BYTE	W12
	BYTE		        Cn3   v076
	BYTE	W12
	BYTE		        As2   v080
	BYTE	W12
	BYTE		        Cn3   v088
	BYTE	W12
	BYTE		        As2   v068
	BYTE	W12
	BYTE		        An2   v076
	BYTE	W12
	BYTE		        Gn2   v064
	BYTE	W12
	BYTE		        As2   v080
	BYTE	W12
// 018   ----------------------------------------
	BYTE		        An2 
	BYTE	W12
	BYTE		        As2   v088
	BYTE	W12
	BYTE		        Cn3   v064
	BYTE	W12
	BYTE		        Dn3   v096
	BYTE	W12
	BYTE		        En3   v088
	BYTE	W12
	BYTE		        Gn3   v080
	BYTE	W12
	BYTE		        Fs3   v072
	BYTE	W12
	BYTE		        Dn3   v092
	BYTE	W12
// 019   ----------------------------------------
	BYTE		        Cn3   v072
	BYTE	W12
	BYTE		        En3   v096
	BYTE	W12
	BYTE		        Dn3   v088
	BYTE	W12
	BYTE		        Bn2   v076
	BYTE	W12
	BYTE		        Cn3   v084
	BYTE	W12
	BYTE		        An2   v076
	BYTE	W12
	BYTE		        Gs2   v080
	BYTE	W12
	BYTE		        An2   v084
	BYTE	W12
// 020   ----------------------------------------
	BYTE		        Bn2   v092
	BYTE	W12
	BYTE		        Cn3   v088
	BYTE	W12
	BYTE		        Ds3 
	BYTE	W12
	BYTE		        En3   v072
	BYTE	W12
	BYTE		        Fn3   v080
	BYTE	W12
	BYTE		        En3   v088
	BYTE	W12
	BYTE		        Ds3   v076
	BYTE	W12
	BYTE		        En3   v088
	BYTE	W12
// 021   ----------------------------------------
	BYTE		        An2   v076
	BYTE	W12
	BYTE		        Bn2   v092
	BYTE	W12
	BYTE		        Cn3   v084
	BYTE	W12
	BYTE		        Dn3   v096
	BYTE	W12
	BYTE		        En3   v092
	BYTE	W12
	BYTE		        Gn3   v096
	BYTE	W12
	BYTE		        Fs3   v076
	BYTE	W12
	BYTE		        Dn3   v096
	BYTE	W12
// 022   ----------------------------------------
	BYTE		        Cn3   v084
	BYTE	W12
	BYTE		        En3   v092
	BYTE	W12
	BYTE		        Dn3   v080
	BYTE	W12
	BYTE		        Bn2   v084
	BYTE	W12
	BYTE		        Cn3   v088
	BYTE	W12
	BYTE		N05     Bn2   v084
	BYTE	W06
	BYTE		        An2   v068
	BYTE	W06
	BYTE		N44     Gs2   v076
	BYTE	W24
// 023   ----------------------------------------
	BYTE	W96
// 024   ----------------------------------------
	BYTE		MOD     2
	BYTE		N23     Cn2   v088
	BYTE		N23     Gn2   v092
	BYTE	W24
	BYTE		N11     Cn2   v016
	BYTE		N11     Gn2   v020
	BYTE	W12
	BYTE		N23     Ds2   v088
	BYTE		N23     As2   v092
	BYTE	W24
	BYTE		N11     Ds2   v016
	BYTE		N11     As2   v020
	BYTE	W12
	BYTE		N23     Dn2   v088
	BYTE		N23     An2   v092
	BYTE	W24
// 025   ----------------------------------------
	BYTE		N11     Dn2   v016
	BYTE		N11     An2   v020
	BYTE	W12
	BYTE		N23     Fn2   v088
	BYTE		N23     Cn3   v092
	BYTE	W24
	BYTE		N11     Fn2   v016
	BYTE		N11     Cn3   v020
	BYTE	W12
	BYTE		N64     Ds2   v088
	BYTE		N64     As2   v092
	BYTE	W48
// 026   ----------------------------------------
	BYTE	W18
	BYTE		N11     Ds2   v016
	BYTE		N11     As2   v020
	BYTE	W18
	BYTE		N08     Fs2   v088
	BYTE		N08     Cs3   v092
	BYTE	W08
	BYTE		N02     Fs2   v016
	BYTE		N02     Cs3   v020
	BYTE	W04
	BYTE		N08     Gn2   v088
	BYTE		N08     Dn3   v092
	BYTE	W08
	BYTE		N02     Gn2   v016
	BYTE		N02     Dn3   v020
	BYTE	W04
	BYTE		N08     Dn2   v088
	BYTE		N08     An2   v092
	BYTE	W08
	BYTE		N02     Dn2   v016
	BYTE	W01
	BYTE		        An2   v020
	BYTE	W03
	BYTE		N08     Ds2   v088
	BYTE		N08     As2   v092
	BYTE	W08
	BYTE		N02     As2   v020
	BYTE	W01
	BYTE		        Ds2   v016
	BYTE	W03
	BYTE		N08     Bn1   v088
	BYTE		N08     Fs2   v092
	BYTE	W08
	BYTE		N02     Bn1   v016
	BYTE		N02     Fs2   v020
	BYTE	W04
	BYTE	GoTo
	 POIN2	FE02CelicaEnemyPhasehypergammaspaces_2_B1
FE02CelicaEnemyPhasehypergammaspaces_2_B2:
// 027   ----------------------------------------
	BYTE	FINE

//**************** Track 3 (Midi-Chn.3) ****************//

FE02CelicaEnemyPhasehypergammaspaces_3:
	BYTE	KEYSH   FE02CelicaEnemyPhasehypergammaspaces_key+0
FE02CelicaEnemyPhasehypergammaspaces_3_B1:
// 000   ----------------------------------------
	BYTE		VOICE   48
	BYTE		VOL     82*FE02CelicaEnemyPhasehypergammaspaces_mvl/mxv
	BYTE		PAN     c_v+7
	BYTE		N11     Dn2   v052
	BYTE	W12
	BYTE		        Fn2   v032
	BYTE	W12
	BYTE		        An2   v052
	BYTE	W12
	BYTE		        Cn3   v048
	BYTE	W12
	BYTE		        Bn2 
	BYTE	W12
	BYTE		        Gn2   v044
	BYTE	W12
	BYTE		        An2   v048
	BYTE	W12
	BYTE		        Fn2   v028
	BYTE	W12
// 001   ----------------------------------------
	BYTE		        Gn2   v036
	BYTE	W12
	BYTE		        En2   v028
	BYTE	W12
	BYTE		        Fn2   v032
	BYTE	W12
	BYTE		        Dn2   v036
	BYTE	W12
	BYTE		        En2 
	BYTE	W12
	BYTE		        Cs2   v040
	BYTE	W12
	BYTE		        En2 
	BYTE	W12
	BYTE		        Gn2   v052
	BYTE	W12
// 002   ----------------------------------------
	BYTE		        As2   v064
	BYTE	W12
	BYTE		        Gn2   v048
	BYTE	W12
	BYTE		        Fn2   v052
	BYTE	W12
	BYTE		        Gn2 
	BYTE	W12
	BYTE		        Fn2   v024
	BYTE	W12
	BYTE		        En2   v040
	BYTE	W12
	BYTE		        Dn2   v032
	BYTE	W12
	BYTE		        En2   v036
	BYTE	W12
// 003   ----------------------------------------
	BYTE		        Dn2   v056
	BYTE	W12
	BYTE		        Fn2   v028
	BYTE	W12
	BYTE		        An2   v052
	BYTE	W12
	BYTE		        Cn3   v048
	BYTE	W12
	BYTE		        Bn2 
	BYTE	W12
	BYTE		        Gn2   v044
	BYTE	W12
	BYTE		        An2   v052
	BYTE	W12
	BYTE		        Fn2   v024
	BYTE	W12
// 004   ----------------------------------------
	BYTE		        Gn2   v040
	BYTE	W12
	BYTE		        En2   v036
	BYTE	W12
	BYTE		        Fn2   v032
	BYTE	W12
	BYTE		        Dn2   v036
	BYTE	W12
	BYTE		        En2   v052
	BYTE	W12
	BYTE		        Cs2   v028
	BYTE	W12
	BYTE		        En2   v036
	BYTE	W12
	BYTE		        Gn2   v052
	BYTE	W12
// 005   ----------------------------------------
	BYTE		        As2   v036
	BYTE	W12
	BYTE		        Gn2   v048
	BYTE	W12
	BYTE		        Fn2   v044
	BYTE	W12
	BYTE		        Gn2   v048
	BYTE	W12
	BYTE		        Fn2   v036
	BYTE	W12
	BYTE		        En2   v040
	BYTE	W12
	BYTE		        Dn2   v032
	BYTE	W12
	BYTE		        Fn2   v056
	BYTE	W12
// 006   ----------------------------------------
	BYTE		        En2   v044
	BYTE	W12
	BYTE		        Fs2   v048
	BYTE	W12
	BYTE		        Gn2   v044
	BYTE	W12
	BYTE		        An2   v056
	BYTE	W12
	BYTE		        Bn2   v048
	BYTE	W12
	BYTE		        Dn3   v052
	BYTE	W12
	BYTE		        Cs3   v036
	BYTE	W12
	BYTE		        An2   v056
	BYTE	W12
// 007   ----------------------------------------
	BYTE		        Gn2   v044
	BYTE	W12
	BYTE		        Bn2   v048
	BYTE	W12
	BYTE		        An2   v044
	BYTE	W12
	BYTE		        Fs2   v052
	BYTE	W12
	BYTE		        Gn2   v048
	BYTE	W12
	BYTE		        En2   v032
	BYTE	W12
	BYTE		        Ds2   v036
	BYTE	W12
	BYTE		        En2   v044
	BYTE	W12
// 008   ----------------------------------------
	BYTE		        Fs2   v052
	BYTE	W12
	BYTE		        Gn2   v040
	BYTE	W12
	BYTE		        As2   v052
	BYTE	W12
	BYTE		        Bn2   v048
	BYTE	W12
	BYTE		        Cn3   v060
	BYTE	W12
	BYTE		        Bn2   v052
	BYTE	W12
	BYTE		        As2   v040
	BYTE	W12
	BYTE		        Bn2   v044
	BYTE	W12
// 009   ----------------------------------------
	BYTE		        En2   v036
	BYTE	W12
	BYTE		        Fs2   v056
	BYTE	W12
	BYTE		        Gn2   v048
	BYTE	W12
	BYTE		        An2   v040
	BYTE	W12
	BYTE		        Bn2   v052
	BYTE	W12
	BYTE		        Dn3 
	BYTE	W12
	BYTE		        Cs3   v032
	BYTE	W12
	BYTE		        An2   v052
	BYTE	W12
// 010   ----------------------------------------
	BYTE		        Gn2 
	BYTE	W12
	BYTE		        Bn2   v044
	BYTE	W12
	BYTE		        An2   v048
	BYTE	W12
	BYTE		        Fs2   v044
	BYTE	W12
	BYTE		        Gn2   v052
	BYTE	W12
	BYTE		N05     Fs2   v044
	BYTE	W06
	BYTE		        En2 
	BYTE	W06
	BYTE		N44     Ds2   v036
	BYTE	W24
// 011   ----------------------------------------
	BYTE	W24
	BYTE		N68     En2 
	BYTE	W72
// 012   ----------------------------------------
	BYTE		N11     Dn2   v064
	BYTE	W12
	BYTE		        Fn2   v040
	BYTE	W12
	BYTE		        An2   v048
	BYTE	W12
	BYTE		        Cn3 
	BYTE	W12
	BYTE		        Bn2   v052
	BYTE	W12
	BYTE		        Gn2   v044
	BYTE	W12
	BYTE		        An2   v060
	BYTE	W12
	BYTE		        Fn2   v032
	BYTE	W12
// 013   ----------------------------------------
	BYTE		        Gn2   v044
	BYTE	W12
	BYTE		        En2   v036
	BYTE	W12
	BYTE		        Fn2   v032
	BYTE	W12
	BYTE		        Dn2 
	BYTE	W12
	BYTE		        En2   v048
	BYTE	W12
	BYTE		        Cs2   v028
	BYTE	W12
	BYTE		        En2   v040
	BYTE	W12
	BYTE		        Gn2   v028
	BYTE	W12
// 014   ----------------------------------------
	BYTE		        As2   v036
	BYTE	W12
	BYTE		        Gn2   v044
	BYTE	W12
	BYTE		        Fn2 
	BYTE	W12
	BYTE		        Gn2   v048
	BYTE	W12
	BYTE		        Fn2   v032
	BYTE	W12
	BYTE		        En2   v044
	BYTE	W12
	BYTE		        Dn2 
	BYTE	W12
	BYTE		        En2   v048
	BYTE	W12
// 015   ----------------------------------------
	BYTE		        Dn2 
	BYTE	W12
	BYTE		        Fn2   v044
	BYTE	W12
	BYTE		        An2   v056
	BYTE	W12
	BYTE		        Cn3 
	BYTE	W12
	BYTE		        Bn2   v052
	BYTE	W12
	BYTE		        Gn2   v048
	BYTE	W12
	BYTE		        An2   v052
	BYTE	W12
	BYTE		        Fn2   v032
	BYTE	W12
// 016   ----------------------------------------
	BYTE		        Gn2   v056
	BYTE	W12
	BYTE		        En2   v036
	BYTE	W12
	BYTE		        Fn2   v032
	BYTE	W12
	BYTE		        Dn2   v036
	BYTE	W12
	BYTE		        En2   v044
	BYTE	W12
	BYTE		        Cs2   v028
	BYTE	W12
	BYTE		        En2   v040
	BYTE	W12
	BYTE		        Gn2   v048
	BYTE	W12
// 017   ----------------------------------------
	BYTE		        As2   v028
	BYTE	W12
	BYTE		        Gn2   v036
	BYTE	W12
	BYTE		        Fn2 
	BYTE	W12
	BYTE		        Gn2   v044
	BYTE	W12
	BYTE		        Fn2   v028
	BYTE	W12
	BYTE		        En2   v036
	BYTE	W12
	BYTE		        Dn2   v020
	BYTE	W12
	BYTE		        Fn2   v036
	BYTE	W12
// 018   ----------------------------------------
	BYTE		        En2 
	BYTE	W12
	BYTE		        Fn2   v044
	BYTE	W12
	BYTE		        Gn2   v020
	BYTE	W12
	BYTE		        An2   v052
	BYTE	W12
	BYTE		        Bn2   v048
	BYTE	W12
	BYTE		        Dn3   v040
	BYTE	W12
	BYTE		        Cs3   v028
	BYTE	W12
	BYTE		        An2   v052
	BYTE	W12
// 019   ----------------------------------------
	BYTE		        Gn2   v032
	BYTE	W12
	BYTE		        Bn2   v052
	BYTE	W12
	BYTE		        An2   v044
	BYTE	W12
	BYTE		        Fs2   v032
	BYTE	W12
	BYTE		        Gn2   v040
	BYTE	W12
	BYTE		        En2   v032
	BYTE	W12
	BYTE		        Ds2   v036
	BYTE	W12
	BYTE		        En2   v044
	BYTE	W12
// 020   ----------------------------------------
	BYTE		        Fs2   v048
	BYTE	W12
	BYTE		        Gn2   v044
	BYTE	W12
	BYTE		        As2 
	BYTE	W12
	BYTE		        Bn2   v032
	BYTE	W12
	BYTE		        Cn3   v036
	BYTE	W12
	BYTE		        Bn2   v044
	BYTE	W12
	BYTE		        As2   v032
	BYTE	W12
	BYTE		        Bn2   v044
	BYTE	W12
// 021   ----------------------------------------
	BYTE		        En2   v036
	BYTE	W12
	BYTE		        Fs2   v052
	BYTE	W12
	BYTE		        Gn2   v040
	BYTE	W12
	BYTE		        An2   v052
	BYTE	W12
	BYTE		        Bn2   v048
	BYTE	W12
	BYTE		        Dn3   v052
	BYTE	W12
	BYTE		        Cs3   v032
	BYTE	W12
	BYTE		        An2   v052
	BYTE	W12
// 022   ----------------------------------------
	BYTE		        Gn2   v040
	BYTE	W12
	BYTE		        Bn2   v048
	BYTE	W12
	BYTE		        An2   v036
	BYTE	W12
	BYTE		        Fs2   v044
	BYTE	W12
	BYTE		        Gn2   v048
	BYTE	W12
	BYTE		N05     Fs2   v040
	BYTE	W06
	BYTE		        En2   v024
	BYTE	W06
	BYTE		N44     Ds2   v032
	BYTE	W24
// 023   ----------------------------------------
	BYTE	W96
// 024   ----------------------------------------
	BYTE	W96
// 025   ----------------------------------------
	BYTE	W96
// 026   ----------------------------------------
	BYTE	W96
	BYTE	GoTo
	 POIN2	FE02CelicaEnemyPhasehypergammaspaces_3_B1
FE02CelicaEnemyPhasehypergammaspaces_3_B2:
// 027   ----------------------------------------
	BYTE	FINE

//**************** Track 4 (Midi-Chn.4) ****************//

FE02CelicaEnemyPhasehypergammaspaces_4:
	BYTE	KEYSH   FE02CelicaEnemyPhasehypergammaspaces_key+0
FE02CelicaEnemyPhasehypergammaspaces_4_B1:
// 000   ----------------------------------------
	BYTE		VOICE   66
	BYTE		VOL     69*FE02CelicaEnemyPhasehypergammaspaces_mvl/mxv
	BYTE		PAN     c_v-4
	BYTE		N05     Dn2   v096
	BYTE	W06
	BYTE		        Dn2   v008
	BYTE	W06
	BYTE		        Dn2   v104
	BYTE	W06
	BYTE		N09     Dn2   v020
	BYTE	W18
	BYTE		N05     Dn2   v096
	BYTE	W06
	BYTE		N09     Dn2   v012
	BYTE	W18
	BYTE		N05     Dn2   v096
	BYTE	W06
	BYTE		        Dn2   v008
	BYTE	W06
	BYTE		        Dn2   v104
	BYTE	W06
	BYTE		        Dn2   v016
	BYTE	W06
	BYTE		        Dn2   v096
	BYTE	W06
	BYTE		N08     Dn2   v012
	BYTE	W06
// 001   ----------------------------------------
	BYTE	W12
	BYTE		N05     Dn2   v100
	BYTE	W06
	BYTE		N08     Dn2   v016
	BYTE	W18
	BYTE		N05     Dn2   v100
	BYTE	W06
	BYTE		        Dn2   v012
	BYTE	W06
	BYTE		        Dn2   v104
	BYTE	W06
	BYTE		        Dn2   v020
	BYTE	W06
	BYTE		        Dn2   v104
	BYTE	W06
	BYTE		N08     Dn2   v016
	BYTE	W18
	BYTE		N05     Dn2   v108
	BYTE	W06
	BYTE		N08     Dn2   v020
	BYTE	W06
// 002   ----------------------------------------
	BYTE	W12
	BYTE		N05     Dn2   v100
	BYTE	W06
	BYTE		        Dn2   v016
	BYTE	W06
	BYTE		        Dn2   v108
	BYTE	W06
	BYTE		        Dn2   v020
	BYTE	W06
	BYTE		        Dn2   v104
	BYTE	W06
	BYTE		N09     Dn2   v016
	BYTE	W18
	BYTE		N05     Dn2   v104
	BYTE	W06
	BYTE		N09     Dn2   v016
	BYTE	W18
	BYTE		N05     Dn2   v100
	BYTE	W06
	BYTE		        Dn2   v016
	BYTE	W06
// 003   ----------------------------------------
	BYTE		        Dn2   v108
	BYTE	W06
	BYTE		        Dn2   v020
	BYTE	W06
	BYTE		        Dn2   v104
	BYTE	W06
	BYTE		N08     Dn2   v020
	BYTE	W18
	BYTE		N05     Dn2   v108
	BYTE	W06
	BYTE		N09     Dn2   v020
	BYTE	W18
	BYTE		N05     Dn2   v104
	BYTE	W06
	BYTE		        Dn2   v020
	BYTE	W06
	BYTE		        Dn2   v112
	BYTE	W06
	BYTE		        Dn2   v024
	BYTE	W06
	BYTE		        Dn2   v108
	BYTE	W06
	BYTE		N09     Dn2   v024
	BYTE	W06
// 004   ----------------------------------------
	BYTE	W12
	BYTE		N05     Dn2   v112
	BYTE	W06
	BYTE		N10     Dn2   v028
	BYTE	W18
	BYTE		N05     Dn2   v104
	BYTE	W06
	BYTE		        Dn2   v020
	BYTE	W06
	BYTE		        Dn2   v112
	BYTE	W06
	BYTE		        Dn2   v024
	BYTE	W06
	BYTE		        Dn2   v108
	BYTE	W06
	BYTE		N09     Dn2   v020
	BYTE	W18
	BYTE		N05     Dn2   v112
	BYTE	W06
	BYTE		N09     Dn2   v028
	BYTE	W06
// 005   ----------------------------------------
	BYTE	W12
	BYTE		N05     Dn2   v108
	BYTE	W06
	BYTE		        Dn2   v020
	BYTE	W06
	BYTE		        Dn2   v112
	BYTE	W06
	BYTE		        Dn2   v028
	BYTE	W06
	BYTE		        Dn2   v108
	BYTE	W06
	BYTE		N10     Dn2   v024
	BYTE	W18
	BYTE		N05     Dn2   v108
	BYTE	W06
	BYTE		N10     Dn2   v024
	BYTE	W18
	BYTE		N05     Dn2   v104
	BYTE	W06
	BYTE		        Dn2   v020
	BYTE	W06
// 006   ----------------------------------------
	BYTE		        En2   v096
	BYTE	W06
	BYTE		        En2   v008
	BYTE	W06
	BYTE		        En2   v096
	BYTE	W06
	BYTE		N10     En2   v008
	BYTE	W18
	BYTE		N05     En2   v100
	BYTE	W06
	BYTE		N07     En2   v012
	BYTE	W18
	BYTE		N05     En2   v100
	BYTE	W06
	BYTE		        En2   v012
	BYTE	W06
	BYTE		        En2   v092
	BYTE	W06
	BYTE		        En2   v008
	BYTE	W06
	BYTE		        En2   v092
	BYTE	W06
	BYTE		N10     En2   v008
	BYTE	W06
// 007   ----------------------------------------
	BYTE	W12
	BYTE		N05     En2   v100
	BYTE	W06
	BYTE		N10     En2   v012
	BYTE	W18
	BYTE		N05     En2   v088
	BYTE	W06
	BYTE		        En2   v004
	BYTE	W06
	BYTE		        En2   v092
	BYTE	W06
	BYTE		        En2   v008
	BYTE	W06
	BYTE		        En2   v088
	BYTE	W06
	BYTE		N10     En2   v004
	BYTE	W18
	BYTE		N05     En2   v092
	BYTE	W06
	BYTE		N10     En2   v004
	BYTE	W06
// 008   ----------------------------------------
	BYTE	W12
	BYTE		N05     En2   v096
	BYTE	W06
	BYTE		        En2   v012
	BYTE	W06
	BYTE		        En2   v100
	BYTE	W06
	BYTE		        En2   v012
	BYTE	W06
	BYTE		        En2   v088
	BYTE	W06
	BYTE		N11     En2   v004
	BYTE	W18
	BYTE		N05     En2   v096
	BYTE	W06
	BYTE		N07     En2   v012
	BYTE	W18
	BYTE		N05     En2   v092
	BYTE	W06
	BYTE		        En2   v008
	BYTE	W06
// 009   ----------------------------------------
	BYTE		        En2   v092
	BYTE	W06
	BYTE		        En2   v004
	BYTE	W06
	BYTE		        En2   v088
	BYTE	W06
	BYTE		N11     En2   v004
	BYTE	W18
	BYTE		N05     En2   v096
	BYTE	W06
	BYTE		N10     En2   v008
	BYTE	W18
	BYTE		N05     En2   v096
	BYTE	W06
	BYTE		        En2   v012
	BYTE	W06
	BYTE		        En2   v096
	BYTE	W06
	BYTE		        En2   v008
	BYTE	W06
	BYTE		        En2   v088
	BYTE	W06
	BYTE		N10     En2   v004
	BYTE	W06
// 010   ----------------------------------------
	BYTE	W12
	BYTE		N05     En2   v096
	BYTE	W06
	BYTE		N09     En2   v012
	BYTE	W18
	BYTE		N05     En2   v084
	BYTE	W06
	BYTE		        En2   v004
	BYTE	W06
	BYTE		        En2   v096
	BYTE	W06
	BYTE		        En2   v008
	BYTE	W06
	BYTE		        En2   v084
	BYTE	W06
	BYTE		N11     En2   v004
	BYTE	W18
	BYTE		N05     En2   v092
	BYTE	W06
	BYTE		N10     En2   v008
	BYTE	W06
// 011   ----------------------------------------
	BYTE	W12
	BYTE		N05     Fn2   v092
	BYTE	W06
	BYTE		        Fn2   v004
	BYTE	W06
	BYTE		        Fn2   v100
	BYTE	W06
	BYTE		        Fn2   v016
	BYTE	W06
	BYTE		        Fn2   v100
	BYTE	W06
	BYTE		N11     Fn2   v016
	BYTE	W18
	BYTE		N05     Fn2   v108
	BYTE	W06
	BYTE		N11     Fn2   v024
	BYTE	W18
	BYTE		N05     Fn2   v112
	BYTE	W06
	BYTE		        Fn2   v028
	BYTE	W06
// 012   ----------------------------------------
	BYTE		        Dn2   v104
	BYTE	W06
	BYTE		        Dn2   v020
	BYTE	W06
	BYTE		        Dn2   v104
	BYTE	W06
	BYTE		N10     Dn2   v016
	BYTE	W18
	BYTE		N05     Dn2   v096
	BYTE	W06
	BYTE		N10     Dn2   v008
	BYTE	W18
	BYTE		N05     Dn2   v100
	BYTE	W06
	BYTE		        Dn2   v012
	BYTE	W06
	BYTE		        Dn2   v100
	BYTE	W06
	BYTE		        Dn2   v016
	BYTE	W06
	BYTE		        Dn2   v104
	BYTE	W06
	BYTE		N10     Dn2   v020
	BYTE	W06
// 013   ----------------------------------------
	BYTE	W12
	BYTE		N05     Dn2   v104
	BYTE	W06
	BYTE		N07     Dn2   v016
	BYTE	W18
	BYTE		N05     Dn2   v100
	BYTE	W06
	BYTE		        Dn2   v012
	BYTE	W06
	BYTE		        Dn2   v108
	BYTE	W06
	BYTE		        Dn2   v024
	BYTE	W06
	BYTE		        Dn2   v100
	BYTE	W06
	BYTE		N11     Dn2   v016
	BYTE	W18
	BYTE		N05     Dn2   v104
	BYTE	W06
	BYTE		N10     Dn2   v016
	BYTE	W06
// 014   ----------------------------------------
	BYTE	W12
	BYTE		N05     Dn2   v100
	BYTE	W06
	BYTE		        Dn2   v016
	BYTE	W06
	BYTE		        Dn2   v112
	BYTE	W06
	BYTE		        Dn2   v024
	BYTE	W06
	BYTE		        Dn2   v104
	BYTE	W06
	BYTE		N10     Dn2   v020
	BYTE	W18
	BYTE		N05     Dn2   v104
	BYTE	W06
	BYTE		N10     Dn2   v020
	BYTE	W18
	BYTE		N05     Dn2   v096
	BYTE	W06
	BYTE		        Dn2   v008
	BYTE	W06
// 015   ----------------------------------------
	BYTE		        Dn2   v104
	BYTE	W06
	BYTE		        Dn2   v020
	BYTE	W06
	BYTE		        Dn2   v100
	BYTE	W06
	BYTE		N11     Dn2   v012
	BYTE	W18
	BYTE		N05     Dn2   v100
	BYTE	W06
	BYTE		N11     Dn2   v012
	BYTE	W18
	BYTE		N05     Dn2   v096
	BYTE	W06
	BYTE		        Dn2   v008
	BYTE	W06
	BYTE		        Dn2   v096
	BYTE	W06
	BYTE		        Dn2   v008
	BYTE	W06
	BYTE		        Dn2   v096
	BYTE	W06
	BYTE		N11     Dn2   v008
	BYTE	W06
// 016   ----------------------------------------
	BYTE	W12
	BYTE		N05     Dn2   v096
	BYTE	W06
	BYTE		N11     Dn2   v008
	BYTE	W18
	BYTE		N05     Dn2   v100
	BYTE	W06
	BYTE		        Dn2   v012
	BYTE	W06
	BYTE		        Dn2   v084
	BYTE	W06
	BYTE		        Dn2   v004
	BYTE	W06
	BYTE		        Dn2   v096
	BYTE	W06
	BYTE		N11     Dn2   v008
	BYTE	W18
	BYTE		N05     Dn2   v096
	BYTE	W06
	BYTE		N11     Dn2   v008
	BYTE	W06
// 017   ----------------------------------------
	BYTE	W12
	BYTE		N05     Dn2   v088
	BYTE	W06
	BYTE		        Dn2   v004
	BYTE	W06
	BYTE		        Dn2   v104
	BYTE	W06
	BYTE		        Dn2   v020
	BYTE	W06
	BYTE		        Dn2   v104
	BYTE	W06
	BYTE		N11     Dn2   v016
	BYTE	W18
	BYTE		N05     Dn2   v108
	BYTE	W06
	BYTE		N11     Dn2   v024
	BYTE	W18
	BYTE		N05     Dn2   v092
	BYTE	W06
	BYTE		        Dn2   v004
	BYTE	W06
// 018   ----------------------------------------
	BYTE		        En2   v088
	BYTE	W06
	BYTE		        En2   v004
	BYTE	W06
	BYTE		        En2   v088
	BYTE	W06
	BYTE		N11     En2   v004
	BYTE	W18
	BYTE		N05     En2   v088
	BYTE	W06
	BYTE		N11     En2   v004
	BYTE	W18
	BYTE		N05     En2   v100
	BYTE	W06
	BYTE		        En2   v016
	BYTE	W06
	BYTE		        En2   v092
	BYTE	W06
	BYTE		        En2   v008
	BYTE	W06
	BYTE		        En2   v088
	BYTE	W06
	BYTE		N11     En2   v004
	BYTE	W06
// 019   ----------------------------------------
	BYTE	W12
	BYTE		N05     En2   v100
	BYTE	W06
	BYTE		N10     En2   v016
	BYTE	W18
	BYTE		N05     En2   v104
	BYTE	W06
	BYTE		        En2   v016
	BYTE	W06
	BYTE		        En2   v100
	BYTE	W06
	BYTE		        En2   v012
	BYTE	W06
	BYTE		        En2   v088
	BYTE	W06
	BYTE		N11     En2   v004
	BYTE	W18
	BYTE		N05     En2   v092
	BYTE	W06
	BYTE		N11     En2   v008
	BYTE	W06
// 020   ----------------------------------------
	BYTE	W12
	BYTE		N05     En2   v096
	BYTE	W06
	BYTE		        En2   v012
	BYTE	W06
	BYTE		        En2   v088
	BYTE	W06
	BYTE		        En2   v004
	BYTE	W06
	BYTE		        En2   v084
	BYTE	W06
	BYTE		N11     En2   v004
	BYTE	W18
	BYTE		N05     En2   v092
	BYTE	W06
	BYTE		N11     En2   v008
	BYTE	W18
	BYTE		N05     En2   v088
	BYTE	W06
	BYTE		        En2   v004
	BYTE	W06
// 021   ----------------------------------------
	BYTE		        En2   v084
	BYTE	W06
	BYTE		        En2   v004
	BYTE	W06
	BYTE		        En2   v088
	BYTE	W06
	BYTE		N11     En2   v004
	BYTE	W18
	BYTE		N05     En2   v084
	BYTE	W06
	BYTE		        En2   v004
	BYTE	W06
	BYTE		        En2   v080
	BYTE	W06
	BYTE		        En2   v004
	BYTE	W06
	BYTE		        En2   v084
	BYTE	W06
	BYTE		        En2   v004
	BYTE	W06
	BYTE		        En2   v084
	BYTE	W06
	BYTE		        En2   v004
	BYTE	W06
	BYTE		        En2   v088
	BYTE	W06
	BYTE		N11     En2   v004
	BYTE	W06
// 022   ----------------------------------------
	BYTE	W12
	BYTE		N05     En2   v088
	BYTE	W06
	BYTE		N11     En2   v004
	BYTE	W18
	BYTE		N05     En2   v092
	BYTE	W06
	BYTE		        En2   v008
	BYTE	W06
	BYTE		        En2   v100
	BYTE	W06
	BYTE		        En2   v012
	BYTE	W06
	BYTE		        En2   v084
	BYTE	W06
	BYTE		N11     En2   v004
	BYTE	W18
	BYTE		N05     En2   v088
	BYTE	W06
	BYTE		N11     En2   v004
	BYTE	W06
// 023   ----------------------------------------
	BYTE	W12
	BYTE		N05     En2   v080
	BYTE	W06
	BYTE		        En2   v004
	BYTE	W06
	BYTE		        Fn2   v080
	BYTE	W06
	BYTE		        Fn2   v004
	BYTE	W06
	BYTE		        Fn2   v096
	BYTE	W06
	BYTE		N11     Fn2   v008
	BYTE	W18
	BYTE		N05     Fn2   v104
	BYTE	W06
	BYTE		N11     Fn2   v020
	BYTE	W18
	BYTE		N05     Fn2   v104
	BYTE	W06
	BYTE		        Fn2   v016
	BYTE	W06
// 024   ----------------------------------------
	BYTE	W96
// 025   ----------------------------------------
	BYTE	W96
// 026   ----------------------------------------
	BYTE	W96
	BYTE	GoTo
	 POIN2	FE02CelicaEnemyPhasehypergammaspaces_4_B1
FE02CelicaEnemyPhasehypergammaspaces_4_B2:
// 027   ----------------------------------------
	BYTE	FINE

//**************** Track 5 (Midi-Chn.5) ****************//

FE02CelicaEnemyPhasehypergammaspaces_5:
	BYTE	KEYSH   FE02CelicaEnemyPhasehypergammaspaces_key+0
FE02CelicaEnemyPhasehypergammaspaces_5_B1:
// 000   ----------------------------------------
	BYTE		VOICE   33
	BYTE		VOL     82*FE02CelicaEnemyPhasehypergammaspaces_mvl/mxv
	BYTE		PAN     c_v-4
	BYTE		N17     Gn1   v096
	BYTE	W18
	BYTE		        Gn1   v020
	BYTE	W18
	BYTE		        Gn1   v096
	BYTE	W18
	BYTE		        Gn1   v024
	BYTE	W18
	BYTE		        Gn1   v104
	BYTE	W18
	BYTE		        Gn1   v028
	BYTE	W06
// 001   ----------------------------------------
FE02CelicaEnemyPhasehypergammaspaces_5_001:
	BYTE	W12
	BYTE		N17     Gn1   v100
	BYTE	W18
	BYTE		        Gn1   v028
	BYTE	W18
	BYTE		        Gn1   v096
	BYTE	W18
	BYTE		        Gn1   v020
	BYTE	W18
	BYTE		        Gn1   v096
	BYTE	W12
	BYTE	PEND
// 002   ----------------------------------------
FE02CelicaEnemyPhasehypergammaspaces_5_002:
	BYTE	W06
	BYTE		N17     Gn1   v024
	BYTE	W18
	BYTE		        Gn1   v104
	BYTE	W18
	BYTE		        Gn1   v028
	BYTE	W18
	BYTE		        Gn1   v100
	BYTE	W18
	BYTE		        Gn1   v028
	BYTE	W18
	BYTE	PEND
// 003   ----------------------------------------
FE02CelicaEnemyPhasehypergammaspaces_5_003:
	BYTE		N17     Gn1   v096
	BYTE	W18
	BYTE		        Gn1   v020
	BYTE	W18
	BYTE		        Gn1   v096
	BYTE	W18
	BYTE		        Gn1   v024
	BYTE	W18
	BYTE		        Gn1   v104
	BYTE	W18
	BYTE		        Gn1   v028
	BYTE	W06
	BYTE	PEND
// 004   ----------------------------------------
	BYTE	PATT
	 POIN2	FE02CelicaEnemyPhasehypergammaspaces_5_001
// 005   ----------------------------------------
	BYTE	PATT
	 POIN2	FE02CelicaEnemyPhasehypergammaspaces_5_002
// 006   ----------------------------------------
FE02CelicaEnemyPhasehypergammaspaces_5_006:
	BYTE		N17     An1   v096
	BYTE	W18
	BYTE		        An1   v020
	BYTE	W18
	BYTE		        An1   v096
	BYTE	W18
	BYTE		        An1   v024
	BYTE	W18
	BYTE		        An1   v104
	BYTE	W18
	BYTE		        An1   v028
	BYTE	W06
	BYTE	PEND
// 007   ----------------------------------------
FE02CelicaEnemyPhasehypergammaspaces_5_007:
	BYTE	W12
	BYTE		N17     An1   v100
	BYTE	W18
	BYTE		        An1   v028
	BYTE	W18
	BYTE		        An1   v096
	BYTE	W18
	BYTE		        An1   v020
	BYTE	W18
	BYTE		        An1   v096
	BYTE	W12
	BYTE	PEND
// 008   ----------------------------------------
FE02CelicaEnemyPhasehypergammaspaces_5_008:
	BYTE	W06
	BYTE		N17     An1   v024
	BYTE	W18
	BYTE		        An1   v104
	BYTE	W18
	BYTE		        An1   v028
	BYTE	W18
	BYTE		        An1   v100
	BYTE	W18
	BYTE		        An1   v028
	BYTE	W18
	BYTE	PEND
// 009   ----------------------------------------
	BYTE	PATT
	 POIN2	FE02CelicaEnemyPhasehypergammaspaces_5_006
// 010   ----------------------------------------
	BYTE	W12
	BYTE		N17     An1   v100
	BYTE	W18
	BYTE		        An1   v028
	BYTE	W18
	BYTE		        An1   v096
	BYTE	W18
	BYTE		        An1   v020
	BYTE	W18
	BYTE		        As1   v096
	BYTE	W12
// 011   ----------------------------------------
	BYTE	W06
	BYTE		        As1   v024
	BYTE	W18
	BYTE		        As1   v104
	BYTE	W18
	BYTE		        As1   v028
	BYTE	W18
	BYTE		        As1   v100
	BYTE	W18
	BYTE		        As1   v028
	BYTE	W18
// 012   ----------------------------------------
	BYTE	PATT
	 POIN2	FE02CelicaEnemyPhasehypergammaspaces_5_003
// 013   ----------------------------------------
	BYTE	PATT
	 POIN2	FE02CelicaEnemyPhasehypergammaspaces_5_001
// 014   ----------------------------------------
	BYTE	PATT
	 POIN2	FE02CelicaEnemyPhasehypergammaspaces_5_002
// 015   ----------------------------------------
	BYTE	PATT
	 POIN2	FE02CelicaEnemyPhasehypergammaspaces_5_003
// 016   ----------------------------------------
	BYTE	PATT
	 POIN2	FE02CelicaEnemyPhasehypergammaspaces_5_001
// 017   ----------------------------------------
	BYTE	PATT
	 POIN2	FE02CelicaEnemyPhasehypergammaspaces_5_002
// 018   ----------------------------------------
	BYTE	PATT
	 POIN2	FE02CelicaEnemyPhasehypergammaspaces_5_006
// 019   ----------------------------------------
	BYTE	PATT
	 POIN2	FE02CelicaEnemyPhasehypergammaspaces_5_007
// 020   ----------------------------------------
	BYTE	PATT
	 POIN2	FE02CelicaEnemyPhasehypergammaspaces_5_008
// 021   ----------------------------------------
	BYTE	PATT
	 POIN2	FE02CelicaEnemyPhasehypergammaspaces_5_006
// 022   ----------------------------------------
	BYTE	PATT
	 POIN2	FE02CelicaEnemyPhasehypergammaspaces_5_007
// 023   ----------------------------------------
	BYTE	W06
	BYTE		N17     An1   v024
	BYTE	W18
	BYTE		        As1   v104
	BYTE	W18
	BYTE		        As1   v028
	BYTE	W18
	BYTE		        As1   v100
	BYTE	W18
	BYTE		        As1   v028
	BYTE	W18
// 024   ----------------------------------------
	BYTE		N23     Gn1   v108
	BYTE	W24
	BYTE		N11     Gn1   v036
	BYTE	W12
	BYTE		N23     As1   v080
	BYTE	W24
	BYTE		N11     As1   v008
	BYTE	W12
	BYTE		N23     An1   v096
	BYTE	W24
// 025   ----------------------------------------
	BYTE		N11     An1   v024
	BYTE	W12
	BYTE		N23     Cn2   v092
	BYTE	W24
	BYTE		N11     Cn2   v020
	BYTE	W12
	BYTE		N23     As1   v092
	BYTE	W24
	BYTE		N44     As1   v020
	BYTE	W24
// 026   ----------------------------------------
	BYTE	W36
	BYTE		N08     Cs2   v096
	BYTE	W08
	BYTE		N02     Cs2   v020
	BYTE	W04
	BYTE		N08     Dn2   v100
	BYTE	W08
	BYTE		N02     Dn2   v024
	BYTE	W04
	BYTE		N08     An1   v100
	BYTE	W09
	BYTE		N02     An1   v024
	BYTE	W03
	BYTE		N08     As1   v088
	BYTE	W08
	BYTE		N02     As1   v016
	BYTE	W04
	BYTE		N08     Fs1   v088
	BYTE	W08
	BYTE		N02     Fs1   v016
	BYTE	W04
	BYTE	GoTo
	 POIN2	FE02CelicaEnemyPhasehypergammaspaces_5_B1
FE02CelicaEnemyPhasehypergammaspaces_5_B2:
// 027   ----------------------------------------
	BYTE	FINE

//**************** Track 6 (Midi-Chn.6) ****************//

FE02CelicaEnemyPhasehypergammaspaces_6:
	BYTE	KEYSH   FE02CelicaEnemyPhasehypergammaspaces_key+0
FE02CelicaEnemyPhasehypergammaspaces_6_B1:
// 000   ----------------------------------------
	BYTE		VOICE   127
	BYTE		VOL     82*FE02CelicaEnemyPhasehypergammaspaces_mvl/mxv
	BYTE		PAN     c_v-4
	BYTE		N11     Gn1   v100
	BYTE	W12
	BYTE		N23     Gn1   v104
	BYTE	W24
	BYTE		        Gn1   v100
	BYTE	W24
	BYTE		N11   
	BYTE	W12
	BYTE		        Gn1   v104
	BYTE	W12
	BYTE		N23   
	BYTE	W12
// 001   ----------------------------------------
	BYTE	W12
	BYTE		N23   
	BYTE	W24
	BYTE		N11     Gn1   v100
	BYTE	W12
	BYTE		        Gn1   v104
	BYTE	W12
	BYTE		N23     Gn1   v108
	BYTE	W24
	BYTE		        Gn1   v100
	BYTE	W12
// 002   ----------------------------------------
	BYTE	W12
	BYTE		N11   
	BYTE	W12
	BYTE		        Gn1   v104
	BYTE	W12
	BYTE		N23   
	BYTE	W24
	BYTE		N11     Fn1   v108
	BYTE	W12
	BYTE		        Gn1   v104
	BYTE	W12
	BYTE		        Fn1   v112
	BYTE	W12
// 003   ----------------------------------------
	BYTE		        Gn1   v108
	BYTE	W12
	BYTE		N23     Gn1   v100
	BYTE	W24
	BYTE		N23   
	BYTE	W24
	BYTE		N11     Gn1   v104
	BYTE	W12
	BYTE		N11   
	BYTE	W12
	BYTE		N23   
	BYTE	W12
// 004   ----------------------------------------
	BYTE	W12
	BYTE		        Gn1   v112
	BYTE	W24
	BYTE		N11     Gn1   v108
	BYTE	W12
	BYTE		        Gn1   v096
	BYTE	W12
	BYTE		N23     Gn1   v104
	BYTE	W24
	BYTE		N11   
	BYTE	W12
// 005   ----------------------------------------
	BYTE		        Gn1   v052
	BYTE	W12
	BYTE		        Gn1   v104
	BYTE	W12
	BYTE		        Gn1   v100
	BYTE	W12
	BYTE		N23     Gn1   v108
	BYTE	W24
	BYTE		N11     Fn1   v092
	BYTE	W12
	BYTE		        Gn1   v108
	BYTE	W12
	BYTE		        Fn1   v092
	BYTE	W12
// 006   ----------------------------------------
	BYTE		        Gn1   v100
	BYTE	W12
	BYTE		N23   
	BYTE	W24
	BYTE		        Gn1   v104
	BYTE	W24
	BYTE		N11     Gn1   v080
	BYTE	W12
	BYTE		        Gn1   v092
	BYTE	W12
	BYTE		N23     Gn1   v104
	BYTE	W12
// 007   ----------------------------------------
	BYTE	W12
	BYTE		N32   
	BYTE	W36
	BYTE		N11     Gn1   v100
	BYTE	W12
	BYTE		N23     Gn1   v092
	BYTE	W24
	BYTE		        Gn1   v100
	BYTE	W12
// 008   ----------------------------------------
	BYTE	W12
	BYTE		N11     Gn1   v108
	BYTE	W12
	BYTE		N23   
	BYTE	W24
	BYTE		N32     Gn1   v104
	BYTE	W48
// 009   ----------------------------------------
	BYTE		N11     Gn1   v092
	BYTE	W12
	BYTE		N23     Gn1   v096
	BYTE	W24
	BYTE		        Gn1   v100
	BYTE	W24
	BYTE		N11     Gn1   v096
	BYTE	W12
	BYTE		N11   
	BYTE	W12
	BYTE		        Gn1   v052
	BYTE	W12
// 010   ----------------------------------------
	BYTE		N32     Gn1   v100
	BYTE	W48
	BYTE		N11     Gn1   v096
	BYTE	W12
	BYTE		N23     Gn1   v092
	BYTE	W24
	BYTE		N23   
	BYTE	W12
// 011   ----------------------------------------
	BYTE	W12
	BYTE		N11     Gn1   v068
	BYTE	W12
	BYTE		        Fn1   v084
	BYTE	W12
	BYTE		N23     Fn1   v092
	BYTE	W24
	BYTE		N23   
	BYTE	W24
	BYTE		N32     Fn1   v088
	BYTE	W12
// 012   ----------------------------------------
	BYTE	W24
	BYTE		N11     Gn1   v092
	BYTE	W12
	BYTE		N23     Gn1   v076
	BYTE	W24
	BYTE		N11     Gn1   v088
	BYTE	W12
	BYTE		        Gn1   v092
	BYTE	W12
	BYTE		N23     Gn1   v100
	BYTE	W12
// 013   ----------------------------------------
	BYTE	W12
	BYTE		N11     Fn1   v080
	BYTE	W12
	BYTE		        Gn1   v088
	BYTE	W12
	BYTE		        Fn1   v080
	BYTE	W12
	BYTE		        Gn1   v092
	BYTE	W12
	BYTE		N23   
	BYTE	W24
	BYTE		N11     Gn1   v088
	BYTE	W12
// 014   ----------------------------------------
	BYTE		        Gn1   v052
	BYTE	W12
	BYTE		        Gn1   v088
	BYTE	W12
	BYTE		        Gn1   v080
	BYTE	W12
	BYTE		N23     Gn1   v076
	BYTE	W24
	BYTE		N11     Fn1   v084
	BYTE	W12
	BYTE		        Gn1   v076
	BYTE	W12
	BYTE		        Fn1   v080
	BYTE	W12
// 015   ----------------------------------------
	BYTE		        Gn1   v072
	BYTE	W12
	BYTE		N23     Gn1   v084
	BYTE	W24
	BYTE		        Gn1   v068
	BYTE	W24
	BYTE		N11     Gn1   v056
	BYTE	W12
	BYTE		        Gn1   v080
	BYTE	W12
	BYTE		        Gn1   v064
	BYTE	W12
// 016   ----------------------------------------
	BYTE		        Fn1 
	BYTE	W12
	BYTE		        Gn1   v072
	BYTE	W12
	BYTE		        Gn1   v068
	BYTE	W12
	BYTE		        Fn1   v052
	BYTE	W12
	BYTE		        Gn1   v072
	BYTE	W12
	BYTE		N23     Gn1   v092
	BYTE	W24
	BYTE		        Gn1   v076
	BYTE	W12
// 017   ----------------------------------------
	BYTE	W12
	BYTE		N11     Fn1   v056
	BYTE	W12
	BYTE		        Gn1   v072
	BYTE	W12
	BYTE		N23     Gn1   v068
	BYTE	W24
	BYTE		N11     Fn1   v072
	BYTE	W12
	BYTE		        Gn1   v060
	BYTE	W12
	BYTE		        Fn1   v052
	BYTE	W12
// 018   ----------------------------------------
	BYTE		        Gn1   v064
	BYTE	W12
	BYTE		N32   
	BYTE	W60
	BYTE		N11     Gn1   v052
	BYTE	W12
	BYTE		N23     Gn1   v064
	BYTE	W12
// 019   ----------------------------------------
	BYTE	W12
	BYTE		N23   
	BYTE	W24
	BYTE		N40     Fn1   v056
	BYTE	W48
	BYTE		N23     Gn1   v064
	BYTE	W12
// 020   ----------------------------------------
	BYTE	W12
	BYTE		N11     Fn1   v060
	BYTE	W12
	BYTE		        Gn1   v052
	BYTE	W12
	BYTE		N23   
	BYTE	W24
	BYTE		N11     Fn1 
	BYTE	W12
	BYTE		        Gn1 
	BYTE	W12
	BYTE		N23     Fn1 
	BYTE	W12
// 021   ----------------------------------------
	BYTE	W12
	BYTE		        Gn1   v072
	BYTE	W24
	BYTE		        Gn1   v068
	BYTE	W24
	BYTE		N11     Fn1   v052
	BYTE	W12
	BYTE		        Gn1 
	BYTE	W12
	BYTE		N23     Gn1   v060
	BYTE	W12
// 022   ----------------------------------------
	BYTE	W12
	BYTE		        Gn1   v072
	BYTE	W24
	BYTE		N32     Fn1   v052
	BYTE	W48
	BYTE		        Gn1 
	BYTE	W12
// 023   ----------------------------------------
	BYTE	W84
	BYTE		N11     Fn1 
	BYTE	W12
// 024   ----------------------------------------
	BYTE		N32     Gn1 
	BYTE	W36
	BYTE		N44     Fn1 
	BYTE	W48
	BYTE		N32     Gn1   v068
	BYTE	W12
// 025   ----------------------------------------
	BYTE	W24
	BYTE		N23     Fn1   v052
	BYTE	W24
	BYTE		N56     Gn1 
	BYTE	W48
// 026   ----------------------------------------
	BYTE	W96
	BYTE	GoTo
	 POIN2	FE02CelicaEnemyPhasehypergammaspaces_6_B1
FE02CelicaEnemyPhasehypergammaspaces_6_B2:
// 027   ----------------------------------------
	BYTE	FINE

//******************************************************//
	ALIGN 4

FE02CelicaEnemyPhasehypergammaspaces:
	BYTE	6	// NumTrks
	BYTE	0	// NumBlks
	BYTE	FE02CelicaEnemyPhasehypergammaspaces_pri	// Priority
	BYTE	FE02CelicaEnemyPhasehypergammaspaces_rev	// Reverb.

	POIN2	FE02CelicaEnemyPhasehypergammaspaces_grp

	POIN2	FE02CelicaEnemyPhasehypergammaspaces_1
	POIN2	FE02CelicaEnemyPhasehypergammaspaces_2
	POIN2	FE02CelicaEnemyPhasehypergammaspaces_3
	POIN2	FE02CelicaEnemyPhasehypergammaspaces_4
	POIN2	FE02CelicaEnemyPhasehypergammaspaces_5
	POIN2	FE02CelicaEnemyPhasehypergammaspaces_6

	
