//Event file generated from Sappy .s format.
	#include "MPlayDef.event"

	#define	FE03MainThemeSme_grp  voicegroup000
	#define	FE03MainThemeSme_pri  0
	#define	FE03MainThemeSme_rev  0
	#define	FE03MainThemeSme_mvl  85
	#define	FE03MainThemeSme_key  0
	#define	FE03MainThemeSme_tbs  1
	#define	FE03MainThemeSme_exg  0
	#define	FE03MainThemeSme_cmp  1

	// .rodata
	//	FE03MainThemeSme
	ALIGN 4

//**************** Track 1 (Midi-Chn.1) ****************//

FE03MainThemeSme_1:
	BYTE	KEYSH   FE03MainThemeSme_key+0
// 000   ----------------------------------------
	BYTE	TEMPO   58*FE03MainThemeSme_tbs/2
	BYTE		VOICE   57
	BYTE		VOL     103*FE03MainThemeSme_mvl/mxv
	BYTE		PAN     c_v-14
	BYTE		N32     Gs3   v096
	BYTE	W36
	BYTE		N02     Gs3   v108
	BYTE	W04
	BYTE		        Gs3   v096
	BYTE	W04
	BYTE		        Cs4 
	BYTE	W04
	BYTE		N44     As3   v108
	BYTE	W48
// 001   ----------------------------------------
	BYTE		N32     As3   v096
	BYTE	W36
	BYTE		N02     As3   v108
	BYTE	W04
	BYTE		        Cn4   v096
	BYTE	W04
	BYTE		        Cs4 
	BYTE	W04
	BYTE		N44     Cn4   v108
	BYTE	W48
// 002   ----------------------------------------
	BYTE		N32     Bn3   v092
	BYTE	W36
	BYTE		N02     Bn3   v108
	BYTE	W04
	BYTE		        Bn3   v096
	BYTE	W04
	BYTE		N02   
	BYTE	W04
	BYTE		N23     As3   v104
	BYTE	W24
	BYTE		        Gn3   v096
	BYTE	W24
// 003   ----------------------------------------
	BYTE		N11     Ds3   v092
	BYTE	W12
	BYTE		N03     Ds3   v088
	BYTE	W04
	BYTE		        Ds3   v076
	BYTE	W04
	BYTE		N03   
	BYTE	W04
	BYTE		N11     Fn3   v096
	BYTE	W12
	BYTE		N03     Fn3   v092
	BYTE	W04
	BYTE		        Fn3   v076
	BYTE	W04
	BYTE		N03   
	BYTE	W04
	BYTE		N11     Gn3   v096
	BYTE	W12
	BYTE		N03     Gn3   v092
	BYTE	W04
	BYTE		        Gn3   v080
	BYTE	W04
	BYTE		N03   
	BYTE	W04
	BYTE		N11     Gs3   v100
	BYTE	W12
	BYTE		        Gs3   v112
	BYTE	W12
// 004   ----------------------------------------
	BYTE		        Gs3   v104
	BYTE	W12
	BYTE		N03   
	BYTE	W04
	BYTE		        Gs3   v092
	BYTE	W04
	BYTE		N03   
	BYTE	W04
	BYTE		N11     As3   v108
	BYTE	W12
	BYTE		N03   
	BYTE	W04
	BYTE		        As3   v092
	BYTE	W04
	BYTE		N03   
	BYTE	W04
	BYTE		N11     As3   v112
	BYTE	W12
	BYTE		N03   
	BYTE	W04
	BYTE		        As3   v096
	BYTE	W04
	BYTE		N03   
	BYTE	W04
	BYTE		N11     Dn4   v120
	BYTE	W12
	BYTE		        Fn3   v104
	BYTE	W12
// 005   ----------------------------------------
	BYTE	TEMPO   61*FE03MainThemeSme_tbs/2
	BYTE		VOICE   48
	BYTE		VOL     90*FE03MainThemeSme_mvl/mxv
	BYTE		PAN     c_v+25
	BYTE		N05     Ds3 
	BYTE	W06
	BYTE		N02   
	BYTE	W03
	BYTE		        Ds3   v092
	BYTE	W03
	BYTE		N05     Ds3   v104
	BYTE	W06
	BYTE		N05   
	BYTE	W12
	BYTE		N02   
	BYTE	W03
	BYTE		        Ds3   v092
	BYTE	W03
	BYTE		N05     Ds3   v104
	BYTE	W06
	BYTE		N02   
	BYTE	W03
	BYTE		        Ds3   v092
	BYTE	W03
	BYTE		N05     Ds3   v104
	BYTE	W06
	BYTE		N02     Cs3 
	BYTE	W03
	BYTE		        Cs3   v092
	BYTE	W03
	BYTE		N05     Cs3   v104
	BYTE	W06
	BYTE		N05   
	BYTE	W12
	BYTE		N05   
	BYTE	W06
	BYTE		        Fn3 
	BYTE	W06
	BYTE		        Cs3 
	BYTE	W06
// 006   ----------------------------------------
	BYTE		        Ds3 
	BYTE	W06
	BYTE		N02   
	BYTE	W03
	BYTE		        Ds3   v092
	BYTE	W03
	BYTE		N05     Ds3   v104
	BYTE	W06
	BYTE		N05   
	BYTE	W12
	BYTE		N02   
	BYTE	W03
	BYTE		        Ds3   v092
	BYTE	W03
	BYTE		N05     Ds3   v104
	BYTE	W06
	BYTE		N02   
	BYTE	W03
	BYTE		        Ds3   v092
	BYTE	W03
	BYTE		N05     Ds3   v104
	BYTE	W06
	BYTE		N02     Cs3 
	BYTE	W03
	BYTE		        Cs3   v092
	BYTE	W03
	BYTE		N05     Cs3   v104
	BYTE	W06
	BYTE		N05   
	BYTE	W12
	BYTE		N05   
	BYTE	W06
	BYTE		        Fn3 
	BYTE	W06
	BYTE		        Gs3 
	BYTE	W06
// 007   ----------------------------------------
	BYTE		VOL     106*FE03MainThemeSme_mvl/mxv
	BYTE	W96
// 008   ----------------------------------------
	BYTE		VOICE   60
	BYTE		VOL     68*FE03MainThemeSme_mvl/mxv
	BYTE		PAN     c_v+34
	BYTE		N02     Cn5 
	BYTE	W03
	BYTE		        Dn5   v092
	BYTE	W03
	BYTE		        Cn5 
	BYTE	W03
	BYTE		        Dn5 
	BYTE	W03
	BYTE		        Cn5 
	BYTE	W03
	BYTE		        Dn5 
	BYTE	W03
	BYTE		        Cn5 
	BYTE	W03
	BYTE		        Dn5 
	BYTE	W03
	BYTE		        Cn5 
	BYTE	W03
	BYTE		        Dn5 
	BYTE	W03
	BYTE		        Cn5 
	BYTE	W03
	BYTE		        Dn5 
	BYTE	W03
	BYTE		VOL     67*FE03MainThemeSme_mvl/mxv
	BYTE		N01     Cn5   v084
	BYTE	W02
	BYTE		VOL     66*FE03MainThemeSme_mvl/mxv
	BYTE		N01     Dn5 
	BYTE	W01
	BYTE		VOL     65*FE03MainThemeSme_mvl/mxv
	BYTE	W01
	BYTE		        64*FE03MainThemeSme_mvl/mxv
	BYTE	W01
	BYTE		N01     Cn5 
	BYTE	W01
	BYTE		VOL     63*FE03MainThemeSme_mvl/mxv
	BYTE	W01
	BYTE		        62*FE03MainThemeSme_mvl/mxv
	BYTE		N01     Dn5 
	BYTE	W02
	BYTE		VOL     61*FE03MainThemeSme_mvl/mxv
	BYTE	W01
	BYTE		        60*FE03MainThemeSme_mvl/mxv
	BYTE		N01     Ds5 
	BYTE	W01
	BYTE		VOL     59*FE03MainThemeSme_mvl/mxv
	BYTE	W01
	BYTE		VOICE   63
	BYTE		VOL     80*FE03MainThemeSme_mvl/mxv
	BYTE		PAN     c_v+43
	BYTE		N16     As3   v104
	BYTE	W18
	BYTE		N02     As3   v108
	BYTE	W03
	BYTE		        As3   v096
	BYTE	W03
	BYTE		N05     As3   v104
	BYTE	W06
	BYTE		N05   
	BYTE	W06
	BYTE		N05   
	BYTE	W06
	BYTE		N05   
	BYTE	W06
// 009   ----------------------------------------
	BYTE		N44   
	BYTE	W96
// 010   ----------------------------------------
FE03MainThemeSme_1_010:
	BYTE	W72
	BYTE		VOICE   60
	BYTE		VOL     68*FE03MainThemeSme_mvl/mxv
	BYTE		PAN     c_v+34
	BYTE		N02     As3   v092
	BYTE	W03
	BYTE		        Cn4   v080
	BYTE	W03
	BYTE		        Dn4   v084
	BYTE	W03
	BYTE		        Ds4   v088
	BYTE	W03
	BYTE		        Fn4   v092
	BYTE	W03
	BYTE		        Gn4   v096
	BYTE	W03
	BYTE		        Gs4   v100
	BYTE	W03
	BYTE		N48     As4   v104
	BYTE	W03
	BYTE	PEND
// 011   ----------------------------------------
	BYTE	W96
// 012   ----------------------------------------
	BYTE		VOICE   60
	BYTE		N02     Cn5 
	BYTE	W03
	BYTE		        Dn5   v092
	BYTE	W03
	BYTE		        Cn5 
	BYTE	W03
	BYTE		        Dn5 
	BYTE	W03
	BYTE		        Cn5 
	BYTE	W03
	BYTE		        Dn5 
	BYTE	W03
	BYTE		        Cn5 
	BYTE	W03
	BYTE		        Dn5 
	BYTE	W03
	BYTE		        Cn5 
	BYTE	W03
	BYTE		        Dn5 
	BYTE	W03
	BYTE		        Cn5 
	BYTE	W03
	BYTE		        Dn5 
	BYTE	W03
	BYTE		VOL     67*FE03MainThemeSme_mvl/mxv
	BYTE		N01     Cn5   v084
	BYTE	W02
	BYTE		VOL     66*FE03MainThemeSme_mvl/mxv
	BYTE		N01     Dn5 
	BYTE	W01
	BYTE		VOL     65*FE03MainThemeSme_mvl/mxv
	BYTE	W01
	BYTE		        64*FE03MainThemeSme_mvl/mxv
	BYTE	W01
	BYTE		N01     Cn5 
	BYTE	W01
	BYTE		VOL     63*FE03MainThemeSme_mvl/mxv
	BYTE	W01
	BYTE		        62*FE03MainThemeSme_mvl/mxv
	BYTE		N01     Dn5 
	BYTE	W02
	BYTE		VOL     61*FE03MainThemeSme_mvl/mxv
	BYTE	W01
	BYTE		        60*FE03MainThemeSme_mvl/mxv
	BYTE		N01     Ds5 
	BYTE	W01
	BYTE		VOL     59*FE03MainThemeSme_mvl/mxv
	BYTE	W01
	BYTE		VOICE   63
	BYTE		VOL     80*FE03MainThemeSme_mvl/mxv
	BYTE		PAN     c_v+43
	BYTE		N16     As3   v104
	BYTE	W18
	BYTE		N02     As3   v108
	BYTE	W03
	BYTE		        As3   v096
	BYTE	W03
	BYTE		N05     As3   v104
	BYTE	W06
	BYTE		N05   
	BYTE	W06
	BYTE		N05   
	BYTE	W06
	BYTE		N05   
	BYTE	W06
// 013   ----------------------------------------
	BYTE		N44   
	BYTE	W96
// 014   ----------------------------------------
FE03MainThemeSme_1_014:
	BYTE		VOICE   60
	BYTE		VOL     68*FE03MainThemeSme_mvl/mxv
	BYTE		PAN     c_v+34
	BYTE		N14     Cn5   v092
	BYTE	W15
	BYTE		N02     As4 
	BYTE	W03
	BYTE		        Gs4 
	BYTE	W03
	BYTE		        Gn4 
	BYTE	W03
	BYTE		        Fn5 
	BYTE	W03
	BYTE		        Ds5 
	BYTE	W03
	BYTE		        Dn5 
	BYTE	W03
	BYTE		        Cn5 
	BYTE	W03
	BYTE		        As4 
	BYTE	W03
	BYTE		        Gs4 
	BYTE	W03
	BYTE		        Gn4 
	BYTE	W03
	BYTE		        Fn4 
	BYTE	W03
	BYTE		N11     Ds4 
	BYTE	W12
	BYTE		N03     Ds5   v127
	BYTE	W36
	BYTE	PEND
// 015   ----------------------------------------
FE03MainThemeSme_1_015:
	BYTE		VOL     85*FE03MainThemeSme_mvl/mxv
	BYTE		N10     Cn3   v104
	BYTE	W12
	BYTE		N17     Gs4 
	BYTE	W18
	BYTE		N05     Fn4 
	BYTE	W06
	BYTE		        Ds4 
	BYTE	W06
	BYTE		        Dn4 
	BYTE	W06
	BYTE		N16     As4 
	BYTE	W18
	BYTE		N05     Gn4 
	BYTE	W06
	BYTE		N10     Ds4 
	BYTE	W12
	BYTE		N05   
	BYTE	W06
	BYTE		        Dn4 
	BYTE	W06
	BYTE	PEND
// 016   ----------------------------------------
FE03MainThemeSme_1_016:
	BYTE		N10     Cn4   v104
	BYTE	W12
	BYTE		N17     Cn5 
	BYTE	W18
	BYTE		N05     As4 
	BYTE	W06
	BYTE		        Gs4 
	BYTE	W06
	BYTE		        Fn4 
	BYTE	W06
	BYTE		N02     Gn4 
	BYTE	W03
	BYTE		        Gs4   v096
	BYTE	W03
	BYTE		        Gn4 
	BYTE	W03
	BYTE		        Gs4 
	BYTE	W03
	BYTE		        Gn4 
	BYTE	W03
	BYTE		        Gs4 
	BYTE	W03
	BYTE		        Gn4 
	BYTE	W03
	BYTE		        Gs4 
	BYTE	W03
	BYTE		        Gn4 
	BYTE	W03
	BYTE		        Gs4 
	BYTE	W03
	BYTE		        Gn4 
	BYTE	W03
	BYTE		        Gs4 
	BYTE	W03
	BYTE		        Gn4 
	BYTE	W03
	BYTE		        Fn4 
	BYTE	W03
	BYTE		        Ds4 
	BYTE	W03
	BYTE		        Dn4 
	BYTE	W03
	BYTE	PEND
// 017   ----------------------------------------
FE03MainThemeSme_1_017:
	BYTE		N10     Cn4   v104
	BYTE	W12
	BYTE		N17     Gs4 
	BYTE	W18
	BYTE		N05     Fn4 
	BYTE	W06
	BYTE		        Ds4 
	BYTE	W06
	BYTE		        Dn4 
	BYTE	W06
	BYTE		N16     As4 
	BYTE	W18
	BYTE		N05     Gn4 
	BYTE	W06
	BYTE		N10     Ds4 
	BYTE	W12
	BYTE		N05   
	BYTE	W06
	BYTE		        Dn4 
	BYTE	W06
	BYTE	PEND
// 018   ----------------------------------------
FE03MainThemeSme_1_018:
	BYTE		N02     Cn4   v092
	BYTE	W03
	BYTE		        Dn4 
	BYTE	W03
	BYTE		        Ds4 
	BYTE	W03
	BYTE		        Fn4 
	BYTE	W03
	BYTE		        Cn4 
	BYTE	W03
	BYTE		        Dn4 
	BYTE	W03
	BYTE		        Ds4 
	BYTE	W03
	BYTE		        Fn4 
	BYTE	W03
	BYTE		        Cn4 
	BYTE	W03
	BYTE		        Dn4 
	BYTE	W03
	BYTE		        Ds4 
	BYTE	W03
	BYTE		        Fn4 
	BYTE	W03
	BYTE		        Cn4   v088
	BYTE	W03
	BYTE		        Dn4 
	BYTE	W03
	BYTE		        Ds4 
	BYTE	W03
	BYTE		        En4 
	BYTE	W03
	BYTE		        Fn4 
	BYTE	W03
	BYTE		        Gn4 
	BYTE	W03
	BYTE		        Gs4 
	BYTE	W03
	BYTE		        As4 
	BYTE	W03
	BYTE		        As3 
	BYTE	W03
	BYTE		        Cn4 
	BYTE	W03
	BYTE		        Dn4 
	BYTE	W03
	BYTE		        Ds4 
	BYTE	W03
	BYTE		        Fn4   v084
	BYTE	W03
	BYTE		        Gn4 
	BYTE	W03
	BYTE		        Gs4 
	BYTE	W03
	BYTE		        As4 
	BYTE	W03
	BYTE		        Cn5 
	BYTE	W03
	BYTE		        Dn5 
	BYTE	W03
	BYTE		        Ds5 
	BYTE	W03
	BYTE		        Fn5 
	BYTE	W03
	BYTE	PEND
// 019   ----------------------------------------
FE03MainThemeSme_1_019:
	BYTE	W01
	BYTE		VOL     106*FE03MainThemeSme_mvl/mxv
	BYTE	W92
	BYTE	W03
	BYTE	PEND
// 020   ----------------------------------------
	BYTE		VOICE   60
	BYTE		VOL     68*FE03MainThemeSme_mvl/mxv
	BYTE		N02     Cn5   v104
	BYTE	W03
	BYTE		        Dn5   v092
	BYTE	W03
	BYTE		        Cn5 
	BYTE	W03
	BYTE		        Dn5 
	BYTE	W03
	BYTE		        Cn5 
	BYTE	W03
	BYTE		        Dn5 
	BYTE	W03
	BYTE		        Cn5 
	BYTE	W03
	BYTE		        Dn5 
	BYTE	W03
	BYTE		        Cn5 
	BYTE	W03
	BYTE		        Dn5 
	BYTE	W03
	BYTE		        Cn5 
	BYTE	W03
	BYTE		        Dn5 
	BYTE	W03
	BYTE		N01     Cn5   v084
	BYTE	W01
	BYTE		VOL     67*FE03MainThemeSme_mvl/mxv
	BYTE	W01
	BYTE		        66*FE03MainThemeSme_mvl/mxv
	BYTE	W01
	BYTE		        65*FE03MainThemeSme_mvl/mxv
	BYTE		N01     Dn5 
	BYTE	W02
	BYTE		VOL     64*FE03MainThemeSme_mvl/mxv
	BYTE		N01     Cn5 
	BYTE	W01
	BYTE		VOL     63*FE03MainThemeSme_mvl/mxv
	BYTE	W02
	BYTE		        62*FE03MainThemeSme_mvl/mxv
	BYTE		N01     Dn5 
	BYTE	W01
	BYTE		VOL     61*FE03MainThemeSme_mvl/mxv
	BYTE	W01
	BYTE		        60*FE03MainThemeSme_mvl/mxv
	BYTE		N01     Ds5 
	BYTE	W02
	BYTE		VOL     59*FE03MainThemeSme_mvl/mxv
	BYTE	W01
	BYTE		VOICE   63
	BYTE		VOL     80*FE03MainThemeSme_mvl/mxv
	BYTE		PAN     c_v+43
	BYTE		N16     As3   v104
	BYTE	W17
	BYTE		N02     As3   v108
	BYTE	W03
	BYTE		        As3   v096
	BYTE	W03
	BYTE		N05     As3   v104
	BYTE	W06
	BYTE		N05   
	BYTE	W06
	BYTE		N05   
	BYTE	W06
	BYTE		N05   
	BYTE	W06
// 021   ----------------------------------------
	BYTE		N44   
	BYTE	W96
// 022   ----------------------------------------
	BYTE	PATT
	 POIN2	FE03MainThemeSme_1_010
// 023   ----------------------------------------
	BYTE	W96
// 024   ----------------------------------------
	BYTE		VOICE   60
	BYTE		N02     Cn5   v104
	BYTE	W03
	BYTE		        Dn5   v092
	BYTE	W03
	BYTE		        Cn5 
	BYTE	W03
	BYTE		        Dn5 
	BYTE	W03
	BYTE		        Cn5 
	BYTE	W03
	BYTE		        Dn5 
	BYTE	W03
	BYTE		        Cn5 
	BYTE	W03
	BYTE		        Dn5 
	BYTE	W03
	BYTE		        Cn5 
	BYTE	W03
	BYTE		        Dn5 
	BYTE	W03
	BYTE		        Cn5 
	BYTE	W03
	BYTE		        Dn5 
	BYTE	W03
	BYTE		N01     Cn5   v084
	BYTE	W01
	BYTE		VOL     67*FE03MainThemeSme_mvl/mxv
	BYTE	W01
	BYTE		        66*FE03MainThemeSme_mvl/mxv
	BYTE	W01
	BYTE		        65*FE03MainThemeSme_mvl/mxv
	BYTE		N01     Dn5 
	BYTE	W02
	BYTE		VOL     64*FE03MainThemeSme_mvl/mxv
	BYTE		N01     Cn5 
	BYTE	W01
	BYTE		VOL     63*FE03MainThemeSme_mvl/mxv
	BYTE	W02
	BYTE		        62*FE03MainThemeSme_mvl/mxv
	BYTE		N01     Dn5 
	BYTE	W01
	BYTE		VOL     61*FE03MainThemeSme_mvl/mxv
	BYTE	W01
	BYTE		        60*FE03MainThemeSme_mvl/mxv
	BYTE		N01     Ds5 
	BYTE	W02
	BYTE		VOL     59*FE03MainThemeSme_mvl/mxv
	BYTE	W01
	BYTE		VOICE   63
	BYTE		VOL     80*FE03MainThemeSme_mvl/mxv
	BYTE		PAN     c_v+43
	BYTE		N16     As3   v104
	BYTE	W17
	BYTE		N02     As3   v108
	BYTE	W03
	BYTE		        As3   v096
	BYTE	W03
	BYTE		N05     As3   v104
	BYTE	W06
	BYTE		N05   
	BYTE	W06
	BYTE		N05   
	BYTE	W06
	BYTE		N05   
	BYTE	W06
// 025   ----------------------------------------
	BYTE		N44   
	BYTE	W96
// 026   ----------------------------------------
	BYTE	PATT
	 POIN2	FE03MainThemeSme_1_014
// 027   ----------------------------------------
	BYTE	PATT
	 POIN2	FE03MainThemeSme_1_015
// 028   ----------------------------------------
	BYTE	PATT
	 POIN2	FE03MainThemeSme_1_016
// 029   ----------------------------------------
	BYTE	PATT
	 POIN2	FE03MainThemeSme_1_017
// 030   ----------------------------------------
	BYTE	PATT
	 POIN2	FE03MainThemeSme_1_018
// 031   ----------------------------------------
	BYTE	PATT
	 POIN2	FE03MainThemeSme_1_019
// 032   ----------------------------------------
	BYTE	W01
	BYTE		VOICE   60
	BYTE		VOL     68*FE03MainThemeSme_mvl/mxv
	BYTE		N02     Cn5   v104
	BYTE	W03
	BYTE		        Dn5   v092
	BYTE	W03
	BYTE		        Cn5 
	BYTE	W03
	BYTE		        Dn5 
	BYTE	W03
	BYTE		        Cn5 
	BYTE	W03
	BYTE		        Dn5 
	BYTE	W03
	BYTE		        Cn5 
	BYTE	W03
	BYTE		        Dn5 
	BYTE	W03
	BYTE		        Cn5 
	BYTE	W03
	BYTE		        Dn5 
	BYTE	W03
	BYTE		        Cn5 
	BYTE	W03
	BYTE		        Dn5 
	BYTE	W03
	BYTE		VOL     67*FE03MainThemeSme_mvl/mxv
	BYTE		N01     Cn5   v084
	BYTE	W02
	BYTE		VOL     66*FE03MainThemeSme_mvl/mxv
	BYTE		N01     Dn5 
	BYTE	W01
	BYTE		VOL     65*FE03MainThemeSme_mvl/mxv
	BYTE	W01
	BYTE		        64*FE03MainThemeSme_mvl/mxv
	BYTE	W01
	BYTE		N01     Cn5 
	BYTE	W01
	BYTE		VOL     63*FE03MainThemeSme_mvl/mxv
	BYTE	W01
	BYTE		        62*FE03MainThemeSme_mvl/mxv
	BYTE		N01     Dn5 
	BYTE	W02
	BYTE		VOL     61*FE03MainThemeSme_mvl/mxv
	BYTE	W01
	BYTE		        60*FE03MainThemeSme_mvl/mxv
	BYTE		N01     Ds5 
	BYTE	W01
	BYTE		VOL     59*FE03MainThemeSme_mvl/mxv
	BYTE	W01
	BYTE		VOICE   63
	BYTE		VOL     80*FE03MainThemeSme_mvl/mxv
	BYTE		PAN     c_v+43
	BYTE		N16     As3   v104
	BYTE	W18
	BYTE		N02     As3   v108
	BYTE	W03
	BYTE		        As3   v096
	BYTE	W03
	BYTE		N05     As3   v104
	BYTE	W06
	BYTE		N05   
	BYTE	W06
	BYTE		N05   
	BYTE	W06
	BYTE		N05   
	BYTE	W05
// 033   ----------------------------------------
FE03MainThemeSme_1_033:
	BYTE	W01
	BYTE		N44     As3   v104
	BYTE	W92
	BYTE	W03
	BYTE	PEND
// 034   ----------------------------------------
	BYTE	W72
	BYTE	W01
	BYTE		VOICE   60
	BYTE		VOL     68*FE03MainThemeSme_mvl/mxv
	BYTE		PAN     c_v+34
	BYTE		N02     As3   v092
	BYTE	W03
	BYTE		        Cn4   v080
	BYTE	W03
	BYTE		        Dn4   v084
	BYTE	W03
	BYTE		        Ds4   v088
	BYTE	W03
	BYTE		        Fn4   v092
	BYTE	W03
	BYTE		        Gn4   v096
	BYTE	W03
	BYTE		        Gs4   v100
	BYTE	W03
	BYTE		N48     As4   v104
	BYTE	W02
// 035   ----------------------------------------
	BYTE	W96
// 036   ----------------------------------------
	BYTE	W01
	BYTE		VOICE   60
	BYTE		N02     Cn5 
	BYTE	W03
	BYTE		        Dn5   v092
	BYTE	W03
	BYTE		        Cn5 
	BYTE	W03
	BYTE		        Dn5 
	BYTE	W03
	BYTE		        Cn5 
	BYTE	W03
	BYTE		        Dn5 
	BYTE	W03
	BYTE		        Cn5 
	BYTE	W03
	BYTE		        Dn5 
	BYTE	W03
	BYTE		        Cn5 
	BYTE	W03
	BYTE		        Dn5 
	BYTE	W03
	BYTE		        Cn5 
	BYTE	W03
	BYTE		        Dn5 
	BYTE	W03
	BYTE		VOL     67*FE03MainThemeSme_mvl/mxv
	BYTE		N01     Cn5   v084
	BYTE	W02
	BYTE		VOL     66*FE03MainThemeSme_mvl/mxv
	BYTE		N01     Dn5 
	BYTE	W01
	BYTE		VOL     65*FE03MainThemeSme_mvl/mxv
	BYTE	W01
	BYTE		        64*FE03MainThemeSme_mvl/mxv
	BYTE	W01
	BYTE		N01     Cn5 
	BYTE	W01
	BYTE		VOL     63*FE03MainThemeSme_mvl/mxv
	BYTE	W01
	BYTE		        62*FE03MainThemeSme_mvl/mxv
	BYTE		N01     Dn5 
	BYTE	W02
	BYTE		VOL     61*FE03MainThemeSme_mvl/mxv
	BYTE	W01
	BYTE		        60*FE03MainThemeSme_mvl/mxv
	BYTE		N01     Ds5 
	BYTE	W01
	BYTE		VOL     59*FE03MainThemeSme_mvl/mxv
	BYTE	W01
	BYTE		VOICE   63
	BYTE		VOL     80*FE03MainThemeSme_mvl/mxv
	BYTE		PAN     c_v+43
	BYTE		N16     As3   v104
	BYTE	W18
	BYTE		N02     As3   v108
	BYTE	W03
	BYTE		        As3   v096
	BYTE	W03
	BYTE		N05     As3   v104
	BYTE	W06
	BYTE		N05   
	BYTE	W06
	BYTE		N05   
	BYTE	W06
	BYTE		N05   
	BYTE	W05
// 037   ----------------------------------------
	BYTE	PATT
	 POIN2	FE03MainThemeSme_1_033
// 038   ----------------------------------------
	BYTE	W01
	BYTE		VOICE   60
	BYTE		VOL     68*FE03MainThemeSme_mvl/mxv
	BYTE		PAN     c_v+34
	BYTE		N14     Cn5   v092
	BYTE	W15
	BYTE		N02     As4 
	BYTE	W03
	BYTE		        Gs4 
	BYTE	W03
	BYTE		        Gn4 
	BYTE	W03
	BYTE		        Fn5 
	BYTE	W03
	BYTE		        Ds5 
	BYTE	W03
	BYTE		        Dn5 
	BYTE	W03
	BYTE		        Cn5 
	BYTE	W03
	BYTE		        As4 
	BYTE	W03
	BYTE		        Gs4 
	BYTE	W03
	BYTE		        Gn4 
	BYTE	W03
	BYTE		        Fn4 
	BYTE	W03
	BYTE		N11     Ds4 
	BYTE	W12
	BYTE		N03     Ds5   v127
	BYTE	W32
	BYTE	W03
// 039   ----------------------------------------
	BYTE	W01
	BYTE		VOL     85*FE03MainThemeSme_mvl/mxv
	BYTE		N10     Cn3   v104
	BYTE	W12
	BYTE		N17     Gs4 
	BYTE	W18
	BYTE		N05     Fn4 
	BYTE	W06
	BYTE		        Ds4 
	BYTE	W06
	BYTE		        Dn4 
	BYTE	W06
	BYTE		N16     As4 
	BYTE	W18
	BYTE		N05     Gn4 
	BYTE	W06
	BYTE		N10     Ds4 
	BYTE	W12
	BYTE		N05   
	BYTE	W06
	BYTE		        Dn4 
	BYTE	W05
// 040   ----------------------------------------
	BYTE	W01
	BYTE		N10     Cn4 
	BYTE	W12
	BYTE		N17     Cn5 
	BYTE	W18
	BYTE		N05     As4 
	BYTE	W06
	BYTE		        Gs4 
	BYTE	W06
	BYTE		        Fn4 
	BYTE	W06
	BYTE		N02     Gn4 
	BYTE	W03
	BYTE		        Gs4   v096
	BYTE	W03
	BYTE		        Gn4 
	BYTE	W03
	BYTE		        Gs4 
	BYTE	W03
	BYTE		        Gn4 
	BYTE	W03
	BYTE		        Gs4 
	BYTE	W03
	BYTE		        Gn4 
	BYTE	W03
	BYTE		        Gs4 
	BYTE	W03
	BYTE		        Gn4 
	BYTE	W03
	BYTE		        Gs4 
	BYTE	W03
	BYTE		        Gn4 
	BYTE	W03
	BYTE		        Gs4 
	BYTE	W03
	BYTE		        Gn4 
	BYTE	W03
	BYTE		        Fn4 
	BYTE	W03
	BYTE		        Ds4 
	BYTE	W03
	BYTE		        Dn4 
	BYTE	W02
// 041   ----------------------------------------
	BYTE	W01
	BYTE		N10     Cn4   v104
	BYTE	W12
	BYTE		N17     Gs4 
	BYTE	W18
	BYTE		N05     Fn4 
	BYTE	W06
	BYTE		        Ds4 
	BYTE	W06
	BYTE		        Dn4 
	BYTE	W06
	BYTE		N16     As4 
	BYTE	W18
	BYTE		N05     Gn4 
	BYTE	W06
	BYTE		N10     Ds4 
	BYTE	W12
	BYTE		N05   
	BYTE	W06
	BYTE		        Dn4 
	BYTE	W05
// 042   ----------------------------------------
	BYTE	W01
	BYTE		N02     Cn4   v092
	BYTE	W03
	BYTE		        Dn4 
	BYTE	W03
	BYTE		        Ds4 
	BYTE	W03
	BYTE		        Fn4 
	BYTE	W03
	BYTE		        Cn4 
	BYTE	W03
	BYTE		        Dn4 
	BYTE	W03
	BYTE		        Ds4 
	BYTE	W03
	BYTE		        Fn4 
	BYTE	W03
	BYTE		        Cn4 
	BYTE	W03
	BYTE		        Dn4 
	BYTE	W03
	BYTE		        Ds4 
	BYTE	W03
	BYTE		        Fn4 
	BYTE	W03
	BYTE		        Cn4   v088
	BYTE	W03
	BYTE		        Dn4 
	BYTE	W03
	BYTE		        Ds4 
	BYTE	W03
	BYTE		        En4 
	BYTE	W03
	BYTE		        Fn4 
	BYTE	W03
	BYTE		        Gn4 
	BYTE	W03
	BYTE		        Gs4 
	BYTE	W03
	BYTE		        As4 
	BYTE	W03
	BYTE		        As3 
	BYTE	W03
	BYTE		        Cn4 
	BYTE	W03
	BYTE		        Dn4 
	BYTE	W03
	BYTE		        Ds4 
	BYTE	W03
	BYTE		        Fn4   v084
	BYTE	W03
	BYTE		        Gn4 
	BYTE	W03
	BYTE		        Gs4 
	BYTE	W03
	BYTE		        As4 
	BYTE	W03
	BYTE		        Cn5 
	BYTE	W03
	BYTE		        Dn5 
	BYTE	W03
	BYTE		        Ds5 
	BYTE	W03
	BYTE		        Fn5 
	BYTE	W02
// 043   ----------------------------------------
	BYTE	W01
	BYTE		VOICE   60
	BYTE		VOL     55*FE03MainThemeSme_mvl/mxv
	BYTE		PAN     c_v-14
	BYTE		N05     Ds3   v104
	BYTE	W06
	BYTE		N02   
	BYTE	W03
	BYTE		        Ds3   v092
	BYTE	W03
	BYTE		N05     Ds3   v104
	BYTE	W06
	BYTE		N02   
	BYTE	W03
	BYTE		        Ds3   v092
	BYTE	W03
	BYTE		N05     Ds3   v104
	BYTE	W06
	BYTE		N02   
	BYTE	W03
	BYTE		        Ds3   v092
	BYTE	W03
	BYTE		N05     Ds3   v104
	BYTE	W06
	BYTE		N02   
	BYTE	W03
	BYTE		        Ds3   v092
	BYTE	W03
	BYTE		N05     Fn3   v104
	BYTE	W06
	BYTE		N02   
	BYTE	W03
	BYTE		        Fn3   v092
	BYTE	W03
	BYTE		N05     Fn3   v104
	BYTE	W06
	BYTE		N02   
	BYTE	W03
	BYTE		        Fn3   v092
	BYTE	W03
	BYTE		N05     Fn3   v104
	BYTE	W06
	BYTE		N02   
	BYTE	W03
	BYTE		        Fn3   v092
	BYTE	W03
	BYTE		N05     Fn3   v104
	BYTE	W06
	BYTE		N02   
	BYTE	W03
	BYTE		        Fn3   v092
	BYTE	W02
// 044   ----------------------------------------
	BYTE	W01
	BYTE		N05     Ds3   v104
	BYTE	W06
	BYTE		N02   
	BYTE	W03
	BYTE		        Ds3   v092
	BYTE	W03
	BYTE		N05     Ds3   v104
	BYTE	W06
	BYTE		N02   
	BYTE	W03
	BYTE		        Ds3   v092
	BYTE	W03
	BYTE		N05     Ds3   v104
	BYTE	W06
	BYTE		N02   
	BYTE	W03
	BYTE		        Ds3   v092
	BYTE	W03
	BYTE		N05     Ds3   v104
	BYTE	W06
	BYTE		N02   
	BYTE	W03
	BYTE		        Ds3   v092
	BYTE	W03
	BYTE		N05     Fn3   v104
	BYTE	W06
	BYTE		N02   
	BYTE	W03
	BYTE		        Fn3   v092
	BYTE	W03
	BYTE		N05     Fn3   v104
	BYTE	W06
	BYTE		N02   
	BYTE	W03
	BYTE		        Fn3   v092
	BYTE	W03
	BYTE		N05     Fn3   v104
	BYTE	W06
	BYTE		N02   
	BYTE	W03
	BYTE		        Fn3   v092
	BYTE	W03
	BYTE		N05     Fn3   v104
	BYTE	W06
	BYTE		N02   
	BYTE	W03
	BYTE		        Fn3   v092
	BYTE	W02
// 045   ----------------------------------------
	BYTE	W01
	BYTE		N05     Gs3   v104
	BYTE	W06
	BYTE		N02   
	BYTE	W03
	BYTE		        Gs3   v092
	BYTE	W03
	BYTE		N05     Gs3   v104
	BYTE	W06
	BYTE		N02   
	BYTE	W03
	BYTE		        Gs3   v092
	BYTE	W03
	BYTE		N05     Gs3   v104
	BYTE	W06
	BYTE		N02   
	BYTE	W03
	BYTE		        Gs3   v092
	BYTE	W03
	BYTE		N05     Gs3   v104
	BYTE	W06
	BYTE		N02   
	BYTE	W03
	BYTE		        Gs3   v092
	BYTE	W03
	BYTE		N05     Gn3   v104
	BYTE	W06
	BYTE		N02   
	BYTE	W03
	BYTE		        Gn3   v092
	BYTE	W03
	BYTE		N05     Gn3   v104
	BYTE	W06
	BYTE		N02   
	BYTE	W03
	BYTE		        Gn3   v092
	BYTE	W03
	BYTE		N05     Gn3   v104
	BYTE	W06
	BYTE		N02   
	BYTE	W03
	BYTE		        Gn3   v092
	BYTE	W03
	BYTE		N05     Gn3   v104
	BYTE	W06
	BYTE		N02   
	BYTE	W03
	BYTE		        Gn3   v092
	BYTE	W02
// 046   ----------------------------------------
	BYTE	W01
	BYTE		N05     Gs3   v104
	BYTE	W06
	BYTE		N02   
	BYTE	W03
	BYTE		        Gs3   v092
	BYTE	W03
	BYTE		N05     Gs3   v104
	BYTE	W06
	BYTE		N02   
	BYTE	W03
	BYTE		        Gs3   v092
	BYTE	W03
	BYTE		N05     As3   v104
	BYTE	W06
	BYTE		N02   
	BYTE	W03
	BYTE		        As3   v092
	BYTE	W03
	BYTE		N05     As3   v104
	BYTE	W06
	BYTE		N02   
	BYTE	W03
	BYTE		        As3   v092
	BYTE	W03
	BYTE		N05     As3   v104
	BYTE	W06
	BYTE		N02   
	BYTE	W03
	BYTE		        As3   v092
	BYTE	W03
	BYTE		N05     As3   v104
	BYTE	W06
	BYTE		N02   
	BYTE	W03
	BYTE		        As3   v092
	BYTE	W03
	BYTE		VOL     40*FE03MainThemeSme_mvl/mxv
	BYTE		N02     As4 
	BYTE	W01
	BYTE		PAN     c_v-13
	BYTE	W01
	BYTE		VOL     41*FE03MainThemeSme_mvl/mxv
	BYTE	W01
	BYTE		PAN     c_v-12
	BYTE		N02     Cn5 
	BYTE	W01
	BYTE		PAN     c_v-11
	BYTE	W02
	BYTE		        c_v-10
	BYTE		N02     As4 
	BYTE	W01
	BYTE		VOL     42*FE03MainThemeSme_mvl/mxv
	BYTE	W01
	BYTE		PAN     c_v-9
	BYTE	W01
	BYTE		        c_v-8
	BYTE		N02     Cn5 
	BYTE	W02
	BYTE		PAN     c_v-7
	BYTE	W01
	BYTE		VOL     43*FE03MainThemeSme_mvl/mxv
	BYTE		N02     As4 
	BYTE	W01
	BYTE		PAN     c_v-6
	BYTE	W02
	BYTE		        c_v-5
	BYTE		N02     Cn5 
	BYTE	W01
	BYTE		PAN     c_v-4
	BYTE	W01
	BYTE		VOL     44*FE03MainThemeSme_mvl/mxv
	BYTE	W01
	BYTE		PAN     c_v-3
	BYTE		N02     As4 
	BYTE	W02
	BYTE		PAN     c_v-2
	BYTE	W01
	BYTE		        c_v-1
	BYTE		N02     Cn5 
	BYTE	W01
	BYTE		VOL     45*FE03MainThemeSme_mvl/mxv
	BYTE	W01
// 047   ----------------------------------------
	BYTE		PAN     c_v+0
	BYTE	W01
	BYTE		N02     As4 
	BYTE	W01
	BYTE		PAN     c_v+1
	BYTE	W01
	BYTE		        c_v+2
	BYTE	W01
	BYTE		        c_v+3
	BYTE		VOL     46*FE03MainThemeSme_mvl/mxv
	BYTE		N02     Cn5 
	BYTE	W01
	BYTE		PAN     c_v+4
	BYTE	W01
	BYTE		        c_v+5
	BYTE	W01
	BYTE		        c_v+6
	BYTE		N02     As4 
	BYTE	W01
	BYTE		PAN     c_v+7
	BYTE	W01
	BYTE		        c_v+8
	BYTE		VOL     47*FE03MainThemeSme_mvl/mxv
	BYTE	W01
	BYTE		PAN     c_v+9
	BYTE		N02     Cn5 
	BYTE	W01
	BYTE		PAN     c_v+10
	BYTE	W01
	BYTE		        c_v+11
	BYTE	W01
	BYTE		        c_v+12
	BYTE		N02     As4 
	BYTE	W01
	BYTE		VOL     48*FE03MainThemeSme_mvl/mxv
	BYTE		PAN     c_v+13
	BYTE	W01
	BYTE		        c_v+14
	BYTE	W01
	BYTE		        c_v+15
	BYTE		N02     Cn5 
	BYTE	W01
	BYTE		PAN     c_v+16
	BYTE	W01
	BYTE		        c_v+17
	BYTE	W01
	BYTE		VOL     49*FE03MainThemeSme_mvl/mxv
	BYTE		N02     As4 
	BYTE	W01
	BYTE		PAN     c_v+18
	BYTE	W01
	BYTE		        c_v+19
	BYTE	W01
	BYTE		        c_v+20
	BYTE		N02     Cn5 
	BYTE	W01
	BYTE		PAN     c_v+21
	BYTE	W01
	BYTE		        c_v+22
	BYTE		VOL     50*FE03MainThemeSme_mvl/mxv
	BYTE	W01
	BYTE		PAN     c_v+23
	BYTE		N02     As4 
	BYTE	W01
	BYTE		PAN     c_v+24
	BYTE	W01
	BYTE		        c_v+25
	BYTE	W01
	BYTE		        c_v+26
	BYTE		N02     Cn5 
	BYTE	W01
	BYTE		VOL     51*FE03MainThemeSme_mvl/mxv
	BYTE		PAN     c_v+27
	BYTE	W01
	BYTE		        c_v+28
	BYTE	W01
	BYTE		        c_v+29
	BYTE		N02     As4 
	BYTE	W01
	BYTE		PAN     c_v+30
	BYTE	W01
	BYTE		        c_v+31
	BYTE	W01
	BYTE		VOL     52*FE03MainThemeSme_mvl/mxv
	BYTE		PAN     c_v+32
	BYTE		N02     Cn5 
	BYTE	W01
	BYTE		PAN     c_v+33
	BYTE	W01
	BYTE		        c_v+34
	BYTE	W01
	BYTE		        c_v+33
	BYTE		N02     As4 
	BYTE	W01
	BYTE		PAN     c_v+31
	BYTE	W01
	BYTE		        c_v+30
	BYTE		VOL     53*FE03MainThemeSme_mvl/mxv
	BYTE		PAN     c_v+29
	BYTE	W01
	BYTE		        c_v+27
	BYTE		N02     Cn5 
	BYTE	W01
	BYTE		PAN     c_v+26
	BYTE	W01
	BYTE		        c_v+24
	BYTE	W01
	BYTE		        c_v+22
	BYTE		N02     As4 
	BYTE	W01
	BYTE		PAN     c_v+21
	BYTE		VOL     54*FE03MainThemeSme_mvl/mxv
	BYTE		PAN     c_v+20
	BYTE	W01
	BYTE		        c_v+18
	BYTE	W01
	BYTE		        c_v+16
	BYTE		N02     Cn5 
	BYTE	W01
	BYTE		PAN     c_v+14
	BYTE	W01
	BYTE		        c_v+12
	BYTE	W01
	BYTE		        c_v+11
	BYTE		VOL     55*FE03MainThemeSme_mvl/mxv
	BYTE		PAN     c_v+10
	BYTE		N02     As4 
	BYTE	W01
	BYTE		PAN     c_v+9
	BYTE	W01
	BYTE		        c_v+7
	BYTE	W01
	BYTE		        c_v+5
	BYTE		N02     Cn5 
	BYTE	W01
	BYTE		PAN     c_v+3
	BYTE	W01
	BYTE		        c_v+2
	BYTE		VOL     56*FE03MainThemeSme_mvl/mxv
	BYTE		PAN     c_v+1
	BYTE	W01
	BYTE		        c_v-1
	BYTE		N02     As4 
	BYTE	W01
	BYTE		PAN     c_v-3
	BYTE	W01
	BYTE		        c_v-5
	BYTE	W01
	BYTE		        c_v-7
	BYTE		N02     Cn5 
	BYTE	W01
	BYTE		PAN     c_v-8
	BYTE		VOL     57*FE03MainThemeSme_mvl/mxv
	BYTE	W01
	BYTE		PAN     c_v-10
	BYTE	W01
	BYTE		        c_v-12
	BYTE		N02     As4 
	BYTE	W01
	BYTE		PAN     c_v-14
	BYTE	W01
	BYTE		        c_v-16
	BYTE	W01
	BYTE		        c_v-17
	BYTE		VOL     58*FE03MainThemeSme_mvl/mxv
	BYTE		PAN     c_v-18
	BYTE		N02     Cn5 
	BYTE	W01
	BYTE		PAN     c_v-20
	BYTE	W01
	BYTE		        c_v-22
	BYTE	W01
	BYTE		        c_v-24
	BYTE		N02     As4 
	BYTE	W01
	BYTE		PAN     c_v-25
	BYTE	W01
	BYTE		        c_v-26
	BYTE		VOL     59*FE03MainThemeSme_mvl/mxv
	BYTE		PAN     c_v-27
	BYTE	W01
	BYTE		        c_v-29
	BYTE		N02     Cn5 
	BYTE	W01
	BYTE		PAN     c_v-31
	BYTE	W01
	BYTE		        c_v-33
	BYTE	W01
	BYTE		        c_v-34
	BYTE		N02     As4 
	BYTE	W01
	BYTE		PAN     c_v-33
	BYTE		VOL     60*FE03MainThemeSme_mvl/mxv
	BYTE	W01
	BYTE		PAN     c_v-32
	BYTE	W01
	BYTE		        c_v-31
	BYTE		N02     Cn5 
	BYTE	W01
	BYTE		PAN     c_v-30
	BYTE	W01
	BYTE		        c_v-29
	BYTE	W01
	BYTE		        c_v-28
	BYTE		VOL     61*FE03MainThemeSme_mvl/mxv
	BYTE		N02     As4 
	BYTE	W01
	BYTE		PAN     c_v-27
	BYTE	W01
	BYTE		        c_v-26
	BYTE	W01
	BYTE		        c_v-25
	BYTE		N02     Cn5 
	BYTE	W01
	BYTE		PAN     c_v-24
	BYTE	W01
	BYTE		VOL     62*FE03MainThemeSme_mvl/mxv
	BYTE		PAN     c_v-23
	BYTE	W01
	BYTE		        c_v-22
	BYTE		N02     As4 
	BYTE	W01
	BYTE		PAN     c_v-21
	BYTE	W01
	BYTE		        c_v-20
	BYTE	W01
	BYTE		        c_v-19
	BYTE		N02     Cn5 
	BYTE	W01
	BYTE		VOL     63*FE03MainThemeSme_mvl/mxv
	BYTE		PAN     c_v-18
	BYTE	W01
	BYTE		        c_v-17
	BYTE	W01
	BYTE		N02     As4 
	BYTE	W01
	BYTE		PAN     c_v-16
	BYTE	W01
	BYTE		        c_v-15
	BYTE	W01
	BYTE		        c_v-14
	BYTE		VOL     64*FE03MainThemeSme_mvl/mxv
	BYTE		N02     Cn5 
	BYTE	W01
	BYTE		PAN     c_v-13
	BYTE	W01
// 048   ----------------------------------------
	BYTE		        c_v-12
	BYTE	W01
	BYTE		        c_v-11
	BYTE		VOL     40*FE03MainThemeSme_mvl/mxv
	BYTE		N02     As4 
	BYTE	W01
	BYTE		PAN     c_v-10
	BYTE	W01
	BYTE		        c_v-9
	BYTE		VOL     65*FE03MainThemeSme_mvl/mxv
	BYTE	W01
	BYTE		PAN     c_v-8
	BYTE		N02     Cn5 
	BYTE	W01
	BYTE		PAN     c_v-7
	BYTE	W01
	BYTE		        c_v-6
	BYTE	W01
	BYTE		VOL     42*FE03MainThemeSme_mvl/mxv
	BYTE		PAN     c_v-5
	BYTE		N02     As4 
	BYTE	W01
	BYTE		PAN     c_v-4
	BYTE	W01
	BYTE		        c_v-3
	BYTE	W01
	BYTE		        c_v-2
	BYTE		N02     Cn5 
	BYTE	W01
	BYTE		VOL     43*FE03MainThemeSme_mvl/mxv
	BYTE		PAN     c_v-1
	BYTE	W01
	BYTE		        c_v+0
	BYTE	W01
	BYTE		        c_v+34
	BYTE		N02     As4 
	BYTE	W01
	BYTE		PAN     c_v+33
	BYTE		VOL     44*FE03MainThemeSme_mvl/mxv
	BYTE	W01
	BYTE		PAN     c_v+32
	BYTE	W01
	BYTE		        c_v+31
	BYTE		N02     Cn5 
	BYTE	W01
	BYTE		PAN     c_v+30
	BYTE	W01
	BYTE		        c_v+29
	BYTE		VOL     45*FE03MainThemeSme_mvl/mxv
	BYTE	W01
	BYTE		PAN     c_v+28
	BYTE		N02     As4 
	BYTE	W01
	BYTE		PAN     c_v+27
	BYTE	W01
	BYTE		        c_v+26
	BYTE	W01
	BYTE		        c_v+9
	BYTE		VOL     46*FE03MainThemeSme_mvl/mxv
	BYTE		PAN     c_v+25
	BYTE		N02     Cn5 
	BYTE	W01
	BYTE		PAN     c_v+24
	BYTE	W01
	BYTE		        c_v+23
	BYTE	W01
	BYTE		        c_v+22
	BYTE		N02     As4 
	BYTE	W01
	BYTE		VOL     47*FE03MainThemeSme_mvl/mxv
	BYTE		PAN     c_v+21
	BYTE	W01
	BYTE		        c_v+20
	BYTE	W01
	BYTE		        c_v+19
	BYTE		N02     Cn5 
	BYTE	W01
	BYTE		PAN     c_v+18
	BYTE	W01
	BYTE		VOL     48*FE03MainThemeSme_mvl/mxv
	BYTE		PAN     c_v+17
	BYTE	W01
	BYTE		N02     As4 
	BYTE	W01
	BYTE		PAN     c_v+16
	BYTE	W01
	BYTE		        c_v+15
	BYTE	W01
	BYTE		        c_v+20
	BYTE		VOL     49*FE03MainThemeSme_mvl/mxv
	BYTE		PAN     c_v+14
	BYTE		N02     Cn5 
	BYTE	W01
	BYTE		PAN     c_v+13
	BYTE	W01
	BYTE		        c_v+12
	BYTE	W01
	BYTE		        c_v+11
	BYTE		VOL     50*FE03MainThemeSme_mvl/mxv
	BYTE		N02     As4 
	BYTE	W01
	BYTE		PAN     c_v+10
	BYTE	W01
	BYTE		        c_v+9
	BYTE	W01
	BYTE		        c_v+8
	BYTE		N02     Cn5 
	BYTE	W01
	BYTE		PAN     c_v+27
	BYTE		VOL     51*FE03MainThemeSme_mvl/mxv
	BYTE		PAN     c_v+7
	BYTE	W01
	BYTE		        c_v+6
	BYTE	W01
	BYTE		        c_v+5
	BYTE		N02     As4 
	BYTE	W01
	BYTE		PAN     c_v+4
	BYTE	W01
	BYTE		        c_v+31
	BYTE		VOL     52*FE03MainThemeSme_mvl/mxv
	BYTE		PAN     c_v+3
	BYTE	W01
	BYTE		        c_v+2
	BYTE		N02     Cn5 
	BYTE	W01
	BYTE		PAN     c_v+1
	BYTE	W01
	BYTE		        c_v+0
	BYTE	W01
	BYTE		VOL     53*FE03MainThemeSme_mvl/mxv
	BYTE		PAN     c_v-34
	BYTE		N02     As4 
	BYTE	W01
	BYTE		PAN     c_v-33
	BYTE	W01
	BYTE		        c_v-32
	BYTE	W01
	BYTE		        c_v-31
	BYTE		N02     Cn5 
	BYTE	W01
	BYTE		VOL     54*FE03MainThemeSme_mvl/mxv
	BYTE		PAN     c_v-30
	BYTE	W01
	BYTE		        c_v-29
	BYTE	W01
	BYTE		        c_v-28
	BYTE		N02     As4 
	BYTE	W01
	BYTE		PAN     c_v-27
	BYTE	W01
	BYTE		VOL     55*FE03MainThemeSme_mvl/mxv
	BYTE		PAN     c_v-26
	BYTE	W01
	BYTE		        c_v-9
	BYTE		N02     Cn5 
	BYTE	W01
	BYTE		PAN     c_v-24
	BYTE	W01
	BYTE		        c_v-23
	BYTE	W01
	BYTE		VOL     56*FE03MainThemeSme_mvl/mxv
	BYTE		PAN     c_v-22
	BYTE		N02     As4 
	BYTE	W01
	BYTE		PAN     c_v-21
	BYTE	W01
	BYTE		        c_v-20
	BYTE	W01
	BYTE		VOL     57*FE03MainThemeSme_mvl/mxv
	BYTE		PAN     c_v-19
	BYTE		N02     Cn5 
	BYTE	W01
	BYTE		PAN     c_v-18
	BYTE	W01
	BYTE		        c_v-17
	BYTE	W01
	BYTE		N02     As4 
	BYTE	W01
	BYTE		PAN     c_v-16
	BYTE		VOL     58*FE03MainThemeSme_mvl/mxv
	BYTE	W01
	BYTE		PAN     c_v-15
	BYTE	W01
	BYTE		        c_v-14
	BYTE		N02     Cn5 
	BYTE	W01
	BYTE		PAN     c_v-13
	BYTE	W01
	BYTE		        c_v-12
	BYTE		VOL     59*FE03MainThemeSme_mvl/mxv
	BYTE	W01
	BYTE		PAN     c_v-11
	BYTE		N02     As4 
	BYTE	W01
	BYTE		PAN     c_v-10
	BYTE	W01
	BYTE		        c_v-9
	BYTE	W01
	BYTE		VOL     60*FE03MainThemeSme_mvl/mxv
	BYTE		PAN     c_v-26
	BYTE		N02     Cn5 
	BYTE	W01
	BYTE		PAN     c_v-7
	BYTE	W01
	BYTE		        c_v-6
	BYTE	W01
	BYTE		        c_v-5
	BYTE		N02     As4 
	BYTE	W01
	BYTE		VOL     61*FE03MainThemeSme_mvl/mxv
	BYTE		PAN     c_v-4
	BYTE	W01
	BYTE		        c_v-3
	BYTE	W01
	BYTE		        c_v-2
	BYTE		N02     Cn5 
	BYTE	W01
	BYTE		PAN     c_v-1
	BYTE	W01
	BYTE		VOL     62*FE03MainThemeSme_mvl/mxv
	BYTE		PAN     c_v+0
	BYTE	W01
	BYTE		        c_v+34
	BYTE		N02     As4 
	BYTE	W01
	BYTE		PAN     c_v+33
	BYTE	W01
	BYTE		        c_v+32
	BYTE		VOL     63*FE03MainThemeSme_mvl/mxv
	BYTE	W01
	BYTE		PAN     c_v+31
	BYTE		N02     Cn5 
	BYTE	W01
	BYTE		PAN     c_v+30
	BYTE	W01
	BYTE		        c_v+29
	BYTE	W01
	BYTE		        c_v+28
	BYTE		VOL     64*FE03MainThemeSme_mvl/mxv
	BYTE		N02     As4 
	BYTE	W01
	BYTE		PAN     c_v+27
	BYTE	W01
	BYTE		        c_v+26
	BYTE	W01
	BYTE		        c_v+25
	BYTE		N02     Cn5 
	BYTE	W01
	BYTE		VOL     65*FE03MainThemeSme_mvl/mxv
	BYTE		PAN     c_v+24
	BYTE	W01
// 049   ----------------------------------------
	BYTE		        c_v+23
	BYTE	W01
	BYTE		        c_v+22
	BYTE		VOL     40*FE03MainThemeSme_mvl/mxv
	BYTE		N02     As4 
	BYTE	W01
	BYTE		PAN     c_v+21
	BYTE	W01
	BYTE		VOL     41*FE03MainThemeSme_mvl/mxv
	BYTE		PAN     c_v+20
	BYTE	W01
	BYTE		        c_v+19
	BYTE		N02     Cn5 
	BYTE	W01
	BYTE		PAN     c_v+18
	BYTE	W01
	BYTE		        c_v+17
	BYTE	W01
	BYTE		VOL     42*FE03MainThemeSme_mvl/mxv
	BYTE		N02     As4 
	BYTE	W01
	BYTE		PAN     c_v+16
	BYTE	W01
	BYTE		        c_v+15
	BYTE	W01
	BYTE		        c_v+14
	BYTE		N02     Cn5 
	BYTE	W01
	BYTE		PAN     c_v+13
	BYTE		VOL     43*FE03MainThemeSme_mvl/mxv
	BYTE	W01
	BYTE		PAN     c_v+12
	BYTE	W01
	BYTE		        c_v+11
	BYTE		N02     As4 
	BYTE	W01
	BYTE		PAN     c_v+10
	BYTE		VOL     44*FE03MainThemeSme_mvl/mxv
	BYTE	W01
	BYTE		PAN     c_v+9
	BYTE	W01
	BYTE		        c_v+8
	BYTE		N02     Cn5 
	BYTE	W01
	BYTE		PAN     c_v+7
	BYTE	W01
	BYTE		        c_v+6
	BYTE		VOL     45*FE03MainThemeSme_mvl/mxv
	BYTE	W01
	BYTE		PAN     c_v+5
	BYTE		N02     As4 
	BYTE	W01
	BYTE		PAN     c_v+4
	BYTE	W01
	BYTE		        c_v+3
	BYTE	W01
	BYTE		        c_v+2
	BYTE		VOL     46*FE03MainThemeSme_mvl/mxv
	BYTE		N02     Cn5 
	BYTE	W01
	BYTE		PAN     c_v+1
	BYTE	W01
	BYTE		        c_v+0
	BYTE	W01
	BYTE		        c_v-34
	BYTE		N02     As4 
	BYTE	W01
	BYTE		PAN     c_v-1
	BYTE		VOL     47*FE03MainThemeSme_mvl/mxv
	BYTE		PAN     c_v-33
	BYTE	W01
	BYTE		        c_v-32
	BYTE	W01
	BYTE		        c_v-31
	BYTE		N02     Cn5 
	BYTE	W01
	BYTE		PAN     c_v-30
	BYTE	W01
	BYTE		        c_v-5
	BYTE		VOL     48*FE03MainThemeSme_mvl/mxv
	BYTE		PAN     c_v-29
	BYTE	W01
	BYTE		        c_v-28
	BYTE		N02     As4 
	BYTE	W01
	BYTE		PAN     c_v-27
	BYTE	W01
	BYTE		        c_v-26
	BYTE	W01
	BYTE		VOL     49*FE03MainThemeSme_mvl/mxv
	BYTE		PAN     c_v-9
	BYTE		N02     Cn5 
	BYTE	W01
	BYTE		PAN     c_v-24
	BYTE	W01
	BYTE		        c_v-23
	BYTE	W01
	BYTE		        c_v-12
	BYTE		VOL     50*FE03MainThemeSme_mvl/mxv
	BYTE		PAN     c_v-22
	BYTE		N02     As4 
	BYTE	W01
	BYTE		PAN     c_v-21
	BYTE	W01
	BYTE		        c_v-20
	BYTE	W01
	BYTE		        c_v-19
	BYTE		N02     Cn5 
	BYTE	W01
	BYTE		PAN     c_v-16
	BYTE		VOL     51*FE03MainThemeSme_mvl/mxv
	BYTE		PAN     c_v-18
	BYTE	W01
	BYTE		        c_v-17
	BYTE	W01
	BYTE		N02     As4 
	BYTE	W01
	BYTE		PAN     c_v-16
	BYTE	W01
	BYTE		        c_v-15
	BYTE		VOL     52*FE03MainThemeSme_mvl/mxv
	BYTE	W01
	BYTE		PAN     c_v-14
	BYTE		N02     Cn5 
	BYTE	W01
	BYTE		PAN     c_v-13
	BYTE	W01
	BYTE		        c_v-12
	BYTE	W01
	BYTE		        c_v-23
	BYTE		VOL     53*FE03MainThemeSme_mvl/mxv
	BYTE		PAN     c_v-11
	BYTE		N02     As4 
	BYTE	W01
	BYTE		PAN     c_v-10
	BYTE	W01
	BYTE		        c_v-9
	BYTE	W01
	BYTE		        c_v-26
	BYTE		N02     Cn5 
	BYTE	W01
	BYTE		VOL     54*FE03MainThemeSme_mvl/mxv
	BYTE		PAN     c_v-7
	BYTE	W01
	BYTE		        c_v-6
	BYTE	W01
	BYTE		        c_v-5
	BYTE		N02     As4 
	BYTE	W01
	BYTE		PAN     c_v-4
	BYTE	W01
	BYTE		VOL     55*FE03MainThemeSme_mvl/mxv
	BYTE		PAN     c_v-3
	BYTE	W01
	BYTE		        c_v-2
	BYTE		N02     Cn5 
	BYTE	W01
	BYTE		PAN     c_v-1
	BYTE	W01
	BYTE		        c_v+0
	BYTE	W01
	BYTE		VOL     56*FE03MainThemeSme_mvl/mxv
	BYTE		PAN     c_v+34
	BYTE		N02     As4 
	BYTE	W01
	BYTE		PAN     c_v+33
	BYTE	W01
	BYTE		        c_v+32
	BYTE	W01
	BYTE		        c_v+31
	BYTE		VOL     57*FE03MainThemeSme_mvl/mxv
	BYTE		N02     Cn5 
	BYTE	W01
	BYTE		PAN     c_v+30
	BYTE	W01
	BYTE		        c_v+29
	BYTE	W01
	BYTE		        c_v+28
	BYTE		N02     As4 
	BYTE	W01
	BYTE		PAN     c_v+27
	BYTE		VOL     58*FE03MainThemeSme_mvl/mxv
	BYTE	W01
	BYTE		PAN     c_v+26
	BYTE	W01
	BYTE		        c_v+25
	BYTE		N02     Cn5 
	BYTE	W01
	BYTE		PAN     c_v+24
	BYTE	W01
	BYTE		VOL     59*FE03MainThemeSme_mvl/mxv
	BYTE		PAN     c_v+23
	BYTE	W01
	BYTE		        c_v+22
	BYTE		N02     As4 
	BYTE	W01
	BYTE		PAN     c_v+21
	BYTE	W01
	BYTE		        c_v+20
	BYTE	W01
	BYTE		VOL     60*FE03MainThemeSme_mvl/mxv
	BYTE		PAN     c_v+19
	BYTE		N02     Cn5 
	BYTE	W01
	BYTE		PAN     c_v+18
	BYTE	W01
	BYTE		        c_v+17
	BYTE	W01
	BYTE		N02     As4 
	BYTE	W01
	BYTE		VOL     61*FE03MainThemeSme_mvl/mxv
	BYTE		PAN     c_v+16
	BYTE	W01
	BYTE		        c_v+15
	BYTE	W01
	BYTE		        c_v+14
	BYTE		N02     Cn5 
	BYTE	W01
	BYTE		PAN     c_v+13
	BYTE	W01
	BYTE		VOL     62*FE03MainThemeSme_mvl/mxv
	BYTE		PAN     c_v+12
	BYTE	W01
	BYTE		        c_v+11
	BYTE		N02     As4 
	BYTE	W01
	BYTE		PAN     c_v+10
	BYTE	W01
	BYTE		        c_v+9
	BYTE		VOL     63*FE03MainThemeSme_mvl/mxv
	BYTE	W01
	BYTE		PAN     c_v+8
	BYTE		N02     Cn5 
	BYTE	W01
	BYTE		PAN     c_v+7
	BYTE	W01
	BYTE		        c_v+6
	BYTE	W01
	BYTE		VOL     64*FE03MainThemeSme_mvl/mxv
	BYTE		PAN     c_v+5
	BYTE		N02     As4 
	BYTE	W01
	BYTE		PAN     c_v+4
	BYTE	W01
	BYTE		        c_v+3
	BYTE	W01
	BYTE		        c_v+2
	BYTE		N02     Cn5 
	BYTE	W01
	BYTE		VOL     65*FE03MainThemeSme_mvl/mxv
	BYTE		PAN     c_v+1
	BYTE	W01
// 050   ----------------------------------------
	BYTE		        c_v+0
	BYTE	W02
	BYTE		        c_v-1
	BYTE	W01
	BYTE		        c_v-2
	BYTE	W01
	BYTE		        c_v-3
	BYTE	W01
	BYTE		        c_v-4
	BYTE	W01
	BYTE		        c_v-5
	BYTE	W01
	BYTE		        c_v-6
	BYTE	W01
	BYTE		        c_v-7
	BYTE	W01
	BYTE		        c_v-8
	BYTE	W01
	BYTE		        c_v-9
	BYTE	W01
	BYTE		        c_v-10
	BYTE	W01
	BYTE		        c_v-11
	BYTE	W01
	BYTE		        c_v-12
	BYTE	W01
	BYTE		        c_v-13
	BYTE	W01
	BYTE		        c_v-14
	BYTE	W01
	BYTE		        c_v-15
	BYTE	W01
	BYTE		        c_v-16
	BYTE	W01
	BYTE		        c_v-17
	BYTE	W02
	BYTE		        c_v-18
	BYTE	W01
	BYTE		        c_v-19
	BYTE	W01
	BYTE		        c_v-20
	BYTE	W01
	BYTE		        c_v-21
	BYTE	W01
	BYTE		        c_v-22
	BYTE	W01
	BYTE		        c_v-23
	BYTE	W01
	BYTE		        c_v-24
	BYTE	W01
	BYTE		        c_v-25
	BYTE	W01
	BYTE		        c_v-26
	BYTE	W01
	BYTE		        c_v-27
	BYTE	W01
	BYTE		        c_v-28
	BYTE	W01
	BYTE		        c_v-29
	BYTE	W01
	BYTE		        c_v-30
	BYTE	W01
	BYTE		        c_v-31
	BYTE	W01
	BYTE		        c_v-32
	BYTE	W01
	BYTE		        c_v-33
	BYTE	W01
	BYTE		        c_v-34
	BYTE	W13
	BYTE		VOICE   63
	BYTE		VOL     100*FE03MainThemeSme_mvl/mxv
	BYTE		PAN     c_v+43
	BYTE	W06
	BYTE		        c_v+25
	BYTE		N02     Fn4   v104
	BYTE	W03
	BYTE		        Fn4   v092
	BYTE	W03
	BYTE		N05     Fn4   v104
	BYTE	W06
	BYTE		N05   
	BYTE	W06
	BYTE		N05   
	BYTE	W06
	BYTE		N05   
	BYTE	W06
	BYTE		N05   
	BYTE	W06
	BYTE		N05   
	BYTE	W05
// 051   ----------------------------------------
	BYTE	W01
	BYTE		N17     Fn4   v112
	BYTE	W18
	BYTE		N02   
	BYTE	W03
	BYTE		        Fn4   v100
	BYTE	W03
	BYTE		N05     Fn4   v116
	BYTE	W06
	BYTE		N05   
	BYTE	W06
	BYTE		N05   
	BYTE	W06
	BYTE		N05   
	BYTE	W06
	BYTE		N23   
	BYTE	W24
	BYTE		        Fn4   v112
	BYTE	W23
// 052   ----------------------------------------
	BYTE	W01
	BYTE		TIE     Fn4   v127
	BYTE	W92
	BYTE	W03
// 053   ----------------------------------------
	BYTE	W24
	BYTE		EOT   
	BYTE	FINE

//**************** Track 2 (Midi-Chn.2) ****************//

FE03MainThemeSme_2:
	BYTE	KEYSH   FE03MainThemeSme_key+0
// 000   ----------------------------------------
	BYTE		VOICE   41
	BYTE		VOL     100*FE03MainThemeSme_mvl/mxv
	BYTE		PAN     c_v-43
	BYTE	W60
	BYTE		N11     As2   v104
	BYTE	W12
	BYTE		        Ds3 
	BYTE	W12
	BYTE		        Gn3 
	BYTE	W12
// 001   ----------------------------------------
	BYTE		N32     As3   v092
	BYTE	W36
	BYTE		N03     As3   v108
	BYTE	W04
	BYTE		        Cn4   v096
	BYTE	W04
	BYTE		        As3 
	BYTE	W04
	BYTE		N11     Gs3   v104
	BYTE	W12
	BYTE		        Cn3 
	BYTE	W12
	BYTE		        Ds3 
	BYTE	W12
	BYTE		        Gs3 
	BYTE	W12
// 002   ----------------------------------------
	BYTE		N32     Bn3   v092
	BYTE	W36
	BYTE		N03     Bn3   v108
	BYTE	W04
	BYTE		        As3   v096
	BYTE	W04
	BYTE		        Gs3 
	BYTE	W04
	BYTE		N23     As3   v104
	BYTE	W24
	BYTE		        Gn3 
	BYTE	W24
// 003   ----------------------------------------
	BYTE	W96
// 004   ----------------------------------------
	BYTE		VOICE   58
	BYTE		VOL     103*FE03MainThemeSme_mvl/mxv
	BYTE		PAN     c_v-25
	BYTE		N11     Ds3 
	BYTE	W12
	BYTE		VOICE   41
	BYTE		N03   
	BYTE	W03
	BYTE		VOICE   41
	BYTE	W01
	BYTE		N03     Ds3   v092
	BYTE	W04
	BYTE		N03   
	BYTE	W04
	BYTE		N11     Fn3   v108
	BYTE	W12
	BYTE		N03   
	BYTE	W04
	BYTE		        Fn3   v092
	BYTE	W04
	BYTE		N03   
	BYTE	W04
	BYTE		N11     Gn3   v108
	BYTE	W12
	BYTE		N03   
	BYTE	W04
	BYTE		        Gn3   v096
	BYTE	W04
	BYTE		N03   
	BYTE	W04
	BYTE		N11     Gs3   v112
	BYTE	W12
	BYTE		        Dn3   v104
	BYTE	W12
// 005   ----------------------------------------
	BYTE		VOICE   51
	BYTE		VOL     79*FE03MainThemeSme_mvl/mxv
	BYTE		PAN     c_v+0
	BYTE		N11     Ds2 
	BYTE	W18
	BYTE		N17   
	BYTE	W18
	BYTE		N11   
	BYTE	W12
	BYTE		N11   
	BYTE	W18
	BYTE		N17   
	BYTE	W18
	BYTE		N11   
	BYTE	W12
// 006   ----------------------------------------
	BYTE		N11   
	BYTE	W18
	BYTE		N17   
	BYTE	W18
	BYTE		N11   
	BYTE	W12
	BYTE		N11   
	BYTE	W18
	BYTE		N17   
	BYTE	W18
	BYTE		N11     As2 
	BYTE	W12
// 007   ----------------------------------------
FE03MainThemeSme_2_007:
	BYTE		VOL     103*FE03MainThemeSme_mvl/mxv
	BYTE	W96
	BYTE	PEND
// 008   ----------------------------------------
	BYTE	W48
	BYTE		VOICE   63
	BYTE		VOL     100*FE03MainThemeSme_mvl/mxv
	BYTE		PAN     c_v-43
	BYTE		N16     As3   v104
	BYTE	W17
	BYTE		N02     As3   v108
	BYTE	W03
	BYTE		        As3   v096
	BYTE	W03
	BYTE		N05     As3   v104
	BYTE	W06
	BYTE		N05   
	BYTE	W06
	BYTE		N05   
	BYTE	W06
	BYTE		N05   
	BYTE	W06
	BYTE		N44   
	BYTE	W01
// 009   ----------------------------------------
	BYTE	W96
// 010   ----------------------------------------
	BYTE	W96
// 011   ----------------------------------------
	BYTE	W96
// 012   ----------------------------------------
	BYTE	W48
	BYTE		N16   
	BYTE	W17
	BYTE		N02     As3   v108
	BYTE	W03
	BYTE		        As3   v096
	BYTE	W03
	BYTE		N05     As3   v104
	BYTE	W06
	BYTE		N05   
	BYTE	W06
	BYTE		N05   
	BYTE	W06
	BYTE		N05   
	BYTE	W06
	BYTE		N44   
	BYTE	W01
// 013   ----------------------------------------
	BYTE	W96
// 014   ----------------------------------------
FE03MainThemeSme_2_014:
	BYTE	W60
	BYTE		PAN     c_v+43
	BYTE		N11     Ds4   v127
	BYTE	W36
	BYTE	PEND
// 015   ----------------------------------------
	BYTE	W96
// 016   ----------------------------------------
FE03MainThemeSme_2_016:
	BYTE	W60
	BYTE		N08     Dn4   v124
	BYTE	W09
	BYTE		N02     Dn4   v108
	BYTE	W03
	BYTE		N23     Dn4   v116
	BYTE	W24
	BYTE	PEND
// 017   ----------------------------------------
	BYTE	W96
// 018   ----------------------------------------
FE03MainThemeSme_2_018:
	BYTE		PAN     c_v-14
	BYTE		N17     Ds4   v108
	BYTE	W18
	BYTE		N02     Ds4   v112
	BYTE	W03
	BYTE		        Ds4   v100
	BYTE	W03
	BYTE		N05     Ds4   v112
	BYTE	W06
	BYTE		N05   
	BYTE	W06
	BYTE		N05   
	BYTE	W06
	BYTE		N05   
	BYTE	W06
	BYTE		N23     Dn4   v120
	BYTE	W24
	BYTE		N11     Ds4   v124
	BYTE	W12
	BYTE		        Fn4 
	BYTE	W12
	BYTE	PEND
// 019   ----------------------------------------
	BYTE	PATT
	 POIN2	FE03MainThemeSme_2_007
// 020   ----------------------------------------
	BYTE	W48
	BYTE		VOL     100*FE03MainThemeSme_mvl/mxv
	BYTE		PAN     c_v-43
	BYTE		N16     As3   v104
	BYTE	W18
	BYTE		N02     As3   v108
	BYTE	W03
	BYTE		        As3   v096
	BYTE	W03
	BYTE		N05     As3   v104
	BYTE	W06
	BYTE		N05   
	BYTE	W06
	BYTE		N05   
	BYTE	W06
	BYTE		N05   
	BYTE	W06
// 021   ----------------------------------------
	BYTE		N44   
	BYTE	W96
// 022   ----------------------------------------
	BYTE	W96
// 023   ----------------------------------------
	BYTE	W96
// 024   ----------------------------------------
	BYTE	W48
	BYTE		N16   
	BYTE	W18
	BYTE		N02     As3   v108
	BYTE	W03
	BYTE		        As3   v096
	BYTE	W03
	BYTE		N05     As3   v104
	BYTE	W06
	BYTE		N05   
	BYTE	W06
	BYTE		N05   
	BYTE	W06
	BYTE		N05   
	BYTE	W06
// 025   ----------------------------------------
	BYTE		N44   
	BYTE	W96
// 026   ----------------------------------------
	BYTE	PATT
	 POIN2	FE03MainThemeSme_2_014
// 027   ----------------------------------------
	BYTE	W96
// 028   ----------------------------------------
	BYTE	PATT
	 POIN2	FE03MainThemeSme_2_016
// 029   ----------------------------------------
	BYTE	W96
// 030   ----------------------------------------
	BYTE	PATT
	 POIN2	FE03MainThemeSme_2_018
// 031   ----------------------------------------
	BYTE	W01
	BYTE		VOL     103*FE03MainThemeSme_mvl/mxv
	BYTE	W92
	BYTE	W03
// 032   ----------------------------------------
	BYTE	W48
	BYTE	W01
	BYTE		        100*FE03MainThemeSme_mvl/mxv
	BYTE		PAN     c_v-43
	BYTE		N16     As3   v104
	BYTE	W17
	BYTE		N02     As3   v108
	BYTE	W03
	BYTE		        As3   v096
	BYTE	W03
	BYTE		N05     As3   v104
	BYTE	W06
	BYTE		N05   
	BYTE	W06
	BYTE		N05   
	BYTE	W06
	BYTE		N05   
	BYTE	W06
// 033   ----------------------------------------
	BYTE		N44   
	BYTE	W96
// 034   ----------------------------------------
	BYTE	W96
// 035   ----------------------------------------
	BYTE	W96
// 036   ----------------------------------------
	BYTE	W48
	BYTE	W01
	BYTE		N16   
	BYTE	W17
	BYTE		N02     As3   v108
	BYTE	W03
	BYTE		        As3   v096
	BYTE	W03
	BYTE		N05     As3   v104
	BYTE	W06
	BYTE		N05   
	BYTE	W06
	BYTE		N05   
	BYTE	W06
	BYTE		N05   
	BYTE	W06
// 037   ----------------------------------------
	BYTE		N44   
	BYTE	W96
// 038   ----------------------------------------
	BYTE	W60
	BYTE	W01
	BYTE		PAN     c_v+43
	BYTE		N11     Ds4   v127
	BYTE	W32
	BYTE	W03
// 039   ----------------------------------------
	BYTE	W96
// 040   ----------------------------------------
	BYTE	W60
	BYTE	W01
	BYTE		N08     Dn4   v124
	BYTE	W09
	BYTE		N02     Dn4   v108
	BYTE	W03
	BYTE		N23     Dn4   v116
	BYTE	W23
// 041   ----------------------------------------
	BYTE	W96
// 042   ----------------------------------------
	BYTE	W01
	BYTE		PAN     c_v-14
	BYTE		N17     Ds4   v108
	BYTE	W18
	BYTE		N02     Ds4   v112
	BYTE	W03
	BYTE		        Ds4   v100
	BYTE	W03
	BYTE		N05     Ds4   v112
	BYTE	W06
	BYTE		N05   
	BYTE	W06
	BYTE		N05   
	BYTE	W06
	BYTE		N05   
	BYTE	W06
	BYTE		N23     Dn4   v120
	BYTE	W24
	BYTE		N11     Ds4   v124
	BYTE	W12
	BYTE		        Fn4 
	BYTE	W11
// 043   ----------------------------------------
	BYTE		VOICE   41
	BYTE	W01
	BYTE		        60
	BYTE		VOL     55*FE03MainThemeSme_mvl/mxv
	BYTE		PAN     c_v+34
	BYTE		N05     Gn3   v104
	BYTE	W02
	BYTE		VOICE   41
	BYTE	W04
	BYTE		N02   
	BYTE	W03
	BYTE		        Gn3   v092
	BYTE	W03
	BYTE		N05     Gn3   v104
	BYTE	W06
	BYTE		N02   
	BYTE	W03
	BYTE		        Gn3   v092
	BYTE	W03
	BYTE		N05     Gn3   v104
	BYTE	W06
	BYTE		N02   
	BYTE	W03
	BYTE		        Gn3   v092
	BYTE	W03
	BYTE		N05     Gn3   v104
	BYTE	W06
	BYTE		N02   
	BYTE	W03
	BYTE		        Gn3   v092
	BYTE	W03
	BYTE		N05     Gs3   v104
	BYTE	W06
	BYTE		N02   
	BYTE	W03
	BYTE		        Gs3   v092
	BYTE	W03
	BYTE		N05     Gs3   v104
	BYTE	W06
	BYTE		N02   
	BYTE	W03
	BYTE		        Gs3   v092
	BYTE	W03
	BYTE		N05     Gs3   v104
	BYTE	W06
	BYTE		N02   
	BYTE	W03
	BYTE		        Gs3   v092
	BYTE	W03
	BYTE		N05     Gs3   v104
	BYTE	W06
	BYTE		N02   
	BYTE	W03
	BYTE		        Gs3   v092
	BYTE	W02
// 044   ----------------------------------------
	BYTE	W01
	BYTE		N05     Gn3   v104
	BYTE	W06
	BYTE		N02   
	BYTE	W03
	BYTE		        Gn3   v092
	BYTE	W03
	BYTE		N05     Gn3   v104
	BYTE	W06
	BYTE		N02   
	BYTE	W03
	BYTE		        Gn3   v092
	BYTE	W03
	BYTE		N05     Gn3   v104
	BYTE	W06
	BYTE		N02   
	BYTE	W03
	BYTE		        Gn3   v092
	BYTE	W03
	BYTE		N05     Gn3   v104
	BYTE	W06
	BYTE		N02   
	BYTE	W03
	BYTE		        Gn3   v092
	BYTE	W03
	BYTE		N05     Gs3   v104
	BYTE	W06
	BYTE		N02   
	BYTE	W03
	BYTE		        Gs3   v092
	BYTE	W03
	BYTE		N05     Gs3   v104
	BYTE	W06
	BYTE		N02   
	BYTE	W03
	BYTE		        Gs3   v092
	BYTE	W03
	BYTE		N05     Gs3   v104
	BYTE	W06
	BYTE		N02   
	BYTE	W03
	BYTE		        Gs3   v092
	BYTE	W03
	BYTE		N05     Gs3   v104
	BYTE	W06
	BYTE		N02   
	BYTE	W03
	BYTE		        Gs3   v092
	BYTE	W02
// 045   ----------------------------------------
	BYTE	W01
	BYTE		N05     Cn4   v104
	BYTE	W06
	BYTE		N02   
	BYTE	W03
	BYTE		        Cn4   v092
	BYTE	W03
	BYTE		N05     Cn4   v104
	BYTE	W06
	BYTE		N02   
	BYTE	W03
	BYTE		        Cn4   v092
	BYTE	W03
	BYTE		N05     Cn4   v104
	BYTE	W06
	BYTE		N02   
	BYTE	W03
	BYTE		        Cn4   v092
	BYTE	W03
	BYTE		N05     Cn4   v104
	BYTE	W06
	BYTE		N02   
	BYTE	W03
	BYTE		        Cn4   v092
	BYTE	W03
	BYTE		N05     As3   v104
	BYTE	W06
	BYTE		N02   
	BYTE	W03
	BYTE		        As3   v092
	BYTE	W03
	BYTE		N05     As3   v104
	BYTE	W06
	BYTE		N02   
	BYTE	W03
	BYTE		        As3   v092
	BYTE	W03
	BYTE		N05     As3   v104
	BYTE	W06
	BYTE		N02   
	BYTE	W03
	BYTE		        As3   v092
	BYTE	W03
	BYTE		N05     As3   v104
	BYTE	W06
	BYTE		N02   
	BYTE	W03
	BYTE		        As3   v092
	BYTE	W02
// 046   ----------------------------------------
	BYTE	W01
	BYTE		N05     Cn4   v104
	BYTE	W06
	BYTE		N02   
	BYTE	W03
	BYTE		        Cn4   v092
	BYTE	W03
	BYTE		N05     Cn4   v104
	BYTE	W06
	BYTE		N02   
	BYTE	W03
	BYTE		        Cn4   v092
	BYTE	W03
	BYTE		N05     Dn4   v104
	BYTE	W06
	BYTE		N02   
	BYTE	W03
	BYTE		        Dn4   v092
	BYTE	W03
	BYTE		N05     Dn4   v104
	BYTE	W06
	BYTE		N02   
	BYTE	W03
	BYTE		        Dn4   v092
	BYTE	W03
	BYTE		N05     Ds4   v104
	BYTE	W06
	BYTE		N02   
	BYTE	W03
	BYTE		        Ds4   v092
	BYTE	W03
	BYTE		N05     Ds4   v104
	BYTE	W06
	BYTE		N02   
	BYTE	W03
	BYTE		        Ds4   v092
	BYTE	W03
	BYTE		N20     Ds5   v104
	BYTE	W23
// 047   ----------------------------------------
	BYTE	W01
	BYTE		VOICE   59
	BYTE		VOL     96*FE03MainThemeSme_mvl/mxv
	BYTE		PAN     c_v+25
	BYTE		N23     Ds3   v096
	BYTE	W02
	BYTE		VOICE   60
	BYTE	W22
	BYTE		N11     Gn3 
	BYTE	W12
	BYTE		        As3 
	BYTE	W12
	BYTE		N23     An3   v100
	BYTE	W24
	BYTE		N32     Cn4 
	BYTE	W23
// 048   ----------------------------------------
	BYTE	W13
	BYTE		N11     Ds3   v096
	BYTE	W12
	BYTE		        Gn3   v100
	BYTE	W12
	BYTE		        As3 
	BYTE	W12
	BYTE		        An3 
	BYTE	W12
	BYTE		        Fn3 
	BYTE	W12
	BYTE		N23     Cn4   v104
	BYTE	W23
// 049   ----------------------------------------
	BYTE	W13
	BYTE		N11     Ds3   v100
	BYTE	W12
	BYTE		        Gn3 
	BYTE	W12
	BYTE		        As3 
	BYTE	W12
	BYTE		        An3   v104
	BYTE	W12
	BYTE		        Fn3 
	BYTE	W12
	BYTE		        Cn4 
	BYTE	W12
	BYTE		        An3   v108
	BYTE	W11
// 050   ----------------------------------------
	BYTE	W01
	BYTE		N23     As3 
	BYTE	W24
	BYTE		        Fn3 
	BYTE	W24
	BYTE		        Gn3 
	BYTE	W24
	BYTE		        Ds3 
	BYTE	W23
// 051   ----------------------------------------
	BYTE	W01
	BYTE		        Dn3 
	BYTE	W24
	BYTE		        Fn3 
	BYTE	W24
	BYTE		        Ds3   v104
	BYTE	W24
	BYTE		        Cn3 
	BYTE	W23
// 052   ----------------------------------------
	BYTE	W01
	BYTE		TIE     As2 
	BYTE	W92
	BYTE	W03
// 053   ----------------------------------------
	BYTE	W24
	BYTE		EOT   
	BYTE	FINE

//**************** Track 3 (Midi-Chn.3) ****************//

FE03MainThemeSme_3:
	BYTE	KEYSH   FE03MainThemeSme_key+0
// 000   ----------------------------------------
	BYTE		VOICE   45
	BYTE		VOL     90*FE03MainThemeSme_mvl/mxv
	BYTE		PAN     c_v-25
	BYTE		N32     As3   v104
	BYTE	W36
	BYTE		N03   
	BYTE	W04
	BYTE		N03   
	BYTE	W04
	BYTE		N03   
	BYTE	W04
	BYTE		N44   
	BYTE	W48
// 001   ----------------------------------------
	BYTE		N32     Cs4 
	BYTE	W36
	BYTE		N03   
	BYTE	W04
	BYTE		N03   
	BYTE	W04
	BYTE		N03   
	BYTE	W04
	BYTE		N11     Cn4 
	BYTE	W12
	BYTE		VOICE   59
	BYTE		VOL     100*FE03MainThemeSme_mvl/mxv
	BYTE		PAN     c_v+43
	BYTE		        c_v+14
	BYTE		N11   
	BYTE	W12
	BYTE		VOICE   45
	BYTE		N11     Ds4 
	BYTE	W12
	BYTE		        Gs4 
	BYTE	W12
// 002   ----------------------------------------
	BYTE		VOICE   58
	BYTE		VOL     90*FE03MainThemeSme_mvl/mxv
	BYTE		PAN     c_v-25
	BYTE		N32     Bn3 
	BYTE	W36
	BYTE		VOICE   45
	BYTE		N03   
	BYTE	W04
	BYTE		N03   
	BYTE	W04
	BYTE		N03   
	BYTE	W04
	BYTE		N44     As3 
	BYTE	W48
// 003   ----------------------------------------
	BYTE		N11     Fn3   v088
	BYTE	W12
	BYTE		N03   
	BYTE	W04
	BYTE		N03   
	BYTE	W04
	BYTE		N03   
	BYTE	W04
	BYTE		N11     Gn3   v092
	BYTE	W12
	BYTE		N03   
	BYTE	W04
	BYTE		N03   
	BYTE	W04
	BYTE		N03   
	BYTE	W04
	BYTE		N11     Gs3 
	BYTE	W12
	BYTE		N03   
	BYTE	W04
	BYTE		N03   
	BYTE	W04
	BYTE		N03   
	BYTE	W04
	BYTE		N11     As3   v096
	BYTE	W12
	BYTE		        As3   v112
	BYTE	W12
// 004   ----------------------------------------
	BYTE		        Fn3   v104
	BYTE	W12
	BYTE		N03   
	BYTE	W04
	BYTE		N03   
	BYTE	W04
	BYTE		N03   
	BYTE	W04
	BYTE		N11     Gn3 
	BYTE	W12
	BYTE		N03   
	BYTE	W04
	BYTE		N03   
	BYTE	W04
	BYTE		N03   
	BYTE	W04
	BYTE		N11     Gs3   v108
	BYTE	W12
	BYTE		N03   
	BYTE	W04
	BYTE		N03   
	BYTE	W04
	BYTE		N03   
	BYTE	W04
	BYTE		N11     As3   v112
	BYTE	W12
	BYTE		        As2   v104
	BYTE	W12
// 005   ----------------------------------------
	BYTE		VOICE   109
	BYTE		N05     Gn2 
	BYTE	W06
	BYTE		N02   
	BYTE	W03
	BYTE		        Gn2   v092
	BYTE	W03
	BYTE		N05     Gn2   v104
	BYTE	W06
	BYTE		N05   
	BYTE	W12
	BYTE		N02   
	BYTE	W03
	BYTE		        Gn2   v092
	BYTE	W03
	BYTE		N05     Gn2   v104
	BYTE	W06
	BYTE		N02   
	BYTE	W03
	BYTE		N02   
	BYTE	W03
	BYTE		N05   
	BYTE	W06
	BYTE		N02     Fn2 
	BYTE	W03
	BYTE		        Fn2   v092
	BYTE	W03
	BYTE		N05   
	BYTE	W06
	BYTE		N05   
	BYTE	W12
	BYTE		        Fn2   v096
	BYTE	W06
	BYTE		        Gs2 
	BYTE	W06
	BYTE		        Fn2 
	BYTE	W06
// 006   ----------------------------------------
	BYTE		        Gn2   v104
	BYTE	W06
	BYTE		N02   
	BYTE	W03
	BYTE		        Gn2   v092
	BYTE	W03
	BYTE		N05     Gn2   v104
	BYTE	W06
	BYTE		N05   
	BYTE	W12
	BYTE		N02   
	BYTE	W03
	BYTE		        Gn2   v092
	BYTE	W03
	BYTE		N05     Gn2   v104
	BYTE	W06
	BYTE		N02   
	BYTE	W03
	BYTE		N02   
	BYTE	W03
	BYTE		N05   
	BYTE	W06
	BYTE		N02     Fn2 
	BYTE	W03
	BYTE		        Fn2   v092
	BYTE	W03
	BYTE		N05   
	BYTE	W06
	BYTE		N05   
	BYTE	W12
	BYTE		        Fn2   v096
	BYTE	W06
	BYTE		        Gs2 
	BYTE	W06
	BYTE		        Cs3 
	BYTE	W06
// 007   ----------------------------------------
	BYTE		N17     Gn2   v104
	BYTE	W18
	BYTE		N02     Gn2   v108
	BYTE	W03
	BYTE		        Gn2   v096
	BYTE	W03
	BYTE		N05     Gn2   v104
	BYTE	W06
	BYTE		N05   
	BYTE	W06
	BYTE		        Gn2   v108
	BYTE	W06
	BYTE		        Gn2   v096
	BYTE	W06
	BYTE		N17     Gs2   v104
	BYTE	W18
	BYTE		N02     Gs2   v108
	BYTE	W03
	BYTE		        Gs2   v096
	BYTE	W03
	BYTE		N05     Gs2   v104
	BYTE	W06
	BYTE		N05   
	BYTE	W06
	BYTE		        Gs2   v108
	BYTE	W06
	BYTE		        Gs2   v096
	BYTE	W06
// 008   ----------------------------------------
FE03MainThemeSme_3_008:
	BYTE		N17     Gs2   v104
	BYTE	W18
	BYTE		N02     Gs2   v108
	BYTE	W03
	BYTE		        Gs2   v096
	BYTE	W03
	BYTE		N05     Gs2   v104
	BYTE	W06
	BYTE		N05   
	BYTE	W06
	BYTE		        Gs2   v108
	BYTE	W06
	BYTE		        Gs2   v096
	BYTE	W06
	BYTE		N17     Gs2   v104
	BYTE	W18
	BYTE		N02     Gs2   v108
	BYTE	W03
	BYTE		        Gs2   v096
	BYTE	W03
	BYTE		N05     Gs2   v104
	BYTE	W06
	BYTE		N05   
	BYTE	W06
	BYTE		        Gs2   v108
	BYTE	W06
	BYTE		        Gs2   v096
	BYTE	W06
	BYTE	PEND
// 009   ----------------------------------------
FE03MainThemeSme_3_009:
	BYTE		N17     Gn2   v104
	BYTE	W18
	BYTE		N02     Gn2   v108
	BYTE	W03
	BYTE		        Gn2   v096
	BYTE	W03
	BYTE		N05     Gn2   v104
	BYTE	W06
	BYTE		N05   
	BYTE	W06
	BYTE		        Gn2   v108
	BYTE	W06
	BYTE		        Gn2   v096
	BYTE	W06
	BYTE		N17     Gs2   v104
	BYTE	W18
	BYTE		N02     Gs2   v108
	BYTE	W03
	BYTE		        Gs2   v096
	BYTE	W03
	BYTE		N05     Gs2   v104
	BYTE	W06
	BYTE		N05   
	BYTE	W06
	BYTE		        Gs2   v108
	BYTE	W06
	BYTE		        Gs2   v096
	BYTE	W06
	BYTE	PEND
// 010   ----------------------------------------
	BYTE	PATT
	 POIN2	FE03MainThemeSme_3_008
// 011   ----------------------------------------
	BYTE	PATT
	 POIN2	FE03MainThemeSme_3_009
// 012   ----------------------------------------
	BYTE	PATT
	 POIN2	FE03MainThemeSme_3_008
// 013   ----------------------------------------
	BYTE	PATT
	 POIN2	FE03MainThemeSme_3_009
// 014   ----------------------------------------
FE03MainThemeSme_3_014:
	BYTE		N17     Gs2   v104
	BYTE	W18
	BYTE		N02     Gs2   v108
	BYTE	W03
	BYTE		        Gs2   v096
	BYTE	W03
	BYTE		N05     Gs2   v104
	BYTE	W06
	BYTE		N05   
	BYTE	W06
	BYTE		        Gs2   v108
	BYTE	W06
	BYTE		        Gs2   v096
	BYTE	W06
	BYTE		N11     Gn2   v104
	BYTE	W12
	BYTE		        Gn3   v127
	BYTE	W36
	BYTE	PEND
// 015   ----------------------------------------
	BYTE		VOICE   42
	BYTE		VOL     75*FE03MainThemeSme_mvl/mxv
	BYTE		N23     Gs2   v112
	BYTE	W24
	BYTE		        As2 
	BYTE	W24
	BYTE		N23   
	BYTE	W24
	BYTE		        Cn3 
	BYTE	W24
// 016   ----------------------------------------
FE03MainThemeSme_3_016:
	BYTE		N23     Ds3   v112
	BYTE	W24
	BYTE		        Dn3 
	BYTE	W24
	BYTE		N11   
	BYTE	W12
	BYTE		VOICE   63
	BYTE		VOL     100*FE03MainThemeSme_mvl/mxv
	BYTE		PAN     c_v-43
	BYTE		N08     Gn4   v124
	BYTE	W09
	BYTE		N02     Gn4   v108
	BYTE	W03
	BYTE		N23     Gn4   v116
	BYTE	W24
	BYTE	PEND
// 017   ----------------------------------------
	BYTE		VOICE   42
	BYTE		VOL     75*FE03MainThemeSme_mvl/mxv
	BYTE		PAN     c_v-25
	BYTE		N23     Gs2   v112
	BYTE	W24
	BYTE		        As2 
	BYTE	W24
	BYTE		        As2   v116
	BYTE	W24
	BYTE		        Cn3 
	BYTE	W24
// 018   ----------------------------------------
FE03MainThemeSme_3_018:
	BYTE		N23     Cn3   v116
	BYTE	W24
	BYTE		N23   
	BYTE	W24
	BYTE		        As2 
	BYTE	W24
	BYTE		N11     As2   v112
	BYTE	W12
	BYTE		        Dn3 
	BYTE	W12
	BYTE	PEND
// 019   ----------------------------------------
	BYTE		VOICE   61
	BYTE		VOL     90*FE03MainThemeSme_mvl/mxv
	BYTE		N17     Gn2   v104
	BYTE	W18
	BYTE		N02     Gn2   v108
	BYTE	W03
	BYTE		        Gn2   v096
	BYTE	W03
	BYTE		N05     Gn2   v104
	BYTE	W06
	BYTE		N05   
	BYTE	W06
	BYTE		        Gn2   v108
	BYTE	W06
	BYTE		        Gn2   v096
	BYTE	W06
	BYTE		N17     Gs2   v104
	BYTE	W18
	BYTE		N02     Gs2   v108
	BYTE	W03
	BYTE		        Gs2   v096
	BYTE	W03
	BYTE		N05     Gs2   v104
	BYTE	W06
	BYTE		N05   
	BYTE	W06
	BYTE		        Gs2   v108
	BYTE	W06
	BYTE		        Gs2   v096
	BYTE	W06
// 020   ----------------------------------------
	BYTE	PATT
	 POIN2	FE03MainThemeSme_3_008
// 021   ----------------------------------------
	BYTE	PATT
	 POIN2	FE03MainThemeSme_3_009
// 022   ----------------------------------------
	BYTE	PATT
	 POIN2	FE03MainThemeSme_3_008
// 023   ----------------------------------------
	BYTE	PATT
	 POIN2	FE03MainThemeSme_3_009
// 024   ----------------------------------------
	BYTE	PATT
	 POIN2	FE03MainThemeSme_3_008
// 025   ----------------------------------------
	BYTE	PATT
	 POIN2	FE03MainThemeSme_3_009
// 026   ----------------------------------------
	BYTE	PATT
	 POIN2	FE03MainThemeSme_3_014
// 027   ----------------------------------------
	BYTE		VOICE   62
	BYTE		VOL     75*FE03MainThemeSme_mvl/mxv
	BYTE		N23     Gs2   v112
	BYTE	W24
	BYTE		        As2 
	BYTE	W24
	BYTE		N23   
	BYTE	W24
	BYTE		        Cn3 
	BYTE	W24
// 028   ----------------------------------------
	BYTE	PATT
	 POIN2	FE03MainThemeSme_3_016
// 029   ----------------------------------------
	BYTE		VOICE   62
	BYTE		VOL     75*FE03MainThemeSme_mvl/mxv
	BYTE		PAN     c_v-25
	BYTE		N23     Gs2   v112
	BYTE	W24
	BYTE		        As2 
	BYTE	W24
	BYTE		        As2   v116
	BYTE	W24
	BYTE		        Cn3 
	BYTE	W24
// 030   ----------------------------------------
	BYTE	PATT
	 POIN2	FE03MainThemeSme_3_018
// 031   ----------------------------------------
	BYTE	W01
	BYTE		VOICE   61
	BYTE		VOL     90*FE03MainThemeSme_mvl/mxv
	BYTE		N17     Gn2   v104
	BYTE	W18
	BYTE		N02     Gn2   v108
	BYTE	W03
	BYTE		        Gn2   v096
	BYTE	W03
	BYTE		N05     Gn2   v104
	BYTE	W06
	BYTE		N05   
	BYTE	W06
	BYTE		        Gn2   v108
	BYTE	W06
	BYTE		        Gn2   v096
	BYTE	W06
	BYTE		N17     Gs2   v104
	BYTE	W18
	BYTE		N02     Gs2   v108
	BYTE	W03
	BYTE		        Gs2   v096
	BYTE	W03
	BYTE		N05     Gs2   v104
	BYTE	W06
	BYTE		N05   
	BYTE	W06
	BYTE		        Gs2   v108
	BYTE	W06
	BYTE		        Gs2   v096
	BYTE	W05
// 032   ----------------------------------------
FE03MainThemeSme_3_032:
	BYTE	W01
	BYTE		N17     Gs2   v104
	BYTE	W18
	BYTE		N02     Gs2   v108
	BYTE	W03
	BYTE		        Gs2   v096
	BYTE	W03
	BYTE		N05     Gs2   v104
	BYTE	W06
	BYTE		N05   
	BYTE	W06
	BYTE		        Gs2   v108
	BYTE	W06
	BYTE		        Gs2   v096
	BYTE	W06
	BYTE		N17     Gs2   v104
	BYTE	W18
	BYTE		N02     Gs2   v108
	BYTE	W03
	BYTE		        Gs2   v096
	BYTE	W03
	BYTE		N05     Gs2   v104
	BYTE	W06
	BYTE		N05   
	BYTE	W06
	BYTE		        Gs2   v108
	BYTE	W06
	BYTE		        Gs2   v096
	BYTE	W05
	BYTE	PEND
// 033   ----------------------------------------
FE03MainThemeSme_3_033:
	BYTE	W01
	BYTE		N17     Gn2   v104
	BYTE	W18
	BYTE		N02     Gn2   v108
	BYTE	W03
	BYTE		        Gn2   v096
	BYTE	W03
	BYTE		N05     Gn2   v104
	BYTE	W06
	BYTE		N05   
	BYTE	W06
	BYTE		        Gn2   v108
	BYTE	W06
	BYTE		        Gn2   v096
	BYTE	W06
	BYTE		N17     Gs2   v104
	BYTE	W18
	BYTE		N02     Gs2   v108
	BYTE	W03
	BYTE		        Gs2   v096
	BYTE	W03
	BYTE		N05     Gs2   v104
	BYTE	W06
	BYTE		N05   
	BYTE	W06
	BYTE		        Gs2   v108
	BYTE	W06
	BYTE		        Gs2   v096
	BYTE	W05
	BYTE	PEND
// 034   ----------------------------------------
	BYTE	PATT
	 POIN2	FE03MainThemeSme_3_032
// 035   ----------------------------------------
	BYTE	PATT
	 POIN2	FE03MainThemeSme_3_033
// 036   ----------------------------------------
	BYTE	PATT
	 POIN2	FE03MainThemeSme_3_032
// 037   ----------------------------------------
	BYTE	PATT
	 POIN2	FE03MainThemeSme_3_033
// 038   ----------------------------------------
	BYTE	W01
	BYTE		N17     Gs2   v104
	BYTE	W18
	BYTE		N02     Gs2   v108
	BYTE	W03
	BYTE		        Gs2   v096
	BYTE	W03
	BYTE		N05     Gs2   v104
	BYTE	W06
	BYTE		N05   
	BYTE	W06
	BYTE		        Gs2   v108
	BYTE	W06
	BYTE		        Gs2   v096
	BYTE	W06
	BYTE		N11     Gn2   v104
	BYTE	W12
	BYTE		        Gn3   v127
	BYTE	W32
	BYTE	W03
// 039   ----------------------------------------
	BYTE	W01
	BYTE		VOICE   62
	BYTE		VOL     75*FE03MainThemeSme_mvl/mxv
	BYTE		N23     Gs2   v112
	BYTE	W24
	BYTE		        As2 
	BYTE	W24
	BYTE		N23   
	BYTE	W24
	BYTE		        Cn3 
	BYTE	W23
// 040   ----------------------------------------
	BYTE	W01
	BYTE		        Ds3 
	BYTE	W24
	BYTE		        Dn3 
	BYTE	W24
	BYTE		N11   
	BYTE	W12
	BYTE		VOICE   63
	BYTE		VOL     100*FE03MainThemeSme_mvl/mxv
	BYTE		PAN     c_v-43
	BYTE		N08     Gn4   v124
	BYTE	W09
	BYTE		N02     Gn4   v108
	BYTE	W03
	BYTE		N23     Gn4   v116
	BYTE	W23
// 041   ----------------------------------------
	BYTE	W01
	BYTE		VOICE   62
	BYTE		VOL     75*FE03MainThemeSme_mvl/mxv
	BYTE		PAN     c_v-25
	BYTE		N23     Gs2   v112
	BYTE	W24
	BYTE		        As2 
	BYTE	W24
	BYTE		        As2   v116
	BYTE	W24
	BYTE		        Cn3 
	BYTE	W23
// 042   ----------------------------------------
	BYTE	W01
	BYTE		N23   
	BYTE	W24
	BYTE		N23   
	BYTE	W24
	BYTE		        As2 
	BYTE	W24
	BYTE		N11     As2   v112
	BYTE	W12
	BYTE		        Dn3 
	BYTE	W11
// 043   ----------------------------------------
	BYTE	W01
	BYTE		VOL     106*FE03MainThemeSme_mvl/mxv
	BYTE		N23     Ds2   v104
	BYTE	W24
	BYTE		N11     Gn2 
	BYTE	W12
	BYTE		        As2 
	BYTE	W12
	BYTE		N17     As2   v108
	BYTE	W18
	BYTE		N05     Cs3 
	BYTE	W06
	BYTE		N32     Gs2   v104
	BYTE	W23
// 044   ----------------------------------------
	BYTE	W13
	BYTE		N11     As2   v108
	BYTE	W12
	BYTE		        Gn2 
	BYTE	W12
	BYTE		        Ds2 
	BYTE	W12
	BYTE		N17     Gs2   v112
	BYTE	W18
	BYTE		N05     As2 
	BYTE	W06
	BYTE		N32   
	BYTE	W23
// 045   ----------------------------------------
	BYTE	W13
	BYTE		N11     Ds2   v108
	BYTE	W12
	BYTE		        Ds3   v116
	BYTE	W12
	BYTE		N05     Ds3   v112
	BYTE	W06
	BYTE		        Cn3 
	BYTE	W06
	BYTE		N23     Ds3   v120
	BYTE	W24
	BYTE		N11     As2   v116
	BYTE	W12
	BYTE		        Gn2   v112
	BYTE	W11
// 046   ----------------------------------------
	BYTE	W01
	BYTE		        Ds2   v108
	BYTE	W12
	BYTE		        Cn3   v112
	BYTE	W12
	BYTE		        Gs2 
	BYTE	W12
	BYTE		        Fn2 
	BYTE	W12
	BYTE		N17     Gs2   v108
	BYTE	W18
	BYTE		N05     Gn2 
	BYTE	W06
	BYTE		N22     Gn2   v104
	BYTE	W23
// 047   ----------------------------------------
	BYTE	W01
	BYTE		VOL     66*FE03MainThemeSme_mvl/mxv
	BYTE		N44     As2 
	BYTE	W48
	BYTE		        Cn3 
	BYTE	W44
	BYTE	W03
// 048   ----------------------------------------
	BYTE	W01
	BYTE		        As2 
	BYTE	W48
	BYTE		        Cn3 
	BYTE	W44
	BYTE	W03
// 049   ----------------------------------------
	BYTE	W01
	BYTE		        As2 
	BYTE	W06
	BYTE		VOL     67*FE03MainThemeSme_mvl/mxv
	BYTE	W14
	BYTE		        68*FE03MainThemeSme_mvl/mxv
	BYTE	W14
	BYTE		        69*FE03MainThemeSme_mvl/mxv
	BYTE	W13
	BYTE		        70*FE03MainThemeSme_mvl/mxv
	BYTE	W01
	BYTE		N44     Cn3 
	BYTE	W13
	BYTE		VOL     71*FE03MainThemeSme_mvl/mxv
	BYTE	W14
	BYTE		        72*FE03MainThemeSme_mvl/mxv
	BYTE	W14
	BYTE		        73*FE03MainThemeSme_mvl/mxv
	BYTE	W06
// 050   ----------------------------------------
	BYTE	W01
	BYTE		N44     Dn3 
	BYTE	W05
	BYTE		VOL     74*FE03MainThemeSme_mvl/mxv
	BYTE	W12
	BYTE		        75*FE03MainThemeSme_mvl/mxv
	BYTE	W12
	BYTE		        76*FE03MainThemeSme_mvl/mxv
	BYTE	W12
	BYTE		        77*FE03MainThemeSme_mvl/mxv
	BYTE	W07
	BYTE		N44     Ds3 
	BYTE	W05
	BYTE		VOL     78*FE03MainThemeSme_mvl/mxv
	BYTE	W12
	BYTE		        79*FE03MainThemeSme_mvl/mxv
	BYTE	W12
	BYTE		        80*FE03MainThemeSme_mvl/mxv
	BYTE	W12
	BYTE		        81*FE03MainThemeSme_mvl/mxv
	BYTE	W06
// 051   ----------------------------------------
	BYTE	W01
	BYTE		N44     Cn3 
	BYTE	W06
	BYTE		VOL     82*FE03MainThemeSme_mvl/mxv
	BYTE	W14
	BYTE		        83*FE03MainThemeSme_mvl/mxv
	BYTE	W14
	BYTE		        84*FE03MainThemeSme_mvl/mxv
	BYTE	W13
	BYTE		        85*FE03MainThemeSme_mvl/mxv
	BYTE	W01
	BYTE		N44   
	BYTE	W13
	BYTE		VOL     86*FE03MainThemeSme_mvl/mxv
	BYTE	W14
	BYTE		        87*FE03MainThemeSme_mvl/mxv
	BYTE	W14
	BYTE		        88*FE03MainThemeSme_mvl/mxv
	BYTE	W06
// 052   ----------------------------------------
	BYTE	W01
	BYTE		TIE     Dn3 
	BYTE	W05
	BYTE		VOL     89*FE03MainThemeSme_mvl/mxv
	BYTE	W12
	BYTE		        90*FE03MainThemeSme_mvl/mxv
	BYTE	W12
	BYTE		        91*FE03MainThemeSme_mvl/mxv
	BYTE	W12
	BYTE		        92*FE03MainThemeSme_mvl/mxv
	BYTE	W12
	BYTE		        93*FE03MainThemeSme_mvl/mxv
	BYTE	W12
	BYTE		        94*FE03MainThemeSme_mvl/mxv
	BYTE	W12
	BYTE		        95*FE03MainThemeSme_mvl/mxv
	BYTE	W12
	BYTE		        96*FE03MainThemeSme_mvl/mxv
	BYTE	W06
// 053   ----------------------------------------
	BYTE	W24
	BYTE		EOT   
	BYTE	FINE

//**************** Track 4 (Midi-Chn.4) ****************//

FE03MainThemeSme_4:
	BYTE	KEYSH   FE03MainThemeSme_key+0
// 000   ----------------------------------------
	BYTE		VOICE   40
	BYTE		VOL     113*FE03MainThemeSme_mvl/mxv
	BYTE		PAN     c_v+0
	BYTE		VOL     96*FE03MainThemeSme_mvl/mxv
	BYTE		N32     As1   v104
	BYTE	W01
	BYTE		VOL     97*FE03MainThemeSme_mvl/mxv
	BYTE	W01
	BYTE		        98*FE03MainThemeSme_mvl/mxv
	BYTE	W01
	BYTE		        99*FE03MainThemeSme_mvl/mxv
	BYTE	W01
	BYTE		        100*FE03MainThemeSme_mvl/mxv
	BYTE	W01
	BYTE		        101*FE03MainThemeSme_mvl/mxv
	BYTE	W01
	BYTE		        102*FE03MainThemeSme_mvl/mxv
	BYTE	W01
	BYTE		        103*FE03MainThemeSme_mvl/mxv
	BYTE	W01
	BYTE		        104*FE03MainThemeSme_mvl/mxv
	BYTE	W01
	BYTE		        105*FE03MainThemeSme_mvl/mxv
	BYTE	W01
	BYTE		        106*FE03MainThemeSme_mvl/mxv
	BYTE	W01
	BYTE		        107*FE03MainThemeSme_mvl/mxv
	BYTE	W01
	BYTE		        108*FE03MainThemeSme_mvl/mxv
	BYTE	W01
	BYTE		        109*FE03MainThemeSme_mvl/mxv
	BYTE	W01
	BYTE		        110*FE03MainThemeSme_mvl/mxv
	BYTE	W01
	BYTE		        111*FE03MainThemeSme_mvl/mxv
	BYTE	W01
	BYTE		        112*FE03MainThemeSme_mvl/mxv
	BYTE	W01
	BYTE		        113*FE03MainThemeSme_mvl/mxv
	BYTE	W19
	BYTE		N03   
	BYTE	W04
	BYTE		        As1   v092
	BYTE	W04
	BYTE		N03   
	BYTE	W04
	BYTE		VOL     90*FE03MainThemeSme_mvl/mxv
	BYTE		N44     As1   v104
	BYTE	W01
	BYTE		VOL     92*FE03MainThemeSme_mvl/mxv
	BYTE	W01
	BYTE		        93*FE03MainThemeSme_mvl/mxv
	BYTE	W01
	BYTE		        94*FE03MainThemeSme_mvl/mxv
	BYTE	W01
	BYTE		        96*FE03MainThemeSme_mvl/mxv
	BYTE	W01
	BYTE		        97*FE03MainThemeSme_mvl/mxv
	BYTE	W01
	BYTE		        98*FE03MainThemeSme_mvl/mxv
	BYTE	W01
	BYTE		        100*FE03MainThemeSme_mvl/mxv
	BYTE	W01
	BYTE		        101*FE03MainThemeSme_mvl/mxv
	BYTE	W01
	BYTE		        102*FE03MainThemeSme_mvl/mxv
	BYTE	W01
	BYTE		        104*FE03MainThemeSme_mvl/mxv
	BYTE	W01
	BYTE		        105*FE03MainThemeSme_mvl/mxv
	BYTE	W01
	BYTE		        106*FE03MainThemeSme_mvl/mxv
	BYTE	W01
	BYTE		        108*FE03MainThemeSme_mvl/mxv
	BYTE	W01
	BYTE		        109*FE03MainThemeSme_mvl/mxv
	BYTE	W01
	BYTE		        110*FE03MainThemeSme_mvl/mxv
	BYTE	W01
	BYTE		        112*FE03MainThemeSme_mvl/mxv
	BYTE	W01
	BYTE		        113*FE03MainThemeSme_mvl/mxv
	BYTE	W30
	BYTE	W01
// 001   ----------------------------------------
	BYTE		        96*FE03MainThemeSme_mvl/mxv
	BYTE		N32     Cs2 
	BYTE	W01
	BYTE		VOL     97*FE03MainThemeSme_mvl/mxv
	BYTE	W01
	BYTE		        98*FE03MainThemeSme_mvl/mxv
	BYTE	W01
	BYTE		        99*FE03MainThemeSme_mvl/mxv
	BYTE	W01
	BYTE		        100*FE03MainThemeSme_mvl/mxv
	BYTE	W01
	BYTE		        101*FE03MainThemeSme_mvl/mxv
	BYTE	W01
	BYTE		        102*FE03MainThemeSme_mvl/mxv
	BYTE	W01
	BYTE		        103*FE03MainThemeSme_mvl/mxv
	BYTE	W01
	BYTE		        104*FE03MainThemeSme_mvl/mxv
	BYTE	W01
	BYTE		        105*FE03MainThemeSme_mvl/mxv
	BYTE	W01
	BYTE		        106*FE03MainThemeSme_mvl/mxv
	BYTE	W01
	BYTE		        107*FE03MainThemeSme_mvl/mxv
	BYTE	W01
	BYTE		        108*FE03MainThemeSme_mvl/mxv
	BYTE	W01
	BYTE		        109*FE03MainThemeSme_mvl/mxv
	BYTE	W01
	BYTE		        110*FE03MainThemeSme_mvl/mxv
	BYTE	W01
	BYTE		        111*FE03MainThemeSme_mvl/mxv
	BYTE	W01
	BYTE		        112*FE03MainThemeSme_mvl/mxv
	BYTE	W01
	BYTE		        113*FE03MainThemeSme_mvl/mxv
	BYTE	W19
	BYTE		N03   
	BYTE	W04
	BYTE		        Cs2   v092
	BYTE	W04
	BYTE		N03   
	BYTE	W04
	BYTE		VOL     90*FE03MainThemeSme_mvl/mxv
	BYTE		N44     Cn2   v104
	BYTE	W01
	BYTE		VOL     92*FE03MainThemeSme_mvl/mxv
	BYTE	W01
	BYTE		        93*FE03MainThemeSme_mvl/mxv
	BYTE	W01
	BYTE		        94*FE03MainThemeSme_mvl/mxv
	BYTE	W01
	BYTE		        96*FE03MainThemeSme_mvl/mxv
	BYTE	W01
	BYTE		        97*FE03MainThemeSme_mvl/mxv
	BYTE	W01
	BYTE		        98*FE03MainThemeSme_mvl/mxv
	BYTE	W01
	BYTE		        100*FE03MainThemeSme_mvl/mxv
	BYTE	W01
	BYTE		        101*FE03MainThemeSme_mvl/mxv
	BYTE	W01
	BYTE		        102*FE03MainThemeSme_mvl/mxv
	BYTE	W01
	BYTE		        104*FE03MainThemeSme_mvl/mxv
	BYTE	W01
	BYTE		        105*FE03MainThemeSme_mvl/mxv
	BYTE	W01
	BYTE		        106*FE03MainThemeSme_mvl/mxv
	BYTE	W01
	BYTE		        108*FE03MainThemeSme_mvl/mxv
	BYTE	W01
	BYTE		        109*FE03MainThemeSme_mvl/mxv
	BYTE	W01
	BYTE		        110*FE03MainThemeSme_mvl/mxv
	BYTE	W01
	BYTE		        112*FE03MainThemeSme_mvl/mxv
	BYTE	W01
	BYTE		        113*FE03MainThemeSme_mvl/mxv
	BYTE	W30
	BYTE	W01
// 002   ----------------------------------------
	BYTE		        96*FE03MainThemeSme_mvl/mxv
	BYTE		N32     Bn1 
	BYTE	W01
	BYTE		VOL     97*FE03MainThemeSme_mvl/mxv
	BYTE	W01
	BYTE		        98*FE03MainThemeSme_mvl/mxv
	BYTE	W01
	BYTE		        99*FE03MainThemeSme_mvl/mxv
	BYTE	W01
	BYTE		        100*FE03MainThemeSme_mvl/mxv
	BYTE	W01
	BYTE		        101*FE03MainThemeSme_mvl/mxv
	BYTE	W01
	BYTE		        102*FE03MainThemeSme_mvl/mxv
	BYTE	W01
	BYTE		        103*FE03MainThemeSme_mvl/mxv
	BYTE	W01
	BYTE		        104*FE03MainThemeSme_mvl/mxv
	BYTE	W01
	BYTE		        105*FE03MainThemeSme_mvl/mxv
	BYTE	W01
	BYTE		        106*FE03MainThemeSme_mvl/mxv
	BYTE	W01
	BYTE		        107*FE03MainThemeSme_mvl/mxv
	BYTE	W01
	BYTE		        108*FE03MainThemeSme_mvl/mxv
	BYTE	W01
	BYTE		        109*FE03MainThemeSme_mvl/mxv
	BYTE	W01
	BYTE		        110*FE03MainThemeSme_mvl/mxv
	BYTE	W01
	BYTE		        111*FE03MainThemeSme_mvl/mxv
	BYTE	W01
	BYTE		        112*FE03MainThemeSme_mvl/mxv
	BYTE	W01
	BYTE		        113*FE03MainThemeSme_mvl/mxv
	BYTE	W19
	BYTE		N03   
	BYTE	W04
	BYTE		        Bn1   v092
	BYTE	W04
	BYTE		N03   
	BYTE	W04
	BYTE		VOL     90*FE03MainThemeSme_mvl/mxv
	BYTE		N44     As1   v104
	BYTE	W01
	BYTE		VOL     92*FE03MainThemeSme_mvl/mxv
	BYTE	W01
	BYTE		        93*FE03MainThemeSme_mvl/mxv
	BYTE	W01
	BYTE		        94*FE03MainThemeSme_mvl/mxv
	BYTE	W01
	BYTE		        96*FE03MainThemeSme_mvl/mxv
	BYTE	W01
	BYTE		        97*FE03MainThemeSme_mvl/mxv
	BYTE	W01
	BYTE		        98*FE03MainThemeSme_mvl/mxv
	BYTE	W01
	BYTE		        100*FE03MainThemeSme_mvl/mxv
	BYTE	W01
	BYTE		        101*FE03MainThemeSme_mvl/mxv
	BYTE	W01
	BYTE		        102*FE03MainThemeSme_mvl/mxv
	BYTE	W01
	BYTE		        104*FE03MainThemeSme_mvl/mxv
	BYTE	W01
	BYTE		        105*FE03MainThemeSme_mvl/mxv
	BYTE	W01
	BYTE		        106*FE03MainThemeSme_mvl/mxv
	BYTE	W01
	BYTE		        108*FE03MainThemeSme_mvl/mxv
	BYTE	W01
	BYTE		        109*FE03MainThemeSme_mvl/mxv
	BYTE	W01
	BYTE		        110*FE03MainThemeSme_mvl/mxv
	BYTE	W01
	BYTE		        112*FE03MainThemeSme_mvl/mxv
	BYTE	W01
	BYTE		        113*FE03MainThemeSme_mvl/mxv
	BYTE	W30
	BYTE	W01
// 003   ----------------------------------------
	BYTE		N11     Fn1   v088
	BYTE	W12
	BYTE		N03   
	BYTE	W04
	BYTE		N03   
	BYTE	W04
	BYTE		N03   
	BYTE	W04
	BYTE		N11     Gn1   v092
	BYTE	W12
	BYTE		N03   
	BYTE	W04
	BYTE		N03   
	BYTE	W04
	BYTE		N03   
	BYTE	W04
	BYTE		N11     Gs1 
	BYTE	W12
	BYTE		N03   
	BYTE	W04
	BYTE		N03   
	BYTE	W04
	BYTE		N03   
	BYTE	W04
	BYTE		N11     As1   v096
	BYTE	W12
	BYTE		        As1   v112
	BYTE	W12
// 004   ----------------------------------------
	BYTE		        Fn1   v104
	BYTE	W12
	BYTE		N03   
	BYTE	W04
	BYTE		N03   
	BYTE	W04
	BYTE		N03   
	BYTE	W04
	BYTE		N11     Gn1 
	BYTE	W12
	BYTE		N03   
	BYTE	W04
	BYTE		N03   
	BYTE	W04
	BYTE		N03   
	BYTE	W04
	BYTE		N11     Gs1   v108
	BYTE	W12
	BYTE		N03   
	BYTE	W04
	BYTE		N03   
	BYTE	W04
	BYTE		N03   
	BYTE	W04
	BYTE		N11     As1   v112
	BYTE	W12
	BYTE		        As0   v104
	BYTE	W12
// 005   ----------------------------------------
	BYTE		VOICE   109
	BYTE		VOL     90*FE03MainThemeSme_mvl/mxv
	BYTE		PAN     c_v-25
	BYTE		N05     As2 
	BYTE	W06
	BYTE		N02   
	BYTE	W03
	BYTE		        As2   v092
	BYTE	W03
	BYTE		N05     As2   v104
	BYTE	W06
	BYTE		N05   
	BYTE	W12
	BYTE		N02   
	BYTE	W03
	BYTE		        As2   v092
	BYTE	W03
	BYTE		N05     As2   v104
	BYTE	W06
	BYTE		N02   
	BYTE	W03
	BYTE		N02   
	BYTE	W03
	BYTE		N05   
	BYTE	W06
	BYTE		N02     Gs2 
	BYTE	W03
	BYTE		        Gs2   v092
	BYTE	W03
	BYTE		N05   
	BYTE	W06
	BYTE		N05   
	BYTE	W12
	BYTE		        Gs2   v096
	BYTE	W06
	BYTE		        Cs3 
	BYTE	W06
	BYTE		        Gs2 
	BYTE	W06
// 006   ----------------------------------------
	BYTE		        As2   v104
	BYTE	W06
	BYTE		N02   
	BYTE	W03
	BYTE		        As2   v092
	BYTE	W03
	BYTE		N05     As2   v104
	BYTE	W06
	BYTE		N05   
	BYTE	W12
	BYTE		N02   
	BYTE	W03
	BYTE		        As2   v092
	BYTE	W03
	BYTE		N05     As2   v104
	BYTE	W06
	BYTE		N02   
	BYTE	W03
	BYTE		N02   
	BYTE	W03
	BYTE		N05   
	BYTE	W06
	BYTE		N02     Gs2 
	BYTE	W03
	BYTE		        Gs2   v092
	BYTE	W03
	BYTE		N05   
	BYTE	W06
	BYTE		N05   
	BYTE	W12
	BYTE		        Gs2   v096
	BYTE	W06
	BYTE		        Cs3 
	BYTE	W06
	BYTE		        Fn3 
	BYTE	W06
// 007   ----------------------------------------
	BYTE		N17     Ds3   v104
	BYTE	W18
	BYTE		N02     Ds3   v108
	BYTE	W03
	BYTE		        Ds3   v096
	BYTE	W03
	BYTE		N05     Ds3   v104
	BYTE	W06
	BYTE		N05   
	BYTE	W06
	BYTE		        Ds3   v108
	BYTE	W06
	BYTE		        Ds3   v096
	BYTE	W06
	BYTE		N17     Ds3   v104
	BYTE	W18
	BYTE		N02     Ds3   v108
	BYTE	W03
	BYTE		        Ds3   v096
	BYTE	W03
	BYTE		N05     Ds3   v104
	BYTE	W06
	BYTE		N05   
	BYTE	W06
	BYTE		        Ds3   v108
	BYTE	W06
	BYTE		        Ds3   v096
	BYTE	W06
// 008   ----------------------------------------
FE03MainThemeSme_4_008:
	BYTE		N17     Ds3   v104
	BYTE	W18
	BYTE		N02     Ds3   v108
	BYTE	W03
	BYTE		        Ds3   v096
	BYTE	W03
	BYTE		N05     Ds3   v104
	BYTE	W06
	BYTE		N05   
	BYTE	W06
	BYTE		        Ds3   v108
	BYTE	W06
	BYTE		        Ds3   v096
	BYTE	W06
	BYTE		N17     Ds3   v104
	BYTE	W18
	BYTE		N02     Ds3   v108
	BYTE	W03
	BYTE		        Ds3   v096
	BYTE	W03
	BYTE		N05     Dn3   v104
	BYTE	W06
	BYTE		N05   
	BYTE	W06
	BYTE		        Dn3   v108
	BYTE	W06
	BYTE		        Dn3   v096
	BYTE	W06
	BYTE	PEND
// 009   ----------------------------------------
FE03MainThemeSme_4_009:
	BYTE		N17     Ds3   v104
	BYTE	W18
	BYTE		N02     Ds3   v108
	BYTE	W03
	BYTE		        Ds3   v096
	BYTE	W03
	BYTE		N05     Ds3   v104
	BYTE	W06
	BYTE		N05   
	BYTE	W06
	BYTE		        Ds3   v108
	BYTE	W06
	BYTE		        Ds3   v096
	BYTE	W06
	BYTE		N17     Ds3   v104
	BYTE	W18
	BYTE		N02     Ds3   v108
	BYTE	W03
	BYTE		        Ds3   v096
	BYTE	W03
	BYTE		N05     Ds3   v104
	BYTE	W06
	BYTE		N05   
	BYTE	W06
	BYTE		        Ds3   v108
	BYTE	W06
	BYTE		        Ds3   v096
	BYTE	W06
	BYTE	PEND
// 010   ----------------------------------------
FE03MainThemeSme_4_010:
	BYTE		N17     Ds3   v104
	BYTE	W18
	BYTE		N02     Ds3   v108
	BYTE	W03
	BYTE		        Ds3   v096
	BYTE	W03
	BYTE		N05     Ds3   v104
	BYTE	W06
	BYTE		N05   
	BYTE	W06
	BYTE		        Ds3   v108
	BYTE	W06
	BYTE		        Ds3   v096
	BYTE	W06
	BYTE		N17     Dn3   v104
	BYTE	W18
	BYTE		N02     Dn3   v108
	BYTE	W03
	BYTE		        Dn3   v096
	BYTE	W03
	BYTE		N05     Dn3   v104
	BYTE	W06
	BYTE		N05   
	BYTE	W06
	BYTE		        Dn3   v108
	BYTE	W06
	BYTE		        Dn3   v096
	BYTE	W06
	BYTE	PEND
// 011   ----------------------------------------
	BYTE	PATT
	 POIN2	FE03MainThemeSme_4_009
// 012   ----------------------------------------
	BYTE	PATT
	 POIN2	FE03MainThemeSme_4_008
// 013   ----------------------------------------
	BYTE	PATT
	 POIN2	FE03MainThemeSme_4_009
// 014   ----------------------------------------
FE03MainThemeSme_4_014:
	BYTE		N17     Ds3   v104
	BYTE	W18
	BYTE		N02     Ds3   v108
	BYTE	W03
	BYTE		        Ds3   v096
	BYTE	W03
	BYTE		N05     Dn3   v104
	BYTE	W06
	BYTE		N05   
	BYTE	W06
	BYTE		        Dn3   v108
	BYTE	W06
	BYTE		        Dn3   v096
	BYTE	W06
	BYTE		N11     Ds3   v104
	BYTE	W12
	BYTE		        Ds4   v127
	BYTE	W36
	BYTE	PEND
// 015   ----------------------------------------
	BYTE		VOICE   42
	BYTE		VOL     75*FE03MainThemeSme_mvl/mxv
	BYTE		N23     Cn3   v112
	BYTE	W24
	BYTE		        Dn3 
	BYTE	W24
	BYTE		N23   
	BYTE	W24
	BYTE		        Ds3 
	BYTE	W24
// 016   ----------------------------------------
FE03MainThemeSme_4_016:
	BYTE		N23     Gs3   v112
	BYTE	W24
	BYTE		        Fn3 
	BYTE	W24
	BYTE		N11     Gn3 
	BYTE	W12
	BYTE		N04     Gn3   v127
	BYTE	W09
	BYTE		N02   
	BYTE	W03
	BYTE		N23   
	BYTE	W24
	BYTE	PEND
// 017   ----------------------------------------
FE03MainThemeSme_4_017:
	BYTE		N23     Cn3   v112
	BYTE	W24
	BYTE		        Dn3 
	BYTE	W24
	BYTE		        Ds3   v116
	BYTE	W24
	BYTE		N23   
	BYTE	W24
	BYTE	PEND
// 018   ----------------------------------------
FE03MainThemeSme_4_018:
	BYTE		N23     Ds3   v116
	BYTE	W24
	BYTE		N23   
	BYTE	W24
	BYTE		        Dn3 
	BYTE	W24
	BYTE		N11     En3   v112
	BYTE	W12
	BYTE		        Fn3 
	BYTE	W12
	BYTE	PEND
// 019   ----------------------------------------
	BYTE		VOICE   61
	BYTE		VOL     90*FE03MainThemeSme_mvl/mxv
	BYTE		N17     Ds3   v104
	BYTE	W18
	BYTE		N02     Ds3   v108
	BYTE	W03
	BYTE		        Ds3   v096
	BYTE	W03
	BYTE		N05     Ds3   v104
	BYTE	W06
	BYTE		N05   
	BYTE	W06
	BYTE		        Ds3   v108
	BYTE	W06
	BYTE		        Ds3   v096
	BYTE	W06
	BYTE		N17     Ds3   v104
	BYTE	W18
	BYTE		N02     Ds3   v108
	BYTE	W03
	BYTE		        Ds3   v096
	BYTE	W03
	BYTE		N05     Ds3   v104
	BYTE	W06
	BYTE		N05   
	BYTE	W06
	BYTE		        Ds3   v108
	BYTE	W06
	BYTE		        Ds3   v096
	BYTE	W06
// 020   ----------------------------------------
	BYTE	PATT
	 POIN2	FE03MainThemeSme_4_008
// 021   ----------------------------------------
	BYTE	PATT
	 POIN2	FE03MainThemeSme_4_009
// 022   ----------------------------------------
	BYTE	PATT
	 POIN2	FE03MainThemeSme_4_010
// 023   ----------------------------------------
	BYTE	PATT
	 POIN2	FE03MainThemeSme_4_009
// 024   ----------------------------------------
	BYTE	PATT
	 POIN2	FE03MainThemeSme_4_008
// 025   ----------------------------------------
	BYTE	PATT
	 POIN2	FE03MainThemeSme_4_009
// 026   ----------------------------------------
	BYTE	PATT
	 POIN2	FE03MainThemeSme_4_014
// 027   ----------------------------------------
	BYTE		VOICE   62
	BYTE		VOL     75*FE03MainThemeSme_mvl/mxv
	BYTE		N23     Cn3   v112
	BYTE	W24
	BYTE		        Dn3 
	BYTE	W24
	BYTE		N23   
	BYTE	W24
	BYTE		        Ds3 
	BYTE	W24
// 028   ----------------------------------------
	BYTE	PATT
	 POIN2	FE03MainThemeSme_4_016
// 029   ----------------------------------------
	BYTE	PATT
	 POIN2	FE03MainThemeSme_4_017
// 030   ----------------------------------------
	BYTE	PATT
	 POIN2	FE03MainThemeSme_4_018
// 031   ----------------------------------------
	BYTE	W01
	BYTE		VOICE   61
	BYTE		VOL     90*FE03MainThemeSme_mvl/mxv
	BYTE		N17     Ds3   v104
	BYTE	W18
	BYTE		N02     Ds3   v108
	BYTE	W03
	BYTE		        Ds3   v096
	BYTE	W03
	BYTE		N05     Ds3   v104
	BYTE	W06
	BYTE		N05   
	BYTE	W06
	BYTE		        Ds3   v108
	BYTE	W06
	BYTE		        Ds3   v096
	BYTE	W06
	BYTE		N17     Ds3   v104
	BYTE	W18
	BYTE		N02     Ds3   v108
	BYTE	W03
	BYTE		        Ds3   v096
	BYTE	W03
	BYTE		N05     Ds3   v104
	BYTE	W06
	BYTE		N05   
	BYTE	W06
	BYTE		        Ds3   v108
	BYTE	W06
	BYTE		        Ds3   v096
	BYTE	W05
// 032   ----------------------------------------
FE03MainThemeSme_4_032:
	BYTE	W01
	BYTE		N17     Ds3   v104
	BYTE	W18
	BYTE		N02     Ds3   v108
	BYTE	W03
	BYTE		        Ds3   v096
	BYTE	W03
	BYTE		N05     Ds3   v104
	BYTE	W06
	BYTE		N05   
	BYTE	W06
	BYTE		        Ds3   v108
	BYTE	W06
	BYTE		        Ds3   v096
	BYTE	W06
	BYTE		N17     Ds3   v104
	BYTE	W18
	BYTE		N02     Ds3   v108
	BYTE	W03
	BYTE		        Ds3   v096
	BYTE	W03
	BYTE		N05     Dn3   v104
	BYTE	W06
	BYTE		N05   
	BYTE	W06
	BYTE		        Dn3   v108
	BYTE	W06
	BYTE		        Dn3   v096
	BYTE	W05
	BYTE	PEND
// 033   ----------------------------------------
FE03MainThemeSme_4_033:
	BYTE	W01
	BYTE		N17     Ds3   v104
	BYTE	W18
	BYTE		N02     Ds3   v108
	BYTE	W03
	BYTE		        Ds3   v096
	BYTE	W03
	BYTE		N05     Ds3   v104
	BYTE	W06
	BYTE		N05   
	BYTE	W06
	BYTE		        Ds3   v108
	BYTE	W06
	BYTE		        Ds3   v096
	BYTE	W06
	BYTE		N17     Ds3   v104
	BYTE	W18
	BYTE		N02     Ds3   v108
	BYTE	W03
	BYTE		        Ds3   v096
	BYTE	W03
	BYTE		N05     Ds3   v104
	BYTE	W06
	BYTE		N05   
	BYTE	W06
	BYTE		        Ds3   v108
	BYTE	W06
	BYTE		        Ds3   v096
	BYTE	W05
	BYTE	PEND
// 034   ----------------------------------------
	BYTE	W01
	BYTE		N17     Ds3   v104
	BYTE	W18
	BYTE		N02     Ds3   v108
	BYTE	W03
	BYTE		        Ds3   v096
	BYTE	W03
	BYTE		N05     Ds3   v104
	BYTE	W06
	BYTE		N05   
	BYTE	W06
	BYTE		        Ds3   v108
	BYTE	W06
	BYTE		        Ds3   v096
	BYTE	W06
	BYTE		N17     Dn3   v104
	BYTE	W18
	BYTE		N02     Dn3   v108
	BYTE	W03
	BYTE		        Dn3   v096
	BYTE	W03
	BYTE		N05     Dn3   v104
	BYTE	W06
	BYTE		N05   
	BYTE	W06
	BYTE		        Dn3   v108
	BYTE	W06
	BYTE		        Dn3   v096
	BYTE	W05
// 035   ----------------------------------------
	BYTE	PATT
	 POIN2	FE03MainThemeSme_4_033
// 036   ----------------------------------------
	BYTE	PATT
	 POIN2	FE03MainThemeSme_4_032
// 037   ----------------------------------------
	BYTE	PATT
	 POIN2	FE03MainThemeSme_4_033
// 038   ----------------------------------------
	BYTE	W01
	BYTE		N17     Ds3   v104
	BYTE	W18
	BYTE		N02     Ds3   v108
	BYTE	W03
	BYTE		        Ds3   v096
	BYTE	W03
	BYTE		N05     Dn3   v104
	BYTE	W06
	BYTE		N05   
	BYTE	W06
	BYTE		        Dn3   v108
	BYTE	W06
	BYTE		        Dn3   v096
	BYTE	W06
	BYTE		N11     Ds3   v104
	BYTE	W12
	BYTE		        Ds4   v127
	BYTE	W32
	BYTE	W03
// 039   ----------------------------------------
	BYTE	W01
	BYTE		VOICE   62
	BYTE		VOL     75*FE03MainThemeSme_mvl/mxv
	BYTE		N23     Cn3   v112
	BYTE	W24
	BYTE		        Dn3 
	BYTE	W24
	BYTE		N23   
	BYTE	W24
	BYTE		        Ds3 
	BYTE	W23
// 040   ----------------------------------------
	BYTE	W01
	BYTE		        Gs3 
	BYTE	W24
	BYTE		        Fn3 
	BYTE	W24
	BYTE		N11     Gn3 
	BYTE	W12
	BYTE		N04     Gn3   v127
	BYTE	W09
	BYTE		N02   
	BYTE	W03
	BYTE		N23   
	BYTE	W23
// 041   ----------------------------------------
	BYTE	W01
	BYTE		        Cn3   v112
	BYTE	W24
	BYTE		        Dn3 
	BYTE	W24
	BYTE		        Ds3   v116
	BYTE	W24
	BYTE		N23   
	BYTE	W23
// 042   ----------------------------------------
	BYTE	W01
	BYTE		N23   
	BYTE	W24
	BYTE		N23   
	BYTE	W24
	BYTE		        Dn3 
	BYTE	W24
	BYTE		N11     En3   v112
	BYTE	W12
	BYTE		        Fn3 
	BYTE	W11
// 043   ----------------------------------------
	BYTE	W02
	BYTE		VOL     79*FE03MainThemeSme_mvl/mxv
	BYTE		PAN     c_v+0
	BYTE		N23     As3   v104
	BYTE	W24
	BYTE		N11     Ds4 
	BYTE	W12
	BYTE		        Gn4 
	BYTE	W12
	BYTE		N17     Gn4   v108
	BYTE	W18
	BYTE		N05     Gs4 
	BYTE	W06
	BYTE		N32     Fn4   v104
	BYTE	W22
// 044   ----------------------------------------
	BYTE	W14
	BYTE		N11     Gn4   v108
	BYTE	W12
	BYTE		        Ds4 
	BYTE	W12
	BYTE		        As3 
	BYTE	W12
	BYTE		N17     Fn4   v112
	BYTE	W18
	BYTE		N05     Gn4 
	BYTE	W06
	BYTE		N32     Ds4 
	BYTE	W22
// 045   ----------------------------------------
	BYTE	W14
	BYTE		N11     Cn4   v108
	BYTE	W12
	BYTE		        Cn5   v116
	BYTE	W12
	BYTE		N05     As4   v112
	BYTE	W06
	BYTE		        Gs4 
	BYTE	W06
	BYTE		N23     As4   v120
	BYTE	W24
	BYTE		N11     Gn4   v116
	BYTE	W12
	BYTE		        Ds4   v112
	BYTE	W10
// 046   ----------------------------------------
	BYTE	W02
	BYTE		        Cn4   v108
	BYTE	W12
	BYTE		        Gs4   v112
	BYTE	W12
	BYTE		        Fn4 
	BYTE	W12
	BYTE		        Dn4 
	BYTE	W12
	BYTE		N17     Fn4   v108
	BYTE	W18
	BYTE		N05     Ds4 
	BYTE	W06
	BYTE		N22     Ds4   v104
	BYTE	W22
// 047   ----------------------------------------
	BYTE	W02
	BYTE		VOL     39*FE03MainThemeSme_mvl/mxv
	BYTE		N44     Gn4   v116
	BYTE	W48
	BYTE		        An4 
	BYTE	W44
	BYTE	W02
// 048   ----------------------------------------
	BYTE	W02
	BYTE		        Gn4 
	BYTE	W48
	BYTE		        An4 
	BYTE	W44
	BYTE	W02
// 049   ----------------------------------------
	BYTE	W02
	BYTE		        Gn4 
	BYTE	W06
	BYTE		VOL     40*FE03MainThemeSme_mvl/mxv
	BYTE	W14
	BYTE		        41*FE03MainThemeSme_mvl/mxv
	BYTE	W14
	BYTE		        42*FE03MainThemeSme_mvl/mxv
	BYTE	W13
	BYTE		        43*FE03MainThemeSme_mvl/mxv
	BYTE	W01
	BYTE		N44     An4 
	BYTE	W13
	BYTE		VOL     44*FE03MainThemeSme_mvl/mxv
	BYTE	W14
	BYTE		        45*FE03MainThemeSme_mvl/mxv
	BYTE	W14
	BYTE		        46*FE03MainThemeSme_mvl/mxv
	BYTE	W05
// 050   ----------------------------------------
	BYTE	W02
	BYTE		N44     As4 
	BYTE	W05
	BYTE		VOL     47*FE03MainThemeSme_mvl/mxv
	BYTE	W12
	BYTE		        48*FE03MainThemeSme_mvl/mxv
	BYTE	W12
	BYTE		        49*FE03MainThemeSme_mvl/mxv
	BYTE	W12
	BYTE		        50*FE03MainThemeSme_mvl/mxv
	BYTE	W07
	BYTE		N44     Cn5 
	BYTE	W05
	BYTE		VOL     51*FE03MainThemeSme_mvl/mxv
	BYTE	W12
	BYTE		        52*FE03MainThemeSme_mvl/mxv
	BYTE	W12
	BYTE		        53*FE03MainThemeSme_mvl/mxv
	BYTE	W12
	BYTE		        54*FE03MainThemeSme_mvl/mxv
	BYTE	W05
// 051   ----------------------------------------
	BYTE	W02
	BYTE		N44     As4 
	BYTE	W06
	BYTE		VOL     55*FE03MainThemeSme_mvl/mxv
	BYTE	W14
	BYTE		        56*FE03MainThemeSme_mvl/mxv
	BYTE	W14
	BYTE		        57*FE03MainThemeSme_mvl/mxv
	BYTE	W13
	BYTE		        58*FE03MainThemeSme_mvl/mxv
	BYTE	W01
	BYTE		N44     An4 
	BYTE	W13
	BYTE		VOL     59*FE03MainThemeSme_mvl/mxv
	BYTE	W14
	BYTE		        60*FE03MainThemeSme_mvl/mxv
	BYTE	W14
	BYTE		        61*FE03MainThemeSme_mvl/mxv
	BYTE	W05
// 052   ----------------------------------------
	BYTE	W02
	BYTE		TIE     As4 
	BYTE	W05
	BYTE		VOL     62*FE03MainThemeSme_mvl/mxv
	BYTE	W12
	BYTE		        63*FE03MainThemeSme_mvl/mxv
	BYTE	W12
	BYTE		        64*FE03MainThemeSme_mvl/mxv
	BYTE	W12
	BYTE		        65*FE03MainThemeSme_mvl/mxv
	BYTE	W12
	BYTE		        66*FE03MainThemeSme_mvl/mxv
	BYTE	W12
	BYTE		        67*FE03MainThemeSme_mvl/mxv
	BYTE	W12
	BYTE		        68*FE03MainThemeSme_mvl/mxv
	BYTE	W12
	BYTE		        69*FE03MainThemeSme_mvl/mxv
	BYTE	W05
// 053   ----------------------------------------
	BYTE	W24
	BYTE		EOT   
	BYTE	FINE

//**************** Track 5 (Midi-Chn.5) ****************//

FE03MainThemeSme_5:
	BYTE	KEYSH   FE03MainThemeSme_key+0
// 000   ----------------------------------------
	BYTE		VOICE   41
	BYTE		VOL     103*FE03MainThemeSme_mvl/mxv
	BYTE		PAN     c_v+25
	BYTE		N32     Fn4   v096
	BYTE	W36
	BYTE		N02     Fn4   v108
	BYTE	W04
	BYTE		        Fn4   v096
	BYTE	W04
	BYTE		        Gs4 
	BYTE	W04
	BYTE		N44     Gn4   v108
	BYTE	W48
// 001   ----------------------------------------
	BYTE		N32     Gn4   v096
	BYTE	W36
	BYTE		N02     Gn4   v108
	BYTE	W04
	BYTE		        Gs4   v096
	BYTE	W04
	BYTE		        As4 
	BYTE	W04
	BYTE		N44     Gs4   v108
	BYTE	W48
// 002   ----------------------------------------
	BYTE		N32     Gs4   v092
	BYTE	W36
	BYTE		N02     Gs4   v108
	BYTE	W04
	BYTE		        As4   v096
	BYTE	W04
	BYTE		        Gs4 
	BYTE	W04
	BYTE		N23     Gn4   v104
	BYTE	W24
	BYTE		        Ds4   v096
	BYTE	W24
// 003   ----------------------------------------
	BYTE		N11     Cn4   v092
	BYTE	W12
	BYTE		N03     Cn4   v088
	BYTE	W04
	BYTE		        Cn4   v076
	BYTE	W04
	BYTE		N03   
	BYTE	W04
	BYTE		N11     Dn4   v096
	BYTE	W12
	BYTE		N03     Dn4   v092
	BYTE	W04
	BYTE		        Dn4   v076
	BYTE	W04
	BYTE		N03   
	BYTE	W04
	BYTE		N11     Ds4   v096
	BYTE	W12
	BYTE		N03     Ds4   v092
	BYTE	W04
	BYTE		        Ds4   v080
	BYTE	W04
	BYTE		N03   
	BYTE	W04
	BYTE		N11     Fn4   v100
	BYTE	W12
	BYTE		        Fn4   v112
	BYTE	W12
// 004   ----------------------------------------
	BYTE		        Ds4   v104
	BYTE	W12
	BYTE		N03   
	BYTE	W04
	BYTE		        Ds4   v092
	BYTE	W04
	BYTE		N03   
	BYTE	W04
	BYTE		N11     Fn4   v108
	BYTE	W12
	BYTE		N03   
	BYTE	W04
	BYTE		        Fn4   v092
	BYTE	W04
	BYTE		N03   
	BYTE	W04
	BYTE		N11     Gn4   v112
	BYTE	W12
	BYTE		N03   
	BYTE	W04
	BYTE		        Gn4   v096
	BYTE	W04
	BYTE		N03   
	BYTE	W04
	BYTE		N11     Gs4   v120
	BYTE	W12
	BYTE		        Dn4   v104
	BYTE	W12
// 005   ----------------------------------------
	BYTE		VOL     121*FE03MainThemeSme_mvl/mxv
	BYTE	W48
	BYTE		VOICE   58
	BYTE		VOL     105*FE03MainThemeSme_mvl/mxv
	BYTE		PAN     c_v+0
	BYTE	W48
// 006   ----------------------------------------
	BYTE	W96
// 007   ----------------------------------------
	BYTE		VOICE   41
	BYTE		N23     As2 
	BYTE	W24
	BYTE		N11     Ds3 
	BYTE	W12
	BYTE		        Gn3   v108
	BYTE	W12
	BYTE		N23     Gn3   v112
	BYTE	W24
	BYTE		        Cn3   v108
	BYTE	W24
// 008   ----------------------------------------
FE03MainThemeSme_5_008:
	BYTE		N28     Cn3   v100
	BYTE	W30
	BYTE		N05     Dn3   v104
	BYTE	W06
	BYTE		        Ds3   v096
	BYTE	W06
	BYTE		        Fn3 
	BYTE	W06
	BYTE		N23     Ds3   v108
	BYTE	W24
	BYTE		        Dn3   v104
	BYTE	W24
	BYTE	PEND
// 009   ----------------------------------------
FE03MainThemeSme_5_009:
	BYTE		N23     As2   v104
	BYTE	W24
	BYTE		N11     Ds3   v108
	BYTE	W12
	BYTE		        Gn3   v112
	BYTE	W12
	BYTE		N23     As3   v116
	BYTE	W24
	BYTE		N11     Gs3   v112
	BYTE	W12
	BYTE		        Gn3   v108
	BYTE	W12
	BYTE	PEND
// 010   ----------------------------------------
FE03MainThemeSme_5_010:
	BYTE		N28     Cn3   v108
	BYTE	W30
	BYTE		N05     Dn3   v104
	BYTE	W06
	BYTE		        Ds3   v096
	BYTE	W06
	BYTE		        Fn3 
	BYTE	W06
	BYTE		N44     Fn3   v100
	BYTE	W48
	BYTE	PEND
// 011   ----------------------------------------
FE03MainThemeSme_5_011:
	BYTE		N23     As2   v104
	BYTE	W24
	BYTE		N11     Ds3 
	BYTE	W12
	BYTE		        Gn3   v108
	BYTE	W12
	BYTE		N23     Gn3   v112
	BYTE	W24
	BYTE		        Cn3   v108
	BYTE	W24
	BYTE	PEND
// 012   ----------------------------------------
	BYTE	PATT
	 POIN2	FE03MainThemeSme_5_008
// 013   ----------------------------------------
	BYTE	PATT
	 POIN2	FE03MainThemeSme_5_009
// 014   ----------------------------------------
FE03MainThemeSme_5_014:
	BYTE		N28     Cn3   v108
	BYTE	W30
	BYTE		N05     Dn3   v104
	BYTE	W06
	BYTE		        Ds3   v096
	BYTE	W06
	BYTE		        Fn3 
	BYTE	W06
	BYTE		N11     Ds3   v104
	BYTE	W12
	BYTE		        Ds4   v127
	BYTE	W24
	BYTE		        Dn3   v104
	BYTE	W12
	BYTE	PEND
// 015   ----------------------------------------
FE03MainThemeSme_5_015:
	BYTE		N11     Cn3   v104
	BYTE	W12
	BYTE		N17     Gs3   v108
	BYTE	W18
	BYTE		N05     Fn3   v104
	BYTE	W06
	BYTE		        Ds3 
	BYTE	W06
	BYTE		        Dn3 
	BYTE	W06
	BYTE		N17     As3   v112
	BYTE	W18
	BYTE		N05     Gn3   v108
	BYTE	W06
	BYTE		N11     Ds3   v104
	BYTE	W12
	BYTE		N05   
	BYTE	W06
	BYTE		        Dn3 
	BYTE	W06
	BYTE	PEND
// 016   ----------------------------------------
FE03MainThemeSme_5_016:
	BYTE		N11     Cn3   v104
	BYTE	W12
	BYTE		N17     Cn4   v112
	BYTE	W18
	BYTE		N05     As3 
	BYTE	W06
	BYTE		        Gs3   v108
	BYTE	W06
	BYTE		        Fn3 
	BYTE	W06
	BYTE		N44     Gn3   v104
	BYTE	W48
	BYTE	PEND
// 017   ----------------------------------------
FE03MainThemeSme_5_017:
	BYTE		N11     Cn3   v104
	BYTE	W12
	BYTE		N17     Gs3   v108
	BYTE	W18
	BYTE		N05     Fn3 
	BYTE	W06
	BYTE		        Ds3   v104
	BYTE	W06
	BYTE		        Dn3 
	BYTE	W06
	BYTE		N17     As3   v112
	BYTE	W18
	BYTE		N05     Gn3   v104
	BYTE	W06
	BYTE		N11     Ds4   v112
	BYTE	W12
	BYTE		N05   
	BYTE	W06
	BYTE		        Dn4 
	BYTE	W06
	BYTE	PEND
// 018   ----------------------------------------
FE03MainThemeSme_5_018:
	BYTE		N11     Cn4   v116
	BYTE	W12
	BYTE		N17   
	BYTE	W18
	BYTE		N05     Dn4   v120
	BYTE	W06
	BYTE		        Ds4 
	BYTE	W06
	BYTE		        Fn4 
	BYTE	W06
	BYTE		N23     Ds4   v124
	BYTE	W24
	BYTE		        Dn4 
	BYTE	W24
	BYTE	PEND
// 019   ----------------------------------------
	BYTE	PATT
	 POIN2	FE03MainThemeSme_5_011
// 020   ----------------------------------------
	BYTE	PATT
	 POIN2	FE03MainThemeSme_5_008
// 021   ----------------------------------------
	BYTE	PATT
	 POIN2	FE03MainThemeSme_5_009
// 022   ----------------------------------------
	BYTE	PATT
	 POIN2	FE03MainThemeSme_5_010
// 023   ----------------------------------------
	BYTE	PATT
	 POIN2	FE03MainThemeSme_5_011
// 024   ----------------------------------------
	BYTE	PATT
	 POIN2	FE03MainThemeSme_5_008
// 025   ----------------------------------------
	BYTE	PATT
	 POIN2	FE03MainThemeSme_5_009
// 026   ----------------------------------------
	BYTE	PATT
	 POIN2	FE03MainThemeSme_5_014
// 027   ----------------------------------------
	BYTE	PATT
	 POIN2	FE03MainThemeSme_5_015
// 028   ----------------------------------------
	BYTE	PATT
	 POIN2	FE03MainThemeSme_5_016
// 029   ----------------------------------------
	BYTE	PATT
	 POIN2	FE03MainThemeSme_5_017
// 030   ----------------------------------------
	BYTE	PATT
	 POIN2	FE03MainThemeSme_5_018
// 031   ----------------------------------------
FE03MainThemeSme_5_031:
	BYTE	W01
	BYTE		N23     As2   v104
	BYTE	W24
	BYTE		N11     Ds3 
	BYTE	W12
	BYTE		        Gn3   v108
	BYTE	W12
	BYTE		N23     Gn3   v112
	BYTE	W24
	BYTE		        Cn3   v108
	BYTE	W23
	BYTE	PEND
// 032   ----------------------------------------
FE03MainThemeSme_5_032:
	BYTE	W01
	BYTE		N28     Cn3   v100
	BYTE	W30
	BYTE		N05     Dn3   v104
	BYTE	W06
	BYTE		        Ds3   v096
	BYTE	W06
	BYTE		        Fn3 
	BYTE	W06
	BYTE		N23     Ds3   v108
	BYTE	W24
	BYTE		        Dn3   v104
	BYTE	W23
	BYTE	PEND
// 033   ----------------------------------------
FE03MainThemeSme_5_033:
	BYTE	W01
	BYTE		N23     As2   v104
	BYTE	W24
	BYTE		N11     Ds3   v108
	BYTE	W12
	BYTE		        Gn3   v112
	BYTE	W12
	BYTE		N23     As3   v116
	BYTE	W24
	BYTE		N11     Gs3   v112
	BYTE	W12
	BYTE		        Gn3   v108
	BYTE	W11
	BYTE	PEND
// 034   ----------------------------------------
	BYTE	W01
	BYTE		N28     Cn3 
	BYTE	W30
	BYTE		N05     Dn3   v104
	BYTE	W06
	BYTE		        Ds3   v096
	BYTE	W06
	BYTE		        Fn3 
	BYTE	W06
	BYTE		N44     Fn3   v100
	BYTE	W44
	BYTE	W03
// 035   ----------------------------------------
	BYTE	PATT
	 POIN2	FE03MainThemeSme_5_031
// 036   ----------------------------------------
	BYTE	PATT
	 POIN2	FE03MainThemeSme_5_032
// 037   ----------------------------------------
	BYTE	PATT
	 POIN2	FE03MainThemeSme_5_033
// 038   ----------------------------------------
	BYTE	W01
	BYTE		N28     Cn3   v108
	BYTE	W30
	BYTE		N05     Dn3   v104
	BYTE	W06
	BYTE		        Ds3   v096
	BYTE	W06
	BYTE		        Fn3 
	BYTE	W06
	BYTE		N11     Ds3   v104
	BYTE	W12
	BYTE		        Ds4   v127
	BYTE	W24
	BYTE		        Dn3   v104
	BYTE	W11
// 039   ----------------------------------------
	BYTE	W01
	BYTE		        Cn3 
	BYTE	W12
	BYTE		N17     Gs3   v108
	BYTE	W18
	BYTE		N05     Fn3   v104
	BYTE	W06
	BYTE		        Ds3 
	BYTE	W06
	BYTE		        Dn3 
	BYTE	W06
	BYTE		N17     As3   v112
	BYTE	W18
	BYTE		N05     Gn3   v108
	BYTE	W06
	BYTE		N11     Ds3   v104
	BYTE	W12
	BYTE		N05   
	BYTE	W06
	BYTE		        Dn3 
	BYTE	W05
// 040   ----------------------------------------
	BYTE	W01
	BYTE		N11     Cn3 
	BYTE	W12
	BYTE		N17     Cn4   v112
	BYTE	W18
	BYTE		N05     As3 
	BYTE	W06
	BYTE		        Gs3   v108
	BYTE	W06
	BYTE		        Fn3 
	BYTE	W06
	BYTE		N44     Gn3   v104
	BYTE	W44
	BYTE	W03
// 041   ----------------------------------------
	BYTE	W01
	BYTE		N11     Cn3 
	BYTE	W12
	BYTE		N17     Gs3   v108
	BYTE	W18
	BYTE		N05     Fn3 
	BYTE	W06
	BYTE		        Ds3   v104
	BYTE	W06
	BYTE		        Dn3 
	BYTE	W06
	BYTE		N17     As3   v112
	BYTE	W18
	BYTE		N05     Gn3   v104
	BYTE	W06
	BYTE		N11     Ds4   v112
	BYTE	W12
	BYTE		N05   
	BYTE	W06
	BYTE		        Dn4 
	BYTE	W05
// 042   ----------------------------------------
	BYTE	W01
	BYTE		N11     Cn4   v116
	BYTE	W12
	BYTE		N17   
	BYTE	W18
	BYTE		N05     Dn4   v120
	BYTE	W06
	BYTE		        Ds4 
	BYTE	W06
	BYTE		        Fn4 
	BYTE	W06
	BYTE		N23     Ds4   v124
	BYTE	W24
	BYTE		        Dn4 
	BYTE	W23
// 043   ----------------------------------------
	BYTE	W01
	BYTE		VOICE   62
	BYTE		VOL     110*FE03MainThemeSme_mvl/mxv
	BYTE		PAN     c_v+25
	BYTE		N23     As2   v104
	BYTE	W02
	BYTE		VOICE   41
	BYTE	W22
	BYTE		N11     Ds3 
	BYTE	W12
	BYTE		        Gn3 
	BYTE	W12
	BYTE		N17     Gn3   v108
	BYTE	W18
	BYTE		N05     Gs3 
	BYTE	W06
	BYTE		N32     Fn3   v104
	BYTE	W23
// 044   ----------------------------------------
	BYTE	W13
	BYTE		N11     Gn3   v108
	BYTE	W12
	BYTE		        Ds3 
	BYTE	W12
	BYTE		        As2 
	BYTE	W12
	BYTE		N17     Fn3   v112
	BYTE	W18
	BYTE		N05     Gn3 
	BYTE	W06
	BYTE		N32     Ds3 
	BYTE	W23
// 045   ----------------------------------------
	BYTE	W13
	BYTE		N11     Cn3   v108
	BYTE	W12
	BYTE		        Cn4   v116
	BYTE	W12
	BYTE		N05     As3   v112
	BYTE	W06
	BYTE		        Gs3 
	BYTE	W06
	BYTE		N23     As3   v120
	BYTE	W24
	BYTE		N11     Gn3   v116
	BYTE	W12
	BYTE		        Ds3   v112
	BYTE	W11
// 046   ----------------------------------------
	BYTE	W01
	BYTE		        Cn3   v108
	BYTE	W12
	BYTE		        Gs3   v112
	BYTE	W12
	BYTE		        Fn3 
	BYTE	W12
	BYTE		        Dn3 
	BYTE	W12
	BYTE		N17     Fn3   v108
	BYTE	W18
	BYTE		N05     Ds3 
	BYTE	W06
	BYTE		N23     Ds3   v104
	BYTE	W23
// 047   ----------------------------------------
	BYTE	W01
	BYTE		VOL     70*FE03MainThemeSme_mvl/mxv
	BYTE		N44     Gn3 
	BYTE	W48
	BYTE		        An3 
	BYTE	W44
	BYTE	W03
// 048   ----------------------------------------
	BYTE	W01
	BYTE		        Gn3 
	BYTE	W48
	BYTE		        An3 
	BYTE	W44
	BYTE	W03
// 049   ----------------------------------------
	BYTE	W01
	BYTE		        Gn3 
	BYTE	W07
	BYTE		VOL     71*FE03MainThemeSme_mvl/mxv
	BYTE	W14
	BYTE		        72*FE03MainThemeSme_mvl/mxv
	BYTE	W13
	BYTE		        73*FE03MainThemeSme_mvl/mxv
	BYTE	W14
	BYTE		        74*FE03MainThemeSme_mvl/mxv
	BYTE		N44     An3 
	BYTE	W14
	BYTE		VOL     75*FE03MainThemeSme_mvl/mxv
	BYTE	W13
	BYTE		        76*FE03MainThemeSme_mvl/mxv
	BYTE	W14
	BYTE		        77*FE03MainThemeSme_mvl/mxv
	BYTE	W06
// 050   ----------------------------------------
	BYTE	W01
	BYTE		N44     As3 
	BYTE	W06
	BYTE		VOL     78*FE03MainThemeSme_mvl/mxv
	BYTE	W12
	BYTE		        79*FE03MainThemeSme_mvl/mxv
	BYTE	W12
	BYTE		        80*FE03MainThemeSme_mvl/mxv
	BYTE	W12
	BYTE		        81*FE03MainThemeSme_mvl/mxv
	BYTE	W06
	BYTE		N44     Cn4 
	BYTE	W06
	BYTE		VOL     82*FE03MainThemeSme_mvl/mxv
	BYTE	W12
	BYTE		        83*FE03MainThemeSme_mvl/mxv
	BYTE	W12
	BYTE		        84*FE03MainThemeSme_mvl/mxv
	BYTE	W12
	BYTE		        85*FE03MainThemeSme_mvl/mxv
	BYTE	W05
// 051   ----------------------------------------
	BYTE	W01
	BYTE		N44     As3 
	BYTE	W07
	BYTE		VOL     86*FE03MainThemeSme_mvl/mxv
	BYTE	W14
	BYTE		        87*FE03MainThemeSme_mvl/mxv
	BYTE	W13
	BYTE		        88*FE03MainThemeSme_mvl/mxv
	BYTE	W14
	BYTE		        89*FE03MainThemeSme_mvl/mxv
	BYTE		N44     An3 
	BYTE	W14
	BYTE		VOL     90*FE03MainThemeSme_mvl/mxv
	BYTE	W13
	BYTE		        91*FE03MainThemeSme_mvl/mxv
	BYTE	W14
	BYTE		        92*FE03MainThemeSme_mvl/mxv
	BYTE	W06
// 052   ----------------------------------------
	BYTE	W01
	BYTE		TIE     As3 
	BYTE	W06
	BYTE		VOL     93*FE03MainThemeSme_mvl/mxv
	BYTE	W12
	BYTE		        94*FE03MainThemeSme_mvl/mxv
	BYTE	W12
	BYTE		        95*FE03MainThemeSme_mvl/mxv
	BYTE	W12
	BYTE		        96*FE03MainThemeSme_mvl/mxv
	BYTE	W12
	BYTE		        97*FE03MainThemeSme_mvl/mxv
	BYTE	W12
	BYTE		        98*FE03MainThemeSme_mvl/mxv
	BYTE	W12
	BYTE		        99*FE03MainThemeSme_mvl/mxv
	BYTE	W12
	BYTE		        100*FE03MainThemeSme_mvl/mxv
	BYTE	W05
// 053   ----------------------------------------
	BYTE	W24
	BYTE		EOT   
	BYTE	FINE

//**************** Track 6 (Midi-Chn.6) ****************//

FE03MainThemeSme_6:
	BYTE	KEYSH   FE03MainThemeSme_key+0
// 000   ----------------------------------------
	BYTE		VOICE   42
	BYTE		VOL     103*FE03MainThemeSme_mvl/mxv
	BYTE		PAN     c_v+14
	BYTE		N32     Cs4   v096
	BYTE	W36
	BYTE		N02     Cs4   v108
	BYTE	W04
	BYTE		        Cs4   v096
	BYTE	W04
	BYTE		        Fn4 
	BYTE	W04
	BYTE		N44     Ds4   v108
	BYTE	W48
// 001   ----------------------------------------
	BYTE		N32     Ds4   v096
	BYTE	W36
	BYTE		N02     Ds4   v108
	BYTE	W04
	BYTE		        Ds4   v096
	BYTE	W04
	BYTE		        Gn4 
	BYTE	W04
	BYTE		N44     Ds4   v108
	BYTE	W48
// 002   ----------------------------------------
	BYTE		N32     Ds4   v092
	BYTE	W36
	BYTE		N02     Ds4   v108
	BYTE	W04
	BYTE		        Ds4   v096
	BYTE	W04
	BYTE		N02   
	BYTE	W04
	BYTE		N23     Ds4   v104
	BYTE	W24
	BYTE		        As3   v096
	BYTE	W24
// 003   ----------------------------------------
	BYTE		N11     Gs3   v092
	BYTE	W12
	BYTE		N03     Gs3   v088
	BYTE	W04
	BYTE		        Gs3   v076
	BYTE	W04
	BYTE		N03   
	BYTE	W04
	BYTE		N11     As3   v096
	BYTE	W12
	BYTE		N03     As3   v092
	BYTE	W04
	BYTE		        As3   v076
	BYTE	W04
	BYTE		N03   
	BYTE	W04
	BYTE		N11     As3   v096
	BYTE	W12
	BYTE		N03     As3   v092
	BYTE	W04
	BYTE		        As3   v080
	BYTE	W04
	BYTE		N03   
	BYTE	W04
	BYTE		N11     Dn4   v100
	BYTE	W12
	BYTE		        Dn4   v112
	BYTE	W12
// 004   ----------------------------------------
	BYTE		        Cn4   v104
	BYTE	W12
	BYTE		N03   
	BYTE	W04
	BYTE		        Cn4   v092
	BYTE	W04
	BYTE		N03   
	BYTE	W04
	BYTE		N11     Dn4   v108
	BYTE	W12
	BYTE		N03   
	BYTE	W04
	BYTE		        Dn4   v092
	BYTE	W04
	BYTE		N03   
	BYTE	W04
	BYTE		N11     Ds4   v112
	BYTE	W12
	BYTE		N03   
	BYTE	W04
	BYTE		        Ds4   v096
	BYTE	W04
	BYTE		N03   
	BYTE	W04
	BYTE		N11     Fn4   v120
	BYTE	W12
	BYTE		        As3   v104
	BYTE	W12
// 005   ----------------------------------------
	BYTE		VOL     118*FE03MainThemeSme_mvl/mxv
	BYTE	W48
	BYTE		VOICE   58
	BYTE		VOL     85*FE03MainThemeSme_mvl/mxv
	BYTE	W48
// 006   ----------------------------------------
	BYTE	W96
// 007   ----------------------------------------
	BYTE		VOICE   57
	BYTE	W01
	BYTE		N23   
	BYTE	W24
	BYTE		N11     Ds4 
	BYTE	W12
	BYTE		        Gn4   v108
	BYTE	W12
	BYTE		N23     Gn4   v112
	BYTE	W24
	BYTE		        Cn4   v108
	BYTE	W23
// 008   ----------------------------------------
FE03MainThemeSme_6_008:
	BYTE	W01
	BYTE		N28     Cn4   v100
	BYTE	W30
	BYTE		N05     Dn4   v104
	BYTE	W06
	BYTE		        Ds4   v096
	BYTE	W06
	BYTE		        Fn4 
	BYTE	W06
	BYTE		N23     Ds4   v108
	BYTE	W24
	BYTE		        Dn4   v104
	BYTE	W23
	BYTE	PEND
// 009   ----------------------------------------
FE03MainThemeSme_6_009:
	BYTE	W01
	BYTE		N23     As3   v104
	BYTE	W24
	BYTE		N11     Ds4   v108
	BYTE	W12
	BYTE		        Gn4   v112
	BYTE	W12
	BYTE		N23     As4   v116
	BYTE	W24
	BYTE		N11     Gs4   v112
	BYTE	W12
	BYTE		        Gn4   v108
	BYTE	W11
	BYTE	PEND
// 010   ----------------------------------------
FE03MainThemeSme_6_010:
	BYTE	W01
	BYTE		N28     Cn4   v108
	BYTE	W30
	BYTE		N05     Dn4   v104
	BYTE	W06
	BYTE		        Ds4   v096
	BYTE	W06
	BYTE		        Fn4 
	BYTE	W06
	BYTE		N44     Fn4   v100
	BYTE	W44
	BYTE	W03
	BYTE	PEND
// 011   ----------------------------------------
FE03MainThemeSme_6_011:
	BYTE	W01
	BYTE		N23     As3   v104
	BYTE	W24
	BYTE		N11     Ds4 
	BYTE	W12
	BYTE		        Gn4   v108
	BYTE	W12
	BYTE		N23     Gn4   v112
	BYTE	W24
	BYTE		        Cn4   v108
	BYTE	W23
	BYTE	PEND
// 012   ----------------------------------------
	BYTE	PATT
	 POIN2	FE03MainThemeSme_6_008
// 013   ----------------------------------------
	BYTE	PATT
	 POIN2	FE03MainThemeSme_6_009
// 014   ----------------------------------------
FE03MainThemeSme_6_014:
	BYTE	W01
	BYTE		N28     Cn4   v108
	BYTE	W30
	BYTE		N05     Dn4   v104
	BYTE	W06
	BYTE		        Ds4   v096
	BYTE	W06
	BYTE		        Fn4 
	BYTE	W06
	BYTE		N10     Ds4   v104
	BYTE	W11
	BYTE		N12     Gn4   v127
	BYTE	W24
	BYTE	W01
	BYTE		N11     Dn4   v104
	BYTE	W11
	BYTE	PEND
// 015   ----------------------------------------
FE03MainThemeSme_6_015:
	BYTE	W01
	BYTE		N11     Cn4   v104
	BYTE	W12
	BYTE		N17     Gs4   v108
	BYTE	W18
	BYTE		N05     Fn4   v104
	BYTE	W06
	BYTE		        Ds4 
	BYTE	W06
	BYTE		        Dn4 
	BYTE	W06
	BYTE		N17     As4   v112
	BYTE	W18
	BYTE		N05     Gn4   v108
	BYTE	W06
	BYTE		N11     Ds4   v104
	BYTE	W12
	BYTE		N05   
	BYTE	W06
	BYTE		        Dn4 
	BYTE	W05
	BYTE	PEND
// 016   ----------------------------------------
FE03MainThemeSme_6_016:
	BYTE	W01
	BYTE		N11     Cn4   v104
	BYTE	W12
	BYTE		N17     Cn5   v112
	BYTE	W18
	BYTE		N05     As4 
	BYTE	W06
	BYTE		        Gs4   v108
	BYTE	W06
	BYTE		        Fn4 
	BYTE	W06
	BYTE		N44     Gn4   v104
	BYTE	W44
	BYTE	W03
	BYTE	PEND
// 017   ----------------------------------------
FE03MainThemeSme_6_017:
	BYTE	W01
	BYTE		N11     Cn4   v104
	BYTE	W12
	BYTE		N17     Gs4   v108
	BYTE	W18
	BYTE		N05     Fn4 
	BYTE	W06
	BYTE		        Ds4   v104
	BYTE	W06
	BYTE		        Dn4 
	BYTE	W06
	BYTE		N17     As4   v112
	BYTE	W18
	BYTE		N05     Gn4   v104
	BYTE	W06
	BYTE		N11     Ds5   v112
	BYTE	W12
	BYTE		N05   
	BYTE	W06
	BYTE		        Dn5 
	BYTE	W05
	BYTE	PEND
// 018   ----------------------------------------
FE03MainThemeSme_6_018:
	BYTE	W01
	BYTE		N11     Cn5   v116
	BYTE	W12
	BYTE		N17   
	BYTE	W18
	BYTE		N05     Dn5   v120
	BYTE	W06
	BYTE		        Ds5 
	BYTE	W06
	BYTE		        Fn5 
	BYTE	W06
	BYTE		N23     Ds5   v124
	BYTE	W24
	BYTE		N22     Dn5 
	BYTE	W23
	BYTE	PEND
// 019   ----------------------------------------
	BYTE	PATT
	 POIN2	FE03MainThemeSme_6_011
// 020   ----------------------------------------
	BYTE	PATT
	 POIN2	FE03MainThemeSme_6_008
// 021   ----------------------------------------
	BYTE	PATT
	 POIN2	FE03MainThemeSme_6_009
// 022   ----------------------------------------
	BYTE	PATT
	 POIN2	FE03MainThemeSme_6_010
// 023   ----------------------------------------
	BYTE	PATT
	 POIN2	FE03MainThemeSme_6_011
// 024   ----------------------------------------
	BYTE	PATT
	 POIN2	FE03MainThemeSme_6_008
// 025   ----------------------------------------
	BYTE	PATT
	 POIN2	FE03MainThemeSme_6_009
// 026   ----------------------------------------
	BYTE	PATT
	 POIN2	FE03MainThemeSme_6_014
// 027   ----------------------------------------
	BYTE	PATT
	 POIN2	FE03MainThemeSme_6_015
// 028   ----------------------------------------
	BYTE	PATT
	 POIN2	FE03MainThemeSme_6_016
// 029   ----------------------------------------
	BYTE	PATT
	 POIN2	FE03MainThemeSme_6_017
// 030   ----------------------------------------
	BYTE	PATT
	 POIN2	FE03MainThemeSme_6_018
// 031   ----------------------------------------
FE03MainThemeSme_6_031:
	BYTE	W02
	BYTE		N23     As3   v104
	BYTE	W24
	BYTE		N11     Ds4 
	BYTE	W12
	BYTE		        Gn4   v108
	BYTE	W12
	BYTE		N23     Gn4   v112
	BYTE	W24
	BYTE		        Cn4   v108
	BYTE	W22
	BYTE	PEND
// 032   ----------------------------------------
FE03MainThemeSme_6_032:
	BYTE	W02
	BYTE		N28     Cn4   v100
	BYTE	W30
	BYTE		N05     Dn4   v104
	BYTE	W06
	BYTE		        Ds4   v096
	BYTE	W06
	BYTE		        Fn4 
	BYTE	W06
	BYTE		N23     Ds4   v108
	BYTE	W24
	BYTE		        Dn4   v104
	BYTE	W22
	BYTE	PEND
// 033   ----------------------------------------
FE03MainThemeSme_6_033:
	BYTE	W02
	BYTE		N23     As3   v104
	BYTE	W24
	BYTE		N11     Ds4   v108
	BYTE	W12
	BYTE		        Gn4   v112
	BYTE	W12
	BYTE		N23     As4   v116
	BYTE	W24
	BYTE		N11     Gs4   v112
	BYTE	W12
	BYTE		        Gn4   v108
	BYTE	W10
	BYTE	PEND
// 034   ----------------------------------------
	BYTE	W02
	BYTE		N28     Cn4 
	BYTE	W30
	BYTE		N05     Dn4   v104
	BYTE	W06
	BYTE		        Ds4   v096
	BYTE	W06
	BYTE		        Fn4 
	BYTE	W06
	BYTE		N44     Fn4   v100
	BYTE	W44
	BYTE	W02
// 035   ----------------------------------------
	BYTE	PATT
	 POIN2	FE03MainThemeSme_6_031
// 036   ----------------------------------------
	BYTE	PATT
	 POIN2	FE03MainThemeSme_6_032
// 037   ----------------------------------------
	BYTE	PATT
	 POIN2	FE03MainThemeSme_6_033
// 038   ----------------------------------------
	BYTE	W02
	BYTE		N28     Cn4   v108
	BYTE	W30
	BYTE		N05     Dn4   v104
	BYTE	W06
	BYTE		        Ds4   v096
	BYTE	W06
	BYTE		        Fn4 
	BYTE	W06
	BYTE		N10     Ds4   v104
	BYTE	W11
	BYTE		N12     Gn4   v127
	BYTE	W24
	BYTE	W01
	BYTE		N11     Dn4   v104
	BYTE	W10
// 039   ----------------------------------------
	BYTE	W02
	BYTE		        Cn4 
	BYTE	W12
	BYTE		N17     Gs4   v108
	BYTE	W18
	BYTE		N05     Fn4   v104
	BYTE	W06
	BYTE		        Ds4 
	BYTE	W06
	BYTE		        Dn4 
	BYTE	W06
	BYTE		N17     As4   v112
	BYTE	W18
	BYTE		N05     Gn4   v108
	BYTE	W06
	BYTE		N11     Ds4   v104
	BYTE	W12
	BYTE		N05   
	BYTE	W06
	BYTE		        Dn4 
	BYTE	W04
// 040   ----------------------------------------
	BYTE	W02
	BYTE		N11     Cn4 
	BYTE	W12
	BYTE		N17     Cn5   v112
	BYTE	W18
	BYTE		N05     As4 
	BYTE	W06
	BYTE		        Gs4   v108
	BYTE	W06
	BYTE		        Fn4 
	BYTE	W06
	BYTE		N44     Gn4   v104
	BYTE	W44
	BYTE	W02
// 041   ----------------------------------------
	BYTE	W02
	BYTE		N11     Cn4 
	BYTE	W12
	BYTE		N17     Gs4   v108
	BYTE	W18
	BYTE		N05     Fn4 
	BYTE	W06
	BYTE		        Ds4   v104
	BYTE	W06
	BYTE		        Dn4 
	BYTE	W06
	BYTE		N17     As4   v112
	BYTE	W18
	BYTE		N05     Gn4   v104
	BYTE	W06
	BYTE		N11     Ds5   v112
	BYTE	W12
	BYTE		N05   
	BYTE	W06
	BYTE		        Dn5 
	BYTE	W04
// 042   ----------------------------------------
	BYTE	W02
	BYTE		N11     Cn5   v116
	BYTE	W12
	BYTE		N17   
	BYTE	W18
	BYTE		N05     Dn5   v120
	BYTE	W06
	BYTE		        Ds5 
	BYTE	W06
	BYTE		        Fn5 
	BYTE	W06
	BYTE		N23     Ds5   v124
	BYTE	W24
	BYTE		N22     Dn5 
	BYTE	W22
// 043   ----------------------------------------
	BYTE	W01
	BYTE		VOICE   62
	BYTE		VOL     108*FE03MainThemeSme_mvl/mxv
	BYTE		PAN     c_v-25
	BYTE		N23     Gn2   v104
	BYTE	W02
	BYTE		VOICE   42
	BYTE	W22
	BYTE		N11     As2 
	BYTE	W12
	BYTE		        Ds3 
	BYTE	W12
	BYTE		N17     Ds3   v108
	BYTE	W18
	BYTE		N05     Fn3 
	BYTE	W06
	BYTE		N32     Cs3   v104
	BYTE	W23
// 044   ----------------------------------------
	BYTE	W13
	BYTE		N11     Ds3   v108
	BYTE	W12
	BYTE		        As2 
	BYTE	W12
	BYTE		        Gn2 
	BYTE	W12
	BYTE		N17     Cs3   v112
	BYTE	W18
	BYTE		N05   
	BYTE	W06
	BYTE		N32   
	BYTE	W23
// 045   ----------------------------------------
	BYTE	W13
	BYTE		N11     Gs2   v108
	BYTE	W12
	BYTE		        Gs3   v116
	BYTE	W12
	BYTE		N05     Gs3   v112
	BYTE	W06
	BYTE		        Ds3 
	BYTE	W06
	BYTE		N23     Gn3   v120
	BYTE	W24
	BYTE		N11     Ds3   v116
	BYTE	W12
	BYTE		        As2   v112
	BYTE	W11
// 046   ----------------------------------------
	BYTE	W01
	BYTE		        Gs2   v108
	BYTE	W12
	BYTE		        Ds3   v112
	BYTE	W12
	BYTE		        Dn3 
	BYTE	W12
	BYTE		        Gs2 
	BYTE	W12
	BYTE		N17     As2   v108
	BYTE	W18
	BYTE		N05   
	BYTE	W06
	BYTE		N23     As2   v104
	BYTE	W23
// 047   ----------------------------------------
	BYTE	W01
	BYTE		VOL     68*FE03MainThemeSme_mvl/mxv
	BYTE		N44     Ds3 
	BYTE	W48
	BYTE		        Fn3 
	BYTE	W44
	BYTE	W03
// 048   ----------------------------------------
	BYTE	W01
	BYTE		        Ds3 
	BYTE	W48
	BYTE		        Fn3 
	BYTE	W44
	BYTE	W03
// 049   ----------------------------------------
	BYTE	W01
	BYTE		        Ds3 
	BYTE	W07
	BYTE		VOL     69*FE03MainThemeSme_mvl/mxv
	BYTE	W14
	BYTE		        70*FE03MainThemeSme_mvl/mxv
	BYTE	W13
	BYTE		        71*FE03MainThemeSme_mvl/mxv
	BYTE	W14
	BYTE		        72*FE03MainThemeSme_mvl/mxv
	BYTE		N44     Fn3 
	BYTE	W14
	BYTE		VOL     73*FE03MainThemeSme_mvl/mxv
	BYTE	W13
	BYTE		        74*FE03MainThemeSme_mvl/mxv
	BYTE	W14
	BYTE		        75*FE03MainThemeSme_mvl/mxv
	BYTE	W06
// 050   ----------------------------------------
	BYTE	W01
	BYTE		N44   
	BYTE	W06
	BYTE		VOL     76*FE03MainThemeSme_mvl/mxv
	BYTE	W12
	BYTE		        77*FE03MainThemeSme_mvl/mxv
	BYTE	W12
	BYTE		        78*FE03MainThemeSme_mvl/mxv
	BYTE	W12
	BYTE		        79*FE03MainThemeSme_mvl/mxv
	BYTE	W06
	BYTE		N44     Gn3 
	BYTE	W06
	BYTE		VOL     80*FE03MainThemeSme_mvl/mxv
	BYTE	W12
	BYTE		        81*FE03MainThemeSme_mvl/mxv
	BYTE	W12
	BYTE		        82*FE03MainThemeSme_mvl/mxv
	BYTE	W12
	BYTE		        83*FE03MainThemeSme_mvl/mxv
	BYTE	W05
// 051   ----------------------------------------
	BYTE	W01
	BYTE		N44     Fn3 
	BYTE	W07
	BYTE		VOL     84*FE03MainThemeSme_mvl/mxv
	BYTE	W14
	BYTE		        85*FE03MainThemeSme_mvl/mxv
	BYTE	W13
	BYTE		        86*FE03MainThemeSme_mvl/mxv
	BYTE	W14
	BYTE		        87*FE03MainThemeSme_mvl/mxv
	BYTE		N44     Ds3 
	BYTE	W14
	BYTE		VOL     88*FE03MainThemeSme_mvl/mxv
	BYTE	W13
	BYTE		        89*FE03MainThemeSme_mvl/mxv
	BYTE	W14
	BYTE		        90*FE03MainThemeSme_mvl/mxv
	BYTE	W06
// 052   ----------------------------------------
	BYTE	W01
	BYTE		TIE     Fn3 
	BYTE	W06
	BYTE		VOL     91*FE03MainThemeSme_mvl/mxv
	BYTE	W12
	BYTE		        92*FE03MainThemeSme_mvl/mxv
	BYTE	W12
	BYTE		        93*FE03MainThemeSme_mvl/mxv
	BYTE	W12
	BYTE		        94*FE03MainThemeSme_mvl/mxv
	BYTE	W12
	BYTE		        95*FE03MainThemeSme_mvl/mxv
	BYTE	W12
	BYTE		        96*FE03MainThemeSme_mvl/mxv
	BYTE	W12
	BYTE		        97*FE03MainThemeSme_mvl/mxv
	BYTE	W12
	BYTE		        98*FE03MainThemeSme_mvl/mxv
	BYTE	W05
// 053   ----------------------------------------
	BYTE	W24
	BYTE		EOT   
	BYTE	FINE

//**************** Track 7 (Midi-Chn.7) ****************//

FE03MainThemeSme_7:
	BYTE	KEYSH   FE03MainThemeSme_key+0
// 000   ----------------------------------------
	BYTE		VOICE   45
	BYTE		VOL     100*FE03MainThemeSme_mvl/mxv
	BYTE		PAN     c_v+43
	BYTE	W60
	BYTE		N11     As3   v104
	BYTE	W12
	BYTE		        Ds4 
	BYTE	W12
	BYTE		        Gn4 
	BYTE	W12
// 001   ----------------------------------------
	BYTE		N32     As4   v096
	BYTE	W36
	BYTE		N03     As4   v108
	BYTE	W04
	BYTE		        Cn5   v096
	BYTE	W04
	BYTE		        As4 
	BYTE	W04
	BYTE		N44     Gs4   v104
	BYTE	W48
// 002   ----------------------------------------
	BYTE		N32     Bn4   v092
	BYTE	W36
	BYTE		N03     Bn4   v108
	BYTE	W04
	BYTE		        As4   v096
	BYTE	W04
	BYTE		        Gs4 
	BYTE	W04
	BYTE		N23     As4   v104
	BYTE	W24
	BYTE		        Gn4 
	BYTE	W24
// 003   ----------------------------------------
	BYTE		N05     Fn3   v092
	BYTE	W12
	BYTE		N02     Fn3   v088
	BYTE	W04
	BYTE		        Fn3   v076
	BYTE	W04
	BYTE		N02   
	BYTE	W04
	BYTE		N05     Gn3   v096
	BYTE	W12
	BYTE		N02     Gn3   v092
	BYTE	W04
	BYTE		        Gn3   v076
	BYTE	W04
	BYTE		N02   
	BYTE	W04
	BYTE		N05     Gs3   v096
	BYTE	W12
	BYTE		N02     Gs3   v092
	BYTE	W04
	BYTE		        Gs3   v080
	BYTE	W04
	BYTE		N02   
	BYTE	W04
	BYTE		N05     As3   v100
	BYTE	W12
	BYTE		N10     As3   v112
	BYTE	W12
// 004   ----------------------------------------
	BYTE		N05     Fn3   v108
	BYTE	W12
	BYTE		N02     Fn3   v104
	BYTE	W04
	BYTE		        Fn3   v092
	BYTE	W04
	BYTE		N02   
	BYTE	W04
	BYTE		N05     Gn3   v112
	BYTE	W12
	BYTE		N02     Gn3   v104
	BYTE	W04
	BYTE		        Gn3   v092
	BYTE	W04
	BYTE		N02   
	BYTE	W04
	BYTE		N05     Gs3   v112
	BYTE	W12
	BYTE		N02     Gs3   v108
	BYTE	W04
	BYTE		        Gs3   v096
	BYTE	W04
	BYTE		N02   
	BYTE	W04
	BYTE		N09     As3   v112
	BYTE	W12
	BYTE		N11     As2   v104
	BYTE	W12
// 005   ----------------------------------------
	BYTE	W96
// 006   ----------------------------------------
	BYTE	W96
// 007   ----------------------------------------
	BYTE		VOICE   46
	BYTE		PAN     c_v+0
	BYTE		VOL     79*FE03MainThemeSme_mvl/mxv
	BYTE		        100*FE03MainThemeSme_mvl/mxv
	BYTE		N05     Ds3 
	BYTE	W06
	BYTE		        Ds4   v092
	BYTE	W12
	BYTE		N05   
	BYTE	W06
	BYTE		        Ds3   v104
	BYTE	W06
	BYTE		        Ds4   v092
	BYTE	W06
	BYTE		        Ds3   v104
	BYTE	W06
	BYTE		        Ds4   v092
	BYTE	W06
	BYTE		        Gs3   v104
	BYTE	W06
	BYTE		        Gs4   v092
	BYTE	W12
	BYTE		N05   
	BYTE	W06
	BYTE		        Gs3   v104
	BYTE	W06
	BYTE		        Gs4   v092
	BYTE	W06
	BYTE		        Gs3   v104
	BYTE	W06
	BYTE		        Gs4   v092
	BYTE	W06
// 008   ----------------------------------------
FE03MainThemeSme_7_008:
	BYTE		N05     Fn3   v104
	BYTE	W06
	BYTE		        Fn4   v092
	BYTE	W12
	BYTE		N05   
	BYTE	W06
	BYTE		        Fn3   v104
	BYTE	W06
	BYTE		        Fn4   v092
	BYTE	W06
	BYTE		        Fn3   v104
	BYTE	W06
	BYTE		        Fn4   v092
	BYTE	W06
	BYTE		        As3   v104
	BYTE	W06
	BYTE		        As4   v092
	BYTE	W12
	BYTE		N05   
	BYTE	W06
	BYTE		        As3   v104
	BYTE	W06
	BYTE		        As4   v092
	BYTE	W06
	BYTE		        As3   v104
	BYTE	W06
	BYTE		        As4   v092
	BYTE	W06
	BYTE	PEND
// 009   ----------------------------------------
FE03MainThemeSme_7_009:
	BYTE		N05     Ds3   v104
	BYTE	W06
	BYTE		        Ds4   v092
	BYTE	W12
	BYTE		N05   
	BYTE	W06
	BYTE		        Ds3   v104
	BYTE	W06
	BYTE		        Ds4   v092
	BYTE	W06
	BYTE		        Ds3   v104
	BYTE	W06
	BYTE		        Ds4   v092
	BYTE	W06
	BYTE		        Gs3   v104
	BYTE	W06
	BYTE		        Gs4   v092
	BYTE	W12
	BYTE		N05   
	BYTE	W06
	BYTE		        Gs3   v104
	BYTE	W06
	BYTE		        Gs4   v092
	BYTE	W06
	BYTE		        Gs3   v104
	BYTE	W06
	BYTE		        Gs4   v092
	BYTE	W06
	BYTE	PEND
// 010   ----------------------------------------
	BYTE	PATT
	 POIN2	FE03MainThemeSme_7_008
// 011   ----------------------------------------
	BYTE	PATT
	 POIN2	FE03MainThemeSme_7_009
// 012   ----------------------------------------
FE03MainThemeSme_7_012:
	BYTE		N05     Fn3   v104
	BYTE	W06
	BYTE		        Fn4   v092
	BYTE	W12
	BYTE		N05   
	BYTE	W06
	BYTE		        Fn3   v104
	BYTE	W06
	BYTE		        Fn4   v092
	BYTE	W06
	BYTE		        Fn3   v104
	BYTE	W06
	BYTE		        Fn4   v092
	BYTE	W06
	BYTE		        As3   v104
	BYTE	W06
	BYTE		        As4   v092
	BYTE	W12
	BYTE		N05   
	BYTE	W06
	BYTE		        As3   v104
	BYTE	W06
	BYTE		        As4   v092
	BYTE	W06
	BYTE		        Gs3   v104
	BYTE	W06
	BYTE		        Gs4   v092
	BYTE	W06
	BYTE	PEND
// 013   ----------------------------------------
FE03MainThemeSme_7_013:
	BYTE		N05     Gn3   v104
	BYTE	W06
	BYTE		        Gn4   v092
	BYTE	W12
	BYTE		N05   
	BYTE	W06
	BYTE		        Gn3   v104
	BYTE	W06
	BYTE		        Gn4   v092
	BYTE	W06
	BYTE		        Gn3   v104
	BYTE	W06
	BYTE		        Gn4   v092
	BYTE	W06
	BYTE		        Cn4   v104
	BYTE	W06
	BYTE		        Cn5   v092
	BYTE	W12
	BYTE		N05   
	BYTE	W06
	BYTE		        Cn4   v104
	BYTE	W06
	BYTE		        Cn5   v092
	BYTE	W06
	BYTE		        Cn4   v104
	BYTE	W06
	BYTE		        Cn5   v092
	BYTE	W06
	BYTE	PEND
// 014   ----------------------------------------
FE03MainThemeSme_7_014:
	BYTE		N05     Fn3   v104
	BYTE	W06
	BYTE		        Fn4   v092
	BYTE	W12
	BYTE		N05   
	BYTE	W06
	BYTE		        As3   v104
	BYTE	W06
	BYTE		        As4   v092
	BYTE	W06
	BYTE		        As3   v104
	BYTE	W06
	BYTE		        As4   v092
	BYTE	W06
	BYTE		        Ds3   v104
	BYTE	W06
	BYTE		        Ds4   v092
	BYTE	W06
	BYTE		N11     Ds3   v127
	BYTE	W24
	BYTE		N05     Ds3   v104
	BYTE	W06
	BYTE		        Ds4   v092
	BYTE	W06
	BYTE	PEND
// 015   ----------------------------------------
FE03MainThemeSme_7_015:
	BYTE		N05     Fn3   v104
	BYTE	W06
	BYTE		        Fn4   v092
	BYTE	W06
	BYTE		        Fn3   v104
	BYTE	W06
	BYTE		        Fn4   v092
	BYTE	W06
	BYTE		        As3   v104
	BYTE	W06
	BYTE		        As4   v092
	BYTE	W06
	BYTE		        As3   v104
	BYTE	W06
	BYTE		        As4   v092
	BYTE	W06
	BYTE		        Gn3   v104
	BYTE	W06
	BYTE		        Gn4   v092
	BYTE	W06
	BYTE		        Gn3   v104
	BYTE	W06
	BYTE		        Gn4   v092
	BYTE	W06
	BYTE		        Cn4   v104
	BYTE	W06
	BYTE		        Cn5   v092
	BYTE	W06
	BYTE		        As3   v104
	BYTE	W06
	BYTE		        As4   v092
	BYTE	W06
	BYTE	PEND
// 016   ----------------------------------------
FE03MainThemeSme_7_016:
	BYTE		N05     Gs3   v104
	BYTE	W06
	BYTE		        Gs4   v092
	BYTE	W06
	BYTE		        Gs3   v104
	BYTE	W06
	BYTE		        Gs4   v092
	BYTE	W06
	BYTE		        As3   v104
	BYTE	W06
	BYTE		        As4   v092
	BYTE	W06
	BYTE		        As3   v104
	BYTE	W06
	BYTE		        As4   v092
	BYTE	W06
	BYTE		        Gn3   v104
	BYTE	W06
	BYTE		        Gn4   v092
	BYTE	W06
	BYTE		        Dn4   v104
	BYTE	W06
	BYTE		        Dn5   v092
	BYTE	W06
	BYTE		        Bn3   v104
	BYTE	W06
	BYTE		        Bn4   v092
	BYTE	W06
	BYTE		        Gn3   v104
	BYTE	W06
	BYTE		        Gn4   v092
	BYTE	W06
	BYTE	PEND
// 017   ----------------------------------------
FE03MainThemeSme_7_017:
	BYTE		N05     Gs3   v104
	BYTE	W06
	BYTE		        Gs4   v092
	BYTE	W06
	BYTE		        Gs3   v104
	BYTE	W06
	BYTE		        Gs4   v092
	BYTE	W06
	BYTE		        As3   v104
	BYTE	W06
	BYTE		        As4   v092
	BYTE	W06
	BYTE		        As3   v104
	BYTE	W06
	BYTE		        As4   v092
	BYTE	W06
	BYTE		        Gn3   v104
	BYTE	W06
	BYTE		        Gn4   v092
	BYTE	W06
	BYTE		        Gn3   v104
	BYTE	W06
	BYTE		        Gn4   v092
	BYTE	W06
	BYTE		        Cn4   v104
	BYTE	W06
	BYTE		        Cn5   v092
	BYTE	W06
	BYTE		        As3   v104
	BYTE	W06
	BYTE		        As4   v092
	BYTE	W06
	BYTE	PEND
// 018   ----------------------------------------
FE03MainThemeSme_7_018:
	BYTE		N05     Gs3   v104
	BYTE	W06
	BYTE		        Gs4   v092
	BYTE	W06
	BYTE		        Gs3   v104
	BYTE	W06
	BYTE		        Gs4   v092
	BYTE	W06
	BYTE		        An3   v104
	BYTE	W06
	BYTE		        An4   v092
	BYTE	W06
	BYTE		        An3   v104
	BYTE	W06
	BYTE		        An4   v092
	BYTE	W06
	BYTE		        As3   v104
	BYTE	W06
	BYTE		        As4   v092
	BYTE	W12
	BYTE		N05   
	BYTE	W06
	BYTE		        As3   v104
	BYTE	W06
	BYTE		        As4   v092
	BYTE	W06
	BYTE		        As3   v104
	BYTE	W06
	BYTE		        As4   v092
	BYTE	W06
	BYTE	PEND
// 019   ----------------------------------------
	BYTE	PATT
	 POIN2	FE03MainThemeSme_7_009
// 020   ----------------------------------------
	BYTE	PATT
	 POIN2	FE03MainThemeSme_7_008
// 021   ----------------------------------------
	BYTE	PATT
	 POIN2	FE03MainThemeSme_7_009
// 022   ----------------------------------------
	BYTE	PATT
	 POIN2	FE03MainThemeSme_7_008
// 023   ----------------------------------------
	BYTE	PATT
	 POIN2	FE03MainThemeSme_7_009
// 024   ----------------------------------------
	BYTE	PATT
	 POIN2	FE03MainThemeSme_7_012
// 025   ----------------------------------------
	BYTE	PATT
	 POIN2	FE03MainThemeSme_7_013
// 026   ----------------------------------------
	BYTE	PATT
	 POIN2	FE03MainThemeSme_7_014
// 027   ----------------------------------------
	BYTE	PATT
	 POIN2	FE03MainThemeSme_7_015
// 028   ----------------------------------------
	BYTE	PATT
	 POIN2	FE03MainThemeSme_7_016
// 029   ----------------------------------------
	BYTE	PATT
	 POIN2	FE03MainThemeSme_7_017
// 030   ----------------------------------------
	BYTE	PATT
	 POIN2	FE03MainThemeSme_7_018
// 031   ----------------------------------------
FE03MainThemeSme_7_031:
	BYTE	W01
	BYTE		N05     Ds3   v104
	BYTE	W06
	BYTE		        Ds4   v092
	BYTE	W12
	BYTE		N05   
	BYTE	W06
	BYTE		        Ds3   v104
	BYTE	W06
	BYTE		        Ds4   v092
	BYTE	W06
	BYTE		        Ds3   v104
	BYTE	W06
	BYTE		        Ds4   v092
	BYTE	W06
	BYTE		        Gs3   v104
	BYTE	W06
	BYTE		        Gs4   v092
	BYTE	W12
	BYTE		N05   
	BYTE	W06
	BYTE		        Gs3   v104
	BYTE	W06
	BYTE		        Gs4   v092
	BYTE	W06
	BYTE		        Gs3   v104
	BYTE	W06
	BYTE		        Gs4   v092
	BYTE	W05
	BYTE	PEND
// 032   ----------------------------------------
FE03MainThemeSme_7_032:
	BYTE	W01
	BYTE		N05     Fn3   v104
	BYTE	W06
	BYTE		        Fn4   v092
	BYTE	W12
	BYTE		N05   
	BYTE	W06
	BYTE		        Fn3   v104
	BYTE	W06
	BYTE		        Fn4   v092
	BYTE	W06
	BYTE		        Fn3   v104
	BYTE	W06
	BYTE		        Fn4   v092
	BYTE	W06
	BYTE		        As3   v104
	BYTE	W06
	BYTE		        As4   v092
	BYTE	W12
	BYTE		N05   
	BYTE	W06
	BYTE		        As3   v104
	BYTE	W06
	BYTE		        As4   v092
	BYTE	W06
	BYTE		        As3   v104
	BYTE	W06
	BYTE		        As4   v092
	BYTE	W05
	BYTE	PEND
// 033   ----------------------------------------
	BYTE	PATT
	 POIN2	FE03MainThemeSme_7_031
// 034   ----------------------------------------
	BYTE	PATT
	 POIN2	FE03MainThemeSme_7_032
// 035   ----------------------------------------
	BYTE	PATT
	 POIN2	FE03MainThemeSme_7_031
// 036   ----------------------------------------
	BYTE	W01
	BYTE		N05     Fn3   v104
	BYTE	W06
	BYTE		        Fn4   v092
	BYTE	W12
	BYTE		N05   
	BYTE	W06
	BYTE		        Fn3   v104
	BYTE	W06
	BYTE		        Fn4   v092
	BYTE	W06
	BYTE		        Fn3   v104
	BYTE	W06
	BYTE		        Fn4   v092
	BYTE	W06
	BYTE		        As3   v104
	BYTE	W06
	BYTE		        As4   v092
	BYTE	W12
	BYTE		N05   
	BYTE	W06
	BYTE		        As3   v104
	BYTE	W06
	BYTE		        As4   v092
	BYTE	W06
	BYTE		        Gs3   v104
	BYTE	W06
	BYTE		        Gs4   v092
	BYTE	W05
// 037   ----------------------------------------
	BYTE	W01
	BYTE		        Gn3   v104
	BYTE	W06
	BYTE		        Gn4   v092
	BYTE	W12
	BYTE		N05   
	BYTE	W06
	BYTE		        Gn3   v104
	BYTE	W06
	BYTE		        Gn4   v092
	BYTE	W06
	BYTE		        Gn3   v104
	BYTE	W06
	BYTE		        Gn4   v092
	BYTE	W06
	BYTE		        Cn4   v104
	BYTE	W06
	BYTE		        Cn5   v092
	BYTE	W12
	BYTE		N05   
	BYTE	W06
	BYTE		        Cn4   v104
	BYTE	W06
	BYTE		        Cn5   v092
	BYTE	W06
	BYTE		        Cn4   v104
	BYTE	W06
	BYTE		        Cn5   v092
	BYTE	W05
// 038   ----------------------------------------
	BYTE	W01
	BYTE		        Fn3   v104
	BYTE	W06
	BYTE		        Fn4   v092
	BYTE	W12
	BYTE		N05   
	BYTE	W06
	BYTE		        As3   v104
	BYTE	W06
	BYTE		        As4   v092
	BYTE	W06
	BYTE		        As3   v104
	BYTE	W06
	BYTE		        As4   v092
	BYTE	W06
	BYTE		        Ds3   v104
	BYTE	W06
	BYTE		        Ds4   v092
	BYTE	W06
	BYTE		N11     Ds3   v127
	BYTE	W24
	BYTE		N05     Ds3   v104
	BYTE	W06
	BYTE		        Ds4   v092
	BYTE	W05
// 039   ----------------------------------------
	BYTE	W01
	BYTE		        Fn3   v104
	BYTE	W06
	BYTE		        Fn4   v092
	BYTE	W06
	BYTE		        Fn3   v104
	BYTE	W06
	BYTE		        Fn4   v092
	BYTE	W06
	BYTE		        As3   v104
	BYTE	W06
	BYTE		        As4   v092
	BYTE	W06
	BYTE		        As3   v104
	BYTE	W06
	BYTE		        As4   v092
	BYTE	W06
	BYTE		        Gn3   v104
	BYTE	W06
	BYTE		        Gn4   v092
	BYTE	W06
	BYTE		        Gn3   v104
	BYTE	W06
	BYTE		        Gn4   v092
	BYTE	W06
	BYTE		        Cn4   v104
	BYTE	W06
	BYTE		        Cn5   v092
	BYTE	W06
	BYTE		        As3   v104
	BYTE	W06
	BYTE		        As4   v092
	BYTE	W05
// 040   ----------------------------------------
	BYTE	W01
	BYTE		        Gs3   v104
	BYTE	W06
	BYTE		        Gs4   v092
	BYTE	W06
	BYTE		        Gs3   v104
	BYTE	W06
	BYTE		        Gs4   v092
	BYTE	W06
	BYTE		        As3   v104
	BYTE	W06
	BYTE		        As4   v092
	BYTE	W06
	BYTE		        As3   v104
	BYTE	W06
	BYTE		        As4   v092
	BYTE	W06
	BYTE		        Gn3   v104
	BYTE	W06
	BYTE		        Gn4   v092
	BYTE	W06
	BYTE		        Dn4   v104
	BYTE	W06
	BYTE		        Dn5   v092
	BYTE	W06
	BYTE		        Bn3   v104
	BYTE	W06
	BYTE		        Bn4   v092
	BYTE	W06
	BYTE		        Gn3   v104
	BYTE	W06
	BYTE		        Gn4   v092
	BYTE	W05
// 041   ----------------------------------------
	BYTE	W01
	BYTE		        Gs3   v104
	BYTE	W06
	BYTE		        Gs4   v092
	BYTE	W06
	BYTE		        Gs3   v104
	BYTE	W06
	BYTE		        Gs4   v092
	BYTE	W06
	BYTE		        As3   v104
	BYTE	W06
	BYTE		        As4   v092
	BYTE	W06
	BYTE		        As3   v104
	BYTE	W06
	BYTE		        As4   v092
	BYTE	W06
	BYTE		        Gn3   v104
	BYTE	W06
	BYTE		        Gn4   v092
	BYTE	W06
	BYTE		        Gn3   v104
	BYTE	W06
	BYTE		        Gn4   v092
	BYTE	W06
	BYTE		        Cn4   v104
	BYTE	W06
	BYTE		        Cn5   v092
	BYTE	W06
	BYTE		        As3   v104
	BYTE	W06
	BYTE		        As4   v092
	BYTE	W05
// 042   ----------------------------------------
	BYTE	W01
	BYTE		        Gs3   v104
	BYTE	W06
	BYTE		        Gs4   v092
	BYTE	W06
	BYTE		        Gs3   v104
	BYTE	W06
	BYTE		        Gs4   v092
	BYTE	W06
	BYTE		        An3   v104
	BYTE	W06
	BYTE		        An4   v092
	BYTE	W06
	BYTE		        An3   v104
	BYTE	W06
	BYTE		        An4   v092
	BYTE	W06
	BYTE		        As3   v104
	BYTE	W06
	BYTE		        As4   v092
	BYTE	W12
	BYTE		N05   
	BYTE	W06
	BYTE		        As3   v104
	BYTE	W06
	BYTE		        As4   v092
	BYTE	W06
	BYTE		        As3   v104
	BYTE	W06
	BYTE		        As4   v092
	BYTE	W05
// 043   ----------------------------------------
	BYTE	W01
	BYTE		N23     Ds3   v104
	BYTE	W02
	BYTE		VOICE   33
	BYTE	W22
	BYTE		N11   
	BYTE	W12
	BYTE		N11   
	BYTE	W12
	BYTE		N17     Cs3 
	BYTE	W18
	BYTE		N05   
	BYTE	W06
	BYTE		N23   
	BYTE	W23
// 044   ----------------------------------------
	BYTE	W01
	BYTE		N11     Ds3 
	BYTE	W12
	BYTE		N11   
	BYTE	W12
	BYTE		N11   
	BYTE	W12
	BYTE		N11   
	BYTE	W12
	BYTE		N17     Cs3 
	BYTE	W18
	BYTE		N05   
	BYTE	W06
	BYTE		N17   
	BYTE	W18
	BYTE		N02     Cn3 
	BYTE	W03
	BYTE		        As2 
	BYTE	W02
// 045   ----------------------------------------
	BYTE	W01
	BYTE		N11     Gs2 
	BYTE	W12
	BYTE		N11   
	BYTE	W12
	BYTE		N11   
	BYTE	W12
	BYTE		N11   
	BYTE	W12
	BYTE		        Ds3 
	BYTE	W12
	BYTE		N11   
	BYTE	W12
	BYTE		N11   
	BYTE	W12
	BYTE		N11   
	BYTE	W11
// 046   ----------------------------------------
	BYTE	W01
	BYTE		        Fn3 
	BYTE	W12
	BYTE		N11   
	BYTE	W12
	BYTE		        As2 
	BYTE	W12
	BYTE		N11   
	BYTE	W12
	BYTE		N17     Ds3 
	BYTE	W18
	BYTE		N05   
	BYTE	W06
	BYTE		N23   
	BYTE	W23
// 047   ----------------------------------------
	BYTE	W01
	BYTE		VOL     75*FE03MainThemeSme_mvl/mxv
	BYTE		N05     Ds3   v096
	BYTE	W06
	BYTE		N11     Ds3   v104
	BYTE	W12
	BYTE		N05   
	BYTE	W06
	BYTE		        Ds3   v096
	BYTE	W06
	BYTE		N11     Ds3   v104
	BYTE	W12
	BYTE		N05   
	BYTE	W06
	BYTE		        Ds3   v096
	BYTE	W06
	BYTE		N11     Ds3   v104
	BYTE	W12
	BYTE		N05   
	BYTE	W06
	BYTE		        Ds3   v096
	BYTE	W06
	BYTE		N11     Ds3   v104
	BYTE	W12
	BYTE		N05   
	BYTE	W05
// 048   ----------------------------------------
FE03MainThemeSme_7_048:
	BYTE	W01
	BYTE		N05     Ds3   v096
	BYTE	W06
	BYTE		N11     Ds3   v104
	BYTE	W12
	BYTE		N05   
	BYTE	W06
	BYTE		        Ds3   v096
	BYTE	W06
	BYTE		N11     Ds3   v104
	BYTE	W12
	BYTE		N05   
	BYTE	W06
	BYTE		        Ds3   v096
	BYTE	W06
	BYTE		N11     Ds3   v104
	BYTE	W12
	BYTE		N05   
	BYTE	W06
	BYTE		        Ds3   v096
	BYTE	W06
	BYTE		N11     Ds3   v104
	BYTE	W12
	BYTE		N05   
	BYTE	W05
	BYTE	PEND
// 049   ----------------------------------------
	BYTE	PATT
	 POIN2	FE03MainThemeSme_7_048
// 050   ----------------------------------------
	BYTE	W01
	BYTE		N05     Dn3   v096
	BYTE	W06
	BYTE		N11     Dn3   v104
	BYTE	W12
	BYTE		N05   
	BYTE	W06
	BYTE		        Dn3   v096
	BYTE	W06
	BYTE		N11     Dn3   v104
	BYTE	W12
	BYTE		N05   
	BYTE	W06
	BYTE		        Ds3   v096
	BYTE	W06
	BYTE		N11     Ds3   v104
	BYTE	W12
	BYTE		N05   
	BYTE	W06
	BYTE		        Ds3   v096
	BYTE	W06
	BYTE		N11     Ds3   v104
	BYTE	W12
	BYTE		N05   
	BYTE	W05
// 051   ----------------------------------------
	BYTE	W01
	BYTE		        Fn3   v096
	BYTE	W05
	BYTE		VOL     76*FE03MainThemeSme_mvl/mxv
	BYTE	W01
	BYTE		N11     Fn3   v104
	BYTE	W08
	BYTE		VOL     77*FE03MainThemeSme_mvl/mxv
	BYTE	W04
	BYTE		N05   
	BYTE	W06
	BYTE		VOL     78*FE03MainThemeSme_mvl/mxv
	BYTE		N05     Fn3   v096
	BYTE	W06
	BYTE		N11     Fn3   v104
	BYTE	W04
	BYTE		VOL     79*FE03MainThemeSme_mvl/mxv
	BYTE	W08
	BYTE		N05   
	BYTE	W01
	BYTE		VOL     80*FE03MainThemeSme_mvl/mxv
	BYTE	W05
	BYTE		N05     Fn3   v096
	BYTE	W05
	BYTE		VOL     81*FE03MainThemeSme_mvl/mxv
	BYTE	W01
	BYTE		N11     Fn3   v104
	BYTE	W08
	BYTE		VOL     82*FE03MainThemeSme_mvl/mxv
	BYTE	W04
	BYTE		N05   
	BYTE	W06
	BYTE		VOL     83*FE03MainThemeSme_mvl/mxv
	BYTE		N05     Fn3   v096
	BYTE	W06
	BYTE		N11     Fn3   v104
	BYTE	W04
	BYTE		VOL     84*FE03MainThemeSme_mvl/mxv
	BYTE	W08
	BYTE		N05   
	BYTE	W01
	BYTE		VOL     85*FE03MainThemeSme_mvl/mxv
	BYTE	W04
// 052   ----------------------------------------
	BYTE	W01
	BYTE		N05     As3   v096
	BYTE	W05
	BYTE		VOL     86*FE03MainThemeSme_mvl/mxv
	BYTE	W01
	BYTE		N11     As3   v104
	BYTE	W08
	BYTE		VOL     87*FE03MainThemeSme_mvl/mxv
	BYTE	W04
	BYTE		N05   
	BYTE	W06
	BYTE		VOL     88*FE03MainThemeSme_mvl/mxv
	BYTE		N05     As3   v096
	BYTE	W06
	BYTE		N11     As3   v104
	BYTE	W04
	BYTE		VOL     89*FE03MainThemeSme_mvl/mxv
	BYTE	W08
	BYTE		N05   
	BYTE	W01
	BYTE		VOL     90*FE03MainThemeSme_mvl/mxv
	BYTE	W05
	BYTE		N68   
	BYTE	W05
	BYTE		VOL     91*FE03MainThemeSme_mvl/mxv
	BYTE	W09
	BYTE		        92*FE03MainThemeSme_mvl/mxv
	BYTE	W10
	BYTE		        93*FE03MainThemeSme_mvl/mxv
	BYTE	W10
	BYTE		        94*FE03MainThemeSme_mvl/mxv
	BYTE	W09
	BYTE		        95*FE03MainThemeSme_mvl/mxv
	BYTE	W04
// 053   ----------------------------------------
	BYTE	W24
	BYTE	FINE

//**************** Track 8 (Midi-Chn.8) ****************//

FE03MainThemeSme_8:
	BYTE	KEYSH   FE03MainThemeSme_key+0
// 000   ----------------------------------------
	BYTE		VOICE   41
	BYTE		VOL     71*FE03MainThemeSme_mvl/mxv
	BYTE		PAN     c_v+0
	BYTE	W01
	BYTE		N32     Fn4   v096
	BYTE	W36
	BYTE		N02     Fn4   v108
	BYTE	W04
	BYTE		        Fn4   v096
	BYTE	W04
	BYTE		        Gs4 
	BYTE	W04
	BYTE		N44     Gn4   v104
	BYTE	W44
	BYTE	W03
// 001   ----------------------------------------
	BYTE	W01
	BYTE		N32     Gn4   v096
	BYTE	W36
	BYTE		N02     Gn4   v108
	BYTE	W04
	BYTE		        Gs4   v096
	BYTE	W04
	BYTE		        As4 
	BYTE	W04
	BYTE		N44     Gs4   v104
	BYTE	W44
	BYTE	W03
// 002   ----------------------------------------
	BYTE	W01
	BYTE		N32     Gs4   v092
	BYTE	W36
	BYTE		N02     Gs4   v108
	BYTE	W04
	BYTE		        As4   v096
	BYTE	W04
	BYTE		        Gs4 
	BYTE	W04
	BYTE		N23     Gn4   v104
	BYTE	W24
	BYTE		N22     Ds4   v096
	BYTE	W23
// 003   ----------------------------------------
	BYTE		N11     Cn4   v092
	BYTE	W12
	BYTE		N03   
	BYTE	W04
	BYTE		        Cn4   v076
	BYTE	W04
	BYTE		N03   
	BYTE	W04
	BYTE		N11     Dn4   v092
	BYTE	W12
	BYTE		N03   
	BYTE	W04
	BYTE		        Dn4   v076
	BYTE	W04
	BYTE		N03   
	BYTE	W04
	BYTE		N11     Ds4   v096
	BYTE	W12
	BYTE		N03   
	BYTE	W04
	BYTE		        Ds4   v080
	BYTE	W04
	BYTE		N03   
	BYTE	W04
	BYTE		N11     Fn4   v096
	BYTE	W12
	BYTE		        Fn4   v112
	BYTE	W12
// 004   ----------------------------------------
	BYTE		        Ds4   v104
	BYTE	W12
	BYTE		N03   
	BYTE	W04
	BYTE		        Ds4   v092
	BYTE	W04
	BYTE		N03   
	BYTE	W04
	BYTE		N11     Fn4   v108
	BYTE	W12
	BYTE		N03   
	BYTE	W04
	BYTE		        Fn4   v092
	BYTE	W04
	BYTE		N03   
	BYTE	W04
	BYTE		N11     Gn4   v112
	BYTE	W12
	BYTE		N03   
	BYTE	W04
	BYTE		        Gn4   v096
	BYTE	W04
	BYTE		N03   
	BYTE	W04
	BYTE		N11     Gs4   v120
	BYTE	W12
	BYTE		N10     Dn4   v104
	BYTE	W12
// 005   ----------------------------------------
	BYTE		VOL     90*FE03MainThemeSme_mvl/mxv
	BYTE	W96
// 006   ----------------------------------------
	BYTE	W96
// 007   ----------------------------------------
	BYTE	W02
	BYTE		        91*FE03MainThemeSme_mvl/mxv
	BYTE	W05
	BYTE		        92*FE03MainThemeSme_mvl/mxv
	BYTE	W04
	BYTE		        93*FE03MainThemeSme_mvl/mxv
	BYTE	W05
	BYTE		        94*FE03MainThemeSme_mvl/mxv
	BYTE	W05
	BYTE		        95*FE03MainThemeSme_mvl/mxv
	BYTE	W72
	BYTE	W03
// 008   ----------------------------------------
	BYTE	W96
// 009   ----------------------------------------
	BYTE	W96
// 010   ----------------------------------------
	BYTE	W96
// 011   ----------------------------------------
	BYTE	W96
// 012   ----------------------------------------
	BYTE	W96
// 013   ----------------------------------------
	BYTE	W96
// 014   ----------------------------------------
	BYTE	W60
	BYTE		        115*FE03MainThemeSme_mvl/mxv
	BYTE	W36
// 015   ----------------------------------------
	BYTE		        105*FE03MainThemeSme_mvl/mxv
	BYTE	W96
// 016   ----------------------------------------
	BYTE	W96
// 017   ----------------------------------------
	BYTE	W96
// 018   ----------------------------------------
	BYTE	W48
	BYTE		        77*FE03MainThemeSme_mvl/mxv
	BYTE	W01
	BYTE		        79*FE03MainThemeSme_mvl/mxv
	BYTE	W01
	BYTE		        80*FE03MainThemeSme_mvl/mxv
	BYTE	W01
	BYTE		        82*FE03MainThemeSme_mvl/mxv
	BYTE	W01
	BYTE		        83*FE03MainThemeSme_mvl/mxv
	BYTE	W01
	BYTE		        85*FE03MainThemeSme_mvl/mxv
	BYTE	W01
	BYTE		        86*FE03MainThemeSme_mvl/mxv
	BYTE	W01
	BYTE		        87*FE03MainThemeSme_mvl/mxv
	BYTE	W01
	BYTE		        89*FE03MainThemeSme_mvl/mxv
	BYTE	W01
	BYTE		        90*FE03MainThemeSme_mvl/mxv
	BYTE	W01
	BYTE		        92*FE03MainThemeSme_mvl/mxv
	BYTE	W01
	BYTE		        93*FE03MainThemeSme_mvl/mxv
	BYTE	W01
	BYTE		        94*FE03MainThemeSme_mvl/mxv
	BYTE	W01
	BYTE		        96*FE03MainThemeSme_mvl/mxv
	BYTE	W01
	BYTE		        97*FE03MainThemeSme_mvl/mxv
	BYTE	W01
	BYTE		        99*FE03MainThemeSme_mvl/mxv
	BYTE	W01
	BYTE		        100*FE03MainThemeSme_mvl/mxv
	BYTE	W01
	BYTE		        102*FE03MainThemeSme_mvl/mxv
	BYTE	W01
	BYTE		        103*FE03MainThemeSme_mvl/mxv
	BYTE	W01
	BYTE		        104*FE03MainThemeSme_mvl/mxv
	BYTE	W01
	BYTE		        106*FE03MainThemeSme_mvl/mxv
	BYTE	W01
	BYTE		        107*FE03MainThemeSme_mvl/mxv
	BYTE	W01
	BYTE		        109*FE03MainThemeSme_mvl/mxv
	BYTE	W01
	BYTE		        110*FE03MainThemeSme_mvl/mxv
	BYTE	W24
	BYTE	W01
// 019   ----------------------------------------
	BYTE		        100*FE03MainThemeSme_mvl/mxv
	BYTE	W02
	BYTE		        99*FE03MainThemeSme_mvl/mxv
	BYTE	W05
	BYTE		        98*FE03MainThemeSme_mvl/mxv
	BYTE	W05
	BYTE		        97*FE03MainThemeSme_mvl/mxv
	BYTE	W05
	BYTE		        96*FE03MainThemeSme_mvl/mxv
	BYTE	W05
	BYTE		        95*FE03MainThemeSme_mvl/mxv
	BYTE	W72
	BYTE	W02
// 020   ----------------------------------------
	BYTE	W96
// 021   ----------------------------------------
	BYTE	W96
// 022   ----------------------------------------
	BYTE	W96
// 023   ----------------------------------------
	BYTE	W96
// 024   ----------------------------------------
	BYTE	W96
// 025   ----------------------------------------
	BYTE	W96
// 026   ----------------------------------------
	BYTE	W60
	BYTE		        115*FE03MainThemeSme_mvl/mxv
	BYTE	W36
// 027   ----------------------------------------
	BYTE		        105*FE03MainThemeSme_mvl/mxv
	BYTE	W96
// 028   ----------------------------------------
	BYTE	W96
// 029   ----------------------------------------
	BYTE	W96
// 030   ----------------------------------------
	BYTE	W48
	BYTE		        77*FE03MainThemeSme_mvl/mxv
	BYTE	W01
	BYTE		        78*FE03MainThemeSme_mvl/mxv
	BYTE	W01
	BYTE		        80*FE03MainThemeSme_mvl/mxv
	BYTE	W01
	BYTE		        81*FE03MainThemeSme_mvl/mxv
	BYTE	W01
	BYTE		        82*FE03MainThemeSme_mvl/mxv
	BYTE	W01
	BYTE		        84*FE03MainThemeSme_mvl/mxv
	BYTE	W01
	BYTE		        85*FE03MainThemeSme_mvl/mxv
	BYTE	W01
	BYTE		        87*FE03MainThemeSme_mvl/mxv
	BYTE	W01
	BYTE		        88*FE03MainThemeSme_mvl/mxv
	BYTE	W01
	BYTE		        89*FE03MainThemeSme_mvl/mxv
	BYTE	W01
	BYTE		        91*FE03MainThemeSme_mvl/mxv
	BYTE	W01
	BYTE		        92*FE03MainThemeSme_mvl/mxv
	BYTE	W01
	BYTE		        94*FE03MainThemeSme_mvl/mxv
	BYTE	W01
	BYTE		        95*FE03MainThemeSme_mvl/mxv
	BYTE	W01
	BYTE		        97*FE03MainThemeSme_mvl/mxv
	BYTE	W01
	BYTE		        98*FE03MainThemeSme_mvl/mxv
	BYTE	W01
	BYTE		        99*FE03MainThemeSme_mvl/mxv
	BYTE	W01
	BYTE		        101*FE03MainThemeSme_mvl/mxv
	BYTE	W01
	BYTE		        102*FE03MainThemeSme_mvl/mxv
	BYTE	W01
	BYTE		        104*FE03MainThemeSme_mvl/mxv
	BYTE	W01
	BYTE		        105*FE03MainThemeSme_mvl/mxv
	BYTE	W01
	BYTE		        106*FE03MainThemeSme_mvl/mxv
	BYTE	W01
	BYTE		        108*FE03MainThemeSme_mvl/mxv
	BYTE	W01
	BYTE		        109*FE03MainThemeSme_mvl/mxv
	BYTE	W01
	BYTE		        110*FE03MainThemeSme_mvl/mxv
	BYTE	W24
// 031   ----------------------------------------
	BYTE	W01
	BYTE		        100*FE03MainThemeSme_mvl/mxv
	BYTE	W02
	BYTE		        99*FE03MainThemeSme_mvl/mxv
	BYTE	W05
	BYTE		        98*FE03MainThemeSme_mvl/mxv
	BYTE	W05
	BYTE		        97*FE03MainThemeSme_mvl/mxv
	BYTE	W04
	BYTE		        96*FE03MainThemeSme_mvl/mxv
	BYTE	W05
	BYTE		        95*FE03MainThemeSme_mvl/mxv
	BYTE	W72
	BYTE	W02
// 032   ----------------------------------------
	BYTE	W96
// 033   ----------------------------------------
	BYTE	W96
// 034   ----------------------------------------
	BYTE	W96
// 035   ----------------------------------------
	BYTE	W96
// 036   ----------------------------------------
	BYTE	W96
// 037   ----------------------------------------
	BYTE	W96
// 038   ----------------------------------------
	BYTE	W60
	BYTE	W01
	BYTE		        115*FE03MainThemeSme_mvl/mxv
	BYTE	W32
	BYTE	W03
// 039   ----------------------------------------
	BYTE	W01
	BYTE		        105*FE03MainThemeSme_mvl/mxv
	BYTE	W92
	BYTE	W03
// 040   ----------------------------------------
	BYTE	W96
// 041   ----------------------------------------
	BYTE	W96
// 042   ----------------------------------------
	BYTE	W48
	BYTE	W01
	BYTE		        77*FE03MainThemeSme_mvl/mxv
	BYTE	W01
	BYTE		        79*FE03MainThemeSme_mvl/mxv
	BYTE	W01
	BYTE		        80*FE03MainThemeSme_mvl/mxv
	BYTE	W01
	BYTE		        82*FE03MainThemeSme_mvl/mxv
	BYTE	W01
	BYTE		        83*FE03MainThemeSme_mvl/mxv
	BYTE	W01
	BYTE		        85*FE03MainThemeSme_mvl/mxv
	BYTE	W01
	BYTE		        86*FE03MainThemeSme_mvl/mxv
	BYTE	W01
	BYTE		        87*FE03MainThemeSme_mvl/mxv
	BYTE	W01
	BYTE		        89*FE03MainThemeSme_mvl/mxv
	BYTE	W01
	BYTE		        90*FE03MainThemeSme_mvl/mxv
	BYTE	W01
	BYTE		        92*FE03MainThemeSme_mvl/mxv
	BYTE	W01
	BYTE		        93*FE03MainThemeSme_mvl/mxv
	BYTE	W01
	BYTE		        94*FE03MainThemeSme_mvl/mxv
	BYTE	W01
	BYTE		        96*FE03MainThemeSme_mvl/mxv
	BYTE	W01
	BYTE		        97*FE03MainThemeSme_mvl/mxv
	BYTE	W01
	BYTE		        99*FE03MainThemeSme_mvl/mxv
	BYTE	W01
	BYTE		        100*FE03MainThemeSme_mvl/mxv
	BYTE	W01
	BYTE		        102*FE03MainThemeSme_mvl/mxv
	BYTE	W01
	BYTE		        103*FE03MainThemeSme_mvl/mxv
	BYTE	W01
	BYTE		        104*FE03MainThemeSme_mvl/mxv
	BYTE	W01
	BYTE		        106*FE03MainThemeSme_mvl/mxv
	BYTE	W01
	BYTE		        107*FE03MainThemeSme_mvl/mxv
	BYTE	W01
	BYTE		        109*FE03MainThemeSme_mvl/mxv
	BYTE	W01
	BYTE		        110*FE03MainThemeSme_mvl/mxv
	BYTE	W24
// 043   ----------------------------------------
	BYTE	W01
	BYTE		        111*FE03MainThemeSme_mvl/mxv
	BYTE	W92
	BYTE	W03
// 044   ----------------------------------------
	BYTE	W96
// 045   ----------------------------------------
	BYTE	W96
// 046   ----------------------------------------
	BYTE	W96
// 047   ----------------------------------------
	BYTE		VOICE   60
	BYTE	W02
	BYTE		        59
	BYTE		VOL     96*FE03MainThemeSme_mvl/mxv
	BYTE		PAN     c_v-14
	BYTE		N23     Ds3   v096
	BYTE	W01
	BYTE		VOICE   60
	BYTE	W23
	BYTE		N11     Gn3 
	BYTE	W12
	BYTE		        As3 
	BYTE	W12
	BYTE		N23     An3   v100
	BYTE	W24
	BYTE		N32     Cn4 
	BYTE	W22
// 048   ----------------------------------------
	BYTE	W14
	BYTE		N11     Ds3   v096
	BYTE	W12
	BYTE		        Gn3   v100
	BYTE	W12
	BYTE		        As3 
	BYTE	W12
	BYTE		        An3 
	BYTE	W12
	BYTE		        Fn3 
	BYTE	W12
	BYTE		N23     Cn4   v104
	BYTE	W22
// 049   ----------------------------------------
	BYTE	W14
	BYTE		N11     Ds3   v100
	BYTE	W12
	BYTE		        Gn3 
	BYTE	W12
	BYTE		        As3 
	BYTE	W12
	BYTE		        An3   v104
	BYTE	W12
	BYTE		        Fn3 
	BYTE	W12
	BYTE		        Cn4 
	BYTE	W12
	BYTE		        An3   v108
	BYTE	W10
// 050   ----------------------------------------
	BYTE	W02
	BYTE		N23     As3 
	BYTE	W24
	BYTE		        Fn3 
	BYTE	W24
	BYTE		        Gn3 
	BYTE	W24
	BYTE		        Ds3 
	BYTE	W22
// 051   ----------------------------------------
	BYTE	W02
	BYTE		        Dn3 
	BYTE	W24
	BYTE		        Fn3 
	BYTE	W24
	BYTE		        Ds3   v104
	BYTE	W24
	BYTE		        Cn3 
	BYTE	W22
// 052   ----------------------------------------
	BYTE	W02
	BYTE		TIE     As2 
	BYTE	W92
	BYTE	W02
// 053   ----------------------------------------
	BYTE	W24
	BYTE		EOT   
	BYTE	FINE

//**************** Track 9 (Midi-Chn.9) ****************//

FE03MainThemeSme_9:
	BYTE	KEYSH   FE03MainThemeSme_key+0
// 000   ----------------------------------------
	BYTE		VOICE   127
	BYTE		VOL     76*FE03MainThemeSme_mvl/mxv
	BYTE	W96
// 001   ----------------------------------------
	BYTE	W96
// 002   ----------------------------------------
	BYTE	W96
// 003   ----------------------------------------
	BYTE	W96
// 004   ----------------------------------------
	BYTE	W96
// 005   ----------------------------------------
	BYTE		N05     Cn1   v112
	BYTE		N44     Dn1   v104
	BYTE		N44     Ds1 
	BYTE	W06
	BYTE		N02     Cn1   v096
	BYTE	W03
	BYTE		        Cn1   v072
	BYTE	W03
	BYTE		N05     Cn1   v092
	BYTE	W06
	BYTE		N02     Cn1   v112
	BYTE	W03
	BYTE		        Cn1   v072
	BYTE	W03
	BYTE		N05     Cn1   v092
	BYTE	W06
	BYTE		N02     Cn1   v096
	BYTE	W03
	BYTE		        Cn1   v072
	BYTE	W03
	BYTE		N05     Cn1   v112
	BYTE	W06
	BYTE		N02     Cn1   v096
	BYTE	W03
	BYTE		        Cn1   v072
	BYTE	W03
	BYTE		N05     Cn1   v112
	BYTE	W06
	BYTE		N02     Cn1   v096
	BYTE	W03
	BYTE		        Cn1   v072
	BYTE	W03
	BYTE		N05     Cn1   v092
	BYTE	W06
	BYTE		N02     Cn1   v112
	BYTE	W03
	BYTE		        Cn1   v072
	BYTE	W03
	BYTE		N05     Cn1   v092
	BYTE	W06
	BYTE		N02     Cn1   v096
	BYTE	W03
	BYTE		        Cn1   v072
	BYTE	W03
	BYTE		N05     Cn1   v112
	BYTE	W06
	BYTE		N01     Cs1   v076
	BYTE	W02
	BYTE		        Cs1   v072
	BYTE	W02
	BYTE		N01   
	BYTE	W02
// 006   ----------------------------------------
FE03MainThemeSme_9_006:
	BYTE		N05     Cn1   v112
	BYTE	W06
	BYTE		N02     Cn1   v096
	BYTE	W03
	BYTE		        Cn1   v072
	BYTE	W03
	BYTE		N05     Cn1   v092
	BYTE	W06
	BYTE		N02     Cn1   v112
	BYTE	W03
	BYTE		        Cn1   v072
	BYTE	W03
	BYTE		N05     Cn1   v092
	BYTE	W06
	BYTE		N02     Cn1   v096
	BYTE	W03
	BYTE		        Cn1   v072
	BYTE	W03
	BYTE		N05     Cn1   v112
	BYTE	W06
	BYTE		N02     Cn1   v096
	BYTE	W03
	BYTE		        Cn1   v072
	BYTE	W03
	BYTE		N05     Cn1   v112
	BYTE	W06
	BYTE		N02     Cn1   v096
	BYTE	W03
	BYTE		        Cn1   v072
	BYTE	W03
	BYTE		N05     Cn1   v092
	BYTE	W06
	BYTE		N02     Cn1   v112
	BYTE	W03
	BYTE		        Cn1   v072
	BYTE	W03
	BYTE		N05     Cn1   v092
	BYTE	W06
	BYTE		N02     Cn1   v096
	BYTE	W03
	BYTE		        Cn1   v072
	BYTE	W03
	BYTE		N05     Cn1   v112
	BYTE	W06
	BYTE		N01     Cs1   v076
	BYTE	W02
	BYTE		        Cs1   v072
	BYTE	W02
	BYTE		N01   
	BYTE	W02
	BYTE	PEND
// 007   ----------------------------------------
	BYTE		N05     Cn1   v112
	BYTE		N44     Dn1   v116
	BYTE		N44     Ds1 
	BYTE	W06
	BYTE		N02     Cn1   v096
	BYTE	W03
	BYTE		        Cn1   v072
	BYTE	W03
	BYTE		N05     Cn1   v092
	BYTE	W06
	BYTE		N02     Cn1   v112
	BYTE	W03
	BYTE		        Cn1   v072
	BYTE	W03
	BYTE		N05     Cn1   v092
	BYTE	W06
	BYTE		N02     Cn1   v096
	BYTE	W03
	BYTE		        Cn1   v072
	BYTE	W03
	BYTE		N05     Cn1   v112
	BYTE	W06
	BYTE		N02     Cn1   v096
	BYTE	W03
	BYTE		        Cn1   v072
	BYTE	W03
	BYTE		N05     Cn1   v112
	BYTE	W06
	BYTE		N02     Cn1   v096
	BYTE	W03
	BYTE		        Cn1   v072
	BYTE	W03
	BYTE		N05     Cn1   v092
	BYTE	W06
	BYTE		N02     Cn1   v112
	BYTE	W03
	BYTE		        Cn1   v072
	BYTE	W03
	BYTE		N05     Cn1   v092
	BYTE	W06
	BYTE		N02     Cn1   v096
	BYTE	W03
	BYTE		        Cn1   v072
	BYTE	W03
	BYTE		N05     Cn1   v112
	BYTE	W06
	BYTE		N01     Cs1   v076
	BYTE	W02
	BYTE		        Cs1   v072
	BYTE	W02
	BYTE		N01   
	BYTE	W02
// 008   ----------------------------------------
	BYTE	PATT
	 POIN2	FE03MainThemeSme_9_006
// 009   ----------------------------------------
	BYTE	PATT
	 POIN2	FE03MainThemeSme_9_006
// 010   ----------------------------------------
	BYTE	PATT
	 POIN2	FE03MainThemeSme_9_006
// 011   ----------------------------------------
	BYTE	PATT
	 POIN2	FE03MainThemeSme_9_006
// 012   ----------------------------------------
	BYTE	PATT
	 POIN2	FE03MainThemeSme_9_006
// 013   ----------------------------------------
	BYTE	PATT
	 POIN2	FE03MainThemeSme_9_006
// 014   ----------------------------------------
FE03MainThemeSme_9_014:
	BYTE		N05     Cn1   v120
	BYTE	W06
	BYTE		N02     Cn1   v096
	BYTE	W03
	BYTE		        Cn1   v072
	BYTE	W03
	BYTE		N05     Cn1   v092
	BYTE	W06
	BYTE		N02     Cn1   v120
	BYTE	W03
	BYTE		        Cn1   v072
	BYTE	W03
	BYTE		N05     Cn1   v092
	BYTE	W06
	BYTE		N02     Cn1   v096
	BYTE	W03
	BYTE		        Cn1   v072
	BYTE	W03
	BYTE		N05     Cn1   v120
	BYTE	W06
	BYTE		N02     Cn1   v096
	BYTE	W03
	BYTE		        Cn1   v072
	BYTE	W03
	BYTE		N05     Cn1   v120
	BYTE	W06
	BYTE		N02     Cn1   v096
	BYTE	W03
	BYTE		        Cn1   v072
	BYTE	W03
	BYTE		N11     En1   v124
	BYTE	W36
	BYTE	PEND
// 015   ----------------------------------------
FE03MainThemeSme_9_015:
	BYTE		N05     Cn1   v092
	BYTE	W06
	BYTE		N02     Cn1   v104
	BYTE	W03
	BYTE		        Cn1   v084
	BYTE	W03
	BYTE		N05     Cn1   v092
	BYTE	W06
	BYTE		N02     Cn1   v104
	BYTE	W03
	BYTE		        Cn1   v080
	BYTE	W03
	BYTE		N05     Cn1   v092
	BYTE	W06
	BYTE		N02     Cn1   v104
	BYTE	W03
	BYTE		        Cn1   v084
	BYTE	W03
	BYTE		N05     Cn1   v092
	BYTE	W06
	BYTE		N02     Cn1   v104
	BYTE	W03
	BYTE		        Cn1   v084
	BYTE	W03
	BYTE		N05     Cn1   v092
	BYTE	W06
	BYTE		N02     Cn1   v104
	BYTE	W03
	BYTE		        Cn1   v080
	BYTE	W03
	BYTE		N05     Cn1   v092
	BYTE	W06
	BYTE		N02     Cn1   v104
	BYTE	W03
	BYTE		        Cn1   v084
	BYTE	W03
	BYTE		N05     Cn1   v092
	BYTE	W06
	BYTE		N02     Cn1   v104
	BYTE	W03
	BYTE		        Cn1   v080
	BYTE	W03
	BYTE		N05     Cn1   v092
	BYTE	W06
	BYTE		N01     Cs1   v076
	BYTE	W02
	BYTE		        Cs1   v072
	BYTE	W02
	BYTE		N01   
	BYTE	W02
	BYTE	PEND
// 016   ----------------------------------------
	BYTE	PATT
	 POIN2	FE03MainThemeSme_9_015
// 017   ----------------------------------------
	BYTE	PATT
	 POIN2	FE03MainThemeSme_9_015
// 018   ----------------------------------------
FE03MainThemeSme_9_018:
	BYTE		N05     Cn1   v092
	BYTE	W06
	BYTE		N02     Cn1   v104
	BYTE	W03
	BYTE		        Cn1   v084
	BYTE	W03
	BYTE		N05     Cn1   v092
	BYTE	W06
	BYTE		N02     Cn1   v104
	BYTE	W03
	BYTE		        Cn1   v080
	BYTE	W03
	BYTE		N05     Cn1   v092
	BYTE	W06
	BYTE		N02     Cn1   v104
	BYTE	W03
	BYTE		        Cn1   v084
	BYTE	W03
	BYTE		N05     Cn1   v092
	BYTE	W06
	BYTE		N02     Cn1   v104
	BYTE	W03
	BYTE		        Cn1   v084
	BYTE	W03
	BYTE		N01     Cs1   v108
	BYTE	W02
	BYTE		        Cs1   v096
	BYTE	W02
	BYTE		N01   
	BYTE	W02
	BYTE		N01   
	BYTE	W02
	BYTE		N01   
	BYTE	W02
	BYTE		N01   
	BYTE	W02
	BYTE		N01   
	BYTE	W02
	BYTE		N01   
	BYTE	W02
	BYTE		N01   
	BYTE	W02
	BYTE		N01   
	BYTE	W02
	BYTE		N01   
	BYTE	W02
	BYTE		N01   
	BYTE	W02
	BYTE		N05     Cn1   v092
	BYTE	W06
	BYTE		N02     Cn1   v104
	BYTE	W03
	BYTE		        Cn1   v080
	BYTE	W03
	BYTE		N05     Cn1   v092
	BYTE	W06
	BYTE		N01     Cs1   v076
	BYTE	W02
	BYTE		        Cs1   v072
	BYTE	W02
	BYTE		N01   
	BYTE	W02
	BYTE	PEND
// 019   ----------------------------------------
	BYTE		N05     Cn1   v112
	BYTE		N44     Ds1   v116
	BYTE	W01
	BYTE		        Dn1 
	BYTE	W05
	BYTE		N02     Cn1   v096
	BYTE	W03
	BYTE		        Cn1   v072
	BYTE	W03
	BYTE		N05     Cn1   v092
	BYTE	W06
	BYTE		N02     Cn1   v112
	BYTE	W03
	BYTE		        Cn1   v072
	BYTE	W03
	BYTE		N05     Cn1   v092
	BYTE	W06
	BYTE		N02     Cn1   v096
	BYTE	W03
	BYTE		        Cn1   v072
	BYTE	W03
	BYTE		N05     Cn1   v112
	BYTE	W06
	BYTE		N02     Cn1   v096
	BYTE	W03
	BYTE		        Cn1   v072
	BYTE	W03
	BYTE		N05     Cn1   v112
	BYTE	W06
	BYTE		N02     Cn1   v096
	BYTE	W03
	BYTE		        Cn1   v072
	BYTE	W03
	BYTE		N05     Cn1   v092
	BYTE	W06
	BYTE		N02     Cn1   v112
	BYTE	W03
	BYTE		        Cn1   v072
	BYTE	W03
	BYTE		N05     Cn1   v092
	BYTE	W06
	BYTE		N02     Cn1   v096
	BYTE	W03
	BYTE		        Cn1   v072
	BYTE	W03
	BYTE		N05     Cn1   v112
	BYTE	W06
	BYTE		N01     Cs1   v076
	BYTE	W02
	BYTE		        Cs1   v072
	BYTE	W02
	BYTE		N01   
	BYTE	W02
// 020   ----------------------------------------
	BYTE	PATT
	 POIN2	FE03MainThemeSme_9_006
// 021   ----------------------------------------
	BYTE	PATT
	 POIN2	FE03MainThemeSme_9_006
// 022   ----------------------------------------
	BYTE	PATT
	 POIN2	FE03MainThemeSme_9_006
// 023   ----------------------------------------
	BYTE	PATT
	 POIN2	FE03MainThemeSme_9_006
// 024   ----------------------------------------
	BYTE	PATT
	 POIN2	FE03MainThemeSme_9_006
// 025   ----------------------------------------
	BYTE	PATT
	 POIN2	FE03MainThemeSme_9_006
// 026   ----------------------------------------
	BYTE	PATT
	 POIN2	FE03MainThemeSme_9_014
// 027   ----------------------------------------
	BYTE	PATT
	 POIN2	FE03MainThemeSme_9_015
// 028   ----------------------------------------
	BYTE	PATT
	 POIN2	FE03MainThemeSme_9_015
// 029   ----------------------------------------
	BYTE	PATT
	 POIN2	FE03MainThemeSme_9_015
// 030   ----------------------------------------
	BYTE	PATT
	 POIN2	FE03MainThemeSme_9_018
// 031   ----------------------------------------
	BYTE	W01
	BYTE		N05     Cn1   v112
	BYTE		N44     Dn1   v116
	BYTE		N44     Ds1 
	BYTE	W06
	BYTE		N02     Cn1   v096
	BYTE	W03
	BYTE		        Cn1   v072
	BYTE	W03
	BYTE		N05     Cn1   v092
	BYTE	W06
	BYTE		N02     Cn1   v112
	BYTE	W03
	BYTE		        Cn1   v072
	BYTE	W03
	BYTE		N05     Cn1   v092
	BYTE	W06
	BYTE		N02     Cn1   v096
	BYTE	W03
	BYTE		        Cn1   v072
	BYTE	W03
	BYTE		N05     Cn1   v112
	BYTE	W06
	BYTE		N02     Cn1   v096
	BYTE	W03
	BYTE		        Cn1   v072
	BYTE	W03
	BYTE		N05     Cn1   v112
	BYTE	W06
	BYTE		N02     Cn1   v096
	BYTE	W03
	BYTE		        Cn1   v072
	BYTE	W03
	BYTE		N05     Cn1   v092
	BYTE	W06
	BYTE		N02     Cn1   v112
	BYTE	W03
	BYTE		        Cn1   v072
	BYTE	W03
	BYTE		N05     Cn1   v092
	BYTE	W06
	BYTE		N02     Cn1   v096
	BYTE	W03
	BYTE		        Cn1   v072
	BYTE	W03
	BYTE		N05     Cn1   v112
	BYTE	W06
	BYTE		N01     Cs1   v076
	BYTE	W02
	BYTE		        Cs1   v072
	BYTE	W02
	BYTE		N01   
	BYTE	W01
// 032   ----------------------------------------
FE03MainThemeSme_9_032:
	BYTE	W01
	BYTE		N05     Cn1   v112
	BYTE	W06
	BYTE		N02     Cn1   v096
	BYTE	W03
	BYTE		        Cn1   v072
	BYTE	W03
	BYTE		N05     Cn1   v092
	BYTE	W06
	BYTE		N02     Cn1   v112
	BYTE	W03
	BYTE		        Cn1   v072
	BYTE	W03
	BYTE		N05     Cn1   v092
	BYTE	W06
	BYTE		N02     Cn1   v096
	BYTE	W03
	BYTE		        Cn1   v072
	BYTE	W03
	BYTE		N05     Cn1   v112
	BYTE	W06
	BYTE		N02     Cn1   v096
	BYTE	W03
	BYTE		        Cn1   v072
	BYTE	W03
	BYTE		N05     Cn1   v112
	BYTE	W06
	BYTE		N02     Cn1   v096
	BYTE	W03
	BYTE		        Cn1   v072
	BYTE	W03
	BYTE		N05     Cn1   v092
	BYTE	W06
	BYTE		N02     Cn1   v112
	BYTE	W03
	BYTE		        Cn1   v072
	BYTE	W03
	BYTE		N05     Cn1   v092
	BYTE	W06
	BYTE		N02     Cn1   v096
	BYTE	W03
	BYTE		        Cn1   v072
	BYTE	W03
	BYTE		N05     Cn1   v112
	BYTE	W06
	BYTE		N01     Cs1   v076
	BYTE	W02
	BYTE		        Cs1   v072
	BYTE	W02
	BYTE		N01   
	BYTE	W01
	BYTE	PEND
// 033   ----------------------------------------
	BYTE	PATT
	 POIN2	FE03MainThemeSme_9_032
// 034   ----------------------------------------
	BYTE	PATT
	 POIN2	FE03MainThemeSme_9_032
// 035   ----------------------------------------
	BYTE	PATT
	 POIN2	FE03MainThemeSme_9_032
// 036   ----------------------------------------
	BYTE	PATT
	 POIN2	FE03MainThemeSme_9_032
// 037   ----------------------------------------
	BYTE	PATT
	 POIN2	FE03MainThemeSme_9_032
// 038   ----------------------------------------
	BYTE	W01
	BYTE		N05     Cn1   v120
	BYTE	W06
	BYTE		N02     Cn1   v096
	BYTE	W03
	BYTE		        Cn1   v072
	BYTE	W03
	BYTE		N05     Cn1   v092
	BYTE	W06
	BYTE		N02     Cn1   v120
	BYTE	W03
	BYTE		        Cn1   v072
	BYTE	W03
	BYTE		N05     Cn1   v092
	BYTE	W06
	BYTE		N02     Cn1   v096
	BYTE	W03
	BYTE		        Cn1   v072
	BYTE	W03
	BYTE		N05     Cn1   v120
	BYTE	W06
	BYTE		N02     Cn1   v096
	BYTE	W03
	BYTE		        Cn1   v072
	BYTE	W03
	BYTE		N05     Cn1   v120
	BYTE	W06
	BYTE		N02     Cn1   v096
	BYTE	W03
	BYTE		        Cn1   v072
	BYTE	W03
	BYTE		N11     En1   v124
	BYTE	W32
	BYTE	W03
// 039   ----------------------------------------
FE03MainThemeSme_9_039:
	BYTE	W01
	BYTE		N05     Cn1   v092
	BYTE	W06
	BYTE		N02     Cn1   v104
	BYTE	W03
	BYTE		        Cn1   v084
	BYTE	W03
	BYTE		N05     Cn1   v092
	BYTE	W06
	BYTE		N02     Cn1   v104
	BYTE	W03
	BYTE		        Cn1   v080
	BYTE	W03
	BYTE		N05     Cn1   v092
	BYTE	W06
	BYTE		N02     Cn1   v104
	BYTE	W03
	BYTE		        Cn1   v084
	BYTE	W03
	BYTE		N05     Cn1   v092
	BYTE	W06
	BYTE		N02     Cn1   v104
	BYTE	W03
	BYTE		        Cn1   v084
	BYTE	W03
	BYTE		N05     Cn1   v092
	BYTE	W06
	BYTE		N02     Cn1   v104
	BYTE	W03
	BYTE		        Cn1   v080
	BYTE	W03
	BYTE		N05     Cn1   v092
	BYTE	W06
	BYTE		N02     Cn1   v104
	BYTE	W03
	BYTE		        Cn1   v084
	BYTE	W03
	BYTE		N05     Cn1   v092
	BYTE	W06
	BYTE		N02     Cn1   v104
	BYTE	W03
	BYTE		        Cn1   v080
	BYTE	W03
	BYTE		N05     Cn1   v092
	BYTE	W06
	BYTE		N01     Cs1   v076
	BYTE	W02
	BYTE		        Cs1   v072
	BYTE	W02
	BYTE		N01   
	BYTE	W01
	BYTE	PEND
// 040   ----------------------------------------
	BYTE	PATT
	 POIN2	FE03MainThemeSme_9_039
// 041   ----------------------------------------
	BYTE	PATT
	 POIN2	FE03MainThemeSme_9_039
// 042   ----------------------------------------
	BYTE	W01
	BYTE		N05     Cn1   v092
	BYTE	W06
	BYTE		N02     Cn1   v104
	BYTE	W03
	BYTE		        Cn1   v084
	BYTE	W03
	BYTE		N05     Cn1   v092
	BYTE	W06
	BYTE		N02     Cn1   v104
	BYTE	W03
	BYTE		        Cn1   v080
	BYTE	W03
	BYTE		N05     Cn1   v092
	BYTE	W06
	BYTE		N02     Cn1   v104
	BYTE	W03
	BYTE		        Cn1   v084
	BYTE	W03
	BYTE		N05     Cn1   v092
	BYTE	W06
	BYTE		N02     Cn1   v104
	BYTE	W03
	BYTE		        Cn1   v084
	BYTE	W03
	BYTE		N01     Cs1   v108
	BYTE	W02
	BYTE		        Cs1   v096
	BYTE	W02
	BYTE		N01   
	BYTE	W02
	BYTE		N01   
	BYTE	W02
	BYTE		N01   
	BYTE	W02
	BYTE		N01   
	BYTE	W02
	BYTE		N01   
	BYTE	W02
	BYTE		N01   
	BYTE	W02
	BYTE		N01   
	BYTE	W02
	BYTE		N01   
	BYTE	W02
	BYTE		N01   
	BYTE	W02
	BYTE		N01   
	BYTE	W02
	BYTE		N05     Cn1   v092
	BYTE	W06
	BYTE		N02     Cn1   v104
	BYTE	W03
	BYTE		        Cn1   v080
	BYTE	W03
	BYTE		N05     Cn1   v092
	BYTE	W06
	BYTE		N01     Cs1   v076
	BYTE	W02
	BYTE		        Cs1   v072
	BYTE	W02
	BYTE		N01   
	BYTE	W01
// 043   ----------------------------------------
	BYTE	PATT
	 POIN2	FE03MainThemeSme_9_039
// 044   ----------------------------------------
	BYTE	PATT
	 POIN2	FE03MainThemeSme_9_039
// 045   ----------------------------------------
	BYTE	PATT
	 POIN2	FE03MainThemeSme_9_039
// 046   ----------------------------------------
	BYTE	W01
	BYTE		N05     Cn1   v092
	BYTE	W06
	BYTE		N02     Cn1   v104
	BYTE	W03
	BYTE		        Cn1   v084
	BYTE	W03
	BYTE		N05     Cn1   v092
	BYTE	W06
	BYTE		N02     Cn1   v104
	BYTE	W03
	BYTE		        Cn1   v080
	BYTE	W03
	BYTE		N05     Cn1   v092
	BYTE	W06
	BYTE		N02     Cn1   v104
	BYTE	W03
	BYTE		        Cn1   v084
	BYTE	W03
	BYTE		N05     Cn1   v092
	BYTE	W06
	BYTE		N02     Cn1   v104
	BYTE	W03
	BYTE		        Cn1   v084
	BYTE	W03
	BYTE		N44     Cn1   v120
	BYTE	W44
	BYTE	W03
// 047   ----------------------------------------
	BYTE	W96
// 048   ----------------------------------------
	BYTE	W96
// 049   ----------------------------------------
	BYTE	W96
// 050   ----------------------------------------
	BYTE	W96
// 051   ----------------------------------------
	BYTE	W96
// 052   ----------------------------------------
	BYTE	W96
// 053   ----------------------------------------
	BYTE	W24
	BYTE	FINE

//******************************************************//
	ALIGN 4

FE03MainThemeSme:
	BYTE	9	// NumTrks
	BYTE	0	// NumBlks
	BYTE	FE03MainThemeSme_pri	// Priority
	BYTE	FE03MainThemeSme_rev	// Reverb.

	POIN2	FE03MainThemeSme_grp

	POIN2	FE03MainThemeSme_1
	POIN2	FE03MainThemeSme_2
	POIN2	FE03MainThemeSme_3
	POIN2	FE03MainThemeSme_4
	POIN2	FE03MainThemeSme_5
	POIN2	FE03MainThemeSme_6
	POIN2	FE03MainThemeSme_7
	POIN2	FE03MainThemeSme_8
	POIN2	FE03MainThemeSme_9

	
