//Event file generated from Sappy .s format.
	#include "MPlayDef.event"

	#define	FE04ArmyofGrannvale1SurfingKyogre_grp  voicegroup000
	#define	FE04ArmyofGrannvale1SurfingKyogre_pri  0
	#define	FE04ArmyofGrannvale1SurfingKyogre_rev  0
	#define	FE04ArmyofGrannvale1SurfingKyogre_mvl  127
	#define	FE04ArmyofGrannvale1SurfingKyogre_key  0
	#define	FE04ArmyofGrannvale1SurfingKyogre_tbs  1
	#define	FE04ArmyofGrannvale1SurfingKyogre_exg  0
	#define	FE04ArmyofGrannvale1SurfingKyogre_cmp  1

	// .rodata
	//	FE04ArmyofGrannvale1SurfingKyogre
	ALIGN 4


//**************** Track 1 (Midi-Chn.0) ****************//

FE04ArmyofGrannvale1SurfingKyogre_001:
// 000   ----------------------------------------
 BYTE   KEYSH   FE04ArmyofGrannvale1SurfingKyogre_key+0
 BYTE   TEMPO   100*FE04ArmyofGrannvale1SurfingKyogre_tbs/2
 BYTE   PAN   c_v+0
 BYTE   VOL   20*FE04ArmyofGrannvale1SurfingKyogre_mvl/mxv
 BYTE   MOD 0
 BYTE   CnM2
 BYTE   BEND   c_v+0
 BYTE   W04
 BYTE   W72
 BYTE   VOICE   48
 BYTE   PAN   c_v+0
 BYTE   VOL   55*FE04ArmyofGrannvale1SurfingKyogre_mvl/mxv
 BYTE   N68  As2  v127
 BYTE   W20
// 001   ----------------------------------------
 BYTE   W52
 BYTE   N44  Bn2
 BYTE   W44
// 002   ----------------------------------------
 BYTE   W06
Label_0_016ED701:
 BYTE   W10
 BYTE   N04  Cs3  v127
 BYTE   W06
 BYTE   Dn3
 BYTE   W06
 BYTE   TIE  Cs3
 BYTE   W68
// 003   ----------------------------------------
 BYTE   W60
 BYTE   W02
 BYTE   EOT
 BYTE   W14
 BYTE   N68  As2
 BYTE   W20
// 004   ----------------------------------------
 BYTE   W52
 BYTE   N44  Bn2
 BYTE   W44
// 005   ----------------------------------------
 BYTE   W16
 BYTE   N04  Cs3
 BYTE   W06
 BYTE   Dn3
 BYTE   W06
 BYTE   TIE  Cs3
 BYTE   W68
// 006   ----------------------------------------
 BYTE   W60
 BYTE   W02
 BYTE   EOT
 BYTE   W14
 BYTE   VOICE   56
 BYTE   PAN   c_v+0
 BYTE   VOL   45*FE04ArmyofGrannvale1SurfingKyogre_mvl/mxv
 BYTE   W12
 BYTE   N04  Fn3
 BYTE   W08
// 007   ----------------------------------------
 BYTE   W16
 BYTE   N04
 BYTE   W12
 BYTE   N22  Fs3
 BYTE   W36
 BYTE   N04  Fn3
 BYTE   W24
 BYTE   N04
 BYTE   W08
// 008   ----------------------------------------
 BYTE   W04
 BYTE   N22  Ds3
 BYTE   W36
 BYTE   N04  Fn3
 BYTE   W24
 BYTE   N04
 BYTE   W12
 BYTE   N22  Fs3
 BYTE   W20
// 009   ----------------------------------------
 BYTE   W16
 BYTE   N04  Fn3
 BYTE   W24
 BYTE   N04
 BYTE   W12
 BYTE   N09  Gs3
 BYTE   W12
 BYTE   Fs3
 BYTE   W12
 BYTE   N68  As2
 BYTE   W20
// 010   ----------------------------------------
 BYTE   W52
 BYTE   N44  Fn3
 BYTE   W44
// 011   ----------------------------------------
Label_0_016ED756:
 BYTE   W04
 BYTE   N03  Ds3  v127
 BYTE   W12
 BYTE   Cs3
 BYTE   W12
 BYTE   N44  Cn3
 BYTE   W48
 BYTE   N03  Cs3
 BYTE   W12
 BYTE   Ds3
 BYTE   W08
 BYTE   PEND 
// 012   ----------------------------------------
 BYTE   W04
 BYTE   Cs3
 BYTE   W12
 BYTE   Cn3
 BYTE   W12
 BYTE   N44  As2
 BYTE   W48
 BYTE   VOICE   57
 BYTE   W12
 BYTE   N03  Ds4
 BYTE   W06
 BYTE   N03
 BYTE   W02
// 013   ----------------------------------------
 BYTE   W04
 BYTE   N03
 BYTE   W12
 BYTE   Cs4
 BYTE   W12
 BYTE   Cn4
 BYTE   W12
 BYTE   As3
 BYTE   W12
 BYTE   N68  Cn4
 BYTE   W44
// 014   ----------------------------------------
 BYTE   W40
 BYTE   N03  Ds4
 BYTE   W06
 BYTE   N03
 BYTE   W06
 BYTE   N03
 BYTE   W12
 BYTE   Cs4
 BYTE   W12
 BYTE   Cn4
 BYTE   W12
 BYTE   As3
 BYTE   W08
// 015   ----------------------------------------
 BYTE   W04
 BYTE   N68  Cn4
 BYTE   W72
 BYTE   N44  Fn4
 BYTE   W20
// 016   ----------------------------------------
 BYTE   W28
 BYTE   N03  Ds4
 BYTE   W12
 BYTE   Cs4
 BYTE   W12
 BYTE   Cn4
 BYTE   W12
 BYTE   Cs4
 BYTE   W12
 BYTE   N44  Ds4
 BYTE   W20
// 017   ----------------------------------------
 BYTE   W28
 BYTE   Fn4
 BYTE   W48
 BYTE   N03  Ds4
 BYTE   W12
 BYTE   Cs4
 BYTE   W08
// 018   ----------------------------------------
 BYTE   W04
 BYTE   Cn4
 BYTE   W12
 BYTE   Cs4
 BYTE   W12
 BYTE   N21  Ds4
 BYTE   W24
 BYTE   Cn4
 BYTE   W44
// 019   ----------------------------------------
 BYTE   W96
// 020   ----------------------------------------
 BYTE   W96
// 021   ----------------------------------------
 BYTE   W76
 BYTE   VOICE   56
 BYTE   VOL   45*FE04ArmyofGrannvale1SurfingKyogre_mvl/mxv
 BYTE   N68  As2
 BYTE   W20
// 022   ----------------------------------------
 BYTE   W52
 BYTE   N44  Fn3
 BYTE   W44
 BYTE   PATT
  POIN2 Label_0_016ED756
// 023   ----------------------------------------
 BYTE   W04
 BYTE   N03  Cs3  v127
 BYTE   W12
 BYTE   Cn3
 BYTE   W12
 BYTE   N44  As2
 BYTE   W48
 BYTE   VOICE   48
 BYTE   PAN   c_v+0
 BYTE   VOL   55*FE04ArmyofGrannvale1SurfingKyogre_mvl/mxv
 BYTE   N68
 BYTE   W20
// 024   ----------------------------------------
 BYTE   W52
 BYTE   N44  Bn2
 BYTE   W44
// 025   ----------------------------------------
 BYTE   W06
 BYTE   GoTo
  POIN2 Label_0_016ED701
// 026   ----------------------------------------
 BYTE   W11
 BYTE   FINE

//**************** Track 2 (Midi-Chn.1) ****************//

FE04ArmyofGrannvale1SurfingKyogre_002:
// 000   ----------------------------------------
 BYTE   KEYSH   FE04ArmyofGrannvale1SurfingKyogre_key+0
 BYTE   PAN   c_v+0
 BYTE   VOL   20*FE04ArmyofGrannvale1SurfingKyogre_mvl/mxv
 BYTE   MOD 0
 BYTE   CnM2
 BYTE   BEND   c_v+0
 BYTE   W04
 BYTE   W72
 BYTE   VOICE   48
 BYTE   PAN   c_v+36
 BYTE   VOL   40*FE04ArmyofGrannvale1SurfingKyogre_mvl/mxv
 BYTE   N68  As1  v127
 BYTE   W20
// 001   ----------------------------------------
 BYTE   W52
 BYTE   N44  Bn1
 BYTE   W44
// 002   ----------------------------------------
 BYTE   W06
Label_1_016ED803:
 BYTE   W10
 BYTE   N04  Cs2  v127
 BYTE   W06
 BYTE   Dn2
 BYTE   W06
 BYTE   TIE  Cs2
 BYTE   W68
// 003   ----------------------------------------
 BYTE   W60
 BYTE   W02
 BYTE   EOT
 BYTE   W14
 BYTE   PAN   c_v+6
 BYTE   N68  As1
 BYTE   W20
// 004   ----------------------------------------
 BYTE   W52
 BYTE   N44  Bn1
 BYTE   W44
// 005   ----------------------------------------
 BYTE   W16
 BYTE   N04  Cs2
 BYTE   W06
 BYTE   Dn2
 BYTE   W06
 BYTE   TIE  Cs2
 BYTE   W68
// 006   ----------------------------------------
 BYTE   W60
 BYTE   W02
 BYTE   EOT
 BYTE   W14
 BYTE   VOICE   56
 BYTE   PAN   c_v+46
 BYTE   VOL   25*FE04ArmyofGrannvale1SurfingKyogre_mvl/mxv
 BYTE   W06
 BYTE   BEND   c_v-1
 BYTE   W12
 BYTE   N04  Fn3
 BYTE   W02
// 007   ----------------------------------------
 BYTE   W22
 BYTE   N04
 BYTE   W12
 BYTE   N22  Fs3
 BYTE   W36
 BYTE   N04  Fn3
 BYTE   W24
 BYTE   N04
 BYTE   W02
// 008   ----------------------------------------
 BYTE   W10
 BYTE   N22  Ds3
 BYTE   W36
 BYTE   N04  Fn3
 BYTE   W24
 BYTE   N04
 BYTE   W12
 BYTE   N22  Fs3
 BYTE   W14
// 009   ----------------------------------------
 BYTE   W22
 BYTE   N04  Fn3
 BYTE   W24
 BYTE   N04
 BYTE   W12
 BYTE   N09  Gs3
 BYTE   W12
 BYTE   N04  Fs3
 BYTE   W06
 BYTE   PAN   c_v+26
 BYTE   VOL   40*FE04ArmyofGrannvale1SurfingKyogre_mvl/mxv
 BYTE   BEND   c_v+0
 BYTE   N68  Fn2
 BYTE   W20
// 010   ----------------------------------------
 BYTE   W52
 BYTE   N44  Gs2
 BYTE   W44
// 011   ----------------------------------------
Label_1_016ED864:
 BYTE   W04
 BYTE   N03  Gs2  v127
 BYTE   W12
 BYTE   N03
 BYTE   W12
 BYTE   N44
 BYTE   W48
 BYTE   N03
 BYTE   W12
 BYTE   N03
 BYTE   W08
 BYTE   PEND 
// 012   ----------------------------------------
 BYTE   W04
 BYTE   N03
 BYTE   W12
 BYTE   N03
 BYTE   W12
 BYTE   N44  Fn2
 BYTE   W48
 BYTE   VOICE   57
 BYTE   W12
 BYTE   N03  Gs3
 BYTE   W06
 BYTE   N03
 BYTE   W02
// 013   ----------------------------------------
 BYTE   W04
 BYTE   N03
 BYTE   W12
 BYTE   N03
 BYTE   W12
 BYTE   N03
 BYTE   W12
 BYTE   Fn3
 BYTE   W12
 BYTE   N68  Ds3
 BYTE   W44
// 014   ----------------------------------------
 BYTE   W40
 BYTE   N03  Gs3
 BYTE   W06
 BYTE   N03
 BYTE   W06
 BYTE   N03
 BYTE   W12
 BYTE   N03
 BYTE   W12
 BYTE   N03
 BYTE   W12
 BYTE   Fn3
 BYTE   W08
// 015   ----------------------------------------
 BYTE   W04
 BYTE   N68  Ds3
 BYTE   W92
// 016   ----------------------------------------
 BYTE   W96
// 017   ----------------------------------------
 BYTE   W96
// 018   ----------------------------------------
 BYTE   W96
// 019   ----------------------------------------
 BYTE   W96
// 020   ----------------------------------------
 BYTE   W96
// 021   ----------------------------------------
 BYTE   W76
 BYTE   VOICE   56
 BYTE   VOL   40*FE04ArmyofGrannvale1SurfingKyogre_mvl/mxv
 BYTE   N68  Fn2
 BYTE   W20
// 022   ----------------------------------------
 BYTE   W52
 BYTE   N44  Gs2
 BYTE   W44
 BYTE   PATT
  POIN2 Label_1_016ED864
// 023   ----------------------------------------
 BYTE   W04
 BYTE   N03  Gs2  v127
 BYTE   W12
 BYTE   N03
 BYTE   W12
 BYTE   N44  Fn2
 BYTE   W48
 BYTE   VOICE   48
 BYTE   PAN   c_v+36
 BYTE   VOL   40*FE04ArmyofGrannvale1SurfingKyogre_mvl/mxv
 BYTE   N68  As1
 BYTE   W20
// 024   ----------------------------------------
 BYTE   W52
 BYTE   N44  Bn1
 BYTE   W44
// 025   ----------------------------------------
 BYTE   W06
 BYTE   GoTo
  POIN2 Label_1_016ED803
// 026   ----------------------------------------
 BYTE   W10
 BYTE   BEND   c_v-1
 BYTE   W01
 BYTE   FINE

//**************** Track 3 (Midi-Chn.2) ****************//

FE04ArmyofGrannvale1SurfingKyogre_003:
// 000   ----------------------------------------
 BYTE   KEYSH   FE04ArmyofGrannvale1SurfingKyogre_key+0
 BYTE   PAN   c_v+0
 BYTE   VOL   20*FE04ArmyofGrannvale1SurfingKyogre_mvl/mxv
 BYTE   MOD 0
 BYTE   CnM2
 BYTE   BEND   c_v+0
 BYTE   W04
 BYTE   W72
 BYTE   VOICE   60
 BYTE   PAN   c_v-39
 BYTE   VOL   40*FE04ArmyofGrannvale1SurfingKyogre_mvl/mxv
 BYTE   N68  Fs1  v127
 BYTE   W20
// 001   ----------------------------------------
 BYTE   W52
 BYTE   N56
 BYTE   W44
// 002   ----------------------------------------
 BYTE   W06
Label_2_016ECE4A:
 BYTE   W10
 BYTE   N04  Fs1  v127
 BYTE   W06
 BYTE   N04
 BYTE   W06
 BYTE   TIE
 BYTE   W68
// 003   ----------------------------------------
 BYTE   W60
 BYTE   W02
 BYTE   EOT
 BYTE   W14
 BYTE   N68
 BYTE   W20
// 004   ----------------------------------------
 BYTE   W52
 BYTE   N56
 BYTE   W44
// 005   ----------------------------------------
 BYTE   W16
 BYTE   N04
 BYTE   W06
 BYTE   N04
 BYTE   W06
 BYTE   TIE
 BYTE   W68
// 006   ----------------------------------------
 BYTE   W60
 BYTE   W02
 BYTE   EOT
 BYTE   W14
 BYTE   N04  Fn1
 BYTE   W20
// 007   ----------------------------------------
 BYTE   W04
 BYTE   N04
 BYTE   W48
 BYTE   N04
 BYTE   W24
 BYTE   N04
 BYTE   W20
// 008   ----------------------------------------
 BYTE   W28
 BYTE   N04
 BYTE   W24
 BYTE   N04
 BYTE   W44
// 009   ----------------------------------------
 BYTE   W04
 BYTE   N04
 BYTE   W24
 BYTE   N04
 BYTE   W48
 BYTE   PAN   c_v-44
 BYTE   N04  As1
 BYTE   W20
// 010   ----------------------------------------
Label_2_016ECE80:
 BYTE   W04
 BYTE   N44  Fn1  v127
 BYTE   W24
 BYTE   PAN   c_v+46
 BYTE   W24
 BYTE   GsM1
 BYTE   N04  As1
 BYTE   W24
 BYTE   N44  Fn1
 BYTE   W20
 BYTE   PEND 
// 011   ----------------------------------------
Label_2_016ECE90:
 BYTE   W04
 BYTE   PAN   c_v+46
 BYTE   W24
 BYTE   GsM1
 BYTE   N04  As1  v127
 BYTE   W24
 BYTE   N44  Fn1
 BYTE   W24
 BYTE   PAN   c_v+46
 BYTE   W20
 BYTE   PEND 
// 012   ----------------------------------------
 BYTE   W04
 BYTE   GsM1
 BYTE   N04  As1
 BYTE   W24
 BYTE   N44  Fn1
 BYTE   W24
 BYTE   PAN   c_v+46
 BYTE   W24
 BYTE   GsM1
 BYTE   N04  As1
 BYTE   W20
 BYTE   PATT
  POIN2 Label_2_016ECE80
 BYTE   PATT
  POIN2 Label_2_016ECE90
// 013   ----------------------------------------
 BYTE   W04
 BYTE   PAN   c_v-44
 BYTE   N04  As1  v127
 BYTE   W24
 BYTE   N44  Fn1
 BYTE   W24
 BYTE   PAN   c_v+46
 BYTE   W24
 BYTE   GsM1
 BYTE   N04  Fs1
 BYTE   W20
// 014   ----------------------------------------
 BYTE   W04
 BYTE   N44  Cs1
 BYTE   W24
 BYTE   PAN   c_v+46
 BYTE   W24
 BYTE   GsM1
 BYTE   N04  Fs1
 BYTE   W24
 BYTE   N44  Cs1
 BYTE   W20
// 015   ----------------------------------------
 BYTE   W04
 BYTE   PAN   c_v+46
 BYTE   W24
 BYTE   GsM1
 BYTE   N04  Fs1
 BYTE   W24
 BYTE   N44  Cs1
 BYTE   W24
 BYTE   PAN   c_v+46
 BYTE   W20
// 016   ----------------------------------------
 BYTE   W04
 BYTE   GsM1
 BYTE   N04  Fs1
 BYTE   W24
 BYTE   N44  Cs1
 BYTE   W24
 BYTE   PAN   c_v+46
 BYTE   W24
 BYTE   GsM1
 BYTE   N04  Fn1
 BYTE   W20
// 017   ----------------------------------------
 BYTE   W04
 BYTE   N44
 BYTE   W24
 BYTE   PAN   c_v+46
 BYTE   W24
 BYTE   GsM1
 BYTE   N04
 BYTE   W24
 BYTE   N44  Cn1
 BYTE   W20
// 018   ----------------------------------------
 BYTE   W04
 BYTE   PAN   c_v+46
 BYTE   W24
 BYTE   GsM1
 BYTE   N04  Fn1
 BYTE   W24
 BYTE   N44
 BYTE   W24
 BYTE   PAN   c_v+46
 BYTE   W20
// 019   ----------------------------------------
 BYTE   W04
 BYTE   GsM1
 BYTE   N04
 BYTE   W24
 BYTE   N44  Cn1
 BYTE   W24
 BYTE   PAN   c_v+46
 BYTE   W24
 BYTE   GsM1
 BYTE   N04  As1
 BYTE   W20
 BYTE   PATT
  POIN2 Label_2_016ECE80
 BYTE   PATT
  POIN2 Label_2_016ECE90
// 020   ----------------------------------------
 BYTE   W04
 BYTE   PAN   c_v-44
 BYTE   N04  As1  v127
 BYTE   W24
 BYTE   N44  Fn1
 BYTE   W24
 BYTE   PAN   c_v+46
 BYTE   W24
 BYTE   VOICE   60
 BYTE   PAN   c_v-39
 BYTE   VOL   40*FE04ArmyofGrannvale1SurfingKyogre_mvl/mxv
 BYTE   N68  Fs1
 BYTE   W20
// 021   ----------------------------------------
 BYTE   W52
 BYTE   N56
 BYTE   W44
// 022   ----------------------------------------
 BYTE   W06
 BYTE   GoTo
  POIN2 Label_2_016ECE4A
// 023   ----------------------------------------
 BYTE   W11
 BYTE   FINE

//**************** Track 4 (Midi-Chn.3) ****************//

FE04ArmyofGrannvale1SurfingKyogre_004:
// 000   ----------------------------------------
 BYTE   KEYSH   FE04ArmyofGrannvale1SurfingKyogre_key+0
 BYTE   PAN   c_v+0
 BYTE   VOL   20*FE04ArmyofGrannvale1SurfingKyogre_mvl/mxv
 BYTE   MOD 0
 BYTE   CnM2
 BYTE   BEND   c_v+0
 BYTE   W04
 BYTE   W72
 BYTE   VOICE   48
 BYTE   PAN   c_v+0
 BYTE   VOL   40*FE04ArmyofGrannvale1SurfingKyogre_mvl/mxv
 BYTE   N68  Fs2  v127
 BYTE   W20
// 001   ----------------------------------------
 BYTE   W52
 BYTE   N44
 BYTE   W44
// 002   ----------------------------------------
 BYTE   W06
Label_3_016ECF62:
 BYTE   W10
 BYTE   N04  Fs2  v127
 BYTE   W06
 BYTE   N04
 BYTE   W06
 BYTE   TIE
 BYTE   W68
// 003   ----------------------------------------
 BYTE   W60
 BYTE   W02
 BYTE   EOT
 BYTE   W14
 BYTE   N68
 BYTE   W20
// 004   ----------------------------------------
 BYTE   W52
 BYTE   N44
 BYTE   W44
// 005   ----------------------------------------
 BYTE   W16
 BYTE   N04
 BYTE   W06
 BYTE   N04
 BYTE   W06
 BYTE   TIE
 BYTE   W68
// 006   ----------------------------------------
 BYTE   W60
 BYTE   W02
 BYTE   EOT
 BYTE   W14
 BYTE   VOICE   56
 BYTE   PAN   c_v-44
 BYTE   VOL   35*FE04ArmyofGrannvale1SurfingKyogre_mvl/mxv
 BYTE   W12
 BYTE   N04  Cn3
 BYTE   W08
// 007   ----------------------------------------
 BYTE   W16
 BYTE   N04
 BYTE   W12
 BYTE   N22  Cs3
 BYTE   W36
 BYTE   N04  Cn3
 BYTE   W24
 BYTE   N04
 BYTE   W08
// 008   ----------------------------------------
 BYTE   W04
 BYTE   N22  As2
 BYTE   W36
 BYTE   N04  Cn3
 BYTE   W24
 BYTE   N04
 BYTE   W12
 BYTE   N22  Cs3
 BYTE   W20
// 009   ----------------------------------------
 BYTE   W16
 BYTE   N04  Cn3
 BYTE   W24
 BYTE   N04
 BYTE   W12
 BYTE   N09  Ds3
 BYTE   W12
 BYTE   Cs3
 BYTE   W12
 BYTE   VOICE   48
 BYTE   PAN   c_v-19
 BYTE   VOL   50*FE04ArmyofGrannvale1SurfingKyogre_mvl/mxv
 BYTE   W20
// 010   ----------------------------------------
 BYTE   W96
// 011   ----------------------------------------
Label_3_016ECFB3:
 BYTE   W28
 BYTE   N36  Fn3  v127
 BYTE   W48
 BYTE   N04  Ds3
 BYTE   W12
 BYTE   Cs3
 BYTE   W08
 BYTE   PEND 
// 012   ----------------------------------------
 BYTE   W04
 BYTE   Cn3
 BYTE   W12
 BYTE   Cs3
 BYTE   W12
 BYTE   N36  Ds3
 BYTE   W48
 BYTE   Fn3
 BYTE   W20
// 013   ----------------------------------------
 BYTE   W28
 BYTE   N04  Ds3
 BYTE   W12
 BYTE   Cs3
 BYTE   W12
 BYTE   Cn3
 BYTE   W12
 BYTE   Cs3
 BYTE   W12
 BYTE   N36  As2
 BYTE   W20
// 014   ----------------------------------------
 BYTE   W28
 BYTE   N24  Ds3
 BYTE   W36
 BYTE   N04  Cs3
 BYTE   W12
 BYTE   Cn3
 BYTE   W12
 BYTE   Cs3
 BYTE   W08
// 015   ----------------------------------------
 BYTE   W04
 BYTE   N04
 BYTE   W12
 BYTE   Ds3
 BYTE   W12
 BYTE   N36  Fn3
 BYTE   W48
 BYTE   Gs3
 BYTE   W20
// 016   ----------------------------------------
 BYTE   W28
 BYTE   N04  Fs3
 BYTE   W12
 BYTE   Fn3
 BYTE   W12
 BYTE   Ds3
 BYTE   W12
 BYTE   Fn3
 BYTE   W12
 BYTE   N36  Fs3
 BYTE   W20
// 017   ----------------------------------------
 BYTE   W28
 BYTE   Gs3
 BYTE   W48
 BYTE   N04  Fs3
 BYTE   W12
 BYTE   Fn3
 BYTE   W08
// 018   ----------------------------------------
 BYTE   W04
 BYTE   Ds3
 BYTE   W12
 BYTE   Fn3
 BYTE   W12
 BYTE   N36  Cs3
 BYTE   W48
 BYTE   Fn3
 BYTE   W20
// 019   ----------------------------------------
 BYTE   W28
 BYTE   N04  Ds3
 BYTE   W12
 BYTE   Cs3
 BYTE   W12
 BYTE   Cn3
 BYTE   W12
 BYTE   Cs3
 BYTE   W12
 BYTE   N36  Ds3
 BYTE   W20
 BYTE   PATT
  POIN2 Label_3_016ECFB3
// 020   ----------------------------------------
 BYTE   W04
 BYTE   N04  Cn3  v127
 BYTE   W12
 BYTE   Cs3
 BYTE   W12
 BYTE   N18  Ds3
 BYTE   W24
 BYTE   Cn3
 BYTE   W44
// 021   ----------------------------------------
 BYTE   W96
 BYTE   PATT
  POIN2 Label_3_016ECFB3
// 022   ----------------------------------------
 BYTE   W04
 BYTE   N04  Cn3  v127
 BYTE   W12
 BYTE   Cs3
 BYTE   W12
 BYTE   N36  Ds3
 BYTE   W48
 BYTE   VOICE   48
 BYTE   PAN   c_v+0
 BYTE   VOL   40*FE04ArmyofGrannvale1SurfingKyogre_mvl/mxv
 BYTE   N68  Fs2
 BYTE   W20
// 023   ----------------------------------------
 BYTE   W52
 BYTE   N44
 BYTE   W44
// 024   ----------------------------------------
 BYTE   W06
 BYTE   GoTo
  POIN2 Label_3_016ECF62
// 025   ----------------------------------------
 BYTE   W11
 BYTE   FINE

//**************** Track 5 (Midi-Chn.4) ****************//

FE04ArmyofGrannvale1SurfingKyogre_005:
// 000   ----------------------------------------
 BYTE   KEYSH   FE04ArmyofGrannvale1SurfingKyogre_key+0
 BYTE   PAN   c_v+0
 BYTE   VOL   20*FE04ArmyofGrannvale1SurfingKyogre_mvl/mxv
 BYTE   MOD 0
 BYTE   CnM2
 BYTE   BEND   c_v+0
 BYTE   W04
 BYTE   W92
// 001   ----------------------------------------
 BYTE   W96
// 002   ----------------------------------------
 BYTE   W06
Label_4_016ED05A:
 BYTE   W90
// 003   ----------------------------------------
 BYTE   W96
// 004   ----------------------------------------
 BYTE   W96
// 005   ----------------------------------------
 BYTE   W96
// 006   ----------------------------------------
 BYTE   W96
// 007   ----------------------------------------
 BYTE   W96
// 008   ----------------------------------------
 BYTE   W96
// 009   ----------------------------------------
 BYTE   W76
 BYTE   VOICE   48
 BYTE   PAN   c_v-49
 BYTE   VOL   45*FE04ArmyofGrannvale1SurfingKyogre_mvl/mxv
 BYTE   W20
// 010   ----------------------------------------
 BYTE   W96
// 011   ----------------------------------------
Label_4_016ED06A:
 BYTE   W28
 BYTE   N44  As2  v127
 BYTE   W48
 BYTE   N04
 BYTE   W12
 BYTE   N04
 BYTE   W08
 BYTE   PEND 
// 012   ----------------------------------------
 BYTE   W04
 BYTE   N04
 BYTE   W12
 BYTE   N04
 BYTE   W12
 BYTE   N44
 BYTE   W48
 BYTE   N44
 BYTE   W20
// 013   ----------------------------------------
 BYTE   W28
 BYTE   N04
 BYTE   W12
 BYTE   N04
 BYTE   W12
 BYTE   N04
 BYTE   W12
 BYTE   N04
 BYTE   W12
 BYTE   N44  Fn2
 BYTE   W20
// 014   ----------------------------------------
 BYTE   W28
 BYTE   N32  As2
 BYTE   W36
 BYTE   N04
 BYTE   W12
 BYTE   N04
 BYTE   W12
 BYTE   N04
 BYTE   W08
// 015   ----------------------------------------
 BYTE   W04
 BYTE   N04
 BYTE   W12
 BYTE   N04
 BYTE   W12
 BYTE   N44
 BYTE   W48
 BYTE   Cs3
 BYTE   W20
// 016   ----------------------------------------
 BYTE   W28
 BYTE   N04
 BYTE   W12
 BYTE   N04
 BYTE   W12
 BYTE   N04
 BYTE   W12
 BYTE   N04
 BYTE   W12
 BYTE   N44
 BYTE   W20
// 017   ----------------------------------------
 BYTE   W28
 BYTE   N44
 BYTE   W48
 BYTE   N04
 BYTE   W12
 BYTE   N04
 BYTE   W08
// 018   ----------------------------------------
 BYTE   W04
 BYTE   N04
 BYTE   W12
 BYTE   N04
 BYTE   W12
 BYTE   N44  Gs2
 BYTE   W48
 BYTE   N44
 BYTE   W20
// 019   ----------------------------------------
 BYTE   W28
 BYTE   N04
 BYTE   W12
 BYTE   N04
 BYTE   W12
 BYTE   N04
 BYTE   W12
 BYTE   N04
 BYTE   W12
 BYTE   N44
 BYTE   W20
// 020   ----------------------------------------
 BYTE   W28
 BYTE   N44
 BYTE   W48
 BYTE   N04
 BYTE   W12
 BYTE   N04
 BYTE   W08
// 021   ----------------------------------------
 BYTE   W04
 BYTE   N04
 BYTE   W12
 BYTE   N04
 BYTE   W12
 BYTE   N44
 BYTE   W68
// 022   ----------------------------------------
 BYTE   W96
 BYTE   PATT
  POIN2 Label_4_016ED06A
// 023   ----------------------------------------
 BYTE   W04
 BYTE   N04  As2  v127
 BYTE   W12
 BYTE   N04
 BYTE   W12
 BYTE   N44
 BYTE   W68
// 024   ----------------------------------------
 BYTE   W96
// 025   ----------------------------------------
 BYTE   W06
 BYTE   GoTo
  POIN2 Label_4_016ED05A
// 026   ----------------------------------------
 BYTE   W11
 BYTE   FINE

//**************** Track 6 (Midi-Chn.5) ****************//

FE04ArmyofGrannvale1SurfingKyogre_006:
// 000   ----------------------------------------
 BYTE   KEYSH   FE04ArmyofGrannvale1SurfingKyogre_key+0
 BYTE   PAN   c_v+0
 BYTE   VOL   20*FE04ArmyofGrannvale1SurfingKyogre_mvl/mxv
 BYTE   MOD 0
 BYTE   CnM2
 BYTE   BEND   c_v+0
 BYTE   W04
 BYTE   VOICE   47
 BYTE   PAN   c_v+0
 BYTE   VOL   50*FE04ArmyofGrannvale1SurfingKyogre_mvl/mxv
 BYTE   W12
 BYTE   N12  Fn1  v127
 BYTE   W24
 BYTE   N12
 BYTE   W12
 BYTE   N06  Fn1  v108
 BYTE   W06
 BYTE   N06
 BYTE   W06
 BYTE   Fn1  v088
 BYTE   W06
 BYTE   N06
 BYTE   W18
 BYTE   N12  Fn1  v127
 BYTE   W08
// 001   ----------------------------------------
Label_5_016ED41F:
 BYTE   W16
 BYTE   N12  Fn1  v127
 BYTE   W12
 BYTE   N06  Fn1  v108
 BYTE   W06
 BYTE   N06
 BYTE   W06
 BYTE   Fn1  v088
 BYTE   W06
 BYTE   N06
 BYTE   W18
 BYTE   N12  Fn1  v127
 BYTE   W24
 BYTE   N12
 BYTE   W08
 BYTE   PEND 
// 002   ----------------------------------------
 BYTE   W04
 BYTE   N06  Fn1  v108
 BYTE   W02
Label_5_016ED43B:
 BYTE   W04
 BYTE   N06  Fn1  v108
 BYTE   W06
 BYTE   Fn1  v088
 BYTE   W06
 BYTE   N06
 BYTE   W18
 BYTE   N12  Fn1  v127
 BYTE   W24
 BYTE   N12
 BYTE   W12
 BYTE   N06  Fn1  v108
 BYTE   W06
 BYTE   N06
 BYTE   W06
 BYTE   Fn1  v088
 BYTE   W06
 BYTE   N06
 BYTE   W02
// 003   ----------------------------------------
Label_5_016ED456:
 BYTE   W16
 BYTE   N12  Fn1  v127
 BYTE   W24
 BYTE   N12
 BYTE   W12
 BYTE   N06  Fn1  v108
 BYTE   W06
 BYTE   N06
 BYTE   W06
 BYTE   Fn1  v088
 BYTE   W06
 BYTE   N06
 BYTE   W18
 BYTE   N12  Fn1  v127
 BYTE   W08
 BYTE   PEND 
 BYTE   PATT
  POIN2 Label_5_016ED41F
// 004   ----------------------------------------
Label_5_016ED472:
 BYTE   W04
 BYTE   N06  Fn1  v108
 BYTE   W06
 BYTE   N06
 BYTE   W06
 BYTE   Fn1  v088
 BYTE   W06
 BYTE   N06
 BYTE   W18
 BYTE   N12  Fn1  v127
 BYTE   W24
 BYTE   N12
 BYTE   W12
 BYTE   N06  Fn1  v108
 BYTE   W06
 BYTE   N06
 BYTE   W06
 BYTE   Fn1  v088
 BYTE   W06
 BYTE   N06
 BYTE   W02
 BYTE   PEND 
 BYTE   PATT
  POIN2 Label_5_016ED456
 BYTE   PATT
  POIN2 Label_5_016ED41F
 BYTE   PATT
  POIN2 Label_5_016ED472
 BYTE   PATT
  POIN2 Label_5_016ED456
 BYTE   PATT
  POIN2 Label_5_016ED41F
 BYTE   PATT
  POIN2 Label_5_016ED472
 BYTE   PATT
  POIN2 Label_5_016ED456
 BYTE   PATT
  POIN2 Label_5_016ED41F
 BYTE   PATT
  POIN2 Label_5_016ED472
 BYTE   PATT
  POIN2 Label_5_016ED456
 BYTE   PATT
  POIN2 Label_5_016ED41F
 BYTE   PATT
  POIN2 Label_5_016ED472
 BYTE   PATT
  POIN2 Label_5_016ED456
 BYTE   PATT
  POIN2 Label_5_016ED41F
 BYTE   PATT
  POIN2 Label_5_016ED472
 BYTE   PATT
  POIN2 Label_5_016ED456
 BYTE   PATT
  POIN2 Label_5_016ED41F
 BYTE   PATT
  POIN2 Label_5_016ED472
 BYTE   PATT
  POIN2 Label_5_016ED456
 BYTE   PATT
  POIN2 Label_5_016ED41F
// 005   ----------------------------------------
 BYTE   W04
 BYTE   N06  Fn1  v108
 BYTE   W02
 BYTE   GoTo
  POIN2 Label_5_016ED43B
// 006   ----------------------------------------
 BYTE   W04
 BYTE   N06  Fn1  v108
 BYTE   W07
 BYTE   FINE

//**************** Track 7 (Midi-Chn.6) ****************//

FE04ArmyofGrannvale1SurfingKyogre_007:
// 000   ----------------------------------------
 BYTE   KEYSH   FE04ArmyofGrannvale1SurfingKyogre_key+0
 BYTE   PAN   c_v+0
 BYTE   VOL   20*FE04ArmyofGrannvale1SurfingKyogre_mvl/mxv
 BYTE   MOD 0
 BYTE   CnM2
 BYTE   BEND   c_v+0
 BYTE   W04
 BYTE   VOICE   121
 BYTE   VOL   35*FE04ArmyofGrannvale1SurfingKyogre_mvl/mxv
 BYTE   N01  Dn1  v127
 BYTE   W12
 BYTE   Dn1  v088
 BYTE   W06
 BYTE   N01
 BYTE   W06
 BYTE   Dn1  v127
 BYTE   W12
 BYTE   Dn1  v088
 BYTE   W06
 BYTE   N01
 BYTE   W06
 BYTE   N01
 BYTE   W06
 BYTE   N01
 BYTE   W06
 BYTE   N01
 BYTE   W06
 BYTE   N01
 BYTE   W06
 BYTE   Dn1  v127
 BYTE   W12
 BYTE   Dn1  v088
 BYTE   W06
 BYTE   N01
 BYTE   W02
// 001   ----------------------------------------
Label_6_016ED534:
 BYTE   W04
 BYTE   N01  Dn1  v127
 BYTE   W12
 BYTE   Dn1  v088
 BYTE   W06
 BYTE   N01
 BYTE   W06
 BYTE   N01
 BYTE   W06
 BYTE   N01
 BYTE   W06
 BYTE   N01
 BYTE   W06
 BYTE   N01
 BYTE   W06
 BYTE   Dn1  v127
 BYTE   W12
 BYTE   Dn1  v088
 BYTE   W06
 BYTE   N01
 BYTE   W06
 BYTE   Dn1  v127
 BYTE   W12
 BYTE   Dn1  v088
 BYTE   W06
 BYTE   N01
 BYTE   W02
 BYTE   PEND 
// 002   ----------------------------------------
 BYTE   W04
 BYTE   N01
 BYTE   W02
Label_6_016ED55A:
 BYTE   W04
 BYTE   N01  Dn1  v088
 BYTE   W06
 BYTE   N01
 BYTE   W06
 BYTE   N01
 BYTE   W06
 BYTE   Dn1  v127
 BYTE   W12
 BYTE   Dn1  v088
 BYTE   W06
 BYTE   N01
 BYTE   W06
 BYTE   Dn1  v127
 BYTE   W12
 BYTE   Dn1  v088
 BYTE   W06
 BYTE   N01
 BYTE   W06
 BYTE   N01
 BYTE   W06
 BYTE   N01
 BYTE   W06
 BYTE   N01
 BYTE   W06
 BYTE   N01
 BYTE   W02
// 003   ----------------------------------------
Label_6_016ED57B:
 BYTE   W04
 BYTE   N01  Dn1  v127
 BYTE   W12
 BYTE   Dn1  v088
 BYTE   W06
 BYTE   N01
 BYTE   W06
 BYTE   Dn1  v127
 BYTE   W12
 BYTE   Dn1  v088
 BYTE   W06
 BYTE   N01
 BYTE   W06
 BYTE   N01
 BYTE   W06
 BYTE   N01
 BYTE   W06
 BYTE   N01
 BYTE   W06
 BYTE   N01
 BYTE   W06
 BYTE   Dn1  v127
 BYTE   W12
 BYTE   Dn1  v088
 BYTE   W06
 BYTE   N01
 BYTE   W02
 BYTE   PEND 
 BYTE   PATT
  POIN2 Label_6_016ED534
// 004   ----------------------------------------
Label_6_016ED5A3:
 BYTE   W04
 BYTE   N01  Dn1  v088
 BYTE   W06
 BYTE   N01
 BYTE   W06
 BYTE   N01
 BYTE   W06
 BYTE   N01
 BYTE   W06
 BYTE   Dn1  v127
 BYTE   W12
 BYTE   Dn1  v088
 BYTE   W06
 BYTE   N01
 BYTE   W06
 BYTE   Dn1  v127
 BYTE   W12
 BYTE   Dn1  v088
 BYTE   W06
 BYTE   N01
 BYTE   W06
 BYTE   N01
 BYTE   W06
 BYTE   N01
 BYTE   W06
 BYTE   N01
 BYTE   W06
 BYTE   N01
 BYTE   W02
 BYTE   PEND 
 BYTE   PATT
  POIN2 Label_6_016ED57B
 BYTE   PATT
  POIN2 Label_6_016ED534
 BYTE   PATT
  POIN2 Label_6_016ED5A3
 BYTE   PATT
  POIN2 Label_6_016ED57B
 BYTE   PATT
  POIN2 Label_6_016ED534
 BYTE   PATT
  POIN2 Label_6_016ED5A3
 BYTE   PATT
  POIN2 Label_6_016ED57B
 BYTE   PATT
  POIN2 Label_6_016ED534
 BYTE   PATT
  POIN2 Label_6_016ED5A3
 BYTE   PATT
  POIN2 Label_6_016ED57B
 BYTE   PATT
  POIN2 Label_6_016ED534
 BYTE   PATT
  POIN2 Label_6_016ED5A3
 BYTE   PATT
  POIN2 Label_6_016ED57B
 BYTE   PATT
  POIN2 Label_6_016ED534
 BYTE   PATT
  POIN2 Label_6_016ED5A3
 BYTE   PATT
  POIN2 Label_6_016ED57B
 BYTE   PATT
  POIN2 Label_6_016ED534
 BYTE   PATT
  POIN2 Label_6_016ED5A3
 BYTE   PATT
  POIN2 Label_6_016ED57B
 BYTE   PATT
  POIN2 Label_6_016ED534
// 005   ----------------------------------------
 BYTE   W04
 BYTE   N01  Dn1  v088
 BYTE   W02
 BYTE   GoTo
  POIN2 Label_6_016ED55A
// 006   ----------------------------------------
 BYTE   W04
 BYTE   N01  Dn1  v088
 BYTE   W06
 BYTE   N01
 BYTE   W01
 BYTE   FINE

//******************************************************//
	ALIGN 4

FE04ArmyofGrannvale1SurfingKyogre:
	BYTE	7	// NumTrks
	BYTE	0	// NumBlks
	BYTE	FE04ArmyofGrannvale1SurfingKyogre_pri	// Priority
	BYTE	FE04ArmyofGrannvale1SurfingKyogre_rev	// Reverb.
    
	POIN2	FE04ArmyofGrannvale1SurfingKyogre_grp
    
	POIN2	FE04ArmyofGrannvale1SurfingKyogre_001
	POIN2	FE04ArmyofGrannvale1SurfingKyogre_002
	POIN2	FE04ArmyofGrannvale1SurfingKyogre_003
	POIN2	FE04ArmyofGrannvale1SurfingKyogre_004
	POIN2	FE04ArmyofGrannvale1SurfingKyogre_005
	POIN2	FE04ArmyofGrannvale1SurfingKyogre_006
	POIN2	FE04ArmyofGrannvale1SurfingKyogre_007

	
