//Event file generated from Sappy .s format.
	#include "MPlayDef.event"

	#define	FE04Lover4SurfingKyogre_grp  voicegroup000
	#define	FE04Lover4SurfingKyogre_pri  0
	#define	FE04Lover4SurfingKyogre_rev  0
	#define	FE04Lover4SurfingKyogre_mvl  127
	#define	FE04Lover4SurfingKyogre_key  0
	#define	FE04Lover4SurfingKyogre_tbs  1
	#define	FE04Lover4SurfingKyogre_exg  0
	#define	FE04Lover4SurfingKyogre_cmp  1

	// .rodata
	//	FE04Lover4SurfingKyogre
	ALIGN 4


//**************** Track 1 (Midi-Chn.0) ****************//

FE04Lover4SurfingKyogre_001:
// 000   ----------------------------------------
 BYTE   KEYSH   FE04Lover4SurfingKyogre_key+0
 BYTE   TEMPO   38*FE04Lover4SurfingKyogre_tbs/2
 BYTE   W06
Label_0_015A7A2D:
 BYTE   TEMPO   36*FE04Lover4SurfingKyogre_tbs/2
 BYTE   W03
 BYTE   VOICE   10
 BYTE   VOL   31*FE04Lover4SurfingKyogre_mvl/mxv
 BYTE   PAN   c_v+25
 BYTE   N21  En4  v104
 BYTE   W24
 BYTE   N10  Bn4  v092
 BYTE   W12
 BYTE   N03  An4  v104
 BYTE   W06
 BYTE   Gs4
 BYTE   W06
 BYTE   N21  Fs4
 BYTE   W24
 BYTE   Bn4  v092
 BYTE   W15
// 001   ----------------------------------------
 BYTE   W09
 BYTE   N10
 BYTE   W12
 BYTE   An4  v104
 BYTE   W12
 BYTE   Gs4
 BYTE   W12
 BYTE   N03  Fs4
 BYTE   W06
 BYTE   En4
 BYTE   W06
 BYTE   N21  Fs4
 BYTE   W23
 BYTE   N10  Bn3
 BYTE   W12
 BYTE   N11  Ds4
 BYTE   W04
// 002   ----------------------------------------
 BYTE   W09
 BYTE   N21  En4
 BYTE   W24
 BYTE   N10  Cs4
 BYTE   W12
 BYTE   Fs4
 BYTE   W12
 BYTE   N21  En4
 BYTE   W24
 BYTE   N22  Bn3
 BYTE   W15
// 003   ----------------------------------------
 BYTE   W09
 BYTE   N21  Cs4
 BYTE   W24
 BYTE   N10  Ds4
 BYTE   W12
 BYTE   N03  En4
 BYTE   W06
 BYTE   Fs4
 BYTE   W06
 BYTE   N21  En4
 BYTE   W24
 BYTE   N22  Ds4
 BYTE   W15
// 004   ----------------------------------------
 BYTE   W07
 BYTE   GoTo
  POIN2 Label_0_015A7A2D
 BYTE   FINE

//**************** Track 2 (Midi-Chn.1) ****************//

FE04Lover4SurfingKyogre_002:
// 000   ----------------------------------------
 BYTE   KEYSH   FE04Lover4SurfingKyogre_key+0
 BYTE   W06
Label_1_015A7A8B:
 BYTE   VOICE   10
 BYTE   VOL   31*FE04Lover4SurfingKyogre_mvl/mxv
 BYTE   PAN   c_v+0
 BYTE   N14  En4  v092
 BYTE   W24
 BYTE   N07  Bn4  v096
 BYTE   W12
 BYTE   N01  An4  v092
 BYTE   W06
 BYTE   Gs4
 BYTE   W06
 BYTE   N14  Fs4
 BYTE   W24
 BYTE   Bn4  v096
 BYTE   W18
// 001   ----------------------------------------
 BYTE   W06
 BYTE   N07
 BYTE   W12
 BYTE   An4  v092
 BYTE   W12
 BYTE   Gs4
 BYTE   W12
 BYTE   N01  Fs4
 BYTE   W06
 BYTE   En4
 BYTE   W06
 BYTE   N14  Fs4
 BYTE   W24
 BYTE   N07  Bn3
 BYTE   W12
 BYTE   Ds4
 BYTE   W06
// 002   ----------------------------------------
 BYTE   W06
 BYTE   N14  En4
 BYTE   W24
 BYTE   N07  Cs4
 BYTE   W12
 BYTE   Fs4
 BYTE   W12
 BYTE   N14  En4
 BYTE   W24
 BYTE   N15  Bn3
 BYTE   W18
// 003   ----------------------------------------
 BYTE   W06
 BYTE   N14  Cs4
 BYTE   W24
 BYTE   N07  Ds4
 BYTE   W12
 BYTE   N01  En4
 BYTE   W06
 BYTE   Fs4
 BYTE   W06
 BYTE   N14  En4
 BYTE   W24
 BYTE   Ds4
 BYTE   W18
// 004   ----------------------------------------
 BYTE   W07
 BYTE   GoTo
  POIN2 Label_1_015A7A8B
 BYTE   FINE

//**************** Track 3 (Midi-Chn.2) ****************//

FE04Lover4SurfingKyogre_003:
// 000   ----------------------------------------
 BYTE   KEYSH   FE04Lover4SurfingKyogre_key+0
 BYTE   W06
Label_2_015A7AE7:
 BYTE   VOICE   10
 BYTE   VOL   40*FE04Lover4SurfingKyogre_mvl/mxv
 BYTE   PAN   c_v-25
 BYTE   N44  En3  v092
 BYTE   W48
 BYTE   Bn2
 BYTE   W42
// 001   ----------------------------------------
Label_2_015A7AF3:
 BYTE   W06
 BYTE   N44  An2  v092
 BYTE   W48
 BYTE   Bn2
 BYTE   W42
 BYTE   PEND 
// 002   ----------------------------------------
 BYTE   W06
 BYTE   An2
 BYTE   W48
 BYTE   Gs2
 BYTE   W42
 BYTE   PATT
  POIN2 Label_2_015A7AF3
// 003   ----------------------------------------
 BYTE   W07
 BYTE   GoTo
  POIN2 Label_2_015A7AE7
 BYTE   FINE

//**************** Track 4 (Midi-Chn.3) ****************//

FE04Lover4SurfingKyogre_004:
// 000   ----------------------------------------
 BYTE   KEYSH   FE04Lover4SurfingKyogre_key+0
 BYTE   W06
Label_3_015A7B0F:
 BYTE   W02
 BYTE   VOICE   10
 BYTE   VOL   34*FE04Lover4SurfingKyogre_mvl/mxv
 BYTE   PAN   c_v-14
 BYTE   N44  Bn3  v092
 BYTE   W48
 BYTE   Fs3
 BYTE   W40
// 001   ----------------------------------------
Label_3_015A7B1C:
 BYTE   W08
 BYTE   N44  En3  v092
 BYTE   W48
 BYTE   Fs3
 BYTE   W40
 BYTE   PEND 
// 002   ----------------------------------------
 BYTE   W08
 BYTE   En3
 BYTE   W48
 BYTE   N44
 BYTE   W40
 BYTE   PATT
  POIN2 Label_3_015A7B1C
// 003   ----------------------------------------
 BYTE   W07
 BYTE   GoTo
  POIN2 Label_3_015A7B0F
 BYTE   FINE

//**************** Track 5 (Midi-Chn.4) ****************//

FE04Lover4SurfingKyogre_005:
// 000   ----------------------------------------
 BYTE   KEYSH   FE04Lover4SurfingKyogre_key+0
 BYTE   W06
Label_4_015A7B3B:
 BYTE   W01
 BYTE   VOICE   10
 BYTE   VOL   44*FE04Lover4SurfingKyogre_mvl/mxv
 BYTE   PAN   c_v+14
 BYTE   W24
 BYTE   N07  En4  v104
 BYTE   W12
 BYTE   N01
 BYTE   W06
 BYTE   N01
 BYTE   W06
 BYTE   N14  Ds4
 BYTE   W24
 BYTE   N14
 BYTE   W17
// 001   ----------------------------------------
 BYTE   W07
 BYTE   N07  Cs4
 BYTE   W12
 BYTE   N07
 BYTE   W12
 BYTE   N07
 BYTE   W12
 BYTE   N01
 BYTE   W06
 BYTE   N01
 BYTE   W06
 BYTE   N14  Ds4
 BYTE   W36
 BYTE   N07  Bn3
 BYTE   W05
// 002   ----------------------------------------
 BYTE   W07
 BYTE   N14  Cs4
 BYTE   W24
 BYTE   N07  An3
 BYTE   W12
 BYTE   Ds4
 BYTE   W12
 BYTE   N14  Bn3
 BYTE   W24
 BYTE   N15  Gs3
 BYTE   W17
// 003   ----------------------------------------
 BYTE   W07
 BYTE   N14  An3
 BYTE   W24
 BYTE   N07  Bn3
 BYTE   W12
 BYTE   N01  Cs4
 BYTE   W06
 BYTE   N01
 BYTE   W06
 BYTE   N14  Bn3
 BYTE   W24
 BYTE   N14
 BYTE   W17
// 004   ----------------------------------------
 BYTE   W07
 BYTE   GoTo
  POIN2 Label_4_015A7B3B
 BYTE   FINE

//**************** Track 6 (Midi-Chn.5) ****************//

FE04Lover4SurfingKyogre_006:
// 000   ----------------------------------------
 BYTE   KEYSH   FE04Lover4SurfingKyogre_key+0
 BYTE   W06
Label_5_015A7B8F:
 BYTE   VOICE   10
 BYTE   VOL   44*FE04Lover4SurfingKyogre_mvl/mxv
 BYTE   PAN   c_v+34
 BYTE   N14  En4  v104
 BYTE   W24
 BYTE   N07  Bn4  v092
 BYTE   W12
 BYTE   N01  An4  v104
 BYTE   W06
 BYTE   Gs4
 BYTE   W06
 BYTE   N14  Fs4
 BYTE   W24
 BYTE   Bn4  v092
 BYTE   W18
// 001   ----------------------------------------
 BYTE   W06
 BYTE   N07
 BYTE   W12
 BYTE   An4  v104
 BYTE   W12
 BYTE   Gs4
 BYTE   W12
 BYTE   N01  Fs4
 BYTE   W06
 BYTE   En4
 BYTE   W06
 BYTE   N14  Fs4
 BYTE   W24
 BYTE   N07  Bn3
 BYTE   W12
 BYTE   Ds4
 BYTE   W06
// 002   ----------------------------------------
 BYTE   W06
 BYTE   N14  En4
 BYTE   W24
 BYTE   N07  Cs4
 BYTE   W12
 BYTE   Fs4
 BYTE   W12
 BYTE   N14  En4
 BYTE   W24
 BYTE   N15  Bn3
 BYTE   W18
// 003   ----------------------------------------
 BYTE   W06
 BYTE   N14  Cs4
 BYTE   W24
 BYTE   N07  Ds4
 BYTE   W12
 BYTE   N01  En4
 BYTE   W06
 BYTE   Fs4
 BYTE   W06
 BYTE   N14  En4
 BYTE   W24
 BYTE   Ds4
 BYTE   W18
// 004   ----------------------------------------
 BYTE   W07
 BYTE   GoTo
  POIN2 Label_5_015A7B8F
 BYTE   FINE

//******************************************************//
	ALIGN 4

FE04Lover4SurfingKyogre:
	BYTE	6	// NumTrks
	BYTE	0	// NumBlks
	BYTE	FE04Lover4SurfingKyogre_pri	// Priority
	BYTE	FE04Lover4SurfingKyogre_rev	// Reverb.
    
	POIN2	FE04Lover4SurfingKyogre_grp
    
	POIN2	FE04Lover4SurfingKyogre_001
	POIN2	FE04Lover4SurfingKyogre_002
	POIN2	FE04Lover4SurfingKyogre_003
	POIN2	FE04Lover4SurfingKyogre_004
	POIN2	FE04Lover4SurfingKyogre_005
	POIN2	FE04Lover4SurfingKyogre_006

	
