//Event file generated from Sappy .s format.
	#include "MPlayDef.event"

	#define	FE04WhenTheRushComesMrGreen3339_grp  voicegroup000
	#define	FE04WhenTheRushComesMrGreen3339_pri  0
	#define	FE04WhenTheRushComesMrGreen3339_rev  0
	#define	FE04WhenTheRushComesMrGreen3339_mvl  127
	#define	FE04WhenTheRushComesMrGreen3339_key  0
	#define	FE04WhenTheRushComesMrGreen3339_tbs  1
	#define	FE04WhenTheRushComesMrGreen3339_exg  0
	#define	FE04WhenTheRushComesMrGreen3339_cmp  1

	// .rodata
	//	FE04WhenTheRushComesMrGreen3339
	ALIGN 4


//**************** Track 1 (Midi-Chn.0) ****************//

FE04WhenTheRushComesMrGreen3339_001:
// 000   ----------------------------------------
 BYTE   KEYSH   FE04WhenTheRushComesMrGreen3339_key+0
 BYTE   TEMPO   104*FE04WhenTheRushComesMrGreen3339_tbs/2
 BYTE   PAN   c_v+0
 BYTE   VOL   32*FE04WhenTheRushComesMrGreen3339_mvl/mxv
 BYTE   MOD 0
 BYTE   CnM2
 BYTE   BEND   c_v+0
 BYTE   W05
 BYTE   VOICE   60
 BYTE   PAN   c_v+0
 BYTE   VOL   57*FE04WhenTheRushComesMrGreen3339_mvl/mxv
 BYTE   W56
 BYTE   N02  Cs3  v127
 BYTE   W04
 BYTE   Ds3
 BYTE   W04
 BYTE   En3
 BYTE   W04
 BYTE   Fs3
 BYTE   W04
 BYTE   N68  Gs3
 BYTE   W19
// 001   ----------------------------------------
 BYTE   W52
 BYTE   W01
 BYTE   N44  Fs3
 BYTE   W42
 BYTE   W01
// 002   ----------------------------------------
 BYTE   W05
 BYTE   N22  En3
 BYTE   W24
 BYTE   N68  Ds3
 BYTE   W66
 BYTE   W01
// 003   ----------------------------------------
 BYTE   W05
 BYTE   N44  Cs3
 BYTE   W48
 BYTE   N02
 BYTE   W04
 BYTE   Ds3
 BYTE   W04
 BYTE   En3
 BYTE   W04
 BYTE   Fs3
 BYTE   W04
 BYTE   Gs3
 BYTE   W04
 BYTE   Bn3
 BYTE   W04
 BYTE   N44  Cs4
 BYTE   W19
// 004   ----------------------------------------
 BYTE   W28
 BYTE   W01
 BYTE   N02
 BYTE   W04
 BYTE   Ds4
 BYTE   W04
 BYTE   En4
 BYTE   W04
 BYTE   Fs4
 BYTE   W04
 BYTE   Gs4
 BYTE   W04
 BYTE   Bn4
 BYTE   W04
 BYTE   N44  Cs5
 BYTE   W42
 BYTE   W01
// 005   ----------------------------------------
 BYTE   W05
 BYTE   N22  Gs4
 BYTE   W24
 BYTE   N44  Fs4
 BYTE   W48
 BYTE   N22  En4
 BYTE   W19
// 006   ----------------------------------------
 BYTE   W05
 BYTE   N44  Ds4
 BYTE   W48
 BYTE   N22  Bn3
 BYTE   W24
 BYTE   N68  Cs4
 BYTE   W19
// 007   ----------------------------------------
 BYTE   W52
 BYTE   W01
 BYTE   N44  Bn3
 BYTE   W42
 BYTE   W01
// 008   ----------------------------------------
 BYTE   W05
 BYTE   N22  Cn4
 BYTE   W24
 BYTE   N44  Bn3
 BYTE   W48
 BYTE   N22  Cn4
 BYTE   W19
// 009   ----------------------------------------
 BYTE   W05
 BYTE   En4
 BYTE   W24
 BYTE   Dn4
 BYTE   W24
 BYTE   Cn4
 BYTE   W24
 BYTE   N44  Bn3
 BYTE   W19
// 010   ----------------------------------------
 BYTE   W28
 BYTE   W01
 BYTE   N22  An3
 BYTE   W24
 BYTE   N44  Gn3
 BYTE   W42
 BYTE   W01
// 011   ----------------------------------------
 BYTE   W05
 BYTE   N22  Fn3
 BYTE   W24
 BYTE   N44  En3
 BYTE   W48
 BYTE   N22  Bn3
 BYTE   W19
// 012   ----------------------------------------
 BYTE   W05
 BYTE   N80  An3
 BYTE   W90
 BYTE   W01
// 013   ----------------------------------------
 BYTE   W52
 BYTE   W01
 BYTE   VOICE   60
 BYTE   PAN   c_v+0
 BYTE   VOL   57*FE04WhenTheRushComesMrGreen3339_mvl/mxv
 BYTE   W07
Label_0_0116A223:
 BYTE   W36
// 014   ----------------------------------------
 BYTE   W13
 BYTE   N02  Cs3  v127
 BYTE   W04
 BYTE   Ds3
 BYTE   W04
 BYTE   En3
 BYTE   W04
 BYTE   Fs3
 BYTE   W04
 BYTE   N68  Gs3
 BYTE   W66
 BYTE   W01
// 015   ----------------------------------------
 BYTE   W05
 BYTE   N44  Fs3
 BYTE   W48
 BYTE   N22  En3
 BYTE   W24
 BYTE   N68  Ds3
 BYTE   W19
// 016   ----------------------------------------
 BYTE   W52
 BYTE   W01
 BYTE   N44  Cs3
 BYTE   W42
 BYTE   W01
// 017   ----------------------------------------
 BYTE   W05
 BYTE   N02
 BYTE   W04
 BYTE   Ds3
 BYTE   W04
 BYTE   En3
 BYTE   W04
 BYTE   Fs3
 BYTE   W04
 BYTE   Gs3
 BYTE   W04
 BYTE   Bn3
 BYTE   W04
 BYTE   N44  Cs4
 BYTE   W48
 BYTE   N02
 BYTE   W04
 BYTE   Ds4
 BYTE   W04
 BYTE   En4
 BYTE   W04
 BYTE   Fs4
 BYTE   W04
 BYTE   Gs4
 BYTE   W03
// 018   ----------------------------------------
 BYTE   W01
 BYTE   Bn4
 BYTE   W04
 BYTE   N44  Cs5
 BYTE   W48
 BYTE   N22  Gs4
 BYTE   W24
 BYTE   N44  Fs4
 BYTE   W19
// 019   ----------------------------------------
 BYTE   W28
 BYTE   W01
 BYTE   N22  En4
 BYTE   W24
 BYTE   N44  Ds4
 BYTE   W42
 BYTE   W01
// 020   ----------------------------------------
 BYTE   W05
 BYTE   N22  Bn3
 BYTE   W24
 BYTE   N68  Cs4
 BYTE   W66
 BYTE   W01
// 021   ----------------------------------------
 BYTE   W05
 BYTE   N44  Bn3
 BYTE   W48
 BYTE   N22  Cn4
 BYTE   W24
 BYTE   N44  Bn3
 BYTE   W19
// 022   ----------------------------------------
 BYTE   W28
 BYTE   W01
 BYTE   N22  Cn4
 BYTE   W24
 BYTE   En4
 BYTE   W24
 BYTE   Dn4
 BYTE   W19
// 023   ----------------------------------------
 BYTE   W05
 BYTE   Cn4
 BYTE   W24
 BYTE   N44  Bn3
 BYTE   W48
 BYTE   N22  An3
 BYTE   W19
// 024   ----------------------------------------
 BYTE   W05
 BYTE   N44  Gn3
 BYTE   W48
 BYTE   N22  Fn3
 BYTE   W24
 BYTE   N44  En3
 BYTE   W19
// 025   ----------------------------------------
 BYTE   W28
 BYTE   W01
 BYTE   N22  Bn3
 BYTE   W24
 BYTE   N80  An3
 BYTE   W42
 BYTE   W01
// 026   ----------------------------------------
 BYTE   W90
 BYTE   W01
 BYTE   GoTo
  POIN2 Label_0_0116A223
 BYTE   FINE

//**************** Track 2 (Midi-Chn.1) ****************//

FE04WhenTheRushComesMrGreen3339_002:
// 000   ----------------------------------------
 BYTE   KEYSH   FE04WhenTheRushComesMrGreen3339_key+0
 BYTE   PAN   c_v+0
 BYTE   VOL   32*FE04WhenTheRushComesMrGreen3339_mvl/mxv
 BYTE   MOD 0
 BYTE   CnM2
 BYTE   BEND   c_v+0
 BYTE   W05
 BYTE   VOICE   60
 BYTE   PAN   c_v+16
 BYTE   VOL   45*FE04WhenTheRushComesMrGreen3339_mvl/mxv
 BYTE   W12
 BYTE   BEND   c_v-1
 BYTE   W56
 BYTE   N02  Cs3  v127
 BYTE   W04
 BYTE   Ds3
 BYTE   W04
 BYTE   En3
 BYTE   W04
 BYTE   Fs3
 BYTE   W04
 BYTE   N68  Gs3
 BYTE   W07
// 001   ----------------------------------------
 BYTE   W64
 BYTE   W01
 BYTE   N44  Fs3
 BYTE   W30
 BYTE   W01
// 002   ----------------------------------------
 BYTE   W17
 BYTE   N22  En3
 BYTE   W24
 BYTE   N68  Ds3
 BYTE   W54
 BYTE   W01
// 003   ----------------------------------------
 BYTE   W17
 BYTE   N44  Cs3
 BYTE   W48
 BYTE   N02
 BYTE   W04
 BYTE   Ds3
 BYTE   W04
 BYTE   En3
 BYTE   W04
 BYTE   Fs3
 BYTE   W04
 BYTE   Gs3
 BYTE   W04
 BYTE   Bn3
 BYTE   W04
 BYTE   N44  Cs4
 BYTE   W07
// 004   ----------------------------------------
 BYTE   W40
 BYTE   W01
 BYTE   N02
 BYTE   W04
 BYTE   Ds4
 BYTE   W04
 BYTE   En4
 BYTE   W04
 BYTE   Fs4
 BYTE   W04
 BYTE   Gs4
 BYTE   W04
 BYTE   Bn4
 BYTE   W04
 BYTE   N44  Cs5
 BYTE   W30
 BYTE   W01
// 005   ----------------------------------------
 BYTE   W17
 BYTE   N22  Gs4
 BYTE   W24
 BYTE   N44  Fs4
 BYTE   W48
 BYTE   N22  En4
 BYTE   W07
// 006   ----------------------------------------
 BYTE   W17
 BYTE   N44  Ds4
 BYTE   W48
 BYTE   N22  Bn3
 BYTE   W24
 BYTE   N68  Cs4
 BYTE   W07
// 007   ----------------------------------------
 BYTE   W64
 BYTE   W01
 BYTE   N44  Bn3
 BYTE   W30
 BYTE   W01
// 008   ----------------------------------------
 BYTE   W17
 BYTE   N22  Cn4
 BYTE   W24
 BYTE   N44  Bn3
 BYTE   W48
 BYTE   N22  Cn4
 BYTE   W07
// 009   ----------------------------------------
 BYTE   W17
 BYTE   En4
 BYTE   W24
 BYTE   Dn4
 BYTE   W24
 BYTE   Cn4
 BYTE   W24
 BYTE   N44  Bn3
 BYTE   W07
// 010   ----------------------------------------
 BYTE   W40
 BYTE   W01
 BYTE   N22  An3
 BYTE   W24
 BYTE   N44  Gn3
 BYTE   W30
 BYTE   W01
// 011   ----------------------------------------
 BYTE   W17
 BYTE   N22  Fn3
 BYTE   W24
 BYTE   N44  En3
 BYTE   W48
 BYTE   N22  Bn3
 BYTE   W07
// 012   ----------------------------------------
 BYTE   W17
 BYTE   N80  An3
 BYTE   W78
 BYTE   W01
// 013   ----------------------------------------
 BYTE   W52
 BYTE   W01
 BYTE   VOICE   60
 BYTE   PAN   c_v+16
 BYTE   VOL   45*FE04WhenTheRushComesMrGreen3339_mvl/mxv
 BYTE   W07
Label_1_0116A368:
 BYTE   W36
// 014   ----------------------------------------
 BYTE   W24
 BYTE   W01
 BYTE   N02  Cs3  v127
 BYTE   W04
 BYTE   Ds3
 BYTE   W04
 BYTE   En3
 BYTE   W04
 BYTE   Fs3
 BYTE   W04
 BYTE   N68  Gs3
 BYTE   W54
 BYTE   W01
// 015   ----------------------------------------
 BYTE   W17
 BYTE   N44  Fs3
 BYTE   W48
 BYTE   N22  En3
 BYTE   W24
 BYTE   N68  Ds3
 BYTE   W07
// 016   ----------------------------------------
 BYTE   W64
 BYTE   W01
 BYTE   N44  Cs3
 BYTE   W30
 BYTE   W01
// 017   ----------------------------------------
 BYTE   W17
 BYTE   N02
 BYTE   W04
 BYTE   Ds3
 BYTE   W04
 BYTE   En3
 BYTE   W04
 BYTE   Fs3
 BYTE   W04
 BYTE   Gs3
 BYTE   W04
 BYTE   Bn3
 BYTE   W04
 BYTE   N44  Cs4
 BYTE   W48
 BYTE   N02
 BYTE   W04
 BYTE   Ds4
 BYTE   W03
// 018   ----------------------------------------
 BYTE   W01
 BYTE   En4
 BYTE   W04
 BYTE   Fs4
 BYTE   W04
 BYTE   Gs4
 BYTE   W04
 BYTE   Bn4
 BYTE   W04
 BYTE   N44  Cs5
 BYTE   W48
 BYTE   N22  Gs4
 BYTE   W24
 BYTE   N44  Fs4
 BYTE   W07
// 019   ----------------------------------------
 BYTE   W40
 BYTE   W01
 BYTE   N22  En4
 BYTE   W24
 BYTE   N44  Ds4
 BYTE   W30
 BYTE   W01
// 020   ----------------------------------------
 BYTE   W17
 BYTE   N22  Bn3
 BYTE   W24
 BYTE   N68  Cs4
 BYTE   W54
 BYTE   W01
// 021   ----------------------------------------
 BYTE   W17
 BYTE   N44  Bn3
 BYTE   W48
 BYTE   N22  Cn4
 BYTE   W24
 BYTE   N44  Bn3
 BYTE   W07
// 022   ----------------------------------------
 BYTE   W40
 BYTE   W01
 BYTE   N22  Cn4
 BYTE   W24
 BYTE   En4
 BYTE   W24
 BYTE   Dn4
 BYTE   W07
// 023   ----------------------------------------
 BYTE   W17
 BYTE   Cn4
 BYTE   W24
 BYTE   N44  Bn3
 BYTE   W48
 BYTE   N22  An3
 BYTE   W07
// 024   ----------------------------------------
 BYTE   W17
 BYTE   N44  Gn3
 BYTE   W48
 BYTE   N22  Fn3
 BYTE   W24
 BYTE   N44  En3
 BYTE   W07
// 025   ----------------------------------------
 BYTE   W40
 BYTE   W01
 BYTE   N22  Bn3
 BYTE   W24
 BYTE   N80  An3
 BYTE   W30
 BYTE   W01
// 026   ----------------------------------------
 BYTE   W90
 BYTE   W01
 BYTE   GoTo
  POIN2 Label_1_0116A368
 BYTE   FINE

//**************** Track 3 (Midi-Chn.2) ****************//

FE04WhenTheRushComesMrGreen3339_003:
// 000   ----------------------------------------
 BYTE   KEYSH   FE04WhenTheRushComesMrGreen3339_key+0
 BYTE   PAN   c_v+0
 BYTE   VOL   32*FE04WhenTheRushComesMrGreen3339_mvl/mxv
 BYTE   MOD 0
 BYTE   CnM2
 BYTE   BEND   c_v+0
 BYTE   W05
 BYTE   VOICE   48
 BYTE   PAN   c_v+26
 BYTE   VOL   49*FE04WhenTheRushComesMrGreen3339_mvl/mxv
 BYTE   W90
 BYTE   W01
// 001   ----------------------------------------
 BYTE   W52
 BYTE   W01
 BYTE   N44  Ds4  v127
 BYTE   W42
 BYTE   W01
// 002   ----------------------------------------
 BYTE   W05
 BYTE   N22  En4
 BYTE   W24
 BYTE   TIE  Cs4
 BYTE   W66
 BYTE   W01
// 003   ----------------------------------------
Label_2_0116A42E:
 BYTE   W32
 BYTE   W03
 BYTE   VOL   45*FE04WhenTheRushComesMrGreen3339_mvl/mxv
 BYTE   W06
 BYTE   En1
 BYTE   W06
 BYTE   Cn1
 BYTE   W06
 BYTE   Gs0
 BYTE   W06
 BYTE   En0
 BYTE   W06
 BYTE   Cn0
 BYTE   W06
 BYTE   GsM1
 BYTE   W04
 BYTE   PEND 
 BYTE   EOT
 BYTE   Cs4
 BYTE   W02
 BYTE   VOICE   63
 BYTE   VOL   36*FE04WhenTheRushComesMrGreen3339_mvl/mxv
 BYTE   W19
// 004   ----------------------------------------
 BYTE   W32
 BYTE   N03  Cs2  v127
 BYTE   W04
 BYTE   Ds2
 BYTE   W04
 BYTE   En2
 BYTE   W04
 BYTE   Fs2
 BYTE   W04
 BYTE   Gs2
 BYTE   W04
 BYTE   Bn2
 BYTE   W04
 BYTE   N32  Cs3
 BYTE   W40
// 005   ----------------------------------------
 BYTE   W05
 BYTE   VOICE   48
 BYTE   VOL   49*FE04WhenTheRushComesMrGreen3339_mvl/mxv
 BYTE   N22  En4
 BYTE   W24
 BYTE   TIE  Cs4
 BYTE   W66
 BYTE   W01
 BYTE   PATT
  POIN2 Label_2_0116A42E
// 006   ----------------------------------------
 BYTE   EOT
 BYTE   Cs4
 BYTE   W21
Label_2_0116A46E:
 BYTE   W52
 BYTE   W01
 BYTE   VOL   49*FE04WhenTheRushComesMrGreen3339_mvl/mxv
 BYTE   N44  Bn3  v127
 BYTE   W42
// 007   ----------------------------------------
 BYTE   W01
 BYTE   PEND 
Label_2_0116A478:
 BYTE   W05
 BYTE   N22  Cn4  v127
 BYTE   W24
 BYTE   TIE  An3
 BYTE   W66
// 008   ----------------------------------------
 BYTE   W01
 BYTE   PEND 
 BYTE   PATT
  POIN2 Label_2_0116A42E
// 009   ----------------------------------------
 BYTE   EOT
 BYTE   An3
 BYTE   W21
 BYTE   PATT
  POIN2 Label_2_0116A46E
 BYTE   PATT
  POIN2 Label_2_0116A478
 BYTE   PATT
  POIN2 Label_2_0116A42E
// 010   ----------------------------------------
 BYTE   EOT
 BYTE   An3
 BYTE   W21
 BYTE   W52
 BYTE   W01
 BYTE   VOICE   48
 BYTE   PAN   c_v+26
 BYTE   VOL   49*FE04WhenTheRushComesMrGreen3339_mvl/mxv
 BYTE   W07
Label_2_0116A4A5:
 BYTE   W36
// 011   ----------------------------------------
 BYTE   W96
// 012   ----------------------------------------
 BYTE   W05
 BYTE   N44  Ds4  v127
 BYTE   W48
 BYTE   N22  En4
 BYTE   W24
 BYTE   TIE  Cs4
 BYTE   W19
// 013   ----------------------------------------
Label_2_0116A4B2:
 BYTE   W80
 BYTE   W03
 BYTE   VOL   45*FE04WhenTheRushComesMrGreen3339_mvl/mxv
 BYTE   W06
 BYTE   En1
 BYTE   W06
 BYTE   Cn1
 BYTE   W01
 BYTE   PEND 
// 014   ----------------------------------------
Label_2_0116A4BC:
 BYTE   W05
 BYTE   VOL   32*FE04WhenTheRushComesMrGreen3339_mvl/mxv
 BYTE   W06
 BYTE   En0
 BYTE   W06
 BYTE   Cn0
 BYTE   W06
 BYTE   GsM1
 BYTE   W04
 BYTE   PEND 
 BYTE   EOT
 BYTE   Cs4
 BYTE   W02
 BYTE   VOICE   63
 BYTE   VOL   36*FE04WhenTheRushComesMrGreen3339_mvl/mxv
 BYTE   W48
 BYTE   W03
 BYTE   N03  Cs2  v127
 BYTE   W04
 BYTE   Ds2
 BYTE   W04
 BYTE   En2
 BYTE   W04
 BYTE   Fs2
 BYTE   W04
// 015   ----------------------------------------
 BYTE   Gs2
 BYTE   W04
 BYTE   Bn2
 BYTE   W04
 BYTE   N32  Cs3
 BYTE   W44
 BYTE   W01
 BYTE   VOICE   48
 BYTE   VOL   49*FE04WhenTheRushComesMrGreen3339_mvl/mxv
 BYTE   N22  En4
 BYTE   W24
 BYTE   TIE  Cs4
 BYTE   W19
 BYTE   PATT
  POIN2 Label_2_0116A4B2
 BYTE   PATT
  POIN2 Label_2_0116A4BC
// 016   ----------------------------------------
 BYTE   EOT
 BYTE   Cs4
 BYTE   W68
 BYTE   W01
Label_2_0116A4FA:
 BYTE   W05
 BYTE   VOL   49*FE04WhenTheRushComesMrGreen3339_mvl/mxv
 BYTE   N44  Bn3  v127
 BYTE   W48
// 017   ----------------------------------------
 BYTE   N22  Cn4
 BYTE   W24
 BYTE   TIE  An3
 BYTE   W19
 BYTE   PEND 
 BYTE   PATT
  POIN2 Label_2_0116A4B2
 BYTE   PATT
  POIN2 Label_2_0116A4BC
// 018   ----------------------------------------
 BYTE   EOT
 BYTE   An3
 BYTE   W68
 BYTE   W01
 BYTE   PATT
  POIN2 Label_2_0116A4FA
 BYTE   PATT
  POIN2 Label_2_0116A4B2
 BYTE   PATT
  POIN2 Label_2_0116A4BC
// 019   ----------------------------------------
 BYTE   EOT
 BYTE   An3
 BYTE   W64
 BYTE   GoTo
  POIN2 Label_2_0116A4A5
 BYTE   FINE

//**************** Track 4 (Midi-Chn.3) ****************//

FE04WhenTheRushComesMrGreen3339_004:
// 000   ----------------------------------------
 BYTE   KEYSH   FE04WhenTheRushComesMrGreen3339_key+0
 BYTE   PAN   c_v+0
 BYTE   VOL   32*FE04WhenTheRushComesMrGreen3339_mvl/mxv
 BYTE   MOD 0
 BYTE   CnM2
 BYTE   BEND   c_v+0
 BYTE   W05
 BYTE   VOICE   48
 BYTE   PAN   c_v-24
 BYTE   VOL   49*FE04WhenTheRushComesMrGreen3339_mvl/mxv
 BYTE   W90
 BYTE   W01
// 001   ----------------------------------------
 BYTE   W52
 BYTE   W01
 BYTE   N44  Bn3  v127
 BYTE   W42
 BYTE   W01
// 002   ----------------------------------------
 BYTE   W05
 BYTE   N22  An3
 BYTE   W24
 BYTE   TIE  Gs3
 BYTE   W66
 BYTE   W01
// 003   ----------------------------------------
Label_3_0116A562:
 BYTE   W32
 BYTE   W03
 BYTE   VOL   45*FE04WhenTheRushComesMrGreen3339_mvl/mxv
 BYTE   W06
 BYTE   En1
 BYTE   W06
 BYTE   Cn1
 BYTE   W06
 BYTE   Gs0
 BYTE   W06
 BYTE   En0
 BYTE   W06
 BYTE   Cn0
 BYTE   W06
 BYTE   GsM1
 BYTE   W04
 BYTE   PEND 
 BYTE   EOT
 BYTE   Gs3
 BYTE   W02
 BYTE   VOICE   63
 BYTE   PAN   c_v-44
 BYTE   VOL   40*FE04WhenTheRushComesMrGreen3339_mvl/mxv
 BYTE   W19
// 004   ----------------------------------------
 BYTE   W28
 BYTE   W01
 BYTE   N03  Cs2  v127
 BYTE   W04
 BYTE   Ds2
 BYTE   W04
 BYTE   En2
 BYTE   W04
 BYTE   Fs2
 BYTE   W04
 BYTE   Gs2
 BYTE   W04
 BYTE   Bn2
 BYTE   W04
 BYTE   N36  Cs3
 BYTE   W42
 BYTE   W01
// 005   ----------------------------------------
 BYTE   W05
 BYTE   VOICE   48
 BYTE   VOL   49*FE04WhenTheRushComesMrGreen3339_mvl/mxv
 BYTE   N22  Cs4
 BYTE   W24
 BYTE   TIE  En4
 BYTE   W66
 BYTE   W01
 BYTE   PATT
  POIN2 Label_3_0116A562
// 006   ----------------------------------------
 BYTE   EOT
 BYTE   En4
 BYTE   W21
Label_3_0116A5A6:
 BYTE   W52
 BYTE   W01
 BYTE   VOL   49*FE04WhenTheRushComesMrGreen3339_mvl/mxv
 BYTE   N44  Gn3  v127
 BYTE   W42
// 007   ----------------------------------------
 BYTE   W01
 BYTE   PEND 
Label_3_0116A5B0:
 BYTE   W05
 BYTE   N22  An3  v127
 BYTE   W24
 BYTE   TIE  Fn3
 BYTE   W66
// 008   ----------------------------------------
 BYTE   W01
 BYTE   PEND 
 BYTE   PATT
  POIN2 Label_3_0116A562
// 009   ----------------------------------------
 BYTE   EOT
 BYTE   Fn3
 BYTE   W21
 BYTE   PATT
  POIN2 Label_3_0116A5A6
 BYTE   PATT
  POIN2 Label_3_0116A5B0
 BYTE   PATT
  POIN2 Label_3_0116A562
// 010   ----------------------------------------
 BYTE   EOT
 BYTE   Fn3
 BYTE   W21
 BYTE   W52
 BYTE   W01
 BYTE   VOICE   48
 BYTE   PAN   c_v-24
 BYTE   VOL   49*FE04WhenTheRushComesMrGreen3339_mvl/mxv
 BYTE   W07
Label_3_0116A5DD:
 BYTE   W36
// 011   ----------------------------------------
 BYTE   W96
// 012   ----------------------------------------
 BYTE   W05
 BYTE   N44  Bn3  v127
 BYTE   W48
 BYTE   N22  An3
 BYTE   W24
 BYTE   TIE  Gs3
 BYTE   W19
// 013   ----------------------------------------
Label_3_0116A5EA:
 BYTE   W80
 BYTE   W03
 BYTE   VOL   45*FE04WhenTheRushComesMrGreen3339_mvl/mxv
 BYTE   W06
 BYTE   En1
 BYTE   W06
 BYTE   Cn1
 BYTE   W01
 BYTE   PEND 
// 014   ----------------------------------------
Label_3_0116A5F4:
 BYTE   W05
 BYTE   VOL   32*FE04WhenTheRushComesMrGreen3339_mvl/mxv
 BYTE   W06
 BYTE   En0
 BYTE   W06
 BYTE   Cn0
 BYTE   W06
 BYTE   GsM1
 BYTE   W04
 BYTE   PEND 
 BYTE   EOT
 BYTE   Gs3
 BYTE   W02
 BYTE   VOICE   63
 BYTE   PAN   c_v-44
 BYTE   VOL   40*FE04WhenTheRushComesMrGreen3339_mvl/mxv
 BYTE   W48
 BYTE   N03  Cs2  v127
 BYTE   W04
 BYTE   Ds2
 BYTE   W04
 BYTE   En2
 BYTE   W04
 BYTE   Fs2
 BYTE   W04
 BYTE   Gs2
 BYTE   W03
// 015   ----------------------------------------
 BYTE   W01
 BYTE   Bn2
 BYTE   W04
 BYTE   N36  Cs3
 BYTE   W48
 BYTE   VOICE   48
 BYTE   VOL   49*FE04WhenTheRushComesMrGreen3339_mvl/mxv
 BYTE   N22  Cs4
 BYTE   W24
 BYTE   TIE  En4
 BYTE   W19
 BYTE   PATT
  POIN2 Label_3_0116A5EA
 BYTE   PATT
  POIN2 Label_3_0116A5F4
// 016   ----------------------------------------
 BYTE   EOT
 BYTE   En4
 BYTE   W68
 BYTE   W01
Label_3_0116A633:
 BYTE   W05
 BYTE   VOL   49*FE04WhenTheRushComesMrGreen3339_mvl/mxv
 BYTE   N44  Gn3  v127
 BYTE   W48
// 017   ----------------------------------------
 BYTE   N22  An3
 BYTE   W24
 BYTE   TIE  Fn3
 BYTE   W19
 BYTE   PEND 
 BYTE   PATT
  POIN2 Label_3_0116A5EA
 BYTE   PATT
  POIN2 Label_3_0116A5F4
// 018   ----------------------------------------
 BYTE   EOT
 BYTE   Fn3
 BYTE   W68
 BYTE   W01
 BYTE   PATT
  POIN2 Label_3_0116A633
 BYTE   PATT
  POIN2 Label_3_0116A5EA
 BYTE   PATT
  POIN2 Label_3_0116A5F4
// 019   ----------------------------------------
 BYTE   EOT
 BYTE   Fn3
 BYTE   W64
 BYTE   GoTo
  POIN2 Label_3_0116A5DD
 BYTE   FINE

//**************** Track 5 (Midi-Chn.4) ****************//

FE04WhenTheRushComesMrGreen3339_005:
// 000   ----------------------------------------
 BYTE   KEYSH   FE04WhenTheRushComesMrGreen3339_key+0
 BYTE   PAN   c_v+0
 BYTE   VOL   32*FE04WhenTheRushComesMrGreen3339_mvl/mxv
 BYTE   MOD 0
 BYTE   CnM2
 BYTE   BEND   c_v+0
 BYTE   W05
 BYTE   VOICE   48
 BYTE   PAN   c_v-34
 BYTE   VOL   49*FE04WhenTheRushComesMrGreen3339_mvl/mxv
 BYTE   W90
 BYTE   W01
// 001   ----------------------------------------
 BYTE   W52
 BYTE   W01
 BYTE   N44  Bn2  v127
 BYTE   W42
 BYTE   W01
// 002   ----------------------------------------
 BYTE   W05
 BYTE   N22  An2
 BYTE   W24
 BYTE   TIE  Gs2
 BYTE   W66
 BYTE   W01
// 003   ----------------------------------------
Label_4_0116A69E:
 BYTE   W32
 BYTE   W03
 BYTE   VOL   45*FE04WhenTheRushComesMrGreen3339_mvl/mxv
 BYTE   W06
 BYTE   En1
 BYTE   W06
 BYTE   Cn1
 BYTE   W06
 BYTE   Gs0
 BYTE   W06
 BYTE   En0
 BYTE   W06
 BYTE   Cn0
 BYTE   W06
 BYTE   GsM1
 BYTE   W04
 BYTE   PEND 
 BYTE   EOT
 BYTE   Gs2
 BYTE   W21
// 004   ----------------------------------------
 BYTE   W96
// 005   ----------------------------------------
 BYTE   W05
 BYTE   VOL   49*FE04WhenTheRushComesMrGreen3339_mvl/mxv
 BYTE   N22  An3  v127
 BYTE   W24
 BYTE   N68
 BYTE   W66
 BYTE   W01
// 006   ----------------------------------------
 BYTE   W05
 BYTE   Gs3
 BYTE   W30
 BYTE   VOL   45*FE04WhenTheRushComesMrGreen3339_mvl/mxv
 BYTE   W06
 BYTE   En1
 BYTE   W06
 BYTE   Cn1
 BYTE   W06
 BYTE   Gs0
 BYTE   W06
 BYTE   En0
 BYTE   W06
 BYTE   Cn0
 BYTE   W06
 BYTE   GsM1
 BYTE   W24
 BYTE   W01
// 007   ----------------------------------------
Label_4_0116A6D1:
 BYTE   W52
 BYTE   W01
 BYTE   VOL   49*FE04WhenTheRushComesMrGreen3339_mvl/mxv
 BYTE   N44  En3  v127
 BYTE   W42
 BYTE   W01
 BYTE   PEND 
// 008   ----------------------------------------
Label_4_0116A6DB:
 BYTE   W05
 BYTE   N22  Fn3  v127
 BYTE   W24
 BYTE   TIE  Cn3
 BYTE   W66
 BYTE   W01
 BYTE   PEND 
 BYTE   PATT
  POIN2 Label_4_0116A69E
// 009   ----------------------------------------
 BYTE   EOT
 BYTE   Cn3
 BYTE   W21
 BYTE   PATT
  POIN2 Label_4_0116A6D1
 BYTE   PATT
  POIN2 Label_4_0116A6DB
 BYTE   PATT
  POIN2 Label_4_0116A69E
// 010   ----------------------------------------
 BYTE   EOT
 BYTE   Cn3
 BYTE   W21
 BYTE   W52
 BYTE   W01
 BYTE   VOICE   48
 BYTE   PAN   c_v-34
 BYTE   VOL   49*FE04WhenTheRushComesMrGreen3339_mvl/mxv
 BYTE   W07
Label_4_0116A708:
 BYTE   W36
// 011   ----------------------------------------
 BYTE   W96
// 012   ----------------------------------------
 BYTE   W05
 BYTE   N44  Bn2  v127
 BYTE   W48
 BYTE   N22  An2
 BYTE   W24
 BYTE   TIE  Gs2
 BYTE   W19
// 013   ----------------------------------------
Label_4_0116A715:
 BYTE   W80
 BYTE   W03
 BYTE   VOL   45*FE04WhenTheRushComesMrGreen3339_mvl/mxv
 BYTE   W06
 BYTE   En1
 BYTE   W06
 BYTE   Cn1
 BYTE   W01
 BYTE   PEND 
// 014   ----------------------------------------
Label_4_0116A71F:
 BYTE   W05
 BYTE   VOL   32*FE04WhenTheRushComesMrGreen3339_mvl/mxv
 BYTE   W06
 BYTE   En0
 BYTE   W06
 BYTE   Cn0
 BYTE   W06
 BYTE   GsM1
 BYTE   W04
 BYTE   PEND 
 BYTE   EOT
 BYTE   Gs2
 BYTE   W68
 BYTE   W01
// 015   ----------------------------------------
 BYTE   W52
 BYTE   W01
 BYTE   VOL   49*FE04WhenTheRushComesMrGreen3339_mvl/mxv
 BYTE   N22  An3  v127
 BYTE   W24
 BYTE   N68
 BYTE   W19
// 016   ----------------------------------------
 BYTE   W52
 BYTE   W01
 BYTE   Gs3
 BYTE   W30
 BYTE   VOL   45*FE04WhenTheRushComesMrGreen3339_mvl/mxv
 BYTE   W06
 BYTE   En1
 BYTE   W06
 BYTE   Cn1
 BYTE   W01
// 017   ----------------------------------------
 BYTE   W05
 BYTE   Gs0
 BYTE   W06
 BYTE   En0
 BYTE   W06
 BYTE   Cn0
 BYTE   W06
 BYTE   GsM1
 BYTE   W72
 BYTE   W01
// 018   ----------------------------------------
Label_4_0116A74D:
 BYTE   W05
 BYTE   VOL   49*FE04WhenTheRushComesMrGreen3339_mvl/mxv
 BYTE   N44  En3  v127
 BYTE   W48
 BYTE   N22  Fn3
 BYTE   W24
 BYTE   TIE  Cn3
 BYTE   W19
 BYTE   PEND 
 BYTE   PATT
  POIN2 Label_4_0116A715
 BYTE   PATT
  POIN2 Label_4_0116A71F
// 019   ----------------------------------------
 BYTE   EOT
 BYTE   Cn3
 BYTE   W68
 BYTE   W01
 BYTE   PATT
  POIN2 Label_4_0116A74D
 BYTE   PATT
  POIN2 Label_4_0116A715
 BYTE   PATT
  POIN2 Label_4_0116A71F
// 020   ----------------------------------------
 BYTE   EOT
 BYTE   Cn3
 BYTE   W64
 BYTE   GoTo
  POIN2 Label_4_0116A708
 BYTE   FINE

//**************** Track 6 (Midi-Chn.5) ****************//

FE04WhenTheRushComesMrGreen3339_006:
// 000   ----------------------------------------
 BYTE   KEYSH   FE04WhenTheRushComesMrGreen3339_key+0
 BYTE   PAN   c_v+0
 BYTE   VOL   32*FE04WhenTheRushComesMrGreen3339_mvl/mxv
 BYTE   MOD 0
 BYTE   CnM2
 BYTE   BEND   c_v+0
 BYTE   W05
 BYTE   VOICE   24
 BYTE   PAN   c_v-44
 BYTE   VOL   53*FE04WhenTheRushComesMrGreen3339_mvl/mxv
 BYTE   N10  Cs1  v127
 BYTE   W12
 BYTE   Cs1  v088
 BYTE   W12
 BYTE   N10
 BYTE   W12
 BYTE   N10
 BYTE   W12
 BYTE   N10
 BYTE   W12
 BYTE   N10
 BYTE   W12
 BYTE   Cs1  v127
 BYTE   W12
 BYTE   Cs1  v088
 BYTE   W07
// 001   ----------------------------------------
Label_5_0116A7BA:
 BYTE   W05
 BYTE   N10  Cs1  v088
 BYTE   W12
 BYTE   N10
 BYTE   W12
 BYTE   N10
 BYTE   W12
 BYTE   N10
 BYTE   W12
 BYTE   Cs1  v127
 BYTE   W12
 BYTE   Cs1  v088
 BYTE   W12
 BYTE   N10
 BYTE   W12
 BYTE   N10
 BYTE   W07
 BYTE   PEND 
// 002   ----------------------------------------
Label_5_0116A7D0:
 BYTE   W05
 BYTE   N10  Cs1  v088
 BYTE   W12
 BYTE   N10
 BYTE   W12
 BYTE   Cs1  v127
 BYTE   W12
 BYTE   Cs1  v088
 BYTE   W12
 BYTE   N10
 BYTE   W12
 BYTE   N10
 BYTE   W12
 BYTE   N10
 BYTE   W12
 BYTE   N10
 BYTE   W07
 BYTE   PEND 
// 003   ----------------------------------------
Label_5_0116A7E6:
 BYTE   W05
 BYTE   N10  Cs1  v127
 BYTE   W12
 BYTE   Cs1  v088
 BYTE   W12
 BYTE   N10
 BYTE   W12
 BYTE   N10
 BYTE   W12
 BYTE   N10
 BYTE   W12
 BYTE   N10
 BYTE   W12
 BYTE   Cs1  v127
 BYTE   W12
 BYTE   Cs1  v088
 BYTE   W07
 BYTE   PEND 
// 004   ----------------------------------------
 BYTE   W05
 BYTE   N10
 BYTE   W12
 BYTE   N10
 BYTE   W78
 BYTE   W01
// 005   ----------------------------------------
 BYTE   W05
 BYTE   N10
 BYTE   W12
 BYTE   N05
 BYTE   W06
 BYTE   N05
 BYTE   W06
 BYTE   N10  Cs1  v127
 BYTE   W12
 BYTE   Cs1  v088
 BYTE   W12
 BYTE   N10
 BYTE   W12
 BYTE   N10
 BYTE   W12
 BYTE   N10
 BYTE   W12
 BYTE   N10
 BYTE   W07
 BYTE   PATT
  POIN2 Label_5_0116A7E6
// 006   ----------------------------------------
 BYTE   W05
 BYTE   N10  Cs1  v088
 BYTE   W12
 BYTE   N10
 BYTE   W12
 BYTE   N10
 BYTE   W12
 BYTE   N10
 BYTE   W12
 BYTE   An0  v127
 BYTE   W12
 BYTE   An0  v088
 BYTE   W12
 BYTE   N10
 BYTE   W12
 BYTE   N10
 BYTE   W07
// 007   ----------------------------------------
Label_5_0116A833:
 BYTE   W05
 BYTE   N10  An0  v088
 BYTE   W12
 BYTE   N10
 BYTE   W12
 BYTE   An0  v127
 BYTE   W12
 BYTE   An0  v088
 BYTE   W12
 BYTE   N10
 BYTE   W12
 BYTE   N10
 BYTE   W12
 BYTE   N10
 BYTE   W12
 BYTE   N10
 BYTE   W07
 BYTE   PEND 
// 008   ----------------------------------------
Label_5_0116A849:
 BYTE   W05
 BYTE   N10  An0  v127
 BYTE   W12
 BYTE   An0  v088
 BYTE   W12
 BYTE   N10
 BYTE   W12
 BYTE   N10
 BYTE   W12
 BYTE   N10
 BYTE   W12
 BYTE   N10
 BYTE   W12
 BYTE   An0  v127
 BYTE   W12
 BYTE   An0  v088
 BYTE   W07
 BYTE   PEND 
// 009   ----------------------------------------
Label_5_0116A860:
 BYTE   W05
 BYTE   N10  An0  v088
 BYTE   W12
 BYTE   N10
 BYTE   W12
 BYTE   N10
 BYTE   W12
 BYTE   N10
 BYTE   W12
 BYTE   An0  v127
 BYTE   W12
 BYTE   An0  v088
 BYTE   W12
 BYTE   N10
 BYTE   W12
 BYTE   N10
 BYTE   W07
 BYTE   PEND 
 BYTE   PATT
  POIN2 Label_5_0116A833
 BYTE   PATT
  POIN2 Label_5_0116A849
// 010   ----------------------------------------
 BYTE   W05
 BYTE   N10  An0  v088
 BYTE   W12
 BYTE   N10
 BYTE   W12
 BYTE   N10
 BYTE   W12
 BYTE   An0  v127
 BYTE   W12
 BYTE   VOICE   24
 BYTE   PAN   c_v-44
 BYTE   VOL   53*FE04WhenTheRushComesMrGreen3339_mvl/mxv
 BYTE   N10  Cs1
 BYTE   W07
Label_5_0116A895:
 BYTE   W05
 BYTE   N10  Cs1  v088
 BYTE   W12
 BYTE   N10
 BYTE   W12
 BYTE   N10
 BYTE   W07
 BYTE   PATT
  POIN2 Label_5_0116A7D0
 BYTE   PATT
  POIN2 Label_5_0116A7E6
 BYTE   PATT
  POIN2 Label_5_0116A7BA
// 011   ----------------------------------------
 BYTE   W05
 BYTE   N10  Cs1  v088
 BYTE   W12
 BYTE   N10
 BYTE   W12
 BYTE   Cs1  v127
 BYTE   W12
 BYTE   Cs1  v088
 BYTE   W12
 BYTE   N10
 BYTE   W12
 BYTE   N10
 BYTE   W30
 BYTE   W01
// 012   ----------------------------------------
 BYTE   W52
 BYTE   W01
 BYTE   N10
 BYTE   W12
 BYTE   N05
 BYTE   W06
 BYTE   N05
 BYTE   W06
 BYTE   N10  Cs1  v127
 BYTE   W12
 BYTE   Cs1  v088
 BYTE   W07
 BYTE   PATT
  POIN2 Label_5_0116A7BA
 BYTE   PATT
  POIN2 Label_5_0116A7D0
 BYTE   PATT
  POIN2 Label_5_0116A849
 BYTE   PATT
  POIN2 Label_5_0116A860
 BYTE   PATT
  POIN2 Label_5_0116A833
 BYTE   PATT
  POIN2 Label_5_0116A849
 BYTE   PATT
  POIN2 Label_5_0116A860
// 013   ----------------------------------------
 BYTE   W05
 BYTE   N10  An0  v088
 BYTE   W12
 BYTE   N10
 BYTE   W12
 BYTE   An0  v127
 BYTE   W12
 BYTE   An0  v088
 BYTE   W12
 BYTE   N10
 BYTE   W12
 BYTE   N10
 BYTE   W12
 BYTE   N10
 BYTE   W14
 BYTE   GoTo
  POIN2 Label_5_0116A895
 BYTE   FINE

//**************** Track 7 (Midi-Chn.6) ****************//

FE04WhenTheRushComesMrGreen3339_007:
// 000   ----------------------------------------
 BYTE   KEYSH   FE04WhenTheRushComesMrGreen3339_key+0
 BYTE   PAN   c_v+0
 BYTE   VOL   32*FE04WhenTheRushComesMrGreen3339_mvl/mxv
 BYTE   MOD 0
 BYTE   CnM2
 BYTE   BEND   c_v+0
 BYTE   W05
 BYTE   VOICE   60
 BYTE   PAN   c_v-34
 BYTE   VOL   53*FE04WhenTheRushComesMrGreen3339_mvl/mxv
 BYTE   N09  Cs2  v127
 BYTE   W12
 BYTE   Cs2  v088
 BYTE   W12
 BYTE   N09
 BYTE   W12
 BYTE   N09
 BYTE   W12
 BYTE   N09
 BYTE   W12
 BYTE   N09
 BYTE   W12
 BYTE   Cs2  v127
 BYTE   W12
 BYTE   Cs2  v088
 BYTE   W07
// 001   ----------------------------------------
Label_6_0116A942:
 BYTE   W05
 BYTE   N09  Cs2  v088
 BYTE   W12
 BYTE   N09
 BYTE   W12
 BYTE   N09
 BYTE   W12
 BYTE   N09
 BYTE   W12
 BYTE   Cs2  v127
 BYTE   W12
 BYTE   Cs2  v088
 BYTE   W12
 BYTE   N09
 BYTE   W12
 BYTE   N09
 BYTE   W07
 BYTE   PEND 
// 002   ----------------------------------------
Label_6_0116A958:
 BYTE   W05
 BYTE   N09  Cs2  v088
 BYTE   W12
 BYTE   N09
 BYTE   W12
 BYTE   Cs2  v127
 BYTE   W12
 BYTE   Cs2  v088
 BYTE   W12
 BYTE   N09
 BYTE   W12
 BYTE   N09
 BYTE   W12
 BYTE   N09
 BYTE   W12
 BYTE   N09
 BYTE   W07
 BYTE   PEND 
// 003   ----------------------------------------
Label_6_0116A96E:
 BYTE   W05
 BYTE   N09  Cs2  v127
 BYTE   W12
 BYTE   Cs2  v088
 BYTE   W12
 BYTE   N09
 BYTE   W12
 BYTE   N09
 BYTE   W12
 BYTE   N09
 BYTE   W12
 BYTE   N09
 BYTE   W12
 BYTE   Cs2  v127
 BYTE   W12
 BYTE   Cs2  v088
 BYTE   W07
 BYTE   PEND 
// 004   ----------------------------------------
 BYTE   W05
 BYTE   N09
 BYTE   W12
 BYTE   N09
 BYTE   W78
 BYTE   W01
// 005   ----------------------------------------
 BYTE   W05
 BYTE   N09
 BYTE   W12
 BYTE   N04
 BYTE   W06
 BYTE   N04
 BYTE   W06
 BYTE   N09  Cs2  v127
 BYTE   W12
 BYTE   Cs2  v088
 BYTE   W12
 BYTE   N09
 BYTE   W12
 BYTE   N09
 BYTE   W12
 BYTE   N09
 BYTE   W12
 BYTE   N09
 BYTE   W07
 BYTE   PATT
  POIN2 Label_6_0116A96E
// 006   ----------------------------------------
 BYTE   W05
 BYTE   N09  Cs2  v088
 BYTE   W12
 BYTE   N09
 BYTE   W12
 BYTE   N09
 BYTE   W12
 BYTE   N09
 BYTE   W12
 BYTE   An1  v127
 BYTE   W12
 BYTE   An1  v088
 BYTE   W12
 BYTE   N09
 BYTE   W12
 BYTE   N09
 BYTE   W07
// 007   ----------------------------------------
Label_6_0116A9BB:
 BYTE   W05
 BYTE   N09  An1  v088
 BYTE   W12
 BYTE   N09
 BYTE   W12
 BYTE   An1  v127
 BYTE   W12
 BYTE   An1  v088
 BYTE   W12
 BYTE   N09
 BYTE   W12
 BYTE   N09
 BYTE   W12
 BYTE   N09
 BYTE   W12
 BYTE   N09
 BYTE   W07
 BYTE   PEND 
// 008   ----------------------------------------
Label_6_0116A9D1:
 BYTE   W05
 BYTE   N09  An1  v127
 BYTE   W12
 BYTE   An1  v088
 BYTE   W12
 BYTE   N09
 BYTE   W12
 BYTE   N09
 BYTE   W12
 BYTE   N09
 BYTE   W12
 BYTE   N09
 BYTE   W12
 BYTE   An1  v127
 BYTE   W12
 BYTE   An1  v088
 BYTE   W07
 BYTE   PEND 
// 009   ----------------------------------------
Label_6_0116A9E8:
 BYTE   W05
 BYTE   N09  An1  v088
 BYTE   W12
 BYTE   N09
 BYTE   W12
 BYTE   N09
 BYTE   W12
 BYTE   N09
 BYTE   W12
 BYTE   An1  v127
 BYTE   W12
 BYTE   An1  v088
 BYTE   W12
 BYTE   N09
 BYTE   W12
 BYTE   N09
 BYTE   W07
 BYTE   PEND 
 BYTE   PATT
  POIN2 Label_6_0116A9BB
 BYTE   PATT
  POIN2 Label_6_0116A9D1
// 010   ----------------------------------------
 BYTE   W05
 BYTE   N09  An1  v088
 BYTE   W12
 BYTE   N09
 BYTE   W12
 BYTE   N09
 BYTE   W12
 BYTE   An1  v127
 BYTE   W12
 BYTE   VOICE   60
 BYTE   PAN   c_v-34
 BYTE   VOL   53*FE04WhenTheRushComesMrGreen3339_mvl/mxv
 BYTE   N09  Cs2
 BYTE   W07
Label_6_0116AA1D:
 BYTE   W05
 BYTE   N09  Cs2  v088
 BYTE   W12
 BYTE   N09
 BYTE   W12
 BYTE   N09
 BYTE   W07
 BYTE   PATT
  POIN2 Label_6_0116A958
 BYTE   PATT
  POIN2 Label_6_0116A96E
 BYTE   PATT
  POIN2 Label_6_0116A942
// 011   ----------------------------------------
 BYTE   W05
 BYTE   N09  Cs2  v088
 BYTE   W12
 BYTE   N09
 BYTE   W12
 BYTE   Cs2  v127
 BYTE   W12
 BYTE   Cs2  v088
 BYTE   W12
 BYTE   N09
 BYTE   W12
 BYTE   N09
 BYTE   W30
 BYTE   W01
// 012   ----------------------------------------
 BYTE   W52
 BYTE   W01
 BYTE   N09
 BYTE   W12
 BYTE   N04
 BYTE   W06
 BYTE   N04
 BYTE   W06
 BYTE   N09  Cs2  v127
 BYTE   W12
 BYTE   Cs2  v088
 BYTE   W07
 BYTE   PATT
  POIN2 Label_6_0116A942
 BYTE   PATT
  POIN2 Label_6_0116A958
 BYTE   PATT
  POIN2 Label_6_0116A9D1
 BYTE   PATT
  POIN2 Label_6_0116A9E8
 BYTE   PATT
  POIN2 Label_6_0116A9BB
 BYTE   PATT
  POIN2 Label_6_0116A9D1
 BYTE   PATT
  POIN2 Label_6_0116A9E8
// 013   ----------------------------------------
 BYTE   W05
 BYTE   N09  An1  v088
 BYTE   W12
 BYTE   N09
 BYTE   W12
 BYTE   An1  v127
 BYTE   W12
 BYTE   An1  v088
 BYTE   W12
 BYTE   N09
 BYTE   W12
 BYTE   N09
 BYTE   W12
 BYTE   N09
 BYTE   W14
 BYTE   GoTo
  POIN2 Label_6_0116AA1D
 BYTE   FINE

//**************** Track 8 (Midi-Chn.7) ****************//

FE04WhenTheRushComesMrGreen3339_008:
// 000   ----------------------------------------
 BYTE   KEYSH   FE04WhenTheRushComesMrGreen3339_key+0
 BYTE   PAN   c_v+0
 BYTE   VOL   32*FE04WhenTheRushComesMrGreen3339_mvl/mxv
 BYTE   MOD 0
 BYTE   CnM2
 BYTE   BEND   c_v+0
 BYTE   W05
 BYTE   VOICE   127
 BYTE   VOL   36*FE04WhenTheRushComesMrGreen3339_mvl/mxv
 BYTE   N01  Cn1  v127
 BYTE   N01  Dn1  v060
 BYTE   W12
 BYTE   Cn1  v127
 BYTE   N01  Dn1  v080
 BYTE   W48
 BYTE   Cn1  v127
 BYTE   N01  Dn1  v060
 BYTE   W06
 BYTE   Cn1  v127
 BYTE   N01  Dn1  v060
 BYTE   W06
 BYTE   Cn1  v127
 BYTE   N01  Dn1  v060
 BYTE   W12
 BYTE   Cn1  v127
 BYTE   N01  Dn1  v080
 BYTE   W07
// 001   ----------------------------------------
Label_7_0116AAD8:
 BYTE   W40
 BYTE   W01
 BYTE   N01  Cn1  v127
 BYTE   N01  Dn1  v060
 BYTE   W12
 BYTE   Cn1  v127
 BYTE   N01  Dn1  v060
 BYTE   W12
 BYTE   Cn1  v127
 BYTE   N01  Dn1  v080
 BYTE   W30
 BYTE   W01
 BYTE   PEND 
// 002   ----------------------------------------
Label_7_0116AAEF:
 BYTE   W17
 BYTE   N01  Cn1  v127
 BYTE   N01  Dn1  v060
 BYTE   W06
 BYTE   Cn1  v127
 BYTE   N01  Dn1  v060
 BYTE   W06
 BYTE   Cn1  v127
 BYTE   N01  Dn1  v060
 BYTE   W12
 BYTE   Cn1  v127
 BYTE   N01  Dn1  v080
 BYTE   W48
 BYTE   Cn1  v127
 BYTE   N01  Dn1  v060
 BYTE   W07
 BYTE   PEND 
// 003   ----------------------------------------
Label_7_0116AB10:
 BYTE   W05
 BYTE   N01  Cn1  v127
 BYTE   N01  Dn1  v060
 BYTE   W12
 BYTE   Cn1  v127
 BYTE   N01  Dn1  v080
 BYTE   W48
 BYTE   Cn1  v127
 BYTE   N01  Dn1  v060
 BYTE   W06
 BYTE   Cn1  v127
 BYTE   N01  Dn1  v060
 BYTE   W06
 BYTE   Cn1  v127
 BYTE   N01  Dn1  v060
 BYTE   W12
 BYTE   Cn1  v127
 BYTE   N01  Dn1  v080
 BYTE   W07
 BYTE   PEND 
 BYTE   PATT
  POIN2 Label_7_0116AAD8
 BYTE   PATT
  POIN2 Label_7_0116AAEF
 BYTE   PATT
  POIN2 Label_7_0116AB10
 BYTE   PATT
  POIN2 Label_7_0116AAD8
 BYTE   PATT
  POIN2 Label_7_0116AAEF
 BYTE   PATT
  POIN2 Label_7_0116AB10
 BYTE   PATT
  POIN2 Label_7_0116AAD8
 BYTE   PATT
  POIN2 Label_7_0116AAEF
 BYTE   PATT
  POIN2 Label_7_0116AB10
// 004   ----------------------------------------
 BYTE   W40
 BYTE   W01
 BYTE   N01  Cn1  v127
 BYTE   N01  Dn1  v060
 BYTE   W12
 BYTE   VOICE   127
 BYTE   VOL   36*FE04WhenTheRushComesMrGreen3339_mvl/mxv
 BYTE   N01  Cn1  v127
 BYTE   N01  Dn1  v060
 BYTE   W07
Label_7_0116AB78:
 BYTE   W05
 BYTE   N01  Cn1  v127
 BYTE   N01  Dn1  v080
 BYTE   W30
 BYTE   W01
 BYTE   PATT
  POIN2 Label_7_0116AAEF
 BYTE   PATT
  POIN2 Label_7_0116AB10
 BYTE   PATT
  POIN2 Label_7_0116AAD8
 BYTE   PATT
  POIN2 Label_7_0116AAEF
 BYTE   PATT
  POIN2 Label_7_0116AB10
 BYTE   PATT
  POIN2 Label_7_0116AAD8
 BYTE   PATT
  POIN2 Label_7_0116AAEF
 BYTE   PATT
  POIN2 Label_7_0116AB10
 BYTE   PATT
  POIN2 Label_7_0116AAD8
 BYTE   PATT
  POIN2 Label_7_0116AAEF
 BYTE   PATT
  POIN2 Label_7_0116AB10
 BYTE   PATT
  POIN2 Label_7_0116AAD8
// 005   ----------------------------------------
 BYTE   W17
 BYTE   N01  Cn1  v127
 BYTE   N01  Dn1  v060
 BYTE   W06
 BYTE   Cn1  v127
 BYTE   N01  Dn1  v060
 BYTE   W06
 BYTE   Cn1  v127
 BYTE   N01  Dn1  v060
 BYTE   W12
 BYTE   Cn1  v127
 BYTE   N01  Dn1  v080
 BYTE   W48
 BYTE   Cn1  v127
 BYTE   N01  Dn1  v060
 BYTE   W02
 BYTE   GoTo
  POIN2 Label_7_0116AB78
 BYTE   FINE

//******************************************************//
	ALIGN 4

FE04WhenTheRushComesMrGreen3339:
	BYTE	8	// NumTrks
	BYTE	0	// NumBlks
	BYTE	FE04WhenTheRushComesMrGreen3339_pri	// Priority
	BYTE	FE04WhenTheRushComesMrGreen3339_rev	// Reverb.
    
	POIN2	FE04WhenTheRushComesMrGreen3339_grp
    
	POIN2	FE04WhenTheRushComesMrGreen3339_001
	POIN2	FE04WhenTheRushComesMrGreen3339_002
	POIN2	FE04WhenTheRushComesMrGreen3339_003
	POIN2	FE04WhenTheRushComesMrGreen3339_004
	POIN2	FE04WhenTheRushComesMrGreen3339_005
	POIN2	FE04WhenTheRushComesMrGreen3339_006
	POIN2	FE04WhenTheRushComesMrGreen3339_007
	POIN2	FE04WhenTheRushComesMrGreen3339_008

	
