//Event file generated from Sappy .s format.
	#include "MPlayDef.event"

	#define	FE04Victory1SurfingKyogre_grp  voicegroup000
	#define	FE04Victory1SurfingKyogre_pri  0
	#define	FE04Victory1SurfingKyogre_rev  0
	#define	FE04Victory1SurfingKyogre_mvl  127
	#define	FE04Victory1SurfingKyogre_key  0
	#define	FE04Victory1SurfingKyogre_tbs  1
	#define	FE04Victory1SurfingKyogre_exg  0
	#define	FE04Victory1SurfingKyogre_cmp  1

	// .rodata
	//	FE04Victory1SurfingKyogre
	ALIGN 4


//**************** Track 1 (Midi-Chn.0) ****************//

FE04Victory1SurfingKyogre_001:
// 000   ----------------------------------------
 BYTE   KEYSH   FE04Victory1SurfingKyogre_key+0
 BYTE   TEMPO   130*FE04Victory1SurfingKyogre_tbs/2
 BYTE   PAN   c_v+0
 BYTE   VOL   20*FE04Victory1SurfingKyogre_mvl/mxv
 BYTE   MOD 0
 BYTE   CnM2
 BYTE   BEND   c_v+0
 BYTE   W06
 BYTE   VOICE   57
 BYTE   PAN   c_v+0
 BYTE   VOL   50*FE04Victory1SurfingKyogre_mvl/mxv
 BYTE   W24
 BYTE   N06  Cs4  v127
 BYTE   W08
 BYTE   N06
 BYTE   W08
 BYTE   Fs4
 BYTE   W08
 BYTE   N18  En4
 BYTE   W24
 BYTE   N06  Ds4
 BYTE   W08
 BYTE   Bn3
 BYTE   W08
 BYTE   Ds4
 BYTE   W02
// 001   ----------------------------------------
 BYTE   W06
 BYTE   N72  Cs4
 BYTE   W90
// 002   ----------------------------------------
 BYTE   W30
 BYTE   N06  En4
 BYTE   W08
 BYTE   N06
 BYTE   W08
 BYTE   An4
 BYTE   W08
 BYTE   N18  Gn4
 BYTE   W24
 BYTE   N06  Fs4
 BYTE   W08
 BYTE   Dn4
 BYTE   W08
 BYTE   Fs4
 BYTE   W02
// 003   ----------------------------------------
 BYTE   W06
 BYTE   N72  En4
 BYTE   W90
// 004   ----------------------------------------
Label_0_016F380C:
 BYTE   W06
 BYTE   VOICE   48
 BYTE   PAN   c_v-4
 BYTE   VOL   55*FE04Victory1SurfingKyogre_mvl/mxv
 BYTE   N44  Fs4  v127
 BYTE   W48
 BYTE   N22  Cs5
 BYTE   W24
 BYTE   As4
 BYTE   W18
// 005   ----------------------------------------
Label_0_016F381C:
 BYTE   W06
 BYTE   N22  Bn4  v127
 BYTE   W24
 BYTE   As4
 BYTE   W24
 BYTE   Gs4
 BYTE   W24
 BYTE   Fs4
 BYTE   W18
 BYTE   PEND 
// 006   ----------------------------------------
 BYTE   W06
 BYTE   N44  Gs4
 BYTE   W48
 BYTE   N22  Cs5
 BYTE   W24
 BYTE   Gs4
 BYTE   W18
// 007   ----------------------------------------
 BYTE   W06
 BYTE   N44  Bn4
 BYTE   W48
 BYTE   As4
 BYTE   W42
// 008   ----------------------------------------
 BYTE   W06
 BYTE   Fs4
 BYTE   W48
 BYTE   N22  Cs5
 BYTE   W24
 BYTE   As4
 BYTE   W18
 BYTE   PATT
  POIN2 Label_0_016F381C
// 009   ----------------------------------------
 BYTE   W06
 BYTE   N44  Gs4  v127
 BYTE   W60
 BYTE   N10  Cs4
 BYTE   W12
 BYTE   Gs4
 BYTE   W12
 BYTE   Cs5
 BYTE   W06
// 010   ----------------------------------------
 BYTE   W06
 BYTE   N32  Bn4
 BYTE   W36
 BYTE   N10  As4
 BYTE   W12
 BYTE   N44
 BYTE   W42
// 011   ----------------------------------------
 BYTE   W06
 BYTE   Fs4
 BYTE   W48
 BYTE   N22  Cs5
 BYTE   W36
 BYTE   N10
 BYTE   W06
// 012   ----------------------------------------
 BYTE   W06
 BYTE   N22
 BYTE   W24
 BYTE   Cn5
 BYTE   W24
 BYTE   As4
 BYTE   W24
 BYTE   Cn5
 BYTE   W18
// 013   ----------------------------------------
 BYTE   W06
 BYTE   N68  Dn5
 BYTE   W72
 BYTE   N22  As4
 BYTE   W18
// 014   ----------------------------------------
 BYTE   W06
 BYTE   N92  Fn5
 BYTE   W90
// 015   ----------------------------------------
 BYTE   W06
 BYTE   VOICE   57
 BYTE   VOL   50*FE04Victory1SurfingKyogre_mvl/mxv
 BYTE   N03  As3
 BYTE   W12
 BYTE   N03
 BYTE   W06
 BYTE   Cn4
 BYTE   W06
 BYTE   Cs4
 BYTE   W12
 BYTE   As3
 BYTE   W12
 BYTE   Cn4
 BYTE   W12
 BYTE   Gs3
 BYTE   W12
 BYTE   As3
 BYTE   W12
 BYTE   Cn4
 BYTE   W06
// 016   ----------------------------------------
 BYTE   W06
 BYTE   As3
 BYTE   W12
 BYTE   N03
 BYTE   W06
 BYTE   Cn4
 BYTE   W06
 BYTE   Cs4
 BYTE   W12
 BYTE   As3
 BYTE   W12
 BYTE   Cn4
 BYTE   W12
 BYTE   Gs3
 BYTE   W12
 BYTE   As3
 BYTE   W12
 BYTE   Cn4
 BYTE   W06
// 017   ----------------------------------------
 BYTE   W06
 BYTE   As3
 BYTE   W12
 BYTE   N03
 BYTE   W06
 BYTE   Cn4
 BYTE   W06
 BYTE   Cs4
 BYTE   W12
 BYTE   As3
 BYTE   W12
 BYTE   Cn4
 BYTE   W12
 BYTE   Gs3
 BYTE   W12
 BYTE   As3
 BYTE   W12
 BYTE   Fn4
 BYTE   W06
// 018   ----------------------------------------
 BYTE   N03
 BYTE   W06
 BYTE   N03
 BYTE   W12
 BYTE   Ds4
 BYTE   W06
 BYTE   N03
 BYTE   W06
 BYTE   N03
 BYTE   W12
 BYTE   Cs4
 BYTE   W06
 BYTE   N03
 BYTE   W06
 BYTE   N03
 BYTE   W12
 BYTE   Cn4
 BYTE   W06
 BYTE   N03
 BYTE   W06
 BYTE   N03
 BYTE   W12
 BYTE   As3
 BYTE   W06
// 019   ----------------------------------------
 BYTE   W06
 BYTE   VOICE   48
 BYTE   VOL   50*FE04Victory1SurfingKyogre_mvl/mxv
 BYTE   W24
 BYTE   N21  Ds3
 BYTE   W24
 BYTE   Gs3
 BYTE   W24
 BYTE   Cs4
 BYTE   W18
// 020   ----------------------------------------
 BYTE   W06
 BYTE   Gs3
 BYTE   W24
 BYTE   Cs4
 BYTE   W24
 BYTE   Fs4
 BYTE   W24
 BYTE   Gs4
 BYTE   W18
// 021   ----------------------------------------
 BYTE   GoTo
  POIN2 Label_0_016F380C
// 022   ----------------------------------------
 BYTE   W06
 BYTE   VOICE   48
 BYTE   PAN   c_v-4
 BYTE   VOL   55*FE04Victory1SurfingKyogre_mvl/mxv
 BYTE   N44  Fs4  v127
 BYTE   W44
 BYTE   W03
 BYTE   FINE

//**************** Track 2 (Midi-Chn.1) ****************//

FE04Victory1SurfingKyogre_002:
// 000   ----------------------------------------
 BYTE   KEYSH   FE04Victory1SurfingKyogre_key+0
 BYTE   PAN   c_v+0
 BYTE   VOL   20*FE04Victory1SurfingKyogre_mvl/mxv
 BYTE   MOD 0
 BYTE   CnM2
 BYTE   BEND   c_v+0
 BYTE   W06
 BYTE   VOICE   48
 BYTE   PAN   c_v-44
 BYTE   VOL   40*FE04Victory1SurfingKyogre_mvl/mxv
 BYTE   W24
 BYTE   N06  Fs3  v127
 BYTE   W08
 BYTE   N06
 BYTE   W08
 BYTE   Bn3
 BYTE   W08
 BYTE   N18  An3
 BYTE   W24
 BYTE   N06  Gs3
 BYTE   W08
 BYTE   En3
 BYTE   W08
 BYTE   Gs3
 BYTE   W02
// 001   ----------------------------------------
 BYTE   W06
 BYTE   N72  En3
 BYTE   W90
// 002   ----------------------------------------
 BYTE   W30
 BYTE   N06  Bn3
 BYTE   W08
 BYTE   N06
 BYTE   W08
 BYTE   Cs4
 BYTE   W08
 BYTE   N18  Cn4
 BYTE   W24
 BYTE   N06  Bn3
 BYTE   W08
 BYTE   Gn3
 BYTE   W08
 BYTE   An3
 BYTE   W02
// 003   ----------------------------------------
 BYTE   W06
 BYTE   N72  Gn3
 BYTE   W90
// 004   ----------------------------------------
Label_1_016F3582:
 BYTE   W06
 BYTE   VOICE   48
 BYTE   PAN   c_v+6
 BYTE   VOL   55*FE04Victory1SurfingKyogre_mvl/mxv
 BYTE   N44  Fs3  v127
 BYTE   W48
 BYTE   N22  Cs4
 BYTE   W24
 BYTE   As3
 BYTE   W18
// 005   ----------------------------------------
Label_1_016F3592:
 BYTE   W06
 BYTE   N22  Bn3  v127
 BYTE   W24
 BYTE   As3
 BYTE   W24
 BYTE   Gs3
 BYTE   W24
 BYTE   Fs3
 BYTE   W18
 BYTE   PEND 
// 006   ----------------------------------------
 BYTE   W06
 BYTE   N44  Gs3
 BYTE   W48
 BYTE   N22  Cs4
 BYTE   W24
 BYTE   Gs3
 BYTE   W18
// 007   ----------------------------------------
 BYTE   W06
 BYTE   N44  Bn3
 BYTE   W48
 BYTE   As3
 BYTE   W42
// 008   ----------------------------------------
 BYTE   W06
 BYTE   Fs3
 BYTE   W48
 BYTE   N22  Cs4
 BYTE   W24
 BYTE   As3
 BYTE   W18
 BYTE   PATT
  POIN2 Label_1_016F3592
// 009   ----------------------------------------
 BYTE   W06
 BYTE   N44  Gs3  v127
 BYTE   W60
 BYTE   N10  Cs3
 BYTE   W12
 BYTE   Gs3
 BYTE   W12
 BYTE   Cs4
 BYTE   W06
// 010   ----------------------------------------
 BYTE   W06
 BYTE   N32  Bn3
 BYTE   W36
 BYTE   N10  As3
 BYTE   W12
 BYTE   N22
 BYTE   W24
 BYTE   Gs3
 BYTE   W18
// 011   ----------------------------------------
 BYTE   W06
 BYTE   N44  Fs3
 BYTE   W48
 BYTE   N22  Cs4
 BYTE   W36
 BYTE   N10
 BYTE   W06
// 012   ----------------------------------------
 BYTE   W06
 BYTE   N22
 BYTE   W24
 BYTE   Cn4
 BYTE   W24
 BYTE   As3
 BYTE   W24
 BYTE   Cn4
 BYTE   W18
// 013   ----------------------------------------
 BYTE   W06
 BYTE   N68  Dn4
 BYTE   W72
 BYTE   N22  As3
 BYTE   W18
// 014   ----------------------------------------
 BYTE   W06
 BYTE   N92  Fn4
 BYTE   W90
// 015   ----------------------------------------
 BYTE   W06
 BYTE   VOICE   57
 BYTE   PAN   c_v-39
 BYTE   VOL   45*FE04Victory1SurfingKyogre_mvl/mxv
 BYTE   N03  Fs3
 BYTE   W12
 BYTE   N03
 BYTE   W06
 BYTE   Gs3
 BYTE   W06
 BYTE   As3
 BYTE   W12
 BYTE   Fs3
 BYTE   W12
 BYTE   Gs3
 BYTE   W12
 BYTE   Ds3
 BYTE   W12
 BYTE   Fs3
 BYTE   W12
 BYTE   Gs3
 BYTE   W06
// 016   ----------------------------------------
 BYTE   W06
 BYTE   Fs3
 BYTE   W12
 BYTE   N03
 BYTE   W06
 BYTE   Gs3
 BYTE   W06
 BYTE   As3
 BYTE   W12
 BYTE   Fs3
 BYTE   W12
 BYTE   Gs3
 BYTE   W12
 BYTE   Ds3
 BYTE   W12
 BYTE   Fs3
 BYTE   W12
 BYTE   Gs3
 BYTE   W06
// 017   ----------------------------------------
 BYTE   W06
 BYTE   Fs3
 BYTE   W12
 BYTE   N03
 BYTE   W06
 BYTE   Gs3
 BYTE   W06
 BYTE   As3
 BYTE   W12
 BYTE   Fs3
 BYTE   W12
 BYTE   Gs3
 BYTE   W12
 BYTE   Ds3
 BYTE   W12
 BYTE   Fs3
 BYTE   W12
 BYTE   Cs4
 BYTE   W06
// 018   ----------------------------------------
 BYTE   N03
 BYTE   W06
 BYTE   N03
 BYTE   W12
 BYTE   Cn4
 BYTE   W06
 BYTE   N03
 BYTE   W06
 BYTE   N03
 BYTE   W12
 BYTE   As3
 BYTE   W06
 BYTE   N03
 BYTE   W06
 BYTE   N03
 BYTE   W12
 BYTE   Gs3
 BYTE   W06
 BYTE   N03
 BYTE   W06
 BYTE   N03
 BYTE   W12
 BYTE   Fs3
 BYTE   W06
// 019   ----------------------------------------
 BYTE   W06
 BYTE   VOICE   48
 BYTE   PAN   c_v+46
 BYTE   VOL   40*FE04Victory1SurfingKyogre_mvl/mxv
 BYTE   W36
 BYTE   N21  Ds2
 BYTE   W24
 BYTE   Gs2
 BYTE   W24
 BYTE   Cs3
 BYTE   W06
// 020   ----------------------------------------
 BYTE   W18
 BYTE   Gs2
 BYTE   W24
 BYTE   Cs3
 BYTE   W24
 BYTE   Fs3
 BYTE   W24
 BYTE   N09  Gs3
 BYTE   W06
// 021   ----------------------------------------
 BYTE   GoTo
  POIN2 Label_1_016F3582
// 022   ----------------------------------------
 BYTE   W06
 BYTE   VOICE   48
 BYTE   PAN   c_v+6
 BYTE   VOL   55*FE04Victory1SurfingKyogre_mvl/mxv
 BYTE   N44  Fs3  v127
 BYTE   W44
 BYTE   W03
 BYTE   FINE

//**************** Track 3 (Midi-Chn.2) ****************//

FE04Victory1SurfingKyogre_003:
// 000   ----------------------------------------
 BYTE   KEYSH   FE04Victory1SurfingKyogre_key+0
 BYTE   PAN   c_v+0
 BYTE   VOL   20*FE04Victory1SurfingKyogre_mvl/mxv
 BYTE   MOD 0
 BYTE   CnM2
 BYTE   BEND   c_v+0
 BYTE   W06
 BYTE   VOICE   60
 BYTE   PAN   c_v-24
 BYTE   VOL   45*FE04Victory1SurfingKyogre_mvl/mxv
 BYTE   W90
// 001   ----------------------------------------
 BYTE   W96
// 002   ----------------------------------------
Label_2_016F3907:
 BYTE   W06
 BYTE   N04  An3  v127
 BYTE   W06
 BYTE   N04
 BYTE   W06
 BYTE   N04
 BYTE   W24
 BYTE   N04
 BYTE   W06
 BYTE   N04
 BYTE   W06
 BYTE   N04
 BYTE   W12
 BYTE   N04
 BYTE   W30
 BYTE   PEND 
 BYTE   PATT
  POIN2 Label_2_016F3907
// 003   ----------------------------------------
Label_2_016F391E:
 BYTE   W06
 BYTE   VOICE   60
 BYTE   PAN   c_v-39
 BYTE   VOL   40*FE04Victory1SurfingKyogre_mvl/mxv
 BYTE   N04  Fs3  v127
 BYTE   W06
 BYTE   N04
 BYTE   W06
 BYTE   N04
 BYTE   W24
 BYTE   N04
 BYTE   W06
 BYTE   N04
 BYTE   W06
 BYTE   N04
 BYTE   W12
 BYTE   N04
 BYTE   W30
// 004   ----------------------------------------
Label_2_016F3935:
 BYTE   W06
 BYTE   N04  Fs3  v127
 BYTE   W06
 BYTE   N04
 BYTE   W06
 BYTE   N04
 BYTE   W24
 BYTE   N04
 BYTE   W06
 BYTE   N04
 BYTE   W06
 BYTE   N04
 BYTE   W12
 BYTE   N04
 BYTE   W30
 BYTE   PEND 
// 005   ----------------------------------------
Label_2_016F3947:
 BYTE   W06
 BYTE   N04  Fn3  v127
 BYTE   W06
 BYTE   N04
 BYTE   W06
 BYTE   N04
 BYTE   W24
 BYTE   N04
 BYTE   W06
 BYTE   N04
 BYTE   W06
 BYTE   N04
 BYTE   W12
 BYTE   N04
 BYTE   W30
 BYTE   PEND 
 BYTE   PATT
  POIN2 Label_2_016F3935
 BYTE   PATT
  POIN2 Label_2_016F3935
 BYTE   PATT
  POIN2 Label_2_016F3935
 BYTE   PATT
  POIN2 Label_2_016F3947
 BYTE   PATT
  POIN2 Label_2_016F3935
// 006   ----------------------------------------
 BYTE   W06
 BYTE   PAN   c_v-4
 BYTE   N72  Fs3  v127
 BYTE   W90
// 007   ----------------------------------------
 BYTE   W06
 BYTE   N54  Gs3
 BYTE   W72
 BYTE   N04  Fs3
 BYTE   W12
 BYTE   Gs3
 BYTE   W06
// 008   ----------------------------------------
 BYTE   W06
 BYTE   TIE  Dn4
 BYTE   W90
// 009   ----------------------------------------
 BYTE   W54
 BYTE   EOT
 BYTE   W42
// 010   ----------------------------------------
 BYTE   W06
 BYTE   VOICE   48
 BYTE   PAN   c_v-9
 BYTE   VOL   40*FE04Victory1SurfingKyogre_mvl/mxv
 BYTE   N12  Fs3
 BYTE   W24
 BYTE   N12
 BYTE   W24
 BYTE   N12
 BYTE   W24
 BYTE   N12
 BYTE   W18
// 011   ----------------------------------------
 BYTE   W06
 BYTE   N12
 BYTE   W24
 BYTE   N12
 BYTE   W24
 BYTE   N12
 BYTE   W24
 BYTE   N12
 BYTE   W18
// 012   ----------------------------------------
Label_2_016F39A2:
 BYTE   W06
 BYTE   N12  Ds3  v127
 BYTE   W24
 BYTE   N12
 BYTE   W24
 BYTE   N12
 BYTE   W24
 BYTE   N12
 BYTE   W18
 BYTE   PEND 
 BYTE   PATT
  POIN2 Label_2_016F39A2
// 013   ----------------------------------------
Label_2_016F39B3:
 BYTE   W06
 BYTE   N12  Gs3  v127
 BYTE   W24
 BYTE   N12
 BYTE   W24
 BYTE   N12
 BYTE   W24
 BYTE   N12
 BYTE   W18
 BYTE   PEND 
 BYTE   PATT
  POIN2 Label_2_016F39B3
// 014   ----------------------------------------
 BYTE   GoTo
  POIN2 Label_2_016F391E
// 015   ----------------------------------------
 BYTE   W06
 BYTE   VOICE   60
 BYTE   PAN   c_v-39
 BYTE   VOL   40*FE04Victory1SurfingKyogre_mvl/mxv
 BYTE   N04  Fs3  v127
 BYTE   W06
 BYTE   N04
 BYTE   W06
 BYTE   N04
 BYTE   W24
 BYTE   N04
 BYTE   W06
 BYTE   N04
 BYTE   W05
 BYTE   FINE

//**************** Track 4 (Midi-Chn.3) ****************//

FE04Victory1SurfingKyogre_004:
// 000   ----------------------------------------
 BYTE   KEYSH   FE04Victory1SurfingKyogre_key+0
 BYTE   PAN   c_v+0
 BYTE   VOL   20*FE04Victory1SurfingKyogre_mvl/mxv
 BYTE   MOD 0
 BYTE   CnM2
 BYTE   BEND   c_v+0
 BYTE   W06
 BYTE   VOICE   60
 BYTE   PAN   c_v+26
 BYTE   VOL   45*FE04Victory1SurfingKyogre_mvl/mxv
 BYTE   W90
// 001   ----------------------------------------
 BYTE   W96
// 002   ----------------------------------------
Label_3_016F3687:
 BYTE   W06
 BYTE   N04  En3  v127
 BYTE   W06
 BYTE   N04
 BYTE   W06
 BYTE   N04
 BYTE   W24
 BYTE   N04
 BYTE   W06
 BYTE   N04
 BYTE   W06
 BYTE   N04
 BYTE   W12
 BYTE   N04
 BYTE   W30
 BYTE   PEND 
 BYTE   PATT
  POIN2 Label_3_016F3687
// 003   ----------------------------------------
Label_3_016F369E:
 BYTE   W06
 BYTE   VOICE   60
 BYTE   PAN   c_v+0
 BYTE   VOL   40*FE04Victory1SurfingKyogre_mvl/mxv
 BYTE   N04  Cs3  v127
 BYTE   W06
 BYTE   N04
 BYTE   W06
 BYTE   N04
 BYTE   W24
 BYTE   N04
 BYTE   W06
 BYTE   N04
 BYTE   W06
 BYTE   N04
 BYTE   W12
 BYTE   N04
 BYTE   W30
// 004   ----------------------------------------
Label_3_016F36B5:
 BYTE   W06
 BYTE   N04  Ds3  v127
 BYTE   W06
 BYTE   N04
 BYTE   W06
 BYTE   N04
 BYTE   W24
 BYTE   N04
 BYTE   W06
 BYTE   N04
 BYTE   W06
 BYTE   N04
 BYTE   W12
 BYTE   N04
 BYTE   W30
 BYTE   PEND 
// 005   ----------------------------------------
Label_3_016F36C7:
 BYTE   W06
 BYTE   N04  Cs3  v127
 BYTE   W06
 BYTE   N04
 BYTE   W06
 BYTE   N04
 BYTE   W24
 BYTE   N04
 BYTE   W06
 BYTE   N04
 BYTE   W06
 BYTE   N04
 BYTE   W12
 BYTE   N04
 BYTE   W30
 BYTE   PEND 
 BYTE   PATT
  POIN2 Label_3_016F36C7
 BYTE   PATT
  POIN2 Label_3_016F36C7
 BYTE   PATT
  POIN2 Label_3_016F36B5
 BYTE   PATT
  POIN2 Label_3_016F36C7
 BYTE   PATT
  POIN2 Label_3_016F36C7
// 006   ----------------------------------------
 BYTE   W06
 BYTE   PAN   c_v-39
 BYTE   N72  As2  v127
 BYTE   W90
// 007   ----------------------------------------
 BYTE   W06
 BYTE   N54  Cn3
 BYTE   W72
 BYTE   N04  Cs3
 BYTE   W12
 BYTE   Ds3
 BYTE   W06
// 008   ----------------------------------------
 BYTE   W06
 BYTE   N18  Fn3
 BYTE   W24
 BYTE   VOL   45*FE04Victory1SurfingKyogre_mvl/mxv
 BYTE   N18  As2
 BYTE   W24
 BYTE   TIE  Fn3
 BYTE   W42
// 009   ----------------------------------------
 BYTE   W66
 BYTE   EOT
 BYTE   W30
// 010   ----------------------------------------
 BYTE   W06
 BYTE   VOICE   48
 BYTE   PAN   c_v-44
 BYTE   VOL   40*FE04Victory1SurfingKyogre_mvl/mxv
 BYTE   W90
// 011   ----------------------------------------
 BYTE   W96
// 012   ----------------------------------------
 BYTE   W96
// 013   ----------------------------------------
 BYTE   W96
// 014   ----------------------------------------
Label_3_016F371C:
 BYTE   W06
 BYTE   N12  Gs2  v127
 BYTE   W24
 BYTE   N12
 BYTE   W24
 BYTE   N12
 BYTE   W24
 BYTE   N12
 BYTE   W18
 BYTE   PEND 
 BYTE   PATT
  POIN2 Label_3_016F371C
// 015   ----------------------------------------
 BYTE   GoTo
  POIN2 Label_3_016F369E
// 016   ----------------------------------------
 BYTE   W06
 BYTE   VOICE   60
 BYTE   PAN   c_v+0
 BYTE   VOL   40*FE04Victory1SurfingKyogre_mvl/mxv
 BYTE   N04  Cs3  v127
 BYTE   W06
 BYTE   N04
 BYTE   W06
 BYTE   N04
 BYTE   W24
 BYTE   N04
 BYTE   W06
 BYTE   N04
 BYTE   W05
 BYTE   FINE

//**************** Track 5 (Midi-Chn.4) ****************//

FE04Victory1SurfingKyogre_005:
// 000   ----------------------------------------
 BYTE   KEYSH   FE04Victory1SurfingKyogre_key+0
 BYTE   PAN   c_v+0
 BYTE   VOL   20*FE04Victory1SurfingKyogre_mvl/mxv
 BYTE   MOD 0
 BYTE   CnM2
 BYTE   BEND   c_v+0
 BYTE   W06
 BYTE   VOICE   60
 BYTE   PAN   c_v-9
 BYTE   VOL   45*FE04Victory1SurfingKyogre_mvl/mxv
 BYTE   TIE  Fs1  v127
 BYTE   W90
// 001   ----------------------------------------
 BYTE   W78
 BYTE   EOT
 BYTE   N05
 BYTE   W08
 BYTE   N05
 BYTE   W08
 BYTE   Gs1
 BYTE   W02
// 002   ----------------------------------------
 BYTE   W06
 BYTE   TIE  An1
 BYTE   W90
// 003   ----------------------------------------
 BYTE   W78
 BYTE   EOT
 BYTE   N12  En2
 BYTE   W12
 BYTE   An1
 BYTE   W06
// 004   ----------------------------------------
Label_4_016F32A8:
 BYTE   W06
 BYTE   VOICE   60
 BYTE   PAN   c_v-9
 BYTE   VOL   45*FE04Victory1SurfingKyogre_mvl/mxv
 BYTE   N18  Fs1  v127
 BYTE   W72
 BYTE   Cs2
 BYTE   W18
// 005   ----------------------------------------
Label_4_016F32B5:
 BYTE   W06
 BYTE   N18  Fs1  v127
 BYTE   W72
 BYTE   Cs2
 BYTE   W18
 BYTE   PEND 
// 006   ----------------------------------------
Label_4_016F32BD:
 BYTE   W06
 BYTE   N18  Fn1  v127
 BYTE   W72
 BYTE   Cs2
 BYTE   W18
 BYTE   PEND 
 BYTE   PATT
  POIN2 Label_4_016F32B5
 BYTE   PATT
  POIN2 Label_4_016F32B5
 BYTE   PATT
  POIN2 Label_4_016F32B5
 BYTE   PATT
  POIN2 Label_4_016F32BD
// 007   ----------------------------------------
 BYTE   W06
 BYTE   N18  Fs1  v127
 BYTE   W72
 BYTE   Fn1
 BYTE   W18
// 008   ----------------------------------------
 BYTE   W06
 BYTE   Ds1
 BYTE   W48
 BYTE   N18
 BYTE   W42
// 009   ----------------------------------------
 BYTE   W06
 BYTE   Gs1
 BYTE   W48
 BYTE   N18
 BYTE   W42
// 010   ----------------------------------------
 BYTE   W06
 BYTE   VOICE   48
 BYTE   PAN   c_v-59
 BYTE   VOL   45*FE04Victory1SurfingKyogre_mvl/mxv
 BYTE   N07  Fn5
 BYTE   W12
 BYTE   As4
 BYTE   W12
 BYTE   Cn5
 BYTE   W12
 BYTE   Fn5
 BYTE   W12
 BYTE   As4
 BYTE   W12
 BYTE   Cn5
 BYTE   W12
 BYTE   Fn5
 BYTE   W12
 BYTE   As4
 BYTE   W06
// 011   ----------------------------------------
 BYTE   W06
 BYTE   Cn5
 BYTE   W12
 BYTE   Fn5
 BYTE   W12
 BYTE   As4
 BYTE   W12
 BYTE   Cn5
 BYTE   W12
 BYTE   Fn5
 BYTE   W12
 BYTE   As4
 BYTE   W12
 BYTE   Cn5
 BYTE   W12
 BYTE   Fn5
 BYTE   W06
// 012   ----------------------------------------
 BYTE   W06
 BYTE   VOICE   60
 BYTE   PAN   c_v-9
 BYTE   VOL   45*FE04Victory1SurfingKyogre_mvl/mxv
 BYTE   N12  Fs1
 BYTE   W24
 BYTE   N12
 BYTE   W24
 BYTE   N12
 BYTE   W24
 BYTE   N12
 BYTE   W18
// 013   ----------------------------------------
 BYTE   W06
 BYTE   N12
 BYTE   W24
 BYTE   N12
 BYTE   W24
 BYTE   N12
 BYTE   W24
 BYTE   N12
 BYTE   W18
// 014   ----------------------------------------
Label_4_016F332C:
 BYTE   W06
 BYTE   N12  Ds1  v127
 BYTE   W24
 BYTE   N12
 BYTE   W24
 BYTE   N12
 BYTE   W24
 BYTE   N12
 BYTE   W18
 BYTE   PEND 
 BYTE   PATT
  POIN2 Label_4_016F332C
// 015   ----------------------------------------
Label_4_016F333D:
 BYTE   W06
 BYTE   N12  Gs1  v127
 BYTE   W24
 BYTE   N12
 BYTE   W24
 BYTE   N12
 BYTE   W24
 BYTE   N12
 BYTE   W18
 BYTE   PEND 
 BYTE   PATT
  POIN2 Label_4_016F333D
// 016   ----------------------------------------
 BYTE   GoTo
  POIN2 Label_4_016F32A8
// 017   ----------------------------------------
 BYTE   W06
 BYTE   VOICE   60
 BYTE   PAN   c_v-9
 BYTE   VOL   45*FE04Victory1SurfingKyogre_mvl/mxv
 BYTE   N18  Fs1  v127
 BYTE   W44
 BYTE   W03
 BYTE   FINE

//**************** Track 6 (Midi-Chn.5) ****************//

FE04Victory1SurfingKyogre_006:
// 000   ----------------------------------------
 BYTE   KEYSH   FE04Victory1SurfingKyogre_key+0
 BYTE   PAN   c_v+0
 BYTE   VOL   20*FE04Victory1SurfingKyogre_mvl/mxv
 BYTE   MOD 0
 BYTE   CnM2
 BYTE   BEND   c_v+0
 BYTE   W06
 BYTE   VOICE   63
 BYTE   PAN   c_v-34
 BYTE   VOL   30*FE04Victory1SurfingKyogre_mvl/mxv
 BYTE   TIE  Fs1  v127
 BYTE   W90
// 001   ----------------------------------------
 BYTE   W78
 BYTE   EOT
 BYTE   N05
 BYTE   W08
 BYTE   N05
 BYTE   W08
 BYTE   Gs1
 BYTE   W02
// 002   ----------------------------------------
 BYTE   W06
 BYTE   TIE  An1
 BYTE   W90
// 003   ----------------------------------------
 BYTE   W78
 BYTE   EOT
 BYTE   N12  En2
 BYTE   W12
 BYTE   An1
 BYTE   W06
// 004   ----------------------------------------
Label_5_016F3388:
 BYTE   W06
 BYTE   N24  Fs1  v127
 BYTE   W72
 BYTE   Cs2
 BYTE   W18
 BYTE   PEND 
 BYTE   PATT
  POIN2 Label_5_016F3388
// 005   ----------------------------------------
Label_5_016F3395:
 BYTE   W06
 BYTE   N24  Fn1  v127
 BYTE   W72
 BYTE   Cs2
 BYTE   W18
 BYTE   PEND 
 BYTE   PATT
  POIN2 Label_5_016F3388
 BYTE   PATT
  POIN2 Label_5_016F3388
 BYTE   PATT
  POIN2 Label_5_016F3388
 BYTE   PATT
  POIN2 Label_5_016F3395
// 006   ----------------------------------------
 BYTE   W06
 BYTE   N24  Fs1  v127
 BYTE   W72
 BYTE   Fn1
 BYTE   W18
// 007   ----------------------------------------
 BYTE   W06
 BYTE   Ds1
 BYTE   W48
 BYTE   N24
 BYTE   W42
// 008   ----------------------------------------
 BYTE   W06
 BYTE   Gs1
 BYTE   W48
 BYTE   N24
 BYTE   W42
// 009   ----------------------------------------
 BYTE   W96
// 010   ----------------------------------------
 BYTE   W96
// 011   ----------------------------------------
Label_5_016F33C4:
 BYTE   W06
 BYTE   N12  Fs1  v127
 BYTE   W24
 BYTE   N12
 BYTE   W24
 BYTE   N12
 BYTE   W24
 BYTE   N12
 BYTE   W18
 BYTE   PEND 
 BYTE   PATT
  POIN2 Label_5_016F33C4
// 012   ----------------------------------------
Label_5_016F33D5:
 BYTE   W06
 BYTE   N12  Ds1  v127
 BYTE   W24
 BYTE   N12
 BYTE   W24
 BYTE   N12
 BYTE   W24
 BYTE   N12
 BYTE   W18
 BYTE   PEND 
 BYTE   PATT
  POIN2 Label_5_016F33D5
// 013   ----------------------------------------
Label_5_016F33E6:
 BYTE   W06
 BYTE   N12  Gs1  v127
 BYTE   W24
 BYTE   N12
 BYTE   W24
 BYTE   N12
 BYTE   W24
 BYTE   N12
 BYTE   W18
 BYTE   PEND 
 BYTE   PATT
  POIN2 Label_5_016F33E6
// 014   ----------------------------------------
 BYTE   GoTo
  POIN2 Label_5_016F3388
// 015   ----------------------------------------
 BYTE   W06
 BYTE   N24  Fs1  v127
 BYTE   W44
 BYTE   W03
 BYTE   FINE

//**************** Track 7 (Midi-Chn.6) ****************//

FE04Victory1SurfingKyogre_007:
// 000   ----------------------------------------
 BYTE   KEYSH   FE04Victory1SurfingKyogre_key+0
 BYTE   PAN   c_v+0
 BYTE   VOL   20*FE04Victory1SurfingKyogre_mvl/mxv
 BYTE   MOD 0
 BYTE   CnM2
 BYTE   BEND   c_v+0
 BYTE   W06
 BYTE   VOICE   121
 BYTE   VOL   40*FE04Victory1SurfingKyogre_mvl/mxv
 BYTE   W90
// 001   ----------------------------------------
 BYTE   W96
// 002   ----------------------------------------
Label_6_016F3415:
 BYTE   W06
 BYTE   N03  Dn1  v127
 BYTE   W36
 BYTE   N01
 BYTE   W06
 BYTE   N01
 BYTE   W06
 BYTE   N01
 BYTE   W12
 BYTE   N01
 BYTE   W30
 BYTE   PEND 
 BYTE   PATT
  POIN2 Label_6_016F3415
// 003   ----------------------------------------
Label_6_016F3428:
 BYTE   W06
 BYTE   N01  Dn1  v127
 BYTE   W06
 BYTE   N01
 BYTE   W06
 BYTE   N01
 BYTE   W24
 BYTE   N01
 BYTE   W06
 BYTE   N01
 BYTE   W06
 BYTE   N01
 BYTE   W12
 BYTE   N01
 BYTE   W24
 BYTE   Dn1  v108
 BYTE   W06
 BYTE   PEND 
 BYTE   PATT
  POIN2 Label_6_016F3428
 BYTE   PATT
  POIN2 Label_6_016F3428
 BYTE   PATT
  POIN2 Label_6_016F3428
 BYTE   PATT
  POIN2 Label_6_016F3428
 BYTE   PATT
  POIN2 Label_6_016F3428
 BYTE   PATT
  POIN2 Label_6_016F3428
// 004   ----------------------------------------
 BYTE   W06
 BYTE   N03  Dn1  v127
 BYTE   W36
 BYTE   N01
 BYTE   W06
 BYTE   N01
 BYTE   W06
 BYTE   N01
 BYTE   W12
 BYTE   N01
 BYTE   W24
 BYTE   N01
 BYTE   W06
// 005   ----------------------------------------
Label_6_016F346A:
 BYTE   W06
 BYTE   N01  Dn1  v127
 BYTE   W12
 BYTE   N01
 BYTE   W36
 BYTE   N01
 BYTE   W12
 BYTE   N01
 BYTE   W30
 BYTE   PEND 
 BYTE   PATT
  POIN2 Label_6_016F346A
// 006   ----------------------------------------
 BYTE   W96
// 007   ----------------------------------------
 BYTE   W96
// 008   ----------------------------------------
Label_6_016F347D:
 BYTE   W06
 BYTE   N01  Dn1  v127
 BYTE   W12
 BYTE   Dn1  v088
 BYTE   W06
 BYTE   Dn1  v108
 BYTE   W06
 BYTE   Dn1  v127
 BYTE   W12
 BYTE   Dn1  v088
 BYTE   W06
 BYTE   Dn1  v108
 BYTE   W06
 BYTE   Dn1  v127
 BYTE   W12
 BYTE   Dn1  v088
 BYTE   W06
 BYTE   Dn1  v108
 BYTE   W06
 BYTE   Dn1  v127
 BYTE   W12
 BYTE   Dn1  v088
 BYTE   W06
 BYTE   PEND 
// 009   ----------------------------------------
Label_6_016F34A1:
 BYTE   N01  Dn1  v108
 BYTE   W06
 BYTE   Dn1  v127
 BYTE   W12
 BYTE   Dn1  v088
 BYTE   W06
 BYTE   Dn1  v108
 BYTE   W06
 BYTE   Dn1  v127
 BYTE   W12
 BYTE   Dn1  v088
 BYTE   W06
 BYTE   Dn1  v108
 BYTE   W06
 BYTE   Dn1  v127
 BYTE   W12
 BYTE   Dn1  v088
 BYTE   W06
 BYTE   Dn1  v108
 BYTE   W06
 BYTE   Dn1  v127
 BYTE   W12
 BYTE   N01
 BYTE   W06
 BYTE   PEND 
 BYTE   PATT
  POIN2 Label_6_016F347D
 BYTE   PATT
  POIN2 Label_6_016F34A1
// 010   ----------------------------------------
 BYTE   W06
 BYTE   N01  Dn1  v127
 BYTE   W12
 BYTE   Dn1  v088
 BYTE   W06
 BYTE   Dn1  v108
 BYTE   W06
 BYTE   Dn1  v127
 BYTE   W12
 BYTE   Dn1  v088
 BYTE   W06
 BYTE   Dn1  v108
 BYTE   W06
 BYTE   Dn1  v127
 BYTE   W12
 BYTE   Dn1  v088
 BYTE   W06
 BYTE   Dn1  v108
 BYTE   W06
 BYTE   Dn1  v127
 BYTE   W12
 BYTE   N01
 BYTE   W06
 BYTE   PATT
  POIN2 Label_6_016F347D
// 011   ----------------------------------------
 BYTE   GoTo
  POIN2 Label_6_016F3428
// 012   ----------------------------------------
 BYTE   N01  Dn1  v108
 BYTE   W06
 BYTE   Dn1  v127
 BYTE   W06
 BYTE   N01
 BYTE   W06
 BYTE   N01
 BYTE   W24
 BYTE   N01
 BYTE   W06
 BYTE   N01
 BYTE   W05
 BYTE   FINE

//******************************************************//
	ALIGN 4

FE04Victory1SurfingKyogre:
	BYTE	7	// NumTrks
	BYTE	0	// NumBlks
	BYTE	FE04Victory1SurfingKyogre_pri	// Priority
	BYTE	FE04Victory1SurfingKyogre_rev	// Reverb.
    
	POIN2	FE04Victory1SurfingKyogre_grp
    
	POIN2	FE04Victory1SurfingKyogre_001
	POIN2	FE04Victory1SurfingKyogre_002
	POIN2	FE04Victory1SurfingKyogre_003
	POIN2	FE04Victory1SurfingKyogre_004
	POIN2	FE04Victory1SurfingKyogre_005
	POIN2	FE04Victory1SurfingKyogre_006
	POIN2	FE04Victory1SurfingKyogre_007

	
