//Event file generated from Sappy .s format.
	#include "MPlayDef.event"

	#define	FE04EndofDespairSmashUltimateArrangementMycahel_grp  voicegroup000
	#define	FE04EndofDespairSmashUltimateArrangementMycahel_pri  0
	#define	FE04EndofDespairSmashUltimateArrangementMycahel_rev  0
	#define	FE04EndofDespairSmashUltimateArrangementMycahel_mvl  127
	#define	FE04EndofDespairSmashUltimateArrangementMycahel_key  0
	#define	FE04EndofDespairSmashUltimateArrangementMycahel_tbs  1
	#define	FE04EndofDespairSmashUltimateArrangementMycahel_exg  0
	#define	FE04EndofDespairSmashUltimateArrangementMycahel_cmp  1

	// .rodata
	//	FE04EndofDespairSmashUltimateArrangementMycahel
	ALIGN 4


//**************** Track 1 (Midi-Chn.0) ****************//

FE04EndofDespairSmashUltimateArrangementMycahel_001:
// 000   ----------------------------------------
 BYTE   VOL   50*FE04EndofDespairSmashUltimateArrangementMycahel_mvl/mxv
 BYTE   KEYSH   FE04EndofDespairSmashUltimateArrangementMycahel_key+0
 BYTE   TEMPO   88*FE04EndofDespairSmashUltimateArrangementMycahel_tbs/2
 BYTE   VOICE   19
 BYTE   TIE  An3  v112
 BYTE   W48
 BYTE   N12  Gn3
 BYTE   W12
 BYTE   Fn3
 BYTE   W12
 BYTE   En3
 BYTE   W12
 BYTE   Dn3
 BYTE   W12
// 001   ----------------------------------------
 BYTE   Cs3
 BYTE   W24
 BYTE   TIE  An2
 BYTE   W24
 BYTE   EOT
 BYTE   An3
 BYTE   N12
 BYTE   W12
 BYTE   As3
 BYTE   W12
 BYTE   Gn3
 BYTE   W12
 BYTE   An3
 BYTE   W12
// 002   ----------------------------------------
 BYTE   Fn3
 BYTE   W12
 BYTE   Gn3
 BYTE   W12
 BYTE   TEMPO   164*FE04EndofDespairSmashUltimateArrangementMycahel_tbs/2
 BYTE   TIE  En3
 BYTE   W68
Label_0_017B2D9D:
 BYTE   W04
// 003   ----------------------------------------
 BYTE   W96
// 004   ----------------------------------------
 BYTE   W96
// 005   ----------------------------------------
 BYTE   W96
// 006   ----------------------------------------
 BYTE   W96
// 007   ----------------------------------------
 BYTE   EOT
 BYTE   An2  v064
 BYTE   W96
// 008   ----------------------------------------
 BYTE   W96
// 009   ----------------------------------------
 BYTE   W96
// 010   ----------------------------------------
 BYTE   W96
// 011   ----------------------------------------
 BYTE   W96
// 012   ----------------------------------------
 BYTE   W96
// 013   ----------------------------------------
 BYTE   W96
// 014   ----------------------------------------
 BYTE   W96
// 015   ----------------------------------------
 BYTE   W96
// 016   ----------------------------------------
 BYTE   W96
// 017   ----------------------------------------
 BYTE   W96
// 018   ----------------------------------------
 BYTE   W96
// 019   ----------------------------------------
 BYTE   W96
// 020   ----------------------------------------
 BYTE   W96
// 021   ----------------------------------------
 BYTE   W96
// 022   ----------------------------------------
 BYTE   W96
// 023   ----------------------------------------
 BYTE   W96
// 024   ----------------------------------------
 BYTE   W96
// 025   ----------------------------------------
 BYTE   W96
// 026   ----------------------------------------
 BYTE   W96
// 027   ----------------------------------------
 BYTE   W24
 BYTE   N24  An3  v112
 BYTE   W24
 BYTE   N12  Gn3
 BYTE   W12
 BYTE   Fn3
 BYTE   W12
 BYTE   En3
 BYTE   W12
 BYTE   Dn3
 BYTE   W12
// 028   ----------------------------------------
 BYTE   N24  Cs3
 BYTE   W24
 BYTE   N72  An2
 BYTE   W72
// 029   ----------------------------------------
 BYTE   W96
// 030   ----------------------------------------
 BYTE   W96
// 031   ----------------------------------------
 BYTE   W96
// 032   ----------------------------------------
 BYTE   W12
 BYTE   N12  Cn4  v116
 BYTE   W12
 BYTE   As3
 BYTE   W12
 BYTE   An3
 BYTE   W12
 BYTE   Gn3
 BYTE   W12
 BYTE   Fn3
 BYTE   W12
 BYTE   N96  En3
 BYTE   W24
// 033   ----------------------------------------
 BYTE   W72
 BYTE   N24  Dn3
 BYTE   W24
// 034   ----------------------------------------
 BYTE   W96
// 035   ----------------------------------------
 BYTE   W72
 BYTE   N12  En3
 BYTE   W12
 BYTE   Fn3
 BYTE   W12
// 036   ----------------------------------------
 BYTE   N72  Gn3
 BYTE   W72
 BYTE   N12  Dn3
 BYTE   W12
 BYTE   En3
 BYTE   W12
// 037   ----------------------------------------
 BYTE   N72  Fn3
 BYTE   W72
 BYTE   N12  Gn3
 BYTE   W12
 BYTE   Fn3
 BYTE   W12
// 038   ----------------------------------------
 BYTE   N96  En3
 BYTE   W96
// 039   ----------------------------------------
 BYTE   An3
 BYTE   W96
// 040   ----------------------------------------
 BYTE   W96
// 041   ----------------------------------------
 BYTE   W96
// 042   ----------------------------------------
 BYTE   W96
// 043   ----------------------------------------
 BYTE   W96
// 044   ----------------------------------------
 BYTE   W96
// 045   ----------------------------------------
 BYTE   W96
// 046   ----------------------------------------
 BYTE   W96
// 047   ----------------------------------------
 BYTE   W96
// 048   ----------------------------------------
 BYTE   W96
// 049   ----------------------------------------
 BYTE   W96
// 050   ----------------------------------------
 BYTE   W96
// 051   ----------------------------------------
 BYTE   W96
// 052   ----------------------------------------
 BYTE   W96
// 053   ----------------------------------------
 BYTE   W96
// 054   ----------------------------------------
 BYTE   W96
// 055   ----------------------------------------
 BYTE   W96
// 056   ----------------------------------------
 BYTE   W96
// 057   ----------------------------------------
 BYTE   W96
// 058   ----------------------------------------
 BYTE   W96
// 059   ----------------------------------------
 BYTE   W96
// 060   ----------------------------------------
 BYTE   W96
// 061   ----------------------------------------
 BYTE   W96
// 062   ----------------------------------------
 BYTE   W96
// 063   ----------------------------------------
 BYTE   W96
// 064   ----------------------------------------
 BYTE   W96
// 065   ----------------------------------------
 BYTE   W96
// 066   ----------------------------------------
 BYTE   W96
// 067   ----------------------------------------
 BYTE   W96
// 068   ----------------------------------------
 BYTE   W96
// 069   ----------------------------------------
 BYTE   W96
// 070   ----------------------------------------
 BYTE   W96
// 071   ----------------------------------------
 BYTE   W96
// 072   ----------------------------------------
 BYTE   W96
// 073   ----------------------------------------
 BYTE   W96
// 074   ----------------------------------------
 BYTE   W96
// 075   ----------------------------------------
 BYTE   W96
// 076   ----------------------------------------
 BYTE   W96
// 077   ----------------------------------------
 BYTE   W96
// 078   ----------------------------------------
 BYTE   W96
// 079   ----------------------------------------
 BYTE   W96
// 080   ----------------------------------------
 BYTE   W96
// 081   ----------------------------------------
 BYTE   W96
// 082   ----------------------------------------
 BYTE   W96
// 083   ----------------------------------------
 BYTE   W96
// 084   ----------------------------------------
 BYTE   W96
// 085   ----------------------------------------
 BYTE   W96
// 086   ----------------------------------------
 BYTE   W96
// 087   ----------------------------------------
 BYTE   W96
// 088   ----------------------------------------
 BYTE   W96
// 089   ----------------------------------------
 BYTE   W96
// 090   ----------------------------------------
 BYTE   W96
// 091   ----------------------------------------
 BYTE   W96
// 092   ----------------------------------------
 BYTE   W96
// 093   ----------------------------------------
 BYTE   W96
// 094   ----------------------------------------
 BYTE   W96
// 095   ----------------------------------------
 BYTE   W92
 BYTE   W03
 BYTE   GoTo
  POIN2 Label_0_017B2D9D
// 096   ----------------------------------------
 BYTE   W01
 BYTE   FINE

//**************** Track 2 (Midi-Chn.1) ****************//

FE04EndofDespairSmashUltimateArrangementMycahel_002:
// 000   ----------------------------------------
 BYTE   VOL   45*FE04EndofDespairSmashUltimateArrangementMycahel_mvl/mxv
 BYTE   KEYSH   FE04EndofDespairSmashUltimateArrangementMycahel_key+0
 BYTE   VOICE   40
 BYTE   N48  An0  v100
 BYTE   W48
 BYTE   N12  Gn1
 BYTE   W12
 BYTE   Fn1
 BYTE   W12
 BYTE   En1
 BYTE   W12
 BYTE   Dn1
 BYTE   W12
// 001   ----------------------------------------
 BYTE   N24  Cs1
 BYTE   W24
 BYTE   TIE  An0
 BYTE   W72
// 002   ----------------------------------------
 BYTE   W92
Label_1_017B2E5A:
 BYTE   W04
// 003   ----------------------------------------
 BYTE   EOT
 BYTE   An0
 BYTE   N96  As0  v100
 BYTE   W96
// 004   ----------------------------------------
 BYTE   Bn0
 BYTE   W96
// 005   ----------------------------------------
 BYTE   Cn1
 BYTE   W96
// 006   ----------------------------------------
 BYTE   Cs1
 BYTE   W96
// 007   ----------------------------------------
 BYTE   TIE  Dn1
 BYTE   W96
// 008   ----------------------------------------
 BYTE   W96
// 009   ----------------------------------------
 BYTE   W96
// 010   ----------------------------------------
 BYTE   W96
// 011   ----------------------------------------
 BYTE   EOT
 BYTE   TIE  As0
 BYTE   W96
// 012   ----------------------------------------
 BYTE   W96
// 013   ----------------------------------------
 BYTE   EOT
 BYTE   N96  Cn1
 BYTE   W96
// 014   ----------------------------------------
 BYTE   Cs1
 BYTE   W96
// 015   ----------------------------------------
 BYTE   TIE  Dn1
 BYTE   W96
// 016   ----------------------------------------
 BYTE   W96
// 017   ----------------------------------------
 BYTE   EOT
 BYTE   N96
 BYTE   W96
// 018   ----------------------------------------
 BYTE   Cs1
 BYTE   W96
// 019   ----------------------------------------
 BYTE   TIE  Dn1
 BYTE   W96
// 020   ----------------------------------------
 BYTE   W96
// 021   ----------------------------------------
 BYTE   W96
// 022   ----------------------------------------
 BYTE   W96
// 023   ----------------------------------------
 BYTE   EOT
 BYTE   W96
// 024   ----------------------------------------
 BYTE   W96
// 025   ----------------------------------------
 BYTE   TIE
 BYTE   W96
// 026   ----------------------------------------
 BYTE   W96
// 027   ----------------------------------------
 BYTE   EOT
 BYTE   TIE
 BYTE   W96
// 028   ----------------------------------------
 BYTE   W96
// 029   ----------------------------------------
 BYTE   W96
// 030   ----------------------------------------
 BYTE   W96
// 031   ----------------------------------------
 BYTE   W96
// 032   ----------------------------------------
 BYTE   W96
// 033   ----------------------------------------
 BYTE   W96
// 034   ----------------------------------------
 BYTE   W96
// 035   ----------------------------------------
 BYTE   W96
// 036   ----------------------------------------
 BYTE   EOT
 BYTE   W96
// 037   ----------------------------------------
 BYTE   W96
// 038   ----------------------------------------
 BYTE   W96
// 039   ----------------------------------------
 BYTE   W96
// 040   ----------------------------------------
 BYTE   TIE  An0
 BYTE   W96
// 041   ----------------------------------------
 BYTE   W96
// 042   ----------------------------------------
 BYTE   W96
// 043   ----------------------------------------
 BYTE   W96
// 044   ----------------------------------------
 BYTE   W96
// 045   ----------------------------------------
 BYTE   W96
// 046   ----------------------------------------
 BYTE   W96
// 047   ----------------------------------------
 BYTE   W96
// 048   ----------------------------------------
 BYTE   EOT
 BYTE   W96
// 049   ----------------------------------------
 BYTE   W96
// 050   ----------------------------------------
 BYTE   W96
// 051   ----------------------------------------
 BYTE   W96
// 052   ----------------------------------------
 BYTE   W96
// 053   ----------------------------------------
 BYTE   W96
// 054   ----------------------------------------
 BYTE   W96
// 055   ----------------------------------------
 BYTE   W96
// 056   ----------------------------------------
 BYTE   W96
// 057   ----------------------------------------
 BYTE   W96
// 058   ----------------------------------------
 BYTE   W96
// 059   ----------------------------------------
 BYTE   W96
// 060   ----------------------------------------
 BYTE   W96
// 061   ----------------------------------------
 BYTE   W96
// 062   ----------------------------------------
 BYTE   W96
// 063   ----------------------------------------
 BYTE   W96
// 064   ----------------------------------------
 BYTE   TIE  Ds1
 BYTE   W96
// 065   ----------------------------------------
 BYTE   W96
// 066   ----------------------------------------
 BYTE   W96
// 067   ----------------------------------------
 BYTE   W96
// 068   ----------------------------------------
 BYTE   EOT
 BYTE   TIE  Bn0
 BYTE   W96
// 069   ----------------------------------------
 BYTE   W96
// 070   ----------------------------------------
 BYTE   EOT
 BYTE   N96  Cs1
 BYTE   W96
// 071   ----------------------------------------
 BYTE   Dn1
 BYTE   W96
// 072   ----------------------------------------
 BYTE   TIE  Ds1
 BYTE   W96
// 073   ----------------------------------------
 BYTE   W96
// 074   ----------------------------------------
 BYTE   EOT
 BYTE   N96
 BYTE   W96
// 075   ----------------------------------------
 BYTE   Dn1
 BYTE   W96
// 076   ----------------------------------------
 BYTE   TIE  Ds1
 BYTE   W96
// 077   ----------------------------------------
 BYTE   W96
// 078   ----------------------------------------
 BYTE   W96
// 079   ----------------------------------------
 BYTE   W96
// 080   ----------------------------------------
 BYTE   EOT
 BYTE   TIE  Bn0
 BYTE   W96
// 081   ----------------------------------------
 BYTE   W96
// 082   ----------------------------------------
 BYTE   EOT
 BYTE   N96  Cs1
 BYTE   W96
// 083   ----------------------------------------
 BYTE   Dn1
 BYTE   W96
// 084   ----------------------------------------
 BYTE   TIE  Ds1
 BYTE   W96
// 085   ----------------------------------------
 BYTE   W96
// 086   ----------------------------------------
 BYTE   EOT
 BYTE   N96
 BYTE   W96
// 087   ----------------------------------------
 BYTE   Dn1
 BYTE   W96
// 088   ----------------------------------------
 BYTE   TIE  Ds1
 BYTE   W96
// 089   ----------------------------------------
 BYTE   W96
// 090   ----------------------------------------
 BYTE   W96
// 091   ----------------------------------------
 BYTE   W96
// 092   ----------------------------------------
 BYTE   EOT
 BYTE   W96
// 093   ----------------------------------------
 BYTE   W96
// 094   ----------------------------------------
 BYTE   TIE
 BYTE   W96
// 095   ----------------------------------------
 BYTE   W92
 BYTE   W03
 BYTE   GoTo
  POIN2 Label_1_017B2E5A
// 096   ----------------------------------------
 BYTE   W01
 BYTE   EOT
 BYTE   Ds1
 BYTE   FINE

//**************** Track 3 (Midi-Chn.2) ****************//

FE04EndofDespairSmashUltimateArrangementMycahel_003:
// 000   ----------------------------------------
 BYTE   VOL   45*FE04EndofDespairSmashUltimateArrangementMycahel_mvl/mxv
 BYTE   KEYSH   FE04EndofDespairSmashUltimateArrangementMycahel_key+0
 BYTE   VOICE   40
 BYTE   W96
// 001   ----------------------------------------
 BYTE   W96
// 002   ----------------------------------------
 BYTE   W92
Label_2_017B2F0D:
 BYTE   W04
// 003   ----------------------------------------
 BYTE   N12  Gn2  v088
 BYTE   N12  Dn3
 BYTE   W12
 BYTE   Gn2
 BYTE   N12  Dn3
 BYTE   W12
 BYTE   Gn2
 BYTE   N12  Dn3
 BYTE   W12
 BYTE   Gn2
 BYTE   N12  Dn3
 BYTE   W12
 BYTE   Gn2
 BYTE   N12  Dn3
 BYTE   W12
 BYTE   Gn2
 BYTE   N12  Dn3
 BYTE   W12
 BYTE   Gn2
 BYTE   N12  Dn3
 BYTE   W12
 BYTE   Gn2
 BYTE   N12  Dn3
 BYTE   W12
// 004   ----------------------------------------
 BYTE   An2
 BYTE   N12  En3
 BYTE   W12
 BYTE   An2
 BYTE   N12  En3
 BYTE   W12
 BYTE   An2
 BYTE   N12  En3
 BYTE   W12
 BYTE   An2
 BYTE   N12  En3
 BYTE   W12
 BYTE   An2
 BYTE   N12  En3
 BYTE   W12
 BYTE   An2
 BYTE   N12  En3
 BYTE   W12
 BYTE   An2
 BYTE   N12  En3
 BYTE   W12
 BYTE   An2
 BYTE   N12  En3
 BYTE   W12
// 005   ----------------------------------------
 BYTE   As2
 BYTE   N12  Fn3
 BYTE   W12
 BYTE   As2
 BYTE   N12  Fn3
 BYTE   W12
 BYTE   As2
 BYTE   N12  Fn3
 BYTE   W12
 BYTE   As2
 BYTE   N12  Fn3
 BYTE   W12
 BYTE   As2
 BYTE   N12  Fn3
 BYTE   W12
 BYTE   As2
 BYTE   N12  Fn3
 BYTE   W12
 BYTE   As2
 BYTE   N12  Fn3
 BYTE   W12
 BYTE   As2
 BYTE   N12  Fn3
 BYTE   W12
// 006   ----------------------------------------
 BYTE   Cn3  v127
 BYTE   N12  Gn3
 BYTE   W12
 BYTE   Cn3
 BYTE   N12  Gn3
 BYTE   W12
 BYTE   Cn3
 BYTE   N12  Gn3
 BYTE   W12
 BYTE   Cn3
 BYTE   N12  Gn3
 BYTE   W12
 BYTE   Cn3
 BYTE   N12  Gn3
 BYTE   W12
 BYTE   Cn3
 BYTE   N12  Gn3
 BYTE   W12
 BYTE   Cn3
 BYTE   N12  Gn3
 BYTE   W12
 BYTE   Cn3
 BYTE   N12  Gn3
 BYTE   W12
// 007   ----------------------------------------
 BYTE   W96
// 008   ----------------------------------------
 BYTE   W96
// 009   ----------------------------------------
 BYTE   W96
// 010   ----------------------------------------
 BYTE   W96
// 011   ----------------------------------------
 BYTE   W96
// 012   ----------------------------------------
 BYTE   W96
// 013   ----------------------------------------
 BYTE   W96
// 014   ----------------------------------------
 BYTE   W96
// 015   ----------------------------------------
 BYTE   W96
// 016   ----------------------------------------
 BYTE   W96
// 017   ----------------------------------------
 BYTE   W96
// 018   ----------------------------------------
 BYTE   W96
// 019   ----------------------------------------
 BYTE   W96
// 020   ----------------------------------------
 BYTE   W96
// 021   ----------------------------------------
 BYTE   W96
// 022   ----------------------------------------
 BYTE   W96
// 023   ----------------------------------------
 BYTE   W96
// 024   ----------------------------------------
 BYTE   W96
// 025   ----------------------------------------
 BYTE   W96
// 026   ----------------------------------------
 BYTE   W96
// 027   ----------------------------------------
 BYTE   W96
// 028   ----------------------------------------
 BYTE   W96
// 029   ----------------------------------------
 BYTE   W96
// 030   ----------------------------------------
 BYTE   W96
// 031   ----------------------------------------
 BYTE   W96
// 032   ----------------------------------------
 BYTE   W96
// 033   ----------------------------------------
 BYTE   W96
// 034   ----------------------------------------
 BYTE   W96
// 035   ----------------------------------------
 BYTE   W96
// 036   ----------------------------------------
 BYTE   W96
// 037   ----------------------------------------
 BYTE   W96
// 038   ----------------------------------------
 BYTE   W96
// 039   ----------------------------------------
 BYTE   W96
// 040   ----------------------------------------
 BYTE   W96
// 041   ----------------------------------------
 BYTE   W96
// 042   ----------------------------------------
 BYTE   W96
// 043   ----------------------------------------
 BYTE   W96
// 044   ----------------------------------------
 BYTE   W96
// 045   ----------------------------------------
 BYTE   W96
// 046   ----------------------------------------
 BYTE   W96
// 047   ----------------------------------------
 BYTE   W96
// 048   ----------------------------------------
 BYTE   W96
// 049   ----------------------------------------
 BYTE   W96
// 050   ----------------------------------------
 BYTE   W96
// 051   ----------------------------------------
 BYTE   W96
// 052   ----------------------------------------
 BYTE   W96
// 053   ----------------------------------------
 BYTE   W96
// 054   ----------------------------------------
 BYTE   W96
// 055   ----------------------------------------
 BYTE   W96
// 056   ----------------------------------------
 BYTE   W96
// 057   ----------------------------------------
 BYTE   W96
// 058   ----------------------------------------
 BYTE   W96
// 059   ----------------------------------------
 BYTE   W96
// 060   ----------------------------------------
 BYTE   W96
// 061   ----------------------------------------
 BYTE   W96
// 062   ----------------------------------------
 BYTE   W96
// 063   ----------------------------------------
 BYTE   W96
// 064   ----------------------------------------
 BYTE   W96
// 065   ----------------------------------------
 BYTE   W96
// 066   ----------------------------------------
 BYTE   W96
// 067   ----------------------------------------
 BYTE   W96
// 068   ----------------------------------------
 BYTE   W96
// 069   ----------------------------------------
 BYTE   W96
// 070   ----------------------------------------
 BYTE   W96
// 071   ----------------------------------------
 BYTE   W96
// 072   ----------------------------------------
 BYTE   W96
// 073   ----------------------------------------
 BYTE   W96
// 074   ----------------------------------------
 BYTE   W96
// 075   ----------------------------------------
 BYTE   W96
// 076   ----------------------------------------
 BYTE   W96
// 077   ----------------------------------------
 BYTE   W96
// 078   ----------------------------------------
 BYTE   W96
// 079   ----------------------------------------
 BYTE   W96
// 080   ----------------------------------------
 BYTE   W96
// 081   ----------------------------------------
 BYTE   W96
// 082   ----------------------------------------
 BYTE   W96
// 083   ----------------------------------------
 BYTE   W96
// 084   ----------------------------------------
 BYTE   W96
// 085   ----------------------------------------
 BYTE   W96
// 086   ----------------------------------------
 BYTE   W96
// 087   ----------------------------------------
 BYTE   W96
// 088   ----------------------------------------
 BYTE   W96
// 089   ----------------------------------------
 BYTE   W96
// 090   ----------------------------------------
 BYTE   W96
// 091   ----------------------------------------
 BYTE   W96
// 092   ----------------------------------------
 BYTE   W96
// 093   ----------------------------------------
 BYTE   W96
// 094   ----------------------------------------
 BYTE   W96
// 095   ----------------------------------------
 BYTE   W92
 BYTE   W03
 BYTE   GoTo
  POIN2 Label_2_017B2F0D
// 096   ----------------------------------------
 BYTE   W01
 BYTE   FINE

//**************** Track 4 (Midi-Chn.3) ****************//

FE04EndofDespairSmashUltimateArrangementMycahel_004:
// 000   ----------------------------------------
 BYTE   VOL   55*FE04EndofDespairSmashUltimateArrangementMycahel_mvl/mxv
 BYTE   KEYSH   FE04EndofDespairSmashUltimateArrangementMycahel_key+0
 BYTE   VOICE   41
 BYTE   W96
// 001   ----------------------------------------
 BYTE   W96
// 002   ----------------------------------------
 BYTE   W48
 BYTE   N06  Cn3  v096
 BYTE   W06
 BYTE   As2
 BYTE   W06
 BYTE   An2
 BYTE   W06
 BYTE   As2
 BYTE   W06
 BYTE   Cn3
 BYTE   W06
 BYTE   As2
 BYTE   W06
 BYTE   An2
 BYTE   W06
 BYTE   Cn3
 BYTE   W02
Label_3_017B300F:
 BYTE   W04
// 003   ----------------------------------------
Label_3_017B3010:
 BYTE   N06  Cn3  v096
 BYTE   W06
 BYTE   As2
 BYTE   W06
 BYTE   An2
 BYTE   W06
 BYTE   As2
 BYTE   W06
 BYTE   Cn3
 BYTE   W06
 BYTE   As2
 BYTE   W06
 BYTE   An2
 BYTE   W06
 BYTE   Cn3
 BYTE   W06
 BYTE   N06
 BYTE   W06
 BYTE   As2
 BYTE   W06
 BYTE   An2
 BYTE   W06
 BYTE   As2
 BYTE   W06
 BYTE   Cn3
 BYTE   W06
 BYTE   As2
 BYTE   W06
 BYTE   An2
 BYTE   W06
 BYTE   Cn3
 BYTE   W06
 BYTE   PEND 
 BYTE   PATT
  POIN2 Label_3_017B3010
 BYTE   PATT
  POIN2 Label_3_017B3010
 BYTE   PATT
  POIN2 Label_3_017B3010
// 004   ----------------------------------------
Label_3_017B3042:
 BYTE   N06  Dn2  v096
 BYTE   W12
 BYTE   An2
 BYTE   W06
 BYTE   N06
 BYTE   W06
 BYTE   N06
 BYTE   W12
 BYTE   N06
 BYTE   W06
 BYTE   N06
 BYTE   W06
 BYTE   N06
 BYTE   W12
 BYTE   N06
 BYTE   W06
 BYTE   N06
 BYTE   W06
 BYTE   N06
 BYTE   W12
 BYTE   N06
 BYTE   W06
 BYTE   N01
 BYTE   W06
 BYTE   PEND 
// 005   ----------------------------------------
Label_3_017B305D:
 BYTE   N06  Dn2  v096
 BYTE   W12
 BYTE   As2
 BYTE   W06
 BYTE   N06
 BYTE   W06
 BYTE   N06
 BYTE   W12
 BYTE   N06
 BYTE   W06
 BYTE   N06
 BYTE   W06
 BYTE   N06
 BYTE   W12
 BYTE   N06
 BYTE   W06
 BYTE   N06
 BYTE   W06
 BYTE   N06
 BYTE   W12
 BYTE   N06
 BYTE   W06
 BYTE   N01
 BYTE   W06
 BYTE   PEND 
// 006   ----------------------------------------
Label_3_017B3078:
 BYTE   N06  Dn2  v096
 BYTE   W12
 BYTE   Cn3
 BYTE   W06
 BYTE   N06
 BYTE   W06
 BYTE   N06
 BYTE   W12
 BYTE   N06
 BYTE   W06
 BYTE   N06
 BYTE   W06
 BYTE   N06
 BYTE   W12
 BYTE   N06
 BYTE   W06
 BYTE   N06
 BYTE   W06
 BYTE   N06
 BYTE   W12
 BYTE   N06
 BYTE   W06
 BYTE   N01
 BYTE   W06
 BYTE   PEND 
// 007   ----------------------------------------
Label_3_017B3093:
 BYTE   N06  Dn2  v096
 BYTE   W12
 BYTE   Bn2
 BYTE   W06
 BYTE   N06
 BYTE   W06
 BYTE   N06
 BYTE   W12
 BYTE   N06
 BYTE   W06
 BYTE   N06
 BYTE   W06
 BYTE   N06
 BYTE   W12
 BYTE   N06
 BYTE   W06
 BYTE   N06
 BYTE   W06
 BYTE   N06
 BYTE   W12
 BYTE   N06
 BYTE   W06
 BYTE   N01
 BYTE   W06
 BYTE   PEND 
 BYTE   PATT
  POIN2 Label_3_017B3042
 BYTE   PATT
  POIN2 Label_3_017B305D
// 008   ----------------------------------------
 BYTE   W96
// 009   ----------------------------------------
 BYTE   W96
 BYTE   PATT
  POIN2 Label_3_017B305D
 BYTE   PATT
  POIN2 Label_3_017B305D
 BYTE   PATT
  POIN2 Label_3_017B3078
 BYTE   PATT
  POIN2 Label_3_017B3078
 BYTE   PATT
  POIN2 Label_3_017B3042
 BYTE   PATT
  POIN2 Label_3_017B305D
 BYTE   PATT
  POIN2 Label_3_017B3078
 BYTE   PATT
  POIN2 Label_3_017B3093
 BYTE   PATT
  POIN2 Label_3_017B3042
 BYTE   PATT
  POIN2 Label_3_017B305D
// 010   ----------------------------------------
 BYTE   W96
// 011   ----------------------------------------
 BYTE   W96
 BYTE   PATT
  POIN2 Label_3_017B305D
 BYTE   PATT
  POIN2 Label_3_017B305D
// 012   ----------------------------------------
Label_3_017B30F8:
 BYTE   N06  Dn2  v096
 BYTE   W12
 BYTE   Cs3
 BYTE   W06
 BYTE   N06
 BYTE   W06
 BYTE   N06
 BYTE   W12
 BYTE   N06
 BYTE   W06
 BYTE   N06
 BYTE   W06
 BYTE   N06
 BYTE   W12
 BYTE   N06
 BYTE   W06
 BYTE   N06
 BYTE   W06
 BYTE   N06
 BYTE   W12
 BYTE   N06
 BYTE   W06
 BYTE   N01
 BYTE   W06
 BYTE   PEND 
 BYTE   PATT
  POIN2 Label_3_017B30F8
 BYTE   PATT
  POIN2 Label_3_017B30F8
 BYTE   PATT
  POIN2 Label_3_017B30F8
// 013   ----------------------------------------
Label_3_017B3122:
 BYTE   N06  Dn2  v096
 BYTE   W12
 BYTE   Dn3
 BYTE   W06
 BYTE   N06
 BYTE   W06
 BYTE   N06
 BYTE   W12
 BYTE   N06
 BYTE   W06
 BYTE   N06
 BYTE   W06
 BYTE   N06
 BYTE   W12
 BYTE   N06
 BYTE   W06
 BYTE   N06
 BYTE   W06
 BYTE   N06
 BYTE   W12
 BYTE   N06
 BYTE   W06
 BYTE   N01
 BYTE   W06
 BYTE   PEND 
 BYTE   PATT
  POIN2 Label_3_017B3122
 BYTE   PATT
  POIN2 Label_3_017B3122
// 014   ----------------------------------------
 BYTE   W96
// 015   ----------------------------------------
 BYTE   W96
// 016   ----------------------------------------
 BYTE   W96
// 017   ----------------------------------------
 BYTE   W96
// 018   ----------------------------------------
 BYTE   W96
// 019   ----------------------------------------
 BYTE   W96
// 020   ----------------------------------------
 BYTE   W96
// 021   ----------------------------------------
 BYTE   W96
// 022   ----------------------------------------
 BYTE   W96
// 023   ----------------------------------------
 BYTE   W96
// 024   ----------------------------------------
 BYTE   W96
// 025   ----------------------------------------
 BYTE   W96
// 026   ----------------------------------------
 BYTE   W96
// 027   ----------------------------------------
 BYTE   W96
// 028   ----------------------------------------
 BYTE   W96
// 029   ----------------------------------------
 BYTE   W96
// 030   ----------------------------------------
 BYTE   W96
// 031   ----------------------------------------
 BYTE   W96
// 032   ----------------------------------------
 BYTE   W96
// 033   ----------------------------------------
 BYTE   W96
// 034   ----------------------------------------
 BYTE   W96
// 035   ----------------------------------------
 BYTE   W96
// 036   ----------------------------------------
 BYTE   W96
// 037   ----------------------------------------
 BYTE   W96
// 038   ----------------------------------------
 BYTE   W96
// 039   ----------------------------------------
 BYTE   W96
// 040   ----------------------------------------
 BYTE   W96
// 041   ----------------------------------------
 BYTE   W96
// 042   ----------------------------------------
Label_3_017B3163:
 BYTE   N06  Ds2  v096
 BYTE   W12
 BYTE   As2
 BYTE   W06
 BYTE   N06
 BYTE   W06
 BYTE   N06
 BYTE   W12
 BYTE   N06
 BYTE   W06
 BYTE   N06
 BYTE   W06
 BYTE   N06
 BYTE   W12
 BYTE   N06
 BYTE   W06
 BYTE   N06
 BYTE   W06
 BYTE   N06
 BYTE   W12
 BYTE   N06
 BYTE   W06
 BYTE   N01
 BYTE   W06
 BYTE   PEND 
// 043   ----------------------------------------
Label_3_017B317E:
 BYTE   N06  Ds2  v096
 BYTE   W12
 BYTE   Bn2
 BYTE   W06
 BYTE   N06
 BYTE   W06
 BYTE   N06
 BYTE   W12
 BYTE   N06
 BYTE   W06
 BYTE   N06
 BYTE   W06
 BYTE   N06
 BYTE   W12
 BYTE   N06
 BYTE   W06
 BYTE   N06
 BYTE   W06
 BYTE   N06
 BYTE   W12
 BYTE   N06
 BYTE   W06
 BYTE   N01
 BYTE   W06
 BYTE   PEND 
// 044   ----------------------------------------
Label_3_017B3199:
 BYTE   N06  Ds2  v096
 BYTE   W12
 BYTE   Cs3
 BYTE   W06
 BYTE   N06
 BYTE   W06
 BYTE   N06
 BYTE   W12
 BYTE   N06
 BYTE   W06
 BYTE   N06
 BYTE   W06
 BYTE   N06
 BYTE   W12
 BYTE   N06
 BYTE   W06
 BYTE   N06
 BYTE   W06
 BYTE   N06
 BYTE   W12
 BYTE   N06
 BYTE   W06
 BYTE   N01
 BYTE   W06
 BYTE   PEND 
// 045   ----------------------------------------
Label_3_017B31B4:
 BYTE   N06  Ds2  v096
 BYTE   W12
 BYTE   Cn3
 BYTE   W06
 BYTE   N06
 BYTE   W06
 BYTE   N06
 BYTE   W12
 BYTE   N06
 BYTE   W06
 BYTE   N06
 BYTE   W06
 BYTE   N06
 BYTE   W12
 BYTE   N06
 BYTE   W06
 BYTE   N06
 BYTE   W06
 BYTE   N06
 BYTE   W12
 BYTE   N06
 BYTE   W06
 BYTE   N01
 BYTE   W06
 BYTE   PEND 
 BYTE   PATT
  POIN2 Label_3_017B3163
 BYTE   PATT
  POIN2 Label_3_017B317E
// 046   ----------------------------------------
 BYTE   W96
// 047   ----------------------------------------
 BYTE   W96
 BYTE   PATT
  POIN2 Label_3_017B317E
 BYTE   PATT
  POIN2 Label_3_017B317E
 BYTE   PATT
  POIN2 Label_3_017B3199
 BYTE   PATT
  POIN2 Label_3_017B3199
 BYTE   PATT
  POIN2 Label_3_017B3163
 BYTE   PATT
  POIN2 Label_3_017B317E
 BYTE   PATT
  POIN2 Label_3_017B3199
 BYTE   PATT
  POIN2 Label_3_017B31B4
 BYTE   PATT
  POIN2 Label_3_017B3163
 BYTE   PATT
  POIN2 Label_3_017B317E
// 048   ----------------------------------------
 BYTE   W96
// 049   ----------------------------------------
 BYTE   W96
 BYTE   PATT
  POIN2 Label_3_017B317E
 BYTE   PATT
  POIN2 Label_3_017B317E
 BYTE   PATT
  POIN2 Label_3_017B3199
 BYTE   PATT
  POIN2 Label_3_017B3199
 BYTE   PATT
  POIN2 Label_3_017B3163
 BYTE   PATT
  POIN2 Label_3_017B317E
 BYTE   PATT
  POIN2 Label_3_017B3199
 BYTE   PATT
  POIN2 Label_3_017B31B4
 BYTE   PATT
  POIN2 Label_3_017B3163
 BYTE   PATT
  POIN2 Label_3_017B317E
// 050   ----------------------------------------
 BYTE   W96
// 051   ----------------------------------------
 BYTE   W92
 BYTE   W03
 BYTE   GoTo
  POIN2 Label_3_017B300F
// 052   ----------------------------------------
 BYTE   W01
 BYTE   FINE

//**************** Track 5 (Midi-Chn.4) ****************//

FE04EndofDespairSmashUltimateArrangementMycahel_005:
// 000   ----------------------------------------
 BYTE   VOL   55*FE04EndofDespairSmashUltimateArrangementMycahel_mvl/mxv
 BYTE   KEYSH   FE04EndofDespairSmashUltimateArrangementMycahel_key+0
 BYTE   VOICE   42
 BYTE   W96
// 001   ----------------------------------------
 BYTE   W96
// 002   ----------------------------------------
 BYTE   W92
Label_4_017B3255:
 BYTE   W04
// 003   ----------------------------------------
Label_4_017B3256:
 BYTE   N06  Gn2  v127
 BYTE   W06
 BYTE   N06
 BYTE   W06
 BYTE   N06
 BYTE   W06
 BYTE   N06
 BYTE   W06
 BYTE   N06
 BYTE   W06
 BYTE   N06
 BYTE   W06
 BYTE   N06
 BYTE   W06
 BYTE   N06
 BYTE   W06
 BYTE   N06
 BYTE   W06
 BYTE   N06
 BYTE   W06
 BYTE   N06
 BYTE   W06
 BYTE   N06
 BYTE   W06
 BYTE   N06
 BYTE   W06
 BYTE   N06
 BYTE   W06
 BYTE   N06
 BYTE   W06
 BYTE   N06
 BYTE   W06
 BYTE   PEND 
 BYTE   PATT
  POIN2 Label_4_017B3256
 BYTE   PATT
  POIN2 Label_4_017B3256
 BYTE   PATT
  POIN2 Label_4_017B3256
// 004   ----------------------------------------
 BYTE   W96
// 005   ----------------------------------------
 BYTE   W96
// 006   ----------------------------------------
 BYTE   W96
// 007   ----------------------------------------
 BYTE   W96
// 008   ----------------------------------------
 BYTE   W96
// 009   ----------------------------------------
 BYTE   W96
// 010   ----------------------------------------
 BYTE   W96
// 011   ----------------------------------------
 BYTE   W96
// 012   ----------------------------------------
 BYTE   W96
// 013   ----------------------------------------
 BYTE   W96
// 014   ----------------------------------------
 BYTE   W96
// 015   ----------------------------------------
 BYTE   W96
// 016   ----------------------------------------
 BYTE   W96
// 017   ----------------------------------------
 BYTE   W96
// 018   ----------------------------------------
 BYTE   W96
// 019   ----------------------------------------
 BYTE   W96
// 020   ----------------------------------------
 BYTE   W96
// 021   ----------------------------------------
 BYTE   W96
// 022   ----------------------------------------
 BYTE   W96
// 023   ----------------------------------------
 BYTE   W96
// 024   ----------------------------------------
 BYTE   W96
// 025   ----------------------------------------
 BYTE   W96
// 026   ----------------------------------------
 BYTE   W96
// 027   ----------------------------------------
 BYTE   W96
// 028   ----------------------------------------
 BYTE   W96
// 029   ----------------------------------------
 BYTE   W96
// 030   ----------------------------------------
 BYTE   W96
// 031   ----------------------------------------
 BYTE   W96
// 032   ----------------------------------------
 BYTE   W96
// 033   ----------------------------------------
 BYTE   W96
// 034   ----------------------------------------
 BYTE   W96
// 035   ----------------------------------------
 BYTE   W96
// 036   ----------------------------------------
 BYTE   W96
// 037   ----------------------------------------
 BYTE   W96
// 038   ----------------------------------------
 BYTE   W96
// 039   ----------------------------------------
 BYTE   W96
// 040   ----------------------------------------
 BYTE   W96
// 041   ----------------------------------------
 BYTE   W96
// 042   ----------------------------------------
 BYTE   W96
// 043   ----------------------------------------
 BYTE   W96
// 044   ----------------------------------------
 BYTE   W96
// 045   ----------------------------------------
 BYTE   W96
// 046   ----------------------------------------
 BYTE   W96
// 047   ----------------------------------------
 BYTE   W96
// 048   ----------------------------------------
 BYTE   W96
// 049   ----------------------------------------
 BYTE   W96
// 050   ----------------------------------------
 BYTE   W96
// 051   ----------------------------------------
 BYTE   W96
// 052   ----------------------------------------
 BYTE   W96
// 053   ----------------------------------------
Label_4_017B32B9:
 BYTE   N06  Fn3  v124
 BYTE   W06
 BYTE   N06
 BYTE   W06
 BYTE   N06
 BYTE   W06
 BYTE   N06
 BYTE   W06
 BYTE   N06
 BYTE   W06
 BYTE   N06
 BYTE   W06
 BYTE   N06
 BYTE   W06
 BYTE   N06
 BYTE   W06
 BYTE   N06
 BYTE   W06
 BYTE   N06
 BYTE   W06
 BYTE   N06
 BYTE   W06
 BYTE   N06
 BYTE   W06
 BYTE   N06
 BYTE   W06
 BYTE   N06
 BYTE   W06
 BYTE   N06
 BYTE   W06
 BYTE   N06
 BYTE   W06
 BYTE   PEND 
 BYTE   PATT
  POIN2 Label_4_017B32B9
 BYTE   PATT
  POIN2 Label_4_017B32B9
 BYTE   PATT
  POIN2 Label_4_017B32B9
 BYTE   PATT
  POIN2 Label_4_017B32B9
 BYTE   PATT
  POIN2 Label_4_017B32B9
 BYTE   PATT
  POIN2 Label_4_017B32B9
 BYTE   PATT
  POIN2 Label_4_017B32B9
// 054   ----------------------------------------
 BYTE   W96
// 055   ----------------------------------------
 BYTE   W96
// 056   ----------------------------------------
 BYTE   W96
// 057   ----------------------------------------
 BYTE   W96
// 058   ----------------------------------------
 BYTE   W96
// 059   ----------------------------------------
 BYTE   W96
// 060   ----------------------------------------
 BYTE   W96
// 061   ----------------------------------------
 BYTE   W96
// 062   ----------------------------------------
 BYTE   W96
// 063   ----------------------------------------
 BYTE   W96
// 064   ----------------------------------------
 BYTE   W96
// 065   ----------------------------------------
 BYTE   W96
// 066   ----------------------------------------
 BYTE   W96
// 067   ----------------------------------------
 BYTE   W96
// 068   ----------------------------------------
 BYTE   W96
// 069   ----------------------------------------
 BYTE   W96
// 070   ----------------------------------------
 BYTE   W96
// 071   ----------------------------------------
 BYTE   W96
// 072   ----------------------------------------
 BYTE   W96
// 073   ----------------------------------------
 BYTE   W96
// 074   ----------------------------------------
 BYTE   W96
// 075   ----------------------------------------
 BYTE   W96
// 076   ----------------------------------------
 BYTE   W96
// 077   ----------------------------------------
 BYTE   W96
// 078   ----------------------------------------
 BYTE   W96
// 079   ----------------------------------------
 BYTE   W96
// 080   ----------------------------------------
 BYTE   W96
// 081   ----------------------------------------
 BYTE   W96
// 082   ----------------------------------------
 BYTE   W96
// 083   ----------------------------------------
 BYTE   W96
// 084   ----------------------------------------
 BYTE   W96
// 085   ----------------------------------------
 BYTE   W92
 BYTE   W03
 BYTE   GoTo
  POIN2 Label_4_017B3255
// 086   ----------------------------------------
 BYTE   W01
 BYTE   FINE

//**************** Track 6 (Midi-Chn.5) ****************//

FE04EndofDespairSmashUltimateArrangementMycahel_006:
// 000   ----------------------------------------
 BYTE   VOL   70*FE04EndofDespairSmashUltimateArrangementMycahel_mvl/mxv
 BYTE   KEYSH   FE04EndofDespairSmashUltimateArrangementMycahel_key+0
 BYTE   VOICE   60
 BYTE   W96
// 001   ----------------------------------------
 BYTE   W96
// 002   ----------------------------------------
 BYTE   W92
Label_5_017B3331:
 BYTE   W04
// 003   ----------------------------------------
 BYTE   N12  Gn2  v127
 BYTE   W36
 BYTE   N06  Dn3
 BYTE   W06
 BYTE   N06
 BYTE   W06
 BYTE   N48
 BYTE   W48
// 004   ----------------------------------------
 BYTE   N12  An2
 BYTE   W36
 BYTE   N06  En3
 BYTE   W06
 BYTE   N06
 BYTE   W06
 BYTE   N48
 BYTE   W48
// 005   ----------------------------------------
 BYTE   N12  As2
 BYTE   W36
 BYTE   N06  Fn3
 BYTE   W06
 BYTE   N06
 BYTE   W06
 BYTE   N48
 BYTE   W48
// 006   ----------------------------------------
 BYTE   N12  Cs3
 BYTE   W36
 BYTE   N06  Gn3
 BYTE   W06
 BYTE   N06
 BYTE   W06
 BYTE   N48
 BYTE   W48
// 007   ----------------------------------------
 BYTE   W96
// 008   ----------------------------------------
 BYTE   W96
// 009   ----------------------------------------
 BYTE   N12  Gn3  v100
 BYTE   W12
 BYTE   En4
 BYTE   W12
 BYTE   TIE  Dn4
 BYTE   W72
// 010   ----------------------------------------
 BYTE   W96
// 011   ----------------------------------------
 BYTE   EOT
 BYTE   W96
// 012   ----------------------------------------
 BYTE   W96
// 013   ----------------------------------------
 BYTE   W96
// 014   ----------------------------------------
 BYTE   W96
// 015   ----------------------------------------
 BYTE   W96
// 016   ----------------------------------------
 BYTE   W96
// 017   ----------------------------------------
 BYTE   N12  Cn4  v116
 BYTE   W12
 BYTE   Bn3
 BYTE   W12
 BYTE   N24  An3
 BYTE   W24
 BYTE   N12  Dn4
 BYTE   W12
 BYTE   Cn4
 BYTE   W12
 BYTE   N24  Bn3
 BYTE   W24
// 018   ----------------------------------------
 BYTE   N12  Fn4
 BYTE   W12
 BYTE   En4
 BYTE   W12
 BYTE   N24  Dn4
 BYTE   W24
 BYTE   N12  Gn4
 BYTE   W12
 BYTE   Fn4
 BYTE   W12
 BYTE   N24  En4
 BYTE   W24
// 019   ----------------------------------------
 BYTE   W96
// 020   ----------------------------------------
 BYTE   W96
// 021   ----------------------------------------
 BYTE   W96
// 022   ----------------------------------------
 BYTE   W96
// 023   ----------------------------------------
 BYTE   W24
 BYTE   An3  v104
 BYTE   W24
 BYTE   Dn4
 BYTE   W24
 BYTE   Fn4
 BYTE   W24
// 024   ----------------------------------------
 BYTE   Gn4
 BYTE   W24
 BYTE   En4
 BYTE   W24
 BYTE   Cn4
 BYTE   W24
 BYTE   Gn4
 BYTE   W24
// 025   ----------------------------------------
 BYTE   N12  Fn4
 BYTE   W12
 BYTE   En4
 BYTE   W12
 BYTE   TIE  Dn4
 BYTE   W72
// 026   ----------------------------------------
 BYTE   W72
 BYTE   EOT
 BYTE   W24
// 027   ----------------------------------------
 BYTE   W96
// 028   ----------------------------------------
 BYTE   W96
// 029   ----------------------------------------
 BYTE   W96
// 030   ----------------------------------------
 BYTE   W96
// 031   ----------------------------------------
 BYTE   W96
// 032   ----------------------------------------
 BYTE   W96
// 033   ----------------------------------------
 BYTE   W96
// 034   ----------------------------------------
 BYTE   W96
// 035   ----------------------------------------
 BYTE   W96
// 036   ----------------------------------------
 BYTE   W96
// 037   ----------------------------------------
 BYTE   W96
// 038   ----------------------------------------
 BYTE   W96
// 039   ----------------------------------------
 BYTE   W96
// 040   ----------------------------------------
 BYTE   N96  An2  v096
 BYTE   W96
// 041   ----------------------------------------
Label_5_017B33BF:
 BYTE   N48  Bn2  v096
 BYTE   W48
 BYTE   An2
 BYTE   W48
 BYTE   PEND 
// 042   ----------------------------------------
 BYTE   N96  Fs2
 BYTE   W96
// 043   ----------------------------------------
 BYTE   Gn2
 BYTE   W96
// 044   ----------------------------------------
 BYTE   An2
 BYTE   W96
 BYTE   PATT
  POIN2 Label_5_017B33BF
// 045   ----------------------------------------
 BYTE   N96  Fs2  v096
 BYTE   W96
// 046   ----------------------------------------
 BYTE   Gn2
 BYTE   W96
// 047   ----------------------------------------
 BYTE   W96
// 048   ----------------------------------------
 BYTE   W96
// 049   ----------------------------------------
 BYTE   W96
// 050   ----------------------------------------
 BYTE   W96
// 051   ----------------------------------------
 BYTE   W96
// 052   ----------------------------------------
 BYTE   W96
// 053   ----------------------------------------
 BYTE   W96
// 054   ----------------------------------------
 BYTE   W96
// 055   ----------------------------------------
 BYTE   W96
// 056   ----------------------------------------
 BYTE   W96
// 057   ----------------------------------------
 BYTE   W96
// 058   ----------------------------------------
 BYTE   W96
// 059   ----------------------------------------
 BYTE   W96
// 060   ----------------------------------------
 BYTE   W96
// 061   ----------------------------------------
 BYTE   W96
// 062   ----------------------------------------
 BYTE   W96
// 063   ----------------------------------------
 BYTE   W96
// 064   ----------------------------------------
 BYTE   W96
// 065   ----------------------------------------
Label_5_017B33EA:
 BYTE   N12  Gs3  v100
 BYTE   W12
 BYTE   Fn4
 BYTE   W12
 BYTE   TIE  Ds4
 BYTE   W72
 BYTE   PEND 
// 066   ----------------------------------------
 BYTE   W96
// 067   ----------------------------------------
 BYTE   EOT
 BYTE   W96
// 068   ----------------------------------------
 BYTE   W96
// 069   ----------------------------------------
 BYTE   W96
// 070   ----------------------------------------
 BYTE   W96
// 071   ----------------------------------------
 BYTE   W96
// 072   ----------------------------------------
 BYTE   W96
// 073   ----------------------------------------
Label_5_017B33FC:
 BYTE   N12  Cs4  v116
 BYTE   W12
 BYTE   Cn4
 BYTE   W12
 BYTE   N24  As3
 BYTE   W24
 BYTE   N12  Ds4
 BYTE   W12
 BYTE   Cs4
 BYTE   W12
 BYTE   N24  Cn4
 BYTE   W24
 BYTE   PEND 
// 074   ----------------------------------------
Label_5_017B340E:
 BYTE   N12  Fs4  v116
 BYTE   W12
 BYTE   Fn4
 BYTE   W12
 BYTE   N24  Ds4
 BYTE   W24
 BYTE   N12  Gs4
 BYTE   W12
 BYTE   Fs4
 BYTE   W12
 BYTE   N24  Fn4
 BYTE   W24
 BYTE   PEND 
// 075   ----------------------------------------
 BYTE   W96
// 076   ----------------------------------------
 BYTE   W96
 BYTE   PATT
  POIN2 Label_5_017B33EA
// 077   ----------------------------------------
 BYTE   W96
// 078   ----------------------------------------
 BYTE   EOT
 BYTE   Ds4
 BYTE   W96
// 079   ----------------------------------------
 BYTE   W96
// 080   ----------------------------------------
 BYTE   W96
// 081   ----------------------------------------
 BYTE   W96
// 082   ----------------------------------------
 BYTE   W96
// 083   ----------------------------------------
 BYTE   W96
 BYTE   PATT
  POIN2 Label_5_017B33FC
 BYTE   PATT
  POIN2 Label_5_017B340E
// 084   ----------------------------------------
 BYTE   W96
// 085   ----------------------------------------
 BYTE   W96
// 086   ----------------------------------------
 BYTE   W96
// 087   ----------------------------------------
 BYTE   W96
// 088   ----------------------------------------
 BYTE   W24
 BYTE   N24  As3  v104
 BYTE   W24
 BYTE   Ds4
 BYTE   W24
 BYTE   Fs4
 BYTE   W24
// 089   ----------------------------------------
 BYTE   Gs4
 BYTE   W24
 BYTE   Fn4
 BYTE   W24
 BYTE   Cs4
 BYTE   W24
 BYTE   Gs4
 BYTE   W24
// 090   ----------------------------------------
 BYTE   N12  Fs4
 BYTE   W12
 BYTE   Fn4
 BYTE   W12
 BYTE   TIE  Ds4
 BYTE   W72
// 091   ----------------------------------------
 BYTE   W72
 BYTE   EOT
 BYTE   W23
 BYTE   GoTo
  POIN2 Label_5_017B3331
// 092   ----------------------------------------
 BYTE   W01
 BYTE   FINE

//**************** Track 7 (Midi-Chn.6) ****************//

FE04EndofDespairSmashUltimateArrangementMycahel_007:
// 000   ----------------------------------------
 BYTE   VOL   75*FE04EndofDespairSmashUltimateArrangementMycahel_mvl/mxv
 BYTE   KEYSH   FE04EndofDespairSmashUltimateArrangementMycahel_key+0
 BYTE   VOICE   58
 BYTE   W96
// 001   ----------------------------------------
 BYTE   W96
// 002   ----------------------------------------
 BYTE   W92
Label_6_017B346D:
 BYTE   W04
// 003   ----------------------------------------
 BYTE   W96
// 004   ----------------------------------------
 BYTE   W96
// 005   ----------------------------------------
 BYTE   W96
// 006   ----------------------------------------
 BYTE   W96
// 007   ----------------------------------------
Label_6_017B3472:
 BYTE   N24  Dn3  v096
 BYTE   W36
 BYTE   W03
 BYTE   N24
 BYTE   W32
 BYTE   W01
 BYTE   N24
 BYTE   W24
 BYTE   PEND 
 BYTE   PATT
  POIN2 Label_6_017B3472
 BYTE   PATT
  POIN2 Label_6_017B3472
 BYTE   PATT
  POIN2 Label_6_017B3472
 BYTE   PATT
  POIN2 Label_6_017B3472
 BYTE   PATT
  POIN2 Label_6_017B3472
 BYTE   PATT
  POIN2 Label_6_017B3472
 BYTE   PATT
  POIN2 Label_6_017B3472
 BYTE   PATT
  POIN2 Label_6_017B3472
 BYTE   PATT
  POIN2 Label_6_017B3472
 BYTE   PATT
  POIN2 Label_6_017B3472
 BYTE   PATT
  POIN2 Label_6_017B3472
 BYTE   PATT
  POIN2 Label_6_017B3472
// 008   ----------------------------------------
Label_6_017B34B9:
 BYTE   N24  Cs3  v096
 BYTE   W36
 BYTE   W03
 BYTE   N24
 BYTE   W32
 BYTE   W01
 BYTE   N24
 BYTE   W24
 BYTE   PEND 
// 009   ----------------------------------------
Label_6_017B34C4:
 BYTE   N24  Cn3  v096
 BYTE   W36
 BYTE   W03
 BYTE   N24
 BYTE   W32
 BYTE   W01
 BYTE   N24
 BYTE   W24
 BYTE   PEND 
// 010   ----------------------------------------
Label_6_017B34CF:
 BYTE   N24  Bn2  v096
 BYTE   W36
 BYTE   W03
 BYTE   N24
 BYTE   W32
 BYTE   W01
 BYTE   N24
 BYTE   W24
 BYTE   PEND 
// 011   ----------------------------------------
 BYTE   W96
// 012   ----------------------------------------
 BYTE   W96
 BYTE   PATT
  POIN2 Label_6_017B3472
 BYTE   PATT
  POIN2 Label_6_017B3472
 BYTE   PATT
  POIN2 Label_6_017B34B9
 BYTE   PATT
  POIN2 Label_6_017B34B9
 BYTE   PATT
  POIN2 Label_6_017B34B9
 BYTE   PATT
  POIN2 Label_6_017B34B9
 BYTE   PATT
  POIN2 Label_6_017B34B9
 BYTE   PATT
  POIN2 Label_6_017B3472
 BYTE   PATT
  POIN2 Label_6_017B3472
 BYTE   PATT
  POIN2 Label_6_017B3472
 BYTE   PATT
  POIN2 Label_6_017B3472
 BYTE   PATT
  POIN2 Label_6_017B3472
 BYTE   PATT
  POIN2 Label_6_017B3472
 BYTE   PATT
  POIN2 Label_6_017B3472
 BYTE   PATT
  POIN2 Label_6_017B3472
 BYTE   PATT
  POIN2 Label_6_017B3472
 BYTE   PATT
  POIN2 Label_6_017B3472
 BYTE   PATT
  POIN2 Label_6_017B3472
 BYTE   PATT
  POIN2 Label_6_017B3472
 BYTE   PATT
  POIN2 Label_6_017B3472
 BYTE   PATT
  POIN2 Label_6_017B3472
 BYTE   PATT
  POIN2 Label_6_017B3472
 BYTE   PATT
  POIN2 Label_6_017B3472
// 013   ----------------------------------------
 BYTE   W96
// 014   ----------------------------------------
 BYTE   W96
// 015   ----------------------------------------
 BYTE   W96
// 016   ----------------------------------------
 BYTE   W96
// 017   ----------------------------------------
 BYTE   W96
// 018   ----------------------------------------
 BYTE   W96
// 019   ----------------------------------------
 BYTE   W96
// 020   ----------------------------------------
 BYTE   W96
// 021   ----------------------------------------
 BYTE   W96
// 022   ----------------------------------------
 BYTE   W96
// 023   ----------------------------------------
 BYTE   W96
// 024   ----------------------------------------
 BYTE   W96
// 025   ----------------------------------------
 BYTE   W96
// 026   ----------------------------------------
 BYTE   W96
// 027   ----------------------------------------
 BYTE   W96
// 028   ----------------------------------------
 BYTE   W96
// 029   ----------------------------------------
Label_6_017B355F:
 BYTE   N24  Ds3  v096
 BYTE   W36
 BYTE   W03
 BYTE   N24
 BYTE   W32
 BYTE   W01
 BYTE   N24
 BYTE   W24
 BYTE   PEND 
 BYTE   PATT
  POIN2 Label_6_017B355F
 BYTE   PATT
  POIN2 Label_6_017B355F
 BYTE   PATT
  POIN2 Label_6_017B355F
 BYTE   PATT
  POIN2 Label_6_017B355F
 BYTE   PATT
  POIN2 Label_6_017B355F
 BYTE   PATT
  POIN2 Label_6_017B355F
 BYTE   PATT
  POIN2 Label_6_017B355F
 BYTE   PATT
  POIN2 Label_6_017B355F
 BYTE   PATT
  POIN2 Label_6_017B355F
 BYTE   PATT
  POIN2 Label_6_017B355F
 BYTE   PATT
  POIN2 Label_6_017B355F
 BYTE   PATT
  POIN2 Label_6_017B355F
 BYTE   PATT
  POIN2 Label_6_017B355F
 BYTE   PATT
  POIN2 Label_6_017B355F
 BYTE   PATT
  POIN2 Label_6_017B355F
 BYTE   PATT
  POIN2 Label_6_017B355F
 BYTE   PATT
  POIN2 Label_6_017B355F
 BYTE   PATT
  POIN2 Label_6_017B355F
 BYTE   PATT
  POIN2 Label_6_017B355F
 BYTE   PATT
  POIN2 Label_6_017B355F
 BYTE   PATT
  POIN2 Label_6_017B355F
 BYTE   PATT
  POIN2 Label_6_017B355F
 BYTE   PATT
  POIN2 Label_6_017B355F
 BYTE   PATT
  POIN2 Label_6_017B3472
 BYTE   PATT
  POIN2 Label_6_017B34B9
 BYTE   PATT
  POIN2 Label_6_017B34C4
 BYTE   PATT
  POIN2 Label_6_017B34CF
// 030   ----------------------------------------
 BYTE   W96
// 031   ----------------------------------------
 BYTE   W96
 BYTE   PATT
  POIN2 Label_6_017B355F
// 032   ----------------------------------------
 BYTE   N24  Ds3  v096
 BYTE   W36
 BYTE   W03
 BYTE   N24
 BYTE   W32
 BYTE   W01
 BYTE   N24
 BYTE   W23
 BYTE   GoTo
  POIN2 Label_6_017B346D
// 033   ----------------------------------------
 BYTE   W01
 BYTE   FINE

//**************** Track 8 (Midi-Chn.7) ****************//

FE04EndofDespairSmashUltimateArrangementMycahel_008:
// 000   ----------------------------------------
 BYTE   VOL   60*FE04EndofDespairSmashUltimateArrangementMycahel_mvl/mxv
 BYTE   KEYSH   FE04EndofDespairSmashUltimateArrangementMycahel_key+0
 BYTE   VOICE   40
 BYTE   W96
// 001   ----------------------------------------
 BYTE   W96
// 002   ----------------------------------------
 BYTE   W92
Label_7_017B3615:
 BYTE   W04
// 003   ----------------------------------------
 BYTE   W96
// 004   ----------------------------------------
 BYTE   W96
// 005   ----------------------------------------
 BYTE   W96
// 006   ----------------------------------------
 BYTE   W96
// 007   ----------------------------------------
 BYTE   N12  Dn3  v116
 BYTE   W12
 BYTE   An3
 BYTE   W12
 BYTE   Gn3
 BYTE   W12
 BYTE   Fn3
 BYTE   W12
 BYTE   En3
 BYTE   W12
 BYTE   Dn3
 BYTE   W12
 BYTE   Cs3
 BYTE   W12
 BYTE   Dn3
 BYTE   W12
// 008   ----------------------------------------
 BYTE   Fn3
 BYTE   W12
 BYTE   Cn4
 BYTE   W12
 BYTE   As3
 BYTE   W12
 BYTE   An3
 BYTE   W12
 BYTE   Gn3
 BYTE   W12
 BYTE   Fn3
 BYTE   W12
 BYTE   En3
 BYTE   W12
 BYTE   Dn3
 BYTE   W12
// 009   ----------------------------------------
 BYTE   Gn3
 BYTE   W12
 BYTE   En4
 BYTE   W12
 BYTE   TIE  Dn4
 BYTE   W72
// 010   ----------------------------------------
 BYTE   W96
// 011   ----------------------------------------
 BYTE   EOT
 BYTE   N12  An3
 BYTE   W12
 BYTE   Gn3
 BYTE   W12
 BYTE   Fn3
 BYTE   W12
 BYTE   Dn3
 BYTE   W12
 BYTE   En3
 BYTE   W12
 BYTE   Fn3
 BYTE   W12
 BYTE   Gn3
 BYTE   W12
 BYTE   An3
 BYTE   W12
// 012   ----------------------------------------
 BYTE   Gn3
 BYTE   W12
 BYTE   Fn3
 BYTE   W12
 BYTE   En3
 BYTE   W12
 BYTE   Dn4
 BYTE   W12
 BYTE   Cs4
 BYTE   W12
 BYTE   Fn4
 BYTE   W12
 BYTE   En4
 BYTE   W12
 BYTE   Gn4
 BYTE   W12
// 013   ----------------------------------------
 BYTE   N24  An3
 BYTE   W24
 BYTE   Dn3
 BYTE   W24
 BYTE   An3
 BYTE   W24
 BYTE   N12  Gn3
 BYTE   W12
 BYTE   Fn3
 BYTE   W12
// 014   ----------------------------------------
 BYTE   N24  Gn3
 BYTE   W24
 BYTE   En3
 BYTE   W24
 BYTE   Cn3
 BYTE   W24
 BYTE   Gn3
 BYTE   W24
// 015   ----------------------------------------
 BYTE   N12  Fn3
 BYTE   W12
 BYTE   En3
 BYTE   W12
 BYTE   Dn3
 BYTE   W12
 BYTE   An2
 BYTE   W12
 BYTE   Gn3
 BYTE   W12
 BYTE   Fn3
 BYTE   W12
 BYTE   En3
 BYTE   W12
 BYTE   As2
 BYTE   W12
// 016   ----------------------------------------
 BYTE   An3
 BYTE   W12
 BYTE   Gn3
 BYTE   W12
 BYTE   Fn3
 BYTE   W12
 BYTE   An2
 BYTE   W12
 BYTE   As3
 BYTE   W12
 BYTE   An3
 BYTE   W12
 BYTE   Gn3
 BYTE   W12
 BYTE   As2
 BYTE   W12
// 017   ----------------------------------------
 BYTE   Cn4
 BYTE   W12
 BYTE   Bn3
 BYTE   W12
 BYTE   N24  An3
 BYTE   W24
 BYTE   N12  Dn4
 BYTE   W12
 BYTE   Cn4
 BYTE   W12
 BYTE   N24  Bn3
 BYTE   W24
// 018   ----------------------------------------
Label_7_017B36AB:
 BYTE   N12  Fn4  v116
 BYTE   W12
 BYTE   En4
 BYTE   W12
 BYTE   N24  Dn4
 BYTE   W24
 BYTE   N12  Gn4
 BYTE   W12
 BYTE   Fn4
 BYTE   W12
 BYTE   N24  En4
 BYTE   W24
 BYTE   PEND 
// 019   ----------------------------------------
 BYTE   W24
 BYTE   N12  Dn3
 BYTE   W12
 BYTE   En3
 BYTE   W12
 BYTE   Fn3
 BYTE   W12
 BYTE   Dn3
 BYTE   W12
 BYTE   En3
 BYTE   W12
 BYTE   Fn3
 BYTE   W12
// 020   ----------------------------------------
 BYTE   W24
 BYTE   En3
 BYTE   W12
 BYTE   Fn3
 BYTE   W12
 BYTE   Gn3
 BYTE   W12
 BYTE   En3
 BYTE   W12
 BYTE   Fn3
 BYTE   W12
 BYTE   Gn3
 BYTE   W12
// 021   ----------------------------------------
 BYTE   W24
 BYTE   Fn3
 BYTE   W12
 BYTE   Gn3
 BYTE   W12
 BYTE   An3
 BYTE   W12
 BYTE   Fn3
 BYTE   W12
 BYTE   Gn3
 BYTE   W12
 BYTE   N36  An3
 BYTE   W12
// 022   ----------------------------------------
 BYTE   W24
 BYTE   N48  Dn4
 BYTE   W48
 BYTE   N06  Fn4
 BYTE   W06
 BYTE   En4
 BYTE   W06
 BYTE   Dn4
 BYTE   W12
// 023   ----------------------------------------
 BYTE   W24
 BYTE   N24  An3
 BYTE   W24
 BYTE   Dn4
 BYTE   W24
 BYTE   Fn4
 BYTE   W24
// 024   ----------------------------------------
 BYTE   Gn4
 BYTE   W24
 BYTE   En4
 BYTE   W24
 BYTE   Cn4
 BYTE   W24
 BYTE   Gn4
 BYTE   W24
 BYTE   PATT
  POIN2 Label_7_017B36AB
// 025   ----------------------------------------
 BYTE   N12  An4  v116
 BYTE   W12
 BYTE   Gn4
 BYTE   W12
 BYTE   N60  Fn4
 BYTE   W72
// 026   ----------------------------------------
 BYTE   W96
// 027   ----------------------------------------
 BYTE   W96
// 028   ----------------------------------------
 BYTE   N12  An4
 BYTE   W12
 BYTE   As4
 BYTE   W12
 BYTE   Gn4
 BYTE   W12
 BYTE   An4
 BYTE   W12
 BYTE   Fn4
 BYTE   W12
 BYTE   Gn4
 BYTE   W12
 BYTE   Dn4
 BYTE   W12
 BYTE   En4
 BYTE   W12
// 029   ----------------------------------------
 BYTE   TIE  Cs4
 BYTE   W96
// 030   ----------------------------------------
 BYTE   W84
 BYTE   EOT
 BYTE   W12
// 031   ----------------------------------------
 BYTE   W12
 BYTE   N12  Cn5
 BYTE   W12
 BYTE   As4
 BYTE   W12
 BYTE   An4
 BYTE   W12
 BYTE   Gn4
 BYTE   W12
 BYTE   Fn4
 BYTE   W12
 BYTE   N96  En4
 BYTE   W24
// 032   ----------------------------------------
 BYTE   W72
 BYTE   N72  Dn4
 BYTE   W24
// 033   ----------------------------------------
 BYTE   W96
// 034   ----------------------------------------
 BYTE   W96
// 035   ----------------------------------------
 BYTE   W24
 BYTE   N12  As3
 BYTE   W12
 BYTE   Fn4
 BYTE   W12
 BYTE   N48  En4
 BYTE   W48
// 036   ----------------------------------------
 BYTE   W24
 BYTE   N12  Dn4
 BYTE   W12
 BYTE   En4
 BYTE   W12
 BYTE   Fn4
 BYTE   W12
 BYTE   Gn4
 BYTE   W12
 BYTE   An4
 BYTE   W12
 BYTE   As4
 BYTE   W12
// 037   ----------------------------------------
 BYTE   N72  An4
 BYTE   W72
 BYTE   N12  Gn4
 BYTE   W12
 BYTE   Fn4
 BYTE   W12
// 038   ----------------------------------------
 BYTE   N96  En4
 BYTE   W96
// 039   ----------------------------------------
 BYTE   W96
// 040   ----------------------------------------
 BYTE   W96
// 041   ----------------------------------------
 BYTE   W96
// 042   ----------------------------------------
 BYTE   W96
// 043   ----------------------------------------
 BYTE   W96
// 044   ----------------------------------------
 BYTE   W96
// 045   ----------------------------------------
 BYTE   W96
// 046   ----------------------------------------
 BYTE   W96
// 047   ----------------------------------------
 BYTE   W96
// 048   ----------------------------------------
 BYTE   W96
// 049   ----------------------------------------
 BYTE   W96
// 050   ----------------------------------------
 BYTE   W96
// 051   ----------------------------------------
 BYTE   W96
// 052   ----------------------------------------
 BYTE   W96
// 053   ----------------------------------------
 BYTE   W96
// 054   ----------------------------------------
 BYTE   W96
// 055   ----------------------------------------
 BYTE   W96
// 056   ----------------------------------------
 BYTE   W96
// 057   ----------------------------------------
 BYTE   W96
// 058   ----------------------------------------
 BYTE   W96
// 059   ----------------------------------------
 BYTE   W96
// 060   ----------------------------------------
 BYTE   W96
// 061   ----------------------------------------
 BYTE   W96
// 062   ----------------------------------------
 BYTE   W96
// 063   ----------------------------------------
Label_7_017B3777:
 BYTE   N12  Ds3  v116
 BYTE   W12
 BYTE   As3
 BYTE   W12
 BYTE   Gs3
 BYTE   W12
 BYTE   Fs3
 BYTE   W12
 BYTE   Fn3
 BYTE   W12
 BYTE   Ds3
 BYTE   W12
 BYTE   Dn3
 BYTE   W12
 BYTE   Ds3
 BYTE   W12
 BYTE   PEND 
// 064   ----------------------------------------
Label_7_017B378A:
 BYTE   N12  Fs3  v116
 BYTE   W12
 BYTE   Cs4
 BYTE   W12
 BYTE   Bn3
 BYTE   W12
 BYTE   As3
 BYTE   W12
 BYTE   Gs3
 BYTE   W12
 BYTE   Fs3
 BYTE   W12
 BYTE   Fn3
 BYTE   W12
 BYTE   Ds3
 BYTE   W12
 BYTE   PEND 
// 065   ----------------------------------------
Label_7_017B379D:
 BYTE   N12  Gs3  v116
 BYTE   W12
 BYTE   Fn4
 BYTE   W12
 BYTE   TIE  Ds4
 BYTE   W72
 BYTE   PEND 
// 066   ----------------------------------------
 BYTE   W96
// 067   ----------------------------------------
 BYTE   EOT
Label_7_017B37A9:
 BYTE   N12  As3  v116
 BYTE   W12
 BYTE   Gs3
 BYTE   W12
 BYTE   Fs3
 BYTE   W12
 BYTE   Ds3
 BYTE   W12
 BYTE   Fn3
 BYTE   W12
 BYTE   Fs3
 BYTE   W12
 BYTE   Gs3
 BYTE   W12
 BYTE   As3
 BYTE   W12
 BYTE   PEND 
// 068   ----------------------------------------
Label_7_017B37BC:
 BYTE   N12  Gs3  v116
 BYTE   W12
 BYTE   Fs3
 BYTE   W12
 BYTE   Fn3
 BYTE   W12
 BYTE   Ds4
 BYTE   W12
 BYTE   Dn4
 BYTE   W12
 BYTE   Fs4
 BYTE   W12
 BYTE   Fn4
 BYTE   W12
 BYTE   Gs4
 BYTE   W12
 BYTE   PEND 
// 069   ----------------------------------------
Label_7_017B37CF:
 BYTE   N24  As3  v116
 BYTE   W24
 BYTE   Ds3
 BYTE   W24
 BYTE   As3
 BYTE   W24
 BYTE   N12  Gs3
 BYTE   W12
 BYTE   Fs3
 BYTE   W12
 BYTE   PEND 
// 070   ----------------------------------------
Label_7_017B37DD:
 BYTE   N24  Gs3  v116
 BYTE   W24
 BYTE   Fn3
 BYTE   W24
 BYTE   Cs3
 BYTE   W24
 BYTE   Gs3
 BYTE   W24
 BYTE   PEND 
// 071   ----------------------------------------
Label_7_017B37E8:
 BYTE   N12  Fs3  v116
 BYTE   W12
 BYTE   Fn3
 BYTE   W12
 BYTE   Ds3
 BYTE   W12
 BYTE   As2
 BYTE   W12
 BYTE   Gs3
 BYTE   W12
 BYTE   Fs3
 BYTE   W12
 BYTE   Fn3
 BYTE   W12
 BYTE   Bn2
 BYTE   W12
 BYTE   PEND 
// 072   ----------------------------------------
Label_7_017B37FB:
 BYTE   N12  As3  v116
 BYTE   W12
 BYTE   Gs3
 BYTE   W12
 BYTE   Fs3
 BYTE   W12
 BYTE   As2
 BYTE   W12
 BYTE   Bn3
 BYTE   W12
 BYTE   As3
 BYTE   W12
 BYTE   Gs3
 BYTE   W12
 BYTE   Bn2
 BYTE   W12
 BYTE   PEND 
// 073   ----------------------------------------
Label_7_017B380E:
 BYTE   N12  Cs4  v116
 BYTE   W12
 BYTE   Cn4
 BYTE   W12
 BYTE   N24  As3
 BYTE   W24
 BYTE   N12  Ds4
 BYTE   W12
 BYTE   Cs4
 BYTE   W12
 BYTE   N24  Cn4
 BYTE   W24
 BYTE   PEND 
// 074   ----------------------------------------
Label_7_017B3820:
 BYTE   N12  Fs4  v116
 BYTE   W12
 BYTE   Fn4
 BYTE   W12
 BYTE   N24  Ds4
 BYTE   W24
 BYTE   N12  Gs4
 BYTE   W12
 BYTE   Fs4
 BYTE   W12
 BYTE   N24  Fn4
 BYTE   W24
 BYTE   PEND 
 BYTE   PATT
  POIN2 Label_7_017B3777
 BYTE   PATT
  POIN2 Label_7_017B378A
 BYTE   PATT
  POIN2 Label_7_017B379D
// 075   ----------------------------------------
 BYTE   W96
// 076   ----------------------------------------
 BYTE   EOT
 BYTE   Ds4
 BYTE   PATT
  POIN2 Label_7_017B37A9
 BYTE   PATT
  POIN2 Label_7_017B37BC
 BYTE   PATT
  POIN2 Label_7_017B37CF
 BYTE   PATT
  POIN2 Label_7_017B37DD
 BYTE   PATT
  POIN2 Label_7_017B37E8
 BYTE   PATT
  POIN2 Label_7_017B37FB
 BYTE   PATT
  POIN2 Label_7_017B380E
 BYTE   PATT
  POIN2 Label_7_017B3820
// 077   ----------------------------------------
 BYTE   W24
 BYTE   N12  Ds3  v116
 BYTE   W12
 BYTE   Fn3
 BYTE   W12
 BYTE   Fs3
 BYTE   W12
 BYTE   Ds3
 BYTE   W12
 BYTE   Fn3
 BYTE   W12
 BYTE   Fs3
 BYTE   W12
// 078   ----------------------------------------
 BYTE   W24
 BYTE   Fn3
 BYTE   W12
 BYTE   Fs3
 BYTE   W12
 BYTE   Gs3
 BYTE   W12
 BYTE   Fn3
 BYTE   W12
 BYTE   Fs3
 BYTE   W12
 BYTE   Gs3
 BYTE   W12
// 079   ----------------------------------------
 BYTE   W24
 BYTE   Fs3
 BYTE   W12
 BYTE   Gs3
 BYTE   W12
 BYTE   As3
 BYTE   W12
 BYTE   Fs3
 BYTE   W12
 BYTE   Gs3
 BYTE   W12
 BYTE   N36  As3
 BYTE   W12
// 080   ----------------------------------------
 BYTE   W24
 BYTE   N48  Ds4
 BYTE   W48
 BYTE   N06  Fs4
 BYTE   W06
 BYTE   Fn4
 BYTE   W06
 BYTE   Ds4
 BYTE   W12
// 081   ----------------------------------------
 BYTE   W24
 BYTE   N24  As3
 BYTE   W24
 BYTE   Ds4
 BYTE   W24
 BYTE   Fs4
 BYTE   W24
// 082   ----------------------------------------
 BYTE   Gs4
 BYTE   W24
 BYTE   Fn4
 BYTE   W24
 BYTE   Cs4
 BYTE   W24
 BYTE   Gs4
 BYTE   W24
 BYTE   PATT
  POIN2 Label_7_017B3820
// 083   ----------------------------------------
 BYTE   N12  As4  v116
 BYTE   W12
 BYTE   Gs4
 BYTE   W12
 BYTE   N60  Fs4
 BYTE   W68
 BYTE   W03
 BYTE   GoTo
  POIN2 Label_7_017B3615
// 084   ----------------------------------------
 BYTE   W01
 BYTE   FINE

//**************** Track 9 (Midi-Chn.8) ****************//

FE04EndofDespairSmashUltimateArrangementMycahel_009:
// 000   ----------------------------------------
 BYTE   VOL   30*FE04EndofDespairSmashUltimateArrangementMycahel_mvl/mxv
 BYTE   KEYSH   FE04EndofDespairSmashUltimateArrangementMycahel_key+0
 BYTE   VOICE   48
 BYTE   TIE  An3  v096
 BYTE   TIE  En4
 BYTE   TIE  An4
 BYTE   W96
// 001   ----------------------------------------
 BYTE   W96
// 002   ----------------------------------------
 BYTE   W92
Label_8_017B38D8:
 BYTE   W02
 BYTE   EOT
 BYTE   An3
 BYTE   N92  As3  v096
 BYTE   W02
// 003   ----------------------------------------
 BYTE   W92
 BYTE   W01
 BYTE   TIE  Bn3
 BYTE   W03
// 004   ----------------------------------------
 BYTE   W92
 BYTE   W02
 BYTE   N96  Cn4
 BYTE   W02
// 005   ----------------------------------------
 BYTE   EOT
 BYTE   Bn3
 BYTE   W92
 BYTE   W02
 BYTE   N96  Cs4
 BYTE   W02
// 006   ----------------------------------------
 BYTE   W92
 BYTE   W02
 BYTE   N01  Dn4
 BYTE   W02
// 007   ----------------------------------------
 BYTE   EOT
 BYTE   En4  v081
 BYTE   TIE  Dn4
 BYTE   TIE  Fn4
 BYTE   N96  An4
 BYTE   W96
// 008   ----------------------------------------
 BYTE   As4
 BYTE   W96
// 009   ----------------------------------------
 BYTE   TIE  Cn5
 BYTE   W96
// 010   ----------------------------------------
 BYTE   EOT
 BYTE   Fn4
 BYTE   N96  Gn4
 BYTE   W01
 BYTE   EOT
 BYTE   Cn5
 BYTE   N96  Bn4
 BYTE   W92
 BYTE   W03
// 011   ----------------------------------------
 BYTE   TIE  Fn4
 BYTE   W01
 BYTE   N92  As4
 BYTE   W92
 BYTE   W03
// 012   ----------------------------------------
 BYTE   N96  Dn5
 BYTE   W96
// 013   ----------------------------------------
 BYTE   EOT
 BYTE   Fn4
 BYTE   N01
 BYTE   N96  Dn5
 BYTE   W96
// 014   ----------------------------------------
 BYTE   W01
 BYTE   En4
 BYTE   N96  Cs5
 BYTE   W92
 BYTE   W03
// 015   ----------------------------------------
 BYTE   TIE  Fn4
 BYTE   W01
 BYTE   Fn5
 BYTE   W92
 BYTE   W03
// 016   ----------------------------------------
 BYTE   W92
 BYTE   W02
 BYTE   En4
 BYTE   TIE  Gn4
 BYTE   W01
 BYTE   EOT
 BYTE   Fn5
 BYTE   W01
// 017   ----------------------------------------
 BYTE   Dn4
 BYTE   TIE  Fn5
 BYTE   W01
 BYTE   EOT
 BYTE   Fn4
 BYTE   W92
 BYTE   W03
// 018   ----------------------------------------
 BYTE   TIE  En5
 BYTE   W01
 BYTE   EOT
 BYTE   Fn5
 BYTE   W92
 BYTE   W02
 BYTE   En4  v079
 BYTE   W01
// 019   ----------------------------------------
 BYTE   TIE  En4
 BYTE   TIE  An4
 BYTE   W01
 BYTE   EOT
 BYTE   En5
 BYTE   TIE
 BYTE   W92
 BYTE   W03
// 020   ----------------------------------------
 BYTE   W96
// 021   ----------------------------------------
 BYTE   W92
 BYTE   W03
 BYTE   EOT
 BYTE   W01
// 022   ----------------------------------------
 BYTE   W01
 BYTE   N92  Dn5
 BYTE   W92
 BYTE   W03
// 023   ----------------------------------------
 BYTE   N96  Fn4
 BYTE   N01  Dn5
 BYTE   W01
 BYTE   EOT
 BYTE   En4  v081
 BYTE   TIE
 BYTE   W92
 BYTE   W03
// 024   ----------------------------------------
 BYTE   N96  Gn4
 BYTE   N96  Cs5
 BYTE   W96
// 025   ----------------------------------------
 BYTE   TIE  En4
 BYTE   N96  En5
 BYTE   W96
// 026   ----------------------------------------
 BYTE   Dn5
 BYTE   W92
 BYTE   W03
 BYTE   EOT
 BYTE   An4
 BYTE   W01
// 027   ----------------------------------------
 BYTE   En4
 BYTE   TIE
 BYTE   TIE  An4
 BYTE   TIE  Cs5
 BYTE   W96
// 028   ----------------------------------------
 BYTE   W96
// 029   ----------------------------------------
 BYTE   W96
// 030   ----------------------------------------
 BYTE   W96
// 031   ----------------------------------------
 BYTE   W92
 BYTE   W02
 BYTE   Gn4
 BYTE   W02
// 032   ----------------------------------------
 BYTE   EOT
 BYTE   An4  v085
 BYTE   TIE  Cn5
 BYTE   W92
 BYTE   W03
 BYTE   EOT
 BYTE   Gn4
 BYTE   W01
// 033   ----------------------------------------
 BYTE   TIE  As4
 BYTE   W01
 BYTE   EOT
 BYTE   En4  v084
 BYTE   N92  Dn4
 BYTE   N96  Fn4
 BYTE   W92
 BYTE   W03
// 034   ----------------------------------------
 BYTE   TIE  Cn4
 BYTE   W01
 BYTE   EOT
 BYTE   As4
 BYTE   TIE  Fn4
 BYTE   TIE  An4
 BYTE   W92
 BYTE   W03
// 035   ----------------------------------------
 BYTE   W92
 BYTE   W02
 BYTE   EOT
 BYTE   Cn4
 BYTE   W02
// 036   ----------------------------------------
 BYTE   W01
 BYTE   Fn4  v081
 BYTE   W92
 BYTE   W03
// 037   ----------------------------------------
 BYTE   W96
// 038   ----------------------------------------
 BYTE   W96
// 039   ----------------------------------------
 BYTE   W96
// 040   ----------------------------------------
 BYTE   N96  An2  v127
 BYTE   W96
// 041   ----------------------------------------
 BYTE   N48  Bn2
 BYTE   W48
 BYTE   Cn3
 BYTE   W48
// 042   ----------------------------------------
 BYTE   N96  Fs3
 BYTE   W96
// 043   ----------------------------------------
 BYTE   W01
 BYTE   N92  Fn3
 BYTE   W92
 BYTE   W03
// 044   ----------------------------------------
 BYTE   N96  An3
 BYTE   W96
// 045   ----------------------------------------
 BYTE   N48  Bn3
 BYTE   W48
 BYTE   Cn4
 BYTE   W48
// 046   ----------------------------------------
 BYTE   N96  Fs4
 BYTE   W96
// 047   ----------------------------------------
 BYTE   N48  Gs4
 BYTE   W48
 BYTE   Fs4
 BYTE   W48
// 048   ----------------------------------------
Label_8_017B39D2:
 BYTE   TIE  Bn2  v100
 BYTE   TIE  Cs3
 BYTE   TIE  Fn3
 BYTE   W96
 BYTE   PEND 
// 049   ----------------------------------------
 BYTE   W96
// 050   ----------------------------------------
 BYTE   EOT
 BYTE   Bn2  v061
 BYTE   Fn3
 BYTE   TIE  Bn2
 BYTE   TIE  Cs3
 BYTE   TIE  Ds3
 BYTE   W96
// 051   ----------------------------------------
 BYTE   W96
// 052   ----------------------------------------
 BYTE   EOT
 BYTE   Bn2  v061
 BYTE   Ds3
 BYTE   PATT
  POIN2 Label_8_017B39D2
// 053   ----------------------------------------
 BYTE   W96
// 054   ----------------------------------------
 BYTE   EOT
 BYTE   Bn2  v061
 BYTE   Fn3
 BYTE   TIE  Bn2  v100
 BYTE   TIE  Dn3
 BYTE   N96  Fs3
 BYTE   W96
// 055   ----------------------------------------
 BYTE   Gs3
 BYTE   W96
// 056   ----------------------------------------
 BYTE   EOT
 BYTE   Bn2  v062
 BYTE   TIE  As2
 BYTE   TIE  Ds3
 BYTE   TIE  As3
 BYTE   W96
// 057   ----------------------------------------
 BYTE   W96
// 058   ----------------------------------------
 BYTE   EOT
 BYTE   Ds3
 BYTE   TIE  Fn3
 BYTE   W96
// 059   ----------------------------------------
 BYTE   W96
// 060   ----------------------------------------
 BYTE   EOT
 BYTE   TIE  Fs3
 BYTE   W96
// 061   ----------------------------------------
 BYTE   W96
// 062   ----------------------------------------
 BYTE   EOT
 BYTE   TIE  Gs3
 BYTE   W01
 BYTE   EOT
 BYTE   As2
 BYTE   TIE  Bn2
 BYTE   W92
 BYTE   W03
// 063   ----------------------------------------
 BYTE   W92
 BYTE   W03
 BYTE   EOT
 BYTE   W01
// 064   ----------------------------------------
 BYTE   EOT
 BYTE   Gs3  v070
Label_8_017B3A27:
 BYTE   TIE  Ds4  v096
 BYTE   TIE  Fs4
 BYTE   N96  As4
 BYTE   W96
 BYTE   PEND 
// 065   ----------------------------------------
 BYTE   Bn4
 BYTE   W96
// 066   ----------------------------------------
 BYTE   TIE  Cs5
 BYTE   W96
// 067   ----------------------------------------
 BYTE   EOT
 BYTE   Fs4
 BYTE   N96  Gs4
 BYTE   W01
 BYTE   EOT
 BYTE   Cs5
 BYTE   N96  Cn5
 BYTE   W92
 BYTE   W03
// 068   ----------------------------------------
Label_8_017B3A40:
 BYTE   TIE  Fs4  v096
 BYTE   W01
 BYTE   N92  Bn4
 BYTE   W92
 BYTE   W03
 BYTE   PEND 
// 069   ----------------------------------------
 BYTE   N96  Ds5
 BYTE   W96
// 070   ----------------------------------------
 BYTE   EOT
 BYTE   Fs4
Label_8_017B3A4E:
 BYTE   N01  Fs4  v096
 BYTE   N96  Ds5
 BYTE   W96
 BYTE   PEND 
// 071   ----------------------------------------
Label_8_017B3A55:
 BYTE   W01
 BYTE   N96  Fn4  v096
 BYTE   N96  Dn5
 BYTE   W92
 BYTE   W03
 BYTE   PEND 
// 072   ----------------------------------------
Label_8_017B3A5E:
 BYTE   TIE  Fs4  v096
 BYTE   W01
 BYTE   Fs5
 BYTE   W92
 BYTE   W03
 BYTE   PEND 
// 073   ----------------------------------------
Label_8_017B3A66:
 BYTE   W92
 BYTE   W02
 BYTE   TIE  Fn4  v096
 BYTE   TIE  Gs4
 BYTE   W01
 BYTE   PEND 
 BYTE   EOT
 BYTE   Fs5
 BYTE   W01
// 074   ----------------------------------------
 BYTE   Ds4
 BYTE   TIE  Fs5
 BYTE   W01
 BYTE   EOT
 BYTE   Fs4
 BYTE   W92
 BYTE   W03
// 075   ----------------------------------------
 BYTE   N96  Fn5
 BYTE   W01
 BYTE   EOT
 BYTE   Fs5
 BYTE   W92
 BYTE   W02
 BYTE   Fn4  v080
 BYTE   W01
 BYTE   PATT
  POIN2 Label_8_017B3A27
// 076   ----------------------------------------
 BYTE   N96  Bn4  v096
 BYTE   W96
// 077   ----------------------------------------
 BYTE   TIE  Cs5
 BYTE   W96
// 078   ----------------------------------------
 BYTE   EOT
 BYTE   Fs4
 BYTE   N96  Gs4
 BYTE   W01
 BYTE   EOT
 BYTE   Cs5
 BYTE   N96  Cn5
 BYTE   W92
 BYTE   W03
 BYTE   PATT
  POIN2 Label_8_017B3A40
// 079   ----------------------------------------
 BYTE   N96  Ds5  v096
 BYTE   W96
// 080   ----------------------------------------
 BYTE   EOT
 BYTE   Fs4
 BYTE   PATT
  POIN2 Label_8_017B3A4E
 BYTE   PATT
  POIN2 Label_8_017B3A55
 BYTE   PATT
  POIN2 Label_8_017B3A5E
 BYTE   PATT
  POIN2 Label_8_017B3A66
// 081   ----------------------------------------
 BYTE   EOT
 BYTE   Fs5
 BYTE   W01
 BYTE   Ds4
 BYTE   TIE  Fs5  v096
 BYTE   W01
 BYTE   EOT
 BYTE   Fs4
 BYTE   W92
 BYTE   W03
// 082   ----------------------------------------
 BYTE   N96  Fn5
 BYTE   W01
 BYTE   EOT
 BYTE   Fs5
 BYTE   W92
 BYTE   W02
 BYTE   Fn4  v080
 BYTE   W01
// 083   ----------------------------------------
 BYTE   TIE  Fn4
 BYTE   TIE  As4
 BYTE   N01  Fn5
 BYTE   W01
 BYTE   TIE
 BYTE   W92
 BYTE   W03
// 084   ----------------------------------------
 BYTE   W96
// 085   ----------------------------------------
 BYTE   W92
 BYTE   W03
 BYTE   EOT
 BYTE   W01
// 086   ----------------------------------------
 BYTE   W01
 BYTE   N92  Ds5
 BYTE   W92
 BYTE   W03
// 087   ----------------------------------------
 BYTE   N96  Fs4
 BYTE   N01  Ds5
 BYTE   W01
 BYTE   EOT
 BYTE   Fn4  v082
 BYTE   TIE
 BYTE   W92
 BYTE   W03
// 088   ----------------------------------------
 BYTE   N96  Gs4
 BYTE   N96  Dn5
 BYTE   W96
// 089   ----------------------------------------
 BYTE   TIE  Fn4
 BYTE   N96  Fn5
 BYTE   W96
// 090   ----------------------------------------
 BYTE   Ds5
 BYTE   W92
 BYTE   W03
 BYTE   EOT
 BYTE   As4
 BYTE   GoTo
  POIN2 Label_8_017B38D8
// 091   ----------------------------------------
 BYTE   W01
 BYTE   EOT
 BYTE   Fn4
 BYTE   FINE

//**************** Track 10 (Midi-Chn.9) ****************//

FE04EndofDespairSmashUltimateArrangementMycahel_010:
// 000   ----------------------------------------
 BYTE   VOL   50*FE04EndofDespairSmashUltimateArrangementMycahel_mvl/mxv
 BYTE   KEYSH   FE04EndofDespairSmashUltimateArrangementMycahel_key+0
 BYTE   VOICE   33
 BYTE   W96
// 001   ----------------------------------------
 BYTE   W96
// 002   ----------------------------------------
 BYTE   W92
Label_9_017B3B11:
 BYTE   W04
// 003   ----------------------------------------
 BYTE   W96
// 004   ----------------------------------------
 BYTE   W96
// 005   ----------------------------------------
 BYTE   W96
// 006   ----------------------------------------
 BYTE   W96
// 007   ----------------------------------------
Label_9_017B3B16:
 BYTE   N24  Dn2  v100
 BYTE   W36
 BYTE   N24
 BYTE   W24
 BYTE   N12
 BYTE   W12
 BYTE   N12
 BYTE   W12
 BYTE   An1
 BYTE   W12
 BYTE   PEND 
// 008   ----------------------------------------
Label_9_017B3B23:
 BYTE   N24  Dn2  v100
 BYTE   W36
 BYTE   N24
 BYTE   W24
 BYTE   N12  An1
 BYTE   W12
 BYTE   Dn2
 BYTE   W12
 BYTE   En2
 BYTE   W12
 BYTE   PEND 
 BYTE   PATT
  POIN2 Label_9_017B3B16
// 009   ----------------------------------------
Label_9_017B3B36:
 BYTE   N24  Dn2  v100
 BYTE   W36
 BYTE   N24
 BYTE   W24
 BYTE   N12
 BYTE   W12
 BYTE   N12
 BYTE   W12
 BYTE   Cn2
 BYTE   W12
 BYTE   PEND 
// 010   ----------------------------------------
Label_9_017B3B43:
 BYTE   N24  As1  v100
 BYTE   W36
 BYTE   N24
 BYTE   W24
 BYTE   N12
 BYTE   W12
 BYTE   N12
 BYTE   W12
 BYTE   N12
 BYTE   W12
 BYTE   PEND 
// 011   ----------------------------------------
Label_9_017B3B50:
 BYTE   N12  An1  v100
 BYTE   W12
 BYTE   N12
 BYTE   W24
 BYTE   N24
 BYTE   W24
 BYTE   N12  An2
 BYTE   W12
 BYTE   En2
 BYTE   W12
 BYTE   An1
 BYTE   W12
 BYTE   PEND 
// 012   ----------------------------------------
Label_9_017B3B60:
 BYTE   N24  As1  v100
 BYTE   W36
 BYTE   N24
 BYTE   W24
 BYTE   N12
 BYTE   W12
 BYTE   N12
 BYTE   W12
 BYTE   Fn1
 BYTE   W12
 BYTE   PEND 
 BYTE   PATT
  POIN2 Label_9_017B3B60
 BYTE   PATT
  POIN2 Label_9_017B3B60
 BYTE   PATT
  POIN2 Label_9_017B3B60
// 013   ----------------------------------------
Label_9_017B3B7C:
 BYTE   N24  Cn2  v100
 BYTE   W36
 BYTE   N24
 BYTE   W24
 BYTE   N12
 BYTE   W12
 BYTE   N12
 BYTE   W12
 BYTE   Gn1
 BYTE   W12
 BYTE   PEND 
// 014   ----------------------------------------
Label_9_017B3B89:
 BYTE   N24  Cs2  v100
 BYTE   W36
 BYTE   N24
 BYTE   W24
 BYTE   N12  An1
 BYTE   W12
 BYTE   An2
 BYTE   W12
 BYTE   En2
 BYTE   W12
 BYTE   PEND 
 BYTE   PATT
  POIN2 Label_9_017B3B16
 BYTE   PATT
  POIN2 Label_9_017B3B23
 BYTE   PATT
  POIN2 Label_9_017B3B16
 BYTE   PATT
  POIN2 Label_9_017B3B36
 BYTE   PATT
  POIN2 Label_9_017B3B43
 BYTE   PATT
  POIN2 Label_9_017B3B50
 BYTE   PATT
  POIN2 Label_9_017B3B16
 BYTE   PATT
  POIN2 Label_9_017B3B16
// 015   ----------------------------------------
Label_9_017B3BBF:
 BYTE   N24  Dn2  v100
 BYTE   W36
 BYTE   N24
 BYTE   W24
 BYTE   N12
 BYTE   W12
 BYTE   N12
 BYTE   W12
 BYTE   As1
 BYTE   W12
 BYTE   PEND 
 BYTE   PATT
  POIN2 Label_9_017B3BBF
 BYTE   PATT
  POIN2 Label_9_017B3BBF
 BYTE   PATT
  POIN2 Label_9_017B3BBF
 BYTE   PATT
  POIN2 Label_9_017B3BBF
 BYTE   PATT
  POIN2 Label_9_017B3BBF
 BYTE   PATT
  POIN2 Label_9_017B3BBF
 BYTE   PATT
  POIN2 Label_9_017B3BBF
 BYTE   PATT
  POIN2 Label_9_017B3BBF
 BYTE   PATT
  POIN2 Label_9_017B3B60
 BYTE   PATT
  POIN2 Label_9_017B3B60
 BYTE   PATT
  POIN2 Label_9_017B3B7C
 BYTE   PATT
  POIN2 Label_9_017B3B89
// 016   ----------------------------------------
Label_9_017B3C08:
 BYTE   N12  An1  v100
 BYTE   W12
 BYTE   N12
 BYTE   W24
 BYTE   N12
 BYTE   W24
 BYTE   N12
 BYTE   W12
 BYTE   An2
 BYTE   W12
 BYTE   En2
 BYTE   W12
 BYTE   PEND 
 BYTE   PATT
  POIN2 Label_9_017B3C08
// 017   ----------------------------------------
Label_9_017B3C1C:
 BYTE   N12  As1  v100
 BYTE   W12
 BYTE   N12
 BYTE   W24
 BYTE   N12
 BYTE   W24
 BYTE   N12
 BYTE   W12
 BYTE   An2
 BYTE   W12
 BYTE   Fn2
 BYTE   W12
 BYTE   PEND 
 BYTE   PATT
  POIN2 Label_9_017B3C1C
 BYTE   PATT
  POIN2 Label_9_017B3C08
 BYTE   PATT
  POIN2 Label_9_017B3C08
 BYTE   PATT
  POIN2 Label_9_017B3C1C
 BYTE   PATT
  POIN2 Label_9_017B3C1C
// 018   ----------------------------------------
 BYTE   W96
// 019   ----------------------------------------
 BYTE   W96
// 020   ----------------------------------------
 BYTE   W96
// 021   ----------------------------------------
 BYTE   W96
// 022   ----------------------------------------
 BYTE   W96
// 023   ----------------------------------------
 BYTE   W96
// 024   ----------------------------------------
 BYTE   W96
// 025   ----------------------------------------
 BYTE   W96
// 026   ----------------------------------------
 BYTE   W96
// 027   ----------------------------------------
 BYTE   W96
// 028   ----------------------------------------
 BYTE   W96
// 029   ----------------------------------------
 BYTE   W96
// 030   ----------------------------------------
 BYTE   W96
// 031   ----------------------------------------
 BYTE   W96
// 032   ----------------------------------------
 BYTE   W96
// 033   ----------------------------------------
 BYTE   W96
// 034   ----------------------------------------
Label_9_017B3C54:
 BYTE   N24  Ds2  v100
 BYTE   W36
 BYTE   N24
 BYTE   W24
 BYTE   N12
 BYTE   W12
 BYTE   N12
 BYTE   W12
 BYTE   As1
 BYTE   W12
 BYTE   PEND 
// 035   ----------------------------------------
Label_9_017B3C61:
 BYTE   N24  Ds2  v100
 BYTE   W36
 BYTE   N24
 BYTE   W24
 BYTE   N12  As1
 BYTE   W12
 BYTE   Ds2
 BYTE   W12
 BYTE   Fn2
 BYTE   W12
 BYTE   PEND 
 BYTE   PATT
  POIN2 Label_9_017B3C54
// 036   ----------------------------------------
Label_9_017B3C74:
 BYTE   N24  Ds2  v100
 BYTE   W36
 BYTE   N24
 BYTE   W24
 BYTE   N12
 BYTE   W12
 BYTE   N12
 BYTE   W12
 BYTE   Cs2
 BYTE   W12
 BYTE   PEND 
// 037   ----------------------------------------
Label_9_017B3C81:
 BYTE   N24  Bn1  v100
 BYTE   W36
 BYTE   N24
 BYTE   W24
 BYTE   N12
 BYTE   W12
 BYTE   N12
 BYTE   W12
 BYTE   N12
 BYTE   W12
 BYTE   PEND 
// 038   ----------------------------------------
Label_9_017B3C8E:
 BYTE   N12  As1  v100
 BYTE   W12
 BYTE   N12
 BYTE   W24
 BYTE   N24
 BYTE   W24
 BYTE   N12  As2
 BYTE   W12
 BYTE   Fn2
 BYTE   W12
 BYTE   As1
 BYTE   W12
 BYTE   PEND 
 BYTE   PATT
  POIN2 Label_9_017B3B60
 BYTE   PATT
  POIN2 Label_9_017B3B60
 BYTE   PATT
  POIN2 Label_9_017B3B60
 BYTE   PATT
  POIN2 Label_9_017B3B60
 BYTE   PATT
  POIN2 Label_9_017B3B7C
 BYTE   PATT
  POIN2 Label_9_017B3B89
 BYTE   PATT
  POIN2 Label_9_017B3C54
 BYTE   PATT
  POIN2 Label_9_017B3C61
 BYTE   PATT
  POIN2 Label_9_017B3C54
 BYTE   PATT
  POIN2 Label_9_017B3C74
 BYTE   PATT
  POIN2 Label_9_017B3C81
 BYTE   PATT
  POIN2 Label_9_017B3C8E
// 039   ----------------------------------------
Label_9_017B3CDA:
 BYTE   N24  Bn1  v100
 BYTE   W36
 BYTE   N24
 BYTE   W24
 BYTE   N12
 BYTE   W12
 BYTE   N12
 BYTE   W12
 BYTE   Fs1
 BYTE   W12
 BYTE   PEND 
 BYTE   PATT
  POIN2 Label_9_017B3CDA
 BYTE   PATT
  POIN2 Label_9_017B3CDA
 BYTE   PATT
  POIN2 Label_9_017B3CDA
// 040   ----------------------------------------
 BYTE   N24  Cs2  v100
 BYTE   W36
 BYTE   N24
 BYTE   W24
 BYTE   N12
 BYTE   W12
 BYTE   N12
 BYTE   W12
 BYTE   Gs1
 BYTE   W12
// 041   ----------------------------------------
 BYTE   N24  Dn2
 BYTE   W36
 BYTE   N24
 BYTE   W24
 BYTE   N12  As1
 BYTE   W12
 BYTE   As2
 BYTE   W12
 BYTE   Fn2
 BYTE   W12
 BYTE   PATT
  POIN2 Label_9_017B3C54
 BYTE   PATT
  POIN2 Label_9_017B3C61
 BYTE   PATT
  POIN2 Label_9_017B3C54
 BYTE   PATT
  POIN2 Label_9_017B3C74
 BYTE   PATT
  POIN2 Label_9_017B3C81
 BYTE   PATT
  POIN2 Label_9_017B3C8E
 BYTE   PATT
  POIN2 Label_9_017B3C54
// 042   ----------------------------------------
 BYTE   N24  Ds2  v100
 BYTE   W36
 BYTE   N24
 BYTE   W24
 BYTE   N12
 BYTE   W12
 BYTE   N12
 BYTE   W12
 BYTE   As1
 BYTE   W11
 BYTE   GoTo
  POIN2 Label_9_017B3B11
// 043   ----------------------------------------
 BYTE   W01
 BYTE   FINE

//**************** Track 11 (Midi-Chn.10) ****************//

FE04EndofDespairSmashUltimateArrangementMycahel_011:
// 000   ----------------------------------------
 BYTE   VOL   50*FE04EndofDespairSmashUltimateArrangementMycahel_mvl/mxv
 BYTE   KEYSH   FE04EndofDespairSmashUltimateArrangementMycahel_key+0
 BYTE   VOICE   119
 BYTE   W96
// 001   ----------------------------------------
 BYTE   W96
// 002   ----------------------------------------
 BYTE   W92
Label_10_017B3D4D:
 BYTE   W04
// 003   ----------------------------------------
 BYTE   W96
// 004   ----------------------------------------
 BYTE   W96
// 005   ----------------------------------------
 BYTE   W96
// 006   ----------------------------------------
 BYTE   W96
// 007   ----------------------------------------
 BYTE   TIE  Fn3  v120
 BYTE   W96
// 008   ----------------------------------------
 BYTE   W96
// 009   ----------------------------------------
 BYTE   EOT
 BYTE   W96
// 010   ----------------------------------------
 BYTE   W96
// 011   ----------------------------------------
 BYTE   W96
// 012   ----------------------------------------
 BYTE   W96
// 013   ----------------------------------------
 BYTE   W96
// 014   ----------------------------------------
 BYTE   W96
// 015   ----------------------------------------
 BYTE   W96
// 016   ----------------------------------------
 BYTE   W96
// 017   ----------------------------------------
 BYTE   W96
// 018   ----------------------------------------
 BYTE   W72
 BYTE   TIE
 BYTE   W24
// 019   ----------------------------------------
 BYTE   W96
// 020   ----------------------------------------
 BYTE   W72
 BYTE   EOT
 BYTE   W24
// 021   ----------------------------------------
 BYTE   W96
// 022   ----------------------------------------
 BYTE   W96
// 023   ----------------------------------------
 BYTE   W96
// 024   ----------------------------------------
 BYTE   W96
// 025   ----------------------------------------
 BYTE   W96
// 026   ----------------------------------------
 BYTE   W96
// 027   ----------------------------------------
 BYTE   TIE
 BYTE   W96
// 028   ----------------------------------------
 BYTE   W96
// 029   ----------------------------------------
 BYTE   EOT
 BYTE   W96
// 030   ----------------------------------------
 BYTE   W96
// 031   ----------------------------------------
 BYTE   W96
// 032   ----------------------------------------
 BYTE   W96
// 033   ----------------------------------------
 BYTE   W96
// 034   ----------------------------------------
 BYTE   W96
// 035   ----------------------------------------
 BYTE   W96
// 036   ----------------------------------------
 BYTE   W96
// 037   ----------------------------------------
 BYTE   W96
// 038   ----------------------------------------
 BYTE   W96
// 039   ----------------------------------------
 BYTE   W96
// 040   ----------------------------------------
 BYTE   W96
// 041   ----------------------------------------
 BYTE   W96
// 042   ----------------------------------------
 BYTE   W96
// 043   ----------------------------------------
 BYTE   W96
// 044   ----------------------------------------
 BYTE   W96
// 045   ----------------------------------------
 BYTE   W96
// 046   ----------------------------------------
 BYTE   W96
// 047   ----------------------------------------
 BYTE   W96
// 048   ----------------------------------------
 BYTE   W96
// 049   ----------------------------------------
 BYTE   W96
// 050   ----------------------------------------
 BYTE   W96
// 051   ----------------------------------------
 BYTE   W96
// 052   ----------------------------------------
 BYTE   W96
// 053   ----------------------------------------
 BYTE   W96
// 054   ----------------------------------------
 BYTE   W96
// 055   ----------------------------------------
 BYTE   W96
// 056   ----------------------------------------
 BYTE   W96
// 057   ----------------------------------------
 BYTE   W96
// 058   ----------------------------------------
 BYTE   W96
// 059   ----------------------------------------
 BYTE   W96
// 060   ----------------------------------------
 BYTE   W96
// 061   ----------------------------------------
 BYTE   W96
// 062   ----------------------------------------
 BYTE   W96
// 063   ----------------------------------------
 BYTE   W96
// 064   ----------------------------------------
 BYTE   TIE
 BYTE   W96
// 065   ----------------------------------------
 BYTE   W96
// 066   ----------------------------------------
 BYTE   EOT
 BYTE   W96
// 067   ----------------------------------------
 BYTE   W96
// 068   ----------------------------------------
 BYTE   W96
// 069   ----------------------------------------
 BYTE   W96
// 070   ----------------------------------------
 BYTE   W96
// 071   ----------------------------------------
 BYTE   W96
// 072   ----------------------------------------
 BYTE   W96
// 073   ----------------------------------------
 BYTE   W96
// 074   ----------------------------------------
 BYTE   W96
// 075   ----------------------------------------
 BYTE   W96
// 076   ----------------------------------------
 BYTE   TIE
 BYTE   W96
// 077   ----------------------------------------
 BYTE   W96
// 078   ----------------------------------------
 BYTE   EOT
 BYTE   W96
// 079   ----------------------------------------
 BYTE   W96
// 080   ----------------------------------------
 BYTE   W96
// 081   ----------------------------------------
 BYTE   W96
// 082   ----------------------------------------
 BYTE   W96
// 083   ----------------------------------------
 BYTE   W96
// 084   ----------------------------------------
 BYTE   W96
// 085   ----------------------------------------
 BYTE   W96
// 086   ----------------------------------------
 BYTE   W96
// 087   ----------------------------------------
 BYTE   W96
// 088   ----------------------------------------
 BYTE   TIE
 BYTE   W96
// 089   ----------------------------------------
 BYTE   W72
 BYTE   EOT
 BYTE   W24
// 090   ----------------------------------------
 BYTE   W96
// 091   ----------------------------------------
 BYTE   W96
// 092   ----------------------------------------
 BYTE   W96
// 093   ----------------------------------------
 BYTE   W96
// 094   ----------------------------------------
 BYTE   W96
// 095   ----------------------------------------
 BYTE   W92
 BYTE   W03
 BYTE   GoTo
  POIN2 Label_10_017B3D4D
// 096   ----------------------------------------
 BYTE   W01
 BYTE   FINE

//**************** Track 12 (Midi-Chn.11) ****************//

FE04EndofDespairSmashUltimateArrangementMycahel_012:
// 000   ----------------------------------------
 BYTE   VOL   70*FE04EndofDespairSmashUltimateArrangementMycahel_mvl/mxv
 BYTE   KEYSH   FE04EndofDespairSmashUltimateArrangementMycahel_key+0
 BYTE   VOICE   121
 BYTE   W96
// 001   ----------------------------------------
 BYTE   W96
// 002   ----------------------------------------
 BYTE   W92
Label_11_017B3DCD:
 BYTE   W04
// 003   ----------------------------------------
 BYTE   W96
// 004   ----------------------------------------
 BYTE   W96
// 005   ----------------------------------------
 BYTE   W96
// 006   ----------------------------------------
 BYTE   W96
// 007   ----------------------------------------
Label_11_017B3DD2:
 BYTE   N06  Dn2  v096
 BYTE   W12
 BYTE   N06
 BYTE   W06
 BYTE   N06
 BYTE   W06
 BYTE   N06
 BYTE   W12
 BYTE   N06
 BYTE   W12
 BYTE   N06
 BYTE   W06
 BYTE   N06
 BYTE   W06
 BYTE   N06
 BYTE   W12
 BYTE   N06
 BYTE   W12
 BYTE   N06
 BYTE   W12
 BYTE   PEND 
 BYTE   PATT
  POIN2 Label_11_017B3DD2
 BYTE   PATT
  POIN2 Label_11_017B3DD2
 BYTE   PATT
  POIN2 Label_11_017B3DD2
 BYTE   PATT
  POIN2 Label_11_017B3DD2
 BYTE   PATT
  POIN2 Label_11_017B3DD2
// 008   ----------------------------------------
 BYTE   W96
// 009   ----------------------------------------
 BYTE   W96
 BYTE   PATT
  POIN2 Label_11_017B3DD2
 BYTE   PATT
  POIN2 Label_11_017B3DD2
 BYTE   PATT
  POIN2 Label_11_017B3DD2
 BYTE   PATT
  POIN2 Label_11_017B3DD2
 BYTE   PATT
  POIN2 Label_11_017B3DD2
 BYTE   PATT
  POIN2 Label_11_017B3DD2
 BYTE   PATT
  POIN2 Label_11_017B3DD2
 BYTE   PATT
  POIN2 Label_11_017B3DD2
// 010   ----------------------------------------
 BYTE   W96
// 011   ----------------------------------------
 BYTE   W96
 BYTE   PATT
  POIN2 Label_11_017B3DD2
 BYTE   PATT
  POIN2 Label_11_017B3DD2
 BYTE   PATT
  POIN2 Label_11_017B3DD2
 BYTE   PATT
  POIN2 Label_11_017B3DD2
 BYTE   PATT
  POIN2 Label_11_017B3DD2
 BYTE   PATT
  POIN2 Label_11_017B3DD2
 BYTE   PATT
  POIN2 Label_11_017B3DD2
 BYTE   PATT
  POIN2 Label_11_017B3DD2
 BYTE   PATT
  POIN2 Label_11_017B3DD2
 BYTE   PATT
  POIN2 Label_11_017B3DD2
 BYTE   PATT
  POIN2 Label_11_017B3DD2
 BYTE   PATT
  POIN2 Label_11_017B3DD2
 BYTE   PATT
  POIN2 Label_11_017B3DD2
 BYTE   PATT
  POIN2 Label_11_017B3DD2
 BYTE   PATT
  POIN2 Label_11_017B3DD2
 BYTE   PATT
  POIN2 Label_11_017B3DD2
 BYTE   PATT
  POIN2 Label_11_017B3DD2
 BYTE   PATT
  POIN2 Label_11_017B3DD2
 BYTE   PATT
  POIN2 Label_11_017B3DD2
 BYTE   PATT
  POIN2 Label_11_017B3DD2
 BYTE   PATT
  POIN2 Label_11_017B3DD2
 BYTE   PATT
  POIN2 Label_11_017B3DD2
 BYTE   PATT
  POIN2 Label_11_017B3DD2
// 012   ----------------------------------------
 BYTE   W96
// 013   ----------------------------------------
 BYTE   W96
// 014   ----------------------------------------
 BYTE   W96
// 015   ----------------------------------------
 BYTE   W96
// 016   ----------------------------------------
 BYTE   W96
// 017   ----------------------------------------
 BYTE   W96
// 018   ----------------------------------------
 BYTE   W96
// 019   ----------------------------------------
 BYTE   W96
 BYTE   PATT
  POIN2 Label_11_017B3DD2
 BYTE   PATT
  POIN2 Label_11_017B3DD2
 BYTE   PATT
  POIN2 Label_11_017B3DD2
 BYTE   PATT
  POIN2 Label_11_017B3DD2
 BYTE   PATT
  POIN2 Label_11_017B3DD2
 BYTE   PATT
  POIN2 Label_11_017B3DD2
 BYTE   PATT
  POIN2 Label_11_017B3DD2
 BYTE   PATT
  POIN2 Label_11_017B3DD2
// 020   ----------------------------------------
 BYTE   W96
// 021   ----------------------------------------
 BYTE   W96
// 022   ----------------------------------------
 BYTE   W96
// 023   ----------------------------------------
 BYTE   W96
// 024   ----------------------------------------
 BYTE   W96
// 025   ----------------------------------------
 BYTE   W96
// 026   ----------------------------------------
 BYTE   W96
// 027   ----------------------------------------
 BYTE   W96
// 028   ----------------------------------------
 BYTE   W96
// 029   ----------------------------------------
 BYTE   W96
// 030   ----------------------------------------
 BYTE   W96
// 031   ----------------------------------------
 BYTE   W96
 BYTE   PATT
  POIN2 Label_11_017B3DD2
 BYTE   PATT
  POIN2 Label_11_017B3DD2
 BYTE   PATT
  POIN2 Label_11_017B3DD2
 BYTE   PATT
  POIN2 Label_11_017B3DD2
 BYTE   PATT
  POIN2 Label_11_017B3DD2
 BYTE   PATT
  POIN2 Label_11_017B3DD2
 BYTE   PATT
  POIN2 Label_11_017B3DD2
 BYTE   PATT
  POIN2 Label_11_017B3DD2
 BYTE   PATT
  POIN2 Label_11_017B3DD2
 BYTE   PATT
  POIN2 Label_11_017B3DD2
 BYTE   PATT
  POIN2 Label_11_017B3DD2
 BYTE   PATT
  POIN2 Label_11_017B3DD2
 BYTE   PATT
  POIN2 Label_11_017B3DD2
 BYTE   PATT
  POIN2 Label_11_017B3DD2
 BYTE   PATT
  POIN2 Label_11_017B3DD2
 BYTE   PATT
  POIN2 Label_11_017B3DD2
// 032   ----------------------------------------
 BYTE   W96
// 033   ----------------------------------------
 BYTE   W96
 BYTE   PATT
  POIN2 Label_11_017B3DD2
// 034   ----------------------------------------
 BYTE   N06  Dn2  v096
 BYTE   W12
 BYTE   N06
 BYTE   W06
 BYTE   N06
 BYTE   W06
 BYTE   N06
 BYTE   W12
 BYTE   N06
 BYTE   W12
 BYTE   N06
 BYTE   W06
 BYTE   N06
 BYTE   W06
 BYTE   N06
 BYTE   W12
 BYTE   N06
 BYTE   W12
 BYTE   N06
 BYTE   W11
 BYTE   GoTo
  POIN2 Label_11_017B3DCD
// 035   ----------------------------------------
 BYTE   W01
 BYTE   FINE

//**************** Track 13 (Midi-Chn.12) ****************//

FE04EndofDespairSmashUltimateArrangementMycahel_013:
// 000   ----------------------------------------
 BYTE   VOL   50*FE04EndofDespairSmashUltimateArrangementMycahel_mvl/mxv
 BYTE   KEYSH   FE04EndofDespairSmashUltimateArrangementMycahel_key+0
 BYTE   VOICE   52
 BYTE   W96
// 001   ----------------------------------------
 BYTE   W96
// 002   ----------------------------------------
 BYTE   W92
Label_12_017B3F5D:
 BYTE   W04
// 003   ----------------------------------------
 BYTE   W96
// 004   ----------------------------------------
 BYTE   W96
// 005   ----------------------------------------
 BYTE   W96
// 006   ----------------------------------------
 BYTE   W96
// 007   ----------------------------------------
 BYTE   W96
// 008   ----------------------------------------
 BYTE   W96
// 009   ----------------------------------------
 BYTE   W96
// 010   ----------------------------------------
 BYTE   W96
// 011   ----------------------------------------
 BYTE   W96
// 012   ----------------------------------------
 BYTE   W96
// 013   ----------------------------------------
 BYTE   W96
// 014   ----------------------------------------
 BYTE   W96
// 015   ----------------------------------------
 BYTE   W96
// 016   ----------------------------------------
 BYTE   W96
// 017   ----------------------------------------
 BYTE   W96
// 018   ----------------------------------------
 BYTE   W96
// 019   ----------------------------------------
 BYTE   W96
// 020   ----------------------------------------
 BYTE   W96
// 021   ----------------------------------------
 BYTE   W96
// 022   ----------------------------------------
 BYTE   W96
// 023   ----------------------------------------
 BYTE   W96
// 024   ----------------------------------------
 BYTE   W96
// 025   ----------------------------------------
 BYTE   W96
// 026   ----------------------------------------
 BYTE   W96
// 027   ----------------------------------------
 BYTE   W96
// 028   ----------------------------------------
 BYTE   W96
// 029   ----------------------------------------
 BYTE   W96
// 030   ----------------------------------------
 BYTE   W96
// 031   ----------------------------------------
 BYTE   W96
// 032   ----------------------------------------
 BYTE   W96
// 033   ----------------------------------------
 BYTE   W96
// 034   ----------------------------------------
 BYTE   N72  Cn4  v096
 BYTE   W72
 BYTE   As3
 BYTE   W24
// 035   ----------------------------------------
 BYTE   W48
 BYTE   N48  An3
 BYTE   W48
// 036   ----------------------------------------
 BYTE   N96  Gn3
 BYTE   W96
// 037   ----------------------------------------
 BYTE   Fn3
 BYTE   W96
// 038   ----------------------------------------
 BYTE   En3
 BYTE   W96
// 039   ----------------------------------------
 BYTE   W96
// 040   ----------------------------------------
Label_12_017B3F8F:
 BYTE   TIE  En3  v096
 BYTE   TIE  Cn4
 BYTE   W96
 BYTE   PEND 
// 041   ----------------------------------------
 BYTE   W96
// 042   ----------------------------------------
 BYTE   EOT
 BYTE   En3  v072
 BYTE   TIE  Fn3
 BYTE   N96  As3
 BYTE   W96
// 043   ----------------------------------------
 BYTE   An3
 BYTE   W96
// 044   ----------------------------------------
 BYTE   EOT
 BYTE   Fn3
 BYTE   PATT
  POIN2 Label_12_017B3F8F
// 045   ----------------------------------------
 BYTE   W96
// 046   ----------------------------------------
 BYTE   EOT
 BYTE   En3  v072
 BYTE   TIE  Fn3  v096
 BYTE   N96  Cs4
 BYTE   W96
// 047   ----------------------------------------
 BYTE   Dn4
 BYTE   W96
// 048   ----------------------------------------
 BYTE   EOT
 BYTE   Fn3
 BYTE   TIE  Fs3
 BYTE   TIE  Fn4
 BYTE   W96
// 049   ----------------------------------------
 BYTE   W96
// 050   ----------------------------------------
 BYTE   EOT
 BYTE   TIE  Ds4
 BYTE   W96
// 051   ----------------------------------------
 BYTE   W96
// 052   ----------------------------------------
 BYTE   EOT
 BYTE   Fs3  v075
 BYTE   TIE  As3
 BYTE   TIE  Fn4
 BYTE   W96
// 053   ----------------------------------------
 BYTE   W96
// 054   ----------------------------------------
 BYTE   EOT
 BYTE   TIE  Fs4
 BYTE   W96
// 055   ----------------------------------------
 BYTE   W96
// 056   ----------------------------------------
 BYTE   EOT
 BYTE   As3  v078
 BYTE   W96
// 057   ----------------------------------------
 BYTE   W96
// 058   ----------------------------------------
 BYTE   W96
// 059   ----------------------------------------
 BYTE   W96
// 060   ----------------------------------------
 BYTE   W96
// 061   ----------------------------------------
 BYTE   W96
// 062   ----------------------------------------
 BYTE   W96
// 063   ----------------------------------------
 BYTE   W96
// 064   ----------------------------------------
 BYTE   W96
// 065   ----------------------------------------
 BYTE   W96
// 066   ----------------------------------------
 BYTE   W96
// 067   ----------------------------------------
 BYTE   W96
// 068   ----------------------------------------
 BYTE   W96
// 069   ----------------------------------------
 BYTE   W96
// 070   ----------------------------------------
 BYTE   W96
// 071   ----------------------------------------
 BYTE   W96
// 072   ----------------------------------------
 BYTE   W96
// 073   ----------------------------------------
 BYTE   W96
// 074   ----------------------------------------
 BYTE   W96
// 075   ----------------------------------------
 BYTE   W96
// 076   ----------------------------------------
 BYTE   W96
// 077   ----------------------------------------
 BYTE   W96
// 078   ----------------------------------------
 BYTE   W96
// 079   ----------------------------------------
 BYTE   W96
// 080   ----------------------------------------
 BYTE   W96
// 081   ----------------------------------------
 BYTE   W96
// 082   ----------------------------------------
 BYTE   W96
// 083   ----------------------------------------
 BYTE   W96
// 084   ----------------------------------------
 BYTE   W96
// 085   ----------------------------------------
 BYTE   W96
// 086   ----------------------------------------
 BYTE   W96
// 087   ----------------------------------------
 BYTE   W96
// 088   ----------------------------------------
 BYTE   W96
// 089   ----------------------------------------
 BYTE   W96
// 090   ----------------------------------------
 BYTE   W96
// 091   ----------------------------------------
 BYTE   W96
// 092   ----------------------------------------
 BYTE   W96
// 093   ----------------------------------------
 BYTE   W96
// 094   ----------------------------------------
 BYTE   W96
// 095   ----------------------------------------
 BYTE   W92
 BYTE   W03
 BYTE   GoTo
  POIN2 Label_12_017B3F5D
// 096   ----------------------------------------
 BYTE   W01
 BYTE   FINE

//**************** Track 14 (Midi-Chn.13) ****************//

FE04EndofDespairSmashUltimateArrangementMycahel_014:
// 000   ----------------------------------------
 BYTE   VOL   50*FE04EndofDespairSmashUltimateArrangementMycahel_mvl/mxv
 BYTE   KEYSH   FE04EndofDespairSmashUltimateArrangementMycahel_key+0
 BYTE   VOICE   68
 BYTE   W96
// 001   ----------------------------------------
 BYTE   W96
// 002   ----------------------------------------
 BYTE   W92
Label_13_017B400D:
 BYTE   W04
// 003   ----------------------------------------
 BYTE   W96
// 004   ----------------------------------------
 BYTE   W96
// 005   ----------------------------------------
 BYTE   W96
// 006   ----------------------------------------
 BYTE   W96
// 007   ----------------------------------------
 BYTE   W96
// 008   ----------------------------------------
 BYTE   W96
// 009   ----------------------------------------
 BYTE   W96
// 010   ----------------------------------------
 BYTE   W96
// 011   ----------------------------------------
 BYTE   W96
// 012   ----------------------------------------
 BYTE   W96
// 013   ----------------------------------------
 BYTE   W96
// 014   ----------------------------------------
 BYTE   W96
// 015   ----------------------------------------
 BYTE   W96
// 016   ----------------------------------------
 BYTE   W96
// 017   ----------------------------------------
 BYTE   W96
// 018   ----------------------------------------
 BYTE   W96
// 019   ----------------------------------------
 BYTE   W96
// 020   ----------------------------------------
 BYTE   W96
// 021   ----------------------------------------
 BYTE   W96
// 022   ----------------------------------------
 BYTE   W96
// 023   ----------------------------------------
 BYTE   W96
// 024   ----------------------------------------
 BYTE   W96
// 025   ----------------------------------------
 BYTE   W96
// 026   ----------------------------------------
 BYTE   W96
// 027   ----------------------------------------
 BYTE   W96
// 028   ----------------------------------------
 BYTE   W96
// 029   ----------------------------------------
 BYTE   W96
// 030   ----------------------------------------
 BYTE   W96
// 031   ----------------------------------------
 BYTE   W96
// 032   ----------------------------------------
 BYTE   W96
// 033   ----------------------------------------
 BYTE   W96
// 034   ----------------------------------------
 BYTE   W96
// 035   ----------------------------------------
 BYTE   W96
// 036   ----------------------------------------
 BYTE   W96
// 037   ----------------------------------------
 BYTE   W96
// 038   ----------------------------------------
 BYTE   W96
// 039   ----------------------------------------
 BYTE   W96
// 040   ----------------------------------------
 BYTE   W96
// 041   ----------------------------------------
 BYTE   W96
// 042   ----------------------------------------
 BYTE   W96
// 043   ----------------------------------------
 BYTE   W96
// 044   ----------------------------------------
 BYTE   W96
// 045   ----------------------------------------
 BYTE   W96
// 046   ----------------------------------------
 BYTE   W96
// 047   ----------------------------------------
 BYTE   W96
// 048   ----------------------------------------
 BYTE   W48
 BYTE   N48  Fn3  v108
 BYTE   W48
// 049   ----------------------------------------
 BYTE   Ds3
 BYTE   W48
 BYTE   Gs3
 BYTE   W48
// 050   ----------------------------------------
 BYTE   Fs3
 BYTE   W48
 BYTE   N96  Fn3
 BYTE   W48
// 051   ----------------------------------------
 BYTE   W48
 BYTE   N48  Ds3
 BYTE   W48
// 052   ----------------------------------------
 BYTE   W48
 BYTE   N24  Fn3
 BYTE   W24
 BYTE   Ds3
 BYTE   W24
// 053   ----------------------------------------
 BYTE   Fn3
 BYTE   W24
 BYTE   Fs3
 BYTE   W24
 BYTE   Gs3
 BYTE   W24
 BYTE   As3
 BYTE   W24
// 054   ----------------------------------------
 BYTE   N48  Cs4
 BYTE   W48
 BYTE   N96  Ds4
 BYTE   W48
// 055   ----------------------------------------
 BYTE   W48
 BYTE   N24  Cs4
 BYTE   W24
 BYTE   Ds4
 BYTE   W24
// 056   ----------------------------------------
 BYTE   TIE  Fn4
 BYTE   W96
// 057   ----------------------------------------
 BYTE   W48
 BYTE   EOT
 BYTE   N48  Fs4
 BYTE   W48
// 058   ----------------------------------------
 BYTE   TIE  Ds4
 BYTE   W96
// 059   ----------------------------------------
 BYTE   W48
 BYTE   EOT
 BYTE   N24  As3
 BYTE   W24
 BYTE   Ds4
 BYTE   W24
// 060   ----------------------------------------
 BYTE   TIE  Fn4
 BYTE   W96
// 061   ----------------------------------------
 BYTE   W48
 BYTE   EOT
 BYTE   N24  Ds4
 BYTE   W24
 BYTE   Fn4
 BYTE   W24
// 062   ----------------------------------------
 BYTE   N96  Fs4
 BYTE   W96
// 063   ----------------------------------------
 BYTE   Gs4
 BYTE   W96
// 064   ----------------------------------------
 BYTE   W96
// 065   ----------------------------------------
 BYTE   W96
// 066   ----------------------------------------
 BYTE   W96
// 067   ----------------------------------------
 BYTE   W96
// 068   ----------------------------------------
 BYTE   W96
// 069   ----------------------------------------
 BYTE   W96
// 070   ----------------------------------------
 BYTE   W96
// 071   ----------------------------------------
 BYTE   W96
// 072   ----------------------------------------
 BYTE   W96
// 073   ----------------------------------------
 BYTE   W96
// 074   ----------------------------------------
 BYTE   W96
// 075   ----------------------------------------
 BYTE   W96
// 076   ----------------------------------------
 BYTE   W96
// 077   ----------------------------------------
 BYTE   W96
// 078   ----------------------------------------
 BYTE   W96
// 079   ----------------------------------------
 BYTE   W96
// 080   ----------------------------------------
 BYTE   W96
// 081   ----------------------------------------
 BYTE   W96
// 082   ----------------------------------------
 BYTE   W96
// 083   ----------------------------------------
 BYTE   W96
// 084   ----------------------------------------
 BYTE   W96
// 085   ----------------------------------------
 BYTE   W96
// 086   ----------------------------------------
 BYTE   W96
// 087   ----------------------------------------
 BYTE   W96
// 088   ----------------------------------------
 BYTE   W96
// 089   ----------------------------------------
 BYTE   W96
// 090   ----------------------------------------
 BYTE   W96
// 091   ----------------------------------------
 BYTE   W96
// 092   ----------------------------------------
 BYTE   W96
// 093   ----------------------------------------
 BYTE   W96
// 094   ----------------------------------------
 BYTE   W96
// 095   ----------------------------------------
 BYTE   W92
 BYTE   W03
 BYTE   GoTo
  POIN2 Label_13_017B400D
// 096   ----------------------------------------
 BYTE   W01
 BYTE   FINE

//**************** Track 15 (Midi-Chn.14) ****************//

FE04EndofDespairSmashUltimateArrangementMycahel_015:
// 000   ----------------------------------------
 BYTE   VOL   50*FE04EndofDespairSmashUltimateArrangementMycahel_mvl/mxv
 BYTE   KEYSH   FE04EndofDespairSmashUltimateArrangementMycahel_key+0
 BYTE   VOICE   46
 BYTE   W96
// 001   ----------------------------------------
 BYTE   W96
// 002   ----------------------------------------
 BYTE   W92
Label_14_017B40B9:
 BYTE   W04
// 003   ----------------------------------------
 BYTE   W96
// 004   ----------------------------------------
 BYTE   W96
// 005   ----------------------------------------
 BYTE   W96
// 006   ----------------------------------------
 BYTE   W96
// 007   ----------------------------------------
 BYTE   W96
// 008   ----------------------------------------
 BYTE   W96
// 009   ----------------------------------------
 BYTE   W96
// 010   ----------------------------------------
 BYTE   W96
// 011   ----------------------------------------
 BYTE   W96
// 012   ----------------------------------------
 BYTE   W96
// 013   ----------------------------------------
 BYTE   W96
// 014   ----------------------------------------
 BYTE   W96
// 015   ----------------------------------------
 BYTE   W96
// 016   ----------------------------------------
 BYTE   W96
// 017   ----------------------------------------
 BYTE   W96
// 018   ----------------------------------------
 BYTE   W96
// 019   ----------------------------------------
 BYTE   W96
// 020   ----------------------------------------
 BYTE   W96
// 021   ----------------------------------------
 BYTE   W96
// 022   ----------------------------------------
 BYTE   W96
// 023   ----------------------------------------
 BYTE   W96
// 024   ----------------------------------------
 BYTE   W96
// 025   ----------------------------------------
 BYTE   W96
// 026   ----------------------------------------
 BYTE   W96
// 027   ----------------------------------------
 BYTE   W96
// 028   ----------------------------------------
 BYTE   W96
// 029   ----------------------------------------
 BYTE   W96
// 030   ----------------------------------------
 BYTE   W96
// 031   ----------------------------------------
 BYTE   W96
// 032   ----------------------------------------
 BYTE   W96
// 033   ----------------------------------------
 BYTE   W96
// 034   ----------------------------------------
 BYTE   W96
// 035   ----------------------------------------
 BYTE   W96
// 036   ----------------------------------------
 BYTE   W96
// 037   ----------------------------------------
 BYTE   W96
// 038   ----------------------------------------
 BYTE   W96
// 039   ----------------------------------------
 BYTE   W96
// 040   ----------------------------------------
 BYTE   W96
// 041   ----------------------------------------
 BYTE   W96
// 042   ----------------------------------------
 BYTE   W96
// 043   ----------------------------------------
 BYTE   W96
// 044   ----------------------------------------
 BYTE   W96
// 045   ----------------------------------------
 BYTE   W96
// 046   ----------------------------------------
 BYTE   W96
// 047   ----------------------------------------
 BYTE   W96
// 048   ----------------------------------------
 BYTE   W96
// 049   ----------------------------------------
 BYTE   W96
// 050   ----------------------------------------
 BYTE   W96
// 051   ----------------------------------------
 BYTE   W96
// 052   ----------------------------------------
 BYTE   W96
// 053   ----------------------------------------
 BYTE   W96
// 054   ----------------------------------------
 BYTE   W96
// 055   ----------------------------------------
 BYTE   W96
// 056   ----------------------------------------
 BYTE   N12  As4  v096
 BYTE   W12
 BYTE   As3
 BYTE   W24
 BYTE   As4
 BYTE   W12
 BYTE   As3
 BYTE   W24
 BYTE   As4
 BYTE   W12
 BYTE   As3
 BYTE   W12
// 057   ----------------------------------------
 BYTE   W12
 BYTE   As4
 BYTE   W12
 BYTE   As3
 BYTE   W24
 BYTE   As4
 BYTE   W12
 BYTE   As3
 BYTE   W24
 BYTE   As4
 BYTE   W12
// 058   ----------------------------------------
 BYTE   As3
 BYTE   W24
 BYTE   As4
 BYTE   W12
 BYTE   As3
 BYTE   W24
 BYTE   As4
 BYTE   W12
 BYTE   As3
 BYTE   W24
// 059   ----------------------------------------
 BYTE   As4
 BYTE   W12
 BYTE   As3
 BYTE   W24
 BYTE   As4
 BYTE   W12
 BYTE   As3
 BYTE   W24
 BYTE   As4
 BYTE   N12  Cs5
 BYTE   W12
 BYTE   As3
 BYTE   N12  Fn4
 BYTE   W12
// 060   ----------------------------------------
Label_14_017B4122:
 BYTE   W12
 BYTE   N12  As4  v096
 BYTE   N12  Cs5
 BYTE   W12
 BYTE   As3
 BYTE   N12  Fn4
 BYTE   W24
 BYTE   As4
 BYTE   N12  Cs5
 BYTE   W12
 BYTE   As3
 BYTE   N12  Fn4
 BYTE   W24
 BYTE   As4
 BYTE   N12  Cs5
 BYTE   W12
 BYTE   PEND 
// 061   ----------------------------------------
 BYTE   As3
 BYTE   N12  Fn4
 BYTE   W24
 BYTE   As4
 BYTE   N12  Cs5
 BYTE   W12
 BYTE   As3
 BYTE   N12  Fn4
 BYTE   W24
 BYTE   As4
 BYTE   N12  Cs5
 BYTE   W12
 BYTE   As3
 BYTE   N12  Fn4
 BYTE   W24
// 062   ----------------------------------------
 BYTE   As4
 BYTE   N12  Cs5
 BYTE   W12
 BYTE   As3
 BYTE   N12  Fn4
 BYTE   W24
 BYTE   As4
 BYTE   N12  Cs5
 BYTE   W12
 BYTE   As3
 BYTE   N12  Fn4
 BYTE   W24
 BYTE   As4
 BYTE   N12  Cs5
 BYTE   W12
 BYTE   As3
 BYTE   N12  Fn4
 BYTE   W12
 BYTE   PATT
  POIN2 Label_14_017B4122
// 063   ----------------------------------------
 BYTE   W96
// 064   ----------------------------------------
 BYTE   W96
// 065   ----------------------------------------
 BYTE   W96
// 066   ----------------------------------------
 BYTE   W96
// 067   ----------------------------------------
 BYTE   W96
// 068   ----------------------------------------
 BYTE   W96
// 069   ----------------------------------------
 BYTE   W96
// 070   ----------------------------------------
 BYTE   W96
// 071   ----------------------------------------
 BYTE   W96
// 072   ----------------------------------------
 BYTE   W96
// 073   ----------------------------------------
 BYTE   W96
// 074   ----------------------------------------
 BYTE   W96
// 075   ----------------------------------------
 BYTE   W96
// 076   ----------------------------------------
 BYTE   W96
// 077   ----------------------------------------
 BYTE   W96
// 078   ----------------------------------------
 BYTE   W96
// 079   ----------------------------------------
 BYTE   W96
// 080   ----------------------------------------
 BYTE   W96
// 081   ----------------------------------------
 BYTE   W96
// 082   ----------------------------------------
 BYTE   W96
// 083   ----------------------------------------
 BYTE   W96
// 084   ----------------------------------------
 BYTE   W96
// 085   ----------------------------------------
 BYTE   W96
// 086   ----------------------------------------
 BYTE   W96
// 087   ----------------------------------------
 BYTE   W96
// 088   ----------------------------------------
 BYTE   W96
// 089   ----------------------------------------
 BYTE   W96
// 090   ----------------------------------------
 BYTE   W96
// 091   ----------------------------------------
 BYTE   W96
// 092   ----------------------------------------
 BYTE   W96
// 093   ----------------------------------------
 BYTE   W96
// 094   ----------------------------------------
 BYTE   W92
 BYTE   W03
 BYTE   GoTo
  POIN2 Label_14_017B40B9
// 095   ----------------------------------------
 BYTE   W01
 BYTE   FINE

//******************************************************//
	ALIGN 4

FE04EndofDespairSmashUltimateArrangementMycahel:
	BYTE	15	// NumTrks
	BYTE	0	// NumBlks
	BYTE	FE04EndofDespairSmashUltimateArrangementMycahel_pri	// Priority
	BYTE	FE04EndofDespairSmashUltimateArrangementMycahel_rev	// Reverb.
    
	POIN2	FE04EndofDespairSmashUltimateArrangementMycahel_grp
    
	POIN2	FE04EndofDespairSmashUltimateArrangementMycahel_001
	POIN2	FE04EndofDespairSmashUltimateArrangementMycahel_002
	POIN2	FE04EndofDespairSmashUltimateArrangementMycahel_003
	POIN2	FE04EndofDespairSmashUltimateArrangementMycahel_004
	POIN2	FE04EndofDespairSmashUltimateArrangementMycahel_005
	POIN2	FE04EndofDespairSmashUltimateArrangementMycahel_006
	POIN2	FE04EndofDespairSmashUltimateArrangementMycahel_007
	POIN2	FE04EndofDespairSmashUltimateArrangementMycahel_008
	POIN2	FE04EndofDespairSmashUltimateArrangementMycahel_009
	POIN2	FE04EndofDespairSmashUltimateArrangementMycahel_010
	POIN2	FE04EndofDespairSmashUltimateArrangementMycahel_011
	POIN2	FE04EndofDespairSmashUltimateArrangementMycahel_012
	POIN2	FE04EndofDespairSmashUltimateArrangementMycahel_013
	POIN2	FE04EndofDespairSmashUltimateArrangementMycahel_014
	POIN2	FE04EndofDespairSmashUltimateArrangementMycahel_015

	
