//Event file generated from Sappy .s format.
	#include "MPlayDef.event"

	#define	FE04DoorwayToDestinyMonopolyRubix_grp  voicegroup000
	#define	FE04DoorwayToDestinyMonopolyRubix_pri  0
	#define	FE04DoorwayToDestinyMonopolyRubix_rev  0
	#define	FE04DoorwayToDestinyMonopolyRubix_mvl  127
	#define	FE04DoorwayToDestinyMonopolyRubix_key  0
	#define	FE04DoorwayToDestinyMonopolyRubix_tbs  1
	#define	FE04DoorwayToDestinyMonopolyRubix_exg  0
	#define	FE04DoorwayToDestinyMonopolyRubix_cmp  1

	// .rodata
	//	FE04DoorwayToDestinyMonopolyRubix
	ALIGN 4


//**************** Track 1 (Midi-Chn.0) ****************//

FE04DoorwayToDestinyMonopolyRubix_001:
// 000   ----------------------------------------
 BYTE   KEYSH   FE04DoorwayToDestinyMonopolyRubix_key+0
 BYTE   TEMPO   124*FE04DoorwayToDestinyMonopolyRubix_tbs/2
 BYTE   MODT 0
 BYTE   LFOS 44
 BYTE   PAN   c_v+0
 BYTE   VOL   15*FE04DoorwayToDestinyMonopolyRubix_mvl/mxv
 BYTE   BENDR  12
 BYTE   MOD 0
 BYTE   BEND   c_v+0
 BYTE   W52
 BYTE   W01
 BYTE   VOICE   41
 BYTE   PAN   c_v+0
 BYTE   VOL   38*FE04DoorwayToDestinyMonopolyRubix_mvl/mxv
 BYTE   N48  Dn4  v127
 BYTE   W42
 BYTE   W01
// 001   ----------------------------------------
 BYTE   W05
 BYTE   N72  An4
 BYTE   W01
Label_0_545687:
 BYTE   W68
 BYTE   W03
 BYTE   N12  Gn4  v127
 BYTE   W12
 BYTE   Fn4
 BYTE   W07
// 002   ----------------------------------------
 BYTE   W05
 BYTE   N24  En4
 BYTE   W24
 BYTE   Cn4
 BYTE   W24
 BYTE   N48  Dn4
 BYTE   W42
 BYTE   W01
// 003   ----------------------------------------
 BYTE   W05
 BYTE   TIE  Gn3
 BYTE   W90
 BYTE   W01
// 004   ----------------------------------------
 BYTE   W17
 BYTE   EOT
 BYTE   W12
 BYTE   N24  Fn3
 BYTE   W24
 BYTE   N48  Gn3
 BYTE   W42
 BYTE   W01
// 005   ----------------------------------------
Label_0_5456A8:
 BYTE   W05
 BYTE   N24  Gs3  v127
 BYTE   W24
 BYTE   As3
 BYTE   W24
 BYTE   N48  Cn4
 BYTE   W42
 BYTE   W01
 BYTE   PEND 
// 006   ----------------------------------------
 BYTE   W05
 BYTE   N96  Gn4
 BYTE   W90
 BYTE   W01
// 007   ----------------------------------------
 BYTE   W05
 BYTE   N24  Fn4
 BYTE   W24
 BYTE   Gn4
 BYTE   W24
 BYTE   N48  As4
 BYTE   W42
 BYTE   W01
// 008   ----------------------------------------
 BYTE   W05
 BYTE   N18  Gs4
 BYTE   W18
 BYTE   Gn4
 BYTE   W18
 BYTE   N12  Fn4
 BYTE   W12
 BYTE   N48  Gn4
 BYTE   W42
 BYTE   W01
// 009   ----------------------------------------
 BYTE   W05
 BYTE   Dn4
 BYTE   W48
 BYTE   VOICE   56
 BYTE   PAN   c_v+21
 BYTE   VOL   22*FE04DoorwayToDestinyMonopolyRubix_mvl/mxv
 BYTE   W24
 BYTE   N16  As2
 BYTE   W19
// 010   ----------------------------------------
 BYTE   W05
 BYTE   Ds3
 BYTE   W24
 BYTE   N04  Dn3
 BYTE   W12
 BYTE   Cn3
 BYTE   W12
 BYTE   As2
 BYTE   W24
 BYTE   N64  Fn2
 BYTE   W19
// 011   ----------------------------------------
 BYTE   W52
 BYTE   W01
 BYTE   VOICE   41
 BYTE   PAN   c_v+6
 BYTE   VOL   38*FE04DoorwayToDestinyMonopolyRubix_mvl/mxv
 BYTE   W42
 BYTE   W01
// 012   ----------------------------------------
 BYTE   W05
 BYTE   N24  Ds3
 BYTE   W24
 BYTE   Fn3
 BYTE   W24
 BYTE   N48  Fs3
 BYTE   W42
 BYTE   W01
// 013   ----------------------------------------
 BYTE   PATT
  POIN2 Label_0_5456A8
// 014   ----------------------------------------
 BYTE   W05
 BYTE   N24  As3  v127
 BYTE   W24
 BYTE   Fn4
 BYTE   W24
 BYTE   N48  Cn4
 BYTE   W42
 BYTE   W01
// 015   ----------------------------------------
 BYTE   W05
 BYTE   TIE  As3
 BYTE   W90
 BYTE   W01
// 016   ----------------------------------------
 BYTE   W17
 BYTE   EOT
 BYTE   W12
 BYTE   N24  Gs3
 BYTE   W24
 BYTE   N60  Fs3
 BYTE   W42
 BYTE   W01
// 017   ----------------------------------------
 BYTE   W17
 BYTE   N12  Cs4
 BYTE   W12
 BYTE   Bn3
 BYTE   W12
 BYTE   As3
 BYTE   W12
 BYTE   N24  Gs3
 BYTE   W24
 BYTE   N36  Fn3
 BYTE   W19
// 018   ----------------------------------------
Label_0_54572B:
 BYTE   W28
 BYTE   W01
 BYTE   N12  Ds4  v127
 BYTE   W12
 BYTE   Fn4
 BYTE   W12
 BYTE   N24  Fs4
 BYTE   W24
 BYTE   N12  Ds4
 BYTE   W12
 BYTE   N36  Gs4
 BYTE   W07
 BYTE   PEND 
// 019   ----------------------------------------
Label_0_54573D:
 BYTE   W28
 BYTE   W01
 BYTE   N12  Fs4  v127
 BYTE   W12
 BYTE   Fn4
 BYTE   W12
 BYTE   N72  Fs4
 BYTE   W42
 BYTE   W01
 BYTE   PEND 
// 020   ----------------------------------------
 BYTE   PATT
  POIN2 Label_0_54572B
// 021   ----------------------------------------
 BYTE   PATT
  POIN2 Label_0_54573D
// 022   ----------------------------------------
 BYTE   PATT
  POIN2 Label_0_54572B
// 023   ----------------------------------------
 BYTE   W28
 BYTE   W01
 BYTE   N12  Fs4  v127
 BYTE   W12
 BYTE   Fn4
 BYTE   W12
 BYTE   N48  Fs4
 BYTE   W42
 BYTE   W01
// 024   ----------------------------------------
 BYTE   W05
 BYTE   Gs4
 BYTE   W48
 BYTE   N24
 BYTE   W24
 BYTE   As4
 BYTE   W19
// 025   ----------------------------------------
 BYTE   W05
 BYTE   N48  Fn4
 BYTE   W48
 BYTE   Cs4
 BYTE   W42
 BYTE   W01
// 026   ----------------------------------------
 BYTE   W05
 BYTE   As3
 BYTE   W48
 BYTE   N24  Cs4
 BYTE   W24
 BYTE   Bn3
 BYTE   W19
// 027   ----------------------------------------
 BYTE   W05
 BYTE   As3
 BYTE   W24
 BYTE   Bn3
 BYTE   W24
 BYTE   N72  Fs4
 BYTE   W42
 BYTE   W01
// 028   ----------------------------------------
 BYTE   W28
 BYTE   W01
 BYTE   N24  Bn3
 BYTE   W24
 BYTE   N48  As3
 BYTE   W42
 BYTE   W01
// 029   ----------------------------------------
 BYTE   W05
 BYTE   Cs4
 BYTE   W48
 BYTE   Fs4
 BYTE   W42
 BYTE   W01
// 030   ----------------------------------------
 BYTE   W05
 BYTE   As4
 BYTE   W48
 BYTE   N96
 BYTE   W42
 BYTE   W01
// 031   ----------------------------------------
 BYTE   W52
 BYTE   W01
 BYTE   N48  Gs4
 BYTE   W42
 BYTE   W01
// 032   ----------------------------------------
 BYTE   W05
 BYTE   Fs4
 BYTE   W48
 BYTE   N96  Fn4
 BYTE   W42
 BYTE   W01
// 033   ----------------------------------------
 BYTE   W52
 BYTE   W01
 BYTE   N84  Ds4
 BYTE   W42
 BYTE   W01
// 034   ----------------------------------------
 BYTE   W52
 BYTE   W01
 BYTE   VOICE   41
 BYTE   PAN   c_v+0
 BYTE   VOL   38*FE04DoorwayToDestinyMonopolyRubix_mvl/mxv
 BYTE   N48  Dn4
 BYTE   W42
 BYTE   W01
// 035   ----------------------------------------
 BYTE   W05
 BYTE   N72  An4
 BYTE   W01
 BYTE   GoTo
  POIN2 Label_0_545687
// 036   ----------------------------------------
 BYTE   W68
 BYTE   W03
 BYTE   N12  Gn4  v127
 BYTE   W12
 BYTE   Fn4
 BYTE   W07
 BYTE   W05
 BYTE   N24  En4
 BYTE   W24
// 037   ----------------------------------------
 BYTE   Cn4
 BYTE   W24
 BYTE   FINE

//**************** Track 2 (Midi-Chn.1) ****************//

FE04DoorwayToDestinyMonopolyRubix_002:
// 000   ----------------------------------------
 BYTE   KEYSH   FE04DoorwayToDestinyMonopolyRubix_key+0
 BYTE   MODT 0
 BYTE   LFOS 44
 BYTE   PAN   c_v+0
 BYTE   VOL   15*FE04DoorwayToDestinyMonopolyRubix_mvl/mxv
 BYTE   BENDR  12
 BYTE   MOD 0
 BYTE   BEND   c_v+0
 BYTE   W05
 BYTE   VOICE   56
 BYTE   PAN   c_v-49
 BYTE   VOL   39*FE04DoorwayToDestinyMonopolyRubix_mvl/mxv
 BYTE   W24
 BYTE   N24  Dn2  v127
 BYTE   W24
 BYTE   VOICE   42
 BYTE   PAN   c_v-34
 BYTE   VOL   32*FE04DoorwayToDestinyMonopolyRubix_mvl/mxv
 BYTE   N48  Fn2
 BYTE   W42
 BYTE   W01
// 001   ----------------------------------------
 BYTE   W05
 BYTE   N72  Cn3
 BYTE   W01
Label_1_0141177A:
 BYTE   W68
 BYTE   W03
 BYTE   N12  As2  v127
 BYTE   W12
 BYTE   An2
 BYTE   W07
// 002   ----------------------------------------
 BYTE   W05
 BYTE   N24  Gn2
 BYTE   W24
 BYTE   Fn2
 BYTE   W24
 BYTE   N48  As2
 BYTE   W42
 BYTE   W01
// 003   ----------------------------------------
 BYTE   W05
 BYTE   TIE  Dn2
 BYTE   W90
 BYTE   W01
// 004   ----------------------------------------
 BYTE   W17
 BYTE   EOT
 BYTE   W12
 BYTE   N24  Cn2
 BYTE   W24
 BYTE   N48  As1
 BYTE   W42
 BYTE   W01
// 005   ----------------------------------------
 BYTE   W05
 BYTE   N24  Cn2
 BYTE   W24
 BYTE   Dn2
 BYTE   W24
 BYTE   N48  Ds2
 BYTE   W42
 BYTE   W01
// 006   ----------------------------------------
 BYTE   W05
 BYTE   N96  As2
 BYTE   W90
 BYTE   W01
// 007   ----------------------------------------
 BYTE   W05
 BYTE   N24  Gs2
 BYTE   W24
 BYTE   As2
 BYTE   W24
 BYTE   N48  Dn3
 BYTE   W42
 BYTE   W01
// 008   ----------------------------------------
 BYTE   W05
 BYTE   N18  Cn3
 BYTE   W18
 BYTE   As2
 BYTE   W18
 BYTE   N12  Gs2
 BYTE   W12
 BYTE   N48  As2
 BYTE   W42
 BYTE   W01
// 009   ----------------------------------------
 BYTE   W05
 BYTE   Fn2
 BYTE   W48
 BYTE   VOICE   63
 BYTE   PAN   c_v-29
 BYTE   VOL   18*FE04DoorwayToDestinyMonopolyRubix_mvl/mxv
 BYTE   W24
 BYTE   N21  Gn2
 BYTE   W19
// 010   ----------------------------------------
 BYTE   W05
 BYTE   Cn3
 BYTE   W24
 BYTE   N09  As2
 BYTE   W12
 BYTE   An2
 BYTE   W12
 BYTE   Gn2
 BYTE   W24
 BYTE   N68  Dn2
 BYTE   W19
// 011   ----------------------------------------
 BYTE   W52
 BYTE   W01
 BYTE   VOICE   42
 BYTE   PAN   c_v-34
 BYTE   VOL   32*FE04DoorwayToDestinyMonopolyRubix_mvl/mxv
 BYTE   W42
 BYTE   W01
// 012   ----------------------------------------
 BYTE   W05
 BYTE   N24  As2
 BYTE   W24
 BYTE   Gs2
 BYTE   W24
 BYTE   N48  As2
 BYTE   W42
 BYTE   W01
// 013   ----------------------------------------
 BYTE   W05
 BYTE   N24  Cn3
 BYTE   W24
 BYTE   Cs3
 BYTE   W24
 BYTE   N48  Ds3
 BYTE   W42
 BYTE   W01
// 014   ----------------------------------------
 BYTE   W05
 BYTE   N24  Cs3
 BYTE   W24
 BYTE   Gs3
 BYTE   W24
 BYTE   N48  Ds3
 BYTE   W42
 BYTE   W01
// 015   ----------------------------------------
 BYTE   W05
 BYTE   TIE  Cs3
 BYTE   W90
 BYTE   W01
// 016   ----------------------------------------
 BYTE   W17
 BYTE   EOT
 BYTE   W12
 BYTE   N24  Cn3
 BYTE   W24
 BYTE   N60  Bn2
 BYTE   W42
 BYTE   W01
// 017   ----------------------------------------
 BYTE   W17
 BYTE   N12  Fs3
 BYTE   W12
 BYTE   N12
 BYTE   W12
 BYTE   N12
 BYTE   W12
 BYTE   N24  Cs3
 BYTE   W24
 BYTE   N36  Gs2
 BYTE   W19
// 018   ----------------------------------------
Label_1_01411820:
 BYTE   W28
 BYTE   W01
 BYTE   N12  Ds3  v127
 BYTE   W12
 BYTE   Fn3
 BYTE   W12
 BYTE   N24  Fs3
 BYTE   W24
 BYTE   N12  Ds3
 BYTE   W12
 BYTE   N36  Gs3
 BYTE   W07
 BYTE   PEND 
// 019   ----------------------------------------
Label_1_01411832:
 BYTE   W28
 BYTE   W01
 BYTE   N12  Fs3  v127
 BYTE   W12
 BYTE   Fn3
 BYTE   W12
 BYTE   N72  Fs3
 BYTE   W42
 BYTE   W01
 BYTE   PEND 
// 020   ----------------------------------------
 BYTE   PATT
  POIN2 Label_1_01411820
// 021   ----------------------------------------
 BYTE   PATT
  POIN2 Label_1_01411832
// 022   ----------------------------------------
 BYTE   PATT
  POIN2 Label_1_01411820
// 023   ----------------------------------------
 BYTE   W28
 BYTE   W01
 BYTE   N12  Fs3  v127
 BYTE   W12
 BYTE   Fn3
 BYTE   W12
 BYTE   N48  Ds3
 BYTE   W42
 BYTE   W01
// 024   ----------------------------------------
 BYTE   W05
 BYTE   N48
 BYTE   W48
 BYTE   N24  Cs4
 BYTE   W24
 BYTE   N24
 BYTE   W19
// 025   ----------------------------------------
 BYTE   W05
 BYTE   N48
 BYTE   W48
 BYTE   Fn3
 BYTE   W42
 BYTE   W01
// 026   ----------------------------------------
 BYTE   W05
 BYTE   N48
 BYTE   W48
 BYTE   N24  Fs3
 BYTE   W24
 BYTE   N24
 BYTE   W19
// 027   ----------------------------------------
 BYTE   W05
 BYTE   N24
 BYTE   W24
 BYTE   N24
 BYTE   W24
 BYTE   N72  As3
 BYTE   W42
 BYTE   W01
// 028   ----------------------------------------
 BYTE   W28
 BYTE   W01
 BYTE   N24  Ds3
 BYTE   W24
 BYTE   N48  Fs3
 BYTE   W42
 BYTE   W01
// 029   ----------------------------------------
 BYTE   W05
 BYTE   N48
 BYTE   W48
 BYTE   As3
 BYTE   W42
 BYTE   W01
// 030   ----------------------------------------
 BYTE   W05
 BYTE   Cs4
 BYTE   W48
 BYTE   N96  Bn3
 BYTE   W42
 BYTE   W01
// 031   ----------------------------------------
 BYTE   W52
 BYTE   W01
 BYTE   N48
 BYTE   W42
 BYTE   W01
// 032   ----------------------------------------
 BYTE   W05
 BYTE   N48
 BYTE   W48
 BYTE   N96  As3
 BYTE   W42
 BYTE   W01
// 033   ----------------------------------------
 BYTE   W52
 BYTE   W01
 BYTE   N84
 BYTE   W42
 BYTE   W01
// 034   ----------------------------------------
 BYTE   W52
 BYTE   W01
 BYTE   VOICE   42
 BYTE   PAN   c_v-34
 BYTE   VOL   32*FE04DoorwayToDestinyMonopolyRubix_mvl/mxv
 BYTE   N48  Fn2
 BYTE   W42
 BYTE   W01
// 035   ----------------------------------------
 BYTE   W05
 BYTE   N72  Cn3
 BYTE   W01
 BYTE   GoTo
  POIN2 Label_1_0141177A
// 036   ----------------------------------------
 BYTE   W68
 BYTE   W03
 BYTE   N12  As2  v127
 BYTE   W12
 BYTE   An2
 BYTE   W07
 BYTE   W05
 BYTE   N24  Gn2
 BYTE   W24
// 037   ----------------------------------------
 BYTE   Fn2
 BYTE   W24
 BYTE   FINE

//**************** Track 3 (Midi-Chn.2) ****************//

FE04DoorwayToDestinyMonopolyRubix_003:
// 000   ----------------------------------------
 BYTE   KEYSH   FE04DoorwayToDestinyMonopolyRubix_key+0
 BYTE   MODT 0
 BYTE   LFOS 44
 BYTE   PAN   c_v+0
 BYTE   VOL   15*FE04DoorwayToDestinyMonopolyRubix_mvl/mxv
 BYTE   BENDR  12
 BYTE   MOD 0
 BYTE   BEND   c_v+0
 BYTE   W05
 BYTE   VOICE   56
 BYTE   PAN   c_v+6
 BYTE   VOL   39*FE04DoorwayToDestinyMonopolyRubix_mvl/mxv
 BYTE   W24
 BYTE   N24  Gn1  v127
 BYTE   W24
 BYTE   VOICE   10
 BYTE   PAN   c_v-44
 BYTE   VOL   32*FE04DoorwayToDestinyMonopolyRubix_mvl/mxv
 BYTE   N48  Dn5
 BYTE   W42
 BYTE   W01
// 001   ----------------------------------------
 BYTE   W05
 BYTE   N72  An5
 BYTE   W01
Label_2_01411BCE:
 BYTE   W68
 BYTE   W03
 BYTE   N12  Gn5  v127
 BYTE   W12
 BYTE   Fn5
 BYTE   W07
// 002   ----------------------------------------
 BYTE   W05
 BYTE   N24  En5
 BYTE   W24
 BYTE   Cn5
 BYTE   W24
 BYTE   N48  Dn5
 BYTE   W42
 BYTE   W01
// 003   ----------------------------------------
 BYTE   W05
 BYTE   TIE  Gn4
 BYTE   W90
 BYTE   W01
// 004   ----------------------------------------
 BYTE   W17
 BYTE   EOT
 BYTE   W12
 BYTE   N24  Fn4
 BYTE   W24
 BYTE   N48  Gn4
 BYTE   W42
 BYTE   W01
// 005   ----------------------------------------
 BYTE   W05
 BYTE   N24  Gs4
 BYTE   W24
 BYTE   As4
 BYTE   W24
 BYTE   N48  Cn5
 BYTE   W42
 BYTE   W01
// 006   ----------------------------------------
 BYTE   W05
 BYTE   N96  Gn5
 BYTE   W90
 BYTE   W01
// 007   ----------------------------------------
 BYTE   W05
 BYTE   N24  Fn5
 BYTE   W24
 BYTE   Gn5
 BYTE   W24
 BYTE   N48  As5
 BYTE   W42
 BYTE   W01
// 008   ----------------------------------------
 BYTE   W05
 BYTE   N18  Gs5
 BYTE   W18
 BYTE   Gn5
 BYTE   W18
 BYTE   N12  Fn5
 BYTE   W12
 BYTE   N48  Gn5
 BYTE   W42
 BYTE   W01
// 009   ----------------------------------------
 BYTE   W05
 BYTE   Dn5
 BYTE   W72
 BYTE   N24  Gn5
 BYTE   W19
// 010   ----------------------------------------
 BYTE   W05
 BYTE   Cn6
 BYTE   W24
 BYTE   N12  As5
 BYTE   W12
 BYTE   An5
 BYTE   W12
 BYTE   Gn5
 BYTE   W24
 BYTE   N72  Dn5
 BYTE   W19
// 011   ----------------------------------------
 BYTE   W96
// 012   ----------------------------------------
 BYTE   W05
 BYTE   N24  Ds5
 BYTE   W24
 BYTE   Fn5
 BYTE   W24
 BYTE   N48  Fs5
 BYTE   W42
 BYTE   W01
// 013   ----------------------------------------
 BYTE   W05
 BYTE   N24  Gs5
 BYTE   W24
 BYTE   As5
 BYTE   W24
 BYTE   N48  Cn6
 BYTE   W42
 BYTE   W01
// 014   ----------------------------------------
 BYTE   W05
 BYTE   N24  As5
 BYTE   W24
 BYTE   Fn6
 BYTE   W24
 BYTE   N48  Cn6
 BYTE   W42
 BYTE   W01
// 015   ----------------------------------------
 BYTE   W05
 BYTE   TIE  As5
 BYTE   W90
 BYTE   W01
// 016   ----------------------------------------
 BYTE   W17
 BYTE   EOT
 BYTE   W12
 BYTE   N24  Gs5
 BYTE   W24
 BYTE   N60  Fs5
 BYTE   W42
 BYTE   W01
// 017   ----------------------------------------
 BYTE   W17
 BYTE   N12  Cs6
 BYTE   W12
 BYTE   Bn5
 BYTE   W12
 BYTE   As5
 BYTE   W12
 BYTE   N24  Gs5
 BYTE   W24
 BYTE   N72  Fn5
 BYTE   W19
// 018   ----------------------------------------
 BYTE   W52
 BYTE   W01
 BYTE   VOICE   56
 BYTE   PAN   c_v-54
 BYTE   VOL   25*FE04DoorwayToDestinyMonopolyRubix_mvl/mxv
 BYTE   N03  As3
 BYTE   W24
 BYTE   N21
 BYTE   W19
// 019   ----------------------------------------
 BYTE   W05
 BYTE   N03
 BYTE   W24
 BYTE   N21
 BYTE   W24
 BYTE   N03
 BYTE   W24
 BYTE   N21
 BYTE   W19
// 020   ----------------------------------------
 BYTE   W05
 BYTE   N03
 BYTE   W24
 BYTE   N21
 BYTE   W24
 BYTE   N03  Gs3
 BYTE   W24
 BYTE   N21
 BYTE   W19
// 021   ----------------------------------------
 BYTE   W05
 BYTE   N03
 BYTE   W24
 BYTE   N21
 BYTE   W24
 BYTE   N03
 BYTE   W24
 BYTE   N21
 BYTE   W19
// 022   ----------------------------------------
 BYTE   W05
 BYTE   N03
 BYTE   W24
 BYTE   N21
 BYTE   W24
 BYTE   N03  Fs3
 BYTE   W24
 BYTE   N05
 BYTE   W08
 BYTE   N05
 BYTE   W08
 BYTE   N05
 BYTE   W03
// 023   ----------------------------------------
 BYTE   W05
 BYTE   N03
 BYTE   W24
 BYTE   N05
 BYTE   W08
 BYTE   N05
 BYTE   W08
 BYTE   N05
 BYTE   W08
 BYTE   N03
 BYTE   W24
 BYTE   N05
 BYTE   W08
 BYTE   N05
 BYTE   W08
 BYTE   N05
 BYTE   W03
// 024   ----------------------------------------
 BYTE   W05
 BYTE   N03
 BYTE   W24
 BYTE   N21
 BYTE   W24
 BYTE   N03  Fn3
 BYTE   W24
 BYTE   N05
 BYTE   W08
 BYTE   N05
 BYTE   W08
 BYTE   N05
 BYTE   W03
// 025   ----------------------------------------
 BYTE   W05
 BYTE   N03
 BYTE   W24
 BYTE   N21
 BYTE   W24
 BYTE   N03
 BYTE   W24
 BYTE   N05
 BYTE   W08
 BYTE   N05
 BYTE   W08
 BYTE   N05
 BYTE   W03
// 026   ----------------------------------------
 BYTE   W05
 BYTE   N03
 BYTE   W24
 BYTE   N21
 BYTE   W24
 BYTE   N03  Ds3
 BYTE   W24
 BYTE   N05
 BYTE   W08
 BYTE   N05
 BYTE   W08
 BYTE   N05
 BYTE   W03
// 027   ----------------------------------------
 BYTE   W05
 BYTE   N03
 BYTE   W24
 BYTE   N21
 BYTE   W24
 BYTE   N03
 BYTE   W24
 BYTE   N05
 BYTE   W08
 BYTE   N05
 BYTE   W08
 BYTE   N05
 BYTE   W03
// 028   ----------------------------------------
 BYTE   W05
 BYTE   N03
 BYTE   W24
 BYTE   N21
 BYTE   W24
 BYTE   N03  Cs3
 BYTE   W24
 BYTE   N05
 BYTE   W08
 BYTE   N05
 BYTE   W08
 BYTE   N05
 BYTE   W03
// 029   ----------------------------------------
 BYTE   W05
 BYTE   N03
 BYTE   W24
 BYTE   N21
 BYTE   W24
 BYTE   N03
 BYTE   W24
 BYTE   N05
 BYTE   W08
 BYTE   N05
 BYTE   W08
 BYTE   N05
 BYTE   W03
// 030   ----------------------------------------
 BYTE   W05
 BYTE   N03
 BYTE   W24
 BYTE   N21
 BYTE   W24
 BYTE   N03  Bn2
 BYTE   W24
 BYTE   N05
 BYTE   W08
 BYTE   N05
 BYTE   W08
 BYTE   N05
 BYTE   W03
// 031   ----------------------------------------
 BYTE   W05
 BYTE   N03
 BYTE   W24
 BYTE   N21
 BYTE   W24
 BYTE   N03
 BYTE   W24
 BYTE   N05
 BYTE   W08
 BYTE   N05
 BYTE   W08
 BYTE   N05
 BYTE   W03
// 032   ----------------------------------------
 BYTE   W05
 BYTE   N03
 BYTE   W24
 BYTE   N21
 BYTE   W24
 BYTE   N03  As2
 BYTE   W24
 BYTE   N05
 BYTE   W08
 BYTE   N05
 BYTE   W08
 BYTE   N05
 BYTE   W03
// 033   ----------------------------------------
 BYTE   W05
 BYTE   N03
 BYTE   W24
 BYTE   N21
 BYTE   W24
 BYTE   N03
 BYTE   W24
 BYTE   N05
 BYTE   W08
 BYTE   N05
 BYTE   W08
 BYTE   N05
 BYTE   W03
// 034   ----------------------------------------
 BYTE   W05
 BYTE   N03
 BYTE   W24
 BYTE   N21
 BYTE   W24
 BYTE   VOICE   10
 BYTE   PAN   c_v-44
 BYTE   VOL   32*FE04DoorwayToDestinyMonopolyRubix_mvl/mxv
 BYTE   N48  Dn5
 BYTE   W42
 BYTE   W01
// 035   ----------------------------------------
 BYTE   W05
 BYTE   N72  An5
 BYTE   W01
 BYTE   GoTo
  POIN2 Label_2_01411BCE
// 036   ----------------------------------------
 BYTE   W68
 BYTE   W03
 BYTE   N12  Gn5  v127
 BYTE   W12
 BYTE   Fn5
 BYTE   W07
 BYTE   W05
 BYTE   N24  En5
 BYTE   W24
// 037   ----------------------------------------
 BYTE   Cn5
 BYTE   W24
 BYTE   FINE

//**************** Track 4 (Midi-Chn.3) ****************//

FE04DoorwayToDestinyMonopolyRubix_004:
// 000   ----------------------------------------
 BYTE   KEYSH   FE04DoorwayToDestinyMonopolyRubix_key+0
 BYTE   MODT 0
 BYTE   LFOS 44
 BYTE   PAN   c_v+0
 BYTE   VOL   15*FE04DoorwayToDestinyMonopolyRubix_mvl/mxv
 BYTE   BENDR  12
 BYTE   MOD 0
 BYTE   BEND   c_v+0
 BYTE   W96
// 001   ----------------------------------------
 BYTE   W06
Label_3_545DAE:
 BYTE   PAN   c_v+0
 BYTE   VOL   15*FE04DoorwayToDestinyMonopolyRubix_mvl/mxv
 BYTE   W90
// 002   ----------------------------------------
 BYTE   W96
// 003   ----------------------------------------
 BYTE   W96
// 004   ----------------------------------------
 BYTE   W96
// 005   ----------------------------------------
 BYTE   W96
// 006   ----------------------------------------
 BYTE   W96
// 007   ----------------------------------------
 BYTE   W96
// 008   ----------------------------------------
 BYTE   W96
// 009   ----------------------------------------
 BYTE   W96
// 010   ----------------------------------------
 BYTE   W96
// 011   ----------------------------------------
 BYTE   W96
// 012   ----------------------------------------
 BYTE   W96
// 013   ----------------------------------------
 BYTE   W96
// 014   ----------------------------------------
 BYTE   W96
// 015   ----------------------------------------
 BYTE   W96
// 016   ----------------------------------------
 BYTE   W96
// 017   ----------------------------------------
 BYTE   W96
// 018   ----------------------------------------
 BYTE   W52
 BYTE   W01
 BYTE   VOICE   86
 BYTE   PAN   c_v+36
 BYTE   VOL   25*FE04DoorwayToDestinyMonopolyRubix_mvl/mxv
 BYTE   N03  Fs3  v127
 BYTE   W24
 BYTE   N21
 BYTE   W19
// 019   ----------------------------------------
 BYTE   W05
 BYTE   N03
 BYTE   W24
 BYTE   N21
 BYTE   W24
 BYTE   N03
 BYTE   W24
 BYTE   N21
 BYTE   W19
// 020   ----------------------------------------
 BYTE   W05
 BYTE   N03
 BYTE   W24
 BYTE   N21
 BYTE   W24
 BYTE   N03  Fn3
 BYTE   W24
 BYTE   N21
 BYTE   W19
// 021   ----------------------------------------
 BYTE   W05
 BYTE   N03
 BYTE   W24
 BYTE   N21
 BYTE   W24
 BYTE   N03
 BYTE   W24
 BYTE   N21
 BYTE   W19
// 022   ----------------------------------------
 BYTE   W05
 BYTE   N03
 BYTE   W24
 BYTE   N21
 BYTE   W24
 BYTE   N03  Ds3
 BYTE   W24
 BYTE   N05
 BYTE   W08
 BYTE   N05
 BYTE   W08
 BYTE   N05
 BYTE   W03
// 023   ----------------------------------------
 BYTE   W05
 BYTE   N03
 BYTE   W24
 BYTE   N05
 BYTE   W08
 BYTE   N05
 BYTE   W08
 BYTE   N05
 BYTE   W08
 BYTE   N03
 BYTE   W24
 BYTE   N05
 BYTE   W08
 BYTE   N05
 BYTE   W08
 BYTE   N05
 BYTE   W03
// 024   ----------------------------------------
 BYTE   W05
 BYTE   N03
 BYTE   W24
 BYTE   N21
 BYTE   W24
 BYTE   N03  Cs3
 BYTE   W24
 BYTE   N05
 BYTE   W08
 BYTE   N05
 BYTE   W08
 BYTE   N05
 BYTE   W03
// 025   ----------------------------------------
 BYTE   W05
 BYTE   N03
 BYTE   W24
 BYTE   N21
 BYTE   W24
 BYTE   N03
 BYTE   W24
 BYTE   N05
 BYTE   W08
 BYTE   N05
 BYTE   W08
 BYTE   N05
 BYTE   W03
// 026   ----------------------------------------
 BYTE   W05
 BYTE   N03
 BYTE   W24
 BYTE   N21
 BYTE   W24
 BYTE   N03  Bn2
 BYTE   W24
 BYTE   N05
 BYTE   W08
 BYTE   N05
 BYTE   W08
 BYTE   N05
 BYTE   W03
// 027   ----------------------------------------
 BYTE   W05
 BYTE   N03
 BYTE   W24
 BYTE   N21
 BYTE   W24
 BYTE   N03
 BYTE   W24
 BYTE   N05
 BYTE   W08
 BYTE   N05
 BYTE   W08
 BYTE   N05
 BYTE   W03
// 028   ----------------------------------------
 BYTE   W05
 BYTE   N03
 BYTE   W24
 BYTE   N21
 BYTE   W24
 BYTE   N03  As2
 BYTE   W24
 BYTE   N05
 BYTE   W08
 BYTE   N05
 BYTE   W08
 BYTE   N05
 BYTE   W03
// 029   ----------------------------------------
 BYTE   W05
 BYTE   N03
 BYTE   W24
 BYTE   N21
 BYTE   W24
 BYTE   N03
 BYTE   W24
 BYTE   N05
 BYTE   W08
 BYTE   N05
 BYTE   W08
 BYTE   N05
 BYTE   W03
// 030   ----------------------------------------
 BYTE   W05
 BYTE   N03
 BYTE   W24
 BYTE   N21
 BYTE   W24
 BYTE   N03  Gs2
 BYTE   W24
 BYTE   N05
 BYTE   W08
 BYTE   N05
 BYTE   W08
 BYTE   N05
 BYTE   W03
// 031   ----------------------------------------
 BYTE   W05
 BYTE   N03
 BYTE   W24
 BYTE   N21
 BYTE   W24
 BYTE   N03
 BYTE   W24
 BYTE   N05
 BYTE   W08
 BYTE   N05
 BYTE   W08
 BYTE   N05
 BYTE   W03
// 032   ----------------------------------------
 BYTE   W05
 BYTE   N03
 BYTE   W24
 BYTE   N21
 BYTE   W24
 BYTE   N03  Fs2
 BYTE   W24
 BYTE   N05
 BYTE   W08
 BYTE   N05
 BYTE   W08
 BYTE   N05
 BYTE   W03
// 033   ----------------------------------------
 BYTE   W05
 BYTE   N03
 BYTE   W24
 BYTE   N21
 BYTE   W24
 BYTE   N03
 BYTE   W24
 BYTE   N05
 BYTE   W08
 BYTE   N05
 BYTE   W08
 BYTE   N05
 BYTE   W03
// 034   ----------------------------------------
 BYTE   W05
 BYTE   N03
 BYTE   W24
 BYTE   N21
 BYTE   W66
 BYTE   W01
// 035   ----------------------------------------
 BYTE   W06
 BYTE   GoTo
  POIN2 Label_3_545DAE
// 036   ----------------------------------------
 BYTE   W90
 BYTE   W52
// 037   ----------------------------------------
 BYTE   W01
 BYTE   FINE

//**************** Track 5 (Midi-Chn.4) ****************//

FE04DoorwayToDestinyMonopolyRubix_005:
// 000   ----------------------------------------
 BYTE   KEYSH   FE04DoorwayToDestinyMonopolyRubix_key+0
 BYTE   MODT 0
 BYTE   LFOS 44
 BYTE   PAN   c_v+0
 BYTE   VOL   25*FE04DoorwayToDestinyMonopolyRubix_mvl/mxv
 BYTE   BENDR  12
 BYTE   MOD 0
 BYTE   BEND   c_v+0
 BYTE   W05
 BYTE   VOICE   81
 BYTE   PAN   c_v+6
 BYTE   VOL   64*FE04DoorwayToDestinyMonopolyRubix_mvl/mxv
 BYTE   W24
 BYTE   N24  Gn1  v108
 BYTE   W24
 BYTE   N12
 BYTE   W24
 BYTE   N24
 BYTE   W19
// 001   ----------------------------------------
 BYTE   W05
 BYTE   N12
 BYTE   W01
Label_4_01411D7F:
 BYTE   W23
 BYTE   N24  Gn1  v108
 BYTE   W24
 BYTE   N12
 BYTE   W24
 BYTE   N24
 BYTE   W19
// 002   ----------------------------------------
Label_4_01411D88:
 BYTE   W05
 BYTE   N12  Gn1  v108
 BYTE   W24
 BYTE   N24
 BYTE   W24
 BYTE   N12
 BYTE   W24
 BYTE   N24
 BYTE   W19
 BYTE   PEND 
// 003   ----------------------------------------
 BYTE   PATT
  POIN2 Label_4_01411D88
// 004   ----------------------------------------
 BYTE   W05
 BYTE   N12  Gn1  v108
 BYTE   W24
 BYTE   N24
 BYTE   W24
 BYTE   N12  Fn1
 BYTE   W24
 BYTE   N24
 BYTE   W19
// 005   ----------------------------------------
Label_4_01411DA5:
 BYTE   W05
 BYTE   N12  Fn1  v108
 BYTE   W24
 BYTE   N24
 BYTE   W24
 BYTE   N12
 BYTE   W24
 BYTE   N24
 BYTE   W19
 BYTE   PEND 
// 006   ----------------------------------------
 BYTE   PATT
  POIN2 Label_4_01411DA5
// 007   ----------------------------------------
 BYTE   PATT
  POIN2 Label_4_01411DA5
// 008   ----------------------------------------
 BYTE   W05
 BYTE   N12  Fn1  v108
 BYTE   W24
 BYTE   N24
 BYTE   W24
 BYTE   N12  Gn1
 BYTE   W24
 BYTE   N24
 BYTE   W19
// 009   ----------------------------------------
 BYTE   PATT
  POIN2 Label_4_01411D88
// 010   ----------------------------------------
 BYTE   PATT
  POIN2 Label_4_01411D88
// 011   ----------------------------------------
 BYTE   PATT
  POIN2 Label_4_01411D88
// 012   ----------------------------------------
 BYTE   W05
 BYTE   N12  Gn1  v108
 BYTE   W24
 BYTE   N24  Fn1
 BYTE   W24
 BYTE   N12  Ds1
 BYTE   W24
 BYTE   N24
 BYTE   W19
// 013   ----------------------------------------
Label_4_01411DE3:
 BYTE   W05
 BYTE   N12  Ds1  v108
 BYTE   W24
 BYTE   N24
 BYTE   W24
 BYTE   N12
 BYTE   W24
 BYTE   N24
 BYTE   W19
 BYTE   PEND 
// 014   ----------------------------------------
 BYTE   PATT
  POIN2 Label_4_01411DE3
// 015   ----------------------------------------
 BYTE   PATT
  POIN2 Label_4_01411DE3
// 016   ----------------------------------------
 BYTE   W05
 BYTE   N12  Ds1  v108
 BYTE   W24
 BYTE   N24  Cs1
 BYTE   W24
 BYTE   N12  Bn0
 BYTE   W24
 BYTE   N24
 BYTE   W19
// 017   ----------------------------------------
Label_4_01411E06:
 BYTE   W05
 BYTE   N12  Bn0  v108
 BYTE   W24
 BYTE   N24
 BYTE   W24
 BYTE   N12  As0
 BYTE   W24
 BYTE   N24
 BYTE   W19
 BYTE   PEND 
// 018   ----------------------------------------
 BYTE   W05
 BYTE   N12
 BYTE   W24
 BYTE   N24
 BYTE   W24
 BYTE   N12  Ds1
 BYTE   W24
 BYTE   N24
 BYTE   W19
// 019   ----------------------------------------
 BYTE   PATT
  POIN2 Label_4_01411DE3
// 020   ----------------------------------------
 BYTE   W05
 BYTE   N12  Ds1  v108
 BYTE   W24
 BYTE   N24
 BYTE   W24
 BYTE   N12  Cs1
 BYTE   W24
 BYTE   N24
 BYTE   W19
// 021   ----------------------------------------
 BYTE   W05
 BYTE   N12
 BYTE   W24
 BYTE   N24
 BYTE   W24
 BYTE   N12
 BYTE   W24
 BYTE   N24
 BYTE   W19
// 022   ----------------------------------------
 BYTE   W05
 BYTE   N12
 BYTE   W24
 BYTE   N24
 BYTE   W24
 BYTE   N12  Bn0
 BYTE   W24
 BYTE   N24
 BYTE   W19
// 023   ----------------------------------------
 BYTE   W05
 BYTE   N12
 BYTE   W24
 BYTE   N24
 BYTE   W24
 BYTE   N12
 BYTE   W24
 BYTE   N24
 BYTE   W19
// 024   ----------------------------------------
 BYTE   PATT
  POIN2 Label_4_01411E06
// 025   ----------------------------------------
 BYTE   W05
 BYTE   N12  As0  v108
 BYTE   W24
 BYTE   N24
 BYTE   W24
 BYTE   N12
 BYTE   W24
 BYTE   N24
 BYTE   W19
// 026   ----------------------------------------
 BYTE   W05
 BYTE   N12
 BYTE   W24
 BYTE   N24
 BYTE   W24
 BYTE   N12  Gs0
 BYTE   W24
 BYTE   N24
 BYTE   W19
// 027   ----------------------------------------
 BYTE   W05
 BYTE   N12
 BYTE   W24
 BYTE   N24
 BYTE   W24
 BYTE   N12
 BYTE   W24
 BYTE   N24
 BYTE   W19
// 028   ----------------------------------------
 BYTE   W05
 BYTE   N12
 BYTE   W24
 BYTE   N24
 BYTE   W24
 BYTE   N12  Fs0
 BYTE   W24
 BYTE   N24
 BYTE   W19
// 029   ----------------------------------------
 BYTE   W05
 BYTE   N12
 BYTE   W24
 BYTE   N24
 BYTE   W24
 BYTE   N12  Fn0
 BYTE   W24
 BYTE   N24
 BYTE   W19
// 030   ----------------------------------------
 BYTE   W05
 BYTE   N12
 BYTE   W24
 BYTE   N24
 BYTE   W24
 BYTE   N12  En0
 BYTE   W24
 BYTE   N24
 BYTE   W19
// 031   ----------------------------------------
 BYTE   W05
 BYTE   N12
 BYTE   W24
 BYTE   N24
 BYTE   W24
 BYTE   N12
 BYTE   W24
 BYTE   N24
 BYTE   W19
// 032   ----------------------------------------
 BYTE   W05
 BYTE   N12
 BYTE   W24
 BYTE   N24
 BYTE   W24
 BYTE   N12  Ds0
 BYTE   W24
 BYTE   N24
 BYTE   W19
// 033   ----------------------------------------
 BYTE   W05
 BYTE   N12
 BYTE   W24
 BYTE   N24
 BYTE   W24
 BYTE   N12
 BYTE   W24
 BYTE   N24
 BYTE   W19
// 034   ----------------------------------------
 BYTE   W05
 BYTE   N12
 BYTE   W24
 BYTE   N24
 BYTE   W24
 BYTE   N12  Gn1
 BYTE   W24
 BYTE   N24
 BYTE   W19
// 035   ----------------------------------------
 BYTE   W05
 BYTE   N12
 BYTE   W01
 BYTE   GoTo
  POIN2 Label_4_01411D7F
// 036   ----------------------------------------
 BYTE   W23
 BYTE   N24  Gn1  v108
 BYTE   W24
 BYTE   N12
 BYTE   W24
 BYTE   N24
 BYTE   W19
 BYTE   W05
 BYTE   N12
 BYTE   W24
// 037   ----------------------------------------
 BYTE   N24
 BYTE   W24
 BYTE   N12
 BYTE   W24
 BYTE   FINE

//**************** Track 6 (Midi-Chn.5) ****************//

FE04DoorwayToDestinyMonopolyRubix_006:
// 000   ----------------------------------------
 BYTE   KEYSH   FE04DoorwayToDestinyMonopolyRubix_key+0
 BYTE   MODT 0
 BYTE   LFOS 44
 BYTE   PAN   c_v+0
 BYTE   VOL   30*FE04DoorwayToDestinyMonopolyRubix_mvl/mxv
 BYTE   BENDR  12
 BYTE   MOD 0
 BYTE   BEND   c_v+0
 BYTE   W05
 BYTE   VOICE   127
 BYTE   VOL   42*FE04DoorwayToDestinyMonopolyRubix_mvl/mxv
 BYTE   N03  Dn1  v127
 BYTE   W24
 BYTE   N01
 BYTE   W03
 BYTE   N01
 BYTE   W03
 BYTE   Dn1  v084
 BYTE   W03
 BYTE   N01
 BYTE   W03
 BYTE   N01
 BYTE   W02
 BYTE   Dn1  v044
 BYTE   W03
 BYTE   N01
 BYTE   W02
 BYTE   N01
 BYTE   W03
 BYTE   N01
 BYTE   W02
 BYTE   N03  Dn1  v127
 BYTE   W24
 BYTE   N01
 BYTE   W08
 BYTE   N01
 BYTE   W08
 BYTE   N01
 BYTE   W03
// 001   ----------------------------------------
 BYTE   W05
 BYTE   N03
 BYTE   W01
Label_5_0141193E:
 BYTE   W23
 BYTE   N03  Dn1  v127
 BYTE   W24
 BYTE   N03
 BYTE   W24
 BYTE   N01
 BYTE   W08
 BYTE   N01
 BYTE   W08
 BYTE   N01
 BYTE   W03
// 002   ----------------------------------------
Label_5_0141194B:
 BYTE   W05
 BYTE   N03  Dn1  v127
 BYTE   W24
 BYTE   N01
 BYTE   W03
 BYTE   N01
 BYTE   W03
 BYTE   Dn1  v084
 BYTE   W03
 BYTE   N01
 BYTE   W03
 BYTE   N01
 BYTE   W02
 BYTE   Dn1  v044
 BYTE   W03
 BYTE   N01
 BYTE   W02
 BYTE   N01
 BYTE   W03
 BYTE   N01
 BYTE   W02
 BYTE   N03  Dn1  v127
 BYTE   W24
 BYTE   N01
 BYTE   W08
 BYTE   N01
 BYTE   W08
 BYTE   N01
 BYTE   W03
 BYTE   PEND 
// 003   ----------------------------------------
Label_5_0141196F:
 BYTE   W05
 BYTE   N03  Dn1  v127
 BYTE   W24
 BYTE   N03
 BYTE   W24
 BYTE   N03
 BYTE   W24
 BYTE   N01
 BYTE   W08
 BYTE   N01
 BYTE   W08
 BYTE   N01
 BYTE   W03
 BYTE   PEND 
// 004   ----------------------------------------
 BYTE   PATT
  POIN2 Label_5_0141194B
// 005   ----------------------------------------
 BYTE   PATT
  POIN2 Label_5_0141196F
// 006   ----------------------------------------
 BYTE   PATT
  POIN2 Label_5_0141194B
// 007   ----------------------------------------
 BYTE   PATT
  POIN2 Label_5_0141196F
// 008   ----------------------------------------
 BYTE   PATT
  POIN2 Label_5_0141194B
// 009   ----------------------------------------
 BYTE   PATT
  POIN2 Label_5_0141196F
// 010   ----------------------------------------
 BYTE   PATT
  POIN2 Label_5_0141194B
// 011   ----------------------------------------
 BYTE   PATT
  POIN2 Label_5_0141196F
// 012   ----------------------------------------
 BYTE   PATT
  POIN2 Label_5_0141194B
// 013   ----------------------------------------
 BYTE   PATT
  POIN2 Label_5_0141196F
// 014   ----------------------------------------
 BYTE   PATT
  POIN2 Label_5_0141194B
// 015   ----------------------------------------
 BYTE   PATT
  POIN2 Label_5_0141196F
// 016   ----------------------------------------
 BYTE   PATT
  POIN2 Label_5_0141194B
// 017   ----------------------------------------
 BYTE   PATT
  POIN2 Label_5_0141196F
// 018   ----------------------------------------
 BYTE   PATT
  POIN2 Label_5_0141194B
// 019   ----------------------------------------
 BYTE   PATT
  POIN2 Label_5_0141196F
// 020   ----------------------------------------
 BYTE   PATT
  POIN2 Label_5_0141194B
// 021   ----------------------------------------
 BYTE   PATT
  POIN2 Label_5_0141196F
// 022   ----------------------------------------
 BYTE   PATT
  POIN2 Label_5_0141194B
// 023   ----------------------------------------
 BYTE   PATT
  POIN2 Label_5_0141196F
// 024   ----------------------------------------
 BYTE   PATT
  POIN2 Label_5_0141194B
// 025   ----------------------------------------
 BYTE   PATT
  POIN2 Label_5_0141196F
// 026   ----------------------------------------
 BYTE   PATT
  POIN2 Label_5_0141194B
// 027   ----------------------------------------
 BYTE   PATT
  POIN2 Label_5_0141196F
// 028   ----------------------------------------
 BYTE   PATT
  POIN2 Label_5_0141194B
// 029   ----------------------------------------
 BYTE   PATT
  POIN2 Label_5_0141196F
// 030   ----------------------------------------
 BYTE   PATT
  POIN2 Label_5_0141194B
// 031   ----------------------------------------
 BYTE   PATT
  POIN2 Label_5_0141196F
// 032   ----------------------------------------
 BYTE   PATT
  POIN2 Label_5_0141194B
// 033   ----------------------------------------
 BYTE   PATT
  POIN2 Label_5_0141196F
// 034   ----------------------------------------
 BYTE   PATT
  POIN2 Label_5_0141194B
// 035   ----------------------------------------
 BYTE   W05
 BYTE   N03  Dn1  v127
 BYTE   W01
 BYTE   GoTo
  POIN2 Label_5_0141193E
// 036   ----------------------------------------
 BYTE   W23
 BYTE   N03  Dn1  v127
 BYTE   W24
 BYTE   N03
 BYTE   W24
 BYTE   N01
 BYTE   W08
 BYTE   N01
 BYTE   W08
 BYTE   N01
 BYTE   W03
 BYTE   W05
 BYTE   N03
 BYTE   W24
// 037   ----------------------------------------
 BYTE   N01
 BYTE   W03
 BYTE   N01
 BYTE   W03
 BYTE   Dn1  v084
 BYTE   W03
 BYTE   N01
 BYTE   W03
 BYTE   N01
 BYTE   W02
 BYTE   Dn1  v044
 BYTE   W03
 BYTE   N01
 BYTE   W02
 BYTE   N01
 BYTE   W03
 BYTE   N01
 BYTE   W02
 BYTE   N03  Dn1  v127
 BYTE   W24
 BYTE   N01
 BYTE   W08
 BYTE   N01
 BYTE   W08
 BYTE   N01
 BYTE   W01
 BYTE   FINE

//******************************************************//
	ALIGN 4

FE04DoorwayToDestinyMonopolyRubix:
	BYTE	6	// NumTrks
	BYTE	0	// NumBlks
	BYTE	FE04DoorwayToDestinyMonopolyRubix_pri	// Priority
	BYTE	FE04DoorwayToDestinyMonopolyRubix_rev	// Reverb.
    
	POIN2	FE04DoorwayToDestinyMonopolyRubix_grp
    
	POIN2	FE04DoorwayToDestinyMonopolyRubix_001
	POIN2	FE04DoorwayToDestinyMonopolyRubix_002
	POIN2	FE04DoorwayToDestinyMonopolyRubix_003
	POIN2	FE04DoorwayToDestinyMonopolyRubix_004
	POIN2	FE04DoorwayToDestinyMonopolyRubix_005
	POIN2	FE04DoorwayToDestinyMonopolyRubix_006

	
