//Event file generated from Sappy .s format.
	#include "MPlayDef.event"

	#define	FE04ArmyofThraciaSurfingKyogre_grp  voicegroup000
	#define	FE04ArmyofThraciaSurfingKyogre_pri  0
	#define	FE04ArmyofThraciaSurfingKyogre_rev  0
	#define	FE04ArmyofThraciaSurfingKyogre_mvl  127
	#define	FE04ArmyofThraciaSurfingKyogre_key  0
	#define	FE04ArmyofThraciaSurfingKyogre_tbs  1
	#define	FE04ArmyofThraciaSurfingKyogre_exg  0
	#define	FE04ArmyofThraciaSurfingKyogre_cmp  1

	// .rodata
	//	FE04ArmyofThraciaSurfingKyogre
	ALIGN 4


//**************** Track 1 (Midi-Chn.0) ****************//

FE04ArmyofThraciaSurfingKyogre_001:
// 000   ----------------------------------------
 BYTE   KEYSH   FE04ArmyofThraciaSurfingKyogre_key+0
 BYTE   TEMPO   140*FE04ArmyofThraciaSurfingKyogre_tbs/2
 BYTE   PAN   c_v+0
 BYTE   VOL   20*FE04ArmyofThraciaSurfingKyogre_mvl/mxv
 BYTE   MOD 0
 BYTE   CnM2
 BYTE   BEND   c_v+0
 BYTE   W96
// 001   ----------------------------------------
 BYTE   W96
// 002   ----------------------------------------
Label_0_016EB4D6:
 BYTE   VOICE   48
 BYTE   PAN   c_v+0
 BYTE   VOL   45*FE04ArmyofThraciaSurfingKyogre_mvl/mxv
 BYTE   W06
 BYTE   PEND 
Label_0_016EB4DE:
 BYTE   W06
 BYTE   N06  Fn4  v127
 BYTE   W12
 BYTE   N06
 BYTE   W12
 BYTE   N06
 BYTE   W24
 BYTE   En4
 BYTE   W12
 BYTE   N06
 BYTE   W12
 BYTE   N06
 BYTE   W12
// 003   ----------------------------------------
 BYTE   W12
 BYTE   Dn4
 BYTE   W12
 BYTE   N06
 BYTE   W12
 BYTE   N06
 BYTE   W24
 BYTE   Cs4
 BYTE   W12
 BYTE   Dn4
 BYTE   W12
 BYTE   En4
 BYTE   W12
// 004   ----------------------------------------
 BYTE   Dn4
 BYTE   W12
 BYTE   Cs4
 BYTE   W12
 BYTE   TIE  Dn4
 BYTE   W72
// 005   ----------------------------------------
 BYTE   W06
 BYTE   VOL   40*FE04ArmyofThraciaSurfingKyogre_mvl/mxv
 BYTE   W06
 BYTE   Gn2
 BYTE   W06
 BYTE   Dn2
 BYTE   W06
 BYTE   An1
 BYTE   W06
 BYTE   En1
 BYTE   W06
 BYTE   Bn0
 BYTE   W06
 BYTE   Fs0
 BYTE   W06
 BYTE   EOT
 BYTE   W48
// 006   ----------------------------------------
 BYTE   VOL   45*FE04ArmyofThraciaSurfingKyogre_mvl/mxv
 BYTE   W12
 BYTE   N06  Ds4
 BYTE   W12
 BYTE   N06
 BYTE   W12
 BYTE   N06
 BYTE   W24
 BYTE   Dn4
 BYTE   W12
 BYTE   N06
 BYTE   W12
 BYTE   N06
 BYTE   W12
// 007   ----------------------------------------
 BYTE   W12
 BYTE   Cn4
 BYTE   W12
 BYTE   N06
 BYTE   W12
 BYTE   N06
 BYTE   W24
 BYTE   Bn3
 BYTE   W12
 BYTE   Cn4
 BYTE   W12
 BYTE   Dn4
 BYTE   W12
// 008   ----------------------------------------
 BYTE   Cn4
 BYTE   W12
 BYTE   Bn3
 BYTE   W12
 BYTE   N72  Cn4
 BYTE   W72
// 009   ----------------------------------------
 BYTE   W24
 BYTE   N21
 BYTE   W24
 BYTE   Fn4
 BYTE   W24
 BYTE   Cn4
 BYTE   W24
// 010   ----------------------------------------
 BYTE   W12
 BYTE   N06  Ds4
 BYTE   W12
 BYTE   N06
 BYTE   W12
 BYTE   N06
 BYTE   W24
 BYTE   Cs4
 BYTE   W12
 BYTE   N06
 BYTE   W12
 BYTE   N06
 BYTE   W12
// 011   ----------------------------------------
 BYTE   W12
 BYTE   Cn4
 BYTE   W12
 BYTE   N06
 BYTE   W12
 BYTE   N06
 BYTE   W12
 BYTE   N10  Cs4
 BYTE   W12
 BYTE   Cn4
 BYTE   W12
 BYTE   N06  Cs4
 BYTE   W12
 BYTE   Ds4
 BYTE   W12
// 012   ----------------------------------------
 BYTE   N06
 BYTE   W12
 BYTE   N06
 BYTE   W24
 BYTE   Cs4
 BYTE   W12
 BYTE   N06
 BYTE   W24
 BYTE   Cn4
 BYTE   W12
 BYTE   N06
 BYTE   W12
// 013   ----------------------------------------
 BYTE   W12
 BYTE   Cs4
 BYTE   W12
 BYTE   N06
 BYTE   W24
 BYTE   N10  Ds4
 BYTE   W12
 BYTE   Cs4
 BYTE   W12
 BYTE   Ds4
 BYTE   W12
 BYTE   Cs4
 BYTE   W12
// 014   ----------------------------------------
 BYTE   N60  Dn4
 BYTE   W96
// 015   ----------------------------------------
 BYTE   W48
 BYTE   N10  Cn4
 BYTE   W24
 BYTE   Cs4
 BYTE   W24
// 016   ----------------------------------------
 BYTE   PAN   c_v+16
 BYTE   N12  Ds4
 BYTE   W36
 BYTE   PAN   c_v-44
 BYTE   N12  Fn4
 BYTE   W36
 BYTE   PAN   c_v+16
 BYTE   N12  Ds4
 BYTE   W24
// 017   ----------------------------------------
 BYTE   W12
 BYTE   PAN   c_v-44
 BYTE   N12  Fn4
 BYTE   W36
 BYTE   PAN   c_v+0
 BYTE   N06  Ds4
 BYTE   W24
 BYTE   Fn4
 BYTE   W24
// 018   ----------------------------------------
Label_0_016EB59C:
 BYTE   PAN   c_v-44
 BYTE   N12  Ds4  v127
 BYTE   W36
 BYTE   PAN   c_v+16
 BYTE   N12  Fn4
 BYTE   W36
 BYTE   PAN   c_v-44
 BYTE   N12  Ds4
 BYTE   W24
 BYTE   PEND 
// 019   ----------------------------------------
 BYTE   W12
 BYTE   PAN   c_v+16
 BYTE   N12  Fn4
 BYTE   W36
 BYTE   PAN   c_v-24
 BYTE   N06  Ds4
 BYTE   W24
 BYTE   Fn4
 BYTE   W24
 BYTE   PATT
  POIN2 Label_0_016EB59C
// 020   ----------------------------------------
 BYTE   W12
 BYTE   PAN   c_v+16
 BYTE   N12  Fn4  v127
 BYTE   W36
 BYTE   PAN   c_v-44
 BYTE   N06  Ds4
 BYTE   W12
 BYTE   N06
 BYTE   W12
 BYTE   PAN   c_v+16
 BYTE   N06  Fn4
 BYTE   W12
 BYTE   PAN   c_v-44
 BYTE   N06  Ds4
 BYTE   W12
 BYTE   PATT
  POIN2 Label_0_016EB59C
// 021   ----------------------------------------
 BYTE   W12
 BYTE   PAN   c_v+16
 BYTE   N12  Fn4  v127
 BYTE   W36
 BYTE   PAN   c_v-44
 BYTE   N06  Ds4
 BYTE   W24
 BYTE   PAN   c_v+0
 BYTE   N06  Cs4
 BYTE   W24
// 022   ----------------------------------------
 BYTE   N60  Cn4
 BYTE   W96
// 023   ----------------------------------------
 BYTE   W96
 BYTE   PATT
  POIN2 Label_0_016EB4D6
// 024   ----------------------------------------
 BYTE   GoTo
  POIN2 Label_0_016EB4DE
 BYTE   FINE

//**************** Track 2 (Midi-Chn.1) ****************//

FE04ArmyofThraciaSurfingKyogre_002:
// 000   ----------------------------------------
 BYTE   KEYSH   FE04ArmyofThraciaSurfingKyogre_key+0
 BYTE   PAN   c_v+0
 BYTE   VOL   20*FE04ArmyofThraciaSurfingKyogre_mvl/mxv
 BYTE   MOD 0
 BYTE   CnM2
 BYTE   BEND   c_v+0
 BYTE   W96
// 001   ----------------------------------------
 BYTE   W96
// 002   ----------------------------------------
Label_1_016EB608:
 BYTE   VOICE   48
 BYTE   PAN   c_v+0
 BYTE   VOL   40*FE04ArmyofThraciaSurfingKyogre_mvl/mxv
 BYTE   W06
 BYTE   PEND 
Label_1_016EB610:
 BYTE   W06
 BYTE   N06  As3  v127
 BYTE   W12
 BYTE   N06
 BYTE   W12
 BYTE   N06
 BYTE   W24
 BYTE   N06
 BYTE   W12
 BYTE   N06
 BYTE   W12
 BYTE   N06
 BYTE   W12
// 003   ----------------------------------------
 BYTE   W12
 BYTE   N06
 BYTE   W12
 BYTE   N06
 BYTE   W12
 BYTE   N06
 BYTE   W24
 BYTE   N06
 BYTE   W12
 BYTE   N06
 BYTE   W12
 BYTE   N06
 BYTE   W12
// 004   ----------------------------------------
 BYTE   N06
 BYTE   W12
 BYTE   N06
 BYTE   W12
 BYTE   TIE
 BYTE   W72
// 005   ----------------------------------------
 BYTE   W06
 BYTE   VOL   35*FE04ArmyofThraciaSurfingKyogre_mvl/mxv
 BYTE   W06
 BYTE   Dn2
 BYTE   W06
 BYTE   An1
 BYTE   W06
 BYTE   En1
 BYTE   W06
 BYTE   Bn0
 BYTE   W06
 BYTE   Fs0
 BYTE   W06
 BYTE   Cs0
 BYTE   W06
 BYTE   EOT
 BYTE   W48
// 006   ----------------------------------------
 BYTE   VOL   40*FE04ArmyofThraciaSurfingKyogre_mvl/mxv
 BYTE   W12
 BYTE   N06  Gs3
 BYTE   W12
 BYTE   N06
 BYTE   W12
 BYTE   N06
 BYTE   W24
 BYTE   N06
 BYTE   W12
 BYTE   N06
 BYTE   W12
 BYTE   N06
 BYTE   W12
// 007   ----------------------------------------
Label_1_016EB654:
 BYTE   W12
 BYTE   N06  Gs3  v127
 BYTE   W12
 BYTE   N06
 BYTE   W12
 BYTE   N06
 BYTE   W24
 BYTE   N06
 BYTE   W12
 BYTE   N06
 BYTE   W12
 BYTE   N06
 BYTE   W12
 BYTE   PEND 
// 008   ----------------------------------------
 BYTE   N06
 BYTE   W12
 BYTE   N06
 BYTE   W12
 BYTE   N72
 BYTE   W72
// 009   ----------------------------------------
 BYTE   N24  As3
 BYTE   W03
 BYTE   VOL   35*FE04ArmyofThraciaSurfingKyogre_mvl/mxv
 BYTE   W03
 BYTE   Dn2
 BYTE   W03
 BYTE   An1
 BYTE   W03
 BYTE   En1
 BYTE   W03
 BYTE   Bn0
 BYTE   W03
 BYTE   Fs0
 BYTE   W03
 BYTE   Cs0
 BYTE   W03
 BYTE   Fn3
 BYTE   N24  Gs3
 BYTE   W24
 BYTE   Cn4
 BYTE   W24
 BYTE   Gs3
 BYTE   W24
 BYTE   PATT
  POIN2 Label_1_016EB654
// 010   ----------------------------------------
 BYTE   W12
 BYTE   N06  Gs3  v127
 BYTE   W12
 BYTE   N06
 BYTE   W12
 BYTE   N06
 BYTE   W12
 BYTE   N10
 BYTE   W12
 BYTE   Gn3
 BYTE   W12
 BYTE   N06  Gs3
 BYTE   W12
 BYTE   N06
 BYTE   W12
// 011   ----------------------------------------
 BYTE   N06
 BYTE   W12
 BYTE   N06
 BYTE   W24
 BYTE   N06
 BYTE   W12
 BYTE   N06
 BYTE   W24
 BYTE   N06
 BYTE   W12
 BYTE   N06
 BYTE   W12
// 012   ----------------------------------------
 BYTE   W12
 BYTE   N06
 BYTE   W12
 BYTE   N06
 BYTE   W24
 BYTE   N10
 BYTE   W12
 BYTE   N10
 BYTE   W12
 BYTE   N10
 BYTE   W12
 BYTE   N10
 BYTE   W12
// 013   ----------------------------------------
 BYTE   N60  Gn3
 BYTE   W96
// 014   ----------------------------------------
 BYTE   W96
// 015   ----------------------------------------
 BYTE   W96
// 016   ----------------------------------------
 BYTE   W96
// 017   ----------------------------------------
 BYTE   W96
// 018   ----------------------------------------
 BYTE   W96
// 019   ----------------------------------------
 BYTE   W96
// 020   ----------------------------------------
 BYTE   W96
// 021   ----------------------------------------
 BYTE   W96
// 022   ----------------------------------------
 BYTE   W96
// 023   ----------------------------------------
 BYTE   W96
// 024   ----------------------------------------
 BYTE   W96
 BYTE   PATT
  POIN2 Label_1_016EB608
// 025   ----------------------------------------
 BYTE   GoTo
  POIN2 Label_1_016EB610
 BYTE   FINE

//**************** Track 3 (Midi-Chn.2) ****************//

FE04ArmyofThraciaSurfingKyogre_003:
// 000   ----------------------------------------
 BYTE   KEYSH   FE04ArmyofThraciaSurfingKyogre_key+0
 BYTE   VOICE   68
 BYTE   PAN   c_v+0
 BYTE   VOL   20*FE04ArmyofThraciaSurfingKyogre_mvl/mxv
 BYTE   MOD 0
 BYTE   CnM2
 BYTE   PAN   c_v-64
 BYTE   VOL   35*FE04ArmyofThraciaSurfingKyogre_mvl/mxv
 BYTE   BEND   c_v+0
 BYTE   N06  Gn1  v127
 BYTE   W12
 BYTE   PAN   c_v+63
 BYTE   N06  Dn2
 BYTE   W24
 BYTE   N06
 BYTE   W12
 BYTE   PAN   c_v-64
 BYTE   N06  Gn1
 BYTE   W12
 BYTE   PAN   c_v+63
 BYTE   N06  Dn2
 BYTE   W24
 BYTE   N06
 BYTE   W12
// 001   ----------------------------------------
Label_2_016EC42B:
 BYTE   PAN   c_v-64
 BYTE   N06  Gn1  v127
 BYTE   W12
 BYTE   PAN   c_v+63
 BYTE   N06  Dn2
 BYTE   W24
 BYTE   N06
 BYTE   W12
 BYTE   PAN   c_v-64
 BYTE   N06  Gn1
 BYTE   W12
 BYTE   PAN   c_v+63
 BYTE   N06  Dn2
 BYTE   W24
 BYTE   N06
 BYTE   W12
 BYTE   PEND 
// 002   ----------------------------------------
Label_2_016EC445:
 BYTE   VOICE   68
 BYTE   PAN   c_v-64
 BYTE   VOL   35*FE04ArmyofThraciaSurfingKyogre_mvl/mxv
 BYTE   N06  Gn1  v127
 BYTE   W06
 BYTE   PEND 
Label_2_016EC450:
 BYTE   W06
 BYTE   PAN   c_v+63
 BYTE   N06  Dn2  v127
 BYTE   W24
 BYTE   N06
 BYTE   W12
 BYTE   PAN   c_v-64
 BYTE   N06  Gn1
 BYTE   W12
 BYTE   PAN   c_v+63
 BYTE   N06  Dn2
 BYTE   W24
 BYTE   N06
 BYTE   W12
 BYTE   PATT
  POIN2 Label_2_016EC42B
 BYTE   PATT
  POIN2 Label_2_016EC42B
 BYTE   PATT
  POIN2 Label_2_016EC42B
// 003   ----------------------------------------
Label_2_016EC474:
 BYTE   PAN   c_v-64
 BYTE   N06  Fn1  v127
 BYTE   W12
 BYTE   PAN   c_v+63
 BYTE   N06  Cn2
 BYTE   W24
 BYTE   N06
 BYTE   W12
 BYTE   PAN   c_v-64
 BYTE   N06  Fn1
 BYTE   W12
 BYTE   PAN   c_v+63
 BYTE   N06  Cn2
 BYTE   W24
 BYTE   N06
 BYTE   W12
 BYTE   PEND 
 BYTE   PATT
  POIN2 Label_2_016EC474
 BYTE   PATT
  POIN2 Label_2_016EC474
 BYTE   PATT
  POIN2 Label_2_016EC474
// 004   ----------------------------------------
Label_2_016EC49D:
 BYTE   PAN   c_v-64
 BYTE   N12  Cs2  v127
 BYTE   W36
 BYTE   N12
 BYTE   W36
 BYTE   N12
 BYTE   W24
 BYTE   PEND 
// 005   ----------------------------------------
Label_2_016EC4A8:
 BYTE   W12
 BYTE   N12  Cs2  v127
 BYTE   W36
 BYTE   N12
 BYTE   W36
 BYTE   N06
 BYTE   W12
 BYTE   PEND 
 BYTE   PATT
  POIN2 Label_2_016EC49D
 BYTE   PATT
  POIN2 Label_2_016EC4A8
// 006   ----------------------------------------
 BYTE   N06  Cn2  v127
 BYTE   W36
 BYTE   N06
 BYTE   W36
 BYTE   N06
 BYTE   W24
// 007   ----------------------------------------
 BYTE   N06
 BYTE   W12
 BYTE   N06
 BYTE   W24
 BYTE   N06
 BYTE   W36
 BYTE   N06
 BYTE   W24
// 008   ----------------------------------------
 BYTE   VOICE   48
 BYTE   PAN   c_v-54
 BYTE   VOL   45*FE04ArmyofThraciaSurfingKyogre_mvl/mxv
 BYTE   N06  Cs3
 BYTE   W36
 BYTE   Gs3
 BYTE   W36
 BYTE   Cs3
 BYTE   W24
// 009   ----------------------------------------
 BYTE   N06
 BYTE   W12
 BYTE   N12  As3
 BYTE   W24
 BYTE   N06  Cs3
 BYTE   W36
 BYTE   N06
 BYTE   W24
// 010   ----------------------------------------
 BYTE   W12
 BYTE   Cn3
 BYTE   W24
 BYTE   N06
 BYTE   W12
 BYTE   N06
 BYTE   W12
 BYTE   N06
 BYTE   W12
 BYTE   Gs3
 BYTE   W12
 BYTE   Cn3
 BYTE   W12
// 011   ----------------------------------------
 BYTE   N06
 BYTE   W12
 BYTE   As3
 BYTE   W12
 BYTE   Cn3
 BYTE   W12
 BYTE   N06
 BYTE   W12
 BYTE   Gs3
 BYTE   W12
 BYTE   Cn3
 BYTE   W12
 BYTE   As3
 BYTE   W12
 BYTE   Cn3
 BYTE   W12
// 012   ----------------------------------------
 BYTE   Cs3
 BYTE   W36
 BYTE   N06
 BYTE   W36
 BYTE   N06
 BYTE   W24
// 013   ----------------------------------------
 BYTE   N06
 BYTE   W12
 BYTE   N12  As3
 BYTE   W24
 BYTE   N06  Cs3
 BYTE   W24
 BYTE   Gs3
 BYTE   W12
 BYTE   Fn3
 BYTE   W12
 BYTE   Gs3
 BYTE   W12
// 014   ----------------------------------------
 BYTE   N06
 BYTE   W12
 BYTE   N12  Cn3
 BYTE   W24
 BYTE   N06
 BYTE   W12
 BYTE   N06
 BYTE   W12
 BYTE   N06
 BYTE   W12
 BYTE   Gs3
 BYTE   W12
 BYTE   Cn3
 BYTE   W12
// 015   ----------------------------------------
 BYTE   N06
 BYTE   W12
 BYTE   Gs3
 BYTE   W36
 BYTE   Cn3
 BYTE   W12
 BYTE   N06
 BYTE   W12
 BYTE   N06
 BYTE   W24
// 016   ----------------------------------------
 BYTE   VOICE   68
 BYTE   PAN   c_v-44
 BYTE   VOL   35*FE04ArmyofThraciaSurfingKyogre_mvl/mxv
 BYTE   N06  As1
 BYTE   W12
 BYTE   Fn2
 BYTE   W12
 BYTE   PAN   c_v+26
 BYTE   N06  As2
 BYTE   W12
 BYTE   PAN   c_v-44
 BYTE   N06  Fn2
 BYTE   W12
 BYTE   PAN   c_v-44
 BYTE   N06  As1
 BYTE   W12
 BYTE   Fn2
 BYTE   W12
 BYTE   PAN   c_v+26
 BYTE   N06  As2
 BYTE   W12
 BYTE   PAN   c_v-44
 BYTE   N06  Fn2
 BYTE   W12
// 017   ----------------------------------------
 BYTE   PAN   c_v-44
 BYTE   N06  As1
 BYTE   W12
 BYTE   Fn2
 BYTE   W12
 BYTE   PAN   c_v+26
 BYTE   N06  As2
 BYTE   W12
 BYTE   PAN   c_v-44
 BYTE   N06  Fn2
 BYTE   W12
 BYTE   PAN   c_v-44
 BYTE   N06  As1
 BYTE   W12
 BYTE   Fn2
 BYTE   W12
 BYTE   PAN   c_v+26
 BYTE   N06  As2
 BYTE   W12
 BYTE   PAN   c_v-44
 BYTE   N06  Fn2
 BYTE   W12
 BYTE   PATT
  POIN2 Label_2_016EC445
// 018   ----------------------------------------
 BYTE   GoTo
  POIN2 Label_2_016EC450
 BYTE   FINE

//**************** Track 4 (Midi-Chn.3) ****************//

FE04ArmyofThraciaSurfingKyogre_004:
// 000   ----------------------------------------
 BYTE   KEYSH   FE04ArmyofThraciaSurfingKyogre_key+0
 BYTE   PAN   c_v+0
 BYTE   VOL   20*FE04ArmyofThraciaSurfingKyogre_mvl/mxv
 BYTE   MOD 0
 BYTE   CnM2
 BYTE   BEND   c_v+0
 BYTE   W96
// 001   ----------------------------------------
 BYTE   W96
// 002   ----------------------------------------
Label_3_016EC58C:
 BYTE   VOICE   10
 BYTE   PAN   c_v-24
 BYTE   VOL   40*FE04ArmyofThraciaSurfingKyogre_mvl/mxv
 BYTE   W06
 BYTE   PEND 
Label_3_016EC594:
 BYTE   W06
 BYTE   N06  Fn4  v127
 BYTE   W12
 BYTE   N06
 BYTE   W12
 BYTE   N06
 BYTE   W24
 BYTE   En4
 BYTE   W12
 BYTE   N06
 BYTE   W12
 BYTE   N06
 BYTE   W12
// 003   ----------------------------------------
 BYTE   W12
 BYTE   Dn4
 BYTE   W12
 BYTE   N06
 BYTE   W12
 BYTE   N06
 BYTE   W24
 BYTE   Cs4
 BYTE   W12
 BYTE   Dn4
 BYTE   W12
 BYTE   En4
 BYTE   W12
// 004   ----------------------------------------
 BYTE   Dn4
 BYTE   W12
 BYTE   Cs4
 BYTE   W12
 BYTE   N72  Dn4
 BYTE   W72
// 005   ----------------------------------------
 BYTE   VOICE   13
 BYTE   PAN   c_v+26
 BYTE   VOL   35*FE04ArmyofThraciaSurfingKyogre_mvl/mxv
 BYTE   W12
 BYTE   N12  Fn3
 BYTE   W12
 BYTE   N12
 BYTE   W12
 BYTE   PAN   c_v+11
 BYTE   N12  En3
 BYTE   W12
 BYTE   Dn3
 BYTE   W12
 BYTE   PAN   c_v-4
 BYTE   N12  Cs3
 BYTE   W12
 BYTE   PAN   c_v-19
 BYTE   N04  Dn3
 BYTE   W04
 BYTE   N04
 BYTE   W04
 BYTE   N04
 BYTE   W04
 BYTE   N04
 BYTE   W04
 BYTE   N04
 BYTE   W04
 BYTE   N04
 BYTE   W04
// 006   ----------------------------------------
 BYTE   VOICE   10
 BYTE   PAN   c_v-24
 BYTE   VOL   40*FE04ArmyofThraciaSurfingKyogre_mvl/mxv
 BYTE   W12
 BYTE   N06  Ds4
 BYTE   W12
 BYTE   N06
 BYTE   W12
 BYTE   N06
 BYTE   W24
 BYTE   Dn4
 BYTE   W12
 BYTE   N06
 BYTE   W12
 BYTE   N06
 BYTE   W12
// 007   ----------------------------------------
 BYTE   W12
 BYTE   Cn4
 BYTE   W12
 BYTE   N06
 BYTE   W12
 BYTE   N06
 BYTE   W24
 BYTE   Bn3
 BYTE   W12
 BYTE   Cn4
 BYTE   W12
 BYTE   Dn4
 BYTE   W12
// 008   ----------------------------------------
 BYTE   Cn4
 BYTE   W12
 BYTE   Bn3
 BYTE   W12
 BYTE   N72  Cn4
 BYTE   W72
// 009   ----------------------------------------
 BYTE   VOICE   13
 BYTE   VOL   35*FE04ArmyofThraciaSurfingKyogre_mvl/mxv
 BYTE   W24
 BYTE   PAN   c_v-34
 BYTE   N04  Cn3
 BYTE   W04
 BYTE   N04
 BYTE   W04
 BYTE   Cn3  v108
 BYTE   W04
 BYTE   N04
 BYTE   W04
 BYTE   Cn3  v088
 BYTE   W04
 BYTE   N04
 BYTE   W04
 BYTE   PAN   c_v+26
 BYTE   N04  Fn3  v127
 BYTE   W04
 BYTE   N04
 BYTE   W04
 BYTE   Fn3  v108
 BYTE   W04
 BYTE   N04
 BYTE   W04
 BYTE   Fn3  v088
 BYTE   W04
 BYTE   N04
 BYTE   W04
 BYTE   PAN   c_v-34
 BYTE   N04  Cn3  v127
 BYTE   W04
 BYTE   N04
 BYTE   W04
 BYTE   Cn3  v108
 BYTE   W04
 BYTE   N04
 BYTE   W04
 BYTE   Cn3  v088
 BYTE   W04
 BYTE   N04
 BYTE   W04
// 010   ----------------------------------------
 BYTE   VOICE   10
 BYTE   PAN   c_v-24
 BYTE   VOL   40*FE04ArmyofThraciaSurfingKyogre_mvl/mxv
 BYTE   W12
 BYTE   N06  Ds4  v127
 BYTE   W12
 BYTE   N06
 BYTE   W12
 BYTE   N06
 BYTE   W24
 BYTE   Cs4
 BYTE   W12
 BYTE   N06
 BYTE   W12
 BYTE   N06
 BYTE   W12
// 011   ----------------------------------------
 BYTE   W12
 BYTE   Cn4
 BYTE   W12
 BYTE   N06
 BYTE   W12
 BYTE   N06
 BYTE   W12
 BYTE   N10  Cs4
 BYTE   W12
 BYTE   Cn4
 BYTE   W12
 BYTE   N06  Cs4
 BYTE   W12
 BYTE   Ds4
 BYTE   W12
// 012   ----------------------------------------
 BYTE   N06
 BYTE   W12
 BYTE   N06
 BYTE   W24
 BYTE   Cs4
 BYTE   W12
 BYTE   N06
 BYTE   W24
 BYTE   Cn4
 BYTE   W12
 BYTE   N06
 BYTE   W12
// 013   ----------------------------------------
 BYTE   W12
 BYTE   Cs4
 BYTE   W12
 BYTE   N06
 BYTE   W24
 BYTE   N10  Ds4
 BYTE   W12
 BYTE   Cs4
 BYTE   W12
 BYTE   Ds4
 BYTE   W12
 BYTE   Cs4
 BYTE   W12
// 014   ----------------------------------------
 BYTE   N84  Dn4
 BYTE   W96
// 015   ----------------------------------------
 BYTE   VOICE   13
 BYTE   PAN   c_v-44
 BYTE   VOL   35*FE04ArmyofThraciaSurfingKyogre_mvl/mxv
 BYTE   N10  Dn3
 BYTE   W12
 BYTE   N10
 BYTE   W24
 BYTE   N10
 BYTE   W24
 BYTE   N10
 BYTE   W12
 BYTE   Cs3
 BYTE   W12
 BYTE   Dn3
 BYTE   W12
// 016   ----------------------------------------
 BYTE   VOICE   48
 BYTE   PAN   c_v+36
 BYTE   VOL   45*FE04ArmyofThraciaSurfingKyogre_mvl/mxv
 BYTE   N12  Gs3
 BYTE   W60
 BYTE   N06  Cs3
 BYTE   W12
 BYTE   N12  Gs3
 BYTE   W24
// 017   ----------------------------------------
Label_3_016EC6A5:
 BYTE   N06  Fs3  v127
 BYTE   W12
 BYTE   N06
 BYTE   W24
 BYTE   N06
 BYTE   W24
 BYTE   Cs3
 BYTE   W12
 BYTE   Fs3
 BYTE   W24
 BYTE   PEND 
// 018   ----------------------------------------
Label_3_016EC6B2:
 BYTE   N06  Fn3  v127
 BYTE   W12
 BYTE   N06
 BYTE   W12
 BYTE   Cn3
 BYTE   W12
 BYTE   Fn3
 BYTE   W12
 BYTE   N06
 BYTE   W12
 BYTE   N06
 BYTE   W12
 BYTE   Cn3
 BYTE   W12
 BYTE   Fn3
 BYTE   W12
 BYTE   PEND 
 BYTE   PATT
  POIN2 Label_3_016EC6B2
// 019   ----------------------------------------
 BYTE   N12  Gs3  v127
 BYTE   W60
 BYTE   N06  Cs3
 BYTE   W12
 BYTE   N12  Gs3
 BYTE   W24
 BYTE   PATT
  POIN2 Label_3_016EC6A5
 BYTE   PATT
  POIN2 Label_3_016EC6B2
// 020   ----------------------------------------
 BYTE   N06  Fn3  v127
 BYTE   W12
 BYTE   N06
 BYTE   W24
 BYTE   Cn3
 BYTE   W12
 BYTE   Fn3
 BYTE   W12
 BYTE   N06
 BYTE   W12
 BYTE   N06
 BYTE   W24
// 021   ----------------------------------------
 BYTE   N60
 BYTE   W96
// 022   ----------------------------------------
 BYTE   W96
 BYTE   PATT
  POIN2 Label_3_016EC58C
// 023   ----------------------------------------
 BYTE   GoTo
  POIN2 Label_3_016EC594
 BYTE   FINE

//**************** Track 5 (Midi-Chn.4) ****************//

FE04ArmyofThraciaSurfingKyogre_005:
// 000   ----------------------------------------
 BYTE   KEYSH   FE04ArmyofThraciaSurfingKyogre_key+0
 BYTE   PAN   c_v+0
 BYTE   VOL   20*FE04ArmyofThraciaSurfingKyogre_mvl/mxv
 BYTE   MOD 0
 BYTE   CnM2
 BYTE   BEND   c_v+0
 BYTE   W96
// 001   ----------------------------------------
 BYTE   W96
// 002   ----------------------------------------
Label_4_551028:
 BYTE   VOICE   71
 BYTE   PAN   c_v-24
 BYTE   VOL   40*FE04ArmyofThraciaSurfingKyogre_mvl/mxv
 BYTE   W06
 BYTE   PEND 
Label_4_551030:
 BYTE   W06
 BYTE   N06  Fn3  v127
 BYTE   W12
 BYTE   N06
 BYTE   W12
 BYTE   N06
 BYTE   W24
 BYTE   En3
 BYTE   W12
 BYTE   N06
 BYTE   W12
 BYTE   N06
 BYTE   W12
// 003   ----------------------------------------
 BYTE   W12
 BYTE   Dn3
 BYTE   W12
 BYTE   N06
 BYTE   W12
 BYTE   N06
 BYTE   W24
 BYTE   Cs3
 BYTE   W12
 BYTE   Dn3
 BYTE   W12
 BYTE   En3
 BYTE   W12
// 004   ----------------------------------------
 BYTE   Dn3
 BYTE   W12
 BYTE   Cs3
 BYTE   W12
 BYTE   N72  Dn3
 BYTE   W72
// 005   ----------------------------------------
 BYTE   VOICE   13
 BYTE   PAN   c_v+26
 BYTE   VOL   40*FE04ArmyofThraciaSurfingKyogre_mvl/mxv
 BYTE   W12
 BYTE   N12  As2
 BYTE   W12
 BYTE   N12
 BYTE   W12
 BYTE   PAN   c_v+11
 BYTE   N12
 BYTE   W12
 BYTE   N12
 BYTE   W12
 BYTE   PAN   c_v-4
 BYTE   N12
 BYTE   W12
 BYTE   PAN   c_v-19
 BYTE   N04
 BYTE   W04
 BYTE   N04
 BYTE   W04
 BYTE   N04
 BYTE   W04
 BYTE   N04
 BYTE   W04
 BYTE   N04
 BYTE   W04
 BYTE   N04
 BYTE   W04
// 006   ----------------------------------------
 BYTE   VOICE   71
 BYTE   PAN   c_v-24
 BYTE   VOL   40*FE04ArmyofThraciaSurfingKyogre_mvl/mxv
 BYTE   W12
 BYTE   N06  Ds3
 BYTE   W12
 BYTE   N06
 BYTE   W12
 BYTE   N06
 BYTE   W24
 BYTE   Dn3
 BYTE   W12
 BYTE   N06
 BYTE   W12
 BYTE   N06
 BYTE   W12
// 007   ----------------------------------------
 BYTE   W12
 BYTE   Cn3
 BYTE   W12
 BYTE   N06
 BYTE   W12
 BYTE   N06
 BYTE   W24
 BYTE   Bn2
 BYTE   W12
 BYTE   Cn3
 BYTE   W12
 BYTE   Dn3
 BYTE   W12
// 008   ----------------------------------------
 BYTE   Cn3
 BYTE   W12
 BYTE   Bn2
 BYTE   W12
 BYTE   N72  Cn3
 BYTE   W72
// 009   ----------------------------------------
 BYTE   VOICE   13
 BYTE   VOL   40*FE04ArmyofThraciaSurfingKyogre_mvl/mxv
 BYTE   W24
 BYTE   PAN   c_v-34
 BYTE   N04  Gs2
 BYTE   W04
 BYTE   N04
 BYTE   W04
 BYTE   Gs2  v108
 BYTE   W04
 BYTE   N04
 BYTE   W04
 BYTE   Gs2  v088
 BYTE   W04
 BYTE   N04
 BYTE   W04
 BYTE   PAN   c_v+26
 BYTE   N04  Cn3  v127
 BYTE   W04
 BYTE   N04
 BYTE   W04
 BYTE   Cn3  v108
 BYTE   W04
 BYTE   N04
 BYTE   W04
 BYTE   Cn3  v088
 BYTE   W04
 BYTE   N04
 BYTE   W04
 BYTE   PAN   c_v-34
 BYTE   N04  Gs2  v127
 BYTE   W04
 BYTE   N04
 BYTE   W04
 BYTE   Gs2  v108
 BYTE   W04
 BYTE   N04
 BYTE   W04
 BYTE   Gs2  v088
 BYTE   W04
 BYTE   N04
 BYTE   W04
// 010   ----------------------------------------
 BYTE   VOICE   71
 BYTE   PAN   c_v-24
 BYTE   VOL   40*FE04ArmyofThraciaSurfingKyogre_mvl/mxv
 BYTE   W12
 BYTE   N06  Ds3  v127
 BYTE   W12
 BYTE   N06
 BYTE   W12
 BYTE   N06
 BYTE   W24
 BYTE   Cs3
 BYTE   W12
 BYTE   N06
 BYTE   W12
 BYTE   N06
 BYTE   W12
// 011   ----------------------------------------
 BYTE   W12
 BYTE   Cn3
 BYTE   W12
 BYTE   N06
 BYTE   W12
 BYTE   N06
 BYTE   W12
 BYTE   N10  Cs3
 BYTE   W12
 BYTE   Cn3
 BYTE   W12
 BYTE   N06  Cs3
 BYTE   W12
 BYTE   Ds3
 BYTE   W12
// 012   ----------------------------------------
 BYTE   N06
 BYTE   W12
 BYTE   N06
 BYTE   W24
 BYTE   Cs3
 BYTE   W12
 BYTE   N06
 BYTE   W24
 BYTE   Cn3
 BYTE   W12
 BYTE   N06
 BYTE   W12
// 013   ----------------------------------------
 BYTE   W12
 BYTE   Cs3
 BYTE   W12
 BYTE   N06
 BYTE   W24
 BYTE   N10  Ds3
 BYTE   W12
 BYTE   Cs3
 BYTE   W12
 BYTE   Ds3
 BYTE   W12
 BYTE   Cs3
 BYTE   W12
// 014   ----------------------------------------
 BYTE   N05  Dn3
 BYTE   W06
 BYTE   Cn3
 BYTE   W06
 BYTE   As2
 BYTE   W06
 BYTE   N68  Gn2
 BYTE   W78
// 015   ----------------------------------------
 BYTE   VOICE   13
 BYTE   PAN   c_v+26
 BYTE   VOL   40*FE04ArmyofThraciaSurfingKyogre_mvl/mxv
 BYTE   N12  Gn3
 BYTE   W12
 BYTE   N12
 BYTE   W24
 BYTE   N12
 BYTE   W24
 BYTE   N12
 BYTE   W12
 BYTE   Fs3
 BYTE   W12
 BYTE   Gn3
 BYTE   W12
// 016   ----------------------------------------
 BYTE   VOICE   48
 BYTE   PAN   c_v-44
 BYTE   VOL   45*FE04ArmyofThraciaSurfingKyogre_mvl/mxv
 BYTE   W96
// 017   ----------------------------------------
 BYTE   W96
// 018   ----------------------------------------
 BYTE   W96
// 019   ----------------------------------------
 BYTE   W96
// 020   ----------------------------------------
 BYTE   W96
// 021   ----------------------------------------
 BYTE   W96
// 022   ----------------------------------------
 BYTE   W96
// 023   ----------------------------------------
 BYTE   W96
// 024   ----------------------------------------
Label_4_551144:
 BYTE   W24
 BYTE   N06  Fn3  v127
 BYTE   W48
 BYTE   N06
 BYTE   W24
 BYTE   PEND 
 BYTE   PATT
  POIN2 Label_4_551144
 BYTE   PATT
  POIN2 Label_4_551028
// 025   ----------------------------------------
 BYTE   GoTo
  POIN2 Label_4_551030
 BYTE   FINE

//**************** Track 6 (Midi-Chn.5) ****************//

FE04ArmyofThraciaSurfingKyogre_006:
// 000   ----------------------------------------
 BYTE   KEYSH   FE04ArmyofThraciaSurfingKyogre_key+0
 BYTE   VOICE   38
 BYTE   PAN   c_v+0
 BYTE   VOL   20*FE04ArmyofThraciaSurfingKyogre_mvl/mxv
 BYTE   MOD 0
 BYTE   CnM2
 BYTE   PAN   c_v+0
 BYTE   VOL   40*FE04ArmyofThraciaSurfingKyogre_mvl/mxv
 BYTE   BEND   c_v+0
 BYTE   W24
 BYTE   N18  Dn0  v127
 BYTE   W48
 BYTE   N18
 BYTE   W24
// 001   ----------------------------------------
Label_5_551173:
 BYTE   W24
 BYTE   N18  Dn0  v127
 BYTE   W48
 BYTE   N18
 BYTE   W24
 BYTE   PEND 
// 002   ----------------------------------------
Label_5_55117B:
 BYTE   VOICE   38
 BYTE   PAN   c_v+0
 BYTE   VOL   40*FE04ArmyofThraciaSurfingKyogre_mvl/mxv
 BYTE   W06
 BYTE   PEND 
Label_5_551183:
 BYTE   W18
 BYTE   N18  Dn0  v127
 BYTE   W48
 BYTE   N18
 BYTE   W24
 BYTE   PATT
  POIN2 Label_5_551173
 BYTE   PATT
  POIN2 Label_5_551173
 BYTE   PATT
  POIN2 Label_5_551173
// 003   ----------------------------------------
Label_5_551199:
 BYTE   W24
 BYTE   N18  Cn0  v127
 BYTE   W48
 BYTE   N18
 BYTE   W24
 BYTE   PEND 
 BYTE   PATT
  POIN2 Label_5_551199
 BYTE   PATT
  POIN2 Label_5_551199
 BYTE   PATT
  POIN2 Label_5_551199
// 004   ----------------------------------------
 BYTE   VOICE   71
 BYTE   PAN   c_v+26
 BYTE   VOL   45*FE04ArmyofThraciaSurfingKyogre_mvl/mxv
 BYTE   N06  Cs2  v127
 BYTE   W36
 BYTE   N06
 BYTE   W36
 BYTE   N06
 BYTE   W24
// 005   ----------------------------------------
Label_5_5511BE:
 BYTE   W12
 BYTE   N06  Cs2  v127
 BYTE   W36
 BYTE   N06
 BYTE   W36
 BYTE   N06
 BYTE   W12
 BYTE   PEND 
// 006   ----------------------------------------
 BYTE   N06
 BYTE   W36
 BYTE   N06
 BYTE   W36
 BYTE   N06
 BYTE   W24
 BYTE   PATT
  POIN2 Label_5_5511BE
// 007   ----------------------------------------
 BYTE   VOICE   48
 BYTE   PAN   c_v+16
 BYTE   VOL   50*FE04ArmyofThraciaSurfingKyogre_mvl/mxv
 BYTE   N06  Fn1  v127
 BYTE   W36
 BYTE   N06
 BYTE   W24
 BYTE   Cn1
 BYTE   W12
 BYTE   Fn1
 BYTE   W24
// 008   ----------------------------------------
 BYTE   W84
 BYTE   VOICE   38
 BYTE   PAN   c_v+0
 BYTE   VOL   40*FE04ArmyofThraciaSurfingKyogre_mvl/mxv
 BYTE   N12  Fs0  v100
 BYTE   W12
// 009   ----------------------------------------
Label_5_5511EE:
 BYTE   N12  Fs0  v127
 BYTE   W12
 BYTE   Fs0  v100
 BYTE   W12
 BYTE   N12
 BYTE   W12
 BYTE   Fs0  v127
 BYTE   W12
 BYTE   Fs0  v100
 BYTE   W12
 BYTE   N12
 BYTE   W12
 BYTE   Fs0  v127
 BYTE   W12
 BYTE   Fs0  v100
 BYTE   W12
 BYTE   PEND 
// 010   ----------------------------------------
Label_5_551206:
 BYTE   N12  Fs0  v100
 BYTE   W12
 BYTE   Fs0  v127
 BYTE   W12
 BYTE   Fs0  v100
 BYTE   W12
 BYTE   Fs0  v127
 BYTE   W12
 BYTE   Fs0  v100
 BYTE   W12
 BYTE   N12
 BYTE   W12
 BYTE   N06
 BYTE   W06
 BYTE   N06
 BYTE   W06
 BYTE   N12
 BYTE   W12
 BYTE   PEND 
// 011   ----------------------------------------
Label_5_55121F:
 BYTE   N12  Fn0  v127
 BYTE   W12
 BYTE   Fn0  v100
 BYTE   W12
 BYTE   N12
 BYTE   W12
 BYTE   Fn0  v127
 BYTE   W12
 BYTE   Fn0  v100
 BYTE   W12
 BYTE   N12
 BYTE   W12
 BYTE   Fn0  v127
 BYTE   W12
 BYTE   Fn0  v100
 BYTE   W12
 BYTE   PEND 
// 012   ----------------------------------------
 BYTE   N12
 BYTE   W12
 BYTE   Fn0  v127
 BYTE   W12
 BYTE   Fn0  v100
 BYTE   W12
 BYTE   Fn0  v127
 BYTE   W12
 BYTE   Fn0  v100
 BYTE   W12
 BYTE   N12
 BYTE   W12
 BYTE   N06
 BYTE   W06
 BYTE   N06
 BYTE   W06
 BYTE   N12
 BYTE   W12
 BYTE   PATT
  POIN2 Label_5_5511EE
 BYTE   PATT
  POIN2 Label_5_551206
 BYTE   PATT
  POIN2 Label_5_55121F
// 013   ----------------------------------------
 BYTE   N12  Fn0  v100
 BYTE   W12
 BYTE   Fn0  v127
 BYTE   W12
 BYTE   Fn0  v100
 BYTE   W12
 BYTE   Fn0  v127
 BYTE   W12
 BYTE   Fn0  v100
 BYTE   W12
 BYTE   N12
 BYTE   W18
 BYTE   N06  Gn0  v127
 BYTE   W06
 BYTE   N12  Gs0
 BYTE   W12
// 014   ----------------------------------------
 BYTE   N48  As0
 BYTE   W84
 BYTE   N12
 BYTE   W12
// 015   ----------------------------------------
 BYTE   N48
 BYTE   W84
 BYTE   N12  Gs0
 BYTE   W12
 BYTE   PATT
  POIN2 Label_5_55117B
// 016   ----------------------------------------
 BYTE   GoTo
  POIN2 Label_5_551183
 BYTE   FINE

//**************** Track 7 (Midi-Chn.6) ****************//

FE04ArmyofThraciaSurfingKyogre_007:
// 000   ----------------------------------------
 BYTE   KEYSH   FE04ArmyofThraciaSurfingKyogre_key+0
 BYTE   VOICE   121
 BYTE   PAN   c_v+0
 BYTE   VOL   20*FE04ArmyofThraciaSurfingKyogre_mvl/mxv
 BYTE   MOD 0
 BYTE   CnM2
 BYTE   VOL   40*FE04ArmyofThraciaSurfingKyogre_mvl/mxv
 BYTE   BEND   c_v+0
 BYTE   W12
 BYTE   N01  Ds1  v116
 BYTE   W06
 BYTE   N01
 BYTE   W06
 BYTE   N01
 BYTE   W12
 BYTE   N01
 BYTE   W24
 BYTE   N01
 BYTE   W06
 BYTE   N01
 BYTE   W06
 BYTE   N01
 BYTE   W12
 BYTE   N01
 BYTE   W12
// 001   ----------------------------------------
Label_6_016EC059:
 BYTE   W12
 BYTE   N01  Ds1  v116
 BYTE   W06
 BYTE   N01
 BYTE   W06
 BYTE   N01
 BYTE   W12
 BYTE   N01
 BYTE   W12
 BYTE   N01
 BYTE   W06
 BYTE   N01
 BYTE   W06
 BYTE   N01
 BYTE   W12
 BYTE   N01
 BYTE   W12
 BYTE   N01
 BYTE   W12
 BYTE   PEND 
// 002   ----------------------------------------
 BYTE   W06
Label_6_016EC070:
 BYTE   W06
 BYTE   N01  Ds1  v116
 BYTE   W06
 BYTE   N01
 BYTE   W06
 BYTE   N01
 BYTE   W12
 BYTE   N01
 BYTE   W24
 BYTE   N01
 BYTE   W06
 BYTE   N01
 BYTE   W06
 BYTE   N01
 BYTE   W12
 BYTE   N01
 BYTE   W12
 BYTE   PATT
  POIN2 Label_6_016EC059
// 003   ----------------------------------------
Label_6_016EC088:
 BYTE   W12
 BYTE   N01  Ds1  v116
 BYTE   W06
 BYTE   N01
 BYTE   W06
 BYTE   N01
 BYTE   W12
 BYTE   N01
 BYTE   W24
 BYTE   N01
 BYTE   W06
 BYTE   N01
 BYTE   W06
 BYTE   N01
 BYTE   W12
 BYTE   N01
 BYTE   W12
 BYTE   PEND 
// 004   ----------------------------------------
 BYTE   W12
 BYTE   N01
 BYTE   W06
 BYTE   N01
 BYTE   W06
 BYTE   N01
 BYTE   W12
 BYTE   N01
 BYTE   W12
 BYTE   N01
 BYTE   W06
 BYTE   N01
 BYTE   W06
 BYTE   N01
 BYTE   W12
 BYTE   N01
 BYTE   W12
 BYTE   N01
 BYTE   W06
 BYTE   N01
 BYTE   W06
 BYTE   PATT
  POIN2 Label_6_016EC088
 BYTE   PATT
  POIN2 Label_6_016EC088
// 005   ----------------------------------------
 BYTE   W12
 BYTE   N01  Ds1  v116
 BYTE   W06
 BYTE   N01
 BYTE   W06
 BYTE   N01
 BYTE   W12
 BYTE   N01
 BYTE   W24
 BYTE   N01
 BYTE   W06
 BYTE   N01
 BYTE   W12
 BYTE   N01
 BYTE   W06
 BYTE   N01
 BYTE   W12
// 006   ----------------------------------------
Label_6_016EC0CE:
 BYTE   N01  Ds1  v116
 BYTE   W12
 BYTE   N01
 BYTE   W06
 BYTE   N01
 BYTE   W06
 BYTE   N01
 BYTE   W12
 BYTE   N01
 BYTE   W06
 BYTE   N01
 BYTE   W06
 BYTE   N01
 BYTE   W12
 BYTE   N01
 BYTE   W06
 BYTE   N01
 BYTE   W06
 BYTE   N01
 BYTE   W12
 BYTE   N01
 BYTE   W06
 BYTE   N01
 BYTE   W06
 BYTE   PEND 
// 007   ----------------------------------------
Label_6_016EC0E9:
 BYTE   N01  Ds1  v116
 BYTE   W12
 BYTE   N03
 BYTE   W24
 BYTE   N01
 BYTE   W12
 BYTE   N03
 BYTE   W24
 BYTE   N01
 BYTE   W12
 BYTE   N03
 BYTE   W12
 BYTE   PEND 
// 008   ----------------------------------------
 BYTE   W12
 BYTE   N01
 BYTE   W12
 BYTE   N03
 BYTE   W24
 BYTE   N03
 BYTE   W24
 BYTE   N03
 BYTE   W24
 BYTE   PATT
  POIN2 Label_6_016EC0E9
// 009   ----------------------------------------
 BYTE   W12
 BYTE   N01  Ds1  v116
 BYTE   W12
 BYTE   N03
 BYTE   W24
 BYTE   N01
 BYTE   W12
 BYTE   N01
 BYTE   W12
 BYTE   N01
 BYTE   W12
 BYTE   N01
 BYTE   W12
// 010   ----------------------------------------
 BYTE   N01
 BYTE   W12
 BYTE   N03  Ds1  v096
 BYTE   W24
 BYTE   Ds1  v076
 BYTE   W24
 BYTE   N03
 BYTE   W24
 BYTE   N01  Ds1  v116
 BYTE   W12
// 011   ----------------------------------------
 BYTE   N01
 BYTE   W12
 BYTE   N03
 BYTE   W24
 BYTE   N03
 BYTE   W24
 BYTE   N01
 BYTE   W12
 BYTE   N01
 BYTE   W12
 BYTE   N01
 BYTE   W12
// 012   ----------------------------------------
 BYTE   N03
 BYTE   W24
 BYTE   N01  Ds1  v076
 BYTE   W12
 BYTE   N03  Ds1  v116
 BYTE   W24
 BYTE   N01  Ds1  v076
 BYTE   W12
 BYTE   N03  Ds1  v116
 BYTE   W24
// 013   ----------------------------------------
 BYTE   W12
 BYTE   N01
 BYTE   W12
 BYTE   Ds1  v076
 BYTE   W12
 BYTE   N01
 BYTE   W12
 BYTE   Ds1  v116
 BYTE   W12
 BYTE   Ds1  v076
 BYTE   W12
 BYTE   Ds1  v116
 BYTE   W12
 BYTE   Ds1  v076
 BYTE   W12
// 014   ----------------------------------------
 BYTE   Ds1  v116
 BYTE   W12
 BYTE   Ds1  v076
 BYTE   W12
 BYTE   N01
 BYTE   W12
 BYTE   N03  Ds1  v116
 BYTE   W24
 BYTE   N01  Ds1  v076
 BYTE   W12
 BYTE   N03  Ds1  v116
 BYTE   W24
// 015   ----------------------------------------
Label_6_016EC16A:
 BYTE   N01  Ds1  v076
 BYTE   W12
 BYTE   Ds1  v116
 BYTE   W12
 BYTE   Ds1  v076
 BYTE   W12
 BYTE   N01
 BYTE   W12
 BYTE   Ds1  v116
 BYTE   W12
 BYTE   Ds1  v076
 BYTE   W12
 BYTE   Ds1  v116
 BYTE   W12
 BYTE   Ds1  v076
 BYTE   W12
 BYTE   PEND 
// 016   ----------------------------------------
 BYTE   Ds1  v116
 BYTE   W12
 BYTE   Ds1  v076
 BYTE   W12
 BYTE   N01
 BYTE   W12
 BYTE   Ds1  v116
 BYTE   W12
 BYTE   Ds1  v076
 BYTE   W12
 BYTE   N01
 BYTE   W12
 BYTE   N03  Ds1  v116
 BYTE   W24
 BYTE   PATT
  POIN2 Label_6_016EC16A
// 017   ----------------------------------------
 BYTE   N04  Ds1  v116
 BYTE   W36
 BYTE   N01
 BYTE   W12
 BYTE   Ds1  v076
 BYTE   W12
 BYTE   N01
 BYTE   W12
 BYTE   N03  Ds1  v116
 BYTE   W24
// 018   ----------------------------------------
 BYTE   N01  Ds1  v076
 BYTE   W12
 BYTE   Ds1  v116
 BYTE   W12
 BYTE   Ds1  v076
 BYTE   W12
 BYTE   N01
 BYTE   W12
 BYTE   Ds1  v116
 BYTE   W12
 BYTE   Ds1  v076
 BYTE   W12
 BYTE   Ds1  v116
 BYTE   W12
 BYTE   N01
 BYTE   W06
 BYTE   N01
 BYTE   W06
 BYTE   PATT
  POIN2 Label_6_016EC0CE
 BYTE   PATT
  POIN2 Label_6_016EC0CE
// 019   ----------------------------------------
 BYTE   W06
 BYTE   GoTo
  POIN2 Label_6_016EC070
 BYTE   FINE

//******************************************************//
	ALIGN 4

FE04ArmyofThraciaSurfingKyogre:
	BYTE	7	// NumTrks
	BYTE	0	// NumBlks
	BYTE	FE04ArmyofThraciaSurfingKyogre_pri	// Priority
	BYTE	FE04ArmyofThraciaSurfingKyogre_rev	// Reverb.
    
	POIN2	FE04ArmyofThraciaSurfingKyogre_grp
    
	POIN2	FE04ArmyofThraciaSurfingKyogre_001
	POIN2	FE04ArmyofThraciaSurfingKyogre_002
	POIN2	FE04ArmyofThraciaSurfingKyogre_003
	POIN2	FE04ArmyofThraciaSurfingKyogre_004
	POIN2	FE04ArmyofThraciaSurfingKyogre_005
	POIN2	FE04ArmyofThraciaSurfingKyogre_006
	POIN2	FE04ArmyofThraciaSurfingKyogre_007

	
