//Event file generated from Sappy .s format.
	#include "MPlayDef.event"

	#define	FE04MidbossJack_G_grp  voicegroup000
	#define	FE04MidbossJack_G_pri  10
	#define	FE04MidbossJack_G_rev  0
	#define	FE04MidbossJack_G_mvl  127
	#define	FE04MidbossJack_G_key  0
	#define	FE04MidbossJack_G_tbs  1
	#define	FE04MidbossJack_G_exg  0
	#define	FE04MidbossJack_G_cmp  1

	// .rodata
	//	FE04MidbossJack_G
	ALIGN 4


//**************** Track 1 (Midi-Chn.0) ****************//

FE04MidbossJack_G_001:
//  #01 //000   ----------------------------------------
 BYTE   KEYSH   FE04MidbossJack_G_key+0
 BYTE   VOL   40*FE04MidbossJack_G_mvl/mxv
 BYTE   PAN   c_v+0
 BYTE   BEND   c_v+0
 BYTE   BENDR  12
 BYTE   BENDR  12
 BYTE   LFOS 44
 BYTE   LFOS 44
 BYTE   TEMPO   164*FE04MidbossJack_G_tbs/2
 BYTE   W19
 BYTE   VOICE   47
 BYTE   VOL   39*FE04MidbossJack_G_mvl/mxv
 BYTE   PAN   c_v+0
 BYTE   N05  Gn1  v127
 BYTE   W05
 BYTE   VOL   41*FE04MidbossJack_G_mvl/mxv
 BYTE   N05  Gn1  v127
 BYTE   W05
 BYTE   VOL   44*FE04MidbossJack_G_mvl/mxv
 BYTE   N05  Gn1  v127
 BYTE   W05
 BYTE   VOL   48*FE04MidbossJack_G_mvl/mxv
 BYTE   N04  Gn1  v127
 BYTE   W04
 BYTE   VOL   54*FE04MidbossJack_G_mvl/mxv
 BYTE   N04  Gn1  v127
 BYTE   W04
 BYTE   VOL   70*FE04MidbossJack_G_mvl/mxv
 BYTE   N12  Gn1  v127
 BYTE   W12
 BYTE   Dn1
 BYTE   W12
 BYTE   Gn1
 BYTE   W12
 BYTE   Dn1
 BYTE   W12
 BYTE   Gn1
 BYTE   W12
//  #01 //001   ----------------------------------------
 BYTE   Dn1
 BYTE   W12
Label_015C5365:
 BYTE   VOL   70*FE04MidbossJack_G_mvl/mxv
 BYTE   N12  Gn1  v127
 BYTE   W12
 BYTE   Dn1
 BYTE   W12
 BYTE   Gn1
 BYTE   W12
 BYTE   Dn1
 BYTE   W12
 BYTE   PEND 
 BYTE   VOL   39*FE04MidbossJack_G_mvl/mxv
 BYTE   N05  Gn1  v127
 BYTE   W05
 BYTE   VOL   41*FE04MidbossJack_G_mvl/mxv
 BYTE   N05  Gn1  v127
 BYTE   W05
 BYTE   VOL   44*FE04MidbossJack_G_mvl/mxv
 BYTE   N05  Gn1  v127
 BYTE   W05
 BYTE   VOL   48*FE04MidbossJack_G_mvl/mxv
 BYTE   N04  Gn1  v127
 BYTE   W04
 BYTE   VOL   54*FE04MidbossJack_G_mvl/mxv
 BYTE   N04  Gn1  v127
 BYTE   W04
 BYTE   VOL   70*FE04MidbossJack_G_mvl/mxv
 BYTE   N12  Gn1  v127
 BYTE   W04
Label_015C5396:
 BYTE   W07
 BYTE   N12  Dn1  v127
 BYTE   W12
//  #01 //002   ----------------------------------------
 BYTE   Gn1
 BYTE   W12
 BYTE   Dn1
 BYTE   W12
 BYTE   Gn1
 BYTE   W12
 BYTE   Dn1
 BYTE   W12
 BYTE   Gn1
 BYTE   W12
 BYTE   Dn1
 BYTE   W12
 BYTE   Gn1
 BYTE   W12
 BYTE   Dn1
 BYTE   W12
//  #01 //003   ----------------------------------------
Label_015C53AB:
 BYTE   VOL   39*FE04MidbossJack_G_mvl/mxv
 BYTE   N05  Gn1  v127
 BYTE   W05
 BYTE   VOL   41*FE04MidbossJack_G_mvl/mxv
 BYTE   N05  Gn1  v127
 BYTE   W05
 BYTE   VOL   44*FE04MidbossJack_G_mvl/mxv
 BYTE   N05  Gn1  v127
 BYTE   W05
 BYTE   VOL   48*FE04MidbossJack_G_mvl/mxv
 BYTE   N04  Gn1  v127
 BYTE   W04
 BYTE   VOL   54*FE04MidbossJack_G_mvl/mxv
 BYTE   N04  Gn1  v127
 BYTE   W04
 BYTE   VOL   70*FE04MidbossJack_G_mvl/mxv
 BYTE   N12  Gn1  v127
 BYTE   W12
 BYTE   Dn1
 BYTE   W12
 BYTE   Gn1
 BYTE   W12
 BYTE   Dn1
 BYTE   W12
 BYTE   Gn1
 BYTE   W12
 BYTE   Dn1
 BYTE   W12
 BYTE   Gn1
 BYTE   W12
//  #01 //004   ----------------------------------------
 BYTE   Dn1
 BYTE   W12
 BYTE   Gn1
 BYTE   W12
 BYTE   Dn1
 BYTE   W12
 BYTE   PEND 
//  #01 //005   ----------------------------------------
 BYTE   PATT
  POIN2 Label_015C53AB
//  #01 //006   ----------------------------------------
 BYTE   PATT
  POIN2 Label_015C53AB
//  #01 //007   ----------------------------------------
Label_015C53EC:
 BYTE   VOL   39*FE04MidbossJack_G_mvl/mxv
 BYTE   N05  Gn1  v127
 BYTE   W05
 BYTE   VOL   41*FE04MidbossJack_G_mvl/mxv
 BYTE   N05  Gn1  v127
 BYTE   W05
 BYTE   VOL   44*FE04MidbossJack_G_mvl/mxv
 BYTE   N05  Gn1  v127
 BYTE   W05
 BYTE   VOL   48*FE04MidbossJack_G_mvl/mxv
 BYTE   N04  Gn1  v127
 BYTE   W04
 BYTE   VOL   54*FE04MidbossJack_G_mvl/mxv
 BYTE   N04  Gn1  v127
 BYTE   W04
 BYTE   VOL   70*FE04MidbossJack_G_mvl/mxv
 BYTE   N12  Gn1  v127
 BYTE   W12
 BYTE   Dn1
 BYTE   W12
 BYTE   Gn1
 BYTE   W12
 BYTE   Dn1
 BYTE   W12
 BYTE   Gn1
 BYTE   W12
 BYTE   Dn1
 BYTE   W12
 BYTE   PEND 
//  #01 //008   ----------------------------------------
 BYTE   PATT
  POIN2 Label_015C53EC
//  #01 //009   ----------------------------------------
Label_015C5420:
 BYTE   VOL   39*FE04MidbossJack_G_mvl/mxv
 BYTE   N05  Gn1  v127
 BYTE   W05
 BYTE   VOL   41*FE04MidbossJack_G_mvl/mxv
 BYTE   N05  Gn1  v127
 BYTE   W05
 BYTE   VOL   44*FE04MidbossJack_G_mvl/mxv
 BYTE   N05  Gn1  v127
 BYTE   W05
 BYTE   VOL   48*FE04MidbossJack_G_mvl/mxv
 BYTE   N04  Gn1  v127
 BYTE   W04
 BYTE   VOL   54*FE04MidbossJack_G_mvl/mxv
 BYTE   N04  Gn1  v127
 BYTE   W96
//  #01 //010   ----------------------------------------
 BYTE   W96
//  #01 //011   ----------------------------------------
 BYTE   W96
//  #01 //012   ----------------------------------------
 BYTE   W04
 BYTE   PEND 
Label_015C5442:
 BYTE   VOL   40*FE04MidbossJack_G_mvl/mxv
 BYTE   N12  Gn1  v127
 BYTE   W12
 BYTE   Dn1
 BYTE   W12
 BYTE   VOL   42*FE04MidbossJack_G_mvl/mxv
 BYTE   N12  Gn1  v127
 BYTE   W12
 BYTE   Dn1
 BYTE   W12
 BYTE   PEND 
Label_015C5453:
 BYTE   VOL   46*FE04MidbossJack_G_mvl/mxv
 BYTE   N12  Gn1  v127
 BYTE   W12
 BYTE   Dn1
 BYTE   W12
 BYTE   VOL   49*FE04MidbossJack_G_mvl/mxv
 BYTE   N12  Gn1  v127
 BYTE   W12
 BYTE   Dn1
 BYTE   W12
 BYTE   PEND 
//  #01 //013   ----------------------------------------
 BYTE   PATT
  POIN2 Label_015C5365
//  #01 //014   ----------------------------------------
 BYTE   PATT
  POIN2 Label_015C53AB
//  #01 //015   ----------------------------------------
 BYTE   PATT
  POIN2 Label_015C53AB
//  #01 //016   ----------------------------------------
 BYTE   PATT
  POIN2 Label_015C53AB
//  #01 //017   ----------------------------------------
 BYTE   PATT
  POIN2 Label_015C53AB
//  #01 //018   ----------------------------------------
 BYTE   PATT
  POIN2 Label_015C53EC
//  #01 //019   ----------------------------------------
 BYTE   PATT
  POIN2 Label_015C53EC
//  #01 //020   ----------------------------------------
 BYTE   PATT
  POIN2 Label_015C5420
//  #01 //021   ----------------------------------------
 BYTE   PATT
  POIN2 Label_015C5442
//  #01 //022   ----------------------------------------
 BYTE   PATT
  POIN2 Label_015C5453
//  #01 //023   ----------------------------------------
 BYTE   VOL   70*FE04MidbossJack_G_mvl/mxv
 BYTE   N12  Gn1  v127
 BYTE   VOL   70*FE04MidbossJack_G_mvl/mxv
 BYTE   W06
 BYTE   VOL   67*FE04MidbossJack_G_mvl/mxv
 BYTE   W05
 BYTE   N12  Dn1  v127
 BYTE   W01
 BYTE   VOL   66*FE04MidbossJack_G_mvl/mxv
 BYTE   W06
 BYTE   VOL   66*FE04MidbossJack_G_mvl/mxv
 BYTE   W04
 BYTE   N12  Gn1  v127
 BYTE   W02
 BYTE   VOL   66*FE04MidbossJack_G_mvl/mxv
 BYTE   W06
 BYTE   VOL   64*FE04MidbossJack_G_mvl/mxv
 BYTE   W04
 BYTE   N12  Dn1  v127
 BYTE   W02
 BYTE   VOL   62*FE04MidbossJack_G_mvl/mxv
 BYTE   W06
 BYTE   VOL   61*FE04MidbossJack_G_mvl/mxv
 BYTE   W03
 BYTE   VOL   38*FE04MidbossJack_G_mvl/mxv
 BYTE   N05  Gn1  v127
 BYTE   W03
 BYTE   VOL   38*FE04MidbossJack_G_mvl/mxv
 BYTE   W01
 BYTE   VOL   39*FE04MidbossJack_G_mvl/mxv
 BYTE   N05  Gn1  v127
 BYTE   W05
 BYTE   VOL   41*FE04MidbossJack_G_mvl/mxv
 BYTE   N05  Gn1  v127
 BYTE   W05
 BYTE   VOL   44*FE04MidbossJack_G_mvl/mxv
 BYTE   N04  Gn1  v127
 BYTE   W01
 BYTE   VOL   43*FE04MidbossJack_G_mvl/mxv
 BYTE   W03
 BYTE   VOL   47*FE04MidbossJack_G_mvl/mxv
 BYTE   N04  Gn1  v127
 BYTE   W03
 BYTE   VOL   47*FE04MidbossJack_G_mvl/mxv
 BYTE   W01
 BYTE   VOL   58*FE04MidbossJack_G_mvl/mxv
 BYTE   N12  Gn1  v127
 BYTE   W04
 BYTE   GoTo
  POIN2 Label_015C5396
//  #01 //024   ----------------------------------------
 BYTE   VOL   58*FE04MidbossJack_G_mvl/mxv
 BYTE   W06
 BYTE   VOL   56*FE04MidbossJack_G_mvl/mxv
 BYTE   N12  Dn1  v127
 BYTE   W06
 BYTE   VOL   55*FE04MidbossJack_G_mvl/mxv
 BYTE   W06
 BYTE   VOL   54*FE04MidbossJack_G_mvl/mxv
 BYTE   N12  Gn1  v127
 BYTE   W06
 BYTE   VOL   54*FE04MidbossJack_G_mvl/mxv
 BYTE   W05
 BYTE   N12  Dn1  v127
 BYTE   W01
 BYTE   VOL   53*FE04MidbossJack_G_mvl/mxv
 BYTE   W06
 BYTE   VOL   51*FE04MidbossJack_G_mvl/mxv
 BYTE   W04
 BYTE   N12  Gn1  v127
 BYTE   W02
 BYTE   VOL   51*FE04MidbossJack_G_mvl/mxv
 BYTE   W06
 BYTE   VOL   51*FE04MidbossJack_G_mvl/mxv
 BYTE   W04
 BYTE   N12  Dn1  v127
 BYTE   W02
 BYTE   VOL   50*FE04MidbossJack_G_mvl/mxv
 BYTE   W06
 BYTE   VOL   49*FE04MidbossJack_G_mvl/mxv
 BYTE   W03
 BYTE   N12  Gn1  v127
 BYTE   W03
 BYTE   VOL   48*FE04MidbossJack_G_mvl/mxv
 BYTE   W06
 BYTE   VOL   48*FE04MidbossJack_G_mvl/mxv
 BYTE   W02
 BYTE   N12  Dn1  v127
 BYTE   W04
 BYTE   VOL   47*FE04MidbossJack_G_mvl/mxv
 BYTE   W06
 BYTE   VOL   47*FE04MidbossJack_G_mvl/mxv
 BYTE   W01
 BYTE   N12  Gn1  v127
 BYTE   W05
 BYTE   VOL   46*FE04MidbossJack_G_mvl/mxv
 BYTE   W06
//  #01 //025   ----------------------------------------
 BYTE   VOL   46*FE04MidbossJack_G_mvl/mxv
 BYTE   N12  Dn1  v127
 BYTE   W06
 BYTE   VOL   46*FE04MidbossJack_G_mvl/mxv
 BYTE   W06
 BYTE   VOL   36*FE04MidbossJack_G_mvl/mxv
 BYTE   N05  Gn1  v127
 BYTE   W05
 BYTE   VOL   37*FE04MidbossJack_G_mvl/mxv
 BYTE   N05  Gn1  v127
 BYTE   W01
 BYTE   VOL   37*FE04MidbossJack_G_mvl/mxv
 BYTE   W03
 BYTE   VOL   37*FE04MidbossJack_G_mvl/mxv
 BYTE   N05  Gn1  v127
 BYTE   W03
 BYTE   VOL   37*FE04MidbossJack_G_mvl/mxv
 BYTE   W02
 BYTE   VOL   38*FE04MidbossJack_G_mvl/mxv
 BYTE   N04  Gn1  v127
 BYTE   W04
 BYTE   VOL   39*FE04MidbossJack_G_mvl/mxv
 BYTE   N04  Gn1  v127
 BYTE   W04
 BYTE   VOL   43*FE04MidbossJack_G_mvl/mxv
 BYTE   N12  Gn1  v127
 BYTE   W02
 BYTE   VOL   43*FE04MidbossJack_G_mvl/mxv
 BYTE   W06
 BYTE   VOL   42*FE04MidbossJack_G_mvl/mxv
 BYTE   W04
 BYTE   N12  Dn1  v127
 BYTE   W02
 BYTE   VOL   42*FE04MidbossJack_G_mvl/mxv
 BYTE   W06
 BYTE   VOL   42*FE04MidbossJack_G_mvl/mxv
 BYTE   W03
 BYTE   N12  Gn1  v127
 BYTE   W03
 BYTE   VOL   42*FE04MidbossJack_G_mvl/mxv
 BYTE   W06
 BYTE   VOL   41*FE04MidbossJack_G_mvl/mxv
 BYTE   W02
 BYTE   N12  Dn1  v127
 BYTE   W04
 BYTE   VOL   41*FE04MidbossJack_G_mvl/mxv
 BYTE   W06
 BYTE   VOL   41*FE04MidbossJack_G_mvl/mxv
 BYTE   W01
 BYTE   N12  Gn1  v127
 BYTE   W05
 BYTE   VOL   40*FE04MidbossJack_G_mvl/mxv
 BYTE   W06
 BYTE   VOL   40*FE04MidbossJack_G_mvl/mxv
 BYTE   N12  Dn1  v127
 BYTE   W06
//  #01 //026   ----------------------------------------
 BYTE   VOL   40*FE04MidbossJack_G_mvl/mxv
 BYTE   W06
 BYTE   VOL   39*FE04MidbossJack_G_mvl/mxv
 BYTE   N12  Gn1  v127
 BYTE   W06
 BYTE   VOL   39*FE04MidbossJack_G_mvl/mxv
 BYTE   W05
 BYTE   N12  Dn1  v127
 BYTE   W01
 BYTE   VOL   39*FE04MidbossJack_G_mvl/mxv
 BYTE   W06
 BYTE   VOL   39*FE04MidbossJack_G_mvl/mxv
 BYTE   W04
 BYTE   N12  Gn1  v127
 BYTE   W02
 BYTE   VOL   39*FE04MidbossJack_G_mvl/mxv
 BYTE   W06
 BYTE   VOL   38*FE04MidbossJack_G_mvl/mxv
 BYTE   W04
 BYTE   N12  Dn1  v127
 BYTE   W02
 BYTE   VOL   38*FE04MidbossJack_G_mvl/mxv
 BYTE   W06
 BYTE   VOL   38*FE04MidbossJack_G_mvl/mxv
 BYTE   W03
 BYTE   VOL   35*FE04MidbossJack_G_mvl/mxv
 BYTE   N05  Gn1  v127
 BYTE   W03
 BYTE   VOL   35*FE04MidbossJack_G_mvl/mxv
 BYTE   W01
 BYTE   VOL   35*FE04MidbossJack_G_mvl/mxv
 BYTE   N05  Gn1  v127
 BYTE   W05
 BYTE   VOL   36*FE04MidbossJack_G_mvl/mxv
 BYTE   N05  Gn1  v127
 BYTE   W05
 BYTE   VOL   36*FE04MidbossJack_G_mvl/mxv
 BYTE   N04  Gn1  v127
 BYTE   W01
 BYTE   VOL   36*FE04MidbossJack_G_mvl/mxv
 BYTE   W03
 BYTE   VOL   36*FE04MidbossJack_G_mvl/mxv
 BYTE   N04  Gn1  v127
 BYTE   W03
 BYTE   VOL   36*FE04MidbossJack_G_mvl/mxv
 BYTE   W01
 BYTE   VOL   37*FE04MidbossJack_G_mvl/mxv
 BYTE   N12  Gn1  v127
 BYTE   W05
 BYTE   VOL   37*FE04MidbossJack_G_mvl/mxv
 BYTE   W06
 BYTE   VOL   37*FE04MidbossJack_G_mvl/mxv
 BYTE   N12  Dn1  v127
 BYTE   W06
 BYTE   VOL   37*FE04MidbossJack_G_mvl/mxv
 BYTE   W06
//  #01 //027   ----------------------------------------
 BYTE   VOL   37*FE04MidbossJack_G_mvl/mxv
 BYTE   N12  Gn1  v127
 BYTE   W06
 BYTE   VOL   37*FE04MidbossJack_G_mvl/mxv
 BYTE   W05
 BYTE   N12  Dn1  v127
 BYTE   W01
 BYTE   VOL   37*FE04MidbossJack_G_mvl/mxv
 BYTE   W06
 BYTE   VOL   36*FE04MidbossJack_G_mvl/mxv
 BYTE   W04
 BYTE   N12  Gn1  v127
 BYTE   W02
 BYTE   VOL   36*FE04MidbossJack_G_mvl/mxv
 BYTE   W06
 BYTE   VOL   36*FE04MidbossJack_G_mvl/mxv
 BYTE   W04
 BYTE   N12  Dn1  v127
 BYTE   W02
 BYTE   VOL   36*FE04MidbossJack_G_mvl/mxv
 BYTE   W06
 BYTE   VOL   36*FE04MidbossJack_G_mvl/mxv
 BYTE   W03
 BYTE   N12  Gn1  v127
 BYTE   W03
 BYTE   VOL   36*FE04MidbossJack_G_mvl/mxv
 BYTE   W06
 BYTE   VOL   36*FE04MidbossJack_G_mvl/mxv
 BYTE   W02
 BYTE   N12  Dn1  v127
 BYTE   W04
 BYTE   VOL   36*FE04MidbossJack_G_mvl/mxv
 BYTE   W06
 BYTE   VOL   36*FE04MidbossJack_G_mvl/mxv
 BYTE   W01
 BYTE   N12  Gn1  v127
 BYTE   W05
 BYTE   VOL   36*FE04MidbossJack_G_mvl/mxv
 BYTE   W06
 BYTE   VOL   36*FE04MidbossJack_G_mvl/mxv
 BYTE   N12  Dn1  v127
 BYTE   W06
 BYTE   VOL   36*FE04MidbossJack_G_mvl/mxv
 BYTE   W06
 BYTE   VOL   35*FE04MidbossJack_G_mvl/mxv
 BYTE   N05  Gn1  v127
 BYTE   W05
 BYTE   VOL   35*FE04MidbossJack_G_mvl/mxv
 BYTE   N05  Gn1  v127
 BYTE   W01
//  #01 //028   ----------------------------------------
 BYTE   VOL   35*FE04MidbossJack_G_mvl/mxv
 BYTE   W03
 BYTE   VOL   35*FE04MidbossJack_G_mvl/mxv
 BYTE   N05  Gn1  v127
 BYTE   W03
 BYTE   VOL   35*FE04MidbossJack_G_mvl/mxv
 BYTE   W02
 BYTE   VOL   35*FE04MidbossJack_G_mvl/mxv
 BYTE   N04  Gn1  v127
 BYTE   W04
 BYTE   VOL   35*FE04MidbossJack_G_mvl/mxv
 BYTE   N04  Gn1  v127
 BYTE   W04
 BYTE   VOL   35*FE04MidbossJack_G_mvl/mxv
 BYTE   N12  Gn1  v127
 BYTE   W02
 BYTE   VOL   35*FE04MidbossJack_G_mvl/mxv
 BYTE   W06
 BYTE   VOL   35*FE04MidbossJack_G_mvl/mxv
 BYTE   W04
 BYTE   N12  Dn1  v127
 BYTE   W02
 BYTE   VOL   35*FE04MidbossJack_G_mvl/mxv
 BYTE   W06
 BYTE   VOL   35*FE04MidbossJack_G_mvl/mxv
 BYTE   W03
 BYTE   N12  Gn1  v127
 BYTE   W03
 BYTE   VOL   35*FE04MidbossJack_G_mvl/mxv
 BYTE   W06
 BYTE   VOL   35*FE04MidbossJack_G_mvl/mxv
 BYTE   W02
 BYTE   N12  Dn1  v127
 BYTE   W04
 BYTE   VOL   35*FE04MidbossJack_G_mvl/mxv
 BYTE   W06
 BYTE   VOL   35*FE04MidbossJack_G_mvl/mxv
 BYTE   W01
 BYTE   N12  Gn1  v127
 BYTE   W05
 BYTE   VOL   35*FE04MidbossJack_G_mvl/mxv
 BYTE   W06
 BYTE   VOL   35*FE04MidbossJack_G_mvl/mxv
 BYTE   N12  Dn1  v127
 BYTE   W06
 BYTE   VOL   35*FE04MidbossJack_G_mvl/mxv
 BYTE   W06
 BYTE   VOL   35*FE04MidbossJack_G_mvl/mxv
 BYTE   N12  Gn1  v127
 BYTE   W06
 BYTE   VOL   35*FE04MidbossJack_G_mvl/mxv
 BYTE   W05
 BYTE   N12  Dn1  v127
 BYTE   W01
//  #01 //029   ----------------------------------------
 BYTE   VOL   35*FE04MidbossJack_G_mvl/mxv
 BYTE   W06
 BYTE   VOL   35*FE04MidbossJack_G_mvl/mxv
 BYTE   W04
 BYTE   N12  Gn1  v127
 BYTE   W02
 BYTE   VOL   35*FE04MidbossJack_G_mvl/mxv
 BYTE   W06
 BYTE   VOL   35*FE04MidbossJack_G_mvl/mxv
 BYTE   W04
 BYTE   N12  Dn1  v127
 BYTE   W02
 BYTE   VOL   35*FE04MidbossJack_G_mvl/mxv
 BYTE   W06
 BYTE   VOL   35*FE04MidbossJack_G_mvl/mxv
 BYTE   W03
 BYTE   VOL   35*FE04MidbossJack_G_mvl/mxv
 BYTE   N05  Gn1  v127
 BYTE   W03
 BYTE   VOL   35*FE04MidbossJack_G_mvl/mxv
 BYTE   W01
 BYTE   VOL   35*FE04MidbossJack_G_mvl/mxv
 BYTE   N05  Gn1  v127
 BYTE   W05
 BYTE   VOL   35*FE04MidbossJack_G_mvl/mxv
 BYTE   N05  Gn1  v127
 BYTE   W05
 BYTE   VOL   35*FE04MidbossJack_G_mvl/mxv
 BYTE   N04  Gn1  v127
 BYTE   W01
 BYTE   VOL   35*FE04MidbossJack_G_mvl/mxv
 BYTE   W03
 BYTE   VOL   35*FE04MidbossJack_G_mvl/mxv
 BYTE   N04  Gn1  v127
 BYTE   W03
 BYTE   VOL   35*FE04MidbossJack_G_mvl/mxv
 BYTE   W01
 BYTE   VOL   35*FE04MidbossJack_G_mvl/mxv
 BYTE   N12  Gn1  v127
 BYTE   W05
 BYTE   VOL   35*FE04MidbossJack_G_mvl/mxv
 BYTE   W06
 BYTE   VOL   35*FE04MidbossJack_G_mvl/mxv
 BYTE   N12  Dn1  v127
 BYTE   W06
 BYTE   VOL   35*FE04MidbossJack_G_mvl/mxv
 BYTE   W06
 BYTE   VOL   35*FE04MidbossJack_G_mvl/mxv
 BYTE   N12  Gn1  v127
 BYTE   W06
 BYTE   VOL   35*FE04MidbossJack_G_mvl/mxv
 BYTE   W05
 BYTE   N12  Dn1  v127
 BYTE   W01
 BYTE   VOL   35*FE04MidbossJack_G_mvl/mxv
 BYTE   W06
//  #01 //030   ----------------------------------------
 BYTE   VOL   35*FE04MidbossJack_G_mvl/mxv
 BYTE   W04
 BYTE   N12  Gn1  v127
 BYTE   W02
 BYTE   VOL   35*FE04MidbossJack_G_mvl/mxv
 BYTE   W06
 BYTE   VOL   35*FE04MidbossJack_G_mvl/mxv
 BYTE   W04
 BYTE   N12  Dn1  v127
 BYTE   W02
 BYTE   VOL   35*FE04MidbossJack_G_mvl/mxv
 BYTE   W06
 BYTE   VOL   35*FE04MidbossJack_G_mvl/mxv
 BYTE   W03
 BYTE   VOL   35*FE04MidbossJack_G_mvl/mxv
 BYTE   N05  Gn1  v127
 BYTE   W03
 BYTE   VOL   35*FE04MidbossJack_G_mvl/mxv
 BYTE   W01
 BYTE   VOL   35*FE04MidbossJack_G_mvl/mxv
 BYTE   N05  Gn1  v127
 BYTE   W05
 BYTE   VOL   35*FE04MidbossJack_G_mvl/mxv
 BYTE   N05  Gn1  v127
 BYTE   W05
 BYTE   VOL   35*FE04MidbossJack_G_mvl/mxv
 BYTE   N04  Gn1  v127
 BYTE   W01
 BYTE   VOL   35*FE04MidbossJack_G_mvl/mxv
 BYTE   W03
 BYTE   VOL   35*FE04MidbossJack_G_mvl/mxv
 BYTE   N04  Gn1  v127
 BYTE   W03
 BYTE   VOL   35*FE04MidbossJack_G_mvl/mxv
 BYTE   W01
 BYTE   VOL   35*FE04MidbossJack_G_mvl/mxv
 BYTE   N12  Gn1  v127
 BYTE   W05
 BYTE   VOL   35*FE04MidbossJack_G_mvl/mxv
 BYTE   W06
 BYTE   VOL   35*FE04MidbossJack_G_mvl/mxv
 BYTE   N12  Dn1  v127
 BYTE   W06
 BYTE   VOL   35*FE04MidbossJack_G_mvl/mxv
 BYTE   W06
 BYTE   VOL   35*FE04MidbossJack_G_mvl/mxv
 BYTE   N12  Gn1  v127
 BYTE   W06
 BYTE   VOL   35*FE04MidbossJack_G_mvl/mxv
 BYTE   W05
 BYTE   N12  Dn1  v127
 BYTE   W01
 BYTE   VOL   35*FE04MidbossJack_G_mvl/mxv
 BYTE   W06
 BYTE   VOL   35*FE04MidbossJack_G_mvl/mxv
 BYTE   W04
 BYTE   N12  Gn1  v127
 BYTE   W02
//  #01 //031   ----------------------------------------
 BYTE   VOL   35*FE04MidbossJack_G_mvl/mxv
 BYTE   W06
 BYTE   VOL   35*FE04MidbossJack_G_mvl/mxv
 BYTE   W04
 BYTE   N12  Dn1  v127
 BYTE   W02
 BYTE   VOL   35*FE04MidbossJack_G_mvl/mxv
 BYTE   W06
 BYTE   VOL   35*FE04MidbossJack_G_mvl/mxv
 BYTE   W03
 BYTE   VOL   35*FE04MidbossJack_G_mvl/mxv
 BYTE   N03  Gn1  v127
 BYTE   W03
 BYTE   VOL   35*FE04MidbossJack_G_mvl/mxv
 BYTE   FINE

//**************** Track 2 (Midi-Chn.1) ****************//

FE04MidbossJack_G_002:
//  #02 //000   ----------------------------------------
 BYTE   KEYSH   FE04MidbossJack_G_key+0
 BYTE   VOL   5*FE04MidbossJack_G_mvl/mxv
 BYTE   PAN   c_v+0
 BYTE   BEND   c_v+0
 BYTE   BENDR  12
 BYTE   BENDR  12
 BYTE   LFOS 44
 BYTE   LFOS 44
 BYTE   TEMPO   164*FE04MidbossJack_G_tbs/2
 BYTE   W19
 BYTE   VOICE   48
 BYTE   VOL   122*FE04MidbossJack_G_mvl/mxv
 BYTE   PAN   c_v-4
 BYTE   W24
 BYTE   N23  Bn3  v127
 BYTE   W72
//  #02 //001   ----------------------------------------
 BYTE   VOICE   48
 BYTE   VOL   98*FE04MidbossJack_G_mvl/mxv
 BYTE   PAN   c_v-4
 BYTE   W72
 BYTE   N68  Dn3  v127
 BYTE   W04
Label_015C4F65:
 BYTE   W28
//  #02 //002   ----------------------------------------
 BYTE   W01
 BYTE   N03  Dn3  v127
 BYTE   W36
 BYTE   W02
 BYTE   N68  Dn4
 BYTE   W32
 BYTE   W02
 BYTE   N03
 BYTE   W36
//  #02 //003   ----------------------------------------
 BYTE   W02
 BYTE   N68  Fs3
 BYTE   W32
 BYTE   W02
 BYTE   N03
 BYTE   W36
 BYTE   W02
 BYTE   N44  Fs4
 BYTE   W22
//  #02 //004   ----------------------------------------
 BYTE   N03
 BYTE   W48
 BYTE   W02
Label_015C4F80:
 BYTE   VOL   98*FE04MidbossJack_G_mvl/mxv
 BYTE   PAN   c_v-4
 BYTE   N05  An4  v127
 BYTE   W12
 BYTE   N32
 BYTE   W12
 BYTE   VOL   15*FE04MidbossJack_G_mvl/mxv
 BYTE   PAN   c_v+26
 BYTE   W04
 BYTE   N03  An4  v127
 BYTE   W44
 BYTE   PEND 
//  #02 //005   ----------------------------------------
 BYTE   PATT
  POIN2 Label_015C4F80
//  #02 //006   ----------------------------------------
Label_015C4F99:
 BYTE   VOL   8*FE04MidbossJack_G_mvl/mxv
 BYTE   PAN   c_v-4
 BYTE   N05  An4  v127
 BYTE   W24
 BYTE   VOL   16*FE04MidbossJack_G_mvl/mxv
 BYTE   N05  An4  v127
 BYTE   W24
 BYTE   PEND 
Label_015C4FA8:
 BYTE   VOL   31*FE04MidbossJack_G_mvl/mxv
 BYTE   N05  An4  v127
 BYTE   W24
 BYTE   VOL   55*FE04MidbossJack_G_mvl/mxv
 BYTE   N05  An4  v127
 BYTE   W24
 BYTE   PEND 
//  #02 //007   ----------------------------------------
Label_015C4FB5:
 BYTE   VOL   90*FE04MidbossJack_G_mvl/mxv
 BYTE   N05  An4  v127
 BYTE   W24
 BYTE   VOL   122*FE04MidbossJack_G_mvl/mxv
 BYTE   N05  An4  v127
 BYTE   W24
 BYTE   PEND 
Label_015C4FC2:
 BYTE   VOICE   56
 BYTE   VOL   72*FE04MidbossJack_G_mvl/mxv
 BYTE   PAN   c_v+16
 BYTE   N36  An3  v127
 BYTE   W48
//  #02 //008   ----------------------------------------
 BYTE   Cn4
 BYTE   W48
 BYTE   As3
 BYTE   W48
//  #02 //009   ----------------------------------------
 BYTE   Ds4
 BYTE   W48
 BYTE   N54  Dn4
 BYTE   W72
//  #02 //010   ----------------------------------------
 BYTE   N09  An3
 BYTE   W24
 BYTE   N36  As3
 BYTE   W48
 BYTE   Ds4
 BYTE   W48
//  #02 //011   ----------------------------------------
 BYTE   N96  Dn4
 BYTE   W96
//  #02 //012   ----------------------------------------
 BYTE   W96
 BYTE   PEND 
//  #02 //013   ----------------------------------------
 BYTE   VOICE   48
 BYTE   VOL   98*FE04MidbossJack_G_mvl/mxv
 BYTE   PAN   c_v-4
 BYTE   W72
 BYTE   N68  Dn3  v127
 BYTE   W32
//  #02 //014   ----------------------------------------
 BYTE   W02
 BYTE   N03
 BYTE   W36
 BYTE   W02
 BYTE   N68  Dn4
 BYTE   W32
 BYTE   W02
 BYTE   N03
 BYTE   W36
//  #02 //015   ----------------------------------------
 BYTE   W02
 BYTE   N68  Fs3
 BYTE   W32
 BYTE   W02
 BYTE   N03
 BYTE   W36
 BYTE   W02
 BYTE   N44  Fs4
 BYTE   W22
//  #02 //016   ----------------------------------------
 BYTE   N03
 BYTE   W48
 BYTE   W02
//  #02 //017   ----------------------------------------
 BYTE   PATT
  POIN2 Label_015C4F80
//  #02 //018   ----------------------------------------
 BYTE   PATT
  POIN2 Label_015C4F80
//  #02 //019   ----------------------------------------
 BYTE   PATT
  POIN2 Label_015C4F99
//  #02 //020   ----------------------------------------
 BYTE   PATT
  POIN2 Label_015C4FA8
//  #02 //021   ----------------------------------------
 BYTE   PATT
  POIN2 Label_015C4FB5
//  #02 //022   ----------------------------------------
 BYTE   PATT
  POIN2 Label_015C4FC2
//  #02 //023   ----------------------------------------
 BYTE   VOICE   48
 BYTE   VOL   98*FE04MidbossJack_G_mvl/mxv
 BYTE   PAN   c_v-4
 BYTE   VOL   98*FE04MidbossJack_G_mvl/mxv
 BYTE   W06
 BYTE   VOL   94*FE04MidbossJack_G_mvl/mxv
 BYTE   W06
 BYTE   VOL   90*FE04MidbossJack_G_mvl/mxv
 BYTE   W06
 BYTE   VOL   87*FE04MidbossJack_G_mvl/mxv
 BYTE   W06
 BYTE   VOL   82*FE04MidbossJack_G_mvl/mxv
 BYTE   W06
 BYTE   VOL   81*FE04MidbossJack_G_mvl/mxv
 BYTE   W06
 BYTE   VOL   77*FE04MidbossJack_G_mvl/mxv
 BYTE   W06
 BYTE   VOL   74*FE04MidbossJack_G_mvl/mxv
 BYTE   W06
 BYTE   VOL   72*FE04MidbossJack_G_mvl/mxv
 BYTE   W06
 BYTE   VOL   68*FE04MidbossJack_G_mvl/mxv
 BYTE   W06
 BYTE   VOL   65*FE04MidbossJack_G_mvl/mxv
 BYTE   W06
 BYTE   VOL   61*FE04MidbossJack_G_mvl/mxv
 BYTE   W01
 BYTE   N68  Dn3  v127
 BYTE   W04
 BYTE   GoTo
  POIN2 Label_015C4F65
//  #02 //024   ----------------------------------------
 BYTE   VOL   60*FE04MidbossJack_G_mvl/mxv
 BYTE   W06
 BYTE   VOL   56*FE04MidbossJack_G_mvl/mxv
 BYTE   W06
 BYTE   VOL   55*FE04MidbossJack_G_mvl/mxv
 BYTE   W06
 BYTE   VOL   52*FE04MidbossJack_G_mvl/mxv
 BYTE   W06
 BYTE   VOL   52*FE04MidbossJack_G_mvl/mxv
 BYTE   W03
 BYTE   N03  Dn3  v127
 BYTE   W03
 BYTE   VOL   50*FE04MidbossJack_G_mvl/mxv
 BYTE   W06
 BYTE   VOL   49*FE04MidbossJack_G_mvl/mxv
 BYTE   W06
 BYTE   VOL   46*FE04MidbossJack_G_mvl/mxv
 BYTE   W06
 BYTE   VOL   45*FE04MidbossJack_G_mvl/mxv
 BYTE   W06
 BYTE   VOL   42*FE04MidbossJack_G_mvl/mxv
 BYTE   W06
 BYTE   VOL   41*FE04MidbossJack_G_mvl/mxv
 BYTE   W03
 BYTE   N68  Dn4  v127
 BYTE   W03
 BYTE   VOL   37*FE04MidbossJack_G_mvl/mxv
 BYTE   W06
 BYTE   VOL   36*FE04MidbossJack_G_mvl/mxv
 BYTE   W06
 BYTE   VOL   35*FE04MidbossJack_G_mvl/mxv
 BYTE   W06
 BYTE   VOL   32*FE04MidbossJack_G_mvl/mxv
 BYTE   W06
 BYTE   VOL   31*FE04MidbossJack_G_mvl/mxv
 BYTE   W05
 BYTE   N03  Dn4  v127
 BYTE   W01
//  #02 //025   ----------------------------------------
 BYTE   VOL   31*FE04MidbossJack_G_mvl/mxv
 BYTE   W06
 BYTE   VOL   29*FE04MidbossJack_G_mvl/mxv
 BYTE   W06
 BYTE   VOL   27*FE04MidbossJack_G_mvl/mxv
 BYTE   W06
 BYTE   VOL   26*FE04MidbossJack_G_mvl/mxv
 BYTE   W06
 BYTE   VOL   26*FE04MidbossJack_G_mvl/mxv
 BYTE   W06
 BYTE   VOL   24*FE04MidbossJack_G_mvl/mxv
 BYTE   W04
 BYTE   N68  Fs3  v127
 BYTE   W02
 BYTE   VOL   23*FE04MidbossJack_G_mvl/mxv
 BYTE   W06
 BYTE   VOL   23*FE04MidbossJack_G_mvl/mxv
 BYTE   W06
 BYTE   VOL   21*FE04MidbossJack_G_mvl/mxv
 BYTE   W06
 BYTE   VOL   20*FE04MidbossJack_G_mvl/mxv
 BYTE   W06
 BYTE   VOL   19*FE04MidbossJack_G_mvl/mxv
 BYTE   W06
 BYTE   VOL   18*FE04MidbossJack_G_mvl/mxv
 BYTE   N03  Fs3  v127
 BYTE   W06
 BYTE   VOL   16*FE04MidbossJack_G_mvl/mxv
 BYTE   W06
 BYTE   VOL   16*FE04MidbossJack_G_mvl/mxv
 BYTE   W06
 BYTE   VOL   15*FE04MidbossJack_G_mvl/mxv
 BYTE   W06
 BYTE   VOL   14*FE04MidbossJack_G_mvl/mxv
 BYTE   W06
//  #02 //026   ----------------------------------------
 BYTE   VOL   13*FE04MidbossJack_G_mvl/mxv
 BYTE   W06
 BYTE   VOL   12*FE04MidbossJack_G_mvl/mxv
 BYTE   N44  Fs4  v127
 BYTE   W06
 BYTE   VOL   12*FE04MidbossJack_G_mvl/mxv
 BYTE   W06
 BYTE   VOL   11*FE04MidbossJack_G_mvl/mxv
 BYTE   W06
 BYTE   VOL   11*FE04MidbossJack_G_mvl/mxv
 BYTE   W02
 BYTE   N03  Fs4  v127
 BYTE   W04
 BYTE   VOL   11*FE04MidbossJack_G_mvl/mxv
 BYTE   W06
 BYTE   VOL   10*FE04MidbossJack_G_mvl/mxv
 BYTE   W06
 BYTE   VOL   9*FE04MidbossJack_G_mvl/mxv
 BYTE   W06
 BYTE   VOL   8*FE04MidbossJack_G_mvl/mxv
 BYTE   W06
 BYTE   VOL   8*FE04MidbossJack_G_mvl/mxv
 BYTE   W06
 BYTE   VOL   7*FE04MidbossJack_G_mvl/mxv
 BYTE   W06
 BYTE   VOL   7*FE04MidbossJack_G_mvl/mxv
 BYTE   W06
 BYTE   VOL   7*FE04MidbossJack_G_mvl/mxv
 BYTE   W01
 BYTE   VOL   7*FE04MidbossJack_G_mvl/mxv
 BYTE   PAN   c_v-4
 BYTE   N05  An4  v127
 BYTE   W05
 BYTE   VOL   6*FE04MidbossJack_G_mvl/mxv
 BYTE   W06
 BYTE   VOL   6*FE04MidbossJack_G_mvl/mxv
 BYTE   N32  An4  v127
 BYTE   W06
 BYTE   VOL   5*FE04MidbossJack_G_mvl/mxv
 BYTE   W06
//  #02 //027   ----------------------------------------
 BYTE   VOL   1*FE04MidbossJack_G_mvl/mxv
 BYTE   PAN   c_v+26
 BYTE   W04
 BYTE   N03  An4  v127
 BYTE   W02
 BYTE   VOL   1*FE04MidbossJack_G_mvl/mxv
 BYTE   W06
 BYTE   VOL   1*FE04MidbossJack_G_mvl/mxv
 BYTE   W06
 BYTE   VOL   1*FE04MidbossJack_G_mvl/mxv
 BYTE   W06
 BYTE   VOL   1*FE04MidbossJack_G_mvl/mxv
 BYTE   W06
 BYTE   VOL   1*FE04MidbossJack_G_mvl/mxv
 BYTE   W06
 BYTE   VOL   0*FE04MidbossJack_G_mvl/mxv
 BYTE   W06
 BYTE   VOL   0*FE04MidbossJack_G_mvl/mxv
 BYTE   W03
 BYTE   VOL   3*FE04MidbossJack_G_mvl/mxv
 BYTE   PAN   c_v-4
 BYTE   N05  An4  v127
 BYTE   W03
 BYTE   VOL   3*FE04MidbossJack_G_mvl/mxv
 BYTE   W06
 BYTE   VOL   2*FE04MidbossJack_G_mvl/mxv
 BYTE   W02
 BYTE   N32  An4  v127
 BYTE   W04
 BYTE   VOL   2*FE04MidbossJack_G_mvl/mxv
 BYTE   W06
 BYTE   VOL   2*FE04MidbossJack_G_mvl/mxv
 BYTE   W01
 BYTE   VOL   0*FE04MidbossJack_G_mvl/mxv
 BYTE   PAN   c_v+26
 BYTE   W04
 BYTE   N03  An4  v127
 BYTE   W01
 BYTE   VOL   0*FE04MidbossJack_G_mvl/mxv
 BYTE   W06
 BYTE   VOL   0*FE04MidbossJack_G_mvl/mxv
 BYTE   W06
 BYTE   VOL   0*FE04MidbossJack_G_mvl/mxv
 BYTE   W06
 BYTE   VOL   0*FE04MidbossJack_G_mvl/mxv
 BYTE   W06
//  #02 //028   ----------------------------------------
 BYTE   VOL   0*FE04MidbossJack_G_mvl/mxv
 BYTE   W06
 BYTE   VOL   0*FE04MidbossJack_G_mvl/mxv
 BYTE   W06
 BYTE   VOL   0*FE04MidbossJack_G_mvl/mxv
 BYTE   W04
 BYTE   VOL   0*FE04MidbossJack_G_mvl/mxv
 BYTE   PAN   c_v-4
 BYTE   N05  An4  v127
 BYTE   W02
 BYTE   VOL   0*FE04MidbossJack_G_mvl/mxv
 BYTE   W06
 BYTE   VOL   0*FE04MidbossJack_G_mvl/mxv
 BYTE   W06
 BYTE   VOL   0*FE04MidbossJack_G_mvl/mxv
 BYTE   W06
 BYTE   VOL   0*FE04MidbossJack_G_mvl/mxv
 BYTE   W03
 BYTE   VOL   0*FE04MidbossJack_G_mvl/mxv
 BYTE   N05  An4  v127
 BYTE   W03
 BYTE   VOL   0*FE04MidbossJack_G_mvl/mxv
 BYTE   W06
 BYTE   VOL   0*FE04MidbossJack_G_mvl/mxv
 BYTE   W06
 BYTE   VOL   0*FE04MidbossJack_G_mvl/mxv
 BYTE   W06
 BYTE   VOL   0*FE04MidbossJack_G_mvl/mxv
 BYTE   W01
 BYTE   VOL   0*FE04MidbossJack_G_mvl/mxv
 BYTE   N05  An4  v127
 BYTE   W05
 BYTE   VOL   0*FE04MidbossJack_G_mvl/mxv
 BYTE   W06
 BYTE   VOL   0*FE04MidbossJack_G_mvl/mxv
 BYTE   W06
 BYTE   VOL   0*FE04MidbossJack_G_mvl/mxv
 BYTE   W06
 BYTE   VOL   0*FE04MidbossJack_G_mvl/mxv
 BYTE   N05  An4  v127
 BYTE   W06
 BYTE   VOL   0*FE04MidbossJack_G_mvl/mxv
 BYTE   W06
//  #02 //029   ----------------------------------------
 BYTE   VOL   0*FE04MidbossJack_G_mvl/mxv
 BYTE   W06
 BYTE   VOL   0*FE04MidbossJack_G_mvl/mxv
 BYTE   W04
 BYTE   VOL   0*FE04MidbossJack_G_mvl/mxv
 BYTE   N05  An4  v127
 BYTE   W02
 BYTE   VOL   0*FE04MidbossJack_G_mvl/mxv
 BYTE   W06
 BYTE   VOL   0*FE04MidbossJack_G_mvl/mxv
 BYTE   W06
 BYTE   VOL   0*FE04MidbossJack_G_mvl/mxv
 BYTE   W06
 BYTE   VOL   0*FE04MidbossJack_G_mvl/mxv
 BYTE   W03
 BYTE   VOL   0*FE04MidbossJack_G_mvl/mxv
 BYTE   N05  An4  v127
 BYTE   W03
 BYTE   VOL   0*FE04MidbossJack_G_mvl/mxv
 BYTE   W06
 BYTE   VOL   0*FE04MidbossJack_G_mvl/mxv
 BYTE   W06
 BYTE   VOL   0*FE04MidbossJack_G_mvl/mxv
 BYTE   W06
 BYTE   VOL   0*FE04MidbossJack_G_mvl/mxv
 BYTE   W01
 BYTE   VOICE   56
 BYTE   VOL   0*FE04MidbossJack_G_mvl/mxv
 BYTE   PAN   c_v+16
 BYTE   N36  An3  v127
 BYTE   W05
 BYTE   VOL   0*FE04MidbossJack_G_mvl/mxv
 BYTE   W06
 BYTE   VOL   0*FE04MidbossJack_G_mvl/mxv
 BYTE   W06
 BYTE   VOL   0*FE04MidbossJack_G_mvl/mxv
 BYTE   W06
 BYTE   VOL   0*FE04MidbossJack_G_mvl/mxv
 BYTE   W06
 BYTE   VOL   0*FE04MidbossJack_G_mvl/mxv
 BYTE   W06
 BYTE   VOL   0*FE04MidbossJack_G_mvl/mxv
 BYTE   W06
//  #02 //030   ----------------------------------------
 BYTE   VOL   0*FE04MidbossJack_G_mvl/mxv
 BYTE   W04
 BYTE   N36  Cn4  v127
 BYTE   W02
 BYTE   VOL   0*FE04MidbossJack_G_mvl/mxv
 BYTE   W06
 BYTE   VOL   0*FE04MidbossJack_G_mvl/mxv
 BYTE   W06
 BYTE   VOL   0*FE04MidbossJack_G_mvl/mxv
 BYTE   W06
 BYTE   VOL   0*FE04MidbossJack_G_mvl/mxv
 BYTE   W06
 BYTE   VOL   0*FE04MidbossJack_G_mvl/mxv
 BYTE   W06
 BYTE   VOL   0*FE04MidbossJack_G_mvl/mxv
 BYTE   W06
 BYTE   VOL   0*FE04MidbossJack_G_mvl/mxv
 BYTE   W06
 BYTE   VOL   0*FE04MidbossJack_G_mvl/mxv
 BYTE   W01
 BYTE   N36  As3  v127
 BYTE   W05
 BYTE   VOL   0*FE04MidbossJack_G_mvl/mxv
 BYTE   W06
 BYTE   VOL   0*FE04MidbossJack_G_mvl/mxv
 BYTE   W06
 BYTE   VOL   0*FE04MidbossJack_G_mvl/mxv
 BYTE   W06
 BYTE   VOL   0*FE04MidbossJack_G_mvl/mxv
 BYTE   W06
 BYTE   VOL   0*FE04MidbossJack_G_mvl/mxv
 BYTE   W06
 BYTE   VOL   0*FE04MidbossJack_G_mvl/mxv
 BYTE   W06
 BYTE   VOL   0*FE04MidbossJack_G_mvl/mxv
 BYTE   W04
 BYTE   N24  Ds4  v127
 BYTE   W02
//  #02 //031   ----------------------------------------
 BYTE   VOL   0*FE04MidbossJack_G_mvl/mxv
 BYTE   W06
 BYTE   VOL   0*FE04MidbossJack_G_mvl/mxv
 BYTE   W04
 BYTE   N03  Ds4  v127
 BYTE   W02
 BYTE   VOL   0*FE04MidbossJack_G_mvl/mxv
 BYTE   W06
 BYTE   VOL   0*FE04MidbossJack_G_mvl/mxv
 BYTE   W06
 BYTE   VOL   0*FE04MidbossJack_G_mvl/mxv
 BYTE   FINE

//**************** Track 3 (Midi-Chn.2) ****************//

FE04MidbossJack_G_003:
//  #03 //000   ----------------------------------------
 BYTE   KEYSH   FE04MidbossJack_G_key+0
 BYTE   VOL   10*FE04MidbossJack_G_mvl/mxv
 BYTE   PAN   c_v+0
 BYTE   BEND   c_v+0
 BYTE   BENDR  12
 BYTE   BENDR  12
 BYTE   LFOS 44
 BYTE   LFOS 44
 BYTE   TEMPO   164*FE04MidbossJack_G_tbs/2
 BYTE   W19
 BYTE   VOICE   48
 BYTE   VOL   127*FE04MidbossJack_G_mvl/mxv
 BYTE   PAN   c_v+0
 BYTE   W24
 BYTE   N23  Gs3  v127
 BYTE   W72
//  #03 //001   ----------------------------------------
 BYTE   VOICE   48
 BYTE   VOL   103*FE04MidbossJack_G_mvl/mxv
 BYTE   PAN   c_v+0
 BYTE   W66
 BYTE   N68  Gn2  v127
 BYTE   W10
Label_01359EC1:
 BYTE   W23
//  #03 //002   ----------------------------------------
 BYTE   N03  Gn2  v127
 BYTE   W36
 BYTE   W02
 BYTE   N76  Gn3
 BYTE   W36
 BYTE   W02
 BYTE   N01
 BYTE   W40
//  #03 //003   ----------------------------------------
 BYTE   N64  As2
 BYTE   W32
 BYTE   N01
 BYTE   W32
 BYTE   W02
 BYTE   N76  As3
 BYTE   W36
//  #03 //004   ----------------------------------------
 BYTE   W02
 BYTE   N01
 BYTE   W40
Label_01359ED9:
 BYTE   VOL   103*FE04MidbossJack_G_mvl/mxv
 BYTE   PAN   c_v-4
 BYTE   N05  Dn4  v127
 BYTE   W12
 BYTE   N32
 BYTE   W12
 BYTE   VOL   20*FE04MidbossJack_G_mvl/mxv
 BYTE   PAN   c_v+26
 BYTE   W04
 BYTE   N03  Dn4  v127
 BYTE   W44
 BYTE   PEND 
//  #03 //005   ----------------------------------------
 BYTE   PATT
  POIN2 Label_01359ED9
//  #03 //006   ----------------------------------------
Label_01359EF2:
 BYTE   VOL   13*FE04MidbossJack_G_mvl/mxv
 BYTE   PAN   c_v-4
 BYTE   N05  Dn4  v127
 BYTE   W24
 BYTE   VOL   21*FE04MidbossJack_G_mvl/mxv
 BYTE   N05  Dn4  v127
 BYTE   W24
 BYTE   PEND 
Label_01359F01:
 BYTE   VOL   36*FE04MidbossJack_G_mvl/mxv
 BYTE   N05  Dn4  v127
 BYTE   W24
 BYTE   VOL   60*FE04MidbossJack_G_mvl/mxv
 BYTE   N05  Dn4  v127
 BYTE   W24
 BYTE   PEND 
//  #03 //007   ----------------------------------------
Label_01359F0E:
 BYTE   VOL   95*FE04MidbossJack_G_mvl/mxv
 BYTE   N05  Dn4  v127
 BYTE   W24
 BYTE   VOL   127*FE04MidbossJack_G_mvl/mxv
 BYTE   N05  Dn4  v127
 BYTE   W24
 BYTE   PEND 
Label_01359F1B:
 BYTE   VOICE   56
 BYTE   VOL   77*FE04MidbossJack_G_mvl/mxv
 BYTE   PAN   c_v-24
 BYTE   N36  En3  v127
 BYTE   W48
//  #03 //008   ----------------------------------------
 BYTE   Gn3
 BYTE   W48
 BYTE   Fn3
 BYTE   W48
//  #03 //009   ----------------------------------------
 BYTE   As3
 BYTE   W48
 BYTE   N54  An3
 BYTE   W72
//  #03 //010   ----------------------------------------
 BYTE   N09  Dn3
 BYTE   W24
 BYTE   N36  Ds3
 BYTE   W48
 BYTE   Gs3
 BYTE   W48
//  #03 //011   ----------------------------------------
 BYTE   N96  Gn3
 BYTE   W96
//  #03 //012   ----------------------------------------
 BYTE   W96
 BYTE   PEND 
//  #03 //013   ----------------------------------------
 BYTE   VOICE   48
 BYTE   VOL   103*FE04MidbossJack_G_mvl/mxv
 BYTE   PAN   c_v+0
 BYTE   W66
 BYTE   N68  Gn2  v127
 BYTE   W32
//  #03 //014   ----------------------------------------
 BYTE   W02
 BYTE   N03
 BYTE   W36
 BYTE   W02
 BYTE   N76  Gn3
 BYTE   W36
 BYTE   W02
 BYTE   N01
 BYTE   W40
//  #03 //015   ----------------------------------------
 BYTE   N64  As2
 BYTE   W32
 BYTE   N01
 BYTE   W32
 BYTE   W02
 BYTE   N76  As3
 BYTE   W36
//  #03 //016   ----------------------------------------
 BYTE   W02
 BYTE   N01
 BYTE   W40
//  #03 //017   ----------------------------------------
 BYTE   PATT
  POIN2 Label_01359ED9
//  #03 //018   ----------------------------------------
 BYTE   PATT
  POIN2 Label_01359ED9
//  #03 //019   ----------------------------------------
 BYTE   PATT
  POIN2 Label_01359EF2
//  #03 //020   ----------------------------------------
 BYTE   PATT
  POIN2 Label_01359F01
//  #03 //021   ----------------------------------------
 BYTE   PATT
  POIN2 Label_01359F0E
//  #03 //022   ----------------------------------------
 BYTE   PATT
  POIN2 Label_01359F1B
//  #03 //023   ----------------------------------------
 BYTE   VOICE   48
 BYTE   VOL   103*FE04MidbossJack_G_mvl/mxv
 BYTE   PAN   c_v+0
 BYTE   VOL   103*FE04MidbossJack_G_mvl/mxv
 BYTE   W06
 BYTE   VOL   99*FE04MidbossJack_G_mvl/mxv
 BYTE   W06
 BYTE   VOL   95*FE04MidbossJack_G_mvl/mxv
 BYTE   W06
 BYTE   VOL   92*FE04MidbossJack_G_mvl/mxv
 BYTE   W06
 BYTE   VOL   87*FE04MidbossJack_G_mvl/mxv
 BYTE   W06
 BYTE   VOL   86*FE04MidbossJack_G_mvl/mxv
 BYTE   W06
 BYTE   VOL   82*FE04MidbossJack_G_mvl/mxv
 BYTE   W06
 BYTE   VOL   79*FE04MidbossJack_G_mvl/mxv
 BYTE   W06
 BYTE   VOL   77*FE04MidbossJack_G_mvl/mxv
 BYTE   W06
 BYTE   VOL   73*FE04MidbossJack_G_mvl/mxv
 BYTE   W06
 BYTE   VOL   70*FE04MidbossJack_G_mvl/mxv
 BYTE   W02
 BYTE   N68  Gn2  v127
 BYTE   W04
 BYTE   VOL   66*FE04MidbossJack_G_mvl/mxv
 BYTE   W06
 BYTE   GoTo
  POIN2 Label_01359EC1
//  #03 //024   ----------------------------------------
 BYTE   VOL   65*FE04MidbossJack_G_mvl/mxv
 BYTE   W06
 BYTE   VOL   61*FE04MidbossJack_G_mvl/mxv
 BYTE   W06
 BYTE   VOL   60*FE04MidbossJack_G_mvl/mxv
 BYTE   W06
 BYTE   VOL   57*FE04MidbossJack_G_mvl/mxv
 BYTE   W04
 BYTE   N03  Gn2  v127
 BYTE   W02
 BYTE   VOL   57*FE04MidbossJack_G_mvl/mxv
 BYTE   W06
 BYTE   VOL   55*FE04MidbossJack_G_mvl/mxv
 BYTE   W06
 BYTE   VOL   54*FE04MidbossJack_G_mvl/mxv
 BYTE   W06
 BYTE   VOL   51*FE04MidbossJack_G_mvl/mxv
 BYTE   W06
 BYTE   VOL   50*FE04MidbossJack_G_mvl/mxv
 BYTE   W06
 BYTE   VOL   47*FE04MidbossJack_G_mvl/mxv
 BYTE   W03
 BYTE   N76  Gn3  v127
 BYTE   W03
 BYTE   VOL   46*FE04MidbossJack_G_mvl/mxv
 BYTE   W06
 BYTE   VOL   42*FE04MidbossJack_G_mvl/mxv
 BYTE   W06
 BYTE   VOL   41*FE04MidbossJack_G_mvl/mxv
 BYTE   W06
 BYTE   VOL   40*FE04MidbossJack_G_mvl/mxv
 BYTE   W06
 BYTE   VOL   37*FE04MidbossJack_G_mvl/mxv
 BYTE   W06
 BYTE   VOL   36*FE04MidbossJack_G_mvl/mxv
 BYTE   W03
 BYTE   N01  Gn3  v127
 BYTE   W03
//  #03 //025   ----------------------------------------
 BYTE   VOL   36*FE04MidbossJack_G_mvl/mxv
 BYTE   W06
 BYTE   VOL   34*FE04MidbossJack_G_mvl/mxv
 BYTE   W06
 BYTE   VOL   32*FE04MidbossJack_G_mvl/mxv
 BYTE   W06
 BYTE   VOL   31*FE04MidbossJack_G_mvl/mxv
 BYTE   W06
 BYTE   VOL   31*FE04MidbossJack_G_mvl/mxv
 BYTE   W06
 BYTE   VOL   29*FE04MidbossJack_G_mvl/mxv
 BYTE   W04
 BYTE   N64  As2  v127
 BYTE   W02
 BYTE   VOL   28*FE04MidbossJack_G_mvl/mxv
 BYTE   W06
 BYTE   VOL   28*FE04MidbossJack_G_mvl/mxv
 BYTE   W06
 BYTE   VOL   26*FE04MidbossJack_G_mvl/mxv
 BYTE   W06
 BYTE   VOL   25*FE04MidbossJack_G_mvl/mxv
 BYTE   W06
 BYTE   VOL   24*FE04MidbossJack_G_mvl/mxv
 BYTE   W04
 BYTE   N01  As2  v127
 BYTE   W02
 BYTE   VOL   23*FE04MidbossJack_G_mvl/mxv
 BYTE   W06
 BYTE   VOL   21*FE04MidbossJack_G_mvl/mxv
 BYTE   W06
 BYTE   VOL   21*FE04MidbossJack_G_mvl/mxv
 BYTE   W06
 BYTE   VOL   20*FE04MidbossJack_G_mvl/mxv
 BYTE   W06
 BYTE   VOL   19*FE04MidbossJack_G_mvl/mxv
 BYTE   W06
//  #03 //026   ----------------------------------------
 BYTE   VOL   18*FE04MidbossJack_G_mvl/mxv
 BYTE   N76  As3  v127
 BYTE   W06
 BYTE   VOL   17*FE04MidbossJack_G_mvl/mxv
 BYTE   W06
 BYTE   VOL   17*FE04MidbossJack_G_mvl/mxv
 BYTE   W06
 BYTE   VOL   16*FE04MidbossJack_G_mvl/mxv
 BYTE   W06
 BYTE   VOL   16*FE04MidbossJack_G_mvl/mxv
 BYTE   W06
 BYTE   VOL   16*FE04MidbossJack_G_mvl/mxv
 BYTE   W06
 BYTE   VOL   15*FE04MidbossJack_G_mvl/mxv
 BYTE   N01  As3  v127
 BYTE   W06
 BYTE   VOL   14*FE04MidbossJack_G_mvl/mxv
 BYTE   W06
 BYTE   VOL   13*FE04MidbossJack_G_mvl/mxv
 BYTE   W06
 BYTE   VOL   13*FE04MidbossJack_G_mvl/mxv
 BYTE   W06
 BYTE   VOL   12*FE04MidbossJack_G_mvl/mxv
 BYTE   W06
 BYTE   VOL   12*FE04MidbossJack_G_mvl/mxv
 BYTE   W06
 BYTE   VOL   12*FE04MidbossJack_G_mvl/mxv
 BYTE   W01
 BYTE   VOL   12*FE04MidbossJack_G_mvl/mxv
 BYTE   PAN   c_v-4
 BYTE   N05  Dn4  v127
 BYTE   W05
 BYTE   VOL   11*FE04MidbossJack_G_mvl/mxv
 BYTE   W06
 BYTE   VOL   11*FE04MidbossJack_G_mvl/mxv
 BYTE   N32  Dn4  v127
 BYTE   W06
 BYTE   VOL   10*FE04MidbossJack_G_mvl/mxv
 BYTE   W06
//  #03 //027   ----------------------------------------
 BYTE   VOL   6*FE04MidbossJack_G_mvl/mxv
 BYTE   PAN   c_v+26
 BYTE   W04
 BYTE   N03  Dn4  v127
 BYTE   W02
 BYTE   VOL   6*FE04MidbossJack_G_mvl/mxv
 BYTE   W06
 BYTE   VOL   6*FE04MidbossJack_G_mvl/mxv
 BYTE   W06
 BYTE   VOL   6*FE04MidbossJack_G_mvl/mxv
 BYTE   W06
 BYTE   VOL   6*FE04MidbossJack_G_mvl/mxv
 BYTE   W06
 BYTE   VOL   6*FE04MidbossJack_G_mvl/mxv
 BYTE   W06
 BYTE   VOL   5*FE04MidbossJack_G_mvl/mxv
 BYTE   W06
 BYTE   VOL   5*FE04MidbossJack_G_mvl/mxv
 BYTE   W03
 BYTE   VOL   8*FE04MidbossJack_G_mvl/mxv
 BYTE   PAN   c_v-4
 BYTE   N05  Dn4  v127
 BYTE   W03
 BYTE   VOL   8*FE04MidbossJack_G_mvl/mxv
 BYTE   W06
 BYTE   VOL   7*FE04MidbossJack_G_mvl/mxv
 BYTE   W02
 BYTE   N32  Dn4  v127
 BYTE   W04
 BYTE   VOL   7*FE04MidbossJack_G_mvl/mxv
 BYTE   W06
 BYTE   VOL   7*FE04MidbossJack_G_mvl/mxv
 BYTE   W01
 BYTE   VOL   5*FE04MidbossJack_G_mvl/mxv
 BYTE   PAN   c_v+26
 BYTE   W04
 BYTE   N03  Dn4  v127
 BYTE   W01
 BYTE   VOL   5*FE04MidbossJack_G_mvl/mxv
 BYTE   W06
 BYTE   VOL   5*FE04MidbossJack_G_mvl/mxv
 BYTE   W06
 BYTE   VOL   5*FE04MidbossJack_G_mvl/mxv
 BYTE   W06
 BYTE   VOL   5*FE04MidbossJack_G_mvl/mxv
 BYTE   W06
//  #03 //028   ----------------------------------------
 BYTE   VOL   5*FE04MidbossJack_G_mvl/mxv
 BYTE   W06
 BYTE   VOL   5*FE04MidbossJack_G_mvl/mxv
 BYTE   W06
 BYTE   VOL   5*FE04MidbossJack_G_mvl/mxv
 BYTE   W04
 BYTE   VOL   5*FE04MidbossJack_G_mvl/mxv
 BYTE   PAN   c_v-4
 BYTE   N05  Dn4  v127
 BYTE   W02
 BYTE   VOL   5*FE04MidbossJack_G_mvl/mxv
 BYTE   W06
 BYTE   VOL   5*FE04MidbossJack_G_mvl/mxv
 BYTE   W06
 BYTE   VOL   5*FE04MidbossJack_G_mvl/mxv
 BYTE   W06
 BYTE   VOL   5*FE04MidbossJack_G_mvl/mxv
 BYTE   W03
 BYTE   VOL   5*FE04MidbossJack_G_mvl/mxv
 BYTE   N05  Dn4  v127
 BYTE   W03
 BYTE   VOL   5*FE04MidbossJack_G_mvl/mxv
 BYTE   W06
 BYTE   VOL   5*FE04MidbossJack_G_mvl/mxv
 BYTE   W06
 BYTE   VOL   5*FE04MidbossJack_G_mvl/mxv
 BYTE   W06
 BYTE   VOL   5*FE04MidbossJack_G_mvl/mxv
 BYTE   W01
 BYTE   VOL   5*FE04MidbossJack_G_mvl/mxv
 BYTE   N05  Dn4  v127
 BYTE   W05
 BYTE   VOL   5*FE04MidbossJack_G_mvl/mxv
 BYTE   W06
 BYTE   VOL   5*FE04MidbossJack_G_mvl/mxv
 BYTE   W06
 BYTE   VOL   5*FE04MidbossJack_G_mvl/mxv
 BYTE   W06
 BYTE   VOL   5*FE04MidbossJack_G_mvl/mxv
 BYTE   N05  Dn4  v127
 BYTE   W06
 BYTE   VOL   5*FE04MidbossJack_G_mvl/mxv
 BYTE   W06
//  #03 //029   ----------------------------------------
 BYTE   VOL   5*FE04MidbossJack_G_mvl/mxv
 BYTE   W06
 BYTE   VOL   5*FE04MidbossJack_G_mvl/mxv
 BYTE   W04
 BYTE   VOL   5*FE04MidbossJack_G_mvl/mxv
 BYTE   N05  Dn4  v127
 BYTE   W02
 BYTE   VOL   5*FE04MidbossJack_G_mvl/mxv
 BYTE   W06
 BYTE   VOL   5*FE04MidbossJack_G_mvl/mxv
 BYTE   W06
 BYTE   VOL   5*FE04MidbossJack_G_mvl/mxv
 BYTE   W06
 BYTE   VOL   5*FE04MidbossJack_G_mvl/mxv
 BYTE   W03
 BYTE   VOL   5*FE04MidbossJack_G_mvl/mxv
 BYTE   N05  Dn4  v127
 BYTE   W03
 BYTE   VOL   5*FE04MidbossJack_G_mvl/mxv
 BYTE   W06
 BYTE   VOL   5*FE04MidbossJack_G_mvl/mxv
 BYTE   W06
 BYTE   VOL   5*FE04MidbossJack_G_mvl/mxv
 BYTE   W06
 BYTE   VOL   5*FE04MidbossJack_G_mvl/mxv
 BYTE   W01
 BYTE   VOICE   56
 BYTE   VOL   5*FE04MidbossJack_G_mvl/mxv
 BYTE   PAN   c_v-24
 BYTE   N36  En3  v127
 BYTE   W05
 BYTE   VOL   5*FE04MidbossJack_G_mvl/mxv
 BYTE   W06
 BYTE   VOL   5*FE04MidbossJack_G_mvl/mxv
 BYTE   W06
 BYTE   VOL   5*FE04MidbossJack_G_mvl/mxv
 BYTE   W06
 BYTE   VOL   5*FE04MidbossJack_G_mvl/mxv
 BYTE   W06
 BYTE   VOL   5*FE04MidbossJack_G_mvl/mxv
 BYTE   W06
 BYTE   VOL   5*FE04MidbossJack_G_mvl/mxv
 BYTE   W06
//  #03 //030   ----------------------------------------
 BYTE   VOL   5*FE04MidbossJack_G_mvl/mxv
 BYTE   W04
 BYTE   N36  Gn3  v127
 BYTE   W02
 BYTE   VOL   5*FE04MidbossJack_G_mvl/mxv
 BYTE   W06
 BYTE   VOL   5*FE04MidbossJack_G_mvl/mxv
 BYTE   W06
 BYTE   VOL   5*FE04MidbossJack_G_mvl/mxv
 BYTE   W06
 BYTE   VOL   5*FE04MidbossJack_G_mvl/mxv
 BYTE   W06
 BYTE   VOL   5*FE04MidbossJack_G_mvl/mxv
 BYTE   W06
 BYTE   VOL   5*FE04MidbossJack_G_mvl/mxv
 BYTE   W06
 BYTE   VOL   5*FE04MidbossJack_G_mvl/mxv
 BYTE   W06
 BYTE   VOL   5*FE04MidbossJack_G_mvl/mxv
 BYTE   W01
 BYTE   N36  Fn3  v127
 BYTE   W05
 BYTE   VOL   5*FE04MidbossJack_G_mvl/mxv
 BYTE   W06
 BYTE   VOL   5*FE04MidbossJack_G_mvl/mxv
 BYTE   W06
 BYTE   VOL   5*FE04MidbossJack_G_mvl/mxv
 BYTE   W06
 BYTE   VOL   5*FE04MidbossJack_G_mvl/mxv
 BYTE   W06
 BYTE   VOL   5*FE04MidbossJack_G_mvl/mxv
 BYTE   W06
 BYTE   VOL   5*FE04MidbossJack_G_mvl/mxv
 BYTE   W06
 BYTE   VOL   5*FE04MidbossJack_G_mvl/mxv
 BYTE   W04
 BYTE   N24  As3  v127
 BYTE   W02
//  #03 //031   ----------------------------------------
 BYTE   VOL   5*FE04MidbossJack_G_mvl/mxv
 BYTE   W06
 BYTE   VOL   5*FE04MidbossJack_G_mvl/mxv
 BYTE   W04
 BYTE   N03  As3  v127
 BYTE   W02
 BYTE   VOL   5*FE04MidbossJack_G_mvl/mxv
 BYTE   W06
 BYTE   VOL   5*FE04MidbossJack_G_mvl/mxv
 BYTE   W06
 BYTE   VOL   5*FE04MidbossJack_G_mvl/mxv
 BYTE   FINE

//**************** Track 4 (Midi-Chn.3) ****************//

FE04MidbossJack_G_004:
//  #04 //000   ----------------------------------------
 BYTE   KEYSH   FE04MidbossJack_G_key+0
 BYTE   VOL   5*FE04MidbossJack_G_mvl/mxv
 BYTE   PAN   c_v+0
 BYTE   BEND   c_v+0
 BYTE   BENDR  12
 BYTE   BENDR  12
 BYTE   LFOS 44
 BYTE   LFOS 44
 BYTE   TEMPO   164*FE04MidbossJack_G_tbs/2
 BYTE   W19
 BYTE   VOICE   48
 BYTE   VOL   122*FE04MidbossJack_G_mvl/mxv
 BYTE   PAN   c_v-4
 BYTE   W24
 BYTE   N23  Fn3  v127
 BYTE   W72
//  #04 //001   ----------------------------------------
 BYTE   VOICE   60
 BYTE   VOL   35*FE04MidbossJack_G_mvl/mxv
 BYTE   PAN   c_v+16
 BYTE   W76
Label_015C5A31:
 BYTE   W19
 BYTE   N48  Dn3  v127
 BYTE   W72
//  #04 //002   ----------------------------------------
 BYTE   W02
 BYTE   N02  Bn3
 BYTE   W02
 BYTE   Cn4
 BYTE   W02
 BYTE   N42  Dn4
 BYTE   W66
 BYTE   N48  Fs3
 BYTE   W72
//  #04 //003   ----------------------------------------
 BYTE   W02
 BYTE   N02  En4
 BYTE   W02
 BYTE   Fn4
 BYTE   W02
 BYTE   N42  Fs4
 BYTE   W42
Label_015C5A4B:
 BYTE   VOICE   48
 BYTE   VOL   122*FE04MidbossJack_G_mvl/mxv
 BYTE   PAN   c_v+6
 BYTE   W36
 BYTE   N05  Dn3  v127
 BYTE   W12
//  #04 //004   ----------------------------------------
 BYTE   Dn3
 BYTE   W60
 BYTE   Ds3
 BYTE   W12
 BYTE   Ds3
 BYTE   W24
 BYTE   PEND 
//  #04 //005   ----------------------------------------
Label_015C5A5D:
 BYTE   VOL   12*FE04MidbossJack_G_mvl/mxv
 BYTE   W12
 BYTE   N05  Ds3  v127
 BYTE   W12
 BYTE   VOL   24*FE04MidbossJack_G_mvl/mxv
 BYTE   W12
 BYTE   N05  Ds3  v127
 BYTE   W12
 BYTE   PEND 
Label_015C5A6C:
 BYTE   VOL   45*FE04MidbossJack_G_mvl/mxv
 BYTE   W12
 BYTE   N05  Ds3  v127
 BYTE   W12
 BYTE   VOL   74*FE04MidbossJack_G_mvl/mxv
 BYTE   W12
 BYTE   N05  Ds3  v127
 BYTE   W12
 BYTE   PEND 
//  #04 //006   ----------------------------------------
Label_015C5A7B:
 BYTE   VOL   119*FE04MidbossJack_G_mvl/mxv
 BYTE   W12
 BYTE   N05  Ds3  v127
 BYTE   W12
 BYTE   VOL   122*FE04MidbossJack_G_mvl/mxv
 BYTE   W12
 BYTE   N05  Ds3  v127
 BYTE   W12
 BYTE   PEND 
Label_015C5A8A:
 BYTE   VOL   72*FE04MidbossJack_G_mvl/mxv
 BYTE   PAN   c_v+0
 BYTE   N05  Dn2  v127
 BYTE   W06
 BYTE   Ds2
 BYTE   W06
 BYTE   Dn2
 BYTE   W06
 BYTE   Ds2
 BYTE   W06
 BYTE   Fs2
 BYTE   W06
 BYTE   Gn2
 BYTE   W06
 BYTE   Fs2
 BYTE   W06
 BYTE   Gn2
 BYTE   W06
//  #04 //007   ----------------------------------------
 BYTE   Dn2
 BYTE   W06
 BYTE   Ds2
 BYTE   W06
 BYTE   Dn2
 BYTE   W06
 BYTE   Ds2
 BYTE   W06
 BYTE   Fs2
 BYTE   W06
 BYTE   Gn2
 BYTE   W06
 BYTE   Fs2
 BYTE   W06
 BYTE   Gn2
 BYTE   W06
 BYTE   Dn2
 BYTE   W06
 BYTE   Ds2
 BYTE   W06
 BYTE   Dn2
 BYTE   W06
 BYTE   Ds2
 BYTE   W06
 BYTE   Fs2
 BYTE   W06
 BYTE   Gn2
 BYTE   W06
 BYTE   Fs2
 BYTE   W06
 BYTE   Gn2
 BYTE   W06
//  #04 //008   ----------------------------------------
 BYTE   Dn2
 BYTE   W06
 BYTE   Ds2
 BYTE   W06
 BYTE   Dn2
 BYTE   W06
 BYTE   Ds2
 BYTE   W06
 BYTE   Fs2
 BYTE   W06
 BYTE   Gn2
 BYTE   W06
 BYTE   Fs2
 BYTE   W06
 BYTE   Gn2
 BYTE   W06
 BYTE   Gn2
 BYTE   W06
 BYTE   Gs2
 BYTE   W06
 BYTE   Gn2
 BYTE   W06
 BYTE   Gs2
 BYTE   W06
 BYTE   Dn3
 BYTE   W06
 BYTE   Ds3
 BYTE   W06
 BYTE   Dn3
 BYTE   W06
 BYTE   Ds3
 BYTE   W06
//  #04 //009   ----------------------------------------
 BYTE   Gn2
 BYTE   W06
 BYTE   Gs2
 BYTE   W06
 BYTE   Gn2
 BYTE   W06
 BYTE   Gs2
 BYTE   W06
 BYTE   Dn3
 BYTE   W06
 BYTE   Ds3
 BYTE   W06
 BYTE   Dn3
 BYTE   W06
 BYTE   Ds3
 BYTE   W06
 BYTE   Gn3
 BYTE   W06
 BYTE   Gs3
 BYTE   W06
 BYTE   Dn3
 BYTE   W06
 BYTE   Ds3
 BYTE   W06
 BYTE   Bn2
 BYTE   W06
 BYTE   Cn3
 BYTE   W06
 BYTE   Gn2
 BYTE   W06
 BYTE   Gs2
 BYTE   W06
//  #04 //010   ----------------------------------------
 BYTE   Gn2
 BYTE   W06
 BYTE   Gs2
 BYTE   W06
 BYTE   Bn2
 BYTE   W06
 BYTE   Cn3
 BYTE   W06
 BYTE   Dn3
 BYTE   W06
 BYTE   Ds3
 BYTE   W06
 BYTE   Gn3
 BYTE   W06
 BYTE   Gs3
 BYTE   W06
 BYTE   Gn3
 BYTE   W06
 BYTE   Gs3
 BYTE   W06
 BYTE   Fn3
 BYTE   W06
 BYTE   Gn3
 BYTE   W06
 BYTE   Cn3
 BYTE   W06
 BYTE   Dn3
 BYTE   W06
 BYTE   Gn2
 BYTE   W06
 BYTE   Gs2
 BYTE   W06
//  #04 //011   ----------------------------------------
 BYTE   N06  Dn2
 BYTE   W06
 BYTE   Ds2
 BYTE   W06
 BYTE   Gn1
 BYTE   W06
 BYTE   Gs1
 BYTE   W06
 BYTE   N96  Gn1
 BYTE   W48
 BYTE   N24
 BYTE   W72
 BYTE   PEND 
//  #04 //012   ----------------------------------------
 BYTE   VOICE   60
 BYTE   VOL   35*FE04MidbossJack_G_mvl/mxv
 BYTE   PAN   c_v+16
 BYTE   W96
//  #04 //013   ----------------------------------------
 BYTE   N48  Dn3  v127
 BYTE   W72
 BYTE   W02
 BYTE   N02  Bn3
 BYTE   W02
 BYTE   Cn4
 BYTE   W02
 BYTE   N42  Dn4
 BYTE   W66
//  #04 //014   ----------------------------------------
 BYTE   N48  Fs3
 BYTE   W72
 BYTE   W02
 BYTE   N02  En4
 BYTE   W02
 BYTE   Fn4
 BYTE   W02
 BYTE   N42  Fs4
 BYTE   W42
//  #04 //015   ----------------------------------------
 BYTE   PATT
  POIN2 Label_015C5A4B
//  #04 //016   ----------------------------------------
 BYTE   PATT
  POIN2 Label_015C5A5D
//  #04 //017   ----------------------------------------
 BYTE   PATT
  POIN2 Label_015C5A6C
//  #04 //018   ----------------------------------------
 BYTE   PATT
  POIN2 Label_015C5A7B
//  #04 //019   ----------------------------------------
 BYTE   PATT
  POIN2 Label_015C5A8A
//  #04 //020   ----------------------------------------
 BYTE   VOICE   60
 BYTE   VOL   35*FE04MidbossJack_G_mvl/mxv
 BYTE   PAN   c_v+16
 BYTE   VOL   35*FE04MidbossJack_G_mvl/mxv
 BYTE   W06
 BYTE   VOL   32*FE04MidbossJack_G_mvl/mxv
 BYTE   W06
 BYTE   VOL   31*FE04MidbossJack_G_mvl/mxv
 BYTE   W06
 BYTE   VOL   31*FE04MidbossJack_G_mvl/mxv
 BYTE   W06
 BYTE   VOL   31*FE04MidbossJack_G_mvl/mxv
 BYTE   W06
 BYTE   VOL   29*FE04MidbossJack_G_mvl/mxv
 BYTE   W06
 BYTE   VOL   27*FE04MidbossJack_G_mvl/mxv
 BYTE   W06
 BYTE   VOL   26*FE04MidbossJack_G_mvl/mxv
 BYTE   W06
 BYTE   VOL   26*FE04MidbossJack_G_mvl/mxv
 BYTE   W06
 BYTE   VOL   24*FE04MidbossJack_G_mvl/mxv
 BYTE   W06
 BYTE   VOL   23*FE04MidbossJack_G_mvl/mxv
 BYTE   W06
 BYTE   VOL   23*FE04MidbossJack_G_mvl/mxv
 BYTE   W06
 BYTE   GoTo
  POIN2 Label_015C5A31
//  #04 //021   ----------------------------------------
 BYTE   VOL   23*FE04MidbossJack_G_mvl/mxv
 BYTE   W06
 BYTE   VOL   21*FE04MidbossJack_G_mvl/mxv
 BYTE   W06
 BYTE   VOL   20*FE04MidbossJack_G_mvl/mxv
 BYTE   W06
 BYTE   VOL   19*FE04MidbossJack_G_mvl/mxv
 BYTE   N48  Dn3  v127
 BYTE   W06
 BYTE   VOL   19*FE04MidbossJack_G_mvl/mxv
 BYTE   W06
 BYTE   VOL   18*FE04MidbossJack_G_mvl/mxv
 BYTE   W06
 BYTE   VOL   16*FE04MidbossJack_G_mvl/mxv
 BYTE   W06
 BYTE   VOL   16*FE04MidbossJack_G_mvl/mxv
 BYTE   W06
 BYTE   VOL   16*FE04MidbossJack_G_mvl/mxv
 BYTE   W06
 BYTE   VOL   15*FE04MidbossJack_G_mvl/mxv
 BYTE   W06
 BYTE   VOL   14*FE04MidbossJack_G_mvl/mxv
 BYTE   W06
 BYTE   VOL   13*FE04MidbossJack_G_mvl/mxv
 BYTE   W06
 BYTE   VOL   13*FE04MidbossJack_G_mvl/mxv
 BYTE   W06
 BYTE   VOL   12*FE04MidbossJack_G_mvl/mxv
 BYTE   W06
 BYTE   VOL   12*FE04MidbossJack_G_mvl/mxv
 BYTE   W03
 BYTE   N02  Bn3  v127
 BYTE   W02
 BYTE   Cn4
 BYTE   W01
 BYTE   VOL   11*FE04MidbossJack_G_mvl/mxv
 BYTE   W01
 BYTE   N42  Dn4  v127
 BYTE   W05
//  #04 //022   ----------------------------------------
 BYTE   VOL   11*FE04MidbossJack_G_mvl/mxv
 BYTE   W06
 BYTE   VOL   11*FE04MidbossJack_G_mvl/mxv
 BYTE   W06
 BYTE   VOL   10*FE04MidbossJack_G_mvl/mxv
 BYTE   W06
 BYTE   VOL   9*FE04MidbossJack_G_mvl/mxv
 BYTE   W06
 BYTE   VOL   9*FE04MidbossJack_G_mvl/mxv
 BYTE   W06
 BYTE   VOL   8*FE04MidbossJack_G_mvl/mxv
 BYTE   W06
 BYTE   VOL   8*FE04MidbossJack_G_mvl/mxv
 BYTE   W06
 BYTE   VOL   7*FE04MidbossJack_G_mvl/mxv
 BYTE   W06
 BYTE   VOL   7*FE04MidbossJack_G_mvl/mxv
 BYTE   W06
 BYTE   VOL   7*FE04MidbossJack_G_mvl/mxv
 BYTE   W03
 BYTE   N48  Fs3  v127
 BYTE   W03
 BYTE   VOL   7*FE04MidbossJack_G_mvl/mxv
 BYTE   W06
 BYTE   VOL   6*FE04MidbossJack_G_mvl/mxv
 BYTE   W06
 BYTE   VOL   6*FE04MidbossJack_G_mvl/mxv
 BYTE   W06
 BYTE   VOL   6*FE04MidbossJack_G_mvl/mxv
 BYTE   W06
 BYTE   VOL   5*FE04MidbossJack_G_mvl/mxv
 BYTE   W06
 BYTE   VOL   5*FE04MidbossJack_G_mvl/mxv
 BYTE   W06
//  #04 //023   ----------------------------------------
 BYTE   VOL   5*FE04MidbossJack_G_mvl/mxv
 BYTE   W06
 BYTE   VOL   4*FE04MidbossJack_G_mvl/mxv
 BYTE   W06
 BYTE   VOL   4*FE04MidbossJack_G_mvl/mxv
 BYTE   W06
 BYTE   VOL   4*FE04MidbossJack_G_mvl/mxv
 BYTE   W06
 BYTE   VOL   4*FE04MidbossJack_G_mvl/mxv
 BYTE   W06
 BYTE   VOL   4*FE04MidbossJack_G_mvl/mxv
 BYTE   N02  En4  v127
 BYTE   W02
 BYTE   Fn4
 BYTE   W02
 BYTE   N42  Fs4
 BYTE   W02
 BYTE   VOL   3*FE04MidbossJack_G_mvl/mxv
 BYTE   W06
 BYTE   VOL   3*FE04MidbossJack_G_mvl/mxv
 BYTE   W06
 BYTE   VOL   3*FE04MidbossJack_G_mvl/mxv
 BYTE   W06
 BYTE   VOL   3*FE04MidbossJack_G_mvl/mxv
 BYTE   W06
 BYTE   VOL   2*FE04MidbossJack_G_mvl/mxv
 BYTE   W06
 BYTE   VOL   2*FE04MidbossJack_G_mvl/mxv
 BYTE   W06
 BYTE   VOL   2*FE04MidbossJack_G_mvl/mxv
 BYTE   W01
 BYTE   VOICE   48
 BYTE   VOL   8*FE04MidbossJack_G_mvl/mxv
 BYTE   PAN   c_v+6
 BYTE   W05
 BYTE   VOL   8*FE04MidbossJack_G_mvl/mxv
 BYTE   W06
 BYTE   VOL   7*FE04MidbossJack_G_mvl/mxv
 BYTE   W06
 BYTE   VOL   7*FE04MidbossJack_G_mvl/mxv
 BYTE   W06
//  #04 //024   ----------------------------------------
 BYTE   VOL   7*FE04MidbossJack_G_mvl/mxv
 BYTE   W06
 BYTE   VOL   6*FE04MidbossJack_G_mvl/mxv
 BYTE   W05
 BYTE   N05  Dn3  v127
 BYTE   W01
 BYTE   VOL   6*FE04MidbossJack_G_mvl/mxv
 BYTE   W06
 BYTE   VOL   5*FE04MidbossJack_G_mvl/mxv
 BYTE   W04
 BYTE   N05  Dn3  v127
 BYTE   W02
 BYTE   VOL   5*FE04MidbossJack_G_mvl/mxv
 BYTE   W06
 BYTE   VOL   4*FE04MidbossJack_G_mvl/mxv
 BYTE   W06
 BYTE   VOL   4*FE04MidbossJack_G_mvl/mxv
 BYTE   W06
 BYTE   VOL   4*FE04MidbossJack_G_mvl/mxv
 BYTE   W06
 BYTE   VOL   4*FE04MidbossJack_G_mvl/mxv
 BYTE   W06
 BYTE   VOL   3*FE04MidbossJack_G_mvl/mxv
 BYTE   W06
 BYTE   VOL   3*FE04MidbossJack_G_mvl/mxv
 BYTE   W06
 BYTE   VOL   3*FE04MidbossJack_G_mvl/mxv
 BYTE   W06
 BYTE   VOL   2*FE04MidbossJack_G_mvl/mxv
 BYTE   W06
 BYTE   VOL   2*FE04MidbossJack_G_mvl/mxv
 BYTE   N05  Ds3  v127
 BYTE   W06
 BYTE   VOL   2*FE04MidbossJack_G_mvl/mxv
 BYTE   W06
 BYTE   VOL   2*FE04MidbossJack_G_mvl/mxv
 BYTE   N05  Ds3  v127
 BYTE   W06
//  #04 //025   ----------------------------------------
 BYTE   VOL   2*FE04MidbossJack_G_mvl/mxv
 BYTE   W06
 BYTE   VOL   2*FE04MidbossJack_G_mvl/mxv
 BYTE   W06
 BYTE   VOL   2*FE04MidbossJack_G_mvl/mxv
 BYTE   W04
 BYTE   VOL   0*FE04MidbossJack_G_mvl/mxv
 BYTE   W02
 BYTE   VOL   0*FE04MidbossJack_G_mvl/mxv
 BYTE   W06
 BYTE   VOL   0*FE04MidbossJack_G_mvl/mxv
 BYTE   W04
 BYTE   N05  Ds3  v127
 BYTE   W02
 BYTE   VOL   0*FE04MidbossJack_G_mvl/mxv
 BYTE   W06
 BYTE   VOL   0*FE04MidbossJack_G_mvl/mxv
 BYTE   W03
 BYTE   VOL   0*FE04MidbossJack_G_mvl/mxv
 BYTE   W03
 BYTE   VOL   0*FE04MidbossJack_G_mvl/mxv
 BYTE   W06
 BYTE   VOL   0*FE04MidbossJack_G_mvl/mxv
 BYTE   W02
 BYTE   N05  Ds3  v127
 BYTE   W04
 BYTE   VOL   0*FE04MidbossJack_G_mvl/mxv
 BYTE   W06
 BYTE   VOL   0*FE04MidbossJack_G_mvl/mxv
 BYTE   W01
 BYTE   VOL   0*FE04MidbossJack_G_mvl/mxv
 BYTE   W05
 BYTE   VOL   0*FE04MidbossJack_G_mvl/mxv
 BYTE   W06
 BYTE   VOL   0*FE04MidbossJack_G_mvl/mxv
 BYTE   N05  Ds3  v127
 BYTE   W06
 BYTE   VOL   0*FE04MidbossJack_G_mvl/mxv
 BYTE   W06
 BYTE   VOL   0*FE04MidbossJack_G_mvl/mxv
 BYTE   W06
 BYTE   VOL   0*FE04MidbossJack_G_mvl/mxv
 BYTE   W05
 BYTE   N05  Ds3  v127
 BYTE   W01
//  #04 //026   ----------------------------------------
 BYTE   VOL   0*FE04MidbossJack_G_mvl/mxv
 BYTE   W06
 BYTE   VOL   0*FE04MidbossJack_G_mvl/mxv
 BYTE   W04
 BYTE   VOL   0*FE04MidbossJack_G_mvl/mxv
 BYTE   W02
 BYTE   VOL   0*FE04MidbossJack_G_mvl/mxv
 BYTE   W06
 BYTE   VOL   0*FE04MidbossJack_G_mvl/mxv
 BYTE   W04
 BYTE   N05  Ds3  v127
 BYTE   W02
 BYTE   VOL   0*FE04MidbossJack_G_mvl/mxv
 BYTE   W06
 BYTE   VOL   0*FE04MidbossJack_G_mvl/mxv
 BYTE   W03
 BYTE   VOL   0*FE04MidbossJack_G_mvl/mxv
 BYTE   W03
 BYTE   VOL   0*FE04MidbossJack_G_mvl/mxv
 BYTE   W06
 BYTE   VOL   0*FE04MidbossJack_G_mvl/mxv
 BYTE   W02
 BYTE   N05  Ds3  v127
 BYTE   W04
 BYTE   VOL   0*FE04MidbossJack_G_mvl/mxv
 BYTE   W06
 BYTE   VOL   0*FE04MidbossJack_G_mvl/mxv
 BYTE   W01
 BYTE   VOL   0*FE04MidbossJack_G_mvl/mxv
 BYTE   PAN   c_v+0
 BYTE   N05  Dn2  v127
 BYTE   W05
 BYTE   VOL   0*FE04MidbossJack_G_mvl/mxv
 BYTE   W01
 BYTE   N05  Ds2  v127
 BYTE   W05
 BYTE   VOL   0*FE04MidbossJack_G_mvl/mxv
 BYTE   N05  Dn2  v127
 BYTE   W06
 BYTE   VOL   0*FE04MidbossJack_G_mvl/mxv
 BYTE   N05  Ds2  v127
 BYTE   W06
 BYTE   VOL   0*FE04MidbossJack_G_mvl/mxv
 BYTE   N05  Fs2  v127
 BYTE   W06
 BYTE   Gn2
 BYTE   VOL   0*FE04MidbossJack_G_mvl/mxv
 BYTE   W05
 BYTE   N05  Fs2  v127
 BYTE   W01
 BYTE   VOL   0*FE04MidbossJack_G_mvl/mxv
 BYTE   W05
 BYTE   N05  Gn2  v127
 BYTE   W01
//  #04 //027   ----------------------------------------
 BYTE   VOL   0*FE04MidbossJack_G_mvl/mxv
 BYTE   W04
 BYTE   N05  Dn2  v127
 BYTE   W02
 BYTE   VOL   0*FE04MidbossJack_G_mvl/mxv
 BYTE   W04
 BYTE   N05  Ds2  v127
 BYTE   W02
 BYTE   VOL   0*FE04MidbossJack_G_mvl/mxv
 BYTE   W04
 BYTE   N05  Dn2  v127
 BYTE   W02
 BYTE   VOL   0*FE04MidbossJack_G_mvl/mxv
 BYTE   W03
 BYTE   N05  Ds2  v127
 BYTE   W03
 BYTE   VOL   0*FE04MidbossJack_G_mvl/mxv
 BYTE   W03
 BYTE   N05  Fs2  v127
 BYTE   W03
 BYTE   VOL   0*FE04MidbossJack_G_mvl/mxv
 BYTE   W02
 BYTE   N05  Gn2  v127
 BYTE   W04
 BYTE   VOL   0*FE04MidbossJack_G_mvl/mxv
 BYTE   W02
 BYTE   N05  Fs2  v127
 BYTE   W04
 BYTE   VOL   0*FE04MidbossJack_G_mvl/mxv
 BYTE   W02
 BYTE   N05  Gn2  v127
 BYTE   W04
 BYTE   VOL   0*FE04MidbossJack_G_mvl/mxv
 BYTE   W01
 BYTE   N05  Dn2  v127
 BYTE   W05
 BYTE   VOL   0*FE04MidbossJack_G_mvl/mxv
 BYTE   W01
 BYTE   N05  Ds2  v127
 BYTE   W05
 BYTE   VOL   0*FE04MidbossJack_G_mvl/mxv
 BYTE   N05  Dn2  v127
 BYTE   W06
 BYTE   VOL   0*FE04MidbossJack_G_mvl/mxv
 BYTE   N05  Ds2  v127
 BYTE   W06
 BYTE   VOL   0*FE04MidbossJack_G_mvl/mxv
 BYTE   N05  Fs2  v127
 BYTE   W06
 BYTE   Gn2
 BYTE   VOL   0*FE04MidbossJack_G_mvl/mxv
 BYTE   W05
 BYTE   N05  Fs2  v127
 BYTE   W01
 BYTE   VOL   0*FE04MidbossJack_G_mvl/mxv
 BYTE   W05
 BYTE   N05  Gn2  v127
 BYTE   W01
 BYTE   VOL   0*FE04MidbossJack_G_mvl/mxv
 BYTE   W04
 BYTE   N05  Dn2  v127
 BYTE   W02
//  #04 //028   ----------------------------------------
 BYTE   VOL   0*FE04MidbossJack_G_mvl/mxv
 BYTE   W04
 BYTE   N05  Ds2  v127
 BYTE   W02
 BYTE   VOL   0*FE04MidbossJack_G_mvl/mxv
 BYTE   W04
 BYTE   N05  Dn2  v127
 BYTE   W02
 BYTE   VOL   0*FE04MidbossJack_G_mvl/mxv
 BYTE   W03
 BYTE   N05  Ds2  v127
 BYTE   W03
 BYTE   VOL   0*FE04MidbossJack_G_mvl/mxv
 BYTE   W03
 BYTE   N03  Fs2  v127
 BYTE   W03
 BYTE   VOL   0*FE04MidbossJack_G_mvl/mxv
 BYTE   FINE

//**************** Track 5 (Midi-Chn.4) ****************//

FE04MidbossJack_G_005:
//  #05 //000   ----------------------------------------
 BYTE   KEYSH   FE04MidbossJack_G_key+0
 BYTE   VOL   10*FE04MidbossJack_G_mvl/mxv
 BYTE   PAN   c_v+0
 BYTE   BEND   c_v+0
 BYTE   BENDR  12
 BYTE   BENDR  12
 BYTE   LFOS 44
 BYTE   LFOS 44
 BYTE   TEMPO   164*FE04MidbossJack_G_tbs/2
 BYTE   W19
 BYTE   VOICE   48
 BYTE   VOL   127*FE04MidbossJack_G_mvl/mxv
 BYTE   PAN   c_v-4
 BYTE   W24
 BYTE   N23  Dn3  v127
 BYTE   W96
//  #05 //001   ----------------------------------------
 BYTE   W52
Label_015C47DB:
 BYTE   W96
//  #05 //002   ----------------------------------------
 BYTE   W96
//  #05 //003   ----------------------------------------
 BYTE   W90
 BYTE   W01
Label_015C47DF:
 BYTE   VOICE   48
 BYTE   VOL   127*FE04MidbossJack_G_mvl/mxv
 BYTE   PAN   c_v+6
 BYTE   W36
//  #05 //004   ----------------------------------------
 BYTE   N05  Gn2  v127
 BYTE   W12
 BYTE   Gn2
 BYTE   W60
 BYTE   An2
 BYTE   W12
 BYTE   An2
 BYTE   W24
 BYTE   PEND 
//  #05 //005   ----------------------------------------
Label_015C47F1:
 BYTE   VOL   17*FE04MidbossJack_G_mvl/mxv
 BYTE   W12
 BYTE   N05  An2  v127
 BYTE   W12
 BYTE   VOL   29*FE04MidbossJack_G_mvl/mxv
 BYTE   W12
 BYTE   N05  An2  v127
 BYTE   W12
 BYTE   PEND 
Label_015C4800:
 BYTE   VOL   50*FE04MidbossJack_G_mvl/mxv
 BYTE   W12
 BYTE   N05  An2  v127
 BYTE   W12
 BYTE   VOL   79*FE04MidbossJack_G_mvl/mxv
 BYTE   W12
 BYTE   N05  An2  v127
 BYTE   W12
 BYTE   PEND 
//  #05 //006   ----------------------------------------
Label_015C480F:
 BYTE   VOL   124*FE04MidbossJack_G_mvl/mxv
 BYTE   W12
 BYTE   N05  An2  v127
 BYTE   W12
 BYTE   VOL   127*FE04MidbossJack_G_mvl/mxv
 BYTE   W12
 BYTE   N05  An2  v127
 BYTE   W12
 BYTE   PEND 
 BYTE   VOL   127*FE04MidbossJack_G_mvl/mxv
 BYTE   W96
//  #05 //007   ----------------------------------------
 BYTE   W96
//  #05 //008   ----------------------------------------
 BYTE   VOL   77*FE04MidbossJack_G_mvl/mxv
 BYTE   PAN   c_v+26
 BYTE   N05  Dn3  v127
 BYTE   W06
 BYTE   Ds3
 BYTE   W06
 BYTE   Dn3
 BYTE   W06
 BYTE   Ds3
 BYTE   W06
 BYTE   Gn3
 BYTE   W06
 BYTE   Gs3
 BYTE   W06
 BYTE   Gn3
 BYTE   W06
 BYTE   Gs3
 BYTE   W06
 BYTE   Dn3
 BYTE   W06
 BYTE   Ds3
 BYTE   W06
 BYTE   Dn3
 BYTE   W06
 BYTE   Ds3
 BYTE   W06
 BYTE   Gn3
 BYTE   W06
 BYTE   Gs3
 BYTE   W06
 BYTE   Gn3
 BYTE   W06
 BYTE   Gs3
 BYTE   W06
//  #05 //009   ----------------------------------------
 BYTE   Dn4
 BYTE   W06
 BYTE   Ds4
 BYTE   W06
 BYTE   Bn3
 BYTE   W06
 BYTE   Cn4
 BYTE   W06
 BYTE   Gn3
 BYTE   W06
 BYTE   Gs3
 BYTE   W06
 BYTE   Dn3
 BYTE   W06
 BYTE   Ds3
 BYTE   W06
 BYTE   Dn3
 BYTE   W06
 BYTE   Ds3
 BYTE   W06
 BYTE   Gn3
 BYTE   W06
 BYTE   Gs3
 BYTE   W06
 BYTE   Bn3
 BYTE   W06
 BYTE   Cn4
 BYTE   W06
 BYTE   Dn4
 BYTE   W06
 BYTE   Ds4
 BYTE   W06
//  #05 //010   ----------------------------------------
 BYTE   Dn4
 BYTE   W06
 BYTE   Ds4
 BYTE   W06
 BYTE   Cn4
 BYTE   W06
 BYTE   Dn4
 BYTE   W06
 BYTE   Gn3
 BYTE   W06
 BYTE   Gs3
 BYTE   W06
 BYTE   Dn3
 BYTE   W06
 BYTE   Ds3
 BYTE   W06
 BYTE   N06  Gn2
 BYTE   W06
 BYTE   Gs2
 BYTE   W06
 BYTE   Dn2
 BYTE   W06
 BYTE   Ds2
 BYTE   W06
 BYTE   N96  Dn2
 BYTE   W48
//  #05 //011   ----------------------------------------
 BYTE   N24
 BYTE   W96
//  #05 //012   ----------------------------------------
 BYTE   W96
//  #05 //013   ----------------------------------------
 BYTE   W96
//  #05 //014   ----------------------------------------
 BYTE   W96
//  #05 //015   ----------------------------------------
 BYTE   W48
//  #05 //016   ----------------------------------------
 BYTE   PATT
  POIN2 Label_015C47DF
//  #05 //017   ----------------------------------------
 BYTE   PATT
  POIN2 Label_015C47F1
//  #05 //018   ----------------------------------------
 BYTE   PATT
  POIN2 Label_015C4800
//  #05 //019   ----------------------------------------
 BYTE   PATT
  POIN2 Label_015C480F
//  #05 //020   ----------------------------------------
 BYTE   VOL   127*FE04MidbossJack_G_mvl/mxv
 BYTE   W96
//  #05 //021   ----------------------------------------
 BYTE   W96
//  #05 //022   ----------------------------------------
 BYTE   VOL   77*FE04MidbossJack_G_mvl/mxv
 BYTE   PAN   c_v+26
 BYTE   N05  Dn3  v127
 BYTE   W06
 BYTE   Ds3
 BYTE   W06
 BYTE   Dn3
 BYTE   W06
 BYTE   Ds3
 BYTE   W06
 BYTE   Gn3
 BYTE   W06
 BYTE   Gs3
 BYTE   W06
 BYTE   Gn3
 BYTE   W06
 BYTE   Gs3
 BYTE   W06
 BYTE   Dn3
 BYTE   W06
 BYTE   Ds3
 BYTE   W06
 BYTE   Dn3
 BYTE   W06
 BYTE   Ds3
 BYTE   W06
 BYTE   Gn3
 BYTE   W06
 BYTE   Gs3
 BYTE   W06
 BYTE   Gn3
 BYTE   W06
 BYTE   Gs3
 BYTE   W06
//  #05 //023   ----------------------------------------
 BYTE   Dn4
 BYTE   W06
 BYTE   Ds4
 BYTE   W06
 BYTE   Bn3
 BYTE   W06
 BYTE   Cn4
 BYTE   W06
 BYTE   Gn3
 BYTE   W06
 BYTE   Gs3
 BYTE   W06
 BYTE   Dn3
 BYTE   W06
 BYTE   Ds3
 BYTE   W06
 BYTE   Dn3
 BYTE   W06
 BYTE   Ds3
 BYTE   W06
 BYTE   Gn3
 BYTE   W06
 BYTE   Gs3
 BYTE   W06
 BYTE   Bn3
 BYTE   W06
 BYTE   Cn4
 BYTE   W06
 BYTE   Dn4
 BYTE   W06
 BYTE   Ds4
 BYTE   W06
//  #05 //024   ----------------------------------------
 BYTE   Dn4
 BYTE   W06
 BYTE   Ds4
 BYTE   W06
 BYTE   Cn4
 BYTE   W06
 BYTE   Dn4
 BYTE   W06
 BYTE   Gn3
 BYTE   W06
 BYTE   Gs3
 BYTE   W06
 BYTE   Dn3
 BYTE   W06
 BYTE   Ds3
 BYTE   W06
 BYTE   N06  Gn2
 BYTE   W06
 BYTE   Gs2
 BYTE   W06
 BYTE   Dn2
 BYTE   W06
 BYTE   Ds2
 BYTE   W06
 BYTE   N96  Dn2
 BYTE   W48
//  #05 //025   ----------------------------------------
 BYTE   N24
 BYTE   W72
 BYTE   VOL   77*FE04MidbossJack_G_mvl/mxv
 BYTE   W06
 BYTE   VOL   73*FE04MidbossJack_G_mvl/mxv
 BYTE   W06
 BYTE   VOL   70*FE04MidbossJack_G_mvl/mxv
 BYTE   W06
 BYTE   VOL   66*FE04MidbossJack_G_mvl/mxv
 BYTE   W06
//  #05 //026   ----------------------------------------
 BYTE   VOL   65*FE04MidbossJack_G_mvl/mxv
 BYTE   W06
 BYTE   VOL   61*FE04MidbossJack_G_mvl/mxv
 BYTE   W06
 BYTE   VOL   60*FE04MidbossJack_G_mvl/mxv
 BYTE   W06
 BYTE   VOL   57*FE04MidbossJack_G_mvl/mxv
 BYTE   W06
 BYTE   VOL   57*FE04MidbossJack_G_mvl/mxv
 BYTE   W06
 BYTE   VOL   55*FE04MidbossJack_G_mvl/mxv
 BYTE   W06
 BYTE   VOL   54*FE04MidbossJack_G_mvl/mxv
 BYTE   W06
 BYTE   VOL   51*FE04MidbossJack_G_mvl/mxv
 BYTE   W06
 BYTE   GoTo
  POIN2 Label_015C47DB
//  #05 //027   ----------------------------------------
 BYTE   VOL   50*FE04MidbossJack_G_mvl/mxv
 BYTE   W06
 BYTE   VOL   47*FE04MidbossJack_G_mvl/mxv
 BYTE   W06
 BYTE   VOL   46*FE04MidbossJack_G_mvl/mxv
 BYTE   W06
 BYTE   VOL   42*FE04MidbossJack_G_mvl/mxv
 BYTE   W06
 BYTE   VOL   42*FE04MidbossJack_G_mvl/mxv
 BYTE   W06
 BYTE   VOL   41*FE04MidbossJack_G_mvl/mxv
 BYTE   W06
 BYTE   VOL   40*FE04MidbossJack_G_mvl/mxv
 BYTE   W06
 BYTE   VOL   37*FE04MidbossJack_G_mvl/mxv
 BYTE   W06
 BYTE   VOL   36*FE04MidbossJack_G_mvl/mxv
 BYTE   W06
 BYTE   VOL   36*FE04MidbossJack_G_mvl/mxv
 BYTE   W06
 BYTE   VOL   34*FE04MidbossJack_G_mvl/mxv
 BYTE   W06
 BYTE   VOL   32*FE04MidbossJack_G_mvl/mxv
 BYTE   W06
 BYTE   VOL   32*FE04MidbossJack_G_mvl/mxv
 BYTE   W06
 BYTE   VOL   31*FE04MidbossJack_G_mvl/mxv
 BYTE   W06
 BYTE   VOL   29*FE04MidbossJack_G_mvl/mxv
 BYTE   W06
 BYTE   VOL   28*FE04MidbossJack_G_mvl/mxv
 BYTE   W06
//  #05 //028   ----------------------------------------
 BYTE   VOL   28*FE04MidbossJack_G_mvl/mxv
 BYTE   W06
 BYTE   VOL   26*FE04MidbossJack_G_mvl/mxv
 BYTE   W06
 BYTE   VOL   25*FE04MidbossJack_G_mvl/mxv
 BYTE   W06
 BYTE   VOL   24*FE04MidbossJack_G_mvl/mxv
 BYTE   W06
 BYTE   VOL   24*FE04MidbossJack_G_mvl/mxv
 BYTE   W06
 BYTE   VOL   23*FE04MidbossJack_G_mvl/mxv
 BYTE   W06
 BYTE   VOL   21*FE04MidbossJack_G_mvl/mxv
 BYTE   W06
 BYTE   VOL   21*FE04MidbossJack_G_mvl/mxv
 BYTE   W06
 BYTE   VOL   20*FE04MidbossJack_G_mvl/mxv
 BYTE   W06
 BYTE   VOL   19*FE04MidbossJack_G_mvl/mxv
 BYTE   W06
 BYTE   VOL   18*FE04MidbossJack_G_mvl/mxv
 BYTE   W06
 BYTE   VOL   17*FE04MidbossJack_G_mvl/mxv
 BYTE   W06
 BYTE   VOL   17*FE04MidbossJack_G_mvl/mxv
 BYTE   W06
 BYTE   VOL   17*FE04MidbossJack_G_mvl/mxv
 BYTE   W06
 BYTE   VOL   16*FE04MidbossJack_G_mvl/mxv
 BYTE   W06
 BYTE   VOL   16*FE04MidbossJack_G_mvl/mxv
 BYTE   W06
//  #05 //029   ----------------------------------------
 BYTE   VOL   15*FE04MidbossJack_G_mvl/mxv
 BYTE   W06
 BYTE   VOL   14*FE04MidbossJack_G_mvl/mxv
 BYTE   W06
 BYTE   VOL   13*FE04MidbossJack_G_mvl/mxv
 BYTE   W06
 BYTE   VOL   13*FE04MidbossJack_G_mvl/mxv
 BYTE   W06
 BYTE   VOL   13*FE04MidbossJack_G_mvl/mxv
 BYTE   W06
 BYTE   VOL   12*FE04MidbossJack_G_mvl/mxv
 BYTE   W06
 BYTE   VOL   12*FE04MidbossJack_G_mvl/mxv
 BYTE   W06
 BYTE   VOL   12*FE04MidbossJack_G_mvl/mxv
 BYTE   W06
 BYTE   VOL   11*FE04MidbossJack_G_mvl/mxv
 BYTE   W06
 BYTE   VOL   11*FE04MidbossJack_G_mvl/mxv
 BYTE   W06
 BYTE   VOL   10*FE04MidbossJack_G_mvl/mxv
 BYTE   W06
 BYTE   VOL   10*FE04MidbossJack_G_mvl/mxv
 BYTE   W06
 BYTE   VOL   10*FE04MidbossJack_G_mvl/mxv
 BYTE   W01
 BYTE   VOICE   48
 BYTE   VOL   13*FE04MidbossJack_G_mvl/mxv
 BYTE   PAN   c_v+6
 BYTE   W05
 BYTE   VOL   13*FE04MidbossJack_G_mvl/mxv
 BYTE   W06
 BYTE   VOL   12*FE04MidbossJack_G_mvl/mxv
 BYTE   W06
 BYTE   VOL   12*FE04MidbossJack_G_mvl/mxv
 BYTE   W06
//  #05 //030   ----------------------------------------
 BYTE   VOL   12*FE04MidbossJack_G_mvl/mxv
 BYTE   W06
 BYTE   VOL   11*FE04MidbossJack_G_mvl/mxv
 BYTE   W05
 BYTE   N05  Gn2  v127
 BYTE   W01
 BYTE   VOL   11*FE04MidbossJack_G_mvl/mxv
 BYTE   W06
 BYTE   VOL   10*FE04MidbossJack_G_mvl/mxv
 BYTE   W04
 BYTE   N05  Gn2  v127
 BYTE   W02
 BYTE   VOL   10*FE04MidbossJack_G_mvl/mxv
 BYTE   W06
 BYTE   VOL   9*FE04MidbossJack_G_mvl/mxv
 BYTE   W06
 BYTE   VOL   9*FE04MidbossJack_G_mvl/mxv
 BYTE   W06
 BYTE   VOL   9*FE04MidbossJack_G_mvl/mxv
 BYTE   W06
 BYTE   VOL   9*FE04MidbossJack_G_mvl/mxv
 BYTE   W06
 BYTE   VOL   8*FE04MidbossJack_G_mvl/mxv
 BYTE   W06
 BYTE   VOL   8*FE04MidbossJack_G_mvl/mxv
 BYTE   W06
 BYTE   VOL   8*FE04MidbossJack_G_mvl/mxv
 BYTE   W06
 BYTE   VOL   7*FE04MidbossJack_G_mvl/mxv
 BYTE   W06
 BYTE   VOL   7*FE04MidbossJack_G_mvl/mxv
 BYTE   N05  An2  v127
 BYTE   W06
 BYTE   VOL   7*FE04MidbossJack_G_mvl/mxv
 BYTE   W06
 BYTE   VOL   7*FE04MidbossJack_G_mvl/mxv
 BYTE   N05  An2  v127
 BYTE   W06
//  #05 //031   ----------------------------------------
 BYTE   VOL   7*FE04MidbossJack_G_mvl/mxv
 BYTE   W06
 BYTE   VOL   7*FE04MidbossJack_G_mvl/mxv
 BYTE   W06
 BYTE   VOL   7*FE04MidbossJack_G_mvl/mxv
 BYTE   W04
 BYTE   VOL   5*FE04MidbossJack_G_mvl/mxv
 BYTE   W02
 BYTE   VOL   5*FE04MidbossJack_G_mvl/mxv
 BYTE   W06
 BYTE   VOL   5*FE04MidbossJack_G_mvl/mxv
 BYTE   W04
 BYTE   N05  An2  v127
 BYTE   W02
 BYTE   VOL   5*FE04MidbossJack_G_mvl/mxv
 BYTE   W06
 BYTE   VOL   5*FE04MidbossJack_G_mvl/mxv
 BYTE   W03
 BYTE   VOL   5*FE04MidbossJack_G_mvl/mxv
 BYTE   W03
 BYTE   VOL   5*FE04MidbossJack_G_mvl/mxv
 BYTE   W06
 BYTE   VOL   5*FE04MidbossJack_G_mvl/mxv
 BYTE   W02
 BYTE   N05  An2  v127
 BYTE   W04
 BYTE   VOL   5*FE04MidbossJack_G_mvl/mxv
 BYTE   W06
 BYTE   VOL   5*FE04MidbossJack_G_mvl/mxv
 BYTE   W01
 BYTE   VOL   5*FE04MidbossJack_G_mvl/mxv
 BYTE   W05
 BYTE   VOL   5*FE04MidbossJack_G_mvl/mxv
 BYTE   W06
 BYTE   VOL   5*FE04MidbossJack_G_mvl/mxv
 BYTE   N05  An2  v127
 BYTE   W06
 BYTE   VOL   5*FE04MidbossJack_G_mvl/mxv
 BYTE   W06
 BYTE   VOL   5*FE04MidbossJack_G_mvl/mxv
 BYTE   W06
 BYTE   VOL   5*FE04MidbossJack_G_mvl/mxv
 BYTE   W05
 BYTE   N05  An2  v127
 BYTE   W01
//  #05 //032   ----------------------------------------
 BYTE   VOL   5*FE04MidbossJack_G_mvl/mxv
 BYTE   W06
 BYTE   VOL   5*FE04MidbossJack_G_mvl/mxv
 BYTE   W04
 BYTE   VOL   5*FE04MidbossJack_G_mvl/mxv
 BYTE   W02
 BYTE   VOL   5*FE04MidbossJack_G_mvl/mxv
 BYTE   W06
 BYTE   VOL   5*FE04MidbossJack_G_mvl/mxv
 BYTE   W04
 BYTE   N05  An2  v127
 BYTE   W02
 BYTE   VOL   5*FE04MidbossJack_G_mvl/mxv
 BYTE   W06
 BYTE   VOL   5*FE04MidbossJack_G_mvl/mxv
 BYTE   W03
 BYTE   VOL   5*FE04MidbossJack_G_mvl/mxv
 BYTE   W03
 BYTE   VOL   5*FE04MidbossJack_G_mvl/mxv
 BYTE   W06
 BYTE   VOL   5*FE04MidbossJack_G_mvl/mxv
 BYTE   W02
 BYTE   N05  An2  v127
 BYTE   W04
 BYTE   VOL   5*FE04MidbossJack_G_mvl/mxv
 BYTE   W06
 BYTE   VOL   5*FE04MidbossJack_G_mvl/mxv
 BYTE   W01
 BYTE   VOL   5*FE04MidbossJack_G_mvl/mxv
 BYTE   W05
 BYTE   VOL   5*FE04MidbossJack_G_mvl/mxv
 BYTE   W06
 BYTE   VOL   5*FE04MidbossJack_G_mvl/mxv
 BYTE   W06
Label_015C4A81:
 BYTE   VOL   5*FE04MidbossJack_G_mvl/mxv
 BYTE   W06
 BYTE   VOL   5*FE04MidbossJack_G_mvl/mxv
 BYTE   W06
 BYTE   VOL   5*FE04MidbossJack_G_mvl/mxv
 BYTE   W06
 BYTE   VOL   5*FE04MidbossJack_G_mvl/mxv
 BYTE   W06
//  #05 //033   ----------------------------------------
 BYTE   VOL   5*FE04MidbossJack_G_mvl/mxv
 BYTE   W06
 BYTE   VOL   5*FE04MidbossJack_G_mvl/mxv
 BYTE   W06
 BYTE   VOL   5*FE04MidbossJack_G_mvl/mxv
 BYTE   W06
 BYTE   VOL   5*FE04MidbossJack_G_mvl/mxv
 BYTE   W06
 BYTE   PEND 
//  #05 //034   ----------------------------------------
 BYTE   PATT
  POIN2 Label_015C4A81
//  #05 //035   ----------------------------------------
 BYTE   VOL   5*FE04MidbossJack_G_mvl/mxv
 BYTE   W06
 BYTE   VOL   5*FE04MidbossJack_G_mvl/mxv
 BYTE   W06
 BYTE   VOL   5*FE04MidbossJack_G_mvl/mxv
 BYTE   W06
 BYTE   VOL   5*FE04MidbossJack_G_mvl/mxv
 BYTE   W06
 BYTE   VOL   5*FE04MidbossJack_G_mvl/mxv
 BYTE   W06
 BYTE   VOL   5*FE04MidbossJack_G_mvl/mxv
 BYTE   W06
 BYTE   VOL   5*FE04MidbossJack_G_mvl/mxv
 BYTE   W06
 BYTE   VOL   5*FE04MidbossJack_G_mvl/mxv
 BYTE   W06
 BYTE   VOL   5*FE04MidbossJack_G_mvl/mxv
 BYTE   FINE

//******************************************************//
	ALIGN 4

FE04MidbossJack_G:
	BYTE	5	// NumTrks
	BYTE	0	// NumBlks
	BYTE	FE04MidbossJack_G_pri	// Priority
	BYTE	FE04MidbossJack_G_rev	// Reverb.
    
	POIN2	FE04MidbossJack_G_grp
    
	POIN2	FE04MidbossJack_G_001
	POIN2	FE04MidbossJack_G_002
	POIN2	FE04MidbossJack_G_003
	POIN2	FE04MidbossJack_G_004
	POIN2	FE04MidbossJack_G_005

	
