//Event file generated from Sappy .s format.
	#include "MPlayDef.event"

	#define	FE04InheritorsofLightMonopolyRubix_grp  voicegroup000
	#define	FE04InheritorsofLightMonopolyRubix_pri  0
	#define	FE04InheritorsofLightMonopolyRubix_rev  0
	#define	FE04InheritorsofLightMonopolyRubix_mvl  127
	#define	FE04InheritorsofLightMonopolyRubix_key  0
	#define	FE04InheritorsofLightMonopolyRubix_tbs  1
	#define	FE04InheritorsofLightMonopolyRubix_exg  0
	#define	FE04InheritorsofLightMonopolyRubix_cmp  1

	// .rodata
	//	FE04InheritorsofLightMonopolyRubix
	ALIGN 4


//**************** Track 1 (Midi-Chn.0) ****************//

FE04InheritorsofLightMonopolyRubix_001:
// 000   ----------------------------------------
 BYTE   KEYSH   FE04InheritorsofLightMonopolyRubix_key+0
Label_0_54D75A:
 BYTE   TEMPO   124*FE04InheritorsofLightMonopolyRubix_tbs/2
 BYTE   VOICE   32
 BYTE   MODT 0
 BYTE   LFOS 44
 BYTE   PAN   c_v+0
 BYTE   VOL   20*FE04InheritorsofLightMonopolyRubix_mvl/mxv
 BYTE   BENDR  12
 BYTE   MOD 0
 BYTE   PAN   c_v+0
 BYTE   VOL   20*FE04InheritorsofLightMonopolyRubix_mvl/mxv
 BYTE   BEND   c_v+0
 BYTE   W05
 BYTE   VOICE   33
 BYTE   PAN   c_v+16
 BYTE   VOL   27*FE04InheritorsofLightMonopolyRubix_mvl/mxv
 BYTE   N96  An1  v127
 BYTE   W90
 BYTE   W01
// 001   ----------------------------------------
Label_0_54D77C:
 BYTE   W17
 BYTE   N09  Gn1  v127
 BYTE   W24
 BYTE   N09
 BYTE   W24
 BYTE   N09
 BYTE   W24
 BYTE   N09
 BYTE   W07
 BYTE   PEND 
// 002   ----------------------------------------
Label_0_54D788:
 BYTE   W05
 BYTE   N96  An1  v127
 BYTE   W90
 BYTE   W01
 BYTE   PEND 
// 003   ----------------------------------------
 BYTE   PATT
  POIN2 Label_0_54D77C
// 004   ----------------------------------------
 BYTE   PATT
  POIN2 Label_0_54D788
// 005   ----------------------------------------
 BYTE   PATT
  POIN2 Label_0_54D77C
// 006   ----------------------------------------
 BYTE   PATT
  POIN2 Label_0_54D788
// 007   ----------------------------------------
 BYTE   W17
 BYTE   N09  En2  v127
 BYTE   W24
 BYTE   N09
 BYTE   W24
 BYTE   N09
 BYTE   W24
 BYTE   N09
 BYTE   W07
// 008   ----------------------------------------
 BYTE   W05
 BYTE   VOICE   33
 BYTE   PAN   c_v+7
 BYTE   VOL   34*FE04InheritorsofLightMonopolyRubix_mvl/mxv
 BYTE   N05  Dn1
 BYTE   W12
 BYTE   N21
 BYTE   W24
 BYTE   N10
 BYTE   W24
 BYTE   N21
 BYTE   W24
 BYTE   N05
 BYTE   W07
// 009   ----------------------------------------
Label_0_54D7C0:
 BYTE   W05
 BYTE   N05  Dn1  v127
 BYTE   W12
 BYTE   N21
 BYTE   W24
 BYTE   N10
 BYTE   W24
 BYTE   N21
 BYTE   W24
 BYTE   N05
 BYTE   W07
 BYTE   PEND 
// 010   ----------------------------------------
Label_0_54D7CE:
 BYTE   W05
 BYTE   N05  Cs1  v127
 BYTE   W12
 BYTE   N21
 BYTE   W24
 BYTE   N10
 BYTE   W24
 BYTE   N21
 BYTE   W24
 BYTE   N05
 BYTE   W07
 BYTE   PEND 
// 011   ----------------------------------------
 BYTE   W05
 BYTE   Fs1
 BYTE   W12
 BYTE   N21
 BYTE   W24
 BYTE   N10
 BYTE   W24
 BYTE   N21  En1
 BYTE   W24
 BYTE   N05
 BYTE   W07
// 012   ----------------------------------------
 BYTE   PATT
  POIN2 Label_0_54D7C0
// 013   ----------------------------------------
 BYTE   PATT
  POIN2 Label_0_54D7C0
// 014   ----------------------------------------
 BYTE   PATT
  POIN2 Label_0_54D7CE
// 015   ----------------------------------------
 BYTE   W05
 BYTE   N05  Cn1  v127
 BYTE   W12
 BYTE   N21
 BYTE   W24
 BYTE   N10
 BYTE   W24
 BYTE   N21
 BYTE   W24
 BYTE   N05
 BYTE   W07
// 016   ----------------------------------------
 BYTE   W05
 BYTE   Bn0
 BYTE   W12
 BYTE   N21
 BYTE   W24
 BYTE   N10
 BYTE   W24
 BYTE   N21
 BYTE   W24
 BYTE   N05
 BYTE   W07
// 017   ----------------------------------------
 BYTE   W05
 BYTE   As0
 BYTE   W12
 BYTE   N21
 BYTE   W24
 BYTE   N10
 BYTE   W24
 BYTE   N21
 BYTE   W24
 BYTE   N05
 BYTE   W07
// 018   ----------------------------------------
 BYTE   W05
 BYTE   An0
 BYTE   W12
 BYTE   N21
 BYTE   W24
 BYTE   N10
 BYTE   W24
 BYTE   N21
 BYTE   W24
 BYTE   N05  An1
 BYTE   W07
// 019   ----------------------------------------
 BYTE   W05
 BYTE   An0
 BYTE   W12
 BYTE   N21
 BYTE   W24
 BYTE   N10
 BYTE   W24
 BYTE   An1
 BYTE   W12
 BYTE   An0
 BYTE   W12
 BYTE   An1
 BYTE   W07
// 020   ----------------------------------------
Label_0_54D833:
 BYTE   W05
 BYTE   N05  Gn0  v127
 BYTE   W12
 BYTE   N21
 BYTE   W24
 BYTE   N10
 BYTE   W24
 BYTE   N21
 BYTE   W24
 BYTE   N05
 BYTE   W07
 BYTE   PEND 
// 021   ----------------------------------------
 BYTE   W05
 BYTE   N05
 BYTE   W12
 BYTE   N21
 BYTE   W24
 BYTE   N10
 BYTE   W24
 BYTE   N21
 BYTE   W24
 BYTE   N05  Cs1
 BYTE   W07
// 022   ----------------------------------------
 BYTE   W05
 BYTE   Fs0
 BYTE   W12
 BYTE   N21
 BYTE   W24
 BYTE   N10
 BYTE   W24
 BYTE   N21
 BYTE   W24
 BYTE   N05  Fs1
 BYTE   W07
// 023   ----------------------------------------
 BYTE   W05
 BYTE   Fs0
 BYTE   W12
 BYTE   N21
 BYTE   W24
 BYTE   N10
 BYTE   W24
 BYTE   N10
 BYTE   W12
 BYTE   Fs1
 BYTE   W12
 BYTE   Fs0
 BYTE   W07
// 024   ----------------------------------------
 BYTE   PATT
  POIN2 Label_0_54D833
// 025   ----------------------------------------
 BYTE   W05
 BYTE   N05  Gn0  v127
 BYTE   W12
 BYTE   N21
 BYTE   W24
 BYTE   N10
 BYTE   W24
 BYTE   N10
 BYTE   W12
 BYTE   Gn1
 BYTE   W12
 BYTE   Gn0
 BYTE   W07
// 026   ----------------------------------------
 BYTE   W05
 BYTE   N05  Fs0
 BYTE   W12
 BYTE   N21
 BYTE   W24
 BYTE   N10
 BYTE   W24
 BYTE   N21
 BYTE   W24
 BYTE   N05
 BYTE   W07
// 027   ----------------------------------------
 BYTE   W05
 BYTE   N05
 BYTE   W12
 BYTE   N21
 BYTE   W24
 BYTE   N10
 BYTE   W24
 BYTE   Fs1
 BYTE   W12
 BYTE   Fs0
 BYTE   W12
 BYTE   Fs1
 BYTE   W07
// 028   ----------------------------------------
 BYTE   W05
 BYTE   N52  Fn0
 BYTE   W60
 BYTE   N10
 BYTE   W24
 BYTE   N10
 BYTE   W07
// 029   ----------------------------------------
 BYTE   W05
 BYTE   N52  Gs0
 BYTE   W60
 BYTE   N10
 BYTE   W24
 BYTE   N10
 BYTE   W07
// 030   ----------------------------------------
 BYTE   W05
 BYTE   TIE  An0
 BYTE   W90
 BYTE   W01
// 031   ----------------------------------------
 BYTE   W88
 BYTE   W01
 BYTE   EOT
 BYTE   W07
// 032   ----------------------------------------
 BYTE   GoTo
  POIN2 Label_0_54D75A
 BYTE   FINE

//**************** Track 2 (Midi-Chn.1) ****************//

FE04InheritorsofLightMonopolyRubix_002:
// 000   ----------------------------------------
 BYTE   KEYSH   FE04InheritorsofLightMonopolyRubix_key+0
Label_1_54EAFE:
 BYTE   MODT 0
 BYTE   LFOS 44
 BYTE   PAN   c_v+0
 BYTE   VOL   20*FE04InheritorsofLightMonopolyRubix_mvl/mxv
 BYTE   BENDR  12
 BYTE   MOD 0
 BYTE   PAN   c_v+0
 BYTE   VOL   20*FE04InheritorsofLightMonopolyRubix_mvl/mxv
 BYTE   BEND   c_v+0
 BYTE   W05
 BYTE   VOICE   56
 BYTE   PAN   c_v-4
 BYTE   VOL   50*FE04InheritorsofLightMonopolyRubix_mvl/mxv
 BYTE   MOD 0
 BYTE   W24
 BYTE   MOD 0
 BYTE   N21  An3  v127
 BYTE   W24
 BYTE   MOD 0
 BYTE   N21  En4
 BYTE   W24
 BYTE   MOD 0
 BYTE   N05  Dn4
 BYTE   W12
 BYTE   MOD 0
 BYTE   N05  Cs4
 BYTE   W07
// 001   ----------------------------------------
 BYTE   W05
 BYTE   MOD 0
 BYTE   N84  Bn3
 BYTE   W90
 BYTE   W01
// 002   ----------------------------------------
Label_1_54EB35:
 BYTE   W28
 BYTE   W01
 BYTE   MOD 0
 BYTE   N21  An3  v127
 BYTE   W24
 BYTE   MOD 0
 BYTE   N21  En4
 BYTE   W24
 BYTE   MOD 0
 BYTE   N05  Dn4
 BYTE   W12
 BYTE   MOD 0
 BYTE   N05  Cs4
 BYTE   W07
 BYTE   PEND 
// 003   ----------------------------------------
 BYTE   W05
 BYTE   MOD 0
 BYTE   N42  Gn4
 BYTE   W48
 BYTE   MOD 0
 BYTE   N21  Fs4
 BYTE   W24
 BYTE   MOD 0
 BYTE   N21  En4
 BYTE   W19
// 004   ----------------------------------------
 BYTE   PATT
  POIN2 Label_1_54EB35
// 005   ----------------------------------------
 BYTE   W05
 BYTE   MOD 0
 BYTE   N21  Bn3  v127
 BYTE   W24
 BYTE   MOD 0
 BYTE   N21  Gn3
 BYTE   W24
 BYTE   MOD 0
 BYTE   N21  Dn4
 BYTE   W24
 BYTE   MOD 0
 BYTE   N21  Bn3
 BYTE   W19
// 006   ----------------------------------------
 BYTE   PATT
  POIN2 Label_1_54EB35
// 007   ----------------------------------------
 BYTE   W05
 BYTE   MOD 0
 BYTE   N84  Gn4  v127
 BYTE   W90
 BYTE   W01
// 008   ----------------------------------------
 BYTE   W05
 BYTE   VOICE   60
 BYTE   PAN   c_v+26
 BYTE   VOL   34*FE04InheritorsofLightMonopolyRubix_mvl/mxv
 BYTE   MOD 0
 BYTE   N44  Dn3
 BYTE   W20
 BYTE   MOD 0
 BYTE   W28
 BYTE   MOD 0
 BYTE   N44  En3
 BYTE   W20
 BYTE   MOD 0
 BYTE   W23
// 009   ----------------------------------------
 BYTE   W05
 BYTE   MOD 0
 BYTE   N44  Fs3
 BYTE   W20
 BYTE   MOD 0
 BYTE   W28
 BYTE   MOD 0
 BYTE   N23  Gs3
 BYTE   W20
 BYTE   MOD 0
 BYTE   W04
 BYTE   MOD 0
 BYTE   N23  Fs3
 BYTE   W19
// 010   ----------------------------------------
 BYTE   W01
 BYTE   MOD 0
 BYTE   W04
 BYTE   MOD 0
 BYTE   N68  En3
 BYTE   W20
 BYTE   MOD 0
 BYTE   W52
 BYTE   MOD 0
 BYTE   N23  Gs3
 BYTE   W19
// 011   ----------------------------------------
 BYTE   W01
 BYTE   MOD 0
 BYTE   W04
 BYTE   MOD 0
 BYTE   N23  Bn3
 BYTE   W20
 BYTE   MOD 0
 BYTE   W04
 BYTE   MOD 0
 BYTE   N23  An3
 BYTE   W20
 BYTE   MOD 0
 BYTE   W04
 BYTE   MOD 0
 BYTE   N23  Gs3
 BYTE   W20
 BYTE   MOD 0
 BYTE   W04
 BYTE   MOD 0
 BYTE   N23  An3
 BYTE   W19
// 012   ----------------------------------------
 BYTE   W01
 BYTE   MOD 0
 BYTE   W04
 BYTE   MOD 0
 BYTE   N92  Cs3
 BYTE   W20
 BYTE   MOD 0
 BYTE   W68
 BYTE   W03
// 013   ----------------------------------------
 BYTE   W05
 BYTE   MOD 0
 BYTE   N44  En3
 BYTE   W20
 BYTE   MOD 0
 BYTE   W28
 BYTE   MOD 0
 BYTE   N44  Dn3
 BYTE   W20
 BYTE   MOD 0
 BYTE   W23
// 014   ----------------------------------------
 BYTE   W05
 BYTE   MOD 0
 BYTE   N44  Cs3
 BYTE   W20
 BYTE   MOD 0
 BYTE   W28
 BYTE   MOD 0
 BYTE   N44  Bn2
 BYTE   W20
 BYTE   MOD 0
 BYTE   W23
// 015   ----------------------------------------
 BYTE   W05
 BYTE   MOD 0
 BYTE   N44  An2
 BYTE   W20
 BYTE   MOD 0
 BYTE   W28
 BYTE   MOD 0
 BYTE   N44  Gn2
 BYTE   W20
 BYTE   MOD 0
 BYTE   W23
// 016   ----------------------------------------
 BYTE   W05
 BYTE   MOD 0
 BYTE   N44  Fs2
 BYTE   W20
 BYTE   MOD 0
 BYTE   W28
 BYTE   MOD 0
 BYTE   N44  Cs3
 BYTE   W20
 BYTE   MOD 0
 BYTE   W23
// 017   ----------------------------------------
 BYTE   W05
 BYTE   MOD 0
 BYTE   N44  Gn3
 BYTE   W20
 BYTE   MOD 0
 BYTE   W28
 BYTE   MOD 0
 BYTE   N23  Dn3
 BYTE   W20
 BYTE   MOD 0
 BYTE   W04
 BYTE   MOD 0
 BYTE   N23  En3
 BYTE   W19
// 018   ----------------------------------------
 BYTE   W01
 BYTE   MOD 0
 BYTE   W04
 BYTE   MOD 0
 BYTE   N23  An2
 BYTE   W20
 BYTE   MOD 0
 BYTE   W04
 BYTE   MOD 0
 BYTE   N23  Bn2
 BYTE   W20
 BYTE   MOD 0
 BYTE   W04
 BYTE   MOD 0
 BYTE   N23  Cs3
 BYTE   W20
 BYTE   MOD 0
 BYTE   W04
 BYTE   MOD 0
 BYTE   N23  En3
 BYTE   W19
// 019   ----------------------------------------
 BYTE   W01
 BYTE   MOD 0
 BYTE   W04
 BYTE   MOD 0
 BYTE   N68  An3
 BYTE   W20
 BYTE   MOD 0
 BYTE   W52
 BYTE   MOD 0
 BYTE   N23
 BYTE   W19
// 020   ----------------------------------------
 BYTE   W01
 BYTE   MOD 0
 BYTE   W04
 BYTE   MOD 0
 BYTE   N23  Fs3
 BYTE   W20
 BYTE   MOD 0
 BYTE   W04
 BYTE   MOD 0
 BYTE   N07  Gs3
 BYTE   W08
 BYTE   MOD 0
 BYTE   N07  Fs3
 BYTE   W08
 BYTE   MOD 0
 BYTE   N07  En3
 BYTE   W08
 BYTE   MOD 0
 BYTE   N23  Fs3
 BYTE   W20
 BYTE   MOD 0
 BYTE   W16
 BYTE   MOD 0
 BYTE   N11
 BYTE   W07
// 021   ----------------------------------------
 BYTE   W05
 BYTE   MOD 0
 BYTE   N44  Cs4
 BYTE   W20
 BYTE   MOD 0
 BYTE   W28
 BYTE   MOD 0
 BYTE   N15  An3
 BYTE   W16
 BYTE   MOD 0
 BYTE   N15  Gs3
 BYTE   W16
 BYTE   MOD 0
 BYTE   N15  Fs3
 BYTE   W11
// 022   ----------------------------------------
 BYTE   W05
 BYTE   MOD 0
 BYTE   N44  Gs3
 BYTE   W20
 BYTE   MOD 0
 BYTE   W28
 BYTE   MOD 0
 BYTE   N44  En3
 BYTE   W20
 BYTE   MOD 0
 BYTE   W23
// 023   ----------------------------------------
 BYTE   W05
 BYTE   MOD 0
 BYTE   N44  Cs3
 BYTE   W20
 BYTE   MOD 0
 BYTE   W52
 BYTE   MOD 0
 BYTE   N23
 BYTE   W19
// 024   ----------------------------------------
 BYTE   W01
 BYTE   MOD 0
 BYTE   W04
 BYTE   MOD 0
 BYTE   N44  Cs4
 BYTE   W20
 BYTE   MOD 0
 BYTE   W28
 BYTE   MOD 0
 BYTE   N44  Bn3
 BYTE   W20
 BYTE   MOD 0
 BYTE   W23
// 025   ----------------------------------------
 BYTE   W05
 BYTE   MOD 0
 BYTE   N44  An3
 BYTE   W20
 BYTE   MOD 0
 BYTE   W28
 BYTE   MOD 0
 BYTE   N44  Bn3
 BYTE   W20
 BYTE   MOD 0
 BYTE   W23
// 026   ----------------------------------------
 BYTE   W05
 BYTE   MOD 0
 BYTE   TIE  Gs3
 BYTE   W20
 BYTE   MOD 0
 BYTE   W68
 BYTE   W03
// 027   ----------------------------------------
 BYTE   W76
 BYTE   EOT
 BYTE   W20
// 028   ----------------------------------------
 BYTE   W05
 BYTE   MOD 0
 BYTE   N92  Fn2
 BYTE   W20
 BYTE   MOD 0
 BYTE   W68
 BYTE   W03
// 029   ----------------------------------------
 BYTE   W05
 BYTE   MOD 0
 BYTE   N92  Cn3
 BYTE   W20
 BYTE   MOD 0
 BYTE   W68
 BYTE   W03
// 030   ----------------------------------------
 BYTE   W05
 BYTE   MOD 0
 BYTE   N20  En3
 BYTE   W20
 BYTE   MOD 0
 BYTE   W68
 BYTE   W03
// 031   ----------------------------------------
 BYTE   W96
// 032   ----------------------------------------
 BYTE   GoTo
  POIN2 Label_1_54EAFE
 BYTE   FINE

//**************** Track 3 (Midi-Chn.2) ****************//

FE04InheritorsofLightMonopolyRubix_003:
// 000   ----------------------------------------
 BYTE   KEYSH   FE04InheritorsofLightMonopolyRubix_key+0
Label_2_54E0BA:
 BYTE   MODT 0
 BYTE   LFOS 44
 BYTE   PAN   c_v+0
 BYTE   VOL   20*FE04InheritorsofLightMonopolyRubix_mvl/mxv
 BYTE   BENDR  12
 BYTE   MOD 0
 BYTE   PAN   c_v+0
 BYTE   VOL   20*FE04InheritorsofLightMonopolyRubix_mvl/mxv
 BYTE   BEND   c_v+0
 BYTE   W05
 BYTE   VOICE   60
 BYTE   PAN   c_v-29
 BYTE   VOL   27*FE04InheritorsofLightMonopolyRubix_mvl/mxv
 BYTE   MOD 0
 BYTE   BEND   c_v-1
 BYTE   TIE  Cs4  v127
 BYTE   W90
 BYTE   W01
// 001   ----------------------------------------
 BYTE   W24
 BYTE   W02
 BYTE   EOT
 BYTE   W03
 BYTE   MOD 0
 BYTE   N21  Gn3
 BYTE   W24
 BYTE   MOD 0
 BYTE   N21  Bn3
 BYTE   W24
 BYTE   MOD 0
 BYTE   N21  Dn4
 BYTE   W19
// 002   ----------------------------------------
Label_2_54E0EF:
 BYTE   W05
 BYTE   MOD 0
 BYTE   TIE  Cs4  v127
 BYTE   W90
 BYTE   W01
 BYTE   PEND 
// 003   ----------------------------------------
 BYTE   W24
 BYTE   W02
 BYTE   EOT
 BYTE   W03
 BYTE   MOD 0
 BYTE   N21  Bn3
 BYTE   W24
 BYTE   MOD 0
 BYTE   N21  Dn4
 BYTE   W24
 BYTE   MOD 0
 BYTE   N21  Fs4
 BYTE   W19
// 004   ----------------------------------------
 BYTE   W05
 BYTE   MOD 0
 BYTE   N84  Cs4
 BYTE   W90
 BYTE   W01
// 005   ----------------------------------------
 BYTE   W05
 BYTE   MOD 0
 BYTE   N42  Gn3
 BYTE   W48
 BYTE   MOD 0
 BYTE   N21  Bn3
 BYTE   W24
 BYTE   MOD 0
 BYTE   N21  Dn4
 BYTE   W19
// 006   ----------------------------------------
 BYTE   PATT
  POIN2 Label_2_54E0EF
// 007   ----------------------------------------
 BYTE   W24
 BYTE   W02
 BYTE   EOT
 BYTE   Cs4
 BYTE   W03
 BYTE   MOD 0
 BYTE   N21  Bn3  v127
 BYTE   W24
 BYTE   MOD 0
 BYTE   N21  Dn4
 BYTE   W24
 BYTE   MOD 0
 BYTE   N21  Fs4
 BYTE   W19
// 008   ----------------------------------------
 BYTE   W05
 BYTE   PAN   c_v+56
 BYTE   MOD 0
 BYTE   W90
 BYTE   W01
// 009   ----------------------------------------
 BYTE   W96
// 010   ----------------------------------------
 BYTE   W96
// 011   ----------------------------------------
 BYTE   W96
// 012   ----------------------------------------
 BYTE   W96
// 013   ----------------------------------------
 BYTE   W96
// 014   ----------------------------------------
 BYTE   W96
// 015   ----------------------------------------
 BYTE   W96
// 016   ----------------------------------------
 BYTE   W96
// 017   ----------------------------------------
 BYTE   W96
// 018   ----------------------------------------
 BYTE   W96
// 019   ----------------------------------------
 BYTE   W96
// 020   ----------------------------------------
 BYTE   W96
// 021   ----------------------------------------
 BYTE   W96
// 022   ----------------------------------------
 BYTE   W96
// 023   ----------------------------------------
 BYTE   W96
// 024   ----------------------------------------
 BYTE   W05
 BYTE   MOD 0
 BYTE   N44  Cs3
 BYTE   W20
 BYTE   MOD 0
 BYTE   W28
 BYTE   MOD 0
 BYTE   N44  Bn2
 BYTE   W20
 BYTE   MOD 0
 BYTE   W23
// 025   ----------------------------------------
 BYTE   W05
 BYTE   MOD 0
 BYTE   N44  An2
 BYTE   W20
 BYTE   MOD 0
 BYTE   W28
 BYTE   MOD 0
 BYTE   N44  Bn2
 BYTE   W20
 BYTE   MOD 0
 BYTE   W23
// 026   ----------------------------------------
 BYTE   W05
 BYTE   MOD 0
 BYTE   TIE  Gs2
 BYTE   W20
 BYTE   MOD 0
 BYTE   W68
 BYTE   W03
// 027   ----------------------------------------
 BYTE   W76
 BYTE   EOT
 BYTE   W20
// 028   ----------------------------------------
 BYTE   W05
 BYTE   VOICE   56
 BYTE   PAN   c_v-24
 BYTE   VOL   27*FE04InheritorsofLightMonopolyRubix_mvl/mxv
 BYTE   MOD 0
 BYTE   N10  Cn3
 BYTE   W12
 BYTE   MOD 0
 BYTE   N10
 BYTE   W20
 BYTE   MOD 0
 BYTE   W04
 BYTE   MOD 0
 BYTE   N07
 BYTE   W20
 BYTE   MOD 0
 BYTE   W04
 BYTE   MOD 0
 BYTE   N07
 BYTE   W20
 BYTE   MOD 0
 BYTE   W04
 BYTE   MOD 0
 BYTE   N07
 BYTE   W07
// 029   ----------------------------------------
 BYTE   W05
 BYTE   MOD 0
 BYTE   N10
 BYTE   W12
 BYTE   MOD 0
 BYTE   N10
 BYTE   W20
 BYTE   MOD 0
 BYTE   W04
 BYTE   MOD 0
 BYTE   N07
 BYTE   W20
 BYTE   MOD 0
 BYTE   W04
 BYTE   MOD 0
 BYTE   N07
 BYTE   W20
 BYTE   MOD 0
 BYTE   W04
 BYTE   MOD 0
 BYTE   N07
 BYTE   W07
// 030   ----------------------------------------
 BYTE   W05
 BYTE   MOD 0
 BYTE   N10  En3
 BYTE   W12
 BYTE   MOD 0
 BYTE   N10
 BYTE   W20
 BYTE   MOD 0
 BYTE   W04
 BYTE   MOD 0
 BYTE   N07
 BYTE   W20
 BYTE   MOD 0
 BYTE   W04
 BYTE   MOD 0
 BYTE   N07
 BYTE   W20
 BYTE   MOD 0
 BYTE   W04
 BYTE   MOD 0
 BYTE   N07
 BYTE   W07
// 031   ----------------------------------------
 BYTE   W05
 BYTE   MOD 0
 BYTE   N10  Cs3
 BYTE   W12
 BYTE   MOD 0
 BYTE   N10
 BYTE   W20
 BYTE   MOD 0
 BYTE   W04
 BYTE   MOD 0
 BYTE   N07
 BYTE   W20
 BYTE   MOD 0
 BYTE   W04
 BYTE   MOD 0
 BYTE   N07
 BYTE   W20
 BYTE   MOD 0
 BYTE   W04
 BYTE   MOD 0
 BYTE   W07
// 032   ----------------------------------------
 BYTE   GoTo
  POIN2 Label_2_54E0BA
 BYTE   FINE

//**************** Track 4 (Midi-Chn.3) ****************//

FE04InheritorsofLightMonopolyRubix_004:
// 000   ----------------------------------------
 BYTE   KEYSH   FE04InheritorsofLightMonopolyRubix_key+0
Label_3_54E1FA:
 BYTE   MODT 0
 BYTE   LFOS 44
 BYTE   PAN   c_v+0
 BYTE   VOL   20*FE04InheritorsofLightMonopolyRubix_mvl/mxv
 BYTE   BENDR  12
 BYTE   MOD 0
 BYTE   PAN   c_v+0
 BYTE   VOL   20*FE04InheritorsofLightMonopolyRubix_mvl/mxv
 BYTE   BEND   c_v+0
 BYTE   W05
 BYTE   VOICE   60
 BYTE   PAN   c_v+46
 BYTE   VOL   27*FE04InheritorsofLightMonopolyRubix_mvl/mxv
 BYTE   TIE  Cs3  v127
 BYTE   W90
 BYTE   W01
// 001   ----------------------------------------
 BYTE   W24
 BYTE   W02
 BYTE   EOT
 BYTE   W03
 BYTE   N21  Gn2
 BYTE   W24
 BYTE   Bn2
 BYTE   W24
 BYTE   Dn3
 BYTE   W19
// 002   ----------------------------------------
Label_3_54E223:
 BYTE   W05
 BYTE   TIE  Cs3  v127
 BYTE   W90
 BYTE   W01
 BYTE   PEND 
// 003   ----------------------------------------
 BYTE   W24
 BYTE   W02
 BYTE   EOT
 BYTE   W03
 BYTE   N21  Bn2
 BYTE   W24
 BYTE   Dn3
 BYTE   W24
 BYTE   Fs3
 BYTE   W19
// 004   ----------------------------------------
 BYTE   W05
 BYTE   N84  Cs3
 BYTE   W90
 BYTE   W01
// 005   ----------------------------------------
 BYTE   W05
 BYTE   N42  Gn2
 BYTE   W48
 BYTE   N21  Bn2
 BYTE   W24
 BYTE   Dn3
 BYTE   W19
// 006   ----------------------------------------
 BYTE   PATT
  POIN2 Label_3_54E223
// 007   ----------------------------------------
 BYTE   W24
 BYTE   W02
 BYTE   EOT
 BYTE   Cs3
 BYTE   W03
 BYTE   N21  Bn2  v127
 BYTE   W24
 BYTE   Dn3
 BYTE   W24
 BYTE   Fs3
 BYTE   W19
// 008   ----------------------------------------
 BYTE   W05
 BYTE   PAN   c_v+0
 BYTE   VOL   34*FE04InheritorsofLightMonopolyRubix_mvl/mxv
 BYTE   W90
 BYTE   W01
// 009   ----------------------------------------
 BYTE   W96
// 010   ----------------------------------------
 BYTE   W96
// 011   ----------------------------------------
 BYTE   W96
// 012   ----------------------------------------
 BYTE   W96
// 013   ----------------------------------------
 BYTE   W96
// 014   ----------------------------------------
 BYTE   W96
// 015   ----------------------------------------
 BYTE   W96
// 016   ----------------------------------------
 BYTE   W96
// 017   ----------------------------------------
 BYTE   W96
// 018   ----------------------------------------
 BYTE   W96
// 019   ----------------------------------------
 BYTE   W96
// 020   ----------------------------------------
 BYTE   W05
 BYTE   VOICE   10
 BYTE   N48  Cs3
 BYTE   W48
 BYTE   N24  Dn3
 BYTE   W24
 BYTE   En3
 BYTE   W19
// 021   ----------------------------------------
 BYTE   W05
 BYTE   N48  Fs3
 BYTE   W48
 BYTE   N16  Cs4
 BYTE   W16
 BYTE   Bn3
 BYTE   W16
 BYTE   An3
 BYTE   W11
// 022   ----------------------------------------
 BYTE   W05
 BYTE   N48  Bn3
 BYTE   W48
 BYTE   Gs3
 BYTE   W42
 BYTE   W01
// 023   ----------------------------------------
 BYTE   W05
 BYTE   N72  En3
 BYTE   W90
 BYTE   W01
// 024   ----------------------------------------
 BYTE   W05
 BYTE   VOICE   73
 BYTE   PAN   c_v-54
 BYTE   VOL   34*FE04InheritorsofLightMonopolyRubix_mvl/mxv
 BYTE   MOD 0
 BYTE   N48  Cs5
 BYTE   W18
 BYTE   MOD 0
 BYTE   W30
 BYTE   MOD 0
 BYTE   N48  Bn4
 BYTE   W18
 BYTE   MOD 0
 BYTE   W24
 BYTE   W01
// 025   ----------------------------------------
 BYTE   W05
 BYTE   MOD 0
 BYTE   N48  An4
 BYTE   W18
 BYTE   MOD 0
 BYTE   W30
 BYTE   MOD 0
 BYTE   N48  Bn4
 BYTE   W18
 BYTE   MOD 0
 BYTE   W24
 BYTE   W01
// 026   ----------------------------------------
 BYTE   W05
 BYTE   MOD 0
 BYTE   TIE  Gs4
 BYTE   W18
 BYTE   MOD 0
 BYTE   W72
 BYTE   W01
// 027   ----------------------------------------
 BYTE   W76
 BYTE   W01
 BYTE   EOT
 BYTE   W19
// 028   ----------------------------------------
 BYTE   W05
 BYTE   VOICE   56
 BYTE   PAN   c_v-44
 BYTE   VOL   27*FE04InheritorsofLightMonopolyRubix_mvl/mxv
 BYTE   MOD 0
 BYTE   N10  Fn2
 BYTE   W12
 BYTE   MOD 0
 BYTE   N10
 BYTE   W18
 BYTE   MOD 0
 BYTE   W06
 BYTE   MOD 0
 BYTE   N07
 BYTE   W18
 BYTE   MOD 0
 BYTE   W06
 BYTE   MOD 0
 BYTE   N07
 BYTE   W18
 BYTE   MOD 0
 BYTE   W06
 BYTE   MOD 0
 BYTE   N07
 BYTE   W07
// 029   ----------------------------------------
 BYTE   W05
 BYTE   MOD 0
 BYTE   N10  Gn2
 BYTE   W12
 BYTE   MOD 0
 BYTE   N10
 BYTE   W18
 BYTE   MOD 0
 BYTE   W06
 BYTE   MOD 0
 BYTE   N07
 BYTE   W18
 BYTE   MOD 0
 BYTE   W06
 BYTE   MOD 0
 BYTE   N07
 BYTE   W18
 BYTE   MOD 0
 BYTE   W06
 BYTE   MOD 0
 BYTE   N07
 BYTE   W07
// 030   ----------------------------------------
 BYTE   W05
 BYTE   MOD 0
 BYTE   N10  An2
 BYTE   W12
 BYTE   MOD 0
 BYTE   N10
 BYTE   W18
 BYTE   MOD 0
 BYTE   W06
 BYTE   MOD 0
 BYTE   N07
 BYTE   W18
 BYTE   MOD 0
 BYTE   W06
 BYTE   MOD 0
 BYTE   N07
 BYTE   W18
 BYTE   MOD 0
 BYTE   W06
 BYTE   MOD 0
 BYTE   N07
 BYTE   W07
// 031   ----------------------------------------
 BYTE   W05
 BYTE   MOD 0
 BYTE   N10
 BYTE   W12
 BYTE   MOD 0
 BYTE   N10
 BYTE   W18
 BYTE   MOD 0
 BYTE   W06
 BYTE   MOD 0
 BYTE   N07
 BYTE   W18
 BYTE   MOD 0
 BYTE   W06
 BYTE   MOD 0
 BYTE   N07
 BYTE   W18
 BYTE   MOD 0
 BYTE   W06
 BYTE   MOD 0
 BYTE   W07
// 032   ----------------------------------------
 BYTE   GoTo
  POIN2 Label_3_54E1FA
 BYTE   FINE

//**************** Track 5 (Midi-Chn.4) ****************//

FE04InheritorsofLightMonopolyRubix_005:
// 000   ----------------------------------------
 BYTE   KEYSH   FE04InheritorsofLightMonopolyRubix_key+0
Label_4_011E1A7E:
 BYTE   MODT 0
 BYTE   LFOS 44
 BYTE   PAN   c_v+0
 BYTE   VOL   20*FE04InheritorsofLightMonopolyRubix_mvl/mxv
 BYTE   BENDR  12
 BYTE   MOD 0
 BYTE   PAN   c_v+0
 BYTE   VOL   20*FE04InheritorsofLightMonopolyRubix_mvl/mxv
 BYTE   BEND   c_v+0
 BYTE   W05
 BYTE   VOICE   48
 BYTE   PAN   c_v+36
 BYTE   VOL   42*FE04InheritorsofLightMonopolyRubix_mvl/mxv
 BYTE   W24
 BYTE   N23  En3  v127
 BYTE   W24
 BYTE   An3
 BYTE   W24
 BYTE   N05
 BYTE   W12
 BYTE   N05
 BYTE   W07
// 001   ----------------------------------------
 BYTE   W05
 BYTE   N92  Gn3
 BYTE   W90
 BYTE   W01
// 002   ----------------------------------------
Label_4_011E1AA7:
 BYTE   W28
 BYTE   W01
 BYTE   N23  En3  v127
 BYTE   W24
 BYTE   An3
 BYTE   W24
 BYTE   N05
 BYTE   W12
 BYTE   N05
 BYTE   W07
 BYTE   PEND 
// 003   ----------------------------------------
 BYTE   W05
 BYTE   N44  Bn3
 BYTE   W48
 BYTE   N23
 BYTE   W24
 BYTE   N23
 BYTE   W19
// 004   ----------------------------------------
 BYTE   PATT
  POIN2 Label_4_011E1AA7
// 005   ----------------------------------------
 BYTE   W05
 BYTE   N23  Gn3  v127
 BYTE   W24
 BYTE   Dn3
 BYTE   W24
 BYTE   Gn3
 BYTE   W24
 BYTE   N23
 BYTE   W19
// 006   ----------------------------------------
 BYTE   PATT
  POIN2 Label_4_011E1AA7
// 007   ----------------------------------------
 BYTE   W05
 BYTE   N92  Dn4  v127
 BYTE   W90
 BYTE   W01
// 008   ----------------------------------------
 BYTE   W05
 BYTE   VOICE   48
 BYTE   PAN   c_v-9
 BYTE   VOL   42*FE04InheritorsofLightMonopolyRubix_mvl/mxv
 BYTE   N44  Fs4
 BYTE   W48
 BYTE   N68  Cs4
 BYTE   W42
 BYTE   W01
// 009   ----------------------------------------
 BYTE   W28
 BYTE   W01
 BYTE   N23  Bn3
 BYTE   W24
 BYTE   Cs4
 BYTE   W24
 BYTE   Dn4
 BYTE   W19
// 010   ----------------------------------------
 BYTE   W05
 BYTE   N68  En4
 BYTE   W72
 BYTE   N23  Cs4
 BYTE   W19
// 011   ----------------------------------------
 BYTE   W05
 BYTE   N68  An4
 BYTE   W72
 BYTE   N23  Gs4
 BYTE   W19
// 012   ----------------------------------------
 BYTE   W05
 BYTE   N44  Fs4
 BYTE   W48
 BYTE   Cs4
 BYTE   W42
 BYTE   W01
// 013   ----------------------------------------
 BYTE   W28
 BYTE   W01
 BYTE   N23  Bn3
 BYTE   W24
 BYTE   En4
 BYTE   W24
 BYTE   Gs4
 BYTE   W19
// 014   ----------------------------------------
 BYTE   W05
 BYTE   N68  Bn4
 BYTE   W72
 BYTE   N23  Gs4
 BYTE   W19
// 015   ----------------------------------------
 BYTE   W05
 BYTE   N44  An4
 BYTE   W48
 BYTE   Bn4
 BYTE   W42
 BYTE   W01
// 016   ----------------------------------------
 BYTE   W05
 BYTE   Cs5
 BYTE   W48
 BYTE   N23  Fs4
 BYTE   W24
 BYTE   Cs5
 BYTE   W19
// 017   ----------------------------------------
 BYTE   W05
 BYTE   En5
 BYTE   W24
 BYTE   Dn5
 BYTE   W24
 BYTE   An4
 BYTE   W24
 BYTE   Bn4
 BYTE   W19
// 018   ----------------------------------------
 BYTE   W05
 BYTE   N92  Cs5
 BYTE   W90
 BYTE   W01
// 019   ----------------------------------------
 BYTE   W05
 BYTE   N68  Cs4
 BYTE   W72
 BYTE   N23  Cs3
 BYTE   W19
// 020   ----------------------------------------
 BYTE   W05
 BYTE   N44
 BYTE   W48
 BYTE   N23  Dn3
 BYTE   W24
 BYTE   En3
 BYTE   W19
// 021   ----------------------------------------
 BYTE   W05
 BYTE   N44  Fs3
 BYTE   W48
 BYTE   N15  Cs4
 BYTE   W16
 BYTE   Bn3
 BYTE   W16
 BYTE   An3
 BYTE   W11
// 022   ----------------------------------------
 BYTE   W05
 BYTE   N44  Bn3
 BYTE   W48
 BYTE   Gs3
 BYTE   W42
 BYTE   W01
// 023   ----------------------------------------
 BYTE   W05
 BYTE   N68  En3
 BYTE   W90
 BYTE   W01
// 024   ----------------------------------------
 BYTE   W96
// 025   ----------------------------------------
 BYTE   W96
// 026   ----------------------------------------
 BYTE   W96
// 027   ----------------------------------------
 BYTE   W96
// 028   ----------------------------------------
 BYTE   W05
 BYTE   N32  Cn3
 BYTE   W36
 BYTE   N05
 BYTE   W06
 BYTE   Dn3
 BYTE   W06
 BYTE   N32  En3
 BYTE   W36
 BYTE   N05
 BYTE   W06
 BYTE   Fn3
 BYTE   W01
// 029   ----------------------------------------
 BYTE   W05
 BYTE   N32  Gn3
 BYTE   W36
 BYTE   N05
 BYTE   W06
 BYTE   An3
 BYTE   W06
 BYTE   N32  As3
 BYTE   W36
 BYTE   N05
 BYTE   W06
 BYTE   Cn4
 BYTE   W01
// 030   ----------------------------------------
 BYTE   W05
 BYTE   N92  Cs4
 BYTE   W90
 BYTE   W01
// 031   ----------------------------------------
 BYTE   W05
 BYTE   N68  Cs3
 BYTE   W90
 BYTE   W01
// 032   ----------------------------------------
 BYTE   GoTo
  POIN2 Label_4_011E1A7E
 BYTE   FINE

//**************** Track 6 (Midi-Chn.5) ****************//

FE04InheritorsofLightMonopolyRubix_006:
// 000   ----------------------------------------
 BYTE   KEYSH   FE04InheritorsofLightMonopolyRubix_key+0
Label_5_54D8B6:
 BYTE   MODT 0
 BYTE   LFOS 44
 BYTE   PAN   c_v+0
 BYTE   VOL   20*FE04InheritorsofLightMonopolyRubix_mvl/mxv
 BYTE   BENDR  12
 BYTE   MOD 0
 BYTE   PAN   c_v+0
 BYTE   VOL   20*FE04InheritorsofLightMonopolyRubix_mvl/mxv
 BYTE   BEND   c_v+0
 BYTE   W05
 BYTE   VOICE   48
 BYTE   PAN   c_v-49
 BYTE   VOL   42*FE04InheritorsofLightMonopolyRubix_mvl/mxv
 BYTE   N92  An2  v127
 BYTE   W90
 BYTE   W01
// 001   ----------------------------------------
Label_5_54D8D4:
 BYTE   W17
 BYTE   N11  Gn2  v127
 BYTE   W24
 BYTE   N11
 BYTE   W24
 BYTE   N11
 BYTE   W24
 BYTE   N11
 BYTE   W07
 BYTE   PEND 
// 002   ----------------------------------------
Label_5_54D8E0:
 BYTE   W05
 BYTE   N92  An2  v127
 BYTE   W90
 BYTE   W01
 BYTE   PEND 
// 003   ----------------------------------------
 BYTE   PATT
  POIN2 Label_5_54D8D4
// 004   ----------------------------------------
 BYTE   PATT
  POIN2 Label_5_54D8E0
// 005   ----------------------------------------
 BYTE   PATT
  POIN2 Label_5_54D8D4
// 006   ----------------------------------------
 BYTE   PATT
  POIN2 Label_5_54D8E0
// 007   ----------------------------------------
 BYTE   W17
 BYTE   N11  En3  v127
 BYTE   W24
 BYTE   N11
 BYTE   W24
 BYTE   N11
 BYTE   W24
 BYTE   N11
 BYTE   W07
// 008   ----------------------------------------
 BYTE   W05
 BYTE   VOICE   48
 BYTE   PAN   c_v-44
 BYTE   VOL   34*FE04InheritorsofLightMonopolyRubix_mvl/mxv
 BYTE   N44  Fs3
 BYTE   W48
 BYTE   N68  Cs3
 BYTE   W42
 BYTE   W01
// 009   ----------------------------------------
 BYTE   W28
 BYTE   W01
 BYTE   N23  Bn2
 BYTE   W24
 BYTE   Cs3
 BYTE   W24
 BYTE   Dn3
 BYTE   W19
// 010   ----------------------------------------
 BYTE   W05
 BYTE   N68  En3
 BYTE   W72
 BYTE   N23  Cs3
 BYTE   W19
// 011   ----------------------------------------
 BYTE   W05
 BYTE   N68  An3
 BYTE   W72
 BYTE   N23  Gs3
 BYTE   W19
// 012   ----------------------------------------
 BYTE   W05
 BYTE   N44  Fs3
 BYTE   W48
 BYTE   Cs3
 BYTE   W42
 BYTE   W01
// 013   ----------------------------------------
 BYTE   W28
 BYTE   W01
 BYTE   N23  Bn2
 BYTE   W24
 BYTE   En3
 BYTE   W24
 BYTE   Gs3
 BYTE   W19
// 014   ----------------------------------------
 BYTE   W05
 BYTE   N68  Bn3
 BYTE   W72
 BYTE   N23  Gs3
 BYTE   W19
// 015   ----------------------------------------
 BYTE   W05
 BYTE   N44  An3
 BYTE   W48
 BYTE   Bn3
 BYTE   W42
 BYTE   W01
// 016   ----------------------------------------
 BYTE   W05
 BYTE   Cs4
 BYTE   W48
 BYTE   N23  Fs3
 BYTE   W24
 BYTE   Cs4
 BYTE   W19
// 017   ----------------------------------------
 BYTE   W05
 BYTE   En4
 BYTE   W24
 BYTE   Dn4
 BYTE   W24
 BYTE   An3
 BYTE   W24
 BYTE   Bn3
 BYTE   W19
// 018   ----------------------------------------
 BYTE   W05
 BYTE   N92  Cs4
 BYTE   W90
 BYTE   W01
// 019   ----------------------------------------
 BYTE   W05
 BYTE   N68  Cs3
 BYTE   W72
 BYTE   N23  Cs2
 BYTE   W19
// 020   ----------------------------------------
 BYTE   W05
 BYTE   N44
 BYTE   W48
 BYTE   N23  Dn2
 BYTE   W24
 BYTE   En2
 BYTE   W19
// 021   ----------------------------------------
 BYTE   W05
 BYTE   N44  Fs2
 BYTE   W48
 BYTE   N15  Cs3
 BYTE   W16
 BYTE   Bn2
 BYTE   W16
 BYTE   An2
 BYTE   W11
// 022   ----------------------------------------
 BYTE   W05
 BYTE   N44  Bn2
 BYTE   W48
 BYTE   Gs2
 BYTE   W42
 BYTE   W01
// 023   ----------------------------------------
 BYTE   W05
 BYTE   N68  En2
 BYTE   W90
 BYTE   W01
// 024   ----------------------------------------
 BYTE   W96
// 025   ----------------------------------------
 BYTE   W96
// 026   ----------------------------------------
 BYTE   W96
// 027   ----------------------------------------
 BYTE   W96
// 028   ----------------------------------------
 BYTE   W05
 BYTE   N32  An3
 BYTE   W36
 BYTE   N05
 BYTE   W06
 BYTE   N05
 BYTE   W06
 BYTE   N32  En3
 BYTE   W36
 BYTE   N05  An3
 BYTE   W07
// 029   ----------------------------------------
 BYTE   W05
 BYTE   N32  En3
 BYTE   W36
 BYTE   N05
 BYTE   W06
 BYTE   N05
 BYTE   W06
 BYTE   N32  Gn3
 BYTE   W36
 BYTE   N05
 BYTE   W07
// 030   ----------------------------------------
 BYTE   W05
 BYTE   TIE  An3
 BYTE   W90
 BYTE   W01
// 031   ----------------------------------------
 BYTE   W76
 BYTE   EOT
 BYTE   W20
// 032   ----------------------------------------
 BYTE   GoTo
  POIN2 Label_5_54D8B6
 BYTE   FINE

//**************** Track 7 (Midi-Chn.6) ****************//

FE04InheritorsofLightMonopolyRubix_007:
// 000   ----------------------------------------
 BYTE   KEYSH   FE04InheritorsofLightMonopolyRubix_key+0
Label_6_011E1DC2:
 BYTE   MODT 0
 BYTE   LFOS 44
 BYTE   PAN   c_v+0
 BYTE   VOL   20*FE04InheritorsofLightMonopolyRubix_mvl/mxv
 BYTE   BENDR  12
 BYTE   MOD 0
 BYTE   VOL   20*FE04InheritorsofLightMonopolyRubix_mvl/mxv
 BYTE   BEND   c_v+0
 BYTE   W05
 BYTE   VOICE   121
 BYTE   VOL   34*FE04InheritorsofLightMonopolyRubix_mvl/mxv
 BYTE   W90
 BYTE   W01
// 001   ----------------------------------------
 BYTE   W96
// 002   ----------------------------------------
 BYTE   W96
// 003   ----------------------------------------
 BYTE   W96
// 004   ----------------------------------------
 BYTE   W96
// 005   ----------------------------------------
 BYTE   W96
// 006   ----------------------------------------
 BYTE   W96
// 007   ----------------------------------------
 BYTE   W76
 BYTE   W01
 BYTE   N03  Dn1  v127
 BYTE   W19
// 008   ----------------------------------------
Label_6_011E1DE5:
 BYTE   W05
 BYTE   N03  Cn1  v127
 BYTE   N01  Gn2  v084
 BYTE   W12
 BYTE   N01
 BYTE   W06
 BYTE   N01
 BYTE   W06
 BYTE   N03  Dn1  v127
 BYTE   N01  Gn2  v084
 BYTE   W12
 BYTE   N01
 BYTE   W06
 BYTE   N01
 BYTE   W06
 BYTE   Cn1  v127
 BYTE   N01  Cs2  v084
 BYTE   N01  Gn2
 BYTE   W12
 BYTE   Cn1  v127
 BYTE   N01  Gn2  v084
 BYTE   W06
 BYTE   N01
 BYTE   W06
 BYTE   N03  Dn1  v127
 BYTE   N01  Gn2  v084
 BYTE   W12
 BYTE   N01
 BYTE   W06
 BYTE   N01
 BYTE   W01
 BYTE   PEND 
// 009   ----------------------------------------
 BYTE   PATT
  POIN2 Label_6_011E1DE5
// 010   ----------------------------------------
 BYTE   PATT
  POIN2 Label_6_011E1DE5
// 011   ----------------------------------------
 BYTE   W05
 BYTE   N03  Cn1  v127
 BYTE   N01  Gn2  v084
 BYTE   W12
 BYTE   N01
 BYTE   W06
 BYTE   N01
 BYTE   W06
 BYTE   N03  Dn1  v127
 BYTE   N01  Gn2  v084
 BYTE   W12
 BYTE   N01
 BYTE   W06
 BYTE   N01
 BYTE   W06
 BYTE   Cn1  v127
 BYTE   N01  Cs2  v084
 BYTE   N01  Gn2
 BYTE   W12
 BYTE   Cn1  v127
 BYTE   N01  Gn2  v084
 BYTE   W06
 BYTE   N01
 BYTE   W06
 BYTE   N03  Dn1  v127
 BYTE   N01  Gn2  v084
 BYTE   W12
 BYTE   An2
 BYTE   W07
// 012   ----------------------------------------
 BYTE   PATT
  POIN2 Label_6_011E1DE5
// 013   ----------------------------------------
 BYTE   PATT
  POIN2 Label_6_011E1DE5
// 014   ----------------------------------------
 BYTE   PATT
  POIN2 Label_6_011E1DE5
// 015   ----------------------------------------
 BYTE   W05
 BYTE   N03  Cn1  v127
 BYTE   N01  Gn2  v084
 BYTE   W12
 BYTE   N01
 BYTE   W06
 BYTE   N01
 BYTE   W06
 BYTE   N03  Dn1  v127
 BYTE   N01  Gn2  v084
 BYTE   W12
 BYTE   N01
 BYTE   W06
 BYTE   N01
 BYTE   W06
 BYTE   Cn1  v127
 BYTE   N01  Cs2  v084
 BYTE   N01  Gn2
 BYTE   W12
 BYTE   Cn1  v127
 BYTE   N01  Gn2  v084
 BYTE   W06
 BYTE   N01
 BYTE   W06
 BYTE   Dn1  v127
 BYTE   N01  Gn2  v084
 BYTE   W12
 BYTE   Dn1  v127
 BYTE   N01  An2  v084
 BYTE   W07
// 016   ----------------------------------------
 BYTE   PATT
  POIN2 Label_6_011E1DE5
// 017   ----------------------------------------
 BYTE   PATT
  POIN2 Label_6_011E1DE5
// 018   ----------------------------------------
 BYTE   PATT
  POIN2 Label_6_011E1DE5
// 019   ----------------------------------------
 BYTE   W05
 BYTE   N03  Cn1  v127
 BYTE   N01  Gn2  v084
 BYTE   W12
 BYTE   N01
 BYTE   W06
 BYTE   N01
 BYTE   W06
 BYTE   N03  Dn1  v127
 BYTE   N01  Gn2  v084
 BYTE   W12
 BYTE   N01
 BYTE   W06
 BYTE   N01
 BYTE   W06
 BYTE   Cs2
 BYTE   N01  Gn2
 BYTE   W12
 BYTE   Dn1  v127
 BYTE   N01  Gn2  v084
 BYTE   W06
 BYTE   N01
 BYTE   W06
 BYTE   Cn1  v127
 BYTE   N01  Gn2  v084
 BYTE   W03
 BYTE   N01
 BYTE   W09
 BYTE   Dn1  v127
 BYTE   N01  An2  v084
 BYTE   W07
// 020   ----------------------------------------
Label_6_011E1ED4:
 BYTE   W05
 BYTE   N03  Cn1  v127
 BYTE   N01  Gn2  v084
 BYTE   W12
 BYTE   N01
 BYTE   W06
 BYTE   N01
 BYTE   W06
 BYTE   N03  Dn1  v127
 BYTE   N01  Gn2  v084
 BYTE   W12
 BYTE   N01
 BYTE   W06
 BYTE   N01
 BYTE   W06
 BYTE   N03  Cn1  v127
 BYTE   N01  Gn2  v084
 BYTE   W12
 BYTE   N01
 BYTE   W06
 BYTE   N01
 BYTE   W06
 BYTE   N03  Dn1  v127
 BYTE   N01  Gn2  v084
 BYTE   W12
 BYTE   N01
 BYTE   W06
 BYTE   N01
 BYTE   W01
 BYTE   PEND 
// 021   ----------------------------------------
Label_6_011E1F02:
 BYTE   W05
 BYTE   N03  Cn1  v127
 BYTE   N01  Gn2  v084
 BYTE   W12
 BYTE   N01
 BYTE   W06
 BYTE   N01
 BYTE   W06
 BYTE   N03  Dn1  v127
 BYTE   N01  Gn2  v084
 BYTE   W12
 BYTE   N01
 BYTE   W06
 BYTE   N01
 BYTE   W06
 BYTE   N03  Cn1  v127
 BYTE   N01  Gn2  v084
 BYTE   W12
 BYTE   N01
 BYTE   W06
 BYTE   N01
 BYTE   W06
 BYTE   Dn1  v127
 BYTE   N01  Gn2  v084
 BYTE   W12
 BYTE   Dn1  v127
 BYTE   N01  An2  v084
 BYTE   W07
 BYTE   PEND 
// 022   ----------------------------------------
 BYTE   PATT
  POIN2 Label_6_011E1ED4
// 023   ----------------------------------------
 BYTE   PATT
  POIN2 Label_6_011E1F02
// 024   ----------------------------------------
Label_6_011E1F3B:
 BYTE   W05
 BYTE   N03  Cn1  v127
 BYTE   N01  Gn2  v084
 BYTE   W12
 BYTE   N01
 BYTE   W12
 BYTE   N03  Dn1  v127
 BYTE   N01  Gn2  v084
 BYTE   W12
 BYTE   N01
 BYTE   W12
 BYTE   N03  Cn1  v127
 BYTE   N01  Gn2  v084
 BYTE   W12
 BYTE   N01
 BYTE   W12
 BYTE   N03  Dn1  v127
 BYTE   N01  Gn2  v084
 BYTE   W12
 BYTE   N01
 BYTE   W07
 BYTE   PEND 
// 025   ----------------------------------------
 BYTE   W05
 BYTE   N03  Cn1  v127
 BYTE   N01  Gn2  v084
 BYTE   W12
 BYTE   N01
 BYTE   W12
 BYTE   N03  Dn1  v127
 BYTE   N01  Gn2  v084
 BYTE   W12
 BYTE   N01
 BYTE   W12
 BYTE   N03  Cn1  v127
 BYTE   N01  Gn2  v084
 BYTE   W12
 BYTE   N01
 BYTE   W12
 BYTE   Dn1  v127
 BYTE   N01  Gn2  v084
 BYTE   W12
 BYTE   Dn1  v127
 BYTE   N01  An2  v084
 BYTE   W07
// 026   ----------------------------------------
 BYTE   PATT
  POIN2 Label_6_011E1F3B
// 027   ----------------------------------------
 BYTE   W05
 BYTE   N03  Cn1  v127
 BYTE   N01  Gn2  v084
 BYTE   W12
 BYTE   N01
 BYTE   W12
 BYTE   N03  Dn1  v127
 BYTE   N01  Gn2  v084
 BYTE   W12
 BYTE   N01
 BYTE   W12
 BYTE   N01
 BYTE   W12
 BYTE   Dn1  v127
 BYTE   N01  An2  v084
 BYTE   W12
 BYTE   Cn1  v127
 BYTE   N01  Gn2  v084
 BYTE   W12
 BYTE   Dn1  v127
 BYTE   N01  An2  v084
 BYTE   W07
// 028   ----------------------------------------
 BYTE   W05
 BYTE   VOICE   79
 BYTE   N01  Dn1  v127
 BYTE   W06
 BYTE   N01
 BYTE   W06
 BYTE   N01
 BYTE   W24
 BYTE   N01
 BYTE   W24
 BYTE   N01
 BYTE   W24
 BYTE   N01
 BYTE   W07
// 029   ----------------------------------------
 BYTE   W05
 BYTE   N01
 BYTE   W06
 BYTE   N01
 BYTE   W06
 BYTE   N01
 BYTE   W24
 BYTE   N01
 BYTE   W24
 BYTE   N01
 BYTE   W24
 BYTE   N01
 BYTE   W07
// 030   ----------------------------------------
 BYTE   W05
 BYTE   N01
 BYTE   W06
 BYTE   N01
 BYTE   W06
 BYTE   N01
 BYTE   W24
 BYTE   N01
 BYTE   W06
 BYTE   N01
 BYTE   W06
 BYTE   N01
 BYTE   W06
 BYTE   N01
 BYTE   W06
 BYTE   N01
 BYTE   W24
 BYTE   N01
 BYTE   W06
 BYTE   N01
 BYTE   W01
// 031   ----------------------------------------
 BYTE   W05
 BYTE   N01
 BYTE   W24
 BYTE   N01
 BYTE   W36
 BYTE   N01
 BYTE   W24
 BYTE   N01
 BYTE   W07
// 032   ----------------------------------------
 BYTE   GoTo
  POIN2 Label_6_011E1DC2
 BYTE   FINE

//******************************************************//
	ALIGN 4

FE04InheritorsofLightMonopolyRubix:
	BYTE	7	// NumTrks
	BYTE	0	// NumBlks
	BYTE	FE04InheritorsofLightMonopolyRubix_pri	// Priority
	BYTE	FE04InheritorsofLightMonopolyRubix_rev	// Reverb.
    
	POIN2	FE04InheritorsofLightMonopolyRubix_grp
    
	POIN2	FE04InheritorsofLightMonopolyRubix_001
	POIN2	FE04InheritorsofLightMonopolyRubix_002
	POIN2	FE04InheritorsofLightMonopolyRubix_003
	POIN2	FE04InheritorsofLightMonopolyRubix_004
	POIN2	FE04InheritorsofLightMonopolyRubix_005
	POIN2	FE04InheritorsofLightMonopolyRubix_006
	POIN2	FE04InheritorsofLightMonopolyRubix_007

	
