//Event file generated from Sappy .s format.
	#include "MPlayDef.event"

	#define	FE04GlorytoGrannvaleSurfingKyogre_grp  voicegroup000
	#define	FE04GlorytoGrannvaleSurfingKyogre_pri  0
	#define	FE04GlorytoGrannvaleSurfingKyogre_rev  0
	#define	FE04GlorytoGrannvaleSurfingKyogre_mvl  127
	#define	FE04GlorytoGrannvaleSurfingKyogre_key  0
	#define	FE04GlorytoGrannvaleSurfingKyogre_tbs  1
	#define	FE04GlorytoGrannvaleSurfingKyogre_exg  0
	#define	FE04GlorytoGrannvaleSurfingKyogre_cmp  1

	// .rodata
	//	FE04GlorytoGrannvaleSurfingKyogre
	ALIGN 4


//**************** Track 1 (Midi-Chn.0) ****************//

FE04GlorytoGrannvaleSurfingKyogre_001:
// 000   ----------------------------------------
 BYTE   KEYSH   FE04GlorytoGrannvaleSurfingKyogre_key+0
Label_0_016F357A:
 BYTE   TEMPO   94*FE04GlorytoGrannvaleSurfingKyogre_tbs/2
 BYTE   PAN   c_v+0
 BYTE   VOL   40*FE04GlorytoGrannvaleSurfingKyogre_mvl/mxv
 BYTE   MOD 0
 BYTE   CnM2
 BYTE   BEND   c_v+0
 BYTE   W04
 BYTE   VOICE   6
 BYTE   PAN   c_v-14
 BYTE   VOL   50*FE04GlorytoGrannvaleSurfingKyogre_mvl/mxv
 BYTE   N12  Gn4  v127
 BYTE   W12
 BYTE   Cn4
 BYTE   W12
 BYTE   Dn4
 BYTE   W12
 BYTE   Gn4
 BYTE   W12
 BYTE   Cn4
 BYTE   W12
 BYTE   Dn4
 BYTE   W12
 BYTE   Gn4
 BYTE   W12
 BYTE   Cn4
 BYTE   W08
// 001   ----------------------------------------
Label_0_016F359D:
 BYTE   W04
 BYTE   N12  Dn4  v127
 BYTE   W12
 BYTE   Gn4
 BYTE   W12
 BYTE   Cn4
 BYTE   W12
 BYTE   Dn4
 BYTE   W12
 BYTE   Gn4
 BYTE   W12
 BYTE   Cn4
 BYTE   W12
 BYTE   Dn4
 BYTE   W12
 BYTE   Gn4
 BYTE   W08
 BYTE   PEND 
// 002   ----------------------------------------
 BYTE   W04
 BYTE   Cn4
 BYTE   W12
 BYTE   Dn4
 BYTE   W12
 BYTE   Gn4
 BYTE   W12
 BYTE   Cn4
 BYTE   W12
 BYTE   Dn4
 BYTE   W12
 BYTE   Gn4
 BYTE   W12
 BYTE   Cn4
 BYTE   W12
 BYTE   Dn4
 BYTE   W08
// 003   ----------------------------------------
 BYTE   W04
 BYTE   Gn4
 BYTE   W12
 BYTE   Cn4
 BYTE   W12
 BYTE   Dn4
 BYTE   W12
 BYTE   Gn4
 BYTE   W12
 BYTE   Cn4
 BYTE   W12
 BYTE   Dn4
 BYTE   W12
 BYTE   Gn4
 BYTE   W12
 BYTE   Cn4
 BYTE   W08
 BYTE   PATT
  POIN2 Label_0_016F359D
// 004   ----------------------------------------
 BYTE   W04
 BYTE   N12  Cn4  v127
 BYTE   W12
 BYTE   Dn4
 BYTE   W12
 BYTE   TEMPO   84*FE04GlorytoGrannvaleSurfingKyogre_tbs/2
 BYTE   Gn4
 BYTE   W12
 BYTE   Cn4
 BYTE   W12
 BYTE   Dn4
 BYTE   W12
 BYTE   TEMPO   74*FE04GlorytoGrannvaleSurfingKyogre_tbs/2
 BYTE   Gn4
 BYTE   W12
 BYTE   Cn4
 BYTE   W12
 BYTE   Dn4
 BYTE   W08
// 005   ----------------------------------------
 BYTE   W04
 BYTE   TEMPO   94*FE04GlorytoGrannvaleSurfingKyogre_tbs/2
 BYTE   VOICE   56
 BYTE   PAN   c_v+1
 BYTE   VOL   60*FE04GlorytoGrannvaleSurfingKyogre_mvl/mxv
 BYTE   N56  Gn4
 BYTE   W60
 BYTE   N03
 BYTE   W06
 BYTE   N03
 BYTE   W06
 BYTE   N09
 BYTE   W20
// 006   ----------------------------------------
 BYTE   W04
 BYTE   Fn4
 BYTE   W24
 BYTE   As4
 BYTE   W24
 BYTE   TIE  Gn4
 BYTE   W44
// 007   ----------------------------------------
 BYTE   W84
 BYTE   W01
 BYTE   EOT
 BYTE   W11
// 008   ----------------------------------------
 BYTE   W04
 BYTE   VOL   55*FE04GlorytoGrannvaleSurfingKyogre_mvl/mxv
 BYTE   N06  Gs2
 BYTE   W12
 BYTE   As2
 BYTE   W12
 BYTE   N10  Cn3
 BYTE   W12
 BYTE   N03  Ds3
 BYTE   W04
 BYTE   Cs3
 BYTE   W04
 BYTE   Cn3
 BYTE   W04
 BYTE   N06  Cs3
 BYTE   W12
 BYTE   As2
 BYTE   W12
 BYTE   Gs2
 BYTE   W12
 BYTE   As2
 BYTE   W08
// 009   ----------------------------------------
 BYTE   W04
 BYTE   N10  Cn3
 BYTE   W12
 BYTE   N05  Cs3
 BYTE   W06
 BYTE   As2
 BYTE   W06
 BYTE   N21  Gs2
 BYTE   W24
 BYTE   N06
 BYTE   W12
 BYTE   As2
 BYTE   W12
 BYTE   N10  Cn3
 BYTE   W12
 BYTE   N03  Ds3
 BYTE   W04
 BYTE   Cs3
 BYTE   W04
// 010   ----------------------------------------
 BYTE   Cn3
 BYTE   W04
 BYTE   N06  Cs3
 BYTE   W12
 BYTE   Fn3
 BYTE   W12
 BYTE   Gs3
 BYTE   W12
 BYTE   As3
 BYTE   W12
 BYTE   N10  Cn4
 BYTE   W12
 BYTE   N05  Cs4
 BYTE   W06
 BYTE   As3
 BYTE   W06
 BYTE   N21  Gs3
 BYTE   W20
// 011   ----------------------------------------
 BYTE   W04
 BYTE   N06  As3
 BYTE   W12
 BYTE   Gs3
 BYTE   W12
 BYTE   Fs3
 BYTE   W12
 BYTE   N10  En3
 BYTE   W12
 BYTE   N05  Fs3
 BYTE   W06
 BYTE   Gs3
 BYTE   W06
 BYTE   N10  As3
 BYTE   W12
 BYTE   Gs3
 BYTE   W12
 BYTE   N03  Fs3
 BYTE   W04
 BYTE   Gs3
 BYTE   W04
// 012   ----------------------------------------
 BYTE   As3
 BYTE   W04
 BYTE   N06  Gs3
 BYTE   W12
 BYTE   Fs3
 BYTE   W12
 BYTE   En3
 BYTE   W12
 BYTE   Gs3
 BYTE   W12
 BYTE   N15  Bn3
 BYTE   W18
 BYTE   N05  As3
 BYTE   W06
 BYTE   N06  Gs3
 BYTE   W12
 BYTE   Fs3
 BYTE   W08
// 013   ----------------------------------------
 BYTE   W04
 BYTE   Gs3
 BYTE   W12
 BYTE   N05  As3
 BYTE   W06
 BYTE   Bn3
 BYTE   W06
 BYTE   N06  Cs4
 BYTE   W12
 BYTE   N05  Ds4
 BYTE   W06
 BYTE   En4
 BYTE   W06
 BYTE   N06  Cs4
 BYTE   W12
 BYTE   Bn3
 BYTE   W12
 BYTE   N21  Cs4
 BYTE   W20
// 014   ----------------------------------------
 BYTE   W04
 BYTE   PAN   c_v-44
 BYTE   N72  Dn0
 BYTE   W92
// 015   ----------------------------------------
 BYTE   W04
 BYTE   N10
 BYTE   W24
 BYTE   N10
 BYTE   W24
 BYTE   N72
 BYTE   W44
// 016   ----------------------------------------
 BYTE   W52
 BYTE   N10
 BYTE   W24
 BYTE   N10
 BYTE   W20
// 017   ----------------------------------------
 BYTE   W04
 BYTE   VOICE   48
 BYTE   PAN   c_v-4
 BYTE   N09  Cn3
 BYTE   W12
 BYTE   N09
 BYTE   W12
 BYTE   Gn2
 BYTE   W12
 BYTE   Cn3
 BYTE   W12
 BYTE   N09
 BYTE   W12
 BYTE   Gn2
 BYTE   W12
 BYTE   Cn3
 BYTE   W12
 BYTE   N09
 BYTE   W08
// 018   ----------------------------------------
 BYTE   W04
 BYTE   Fn3
 BYTE   W12
 BYTE   Cn3
 BYTE   W12
 BYTE   N09
 BYTE   W12
 BYTE   Gn2
 BYTE   W24
 BYTE   Cn3
 BYTE   W24
 BYTE   N09
 BYTE   W08
// 019   ----------------------------------------
 BYTE   W16
 BYTE   Fn3
 BYTE   W24
 BYTE   Cn3
 BYTE   W24
 BYTE   N09
 BYTE   W24
 BYTE   Fn2
 BYTE   W08
// 020   ----------------------------------------
 BYTE   W04
 BYTE   Cn2
 BYTE   W12
 BYTE   Cs2
 BYTE   W12
 BYTE   Ds2
 BYTE   W12
 BYTE   Fn2
 BYTE   W12
 BYTE   N21  Gn2
 BYTE   W24
 BYTE   N09  Fn2
 BYTE   W12
 BYTE   Cn3
 BYTE   W08
// 021   ----------------------------------------
 BYTE   W04
 BYTE   N21  Gn2
 BYTE   W24
 BYTE   N09  Fn2
 BYTE   W12
 BYTE   Cn2
 BYTE   W12
 BYTE   N09
 BYTE   W12
 BYTE   N09
 BYTE   W12
 BYTE   Ds2
 BYTE   W12
 BYTE   Fn2
 BYTE   W08
// 022   ----------------------------------------
 BYTE   W04
 BYTE   N21  Gn2
 BYTE   W24
 BYTE   N09  Fn2
 BYTE   W12
 BYTE   Cn3
 BYTE   W12
 BYTE   N21  Gn2
 BYTE   W24
 BYTE   N09  Fn2
 BYTE   W12
 BYTE   Cn2
 BYTE   W08
// 023   ----------------------------------------
 BYTE   W04
 BYTE   Gs2
 BYTE   W12
 BYTE   Ds2
 BYTE   W12
 BYTE   Ds3
 BYTE   W12
 BYTE   Ds2
 BYTE   W12
 BYTE   Cn3
 BYTE   W12
 BYTE   Ds2
 BYTE   W12
 BYTE   Gs3
 BYTE   W12
 BYTE   Ds2
 BYTE   W08
// 024   ----------------------------------------
 BYTE   W96
// 025   ----------------------------------------
 BYTE   W48
 BYTE   GoTo
  POIN2 Label_0_016F357A
// 026   ----------------------------------------
 BYTE   W04
 BYTE   VOICE   6
 BYTE   PAN   c_v-14
 BYTE   VOL   50*FE04GlorytoGrannvaleSurfingKyogre_mvl/mxv
 BYTE   W07
 BYTE   DsM2
 BYTE   W06
 BYTE   DnM2
 BYTE   W07
 BYTE   CsM2
 BYTE   W06
 BYTE   CsM2
 BYTE   W06
 BYTE   CsM2
 BYTE   W07
 BYTE   CnM2
 BYTE   W05
 BYTE   W01
 BYTE   CnM2
 BYTE   W07
 BYTE   CnM2
 BYTE   FINE

//**************** Track 2 (Midi-Chn.1) ****************//

FE04GlorytoGrannvaleSurfingKyogre_002:
// 000   ----------------------------------------
 BYTE   KEYSH   FE04GlorytoGrannvaleSurfingKyogre_key+0
Label_1_016F3302:
 BYTE   PAN   c_v+0
 BYTE   VOL   40*FE04GlorytoGrannvaleSurfingKyogre_mvl/mxv
 BYTE   MOD 0
 BYTE   CnM2
 BYTE   BEND   c_v+0
 BYTE   W04
 BYTE   VOICE   6
 BYTE   PAN   c_v-14
 BYTE   VOL   50*FE04GlorytoGrannvaleSurfingKyogre_mvl/mxv
 BYTE   N12  Gn3  v127
 BYTE   W12
 BYTE   Cn3
 BYTE   W12
 BYTE   Dn3
 BYTE   W12
 BYTE   Gn3
 BYTE   W12
 BYTE   Cn3
 BYTE   W12
 BYTE   Dn3
 BYTE   W12
 BYTE   Gn3
 BYTE   W12
 BYTE   Cn3
 BYTE   W08
// 001   ----------------------------------------
Label_1_016F3323:
 BYTE   W04
 BYTE   N12  Dn3  v127
 BYTE   W12
 BYTE   Gn3
 BYTE   W12
 BYTE   Cn3
 BYTE   W12
 BYTE   Dn3
 BYTE   W12
 BYTE   Gn3
 BYTE   W12
 BYTE   Cn3
 BYTE   W12
 BYTE   Dn3
 BYTE   W12
 BYTE   Gn3
 BYTE   W08
 BYTE   PEND 
// 002   ----------------------------------------
Label_1_016F3337:
 BYTE   W04
 BYTE   N12  Cn3  v127
 BYTE   W12
 BYTE   Dn3
 BYTE   W12
 BYTE   Gn3
 BYTE   W12
 BYTE   Cn3
 BYTE   W12
 BYTE   Dn3
 BYTE   W12
 BYTE   Gn3
 BYTE   W12
 BYTE   Cn3
 BYTE   W12
 BYTE   Dn3
 BYTE   W08
 BYTE   PEND 
// 003   ----------------------------------------
 BYTE   W04
 BYTE   Gn3
 BYTE   W12
 BYTE   Cn3
 BYTE   W12
 BYTE   Dn3
 BYTE   W12
 BYTE   Gn3
 BYTE   W12
 BYTE   Cn3
 BYTE   W12
 BYTE   Dn3
 BYTE   W12
 BYTE   Gn3
 BYTE   W12
 BYTE   Cn3
 BYTE   W08
 BYTE   PATT
  POIN2 Label_1_016F3323
 BYTE   PATT
  POIN2 Label_1_016F3337
// 004   ----------------------------------------
 BYTE   W96
// 005   ----------------------------------------
 BYTE   W96
// 006   ----------------------------------------
 BYTE   W96
// 007   ----------------------------------------
 BYTE   W96
// 008   ----------------------------------------
 BYTE   W96
// 009   ----------------------------------------
 BYTE   W96
// 010   ----------------------------------------
 BYTE   W96
// 011   ----------------------------------------
 BYTE   W96
// 012   ----------------------------------------
 BYTE   W96
// 013   ----------------------------------------
 BYTE   W04
 BYTE   VOICE   48
 BYTE   VOL   65*FE04GlorytoGrannvaleSurfingKyogre_mvl/mxv
 BYTE   N07  Gn4  v127
 BYTE   W12
 BYTE   Cn4
 BYTE   W12
 BYTE   Dn4
 BYTE   W12
 BYTE   Gn4
 BYTE   W12
 BYTE   Cn4
 BYTE   W12
 BYTE   Dn4
 BYTE   W12
 BYTE   Gn4
 BYTE   W12
 BYTE   Cn4
 BYTE   W08
// 014   ----------------------------------------
 BYTE   W04
 BYTE   Dn4
 BYTE   W12
 BYTE   Gn4
 BYTE   W12
 BYTE   Cn4
 BYTE   W12
 BYTE   Dn4
 BYTE   W12
 BYTE   Gn4
 BYTE   W12
 BYTE   Cn4
 BYTE   W12
 BYTE   Dn4
 BYTE   W12
 BYTE   Gn4
 BYTE   W08
// 015   ----------------------------------------
 BYTE   W04
 BYTE   Cn4
 BYTE   W12
 BYTE   Dn4
 BYTE   W12
 BYTE   Gn4
 BYTE   W12
 BYTE   Cn4
 BYTE   W12
 BYTE   Dn4
 BYTE   W12
 BYTE   Gn4
 BYTE   W12
 BYTE   Cn4
 BYTE   W12
 BYTE   Dn4
 BYTE   W08
// 016   ----------------------------------------
 BYTE   W96
// 017   ----------------------------------------
 BYTE   W96
// 018   ----------------------------------------
 BYTE   W96
// 019   ----------------------------------------
 BYTE   W96
// 020   ----------------------------------------
 BYTE   W96
// 021   ----------------------------------------
 BYTE   W96
// 022   ----------------------------------------
 BYTE   W96
// 023   ----------------------------------------
 BYTE   W04
 BYTE   Gn4
 BYTE   W12
 BYTE   Cn4
 BYTE   W12
 BYTE   Dn4
 BYTE   W12
 BYTE   Gn4
 BYTE   W12
 BYTE   Cn4
 BYTE   W12
 BYTE   Dn4
 BYTE   W12
 BYTE   Gn4
 BYTE   W12
 BYTE   Cn4
 BYTE   W08
// 024   ----------------------------------------
 BYTE   W04
 BYTE   Dn4
 BYTE   W12
 BYTE   Gn4
 BYTE   W12
 BYTE   Cn4
 BYTE   W12
 BYTE   Dn4
 BYTE   W08
 BYTE   GoTo
  POIN2 Label_1_016F3302
// 025   ----------------------------------------
 BYTE   W04
 BYTE   VOICE   6
 BYTE   PAN   c_v-14
 BYTE   VOL   50*FE04GlorytoGrannvaleSurfingKyogre_mvl/mxv
 BYTE   W07
 BYTE   DnM2
 BYTE   W06
 BYTE   CsM2
 BYTE   W07
 BYTE   CsM2
 BYTE   W06
 BYTE   CsM2
 BYTE   W06
 BYTE   CnM2
 BYTE   W07
 BYTE   CnM2
 BYTE   W05
 BYTE   W01
 BYTE   CnM2
 BYTE   W07
 BYTE   CnM2
 BYTE   FINE

//**************** Track 3 (Midi-Chn.2) ****************//

FE04GlorytoGrannvaleSurfingKyogre_003:
// 000   ----------------------------------------
 BYTE   KEYSH   FE04GlorytoGrannvaleSurfingKyogre_key+0
Label_2_016F2C52:
 BYTE   PAN   c_v+0
 BYTE   VOL   40*FE04GlorytoGrannvaleSurfingKyogre_mvl/mxv
 BYTE   MOD 0
 BYTE   CnM2
 BYTE   BEND   c_v+0
 BYTE   W04
 BYTE   VOICE   6
 BYTE   PAN   c_v-44
 BYTE   VOL   50*FE04GlorytoGrannvaleSurfingKyogre_mvl/mxv
 BYTE   N12  Cn3  v127
 BYTE   W12
 BYTE   Fn2
 BYTE   W12
 BYTE   Gn2
 BYTE   W12
 BYTE   Cn3
 BYTE   W12
 BYTE   Fn2
 BYTE   W12
 BYTE   Gn2
 BYTE   W12
 BYTE   Cn3
 BYTE   W12
 BYTE   Fn2
 BYTE   W08
// 001   ----------------------------------------
Label_2_016F2C73:
 BYTE   W04
 BYTE   N12  Gn2  v127
 BYTE   W12
 BYTE   Cn3
 BYTE   W12
 BYTE   Fn2
 BYTE   W12
 BYTE   Gn2
 BYTE   W12
 BYTE   Cn3
 BYTE   W12
 BYTE   Fn2
 BYTE   W12
 BYTE   Gn2
 BYTE   W12
 BYTE   Cn3
 BYTE   W08
 BYTE   PEND 
// 002   ----------------------------------------
Label_2_016F2C87:
 BYTE   W04
 BYTE   N12  Fn2  v127
 BYTE   W12
 BYTE   Gn2
 BYTE   W12
 BYTE   Cn3
 BYTE   W12
 BYTE   Fn2
 BYTE   W12
 BYTE   Gn2
 BYTE   W12
 BYTE   Cn3
 BYTE   W12
 BYTE   Fn2
 BYTE   W12
 BYTE   Gn2
 BYTE   W08
 BYTE   PEND 
// 003   ----------------------------------------
 BYTE   W04
 BYTE   Cn3
 BYTE   W12
 BYTE   Fn2
 BYTE   W12
 BYTE   Gn2
 BYTE   W12
 BYTE   Cn3
 BYTE   W12
 BYTE   Fn2
 BYTE   W12
 BYTE   Gn2
 BYTE   W12
 BYTE   Cn3
 BYTE   W12
 BYTE   Fn2
 BYTE   W08
 BYTE   PATT
  POIN2 Label_2_016F2C73
 BYTE   PATT
  POIN2 Label_2_016F2C87
// 004   ----------------------------------------
 BYTE   W96
// 005   ----------------------------------------
 BYTE   W96
// 006   ----------------------------------------
 BYTE   W96
// 007   ----------------------------------------
 BYTE   W96
// 008   ----------------------------------------
 BYTE   W96
// 009   ----------------------------------------
 BYTE   W96
// 010   ----------------------------------------
 BYTE   W96
// 011   ----------------------------------------
 BYTE   W96
// 012   ----------------------------------------
 BYTE   W96
// 013   ----------------------------------------
 BYTE   W04
 BYTE   VOICE   48
 BYTE   VOL   60*FE04GlorytoGrannvaleSurfingKyogre_mvl/mxv
 BYTE   N07  Cn4  v127
 BYTE   W12
 BYTE   Fn3
 BYTE   W12
 BYTE   Gn3
 BYTE   W12
 BYTE   Cn4
 BYTE   W12
 BYTE   Fn3
 BYTE   W12
 BYTE   Gn3
 BYTE   W12
 BYTE   Cn4
 BYTE   W12
 BYTE   Fn3
 BYTE   W08
// 014   ----------------------------------------
 BYTE   W04
 BYTE   Gn3
 BYTE   W12
 BYTE   Cn4
 BYTE   W12
 BYTE   Fn3
 BYTE   W12
 BYTE   Gn3
 BYTE   W12
 BYTE   Cn4
 BYTE   W12
 BYTE   Fn3
 BYTE   W12
 BYTE   Gn3
 BYTE   W12
 BYTE   Cn4
 BYTE   W08
// 015   ----------------------------------------
 BYTE   W04
 BYTE   Fn3
 BYTE   W12
 BYTE   Gn3
 BYTE   W12
 BYTE   Cn4
 BYTE   W12
 BYTE   Fn3
 BYTE   W12
 BYTE   Gn3
 BYTE   W12
 BYTE   Cn4
 BYTE   W12
 BYTE   Fn3
 BYTE   W12
 BYTE   Gn3
 BYTE   W08
// 016   ----------------------------------------
 BYTE   W96
// 017   ----------------------------------------
 BYTE   W96
// 018   ----------------------------------------
 BYTE   W96
// 019   ----------------------------------------
 BYTE   W96
// 020   ----------------------------------------
 BYTE   W96
// 021   ----------------------------------------
 BYTE   W96
// 022   ----------------------------------------
 BYTE   W96
// 023   ----------------------------------------
 BYTE   W04
 BYTE   Cn4
 BYTE   W12
 BYTE   Fn3
 BYTE   W12
 BYTE   Gn3
 BYTE   W12
 BYTE   Cn4
 BYTE   W12
 BYTE   Fn3
 BYTE   W12
 BYTE   Gn3
 BYTE   W12
 BYTE   Cn4
 BYTE   W12
 BYTE   Fn3
 BYTE   W08
// 024   ----------------------------------------
 BYTE   W04
 BYTE   Gn3
 BYTE   W12
 BYTE   Cn4
 BYTE   W12
 BYTE   Fn3
 BYTE   W12
 BYTE   Gn3
 BYTE   W08
 BYTE   GoTo
  POIN2 Label_2_016F2C52
// 025   ----------------------------------------
 BYTE   W04
 BYTE   VOICE   6
 BYTE   PAN   c_v-44
 BYTE   VOL   50*FE04GlorytoGrannvaleSurfingKyogre_mvl/mxv
 BYTE   W07
 BYTE   DnM2
 BYTE   W06
 BYTE   CsM2
 BYTE   W07
 BYTE   CsM2
 BYTE   W06
 BYTE   CsM2
 BYTE   W06
 BYTE   CnM2
 BYTE   W07
 BYTE   CnM2
 BYTE   W05
 BYTE   W01
 BYTE   CnM2
 BYTE   W07
 BYTE   CnM2
 BYTE   FINE

//**************** Track 4 (Midi-Chn.3) ****************//

FE04GlorytoGrannvaleSurfingKyogre_004:
// 000   ----------------------------------------
 BYTE   KEYSH   FE04GlorytoGrannvaleSurfingKyogre_key+0
Label_3_016F2DBE:
 BYTE   PAN   c_v+0
 BYTE   VOL   40*FE04GlorytoGrannvaleSurfingKyogre_mvl/mxv
 BYTE   MOD 0
 BYTE   CnM2
 BYTE   BEND   c_v+0
 BYTE   W04
 BYTE   VOICE   14
 BYTE   PAN   c_v+26
 BYTE   VOL   55*FE04GlorytoGrannvaleSurfingKyogre_mvl/mxv
 BYTE   N24  Gn3  v127
 BYTE   W24
 BYTE   Dn3
 BYTE   W24
 BYTE   Cn3
 BYTE   W24
 BYTE   Gn2
 BYTE   W20
// 001   ----------------------------------------
Label_3_016F2DD7:
 BYTE   W04
 BYTE   N24  Cn3  v127
 BYTE   W24
 BYTE   Dn3
 BYTE   W24
 BYTE   Gn3
 BYTE   W24
 BYTE   Dn3
 BYTE   W20
 BYTE   PEND 
// 002   ----------------------------------------
Label_3_016F2DE3:
 BYTE   W04
 BYTE   N24  Cn3  v127
 BYTE   W24
 BYTE   Gn2
 BYTE   W24
 BYTE   Cn3
 BYTE   W24
 BYTE   Dn3
 BYTE   W20
 BYTE   PEND 
// 003   ----------------------------------------
Label_3_016F2DEF:
 BYTE   W04
 BYTE   N24  Gn3  v127
 BYTE   W24
 BYTE   Dn3
 BYTE   W24
 BYTE   Cn3
 BYTE   W24
 BYTE   Gn2
 BYTE   W20
 BYTE   PEND 
 BYTE   PATT
  POIN2 Label_3_016F2DD7
// 004   ----------------------------------------
 BYTE   W04
 BYTE   N24  Cn3  v127
 BYTE   W24
 BYTE   Gn2
 BYTE   W24
 BYTE   Cn3
 BYTE   W24
 BYTE   N12  Dn3
 BYTE   W12
 BYTE   Gn3
 BYTE   W08
// 005   ----------------------------------------
 BYTE   W04
 BYTE   N60
 BYTE   W60
 BYTE   N06
 BYTE   W06
 BYTE   N06
 BYTE   W06
 BYTE   N12
 BYTE   W20
// 006   ----------------------------------------
 BYTE   W04
 BYTE   Fn3
 BYTE   W24
 BYTE   As3
 BYTE   W24
 BYTE   TIE  Gn3
 BYTE   W44
// 007   ----------------------------------------
 BYTE   W88
 BYTE   EOT
 BYTE   W08
// 008   ----------------------------------------
 BYTE   W96
// 009   ----------------------------------------
 BYTE   W96
// 010   ----------------------------------------
 BYTE   W96
// 011   ----------------------------------------
 BYTE   W96
// 012   ----------------------------------------
 BYTE   W96
// 013   ----------------------------------------
 BYTE   W96
 BYTE   PATT
  POIN2 Label_3_016F2DEF
 BYTE   PATT
  POIN2 Label_3_016F2DD7
 BYTE   PATT
  POIN2 Label_3_016F2DE3
// 014   ----------------------------------------
 BYTE   W96
// 015   ----------------------------------------
 BYTE   W96
// 016   ----------------------------------------
 BYTE   W96
// 017   ----------------------------------------
 BYTE   W96
// 018   ----------------------------------------
 BYTE   W96
// 019   ----------------------------------------
 BYTE   W96
// 020   ----------------------------------------
 BYTE   W96
 BYTE   PATT
  POIN2 Label_3_016F2DEF
// 021   ----------------------------------------
 BYTE   W04
 BYTE   N24  Cn3  v127
 BYTE   W24
 BYTE   Dn3
 BYTE   W20
 BYTE   GoTo
  POIN2 Label_3_016F2DBE
// 022   ----------------------------------------
 BYTE   W04
 BYTE   VOICE   14
 BYTE   PAN   c_v+26
 BYTE   VOL   55*FE04GlorytoGrannvaleSurfingKyogre_mvl/mxv
 BYTE   W07
 BYTE   DnM2
 BYTE   W06
 BYTE   DnM2
 BYTE   W07
 BYTE   CsM2
 BYTE   W06
 BYTE   CsM2
 BYTE   W06
 BYTE   CsM2
 BYTE   W07
 BYTE   CnM2
 BYTE   W05
 BYTE   W01
 BYTE   CnM2
 BYTE   W07
 BYTE   CnM2
 BYTE   FINE

//**************** Track 5 (Midi-Chn.4) ****************//

FE04GlorytoGrannvaleSurfingKyogre_005:
// 000   ----------------------------------------
 BYTE   KEYSH   FE04GlorytoGrannvaleSurfingKyogre_key+0
Label_4_016F4586:
 BYTE   PAN   c_v+0
 BYTE   VOL   40*FE04GlorytoGrannvaleSurfingKyogre_mvl/mxv
 BYTE   MOD 0
 BYTE   CnM2
 BYTE   BEND   c_v+0
 BYTE   W04
 BYTE   VOICE   48
 BYTE   PAN   c_v+16
 BYTE   VOL   70*FE04GlorytoGrannvaleSurfingKyogre_mvl/mxv
 BYTE   W92
// 001   ----------------------------------------
 BYTE   W40
 BYTE   N03  Dn3  v127
 BYTE   W06
 BYTE   N03
 BYTE   W06
 BYTE   N68
 BYTE   W44
// 002   ----------------------------------------
 BYTE   W28
 BYTE   N21  Gn2
 BYTE   W24
 BYTE   Cn3
 BYTE   W24
 BYTE   Dn3
 BYTE   W20
// 003   ----------------------------------------
 BYTE   W04
 BYTE   N68  Gn3
 BYTE   W72
 BYTE   N21  Gn2
 BYTE   W20
// 004   ----------------------------------------
 BYTE   W04
 BYTE   Cn3
 BYTE   W24
 BYTE   Dn3
 BYTE   W24
 BYTE   TIE  Gn3
 BYTE   W44
// 005   ----------------------------------------
 BYTE   W96
// 006   ----------------------------------------
 BYTE   W01
 BYTE   EOT
 BYTE   W03
 BYTE   N56  Dn3
 BYTE   W60
 BYTE   N03
 BYTE   W06
 BYTE   N03
 BYTE   W06
 BYTE   N09
 BYTE   W20
// 007   ----------------------------------------
 BYTE   W04
 BYTE   Cn3
 BYTE   W24
 BYTE   Fn3
 BYTE   W24
 BYTE   TIE  Dn3
 BYTE   W44
// 008   ----------------------------------------
 BYTE   W84
 BYTE   W01
 BYTE   EOT
 BYTE   W11
// 009   ----------------------------------------
 BYTE   W04
 BYTE   N06  Gs2
 BYTE   W12
 BYTE   As2
 BYTE   W12
 BYTE   N10  Cn3
 BYTE   W12
 BYTE   N03  Ds3
 BYTE   W04
 BYTE   Cs3
 BYTE   W04
 BYTE   Cn3
 BYTE   W04
 BYTE   N06  Cs3
 BYTE   W12
 BYTE   As2
 BYTE   W12
 BYTE   Gs2
 BYTE   W12
 BYTE   As2
 BYTE   W08
// 010   ----------------------------------------
 BYTE   W04
 BYTE   N10  Cn3
 BYTE   W12
 BYTE   N05  Cs3
 BYTE   W06
 BYTE   As2
 BYTE   W06
 BYTE   N21  Gs2
 BYTE   W24
 BYTE   N06
 BYTE   W12
 BYTE   As2
 BYTE   W12
 BYTE   N10  Cn3
 BYTE   W12
 BYTE   N03  Ds3
 BYTE   W04
 BYTE   Cs3
 BYTE   W04
// 011   ----------------------------------------
 BYTE   Cn3
 BYTE   W04
 BYTE   N06  Cs3
 BYTE   W12
 BYTE   Fn3
 BYTE   W12
 BYTE   Gs3
 BYTE   W12
 BYTE   As3
 BYTE   W12
 BYTE   N10  Cn4
 BYTE   W12
 BYTE   N05  Cs4
 BYTE   W06
 BYTE   As3
 BYTE   W06
 BYTE   N21  Gs3
 BYTE   W20
// 012   ----------------------------------------
 BYTE   W04
 BYTE   N06  As3
 BYTE   W12
 BYTE   Gs3
 BYTE   W12
 BYTE   Fs3
 BYTE   W12
 BYTE   N10  En3
 BYTE   W12
 BYTE   N05  Fs3
 BYTE   W06
 BYTE   Gs3
 BYTE   W06
 BYTE   N10  As3
 BYTE   W12
 BYTE   Gs3
 BYTE   W12
 BYTE   N03  Fs3
 BYTE   W04
 BYTE   Gs3
 BYTE   W04
// 013   ----------------------------------------
 BYTE   As3
 BYTE   W04
 BYTE   N06  Gs3
 BYTE   W12
 BYTE   Fs3
 BYTE   W12
 BYTE   En3
 BYTE   W12
 BYTE   Gs3
 BYTE   W12
 BYTE   N15  Bn3
 BYTE   W18
 BYTE   N05  As3
 BYTE   W06
 BYTE   N06  Gs3
 BYTE   W12
 BYTE   Fs3
 BYTE   W08
// 014   ----------------------------------------
 BYTE   W04
 BYTE   Gs3
 BYTE   W12
 BYTE   N05  As3
 BYTE   W06
 BYTE   Bn3
 BYTE   W06
 BYTE   N06  Cs4
 BYTE   W12
 BYTE   N05  Ds4
 BYTE   W06
 BYTE   En4
 BYTE   W06
 BYTE   N06  Cs4
 BYTE   W12
 BYTE   Bn3
 BYTE   W12
 BYTE   N21  Cs4
 BYTE   W20
// 015   ----------------------------------------
 BYTE   W96
// 016   ----------------------------------------
 BYTE   W96
// 017   ----------------------------------------
 BYTE   W96
// 018   ----------------------------------------
 BYTE   W04
 BYTE   N10  Gn3
 BYTE   W12
 BYTE   Fn3
 BYTE   W12
 BYTE   Cn3
 BYTE   W12
 BYTE   Gn3
 BYTE   W12
 BYTE   Fn3
 BYTE   W12
 BYTE   Cn3
 BYTE   W12
 BYTE   Gn3
 BYTE   W12
 BYTE   Fn3
 BYTE   W08
// 019   ----------------------------------------
 BYTE   W04
 BYTE   Cn4
 BYTE   W12
 BYTE   Gn3
 BYTE   W12
 BYTE   Fn3
 BYTE   W12
 BYTE   Cn3
 BYTE   W24
 BYTE   Gn3
 BYTE   W24
 BYTE   Fn3
 BYTE   W08
// 020   ----------------------------------------
 BYTE   W16
 BYTE   Cn4
 BYTE   W24
 BYTE   Gn3
 BYTE   W24
 BYTE   Fn3
 BYTE   W24
 BYTE   Cn3
 BYTE   W08
// 021   ----------------------------------------
 BYTE   W04
 BYTE   N10
 BYTE   W12
 BYTE   Cs3
 BYTE   W12
 BYTE   Ds3
 BYTE   W12
 BYTE   Fn3
 BYTE   W12
 BYTE   N21  Gn3
 BYTE   W24
 BYTE   N10  Fn3
 BYTE   W12
 BYTE   Cn4
 BYTE   W08
// 022   ----------------------------------------
 BYTE   W04
 BYTE   N21  Gn3
 BYTE   W24
 BYTE   N10  Fn3
 BYTE   W12
 BYTE   Cn3
 BYTE   W12
 BYTE   Ds3
 BYTE   W12
 BYTE   Fn3
 BYTE   W12
 BYTE   Gn3
 BYTE   W12
 BYTE   As3
 BYTE   W08
// 023   ----------------------------------------
 BYTE   W04
 BYTE   N21  Cn4
 BYTE   W24
 BYTE   N10  As3
 BYTE   W12
 BYTE   Fn4
 BYTE   W12
 BYTE   N21  Cn4
 BYTE   W24
 BYTE   N10  As3
 BYTE   W12
 BYTE   Fn3
 BYTE   W08
// 024   ----------------------------------------
 BYTE   W04
 BYTE   Cn3
 BYTE   W12
 BYTE   Gs2
 BYTE   W12
 BYTE   As3
 BYTE   W12
 BYTE   Gs2
 BYTE   W12
 BYTE   Fn3
 BYTE   W12
 BYTE   Gs2
 BYTE   W12
 BYTE   Cn4
 BYTE   W12
 BYTE   Gs2
 BYTE   W08
// 025   ----------------------------------------
 BYTE   W96
// 026   ----------------------------------------
 BYTE   W48
 BYTE   GoTo
  POIN2 Label_4_016F4586
// 027   ----------------------------------------
 BYTE   W04
 BYTE   VOICE   48
 BYTE   PAN   c_v+16
 BYTE   VOL   70*FE04GlorytoGrannvaleSurfingKyogre_mvl/mxv
 BYTE   W07
 BYTE   DsM2
 BYTE   W06
 BYTE   DsM2
 BYTE   W07
 BYTE   DnM2
 BYTE   W06
 BYTE   CsM2
 BYTE   W06
 BYTE   CsM2
 BYTE   W07
 BYTE   CnM2
 BYTE   W05
 BYTE   W01
 BYTE   CnM2
 BYTE   W07
 BYTE   CnM2
 BYTE   FINE

//**************** Track 6 (Midi-Chn.5) ****************//

FE04GlorytoGrannvaleSurfingKyogre_006:
// 000   ----------------------------------------
 BYTE   KEYSH   FE04GlorytoGrannvaleSurfingKyogre_key+0
Label_5_016F46F2:
 BYTE   PAN   c_v+0
 BYTE   VOL   40*FE04GlorytoGrannvaleSurfingKyogre_mvl/mxv
 BYTE   MOD 0
 BYTE   CnM2
 BYTE   BEND   c_v+0
 BYTE   W04
 BYTE   VOICE   60
 BYTE   PAN   c_v-24
 BYTE   VOL   70*FE04GlorytoGrannvaleSurfingKyogre_mvl/mxv
 BYTE   W92
// 001   ----------------------------------------
 BYTE   W40
 BYTE   N03  Dn3  v124
 BYTE   W06
 BYTE   N03
 BYTE   W06
 BYTE   N68
 BYTE   W44
// 002   ----------------------------------------
 BYTE   W28
 BYTE   N21  Gn2
 BYTE   W24
 BYTE   Cn3
 BYTE   W24
 BYTE   Dn3
 BYTE   W20
// 003   ----------------------------------------
 BYTE   W04
 BYTE   N68  Gn3
 BYTE   W72
 BYTE   N21  Gn2
 BYTE   W20
// 004   ----------------------------------------
 BYTE   W04
 BYTE   Cn3
 BYTE   W24
 BYTE   Dn3
 BYTE   W24
 BYTE   N68  Gn3
 BYTE   W44
// 005   ----------------------------------------
 BYTE   W28
 BYTE   Dn3
 BYTE   W68
// 006   ----------------------------------------
 BYTE   W04
 BYTE   N56  Gn3
 BYTE   W60
 BYTE   N03
 BYTE   W06
 BYTE   N03
 BYTE   W06
 BYTE   N09
 BYTE   W20
// 007   ----------------------------------------
 BYTE   W04
 BYTE   Fn3
 BYTE   W24
 BYTE   As3
 BYTE   W24
 BYTE   TIE  Gn3
 BYTE   W44
// 008   ----------------------------------------
 BYTE   W84
 BYTE   W01
 BYTE   EOT
 BYTE   W11
// 009   ----------------------------------------
 BYTE   W04
 BYTE   N06  Gs2
 BYTE   W12
 BYTE   As2
 BYTE   W12
 BYTE   N10  Cn3
 BYTE   W12
 BYTE   N03  Ds3
 BYTE   W04
 BYTE   Cs3
 BYTE   W04
 BYTE   Cn3
 BYTE   W04
 BYTE   N06  Cs3
 BYTE   W12
 BYTE   As2
 BYTE   W12
 BYTE   Gs2
 BYTE   W12
 BYTE   As2
 BYTE   W08
// 010   ----------------------------------------
 BYTE   W04
 BYTE   N10  Cn3
 BYTE   W12
 BYTE   N05  Cs3
 BYTE   W06
 BYTE   As2
 BYTE   W06
 BYTE   N21  Gs2
 BYTE   W24
 BYTE   N06
 BYTE   W12
 BYTE   As2
 BYTE   W12
 BYTE   N10  Cn3
 BYTE   W12
 BYTE   N03  Ds3
 BYTE   W04
 BYTE   Cs3
 BYTE   W04
// 011   ----------------------------------------
 BYTE   Cn3
 BYTE   W04
 BYTE   N06  Cs3
 BYTE   W12
 BYTE   Fn3
 BYTE   W12
 BYTE   Gs3
 BYTE   W12
 BYTE   As3
 BYTE   W12
 BYTE   N10  Cn4
 BYTE   W12
 BYTE   N05  Cs4
 BYTE   W06
 BYTE   As3
 BYTE   W06
 BYTE   N21  Gs3
 BYTE   W20
// 012   ----------------------------------------
 BYTE   W04
 BYTE   N06  As3
 BYTE   W12
 BYTE   Gs3
 BYTE   W12
 BYTE   Fs3
 BYTE   W12
 BYTE   N10  En3
 BYTE   W12
 BYTE   N05  Fs3
 BYTE   W06
 BYTE   Gs3
 BYTE   W06
 BYTE   N10  As3
 BYTE   W12
 BYTE   Gs3
 BYTE   W12
 BYTE   N03  Fs3
 BYTE   W04
 BYTE   Gs3
 BYTE   W04
// 013   ----------------------------------------
 BYTE   As3
 BYTE   W04
 BYTE   N06  Gs3
 BYTE   W12
 BYTE   Fs3
 BYTE   W12
 BYTE   En3
 BYTE   W12
 BYTE   Gs3
 BYTE   W12
 BYTE   N15  Bn3
 BYTE   W18
 BYTE   N05  As3
 BYTE   W06
 BYTE   N06  Gs3
 BYTE   W12
 BYTE   Fs3
 BYTE   W08
// 014   ----------------------------------------
 BYTE   W04
 BYTE   Gs3
 BYTE   W12
 BYTE   N05  As3
 BYTE   W06
 BYTE   Bn3
 BYTE   W06
 BYTE   N06  Cs4
 BYTE   W12
 BYTE   N05  Ds4
 BYTE   W06
 BYTE   En4
 BYTE   W06
 BYTE   N06  Cs4
 BYTE   W12
 BYTE   Bn3
 BYTE   W12
 BYTE   N21  Cs4
 BYTE   W20
// 015   ----------------------------------------
 BYTE   W04
 BYTE   PAN   c_v-4
 BYTE   VOL   75*FE04GlorytoGrannvaleSurfingKyogre_mvl/mxv
 BYTE   N72  Gn2  v108
 BYTE   W92
// 016   ----------------------------------------
 BYTE   W04
 BYTE   N10
 BYTE   W24
 BYTE   N10
 BYTE   W24
 BYTE   N72
 BYTE   W44
// 017   ----------------------------------------
 BYTE   W52
 BYTE   N10
 BYTE   W24
 BYTE   N10
 BYTE   W20
// 018   ----------------------------------------
 BYTE   W04
 BYTE   VOICE   56
 BYTE   TIE  Cn3
 BYTE   W92
// 019   ----------------------------------------
 BYTE   W32
 BYTE   W02
 BYTE   EOT
 BYTE   W18
 BYTE   N10
 BYTE   W24
 BYTE   N10
 BYTE   W20
// 020   ----------------------------------------
 BYTE   W04
 BYTE   N10
 BYTE   W24
 BYTE   N10
 BYTE   W24
 BYTE   N10
 BYTE   W24
 BYTE   N10
 BYTE   W20
// 021   ----------------------------------------
 BYTE   W04
 BYTE   N42  Ds3
 BYTE   W60
 BYTE   N10
 BYTE   W24
 BYTE   N10
 BYTE   W08
// 022   ----------------------------------------
Label_5_016F47FE:
 BYTE   W16
 BYTE   N10  Ds3  v108
 BYTE   W24
 BYTE   N10
 BYTE   W24
 BYTE   N10
 BYTE   W24
 BYTE   N10
 BYTE   W08
 BYTE   PEND 
// 023   ----------------------------------------
 BYTE   W04
 BYTE   N84  Cn3
 BYTE   W92
 BYTE   PATT
  POIN2 Label_5_016F47FE
// 024   ----------------------------------------
 BYTE   W04
 BYTE   TIE  Cn3  v108
 BYTE   W92
// 025   ----------------------------------------
 BYTE   W23
 BYTE   EOT
 BYTE   W24
 BYTE   W01
 BYTE   GoTo
  POIN2 Label_5_016F46F2
// 026   ----------------------------------------
 BYTE   W04
 BYTE   VOICE   60
 BYTE   PAN   c_v-24
 BYTE   VOL   70*FE04GlorytoGrannvaleSurfingKyogre_mvl/mxv
 BYTE   W07
 BYTE   DsM2
 BYTE   W06
 BYTE   DsM2
 BYTE   W07
 BYTE   DnM2
 BYTE   W06
 BYTE   CsM2
 BYTE   W06
 BYTE   CsM2
 BYTE   W07
 BYTE   CnM2
 BYTE   W05
 BYTE   W01
 BYTE   CnM2
 BYTE   W07
 BYTE   CnM2
 BYTE   FINE

//**************** Track 7 (Midi-Chn.6) ****************//

FE04GlorytoGrannvaleSurfingKyogre_007:
// 000   ----------------------------------------
 BYTE   KEYSH   FE04GlorytoGrannvaleSurfingKyogre_key+0
Label_6_016F483E:
 BYTE   PAN   c_v+0
 BYTE   VOL   40*FE04GlorytoGrannvaleSurfingKyogre_mvl/mxv
 BYTE   MOD 0
 BYTE   CnM2
 BYTE   BEND   c_v+0
 BYTE   W04
 BYTE   VOICE   60
 BYTE   PAN   c_v-54
 BYTE   VOL   70*FE04GlorytoGrannvaleSurfingKyogre_mvl/mxv
 BYTE   W92
// 001   ----------------------------------------
 BYTE   W40
 BYTE   N05  Gn1  v108
 BYTE   W06
 BYTE   N05
 BYTE   W06
 BYTE   N60
 BYTE   W44
// 002   ----------------------------------------
 BYTE   W28
 BYTE   N21
 BYTE   W24
 BYTE   N21
 BYTE   W36
 BYTE   N05
 BYTE   W06
 BYTE   N05
 BYTE   W02
// 003   ----------------------------------------
 BYTE   W04
 BYTE   N60
 BYTE   W72
 BYTE   N06
 BYTE   W12
 BYTE   Dn1
 BYTE   W08
// 004   ----------------------------------------
 BYTE   W04
 BYTE   Gn1
 BYTE   W12
 BYTE   Dn1
 BYTE   W12
 BYTE   Gn1
 BYTE   W12
 BYTE   Dn1
 BYTE   W12
 BYTE   N60  Gn1
 BYTE   W44
// 005   ----------------------------------------
 BYTE   W28
 BYTE   N06
 BYTE   W12
 BYTE   N06
 BYTE   W12
 BYTE   N06
 BYTE   W12
 BYTE   N06
 BYTE   W12
 BYTE   N06
 BYTE   W12
 BYTE   N06
 BYTE   W08
// 006   ----------------------------------------
 BYTE   W04
 BYTE   N42  Cn2
 BYTE   W48
 BYTE   N10
 BYTE   W12
 BYTE   N05
 BYTE   W06
 BYTE   N05
 BYTE   W18
 BYTE   N10
 BYTE   W08
// 007   ----------------------------------------
 BYTE   W16
 BYTE   N10
 BYTE   W24
 BYTE   N10
 BYTE   W12
 BYTE   TIE
 BYTE   W44
// 008   ----------------------------------------
 BYTE   W68
 BYTE   W03
 BYTE   EOT
 BYTE   W24
 BYTE   W01
// 009   ----------------------------------------
 BYTE   W04
 BYTE   N72  Cs2
 BYTE   W84
 BYTE   N10
 BYTE   W08
// 010   ----------------------------------------
 BYTE   W16
 BYTE   N10
 BYTE   W24
 BYTE   N10
 BYTE   W12
 BYTE   N72
 BYTE   W44
// 011   ----------------------------------------
 BYTE   W40
 BYTE   N10
 BYTE   W24
 BYTE   N10
 BYTE   W24
 BYTE   N10
 BYTE   W08
// 012   ----------------------------------------
 BYTE   W04
 BYTE   N72  En2
 BYTE   W84
 BYTE   N10
 BYTE   W08
// 013   ----------------------------------------
 BYTE   W16
 BYTE   N10
 BYTE   W24
 BYTE   N10
 BYTE   W12
 BYTE   N72
 BYTE   W44
// 014   ----------------------------------------
 BYTE   W40
 BYTE   N10
 BYTE   W24
 BYTE   N10
 BYTE   W24
 BYTE   N10
 BYTE   W08
// 015   ----------------------------------------
 BYTE   W04
 BYTE   N72  Gn1
 BYTE   W92
// 016   ----------------------------------------
 BYTE   W04
 BYTE   N10
 BYTE   W24
 BYTE   N10
 BYTE   W24
 BYTE   N72
 BYTE   W44
// 017   ----------------------------------------
 BYTE   W52
 BYTE   N10
 BYTE   W24
 BYTE   N10
 BYTE   W20
// 018   ----------------------------------------
 BYTE   W04
 BYTE   TIE  As1
 BYTE   W92
// 019   ----------------------------------------
 BYTE   W32
 BYTE   W02
 BYTE   EOT
 BYTE   W18
 BYTE   N10
 BYTE   W24
 BYTE   N10
 BYTE   W20
// 020   ----------------------------------------
 BYTE   W04
 BYTE   N10
 BYTE   W24
 BYTE   N10
 BYTE   W24
 BYTE   N10
 BYTE   W24
 BYTE   N10
 BYTE   W20
// 021   ----------------------------------------
 BYTE   W04
 BYTE   N42  Cs2
 BYTE   W60
 BYTE   N10
 BYTE   W24
 BYTE   N10
 BYTE   W08
// 022   ----------------------------------------
Label_6_016F48ED:
 BYTE   W16
 BYTE   N10  Cs2  v108
 BYTE   W24
 BYTE   N10
 BYTE   W24
 BYTE   N10
 BYTE   W24
 BYTE   N10
 BYTE   W08
 BYTE   PEND 
// 023   ----------------------------------------
 BYTE   W04
 BYTE   N84  As1
 BYTE   W92
 BYTE   PATT
  POIN2 Label_6_016F48ED
// 024   ----------------------------------------
 BYTE   W04
 BYTE   TIE  Cn2  v108
 BYTE   W92
// 025   ----------------------------------------
 BYTE   W23
 BYTE   EOT
 BYTE   W24
 BYTE   W01
 BYTE   GoTo
  POIN2 Label_6_016F483E
// 026   ----------------------------------------
 BYTE   W04
 BYTE   VOICE   60
 BYTE   PAN   c_v-54
 BYTE   VOL   70*FE04GlorytoGrannvaleSurfingKyogre_mvl/mxv
 BYTE   W07
 BYTE   DsM2
 BYTE   W06
 BYTE   DsM2
 BYTE   W07
 BYTE   DnM2
 BYTE   W06
 BYTE   CsM2
 BYTE   W06
 BYTE   CsM2
 BYTE   W07
 BYTE   CnM2
 BYTE   W05
 BYTE   W01
 BYTE   CnM2
 BYTE   W07
 BYTE   CnM2
 BYTE   FINE

//******************************************************//
	ALIGN 4

FE04GlorytoGrannvaleSurfingKyogre:
	BYTE	7	// NumTrks
	BYTE	0	// NumBlks
	BYTE	FE04GlorytoGrannvaleSurfingKyogre_pri	// Priority
	BYTE	FE04GlorytoGrannvaleSurfingKyogre_rev	// Reverb.
    
	POIN2	FE04GlorytoGrannvaleSurfingKyogre_grp
    
	POIN2	FE04GlorytoGrannvaleSurfingKyogre_001
	POIN2	FE04GlorytoGrannvaleSurfingKyogre_002
	POIN2	FE04GlorytoGrannvaleSurfingKyogre_003
	POIN2	FE04GlorytoGrannvaleSurfingKyogre_004
	POIN2	FE04GlorytoGrannvaleSurfingKyogre_005
	POIN2	FE04GlorytoGrannvaleSurfingKyogre_006
	POIN2	FE04GlorytoGrannvaleSurfingKyogre_007

	
