//Event file generated from Sappy .s format.
	#include "MPlayDef.event"

	#define	FE04ArmyofGrannvale2SurfingKyogre_grp  voicegroup000
	#define	FE04ArmyofGrannvale2SurfingKyogre_pri  0
	#define	FE04ArmyofGrannvale2SurfingKyogre_rev  0
	#define	FE04ArmyofGrannvale2SurfingKyogre_mvl  127
	#define	FE04ArmyofGrannvale2SurfingKyogre_key  0
	#define	FE04ArmyofGrannvale2SurfingKyogre_tbs  1
	#define	FE04ArmyofGrannvale2SurfingKyogre_exg  0
	#define	FE04ArmyofGrannvale2SurfingKyogre_cmp  1

	// .rodata
	//	FE04ArmyofGrannvale2SurfingKyogre
	ALIGN 4


//**************** Track 1 (Midi-Chn.0) ****************//

FE04ArmyofGrannvale2SurfingKyogre_001:
// 000   ----------------------------------------
 BYTE   KEYSH   FE04ArmyofGrannvale2SurfingKyogre_key+0
 BYTE   TEMPO   100*FE04ArmyofGrannvale2SurfingKyogre_tbs/2
 BYTE   PAN   c_v+0
 BYTE   VOL   20*FE04ArmyofGrannvale2SurfingKyogre_mvl/mxv
 BYTE   MOD 0
 BYTE   CnM2
 BYTE   BEND   c_v+0
 BYTE   W04
 BYTE   VOICE   57
 BYTE   PAN   c_v-44
 BYTE   VOL   45*FE04ArmyofGrannvale2SurfingKyogre_mvl/mxv
 BYTE   W12
 BYTE   N04  Ds4  v127
 BYTE   W06
 BYTE   N04
 BYTE   W06
 BYTE   N04
 BYTE   W12
 BYTE   Cs4
 BYTE   W12
 BYTE   Cn4
 BYTE   W12
 BYTE   As3
 BYTE   W12
 BYTE   N72  Cn4
 BYTE   W20
// 001   ----------------------------------------
Label_0_016FAAC9:
 BYTE   W64
 BYTE   N04  Ds4  v127
 BYTE   W06
 BYTE   N04
 BYTE   W06
 BYTE   N04
 BYTE   W12
 BYTE   Cs4
 BYTE   W08
 BYTE   PEND 
// 002   ----------------------------------------
 BYTE   W04
 BYTE   Cn4
 BYTE   W12
 BYTE   As3
 BYTE   W12
 BYTE   N48  Cn4
 BYTE   W68
// 003   ----------------------------------------
 BYTE   W04
 BYTE   VOICE   48
 BYTE   PAN   c_v-14
 BYTE   VOL   55*FE04ArmyofGrannvale2SurfingKyogre_mvl/mxv
 BYTE   N54  As2
 BYTE   W72
 BYTE   N36  Cn3
 BYTE   W20
// 004   ----------------------------------------
 BYTE   W28
 BYTE   N06  Ds3
 BYTE   W12
 BYTE   Cn3
 BYTE   W12
 BYTE   N36  Cs3
 BYTE   W44
// 005   ----------------------------------------
 BYTE   W04
 BYTE   N18  Ds3
 BYTE   W24
 BYTE   N72  Fn3
 BYTE   W68
// 006   ----------------------------------------
 BYTE   W04
 BYTE   VOL   50*FE04ArmyofGrannvale2SurfingKyogre_mvl/mxv
 BYTE   N44  Ds3
 BYTE   W48
 BYTE   N22  Fn3
 BYTE   W24
 BYTE   N44  Cs3
 BYTE   W20
// 007   ----------------------------------------
 BYTE   W28
 BYTE   N22  Ds3
 BYTE   W24
 BYTE   N44  Cn3
 BYTE   W44
// 008   ----------------------------------------
 BYTE   W04
 BYTE   N04  Cs3
 BYTE   W12
 BYTE   Cn3
 BYTE   W12
 BYTE   N68  As2
 BYTE   W68
// 009   ----------------------------------------
Label_0_016FAB16:
 BYTE   W04
 BYTE   VOICE   57
 BYTE   PAN   c_v+16
 BYTE   VOL   50*FE04ArmyofGrannvale2SurfingKyogre_mvl/mxv
 BYTE   W08
 BYTE   PEND 
Label_0_016FAB1F:
 BYTE   W04
 BYTE   N04  Fn3  v127
 BYTE   W24
 BYTE   N04
 BYTE   W12
 BYTE   N22  Fs3
 BYTE   W36
 BYTE   N04  Fn3
 BYTE   W08
// 010   ----------------------------------------
 BYTE   W16
 BYTE   N04
 BYTE   W12
 BYTE   N22  Ds3
 BYTE   W36
 BYTE   N04  Fn3
 BYTE   W24
 BYTE   N04
 BYTE   W08
// 011   ----------------------------------------
 BYTE   W04
 BYTE   N22  Fs3
 BYTE   W36
 BYTE   N04  Fn3
 BYTE   W24
 BYTE   N04
 BYTE   W12
 BYTE   Gs3
 BYTE   W12
 BYTE   Fs3
 BYTE   W08
// 012   ----------------------------------------
 BYTE   W04
 BYTE   N60  As2
 BYTE   W72
 BYTE   N42  Fn3
 BYTE   W20
// 013   ----------------------------------------
 BYTE   W28
 BYTE   N05  Ds3
 BYTE   W12
 BYTE   Cs3
 BYTE   W12
 BYTE   N42  Cn3
 BYTE   W44
// 014   ----------------------------------------
Label_0_016FAB54:
 BYTE   W04
 BYTE   N05  Cs3  v127
 BYTE   W12
 BYTE   Ds3
 BYTE   W12
 BYTE   Cs3
 BYTE   W12
 BYTE   Cn3
 BYTE   W12
 BYTE   N42  As2
 BYTE   W44
 BYTE   PEND 
// 015   ----------------------------------------
 BYTE   W16
 BYTE   N04  Ds4
 BYTE   W06
 BYTE   N04
 BYTE   W06
 BYTE   N04
 BYTE   W12
 BYTE   Cs4
 BYTE   W12
 BYTE   Cn4
 BYTE   W12
 BYTE   As3
 BYTE   W12
 BYTE   N60  Cn4
 BYTE   W20
 BYTE   PATT
  POIN2 Label_0_016FAAC9
// 016   ----------------------------------------
 BYTE   W04
 BYTE   N04  Cn4  v127
 BYTE   W12
 BYTE   As3
 BYTE   W12
 BYTE   N60  Cn4
 BYTE   W68
// 017   ----------------------------------------
 BYTE   W04
 BYTE   N48  Fn4
 BYTE   W48
 BYTE   N06  Ds4
 BYTE   W12
 BYTE   Cs4
 BYTE   W12
 BYTE   Cn4
 BYTE   W12
 BYTE   Cs4
 BYTE   W08
// 018   ----------------------------------------
 BYTE   W04
 BYTE   N48  Ds4
 BYTE   W48
 BYTE   Fn4
 BYTE   W44
// 019   ----------------------------------------
 BYTE   W04
 BYTE   N06  Ds4
 BYTE   W12
 BYTE   Cs4
 BYTE   W12
 BYTE   Cn4
 BYTE   W12
 BYTE   Cs4
 BYTE   W12
 BYTE   N24  Ds4
 BYTE   W24
 BYTE   Cn4
 BYTE   W20
// 020   ----------------------------------------
 BYTE   W96
// 021   ----------------------------------------
 BYTE   W96
// 022   ----------------------------------------
 BYTE   W96
// 023   ----------------------------------------
 BYTE   W04
 BYTE   N60  As2
 BYTE   W72
 BYTE   N48  Fn3
 BYTE   W20
// 024   ----------------------------------------
 BYTE   W28
 BYTE   N06  Ds3
 BYTE   W12
 BYTE   Cs3
 BYTE   W12
 BYTE   N42  Cn3
 BYTE   W44
 BYTE   PATT
  POIN2 Label_0_016FAB54
// 025   ----------------------------------------
 BYTE   W04
 BYTE   VOICE   48
 BYTE   PAN   c_v+0
 BYTE   VOL   55*FE04ArmyofGrannvale2SurfingKyogre_mvl/mxv
 BYTE   N68  As2  v127
 BYTE   W72
 BYTE   N44  Bn2
 BYTE   W20
// 026   ----------------------------------------
Label_0_016FABCB:
 BYTE   W40
 BYTE   N04  Cs3  v127
 BYTE   W06
 BYTE   Dn3
 BYTE   W06
 BYTE   TIE  Cs3
 BYTE   W44
 BYTE   PEND 
// 027   ----------------------------------------
 BYTE   W84
 BYTE   W02
 BYTE   EOT
 BYTE   W10
// 028   ----------------------------------------
 BYTE   W04
 BYTE   N68  As2
 BYTE   W72
 BYTE   N44  Bn2
 BYTE   W20
 BYTE   PATT
  POIN2 Label_0_016FABCB
// 029   ----------------------------------------
 BYTE   W84
 BYTE   W02
 BYTE   EOT
 BYTE   Cs3
 BYTE   W10
 BYTE   PATT
  POIN2 Label_0_016FAB16
// 030   ----------------------------------------
 BYTE   GoTo
  POIN2 Label_0_016FAB1F
// 031   ----------------------------------------
 BYTE   W04
 BYTE   N04  Fn3  v127
 BYTE   W07
 BYTE   FINE

//**************** Track 2 (Midi-Chn.1) ****************//

FE04ArmyofGrannvale2SurfingKyogre_002:
// 000   ----------------------------------------
 BYTE   KEYSH   FE04ArmyofGrannvale2SurfingKyogre_key+0
 BYTE   PAN   c_v+0
 BYTE   VOL   20*FE04ArmyofGrannvale2SurfingKyogre_mvl/mxv
 BYTE   MOD 0
 BYTE   CnM2
 BYTE   BEND   c_v+0
 BYTE   W04
 BYTE   VOICE   57
 BYTE   PAN   c_v+46
 BYTE   VOL   45*FE04ArmyofGrannvale2SurfingKyogre_mvl/mxv
 BYTE   W12
 BYTE   N04  Gs3  v127
 BYTE   W06
 BYTE   N04
 BYTE   W06
 BYTE   N04
 BYTE   W12
 BYTE   N04
 BYTE   W12
 BYTE   N04
 BYTE   W12
 BYTE   N04
 BYTE   W12
 BYTE   N72
 BYTE   W20
// 001   ----------------------------------------
Label_1_016FAC1E:
 BYTE   W64
 BYTE   N04  Gs3  v127
 BYTE   W06
 BYTE   N04
 BYTE   W06
 BYTE   N04
 BYTE   W12
 BYTE   N04
 BYTE   W08
 BYTE   PEND 
// 002   ----------------------------------------
 BYTE   W04
 BYTE   N04
 BYTE   W12
 BYTE   N04
 BYTE   W12
 BYTE   N48
 BYTE   W68
// 003   ----------------------------------------
 BYTE   W04
 BYTE   VOICE   48
 BYTE   PAN   c_v+16
 BYTE   VOL   55*FE04ArmyofGrannvale2SurfingKyogre_mvl/mxv
 BYTE   N54  Fn2
 BYTE   W72
 BYTE   N36  Gn2
 BYTE   W20
// 004   ----------------------------------------
 BYTE   W28
 BYTE   N06  As2
 BYTE   W12
 BYTE   Gn2
 BYTE   W12
 BYTE   N36  Gs2
 BYTE   W44
// 005   ----------------------------------------
 BYTE   W04
 BYTE   N18  As2
 BYTE   W24
 BYTE   N72
 BYTE   W68
// 006   ----------------------------------------
 BYTE   W04
 BYTE   VOL   50*FE04ArmyofGrannvale2SurfingKyogre_mvl/mxv
 BYTE   N44  Gs2
 BYTE   W48
 BYTE   N22  As2
 BYTE   W24
 BYTE   N44  Fs2
 BYTE   W20
// 007   ----------------------------------------
 BYTE   W28
 BYTE   N22  Gs2
 BYTE   W24
 BYTE   N44  Fn2
 BYTE   W44
// 008   ----------------------------------------
 BYTE   W04
 BYTE   N04  Gs2
 BYTE   W12
 BYTE   Fn2
 BYTE   W12
 BYTE   N10  Ds2
 BYTE   W24
 BYTE   N44  Cs2
 BYTE   W44
// 009   ----------------------------------------
Label_1_016FAC6C:
 BYTE   W04
 BYTE   VOICE   57
 BYTE   PAN   c_v-14
 BYTE   VOL   45*FE04ArmyofGrannvale2SurfingKyogre_mvl/mxv
 BYTE   W08
 BYTE   PEND 
Label_1_016FAC75:
 BYTE   W04
 BYTE   N04  Cn3  v127
 BYTE   W24
 BYTE   N04
 BYTE   W12
 BYTE   N22  Cs3
 BYTE   W36
 BYTE   N04  Cn3
 BYTE   W08
// 010   ----------------------------------------
 BYTE   W16
 BYTE   N04
 BYTE   W12
 BYTE   N22  As2
 BYTE   W36
 BYTE   N04  Cn3
 BYTE   W24
 BYTE   N04
 BYTE   W08
// 011   ----------------------------------------
 BYTE   W04
 BYTE   N22  Cs3
 BYTE   W36
 BYTE   N04  Cn3
 BYTE   W24
 BYTE   N04
 BYTE   W12
 BYTE   Ds3
 BYTE   W12
 BYTE   Cs3
 BYTE   W08
// 012   ----------------------------------------
 BYTE   W04
 BYTE   PAN   c_v+26
 BYTE   N60  Fn2
 BYTE   W72
 BYTE   N42  Gs2
 BYTE   W20
// 013   ----------------------------------------
 BYTE   W28
 BYTE   N05
 BYTE   W12
 BYTE   N05
 BYTE   W12
 BYTE   N42
 BYTE   W44
// 014   ----------------------------------------
Label_1_016FACAA:
 BYTE   W04
 BYTE   N05  Gs2  v127
 BYTE   W12
 BYTE   N05
 BYTE   W12
 BYTE   N05
 BYTE   W12
 BYTE   N05
 BYTE   W12
 BYTE   N42  Fn2
 BYTE   W44
 BYTE   PEND 
// 015   ----------------------------------------
 BYTE   W04
 BYTE   VOL   40*FE04ArmyofGrannvale2SurfingKyogre_mvl/mxv
 BYTE   W12
 BYTE   N04  Gs3
 BYTE   W06
 BYTE   N04
 BYTE   W06
 BYTE   N04
 BYTE   W12
 BYTE   N04
 BYTE   W12
 BYTE   N04
 BYTE   W12
 BYTE   Fn3
 BYTE   W12
 BYTE   N60  Ds3
 BYTE   W20
 BYTE   PATT
  POIN2 Label_1_016FAC1E
// 016   ----------------------------------------
 BYTE   W04
 BYTE   N04  Gs3  v127
 BYTE   W12
 BYTE   Fn3
 BYTE   W12
 BYTE   N60  Ds3
 BYTE   W68
// 017   ----------------------------------------
 BYTE   W04
 BYTE   N48  As3
 BYTE   W48
 BYTE   N06
 BYTE   W12
 BYTE   N06
 BYTE   W12
 BYTE   N06
 BYTE   W12
 BYTE   N06
 BYTE   W08
// 018   ----------------------------------------
 BYTE   W04
 BYTE   N48
 BYTE   W48
 BYTE   N48
 BYTE   W44
// 019   ----------------------------------------
 BYTE   W04
 BYTE   N06
 BYTE   W12
 BYTE   N06
 BYTE   W12
 BYTE   N06
 BYTE   W12
 BYTE   N06
 BYTE   W12
 BYTE   N24
 BYTE   W24
 BYTE   N24
 BYTE   W20
// 020   ----------------------------------------
 BYTE   W96
// 021   ----------------------------------------
 BYTE   W96
// 022   ----------------------------------------
 BYTE   W96
// 023   ----------------------------------------
 BYTE   W04
 BYTE   N60  Fn2
 BYTE   W72
 BYTE   N48  Gs2
 BYTE   W20
// 024   ----------------------------------------
 BYTE   W28
 BYTE   N06
 BYTE   W12
 BYTE   N06
 BYTE   W12
 BYTE   N42
 BYTE   W44
 BYTE   PATT
  POIN2 Label_1_016FACAA
// 025   ----------------------------------------
 BYTE   W04
 BYTE   VOICE   48
 BYTE   PAN   c_v+0
 BYTE   VOL   50*FE04ArmyofGrannvale2SurfingKyogre_mvl/mxv
 BYTE   N68  Fs2  v127
 BYTE   W72
 BYTE   N44
 BYTE   W20
// 026   ----------------------------------------
Label_1_016FAD1D:
 BYTE   W40
 BYTE   N04  Fs2  v127
 BYTE   W06
 BYTE   N04
 BYTE   W06
 BYTE   TIE
 BYTE   W44
 BYTE   PEND 
// 027   ----------------------------------------
 BYTE   W84
 BYTE   W02
 BYTE   EOT
 BYTE   W10
// 028   ----------------------------------------
 BYTE   W04
 BYTE   N68
 BYTE   W72
 BYTE   N44
 BYTE   W20
 BYTE   PATT
  POIN2 Label_1_016FAD1D
// 029   ----------------------------------------
 BYTE   W84
 BYTE   W02
 BYTE   EOT
 BYTE   Fs2
 BYTE   W10
 BYTE   PATT
  POIN2 Label_1_016FAC6C
// 030   ----------------------------------------
 BYTE   GoTo
  POIN2 Label_1_016FAC75
// 031   ----------------------------------------
 BYTE   W04
 BYTE   N04  Cn3  v127
 BYTE   W07
 BYTE   FINE

//**************** Track 3 (Midi-Chn.2) ****************//

FE04ArmyofGrannvale2SurfingKyogre_003:
// 000   ----------------------------------------
 BYTE   KEYSH   FE04ArmyofGrannvale2SurfingKyogre_key+0
 BYTE   PAN   c_v+0
 BYTE   VOL   20*FE04ArmyofGrannvale2SurfingKyogre_mvl/mxv
 BYTE   MOD 0
 BYTE   CnM2
 BYTE   BEND   c_v+0
 BYTE   W04
 BYTE   VOICE   48
 BYTE   PAN   c_v-4
 BYTE   VOL   50*FE04ArmyofGrannvale2SurfingKyogre_mvl/mxv
 BYTE   N60  As2  v127
 BYTE   W72
 BYTE   N18
 BYTE   W20
// 001   ----------------------------------------
 BYTE   W28
 BYTE   N18
 BYTE   W24
 BYTE   N60  Fs2
 BYTE   W44
// 002   ----------------------------------------
 BYTE   W28
 BYTE   N18
 BYTE   W48
 BYTE   N18
 BYTE   W20
// 003   ----------------------------------------
 BYTE   W96
// 004   ----------------------------------------
 BYTE   W96
// 005   ----------------------------------------
 BYTE   W96
// 006   ----------------------------------------
 BYTE   W96
// 007   ----------------------------------------
 BYTE   W96
// 008   ----------------------------------------
 BYTE   W96
// 009   ----------------------------------------
Label_2_016FA940:
 BYTE   W04
 BYTE   VOICE   56
 BYTE   PAN   c_v+63
 BYTE   VOL   20*FE04ArmyofGrannvale2SurfingKyogre_mvl/mxv
 BYTE   W08
 BYTE   PEND 
Label_2_016FA949:
 BYTE   W04
 BYTE   BEND   c_v-1
 BYTE   W12
 BYTE   N04  Fn3  v127
 BYTE   W24
 BYTE   N04
 BYTE   W12
 BYTE   N22  Fs3
 BYTE   W32
// 010   ----------------------------------------
 BYTE   W04
 BYTE   N04  Fn3
 BYTE   W24
 BYTE   N04
 BYTE   W12
 BYTE   N22  Ds3
 BYTE   W36
 BYTE   N04  Fn3
 BYTE   W20
// 011   ----------------------------------------
 BYTE   W04
 BYTE   N04
 BYTE   W12
 BYTE   N22  Fs3
 BYTE   W36
 BYTE   N04  Fn3
 BYTE   W24
 BYTE   N04
 BYTE   W12
 BYTE   N09  Gs3
 BYTE   W08
// 012   ----------------------------------------
 BYTE   W04
 BYTE   VOICE   48
 BYTE   PAN   c_v-19
 BYTE   VOL   55*FE04ArmyofGrannvale2SurfingKyogre_mvl/mxv
 BYTE   BEND   c_v+0
 BYTE   W92
// 013   ----------------------------------------
 BYTE   W52
 BYTE   N36  Fn3
 BYTE   W44
// 014   ----------------------------------------
Label_2_016FA97E:
 BYTE   W04
 BYTE   N04  Ds3  v127
 BYTE   W12
 BYTE   Cs3
 BYTE   W12
 BYTE   Cn3
 BYTE   W12
 BYTE   Cs3
 BYTE   W12
 BYTE   N36  Ds3
 BYTE   W44
 BYTE   PEND 
// 015   ----------------------------------------
Label_2_016FA98D:
 BYTE   W04
 BYTE   N36  Fn3  v127
 BYTE   W48
 BYTE   N04  Ds3
 BYTE   W12
 BYTE   Cs3
 BYTE   W12
 BYTE   Cn3
 BYTE   W12
 BYTE   Cs3
 BYTE   W08
 BYTE   PEND 
// 016   ----------------------------------------
 BYTE   W04
 BYTE   N36  As2
 BYTE   W48
 BYTE   N24  Ds3
 BYTE   W36
 BYTE   N04  Cs3
 BYTE   W08
// 017   ----------------------------------------
 BYTE   W04
 BYTE   Cn3
 BYTE   W12
 BYTE   Cs3
 BYTE   W12
 BYTE   N04
 BYTE   W12
 BYTE   Ds3
 BYTE   W12
 BYTE   N36  Fn3
 BYTE   W44
// 018   ----------------------------------------
 BYTE   W04
 BYTE   Gs3
 BYTE   W48
 BYTE   N04  Fs3
 BYTE   W12
 BYTE   Fn3
 BYTE   W12
 BYTE   Ds3
 BYTE   W12
 BYTE   Fn3
 BYTE   W08
// 019   ----------------------------------------
 BYTE   W04
 BYTE   N36  Fs3
 BYTE   W48
 BYTE   Gs3
 BYTE   W44
// 020   ----------------------------------------
 BYTE   W04
 BYTE   N04  Fs3
 BYTE   W12
 BYTE   Fn3
 BYTE   W12
 BYTE   Ds3
 BYTE   W12
 BYTE   Fn3
 BYTE   W12
 BYTE   N36  Cs3
 BYTE   W44
 BYTE   PATT
  POIN2 Label_2_016FA98D
// 021   ----------------------------------------
 BYTE   W04
 BYTE   N36  Ds3  v127
 BYTE   W48
 BYTE   Fn3
 BYTE   W44
// 022   ----------------------------------------
 BYTE   W04
 BYTE   N04  Ds3
 BYTE   W12
 BYTE   Cs3
 BYTE   W12
 BYTE   Cn3
 BYTE   W12
 BYTE   Cs3
 BYTE   W12
 BYTE   N18  Ds3
 BYTE   W24
 BYTE   Cn3
 BYTE   W20
// 023   ----------------------------------------
 BYTE   W96
// 024   ----------------------------------------
 BYTE   W52
 BYTE   N36  Fn3
 BYTE   W44
 BYTE   PATT
  POIN2 Label_2_016FA97E
// 025   ----------------------------------------
 BYTE   W04
 BYTE   VOICE   48
 BYTE   VOL   50*FE04ArmyofGrannvale2SurfingKyogre_mvl/mxv
 BYTE   W06
 BYTE   PAN   c_v+46
 BYTE   N68  As1  v127
 BYTE   W72
 BYTE   N44  Bn1
 BYTE   W14
// 026   ----------------------------------------
Label_2_016FAA05:
 BYTE   W44
 BYTE   W02
 BYTE   N04  Cs2  v127
 BYTE   W06
 BYTE   Dn2
 BYTE   W06
 BYTE   TIE  Cs2
 BYTE   W36
 BYTE   W02
 BYTE   PEND 
// 027   ----------------------------------------
 BYTE   W92
 BYTE   EOT
 BYTE   W04
// 028   ----------------------------------------
 BYTE   W10
 BYTE   PAN   c_v-54
 BYTE   N68  As1
 BYTE   W72
 BYTE   N44  Bn1
 BYTE   W14
 BYTE   PATT
  POIN2 Label_2_016FAA05
// 029   ----------------------------------------
 BYTE   W92
 BYTE   EOT
 BYTE   Cs2
 BYTE   W04
 BYTE   PATT
  POIN2 Label_2_016FA940
// 030   ----------------------------------------
 BYTE   GoTo
  POIN2 Label_2_016FA949
// 031   ----------------------------------------
 BYTE   W04
 BYTE   BEND   c_v-1
 BYTE   W07
 BYTE   FINE

//**************** Track 4 (Midi-Chn.3) ****************//

FE04ArmyofGrannvale2SurfingKyogre_004:
// 000   ----------------------------------------
 BYTE   KEYSH   FE04ArmyofGrannvale2SurfingKyogre_key+0
 BYTE   PAN   c_v+0
 BYTE   VOL   20*FE04ArmyofGrannvale2SurfingKyogre_mvl/mxv
 BYTE   MOD 0
 BYTE   CnM2
 BYTE   BEND   c_v+0
 BYTE   W04
 BYTE   VOICE   48
 BYTE   PAN   c_v-4
 BYTE   VOL   50*FE04ArmyofGrannvale2SurfingKyogre_mvl/mxv
 BYTE   N60  Fn2  v127
 BYTE   W72
 BYTE   N18
 BYTE   W20
// 001   ----------------------------------------
 BYTE   W28
 BYTE   N18
 BYTE   W24
 BYTE   N60  Cs2
 BYTE   W44
// 002   ----------------------------------------
 BYTE   W28
 BYTE   N18
 BYTE   W48
 BYTE   N18
 BYTE   W20
// 003   ----------------------------------------
 BYTE   W96
// 004   ----------------------------------------
 BYTE   W96
// 005   ----------------------------------------
 BYTE   W96
// 006   ----------------------------------------
 BYTE   W96
// 007   ----------------------------------------
 BYTE   W96
// 008   ----------------------------------------
 BYTE   W96
// 009   ----------------------------------------
Label_3_55FE4E:
 BYTE   W04
 BYTE   VOICE   56
 BYTE   PAN   c_v-64
 BYTE   VOL   30*FE04ArmyofGrannvale2SurfingKyogre_mvl/mxv
 BYTE   W08
 BYTE   PEND 
Label_3_55FE57:
 BYTE   W04
 BYTE   BEND   c_v-1
 BYTE   W12
 BYTE   N04  Cn3  v127
 BYTE   W24
 BYTE   N04
 BYTE   W12
 BYTE   N22  Cs3
 BYTE   W32
// 010   ----------------------------------------
 BYTE   W04
 BYTE   N04  Cn3
 BYTE   W24
 BYTE   N04
 BYTE   W12
 BYTE   N22  As2
 BYTE   W36
 BYTE   N04  Cn3
 BYTE   W20
// 011   ----------------------------------------
 BYTE   W04
 BYTE   N04
 BYTE   W12
 BYTE   N22  Cs3
 BYTE   W36
 BYTE   N04  Cn3
 BYTE   W24
 BYTE   N04
 BYTE   W12
 BYTE   Ds3
 BYTE   W08
// 012   ----------------------------------------
 BYTE   W04
 BYTE   VOICE   48
 BYTE   PAN   c_v-49
 BYTE   VOL   55*FE04ArmyofGrannvale2SurfingKyogre_mvl/mxv
 BYTE   BEND   c_v+0
 BYTE   W92
// 013   ----------------------------------------
 BYTE   W52
 BYTE   N44  As2
 BYTE   W44
// 014   ----------------------------------------
Label_3_55FE8B:
 BYTE   W04
 BYTE   N04  As2  v127
 BYTE   W12
 BYTE   N04
 BYTE   W12
 BYTE   N04
 BYTE   W12
 BYTE   N04
 BYTE   W12
 BYTE   N44
 BYTE   W44
 BYTE   PEND 
// 015   ----------------------------------------
 BYTE   W04
 BYTE   N44
 BYTE   W48
 BYTE   N04
 BYTE   W12
 BYTE   N04
 BYTE   W12
 BYTE   N04
 BYTE   W12
 BYTE   N04
 BYTE   W08
// 016   ----------------------------------------
 BYTE   W04
 BYTE   N44  Fn2
 BYTE   W48
 BYTE   N32  As2
 BYTE   W36
 BYTE   N04
 BYTE   W08
 BYTE   PATT
  POIN2 Label_3_55FE8B
// 017   ----------------------------------------
 BYTE   W04
 BYTE   N44  Cs3  v127
 BYTE   W48
 BYTE   N04
 BYTE   W12
 BYTE   N04
 BYTE   W12
 BYTE   N04
 BYTE   W12
 BYTE   N04
 BYTE   W08
// 018   ----------------------------------------
 BYTE   W04
 BYTE   N44
 BYTE   W48
 BYTE   N44
 BYTE   W44
// 019   ----------------------------------------
 BYTE   W04
 BYTE   N04
 BYTE   W12
 BYTE   N04
 BYTE   W12
 BYTE   N04
 BYTE   W12
 BYTE   N04
 BYTE   W12
 BYTE   N44  Gs2
 BYTE   W44
// 020   ----------------------------------------
 BYTE   W04
 BYTE   N44
 BYTE   W48
 BYTE   N04
 BYTE   W12
 BYTE   N04
 BYTE   W12
 BYTE   N04
 BYTE   W12
 BYTE   N04
 BYTE   W08
// 021   ----------------------------------------
 BYTE   W04
 BYTE   N44
 BYTE   W48
 BYTE   N44
 BYTE   W44
// 022   ----------------------------------------
 BYTE   W04
 BYTE   N04
 BYTE   W12
 BYTE   N04
 BYTE   W12
 BYTE   N04
 BYTE   W12
 BYTE   N04
 BYTE   W12
 BYTE   N44
 BYTE   W44
// 023   ----------------------------------------
 BYTE   W96
// 024   ----------------------------------------
 BYTE   W52
 BYTE   As2
 BYTE   W44
 BYTE   PATT
  POIN2 Label_3_55FE8B
// 025   ----------------------------------------
 BYTE   W96
// 026   ----------------------------------------
 BYTE   W96
// 027   ----------------------------------------
 BYTE   W96
// 028   ----------------------------------------
 BYTE   W96
// 029   ----------------------------------------
 BYTE   W96
// 030   ----------------------------------------
 BYTE   W96
 BYTE   PATT
  POIN2 Label_3_55FE4E
// 031   ----------------------------------------
 BYTE   GoTo
  POIN2 Label_3_55FE57
// 032   ----------------------------------------
 BYTE   W04
 BYTE   BEND   c_v-1
 BYTE   W07
 BYTE   FINE

//**************** Track 5 (Midi-Chn.4) ****************//

FE04ArmyofGrannvale2SurfingKyogre_005:
// 000   ----------------------------------------
 BYTE   KEYSH   FE04ArmyofGrannvale2SurfingKyogre_key+0
 BYTE   PAN   c_v+0
 BYTE   VOL   20*FE04ArmyofGrannvale2SurfingKyogre_mvl/mxv
 BYTE   MOD 0
 BYTE   CnM2
 BYTE   BEND   c_v+0
 BYTE   W04
 BYTE   VOICE   60
 BYTE   PAN   c_v+0
 BYTE   VOL   45*FE04ArmyofGrannvale2SurfingKyogre_mvl/mxv
 BYTE   N60  As1  v127
 BYTE   W72
 BYTE   N18
 BYTE   W20
// 001   ----------------------------------------
 BYTE   W04
 BYTE   PAN   c_v-64
 BYTE   N18  Fn1
 BYTE   W24
 BYTE   PAN   c_v+0
 BYTE   N18  As1
 BYTE   W24
 BYTE   N60  Fs1
 BYTE   W44
// 002   ----------------------------------------
 BYTE   W28
 BYTE   N18
 BYTE   W24
 BYTE   PAN   c_v-64
 BYTE   N18  Cs1
 BYTE   W24
 BYTE   PAN   c_v+0
 BYTE   N18  Fs1
 BYTE   W20
// 003   ----------------------------------------
Label_4_016FAD7E:
 BYTE   W04
 BYTE   PAN   c_v-64
 BYTE   N09  As1  v127
 BYTE   W24
 BYTE   N42  Fn1
 BYTE   W24
 BYTE   PAN   c_v+63
 BYTE   W24
 BYTE   CnM2
 BYTE   N09  As1
 BYTE   W20
 BYTE   PEND 
// 004   ----------------------------------------
Label_4_016FAD90:
 BYTE   W04
 BYTE   N42  Fn1  v127
 BYTE   W24
 BYTE   PAN   c_v+63
 BYTE   W24
 BYTE   CnM2
 BYTE   N09  As1
 BYTE   W24
 BYTE   N42  Fn1
 BYTE   W20
 BYTE   PEND 
// 005   ----------------------------------------
Label_4_016FADA0:
 BYTE   W04
 BYTE   PAN   c_v+63
 BYTE   W24
 BYTE   CnM2
 BYTE   N09  As1  v127
 BYTE   W24
 BYTE   N42  Fn1
 BYTE   W24
 BYTE   PAN   c_v+63
 BYTE   W20
 BYTE   PEND 
 BYTE   PATT
  POIN2 Label_4_016FAD7E
 BYTE   PATT
  POIN2 Label_4_016FAD90
 BYTE   PATT
  POIN2 Label_4_016FADA0
// 006   ----------------------------------------
Label_4_016FADBF:
 BYTE   W04
 BYTE   PAN   c_v-64
 BYTE   N09  Fn1  v127
 BYTE   W08
 BYTE   PEND 
Label_4_016FADC7:
 BYTE   W16
 BYTE   N09  Fn1  v127
 BYTE   W48
 BYTE   PAN   c_v-64
 BYTE   N09
 BYTE   W20
// 007   ----------------------------------------
 BYTE   W04
 BYTE   N09
 BYTE   W48
 BYTE   PAN   c_v-64
 BYTE   N09
 BYTE   W24
 BYTE   N09
 BYTE   W20
// 008   ----------------------------------------
 BYTE   W28
 BYTE   PAN   c_v-64
 BYTE   N09
 BYTE   W24
 BYTE   N09
 BYTE   W44
 BYTE   PATT
  POIN2 Label_4_016FAD7E
 BYTE   PATT
  POIN2 Label_4_016FAD90
 BYTE   PATT
  POIN2 Label_4_016FADA0
 BYTE   PATT
  POIN2 Label_4_016FAD7E
 BYTE   PATT
  POIN2 Label_4_016FAD90
 BYTE   PATT
  POIN2 Label_4_016FADA0
// 009   ----------------------------------------
 BYTE   W04
 BYTE   PAN   c_v-64
 BYTE   N09  Fs1  v127
 BYTE   W24
 BYTE   N42  Cs1
 BYTE   W24
 BYTE   PAN   c_v+63
 BYTE   W24
 BYTE   CnM2
 BYTE   N09  Fs1
 BYTE   W20
// 010   ----------------------------------------
 BYTE   W04
 BYTE   N42  Cs1
 BYTE   W24
 BYTE   PAN   c_v+63
 BYTE   W24
 BYTE   CnM2
 BYTE   N09  Fs1
 BYTE   W24
 BYTE   N42  Cs1
 BYTE   W20
// 011   ----------------------------------------
 BYTE   W04
 BYTE   PAN   c_v+63
 BYTE   W24
 BYTE   CnM2
 BYTE   N09  Fs1
 BYTE   W24
 BYTE   N42  Cs1
 BYTE   W24
 BYTE   PAN   c_v+63
 BYTE   W20
// 012   ----------------------------------------
 BYTE   W04
 BYTE   CnM2
 BYTE   N09  Fn1
 BYTE   W24
 BYTE   N09
 BYTE   W48
 BYTE   N09
 BYTE   W20
// 013   ----------------------------------------
 BYTE   W04
 BYTE   Cn1
 BYTE   W48
 BYTE   PAN   c_v-64
 BYTE   N09  Fn1
 BYTE   W24
 BYTE   N09
 BYTE   W20
// 014   ----------------------------------------
 BYTE   W28
 BYTE   N09
 BYTE   W24
 BYTE   Cn1
 BYTE   W44
 BYTE   PATT
  POIN2 Label_4_016FAD7E
 BYTE   PATT
  POIN2 Label_4_016FAD90
 BYTE   PATT
  POIN2 Label_4_016FADA0
// 015   ----------------------------------------
Label_4_016FAE52:
 BYTE   W04
 BYTE   PAN   c_v-64
 BYTE   N54  Fs1  v127
 BYTE   W72
 BYTE   N44
 BYTE   W20
 BYTE   PEND 
// 016   ----------------------------------------
Label_4_016FAE5C:
 BYTE   W40
 BYTE   N04  Fs1  v127
 BYTE   W06
 BYTE   N04
 BYTE   W06
 BYTE   TIE
 BYTE   W44
 BYTE   PEND 
// 017   ----------------------------------------
 BYTE   W72
 BYTE   W01
 BYTE   EOT
 BYTE   W23
 BYTE   PATT
  POIN2 Label_4_016FAE52
 BYTE   PATT
  POIN2 Label_4_016FAE5C
// 018   ----------------------------------------
 BYTE   W72
 BYTE   W01
 BYTE   EOT
 BYTE   Fs1
 BYTE   W23
 BYTE   PATT
  POIN2 Label_4_016FADBF
// 019   ----------------------------------------
 BYTE   GoTo
  POIN2 Label_4_016FADC7
// 020   ----------------------------------------
 BYTE   W11
 BYTE   FINE

//**************** Track 6 (Midi-Chn.5) ****************//

FE04ArmyofGrannvale2SurfingKyogre_006:
// 000   ----------------------------------------
 BYTE   KEYSH   FE04ArmyofGrannvale2SurfingKyogre_key+0
 BYTE   PAN   c_v+0
 BYTE   VOL   20*FE04ArmyofGrannvale2SurfingKyogre_mvl/mxv
 BYTE   MOD 0
 BYTE   CnM2
 BYTE   BEND   c_v+0
 BYTE   W04
 BYTE   VOICE   47
 BYTE   PAN   c_v+0
 BYTE   VOL   50*FE04ArmyofGrannvale2SurfingKyogre_mvl/mxv
 BYTE   W92
// 001   ----------------------------------------
 BYTE   W40
 BYTE   N06  Fn1  v127
 BYTE   W06
 BYTE   N06
 BYTE   W06
 BYTE   N72
 BYTE   W44
// 002   ----------------------------------------
 BYTE   W88
 BYTE   N12
 BYTE   W08
// 003   ----------------------------------------
Label_5_016FA826:
 BYTE   W16
 BYTE   N12  Fn1  v127
 BYTE   W24
 BYTE   N12
 BYTE   W12
 BYTE   N06  Fn1  v108
 BYTE   W06
 BYTE   N06
 BYTE   W06
 BYTE   Fn1  v088
 BYTE   W06
 BYTE   N06
 BYTE   W18
 BYTE   N12  Fn1  v127
 BYTE   W08
 BYTE   PEND 
// 004   ----------------------------------------
Label_5_016FA83D:
 BYTE   W16
 BYTE   N12  Fn1  v127
 BYTE   W12
 BYTE   N06  Fn1  v108
 BYTE   W06
 BYTE   N06
 BYTE   W06
 BYTE   Fn1  v088
 BYTE   W06
 BYTE   N06
 BYTE   W18
 BYTE   N12  Fn1  v127
 BYTE   W24
 BYTE   N12
 BYTE   W08
 BYTE   PEND 
// 005   ----------------------------------------
Label_5_016FA854:
 BYTE   W04
 BYTE   N06  Fn1  v108
 BYTE   W06
 BYTE   N06
 BYTE   W06
 BYTE   Fn1  v088
 BYTE   W06
 BYTE   N06
 BYTE   W18
 BYTE   N12  Fn1  v127
 BYTE   W24
 BYTE   N12
 BYTE   W12
 BYTE   N06  Fn1  v108
 BYTE   W06
 BYTE   N06
 BYTE   W06
 BYTE   Fn1  v088
 BYTE   W06
 BYTE   N06
 BYTE   W02
 BYTE   PEND 
 BYTE   PATT
  POIN2 Label_5_016FA826
 BYTE   PATT
  POIN2 Label_5_016FA83D
 BYTE   PATT
  POIN2 Label_5_016FA854
// 006   ----------------------------------------
 BYTE   W12
Label_5_016FA882:
 BYTE   W04
 BYTE   N12  Fn1  v127
 BYTE   W24
 BYTE   N12
 BYTE   W12
 BYTE   N06  Fn1  v108
 BYTE   W06
 BYTE   N06
 BYTE   W06
 BYTE   Fn1  v088
 BYTE   W06
 BYTE   N06
 BYTE   W18
 BYTE   N12  Fn1  v127
 BYTE   W08
 BYTE   PATT
  POIN2 Label_5_016FA83D
 BYTE   PATT
  POIN2 Label_5_016FA854
 BYTE   PATT
  POIN2 Label_5_016FA826
 BYTE   PATT
  POIN2 Label_5_016FA83D
 BYTE   PATT
  POIN2 Label_5_016FA854
 BYTE   PATT
  POIN2 Label_5_016FA826
 BYTE   PATT
  POIN2 Label_5_016FA83D
 BYTE   PATT
  POIN2 Label_5_016FA854
 BYTE   PATT
  POIN2 Label_5_016FA826
 BYTE   PATT
  POIN2 Label_5_016FA83D
 BYTE   PATT
  POIN2 Label_5_016FA854
 BYTE   PATT
  POIN2 Label_5_016FA826
 BYTE   PATT
  POIN2 Label_5_016FA83D
 BYTE   PATT
  POIN2 Label_5_016FA854
 BYTE   PATT
  POIN2 Label_5_016FA826
 BYTE   PATT
  POIN2 Label_5_016FA83D
 BYTE   PATT
  POIN2 Label_5_016FA854
 BYTE   PATT
  POIN2 Label_5_016FA826
 BYTE   PATT
  POIN2 Label_5_016FA83D
 BYTE   PATT
  POIN2 Label_5_016FA854
 BYTE   PATT
  POIN2 Label_5_016FA826
 BYTE   PATT
  POIN2 Label_5_016FA83D
 BYTE   PATT
  POIN2 Label_5_016FA854
// 007   ----------------------------------------
 BYTE   W12
 BYTE   GoTo
  POIN2 Label_5_016FA882
// 008   ----------------------------------------
 BYTE   W11
 BYTE   FINE

//**************** Track 7 (Midi-Chn.6) ****************//

FE04ArmyofGrannvale2SurfingKyogre_007:
// 000   ----------------------------------------
 BYTE   KEYSH   FE04ArmyofGrannvale2SurfingKyogre_key+0
 BYTE   PAN   c_v+0
 BYTE   VOL   20*FE04ArmyofGrannvale2SurfingKyogre_mvl/mxv
 BYTE   MOD 0
 BYTE   CnM2
 BYTE   BEND   c_v+0
 BYTE   W04
 BYTE   VOICE   121
 BYTE   VOL   35*FE04ArmyofGrannvale2SurfingKyogre_mvl/mxv
 BYTE   W92
// 001   ----------------------------------------
 BYTE   W96
// 002   ----------------------------------------
 BYTE   W96
// 003   ----------------------------------------
Label_6_016FAE9A:
 BYTE   W04
 BYTE   N01  Dn1  v127
 BYTE   W12
 BYTE   Dn1  v088
 BYTE   W06
 BYTE   N01
 BYTE   W06
 BYTE   Dn1  v127
 BYTE   W12
 BYTE   Dn1  v088
 BYTE   W06
 BYTE   N01
 BYTE   W06
 BYTE   N01
 BYTE   W06
 BYTE   N01
 BYTE   W06
 BYTE   N01
 BYTE   W06
 BYTE   N01
 BYTE   W06
 BYTE   Dn1  v127
 BYTE   W12
 BYTE   Dn1  v088
 BYTE   W06
 BYTE   N01
 BYTE   W02
 BYTE   PEND 
// 004   ----------------------------------------
Label_6_016FAEBD:
 BYTE   W04
 BYTE   N01  Dn1  v127
 BYTE   W12
 BYTE   Dn1  v088
 BYTE   W06
 BYTE   N01
 BYTE   W06
 BYTE   N01
 BYTE   W06
 BYTE   N01
 BYTE   W06
 BYTE   N01
 BYTE   W06
 BYTE   N01
 BYTE   W06
 BYTE   Dn1  v127
 BYTE   W12
 BYTE   Dn1  v088
 BYTE   W06
 BYTE   N01
 BYTE   W06
 BYTE   Dn1  v127
 BYTE   W12
 BYTE   Dn1  v088
 BYTE   W06
 BYTE   N01
 BYTE   W02
 BYTE   PEND 
// 005   ----------------------------------------
Label_6_016FAEE0:
 BYTE   W04
 BYTE   N01  Dn1  v088
 BYTE   W06
 BYTE   N01
 BYTE   W06
 BYTE   N01
 BYTE   W06
 BYTE   N01
 BYTE   W06
 BYTE   Dn1  v127
 BYTE   W12
 BYTE   Dn1  v088
 BYTE   W06
 BYTE   N01
 BYTE   W06
 BYTE   Dn1  v127
 BYTE   W12
 BYTE   Dn1  v088
 BYTE   W06
 BYTE   N01
 BYTE   W06
 BYTE   N01
 BYTE   W06
 BYTE   N01
 BYTE   W06
 BYTE   N01
 BYTE   W06
 BYTE   N01
 BYTE   W02
 BYTE   PEND 
 BYTE   PATT
  POIN2 Label_6_016FAE9A
 BYTE   PATT
  POIN2 Label_6_016FAEBD
 BYTE   PATT
  POIN2 Label_6_016FAEE0
// 006   ----------------------------------------
 BYTE   W04
 BYTE   N01  Dn1  v127
 BYTE   W08
Label_6_016FAF18:
 BYTE   W04
 BYTE   N01  Dn1  v088
 BYTE   W06
 BYTE   N01
 BYTE   W06
 BYTE   Dn1  v127
 BYTE   W12
 BYTE   Dn1  v088
 BYTE   W06
 BYTE   N01
 BYTE   W06
 BYTE   N01
 BYTE   W06
 BYTE   N01
 BYTE   W06
 BYTE   N01
 BYTE   W06
 BYTE   N01
 BYTE   W06
 BYTE   Dn1  v127
 BYTE   W12
 BYTE   Dn1  v088
 BYTE   W06
 BYTE   N01
 BYTE   W02
 BYTE   PATT
  POIN2 Label_6_016FAEBD
 BYTE   PATT
  POIN2 Label_6_016FAEE0
 BYTE   PATT
  POIN2 Label_6_016FAE9A
 BYTE   PATT
  POIN2 Label_6_016FAEBD
 BYTE   PATT
  POIN2 Label_6_016FAEE0
 BYTE   PATT
  POIN2 Label_6_016FAE9A
 BYTE   PATT
  POIN2 Label_6_016FAEBD
 BYTE   PATT
  POIN2 Label_6_016FAEE0
 BYTE   PATT
  POIN2 Label_6_016FAE9A
 BYTE   PATT
  POIN2 Label_6_016FAEBD
 BYTE   PATT
  POIN2 Label_6_016FAEE0
 BYTE   PATT
  POIN2 Label_6_016FAE9A
 BYTE   PATT
  POIN2 Label_6_016FAEBD
 BYTE   PATT
  POIN2 Label_6_016FAEE0
 BYTE   PATT
  POIN2 Label_6_016FAE9A
 BYTE   PATT
  POIN2 Label_6_016FAEBD
 BYTE   PATT
  POIN2 Label_6_016FAEE0
 BYTE   PATT
  POIN2 Label_6_016FAE9A
 BYTE   PATT
  POIN2 Label_6_016FAEBD
 BYTE   PATT
  POIN2 Label_6_016FAEE0
 BYTE   PATT
  POIN2 Label_6_016FAE9A
 BYTE   PATT
  POIN2 Label_6_016FAEBD
 BYTE   PATT
  POIN2 Label_6_016FAEE0
// 007   ----------------------------------------
 BYTE   W04
 BYTE   N01  Dn1  v127
 BYTE   W08
 BYTE   GoTo
  POIN2 Label_6_016FAF18
// 008   ----------------------------------------
 BYTE   W04
 BYTE   N01  Dn1  v088
 BYTE   W06
 BYTE   N01
 BYTE   W01
 BYTE   FINE

//******************************************************//
	ALIGN 4

FE04ArmyofGrannvale2SurfingKyogre:
	BYTE	7	// NumTrks
	BYTE	0	// NumBlks
	BYTE	FE04ArmyofGrannvale2SurfingKyogre_pri	// Priority
	BYTE	FE04ArmyofGrannvale2SurfingKyogre_rev	// Reverb.
    
	POIN2	FE04ArmyofGrannvale2SurfingKyogre_grp
    
	POIN2	FE04ArmyofGrannvale2SurfingKyogre_001
	POIN2	FE04ArmyofGrannvale2SurfingKyogre_002
	POIN2	FE04ArmyofGrannvale2SurfingKyogre_003
	POIN2	FE04ArmyofGrannvale2SurfingKyogre_004
	POIN2	FE04ArmyofGrannvale2SurfingKyogre_005
	POIN2	FE04ArmyofGrannvale2SurfingKyogre_006
	POIN2	FE04ArmyofGrannvale2SurfingKyogre_007

	
