//Event file generated from Sappy .s format.
	#include "MPlayDef.event"

	#define	FE04CastleCapturedSurfingKyogre_grp  voicegroup000
	#define	FE04CastleCapturedSurfingKyogre_pri  0
	#define	FE04CastleCapturedSurfingKyogre_rev  0
	#define	FE04CastleCapturedSurfingKyogre_mvl  127
	#define	FE04CastleCapturedSurfingKyogre_key  0
	#define	FE04CastleCapturedSurfingKyogre_tbs  1
	#define	FE04CastleCapturedSurfingKyogre_exg  0
	#define	FE04CastleCapturedSurfingKyogre_cmp  1

	// .rodata
	//	FE04CastleCapturedSurfingKyogre
	ALIGN 4


//**************** Track 1 (Midi-Chn.0) ****************//

FE04CastleCapturedSurfingKyogre_001:
// 000   ----------------------------------------
 BYTE   KEYSH   FE04CastleCapturedSurfingKyogre_key+0
 BYTE   TEMPO   80*FE04CastleCapturedSurfingKyogre_tbs/2
 BYTE   PAN   c_v+0
 BYTE   VOL   20*FE04CastleCapturedSurfingKyogre_mvl/mxv
 BYTE   MOD 0
 BYTE   CnM2
 BYTE   BEND   c_v+0
 BYTE   W02
 BYTE   VOICE   57
 BYTE   PAN   c_v-14
 BYTE   VOL   50*FE04CastleCapturedSurfingKyogre_mvl/mxv
 BYTE   W12
 BYTE   N09  Gn3  v127
 BYTE   W12
 BYTE   Dn4
 BYTE   W12
 BYTE   N04  Cn4
 BYTE   W06
 BYTE   As3
 BYTE   W06
 BYTE   N09  Cn4
 BYTE   W12
 BYTE   An3
 BYTE   W12
 BYTE   En4
 BYTE   W12
 BYTE   N04  Dn4
 BYTE   W06
 BYTE   Cn4
 BYTE   W04
// 001   ----------------------------------------
 BYTE   W02
 BYTE   N44  Gn4
 BYTE   W54
 BYTE   W01
 BYTE   FINE

//**************** Track 2 (Midi-Chn.1) ****************//

FE04CastleCapturedSurfingKyogre_002:
// 000   ----------------------------------------
 BYTE   KEYSH   FE04CastleCapturedSurfingKyogre_key+0
 BYTE   PAN   c_v+0
 BYTE   VOL   20*FE04CastleCapturedSurfingKyogre_mvl/mxv
 BYTE   MOD 0
 BYTE   CnM2
 BYTE   BEND   c_v+0
 BYTE   W02
 BYTE   VOICE   60
 BYTE   PAN   c_v-34
 BYTE   VOL   50*FE04CastleCapturedSurfingKyogre_mvl/mxv
 BYTE   W12
 BYTE   N09  Gn3  v127
 BYTE   W12
 BYTE   Dn4
 BYTE   W12
 BYTE   N04  Cn4
 BYTE   W06
 BYTE   As3
 BYTE   W06
 BYTE   N09  Cn4
 BYTE   W12
 BYTE   An3
 BYTE   W12
 BYTE   En4
 BYTE   W12
 BYTE   N04  Dn4
 BYTE   W06
 BYTE   Cn4
 BYTE   W04
// 001   ----------------------------------------
 BYTE   W02
 BYTE   N44  Gn4
 BYTE   W54
 BYTE   W01
 BYTE   FINE

//**************** Track 3 (Midi-Chn.2) ****************//

FE04CastleCapturedSurfingKyogre_003:
// 000   ----------------------------------------
 BYTE   KEYSH   FE04CastleCapturedSurfingKyogre_key+0
 BYTE   PAN   c_v+0
 BYTE   VOL   20*FE04CastleCapturedSurfingKyogre_mvl/mxv
 BYTE   MOD 0
 BYTE   CnM2
 BYTE   BEND   c_v+0
 BYTE   W02
 BYTE   VOICE   57
 BYTE   PAN   c_v+14
 BYTE   VOL   50*FE04CastleCapturedSurfingKyogre_mvl/mxv
 BYTE   W12
 BYTE   N09  Dn3  v127
 BYTE   W12
 BYTE   Gn3
 BYTE   W12
 BYTE   N04  Fn3
 BYTE   W06
 BYTE   Ds3
 BYTE   W06
 BYTE   N09  Fn3
 BYTE   W12
 BYTE   Dn3
 BYTE   W12
 BYTE   An3
 BYTE   W12
 BYTE   N04  Gn3
 BYTE   W06
 BYTE   Fn3
 BYTE   W04
// 001   ----------------------------------------
 BYTE   W02
 BYTE   N44  En3
 BYTE   W54
 BYTE   W01
 BYTE   FINE

//**************** Track 4 (Midi-Chn.3) ****************//

FE04CastleCapturedSurfingKyogre_004:
// 000   ----------------------------------------
 BYTE   KEYSH   FE04CastleCapturedSurfingKyogre_key+0
 BYTE   PAN   c_v+0
 BYTE   VOL   20*FE04CastleCapturedSurfingKyogre_mvl/mxv
 BYTE   MOD 0
 BYTE   CnM2
 BYTE   BEND   c_v+0
 BYTE   W02
 BYTE   VOICE   60
 BYTE   PAN   c_v+31
 BYTE   VOL   50*FE04CastleCapturedSurfingKyogre_mvl/mxv
 BYTE   W12
 BYTE   N09  Dn3  v127
 BYTE   W12
 BYTE   Gn3
 BYTE   W12
 BYTE   N04  Fn3
 BYTE   W06
 BYTE   Ds3
 BYTE   W06
 BYTE   N09  Fn3
 BYTE   W12
 BYTE   Dn3
 BYTE   W12
 BYTE   An3
 BYTE   W12
 BYTE   N04  Gn3
 BYTE   W06
 BYTE   Fn3
 BYTE   W04
// 001   ----------------------------------------
 BYTE   W02
 BYTE   N44  En3
 BYTE   W54
 BYTE   W01
 BYTE   FINE

//**************** Track 5 (Midi-Chn.4) ****************//

FE04CastleCapturedSurfingKyogre_005:
// 000   ----------------------------------------
 BYTE   KEYSH   FE04CastleCapturedSurfingKyogre_key+0
 BYTE   PAN   c_v+0
 BYTE   VOL   20*FE04CastleCapturedSurfingKyogre_mvl/mxv
 BYTE   MOD 0
 BYTE   CnM2
 BYTE   BEND   c_v+0
 BYTE   W02
 BYTE   VOICE   60
 BYTE   PAN   c_v+0
 BYTE   VOL   50*FE04CastleCapturedSurfingKyogre_mvl/mxv
 BYTE   N42  Gn2  v127
 BYTE   W48
 BYTE   Fn2
 BYTE   W44
 BYTE   W02
// 001   ----------------------------------------
 BYTE   W02
 BYTE   N52  Gn2
 BYTE   W54
 BYTE   W01
 BYTE   FINE

//**************** Track 6 (Midi-Chn.5) ****************//

FE04CastleCapturedSurfingKyogre_006:
// 000   ----------------------------------------
 BYTE   KEYSH   FE04CastleCapturedSurfingKyogre_key+0
 BYTE   VOICE   121
 BYTE   PAN   c_v+0
 BYTE   VOL   20*FE04CastleCapturedSurfingKyogre_mvl/mxv
 BYTE   MOD 0
 BYTE   CnM2
 BYTE   BEND   c_v+0
 BYTE   W02
 BYTE   VOL   40*FE04CastleCapturedSurfingKyogre_mvl/mxv
 BYTE   N36  Dn1  v127
 BYTE   W36
 BYTE   N06  Dn1  v108
 BYTE   W06
 BYTE   Dn1  v127
 BYTE   W06
 BYTE   N36
 BYTE   W36
 BYTE   N06  Dn1  v108
 BYTE   W06
 BYTE   Dn1  v127
 BYTE   W04
// 001   ----------------------------------------
 BYTE   W02
 BYTE   N01  Dn1  v080
 BYTE   W02
 BYTE   N01
 BYTE   W01
 BYTE   Dn1  v088
 BYTE   W02
 BYTE   N01
 BYTE   W01
 BYTE   Dn1  v100
 BYTE   W02
 BYTE   N01
 BYTE   W01
 BYTE   Dn1  v108
 BYTE   W02
 BYTE   N01
 BYTE   W01
 BYTE   Dn1  v120
 BYTE   W02
 BYTE   N01
 BYTE   W01
 BYTE   Dn1  v127
 BYTE   W02
 BYTE   N01
 BYTE   W01
 BYTE   N02
 BYTE   W03
 BYTE   Dn1  v108
 BYTE   W02
 BYTE   N02
 BYTE   W03
 BYTE   N02
 BYTE   W02
 BYTE   Dn1  v127
 BYTE   W03
 BYTE   N02
 BYTE   W02
 BYTE   N02
 BYTE   W03
 BYTE   Dn1  v120
 BYTE   W02
 BYTE   N02
 BYTE   W02
 BYTE   N02
 BYTE   W02
 BYTE   Dn1  v127
 BYTE   W02
 BYTE   N02
 BYTE   W02
 BYTE   N02
 BYTE   W02
 BYTE   N02
 BYTE   W02
 BYTE   N05
 BYTE   W05
 BYTE   FINE

//******************************************************//
	ALIGN 4

FE04CastleCapturedSurfingKyogre:
	BYTE	6	// NumTrks
	BYTE	0	// NumBlks
	BYTE	FE04CastleCapturedSurfingKyogre_pri	// Priority
	BYTE	FE04CastleCapturedSurfingKyogre_rev	// Reverb.
    
	POIN2	FE04CastleCapturedSurfingKyogre_grp
    
	POIN2	FE04CastleCapturedSurfingKyogre_001
	POIN2	FE04CastleCapturedSurfingKyogre_002
	POIN2	FE04CastleCapturedSurfingKyogre_003
	POIN2	FE04CastleCapturedSurfingKyogre_004
	POIN2	FE04CastleCapturedSurfingKyogre_005
	POIN2	FE04CastleCapturedSurfingKyogre_006

	
