//Event file generated from Sappy .s format.
	#include "MPlayDef.event"

	#define	FE05VSVeldRSflame_grp  voicegroup000
	#define	FE05VSVeldRSflame_pri  0
	#define	FE05VSVeldRSflame_rev  0
	#define	FE05VSVeldRSflame_mvl  80
	#define	FE05VSVeldRSflame_key  0
	#define	FE05VSVeldRSflame_tbs  1
	#define	FE05VSVeldRSflame_exg  0
	#define	FE05VSVeldRSflame_cmp  1

	// .rodata
	//	FE05VSVeldRSflame
	ALIGN 4

//**************** Track 1 (Midi-Chn.3) ****************//

FE05VSVeldRSflame_1:
	BYTE	KEYSH   FE05VSVeldRSflame_key+0
// 000   ----------------------------------------
	BYTE	TEMPO   68*FE05VSVeldRSflame_tbs/2
	BYTE		VOICE   14
	BYTE	W96
// 001   ----------------------------------------
	BYTE	W07
	BYTE		VOL     75*FE05VSVeldRSflame_mvl/mxv
	BYTE		PAN     c_v-14
	BYTE	W02
	BYTE		N42     Gn3   v116
	BYTE	W48
	BYTE		        Ds3   v092
	BYTE	W36
	BYTE	W03
// 002   ----------------------------------------
	BYTE	W09
	BYTE		        Fn3   v108
	BYTE	W36
	BYTE	W03
FE05VSVeldRSflame_1_B1:
	BYTE	W09
	BYTE		N44     Cs3   v076
	BYTE	W22
	BYTE	TEMPO   67*FE05VSVeldRSflame_tbs/2
	BYTE	W01
	BYTE	TEMPO   65*FE05VSVeldRSflame_tbs/2
	BYTE	W01
	BYTE	TEMPO   64*FE05VSVeldRSflame_tbs/2
	BYTE	W01
	BYTE	TEMPO   63*FE05VSVeldRSflame_tbs/2
	BYTE	W01
	BYTE	TEMPO   61*FE05VSVeldRSflame_tbs/2
	BYTE	W01
	BYTE	TEMPO   60*FE05VSVeldRSflame_tbs/2
	BYTE	W01
	BYTE	TEMPO   59*FE05VSVeldRSflame_tbs/2
	BYTE	W01
	BYTE	TEMPO   57*FE05VSVeldRSflame_tbs/2
	BYTE	W01
	BYTE	TEMPO   56*FE05VSVeldRSflame_tbs/2
	BYTE	W01
	BYTE	TEMPO   55*FE05VSVeldRSflame_tbs/2
	BYTE	W01
	BYTE	TEMPO   53*FE05VSVeldRSflame_tbs/2
	BYTE	W01
	BYTE	TEMPO   52*FE05VSVeldRSflame_tbs/2
	BYTE	W01
	BYTE	TEMPO   51*FE05VSVeldRSflame_tbs/2
	BYTE	W01
	BYTE	TEMPO   49*FE05VSVeldRSflame_tbs/2
	BYTE	W01
	BYTE	TEMPO   48*FE05VSVeldRSflame_tbs/2
	BYTE	W01
	BYTE	TEMPO   47*FE05VSVeldRSflame_tbs/2
	BYTE	W01
	BYTE	TEMPO   45*FE05VSVeldRSflame_tbs/2
	BYTE	W01
// 003   ----------------------------------------
	BYTE	TEMPO   44*FE05VSVeldRSflame_tbs/2
	BYTE	W01
	BYTE	TEMPO   43*FE05VSVeldRSflame_tbs/2
	BYTE	W01
	BYTE	TEMPO   41*FE05VSVeldRSflame_tbs/2
	BYTE	W01
	BYTE	TEMPO   40*FE05VSVeldRSflame_tbs/2
	BYTE	W01
	BYTE	TEMPO   39*FE05VSVeldRSflame_tbs/2
	BYTE	W01
	BYTE	TEMPO   37*FE05VSVeldRSflame_tbs/2
	BYTE	W01
	BYTE	TEMPO   36*FE05VSVeldRSflame_tbs/2
	BYTE	W01
	BYTE	TEMPO   39*FE05VSVeldRSflame_tbs/2
	BYTE		VOL     75*FE05VSVeldRSflame_mvl/mxv
	BYTE		PAN     c_v-14
	BYTE		        c_v-25
	BYTE		VOL     50*FE05VSVeldRSflame_mvl/mxv
	BYTE	W01
	BYTE	TEMPO   45*FE05VSVeldRSflame_tbs/2
	BYTE		        51*FE05VSVeldRSflame_mvl/mxv
	BYTE	W01
	BYTE	TEMPO   51*FE05VSVeldRSflame_tbs/2
	BYTE	W01
	BYTE	TEMPO   57*FE05VSVeldRSflame_tbs/2
	BYTE		        52*FE05VSVeldRSflame_mvl/mxv
	BYTE	W01
	BYTE	TEMPO   64*FE05VSVeldRSflame_tbs/2
	BYTE		N44     Bn2   v108
	BYTE	W01
	BYTE	TEMPO   70*FE05VSVeldRSflame_tbs/2
	BYTE		VOL     53*FE05VSVeldRSflame_mvl/mxv
	BYTE	W01
	BYTE	TEMPO   73*FE05VSVeldRSflame_tbs/2
	BYTE	W01
	BYTE		        54*FE05VSVeldRSflame_mvl/mxv
	BYTE	W02
	BYTE		        55*FE05VSVeldRSflame_mvl/mxv
	BYTE	W02
	BYTE		        56*FE05VSVeldRSflame_mvl/mxv
	BYTE	W01
	BYTE		        57*FE05VSVeldRSflame_mvl/mxv
	BYTE	W02
	BYTE		        58*FE05VSVeldRSflame_mvl/mxv
	BYTE	W02
	BYTE		        59*FE05VSVeldRSflame_mvl/mxv
	BYTE	W02
	BYTE		        60*FE05VSVeldRSflame_mvl/mxv
	BYTE	W02
	BYTE		        61*FE05VSVeldRSflame_mvl/mxv
	BYTE	W02
	BYTE		        62*FE05VSVeldRSflame_mvl/mxv
	BYTE	W02
	BYTE		        63*FE05VSVeldRSflame_mvl/mxv
	BYTE	W02
	BYTE		        64*FE05VSVeldRSflame_mvl/mxv
	BYTE	W02
	BYTE		        65*FE05VSVeldRSflame_mvl/mxv
	BYTE	W02
	BYTE		        66*FE05VSVeldRSflame_mvl/mxv
	BYTE	W02
	BYTE		        67*FE05VSVeldRSflame_mvl/mxv
	BYTE	W02
	BYTE		        68*FE05VSVeldRSflame_mvl/mxv
	BYTE	W02
	BYTE		        69*FE05VSVeldRSflame_mvl/mxv
	BYTE	W01
	BYTE		        70*FE05VSVeldRSflame_mvl/mxv
	BYTE	W02
	BYTE		        71*FE05VSVeldRSflame_mvl/mxv
	BYTE	W02
	BYTE		        72*FE05VSVeldRSflame_mvl/mxv
	BYTE	W02
	BYTE		        73*FE05VSVeldRSflame_mvl/mxv
	BYTE	W02
	BYTE		        74*FE05VSVeldRSflame_mvl/mxv
	BYTE	W02
	BYTE		        75*FE05VSVeldRSflame_mvl/mxv
	BYTE	W05
	BYTE		N92     Gn3   v096
	BYTE	W36
	BYTE	W01
// 004   ----------------------------------------
	BYTE	W56
	BYTE	W03
	BYTE		N42     Fs3   v108
	BYTE	W36
	BYTE	W01
// 005   ----------------------------------------
	BYTE	W11
	BYTE		N68     En3   v104
	BYTE	W72
	BYTE		N23     Bn3   v092
	BYTE	W13
// 006   ----------------------------------------
	BYTE	W11
	BYTE		TIE     An3   v108
	BYTE	W84
	BYTE	W01
// 007   ----------------------------------------
	BYTE	W56
	BYTE	W01
	BYTE		EOT   
	BYTE	W02
	BYTE		N44     Gn3   v116
	BYTE	W36
	BYTE	W01
// 008   ----------------------------------------
	BYTE	W08
	BYTE	TEMPO   73*FE05VSVeldRSflame_tbs/2
	BYTE	W01
	BYTE	TEMPO   72*FE05VSVeldRSflame_tbs/2
	BYTE	W01
	BYTE	TEMPO   72*FE05VSVeldRSflame_tbs/2
	BYTE	W01
	BYTE	TEMPO   72*FE05VSVeldRSflame_tbs/2
	BYTE		N23     En3   v124
	BYTE	W01
	BYTE	TEMPO   72*FE05VSVeldRSflame_tbs/2
	BYTE	W01
	BYTE	TEMPO   72*FE05VSVeldRSflame_tbs/2
	BYTE	W01
	BYTE	TEMPO   72*FE05VSVeldRSflame_tbs/2
	BYTE	W01
	BYTE	TEMPO   72*FE05VSVeldRSflame_tbs/2
	BYTE	W01
	BYTE	TEMPO   71*FE05VSVeldRSflame_tbs/2
	BYTE	W01
	BYTE	TEMPO   71*FE05VSVeldRSflame_tbs/2
	BYTE	W01
	BYTE	TEMPO   71*FE05VSVeldRSflame_tbs/2
	BYTE	W01
	BYTE	TEMPO   71*FE05VSVeldRSflame_tbs/2
	BYTE	W01
	BYTE	TEMPO   71*FE05VSVeldRSflame_tbs/2
	BYTE	W01
	BYTE	TEMPO   71*FE05VSVeldRSflame_tbs/2
	BYTE	W01
	BYTE	TEMPO   70*FE05VSVeldRSflame_tbs/2
	BYTE	W01
	BYTE	TEMPO   70*FE05VSVeldRSflame_tbs/2
	BYTE	W01
	BYTE	TEMPO   70*FE05VSVeldRSflame_tbs/2
	BYTE	W01
	BYTE	TEMPO   70*FE05VSVeldRSflame_tbs/2
	BYTE	W01
	BYTE	TEMPO   70*FE05VSVeldRSflame_tbs/2
	BYTE	W01
	BYTE	TEMPO   70*FE05VSVeldRSflame_tbs/2
	BYTE	W01
	BYTE	TEMPO   70*FE05VSVeldRSflame_tbs/2
	BYTE	W01
	BYTE	TEMPO   69*FE05VSVeldRSflame_tbs/2
	BYTE	W01
	BYTE	TEMPO   69*FE05VSVeldRSflame_tbs/2
	BYTE	W01
	BYTE	TEMPO   69*FE05VSVeldRSflame_tbs/2
	BYTE	W01
	BYTE	TEMPO   69*FE05VSVeldRSflame_tbs/2
	BYTE	W01
	BYTE	TEMPO   69*FE05VSVeldRSflame_tbs/2
	BYTE	W01
	BYTE	TEMPO   69*FE05VSVeldRSflame_tbs/2
	BYTE	W01
	BYTE	TEMPO   68*FE05VSVeldRSflame_tbs/2
	BYTE		N18     Fs3   v116
	BYTE	W01
	BYTE	TEMPO   68*FE05VSVeldRSflame_tbs/2
	BYTE	W01
	BYTE	TEMPO   68*FE05VSVeldRSflame_tbs/2
	BYTE	W01
	BYTE	TEMPO   68*FE05VSVeldRSflame_tbs/2
	BYTE	W01
	BYTE	TEMPO   68*FE05VSVeldRSflame_tbs/2
	BYTE	W01
	BYTE	TEMPO   68*FE05VSVeldRSflame_tbs/2
	BYTE	W01
	BYTE	TEMPO   67*FE05VSVeldRSflame_tbs/2
	BYTE	W01
	BYTE	TEMPO   67*FE05VSVeldRSflame_tbs/2
	BYTE	W01
	BYTE	TEMPO   67*FE05VSVeldRSflame_tbs/2
	BYTE	W01
	BYTE	TEMPO   67*FE05VSVeldRSflame_tbs/2
	BYTE	W01
	BYTE	TEMPO   67*FE05VSVeldRSflame_tbs/2
	BYTE	W01
	BYTE	TEMPO   67*FE05VSVeldRSflame_tbs/2
	BYTE	W01
	BYTE	TEMPO   67*FE05VSVeldRSflame_tbs/2
	BYTE	W01
	BYTE	GoTo
	 POIN2	FE05VSVeldRSflame_1_B1
FE05VSVeldRSflame_1_B2:
	BYTE	TEMPO   66*FE05VSVeldRSflame_tbs/2
	BYTE	W01
	BYTE	TEMPO   66*FE05VSVeldRSflame_tbs/2
	BYTE	W01
	BYTE	TEMPO   66*FE05VSVeldRSflame_tbs/2
	BYTE	W01
	BYTE	TEMPO   66*FE05VSVeldRSflame_tbs/2
	BYTE	W01
	BYTE	TEMPO   66*FE05VSVeldRSflame_tbs/2
	BYTE	W01
	BYTE	TEMPO   66*FE05VSVeldRSflame_tbs/2
	BYTE	W01
	BYTE	TEMPO   65*FE05VSVeldRSflame_tbs/2
	BYTE	W01
	BYTE	TEMPO   65*FE05VSVeldRSflame_tbs/2
	BYTE	W40
	BYTE	W01
// 009   ----------------------------------------
	BYTE	FINE

//**************** Track 2 (Midi-Chn.4) ****************//

FE05VSVeldRSflame_2:
	BYTE	KEYSH   FE05VSVeldRSflame_key+0
// 000   ----------------------------------------
	BYTE		VOICE   14
	BYTE	W96
// 001   ----------------------------------------
	BYTE	W07
	BYTE		VOL     85*FE05VSVeldRSflame_mvl/mxv
	BYTE		PAN     c_v-25
	BYTE		N40     Bn2   v092
	BYTE	W48
	BYTE		        Gn2   v064
	BYTE	W40
	BYTE	W01
// 002   ----------------------------------------
	BYTE	W07
	BYTE		        Gs2   v084
	BYTE	W40
	BYTE	W01
FE05VSVeldRSflame_2_B1:
	BYTE	W07
	BYTE		N44     Fn2   v064
	BYTE	W40
	BYTE	W01
// 003   ----------------------------------------
	BYTE	W07
	BYTE		VOL     85*FE05VSVeldRSflame_mvl/mxv
	BYTE		PAN     c_v+14
	BYTE		        c_v-14
	BYTE	W48
	BYTE		N92     Gn2   v104
	BYTE	W40
	BYTE	W01
// 004   ----------------------------------------
	BYTE	W54
	BYTE	W01
	BYTE		N42     An2   v116
	BYTE	W40
	BYTE	W01
// 005   ----------------------------------------
	BYTE	W07
	BYTE		N23     Gn2   v108
	BYTE	W24
	BYTE		        Ds2   v124
	BYTE	W24
	BYTE		        En2 
	BYTE	W24
	BYTE		        Gn2   v092
	BYTE	W17
// 006   ----------------------------------------
	BYTE	W07
	BYTE		N44     En2   v104
	BYTE	W48
	BYTE		        Dn2   v116
	BYTE	W40
	BYTE	W01
// 007   ----------------------------------------
	BYTE	W07
	BYTE		        Gn2   v096
	BYTE	W48
	BYTE		        An2   v104
	BYTE	W40
	BYTE	W01
// 008   ----------------------------------------
	BYTE	W07
	BYTE		N40   
	BYTE	W40
	BYTE	W01
	BYTE	GoTo
	 POIN2	FE05VSVeldRSflame_2_B1
FE05VSVeldRSflame_2_B2:
	BYTE	W48
// 009   ----------------------------------------
	BYTE	FINE

//**************** Track 3 (Midi-Chn.5) ****************//

FE05VSVeldRSflame_3:
	BYTE	KEYSH   FE05VSVeldRSflame_key+0
// 000   ----------------------------------------
	BYTE		VOICE   1
	BYTE		VOL     127*FE05VSVeldRSflame_mvl/mxv
	BYTE	W96
// 001   ----------------------------------------
	BYTE	W07
	BYTE	W48
	BYTE		PAN     c_v+14
	BYTE		N02     Ds4   v064
	BYTE	W03
	BYTE		        Bn3 
	BYTE	W03
	BYTE		        Gn3 
	BYTE	W03
	BYTE		        Bn3 
	BYTE	W03
	BYTE		        Ds4 
	BYTE	W03
	BYTE		        Bn3 
	BYTE	W03
	BYTE		        Gn3 
	BYTE	W03
	BYTE		        Bn3 
	BYTE	W03
	BYTE		        Ds4 
	BYTE	W03
	BYTE		        Bn3 
	BYTE	W03
	BYTE		        Gn3 
	BYTE	W03
	BYTE		        Bn3 
	BYTE	W03
	BYTE		        Ds4 
	BYTE	W03
	BYTE		        Bn3 
	BYTE	W02
// 002   ----------------------------------------
	BYTE	W01
	BYTE		        Gn3 
	BYTE	W03
	BYTE		        Bn3 
	BYTE	W44
FE05VSVeldRSflame_3_B1:
	BYTE	W07
	BYTE		PAN     c_v+14
	BYTE		N02     An3   v064
	BYTE	W03
	BYTE		        Fn3 
	BYTE	W03
	BYTE		        Cs4 
	BYTE	W03
	BYTE		        Fn3 
	BYTE	W03
	BYTE		        An3 
	BYTE	W03
	BYTE		        Fn3 
	BYTE	W03
	BYTE		        Cs4 
	BYTE	W03
	BYTE		        Fn3 
	BYTE	W03
	BYTE		        An3 
	BYTE	W03
	BYTE		        Fn3 
	BYTE	W03
	BYTE		        Cs4 
	BYTE	W03
	BYTE		        Fn3 
	BYTE	W03
	BYTE		        An3 
	BYTE	W03
	BYTE		        Fn3 
	BYTE	W02
// 003   ----------------------------------------
	BYTE	W01
	BYTE		        Cs4 
	BYTE	W03
	BYTE		        Fn3 
	BYTE	W03
	BYTE		PAN     c_v+14
	BYTE		N02     Bn3   v076
	BYTE	W03
	BYTE		        Fs3   v072
	BYTE	W03
	BYTE		        Cs4   v076
	BYTE	W03
	BYTE		        Fs3   v072
	BYTE	W03
	BYTE		        Bn3   v076
	BYTE	W03
	BYTE		        Fs3   v072
	BYTE	W03
	BYTE		        Dn4   v076
	BYTE	W03
	BYTE		        Fs3   v072
	BYTE	W03
	BYTE		        Bn3   v076
	BYTE	W03
	BYTE		        Fs3   v072
	BYTE	W03
	BYTE		        Cs4   v076
	BYTE	W03
	BYTE		        Fs3   v072
	BYTE	W03
	BYTE		        Bn3   v076
	BYTE	W03
	BYTE		        Fs3   v072
	BYTE	W03
	BYTE		        Dn4   v076
	BYTE	W03
	BYTE		        Fs3   v072
	BYTE	W03
	BYTE		        Dn4   v084
	BYTE	W03
	BYTE		        Fs3   v076
	BYTE	W03
	BYTE		        En4   v084
	BYTE	W03
	BYTE		        Fs3   v076
	BYTE	W03
	BYTE		        Dn4   v084
	BYTE	W03
	BYTE		        Fs3   v076
	BYTE	W03
	BYTE		        Cs4   v084
	BYTE	W03
	BYTE		        Fs3   v076
	BYTE	W03
	BYTE		        Dn4   v084
	BYTE	W03
	BYTE		        Fs3   v076
	BYTE	W03
	BYTE		        En4   v084
	BYTE	W03
	BYTE		        Fs3   v076
	BYTE	W03
	BYTE		        Dn4   v084
	BYTE	W03
	BYTE		        Fs3   v076
	BYTE	W02
// 004   ----------------------------------------
	BYTE	W01
	BYTE		        Cs4   v084
	BYTE	W03
	BYTE		        Fs3   v076
	BYTE	W03
	BYTE		        Dn4   v084
	BYTE	W03
	BYTE		        Fs3   v076
	BYTE	W03
	BYTE		        En4   v084
	BYTE	W03
	BYTE		        Fs3   v076
	BYTE	W03
	BYTE		        Dn4   v084
	BYTE	W03
	BYTE		        Fs3   v076
	BYTE	W03
	BYTE		        Cs4   v084
	BYTE	W03
	BYTE		        Fs3   v076
	BYTE	W03
	BYTE		        Dn4   v084
	BYTE	W03
	BYTE		        Fs3   v076
	BYTE	W03
	BYTE		        En4   v084
	BYTE	W03
	BYTE		        Fs3   v076
	BYTE	W03
	BYTE		        Dn4   v084
	BYTE	W03
	BYTE		        Fs3   v076
	BYTE	W03
	BYTE		        Cs4   v084
	BYTE	W03
	BYTE		        Fs3   v076
	BYTE	W03
	BYTE		        Dn4   v084
	BYTE	W03
	BYTE		        Fs3   v076
	BYTE	W03
	BYTE		        En4   v084
	BYTE	W03
	BYTE		        Fs3   v076
	BYTE	W03
	BYTE		        Dn4   v084
	BYTE	W03
	BYTE		        Fs3   v076
	BYTE	W03
	BYTE		        Cs4   v084
	BYTE	W03
	BYTE		        Fs3   v076
	BYTE	W03
	BYTE		        Dn4   v084
	BYTE	W03
	BYTE		        Fs3   v076
	BYTE	W03
	BYTE		        En4   v084
	BYTE	W03
	BYTE		        Fs3   v076
	BYTE	W03
	BYTE		        Fs4   v084
	BYTE	W03
	BYTE		        Fs3   v076
	BYTE	W02
// 005   ----------------------------------------
	BYTE	W01
	BYTE		        Gn4   v084
	BYTE	W03
	BYTE		        Fs3   v076
	BYTE	W03
	BYTE		        Dn4   v084
	BYTE	W03
	BYTE		        Fs3   v076
	BYTE	W03
	BYTE		        En4   v084
	BYTE	W03
	BYTE		        Fs3   v076
	BYTE	W03
	BYTE		        Dn4   v084
	BYTE	W03
	BYTE		        Fs3   v076
	BYTE	W03
	BYTE		        Cs4   v084
	BYTE	W03
	BYTE		        Fs3   v076
	BYTE	W03
	BYTE		        Dn4   v084
	BYTE	W03
	BYTE		        Fs3   v076
	BYTE	W03
	BYTE		        En4   v084
	BYTE	W03
	BYTE		        Fs3   v076
	BYTE	W03
	BYTE		        Fs4   v084
	BYTE	W03
	BYTE		        Fs3   v076
	BYTE	W03
	BYTE		        Gn4   v084
	BYTE	W03
	BYTE		        Fs3   v076
	BYTE	W03
	BYTE		        Dn4   v084
	BYTE	W03
	BYTE		        Fs3   v076
	BYTE	W03
	BYTE		        Gn4   v084
	BYTE	W03
	BYTE		        Fs3   v076
	BYTE	W03
	BYTE		        Fs4   v084
	BYTE	W03
	BYTE		        Fs3   v076
	BYTE	W03
	BYTE		        Gn4   v084
	BYTE	W03
	BYTE		        Fs3   v076
	BYTE	W03
	BYTE		        Fs4   v084
	BYTE	W03
	BYTE		        Fs3   v076
	BYTE	W03
	BYTE		        Gn4   v084
	BYTE	W03
	BYTE		        Fs3   v076
	BYTE	W03
	BYTE		        Fs4   v084
	BYTE	W03
	BYTE		        Fs3   v076
	BYTE	W02
// 006   ----------------------------------------
	BYTE	W01
	BYTE		        Gn4   v084
	BYTE	W03
	BYTE		        Fs3   v076
	BYTE	W03
	BYTE		        Dn4   v084
	BYTE	W03
	BYTE		        Fs3   v076
	BYTE	W03
	BYTE		        Gn4   v084
	BYTE	W03
	BYTE		        Fs3   v076
	BYTE	W03
	BYTE		        Dn4   v084
	BYTE	W03
	BYTE		        Fs3   v076
	BYTE	W03
	BYTE		        En4   v084
	BYTE	W03
	BYTE		        Fs3   v076
	BYTE	W03
	BYTE		        Dn4   v084
	BYTE	W03
	BYTE		        Fs3   v076
	BYTE	W03
	BYTE		        En4   v084
	BYTE	W03
	BYTE		        Fs3   v076
	BYTE	W03
	BYTE		        Dn4   v084
	BYTE	W03
	BYTE		        Fs3   v076
	BYTE	W03
	BYTE		        Cs4   v084
	BYTE	W03
	BYTE		        Fs3   v076
	BYTE	W03
	BYTE		        Dn4   v084
	BYTE	W03
	BYTE		        Fs3   v076
	BYTE	W03
	BYTE		        En4   v084
	BYTE	W03
	BYTE		        Fs3   v076
	BYTE	W03
	BYTE		        Dn4   v084
	BYTE	W03
	BYTE		        Fs3   v076
	BYTE	W03
	BYTE		        Cs4   v084
	BYTE	W03
	BYTE		        Fs3   v076
	BYTE	W03
	BYTE		        Dn4   v084
	BYTE	W03
	BYTE		        Fs3   v076
	BYTE	W03
	BYTE		        En4   v084
	BYTE	W03
	BYTE		        Fs3   v076
	BYTE	W03
	BYTE		        Dn4   v084
	BYTE	W03
	BYTE		        Fs3   v076
	BYTE	W02
// 007   ----------------------------------------
	BYTE	W01
	BYTE		        An4   v084
	BYTE	W03
	BYTE		        Fs3   v076
	BYTE	W03
	BYTE		        Dn4   v084
	BYTE	W03
	BYTE		        Fs3   v076
	BYTE	W03
	BYTE		        En4   v084
	BYTE	W03
	BYTE		        Fs3   v076
	BYTE	W03
	BYTE		        Dn4   v084
	BYTE	W03
	BYTE		        Fs3   v076
	BYTE	W03
	BYTE		        An4   v084
	BYTE	W03
	BYTE		        Fs3   v076
	BYTE	W03
	BYTE		        Dn4   v084
	BYTE	W03
	BYTE		        Fs3   v076
	BYTE	W03
	BYTE		        En4   v084
	BYTE	W03
	BYTE		        Fs3   v076
	BYTE	W03
	BYTE		        Dn4   v084
	BYTE	W03
	BYTE		        Fs3   v076
	BYTE	W03
	BYTE		        Gn4   v084
	BYTE	W03
	BYTE		        Fs3   v076
	BYTE	W03
	BYTE		        Dn4   v084
	BYTE	W03
	BYTE		        Fs3   v076
	BYTE	W03
	BYTE		        En4   v084
	BYTE	W03
	BYTE		        Fs3   v076
	BYTE	W03
	BYTE		        Dn4   v084
	BYTE	W03
	BYTE		        Fs3   v076
	BYTE	W03
	BYTE		        Cs4   v084
	BYTE	W03
	BYTE		        Fs3   v076
	BYTE	W03
	BYTE		        Dn4   v084
	BYTE	W03
	BYTE		        Fs3   v076
	BYTE	W03
	BYTE		        En4   v084
	BYTE	W03
	BYTE		        Fs3   v076
	BYTE	W03
	BYTE		        Dn4   v084
	BYTE	W03
	BYTE		        Fs3   v076
	BYTE	W02
// 008   ----------------------------------------
	BYTE	W01
	BYTE		        Cs4   v084
	BYTE	W03
	BYTE		        Fs3   v076
	BYTE	W03
	BYTE		        Dn4   v084
	BYTE	W03
	BYTE		        Fs3   v076
	BYTE	W03
	BYTE		        En4   v084
	BYTE	W03
	BYTE		        Fs3   v076
	BYTE	W03
	BYTE		        Dn4   v084
	BYTE	W03
	BYTE		        Fs3   v076
	BYTE	W03
	BYTE		        Cs4   v084
	BYTE	W03
	BYTE		        Fs3   v076
	BYTE	W03
	BYTE		        Dn4   v084
	BYTE	W03
	BYTE		        Fs3   v076
	BYTE	W03
	BYTE		        En4   v084
	BYTE	W03
	BYTE		        Fs3   v076
	BYTE	W03
	BYTE		        Dn4   v084
	BYTE	W03
	BYTE		        Fs3   v076
	BYTE	W02
	BYTE	GoTo
	 POIN2	FE05VSVeldRSflame_3_B1
FE05VSVeldRSflame_3_B2:
	BYTE	W01
	BYTE		N02     Cs4   v084
	BYTE	W03
	BYTE		        Fs3   v076
	BYTE	W44
// 009   ----------------------------------------
	BYTE	FINE

//**************** Track 4 (Midi-Chn.6) ****************//

FE05VSVeldRSflame_4:
	BYTE	KEYSH   FE05VSVeldRSflame_key+0
// 000   ----------------------------------------
	BYTE	W96
// 001   ----------------------------------------
	BYTE	W07
	BYTE		VOICE   1
	BYTE		VOL     127*FE05VSVeldRSflame_mvl/mxv
	BYTE		PAN     c_v+0
	BYTE		N40     Bn1   v076
	BYTE	W88
	BYTE	W01
// 002   ----------------------------------------
	BYTE	W07
	BYTE		VOICE   1
	BYTE		VOL     127*FE05VSVeldRSflame_mvl/mxv
	BYTE		PAN     c_v+0
	BYTE		N40     Bn1   v052
	BYTE	W40
	BYTE	W01
FE05VSVeldRSflame_4_B1:
	BYTE	W48
// 003   ----------------------------------------
	BYTE	W07
	BYTE		VOL     51*FE05VSVeldRSflame_mvl/mxv
	BYTE		N92     Bn1   v092
	BYTE	W01
	BYTE		VOL     52*FE05VSVeldRSflame_mvl/mxv
	BYTE	W01
	BYTE		        54*FE05VSVeldRSflame_mvl/mxv
	BYTE	W01
	BYTE		        56*FE05VSVeldRSflame_mvl/mxv
	BYTE	W01
	BYTE		        57*FE05VSVeldRSflame_mvl/mxv
	BYTE	W01
	BYTE		        59*FE05VSVeldRSflame_mvl/mxv
	BYTE	W01
	BYTE		        60*FE05VSVeldRSflame_mvl/mxv
	BYTE	W01
	BYTE		        62*FE05VSVeldRSflame_mvl/mxv
	BYTE	W01
	BYTE		        64*FE05VSVeldRSflame_mvl/mxv
	BYTE	W01
	BYTE		        65*FE05VSVeldRSflame_mvl/mxv
	BYTE	W01
	BYTE		        67*FE05VSVeldRSflame_mvl/mxv
	BYTE	W01
	BYTE		        68*FE05VSVeldRSflame_mvl/mxv
	BYTE	W01
	BYTE		        70*FE05VSVeldRSflame_mvl/mxv
	BYTE	W01
	BYTE		        72*FE05VSVeldRSflame_mvl/mxv
	BYTE	W01
	BYTE		        73*FE05VSVeldRSflame_mvl/mxv
	BYTE	W01
	BYTE		        75*FE05VSVeldRSflame_mvl/mxv
	BYTE	W01
	BYTE		        76*FE05VSVeldRSflame_mvl/mxv
	BYTE	W01
	BYTE		        78*FE05VSVeldRSflame_mvl/mxv
	BYTE	W01
	BYTE		        80*FE05VSVeldRSflame_mvl/mxv
	BYTE	W01
	BYTE		        81*FE05VSVeldRSflame_mvl/mxv
	BYTE	W01
	BYTE		        83*FE05VSVeldRSflame_mvl/mxv
	BYTE	W01
	BYTE		        84*FE05VSVeldRSflame_mvl/mxv
	BYTE	W01
	BYTE		        86*FE05VSVeldRSflame_mvl/mxv
	BYTE	W01
	BYTE		        88*FE05VSVeldRSflame_mvl/mxv
	BYTE	W01
	BYTE		        89*FE05VSVeldRSflame_mvl/mxv
	BYTE	W01
	BYTE		        91*FE05VSVeldRSflame_mvl/mxv
	BYTE	W01
	BYTE		        93*FE05VSVeldRSflame_mvl/mxv
	BYTE	W01
	BYTE		        94*FE05VSVeldRSflame_mvl/mxv
	BYTE	W01
	BYTE		        96*FE05VSVeldRSflame_mvl/mxv
	BYTE	W01
	BYTE		        97*FE05VSVeldRSflame_mvl/mxv
	BYTE	W01
	BYTE		        99*FE05VSVeldRSflame_mvl/mxv
	BYTE	W01
	BYTE		        101*FE05VSVeldRSflame_mvl/mxv
	BYTE	W01
	BYTE		        102*FE05VSVeldRSflame_mvl/mxv
	BYTE	W01
	BYTE		        104*FE05VSVeldRSflame_mvl/mxv
	BYTE	W01
	BYTE		        105*FE05VSVeldRSflame_mvl/mxv
	BYTE	W01
	BYTE		        107*FE05VSVeldRSflame_mvl/mxv
	BYTE	W01
	BYTE		        109*FE05VSVeldRSflame_mvl/mxv
	BYTE	W01
	BYTE		        110*FE05VSVeldRSflame_mvl/mxv
	BYTE	W01
	BYTE		        112*FE05VSVeldRSflame_mvl/mxv
	BYTE	W01
	BYTE		        113*FE05VSVeldRSflame_mvl/mxv
	BYTE	W01
	BYTE		        115*FE05VSVeldRSflame_mvl/mxv
	BYTE	W01
	BYTE		        117*FE05VSVeldRSflame_mvl/mxv
	BYTE	W01
	BYTE		        118*FE05VSVeldRSflame_mvl/mxv
	BYTE	W01
	BYTE		        120*FE05VSVeldRSflame_mvl/mxv
	BYTE	W01
	BYTE		        121*FE05VSVeldRSflame_mvl/mxv
	BYTE	W01
	BYTE		        123*FE05VSVeldRSflame_mvl/mxv
	BYTE	W01
	BYTE		        125*FE05VSVeldRSflame_mvl/mxv
	BYTE	W01
	BYTE		        126*FE05VSVeldRSflame_mvl/mxv
	BYTE	W01
	BYTE		        127*FE05VSVeldRSflame_mvl/mxv
	BYTE	W40
	BYTE	W01
// 004   ----------------------------------------
	BYTE	W07
	BYTE		N90     An1   v096
	BYTE	W88
	BYTE	W01
// 005   ----------------------------------------
	BYTE	W07
	BYTE		N92     Gn1   v092
	BYTE	W88
	BYTE	W01
// 006   ----------------------------------------
	BYTE	W07
	BYTE		        Fs1   v096
	BYTE	W88
	BYTE	W01
// 007   ----------------------------------------
	BYTE	W07
	BYTE		N44     Bn1   v092
	BYTE	W48
	BYTE		        Cs2   v076
	BYTE	W40
	BYTE	W01
// 008   ----------------------------------------
	BYTE	W07
	BYTE		N23     Dn2 
	BYTE	W40
	BYTE	W01
	BYTE	GoTo
	 POIN2	FE05VSVeldRSflame_4_B1
FE05VSVeldRSflame_4_B2:
	BYTE	W48
// 009   ----------------------------------------
	BYTE	FINE

//**************** Track 5 (Midi-Chn.7) ****************//

FE05VSVeldRSflame_5:
	BYTE	KEYSH   FE05VSVeldRSflame_key+0
// 000   ----------------------------------------
	BYTE	W06
	BYTE	W90
// 001   ----------------------------------------
	BYTE	W07
	BYTE		VOICE   0
	BYTE		VOL     95*FE05VSVeldRSflame_mvl/mxv
	BYTE		PAN     c_v+14
	BYTE		N42     Ds3   v108
	BYTE	W48
	BYTE		        Bn2   v084
	BYTE	W40
	BYTE	W01
// 002   ----------------------------------------
	BYTE	W07
	BYTE		        Cn3   v104
	BYTE	W40
	BYTE	W01
FE05VSVeldRSflame_5_B1:
	BYTE	W07
	BYTE		N36     An2   v084
	BYTE	W36
	BYTE	W02
	BYTE		VOL     127*FE05VSVeldRSflame_mvl/mxv
	BYTE	W03
// 003   ----------------------------------------
	BYTE	W07
	BYTE		VOICE   0
	BYTE		VOL     95*FE05VSVeldRSflame_mvl/mxv
	BYTE		PAN     c_v+14
	BYTE		VOL     51*FE05VSVeldRSflame_mvl/mxv
	BYTE		N44     Fs2   v116
	BYTE	W01
	BYTE		VOL     52*FE05VSVeldRSflame_mvl/mxv
	BYTE	W01
	BYTE		        53*FE05VSVeldRSflame_mvl/mxv
	BYTE	W01
	BYTE		        54*FE05VSVeldRSflame_mvl/mxv
	BYTE	W01
	BYTE		        55*FE05VSVeldRSflame_mvl/mxv
	BYTE	W01
	BYTE		        56*FE05VSVeldRSflame_mvl/mxv
	BYTE	W01
	BYTE		        57*FE05VSVeldRSflame_mvl/mxv
	BYTE	W01
	BYTE		        58*FE05VSVeldRSflame_mvl/mxv
	BYTE	W01
	BYTE		        59*FE05VSVeldRSflame_mvl/mxv
	BYTE	W01
	BYTE		        60*FE05VSVeldRSflame_mvl/mxv
	BYTE	W01
	BYTE		        61*FE05VSVeldRSflame_mvl/mxv
	BYTE	W01
	BYTE		        62*FE05VSVeldRSflame_mvl/mxv
	BYTE	W01
	BYTE		        63*FE05VSVeldRSflame_mvl/mxv
	BYTE	W01
	BYTE		        64*FE05VSVeldRSflame_mvl/mxv
	BYTE	W01
	BYTE		        65*FE05VSVeldRSflame_mvl/mxv
	BYTE	W01
	BYTE		        66*FE05VSVeldRSflame_mvl/mxv
	BYTE	W01
	BYTE		        67*FE05VSVeldRSflame_mvl/mxv
	BYTE	W01
	BYTE		        68*FE05VSVeldRSflame_mvl/mxv
	BYTE	W01
	BYTE		        69*FE05VSVeldRSflame_mvl/mxv
	BYTE	W01
	BYTE		        70*FE05VSVeldRSflame_mvl/mxv
	BYTE	W01
	BYTE		        71*FE05VSVeldRSflame_mvl/mxv
	BYTE	W01
	BYTE		        72*FE05VSVeldRSflame_mvl/mxv
	BYTE	W01
	BYTE		        73*FE05VSVeldRSflame_mvl/mxv
	BYTE	W01
	BYTE		        74*FE05VSVeldRSflame_mvl/mxv
	BYTE	W01
	BYTE		        76*FE05VSVeldRSflame_mvl/mxv
	BYTE	W01
	BYTE		        77*FE05VSVeldRSflame_mvl/mxv
	BYTE	W01
	BYTE		        78*FE05VSVeldRSflame_mvl/mxv
	BYTE	W01
	BYTE		        79*FE05VSVeldRSflame_mvl/mxv
	BYTE	W01
	BYTE		        80*FE05VSVeldRSflame_mvl/mxv
	BYTE	W01
	BYTE		        81*FE05VSVeldRSflame_mvl/mxv
	BYTE	W01
	BYTE		        82*FE05VSVeldRSflame_mvl/mxv
	BYTE	W01
	BYTE		        83*FE05VSVeldRSflame_mvl/mxv
	BYTE	W01
	BYTE		        84*FE05VSVeldRSflame_mvl/mxv
	BYTE	W01
	BYTE		        85*FE05VSVeldRSflame_mvl/mxv
	BYTE	W01
	BYTE		        86*FE05VSVeldRSflame_mvl/mxv
	BYTE	W01
	BYTE		        87*FE05VSVeldRSflame_mvl/mxv
	BYTE	W01
	BYTE		        88*FE05VSVeldRSflame_mvl/mxv
	BYTE	W01
	BYTE		        89*FE05VSVeldRSflame_mvl/mxv
	BYTE	W01
	BYTE		        90*FE05VSVeldRSflame_mvl/mxv
	BYTE	W01
	BYTE		        91*FE05VSVeldRSflame_mvl/mxv
	BYTE	W01
	BYTE		        92*FE05VSVeldRSflame_mvl/mxv
	BYTE	W01
	BYTE		        93*FE05VSVeldRSflame_mvl/mxv
	BYTE	W01
	BYTE		        94*FE05VSVeldRSflame_mvl/mxv
	BYTE	W01
	BYTE		        95*FE05VSVeldRSflame_mvl/mxv
	BYTE	W01
	BYTE		        96*FE05VSVeldRSflame_mvl/mxv
	BYTE	W01
	BYTE		        97*FE05VSVeldRSflame_mvl/mxv
	BYTE	W01
	BYTE		        98*FE05VSVeldRSflame_mvl/mxv
	BYTE	W01
	BYTE		        99*FE05VSVeldRSflame_mvl/mxv
	BYTE	W01
	BYTE		        100*FE05VSVeldRSflame_mvl/mxv
	BYTE		N44     Dn3   v108
	BYTE	W40
	BYTE	W01
// 004   ----------------------------------------
	BYTE	W07
	BYTE		N92     Cs3 
	BYTE	W88
	BYTE	W01
// 005   ----------------------------------------
	BYTE	W07
	BYTE		N90     Bn2   v096
	BYTE	W88
	BYTE	W01
// 006   ----------------------------------------
	BYTE	W07
	BYTE		        An2   v116
	BYTE	W88
	BYTE	W01
// 007   ----------------------------------------
	BYTE	W07
	BYTE		N44     Dn3   v104
	BYTE	W48
	BYTE		        Cs3 
	BYTE	W40
	BYTE	W01
// 008   ----------------------------------------
	BYTE	W07
	BYTE		N42     Dn3 
	BYTE	W40
	BYTE	W01
	BYTE	GoTo
	 POIN2	FE05VSVeldRSflame_5_B1
FE05VSVeldRSflame_5_B2:
	BYTE	W48
// 009   ----------------------------------------
	BYTE	FINE

//**************** Track 6 (Midi-Chn.8) ****************//

FE05VSVeldRSflame_6:
	BYTE	KEYSH   FE05VSVeldRSflame_key+0
// 000   ----------------------------------------
	BYTE		VOICE   1
	BYTE	W06
	BYTE		VOL     107*FE05VSVeldRSflame_mvl/mxv
	BYTE		PAN     c_v+14
	BYTE		VOL     75*FE05VSVeldRSflame_mvl/mxv
	BYTE		PAN     c_v+15
	BYTE		N02     Dn4   v076
	BYTE	W01
	BYTE		VOL     76*FE05VSVeldRSflame_mvl/mxv
	BYTE		PAN     c_v+16
	BYTE	W01
	BYTE		VOL     77*FE05VSVeldRSflame_mvl/mxv
	BYTE		PAN     c_v+17
	BYTE	W01
	BYTE		VOL     78*FE05VSVeldRSflame_mvl/mxv
	BYTE		PAN     c_v+18
	BYTE		N02     Fs3   v072
	BYTE	W01
	BYTE		VOL     79*FE05VSVeldRSflame_mvl/mxv
	BYTE		PAN     c_v+19
	BYTE	W01
	BYTE		        c_v+20
	BYTE		VOL     80*FE05VSVeldRSflame_mvl/mxv
	BYTE		PAN     c_v+21
	BYTE	W01
	BYTE		VOL     81*FE05VSVeldRSflame_mvl/mxv
	BYTE		PAN     c_v+22
	BYTE		N02     En4   v076
	BYTE	W01
	BYTE		VOL     82*FE05VSVeldRSflame_mvl/mxv
	BYTE		PAN     c_v+23
	BYTE	W01
	BYTE		        c_v+24
	BYTE		VOL     83*FE05VSVeldRSflame_mvl/mxv
	BYTE	W01
	BYTE		PAN     c_v+25
	BYTE		N02     Fs3   v072
	BYTE	W01
	BYTE		VOL     84*FE05VSVeldRSflame_mvl/mxv
	BYTE		PAN     c_v+27
	BYTE	W01
	BYTE		VOL     85*FE05VSVeldRSflame_mvl/mxv
	BYTE		PAN     c_v+28
	BYTE	W01
	BYTE		VOL     86*FE05VSVeldRSflame_mvl/mxv
	BYTE		PAN     c_v+29
	BYTE		N02     Dn4   v076
	BYTE	W01
	BYTE		VOL     87*FE05VSVeldRSflame_mvl/mxv
	BYTE		PAN     c_v+30
	BYTE	W01
	BYTE		        c_v+31
	BYTE		VOL     88*FE05VSVeldRSflame_mvl/mxv
	BYTE		PAN     c_v+32
	BYTE	W01
	BYTE		VOL     89*FE05VSVeldRSflame_mvl/mxv
	BYTE		PAN     c_v+33
	BYTE		N02     Fs3   v072
	BYTE	W01
	BYTE		VOL     90*FE05VSVeldRSflame_mvl/mxv
	BYTE		PAN     c_v+34
	BYTE	W01
	BYTE		        c_v+35
	BYTE		VOL     91*FE05VSVeldRSflame_mvl/mxv
	BYTE	W01
	BYTE		PAN     c_v+36
	BYTE		N02     Cs4   v076
	BYTE	W01
	BYTE		VOL     92*FE05VSVeldRSflame_mvl/mxv
	BYTE		PAN     c_v+38
	BYTE	W01
	BYTE		VOL     93*FE05VSVeldRSflame_mvl/mxv
	BYTE		PAN     c_v+39
	BYTE	W01
	BYTE		VOL     94*FE05VSVeldRSflame_mvl/mxv
	BYTE		PAN     c_v+40
	BYTE		N02     Fs3   v072
	BYTE	W01
	BYTE		VOL     95*FE05VSVeldRSflame_mvl/mxv
	BYTE		PAN     c_v+41
	BYTE	W01
	BYTE		        c_v+42
	BYTE		VOL     96*FE05VSVeldRSflame_mvl/mxv
	BYTE	W01
	BYTE		PAN     c_v+43
	BYTE		VOL     97*FE05VSVeldRSflame_mvl/mxv
	BYTE		PAN     c_v+42
	BYTE		N02     Dn4   v076
	BYTE	W01
	BYTE		PAN     c_v+41
	BYTE		VOL     98*FE05VSVeldRSflame_mvl/mxv
	BYTE		PAN     c_v+40
	BYTE	W01
	BYTE		        c_v+39
	BYTE		VOL     99*FE05VSVeldRSflame_mvl/mxv
	BYTE	W01
	BYTE		PAN     c_v+37
	BYTE		N02     Fs3   v072
	BYTE	W01
	BYTE		VOL     100*FE05VSVeldRSflame_mvl/mxv
	BYTE		PAN     c_v+35
	BYTE	W01
	BYTE		VOL     101*FE05VSVeldRSflame_mvl/mxv
	BYTE		PAN     c_v+33
	BYTE	W01
	BYTE		VOL     102*FE05VSVeldRSflame_mvl/mxv
	BYTE		PAN     c_v+31
	BYTE		N02     En4   v076
	BYTE	W01
	BYTE		VOL     103*FE05VSVeldRSflame_mvl/mxv
	BYTE		PAN     c_v+30
	BYTE	W01
	BYTE		        c_v+29
	BYTE		VOL     104*FE05VSVeldRSflame_mvl/mxv
	BYTE		PAN     c_v+28
	BYTE	W01
	BYTE		        c_v+27
	BYTE		VOL     105*FE05VSVeldRSflame_mvl/mxv
	BYTE		PAN     c_v+26
	BYTE		N02     Fs3   v072
	BYTE	W01
	BYTE		PAN     c_v+25
	BYTE		VOL     106*FE05VSVeldRSflame_mvl/mxv
	BYTE		PAN     c_v+24
	BYTE	W01
	BYTE		        c_v+23
	BYTE		VOL     107*FE05VSVeldRSflame_mvl/mxv
	BYTE		PAN     c_v+22
	BYTE	W01
	BYTE		        c_v+21
	BYTE		N02     Dn4   v076
	BYTE	W01
	BYTE		PAN     c_v+19
	BYTE	W01
	BYTE		        c_v+17
	BYTE	W01
	BYTE		        c_v+15
	BYTE		N02     Fs3   v072
	BYTE	W01
	BYTE		PAN     c_v+13
	BYTE	W01
	BYTE		        c_v+12
	BYTE	W01
	BYTE		        c_v+10
	BYTE		N02     Cs4   v076
	BYTE	W01
	BYTE		PAN     c_v+8
	BYTE	W01
	BYTE		        c_v+6
	BYTE	W01
	BYTE		        c_v+4
	BYTE		N02     Fs3   v072
	BYTE	W01
	BYTE		PAN     c_v+3
	BYTE	W01
	BYTE		        c_v+1
	BYTE	W01
	BYTE		        c_v-1
	BYTE		N02     Dn4   v076
	BYTE	W01
	BYTE		PAN     c_v-3
	BYTE	W01
	BYTE		        c_v-4
	BYTE	W01
	BYTE		        c_v-6
	BYTE		N02     Fs3   v072
	BYTE	W01
	BYTE		PAN     c_v-8
	BYTE	W01
	BYTE		        c_v-10
	BYTE	W01
	BYTE		        c_v-12
	BYTE		N02     En4   v076
	BYTE	W01
	BYTE		PAN     c_v-13
	BYTE	W01
	BYTE		        c_v-15
	BYTE	W01
	BYTE		        c_v-17
	BYTE		N02     Fs3   v072
	BYTE	W01
	BYTE		PAN     c_v-19
	BYTE	W01
	BYTE		        c_v-21
	BYTE	W01
	BYTE		        c_v-22
	BYTE		N02     Dn4   v076
	BYTE	W01
	BYTE		PAN     c_v-24
	BYTE	W01
	BYTE		        c_v-26
	BYTE	W01
	BYTE		        c_v-28
	BYTE		N02     Fs3   v072
	BYTE	W01
	BYTE		PAN     c_v-30
	BYTE	W01
	BYTE		        c_v-31
	BYTE	W01
	BYTE		        c_v-33
	BYTE		N02     Cs4   v076
	BYTE	W01
	BYTE		PAN     c_v-35
	BYTE	W01
	BYTE		        c_v-37
	BYTE	W01
	BYTE		        c_v-39
	BYTE		N02     Fs3   v072
	BYTE	W01
	BYTE		PAN     c_v-40
	BYTE	W01
	BYTE		        c_v-42
	BYTE	W01
	BYTE		        c_v-43
	BYTE		VOL     106*FE05VSVeldRSflame_mvl/mxv
	BYTE		PAN     c_v-42
	BYTE		N02     Dn4   v076
	BYTE	W01
	BYTE		VOL     105*FE05VSVeldRSflame_mvl/mxv
	BYTE		PAN     c_v-41
	BYTE		VOL     104*FE05VSVeldRSflame_mvl/mxv
	BYTE		PAN     c_v-40
	BYTE	W01
	BYTE		        c_v-39
	BYTE		VOL     103*FE05VSVeldRSflame_mvl/mxv
	BYTE	W01
	BYTE		        102*FE05VSVeldRSflame_mvl/mxv
	BYTE		PAN     c_v-38
	BYTE		VOL     101*FE05VSVeldRSflame_mvl/mxv
	BYTE		PAN     c_v-37
	BYTE		N02     Fs3   v072
	BYTE	W01
	BYTE		VOL     100*FE05VSVeldRSflame_mvl/mxv
	BYTE		PAN     c_v-36
	BYTE		VOL     99*FE05VSVeldRSflame_mvl/mxv
	BYTE		PAN     c_v-35
	BYTE	W01
	BYTE		VOL     98*FE05VSVeldRSflame_mvl/mxv
	BYTE		PAN     c_v-34
	BYTE		VOL     97*FE05VSVeldRSflame_mvl/mxv
	BYTE		PAN     c_v-33
	BYTE	W01
	BYTE		        c_v-32
	BYTE		VOL     96*FE05VSVeldRSflame_mvl/mxv
	BYTE		PAN     c_v-31
	BYTE		N02     En4   v076
	BYTE	W01
	BYTE		VOL     95*FE05VSVeldRSflame_mvl/mxv
	BYTE		PAN     c_v-30
	BYTE		VOL     94*FE05VSVeldRSflame_mvl/mxv
	BYTE	W01
	BYTE		        93*FE05VSVeldRSflame_mvl/mxv
	BYTE		PAN     c_v-29
	BYTE		VOL     92*FE05VSVeldRSflame_mvl/mxv
	BYTE		PAN     c_v-28
	BYTE	W01
	BYTE		VOL     91*FE05VSVeldRSflame_mvl/mxv
	BYTE		PAN     c_v-27
	BYTE		VOL     90*FE05VSVeldRSflame_mvl/mxv
	BYTE		PAN     c_v-26
	BYTE		N02     Fs3   v072
	BYTE	W01
	BYTE		PAN     c_v-25
	BYTE		VOL     89*FE05VSVeldRSflame_mvl/mxv
	BYTE		PAN     c_v-24
	BYTE	W01
	BYTE		VOL     88*FE05VSVeldRSflame_mvl/mxv
	BYTE		PAN     c_v-23
	BYTE		VOL     87*FE05VSVeldRSflame_mvl/mxv
	BYTE		PAN     c_v-22
	BYTE	W01
	BYTE		VOL     86*FE05VSVeldRSflame_mvl/mxv
	BYTE		PAN     c_v-21
	BYTE		VOL     85*FE05VSVeldRSflame_mvl/mxv
	BYTE		N02     Dn4   v076
	BYTE	W01
	BYTE		VOL     84*FE05VSVeldRSflame_mvl/mxv
	BYTE		PAN     c_v-20
	BYTE		VOL     83*FE05VSVeldRSflame_mvl/mxv
	BYTE		PAN     c_v-19
	BYTE	W01
	BYTE		        c_v-18
	BYTE		VOL     82*FE05VSVeldRSflame_mvl/mxv
	BYTE		PAN     c_v-17
	BYTE	W01
	BYTE		VOL     81*FE05VSVeldRSflame_mvl/mxv
	BYTE		PAN     c_v-16
	BYTE		VOL     80*FE05VSVeldRSflame_mvl/mxv
	BYTE		PAN     c_v-15
	BYTE		N02     Fs3   v072
	BYTE	W01
	BYTE		VOL     79*FE05VSVeldRSflame_mvl/mxv
	BYTE		PAN     c_v-14
	BYTE		VOL     78*FE05VSVeldRSflame_mvl/mxv
	BYTE		PAN     c_v-13
	BYTE	W01
	BYTE		VOL     76*FE05VSVeldRSflame_mvl/mxv
	BYTE		PAN     c_v-12
	BYTE	W01
// 001   ----------------------------------------
	BYTE		        c_v-11
	BYTE		VOL     75*FE05VSVeldRSflame_mvl/mxv
	BYTE		PAN     c_v-10
	BYTE		N02     Cs4   v076
	BYTE	W01
	BYTE		VOL     74*FE05VSVeldRSflame_mvl/mxv
	BYTE		PAN     c_v-9
	BYTE		VOL     73*FE05VSVeldRSflame_mvl/mxv
	BYTE		PAN     c_v-8
	BYTE	W01
	BYTE		VOL     72*FE05VSVeldRSflame_mvl/mxv
	BYTE		PAN     c_v-7
	BYTE		VOL     71*FE05VSVeldRSflame_mvl/mxv
	BYTE		PAN     c_v-6
	BYTE	W01
	BYTE		VOL     70*FE05VSVeldRSflame_mvl/mxv
	BYTE		PAN     c_v-5
	BYTE		VOL     69*FE05VSVeldRSflame_mvl/mxv
	BYTE		PAN     c_v-4
	BYTE		N02     Fs3   v072
	BYTE	W01
	BYTE		VOL     68*FE05VSVeldRSflame_mvl/mxv
	BYTE		PAN     c_v-3
	BYTE	W01
	BYTE		VOL     67*FE05VSVeldRSflame_mvl/mxv
	BYTE		PAN     c_v-2
	BYTE		VOL     66*FE05VSVeldRSflame_mvl/mxv
	BYTE		PAN     c_v-1
	BYTE	W01
	BYTE		VOL     65*FE05VSVeldRSflame_mvl/mxv
	BYTE		PAN     c_v+0
	BYTE	W01
	BYTE		VOL     85*FE05VSVeldRSflame_mvl/mxv
	BYTE		PAN     c_v+25
	BYTE		N42     Gn3   v108
	BYTE	W48
	BYTE		        Ds3   v084
	BYTE	W40
	BYTE	W01
// 002   ----------------------------------------
	BYTE	W07
	BYTE		        Fn3   v104
	BYTE	W40
	BYTE	W01
FE05VSVeldRSflame_6_B1:
	BYTE	W07
	BYTE		N44     Cs3   v072
	BYTE	W40
	BYTE	W01
// 003   ----------------------------------------
	BYTE	W07
	BYTE		VOL     85*FE05VSVeldRSflame_mvl/mxv
	BYTE		PAN     c_v+25
	BYTE	W01
	BYTE		VOL     51*FE05VSVeldRSflame_mvl/mxv
	BYTE		N44     Bn2   v104
	BYTE	W01
	BYTE		VOL     52*FE05VSVeldRSflame_mvl/mxv
	BYTE	W01
	BYTE		        53*FE05VSVeldRSflame_mvl/mxv
	BYTE	W02
	BYTE		        54*FE05VSVeldRSflame_mvl/mxv
	BYTE	W01
	BYTE		        55*FE05VSVeldRSflame_mvl/mxv
	BYTE	W01
	BYTE		        56*FE05VSVeldRSflame_mvl/mxv
	BYTE	W01
	BYTE		        57*FE05VSVeldRSflame_mvl/mxv
	BYTE	W01
	BYTE		        58*FE05VSVeldRSflame_mvl/mxv
	BYTE	W02
	BYTE		        59*FE05VSVeldRSflame_mvl/mxv
	BYTE	W01
	BYTE		        60*FE05VSVeldRSflame_mvl/mxv
	BYTE	W01
	BYTE		        61*FE05VSVeldRSflame_mvl/mxv
	BYTE	W01
	BYTE		        62*FE05VSVeldRSflame_mvl/mxv
	BYTE	W01
	BYTE		        63*FE05VSVeldRSflame_mvl/mxv
	BYTE	W02
	BYTE		        64*FE05VSVeldRSflame_mvl/mxv
	BYTE	W01
	BYTE		        65*FE05VSVeldRSflame_mvl/mxv
	BYTE	W01
	BYTE		        66*FE05VSVeldRSflame_mvl/mxv
	BYTE	W01
	BYTE		        67*FE05VSVeldRSflame_mvl/mxv
	BYTE	W01
	BYTE		        68*FE05VSVeldRSflame_mvl/mxv
	BYTE	W02
	BYTE		        69*FE05VSVeldRSflame_mvl/mxv
	BYTE	W01
	BYTE		        70*FE05VSVeldRSflame_mvl/mxv
	BYTE	W01
	BYTE		        71*FE05VSVeldRSflame_mvl/mxv
	BYTE	W01
	BYTE		        72*FE05VSVeldRSflame_mvl/mxv
	BYTE	W01
	BYTE		        73*FE05VSVeldRSflame_mvl/mxv
	BYTE	W02
	BYTE		        74*FE05VSVeldRSflame_mvl/mxv
	BYTE	W01
	BYTE		        75*FE05VSVeldRSflame_mvl/mxv
	BYTE	W01
	BYTE		        76*FE05VSVeldRSflame_mvl/mxv
	BYTE	W01
	BYTE		        77*FE05VSVeldRSflame_mvl/mxv
	BYTE	W01
	BYTE		        78*FE05VSVeldRSflame_mvl/mxv
	BYTE	W02
	BYTE		        79*FE05VSVeldRSflame_mvl/mxv
	BYTE	W01
	BYTE		        80*FE05VSVeldRSflame_mvl/mxv
	BYTE	W01
	BYTE		        81*FE05VSVeldRSflame_mvl/mxv
	BYTE	W01
	BYTE		        82*FE05VSVeldRSflame_mvl/mxv
	BYTE	W01
	BYTE		        83*FE05VSVeldRSflame_mvl/mxv
	BYTE	W02
	BYTE		        84*FE05VSVeldRSflame_mvl/mxv
	BYTE	W01
	BYTE		        85*FE05VSVeldRSflame_mvl/mxv
	BYTE	W01
	BYTE		        86*FE05VSVeldRSflame_mvl/mxv
	BYTE	W01
	BYTE		        87*FE05VSVeldRSflame_mvl/mxv
	BYTE	W01
	BYTE		        88*FE05VSVeldRSflame_mvl/mxv
	BYTE	W02
	BYTE		        89*FE05VSVeldRSflame_mvl/mxv
	BYTE	W01
	BYTE		        90*FE05VSVeldRSflame_mvl/mxv
	BYTE	W01
	BYTE		N92     Gn3   v096
	BYTE	W40
// 004   ----------------------------------------
	BYTE	W56
	BYTE		N42     Fs3   v104
	BYTE	W40
// 005   ----------------------------------------
	BYTE	W08
	BYTE		N68     En3 
	BYTE	W72
	BYTE		N23     Bn3   v084
	BYTE	W16
// 006   ----------------------------------------
	BYTE	W08
	BYTE		TIE     An3   v092
	BYTE	W88
// 007   ----------------------------------------
	BYTE	W54
	BYTE		EOT   
	BYTE	W02
	BYTE		N44     Gn3   v104
	BYTE	W40
// 008   ----------------------------------------
	BYTE	W08
	BYTE		N23     En3   v108
	BYTE	W24
	BYTE		N21     Fs3   v104
	BYTE	W16
	BYTE	GoTo
	 POIN2	FE05VSVeldRSflame_6_B1
FE05VSVeldRSflame_6_B2:
	BYTE	W48
// 009   ----------------------------------------
	BYTE	FINE

//**************** Track 7 (Midi-Chn.9) ****************//

FE05VSVeldRSflame_7:
	BYTE	KEYSH   FE05VSVeldRSflame_key+0
// 000   ----------------------------------------
	BYTE		VOICE   47
	BYTE		VOL     64*FE05VSVeldRSflame_mvl/mxv
	BYTE	W01
	BYTE		N05     Cn1   v084
	BYTE	W06
	BYTE		N17     Bn0 
	BYTE	W18
	BYTE		N05     Cn1   v104
	BYTE	W06
	BYTE		N17   
	BYTE	W18
	BYTE		N05     Bn0   v084
	BYTE	W06
	BYTE		N17     Cn1   v076
	BYTE	W18
	BYTE		N02     Cn1   v104
	BYTE	W03
	BYTE		        Dn1   v108
	BYTE	W03
	BYTE		N17     En1   v084
	BYTE	W17
// 001   ----------------------------------------
	BYTE	W01
	BYTE		N02   
	BYTE	W03
	BYTE		N02   
	BYTE	W03
	BYTE		N17     En1   v076
	BYTE	W18
	BYTE		N02     En1   v116
	BYTE	W03
	BYTE		        Dn1   v108
	BYTE	W03
	BYTE		N17     En1   v092
	BYTE	W18
	BYTE		N05     En1   v084
	BYTE	W06
	BYTE		N17     En1   v104
	BYTE	W18
	BYTE		N02     Cn1   v108
	BYTE	W03
	BYTE		        Dn1 
	BYTE	W03
	BYTE		N17     Bn0   v096
	BYTE	W17
// 002   ----------------------------------------
	BYTE	W01
	BYTE		N05     Cn1   v104
	BYTE	W06
	BYTE		N17     Bn0   v096
	BYTE	W18
	BYTE		N05     Cn1   v108
	BYTE	W06
	BYTE		N17     Cn1   v084
	BYTE	W17
FE05VSVeldRSflame_7_B1:
	BYTE	W01
	BYTE		N11     Bn0   v084
	BYTE	W12
	BYTE		        Cn1 
	BYTE	W12
	BYTE		N05     Bn0   v108
	BYTE	W06
	BYTE		N17     En1 
	BYTE	W17
// 003   ----------------------------------------
	BYTE	W01
	BYTE		N05     En1   v084
	BYTE	W06
	BYTE		N17   
	BYTE	W18
	BYTE		N05     En1   v108
	BYTE	W06
	BYTE		N17   
	BYTE	W18
	BYTE		N05     En1   v076
	BYTE	W06
	BYTE		N17     En1   v084
	BYTE	W18
	BYTE		N02     En1   v104
	BYTE	W03
	BYTE		        En1   v108
	BYTE	W03
	BYTE		N17     Cn1 
	BYTE	W17
// 004   ----------------------------------------
	BYTE	W01
	BYTE		N05     Bn0   v084
	BYTE	W06
	BYTE		N17     Cn1 
	BYTE	W18
	BYTE		N02     Bn0   v104
	BYTE	W03
	BYTE		        Cn1   v108
	BYTE	W03
	BYTE		N17     En1   v084
	BYTE	W18
	BYTE		N05   
	BYTE	W06
	BYTE		N17   
	BYTE	W18
	BYTE		N02     En1   v104
	BYTE	W03
	BYTE		        En1   v108
	BYTE	W03
	BYTE		N17   
	BYTE	W17
// 005   ----------------------------------------
	BYTE	W01
	BYTE		N05     En1   v076
	BYTE	W06
	BYTE		N17     En1   v084
	BYTE	W18
	BYTE		N05     En1   v076
	BYTE	W68
	BYTE	W03
// 006   ----------------------------------------
	BYTE	W36
	BYTE	W01
	BYTE		N23     Bn0   v064
	BYTE	W24
	BYTE		N23   
	BYTE	W32
	BYTE	W03
// 007   ----------------------------------------
	BYTE	W36
	BYTE	W01
	BYTE		        Bn0   v076
	BYTE	W24
	BYTE		        Bn0   v072
	BYTE	W32
	BYTE	W03
// 008   ----------------------------------------
	BYTE	W48
	BYTE	GoTo
	 POIN2	FE05VSVeldRSflame_7_B1
FE05VSVeldRSflame_7_B2:
	BYTE	W48
// 009   ----------------------------------------
	BYTE	FINE

//******************************************************//
	ALIGN 4

FE05VSVeldRSflame:
	BYTE	7	// NumTrks
	BYTE	0	// NumBlks
	BYTE	FE05VSVeldRSflame_pri	// Priority
	BYTE	FE05VSVeldRSflame_rev	// Reverb.

	POIN2	FE05VSVeldRSflame_grp

	POIN2	FE05VSVeldRSflame_1
	POIN2	FE05VSVeldRSflame_2
	POIN2	FE05VSVeldRSflame_3
	POIN2	FE05VSVeldRSflame_4
	POIN2	FE05VSVeldRSflame_5
	POIN2	FE05VSVeldRSflame_6
	POIN2	FE05VSVeldRSflame_7

	
