//Event file generated from Sappy .s format.
	#include "MPlayDef.event"

	#define	FE05BaseRSflame_grp  voicegroup000
	#define	FE05BaseRSflame_pri  0
	#define	FE05BaseRSflame_rev  0
	#define	FE05BaseRSflame_mvl  127
	#define	FE05BaseRSflame_key  0
	#define	FE05BaseRSflame_tbs  1
	#define	FE05BaseRSflame_exg  0
	#define	FE05BaseRSflame_cmp  1

	// .rodata
	//	FE05BaseRSflame
	ALIGN 4


//**************** Track 1 (Midi-Chn.0) ****************//

FE05BaseRSflame_001:
// 000   ----------------------------------------
 BYTE   KEYSH   FE05BaseRSflame_key+0
 BYTE   TEMPO   56*FE05BaseRSflame_tbs/2
 BYTE   VOICE   61
 BYTE   W13
 BYTE   VOL   50*FE05BaseRSflame_mvl/mxv
 BYTE   PAN   c_v+43
 BYTE   W01
 BYTE   N32  Cn3  v116
 BYTE   W10
Label_0_01020FF0:
 BYTE   W32
 BYTE   N01  As2  v100
 BYTE   W03
 BYTE   Cn3
 BYTE   W03
 BYTE   N32  Dn3  v104
 BYTE   W32
 BYTE   W02
// 001   ----------------------------------------
 BYTE   W05
 BYTE   N01  Fn2  v100
 BYTE   W03
 BYTE   Cn3
 BYTE   W03
 BYTE   Dn3  v104
 BYTE   W03
 BYTE   N32  Ds3  v112
 BYTE   W42
 BYTE   N01  Dn3  v108
 BYTE   W03
 BYTE   Cn3  v104
 BYTE   W03
 BYTE   N32  Dn3  v116
 BYTE   W32
 BYTE   W02
// 002   ----------------------------------------
 BYTE   W08
 BYTE   N01  Fn2  v100
 BYTE   W03
 BYTE   As2  v108
 BYTE   W03
 BYTE   N32  Cn3
 BYTE   W42
 BYTE   N01  As2
 BYTE   W03
 BYTE   Cn3  v100
 BYTE   W03
 BYTE   N32  Dn3  v108
 BYTE   W32
 BYTE   W02
// 003   ----------------------------------------
 BYTE   W08
 BYTE   N01  Cn3  v104
 BYTE   W03
 BYTE   Dn3
 BYTE   W03
 BYTE   N32  Ds3  v112
 BYTE   W42
 BYTE   N01  Fn3  v108
 BYTE   W03
 BYTE   Cn3  v104
 BYTE   W03
 BYTE   Cn3  v120
 BYTE   W03
 BYTE   Dn3  v116
 BYTE   W03
 BYTE   N28  Dn3  v124
 BYTE   W28
// 004   ----------------------------------------
 BYTE   W08
 BYTE   VOL   62*FE05BaseRSflame_mvl/mxv
 BYTE   PAN   c_v+25
 BYTE   N01  Dn4  v112
 BYTE   W03
 BYTE   Cn4  v108
 BYTE   W03
 BYTE   N11  As3  v112
 BYTE   W18
 BYTE   N01  An3  v096
 BYTE   W03
 BYTE   As3
 BYTE   W03
 BYTE   N11  Cn4  v100
 BYTE   W18
 BYTE   N01  An3
 BYTE   W03
 BYTE   Fn3  v088
 BYTE   W03
 BYTE   N05  Gn3  v096
 BYTE   W12
 BYTE   Dn4
 BYTE   W12
 BYTE   Cn4  v104
 BYTE   W10
// 005   ----------------------------------------
 BYTE   W02
 BYTE   N01  An3
 BYTE   W06
 BYTE   Fn3  v100
 BYTE   W06
 BYTE   N11  As3  v104
 BYTE   W18
 BYTE   N01  An3  v100
 BYTE   W03
 BYTE   As3  v092
 BYTE   W03
 BYTE   N11  Cn4  v104
 BYTE   W15
 BYTE   N01  Fn3  v096
 BYTE   W03
 BYTE   Cn4  v100
 BYTE   W03
 BYTE   Dn4  v096
 BYTE   W03
 BYTE   N11  Ds4  v108
 BYTE   W18
 BYTE   N01  Fn4  v100
 BYTE   W03
 BYTE   Ds4  v096
 BYTE   W03
 BYTE   N11  Dn4  v100
 BYTE   W10
// 006   ----------------------------------------
 BYTE   W08
 BYTE   N01  Dn4  v096
 BYTE   W03
 BYTE   Cn4
 BYTE   W03
 BYTE   N14  As3
 BYTE   W18
 BYTE   N01  An3  v084
 BYTE   W03
 BYTE   As3  v080
 BYTE   W03
 BYTE   N14  Cn4  v088
 BYTE   W18
 BYTE   N01  Fn4  v092
 BYTE   W03
 BYTE   Ds4  v084
 BYTE   W03
 BYTE   N05  Dn4  v080
 BYTE   W12
 BYTE   Cn4  v088
 BYTE   W12
 BYTE   As3
 BYTE   W10
// 007   ----------------------------------------
 BYTE   W02
 BYTE   Dn4  v084
 BYTE   W12
 BYTE   N13  Cn4  v096
 BYTE   W18
 BYTE   N01  Cn4  v092
 BYTE   W03
 BYTE   Dn4
 BYTE   W03
 BYTE   N13  Ds4  v096
 BYTE   W18
 BYTE   N01
 BYTE   W03
 BYTE   Dn4
 BYTE   W03
 BYTE   N36  Cn4
 BYTE   W32
 BYTE   W02
// 008   ----------------------------------------
 BYTE   W96
// 009   ----------------------------------------
 BYTE   W96
// 010   ----------------------------------------
 BYTE   W60
 BYTE   W02
 BYTE   N23  Ds2  v064
 BYTE   W24
 BYTE   N11  Fn2  v076
 BYTE   W10
// 011   ----------------------------------------
 BYTE   W02
 BYTE   Gn2
 BYTE   W92
 BYTE   W02
// 012   ----------------------------------------
 BYTE   W60
 BYTE   W02
 BYTE   N23  Gn2  v088
 BYTE   W24
 BYTE   An2  v092
 BYTE   W10
// 013   ----------------------------------------
 BYTE   W14
 BYTE   N44  As2  v096
 BYTE   W48
 BYTE   Cn3
 BYTE   W32
 BYTE   W02
// 014   ----------------------------------------
 BYTE   W14
 BYTE   N23  Dn3
 BYTE   W24
 BYTE   Ds3  v100
 BYTE   W24
 BYTE   N44  Fn3  v092
 BYTE   W32
 BYTE   W02
// 015   ----------------------------------------
 BYTE   W14
 BYTE   Gn3  v096
 BYTE   W48
 BYTE   N23  Fs3  v088
 BYTE   W30
 BYTE   N07  Fs3  v096
 BYTE   W04
// 016   ----------------------------------------
 BYTE   GoTo
  POIN2 Label_0_01020FF0
// 017   ----------------------------------------
 BYTE   W24
 BYTE   FINE

//**************** Track 2 (Midi-Chn.1) ****************//

FE05BaseRSflame_002:
// 000   ----------------------------------------
 BYTE   KEYSH   FE05BaseRSflame_key+0
 BYTE   VOICE   33
 BYTE   W13
 BYTE   VOL   62*FE05BaseRSflame_mvl/mxv
 BYTE   PAN   c_v-25
 BYTE   W11
Label_1_0102112A:
 BYTE   W72
// 001   ----------------------------------------
 BYTE   W96
// 002   ----------------------------------------
 BYTE   W96
// 003   ----------------------------------------
 BYTE   W96
// 004   ----------------------------------------
 BYTE   W13
 BYTE   VOL   66*FE05BaseRSflame_mvl/mxv
 BYTE   PAN   c_v-14
 BYTE   N03  Gn1  v116
 BYTE   W06
 BYTE   N04  Gn1  v120
 BYTE   W18
 BYTE   N03  Fn1  v124
 BYTE   W06
 BYTE   N03
 BYTE   W18
 BYTE   N04  Ds1  v120
 BYTE   W06
 BYTE   N05
 BYTE   W18
 BYTE   N03  Dn1
 BYTE   W06
 BYTE   N04
 BYTE   W05
// 005   ----------------------------------------
 BYTE   W13
 BYTE   N03  Gn1
 BYTE   W06
 BYTE   N04
 BYTE   W18
 BYTE   N03  An1
 BYTE   W06
 BYTE   An1  v124
 BYTE   W18
 BYTE   As1  v120
 BYTE   W06
 BYTE   N05
 BYTE   W18
 BYTE   N03
 BYTE   W06
 BYTE   N05
 BYTE   W05
// 006   ----------------------------------------
 BYTE   W07
 BYTE   N02  An1
 BYTE   W06
 BYTE   N03  Gn1
 BYTE   W06
 BYTE   N04
 BYTE   W18
 BYTE   N03  Fn1  v116
 BYTE   W06
 BYTE   N04  Fn1  v112
 BYTE   W18
 BYTE   N03  Ds1  v116
 BYTE   W06
 BYTE   N04
 BYTE   W18
 BYTE   N03  Dn1
 BYTE   W06
 BYTE   N03
 BYTE   W05
// 007   ----------------------------------------
 BYTE   W13
 BYTE   Gs1
 BYTE   W06
 BYTE   N03
 BYTE   W18
 BYTE   N02  Gs1  v120
 BYTE   W06
 BYTE   N03
 BYTE   W18
 BYTE   N02  Fn1
 BYTE   W06
 BYTE   Fn1  v124
 BYTE   W12
 BYTE   N01
 BYTE   W03
 BYTE   Fn1  v112
 BYTE   W03
 BYTE   N02  Fn1  v116
 BYTE   W06
 BYTE   Fn1  v127
 BYTE   W05
// 008   ----------------------------------------
 BYTE   W07
 BYTE   Fn1  v108
 BYTE   W07
 BYTE   As1  v116
 BYTE   W06
 BYTE   N01  As1  v120
 BYTE   W12
 BYTE   As1  v112
 BYTE   W03
 BYTE   Fn1  v104
 BYTE   W03
 BYTE   As1  v116
 BYTE   W06
 BYTE   As1  v112
 BYTE   W18
 BYTE   As1  v116
 BYTE   W06
 BYTE   N01
 BYTE   W12
 BYTE   N01
 BYTE   W03
 BYTE   Fn1  v108
 BYTE   W03
 BYTE   As1  v112
 BYTE   W06
 BYTE   As1  v116
 BYTE   W04
// 009   ----------------------------------------
 BYTE   W14
 BYTE   As1  v120
 BYTE   W06
 BYTE   As1  v112
 BYTE   W12
 BYTE   As1  v116
 BYTE   W03
 BYTE   Fn1  v104
 BYTE   W03
 BYTE   As1  v116
 BYTE   W06
 BYTE   As1  v108
 BYTE   W18
 BYTE   As1  v120
 BYTE   W06
 BYTE   N01
 BYTE   W12
 BYTE   As1  v116
 BYTE   W03
 BYTE   Fn1  v104
 BYTE   W03
 BYTE   As1  v116
 BYTE   W06
 BYTE   N02  As1  v112
 BYTE   W04
// 010   ----------------------------------------
 BYTE   W08
 BYTE   N01
 BYTE   W01
 BYTE   As1  v084
 BYTE   W02
 BYTE   N01
 BYTE   W01
 BYTE   As1  v072
 BYTE   W02
 BYTE   As1  v120
 BYTE   W06
 BYTE   As1  v116
 BYTE   W12
 BYTE   N01
 BYTE   W03
 BYTE   Fn1  v104
 BYTE   W03
 BYTE   As1  v108
 BYTE   W06
 BYTE   As1  v116
 BYTE   W18
 BYTE   N01
 BYTE   W06
 BYTE   As1  v108
 BYTE   W12
 BYTE   As1  v116
 BYTE   W03
 BYTE   Fn1  v108
 BYTE   W03
 BYTE   As1  v116
 BYTE   W06
 BYTE   As1  v112
 BYTE   W04
// 011   ----------------------------------------
 BYTE   W08
 BYTE   As1  v116
 BYTE   W06
 BYTE   As1  v120
 BYTE   W06
 BYTE   N01
 BYTE   W12
 BYTE   As1  v112
 BYTE   W03
 BYTE   Fn1  v108
 BYTE   W03
 BYTE   As1  v116
 BYTE   W06
 BYTE   As1  v112
 BYTE   W18
 BYTE   As1  v120
 BYTE   W06
 BYTE   As1  v116
 BYTE   W12
 BYTE   As1  v112
 BYTE   W03
 BYTE   Fn1  v104
 BYTE   W03
 BYTE   As1  v112
 BYTE   W06
 BYTE   N02  As1  v116
 BYTE   W04
// 012   ----------------------------------------
 BYTE   W08
 BYTE   N01  As1  v112
 BYTE   W01
 BYTE   As1  v084
 BYTE   W02
 BYTE   N01
 BYTE   W01
 BYTE   As1  v072
 BYTE   W02
 BYTE   As1  v120
 BYTE   W06
 BYTE   N01
 BYTE   W12
 BYTE   As1  v116
 BYTE   W03
 BYTE   Fn1  v112
 BYTE   W03
 BYTE   As1  v116
 BYTE   W06
 BYTE   As1  v108
 BYTE   W18
 BYTE   As1  v116
 BYTE   W06
 BYTE   N01
 BYTE   W12
 BYTE   N01
 BYTE   W03
 BYTE   Fn1  v108
 BYTE   W03
 BYTE   As1  v112
 BYTE   W06
 BYTE   As1  v120
 BYTE   W04
// 013   ----------------------------------------
 BYTE   W08
 BYTE   VOL   69*FE05BaseRSflame_mvl/mxv
 BYTE   PAN   c_v+14
 BYTE   N02  Ds3  v116
 BYTE   W03
 BYTE   Fn3  v120
 BYTE   W03
 BYTE   N17  Gn3  v124
 BYTE   W21
 BYTE   N02  Ds3  v116
 BYTE   W03
 BYTE   N09  As2
 BYTE   W12
 BYTE   Gn3
 BYTE   W12
 BYTE   N14  Gn3  v124
 BYTE   W18
 BYTE   N02  An3
 BYTE   W03
 BYTE   Gn3  v108
 BYTE   W03
 BYTE   N05  Fs3  v120
 BYTE   W10
// 014   ----------------------------------------
 BYTE   W02
 BYTE   N09  Dn3  v108
 BYTE   W12
 BYTE   N14  As3  v120
 BYTE   W18
 BYTE   N02  As3  v124
 BYTE   W06
 BYTE   N07  An3  v108
 BYTE   W09
 BYTE   Gn3  v116
 BYTE   W09
 BYTE   N05  Fn3
 BYTE   W06
 BYTE   N32  Gn3  v108
 BYTE   W32
 BYTE   W02
// 015   ----------------------------------------
 BYTE   W05
 BYTE   N02  As2  v116
 BYTE   W03
 BYTE   Ds3  v104
 BYTE   W03
 BYTE   Gn3  v096
 BYTE   W03
 BYTE   N32  Gn3  v112
 BYTE   W42
 BYTE   N02  Fs3  v108
 BYTE   W03
 BYTE   Gn3  v096
 BYTE   W03
 BYTE   N36  An3  v108
 BYTE   W32
 BYTE   W02
// 016   ----------------------------------------
 BYTE   GoTo
  POIN2 Label_1_0102112A
// 017   ----------------------------------------
 BYTE   W24
 BYTE   FINE

//**************** Track 3 (Midi-Chn.2) ****************//

FE05BaseRSflame_003:
// 000   ----------------------------------------
 BYTE   KEYSH   FE05BaseRSflame_key+0
 BYTE   VOICE   48
 BYTE   W13
 BYTE   VOL   62*FE05BaseRSflame_mvl/mxv
 BYTE   PAN   c_v+14
 BYTE   N01  As0  v120
 BYTE   W06
 BYTE   As0  v100
 BYTE   W05
Label_2_010212E0:
 BYTE   W07
 BYTE   N01  As0  v100
 BYTE   W03
 BYTE   As0  v092
 BYTE   W03
 BYTE   N02  As0  v120
 BYTE   W06
 BYTE   N01  As0  v108
 BYTE   W18
 BYTE   As0  v124
 BYTE   W06
 BYTE   As0  v104
 BYTE   W12
 BYTE   As0  v100
 BYTE   W03
 BYTE   N01
 BYTE   W03
 BYTE   N02  As0  v120
 BYTE   W06
 BYTE   N01  As0  v108
 BYTE   W05
// 001   ----------------------------------------
 BYTE   W13
 BYTE   As0  v124
 BYTE   W06
 BYTE   As0  v104
 BYTE   W12
 BYTE   As0  v100
 BYTE   W03
 BYTE   N01
 BYTE   W03
 BYTE   As0  v124
 BYTE   W06
 BYTE   As0  v100
 BYTE   W18
 BYTE   As0  v124
 BYTE   W06
 BYTE   As0  v108
 BYTE   W12
 BYTE   As0  v096
 BYTE   W03
 BYTE   N01
 BYTE   W03
 BYTE   As0  v116
 BYTE   W06
 BYTE   As0  v104
 BYTE   W05
// 002   ----------------------------------------
 BYTE   W13
 BYTE   As0  v124
 BYTE   W06
 BYTE   As0  v104
 BYTE   W12
 BYTE   As0  v100
 BYTE   W03
 BYTE   N01
 BYTE   W03
 BYTE   N02  As0  v120
 BYTE   W06
 BYTE   N01  As0  v108
 BYTE   W18
 BYTE   As0  v124
 BYTE   W06
 BYTE   As0  v104
 BYTE   W12
 BYTE   As0  v100
 BYTE   W03
 BYTE   N01
 BYTE   W03
 BYTE   As0  v124
 BYTE   W06
 BYTE   As0  v100
 BYTE   W05
// 003   ----------------------------------------
 BYTE   W13
 BYTE   As0  v124
 BYTE   W06
 BYTE   As0  v108
 BYTE   W12
 BYTE   As0  v096
 BYTE   W03
 BYTE   N01
 BYTE   W03
 BYTE   As0  v116
 BYTE   W06
 BYTE   As0  v104
 BYTE   W18
 BYTE   As0  v120
 BYTE   W06
 BYTE   As0  v100
 BYTE   W12
 BYTE   N01
 BYTE   W03
 BYTE   As0  v092
 BYTE   W03
 BYTE   N02  As0  v120
 BYTE   W06
 BYTE   N01  As0  v108
 BYTE   W05
// 004   ----------------------------------------
 BYTE   W13
 BYTE   VOL   78*FE05BaseRSflame_mvl/mxv
 BYTE   PAN   c_v+14
 BYTE   N14  Dn3  v100
 BYTE   W24
 BYTE   Ds3  v108
 BYTE   W24
 BYTE   N05  Dn3  v096
 BYTE   W12
 BYTE   Gn3  v092
 BYTE   W12
 BYTE   Fn3
 BYTE   W11
// 005   ----------------------------------------
 BYTE   W01
 BYTE   Dn3
 BYTE   W12
 BYTE   N18  Dn3  v100
 BYTE   W24
 BYTE   N14  Fn3  v096
 BYTE   W24
 BYTE   N18  Gn3  v088
 BYTE   W24
 BYTE   N14  Fn3  v096
 BYTE   W11
// 006   ----------------------------------------
 BYTE   W13
 BYTE   N15  Dn3
 BYTE   W24
 BYTE   N13  Fn3
 BYTE   W24
 BYTE   N05  Ds3
 BYTE   W12
 BYTE   Gn3  v092
 BYTE   W12
 BYTE   Fn3
 BYTE   W11
// 007   ----------------------------------------
 BYTE   W01
 BYTE   As3  v088
 BYTE   W12
 BYTE   N42  Gs3  v092
 BYTE   W48
 BYTE   N40  Fn3  v096
 BYTE   W32
 BYTE   W03
// 008   ----------------------------------------
 BYTE   W96
// 009   ----------------------------------------
 BYTE   W14
 BYTE   N32  Fn2
 BYTE   W48
 BYTE   Fn2  v104
 BYTE   W32
 BYTE   W02
// 010   ----------------------------------------
 BYTE   W14
 BYTE   Fn2  v100
 BYTE   W48
 BYTE   N23  Cn3  v076
 BYTE   W24
 BYTE   N11  Dn3  v084
 BYTE   W10
// 011   ----------------------------------------
 BYTE   W02
 BYTE   Ds3  v080
 BYTE   W12
 BYTE   VOL   62*FE05BaseRSflame_mvl/mxv
 BYTE   PAN   c_v-14
 BYTE   N32  Gn2  v096
 BYTE   W48
 BYTE   Gn2  v104
 BYTE   W32
 BYTE   W02
// 012   ----------------------------------------
 BYTE   W14
 BYTE   N44  Gn2  v096
 BYTE   W48
 BYTE   N23  Ds3  v092
 BYTE   W24
 BYTE   Fn3
 BYTE   W10
// 013   ----------------------------------------
 BYTE   W14
 BYTE   N44  Gn3  v088
 BYTE   W48
 BYTE   N23  Gn3  v080
 BYTE   W24
 BYTE   Fs3  v084
 BYTE   W10
// 014   ----------------------------------------
 BYTE   W14
 BYTE   As3  v096
 BYTE   W24
 BYTE   Cn4
 BYTE   W24
 BYTE   N44  Dn4
 BYTE   W32
 BYTE   W02
// 015   ----------------------------------------
 BYTE   W14
 BYTE   N12  Dn4  v100
 BYTE   W18
 BYTE   N01
 BYTE   W03
 BYTE   Dn4  v088
 BYTE   W03
 BYTE   Dn4  v092
 BYTE   W06
 BYTE   Dn4  v104
 BYTE   W06
 BYTE   Dn4  v100
 BYTE   W06
 BYTE   Dn4  v104
 BYTE   W06
 BYTE   N13  Dn4  v116
 BYTE   W18
 BYTE   N01  Dn4  v100
 BYTE   W03
 BYTE   Dn4  v104
 BYTE   W03
 BYTE   Dn4  v100
 BYTE   W06
 BYTE   N03  Dn4  v116
 BYTE   W04
// 016   ----------------------------------------
 BYTE   GoTo
  POIN2 Label_2_010212E0
// 017   ----------------------------------------
 BYTE   W24
 BYTE   FINE

//**************** Track 4 (Midi-Chn.3) ****************//

FE05BaseRSflame_004:
// 000   ----------------------------------------
 BYTE   KEYSH   FE05BaseRSflame_key+0
 BYTE   VOICE   61
 BYTE   W13
 BYTE   VOL   62*FE05BaseRSflame_mvl/mxv
 BYTE   PAN   c_v-14
 BYTE   N32  Fn2  v108
 BYTE   W11
Label_3_01021439:
 BYTE   W36
 BYTE   W01
 BYTE   N32  Fn2  v116
 BYTE   W32
 BYTE   W03
// 001   ----------------------------------------
 BYTE   W13
 BYTE   Gn2
 BYTE   W48
 BYTE   Fn2
 BYTE   W32
 BYTE   W03
// 002   ----------------------------------------
 BYTE   W13
 BYTE   Fn2  v108
 BYTE   W48
 BYTE   Fn2  v112
 BYTE   W32
 BYTE   W03
// 003   ----------------------------------------
 BYTE   W13
 BYTE   Gn2  v108
 BYTE   W48
 BYTE   N30  Fn2  v112
 BYTE   W32
 BYTE   W03
// 004   ----------------------------------------
 BYTE   W07
 BYTE   N01  Dn4
 BYTE   W03
 BYTE   Cn4  v108
 BYTE   W03
 BYTE   N11  As3  v112
 BYTE   W18
 BYTE   N01  An3  v096
 BYTE   W03
 BYTE   As3
 BYTE   W03
 BYTE   N11  Cn4  v100
 BYTE   W18
 BYTE   N01  An3
 BYTE   W03
 BYTE   Fn3  v088
 BYTE   W03
 BYTE   N05  Gn3  v096
 BYTE   W12
 BYTE   Dn4  v104
 BYTE   W12
 BYTE   Cn4
 BYTE   W11
// 005   ----------------------------------------
 BYTE   W01
 BYTE   N02  An3
 BYTE   W06
 BYTE   Fn3  v100
 BYTE   W06
 BYTE   N11  As3  v104
 BYTE   W18
 BYTE   N01  An3  v100
 BYTE   W03
 BYTE   As3  v092
 BYTE   W03
 BYTE   N11  Cn4  v104
 BYTE   W15
 BYTE   N01  Fn3  v096
 BYTE   W03
 BYTE   Cn4  v100
 BYTE   W03
 BYTE   Dn4  v096
 BYTE   W03
 BYTE   N11  Ds4  v108
 BYTE   W18
 BYTE   N01  Fn4  v100
 BYTE   W03
 BYTE   Ds4  v096
 BYTE   W03
 BYTE   N11  Dn4  v100
 BYTE   W11
// 006   ----------------------------------------
 BYTE   W07
 BYTE   N01  Dn4  v096
 BYTE   W03
 BYTE   Cn4
 BYTE   W03
 BYTE   N14  As3
 BYTE   W18
 BYTE   N01  An3  v084
 BYTE   W03
 BYTE   As3  v080
 BYTE   W03
 BYTE   N14  Cn4  v088
 BYTE   W18
 BYTE   N01  Fn4  v092
 BYTE   W03
 BYTE   Ds4  v084
 BYTE   W03
 BYTE   N05  Dn4  v080
 BYTE   W12
 BYTE   Cn4  v088
 BYTE   W12
 BYTE   As3
 BYTE   W11
// 007   ----------------------------------------
 BYTE   W01
 BYTE   Dn4  v092
 BYTE   W12
 BYTE   N13  Cn4  v096
 BYTE   W18
 BYTE   N01  Cn4  v092
 BYTE   W03
 BYTE   Dn4
 BYTE   W03
 BYTE   N13  Ds4  v096
 BYTE   W18
 BYTE   N01
 BYTE   W03
 BYTE   Dn4
 BYTE   W03
 BYTE   N02  Fn3  v104
 BYTE   W03
 BYTE   Fn2  v092
 BYTE   W03
 BYTE   Cn3  v104
 BYTE   W03
 BYTE   Fn3  v100
 BYTE   W03
 BYTE   Fn2
 BYTE   W03
 BYTE   Fn2  v096
 BYTE   W03
 BYTE   Cn3  v104
 BYTE   W03
 BYTE   Fn3  v096
 BYTE   W03
 BYTE   Fn3  v100
 BYTE   W03
 BYTE   Fn3  v080
 BYTE   W03
 BYTE   Cn4  v100
 BYTE   W03
 BYTE   Fn4  v104
 BYTE   W02
// 008   ----------------------------------------
 BYTE   W01
 BYTE   Fn4  v100
 BYTE   W03
 BYTE   N02
 BYTE   W03
 BYTE   Cn5  v104
 BYTE   W03
 BYTE   Fn5
 BYTE   W04
 BYTE   N01  As1  v120
 BYTE   W06
 BYTE   N02  As1  v100
 BYTE   W12
 BYTE   N01
 BYTE   W03
 BYTE   As1  v092
 BYTE   W03
 BYTE   N02  As1  v120
 BYTE   W06
 BYTE   As1  v108
 BYTE   W18
 BYTE   N01  As1  v120
 BYTE   W06
 BYTE   N02  As1  v100
 BYTE   W12
 BYTE   N01
 BYTE   W03
 BYTE   As1  v092
 BYTE   W03
 BYTE   N02  As1  v120
 BYTE   W06
 BYTE   As1  v108
 BYTE   W04
// 009   ----------------------------------------
Label_3_0102153C:
 BYTE   W14
 BYTE   N01  As1  v120
 BYTE   W06
 BYTE   N02  As1  v100
 BYTE   W12
 BYTE   N01
 BYTE   W03
 BYTE   As1  v092
 BYTE   W03
 BYTE   N02  As1  v120
 BYTE   W06
 BYTE   As1  v108
 BYTE   W18
 BYTE   N01  As1  v120
 BYTE   W06
 BYTE   N02  As1  v100
 BYTE   W12
 BYTE   N01
 BYTE   W03
 BYTE   As1  v092
 BYTE   W03
 BYTE   N02  As1  v120
 BYTE   W06
 BYTE   As1  v108
 BYTE   W04
 BYTE   PEND 
// 010   ----------------------------------------
 BYTE   PATT
  POIN2 Label_3_0102153C
// 011   ----------------------------------------
 BYTE   W14
 BYTE   N01  Gn1  v124
 BYTE   W06
 BYTE   Gn1  v104
 BYTE   W12
 BYTE   Gn1  v100
 BYTE   W03
 BYTE   N01
 BYTE   W03
 BYTE   Gn1  v124
 BYTE   W06
 BYTE   Gn1  v100
 BYTE   W18
 BYTE   Gn1  v124
 BYTE   W06
 BYTE   Gn1  v108
 BYTE   W12
 BYTE   Gn1  v096
 BYTE   W03
 BYTE   N01
 BYTE   W03
 BYTE   Gn1  v116
 BYTE   W06
 BYTE   Gn1  v104
 BYTE   W04
// 012   ----------------------------------------
 BYTE   W14
 BYTE   Gn1  v124
 BYTE   W06
 BYTE   Gn1  v104
 BYTE   W12
 BYTE   Gn1  v100
 BYTE   W03
 BYTE   N01
 BYTE   W03
 BYTE   Gn1  v124
 BYTE   W06
 BYTE   Gn1  v100
 BYTE   W18
 BYTE   Gn1  v124
 BYTE   W06
 BYTE   Gn1  v108
 BYTE   W12
 BYTE   Gn1  v096
 BYTE   W03
 BYTE   N01
 BYTE   W03
 BYTE   Gn1  v116
 BYTE   W10
// 013   ----------------------------------------
 BYTE   W02
 BYTE   Fn1  v127
 BYTE   W12
 BYTE   Ds1  v124
 BYTE   W06
 BYTE   Ds1  v112
 BYTE   W18
 BYTE   Ds1  v124
 BYTE   W06
 BYTE   Ds1  v112
 BYTE   W18
 BYTE   Dn1  v124
 BYTE   W06
 BYTE   Dn1  v108
 BYTE   W18
 BYTE   Dn1  v112
 BYTE   W06
 BYTE   Dn1  v108
 BYTE   W04
// 014   ----------------------------------------
 BYTE   W08
 BYTE   Dn1  v100
 BYTE   W06
 BYTE   Gn1  v127
 BYTE   W06
 BYTE   Gn1  v116
 BYTE   W18
 BYTE   Fn1  v127
 BYTE   W06
 BYTE   Fn1  v116
 BYTE   W18
 BYTE   Ds1  v127
 BYTE   W06
 BYTE   N03  Ds1  v112
 BYTE   W28
// 015   ----------------------------------------
 BYTE   W08
 BYTE   N01  Ds1  v127
 BYTE   W06
 BYTE   Dn1
 BYTE   W06
 BYTE   Dn1  v108
 BYTE   W18
 BYTE   Dn1  v120
 BYTE   W06
 BYTE   Dn1  v104
 BYTE   W12
 BYTE   Dn1  v096
 BYTE   W06
 BYTE   Dn1  v127
 BYTE   W06
 BYTE   Dn1  v112
 BYTE   W12
 BYTE   Dn1  v100
 BYTE   W03
 BYTE   Dn1  v088
 BYTE   W03
 BYTE   Dn1  v104
 BYTE   W06
 BYTE   Dn1  v127
 BYTE   W04
// 016   ----------------------------------------
 BYTE   GoTo
  POIN2 Label_3_01021439
// 017   ----------------------------------------
 BYTE   W08
 BYTE   N01  Dn1  v116
 BYTE   W16
 BYTE   FINE

//**************** Track 5 (Midi-Chn.4) ****************//

FE05BaseRSflame_005:
// 000   ----------------------------------------
 BYTE   KEYSH   FE05BaseRSflame_key+0
 BYTE   VOICE   48
 BYTE   W13
 BYTE   VOL   78*FE05BaseRSflame_mvl/mxv
 BYTE   PAN   c_v+14
 BYTE   N32  Cn3  v116
 BYTE   W11
Label_4_01021621:
 BYTE   W30
 BYTE   W01
 BYTE   N01  As2  v100
 BYTE   W03
 BYTE   Cn3
 BYTE   W03
 BYTE   N32  Dn3  v104
 BYTE   W32
 BYTE   W03
// 001   ----------------------------------------
 BYTE   W04
 BYTE   N01  Fn2  v100
 BYTE   W03
 BYTE   Cn3
 BYTE   W03
 BYTE   Dn3  v104
 BYTE   W03
 BYTE   N32  Ds3  v112
 BYTE   W42
 BYTE   N01  Dn3  v108
 BYTE   W03
 BYTE   Cn3  v104
 BYTE   W03
 BYTE   N32  Dn3  v116
 BYTE   W32
 BYTE   W03
// 002   ----------------------------------------
 BYTE   W07
 BYTE   N01  Fn2  v100
 BYTE   W03
 BYTE   As2  v108
 BYTE   W03
 BYTE   N32  Cn3
 BYTE   W42
 BYTE   N01  As2
 BYTE   W03
 BYTE   Cn3  v100
 BYTE   W03
 BYTE   N32  Dn3  v108
 BYTE   W32
 BYTE   W03
// 003   ----------------------------------------
 BYTE   W07
 BYTE   N01  Cn3  v104
 BYTE   W03
 BYTE   Dn3
 BYTE   W03
 BYTE   N32  Ds3  v112
 BYTE   W42
 BYTE   N01  Fn3  v108
 BYTE   W03
 BYTE   Cn3  v104
 BYTE   W03
 BYTE   Cn3  v120
 BYTE   W03
 BYTE   Dn3  v116
 BYTE   W03
 BYTE   N28  Dn3  v124
 BYTE   W28
 BYTE   W01
// 004   ----------------------------------------
 BYTE   W07
 BYTE   VOL   62*FE05BaseRSflame_mvl/mxv
 BYTE   PAN   c_v-14
 BYTE   N01  Dn3  v120
 BYTE   W03
 BYTE   Cn3  v108
 BYTE   W03
 BYTE   N11  As2  v120
 BYTE   W18
 BYTE   N01  An2  v116
 BYTE   W03
 BYTE   As2  v112
 BYTE   W03
 BYTE   N11  Cn3  v116
 BYTE   W18
 BYTE   N01  An2
 BYTE   W03
 BYTE   Fn2  v104
 BYTE   W03
 BYTE   N05  Gn2
 BYTE   W12
 BYTE   Dn3
 BYTE   W12
 BYTE   Cn3  v108
 BYTE   W11
// 005   ----------------------------------------
 BYTE   W01
 BYTE   N02  An2  v116
 BYTE   W06
 BYTE   Fn2
 BYTE   W06
 BYTE   N11  As2  v124
 BYTE   W18
 BYTE   N01  An2  v116
 BYTE   W03
 BYTE   As2  v108
 BYTE   W03
 BYTE   N11  Cn3  v116
 BYTE   W15
 BYTE   N01  Fn2  v112
 BYTE   W03
 BYTE   Cn3
 BYTE   W03
 BYTE   Dn3  v104
 BYTE   W03
 BYTE   N11  Ds3  v120
 BYTE   W18
 BYTE   N01  Fn3  v112
 BYTE   W03
 BYTE   Ds3
 BYTE   W03
 BYTE   N11  Dn3  v116
 BYTE   W11
// 006   ----------------------------------------
 BYTE   W07
 BYTE   N01  Dn3  v124
 BYTE   W03
 BYTE   Cn3  v104
 BYTE   W03
 BYTE   N11  As2  v116
 BYTE   W18
 BYTE   N01  An2  v112
 BYTE   W03
 BYTE   As2  v100
 BYTE   W03
 BYTE   N11  Cn3  v116
 BYTE   W18
 BYTE   N01  An2  v120
 BYTE   W02
 BYTE   Fn2  v108
 BYTE   W04
 BYTE   N05  Gn2  v112
 BYTE   W12
 BYTE   Dn3  v120
 BYTE   W12
 BYTE   Cn3  v116
 BYTE   W11
// 007   ----------------------------------------
 BYTE   W01
 BYTE   Gn3  v104
 BYTE   W12
 BYTE   N13  Fn3  v120
 BYTE   W18
 BYTE   N01  Ds3  v124
 BYTE   W03
 BYTE   Dn3  v116
 BYTE   W03
 BYTE   N13  Cn3  v124
 BYTE   W18
 BYTE   N01  As2  v120
 BYTE   W06
 BYTE   N36  Cn3  v124
 BYTE   W32
 BYTE   W03
// 008   ----------------------------------------
 BYTE   W96
// 009   ----------------------------------------
 BYTE   W05
 BYTE   N02  Fn2  v104
 BYTE   W03
 BYTE   As2  v096
 BYTE   W03
 BYTE   Cn3  v104
 BYTE   W03
 BYTE   N32  Dn3  v108
 BYTE   W42
 BYTE   N02  Cn3  v096
 BYTE   W03
 BYTE   Dn3
 BYTE   W03
 BYTE   N32  Ds3  v112
 BYTE   W32
 BYTE   W02
// 010   ----------------------------------------
 BYTE   W08
 BYTE   N02  Dn3  v096
 BYTE   W03
 BYTE   Cn3
 BYTE   W03
 BYTE   N32  Dn3  v112
 BYTE   W80
 BYTE   W02
// 011   ----------------------------------------
 BYTE   W05
 BYTE   N02  Fn2  v104
 BYTE   W03
 BYTE   As2  v096
 BYTE   W03
 BYTE   Cn3
 BYTE   W03
 BYTE   N32  Dn3  v104
 BYTE   W42
 BYTE   N02  Cn3  v096
 BYTE   W03
 BYTE   Dn3  v092
 BYTE   W03
 BYTE   N32  Ds3  v108
 BYTE   W32
 BYTE   W02
// 012   ----------------------------------------
 BYTE   W08
 BYTE   N02  Dn3  v092
 BYTE   W03
 BYTE   Cn3  v096
 BYTE   W03
 BYTE   N44  Dn3  v112
 BYTE   W80
 BYTE   W02
// 013   ----------------------------------------
 BYTE   W08
 BYTE   VOL   53*FE05BaseRSflame_mvl/mxv
 BYTE   W01
 BYTE   N02  Ds3  v116
 BYTE   W03
 BYTE   Fn3  v120
 BYTE   W03
 BYTE   N17  Gn3
 BYTE   W21
 BYTE   N02  Ds3  v116
 BYTE   W03
 BYTE   N09  As2
 BYTE   W12
 BYTE   Gn3
 BYTE   W12
 BYTE   N14  Gn3  v124
 BYTE   W18
 BYTE   N02  An3
 BYTE   W03
 BYTE   Gn3  v108
 BYTE   W03
 BYTE   N05  Fs3  v120
 BYTE   W09
// 014   ----------------------------------------
 BYTE   W03
 BYTE   N09  Dn3  v108
 BYTE   W12
 BYTE   N14  As3  v112
 BYTE   W18
 BYTE   N02
 BYTE   W06
 BYTE   N07  An3  v108
 BYTE   W09
 BYTE   Gn3  v116
 BYTE   W09
 BYTE   N05  Fn3
 BYTE   W06
 BYTE   N32  Gn3  v108
 BYTE   W32
 BYTE   W01
// 015   ----------------------------------------
 BYTE   W06
 BYTE   N02  As2  v116
 BYTE   W03
 BYTE   Ds3  v104
 BYTE   W03
 BYTE   Gn3  v096
 BYTE   W03
 BYTE   N32  Gn3  v112
 BYTE   W42
 BYTE   N02  Fs3  v108
 BYTE   W03
 BYTE   Gn3  v096
 BYTE   W03
 BYTE   N32  An3  v108
 BYTE   W32
 BYTE   W01
// 016   ----------------------------------------
 BYTE   GoTo
  POIN2 Label_4_01021621
// 017   ----------------------------------------
 BYTE   W08
 BYTE   VOL   78*FE05BaseRSflame_mvl/mxv
 BYTE   PAN   c_v+14
 BYTE   N01  Fn2  v116
 BYTE   W03
 BYTE   As2  v112
 BYTE   W13
 BYTE   FINE

//**************** Track 6 (Midi-Chn.5) ****************//

FE05BaseRSflame_006:
// 000   ----------------------------------------
 BYTE   KEYSH   FE05BaseRSflame_key+0
 BYTE   VOICE   40
 BYTE   W13
 BYTE   VOL   69*FE05BaseRSflame_mvl/mxv
 BYTE   PAN   c_v+14
 BYTE   TIE  As0  v124
 BYTE   W11
Label_5_010217DD:
 BYTE   W72
// 001   ----------------------------------------
 BYTE   W96
// 002   ----------------------------------------
 BYTE   W04
 BYTE   EOT
 BYTE   As0
 BYTE   W09
 BYTE   TIE  As0  v124
 BYTE   W80
 BYTE   W03
// 003   ----------------------------------------
 BYTE   W96
// 004   ----------------------------------------
 BYTE   W03
 BYTE   EOT
 BYTE   W04
 BYTE   N03  An0  v116
 BYTE   W06
 BYTE   Gn0  v127
 BYTE   W06
 BYTE   N04
 BYTE   W18
 BYTE   N03  Fn0
 BYTE   W06
 BYTE   Fn0  v124
 BYTE   W18
 BYTE   Ds0  v127
 BYTE   W06
 BYTE   N04
 BYTE   W18
 BYTE   N02  Dn0  v124
 BYTE   W06
 BYTE   N04  Dn0  v120
 BYTE   W05
// 005   ----------------------------------------
 BYTE   W13
 BYTE   N02  Gn0  v124
 BYTE   W06
 BYTE   N03  Gn0  v127
 BYTE   W18
 BYTE   N02  An0
 BYTE   W06
 BYTE   N03
 BYTE   W18
 BYTE   N02  As0  v124
 BYTE   W06
 BYTE   N04  As0  v127
 BYTE   W18
 BYTE   N02  As0  v124
 BYTE   W06
 BYTE   N04
 BYTE   W05
// 006   ----------------------------------------
 BYTE   W07
 BYTE   N02  An0
 BYTE   W06
 BYTE   N03  Gn0  v127
 BYTE   W06
 BYTE   N04  Gn0  v116
 BYTE   W18
 BYTE   N02  Fn0  v124
 BYTE   W06
 BYTE   N03  Fn0  v120
 BYTE   W18
 BYTE   N02  Ds0  v124
 BYTE   W06
 BYTE   N03
 BYTE   W18
 BYTE   N02  Dn0
 BYTE   W06
 BYTE   N03  Dn0  v120
 BYTE   W05
// 007   ----------------------------------------
 BYTE   W13
 BYTE   N02  Gs0  v124
 BYTE   W06
 BYTE   N03  Gs0  v127
 BYTE   W18
 BYTE   N02
 BYTE   W06
 BYTE   N03  Gs0  v124
 BYTE   W18
 BYTE   N02  Fn0  v127
 BYTE   W06
 BYTE   N02
 BYTE   W12
 BYTE   N01
 BYTE   W03
 BYTE   Fn0  v124
 BYTE   W03
 BYTE   N02  Fn0  v127
 BYTE   W06
 BYTE   N03
 BYTE   W05
// 008   ----------------------------------------
 BYTE   W14
 BYTE   PAN   c_v-54
 BYTE   BnM2
 BYTE   TIE  As0  v120
 BYTE   W01
 BYTE   PAN   c_v-52
 BYTE   W02
 BYTE   CsM1
 BYTE   W01
 BYTE   DnM1
 BYTE   W01
 BYTE   DsM1
 BYTE   W01
 BYTE   EnM1
 BYTE   W01
 BYTE   FnM1
 BYTE   W02
 BYTE   FsM1
 BYTE   W01
 BYTE   GnM1
 BYTE   W01
 BYTE   GsM1
 BYTE   W01
 BYTE   AnM1
 BYTE   W01
 BYTE   AsM1
 BYTE   W02
 BYTE   BnM1
 BYTE   W01
 BYTE   Cn0
 BYTE   W01
 BYTE   Cs0
 BYTE   W01
 BYTE   Dn0
 BYTE   W02
 BYTE   Ds0
 BYTE   W01
 BYTE   En0
 BYTE   W01
 BYTE   Fn0
 BYTE   W01
 BYTE   Fs0
 BYTE   W01
 BYTE   Gn0
 BYTE   W02
 BYTE   Gs0
 BYTE   W01
 BYTE   An0
 BYTE   W01
 BYTE   As0
 BYTE   W01
 BYTE   Bn0
 BYTE   W01
 BYTE   Cn1
 BYTE   W02
 BYTE   Cs1
 BYTE   W01
 BYTE   Dn1
 BYTE   W01
 BYTE   Ds1
 BYTE   W01
 BYTE   En1
 BYTE   W02
 BYTE   Fn1
 BYTE   W01
 BYTE   Fs1
 BYTE   W01
 BYTE   Gn1
 BYTE   W01
 BYTE   Gs1
 BYTE   W01
 BYTE   An1
 BYTE   W02
 BYTE   As1
 BYTE   W01
 BYTE   Bn1
 BYTE   W01
 BYTE   Cn2
 BYTE   W01
 BYTE   Cs2
 BYTE   W01
 BYTE   Dn2
 BYTE   W02
 BYTE   Ds2
 BYTE   W01
 BYTE   En2
 BYTE   W01
 BYTE   Fn2
 BYTE   W01
 BYTE   Fs2
 BYTE   W02
 BYTE   Gn2
 BYTE   W01
 BYTE   Gs2
 BYTE   W01
 BYTE   An2
 BYTE   W01
 BYTE   As2
 BYTE   W01
 BYTE   Bn2
 BYTE   W02
 BYTE   Cn3
 BYTE   W01
 BYTE   Cs3
 BYTE   W01
 BYTE   Dn3
 BYTE   W01
 BYTE   Ds3
 BYTE   W02
 BYTE   En3
 BYTE   W01
 BYTE   Fn3
 BYTE   W01
 BYTE   Fs3
 BYTE   W01
 BYTE   Gn3
 BYTE   W01
 BYTE   Gs3
 BYTE   W02
 BYTE   An3
 BYTE   W01
 BYTE   As3
 BYTE   W01
 BYTE   Bn3
 BYTE   W01
 BYTE   Cn4
 BYTE   W01
 BYTE   Cs4
 BYTE   W02
 BYTE   Dn4
 BYTE   W01
 BYTE   Ds4
 BYTE   W01
 BYTE   En4
 BYTE   W01
 BYTE   Fn4
 BYTE   W02
// 009   ----------------------------------------
 BYTE   Fs4
 BYTE   W01
 BYTE   Gn4
 BYTE   W01
 BYTE   Gs4
 BYTE   W01
 BYTE   An4
 BYTE   W01
 BYTE   As4
 BYTE   W02
 BYTE   Bn4
 BYTE   W01
 BYTE   Cn5
 BYTE   W01
 BYTE   Cs5
 BYTE   W01
 BYTE   Dn5
 BYTE   W01
 BYTE   Ds5
 BYTE   W02
 BYTE   En5
 BYTE   W01
 BYTE   Fn5
 BYTE   W01
 BYTE   En5
 BYTE   W01
 BYTE   Ds5
 BYTE   W02
 BYTE   Dn5
 BYTE   W01
 BYTE   Cs5
 BYTE   W01
 BYTE   Cn5
 BYTE   W01
 BYTE   Bn4
 BYTE   W01
 BYTE   As4
 BYTE   W02
 BYTE   An4
 BYTE   W01
 BYTE   Gs4
 BYTE   W01
 BYTE   Gn4
 BYTE   W01
 BYTE   Fs4
 BYTE   W01
 BYTE   Fn4
 BYTE   W02
 BYTE   En4
 BYTE   W01
 BYTE   Ds4
 BYTE   W01
 BYTE   Dn4
 BYTE   W01
 BYTE   Cs4
 BYTE   W02
 BYTE   Cn4
 BYTE   W01
 BYTE   Bn3
 BYTE   W01
 BYTE   As3
 BYTE   W01
 BYTE   An3
 BYTE   W01
 BYTE   Gs3
 BYTE   W02
 BYTE   Gn3
 BYTE   W01
 BYTE   Fs3
 BYTE   W01
 BYTE   Fn3
 BYTE   W01
 BYTE   En3
 BYTE   W01
 BYTE   Ds3
 BYTE   W02
 BYTE   Dn3
 BYTE   W01
 BYTE   Cs3
 BYTE   W01
 BYTE   Cn3
 BYTE   W01
 BYTE   Bn2
 BYTE   W02
 BYTE   As2
 BYTE   W01
 BYTE   An2
 BYTE   W01
 BYTE   Gs2
 BYTE   W01
 BYTE   Gn2
 BYTE   W01
 BYTE   Fs2
 BYTE   W02
 BYTE   Fn2
 BYTE   W01
 BYTE   En2
 BYTE   W01
 BYTE   Ds2
 BYTE   W01
 BYTE   Dn2
 BYTE   W02
 BYTE   Cs2
 BYTE   W01
 BYTE   Cn2
 BYTE   W01
 BYTE   Bn1
 BYTE   W01
 BYTE   As1
 BYTE   W01
 BYTE   An1
 BYTE   W02
 BYTE   Gs1
 BYTE   W01
 BYTE   Gn1
 BYTE   W01
 BYTE   Fs1
 BYTE   W01
 BYTE   Fn1
 BYTE   W01
 BYTE   En1
 BYTE   W02
 BYTE   Ds1
 BYTE   W01
 BYTE   Dn1
 BYTE   W01
 BYTE   Cs1
 BYTE   W01
 BYTE   Cn1
 BYTE   W02
 BYTE   Bn0
 BYTE   W01
 BYTE   As0
 BYTE   W01
 BYTE   An0
 BYTE   W01
 BYTE   Gs0
 BYTE   W01
 BYTE   Gn0
 BYTE   W02
 BYTE   Fs0
 BYTE   W01
 BYTE   Fn0
 BYTE   W01
 BYTE   En0
 BYTE   W01
 BYTE   Ds0
 BYTE   W01
 BYTE   Dn0
 BYTE   W02
 BYTE   Cs0
 BYTE   W01
 BYTE   Cn0
 BYTE   W01
 BYTE   BnM1
 BYTE   W01
 BYTE   AsM1
 BYTE   W02
// 010   ----------------------------------------
 BYTE   AnM1
 BYTE   W01
 BYTE   GsM1
 BYTE   W01
 BYTE   GnM1
 BYTE   W01
 BYTE   FsM1
 BYTE   W01
 BYTE   FnM1
 BYTE   W02
 BYTE   EnM1
 BYTE   W01
 BYTE   DsM1
 BYTE   W01
 BYTE   DnM1
 BYTE   W01
 BYTE   CsM1
 BYTE   W01
 BYTE   CnM1
 BYTE   W02
 BYTE   BnM2
 BYTE   W01
 BYTE   AsM2
 BYTE   W01
 BYTE   BnM2
 BYTE   W01
 BYTE   CnM1
 BYTE   W02
 BYTE   CsM1
 BYTE   W01
 BYTE   DnM1
 BYTE   W01
 BYTE   DsM1
 BYTE   W01
 BYTE   EnM1
 BYTE   W01
 BYTE   FnM1
 BYTE   W02
 BYTE   FsM1
 BYTE   W01
 BYTE   GnM1
 BYTE   W01
 BYTE   GsM1
 BYTE   W01
 BYTE   AnM1
 BYTE   W01
 BYTE   AsM1
 BYTE   W02
 BYTE   BnM1
 BYTE   W01
 BYTE   Cn0
 BYTE   W01
 BYTE   Cs0
 BYTE   W01
 BYTE   Dn0
 BYTE   W02
 BYTE   Ds0
 BYTE   W01
 BYTE   En0
 BYTE   W01
 BYTE   Fn0
 BYTE   W01
 BYTE   Fs0
 BYTE   W01
 BYTE   Gn0
 BYTE   W02
 BYTE   Gs0
 BYTE   W01
 BYTE   An0
 BYTE   W01
 BYTE   As0
 BYTE   W01
 BYTE   Bn0
 BYTE   W01
 BYTE   Cn1
 BYTE   W02
 BYTE   Cs1
 BYTE   W01
 BYTE   Dn1
 BYTE   W01
 BYTE   Ds1
 BYTE   W01
 BYTE   En1
 BYTE   W02
 BYTE   Fn1
 BYTE   W01
 BYTE   Fs1
 BYTE   W01
 BYTE   Gn1
 BYTE   W01
 BYTE   Gs1
 BYTE   W01
 BYTE   An1
 BYTE   W02
 BYTE   As1
 BYTE   W01
 BYTE   Bn1
 BYTE   W01
 BYTE   Cn2
 BYTE   W01
 BYTE   Cs2
 BYTE   W01
 BYTE   Dn2
 BYTE   W02
 BYTE   Ds2
 BYTE   W01
 BYTE   En2
 BYTE   W01
 BYTE   Fn2
 BYTE   W01
 BYTE   Fs2
 BYTE   W02
 BYTE   Gn2
 BYTE   W01
 BYTE   Gs2
 BYTE   W01
 BYTE   An2
 BYTE   W01
 BYTE   As2
 BYTE   W01
 BYTE   Bn2
 BYTE   W02
 BYTE   Cn3
 BYTE   W01
 BYTE   Cs3
 BYTE   W01
 BYTE   Dn3
 BYTE   W01
 BYTE   Ds3
 BYTE   W02
 BYTE   En3
 BYTE   W01
 BYTE   Fn3
 BYTE   W01
 BYTE   Fs3
 BYTE   W01
 BYTE   Gn3
 BYTE   W01
 BYTE   Gs3
 BYTE   W02
 BYTE   An3
 BYTE   W01
 BYTE   As3
 BYTE   W01
 BYTE   Bn3
 BYTE   W01
 BYTE   Cn4
 BYTE   W01
 BYTE   Cs4
 BYTE   W02
 BYTE   Dn4
 BYTE   W01
 BYTE   Ds4
 BYTE   W01
 BYTE   En4
 BYTE   W01
 BYTE   Fn4
 BYTE   W02
// 011   ----------------------------------------
 BYTE   Fs4
 BYTE   W01
 BYTE   Gn4
 BYTE   W01
 BYTE   Gs4
 BYTE   W01
 BYTE   An4
 BYTE   W01
 BYTE   As4
 BYTE   W02
 BYTE   Bn4
 BYTE   W01
 BYTE   Cn5
 BYTE   W01
 BYTE   Cs5
 BYTE   W01
 BYTE   Dn5
 BYTE   W01
 BYTE   EOT
 BYTE   PAN   c_v+23
 BYTE   W02
 BYTE   En5
 BYTE   W01
 BYTE   Fn5
 BYTE   W01
 BYTE   En5
 BYTE   TIE  Gn0  v124
 BYTE   W01
 BYTE   PAN   c_v+23
 BYTE   W02
 BYTE   Dn5
 BYTE   W01
 BYTE   Cs5
 BYTE   W01
 BYTE   Cn5
 BYTE   W01
 BYTE   Bn4
 BYTE   W01
 BYTE   As4
 BYTE   W02
 BYTE   An4
 BYTE   W01
 BYTE   Gs4
 BYTE   W01
 BYTE   Gn4
 BYTE   W01
 BYTE   Fs4
 BYTE   W01
 BYTE   Fn4
 BYTE   W02
 BYTE   En4
 BYTE   W01
 BYTE   Ds4
 BYTE   W01
 BYTE   Dn4
 BYTE   W01
 BYTE   Cs4
 BYTE   W02
 BYTE   Cn4
 BYTE   W01
 BYTE   Bn3
 BYTE   W01
 BYTE   As3
 BYTE   W01
 BYTE   An3
 BYTE   W01
 BYTE   Gs3
 BYTE   W02
 BYTE   Gn3
 BYTE   W01
 BYTE   Fs3
 BYTE   W01
 BYTE   Fn3
 BYTE   W01
 BYTE   En3
 BYTE   W01
 BYTE   Ds3
 BYTE   W02
 BYTE   Dn3
 BYTE   W01
 BYTE   Cs3
 BYTE   W01
 BYTE   Cn3
 BYTE   W01
 BYTE   Bn2
 BYTE   W02
 BYTE   As2
 BYTE   W01
 BYTE   An2
 BYTE   W01
 BYTE   Gs2
 BYTE   W01
 BYTE   Gn2
 BYTE   W01
 BYTE   Fs2
 BYTE   W02
 BYTE   Fn2
 BYTE   W01
 BYTE   En2
 BYTE   W01
 BYTE   Ds2
 BYTE   W01
 BYTE   Dn2
 BYTE   W02
 BYTE   Cs2
 BYTE   W01
 BYTE   Cn2
 BYTE   W01
 BYTE   Bn1
 BYTE   W01
 BYTE   As1
 BYTE   W01
 BYTE   An1
 BYTE   W02
 BYTE   Gs1
 BYTE   W01
 BYTE   Gn1
 BYTE   W01
 BYTE   Fs1
 BYTE   W01
 BYTE   Fn1
 BYTE   W01
 BYTE   En1
 BYTE   W02
 BYTE   Ds1
 BYTE   W01
 BYTE   Dn1
 BYTE   W01
 BYTE   Cs1
 BYTE   W01
 BYTE   Cn1
 BYTE   W02
 BYTE   Bn0
 BYTE   W01
 BYTE   As0
 BYTE   W01
 BYTE   An0
 BYTE   W01
 BYTE   Gs0
 BYTE   W01
 BYTE   Gn0
 BYTE   W02
 BYTE   Fs0
 BYTE   W01
 BYTE   Fn0
 BYTE   W01
 BYTE   En0
 BYTE   W01
 BYTE   Ds0
 BYTE   W01
 BYTE   Dn0
 BYTE   W02
 BYTE   Cs0
 BYTE   W01
 BYTE   Cn0
 BYTE   W01
 BYTE   BnM1
 BYTE   W01
 BYTE   AsM1
 BYTE   W02
// 012   ----------------------------------------
 BYTE   AnM1
 BYTE   W01
 BYTE   GsM1
 BYTE   W01
 BYTE   GnM1
 BYTE   W01
 BYTE   FsM1
 BYTE   W01
 BYTE   FnM1
 BYTE   W02
 BYTE   EnM1
 BYTE   W01
 BYTE   DsM1
 BYTE   W01
 BYTE   DnM1
 BYTE   W01
 BYTE   CsM1
 BYTE   W01
 BYTE   CnM1
 BYTE   W02
 BYTE   BnM2
 BYTE   W01
 BYTE   AsM2
 BYTE   W01
 BYTE   BnM2
 BYTE   W01
 BYTE   CnM1
 BYTE   W02
 BYTE   CsM1
 BYTE   W01
 BYTE   DnM1
 BYTE   W01
 BYTE   DsM1
 BYTE   W01
 BYTE   EnM1
 BYTE   W01
 BYTE   FnM1
 BYTE   W02
 BYTE   FsM1
 BYTE   W01
 BYTE   GnM1
 BYTE   W01
 BYTE   GsM1
 BYTE   W01
 BYTE   AnM1
 BYTE   W01
 BYTE   AsM1
 BYTE   W02
 BYTE   BnM1
 BYTE   W01
 BYTE   Cn0
 BYTE   W01
 BYTE   Cs0
 BYTE   W01
 BYTE   Dn0
 BYTE   W02
 BYTE   Ds0
 BYTE   W01
 BYTE   En0
 BYTE   W01
 BYTE   Fn0
 BYTE   W01
 BYTE   Fs0
 BYTE   W01
 BYTE   Gn0
 BYTE   W02
 BYTE   Gs0
 BYTE   W01
 BYTE   An0
 BYTE   W01
 BYTE   As0
 BYTE   W01
 BYTE   Bn0
 BYTE   W01
 BYTE   Cn1
 BYTE   W02
 BYTE   Cs1
 BYTE   W01
 BYTE   Dn1
 BYTE   W01
 BYTE   Ds1
 BYTE   W01
 BYTE   En1
 BYTE   W02
 BYTE   Fn1
 BYTE   W01
 BYTE   Fs1
 BYTE   W01
 BYTE   Gn1
 BYTE   W01
 BYTE   Gs1
 BYTE   W01
 BYTE   An1
 BYTE   W02
 BYTE   As1
 BYTE   W01
 BYTE   Bn1
 BYTE   W01
 BYTE   Cn2
 BYTE   W01
 BYTE   Cs2
 BYTE   W01
 BYTE   Dn2
 BYTE   W02
 BYTE   Ds2
 BYTE   W01
 BYTE   En2
 BYTE   W01
 BYTE   Fn2
 BYTE   W01
 BYTE   Fs2
 BYTE   W02
 BYTE   Gn2
 BYTE   W01
 BYTE   Gs2
 BYTE   W01
 BYTE   An2
 BYTE   W01
 BYTE   As2
 BYTE   W01
 BYTE   Bn2
 BYTE   W02
 BYTE   Cn3
 BYTE   W01
 BYTE   Cs3
 BYTE   W01
 BYTE   Dn3
 BYTE   W01
 BYTE   Ds3
 BYTE   W02
 BYTE   En3
 BYTE   W01
 BYTE   Fn3
 BYTE   W01
 BYTE   Fs3
 BYTE   W01
 BYTE   Gn3
 BYTE   W01
 BYTE   Gs3
 BYTE   W02
 BYTE   An3
 BYTE   W01
 BYTE   As3
 BYTE   W01
 BYTE   Bn3
 BYTE   W01
 BYTE   Cn4
 BYTE   W01
 BYTE   Cs4
 BYTE   W02
 BYTE   Dn4
 BYTE   W01
 BYTE   Ds4
 BYTE   W01
 BYTE   EOT
 BYTE   PAN   c_v+12
 BYTE   W01
 BYTE   Fn4
 BYTE   W02
// 013   ----------------------------------------
 BYTE   Fs4
 BYTE   W01
 BYTE   Gn4
 BYTE   W01
 BYTE   Gs4
 BYTE   N11  Fn1
 BYTE   W01
 BYTE   PAN   c_v+17
 BYTE   W01
 BYTE   As4
 BYTE   W02
 BYTE   Bn4
 BYTE   W01
 BYTE   Cn5
 BYTE   W01
 BYTE   Cs5
 BYTE   W01
 BYTE   Dn5
 BYTE   W01
 BYTE   Ds5
 BYTE   W02
 BYTE   En5
 BYTE   W01
 BYTE   Fn5
 BYTE   W01
 BYTE   En5
 BYTE   N44  Ds1  v120
 BYTE   W01
 BYTE   PAN   c_v+23
 BYTE   W02
 BYTE   Dn5
 BYTE   W01
 BYTE   Cs5
 BYTE   W01
 BYTE   Cn5
 BYTE   W01
 BYTE   Bn4
 BYTE   W01
 BYTE   As4
 BYTE   W02
 BYTE   An4
 BYTE   W01
 BYTE   Gs4
 BYTE   W01
 BYTE   Gn4
 BYTE   W01
 BYTE   Fs4
 BYTE   W01
 BYTE   Fn4
 BYTE   W02
 BYTE   En4
 BYTE   W01
 BYTE   Ds4
 BYTE   W01
 BYTE   Dn4
 BYTE   W01
 BYTE   Cs4
 BYTE   W02
 BYTE   Cn4
 BYTE   W01
 BYTE   Bn3
 BYTE   W01
 BYTE   As3
 BYTE   W01
 BYTE   An3
 BYTE   W01
 BYTE   Gs3
 BYTE   W02
 BYTE   Gn3
 BYTE   W01
 BYTE   Fs3
 BYTE   W01
 BYTE   Fn3
 BYTE   W01
 BYTE   En3
 BYTE   W01
 BYTE   Ds3
 BYTE   W02
 BYTE   Dn3
 BYTE   W01
 BYTE   Cs3
 BYTE   W01
 BYTE   Cn3
 BYTE   W01
 BYTE   Bn2
 BYTE   W02
 BYTE   As2
 BYTE   W01
 BYTE   An2
 BYTE   W01
 BYTE   Gs2
 BYTE   W01
 BYTE   Gn2
 BYTE   W01
 BYTE   Fs2
 BYTE   W02
 BYTE   Fn2
 BYTE   W01
 BYTE   En2
 BYTE   W01
 BYTE   Ds2
 BYTE   W01
 BYTE   Dn2
 BYTE   W02
 BYTE   Cs2
 BYTE   N44  Dn1  v124
 BYTE   W01
 BYTE   PAN   c_v-16
 BYTE   W01
 BYTE   Bn1
 BYTE   W01
 BYTE   As1
 BYTE   W01
 BYTE   An1
 BYTE   W02
 BYTE   Gs1
 BYTE   W01
 BYTE   Gn1
 BYTE   W01
 BYTE   Fs1
 BYTE   W01
 BYTE   Fn1
 BYTE   W01
 BYTE   En1
 BYTE   W02
 BYTE   Ds1
 BYTE   W01
 BYTE   Dn1
 BYTE   W01
 BYTE   Cs1
 BYTE   W01
 BYTE   Cn1
 BYTE   W02
 BYTE   Bn0
 BYTE   W01
 BYTE   As0
 BYTE   W01
 BYTE   An0
 BYTE   W01
 BYTE   Gs0
 BYTE   W01
 BYTE   Gn0
 BYTE   W02
 BYTE   Fs0
 BYTE   W01
 BYTE   Fn0
 BYTE   W01
 BYTE   En0
 BYTE   W01
 BYTE   Ds0
 BYTE   W01
 BYTE   Dn0
 BYTE   W02
 BYTE   Cs0
 BYTE   W01
 BYTE   Cn0
 BYTE   W01
 BYTE   BnM1
 BYTE   W01
 BYTE   AsM1
 BYTE   W02
// 014   ----------------------------------------
 BYTE   AnM1
 BYTE   W01
 BYTE   GsM1
 BYTE   W01
 BYTE   GnM1
 BYTE   W01
 BYTE   FsM1
 BYTE   W01
 BYTE   FnM1
 BYTE   W02
 BYTE   EnM1
 BYTE   W01
 BYTE   DsM1
 BYTE   W01
 BYTE   DnM1
 BYTE   W01
 BYTE   CsM1
 BYTE   W01
 BYTE   CnM1
 BYTE   W02
 BYTE   BnM2
 BYTE   W01
 BYTE   AsM2
 BYTE   W01
 BYTE   BnM2
 BYTE   N23  Gn1  v120
 BYTE   W01
 BYTE   PAN   c_v-52
 BYTE   W02
 BYTE   CsM1
 BYTE   W01
 BYTE   DnM1
 BYTE   W01
 BYTE   DsM1
 BYTE   W01
 BYTE   EnM1
 BYTE   W01
 BYTE   FnM1
 BYTE   W02
 BYTE   FsM1
 BYTE   W01
 BYTE   GnM1
 BYTE   W01
 BYTE   GsM1
 BYTE   W01
 BYTE   AnM1
 BYTE   W01
 BYTE   AsM1
 BYTE   W02
 BYTE   BnM1
 BYTE   W01
 BYTE   Cn0
 BYTE   W01
 BYTE   Cs0
 BYTE   W01
 BYTE   Dn0
 BYTE   W02
 BYTE   Ds0
 BYTE   W01
 BYTE   En0
 BYTE   W01
 BYTE   Fn0
 BYTE   W01
 BYTE   Fs0
 BYTE   W01
 BYTE   Gn0
 BYTE   N23  Fn1  v124
 BYTE   W02
 BYTE   PAN   c_v-32
 BYTE   W01
 BYTE   An0
 BYTE   W01
 BYTE   As0
 BYTE   W01
 BYTE   Bn0
 BYTE   W01
 BYTE   Cn1
 BYTE   W02
 BYTE   Cs1
 BYTE   W01
 BYTE   Dn1
 BYTE   W01
 BYTE   Ds1
 BYTE   W01
 BYTE   En1
 BYTE   W02
 BYTE   Fn1
 BYTE   W01
 BYTE   Fs1
 BYTE   W01
 BYTE   Gn1
 BYTE   W01
 BYTE   Gs1
 BYTE   W01
 BYTE   An1
 BYTE   W02
 BYTE   As1
 BYTE   W01
 BYTE   Bn1
 BYTE   W01
 BYTE   Cn2
 BYTE   W01
 BYTE   Cs2
 BYTE   W01
 BYTE   Dn2
 BYTE   W01
 BYTE   N42  Ds1  v116
 BYTE   W01
 BYTE   PAN   c_v-13
 BYTE   W01
 BYTE   En2
 BYTE   W01
 BYTE   Fn2
 BYTE   W01
 BYTE   Fs2
 BYTE   W02
 BYTE   Gn2
 BYTE   W01
 BYTE   Gs2
 BYTE   W01
 BYTE   An2
 BYTE   W01
 BYTE   As2
 BYTE   W01
 BYTE   Bn2
 BYTE   W02
 BYTE   Cn3
 BYTE   W01
 BYTE   Cs3
 BYTE   W01
 BYTE   Dn3
 BYTE   W01
 BYTE   Ds3
 BYTE   W02
 BYTE   En3
 BYTE   W01
 BYTE   Fn3
 BYTE   W01
 BYTE   Fs3
 BYTE   W01
 BYTE   Gn3
 BYTE   W01
 BYTE   Gs3
 BYTE   W02
 BYTE   An3
 BYTE   W01
 BYTE   As3
 BYTE   W01
 BYTE   Bn3
 BYTE   W01
 BYTE   Cn4
 BYTE   W01
 BYTE   Cs4
 BYTE   W02
 BYTE   Dn4
 BYTE   W01
 BYTE   Ds4
 BYTE   W01
 BYTE   En4
 BYTE   W01
 BYTE   Fn4
 BYTE   W02
// 015   ----------------------------------------
 BYTE   Fs4
 BYTE   W01
 BYTE   Gn4
 BYTE   W01
 BYTE   Gs4
 BYTE   W01
 BYTE   An4
 BYTE   W01
 BYTE   As4
 BYTE   W02
 BYTE   Bn4
 BYTE   W01
 BYTE   Cn5
 BYTE   W01
 BYTE   Cs5
 BYTE   W01
 BYTE   Dn5
 BYTE   W01
 BYTE   Ds5
 BYTE   W02
 BYTE   En5
 BYTE   W01
 BYTE   Fn5
 BYTE   W01
 BYTE   En5
 BYTE   N44  Dn1  v120
 BYTE   W01
 BYTE   PAN   c_v+23
 BYTE   W02
 BYTE   Dn5
 BYTE   W01
 BYTE   Cs5
 BYTE   W01
 BYTE   Cn5
 BYTE   W01
 BYTE   Bn4
 BYTE   W01
 BYTE   As4
 BYTE   W02
 BYTE   An4
 BYTE   W01
 BYTE   Gs4
 BYTE   W01
 BYTE   Gn4
 BYTE   W01
 BYTE   Fs4
 BYTE   W01
 BYTE   Fn4
 BYTE   W02
 BYTE   En4
 BYTE   W01
 BYTE   Ds4
 BYTE   W01
 BYTE   Dn4
 BYTE   W01
 BYTE   Cs4
 BYTE   W02
 BYTE   Cn4
 BYTE   W01
 BYTE   Bn3
 BYTE   W01
 BYTE   As3
 BYTE   W01
 BYTE   An3
 BYTE   W01
 BYTE   Gs3
 BYTE   W02
 BYTE   Gn3
 BYTE   W01
 BYTE   Fs3
 BYTE   W01
 BYTE   Fn3
 BYTE   W01
 BYTE   En3
 BYTE   W01
 BYTE   Ds3
 BYTE   W02
 BYTE   Dn3
 BYTE   W01
 BYTE   Cs3
 BYTE   W01
 BYTE   Cn3
 BYTE   W01
 BYTE   Bn2
 BYTE   W02
 BYTE   As2
 BYTE   W01
 BYTE   An2
 BYTE   W01
 BYTE   Gs2
 BYTE   W01
 BYTE   Gn2
 BYTE   W01
 BYTE   Fs2
 BYTE   W02
 BYTE   Fn2
 BYTE   W01
 BYTE   En2
 BYTE   W01
 BYTE   Ds2
 BYTE   W01
 BYTE   Dn2
 BYTE   W02
 BYTE   Cs2
 BYTE   N23  Dn1  v124
 BYTE   W01
 BYTE   PAN   c_v-16
 BYTE   W01
 BYTE   Bn1
 BYTE   W01
 BYTE   As1
 BYTE   W01
 BYTE   An1
 BYTE   W02
 BYTE   Gs1
 BYTE   W01
 BYTE   Gn1
 BYTE   W01
 BYTE   Fs1
 BYTE   W01
 BYTE   Fn1
 BYTE   W01
 BYTE   En1
 BYTE   W02
 BYTE   Ds1
 BYTE   W01
 BYTE   Dn1
 BYTE   W01
 BYTE   Cs1
 BYTE   W01
 BYTE   Cn1
 BYTE   W02
 BYTE   Bn0
 BYTE   W01
 BYTE   As0
 BYTE   W01
 BYTE   An0
 BYTE   W01
 BYTE   Gs0
 BYTE   W01
 BYTE   Gn0
 BYTE   W02
 BYTE   Fs0
 BYTE   W01
 BYTE   Fn0
 BYTE   W01
 BYTE   En0
 BYTE   W01
 BYTE   Ds0
 BYTE   W01
 BYTE   Dn0
 BYTE   W02
 BYTE   Cs0
 BYTE   W01
 BYTE   Cn0
 BYTE   N07
 BYTE   W01
 BYTE   PAN   c_v-41
 BYTE   W01
 BYTE   AsM1
 BYTE   W02
// 016   ----------------------------------------
 BYTE   GoTo
  POIN2 Label_5_010217DD
// 017   ----------------------------------------
 BYTE   PAN   c_v-43
 BYTE   W01
 BYTE   GsM1
 BYTE   W01
 BYTE   GnM1
 BYTE   W01
 BYTE   FsM1
 BYTE   W01
 BYTE   FnM1
 BYTE   W02
 BYTE   EnM1
 BYTE   W01
 BYTE   DsM1
 BYTE   W01
 BYTE   DnM1
 BYTE   W01
 BYTE   CsM1
 BYTE   W01
 BYTE   CnM1
 BYTE   W02
 BYTE   BnM2
 BYTE   W01
 BYTE   AsM2
 BYTE   W11
 BYTE   FINE

//**************** Track 7 (Midi-Chn.6) ****************//

FE05BaseRSflame_007:
// 000   ----------------------------------------
 BYTE   KEYSH   FE05BaseRSflame_key+0
 BYTE   VOICE   42
 BYTE   W06
 BYTE   VOL   78*FE05BaseRSflame_mvl/mxv
 BYTE   PAN   c_v+14
 BYTE   N01  Fn2  v116
 BYTE   W03
 BYTE   As2  v112
 BYTE   W04
 BYTE   VOL   53*FE05BaseRSflame_mvl/mxv
 BYTE   W11
Label_6_55ED4B:
 BYTE   W72
// 001   ----------------------------------------
 BYTE   W96
// 002   ----------------------------------------
 BYTE   W96
// 003   ----------------------------------------
 BYTE   W96
// 004   ----------------------------------------
 BYTE   W96
// 005   ----------------------------------------
 BYTE   W96
// 006   ----------------------------------------
 BYTE   W96
// 007   ----------------------------------------
 BYTE   W96
// 008   ----------------------------------------
 BYTE   W14
 BYTE   VOL   53*FE05BaseRSflame_mvl/mxv
 BYTE   W80
 BYTE   W02
// 009   ----------------------------------------
 BYTE   W96
// 010   ----------------------------------------
 BYTE   W96
// 011   ----------------------------------------
 BYTE   W96
// 012   ----------------------------------------
 BYTE   W96
// 013   ----------------------------------------
 BYTE   W96
// 014   ----------------------------------------
 BYTE   W96
// 015   ----------------------------------------
 BYTE   W96
// 016   ----------------------------------------
 BYTE   GoTo
  POIN2 Label_6_55ED4B
// 017   ----------------------------------------
 BYTE   W24
 BYTE   FINE

//**************** Track 8 (Midi-Chn.7) ****************//

FE05BaseRSflame_008:
// 000   ----------------------------------------
 BYTE   KEYSH   FE05BaseRSflame_key+0
 BYTE   VOICE   127
 BYTE   VOL   52*FE05BaseRSflame_mvl/mxv
 BYTE   W13
 BYTE   N05  Dn1  v127
 BYTE   W06
 BYTE   N11  Dn1  v120
 BYTE   W05
Label_7_01021D9F:
 BYTE   W07
 BYTE   N02  Dn1  v120
 BYTE   W03
 BYTE   Dn1  v116
 BYTE   W03
 BYTE   N05
 BYTE   W06
 BYTE   N11
 BYTE   W12
 BYTE   N05  Dn1  v104
 BYTE   W06
 BYTE   Dn1  v127
 BYTE   W06
 BYTE   N11  Dn1  v120
 BYTE   W12
 BYTE   N02
 BYTE   W03
 BYTE   Dn1  v116
 BYTE   W03
 BYTE   N05
 BYTE   W06
 BYTE   N11
 BYTE   W05
// 001   ----------------------------------------
 BYTE   W07
 BYTE   N05  Dn1  v104
 BYTE   W06
 BYTE   Dn1  v127
 BYTE   W06
 BYTE   N11  Dn1  v120
 BYTE   W12
 BYTE   N02
 BYTE   W03
 BYTE   Dn1  v116
 BYTE   W03
 BYTE   N05
 BYTE   W06
 BYTE   N11
 BYTE   W12
 BYTE   N05  Dn1  v104
 BYTE   W06
 BYTE   Dn1  v124
 BYTE   W06
 BYTE   N11  Dn1  v120
 BYTE   W12
 BYTE   N02  Dn1  v116
 BYTE   W03
 BYTE   Dn1  v104
 BYTE   W03
 BYTE   N05  Dn1  v112
 BYTE   W06
 BYTE   N11
 BYTE   W05
// 002   ----------------------------------------
 BYTE   W07
 BYTE   N01
 BYTE   W02
 BYTE   Dn1  v084
 BYTE   W01
 BYTE   N01
 BYTE   W02
 BYTE   Dn1  v072
 BYTE   W01
 BYTE   N05  Dn1  v127
 BYTE   W06
 BYTE   N11  Dn1  v120
 BYTE   W12
 BYTE   N02
 BYTE   W03
 BYTE   Dn1  v116
 BYTE   W03
 BYTE   N05
 BYTE   W06
 BYTE   N11
 BYTE   W12
 BYTE   N05  Dn1  v104
 BYTE   W06
 BYTE   Dn1  v127
 BYTE   W06
 BYTE   N11  Dn1  v120
 BYTE   W12
 BYTE   N02
 BYTE   W03
 BYTE   Dn1  v116
 BYTE   W03
 BYTE   N05
 BYTE   W06
 BYTE   N11
 BYTE   W05
// 003   ----------------------------------------
 BYTE   W07
 BYTE   N05  Dn1  v104
 BYTE   W06
 BYTE   Dn1  v127
 BYTE   W06
 BYTE   N11  Dn1  v120
 BYTE   W12
 BYTE   N02
 BYTE   W03
 BYTE   Dn1  v116
 BYTE   W03
 BYTE   N05
 BYTE   W06
 BYTE   N11
 BYTE   W12
 BYTE   N05  Dn1  v104
 BYTE   W06
 BYTE   Dn1  v116
 BYTE   W06
 BYTE   N11  Dn1  v108
 BYTE   W12
 BYTE   N02  Dn1  v116
 BYTE   W03
 BYTE   Dn1  v104
 BYTE   W03
 BYTE   N05  Dn1  v116
 BYTE   W06
 BYTE   N11  Dn1  v108
 BYTE   W05
// 004   ----------------------------------------
 BYTE   W07
 BYTE   N01  Dn1  v072
 BYTE   W02
 BYTE   Dn1  v088
 BYTE   W01
 BYTE   Dn1  v096
 BYTE   W02
 BYTE   Dn1  v116
 BYTE   W14
 BYTE   N05  Cn1  v120
 BYTE   W06
 BYTE   N11  Cn1  v112
 BYTE   W12
 BYTE   N02  Cn1  v092
 BYTE   W03
 BYTE   Cn1  v060
 BYTE   W03
 BYTE   N05  Cn1  v124
 BYTE   W06
 BYTE   N05
 BYTE   W12
 BYTE   Cn1  v127
 BYTE   W06
 BYTE   Cn1  v120
 BYTE   W06
 BYTE   N11  Cn1  v112
 BYTE   W12
 BYTE   N02  Cn1  v092
 BYTE   W03
 BYTE   Cn1  v060
 BYTE   W01
// 005   ----------------------------------------
Label_7_01021E7F:
 BYTE   W02
 BYTE   N05  Cn1  v124
 BYTE   W06
 BYTE   N05
 BYTE   W12
 BYTE   Cn1  v127
 BYTE   W06
 BYTE   Cn1  v120
 BYTE   W06
 BYTE   N11  Cn1  v112
 BYTE   W12
 BYTE   N02  Cn1  v092
 BYTE   W03
 BYTE   Cn1  v060
 BYTE   W03
 BYTE   N05  Cn1  v124
 BYTE   W06
 BYTE   N05
 BYTE   W12
 BYTE   Cn1  v127
 BYTE   W06
 BYTE   Cn1  v120
 BYTE   W06
 BYTE   N11  Cn1  v112
 BYTE   W12
 BYTE   N02  Cn1  v092
 BYTE   W03
 BYTE   Cn1  v060
 BYTE   W01
 BYTE   PEND 
// 006   ----------------------------------------
 BYTE   PATT
  POIN2 Label_7_01021E7F
// 007   ----------------------------------------
 BYTE   W02
 BYTE   N05  Cn1  v124
 BYTE   W06
 BYTE   N05
 BYTE   W12
 BYTE   Cn1  v127
 BYTE   W06
 BYTE   Cn1  v120
 BYTE   W06
 BYTE   N11  Cn1  v112
 BYTE   W12
 BYTE   N02  Cn1  v092
 BYTE   W03
 BYTE   Cn1  v060
 BYTE   W03
 BYTE   N05  Cn1  v124
 BYTE   W06
 BYTE   N05
 BYTE   W12
 BYTE   Cn1  v127
 BYTE   W06
 BYTE   N05
 BYTE   W06
 BYTE   N11  Cn1  v100
 BYTE   W12
 BYTE   N02  Cn1  v112
 BYTE   W03
 BYTE   Cn1  v104
 BYTE   W01
// 008   ----------------------------------------
 BYTE   W02
 BYTE   N05  Cn1  v124
 BYTE   W06
 BYTE   Cn1  v127
 BYTE   W06
 BYTE   N05
 BYTE   W06
 BYTE   N02  Cn1  v120
 BYTE   W03
 BYTE   Cn1  v116
 BYTE   W03
 BYTE   N05  Cn1  v124
 BYTE   W06
 BYTE   N17  Cn1  v104
 BYTE   W18
 BYTE   N05  Cn1  v124
 BYTE   W06
 BYTE   N17  Cn1  v120
 BYTE   W18
 BYTE   N05  Cn1  v127
 BYTE   W06
 BYTE   N17  Cn1  v124
 BYTE   W16
// 009   ----------------------------------------
 BYTE   W02
 BYTE   N05  Cn1  v127
 BYTE   W06
 BYTE   N11  Cn1  v116
 BYTE   W12
 BYTE   N02  Cn1  v108
 BYTE   W03
 BYTE   Cn1  v100
 BYTE   W03
 BYTE   N05  Cn1  v120
 BYTE   W06
 BYTE   N17  Cn1  v124
 BYTE   W18
 BYTE   N05
 BYTE   W06
 BYTE   N17
 BYTE   W18
 BYTE   N05
 BYTE   W06
 BYTE   N11
 BYTE   W12
 BYTE   N02  Cn1  v104
 BYTE   W03
 BYTE   Cn1  v096
 BYTE   W01
// 010   ----------------------------------------
 BYTE   W02
 BYTE   N05  Cn1  v116
 BYTE   W06
 BYTE   Cn1  v120
 BYTE   W06
 BYTE   Cn1  v124
 BYTE   W07
 BYTE   N01  Cn1  v064
 BYTE   W02
 BYTE   Cn1  v044
 BYTE   W03
 BYTE   N05  Cn1  v124
 BYTE   W06
 BYTE   N11
 BYTE   W12
 BYTE   N02  Cn1  v100
 BYTE   W03
 BYTE   Cn1  v092
 BYTE   W03
 BYTE   N05  Cn1  v124
 BYTE   W06
 BYTE   N11
 BYTE   W12
 BYTE   N05  Cn1  v112
 BYTE   W06
 BYTE   Cn1  v124
 BYTE   W06
 BYTE   N11
 BYTE   W12
 BYTE   N02  Cn1  v112
 BYTE   W03
 BYTE   Cn1  v104
 BYTE   W01
// 011   ----------------------------------------
 BYTE   W02
 BYTE   N05  Cn1  v124
 BYTE   W06
 BYTE   N05
 BYTE   W06
 BYTE   Cn1  v108
 BYTE   W06
 BYTE   N02  Cn1  v100
 BYTE   W03
 BYTE   Cn1  v076
 BYTE   W03
 BYTE   N05  Cn1  v116
 BYTE   W06
 BYTE   N11  Cn1  v124
 BYTE   W12
 BYTE   N02  Cn1  v108
 BYTE   W03
 BYTE   Cn1  v096
 BYTE   W03
 BYTE   N05  Cn1  v120
 BYTE   W06
 BYTE   N11  Cn1  v127
 BYTE   W12
 BYTE   N05  Cn1  v112
 BYTE   W06
 BYTE   Cn1  v127
 BYTE   W06
 BYTE   N11  Cn1  v124
 BYTE   W12
 BYTE   N02  Cn1  v112
 BYTE   W03
 BYTE   Cn1  v100
 BYTE   W01
// 012   ----------------------------------------
 BYTE   W02
 BYTE   N05  Cn1  v108
 BYTE   W06
 BYTE   Cn1  v120
 BYTE   W06
 BYTE   Cn1  v124
 BYTE   W06
 BYTE   N01  Cn1  v100
 BYTE   W03
 BYTE   Cn1  v088
 BYTE   W01
 BYTE   Cn1  v044
 BYTE   W02
 BYTE   Cn1  v127
 BYTE   W06
 BYTE   Cn1  v068
 BYTE   W03
 BYTE   Cn1  v084
 BYTE   W03
 BYTE   Cn1  v124
 BYTE   W06
 BYTE   Cn1  v076
 BYTE   W03
 BYTE   Cn1  v052
 BYTE   W03
 BYTE   Cn1  v124
 BYTE   W06
 BYTE   Cn1  v120
 BYTE   W12
 BYTE   Cn1  v092
 BYTE   W06
 BYTE   Cn1  v127
 BYTE   W06
 BYTE   Cn1  v068
 BYTE   W03
 BYTE   Cn1  v084
 BYTE   W03
 BYTE   Cn1  v124
 BYTE   W06
 BYTE   Cn1  v076
 BYTE   W03
 BYTE   Cn1  v052
 BYTE   W01
// 013   ----------------------------------------
 BYTE   W02
 BYTE   Cn1  v124
 BYTE   W06
 BYTE   Cn1  v120
 BYTE   W12
 BYTE   Cn1  v092
 BYTE   W06
 BYTE   Cn1  v127
 BYTE   W06
 BYTE   Cn1  v080
 BYTE   W03
 BYTE   Cn1  v064
 BYTE   W03
 BYTE   Cn1  v124
 BYTE   W06
 BYTE   Cn1  v080
 BYTE   W03
 BYTE   Cn1  v084
 BYTE   W03
 BYTE   Cn1  v127
 BYTE   W06
 BYTE   Cn1  v060
 BYTE   W06
 BYTE   Cn1  v056
 BYTE   W06
 BYTE   Cn1  v100
 BYTE   W06
 BYTE   Cn1  v127
 BYTE   W06
 BYTE   Cn1  v080
 BYTE   W03
 BYTE   Cn1  v064
 BYTE   W03
 BYTE   Cn1  v124
 BYTE   W06
 BYTE   Cn1  v080
 BYTE   W03
 BYTE   Cn1  v084
 BYTE   W01
// 014   ----------------------------------------
 BYTE   W02
 BYTE   Cn1  v127
 BYTE   W06
 BYTE   Cn1  v060
 BYTE   W06
 BYTE   Cn1  v056
 BYTE   W06
 BYTE   Cn1  v100
 BYTE   W06
 BYTE   Cn1  v127
 BYTE   W06
 BYTE   Cn1  v080
 BYTE   W03
 BYTE   Cn1  v064
 BYTE   W03
 BYTE   Cn1  v124
 BYTE   W06
 BYTE   Cn1  v080
 BYTE   W03
 BYTE   Cn1  v084
 BYTE   W03
 BYTE   Cn1  v127
 BYTE   W06
 BYTE   Cn1  v060
 BYTE   W06
 BYTE   Cn1  v056
 BYTE   W06
 BYTE   Cn1  v100
 BYTE   W06
 BYTE   Cn1  v127
 BYTE   W06
 BYTE   Cn1  v092
 BYTE   W03
 BYTE   Cn1  v072
 BYTE   W03
 BYTE   Cn1  v124
 BYTE   W06
 BYTE   Cn1  v096
 BYTE   W03
 BYTE   Cn1  v092
 BYTE   W01
// 015   ----------------------------------------
 BYTE   W02
 BYTE   Cn1  v116
 BYTE   W06
 BYTE   Cn1  v092
 BYTE   W12
 BYTE   Cn1  v116
 BYTE   W06
 BYTE   Cn1  v127
 BYTE   W06
 BYTE   Cn1  v080
 BYTE   W03
 BYTE   Cn1  v064
 BYTE   W03
 BYTE   Cn1  v124
 BYTE   W06
 BYTE   Cn1  v080
 BYTE   W03
 BYTE   Cn1  v084
 BYTE   W03
 BYTE   Cn1  v127
 BYTE   W06
 BYTE   Cn1  v060
 BYTE   W06
 BYTE   Cn1  v056
 BYTE   W06
 BYTE   Cn1  v100
 BYTE   W06
 BYTE   Cn1  v127
 BYTE   W06
 BYTE   Cn1  v080
 BYTE   W03
 BYTE   Cn1  v064
 BYTE   W03
 BYTE   Cn1  v124
 BYTE   W06
 BYTE   Cn1  v080
 BYTE   W03
 BYTE   Cn1  v084
 BYTE   W01
// 016   ----------------------------------------
 BYTE   GoTo
  POIN2 Label_7_01021D9F
// 017   ----------------------------------------
 BYTE   W02
 BYTE   N01  Cn1  v127
 BYTE   W06
 BYTE   Cn1  v060
 BYTE   W06
 BYTE   Cn1  v056
 BYTE   W06
 BYTE   Cn1  v100
 BYTE   W04
 BYTE   FINE

//******************************************************//
	ALIGN 4

FE05BaseRSflame:
	BYTE	8	// NumTrks
	BYTE	0	// NumBlks
	BYTE	FE05BaseRSflame_pri	// Priority
	BYTE	FE05BaseRSflame_rev	// Reverb.
    
	POIN2	FE05BaseRSflame_grp
    
	POIN2	FE05BaseRSflame_001
	POIN2	FE05BaseRSflame_002
	POIN2	FE05BaseRSflame_003
	POIN2	FE05BaseRSflame_004
	POIN2	FE05BaseRSflame_005
	POIN2	FE05BaseRSflame_006
	POIN2	FE05BaseRSflame_007
	POIN2	FE05BaseRSflame_008

	
