//Event file generated from Sappy .s format.
	#include "MPlayDef.event"

	#define	FE05DefendPandan_grp  voicegroup000
	#define	FE05DefendPandan_pri  10
	#define	FE05DefendPandan_rev  0
	#define	FE05DefendPandan_mvl  127
	#define	FE05DefendPandan_key  0
	#define	FE05DefendPandan_tbs  1
	#define	FE05DefendPandan_exg  0
	#define	FE05DefendPandan_cmp  1

	// .rodata
	//	FE05DefendPandan
	ALIGN 4


//**************** Track 1 (Midi-Chn.0) ****************//

FE05DefendPandan_001:
// 000   ----------------------------------------
 BYTE   TEMPO   160*FE05DefendPandan_tbs/2
 BYTE   KEYSH   FE05DefendPandan_key+0
 BYTE   VOICE   57
 BYTE   VOL   92*FE05DefendPandan_mvl/mxv
 BYTE   W48
 BYTE   N12  En2  v100
 BYTE   W12
 BYTE   An2
 BYTE   W12
 BYTE   Gs2
 BYTE   W12
 BYTE   N06  Fn2
 BYTE   W06
 BYTE   Gs2
 BYTE   W06
// 001   ----------------------------------------
Label_0_01003B3A:
 BYTE   N24  An2  v100
 BYTE   W24
 BYTE   As2
 BYTE   W24
 BYTE   Bn2
 BYTE   W24
 BYTE   Cn3
 BYTE   W96
// 002   ----------------------------------------
 BYTE   W96
// 003   ----------------------------------------
 BYTE   W72
 BYTE   N12  En2
 BYTE   W12
 BYTE   An2
 BYTE   W12
// 004   ----------------------------------------
 BYTE   Gs2
 BYTE   W12
 BYTE   N06  Fn2
 BYTE   W06
 BYTE   Gs2
 BYTE   W06
 BYTE   GoTo
  POIN2 Label_0_01003B3A
 BYTE   FINE

//**************** Track 2 (Midi-Chn.1) ****************//

FE05DefendPandan_002:
// 000   ----------------------------------------
 BYTE   TEMPO   160*FE05DefendPandan_tbs/2
 BYTE   KEYSH   FE05DefendPandan_key+0
 BYTE   VOICE   6
 BYTE   VOL   35*FE05DefendPandan_mvl/mxv
 BYTE   N12  An0  v100
 BYTE   W12
 BYTE   N06  As0
 BYTE   W06
 BYTE   Bn0
 BYTE   W06
 BYTE   N12  An0
 BYTE   W12
 BYTE   En1
 BYTE   W12
 BYTE   An0
 BYTE   W12
 BYTE   N06  As0
 BYTE   W06
 BYTE   Bn0
 BYTE   W06
 BYTE   Dn1
 BYTE   W06
 BYTE   Cn1
 BYTE   W06
 BYTE   N12  Bn0
 BYTE   W12
// 001   ----------------------------------------
Label_1_01003B90:
 BYTE   N12  An0  v100
 BYTE   W12
 BYTE   N06  As0
 BYTE   W06
 BYTE   Bn0
 BYTE   W06
 BYTE   N12  An0
 BYTE   W12
 BYTE   En1
 BYTE   W12
 BYTE   An0
 BYTE   W12
 BYTE   N06  As0
 BYTE   W06
 BYTE   Bn0
 BYTE   W06
 BYTE   N12  Dn1
 BYTE   W12
 BYTE   En1
 BYTE   W12
// 002   ----------------------------------------
 BYTE   Bn0
 BYTE   W12
 BYTE   N06  Cn1
 BYTE   W06
 BYTE   Cs1
 BYTE   W06
 BYTE   N12  Cn1
 BYTE   W12
 BYTE   Gn1
 BYTE   W12
 BYTE   Cn1
 BYTE   W12
 BYTE   N06  Dn1
 BYTE   W06
 BYTE   Ds1
 BYTE   W06
 BYTE   N12  Dn1
 BYTE   W12
 BYTE   An1
 BYTE   W12
// 003   ----------------------------------------
 BYTE   Cn1
 BYTE   W12
 BYTE   N06  Dn1
 BYTE   W06
 BYTE   En1
 BYTE   W06
 BYTE   N12  Cn1
 BYTE   W12
 BYTE   Gn1
 BYTE   W12
 BYTE   Bn0
 BYTE   W12
 BYTE   N06  En1
 BYTE   W06
 BYTE   Fs1
 BYTE   W06
 BYTE   N12  Fn1
 BYTE   W12
 BYTE   Gs0
 BYTE   W12
// 004   ----------------------------------------
 BYTE   An0
 BYTE   W12
 BYTE   N06  As0
 BYTE   W06
 BYTE   Bn0
 BYTE   W06
 BYTE   N12  An0
 BYTE   W12
 BYTE   En1
 BYTE   W12
 BYTE   An0
 BYTE   W12
 BYTE   N06  As0
 BYTE   W06
 BYTE   Bn0
 BYTE   W06
 BYTE   Dn1
 BYTE   W06
 BYTE   Cn1
 BYTE   W06
 BYTE   N12  Bn0
 BYTE   W12
// 005   ----------------------------------------
 BYTE   GoTo
  POIN2 Label_1_01003B90
 BYTE   FINE

//**************** Track 3 (Midi-Chn.2) ****************//

FE05DefendPandan_003:
// 000   ----------------------------------------
 BYTE   TEMPO   160*FE05DefendPandan_tbs/2
 BYTE   KEYSH   FE05DefendPandan_key+0
 BYTE   VOICE   33
 BYTE   VOL   92*FE05DefendPandan_mvl/mxv
 BYTE   N12  En1  v100
 BYTE   W12
 BYTE   N06  Fn1
 BYTE   W06
 BYTE   Fs1
 BYTE   W06
 BYTE   N12  En1
 BYTE   W12
 BYTE   Bn1
 BYTE   W12
 BYTE   En1
 BYTE   W12
 BYTE   N06  Fn1
 BYTE   W06
 BYTE   Fs1
 BYTE   W06
 BYTE   N12
 BYTE   W12
 BYTE   N06  En1
 BYTE   W12
// 001   ----------------------------------------
Label_2_01003C2E:
 BYTE   N12  En1  v100
 BYTE   W12
 BYTE   N06  Fn1
 BYTE   W06
 BYTE   Fs1
 BYTE   W06
 BYTE   N12  En1
 BYTE   W12
 BYTE   Bn1
 BYTE   W12
 BYTE   En1
 BYTE   W12
 BYTE   N06  Fn1
 BYTE   W06
 BYTE   Fs1
 BYTE   W06
 BYTE   N12  An1
 BYTE   W12
 BYTE   Bn1
 BYTE   W12
// 002   ----------------------------------------
 BYTE   Fs1
 BYTE   W12
 BYTE   N06  Gn1
 BYTE   W06
 BYTE   Gs1
 BYTE   W06
 BYTE   N12  Gn1
 BYTE   W12
 BYTE   Dn2
 BYTE   W12
 BYTE   Gn1
 BYTE   W12
 BYTE   N06  An1
 BYTE   W06
 BYTE   As1
 BYTE   W06
 BYTE   N12  An1
 BYTE   W12
 BYTE   En2
 BYTE   W24
// 003   ----------------------------------------
 BYTE   N03  Dn2
 BYTE   W06
 BYTE   N18
 BYTE   W18
 BYTE   N03  Cs2
 BYTE   W06
 BYTE   N18
 BYTE   W18
 BYTE   N03  Cn2
 BYTE   W06
 BYTE   N18
 BYTE   W18
 BYTE   N03  Bn1
 BYTE   W06
 BYTE   N06
 BYTE   W06
 BYTE   N12  En1
 BYTE   W12
// 004   ----------------------------------------
 BYTE   N06  Fn1
 BYTE   W06
 BYTE   Fs1
 BYTE   W06
 BYTE   N12  En1
 BYTE   W12
 BYTE   Bn1
 BYTE   W12
 BYTE   En1
 BYTE   W12
 BYTE   N06  Fn1
 BYTE   W06
 BYTE   Fs1
 BYTE   W06
 BYTE   N12
 BYTE   W12
 BYTE   N06  En1
 BYTE   W12
 BYTE   GoTo
  POIN2 Label_2_01003C2E
 BYTE   FINE

//**************** Track 4 (Midi-Chn.3) ****************//

FE05DefendPandan_004:
// 000   ----------------------------------------
 BYTE   TEMPO   160*FE05DefendPandan_tbs/2
 BYTE   KEYSH   FE05DefendPandan_key+0
 BYTE   VOICE   47
 BYTE   VOL   62*FE05DefendPandan_mvl/mxv
 BYTE   W96
// 001   ----------------------------------------
Label_3_01003CB1:
 BYTE   W96
// 002   ----------------------------------------
 BYTE   W96
// 003   ----------------------------------------
 BYTE   W12
 BYTE   N03  Dn3  v100
 BYTE   W06
 BYTE   N18
 BYTE   W18
 BYTE   N03  Cs3
 BYTE   W06
 BYTE   N18
 BYTE   W18
 BYTE   N03  Cn3
 BYTE   W06
 BYTE   N18
 BYTE   W18
 BYTE   N03  Bn2
 BYTE   W06
 BYTE   N06
 BYTE   W96
// 004   ----------------------------------------
 BYTE   W06
 BYTE   GoTo
  POIN2 Label_3_01003CB1
 BYTE   FINE

//**************** Track 5 (Midi-Chn.4) ****************//

FE05DefendPandan_005:
// 000   ----------------------------------------
 BYTE   TEMPO   160*FE05DefendPandan_tbs/2
 BYTE   KEYSH   FE05DefendPandan_key+0
 BYTE   VOICE   108
 BYTE   VOL   11*FE05DefendPandan_mvl/mxv
 BYTE   N12  An4  v100
 BYTE   W12
 BYTE   N03  As4
 BYTE   W06
 BYTE   Bn4
 BYTE   W06
 BYTE   N12  An4
 BYTE   W12
 BYTE   N06  En5
 BYTE   W12
 BYTE   N12  An4
 BYTE   W12
 BYTE   N03  As4
 BYTE   W06
 BYTE   Bn4
 BYTE   W06
 BYTE   Dn5
 BYTE   W06
 BYTE   Cn5
 BYTE   W06
 BYTE   N06  Bn4
 BYTE   W12
// 001   ----------------------------------------
Label_4_01003D0A:
 BYTE   N12  An4  v100
 BYTE   W12
 BYTE   N03  As4
 BYTE   W06
 BYTE   Bn4
 BYTE   W06
 BYTE   N12  An4
 BYTE   W12
 BYTE   N06  En5
 BYTE   W12
 BYTE   N12  An4
 BYTE   W12
 BYTE   N03  As4
 BYTE   W06
 BYTE   Bn4
 BYTE   W06
 BYTE   N12  Dn5
 BYTE   W12
 BYTE   N06  En5
 BYTE   W12
// 002   ----------------------------------------
 BYTE   N12  Bn4
 BYTE   W12
 BYTE   N03  Cn5
 BYTE   W06
 BYTE   Cs5
 BYTE   W06
 BYTE   N12  Cn5
 BYTE   W12
 BYTE   N06  Gn5
 BYTE   W12
 BYTE   N12  Cn5
 BYTE   W12
 BYTE   N03  Dn5
 BYTE   W06
 BYTE   Ds5
 BYTE   W06
 BYTE   N12  Dn5
 BYTE   W12
 BYTE   N06  An5
 BYTE   W12
// 003   ----------------------------------------
 BYTE   N12  Cn5
 BYTE   W12
 BYTE   N03  Dn5
 BYTE   W06
 BYTE   En5
 BYTE   W06
 BYTE   N12  Cn5
 BYTE   W12
 BYTE   N06  Gn5
 BYTE   W12
 BYTE   N12  Bn4
 BYTE   W12
 BYTE   N03  En5
 BYTE   W06
 BYTE   Fs5
 BYTE   W06
 BYTE   N12  Fn5
 BYTE   W12
 BYTE   N06  Gs4
 BYTE   W12
// 004   ----------------------------------------
 BYTE   N12  An4
 BYTE   W12
 BYTE   N03  As4
 BYTE   W06
 BYTE   Bn4
 BYTE   W06
 BYTE   N12  An4
 BYTE   W12
 BYTE   N06  En5
 BYTE   W12
 BYTE   N12  An4
 BYTE   W12
 BYTE   N03  As4
 BYTE   W06
 BYTE   Bn4
 BYTE   W06
 BYTE   Dn5
 BYTE   W06
 BYTE   Cn5
 BYTE   W06
 BYTE   N06  Bn4
 BYTE   W12
// 005   ----------------------------------------
 BYTE   GoTo
  POIN2 Label_4_01003D0A
 BYTE   FINE

//**************** Track 6 (Midi-Chn.5) ****************//

FE05DefendPandan_006:
// 000   ----------------------------------------
 BYTE   TEMPO   160*FE05DefendPandan_tbs/2
 BYTE   KEYSH   FE05DefendPandan_key+0
 BYTE   VOICE   109
 BYTE   VOL   47*FE05DefendPandan_mvl/mxv
 BYTE   N12  An3  v100
 BYTE   W12
 BYTE   N03  As3
 BYTE   W06
 BYTE   Bn3
 BYTE   W06
 BYTE   N12  An3
 BYTE   W12
 BYTE   N06  En4
 BYTE   W12
 BYTE   N12  An3
 BYTE   W12
 BYTE   N03  As3
 BYTE   W06
 BYTE   Bn3
 BYTE   W06
 BYTE   Dn4
 BYTE   W06
 BYTE   Cn4
 BYTE   W06
 BYTE   N06  Bn3
 BYTE   W12
// 001   ----------------------------------------
Label_5_01003DBA:
 BYTE   N12  An3  v100
 BYTE   W12
 BYTE   N03  As3
 BYTE   W06
 BYTE   Bn3
 BYTE   W06
 BYTE   N12  An3
 BYTE   W12
 BYTE   N06  En4
 BYTE   W12
 BYTE   N12  An3
 BYTE   W12
 BYTE   N03  As3
 BYTE   W06
 BYTE   Bn3
 BYTE   W06
 BYTE   N12  Dn4
 BYTE   W12
 BYTE   N06  En4
 BYTE   W12
// 002   ----------------------------------------
 BYTE   N12  Bn3
 BYTE   W12
 BYTE   N03  Cn4
 BYTE   W06
 BYTE   Cs4
 BYTE   W06
 BYTE   N12  Cn4
 BYTE   W12
 BYTE   N06  Gn4
 BYTE   W12
 BYTE   N12  Cn4
 BYTE   W12
 BYTE   N03  Dn4
 BYTE   W06
 BYTE   Ds4
 BYTE   W06
 BYTE   N12  Dn4
 BYTE   W12
 BYTE   N06  An4
 BYTE   W12
// 003   ----------------------------------------
 BYTE   N12  Cn4
 BYTE   W12
 BYTE   N03  Dn4
 BYTE   W06
 BYTE   En4
 BYTE   W06
 BYTE   N12  Cn4
 BYTE   W12
 BYTE   N06  Gn4
 BYTE   W12
 BYTE   N12  Bn3
 BYTE   W12
 BYTE   N03  En4
 BYTE   W06
 BYTE   Fs4
 BYTE   W06
 BYTE   N12  Fn4
 BYTE   W12
 BYTE   N06  Gs3
 BYTE   W12
// 004   ----------------------------------------
 BYTE   N12  An3
 BYTE   W12
 BYTE   N03  As3
 BYTE   W06
 BYTE   Bn3
 BYTE   W06
 BYTE   N12  An3
 BYTE   W12
 BYTE   N06  En4
 BYTE   W12
 BYTE   N12  An3
 BYTE   W12
 BYTE   N03  As3
 BYTE   W06
 BYTE   Bn3
 BYTE   W06
 BYTE   Dn4
 BYTE   W06
 BYTE   Cn4
 BYTE   W06
 BYTE   N06  Bn3
 BYTE   W12
// 005   ----------------------------------------
 BYTE   GoTo
  POIN2 Label_5_01003DBA
 BYTE   FINE

//**************** Track 7 (Midi-Chn.6) ****************//

FE05DefendPandan_007:
// 000   ----------------------------------------
 BYTE   TEMPO   160*FE05DefendPandan_tbs/2
 BYTE   KEYSH   FE05DefendPandan_key+0
 BYTE   VOICE   106
 BYTE   VOL   47*FE05DefendPandan_mvl/mxv
 BYTE   N12  An2  v100
 BYTE   W12
 BYTE   N03  As2
 BYTE   W06
 BYTE   Bn2
 BYTE   W06
 BYTE   N12  An2
 BYTE   W12
 BYTE   N06  En3
 BYTE   W12
 BYTE   N12  An2
 BYTE   W12
 BYTE   N03  As2
 BYTE   W06
 BYTE   Bn2
 BYTE   W06
 BYTE   Dn3
 BYTE   W06
 BYTE   Cn3
 BYTE   W06
 BYTE   N06  Bn2
 BYTE   W12
// 001   ----------------------------------------
Label_6_01003E6A:
 BYTE   N12  An2  v100
 BYTE   W12
 BYTE   N03  As2
 BYTE   W06
 BYTE   Bn2
 BYTE   W06
 BYTE   N12  An2
 BYTE   W12
 BYTE   N06  En3
 BYTE   W12
 BYTE   N12  An2
 BYTE   W12
 BYTE   N03  As2
 BYTE   W06
 BYTE   Bn2
 BYTE   W06
 BYTE   N12  Dn3
 BYTE   W12
 BYTE   N06  En3
 BYTE   W12
// 002   ----------------------------------------
 BYTE   N12  Bn2
 BYTE   W12
 BYTE   N03  Cn3
 BYTE   W06
 BYTE   Cs3
 BYTE   W06
 BYTE   N12  Cn3
 BYTE   W12
 BYTE   N06  Gn3
 BYTE   W12
 BYTE   N12  Cn3
 BYTE   W12
 BYTE   N03  Dn3
 BYTE   W06
 BYTE   Ds3
 BYTE   W06
 BYTE   N12  Dn3
 BYTE   W12
 BYTE   N06  An3
 BYTE   W12
// 003   ----------------------------------------
 BYTE   N12  Cn3
 BYTE   W12
 BYTE   N03  Dn3
 BYTE   W06
 BYTE   En3
 BYTE   W06
 BYTE   N12  Cn3
 BYTE   W12
 BYTE   N06  Gn3
 BYTE   W12
 BYTE   N12  Bn2
 BYTE   W12
 BYTE   N03  En3
 BYTE   W06
 BYTE   Fs3
 BYTE   W06
 BYTE   N12  Fn3
 BYTE   W12
 BYTE   N06  Gs2
 BYTE   W12
// 004   ----------------------------------------
 BYTE   N12  An2
 BYTE   W12
 BYTE   N03  As2
 BYTE   W06
 BYTE   Bn2
 BYTE   W06
 BYTE   N12  An2
 BYTE   W12
 BYTE   N06  En3
 BYTE   W12
 BYTE   N12  An2
 BYTE   W12
 BYTE   N03  As2
 BYTE   W06
 BYTE   Bn2
 BYTE   W06
 BYTE   Dn3
 BYTE   W06
 BYTE   Cn3
 BYTE   W06
 BYTE   N06  Bn2
 BYTE   W12
// 005   ----------------------------------------
 BYTE   GoTo
  POIN2 Label_6_01003E6A
 BYTE   FINE

//**************** Track 8 (Midi-Chn.7) ****************//

FE05DefendPandan_008:
// 000   ----------------------------------------
 BYTE   TEMPO   160*FE05DefendPandan_tbs/2
 BYTE   KEYSH   FE05DefendPandan_key+0
 BYTE   VOICE   127
 BYTE   VOL   57*FE05DefendPandan_mvl/mxv
 BYTE   N12  Dn1  v100
 BYTE   W42
 BYTE   N06  Cn1
 BYTE   W06
 BYTE   N12  Dn1
 BYTE   W42
 BYTE   N06  Cn1
 BYTE   W06
// 001   ----------------------------------------
Label_7_01003F09:
 BYTE   N12  Dn1  v100
 BYTE   W12
 BYTE   N06  Cn1
 BYTE   W12
 BYTE   Cn1
 BYTE   W06
 BYTE   Cn1
 BYTE   W06
 BYTE   N12  Dn1
 BYTE   W12
 BYTE   Dn1
 BYTE   W12
 BYTE   Cn1
 BYTE   W12
 BYTE   Cn1
 BYTE   W12
 BYTE   N06
 BYTE   W06
 BYTE   Dn1
 BYTE   W06
// 002   ----------------------------------------
Label_7_01003F21:
 BYTE   N12  Dn1  v100
 BYTE   W42
 BYTE   N06  Cn1
 BYTE   W06
 BYTE   N12  Dn1
 BYTE   W42
 BYTE   N06  Cn1
 BYTE   W06
 BYTE   PEND 
// 003   ----------------------------------------
 BYTE   N12  Dn1  v100
 BYTE   W12
 BYTE   N06  Cn1
 BYTE   W12
 BYTE   Cn1
 BYTE   W06
 BYTE   Cn1
 BYTE   W06
 BYTE   N12  Dn1
 BYTE   W12
 BYTE   Dn1
 BYTE   W12
 BYTE   Cn1
 BYTE   W12
 BYTE   Cn1
 BYTE   W12
 BYTE   N06
 BYTE   W06
 BYTE   Dn1
 BYTE   W06
 BYTE   PATT
  POIN2 Label_7_01003F21
// 004   ----------------------------------------
 BYTE   GoTo
  POIN2 Label_7_01003F09
 BYTE   FINE

//**************** Track 9 (Midi-Chn.8) ****************//

FE05DefendPandan_009:
// 000   ----------------------------------------
 BYTE   TEMPO   160*FE05DefendPandan_tbs/2
 BYTE   KEYSH   FE05DefendPandan_key+0
 BYTE   VOICE   47
 BYTE   VOL   60*FE05DefendPandan_mvl/mxv
 BYTE   N12  An2  v100
 BYTE   W42
 BYTE   N06  Dn2
 BYTE   W06
 BYTE   N12  An2
 BYTE   W42
 BYTE   N06  Dn2
 BYTE   W06
// 001   ----------------------------------------
Label_8_01003F79:
 BYTE   N12  An2  v100
 BYTE   W12
 BYTE   N06  Dn2
 BYTE   W12
 BYTE   Dn2
 BYTE   W06
 BYTE   Dn2
 BYTE   W06
 BYTE   N12  An2
 BYTE   W12
 BYTE   An2
 BYTE   W12
 BYTE   Dn2
 BYTE   W12
 BYTE   Dn2
 BYTE   W12
 BYTE   N06
 BYTE   W06
 BYTE   An2
 BYTE   W06
// 002   ----------------------------------------
Label_8_01003F91:
 BYTE   N12  An2  v100
 BYTE   W42
 BYTE   N06  Dn2
 BYTE   W06
 BYTE   N12  An2
 BYTE   W42
 BYTE   N06  Dn2
 BYTE   W06
 BYTE   PEND 
// 003   ----------------------------------------
 BYTE   N12  An2  v100
 BYTE   W12
 BYTE   N06  Dn2
 BYTE   W12
 BYTE   Dn2
 BYTE   W06
 BYTE   Dn2
 BYTE   W06
 BYTE   N12  An2
 BYTE   W12
 BYTE   An2
 BYTE   W12
 BYTE   Dn2
 BYTE   W12
 BYTE   Dn2
 BYTE   W12
 BYTE   N06
 BYTE   W06
 BYTE   An2
 BYTE   W06
 BYTE   PATT
  POIN2 Label_8_01003F91
// 004   ----------------------------------------
 BYTE   GoTo
  POIN2 Label_8_01003F79
 BYTE   FINE

//******************************************************//
	ALIGN 4

FE05DefendPandan:
	BYTE	9	// NumTrks
	BYTE	0	// NumBlks
	BYTE	FE05DefendPandan_pri	// Priority
	BYTE	FE05DefendPandan_rev	// Reverb.
    
	POIN2	FE05DefendPandan_grp
    
	POIN2	FE05DefendPandan_001
	POIN2	FE05DefendPandan_002
	POIN2	FE05DefendPandan_003
	POIN2	FE05DefendPandan_004
	POIN2	FE05DefendPandan_005
	POIN2	FE05DefendPandan_006
	POIN2	FE05DefendPandan_007
	POIN2	FE05DefendPandan_008
	POIN2	FE05DefendPandan_009

	
