//Event file generated from Sappy .s format.
	#include "MPlayDef.event"

	#define	FE05SquadronBDolkar_grp  voicegroup000
	#define	FE05SquadronBDolkar_pri  0
	#define	FE05SquadronBDolkar_rev  0
	#define	FE05SquadronBDolkar_mvl  127
	#define	FE05SquadronBDolkar_key  0
	#define	FE05SquadronBDolkar_tbs  1
	#define	FE05SquadronBDolkar_exg  0
	#define	FE05SquadronBDolkar_cmp  1

	// .rodata
	//	FE05SquadronBDolkar
	ALIGN 4


//**************** Track 1 (Midi-Chn.0) ****************//

FE05SquadronBDolkar_001:
// 000   ----------------------------------------
 BYTE   KEYSH   FE05SquadronBDolkar_key+0
Label_0_011BB6DA:
 BYTE   TEMPO   120*FE05SquadronBDolkar_tbs/2
 BYTE   VOICE   56
 BYTE   VOL   84*FE05SquadronBDolkar_mvl/mxv
 BYTE   N24  Ds2  v100
 BYTE   W24
 BYTE   As2
 BYTE   W24
 BYTE   Gs2
 BYTE   W24
 BYTE   N08  Fs2
 BYTE   W08
 BYTE   Gs2
 BYTE   W08
 BYTE   En2
 BYTE   W08
// 001   ----------------------------------------
Label_0_011BB6EF:
 BYTE   N24  Ds2  v100
 BYTE   W24
 BYTE   As2
 BYTE   W24
 BYTE   Gs2
 BYTE   W24
 BYTE   N08  Fs2
 BYTE   W08
 BYTE   Gs2
 BYTE   W08
 BYTE   En2
 BYTE   W08
 BYTE   PEND 
 BYTE   PATT
  POIN2 Label_0_011BB6EF
// 002   ----------------------------------------
 BYTE   N96  Ds2  v100
 BYTE   W96
// 003   ----------------------------------------
Label_0_011BB708:
 BYTE   N12  Fn2  v100
 BYTE   W36
 BYTE   N12
 BYTE   W36
 BYTE   N12
 BYTE   W24
 BYTE   PEND 
// 004   ----------------------------------------
Label_0_011BB711:
 BYTE   W12
 BYTE   N12  Fn2  v100
 BYTE   W12
 BYTE   Fs2
 BYTE   W12
 BYTE   N24  Gs2
 BYTE   W24
 BYTE   N12  Fs2
 BYTE   W12
 BYTE   Fn2
 BYTE   W12
 BYTE   Fs2
 BYTE   W12
 BYTE   PEND 
 BYTE   PATT
  POIN2 Label_0_011BB708
// 005   ----------------------------------------
 BYTE   W96
// 006   ----------------------------------------
 BYTE   W84
 BYTE   N06  As2  v100
 BYTE   W12
// 007   ----------------------------------------
Label_0_011BB72E:
 BYTE   N24  As2  v100
 BYTE   W36
 BYTE   N06  Ds3
 BYTE   W06
 BYTE   N06
 BYTE   W06
 BYTE   N12
 BYTE   W12
 BYTE   N36  Cs3
 BYTE   W36
 BYTE   PEND 
// 008   ----------------------------------------
Label_0_011BB73D:
 BYTE   W12
 BYTE   N12  Ds3  v100
 BYTE   W24
 BYTE   N06
 BYTE   W12
 BYTE   N06
 BYTE   W12
 BYTE   N12
 BYTE   W12
 BYTE   N12
 BYTE   W12
 BYTE   N12
 BYTE   W12
 BYTE   PEND 
// 009   ----------------------------------------
 BYTE   VOL   84*FE05SquadronBDolkar_mvl/mxv
 BYTE   N24  Ds2
 BYTE   W24
 BYTE   As2
 BYTE   W24
 BYTE   Gs2
 BYTE   W24
 BYTE   N08  Fs2
 BYTE   W08
 BYTE   Gs2
 BYTE   W08
 BYTE   En2
 BYTE   W08
 BYTE   PATT
  POIN2 Label_0_011BB6EF
 BYTE   PATT
  POIN2 Label_0_011BB6EF
// 010   ----------------------------------------
 BYTE   N96  Ds2  v100
 BYTE   W96
 BYTE   PATT
  POIN2 Label_0_011BB708
 BYTE   PATT
  POIN2 Label_0_011BB711
 BYTE   PATT
  POIN2 Label_0_011BB708
// 011   ----------------------------------------
 BYTE   W96
// 012   ----------------------------------------
 BYTE   W84
 BYTE   N06  As2  v100
 BYTE   W12
 BYTE   PATT
  POIN2 Label_0_011BB72E
 BYTE   PATT
  POIN2 Label_0_011BB73D
// 013   ----------------------------------------
 BYTE   GoTo
  POIN2 Label_0_011BB6DA
 BYTE   FINE

//**************** Track 2 (Midi-Chn.1) ****************//

FE05SquadronBDolkar_002:
// 000   ----------------------------------------
 BYTE   KEYSH   FE05SquadronBDolkar_key+0
Label_1_011BB792:
 BYTE   VOICE   56
 BYTE   VOL   84*FE05SquadronBDolkar_mvl/mxv
 BYTE   N24  As1  v100
 BYTE   W24
 BYTE   Ds2
 BYTE   W24
 BYTE   N24
 BYTE   W24
 BYTE   Cs2
 BYTE   W24
// 001   ----------------------------------------
Label_1_011BB7A0:
 BYTE   N24  As1  v100
 BYTE   W24
 BYTE   Ds2
 BYTE   W24
 BYTE   Cs2
 BYTE   W24
 BYTE   N24
 BYTE   W24
 BYTE   PEND 
 BYTE   PATT
  POIN2 Label_1_011BB7A0
// 002   ----------------------------------------
Label_1_011BB7B0:
 BYTE   N48  Bn1  v100
 BYTE   W48
 BYTE   As1
 BYTE   W48
 BYTE   PEND 
// 003   ----------------------------------------
Label_1_011BB7B7:
 BYTE   N12  Cs2  v100
 BYTE   W36
 BYTE   N12
 BYTE   W36
 BYTE   N12
 BYTE   W24
 BYTE   PEND 
// 004   ----------------------------------------
Label_1_011BB7C0:
 BYTE   W12
 BYTE   N12  Cs2  v100
 BYTE   W12
 BYTE   N12
 BYTE   W12
 BYTE   N24
 BYTE   W24
 BYTE   N12
 BYTE   W12
 BYTE   N12
 BYTE   W12
 BYTE   N12
 BYTE   W12
 BYTE   PEND 
 BYTE   PATT
  POIN2 Label_1_011BB7B7
// 005   ----------------------------------------
 BYTE   N72  Ds2  v100
 BYTE   W96
// 006   ----------------------------------------
 BYTE   W84
 BYTE   N06
 BYTE   W12
// 007   ----------------------------------------
Label_1_011BB7DC:
 BYTE   N24  Ds2  v100
 BYTE   W36
 BYTE   N06  Gs2
 BYTE   W06
 BYTE   N06
 BYTE   W06
 BYTE   N12
 BYTE   W12
 BYTE   N36
 BYTE   W36
 BYTE   PEND 
// 008   ----------------------------------------
Label_1_011BB7EA:
 BYTE   W12
 BYTE   N12  As2  v100
 BYTE   W24
 BYTE   N12
 BYTE   W24
 BYTE   Gs2
 BYTE   W12
 BYTE   As2
 BYTE   W12
 BYTE   N12
 BYTE   W12
 BYTE   PEND 
// 009   ----------------------------------------
 BYTE   VOL   84*FE05SquadronBDolkar_mvl/mxv
 BYTE   N24  As1
 BYTE   W24
 BYTE   Ds2
 BYTE   W24
 BYTE   N24
 BYTE   W24
 BYTE   Cs2
 BYTE   W24
 BYTE   PATT
  POIN2 Label_1_011BB7A0
 BYTE   PATT
  POIN2 Label_1_011BB7A0
 BYTE   PATT
  POIN2 Label_1_011BB7B0
 BYTE   PATT
  POIN2 Label_1_011BB7B7
 BYTE   PATT
  POIN2 Label_1_011BB7C0
 BYTE   PATT
  POIN2 Label_1_011BB7B7
// 010   ----------------------------------------
 BYTE   N72  Ds2  v100
 BYTE   W96
// 011   ----------------------------------------
 BYTE   W84
 BYTE   N06
 BYTE   W12
 BYTE   PATT
  POIN2 Label_1_011BB7DC
 BYTE   PATT
  POIN2 Label_1_011BB7EA
// 012   ----------------------------------------
 BYTE   GoTo
  POIN2 Label_1_011BB792
 BYTE   FINE

//**************** Track 3 (Midi-Chn.2) ****************//

FE05SquadronBDolkar_003:
// 000   ----------------------------------------
 BYTE   KEYSH   FE05SquadronBDolkar_key+0
Label_2_011BB83A:
 BYTE   VOICE   15
 BYTE   VOL   64*FE05SquadronBDolkar_mvl/mxv
 BYTE   W96
// 001   ----------------------------------------
 BYTE   W96
// 002   ----------------------------------------
 BYTE   W96
// 003   ----------------------------------------
 BYTE   W96
// 004   ----------------------------------------
 BYTE   W96
// 005   ----------------------------------------
 BYTE   W96
// 006   ----------------------------------------
 BYTE   W96
// 007   ----------------------------------------
Label_2_011BB845:
 BYTE   W24
 BYTE   N48  Fs2  v100
 BYTE   W48
 BYTE   N36  Bn2
 BYTE   W24
 BYTE   PEND 
 BYTE   PATT
  POIN2 Label_2_011BB845
 BYTE   PATT
  POIN2 Label_2_011BB845
// 008   ----------------------------------------
 BYTE   W96
// 009   ----------------------------------------
 BYTE   VOL   64*FE05SquadronBDolkar_mvl/mxv
 BYTE   W96
// 010   ----------------------------------------
 BYTE   W96
// 011   ----------------------------------------
 BYTE   W96
// 012   ----------------------------------------
 BYTE   W96
// 013   ----------------------------------------
 BYTE   W96
// 014   ----------------------------------------
 BYTE   W96
// 015   ----------------------------------------
 BYTE   W96
 BYTE   PATT
  POIN2 Label_2_011BB845
 BYTE   PATT
  POIN2 Label_2_011BB845
 BYTE   PATT
  POIN2 Label_2_011BB845
// 016   ----------------------------------------
 BYTE   W96
// 017   ----------------------------------------
 BYTE   GoTo
  POIN2 Label_2_011BB83A
 BYTE   FINE

//**************** Track 4 (Midi-Chn.3) ****************//

FE05SquadronBDolkar_004:
// 000   ----------------------------------------
 BYTE   KEYSH   FE05SquadronBDolkar_key+0
Label_3_011BB87A:
 BYTE   VOICE   54
 BYTE   VOL   55*FE05SquadronBDolkar_mvl/mxv
 BYTE   W96
// 001   ----------------------------------------
 BYTE   W96
// 002   ----------------------------------------
 BYTE   W96
// 003   ----------------------------------------
 BYTE   W96
// 004   ----------------------------------------
 BYTE   W96
// 005   ----------------------------------------
 BYTE   W96
// 006   ----------------------------------------
 BYTE   W96
// 007   ----------------------------------------
 BYTE   W96
// 008   ----------------------------------------
 BYTE   W96
// 009   ----------------------------------------
 BYTE   W96
// 010   ----------------------------------------
Label_3_011BB888:
 BYTE   W12
 BYTE   N24  As2  v100
 BYTE   W24
 BYTE   Gs2
 BYTE   N24  As2
 BYTE   W24
 BYTE   Gs2
 BYTE   N24  As2
 BYTE   W24
 BYTE   N12  Gs2
 BYTE   N12  As2
 BYTE   W12
 BYTE   PEND 
// 011   ----------------------------------------
 BYTE   VOL   55*FE05SquadronBDolkar_mvl/mxv
 BYTE   W96
// 012   ----------------------------------------
 BYTE   W96
// 013   ----------------------------------------
 BYTE   W96
// 014   ----------------------------------------
 BYTE   W96
// 015   ----------------------------------------
 BYTE   W96
// 016   ----------------------------------------
 BYTE   W96
// 017   ----------------------------------------
 BYTE   W96
// 018   ----------------------------------------
 BYTE   W96
// 019   ----------------------------------------
 BYTE   W96
// 020   ----------------------------------------
 BYTE   W96
 BYTE   PATT
  POIN2 Label_3_011BB888
// 021   ----------------------------------------
 BYTE   GoTo
  POIN2 Label_3_011BB87A
 BYTE   FINE

//**************** Track 5 (Midi-Chn.4) ****************//

FE05SquadronBDolkar_005:
// 000   ----------------------------------------
 BYTE   KEYSH   FE05SquadronBDolkar_key+0
Label_4_011BB8B6:
 BYTE   VOICE   58
 BYTE   VOL   69*FE05SquadronBDolkar_mvl/mxv
 BYTE   N12  Ds1  v100
 BYTE   W12
 BYTE   N12
 BYTE   W12
 BYTE   N24
 BYTE   W24
 BYTE   N24
 BYTE   W24
 BYTE   N12
 BYTE   W24
// 001   ----------------------------------------
Label_4_011BB8C6:
 BYTE   N24  Ds1  v100
 BYTE   W24
 BYTE   N24
 BYTE   W24
 BYTE   N24
 BYTE   W24
 BYTE   N12
 BYTE   W24
 BYTE   PEND 
 BYTE   PATT
  POIN2 Label_4_011BB8C6
 BYTE   PATT
  POIN2 Label_4_011BB8C6
 BYTE   PATT
  POIN2 Label_4_011BB8C6
 BYTE   PATT
  POIN2 Label_4_011BB8C6
 BYTE   PATT
  POIN2 Label_4_011BB8C6
// 002   ----------------------------------------
Label_4_011BB8EA:
 BYTE   N12  Ds1  v100
 BYTE   W12
 BYTE   N84
 BYTE   W84
 BYTE   PEND 
// 003   ----------------------------------------
 BYTE   N96
 BYTE   W96
// 004   ----------------------------------------
 BYTE   N96
 BYTE   W96
// 005   ----------------------------------------
 BYTE   W96
// 006   ----------------------------------------
 BYTE   N12
 BYTE   W12
 BYTE   N12
 BYTE   W12
 BYTE   N24
 BYTE   W24
 BYTE   N24
 BYTE   W24
 BYTE   N12
 BYTE   W24
 BYTE   PATT
  POIN2 Label_4_011BB8C6
 BYTE   PATT
  POIN2 Label_4_011BB8C6
 BYTE   PATT
  POIN2 Label_4_011BB8C6
 BYTE   PATT
  POIN2 Label_4_011BB8C6
 BYTE   PATT
  POIN2 Label_4_011BB8C6
 BYTE   PATT
  POIN2 Label_4_011BB8C6
 BYTE   PATT
  POIN2 Label_4_011BB8EA
// 007   ----------------------------------------
 BYTE   N96  Ds1  v100
 BYTE   W96
// 008   ----------------------------------------
 BYTE   N96
 BYTE   W96
// 009   ----------------------------------------
 BYTE   W96
// 010   ----------------------------------------
 BYTE   GoTo
  POIN2 Label_4_011BB8B6
 BYTE   FINE

//**************** Track 6 (Midi-Chn.5) ****************//

FE05SquadronBDolkar_006:
// 000   ----------------------------------------
 BYTE   KEYSH   FE05SquadronBDolkar_key+0
Label_5_011BB932:
 BYTE   VOICE   56
 BYTE   VOL   84*FE05SquadronBDolkar_mvl/mxv
 BYTE   W96
// 001   ----------------------------------------
 BYTE   W96
// 002   ----------------------------------------
 BYTE   W96
// 003   ----------------------------------------
Label_5_011BB939:
 BYTE   W30
 BYTE   N06  As2  v100
 BYTE   W06
 BYTE   N12  Ds3
 BYTE   W12
 BYTE   N48  Dn3
 BYTE   W48
 BYTE   PEND 
// 004   ----------------------------------------
 BYTE   W96
// 005   ----------------------------------------
Label_5_011BB946:
 BYTE   W72
 BYTE   N06  Ds2  v100
 BYTE   W06
 BYTE   Fs2
 BYTE   W06
 BYTE   As2
 BYTE   W06
 BYTE   Ds3
 BYTE   W06
 BYTE   PEND 
// 006   ----------------------------------------
 BYTE   N36  Dn3
 BYTE   W96
// 007   ----------------------------------------
 BYTE   W96
// 008   ----------------------------------------
 BYTE   W96
// 009   ----------------------------------------
 BYTE   W96
// 010   ----------------------------------------
 BYTE   W96
// 011   ----------------------------------------
 BYTE   VOL   84*FE05SquadronBDolkar_mvl/mxv
 BYTE   W96
// 012   ----------------------------------------
 BYTE   W96
// 013   ----------------------------------------
 BYTE   W96
 BYTE   PATT
  POIN2 Label_5_011BB939
// 014   ----------------------------------------
 BYTE   W96
 BYTE   PATT
  POIN2 Label_5_011BB946
// 015   ----------------------------------------
 BYTE   N36  Dn3  v100
 BYTE   W96
// 016   ----------------------------------------
 BYTE   W96
// 017   ----------------------------------------
 BYTE   W96
// 018   ----------------------------------------
 BYTE   W96
// 019   ----------------------------------------
 BYTE   W96
// 020   ----------------------------------------
 BYTE   GoTo
  POIN2 Label_5_011BB932
 BYTE   FINE

//**************** Track 7 (Midi-Chn.6) ****************//

FE05SquadronBDolkar_007:
// 000   ----------------------------------------
 BYTE   KEYSH   FE05SquadronBDolkar_key+0
Label_6_011BB97A:
 BYTE   VOICE   15
 BYTE   VOL   64*FE05SquadronBDolkar_mvl/mxv
 BYTE   W96
// 001   ----------------------------------------
 BYTE   W96
// 002   ----------------------------------------
 BYTE   W96
// 003   ----------------------------------------
 BYTE   W96
// 004   ----------------------------------------
 BYTE   W96
// 005   ----------------------------------------
 BYTE   W96
// 006   ----------------------------------------
Label_6_011BB984:
 BYTE   W36
 BYTE   N12  Ds3  v100
 BYTE   W12
 BYTE   Dn3
 BYTE   W12
 BYTE   Cs3
 BYTE   W12
 BYTE   Cn3
 BYTE   W12
 BYTE   Bn2
 BYTE   W12
 BYTE   PEND 
// 007   ----------------------------------------
Label_6_011BB992:
 BYTE   W12
 BYTE   N12  As2  v100
 BYTE   W12
 BYTE   N36  Bn2
 BYTE   W36
 BYTE   N12  As2
 BYTE   W12
 BYTE   N36  En3
 BYTE   W24
 BYTE   PEND 
 BYTE   PATT
  POIN2 Label_6_011BB992
// 008   ----------------------------------------
Label_6_011BB9A6:
 BYTE   W12
 BYTE   N12  As2  v100
 BYTE   W12
 BYTE   N36  Bn2
 BYTE   W36
 BYTE   N06  As2
 BYTE   W06
 BYTE   N06
 BYTE   W06
 BYTE   N36  En3
 BYTE   W24
 BYTE   PEND 
// 009   ----------------------------------------
 BYTE   W96
// 010   ----------------------------------------
 BYTE   VOL   64*FE05SquadronBDolkar_mvl/mxv
 BYTE   W96
// 011   ----------------------------------------
 BYTE   W96
// 012   ----------------------------------------
 BYTE   W96
// 013   ----------------------------------------
 BYTE   W96
// 014   ----------------------------------------
 BYTE   W96
// 015   ----------------------------------------
 BYTE   W96
 BYTE   PATT
  POIN2 Label_6_011BB984
 BYTE   PATT
  POIN2 Label_6_011BB992
 BYTE   PATT
  POIN2 Label_6_011BB992
 BYTE   PATT
  POIN2 Label_6_011BB9A6
// 016   ----------------------------------------
 BYTE   W96
// 017   ----------------------------------------
 BYTE   GoTo
  POIN2 Label_6_011BB97A
 BYTE   FINE

//**************** Track 8 (Midi-Chn.7) ****************//

FE05SquadronBDolkar_008:
// 000   ----------------------------------------
 BYTE   KEYSH   FE05SquadronBDolkar_key+0
Label_7_011BB9DE:
 BYTE   VOICE   18
 BYTE   VOL   78*FE05SquadronBDolkar_mvl/mxv
 BYTE   W96
// 001   ----------------------------------------
 BYTE   W96
// 002   ----------------------------------------
 BYTE   W96
// 003   ----------------------------------------
 BYTE   W96
// 004   ----------------------------------------
 BYTE   W96
// 005   ----------------------------------------
 BYTE   W96
// 006   ----------------------------------------
Label_7_011BB9E8:
 BYTE   W36
 BYTE   N12  Ds3  v100
 BYTE   W12
 BYTE   Dn3
 BYTE   W12
 BYTE   Cs3
 BYTE   W12
 BYTE   Cn3
 BYTE   W12
 BYTE   Bn2
 BYTE   W12
 BYTE   PEND 
// 007   ----------------------------------------
Label_7_011BB9F6:
 BYTE   W12
 BYTE   N12  As2  v100
 BYTE   W12
 BYTE   N36  Bn2
 BYTE   W36
 BYTE   N12  As2
 BYTE   W12
 BYTE   N36  En3
 BYTE   W24
 BYTE   PEND 
 BYTE   PATT
  POIN2 Label_7_011BB9F6
// 008   ----------------------------------------
Label_7_011BBA0A:
 BYTE   W12
 BYTE   N12  As2  v100
 BYTE   W12
 BYTE   N36  Bn2
 BYTE   W36
 BYTE   N06  As2
 BYTE   W06
 BYTE   N06
 BYTE   W06
 BYTE   N36  En3
 BYTE   W24
 BYTE   PEND 
// 009   ----------------------------------------
 BYTE   W96
// 010   ----------------------------------------
 BYTE   VOL   78*FE05SquadronBDolkar_mvl/mxv
 BYTE   W96
// 011   ----------------------------------------
 BYTE   W96
// 012   ----------------------------------------
 BYTE   W96
// 013   ----------------------------------------
 BYTE   W96
// 014   ----------------------------------------
 BYTE   W96
// 015   ----------------------------------------
 BYTE   W96
 BYTE   PATT
  POIN2 Label_7_011BB9E8
 BYTE   PATT
  POIN2 Label_7_011BB9F6
 BYTE   PATT
  POIN2 Label_7_011BB9F6
 BYTE   PATT
  POIN2 Label_7_011BBA0A
// 016   ----------------------------------------
 BYTE   W96
// 017   ----------------------------------------
 BYTE   GoTo
  POIN2 Label_7_011BB9DE
 BYTE   FINE

//**************** Track 9 (Midi-Chn.8) ****************//

FE05SquadronBDolkar_009:
// 000   ----------------------------------------
 BYTE   KEYSH   FE05SquadronBDolkar_key+0
Label_8_011BBA42:
 BYTE   VOICE   47
 BYTE   VOL   57*FE05SquadronBDolkar_mvl/mxv
 BYTE   N24  As2  v100
 BYTE   W96
// 001   ----------------------------------------
 BYTE   W84
 BYTE   N12
 BYTE   W12
// 002   ----------------------------------------
 BYTE   N24
 BYTE   W96
// 003   ----------------------------------------
 BYTE   W96
// 004   ----------------------------------------
Label_8_011BBA50:
 BYTE   W84
 BYTE   N06  As2  v100
 BYTE   W06
 BYTE   N06
 BYTE   W06
 BYTE   PEND 
// 005   ----------------------------------------
 BYTE   N24
 BYTE   W96
// 006   ----------------------------------------
 BYTE   W84
 BYTE   N12
 BYTE   W12
// 007   ----------------------------------------
Label_8_011BBA5D:
 BYTE   N24  Ds2  v100
 BYTE   W84
 BYTE   N12
 BYTE   W12
 BYTE   PEND 
// 008   ----------------------------------------
 BYTE   N24
 BYTE   W96
// 009   ----------------------------------------
Label_8_011BBA66:
 BYTE   N24  Ds2  v100
 BYTE   W84
 BYTE   N06
 BYTE   W06
 BYTE   N06
 BYTE   W06
 BYTE   PEND 
// 010   ----------------------------------------
Label_8_011BBA6F:
 BYTE   N24  Ds2  v100
 BYTE   W72
 BYTE   N24
 BYTE   W24
 BYTE   PEND 
// 011   ----------------------------------------
 BYTE   As2
 BYTE   W96
// 012   ----------------------------------------
 BYTE   W84
 BYTE   N12
 BYTE   W12
// 013   ----------------------------------------
 BYTE   N24
 BYTE   W96
// 014   ----------------------------------------
 BYTE   W96
 BYTE   PATT
  POIN2 Label_8_011BBA50
// 015   ----------------------------------------
 BYTE   N24  As2  v100
 BYTE   W96
// 016   ----------------------------------------
 BYTE   W84
 BYTE   N12
 BYTE   W12
 BYTE   PATT
  POIN2 Label_8_011BBA5D
// 017   ----------------------------------------
 BYTE   N24  Ds2  v100
 BYTE   W96
 BYTE   PATT
  POIN2 Label_8_011BBA66
 BYTE   PATT
  POIN2 Label_8_011BBA6F
// 018   ----------------------------------------
 BYTE   GoTo
  POIN2 Label_8_011BBA42
 BYTE   FINE

//**************** Track 10 (Midi-Chn.9) ****************//

FE05SquadronBDolkar_010:
// 000   ----------------------------------------
 BYTE   KEYSH   FE05SquadronBDolkar_key+0
Label_9_011BBAA6:
 BYTE   VOICE   0
 BYTE   VOL   57*FE05SquadronBDolkar_mvl/mxv
 BYTE   N06  Fs1  v100
 BYTE   W06
 BYTE   N06
 BYTE   W06
 BYTE   As1  v080
 BYTE   W06
 BYTE   Fs1  v100
 BYTE   W06
 BYTE   N06
 BYTE   W06
 BYTE   N06
 BYTE   W06
 BYTE   As1  v080
 BYTE   W06
 BYTE   Fs1  v100
 BYTE   W06
 BYTE   N06
 BYTE   W06
 BYTE   N06
 BYTE   W06
 BYTE   As1  v080
 BYTE   W06
 BYTE   Fs1  v004
 BYTE   W06
 BYTE   Fs1  v100
 BYTE   W06
 BYTE   N06
 BYTE   W06
 BYTE   As1  v080
 BYTE   W06
 BYTE   Fs1  v004
 BYTE   W06
// 001   ----------------------------------------
Label_9_011BBAD5:
 BYTE   N06  Fs1  v100
 BYTE   W06
 BYTE   N06
 BYTE   W06
 BYTE   As1  v080
 BYTE   W06
 BYTE   Fs1  v100
 BYTE   W06
 BYTE   N06
 BYTE   W06
 BYTE   N06
 BYTE   W06
 BYTE   As1  v080
 BYTE   W06
 BYTE   Fs1  v100
 BYTE   W06
 BYTE   N06
 BYTE   W06
 BYTE   N06
 BYTE   W06
 BYTE   As1  v080
 BYTE   W06
 BYTE   Fs1  v004
 BYTE   W06
 BYTE   Fs1  v100
 BYTE   W06
 BYTE   N06
 BYTE   W06
 BYTE   As1  v080
 BYTE   W06
 BYTE   Fs1  v004
 BYTE   W06
 BYTE   PEND 
 BYTE   PATT
  POIN2 Label_9_011BBAD5
 BYTE   PATT
  POIN2 Label_9_011BBAD5
 BYTE   PATT
  POIN2 Label_9_011BBAD5
 BYTE   PATT
  POIN2 Label_9_011BBAD5
 BYTE   PATT
  POIN2 Label_9_011BBAD5
// 002   ----------------------------------------
 BYTE   W96
// 003   ----------------------------------------
 BYTE   W96
// 004   ----------------------------------------
 BYTE   W96
// 005   ----------------------------------------
 BYTE   W96
// 006   ----------------------------------------
 BYTE   VOL   57*FE05SquadronBDolkar_mvl/mxv
 BYTE   N06  Fs1  v100
 BYTE   W06
 BYTE   N06
 BYTE   W06
 BYTE   As1  v080
 BYTE   W06
 BYTE   Fs1  v100
 BYTE   W06
 BYTE   N06
 BYTE   W06
 BYTE   N06
 BYTE   W06
 BYTE   As1  v080
 BYTE   W06
 BYTE   Fs1  v100
 BYTE   W06
 BYTE   N06
 BYTE   W06
 BYTE   N06
 BYTE   W06
 BYTE   As1  v080
 BYTE   W06
 BYTE   Fs1  v004
 BYTE   W06
 BYTE   Fs1  v100
 BYTE   W06
 BYTE   N06
 BYTE   W06
 BYTE   As1  v080
 BYTE   W06
 BYTE   Fs1  v004
 BYTE   W06
 BYTE   PATT
  POIN2 Label_9_011BBAD5
 BYTE   PATT
  POIN2 Label_9_011BBAD5
 BYTE   PATT
  POIN2 Label_9_011BBAD5
 BYTE   PATT
  POIN2 Label_9_011BBAD5
 BYTE   PATT
  POIN2 Label_9_011BBAD5
 BYTE   PATT
  POIN2 Label_9_011BBAD5
// 007   ----------------------------------------
 BYTE   W96
// 008   ----------------------------------------
 BYTE   W96
// 009   ----------------------------------------
 BYTE   W96
// 010   ----------------------------------------
 BYTE   W96
// 011   ----------------------------------------
 BYTE   GoTo
  POIN2 Label_9_011BBAA6
 BYTE   FINE

//**************** Track 11 (Midi-Chn.10) ****************//

FE05SquadronBDolkar_011:
// 000   ----------------------------------------
 BYTE   KEYSH   FE05SquadronBDolkar_key+0
Label_10_011BBB76:
 BYTE   VOICE   47
 BYTE   VOL   72*FE05SquadronBDolkar_mvl/mxv
 BYTE   N24  As1  v100
 BYTE   W96
// 001   ----------------------------------------
 BYTE   W84
 BYTE   N12
 BYTE   W12
// 002   ----------------------------------------
 BYTE   N24
 BYTE   W96
// 003   ----------------------------------------
 BYTE   W96
// 004   ----------------------------------------
Label_10_011BBB84:
 BYTE   W84
 BYTE   N06  As1  v100
 BYTE   W06
 BYTE   N06
 BYTE   W06
 BYTE   PEND 
// 005   ----------------------------------------
 BYTE   N24
 BYTE   W96
// 006   ----------------------------------------
 BYTE   W84
 BYTE   N12
 BYTE   W12
// 007   ----------------------------------------
Label_10_011BBB91:
 BYTE   N24  Ds1  v100
 BYTE   W84
 BYTE   N12
 BYTE   W12
 BYTE   PEND 
// 008   ----------------------------------------
 BYTE   N24
 BYTE   W96
// 009   ----------------------------------------
Label_10_011BBB9A:
 BYTE   N24  Ds1  v100
 BYTE   W84
 BYTE   N06
 BYTE   W06
 BYTE   N06
 BYTE   W06
 BYTE   PEND 
// 010   ----------------------------------------
Label_10_011BBBA3:
 BYTE   N24  Ds1  v100
 BYTE   W72
 BYTE   N24
 BYTE   W24
 BYTE   PEND 
// 011   ----------------------------------------
 BYTE   As1
 BYTE   W96
// 012   ----------------------------------------
 BYTE   W84
 BYTE   N12
 BYTE   W12
// 013   ----------------------------------------
 BYTE   N24
 BYTE   W96
// 014   ----------------------------------------
 BYTE   W96
 BYTE   PATT
  POIN2 Label_10_011BBB84
// 015   ----------------------------------------
 BYTE   N24  As1  v100
 BYTE   W96
// 016   ----------------------------------------
 BYTE   W84
 BYTE   N12
 BYTE   W12
 BYTE   PATT
  POIN2 Label_10_011BBB91
// 017   ----------------------------------------
 BYTE   N24  Ds1  v100
 BYTE   W96
 BYTE   PATT
  POIN2 Label_10_011BBB9A
 BYTE   PATT
  POIN2 Label_10_011BBBA3
// 018   ----------------------------------------
 BYTE   GoTo
  POIN2 Label_10_011BBB76
 BYTE   FINE

//******************************************************//
	ALIGN 4

FE05SquadronBDolkar:
	BYTE	11	// NumTrks
	BYTE	0	// NumBlks
	BYTE	FE05SquadronBDolkar_pri	// Priority
	BYTE	FE05SquadronBDolkar_rev	// Reverb.
    
	POIN2	FE05SquadronBDolkar_grp
    
	POIN2	FE05SquadronBDolkar_001
	POIN2	FE05SquadronBDolkar_002
	POIN2	FE05SquadronBDolkar_003
	POIN2	FE05SquadronBDolkar_004
	POIN2	FE05SquadronBDolkar_005
	POIN2	FE05SquadronBDolkar_006
	POIN2	FE05SquadronBDolkar_007
	POIN2	FE05SquadronBDolkar_008
	POIN2	FE05SquadronBDolkar_009
	POIN2	FE05SquadronBDolkar_010
	POIN2	FE05SquadronBDolkar_011

	
