//Event file generated from Sappy .s format.
	#include "MPlayDef.event"

	#define	FE05EyvelRSflame_grp  voicegroup000
	#define	FE05EyvelRSflame_pri  10
	#define	FE05EyvelRSflame_rev  0
	#define	FE05EyvelRSflame_mvl  127
	#define	FE05EyvelRSflame_key  0
	#define	FE05EyvelRSflame_tbs  1
	#define	FE05EyvelRSflame_exg  0
	#define	FE05EyvelRSflame_cmp  1

	// .rodata
	//	FE05EyvelRSflame
	ALIGN 4


//**************** Track 1 (Midi-Chn.0) ****************//

FE05EyvelRSflame_001:
// 000   ----------------------------------------
Label_0_55CCC0:
 BYTE   KEYSH   FE05EyvelRSflame_key+0
 BYTE   VOICE   51
 BYTE   TEMPO   58*FE05EyvelRSflame_tbs/2
 BYTE   W96
// 001   ----------------------------------------
 BYTE   W36
 BYTE   VOL   5*FE05EyvelRSflame_mvl/mxv
 BYTE   PAN   c_v-43
 BYTE   PAN   c_v+0
 BYTE   W01
 BYTE   N02  An3  v102
 BYTE   W03
 BYTE   Cn4  v086
 BYTE   W03
 BYTE   En4  v089
 BYTE   W03
 BYTE   An4  v084
 BYTE   W03
 BYTE   An3  v072
 BYTE   W03
 BYTE   Cn4  v076
 BYTE   W03
 BYTE   En4  v082
 BYTE   W03
 BYTE   An4  v096
 BYTE   W03
 BYTE   An3  v076
 BYTE   W03
 BYTE   Cn4  v066
 BYTE   W03
 BYTE   En4  v093
 BYTE   W03
 BYTE   An4
 BYTE   W03
 BYTE   An3  v081
 BYTE   W03
 BYTE   Cn4  v054
 BYTE   W03
 BYTE   En4  v073
 BYTE   W03
 BYTE   An4  v085
 BYTE   W03
 BYTE   En4
 BYTE   W03
 BYTE   An4  v089
 BYTE   W03
 BYTE   En4  v094
 BYTE   W03
 BYTE   Cn4
 BYTE   W96
// 002   ----------------------------------------
 BYTE   W48
 BYTE   W03
 BYTE   An3  v087
 BYTE   W03
 BYTE   Cn4  v082
 BYTE   W03
 BYTE   En4
 BYTE   W03
 BYTE   An4  v103
 BYTE   W03
 BYTE   An3  v072
 BYTE   W03
 BYTE   Cn4  v085
 BYTE   W03
 BYTE   En4  v090
 BYTE   W03
 BYTE   An4  v096
 BYTE   W03
 BYTE   An3  v072
 BYTE   W03
 BYTE   Cn4  v071
 BYTE   W03
 BYTE   En4  v096
 BYTE   W03
 BYTE   An4
 BYTE   W03
 BYTE   En4  v089
 BYTE   W03
 BYTE   N01  An4  v096
 BYTE   W03
 BYTE   N02  En4  v089
 BYTE   W03
// 003   ----------------------------------------
 BYTE   W96
// 004   ----------------------------------------
 BYTE   W96
// 005   ----------------------------------------
 BYTE   W96
// 006   ----------------------------------------
 BYTE   W96
// 007   ----------------------------------------
 BYTE   W96
// 008   ----------------------------------------
 BYTE   W92
 BYTE   W02
 BYTE   W01
 BYTE   GoTo
  POIN2 Label_0_55CCC0
 BYTE   FINE

//**************** Track 2 (Midi-Chn.1) ****************//

FE05EyvelRSflame_002:
// 000   ----------------------------------------
Label_1_55D048:
 BYTE   KEYSH   FE05EyvelRSflame_key+0
 BYTE   VOICE   51
 BYTE   VOL   5*FE05EyvelRSflame_mvl/mxv
 BYTE   PAN   c_v+34
 BYTE   PAN   c_v+0
 BYTE   TEMPO   58*FE05EyvelRSflame_tbs/2
 BYTE   W02
 BYTE   N44  An2  v118
 BYTE   W22
 BYTE   N03
 BYTE   W24
 BYTE   W02
 BYTE   N44  Bn2  v113
 BYTE   W22
 BYTE   N03
 BYTE   W24
// 001   ----------------------------------------
 BYTE   W02
 BYTE   N92  Cn3  v117
 BYTE   W44
 BYTE   W02
 BYTE   N03
 BYTE   W48
// 002   ----------------------------------------
 BYTE   W02
 BYTE   N44  Cn3  v122
 BYTE   W22
 BYTE   N03
 BYTE   W24
 BYTE   W02
 BYTE   N44  Dn3
 BYTE   W22
 BYTE   N03
 BYTE   W24
// 003   ----------------------------------------
 BYTE   W02
 BYTE   N90  En3  v118
 BYTE   W92
 BYTE   W01
 BYTE   W01
// 004   ----------------------------------------
 BYTE   VOL   30*FE05EyvelRSflame_mvl/mxv
 BYTE   PAN   c_v+25
 BYTE   N44  En4  v103
 BYTE   W22
 BYTE   N02
 BYTE   W24
 BYTE   W02
 BYTE   N23  Dn4
 BYTE   W24
 BYTE   N09  Cn4  v099
 BYTE   W12
 BYTE   N11  Bn3  v102
 BYTE   W12
// 005   ----------------------------------------
 BYTE   N44  An3
 BYTE   W22
 BYTE   N03
 BYTE   W24
 BYTE   W02
 BYTE   N21  Bn3  v096
 BYTE   W24
 BYTE   N11  Cn4  v107
 BYTE   W12
 BYTE   Dn4  v099
 BYTE   W12
// 006   ----------------------------------------
 BYTE   N84  Cn4  v112
 BYTE   W42
 BYTE   N02
 BYTE   W48
 BYTE   Dn4  v103
 BYTE   W03
 BYTE   Cn4  v096
 BYTE   W03
// 007   ----------------------------------------
 BYTE   N72  Bn3  v102
 BYTE   W96
// 008   ----------------------------------------
 BYTE   VOL   30*FE05EyvelRSflame_mvl/mxv
 BYTE   PAN   c_v+0
 BYTE   W03
 BYTE   N02  En4  v093
 BYTE   W06
 BYTE   En4  v085
 BYTE   W06
 BYTE   N03
 BYTE   W06
 BYTE   N02  En4  v095
 BYTE   W06
 BYTE   En4  v091
 BYTE   W06
 BYTE   En4  v086
 BYTE   W06
 BYTE   En4  v087
 BYTE   W06
 BYTE   En4  v096
 BYTE   W06
 BYTE   En4
 BYTE   W06
 BYTE   N03  En4  v079
 BYTE   W06
 BYTE   En4  v081
 BYTE   W06
 BYTE   N02  En4  v077
 BYTE   W06
 BYTE   En4  v086
 BYTE   W06
 BYTE   En4  v076
 BYTE   W06
 BYTE   En4  v091
 BYTE   W06
 BYTE   N05  En4  v096
 BYTE   W06
// 009   ----------------------------------------
 BYTE   N02  En4  v085
 BYTE   W06
 BYTE   N03  En4  v076
 BYTE   W06
 BYTE   N02  En4  v075
 BYTE   W06
 BYTE   N03  En4  v095
 BYTE   W06
 BYTE   En4  v085
 BYTE   W06
 BYTE   N02  En4  v079
 BYTE   W06
 BYTE   En4  v085
 BYTE   W06
 BYTE   N05  En4  v086
 BYTE   W06
 BYTE   N02  En4  v095
 BYTE   W06
 BYTE   N03  En4  v072
 BYTE   W06
 BYTE   N02
 BYTE   W06
 BYTE   N03
 BYTE   W06
 BYTE   En4  v085
 BYTE   W06
 BYTE   En4  v090
 BYTE   W06
 BYTE   En4  v080
 BYTE   W05
 BYTE   W01
 BYTE   N02  En4  v079
 BYTE   GoTo
  POIN2 Label_1_55D048
 BYTE   FINE

//**************** Track 3 (Midi-Chn.2) ****************//

FE05EyvelRSflame_003:
// 000   ----------------------------------------
Label_2_55D12C:
 BYTE   KEYSH   FE05EyvelRSflame_key+0
 BYTE   VOICE   56
 BYTE   VOL   45*FE05EyvelRSflame_mvl/mxv
 BYTE   PAN   c_v+0
 BYTE   TEMPO   58*FE05EyvelRSflame_tbs/2
 BYTE   W03
 BYTE   N02  En4  v093
 BYTE   W06
 BYTE   En4  v085
 BYTE   W06
 BYTE   N03
 BYTE   W06
 BYTE   N02  En4  v095
 BYTE   W06
 BYTE   En4  v091
 BYTE   W06
 BYTE   En4  v086
 BYTE   W06
 BYTE   En4  v087
 BYTE   W06
 BYTE   En4  v096
 BYTE   W06
 BYTE   En4
 BYTE   W06
 BYTE   N03  En4  v079
 BYTE   W06
 BYTE   En4  v081
 BYTE   W06
 BYTE   N02  En4  v077
 BYTE   W06
 BYTE   En4  v086
 BYTE   W06
 BYTE   En4  v076
 BYTE   W06
 BYTE   En4  v091
 BYTE   W06
 BYTE   N03  En4  v096
 BYTE   W06
// 001   ----------------------------------------
 BYTE   N02  En4  v085
 BYTE   W06
 BYTE   N03  En4  v076
 BYTE   W06
 BYTE   N02  En4  v075
 BYTE   W06
 BYTE   N03  En4  v095
 BYTE   W06
 BYTE   En4  v085
 BYTE   W06
 BYTE   N02  En4  v079
 BYTE   W06
 BYTE   En4  v085
 BYTE   W06
 BYTE   N05  En4  v086
 BYTE   W06
 BYTE   N02  En4  v095
 BYTE   W06
 BYTE   N03  En4  v072
 BYTE   W06
 BYTE   N02
 BYTE   W06
 BYTE   N03
 BYTE   W06
 BYTE   En4  v085
 BYTE   W06
 BYTE   En4  v090
 BYTE   W06
 BYTE   En4  v080
 BYTE   W06
 BYTE   N04  En4  v079
 BYTE   W06
// 002   ----------------------------------------
 BYTE   N02  En4  v094
 BYTE   W06
 BYTE   N03  En4  v087
 BYTE   W06
 BYTE   N02  En4  v081
 BYTE   W06
 BYTE   En4  v095
 BYTE   W06
 BYTE   En4  v087
 BYTE   W06
 BYTE   N03  En4  v080
 BYTE   W06
 BYTE   En4  v079
 BYTE   W06
 BYTE   En4  v085
 BYTE   W06
 BYTE   N02  En4  v094
 BYTE   W06
 BYTE   N03  En4  v087
 BYTE   W06
 BYTE   N02  En4  v081
 BYTE   W06
 BYTE   En4  v095
 BYTE   W06
 BYTE   En4  v087
 BYTE   W06
 BYTE   N03  En4  v080
 BYTE   W06
 BYTE   En4  v079
 BYTE   W06
 BYTE   En4  v085
 BYTE   W06
// 003   ----------------------------------------
 BYTE   N02  En4  v094
 BYTE   W06
 BYTE   N03  En4  v087
 BYTE   W06
 BYTE   N02  En4  v081
 BYTE   W06
 BYTE   En4  v095
 BYTE   W06
 BYTE   En4  v087
 BYTE   W06
 BYTE   N03  En4  v080
 BYTE   W06
 BYTE   En4  v079
 BYTE   W06
 BYTE   En4  v085
 BYTE   W06
 BYTE   N02  En4  v094
 BYTE   W06
 BYTE   N03  En4  v087
 BYTE   W06
 BYTE   N02  En4  v081
 BYTE   W06
 BYTE   En4  v095
 BYTE   W06
 BYTE   En4  v087
 BYTE   W06
 BYTE   N03  En4  v080
 BYTE   W06
 BYTE   En4  v079
 BYTE   W06
 BYTE   N01  En4  v085
 BYTE   W02
 BYTE   W01
 BYTE   VOL   45*FE05EyvelRSflame_mvl/mxv
 BYTE   PAN   c_v-14
 BYTE   N96  En3  v085
 BYTE   W48
// 004   ----------------------------------------
 BYTE   N92
 BYTE   W96
// 005   ----------------------------------------
 BYTE   W48
 BYTE   N44
 BYTE   W22
 BYTE   N03
 BYTE   W24
 BYTE   W02
// 006   ----------------------------------------
 BYTE   N23  Dn3  v089
 BYTE   W24
 BYTE   Cn3  v094
 BYTE   W24
 BYTE   N92  Dn3  v085
 BYTE   W44
 BYTE   W02
 BYTE   N03
 BYTE   W96
// 007   ----------------------------------------
 BYTE   W02
 BYTE   VOL   45*FE05EyvelRSflame_mvl/mxv
 BYTE   PAN   c_v+14
 BYTE   PAN   c_v-14
 BYTE   W12
 BYTE   N02  Cn4  v126
 BYTE   W12
 BYTE   Dn4
 BYTE   W12
 BYTE   N09  Bn3
 BYTE   W12
 BYTE   VOL   45*FE05EyvelRSflame_mvl/mxv
 BYTE   PAN   c_v+0
 BYTE   N02  An3  v082
 BYTE   W03
 BYTE   Cn4  v094
 BYTE   W03
 BYTE   En4  v068
 BYTE   W03
 BYTE   An4  v085
 BYTE   W03
 BYTE   An3  v075
 BYTE   W03
 BYTE   Cn4  v081
 BYTE   W03
 BYTE   En4  v058
 BYTE   W03
 BYTE   An4  v094
 BYTE   W03
 BYTE   An3  v072
 BYTE   W03
 BYTE   Cn4  v071
 BYTE   W03
 BYTE   En4  v073
 BYTE   W03
 BYTE   An4  v096
 BYTE   W03
 BYTE   An3  v087
 BYTE   W03
 BYTE   Cn4  v079
 BYTE   W03
 BYTE   En4  v068
 BYTE   W03
 BYTE   An4  v095
 BYTE   W03
// 008   ----------------------------------------
 BYTE   VOL   45*FE05EyvelRSflame_mvl/mxv
 BYTE   PAN   c_v+14
 BYTE   PAN   c_v-14
 BYTE   W12
 BYTE   N02  Cn4  v126
 BYTE   W12
 BYTE   Dn4
 BYTE   W12
 BYTE   N09  Bn3
 BYTE   W08
 BYTE   W01
 BYTE   GoTo
  POIN2 Label_2_55D12C
 BYTE   FINE

//**************** Track 4 (Midi-Chn.3) ****************//

FE05EyvelRSflame_004:
// 000   ----------------------------------------
Label_3_55D2EC:
 BYTE   KEYSH   FE05EyvelRSflame_key+0
 BYTE   VOICE   51
 BYTE   TEMPO   58*FE05EyvelRSflame_tbs/2
 BYTE   W96
// 001   ----------------------------------------
 BYTE   W36
 BYTE   VOL   30*FE05EyvelRSflame_mvl/mxv
 BYTE   PAN   c_v+0
 BYTE   N02  An3  v102
 BYTE   W03
 BYTE   Cn4  v086
 BYTE   W03
 BYTE   En4  v089
 BYTE   W03
 BYTE   An4  v084
 BYTE   W03
 BYTE   An3  v072
 BYTE   W03
 BYTE   Cn4  v076
 BYTE   W03
 BYTE   En4  v082
 BYTE   W03
 BYTE   An4  v096
 BYTE   W03
 BYTE   An3  v076
 BYTE   W03
 BYTE   Cn4  v066
 BYTE   W03
 BYTE   En4  v093
 BYTE   W03
 BYTE   An4
 BYTE   W03
 BYTE   An3  v081
 BYTE   W03
 BYTE   Cn4  v054
 BYTE   W03
 BYTE   En4  v073
 BYTE   W03
 BYTE   An4  v085
 BYTE   W03
 BYTE   En4
 BYTE   W03
 BYTE   An4  v089
 BYTE   W03
 BYTE   En4  v094
 BYTE   W03
 BYTE   Cn4
 BYTE   W96
// 002   ----------------------------------------
 BYTE   W48
 BYTE   W03
 BYTE   An3  v087
 BYTE   W03
 BYTE   Cn4  v082
 BYTE   W03
 BYTE   En4
 BYTE   W03
 BYTE   An4  v103
 BYTE   W03
 BYTE   An3  v072
 BYTE   W03
 BYTE   Cn4  v085
 BYTE   W03
 BYTE   En4  v090
 BYTE   W03
 BYTE   An4  v096
 BYTE   W03
 BYTE   An3  v072
 BYTE   W03
 BYTE   Cn4  v071
 BYTE   W03
 BYTE   En4  v096
 BYTE   W03
 BYTE   An4
 BYTE   W03
 BYTE   En4  v089
 BYTE   W03
 BYTE   N01  An4  v096
 BYTE   W03
 BYTE   N02  En4  v089
 BYTE   W03
// 003   ----------------------------------------
 BYTE   Cn4  v112
 BYTE   W02
 BYTE   W01
 BYTE   VOL   30*FE05EyvelRSflame_mvl/mxv
 BYTE   PAN   c_v-14
 BYTE   N96  An2  v081
 BYTE   W48
 BYTE   N92
 BYTE   W96
// 004   ----------------------------------------
 BYTE   W48
 BYTE   Gn2
 BYTE   W44
 BYTE   W02
 BYTE   N03
 BYTE   W48
// 005   ----------------------------------------
 BYTE   W02
 BYTE   N44  Gs2  v082
 BYTE   W22
 BYTE   N03
 BYTE   W24
 BYTE   W02
 BYTE   N23  An2  v081
 BYTE   W24
 BYTE   Bn2  v085
 BYTE   W24
// 006   ----------------------------------------
 BYTE   VOL   30*FE05EyvelRSflame_mvl/mxv
 BYTE   PAN   c_v-14
 BYTE   N04  En3  v126
 BYTE   W60
 BYTE   N02
 BYTE   W12
 BYTE   Fn3
 BYTE   W12
 BYTE   N09  Dn3
 BYTE   W12
// 007   ----------------------------------------
 BYTE   N04  En3
 BYTE   W60
 BYTE   N02
 BYTE   W12
 BYTE   Fn3
 BYTE   W12
 BYTE   N09  Dn3
 BYTE   W08
 BYTE   W01
 BYTE   GoTo
  POIN2 Label_3_55D2EC
 BYTE   FINE

//**************** Track 5 (Midi-Chn.4) ****************//

FE05EyvelRSflame_005:
// 000   ----------------------------------------
Label_4_55D3A4:
 BYTE   KEYSH   FE05EyvelRSflame_key+0
 BYTE   VOICE   51
 BYTE   VOL   30*FE05EyvelRSflame_mvl/mxv
 BYTE   PAN   c_v-14
 BYTE   N44  En2  v095
 BYTE   TEMPO   58*FE05EyvelRSflame_tbs/2
 BYTE   W22
 BYTE   N03  En2  v095
 BYTE   W24
 BYTE   W02
 BYTE   N44  Fn2  v094
 BYTE   W22
 BYTE   N03
 BYTE   W24
 BYTE   W02
// 001   ----------------------------------------
 BYTE   N44  Gn2  v096
 BYTE   W22
 BYTE   N03
 BYTE   W24
 BYTE   W02
 BYTE   N23  Fs2  v087
 BYTE   W24
 BYTE   Fn2  v095
 BYTE   W24
// 002   ----------------------------------------
 BYTE   N44  En2  v105
 BYTE   W22
 BYTE   N03
 BYTE   W24
 BYTE   W02
 BYTE   N23  Fn2  v090
 BYTE   W24
 BYTE   Gn2  v094
 BYTE   W24
// 003   ----------------------------------------
 BYTE   N44  An2
 BYTE   W44
 BYTE   W01
 BYTE   N02  Bn2  v100
 BYTE   W03
 BYTE   N44  Cn3  v102
 BYTE   W44
 BYTE   W01
 BYTE   N02  Dn3
 BYTE   W02
 BYTE   W01
// 004   ----------------------------------------
 BYTE   VOL   5*FE05EyvelRSflame_mvl/mxv
 BYTE   PAN   c_v-14
 BYTE   W01
 BYTE   N44  Ds4  v103
 BYTE   W22
 BYTE   N02
 BYTE   W24
 BYTE   W02
 BYTE   N23  Cs4
 BYTE   W24
 BYTE   N09  Bn3  v099
 BYTE   W12
 BYTE   N11  As3  v102
 BYTE   W12
// 005   ----------------------------------------
 BYTE   N44  Gs3
 BYTE   W22
 BYTE   N03
 BYTE   W24
 BYTE   W02
 BYTE   N21  As3  v096
 BYTE   W24
 BYTE   N11  Bn3  v107
 BYTE   W12
 BYTE   Cs4  v099
 BYTE   W12
// 006   ----------------------------------------
 BYTE   N84  Bn3  v112
 BYTE   W42
 BYTE   N02
 BYTE   W48
 BYTE   Cs4  v103
 BYTE   W03
 BYTE   Bn3  v096
 BYTE   W03
// 007   ----------------------------------------
 BYTE   N68  As3  v102
 BYTE   W32
 BYTE   W02
 BYTE   N03
 BYTE   W60
 BYTE   W01
 BYTE   VOL   30*FE05EyvelRSflame_mvl/mxv
 BYTE   PAN   c_v-14
 BYTE   N04  An1  v126
 BYTE   W60
// 008   ----------------------------------------
 BYTE   N02
 BYTE   W12
 BYTE   Bn1
 BYTE   W12
 BYTE   N09  Gn1
 BYTE   W12
 BYTE   N04  An1
 BYTE   W60
// 009   ----------------------------------------
 BYTE   N02
 BYTE   W12
 BYTE   Bn1
 BYTE   W12
 BYTE   N09  Fn1
 BYTE   W08
 BYTE   W01
 BYTE   GoTo
  POIN2 Label_4_55D3A4
 BYTE   FINE

//**************** Track 6 (Midi-Chn.5) ****************//

FE05EyvelRSflame_006:
// 000   ----------------------------------------
Label_5_55D448:
 BYTE   KEYSH   FE05EyvelRSflame_key+0
 BYTE   VOICE   51
 BYTE   VOL   30*FE05EyvelRSflame_mvl/mxv
 BYTE   PAN   c_v+0
 BYTE   N44  An2  v118
 BYTE   TEMPO   58*FE05EyvelRSflame_tbs/2
 BYTE   W22
 BYTE   N03  An2  v118
 BYTE   W24
 BYTE   W02
 BYTE   N44  Bn2  v113
 BYTE   W22
 BYTE   N03
 BYTE   W24
 BYTE   W02
// 001   ----------------------------------------
 BYTE   N92  Cn3  v117
 BYTE   W44
 BYTE   W02
 BYTE   N03
 BYTE   W48
 BYTE   W02
// 002   ----------------------------------------
 BYTE   N44  Cn3  v122
 BYTE   W22
 BYTE   N03
 BYTE   W24
 BYTE   W02
 BYTE   N44  Dn3
 BYTE   W22
 BYTE   N03
 BYTE   W24
 BYTE   W02
// 003   ----------------------------------------
 BYTE   N92  En3  v118
 BYTE   W44
 BYTE   W02
 BYTE   N03
 BYTE   W48
 BYTE   W01
 BYTE   W01
// 004   ----------------------------------------
 BYTE   VOL   30*FE05EyvelRSflame_mvl/mxv
 BYTE   PAN   c_v-14
 BYTE   N02  An3  v121
 BYTE   W06
 BYTE   N01  Bn3  v107
 BYTE   W06
 BYTE   N02  Cn4  v114
 BYTE   W06
 BYTE   Bn3  v099
 BYTE   W06
 BYTE   Dn4  v117
 BYTE   W06
 BYTE   N01  Cn4  v113
 BYTE   W06
 BYTE   N02  Bn3  v082
 BYTE   W06
 BYTE   N01  Cn4  v110
 BYTE   W06
 BYTE   N02  An3  v119
 BYTE   W06
 BYTE   Bn3  v105
 BYTE   W06
 BYTE   Cn4  v114
 BYTE   W06
 BYTE   N01  Bn3  v104
 BYTE   W06
 BYTE   Dn4  v116
 BYTE   W06
 BYTE   N02  Cn4  v112
 BYTE   W06
 BYTE   Bn3  v105
 BYTE   W06
 BYTE   Cn4
 BYTE   W06
// 005   ----------------------------------------
 BYTE   An3  v113
 BYTE   W06
 BYTE   N01  Bn3  v104
 BYTE   W06
 BYTE   N02  Cn4  v113
 BYTE   W06
 BYTE   Bn3  v104
 BYTE   W06
 BYTE   N01  Dn4  v117
 BYTE   W06
 BYTE   N02  Cn4  v110
 BYTE   W06
 BYTE   Bn3  v107
 BYTE   W06
 BYTE   Cn4  v110
 BYTE   W06
 BYTE   An3  v108
 BYTE   W06
 BYTE   N01  Bn3  v103
 BYTE   W06
 BYTE   N02  Cn4  v112
 BYTE   W06
 BYTE   N01  Bn3  v104
 BYTE   W06
 BYTE   Dn4  v117
 BYTE   W06
 BYTE   N03  Cn4  v108
 BYTE   W06
 BYTE   N02  Bn3  v099
 BYTE   W06
 BYTE   N03  Cn4  v112
 BYTE   W06
// 006   ----------------------------------------
 BYTE   N02  Bn3  v110
 BYTE   W06
 BYTE   Cn4  v108
 BYTE   W06
 BYTE   Dn4  v114
 BYTE   W06
 BYTE   Cn4  v095
 BYTE   W06
 BYTE   En4  v117
 BYTE   W06
 BYTE   Dn4  v109
 BYTE   W06
 BYTE   Cn4  v105
 BYTE   W06
 BYTE   Dn4  v109
 BYTE   W06
 BYTE   Bn3  v110
 BYTE   W06
 BYTE   Cn4  v108
 BYTE   W06
 BYTE   Dn4  v114
 BYTE   W06
 BYTE   Cn4  v095
 BYTE   W06
 BYTE   En4  v117
 BYTE   W06
 BYTE   Dn4  v109
 BYTE   W06
 BYTE   Cn4  v105
 BYTE   W06
 BYTE   Dn4  v109
 BYTE   W06
// 007   ----------------------------------------
 BYTE   Bn3  v110
 BYTE   W06
 BYTE   Cn4  v108
 BYTE   W06
 BYTE   Dn4  v114
 BYTE   W06
 BYTE   Cn4  v095
 BYTE   W06
 BYTE   En4  v117
 BYTE   W06
 BYTE   Dn4  v109
 BYTE   W06
 BYTE   Cn4  v105
 BYTE   W06
 BYTE   Dn4  v109
 BYTE   W06
 BYTE   Bn3  v110
 BYTE   W06
 BYTE   Cn4  v108
 BYTE   W06
 BYTE   Dn4  v114
 BYTE   W06
 BYTE   Cn4  v095
 BYTE   W06
 BYTE   En4  v117
 BYTE   W06
 BYTE   Dn4  v109
 BYTE   W06
 BYTE   Cn4  v105
 BYTE   W06
 BYTE   Bn3  v109
 BYTE   W06
// 008   ----------------------------------------
 BYTE   VOL   30*FE05EyvelRSflame_mvl/mxv
 BYTE   PAN   c_v-14
 BYTE   N04  Cn3  v126
 BYTE   W60
 BYTE   N02
 BYTE   W12
 BYTE   Dn3
 BYTE   W12
 BYTE   N09  Bn2
 BYTE   W12
// 009   ----------------------------------------
 BYTE   N04  Cn3
 BYTE   W60
 BYTE   N02
 BYTE   W12
 BYTE   Dn3
 BYTE   W12
 BYTE   N09  Bn2
 BYTE   W08
 BYTE   W01
 BYTE   GoTo
  POIN2 Label_5_55D448
 BYTE   FINE

//**************** Track 7 (Midi-Chn.6) ****************//

FE05EyvelRSflame_007:
// 000   ----------------------------------------
Label_6_0101D900:
 BYTE   KEYSH   FE05EyvelRSflame_key+0
 BYTE   VOICE   56
 BYTE   VOL   75*FE05EyvelRSflame_mvl/mxv
 BYTE   PAN   c_v-14
 BYTE   N02  An3  v121
 BYTE   TEMPO   58*FE05EyvelRSflame_tbs/2
 BYTE   W06
 BYTE   N01  Bn3  v107
 BYTE   W06
 BYTE   N02  Cn4  v114
 BYTE   W06
 BYTE   Bn3  v099
 BYTE   W06
 BYTE   Dn4  v117
 BYTE   W06
 BYTE   N01  Cn4  v113
 BYTE   W06
 BYTE   N02  Bn3  v082
 BYTE   W06
 BYTE   N01  Cn4  v110
 BYTE   W06
 BYTE   N02  An3  v119
 BYTE   W06
 BYTE   Bn3  v105
 BYTE   W06
 BYTE   Cn4  v114
 BYTE   W06
 BYTE   N01  Bn3  v104
 BYTE   W06
 BYTE   Dn4  v116
 BYTE   W06
 BYTE   N02  Cn4  v112
 BYTE   W06
 BYTE   Bn3  v105
 BYTE   W06
 BYTE   Cn4
 BYTE   W06
// 001   ----------------------------------------
 BYTE   An3  v113
 BYTE   W06
 BYTE   N01  Bn3  v104
 BYTE   W06
 BYTE   N02  Cn4  v113
 BYTE   W06
 BYTE   Bn3  v104
 BYTE   W06
 BYTE   N01  Dn4  v117
 BYTE   W06
 BYTE   N02  Cn4  v110
 BYTE   W06
 BYTE   Bn3  v107
 BYTE   W06
 BYTE   Cn4  v110
 BYTE   W06
 BYTE   An3  v108
 BYTE   W06
 BYTE   N01  Bn3  v103
 BYTE   W06
 BYTE   N02  Cn4  v112
 BYTE   W06
 BYTE   N01  Bn3  v104
 BYTE   W06
 BYTE   Dn4  v117
 BYTE   W06
 BYTE   N03  Cn4  v108
 BYTE   W06
 BYTE   N02  Bn3  v099
 BYTE   W06
 BYTE   N03  Cn4  v112
 BYTE   W06
// 002   ----------------------------------------
 BYTE   N02  An3  v110
 BYTE   W06
 BYTE   Bn3  v108
 BYTE   W06
 BYTE   Cn4  v114
 BYTE   W06
 BYTE   Bn3  v095
 BYTE   W06
 BYTE   Dn4  v117
 BYTE   W06
 BYTE   Cn4  v109
 BYTE   W06
 BYTE   Bn3  v105
 BYTE   W06
 BYTE   Cn4  v109
 BYTE   W06
 BYTE   An3  v110
 BYTE   W06
 BYTE   Bn3  v108
 BYTE   W06
 BYTE   Cn4  v114
 BYTE   W06
 BYTE   Bn3  v095
 BYTE   W06
 BYTE   Dn4  v117
 BYTE   W06
 BYTE   Cn4  v109
 BYTE   W06
 BYTE   Bn3  v105
 BYTE   W06
 BYTE   Cn4  v109
 BYTE   W06
// 003   ----------------------------------------
 BYTE   An3  v110
 BYTE   W06
 BYTE   Bn3  v108
 BYTE   W06
 BYTE   Cn4  v114
 BYTE   W06
 BYTE   Bn3  v095
 BYTE   W06
 BYTE   Dn4  v117
 BYTE   W06
 BYTE   Cn4  v109
 BYTE   W06
 BYTE   Bn3  v105
 BYTE   W06
 BYTE   Cn4  v109
 BYTE   W06
 BYTE   An3  v110
 BYTE   W06
 BYTE   Bn3  v108
 BYTE   W06
 BYTE   Cn4  v114
 BYTE   W06
 BYTE   Bn3  v095
 BYTE   W06
 BYTE   Dn4  v117
 BYTE   W06
 BYTE   Cn4  v109
 BYTE   W06
 BYTE   Bn3  v105
 BYTE   W06
 BYTE   Cn4  v109
 BYTE   W05
 BYTE   W01
// 004   ----------------------------------------
 BYTE   VOL   75*FE05EyvelRSflame_mvl/mxv
 BYTE   PAN   c_v+0
 BYTE   W03
 BYTE   N02  En4  v093
 BYTE   W06
 BYTE   En4  v085
 BYTE   W06
 BYTE   N03
 BYTE   W06
 BYTE   N02  En4  v095
 BYTE   W06
 BYTE   En4  v091
 BYTE   W06
 BYTE   En4  v086
 BYTE   W06
 BYTE   En4  v087
 BYTE   W06
 BYTE   En4  v096
 BYTE   W06
 BYTE   En4
 BYTE   W06
 BYTE   N03  En4  v079
 BYTE   W06
 BYTE   En4  v081
 BYTE   W06
 BYTE   N02  En4  v077
 BYTE   W06
 BYTE   En4  v086
 BYTE   W06
 BYTE   En4  v076
 BYTE   W06
 BYTE   En4  v091
 BYTE   W06
 BYTE   N05  En4  v096
 BYTE   W06
// 005   ----------------------------------------
 BYTE   N02  En4  v085
 BYTE   W06
 BYTE   N03  En4  v076
 BYTE   W06
 BYTE   N02  En4  v075
 BYTE   W06
 BYTE   N03  En4  v095
 BYTE   W06
 BYTE   En4  v085
 BYTE   W06
 BYTE   N02  En4  v079
 BYTE   W06
 BYTE   En4  v085
 BYTE   W06
 BYTE   N05  En4  v086
 BYTE   W06
 BYTE   N02  En4  v095
 BYTE   W06
 BYTE   N03  En4  v072
 BYTE   W06
 BYTE   N02
 BYTE   W06
 BYTE   N03
 BYTE   W06
 BYTE   En4  v085
 BYTE   W06
 BYTE   En4  v090
 BYTE   W06
 BYTE   En4  v080
 BYTE   W06
 BYTE   N04  En4  v079
 BYTE   W06
// 006   ----------------------------------------
 BYTE   N02  En4  v094
 BYTE   W06
 BYTE   N03  En4  v087
 BYTE   W06
 BYTE   N02  En4  v081
 BYTE   W06
 BYTE   En4  v095
 BYTE   W06
 BYTE   En4  v087
 BYTE   W06
 BYTE   N03  En4  v080
 BYTE   W06
 BYTE   En4  v079
 BYTE   W06
 BYTE   En4  v085
 BYTE   W06
 BYTE   N02  En4  v094
 BYTE   W06
 BYTE   N03  En4  v087
 BYTE   W06
 BYTE   N02  En4  v081
 BYTE   W06
 BYTE   En4  v095
 BYTE   W06
 BYTE   En4  v087
 BYTE   W06
 BYTE   N03  En4  v080
 BYTE   W06
 BYTE   En4  v079
 BYTE   W06
 BYTE   En4  v085
 BYTE   W06
// 007   ----------------------------------------
 BYTE   N02  En4  v094
 BYTE   W06
 BYTE   N03  En4  v087
 BYTE   W06
 BYTE   N02  En4  v081
 BYTE   W06
 BYTE   En4  v095
 BYTE   W06
 BYTE   En4  v087
 BYTE   W06
 BYTE   N03  En4  v080
 BYTE   W06
 BYTE   En4  v079
 BYTE   W06
 BYTE   En4  v085
 BYTE   W06
 BYTE   N02  En4  v094
 BYTE   W06
 BYTE   N03  En4  v087
 BYTE   W06
 BYTE   N02  En4  v081
 BYTE   W06
 BYTE   En4  v095
 BYTE   W06
 BYTE   En4  v087
 BYTE   W06
 BYTE   N03  En4  v080
 BYTE   W06
 BYTE   En4  v079
 BYTE   W06
 BYTE   N01  En4  v085
 BYTE   W03
 BYTE   VOL   75*FE05EyvelRSflame_mvl/mxv
 BYTE   PAN   c_v-14
 BYTE   N02  An3  v121
 BYTE   W06
// 008   ----------------------------------------
 BYTE   N01  Bn3  v107
 BYTE   W06
 BYTE   N02  Cn4  v114
 BYTE   W06
 BYTE   Bn3  v099
 BYTE   W06
 BYTE   Dn4  v117
 BYTE   W06
 BYTE   N01  Cn4  v113
 BYTE   W06
 BYTE   N02  Bn3  v082
 BYTE   W06
 BYTE   N01  Cn4  v110
 BYTE   W06
 BYTE   N02  An3  v119
 BYTE   W06
 BYTE   Bn3  v105
 BYTE   W06
 BYTE   Cn4  v114
 BYTE   W06
 BYTE   N01  Bn3  v104
 BYTE   W06
 BYTE   Dn4  v116
 BYTE   W06
 BYTE   N02  Cn4  v112
 BYTE   W06
 BYTE   Bn3  v105
 BYTE   W06
 BYTE   Cn4
 BYTE   W06
 BYTE   An3  v113
 BYTE   W06
// 009   ----------------------------------------
 BYTE   N01  Bn3  v104
 BYTE   W06
 BYTE   N02  Cn4  v113
 BYTE   W06
 BYTE   Bn3  v104
 BYTE   W06
 BYTE   N01  Dn4  v117
 BYTE   W06
 BYTE   N02  Cn4  v110
 BYTE   W06
 BYTE   Bn3  v107
 BYTE   W06
 BYTE   Cn4  v110
 BYTE   W06
 BYTE   An3  v108
 BYTE   W06
 BYTE   N01  Bn3  v103
 BYTE   W06
 BYTE   N02  Cn4  v112
 BYTE   W06
 BYTE   N01  Bn3  v104
 BYTE   W06
 BYTE   Dn4  v117
 BYTE   W06
 BYTE   N03  Cn4  v108
 BYTE   W06
 BYTE   N02  Bn3  v099
 BYTE   W06
 BYTE   N03  Cn4  v112
 BYTE   W02
 BYTE   W01
 BYTE   GoTo
  POIN2 Label_6_0101D900
 BYTE   FINE

//**************** Track 8 (Midi-Chn.7) ****************//

FE05EyvelRSflame_008:
// 000   ----------------------------------------
Label_7_0101DB3C:
 BYTE   KEYSH   FE05EyvelRSflame_key+0
 BYTE   VOICE   0
 BYTE   VOL   49*FE05EyvelRSflame_mvl/mxv
 BYTE   PAN   c_v+0
 BYTE   N04  An1  v126
 BYTE   TEMPO   58*FE05EyvelRSflame_tbs/2
 BYTE   W06
 BYTE   N01  An1  v082
 BYTE   W06
 BYTE   An1  v076
 BYTE   W06
 BYTE   N04  An1  v126
 BYTE   W06
 BYTE   N01  An1  v082
 BYTE   W06
 BYTE   An1  v076
 BYTE   W06
 BYTE   N04  An1  v126
 BYTE   W06
 BYTE   N01  An1  v076
 BYTE   W06
 BYTE   N04  An1  v126
 BYTE   W06
 BYTE   N01  An1  v082
 BYTE   W06
 BYTE   An1  v076
 BYTE   W06
 BYTE   N04  An1  v126
 BYTE   W06
 BYTE   N01  An1  v082
 BYTE   W06
 BYTE   An1  v076
 BYTE   W06
 BYTE   N04  An1  v126
 BYTE   W06
 BYTE   N01  An1  v076
 BYTE   W06
// 001   ----------------------------------------
 BYTE   N04  An1  v126
 BYTE   W06
 BYTE   N01  An1  v082
 BYTE   W06
 BYTE   An1  v076
 BYTE   W06
 BYTE   N04  An1  v126
 BYTE   W06
 BYTE   N01  An1  v082
 BYTE   W06
 BYTE   An1  v076
 BYTE   W06
 BYTE   N04  An1  v126
 BYTE   W06
 BYTE   N01  An1  v076
 BYTE   W06
 BYTE   N04  An1  v126
 BYTE   W06
 BYTE   N01  An1  v082
 BYTE   W06
 BYTE   An1  v076
 BYTE   W06
 BYTE   N04  An1  v126
 BYTE   W06
 BYTE   N01  An1  v082
 BYTE   W06
 BYTE   An1  v076
 BYTE   W06
 BYTE   N02  An1  v126
 BYTE   W06
 BYTE   An1
 BYTE   W06
// 002   ----------------------------------------
 BYTE   N04
 BYTE   W06
 BYTE   N01  An1  v082
 BYTE   W06
 BYTE   An1  v076
 BYTE   W06
 BYTE   N04  An1  v126
 BYTE   W06
 BYTE   N01  An1  v082
 BYTE   W06
 BYTE   An1  v076
 BYTE   W06
 BYTE   N04  An1  v126
 BYTE   W06
 BYTE   N01  An1  v076
 BYTE   W06
 BYTE   N04  An1  v126
 BYTE   W06
 BYTE   N01  An1  v082
 BYTE   W06
 BYTE   An1  v076
 BYTE   W06
 BYTE   N04  An1  v126
 BYTE   W06
 BYTE   N01  An1  v082
 BYTE   W06
 BYTE   An1  v076
 BYTE   W06
 BYTE   N04  An1  v126
 BYTE   W06
 BYTE   N01  An1  v076
 BYTE   W06
// 003   ----------------------------------------
 BYTE   N04  An1  v126
 BYTE   W06
 BYTE   N01  An1  v082
 BYTE   W06
 BYTE   An1  v076
 BYTE   W06
 BYTE   N04  An1  v126
 BYTE   W06
 BYTE   N01  An1  v082
 BYTE   W06
 BYTE   An1  v076
 BYTE   W06
 BYTE   N04  An1  v126
 BYTE   W06
 BYTE   N01  An1  v076
 BYTE   W06
 BYTE   N04  An1  v126
 BYTE   W06
 BYTE   N01  An1  v082
 BYTE   W06
 BYTE   An1  v076
 BYTE   W06
 BYTE   N04  An1  v126
 BYTE   W06
 BYTE   N01  An1  v082
 BYTE   W06
 BYTE   An1  v076
 BYTE   W06
 BYTE   N02  An1  v126
 BYTE   W06
 BYTE   An1
 BYTE   W05
 BYTE   W01
// 004   ----------------------------------------
 BYTE   VOICE   0
 BYTE   VOL   49*FE05EyvelRSflame_mvl/mxv
 BYTE   PAN   c_v+0
 BYTE   N04  Fn1  v126
 BYTE   W06
 BYTE   N01  Fn1  v082
 BYTE   W06
 BYTE   Fn1  v076
 BYTE   W06
 BYTE   N04  Fn1  v126
 BYTE   W06
 BYTE   N01  Fn1  v082
 BYTE   W06
 BYTE   Fn1  v076
 BYTE   W06
 BYTE   N04  Fn1  v126
 BYTE   W06
 BYTE   N01  Fn1  v082
 BYTE   W06
 BYTE   N04  Fn1  v126
 BYTE   W06
 BYTE   N01  Fn1  v082
 BYTE   W06
 BYTE   Fn1  v076
 BYTE   W06
 BYTE   N04  Fn1  v126
 BYTE   W06
 BYTE   N01  Fn1  v082
 BYTE   W06
 BYTE   Fn1  v076
 BYTE   W06
 BYTE   N04  Fn1  v126
 BYTE   W06
 BYTE   N01  Fn1  v082
 BYTE   W06
// 005   ----------------------------------------
 BYTE   N04  Fn1  v126
 BYTE   W06
 BYTE   N01  Fn1  v082
 BYTE   W06
 BYTE   Fn1  v076
 BYTE   W06
 BYTE   N04  Fn1  v126
 BYTE   W06
 BYTE   N01  Fn1  v082
 BYTE   W06
 BYTE   Fn1  v076
 BYTE   W06
 BYTE   N04  Fn1  v126
 BYTE   W06
 BYTE   N01  Fn1  v082
 BYTE   W06
 BYTE   N04  Fn1  v126
 BYTE   W06
 BYTE   N01  Fn1  v082
 BYTE   W06
 BYTE   Fn1  v076
 BYTE   W06
 BYTE   N04  Fn1  v126
 BYTE   W06
 BYTE   N01  Fn1  v082
 BYTE   W06
 BYTE   Fn1  v076
 BYTE   W06
 BYTE   N04  Fn1  v126
 BYTE   W06
 BYTE   N02
 BYTE   W06
// 006   ----------------------------------------
 BYTE   N04  Gn1
 BYTE   W06
 BYTE   N01  Gn1  v082
 BYTE   W06
 BYTE   Gn1  v076
 BYTE   W06
 BYTE   N04  Gn1  v126
 BYTE   W06
 BYTE   N01  Gn1  v082
 BYTE   W06
 BYTE   Gn1  v076
 BYTE   W06
 BYTE   N04  Gn1  v126
 BYTE   W06
 BYTE   N01  Gn1  v082
 BYTE   W06
 BYTE   N04  Gn1  v126
 BYTE   W06
 BYTE   N01  Gn1  v082
 BYTE   W06
 BYTE   Gn1  v076
 BYTE   W06
 BYTE   N04  Gn1  v126
 BYTE   W06
 BYTE   N01  Gn1  v082
 BYTE   W06
 BYTE   Gn1  v076
 BYTE   W06
 BYTE   N04  Gn1  v126
 BYTE   W06
 BYTE   N01  Gn1  v082
 BYTE   W06
// 007   ----------------------------------------
 BYTE   N04  En1  v126
 BYTE   W06
 BYTE   N01  En1  v082
 BYTE   W06
 BYTE   En1  v076
 BYTE   W06
 BYTE   N04  En1  v126
 BYTE   W06
 BYTE   N01  En1  v082
 BYTE   W06
 BYTE   En1  v076
 BYTE   W06
 BYTE   N04  En1  v126
 BYTE   W06
 BYTE   N01  En1  v082
 BYTE   W06
 BYTE   N04  En1  v126
 BYTE   W06
 BYTE   N01  En1  v082
 BYTE   W06
 BYTE   En1  v076
 BYTE   W06
 BYTE   N04  En1  v126
 BYTE   W06
 BYTE   N01  En1  v082
 BYTE   W06
 BYTE   En1  v076
 BYTE   W06
 BYTE   N02  En1  v126
 BYTE   W06
 BYTE   En1
 BYTE   W06
// 008   ----------------------------------------
 BYTE   VOICE   0
 BYTE   VOL   49*FE05EyvelRSflame_mvl/mxv
 BYTE   PAN   c_v+0
 BYTE   N04  An1  v126
 BYTE   W06
 BYTE   N01  An1  v082
 BYTE   W06
 BYTE   An1  v076
 BYTE   W06
 BYTE   N04  An1  v126
 BYTE   W06
 BYTE   N01  An1  v082
 BYTE   W06
 BYTE   An1  v076
 BYTE   W06
 BYTE   N04  An1  v126
 BYTE   W06
 BYTE   N01  An1  v082
 BYTE   W06
 BYTE   N04  An1  v126
 BYTE   W06
 BYTE   N01  An1  v082
 BYTE   W06
 BYTE   An1  v076
 BYTE   W06
 BYTE   N04  An1  v126
 BYTE   W06
 BYTE   N01  An1  v082
 BYTE   W06
 BYTE   An1  v076
 BYTE   W06
 BYTE   N04  An1  v126
 BYTE   W06
 BYTE   N01  An1  v082
 BYTE   W06
// 009   ----------------------------------------
 BYTE   N04  An1  v126
 BYTE   W06
 BYTE   N01  An1  v082
 BYTE   W06
 BYTE   An1  v076
 BYTE   W06
 BYTE   N04  An1  v126
 BYTE   W06
 BYTE   N01  An1  v082
 BYTE   W06
 BYTE   An1  v076
 BYTE   W06
 BYTE   N04  An1  v126
 BYTE   W06
 BYTE   N01  An1  v082
 BYTE   W06
 BYTE   N04  An1  v126
 BYTE   W06
 BYTE   N01  An1  v082
 BYTE   W06
 BYTE   An1  v076
 BYTE   W06
 BYTE   N04  An1  v126
 BYTE   W06
 BYTE   N01  An1  v082
 BYTE   W06
 BYTE   An1  v076
 BYTE   W06
 BYTE   N04  An1  v126
 BYTE   W06
 BYTE   N02
 BYTE   W02
 BYTE   W01
 BYTE   GoTo
  POIN2 Label_7_0101DB3C
 BYTE   FINE

//******************************************************//
	ALIGN 4

FE05EyvelRSflame:
	BYTE	8	// NumTrks
	BYTE	0	// NumBlks
	BYTE	FE05EyvelRSflame_pri	// Priority
	BYTE	FE05EyvelRSflame_rev	// Reverb.
    
	POIN2	FE05EyvelRSflame_grp
    
	POIN2	FE05EyvelRSflame_001
	POIN2	FE05EyvelRSflame_002
	POIN2	FE05EyvelRSflame_003
	POIN2	FE05EyvelRSflame_004
	POIN2	FE05EyvelRSflame_005
	POIN2	FE05EyvelRSflame_006
	POIN2	FE05EyvelRSflame_007
	POIN2	FE05EyvelRSflame_008

	
