//Event file generated from Sappy .s format.
	#include "MPlayDef.event"

	#define	FE05PressingThreatBaseADolkar_grp  voicegroup000
	#define	FE05PressingThreatBaseADolkar_pri  0
	#define	FE05PressingThreatBaseADolkar_rev  0
	#define	FE05PressingThreatBaseADolkar_mvl  127
	#define	FE05PressingThreatBaseADolkar_key  0
	#define	FE05PressingThreatBaseADolkar_tbs  1
	#define	FE05PressingThreatBaseADolkar_exg  0
	#define	FE05PressingThreatBaseADolkar_cmp  1

	// .rodata
	//	FE05PressingThreatBaseADolkar
	ALIGN 4


//**************** Track 1 (Midi-Chn.0) ****************//

FE05PressingThreatBaseADolkar_001:
// 000   ----------------------------------------
 BYTE   KEYSH   FE05PressingThreatBaseADolkar_key+0
Label_0_01053912:
 BYTE   TEMPO   120*FE05PressingThreatBaseADolkar_tbs/2
 BYTE   VOICE   56
 BYTE   VOL   69*FE05PressingThreatBaseADolkar_mvl/mxv
 BYTE   W96
// 001   ----------------------------------------
 BYTE   W96
// 002   ----------------------------------------
 BYTE   W96
// 003   ----------------------------------------
 BYTE   W96
// 004   ----------------------------------------
 BYTE   W96
// 005   ----------------------------------------
Label_0_0105391D:
 BYTE   N08  Cn3  v080
 BYTE   W08
 BYTE   En3
 BYTE   W08
 BYTE   Cn4
 BYTE   W08
 BYTE   N60  Bn3
 BYTE   W72
 BYTE   PEND 
// 006   ----------------------------------------
Label_0_01053929:
 BYTE   N08  Dn3  v080
 BYTE   W08
 BYTE   Fn3
 BYTE   W08
 BYTE   Dn4
 BYTE   W08
 BYTE   N60  Cs4
 BYTE   W72
 BYTE   PEND 
// 007   ----------------------------------------
 BYTE   N96  Cn4
 BYTE   W96
// 008   ----------------------------------------
 BYTE   W48
 BYTE   N24  An2  v100
 BYTE   W48
// 009   ----------------------------------------
 BYTE   W96
// 010   ----------------------------------------
Label_0_0105393E:
 BYTE   N08  Fs1  v100
 BYTE   W08
 BYTE   Cs2
 BYTE   W08
 BYTE   Fs2
 BYTE   W08
 BYTE   N72  Cs3
 BYTE   W72
 BYTE   PEND 
// 011   ----------------------------------------
 BYTE   W96
// 012   ----------------------------------------
 BYTE   W96
// 013   ----------------------------------------
 BYTE   W96
// 014   ----------------------------------------
 BYTE   W96
// 015   ----------------------------------------
 BYTE   W96
// 016   ----------------------------------------
 BYTE   W96
// 017   ----------------------------------------
 BYTE   W96
// 018   ----------------------------------------
 BYTE   W96
// 019   ----------------------------------------
 BYTE   W96
// 020   ----------------------------------------
 BYTE   W96
// 021   ----------------------------------------
 BYTE   W96
// 022   ----------------------------------------
 BYTE   W96
// 023   ----------------------------------------
 BYTE   W96
// 024   ----------------------------------------
 BYTE   W96
// 025   ----------------------------------------
 BYTE   W96
// 026   ----------------------------------------
 BYTE   W96
// 027   ----------------------------------------
 BYTE   VOL   69*FE05PressingThreatBaseADolkar_mvl/mxv
 BYTE   W96
// 028   ----------------------------------------
 BYTE   W96
// 029   ----------------------------------------
 BYTE   W96
// 030   ----------------------------------------
 BYTE   W96
 BYTE   PATT
  POIN2 Label_0_0105391D
 BYTE   PATT
  POIN2 Label_0_01053929
// 031   ----------------------------------------
 BYTE   N96  Cn4  v080
 BYTE   W96
// 032   ----------------------------------------
 BYTE   W48
 BYTE   N24  An2  v100
 BYTE   W48
// 033   ----------------------------------------
 BYTE   W96
 BYTE   PATT
  POIN2 Label_0_0105393E
// 034   ----------------------------------------
 BYTE   W96
// 035   ----------------------------------------
 BYTE   W96
// 036   ----------------------------------------
 BYTE   W96
// 037   ----------------------------------------
 BYTE   W96
// 038   ----------------------------------------
 BYTE   W96
// 039   ----------------------------------------
 BYTE   W96
// 040   ----------------------------------------
 BYTE   W96
// 041   ----------------------------------------
 BYTE   W96
// 042   ----------------------------------------
 BYTE   W96
// 043   ----------------------------------------
 BYTE   W96
// 044   ----------------------------------------
 BYTE   W96
// 045   ----------------------------------------
 BYTE   W96
// 046   ----------------------------------------
 BYTE   W96
// 047   ----------------------------------------
 BYTE   W96
// 048   ----------------------------------------
 BYTE   W96
// 049   ----------------------------------------
 BYTE   W96
// 050   ----------------------------------------
 BYTE   GoTo
  POIN2 Label_0_01053912
// 051   ----------------------------------------
 BYTE   W96
// 052   ----------------------------------------
 BYTE   W96
 BYTE   FINE

//**************** Track 2 (Midi-Chn.1) ****************//

FE05PressingThreatBaseADolkar_002:
// 000   ----------------------------------------
 BYTE   KEYSH   FE05PressingThreatBaseADolkar_key+0
Label_1_01053996:
 BYTE   VOICE   56
 BYTE   VOL   69*FE05PressingThreatBaseADolkar_mvl/mxv
 BYTE   N08  En2  v076
 BYTE   W08
 BYTE   Dn2  v088
 BYTE   W08
 BYTE   En2  v092
 BYTE   W08
 BYTE   Fn2  v096
 BYTE   W08
 BYTE   En2  v100
 BYTE   W08
 BYTE   Dn2
 BYTE   W08
 BYTE   En2
 BYTE   W08
 BYTE   Dn2
 BYTE   W08
 BYTE   En2
 BYTE   W08
 BYTE   Fn2
 BYTE   W08
 BYTE   Fs2
 BYTE   W08
 BYTE   Gn2
 BYTE   W08
// 001   ----------------------------------------
Label_1_010539B8:
 BYTE   N24  An1  v100
 BYTE   W24
 BYTE   En2
 BYTE   W24
 BYTE   Dn2
 BYTE   W24
 BYTE   N08  Cn2
 BYTE   W08
 BYTE   Dn2
 BYTE   W08
 BYTE   As1
 BYTE   W08
 BYTE   PEND 
 BYTE   PATT
  POIN2 Label_1_010539B8
 BYTE   PATT
  POIN2 Label_1_010539B8
// 002   ----------------------------------------
 BYTE   N72  An1  v100
 BYTE   W96
// 003   ----------------------------------------
Label_1_010539D6:
 BYTE   N08  Fn1  v100
 BYTE   W08
 BYTE   An1
 BYTE   W08
 BYTE   Fn2
 BYTE   W08
 BYTE   N60  En2
 BYTE   W72
 BYTE   PEND 
// 004   ----------------------------------------
Label_1_010539E2:
 BYTE   N08  Gn1  v100
 BYTE   W08
 BYTE   Bn1
 BYTE   W08
 BYTE   Fs2
 BYTE   W08
 BYTE   N60  Fn2
 BYTE   W72
 BYTE   PEND 
// 005   ----------------------------------------
 BYTE   N96  En2
 BYTE   W96
// 006   ----------------------------------------
 BYTE   W48
 BYTE   N24
 BYTE   W48
// 007   ----------------------------------------
 BYTE   W96
// 008   ----------------------------------------
 BYTE   W96
// 009   ----------------------------------------
 BYTE   W96
// 010   ----------------------------------------
 BYTE   W96
// 011   ----------------------------------------
 BYTE   W96
// 012   ----------------------------------------
 BYTE   W96
// 013   ----------------------------------------
 BYTE   N84  Cs3
 BYTE   W96
// 014   ----------------------------------------
 BYTE   W96
// 015   ----------------------------------------
 BYTE   W96
// 016   ----------------------------------------
 BYTE   N84
 BYTE   W96
// 017   ----------------------------------------
Label_1_01053A01:
 BYTE   N12  An1  v100
 BYTE   W18
 BYTE   N06
 BYTE   W06
 BYTE   N60  As1
 BYTE   W72
 BYTE   PEND 
// 018   ----------------------------------------
Label_1_01053A0B:
 BYTE   N12  An1  v100
 BYTE   W18
 BYTE   N06
 BYTE   W06
 BYTE   N60  Cs2
 BYTE   W72
 BYTE   PEND 
 BYTE   PATT
  POIN2 Label_1_01053A01
// 019   ----------------------------------------
Label_1_01053A1A:
 BYTE   N12  An1  v100
 BYTE   W18
 BYTE   N06  En2
 BYTE   W06
 BYTE   N60  Cs2
 BYTE   W72
 BYTE   PEND 
// 020   ----------------------------------------
 BYTE   W96
// 021   ----------------------------------------
 BYTE   W96
// 022   ----------------------------------------
 BYTE   W96
// 023   ----------------------------------------
 BYTE   W96
 BYTE   PATT
  POIN2 Label_1_010539B8
 BYTE   PATT
  POIN2 Label_1_010539B8
 BYTE   PATT
  POIN2 Label_1_010539B8
// 024   ----------------------------------------
 BYTE   N72  An1  v100
 BYTE   W96
 BYTE   PATT
  POIN2 Label_1_010539D6
 BYTE   PATT
  POIN2 Label_1_010539E2
// 025   ----------------------------------------
 BYTE   N96  En2  v100
 BYTE   W96
// 026   ----------------------------------------
 BYTE   W48
 BYTE   N24
 BYTE   W48
// 027   ----------------------------------------
 BYTE   W96
// 028   ----------------------------------------
 BYTE   W96
// 029   ----------------------------------------
 BYTE   W96
// 030   ----------------------------------------
 BYTE   W96
// 031   ----------------------------------------
 BYTE   W96
// 032   ----------------------------------------
 BYTE   W96
// 033   ----------------------------------------
 BYTE   N84  Cs3
 BYTE   W96
// 034   ----------------------------------------
 BYTE   W96
// 035   ----------------------------------------
 BYTE   W96
// 036   ----------------------------------------
 BYTE   N84
 BYTE   W96
 BYTE   PATT
  POIN2 Label_1_01053A01
 BYTE   PATT
  POIN2 Label_1_01053A0B
 BYTE   PATT
  POIN2 Label_1_01053A01
 BYTE   PATT
  POIN2 Label_1_01053A1A
// 037   ----------------------------------------
 BYTE   W96
// 038   ----------------------------------------
 BYTE   W96
// 039   ----------------------------------------
 BYTE   W96
// 040   ----------------------------------------
 BYTE   W96
// 041   ----------------------------------------
 BYTE   GoTo
  POIN2 Label_1_01053996
// 042   ----------------------------------------
 BYTE   W96
// 043   ----------------------------------------
 BYTE   W96
 BYTE   FINE

//**************** Track 3 (Midi-Chn.2) ****************//

FE05PressingThreatBaseADolkar_003:
// 000   ----------------------------------------
 BYTE   KEYSH   FE05PressingThreatBaseADolkar_key+0
Label_2_01053A7E:
 BYTE   VOICE   56
 BYTE   VOL   69*FE05PressingThreatBaseADolkar_mvl/mxv
 BYTE   W96
// 001   ----------------------------------------
Label_2_01053A83:
 BYTE   N24  En1  v100
 BYTE   W24
 BYTE   An1
 BYTE   W24
 BYTE   Gn1
 BYTE   W24
 BYTE   N08  Fn1
 BYTE   W08
 BYTE   Gn1
 BYTE   W08
 BYTE   Fn1
 BYTE   W08
 BYTE   PEND 
 BYTE   PATT
  POIN2 Label_2_01053A83
 BYTE   PATT
  POIN2 Label_2_01053A83
// 002   ----------------------------------------
 BYTE   N72  En1  v100
 BYTE   W96
// 003   ----------------------------------------
 BYTE   W96
// 004   ----------------------------------------
 BYTE   W96
// 005   ----------------------------------------
 BYTE   W96
// 006   ----------------------------------------
 BYTE   W96
// 007   ----------------------------------------
 BYTE   W96
// 008   ----------------------------------------
 BYTE   N96  Fs1
 BYTE   W96
// 009   ----------------------------------------
Label_2_01053AA9:
 BYTE   N06  Cs1  v100
 BYTE   W12
 BYTE   An0
 BYTE   W12
 BYTE   As0
 BYTE   W12
 BYTE   Dn1
 BYTE   W12
 BYTE   Cs1
 BYTE   W12
 BYTE   An0
 BYTE   W12
 BYTE   As0
 BYTE   W12
 BYTE   Dn1
 BYTE   W12
 BYTE   PEND 
 BYTE   PATT
  POIN2 Label_2_01053AA9
 BYTE   PATT
  POIN2 Label_2_01053AA9
 BYTE   PATT
  POIN2 Label_2_01053AA9
// 010   ----------------------------------------
 BYTE   N84  Gs2  v100
 BYTE   W96
// 011   ----------------------------------------
 BYTE   W96
// 012   ----------------------------------------
 BYTE   W96
// 013   ----------------------------------------
 BYTE   N84
 BYTE   W96
// 014   ----------------------------------------
Label_2_01053AD3:
 BYTE   N12  An2  v100
 BYTE   W18
 BYTE   N06
 BYTE   W06
 BYTE   N60  As2
 BYTE   W72
 BYTE   PEND 
// 015   ----------------------------------------
Label_2_01053ADD:
 BYTE   N12  An2  v100
 BYTE   W18
 BYTE   N06
 BYTE   W06
 BYTE   N60  Cs3
 BYTE   W72
 BYTE   PEND 
 BYTE   PATT
  POIN2 Label_2_01053AD3
// 016   ----------------------------------------
Label_2_01053AEC:
 BYTE   N12  An2  v100
 BYTE   W18
 BYTE   N06  En3
 BYTE   W06
 BYTE   N60  Cs3
 BYTE   W72
 BYTE   PEND 
// 017   ----------------------------------------
 BYTE   W96
// 018   ----------------------------------------
 BYTE   W96
// 019   ----------------------------------------
 BYTE   W96
// 020   ----------------------------------------
 BYTE   W96
 BYTE   PATT
  POIN2 Label_2_01053A83
 BYTE   PATT
  POIN2 Label_2_01053A83
 BYTE   PATT
  POIN2 Label_2_01053A83
// 021   ----------------------------------------
 BYTE   N72  En1  v100
 BYTE   W96
// 022   ----------------------------------------
 BYTE   W96
// 023   ----------------------------------------
 BYTE   W96
// 024   ----------------------------------------
 BYTE   W96
// 025   ----------------------------------------
 BYTE   W96
// 026   ----------------------------------------
 BYTE   W96
// 027   ----------------------------------------
 BYTE   N96  Fs1
 BYTE   W96
 BYTE   PATT
  POIN2 Label_2_01053AA9
 BYTE   PATT
  POIN2 Label_2_01053AA9
 BYTE   PATT
  POIN2 Label_2_01053AA9
 BYTE   PATT
  POIN2 Label_2_01053AA9
// 028   ----------------------------------------
 BYTE   N84  Gs2  v100
 BYTE   W96
// 029   ----------------------------------------
 BYTE   W96
// 030   ----------------------------------------
 BYTE   W96
// 031   ----------------------------------------
 BYTE   N84
 BYTE   W96
 BYTE   PATT
  POIN2 Label_2_01053AD3
 BYTE   PATT
  POIN2 Label_2_01053ADD
 BYTE   PATT
  POIN2 Label_2_01053AD3
 BYTE   PATT
  POIN2 Label_2_01053AEC
// 032   ----------------------------------------
 BYTE   W96
// 033   ----------------------------------------
 BYTE   W96
// 034   ----------------------------------------
 BYTE   W96
// 035   ----------------------------------------
 BYTE   W96
// 036   ----------------------------------------
 BYTE   GoTo
  POIN2 Label_2_01053A7E
// 037   ----------------------------------------
 BYTE   W96
// 038   ----------------------------------------
 BYTE   W96
 BYTE   FINE

//**************** Track 4 (Midi-Chn.3) ****************//

FE05PressingThreatBaseADolkar_004:
// 000   ----------------------------------------
 BYTE   KEYSH   FE05PressingThreatBaseADolkar_key+0
Label_3_01053B56:
 BYTE   VOICE   48
 BYTE   VOL   57*FE05PressingThreatBaseADolkar_mvl/mxv
 BYTE   W96
// 001   ----------------------------------------
 BYTE   W96
// 002   ----------------------------------------
 BYTE   W96
// 003   ----------------------------------------
 BYTE   W96
// 004   ----------------------------------------
 BYTE   W96
// 005   ----------------------------------------
 BYTE   W96
// 006   ----------------------------------------
 BYTE   W96
// 007   ----------------------------------------
 BYTE   W96
// 008   ----------------------------------------
Label_3_01053B62:
 BYTE   N08  En3  v100
 BYTE   W08
 BYTE   Dn3
 BYTE   W08
 BYTE   En3
 BYTE   W08
 BYTE   Fn3
 BYTE   W08
 BYTE   En3
 BYTE   W08
 BYTE   Dn3
 BYTE   W08
 BYTE   En3
 BYTE   W08
 BYTE   Fn3
 BYTE   W08
 BYTE   Gn3
 BYTE   W08
 BYTE   An3
 BYTE   W08
 BYTE   As3
 BYTE   W08
 BYTE   Bn3
 BYTE   W08
 BYTE   PEND 
// 009   ----------------------------------------
 BYTE   N84  Cs4
 BYTE   W96
// 010   ----------------------------------------
 BYTE   W96
// 011   ----------------------------------------
Label_3_01053B81:
 BYTE   N48  Cs3  v100
 BYTE   W48
 BYTE   Fs2
 BYTE   W48
 BYTE   PEND 
// 012   ----------------------------------------
Label_3_01053B88:
 BYTE   N48  Gs2  v100
 BYTE   W48
 BYTE   Bn2
 BYTE   W48
 BYTE   PEND 
// 013   ----------------------------------------
Label_3_01053B8F:
 BYTE   N12  An2  v100
 BYTE   W18
 BYTE   N06  En3
 BYTE   W06
 BYTE   TIE  Cs3
 BYTE   W72
 BYTE   PEND 
// 014   ----------------------------------------
 BYTE   W72
 BYTE   EOT
 BYTE   W24
// 015   ----------------------------------------
 BYTE   W96
// 016   ----------------------------------------
Label_3_01053B9E:
 BYTE   N24  Cs4  v100
 BYTE   W24
 BYTE   Fs3
 BYTE   W24
 BYTE   Gs3
 BYTE   W24
 BYTE   Bn3
 BYTE   W24
 BYTE   PEND 
// 017   ----------------------------------------
Label_3_01053BA9:
 BYTE   N12  An3  v100
 BYTE   W18
 BYTE   N06  En4
 BYTE   W06
 BYTE   N72  Cs4
 BYTE   W72
 BYTE   PEND 
// 018   ----------------------------------------
 BYTE   W96
// 019   ----------------------------------------
Label_3_01053BB5:
 BYTE   N06  An3  v092
 BYTE   W06
 BYTE   As3
 BYTE   W06
 BYTE   Bn3
 BYTE   W06
 BYTE   Cn4
 BYTE   W06
 BYTE   An3
 BYTE   W06
 BYTE   As3
 BYTE   W06
 BYTE   Bn3
 BYTE   W06
 BYTE   Cn4
 BYTE   W06
 BYTE   An3
 BYTE   W06
 BYTE   As3
 BYTE   W06
 BYTE   Bn3
 BYTE   W06
 BYTE   Cn4
 BYTE   W06
 BYTE   An3
 BYTE   W06
 BYTE   As3
 BYTE   W06
 BYTE   Bn3
 BYTE   W06
 BYTE   Cn4
 BYTE   W06
 BYTE   PEND 
 BYTE   PATT
  POIN2 Label_3_01053BB5
 BYTE   PATT
  POIN2 Label_3_01053BB5
 BYTE   PATT
  POIN2 Label_3_01053BB5
 BYTE   PATT
  POIN2 Label_3_01053BB5
 BYTE   PATT
  POIN2 Label_3_01053BB5
 BYTE   PATT
  POIN2 Label_3_01053BB5
 BYTE   PATT
  POIN2 Label_3_01053BB5
// 020   ----------------------------------------
 BYTE   W96
// 021   ----------------------------------------
 BYTE   W96
// 022   ----------------------------------------
 BYTE   W96
// 023   ----------------------------------------
 BYTE   W96
// 024   ----------------------------------------
 BYTE   W96
// 025   ----------------------------------------
 BYTE   W96
// 026   ----------------------------------------
 BYTE   W96
 BYTE   PATT
  POIN2 Label_3_01053B62
// 027   ----------------------------------------
 BYTE   N96  Cs4  v100
 BYTE   W96
// 028   ----------------------------------------
 BYTE   W96
 BYTE   PATT
  POIN2 Label_3_01053B81
 BYTE   PATT
  POIN2 Label_3_01053B88
 BYTE   PATT
  POIN2 Label_3_01053B8F
// 029   ----------------------------------------
 BYTE   W72
 BYTE   EOT
 BYTE   Cs3
 BYTE   W24
// 030   ----------------------------------------
 BYTE   W96
 BYTE   PATT
  POIN2 Label_3_01053B9E
 BYTE   PATT
  POIN2 Label_3_01053BA9
// 031   ----------------------------------------
 BYTE   W96
 BYTE   PATT
  POIN2 Label_3_01053BB5
 BYTE   PATT
  POIN2 Label_3_01053BB5
 BYTE   PATT
  POIN2 Label_3_01053BB5
 BYTE   PATT
  POIN2 Label_3_01053BB5
 BYTE   PATT
  POIN2 Label_3_01053BB5
 BYTE   PATT
  POIN2 Label_3_01053BB5
 BYTE   PATT
  POIN2 Label_3_01053BB5
 BYTE   PATT
  POIN2 Label_3_01053BB5
// 032   ----------------------------------------
 BYTE   GoTo
  POIN2 Label_3_01053B56
// 033   ----------------------------------------
 BYTE   W96
// 034   ----------------------------------------
 BYTE   W96
 BYTE   FINE

//**************** Track 5 (Midi-Chn.4) ****************//

FE05PressingThreatBaseADolkar_005:
// 000   ----------------------------------------
 BYTE   KEYSH   FE05PressingThreatBaseADolkar_key+0
Label_4_01053C5E:
 BYTE   VOICE   56
 BYTE   VOL   66*FE05PressingThreatBaseADolkar_mvl/mxv
 BYTE   N78  An1  v092
 BYTE   W78
 BYTE   N18  Gs1  v072
 BYTE   W18
// 001   ----------------------------------------
Label_4_01053C6A:
 BYTE   N12  En1  v100
 BYTE   W12
 BYTE   N12
 BYTE   W24
 BYTE   N12
 BYTE   W24
 BYTE   N12
 BYTE   W24
 BYTE   Fn1
 BYTE   W12
 BYTE   PEND 
 BYTE   PATT
  POIN2 Label_4_01053C6A
 BYTE   PATT
  POIN2 Label_4_01053C6A
 BYTE   PATT
  POIN2 Label_4_01053C6A
 BYTE   PATT
  POIN2 Label_4_01053C6A
 BYTE   PATT
  POIN2 Label_4_01053C6A
// 002   ----------------------------------------
Label_4_01053C90:
 BYTE   N12  En1  v100
 BYTE   W12
 BYTE   N12
 BYTE   W24
 BYTE   N12
 BYTE   W24
 BYTE   N12
 BYTE   W24
 BYTE   Dn1
 BYTE   W12
 BYTE   PEND 
// 003   ----------------------------------------
Label_4_01053C9D:
 BYTE   N12  En1  v100
 BYTE   W12
 BYTE   N12
 BYTE   W24
 BYTE   N12
 BYTE   W24
 BYTE   N12
 BYTE   W12
 BYTE   N24  Dn1
 BYTE   W24
 BYTE   PEND 
// 004   ----------------------------------------
Label_4_01053CAB:
 BYTE   N12  Cs1  v100
 BYTE   W12
 BYTE   N12
 BYTE   W24
 BYTE   N12
 BYTE   W24
 BYTE   N12
 BYTE   W24
 BYTE   Dn1
 BYTE   W12
 BYTE   PEND 
 BYTE   PATT
  POIN2 Label_4_01053CAB
 BYTE   PATT
  POIN2 Label_4_01053CAB
 BYTE   PATT
  POIN2 Label_4_01053CAB
 BYTE   PATT
  POIN2 Label_4_01053CAB
// 005   ----------------------------------------
Label_4_01053CCC:
 BYTE   N12  Cs1  v100
 BYTE   W12
 BYTE   N12
 BYTE   W24
 BYTE   N12
 BYTE   W24
 BYTE   N12
 BYTE   W24
 BYTE   Bn0
 BYTE   W12
 BYTE   PEND 
 BYTE   PATT
  POIN2 Label_4_01053CAB
 BYTE   PATT
  POIN2 Label_4_01053CAB
 BYTE   PATT
  POIN2 Label_4_01053CAB
 BYTE   PATT
  POIN2 Label_4_01053CAB
// 006   ----------------------------------------
Label_4_01053CED:
 BYTE   N12  Dn1  v100
 BYTE   W12
 BYTE   N12
 BYTE   W24
 BYTE   N12
 BYTE   W24
 BYTE   N12
 BYTE   W24
 BYTE   N12
 BYTE   W12
 BYTE   PEND 
 BYTE   PATT
  POIN2 Label_4_01053CED
// 007   ----------------------------------------
Label_4_01053CFF:
 BYTE   N12  Cs1  v100
 BYTE   W12
 BYTE   N12
 BYTE   W24
 BYTE   N12
 BYTE   W24
 BYTE   N12
 BYTE   W24
 BYTE   N12
 BYTE   W12
 BYTE   PEND 
 BYTE   PATT
  POIN2 Label_4_01053CFF
 BYTE   PATT
  POIN2 Label_4_01053CED
 BYTE   PATT
  POIN2 Label_4_01053CED
 BYTE   PATT
  POIN2 Label_4_01053CFF
 BYTE   PATT
  POIN2 Label_4_01053CFF
 BYTE   PATT
  POIN2 Label_4_01053C6A
 BYTE   PATT
  POIN2 Label_4_01053C6A
 BYTE   PATT
  POIN2 Label_4_01053C6A
 BYTE   PATT
  POIN2 Label_4_01053C6A
 BYTE   PATT
  POIN2 Label_4_01053C6A
 BYTE   PATT
  POIN2 Label_4_01053C6A
 BYTE   PATT
  POIN2 Label_4_01053C90
 BYTE   PATT
  POIN2 Label_4_01053C9D
 BYTE   PATT
  POIN2 Label_4_01053CAB
 BYTE   PATT
  POIN2 Label_4_01053CAB
 BYTE   PATT
  POIN2 Label_4_01053CAB
 BYTE   PATT
  POIN2 Label_4_01053CAB
 BYTE   PATT
  POIN2 Label_4_01053CAB
 BYTE   PATT
  POIN2 Label_4_01053CCC
 BYTE   PATT
  POIN2 Label_4_01053CAB
 BYTE   PATT
  POIN2 Label_4_01053CAB
 BYTE   PATT
  POIN2 Label_4_01053CAB
 BYTE   PATT
  POIN2 Label_4_01053CAB
 BYTE   PATT
  POIN2 Label_4_01053CED
 BYTE   PATT
  POIN2 Label_4_01053CED
 BYTE   PATT
  POIN2 Label_4_01053CFF
 BYTE   PATT
  POIN2 Label_4_01053CFF
 BYTE   PATT
  POIN2 Label_4_01053CED
 BYTE   PATT
  POIN2 Label_4_01053CED
 BYTE   PATT
  POIN2 Label_4_01053CFF
 BYTE   PATT
  POIN2 Label_4_01053CFF
// 008   ----------------------------------------
 BYTE   GoTo
  POIN2 Label_4_01053C5E
// 009   ----------------------------------------
 BYTE   W96
// 010   ----------------------------------------
 BYTE   W96
 BYTE   FINE

//**************** Track 6 (Midi-Chn.5) ****************//

FE05PressingThreatBaseADolkar_006:
// 000   ----------------------------------------
 BYTE   KEYSH   FE05PressingThreatBaseADolkar_key+0
Label_5_01053DB2:
 BYTE   VOICE   58
 BYTE   VOL   54*FE05PressingThreatBaseADolkar_mvl/mxv
 BYTE   W96
// 001   ----------------------------------------
Label_5_01053DB7:
 BYTE   N12  An0  v100
 BYTE   W12
 BYTE   N12
 BYTE   W24
 BYTE   N12
 BYTE   W24
 BYTE   N12
 BYTE   W24
 BYTE   As0
 BYTE   W12
 BYTE   PEND 
 BYTE   PATT
  POIN2 Label_5_01053DB7
 BYTE   PATT
  POIN2 Label_5_01053DB7
 BYTE   PATT
  POIN2 Label_5_01053DB7
 BYTE   PATT
  POIN2 Label_5_01053DB7
 BYTE   PATT
  POIN2 Label_5_01053DB7
// 002   ----------------------------------------
Label_5_01053DDD:
 BYTE   N12  An0  v100
 BYTE   W12
 BYTE   N12
 BYTE   W24
 BYTE   N12
 BYTE   W24
 BYTE   N12
 BYTE   W24
 BYTE   Gn0
 BYTE   W12
 BYTE   PEND 
// 003   ----------------------------------------
Label_5_01053DEA:
 BYTE   N12  An0  v100
 BYTE   W12
 BYTE   N12
 BYTE   W24
 BYTE   N12
 BYTE   W24
 BYTE   N12
 BYTE   W12
 BYTE   N24  Gn0
 BYTE   W24
 BYTE   PEND 
// 004   ----------------------------------------
Label_5_01053DF8:
 BYTE   N12  Fs0  v100
 BYTE   W12
 BYTE   N12
 BYTE   W24
 BYTE   N12
 BYTE   W24
 BYTE   N12
 BYTE   W24
 BYTE   Gn0
 BYTE   W12
 BYTE   PEND 
 BYTE   PATT
  POIN2 Label_5_01053DF8
 BYTE   PATT
  POIN2 Label_5_01053DF8
 BYTE   PATT
  POIN2 Label_5_01053DF8
 BYTE   PATT
  POIN2 Label_5_01053DF8
// 005   ----------------------------------------
Label_5_01053E19:
 BYTE   N12  Fs0  v100
 BYTE   W12
 BYTE   N12
 BYTE   W24
 BYTE   N12
 BYTE   W24
 BYTE   N12
 BYTE   W24
 BYTE   En0
 BYTE   W12
 BYTE   PEND 
 BYTE   PATT
  POIN2 Label_5_01053DF8
 BYTE   PATT
  POIN2 Label_5_01053DF8
 BYTE   PATT
  POIN2 Label_5_01053DF8
 BYTE   PATT
  POIN2 Label_5_01053DF8
// 006   ----------------------------------------
Label_5_01053E3A:
 BYTE   N12  Gn0  v100
 BYTE   W12
 BYTE   N12
 BYTE   W24
 BYTE   N12
 BYTE   W24
 BYTE   N12
 BYTE   W24
 BYTE   N12
 BYTE   W12
 BYTE   PEND 
 BYTE   PATT
  POIN2 Label_5_01053E3A
// 007   ----------------------------------------
Label_5_01053E4C:
 BYTE   N12  Fs0  v100
 BYTE   W12
 BYTE   N12
 BYTE   W24
 BYTE   N12
 BYTE   W24
 BYTE   N12
 BYTE   W24
 BYTE   N12
 BYTE   W12
 BYTE   PEND 
 BYTE   PATT
  POIN2 Label_5_01053E4C
 BYTE   PATT
  POIN2 Label_5_01053E3A
 BYTE   PATT
  POIN2 Label_5_01053E3A
 BYTE   PATT
  POIN2 Label_5_01053E4C
 BYTE   PATT
  POIN2 Label_5_01053E4C
 BYTE   PATT
  POIN2 Label_5_01053DB7
 BYTE   PATT
  POIN2 Label_5_01053DB7
 BYTE   PATT
  POIN2 Label_5_01053DB7
 BYTE   PATT
  POIN2 Label_5_01053DB7
 BYTE   PATT
  POIN2 Label_5_01053DB7
 BYTE   PATT
  POIN2 Label_5_01053DB7
 BYTE   PATT
  POIN2 Label_5_01053DDD
 BYTE   PATT
  POIN2 Label_5_01053DEA
 BYTE   PATT
  POIN2 Label_5_01053DF8
 BYTE   PATT
  POIN2 Label_5_01053DF8
 BYTE   PATT
  POIN2 Label_5_01053DF8
 BYTE   PATT
  POIN2 Label_5_01053DF8
 BYTE   PATT
  POIN2 Label_5_01053DF8
 BYTE   PATT
  POIN2 Label_5_01053E19
 BYTE   PATT
  POIN2 Label_5_01053DF8
 BYTE   PATT
  POIN2 Label_5_01053DF8
 BYTE   PATT
  POIN2 Label_5_01053DF8
 BYTE   PATT
  POIN2 Label_5_01053DF8
 BYTE   PATT
  POIN2 Label_5_01053E3A
 BYTE   PATT
  POIN2 Label_5_01053E3A
 BYTE   PATT
  POIN2 Label_5_01053E4C
 BYTE   PATT
  POIN2 Label_5_01053E4C
 BYTE   PATT
  POIN2 Label_5_01053E3A
 BYTE   PATT
  POIN2 Label_5_01053E3A
 BYTE   PATT
  POIN2 Label_5_01053E4C
 BYTE   PATT
  POIN2 Label_5_01053E4C
// 008   ----------------------------------------
 BYTE   GoTo
  POIN2 Label_5_01053DB2
// 009   ----------------------------------------
 BYTE   W96
// 010   ----------------------------------------
 BYTE   W96
 BYTE   FINE

//**************** Track 7 (Midi-Chn.6) ****************//

FE05PressingThreatBaseADolkar_007:
// 000   ----------------------------------------
 BYTE   KEYSH   FE05PressingThreatBaseADolkar_key+0
Label_6_01053EFE:
 BYTE   VOICE   48
 BYTE   VOL   44*FE05PressingThreatBaseADolkar_mvl/mxv
 BYTE   W96
// 001   ----------------------------------------
 BYTE   W96
// 002   ----------------------------------------
 BYTE   W96
// 003   ----------------------------------------
 BYTE   W96
// 004   ----------------------------------------
 BYTE   W96
// 005   ----------------------------------------
 BYTE   W96
// 006   ----------------------------------------
 BYTE   W96
// 007   ----------------------------------------
 BYTE   W96
// 008   ----------------------------------------
 BYTE   W96
// 009   ----------------------------------------
 BYTE   W96
// 010   ----------------------------------------
 BYTE   W96
// 011   ----------------------------------------
 BYTE   W96
// 012   ----------------------------------------
 BYTE   W96
// 013   ----------------------------------------
 BYTE   W96
// 014   ----------------------------------------
 BYTE   W96
// 015   ----------------------------------------
 BYTE   W96
// 016   ----------------------------------------
Label_6_01053F12:
 BYTE   N24  Cs3  v100
 BYTE   W24
 BYTE   Fs2
 BYTE   W24
 BYTE   Gs2
 BYTE   W24
 BYTE   Bn2
 BYTE   W24
 BYTE   PEND 
// 017   ----------------------------------------
Label_6_01053F1D:
 BYTE   N12  An2  v100
 BYTE   W18
 BYTE   N06  En3
 BYTE   W06
 BYTE   N72  Cs3
 BYTE   W72
 BYTE   PEND 
// 018   ----------------------------------------
 BYTE   W96
// 019   ----------------------------------------
 BYTE   W96
// 020   ----------------------------------------
 BYTE   W96
// 021   ----------------------------------------
 BYTE   W96
// 022   ----------------------------------------
 BYTE   W96
// 023   ----------------------------------------
 BYTE   W96
// 024   ----------------------------------------
 BYTE   W96
// 025   ----------------------------------------
 BYTE   W96
// 026   ----------------------------------------
 BYTE   W96
// 027   ----------------------------------------
 BYTE   W96
// 028   ----------------------------------------
 BYTE   W96
// 029   ----------------------------------------
 BYTE   W96
// 030   ----------------------------------------
 BYTE   W96
// 031   ----------------------------------------
 BYTE   W96
// 032   ----------------------------------------
 BYTE   W96
// 033   ----------------------------------------
 BYTE   W96
// 034   ----------------------------------------
 BYTE   W96
// 035   ----------------------------------------
 BYTE   W96
// 036   ----------------------------------------
 BYTE   W96
// 037   ----------------------------------------
 BYTE   W96
// 038   ----------------------------------------
 BYTE   W96
// 039   ----------------------------------------
 BYTE   W96
// 040   ----------------------------------------
 BYTE   W96
// 041   ----------------------------------------
 BYTE   W96
 BYTE   PATT
  POIN2 Label_6_01053F12
 BYTE   PATT
  POIN2 Label_6_01053F1D
// 042   ----------------------------------------
 BYTE   W96
// 043   ----------------------------------------
 BYTE   W96
// 044   ----------------------------------------
 BYTE   W96
// 045   ----------------------------------------
 BYTE   W96
// 046   ----------------------------------------
 BYTE   W96
// 047   ----------------------------------------
 BYTE   W96
// 048   ----------------------------------------
 BYTE   W96
// 049   ----------------------------------------
 BYTE   W96
// 050   ----------------------------------------
 BYTE   W96
// 051   ----------------------------------------
 BYTE   GoTo
  POIN2 Label_6_01053EFE
// 052   ----------------------------------------
 BYTE   W96
// 053   ----------------------------------------
 BYTE   W96
 BYTE   FINE

//**************** Track 8 (Midi-Chn.7) ****************//

FE05PressingThreatBaseADolkar_008:
// 000   ----------------------------------------
 BYTE   KEYSH   FE05PressingThreatBaseADolkar_key+0
Label_7_01053F5E:
 BYTE   VOICE   67
 BYTE   VOL   37*FE05PressingThreatBaseADolkar_mvl/mxv
 BYTE   N78  An1  v100
 BYTE   W96
// 001   ----------------------------------------
Label_7_01053F66:
 BYTE   N12  En1  v100
 BYTE   W12
 BYTE   N12
 BYTE   W24
 BYTE   N12
 BYTE   W24
 BYTE   N12
 BYTE   W24
 BYTE   Fn1
 BYTE   W12
 BYTE   PEND 
// 002   ----------------------------------------
Label_7_01053F73:
 BYTE   N12  En1  v100
 BYTE   W12
 BYTE   N12
 BYTE   W24
 BYTE   En1  v104
 BYTE   W24
 BYTE   En1  v100
 BYTE   W24
 BYTE   Fn1
 BYTE   W12
 BYTE   PEND 
 BYTE   PATT
  POIN2 Label_7_01053F66
 BYTE   PATT
  POIN2 Label_7_01053F66
 BYTE   PATT
  POIN2 Label_7_01053F66
 BYTE   PATT
  POIN2 Label_7_01053F66
// 003   ----------------------------------------
Label_7_01053F96:
 BYTE   N12  En1  v100
 BYTE   W12
 BYTE   N12
 BYTE   W24
 BYTE   N12
 BYTE   W24
 BYTE   N12
 BYTE   W24
 BYTE   Dn1
 BYTE   W12
 BYTE   PEND 
// 004   ----------------------------------------
Label_7_01053FA3:
 BYTE   N12  En1  v100
 BYTE   W12
 BYTE   N12
 BYTE   W24
 BYTE   N12
 BYTE   W24
 BYTE   N12
 BYTE   W12
 BYTE   N24  Dn1
 BYTE   W24
 BYTE   PEND 
// 005   ----------------------------------------
Label_7_01053FB1:
 BYTE   N12  Cs1  v100
 BYTE   W12
 BYTE   N12
 BYTE   W24
 BYTE   N12
 BYTE   W24
 BYTE   N12
 BYTE   W24
 BYTE   Dn1
 BYTE   W12
 BYTE   PEND 
 BYTE   PATT
  POIN2 Label_7_01053FB1
 BYTE   PATT
  POIN2 Label_7_01053FB1
 BYTE   PATT
  POIN2 Label_7_01053FB1
 BYTE   PATT
  POIN2 Label_7_01053FB1
// 006   ----------------------------------------
Label_7_01053FD2:
 BYTE   N12  Cs1  v100
 BYTE   W12
 BYTE   N12
 BYTE   W24
 BYTE   N12
 BYTE   W24
 BYTE   N12
 BYTE   W24
 BYTE   Bn0
 BYTE   W12
 BYTE   PEND 
 BYTE   PATT
  POIN2 Label_7_01053FB1
 BYTE   PATT
  POIN2 Label_7_01053FB1
 BYTE   PATT
  POIN2 Label_7_01053FB1
 BYTE   PATT
  POIN2 Label_7_01053FB1
// 007   ----------------------------------------
Label_7_01053FF3:
 BYTE   N12  Dn1  v100
 BYTE   W12
 BYTE   N12
 BYTE   W24
 BYTE   N12
 BYTE   W24
 BYTE   N12
 BYTE   W24
 BYTE   N12
 BYTE   W12
 BYTE   PEND 
 BYTE   PATT
  POIN2 Label_7_01053FF3
// 008   ----------------------------------------
Label_7_01054005:
 BYTE   N12  Cs1  v100
 BYTE   W12
 BYTE   N12
 BYTE   W24
 BYTE   N12
 BYTE   W24
 BYTE   N12
 BYTE   W24
 BYTE   N12
 BYTE   W12
 BYTE   PEND 
 BYTE   PATT
  POIN2 Label_7_01054005
 BYTE   PATT
  POIN2 Label_7_01053FF3
 BYTE   PATT
  POIN2 Label_7_01053FF3
 BYTE   PATT
  POIN2 Label_7_01054005
 BYTE   PATT
  POIN2 Label_7_01054005
 BYTE   PATT
  POIN2 Label_7_01053F66
 BYTE   PATT
  POIN2 Label_7_01053F73
 BYTE   PATT
  POIN2 Label_7_01053F66
 BYTE   PATT
  POIN2 Label_7_01053F66
 BYTE   PATT
  POIN2 Label_7_01053F66
 BYTE   PATT
  POIN2 Label_7_01053F66
 BYTE   PATT
  POIN2 Label_7_01053F96
 BYTE   PATT
  POIN2 Label_7_01053FA3
 BYTE   PATT
  POIN2 Label_7_01053FB1
 BYTE   PATT
  POIN2 Label_7_01053FB1
 BYTE   PATT
  POIN2 Label_7_01053FB1
 BYTE   PATT
  POIN2 Label_7_01053FB1
 BYTE   PATT
  POIN2 Label_7_01053FB1
 BYTE   PATT
  POIN2 Label_7_01053FD2
 BYTE   PATT
  POIN2 Label_7_01053FB1
 BYTE   PATT
  POIN2 Label_7_01053FB1
 BYTE   PATT
  POIN2 Label_7_01053FB1
 BYTE   PATT
  POIN2 Label_7_01053FB1
 BYTE   PATT
  POIN2 Label_7_01053FF3
 BYTE   PATT
  POIN2 Label_7_01053FF3
 BYTE   PATT
  POIN2 Label_7_01054005
 BYTE   PATT
  POIN2 Label_7_01054005
 BYTE   PATT
  POIN2 Label_7_01053FF3
 BYTE   PATT
  POIN2 Label_7_01053FF3
 BYTE   PATT
  POIN2 Label_7_01054005
 BYTE   PATT
  POIN2 Label_7_01054005
// 009   ----------------------------------------
 BYTE   GoTo
  POIN2 Label_7_01053F5E
// 010   ----------------------------------------
 BYTE   W96
// 011   ----------------------------------------
 BYTE   W96
 BYTE   FINE

//**************** Track 9 (Midi-Chn.8) ****************//

FE05PressingThreatBaseADolkar_009:
// 000   ----------------------------------------
 BYTE   KEYSH   FE05PressingThreatBaseADolkar_key+0
Label_8_010540BA:
 BYTE   VOICE   47
 BYTE   VOL   46*FE05PressingThreatBaseADolkar_mvl/mxv
 BYTE   W84
 BYTE   N12  Dn2  v100
 BYTE   W12
// 001   ----------------------------------------
Label_8_010540C3:
 BYTE   N12  An2  v100
 BYTE   W36
 BYTE   Dn2  v104
 BYTE   W24
 BYTE   Dn2  v100
 BYTE   W24
 BYTE   N12
 BYTE   W12
 BYTE   PEND 
 BYTE   PATT
  POIN2 Label_8_010540C3
 BYTE   PATT
  POIN2 Label_8_010540C3
 BYTE   PATT
  POIN2 Label_8_010540C3
 BYTE   PATT
  POIN2 Label_8_010540C3
 BYTE   PATT
  POIN2 Label_8_010540C3
 BYTE   PATT
  POIN2 Label_8_010540C3
// 002   ----------------------------------------
Label_8_010540EE:
 BYTE   N12  An2  v100
 BYTE   W56
 BYTE   W03
 BYTE   Dn2  v104
 BYTE   W24
 BYTE   Dn2  v100
 BYTE   W12
 BYTE   An2
 BYTE   W01
 BYTE   PEND 
// 003   ----------------------------------------
Label_8_010540FC:
 BYTE   W56
 BYTE   W03
 BYTE   N12  Dn2  v100
 BYTE   W24
 BYTE   N06
 BYTE   W06
 BYTE   N06
 BYTE   W07
 BYTE   PEND 
// 004   ----------------------------------------
Label_8_01054107:
 BYTE   N12  An2  v100
 BYTE   W12
 BYTE   N12
 BYTE   W24
 BYTE   N12
 BYTE   W24
 BYTE   N12
 BYTE   W24
 BYTE   N06
 BYTE   W06
 BYTE   Dn2
 BYTE   W06
 BYTE   PEND 
 BYTE   PATT
  POIN2 Label_8_01054107
 BYTE   PATT
  POIN2 Label_8_01054107
 BYTE   PATT
  POIN2 Label_8_01054107
 BYTE   PATT
  POIN2 Label_8_01054107
 BYTE   PATT
  POIN2 Label_8_01054107
 BYTE   PATT
  POIN2 Label_8_01054107
 BYTE   PATT
  POIN2 Label_8_01054107
 BYTE   PATT
  POIN2 Label_8_01054107
// 005   ----------------------------------------
Label_8_0105413E:
 BYTE   N12  Dn2  v092
 BYTE   W12
 BYTE   An2  v100
 BYTE   W12
 BYTE   Dn2  v080
 BYTE   W12
 BYTE   An2
 BYTE   W12
 BYTE   Dn2  v092
 BYTE   W12
 BYTE   An2  v100
 BYTE   W12
 BYTE   Dn2  v080
 BYTE   W12
 BYTE   An2
 BYTE   W12
 BYTE   PEND 
 BYTE   PATT
  POIN2 Label_8_0105413E
 BYTE   PATT
  POIN2 Label_8_0105413E
 BYTE   PATT
  POIN2 Label_8_0105413E
// 006   ----------------------------------------
Label_8_01054165:
 BYTE   N12  Dn2  v092
 BYTE   W12
 BYTE   N06  An2
 BYTE   W06
 BYTE   Fn2  v100
 BYTE   W06
 BYTE   N12  Dn2  v080
 BYTE   W12
 BYTE   N06  An2
 BYTE   W06
 BYTE   Fn2
 BYTE   W06
 BYTE   N12  Dn2  v092
 BYTE   W12
 BYTE   N06  An2
 BYTE   W06
 BYTE   Fn2  v100
 BYTE   W06
 BYTE   N12  Dn2  v080
 BYTE   W12
 BYTE   N06  An2
 BYTE   W06
 BYTE   Fn2
 BYTE   W06
 BYTE   PEND 
 BYTE   PATT
  POIN2 Label_8_01054165
 BYTE   PATT
  POIN2 Label_8_01054165
 BYTE   PATT
  POIN2 Label_8_01054165
 BYTE   PATT
  POIN2 Label_8_010540C3
 BYTE   PATT
  POIN2 Label_8_010540C3
 BYTE   PATT
  POIN2 Label_8_010540C3
 BYTE   PATT
  POIN2 Label_8_010540C3
 BYTE   PATT
  POIN2 Label_8_010540C3
 BYTE   PATT
  POIN2 Label_8_010540C3
 BYTE   PATT
  POIN2 Label_8_010540C3
 BYTE   PATT
  POIN2 Label_8_010540EE
 BYTE   PATT
  POIN2 Label_8_010540FC
 BYTE   PATT
  POIN2 Label_8_01054107
 BYTE   PATT
  POIN2 Label_8_01054107
 BYTE   PATT
  POIN2 Label_8_01054107
 BYTE   PATT
  POIN2 Label_8_01054107
 BYTE   PATT
  POIN2 Label_8_01054107
 BYTE   PATT
  POIN2 Label_8_01054107
 BYTE   PATT
  POIN2 Label_8_01054107
 BYTE   PATT
  POIN2 Label_8_01054107
 BYTE   PATT
  POIN2 Label_8_01054107
 BYTE   PATT
  POIN2 Label_8_0105413E
 BYTE   PATT
  POIN2 Label_8_0105413E
 BYTE   PATT
  POIN2 Label_8_0105413E
 BYTE   PATT
  POIN2 Label_8_0105413E
 BYTE   PATT
  POIN2 Label_8_01054165
 BYTE   PATT
  POIN2 Label_8_01054165
 BYTE   PATT
  POIN2 Label_8_01054165
 BYTE   PATT
  POIN2 Label_8_01054165
// 007   ----------------------------------------
 BYTE   GoTo
  POIN2 Label_8_010540BA
// 008   ----------------------------------------
 BYTE   W96
// 009   ----------------------------------------
 BYTE   W96
 BYTE   FINE

//**************** Track 10 (Midi-Chn.9) ****************//

FE05PressingThreatBaseADolkar_010:
// 000   ----------------------------------------
 BYTE   KEYSH   FE05PressingThreatBaseADolkar_key+0
Label_9_0105422A:
 BYTE   VOICE   47
 BYTE   VOL   56*FE05PressingThreatBaseADolkar_mvl/mxv
 BYTE   W84
 BYTE   N12  Dn1  v100
 BYTE   W12
// 001   ----------------------------------------
Label_9_01054233:
 BYTE   N12  An1  v100
 BYTE   W36
 BYTE   Dn1  v104
 BYTE   W24
 BYTE   Dn1  v100
 BYTE   W24
 BYTE   N12
 BYTE   W12
 BYTE   PEND 
 BYTE   PATT
  POIN2 Label_9_01054233
 BYTE   PATT
  POIN2 Label_9_01054233
 BYTE   PATT
  POIN2 Label_9_01054233
 BYTE   PATT
  POIN2 Label_9_01054233
 BYTE   PATT
  POIN2 Label_9_01054233
 BYTE   PATT
  POIN2 Label_9_01054233
// 002   ----------------------------------------
Label_9_0105425E:
 BYTE   N12  An1  v100
 BYTE   W56
 BYTE   W03
 BYTE   Dn1  v104
 BYTE   W24
 BYTE   Dn1  v100
 BYTE   W12
 BYTE   An1
 BYTE   W01
 BYTE   PEND 
// 003   ----------------------------------------
Label_9_0105426C:
 BYTE   W56
 BYTE   W03
 BYTE   N12  Dn1  v100
 BYTE   W24
 BYTE   N06
 BYTE   W06
 BYTE   N06
 BYTE   W07
 BYTE   PEND 
// 004   ----------------------------------------
Label_9_01054277:
 BYTE   N12  An1  v100
 BYTE   W12
 BYTE   N12
 BYTE   W24
 BYTE   N12
 BYTE   W24
 BYTE   N12
 BYTE   W24
 BYTE   N06
 BYTE   W06
 BYTE   Dn1
 BYTE   W06
 BYTE   PEND 
 BYTE   PATT
  POIN2 Label_9_01054277
 BYTE   PATT
  POIN2 Label_9_01054277
 BYTE   PATT
  POIN2 Label_9_01054277
 BYTE   PATT
  POIN2 Label_9_01054277
 BYTE   PATT
  POIN2 Label_9_01054277
 BYTE   PATT
  POIN2 Label_9_01054277
 BYTE   PATT
  POIN2 Label_9_01054277
 BYTE   PATT
  POIN2 Label_9_01054277
// 005   ----------------------------------------
Label_9_010542AE:
 BYTE   N12  Dn1  v092
 BYTE   W12
 BYTE   An1  v100
 BYTE   W12
 BYTE   Dn1  v080
 BYTE   W12
 BYTE   An1
 BYTE   W12
 BYTE   Dn1  v092
 BYTE   W12
 BYTE   An1  v100
 BYTE   W12
 BYTE   Dn1  v080
 BYTE   W12
 BYTE   An1
 BYTE   W12
 BYTE   PEND 
 BYTE   PATT
  POIN2 Label_9_010542AE
 BYTE   PATT
  POIN2 Label_9_010542AE
 BYTE   PATT
  POIN2 Label_9_010542AE
// 006   ----------------------------------------
Label_9_010542D5:
 BYTE   N12  Dn1  v092
 BYTE   W12
 BYTE   N06  An1
 BYTE   W06
 BYTE   Fn1  v100
 BYTE   W06
 BYTE   N12  Dn1  v080
 BYTE   W12
 BYTE   N06  An1
 BYTE   W06
 BYTE   Fn1
 BYTE   W06
 BYTE   N12  Dn1  v092
 BYTE   W12
 BYTE   N06  An1
 BYTE   W06
 BYTE   Fn1  v100
 BYTE   W06
 BYTE   N12  Dn1  v080
 BYTE   W12
 BYTE   N06  An1
 BYTE   W06
 BYTE   Fn1
 BYTE   W06
 BYTE   PEND 
 BYTE   PATT
  POIN2 Label_9_010542D5
 BYTE   PATT
  POIN2 Label_9_010542D5
 BYTE   PATT
  POIN2 Label_9_010542D5
 BYTE   PATT
  POIN2 Label_9_01054233
 BYTE   PATT
  POIN2 Label_9_01054233
 BYTE   PATT
  POIN2 Label_9_01054233
 BYTE   PATT
  POIN2 Label_9_01054233
 BYTE   PATT
  POIN2 Label_9_01054233
 BYTE   PATT
  POIN2 Label_9_01054233
 BYTE   PATT
  POIN2 Label_9_01054233
 BYTE   PATT
  POIN2 Label_9_0105425E
 BYTE   PATT
  POIN2 Label_9_0105426C
 BYTE   PATT
  POIN2 Label_9_01054277
 BYTE   PATT
  POIN2 Label_9_01054277
 BYTE   PATT
  POIN2 Label_9_01054277
 BYTE   PATT
  POIN2 Label_9_01054277
 BYTE   PATT
  POIN2 Label_9_01054277
 BYTE   PATT
  POIN2 Label_9_01054277
 BYTE   PATT
  POIN2 Label_9_01054277
 BYTE   PATT
  POIN2 Label_9_01054277
 BYTE   PATT
  POIN2 Label_9_01054277
 BYTE   PATT
  POIN2 Label_9_010542AE
 BYTE   PATT
  POIN2 Label_9_010542AE
 BYTE   PATT
  POIN2 Label_9_010542AE
 BYTE   PATT
  POIN2 Label_9_010542AE
 BYTE   PATT
  POIN2 Label_9_010542D5
 BYTE   PATT
  POIN2 Label_9_010542D5
 BYTE   PATT
  POIN2 Label_9_010542D5
 BYTE   PATT
  POIN2 Label_9_010542D5
// 007   ----------------------------------------
 BYTE   GoTo
  POIN2 Label_9_0105422A
// 008   ----------------------------------------
 BYTE   W96
// 009   ----------------------------------------
 BYTE   W96
 BYTE   FINE

//******************************************************//
	ALIGN 4

FE05PressingThreatBaseADolkar:
	BYTE	10	// NumTrks
	BYTE	0	// NumBlks
	BYTE	FE05PressingThreatBaseADolkar_pri	// Priority
	BYTE	FE05PressingThreatBaseADolkar_rev	// Reverb.
    
	POIN2	FE05PressingThreatBaseADolkar_grp
    
	POIN2	FE05PressingThreatBaseADolkar_001
	POIN2	FE05PressingThreatBaseADolkar_002
	POIN2	FE05PressingThreatBaseADolkar_003
	POIN2	FE05PressingThreatBaseADolkar_004
	POIN2	FE05PressingThreatBaseADolkar_005
	POIN2	FE05PressingThreatBaseADolkar_006
	POIN2	FE05PressingThreatBaseADolkar_007
	POIN2	FE05PressingThreatBaseADolkar_008
	POIN2	FE05PressingThreatBaseADolkar_009
	POIN2	FE05PressingThreatBaseADolkar_010

	
