//Event file generated from Sappy .s format.
	#include "MPlayDef.event"

	#define	FE05SorrowSurfingKyogre_grp  voicegroup000
	#define	FE05SorrowSurfingKyogre_pri  0
	#define	FE05SorrowSurfingKyogre_rev  0
	#define	FE05SorrowSurfingKyogre_mvl  127
	#define	FE05SorrowSurfingKyogre_key  0
	#define	FE05SorrowSurfingKyogre_tbs  1
	#define	FE05SorrowSurfingKyogre_exg  0
	#define	FE05SorrowSurfingKyogre_cmp  1

	// .rodata
	//	FE05SorrowSurfingKyogre
	ALIGN 4


//**************** Track 1 (Midi-Chn.0) ****************//

FE05SorrowSurfingKyogre_001:
// 000   ----------------------------------------
 BYTE   KEYSH   FE05SorrowSurfingKyogre_key+0
 BYTE   TEMPO   108*FE05SorrowSurfingKyogre_tbs/2
 BYTE   VOICE   10
 BYTE   VOL   61*FE05SorrowSurfingKyogre_mvl/mxv
 BYTE   W72
 BYTE   W66
// 001   ----------------------------------------
Label_0_014B3DCE:
 BYTE   W06
 BYTE   N72  Cn3  v100
 BYTE   W72
Label_0_014B3DD3:
 BYTE   N48  As3  v100
 BYTE   W48
// 002   ----------------------------------------
 BYTE   N24  Gs3
 BYTE   W24
 BYTE   PEND 
 BYTE   N96  Cn3
 BYTE   W72
// 003   ----------------------------------------
Label_0_014B3DDE:
 BYTE   W24
 BYTE   N24  As3  v100
 BYTE   W24
 BYTE   Gs3
 BYTE   W24
 BYTE   PEND 
 BYTE   N96  Cn3
 BYTE   W72
// 004   ----------------------------------------
Label_0_014B3DE9:
 BYTE   W24
 BYTE   N24  As3  v100
 BYTE   W24
 BYTE   Cn4
 BYTE   W24
 BYTE   PEND 
 BYTE   N72  As3
 BYTE   W72
// 005   ----------------------------------------
 BYTE   Fn3
 BYTE   W72
 BYTE   N72
 BYTE   W72
// 006   ----------------------------------------
 BYTE   Fn4
 BYTE   W72
 BYTE   Ds4
 BYTE   W72
// 007   ----------------------------------------
 BYTE   Gs3
 BYTE   W72
 BYTE   N96
 BYTE   W72
// 008   ----------------------------------------
Label_0_014B3E00:
 BYTE   W24
 BYTE   N24  Gn3  v100
 BYTE   W24
 BYTE   Fn3
 BYTE   W24
 BYTE   PEND 
 BYTE   N72  Gn3
 BYTE   W72
// 009   ----------------------------------------
 BYTE   Cn4
 BYTE   W72
 BYTE   Cn3
 BYTE   W72
 BYTE   PATT
  POIN2 Label_0_014B3DD3
// 010   ----------------------------------------
 BYTE   N96  Cn3  v100
 BYTE   W72
 BYTE   PATT
  POIN2 Label_0_014B3DDE
// 011   ----------------------------------------
 BYTE   N96  Cn3  v100
 BYTE   W72
 BYTE   PATT
  POIN2 Label_0_014B3DE9
// 012   ----------------------------------------
 BYTE   N72  As3  v100
 BYTE   W72
 BYTE   Fn3
 BYTE   W72
// 013   ----------------------------------------
 BYTE   N72
 BYTE   W72
 BYTE   Fn4
 BYTE   W72
// 014   ----------------------------------------
 BYTE   Ds4
 BYTE   W72
 BYTE   Gs3
 BYTE   W72
// 015   ----------------------------------------
 BYTE   N96
 BYTE   W72
 BYTE   PATT
  POIN2 Label_0_014B3E00
// 016   ----------------------------------------
 BYTE   N72  Gn3  v100
 BYTE   W72
 BYTE   Cn4
 BYTE   W72
// 017   ----------------------------------------
 BYTE   GoTo
  POIN2 Label_0_014B3DCE
// 018   ----------------------------------------
 BYTE   W03
 BYTE   FINE

//**************** Track 2 (Midi-Chn.1) ****************//

FE05SorrowSurfingKyogre_002:
// 000   ----------------------------------------
 BYTE   KEYSH   FE05SorrowSurfingKyogre_key+0
 BYTE   VOICE   10
 BYTE   VOL   47*FE05SorrowSurfingKyogre_mvl/mxv
 BYTE   W72
 BYTE   W66
// 001   ----------------------------------------
Label_1_014B3E50:
 BYTE   W06
Label_1_014B3E51:
 BYTE   W03
 BYTE   N72  Cn3  v100
 BYTE   W68
 BYTE   W01
 BYTE   PEND 
Label_1_014B3E58:
 BYTE   W03
 BYTE   N48  As3  v100
 BYTE   W48
// 002   ----------------------------------------
 BYTE   N24  Gs3
 BYTE   W21
 BYTE   PEND 
Label_1_014B3E61:
 BYTE   W03
 BYTE   N96  Cn3  v100
 BYTE   W68
 BYTE   W01
 BYTE   PEND 
Label_1_014B3E68:
 BYTE   W24
// 003   ----------------------------------------
 BYTE   W03
 BYTE   N24  As3  v100
 BYTE   W24
 BYTE   Gs3
 BYTE   W21
 BYTE   PEND 
 BYTE   PATT
  POIN2 Label_1_014B3E61
// 004   ----------------------------------------
Label_1_014B3E76:
 BYTE   W24
 BYTE   W03
 BYTE   N24  As3  v100
 BYTE   W24
 BYTE   Cn4
 BYTE   W21
 BYTE   PEND 
Label_1_014B3E7F:
 BYTE   W03
 BYTE   N72  As3  v100
 BYTE   W68
// 005   ----------------------------------------
 BYTE   W01
 BYTE   PEND 
Label_1_014B3E86:
 BYTE   W03
 BYTE   N72  Fn3  v100
 BYTE   W68
 BYTE   W01
 BYTE   PEND 
 BYTE   PATT
  POIN2 Label_1_014B3E86
// 006   ----------------------------------------
Label_1_014B3E92:
 BYTE   W03
 BYTE   N72  Fn4  v100
 BYTE   W68
 BYTE   W01
 BYTE   PEND 
Label_1_014B3E99:
 BYTE   W03
 BYTE   N72  Ds4  v100
 BYTE   W68
// 007   ----------------------------------------
 BYTE   W01
 BYTE   PEND 
Label_1_014B3EA0:
 BYTE   W03
 BYTE   N72  Gs3  v100
 BYTE   W68
 BYTE   W01
 BYTE   PEND 
Label_1_014B3EA7:
 BYTE   W03
 BYTE   N96  Gs3  v100
 BYTE   W68
// 008   ----------------------------------------
 BYTE   W01
 BYTE   PEND 
Label_1_014B3EAE:
 BYTE   W24
 BYTE   W03
 BYTE   N24  Gn3  v100
 BYTE   W24
 BYTE   Fn3
 BYTE   W21
 BYTE   PEND 
Label_1_014B3EB7:
 BYTE   W03
 BYTE   N72  Gn3  v100
 BYTE   W68
// 009   ----------------------------------------
 BYTE   W01
 BYTE   PEND 
Label_1_014B3EBE:
 BYTE   W03
 BYTE   N72  Cn4  v100
 BYTE   W68
 BYTE   W01
 BYTE   PEND 
 BYTE   PATT
  POIN2 Label_1_014B3E51
 BYTE   PATT
  POIN2 Label_1_014B3E58
 BYTE   PATT
  POIN2 Label_1_014B3E61
 BYTE   PATT
  POIN2 Label_1_014B3E68
 BYTE   PATT
  POIN2 Label_1_014B3E61
 BYTE   PATT
  POIN2 Label_1_014B3E76
 BYTE   PATT
  POIN2 Label_1_014B3E7F
 BYTE   PATT
  POIN2 Label_1_014B3E86
 BYTE   PATT
  POIN2 Label_1_014B3E86
 BYTE   PATT
  POIN2 Label_1_014B3E92
 BYTE   PATT
  POIN2 Label_1_014B3E99
 BYTE   PATT
  POIN2 Label_1_014B3EA0
 BYTE   PATT
  POIN2 Label_1_014B3EA7
 BYTE   PATT
  POIN2 Label_1_014B3EAE
 BYTE   PATT
  POIN2 Label_1_014B3EB7
 BYTE   PATT
  POIN2 Label_1_014B3EBE
// 010   ----------------------------------------
 BYTE   GoTo
  POIN2 Label_1_014B3E50
// 011   ----------------------------------------
 BYTE   W03
 BYTE   FINE

//**************** Track 3 (Midi-Chn.2) ****************//

FE05SorrowSurfingKyogre_003:
// 000   ----------------------------------------
 BYTE   KEYSH   FE05SorrowSurfingKyogre_key+0
 BYTE   VOICE   58
 BYTE   VOL   56*FE05SorrowSurfingKyogre_mvl/mxv
 BYTE   TIE  Cs1  v088
 BYTE   W72
 BYTE   W66
// 001   ----------------------------------------
Label_2_014B3F27:
 BYTE   W06
 BYTE   EOT
 BYTE   Cs1
 BYTE   W72
 BYTE   W72
// 002   ----------------------------------------
 BYTE   W72
 BYTE   W72
// 003   ----------------------------------------
 BYTE   W72
 BYTE   W72
// 004   ----------------------------------------
 BYTE   W72
 BYTE   W24
// 005   ----------------------------------------
 BYTE   N09  Fn1  v060
 BYTE   W12
 BYTE   Fn1  v072
 BYTE   W12
 BYTE   Fn1  v080
 BYTE   W12
 BYTE   Fn1  v092
 BYTE   W12
Label_2_014B3F3F:
 BYTE   N09  Cs1  v100
 BYTE   W12
 BYTE   Cs1  v080
 BYTE   W12
 BYTE   N09
 BYTE   W12
 BYTE   N09
 BYTE   W12
// 006   ----------------------------------------
 BYTE   N09
 BYTE   W12
 BYTE   N09
 BYTE   W12
 BYTE   PEND 
 BYTE   PATT
  POIN2 Label_2_014B3F3F
// 007   ----------------------------------------
Label_2_014B3F54:
 BYTE   N09  Cn1  v100
 BYTE   W12
 BYTE   Cn1  v080
 BYTE   W12
 BYTE   N09
 BYTE   W12
 BYTE   N09
 BYTE   W12
 BYTE   N09
 BYTE   W12
 BYTE   N09
 BYTE   W12
 BYTE   PEND 
 BYTE   PATT
  POIN2 Label_2_014B3F54
// 008   ----------------------------------------
Label_2_014B3F69:
 BYTE   N09  Bn0  v100
 BYTE   W12
 BYTE   Bn0  v080
 BYTE   W12
 BYTE   N09
 BYTE   W12
 BYTE   N09
 BYTE   W12
 BYTE   N09
 BYTE   W12
 BYTE   N09
 BYTE   W12
 BYTE   PEND 
 BYTE   PATT
  POIN2 Label_2_014B3F69
 BYTE   PATT
  POIN2 Label_2_014B3F54
// 009   ----------------------------------------
Label_2_014B3F83:
 BYTE   W12
 BYTE   N12  Cn2  v100
 BYTE   W12
 BYTE   Fn2
 BYTE   W12
 BYTE   N12
 BYTE   W36
 BYTE   PEND 
Label_2_014B3F8D:
 BYTE   N09  Fn1  v100
 BYTE   W12
 BYTE   Fn1  v080
 BYTE   W12
// 010   ----------------------------------------
 BYTE   N09
 BYTE   W12
 BYTE   N09
 BYTE   W12
 BYTE   N09
 BYTE   W12
 BYTE   N09
 BYTE   W12
 BYTE   PEND 
 BYTE   PATT
  POIN2 Label_2_014B3F8D
// 011   ----------------------------------------
Label_2_014B3FA2:
 BYTE   N09  En1  v100
 BYTE   W12
 BYTE   En1  v080
 BYTE   W12
 BYTE   N09
 BYTE   W12
 BYTE   N09
 BYTE   W12
 BYTE   N09
 BYTE   W12
 BYTE   N09
 BYTE   W12
 BYTE   PEND 
 BYTE   PATT
  POIN2 Label_2_014B3FA2
// 012   ----------------------------------------
Label_2_014B3FB7:
 BYTE   N09  Ds1  v100
 BYTE   W12
 BYTE   Ds1  v080
 BYTE   W12
 BYTE   N09
 BYTE   W12
 BYTE   N09
 BYTE   W12
 BYTE   N09
 BYTE   W12
 BYTE   N09
 BYTE   W12
 BYTE   PEND 
 BYTE   PATT
  POIN2 Label_2_014B3FB7
// 013   ----------------------------------------
Label_2_014B3FCC:
 BYTE   N09  Dn1  v100
 BYTE   W12
 BYTE   Dn1  v080
 BYTE   W12
 BYTE   N09
 BYTE   W12
 BYTE   N09
 BYTE   W12
 BYTE   N09
 BYTE   W12
 BYTE   N09
 BYTE   W12
 BYTE   PEND 
 BYTE   PATT
  POIN2 Label_2_014B3FCC
 BYTE   PATT
  POIN2 Label_2_014B3F3F
 BYTE   PATT
  POIN2 Label_2_014B3F3F
 BYTE   PATT
  POIN2 Label_2_014B3F54
 BYTE   PATT
  POIN2 Label_2_014B3F54
 BYTE   PATT
  POIN2 Label_2_014B3F69
 BYTE   PATT
  POIN2 Label_2_014B3F69
 BYTE   PATT
  POIN2 Label_2_014B3F54
 BYTE   PATT
  POIN2 Label_2_014B3F83
// 014   ----------------------------------------
 BYTE   GoTo
  POIN2 Label_2_014B3F27
// 015   ----------------------------------------
 BYTE   W03
 BYTE   FINE

//**************** Track 4 (Midi-Chn.3) ****************//

FE05SorrowSurfingKyogre_004:
// 000   ----------------------------------------
 BYTE   KEYSH   FE05SorrowSurfingKyogre_key+0
 BYTE   VOICE   52
 BYTE   VOL   57*FE05SorrowSurfingKyogre_mvl/mxv
 BYTE   W72
 BYTE   W66
// 001   ----------------------------------------
Label_3_014B4018:
 BYTE   W06
 BYTE   TIE  Gs3  v100
 BYTE   W72
 BYTE   W72
// 002   ----------------------------------------
 BYTE   EOT
 BYTE   TIE  Gn3
 BYTE   W72
 BYTE   W72
// 003   ----------------------------------------
 BYTE   EOT
 BYTE   TIE  Fn3
 BYTE   W72
 BYTE   W72
// 004   ----------------------------------------
 BYTE   EOT
 BYTE   TIE
 BYTE   W72
 BYTE   W72
// 005   ----------------------------------------
 BYTE   EOT
 BYTE   TIE
 BYTE   W72
 BYTE   W72
// 006   ----------------------------------------
 BYTE   EOT
 BYTE   TIE  Ds3
 BYTE   W72
 BYTE   W72
// 007   ----------------------------------------
 BYTE   EOT
 BYTE   TIE  Dn3
 BYTE   W72
 BYTE   W72
// 008   ----------------------------------------
 BYTE   EOT
 BYTE   TIE  Cn3
 BYTE   W72
 BYTE   W72
// 009   ----------------------------------------
 BYTE   EOT
 BYTE   TIE  Gs3
 BYTE   W72
 BYTE   W72
// 010   ----------------------------------------
 BYTE   EOT
 BYTE   TIE  Gn3
 BYTE   W72
 BYTE   W72
// 011   ----------------------------------------
 BYTE   EOT
 BYTE   TIE  Fn3
 BYTE   W72
 BYTE   W72
// 012   ----------------------------------------
 BYTE   EOT
 BYTE   TIE
 BYTE   W72
 BYTE   W72
// 013   ----------------------------------------
 BYTE   EOT
 BYTE   TIE
 BYTE   W72
 BYTE   W72
// 014   ----------------------------------------
 BYTE   EOT
 BYTE   TIE  Ds3
 BYTE   W72
 BYTE   W72
// 015   ----------------------------------------
 BYTE   EOT
 BYTE   TIE  Dn3
 BYTE   W72
 BYTE   W72
// 016   ----------------------------------------
 BYTE   EOT
 BYTE   TIE  Cn3
 BYTE   W72
 BYTE   W72
// 017   ----------------------------------------
 BYTE   EOT
 BYTE   GoTo
  POIN2 Label_3_014B4018
// 018   ----------------------------------------
 BYTE   W03
 BYTE   FINE

//**************** Track 5 (Midi-Chn.4) ****************//

FE05SorrowSurfingKyogre_005:
// 000   ----------------------------------------
 BYTE   KEYSH   FE05SorrowSurfingKyogre_key+0
 BYTE   VOICE   52
 BYTE   VOL   57*FE05SorrowSurfingKyogre_mvl/mxv
 BYTE   W72
 BYTE   W66
// 001   ----------------------------------------
Label_4_014B4078:
 BYTE   W06
 BYTE   TIE  Fn2  v100
 BYTE   W72
 BYTE   W72
// 002   ----------------------------------------
 BYTE   EOT
 BYTE   TIE  En2
 BYTE   W72
 BYTE   W72
// 003   ----------------------------------------
 BYTE   EOT
 BYTE   TIE  Ds2
 BYTE   W72
 BYTE   W72
// 004   ----------------------------------------
 BYTE   EOT
 BYTE   TIE  Dn2
 BYTE   W72
 BYTE   W72
// 005   ----------------------------------------
 BYTE   EOT
 BYTE   TIE  Cs2
 BYTE   W72
 BYTE   W72
// 006   ----------------------------------------
 BYTE   EOT
 BYTE   TIE  Cn2
 BYTE   W72
 BYTE   W72
// 007   ----------------------------------------
 BYTE   EOT
 BYTE   TIE  Bn1
 BYTE   W72
 BYTE   W72
// 008   ----------------------------------------
 BYTE   EOT
 BYTE   TIE  Cn2
 BYTE   W72
 BYTE   W72
// 009   ----------------------------------------
 BYTE   EOT
 BYTE   TIE  Fn2
 BYTE   W72
 BYTE   W72
// 010   ----------------------------------------
 BYTE   EOT
 BYTE   TIE  En2
 BYTE   W72
 BYTE   W72
// 011   ----------------------------------------
 BYTE   EOT
 BYTE   TIE  Ds2
 BYTE   W72
 BYTE   W72
// 012   ----------------------------------------
 BYTE   EOT
 BYTE   TIE  Dn2
 BYTE   W72
 BYTE   W72
// 013   ----------------------------------------
 BYTE   EOT
 BYTE   TIE  Cs2
 BYTE   W72
 BYTE   W72
// 014   ----------------------------------------
 BYTE   EOT
 BYTE   TIE  Cn2
 BYTE   W72
 BYTE   W72
// 015   ----------------------------------------
 BYTE   EOT
 BYTE   TIE  Bn1
 BYTE   W72
 BYTE   W72
// 016   ----------------------------------------
 BYTE   EOT
 BYTE   TIE  Cn2
 BYTE   W72
 BYTE   W72
// 017   ----------------------------------------
 BYTE   EOT
 BYTE   GoTo
  POIN2 Label_4_014B4078
// 018   ----------------------------------------
 BYTE   W03
 BYTE   FINE

//**************** Track 6 (Midi-Chn.5) ****************//

FE05SorrowSurfingKyogre_006:
// 000   ----------------------------------------
 BYTE   KEYSH   FE05SorrowSurfingKyogre_key+0
 BYTE   VOICE   48
 BYTE   VOL   57*FE05SorrowSurfingKyogre_mvl/mxv
 BYTE   W24
 BYTE   TIE  Ds5  v100
 BYTE   W48
 BYTE   W60
// 001   ----------------------------------------
 BYTE   EOT
 BYTE   W06
Label_5_014B40E2:
 BYTE   W06
 BYTE   TIE  Cn3  v100
 BYTE   W72
 BYTE   W72
// 002   ----------------------------------------
 BYTE   EOT
 BYTE   TIE  As2
 BYTE   W72
 BYTE   W72
// 003   ----------------------------------------
 BYTE   EOT
 BYTE   TIE  An2
 BYTE   W72
 BYTE   W72
// 004   ----------------------------------------
 BYTE   EOT
 BYTE   TIE  As2
 BYTE   W72
 BYTE   W72
// 005   ----------------------------------------
 BYTE   EOT
 BYTE   TIE
 BYTE   W72
 BYTE   W72
// 006   ----------------------------------------
 BYTE   EOT
 BYTE   TIE  Gs2
 BYTE   W72
 BYTE   W72
// 007   ----------------------------------------
 BYTE   EOT
 BYTE   TIE  Fn2
 BYTE   W72
 BYTE   W72
// 008   ----------------------------------------
 BYTE   EOT
 BYTE   TIE  Gn2
 BYTE   W72
 BYTE   W72
// 009   ----------------------------------------
 BYTE   EOT
 BYTE   TIE  Cn3
 BYTE   W72
 BYTE   W72
// 010   ----------------------------------------
 BYTE   EOT
 BYTE   TIE  As2
 BYTE   W72
 BYTE   W72
// 011   ----------------------------------------
 BYTE   EOT
 BYTE   TIE  An2
 BYTE   W72
 BYTE   W72
// 012   ----------------------------------------
 BYTE   EOT
 BYTE   TIE  As2
 BYTE   W72
 BYTE   W72
// 013   ----------------------------------------
 BYTE   EOT
 BYTE   TIE
 BYTE   W72
 BYTE   W72
// 014   ----------------------------------------
 BYTE   EOT
 BYTE   TIE  Gs2
 BYTE   W72
 BYTE   W72
// 015   ----------------------------------------
 BYTE   EOT
 BYTE   TIE  Fn2
 BYTE   W72
 BYTE   W72
// 016   ----------------------------------------
 BYTE   EOT
 BYTE   TIE  Gn2
 BYTE   W72
 BYTE   W72
// 017   ----------------------------------------
 BYTE   EOT
 BYTE   GoTo
  POIN2 Label_5_014B40E2
// 018   ----------------------------------------
 BYTE   W03
 BYTE   FINE

//**************** Track 7 (Midi-Chn.6) ****************//

FE05SorrowSurfingKyogre_007:
// 000   ----------------------------------------
 BYTE   KEYSH   FE05SorrowSurfingKyogre_key+0
 BYTE   VOICE   48
 BYTE   VOL   56*FE05SorrowSurfingKyogre_mvl/mxv
 BYTE   W24
 BYTE   TIE  Cn3  v100
 BYTE   W48
 BYTE   W60
// 001   ----------------------------------------
 BYTE   EOT
 BYTE   W06
Label_6_014B414A:
 BYTE   W06
 BYTE   W72
 BYTE   W72
// 002   ----------------------------------------
 BYTE   W72
 BYTE   W72
// 003   ----------------------------------------
 BYTE   W72
 BYTE   W72
// 004   ----------------------------------------
 BYTE   W72
 BYTE   W72
// 005   ----------------------------------------
 BYTE   W72
 BYTE   W72
// 006   ----------------------------------------
 BYTE   W72
 BYTE   W72
// 007   ----------------------------------------
 BYTE   W72
 BYTE   W72
// 008   ----------------------------------------
 BYTE   W72
Label_6_014B415A:
 BYTE   W48
// 009   ----------------------------------------
 BYTE   N12  Gn2  v100
 BYTE   W12
 BYTE   Cn3
 BYTE   W12
 BYTE   PEND 
 BYTE   W72
// 010   ----------------------------------------
 BYTE   W72
 BYTE   W72
// 011   ----------------------------------------
 BYTE   W72
 BYTE   W72
// 012   ----------------------------------------
 BYTE   W72
 BYTE   W72
// 013   ----------------------------------------
 BYTE   W72
 BYTE   W72
// 014   ----------------------------------------
 BYTE   W72
 BYTE   W72
// 015   ----------------------------------------
 BYTE   W72
 BYTE   W72
// 016   ----------------------------------------
 BYTE   W72
 BYTE   W72
 BYTE   PATT
  POIN2 Label_6_014B415A
// 017   ----------------------------------------
 BYTE   GoTo
  POIN2 Label_6_014B414A
// 018   ----------------------------------------
 BYTE   W03
 BYTE   FINE

//**************** Track 8 (Midi-Chn.7) ****************//

FE05SorrowSurfingKyogre_008:
// 000   ----------------------------------------
 BYTE   KEYSH   FE05SorrowSurfingKyogre_key+0
 BYTE   VOICE   48
 BYTE   VOL   56*FE05SorrowSurfingKyogre_mvl/mxv
 BYTE   W24
 BYTE   TIE  Ds3  v100
 BYTE   W48
 BYTE   W60
// 001   ----------------------------------------
 BYTE   EOT
 BYTE   W06
Label_7_014B418E:
 BYTE   W06
 BYTE   W72
 BYTE   W72
// 002   ----------------------------------------
 BYTE   W72
 BYTE   W72
// 003   ----------------------------------------
 BYTE   W72
 BYTE   W72
// 004   ----------------------------------------
 BYTE   W72
 BYTE   W72
// 005   ----------------------------------------
 BYTE   W72
 BYTE   W72
// 006   ----------------------------------------
 BYTE   W72
 BYTE   W72
// 007   ----------------------------------------
 BYTE   W72
 BYTE   W72
// 008   ----------------------------------------
 BYTE   W72
 BYTE   W72
// 009   ----------------------------------------
 BYTE   W72
 BYTE   W72
// 010   ----------------------------------------
 BYTE   W72
 BYTE   W72
// 011   ----------------------------------------
 BYTE   W72
 BYTE   W72
// 012   ----------------------------------------
 BYTE   W72
 BYTE   W72
// 013   ----------------------------------------
 BYTE   W72
 BYTE   W72
// 014   ----------------------------------------
 BYTE   W72
 BYTE   W72
// 015   ----------------------------------------
 BYTE   W72
 BYTE   W72
// 016   ----------------------------------------
 BYTE   W72
 BYTE   W72
// 017   ----------------------------------------
 BYTE   GoTo
  POIN2 Label_7_014B418E
// 018   ----------------------------------------
 BYTE   W03
 BYTE   FINE

//**************** Track 9 (Midi-Chn.8) ****************//

FE05SorrowSurfingKyogre_009:
// 000   ----------------------------------------
 BYTE   KEYSH   FE05SorrowSurfingKyogre_key+0
 BYTE   VOICE   48
 BYTE   VOL   56*FE05SorrowSurfingKyogre_mvl/mxv
 BYTE   W24
 BYTE   TIE  Fs2  v100
 BYTE   W48
 BYTE   W60
// 001   ----------------------------------------
 BYTE   EOT
 BYTE   W06
Label_8_014B41C6:
 BYTE   W06
 BYTE   W72
 BYTE   W72
// 002   ----------------------------------------
 BYTE   W72
 BYTE   W72
// 003   ----------------------------------------
 BYTE   W72
 BYTE   W72
// 004   ----------------------------------------
 BYTE   W72
 BYTE   W72
// 005   ----------------------------------------
 BYTE   W72
 BYTE   W72
// 006   ----------------------------------------
 BYTE   W72
 BYTE   W72
// 007   ----------------------------------------
 BYTE   W72
 BYTE   W72
// 008   ----------------------------------------
 BYTE   W72
 BYTE   W72
// 009   ----------------------------------------
 BYTE   W72
 BYTE   W72
// 010   ----------------------------------------
 BYTE   W72
 BYTE   W72
// 011   ----------------------------------------
 BYTE   W72
 BYTE   W72
// 012   ----------------------------------------
 BYTE   W72
 BYTE   W72
// 013   ----------------------------------------
 BYTE   W72
 BYTE   W72
// 014   ----------------------------------------
 BYTE   W72
 BYTE   W72
// 015   ----------------------------------------
 BYTE   W72
 BYTE   W72
// 016   ----------------------------------------
 BYTE   W72
 BYTE   W72
// 017   ----------------------------------------
 BYTE   GoTo
  POIN2 Label_8_014B41C6
// 018   ----------------------------------------
 BYTE   W03
 BYTE   FINE

//**************** Track 10 (Midi-Chn.9) ****************//

FE05SorrowSurfingKyogre_010:
// 000   ----------------------------------------
 BYTE   KEYSH   FE05SorrowSurfingKyogre_key+0
 BYTE   VOICE   48
 BYTE   VOL   44*FE05SorrowSurfingKyogre_mvl/mxv
 BYTE   W24
 BYTE   TIE  Ds4  v100
 BYTE   W48
 BYTE   W60
// 001   ----------------------------------------
 BYTE   EOT
 BYTE   W06
Label_9_014B41FE:
 BYTE   W06
 BYTE   W72
 BYTE   W72
// 002   ----------------------------------------
 BYTE   W72
 BYTE   W72
// 003   ----------------------------------------
 BYTE   W72
 BYTE   W72
// 004   ----------------------------------------
 BYTE   W72
 BYTE   W72
// 005   ----------------------------------------
 BYTE   W72
 BYTE   W72
// 006   ----------------------------------------
 BYTE   W72
 BYTE   W72
// 007   ----------------------------------------
 BYTE   W72
 BYTE   W72
// 008   ----------------------------------------
 BYTE   W72
 BYTE   W72
// 009   ----------------------------------------
 BYTE   W72
 BYTE   W72
// 010   ----------------------------------------
 BYTE   W72
 BYTE   W72
// 011   ----------------------------------------
 BYTE   W72
 BYTE   W72
// 012   ----------------------------------------
 BYTE   W72
 BYTE   W72
// 013   ----------------------------------------
 BYTE   W72
 BYTE   W72
// 014   ----------------------------------------
 BYTE   W72
 BYTE   W72
// 015   ----------------------------------------
 BYTE   W72
 BYTE   W72
// 016   ----------------------------------------
 BYTE   W72
 BYTE   W72
// 017   ----------------------------------------
 BYTE   GoTo
  POIN2 Label_9_014B41FE
// 018   ----------------------------------------
 BYTE   W03
 BYTE   FINE

//******************************************************//
	ALIGN 4

FE05SorrowSurfingKyogre:
	BYTE	10	// NumTrks
	BYTE	0	// NumBlks
	BYTE	FE05SorrowSurfingKyogre_pri	// Priority
	BYTE	FE05SorrowSurfingKyogre_rev	// Reverb.
    
	POIN2	FE05SorrowSurfingKyogre_grp
    
	POIN2	FE05SorrowSurfingKyogre_001
	POIN2	FE05SorrowSurfingKyogre_002
	POIN2	FE05SorrowSurfingKyogre_003
	POIN2	FE05SorrowSurfingKyogre_004
	POIN2	FE05SorrowSurfingKyogre_005
	POIN2	FE05SorrowSurfingKyogre_006
	POIN2	FE05SorrowSurfingKyogre_007
	POIN2	FE05SorrowSurfingKyogre_008
	POIN2	FE05SorrowSurfingKyogre_009
	POIN2	FE05SorrowSurfingKyogre_010

	
