//Event file generated from Sappy .s format.
	#include "MPlayDef.event"

	#define	FE06JoinUsTristanHollow_grp  voicegroup000
	#define	FE06JoinUsTristanHollow_pri  10
	#define	FE06JoinUsTristanHollow_rev  158
	#define	FE06JoinUsTristanHollow_mvl  127
	#define	FE06JoinUsTristanHollow_key  0
	#define	FE06JoinUsTristanHollow_tbs  1
	#define	FE06JoinUsTristanHollow_exg  0
	#define	FE06JoinUsTristanHollow_cmp  1

	// .rodata
	//	FE06JoinUsTristanHollow
	ALIGN 4


//**************** Track 1 (Midi-Chn.0) ****************//

FE06JoinUsTristanHollow_001:
// 000   ----------------------------------------
 BYTE   KEYSH   FE06JoinUsTristanHollow_key+0
 BYTE   TEMPO   172*FE06JoinUsTristanHollow_tbs/2
 BYTE   VOICE   63
 BYTE   VOL   58*FE06JoinUsTristanHollow_mvl/mxv
 BYTE   PAN   c_v+0
 BYTE   W24
 BYTE   N23  Dn3  v096
 BYTE   N23  Gn3  v100
 BYTE   W24
 BYTE   N06  Dn3  v020
 BYTE   N06  Gn3
 BYTE   W12
 BYTE   N19  Cn3  v096
 BYTE   N21  Fn3  v100
 BYTE   W24
 BYTE   N06  Cn3  v020
 BYTE   N06  Fn3
 BYTE   W12
// 001   ----------------------------------------
 BYTE   N23  Fn3  v096
 BYTE   N23  As3  v100
 BYTE   W24
 BYTE   N06  Fn3  v020
 BYTE   N06  As3
 BYTE   W12
 BYTE   N20  Ds3  v096
 BYTE   N21  Gs3  v100
 BYTE   W24
 BYTE   N06  Ds3  v020
 BYTE   N06  Gs3
 BYTE   W12
 BYTE   N14  Gn3  v096
 BYTE   N16  Cn4  v100
 BYTE   W18
 BYTE   N05  Gn3  v020
 BYTE   N05  Cn4
 BYTE   W06
// 002   ----------------------------------------
 BYTE   N08  Gn3  v096
 BYTE   N08  An3
 BYTE   N09  Dn4  v100
 BYTE   W12
 BYTE   N08  Gn3  v028
 BYTE   N08  An3
 BYTE   N09  Dn4
 BYTE   W24
 BYTE   N07  Gn3  v096
 BYTE   N07  An3
 BYTE   N07  Dn4  v100
 BYTE   W12
 BYTE   N06  Gn3  v028
 BYTE   N06  An3
 BYTE   N06  Dn4
 BYTE   W24
 BYTE   N07  Gn3  v096
 BYTE   N07  An3
 BYTE   N07  Dn4  v100
 BYTE   W12
 BYTE   Gn3  v028
 BYTE   N06  An3
 BYTE   N07  Dn4
 BYTE   W12
// 003   ----------------------------------------
 BYTE   W12
 BYTE   Gn3  v096
 BYTE   N07  An3
 BYTE   N07  Dn4  v100
 BYTE   W12
 BYTE   N04  Gn3  v028
 BYTE   N05  An3
 BYTE   N05  Dn4
 BYTE   W24
 BYTE   N07  Gn3  v096
 BYTE   N07  An3
 BYTE   N07  Dn4  v100
 BYTE   W12
 BYTE   N04  Gn3  v028
 BYTE   N04  An3
 BYTE   N07  Dn4
 BYTE   W36
// 004   ----------------------------------------
Label_0_010C2F78:
 BYTE   W96
// 005   ----------------------------------------
 BYTE   W96
// 006   ----------------------------------------
 BYTE   W96
// 007   ----------------------------------------
 BYTE   W96
// 008   ----------------------------------------
 BYTE   W72
 BYTE   VOICE   63
 BYTE   VOL   49*FE06JoinUsTristanHollow_mvl/mxv
 BYTE   PAN   c_v+0
 BYTE   W24
// 009   ----------------------------------------
 BYTE   N28  Dn3  v096
 BYTE   W36
 BYTE   N20  En3  v092
 BYTE   W36
 BYTE   N18  Fn3
 BYTE   W24
// 010   ----------------------------------------
 BYTE   N76  Gn3  v096
 BYTE   W78
 BYTE   N17  Gn3  v028
 BYTE   W18
// 011   ----------------------------------------
 BYTE   N32  En3  v096
 BYTE   W36
 BYTE   N22  Fn3  v092
 BYTE   W36
 BYTE   N19  Gn3  v088
 BYTE   W24
// 012   ----------------------------------------
 BYTE   N68  An3  v092
 BYTE   W72
 BYTE   N17  An3  v028
 BYTE   W24
// 013   ----------------------------------------
 BYTE   N30  An3  v100
 BYTE   W36
 BYTE   Gn3  v092
 BYTE   W36
 BYTE   Fn3
 BYTE   W24
// 014   ----------------------------------------
 BYTE   W12
 BYTE   N28  Cn4  v100
 BYTE   W36
 BYTE   N14  As3  v084
 BYTE   W24
 BYTE   An3  v092
 BYTE   W24
// 015   ----------------------------------------
 BYTE   N32  An3  v096
 BYTE   W36
 BYTE   N24  Gn3
 BYTE   W36
 BYTE   N28  Fn3
 BYTE   W24
// 016   ----------------------------------------
 BYTE   W12
 BYTE   N30  En3  v088
 BYTE   W36
 BYTE   N14  Gn3  v092
 BYTE   W24
 BYTE   N15  Fn3  v100
 BYTE   W24
// 017   ----------------------------------------
 BYTE   N30  En3
 BYTE   W36
 BYTE   N24  Fn3  v088
 BYTE   W36
 BYTE   N18  Gn3  v092
 BYTE   W24
// 018   ----------------------------------------
 BYTE   N72  En3  v108
 BYTE   W96
// 019   ----------------------------------------
 BYTE   GoTo
  POIN2 Label_0_010C2F78
 BYTE   FINE

//**************** Track 2 (Midi-Chn.1) ****************//

FE06JoinUsTristanHollow_002:
// 000   ----------------------------------------
 BYTE   KEYSH   FE06JoinUsTristanHollow_key+0
 BYTE   W72
 BYTE   VOICE   48
 BYTE   VOL   47*FE06JoinUsTristanHollow_mvl/mxv
 BYTE   PAN   c_v+0
 BYTE   W24
// 001   ----------------------------------------
 BYTE   W72
 BYTE   N05  Gn3  v104
 BYTE   W06
 BYTE   Gs3  v100
 BYTE   W06
 BYTE   As3  v088
 BYTE   W06
 BYTE   Cn4  v104
 BYTE   W06
// 002   ----------------------------------------
 BYTE   N11  Dn4  v120
 BYTE   W12
 BYTE   N12  Dn4  v040
 BYTE   W24
 BYTE   N11  Dn4  v120
 BYTE   W12
 BYTE   Dn4  v040
 BYTE   W24
 BYTE   Dn4  v127
 BYTE   W12
 BYTE   N12  Dn4  v048
 BYTE   W12
// 003   ----------------------------------------
 BYTE   W12
 BYTE   N11  Dn4  v127
 BYTE   W12
 BYTE   Dn4  v048
 BYTE   W24
 BYTE   Dn4  v127
 BYTE   W12
 BYTE   Dn4  v048
 BYTE   W36
// 004   ----------------------------------------
Label_1_010C3028:
 BYTE   N23  Gn2  v116
 BYTE   W24
 BYTE   N11  Gn2  v032
 BYTE   W12
 BYTE   N23  As2  v108
 BYTE   W24
 BYTE   N11  As2  v032
 BYTE   W12
 BYTE   N23  An2  v116
 BYTE   W24
// 005   ----------------------------------------
 BYTE   N11  An2  v032
 BYTE   W12
 BYTE   N23  Fn2  v124
 BYTE   W24
 BYTE   N11  Fn2  v032
 BYTE   W12
 BYTE   Gn2  v116
 BYTE   W12
 BYTE   Gn2  v032
 BYTE   W12
 BYTE   An2  v112
 BYTE   W12
 BYTE   An2  v032
 BYTE   W12
// 006   ----------------------------------------
 BYTE   N23  Gn2  v116
 BYTE   W24
 BYTE   N11  Gn2  v032
 BYTE   W12
 BYTE   N23  Dn3  v127
 BYTE   W24
 BYTE   N11  Dn3  v032
 BYTE   W12
 BYTE   N23  Cn3  v124
 BYTE   W24
// 007   ----------------------------------------
 BYTE   N11  Cn3  v032
 BYTE   W12
 BYTE   N23  An2  v116
 BYTE   W24
 BYTE   N11  An2  v032
 BYTE   W12
 BYTE   N10  As2  v108
 BYTE   W12
 BYTE   N11  As2  v032
 BYTE   W12
 BYTE   Cn3  v124
 BYTE   W12
 BYTE   Cn3  v032
 BYTE   W12
// 008   ----------------------------------------
 BYTE   W24
 BYTE   N13  En4  v104
 BYTE   W24
 BYTE   N14  Dn4  v108
 BYTE   W24
 BYTE   N13  Gn3
 BYTE   W24
// 009   ----------------------------------------
 BYTE   N92  As2  v100
 BYTE   W96
// 010   ----------------------------------------
 BYTE   Cn3  v108
 BYTE   W96
// 011   ----------------------------------------
 BYTE   An2  v104
 BYTE   W96
// 012   ----------------------------------------
 BYTE   N44  En3  v116
 BYTE   W48
 BYTE   Fn3  v108
 BYTE   W48
// 013   ----------------------------------------
 BYTE   TIE  Dn3  v120
 BYTE   W96
// 014   ----------------------------------------
 BYTE   W92
 BYTE   W03
 BYTE   EOT
 BYTE   W01
// 015   ----------------------------------------
 BYTE   N92
 BYTE   W96
// 016   ----------------------------------------
 BYTE   En3  v104
 BYTE   W96
// 017   ----------------------------------------
 BYTE   Fn3  v116
 BYTE   W96
// 018   ----------------------------------------
 BYTE   Gn3
 BYTE   W96
// 019   ----------------------------------------
 BYTE   GoTo
  POIN2 Label_1_010C3028
 BYTE   FINE

//**************** Track 3 (Midi-Chn.2) ****************//

FE06JoinUsTristanHollow_003:
// 000   ----------------------------------------
 BYTE   KEYSH   FE06JoinUsTristanHollow_key+0
 BYTE   W96
// 001   ----------------------------------------
 BYTE   W96
// 002   ----------------------------------------
 BYTE   W96
// 003   ----------------------------------------
 BYTE   W96
// 004   ----------------------------------------
Label_2_010C30BE:
 BYTE   VOICE   48
 BYTE   VOL   47*FE06JoinUsTristanHollow_mvl/mxv
 BYTE   PAN   c_v+0
 BYTE   N20  Cn2  v112
 BYTE   W36
 BYTE   N22  Ds2  v104
 BYTE   W36
 BYTE   Dn2  v108
 BYTE   W24
// 005   ----------------------------------------
 BYTE   W12
 BYTE   As1  v100
 BYTE   W36
 BYTE   N09  Cn2  v112
 BYTE   W24
 BYTE   Dn2  v100
 BYTE   W24
// 006   ----------------------------------------
 BYTE   N21  Cn2  v112
 BYTE   W36
 BYTE   N24  Gn2  v120
 BYTE   W36
 BYTE   Fn2  v112
 BYTE   W24
// 007   ----------------------------------------
 BYTE   W12
 BYTE   N23  Dn2  v116
 BYTE   W36
 BYTE   N10  Ds2  v104
 BYTE   W24
 BYTE   N11  Fn2  v124
 BYTE   W24
// 008   ----------------------------------------
 BYTE   VOL   47*FE06JoinUsTristanHollow_mvl/mxv
 BYTE   PAN   c_v+0
 BYTE   W12
 BYTE   N13  Fn4  v108
 BYTE   W24
 BYTE   Cn4  v104
 BYTE   W24
 BYTE   An3
 BYTE   W24
 BYTE   En3  v108
 BYTE   W12
// 009   ----------------------------------------
 BYTE   W96
// 010   ----------------------------------------
 BYTE   VOL   52*FE06JoinUsTristanHollow_mvl/mxv
 BYTE   PAN   c_v+18
 BYTE   W24
 BYTE   N11  As3
 BYTE   W12
 BYTE   An3  v100
 BYTE   W12
 BYTE   Gn3
 BYTE   W12
 BYTE   Fn3  v084
 BYTE   W12
 BYTE   En3  v104
 BYTE   W12
 BYTE   N10  Dn3  v100
 BYTE   W12
// 011   ----------------------------------------
 BYTE   N72  Cs3  v104
 BYTE   W96
// 012   ----------------------------------------
 BYTE   W24
 BYTE   N11  En4  v112
 BYTE   W12
 BYTE   Dn4  v108
 BYTE   W12
 BYTE   An3  v100
 BYTE   W12
 BYTE   Fn3  v096
 BYTE   W12
 BYTE   En3  v112
 BYTE   W12
 BYTE   Dn3  v104
 BYTE   W12
// 013   ----------------------------------------
 BYTE   TIE  An3  v108
 BYTE   W96
// 014   ----------------------------------------
 BYTE   W06
 BYTE   EOT
 BYTE   W06
 BYTE   N11  Dn4
 BYTE   W12
 BYTE   En4  v100
 BYTE   W12
 BYTE   Fn4  v104
 BYTE   W12
 BYTE   Gn4  v100
 BYTE   W12
 BYTE   Fn4  v096
 BYTE   W12
 BYTE   En4
 BYTE   W12
 BYTE   Dn4  v100
 BYTE   W12
// 015   ----------------------------------------
 BYTE   N32  En4  v096
 BYTE   W36
 BYTE   Dn4  v100
 BYTE   W36
 BYTE   An3  v096
 BYTE   W24
// 016   ----------------------------------------
 BYTE   W12
 BYTE   Fn3  v100
 BYTE   W36
 BYTE   N23  En3  v104
 BYTE   W24
 BYTE   Dn3
 BYTE   W24
// 017   ----------------------------------------
 BYTE   TIE  An3  v084
 BYTE   W96
// 018   ----------------------------------------
 BYTE   W02
 BYTE   EOT
 BYTE   W22
 BYTE   N05  An2  v112
 BYTE   W06
 BYTE   Bn2  v096
 BYTE   W06
 BYTE   Cs3  v092
 BYTE   W06
 BYTE   Dn3  v104
 BYTE   W06
 BYTE   N15  En3
 BYTE   W24
 BYTE   N05  En3  v116
 BYTE   W06
 BYTE   Fn3  v092
 BYTE   W06
 BYTE   N07  Gn3
 BYTE   N01  An3  v100
 BYTE   W12
// 019   ----------------------------------------
 BYTE   GoTo
  POIN2 Label_2_010C30BE
 BYTE   FINE

//**************** Track 4 (Midi-Chn.3) ****************//

FE06JoinUsTristanHollow_004:
// 000   ----------------------------------------
 BYTE   KEYSH   FE06JoinUsTristanHollow_key+0
 BYTE   W96
// 001   ----------------------------------------
 BYTE   W96
// 002   ----------------------------------------
 BYTE   W96
// 003   ----------------------------------------
 BYTE   W96
// 004   ----------------------------------------
Label_3_010C3192:
 BYTE   VOICE   52
 BYTE   VOL   60*FE06JoinUsTristanHollow_mvl/mxv
 BYTE   PAN   c_v+0
 BYTE   N23  Gn3  v116
 BYTE   W24
 BYTE   N11  Gn3  v032
 BYTE   W12
 BYTE   N23  As3  v108
 BYTE   W24
 BYTE   N11  As3  v032
 BYTE   W12
 BYTE   N23  An3  v116
 BYTE   W24
// 005   ----------------------------------------
 BYTE   N11  An3  v032
 BYTE   W12
 BYTE   N23  Fn3  v124
 BYTE   W24
 BYTE   N11  Fn3  v032
 BYTE   W12
 BYTE   Gn3  v116
 BYTE   W12
 BYTE   Gn3  v032
 BYTE   W12
 BYTE   An3  v112
 BYTE   W12
 BYTE   An3  v032
 BYTE   W12
// 006   ----------------------------------------
 BYTE   N23  Gn3  v116
 BYTE   W24
 BYTE   N11  Gn3  v032
 BYTE   W12
 BYTE   N23  Dn4  v127
 BYTE   W24
 BYTE   N11  Dn4  v032
 BYTE   W12
 BYTE   N23  Cn4  v124
 BYTE   W24
// 007   ----------------------------------------
 BYTE   N11  Cn4  v032
 BYTE   W12
 BYTE   N23  An3  v116
 BYTE   W24
 BYTE   N11  An3  v032
 BYTE   W12
 BYTE   N10  As3  v108
 BYTE   W12
 BYTE   N11  As3  v032
 BYTE   W12
 BYTE   Cn4  v124
 BYTE   W12
 BYTE   Cn4  v032
 BYTE   W12
// 008   ----------------------------------------
 BYTE   W72
 BYTE   VOICE   56
 BYTE   VOL   60*FE06JoinUsTristanHollow_mvl/mxv
 BYTE   PAN   c_v+0
 BYTE   W24
// 009   ----------------------------------------
 BYTE   N32  As1  v112
 BYTE   W36
 BYTE   Cn2  v104
 BYTE   W36
 BYTE   N23  Dn2
 BYTE   W24
// 010   ----------------------------------------
 BYTE   N92  En2
 BYTE   W96
// 011   ----------------------------------------
 BYTE   N32  Cs2  v108
 BYTE   W36
 BYTE   Dn2  v104
 BYTE   W36
 BYTE   N23  En2  v096
 BYTE   W24
// 012   ----------------------------------------
 BYTE   N92  Fn2  v104
 BYTE   W96
// 013   ----------------------------------------
 BYTE   N32  Fn2  v108
 BYTE   W36
 BYTE   En2
 BYTE   W36
 BYTE   Dn2
 BYTE   W24
// 014   ----------------------------------------
 BYTE   W12
 BYTE   An2  v112
 BYTE   W36
 BYTE   N23  Gn2  v100
 BYTE   W24
 BYTE   Fn2  v104
 BYTE   W24
// 015   ----------------------------------------
 BYTE   N32  Fn2  v108
 BYTE   W36
 BYTE   En2
 BYTE   W36
 BYTE   Dn2  v112
 BYTE   W24
// 016   ----------------------------------------
 BYTE   W12
 BYTE   Cn2  v108
 BYTE   W36
 BYTE   N23  En2  v100
 BYTE   W24
 BYTE   Dn2  v116
 BYTE   W24
// 017   ----------------------------------------
 BYTE   N32  Cn2
 BYTE   W36
 BYTE   Dn2  v104
 BYTE   W36
 BYTE   N23  En2  v100
 BYTE   W24
// 018   ----------------------------------------
 BYTE   N92  Cs2  v116
 BYTE   W96
// 019   ----------------------------------------
 BYTE   GoTo
  POIN2 Label_3_010C3192
 BYTE   FINE

//**************** Track 5 (Midi-Chn.4) ****************//

FE06JoinUsTristanHollow_005:
// 000   ----------------------------------------
 BYTE   KEYSH   FE06JoinUsTristanHollow_key+0
 BYTE   VOICE   34
 BYTE   VOL   61*FE06JoinUsTristanHollow_mvl/mxv
 BYTE   PAN   c_v+0
 BYTE   TIE  Cn2  v104
 BYTE   W96
// 001   ----------------------------------------
 BYTE   W44
 BYTE   W02
 BYTE   EOT
 BYTE   W48
 BYTE   W02
// 002   ----------------------------------------
 BYTE   N16  Gn2  v100
 BYTE   W36
 BYTE   N16
 BYTE   W36
 BYTE   N16
 BYTE   W24
// 003   ----------------------------------------
 BYTE   W12
 BYTE   N16
 BYTE   W60
 BYTE   BEND   c_v+0
 BYTE   N23
 BYTE   W05
 BYTE   BEND   c_v+0
 BYTE   W01
 BYTE   Ds2
 BYTE   W01
 BYTE   Cs2
 BYTE   W02
 BYTE   Gs1
 BYTE   W01
 BYTE   Gn0
 BYTE   W01
 BYTE   An0
 BYTE   W01
 BYTE   FnM2
 BYTE   W01
 BYTE   DsM2
 BYTE   W06
 BYTE   DnM2
 BYTE   W01
 BYTE   CsM1
 BYTE   W01
 BYTE   Cn0
 BYTE   W01
 BYTE   As0
 BYTE   W01
 BYTE   En2
 BYTE   W01
// 004   ----------------------------------------
Label_4_010C328F:
 BYTE   BEND   c_v+0
 BYTE   N24  Cn2  v100
 BYTE   W36
 BYTE   Ds2
 BYTE   W36
 BYTE   Dn2
 BYTE   W12
 BYTE   BEND   c_v+0
 BYTE   W12
// 005   ----------------------------------------
 BYTE   W12
 BYTE   N22  As1
 BYTE   W36
 BYTE   N10  Cn2  v108
 BYTE   W24
 BYTE   Dn2  v100
 BYTE   W24
// 006   ----------------------------------------
 BYTE   N24  Cn2
 BYTE   W36
 BYTE   Gn2
 BYTE   W36
 BYTE   Fn2
 BYTE   W24
// 007   ----------------------------------------
 BYTE   W12
 BYTE   N22  Dn2
 BYTE   W36
 BYTE   N10  Ds2
 BYTE   W24
 BYTE   Fn2  v112
 BYTE   W24
// 008   ----------------------------------------
 BYTE   W09
 BYTE   BEND   c_v+0
 BYTE   W60
 BYTE   W03
 BYTE   En2
 BYTE   N23  Gn2  v116
 BYTE   W05
 BYTE   BEND   c_v+0
 BYTE   W01
 BYTE   Ds2
 BYTE   W01
 BYTE   Cs2
 BYTE   W02
 BYTE   Gs1
 BYTE   W01
 BYTE   Gn0
 BYTE   W01
 BYTE   An0
 BYTE   W01
 BYTE   FnM2
 BYTE   W01
 BYTE   DsM2
 BYTE   W06
 BYTE   DnM2
 BYTE   W01
 BYTE   CsM1
 BYTE   W01
 BYTE   Cn0
 BYTE   W01
 BYTE   As0
 BYTE   W01
 BYTE   En2
 BYTE   W01
// 009   ----------------------------------------
 BYTE   BEND   c_v+0
 BYTE   N24  As2  v104
 BYTE   W36
 BYTE   As2  v100
 BYTE   W36
 BYTE   N10  As2  v104
 BYTE   W12
 BYTE   Fn2  v100
 BYTE   W12
// 010   ----------------------------------------
 BYTE   N24  An2
 BYTE   W36
 BYTE   N20  An2  v104
 BYTE   W24
 BYTE   N10  En2  v100
 BYTE   W12
 BYTE   N11  Gn2
 BYTE   W12
 BYTE   Gs2
 BYTE   W12
// 011   ----------------------------------------
 BYTE   N24  An2
 BYTE   W36
 BYTE   N16
 BYTE   W24
 BYTE   N11
 BYTE   W12
 BYTE   Bn2  v108
 BYTE   W12
 BYTE   Cs3  v100
 BYTE   W12
// 012   ----------------------------------------
 BYTE   N24  Dn3
 BYTE   W36
 BYTE   N32  Dn3  v104
 BYTE   W36
 BYTE   N20  Cn3  v100
 BYTE   W24
// 013   ----------------------------------------
 BYTE   N24  As2
 BYTE   W36
 BYTE   N24
 BYTE   W36
 BYTE   N10
 BYTE   W12
 BYTE   N11  Fn2
 BYTE   W12
// 014   ----------------------------------------
 BYTE   N24  As2
 BYTE   W36
 BYTE   N19
 BYTE   W24
 BYTE   N10
 BYTE   W12
 BYTE   N11
 BYTE   W12
 BYTE   N10  Fn2
 BYTE   W12
// 015   ----------------------------------------
 BYTE   N28  Bn2  v116
 BYTE   W36
 BYTE   N30  Bn2  v112
 BYTE   W36
 BYTE   N11
 BYTE   W12
 BYTE   Fs2  v100
 BYTE   W12
// 016   ----------------------------------------
 BYTE   N24  Bn2  v112
 BYTE   W36
 BYTE   Bn2  v108
 BYTE   W36
 BYTE   N17  Bn2  v116
 BYTE   W24
// 017   ----------------------------------------
 BYTE   N24  Cn3  v112
 BYTE   W36
 BYTE   Cn3  v108
 BYTE   W36
 BYTE   N17  Cn3  v116
 BYTE   W24
// 018   ----------------------------------------
 BYTE   N23  Cs3  v100
 BYTE   W36
 BYTE   N18  Cs3  v112
 BYTE   W24
 BYTE   N10  Dn3  v100
 BYTE   W12
 BYTE   N17  En3  v116
 BYTE   W24
// 019   ----------------------------------------
 BYTE   GoTo
  POIN2 Label_4_010C328F
 BYTE   FINE

//**************** Track 6 (Midi-Chn.5) ****************//

FE06JoinUsTristanHollow_006:
// 000   ----------------------------------------
 BYTE   KEYSH   FE06JoinUsTristanHollow_key+0
 BYTE   VOICE   121
 BYTE   VOL   38*FE06JoinUsTristanHollow_mvl/mxv
 BYTE   PAN   c_v+10
 BYTE   N23  Cs2  v127
 BYTE   W24
 BYTE   N19  Fs1  v088
 BYTE   W24
 BYTE   Fs1  v064
 BYTE   W24
 BYTE   Fs1  v080
 BYTE   W24
// 001   ----------------------------------------
 BYTE   Fs1  v084
 BYTE   W24
 BYTE   Fs1  v088
 BYTE   W24
 BYTE   Fs1  v092
 BYTE   W48
// 002   ----------------------------------------
 BYTE   N48  Cs2
 BYTE   W72
 BYTE   N44
 BYTE   W24
// 003   ----------------------------------------
 BYTE   W96
// 004   ----------------------------------------
Label_5_010C3389:
 BYTE   N19  Fs1  v084
 BYTE   W24
 BYTE   N19
 BYTE   W24
 BYTE   N20  Fs1  v088
 BYTE   W24
 BYTE   Fs1  v084
 BYTE   W24
// 005   ----------------------------------------
 BYTE   Fs1  v080
 BYTE   W24
 BYTE   Fs1  v084
 BYTE   W24
 BYTE   N19
 BYTE   W24
 BYTE   N11  Fs1  v088
 BYTE   W12
 BYTE   An1  v084
 BYTE   W12
// 006   ----------------------------------------
 BYTE   N20  Fs1  v088
 BYTE   W24
 BYTE   Fs1  v084
 BYTE   W24
 BYTE   Fs1  v092
 BYTE   W24
 BYTE   N17  Fs1  v088
 BYTE   W18
 BYTE   N05  Fs1  v108
 BYTE   W06
// 007   ----------------------------------------
 BYTE   N20  Fs1  v088
 BYTE   W24
 BYTE   Fs1  v092
 BYTE   W24
 BYTE   N11  Fs1  v088
 BYTE   N11  An1  v072
 BYTE   W12
 BYTE   An1  v100
 BYTE   W12
 BYTE   N19  Fn1  v104
 BYTE   N19  Fs1  v092
 BYTE   W24
// 008   ----------------------------------------
 BYTE   W72
 BYTE   N44  Cs2  v127
 BYTE   W24
// 009   ----------------------------------------
 BYTE   W24
 BYTE   N20  Fs1  v084
 BYTE   W24
 BYTE   N18  Fs1  v060
 BYTE   W24
 BYTE   N20  Fs1  v080
 BYTE   W24
// 010   ----------------------------------------
 BYTE   N20
 BYTE   W24
 BYTE   Fs1  v084
 BYTE   W24
 BYTE   N19  Fs1  v080
 BYTE   W24
 BYTE   N19
 BYTE   W24
// 011   ----------------------------------------
 BYTE   Fs1  v088
 BYTE   W24
 BYTE   N20  Fs1  v092
 BYTE   W24
 BYTE   N19  Fs1  v084
 BYTE   W24
 BYTE   N20  Fs1  v088
 BYTE   W24
// 012   ----------------------------------------
 BYTE   N19  Fs1  v084
 BYTE   W24
 BYTE   N20
 BYTE   W24
 BYTE   N19
 BYTE   W24
 BYTE   N20  Fs1  v088
 BYTE   W24
// 013   ----------------------------------------
 BYTE   N18  Fs1  v080
 BYTE   W24
 BYTE   N20  Fs1  v088
 BYTE   W24
 BYTE   Fs1  v084
 BYTE   W24
 BYTE   N20
 BYTE   W24
// 014   ----------------------------------------
 BYTE   N20
 BYTE   W24
 BYTE   Fs1  v080
 BYTE   W24
 BYTE   Fs1  v076
 BYTE   W24
 BYTE   N11  Fs1  v060
 BYTE   W12
 BYTE   An1  v072
 BYTE   W12
// 015   ----------------------------------------
 BYTE   N20  Fs1  v068
 BYTE   W24
 BYTE   N17  An1  v084
 BYTE   W24
 BYTE   N21  Fs1  v088
 BYTE   W24
 BYTE   N20  Fs1  v080
 BYTE   W24
// 016   ----------------------------------------
 BYTE   N18  Fs1  v060
 BYTE   W24
 BYTE   N17  Fs1  v048
 BYTE   W24
 BYTE   N11  Fs1  v068
 BYTE   W12
 BYTE   Fs1  v052
 BYTE   W12
 BYTE   Fs1  v080
 BYTE   W12
 BYTE   An1  v060
 BYTE   W12
// 017   ----------------------------------------
 BYTE   N20  Fs1  v068
 BYTE   W24
 BYTE   N11  Fs1  v056
 BYTE   W12
 BYTE   Fs1  v072
 BYTE   W12
 BYTE   Fs1  v076
 BYTE   W12
 BYTE   Fs1  v068
 BYTE   W12
 BYTE   N21  Fs1  v080
 BYTE   W24
// 018   ----------------------------------------
 BYTE   N20
 BYTE   W24
 BYTE   N11  Fs1  v084
 BYTE   W12
 BYTE   Fs1  v068
 BYTE   W12
 BYTE   Fs1  v096
 BYTE   N11  Cs2  v068
 BYTE   W12
 BYTE   Cn2  v124
 BYTE   W12
 BYTE   An1  v116
 BYTE   W12
 BYTE   Fn1
 BYTE   W12
// 019   ----------------------------------------
 BYTE   GoTo
  POIN2 Label_5_010C3389
 BYTE   FINE

//**************** Track 7 (Midi-Chn.6) ****************//

FE06JoinUsTristanHollow_007:
// 000   ----------------------------------------
 BYTE   KEYSH   FE06JoinUsTristanHollow_key+0
 BYTE   VOICE   121
 BYTE   VOL   61*FE06JoinUsTristanHollow_mvl/mxv
 BYTE   PAN   c_v-11
 BYTE   N23  Cn1  v127
 BYTE   W24
 BYTE   N24  Dn1
 BYTE   W36
 BYTE   Dn1  v116
 BYTE   W36
// 001   ----------------------------------------
 BYTE   Dn1  v127
 BYTE   W36
 BYTE   N24
 BYTE   W36
 BYTE   N23  Cn2
 BYTE   W24
// 002   ----------------------------------------
 BYTE   Cn1
 BYTE   W24
 BYTE   N11  Fn1
 BYTE   W12
 BYTE   N23  Fn1  v124
 BYTE   W36
 BYTE   Cn1  v127
 BYTE   W24
// 003   ----------------------------------------
 BYTE   W24
 BYTE   N11  Fn1  v124
 BYTE   W12
 BYTE   Fn1  v127
 BYTE   W12
 BYTE   Cn1  v124
 BYTE   W12
 BYTE   An1  v127
 BYTE   W12
 BYTE   N23  Fn1  v124
 BYTE   W24
// 004   ----------------------------------------
Label_6_010C34B4:
 BYTE   W96
// 005   ----------------------------------------
 BYTE   W96
// 006   ----------------------------------------
 BYTE   W96
// 007   ----------------------------------------
 BYTE   W72
 BYTE   N24  Fn1  v104
 BYTE   W24
// 008   ----------------------------------------
 BYTE   W96
// 009   ----------------------------------------
 BYTE   N23  Cn1  v127
 BYTE   W24
 BYTE   Dn1
 BYTE   W24
 BYTE   Cn1  v108
 BYTE   W24
 BYTE   Dn1  v127
 BYTE   W24
// 010   ----------------------------------------
 BYTE   Cn1  v108
 BYTE   W24
 BYTE   N24  Dn1  v127
 BYTE   W36
 BYTE   N11  Cn1  v108
 BYTE   W12
 BYTE   N23  Dn1  v120
 BYTE   W24
// 011   ----------------------------------------
 BYTE   Cn1
 BYTE   W24
 BYTE   Dn1  v127
 BYTE   W24
 BYTE   Cn1  v108
 BYTE   W24
 BYTE   Dn1  v127
 BYTE   W24
// 012   ----------------------------------------
 BYTE   Cn1  v112
 BYTE   W24
 BYTE   N24  Dn1  v127
 BYTE   W36
 BYTE   N11  Cn1  v108
 BYTE   W12
 BYTE   N23  Dn1  v116
 BYTE   W24
// 013   ----------------------------------------
 BYTE   Cn1  v112
 BYTE   W24
 BYTE   N24  Dn1  v116
 BYTE   W36
 BYTE   N11  Cn1  v100
 BYTE   W12
 BYTE   N24  Dn1  v116
 BYTE   W24
// 014   ----------------------------------------
 BYTE   W12
 BYTE   N11  Cn1  v108
 BYTE   W12
 BYTE   N24  Dn1  v124
 BYTE   W36
 BYTE   N11  Cn1  v108
 BYTE   W12
 BYTE   Dn1  v127
 BYTE   W12
 BYTE   Dn1  v124
 BYTE   W12
// 015   ----------------------------------------
 BYTE   N23  Cn1  v116
 BYTE   W24
 BYTE   Dn1  v127
 BYTE   W24
 BYTE   Cn1  v104
 BYTE   W24
 BYTE   Dn1  v127
 BYTE   W24
// 016   ----------------------------------------
 BYTE   Cn1  v096
 BYTE   W24
 BYTE   N24  Dn1  v120
 BYTE   W36
 BYTE   N11  Cn1  v100
 BYTE   W12
 BYTE   N23  Dn1  v124
 BYTE   W24
// 017   ----------------------------------------
 BYTE   Cn1  v116
 BYTE   W24
 BYTE   Dn1  v127
 BYTE   W24
 BYTE   Cn1  v088
 BYTE   W24
 BYTE   Dn1  v127
 BYTE   W24
// 018   ----------------------------------------
 BYTE   Cn1  v092
 BYTE   W24
 BYTE   N24  Dn1  v127
 BYTE   W72
// 019   ----------------------------------------
 BYTE   GoTo
  POIN2 Label_6_010C34B4
 BYTE   FINE

//******************************************************//
	ALIGN 4

FE06JoinUsTristanHollow:
	BYTE	7	// NumTrks
	BYTE	0	// NumBlks
	BYTE	FE06JoinUsTristanHollow_pri	// Priority
	BYTE	FE06JoinUsTristanHollow_rev	// Reverb.
    
	POIN2	FE06JoinUsTristanHollow_grp
    
	POIN2	FE06JoinUsTristanHollow_001
	POIN2	FE06JoinUsTristanHollow_002
	POIN2	FE06JoinUsTristanHollow_003
	POIN2	FE06JoinUsTristanHollow_004
	POIN2	FE06JoinUsTristanHollow_005
	POIN2	FE06JoinUsTristanHollow_006
	POIN2	FE06JoinUsTristanHollow_007

	
