//Event file generated from Sappy .s format.
	#include "MPlayDef.event"

	#define	FE06NatureRSflame_grp  voicegroup000
	#define	FE06NatureRSflame_pri  0
	#define	FE06NatureRSflame_rev  0
	#define	FE06NatureRSflame_mvl  127
	#define	FE06NatureRSflame_key  0
	#define	FE06NatureRSflame_tbs  1
	#define	FE06NatureRSflame_exg  0
	#define	FE06NatureRSflame_cmp  1

	// .rodata
	//	FE06NatureRSflame
	ALIGN 4


//**************** Track 1 (Midi-Chn.0) ****************//

FE06NatureRSflame_001:
// 000   ----------------------------------------
 BYTE   KEYSH   FE06NatureRSflame_key+0
 BYTE   TEMPO   112*FE06NatureRSflame_tbs/2
 BYTE   VOICE   63
 BYTE   VOL   46*FE06NatureRSflame_mvl/mxv
 BYTE   PAN   c_v+0
 BYTE   N03  Dn1  v100
 BYTE   W04
 BYTE   An1  v096
 BYTE   W04
 BYTE   En2
 BYTE   W04
 BYTE   Fn2
 BYTE   W04
 BYTE   An2
 BYTE   W04
 BYTE   Cn3
 BYTE   W04
 BYTE   Dn1  v100
 BYTE   W04
 BYTE   An1  v096
 BYTE   W04
 BYTE   En2
 BYTE   W04
 BYTE   Fn2
 BYTE   W04
 BYTE   An2
 BYTE   W04
 BYTE   Cn3
 BYTE   W04
 BYTE   Dn1  v100
 BYTE   W04
 BYTE   An1  v096
 BYTE   W04
 BYTE   En2
 BYTE   W04
 BYTE   Fn2
 BYTE   W04
 BYTE   An2
 BYTE   W04
 BYTE   Cn3
 BYTE   W04
 BYTE   Dn1  v100
 BYTE   W04
 BYTE   An1  v096
 BYTE   W04
 BYTE   En2
 BYTE   W04
 BYTE   Fn2
 BYTE   W04
 BYTE   An2
 BYTE   W04
 BYTE   Cn3
 BYTE   W04
// 001   ----------------------------------------
Label_0_01022BE7:
 BYTE   N03  Dn1  v100
 BYTE   W04
 BYTE   An1  v096
 BYTE   W04
 BYTE   En2
 BYTE   W04
 BYTE   Fn2
 BYTE   W04
 BYTE   An2
 BYTE   W04
 BYTE   Bn2
 BYTE   W04
 BYTE   Dn1  v100
 BYTE   W04
 BYTE   An1  v096
 BYTE   W04
 BYTE   En2
 BYTE   W04
 BYTE   Fn2
 BYTE   W04
 BYTE   An2
 BYTE   W04
 BYTE   Bn2
 BYTE   W04
 BYTE   Dn1  v100
 BYTE   W04
 BYTE   An1  v096
 BYTE   W04
 BYTE   En2
 BYTE   W04
 BYTE   Fn2
 BYTE   W04
 BYTE   An2
 BYTE   W04
 BYTE   Bn2
 BYTE   W04
 BYTE   Dn1  v100
 BYTE   W04
 BYTE   An1  v096
 BYTE   W04
 BYTE   En2
 BYTE   W04
 BYTE   Fn2
 BYTE   W04
 BYTE   An2
 BYTE   W04
 BYTE   Bn2
 BYTE   W04
 BYTE   PEND 
// 002   ----------------------------------------
Label_0_01022C21:
 BYTE   N03  Dn1  v100
 BYTE   W04
 BYTE   An1  v096
 BYTE   W04
 BYTE   En2
 BYTE   W04
 BYTE   Fn2
 BYTE   W04
 BYTE   An2
 BYTE   W04
 BYTE   Cn3
 BYTE   W04
 BYTE   Dn1  v100
 BYTE   W04
 BYTE   An1  v096
 BYTE   W04
 BYTE   En2
 BYTE   W04
 BYTE   Fn2
 BYTE   W04
 BYTE   An2
 BYTE   W04
 BYTE   Cn3
 BYTE   W04
 BYTE   Dn1  v100
 BYTE   W04
 BYTE   An1  v096
 BYTE   W04
 BYTE   En2
 BYTE   W04
 BYTE   Fn2
 BYTE   W04
 BYTE   An2
 BYTE   W04
 BYTE   Cn3
 BYTE   W04
 BYTE   Dn1  v100
 BYTE   W04
 BYTE   An1  v096
 BYTE   W04
 BYTE   En2
 BYTE   W04
 BYTE   Fn2
 BYTE   W04
 BYTE   An2
 BYTE   W04
 BYTE   Cn3
 BYTE   W04
 BYTE   PEND 
// 003   ----------------------------------------
 BYTE   PATT
  POIN2 Label_0_01022BE7
// 004   ----------------------------------------
 BYTE   PATT
  POIN2 Label_0_01022C21
// 005   ----------------------------------------
 BYTE   PATT
  POIN2 Label_0_01022BE7
// 006   ----------------------------------------
 BYTE   PATT
  POIN2 Label_0_01022C21
// 007   ----------------------------------------
 BYTE   PATT
  POIN2 Label_0_01022BE7
// 008   ----------------------------------------
Label_0_01022C74:
 BYTE   VOL   42*FE06NatureRSflame_mvl/mxv
 BYTE   PAN   c_v+6
 BYTE   N23  An2  v096
 BYTE   N23  Dn3
 BYTE   W24
 BYTE   N44  Gn2
 BYTE   N40  Cn3
 BYTE   W48
 BYTE   N23  Ds2
 BYTE   N23  Gn2
 BYTE   W24
// 009   ----------------------------------------
 BYTE   N80
 BYTE   N90  Cn3
 BYTE   W96
// 010   ----------------------------------------
 BYTE   N19  An2
 BYTE   N19  Dn3
 BYTE   W24
 BYTE   N40  Gn2
 BYTE   N40  Cn3
 BYTE   W48
 BYTE   N19
 BYTE   N19  Fn3
 BYTE   W24
// 011   ----------------------------------------
 BYTE   N68  Gn2
 BYTE   N68  Cn3
 BYTE   W72
 BYTE   N23  Fn2
 BYTE   N23  An2
 BYTE   W24
// 012   ----------------------------------------
 BYTE   N68  Gn2
 BYTE   N68  Cn3
 BYTE   W72
 BYTE   N23  Fn2
 BYTE   N23  As2
 BYTE   W24
// 013   ----------------------------------------
 BYTE   N68  Gn2
 BYTE   N68  Cn3
 BYTE   W72
 BYTE   N19  An2
 BYTE   N23  Dn3
 BYTE   W24
// 014   ----------------------------------------
 BYTE   N44  Dn2
 BYTE   N44  An2
 BYTE   W48
 BYTE   Fn2
 BYTE   N44  As2
 BYTE   W48
// 015   ----------------------------------------
 BYTE   Gn2
 BYTE   N44  Cn3
 BYTE   W48
 BYTE   N40  An2
 BYTE   N36  Dn3
 BYTE   W48
// 016   ----------------------------------------
 BYTE   N23  An2
 BYTE   N23  Dn3
 BYTE   W24
 BYTE   N36  Gn2
 BYTE   N40  Cn3
 BYTE   W48
 BYTE   N23  Dn2
 BYTE   N20  Gn2
 BYTE   W24
// 017   ----------------------------------------
 BYTE   N92
 BYTE   N92  Cn3
 BYTE   W96
// 018   ----------------------------------------
 BYTE   N23  An2
 BYTE   N23  Dn3
 BYTE   W24
 BYTE   N32  Gn2
 BYTE   N36  Cn3
 BYTE   W48
 BYTE   N23
 BYTE   N23  Fn3
 BYTE   W24
// 019   ----------------------------------------
 BYTE   N44  An2
 BYTE   N44  Dn3
 BYTE   W48
 BYTE   N42  Gn2
 BYTE   N40  Cn3
 BYTE   W48
// 020   ----------------------------------------
 BYTE   N23  Gn2
 BYTE   N23  Cn3
 BYTE   W24
 BYTE   N68  Fn2
 BYTE   N68  As2
 BYTE   W72
// 021   ----------------------------------------
 BYTE   N42  En2
 BYTE   N44  An2
 BYTE   W48
 BYTE   Dn2
 BYTE   N44  Fn2
 BYTE   W48
// 022   ----------------------------------------
 BYTE   Gn2
 BYTE   N44  Cn3
 BYTE   W48
 BYTE   Fn2
 BYTE   N44  As2
 BYTE   W48
// 023   ----------------------------------------
 BYTE   Gn2
 BYTE   N44  Cn3
 BYTE   W48
 BYTE   N40  An2
 BYTE   N40  Dn3
 BYTE   W48
// 024   ----------------------------------------
 BYTE   N23  An2
 BYTE   N19  Dn3
 BYTE   W24
 BYTE   N64
 BYTE   N64  Gn3
 BYTE   W72
// 025   ----------------------------------------
 BYTE   N23  Dn3
 BYTE   N21  Gn3
 BYTE   W24
 BYTE   N60
 BYTE   N60  Cn4
 BYTE   W72
// 026   ----------------------------------------
 BYTE   N23  Gn3
 BYTE   N23  Cn4
 BYTE   W24
 BYTE   N66  En3
 BYTE   N66  An3
 BYTE   W72
// 027   ----------------------------------------
 BYTE   N23  En3
 BYTE   N23  An3
 BYTE   W24
 BYTE   N42  Cn3
 BYTE   N42  Fn3
 BYTE   W48
 BYTE   N23  An2
 BYTE   N19  Dn3
 BYTE   W24
// 028   ----------------------------------------
 BYTE   N92
 BYTE   N92  Gn3
 BYTE   W72
 BYTE   VOL   18*FE06NatureRSflame_mvl/mxv
 BYTE   PAN   c_v-14
 BYTE   W24
// 029   ----------------------------------------
 BYTE   N07  Gn2  v108
 BYTE   W08
 BYTE   An3  v096
 BYTE   W08
 BYTE   Dn4
 BYTE   W08
 BYTE   Gn2  v108
 BYTE   W08
 BYTE   An3  v096
 BYTE   W08
 BYTE   Dn4
 BYTE   W08
 BYTE   Gn2  v108
 BYTE   W08
 BYTE   An3  v096
 BYTE   W08
 BYTE   Dn4
 BYTE   W08
 BYTE   Gn2  v108
 BYTE   W08
 BYTE   An3  v096
 BYTE   W08
 BYTE   Dn4
 BYTE   W08
// 030   ----------------------------------------
Label_0_01022D6E:
 BYTE   N07  Dn2  v108
 BYTE   W08
 BYTE   En3  v096
 BYTE   W08
 BYTE   An3
 BYTE   W08
 BYTE   Dn2  v108
 BYTE   W08
 BYTE   En3  v096
 BYTE   W08
 BYTE   An3
 BYTE   W08
 BYTE   Dn2  v108
 BYTE   W08
 BYTE   En3  v096
 BYTE   W08
 BYTE   An3
 BYTE   W08
 BYTE   Dn2  v108
 BYTE   W08
 BYTE   En3  v096
 BYTE   W08
 BYTE   An3
 BYTE   W08
 BYTE   PEND 
// 031   ----------------------------------------
 BYTE   PATT
  POIN2 Label_0_01022D6E
// 032   ----------------------------------------
 BYTE   PATT
  POIN2 Label_0_01022D6E
// 033   ----------------------------------------
 BYTE   PATT
  POIN2 Label_0_01022D6E
// 034   ----------------------------------------
 BYTE   PATT
  POIN2 Label_0_01022D6E
// 035   ----------------------------------------
 BYTE   PATT
  POIN2 Label_0_01022D6E
// 036   ----------------------------------------
 BYTE   PATT
  POIN2 Label_0_01022D6E
// 037   ----------------------------------------
 BYTE   PATT
  POIN2 Label_0_01022D6E
// 038   ----------------------------------------
 BYTE   PATT
  POIN2 Label_0_01022D6E
// 039   ----------------------------------------
 BYTE   N07  Dn2  v108
 BYTE   W08
 BYTE   En3  v096
 BYTE   W08
 BYTE   An3
 BYTE   W08
 BYTE   Dn2  v108
 BYTE   W08
 BYTE   En3  v096
 BYTE   W08
 BYTE   An3
 BYTE   W08
 BYTE   GoTo
  POIN2 Label_0_01022C74
// 040   ----------------------------------------
 BYTE   N07  Dn2  v108
 BYTE   W08
 BYTE   En3  v096
 BYTE   W08
 BYTE   An3
 BYTE   W08
 BYTE   Dn2  v108
 BYTE   W08
 BYTE   En3  v096
 BYTE   W08
 BYTE   An3
 BYTE   W07
 BYTE   FINE

//**************** Track 2 (Midi-Chn.1) ****************//

FE06NatureRSflame_002:
// 000   ----------------------------------------
 BYTE   KEYSH   FE06NatureRSflame_key+0
 BYTE   VOICE   1
 BYTE   VOL   29*FE06NatureRSflame_mvl/mxv
 BYTE   W96
// 001   ----------------------------------------
 BYTE   W96
// 002   ----------------------------------------
 BYTE   W96
// 003   ----------------------------------------
 BYTE   W96
// 004   ----------------------------------------
 BYTE   W96
// 005   ----------------------------------------
 BYTE   W96
// 006   ----------------------------------------
 BYTE   W96
// 007   ----------------------------------------
 BYTE   W96
// 008   ----------------------------------------
Label_1_010220B6:
 BYTE   PAN   c_v+6
 BYTE   W06
 BYTE   N23  Dn3  v096
 BYTE   W24
 BYTE   N40  Cn3
 BYTE   W48
 BYTE   N23  Gn2
 BYTE   W18
// 009   ----------------------------------------
 BYTE   W06
 BYTE   N90  Cn3
 BYTE   W90
// 010   ----------------------------------------
 BYTE   W06
 BYTE   N19  Dn3
 BYTE   W24
 BYTE   N40  Cn3
 BYTE   W48
 BYTE   N19  Fn3
 BYTE   W18
// 011   ----------------------------------------
 BYTE   W06
 BYTE   N68  Cn3
 BYTE   W72
 BYTE   N23  An2
 BYTE   W18
// 012   ----------------------------------------
 BYTE   W06
 BYTE   N68  Cn3
 BYTE   W72
 BYTE   N23  As2
 BYTE   W18
// 013   ----------------------------------------
 BYTE   W06
 BYTE   N68  Cn3
 BYTE   W72
 BYTE   N23  Dn3
 BYTE   W18
// 014   ----------------------------------------
 BYTE   W06
 BYTE   N44  An2
 BYTE   W48
 BYTE   As2
 BYTE   W42
// 015   ----------------------------------------
 BYTE   W06
 BYTE   Cn3
 BYTE   W48
 BYTE   N36  Dn3
 BYTE   W42
// 016   ----------------------------------------
 BYTE   W06
 BYTE   N23
 BYTE   W24
 BYTE   N40  Cn3
 BYTE   W48
 BYTE   N20  Gn2
 BYTE   W18
// 017   ----------------------------------------
 BYTE   W06
 BYTE   N92  Cn3
 BYTE   W90
// 018   ----------------------------------------
 BYTE   W06
 BYTE   N23  Dn3
 BYTE   W24
 BYTE   N36  Cn3
 BYTE   W48
 BYTE   N23  Fn3
 BYTE   W18
// 019   ----------------------------------------
 BYTE   W06
 BYTE   N44  Dn3
 BYTE   W48
 BYTE   N40  Cn3
 BYTE   W42
// 020   ----------------------------------------
 BYTE   W06
 BYTE   N23
 BYTE   W24
 BYTE   N68  As2
 BYTE   W66
// 021   ----------------------------------------
 BYTE   W06
 BYTE   N44  An2
 BYTE   W48
 BYTE   Fn2
 BYTE   W42
// 022   ----------------------------------------
 BYTE   W06
 BYTE   Cn3
 BYTE   W48
 BYTE   As2
 BYTE   W42
// 023   ----------------------------------------
 BYTE   W06
 BYTE   Cn3
 BYTE   W48
 BYTE   N40  Dn3
 BYTE   W42
// 024   ----------------------------------------
 BYTE   W06
 BYTE   N19
 BYTE   W24
 BYTE   N64  Gn3
 BYTE   W66
// 025   ----------------------------------------
 BYTE   W06
 BYTE   N21
 BYTE   W24
 BYTE   N60  Cn4
 BYTE   W66
// 026   ----------------------------------------
 BYTE   W06
 BYTE   N23
 BYTE   W24
 BYTE   N66  An3
 BYTE   W66
// 027   ----------------------------------------
 BYTE   W06
 BYTE   N23
 BYTE   W24
 BYTE   N42  Fn3
 BYTE   W48
 BYTE   N19  Dn3
 BYTE   W18
// 028   ----------------------------------------
 BYTE   W06
 BYTE   N88  Gn3
 BYTE   W66
 BYTE   PAN   c_v-14
 BYTE   W24
// 029   ----------------------------------------
 BYTE   W04
 BYTE   N07  Dn3
 BYTE   W08
 BYTE   As3
 BYTE   W08
 BYTE   En4
 BYTE   W08
 BYTE   Dn3
 BYTE   W08
 BYTE   As3
 BYTE   W08
 BYTE   En4
 BYTE   W08
 BYTE   Dn3
 BYTE   W08
 BYTE   As3
 BYTE   W08
 BYTE   En4
 BYTE   W08
 BYTE   Dn3
 BYTE   W08
 BYTE   As3
 BYTE   W08
 BYTE   En4
 BYTE   W04
// 030   ----------------------------------------
Label_1_01022163:
 BYTE   W04
 BYTE   N07  An2  v096
 BYTE   W08
 BYTE   Fn3
 BYTE   W08
 BYTE   Cn4
 BYTE   W08
 BYTE   An2
 BYTE   W08
 BYTE   Fn3
 BYTE   W08
 BYTE   Cn4
 BYTE   W08
 BYTE   An2
 BYTE   W08
 BYTE   Fn3
 BYTE   W08
 BYTE   Cn4
 BYTE   W08
 BYTE   An2
 BYTE   W08
 BYTE   Fn3
 BYTE   W08
 BYTE   Cn4
 BYTE   W04
 BYTE   PEND 
// 031   ----------------------------------------
Label_1_0102217F:
 BYTE   W04
 BYTE   N07  An2  v096
 BYTE   W08
 BYTE   Fn3
 BYTE   W08
 BYTE   Bn3
 BYTE   W08
 BYTE   An2
 BYTE   W08
 BYTE   Fn3
 BYTE   W08
 BYTE   Bn3
 BYTE   W08
 BYTE   An2
 BYTE   W08
 BYTE   Fn3
 BYTE   W08
 BYTE   Bn3
 BYTE   W08
 BYTE   An2
 BYTE   W08
 BYTE   Fn3
 BYTE   W08
 BYTE   Bn3
 BYTE   W04
 BYTE   PEND 
// 032   ----------------------------------------
 BYTE   PATT
  POIN2 Label_1_01022163
// 033   ----------------------------------------
 BYTE   PATT
  POIN2 Label_1_0102217F
// 034   ----------------------------------------
 BYTE   PATT
  POIN2 Label_1_01022163
// 035   ----------------------------------------
Label_1_010221AA:
 BYTE   W04
 BYTE   N03  An2  v096
 BYTE   W08
 BYTE   N07  Fn3
 BYTE   W08
 BYTE   Bn3
 BYTE   W08
 BYTE   N03  An2
 BYTE   W08
 BYTE   N07  Fn3
 BYTE   W08
 BYTE   Bn3
 BYTE   W08
 BYTE   N03  An2
 BYTE   W08
 BYTE   N07  Fn3
 BYTE   W08
 BYTE   Bn3
 BYTE   W08
 BYTE   N03  An2
 BYTE   W08
 BYTE   N07  Fn3
 BYTE   W08
 BYTE   Bn3
 BYTE   W04
 BYTE   PEND 
// 036   ----------------------------------------
Label_1_010221CD:
 BYTE   W04
 BYTE   N03  An2  v096
 BYTE   W08
 BYTE   N07  Fn3
 BYTE   W08
 BYTE   Cn4
 BYTE   W08
 BYTE   N03  An2
 BYTE   W08
 BYTE   N07  Fn3
 BYTE   W08
 BYTE   Cn4
 BYTE   W08
 BYTE   N03  An2
 BYTE   W08
 BYTE   N07  Fn3
 BYTE   W08
 BYTE   Cn4
 BYTE   W08
 BYTE   N03  An2
 BYTE   W08
 BYTE   N07  Fn3
 BYTE   W08
 BYTE   Cn4
 BYTE   W04
 BYTE   PEND 
// 037   ----------------------------------------
 BYTE   PATT
  POIN2 Label_1_010221AA
// 038   ----------------------------------------
 BYTE   PATT
  POIN2 Label_1_010221CD
// 039   ----------------------------------------
 BYTE   W04
 BYTE   N03  An2  v096
 BYTE   W08
 BYTE   N07  Fn3
 BYTE   W08
 BYTE   Bn3
 BYTE   W08
 BYTE   N03  An2
 BYTE   W08
 BYTE   N07  Fn3
 BYTE   W08
 BYTE   Bn3
 BYTE   W04
 BYTE   GoTo
  POIN2 Label_1_010220B6
// 040   ----------------------------------------
 BYTE   W04
 BYTE   N03  An2  v096
 BYTE   W08
 BYTE   N07  Fn3
 BYTE   W08
 BYTE   Bn3
 BYTE   W08
 BYTE   N03  An2
 BYTE   W08
 BYTE   N07  Fn3
 BYTE   W08
 BYTE   N03  Bn3
 BYTE   W03
 BYTE   FINE

//**************** Track 3 (Midi-Chn.2) ****************//

FE06NatureRSflame_003:
// 000   ----------------------------------------
 BYTE   KEYSH   FE06NatureRSflame_key+0
 BYTE   VOICE   40
 BYTE   VOL   32*FE06NatureRSflame_mvl/mxv
 BYTE   PAN   c_v+0
 BYTE   N68  Bn2  v100
 BYTE   N68  Bn3
 BYTE   W72
 BYTE   N23  En2
 BYTE   N23  En3
 BYTE   W24
// 001   ----------------------------------------
 BYTE   N92  An2
 BYTE   N92  An3
 BYTE   W96
// 002   ----------------------------------------
Label_2_01023034:
 BYTE   N44  Bn2  v100
 BYTE   N44  Bn3
 BYTE   W48
 BYTE   Cn3
 BYTE   N44  Cn4
 BYTE   W48
 BYTE   PEND 
// 003   ----------------------------------------
 BYTE   N92  Dn3
 BYTE   N92  Dn4
 BYTE   W96
// 004   ----------------------------------------
 BYTE   An2
 BYTE   N92  An3
 BYTE   W96
// 005   ----------------------------------------
 BYTE   Bn2
 BYTE   N92  Bn3
 BYTE   W96
// 006   ----------------------------------------
Label_2_0102304C:
 BYTE   TIE  En2  v100
 BYTE   TIE  En3
 BYTE   W96
 BYTE   PEND 
// 007   ----------------------------------------
 BYTE   W44
 BYTE   W03
 BYTE   EOT
 BYTE   En2  v064
 BYTE   W01
 BYTE   N44  Dn2
 BYTE   N44  Dn3
 BYTE   W48
// 008   ----------------------------------------
Label_2_0102305E:
 BYTE   PAN   c_v-13
 BYTE   W12
 BYTE   N11  As2  v096
 BYTE   W12
 BYTE   As2  v016
 BYTE   W12
 BYTE   As2  v096
 BYTE   W12
 BYTE   As2  v016
 BYTE   W12
 BYTE   As2  v096
 BYTE   W12
 BYTE   As2  v020
 BYTE   W12
 BYTE   As2  v096
 BYTE   W12
// 009   ----------------------------------------
 BYTE   As2  v016
 BYTE   W12
 BYTE   As2  v088
 BYTE   W12
 BYTE   As2  v012
 BYTE   W12
 BYTE   As2  v088
 BYTE   W12
 BYTE   As2  v012
 BYTE   W12
 BYTE   As2  v100
 BYTE   W12
 BYTE   As2  v024
 BYTE   W12
 BYTE   As2  v100
 BYTE   W12
// 010   ----------------------------------------
 BYTE   As2  v020
 BYTE   W12
 BYTE   As2  v100
 BYTE   W12
 BYTE   As2  v020
 BYTE   W12
 BYTE   As2  v096
 BYTE   W12
 BYTE   As2  v016
 BYTE   W12
 BYTE   As2  v096
 BYTE   W12
 BYTE   As2  v016
 BYTE   W12
 BYTE   As2  v100
 BYTE   W12
// 011   ----------------------------------------
 BYTE   As2  v024
 BYTE   W12
 BYTE   As2  v092
 BYTE   W12
 BYTE   As2  v012
 BYTE   W12
 BYTE   As2  v096
 BYTE   W12
 BYTE   As2  v016
 BYTE   W12
 BYTE   As2  v096
 BYTE   W12
 BYTE   As2  v016
 BYTE   W12
 BYTE   As2  v092
 BYTE   W12
// 012   ----------------------------------------
 BYTE   As2  v016
 BYTE   W12
 BYTE   An2  v096
 BYTE   W12
 BYTE   An2  v020
 BYTE   W12
 BYTE   An2  v108
 BYTE   W12
 BYTE   An2  v028
 BYTE   W12
 BYTE   An2  v112
 BYTE   W12
 BYTE   An2  v032
 BYTE   W12
 BYTE   An2  v104
 BYTE   W12
// 013   ----------------------------------------
 BYTE   An2  v024
 BYTE   W12
 BYTE   An2  v096
 BYTE   W12
 BYTE   An2  v020
 BYTE   W12
 BYTE   An2  v104
 BYTE   W12
 BYTE   An2  v024
 BYTE   W12
 BYTE   An2  v104
 BYTE   W12
 BYTE   An2  v024
 BYTE   W12
 BYTE   An2  v108
 BYTE   W12
// 014   ----------------------------------------
 BYTE   An2  v028
 BYTE   W12
 BYTE   An2  v096
 BYTE   W12
 BYTE   An2  v020
 BYTE   W12
 BYTE   An2  v100
 BYTE   W12
 BYTE   An2  v020
 BYTE   W12
 BYTE   An2  v108
 BYTE   W12
 BYTE   An2  v032
 BYTE   W12
 BYTE   An2  v108
 BYTE   W12
// 015   ----------------------------------------
 BYTE   An2  v028
 BYTE   W12
 BYTE   An2  v112
 BYTE   W12
 BYTE   An2  v032
 BYTE   W12
 BYTE   An2  v100
 BYTE   W12
 BYTE   An2  v020
 BYTE   W12
 BYTE   An2  v092
 BYTE   W12
 BYTE   An2  v012
 BYTE   W12
 BYTE   An2  v100
 BYTE   W12
// 016   ----------------------------------------
 BYTE   An2  v024
 BYTE   W12
 BYTE   As2  v092
 BYTE   W12
 BYTE   As2  v016
 BYTE   W12
 BYTE   As2  v100
 BYTE   W12
 BYTE   As2  v020
 BYTE   W12
 BYTE   As2  v100
 BYTE   W12
 BYTE   As2  v024
 BYTE   W12
 BYTE   As2  v100
 BYTE   W12
// 017   ----------------------------------------
 BYTE   As2  v024
 BYTE   W12
 BYTE   As2  v100
 BYTE   W12
 BYTE   As2  v020
 BYTE   W12
 BYTE   As2  v104
 BYTE   W12
 BYTE   As2  v028
 BYTE   W12
 BYTE   As2  v100
 BYTE   W12
 BYTE   As2  v020
 BYTE   W12
 BYTE   As2  v108
 BYTE   W12
// 018   ----------------------------------------
 BYTE   As2  v032
 BYTE   W12
 BYTE   As2  v104
 BYTE   W12
 BYTE   As2  v028
 BYTE   W12
 BYTE   As2  v104
 BYTE   W12
 BYTE   As2  v024
 BYTE   W12
 BYTE   As2  v100
 BYTE   W12
 BYTE   As2  v020
 BYTE   W12
 BYTE   As2  v096
 BYTE   W12
// 019   ----------------------------------------
 BYTE   As2  v016
 BYTE   W12
 BYTE   As2  v108
 BYTE   W12
 BYTE   As2  v028
 BYTE   W12
 BYTE   As2  v112
 BYTE   W12
 BYTE   As2  v032
 BYTE   W12
 BYTE   As2  v104
 BYTE   W12
 BYTE   As2  v024
 BYTE   W12
 BYTE   As2  v096
 BYTE   W12
// 020   ----------------------------------------
 BYTE   As2  v016
 BYTE   W12
 BYTE   An2  v096
 BYTE   W12
 BYTE   An2  v020
 BYTE   W12
 BYTE   An2  v116
 BYTE   W12
 BYTE   An2  v036
 BYTE   W12
 BYTE   An2  v096
 BYTE   W12
 BYTE   An2  v016
 BYTE   W12
 BYTE   An2  v104
 BYTE   W12
// 021   ----------------------------------------
 BYTE   An2  v028
 BYTE   W12
 BYTE   An2  v108
 BYTE   W12
 BYTE   An2  v032
 BYTE   W12
 BYTE   An2  v112
 BYTE   W12
 BYTE   An2  v032
 BYTE   W12
 BYTE   An2  v104
 BYTE   W12
 BYTE   An2  v024
 BYTE   W12
 BYTE   An2  v104
 BYTE   W12
// 022   ----------------------------------------
 BYTE   An2  v028
 BYTE   W12
 BYTE   An2  v104
 BYTE   W12
 BYTE   An2  v028
 BYTE   W12
 BYTE   An2  v104
 BYTE   W12
 BYTE   An2  v028
 BYTE   W12
 BYTE   An2  v108
 BYTE   W12
 BYTE   An2  v032
 BYTE   W12
 BYTE   An2  v112
 BYTE   W12
// 023   ----------------------------------------
 BYTE   An2  v032
 BYTE   W12
 BYTE   An2  v108
 BYTE   W12
 BYTE   An2  v032
 BYTE   W12
 BYTE   An2  v112
 BYTE   W12
 BYTE   An2  v032
 BYTE   W12
 BYTE   An2  v092
 BYTE   W12
 BYTE   An2  v016
 BYTE   W12
 BYTE   An2  v084
 BYTE   W12
// 024   ----------------------------------------
 BYTE   An2  v012
 BYTE   W12
 BYTE   As2  v088
 BYTE   W12
 BYTE   As2  v012
 BYTE   W12
 BYTE   As2  v100
 BYTE   W12
 BYTE   As2  v020
 BYTE   W12
 BYTE   As2  v108
 BYTE   W12
 BYTE   As2  v032
 BYTE   W12
 BYTE   As2  v108
 BYTE   W12
// 025   ----------------------------------------
 BYTE   As2  v032
 BYTE   W12
 BYTE   As2  v104
 BYTE   W12
 BYTE   As2  v024
 BYTE   W12
 BYTE   As2  v104
 BYTE   W12
 BYTE   As2  v028
 BYTE   W12
 BYTE   As2  v108
 BYTE   W12
 BYTE   As2  v028
 BYTE   W12
 BYTE   As2  v076
 BYTE   W12
// 026   ----------------------------------------
 BYTE   As2  v012
 BYTE   W12
 BYTE   Cn3  v096
 BYTE   W12
 BYTE   Cn3  v020
 BYTE   W12
 BYTE   Cn3  v100
 BYTE   W12
 BYTE   Cn3  v020
 BYTE   W12
 BYTE   Cn3  v104
 BYTE   W12
 BYTE   Cn3  v024
 BYTE   W12
 BYTE   Cn3  v116
 BYTE   W12
// 027   ----------------------------------------
 BYTE   Cn3  v036
 BYTE   W12
 BYTE   Cn3  v104
 BYTE   W12
 BYTE   Cn3  v028
 BYTE   W12
 BYTE   Cn3  v108
 BYTE   W12
 BYTE   Cn3  v028
 BYTE   W12
 BYTE   Cn3  v120
 BYTE   W12
 BYTE   Cn3  v040
 BYTE   W12
 BYTE   Cn3  v096
 BYTE   W12
// 028   ----------------------------------------
 BYTE   Cn3  v020
 BYTE   W12
 BYTE   Dn3  v104
 BYTE   W12
 BYTE   Dn3  v024
 BYTE   W12
 BYTE   Dn3  v108
 BYTE   W12
 BYTE   Dn3  v032
 BYTE   W12
 BYTE   Dn3  v112
 BYTE   W12
 BYTE   Dn3  v036
 BYTE   W12
 BYTE   Dn3  v112
 BYTE   W12
// 029   ----------------------------------------
 BYTE   Dn3  v036
 BYTE   W12
 BYTE   Dn3  v116
 BYTE   W12
 BYTE   Dn3  v036
 BYTE   W12
 BYTE   Dn3  v112
 BYTE   W12
 BYTE   Dn3  v036
 BYTE   W12
 BYTE   Dn3  v112
 BYTE   W12
 BYTE   Dn3  v036
 BYTE   W12
 BYTE   N05  Dn3  v108
 BYTE   W06
 BYTE   Dn3  v028
 BYTE   W06
// 030   ----------------------------------------
 BYTE   W96
// 031   ----------------------------------------
 BYTE   W96
// 032   ----------------------------------------
 BYTE   PAN   c_v+0
 BYTE   N68  Bn2  v100
 BYTE   N68  Bn3
 BYTE   W72
 BYTE   N23  En2
 BYTE   N23  En3
 BYTE   W24
// 033   ----------------------------------------
 BYTE   N92  An2
 BYTE   N92  An3
 BYTE   W96
// 034   ----------------------------------------
 BYTE   PATT
  POIN2 Label_2_01023034
// 035   ----------------------------------------
 BYTE   N92  Dn3  v100
 BYTE   N92  Dn4
 BYTE   W96
// 036   ----------------------------------------
 BYTE   An2
 BYTE   N92  An3
 BYTE   W96
// 037   ----------------------------------------
 BYTE   Bn2
 BYTE   N92  Bn3
 BYTE   W96
// 038   ----------------------------------------
 BYTE   PATT
  POIN2 Label_2_0102304C
// 039   ----------------------------------------
 BYTE   W44
 BYTE   W03
 BYTE   EOT
 BYTE   En2  v064
 BYTE   W01
 BYTE   GoTo
  POIN2 Label_2_0102305E
// 040   ----------------------------------------
 BYTE   N44  Dn2  v100
 BYTE   N44  Dn3
 BYTE   W44
 BYTE   W03
 BYTE   FINE

//**************** Track 4 (Midi-Chn.3) ****************//

FE06NatureRSflame_004:
// 000   ----------------------------------------
 BYTE   KEYSH   FE06NatureRSflame_key+0
 BYTE   W96
// 001   ----------------------------------------
 BYTE   W96
// 002   ----------------------------------------
 BYTE   W96
// 003   ----------------------------------------
 BYTE   W96
// 004   ----------------------------------------
 BYTE   W96
// 005   ----------------------------------------
 BYTE   W96
// 006   ----------------------------------------
 BYTE   W96
// 007   ----------------------------------------
 BYTE   W96
// 008   ----------------------------------------
Label_3_010224D2:
 BYTE   VOICE   58
 BYTE   VOL   34*FE06NatureRSflame_mvl/mxv
 BYTE   PAN   c_v-13
 BYTE   W12
 BYTE   N11  Ds3  v084
 BYTE   W12
 BYTE   Ds3  v012
 BYTE   W12
 BYTE   Ds3  v080
 BYTE   W12
 BYTE   Ds3  v012
 BYTE   W12
 BYTE   Ds3  v088
 BYTE   W12
 BYTE   Ds3  v012
 BYTE   W12
 BYTE   Ds3  v084
 BYTE   W12
// 009   ----------------------------------------
 BYTE   Ds3  v012
 BYTE   W12
 BYTE   Ds3  v080
 BYTE   W12
 BYTE   Ds3  v012
 BYTE   W12
 BYTE   Ds3  v088
 BYTE   W12
 BYTE   Ds3  v012
 BYTE   W12
 BYTE   Ds3  v088
 BYTE   W12
 BYTE   Ds3  v012
 BYTE   W12
 BYTE   Ds3  v092
 BYTE   W12
// 010   ----------------------------------------
 BYTE   Ds3  v012
 BYTE   W12
 BYTE   Ds3  v092
 BYTE   W12
 BYTE   Ds3  v012
 BYTE   W12
 BYTE   Ds3  v080
 BYTE   W12
 BYTE   Ds3  v012
 BYTE   W12
 BYTE   Ds3  v092
 BYTE   W12
 BYTE   Ds3  v012
 BYTE   W12
 BYTE   Ds3  v092
 BYTE   W12
// 011   ----------------------------------------
 BYTE   Ds3  v016
 BYTE   W12
 BYTE   Ds3  v088
 BYTE   W12
 BYTE   Ds3  v012
 BYTE   W12
 BYTE   Ds3  v092
 BYTE   W12
 BYTE   Ds3  v012
 BYTE   W12
 BYTE   Ds3  v088
 BYTE   W12
 BYTE   Ds3  v012
 BYTE   W12
 BYTE   Ds3  v088
 BYTE   W12
// 012   ----------------------------------------
 BYTE   Ds3  v012
 BYTE   W12
 BYTE   Dn3  v096
 BYTE   W12
 BYTE   Dn3  v020
 BYTE   W12
 BYTE   Dn3  v112
 BYTE   W12
 BYTE   Dn3  v036
 BYTE   W12
 BYTE   Dn3  v112
 BYTE   W12
 BYTE   Dn3  v036
 BYTE   W12
 BYTE   Dn3  v104
 BYTE   W12
// 013   ----------------------------------------
 BYTE   Dn3  v024
 BYTE   W12
 BYTE   Dn3  v100
 BYTE   W12
 BYTE   Dn3  v024
 BYTE   W12
 BYTE   Dn3  v100
 BYTE   W12
 BYTE   Dn3  v024
 BYTE   W12
 BYTE   Dn3  v100
 BYTE   W12
 BYTE   Dn3  v024
 BYTE   W12
 BYTE   Dn3  v104
 BYTE   W12
// 014   ----------------------------------------
 BYTE   Dn3  v028
 BYTE   W12
 BYTE   Dn3  v100
 BYTE   W12
 BYTE   Dn3  v024
 BYTE   W12
 BYTE   Dn3  v108
 BYTE   W12
 BYTE   Dn3  v032
 BYTE   W12
 BYTE   Dn3  v108
 BYTE   W12
 BYTE   Dn3  v028
 BYTE   W12
 BYTE   Dn3  v108
 BYTE   W12
// 015   ----------------------------------------
 BYTE   Dn3  v028
 BYTE   W12
 BYTE   Dn3  v112
 BYTE   W12
 BYTE   Dn3  v032
 BYTE   W12
 BYTE   Dn3  v104
 BYTE   W12
 BYTE   Dn3  v028
 BYTE   W12
 BYTE   Dn3  v104
 BYTE   W12
 BYTE   Dn3  v024
 BYTE   W12
 BYTE   Dn3  v096
 BYTE   W12
// 016   ----------------------------------------
 BYTE   Dn3  v020
 BYTE   W12
 BYTE   Ds3  v080
 BYTE   W12
 BYTE   Ds3  v012
 BYTE   W12
 BYTE   Ds3  v088
 BYTE   W12
 BYTE   Ds3  v012
 BYTE   W12
 BYTE   Ds3  v088
 BYTE   W12
 BYTE   Ds3  v012
 BYTE   W12
 BYTE   Ds3  v084
 BYTE   W12
// 017   ----------------------------------------
 BYTE   Ds3  v012
 BYTE   W12
 BYTE   Ds3  v080
 BYTE   W12
 BYTE   Ds3  v012
 BYTE   W12
 BYTE   Ds3  v100
 BYTE   W12
 BYTE   Ds3  v020
 BYTE   W12
 BYTE   Ds3  v092
 BYTE   W12
 BYTE   Ds3  v012
 BYTE   W12
 BYTE   Ds3  v088
 BYTE   W12
// 018   ----------------------------------------
 BYTE   Ds3  v012
 BYTE   W12
 BYTE   Ds3  v088
 BYTE   W12
 BYTE   Ds3  v012
 BYTE   W12
 BYTE   Ds3  v088
 BYTE   W12
 BYTE   Ds3  v012
 BYTE   W12
 BYTE   Ds3  v092
 BYTE   W12
 BYTE   Ds3  v012
 BYTE   W12
 BYTE   Ds3  v084
 BYTE   W12
// 019   ----------------------------------------
 BYTE   Ds3  v012
 BYTE   W12
 BYTE   Ds3  v084
 BYTE   W12
 BYTE   Ds3  v012
 BYTE   W12
 BYTE   Ds3  v096
 BYTE   W12
 BYTE   Ds3  v020
 BYTE   W12
 BYTE   Ds3  v088
 BYTE   W12
 BYTE   Ds3  v012
 BYTE   W12
 BYTE   Ds3  v088
 BYTE   W12
// 020   ----------------------------------------
 BYTE   Ds3  v012
 BYTE   W12
 BYTE   Dn3  v100
 BYTE   W12
 BYTE   Dn3  v020
 BYTE   W12
 BYTE   Dn3  v112
 BYTE   W12
 BYTE   Dn3  v032
 BYTE   W12
 BYTE   Dn3  v092
 BYTE   W12
 BYTE   Dn3  v012
 BYTE   W12
 BYTE   Dn3  v112
 BYTE   W12
// 021   ----------------------------------------
 BYTE   Dn3  v032
 BYTE   W12
 BYTE   Dn3  v108
 BYTE   W12
 BYTE   Dn3  v032
 BYTE   W12
 BYTE   Dn3  v112
 BYTE   W12
 BYTE   Dn3  v032
 BYTE   W12
 BYTE   Dn3  v104
 BYTE   W12
 BYTE   Dn3  v028
 BYTE   W12
 BYTE   Dn3  v108
 BYTE   W12
// 022   ----------------------------------------
 BYTE   Dn3  v028
 BYTE   W12
 BYTE   Dn3  v104
 BYTE   W12
 BYTE   Dn3  v028
 BYTE   W12
 BYTE   Dn3  v108
 BYTE   W12
 BYTE   Dn3  v028
 BYTE   W12
 BYTE   Dn3  v108
 BYTE   W12
 BYTE   Dn3  v032
 BYTE   W12
 BYTE   Dn3  v112
 BYTE   W12
// 023   ----------------------------------------
 BYTE   Dn3  v032
 BYTE   W12
 BYTE   Dn3  v104
 BYTE   W12
 BYTE   Dn3  v028
 BYTE   W12
 BYTE   Dn3  v112
 BYTE   W12
 BYTE   Dn3  v032
 BYTE   W12
 BYTE   Dn3  v108
 BYTE   W12
 BYTE   Dn3  v028
 BYTE   W12
 BYTE   Dn3  v108
 BYTE   W12
// 024   ----------------------------------------
 BYTE   Dn3  v028
 BYTE   W12
 BYTE   Ds3  v080
 BYTE   W12
 BYTE   Ds3  v012
 BYTE   W12
 BYTE   Ds3  v088
 BYTE   W12
 BYTE   Ds3  v012
 BYTE   W12
 BYTE   Ds3  v096
 BYTE   W12
 BYTE   Ds3  v016
 BYTE   W12
 BYTE   Ds3  v088
 BYTE   W12
// 025   ----------------------------------------
 BYTE   Ds3  v012
 BYTE   W12
 BYTE   Ds3  v088
 BYTE   W12
 BYTE   Ds3  v012
 BYTE   W12
 BYTE   Ds3  v092
 BYTE   W12
 BYTE   Ds3  v012
 BYTE   W12
 BYTE   Ds3  v088
 BYTE   W12
 BYTE   Ds3  v012
 BYTE   W12
 BYTE   Ds3  v076
 BYTE   W12
// 026   ----------------------------------------
 BYTE   Ds3  v012
 BYTE   W12
 BYTE   Fn3  v108
 BYTE   W12
 BYTE   Fn3  v032
 BYTE   W12
 BYTE   Fn3  v108
 BYTE   W12
 BYTE   Fn3  v032
 BYTE   W12
 BYTE   Fn3  v116
 BYTE   W12
 BYTE   Fn3  v040
 BYTE   W12
 BYTE   Fn3  v112
 BYTE   W12
// 027   ----------------------------------------
 BYTE   Fn3  v032
 BYTE   W12
 BYTE   Fn3  v100
 BYTE   W12
 BYTE   Fn3  v024
 BYTE   W12
 BYTE   Fn3  v108
 BYTE   W12
 BYTE   Fn3  v032
 BYTE   W12
 BYTE   Fn3  v112
 BYTE   W12
 BYTE   Fn3  v032
 BYTE   W12
 BYTE   Fn3  v100
 BYTE   W12
// 028   ----------------------------------------
 BYTE   Fn3  v024
 BYTE   W12
 BYTE   Gn3  v100
 BYTE   W12
 BYTE   Gn3  v024
 BYTE   W12
 BYTE   Gn3  v100
 BYTE   W12
 BYTE   Gn3  v024
 BYTE   W12
 BYTE   Gn3  v104
 BYTE   W12
 BYTE   Gn3  v024
 BYTE   W12
 BYTE   Gn3  v108
 BYTE   W12
// 029   ----------------------------------------
 BYTE   Gn3  v032
 BYTE   W12
 BYTE   Gn3  v108
 BYTE   W12
 BYTE   Gn3  v028
 BYTE   W12
 BYTE   Gn3  v112
 BYTE   W12
 BYTE   Gn3  v032
 BYTE   W12
 BYTE   Gn3  v108
 BYTE   W12
 BYTE   Gn3  v028
 BYTE   W12
 BYTE   N05  Gn3  v104
 BYTE   W06
 BYTE   Gn3  v028
 BYTE   W06
// 030   ----------------------------------------
 BYTE   W96
// 031   ----------------------------------------
 BYTE   W96
// 032   ----------------------------------------
 BYTE   W96
// 033   ----------------------------------------
 BYTE   VOICE   58
 BYTE   VOL   15*FE06NatureRSflame_mvl/mxv
 BYTE   PAN   c_v-6
 BYTE   W24
 BYTE   N23  Bn3  v108
 BYTE   W24
 BYTE   En3
 BYTE   W24
 BYTE   N22  An3  v104
 BYTE   W24
// 034   ----------------------------------------
 BYTE   TIE  Bn3  v112
 BYTE   W96
// 035   ----------------------------------------
 BYTE   W03
 BYTE   EOT
 BYTE   W21
 BYTE   N20  An3  v108
 BYTE   W24
 BYTE   Bn3  v100
 BYTE   W24
 BYTE   N19  Cn4  v104
 BYTE   W24
// 036   ----------------------------------------
 BYTE   TIE  Dn4  v120
 BYTE   W96
// 037   ----------------------------------------
 BYTE   W04
 BYTE   EOT
 BYTE   W68
 BYTE   N22  An3  v108
 BYTE   W24
// 038   ----------------------------------------
 BYTE   N84  Dn4  v120
 BYTE   W96
// 039   ----------------------------------------
 BYTE   W48
 BYTE   GoTo
  POIN2 Label_3_010224D2
// 040   ----------------------------------------
 BYTE   W44
 BYTE   W03
 BYTE   FINE

//**************** Track 5 (Midi-Chn.4) ****************//

FE06NatureRSflame_005:
// 000   ----------------------------------------
 BYTE   KEYSH   FE06NatureRSflame_key+0
 BYTE   VOICE   41
 BYTE   VOL   24*FE06NatureRSflame_mvl/mxv
 BYTE   PAN   c_v+0
 BYTE   N03  Dn1  v100
 BYTE   W04
 BYTE   An1  v096
 BYTE   W04
 BYTE   En2
 BYTE   W04
 BYTE   Fn2
 BYTE   W04
 BYTE   An2
 BYTE   W04
 BYTE   Cn3
 BYTE   W04
 BYTE   Dn1  v100
 BYTE   W04
 BYTE   An1  v096
 BYTE   W04
 BYTE   En2
 BYTE   W04
 BYTE   Fn2
 BYTE   W04
 BYTE   An2
 BYTE   W04
 BYTE   Cn3
 BYTE   W04
 BYTE   Dn1  v100
 BYTE   W04
 BYTE   An1  v096
 BYTE   W04
 BYTE   En2
 BYTE   W04
 BYTE   Fn2
 BYTE   W04
 BYTE   An2
 BYTE   W04
 BYTE   Cn3
 BYTE   W04
 BYTE   Dn1  v100
 BYTE   W04
 BYTE   An1  v096
 BYTE   W04
 BYTE   En2
 BYTE   W04
 BYTE   Fn2
 BYTE   W04
 BYTE   An2
 BYTE   W04
 BYTE   Cn3
 BYTE   W04
// 001   ----------------------------------------
Label_4_01022E21:
 BYTE   N03  Dn1  v100
 BYTE   W04
 BYTE   An1  v096
 BYTE   W04
 BYTE   En2
 BYTE   W04
 BYTE   Fn2
 BYTE   W04
 BYTE   An2
 BYTE   W04
 BYTE   Bn2
 BYTE   W04
 BYTE   Dn1  v100
 BYTE   W04
 BYTE   An1  v096
 BYTE   W04
 BYTE   En2
 BYTE   W04
 BYTE   Fn2
 BYTE   W04
 BYTE   An2
 BYTE   W04
 BYTE   Bn2
 BYTE   W04
 BYTE   Dn1  v100
 BYTE   W04
 BYTE   An1  v096
 BYTE   W04
 BYTE   En2
 BYTE   W04
 BYTE   Fn2
 BYTE   W04
 BYTE   An2
 BYTE   W04
 BYTE   Bn2
 BYTE   W04
 BYTE   Dn1  v100
 BYTE   W04
 BYTE   An1  v096
 BYTE   W04
 BYTE   En2
 BYTE   W04
 BYTE   Fn2
 BYTE   W04
 BYTE   An2
 BYTE   W04
 BYTE   Bn2
 BYTE   W04
 BYTE   PEND 
// 002   ----------------------------------------
Label_4_01022E5B:
 BYTE   N03  Dn1  v100
 BYTE   W04
 BYTE   An1  v096
 BYTE   W04
 BYTE   En2
 BYTE   W04
 BYTE   Fn2
 BYTE   W04
 BYTE   An2
 BYTE   W04
 BYTE   Cn3
 BYTE   W04
 BYTE   Dn1  v100
 BYTE   W04
 BYTE   An1  v096
 BYTE   W04
 BYTE   En2
 BYTE   W04
 BYTE   Fn2
 BYTE   W04
 BYTE   An2
 BYTE   W04
 BYTE   Cn3
 BYTE   W04
 BYTE   Dn1  v100
 BYTE   W04
 BYTE   An1  v096
 BYTE   W04
 BYTE   En2
 BYTE   W04
 BYTE   Fn2
 BYTE   W04
 BYTE   An2
 BYTE   W04
 BYTE   Cn3
 BYTE   W04
 BYTE   Dn1  v100
 BYTE   W04
 BYTE   An1  v096
 BYTE   W04
 BYTE   En2
 BYTE   W04
 BYTE   Fn2
 BYTE   W04
 BYTE   An2
 BYTE   W04
 BYTE   Cn3
 BYTE   W04
 BYTE   PEND 
// 003   ----------------------------------------
 BYTE   PATT
  POIN2 Label_4_01022E21
// 004   ----------------------------------------
 BYTE   PATT
  POIN2 Label_4_01022E5B
// 005   ----------------------------------------
 BYTE   PATT
  POIN2 Label_4_01022E21
// 006   ----------------------------------------
 BYTE   PATT
  POIN2 Label_4_01022E5B
// 007   ----------------------------------------
 BYTE   PATT
  POIN2 Label_4_01022E21
// 008   ----------------------------------------
Label_4_01022EAE:
 BYTE   PAN   c_v+6
 BYTE   N23  An2  v096
 BYTE   N23  Dn3
 BYTE   W24
 BYTE   N44  Gn2
 BYTE   N40  Cn3
 BYTE   W48
 BYTE   N23  Ds2
 BYTE   N23  Gn2
 BYTE   W24
// 009   ----------------------------------------
 BYTE   N80
 BYTE   N90  Cn3
 BYTE   W96
// 010   ----------------------------------------
 BYTE   N19  An2
 BYTE   N19  Dn3
 BYTE   W24
 BYTE   N40  Gn2
 BYTE   N40  Cn3
 BYTE   W48
 BYTE   N19
 BYTE   N19  Fn3
 BYTE   W24
// 011   ----------------------------------------
 BYTE   N68  Gn2
 BYTE   N68  Cn3
 BYTE   W72
 BYTE   N23  Fn2
 BYTE   N23  An2
 BYTE   W24
// 012   ----------------------------------------
 BYTE   N68  Gn2
 BYTE   N68  Cn3
 BYTE   W72
 BYTE   N23  Fn2
 BYTE   N23  As2
 BYTE   W24
// 013   ----------------------------------------
 BYTE   N68  Gn2
 BYTE   N68  Cn3
 BYTE   W72
 BYTE   N19  An2
 BYTE   N23  Dn3
 BYTE   W24
// 014   ----------------------------------------
 BYTE   N44  Dn2
 BYTE   N44  An2
 BYTE   W48
 BYTE   Fn2
 BYTE   N44  As2
 BYTE   W48
// 015   ----------------------------------------
 BYTE   Gn2
 BYTE   N44  Cn3
 BYTE   W48
 BYTE   N40  An2
 BYTE   N36  Dn3
 BYTE   W48
// 016   ----------------------------------------
 BYTE   N23  An2
 BYTE   N23  Dn3
 BYTE   W24
 BYTE   N36  Gn2
 BYTE   N40  Cn3
 BYTE   W48
 BYTE   N23  Dn2
 BYTE   N20  Gn2
 BYTE   W24
// 017   ----------------------------------------
 BYTE   N92
 BYTE   N92  Cn3
 BYTE   W96
// 018   ----------------------------------------
 BYTE   N23  An2
 BYTE   N23  Dn3
 BYTE   W24
 BYTE   N32  Gn2
 BYTE   N36  Cn3
 BYTE   W48
 BYTE   N23
 BYTE   N23  Fn3
 BYTE   W24
// 019   ----------------------------------------
 BYTE   N44  An2
 BYTE   N44  Dn3
 BYTE   W48
 BYTE   N42  Gn2
 BYTE   N40  Cn3
 BYTE   W48
// 020   ----------------------------------------
 BYTE   N23  Gn2
 BYTE   N23  Cn3
 BYTE   W24
 BYTE   N68  Fn2
 BYTE   N68  As2
 BYTE   W72
// 021   ----------------------------------------
 BYTE   N42  En2
 BYTE   N44  An2
 BYTE   W48
 BYTE   Dn2
 BYTE   N44  Fn2
 BYTE   W48
// 022   ----------------------------------------
 BYTE   Gn2
 BYTE   N44  Cn3
 BYTE   W48
 BYTE   Fn2
 BYTE   N44  As2
 BYTE   W48
// 023   ----------------------------------------
 BYTE   Gn2
 BYTE   N44  Cn3
 BYTE   W48
 BYTE   N40  An2
 BYTE   N40  Dn3
 BYTE   W48
// 024   ----------------------------------------
 BYTE   N23  An2
 BYTE   N19  Dn3
 BYTE   W24
 BYTE   N64
 BYTE   N64  Gn3
 BYTE   W72
// 025   ----------------------------------------
 BYTE   N23  Dn3
 BYTE   N21  Gn3
 BYTE   W24
 BYTE   N60
 BYTE   N60  Cn4
 BYTE   W72
// 026   ----------------------------------------
 BYTE   N23  Gn3
 BYTE   N23  Cn4
 BYTE   W24
 BYTE   N66  En3
 BYTE   N66  An3
 BYTE   W72
// 027   ----------------------------------------
 BYTE   N23  En3
 BYTE   N23  An3
 BYTE   W24
 BYTE   N42  Cn3
 BYTE   N42  Fn3
 BYTE   W48
 BYTE   N23  An2
 BYTE   N19  Dn3
 BYTE   W24
// 028   ----------------------------------------
 BYTE   N92
 BYTE   N92  Gn3
 BYTE   W72
 BYTE   PAN   c_v-14
 BYTE   W24
// 029   ----------------------------------------
 BYTE   N07  Gn2  v108
 BYTE   W08
 BYTE   An3  v096
 BYTE   W08
 BYTE   Dn4
 BYTE   W08
 BYTE   Gn2  v108
 BYTE   W08
 BYTE   An3  v096
 BYTE   W08
 BYTE   Dn4
 BYTE   W08
 BYTE   Gn2  v108
 BYTE   W08
 BYTE   An3  v096
 BYTE   W08
 BYTE   Dn4
 BYTE   W08
 BYTE   Gn2  v108
 BYTE   W08
 BYTE   An3  v096
 BYTE   W08
 BYTE   Dn4
 BYTE   W08
// 030   ----------------------------------------
Label_4_01022FA4:
 BYTE   N07  Dn2  v108
 BYTE   W08
 BYTE   En3  v096
 BYTE   W08
 BYTE   An3
 BYTE   W08
 BYTE   Dn2  v108
 BYTE   W08
 BYTE   En3  v096
 BYTE   W08
 BYTE   An3
 BYTE   W08
 BYTE   Dn2  v108
 BYTE   W08
 BYTE   En3  v096
 BYTE   W08
 BYTE   An3
 BYTE   W08
 BYTE   Dn2  v108
 BYTE   W08
 BYTE   En3  v096
 BYTE   W08
 BYTE   An3
 BYTE   W08
 BYTE   PEND 
// 031   ----------------------------------------
 BYTE   PATT
  POIN2 Label_4_01022FA4
// 032   ----------------------------------------
 BYTE   PATT
  POIN2 Label_4_01022FA4
// 033   ----------------------------------------
 BYTE   PATT
  POIN2 Label_4_01022FA4
// 034   ----------------------------------------
 BYTE   PATT
  POIN2 Label_4_01022FA4
// 035   ----------------------------------------
 BYTE   PATT
  POIN2 Label_4_01022FA4
// 036   ----------------------------------------
 BYTE   PATT
  POIN2 Label_4_01022FA4
// 037   ----------------------------------------
 BYTE   PATT
  POIN2 Label_4_01022FA4
// 038   ----------------------------------------
 BYTE   PATT
  POIN2 Label_4_01022FA4
// 039   ----------------------------------------
 BYTE   N07  Dn2  v108
 BYTE   W08
 BYTE   En3  v096
 BYTE   W08
 BYTE   An3
 BYTE   W08
 BYTE   Dn2  v108
 BYTE   W08
 BYTE   En3  v096
 BYTE   W08
 BYTE   An3
 BYTE   W08
 BYTE   GoTo
  POIN2 Label_4_01022EAE
// 040   ----------------------------------------
 BYTE   N07  Dn2  v108
 BYTE   W08
 BYTE   En3  v096
 BYTE   W08
 BYTE   An3
 BYTE   W08
 BYTE   Dn2  v108
 BYTE   W08
 BYTE   En3  v096
 BYTE   W08
 BYTE   An3
 BYTE   W07
 BYTE   FINE

//**************** Track 6 (Midi-Chn.5) ****************//

FE06NatureRSflame_006:
// 000   ----------------------------------------
 BYTE   KEYSH   FE06NatureRSflame_key+0
 BYTE   VOICE   61
 BYTE   VOL   41*FE06NatureRSflame_mvl/mxv
 BYTE   PAN   c_v+0
 BYTE   N68  Bn2  v100
 BYTE   N68  Bn3
 BYTE   W72
 BYTE   N23  En2
 BYTE   N23  En3
 BYTE   W24
// 001   ----------------------------------------
 BYTE   N92  An2
 BYTE   N92  An3
 BYTE   W96
// 002   ----------------------------------------
Label_5_01022244:
 BYTE   N44  Bn2  v100
 BYTE   N44  Bn3
 BYTE   W48
 BYTE   Cn3
 BYTE   N44  Cn4
 BYTE   W48
 BYTE   PEND 
// 003   ----------------------------------------
 BYTE   N92  Dn3
 BYTE   N92  Dn4
 BYTE   W96
// 004   ----------------------------------------
 BYTE   An2
 BYTE   N92  An3
 BYTE   W96
// 005   ----------------------------------------
 BYTE   Bn2
 BYTE   N92  Bn3
 BYTE   W96
// 006   ----------------------------------------
Label_5_0102225C:
 BYTE   TIE  En2  v100
 BYTE   TIE  En3
 BYTE   W96
 BYTE   PEND 
// 007   ----------------------------------------
 BYTE   W44
 BYTE   W03
 BYTE   EOT
 BYTE   En2  v064
 BYTE   W01
 BYTE   N44  Dn2
 BYTE   N44  Dn3
 BYTE   W48
// 008   ----------------------------------------
Label_5_0102226E:
 BYTE   PAN   c_v-13
 BYTE   W12
 BYTE   N11  As2  v096
 BYTE   W12
 BYTE   As2  v016
 BYTE   W12
 BYTE   As2  v096
 BYTE   W12
 BYTE   As2  v016
 BYTE   W12
 BYTE   As2  v096
 BYTE   W12
 BYTE   As2  v020
 BYTE   W12
 BYTE   As2  v096
 BYTE   W12
// 009   ----------------------------------------
 BYTE   As2  v016
 BYTE   W12
 BYTE   As2  v088
 BYTE   W12
 BYTE   As2  v012
 BYTE   W12
 BYTE   As2  v088
 BYTE   W12
 BYTE   As2  v012
 BYTE   W12
 BYTE   As2  v100
 BYTE   W12
 BYTE   As2  v024
 BYTE   W12
 BYTE   As2  v100
 BYTE   W12
// 010   ----------------------------------------
 BYTE   As2  v020
 BYTE   W12
 BYTE   As2  v100
 BYTE   W12
 BYTE   As2  v020
 BYTE   W12
 BYTE   As2  v096
 BYTE   W12
 BYTE   As2  v016
 BYTE   W12
 BYTE   As2  v096
 BYTE   W12
 BYTE   As2  v016
 BYTE   W12
 BYTE   As2  v100
 BYTE   W12
// 011   ----------------------------------------
 BYTE   As2  v024
 BYTE   W12
 BYTE   As2  v092
 BYTE   W12
 BYTE   As2  v012
 BYTE   W12
 BYTE   As2  v096
 BYTE   W12
 BYTE   As2  v016
 BYTE   W12
 BYTE   As2  v096
 BYTE   W12
 BYTE   As2  v016
 BYTE   W12
 BYTE   As2  v092
 BYTE   W12
// 012   ----------------------------------------
 BYTE   As2  v016
 BYTE   W12
 BYTE   An2  v096
 BYTE   W12
 BYTE   An2  v020
 BYTE   W12
 BYTE   An2  v108
 BYTE   W12
 BYTE   An2  v028
 BYTE   W12
 BYTE   An2  v112
 BYTE   W12
 BYTE   An2  v032
 BYTE   W12
 BYTE   An2  v104
 BYTE   W12
// 013   ----------------------------------------
 BYTE   An2  v024
 BYTE   W12
 BYTE   An2  v096
 BYTE   W12
 BYTE   An2  v020
 BYTE   W12
 BYTE   An2  v104
 BYTE   W12
 BYTE   An2  v024
 BYTE   W12
 BYTE   An2  v104
 BYTE   W12
 BYTE   An2  v024
 BYTE   W12
 BYTE   An2  v108
 BYTE   W12
// 014   ----------------------------------------
 BYTE   An2  v028
 BYTE   W12
 BYTE   An2  v096
 BYTE   W12
 BYTE   An2  v020
 BYTE   W12
 BYTE   An2  v100
 BYTE   W12
 BYTE   An2  v020
 BYTE   W12
 BYTE   An2  v108
 BYTE   W12
 BYTE   An2  v032
 BYTE   W12
 BYTE   An2  v108
 BYTE   W12
// 015   ----------------------------------------
 BYTE   An2  v028
 BYTE   W12
 BYTE   An2  v112
 BYTE   W12
 BYTE   An2  v032
 BYTE   W12
 BYTE   An2  v100
 BYTE   W12
 BYTE   An2  v020
 BYTE   W12
 BYTE   An2  v092
 BYTE   W12
 BYTE   An2  v012
 BYTE   W12
 BYTE   An2  v100
 BYTE   W12
// 016   ----------------------------------------
 BYTE   An2  v024
 BYTE   W12
 BYTE   As2  v092
 BYTE   W12
 BYTE   As2  v016
 BYTE   W12
 BYTE   As2  v100
 BYTE   W12
 BYTE   As2  v020
 BYTE   W12
 BYTE   As2  v100
 BYTE   W12
 BYTE   As2  v024
 BYTE   W12
 BYTE   As2  v100
 BYTE   W12
// 017   ----------------------------------------
 BYTE   As2  v024
 BYTE   W12
 BYTE   As2  v100
 BYTE   W12
 BYTE   As2  v020
 BYTE   W12
 BYTE   As2  v104
 BYTE   W12
 BYTE   As2  v028
 BYTE   W12
 BYTE   As2  v100
 BYTE   W12
 BYTE   As2  v020
 BYTE   W12
 BYTE   As2  v108
 BYTE   W12
// 018   ----------------------------------------
 BYTE   As2  v032
 BYTE   W12
 BYTE   As2  v104
 BYTE   W12
 BYTE   As2  v028
 BYTE   W12
 BYTE   As2  v104
 BYTE   W12
 BYTE   As2  v024
 BYTE   W12
 BYTE   As2  v100
 BYTE   W12
 BYTE   As2  v020
 BYTE   W12
 BYTE   As2  v096
 BYTE   W12
// 019   ----------------------------------------
 BYTE   As2  v016
 BYTE   W12
 BYTE   As2  v108
 BYTE   W12
 BYTE   As2  v028
 BYTE   W12
 BYTE   As2  v112
 BYTE   W12
 BYTE   As2  v032
 BYTE   W12
 BYTE   As2  v104
 BYTE   W12
 BYTE   As2  v024
 BYTE   W12
 BYTE   As2  v096
 BYTE   W12
// 020   ----------------------------------------
 BYTE   As2  v016
 BYTE   W12
 BYTE   An2  v096
 BYTE   W12
 BYTE   An2  v020
 BYTE   W12
 BYTE   An2  v116
 BYTE   W12
 BYTE   An2  v036
 BYTE   W12
 BYTE   An2  v096
 BYTE   W12
 BYTE   An2  v016
 BYTE   W12
 BYTE   An2  v104
 BYTE   W12
// 021   ----------------------------------------
 BYTE   An2  v028
 BYTE   W12
 BYTE   An2  v108
 BYTE   W12
 BYTE   An2  v032
 BYTE   W12
 BYTE   An2  v112
 BYTE   W12
 BYTE   An2  v032
 BYTE   W12
 BYTE   An2  v104
 BYTE   W12
 BYTE   An2  v024
 BYTE   W12
 BYTE   An2  v104
 BYTE   W12
// 022   ----------------------------------------
 BYTE   An2  v028
 BYTE   W12
 BYTE   An2  v104
 BYTE   W12
 BYTE   An2  v028
 BYTE   W12
 BYTE   An2  v104
 BYTE   W12
 BYTE   An2  v028
 BYTE   W12
 BYTE   An2  v108
 BYTE   W12
 BYTE   An2  v032
 BYTE   W12
 BYTE   An2  v112
 BYTE   W12
// 023   ----------------------------------------
 BYTE   An2  v032
 BYTE   W12
 BYTE   An2  v108
 BYTE   W12
 BYTE   An2  v032
 BYTE   W12
 BYTE   An2  v112
 BYTE   W12
 BYTE   An2  v032
 BYTE   W12
 BYTE   An2  v092
 BYTE   W12
 BYTE   An2  v016
 BYTE   W12
 BYTE   An2  v084
 BYTE   W12
// 024   ----------------------------------------
 BYTE   An2  v012
 BYTE   W12
 BYTE   As2  v088
 BYTE   W12
 BYTE   As2  v012
 BYTE   W12
 BYTE   As2  v100
 BYTE   W12
 BYTE   As2  v020
 BYTE   W12
 BYTE   As2  v108
 BYTE   W12
 BYTE   As2  v032
 BYTE   W12
 BYTE   As2  v108
 BYTE   W12
// 025   ----------------------------------------
 BYTE   As2  v032
 BYTE   W12
 BYTE   As2  v104
 BYTE   W12
 BYTE   As2  v024
 BYTE   W12
 BYTE   As2  v104
 BYTE   W12
 BYTE   As2  v028
 BYTE   W12
 BYTE   As2  v108
 BYTE   W12
 BYTE   As2  v028
 BYTE   W12
 BYTE   As2  v076
 BYTE   W12
// 026   ----------------------------------------
 BYTE   As2  v012
 BYTE   W12
 BYTE   Cn3  v096
 BYTE   W12
 BYTE   Cn3  v020
 BYTE   W12
 BYTE   Cn3  v100
 BYTE   W12
 BYTE   Cn3  v020
 BYTE   W12
 BYTE   Cn3  v104
 BYTE   W12
 BYTE   Cn3  v024
 BYTE   W12
 BYTE   Cn3  v116
 BYTE   W12
// 027   ----------------------------------------
 BYTE   Cn3  v036
 BYTE   W12
 BYTE   Cn3  v104
 BYTE   W12
 BYTE   Cn3  v028
 BYTE   W12
 BYTE   Cn3  v108
 BYTE   W12
 BYTE   Cn3  v028
 BYTE   W12
 BYTE   Cn3  v120
 BYTE   W12
 BYTE   Cn3  v040
 BYTE   W12
 BYTE   Cn3  v096
 BYTE   W12
// 028   ----------------------------------------
 BYTE   Cn3  v020
 BYTE   W12
 BYTE   Dn3  v104
 BYTE   W12
 BYTE   Dn3  v024
 BYTE   W12
 BYTE   Dn3  v108
 BYTE   W12
 BYTE   Dn3  v032
 BYTE   W12
 BYTE   Dn3  v112
 BYTE   W12
 BYTE   Dn3  v036
 BYTE   W12
 BYTE   Dn3  v112
 BYTE   W12
// 029   ----------------------------------------
 BYTE   Dn3  v036
 BYTE   W12
 BYTE   Dn3  v116
 BYTE   W12
 BYTE   Dn3  v036
 BYTE   W12
 BYTE   Dn3  v112
 BYTE   W12
 BYTE   Dn3  v036
 BYTE   W12
 BYTE   Dn3  v112
 BYTE   W12
 BYTE   Dn3  v036
 BYTE   W12
 BYTE   N05  Dn3  v108
 BYTE   W06
 BYTE   Dn3  v028
 BYTE   W06
// 030   ----------------------------------------
 BYTE   W96
// 031   ----------------------------------------
 BYTE   W96
// 032   ----------------------------------------
 BYTE   PAN   c_v+0
 BYTE   N68  Bn2  v100
 BYTE   N68  Bn3
 BYTE   W72
 BYTE   N23  En2
 BYTE   N23  En3
 BYTE   W24
// 033   ----------------------------------------
 BYTE   N92  An2
 BYTE   N92  An3
 BYTE   W96
// 034   ----------------------------------------
 BYTE   PATT
  POIN2 Label_5_01022244
// 035   ----------------------------------------
 BYTE   N92  Dn3  v100
 BYTE   N92  Dn4
 BYTE   W96
// 036   ----------------------------------------
 BYTE   An2
 BYTE   N92  An3
 BYTE   W96
// 037   ----------------------------------------
 BYTE   Bn2
 BYTE   N92  Bn3
 BYTE   W96
// 038   ----------------------------------------
 BYTE   PATT
  POIN2 Label_5_0102225C
// 039   ----------------------------------------
 BYTE   W44
 BYTE   W03
 BYTE   EOT
 BYTE   En2  v064
 BYTE   W01
 BYTE   GoTo
  POIN2 Label_5_0102226E
// 040   ----------------------------------------
 BYTE   N44  Dn2  v100
 BYTE   N44  Dn3
 BYTE   W44
 BYTE   W03
 BYTE   FINE

//**************** Track 7 (Midi-Chn.6) ****************//

FE06NatureRSflame_007:
// 000   ----------------------------------------
 BYTE   KEYSH   FE06NatureRSflame_key+0
 BYTE   VOICE   60
 BYTE   PAN   c_v+0
 BYTE   VOL   46*FE06NatureRSflame_mvl/mxv
 BYTE   N03  Dn1  v100
 BYTE   W04
 BYTE   An1  v096
 BYTE   W04
 BYTE   En2
 BYTE   W04
 BYTE   Fn2
 BYTE   W04
 BYTE   An2
 BYTE   W04
 BYTE   Cn3
 BYTE   W04
 BYTE   Dn1  v100
 BYTE   W04
 BYTE   An1  v096
 BYTE   W04
 BYTE   En2
 BYTE   W04
 BYTE   Fn2
 BYTE   W04
 BYTE   An2
 BYTE   W04
 BYTE   Cn3
 BYTE   W04
 BYTE   Dn1  v100
 BYTE   W04
 BYTE   An1  v096
 BYTE   W04
 BYTE   En2
 BYTE   W04
 BYTE   Fn2
 BYTE   W04
 BYTE   An2
 BYTE   W04
 BYTE   Cn3
 BYTE   W04
 BYTE   Dn1  v100
 BYTE   W04
 BYTE   An1  v096
 BYTE   W04
 BYTE   En2
 BYTE   W04
 BYTE   Fn2
 BYTE   W04
 BYTE   An2
 BYTE   W04
 BYTE   Cn3
 BYTE   W04
// 001   ----------------------------------------
Label_6_55F641:
 BYTE   N03  Dn1  v100
 BYTE   W04
 BYTE   An1  v096
 BYTE   W04
 BYTE   En2
 BYTE   W04
 BYTE   Fn2
 BYTE   W04
 BYTE   An2
 BYTE   W04
 BYTE   Bn2
 BYTE   W04
 BYTE   Dn1  v100
 BYTE   W04
 BYTE   An1  v096
 BYTE   W04
 BYTE   En2
 BYTE   W04
 BYTE   Fn2
 BYTE   W04
 BYTE   An2
 BYTE   W04
 BYTE   Bn2
 BYTE   W04
 BYTE   Dn1  v100
 BYTE   W04
 BYTE   An1  v096
 BYTE   W04
 BYTE   En2
 BYTE   W04
 BYTE   Fn2
 BYTE   W04
 BYTE   An2
 BYTE   W04
 BYTE   Bn2
 BYTE   W04
 BYTE   Dn1  v100
 BYTE   W04
 BYTE   An1  v096
 BYTE   W04
 BYTE   En2
 BYTE   W04
 BYTE   Fn2
 BYTE   W04
 BYTE   An2
 BYTE   W04
 BYTE   Bn2
 BYTE   W04
 BYTE   PEND 
// 002   ----------------------------------------
Label_6_55F67B:
 BYTE   N03  Dn1  v100
 BYTE   W04
 BYTE   An1  v096
 BYTE   W04
 BYTE   En2
 BYTE   W04
 BYTE   Fn2
 BYTE   W04
 BYTE   An2
 BYTE   W04
 BYTE   Cn3
 BYTE   W04
 BYTE   Dn1  v100
 BYTE   W04
 BYTE   An1  v096
 BYTE   W04
 BYTE   En2
 BYTE   W04
 BYTE   Fn2
 BYTE   W04
 BYTE   An2
 BYTE   W04
 BYTE   Cn3
 BYTE   W04
 BYTE   Dn1  v100
 BYTE   W04
 BYTE   An1  v096
 BYTE   W04
 BYTE   En2
 BYTE   W04
 BYTE   Fn2
 BYTE   W04
 BYTE   An2
 BYTE   W04
 BYTE   Cn3
 BYTE   W04
 BYTE   Dn1  v100
 BYTE   W04
 BYTE   An1  v096
 BYTE   W04
 BYTE   En2
 BYTE   W04
 BYTE   Fn2
 BYTE   W04
 BYTE   An2
 BYTE   W04
 BYTE   Cn3
 BYTE   W04
 BYTE   PEND 
// 003   ----------------------------------------
 BYTE   PATT
  POIN2 Label_6_55F641
// 004   ----------------------------------------
 BYTE   PATT
  POIN2 Label_6_55F67B
// 005   ----------------------------------------
 BYTE   PATT
  POIN2 Label_6_55F641
// 006   ----------------------------------------
 BYTE   PATT
  POIN2 Label_6_55F67B
// 007   ----------------------------------------
 BYTE   PATT
  POIN2 Label_6_55F641
// 008   ----------------------------------------
Label_6_55F6CE:
 BYTE   PAN   c_v+6
 BYTE   VOL   42*FE06NatureRSflame_mvl/mxv
 BYTE   N23  An2  v096
 BYTE   N23  Dn3
 BYTE   W24
 BYTE   N44  Gn2
 BYTE   N40  Cn3
 BYTE   W48
 BYTE   N23  Ds2
 BYTE   N23  Gn2
 BYTE   W24
// 009   ----------------------------------------
 BYTE   N80
 BYTE   N90  Cn3
 BYTE   W96
// 010   ----------------------------------------
 BYTE   N19  An2
 BYTE   N19  Dn3
 BYTE   W24
 BYTE   N40  Gn2
 BYTE   N40  Cn3
 BYTE   W48
 BYTE   N19
 BYTE   N19  Fn3
 BYTE   W24
// 011   ----------------------------------------
 BYTE   N68  Gn2
 BYTE   N68  Cn3
 BYTE   W72
 BYTE   N23  Fn2
 BYTE   N23  An2
 BYTE   W24
// 012   ----------------------------------------
 BYTE   N68  Gn2
 BYTE   N68  Cn3
 BYTE   W72
 BYTE   N23  Fn2
 BYTE   N23  As2
 BYTE   W24
// 013   ----------------------------------------
 BYTE   N68  Gn2
 BYTE   N68  Cn3
 BYTE   W72
 BYTE   N19  An2
 BYTE   N23  Dn3
 BYTE   W24
// 014   ----------------------------------------
 BYTE   N44  Dn2
 BYTE   N44  An2
 BYTE   W48
 BYTE   Fn2
 BYTE   N44  As2
 BYTE   W48
// 015   ----------------------------------------
 BYTE   Gn2
 BYTE   N44  Cn3
 BYTE   W48
 BYTE   N40  An2
 BYTE   N36  Dn3
 BYTE   W48
// 016   ----------------------------------------
 BYTE   N23  An2
 BYTE   N23  Dn3
 BYTE   W24
 BYTE   N36  Gn2
 BYTE   N40  Cn3
 BYTE   W48
 BYTE   N23  Dn2
 BYTE   N20  Gn2
 BYTE   W24
// 017   ----------------------------------------
 BYTE   N92
 BYTE   N92  Cn3
 BYTE   W96
// 018   ----------------------------------------
 BYTE   N23  An2
 BYTE   N23  Dn3
 BYTE   W24
 BYTE   N32  Gn2
 BYTE   N36  Cn3
 BYTE   W48
 BYTE   N23
 BYTE   N23  Fn3
 BYTE   W24
// 019   ----------------------------------------
 BYTE   N44  An2
 BYTE   N44  Dn3
 BYTE   W48
 BYTE   N42  Gn2
 BYTE   N40  Cn3
 BYTE   W48
// 020   ----------------------------------------
 BYTE   N23  Gn2
 BYTE   N23  Cn3
 BYTE   W24
 BYTE   N68  Fn2
 BYTE   N68  As2
 BYTE   W72
// 021   ----------------------------------------
 BYTE   N42  En2
 BYTE   N44  An2
 BYTE   W48
 BYTE   Dn2
 BYTE   N44  Fn2
 BYTE   W48
// 022   ----------------------------------------
 BYTE   Gn2
 BYTE   N44  Cn3
 BYTE   W48
 BYTE   Fn2
 BYTE   N44  As2
 BYTE   W48
// 023   ----------------------------------------
 BYTE   Gn2
 BYTE   N44  Cn3
 BYTE   W48
 BYTE   N40  An2
 BYTE   N40  Dn3
 BYTE   W48
// 024   ----------------------------------------
 BYTE   N23  An2
 BYTE   N19  Dn3
 BYTE   W24
 BYTE   N64
 BYTE   N64  Gn3
 BYTE   W72
// 025   ----------------------------------------
 BYTE   N23  Dn3
 BYTE   N21  Gn3
 BYTE   W24
 BYTE   N60
 BYTE   N60  Cn4
 BYTE   W72
// 026   ----------------------------------------
 BYTE   N23  Gn3
 BYTE   N23  Cn4
 BYTE   W24
 BYTE   N66  En3
 BYTE   N66  An3
 BYTE   W72
// 027   ----------------------------------------
 BYTE   N23  En3
 BYTE   N23  An3
 BYTE   W24
 BYTE   N42  Cn3
 BYTE   N42  Fn3
 BYTE   W48
 BYTE   N23  An2
 BYTE   N19  Dn3
 BYTE   W24
// 028   ----------------------------------------
 BYTE   N92
 BYTE   N92  Gn3
 BYTE   W72
 BYTE   PAN   c_v-14
 BYTE   VOL   18*FE06NatureRSflame_mvl/mxv
 BYTE   W24
// 029   ----------------------------------------
 BYTE   N07  Gn2  v108
 BYTE   W08
 BYTE   An3  v096
 BYTE   W08
 BYTE   Dn4
 BYTE   W08
 BYTE   Gn2  v108
 BYTE   W08
 BYTE   An3  v096
 BYTE   W08
 BYTE   Dn4
 BYTE   W08
 BYTE   Gn2  v108
 BYTE   W08
 BYTE   An3  v096
 BYTE   W08
 BYTE   Dn4
 BYTE   W08
 BYTE   Gn2  v108
 BYTE   W08
 BYTE   An3  v096
 BYTE   W08
 BYTE   Dn4
 BYTE   W08
// 030   ----------------------------------------
Label_6_55F7C8:
 BYTE   N07  Dn2  v108
 BYTE   W08
 BYTE   En3  v096
 BYTE   W08
 BYTE   An3
 BYTE   W08
 BYTE   Dn2  v108
 BYTE   W08
 BYTE   En3  v096
 BYTE   W08
 BYTE   An3
 BYTE   W08
 BYTE   Dn2  v108
 BYTE   W08
 BYTE   En3  v096
 BYTE   W08
 BYTE   An3
 BYTE   W08
 BYTE   Dn2  v108
 BYTE   W08
 BYTE   En3  v096
 BYTE   W08
 BYTE   An3
 BYTE   W08
 BYTE   PEND 
// 031   ----------------------------------------
 BYTE   PATT
  POIN2 Label_6_55F7C8
// 032   ----------------------------------------
 BYTE   PATT
  POIN2 Label_6_55F7C8
// 033   ----------------------------------------
 BYTE   PATT
  POIN2 Label_6_55F7C8
// 034   ----------------------------------------
 BYTE   PATT
  POIN2 Label_6_55F7C8
// 035   ----------------------------------------
 BYTE   PATT
  POIN2 Label_6_55F7C8
// 036   ----------------------------------------
 BYTE   PATT
  POIN2 Label_6_55F7C8
// 037   ----------------------------------------
 BYTE   PATT
  POIN2 Label_6_55F7C8
// 038   ----------------------------------------
 BYTE   PATT
  POIN2 Label_6_55F7C8
// 039   ----------------------------------------
 BYTE   N07  Dn2  v108
 BYTE   W08
 BYTE   En3  v096
 BYTE   W08
 BYTE   An3
 BYTE   W08
 BYTE   Dn2  v108
 BYTE   W08
 BYTE   En3  v096
 BYTE   W08
 BYTE   An3
 BYTE   W08
 BYTE   GoTo
  POIN2 Label_6_55F6CE
// 040   ----------------------------------------
 BYTE   N07  Dn2  v108
 BYTE   W08
 BYTE   En3  v096
 BYTE   W08
 BYTE   An3
 BYTE   W08
 BYTE   Dn2  v108
 BYTE   W08
 BYTE   En3  v096
 BYTE   W08
 BYTE   An3
 BYTE   W07
 BYTE   FINE

//**************** Track 8 (Midi-Chn.7) ****************//

FE06NatureRSflame_008:
// 000   ----------------------------------------
 BYTE   KEYSH   FE06NatureRSflame_key+0
 BYTE   VOICE   47
 BYTE   VOL   45*FE06NatureRSflame_mvl/mxv
 BYTE   PAN   c_v+0
 BYTE   En3
 BYTE   N48  En1  v127
 BYTE   TIE  An2  v108
 BYTE   W96
// 001   ----------------------------------------
 BYTE   W04
 BYTE   EOT
 BYTE   W68
 BYTE   N11  En1
 BYTE   W12
 BYTE   Dn1  v124
 BYTE   N11  An2  v072
 BYTE   W12
// 002   ----------------------------------------
 BYTE   N23  En1  v124
 BYTE   TIE  An2
 BYTE   W24
 BYTE   N23  En1  v108
 BYTE   W24
 BYTE   En1  v116
 BYTE   W24
 BYTE   En1  v112
 BYTE   W24
// 003   ----------------------------------------
 BYTE   En1  v120
 BYTE   W03
 BYTE   EOT
 BYTE   An2
 BYTE   W21
 BYTE   N23  En1  v116
 BYTE   W24
 BYTE   N23
 BYTE   W24
 BYTE   N11  En1  v124
 BYTE   W12
 BYTE   Dn1
 BYTE   W12
// 004   ----------------------------------------
 BYTE   En1  v127
 BYTE   W12
 BYTE   N05  En1  v032
 BYTE   W06
 BYTE   En1  v028
 BYTE   W06
 BYTE   N11  En1  v104
 BYTE   W12
 BYTE   N05  En1  v052
 BYTE   W06
 BYTE   En1  v036
 BYTE   W06
 BYTE   N11  En1  v108
 BYTE   W12
 BYTE   N05  En1  v064
 BYTE   W06
 BYTE   En1  v052
 BYTE   W06
 BYTE   N11  En1  v124
 BYTE   W12
 BYTE   Dn1  v116
 BYTE   W12
// 005   ----------------------------------------
 BYTE   En1  v127
 BYTE   W12
 BYTE   N05  En1  v048
 BYTE   W06
 BYTE   N05
 BYTE   W06
 BYTE   N11  En1  v092
 BYTE   W12
 BYTE   N05  En1  v064
 BYTE   W06
 BYTE   En1  v048
 BYTE   W06
 BYTE   N11  En1  v104
 BYTE   W12
 BYTE   N05  En1  v064
 BYTE   W06
 BYTE   En1  v048
 BYTE   W06
 BYTE   N11  En1  v112
 BYTE   W12
 BYTE   Dn1  v108
 BYTE   N11  An2  v100
 BYTE   W12
// 006   ----------------------------------------
 BYTE   En1  v124
 BYTE   TIE  An2  v120
 BYTE   W12
 BYTE   N05  En1  v052
 BYTE   W06
 BYTE   En1  v012
 BYTE   W06
 BYTE   N11  En1  v092
 BYTE   W12
 BYTE   N05  En1  v060
 BYTE   W06
 BYTE   En1  v048
 BYTE   W06
 BYTE   N11  En1  v096
 BYTE   W12
 BYTE   N05  En1  v060
 BYTE   W06
 BYTE   En1  v064
 BYTE   W06
 BYTE   N11  En1  v112
 BYTE   W12
 BYTE   N05  En1  v048
 BYTE   W06
 BYTE   En1  v028
 BYTE   W06
// 007   ----------------------------------------
 BYTE   N11  En1  v100
 BYTE   W03
 BYTE   EOT
 BYTE   An2
 BYTE   W09
 BYTE   N05  En1  v060
 BYTE   W06
 BYTE   En1  v048
 BYTE   W06
 BYTE   N11  En1  v100
 BYTE   W06
 BYTE   N05  An2  v056
 BYTE   W06
 BYTE   En1  v072
 BYTE   N05  An2  v064
 BYTE   W06
 BYTE   En1  v060
 BYTE   N05  An2  v056
 BYTE   W06
 BYTE   N11  En1  v108
 BYTE   N05  An2  v064
 BYTE   W06
 BYTE   An2  v068
 BYTE   W06
 BYTE   En1  v076
 BYTE   N05  An2  v056
 BYTE   W06
 BYTE   En1  v064
 BYTE   N05  An2  v068
 BYTE   W06
 BYTE   En1  v108
 BYTE   N05  An2  v080
 BYTE   W06
 BYTE   En1  v104
 BYTE   N05  An2  v080
 BYTE   W06
 BYTE   En1  v116
 BYTE   N05  An2  v072
 BYTE   W06
 BYTE   En1  v108
 BYTE   N05  An2  v088
 BYTE   W06
// 008   ----------------------------------------
Label_7_01023534:
 BYTE   N11  En1  v127
 BYTE   N05  An2  v112
 BYTE   W06
 BYTE   N84  An2  v104
 BYTE   W06
 BYTE   N23  En1
 BYTE   W24
 BYTE   N11  En1  v084
 BYTE   W12
 BYTE   En1  v104
 BYTE   W12
 BYTE   N32  En1  v112
 BYTE   W36
// 009   ----------------------------------------
 BYTE   N11  En1  v120
 BYTE   W12
 BYTE   N23  En1  v116
 BYTE   W24
 BYTE   N11  En1  v108
 BYTE   W12
 BYTE   N11
 BYTE   W12
 BYTE   N32  En1  v127
 BYTE   W36
// 010   ----------------------------------------
 BYTE   N11  En1  v116
 BYTE   W12
 BYTE   N23  En1  v112
 BYTE   W24
 BYTE   N11  En1  v088
 BYTE   W12
 BYTE   En1  v108
 BYTE   W12
 BYTE   N32  En1  v116
 BYTE   W36
// 011   ----------------------------------------
 BYTE   N11
 BYTE   W12
 BYTE   N23  En1  v124
 BYTE   W24
 BYTE   N11  En1  v116
 BYTE   W12
 BYTE   En1  v120
 BYTE   W12
 BYTE   N23  En1  v127
 BYTE   W24
 BYTE   N11  Dn1  v116
 BYTE   W12
// 012   ----------------------------------------
 BYTE   En1
 BYTE   W12
 BYTE   N23  En1  v120
 BYTE   W24
 BYTE   N11  En1  v104
 BYTE   W12
 BYTE   En1  v120
 BYTE   W12
 BYTE   N32
 BYTE   W36
// 013   ----------------------------------------
 BYTE   N11  En1  v116
 BYTE   W12
 BYTE   N23  En1  v124
 BYTE   W24
 BYTE   N11  En1  v112
 BYTE   W12
 BYTE   N11
 BYTE   W12
 BYTE   N32  En1  v124
 BYTE   W36
// 014   ----------------------------------------
 BYTE   N11  En1  v120
 BYTE   W12
 BYTE   N23
 BYTE   W24
 BYTE   N11  En1  v108
 BYTE   W12
 BYTE   En1  v120
 BYTE   W12
 BYTE   N23
 BYTE   W24
 BYTE   N11  Dn1  v096
 BYTE   W12
// 015   ----------------------------------------
 BYTE   En1  v116
 BYTE   W12
 BYTE   N23  En1  v108
 BYTE   W24
 BYTE   N11  Dn1
 BYTE   W06
 BYTE   N05  An2  v040
 BYTE   W06
 BYTE   N11  En1  v112
 BYTE   N05  An2  v044
 BYTE   W06
 BYTE   An2  v064
 BYTE   W06
 BYTE   N11  Dn1  v124
 BYTE   N05  An2  v064
 BYTE   W06
 BYTE   An2  v056
 BYTE   W06
 BYTE   N11  En1  v120
 BYTE   N05  An2  v064
 BYTE   W06
 BYTE   An2  v068
 BYTE   W06
 BYTE   N11  Dn1  v116
 BYTE   N05  An2  v068
 BYTE   W06
 BYTE   An2  v084
 BYTE   W06
// 016   ----------------------------------------
 BYTE   N11  En1  v120
 BYTE   N72  An2  v112
 BYTE   W12
 BYTE   N23  En1  v116
 BYTE   W24
 BYTE   N11  En1  v096
 BYTE   W12
 BYTE   En1  v112
 BYTE   W12
 BYTE   N32  En1  v116
 BYTE   W36
// 017   ----------------------------------------
 BYTE   N11  En1  v120
 BYTE   W12
 BYTE   N23  En1  v124
 BYTE   W24
 BYTE   N11  En1  v108
 BYTE   W12
 BYTE   En1  v116
 BYTE   W12
 BYTE   N32  En1  v124
 BYTE   W36
// 018   ----------------------------------------
 BYTE   N11  En1  v112
 BYTE   W12
 BYTE   N23  En1  v124
 BYTE   W24
 BYTE   N11  En1  v104
 BYTE   W12
 BYTE   En1  v120
 BYTE   W12
 BYTE   N32
 BYTE   W36
// 019   ----------------------------------------
 BYTE   N11  En1  v116
 BYTE   W12
 BYTE   N23  En1  v120
 BYTE   W24
 BYTE   N11  En1  v112
 BYTE   W12
 BYTE   En1  v116
 BYTE   W12
 BYTE   N23  En1  v127
 BYTE   W24
 BYTE   N11  Dn1  v104
 BYTE   W12
// 020   ----------------------------------------
 BYTE   En1  v108
 BYTE   W12
 BYTE   N23
 BYTE   W24
 BYTE   N11  En1  v104
 BYTE   W12
 BYTE   En1  v108
 BYTE   W12
 BYTE   N32
 BYTE   W36
// 021   ----------------------------------------
 BYTE   N11  En1  v116
 BYTE   W12
 BYTE   N23  En1  v127
 BYTE   W24
 BYTE   N11  En1  v104
 BYTE   W12
 BYTE   En1  v116
 BYTE   W12
 BYTE   N32  En1  v120
 BYTE   W36
// 022   ----------------------------------------
 BYTE   N11  En1  v124
 BYTE   W12
 BYTE   N23
 BYTE   W24
 BYTE   N11  En1  v112
 BYTE   W12
 BYTE   En1  v124
 BYTE   W12
 BYTE   N23
 BYTE   W24
 BYTE   N11  Dn1  v100
 BYTE   W12
// 023   ----------------------------------------
 BYTE   En1  v112
 BYTE   W12
 BYTE   Dn1  v060
 BYTE   W12
 BYTE   En1  v084
 BYTE   W12
 BYTE   Dn1  v100
 BYTE   W12
 BYTE   En1  v124
 BYTE   W12
 BYTE   Dn1  v127
 BYTE   N11  An2  v036
 BYTE   W12
 BYTE   En1  v127
 BYTE   N11  An2  v064
 BYTE   W12
 BYTE   Dn1  v116
 BYTE   N11  An2  v076
 BYTE   W12
// 024   ----------------------------------------
 BYTE   N48  En1  v127
 BYTE   N80  An2  v120
 BYTE   W84
 BYTE   N11  An2  v096
 BYTE   W12
// 025   ----------------------------------------
 BYTE   N80  An2  v108
 BYTE   W84
 BYTE   N11  Dn1  v124
 BYTE   N11  An2  v100
 BYTE   W12
// 026   ----------------------------------------
 BYTE   N48  En1  v127
 BYTE   TIE  An2  v116
 BYTE   W96
// 027   ----------------------------------------
 BYTE   W03
 BYTE   EOT
 BYTE   W80
 BYTE   W01
 BYTE   N11  Dn1  v120
 BYTE   N11  An2  v100
 BYTE   W12
// 028   ----------------------------------------
 BYTE   N52  En1  v127
 BYTE   TIE  An2  v120
 BYTE   W84
 BYTE   N05  En1  v088
 BYTE   W06
 BYTE   En1  v084
 BYTE   W06
// 029   ----------------------------------------
 BYTE   N11  En1  v096
 BYTE   W03
 BYTE   EOT
 BYTE   An2
 BYTE   W09
 BYTE   N05  En1  v100
 BYTE   W06
 BYTE   En1  v088
 BYTE   W06
 BYTE   N11  En1  v096
 BYTE   W12
 BYTE   N05  En1  v080
 BYTE   W06
 BYTE   En1  v072
 BYTE   W06
 BYTE   N11  En1  v088
 BYTE   W12
 BYTE   N05  En1  v072
 BYTE   W06
 BYTE   En1  v084
 BYTE   W06
 BYTE   N11  En1  v104
 BYTE   W12
 BYTE   N05  En1  v108
 BYTE   W06
 BYTE   En1  v096
 BYTE   W06
// 030   ----------------------------------------
 BYTE   N11  En1  v120
 BYTE   W12
 BYTE   N05  En1  v096
 BYTE   W06
 BYTE   En1  v088
 BYTE   W06
 BYTE   N11  En1  v092
 BYTE   W12
 BYTE   N05  En1  v100
 BYTE   W06
 BYTE   En1  v096
 BYTE   W06
 BYTE   N11  En1  v100
 BYTE   W12
 BYTE   N05  En1  v104
 BYTE   W06
 BYTE   En1  v092
 BYTE   W06
 BYTE   N11  En1  v108
 BYTE   W12
 BYTE   N05  En1  v092
 BYTE   W06
 BYTE   N05
 BYTE   W06
// 031   ----------------------------------------
 BYTE   N11  En1  v116
 BYTE   W12
 BYTE   N05  En1  v096
 BYTE   W06
 BYTE   En1  v076
 BYTE   W06
 BYTE   N11  En1  v084
 BYTE   W12
 BYTE   N05  En1  v104
 BYTE   W06
 BYTE   En1  v092
 BYTE   W06
 BYTE   N11
 BYTE   N05  An2  v032
 BYTE   W06
 BYTE   An2  v048
 BYTE   W06
 BYTE   En1  v104
 BYTE   N05  An2  v044
 BYTE   W06
 BYTE   En1  v100
 BYTE   N05  An2  v044
 BYTE   W06
 BYTE   N11  En1  v100
 BYTE   N05  An2  v052
 BYTE   W06
 BYTE   N05
 BYTE   W06
 BYTE   N11  Dn1  v116
 BYTE   N05  An2  v056
 BYTE   W06
 BYTE   An2  v072
 BYTE   W06
// 032   ----------------------------------------
 BYTE   N48  En1  v116
 BYTE   TIE  An2  v112
 BYTE   W96
// 033   ----------------------------------------
 BYTE   W03
 BYTE   EOT
 BYTE   W80
 BYTE   W01
 BYTE   N05  En1
 BYTE   W06
 BYTE   Dn1  v100
 BYTE   W06
// 034   ----------------------------------------
 BYTE   N52  En1  v112
 BYTE   W96
// 035   ----------------------------------------
 BYTE   W84
 BYTE   N05
 BYTE   N11  An2  v088
 BYTE   W06
 BYTE   N05  Dn1  v104
 BYTE   W06
// 036   ----------------------------------------
 BYTE   N54  En1  v120
 BYTE   TIE  An2  v108
 BYTE   W96
// 037   ----------------------------------------
 BYTE   W03
 BYTE   EOT
 BYTE   W80
 BYTE   W01
 BYTE   N05  En1  v112
 BYTE   W06
 BYTE   Dn1  v108
 BYTE   W06
// 038   ----------------------------------------
 BYTE   N52  En1  v116
 BYTE   W84
 BYTE   N05  En1  v056
 BYTE   W06
 BYTE   Dn1  v080
 BYTE   W06
// 039   ----------------------------------------
 BYTE   N11  En1  v084
 BYTE   W12
 BYTE   N05  En1  v068
 BYTE   W06
 BYTE   N05
 BYTE   W06
 BYTE   N11  En1  v092
 BYTE   W12
 BYTE   N05  En1  v080
 BYTE   W06
 BYTE   En1  v072
 BYTE   W06
 BYTE   GoTo
  POIN2 Label_7_01023534
// 040   ----------------------------------------
 BYTE   N11  En1  v084
 BYTE   W12
 BYTE   N05  En1  v092
 BYTE   W06
 BYTE   En1  v084
 BYTE   W06
 BYTE   N11  En1  v080
 BYTE   N05  An2  v068
 BYTE   W06
 BYTE   An2  v060
 BYTE   W06
 BYTE   N11  En1  v100
 BYTE   N05  An2  v068
 BYTE   W06
 BYTE   An2  v080
 BYTE   W05
 BYTE   FINE

//******************************************************//
	ALIGN 4

FE06NatureRSflame:
	BYTE	8	// NumTrks
	BYTE	0	// NumBlks
	BYTE	FE06NatureRSflame_pri	// Priority
	BYTE	FE06NatureRSflame_rev	// Reverb.
    
	POIN2	FE06NatureRSflame_grp
    
	POIN2	FE06NatureRSflame_001
	POIN2	FE06NatureRSflame_002
	POIN2	FE06NatureRSflame_003
	POIN2	FE06NatureRSflame_004
	POIN2	FE06NatureRSflame_005
	POIN2	FE06NatureRSflame_006
	POIN2	FE06NatureRSflame_007
	POIN2	FE06NatureRSflame_008

	
