//Event file generated from Sappy .s format.
	#include "MPlayDef.event"

	#define	FE06TheKingdomofBernTristanHollow_grp  voicegroup000
	#define	FE06TheKingdomofBernTristanHollow_pri  10
	#define	FE06TheKingdomofBernTristanHollow_rev  158
	#define	FE06TheKingdomofBernTristanHollow_mvl  127
	#define	FE06TheKingdomofBernTristanHollow_key  0
	#define	FE06TheKingdomofBernTristanHollow_tbs  1
	#define	FE06TheKingdomofBernTristanHollow_exg  0
	#define	FE06TheKingdomofBernTristanHollow_cmp  1

	// .rodata
	//	FE06TheKingdomofBernTristanHollow
	ALIGN 4


//**************** Track 1 (Midi-Chn.0) ****************//

FE06TheKingdomofBernTristanHollow_001:
// 000   ----------------------------------------
 BYTE   KEYSH   FE06TheKingdomofBernTristanHollow_key+0
Label_0_0101102E:
 BYTE   TEMPO   100*FE06TheKingdomofBernTristanHollow_tbs/2
 BYTE   VOICE   61
 BYTE   VOL   57*FE06TheKingdomofBernTristanHollow_mvl/mxv
 BYTE   PAN   c_v+5
 BYTE   N16  Dn2  v104
 BYTE   N16  Gn2  v112
 BYTE   W18
 BYTE   N05  Gn2  v028
 BYTE   W06
 BYTE   N16  Dn2  v112
 BYTE   N17  Gn2  v116
 BYTE   W18
 BYTE   N05  Gn2  v028
 BYTE   W06
 BYTE   N17  Dn2  v116
 BYTE   N17  Gn2
 BYTE   W18
 BYTE   N05  Gn2  v028
 BYTE   W06
 BYTE   En2  v116
 BYTE   N05  An2  v108
 BYTE   W06
 BYTE   An2  v028
 BYTE   W06
 BYTE   Fn2  v116
 BYTE   N05  As2  v100
 BYTE   W06
 BYTE   As2  v028
 BYTE   W06
// 001   ----------------------------------------
 BYTE   N17  Gn2  v116
 BYTE   N17  Cn3
 BYTE   W18
 BYTE   N05  Cn3  v028
 BYTE   W06
 BYTE   Fn2  v112
 BYTE   N05  As2  v100
 BYTE   W06
 BYTE   As2  v028
 BYTE   W06
 BYTE   En2  v100
 BYTE   N05  An2  v108
 BYTE   W06
 BYTE   An2  v028
 BYTE   W06
 BYTE   N17  Fn2  v108
 BYTE   N17  As2  v100
 BYTE   W18
 BYTE   N05  As2  v028
 BYTE   W06
 BYTE   N17  Dn2  v104
 BYTE   N17  Gn2  v116
 BYTE   W18
 BYTE   N05  Gn2  v028
 BYTE   W06
// 002   ----------------------------------------
 BYTE   N17  En2  v108
 BYTE   N17  An2  v112
 BYTE   W18
 BYTE   N05  An2  v028
 BYTE   W06
 BYTE   N17  Fn2  v100
 BYTE   N17  As2  v116
 BYTE   W18
 BYTE   N05  As2  v028
 BYTE   W06
 BYTE   N17  Gn2  v104
 BYTE   N17  Cn3  v116
 BYTE   W18
 BYTE   N05  Cn3  v028
 BYTE   W06
 BYTE   N17  An2  v104
 BYTE   N17  Dn3  v116
 BYTE   W18
 BYTE   N05  Dn3  v028
 BYTE   W06
// 003   ----------------------------------------
 BYTE   Fn2  v104
 BYTE   N05  As2  v100
 BYTE   W06
 BYTE   As2  v028
 BYTE   W06
 BYTE   En2  v112
 BYTE   N05  An2
 BYTE   W06
 BYTE   An2  v028
 BYTE   W06
 BYTE   N60  Dn2  v108
 BYTE   N60  Gn2  v116
 BYTE   W66
 BYTE   N05  Gn2  v028
 BYTE   W06
// 004   ----------------------------------------
 BYTE   N17  Dn2  v112
 BYTE   N17  Gn2  v116
 BYTE   W18
 BYTE   N05  Gn2  v028
 BYTE   W06
 BYTE   N17  Dn2  v108
 BYTE   N17  Gn2  v116
 BYTE   W18
 BYTE   N05  Gn2  v028
 BYTE   W06
 BYTE   N17  Dn2  v104
 BYTE   N17  Gn2  v116
 BYTE   W18
 BYTE   N05  Gn2  v028
 BYTE   W06
 BYTE   En2  v108
 BYTE   N05  An2  v116
 BYTE   W06
 BYTE   An2  v028
 BYTE   W06
 BYTE   Fn2  v100
 BYTE   N05  As2
 BYTE   W06
 BYTE   As2  v028
 BYTE   W06
// 005   ----------------------------------------
 BYTE   N17  Gn2  v116
 BYTE   N17  Cn3
 BYTE   W18
 BYTE   N05  Cn3  v028
 BYTE   W06
 BYTE   Fn2  v096
 BYTE   N05  As2  v100
 BYTE   W06
 BYTE   As2  v028
 BYTE   W06
 BYTE   Gn2  v100
 BYTE   N05  Cn3  v108
 BYTE   W06
 BYTE   Cn3  v028
 BYTE   W06
 BYTE   N11  An2  v116
 BYTE   N11  Dn3
 BYTE   W12
 BYTE   N05  Dn3  v028
 BYTE   W12
 BYTE   N16  Cn3  v108
 BYTE   N15  Fn3  v112
 BYTE   W18
 BYTE   N05  Fn3  v028
 BYTE   W06
// 006   ----------------------------------------
 BYTE   N17  Bn2  v116
 BYTE   N17  En3
 BYTE   W18
 BYTE   N05  En3  v028
 BYTE   W06
 BYTE   N17  Gn2  v108
 BYTE   N17  Cn3  v116
 BYTE   W18
 BYTE   N05  Cn3  v028
 BYTE   W06
 BYTE   N17  An2  v116
 BYTE   N17  Dn3
 BYTE   W18
 BYTE   N05  Dn3  v028
 BYTE   W06
 BYTE   N17  Fn2  v104
 BYTE   N17  As2
 BYTE   W18
 BYTE   N05  As2  v028
 BYTE   W06
// 007   ----------------------------------------
 BYTE   N76  En2  v116
 BYTE   N76  An2
 BYTE   W78
 BYTE   N05  An2  v028
 BYTE   W18
// 008   ----------------------------------------
 BYTE   N17  Fn2  v104
 BYTE   N17  As2
 BYTE   W18
 BYTE   N05  As2  v028
 BYTE   W06
 BYTE   N17  Fn2  v116
 BYTE   N17  As2
 BYTE   W18
 BYTE   N05  As2  v028
 BYTE   W06
 BYTE   N16  Fn2  v116
 BYTE   N17  As2
 BYTE   W18
 BYTE   N05  As2  v028
 BYTE   W06
 BYTE   Gn2  v108
 BYTE   N05  Cn3  v116
 BYTE   W06
 BYTE   Cn3  v028
 BYTE   W06
 BYTE   Gs2  v100
 BYTE   N05  Cs3
 BYTE   W06
 BYTE   Cs3  v028
 BYTE   W06
// 009   ----------------------------------------
 BYTE   N17  As2  v108
 BYTE   N17  Ds3  v112
 BYTE   W18
 BYTE   N05  Ds3  v028
 BYTE   W06
 BYTE   Gs2  v104
 BYTE   N05  Cs3  v100
 BYTE   W06
 BYTE   Cs3  v028
 BYTE   W06
 BYTE   Gn2  v096
 BYTE   N05  Cn3  v112
 BYTE   W06
 BYTE   Cn3  v028
 BYTE   W06
 BYTE   N17  Gs2  v100
 BYTE   N17  Cs3
 BYTE   W18
 BYTE   N05  Cs3  v028
 BYTE   W06
 BYTE   N14  Fn2  v104
 BYTE   N17  As2  v112
 BYTE   W18
 BYTE   N05  As2  v028
 BYTE   W06
// 010   ----------------------------------------
 BYTE   Gn2  v108
 BYTE   N05  Cn3
 BYTE   W06
 BYTE   Cn3  v028
 BYTE   W06
 BYTE   Gs2  v092
 BYTE   N05  Cs3  v100
 BYTE   W06
 BYTE   Cs3  v028
 BYTE   W06
 BYTE   N17  As2  v112
 BYTE   N17  Ds3  v104
 BYTE   W18
 BYTE   N05  Ds3  v028
 BYTE   W06
 BYTE   N17  Gs2  v104
 BYTE   N17  Cs3  v100
 BYTE   W18
 BYTE   N05  Cs3  v028
 BYTE   W06
 BYTE   N17  Gn2  v108
 BYTE   N17  Cn3  v116
 BYTE   W18
 BYTE   N05  Cn3  v028
 BYTE   W06
// 011   ----------------------------------------
 BYTE   N68  Fn2  v104
 BYTE   N68  As2  v112
 BYTE   W72
 BYTE   N05  As2  v028
 BYTE   W24
// 012   ----------------------------------------
 BYTE   N17  Fn2  v116
 BYTE   N17  As2
 BYTE   W18
 BYTE   N05  As2  v028
 BYTE   W06
 BYTE   N16  Fn2  v112
 BYTE   N16  As2  v100
 BYTE   W18
 BYTE   N05  As2  v028
 BYTE   W06
 BYTE   N17  Fn2  v112
 BYTE   N17  As2
 BYTE   W18
 BYTE   N05  As2  v028
 BYTE   W06
 BYTE   Fn2  v100
 BYTE   N05  As2  v096
 BYTE   W06
 BYTE   As2  v028
 BYTE   W06
 BYTE   N03  Fn2  v104
 BYTE   N05  As2
 BYTE   W06
 BYTE   As2  v028
 BYTE   W06
// 013   ----------------------------------------
 BYTE   N17  Gn2  v112
 BYTE   N17  As2  v108
 BYTE   W18
 BYTE   N05  As2  v028
 BYTE   W06
 BYTE   Fn2  v100
 BYTE   N05  Gs2
 BYTE   W06
 BYTE   Gs2  v028
 BYTE   W06
 BYTE   N04  Fn2  v088
 BYTE   N05  Gs2
 BYTE   W06
 BYTE   Gs2  v028
 BYTE   W06
 BYTE   N11  Fn2  v100
 BYTE   N11  As2  v112
 BYTE   W12
 BYTE   N05  As2  v028
 BYTE   W12
 BYTE   N11  Cs2  v088
 BYTE   N11  Fn2  v092
 BYTE   W12
 BYTE   N05  Fn2  v028
 BYTE   W12
// 014   ----------------------------------------
 BYTE   N04  Fn2  v112
 BYTE   N05  Cn3  v116
 BYTE   W06
 BYTE   Cn3  v028
 BYTE   W06
 BYTE   Gn2  v112
 BYTE   N03  Cs3  v108
 BYTE   W06
 BYTE   N05  Cs3  v028
 BYTE   W06
 BYTE   N17  Gs2  v108
 BYTE   N17  Ds3  v112
 BYTE   W18
 BYTE   N05  Ds3  v028
 BYTE   W06
 BYTE   Gs2  v092
 BYTE   N05  Cs3  v104
 BYTE   W06
 BYTE   Cs3  v028
 BYTE   W06
 BYTE   As2  v092
 BYTE   N05  Ds3  v088
 BYTE   W06
 BYTE   Ds3  v028
 BYTE   W06
 BYTE   N17  Cn3  v116
 BYTE   W18
 BYTE   N05  Cn3  v028
 BYTE   W06
// 015   ----------------------------------------
 BYTE   As2  v108
 BYTE   N05  Ds3  v116
 BYTE   W06
 BYTE   Ds3  v028
 BYTE   W06
 BYTE   Cn3  v108
 BYTE   N05  Fn3  v116
 BYTE   W06
 BYTE   Fn3  v028
 BYTE   W06
 BYTE   N24  Cs3  v104
 BYTE   N24  Fs3  v108
 BYTE   W24
 BYTE   N05  Fs3  v028
 BYTE   W12
 BYTE   Cs3  v092
 BYTE   N05  Fs3  v112
 BYTE   W06
 BYTE   Fs3  v028
 BYTE   W06
 BYTE   Ds3  v100
 BYTE   N05  Gs3  v104
 BYTE   W06
 BYTE   Gs3  v028
 BYTE   W06
 BYTE   N03  En3  v116
 BYTE   N05  As3  v100
 BYTE   W06
 BYTE   As3  v028
 BYTE   W06
// 016   ----------------------------------------
 BYTE   N56  En3  v116
 BYTE   N56  An3
 BYTE   W60
 BYTE   N11  Gn3  v104
 BYTE   W12
 BYTE   N08  An3
 BYTE   W12
 BYTE   En3
 BYTE   W12
// 017   ----------------------------------------
 BYTE   N22  Fn3  v100
 BYTE   N22  An3  v116
 BYTE   W24
 BYTE   N08  An3  v104
 BYTE   W12
 BYTE   Gn3
 BYTE   W12
 BYTE   N21  En3
 BYTE   N22  An3  v116
 BYTE   W24
 BYTE   N19  Cn3  v092
 BYTE   N22  En3  v100
 BYTE   W24
// 018   ----------------------------------------
 BYTE   N19  Dn3  v096
 BYTE   N22  Gn3  v104
 BYTE   W24
 BYTE   N19  En3  v100
 BYTE   N17  Gn3  v104
 BYTE   W24
 BYTE   N20  Fn3
 BYTE   N19  An3  v108
 BYTE   W24
 BYTE   N20  Gn3  v096
 BYTE   N20  Bn3  v112
 BYTE   W24
// 019   ----------------------------------------
 BYTE   N68  An3  v100
 BYTE   N68  Cn4  v116
 BYTE   W72
 BYTE   N11  Gn3  v088
 BYTE   N10  Bn3  v116
 BYTE   W12
 BYTE   N11  Gn3  v028
 BYTE   N10  Bn3  v032
 BYTE   W12
// 020   ----------------------------------------
 BYTE   N68  An2  v116
 BYTE   N68  Cn3
 BYTE   W72
 BYTE   N12  Gn2  v108
 BYTE   N12  Bn2  v116
 BYTE   W24
// 021   ----------------------------------------
 BYTE   N17  Fn2
 BYTE   N18  An2
 BYTE   W24
 BYTE   N20  En2
 BYTE   N20  Gn2
 BYTE   W24
 BYTE   N19  Dn2  v104
 BYTE   N19  Fn2  v112
 BYTE   W24
 BYTE   N23  Cn2  v116
 BYTE   N23  En2
 BYTE   W24
// 022   ----------------------------------------
 BYTE   W24
 BYTE   N44  Cn3
 BYTE   N44  Ds3
 BYTE   N44  Gs3  v112
 BYTE   W48
 BYTE   N11  Bn2  v116
 BYTE   N11  Dn3
 BYTE   N11  Gn3
 BYTE   W12
 BYTE   Bn2  v032
 BYTE   N11  Dn3  v036
 BYTE   N11  Gn3  v032
 BYTE   W12
// 023   ----------------------------------------
 BYTE   W24
 BYTE   N44  As2  v108
 BYTE   N44  Cs3
 BYTE   N44  Fs3
 BYTE   W48
 BYTE   N11  Bn2  v112
 BYTE   N10  Dn3
 BYTE   N10  Gn3  v116
 BYTE   W12
 BYTE   N11  Bn2  v024
 BYTE   N10  Dn3
 BYTE   N10  Gn3  v032
 BYTE   W12
// 024   ----------------------------------------
Label_0_0101139D:
 BYTE   TIE  Fn2  v088
 BYTE   TIE  As2
 BYTE   TIE  Ds3  v096
 BYTE   W96
 BYTE   PEND 
// 025   ----------------------------------------
 BYTE   W24
 BYTE   W02
 BYTE   EOT
 BYTE   Fn2
 BYTE   W02
 BYTE   As2
 BYTE   W01
 BYTE   Ds3
 BYTE   W19
 BYTE   N44  Fn2  v088
 BYTE   N44  As2
 BYTE   N42  Ds3  v096
 BYTE   W48
 BYTE   PATT
  POIN2 Label_0_0101139D
// 026   ----------------------------------------
 BYTE   W03
 BYTE   EOT
 BYTE   Ds3
 BYTE   W01
 BYTE   Fn2  v058
 BYTE   W20
 BYTE   N24  Fn2  v088
 BYTE   N24  As2
 BYTE   N24  Ds3  v096
 BYTE   W48
 BYTE   N09  Fn2  v088
 BYTE   N09  As2
 BYTE   N09  Ds3  v096
 BYTE   W12
 BYTE   Fn2  v024
 BYTE   N09  As2
 BYTE   N09  Ds3  v036
 BYTE   W12
// 027   ----------------------------------------
 BYTE   GoTo
  POIN2 Label_0_0101102E
 BYTE   FINE

//**************** Track 2 (Midi-Chn.1) ****************//

FE06TheKingdomofBernTristanHollow_002:
// 000   ----------------------------------------
 BYTE   KEYSH   FE06TheKingdomofBernTristanHollow_key+0
Label_1_010113EA:
 BYTE   W72
 BYTE   VOICE   60
 BYTE   MOD 0
 BYTE   CnM2  v000
 BYTE   CnM2  v000
 BYTE   CnM2  v000
 BYTE   CnM2  v000
 BYTE   CnM2  v000
 BYTE   CnM2  v001
 BYTE   VOL   55*FE06TheKingdomofBernTristanHollow_mvl/mxv
 BYTE   PAN   c_v-8
 BYTE   W24
// 001   ----------------------------------------
 BYTE   W72
 BYTE   N17  Gn2  v120
 BYTE   W18
 BYTE   N05  Gn2  v032
 BYTE   W06
// 002   ----------------------------------------
 BYTE   N88  Dn3  v120
 BYTE   W90
 BYTE   N05  Dn3  v032
 BYTE   W06
// 003   ----------------------------------------
 BYTE   W72
 BYTE   N17  Dn3  v120
 BYTE   W18
 BYTE   N05  Dn3  v032
 BYTE   W06
// 004   ----------------------------------------
 BYTE   N68  Gn2  v120
 BYTE   W72
 BYTE   N05  Gn2  v032
 BYTE   W24
// 005   ----------------------------------------
 BYTE   W96
// 006   ----------------------------------------
 BYTE   W96
// 007   ----------------------------------------
 BYTE   W48
 BYTE   N44  An2  v120
 BYTE   W48
// 008   ----------------------------------------
 BYTE   N05  An2  v032
 BYTE   W48
 BYTE   N88  As2  v120
 BYTE   W48
// 009   ----------------------------------------
 BYTE   W42
 BYTE   N05  As2  v032
 BYTE   W06
 BYTE   N15  Cn3  v120
 BYTE   W18
 BYTE   N05  Cn3  v032
 BYTE   W06
 BYTE   N15  Cs3  v120
 BYTE   W18
 BYTE   N05  Cs3  v032
 BYTE   W06
// 010   ----------------------------------------
 BYTE   N88  Ds3  v120
 BYTE   W90
 BYTE   N05  Ds3  v032
 BYTE   W06
// 011   ----------------------------------------
 BYTE   N68  Fn3  v120
 BYTE   W72
 BYTE   VOICE   48
 BYTE   VOL   62*FE06TheKingdomofBernTristanHollow_mvl/mxv
 BYTE   PAN   c_v-9
 BYTE   N05  Fn2  v032
 BYTE   W24
// 012   ----------------------------------------
 BYTE   N19  Cs3  v120
 BYTE   W24
 BYTE   Cs3  v116
 BYTE   W24
 BYTE   Cs3  v120
 BYTE   W24
 BYTE   N05  Cn3  v112
 BYTE   W06
 BYTE   Cn3  v032
 BYTE   W06
 BYTE   Cs3  v108
 BYTE   W06
 BYTE   Cs3  v028
 BYTE   W06
// 013   ----------------------------------------
 BYTE   N19  Ds3  v104
 BYTE   W24
 BYTE   N05  Cs3
 BYTE   W06
 BYTE   Cs3  v024
 BYTE   W06
 BYTE   Cn3  v104
 BYTE   W06
 BYTE   Cn3  v028
 BYTE   W06
 BYTE   N19  Cs3  v127
 BYTE   W24
 BYTE   As2  v104
 BYTE   W24
// 014   ----------------------------------------
 BYTE   N05  Cn3  v120
 BYTE   W06
 BYTE   Cn3  v040
 BYTE   W06
 BYTE   Cs3  v108
 BYTE   W06
 BYTE   Cs3  v032
 BYTE   W06
 BYTE   N19  Ds3  v112
 BYTE   W24
 BYTE   N05  Cs3  v104
 BYTE   W06
 BYTE   Cs3  v024
 BYTE   W06
 BYTE   Ds3  v100
 BYTE   W06
 BYTE   Ds3  v024
 BYTE   W06
 BYTE   N19  Fn3  v116
 BYTE   W24
// 015   ----------------------------------------
 BYTE   N05  Ds3
 BYTE   W06
 BYTE   Ds3  v036
 BYTE   W06
 BYTE   Fn3  v116
 BYTE   W06
 BYTE   Fn3  v036
 BYTE   W06
 BYTE   N30  Fs3  v108
 BYTE   W36
 BYTE   N05  Fs3  v112
 BYTE   W06
 BYTE   Fs3  v036
 BYTE   W06
 BYTE   Gs3  v104
 BYTE   W06
 BYTE   Gs3  v028
 BYTE   W06
 BYTE   As3  v108
 BYTE   W06
 BYTE   As3  v032
 BYTE   W06
// 016   ----------------------------------------
 BYTE   N56  Cn4  v100
 BYTE   W60
 BYTE   N11  Bn3
 BYTE   W12
 BYTE   Cn4
 BYTE   W12
 BYTE   An3
 BYTE   W12
// 017   ----------------------------------------
 BYTE   N23  Dn4
 BYTE   W24
 BYTE   N11  Cn4
 BYTE   W12
 BYTE   Bn3
 BYTE   W12
 BYTE   N23  Cn4  v088
 BYTE   W24
 BYTE   An3  v100
 BYTE   W24
// 018   ----------------------------------------
 BYTE   Bn3
 BYTE   W24
 BYTE   Cn4
 BYTE   W24
 BYTE   Dn4
 BYTE   W24
 BYTE   En4
 BYTE   W24
// 019   ----------------------------------------
 BYTE   N68  Fn4
 BYTE   W72
 BYTE   N11  En4
 BYTE   W12
 BYTE   En4  v028
 BYTE   W12
// 020   ----------------------------------------
 BYTE   N68  Fn4  v100
 BYTE   W72
 BYTE   N11  En4
 BYTE   W12
 BYTE   En4  v040
 BYTE   W12
// 021   ----------------------------------------
 BYTE   Dn4  v100
 BYTE   W12
 BYTE   Dn4  v036
 BYTE   W12
 BYTE   Cn4  v100
 BYTE   W12
 BYTE   Cn4  v036
 BYTE   W12
 BYTE   Bn3  v100
 BYTE   W12
 BYTE   Bn3  v028
 BYTE   W12
 BYTE   An3  v100
 BYTE   W12
 BYTE   An3  v032
 BYTE   W12
// 022   ----------------------------------------
 BYTE   W96
// 023   ----------------------------------------
 BYTE   W96
// 024   ----------------------------------------
 BYTE   W96
// 025   ----------------------------------------
 BYTE   W96
// 026   ----------------------------------------
 BYTE   W96
// 027   ----------------------------------------
 BYTE   W96
// 028   ----------------------------------------
 BYTE   GoTo
  POIN2 Label_1_010113EA
 BYTE   FINE

//**************** Track 3 (Midi-Chn.2) ****************//

FE06TheKingdomofBernTristanHollow_003:
// 000   ----------------------------------------
 BYTE   KEYSH   FE06TheKingdomofBernTristanHollow_key+0
Label_2_0101152A:
 BYTE   W72
 BYTE   VOICE   60
 BYTE   MOD 0
 BYTE   CnM2  v000
 BYTE   CnM2  v000
 BYTE   CnM2  v000
 BYTE   CnM2  v000
 BYTE   CnM2  v000
 BYTE   CnM2  v000
 BYTE   VOL   24*FE06TheKingdomofBernTristanHollow_mvl/mxv
 BYTE   PAN   c_v-8
 BYTE   BEND   c_v-3
 BYTE   W24
// 001   ----------------------------------------
 BYTE   W72
 BYTE   N18  Gn2  v100
 BYTE   W24
// 002   ----------------------------------------
 BYTE   TIE  Dn3
 BYTE   W96
// 003   ----------------------------------------
 BYTE   W02
 BYTE   EOT
 BYTE   W68
 BYTE   W02
 BYTE   N20
 BYTE   W24
// 004   ----------------------------------------
 BYTE   N68  Gn2
 BYTE   W96
// 005   ----------------------------------------
 BYTE   W96
// 006   ----------------------------------------
 BYTE   W96
// 007   ----------------------------------------
 BYTE   W48
 BYTE   N52  An2
 BYTE   W48
// 008   ----------------------------------------
 BYTE   W48
 BYTE   N92  As2
 BYTE   W48
// 009   ----------------------------------------
 BYTE   W48
 BYTE   N15  Cn3
 BYTE   W24
 BYTE   Cs3
 BYTE   W24
// 010   ----------------------------------------
 BYTE   N90  Ds3
 BYTE   W96
// 011   ----------------------------------------
 BYTE   N72  Fn3
 BYTE   W96
// 012   ----------------------------------------
 BYTE   VOICE   14
 BYTE   VOL   47*FE06TheKingdomofBernTristanHollow_mvl/mxv
 BYTE   PAN   c_v+0
 BYTE   N18  Cs3  v120
 BYTE   W24
 BYTE   Cs3  v116
 BYTE   W24
 BYTE   Cs3  v120
 BYTE   W24
 BYTE   N11  Cn3  v112
 BYTE   W12
 BYTE   Cs3  v108
 BYTE   W12
// 013   ----------------------------------------
 BYTE   N18  Ds3  v100
 BYTE   W24
 BYTE   N11  Cs3
 BYTE   W12
 BYTE   Cn3  v104
 BYTE   W12
 BYTE   N18  Cs3  v127
 BYTE   W24
 BYTE   As2  v104
 BYTE   W24
// 014   ----------------------------------------
 BYTE   N11  Cn3  v120
 BYTE   W12
 BYTE   Cs3  v108
 BYTE   W12
 BYTE   N18  Ds3  v112
 BYTE   W24
 BYTE   N11  Cs3  v104
 BYTE   W12
 BYTE   Ds3  v088
 BYTE   W12
 BYTE   N18  Fn3  v116
 BYTE   W24
// 015   ----------------------------------------
 BYTE   N11  Ds3
 BYTE   W12
 BYTE   Fn3
 BYTE   W12
 BYTE   N18  Fs3  v108
 BYTE   W36
 BYTE   N11  Fs3  v112
 BYTE   W12
 BYTE   Gs3  v104
 BYTE   W12
 BYTE   As3  v100
 BYTE   W12
// 016   ----------------------------------------
 BYTE   VOICE   68
 BYTE   MOD 0
 BYTE   CnM2  v000
 BYTE   CnM2  v000
 BYTE   CnM2  v000
 BYTE   CnM2  v000
 BYTE   CnM2  v000
 BYTE   CnM2  v001
 BYTE   VOL   32*FE06TheKingdomofBernTristanHollow_mvl/mxv
 BYTE   PAN   c_v-27
 BYTE   N56  Cn4  v112
 BYTE   W60
 BYTE   N10  Bn3  v100
 BYTE   W12
 BYTE   N11  Cn4  v092
 BYTE   W12
 BYTE   An3
 BYTE   W12
// 017   ----------------------------------------
 BYTE   N23  Dn4  v116
 BYTE   W24
 BYTE   N11  Cn4  v096
 BYTE   W12
 BYTE   N10  Bn3  v092
 BYTE   W12
 BYTE   N21  Cn4  v080
 BYTE   W24
 BYTE   N22  An3  v096
 BYTE   W24
// 018   ----------------------------------------
 BYTE   N21  Bn3  v092
 BYTE   W24
 BYTE   Cn4
 BYTE   W24
 BYTE   N22  Dn4  v104
 BYTE   W24
 BYTE   En4  v096
 BYTE   W24
// 019   ----------------------------------------
 BYTE   N68  Fn3  v108
 BYTE   W72
 BYTE   N09  En3  v112
 BYTE   W24
// 020   ----------------------------------------
 BYTE   N68  Fn4
 BYTE   W72
 BYTE   N11  En4  v116
 BYTE   W24
// 021   ----------------------------------------
 BYTE   N17  Dn4
 BYTE   W24
 BYTE   N19  Cn4  v108
 BYTE   W24
 BYTE   N18  Bn3  v096
 BYTE   W24
 BYTE   N23  An3  v100
 BYTE   W24
// 022   ----------------------------------------
 BYTE   VOICE   14
 BYTE   VOL   51*FE06TheKingdomofBernTristanHollow_mvl/mxv
 BYTE   PAN   c_v+15
 BYTE   W24
 BYTE   N44  Fn3  v112
 BYTE   W48
 BYTE   N12  En3  v124
 BYTE   W24
// 023   ----------------------------------------
 BYTE   W24
 BYTE   N44  Ds3  v108
 BYTE   W48
 BYTE   VOICE   68
 BYTE   VOL   43*FE06TheKingdomofBernTristanHollow_mvl/mxv
 BYTE   PAN   c_v-27
 BYTE   N07  As1  v120
 BYTE   W24
// 024   ----------------------------------------
 BYTE   TIE  As2  v108
 BYTE   W96
// 025   ----------------------------------------
 BYTE   W28
 BYTE   EOT
 BYTE   W02
 BYTE   N09  As2  v032
 BYTE   W18
 BYTE   N32  As2  v108
 BYTE   W36
 BYTE   N09  As2  v032
 BYTE   W12
// 026   ----------------------------------------
 BYTE   N92  As2  v108
 BYTE   W96
// 027   ----------------------------------------
 BYTE   N09  As2  v032
 BYTE   W24
 BYTE   N23  As2  v108
 BYTE   W24
 BYTE   N09  As2  v032
 BYTE   W24
 BYTE   N07  As2  v108
 BYTE   W12
 BYTE   N09  As2  v032
 BYTE   W12
// 028   ----------------------------------------
 BYTE   GoTo
  POIN2 Label_2_0101152A
 BYTE   FINE

//**************** Track 4 (Midi-Chn.3) ****************//

FE06TheKingdomofBernTristanHollow_004:
// 000   ----------------------------------------
 BYTE   KEYSH   FE06TheKingdomofBernTristanHollow_key+0
Label_3_0101166A:
 BYTE   VOICE   62
 BYTE   VOL   60*FE06TheKingdomofBernTristanHollow_mvl/mxv
 BYTE   PAN   c_v+9
 BYTE   N11  Gn2  v120
 BYTE   W24
 BYTE   Dn2
 BYTE   W24
 BYTE   Gn2  v124
 BYTE   W24
 BYTE   Dn2  v127
 BYTE   W24
// 001   ----------------------------------------
 BYTE   Gn2
 BYTE   W24
 BYTE   Dn2
 BYTE   W24
 BYTE   Gn2
 BYTE   W24
 BYTE   Dn2  v116
 BYTE   W24
// 002   ----------------------------------------
 BYTE   Gn2  v127
 BYTE   W24
 BYTE   Dn2  v124
 BYTE   W24
 BYTE   Gn2  v127
 BYTE   W24
 BYTE   Dn2  v124
 BYTE   W24
// 003   ----------------------------------------
 BYTE   Gn2  v127
 BYTE   W24
 BYTE   Dn2  v124
 BYTE   W24
 BYTE   Gn2
 BYTE   W24
 BYTE   Dn2  v127
 BYTE   W24
// 004   ----------------------------------------
Label_3_0101169C:
 BYTE   N11  Gn2  v127
 BYTE   W24
 BYTE   Dn2  v124
 BYTE   W24
 BYTE   Gn2  v127
 BYTE   W24
 BYTE   Dn2
 BYTE   W24
 BYTE   PEND 
// 005   ----------------------------------------
 BYTE   Gn2  v124
 BYTE   W24
 BYTE   Dn2
 BYTE   W24
 BYTE   Gn2
 BYTE   W24
 BYTE   Dn2
 BYTE   W24
 BYTE   PATT
  POIN2 Label_3_0101169C
// 006   ----------------------------------------
 BYTE   N11  Gn2  v127
 BYTE   W24
 BYTE   Dn2
 BYTE   W24
 BYTE   Gn2
 BYTE   W24
 BYTE   An2  v108
 BYTE   W24
// 007   ----------------------------------------
 BYTE   As2  v127
 BYTE   W24
 BYTE   Fn2  v108
 BYTE   W24
 BYTE   As2  v127
 BYTE   W24
 BYTE   Fn2
 BYTE   W24
// 008   ----------------------------------------
 BYTE   As2  v108
 BYTE   W24
 BYTE   Fn2  v124
 BYTE   W24
 BYTE   As2  v120
 BYTE   W24
 BYTE   Fn2  v124
 BYTE   W24
// 009   ----------------------------------------
 BYTE   As2  v120
 BYTE   W24
 BYTE   Fn2  v124
 BYTE   W24
 BYTE   As2  v116
 BYTE   W24
 BYTE   Fn2  v112
 BYTE   W24
// 010   ----------------------------------------
 BYTE   As2
 BYTE   W24
 BYTE   Fn2  v116
 BYTE   W24
 BYTE   As2  v112
 BYTE   W24
 BYTE   Fn2  v116
 BYTE   W24
// 011   ----------------------------------------
 BYTE   As2  v112
 BYTE   W24
 BYTE   Fn2  v120
 BYTE   W24
 BYTE   As2  v112
 BYTE   W24
 BYTE   Fn2  v116
 BYTE   W24
// 012   ----------------------------------------
 BYTE   As2  v104
 BYTE   W24
 BYTE   Fn2
 BYTE   W24
 BYTE   As2  v084
 BYTE   W24
 BYTE   Fn2  v108
 BYTE   W24
// 013   ----------------------------------------
 BYTE   As2  v088
 BYTE   W24
 BYTE   Fn2  v112
 BYTE   W24
 BYTE   As2  v104
 BYTE   W24
 BYTE   Fn2  v112
 BYTE   W24
// 014   ----------------------------------------
 BYTE   Bn2  v120
 BYTE   W24
 BYTE   Fs2  v124
 BYTE   W24
 BYTE   Bn2  v127
 BYTE   W24
 BYTE   Fs2  v120
 BYTE   W24
// 015   ----------------------------------------
 BYTE   An2  v112
 BYTE   W24
 BYTE   En2  v100
 BYTE   W24
 BYTE   An2  v127
 BYTE   W24
 BYTE   En2  v116
 BYTE   W24
// 016   ----------------------------------------
 BYTE   An2  v127
 BYTE   W24
 BYTE   En2  v116
 BYTE   W24
 BYTE   An2  v127
 BYTE   W24
 BYTE   En2  v116
 BYTE   W24
// 017   ----------------------------------------
 BYTE   An2  v127
 BYTE   W24
 BYTE   En2  v120
 BYTE   W24
 BYTE   An2  v127
 BYTE   W24
 BYTE   En2  v120
 BYTE   W24
// 018   ----------------------------------------
 BYTE   An2  v127
 BYTE   W24
 BYTE   En2  v120
 BYTE   W24
 BYTE   An2  v124
 BYTE   W24
 BYTE   En2
 BYTE   W24
// 019   ----------------------------------------
 BYTE   An2
 BYTE   W24
 BYTE   En2
 BYTE   W24
 BYTE   An2  v127
 BYTE   W24
 BYTE   En2  v104
 BYTE   W24
// 020   ----------------------------------------
 BYTE   N84  Gn2  v092
 BYTE   W96
// 021   ----------------------------------------
 BYTE   N88  Gn2  v116
 BYTE   W96
// 022   ----------------------------------------
 BYTE   N13  Cn3  v108
 BYTE   W24
 BYTE   N11  Cn3  v116
 BYTE   W24
 BYTE   N12  Cn3  v120
 BYTE   W24
 BYTE   N03  Cn3  v127
 BYTE   W08
 BYTE   Cn3  v112
 BYTE   W08
 BYTE   Cn3  v120
 BYTE   W08
// 023   ----------------------------------------
 BYTE   N09  Cn3  v127
 BYTE   W24
 BYTE   N03
 BYTE   W08
 BYTE   Cn3  v116
 BYTE   W08
 BYTE   N03
 BYTE   W08
 BYTE   N09  Cn3  v127
 BYTE   W24
 BYTE   N09
 BYTE   W24
// 024   ----------------------------------------
 BYTE   N11
 BYTE   W24
 BYTE   N09
 BYTE   W24
 BYTE   Cn3  v124
 BYTE   W24
 BYTE   N03  Cn3  v127
 BYTE   W08
 BYTE   Cn3  v116
 BYTE   W08
 BYTE   Cn3  v120
 BYTE   W08
// 025   ----------------------------------------
 BYTE   N09  Cn3  v127
 BYTE   W24
 BYTE   N03
 BYTE   W08
 BYTE   Cn3  v112
 BYTE   W08
 BYTE   Cn3  v116
 BYTE   W08
 BYTE   N06  Cn3  v127
 BYTE   W24
 BYTE   N23
 BYTE   W24
// 026   ----------------------------------------
 BYTE   W96
// 027   ----------------------------------------
 BYTE   GoTo
  POIN2 Label_3_0101166A
 BYTE   FINE

//**************** Track 5 (Midi-Chn.4) ****************//

FE06TheKingdomofBernTristanHollow_005:
// 000   ----------------------------------------
 BYTE   KEYSH   FE06TheKingdomofBernTristanHollow_key+0
Label_4_010117B6:
 BYTE   VOICE   47
 BYTE   VOL   72*FE06TheKingdomofBernTristanHollow_mvl/mxv
 BYTE   PAN   c_v-13
 BYTE   N23  Gn2  v100
 BYTE   W24
 BYTE   En2
 BYTE   W24
 BYTE   Gn2
 BYTE   W24
 BYTE   En2
 BYTE   W24
// 001   ----------------------------------------
Label_4_010117C6:
 BYTE   N23  Gn2  v100
 BYTE   W24
 BYTE   En2
 BYTE   W24
 BYTE   Gn2
 BYTE   W24
 BYTE   En2
 BYTE   W24
 BYTE   PEND 
 BYTE   PATT
  POIN2 Label_4_010117C6
 BYTE   PATT
  POIN2 Label_4_010117C6
 BYTE   PATT
  POIN2 Label_4_010117C6
 BYTE   PATT
  POIN2 Label_4_010117C6
 BYTE   PATT
  POIN2 Label_4_010117C6
 BYTE   PATT
  POIN2 Label_4_010117C6
 BYTE   PATT
  POIN2 Label_4_010117C6
 BYTE   PATT
  POIN2 Label_4_010117C6
 BYTE   PATT
  POIN2 Label_4_010117C6
 BYTE   PATT
  POIN2 Label_4_010117C6
 BYTE   PATT
  POIN2 Label_4_010117C6
 BYTE   PATT
  POIN2 Label_4_010117C6
 BYTE   PATT
  POIN2 Label_4_010117C6
 BYTE   PATT
  POIN2 Label_4_010117C6
// 002   ----------------------------------------
Label_4_01011817:
 BYTE   N23  Gn2  v096
 BYTE   W24
 BYTE   En2
 BYTE   W24
 BYTE   Gn2
 BYTE   W24
 BYTE   En2
 BYTE   W24
 BYTE   PEND 
 BYTE   PATT
  POIN2 Label_4_01011817
 BYTE   PATT
  POIN2 Label_4_01011817
 BYTE   PATT
  POIN2 Label_4_01011817
 BYTE   PATT
  POIN2 Label_4_01011817
 BYTE   PATT
  POIN2 Label_4_01011817
 BYTE   PATT
  POIN2 Label_4_01011817
 BYTE   PATT
  POIN2 Label_4_01011817
 BYTE   PATT
  POIN2 Label_4_01011817
 BYTE   PATT
  POIN2 Label_4_01011817
 BYTE   PATT
  POIN2 Label_4_01011817
 BYTE   PATT
  POIN2 Label_4_01011817
// 003   ----------------------------------------
 BYTE   GoTo
  POIN2 Label_4_010117B6
 BYTE   FINE

//**************** Track 6 (Midi-Chn.5) ****************//

FE06TheKingdomofBernTristanHollow_006:
// 000   ----------------------------------------
 BYTE   KEYSH   FE06TheKingdomofBernTristanHollow_key+0
Label_5_01011862:
 BYTE   VOICE   127
 BYTE   VOL   69*FE06TheKingdomofBernTristanHollow_mvl/mxv
 BYTE   PAN   c_v-9
 BYTE   N42  An2  v096
 BYTE   W72
 BYTE   N23  Dn1  v120
 BYTE   W24
// 001   ----------------------------------------
Label_5_01011870:
 BYTE   N28  Dn1  v120
 BYTE   W72
 BYTE   N23
 BYTE   W24
 BYTE   PEND 
// 002   ----------------------------------------
Label_5_01011877:
 BYTE   N28  Dn1  v120
 BYTE   W72
 BYTE   N23  An2  v092
 BYTE   W24
 BYTE   PEND 
// 003   ----------------------------------------
Label_5_01011880:
 BYTE   N44  An2  v092
 BYTE   W72
 BYTE   N23  Ds1  v120
 BYTE   W24
 BYTE   PEND 
// 004   ----------------------------------------
Label_5_01011889:
 BYTE   N42  An2  v092
 BYTE   W72
 BYTE   N23  Dn1  v120
 BYTE   W24
 BYTE   PEND 
 BYTE   PATT
  POIN2 Label_5_01011870
 BYTE   PATT
  POIN2 Label_5_01011877
 BYTE   PATT
  POIN2 Label_5_01011880
 BYTE   PATT
  POIN2 Label_5_01011889
 BYTE   PATT
  POIN2 Label_5_01011870
 BYTE   PATT
  POIN2 Label_5_01011877
 BYTE   PATT
  POIN2 Label_5_01011880
 BYTE   PATT
  POIN2 Label_5_01011889
 BYTE   PATT
  POIN2 Label_5_01011870
 BYTE   PATT
  POIN2 Label_5_01011877
 BYTE   PATT
  POIN2 Label_5_01011880
 BYTE   PATT
  POIN2 Label_5_01011889
 BYTE   PATT
  POIN2 Label_5_01011870
 BYTE   PATT
  POIN2 Label_5_01011877
 BYTE   PATT
  POIN2 Label_5_01011880
 BYTE   PATT
  POIN2 Label_5_01011889
 BYTE   PATT
  POIN2 Label_5_01011870
 BYTE   PATT
  POIN2 Label_5_01011877
 BYTE   PATT
  POIN2 Label_5_01011880
 BYTE   PATT
  POIN2 Label_5_01011889
 BYTE   PATT
  POIN2 Label_5_01011870
 BYTE   PATT
  POIN2 Label_5_01011877
 BYTE   PATT
  POIN2 Label_5_01011880
// 005   ----------------------------------------
 BYTE   GoTo
  POIN2 Label_5_01011862
 BYTE   FINE

//******************************************************//
	ALIGN 4

FE06TheKingdomofBernTristanHollow:
	BYTE	6	// NumTrks
	BYTE	0	// NumBlks
	BYTE	FE06TheKingdomofBernTristanHollow_pri	// Priority
	BYTE	FE06TheKingdomofBernTristanHollow_rev	// Reverb.
    
	POIN2	FE06TheKingdomofBernTristanHollow_grp
    
	POIN2	FE06TheKingdomofBernTristanHollow_001
	POIN2	FE06TheKingdomofBernTristanHollow_002
	POIN2	FE06TheKingdomofBernTristanHollow_003
	POIN2	FE06TheKingdomofBernTristanHollow_004
	POIN2	FE06TheKingdomofBernTristanHollow_005
	POIN2	FE06TheKingdomofBernTristanHollow_006

	
