//Event file generated from Sappy .s format.
	#include "MPlayDef.event"

	#define	FE06IntheNameofBernRandomWizard_grp  voicegroup000
	#define	FE06IntheNameofBernRandomWizard_pri  0
	#define	FE06IntheNameofBernRandomWizard_rev  0
	#define	FE06IntheNameofBernRandomWizard_mvl  127
	#define	FE06IntheNameofBernRandomWizard_key  0
	#define	FE06IntheNameofBernRandomWizard_tbs  1
	#define	FE06IntheNameofBernRandomWizard_exg  0
	#define	FE06IntheNameofBernRandomWizard_cmp  1

	// .rodata
	//	FE06IntheNameofBernRandomWizard
	ALIGN 4


//**************** Track 1 (Midi-Chn.0) ****************//

FE06IntheNameofBernRandomWizard_001:
// 000   ----------------------------------------
 BYTE   KEYSH   FE06IntheNameofBernRandomWizard_key+0
 BYTE   TEMPO   124*FE06IntheNameofBernRandomWizard_tbs/2
 BYTE   VOICE   104
 BYTE   VOL   22*FE06IntheNameofBernRandomWizard_mvl/mxv
 BYTE   PAN   c_v+6
 BYTE   TIE  Fn3  v108
 BYTE   TIE  Cn4
 BYTE   W60
Label_0_010D1A90:
 BYTE   W36
// 001   ----------------------------------------
 BYTE   W23
 BYTE   EOT
 BYTE   Fn3  v072
 BYTE   W01
 BYTE   N24  Fn3  v032
 BYTE   N24  Cn4
 BYTE   W72
// 002   ----------------------------------------
 BYTE   W96
// 003   ----------------------------------------
 BYTE   W12
 BYTE   N09  Dn3  v116
 BYTE   N09  An3  v100
 BYTE   W12
 BYTE   N05  An2
 BYTE   W06
 BYTE   N11  Dn3  v104
 BYTE   N10  An3
 BYTE   W12
 BYTE   N05  An2  v100
 BYTE   W06
 BYTE   N04  Ds3  v112
 BYTE   N04  As3  v108
 BYTE   W06
 BYTE   Ds3  v024
 BYTE   N04  As3  v020
 BYTE   W06
 BYTE   Ds3  v104
 BYTE   N03  As3  v108
 BYTE   W06
 BYTE   N04  Ds3  v020
 BYTE   N03  As3
 BYTE   W06
 BYTE   N11  Dn3  v116
 BYTE   N10  An3  v112
 BYTE   W12
 BYTE   N05  An2  v108
 BYTE   W06
 BYTE   N11  Dn3  v116
 BYTE   N11  An3
 BYTE   W06
// 004   ----------------------------------------
 BYTE   W06
 BYTE   N05  An2  v108
 BYTE   W06
 BYTE   Ds3  v112
 BYTE   N05  As3
 BYTE   W06
 BYTE   Ds3  v028
 BYTE   N05  As3  v024
 BYTE   W06
 BYTE   N04  Ds3  v112
 BYTE   N05  As3
 BYTE   W06
 BYTE   N04  Ds3  v028
 BYTE   N05  As3  v024
 BYTE   W06
 BYTE   N11  Dn3  v124
 BYTE   N10  An3
 BYTE   W12
 BYTE   N05  An2  v112
 BYTE   W06
 BYTE   N11  Dn3  v120
 BYTE   N11  An3  v116
 BYTE   W12
 BYTE   N05  An2  v112
 BYTE   W06
 BYTE   N03  Ds3  v120
 BYTE   N04  As3  v112
 BYTE   W06
 BYTE   N03  Ds3  v032
 BYTE   N04  As3  v028
 BYTE   W06
 BYTE   Ds3  v112
 BYTE   N04  As3
 BYTE   W06
 BYTE   Ds3  v028
 BYTE   N04  As3  v024
 BYTE   W06
// 005   ----------------------------------------
 BYTE   N09  Dn3  v124
 BYTE   N09  An3  v120
 BYTE   W12
 BYTE   N05  An2  v112
 BYTE   W06
 BYTE   N11  Dn3  v124
 BYTE   N11  An3  v120
 BYTE   W12
 BYTE   N05  An2  v116
 BYTE   W06
 BYTE   N03  Ds3  v124
 BYTE   N05  As3  v112
 BYTE   W06
 BYTE   N03  Ds3  v036
 BYTE   N05  As3  v028
 BYTE   W06
 BYTE   Ds3  v120
 BYTE   N05  As3  v112
 BYTE   W06
 BYTE   Ds3  v036
 BYTE   N05  As3  v028
 BYTE   W42
// 006   ----------------------------------------
 BYTE   W84
 BYTE   N10  Dn3  v112
 BYTE   N11  An3  v108
 BYTE   W12
// 007   ----------------------------------------
 BYTE   N04  An2
 BYTE   W06
 BYTE   N10  Dn3  v112
 BYTE   N09  An3  v104
 BYTE   W12
 BYTE   N05  An2  v108
 BYTE   W06
 BYTE   N04  Ds3  v120
 BYTE   N04  As3  v112
 BYTE   W06
 BYTE   Ds3  v028
 BYTE   N04  As3  v020
 BYTE   W06
 BYTE   Ds3  v112
 BYTE   N05  As3  v108
 BYTE   W06
 BYTE   N04  Ds3  v020
 BYTE   N05  As3  v012
 BYTE   W06
 BYTE   N10  Dn3  v124
 BYTE   N10  An3
 BYTE   W12
 BYTE   N05  An2  v112
 BYTE   W06
 BYTE   N11  Dn3  v120
 BYTE   N11  An3  v116
 BYTE   W12
 BYTE   N05  An2  v120
 BYTE   W06
 BYTE   N03  Ds3
 BYTE   N04  As3  v108
 BYTE   W06
 BYTE   N03  Ds3  v028
 BYTE   N04  As3  v012
 BYTE   W06
// 008   ----------------------------------------
 BYTE   Ds3  v120
 BYTE   N05  As3  v108
 BYTE   W06
 BYTE   N04  Ds3  v028
 BYTE   N05  As3  v012
 BYTE   W06
 BYTE   N11  Dn3  v120
 BYTE   N11  An3  v116
 BYTE   W12
 BYTE   N05  An2
 BYTE   W06
 BYTE   N11  Dn3
 BYTE   N11  An3  v112
 BYTE   W12
 BYTE   N05  An2  v108
 BYTE   W06
 BYTE   N03  Ds3  v112
 BYTE   N05  As3  v104
 BYTE   W06
 BYTE   N03  Ds3  v020
 BYTE   N05  As3  v012
 BYTE   W06
 BYTE   N04  Ds3  v108
 BYTE   N05  As3
 BYTE   W06
 BYTE   N04  Ds3  v012
 BYTE   N05  As3
 BYTE   W06
 BYTE   N10  Dn3  v124
 BYTE   N10  An3  v120
 BYTE   W12
 BYTE   N05  An2  v116
 BYTE   W06
 BYTE   N11  Dn3  v120
 BYTE   N11  An3  v112
 BYTE   W06
// 009   ----------------------------------------
 BYTE   W06
 BYTE   N05  An2  v116
 BYTE   W06
 BYTE   N03  Ds3  v120
 BYTE   N04  As3  v112
 BYTE   W06
 BYTE   N03  Ds3  v028
 BYTE   N04  As3  v020
 BYTE   W06
 BYTE   N05  Ds3  v120
 BYTE   N05  As3  v116
 BYTE   W06
 BYTE   Ds3  v028
 BYTE   N05  As3  v020
 BYTE   W66
// 010   ----------------------------------------
 BYTE   W60
 BYTE   N11  Cn3  v108
 BYTE   N11  Gn3  v112
 BYTE   W12
 BYTE   N04  Gn2  v120
 BYTE   W06
 BYTE   N11  Cn3  v108
 BYTE   N11  Gn3  v112
 BYTE   W12
 BYTE   N05  Gn2  v116
 BYTE   W06
// 011   ----------------------------------------
 BYTE   N04  Cs3  v120
 BYTE   N05  Gs3  v112
 BYTE   W06
 BYTE   N04  Cs3  v032
 BYTE   N05  Gs3  v028
 BYTE   W06
 BYTE   N04  Cs3  v124
 BYTE   N05  Gs3  v116
 BYTE   W06
 BYTE   N04  Cs3  v036
 BYTE   N05  Gs3  v028
 BYTE   W06
 BYTE   N11  Cn3  v120
 BYTE   N11  Gn3  v124
 BYTE   W12
 BYTE   N05  Gn2
 BYTE   W06
 BYTE   N11  Cn3  v112
 BYTE   N11  Gn3  v120
 BYTE   W12
 BYTE   N05  Gn2
 BYTE   W06
 BYTE   N04  Cs3
 BYTE   N05  Gs3
 BYTE   W06
 BYTE   N04  Cs3  v036
 BYTE   N05  Gs3
 BYTE   W06
 BYTE   N04  Cs3  v120
 BYTE   N05  Gs3  v112
 BYTE   W06
 BYTE   N04  Cs3  v032
 BYTE   N05  Gs3  v028
 BYTE   W06
 BYTE   N11  Cn3  v120
 BYTE   N11  Gn3  v124
 BYTE   W12
// 012   ----------------------------------------
 BYTE   N05  Gn2
 BYTE   W06
 BYTE   N11  Cn3  v112
 BYTE   N11  Gn3  v116
 BYTE   W12
 BYTE   N05  Gn2  v124
 BYTE   W06
 BYTE   N03  Cs3
 BYTE   N05  Gs3  v120
 BYTE   W06
 BYTE   N03  Cs3  v036
 BYTE   N05  Gs3
 BYTE   W06
 BYTE   N04  Cs3  v124
 BYTE   N05  Gs3
 BYTE   W06
 BYTE   N04  Cs3  v036
 BYTE   N05  Gs3
 BYTE   W06
 BYTE   N11  Cn3  v112
 BYTE   N11  Gn3
 BYTE   W12
 BYTE   N05  Gn2
 BYTE   W06
 BYTE   N10  Cn3  v100
 BYTE   N09  Gn3  v112
 BYTE   W12
 BYTE   N05  Gn2  v108
 BYTE   W06
 BYTE   Cs3  v112
 BYTE   N05  Gs3  v104
 BYTE   W06
 BYTE   Cs3  v028
 BYTE   N05  Gs3  v020
 BYTE   W06
// 013   ----------------------------------------
 BYTE   Cs3  v116
 BYTE   N05  Gs3
 BYTE   W06
 BYTE   Cs3  v028
 BYTE   N05  Gs3
 BYTE   W90
// 014   ----------------------------------------
 BYTE   W36
 BYTE   N11  Cn3  v108
 BYTE   N11  Gn3  v112
 BYTE   W12
 BYTE   N04  Gn2  v116
 BYTE   W06
 BYTE   N11  Cn3  v100
 BYTE   N11  Gn3  v108
 BYTE   W12
 BYTE   N05  Gn2  v116
 BYTE   W06
 BYTE   Cs3
 BYTE   N05  Gs3  v108
 BYTE   W06
 BYTE   Cs3  v024
 BYTE   N05  Gs3  v016
 BYTE   W06
 BYTE   N04  Cs3  v116
 BYTE   N05  Gs3  v112
 BYTE   W06
 BYTE   N04  Cs3  v024
 BYTE   N05  Gs3
 BYTE   W06
// 015   ----------------------------------------
 BYTE   N11  Cn3  v116
 BYTE   N11  Gn3  v120
 BYTE   W12
 BYTE   N05  Gn2  v124
 BYTE   W06
 BYTE   N11  Cn3  v112
 BYTE   N11  Gn3  v120
 BYTE   W12
 BYTE   N05  Gn2  v116
 BYTE   W06
 BYTE   N04  Cs3  v112
 BYTE   N05  Gs3  v120
 BYTE   W06
 BYTE   N04  Cs3  v024
 BYTE   N05  Gs3  v028
 BYTE   W06
 BYTE   N04  Cs3  v120
 BYTE   N05  Gs3  v112
 BYTE   W06
 BYTE   N04  Cs3  v032
 BYTE   N05  Gs3  v024
 BYTE   W06
 BYTE   N11  Cn3  v120
 BYTE   N11  Gn3
 BYTE   W12
 BYTE   N05  Gn2
 BYTE   W06
 BYTE   N10  Cn3  v108
 BYTE   N10  Gn3  v112
 BYTE   W12
 BYTE   N04  Gn2  v104
 BYTE   W06
// 016   ----------------------------------------
 BYTE   N03  Cs3  v124
 BYTE   N04  Gs3  v120
 BYTE   W06
 BYTE   N03  Cs3  v032
 BYTE   N04  Gs3  v028
 BYTE   W06
 BYTE   Cs3  v112
 BYTE   N05  Gs3  v116
 BYTE   W06
 BYTE   N04  Cs3  v024
 BYTE   N05  Gs3
 BYTE   W06
 BYTE   N09  Cn3  v120
 BYTE   N09  Gn3  v124
 BYTE   W12
 BYTE   N05  Gn2  v116
 BYTE   W06
 BYTE   N11  Cn3
 BYTE   N11  Gn3  v120
 BYTE   W12
 BYTE   N05  Gn2  v124
 BYTE   W06
 BYTE   N04  Cs3  v120
 BYTE   N05  Gs3  v116
 BYTE   W06
 BYTE   N04  Cs3  v028
 BYTE   N05  Gs3  v024
 BYTE   W06
 BYTE   Cs3  v124
 BYTE   N05  Gs3  v120
 BYTE   W06
 BYTE   Cs3  v032
 BYTE   N05  Gs3  v028
 BYTE   W18
// 017   ----------------------------------------
 BYTE   W96
// 018   ----------------------------------------
 BYTE   W12
 BYTE   N09  Dn3  v124
 BYTE   N08  An3  v108
 BYTE   W12
 BYTE   N04  An2  v112
 BYTE   W06
 BYTE   N10  Dn3
 BYTE   N10  An3  v104
 BYTE   W12
 BYTE   N05  An2  v112
 BYTE   W06
 BYTE   N04  Ds3  v104
 BYTE   N05  As3  v112
 BYTE   W06
 BYTE   N04  Ds3  v016
 BYTE   N05  As3  v024
 BYTE   W06
 BYTE   N04  Ds3  v116
 BYTE   N04  As3  v112
 BYTE   W06
 BYTE   Ds3  v024
 BYTE   N04  As3  v020
 BYTE   W06
 BYTE   N11  Dn3  v124
 BYTE   N11  An3
 BYTE   W12
 BYTE   N05  An2  v120
 BYTE   W06
 BYTE   N11  Dn3  v124
 BYTE   N11  An3  v116
 BYTE   W06
// 019   ----------------------------------------
 BYTE   W06
 BYTE   N05  An2  v120
 BYTE   W06
 BYTE   N03  Ds3
 BYTE   N05  As3  v112
 BYTE   W06
 BYTE   N03  Ds3  v028
 BYTE   N05  As3  v024
 BYTE   W06
 BYTE   N04  Ds3  v112
 BYTE   N05  As3
 BYTE   W06
 BYTE   N04  Ds3  v020
 BYTE   N05  As3
 BYTE   W06
 BYTE   N11  Dn3  v124
 BYTE   N11  An3
 BYTE   W12
 BYTE   N05  An2  v112
 BYTE   W06
 BYTE   N11  Dn3  v116
 BYTE   N11  An3  v112
 BYTE   W12
 BYTE   N05  An2  v116
 BYTE   W06
 BYTE   N03  Ds3  v112
 BYTE   N05  As3
 BYTE   W06
 BYTE   N03  Ds3  v024
 BYTE   N05  As3  v020
 BYTE   W06
 BYTE   N03  Ds3  v120
 BYTE   N05  As3  v112
 BYTE   W06
 BYTE   N03  Ds3  v032
 BYTE   N05  As3  v020
 BYTE   W06
// 020   ----------------------------------------
 BYTE   N11  Dn3  v124
 BYTE   N11  An3
 BYTE   W12
 BYTE   N05  An2  v112
 BYTE   W06
 BYTE   N11  Dn3  v124
 BYTE   N11  An3  v120
 BYTE   W12
 BYTE   N05  An2  v124
 BYTE   W06
 BYTE   N04  Ds3  v120
 BYTE   N05  As3  v108
 BYTE   W06
 BYTE   N04  Ds3  v028
 BYTE   N05  As3  v016
 BYTE   W06
 BYTE   Ds3  v120
 BYTE   N05  As3  v116
 BYTE   W06
 BYTE   Ds3  v028
 BYTE   N05  As3  v024
 BYTE   W42
// 021   ----------------------------------------
 BYTE   W84
 BYTE   N11  Dn3  v124
 BYTE   N11  An3  v120
 BYTE   W12
// 022   ----------------------------------------
 BYTE   N05  An2  v116
 BYTE   W06
 BYTE   N11  Dn3
 BYTE   N11  An3
 BYTE   W12
 BYTE   N05  An2  v112
 BYTE   W06
 BYTE   Ds3
 BYTE   N05  As3  v104
 BYTE   W06
 BYTE   Ds3  v024
 BYTE   N05  As3  v016
 BYTE   W06
 BYTE   N04  Ds3  v104
 BYTE   N05  As3
 BYTE   W06
 BYTE   N04  Ds3  v016
 BYTE   N05  As3
 BYTE   W06
 BYTE   N11  Dn3  v124
 BYTE   N11  An3  v120
 BYTE   W12
 BYTE   N05  An2
 BYTE   W06
 BYTE   N11  Dn3  v124
 BYTE   N11  An3  v120
 BYTE   W12
 BYTE   N05  An2  v116
 BYTE   W06
 BYTE   N04  Ds3  v124
 BYTE   N05  As3  v104
 BYTE   W06
 BYTE   N04  Ds3  v036
 BYTE   N05  As3  v016
 BYTE   W06
// 023   ----------------------------------------
 BYTE   N04  Ds3  v108
 BYTE   N04  As3  v104
 BYTE   W06
 BYTE   Ds3  v020
 BYTE   N04  As3  v016
 BYTE   W06
 BYTE   N11  Dn3  v124
 BYTE   N11  An3  v116
 BYTE   W12
 BYTE   N05  An2  v112
 BYTE   W06
 BYTE   N11  Dn3  v124
 BYTE   N11  An3  v120
 BYTE   W12
 BYTE   N05  An2  v112
 BYTE   W06
 BYTE   N03  Ds3
 BYTE   N04  As3  v108
 BYTE   W06
 BYTE   N03  Ds3  v024
 BYTE   N04  As3  v020
 BYTE   W06
 BYTE   Ds3  v116
 BYTE   N05  As3
 BYTE   W06
 BYTE   N04  Ds3  v028
 BYTE   N05  As3
 BYTE   W06
 BYTE   N10  Dn3  v124
 BYTE   N10  An3  v120
 BYTE   W12
 BYTE   N05  An2  v124
 BYTE   W06
 BYTE   N11  Dn3
 BYTE   N11  An3  v116
 BYTE   W06
// 024   ----------------------------------------
 BYTE   W06
 BYTE   N05  An2
 BYTE   W06
 BYTE   N03  Ds3
 BYTE   N05  As3  v108
 BYTE   W06
 BYTE   N03  Ds3  v028
 BYTE   N05  As3  v020
 BYTE   W06
 BYTE   N04  Ds3  v120
 BYTE   N05  As3  v112
 BYTE   W06
 BYTE   N04  Ds3  v028
 BYTE   N05  As3  v024
 BYTE   W66
// 025   ----------------------------------------
 BYTE   W60
 BYTE   N11  Cn3  v116
 BYTE   N11  Gn3  v120
 BYTE   W12
 BYTE   N05  Gn2  v112
 BYTE   W06
 BYTE   N11  Cn3  v104
 BYTE   N11  Gn3  v112
 BYTE   W12
 BYTE   N05  Gn2  v116
 BYTE   W06
// 026   ----------------------------------------
 BYTE   N04  Ds3  v112
 BYTE   N05  As3
 BYTE   W06
 BYTE   N04  Ds3  v024
 BYTE   N05  As3  v020
 BYTE   W06
 BYTE   N04  Ds3  v116
 BYTE   N05  As3  v112
 BYTE   W06
 BYTE   N04  Ds3  v028
 BYTE   N05  As3  v020
 BYTE   W06
 BYTE   N10  Cn3  v120
 BYTE   N10  Gn3  v124
 BYTE   W12
 BYTE   N05  Gn2
 BYTE   W06
 BYTE   N10  Cn3  v108
 BYTE   N10  Gn3  v112
 BYTE   W12
 BYTE   N05  Gn2  v124
 BYTE   W06
 BYTE   N04  Ds3  v120
 BYTE   N04  As3  v112
 BYTE   W06
 BYTE   Ds3  v028
 BYTE   N04  As3  v020
 BYTE   W06
 BYTE   Ds3  v112
 BYTE   N05  As3  v108
 BYTE   W06
 BYTE   N04  Ds3  v024
 BYTE   N05  As3  v020
 BYTE   W06
 BYTE   N11  Cn3  v120
 BYTE   N10  Gn3  v124
 BYTE   W12
// 027   ----------------------------------------
 BYTE   N05  Gn2
 BYTE   W06
 BYTE   N11  Cn3  v108
 BYTE   N11  Gn3  v120
 BYTE   W12
 BYTE   N05  Gn2  v124
 BYTE   W06
 BYTE   N04  Ds3  v112
 BYTE   N05  As3
 BYTE   W06
 BYTE   N04  Ds3  v020
 BYTE   N05  As3
 BYTE   W06
 BYTE   N04  Ds3  v104
 BYTE   N05  As3  v112
 BYTE   W06
 BYTE   N04  Ds3  v016
 BYTE   N05  As3  v020
 BYTE   W06
 BYTE   N11  Cn3  v112
 BYTE   N11  Gn3  v120
 BYTE   W12
 BYTE   N05  Gn2
 BYTE   W06
 BYTE   N11  Cn3  v112
 BYTE   N11  Gn3  v120
 BYTE   W12
 BYTE   N05  Gn2
 BYTE   W06
 BYTE   N04  Ds3  v112
 BYTE   N05  As3
 BYTE   W06
 BYTE   N04  Ds3  v024
 BYTE   N05  As3  v020
 BYTE   W06
// 028   ----------------------------------------
 BYTE   Ds3  v116
 BYTE   N05  As3  v112
 BYTE   W06
 BYTE   Ds3  v028
 BYTE   N05  As3  v024
 BYTE   W05
 BYTE   GoTo
  POIN2 Label_0_010D1A90
 BYTE   FINE

//**************** Track 2 (Midi-Chn.1) ****************//

FE06IntheNameofBernRandomWizard_002:
// 000   ----------------------------------------
 BYTE   KEYSH   FE06IntheNameofBernRandomWizard_key+0
 BYTE   VOICE   51
 BYTE   W60
Label_1_547722:
 BYTE   W36
// 001   ----------------------------------------
 BYTE   W96
// 002   ----------------------------------------
 BYTE   W96
// 003   ----------------------------------------
 BYTE   W96
// 004   ----------------------------------------
 BYTE   W96
// 005   ----------------------------------------
 BYTE   W60
 BYTE   MOD 0
 BYTE   CnM2
 BYTE   VOL   21*FE06IntheNameofBernRandomWizard_mvl/mxv
 BYTE   PAN   c_v+16
 BYTE   TIE  Dn3  v108
 BYTE   TIE  Fn3
 BYTE   W36
// 006   ----------------------------------------
 BYTE   W80
 BYTE   W03
 BYTE   EOT
 BYTE   Dn3  v065
 BYTE   W13
// 007   ----------------------------------------
 BYTE   W96
// 008   ----------------------------------------
 BYTE   W96
// 009   ----------------------------------------
Label_1_54773C:
 BYTE   W36
 BYTE   TIE  Dn2  v108
 BYTE   TIE  Fn2
 BYTE   W60
 BYTE   PEND 
// 010   ----------------------------------------
 BYTE   W56
 BYTE   W03
 BYTE   EOT
 BYTE   Dn2  v053
 BYTE   W36
 BYTE   W01
// 011   ----------------------------------------
 BYTE   W96
// 012   ----------------------------------------
 BYTE   W96
// 013   ----------------------------------------
 BYTE   W12
 BYTE   TIE  Cn2
 BYTE   TIE  Ds2  v116
 BYTE   W84
// 014   ----------------------------------------
 BYTE   W32
 BYTE   W03
 BYTE   EOT
 BYTE   Cn2  v051
 BYTE   W60
 BYTE   W01
// 015   ----------------------------------------
 BYTE   W96
// 016   ----------------------------------------
 BYTE   W84
 BYTE   TIE  Cn2
 BYTE   TIE  Ds2
 BYTE   W12
// 017   ----------------------------------------
 BYTE   W96
// 018   ----------------------------------------
 BYTE   W11
 BYTE   EOT
 BYTE   Cn2  v051
 BYTE   W84
 BYTE   W01
// 019   ----------------------------------------
 BYTE   W96
// 020   ----------------------------------------
 BYTE   W60
 BYTE   TIE  Dn2  v108
 BYTE   TIE  Fn2
 BYTE   W36
// 021   ----------------------------------------
 BYTE   W80
 BYTE   W03
 BYTE   EOT
 BYTE   Dn2  v053
 BYTE   W13
// 022   ----------------------------------------
 BYTE   W96
// 023   ----------------------------------------
 BYTE   W96
 BYTE   PATT
  POIN2 Label_1_54773C
// 024   ----------------------------------------
 BYTE   W56
 BYTE   W03
 BYTE   EOT
 BYTE   Dn2  v053
 BYTE   W36
 BYTE   W01
// 025   ----------------------------------------
 BYTE   W96
// 026   ----------------------------------------
 BYTE   W96
// 027   ----------------------------------------
 BYTE   W11
 BYTE   GoTo
  POIN2 Label_1_547722
 BYTE   FINE

//**************** Track 3 (Midi-Chn.2) ****************//

FE06IntheNameofBernRandomWizard_003:
// 000   ----------------------------------------
 BYTE   KEYSH   FE06IntheNameofBernRandomWizard_key+0
 BYTE   W12
 BYTE   VOICE   63
 BYTE   MOD 0
 BYTE   CsM2
 BYTE   PAN   c_v+16
 BYTE   W44
 BYTE   W02
 BYTE   VOL   25*FE06IntheNameofBernRandomWizard_mvl/mxv
 BYTE   W02
Label_2_010D1FD6:
 BYTE   TIE  Dn3  v100
 BYTE   TIE  An3
 BYTE   W10
 BYTE   VOL   25*FE06IntheNameofBernRandomWizard_mvl/mxv
 BYTE   W01
 BYTE   BnM1
 BYTE   W01
 BYTE   AsM1
 BYTE   W01
 BYTE   GsM1
 BYTE   W01
 BYTE   FsM1
 BYTE   W01
 BYTE   FnM1
 BYTE   W01
 BYTE   EnM1
 BYTE   W01
 BYTE   DnM1
 BYTE   W01
 BYTE   CsM1
 BYTE   W01
 BYTE   BnM2
 BYTE   W01
 BYTE   AnM2
 BYTE   W15
 BYTE   AnM2
 BYTE   W01
// 001   ----------------------------------------
 BYTE   W03
 BYTE   AsM2
 BYTE   W02
 BYTE   AsM2
 BYTE   W02
 BYTE   AsM2
 BYTE   W02
 BYTE   AsM2
 BYTE   W02
 BYTE   BnM2
 BYTE   W03
 BYTE   BnM2
 BYTE   W02
 BYTE   BnM2
 BYTE   W02
 BYTE   BnM2
 BYTE   W02
 BYTE   BnM2
 BYTE   W02
 BYTE   BnM2
 BYTE   W02
 BYTE   CnM1
 BYTE   W02
 BYTE   CnM1
 BYTE   W02
 BYTE   CnM1
 BYTE   W03
 BYTE   CnM1
 BYTE   W02
 BYTE   CsM1
 BYTE   W02
 BYTE   CsM1
 BYTE   W02
 BYTE   CsM1
 BYTE   W02
 BYTE   CsM1
 BYTE   W02
 BYTE   DnM1
 BYTE   W02
 BYTE   DnM1
 BYTE   W02
 BYTE   DnM1
 BYTE   W03
 BYTE   DnM1
 BYTE   W02
 BYTE   DsM1
 BYTE   W02
 BYTE   DsM1
 BYTE   W02
 BYTE   DsM1
 BYTE   W02
 BYTE   DsM1
 BYTE   W02
 BYTE   EnM1
 BYTE   W02
 BYTE   EnM1
 BYTE   W02
 BYTE   EnM1
 BYTE   W03
 BYTE   EnM1
 BYTE   W02
 BYTE   FnM1
 BYTE   W02
 BYTE   FnM1
 BYTE   W02
 BYTE   FnM1
 BYTE   W02
 BYTE   FnM1
 BYTE   W02
 BYTE   FnM1
 BYTE   W02
 BYTE   FsM1
 BYTE   W02
 BYTE   FsM1
 BYTE   W03
 BYTE   FsM1
 BYTE   W02
 BYTE   FsM1
 BYTE   W02
 BYTE   GnM1
 BYTE   W02
 BYTE   GnM1
 BYTE   W02
 BYTE   GnM1
 BYTE   W02
 BYTE   GnM1
 BYTE   W02
 BYTE   GsM1
 BYTE   W02
// 002   ----------------------------------------
 BYTE   GsM1
 BYTE   W03
 BYTE   GsM1
 BYTE   W02
 BYTE   GsM1
 BYTE   W02
 BYTE   AnM1
 BYTE   W02
 BYTE   AnM1
 BYTE   W02
 BYTE   AnM1
 BYTE   W02
 BYTE   AnM1
 BYTE   W02
 BYTE   AsM1
 BYTE   W02
 BYTE   AsM1
 BYTE   W03
 BYTE   AsM1
 BYTE   W02
 BYTE   AsM1
 BYTE   W02
 BYTE   AsM1
 BYTE   W02
 BYTE   BnM1
 BYTE   W02
 BYTE   BnM1
 BYTE   W02
 BYTE   BnM1
 BYTE   W02
 BYTE   BnM1
 BYTE   W02
 BYTE   Cn0
 BYTE   W03
 BYTE   Cn0
 BYTE   W02
 BYTE   Cn0
 BYTE   W02
 BYTE   Cn0
 BYTE   W02
 BYTE   Cs0
 BYTE   W02
 BYTE   Cs0
 BYTE   W02
 BYTE   Cs0
 BYTE   W01
 BYTE   Cs0
 BYTE   W44
 BYTE   W03
 BYTE   EOT
 BYTE   Dn3  v069
 BYTE   W01
// 003   ----------------------------------------
 BYTE   N11  Dn3  v036
 BYTE   N11  An3
 BYTE   W12
 BYTE   VOICE   63
 BYTE   MOD 0
 BYTE   CnM2
 BYTE   VOL   24*FE06IntheNameofBernRandomWizard_mvl/mxv
 BYTE   PAN   c_v+10
 BYTE   N88  Dn3  v127
 BYTE   W84
// 004   ----------------------------------------
 BYTE   W06
 BYTE   N05  Gn3
 BYTE   W06
 BYTE   N11  An3
 BYTE   W12
 BYTE   N80  Cn4
 BYTE   W72
// 005   ----------------------------------------
 BYTE   W18
 BYTE   N05  Dn3
 BYTE   W06
 BYTE   N07  Fn3
 BYTE   W12
 BYTE   N05  En3
 BYTE   W12
 BYTE   Dn3
 BYTE   W06
 BYTE   TIE  Cn3
 BYTE   W42
// 006   ----------------------------------------
 BYTE   W78
 BYTE   W01
 BYTE   EOT
 BYTE   W05
 BYTE   N80  Fn3
 BYTE   W12
// 007   ----------------------------------------
 BYTE   W72
 BYTE   N11  En3
 BYTE   W12
 BYTE   Fn3
 BYTE   W12
// 008   ----------------------------------------
 BYTE   Gn3
 BYTE   W12
 BYTE   N72  En3
 BYTE   W78
 BYTE   N05
 BYTE   W06
// 009   ----------------------------------------
 BYTE   N11  Fn3
 BYTE   W12
 BYTE   N21  Gn3
 BYTE   W24
 BYTE   N17  Dn3
 BYTE   W18
 BYTE   N60  Cn3
 BYTE   W42
// 010   ----------------------------------------
 BYTE   W52
 BYTE   VOICE   104
 BYTE   W08
 BYTE   N17  Cn4  v120
 BYTE   W18
 BYTE   Gn3
 BYTE   W18
// 011   ----------------------------------------
 BYTE   N05  As3
 BYTE   W06
 BYTE   As3  v032
 BYTE   W06
 BYTE   Dn4  v120
 BYTE   W06
 BYTE   Dn4  v032
 BYTE   W06
 BYTE   N17  Cn4  v120
 BYTE   W18
 BYTE   Gn3
 BYTE   W18
 BYTE   N04  As3
 BYTE   W06
 BYTE   As3  v032
 BYTE   W06
 BYTE   N05  Dn4  v120
 BYTE   W06
 BYTE   Dn4  v032
 BYTE   W06
 BYTE   N17  Cn4  v120
 BYTE   W12
// 012   ----------------------------------------
 BYTE   W06
 BYTE   Gn3
 BYTE   W18
 BYTE   N04  As3
 BYTE   W06
 BYTE   As3  v032
 BYTE   W06
 BYTE   N05  Dn4  v120
 BYTE   W06
 BYTE   Dn4  v032
 BYTE   W06
 BYTE   N17  Cn4  v120
 BYTE   W18
 BYTE   Gn3
 BYTE   W18
 BYTE   N05  As3
 BYTE   W06
 BYTE   As3  v032
 BYTE   W06
// 013   ----------------------------------------
 BYTE   Dn4  v120
 BYTE   W06
 BYTE   Dn4  v032
 BYTE   W06
 BYTE   TIE  Cn4  v120
 BYTE   W84
// 014   ----------------------------------------
 BYTE   W14
 BYTE   EOT
 BYTE   W22
 BYTE   N17  Cn3  v127
 BYTE   W18
 BYTE   Gn2
 BYTE   W18
 BYTE   N05  As2
 BYTE   W06
 BYTE   As2  v036
 BYTE   W06
 BYTE   Dn3  v127
 BYTE   W06
 BYTE   Dn3  v036
 BYTE   W06
// 015   ----------------------------------------
 BYTE   N17  Cn3  v127
 BYTE   W18
 BYTE   Gn2
 BYTE   W18
 BYTE   N04  As2
 BYTE   W06
 BYTE   As2  v036
 BYTE   W06
 BYTE   Dn3  v127
 BYTE   W06
 BYTE   Dn3  v036
 BYTE   W06
 BYTE   N17  Cn3  v127
 BYTE   W18
 BYTE   Gn2
 BYTE   W18
// 016   ----------------------------------------
 BYTE   N05  As2
 BYTE   W06
 BYTE   As2  v036
 BYTE   W06
 BYTE   Dn3  v127
 BYTE   W06
 BYTE   Dn3  v036
 BYTE   W06
 BYTE   N17  Cn3  v127
 BYTE   W18
 BYTE   Gn2
 BYTE   W18
 BYTE   N05  As2
 BYTE   W06
 BYTE   As2  v036
 BYTE   W06
 BYTE   Dn3  v127
 BYTE   W06
 BYTE   Dn3  v036
 BYTE   W06
 BYTE   N66  Cn3  v127
 BYTE   W12
// 017   ----------------------------------------
 BYTE   W96
// 018   ----------------------------------------
 BYTE   W11
 BYTE   VOICE   63
 BYTE   W01
 BYTE   N92  En3
 BYTE   W84
// 019   ----------------------------------------
 BYTE   W12
 BYTE   N11  Fn3
 BYTE   W12
 BYTE   Gn3
 BYTE   W12
 BYTE   N92  En3
 BYTE   W60
// 020   ----------------------------------------
 BYTE   W36
 BYTE   N11  Fn3
 BYTE   W12
 BYTE   Gn3
 BYTE   W12
 BYTE   N32  En3
 BYTE   W36
// 021   ----------------------------------------
 BYTE   N05  Fn3
 BYTE   W06
 BYTE   En3
 BYTE   W06
 BYTE   N68  Dn3
 BYTE   W72
 BYTE   N92  Cn3
 BYTE   W12
// 022   ----------------------------------------
 BYTE   W84
 BYTE   N11  An2
 BYTE   W12
// 023   ----------------------------------------
 BYTE   Cn3
 BYTE   W12
 BYTE   N92  En3
 BYTE   W84
// 024   ----------------------------------------
 BYTE   W12
 BYTE   N11  Fn3
 BYTE   W12
 BYTE   Gn3
 BYTE   W12
 BYTE   N32  En3
 BYTE   W36
 BYTE   N05  Fn3
 BYTE   W06
 BYTE   En3
 BYTE   W06
 BYTE   N64  Dn3
 BYTE   W12
// 025   ----------------------------------------
 BYTE   W60
 BYTE   VOICE   104
 BYTE   N05  As2
 BYTE   W06
 BYTE   Gn2
 BYTE   W06
 BYTE   As2
 BYTE   W06
 BYTE   Cn3
 BYTE   W06
 BYTE   As2
 BYTE   W06
 BYTE   Cn3
 BYTE   W06
// 026   ----------------------------------------
 BYTE   Ds3
 BYTE   W06
 BYTE   Cn3
 BYTE   W06
 BYTE   Ds3
 BYTE   W06
 BYTE   Fn3
 BYTE   W06
 BYTE   Ds3
 BYTE   W06
 BYTE   Fn3
 BYTE   W06
 BYTE   Gn2
 BYTE   W06
 BYTE   Fn2
 BYTE   W06
 BYTE   Gn2
 BYTE   W06
 BYTE   As2
 BYTE   W06
 BYTE   Gn2
 BYTE   W06
 BYTE   As2
 BYTE   W06
 BYTE   Cn3
 BYTE   W06
 BYTE   As2
 BYTE   W06
 BYTE   Cn3
 BYTE   W06
 BYTE   Ds3
 BYTE   W06
// 027   ----------------------------------------
 BYTE   Cn3
 BYTE   W06
 BYTE   Ds3
 BYTE   W06
 BYTE   Fn3
 BYTE   W06
 BYTE   Ds3
 BYTE   W06
 BYTE   Fn3
 BYTE   W06
 BYTE   Gn3
 BYTE   W06
 BYTE   Fn3
 BYTE   W06
 BYTE   Gn3
 BYTE   W06
 BYTE   As3
 BYTE   W06
 BYTE   Gn3
 BYTE   W06
 BYTE   As3
 BYTE   W06
 BYTE   Cn4
 BYTE   W06
 BYTE   As3
 BYTE   W06
 BYTE   Gn3
 BYTE   W06
 BYTE   Ds4
 BYTE   W06
 BYTE   N17  Fn4
 BYTE   W06
// 028   ----------------------------------------
 BYTE   W11
 BYTE   GoTo
  POIN2 Label_2_010D1FD6
 BYTE   FINE

//**************** Track 4 (Midi-Chn.3) ****************//

FE06IntheNameofBernRandomWizard_004:
// 000   ----------------------------------------
 BYTE   KEYSH   FE06IntheNameofBernRandomWizard_key+0
 BYTE   VOICE   57
 BYTE   W12
 BYTE   VOL   23*FE06IntheNameofBernRandomWizard_mvl/mxv
 BYTE   PAN   c_v-24
 BYTE   W48
Label_3_010D1386:
 BYTE   N11  Dn2  v127
 BYTE   W12
 BYTE   N05  Dn3
 BYTE   W06
 BYTE   N11  Dn2
 BYTE   W12
 BYTE   N05  Dn3
 BYTE   W06
// 001   ----------------------------------------
Label_3_010D1393:
 BYTE   N23  Cn3  v127
 BYTE   W24
 BYTE   N11  Dn2
 BYTE   W12
 BYTE   N05  Dn3
 BYTE   W06
 BYTE   N11  Dn2
 BYTE   W12
 BYTE   N05  Dn3
 BYTE   W06
 BYTE   N23  Cn3
 BYTE   W24
 BYTE   N11  Dn2
 BYTE   W12
 BYTE   PEND 
// 002   ----------------------------------------
Label_3_010D13AA:
 BYTE   N05  Dn3  v127
 BYTE   W06
 BYTE   N11  Dn2
 BYTE   W12
 BYTE   N05  Dn3
 BYTE   W06
 BYTE   N23  Cn3
 BYTE   W24
 BYTE   N11  Dn2
 BYTE   W12
 BYTE   N05  Dn3
 BYTE   W06
 BYTE   N11  Dn2
 BYTE   W12
 BYTE   N05  Dn3
 BYTE   W06
 BYTE   N23  Cn3
 BYTE   W12
 BYTE   PEND 
// 003   ----------------------------------------
Label_3_010D13C7:
 BYTE   W12
 BYTE   N11  Dn2  v127
 BYTE   W12
 BYTE   N05  Dn3
 BYTE   W06
 BYTE   N11  Dn2
 BYTE   W12
 BYTE   N05  Dn3
 BYTE   W06
 BYTE   N23  Cn3
 BYTE   W24
 BYTE   N11  Dn2
 BYTE   W12
 BYTE   N05  Dn3
 BYTE   W06
 BYTE   N11  Dn2
 BYTE   W06
 BYTE   PEND 
// 004   ----------------------------------------
Label_3_010D13E2:
 BYTE   W06
 BYTE   N05  Dn3  v127
 BYTE   W06
 BYTE   N23  Cn3
 BYTE   W24
 BYTE   N11  Dn2
 BYTE   W12
 BYTE   N05  Dn3
 BYTE   W06
 BYTE   N11  Dn2
 BYTE   W12
 BYTE   N05  Dn3
 BYTE   W06
 BYTE   N23  Cn3
 BYTE   W24
 BYTE   PEND 
// 005   ----------------------------------------
Label_3_010D13FA:
 BYTE   N11  Dn2  v127
 BYTE   W12
 BYTE   N05  Dn3
 BYTE   W06
 BYTE   N11  Dn2
 BYTE   W12
 BYTE   N05  Dn3
 BYTE   W06
 BYTE   N23  Cn3
 BYTE   W24
 BYTE   N11  Dn2
 BYTE   W12
 BYTE   N05  Dn3
 BYTE   W06
 BYTE   N11  Dn2
 BYTE   W12
 BYTE   N05  Dn3
 BYTE   W06
 BYTE   PEND 
 BYTE   PATT
  POIN2 Label_3_010D1393
 BYTE   PATT
  POIN2 Label_3_010D13AA
 BYTE   PATT
  POIN2 Label_3_010D13C7
 BYTE   PATT
  POIN2 Label_3_010D13E2
// 006   ----------------------------------------
Label_3_010D142B:
 BYTE   N11  Dn2  v127
 BYTE   W12
 BYTE   N05  Dn3
 BYTE   W06
 BYTE   N11  Dn2
 BYTE   W12
 BYTE   N05  Dn3
 BYTE   W06
 BYTE   N23  Cn3
 BYTE   W24
 BYTE   N11  Cn2
 BYTE   W12
 BYTE   N05  Cn3
 BYTE   W06
 BYTE   N11  Cn2
 BYTE   W12
 BYTE   N05  Cn3
 BYTE   W06
 BYTE   PEND 
// 007   ----------------------------------------
Label_3_010D1448:
 BYTE   N23  As2  v127
 BYTE   W24
 BYTE   N11  Cn2
 BYTE   W12
 BYTE   N05  Cn3
 BYTE   W06
 BYTE   N11  Cn2
 BYTE   W12
 BYTE   N05  Cn3
 BYTE   W06
 BYTE   N23  As2
 BYTE   W24
 BYTE   N11  Cn2
 BYTE   W12
 BYTE   PEND 
// 008   ----------------------------------------
Label_3_010D145F:
 BYTE   N05  Cn3  v127
 BYTE   W06
 BYTE   N11  Cn2
 BYTE   W12
 BYTE   N05  Cn3
 BYTE   W06
 BYTE   N23  As2
 BYTE   W24
 BYTE   N11  Cn2
 BYTE   W12
 BYTE   N05  Cn3
 BYTE   W06
 BYTE   N11  Cn2
 BYTE   W12
 BYTE   N05  Cn3
 BYTE   W06
 BYTE   N23  As2
 BYTE   W12
 BYTE   PEND 
// 009   ----------------------------------------
 BYTE   W12
 BYTE   N11  Cn2
 BYTE   W12
 BYTE   N05  Cn3
 BYTE   W06
 BYTE   N11  Cn2
 BYTE   W12
 BYTE   N05  Cn3
 BYTE   W06
 BYTE   N23  As2
 BYTE   W24
 BYTE   N11  Cn2
 BYTE   W12
 BYTE   N05  Cn3
 BYTE   W06
 BYTE   N11  Cn2
 BYTE   W06
// 010   ----------------------------------------
 BYTE   W06
 BYTE   N05  Cn3
 BYTE   W06
 BYTE   N23  As2
 BYTE   W24
 BYTE   N11  Cn2
 BYTE   W12
 BYTE   N05  Cn3
 BYTE   W06
 BYTE   N11  Cn2
 BYTE   W12
 BYTE   N05  Cn3
 BYTE   W06
 BYTE   N23  As2
 BYTE   W24
// 011   ----------------------------------------
 BYTE   N11  Cn2
 BYTE   W12
 BYTE   N05  Cn3
 BYTE   W06
 BYTE   N11  Cn2
 BYTE   W12
 BYTE   N05  Cn3
 BYTE   W06
 BYTE   N23  As2
 BYTE   W24
 BYTE   N11  Cn2
 BYTE   W12
 BYTE   N05  Cn3
 BYTE   W06
 BYTE   N11  Cn2
 BYTE   W12
 BYTE   N05  Cn3
 BYTE   W06
 BYTE   PATT
  POIN2 Label_3_010D1448
 BYTE   PATT
  POIN2 Label_3_010D145F
 BYTE   PATT
  POIN2 Label_3_010D13C7
 BYTE   PATT
  POIN2 Label_3_010D13E2
 BYTE   PATT
  POIN2 Label_3_010D13FA
 BYTE   PATT
  POIN2 Label_3_010D1393
 BYTE   PATT
  POIN2 Label_3_010D13AA
 BYTE   PATT
  POIN2 Label_3_010D13C7
 BYTE   PATT
  POIN2 Label_3_010D13E2
 BYTE   PATT
  POIN2 Label_3_010D142B
 BYTE   PATT
  POIN2 Label_3_010D1448
 BYTE   PATT
  POIN2 Label_3_010D145F
// 012   ----------------------------------------
 BYTE   W11
 BYTE   GoTo
  POIN2 Label_3_010D1386
 BYTE   FINE

//**************** Track 5 (Midi-Chn.4) ****************//

FE06IntheNameofBernRandomWizard_005:
// 000   ----------------------------------------
 BYTE   KEYSH   FE06IntheNameofBernRandomWizard_key+0
 BYTE   W36
 BYTE   VOICE   33
 BYTE   VOL   24*FE06IntheNameofBernRandomWizard_mvl/mxv
 BYTE   PAN   c_v+0
 BYTE   W24
Label_4_010D1832:
 BYTE   N11  Dn3  v112
 BYTE   W12
 BYTE   N05  Dn3  v036
 BYTE   W06
 BYTE   N11  Dn3  v112
 BYTE   W12
 BYTE   N05  Dn3  v036
 BYTE   W06
// 001   ----------------------------------------
Label_4_010D1842:
 BYTE   W22
 BYTE   N11  Dn3  v112
 BYTE   W12
 BYTE   N05  Dn3  v036
 BYTE   W06
 BYTE   N11  Dn3  v112
 BYTE   W12
 BYTE   N05  Dn3  v036
 BYTE   W30
 BYTE   N11  Dn3  v112
 BYTE   W12
 BYTE   N05  Dn3  v036
 BYTE   W02
 BYTE   PEND 
// 002   ----------------------------------------
Label_4_010D185C:
 BYTE   W04
 BYTE   N11  Dn3  v112
 BYTE   W12
 BYTE   N05  Dn3  v036
 BYTE   W30
 BYTE   N11  Dn3  v112
 BYTE   W12
 BYTE   N05  Dn3  v036
 BYTE   W06
 BYTE   N11  Dn3  v112
 BYTE   W12
 BYTE   N05  Dn3  v036
 BYTE   W20
 BYTE   PEND 
// 003   ----------------------------------------
 BYTE   W12
 BYTE   N10  Dn3  v112
 BYTE   W10
 BYTE   N05  Dn3  v036
 BYTE   W06
 BYTE   N11  Dn3  v112
 BYTE   W12
 BYTE   N05  Dn3  v036
 BYTE   W30
 BYTE   N11  Dn3  v112
 BYTE   W12
 BYTE   N05  Dn3  v036
 BYTE   W06
 BYTE   N11  Dn3  v112
 BYTE   W08
// 004   ----------------------------------------
Label_4_010D1893:
 BYTE   W04
 BYTE   N05  Dn3  v036
 BYTE   W30
 BYTE   N11  Dn3  v112
 BYTE   W12
 BYTE   N05  Dn3  v036
 BYTE   W06
 BYTE   N11  Dn3  v112
 BYTE   W12
 BYTE   N05  Dn3  v036
 BYTE   W30
 BYTE   N11  Dn3  v112
 BYTE   W02
 BYTE   PEND 
// 005   ----------------------------------------
Label_4_010D18AD:
 BYTE   W10
 BYTE   N05  Dn3  v036
 BYTE   W06
 BYTE   N11  Dn3  v112
 BYTE   W12
 BYTE   N05  Dn3  v036
 BYTE   W30
 BYTE   N11  Dn3  v112
 BYTE   W12
 BYTE   N05  Dn3  v036
 BYTE   W06
 BYTE   N11  Dn3  v112
 BYTE   W12
 BYTE   N05  Dn3  v036
 BYTE   W08
 BYTE   PEND 
 BYTE   PATT
  POIN2 Label_4_010D1842
 BYTE   PATT
  POIN2 Label_4_010D185C
// 006   ----------------------------------------
Label_4_010D18D5:
 BYTE   W10
 BYTE   N11  Dn3  v112
 BYTE   W12
 BYTE   N05  Dn3  v036
 BYTE   W06
 BYTE   N11  Dn3  v112
 BYTE   W12
 BYTE   N05  Dn3  v036
 BYTE   W30
 BYTE   N11  Dn3  v112
 BYTE   W12
 BYTE   N05  Dn3  v036
 BYTE   W06
 BYTE   N11  Dn3  v112
 BYTE   W08
 BYTE   PEND 
 BYTE   PATT
  POIN2 Label_4_010D1893
// 007   ----------------------------------------
Label_4_010D18F8:
 BYTE   W10
 BYTE   N05  Dn3  v036
 BYTE   W06
 BYTE   N11  Dn3  v112
 BYTE   W12
 BYTE   N05  Dn3  v036
 BYTE   W30
 BYTE   N11  Cn3  v112
 BYTE   W12
 BYTE   N05  Cn3  v036
 BYTE   W06
 BYTE   N11  Cn3  v112
 BYTE   W12
 BYTE   N05  Cn3  v036
 BYTE   W08
 BYTE   PEND 
// 008   ----------------------------------------
Label_4_010D1916:
 BYTE   W22
 BYTE   N11  Cn3  v112
 BYTE   W12
 BYTE   N05  Cn3  v036
 BYTE   W06
 BYTE   N11  Cn3  v112
 BYTE   W12
 BYTE   N05  Cn3  v036
 BYTE   W30
 BYTE   N11  Cn3  v112
 BYTE   W12
 BYTE   N05  Cn3  v036
 BYTE   W02
 BYTE   PEND 
// 009   ----------------------------------------
Label_4_010D1930:
 BYTE   W04
 BYTE   N11  Cn3  v112
 BYTE   W12
 BYTE   N05  Cn3  v036
 BYTE   W30
 BYTE   N11  Cn3  v112
 BYTE   W12
 BYTE   N05  Cn3  v036
 BYTE   W06
 BYTE   N11  Cn3  v112
 BYTE   W12
 BYTE   N05  Cn3  v036
 BYTE   W20
 BYTE   PEND 
// 010   ----------------------------------------
 BYTE   W10
 BYTE   N11  Cn3  v112
 BYTE   W12
 BYTE   N05  Cn3  v036
 BYTE   W06
 BYTE   N11  Cn3  v112
 BYTE   W12
 BYTE   N05  Cn3  v036
 BYTE   W30
 BYTE   N11  Cn3  v112
 BYTE   W12
 BYTE   N05  Cn3  v036
 BYTE   W06
 BYTE   N11  Cn3  v112
 BYTE   W08
// 011   ----------------------------------------
 BYTE   W04
 BYTE   N05  Cn3  v036
 BYTE   W30
 BYTE   N11  Cn3  v112
 BYTE   W12
 BYTE   N05  Cn3  v036
 BYTE   W06
 BYTE   N11  Cn3  v112
 BYTE   W12
 BYTE   N05  Cn3  v036
 BYTE   W30
 BYTE   N11  Cn3  v112
 BYTE   W02
// 012   ----------------------------------------
 BYTE   W10
 BYTE   N05  Cn3  v036
 BYTE   W06
 BYTE   N11  Cn3  v112
 BYTE   W12
 BYTE   N05  Cn3  v036
 BYTE   W30
 BYTE   N11  Cn3  v112
 BYTE   W12
 BYTE   N05  Cn3  v036
 BYTE   W06
 BYTE   N11  Cn3  v112
 BYTE   W12
 BYTE   N05  Cn3  v036
 BYTE   W08
 BYTE   PATT
  POIN2 Label_4_010D1916
 BYTE   PATT
  POIN2 Label_4_010D1930
 BYTE   PATT
  POIN2 Label_4_010D18D5
 BYTE   PATT
  POIN2 Label_4_010D1893
 BYTE   PATT
  POIN2 Label_4_010D18AD
 BYTE   PATT
  POIN2 Label_4_010D1842
 BYTE   PATT
  POIN2 Label_4_010D185C
 BYTE   PATT
  POIN2 Label_4_010D18D5
 BYTE   PATT
  POIN2 Label_4_010D1893
 BYTE   PATT
  POIN2 Label_4_010D18F8
 BYTE   PATT
  POIN2 Label_4_010D1916
 BYTE   PATT
  POIN2 Label_4_010D1930
// 013   ----------------------------------------
 BYTE   W11
 BYTE   GoTo
  POIN2 Label_4_010D1832
 BYTE   FINE

//**************** Track 6 (Midi-Chn.5) ****************//

FE06IntheNameofBernRandomWizard_006:
// 000   ----------------------------------------
 BYTE   KEYSH   FE06IntheNameofBernRandomWizard_key+0
 BYTE   VOICE   124
 BYTE   W12
 BYTE   VOL   21*FE06IntheNameofBernRandomWizard_mvl/mxv
 BYTE   PAN   c_v-6
 BYTE   W48
Label_5_010D2212:
 BYTE   N23  An2  v096
 BYTE   W24
 BYTE   N04  Fn2  v072
 BYTE   W05
 BYTE   N06  Cn1  v096
 BYTE   W07
// 001   ----------------------------------------
Label_5_010D221E:
 BYTE   N11  Dn1  v096
 BYTE   N11  Fn2  v072
 BYTE   W12
 BYTE   Cn1  v096
 BYTE   N11  Fn2  v072
 BYTE   W12
 BYTE   Cn1  v096
 BYTE   N11  Fn2  v072
 BYTE   W12
 BYTE   N11
 BYTE   W12
 BYTE   N04
 BYTE   W05
 BYTE   N06  Cn1  v096
 BYTE   W07
 BYTE   N11  Dn1
 BYTE   N11  Fn2  v072
 BYTE   W12
 BYTE   Cn1  v096
 BYTE   N11  Fn2  v072
 BYTE   W12
 BYTE   Cn1  v096
 BYTE   N11  Fn2  v072
 BYTE   W12
 BYTE   PEND 
// 002   ----------------------------------------
Label_5_010D224C:
 BYTE   N11  Fn2  v072
 BYTE   W12
 BYTE   N04
 BYTE   W05
 BYTE   N06  Cn1  v096
 BYTE   W07
 BYTE   N11  Dn1
 BYTE   N11  Fn2  v072
 BYTE   W12
 BYTE   Cn1  v096
 BYTE   N11  Fn2  v072
 BYTE   W12
 BYTE   Cn1  v096
 BYTE   N11  Fn2  v072
 BYTE   W12
 BYTE   N11
 BYTE   W12
 BYTE   N04
 BYTE   W05
 BYTE   N06  Cn1  v096
 BYTE   W07
 BYTE   N11  Dn1
 BYTE   N11  Fn2  v072
 BYTE   W12
 BYTE   PEND 
// 003   ----------------------------------------
Label_5_010D2277:
 BYTE   N11  Cn1  v096
 BYTE   N11  Fn2  v072
 BYTE   W12
 BYTE   Cn1  v096
 BYTE   N11  Fn2  v072
 BYTE   W12
 BYTE   N11
 BYTE   W12
 BYTE   N04
 BYTE   W05
 BYTE   N06  Cn1  v096
 BYTE   W07
 BYTE   N11  Dn1
 BYTE   N11  Fn2  v072
 BYTE   W12
 BYTE   Cn1  v096
 BYTE   N11  Fn2  v072
 BYTE   W12
 BYTE   Cn1  v096
 BYTE   N11  Fn2  v072
 BYTE   W12
 BYTE   N11
 BYTE   W12
 BYTE   PEND 
// 004   ----------------------------------------
Label_5_010D22A1:
 BYTE   N04  Fn2  v072
 BYTE   W05
 BYTE   N06  Cn1  v096
 BYTE   W07
 BYTE   N11  Dn1
 BYTE   N11  Fn2  v072
 BYTE   W12
 BYTE   Cn1  v096
 BYTE   N11  Fn2  v072
 BYTE   W12
 BYTE   Cn1  v096
 BYTE   N11  Fn2  v072
 BYTE   W12
 BYTE   N11
 BYTE   W12
 BYTE   N04
 BYTE   W05
 BYTE   N06  Cn1  v096
 BYTE   W07
 BYTE   N11  Dn1
 BYTE   N11  Fn2  v072
 BYTE   W12
 BYTE   Cn1  v096
 BYTE   N11  Fn2  v072
 BYTE   W12
 BYTE   PEND 
// 005   ----------------------------------------
Label_5_010D22D0:
 BYTE   N11  Cn1  v096
 BYTE   N11  Fn2  v072
 BYTE   W12
 BYTE   N11
 BYTE   W12
 BYTE   N04
 BYTE   W05
 BYTE   N06  Cn1  v096
 BYTE   W07
 BYTE   N11  Dn1
 BYTE   N11  Fn2  v072
 BYTE   W12
 BYTE   Cn1  v096
 BYTE   N11  Fn2  v072
 BYTE   W12
 BYTE   Cn1  v096
 BYTE   N11  Fn2  v072
 BYTE   W12
 BYTE   N11
 BYTE   W12
 BYTE   N04
 BYTE   W05
 BYTE   N06  Cn1  v096
 BYTE   W07
 BYTE   PEND 
 BYTE   PATT
  POIN2 Label_5_010D221E
 BYTE   PATT
  POIN2 Label_5_010D224C
 BYTE   PATT
  POIN2 Label_5_010D2277
 BYTE   PATT
  POIN2 Label_5_010D22A1
 BYTE   PATT
  POIN2 Label_5_010D22D0
 BYTE   PATT
  POIN2 Label_5_010D221E
 BYTE   PATT
  POIN2 Label_5_010D224C
 BYTE   PATT
  POIN2 Label_5_010D2277
 BYTE   PATT
  POIN2 Label_5_010D22A1
 BYTE   PATT
  POIN2 Label_5_010D22D0
 BYTE   PATT
  POIN2 Label_5_010D221E
 BYTE   PATT
  POIN2 Label_5_010D224C
// 006   ----------------------------------------
Label_5_010D2336:
 BYTE   N11  Cn1  v096
 BYTE   N11  Fn2  v072
 BYTE   W12
 BYTE   N05  Cn1  v096
 BYTE   N05  Fn2  v072
 BYTE   W06
 BYTE   Ds2  v096
 BYTE   W06
 BYTE   N05
 BYTE   N05  Fn2  v072
 BYTE   W06
 BYTE   Ds2  v096
 BYTE   W06
 BYTE   N04  Fn2  v072
 BYTE   W05
 BYTE   N06  Cn1  v096
 BYTE   W01
 BYTE   N05  Ds2
 BYTE   W06
 BYTE   N11  Dn1
 BYTE   N11  Fn2  v072
 BYTE   W12
 BYTE   Cn1  v096
 BYTE   N11  Fn2  v072
 BYTE   W12
 BYTE   Cn1  v096
 BYTE   N11  Fn2  v072
 BYTE   W12
 BYTE   N08  Ds2  v096
 BYTE   N11  Fn2  v072
 BYTE   W12
 BYTE   PEND 
// 007   ----------------------------------------
 BYTE   N04  Ds2  v096
 BYTE   N04  Fn2  v072
 BYTE   W05
 BYTE   N06  Cn1  v096
 BYTE   W07
 BYTE   N11  Dn1
 BYTE   N08  Ds2
 BYTE   N11  Fn2  v072
 BYTE   W12
 BYTE   Cn1  v096
 BYTE   N08  Ds2
 BYTE   N11  Fn2  v072
 BYTE   W12
 BYTE   N05  Cn1  v096
 BYTE   N05  Fn2  v072
 BYTE   W06
 BYTE   Ds2  v096
 BYTE   W06
 BYTE   N05
 BYTE   N05  Fn2  v072
 BYTE   W06
 BYTE   Ds2  v096
 BYTE   W06
 BYTE   N04  Fn2  v072
 BYTE   W05
 BYTE   N06  Cn1  v096
 BYTE   W01
 BYTE   N05  Ds2
 BYTE   W06
 BYTE   N11  Dn1
 BYTE   N11  Fn2  v072
 BYTE   W12
 BYTE   Cn1  v096
 BYTE   N11  Fn2  v072
 BYTE   W12
// 008   ----------------------------------------
Label_5_010D23B8:
 BYTE   N11  Cn1  v096
 BYTE   N11  Fn2  v072
 BYTE   W12
 BYTE   N08  Ds2  v096
 BYTE   N11  Fn2  v072
 BYTE   W12
 BYTE   N04  Ds2  v096
 BYTE   N04  Fn2  v072
 BYTE   W05
 BYTE   N06  Cn1  v096
 BYTE   W07
 BYTE   N11  Dn1
 BYTE   N11  Fn2  v072
 BYTE   W12
 BYTE   Cn1  v096
 BYTE   N11  Fn2  v072
 BYTE   W12
 BYTE   N05  Cn1  v096
 BYTE   N05  Fn2  v072
 BYTE   W06
 BYTE   Ds2  v096
 BYTE   W06
 BYTE   N05
 BYTE   N05  Fn2  v072
 BYTE   W06
 BYTE   Ds2  v096
 BYTE   W06
 BYTE   N04  Fn2  v072
 BYTE   W05
 BYTE   N06  Cn1  v096
 BYTE   W01
 BYTE   N05  Ds2
 BYTE   W06
 BYTE   PEND 
// 009   ----------------------------------------
Label_5_010D23FB:
 BYTE   N11  Dn1  v096
 BYTE   N11  Fn2  v072
 BYTE   W12
 BYTE   Cn1  v096
 BYTE   N11  Fn2  v072
 BYTE   W12
 BYTE   Cn1  v096
 BYTE   N11  Fn2  v072
 BYTE   W12
 BYTE   N08  Ds2  v096
 BYTE   N11  Fn2  v072
 BYTE   W12
 BYTE   N04  Ds2  v096
 BYTE   N04  Fn2  v072
 BYTE   W05
 BYTE   N06  Cn1  v096
 BYTE   W07
 BYTE   N11  Dn1
 BYTE   N11  Fn2  v072
 BYTE   W12
 BYTE   Cn1  v096
 BYTE   N11  Fn2  v072
 BYTE   W12
 BYTE   N05  Cn1  v096
 BYTE   N05  Fn2  v072
 BYTE   W06
 BYTE   Ds2  v096
 BYTE   W06
 BYTE   PEND 
// 010   ----------------------------------------
Label_5_010D2437:
 BYTE   N05  Ds2  v096
 BYTE   N05  Fn2  v072
 BYTE   W06
 BYTE   Ds2  v096
 BYTE   W06
 BYTE   N04  Fn2  v072
 BYTE   W05
 BYTE   N06  Cn1  v096
 BYTE   W01
 BYTE   N05  Ds2
 BYTE   W06
 BYTE   N11  Dn1
 BYTE   N11  Fn2  v072
 BYTE   W12
 BYTE   Cn1  v096
 BYTE   N11  Fn2  v072
 BYTE   W12
 BYTE   Cn1  v096
 BYTE   N11  Fn2  v072
 BYTE   W12
 BYTE   N08  Ds2  v096
 BYTE   N11  Fn2  v072
 BYTE   W12
 BYTE   N04  Ds2  v096
 BYTE   N04  Fn2  v072
 BYTE   W05
 BYTE   N06  Cn1  v096
 BYTE   W07
 BYTE   N11  Dn1
 BYTE   N11  Fn2  v072
 BYTE   W12
 BYTE   PEND 
 BYTE   PATT
  POIN2 Label_5_010D2336
// 011   ----------------------------------------
 BYTE   N04  Ds2  v096
 BYTE   N04  Fn2  v072
 BYTE   W05
 BYTE   N06  Cn1  v096
 BYTE   W07
 BYTE   N11  Dn1
 BYTE   N11  Fn2  v072
 BYTE   W12
 BYTE   Cn1  v096
 BYTE   N11  Fn2  v072
 BYTE   W12
 BYTE   N05  Cn1  v096
 BYTE   N05  Fn2  v072
 BYTE   W06
 BYTE   Ds2  v096
 BYTE   W06
 BYTE   N05
 BYTE   N05  Fn2  v072
 BYTE   W06
 BYTE   Ds2  v096
 BYTE   W06
 BYTE   N04  Fn2  v072
 BYTE   W05
 BYTE   N06  Cn1  v096
 BYTE   W01
 BYTE   N05  Ds2
 BYTE   W06
 BYTE   N11  Dn1
 BYTE   N11  Fn2  v072
 BYTE   W12
 BYTE   Cn1  v096
 BYTE   N11  Fn2  v072
 BYTE   W12
 BYTE   PATT
  POIN2 Label_5_010D23B8
 BYTE   PATT
  POIN2 Label_5_010D23FB
 BYTE   PATT
  POIN2 Label_5_010D2437
// 012   ----------------------------------------
 BYTE   N11  Cn1  v096
 BYTE   N11  Fn2  v072
 BYTE   W11
 BYTE   GoTo
  POIN2 Label_5_010D2212
 BYTE   FINE

//******************************************************//
	ALIGN 4

FE06IntheNameofBernRandomWizard:
	BYTE	6	// NumTrks
	BYTE	0	// NumBlks
	BYTE	FE06IntheNameofBernRandomWizard_pri	// Priority
	BYTE	FE06IntheNameofBernRandomWizard_rev	// Reverb.
    
	POIN2	FE06IntheNameofBernRandomWizard_grp
    
	POIN2	FE06IntheNameofBernRandomWizard_001
	POIN2	FE06IntheNameofBernRandomWizard_002
	POIN2	FE06IntheNameofBernRandomWizard_003
	POIN2	FE06IntheNameofBernRandomWizard_004
	POIN2	FE06IntheNameofBernRandomWizard_005
	POIN2	FE06IntheNameofBernRandomWizard_006

	
