//Event file generated from Sappy .s format.
	#include "MPlayDef.event"

	#define	FE07PreciousThingsAlice_grp  voicegroup000
	#define	FE07PreciousThingsAlice_pri  10
	#define	FE07PreciousThingsAlice_rev  128
	#define	FE07PreciousThingsAlice_mvl  127
	#define	FE07PreciousThingsAlice_key  0
	#define	FE07PreciousThingsAlice_tbs  1
	#define	FE07PreciousThingsAlice_exg  0
	#define	FE07PreciousThingsAlice_cmp  1

	// .rodata
	//	FE07PreciousThingsAlice
	ALIGN 4


//**************** Track 1 (Midi-Chn.0) ****************//

FE07PreciousThingsAlice_001:
//  #01 //000   ----------------------------------------
 BYTE   KEYSH   FE07PreciousThingsAlice_key+0
Label_01391DB2:
 BYTE   TEMPO   132*FE07PreciousThingsAlice_tbs/2
 BYTE   VOICE   63
 BYTE   VOL   30*FE07PreciousThingsAlice_mvl/mxv
 BYTE   PAN   c_v+6
 BYTE   N44  Dn4  v096
 BYTE   W48
 BYTE   N07  Dn4  v028
 BYTE   W12
 BYTE   N05  Fn3  v096
 BYTE   W06
 BYTE   Fn3  v028
 BYTE   W06
 BYTE   As3  v096
 BYTE   W06
 BYTE   As3  v028
 BYTE   W06
 BYTE   Dn4  v096
 BYTE   W06
 BYTE   Dn4  v028
 BYTE   W06
//  #01 //001   ----------------------------------------
 BYTE   N17  Ds4  v096
 BYTE   W18
 BYTE   N05  Ds4  v028
 BYTE   W06
 BYTE   N16  Dn4  v096
 BYTE   W18
 BYTE   N05  Dn4  v028
 BYTE   W06
 BYTE   N16  Cn4  v096
 BYTE   W18
 BYTE   N05  Cn4  v028
 BYTE   W06
 BYTE   N17  As3  v096
 BYTE   W18
 BYTE   N05  As3  v028
 BYTE   W06
//  #01 //002   ----------------------------------------
 BYTE   Cn4  v096
 BYTE   W06
 BYTE   Cn4  v028
 BYTE   W06
 BYTE   N68  Dn4  v096
 BYTE   W72
 BYTE   N05  Dn4  v028
 BYTE   W12
//  #01 //003   ----------------------------------------
 BYTE   W96
//  #01 //004   ----------------------------------------
 BYTE   N44  Dn4  v096
 BYTE   W48
 BYTE   N05  Dn4  v028
 BYTE   W12
 BYTE   Fn3  v096
 BYTE   W06
 BYTE   Fn3  v028
 BYTE   W06
 BYTE   As3  v096
 BYTE   W06
 BYTE   As3  v028
 BYTE   W06
 BYTE   Dn4  v096
 BYTE   W06
 BYTE   Dn4  v028
 BYTE   W06
//  #01 //005   ----------------------------------------
 BYTE   N15  Ds4  v096
 BYTE   W18
 BYTE   N05  Ds4  v028
 BYTE   W06
 BYTE   N16  Dn4  v096
 BYTE   W18
 BYTE   N05  Dn4  v028
 BYTE   W18
 BYTE   N11  Cn4  v084
 BYTE   W12
 BYTE   Dn4
 BYTE   W12
 BYTE   Ds4  v088
 BYTE   W12
//  #01 //006   ----------------------------------------
 BYTE   TIE  Fn4  v096
 BYTE   W96
//  #01 //007   ----------------------------------------
 BYTE   W32
 BYTE   W03
 BYTE   EOT
 BYTE   W01
 BYTE   N05  Fn4  v028
 BYTE   W12
 BYTE   VOICE   40
 BYTE   VOL   39*FE07PreciousThingsAlice_mvl/mxv
 BYTE   PAN   c_v+14
 BYTE   W12
 BYTE   N11  Dn4  v124
 BYTE   W12
 BYTE   As3  v100
 BYTE   W12
 BYTE   Fn3  v092
 BYTE   W12
//  #01 //008   ----------------------------------------
 BYTE   N68  Gn3  v120
 BYTE   W72
 BYTE   N11  An3  v104
 BYTE   W12
 BYTE   As3  v092
 BYTE   W12
//  #01 //009   ----------------------------------------
 BYTE   N44  Cn4  v108
 BYTE   W48
 BYTE   N23  Dn4  v124
 BYTE   W24
 BYTE   Ds4  v092
 BYTE   W24
//  #01 //010   ----------------------------------------
 BYTE   N44  Fn4  v116
 BYTE   W48
 BYTE   An3
 BYTE   W48
//  #01 //011   ----------------------------------------
 BYTE   Cn4  v120
 BYTE   W48
 BYTE   N23  As3  v084
 BYTE   W24
 BYTE   An3  v100
 BYTE   W24
//  #01 //012   ----------------------------------------
 BYTE   N52  Gn3
 BYTE   W60
 BYTE   N11  Ds3  v104
 BYTE   W12
 BYTE   Fn3  v096
 BYTE   W12
 BYTE   Gn3  v088
 BYTE   W12
//  #01 //013   ----------------------------------------
 BYTE   N52  Cn4  v112
 BYTE   W60
 BYTE   N11  En3
 BYTE   W12
 BYTE   Fn3  v096
 BYTE   W12
 BYTE   Gn3  v100
 BYTE   W12
//  #01 //014   ----------------------------------------
 BYTE   N52  Cn4  v116
 BYTE   W60
 BYTE   N11  Cn4  v112
 BYTE   W12
 BYTE   Dn4  v096
 BYTE   W12
 BYTE   Ds4  v100
 BYTE   W12
//  #01 //015   ----------------------------------------
 BYTE   N78  Fn4
 BYTE   W96
//  #01 //016   ----------------------------------------
 BYTE   VOICE   49
 BYTE   VOL   41*FE07PreciousThingsAlice_mvl/mxv
 BYTE   PAN   c_v-9
 BYTE   W24
 BYTE   N05  Fn2
 BYTE   N04  As2  v084
 BYTE   W06
 BYTE   N05  As2  v028
 BYTE   W06
 BYTE   Fn2  v100
 BYTE   N05  As2  v092
 BYTE   W06
 BYTE   As2  v028
 BYTE   W18
 BYTE   N03  Fn2  v096
 BYTE   N05  As2  v088
 BYTE   W06
 BYTE   As2  v028
 BYTE   W06
 BYTE   N17  Fn2  v108
 BYTE   N17  As2  v096
 BYTE   W18
 BYTE   N05  As2  v028
 BYTE   W06
//  #01 //017   ----------------------------------------
 BYTE   W24
 BYTE   Fn2  v100
 BYTE   N04  As2  v084
 BYTE   W06
 BYTE   N05  As2  v028
 BYTE   W06
 BYTE   Fn2  v100
 BYTE   N05  As2  v092
 BYTE   W06
 BYTE   As2  v028
 BYTE   W18
 BYTE   N03  Fn2  v096
 BYTE   N05  As2  v088
 BYTE   W06
 BYTE   As2  v028
 BYTE   W06
 BYTE   N17  Fn2  v108
 BYTE   N17  As2  v096
 BYTE   W18
 BYTE   N05  As2  v028
 BYTE   W06
//  #01 //018   ----------------------------------------
 BYTE   W24
 BYTE   N04  Fn2  v104
 BYTE   N04  As2  v096
 BYTE   W06
 BYTE   N05  As2  v028
 BYTE   W06
 BYTE   Fn2  v108
 BYTE   N05  As2  v104
 BYTE   W06
 BYTE   As2  v028
 BYTE   W18
 BYTE   N03  Fn2  v108
 BYTE   N03  As2  v100
 BYTE   W06
 BYTE   N05  As2  v028
 BYTE   W06
 BYTE   N17  Fn2  v112
 BYTE   N17  As2  v104
 BYTE   W18
 BYTE   N05  As2  v028
 BYTE   W06
//  #01 //019   ----------------------------------------
 BYTE   W24
 BYTE   N04  Fn2  v104
 BYTE   N04  As2  v096
 BYTE   W06
 BYTE   N05  As2  v028
 BYTE   W06
 BYTE   Fn2  v112
 BYTE   N05  As2
 BYTE   W06
 BYTE   As2  v028
 BYTE   W18
 BYTE   Fn2  v104
 BYTE   N05  As2  v108
 BYTE   W06
 BYTE   As2  v028
 BYTE   W06
 BYTE   Cn3  v104
 BYTE   W06
 BYTE   Cn3  v028
 BYTE   W06
 BYTE   Dn3  v108
 BYTE   W06
 BYTE   Dn3  v028
 BYTE   W06
//  #01 //020   ----------------------------------------
 BYTE   W24
 BYTE   N04  Fn2  v104
 BYTE   N04  As2  v100
 BYTE   W06
 BYTE   N05  As2  v028
 BYTE   W06
 BYTE   Fn2  v116
 BYTE   N05  As2  v108
 BYTE   W06
 BYTE   As2  v028
 BYTE   W18
 BYTE   N03  Fn2  v112
 BYTE   N03  As2  v104
 BYTE   W06
 BYTE   N05  As2  v028
 BYTE   W06
 BYTE   N17  Fn2  v112
 BYTE   N17  As2  v108
 BYTE   W18
 BYTE   N05  As2  v028
 BYTE   W06
//  #01 //021   ----------------------------------------
 BYTE   W24
 BYTE   N04  Fn2  v100
 BYTE   N04  As2  v096
 BYTE   W06
 BYTE   N05  As2  v028
 BYTE   W06
 BYTE   Fn2  v112
 BYTE   N05  As2  v104
 BYTE   W06
 BYTE   As2  v028
 BYTE   W18
 BYTE   N03  Fn2  v104
 BYTE   N04  As2  v096
 BYTE   W06
 BYTE   N05  As2  v028
 BYTE   W06
 BYTE   N17  Fn2  v116
 BYTE   N17  As2  v100
 BYTE   W18
 BYTE   N05  As2  v028
 BYTE   W06
//  #01 //022   ----------------------------------------
 BYTE   W24
 BYTE   N03  Fn2  v108
 BYTE   N03  As2  v100
 BYTE   W06
 BYTE   N05  As2  v028
 BYTE   W06
 BYTE   Fn2  v108
 BYTE   N05  As2  v100
 BYTE   W06
 BYTE   As2  v028
 BYTE   W18
 BYTE   N03  Fn2  v096
 BYTE   N03  As2  v100
 BYTE   W06
 BYTE   N05  As2  v028
 BYTE   W06
 BYTE   N17  Fn2  v112
 BYTE   N17  As2  v108
 BYTE   W18
 BYTE   N05  As2  v028
 BYTE   W06
//  #01 //023   ----------------------------------------
 BYTE   W24
 BYTE   N23  Fn2  v092
 BYTE   N23  Dn3  v112
 BYTE   W24
 BYTE   Cn3  v100
 BYTE   W24
 BYTE   N21  As2  v084
 BYTE   W24
//  #01 //024   ----------------------------------------
 BYTE   W24
 BYTE   N03  Fn2  v104
 BYTE   N02  As2  v096
 BYTE   W06
 BYTE   N05  As2  v028
 BYTE   W06
 BYTE   N03  Fn2  v100
 BYTE   N05  As2
 BYTE   W06
 BYTE   As2  v028
 BYTE   W18
 BYTE   N03  Fn2  v108
 BYTE   N03  As2  v100
 BYTE   W06
 BYTE   N05  As2  v028
 BYTE   W06
 BYTE   N13  Fn2  v120
 BYTE   N13  As2  v116
 BYTE   W18
 BYTE   N05  As2  v028
 BYTE   W06
//  #01 //025   ----------------------------------------
 BYTE   W24
 BYTE   N02  Fn2  v116
 BYTE   N03  As2  v112
 BYTE   W06
 BYTE   N05  As2  v028
 BYTE   W06
 BYTE   Fn2  v124
 BYTE   N04  As2  v108
 BYTE   W06
 BYTE   N05  As2  v028
 BYTE   W18
 BYTE   N03  Fn2  v120
 BYTE   N03  As2  v104
 BYTE   W06
 BYTE   N05  As2  v028
 BYTE   W06
 BYTE   N16  Fn2  v124
 BYTE   N16  As2  v112
 BYTE   W18
 BYTE   N05  As2  v028
 BYTE   W06
//  #01 //026   ----------------------------------------
 BYTE   W24
 BYTE   N04  Fn2  v116
 BYTE   N03  As2  v104
 BYTE   W06
 BYTE   N05  As2  v028
 BYTE   W06
 BYTE   Fn2  v112
 BYTE   N05  As2  v104
 BYTE   W06
 BYTE   As2  v028
 BYTE   W18
 BYTE   N04  Fn2  v104
 BYTE   N03  As2  v100
 BYTE   W06
 BYTE   N05  As2  v028
 BYTE   W06
 BYTE   N17  Fn2  v108
 BYTE   N17  As2  v104
 BYTE   W18
 BYTE   N05  As2  v028
 BYTE   W06
//  #01 //027   ----------------------------------------
 BYTE   W24
 BYTE   N03  Ds2  v108
 BYTE   N04  As2  v112
 BYTE   W06
 BYTE   N05  As2  v028
 BYTE   W06
 BYTE   Ds2  v108
 BYTE   N05  As2  v104
 BYTE   W06
 BYTE   As2  v028
 BYTE   W18
 BYTE   N03  Ds2  v104
 BYTE   N04  As2  v108
 BYTE   W06
 BYTE   N05  As2  v028
 BYTE   W06
 BYTE   N17  Ds2  v112
 BYTE   N17  As2  v108
 BYTE   W18
 BYTE   N05  As2  v028
 BYTE   W06
//  #01 //028   ----------------------------------------
 BYTE   W24
 BYTE   N03  Fn2  v104
 BYTE   N04  As2
 BYTE   W06
 BYTE   N05  As2  v028
 BYTE   W06
 BYTE   Fn2  v108
 BYTE   N05  As2  v116
 BYTE   W06
 BYTE   As2  v028
 BYTE   W18
 BYTE   N02  Fn2  v096
 BYTE   N04  As2  v108
 BYTE   W06
 BYTE   N05  As2  v028
 BYTE   W06
 BYTE   N17  Fn2  v108
 BYTE   N17  As2  v104
 BYTE   W18
 BYTE   N05  As2  v028
 BYTE   W06
//  #01 //029   ----------------------------------------
 BYTE   W24
 BYTE   N03  Fn2  v108
 BYTE   N03  As2  v104
 BYTE   W06
 BYTE   N05  As2  v028
 BYTE   W06
 BYTE   Fn2  v112
 BYTE   N05  As2  v108
 BYTE   W06
 BYTE   As2  v028
 BYTE   W18
 BYTE   N02  Fn2  v108
 BYTE   N03  As2  v104
 BYTE   W06
 BYTE   N05  As2  v028
 BYTE   W06
 BYTE   N17  Fn2  v108
 BYTE   N17  As2
 BYTE   W18
 BYTE   N05  As2  v028
 BYTE   W06
//  #01 //030   ----------------------------------------
 BYTE   N76  Fn2  v116
 BYTE   N76  Cn3  v112
 BYTE   W78
 BYTE   N03  An2  v104
 BYTE   W03
 BYTE   As2  v092
 BYTE   W04
 BYTE   Cn3  v096
 BYTE   W03
 BYTE   Dn3  v124
 BYTE   W04
 BYTE   En3  v104
 BYTE   W04
//  #01 //031   ----------------------------------------
 BYTE   N88  An2  v112
 BYTE   N88  Fn3  v104
 BYTE   W90
 BYTE   N05  An2  v028
 BYTE   N05  Fn3
 BYTE   W06
//  #01 //032   ----------------------------------------
 BYTE   GoTo
  POIN2 Label_01391DB2
 BYTE   FINE

//**************** Track 2 (Midi-Chn.1) ****************//

FE07PreciousThingsAlice_002:
//  #02 //000   ----------------------------------------
 BYTE   KEYSH   FE07PreciousThingsAlice_key+0
Label_54C6EE:
 BYTE   VOICE   50
 BYTE   VOL   54*FE07PreciousThingsAlice_mvl/mxv
 BYTE   PAN   c_v+0
 BYTE   N15  As1  v112
 BYTE   W18
 BYTE   N05  As1  v028
 BYTE   W18
 BYTE   N11  Fn1  v124
 BYTE   W12
 BYTE   N05  Fn1  v028
 BYTE   W24
 BYTE   N11  As1  v104
 BYTE   W12
 BYTE   N05  As1  v028
 BYTE   W12
//  #02 //001   ----------------------------------------
 BYTE   N17  Gs1  v116
 BYTE   W18
 BYTE   N05  Gs1  v028
 BYTE   W18
 BYTE   N11  Ds1  v112
 BYTE   W12
 BYTE   N05  Ds1  v028
 BYTE   W24
 BYTE   N11  Gs1  v116
 BYTE   W12
 BYTE   N05  Gs1  v028
 BYTE   W12
//  #02 //002   ----------------------------------------
 BYTE   N17  As1  v108
 BYTE   W18
 BYTE   N05  As1  v028
 BYTE   W18
 BYTE   N11  Fn1  v120
 BYTE   W12
 BYTE   N05  Fn1  v028
 BYTE   W24
 BYTE   N11  As1  v112
 BYTE   W12
 BYTE   N05  As1  v028
 BYTE   W12
//  #02 //003   ----------------------------------------
 BYTE   N17  Gs1  v120
 BYTE   W18
 BYTE   N05  Gs1  v028
 BYTE   W18
 BYTE   N11  Ds1  v116
 BYTE   W12
 BYTE   N05  Ds1  v028
 BYTE   W24
 BYTE   N04  Ds1  v088
 BYTE   W06
 BYTE   N05  Ds1  v044
 BYTE   W06
 BYTE   N11  Gs1  v100
 BYTE   W12
//  #02 //004   ----------------------------------------
Label_54C758:
 BYTE   N16  As1  v100
 BYTE   W18
 BYTE   N05  As1  v028
 BYTE   W18
 BYTE   N11  Fn1  v124
 BYTE   W12
 BYTE   N05  Fn1  v028
 BYTE   W24
 BYTE   N11  As1  v112
 BYTE   W12
 BYTE   N05  As1  v028
 BYTE   W12
 BYTE   PEND 
//  #02 //005   ----------------------------------------
 BYTE   N16  Gs1  v120
 BYTE   W18
 BYTE   N05  Gs1  v028
 BYTE   W18
 BYTE   N11  Ds1  v120
 BYTE   W12
 BYTE   N05  Ds1  v028
 BYTE   W24
 BYTE   N09  Gs1  v112
 BYTE   W12
 BYTE   N05  Gs1  v028
 BYTE   W12
//  #02 //006   ----------------------------------------
 BYTE   N17  As1  v116
 BYTE   W18
 BYTE   N05  As1  v028
 BYTE   W18
 BYTE   N11  Fn1  v127
 BYTE   W12
 BYTE   N05  Fn1  v028
 BYTE   W24
 BYTE   N11  As1  v120
 BYTE   W12
 BYTE   N05  As1  v028
 BYTE   W12
//  #02 //007   ----------------------------------------
 BYTE   N17  Gs1  v120
 BYTE   W18
 BYTE   N05  Gs1  v028
 BYTE   W18
 BYTE   N11  Ds1  v116
 BYTE   W12
 BYTE   N05  Ds1  v028
 BYTE   W12
 BYTE   Ds1  v112
 BYTE   W12
 BYTE   N11  Gs1  v104
 BYTE   W12
 BYTE   N05  Gs1  v028
 BYTE   W12
//  #02 //008   ----------------------------------------
 BYTE   VOICE   49
 BYTE   VOL   46*FE07PreciousThingsAlice_mvl/mxv
 BYTE   PAN   c_v+3
 BYTE   N84  Ds2  v092
 BYTE   N88  As2  v088
 BYTE   W96
//  #02 //009   ----------------------------------------
 BYTE   N92  Ds2  v096
 BYTE   N90  An2  v112
 BYTE   W96
//  #02 //010   ----------------------------------------
 BYTE   Dn2  v104
 BYTE   N92  An2  v108
 BYTE   W96
//  #02 //011   ----------------------------------------
 BYTE   N84  Gn1
 BYTE   N84  Dn2
 BYTE   W96
//  #02 //012   ----------------------------------------
 BYTE   N88  Cn2  v104
 BYTE   N88  Ds2  v112
 BYTE   W96
//  #02 //013   ----------------------------------------
 BYTE   Cn2  v116
 BYTE   N44  En2  v120
 BYTE   W48
 BYTE   N42  Gn2  v108
 BYTE   W48
//  #02 //014   ----------------------------------------
 BYTE   N92  Fn2  v112
 BYTE   N92  Cn3  v108
 BYTE   W96
//  #02 //015   ----------------------------------------
 BYTE   N72  Fn2  v096
 BYTE   N76  An2  v112
 BYTE   W96
//  #02 //016   ----------------------------------------
 BYTE   VOICE   50
 BYTE   VOL   55*FE07PreciousThingsAlice_mvl/mxv
 BYTE   PAN   c_v+0
 BYTE   N13  As1
 BYTE   W18
 BYTE   N05  As1  v028
 BYTE   W18
 BYTE   N11  Fn1  v124
 BYTE   W12
 BYTE   N05  Fn1  v028
 BYTE   W24
 BYTE   N10  As1  v104
 BYTE   W12
 BYTE   N05  As1  v028
 BYTE   W12
//  #02 //017   ----------------------------------------
 BYTE   N16  Gs1  v116
 BYTE   W18
 BYTE   N05  Gs1  v028
 BYTE   W18
 BYTE   N11  Ds1  v112
 BYTE   W12
 BYTE   N05  Ds1  v028
 BYTE   W24
 BYTE   N10  Gs1  v116
 BYTE   W12
 BYTE   N05  Gs1  v028
 BYTE   W12
//  #02 //018   ----------------------------------------
 BYTE   N15  As1  v108
 BYTE   W18
 BYTE   N05  As1  v028
 BYTE   W18
 BYTE   N11  Fn1  v120
 BYTE   W12
 BYTE   N05  Fn1  v028
 BYTE   W24
 BYTE   N11  As1  v112
 BYTE   W12
 BYTE   N05  As1  v028
 BYTE   W12
//  #02 //019   ----------------------------------------
 BYTE   N17  Gs1  v120
 BYTE   W18
 BYTE   N05  Gs1  v028
 BYTE   W18
 BYTE   N11  Ds1  v116
 BYTE   W12
 BYTE   N05  Ds1  v028
 BYTE   W24
 BYTE   N10  Ds1  v088
 BYTE   W12
 BYTE   N11  Gs1  v100
 BYTE   W12
//  #02 //020   ----------------------------------------
 BYTE   PATT
  POIN2 Label_54C758
//  #02 //021   ----------------------------------------
 BYTE   N15  Gs1  v120
 BYTE   W18
 BYTE   N05  Gs1  v028
 BYTE   W18
 BYTE   N11  Ds1  v120
 BYTE   W12
 BYTE   N05  Ds1  v028
 BYTE   W24
 BYTE   N08  Gs1  v112
 BYTE   W12
 BYTE   N05  Gs1  v028
 BYTE   W12
//  #02 //022   ----------------------------------------
 BYTE   N15  As1  v116
 BYTE   W18
 BYTE   N05  As1  v028
 BYTE   W18
 BYTE   N11  Fn1  v127
 BYTE   W12
 BYTE   N05  Fn1  v028
 BYTE   W24
 BYTE   N10  As1  v120
 BYTE   W12
 BYTE   N05  As1  v028
 BYTE   W12
//  #02 //023   ----------------------------------------
 BYTE   N16  Gs1  v120
 BYTE   W18
 BYTE   N05  Gs1  v028
 BYTE   W18
 BYTE   N11  Ds1  v116
 BYTE   W12
 BYTE   N05  Ds1  v028
 BYTE   W12
 BYTE   N04  Ds1  v112
 BYTE   W12
 BYTE   N11  Gs1  v104
 BYTE   W12
 BYTE   N06  Gs1  v028
 BYTE   W12
//  #02 //024   ----------------------------------------
 BYTE   VOICE   34
 BYTE   VOL   58*FE07PreciousThingsAlice_mvl/mxv
 BYTE   N09  As2  v127
 BYTE   W36
 BYTE   N09
 BYTE   W48
 BYTE   N06  As2  v116
 BYTE   W12
//  #02 //025   ----------------------------------------
 BYTE   N08  Gs2
 BYTE   W36
 BYTE   N09  Gs2  v112
 BYTE   W36
 BYTE   N07
 BYTE   W12
 BYTE   N05  Gs2  v120
 BYTE   W12
//  #02 //026   ----------------------------------------
 BYTE   N08  Fs2  v127
 BYTE   W36
 BYTE   N09  Fs2  v120
 BYTE   W36
 BYTE   N05  Fs2  v112
 BYTE   W12
 BYTE   N05
 BYTE   W12
//  #02 //027   ----------------------------------------
 BYTE   N09  Fs2  v116
 BYTE   W36
 BYTE   N10  Fs2  v120
 BYTE   W36
 BYTE   N05  Fs2  v104
 BYTE   W12
 BYTE   N07
 BYTE   W12
//  #02 //028   ----------------------------------------
 BYTE   N08  Fn2  v112
 BYTE   W36
 BYTE   Fn2  v116
 BYTE   W36
 BYTE   N05  Fn2  v108
 BYTE   W12
 BYTE   Fn2  v104
 BYTE   W12
//  #02 //029   ----------------------------------------
Label_54C8F5:
 BYTE   N10  Fn2  v112
 BYTE   W36
 BYTE   N09
 BYTE   W36
 BYTE   N05  Fn2  v104
 BYTE   W12
 BYTE   N06  Fn2  v100
 BYTE   W12
 BYTE   PEND 
//  #02 //030   ----------------------------------------
 BYTE   N07  Fn2  v108
 BYTE   W24
 BYTE   N09  Fn2  v116
 BYTE   W36
 BYTE   N05  Fn2  v112
 BYTE   W12
 BYTE   N16
 BYTE   W24
//  #02 //031   ----------------------------------------
 BYTE   PATT
  POIN2 Label_54C8F5
//  #02 //032   ----------------------------------------
 BYTE   GoTo
  POIN2 Label_54C6EE
 BYTE   FINE

//**************** Track 3 (Midi-Chn.2) ****************//

FE07PreciousThingsAlice_003:
//  #03 //000   ----------------------------------------
 BYTE   KEYSH   FE07PreciousThingsAlice_key+0
Label_54D49E:
 BYTE   VOICE   127
 BYTE   VOL   37*FE07PreciousThingsAlice_mvl/mxv
 BYTE   PAN   c_v+0
 BYTE   N11  Dn1  v116
 BYTE   W36
 BYTE   N10
 BYTE   W24
 BYTE   N08  Dn1  v088
 BYTE   W12
 BYTE   N10  Dn1  v116
 BYTE   W12
 BYTE   N08  Dn1  v080
 BYTE   W12
//  #03 //001   ----------------------------------------
Label_54D4B6:
 BYTE   N10  Dn1  v116
 BYTE   W12
 BYTE   N08  Dn1  v072
 BYTE   W24
 BYTE   N10  Dn1  v116
 BYTE   W24
 BYTE   N08  Dn1  v104
 BYTE   W12
 BYTE   N10  Dn1  v116
 BYTE   W12
 BYTE   N11  Ds1  v104
 BYTE   W12
 BYTE   PEND 
//  #03 //002   ----------------------------------------
Label_54D4CF:
 BYTE   N10  Dn1  v116
 BYTE   W36
 BYTE   N10
 BYTE   W24
 BYTE   N07  Dn1  v084
 BYTE   W12
 BYTE   N10  Dn1  v116
 BYTE   W12
 BYTE   N08  Dn1  v088
 BYTE   W12
 BYTE   PEND 
//  #03 //003   ----------------------------------------
Label_54D4E2:
 BYTE   N10  Dn1  v116
 BYTE   W12
 BYTE   N08  Dn1  v112
 BYTE   W24
 BYTE   N09
 BYTE   W24
 BYTE   Dn1  v104
 BYTE   W12
 BYTE   N23  Ds1  v127
 BYTE   W24
 BYTE   PEND 
//  #03 //004   ----------------------------------------
Label_54D4F4:
 BYTE   N11  Dn1  v116
 BYTE   W36
 BYTE   N10
 BYTE   W24
 BYTE   N08  Dn1  v088
 BYTE   W12
 BYTE   N10  Dn1  v116
 BYTE   W12
 BYTE   N08  Dn1  v080
 BYTE   W12
 BYTE   PEND 
//  #03 //005   ----------------------------------------
 BYTE   PATT
  POIN2 Label_54D4B6
//  #03 //006   ----------------------------------------
 BYTE   PATT
  POIN2 Label_54D4CF
//  #03 //007   ----------------------------------------
 BYTE   PATT
  POIN2 Label_54D4E2
//  #03 //008   ----------------------------------------
Label_54D516:
 BYTE   N11  Fs2  v084
 BYTE   W12
 BYTE   N17  Fs2  v008
 BYTE   W24
 BYTE   N11  Fs2  v072
 BYTE   W12
 BYTE   Fs2  v084
 BYTE   W12
 BYTE   N17  Fs2  v008
 BYTE   W36
 BYTE   PEND 
//  #03 //009   ----------------------------------------
 BYTE   PATT
  POIN2 Label_54D516
//  #03 //010   ----------------------------------------
 BYTE   PATT
  POIN2 Label_54D516
//  #03 //011   ----------------------------------------
 BYTE   PATT
  POIN2 Label_54D516
//  #03 //012   ----------------------------------------
 BYTE   PATT
  POIN2 Label_54D4F4
//  #03 //013   ----------------------------------------
 BYTE   PATT
  POIN2 Label_54D4B6
//  #03 //014   ----------------------------------------
 BYTE   PATT
  POIN2 Label_54D4CF
//  #03 //015   ----------------------------------------
 BYTE   PATT
  POIN2 Label_54D4E2
//  #03 //016   ----------------------------------------
 BYTE   PATT
  POIN2 Label_54D4F4
//  #03 //017   ----------------------------------------
 BYTE   PATT
  POIN2 Label_54D4B6
//  #03 //018   ----------------------------------------
 BYTE   PATT
  POIN2 Label_54D4CF
//  #03 //019   ----------------------------------------
 BYTE   PATT
  POIN2 Label_54D4E2
//  #03 //020   ----------------------------------------
 BYTE   PATT
  POIN2 Label_54D4F4
//  #03 //021   ----------------------------------------
 BYTE   PATT
  POIN2 Label_54D4B6
//  #03 //022   ----------------------------------------
 BYTE   PATT
  POIN2 Label_54D4CF
//  #03 //023   ----------------------------------------
 BYTE   PATT
  POIN2 Label_54D4E2
//  #03 //024   ----------------------------------------
 BYTE   N10  Dn1  v104
 BYTE   W12
 BYTE   N05  Dn1  v056
 BYTE   W06
 BYTE   Dn1  v068
 BYTE   W06
 BYTE   N08  Dn1  v052
 BYTE   W12
 BYTE   Dn1  v064
 BYTE   W24
 BYTE   N09  Dn1  v060
 BYTE   W12
 BYTE   Dn1  v068
 BYTE   W12
 BYTE   Dn1  v084
 BYTE   W12
//  #03 //025   ----------------------------------------
 BYTE   N10  Dn1  v104
 BYTE   W12
 BYTE   N05  Dn1  v064
 BYTE   W06
 BYTE   Dn1  v068
 BYTE   W06
 BYTE   N09  Dn1  v084
 BYTE   W12
 BYTE   N08  Dn1  v072
 BYTE   W24
 BYTE   Dn1  v080
 BYTE   W12
 BYTE   N09  Dn1  v088
 BYTE   W12
 BYTE   N08  Dn1  v092
 BYTE   W12
//  #03 //026   ----------------------------------------
 BYTE   N09  Dn1  v116
 BYTE   W12
 BYTE   N05  Dn1  v060
 BYTE   W06
 BYTE   Dn1  v084
 BYTE   W06
 BYTE   N08  Dn1  v088
 BYTE   W12
 BYTE   Dn1  v084
 BYTE   W24
 BYTE   N09
 BYTE   W12
 BYTE   N08  Dn1  v088
 BYTE   W12
 BYTE   N05  Dn1  v104
 BYTE   W06
 BYTE   Dn1  v084
 BYTE   W06
//  #03 //027   ----------------------------------------
 BYTE   N09  Dn1  v116
 BYTE   W12
 BYTE   N08  Dn1  v096
 BYTE   W12
 BYTE   N09  Dn1  v088
 BYTE   W12
 BYTE   N05  Dn1  v100
 BYTE   W06
 BYTE   Dn1  v084
 BYTE   W06
 BYTE   N09  Dn1  v088
 BYTE   W12
 BYTE   N05  Dn1  v092
 BYTE   W06
 BYTE   Dn1  v088
 BYTE   W06
 BYTE   N08
 BYTE   W12
 BYTE   N05  Dn1  v092
 BYTE   W06
 BYTE   Dn1  v088
 BYTE   W06
//  #03 //028   ----------------------------------------
Label_54D5F5:
 BYTE   N08  Dn1  v100
 BYTE   W12
 BYTE   N05  Dn1  v060
 BYTE   W06
 BYTE   Dn1  v084
 BYTE   W06
 BYTE   N08
 BYTE   W12
 BYTE   N10  Dn1  v116
 BYTE   W24
 BYTE   N05  Dn1  v100
 BYTE   W06
 BYTE   Dn1  v096
 BYTE   W06
 BYTE   N08  Dn1  v088
 BYTE   W12
 BYTE   N05  Dn1  v100
 BYTE   W06
 BYTE   Dn1  v084
 BYTE   W06
 BYTE   PEND 
//  #03 //029   ----------------------------------------
 BYTE   PATT
  POIN2 Label_54D5F5
//  #03 //030   ----------------------------------------
 BYTE   N08  Dn1  v100
 BYTE   W12
 BYTE   N05  Dn1  v060
 BYTE   W06
 BYTE   Dn1  v084
 BYTE   W06
 BYTE   N08
 BYTE   W12
 BYTE   N10  Dn1  v116
 BYTE   W12
 BYTE   N08  Dn1  v100
 BYTE   W12
 BYTE   N05
 BYTE   W06
 BYTE   Dn1  v096
 BYTE   W06
 BYTE   N08  Dn1  v088
 BYTE   W12
 BYTE   N05  Dn1  v100
 BYTE   W06
 BYTE   Dn1  v084
 BYTE   W06
//  #03 //031   ----------------------------------------
 BYTE   N08  Dn1  v092
 BYTE   W12
 BYTE   N05  Dn1  v104
 BYTE   W06
 BYTE   Dn1  v100
 BYTE   W06
 BYTE   N08  Dn1  v088
 BYTE   W12
 BYTE   N09  Dn1  v116
 BYTE   W24
 BYTE   N09
 BYTE   W12
 BYTE   N08
 BYTE   W12
 BYTE   N07  Dn1  v088
 BYTE   W12
//  #03 //032   ----------------------------------------
 BYTE   GoTo
  POIN2 Label_54D49E
 BYTE   FINE

//**************** Track 4 (Midi-Chn.3) ****************//

FE07PreciousThingsAlice_004:
//  #04 //000   ----------------------------------------
 BYTE   KEYSH   FE07PreciousThingsAlice_key+0
Label_01392142:
 BYTE   VOICE   69
 BYTE   VOL   51*FE07PreciousThingsAlice_mvl/mxv
 BYTE   PAN   c_v-12
 BYTE   W24
 BYTE   N03  Fn2  v092
 BYTE   N04  As2  v100
 BYTE   W12
 BYTE   Fn2  v092
 BYTE   N04  As2  v100
 BYTE   W24
 BYTE   Fn2  v092
 BYTE   N04  As2  v100
 BYTE   W24
 BYTE   Fn2  v092
 BYTE   N04  As2  v100
 BYTE   W12
//  #04 //001   ----------------------------------------
 BYTE   W24
 BYTE   N03  Ds2  v092
 BYTE   N04  As2  v100
 BYTE   W12
 BYTE   Ds2  v092
 BYTE   N04  As2  v100
 BYTE   W24
 BYTE   N03  Ds2  v092
 BYTE   N03  As2  v100
 BYTE   W24
 BYTE   N04  Ds2  v092
 BYTE   N05  As2  v100
 BYTE   W12
//  #04 //002   ----------------------------------------
 BYTE   W24
 BYTE   N03  Fn2  v092
 BYTE   N04  As2  v100
 BYTE   W12
 BYTE   N03  Fn2  v092
 BYTE   N04  As2  v100
 BYTE   W24
 BYTE   N03  Fn2  v092
 BYTE   N03  As2  v100
 BYTE   W24
 BYTE   Fn2  v092
 BYTE   N04  As2  v100
 BYTE   W12
//  #04 //003   ----------------------------------------
 BYTE   W24
 BYTE   N02  Ds2  v092
 BYTE   N02  As2  v100
 BYTE   W12
 BYTE   N03  Ds2  v092
 BYTE   N03  As2  v100
 BYTE   W24
 BYTE   N02  Ds2  v092
 BYTE   N02  As2  v100
 BYTE   W12
 BYTE   N24  Ds2  v092
 BYTE   N24  As2  v100
 BYTE   W24
//  #04 //004   ----------------------------------------
 BYTE   W24
 BYTE   N02  Fn2  v092
 BYTE   N03  As2  v100
 BYTE   W12
 BYTE   Fn2  v092
 BYTE   N03  As2  v100
 BYTE   W24
 BYTE   N04  Fn2  v092
 BYTE   N04  As2  v100
 BYTE   W24
 BYTE   N03  Fn2  v092
 BYTE   N04  As2  v100
 BYTE   W12
//  #04 //005   ----------------------------------------
 BYTE   W24
 BYTE   N02  Ds2  v092
 BYTE   N03  As2  v100
 BYTE   W12
 BYTE   Ds2  v092
 BYTE   N04  As2  v100
 BYTE   W24
 BYTE   N03  Ds2  v092
 BYTE   N04  As2  v100
 BYTE   W24
 BYTE   N03  Ds2  v092
 BYTE   N04  As2  v100
 BYTE   W12
//  #04 //006   ----------------------------------------
 BYTE   W24
 BYTE   N02  Fn2  v092
 BYTE   N03  As2  v100
 BYTE   W12
 BYTE   N02  Fn2  v092
 BYTE   N04  As2  v100
 BYTE   W24
 BYTE   N03  Fn2  v092
 BYTE   N03  As2  v100
 BYTE   W24
 BYTE   Fn2  v092
 BYTE   N04  As2  v100
 BYTE   W12
//  #04 //007   ----------------------------------------
 BYTE   W24
 BYTE   N02  Ds2  v092
 BYTE   N03  Cn3  v100
 BYTE   W12
 BYTE   Ds2  v092
 BYTE   N03  Cn3  v100
 BYTE   W24
 BYTE   N32  Ds2  v092
 BYTE   N32  Cn3  v100
 BYTE   W36
//  #04 //008   ----------------------------------------
 BYTE   VOICE   58
 BYTE   PAN   c_v+4
 BYTE   N64  As3  v076
 BYTE   W72
 BYTE   N23  An3  v084
 BYTE   W24
//  #04 //009   ----------------------------------------
 BYTE   N44  Gn3  v072
 BYTE   W48
 BYTE   N23  Fn3  v076
 BYTE   W24
 BYTE   Ds3  v080
 BYTE   W24
//  #04 //010   ----------------------------------------
 BYTE   N44  Fn3  v072
 BYTE   W48
 BYTE   Cn4  v088
 BYTE   W48
//  #04 //011   ----------------------------------------
 BYTE   N68  As3  v072
 BYTE   W72
 BYTE   N19  An3  v064
 BYTE   W24
//  #04 //012   ----------------------------------------
 BYTE   VOICE   61
 BYTE   VOL   46*FE07PreciousThingsAlice_mvl/mxv
 BYTE   N02  Ds3  v092
 BYTE   N04  Gn3  v112
 BYTE   W12
 BYTE   N03  Ds3  v092
 BYTE   N03  Gn3  v112
 BYTE   W24
 BYTE   Ds3  v092
 BYTE   N03  Gn3  v112
 BYTE   W24
 BYTE   Ds3  v092
 BYTE   N03  Gn3  v112
 BYTE   W12
 BYTE   N14  Ds3  v092
 BYTE   N14  Gn3  v112
 BYTE   W18
 BYTE   N03  Ds3  v028
 BYTE   N03  Gn3
 BYTE   W06
//  #04 //013   ----------------------------------------
 BYTE   W24
 BYTE   En3  v092
 BYTE   N04  Gn3  v112
 BYTE   W12
 BYTE   N03  En3  v092
 BYTE   N04  Gn3  v112
 BYTE   W24
 BYTE   N03  En3  v092
 BYTE   N04  Gn3  v112
 BYTE   W12
 BYTE   N16  En3  v092
 BYTE   N17  Gn3  v112
 BYTE   W24
//  #04 //014   ----------------------------------------
 BYTE   W24
 BYTE   N04  Fn3  v096
 BYTE   N03  Cn4  v112
 BYTE   W12
 BYTE   N04  Fn3  v096
 BYTE   N05  Cn4  v112
 BYTE   W24
 BYTE   N03  Fn3  v096
 BYTE   N03  Cn4  v112
 BYTE   W12
 BYTE   N14  Fn3  v096
 BYTE   N15  Cn4  v112
 BYTE   W24
//  #04 //015   ----------------------------------------
 BYTE   N44  Cn3  v096
 BYTE   N44  An3  v108
 BYTE   W48
 BYTE   Cn3  v088
 BYTE   N44  Cn4  v100
 BYTE   W48
//  #04 //016   ----------------------------------------
 BYTE   VOL   55*FE07PreciousThingsAlice_mvl/mxv
 BYTE   N88  Fn3  v084
 BYTE   W24
 BYTE   N14  Fn2  v112
 BYTE   W18
 BYTE   N03  Fn2  v032
 BYTE   W06
 BYTE   N14  As2  v112
 BYTE   W18
 BYTE   N03  As2  v032
 BYTE   W06
 BYTE   N14  Dn3  v108
 BYTE   W18
 BYTE   N03  Dn3  v032
 BYTE   N03  Fn3
 BYTE   W06
//  #04 //017   ----------------------------------------
 BYTE   N48  Cn3  v104
 BYTE   N48  Ds3
 BYTE   W54
 BYTE   N03  Cn3  v032
 BYTE   N03  Ds3
 BYTE   W06
 BYTE   N06  Cn3  v104
 BYTE   N06  Ds3
 BYTE   W08
 BYTE   N02  Cn3  v032
 BYTE   N02  Ds3
 BYTE   W04
 BYTE   N06  Dn3  v104
 BYTE   N06  Fn3
 BYTE   W08
 BYTE   N02  Dn3  v032
 BYTE   N02  Fn3
 BYTE   W04
 BYTE   N06  Ds3  v112
 BYTE   N06  Gn3
 BYTE   W08
 BYTE   N03  Ds3  v032
 BYTE   N03  Gn3
 BYTE   W04
//  #04 //018   ----------------------------------------
 BYTE   N05  Cn3  v096
 BYTE   N05  Fn3  v112
 BYTE   W06
 BYTE   Cs3  v088
 BYTE   N05  Ds3  v104
 BYTE   W06
 BYTE   N56  Dn3  v088
 BYTE   N56  Fn3  v104
 BYTE   W60
 BYTE   N03  Dn3  v032
 BYTE   N03  Fn3
 BYTE   W24
//  #04 //019   ----------------------------------------
 BYTE   W96
//  #04 //020   ----------------------------------------
 BYTE   N44  Fn3  v120
 BYTE   N44  As3  v100
 BYTE   W54
 BYTE   N03  Fn3  v032
 BYTE   N03  As3
 BYTE   W06
 BYTE   N08  Dn3  v092
 BYTE   N08  Fn3  v112
 BYTE   W12
 BYTE   Dn3  v088
 BYTE   N08  Fn3  v104
 BYTE   W12
 BYTE   As2  v084
 BYTE   N08  As3  v104
 BYTE   W12
//  #04 //021   ----------------------------------------
 BYTE   N22  As2  v088
 BYTE   N16  Gs3  v108
 BYTE   W18
 BYTE   N03  Gs3  v032
 BYTE   W06
 BYTE   N17  Cn3  v084
 BYTE   N17  Gn3  v104
 BYTE   W24
 BYTE   N03  Cn3  v032
 BYTE   N03  Gn3
 BYTE   W12
 BYTE   N11  Dn3  v092
 BYTE   N11  Fn3  v112
 BYTE   W12
 BYTE   Ds3  v084
 BYTE   N11  Gn3  v104
 BYTE   W12
 BYTE   Fn3  v084
 BYTE   N11  Gs3  v100
 BYTE   W12
//  #04 //022   ----------------------------------------
 BYTE   N05  Dn3  v088
 BYTE   N04  As3  v104
 BYTE   W06
 BYTE   N05  Ds3  v088
 BYTE   N05  Cn4  v100
 BYTE   W06
 BYTE   N64  Fn3  v088
 BYTE   N60  Dn4  v092
 BYTE   W66
 BYTE   N03  Fn3  v032
 BYTE   N03  Dn4
 BYTE   W18
//  #04 //023   ----------------------------------------
 BYTE   W12
 BYTE   N11  As2  v084
 BYTE   W12
 BYTE   Cn3  v068
 BYTE   W12
 BYTE   Dn3  v100
 BYTE   W12
 BYTE   Cn3  v088
 BYTE   W12
 BYTE   Dn3  v096
 BYTE   W12
 BYTE   Ds3  v072
 BYTE   W12
 BYTE   Fn3  v096
 BYTE   W12
//  #04 //024   ----------------------------------------
 BYTE   PAN   c_v-12
 BYTE   N88  Fn2  v092
 BYTE   N56  As2  v120
 BYTE   W66
 BYTE   N03  As2  v032
 BYTE   W06
 BYTE   N08  As2  v116
 BYTE   W12
 BYTE   Cn3  v120
 BYTE   W12
//  #04 //025   ----------------------------------------
 BYTE   N88  As2  v092
 BYTE   N60  Dn3  v127
 BYTE   W66
 BYTE   N03  Dn3  v032
 BYTE   W06
 BYTE   N11  Dn3  v116
 BYTE   W12
 BYTE   Ds3  v112
 BYTE   W12
//  #04 //026   ----------------------------------------
 BYTE   N88  As2  v092
 BYTE   N40  Fn3  v116
 BYTE   W48
 BYTE   N32  Ds3  v112
 BYTE   W48
//  #04 //027   ----------------------------------------
 BYTE   N44  Gs2  v092
 BYTE   N40  As2  v112
 BYTE   W48
 BYTE   N44  Fs2  v096
 BYTE   N36  Cn3  v120
 BYTE   W48
//  #04 //028   ----------------------------------------
 BYTE   N56  Fn2  v092
 BYTE   N56  Dn3  v120
 BYTE   W60
 BYTE   N11  Fn2  v112
 BYTE   W12
 BYTE   As2  v120
 BYTE   W12
 BYTE   Dn3  v112
 BYTE   W12
//  #04 //029   ----------------------------------------
 BYTE   N88  Dn3  v096
 BYTE   N32  As3  v112
 BYTE   W42
 BYTE   N03  As3  v032
 BYTE   W06
 BYTE   N32  Fn3  v116
 BYTE   W42
 BYTE   N03  Fn3  v032
 BYTE   W06
//  #04 //030   ----------------------------------------
 BYTE   N90  Cn3  v092
 BYTE   N88  Fn3  v112
 BYTE   W96
//  #04 //031   ----------------------------------------
 BYTE   N76  An2  v092
 BYTE   N76  Cn4  v100
 BYTE   W96
//  #04 //032   ----------------------------------------
 BYTE   GoTo
  POIN2 Label_01392142
 BYTE   FINE

//**************** Track 5 (Midi-Chn.4) ****************//

FE07PreciousThingsAlice_005:
//  #05 //000   ----------------------------------------
 BYTE   KEYSH   FE07PreciousThingsAlice_key+0
Label_54CF1A:
 BYTE   VOICE   47
 BYTE   VOL   53*FE07PreciousThingsAlice_mvl/mxv
 BYTE   PAN   c_v-8
 BYTE   N32  As2  v112
 BYTE   W36
 BYTE   Fn2  v124
 BYTE   W36
 BYTE   N23  As2  v104
 BYTE   W24
//  #05 //001   ----------------------------------------
Label_54CF2B:
 BYTE   N32  Gs2  v116
 BYTE   W36
 BYTE   Ds2  v112
 BYTE   W36
 BYTE   N23  Gs2  v116
 BYTE   W24
 BYTE   PEND 
//  #05 //002   ----------------------------------------
Label_54CF37:
 BYTE   N32  As2  v108
 BYTE   W36
 BYTE   Fn2  v120
 BYTE   W36
 BYTE   N23  As2  v112
 BYTE   W24
 BYTE   PEND 
//  #05 //003   ----------------------------------------
Label_54CF43:
 BYTE   N32  Gs2  v120
 BYTE   W36
 BYTE   Ds2  v116
 BYTE   W36
 BYTE   N23  Gs2  v100
 BYTE   W24
 BYTE   PEND 
//  #05 //004   ----------------------------------------
Label_54CF4F:
 BYTE   N32  As2  v100
 BYTE   W36
 BYTE   Fn2  v124
 BYTE   W36
 BYTE   N23  As2  v112
 BYTE   W24
 BYTE   PEND 
//  #05 //005   ----------------------------------------
Label_54CF5B:
 BYTE   N32  Gs2  v120
 BYTE   W36
 BYTE   Ds2
 BYTE   W36
 BYTE   N23  Gs2  v112
 BYTE   W24
 BYTE   PEND 
//  #05 //006   ----------------------------------------
Label_54CF66:
 BYTE   N32  As2  v116
 BYTE   W36
 BYTE   Fn2  v127
 BYTE   W36
 BYTE   N23  As2  v120
 BYTE   W24
 BYTE   PEND 
//  #05 //007   ----------------------------------------
Label_54CF72:
 BYTE   N32  Gs2  v120
 BYTE   W36
 BYTE   N23  Ds2  v116
 BYTE   W24
 BYTE   N11  Ds2  v112
 BYTE   W12
 BYTE   N76  Gs2  v104
 BYTE   W24
 BYTE   PEND 
//  #05 //008   ----------------------------------------
 BYTE   W96
//  #05 //009   ----------------------------------------
 BYTE   W96
//  #05 //010   ----------------------------------------
 BYTE   W96
//  #05 //011   ----------------------------------------
 BYTE   W96
//  #05 //012   ----------------------------------------
 BYTE   W96
//  #05 //013   ----------------------------------------
 BYTE   W96
//  #05 //014   ----------------------------------------
 BYTE   W96
//  #05 //015   ----------------------------------------
Label_54CF8A:
 BYTE   W60
 BYTE   N11  Fn2  v104
 BYTE   W12
 BYTE   N11
 BYTE   W12
 BYTE   N11
 BYTE   W12
 BYTE   PEND 
//  #05 //016   ----------------------------------------
 BYTE   N32  As2  v112
 BYTE   W36
 BYTE   Fn2  v124
 BYTE   W36
 BYTE   N23  As2  v104
 BYTE   W24
//  #05 //017   ----------------------------------------
 BYTE   PATT
  POIN2 Label_54CF2B
//  #05 //018   ----------------------------------------
 BYTE   PATT
  POIN2 Label_54CF37
//  #05 //019   ----------------------------------------
 BYTE   PATT
  POIN2 Label_54CF43
//  #05 //020   ----------------------------------------
 BYTE   PATT
  POIN2 Label_54CF4F
//  #05 //021   ----------------------------------------
 BYTE   PATT
  POIN2 Label_54CF5B
//  #05 //022   ----------------------------------------
 BYTE   PATT
  POIN2 Label_54CF66
//  #05 //023   ----------------------------------------
 BYTE   PATT
  POIN2 Label_54CF72
//  #05 //024   ----------------------------------------
 BYTE   W96
//  #05 //025   ----------------------------------------
 BYTE   W96
//  #05 //026   ----------------------------------------
 BYTE   W96
//  #05 //027   ----------------------------------------
 BYTE   W96
//  #05 //028   ----------------------------------------
 BYTE   W96
//  #05 //029   ----------------------------------------
 BYTE   W96
//  #05 //030   ----------------------------------------
 BYTE   W96
//  #05 //031   ----------------------------------------
 BYTE   PATT
  POIN2 Label_54CF8A
//  #05 //032   ----------------------------------------
 BYTE   GoTo
  POIN2 Label_54CF1A
 BYTE   FINE

//**************** Track 6 (Midi-Chn.5) ****************//

FE07PreciousThingsAlice_006:
//  #06 //000   ----------------------------------------
 BYTE   KEYSH   FE07PreciousThingsAlice_key+0
Label_0139241A:
 BYTE   W96
//  #06 //001   ----------------------------------------
 BYTE   W96
//  #06 //002   ----------------------------------------
 BYTE   W72
 BYTE   VOICE   60
 BYTE   VOL   51*FE07PreciousThingsAlice_mvl/mxv
 BYTE   PAN   c_v-8
 BYTE   BEND   c_v+0
 BYTE   W24
//  #06 //003   ----------------------------------------
 BYTE   W24
 BYTE   N23  Fn2  v120
 BYTE   W24
 BYTE   As2
 BYTE   W24
 BYTE   Dn3
 BYTE   W24
//  #06 //004   ----------------------------------------
 BYTE   N05  Dn3  v028
 BYTE   W96
//  #06 //005   ----------------------------------------
 BYTE   W96
//  #06 //006   ----------------------------------------
 BYTE   N56  Fn2  v120
 BYTE   W60
 BYTE   N05  Fn2  v028
 BYTE   W12
 BYTE   N11  As2  v112
 BYTE   W12
 BYTE   Cn3  v116
 BYTE   W12
//  #06 //007   ----------------------------------------
 BYTE   N68  Dn3  v112
 BYTE   W72
 BYTE   N05  Dn3  v028
 BYTE   W24
//  #06 //008   ----------------------------------------
 BYTE   W96
//  #06 //009   ----------------------------------------
 BYTE   W24
 BYTE   N23  An2  v108
 BYTE   W24
 BYTE   Cn3
 BYTE   W24
 BYTE   N28  Fn3  v100
 BYTE   W24
//  #06 //010   ----------------------------------------
 BYTE   W24
 BYTE   N23  An2  v104
 BYTE   W24
 BYTE   Dn3  v100
 BYTE   W24
 BYTE   N28  Fn3
 BYTE   W24
//  #06 //011   ----------------------------------------
 BYTE   W24
 BYTE   N23  Gn2
 BYTE   W24
 BYTE   As2
 BYTE   W24
 BYTE   Dn3
 BYTE   W24
//  #06 //012   ----------------------------------------
 BYTE   N80  Cn3  v108
 BYTE   W84
 BYTE   N05  Cn3  v028
 BYTE   W12
//  #06 //013   ----------------------------------------
 BYTE   N40  As2  v100
 BYTE   W42
 BYTE   N05  As2  v028
 BYTE   W06
 BYTE   N40  Gn2  v104
 BYTE   W42
 BYTE   N05  Gn2  v028
 BYTE   W06
//  #06 //014   ----------------------------------------
 BYTE   N56  An2  v112
 BYTE   W60
 BYTE   N05  An2  v028
 BYTE   W12
 BYTE   N17  Cn3  v108
 BYTE   W18
 BYTE   N05  Cn3  v028
 BYTE   W06
//  #06 //015   ----------------------------------------
 BYTE   N68  Fn3  v112
 BYTE   W72
 BYTE   N05  Fn3  v028
 BYTE   W24
//  #06 //016   ----------------------------------------
 BYTE   W96
//  #06 //017   ----------------------------------------
 BYTE   W96
//  #06 //018   ----------------------------------------
 BYTE   VOICE   68
 BYTE   VOL   46*FE07PreciousThingsAlice_mvl/mxv
 BYTE   PAN   c_v+8
 BYTE   BEND   c_v+0
 BYTE   W84
 BYTE   N05  Fn3  v100
 BYTE   W06
 BYTE   Ds3
 BYTE   W06
//  #06 //019   ----------------------------------------
 BYTE   N32  Fn3  v104
 BYTE   W36
 BYTE   N17  As3  v100
 BYTE   W24
 BYTE   N11  An3
 BYTE   W12
 BYTE   As3
 BYTE   W12
 BYTE   Cn4  v104
 BYTE   W12
//  #06 //020   ----------------------------------------
 BYTE   N05  Cn4  v028
 BYTE   W96
//  #06 //021   ----------------------------------------
 BYTE   W96
//  #06 //022   ----------------------------------------
 BYTE   W96
//  #06 //023   ----------------------------------------
 BYTE   N44  Cn4  v100
 BYTE   W48
 BYTE   As3  v076
 BYTE   W48
//  #06 //024   ----------------------------------------
 BYTE   W96
//  #06 //025   ----------------------------------------
 BYTE   W96
//  #06 //026   ----------------------------------------
 BYTE   W96
//  #06 //027   ----------------------------------------
 BYTE   W96
//  #06 //028   ----------------------------------------
 BYTE   W96
//  #06 //029   ----------------------------------------
 BYTE   W96
//  #06 //030   ----------------------------------------
 BYTE   W96
//  #06 //031   ----------------------------------------
 BYTE   W96
//  #06 //032   ----------------------------------------
 BYTE   GoTo
  POIN2 Label_0139241A
 BYTE   FINE

//******************************************************//
	ALIGN 4

FE07PreciousThingsAlice:
	BYTE	6	// NumTrks
	BYTE	0	// NumBlks
	BYTE	FE07PreciousThingsAlice_pri	// Priority
	BYTE	FE07PreciousThingsAlice_rev	// Reverb.
    
	POIN2	FE07PreciousThingsAlice_grp
    
	POIN2	FE07PreciousThingsAlice_001
	POIN2	FE07PreciousThingsAlice_002
	POIN2	FE07PreciousThingsAlice_003
	POIN2	FE07PreciousThingsAlice_004
	POIN2	FE07PreciousThingsAlice_005
	POIN2	FE07PreciousThingsAlice_006

	
