//Event file generated from Sappy .s format.
	#include "MPlayDef.event"

	#define	FE07EverythingIntotheDarkRSflame_grp  voicegroup000
	#define	FE07EverythingIntotheDarkRSflame_pri  10
	#define	FE07EverythingIntotheDarkRSflame_rev  0
	#define	FE07EverythingIntotheDarkRSflame_mvl  127
	#define	FE07EverythingIntotheDarkRSflame_key  0
	#define	FE07EverythingIntotheDarkRSflame_tbs  1
	#define	FE07EverythingIntotheDarkRSflame_exg  0
	#define	FE07EverythingIntotheDarkRSflame_cmp  1

	// .rodata
	//	FE07EverythingIntotheDarkRSflame
	ALIGN 4


//**************** Track 1 (Midi-Chn.0) ****************//

FE07EverythingIntotheDarkRSflame_001:
// 000   ----------------------------------------
Label_0_55BBF8:
 BYTE   KEYSH   FE07EverythingIntotheDarkRSflame_key+0
 BYTE   VOICE   33
 BYTE   VOL   31*FE07EverythingIntotheDarkRSflame_mvl/mxv
 BYTE   PAN   c_v+6
 BYTE   N23  An1  v127
 BYTE   TEMPO   128*FE07EverythingIntotheDarkRSflame_tbs/2
 BYTE   W24
 BYTE   N17  An2  v116
 BYTE   W18
 BYTE   N11  An1  v104
 BYTE   W12
 BYTE   N04  An2  v072
 BYTE   W06
 BYTE   N11  An1  v100
 BYTE   W12
 BYTE   An2  v116
 BYTE   W12
 BYTE   N08  An1  v112
 BYTE   W12
// 001   ----------------------------------------
Label_0_55BC1D:
 BYTE   N23  An1  v108
 BYTE   W24
 BYTE   N17  An2  v124
 BYTE   W18
 BYTE   N10  An1  v112
 BYTE   W18
 BYTE   N11  An1  v116
 BYTE   W12
 BYTE   An2  v124
 BYTE   W12
 BYTE   N04  An1  v108
 BYTE   W12
 BYTE   PEND 
// 002   ----------------------------------------
 BYTE   N23  An1  v127
 BYTE   W24
 BYTE   N17  An2  v124
 BYTE   W18
 BYTE   N11  An1  v104
 BYTE   W18
 BYTE   An1  v116
 BYTE   W12
 BYTE   An2  v124
 BYTE   W12
 BYTE   N04  An1  v108
 BYTE   W12
// 003   ----------------------------------------
 BYTE   N23  An1  v124
 BYTE   W24
 BYTE   N17  An2
 BYTE   W18
 BYTE   N08  An1  v108
 BYTE   W12
 BYTE   N05  An1  v112
 BYTE   W12
 BYTE   An1  v120
 BYTE   W06
 BYTE   N11  An2  v112
 BYTE   W12
 BYTE   N04  An1
 BYTE   W12
// 004   ----------------------------------------
 BYTE   N23  Dn2  v127
 BYTE   W24
 BYTE   N17  Dn3  v120
 BYTE   W18
 BYTE   N05  Dn2
 BYTE   W06
 BYTE   Dn3  v068
 BYTE   W06
 BYTE   N06  Dn2  v104
 BYTE   W12
 BYTE   N05  Dn2  v108
 BYTE   W06
 BYTE   N11  Dn3
 BYTE   W12
 BYTE   N04  Dn2  v112
 BYTE   W12
// 005   ----------------------------------------
 BYTE   N23  Dn2  v124
 BYTE   W24
 BYTE   N17  Dn3
 BYTE   W18
 BYTE   N06  Dn2  v116
 BYTE   W12
 BYTE   N04  Dn2  v108
 BYTE   W12
 BYTE   N05  Dn2  v120
 BYTE   W06
 BYTE   N11  Dn3  v108
 BYTE   W12
 BYTE   N04  Dn2  v104
 BYTE   W12
// 006   ----------------------------------------
 BYTE   N23  Dn2  v127
 BYTE   W24
 BYTE   N17  Dn3  v124
 BYTE   W18
 BYTE   N09  Dn2  v112
 BYTE   W12
 BYTE   N04  Dn3  v076
 BYTE   W06
 BYTE   N05  Dn2  v100
 BYTE   W06
 BYTE   Dn2  v096
 BYTE   W06
 BYTE   N11  Dn3  v116
 BYTE   W12
 BYTE   N04  Dn2
 BYTE   W12
// 007   ----------------------------------------
 BYTE   N06  Dn2  v124
 BYTE   W12
 BYTE   N11  Dn2  v100
 BYTE   W12
 BYTE   N17  Dn3  v124
 BYTE   W18
 BYTE   N02  Dn2  v100
 BYTE   W12
 BYTE   N03
 BYTE   W12
 BYTE   N05  Dn2  v120
 BYTE   W06
 BYTE   N11  Dn3  v108
 BYTE   W12
 BYTE   N04  Dn2  v112
 BYTE   W12
// 008   ----------------------------------------
 BYTE   N23  An1  v127
 BYTE   W24
 BYTE   N17  An2  v116
 BYTE   W18
 BYTE   N11  An1  v104
 BYTE   W12
 BYTE   N04  An2  v072
 BYTE   W06
 BYTE   N11  An1  v100
 BYTE   W12
 BYTE   An2  v116
 BYTE   W12
 BYTE   N08  An1  v112
 BYTE   W12
// 009   ----------------------------------------
 BYTE   PATT
  POIN2 Label_0_55BC1D
// 010   ----------------------------------------
 BYTE   N23  Fn1  v127
 BYTE   W24
 BYTE   N17  Fn2  v124
 BYTE   W18
 BYTE   N11  Fn1  v104
 BYTE   W18
 BYTE   Fn1  v116
 BYTE   W12
 BYTE   Fn2  v124
 BYTE   W12
 BYTE   N04  Fn1  v108
 BYTE   W12
// 011   ----------------------------------------
 BYTE   N23  Fn1  v124
 BYTE   W24
 BYTE   N17  Fn2
 BYTE   W18
 BYTE   N08  Fn1  v108
 BYTE   W12
 BYTE   N05  Fn1  v112
 BYTE   W12
 BYTE   Fn1  v120
 BYTE   W06
 BYTE   N11  Fn2  v112
 BYTE   W12
 BYTE   N04  Fn1
 BYTE   W12
// 012   ----------------------------------------
 BYTE   N23  An1  v127
 BYTE   W24
 BYTE   N17  An2  v120
 BYTE   W18
 BYTE   N05  An1
 BYTE   W06
 BYTE   An2  v068
 BYTE   W06
 BYTE   N06  An1  v104
 BYTE   W12
 BYTE   N05  An1  v108
 BYTE   W06
 BYTE   N11  An2
 BYTE   W12
 BYTE   N04  An1  v112
 BYTE   W12
// 013   ----------------------------------------
 BYTE   N23  An1  v124
 BYTE   W24
 BYTE   N17  An2
 BYTE   W18
 BYTE   N06  An1  v116
 BYTE   W12
 BYTE   N04  An1  v108
 BYTE   W12
 BYTE   N05  An1  v120
 BYTE   W06
 BYTE   N11  An2  v108
 BYTE   W12
 BYTE   N04  An1  v104
 BYTE   W12
// 014   ----------------------------------------
 BYTE   N23  Fn1  v127
 BYTE   W24
 BYTE   N17  Fn2  v124
 BYTE   W18
 BYTE   N09  Fn1  v112
 BYTE   W12
 BYTE   N04  Fn2  v076
 BYTE   W06
 BYTE   N05  Fn1  v100
 BYTE   W06
 BYTE   Fn1  v096
 BYTE   W06
 BYTE   N11  Fn2  v116
 BYTE   W12
 BYTE   N04  Fn1
 BYTE   W12
// 015   ----------------------------------------
 BYTE   N06  Fn1  v124
 BYTE   W12
 BYTE   N11  Fn1  v100
 BYTE   W12
 BYTE   N17  Fn2  v124
 BYTE   W18
 BYTE   N02  Fn1  v100
 BYTE   W12
 BYTE   N03
 BYTE   W12
 BYTE   N05  Fn1  v120
 BYTE   W06
 BYTE   N11  Fn2  v108
 BYTE   W12
 BYTE   N04  Fn1  v112
 BYTE   W12
// 016   ----------------------------------------
 BYTE   VOICE   48
 BYTE   VOL   24*FE07EverythingIntotheDarkRSflame_mvl/mxv
 BYTE   PAN   c_v+0
 BYTE   N14  Gn2  v127
 BYTE   N14  Cn2
 BYTE   W18
 BYTE   N08  Gn2  v032
 BYTE   N08  Cn2
 BYTE   W96
// 017   ----------------------------------------
 BYTE   W54
 BYTE   N23  Gn2  v127
 BYTE   N23  Cn2  v124
 BYTE   W24
 BYTE   N14  Gs2  v127
 BYTE   N16  Cs2
 BYTE   W18
// 018   ----------------------------------------
 BYTE   N08  Gs2  v032
 BYTE   N08  Cs2
 BYTE   W96
// 019   ----------------------------------------
 BYTE   W54
 BYTE   N21  Cs2  v096
 BYTE   N22  Gs2  v112
 BYTE   W24
 BYTE   N12  Cn2  v127
 BYTE   N13  Gn2  v112
 BYTE   W18
// 020   ----------------------------------------
 BYTE   N08  Gn2  v032
 BYTE   N08  Cn2
 BYTE   W96
// 021   ----------------------------------------
 BYTE   W42
 BYTE   N05  Gn2  v116
 BYTE   N05  Cn2  v127
 BYTE   W06
 BYTE   N08  Gn2  v032
 BYTE   N08  Cn2
 BYTE   W18
 BYTE   N10  Cn2  v127
 BYTE   N11  Gn2  v116
 BYTE   W12
 BYTE   N14  Gs2  v112
 BYTE   N14  Cs2  v104
 BYTE   W18
// 022   ----------------------------------------
 BYTE   N08  Gs2  v032
 BYTE   N08  Cs2
 BYTE   W28
 BYTE   W96
// 023   ----------------------------------------
 BYTE   W24
 BYTE   W02
 BYTE   N20  Gs2  v112
 BYTE   N20  Cs2  v100
 BYTE   W24
 BYTE   N11  Cn2  v124
 BYTE   N12  Gn2  v112
 BYTE   W18
 BYTE   N08  Gn2  v032
 BYTE   N08  Cn2
 BYTE   W30
// 024   ----------------------------------------
 BYTE   N44  Cn3  v116
 BYTE   W48
 BYTE   As2  v120
 BYTE   W48
// 025   ----------------------------------------
 BYTE   Fn2  v112
 BYTE   W48
 BYTE   N96  Gs2  v104
 BYTE   W96
// 026   ----------------------------------------
 BYTE   N68
 BYTE   W68
 BYTE   N03
 BYTE   W04
 BYTE   N17  Fn2  v100
 BYTE   W24
// 027   ----------------------------------------
 BYTE   N92  Gn2  v104
 BYTE   W96
// 028   ----------------------------------------
 BYTE   N90  Cn2  v124
 BYTE   W90
 BYTE   W02
 BYTE   W03
 BYTE   W01
// 029   ----------------------------------------
 BYTE   GoTo
  POIN2 Label_0_55BBF8
 BYTE   FINE

//**************** Track 2 (Midi-Chn.1) ****************//

FE07EverythingIntotheDarkRSflame_002:
// 000   ----------------------------------------
Label_1_55C9C8:
 BYTE   KEYSH   FE07EverythingIntotheDarkRSflame_key+0
 BYTE   VOICE   31
 BYTE   VOL   24*FE07EverythingIntotheDarkRSflame_mvl/mxv
 BYTE   PAN   c_v+12
 BYTE   N40  An2  v120
 BYTE   N40  En2
 BYTE   TEMPO   128*FE07EverythingIntotheDarkRSflame_tbs/2
 BYTE   W92
 BYTE   W02
 BYTE   N44  An2  v120
 BYTE   N44  En2
 BYTE   W96
// 001   ----------------------------------------
 BYTE   An2
 BYTE   N44  En2
 BYTE   W96
// 002   ----------------------------------------
 BYTE   N42  An2
 BYTE   N42  En2
 BYTE   W84
 BYTE   N11  An2
 BYTE   N11  En2
 BYTE   W12
// 003   ----------------------------------------
Label_1_55C9ED:
 BYTE   N44  Dn3  v120
 BYTE   N44  An2
 BYTE   W96
 BYTE   PEND 
// 004   ----------------------------------------
 BYTE   PATT
  POIN2 Label_1_55C9ED
// 005   ----------------------------------------
 BYTE   N44  An2  v120
 BYTE   N48  Dn3
 BYTE   W96
// 006   ----------------------------------------
 BYTE   Dn3
 BYTE   N48  An2
 BYTE   W96
// 007   ----------------------------------------
 BYTE   W96
// 008   ----------------------------------------
 BYTE   W96
// 009   ----------------------------------------
 BYTE   W96
// 010   ----------------------------------------
 BYTE   W96
// 011   ----------------------------------------
 BYTE   W96
// 012   ----------------------------------------
 BYTE   W96
// 013   ----------------------------------------
 BYTE   W96
// 014   ----------------------------------------
 BYTE   W96
// 015   ----------------------------------------
Label_1_55CA0B:
 BYTE   N44  Cn3  v120
 BYTE   N44  En2
 BYTE   W96
// 016   ----------------------------------------
 BYTE   W96
 BYTE   PEND 
// 017   ----------------------------------------
 BYTE   PATT
  POIN2 Label_1_55CA0B
// 018   ----------------------------------------
 BYTE   N48  Cn3  v120
 BYTE   N48  En2
 BYTE   W96
// 019   ----------------------------------------
 BYTE   W96
// 020   ----------------------------------------
 BYTE   N44
 BYTE   N48  Cn3
 BYTE   W48
 BYTE   W96
// 021   ----------------------------------------
 BYTE   W96
// 022   ----------------------------------------
 BYTE   W96
// 023   ----------------------------------------
 BYTE   W96
// 024   ----------------------------------------
 BYTE   W96
// 025   ----------------------------------------
 BYTE   W96
// 026   ----------------------------------------
 BYTE   W96
// 027   ----------------------------------------
 BYTE   W44
 BYTE   W02
 BYTE   W03
 BYTE   W01
 BYTE   GoTo
  POIN2 Label_1_55C9C8
 BYTE   FINE

//**************** Track 3 (Midi-Chn.2) ****************//

FE07EverythingIntotheDarkRSflame_003:
// 000   ----------------------------------------
Label_2_55CA34:
 BYTE   KEYSH   FE07EverythingIntotheDarkRSflame_key+0
 BYTE   VOICE   52
 BYTE   VOL   40*FE07EverythingIntotheDarkRSflame_mvl/mxv
 BYTE   PAN   c_v+12
 BYTE   N40  En2  v120
 BYTE   N40  An2
 BYTE   TEMPO   128*FE07EverythingIntotheDarkRSflame_tbs/2
 BYTE   W92
 BYTE   W02
 BYTE   N44  En2  v120
 BYTE   N44  An2
 BYTE   W96
// 001   ----------------------------------------
 BYTE   En2
 BYTE   N44  An2
 BYTE   W96
// 002   ----------------------------------------
 BYTE   N42  En2
 BYTE   N42  An2
 BYTE   W84
 BYTE   N11  En2
 BYTE   N11  An2
 BYTE   W12
// 003   ----------------------------------------
Label_2_55CA59:
 BYTE   N44  An2  v120
 BYTE   N44  Dn3
 BYTE   W96
 BYTE   PEND 
// 004   ----------------------------------------
 BYTE   PATT
  POIN2 Label_2_55CA59
// 005   ----------------------------------------
 BYTE   N44  An2  v120
 BYTE   N48  Dn3
 BYTE   W96
// 006   ----------------------------------------
 BYTE   An2
 BYTE   N48  Dn3
 BYTE   W96
// 007   ----------------------------------------
 BYTE   W96
// 008   ----------------------------------------
 BYTE   W96
// 009   ----------------------------------------
 BYTE   W96
// 010   ----------------------------------------
 BYTE   W96
// 011   ----------------------------------------
 BYTE   W96
// 012   ----------------------------------------
 BYTE   W96
// 013   ----------------------------------------
 BYTE   W96
// 014   ----------------------------------------
 BYTE   W96
// 015   ----------------------------------------
Label_2_55CA77:
 BYTE   N44  En2  v120
 BYTE   N44  Cn3
 BYTE   W96
// 016   ----------------------------------------
 BYTE   W96
 BYTE   PEND 
// 017   ----------------------------------------
 BYTE   PATT
  POIN2 Label_2_55CA77
// 018   ----------------------------------------
 BYTE   N48  En2  v120
 BYTE   N48  Cn3
 BYTE   W96
// 019   ----------------------------------------
 BYTE   W96
// 020   ----------------------------------------
 BYTE   N44  En2
 BYTE   N48  Cn3
 BYTE   W48
 BYTE   W96
// 021   ----------------------------------------
 BYTE   W96
// 022   ----------------------------------------
 BYTE   W96
// 023   ----------------------------------------
 BYTE   W96
// 024   ----------------------------------------
 BYTE   W96
// 025   ----------------------------------------
 BYTE   W96
// 026   ----------------------------------------
 BYTE   W96
// 027   ----------------------------------------
 BYTE   W44
 BYTE   W02
 BYTE   W03
 BYTE   W01
 BYTE   GoTo
  POIN2 Label_2_55CA34
 BYTE   FINE

//**************** Track 4 (Midi-Chn.3) ****************//

FE07EverythingIntotheDarkRSflame_004:
// 000   ----------------------------------------
Label_3_55BE38:
 BYTE   KEYSH   FE07EverythingIntotheDarkRSflame_key+0
 BYTE   VOICE   54
 BYTE   VOL   40*FE07EverythingIntotheDarkRSflame_mvl/mxv
 BYTE   PAN   c_v+12
 BYTE   N40  An2  v120
 BYTE   N40  En2
 BYTE   TEMPO   128*FE07EverythingIntotheDarkRSflame_tbs/2
 BYTE   W92
 BYTE   W02
 BYTE   N44  An2  v120
 BYTE   N44  En2
 BYTE   W96
// 001   ----------------------------------------
 BYTE   An2
 BYTE   N44  En2
 BYTE   W96
// 002   ----------------------------------------
 BYTE   N42  An2
 BYTE   N42  En2
 BYTE   W84
 BYTE   N11  An2
 BYTE   N11  En2
 BYTE   W12
// 003   ----------------------------------------
Label_3_55BE5D:
 BYTE   N44  Dn3  v120
 BYTE   N44  An2
 BYTE   W96
 BYTE   PEND 
// 004   ----------------------------------------
 BYTE   PATT
  POIN2 Label_3_55BE5D
// 005   ----------------------------------------
 BYTE   N44  An2  v120
 BYTE   N48  Dn3
 BYTE   W96
// 006   ----------------------------------------
 BYTE   Dn3
 BYTE   N48  An2
 BYTE   W96
// 007   ----------------------------------------
 BYTE   W96
// 008   ----------------------------------------
 BYTE   W96
// 009   ----------------------------------------
 BYTE   W96
// 010   ----------------------------------------
 BYTE   W96
// 011   ----------------------------------------
 BYTE   W96
// 012   ----------------------------------------
 BYTE   W96
// 013   ----------------------------------------
 BYTE   W96
// 014   ----------------------------------------
 BYTE   W96
// 015   ----------------------------------------
Label_3_55BE7B:
 BYTE   N44  Cn3  v120
 BYTE   N44  En2
 BYTE   W96
// 016   ----------------------------------------
 BYTE   W96
 BYTE   PEND 
// 017   ----------------------------------------
 BYTE   PATT
  POIN2 Label_3_55BE7B
// 018   ----------------------------------------
 BYTE   N48  Cn3  v120
 BYTE   N48  En2
 BYTE   W96
// 019   ----------------------------------------
 BYTE   W96
// 020   ----------------------------------------
 BYTE   N44
 BYTE   N48  Cn3
 BYTE   W48
 BYTE   W96
// 021   ----------------------------------------
 BYTE   W96
// 022   ----------------------------------------
 BYTE   W96
// 023   ----------------------------------------
 BYTE   W96
// 024   ----------------------------------------
 BYTE   W96
// 025   ----------------------------------------
 BYTE   W96
// 026   ----------------------------------------
 BYTE   W96
// 027   ----------------------------------------
 BYTE   W44
 BYTE   W02
 BYTE   W03
 BYTE   W01
 BYTE   GoTo
  POIN2 Label_3_55BE38
 BYTE   FINE

//**************** Track 5 (Midi-Chn.4) ****************//

FE07EverythingIntotheDarkRSflame_005:
// 000   ----------------------------------------
Label_4_55C480:
 BYTE   KEYSH   FE07EverythingIntotheDarkRSflame_key+0
 BYTE   VOL   45*FE07EverythingIntotheDarkRSflame_mvl/mxv
 BYTE   TEMPO   128*FE07EverythingIntotheDarkRSflame_tbs/2
 BYTE   W96
// 001   ----------------------------------------
 BYTE   W96
// 002   ----------------------------------------
 BYTE   W96
// 003   ----------------------------------------
 BYTE   W96
// 004   ----------------------------------------
 BYTE   W96
// 005   ----------------------------------------
 BYTE   W96
// 006   ----------------------------------------
 BYTE   W96
// 007   ----------------------------------------
 BYTE   W72
 BYTE   VOICE   47
 BYTE   PAN   c_v-14
 BYTE   W24
// 008   ----------------------------------------
 BYTE   N96  Cn3  v080
 BYTE   N96  En3  v100
 BYTE   N96  En2  v076
 BYTE   W96
// 009   ----------------------------------------
 BYTE   N68  En3  v100
 BYTE   N68  Cn3  v080
 BYTE   N68  En2  v076
 BYTE   W68
 BYTE   N03  En3  v100
 BYTE   N03  En2  v076
 BYTE   N03  Cn3  v080
 BYTE   W04
 BYTE   N23  En3  v028
 BYTE   N23  Cn3  v016
 BYTE   N23  En2
 BYTE   W24
// 010   ----------------------------------------
 BYTE   N96  Cn3  v100
 BYTE   N96  Gs2  v076
 BYTE   N96  Cn2  v084
 BYTE   W96
// 011   ----------------------------------------
 BYTE   N68  Cn3  v100
 BYTE   N68  Gs2  v076
 BYTE   N68  Cn2  v084
 BYTE   W68
 BYTE   N03  Cn3  v100
 BYTE   N03  Gs2  v076
 BYTE   N03  Cn2  v084
 BYTE   W04
 BYTE   N23  Cn3  v028
 BYTE   N23  Gs2  v016
 BYTE   N23  Cn2
 BYTE   W24
// 012   ----------------------------------------
 BYTE   N96  En3  v096
 BYTE   N96  Cn3  v088
 BYTE   N96  En2  v080
 BYTE   W96
// 013   ----------------------------------------
 BYTE   N68  En3  v096
 BYTE   N68  Cn3  v088
 BYTE   N68  En2  v080
 BYTE   W68
 BYTE   N03  En3  v096
 BYTE   N03  En2  v080
 BYTE   N03  Cn3  v088
 BYTE   W04
 BYTE   N23  En3  v028
 BYTE   N23  Cn3  v016
 BYTE   N23  En2
 BYTE   W24
// 014   ----------------------------------------
 BYTE   N96  Gs2  v084
 BYTE   N96  Cn3  v092
 BYTE   N96  Cn2  v076
 BYTE   W96
// 015   ----------------------------------------
 BYTE   N68  Cn3  v092
 BYTE   N68  Gs2  v084
 BYTE   N68  Cn2  v076
 BYTE   W68
 BYTE   N03  Cn3  v092
 BYTE   N03  Cn2  v076
 BYTE   N03  Gs2  v084
 BYTE   W04
 BYTE   N23  Cn3  v028
 BYTE   N23  Gs2  v016
 BYTE   N23  Cn2
 BYTE   W24
// 016   ----------------------------------------
 BYTE   VOICE   19
 BYTE   PAN   c_v+4
 BYTE   N44  Cn4  v112
 BYTE   N44  Gn3  v104
 BYTE   W48
 BYTE   N68  Cs4  v108
 BYTE   N68  Gs3  v088
 BYTE   W72
// 017   ----------------------------------------
 BYTE   N23  Bn3  v108
 BYTE   N23  Fn3  v096
 BYTE   W24
 BYTE   N21  Cn4  v108
 BYTE   N23  Gn3  v096
 BYTE   W24
 BYTE   N20  Gs3  v088
 BYTE   N22  Cs4  v096
 BYTE   W24
 BYTE   N44  Ds4  v092
 BYTE   N44  As3  v100
 BYTE   W48
// 018   ----------------------------------------
 BYTE   Cs4
 BYTE   N44  Gs3  v084
 BYTE   W48
 BYTE   Fn4  v112
 BYTE   N44  Cn4  v104
 BYTE   W48
// 019   ----------------------------------------
 BYTE   N36  Ds4  v100
 BYTE   N36  As3  v084
 BYTE   W48
 BYTE   N20  Gn3  v104
 BYTE   N23  Cn4  v112
 BYTE   W24
 BYTE   N11  Gn3
 BYTE   N11  Dn3  v104
 BYTE   W12
 BYTE   N08  Ds3  v096
 BYTE   N11  Gs3
 BYTE   W12
// 020   ----------------------------------------
 BYTE   N60  Fn3  v104
 BYTE   N68  As3  v108
 BYTE   W72
 BYTE   N22  Cn3  v100
 BYTE   N23  Fn3  v112
 BYTE   W24
// 021   ----------------------------------------
 BYTE   N22  Gn3  v104
 BYTE   N23  Dn3
 BYTE   W24
 BYTE   N20  Ds3  v088
 BYTE   N21  Gs3  v100
 BYTE   W24
 BYTE   N32  As3  v112
 BYTE   N32  Fn3  v104
 BYTE   W36
 BYTE   N52  Cn4  v112
 BYTE   N52  Gn3  v088
 BYTE   W10
 BYTE   W48
// 022   ----------------------------------------
 BYTE   W02
 BYTE   N32  Cs4  v100
 BYTE   N32  Gs3  v088
 BYTE   W36
 BYTE   As3  v100
 BYTE   N32  Fn3
 BYTE   W36
 BYTE   N18  Cs4  v108
 BYTE   N20  Gs3  v092
 BYTE   W24
// 023   ----------------------------------------
 BYTE   N11  Cn3  v116
 BYTE   W12
 BYTE   Cn4
 BYTE   W12
 BYTE   As3  v088
 BYTE   W12
 BYTE   Cn4  v112
 BYTE   W12
 BYTE   Gn3  v100
 BYTE   W12
 BYTE   Cn4  v108
 BYTE   W12
 BYTE   Fn3  v092
 BYTE   W12
 BYTE   Cn4  v116
 BYTE   W12
// 024   ----------------------------------------
 BYTE   En3  v104
 BYTE   W12
 BYTE   Cn4  v100
 BYTE   W12
 BYTE   Gn3  v104
 BYTE   W12
 BYTE   Cn4  v116
 BYTE   W12
 BYTE   As3  v104
 BYTE   W12
 BYTE   Cn4  v108
 BYTE   W12
 BYTE   Gs3  v096
 BYTE   W12
 BYTE   Cn4  v104
 BYTE   W12
// 025   ----------------------------------------
 BYTE   Cn3  v112
 BYTE   W12
 BYTE   Cn4  v116
 BYTE   W12
 BYTE   As3  v092
 BYTE   W12
 BYTE   Cn4  v108
 BYTE   W12
 BYTE   Gs3  v092
 BYTE   W12
 BYTE   Cn4  v108
 BYTE   W12
 BYTE   Gn3  v100
 BYTE   W12
 BYTE   Cn4
 BYTE   W12
// 026   ----------------------------------------
 BYTE   Fn3  v096
 BYTE   W12
 BYTE   Cn4  v112
 BYTE   W12
 BYTE   En3  v092
 BYTE   W12
 BYTE   Cn4  v100
 BYTE   W12
 BYTE   Fn3  v104
 BYTE   W12
 BYTE   Cn4  v096
 BYTE   W12
 BYTE   Gn3  v108
 BYTE   W12
 BYTE   Cn4  v112
 BYTE   W12
// 027   ----------------------------------------
 BYTE   Gs3  v100
 BYTE   W12
 BYTE   As3  v088
 BYTE   W12
 BYTE   Cn4  v104
 BYTE   W12
 BYTE   As3  v092
 BYTE   W12
 BYTE   Cs4  v104
 BYTE   W12
 BYTE   Cn4  v116
 BYTE   W12
 BYTE   As3  v088
 BYTE   W12
 BYTE   Gs3
 BYTE   W12
// 028   ----------------------------------------
 BYTE   Gn3  v096
 BYTE   W12
 BYTE   Cn4  v116
 BYTE   W12
 BYTE   Cs4  v084
 BYTE   W12
 BYTE   Cn4  v108
 BYTE   W12
 BYTE   Ds4  v100
 BYTE   W12
 BYTE   Cs4  v096
 BYTE   W12
 BYTE   Fn4
 BYTE   W12
 BYTE   En4  v100
 BYTE   W06
 BYTE   W02
 BYTE   W03
 BYTE   W01
// 029   ----------------------------------------
 BYTE   N88  Gn4  v096
 BYTE   N88  Cn4
 BYTE   GoTo
  POIN2 Label_4_55C480
 BYTE   FINE

//**************** Track 6 (Midi-Chn.5) ****************//

FE07EverythingIntotheDarkRSflame_006:
// 000   ----------------------------------------
Label_5_55C65C:
 BYTE   KEYSH   FE07EverythingIntotheDarkRSflame_key+0
 BYTE   VOICE   98
 BYTE   VOL   36*FE07EverythingIntotheDarkRSflame_mvl/mxv
 BYTE   PAN   c_v-14
 BYTE   N96  An2  v120
 BYTE   TEMPO   128*FE07EverythingIntotheDarkRSflame_tbs/2
 BYTE   W96
// 001   ----------------------------------------
 BYTE   N96  An2  v120
 BYTE   W96
// 002   ----------------------------------------
 BYTE   An2
 BYTE   W96
// 003   ----------------------------------------
 BYTE   N90
 BYTE   W90
 BYTE   N01
 BYTE   W06
// 004   ----------------------------------------
 BYTE   N96  Dn3
 BYTE   W96
// 005   ----------------------------------------
 BYTE   Dn3
 BYTE   W96
// 006   ----------------------------------------
 BYTE   Dn3
 BYTE   W96
// 007   ----------------------------------------
 BYTE   N92
 BYTE   W92
 BYTE   N03
 BYTE   W04
// 008   ----------------------------------------
 BYTE   N92  En3
 BYTE   W96
// 009   ----------------------------------------
Label_5_55C682:
 BYTE   N44  An3  v120
 BYTE   W48
 BYTE   Cn4
 BYTE   W48
 BYTE   PEND 
// 010   ----------------------------------------
 BYTE   N92  As3  v120
 BYTE   W96
// 011   ----------------------------------------
 BYTE   Gs3
 BYTE   W96
// 012   ----------------------------------------
 BYTE   En3
 BYTE   W96
// 013   ----------------------------------------
 BYTE   PATT
  POIN2 Label_5_55C682
// 014   ----------------------------------------
 BYTE   N92  Cs4  v120
 BYTE   W96
// 015   ----------------------------------------
 BYTE   N88  Bn3
 BYTE   W96
// 016   ----------------------------------------
 BYTE   W96
// 017   ----------------------------------------
 BYTE   W96
// 018   ----------------------------------------
 BYTE   W96
// 019   ----------------------------------------
 BYTE   W96
// 020   ----------------------------------------
 BYTE   N96  Cn4  v060
 BYTE   W96
// 021   ----------------------------------------
 BYTE   Cn4
 BYTE   W96
// 022   ----------------------------------------
 BYTE   Cn4
 BYTE   W44
 BYTE   W02
 BYTE   W48
 BYTE   W02
// 023   ----------------------------------------
 BYTE   N68  Cn4  v060
 BYTE   W68
 BYTE   N03
 BYTE   W28
// 024   ----------------------------------------
 BYTE   N96
 BYTE   W96
// 025   ----------------------------------------
 BYTE   Cn4
 BYTE   W96
// 026   ----------------------------------------
 BYTE   N92
 BYTE   W92
 BYTE   N03
 BYTE   W04
// 027   ----------------------------------------
 BYTE   N44  As3
 BYTE   W48
 BYTE   Gs3
 BYTE   W48
// 028   ----------------------------------------
 BYTE   N92  Gn3
 BYTE   W96
// 029   ----------------------------------------
 BYTE   Cn3
 BYTE   W90
 BYTE   W02
 BYTE   W03
 BYTE   W01
// 030   ----------------------------------------
 BYTE   GoTo
  POIN2 Label_5_55C65C
 BYTE   FINE

//**************** Track 7 (Midi-Chn.6) ****************//

FE07EverythingIntotheDarkRSflame_007:
// 000   ----------------------------------------
Label_6_55BEE8:
 BYTE   KEYSH   FE07EverythingIntotheDarkRSflame_key+0
 BYTE   VOICE   6
 BYTE   VOL   36*FE07EverythingIntotheDarkRSflame_mvl/mxv
 BYTE   PAN   c_v+0
 BYTE   N11  An2  v092
 BYTE   TEMPO   128*FE07EverythingIntotheDarkRSflame_tbs/2
 BYTE   W12
 BYTE   N05  En3  v092
 BYTE   W06
 BYTE   An2
 BYTE   W06
 BYTE   Fn3
 BYTE   W06
 BYTE   An2
 BYTE   W06
 BYTE   Gn3
 BYTE   W06
 BYTE   An2
 BYTE   W06
 BYTE   An3
 BYTE   W06
 BYTE   An2
 BYTE   W06
 BYTE   Fn3
 BYTE   W06
 BYTE   An2
 BYTE   W06
 BYTE   Gn3
 BYTE   W06
 BYTE   En3
 BYTE   W06
 BYTE   Fn3
 BYTE   W06
 BYTE   Gn3
 BYTE   W06
// 001   ----------------------------------------
Label_6_55BF14:
 BYTE   N11  An2  v092
 BYTE   W12
 BYTE   N05  En3
 BYTE   W06
 BYTE   An2
 BYTE   W06
 BYTE   Fn3
 BYTE   W06
 BYTE   An2
 BYTE   W06
 BYTE   Gn3
 BYTE   W06
 BYTE   An2
 BYTE   W06
 BYTE   An3
 BYTE   W06
 BYTE   An2
 BYTE   W06
 BYTE   Fn3
 BYTE   W06
 BYTE   An2
 BYTE   W06
 BYTE   Gn3
 BYTE   W06
 BYTE   En3
 BYTE   W06
 BYTE   Fn3
 BYTE   W06
 BYTE   Gn3
 BYTE   W06
 BYTE   PEND 
// 002   ----------------------------------------
 BYTE   PATT
  POIN2 Label_6_55BF14
// 003   ----------------------------------------
 BYTE   PATT
  POIN2 Label_6_55BF14
// 004   ----------------------------------------
Label_6_55BF40:
 BYTE   N11  Dn3  v092
 BYTE   W12
 BYTE   N05  An3
 BYTE   W06
 BYTE   Dn3
 BYTE   W06
 BYTE   As3
 BYTE   W06
 BYTE   Dn3
 BYTE   W06
 BYTE   Cn4
 BYTE   W06
 BYTE   Dn3
 BYTE   W06
 BYTE   Dn4
 BYTE   W06
 BYTE   Dn3
 BYTE   W06
 BYTE   As3
 BYTE   W06
 BYTE   Dn3
 BYTE   W06
 BYTE   Cn4
 BYTE   W06
 BYTE   An3
 BYTE   W06
 BYTE   As3
 BYTE   W06
 BYTE   Cn4
 BYTE   W06
 BYTE   PEND 
// 005   ----------------------------------------
 BYTE   PATT
  POIN2 Label_6_55BF40
// 006   ----------------------------------------
 BYTE   PATT
  POIN2 Label_6_55BF40
// 007   ----------------------------------------
 BYTE   N11  Dn3  v092
 BYTE   W12
 BYTE   N05  An3
 BYTE   W06
 BYTE   Dn3
 BYTE   W06
 BYTE   As3
 BYTE   W06
 BYTE   Dn3
 BYTE   W06
 BYTE   Cn4
 BYTE   W06
 BYTE   Dn3
 BYTE   W06
 BYTE   Dn4
 BYTE   W06
 BYTE   Dn3
 BYTE   W06
 BYTE   As3
 BYTE   W06
 BYTE   Dn3
 BYTE   W06
 BYTE   Cn4
 BYTE   W06
 BYTE   An3
 BYTE   W06
 BYTE   As3
 BYTE   W06
 BYTE   Cn4
 BYTE   W96
// 008   ----------------------------------------
 BYTE   W96
// 009   ----------------------------------------
 BYTE   W96
// 010   ----------------------------------------
 BYTE   W96
// 011   ----------------------------------------
 BYTE   W96
// 012   ----------------------------------------
 BYTE   W96
// 013   ----------------------------------------
 BYTE   W96
// 014   ----------------------------------------
 BYTE   W96
// 015   ----------------------------------------
 BYTE   W06
Label_6_55BF95:
 BYTE   N05  Cn4  v080
 BYTE   W06
 BYTE   Gn3
 BYTE   W06
 BYTE   Cn4
 BYTE   W06
 BYTE   Cs4
 BYTE   W06
 BYTE   Cn4
 BYTE   W06
 BYTE   Gn3
 BYTE   W06
 BYTE   Cn4
 BYTE   W06
 BYTE   Cs4
 BYTE   W06
 BYTE   Cn4
 BYTE   W06
 BYTE   Gn3
 BYTE   W06
 BYTE   Cn4
 BYTE   W06
 BYTE   Cs4
 BYTE   W06
 BYTE   Cn4
 BYTE   W06
 BYTE   Gn3
 BYTE   W06
 BYTE   Cn4
 BYTE   W06
// 016   ----------------------------------------
 BYTE   Cs4
 BYTE   W06
 BYTE   PEND 
// 017   ----------------------------------------
 BYTE   PATT
  POIN2 Label_6_55BF95
// 018   ----------------------------------------
 BYTE   PATT
  POIN2 Label_6_55BF95
// 019   ----------------------------------------
 BYTE   PATT
  POIN2 Label_6_55BF95
// 020   ----------------------------------------
 BYTE   PATT
  POIN2 Label_6_55BF95
// 021   ----------------------------------------
 BYTE   PATT
  POIN2 Label_6_55BF95
// 022   ----------------------------------------
 BYTE   N05  Cn4  v080
 BYTE   W06
 BYTE   Gn3
 BYTE   W06
 BYTE   Cn4
 BYTE   W06
 BYTE   Cs4
 BYTE   W06
 BYTE   Cn4
 BYTE   W06
 BYTE   Gn3
 BYTE   W06
 BYTE   Cn4
 BYTE   W06
 BYTE   Cs4
 BYTE   W04
 BYTE   W02
 BYTE   N05  Cn4  v080
 BYTE   W06
 BYTE   Gn3
 BYTE   W06
 BYTE   Cn4
 BYTE   W06
 BYTE   Cs4
 BYTE   W06
 BYTE   Cn4
 BYTE   W06
 BYTE   Gn3
 BYTE   W06
 BYTE   Cn4
 BYTE   W06
 BYTE   Cs4
 BYTE   W06
// 023   ----------------------------------------
 BYTE   PATT
  POIN2 Label_6_55BF95
// 024   ----------------------------------------
 BYTE   PATT
  POIN2 Label_6_55BF95
// 025   ----------------------------------------
 BYTE   PATT
  POIN2 Label_6_55BF95
// 026   ----------------------------------------
 BYTE   PATT
  POIN2 Label_6_55BF95
// 027   ----------------------------------------
 BYTE   PATT
  POIN2 Label_6_55BF95
// 028   ----------------------------------------
 BYTE   PATT
  POIN2 Label_6_55BF95
// 029   ----------------------------------------
 BYTE   N05  Cn4  v080
 BYTE   W06
 BYTE   Gn3
 BYTE   W06
 BYTE   Cn4
 BYTE   W06
 BYTE   Cs4
 BYTE   W06
 BYTE   Cn4
 BYTE   W06
 BYTE   Gn3
 BYTE   W06
 BYTE   Cn4
 BYTE   W06
 BYTE   Cs4
 BYTE   W06
 BYTE   Cn4
 BYTE   W06
 BYTE   Gn3
 BYTE   W06
 BYTE   Cn4
 BYTE   W06
 BYTE   Cs4
 BYTE   W06
 BYTE   Cn4
 BYTE   W06
 BYTE   Gn3
 BYTE   W06
 BYTE   Cn4
 BYTE   W06
 BYTE   Cs4
 BYTE   W02
 BYTE   W03
 BYTE   W01
// 030   ----------------------------------------
 BYTE   GoTo
  POIN2 Label_6_55BEE8
 BYTE   FINE

//**************** Track 8 (Midi-Chn.7) ****************//

FE07EverythingIntotheDarkRSflame_008:
// 000   ----------------------------------------
Label_7_0101D67C:
 BYTE   KEYSH   FE07EverythingIntotheDarkRSflame_key+0
 BYTE   VOICE   121
 BYTE   VOL   21*FE07EverythingIntotheDarkRSflame_mvl/mxv
 BYTE   N21  Cs2  v127
 BYTE   TEMPO   128*FE07EverythingIntotheDarkRSflame_tbs/2
 BYTE   W24
 BYTE   N21  Dn1  v127
 BYTE   W36
 BYTE   N11  Cn1  v116
 BYTE   W12
 BYTE   N21  Dn1  v124
 BYTE   W24
// 001   ----------------------------------------
 BYTE   N11  Cn1  v116
 BYTE   W12
 BYTE   Cn1  v104
 BYTE   W12
 BYTE   N17  Dn1  v127
 BYTE   W18
 BYTE   Cn1  v096
 BYTE   W18
 BYTE   N11  Cn1  v116
 BYTE   W12
 BYTE   N21  Dn1  v127
 BYTE   W24
// 002   ----------------------------------------
 BYTE   Cn1  v120
 BYTE   W24
 BYTE   N17  Dn1  v127
 BYTE   W18
 BYTE   Cn1  v116
 BYTE   W18
 BYTE   N11  Cn1  v108
 BYTE   W12
 BYTE   N21  Dn1  v127
 BYTE   W24
// 003   ----------------------------------------
 BYTE   Cn1  v124
 BYTE   W24
 BYTE   Dn1  v127
 BYTE   W24
 BYTE   N05  Cn1  v108
 BYTE   W06
 BYTE   N11  Dn1  v127
 BYTE   W12
 BYTE   N05  Dn1  v104
 BYTE   W06
 BYTE   N11  Dn1  v124
 BYTE   W12
 BYTE   Dn1  v127
 BYTE   W12
// 004   ----------------------------------------
 BYTE   N21  Cn1
 BYTE   W24
 BYTE   Dn1
 BYTE   W36
 BYTE   N11  Cn1  v120
 BYTE   W12
 BYTE   N21  Dn1  v112
 BYTE   W24
// 005   ----------------------------------------
 BYTE   N22  Cn1  v120
 BYTE   W24
 BYTE   N17  Dn1  v127
 BYTE   W18
 BYTE   Cn1  v112
 BYTE   W18
 BYTE   N11  Cn1  v127
 BYTE   W12
 BYTE   N21  Dn1
 BYTE   W24
// 006   ----------------------------------------
 BYTE   N22  Cn1
 BYTE   W24
 BYTE   N17  Dn1
 BYTE   W18
 BYTE   Cn1  v112
 BYTE   W18
 BYTE   N11  Cn1  v127
 BYTE   W12
 BYTE   N21  Dn1
 BYTE   W24
// 007   ----------------------------------------
 BYTE   N22  Cn1
 BYTE   W24
 BYTE   N17  Dn1
 BYTE   W18
 BYTE   Cn1  v112
 BYTE   W18
 BYTE   Dn1  v127
 BYTE   W18
 BYTE   N11  Dn1  v116
 BYTE   W12
 BYTE   N05  Dn1  v108
 BYTE   W06
// 008   ----------------------------------------
 BYTE   N11  Cn1  v127
 BYTE   W12
 BYTE   Cn1  v124
 BYTE   W12
 BYTE   N17  Dn1  v127
 BYTE   W18
 BYTE   Cn1  v112
 BYTE   W18
 BYTE   N11  Cn1  v104
 BYTE   W12
 BYTE   Dn1  v127
 BYTE   W12
 BYTE   Cn1  v104
 BYTE   W12
// 009   ----------------------------------------
 BYTE   Cn1  v124
 BYTE   W12
 BYTE   Cn1  v120
 BYTE   W12
 BYTE   N17  Dn1  v127
 BYTE   W18
 BYTE   N11  Cn1  v116
 BYTE   W12
 BYTE   Cn1
 BYTE   W12
 BYTE   N05
 BYTE   W06
 BYTE   N11  Dn1  v127
 BYTE   W12
 BYTE   Cn1  v112
 BYTE   W12
// 010   ----------------------------------------
 BYTE   Cn1  v120
 BYTE   W12
 BYTE   Cn1  v116
 BYTE   W12
 BYTE   N17  Dn1  v127
 BYTE   W18
 BYTE   N11  Cn1  v108
 BYTE   W12
 BYTE   Cn1  v116
 BYTE   W12
 BYTE   N05  Cn1  v096
 BYTE   W06
 BYTE   N11  Dn1  v116
 BYTE   W12
 BYTE   Cn1  v112
 BYTE   W12
// 011   ----------------------------------------
 BYTE   Cn1  v116
 BYTE   W12
 BYTE   Cn1  v112
 BYTE   W12
 BYTE   N17  Dn1  v127
 BYTE   W18
 BYTE   N11  Cn1  v096
 BYTE   W12
 BYTE   Dn1  v127
 BYTE   W12
 BYTE   N05  Dn1  v116
 BYTE   W06
 BYTE   N11
 BYTE   W12
 BYTE   Dn1  v127
 BYTE   W12
// 012   ----------------------------------------
 BYTE   Cn1  v124
 BYTE   W12
 BYTE   Cn1  v116
 BYTE   W12
 BYTE   N22  Dn1  v127
 BYTE   W30
 BYTE   N11  Cn1  v084
 BYTE   W12
 BYTE   N05  Cn1  v100
 BYTE   W06
 BYTE   N11  Dn1  v127
 BYTE   W12
 BYTE   Cn1  v100
 BYTE   W12
// 013   ----------------------------------------
 BYTE   Cn1  v124
 BYTE   W12
 BYTE   Cn1  v120
 BYTE   W12
 BYTE   Dn1  v127
 BYTE   W12
 BYTE   N17  Cn1  v100
 BYTE   W18
 BYTE   N11  Cn1  v116
 BYTE   W12
 BYTE   N05  Cn1  v096
 BYTE   W06
 BYTE   N11  Dn1  v124
 BYTE   W12
 BYTE   Cn1  v112
 BYTE   W12
// 014   ----------------------------------------
 BYTE   Cn1
 BYTE   W12
 BYTE   Cn1
 BYTE   W12
 BYTE   N17  Dn1  v127
 BYTE   W18
 BYTE   N11  Cn1  v112
 BYTE   W12
 BYTE   Cn1  v116
 BYTE   W12
 BYTE   N05  Cn1  v100
 BYTE   W06
 BYTE   N11  Dn1  v120
 BYTE   W12
 BYTE   Cn1  v112
 BYTE   W12
// 015   ----------------------------------------
 BYTE   Cn1  v120
 BYTE   W12
 BYTE   Cn1  v116
 BYTE   W12
 BYTE   N17  Dn1  v127
 BYTE   W18
 BYTE   N11  Dn1  v120
 BYTE   W12
 BYTE   Dn1  v127
 BYTE   W12
 BYTE   N05  Dn1  v116
 BYTE   W06
 BYTE   N11  Dn1  v112
 BYTE   W12
 BYTE   Dn1  v124
 BYTE   W12
// 016   ----------------------------------------
 BYTE   N17  Ds2  v127
 BYTE   W18
 BYTE   Ds2  v060
 BYTE   W18
 BYTE   Ds2  v116
 BYTE   W18
 BYTE   N11  Ds2  v124
 BYTE   W12
 BYTE   Ds2  v108
 BYTE   W12
 BYTE   Ds2  v100
 BYTE   W12
 BYTE   N17  Ds2  v127
 BYTE   W18
// 017   ----------------------------------------
 BYTE   N20  Ds2  v096
 BYTE   W24
 BYTE   N21  Ds2  v127
 BYTE   W24
 BYTE   Ds2  v108
 BYTE   W24
 BYTE   N11  Ds2  v120
 BYTE   W12
 BYTE   N20  Ds2  v127
 BYTE   W36
// 018   ----------------------------------------
 BYTE   N21
 BYTE   W24
 BYTE   N11
 BYTE   W12
 BYTE   N21
 BYTE   W24
 BYTE   N11
 BYTE   W12
 BYTE   N21
 BYTE   W24
// 019   ----------------------------------------
 BYTE   N22
 BYTE   W24
 BYTE   Ds2
 BYTE   W24
 BYTE   N11
 BYTE   W12
 BYTE   Ds2
 BYTE   W12
 BYTE   N21  Ds2  v112
 BYTE   W24
// 020   ----------------------------------------
 BYTE   Ds2  v127
 BYTE   W24
 BYTE   Ds2
 BYTE   W24
 BYTE   N11  Ds2  v112
 BYTE   W12
 BYTE   Ds2  v127
 BYTE   W12
 BYTE   N21  Ds2  v108
 BYTE   W24
// 021   ----------------------------------------
 BYTE   Ds2  v127
 BYTE   W24
 BYTE   Ds2
 BYTE   W24
 BYTE   N11
 BYTE   W12
 BYTE   Ds2
 BYTE   W12
 BYTE   N21  Ds2  v116
 BYTE   W24
// 022   ----------------------------------------
 BYTE   N22  Ds2  v127
 BYTE   W10
 BYTE   W14
 BYTE   N21  Ds2  v124
 BYTE   W24
 BYTE   Ds2  v112
 BYTE   W24
 BYTE   N22  Ds2  v127
 BYTE   W24
// 023   ----------------------------------------
 BYTE   N11  Ds2  v108
 BYTE   W12
 BYTE   Cn2  v127
 BYTE   W12
 BYTE   Cn2
 BYTE   W12
 BYTE   An1  v120
 BYTE   W12
 BYTE   An1  v116
 BYTE   W12
 BYTE   N22  Ds2  v127
 BYTE   W36
// 024   ----------------------------------------
 BYTE   Ds2  v112
 BYTE   W24
 BYTE   N11  Ds2  v100
 BYTE   W12
 BYTE   N21  Ds2  v120
 BYTE   W24
 BYTE   N11  Ds2  v127
 BYTE   W12
 BYTE   N21  Ds2  v104
 BYTE   W24
// 025   ----------------------------------------
 BYTE   N22  Ds2  v127
 BYTE   W24
 BYTE   Ds2
 BYTE   W24
 BYTE   N11  Ds2  v120
 BYTE   W12
 BYTE   Ds2  v127
 BYTE   W12
 BYTE   N21
 BYTE   W24
// 026   ----------------------------------------
 BYTE   N22
 BYTE   W24
 BYTE   Ds2
 BYTE   W24
 BYTE   N11  Ds2  v104
 BYTE   W12
 BYTE   Ds2  v120
 BYTE   W12
 BYTE   N22  Ds2  v112
 BYTE   W24
// 027   ----------------------------------------
 BYTE   N21  Ds2  v127
 BYTE   W24
 BYTE   N22
 BYTE   W24
 BYTE   N11  Ds2  v124
 BYTE   W12
 BYTE   N21  Ds2  v127
 BYTE   W36
// 028   ----------------------------------------
 BYTE   N22
 BYTE   W24
 BYTE   N11  Ds2  v096
 BYTE   W12
 BYTE   N22  Ds2  v108
 BYTE   W24
 BYTE   N05  Cn2  v127
 BYTE   W06
 BYTE   N11  Cn2  v044
 BYTE   W12
 BYTE   N05  Cn2  v100
 BYTE   W06
 BYTE   N11  Cn2  v116
 BYTE   W12
// 029   ----------------------------------------
 BYTE   N05  An1  v108
 BYTE   W06
 BYTE   N11  An1  v104
 BYTE   W12
 BYTE   N05
 BYTE   W06
 BYTE   N11  An1  v116
 BYTE   W12
 BYTE   Ds2  v127
 BYTE   W12
 BYTE   Ds2
 BYTE   W06
 BYTE   W02
 BYTE   W03
 BYTE   W01
 BYTE   GoTo
  POIN2 Label_7_0101D67C
 BYTE   FINE

//******************************************************//
	ALIGN 4

FE07EverythingIntotheDarkRSflame:
	BYTE	8	// NumTrks
	BYTE	0	// NumBlks
	BYTE	FE07EverythingIntotheDarkRSflame_pri	// Priority
	BYTE	FE07EverythingIntotheDarkRSflame_rev	// Reverb.
    
	POIN2	FE07EverythingIntotheDarkRSflame_grp
    
	POIN2	FE07EverythingIntotheDarkRSflame_001
	POIN2	FE07EverythingIntotheDarkRSflame_002
	POIN2	FE07EverythingIntotheDarkRSflame_003
	POIN2	FE07EverythingIntotheDarkRSflame_004
	POIN2	FE07EverythingIntotheDarkRSflame_005
	POIN2	FE07EverythingIntotheDarkRSflame_006
	POIN2	FE07EverythingIntotheDarkRSflame_007
	POIN2	FE07EverythingIntotheDarkRSflame_008

	
