//Event file generated from Sappy .s format.
	#include "MPlayDef.event"

	#define	FE07CampaignofFireAlice_grp  voicegroup000
	#define	FE07CampaignofFireAlice_pri  10
	#define	FE07CampaignofFireAlice_rev  128
	#define	FE07CampaignofFireAlice_mvl  127
	#define	FE07CampaignofFireAlice_key  0
	#define	FE07CampaignofFireAlice_tbs  1
	#define	FE07CampaignofFireAlice_exg  0
	#define	FE07CampaignofFireAlice_cmp  1

	// .rodata
	//	FE07CampaignofFireAlice
	ALIGN 4


//**************** Track 1 (Midi-Chn.0) ****************//

FE07CampaignofFireAlice_001:
//  #01 //000   ----------------------------------------
 BYTE   KEYSH   FE07CampaignofFireAlice_key+0
 BYTE   TEMPO   182*FE07CampaignofFireAlice_tbs/2
 BYTE   VOICE   127
 BYTE   VOL   35*FE07CampaignofFireAlice_mvl/mxv
 BYTE   N44  Cs2  v127
 BYTE   W96
//  #01 //001   ----------------------------------------
 BYTE   W96
//  #01 //002   ----------------------------------------
 BYTE   W96
//  #01 //003   ----------------------------------------
 BYTE   W96
//  #01 //004   ----------------------------------------
 BYTE   W96
//  #01 //005   ----------------------------------------
 BYTE   W96
//  #01 //006   ----------------------------------------
 BYTE   W96
//  #01 //007   ----------------------------------------
 BYTE   W96
//  #01 //008   ----------------------------------------
Label_01023B43:
 BYTE   N23  Cs2  v100
 BYTE   W24
 BYTE   N14  Ds2  v088
 BYTE   W24
 BYTE   N11
 BYTE   W12
 BYTE   N14  Ds2  v072
 BYTE   W24
 BYTE   N11  Ds2  v088
 BYTE   W12
//  #01 //009   ----------------------------------------
Label_01023B55:
 BYTE   N15  Ds2  v088
 BYTE   W24
 BYTE   N11
 BYTE   W12
 BYTE   N14
 BYTE   W24
 BYTE   N14
 BYTE   W24
 BYTE   N14
 BYTE   W12
 BYTE   PEND 
//  #01 //010   ----------------------------------------
Label_01023B62:
 BYTE   W12
 BYTE   N11  Ds2  v088
 BYTE   W12
 BYTE   N14
 BYTE   W24
 BYTE   N11  Ds2  v080
 BYTE   W12
 BYTE   N15  Ds2  v088
 BYTE   W24
 BYTE   N11  Ds2  v076
 BYTE   W12
 BYTE   PEND 
//  #01 //011   ----------------------------------------
Label_01023B76:
 BYTE   N14  Ds2  v052
 BYTE   W24
 BYTE   N11  Ds2  v088
 BYTE   W12
 BYTE   N15
 BYTE   W24
 BYTE   N11
 BYTE   W12
 BYTE   Ds2  v064
 BYTE   W12
 BYTE   N15  Ds2  v088
 BYTE   W12
 BYTE   PEND 
//  #01 //012   ----------------------------------------
Label_01023B8A:
 BYTE   W12
 BYTE   N11  Ds2  v072
 BYTE   W12
 BYTE   N15  Ds2  v064
 BYTE   W24
 BYTE   N11  Ds2  v052
 BYTE   W12
 BYTE   N15  Ds2  v076
 BYTE   W24
 BYTE   Ds2  v072
 BYTE   W12
 BYTE   PEND 
//  #01 //013   ----------------------------------------
Label_01023B9F:
 BYTE   W12
 BYTE   N11  Ds2  v052
 BYTE   W12
 BYTE   N15  Ds2  v072
 BYTE   W36
 BYTE   Ds2  v084
 BYTE   W24
 BYTE   Ds2  v080
 BYTE   W12
 BYTE   PEND 
//  #01 //014   ----------------------------------------
Label_01023BAF:
 BYTE   W12
 BYTE   N11  Ds2  v080
 BYTE   W12
 BYTE   N15  Ds2  v088
 BYTE   W36
 BYTE   N11  Ds2  v068
 BYTE   W12
 BYTE   N14  Ds2  v080
 BYTE   W24
 BYTE   PEND 
//  #01 //015   ----------------------------------------
Label_01023BC1:
 BYTE   W12
 BYTE   N11  Ds2  v072
 BYTE   W12
 BYTE   N15  Ds2  v088
 BYTE   W36
 BYTE   N11  Ds2  v080
 BYTE   W12
 BYTE   Ds2  v076
 BYTE   W12
 BYTE   N14  Ds2  v088
 BYTE   W12
 BYTE   PEND 
//  #01 //016   ----------------------------------------
Label_01023BD6:
 BYTE   W12
 BYTE   N11  Ds2  v076
 BYTE   W12
 BYTE   N14  Ds2  v088
 BYTE   W24
 BYTE   N11
 BYTE   W12
 BYTE   N14  Ds2  v072
 BYTE   W24
 BYTE   N11  Ds2  v088
 BYTE   W12
 BYTE   PEND 
//  #01 //017   ----------------------------------------
 BYTE   PATT
  POIN2 Label_01023B55
//  #01 //018   ----------------------------------------
 BYTE   PATT
  POIN2 Label_01023B62
//  #01 //019   ----------------------------------------
 BYTE   PATT
  POIN2 Label_01023B76
//  #01 //020   ----------------------------------------
 BYTE   W12
 BYTE   N11  Ds2  v084
 BYTE   W12
 BYTE   N14  Ds2  v088
 BYTE   W36
 BYTE   N15
 BYTE   W24
 BYTE   N11  Ds2  v084
 BYTE   W12
//  #01 //021   ----------------------------------------
 BYTE   N15  Ds2  v088
 BYTE   W24
 BYTE   N11
 BYTE   W12
 BYTE   N15
 BYTE   W24
 BYTE   N11
 BYTE   W12
 BYTE   N11
 BYTE   W12
 BYTE   N15
 BYTE   W12
//  #01 //022   ----------------------------------------
 BYTE   W12
 BYTE   N11
 BYTE   W12
 BYTE   N15
 BYTE   W24
 BYTE   N11
 BYTE   W12
 BYTE   N15
 BYTE   W24
 BYTE   N11
 BYTE   W12
//  #01 //023   ----------------------------------------
 BYTE   N14
 BYTE   W24
 BYTE   N11
 BYTE   W12
 BYTE   N15
 BYTE   W24
 BYTE   N11
 BYTE   W12
 BYTE   N11
 BYTE   W12
 BYTE   Ds2  v084
 BYTE   W12
//  #01 //024   ----------------------------------------
 BYTE   PATT
  POIN2 Label_01023B8A
//  #01 //025   ----------------------------------------
 BYTE   PATT
  POIN2 Label_01023B9F
//  #01 //026   ----------------------------------------
 BYTE   PATT
  POIN2 Label_01023BAF
//  #01 //027   ----------------------------------------
 BYTE   PATT
  POIN2 Label_01023BC1
//  #01 //028   ----------------------------------------
 BYTE   PATT
  POIN2 Label_01023BD6
//  #01 //029   ----------------------------------------
 BYTE   PATT
  POIN2 Label_01023B55
//  #01 //030   ----------------------------------------
 BYTE   PATT
  POIN2 Label_01023B62
//  #01 //031   ----------------------------------------
 BYTE   GoTo
  POIN2 Label_01023B43
 BYTE   FINE

//**************** Track 2 (Midi-Chn.1) ****************//

FE07CampaignofFireAlice_002:
//  #02 //000   ----------------------------------------
 BYTE   KEYSH   FE07CampaignofFireAlice_key+0
 BYTE   W96
//  #02 //001   ----------------------------------------
 BYTE   W96
//  #02 //002   ----------------------------------------
 BYTE   W96
//  #02 //003   ----------------------------------------
 BYTE   W96
//  #02 //004   ----------------------------------------
 BYTE   W96
//  #02 //005   ----------------------------------------
 BYTE   W96
//  #02 //006   ----------------------------------------
 BYTE   W96
//  #02 //007   ----------------------------------------
 BYTE   W96
//  #02 //008   ----------------------------------------
Label_01020A9A:
 BYTE   VOICE   34
 BYTE   VOL   49*FE07CampaignofFireAlice_mvl/mxv
 BYTE   PAN   c_v+0
 BYTE   N18  An1  v096
 BYTE   W24
 BYTE   N18
 BYTE   W48
 BYTE   N12
 BYTE   W24
//  #02 //009   ----------------------------------------
 BYTE   N08
 BYTE   W24
 BYTE   N18
 BYTE   W36
 BYTE   N08
 BYTE   W12
 BYTE   N11
 BYTE   W24
//  #02 //010   ----------------------------------------
 BYTE   N07
 BYTE   W12
 BYTE   N11
 BYTE   W12
 BYTE   N18  An2
 BYTE   W36
 BYTE   N07  An1
 BYTE   W12
 BYTE   N11
 BYTE   W12
 BYTE   An2
 BYTE   W12
//  #02 //011   ----------------------------------------
 BYTE   N08  An1
 BYTE   W12
 BYTE   N11
 BYTE   W12
 BYTE   N18  An2
 BYTE   W36
 BYTE   N06  An1
 BYTE   W12
 BYTE   N12
 BYTE   W24
//  #02 //012   ----------------------------------------
 BYTE   VOICE   33
 BYTE   N92  An2  v100
 BYTE   W96
//  #02 //013   ----------------------------------------
 BYTE   Fn2
 BYTE   W96
//  #02 //014   ----------------------------------------
 BYTE   An2  v104
 BYTE   W96
//  #02 //015   ----------------------------------------
 BYTE   Fn2  v100
 BYTE   W96
//  #02 //016   ----------------------------------------
 BYTE   Dn2  v092
 BYTE   W96
//  #02 //017   ----------------------------------------
 BYTE   As2  v100
 BYTE   W96
//  #02 //018   ----------------------------------------
 BYTE   Bn2  v092
 BYTE   W96
//  #02 //019   ----------------------------------------
 BYTE   Cn3
 BYTE   W96
//  #02 //020   ----------------------------------------
 BYTE   N92
 BYTE   W96
//  #02 //021   ----------------------------------------
 BYTE   N92
 BYTE   W96
//  #02 //022   ----------------------------------------
 BYTE   N90  Gn2
 BYTE   W96
//  #02 //023   ----------------------------------------
 BYTE   TIE  Gs2  v112
 BYTE   W96
//  #02 //024   ----------------------------------------
 BYTE   W92
 BYTE   W03
 BYTE   EOT
 BYTE   W01
//  #02 //025   ----------------------------------------
 BYTE   TIE  Gn2  v104
 BYTE   W96
//  #02 //026   ----------------------------------------
 BYTE   W76
 BYTE   W01
 BYTE   EOT
 BYTE   W07
 BYTE   N11  Gn3  v108
 BYTE   W12
//  #02 //027   ----------------------------------------
 BYTE   VOICE   34
 BYTE   N07  An1  v096
 BYTE   W12
 BYTE   N11
 BYTE   W12
 BYTE   N32  An2
 BYTE   W36
 BYTE   N06  An1
 BYTE   W12
 BYTE   N11
 BYTE   W12
 BYTE   An2
 BYTE   W12
//  #02 //028   ----------------------------------------
Label_01020B11:
 BYTE   N06  An1  v096
 BYTE   W12
 BYTE   N11
 BYTE   W12
 BYTE   N32  An2
 BYTE   W36
 BYTE   N06  An1
 BYTE   W12
 BYTE   N11
 BYTE   W12
 BYTE   An2
 BYTE   W12
 BYTE   PEND 
//  #02 //029   ----------------------------------------
 BYTE   PATT
  POIN2 Label_01020B11
//  #02 //030   ----------------------------------------
 BYTE   N06  An1  v096
 BYTE   W12
 BYTE   N11
 BYTE   W12
 BYTE   N32  An2
 BYTE   W36
 BYTE   N07  An1
 BYTE   W12
 BYTE   N11
 BYTE   W12
 BYTE   N10  An2
 BYTE   W12
//  #02 //031   ----------------------------------------
 BYTE   GoTo
  POIN2 Label_01020A9A
 BYTE   FINE

//**************** Track 3 (Midi-Chn.2) ****************//

FE07CampaignofFireAlice_003:
//  #03 //000   ----------------------------------------
 BYTE   KEYSH   FE07CampaignofFireAlice_key+0
 BYTE   VOICE   47
 BYTE   VOL   37*FE07CampaignofFireAlice_mvl/mxv
 BYTE   PAN   c_v-15
 BYTE   TIE  An1  v116
 BYTE   W96
//  #03 //001   ----------------------------------------
 BYTE   W96
//  #03 //002   ----------------------------------------
 BYTE   W92
 BYTE   W03
 BYTE   EOT
 BYTE   W01
//  #03 //003   ----------------------------------------
 BYTE   N21  Gs1
 BYTE   W24
 BYTE   N16  Gn1
 BYTE   W24
 BYTE   N17  Fs1
 BYTE   W24
 BYTE   N19  Fn1
 BYTE   W24
//  #03 //004   ----------------------------------------
 BYTE   N72  En1
 BYTE   W96
//  #03 //005   ----------------------------------------
 BYTE   N76
 BYTE   W96
//  #03 //006   ----------------------------------------
 BYTE   N76
 BYTE   W96
//  #03 //007   ----------------------------------------
 BYTE   N72
 BYTE   W96
//  #03 //008   ----------------------------------------
Label_01020E36:
 BYTE   VOICE   6
 BYTE   VOL   37*FE07CampaignofFireAlice_mvl/mxv
 BYTE   PAN   c_v+14
 BYTE   N11  En3  v080
 BYTE   W12
 BYTE   Fn3
 BYTE   W12
 BYTE   An3
 BYTE   W12
 BYTE   Gn3
 BYTE   W12
 BYTE   Bn3
 BYTE   W12
 BYTE   An3
 BYTE   W12
 BYTE   Cn4
 BYTE   W12
 BYTE   Bn3
 BYTE   W12
//  #03 //009   ----------------------------------------
Label_01020E4E:
 BYTE   N11  An3  v080
 BYTE   W12
 BYTE   Bn3
 BYTE   W12
 BYTE   Gn3
 BYTE   W12
 BYTE   An3
 BYTE   W12
 BYTE   Fn3
 BYTE   W12
 BYTE   Gn3
 BYTE   W12
 BYTE   En3
 BYTE   W12
 BYTE   Fn3
 BYTE   W12
 BYTE   PEND 
//  #03 //010   ----------------------------------------
 BYTE   En3
 BYTE   W12
 BYTE   Fn3
 BYTE   W12
 BYTE   An3
 BYTE   W12
 BYTE   Gn3
 BYTE   W12
 BYTE   Bn3
 BYTE   W12
 BYTE   An3
 BYTE   W12
 BYTE   Cn4
 BYTE   W12
 BYTE   Bn3
 BYTE   W12
//  #03 //011   ----------------------------------------
 BYTE   PATT
  POIN2 Label_01020E4E
//  #03 //012   ----------------------------------------
 BYTE   W96
//  #03 //013   ----------------------------------------
 BYTE   W96
//  #03 //014   ----------------------------------------
 BYTE   W96
//  #03 //015   ----------------------------------------
 BYTE   W96
//  #03 //016   ----------------------------------------
 BYTE   W96
//  #03 //017   ----------------------------------------
 BYTE   W96
//  #03 //018   ----------------------------------------
 BYTE   W96
//  #03 //019   ----------------------------------------
 BYTE   VOICE   100
 BYTE   VOL   37*FE07CampaignofFireAlice_mvl/mxv
 BYTE   PAN   c_v+11
 BYTE   N52  Ds4  v096
 BYTE   W60
 BYTE   N11  Dn4
 BYTE   W12
 BYTE   Ds4
 BYTE   W12
 BYTE   N56  Fn4
 BYTE   W12
//  #03 //020   ----------------------------------------
 BYTE   W48
 BYTE   N44  Ds4
 BYTE   W48
//  #03 //021   ----------------------------------------
 BYTE   N56  Dn4
 BYTE   W60
 BYTE   N11  Cn4
 BYTE   W12
 BYTE   Dn4
 BYTE   W12
 BYTE   N56  Ds4
 BYTE   W12
//  #03 //022   ----------------------------------------
 BYTE   W48
 BYTE   N48  Dn4
 BYTE   W48
//  #03 //023   ----------------------------------------
 BYTE   W96
//  #03 //024   ----------------------------------------
 BYTE   W96
//  #03 //025   ----------------------------------------
 BYTE   W96
//  #03 //026   ----------------------------------------
 BYTE   W72
 BYTE   VOICE   6
 BYTE   VOL   37*FE07CampaignofFireAlice_mvl/mxv
 BYTE   PAN   c_v+14
 BYTE   W24
//  #03 //027   ----------------------------------------
 BYTE   N10  En3  v072
 BYTE   W12
 BYTE   N11  Fn3  v076
 BYTE   W12
 BYTE   N10  An3  v084
 BYTE   W12
 BYTE   N11  Gn3  v072
 BYTE   W12
 BYTE   Bn3  v084
 BYTE   W12
 BYTE   An3  v072
 BYTE   W12
 BYTE   Cn4  v092
 BYTE   W12
 BYTE   N10  Bn3  v096
 BYTE   W12
//  #03 //028   ----------------------------------------
 BYTE   N11  An3  v088
 BYTE   W12
 BYTE   Bn3
 BYTE   W12
 BYTE   Gn3  v072
 BYTE   W12
 BYTE   An3  v084
 BYTE   W12
 BYTE   Fn3  v076
 BYTE   W12
 BYTE   Gn3
 BYTE   W12
 BYTE   En3  v080
 BYTE   W12
 BYTE   Fn3  v064
 BYTE   W12
//  #03 //029   ----------------------------------------
 BYTE   En3  v088
 BYTE   W12
 BYTE   Fn3  v084
 BYTE   W12
 BYTE   An3  v076
 BYTE   W12
 BYTE   Gn3
 BYTE   W12
 BYTE   Bn3  v096
 BYTE   W12
 BYTE   An3  v076
 BYTE   W12
 BYTE   Cn4  v084
 BYTE   W12
 BYTE   Bn3  v088
 BYTE   W12
//  #03 //030   ----------------------------------------
 BYTE   An3  v084
 BYTE   W12
 BYTE   Bn3
 BYTE   W12
 BYTE   Gn3  v080
 BYTE   W12
 BYTE   An3
 BYTE   W12
 BYTE   Fn3  v072
 BYTE   W12
 BYTE   Gn3  v076
 BYTE   W12
 BYTE   En3  v080
 BYTE   W12
 BYTE   N08  Fn3  v076
 BYTE   W12
//  #03 //031   ----------------------------------------
 BYTE   GoTo
  POIN2 Label_01020E36
 BYTE   FINE

//**************** Track 4 (Midi-Chn.3) ****************//

FE07CampaignofFireAlice_004:
//  #04 //000   ----------------------------------------
 BYTE   KEYSH   FE07CampaignofFireAlice_key+0
 BYTE   VOICE   19
 BYTE   VOL   45*FE07CampaignofFireAlice_mvl/mxv
 BYTE   PAN   c_v+9
 BYTE   W48
 BYTE   N30  Gn2  v112
 BYTE   N30  Cn3
 BYTE   N30  En3  v120
 BYTE   W48
//  #04 //001   ----------------------------------------
 BYTE   N24  Cn3
 BYTE   N24  En3
 BYTE   N24  Gn3  v112
 BYTE   W48
 BYTE   TIE  Bn2  v127
 BYTE   TIE  Dn3
 BYTE   TIE  Fs3  v112
 BYTE   W48
//  #04 //002   ----------------------------------------
 BYTE   W92
 BYTE   W03
 BYTE   EOT
 BYTE   Bn2  v062
 BYTE   Fs3
 BYTE   W01
//  #04 //003   ----------------------------------------
 BYTE   N16  Gs1  v104
 BYTE   W24
 BYTE   N15  Gn1
 BYTE   W24
 BYTE   N16  Fs1  v120
 BYTE   W24
 BYTE   N13  Fn1  v104
 BYTE   W24
//  #04 //004   ----------------------------------------
 BYTE   W24
 BYTE   N23  Gn2  v060
 BYTE   N23  Bn2  v080
 BYTE   W24
 BYTE   An2  v064
 BYTE   N23  Cn3  v080
 BYTE   W24
 BYTE   Bn2  v072
 BYTE   N23  Dn3  v088
 BYTE   W24
//  #04 //005   ----------------------------------------
 BYTE   Gn2  v068
 BYTE   N23  Bn2  v084
 BYTE   W24
 BYTE   An2  v076
 BYTE   N23  Cn3  v092
 BYTE   W24
 BYTE   Bn2  v084
 BYTE   N23  Dn3  v100
 BYTE   W24
 BYTE   Gn2  v084
 BYTE   N23  Bn2  v096
 BYTE   N23  Dn3  v108
 BYTE   W24
//  #04 //006   ----------------------------------------
 BYTE   An2  v092
 BYTE   N23  Cn3  v104
 BYTE   N23  En3  v100
 BYTE   W24
 BYTE   Bn2
 BYTE   N23  Dn3  v108
 BYTE   N23  Fn3  v092
 BYTE   W24
 BYTE   Gn2  v096
 BYTE   N23  Bn2  v104
 BYTE   N23  Dn3
 BYTE   W24
 BYTE   An2  v108
 BYTE   N23  Cn3
 BYTE   N23  En3  v100
 BYTE   W24
//  #04 //007   ----------------------------------------
 BYTE   Bn2  v104
 BYTE   N23  Dn3  v127
 BYTE   N23  Fn3  v100
 BYTE   W24
 BYTE   Gn2  v108
 BYTE   N23  Bn2  v120
 BYTE   N23  Gs3  v104
 BYTE   W24
 BYTE   An2  v112
 BYTE   N23  Cn3  v108
 BYTE   N23  An3  v104
 BYTE   W24
 BYTE   Bn2
 BYTE   N23  Dn3  v127
 BYTE   N23  Bn3  v100
 BYTE   W24
//  #04 //008   ----------------------------------------
Label_01020758:
 BYTE   VOICE   6
 BYTE   VOL   41*FE07CampaignofFireAlice_mvl/mxv
 BYTE   PAN   c_v-17
 BYTE   N11  An1  v088
 BYTE   W12
 BYTE   An2
 BYTE   W12
 BYTE   En2
 BYTE   W12
 BYTE   An1
 BYTE   W12
 BYTE   An2
 BYTE   W12
 BYTE   En2
 BYTE   W12
 BYTE   An1
 BYTE   W12
 BYTE   An2
 BYTE   W12
//  #04 //009   ----------------------------------------
Label_01020770:
 BYTE   N11  En2  v088
 BYTE   W12
 BYTE   An1
 BYTE   W12
 BYTE   An2
 BYTE   W12
 BYTE   En2
 BYTE   W12
 BYTE   An1
 BYTE   W12
 BYTE   An2
 BYTE   W12
 BYTE   Dn2
 BYTE   W12
 BYTE   En2
 BYTE   W12
 BYTE   PEND 
//  #04 //010   ----------------------------------------
Label_01020783:
 BYTE   N11  An1  v088
 BYTE   W12
 BYTE   An2
 BYTE   W12
 BYTE   En2
 BYTE   W12
 BYTE   An1
 BYTE   W12
 BYTE   An2
 BYTE   W12
 BYTE   En2
 BYTE   W12
 BYTE   An1
 BYTE   W12
 BYTE   An2
 BYTE   W12
 BYTE   PEND 
//  #04 //011   ----------------------------------------
 BYTE   PATT
  POIN2 Label_01020770
//  #04 //012   ----------------------------------------
Label_0102079B:
 BYTE   N11  An1  v088
 BYTE   W12
 BYTE   An2
 BYTE   W12
 BYTE   En2
 BYTE   W12
 BYTE   An1
 BYTE   W12
 BYTE   An2
 BYTE   W12
 BYTE   En2
 BYTE   W12
 BYTE   An1
 BYTE   W12
 BYTE   An2
 BYTE   W12
 BYTE   PEND 
//  #04 //013   ----------------------------------------
 BYTE   PATT
  POIN2 Label_01020770
//  #04 //014   ----------------------------------------
 BYTE   PATT
  POIN2 Label_01020783
//  #04 //015   ----------------------------------------
 BYTE   PATT
  POIN2 Label_01020770
//  #04 //016   ----------------------------------------
 BYTE   PATT
  POIN2 Label_0102079B
//  #04 //017   ----------------------------------------
 BYTE   PATT
  POIN2 Label_01020770
//  #04 //018   ----------------------------------------
 BYTE   PATT
  POIN2 Label_01020783
//  #04 //019   ----------------------------------------
 BYTE   W96
//  #04 //020   ----------------------------------------
 BYTE   W96
//  #04 //021   ----------------------------------------
 BYTE   W96
//  #04 //022   ----------------------------------------
 BYTE   W96
//  #04 //023   ----------------------------------------
 BYTE   W96
//  #04 //024   ----------------------------------------
 BYTE   W96
//  #04 //025   ----------------------------------------
 BYTE   W96
//  #04 //026   ----------------------------------------
 BYTE   W72
 BYTE   VOICE   6
 BYTE   VOL   46*FE07CampaignofFireAlice_mvl/mxv
 BYTE   PAN   c_v-17
 BYTE   W24
//  #04 //027   ----------------------------------------
 BYTE   N11  An1  v092
 BYTE   W12
 BYTE   An2  v080
 BYTE   W12
 BYTE   En2  v100
 BYTE   W12
 BYTE   An1  v080
 BYTE   W12
 BYTE   An2
 BYTE   W12
 BYTE   En2  v092
 BYTE   W12
 BYTE   An1  v080
 BYTE   W12
 BYTE   An2
 BYTE   W12
//  #04 //028   ----------------------------------------
 BYTE   En2  v092
 BYTE   W12
 BYTE   An1  v080
 BYTE   W12
 BYTE   An2
 BYTE   W12
 BYTE   En2  v096
 BYTE   W12
 BYTE   An1  v080
 BYTE   W12
 BYTE   An2
 BYTE   W12
 BYTE   Dn2  v084
 BYTE   W12
 BYTE   En2  v088
 BYTE   W12
//  #04 //029   ----------------------------------------
 BYTE   An1  v092
 BYTE   W12
 BYTE   An2  v088
 BYTE   W12
 BYTE   En2  v100
 BYTE   W12
 BYTE   An1  v080
 BYTE   W12
 BYTE   An2  v084
 BYTE   W12
 BYTE   En2  v100
 BYTE   W12
 BYTE   An1  v080
 BYTE   W12
 BYTE   An2
 BYTE   W12
//  #04 //030   ----------------------------------------
 BYTE   En2  v096
 BYTE   W12
 BYTE   An1  v080
 BYTE   W12
 BYTE   An2  v084
 BYTE   W12
 BYTE   En2  v096
 BYTE   W12
 BYTE   An1  v080
 BYTE   W12
 BYTE   An2
 BYTE   W12
 BYTE   Dn2
 BYTE   W12
 BYTE   En2  v100
 BYTE   W12
//  #04 //031   ----------------------------------------
 BYTE   GoTo
  POIN2 Label_01020758
 BYTE   FINE

//**************** Track 5 (Midi-Chn.4) ****************//

FE07CampaignofFireAlice_005:
//  #05 //000   ----------------------------------------
 BYTE   KEYSH   FE07CampaignofFireAlice_key+0
 BYTE   VOICE   48
 BYTE   VOL   47*FE07CampaignofFireAlice_mvl/mxv
 BYTE   PAN   c_v-13
 BYTE   W48
 BYTE   N21  En3  v120
 BYTE   W24
 BYTE   En3  v028
 BYTE   W24
//  #05 //001   ----------------------------------------
 BYTE   N19  Gn3  v112
 BYTE   W24
 BYTE   N21  Gn3  v028
 BYTE   W24
 BYTE   TIE  Fs3  v116
 BYTE   W48
//  #05 //002   ----------------------------------------
 BYTE   W92
 BYTE   W02
 BYTE   EOT
 BYTE   W02
//  #05 //003   ----------------------------------------
 BYTE   N21  Fs3  v028
 BYTE   W96
//  #05 //004   ----------------------------------------
 BYTE   W96
//  #05 //005   ----------------------------------------
 BYTE   W96
//  #05 //006   ----------------------------------------
 BYTE   W96
//  #05 //007   ----------------------------------------
 BYTE   W96
//  #05 //008   ----------------------------------------
Label_01023550:
 BYTE   W96
//  #05 //009   ----------------------------------------
 BYTE   W96
//  #05 //010   ----------------------------------------
 BYTE   W96
//  #05 //011   ----------------------------------------
 BYTE   W96
//  #05 //012   ----------------------------------------
 BYTE   VOICE   48
 BYTE   VOL   31*FE07CampaignofFireAlice_mvl/mxv
 BYTE   PAN   c_v+0
 BYTE   N92  En3  v092
 BYTE   N92  Cn4  v100
 BYTE   W96
//  #05 //013   ----------------------------------------
 BYTE   N88  Cn3  v092
 BYTE   N90  Gs3  v100
 BYTE   W96
//  #05 //014   ----------------------------------------
 BYTE   N92  En3  v092
 BYTE   N92  Cn4  v100
 BYTE   W96
//  #05 //015   ----------------------------------------
 BYTE   Cn3  v092
 BYTE   N92  Gs3  v100
 BYTE   W96
//  #05 //016   ----------------------------------------
 BYTE   An2  v092
 BYTE   N92  Fn3  v100
 BYTE   W96
//  #05 //017   ----------------------------------------
 BYTE   Fn2  v092
 BYTE   N92  Cs3  v100
 BYTE   W96
//  #05 //018   ----------------------------------------
 BYTE   Fs2  v092
 BYTE   N92  Dn3  v100
 BYTE   W96
//  #05 //019   ----------------------------------------
 BYTE   Gn2  v072
 BYTE   N92  Ds3  v076
 BYTE   W96
//  #05 //020   ----------------------------------------
 BYTE   Gs2
 BYTE   N92  Ds3  v080
 BYTE   W96
//  #05 //021   ----------------------------------------
 BYTE   Gs2  v068
 BYTE   N92  Dn3  v076
 BYTE   W96
//  #05 //022   ----------------------------------------
 BYTE   Fn2  v080
 BYTE   N44  Dn3  v072
 BYTE   W48
 BYTE   Bn2  v076
 BYTE   W48
//  #05 //023   ----------------------------------------
 BYTE   VOICE   48
 BYTE   VOL   34*FE07CampaignofFireAlice_mvl/mxv
 BYTE   PAN   c_v+8
 BYTE   W24
 BYTE   N05  Ds2  v104
 BYTE   W06
 BYTE   Gs2  v080
 BYTE   W06
 BYTE   Ds2
 BYTE   W06
 BYTE   Gs2  v088
 BYTE   W06
 BYTE   Cn3  v104
 BYTE   W06
 BYTE   Ds2  v092
 BYTE   W06
 BYTE   Gs2  v080
 BYTE   W06
 BYTE   Cn3  v092
 BYTE   W06
 BYTE   Ds3  v076
 BYTE   W06
 BYTE   Gs2  v072
 BYTE   W06
 BYTE   Cn3  v104
 BYTE   W06
 BYTE   Ds3  v092
 BYTE   W06
//  #05 //024   ----------------------------------------
 BYTE   Gs3  v100
 BYTE   W06
 BYTE   Ds3  v056
 BYTE   W06
 BYTE   Gs3  v060
 BYTE   W06
 BYTE   Ds3  v080
 BYTE   W06
 BYTE   Cn4  v116
 BYTE   W06
 BYTE   Ds3  v080
 BYTE   W06
 BYTE   Gs3
 BYTE   W06
 BYTE   Cn4  v096
 BYTE   W06
 BYTE   Ds4  v092
 BYTE   W06
 BYTE   Gs3  v072
 BYTE   W06
 BYTE   Cn4  v076
 BYTE   W06
 BYTE   Ds4  v088
 BYTE   W06
 BYTE   Gs4  v096
 BYTE   W06
 BYTE   Cn4  v092
 BYTE   W06
 BYTE   Ds4
 BYTE   W06
 BYTE   Gs4  v096
 BYTE   W06
//  #05 //025   ----------------------------------------
 BYTE   W24
 BYTE   Cn2  v112
 BYTE   W06
 BYTE   Dn2  v100
 BYTE   W06
 BYTE   Cn2  v092
 BYTE   W06
 BYTE   Dn2  v100
 BYTE   W06
 BYTE   Gn2  v104
 BYTE   W06
 BYTE   Cn2  v096
 BYTE   W06
 BYTE   Dn2
 BYTE   W06
 BYTE   Gn2
 BYTE   W06
 BYTE   Cn3  v104
 BYTE   W06
 BYTE   Dn2
 BYTE   W06
 BYTE   Gn2  v100
 BYTE   W06
 BYTE   Cn3  v080
 BYTE   W06
//  #05 //026   ----------------------------------------
 BYTE   Dn3  v072
 BYTE   W06
 BYTE   Fn2  v080
 BYTE   W06
 BYTE   Gn2  v100
 BYTE   W06
 BYTE   Dn3  v112
 BYTE   W06
 BYTE   Gn2  v092
 BYTE   W06
 BYTE   Dn3  v100
 BYTE   W06
 BYTE   Fn3  v084
 BYTE   W06
 BYTE   Dn3  v100
 BYTE   W06
 BYTE   Gn3  v088
 BYTE   W06
 BYTE   Dn3
 BYTE   W06
 BYTE   Fn3
 BYTE   W06
 BYTE   Gn3  v100
 BYTE   W06
 BYTE   Bn3  v116
 BYTE   W06
 BYTE   Fn3  v088
 BYTE   W06
 BYTE   Gn3  v092
 BYTE   W06
 BYTE   Dn4  v116
 BYTE   W06
//  #05 //027   ----------------------------------------
 BYTE   W96
//  #05 //028   ----------------------------------------
 BYTE   W96
//  #05 //029   ----------------------------------------
 BYTE   W72
 BYTE   VOICE   48
 BYTE   VOL   34*FE07CampaignofFireAlice_mvl/mxv
 BYTE   PAN   c_v+0
 BYTE   W24
//  #05 //030   ----------------------------------------
 BYTE   W96
//  #05 //031   ----------------------------------------
 BYTE   GoTo
  POIN2 Label_01023550
 BYTE   FINE

//**************** Track 6 (Midi-Chn.5) ****************//

FE07CampaignofFireAlice_006:
//  #06 //000   ----------------------------------------
 BYTE   KEYSH   FE07CampaignofFireAlice_key+0
 BYTE   W96
//  #06 //001   ----------------------------------------
 BYTE   W96
//  #06 //002   ----------------------------------------
 BYTE   W72
 BYTE   VOICE   48
 BYTE   VOL   39*FE07CampaignofFireAlice_mvl/mxv
 BYTE   PAN   c_v+0
 BYTE   W24
//  #06 //003   ----------------------------------------
 BYTE   W24
 BYTE   N07  An3  v112
 BYTE   N08  Bn3  v124
 BYTE   N09  En4  v120
 BYTE   W12
 BYTE   N07  An3  v032
 BYTE   N08  Bn3
 BYTE   N09  En4  v028
 BYTE   W36
 BYTE   N05  An3  v112
 BYTE   N06  Bn3  v124
 BYTE   N08  En4  v120
 BYTE   W12
 BYTE   N07  An3  v032
 BYTE   N08  Bn3
 BYTE   N09  En4  v028
 BYTE   W12
//  #06 //004   ----------------------------------------
 BYTE   W96
//  #06 //005   ----------------------------------------
 BYTE   W84
 BYTE   W01
 BYTE   VOL   42*FE07CampaignofFireAlice_mvl/mxv
 BYTE   W01
 BYTE   VOL   39*FE07CampaignofFireAlice_mvl/mxv
 BYTE   W01
 BYTE   VOL   34*FE07CampaignofFireAlice_mvl/mxv
 BYTE   W01
 BYTE   VOL   29*FE07CampaignofFireAlice_mvl/mxv
 BYTE   W01
 BYTE   VOL   25*FE07CampaignofFireAlice_mvl/mxv
 BYTE   W01
 BYTE   VOL   21*FE07CampaignofFireAlice_mvl/mxv
 BYTE   W01
 BYTE   VOL   16*FE07CampaignofFireAlice_mvl/mxv
 BYTE   W01
 BYTE   VOL   15*FE07CampaignofFireAlice_mvl/mxv
 BYTE   W03
 BYTE   VOL   16*FE07CampaignofFireAlice_mvl/mxv
 BYTE   W01
//  #06 //006   ----------------------------------------
 BYTE   TIE  An3  v096
 BYTE   TIE  Bn3  v100
 BYTE   TIE  En4
 BYTE   W01
 BYTE   VOL   16*FE07CampaignofFireAlice_mvl/mxv
 BYTE   W02
 BYTE   VOL   16*FE07CampaignofFireAlice_mvl/mxv
 BYTE   W02
 BYTE   VOL   17*FE07CampaignofFireAlice_mvl/mxv
 BYTE   W02
 BYTE   VOL   17*FE07CampaignofFireAlice_mvl/mxv
 BYTE   W02
 BYTE   VOL   18*FE07CampaignofFireAlice_mvl/mxv
 BYTE   W02
 BYTE   VOL   18*FE07CampaignofFireAlice_mvl/mxv
 BYTE   W02
 BYTE   VOL   18*FE07CampaignofFireAlice_mvl/mxv
 BYTE   W02
 BYTE   VOL   19*FE07CampaignofFireAlice_mvl/mxv
 BYTE   W02
 BYTE   VOL   19*FE07CampaignofFireAlice_mvl/mxv
 BYTE   W02
 BYTE   VOL   20*FE07CampaignofFireAlice_mvl/mxv
 BYTE   W02
 BYTE   VOL   20*FE07CampaignofFireAlice_mvl/mxv
 BYTE   W01
 BYTE   VOL   20*FE07CampaignofFireAlice_mvl/mxv
 BYTE   W02
 BYTE   VOL   21*FE07CampaignofFireAlice_mvl/mxv
 BYTE   W02
 BYTE   VOL   21*FE07CampaignofFireAlice_mvl/mxv
 BYTE   W02
 BYTE   VOL   22*FE07CampaignofFireAlice_mvl/mxv
 BYTE   W02
 BYTE   VOL   22*FE07CampaignofFireAlice_mvl/mxv
 BYTE   W02
 BYTE   VOL   22*FE07CampaignofFireAlice_mvl/mxv
 BYTE   W02
 BYTE   VOL   23*FE07CampaignofFireAlice_mvl/mxv
 BYTE   W02
 BYTE   VOL   23*FE07CampaignofFireAlice_mvl/mxv
 BYTE   W02
 BYTE   VOL   24*FE07CampaignofFireAlice_mvl/mxv
 BYTE   W02
 BYTE   VOL   24*FE07CampaignofFireAlice_mvl/mxv
 BYTE   W02
 BYTE   VOL   24*FE07CampaignofFireAlice_mvl/mxv
 BYTE   W02
 BYTE   VOL   25*FE07CampaignofFireAlice_mvl/mxv
 BYTE   W02
 BYTE   VOL   25*FE07CampaignofFireAlice_mvl/mxv
 BYTE   W01
 BYTE   VOL   25*FE07CampaignofFireAlice_mvl/mxv
 BYTE   W02
 BYTE   VOL   26*FE07CampaignofFireAlice_mvl/mxv
 BYTE   W02
 BYTE   VOL   26*FE07CampaignofFireAlice_mvl/mxv
 BYTE   W02
 BYTE   VOL   27*FE07CampaignofFireAlice_mvl/mxv
 BYTE   W02
 BYTE   VOL   27*FE07CampaignofFireAlice_mvl/mxv
 BYTE   W02
 BYTE   VOL   27*FE07CampaignofFireAlice_mvl/mxv
 BYTE   W02
 BYTE   VOL   28*FE07CampaignofFireAlice_mvl/mxv
 BYTE   W02
 BYTE   VOL   28*FE07CampaignofFireAlice_mvl/mxv
 BYTE   W02
 BYTE   VOL   29*FE07CampaignofFireAlice_mvl/mxv
 BYTE   W02
 BYTE   VOL   29*FE07CampaignofFireAlice_mvl/mxv
 BYTE   W02
 BYTE   VOL   29*FE07CampaignofFireAlice_mvl/mxv
 BYTE   W02
 BYTE   VOL   30*FE07CampaignofFireAlice_mvl/mxv
 BYTE   W02
 BYTE   VOL   30*FE07CampaignofFireAlice_mvl/mxv
 BYTE   W02
 BYTE   VOL   31*FE07CampaignofFireAlice_mvl/mxv
 BYTE   W01
 BYTE   VOL   31*FE07CampaignofFireAlice_mvl/mxv
 BYTE   W02
 BYTE   VOL   31*FE07CampaignofFireAlice_mvl/mxv
 BYTE   W02
 BYTE   VOL   32*FE07CampaignofFireAlice_mvl/mxv
 BYTE   W02
 BYTE   VOL   32*FE07CampaignofFireAlice_mvl/mxv
 BYTE   W02
 BYTE   VOL   33*FE07CampaignofFireAlice_mvl/mxv
 BYTE   W02
 BYTE   VOL   33*FE07CampaignofFireAlice_mvl/mxv
 BYTE   W02
 BYTE   VOL   33*FE07CampaignofFireAlice_mvl/mxv
 BYTE   W02
 BYTE   VOL   34*FE07CampaignofFireAlice_mvl/mxv
 BYTE   W02
 BYTE   VOL   34*FE07CampaignofFireAlice_mvl/mxv
 BYTE   W02
 BYTE   VOL   35*FE07CampaignofFireAlice_mvl/mxv
 BYTE   W02
 BYTE   VOL   35*FE07CampaignofFireAlice_mvl/mxv
 BYTE   W02
//  #06 //007   ----------------------------------------
 BYTE   VOL   35*FE07CampaignofFireAlice_mvl/mxv
 BYTE   W02
 BYTE   VOL   36*FE07CampaignofFireAlice_mvl/mxv
 BYTE   W01
 BYTE   VOL   36*FE07CampaignofFireAlice_mvl/mxv
 BYTE   W02
 BYTE   VOL   37*FE07CampaignofFireAlice_mvl/mxv
 BYTE   W02
 BYTE   VOL   37*FE07CampaignofFireAlice_mvl/mxv
 BYTE   W02
 BYTE   VOL   37*FE07CampaignofFireAlice_mvl/mxv
 BYTE   W02
 BYTE   VOL   38*FE07CampaignofFireAlice_mvl/mxv
 BYTE   W02
 BYTE   VOL   38*FE07CampaignofFireAlice_mvl/mxv
 BYTE   W02
 BYTE   VOL   38*FE07CampaignofFireAlice_mvl/mxv
 BYTE   W02
 BYTE   VOL   39*FE07CampaignofFireAlice_mvl/mxv
 BYTE   W02
 BYTE   VOL   39*FE07CampaignofFireAlice_mvl/mxv
 BYTE   W02
 BYTE   VOL   40*FE07CampaignofFireAlice_mvl/mxv
 BYTE   W02
 BYTE   VOL   40*FE07CampaignofFireAlice_mvl/mxv
 BYTE   W02
 BYTE   VOL   40*FE07CampaignofFireAlice_mvl/mxv
 BYTE   W02
 BYTE   VOL   41*FE07CampaignofFireAlice_mvl/mxv
 BYTE   W01
 BYTE   VOL   41*FE07CampaignofFireAlice_mvl/mxv
 BYTE   W02
 BYTE   VOL   42*FE07CampaignofFireAlice_mvl/mxv
 BYTE   W02
 BYTE   VOL   42*FE07CampaignofFireAlice_mvl/mxv
 BYTE   W02
 BYTE   VOL   42*FE07CampaignofFireAlice_mvl/mxv
 BYTE   W02
 BYTE   VOL   43*FE07CampaignofFireAlice_mvl/mxv
 BYTE   W02
 BYTE   VOL   43*FE07CampaignofFireAlice_mvl/mxv
 BYTE   W02
 BYTE   VOL   44*FE07CampaignofFireAlice_mvl/mxv
 BYTE   W02
 BYTE   VOL   44*FE07CampaignofFireAlice_mvl/mxv
 BYTE   W02
 BYTE   VOL   44*FE07CampaignofFireAlice_mvl/mxv
 BYTE   W02
 BYTE   VOL   45*FE07CampaignofFireAlice_mvl/mxv
 BYTE   W02
 BYTE   VOL   45*FE07CampaignofFireAlice_mvl/mxv
 BYTE   W01
 BYTE   VOL   46*FE07CampaignofFireAlice_mvl/mxv
 BYTE   W40
 BYTE   W01
 BYTE   EOT
 BYTE   An3  v071
 BYTE   En4
 BYTE   W06
//  #06 //008   ----------------------------------------
Label_01023930:
 BYTE   N10  An3  v096
 BYTE   N11  Bn3  v100
 BYTE   N11  En4  v096
 BYTE   W12
 BYTE   N07  An3  v032
 BYTE   N08  Bn3
 BYTE   N09  En4  v028
 BYTE   W84
//  #06 //009   ----------------------------------------
 BYTE   W96
//  #06 //010   ----------------------------------------
 BYTE   W96
//  #06 //011   ----------------------------------------
 BYTE   W96
//  #06 //012   ----------------------------------------
 BYTE   W96
//  #06 //013   ----------------------------------------
 BYTE   W96
//  #06 //014   ----------------------------------------
 BYTE   W96
//  #06 //015   ----------------------------------------
 BYTE   W96
//  #06 //016   ----------------------------------------
 BYTE   W96
//  #06 //017   ----------------------------------------
 BYTE   W96
//  #06 //018   ----------------------------------------
 BYTE   W96
//  #06 //019   ----------------------------------------
 BYTE   W96
//  #06 //020   ----------------------------------------
 BYTE   W96
//  #06 //021   ----------------------------------------
 BYTE   W96
//  #06 //022   ----------------------------------------
 BYTE   W72
 BYTE   VOICE   41
 BYTE   VOL   39*FE07CampaignofFireAlice_mvl/mxv
 BYTE   PAN   c_v-3
 BYTE   W24
//  #06 //023   ----------------------------------------
 BYTE   W24
 BYTE   N06  Ds3  v096
 BYTE   W06
 BYTE   Gs3  v080
 BYTE   W06
 BYTE   Ds3
 BYTE   W06
 BYTE   Gs3  v088
 BYTE   W06
 BYTE   Cn4  v096
 BYTE   W06
 BYTE   Ds3  v092
 BYTE   W06
 BYTE   Gs3  v080
 BYTE   W06
 BYTE   Cn4  v092
 BYTE   W06
 BYTE   Ds4  v076
 BYTE   W06
 BYTE   Gs3
 BYTE   W06
 BYTE   Cn4  v096
 BYTE   W06
 BYTE   Ds4  v092
 BYTE   W06
//  #06 //024   ----------------------------------------
 BYTE   Gs4  v096
 BYTE   W06
 BYTE   Ds4  v076
 BYTE   W06
 BYTE   Gs4
 BYTE   W06
 BYTE   Ds4  v080
 BYTE   W06
 BYTE   Cn5  v096
 BYTE   W06
 BYTE   Ds4  v080
 BYTE   W06
 BYTE   Gs4
 BYTE   W06
 BYTE   Cn5  v096
 BYTE   W06
 BYTE   Ds5  v092
 BYTE   W06
 BYTE   Gs4  v076
 BYTE   W06
 BYTE   Cn5
 BYTE   W06
 BYTE   Ds5  v088
 BYTE   W06
 BYTE   Gs5  v096
 BYTE   W06
 BYTE   Cn5  v092
 BYTE   W06
 BYTE   Ds5
 BYTE   W06
 BYTE   N13  Gs5  v096
 BYTE   W06
//  #06 //025   ----------------------------------------
 BYTE   W24
 BYTE   N06  Cn3
 BYTE   W06
 BYTE   Dn3
 BYTE   W06
 BYTE   Cn3  v092
 BYTE   W06
 BYTE   Dn3  v096
 BYTE   W06
 BYTE   Gn3
 BYTE   W06
 BYTE   Cn3
 BYTE   W06
 BYTE   Dn3
 BYTE   W06
 BYTE   Gn3
 BYTE   W06
 BYTE   Cn4
 BYTE   W06
 BYTE   Dn3
 BYTE   W06
 BYTE   Gn3
 BYTE   W06
 BYTE   Cn4  v080
 BYTE   W06
//  #06 //026   ----------------------------------------
 BYTE   Dn4  v076
 BYTE   W06
 BYTE   Fn3  v080
 BYTE   W06
 BYTE   Gn3  v096
 BYTE   W06
 BYTE   Dn4
 BYTE   W06
 BYTE   Gn3  v092
 BYTE   W06
 BYTE   Dn4  v096
 BYTE   W06
 BYTE   Fn4  v084
 BYTE   W06
 BYTE   Dn4  v096
 BYTE   W06
 BYTE   Gn4  v088
 BYTE   W06
 BYTE   Dn4
 BYTE   W06
 BYTE   Fn4
 BYTE   W06
 BYTE   Gn4  v096
 BYTE   W06
 BYTE   VOICE   48
 BYTE   VOL   40*FE07CampaignofFireAlice_mvl/mxv
 BYTE   PAN   c_v-3
 BYTE   N06  Bn4
 BYTE   W06
 BYTE   Fn4  v088
 BYTE   W06
 BYTE   Gn4  v092
 BYTE   W06
 BYTE   Dn5  v096
 BYTE   W06
//  #06 //027   ----------------------------------------
 BYTE   TIE  An2
 BYTE   TIE  En3  v092
 BYTE   W96
//  #06 //028   ----------------------------------------
 BYTE   W96
//  #06 //029   ----------------------------------------
 BYTE   W96
//  #06 //030   ----------------------------------------
 BYTE   W88
 BYTE   W01
 BYTE   EOT
 BYTE   An2  v064
 BYTE   W07
//  #06 //031   ----------------------------------------
 BYTE   GoTo
  POIN2 Label_01023930
 BYTE   FINE

//**************** Track 7 (Midi-Chn.6) ****************//

FE07CampaignofFireAlice_007:
//  #07 //000   ----------------------------------------
 BYTE   KEYSH   FE07CampaignofFireAlice_key+0
 BYTE   VOICE   47
 BYTE   VOL   41*FE07CampaignofFireAlice_mvl/mxv
 BYTE   PAN   c_v+0
 BYTE   N48  Fn2  v127
 BYTE   W96
//  #07 //001   ----------------------------------------
 BYTE   W96
//  #07 //002   ----------------------------------------
 BYTE   N32  Gs2  v124
 BYTE   W48
 BYTE   Fn2  v127
 BYTE   W48
//  #07 //003   ----------------------------------------
 BYTE   N23  Gs2  v112
 BYTE   W24
 BYTE   Fn2  v104
 BYTE   W24
 BYTE   Gs2  v124
 BYTE   W24
 BYTE   N24  Fn2  v127
 BYTE   W24
//  #07 //004   ----------------------------------------
 BYTE   W96
//  #07 //005   ----------------------------------------
 BYTE   W03
 BYTE   N03  Gs2  v040
 BYTE   W04
 BYTE   N06  Fn2  v056
 BYTE   W08
 BYTE   N03  Gs2  v076
 BYTE   W06
 BYTE   N05  Fn2  v036
 BYTE   W08
 BYTE   N06  Fn2  v048
 BYTE   W06
 BYTE   N04  Gs2  v072
 BYTE   W10
 BYTE   N03  Gs2  v068
 BYTE   W04
 BYTE   N05  Fn2  v048
 BYTE   W06
 BYTE   N03  Gs2  v076
 BYTE   W05
 BYTE   N05  Fn2  v048
 BYTE   W05
 BYTE   N04  Gs2  v088
 BYTE   W07
 BYTE   N03  Fn2  v048
 BYTE   W05
 BYTE   Gs2  v084
 BYTE   W05
 BYTE   N04  Fn2  v064
 BYTE   W05
 BYTE   N03  Gs2  v092
 BYTE   W05
 BYTE   N05  Fn2  v076
 BYTE   W04
//  #07 //006   ----------------------------------------
 BYTE   W02
 BYTE   N04  Gs2  v088
 BYTE   W04
 BYTE   N05  Fn2  v092
 BYTE   W06
 BYTE   N02  Gs2  v068
 BYTE   W06
 BYTE   Fn2  v072
 BYTE   W03
 BYTE   N06  Gs2  v092
 BYTE   W09
 BYTE   N05  Fn2  v096
 BYTE   W06
 BYTE   N03  Gs2  v092
 BYTE   W07
 BYTE   N04  Fn2  v084
 BYTE   W05
 BYTE   Gs2  v108
 BYTE   W06
 BYTE   Fn2  v076
 BYTE   W05
 BYTE   N05  Gs2  v112
 BYTE   W07
 BYTE   Fn2  v100
 BYTE   W06
 BYTE   N04  Gs2  v116
 BYTE   W07
 BYTE   Fn2  v104
 BYTE   W06
 BYTE   Gs2  v112
 BYTE   W06
 BYTE   N05  Fn2  v108
 BYTE   W05
//  #07 //007   ----------------------------------------
 BYTE   W01
 BYTE   Gs2  v120
 BYTE   W07
 BYTE   Fn2  v108
 BYTE   W06
 BYTE   Gs2  v116
 BYTE   W07
 BYTE   N06  Fn2  v104
 BYTE   W07
 BYTE   N05  Gs2  v116
 BYTE   W07
 BYTE   N06  Fn2
 BYTE   W06
 BYTE   N05  Gs2
 BYTE   W08
 BYTE   N06  Fn2
 BYTE   W07
 BYTE   Gs2
 BYTE   W07
 BYTE   N05  Fn2
 BYTE   W06
 BYTE   Gs2  v112
 BYTE   W07
 BYTE   N04  Fn2  v116
 BYTE   W05
 BYTE   N07  Gs2  v112
 BYTE   W15
//  #07 //008   ----------------------------------------
Label_01023209:
 BYTE   N24  Fn2  v127
 BYTE   W96
//  #07 //009   ----------------------------------------
 BYTE   VOICE   100
 BYTE   VOL   30*FE07CampaignofFireAlice_mvl/mxv
 BYTE   PAN   c_v+11
 BYTE   N10  En5  v072
 BYTE   W12
 BYTE   N11  En4  v064
 BYTE   W12
 BYTE   En5  v076
 BYTE   W12
 BYTE   N10  En4  v072
 BYTE   W12
 BYTE   N11  En5  v068
 BYTE   W12
 BYTE   N10  En4  v064
 BYTE   W12
 BYTE   N11  En5  v068
 BYTE   W12
 BYTE   En4
 BYTE   W12
//  #07 //010   ----------------------------------------
Label_01023230:
 BYTE   N11  En5  v068
 BYTE   W12
 BYTE   N10  En4  v064
 BYTE   W12
 BYTE   En5  v068
 BYTE   W12
 BYTE   N11  En4  v072
 BYTE   W12
 BYTE   En5  v068
 BYTE   W12
 BYTE   N10  En4  v072
 BYTE   W12
 BYTE   N11  En5  v060
 BYTE   W12
 BYTE   N09  En4  v076
 BYTE   W12
 BYTE   PEND 
//  #07 //011   ----------------------------------------
Label_0102324F:
 BYTE   N11  En5  v056
 BYTE   W12
 BYTE   En4  v076
 BYTE   W12
 BYTE   En5  v068
 BYTE   W12
 BYTE   N10  En4  v076
 BYTE   W12
 BYTE   N11  En5  v064
 BYTE   W12
 BYTE   En4  v076
 BYTE   W12
 BYTE   N09  En5  v064
 BYTE   W12
 BYTE   N08  En4  v068
 BYTE   W12
 BYTE   PEND 
//  #07 //012   ----------------------------------------
Label_0102326D:
 BYTE   N10  En5  v084
 BYTE   W12
 BYTE   En4  v068
 BYTE   W12
 BYTE   En5  v052
 BYTE   W12
 BYTE   En4  v064
 BYTE   W12
 BYTE   En5
 BYTE   W12
 BYTE   En4  v068
 BYTE   W12
 BYTE   N11  En5  v060
 BYTE   W12
 BYTE   N10  En4  v072
 BYTE   W12
 BYTE   PEND 
//  #07 //013   ----------------------------------------
Label_01023288:
 BYTE   N10  En5  v072
 BYTE   W12
 BYTE   N11  En4  v064
 BYTE   W12
 BYTE   En5  v076
 BYTE   W12
 BYTE   N10  En4  v072
 BYTE   W12
 BYTE   N11  En5  v068
 BYTE   W12
 BYTE   N10  En4  v064
 BYTE   W12
 BYTE   N11  En5  v068
 BYTE   W12
 BYTE   En4
 BYTE   W12
 BYTE   PEND 
//  #07 //014   ----------------------------------------
 BYTE   PATT
  POIN2 Label_01023230
//  #07 //015   ----------------------------------------
 BYTE   PATT
  POIN2 Label_0102324F
//  #07 //016   ----------------------------------------
 BYTE   PATT
  POIN2 Label_0102326D
//  #07 //017   ----------------------------------------
 BYTE   PATT
  POIN2 Label_01023288
//  #07 //018   ----------------------------------------
 BYTE   N11  En5  v068
 BYTE   W12
 BYTE   N10  En4  v064
 BYTE   W12
 BYTE   En5  v068
 BYTE   W12
 BYTE   N11  En4  v072
 BYTE   W12
 BYTE   En5  v068
 BYTE   W12
 BYTE   N10  En4  v072
 BYTE   W12
 BYTE   VOICE   20
 BYTE   VOL   40*FE07CampaignofFireAlice_mvl/mxv
 BYTE   PAN   c_v-9
 BYTE   N11  En5  v060
 BYTE   W12
 BYTE   N09  En4  v076
 BYTE   W12
//  #07 //019   ----------------------------------------
 BYTE   N52  Ds4  v100
 BYTE   W60
 BYTE   N11  Dn4  v092
 BYTE   W12
 BYTE   Ds4
 BYTE   W12
 BYTE   N56  Fn4
 BYTE   W12
//  #07 //020   ----------------------------------------
 BYTE   W48
 BYTE   N44  Ds4  v096
 BYTE   W48
//  #07 //021   ----------------------------------------
 BYTE   N56  Dn4  v100
 BYTE   W60
 BYTE   N11  Cn4  v096
 BYTE   W12
 BYTE   Dn4  v100
 BYTE   W12
 BYTE   N56  Ds4  v092
 BYTE   W12
//  #07 //022   ----------------------------------------
 BYTE   W48
 BYTE   N44  Dn4  v096
 BYTE   W48
//  #07 //023   ----------------------------------------
 BYTE   TIE  Gs3  v092
 BYTE   TIE  Cn4  v096
 BYTE   W96
//  #07 //024   ----------------------------------------
 BYTE   W64
 BYTE   EOT
 BYTE   Gs3  v072
 BYTE   W08
 BYTE   N20  Gs3  v092
 BYTE   N21  Cn4  v096
 BYTE   W24
//  #07 //025   ----------------------------------------
 BYTE   N90  Gn3
 BYTE   N90  Cn4  v100
 BYTE   W96
//  #07 //026   ----------------------------------------
 BYTE   Gn3  v092
 BYTE   N88  Bn3  v096
 BYTE   W96
//  #07 //027   ----------------------------------------
 BYTE   W96
//  #07 //028   ----------------------------------------
 BYTE   W96
//  #07 //029   ----------------------------------------
 BYTE   W96
//  #07 //030   ----------------------------------------
 BYTE   W96
//  #07 //031   ----------------------------------------
 BYTE   GoTo
  POIN2 Label_01023209
 BYTE   FINE

//******************************************************//
	ALIGN 4

FE07CampaignofFireAlice:
	BYTE	7	// NumTrks
	BYTE	0	// NumBlks
	BYTE	FE07CampaignofFireAlice_pri	// Priority
	BYTE	FE07CampaignofFireAlice_rev	// Reverb.
    
	POIN2	FE07CampaignofFireAlice_grp
    
	POIN2	FE07CampaignofFireAlice_001
	POIN2	FE07CampaignofFireAlice_002
	POIN2	FE07CampaignofFireAlice_003
	POIN2	FE07CampaignofFireAlice_004
	POIN2	FE07CampaignofFireAlice_005
	POIN2	FE07CampaignofFireAlice_006
	POIN2	FE07CampaignofFireAlice_007

	
