//Event file generated from Sappy .s format.
	#include "MPlayDef.event"

	#define	FE07CompanionsAlice_grp  voicegroup000
	#define	FE07CompanionsAlice_pri  10
	#define	FE07CompanionsAlice_rev  128
	#define	FE07CompanionsAlice_mvl  127
	#define	FE07CompanionsAlice_key  0
	#define	FE07CompanionsAlice_tbs  1
	#define	FE07CompanionsAlice_exg  0
	#define	FE07CompanionsAlice_cmp  1

	// .rodata
	//	FE07CompanionsAlice
	ALIGN 4


//**************** Track 1 (Midi-Chn.0) ****************//

FE07CompanionsAlice_001:
//  #01 //000   ----------------------------------------
 BYTE   KEYSH   FE07CompanionsAlice_key+0
 BYTE   TEMPO   134*FE07CompanionsAlice_tbs/2
 BYTE   VOICE   40
 BYTE   VOL   47*FE07CompanionsAlice_mvl/mxv
 BYTE   PAN   c_v+8
 BYTE   W24
Label_012BF703:
 BYTE   N64  An2  v092
 BYTE   N64  Cn3  v108
 BYTE   W66
 BYTE   N05  An2  v032
 BYTE   N05  Cn3
 BYTE   W06
//  #01 //001   ----------------------------------------
 BYTE   Gn2  v092
 BYTE   N04  Bn2  v108
 BYTE   W06
 BYTE   N05  Gn2  v032
 BYTE   N05  Bn2
 BYTE   W06
 BYTE   N03  An2  v092
 BYTE   N05  Cn3  v108
 BYTE   W06
 BYTE   An2  v032
 BYTE   N05  Cn3
 BYTE   W06
 BYTE   N28  Bn2  v092
 BYTE   N28  Dn3  v108
 BYTE   W30
 BYTE   N05  Bn2  v032
 BYTE   N05  Dn3
 BYTE   W06
 BYTE   N28  Gn2  v092
 BYTE   N28  Bn2  v108
 BYTE   W30
 BYTE   N05  Gn2  v032
 BYTE   N05  Bn2
 BYTE   W06
//  #01 //002   ----------------------------------------
 BYTE   N15  An2  v092
 BYTE   N16  Cn3  v108
 BYTE   W18
 BYTE   N05  An2  v032
 BYTE   N05  Cn3
 BYTE   W06
 BYTE   N60  An2  v092
 BYTE   N60  Cn3  v108
 BYTE   W66
 BYTE   N05  An2  v032
 BYTE   N05  Cn3
 BYTE   W06
//  #01 //003   ----------------------------------------
 BYTE   Gn2  v092
 BYTE   N05  Bn2  v108
 BYTE   W06
 BYTE   Gn2  v032
 BYTE   N05  Bn2
 BYTE   W06
 BYTE   N03  An2  v092
 BYTE   N05  Cn3  v108
 BYTE   W06
 BYTE   An2  v032
 BYTE   N05  Cn3
 BYTE   W06
 BYTE   N24  Bn2  v092
 BYTE   N24  Dn3  v108
 BYTE   W30
 BYTE   N05  Bn2  v032
 BYTE   N05  Dn3
 BYTE   W06
 BYTE   N24  Dn3  v092
 BYTE   N24  Fn3  v108
 BYTE   W30
 BYTE   N05  Dn3  v032
 BYTE   N05  Fn3
 BYTE   W06
//  #01 //004   ----------------------------------------
 BYTE   N15  Cn3  v092
 BYTE   N14  En3  v108
 BYTE   W18
 BYTE   N05  Cn3  v032
 BYTE   N05  En3
 BYTE   W06
 BYTE   N64  An2  v092
 BYTE   N64  Cn3  v108
 BYTE   W66
 BYTE   N05  An2  v032
 BYTE   N05  Cn3
 BYTE   W06
//  #01 //005   ----------------------------------------
 BYTE   Gn2  v092
 BYTE   N05  Bn2  v108
 BYTE   W06
 BYTE   Gn2  v032
 BYTE   N05  Bn2
 BYTE   W06
 BYTE   N04  An2  v092
 BYTE   N04  Cn3  v108
 BYTE   W06
 BYTE   N05  An2  v032
 BYTE   N05  Cn3
 BYTE   W06
 BYTE   N28  Bn2  v092
 BYTE   N28  Dn3  v108
 BYTE   W30
 BYTE   N05  Bn2  v032
 BYTE   N05  Dn3
 BYTE   W06
 BYTE   N24  Gn2  v092
 BYTE   N28  Bn2  v108
 BYTE   W30
 BYTE   N05  Gn2  v032
 BYTE   N05  Bn2
 BYTE   W06
//  #01 //006   ----------------------------------------
 BYTE   N15  An2  v092
 BYTE   N16  Cn3  v108
 BYTE   W18
 BYTE   N05  An2  v032
 BYTE   N05  Cn3
 BYTE   W06
 BYTE   N60  An2  v092
 BYTE   N60  Cn3  v108
 BYTE   W66
 BYTE   N05  An2  v032
 BYTE   N05  Cn3
 BYTE   W06
//  #01 //007   ----------------------------------------
 BYTE   N04  Gn2  v092
 BYTE   N05  Bn2  v108
 BYTE   W06
 BYTE   Gn2  v032
 BYTE   N05  Bn2
 BYTE   W06
 BYTE   N04  An2  v092
 BYTE   N04  Cn3  v108
 BYTE   W06
 BYTE   N05  An2  v032
 BYTE   N05  Cn3
 BYTE   W06
 BYTE   N24  Bn2  v092
 BYTE   N28  Dn3  v108
 BYTE   W30
 BYTE   N05  Bn2  v032
 BYTE   N05  Dn3
 BYTE   W06
 BYTE   N24  Dn3  v092
 BYTE   N24  Fn3  v108
 BYTE   W30
 BYTE   N05  Dn3  v032
 BYTE   N05  Fn3
 BYTE   W06
//  #01 //008   ----------------------------------------
 BYTE   N11  Cn3  v092
 BYTE   N10  En3  v108
 BYTE   W12
 BYTE   N05  Cn3  v032
 BYTE   N05  En3
 BYTE   W12
 BYTE   N52  Cn3  v096
 BYTE   N52  En3  v108
 BYTE   W54
 BYTE   N05  Cn3  v032
 BYTE   N05  En3
 BYTE   W06
 BYTE   N04  Cn3  v108
 BYTE   W06
 BYTE   N05  Cn3  v032
 BYTE   W06
//  #01 //009   ----------------------------------------
 BYTE   Cn3  v108
 BYTE   W06
 BYTE   Cn3  v032
 BYTE   W06
 BYTE   En3  v108
 BYTE   W06
 BYTE   En3  v032
 BYTE   W06
 BYTE   N28  Bn2  v096
 BYTE   N28  Dn3  v108
 BYTE   W30
 BYTE   N05  Bn2  v032
 BYTE   N05  Dn3
 BYTE   W06
 BYTE   N44  Gn2  v096
 BYTE   N44  Bn2  v108
 BYTE   W48
//  #01 //010   ----------------------------------------
 BYTE   N05  Gn2  v032
 BYTE   N05  Bn2
 BYTE   W12
 BYTE   N44  Cn3  v096
 BYTE   N44  En3  v108
 BYTE   W48
 BYTE   N05  Cn3  v032
 BYTE   N05  En3
 BYTE   W12
 BYTE   N04  An2  v096
 BYTE   N04  Cn3  v108
 BYTE   W06
 BYTE   N05  An2  v032
 BYTE   N05  Cn3
 BYTE   W06
 BYTE   N04  An2  v096
 BYTE   N05  Cn3  v108
 BYTE   W06
 BYTE   An2  v032
 BYTE   N05  Cn3
 BYTE   W06
//  #01 //011   ----------------------------------------
 BYTE   N03  Cn3  v096
 BYTE   N04  En3  v108
 BYTE   W06
 BYTE   N05  Cn3  v032
 BYTE   N05  En3
 BYTE   W06
 BYTE   N11  Bn2  v096
 BYTE   N09  Dn3  v108
 BYTE   W12
 BYTE   N05  Bn2  v032
 BYTE   N05  Dn3
 BYTE   W12
 BYTE   N40  Dn3  v096
 BYTE   N40  Gn3  v108
 BYTE   W42
 BYTE   N05  Dn3  v032
 BYTE   N05  Gn3
 BYTE   W06
 BYTE   N17  Bn2  v096
 BYTE   N17  Dn3  v108
 BYTE   W18
//  #01 //012   ----------------------------------------
 BYTE   N05  Bn2  v032
 BYTE   N05  Dn3
 BYTE   W06
 BYTE   N52  Cn3  v096
 BYTE   N52  En3  v108
 BYTE   W54
 BYTE   N05  Cn3  v032
 BYTE   N05  En3
 BYTE   W06
 BYTE   N04  An2  v096
 BYTE   N04  Cn3  v108
 BYTE   W06
 BYTE   N05  An2  v032
 BYTE   N05  Cn3
 BYTE   W06
 BYTE   An2  v096
 BYTE   N05  Cn3  v108
 BYTE   W06
 BYTE   An2  v032
 BYTE   N05  Cn3
 BYTE   W06
 BYTE   Cn3  v096
 BYTE   N05  En3  v108
 BYTE   W06
//  #01 //013   ----------------------------------------
 BYTE   Cn3  v032
 BYTE   N05  En3
 BYTE   W06
 BYTE   N15  Bn2  v096
 BYTE   N16  Dn3  v108
 BYTE   W18
 BYTE   N05  Bn2  v032
 BYTE   N05  Dn3
 BYTE   W06
 BYTE   N44  Dn3  v096
 BYTE   N44  Gn3
 BYTE   W48
 BYTE   N05  Dn3  v032
 BYTE   N16  Bn3  v088
 BYTE   W18
//  #01 //014   ----------------------------------------
 BYTE   N05  Bn3  v032
 BYTE   W06
 BYTE   N52  Cn3  v096
 BYTE   N48  En3  v108
 BYTE   W54
 BYTE   N05  Cn3  v032
 BYTE   N05  En3
 BYTE   W06
 BYTE   N04  An2  v096
 BYTE   N04  Cn3  v108
 BYTE   W06
 BYTE   N05  An2  v032
 BYTE   N05  Cn3
 BYTE   W06
 BYTE   N04  Bn2  v096
 BYTE   N05  Dn3  v108
 BYTE   W06
 BYTE   An2  v032
 BYTE   N05  Cn3
 BYTE   W06
 BYTE   N03  Cn3  v096
 BYTE   N04  En3  v108
 BYTE   W06
//  #01 //015   ----------------------------------------
 BYTE   N05  Cn3  v032
 BYTE   N05  En3
 BYTE   W06
 BYTE   N14  Fn3  v096
 BYTE   N17  An3  v108
 BYTE   W18
 BYTE   N05  Fn3  v032
 BYTE   N05  An3
 BYTE   W06
 BYTE   N17  En3  v096
 BYTE   N17  Gn3  v108
 BYTE   W18
 BYTE   N05  En3  v032
 BYTE   N05  Gn3
 BYTE   W06
 BYTE   N17  Dn3  v096
 BYTE   N17  Fn3  v108
 BYTE   W18
 BYTE   N05  Dn3  v032
 BYTE   N05  Fn3
 BYTE   W06
 BYTE   N17  Bn2  v096
 BYTE   N17  Dn3  v108
 BYTE   W18
//  #01 //016   ----------------------------------------
 BYTE   N05  Bn2  v032
 BYTE   N05  Dn3
 BYTE   W06
 BYTE   W96
//  #01 //017   ----------------------------------------
 BYTE   W96
//  #01 //018   ----------------------------------------
 BYTE   W60
 BYTE   N03  Cn3  v088
 BYTE   W06
 BYTE   N05  Cn3  v032
 BYTE   W06
 BYTE   N03  Dn3  v096
 BYTE   W06
 BYTE   N05  Dn3  v032
 BYTE   W06
 BYTE   N23  En3  v104
 BYTE   W12
//  #01 //019   ----------------------------------------
 BYTE   W12
 BYTE   N05  En3  v032
 BYTE   W84
//  #01 //020   ----------------------------------------
 BYTE   W96
//  #01 //021   ----------------------------------------
 BYTE   W96
//  #01 //022   ----------------------------------------
 BYTE   W60
 BYTE   N03  En3  v100
 BYTE   W06
 BYTE   N05  En3  v032
 BYTE   W06
 BYTE   Fn3  v072
 BYTE   W06
 BYTE   Fn3  v032
 BYTE   W06
 BYTE   N23  Gn3  v092
 BYTE   W12
//  #01 //023   ----------------------------------------
 BYTE   W12
 BYTE   N05  Gn3  v032
 BYTE   W48
 BYTE   N11  En4  v072
 BYTE   W12
 BYTE   Cn4  v076
 BYTE   W12
 BYTE   Gn3  v096
 BYTE   W12
//  #01 //024   ----------------------------------------
 BYTE   N56  An2
 BYTE   W60
 BYTE   N11  An2  v076
 BYTE   W12
 BYTE   Bn2  v084
 BYTE   W12
 BYTE   Cn3  v064
 BYTE   W12
//  #01 //025   ----------------------------------------
 BYTE   N54  Dn3  v088
 BYTE   W60
 BYTE   N11
 BYTE   W12
 BYTE   En3  v096
 BYTE   W12
 BYTE   Fn3  v072
 BYTE   W12
//  #01 //026   ----------------------------------------
 BYTE   N44  Gn3  v080
 BYTE   W48
 BYTE   Bn2
 BYTE   W48
//  #01 //027   ----------------------------------------
 BYTE   N68  Cn3  v092
 BYTE   W72
 BYTE   N23  Bn2  v080
 BYTE   W24
//  #01 //028   ----------------------------------------
 BYTE   N48  Fn2  v108
 BYTE   N52  An2  v116
 BYTE   W54
 BYTE   N05  Fn2  v032
 BYTE   N05  An2
 BYTE   W06
 BYTE   N11  Fn2  v100
 BYTE   N11  An2  v108
 BYTE   W12
 BYTE   Gn2  v076
 BYTE   N11  Bn2  v100
 BYTE   W12
 BYTE   An2  v092
 BYTE   N09  Cn3  v084
 BYTE   W12
//  #01 //029   ----------------------------------------
 BYTE   N48  Bn2  v108
 BYTE   N48  Dn3
 BYTE   W54
 BYTE   N05  Bn2  v032
 BYTE   N05  Dn3
 BYTE   W06
 BYTE   N11  Bn2  v100
 BYTE   N10  Dn3  v112
 BYTE   W12
 BYTE   N11  Cn3  v076
 BYTE   N11  En3  v104
 BYTE   W12
 BYTE   Dn3  v092
 BYTE   N11  Fn3
 BYTE   W12
//  #01 //030   ----------------------------------------
 BYTE   N40  En3  v100
 BYTE   N36  Gn3  v104
 BYTE   W42
 BYTE   N05  En3  v032
 BYTE   N05  Gn3
 BYTE   W06
 BYTE   N40  Gn3  v100
 BYTE   N40  Bn3
 BYTE   W42
 BYTE   N05  Gn3  v032
 BYTE   N05  Bn3
 BYTE   W06
//  #01 //031   ----------------------------------------
 BYTE   N40  En3  v112
 BYTE   N40  An3  v104
 BYTE   W42
 BYTE   N05  En3  v032
 BYTE   N05  An3
 BYTE   W06
 BYTE   N32  Cs3  v100
 BYTE   N32  An3
 BYTE   W36
 BYTE   N05  Cs3  v032
 BYTE   N05  An3
 BYTE   W12
//  #01 //032   ----------------------------------------
 BYTE   W96
//  #01 //033   ----------------------------------------
 BYTE   W96
//  #01 //034   ----------------------------------------
 BYTE   W96
//  #01 //035   ----------------------------------------
 BYTE   W96
//  #01 //036   ----------------------------------------
 BYTE   W96
//  #01 //037   ----------------------------------------
 BYTE   W96
//  #01 //038   ----------------------------------------
 BYTE   W96
//  #01 //039   ----------------------------------------
 BYTE   W96
//  #01 //040   ----------------------------------------
 BYTE   N52  Dn3  v088
 BYTE   N52  Fn3  v100
 BYTE   W54
 BYTE   N05  Dn3  v032
 BYTE   N05  Fn3
 BYTE   W06
 BYTE   Bn2  v088
 BYTE   N05  Dn3  v100
 BYTE   W06
 BYTE   Bn2  v032
 BYTE   N05  Dn3
 BYTE   W06
 BYTE   Cs3  v088
 BYTE   N03  En3  v100
 BYTE   W06
 BYTE   N05  Cs3  v032
 BYTE   N05  En3
 BYTE   W06
 BYTE   N03  Dn3  v088
 BYTE   N04  Fn3  v100
 BYTE   W06
 BYTE   N05  Dn3  v032
 BYTE   N05  Fn3
 BYTE   W06
//  #01 //041   ----------------------------------------
 BYTE   N52  Fn3  v088
 BYTE   N52  An3  v100
 BYTE   W54
 BYTE   N05  Fn3  v032
 BYTE   N05  An3
 BYTE   W06
 BYTE   Dn3  v088
 BYTE   N05  Fn3  v100
 BYTE   W06
 BYTE   Dn3  v032
 BYTE   N05  Fn3
 BYTE   W06
 BYTE   N04  En3  v088
 BYTE   N05  Gn3  v100
 BYTE   W06
 BYTE   En3  v032
 BYTE   N05  Gn3
 BYTE   W06
 BYTE   N03  Fn3  v088
 BYTE   N05  An3  v100
 BYTE   W06
 BYTE   Fn3  v032
 BYTE   N05  An3
 BYTE   W06
//  #01 //042   ----------------------------------------
 BYTE   N80  An3  v088
 BYTE   N80  Cn4  v100
 BYTE   W84
 BYTE   N05  An3  v032
 BYTE   N05  Cn4
 BYTE   W12
//  #01 //043   ----------------------------------------
 BYTE   N80  Gn3  v088
 BYTE   N80  Bn3  v100
 BYTE   W84
 BYTE   N05  Gn3  v032
 BYTE   N05  Bn3
 BYTE   W12
//  #01 //044   ----------------------------------------
 BYTE   GoTo
  POIN2 Label_012BF703
 BYTE   FINE

//**************** Track 2 (Midi-Chn.1) ****************//

FE07CompanionsAlice_002:
//  #02 //000   ----------------------------------------
 BYTE   KEYSH   FE07CompanionsAlice_key+0
 BYTE   VOICE   33
 BYTE   VOL   55*FE07CompanionsAlice_mvl/mxv
 BYTE   PAN   c_v+0
 BYTE   W24
Label_54EB05:
 BYTE   N04  An2  v112
 BYTE   W12
 BYTE   N14
 BYTE   W24
 BYTE   N12  An2  v116
 BYTE   W24
 BYTE   N04
 BYTE   W12
//  #02 //001   ----------------------------------------
 BYTE   An2  v112
 BYTE   W12
 BYTE   N04
 BYTE   W12
 BYTE   An2  v116
 BYTE   W12
 BYTE   N11  An2  v124
 BYTE   W24
 BYTE   N16  An2  v127
 BYTE   W24
 BYTE   N12
 BYTE   W24
//  #02 //002   ----------------------------------------
 BYTE   N05
 BYTE   W12
 BYTE   An2  v116
 BYTE   W12
 BYTE   N12  An2  v112
 BYTE   W24
 BYTE   N11  An2  v120
 BYTE   W24
 BYTE   N04  An2  v116
 BYTE   W12
 BYTE   An2  v112
 BYTE   W12
//  #02 //003   ----------------------------------------
 BYTE   N04
 BYTE   W12
 BYTE   N05  An2  v124
 BYTE   W12
 BYTE   N11  An2  v112
 BYTE   W24
 BYTE   N12  An2  v116
 BYTE   W24
 BYTE   N11  An2  v127
 BYTE   W24
//  #02 //004   ----------------------------------------
 BYTE   N04  An2  v124
 BYTE   W12
 BYTE   N04
 BYTE   W12
 BYTE   N05  An2  v116
 BYTE   W24
 BYTE   N11  An2  v124
 BYTE   W24
 BYTE   N08
 BYTE   W24
//  #02 //005   ----------------------------------------
 BYTE   N04  An2  v116
 BYTE   W12
 BYTE   An2  v120
 BYTE   W12
 BYTE   N11  An2  v116
 BYTE   W24
 BYTE   An2  v127
 BYTE   W24
 BYTE   N12  An2  v124
 BYTE   W24
//  #02 //006   ----------------------------------------
 BYTE   N04
 BYTE   W12
 BYTE   An2  v127
 BYTE   W12
 BYTE   N09
 BYTE   W24
 BYTE   N12
 BYTE   W24
 BYTE   N05  An2  v124
 BYTE   W12
 BYTE   N04  An2  v112
 BYTE   W12
//  #02 //007   ----------------------------------------
 BYTE   An2  v116
 BYTE   W12
 BYTE   N11  An2  v127
 BYTE   W12
 BYTE   N12  An2  v112
 BYTE   W24
 BYTE   N13  An2  v120
 BYTE   W24
 BYTE   N04  An2  v112
 BYTE   W12
 BYTE   N11
 BYTE   W12
//  #02 //008   ----------------------------------------
 BYTE   N08  Gn2
 BYTE   W12
 BYTE   N06  Fn2
 BYTE   W12
 BYTE   N14
 BYTE   W24
 BYTE   N04  Fn2  v120
 BYTE   W12
 BYTE   Fn2  v124
 BYTE   W12
 BYTE   N05  Fn2  v116
 BYTE   W12
 BYTE   N11  Fn2  v112
 BYTE   W12
//  #02 //009   ----------------------------------------
 BYTE   N08
 BYTE   W12
 BYTE   N05  En2  v116
 BYTE   W12
 BYTE   N16  En2  v120
 BYTE   W24
 BYTE   N04  En2  v124
 BYTE   W12
 BYTE   En2  v116
 BYTE   W12
 BYTE   N14  En2  v127
 BYTE   W24
//  #02 //010   ----------------------------------------
 BYTE   N05  En2  v124
 BYTE   W12
 BYTE   Fn2  v112
 BYTE   W12
 BYTE   N07
 BYTE   W24
 BYTE   N04  Fn2  v124
 BYTE   W12
 BYTE   Fn2  v112
 BYTE   W12
 BYTE   N05  Fn2  v120
 BYTE   W12
 BYTE   N09  Fn2  v112
 BYTE   W12
//  #02 //011   ----------------------------------------
 BYTE   N07
 BYTE   W12
 BYTE   N05  En2  v124
 BYTE   W12
 BYTE   N13  En2  v120
 BYTE   W24
 BYTE   N06  En2  v124
 BYTE   W24
 BYTE   N15  En2  v127
 BYTE   W24
//  #02 //012   ----------------------------------------
 BYTE   N07  En2  v120
 BYTE   W12
 BYTE   N05  Fn2  v112
 BYTE   W12
 BYTE   N06  Fn2  v124
 BYTE   W12
 BYTE   N04  Fn2  v112
 BYTE   W12
 BYTE   N06  Fn2  v127
 BYTE   W24
 BYTE   N04
 BYTE   W12
 BYTE   Fn2  v120
 BYTE   W12
//  #02 //013   ----------------------------------------
 BYTE   N03  Fn2  v112
 BYTE   W12
 BYTE   N05  En2  v116
 BYTE   W12
 BYTE   N05
 BYTE   W24
 BYTE   N06  En2  v127
 BYTE   W24
 BYTE   N09
 BYTE   W24
//  #02 //014   ----------------------------------------
 BYTE   N04  En2  v124
 BYTE   W12
 BYTE   Fn2  v116
 BYTE   W12
 BYTE   Fn2  v124
 BYTE   W24
 BYTE   N07  Fn2  v127
 BYTE   W24
 BYTE   N05  Fn2  v124
 BYTE   W12
 BYTE   N04  Fn2  v112
 BYTE   W12
//  #02 //015   ----------------------------------------
 BYTE   N04
 BYTE   W12
 BYTE   N05  Gn2  v120
 BYTE   W12
 BYTE   N15  Gn2  v112
 BYTE   W24
 BYTE   N09
 BYTE   W12
 BYTE   N05  Gs2
 BYTE   W12
 BYTE   N13  Gs2  v124
 BYTE   W24
//  #02 //016   ----------------------------------------
 BYTE   N11  Gs2  v112
 BYTE   W12
 BYTE   N05  An2  v116
 BYTE   W12
 BYTE   N13  An2  v120
 BYTE   W24
 BYTE   N36  An2  v116
 BYTE   W48
//  #02 //017   ----------------------------------------
 BYTE   N04  An2  v112
 BYTE   W12
 BYTE   An2  v116
 BYTE   W12
 BYTE   N16
 BYTE   W24
 BYTE   N04
 BYTE   W12
 BYTE   N06  An2  v112
 BYTE   W12
 BYTE   N28  An2  v124
 BYTE   W36
//  #02 //018   ----------------------------------------
 BYTE   N04  An2  v116
 BYTE   W12
 BYTE   N30  An2  v120
 BYTE   W36
 BYTE   N05
 BYTE   W12
 BYTE   N30  An2  v116
 BYTE   W36
//  #02 //019   ----------------------------------------
 BYTE   N04
 BYTE   W12
 BYTE   N30
 BYTE   W36
 BYTE   N04  An2  v120
 BYTE   W12
 BYTE   N30  An2  v116
 BYTE   W36
//  #02 //020   ----------------------------------------
 BYTE   N04  An2  v112
 BYTE   W12
 BYTE   N28  An2  v120
 BYTE   W36
 BYTE   N04  An2  v116
 BYTE   W12
 BYTE   N22  An2  v120
 BYTE   W24
 BYTE   N04  An2  v116
 BYTE   W12
//  #02 //021   ----------------------------------------
 BYTE   N06  An2  v120
 BYTE   W12
 BYTE   N21  An2  v112
 BYTE   W24
 BYTE   N05
 BYTE   W12
 BYTE   N06  An2  v124
 BYTE   W12
 BYTE   N19  An2  v120
 BYTE   W24
 BYTE   N04  An2  v112
 BYTE   W12
//  #02 //022   ----------------------------------------
 BYTE   An2  v120
 BYTE   W12
 BYTE   N18  An2  v112
 BYTE   W24
 BYTE   N04  An2  v116
 BYTE   W12
 BYTE   N30  An2  v124
 BYTE   W36
 BYTE   N04
 BYTE   W12
//  #02 //023   ----------------------------------------
 BYTE   An2  v116
 BYTE   W12
 BYTE   N18  An2  v112
 BYTE   W24
 BYTE   N16  An2  v116
 BYTE   W24
 BYTE   N03  An2  v112
 BYTE   W12
 BYTE   N11
 BYTE   W12
 BYTE   Gn2
 BYTE   W12
//  #02 //024   ----------------------------------------
 BYTE   N28  Fn2
 BYTE   W36
 BYTE   N04  Fn2  v120
 BYTE   W12
 BYTE   N44
 BYTE   W48
//  #02 //025   ----------------------------------------
 BYTE   N08  Gn2  v112
 BYTE   W12
 BYTE   N19
 BYTE   W24
 BYTE   N04
 BYTE   W12
 BYTE   N44  Gn2  v116
 BYTE   W48
//  #02 //026   ----------------------------------------
 BYTE   N24  En2  v112
 BYTE   W36
 BYTE   N05  En2  v124
 BYTE   W12
 BYTE   N32
 BYTE   W36
 BYTE   N11  Gs2  v112
 BYTE   W12
//  #02 //027   ----------------------------------------
 BYTE   N30  An2
 BYTE   W36
 BYTE   N11
 BYTE   W12
 BYTE   N28  Gn2  v124
 BYTE   W36
 BYTE   N11  Fs2  v112
 BYTE   W12
//  #02 //028   ----------------------------------------
 BYTE   N24  Fn2
 BYTE   W36
 BYTE   N04  Fn2  v124
 BYTE   W12
 BYTE   N44  Fn2  v116
 BYTE   W48
//  #02 //029   ----------------------------------------
 BYTE   N24  Gn2  v112
 BYTE   W36
 BYTE   N05
 BYTE   W12
 BYTE   N44
 BYTE   W48
//  #02 //030   ----------------------------------------
 BYTE   N24  En2
 BYTE   W36
 BYTE   N17  En2  v124
 BYTE   W24
 BYTE   N11  Fs2  v112
 BYTE   W12
 BYTE   Gn2
 BYTE   W12
 BYTE   En2
 BYTE   W12
//  #02 //031   ----------------------------------------
 BYTE   N30  An2  v116
 BYTE   W36
 BYTE   N32  An2  v112
 BYTE   W48
 BYTE   N11  Gn2  v116
 BYTE   W12
//  #02 //032   ----------------------------------------
 BYTE   N18  Fn2  v112
 BYTE   W36
 BYTE   N22
 BYTE   W36
 BYTE   N18  Fn2  v116
 BYTE   W24
//  #02 //033   ----------------------------------------
 BYTE   W12
 BYTE   N20  Fn2  v112
 BYTE   W36
 BYTE   N13
 BYTE   W24
 BYTE   N11
 BYTE   W12
 BYTE   Fn3
 BYTE   W12
//  #02 //034   ----------------------------------------
 BYTE   N24  Fn2
 BYTE   W36
 BYTE   N23
 BYTE   W36
 BYTE   N24
 BYTE   W24
//  #02 //035   ----------------------------------------
 BYTE   W12
 BYTE   Fn2  v116
 BYTE   W36
 BYTE   N14  Fn2  v112
 BYTE   W24
 BYTE   N05
 BYTE   W06
 BYTE   Fn3  v060
 BYTE   W06
 BYTE   N09  Fn2  v112
 BYTE   W12
//  #02 //036   ----------------------------------------
 BYTE   N24  En2  v120
 BYTE   W36
 BYTE   N23
 BYTE   W36
 BYTE   N24  En2  v124
 BYTE   W24
//  #02 //037   ----------------------------------------
 BYTE   W12
 BYTE   N22
 BYTE   W36
 BYTE   N13  En2  v127
 BYTE   W24
 BYTE   N05
 BYTE   W06
 BYTE   Ds2
 BYTE   W06
 BYTE   En2
 BYTE   W06
 BYTE   Fn2
 BYTE   W06
//  #02 //038   ----------------------------------------
 BYTE   N30  An2  v112
 BYTE   W36
 BYTE   N24  An2  v120
 BYTE   W36
 BYTE   N24
 BYTE   W24
//  #02 //039   ----------------------------------------
 BYTE   W12
 BYTE   An2  v127
 BYTE   W36
 BYTE   N13  An2  v120
 BYTE   W24
 BYTE   N05  An2  v127
 BYTE   W06
 BYTE   N05
 BYTE   W06
 BYTE   N11  En2
 BYTE   W12
//  #02 //040   ----------------------------------------
 BYTE   N24  Dn2  v124
 BYTE   W36
 BYTE   N18
 BYTE   W24
 BYTE   Dn2  v116
 BYTE   W24
 BYTE   N04  Dn2  v112
 BYTE   W12
//  #02 //041   ----------------------------------------
 BYTE   N05  Dn2  v116
 BYTE   W12
 BYTE   N15  Dn2  v127
 BYTE   W24
 BYTE   N16
 BYTE   W24
 BYTE   N28  Dn2  v116
 BYTE   W36
//  #02 //042   ----------------------------------------
 BYTE   N24  Gn2  v112
 BYTE   W36
 BYTE   Gn2  v120
 BYTE   W36
 BYTE   N17  Gn2  v116
 BYTE   W24
//  #02 //043   ----------------------------------------
 BYTE   N30  Gn2  v120
 BYTE   W36
 BYTE   N28
 BYTE   W36
 BYTE   N05  Gn2  v116
 BYTE   W12
 BYTE   N11  Gs2  v127
 BYTE   W12
//  #02 //044   ----------------------------------------
 BYTE   GoTo
  POIN2 Label_54EB05
 BYTE   FINE

//**************** Track 3 (Midi-Chn.2) ****************//

FE07CompanionsAlice_003:
//  #03 //000   ----------------------------------------
 BYTE   KEYSH   FE07CompanionsAlice_key+0
 BYTE   VOICE   127
 BYTE   VOL   41*FE07CompanionsAlice_mvl/mxv
 BYTE   W24
Label_54E0BF:
 BYTE   N05  Dn1  v127
 BYTE   W36
 BYTE   N04
 BYTE   W24
 BYTE   N02  Dn1  v100
 BYTE   W12
//  #03 //001   ----------------------------------------
 BYTE   N04  Dn1  v127
 BYTE   W12
 BYTE   N02  Dn1  v092
 BYTE   W12
 BYTE   PEND 
Label_54E0D2:
 BYTE   N04  Dn1  v127
 BYTE   W12
 BYTE   N02  Dn1  v084
 BYTE   W24
 BYTE   N04  Dn1  v127
 BYTE   W24
 BYTE   N02  Dn1  v116
 BYTE   W12
//  #03 //002   ----------------------------------------
 BYTE   N04  Dn1  v127
 BYTE   W12
 BYTE   N11  Ds1  v104
 BYTE   W12
 BYTE   PEND 
Label_54E0EB:
 BYTE   N04  Dn1  v127
 BYTE   W36
 BYTE   N04
 BYTE   W24
 BYTE   N01  Dn1  v096
 BYTE   W12
//  #03 //003   ----------------------------------------
 BYTE   N04  Dn1  v127
 BYTE   W12
 BYTE   N02  Dn1  v100
 BYTE   W12
 BYTE   PEND 
Label_54E0FE:
 BYTE   N04  Dn1  v127
 BYTE   W12
 BYTE   N02  Dn1  v124
 BYTE   W24
 BYTE   N03
 BYTE   W24
 BYTE   Dn1  v116
 BYTE   W12
//  #03 //004   ----------------------------------------
 BYTE   N23  Ds1  v127
 BYTE   W24
 BYTE   PEND 
//  #03 //005   ----------------------------------------
 BYTE   PATT
  POIN2 Label_54E0BF
//  #03 //006   ----------------------------------------
 BYTE   PATT
  POIN2 Label_54E0D2
//  #03 //007   ----------------------------------------
 BYTE   PATT
  POIN2 Label_54E0EB
//  #03 //008   ----------------------------------------
 BYTE   PATT
  POIN2 Label_54E0FE
//  #03 //009   ----------------------------------------
 BYTE   N28  Fs2  v088
 BYTE   W36
 BYTE   N11  Fs2  v068
 BYTE   W12
 BYTE   N28  Fs2  v080
 BYTE   W48
//  #03 //010   ----------------------------------------
 BYTE   Fs2  v084
 BYTE   W36
 BYTE   N11  Fs2  v064
 BYTE   W12
 BYTE   N24  Fs2  v076
 BYTE   W48
//  #03 //011   ----------------------------------------
 BYTE   Fs2  v080
 BYTE   W36
 BYTE   N11  Fs2  v084
 BYTE   W12
 BYTE   N24  Fs2  v080
 BYTE   W48
//  #03 //012   ----------------------------------------
 BYTE   Fs2  v084
 BYTE   W36
 BYTE   N11  Fs2  v076
 BYTE   W12
 BYTE   N24
 BYTE   W48
//  #03 //013   ----------------------------------------
 BYTE   PATT
  POIN2 Label_54E0BF
//  #03 //014   ----------------------------------------
 BYTE   N04  Dn1  v127
 BYTE   W12
 BYTE   N02  Dn1  v016
 BYTE   W24
 BYTE   N04  Dn1  v127
 BYTE   W24
 BYTE   N02  Dn1  v116
 BYTE   W12
 BYTE   N04  Dn1  v127
 BYTE   W12
 BYTE   N11  Ds1  v104
 BYTE   W12
//  #03 //015   ----------------------------------------
 BYTE   PATT
  POIN2 Label_54E0EB
//  #03 //016   ----------------------------------------
 BYTE   N04  Dn1  v127
 BYTE   W12
 BYTE   N02  Dn1  v016
 BYTE   W24
 BYTE   N03  Dn1  v124
 BYTE   W24
 BYTE   Dn1  v116
 BYTE   W12
 BYTE   N23  Ds1  v127
 BYTE   W24
//  #03 //017   ----------------------------------------
 BYTE   VOICE   101
 BYTE   VOL   44*FE07CompanionsAlice_mvl/mxv
 BYTE   PAN   c_v+3
 BYTE   N60  An3  v100
 BYTE   W60
 BYTE   N05  En3  v112
 BYTE   W12
 BYTE   En3  v108
 BYTE   W12
 BYTE   N06  An3
 BYTE   W12
//  #03 //018   ----------------------------------------
 BYTE   N18  Gn3  v104
 BYTE   W24
 BYTE   Fn3  v100
 BYTE   W24
 BYTE   N17  En3  v104
 BYTE   W24
 BYTE   N16  Dn3  v100
 BYTE   W24
//  #03 //019   ----------------------------------------
 BYTE   N06  En3
 BYTE   W12
 BYTE   Fn3
 BYTE   W12
 BYTE   N68  Gn3  v096
 BYTE   W72
//  #03 //020   ----------------------------------------
 BYTE   N44  Gn2
 BYTE   W48
 BYTE   N23  Dn3
 BYTE   W24
 BYTE   Gn3
 BYTE   W24
//  #03 //021   ----------------------------------------
 BYTE   N54  An3  v100
 BYTE   W60
 BYTE   N04  En3  v104
 BYTE   W12
 BYTE   En3  v112
 BYTE   W12
 BYTE   N05  An3  v108
 BYTE   W12
//  #03 //022   ----------------------------------------
 BYTE   N17  Gn3  v112
 BYTE   W24
 BYTE   N16  Fn3  v104
 BYTE   W24
 BYTE   N15  En3  v108
 BYTE   W24
 BYTE   N18  Dn3
 BYTE   W24
//  #03 //023   ----------------------------------------
 BYTE   N04  En3  v116
 BYTE   W12
 BYTE   N05  Fn3  v096
 BYTE   W12
 BYTE   TIE  Gn3  v100
 BYTE   W72
//  #03 //024   ----------------------------------------
 BYTE   W80
 BYTE   W02
 BYTE   EOT
 BYTE   W14
//  #03 //025   ----------------------------------------
 BYTE   VOICE   127
 BYTE   VOL   37*FE07CompanionsAlice_mvl/mxv
 BYTE   N04  Dn1  v116
 BYTE   W12
 BYTE   N02  Dn1  v068
 BYTE   W06
 BYTE   Dn1  v080
 BYTE   W06
 BYTE   Dn1  v064
 BYTE   W12
 BYTE   Dn1  v076
 BYTE   W24
 BYTE   N03  Dn1  v072
 BYTE   W12
 BYTE   Dn1  v080
 BYTE   W12
 BYTE   Dn1  v096
 BYTE   W12
//  #03 //026   ----------------------------------------
 BYTE   N04  Dn1  v116
 BYTE   W12
 BYTE   N02  Dn1  v076
 BYTE   W06
 BYTE   Dn1  v080
 BYTE   W06
 BYTE   N03  Dn1  v096
 BYTE   W12
 BYTE   N02  Dn1  v084
 BYTE   W24
 BYTE   Dn1  v092
 BYTE   W12
 BYTE   N03  Dn1  v100
 BYTE   W12
 BYTE   N02  Dn1  v104
 BYTE   W12
//  #03 //027   ----------------------------------------
 BYTE   N03  Dn1  v127
 BYTE   W12
 BYTE   N01  Dn1  v072
 BYTE   W06
 BYTE   N03  Dn1  v096
 BYTE   W06
 BYTE   N02  Dn1  v100
 BYTE   W12
 BYTE   Dn1  v096
 BYTE   W24
 BYTE   N03
 BYTE   W12
 BYTE   N02  Dn1  v100
 BYTE   W12
 BYTE   Dn1  v116
 BYTE   W06
 BYTE   N03  Dn1  v096
 BYTE   W06
//  #03 //028   ----------------------------------------
 BYTE   Dn1  v127
 BYTE   W12
 BYTE   N02  Dn1  v108
 BYTE   W12
 BYTE   N03  Dn1  v100
 BYTE   W12
 BYTE   N02  Dn1  v112
 BYTE   W06
 BYTE   Dn1  v096
 BYTE   W06
 BYTE   N03  Dn1  v100
 BYTE   W12
 BYTE   N02  Dn1  v104
 BYTE   W06
 BYTE   Dn1  v100
 BYTE   W06
 BYTE   N02
 BYTE   W12
 BYTE   Dn1  v124
 BYTE   W12
//  #03 //029   ----------------------------------------
Label_54E265:
 BYTE   N02  Dn1  v112
 BYTE   W12
 BYTE   N01  Dn1  v072
 BYTE   W06
 BYTE   N02  Dn1  v096
 BYTE   W06
 BYTE   N02
 BYTE   W12
 BYTE   N04  Dn1  v127
 BYTE   W24
 BYTE   N02  Dn1  v112
 BYTE   W06
 BYTE   Dn1  v108
 BYTE   W06
 BYTE   Dn1  v100
 BYTE   W12
 BYTE   Dn1  v112
 BYTE   W06
 BYTE   Dn1  v096
 BYTE   W06
 BYTE   PEND 
//  #03 //030   ----------------------------------------
 BYTE   PATT
  POIN2 Label_54E265
//  #03 //031   ----------------------------------------
 BYTE   PATT
  POIN2 Label_54E265
//  #03 //032   ----------------------------------------
 BYTE   N02  Dn1  v104
 BYTE   W12
 BYTE   Dn1  v116
 BYTE   W06
 BYTE   N03  Dn1  v112
 BYTE   W06
 BYTE   N02  Dn1  v100
 BYTE   W12
 BYTE   N03  Dn1  v127
 BYTE   W24
 BYTE   N03
 BYTE   W12
 BYTE   N02
 BYTE   W12
 BYTE   N01  Dn1  v096
 BYTE   W06
 BYTE   N02  Dn1  v108
 BYTE   W06
//  #03 //033   ----------------------------------------
 BYTE   N04  Dn1  v120
 BYTE   W36
 BYTE   Dn1  v127
 BYTE   W36
 BYTE   N04
 BYTE   W24
//  #03 //034   ----------------------------------------
 BYTE   W12
 BYTE   N03
 BYTE   W36
 BYTE   N03
 BYTE   W24
 BYTE   N03
 BYTE   W12
 BYTE   N01  Dn1  v112
 BYTE   W06
 BYTE   N02  Dn1  v116
 BYTE   W06
//  #03 //035   ----------------------------------------
 BYTE   N04  Dn1  v124
 BYTE   W36
 BYTE   Dn1  v127
 BYTE   W36
 BYTE   N04
 BYTE   W24
//  #03 //036   ----------------------------------------
 BYTE   W12
 BYTE   N04
 BYTE   W36
 BYTE   N04
 BYTE   W24
 BYTE   N04
 BYTE   W12
 BYTE   N01  Dn1  v100
 BYTE   W06
 BYTE   N02  Dn1  v112
 BYTE   W06
//  #03 //037   ----------------------------------------
 BYTE   N04  Dn1  v124
 BYTE   W36
 BYTE   N03
 BYTE   W36
 BYTE   Dn1  v127
 BYTE   W24
//  #03 //038   ----------------------------------------
 BYTE   W12
 BYTE   N04
 BYTE   W36
 BYTE   N03
 BYTE   W12
 BYTE   N04
 BYTE   W24
 BYTE   N03
 BYTE   W12
//  #03 //039   ----------------------------------------
 BYTE   N04
 BYTE   W36
 BYTE   N03  Dn1  v120
 BYTE   W36
 BYTE   N04  Dn1  v127
 BYTE   W24
//  #03 //040   ----------------------------------------
 BYTE   W12
 BYTE   N04
 BYTE   W36
 BYTE   N04
 BYTE   W24
 BYTE   N04
 BYTE   W12
 BYTE   N03
 BYTE   W12
//  #03 //041   ----------------------------------------
 BYTE   PATT
  POIN2 Label_54E0BF
//  #03 //042   ----------------------------------------
 BYTE   N04  Dn1  v127
 BYTE   W12
 BYTE   N02  Dn1  v084
 BYTE   W24
 BYTE   N04  Dn1  v127
 BYTE   W24
 BYTE   N02  Dn1  v116
 BYTE   W12
 BYTE   N04  Dn1  v127
 BYTE   W24
//  #03 //043   ----------------------------------------
 BYTE   PATT
  POIN2 Label_54E0EB
//  #03 //044   ----------------------------------------
 BYTE   N04  Dn1  v127
 BYTE   W12
 BYTE   N02  Dn1  v124
 BYTE   W24
 BYTE   N03
 BYTE   W24
 BYTE   Dn1  v116
 BYTE   W12
 BYTE   N04  Dn1  v127
 BYTE   W12
 BYTE   N11  Ds1  v100
 BYTE   W12
//  #03 //045   ----------------------------------------
 BYTE   GoTo
  POIN2 Label_54E0BF
 BYTE   FINE

//**************** Track 4 (Midi-Chn.3) ****************//

FE07CompanionsAlice_004:
//  #04 //000   ----------------------------------------
 BYTE   KEYSH   FE07CompanionsAlice_key+0
 BYTE   VOICE   47
 BYTE   VOL   48*FE07CompanionsAlice_mvl/mxv
 BYTE   PAN   c_v-4
 BYTE   W12
 BYTE   N05  An2  v104
 BYTE   W06
 BYTE   En2  v096
 BYTE   W06
Label_54D768:
 BYTE   N24  An2  v116
 BYTE   W96
//  #04 //001   ----------------------------------------
 BYTE   W60
 BYTE   N11  An2  v108
 BYTE   W12
 BYTE   Fn2  v100
 BYTE   W12
 BYTE   An2  v127
 BYTE   W12
//  #04 //002   ----------------------------------------
 BYTE   N24  An2  v116
 BYTE   W96
//  #04 //003   ----------------------------------------
 BYTE   W60
 BYTE   N11
 BYTE   W12
 BYTE   Fn2
 BYTE   W12
 BYTE   An2  v124
 BYTE   W12
//  #04 //004   ----------------------------------------
 BYTE   N24  An2  v116
 BYTE   W96
//  #04 //005   ----------------------------------------
 BYTE   W84
 BYTE   N11  Fn2  v127
 BYTE   W12
//  #04 //006   ----------------------------------------
 BYTE   N28  An2
 BYTE   W96
//  #04 //007   ----------------------------------------
 BYTE   W72
 BYTE   N05
 BYTE   W06
 BYTE   Fn2  v112
 BYTE   W06
 BYTE   An2  v104
 BYTE   W06
 BYTE   Fn2  v096
 BYTE   W06
//  #04 //008   ----------------------------------------
 BYTE   N24  An2  v116
 BYTE   W96
//  #04 //009   ----------------------------------------
 BYTE   W96
//  #04 //010   ----------------------------------------
 BYTE   W96
//  #04 //011   ----------------------------------------
 BYTE   W96
//  #04 //012   ----------------------------------------
 BYTE   W96
//  #04 //013   ----------------------------------------
 BYTE   W96
//  #04 //014   ----------------------------------------
 BYTE   W96
//  #04 //015   ----------------------------------------
Label_54D7A5:
 BYTE   W60
 BYTE   N10  Fn2  v104
 BYTE   W12
 BYTE   N10
 BYTE   W12
 BYTE   N10
 BYTE   W12
 BYTE   PEND 
//  #04 //016   ----------------------------------------
 BYTE   N32  An2  v112
 BYTE   W36
 BYTE   Fn2  v124
 BYTE   W36
 BYTE   N23  An2  v104
 BYTE   W24
//  #04 //017   ----------------------------------------
 BYTE   N32  An2  v116
 BYTE   W36
 BYTE   Fn2  v112
 BYTE   W36
 BYTE   N23  An2  v116
 BYTE   W24
//  #04 //018   ----------------------------------------
 BYTE   N32  An2  v108
 BYTE   W36
 BYTE   Fn2  v120
 BYTE   W36
 BYTE   N23  An2  v112
 BYTE   W24
//  #04 //019   ----------------------------------------
 BYTE   N32  An2  v120
 BYTE   W36
 BYTE   Fn2  v116
 BYTE   W36
 BYTE   N23  An2  v100
 BYTE   W24
//  #04 //020   ----------------------------------------
 BYTE   N32
 BYTE   W36
 BYTE   Fn2  v124
 BYTE   W36
 BYTE   N23  An2  v112
 BYTE   W24
//  #04 //021   ----------------------------------------
 BYTE   N32  An2  v120
 BYTE   W36
 BYTE   Fn2
 BYTE   W36
 BYTE   N23  An2  v112
 BYTE   W24
//  #04 //022   ----------------------------------------
 BYTE   N32  An2  v116
 BYTE   W36
 BYTE   Fn2  v127
 BYTE   W36
 BYTE   N23  An2  v120
 BYTE   W24
//  #04 //023   ----------------------------------------
 BYTE   N32
 BYTE   W36
 BYTE   N23  Fn2  v116
 BYTE   W24
 BYTE   N11  Fn2  v112
 BYTE   W12
 BYTE   N23  An2  v104
 BYTE   W24
//  #04 //024   ----------------------------------------
 BYTE   W96
//  #04 //025   ----------------------------------------
 BYTE   W96
//  #04 //026   ----------------------------------------
 BYTE   W96
//  #04 //027   ----------------------------------------
 BYTE   W96
//  #04 //028   ----------------------------------------
 BYTE   W96
//  #04 //029   ----------------------------------------
 BYTE   W96
//  #04 //030   ----------------------------------------
 BYTE   W96
//  #04 //031   ----------------------------------------
 BYTE   PATT
  POIN2 Label_54D7A5
//  #04 //032   ----------------------------------------
 BYTE   N22  Fn2  v104
 BYTE   W96
//  #04 //033   ----------------------------------------
 BYTE   W72
 BYTE   N11  An2  v127
 BYTE   W12
 BYTE   N11
 BYTE   W12
//  #04 //034   ----------------------------------------
 BYTE   N24  Fn2
 BYTE   W96
//  #04 //035   ----------------------------------------
 BYTE   W72
 BYTE   N07  An2
 BYTE   W06
 BYTE   Fn2  v108
 BYTE   W06
 BYTE   N11  An2  v116
 BYTE   W12
//  #04 //036   ----------------------------------------
 BYTE   N22  Fn2  v127
 BYTE   W96
//  #04 //037   ----------------------------------------
 BYTE   W72
 BYTE   N05  An2  v124
 BYTE   W06
 BYTE   Fn2  v084
 BYTE   W06
 BYTE   An2  v104
 BYTE   W06
 BYTE   Fn2  v100
 BYTE   W06
//  #04 //038   ----------------------------------------
 BYTE   N23  An2  v127
 BYTE   W96
//  #04 //039   ----------------------------------------
 BYTE   W12
 BYTE   N22  Fn2
 BYTE   W36
 BYTE   N11  An2
 BYTE   W12
 BYTE   Fn2  v124
 BYTE   W12
 BYTE   An2  v120
 BYTE   W12
 BYTE   Fn2  v112
 BYTE   W12
//  #04 //040   ----------------------------------------
 BYTE   N24  An2  v127
 BYTE   W96
//  #04 //041   ----------------------------------------
 BYTE   W96
//  #04 //042   ----------------------------------------
 BYTE   W96
//  #04 //043   ----------------------------------------
 BYTE   W96
//  #04 //044   ----------------------------------------
 BYTE   GoTo
  POIN2 Label_54D768
 BYTE   FINE

//**************** Track 5 (Midi-Chn.4) ****************//

FE07CompanionsAlice_005:
//  #05 //000   ----------------------------------------
 BYTE   KEYSH   FE07CompanionsAlice_key+0
 BYTE   W24
Label_012BFAE3:
 BYTE   W48
 BYTE   VOICE   51
 BYTE   VOL   31*FE07CompanionsAlice_mvl/mxv
 BYTE   PAN   c_v-9
 BYTE   W48
//  #05 //001   ----------------------------------------
 BYTE   W24
 BYTE   N11  En2  v104
 BYTE   W12
 BYTE   N05  An2  v096
 BYTE   W12
 BYTE   N11  An2  v100
 BYTE   W12
 BYTE   N05  En3  v096
 BYTE   W12
 BYTE   N11  En3  v104
 BYTE   W12
 BYTE   N06  An3  v096
 BYTE   W12
//  #05 //002   ----------------------------------------
 BYTE   An3  v024
 BYTE   W96
//  #05 //003   ----------------------------------------
 BYTE   W24
 BYTE   N11  An2  v092
 BYTE   W12
 BYTE   N04  En3  v104
 BYTE   W12
 BYTE   N11  En3  v096
 BYTE   W12
 BYTE   N05  An3
 BYTE   W12
 BYTE   An3  v092
 BYTE   W06
 BYTE   N04  En4  v096
 BYTE   W06
 BYTE   N05
 BYTE   W06
 BYTE   An4  v080
 BYTE   W06
//  #05 //004   ----------------------------------------
 BYTE   N06  An4  v024
 BYTE   W96
//  #05 //005   ----------------------------------------
 BYTE   W24
 BYTE   N11  En2  v112
 BYTE   W12
 BYTE   N05  An2  v092
 BYTE   W12
 BYTE   N11
 BYTE   W12
 BYTE   N05  En3  v088
 BYTE   W12
 BYTE   N11
 BYTE   W12
 BYTE   N05  An3  v084
 BYTE   W06
 BYTE   N06  An3  v020
 BYTE   W06
//  #05 //006   ----------------------------------------
 BYTE   W96
//  #05 //007   ----------------------------------------
 BYTE   N10  En2  v104
 BYTE   W12
 BYTE   N04  An2  v096
 BYTE   W12
 BYTE   N09  An2  v100
 BYTE   W12
 BYTE   N04  En3
 BYTE   W12
 BYTE   N11  En3  v104
 BYTE   W12
 BYTE   N04  An3  v092
 BYTE   W12
 BYTE   N10  An3  v104
 BYTE   W12
 BYTE   N05  En4  v092
 BYTE   W06
 BYTE   En4  v020
 BYTE   W06
//  #05 //008   ----------------------------------------
 BYTE   VOICE   56
 BYTE   VOL   24*FE07CompanionsAlice_mvl/mxv
 BYTE   PAN   c_v-3
 BYTE   N68  Cn4  v088
 BYTE   W72
 BYTE   N11  Dn4
 BYTE   W12
 BYTE   Cn4  v068
 BYTE   W12
//  #05 //009   ----------------------------------------
 BYTE   N44  Bn3  v080
 BYTE   W48
 BYTE   Gn3  v088
 BYTE   W48
//  #05 //010   ----------------------------------------
 BYTE   N68  Cn4  v080
 BYTE   W72
 BYTE   N11  Dn4
 BYTE   W12
 BYTE   Cn4  v072
 BYTE   W12
//  #05 //011   ----------------------------------------
 BYTE   N44  Dn4  v092
 BYTE   W48
 BYTE   Gn4  v080
 BYTE   W48
//  #05 //012   ----------------------------------------
 BYTE   N68  En4
 BYTE   W72
 BYTE   N11  Dn4  v084
 BYTE   W12
 BYTE   Cn4  v072
 BYTE   W12
//  #05 //013   ----------------------------------------
 BYTE   N23  Dn4  v080
 BYTE   W24
 BYTE   N64  Bn3
 BYTE   W72
//  #05 //014   ----------------------------------------
 BYTE   N54  En4
 BYTE   W60
 BYTE   N11
 BYTE   W12
 BYTE   Fn4  v072
 BYTE   W12
 BYTE   Gn4  v088
 BYTE   W12
//  #05 //015   ----------------------------------------
 BYTE   N23  An4  v084
 BYTE   W24
 BYTE   Gn4  v092
 BYTE   W24
 BYTE   Fn4  v084
 BYTE   W24
 BYTE   Dn4  v088
 BYTE   W24
//  #05 //016   ----------------------------------------
 BYTE   VOICE   51
 BYTE   VOL   27*FE07CompanionsAlice_mvl/mxv
 BYTE   PAN   c_v-14
 BYTE   N05  An3  v084
 BYTE   N04  En4  v088
 BYTE   W24
 BYTE   N05  En3  v084
 BYTE   N04  Cn4  v088
 BYTE   W12
 BYTE   N06  En3  v084
 BYTE   N05  Cn4  v088
 BYTE   W24
 BYTE   N03  En3  v084
 BYTE   N05  Cn4  v088
 BYTE   W12
 BYTE   N21  En3  v084
 BYTE   N21  Cn4  v088
 BYTE   W24
//  #05 //017   ----------------------------------------
 BYTE   W24
 BYTE   N05  En3  v084
 BYTE   N04  Cn4  v088
 BYTE   W12
 BYTE   N06  En3  v084
 BYTE   N05  Cn4  v088
 BYTE   W24
 BYTE   N03  En3  v084
 BYTE   N05  Cn4  v088
 BYTE   W12
 BYTE   N21  En3  v084
 BYTE   N21  Cn4  v088
 BYTE   W24
//  #05 //018   ----------------------------------------
Label_012BFBFA:
 BYTE   W24
 BYTE   N04  En3  v084
 BYTE   N04  Cn4  v088
 BYTE   W12
 BYTE   N05  En3  v084
 BYTE   N05  Cn4  v088
 BYTE   W24
 BYTE   N03  En3  v084
 BYTE   N03  Cn4  v088
 BYTE   W12
 BYTE   N23  En3  v084
 BYTE   N23  Cn4  v088
 BYTE   W24
 BYTE   PEND 
//  #05 //019   ----------------------------------------
 BYTE   W24
 BYTE   N04  En3  v084
 BYTE   N04  Cn4  v088
 BYTE   W12
 BYTE   N06  En3  v084
 BYTE   N06  Cn4  v088
 BYTE   W24
 BYTE   N11  En3  v084
 BYTE   N11  Cn4  v088
 BYTE   W12
 BYTE   Dn4
 BYTE   W12
 BYTE   N12  En4
 BYTE   W12
//  #05 //020   ----------------------------------------
 BYTE   PATT
  POIN2 Label_012BFBFA
//  #05 //021   ----------------------------------------
 BYTE   W24
 BYTE   N04  En3  v084
 BYTE   N04  Cn4  v088
 BYTE   W12
 BYTE   N05  En3  v084
 BYTE   N05  Cn4  v088
 BYTE   W24
 BYTE   N03  En3  v084
 BYTE   N04  Cn4  v088
 BYTE   W12
 BYTE   N22  En3  v084
 BYTE   N23  Cn4  v088
 BYTE   W24
//  #05 //022   ----------------------------------------
 BYTE   W24
 BYTE   N03  En3  v084
 BYTE   N03  Cn4  v088
 BYTE   W12
 BYTE   N05  En3  v084
 BYTE   N05  Cn4  v088
 BYTE   W24
 BYTE   N03  En3  v084
 BYTE   N03  Cn4  v088
 BYTE   W12
 BYTE   N21  En3  v084
 BYTE   N22  Cn4  v088
 BYTE   W24
//  #05 //023   ----------------------------------------
 BYTE   W24
 BYTE   N23  En3  v084
 BYTE   N23  En4  v088
 BYTE   W24
 BYTE   Dn3  v084
 BYTE   N23  Dn4  v088
 BYTE   W24
 BYTE   Cn3  v084
 BYTE   N21  Cn4  v088
 BYTE   W24
//  #05 //024   ----------------------------------------
 BYTE   VOICE   51
 BYTE   N03  Cn3  v100
 BYTE   N03  Fn3  v108
 BYTE   W12
 BYTE   Cn3  v100
 BYTE   N03  Fn3  v108
 BYTE   W12
 BYTE   N02  Cn3  v096
 BYTE   N03  Fn3  v104
 BYTE   W12
 BYTE   N05  Cn3  v096
 BYTE   N03  Fn3  v100
 BYTE   W12
 BYTE   Cn3
 BYTE   N03  Fn3  v108
 BYTE   W12
 BYTE   Cn3  v100
 BYTE   N03  Fn3  v108
 BYTE   W12
 BYTE   Cn3  v116
 BYTE   N03  Fn3
 BYTE   W12
 BYTE   Cn3  v100
 BYTE   N03  Fn3  v108
 BYTE   W12
//  #05 //025   ----------------------------------------
 BYTE   Bn2  v100
 BYTE   N03  Gn3  v108
 BYTE   W12
 BYTE   Bn2  v100
 BYTE   N03  Gn3  v108
 BYTE   W12
 BYTE   N02  Bn2  v096
 BYTE   N03  Gn3  v104
 BYTE   W12
 BYTE   N05  Bn2  v096
 BYTE   N03  Gn3  v100
 BYTE   W12
 BYTE   Bn2
 BYTE   N03  Gn3  v108
 BYTE   W12
 BYTE   Bn2  v100
 BYTE   N03  Gn3  v108
 BYTE   W12
 BYTE   Bn2  v116
 BYTE   N03  Gn3
 BYTE   W12
 BYTE   Bn2  v100
 BYTE   N03  Gn3  v108
 BYTE   W12
//  #05 //026   ----------------------------------------
 BYTE   Bn2  v100
 BYTE   N03  En3  v108
 BYTE   W12
 BYTE   Bn2  v100
 BYTE   N03  En3  v108
 BYTE   W12
 BYTE   N02  Bn2  v096
 BYTE   N03  En3  v104
 BYTE   W12
 BYTE   N05  Bn2  v096
 BYTE   N03  En3  v100
 BYTE   W12
 BYTE   Bn2
 BYTE   N03  En3  v108
 BYTE   W12
 BYTE   Bn2  v100
 BYTE   N03  En3  v108
 BYTE   W12
 BYTE   Bn2  v116
 BYTE   N03  En3
 BYTE   W12
 BYTE   Bn2  v100
 BYTE   N03  En3  v108
 BYTE   W12
//  #05 //027   ----------------------------------------
 BYTE   An2  v100
 BYTE   N03  En3  v108
 BYTE   W12
 BYTE   An2  v100
 BYTE   N03  En3  v108
 BYTE   W12
 BYTE   N02  An2  v096
 BYTE   N03  En3  v104
 BYTE   W12
 BYTE   N05  An2  v096
 BYTE   N03  En3  v100
 BYTE   W12
 BYTE   Gn2
 BYTE   N03  En3  v108
 BYTE   W12
 BYTE   Gn2  v100
 BYTE   N03  En3  v108
 BYTE   W12
 BYTE   Gn2  v116
 BYTE   N03  En3
 BYTE   W12
 BYTE   Gn2  v100
 BYTE   N03  En3  v108
 BYTE   W12
//  #05 //028   ----------------------------------------
 BYTE   W12
 BYTE   Cn3  v100
 BYTE   N03  Fn3  v108
 BYTE   W12
 BYTE   N02  Cn3  v096
 BYTE   N03  Fn3  v104
 BYTE   W12
 BYTE   N05  Cn3  v096
 BYTE   N03  Fn3  v100
 BYTE   W12
 BYTE   Cn3
 BYTE   N03  Fn3  v108
 BYTE   W12
 BYTE   Cn3  v100
 BYTE   N03  Fn3  v108
 BYTE   W12
 BYTE   Cn3  v116
 BYTE   N03  Fn3
 BYTE   W12
 BYTE   Cn3  v100
 BYTE   N03  Fn3  v108
 BYTE   W12
//  #05 //029   ----------------------------------------
 BYTE   W12
 BYTE   Bn2  v100
 BYTE   N03  Gn3  v108
 BYTE   W12
 BYTE   N02  Bn2  v096
 BYTE   N03  Gn3  v104
 BYTE   W12
 BYTE   N05  Bn2  v096
 BYTE   N03  Gn3  v100
 BYTE   W12
 BYTE   Bn2
 BYTE   N03  Gn3  v108
 BYTE   W12
 BYTE   Bn2  v100
 BYTE   N03  Gn3  v108
 BYTE   W12
 BYTE   Bn2  v116
 BYTE   N03  Gn3
 BYTE   W12
 BYTE   Bn2  v100
 BYTE   N03  Gn3  v108
 BYTE   W12
//  #05 //030   ----------------------------------------
 BYTE   VOICE   51
 BYTE   N68  En3
 BYTE   N68  Dn4  v104
 BYTE   W78
 BYTE   N03  Bn3  v096
 BYTE   W03
 BYTE   Cn4  v084
 BYTE   W04
 BYTE   Dn4  v088
 BYTE   W03
 BYTE   En4  v116
 BYTE   W04
 BYTE   Fs4  v096
 BYTE   W04
//  #05 //031   ----------------------------------------
 BYTE   N92  Bn3  v104
 BYTE   N44  Gn4  v096
 BYTE   W48
 BYTE   Fn4
 BYTE   W48
//  #05 //032   ----------------------------------------
 BYTE   VOICE   51
 BYTE   W72
 BYTE   N92  An2  v092
 BYTE   W24
//  #05 //033   ----------------------------------------
 BYTE   W72
 BYTE   N05  An2  v084
 BYTE   W06
 BYTE   Bn2  v064
 BYTE   W06
 BYTE   N04  Cn3
 BYTE   W06
 BYTE   N05  Dn3  v084
 BYTE   W06
//  #05 //034   ----------------------------------------
 BYTE   N68  En3  v096
 BYTE   W72
 BYTE   N92  Dn3  v092
 BYTE   W24
//  #05 //035   ----------------------------------------
 BYTE   W72
 BYTE   N23  Cn3  v064
 BYTE   W24
//  #05 //036   ----------------------------------------
 BYTE   TIE  Bn2  v092
 BYTE   W96
//  #05 //037   ----------------------------------------
 BYTE   W44
 BYTE   W03
 BYTE   EOT
 BYTE   W01
 BYTE   N23  Gn3  v084
 BYTE   W24
 BYTE   Fn3  v072
 BYTE   W24
//  #05 //038   ----------------------------------------
 BYTE   N68  En3  v092
 BYTE   W72
 BYTE   N92  Cs3  v088
 BYTE   W24
//  #05 //039   ----------------------------------------
 BYTE   W72
 BYTE   N11  Dn3  v084
 BYTE   W12
 BYTE   En3  v092
 BYTE   W12
//  #05 //040   ----------------------------------------
 BYTE   TIE  Fn3  v076
 BYTE   W96
//  #05 //041   ----------------------------------------
 BYTE   W23
 BYTE   EOT
 BYTE   W01
 BYTE   N23  An2  v084
 BYTE   W24
 BYTE   Bn2  v092
 BYTE   W24
 BYTE   Cn3  v072
 BYTE   W24
//  #05 //042   ----------------------------------------
 BYTE   N92  Dn3  v092
 BYTE   W96
//  #05 //043   ----------------------------------------
 BYTE   N90  Fn3  v080
 BYTE   W96
//  #05 //044   ----------------------------------------
 BYTE   GoTo
  POIN2 Label_012BFAE3
 BYTE   FINE

//**************** Track 6 (Midi-Chn.5) ****************//

FE07CompanionsAlice_006:
//  #06 //000   ----------------------------------------
 BYTE   KEYSH   FE07CompanionsAlice_key+0
 BYTE   W24
Label_012BFE27:
 BYTE   W96
//  #06 //001   ----------------------------------------
 BYTE   W96
//  #06 //002   ----------------------------------------
 BYTE   W96
//  #06 //003   ----------------------------------------
 BYTE   W96
//  #06 //004   ----------------------------------------
 BYTE   W96
//  #06 //005   ----------------------------------------
 BYTE   W96
//  #06 //006   ----------------------------------------
 BYTE   W96
//  #06 //007   ----------------------------------------
 BYTE   W96
//  #06 //008   ----------------------------------------
 BYTE   W96
//  #06 //009   ----------------------------------------
 BYTE   W96
//  #06 //010   ----------------------------------------
 BYTE   W96
//  #06 //011   ----------------------------------------
 BYTE   W96
//  #06 //012   ----------------------------------------
 BYTE   W96
//  #06 //013   ----------------------------------------
 BYTE   W96
//  #06 //014   ----------------------------------------
 BYTE   W96
//  #06 //015   ----------------------------------------
 BYTE   W48
 BYTE   VOICE   60
 BYTE   VOL   53*FE07CompanionsAlice_mvl/mxv
 BYTE   PAN   c_v+2
 BYTE   W48
//  #06 //016   ----------------------------------------
 BYTE   N52  An3  v100
 BYTE   W54
 BYTE   N05  An3  v028
 BYTE   W06
 BYTE   En3  v112
 BYTE   W06
 BYTE   En3  v028
 BYTE   W06
 BYTE   An3  v108
 BYTE   W06
 BYTE   An3  v028
 BYTE   W06
 BYTE   En4  v108
 BYTE   W06
 BYTE   En4  v028
 BYTE   W06
//  #06 //017   ----------------------------------------
 BYTE   N17  Dn4  v104
 BYTE   W18
 BYTE   N05  Dn4  v028
 BYTE   W06
 BYTE   N17  Cn4  v100
 BYTE   W18
 BYTE   N05  Cn4  v028
 BYTE   W06
 BYTE   N17  Bn3  v104
 BYTE   W18
 BYTE   N05  Bn3  v028
 BYTE   W06
 BYTE   N16  An3  v100
 BYTE   W18
 BYTE   N05  An3  v028
 BYTE   W06
//  #06 //018   ----------------------------------------
 BYTE   Bn3  v100
 BYTE   W06
 BYTE   Bn3  v028
 BYTE   W06
 BYTE   Cn4  v100
 BYTE   W06
 BYTE   Cn4  v028
 BYTE   W06
 BYTE   N68  Cn4  v104
 BYTE   W72
//  #06 //019   ----------------------------------------
 BYTE   N05  Cn4  v028
 BYTE   W12
 BYTE   An3  v080
 BYTE   W12
 BYTE   Bn3
 BYTE   W12
 BYTE   N19  Cn4  v076
 BYTE   W24
 BYTE   N07  Cn4  v080
 BYTE   W12
 BYTE   N10  Bn3  v088
 BYTE   W12
 BYTE   N08  An3  v080
 BYTE   W12
//  #06 //020   ----------------------------------------
 BYTE   N52  An3  v116
 BYTE   W54
 BYTE   N05  An3  v028
 BYTE   W06
 BYTE   N04  En3  v112
 BYTE   W06
 BYTE   N05  En3  v028
 BYTE   W06
 BYTE   N04  An3  v112
 BYTE   W06
 BYTE   N05  An3  v028
 BYTE   W06
 BYTE   En4  v108
 BYTE   W06
 BYTE   En4  v028
 BYTE   W06
//  #06 //021   ----------------------------------------
 BYTE   N17  Dn4  v112
 BYTE   W18
 BYTE   N05  Dn4  v028
 BYTE   W06
 BYTE   N16  Cn4  v104
 BYTE   W18
 BYTE   N05  Cn4  v028
 BYTE   W06
 BYTE   N15  Bn3  v108
 BYTE   W18
 BYTE   N05  Bn3  v028
 BYTE   W06
 BYTE   N17  An3  v108
 BYTE   W18
 BYTE   N05  An3  v028
 BYTE   W06
//  #06 //022   ----------------------------------------
 BYTE   N04  Bn3  v116
 BYTE   W06
 BYTE   N05  Bn3  v028
 BYTE   W06
 BYTE   Cn4  v096
 BYTE   W06
 BYTE   Cn4  v028
 BYTE   W06
 BYTE   N68  Dn4  v100
 BYTE   W72
//  #06 //023   ----------------------------------------
 BYTE   N11  Dn4  v028
 BYTE   W12
 BYTE   N10  An3  v072
 BYTE   W12
 BYTE   N11  Bn3  v080
 BYTE   W12
 BYTE   N17  Cn4  v076
 BYTE   W24
 BYTE   N11  Cn4  v084
 BYTE   W12
 BYTE   Gn3  v080
 BYTE   W12
 BYTE   N10  En3  v068
 BYTE   W12
//  #06 //024   ----------------------------------------
 BYTE   N52  An3  v108
 BYTE   W60
 BYTE   N11  An3  v092
 BYTE   W12
 BYTE   Bn3  v104
 BYTE   W12
 BYTE   Cn4  v080
 BYTE   W12
//  #06 //025   ----------------------------------------
 BYTE   N54  Dn4  v104
 BYTE   W60
 BYTE   N11  Dn4  v108
 BYTE   W12
 BYTE   En4
 BYTE   W12
 BYTE   Fn4  v092
 BYTE   W12
//  #06 //026   ----------------------------------------
 BYTE   N44  Gn4  v104
 BYTE   W48
 BYTE   Bn3  v108
 BYTE   W48
//  #06 //027   ----------------------------------------
 BYTE   N68  Cn4
 BYTE   W72
 BYTE   N23  Bn3  v100
 BYTE   W24
//  #06 //028   ----------------------------------------
 BYTE   N52  An3  v108
 BYTE   W60
 BYTE   N11
 BYTE   W12
 BYTE   Bn3  v100
 BYTE   W12
 BYTE   N09  Cn4  v084
 BYTE   W12
//  #06 //029   ----------------------------------------
 BYTE   N48  Dn4  v108
 BYTE   W60
 BYTE   N10
 BYTE   W12
 BYTE   N11  En4  v104
 BYTE   W12
 BYTE   Fn4  v092
 BYTE   W12
//  #06 //030   ----------------------------------------
 BYTE   N44  Gn4
 BYTE   W48
 BYTE   N42  Bn4  v088
 BYTE   W48
//  #06 //031   ----------------------------------------
 BYTE   N40  An4  v092
 BYTE   W48
 BYTE   N36  Fn4  v100
 BYTE   W48
//  #06 //032   ----------------------------------------
 BYTE   N11  Cn4
 BYTE   W12
 BYTE   Bn3  v088
 BYTE   W12
 BYTE   N04  An3  v096
 BYTE   W12
 BYTE   N11  Cn4  v104
 BYTE   W12
 BYTE   Bn3  v092
 BYTE   W12
 BYTE   N05  An3  v096
 BYTE   W12
 BYTE   N11  Cn4  v100
 BYTE   W12
 BYTE   Bn3  v088
 BYTE   W12
//  #06 //033   ----------------------------------------
 BYTE   N04  An3  v096
 BYTE   W12
 BYTE   N11  Cn4  v104
 BYTE   W12
 BYTE   Bn3  v100
 BYTE   W12
 BYTE   N05  An3  v088
 BYTE   W12
 BYTE   N11  Cn4  v104
 BYTE   W12
 BYTE   N06  Bn3  v096
 BYTE   W12
 BYTE   N11  An3  v116
 BYTE   W12
 BYTE   N04  Cn4  v088
 BYTE   W12
//  #06 //034   ----------------------------------------
 BYTE   N11  Dn4  v104
 BYTE   W12
 BYTE   Cn4  v060
 BYTE   W12
 BYTE   N04  Bn3  v080
 BYTE   W12
 BYTE   N11  Dn4  v104
 BYTE   W12
 BYTE   Cn4  v080
 BYTE   W12
 BYTE   N05  Bn3  v104
 BYTE   W12
 BYTE   N11  Dn4  v108
 BYTE   W12
 BYTE   Cn4  v056
 BYTE   W12
//  #06 //035   ----------------------------------------
 BYTE   N04  Bn3  v100
 BYTE   W12
 BYTE   N11  Dn4  v104
 BYTE   W12
 BYTE   Cn4  v060
 BYTE   W12
 BYTE   N04  Bn3  v080
 BYTE   W12
 BYTE   N11  Dn4  v104
 BYTE   W12
 BYTE   N07  Cn4  v080
 BYTE   W12
 BYTE   N11  Bn3  v104
 BYTE   W12
 BYTE   N03  Cn4  v084
 BYTE   W12
//  #06 //036   ----------------------------------------
 BYTE   N11  Dn4  v104
 BYTE   W12
 BYTE   Cn4  v064
 BYTE   W12
 BYTE   N05  Bn3  v092
 BYTE   W12
 BYTE   N11  Dn4  v104
 BYTE   W12
 BYTE   Cn4  v064
 BYTE   W12
 BYTE   N05  Bn3  v084
 BYTE   W12
 BYTE   N11  Dn4  v100
 BYTE   W12
 BYTE   Cn4  v064
 BYTE   W12
//  #06 //037   ----------------------------------------
 BYTE   N05  Bn3  v080
 BYTE   W12
 BYTE   N11  Dn4  v100
 BYTE   W12
 BYTE   Cn4  v076
 BYTE   W12
 BYTE   N05  Bn3
 BYTE   W12
 BYTE   N11  Dn4  v104
 BYTE   W12
 BYTE   N08  Cn4  v068
 BYTE   W12
 BYTE   N09  Dn4  v088
 BYTE   W12
 BYTE   N06  Cn4  v076
 BYTE   W12
//  #06 //038   ----------------------------------------
 BYTE   N11  En4  v108
 BYTE   W12
 BYTE   Dn4  v084
 BYTE   W12
 BYTE   N04  Cs4
 BYTE   W12
 BYTE   N11  En4  v116
 BYTE   W12
 BYTE   Dn4  v088
 BYTE   W12
 BYTE   N04  Cs4  v084
 BYTE   W12
 BYTE   N11  En4  v124
 BYTE   W12
 BYTE   Dn4  v092
 BYTE   W12
//  #06 //039   ----------------------------------------
 BYTE   N04  Cs4  v084
 BYTE   W12
 BYTE   N11  En4  v120
 BYTE   W12
 BYTE   Dn4  v084
 BYTE   W12
 BYTE   N05  Cs4  v092
 BYTE   W12
 BYTE   N11  En4  v112
 BYTE   W12
 BYTE   Dn4  v084
 BYTE   W12
 BYTE   Cs4  v092
 BYTE   W12
 BYTE   En4  v116
 BYTE   W12
//  #06 //040   ----------------------------------------
 BYTE   W96
//  #06 //041   ----------------------------------------
 BYTE   W96
//  #06 //042   ----------------------------------------
 BYTE   W96
//  #06 //043   ----------------------------------------
 BYTE   W96
//  #06 //044   ----------------------------------------
 BYTE   GoTo
  POIN2 Label_012BFE27
 BYTE   FINE

//**************** Track 7 (Midi-Chn.6) ****************//

FE07CompanionsAlice_007:
//  #07 //000   ----------------------------------------
 BYTE   KEYSH   FE07CompanionsAlice_key+0
 BYTE   W24
Label_54D863:
 BYTE   W96
//  #07 //001   ----------------------------------------
 BYTE   W96
//  #07 //002   ----------------------------------------
 BYTE   W96
//  #07 //003   ----------------------------------------
 BYTE   W96
//  #07 //004   ----------------------------------------
 BYTE   W96
//  #07 //005   ----------------------------------------
 BYTE   W96
//  #07 //006   ----------------------------------------
 BYTE   W96
//  #07 //007   ----------------------------------------
 BYTE   W96
//  #07 //008   ----------------------------------------
 BYTE   W96
//  #07 //009   ----------------------------------------
 BYTE   W96
//  #07 //010   ----------------------------------------
 BYTE   W96
//  #07 //011   ----------------------------------------
 BYTE   W96
//  #07 //012   ----------------------------------------
 BYTE   W96
//  #07 //013   ----------------------------------------
 BYTE   W96
//  #07 //014   ----------------------------------------
 BYTE   W96
//  #07 //015   ----------------------------------------
 BYTE   W96
//  #07 //016   ----------------------------------------
 BYTE   W96
//  #07 //017   ----------------------------------------
 BYTE   W96
//  #07 //018   ----------------------------------------
 BYTE   VOICE   71
 BYTE   VOL   28*FE07CompanionsAlice_mvl/mxv
 BYTE   PAN   c_v+6
 BYTE   W60
 BYTE   N03  Cn4  v088
 BYTE   W12
 BYTE   Dn4  v096
 BYTE   W12
 BYTE   N14  En4  v104
 BYTE   W12
//  #07 //019   ----------------------------------------
 BYTE   W12
 BYTE   N03  Cn5  v080
 BYTE   W12
 BYTE   Dn5  v092
 BYTE   W12
 BYTE   N17  En5
 BYTE   W24
 BYTE   N05  En5  v096
 BYTE   W12
 BYTE   N04  Dn5  v088
 BYTE   W12
 BYTE   N03  Cn5  v092
 BYTE   W12
//  #07 //020   ----------------------------------------
 BYTE   W96
//  #07 //021   ----------------------------------------
 BYTE   W96
//  #07 //022   ----------------------------------------
 BYTE   W60
 BYTE   En4  v100
 BYTE   W12
 BYTE   N05  Fn4  v072
 BYTE   W12
 BYTE   N13  Gn4  v092
 BYTE   W12
//  #07 //023   ----------------------------------------
 BYTE   W12
 BYTE   N04  Cn5  v108
 BYTE   W12
 BYTE   Dn5  v084
 BYTE   W12
 BYTE   N22  En5  v092
 BYTE   W24
 BYTE   N12  En5  v096
 BYTE   W12
 BYTE   N13  Cn5  v076
 BYTE   W12
 BYTE   N12  Gn4  v096
 BYTE   W12
//  #07 //024   ----------------------------------------
 BYTE   W96
//  #07 //025   ----------------------------------------
 BYTE   W96
//  #07 //026   ----------------------------------------
 BYTE   W96
//  #07 //027   ----------------------------------------
 BYTE   W96
//  #07 //028   ----------------------------------------
 BYTE   W96
//  #07 //029   ----------------------------------------
 BYTE   W96
//  #07 //030   ----------------------------------------
 BYTE   W96
//  #07 //031   ----------------------------------------
 BYTE   W96
//  #07 //032   ----------------------------------------
 BYTE   Fn4
 BYTE   W36
 BYTE   N13  Fn4  v100
 BYTE   W36
 BYTE   N14
 BYTE   W24
//  #07 //033   ----------------------------------------
 BYTE   W12
 BYTE   N12
 BYTE   W36
 BYTE   N14
 BYTE   W24
 BYTE   N13  Fn4  v088
 BYTE   W24
//  #07 //034   ----------------------------------------
 BYTE   N12  Gn4  v116
 BYTE   W36
 BYTE   N11  Gn4  v112
 BYTE   W36
 BYTE   N16  Gn4  v104
 BYTE   W24
//  #07 //035   ----------------------------------------
 BYTE   W12
 BYTE   N12  Gn4  v116
 BYTE   W36
 BYTE   N11  Gn4  v112
 BYTE   W48
//  #07 //036   ----------------------------------------
 BYTE   N16  Gn4  v116
 BYTE   W36
 BYTE   N13  Gn4  v108
 BYTE   W36
 BYTE   N14  Gn4  v112
 BYTE   W24
//  #07 //037   ----------------------------------------
 BYTE   W12
 BYTE   N12  Gn4  v108
 BYTE   W36
 BYTE   Gn4  v112
 BYTE   W24
 BYTE   Gn4  v116
 BYTE   W24
//  #07 //038   ----------------------------------------
 BYTE   N19  An4  v104
 BYTE   W36
 BYTE   N17  An4  v108
 BYTE   W36
 BYTE   N15
 BYTE   W24
//  #07 //039   ----------------------------------------
 BYTE   W12
 BYTE   N17  An4  v112
 BYTE   W36
 BYTE   N13  An4  v104
 BYTE   W24
 BYTE   N13
 BYTE   W24
//  #07 //040   ----------------------------------------
 BYTE   N56  Fn4  v096
 BYTE   W60
 BYTE   N06  Dn4  v100
 BYTE   W12
 BYTE   N03  En4
 BYTE   W12
 BYTE   N04  Fn4  v092
 BYTE   W12
//  #07 //041   ----------------------------------------
 BYTE   N56  An4
 BYTE   W60
 BYTE   N05  Fn4
 BYTE   W12
 BYTE   Gn4  v096
 BYTE   W12
 BYTE   An4  v100
 BYTE   W12
//  #07 //042   ----------------------------------------
 BYTE   N84  Cn5  v096
 BYTE   W96
//  #07 //043   ----------------------------------------
 BYTE   N88  Bn4  v104
 BYTE   W96
//  #07 //044   ----------------------------------------
 BYTE   GoTo
  POIN2 Label_54D863
 BYTE   FINE

//******************************************************//
	ALIGN 4

FE07CompanionsAlice:
	BYTE	7	// NumTrks
	BYTE	0	// NumBlks
	BYTE	FE07CompanionsAlice_pri	// Priority
	BYTE	FE07CompanionsAlice_rev	// Reverb.
    
	POIN2	FE07CompanionsAlice_grp
    
	POIN2	FE07CompanionsAlice_001
	POIN2	FE07CompanionsAlice_002
	POIN2	FE07CompanionsAlice_003
	POIN2	FE07CompanionsAlice_004
	POIN2	FE07CompanionsAlice_005
	POIN2	FE07CompanionsAlice_006
	POIN2	FE07CompanionsAlice_007

	
