//Event file generated from Sappy .s format.
	#include "MPlayDef.event"

	#define	FE07SafeguardAlice_grp  voicegroup000
	#define	FE07SafeguardAlice_pri  10
	#define	FE07SafeguardAlice_rev  128
	#define	FE07SafeguardAlice_mvl  127
	#define	FE07SafeguardAlice_key  0
	#define	FE07SafeguardAlice_tbs  1
	#define	FE07SafeguardAlice_exg  0
	#define	FE07SafeguardAlice_cmp  1

	// .rodata
	//	FE07SafeguardAlice
	ALIGN 4


//**************** Track 1 (Midi-Chn.0) ****************//

FE07SafeguardAlice_001:
//  #01 //000   ----------------------------------------
 BYTE   KEYSH   FE07SafeguardAlice_key+0
 BYTE   TEMPO   154*FE07SafeguardAlice_tbs/2
 BYTE   VOICE   33
 BYTE   VOL   52*FE07SafeguardAlice_mvl/mxv
 BYTE   PAN   c_v+0
 BYTE   W24
Label_55E0B7:
 BYTE   N04  Cn2  v116
 BYTE   W12
 BYTE   N04
 BYTE   W12
 BYTE   N04
 BYTE   W12
 BYTE   N02
 BYTE   W12
 BYTE   N04
 BYTE   W12
 BYTE   N04
 BYTE   W12
//  #01 //001   ----------------------------------------
 BYTE   N04
 BYTE   W12
 BYTE   N04
 BYTE   W12
 BYTE   N04
 BYTE   W12
 BYTE   N04
 BYTE   W12
 BYTE   N04
 BYTE   W12
 BYTE   N04
 BYTE   W12
 BYTE   N04
 BYTE   W12
 BYTE   N05
 BYTE   W12
//  #01 //002   ----------------------------------------
 BYTE   N04
 BYTE   W12
 BYTE   N04
 BYTE   W12
 BYTE   N04
 BYTE   W12
 BYTE   N05
 BYTE   W12
 BYTE   N04
 BYTE   W12
 BYTE   N04
 BYTE   W12
 BYTE   N04
 BYTE   W12
 BYTE   N04
 BYTE   W12
//  #01 //003   ----------------------------------------
 BYTE   N03
 BYTE   W12
 BYTE   N04
 BYTE   W12
 BYTE   N04
 BYTE   W12
 BYTE   N04
 BYTE   W12
 BYTE   N04
 BYTE   W12
 BYTE   N04
 BYTE   W12
 BYTE   N04
 BYTE   W12
 BYTE   N05
 BYTE   W12
//  #01 //004   ----------------------------------------
 BYTE   N05
 BYTE   W12
 BYTE   N04
 BYTE   W12
 BYTE   N04
 BYTE   W12
 BYTE   N04
 BYTE   W12
 BYTE   N05
 BYTE   W12
 BYTE   N05
 BYTE   W12
 BYTE   N11
 BYTE   W12
 BYTE   N10  Bn1
 BYTE   W12
//  #01 //005   ----------------------------------------
 BYTE   Cn2
 BYTE   W12
 BYTE   N11  Cs2
 BYTE   W12
 BYTE   TIE  Dn2
 BYTE   W96
//  #01 //006   ----------------------------------------
 BYTE   W92
 BYTE   W01
 BYTE   EOT
 BYTE   W03
//  #01 //007   ----------------------------------------
 BYTE   TIE  Ds2
 BYTE   W96
//  #01 //008   ----------------------------------------
 BYTE   W92
 BYTE   W03
 BYTE   EOT
 BYTE   W01
//  #01 //009   ----------------------------------------
 BYTE   TIE  En2
 BYTE   W96
//  #01 //010   ----------------------------------------
 BYTE   W80
 BYTE   W03
 BYTE   EOT
 BYTE   W13
//  #01 //011   ----------------------------------------
 BYTE   N88  Fn2
 BYTE   W96
//  #01 //012   ----------------------------------------
 BYTE   W12
 BYTE   N02  Ds2
 BYTE   W24
 BYTE   N04
 BYTE   W24
 BYTE   N22
 BYTE   W36
//  #01 //013   ----------------------------------------
 BYTE   GoTo
  POIN2 Label_55E0B7
 BYTE   FINE

//**************** Track 2 (Midi-Chn.1) ****************//

FE07SafeguardAlice_002:
//  #02 //000   ----------------------------------------
 BYTE   KEYSH   FE07SafeguardAlice_key+0
 BYTE   VOICE   40
 BYTE   VOL   43*FE07SafeguardAlice_mvl/mxv
 BYTE   PAN   c_v-13
 BYTE   W24
Label_55E3A5:
 BYTE   N07  Cn3  v084
 BYTE   N08  Gn3  v104
 BYTE   W12
 BYTE   N03  Cn3  v028
 BYTE   N04  Gn3  v032
 BYTE   W24
 BYTE   N06  Cn3  v104
 BYTE   N07  Gn3  v120
 BYTE   W12
 BYTE   N03  Cn3  v032
 BYTE   N04  Gn3
 BYTE   W24
//  #02 //001   ----------------------------------------
 BYTE   N06  Cn3  v112
 BYTE   N07  Gn3  v127
 BYTE   W12
 BYTE   N03  Cn3  v036
 BYTE   N04  Gn3
 BYTE   W12
 BYTE   PEND 
//  #02 //002   ----------------------------------------
 BYTE   PATT
  POIN2 Label_55E3A5
//  #02 //003   ----------------------------------------
 BYTE   PATT
  POIN2 Label_55E3A5
//  #02 //004   ----------------------------------------
 BYTE   PATT
  POIN2 Label_55E3A5
//  #02 //005   ----------------------------------------
 BYTE   N07  Gn2  v084
 BYTE   N08  Dn3  v104
 BYTE   W12
 BYTE   N03  Gn2  v028
 BYTE   N04  Dn3  v032
 BYTE   W24
 BYTE   N06  Gn2  v104
 BYTE   N07  Dn3  v120
 BYTE   W12
 BYTE   N03  Gn2  v032
 BYTE   N04  Dn3
 BYTE   W24
 BYTE   N06  Gn2  v112
 BYTE   N07  Dn3  v127
 BYTE   W12
 BYTE   N03  Gn2  v036
 BYTE   N04  Dn3
 BYTE   W12
//  #02 //006   ----------------------------------------
 BYTE   TIE  Fn2  v100
 BYTE   TIE  Cn3  v108
 BYTE   W96
//  #02 //007   ----------------------------------------
 BYTE   W80
 BYTE   W01
 BYTE   EOT
 BYTE   Fn2
 BYTE   W03
 BYTE   Cn3
 BYTE   W12
//  #02 //008   ----------------------------------------
 BYTE   TIE  Fs2  v088
 BYTE   TIE  Cs3
 BYTE   W96
//  #02 //009   ----------------------------------------
 BYTE   W88
 BYTE   W01
 BYTE   EOT
 BYTE   Fs2
 BYTE   W05
 BYTE   Cs3
 BYTE   W02
//  #02 //010   ----------------------------------------
 BYTE   N11  Gn2  v108
 BYTE   N10  Dn3  v124
 BYTE   W12
 BYTE   N09  Gn2  v036
 BYTE   N10  Dn3
 BYTE   W84
//  #02 //011   ----------------------------------------
 BYTE   W96
//  #02 //012   ----------------------------------------
 BYTE   N05  Fn3  v064
 BYTE   W06
 BYTE   Gs3
 BYTE   W06
 BYTE   Gn3
 BYTE   W06
 BYTE   Fs3
 BYTE   W06
 BYTE   Fn3  v072
 BYTE   W06
 BYTE   Gs3
 BYTE   W06
 BYTE   Gn3
 BYTE   W06
 BYTE   Fs3
 BYTE   W06
 BYTE   Fn3  v076
 BYTE   W06
 BYTE   Gs3
 BYTE   W06
 BYTE   Gn3
 BYTE   W06
 BYTE   Fs3
 BYTE   W06
 BYTE   Fn3  v092
 BYTE   W06
 BYTE   Gs3
 BYTE   W06
 BYTE   Gn3
 BYTE   W06
 BYTE   Fs3
 BYTE   W06
//  #02 //013   ----------------------------------------
 BYTE   Fn3
 BYTE   W06
 BYTE   Gs3
 BYTE   W06
 BYTE   Gn3
 BYTE   W06
 BYTE   Fs3
 BYTE   W06
 BYTE   Fn3  v100
 BYTE   W06
 BYTE   Gs3
 BYTE   W06
 BYTE   Gn3
 BYTE   W06
 BYTE   Fs3
 BYTE   W06
 BYTE   Fn3  v112
 BYTE   W06
 BYTE   Gs3
 BYTE   W06
 BYTE   Gn3
 BYTE   W06
 BYTE   Fs3
 BYTE   W06
 BYTE   Fn3  v120
 BYTE   W06
 BYTE   Gs3
 BYTE   W06
 BYTE   Gn3
 BYTE   W06
 BYTE   Fs3
 BYTE   W06
//  #02 //014   ----------------------------------------
 BYTE   GoTo
  POIN2 Label_55E3A5
 BYTE   FINE

//**************** Track 3 (Midi-Chn.2) ****************//

FE07SafeguardAlice_003:
//  #03 //000   ----------------------------------------
 BYTE   KEYSH   FE07SafeguardAlice_key+0
 BYTE   VOICE   57
 BYTE   VOL   55*FE07SafeguardAlice_mvl/mxv
 BYTE   PAN   c_v+2
 BYTE   N05  Cn3  v048
 BYTE   N05  Fn3  v100
 BYTE   W06
 BYTE   Fn3  v048
 BYTE   N05  As3  v100
 BYTE   W06
 BYTE   Gn3  v048
 BYTE   N05  Cn4  v100
 BYTE   W06
 BYTE   Cn4  v048
 BYTE   N05  Fn4  v100
 BYTE   W06
Label_012BCCC5:
 BYTE   N30  Dn3  v092
 BYTE   N30  Gn3  v100
 BYTE   W36
 BYTE   N28  Fn3  v092
 BYTE   N28  As3  v100
 BYTE   W36
//  #03 //001   ----------------------------------------
 BYTE   N30  En3  v092
 BYTE   N28  An3  v100
 BYTE   W24
 BYTE   W12
 BYTE   N32  Ds3  v092
 BYTE   N32  Gs3  v100
 BYTE   W36
 BYTE   N44  Dn3  v092
 BYTE   N44  Gn3  v100
 BYTE   W48
//  #03 //002   ----------------------------------------
 BYTE   W96
//  #03 //003   ----------------------------------------
 BYTE   W48
 BYTE   N11  Cn3  v092
 BYTE   N11  Fn3  v100
 BYTE   W12
 BYTE   Cs3  v092
 BYTE   N11  Gn3  v100
 BYTE   W12
 BYTE   Ds3  v092
 BYTE   N11  Gs3  v100
 BYTE   W12
 BYTE   En3  v092
 BYTE   N11  An3  v100
 BYTE   W12
//  #03 //004   ----------------------------------------
 BYTE   N44  Fn3  v092
 BYTE   N44  As3  v100
 BYTE   W48
 BYTE   Fs3  v092
 BYTE   N44  Bn3  v100
 BYTE   W48
//  #03 //005   ----------------------------------------
 BYTE   N12  Gn3  v092
 BYTE   N12  Cn4  v100
 BYTE   W96
//  #03 //006   ----------------------------------------
 BYTE   W96
//  #03 //007   ----------------------------------------
 BYTE   W24
 BYTE   N30  As3  v108
 BYTE   W36
 BYTE   N28  Cs4
 BYTE   W36
//  #03 //008   ----------------------------------------
 BYTE   N30  Cn4
 BYTE   W36
 BYTE   N24  Bn3
 BYTE   W36
 BYTE   N17  As3
 BYTE   W23
 BYTE   VOL   55*FE07SafeguardAlice_mvl/mxv
 BYTE   W01
//  #03 //009   ----------------------------------------
 BYTE   VOL   53*FE07SafeguardAlice_mvl/mxv
 BYTE   N05  As2  v076
 BYTE   W01
 BYTE   VOL   50*FE07SafeguardAlice_mvl/mxv
 BYTE   W01
 BYTE   VOL   47*FE07SafeguardAlice_mvl/mxv
 BYTE   W01
 BYTE   VOL   45*FE07SafeguardAlice_mvl/mxv
 BYTE   W01
 BYTE   VOL   42*FE07SafeguardAlice_mvl/mxv
 BYTE   W01
 BYTE   VOL   39*FE07SafeguardAlice_mvl/mxv
 BYTE   W01
 BYTE   VOL   37*FE07SafeguardAlice_mvl/mxv
 BYTE   N05  Cs3
 BYTE   W01
 BYTE   VOL   35*FE07SafeguardAlice_mvl/mxv
 BYTE   W01
 BYTE   VOL   32*FE07SafeguardAlice_mvl/mxv
 BYTE   W01
 BYTE   VOL   30*FE07SafeguardAlice_mvl/mxv
 BYTE   W01
 BYTE   VOL   27*FE07SafeguardAlice_mvl/mxv
 BYTE   W02
 BYTE   N05  Cn3
 BYTE   W06
 BYTE   Bn2
 BYTE   W01
 BYTE   VOL   28*FE07SafeguardAlice_mvl/mxv
 BYTE   W04
 BYTE   VOL   28*FE07SafeguardAlice_mvl/mxv
 BYTE   W01
 BYTE   N05  As2
 BYTE   W03
 BYTE   VOL   29*FE07SafeguardAlice_mvl/mxv
 BYTE   W03
 BYTE   N05  Cs3
 BYTE   W01
 BYTE   VOL   29*FE07SafeguardAlice_mvl/mxv
 BYTE   W05
 BYTE   VOL   30*FE07SafeguardAlice_mvl/mxv
 BYTE   N05  Cn3
 BYTE   W04
 BYTE   VOL   30*FE07SafeguardAlice_mvl/mxv
 BYTE   W02
 BYTE   N04  Bn2
 BYTE   W02
 BYTE   VOL   30*FE07SafeguardAlice_mvl/mxv
 BYTE   W04
 BYTE   N05  As2
 BYTE   W01
 BYTE   VOL   31*FE07SafeguardAlice_mvl/mxv
 BYTE   W04
 BYTE   VOL   31*FE07SafeguardAlice_mvl/mxv
 BYTE   W01
 BYTE   N05  Cs3
 BYTE   W03
 BYTE   VOL   32*FE07SafeguardAlice_mvl/mxv
 BYTE   W03
 BYTE   N05  Cn3
 BYTE   W02
 BYTE   VOL   32*FE07SafeguardAlice_mvl/mxv
 BYTE   W04
 BYTE   VOL   32*FE07SafeguardAlice_mvl/mxv
 BYTE   N05  Bn2
 BYTE   W04
 BYTE   VOL   33*FE07SafeguardAlice_mvl/mxv
 BYTE   W02
 BYTE   N05  As2
 BYTE   W02
 BYTE   VOL   33*FE07SafeguardAlice_mvl/mxv
 BYTE   W04
 BYTE   N05  Cs3
 BYTE   W01
 BYTE   VOL   34*FE07SafeguardAlice_mvl/mxv
 BYTE   W04
 BYTE   VOL   34*FE07SafeguardAlice_mvl/mxv
 BYTE   W01
 BYTE   N05  Cn3
 BYTE   W03
 BYTE   VOL   35*FE07SafeguardAlice_mvl/mxv
 BYTE   W03
 BYTE   N05  Bn2
 BYTE   W02
 BYTE   VOL   35*FE07SafeguardAlice_mvl/mxv
 BYTE   W04
//  #03 //010   ----------------------------------------
 BYTE   VOL   35*FE07SafeguardAlice_mvl/mxv
 BYTE   N05  As2  v084
 BYTE   W04
 BYTE   VOL   36*FE07SafeguardAlice_mvl/mxv
 BYTE   W02
 BYTE   N05  Cs3
 BYTE   W03
 BYTE   VOL   36*FE07SafeguardAlice_mvl/mxv
 BYTE   W03
 BYTE   N05  Cn3
 BYTE   W01
 BYTE   VOL   37*FE07SafeguardAlice_mvl/mxv
 BYTE   W04
 BYTE   VOL   37*FE07SafeguardAlice_mvl/mxv
 BYTE   W01
 BYTE   N05  Bn2
 BYTE   W03
 BYTE   VOL   37*FE07SafeguardAlice_mvl/mxv
 BYTE   W03
 BYTE   N05  As2
 BYTE   W02
 BYTE   VOL   38*FE07SafeguardAlice_mvl/mxv
 BYTE   W04
 BYTE   VOL   38*FE07SafeguardAlice_mvl/mxv
 BYTE   N05  Cs3
 BYTE   W04
 BYTE   VOL   39*FE07SafeguardAlice_mvl/mxv
 BYTE   W02
 BYTE   N05  Cn3
 BYTE   W03
 BYTE   VOL   39*FE07SafeguardAlice_mvl/mxv
 BYTE   W03
 BYTE   N05  Bn2
 BYTE   W01
 BYTE   VOL   40*FE07SafeguardAlice_mvl/mxv
 BYTE   W04
 BYTE   VOL   40*FE07SafeguardAlice_mvl/mxv
 BYTE   W01
 BYTE   N05  As2
 BYTE   W04
 BYTE   VOL   40*FE07SafeguardAlice_mvl/mxv
 BYTE   W02
 BYTE   N05  Cs3
 BYTE   W02
 BYTE   VOL   41*FE07SafeguardAlice_mvl/mxv
 BYTE   W04
 BYTE   VOL   41*FE07SafeguardAlice_mvl/mxv
 BYTE   N05  Cn3
 BYTE   W04
 BYTE   VOL   42*FE07SafeguardAlice_mvl/mxv
 BYTE   W02
 BYTE   N05  Bn2
 BYTE   W03
 BYTE   VOL   42*FE07SafeguardAlice_mvl/mxv
 BYTE   W03
 BYTE   N05  As2
 BYTE   W01
 BYTE   VOL   42*FE07SafeguardAlice_mvl/mxv
 BYTE   W04
 BYTE   VOL   43*FE07SafeguardAlice_mvl/mxv
 BYTE   W01
 BYTE   N05  Cs3
 BYTE   W04
 BYTE   VOL   43*FE07SafeguardAlice_mvl/mxv
 BYTE   W02
 BYTE   N05  Cn3
 BYTE   W02
 BYTE   VOL   44*FE07SafeguardAlice_mvl/mxv
 BYTE   W04
 BYTE   VOL   44*FE07SafeguardAlice_mvl/mxv
 BYTE   N05  Bn2
 BYTE   W05
 BYTE   VOL   45*FE07SafeguardAlice_mvl/mxv
 BYTE   W01
//  #03 //011   ----------------------------------------
 BYTE   N05  As2  v092
 BYTE   W03
 BYTE   VOL   45*FE07SafeguardAlice_mvl/mxv
 BYTE   W03
 BYTE   N05  Cs3
 BYTE   W01
 BYTE   VOL   45*FE07SafeguardAlice_mvl/mxv
 BYTE   W04
 BYTE   VOL   46*FE07SafeguardAlice_mvl/mxv
 BYTE   W01
 BYTE   N05  Cn3
 BYTE   W04
 BYTE   VOL   46*FE07SafeguardAlice_mvl/mxv
 BYTE   W02
 BYTE   N05  Bn2
 BYTE   W02
 BYTE   VOL   47*FE07SafeguardAlice_mvl/mxv
 BYTE   W04
 BYTE   VOL   47*FE07SafeguardAlice_mvl/mxv
 BYTE   N05  As2
 BYTE   W05
 BYTE   VOL   47*FE07SafeguardAlice_mvl/mxv
 BYTE   W01
 BYTE   N05  Cs3
 BYTE   W03
 BYTE   VOL   48*FE07SafeguardAlice_mvl/mxv
 BYTE   W03
 BYTE   N05  Cn3
 BYTE   W01
 BYTE   VOL   48*FE07SafeguardAlice_mvl/mxv
 BYTE   W05
 BYTE   VOL   49*FE07SafeguardAlice_mvl/mxv
 BYTE   N05  Bn2
 BYTE   W04
 BYTE   VOL   49*FE07SafeguardAlice_mvl/mxv
 BYTE   W02
 BYTE   N05  As2  v100
 BYTE   W02
 BYTE   VOL   50*FE07SafeguardAlice_mvl/mxv
 BYTE   W04
 BYTE   VOL   50*FE07SafeguardAlice_mvl/mxv
 BYTE   N05  Cs3
 BYTE   W05
 BYTE   VOL   50*FE07SafeguardAlice_mvl/mxv
 BYTE   W01
 BYTE   N05  Cn3
 BYTE   W03
 BYTE   VOL   51*FE07SafeguardAlice_mvl/mxv
 BYTE   W03
 BYTE   N05  Bn2
 BYTE   W01
 BYTE   VOL   51*FE07SafeguardAlice_mvl/mxv
 BYTE   W05
 BYTE   VOL   52*FE07SafeguardAlice_mvl/mxv
 BYTE   N05  As2
 BYTE   W04
 BYTE   VOL   52*FE07SafeguardAlice_mvl/mxv
 BYTE   W02
 BYTE   N05  Cs3
 BYTE   W02
 BYTE   VOL   52*FE07SafeguardAlice_mvl/mxv
 BYTE   W04
 BYTE   N05  Cn3
 BYTE   W01
 BYTE   VOL   53*FE07SafeguardAlice_mvl/mxv
 BYTE   W04
 BYTE   VOL   53*FE07SafeguardAlice_mvl/mxv
 BYTE   W01
 BYTE   N05  Bn2
 BYTE   W03
 BYTE   VOL   54*FE07SafeguardAlice_mvl/mxv
 BYTE   W03
//  #03 //012   ----------------------------------------
 BYTE   N05  As2  v112
 BYTE   W01
 BYTE   VOL   54*FE07SafeguardAlice_mvl/mxv
 BYTE   W05
 BYTE   VOL   55*FE07SafeguardAlice_mvl/mxv
 BYTE   N05  Cs3
 BYTE   W04
 BYTE   VOL   55*FE07SafeguardAlice_mvl/mxv
 BYTE   W02
 BYTE   N05  Cn3
 BYTE   W02
 BYTE   VOL   55*FE07SafeguardAlice_mvl/mxv
 BYTE   W04
 BYTE   N05  Bn2
 BYTE   W01
 BYTE   VOL   56*FE07SafeguardAlice_mvl/mxv
 BYTE   W04
 BYTE   VOL   56*FE07SafeguardAlice_mvl/mxv
 BYTE   W01
 BYTE   N05  As2
 BYTE   W03
 BYTE   VOL   57*FE07SafeguardAlice_mvl/mxv
 BYTE   W03
 BYTE   N05  Cs3
 BYTE   W02
 BYTE   VOL   57*FE07SafeguardAlice_mvl/mxv
 BYTE   W04
 BYTE   N05  Cn3
 BYTE   W06
 BYTE   N03  Bn2
 BYTE   W06
 BYTE   N05  As2
 BYTE   W06
 BYTE   Cs3
 BYTE   W06
 BYTE   Cn3
 BYTE   W06
 BYTE   Bn2
 BYTE   W06
 BYTE   As2
 BYTE   W06
 BYTE   Cs3
 BYTE   W06
 BYTE   Cn3
 BYTE   W06
 BYTE   Bn2
 BYTE   W06
//  #03 //013   ----------------------------------------
 BYTE   GoTo
  POIN2 Label_012BCCC5
 BYTE   FINE

//**************** Track 4 (Midi-Chn.3) ****************//

FE07SafeguardAlice_004:
//  #04 //000   ----------------------------------------
 BYTE   KEYSH   FE07SafeguardAlice_key+0
 BYTE   W24
Label_55E663:
 BYTE   W96
//  #04 //001   ----------------------------------------
 BYTE   W96
//  #04 //002   ----------------------------------------
 BYTE   VOICE   50
 BYTE   VOL   45*FE07SafeguardAlice_mvl/mxv
 BYTE   PAN   c_v-14
 BYTE   W12
 BYTE   N04  Bn2  v100
 BYTE   N04  Dn3  v112
 BYTE   W06
 BYTE   Bn2  v020
 BYTE   N04  Dn3  v032
 BYTE   W18
 BYTE   As2  v100
 BYTE   N04  Cs3  v112
 BYTE   W06
 BYTE   As2  v020
 BYTE   N04  Cs3  v032
 BYTE   W18
 BYTE   Cs3  v100
 BYTE   N04  En3  v112
 BYTE   W06
 BYTE   Cs3  v020
 BYTE   N04  En3  v032
 BYTE   W18
 BYTE   Bn2  v100
 BYTE   N04  Dn3  v112
 BYTE   W06
 BYTE   Bn2  v020
 BYTE   N04  Dn3  v032
 BYTE   W06
//  #04 //003   ----------------------------------------
 BYTE   VOICE   49
 BYTE   N92  Dn3  v100
 BYTE   N88  Fn3  v112
 BYTE   W96
//  #04 //004   ----------------------------------------
 BYTE   N92  Ds3  v100
 BYTE   N92  Fs3  v112
 BYTE   W96
//  #04 //005   ----------------------------------------
 BYTE   W96
//  #04 //006   ----------------------------------------
 BYTE   W96
//  #04 //007   ----------------------------------------
 BYTE   W96
//  #04 //008   ----------------------------------------
 BYTE   W96
//  #04 //009   ----------------------------------------
 BYTE   TIE  An2  v100
 BYTE   TIE  Cn3  v112
 BYTE   W96
//  #04 //010   ----------------------------------------
 BYTE   W66
 BYTE   W01
 BYTE   EOT
 BYTE   An2
 BYTE   W01
 BYTE   Cn3
 BYTE   W16
 BYTE   TIE  As2  v100
 BYTE   TIE  Cs3  v112
 BYTE   W12
//  #04 //011   ----------------------------------------
 BYTE   W96
//  #04 //012   ----------------------------------------
 BYTE   EOT
 BYTE   As2
 BYTE   W01
 BYTE   Cs3
 BYTE   W11
 BYTE   N03  Fn3  v100
 BYTE   N03  As3  v112
 BYTE   W24
 BYTE   Fn3  v100
 BYTE   N03  As3  v112
 BYTE   W24
 BYTE   N23  Fn3  v100
 BYTE   N23  As3  v112
 BYTE   W36
//  #04 //013   ----------------------------------------
 BYTE   GoTo
  POIN2 Label_55E663
 BYTE   FINE

//**************** Track 5 (Midi-Chn.4) ****************//

FE07SafeguardAlice_005:
//  #05 //000   ----------------------------------------
 BYTE   KEYSH   FE07SafeguardAlice_key+0
 BYTE   VOICE   127
 BYTE   VOL   40*FE07SafeguardAlice_mvl/mxv
 BYTE   W24
Label_55E6EF:
 BYTE   N44  Cs2  v127
 BYTE   W96
//  #05 //001   ----------------------------------------
 BYTE   W84
 BYTE   N11  Cs2  v068
 BYTE   W12
//  #05 //002   ----------------------------------------
 BYTE   N44  Cs2  v127
 BYTE   W96
//  #05 //003   ----------------------------------------
 BYTE   W90
 BYTE   N05  Cs2  v064
 BYTE   W06
//  #05 //004   ----------------------------------------
 BYTE   N44  Cs2  v104
 BYTE   W84
 BYTE   N05  Cs2  v080
 BYTE   W06
 BYTE   Cs2  v096
 BYTE   W06
//  #05 //005   ----------------------------------------
 BYTE   N44  Cs2  v108
 BYTE   W96
//  #05 //006   ----------------------------------------
 BYTE   W72
 BYTE   N11  Cs2  v100
 BYTE   W12
 BYTE   Cs2  v104
 BYTE   W12
//  #05 //007   ----------------------------------------
 BYTE   N44  Cs2  v127
 BYTE   W96
//  #05 //008   ----------------------------------------
 BYTE   W84
 BYTE   N05  Cs2  v116
 BYTE   W06
 BYTE   Cs2  v104
 BYTE   W06
//  #05 //009   ----------------------------------------
 BYTE   N44
 BYTE   W96
//  #05 //010   ----------------------------------------
 BYTE   W96
//  #05 //011   ----------------------------------------
 BYTE   W96
//  #05 //012   ----------------------------------------
 BYTE   W60
 BYTE   N11  Cs2  v088
 BYTE   W12
 BYTE   Cs2  v100
 BYTE   W12
 BYTE   Cs2  v104
 BYTE   W12
//  #05 //013   ----------------------------------------
 BYTE   GoTo
  POIN2 Label_55E6EF
 BYTE   FINE

//**************** Track 6 (Midi-Chn.5) ****************//

FE07SafeguardAlice_006:
//  #06 //000   ----------------------------------------
 BYTE   KEYSH   FE07SafeguardAlice_key+0
 BYTE   W24
Label_012BCEDF:
 BYTE   VOICE   47
 BYTE   VOL   41*FE07SafeguardAlice_mvl/mxv
 BYTE   PAN   c_v-9
 BYTE   N11  Cn3  v100
 BYTE   W12
 BYTE   N23  Gn2
 BYTE   W24
 BYTE   N23
 BYTE   W24
 BYTE   N23
 BYTE   W24
//  #06 //001   ----------------------------------------
 BYTE   N05  Cn3
 BYTE   W06
 BYTE   Gn2
 BYTE   W06
 BYTE   N11  Cn3
 BYTE   W12
 BYTE   N23  Gn2
 BYTE   W24
 BYTE   N23
 BYTE   W24
 BYTE   N23
 BYTE   W24
//  #06 //002   ----------------------------------------
 BYTE   N11
 BYTE   W12
Label_012BCF01:
 BYTE   N11  Cn3  v100
 BYTE   W12
 BYTE   N23  Gn2
 BYTE   W24
 BYTE   N23
 BYTE   W24
 BYTE   N23
 BYTE   W24
//  #06 //003   ----------------------------------------
 BYTE   N05  Cn3
 BYTE   W06
 BYTE   Gn2
 BYTE   W06
 BYTE   PEND 
//  #06 //004   ----------------------------------------
 BYTE   PATT
  POIN2 Label_012BCF01
//  #06 //005   ----------------------------------------
 BYTE   N32  Cn3  v100
 BYTE   W36
 BYTE   N23  Gn2
 BYTE   W24
 BYTE   N23
 BYTE   W24
 BYTE   N11
 BYTE   W12
//  #06 //006   ----------------------------------------
 BYTE   N42  Cn3
 BYTE   W60
 BYTE   N32
 BYTE   W36
//  #06 //007   ----------------------------------------
 BYTE   Gn2
 BYTE   W36
 BYTE   Cn3
 BYTE   W36
 BYTE   N40  Gn2
 BYTE   W24
//  #06 //008   ----------------------------------------
 BYTE   W24
 BYTE   N32  Cn3
 BYTE   W36
 BYTE   Gn2
 BYTE   W36
//  #06 //009   ----------------------------------------
 BYTE   Cn3
 BYTE   W36
 BYTE   N44  Gn2
 BYTE   W48
 BYTE   N05  Cn3
 BYTE   W06
 BYTE   Gn2
 BYTE   W06
//  #06 //010   ----------------------------------------
 BYTE   N40  Cn3
 BYTE   W48
 BYTE   N11
 BYTE   W12
 BYTE   Gn2
 BYTE   W12
 BYTE   Cn3
 BYTE   W12
 BYTE   N05
 BYTE   W06
 BYTE   Gn2
 BYTE   W06
//  #06 //011   ----------------------------------------
Label_012BCF4B:
 BYTE   N11  Cn3  v100
 BYTE   W12
 BYTE   N05
 BYTE   W06
 BYTE   Gn2
 BYTE   W06
 BYTE   N11  Cn3
 BYTE   W12
 BYTE   N05
 BYTE   W06
 BYTE   Gn2
 BYTE   W06
 BYTE   N11  Cn3
 BYTE   W12
 BYTE   N05
 BYTE   W06
 BYTE   Gn2
 BYTE   W06
 BYTE   N11  Cn3
 BYTE   W12
 BYTE   N05
 BYTE   W06
 BYTE   Gn2
 BYTE   W06
 BYTE   PEND 
//  #06 //012   ----------------------------------------
 BYTE   PATT
  POIN2 Label_012BCF4B
//  #06 //013   ----------------------------------------
 BYTE   N11  Cn3  v100
 BYTE   W12
 BYTE   N11
 BYTE   W12
 BYTE   Gn2
 BYTE   W12
 BYTE   N23  Cn3
 BYTE   W24
 BYTE   N05
 BYTE   W06
 BYTE   N11  Gn2
 BYTE   W12
 BYTE   N05  Cn3
 BYTE   W06
 BYTE   N11  Gn2
 BYTE   W12
//  #06 //014   ----------------------------------------
 BYTE   GoTo
  POIN2 Label_012BCEDF
 BYTE   FINE

//**************** Track 7 (Midi-Chn.6) ****************//

FE07SafeguardAlice_007:
//  #07 //000   ----------------------------------------
 BYTE   KEYSH   FE07SafeguardAlice_key+0
 BYTE   W24
Label_012BCF8F:
 BYTE   W96
//  #07 //001   ----------------------------------------
 BYTE   W96
//  #07 //002   ----------------------------------------
 BYTE   W96
//  #07 //003   ----------------------------------------
 BYTE   W96
//  #07 //004   ----------------------------------------
 BYTE   W96
//  #07 //005   ----------------------------------------
 BYTE   VOICE   40
 BYTE   VOL   45*FE07SafeguardAlice_mvl/mxv
 BYTE   PAN   c_v+16
 BYTE   W24
 BYTE   N24  Fn2  v096
 BYTE   N24  An2  v100
 BYTE   W36
 BYTE   An2  v096
 BYTE   N24  Cn3  v100
 BYTE   W36
//  #07 //006   ----------------------------------------
 BYTE   Gs2  v096
 BYTE   N24  Bn2  v100
 BYTE   W36
 BYTE   Gn2  v096
 BYTE   N24  As2  v100
 BYTE   W36
 BYTE   Fn2  v096
 BYTE   N24  An2  v100
 BYTE   W24
//  #07 //007   ----------------------------------------
 BYTE   W24
 BYTE   Fs2  v096
 BYTE   N24  As2  v100
 BYTE   W36
 BYTE   As2  v096
 BYTE   N24  Cs3  v100
 BYTE   W36
//  #07 //008   ----------------------------------------
 BYTE   An2  v096
 BYTE   N24  Cn3  v100
 BYTE   W36
 BYTE   Gs2  v096
 BYTE   N24  Bn2  v100
 BYTE   W36
 BYTE   Fs2  v096
 BYTE   N24  As2  v100
 BYTE   W24
//  #07 //009   ----------------------------------------
 BYTE   PAN   c_v-9
 BYTE   N17  En1  v108
 BYTE   W24
 BYTE   N17
 BYTE   W24
 BYTE   N17
 BYTE   W24
 BYTE   N16
 BYTE   W24
//  #07 //010   ----------------------------------------
 BYTE   N15
 BYTE   W24
 BYTE   N14
 BYTE   W24
 BYTE   N17
 BYTE   W24
 BYTE   N16
 BYTE   W24
//  #07 //011   ----------------------------------------
 BYTE   N17  Fn1
 BYTE   W24
 BYTE   N14
 BYTE   W24
 BYTE   N15
 BYTE   W24
 BYTE   N14
 BYTE   W24
//  #07 //012   ----------------------------------------
 BYTE   N17
 BYTE   W24
 BYTE   N14  Ds1
 BYTE   W24
 BYTE   N15
 BYTE   W24
 BYTE   N14
 BYTE   W24
//  #07 //013   ----------------------------------------
 BYTE   GoTo
  POIN2 Label_012BCF8F
 BYTE   FINE

//******************************************************//
	ALIGN 4

FE07SafeguardAlice:
	BYTE	7	// NumTrks
	BYTE	0	// NumBlks
	BYTE	FE07SafeguardAlice_pri	// Priority
	BYTE	FE07SafeguardAlice_rev	// Reverb.
    
	POIN2	FE07SafeguardAlice_grp
    
	POIN2	FE07SafeguardAlice_001
	POIN2	FE07SafeguardAlice_002
	POIN2	FE07SafeguardAlice_003
	POIN2	FE07SafeguardAlice_004
	POIN2	FE07SafeguardAlice_005
	POIN2	FE07SafeguardAlice_006
	POIN2	FE07SafeguardAlice_007

	
