//Event file generated from Sappy .s format.
	#include "MPlayDef.event"

	#define	FE07ArenaTristanHollow_grp  voicegroup000
	#define	FE07ArenaTristanHollow_pri  10
	#define	FE07ArenaTristanHollow_rev  128
	#define	FE07ArenaTristanHollow_mvl  127
	#define	FE07ArenaTristanHollow_key  0
	#define	FE07ArenaTristanHollow_tbs  1
	#define	FE07ArenaTristanHollow_exg  0
	#define	FE07ArenaTristanHollow_cmp  1

	// .rodata
	//	FE07ArenaTristanHollow
	ALIGN 4


//**************** Track 1 (Midi-Chn.0) ****************//

FE07ArenaTristanHollow_001:
// 000   ----------------------------------------
 BYTE   KEYSH   FE07ArenaTristanHollow_key+0
Label_0_010CA38E:
 BYTE   TEMPO   154*FE07ArenaTristanHollow_tbs/2
 BYTE   VOICE   109
 BYTE   VOL   48*FE07ArenaTristanHollow_mvl/mxv
 BYTE   PAN   c_v-25
 BYTE   N05  Bn3  v112
 BYTE   W06
 BYTE   Bn4
 BYTE   W06
 BYTE   As4
 BYTE   W06
 BYTE   Bn4
 BYTE   W06
 BYTE   Fs4
 BYTE   W06
 BYTE   Dn4
 BYTE   W06
 BYTE   N54  Bn3
 BYTE   W54
 BYTE   N06  Bn3  v028
 BYTE   W06
// 001   ----------------------------------------
 BYTE   N48  Gn4  v112
 BYTE   W48
 BYTE   As4
 BYTE   W48
// 002   ----------------------------------------
 BYTE   N06  As4  v028
 BYTE   W96
// 003   ----------------------------------------
 BYTE   N05  Bn3  v112
 BYTE   W06
 BYTE   Dn4
 BYTE   W06
 BYTE   Cs4
 BYTE   W06
 BYTE   Dn4
 BYTE   W06
 BYTE   En4
 BYTE   W06
 BYTE   Fn4
 BYTE   W06
 BYTE   N56  Fs4
 BYTE   W60
// 004   ----------------------------------------
 BYTE   N44  En4
 BYTE   W48
 BYTE   Cn5
 BYTE   W44
 BYTE   W01
 BYTE   N06  Cn5  v028
 BYTE   W03
// 005   ----------------------------------------
 BYTE   W48
 BYTE   N05  Bn3  v112
 BYTE   W06
 BYTE   Ds4
 BYTE   W06
 BYTE   En4
 BYTE   W06
 BYTE   Fn4
 BYTE   W06
 BYTE   Fs4
 BYTE   W06
 BYTE   N15  Gn4
 BYTE   W18
// 006   ----------------------------------------
 BYTE   N05
 BYTE   W06
 BYTE   Fs4
 BYTE   W06
 BYTE   Fn4
 BYTE   W06
 BYTE   N66  En4
 BYTE   W66
 BYTE   N06  En4  v028
 BYTE   W12
// 007   ----------------------------------------
 BYTE   GoTo
  POIN2 Label_0_010CA38E
 BYTE   FINE

//**************** Track 2 (Midi-Chn.1) ****************//

FE07ArenaTristanHollow_002:
// 000   ----------------------------------------
 BYTE   KEYSH   FE07ArenaTristanHollow_key+0
Label_1_010CA3F6:
 BYTE   W12
 BYTE   VOICE   49
 BYTE   W12
 BYTE   VOL   43*FE07ArenaTristanHollow_mvl/mxv
 BYTE   W12
 BYTE   PAN   c_v+20
 BYTE   W12
 BYTE   N05  Bn3  v088
 BYTE   W06
 BYTE   As3
 BYTE   W06
 BYTE   Bn3
 BYTE   W06
 BYTE   Fs3
 BYTE   W06
 BYTE   Dn3
 BYTE   W06
 BYTE   N18  Bn2
 BYTE   W18
// 001   ----------------------------------------
 BYTE   N06  Bn2  v028
 BYTE   W96
// 002   ----------------------------------------
 BYTE   N12  Bn2  v088
 BYTE   W12
 BYTE   N06  Bn2  v048
 BYTE   W06
 BYTE   Bn2  v028
 BYTE   W78
// 003   ----------------------------------------
 BYTE   N48  Bn2  v092
 BYTE   W48
 BYTE   N05  Bn3  v096
 BYTE   W06
 BYTE   As3
 BYTE   W06
 BYTE   An3
 BYTE   W06
 BYTE   Gs3
 BYTE   W06
 BYTE   Gn3
 BYTE   W06
 BYTE   Fs3
 BYTE   W06
 BYTE   Dn3
 BYTE   W06
 BYTE   Bn2
 BYTE   W06
// 004   ----------------------------------------
 BYTE   N44  Cn3  v092
 BYTE   W48
 BYTE   En3
 BYTE   W48
// 005   ----------------------------------------
 BYTE   N09  Bn1
 BYTE   W12
 BYTE   Fs2
 BYTE   W12
 BYTE   Bn2
 BYTE   W12
 BYTE   N56  Cn3
 BYTE   W60
// 006   ----------------------------------------
 BYTE   N05
 BYTE   W06
 BYTE   Bn2
 BYTE   W06
 BYTE   As2
 BYTE   W06
 BYTE   N68  An2
 BYTE   W68
 BYTE   W01
 BYTE   N06  An2  v028
 BYTE   W09
// 007   ----------------------------------------
 BYTE   GoTo
  POIN2 Label_1_010CA3F6
 BYTE   FINE

//**************** Track 3 (Midi-Chn.2) ****************//

FE07ArenaTristanHollow_003:
// 000   ----------------------------------------
 BYTE   KEYSH   FE07ArenaTristanHollow_key+0
Label_2_010CA45A:
 BYTE   VOICE   33
 BYTE   VOL   48*FE07ArenaTristanHollow_mvl/mxv
 BYTE   PAN   c_v+0
 BYTE   N24  Bn1  v108
 BYTE   W36
 BYTE   N36
 BYTE   W48
 BYTE   N09
 BYTE   W12
// 001   ----------------------------------------
 BYTE   N24  Cn2
 BYTE   W36
 BYTE   N36
 BYTE   W60
// 002   ----------------------------------------
 BYTE   W96
// 003   ----------------------------------------
 BYTE   VOICE   36
 BYTE   VOL   48*FE07ArenaTristanHollow_mvl/mxv
 BYTE   PAN   c_v+0
 BYTE   N18  Bn1  v120
 BYTE   W36
 BYTE   N18
 BYTE   W36
 BYTE   N18
 BYTE   W24
// 004   ----------------------------------------
 BYTE   Cn2
 BYTE   W36
 BYTE   N18
 BYTE   W36
 BYTE   N18
 BYTE   W24
// 005   ----------------------------------------
 BYTE   VOICE   33
 BYTE   VOL   48*FE07ArenaTristanHollow_mvl/mxv
 BYTE   PAN   c_v+0
 BYTE   N09  Bn1  v108
 BYTE   W12
 BYTE   Fs2
 BYTE   W12
 BYTE   Bn2
 BYTE   W12
 BYTE   N56  Cn3
 BYTE   W60
// 006   ----------------------------------------
 BYTE   N05
 BYTE   W06
 BYTE   Bn2
 BYTE   W06
 BYTE   As2
 BYTE   W06
 BYTE   N36  An2
 BYTE   W36
 BYTE   W03
 BYTE   N24  An1
 BYTE   W24
 BYTE   W03
 BYTE   N09
 BYTE   W12
// 007   ----------------------------------------
 BYTE   GoTo
  POIN2 Label_2_010CA45A
 BYTE   FINE

//**************** Track 4 (Midi-Chn.3) ****************//

FE07ArenaTristanHollow_004:
// 000   ----------------------------------------
 BYTE   KEYSH   FE07ArenaTristanHollow_key+0
Label_3_010CA4AE:
 BYTE   W03
 BYTE   VOICE   101
 BYTE   W06
 BYTE   VOL   43*FE07ArenaTristanHollow_mvl/mxv
 BYTE   W09
 BYTE   PAN   c_v-10
 BYTE   W18
 BYTE   N56  Bn3  v108
 BYTE   W60
// 001   ----------------------------------------
 BYTE   N06  Gn2  v100
 BYTE   W06
 BYTE   Gn2  v028
 BYTE   W06
 BYTE   N05  Bn2  v100
 BYTE   W06
 BYTE   Cn3
 BYTE   W06
 BYTE   N60  En3  v108
 BYTE   W60
 BYTE   N06  En3  v028
 BYTE   W12
// 002   ----------------------------------------
 BYTE   N11  Bn2  v100
 BYTE   W12
 BYTE   N06  Bn2  v052
 BYTE   W06
 BYTE   Bn2  v028
 BYTE   W78
// 003   ----------------------------------------
 BYTE   W48
 BYTE   N05  Bn3  v096
 BYTE   W06
 BYTE   As3
 BYTE   W06
 BYTE   An3
 BYTE   W06
 BYTE   Gs3
 BYTE   W06
 BYTE   Gn3
 BYTE   W06
 BYTE   Fs3
 BYTE   W06
 BYTE   Dn3
 BYTE   W06
 BYTE   Bn2
 BYTE   W06
// 004   ----------------------------------------
 BYTE   N44  Cn3
 BYTE   W48
 BYTE   En3
 BYTE   W44
 BYTE   W01
 BYTE   N06  En3  v028
 BYTE   W03
// 005   ----------------------------------------
 BYTE   W60
 BYTE   N05  Cn3  v096
 BYTE   W06
 BYTE   N05
 BYTE   W06
 BYTE   N05
 BYTE   W06
 BYTE   N15
 BYTE   W18
// 006   ----------------------------------------
 BYTE   N05
 BYTE   W06
 BYTE   Bn2
 BYTE   W06
 BYTE   As2
 BYTE   W06
 BYTE   N66  An2
 BYTE   W66
 BYTE   N06  An2  v028
 BYTE   W12
// 007   ----------------------------------------
 BYTE   GoTo
  POIN2 Label_3_010CA4AE
 BYTE   FINE

//**************** Track 5 (Midi-Chn.4) ****************//

FE07ArenaTristanHollow_005:
// 000   ----------------------------------------
 BYTE   KEYSH   FE07ArenaTristanHollow_key+0
Label_4_010CA51A:
 BYTE   VOICE   47
 BYTE   VOL   48*FE07ArenaTristanHollow_mvl/mxv
 BYTE   PAN   c_v+10
 BYTE   N24  Bn2  v112
 BYTE   W96
// 001   ----------------------------------------
 BYTE   W72
 BYTE   N03  Fs2  v036
 BYTE   W03
 BYTE   Fs2  v044
 BYTE   W03
 BYTE   Fs2  v052
 BYTE   W03
 BYTE   Fs2  v060
 BYTE   W03
 BYTE   Fs2  v064
 BYTE   W03
 BYTE   Fs2  v072
 BYTE   W03
 BYTE   Fs2  v080
 BYTE   W03
 BYTE   Fs2  v088
 BYTE   W03
// 002   ----------------------------------------
 BYTE   N18  Bn2  v112
 BYTE   W24
 BYTE   N06
 BYTE   W06
 BYTE   N12  Fs2  v088
 BYTE   W12
 BYTE   N06
 BYTE   W06
 BYTE   N12  Bn2  v112
 BYTE   W12
 BYTE   Fs2  v088
 BYTE   W12
 BYTE   N06  Bn2  v112
 BYTE   W06
 BYTE   N12  Fs2  v088
 BYTE   W12
 BYTE   N06
 BYTE   W06
// 003   ----------------------------------------
 BYTE   N18  Bn2  v112
 BYTE   W24
 BYTE   N12  Fs2  v088
 BYTE   W12
 BYTE   N18  Bn2  v112
 BYTE   W24
 BYTE   N12  Fs2  v088
 BYTE   W12
 BYTE   Bn2  v112
 BYTE   W12
 BYTE   Fs2  v088
 BYTE   W12
// 004   ----------------------------------------
 BYTE   Bn2  v112
 BYTE   W24
 BYTE   Fs2  v088
 BYTE   W12
 BYTE   N18  Bn2  v112
 BYTE   W24
 BYTE   N12  Fs2  v088
 BYTE   W12
 BYTE   Bn2  v112
 BYTE   W12
 BYTE   Fs2  v088
 BYTE   W12
// 005   ----------------------------------------
 BYTE   W12
 BYTE   N18  Fs2  v112
 BYTE   W24
 BYTE   N18
 BYTE   W60
// 006   ----------------------------------------
 BYTE   W72
 BYTE   N06  Fs2  v096
 BYTE   W06
 BYTE   Fs2  v104
 BYTE   W06
 BYTE   Fs2  v112
 BYTE   W06
 BYTE   Fs2  v120
 BYTE   W06
// 007   ----------------------------------------
 BYTE   GoTo
  POIN2 Label_4_010CA51A
 BYTE   FINE

//**************** Track 6 (Midi-Chn.5) ****************//

FE07ArenaTristanHollow_006:
// 000   ----------------------------------------
 BYTE   KEYSH   FE07ArenaTristanHollow_key+0
Label_5_010CA5A2:
 BYTE   VOICE   121
 BYTE   VOL   48*FE07ArenaTristanHollow_mvl/mxv
 BYTE   PAN   c_v+0
 BYTE   N06  Fs1  v060
 BYTE   N30  Cs2  v108
 BYTE   W06
 BYTE   N06  Fs1  v028
 BYTE   W06
 BYTE   N06
 BYTE   W06
 BYTE   Fs1  v036
 BYTE   W06
 BYTE   Fs1  v060
 BYTE   W06
 BYTE   As1  v028
 BYTE   W06
 BYTE   Cn1  v108
 BYTE   N06  Fs1  v028
 BYTE   W06
 BYTE   N06
 BYTE   W06
 BYTE   Fs1  v060
 BYTE   W06
 BYTE   Fs1  v044
 BYTE   W06
 BYTE   N06
 BYTE   W06
 BYTE   Fs1  v036
 BYTE   W06
 BYTE   Fs1  v060
 BYTE   W06
 BYTE   Fs1  v032
 BYTE   W06
 BYTE   Cn1  v108
 BYTE   N06  As1  v032
 BYTE   W06
 BYTE   Fs1  v048
 BYTE   W06
// 001   ----------------------------------------
 BYTE   Cn1  v108
 BYTE   N06  Fs1  v060
 BYTE   W06
 BYTE   Fs1  v028
 BYTE   W06
 BYTE   N06
 BYTE   W06
 BYTE   Fs1  v036
 BYTE   W06
 BYTE   Fs1  v060
 BYTE   W06
 BYTE   As1  v028
 BYTE   W06
 BYTE   Cn1  v108
 BYTE   N06  Fs1  v028
 BYTE   W06
 BYTE   N06
 BYTE   W06
 BYTE   Fs1  v060
 BYTE   W06
 BYTE   Fs1  v044
 BYTE   W06
 BYTE   N06
 BYTE   W06
 BYTE   Fs1  v036
 BYTE   W06
 BYTE   Cn1  v108
 BYTE   N06  As1  v024
 BYTE   W06
 BYTE   As1  v036
 BYTE   W06
 BYTE   As1  v052
 BYTE   W06
 BYTE   As1  v060
 BYTE   W06
// 002   ----------------------------------------
 BYTE   Cn1  v108
 BYTE   N06  Fs1  v060
 BYTE   W12
 BYTE   Fs1  v028
 BYTE   W06
 BYTE   N06
 BYTE   W06
 BYTE   Cn1  v108
 BYTE   N06  Dn1  v112
 BYTE   W12
 BYTE   Fs1  v028
 BYTE   W06
 BYTE   N06
 BYTE   W06
 BYTE   Cn1  v108
 BYTE   N06  Fs1  v060
 BYTE   W12
 BYTE   Fs1  v028
 BYTE   W06
 BYTE   N06
 BYTE   W06
 BYTE   Cn1  v108
 BYTE   N06  Dn1  v072
 BYTE   W06
 BYTE   Dn1  v088
 BYTE   W06
 BYTE   Dn1  v100
 BYTE   W06
 BYTE   Dn1  v112
 BYTE   W06
// 003   ----------------------------------------
 BYTE   Fs1  v060
 BYTE   N30  Cs2  v108
 BYTE   W06
 BYTE   N06  Fs1  v028
 BYTE   W06
 BYTE   N06
 BYTE   W06
 BYTE   Fs1  v036
 BYTE   W06
 BYTE   Fs1  v060
 BYTE   W06
 BYTE   As1  v028
 BYTE   W06
 BYTE   Cn1  v108
 BYTE   N06  Fs1  v028
 BYTE   W06
 BYTE   N06
 BYTE   W06
 BYTE   Fs1  v060
 BYTE   W06
 BYTE   Fs1  v044
 BYTE   W06
 BYTE   As1
 BYTE   W06
 BYTE   Fs1  v036
 BYTE   W06
 BYTE   Cn1  v108
 BYTE   N06  Fs1  v060
 BYTE   W06
 BYTE   Fs1  v032
 BYTE   W06
 BYTE   N06
 BYTE   W06
 BYTE   As1
 BYTE   W06
// 004   ----------------------------------------
 BYTE   Cn1  v108
 BYTE   N06  Fs1  v060
 BYTE   W06
 BYTE   Fs1  v028
 BYTE   W06
 BYTE   As1
 BYTE   W06
 BYTE   Fs1  v036
 BYTE   W06
 BYTE   Fs1  v060
 BYTE   W06
 BYTE   Fs1  v028
 BYTE   W06
 BYTE   Cn1  v108
 BYTE   N06  Fs1  v028
 BYTE   W06
 BYTE   N06
 BYTE   W06
 BYTE   Fs1  v060
 BYTE   W06
 BYTE   Fs1  v044
 BYTE   W06
 BYTE   As1
 BYTE   W06
 BYTE   Fs1  v036
 BYTE   W06
 BYTE   Cn1  v108
 BYTE   N06  Fs1  v060
 BYTE   W06
 BYTE   As1  v032
 BYTE   W06
 BYTE   Fs1
 BYTE   W06
 BYTE   N06
 BYTE   W06
// 005   ----------------------------------------
 BYTE   Cn1  v108
 BYTE   N12  Cn2
 BYTE   W12
 BYTE   An1
 BYTE   W12
 BYTE   N06  Cn1
 BYTE   N12  Fn1
 BYTE   W12
 BYTE   N36  Cs2
 BYTE   W12
 BYTE   N06  Cn1
 BYTE   W24
 BYTE   N06
 BYTE   N06  Cn2
 BYTE   W06
 BYTE   An1
 BYTE   W06
 BYTE   Fn1
 BYTE   W06
 BYTE   N06
 BYTE   W06
// 006   ----------------------------------------
 BYTE   Cn1
 BYTE   N06  Fs1  v060
 BYTE   W24
 BYTE   Cn1  v108
 BYTE   N06  Fs1  v060
 BYTE   W24
 BYTE   Cn1  v108
 BYTE   N06  Fs1  v060
 BYTE   W06
 BYTE   Cn2  v108
 BYTE   W06
 BYTE   An1
 BYTE   W06
 BYTE   Fn1
 BYTE   W06
 BYTE   Cn1
 BYTE   N06  As1  v044
 BYTE   W06
 BYTE   As1  v052
 BYTE   W06
 BYTE   As1  v064
 BYTE   W06
 BYTE   As1  v076
 BYTE   W06
// 007   ----------------------------------------
 BYTE   GoTo
  POIN2 Label_5_010CA5A2
 BYTE   FINE

//******************************************************//
	ALIGN 4

FE07ArenaTristanHollow:
	BYTE	6	// NumTrks
	BYTE	0	// NumBlks
	BYTE	FE07ArenaTristanHollow_pri	// Priority
	BYTE	FE07ArenaTristanHollow_rev	// Reverb.
    
	POIN2	FE07ArenaTristanHollow_grp
    
	POIN2	FE07ArenaTristanHollow_001
	POIN2	FE07ArenaTristanHollow_002
	POIN2	FE07ArenaTristanHollow_003
	POIN2	FE07ArenaTristanHollow_004
	POIN2	FE07ArenaTristanHollow_005
	POIN2	FE07ArenaTristanHollow_006

	
