//Event file generated from Sappy .s format.
	#include "MPlayDef.event"

	#define	FE07TriumphAlice_grp  voicegroup000
	#define	FE07TriumphAlice_pri  10
	#define	FE07TriumphAlice_rev  128
	#define	FE07TriumphAlice_mvl  127
	#define	FE07TriumphAlice_key  0
	#define	FE07TriumphAlice_tbs  1
	#define	FE07TriumphAlice_exg  0
	#define	FE07TriumphAlice_cmp  1

	// .rodata
	//	FE07TriumphAlice
	ALIGN 4


//**************** Track 1 (Midi-Chn.0) ****************//

FE07TriumphAlice_001:
//  #01 //000   ----------------------------------------
 BYTE   KEYSH   FE07TriumphAlice_key+0
Label_01053DE6:
 BYTE   TEMPO   136*FE07TriumphAlice_tbs/2
 BYTE   VOICE   40
 BYTE   VOL   75*FE07TriumphAlice_mvl/mxv
 BYTE   PAN   c_v+20
 BYTE   W24
 BYTE   N24  Dn3  v096
 BYTE   W24
 BYTE   Gn3  v108
 BYTE   W24
 BYTE   Cn4  v096
 BYTE   W24
//  #01 //001   ----------------------------------------
 BYTE   N06  Bn3
 BYTE   W06
 BYTE   Bn3  v024
 BYTE   W06
 BYTE   Gn3  v100
 BYTE   W06
 BYTE   Gn3  v024
 BYTE   W06
 BYTE   N36  Dn3  v100
 BYTE   W36
 BYTE   N09  Dn3  v024
 BYTE   W12
 BYTE   N12  Dn3  v100
 BYTE   W12
 BYTE   En3  v104
 BYTE   W12
//  #01 //002   ----------------------------------------
 BYTE   N72  Fn3  v100
 BYTE   W72
 BYTE   N06  En3
 BYTE   W06
 BYTE   Fn3  v108
 BYTE   W06
 BYTE   En3
 BYTE   W06
 BYTE   Cn3  v100
 BYTE   W06
//  #01 //003   ----------------------------------------
 BYTE   N90  Dn3  v092
 BYTE   W96
//  #01 //004   ----------------------------------------
 BYTE   W92
 BYTE   W03
 BYTE   VOL   71*FE07TriumphAlice_mvl/mxv
 BYTE   W01
//  #01 //005   ----------------------------------------
 BYTE   VOICE   127
 BYTE   VOL   77*FE07TriumphAlice_mvl/mxv
 BYTE   PAN   c_v+20
 BYTE   N23  An2  v108
 BYTE   W24
 BYTE   VOICE   49
 BYTE   VOL   75*FE07TriumphAlice_mvl/mxv
 BYTE   PAN   c_v+20
 BYTE   N23  Dn3  v092
 BYTE   W24
 BYTE   N24  Gn3  v100
 BYTE   W24
 BYTE   Cn4
 BYTE   W24
//  #01 //006   ----------------------------------------
 BYTE   N06  Bn3  v092
 BYTE   W06
 BYTE   Bn3  v020
 BYTE   W06
 BYTE   Dn4  v092
 BYTE   W06
 BYTE   Dn4  v020
 BYTE   W06
 BYTE   N36  Fn4  v088
 BYTE   W36
 BYTE   N12  Fn4  v020
 BYTE   W12
 BYTE   N06  En4  v092
 BYTE   W06
 BYTE   En4  v020
 BYTE   W06
 BYTE   Cn4  v096
 BYTE   W06
 BYTE   Cn4  v020
 BYTE   W06
//  #01 //007   ----------------------------------------
 BYTE   N72  Dn4  v092
 BYTE   W72
 BYTE   N06  Cn4  v104
 BYTE   W06
 BYTE   Dn4  v088
 BYTE   W06
 BYTE   Cn4  v100
 BYTE   W06
 BYTE   An3  v092
 BYTE   W06
//  #01 //008   ----------------------------------------
 BYTE   N72  Bn3
 BYTE   W72
 BYTE   N11  Bn3  v020
 BYTE   W23
 BYTE   VOL   71*FE07TriumphAlice_mvl/mxv
 BYTE   W01
//  #01 //009   ----------------------------------------
 BYTE   VOICE   42
 BYTE   VOL   77*FE07TriumphAlice_mvl/mxv
 BYTE   PAN   c_v+0
 BYTE   N40  En4  v096
 BYTE   W48
 BYTE   N11
 BYTE   W12
 BYTE   Fs4
 BYTE   W12
 BYTE   Gn4  v100
 BYTE   W12
 BYTE   En4
 BYTE   W12
//  #01 //010   ----------------------------------------
 BYTE   N40  Fs4
 BYTE   W48
 BYTE   N11  Fs4  v096
 BYTE   W12
 BYTE   Gn4  v100
 BYTE   W12
 BYTE   An4
 BYTE   W12
 BYTE   En5
 BYTE   W12
//  #01 //011   ----------------------------------------
 BYTE   N56  Dn5
 BYTE   W60
 BYTE   N11  An4  v096
 BYTE   W12
 BYTE   Gn4
 BYTE   W12
 BYTE   Fs4  v100
 BYTE   W12
//  #01 //012   ----------------------------------------
 BYTE   N44  Gn4  v096
 BYTE   W48
 BYTE   Fs4  v100
 BYTE   W48
//  #01 //013   ----------------------------------------
 BYTE   W96
//  #01 //014   ----------------------------------------
 BYTE   W96
//  #01 //015   ----------------------------------------
 BYTE   W96
//  #01 //016   ----------------------------------------
 BYTE   W96
//  #01 //017   ----------------------------------------
 BYTE   W96
//  #01 //018   ----------------------------------------
 BYTE   W96
//  #01 //019   ----------------------------------------
 BYTE   VOICE   57
 BYTE   VOL   75*FE07TriumphAlice_mvl/mxv
 BYTE   PAN   c_v+20
 BYTE   N44  Cn3  v088
 BYTE   W48
 BYTE   N05  Cn3  v024
 BYTE   W12
 BYTE   Dn3  v084
 BYTE   W06
 BYTE   Dn3  v024
 BYTE   W06
 BYTE   En3  v084
 BYTE   W06
 BYTE   En3  v024
 BYTE   W06
 BYTE   Cn3  v084
 BYTE   W06
 BYTE   Cn3  v024
 BYTE   W06
//  #01 //020   ----------------------------------------
 BYTE   N44  Dn3  v076
 BYTE   W48
 BYTE   N05  Dn3  v024
 BYTE   W12
 BYTE   En3  v076
 BYTE   W06
 BYTE   En3  v024
 BYTE   W06
 BYTE   Dn3  v080
 BYTE   W06
 BYTE   Dn3  v024
 BYTE   W06
 BYTE   Cn3  v080
 BYTE   W06
 BYTE   Cn3  v024
 BYTE   W06
//  #01 //021   ----------------------------------------
 BYTE   N44  Bn2  v084
 BYTE   W48
 BYTE   N05  Dn3  v080
 BYTE   W06
 BYTE   Dn3  v024
 BYTE   W18
 BYTE   Gn3  v088
 BYTE   W06
 BYTE   Gn3  v024
 BYTE   W18
//  #01 //022   ----------------------------------------
 BYTE   N24  Bn3  v084
 BYTE   W24
 BYTE   N05  An3  v088
 BYTE   W06
 BYTE   An3  v024
 BYTE   W18
 BYTE   Cn3  v076
 BYTE   W06
 BYTE   Cn3  v024
 BYTE   W18
 BYTE   En3  v080
 BYTE   W06
 BYTE   En3  v024
 BYTE   W18
//  #01 //023   ----------------------------------------
 BYTE   VOICE   68
 BYTE   W23
 BYTE   VOL   77*FE07TriumphAlice_mvl/mxv
 BYTE   W01
 BYTE   VOL   75*FE07TriumphAlice_mvl/mxv
 BYTE   W24
 BYTE   PAN   c_v+20
 BYTE   W24
 BYTE   N06  Gn3  v080
 BYTE   W06
 BYTE   Gn3  v024
 BYTE   W12
 BYTE   N03  Gn3  v080
 BYTE   W06
//  #01 //024   ----------------------------------------
 BYTE   N24  Dn4
 BYTE   W24
 BYTE   N06  Gn3
 BYTE   W06
 BYTE   Gn3  v024
 BYTE   W12
 BYTE   N03  Gn3  v080
 BYTE   W06
 BYTE   N24  Dn4
 BYTE   W24
 BYTE   N06  Gn3
 BYTE   W06
 BYTE   Gn3  v024
 BYTE   W18
//  #01 //025   ----------------------------------------
 BYTE   W72
 BYTE   An3  v080
 BYTE   W06
 BYTE   An3  v024
 BYTE   W12
 BYTE   N03  An3  v080
 BYTE   W06
//  #01 //026   ----------------------------------------
 BYTE   N24  Dn4
 BYTE   W24
 BYTE   N06  An3
 BYTE   W06
 BYTE   An3  v024
 BYTE   W12
 BYTE   N03  An3  v080
 BYTE   W06
 BYTE   N21  Dn4
 BYTE   W24
 BYTE   N18  An4  v076
 BYTE   W24
//  #01 //027   ----------------------------------------
 BYTE   GoTo
  POIN2 Label_01053DE6
 BYTE   FINE

//**************** Track 2 (Midi-Chn.1) ****************//

FE07TriumphAlice_002:
//  #02 //000   ----------------------------------------
 BYTE   KEYSH   FE07TriumphAlice_key+0
Label_0104BFF2:
 BYTE   W96
//  #02 //001   ----------------------------------------
 BYTE   W96
//  #02 //002   ----------------------------------------
 BYTE   W96
//  #02 //003   ----------------------------------------
 BYTE   VOICE   73
 BYTE   W06
 BYTE   VOL   17*FE07TriumphAlice_mvl/mxv
 BYTE   W06
 BYTE   PAN   c_v+55
 BYTE   W12
 BYTE   N21  Gn3  v056
 BYTE   W24
 BYTE   Cn4  v064
 BYTE   W24
 BYTE   Fn4  v060
 BYTE   W24
//  #02 //004   ----------------------------------------
 BYTE   N12  An4  v064
 BYTE   W24
 BYTE   N66  Bn4  v072
 BYTE   W72
//  #02 //005   ----------------------------------------
 BYTE   W96
//  #02 //006   ----------------------------------------
 BYTE   N06  Bn3  v076
 BYTE   W06
 BYTE   Bn3  v020
 BYTE   W06
 BYTE   Dn4  v076
 BYTE   W06
 BYTE   Dn4  v020
 BYTE   W06
 BYTE   N42  Fn4  v076
 BYTE   W42
 BYTE   N06  Fn4  v020
 BYTE   W06
 BYTE   An4  v076
 BYTE   W06
 BYTE   An4  v020
 BYTE   W06
 BYTE   Fn4  v076
 BYTE   W06
 BYTE   Fn4  v020
 BYTE   W06
//  #02 //007   ----------------------------------------
 BYTE   TIE  Gn4  v076
 BYTE   W96
//  #02 //008   ----------------------------------------
 BYTE   W72
 BYTE   EOT
 BYTE   N08  Gn4  v020
 BYTE   W24
//  #02 //009   ----------------------------------------
 BYTE   VOICE   48
 BYTE   VOL   27*FE07TriumphAlice_mvl/mxv
 BYTE   PAN   c_v+55
 BYTE   W12
 BYTE   N42  En4  v032
 BYTE   W48
 BYTE   N12
 BYTE   W12
 BYTE   N11  Fs4
 BYTE   W12
 BYTE   Gn4  v036
 BYTE   W12
//  #02 //010   ----------------------------------------
 BYTE   N12  En4
 BYTE   W12
 BYTE   N42  Fs4  v040
 BYTE   W48
 BYTE   N12  Fs4  v036
 BYTE   W12
 BYTE   N11  Gn4  v040
 BYTE   W12
 BYTE   An4  v036
 BYTE   W12
//  #02 //011   ----------------------------------------
 BYTE   N12  En5  v040
 BYTE   W12
 BYTE   N56  Dn5
 BYTE   W60
 BYTE   N11  An4  v036
 BYTE   W12
 BYTE   N12  Gn4
 BYTE   W12
//  #02 //012   ----------------------------------------
 BYTE   Fs4  v040
 BYTE   W12
 BYTE   N48  Gn4  v032
 BYTE   W48
 BYTE   N36  Fs4  v040
 BYTE   W36
//  #02 //013   ----------------------------------------
 BYTE   VOICE   73
 BYTE   VOL   20*FE07TriumphAlice_mvl/mxv
 BYTE   PAN   c_v+55
 BYTE   N44  En4  v108
 BYTE   W48
 BYTE   N12
 BYTE   W12
 BYTE   Fs4  v096
 BYTE   W12
 BYTE   Gn4  v100
 BYTE   W12
 BYTE   En4  v096
 BYTE   W12
//  #02 //014   ----------------------------------------
 BYTE   N44  Fs4  v100
 BYTE   W48
 BYTE   N12  Fs4  v092
 BYTE   W12
 BYTE   Gn4  v100
 BYTE   W12
 BYTE   An4  v092
 BYTE   W12
 BYTE   Fs4  v096
 BYTE   W12
//  #02 //015   ----------------------------------------
 BYTE   N32  Dn4  v100
 BYTE   W36
 BYTE   N12
 BYTE   W12
 BYTE   Gn4
 BYTE   W12
 BYTE   Fs4  v104
 BYTE   W12
 BYTE   Gn4  v100
 BYTE   W12
 BYTE   An4  v096
 BYTE   W12
//  #02 //016   ----------------------------------------
 BYTE   N24  Bn4  v100
 BYTE   W24
 BYTE   An4  v096
 BYTE   W24
 BYTE   Bn4  v092
 BYTE   W24
 BYTE   Cs5  v096
 BYTE   W24
//  #02 //017   ----------------------------------------
 BYTE   TIE  Dn5  v092
 BYTE   W96
//  #02 //018   ----------------------------------------
 BYTE   W84
 BYTE   EOT
 BYTE   N12  Dn5  v024
 BYTE   W12
//  #02 //019   ----------------------------------------
 BYTE   VOICE   45
 BYTE   VOL   30*FE07TriumphAlice_mvl/mxv
 BYTE   PAN   c_v-9
 BYTE   N24  Cn2  v088
 BYTE   W12
 BYTE   N12  Gn2
 BYTE   W12
 BYTE   Cn3
 BYTE   W12
 BYTE   En3
 BYTE   W12
 BYTE   Gn3
 BYTE   W12
 BYTE   Gn3  v024
 BYTE   W36
//  #02 //020   ----------------------------------------
 BYTE   N24  Cn2  v088
 BYTE   W12
 BYTE   N12  An2
 BYTE   W12
 BYTE   Dn3
 BYTE   W12
 BYTE   Fs3
 BYTE   W12
 BYTE   An3
 BYTE   W12
 BYTE   An3  v024
 BYTE   W36
//  #02 //021   ----------------------------------------
 BYTE   N24  Bn1  v088
 BYTE   W12
 BYTE   N12  Bn2
 BYTE   W12
 BYTE   Dn3
 BYTE   W12
 BYTE   Gn3
 BYTE   W12
 BYTE   Bn3
 BYTE   W12
 BYTE   Gn3
 BYTE   W12
 BYTE   Dn3
 BYTE   W12
 BYTE   Bn2
 BYTE   W12
//  #02 //022   ----------------------------------------
 BYTE   N24  En2
 BYTE   W12
 BYTE   N12  Cn3
 BYTE   W12
 BYTE   En3
 BYTE   W12
 BYTE   An3
 BYTE   W12
 BYTE   Cn4
 BYTE   W12
 BYTE   An3
 BYTE   W12
 BYTE   En3
 BYTE   W12
 BYTE   Cn3
 BYTE   W12
//  #02 //023   ----------------------------------------
 BYTE   VOICE   58
 BYTE   VOL   20*FE07TriumphAlice_mvl/mxv
 BYTE   PAN   c_v+25
 BYTE   N48  Dn2
 BYTE   W48
 BYTE   N12
 BYTE   W12
 BYTE   Dn2  v020
 BYTE   W12
 BYTE   Dn2  v088
 BYTE   W12
 BYTE   Dn2  v020
 BYTE   W12
//  #02 //024   ----------------------------------------
Label_0104C127:
 BYTE   N48  Dn2  v088
 BYTE   W48
 BYTE   N12
 BYTE   W12
 BYTE   Dn2  v020
 BYTE   W12
 BYTE   Dn2  v088
 BYTE   W12
 BYTE   Dn2  v020
 BYTE   W12
 BYTE   PEND 
//  #02 //025   ----------------------------------------
 BYTE   PATT
  POIN2 Label_0104C127
//  #02 //026   ----------------------------------------
 BYTE   N44  Dn2  v088
 BYTE   W48
 BYTE   N12
 BYTE   W12
 BYTE   N09  Dn2  v020
 BYTE   W12
 BYTE   N12  Dn2  v088
 BYTE   W12
 BYTE   N09  Dn2  v020
 BYTE   W12
//  #02 //027   ----------------------------------------
 BYTE   GoTo
  POIN2 Label_0104BFF2
 BYTE   FINE

//**************** Track 3 (Midi-Chn.2) ****************//

FE07TriumphAlice_003:
//  #03 //000   ----------------------------------------
 BYTE   KEYSH   FE07TriumphAlice_key+0
Label_01054FFE:
 BYTE   VOICE   58
 BYTE   VOL   55*FE07TriumphAlice_mvl/mxv
 BYTE   PAN   c_v+0
 BYTE   N11  Gn2  v096
 BYTE   W24
 BYTE   N11
 BYTE   W24
 BYTE   N11
 BYTE   W24
 BYTE   N11
 BYTE   W24
//  #03 //001   ----------------------------------------
Label_0105500E:
 BYTE   N11  Gn2  v096
 BYTE   W24
 BYTE   N11
 BYTE   W24
 BYTE   N11
 BYTE   W24
 BYTE   N11
 BYTE   W24
 BYTE   PEND 
//  #03 //002   ----------------------------------------
 BYTE   PATT
  POIN2 Label_0105500E
//  #03 //003   ----------------------------------------
 BYTE   PATT
  POIN2 Label_0105500E
//  #03 //004   ----------------------------------------
 BYTE   N11  Gn2  v096
 BYTE   W24
 BYTE   N11
 BYTE   W24
 BYTE   N11
 BYTE   W24
 BYTE   N05  Fn2  v100
 BYTE   W12
 BYTE   N05
 BYTE   W12
//  #03 //005   ----------------------------------------
 BYTE   PATT
  POIN2 Label_0105500E
//  #03 //006   ----------------------------------------
Label_01055036:
 BYTE   N11  Gn2  v092
 BYTE   W24
 BYTE   N11
 BYTE   W24
 BYTE   N11
 BYTE   W24
 BYTE   N11
 BYTE   W24
 BYTE   PEND 
//  #03 //007   ----------------------------------------
 BYTE   PATT
  POIN2 Label_01055036
//  #03 //008   ----------------------------------------
 BYTE   PATT
  POIN2 Label_01055036
//  #03 //009   ----------------------------------------
 BYTE   W96
//  #03 //010   ----------------------------------------
 BYTE   W96
//  #03 //011   ----------------------------------------
 BYTE   W96
//  #03 //012   ----------------------------------------
 BYTE   W96
//  #03 //013   ----------------------------------------
 BYTE   VOICE   58
 BYTE   VOL   50*FE07TriumphAlice_mvl/mxv
 BYTE   PAN   c_v+0
 BYTE   N68  Cn2  v088
 BYTE   W72
 BYTE   N20
 BYTE   W24
//  #03 //014   ----------------------------------------
 BYTE   N68
 BYTE   W72
 BYTE   N20
 BYTE   W24
//  #03 //015   ----------------------------------------
 BYTE   N68  Bn1
 BYTE   W72
 BYTE   N20
 BYTE   W24
//  #03 //016   ----------------------------------------
 BYTE   N44  An1
 BYTE   W48
 BYTE   N20
 BYTE   W24
 BYTE   N20
 BYTE   W24
//  #03 //017   ----------------------------------------
 BYTE   N68  Dn2
 BYTE   W72
 BYTE   N20
 BYTE   W24
//  #03 //018   ----------------------------------------
 BYTE   N84
 BYTE   W96
//  #03 //019   ----------------------------------------
 BYTE   VOICE   127
 BYTE   W06
 BYTE   VOL   57*FE07TriumphAlice_mvl/mxv
 BYTE   W06
 BYTE   PAN   c_v+0
 BYTE   W12
 BYTE   N03  Fs2  v044
 BYTE   W03
 BYTE   Fs2  v020
 BYTE   W03
 BYTE   N03
 BYTE   W03
 BYTE   Fs2  v024
 BYTE   W03
 BYTE   Fs2  v028
 BYTE   W03
 BYTE   Fs2  v032
 BYTE   W03
 BYTE   Fs2  v036
 BYTE   W03
 BYTE   Fs2  v040
 BYTE   W03
 BYTE   N12  Fs2  v044
 BYTE   W48
//  #03 //020   ----------------------------------------
Label_01055097:
 BYTE   W24
 BYTE   N03  Fs2  v032
 BYTE   W03
 BYTE   Fs2  v020
 BYTE   W03
 BYTE   N03
 BYTE   W03
 BYTE   Fs2  v024
 BYTE   W03
 BYTE   Fs2  v028
 BYTE   W03
 BYTE   Fs2  v020
 BYTE   W03
 BYTE   Fs2  v024
 BYTE   W03
 BYTE   Fs2  v028
 BYTE   W03
 BYTE   N12  Fs2  v032
 BYTE   W48
 BYTE   PEND 
//  #03 //021   ----------------------------------------
 BYTE   PATT
  POIN2 Label_01055097
//  #03 //022   ----------------------------------------
 BYTE   PATT
  POIN2 Label_01055097
//  #03 //023   ----------------------------------------
 BYTE   N36  An2  v100
 BYTE   W96
//  #03 //024   ----------------------------------------
 BYTE   W72
 BYTE   N24
 BYTE   W24
//  #03 //025   ----------------------------------------
 BYTE   N48
 BYTE   W96
//  #03 //026   ----------------------------------------
 BYTE   W72
 BYTE   N24
 BYTE   W24
//  #03 //027   ----------------------------------------
 BYTE   GoTo
  POIN2 Label_01054FFE
 BYTE   FINE

//**************** Track 4 (Midi-Chn.3) ****************//

FE07TriumphAlice_004:
//  #04 //000   ----------------------------------------
 BYTE   KEYSH   FE07TriumphAlice_key+0
Label_010551EE:
 BYTE   VOICE   49
 BYTE   VOL   42*FE07TriumphAlice_mvl/mxv
 BYTE   PAN   c_v+30
 BYTE   N92  Gn2  v092
 BYTE   N05  Bn2  v080
 BYTE   W06
 BYTE   Bn2  v024
 BYTE   W18
 BYTE   N40  Bn2  v092
 BYTE   W48
 BYTE   N17  Bn2  v096
 BYTE   W24
//  #04 //001   ----------------------------------------
 BYTE   N92  Gn2
 BYTE   N06  Bn2  v092
 BYTE   W06
 BYTE   N05  Bn2  v024
 BYTE   W18
 BYTE   N40  Bn2  v084
 BYTE   W48
 BYTE   N17  Bn2  v088
 BYTE   W24
//  #04 //002   ----------------------------------------
 BYTE   N92  Gn2  v080
 BYTE   N05  Cn3  v084
 BYTE   W06
 BYTE   Cn3  v024
 BYTE   W18
 BYTE   N40  Cn3  v092
 BYTE   W48
 BYTE   N17  En3  v096
 BYTE   W24
//  #04 //003   ----------------------------------------
 BYTE   N92  Gn2  v088
 BYTE   N05  Bn2  v096
 BYTE   W06
 BYTE   Bn2  v024
 BYTE   W18
 BYTE   N40  Bn2  v084
 BYTE   W48
 BYTE   N17  Bn2  v096
 BYTE   W24
//  #04 //004   ----------------------------------------
 BYTE   N92  Gn2
 BYTE   W96
//  #04 //005   ----------------------------------------
 BYTE   Gn2  v092
 BYTE   N05  Bn2  v096
 BYTE   W06
 BYTE   Bn2  v024
 BYTE   W18
 BYTE   N40  Bn2  v096
 BYTE   W48
 BYTE   N17  Bn2  v088
 BYTE   W24
//  #04 //006   ----------------------------------------
 BYTE   N92  Gn2
 BYTE   N05  Bn2
 BYTE   W06
 BYTE   Bn2  v020
 BYTE   W18
 BYTE   N40  Bn2  v088
 BYTE   W48
 BYTE   N17
 BYTE   W24
//  #04 //007   ----------------------------------------
 BYTE   N92  Gn2  v084
 BYTE   N05  Bn2  v080
 BYTE   W06
 BYTE   Bn2  v020
 BYTE   W18
 BYTE   N40  Bn2  v088
 BYTE   W48
 BYTE   N17  Bn2  v084
 BYTE   W24
//  #04 //008   ----------------------------------------
 BYTE   N92  Gn2
 BYTE   N05  Bn2  v076
 BYTE   W06
 BYTE   Bn2  v020
 BYTE   W18
 BYTE   N56  Bn2  v092
 BYTE   W72
//  #04 //009   ----------------------------------------
 BYTE   N68  Cn2  v096
 BYTE   N68  En3  v080
 BYTE   N68  Gn3  v084
 BYTE   W72
 BYTE   N20  Cn2  v088
 BYTE   N20  En3
 BYTE   N20  Gn3
 BYTE   W24
//  #04 //010   ----------------------------------------
 BYTE   N80  Cn2  v084
 BYTE   N80  Fs3  v096
 BYTE   N80  An3  v080
 BYTE   W84
 BYTE   N11  Cn2  v024
 BYTE   N11  Fs3
 BYTE   N11  An3
 BYTE   W12
//  #04 //011   ----------------------------------------
 BYTE   N68  Bn1  v088
 BYTE   N68  Dn3  v080
 BYTE   N68  Fs3
 BYTE   W72
 BYTE   N20  Bn1  v092
 BYTE   N20  Dn3  v096
 BYTE   N20  Fs3  v092
 BYTE   W24
//  #04 //012   ----------------------------------------
 BYTE   N44  En2  v088
 BYTE   N44  En3  v080
 BYTE   N44  Gn3
 BYTE   W48
 BYTE   Dn2  v088
 BYTE   N44  Dn3  v092
 BYTE   N44  Fs3  v088
 BYTE   W48
//  #04 //013   ----------------------------------------
 BYTE   N68  En3  v068
 BYTE   N68  Gn3  v076
 BYTE   W72
 BYTE   N20  En3  v080
 BYTE   N21  Gn3  v072
 BYTE   W24
//  #04 //014   ----------------------------------------
 BYTE   N80  Fs3
 BYTE   N80  An3  v068
 BYTE   W84
 BYTE   N08  Fs3  v024
 BYTE   N08  An3
 BYTE   W12
//  #04 //015   ----------------------------------------
 BYTE   N68  Dn3  v080
 BYTE   N68  Gn3  v072
 BYTE   W72
 BYTE   N20  Dn3  v076
 BYTE   N20  Gn3  v068
 BYTE   W24
//  #04 //016   ----------------------------------------
 BYTE   N44  Dn3  v080
 BYTE   N44  Gn3  v064
 BYTE   W48
 BYTE   Cs3  v072
 BYTE   N44  Gn3
 BYTE   W48
//  #04 //017   ----------------------------------------
 BYTE   N56  An2
 BYTE   N56  Gn3  v076
 BYTE   W60
 BYTE   N11  An2
 BYTE   W12
 BYTE   Dn3
 BYTE   W12
 BYTE   Gn3
 BYTE   W12
//  #04 //018   ----------------------------------------
 BYTE   N68  An2  v068
 BYTE   N68  Fs3  v076
 BYTE   W72
 BYTE   N11  An2  v024
 BYTE   N11  Fs3
 BYTE   W24
//  #04 //019   ----------------------------------------
 BYTE   N44  Cn3  v088
 BYTE   W48
 BYTE   Cn3  v080
 BYTE   W48
//  #04 //020   ----------------------------------------
 BYTE   Cn3  v088
 BYTE   W48
 BYTE   Cn3  v092
 BYTE   W48
//  #04 //021   ----------------------------------------
 BYTE   Bn2  v088
 BYTE   W48
 BYTE   Bn2  v092
 BYTE   W48
//  #04 //022   ----------------------------------------
 BYTE   En3  v088
 BYTE   W48
 BYTE   En3  v096
 BYTE   W48
//  #04 //023   ----------------------------------------
 BYTE   N68  Gn3  v088
 BYTE   N68  Bn3  v092
 BYTE   W72
 BYTE   N20  Gn3
 BYTE   N20  Bn3  v080
 BYTE   W24
//  #04 //024   ----------------------------------------
 BYTE   N68  Gn3  v092
 BYTE   N68  Bn3  v080
 BYTE   W72
 BYTE   N11  Cn4  v088
 BYTE   W12
 BYTE   Bn3  v096
 BYTE   W12
//  #04 //025   ----------------------------------------
 BYTE   TIE  Fs3  v080
 BYTE   TIE  An3  v088
 BYTE   W96
//  #04 //026   ----------------------------------------
 BYTE   W68
 BYTE   W03
 BYTE   EOT
 BYTE   Fs3
 BYTE   W01
 BYTE   An3
 BYTE   W24
//  #04 //027   ----------------------------------------
 BYTE   GoTo
  POIN2 Label_010551EE
 BYTE   FINE

//**************** Track 5 (Midi-Chn.4) ****************//

FE07TriumphAlice_005:
//  #05 //000   ----------------------------------------
 BYTE   KEYSH   FE07TriumphAlice_key+0
Label_0104BA82:
 BYTE   W96
//  #05 //001   ----------------------------------------
 BYTE   W96
//  #05 //002   ----------------------------------------
 BYTE   W96
//  #05 //003   ----------------------------------------
 BYTE   W96
//  #05 //004   ----------------------------------------
 BYTE   VOICE   57
 BYTE   VOL   45*FE07TriumphAlice_mvl/mxv
 BYTE   PAN   c_v+10
 BYTE   N08  An2  v100
 BYTE   W09
 BYTE   An2  v024
 BYTE   W15
 BYTE   Dn3  v104
 BYTE   W09
 BYTE   Dn3  v024
 BYTE   W15
 BYTE   Gn3  v104
 BYTE   W09
 BYTE   Gn3  v024
 BYTE   W15
 BYTE   N20  Cn4  v104
 BYTE   W24
//  #05 //005   ----------------------------------------
 BYTE   N08  Bn3
 BYTE   W09
 BYTE   Bn3  v024
 BYTE   W84
 BYTE   W03
//  #05 //006   ----------------------------------------
 BYTE   W96
//  #05 //007   ----------------------------------------
 BYTE   W96
//  #05 //008   ----------------------------------------
 BYTE   W92
 BYTE   W03
 BYTE   VOL   45*FE07TriumphAlice_mvl/mxv
 BYTE   W01
//  #05 //009   ----------------------------------------
 BYTE   VOICE   127
 BYTE   VOL   57*FE07TriumphAlice_mvl/mxv
 BYTE   PAN   c_v+0
 BYTE   N44  An2  v092
 BYTE   W96
//  #05 //010   ----------------------------------------
 BYTE   W96
//  #05 //011   ----------------------------------------
 BYTE   W96
//  #05 //012   ----------------------------------------
 BYTE   W96
//  #05 //013   ----------------------------------------
 BYTE   N44
 BYTE   W96
//  #05 //014   ----------------------------------------
 BYTE   W96
//  #05 //015   ----------------------------------------
 BYTE   W96
//  #05 //016   ----------------------------------------
 BYTE   W96
//  #05 //017   ----------------------------------------
 BYTE   W96
//  #05 //018   ----------------------------------------
 BYTE   W96
//  #05 //019   ----------------------------------------
 BYTE   VOICE   56
 BYTE   VOL   57*FE07TriumphAlice_mvl/mxv
 BYTE   PAN   c_v-20
 BYTE   N44  En3  v096
 BYTE   W48
 BYTE   N06  En3  v032
 BYTE   W12
 BYTE   Fs3  v092
 BYTE   W06
 BYTE   Fs3  v032
 BYTE   W06
 BYTE   Gn3  v092
 BYTE   W06
 BYTE   Gn3  v032
 BYTE   W06
 BYTE   En3  v092
 BYTE   W06
 BYTE   En3  v032
 BYTE   W06
//  #05 //020   ----------------------------------------
 BYTE   N48  Fs3  v084
 BYTE   W48
 BYTE   N12  Fs3  v032
 BYTE   W12
 BYTE   N06  Gn3  v084
 BYTE   W06
 BYTE   Gn3  v032
 BYTE   W06
 BYTE   Fs3  v084
 BYTE   W06
 BYTE   Fs3  v032
 BYTE   W06
 BYTE   En3  v088
 BYTE   W06
 BYTE   En3  v032
 BYTE   W06
//  #05 //021   ----------------------------------------
 BYTE   N48  Dn3  v092
 BYTE   W48
 BYTE   N06  Gn3  v088
 BYTE   W06
 BYTE   Gn3  v032
 BYTE   W18
 BYTE   Bn3  v096
 BYTE   W06
 BYTE   Bn3  v032
 BYTE   W18
//  #05 //022   ----------------------------------------
 BYTE   N24  Dn4  v092
 BYTE   W24
 BYTE   N06  Cn4  v096
 BYTE   W06
 BYTE   Cn4  v032
 BYTE   W18
 BYTE   En3  v084
 BYTE   W06
 BYTE   En3  v032
 BYTE   W18
 BYTE   An3  v088
 BYTE   W06
 BYTE   An3  v032
 BYTE   W18
//  #05 //023   ----------------------------------------
 BYTE   TIE  Gn3  v092
 BYTE   W96
//  #05 //024   ----------------------------------------
 BYTE   W72
 BYTE   EOT
 BYTE   N12  An3  v096
 BYTE   W12
 BYTE   Gn3  v100
 BYTE   W12
//  #05 //025   ----------------------------------------
 BYTE   N96  Fs3
 BYTE   W96
//  #05 //026   ----------------------------------------
 BYTE   N09  Dn3  v072
 BYTE   W09
 BYTE   N06  Dn3  v028
 BYTE   W15
 BYTE   N09  Fs3  v080
 BYTE   W09
 BYTE   N06  Fs3  v028
 BYTE   W15
 BYTE   N09  An3  v092
 BYTE   W24
 BYTE   Dn4  v096
 BYTE   W09
 BYTE   N06  Dn4  v028
 BYTE   W15
//  #05 //027   ----------------------------------------
 BYTE   GoTo
  POIN2 Label_0104BA82
 BYTE   FINE

//**************** Track 6 (Midi-Chn.5) ****************//

FE07TriumphAlice_006:
//  #06 //000   ----------------------------------------
 BYTE   KEYSH   FE07TriumphAlice_key+0
Label_0105535E:
 BYTE   VOICE   127
 BYTE   VOL   57*FE07TriumphAlice_mvl/mxv
 BYTE   PAN   c_v+0
 BYTE   N44  An2  v100
 BYTE   W92
 BYTE   W03
 BYTE   VOL   57*FE07TriumphAlice_mvl/mxv
 BYTE   PAN   c_v+0
 BYTE   W01
//  #06 //001   ----------------------------------------
 BYTE   VOICE   57
 BYTE   VOL   35*FE07TriumphAlice_mvl/mxv
 BYTE   PAN   c_v-30
 BYTE   N56  Dn4  v092
 BYTE   W60
 BYTE   N05  Dn4  v020
 BYTE   W12
 BYTE   N21  Dn4  v088
 BYTE   W24
//  #06 //002   ----------------------------------------
 BYTE   N68  Cn4  v096
 BYTE   W72
 BYTE   N21  En4  v088
 BYTE   W24
//  #06 //003   ----------------------------------------
 BYTE   N90  Dn4  v092
 BYTE   W92
 BYTE   W03
 BYTE   VOL   35*FE07TriumphAlice_mvl/mxv
 BYTE   PAN   c_v-30
 BYTE   W01
//  #06 //004   ----------------------------------------
 BYTE   VOICE   46
 BYTE   VOL   40*FE07TriumphAlice_mvl/mxv
 BYTE   PAN   c_v-40
 BYTE   N05  Gn2  v076
 BYTE   W06
 BYTE   Bn2
 BYTE   W06
 BYTE   Dn3
 BYTE   W06
 BYTE   Gn3
 BYTE   W06
 BYTE   Bn2
 BYTE   W06
 BYTE   Dn3
 BYTE   W06
 BYTE   Gn3
 BYTE   W06
 BYTE   Bn3
 BYTE   W06
 BYTE   Dn3
 BYTE   W06
 BYTE   Gn3
 BYTE   W06
 BYTE   Bn3
 BYTE   W06
 BYTE   Dn4
 BYTE   W06
 BYTE   An3
 BYTE   W06
 BYTE   Dn4
 BYTE   W06
 BYTE   Fn4
 BYTE   W06
 BYTE   An4
 BYTE   W06
//  #06 //005   ----------------------------------------
 BYTE   N06  Bn4
 BYTE   W96
//  #06 //006   ----------------------------------------
 BYTE   VOICE   57
 BYTE   W23
 BYTE   VOL   45*FE07TriumphAlice_mvl/mxv
 BYTE   W01
 BYTE   VOL   35*FE07TriumphAlice_mvl/mxv
 BYTE   W24
 BYTE   PAN   c_v-30
 BYTE   W24
 BYTE   N05  En4  v092
 BYTE   W06
 BYTE   En4  v028
 BYTE   W06
 BYTE   Cn4  v088
 BYTE   W06
 BYTE   Cn4  v028
 BYTE   W06
//  #06 //007   ----------------------------------------
 BYTE   N88  Dn4  v092
 BYTE   W92
 BYTE   W03
 BYTE   VOL   35*FE07TriumphAlice_mvl/mxv
 BYTE   PAN   c_v-30
 BYTE   W01
//  #06 //008   ----------------------------------------
 BYTE   VOICE   46
 BYTE   VOL   40*FE07TriumphAlice_mvl/mxv
 BYTE   PAN   c_v-40
 BYTE   N05  Dn2  v072
 BYTE   W06
 BYTE   N06  Gn2
 BYTE   W06
 BYTE   Bn2
 BYTE   W06
 BYTE   Dn3
 BYTE   W06
 BYTE   Gn3
 BYTE   W06
 BYTE   Bn3
 BYTE   W06
 BYTE   Dn4
 BYTE   W06
 BYTE   Gn4
 BYTE   W06
 BYTE   Bn4
 BYTE   W06
 BYTE   Gn4
 BYTE   W06
 BYTE   Dn4
 BYTE   W06
 BYTE   Bn3
 BYTE   W06
 BYTE   Gn3
 BYTE   W06
 BYTE   Dn3
 BYTE   W06
 BYTE   Bn2
 BYTE   W06
 BYTE   Gn2
 BYTE   W06
//  #06 //009   ----------------------------------------
 BYTE   W96
//  #06 //010   ----------------------------------------
 BYTE   W96
//  #06 //011   ----------------------------------------
 BYTE   W96
//  #06 //012   ----------------------------------------
 BYTE   W96
//  #06 //013   ----------------------------------------
 BYTE   VOICE   46
 BYTE   VOL   40*FE07TriumphAlice_mvl/mxv
 BYTE   N11  Cn3  v080
 BYTE   W12
 BYTE   Gn3
 BYTE   W12
 BYTE   Cn4
 BYTE   W12
 BYTE   En4
 BYTE   W12
 BYTE   Gn4
 BYTE   W48
//  #06 //014   ----------------------------------------
 BYTE   Cn3
 BYTE   W12
 BYTE   An3
 BYTE   W12
 BYTE   Dn4
 BYTE   W12
 BYTE   Fs4
 BYTE   W12
 BYTE   An4
 BYTE   W48
//  #06 //015   ----------------------------------------
 BYTE   Bn2
 BYTE   W12
 BYTE   Gn3
 BYTE   W12
 BYTE   Bn3
 BYTE   W12
 BYTE   Dn4
 BYTE   W12
 BYTE   Gn4
 BYTE   W48
//  #06 //016   ----------------------------------------
 BYTE   An2
 BYTE   W12
 BYTE   Gn3
 BYTE   W12
 BYTE   An3
 BYTE   W12
 BYTE   Dn4
 BYTE   W12
 BYTE   Gn4
 BYTE   W48
//  #06 //017   ----------------------------------------
 BYTE   Dn3
 BYTE   W12
 BYTE   Gn3
 BYTE   W12
 BYTE   An3
 BYTE   W12
 BYTE   Dn4
 BYTE   W12
 BYTE   Gn4
 BYTE   W12
 BYTE   Dn4
 BYTE   W12
 BYTE   An3
 BYTE   W12
 BYTE   Gn3
 BYTE   W12
//  #06 //018   ----------------------------------------
 BYTE   Dn3
 BYTE   W12
 BYTE   Fs3
 BYTE   W12
 BYTE   An3
 BYTE   W12
 BYTE   Dn4
 BYTE   W12
 BYTE   Fs4
 BYTE   W12
 BYTE   Dn4
 BYTE   W12
 BYTE   An3
 BYTE   W12
 BYTE   Fs3
 BYTE   W12
//  #06 //019   ----------------------------------------
 BYTE   W96
//  #06 //020   ----------------------------------------
 BYTE   W96
//  #06 //021   ----------------------------------------
 BYTE   W96
//  #06 //022   ----------------------------------------
 BYTE   W96
//  #06 //023   ----------------------------------------
 BYTE   N05  Dn2  v084
 BYTE   W06
 BYTE   Gn2
 BYTE   W06
 BYTE   Bn2
 BYTE   W06
 BYTE   Dn3
 BYTE   W06
 BYTE   VOICE   46
 BYTE   N05  Gn2
 BYTE   W06
 BYTE   Bn2
 BYTE   W06
 BYTE   Dn3
 BYTE   W06
 BYTE   Gn3
 BYTE   W06
 BYTE   Bn2
 BYTE   W06
 BYTE   Dn3
 BYTE   W06
 BYTE   Gn3
 BYTE   W06
 BYTE   Bn3
 BYTE   W06
 BYTE   Dn3
 BYTE   W06
 BYTE   Gn3
 BYTE   W06
 BYTE   Bn3
 BYTE   W06
 BYTE   Dn4
 BYTE   W06
//  #06 //024   ----------------------------------------
 BYTE   Gn4
 BYTE   W06
 BYTE   Dn4
 BYTE   W06
 BYTE   Bn3
 BYTE   W06
 BYTE   Gn3
 BYTE   W06
 BYTE   Dn4
 BYTE   W06
 BYTE   Bn3
 BYTE   W06
 BYTE   Gn3
 BYTE   W06
 BYTE   Dn3
 BYTE   W06
 BYTE   Bn3
 BYTE   W06
 BYTE   Gn3
 BYTE   W06
 BYTE   Dn3
 BYTE   W06
 BYTE   Bn2
 BYTE   W06
 BYTE   Gn3
 BYTE   W06
 BYTE   Dn3
 BYTE   W06
 BYTE   Bn2
 BYTE   W06
 BYTE   Gn2
 BYTE   W06
//  #06 //025   ----------------------------------------
 BYTE   Fs2
 BYTE   W06
 BYTE   An2
 BYTE   W06
 BYTE   Dn3
 BYTE   W06
 BYTE   Fs3
 BYTE   W06
 BYTE   An2
 BYTE   W06
 BYTE   Dn3
 BYTE   W06
 BYTE   Fs3
 BYTE   W06
 BYTE   An3
 BYTE   W06
 BYTE   Dn3
 BYTE   W06
 BYTE   Fs3
 BYTE   W06
 BYTE   An3
 BYTE   W06
 BYTE   Dn4
 BYTE   W06
 BYTE   Fs3
 BYTE   W06
 BYTE   An3
 BYTE   W06
 BYTE   Dn4
 BYTE   W06
 BYTE   Fs4
 BYTE   W06
//  #06 //026   ----------------------------------------
 BYTE   An4
 BYTE   W06
 BYTE   Fs4
 BYTE   W06
 BYTE   Dn4
 BYTE   W06
 BYTE   An3
 BYTE   W06
 BYTE   Fs4
 BYTE   W06
 BYTE   Dn4
 BYTE   W06
 BYTE   An3
 BYTE   W06
 BYTE   Fs3
 BYTE   W06
 BYTE   Dn3
 BYTE   W06
 BYTE   Fs3
 BYTE   W06
 BYTE   An3
 BYTE   W06
 BYTE   Dn4
 BYTE   W06
 BYTE   Fs3
 BYTE   W06
 BYTE   An3
 BYTE   W06
 BYTE   Dn4
 BYTE   W06
 BYTE   Fs4
 BYTE   W06
//  #06 //027   ----------------------------------------
 BYTE   GoTo
  POIN2 Label_0105535E
 BYTE   FINE

//**************** Track 7 (Midi-Chn.6) ****************//

FE07TriumphAlice_007:
//  #07 //000   ----------------------------------------
 BYTE   KEYSH   FE07TriumphAlice_key+0
Label_010554EE:
 BYTE   VOICE   47
 BYTE   VOL   58*FE07TriumphAlice_mvl/mxv
 BYTE   PAN   c_v+20
 BYTE   N23  Gn2  v096
 BYTE   W72
 BYTE   N05  Gn2  v076
 BYTE   W06
 BYTE   Gn2  v084
 BYTE   W06
 BYTE   Gn2  v092
 BYTE   W06
 BYTE   Gn2  v104
 BYTE   W06
//  #07 //001   ----------------------------------------
Label_01055505:
 BYTE   N23  Gn2  v096
 BYTE   W72
 BYTE   N23
 BYTE   W24
 BYTE   PEND 
//  #07 //002   ----------------------------------------
 BYTE   PATT
  POIN2 Label_01055505
//  #07 //003   ----------------------------------------
 BYTE   N23  Gn2  v096
 BYTE   W72
 BYTE   N11
 BYTE   W12
 BYTE   N11
 BYTE   W12
//  #07 //004   ----------------------------------------
 BYTE   N23  Gn2  v084
 BYTE   W24
 BYTE   Gn2  v088
 BYTE   W48
 BYTE   N05  Gn2  v076
 BYTE   W06
 BYTE   Gn2  v084
 BYTE   W06
 BYTE   Gn2  v092
 BYTE   W06
 BYTE   Gn2  v104
 BYTE   W06
//  #07 //005   ----------------------------------------
 BYTE   PATT
  POIN2 Label_01055505
//  #07 //006   ----------------------------------------
 BYTE   N23  Gn2  v092
 BYTE   W24
 BYTE   N23
 BYTE   W48
 BYTE   N23
 BYTE   W24
//  #07 //007   ----------------------------------------
 BYTE   N23
 BYTE   W72
 BYTE   N23
 BYTE   W24
//  #07 //008   ----------------------------------------
 BYTE   N23
 BYTE   W24
 BYTE   N23
 BYTE   W48
 BYTE   N11
 BYTE   W12
 BYTE   N11
 BYTE   W12
//  #07 //009   ----------------------------------------
 BYTE   W96
//  #07 //010   ----------------------------------------
 BYTE   W96
//  #07 //011   ----------------------------------------
 BYTE   W96
//  #07 //012   ----------------------------------------
 BYTE   W92
 BYTE   W03
 BYTE   VOL   58*FE07TriumphAlice_mvl/mxv
 BYTE   W01
//  #07 //013   ----------------------------------------
 BYTE   VOICE   57
 BYTE   VOL   40*FE07TriumphAlice_mvl/mxv
 BYTE   PAN   c_v+10
 BYTE   N08  Gn2  v096
 BYTE   W09
 BYTE   Gn2  v032
 BYTE   W15
 BYTE   Gn2  v088
 BYTE   W09
 BYTE   Gn2  v032
 BYTE   W15
 BYTE   Gn2  v088
 BYTE   W09
 BYTE   Gn2  v032
 BYTE   W15
 BYTE   N20  Gn2  v096
 BYTE   W24
//  #07 //014   ----------------------------------------
 BYTE   N08
 BYTE   W09
 BYTE   Gn2  v032
 BYTE   W15
 BYTE   Gn2  v088
 BYTE   W09
 BYTE   Gn2  v032
 BYTE   W15
 BYTE   N11  Dn3  v084
 BYTE   W12
 BYTE   En3  v080
 BYTE   W12
 BYTE   Fs3
 BYTE   W12
 BYTE   N08  Dn3  v084
 BYTE   W12
//  #07 //015   ----------------------------------------
 BYTE   Bn2  v092
 BYTE   W09
 BYTE   Bn2  v028
 BYTE   W15
 BYTE   Bn2  v080
 BYTE   W09
 BYTE   Bn2  v028
 BYTE   W15
 BYTE   Bn2  v080
 BYTE   W09
 BYTE   Bn2  v028
 BYTE   W15
 BYTE   N23  Dn3  v096
 BYTE   W24
//  #07 //016   ----------------------------------------
 BYTE   Gn3  v080
 BYTE   W24
 BYTE   Fs3  v076
 BYTE   W24
 BYTE   Gn3  v080
 BYTE   W24
 BYTE   An3
 BYTE   W24
//  #07 //017   ----------------------------------------
 BYTE   N44  Gn3  v084
 BYTE   W48
 BYTE   N11  Gn3  v080
 BYTE   W12
 BYTE   An2  v072
 BYTE   W12
 BYTE   Dn3  v084
 BYTE   W12
 BYTE   Gn3
 BYTE   W12
//  #07 //018   ----------------------------------------
 BYTE   N68  Fs3
 BYTE   W72
 BYTE   N11  Fs3  v024
 BYTE   W23
 BYTE   VOL   40*FE07TriumphAlice_mvl/mxv
 BYTE   W01
//  #07 //019   ----------------------------------------
 BYTE   VOICE   47
 BYTE   VOL   50*FE07TriumphAlice_mvl/mxv
 BYTE   PAN   c_v+20
 BYTE   N24  Cn3  v096
 BYTE   W48
 BYTE   Cn3  v084
 BYTE   W24
 BYTE   Cn3  v080
 BYTE   W24
//  #07 //020   ----------------------------------------
 BYTE   Cn3  v096
 BYTE   W48
 BYTE   Cn3  v084
 BYTE   W24
 BYTE   N11  Cn3  v080
 BYTE   W12
 BYTE   N11
 BYTE   W12
//  #07 //021   ----------------------------------------
 BYTE   N24  Bn2  v092
 BYTE   W48
 BYTE   Bn2  v084
 BYTE   W24
 BYTE   Bn2  v076
 BYTE   W24
//  #07 //022   ----------------------------------------
 BYTE   Bn2  v092
 BYTE   W48
 BYTE   Bn2  v084
 BYTE   W24
 BYTE   N06  Bn2  v044
 BYTE   W06
 BYTE   Bn2  v056
 BYTE   W06
 BYTE   Bn2  v064
 BYTE   W06
 BYTE   Bn2  v076
 BYTE   W06
//  #07 //023   ----------------------------------------
Label_010555F7:
 BYTE   N23  Dn3  v092
 BYTE   W48
 BYTE   N23
 BYTE   W24
 BYTE   N23
 BYTE   W24
 BYTE   PEND 
//  #07 //024   ----------------------------------------
 BYTE   PATT
  POIN2 Label_010555F7
//  #07 //025   ----------------------------------------
 BYTE   PATT
  POIN2 Label_010555F7
//  #07 //026   ----------------------------------------
 BYTE   N23  Dn3  v092
 BYTE   W48
 BYTE   N20
 BYTE   W24
 BYTE   N05
 BYTE   W06
 BYTE   Dn3  v100
 BYTE   W06
 BYTE   Dn3  v108
 BYTE   W06
 BYTE   Dn3  v116
 BYTE   W06
//  #07 //027   ----------------------------------------
 BYTE   GoTo
  POIN2 Label_010554EE
 BYTE   FINE

//******************************************************//
	ALIGN 4

FE07TriumphAlice:
	BYTE	7	// NumTrks
	BYTE	0	// NumBlks
	BYTE	FE07TriumphAlice_pri	// Priority
	BYTE	FE07TriumphAlice_rev	// Reverb.
    
	POIN2	FE07TriumphAlice_grp
    
	POIN2	FE07TriumphAlice_001
	POIN2	FE07TriumphAlice_002
	POIN2	FE07TriumphAlice_003
	POIN2	FE07TriumphAlice_004
	POIN2	FE07TriumphAlice_005
	POIN2	FE07TriumphAlice_006
	POIN2	FE07TriumphAlice_007

	
