//Event file generated from Sappy .s format.
	#include "MPlayDef.event"

	#define	FE07DistantUtopiaAlice_grp  voicegroup000
	#define	FE07DistantUtopiaAlice_pri  10
	#define	FE07DistantUtopiaAlice_rev  128
	#define	FE07DistantUtopiaAlice_mvl  127
	#define	FE07DistantUtopiaAlice_key  0
	#define	FE07DistantUtopiaAlice_tbs  1
	#define	FE07DistantUtopiaAlice_exg  0
	#define	FE07DistantUtopiaAlice_cmp  1

	// .rodata
	//	FE07DistantUtopiaAlice
	ALIGN 4


//**************** Track 1 (Midi-Chn.0) ****************//

FE07DistantUtopiaAlice_001:
//  #01 //000   ----------------------------------------
 BYTE   KEYSH   FE07DistantUtopiaAlice_key+0
 BYTE   TEMPO   72*FE07DistantUtopiaAlice_tbs/2
 BYTE   VOICE   1
 BYTE   VOL   72*FE07DistantUtopiaAlice_mvl/mxv
 BYTE   PAN   c_v+25
 BYTE   N11  Fs4  v092
 BYTE   W12
 BYTE   Fn4  v096
 BYTE   W12
 BYTE   Cs4  v088
 BYTE   W12
Label_0104B910:
 BYTE   N32  Ds4  v092
 BYTE   W72
//  #01 //001   ----------------------------------------
 BYTE   N11  Fn4  v100
 BYTE   W12
 BYTE   Fs4  v092
 BYTE   W12
 BYTE   Gs4  v104
 BYTE   W12
 BYTE   Fn4
 BYTE   W12
 BYTE   N32  Cn4  v092
 BYTE   W54
//  #01 //002   ----------------------------------------
 BYTE   N05  Cs4  v100
 BYTE   W06
 BYTE   Cn4  v096
 BYTE   W06
 BYTE   Cs4  v104
 BYTE   W06
 BYTE   N36  Ds4
 BYTE   W48
 BYTE   N23  Fs3  v088
 BYTE   W24
 BYTE   Gs3  v100
 BYTE   W24
//  #01 //003   ----------------------------------------
 BYTE   N36  Cs4  v104
 BYTE   W60
 BYTE   N11  Fs4
 BYTE   W12
 BYTE   Fn4  v092
 BYTE   W12
 BYTE   Cs4  v088
 BYTE   W12
//  #01 //004   ----------------------------------------
 BYTE   N68  Ds4  v104
 BYTE   W72
 BYTE   N11  Fn4  v092
 BYTE   W12
 BYTE   Fs4  v100
 BYTE   W12
//  #01 //005   ----------------------------------------
 BYTE   N32  Gs4  v096
 BYTE   W36
 BYTE   As4  v084
 BYTE   W36
 BYTE   N23  Fn4  v096
 BYTE   W24
//  #01 //006   ----------------------------------------
 BYTE   N11  Fs4  v108
 BYTE   W12
 BYTE   Fn4  v096
 BYTE   W12
 BYTE   N23  Ds4  v076
 BYTE   W24
 BYTE   N11  Gs4  v088
 BYTE   W12
 BYTE   Fs4  v104
 BYTE   W12
 BYTE   Fn4  v096
 BYTE   W12
 BYTE   Cs4  v092
 BYTE   W12
//  #01 //007   ----------------------------------------
 BYTE   Ds4  v104
 BYTE   W12
 BYTE   Fn4  v092
 BYTE   W12
 BYTE   Fs4  v100
 BYTE   W12
 BYTE   Gs4  v096
 BYTE   W12
 BYTE   N10  As4  v092
 BYTE   W12
 BYTE   N11  Fs4
 BYTE   W12
 BYTE   Fn4  v108
 BYTE   W12
 BYTE   Cs4  v104
 BYTE   W12
//  #01 //008   ----------------------------------------
 BYTE   N32  Ds4  v096
 BYTE   W72
 BYTE   N11  Fn4  v100
 BYTE   W12
 BYTE   Fs4
 BYTE   W12
//  #01 //009   ----------------------------------------
 BYTE   Gs4  v088
 BYTE   W12
 BYTE   Fn4  v104
 BYTE   W12
 BYTE   N32  Cn4  v088
 BYTE   W54
 BYTE   N05  Cs4  v096
 BYTE   W06
 BYTE   Cn4  v104
 BYTE   W06
 BYTE   Cs4
 BYTE   W06
//  #01 //010   ----------------------------------------
 BYTE   N32  Ds4  v100
 BYTE   W48
 BYTE   N23  Fs3
 BYTE   W24
 BYTE   Gs3  v092
 BYTE   W24
//  #01 //011   ----------------------------------------
 BYTE   N32  Cs4  v104
 BYTE   W72
 BYTE   N23  Ds3  v100
 BYTE   W24
//  #01 //012   ----------------------------------------
 BYTE   Cs4
 BYTE   W24
 BYTE   N32  Bn3  v092
 BYTE   W48
 BYTE   N23  Ds3  v104
 BYTE   W24
//  #01 //013   ----------------------------------------
 BYTE   Bn3  v092
 BYTE   W24
 BYTE   N32  As3  v108
 BYTE   W48
 BYTE   N17  Gs3  v080
 BYTE   W24
//  #01 //014   ----------------------------------------
 BYTE   N23  As3  v096
 BYTE   W24
 BYTE   N32  Gs3  v092
 BYTE   W48
 BYTE   N23  Ds3  v108
 BYTE   W24
//  #01 //015   ----------------------------------------
 BYTE   N32  Gs3  v104
 BYTE   W72
 BYTE   N23  Cs4  v100
 BYTE   W24
//  #01 //016   ----------------------------------------
 BYTE   N32  Ds4  v108
 BYTE   W96
//  #01 //017   ----------------------------------------
 BYTE   W96
//  #01 //018   ----------------------------------------
 BYTE   W96
//  #01 //019   ----------------------------------------
 BYTE   W60
 BYTE   N11  Fs4  v104
 BYTE   W12
 BYTE   Fn4  v080
 BYTE   W12
 BYTE   Cs4
 BYTE   W12
//  #01 //020   ----------------------------------------
 BYTE   GoTo
  POIN2 Label_0104B910
 BYTE   FINE

//**************** Track 2 (Midi-Chn.1) ****************//

FE07DistantUtopiaAlice_002:
//  #02 //000   ----------------------------------------
 BYTE   KEYSH   FE07DistantUtopiaAlice_key+0
 BYTE   W12
 BYTE   VOICE   46
 BYTE   VOL   63*FE07DistantUtopiaAlice_mvl/mxv
 BYTE   PAN   c_v+0
 BYTE   W24
Label_0104B6EE:
 BYTE   N11  Bn2  v076
 BYTE   W12
 BYTE   Fs3  v072
 BYTE   W12
 BYTE   As3
 BYTE   W12
 BYTE   Bn3
 BYTE   W12
 BYTE   N23  Ds4  v096
 BYTE   W48
//  #02 //001   ----------------------------------------
 BYTE   N11  As2
 BYTE   W12
 BYTE   Fn3  v084
 BYTE   W12
 BYTE   Gs3  v072
 BYTE   W12
 BYTE   As3  v076
 BYTE   W12
 BYTE   N23  Cs4  v088
 BYTE   W48
//  #02 //002   ----------------------------------------
 BYTE   N11  Bn2  v072
 BYTE   W12
 BYTE   Fs3
 BYTE   W12
 BYTE   As3
 BYTE   W12
 BYTE   Bn3
 BYTE   W12
 BYTE   N23  Ds4  v084
 BYTE   W48
//  #02 //003   ----------------------------------------
 BYTE   N11  As2
 BYTE   W12
 BYTE   Cs3  v092
 BYTE   W12
 BYTE   Fn3  v072
 BYTE   W12
 BYTE   Gs3
 BYTE   W12
 BYTE   As3  v088
 BYTE   W12
 BYTE   Cs4  v092
 BYTE   W12
 BYTE   Fn4  v080
 BYTE   W12
 BYTE   Gs4  v072
 BYTE   W12
//  #02 //004   ----------------------------------------
 BYTE   Bn2  v084
 BYTE   W12
 BYTE   Fs3  v072
 BYTE   W12
 BYTE   As3
 BYTE   W12
 BYTE   Bn3
 BYTE   W12
 BYTE   N23  Ds4  v096
 BYTE   W48
//  #02 //005   ----------------------------------------
 BYTE   N11  As2  v080
 BYTE   W12
 BYTE   Cs3  v088
 BYTE   W12
 BYTE   Fn3  v080
 BYTE   W12
 BYTE   Gs3  v072
 BYTE   W12
 BYTE   As3  v092
 BYTE   W12
 BYTE   Cs4  v088
 BYTE   W12
 BYTE   Fn4  v084
 BYTE   W12
 BYTE   Gs4  v072
 BYTE   W12
//  #02 //006   ----------------------------------------
 BYTE   Ds3  v084
 BYTE   W12
 BYTE   Fs3
 BYTE   W12
 BYTE   N23  As3  v072
 BYTE   W24
 BYTE   N11  Cs3  v104
 BYTE   W12
 BYTE   Fn3  v100
 BYTE   W12
 BYTE   N23  Gs3  v072
 BYTE   W24
//  #02 //007   ----------------------------------------
 BYTE   N11  Bn2  v088
 BYTE   W12
 BYTE   Ds3  v100
 BYTE   W12
 BYTE   N23  Fs3  v072
 BYTE   W24
 BYTE   N11  As2  v104
 BYTE   W12
 BYTE   Cs3  v100
 BYTE   W12
 BYTE   Fn3  v080
 BYTE   W12
 BYTE   Cs3
 BYTE   W12
//  #02 //008   ----------------------------------------
 BYTE   Bn2  v072
 BYTE   W12
 BYTE   Ds3  v100
 BYTE   W12
 BYTE   Fs3  v096
 BYTE   W12
 BYTE   As3  v072
 BYTE   W12
 BYTE   Bn3
 BYTE   W12
 BYTE   Ds4  v084
 BYTE   W12
 BYTE   N23  Fs4  v080
 BYTE   W24
//  #02 //009   ----------------------------------------
 BYTE   N11  As2  v072
 BYTE   W12
 BYTE   Cs3  v100
 BYTE   W12
 BYTE   Fn3  v088
 BYTE   W12
 BYTE   Gs3  v072
 BYTE   W12
 BYTE   As3  v080
 BYTE   W12
 BYTE   Cs4  v096
 BYTE   W12
 BYTE   N23  Fn4
 BYTE   W24
//  #02 //010   ----------------------------------------
 BYTE   N11  Bn2  v076
 BYTE   W12
 BYTE   Ds3  v100
 BYTE   W12
 BYTE   Fs3  v088
 BYTE   W12
 BYTE   Gs3  v072
 BYTE   W12
 BYTE   N23  As3
 BYTE   W48
//  #02 //011   ----------------------------------------
 BYTE   N11  As2  v100
 BYTE   W12
 BYTE   Cs3  v084
 BYTE   W12
 BYTE   Fn3
 BYTE   W12
 BYTE   Gs3  v072
 BYTE   W12
 BYTE   As3  v080
 BYTE   W12
 BYTE   Cs4  v092
 BYTE   W12
 BYTE   Fn4  v100
 BYTE   W12
 BYTE   Gs4  v080
 BYTE   W12
//  #02 //012   ----------------------------------------
 BYTE   Gs2  v096
 BYTE   W12
 BYTE   Ds3  v092
 BYTE   W12
 BYTE   Fs3  v072
 BYTE   W12
 BYTE   Gs3  v080
 BYTE   W12
 BYTE   N23  Bn3  v072
 BYTE   W48
//  #02 //013   ----------------------------------------
 BYTE   N11  Fs2  v080
 BYTE   W12
 BYTE   Cs3
 BYTE   W12
 BYTE   Fs3
 BYTE   W12
 BYTE   Gs3  v076
 BYTE   W12
 BYTE   N23  As3  v092
 BYTE   W48
//  #02 //014   ----------------------------------------
 BYTE   N11  En2  v080
 BYTE   W12
 BYTE   Bn2  v072
 BYTE   W12
 BYTE   En3
 BYTE   W12
 BYTE   Gs3
 BYTE   W12
 BYTE   Bn3  v076
 BYTE   W12
 BYTE   En4  v072
 BYTE   W12
 BYTE   Gs4
 BYTE   W12
 BYTE   En4  v088
 BYTE   W12
//  #02 //015   ----------------------------------------
 BYTE   N40  En2  v072
 BYTE   W96
//  #02 //016   ----------------------------------------
 BYTE   N11  Ds2  v092
 BYTE   W12
 BYTE   As2  v072
 BYTE   W12
 BYTE   Ds3
 BYTE   W12
 BYTE   Fn3  v080
 BYTE   W12
 BYTE   Fs3  v092
 BYTE   W12
 BYTE   Gs3  v076
 BYTE   W12
 BYTE   As3  v096
 BYTE   W12
 BYTE   Ds4  v088
 BYTE   W12
//  #02 //017   ----------------------------------------
 BYTE   Ds2  v080
 BYTE   W12
 BYTE   As2
 BYTE   W12
 BYTE   Ds3  v072
 BYTE   W12
 BYTE   Fn3  v088
 BYTE   W12
 BYTE   Fs3  v092
 BYTE   W12
 BYTE   Gs3  v096
 BYTE   W12
 BYTE   As3  v088
 BYTE   W12
 BYTE   Cs4  v072
 BYTE   W12
//  #02 //018   ----------------------------------------
 BYTE   Ds2  v092
 BYTE   W12
 BYTE   As2
 BYTE   W12
 BYTE   Ds3  v084
 BYTE   W12
 BYTE   Fn3  v088
 BYTE   W12
 BYTE   Fs3  v092
 BYTE   W12
 BYTE   Gs3  v096
 BYTE   W12
 BYTE   As3  v088
 BYTE   W12
 BYTE   Cn4  v084
 BYTE   W12
//  #02 //019   ----------------------------------------
 BYTE   Ds2  v100
 BYTE   W12
 BYTE   As2  v088
 BYTE   W12
 BYTE   Ds3  v080
 BYTE   W12
 BYTE   Fn3  v084
 BYTE   W12
 BYTE   Fs3  v092
 BYTE   W12
 BYTE   Gs3
 BYTE   W12
 BYTE   As3
 BYTE   W12
 BYTE   Cs4  v080
 BYTE   W12
//  #02 //020   ----------------------------------------
 BYTE   GoTo
  POIN2 Label_0104B6EE
 BYTE   FINE

//**************** Track 3 (Midi-Chn.2) ****************//

FE07DistantUtopiaAlice_003:
//  #03 //000   ----------------------------------------
 BYTE   KEYSH   FE07DistantUtopiaAlice_key+0
 BYTE   VOICE   88
 BYTE   VOL   60*FE07DistantUtopiaAlice_mvl/mxv
 BYTE   PAN   c_v-1
 BYTE   W36
Label_0104B521:
 BYTE   N36  Bn1  v108
 BYTE   W96
//  #03 //001   ----------------------------------------
 BYTE   As1
 BYTE   W96
//  #03 //002   ----------------------------------------
 BYTE   Bn1
 BYTE   W96
//  #03 //003   ----------------------------------------
 BYTE   As1
 BYTE   W96
//  #03 //004   ----------------------------------------
 BYTE   Bn1
 BYTE   W96
//  #03 //005   ----------------------------------------
 BYTE   As1
 BYTE   W96
//  #03 //006   ----------------------------------------
 BYTE   Bn1
 BYTE   W48
 BYTE   Cs2
 BYTE   W48
//  #03 //007   ----------------------------------------
 BYTE   Bn1
 BYTE   W48
 BYTE   As1
 BYTE   W48
//  #03 //008   ----------------------------------------
 BYTE   Bn1
 BYTE   W96
//  #03 //009   ----------------------------------------
 BYTE   As1
 BYTE   W96
//  #03 //010   ----------------------------------------
 BYTE   Bn1
 BYTE   W96
//  #03 //011   ----------------------------------------
 BYTE   As1
 BYTE   W96
//  #03 //012   ----------------------------------------
 BYTE   Gs1
 BYTE   W96
//  #03 //013   ----------------------------------------
 BYTE   Fs1
 BYTE   W96
//  #03 //014   ----------------------------------------
 BYTE   En1
 BYTE   W96
//  #03 //015   ----------------------------------------
 BYTE   N36
 BYTE   W96
//  #03 //016   ----------------------------------------
 BYTE   Ds1
 BYTE   W96
//  #03 //017   ----------------------------------------
 BYTE   N36
 BYTE   W96
//  #03 //018   ----------------------------------------
 BYTE   N36
 BYTE   W96
//  #03 //019   ----------------------------------------
 BYTE   N36
 BYTE   W96
//  #03 //020   ----------------------------------------
 BYTE   GoTo
  POIN2 Label_0104B521
 BYTE   FINE

//**************** Track 4 (Midi-Chn.3) ****************//

FE07DistantUtopiaAlice_004:
//  #04 //000   ----------------------------------------
 BYTE   KEYSH   FE07DistantUtopiaAlice_key+0
 BYTE   VOICE   1
 BYTE   VOL   29*FE07DistantUtopiaAlice_mvl/mxv
 BYTE   PAN   c_v-49
 BYTE   BEND   c_v-2
 BYTE   W04
 BYTE   N06  Fs4  v092
 BYTE   W12
 BYTE   Fn4  v096
 BYTE   W12
 BYTE   Cs4  v088
 BYTE   W08
Label_0104B56D:
 BYTE   W04
 BYTE   N06  Ds4  v092
 BYTE   W72
//  #04 //001   ----------------------------------------
 BYTE   Fn4  v100
 BYTE   W12
 BYTE   Fs4  v092
 BYTE   W08
 BYTE   W04
 BYTE   Gs4  v104
 BYTE   W12
 BYTE   Fn4
 BYTE   W12
 BYTE   Cn4  v092
 BYTE   W54
//  #04 //002   ----------------------------------------
 BYTE   Cs4  v100
 BYTE   W06
 BYTE   Cn4  v096
 BYTE   W06
 BYTE   Cs4  v104
 BYTE   W02
 BYTE   W04
 BYTE   Ds4
 BYTE   W48
 BYTE   Fs3  v088
 BYTE   W24
 BYTE   Gs3  v100
 BYTE   W20
//  #04 //003   ----------------------------------------
 BYTE   W04
 BYTE   Cs4  v104
 BYTE   W60
 BYTE   Fs4
 BYTE   W12
 BYTE   Fn4  v092
 BYTE   W12
 BYTE   Cs4  v088
 BYTE   W08
//  #04 //004   ----------------------------------------
 BYTE   W04
 BYTE   Ds4  v104
 BYTE   W72
 BYTE   Fn4  v092
 BYTE   W12
 BYTE   Fs4  v100
 BYTE   W08
//  #04 //005   ----------------------------------------
 BYTE   W04
 BYTE   Gs4  v096
 BYTE   W36
 BYTE   As4  v084
 BYTE   W36
 BYTE   Fn4  v096
 BYTE   W20
//  #04 //006   ----------------------------------------
 BYTE   W04
 BYTE   Fs4  v108
 BYTE   W12
 BYTE   Fn4  v096
 BYTE   W12
 BYTE   Ds4  v076
 BYTE   W24
 BYTE   Gs4  v088
 BYTE   W12
 BYTE   Fs4  v104
 BYTE   W12
 BYTE   Fn4  v096
 BYTE   W12
 BYTE   Cs4  v092
 BYTE   W08
//  #04 //007   ----------------------------------------
 BYTE   W04
 BYTE   Ds4  v104
 BYTE   W12
 BYTE   Fn4  v092
 BYTE   W12
 BYTE   Fs4  v100
 BYTE   W12
 BYTE   Gs4  v096
 BYTE   W12
 BYTE   As4  v092
 BYTE   W12
 BYTE   Fs4
 BYTE   W12
 BYTE   Fn4  v108
 BYTE   W12
 BYTE   Cs4  v104
 BYTE   W08
//  #04 //008   ----------------------------------------
 BYTE   W04
 BYTE   Ds4  v096
 BYTE   W72
 BYTE   Fn4  v100
 BYTE   W12
 BYTE   Fs4
 BYTE   W08
//  #04 //009   ----------------------------------------
 BYTE   W04
 BYTE   Gs4  v088
 BYTE   W12
 BYTE   Fn4  v104
 BYTE   W12
 BYTE   Cn4  v088
 BYTE   W54
 BYTE   Cs4  v096
 BYTE   W06
 BYTE   Cn4  v104
 BYTE   W06
 BYTE   Cs4
 BYTE   W02
//  #04 //010   ----------------------------------------
 BYTE   W04
 BYTE   Ds4  v100
 BYTE   W48
 BYTE   Fs3
 BYTE   W24
 BYTE   Gs3  v092
 BYTE   W20
//  #04 //011   ----------------------------------------
 BYTE   W04
 BYTE   Cs4  v104
 BYTE   W72
 BYTE   Ds3  v100
 BYTE   W20
//  #04 //012   ----------------------------------------
 BYTE   W04
 BYTE   Cs4
 BYTE   W24
 BYTE   Bn3  v092
 BYTE   W48
 BYTE   Ds3  v104
 BYTE   W20
//  #04 //013   ----------------------------------------
 BYTE   W04
 BYTE   Bn3  v092
 BYTE   W24
 BYTE   As3  v108
 BYTE   W48
 BYTE   Gs3  v080
 BYTE   W20
//  #04 //014   ----------------------------------------
 BYTE   W04
 BYTE   As3  v096
 BYTE   W24
 BYTE   Gs3  v092
 BYTE   W48
 BYTE   Ds3  v108
 BYTE   W20
//  #04 //015   ----------------------------------------
 BYTE   W04
 BYTE   Gs3  v104
 BYTE   W72
 BYTE   Cs4  v100
 BYTE   W20
//  #04 //016   ----------------------------------------
 BYTE   W04
 BYTE   Ds4  v108
 BYTE   W92
//  #04 //017   ----------------------------------------
 BYTE   W96
//  #04 //018   ----------------------------------------
 BYTE   W96
//  #04 //019   ----------------------------------------
 BYTE   W64
 BYTE   Fs4  v104
 BYTE   W12
 BYTE   Fn4  v080
 BYTE   W12
 BYTE   Cs4
 BYTE   W08
//  #04 //020   ----------------------------------------
 BYTE   GoTo
  POIN2 Label_0104B56D
 BYTE   FINE

//**************** Track 5 (Midi-Chn.4) ****************//

FE07DistantUtopiaAlice_005:
//  #05 //000   ----------------------------------------
 BYTE   KEYSH   FE07DistantUtopiaAlice_key+0
 BYTE   VOICE   40
 BYTE   VOL   53*FE07DistantUtopiaAlice_mvl/mxv
 BYTE   PAN   c_v-15
 BYTE   N11  Fs4  v080
 BYTE   W12
 BYTE   Fn4
 BYTE   W12
 BYTE   Cs4  v076
 BYTE   W12
Label_01056895:
 BYTE   N64  Ds4  v080
 BYTE   W66
//  #05 //001   ----------------------------------------
 BYTE   N05  Ds4  v032
 BYTE   W06
 BYTE   N11  Fn4  v080
 BYTE   W12
 BYTE   Fs4
 BYTE   W12
 BYTE   PEND 
Label_010568A4:
 BYTE   N11  Gs4  v080
 BYTE   W12
 BYTE   Fn4
 BYTE   W12
 BYTE   N44  Cn4
 BYTE   W48
//  #05 //002   ----------------------------------------
 BYTE   N05  Cn4  v032
 BYTE   W06
 BYTE   Cs4  v080
 BYTE   W06
 BYTE   Cn4
 BYTE   W06
 BYTE   Cs4
 BYTE   W06
 BYTE   PEND 
Label_010568B9:
 BYTE   N40  Ds4  v080
 BYTE   W42
 BYTE   N05  Ds4  v032
 BYTE   W06
 BYTE   N23  Fs3  v080
 BYTE   W24
//  #05 //003   ----------------------------------------
 BYTE   Gs3
 BYTE   W24
 BYTE   PEND 
 BYTE   N44  Cs4
 BYTE   W48
 BYTE   N05  Cs4  v032
 BYTE   W12
 BYTE   N11  Fs4  v080
 BYTE   W12
//  #05 //004   ----------------------------------------
 BYTE   Fn4
 BYTE   W12
 BYTE   Cs4
 BYTE   W12
//  #05 //005   ----------------------------------------
 BYTE   PATT
  POIN2 Label_01056895
//  #05 //006   ----------------------------------------
 BYTE   N28  Gs4  v080
 BYTE   W30
 BYTE   N05  Gs4  v032
 BYTE   W06
 BYTE   N28  As4  v080
 BYTE   W30
 BYTE   N05  As4  v032
 BYTE   W06
 BYTE   N17  Fn4  v080
 BYTE   W18
 BYTE   N05  Fn4  v032
 BYTE   W06
//  #05 //007   ----------------------------------------
 BYTE   N11  Fs4  v080
 BYTE   W12
 BYTE   Fn4
 BYTE   W12
 BYTE   N17  Ds4
 BYTE   W18
 BYTE   N05  Ds4  v032
 BYTE   W06
 BYTE   N11  Gs4  v080
 BYTE   W12
 BYTE   Fs4
 BYTE   W12
 BYTE   Fn4
 BYTE   W12
 BYTE   Cs4
 BYTE   W12
//  #05 //008   ----------------------------------------
 BYTE   Ds4
 BYTE   W12
 BYTE   Fn4
 BYTE   W12
 BYTE   Fs4
 BYTE   W12
 BYTE   Gs4
 BYTE   W12
 BYTE   N05  As4
 BYTE   W06
 BYTE   As4  v032
 BYTE   W06
 BYTE   N11  Fs4  v080
 BYTE   W12
 BYTE   Fn4
 BYTE   W12
 BYTE   Cs4
 BYTE   W12
//  #05 //009   ----------------------------------------
 BYTE   PATT
  POIN2 Label_01056895
//  #05 //010   ----------------------------------------
 BYTE   PATT
  POIN2 Label_010568A4
//  #05 //011   ----------------------------------------
 BYTE   PATT
  POIN2 Label_010568B9
//  #05 //012   ----------------------------------------
 BYTE   N64  Cs4  v080
 BYTE   W66
 BYTE   N05  Cs4  v032
 BYTE   W06
 BYTE   N17  Ds3  v080
 BYTE   W18
 BYTE   N05  Ds3  v032
 BYTE   W06
//  #05 //013   ----------------------------------------
 BYTE   N23  Cs4  v080
 BYTE   W24
 BYTE   N40  Bn3
 BYTE   W42
 BYTE   N05  Bn3  v032
 BYTE   W06
 BYTE   N17  Ds3  v080
 BYTE   W18
 BYTE   N05  Ds3  v032
 BYTE   W06
//  #05 //014   ----------------------------------------
 BYTE   N23  Bn3  v080
 BYTE   W24
 BYTE   N40  As3
 BYTE   W42
 BYTE   N05  As3  v032
 BYTE   W06
 BYTE   N17  Gs3  v068
 BYTE   W24
//  #05 //015   ----------------------------------------
 BYTE   N23  As3  v080
 BYTE   W24
 BYTE   N40  Gs3
 BYTE   W42
 BYTE   N05  Gs3  v032
 BYTE   W06
 BYTE   N23  Ds3  v080
 BYTE   W24
//  #05 //016   ----------------------------------------
 BYTE   N68  Gs3
 BYTE   W72
 BYTE   N23  Cs4
 BYTE   W24
//  #05 //017   ----------------------------------------
 BYTE   TIE  Ds4
 BYTE   W96
//  #05 //018   ----------------------------------------
 BYTE   W96
//  #05 //019   ----------------------------------------
 BYTE   W96
//  #05 //020   ----------------------------------------
 BYTE   W32
 BYTE   W03
 BYTE   EOT
 BYTE   W01
 BYTE   N05  Ds4  v032
 BYTE   W24
 BYTE   N11  Fs4  v080
 BYTE   W12
 BYTE   Fn4  v072
 BYTE   W12
 BYTE   Cs4
 BYTE   W12
//  #05 //021   ----------------------------------------
 BYTE   GoTo
  POIN2 Label_01056895
 BYTE   FINE

//**************** Track 6 (Midi-Chn.5) ****************//

FE07DistantUtopiaAlice_006:
//  #06 //000   ----------------------------------------
 BYTE   KEYSH   FE07DistantUtopiaAlice_key+0
 BYTE   W12
 BYTE   VOICE   60
 BYTE   VOL   50*FE07DistantUtopiaAlice_mvl/mxv
 BYTE   PAN   c_v-10
 BYTE   W24
Label_0105699E:
 BYTE   N92  Fs2  v080
 BYTE   N96  Ds3  v092
 BYTE   W96
//  #06 //001   ----------------------------------------
 BYTE   N44  Fn2  v088
 BYTE   N48  Cs3  v092
 BYTE   W48
 BYTE   N44  As2  v076
 BYTE   N48  Fn3  v088
 BYTE   W48
//  #06 //002   ----------------------------------------
 BYTE   N44  Cs3  v092
 BYTE   N48  Fs3  v076
 BYTE   W48
 BYTE   N44  As2
 BYTE   N48  Ds3  v092
 BYTE   W48
//  #06 //003   ----------------------------------------
 BYTE   N44  Cn3  v084
 BYTE   N48  Fn3  v076
 BYTE   W48
 BYTE   N44  Gs2
 BYTE   N48  Cs3  v092
 BYTE   W48
//  #06 //004   ----------------------------------------
 BYTE   N92  As2  v084
 BYTE   N96  Ds3  v076
 BYTE   W96
//  #06 //005   ----------------------------------------
 BYTE   N44  Bn2
 BYTE   N48  Fn3
 BYTE   W48
 BYTE   N44  Cs3  v092
 BYTE   N48  Fn3  v076
 BYTE   W48
//  #06 //006   ----------------------------------------
 BYTE   N44  As2
 BYTE   N48  Fs3  v092
 BYTE   W48
 BYTE   N44  Gs2  v084
 BYTE   N48  Fn3  v092
 BYTE   W48
//  #06 //007   ----------------------------------------
 BYTE   N44  Fs2  v088
 BYTE   N48  Ds3  v092
 BYTE   W48
 BYTE   N44  Gs2  v084
 BYTE   N48  Fn3  v092
 BYTE   W48
//  #06 //008   ----------------------------------------
 BYTE   N92  Fs2  v084
 BYTE   N96  Ds3  v092
 BYTE   W96
//  #06 //009   ----------------------------------------
 BYTE   N44  Gs2  v076
 BYTE   N48  Fn3  v084
 BYTE   W48
 BYTE   N44  Fn2  v076
 BYTE   N24  Cs3
 BYTE   W24
 BYTE   As2
 BYTE   W24
//  #06 //010   ----------------------------------------
 BYTE   N44  Fs2
 BYTE   N48  Bn2  v080
 BYTE   W48
 BYTE   N44  Fs2  v076
 BYTE   N48  Ds3  v092
 BYTE   W48
//  #06 //011   ----------------------------------------
 BYTE   N44  Fn2  v076
 BYTE   N48  Cs3  v092
 BYTE   W48
 BYTE   N68  As2  v084
 BYTE   N72  Fn3  v088
 BYTE   W48
//  #06 //012   ----------------------------------------
 BYTE   W24
 BYTE   N68  Gs2  v076
 BYTE   N72  Ds3  v092
 BYTE   W72
//  #06 //013   ----------------------------------------
 BYTE   N92  Fs2  v080
 BYTE   N92  Cs3  v092
 BYTE   W96
//  #06 //014   ----------------------------------------
 BYTE   En2
 BYTE   N48  Cs3
 BYTE   W48
 BYTE   Bn2
 BYTE   W48
//  #06 //015   ----------------------------------------
 BYTE   N84  En2  v084
 BYTE   N48  As2  v092
 BYTE   W48
 BYTE   N24  Gs2  v076
 BYTE   W24
 BYTE   As2
 BYTE   W24
//  #06 //016   ----------------------------------------
 BYTE   N92  Ds2
 BYTE   N96  Fs2  v088
 BYTE   W96
//  #06 //017   ----------------------------------------
 BYTE   N92  Gs2  v076
 BYTE   N72  Cs3  v092
 BYTE   W72
 BYTE   N24  Ds3  v096
 BYTE   W24
//  #06 //018   ----------------------------------------
 BYTE   N90  Gs2  v076
 BYTE   N48  Fn3  v100
 BYTE   W48
 BYTE   Cs3  v096
 BYTE   W48
//  #06 //019   ----------------------------------------
 BYTE   N84  Gs2  v084
 BYTE   N84  Ds3  v096
 BYTE   W96
//  #06 //020   ----------------------------------------
 BYTE   GoTo
  POIN2 Label_0105699E
 BYTE   FINE

//******************************************************//
	ALIGN 4

FE07DistantUtopiaAlice:
	BYTE	6	// NumTrks
	BYTE	0	// NumBlks
	BYTE	FE07DistantUtopiaAlice_pri	// Priority
	BYTE	FE07DistantUtopiaAlice_rev	// Reverb.
    
	POIN2	FE07DistantUtopiaAlice_grp
    
	POIN2	FE07DistantUtopiaAlice_001
	POIN2	FE07DistantUtopiaAlice_002
	POIN2	FE07DistantUtopiaAlice_003
	POIN2	FE07DistantUtopiaAlice_004
	POIN2	FE07DistantUtopiaAlice_005
	POIN2	FE07DistantUtopiaAlice_006

	
