//Event file generated from Sappy .s format.
	#include "MPlayDef.event"

	#define	FE07CampaignofFireIntrolessAlice_grp  voicegroup000
	#define	FE07CampaignofFireIntrolessAlice_pri  10
	#define	FE07CampaignofFireIntrolessAlice_rev  128
	#define	FE07CampaignofFireIntrolessAlice_mvl  127
	#define	FE07CampaignofFireIntrolessAlice_key  0
	#define	FE07CampaignofFireIntrolessAlice_tbs  1
	#define	FE07CampaignofFireIntrolessAlice_exg  0
	#define	FE07CampaignofFireIntrolessAlice_cmp  1

	// .rodata
	//	FE07CampaignofFireIntrolessAlice
	ALIGN 4


//**************** Track 1 (Midi-Chn.0) ****************//

FE07CampaignofFireIntrolessAlice_001:
//  #01 //000   ----------------------------------------
 BYTE   KEYSH   FE07CampaignofFireIntrolessAlice_key+0
Label_01023B32:
 BYTE   TEMPO   182*FE07CampaignofFireIntrolessAlice_tbs/2
 BYTE   VOICE   127
 BYTE   VOL   35*FE07CampaignofFireIntrolessAlice_mvl/mxv
 BYTE   W24
 BYTE   N14  Ds2  v088
 BYTE   W24
 BYTE   N11
 BYTE   W12
 BYTE   N14  Ds2  v072
 BYTE   W24
 BYTE   N11  Ds2  v088
 BYTE   W12
//  #01 //001   ----------------------------------------
Label_01023B47:
 BYTE   N15  Ds2  v088
 BYTE   W24
 BYTE   N11
 BYTE   W12
 BYTE   N14
 BYTE   W24
 BYTE   N14
 BYTE   W24
 BYTE   N14
 BYTE   W12
 BYTE   PEND 
//  #01 //002   ----------------------------------------
Label_01023B54:
 BYTE   W12
 BYTE   N11  Ds2  v088
 BYTE   W12
 BYTE   N14
 BYTE   W24
 BYTE   N11  Ds2  v080
 BYTE   W12
 BYTE   N15  Ds2  v088
 BYTE   W24
 BYTE   N11  Ds2  v076
 BYTE   W12
 BYTE   PEND 
//  #01 //003   ----------------------------------------
Label_01023B68:
 BYTE   N14  Ds2  v052
 BYTE   W24
 BYTE   N11  Ds2  v088
 BYTE   W12
 BYTE   N15
 BYTE   W24
 BYTE   N11
 BYTE   W12
 BYTE   Ds2  v064
 BYTE   W12
 BYTE   N15  Ds2  v088
 BYTE   W12
 BYTE   PEND 
//  #01 //004   ----------------------------------------
Label_01023B7C:
 BYTE   W12
 BYTE   N11  Ds2  v072
 BYTE   W12
 BYTE   N15  Ds2  v064
 BYTE   W24
 BYTE   N11  Ds2  v052
 BYTE   W12
 BYTE   N15  Ds2  v076
 BYTE   W24
 BYTE   Ds2  v072
 BYTE   W12
 BYTE   PEND 
//  #01 //005   ----------------------------------------
Label_01023B91:
 BYTE   W12
 BYTE   N11  Ds2  v052
 BYTE   W12
 BYTE   N15  Ds2  v072
 BYTE   W36
 BYTE   Ds2  v084
 BYTE   W24
 BYTE   Ds2  v080
 BYTE   W12
 BYTE   PEND 
//  #01 //006   ----------------------------------------
Label_01023BA1:
 BYTE   W12
 BYTE   N11  Ds2  v080
 BYTE   W12
 BYTE   N15  Ds2  v088
 BYTE   W36
 BYTE   N11  Ds2  v068
 BYTE   W12
 BYTE   N14  Ds2  v080
 BYTE   W24
 BYTE   PEND 
//  #01 //007   ----------------------------------------
Label_01023BB3:
 BYTE   W12
 BYTE   N11  Ds2  v072
 BYTE   W12
 BYTE   N15  Ds2  v088
 BYTE   W36
 BYTE   N11  Ds2  v080
 BYTE   W12
 BYTE   Ds2  v076
 BYTE   W12
 BYTE   N14  Ds2  v088
 BYTE   W12
 BYTE   PEND 
//  #01 //008   ----------------------------------------
Label_01023BC8:
 BYTE   W12
 BYTE   N11  Ds2  v076
 BYTE   W12
 BYTE   N14  Ds2  v088
 BYTE   W24
 BYTE   N11
 BYTE   W12
 BYTE   N14  Ds2  v072
 BYTE   W24
 BYTE   N11  Ds2  v088
 BYTE   W12
 BYTE   PEND 
//  #01 //009   ----------------------------------------
 BYTE   PATT
  POIN2 Label_01023B47
//  #01 //010   ----------------------------------------
 BYTE   PATT
  POIN2 Label_01023B54
//  #01 //011   ----------------------------------------
 BYTE   PATT
  POIN2 Label_01023B68
//  #01 //012   ----------------------------------------
 BYTE   W12
 BYTE   N11  Ds2  v084
 BYTE   W12
 BYTE   N14  Ds2  v088
 BYTE   W36
 BYTE   N15
 BYTE   W24
 BYTE   N11  Ds2  v084
 BYTE   W12
//  #01 //013   ----------------------------------------
 BYTE   N15  Ds2  v088
 BYTE   W24
 BYTE   N11
 BYTE   W12
 BYTE   N15
 BYTE   W24
 BYTE   N11
 BYTE   W12
 BYTE   N11
 BYTE   W12
 BYTE   N15
 BYTE   W12
//  #01 //014   ----------------------------------------
 BYTE   W12
 BYTE   N11
 BYTE   W12
 BYTE   N15
 BYTE   W24
 BYTE   N11
 BYTE   W12
 BYTE   N15
 BYTE   W24
 BYTE   N11
 BYTE   W12
//  #01 //015   ----------------------------------------
 BYTE   N14
 BYTE   W24
 BYTE   N11
 BYTE   W12
 BYTE   N15
 BYTE   W24
 BYTE   N11
 BYTE   W12
 BYTE   N11
 BYTE   W12
 BYTE   Ds2  v084
 BYTE   W12
//  #01 //016   ----------------------------------------
 BYTE   PATT
  POIN2 Label_01023B7C
//  #01 //017   ----------------------------------------
 BYTE   PATT
  POIN2 Label_01023B91
//  #01 //018   ----------------------------------------
 BYTE   PATT
  POIN2 Label_01023BA1
//  #01 //019   ----------------------------------------
 BYTE   PATT
  POIN2 Label_01023BB3
//  #01 //020   ----------------------------------------
 BYTE   PATT
  POIN2 Label_01023BC8
//  #01 //021   ----------------------------------------
 BYTE   PATT
  POIN2 Label_01023B47
//  #01 //022   ----------------------------------------
 BYTE   PATT
  POIN2 Label_01023B54
//  #01 //023   ----------------------------------------
 BYTE   GoTo
  POIN2 Label_01023B32
 BYTE   FINE

//**************** Track 2 (Midi-Chn.1) ****************//

FE07CampaignofFireIntrolessAlice_002:
//  #02 //000   ----------------------------------------
 BYTE   KEYSH   FE07CampaignofFireIntrolessAlice_key+0
Label_01020A92:
 BYTE   VOICE   34
 BYTE   VOL   49*FE07CampaignofFireIntrolessAlice_mvl/mxv
 BYTE   PAN   c_v+0
 BYTE   N18  An1  v096
 BYTE   W24
 BYTE   N18
 BYTE   W48
 BYTE   N12
 BYTE   W24
//  #02 //001   ----------------------------------------
 BYTE   N08
 BYTE   W24
 BYTE   N18
 BYTE   W36
 BYTE   N08
 BYTE   W12
 BYTE   N11
 BYTE   W24
//  #02 //002   ----------------------------------------
 BYTE   N07
 BYTE   W12
 BYTE   N11
 BYTE   W12
 BYTE   N18  An2
 BYTE   W36
 BYTE   N07  An1
 BYTE   W12
 BYTE   N11
 BYTE   W12
 BYTE   An2
 BYTE   W12
//  #02 //003   ----------------------------------------
 BYTE   N08  An1
 BYTE   W12
 BYTE   N11
 BYTE   W12
 BYTE   N18  An2
 BYTE   W36
 BYTE   N06  An1
 BYTE   W12
 BYTE   N12
 BYTE   W24
//  #02 //004   ----------------------------------------
 BYTE   VOICE   33
 BYTE   N92  An2  v100
 BYTE   W96
//  #02 //005   ----------------------------------------
 BYTE   Fn2
 BYTE   W96
//  #02 //006   ----------------------------------------
 BYTE   An2  v104
 BYTE   W96
//  #02 //007   ----------------------------------------
 BYTE   Fn2  v100
 BYTE   W96
//  #02 //008   ----------------------------------------
 BYTE   Dn2  v092
 BYTE   W96
//  #02 //009   ----------------------------------------
 BYTE   As2  v100
 BYTE   W96
//  #02 //010   ----------------------------------------
 BYTE   Bn2  v092
 BYTE   W96
//  #02 //011   ----------------------------------------
 BYTE   Cn3
 BYTE   W96
//  #02 //012   ----------------------------------------
 BYTE   N92
 BYTE   W96
//  #02 //013   ----------------------------------------
 BYTE   N92
 BYTE   W96
//  #02 //014   ----------------------------------------
 BYTE   N90  Gn2
 BYTE   W96
//  #02 //015   ----------------------------------------
 BYTE   TIE  Gs2  v112
 BYTE   W96
//  #02 //016   ----------------------------------------
 BYTE   W92
 BYTE   W03
 BYTE   EOT
 BYTE   W01
//  #02 //017   ----------------------------------------
 BYTE   TIE  Gn2  v104
 BYTE   W96
//  #02 //018   ----------------------------------------
 BYTE   W76
 BYTE   W01
 BYTE   EOT
 BYTE   W07
 BYTE   N11  Gn3  v108
 BYTE   W12
//  #02 //019   ----------------------------------------
 BYTE   VOICE   34
 BYTE   N07  An1  v096
 BYTE   W12
 BYTE   N11
 BYTE   W12
 BYTE   N32  An2
 BYTE   W36
 BYTE   N06  An1
 BYTE   W12
 BYTE   N11
 BYTE   W12
 BYTE   An2
 BYTE   W12
//  #02 //020   ----------------------------------------
Label_01020B09:
 BYTE   N06  An1  v096
 BYTE   W12
 BYTE   N11
 BYTE   W12
 BYTE   N32  An2
 BYTE   W36
 BYTE   N06  An1
 BYTE   W12
 BYTE   N11
 BYTE   W12
 BYTE   An2
 BYTE   W12
 BYTE   PEND 
//  #02 //021   ----------------------------------------
 BYTE   PATT
  POIN2 Label_01020B09
//  #02 //022   ----------------------------------------
 BYTE   N06  An1  v096
 BYTE   W12
 BYTE   N11
 BYTE   W12
 BYTE   N32  An2
 BYTE   W36
 BYTE   N07  An1
 BYTE   W12
 BYTE   N11
 BYTE   W12
 BYTE   N10  An2
 BYTE   W12
//  #02 //023   ----------------------------------------
 BYTE   GoTo
  POIN2 Label_01020A92
 BYTE   FINE

//**************** Track 3 (Midi-Chn.2) ****************//

FE07CampaignofFireIntrolessAlice_003:
//  #03 //000   ----------------------------------------
 BYTE   KEYSH   FE07CampaignofFireIntrolessAlice_key+0
Label_01020E12:
 BYTE   VOICE   6
 BYTE   VOL   37*FE07CampaignofFireIntrolessAlice_mvl/mxv
 BYTE   PAN   c_v+14
 BYTE   N11  En3  v080
 BYTE   W12
 BYTE   Fn3
 BYTE   W12
 BYTE   An3
 BYTE   W12
 BYTE   Gn3
 BYTE   W12
 BYTE   Bn3
 BYTE   W12
 BYTE   An3
 BYTE   W12
 BYTE   Cn4
 BYTE   W12
 BYTE   Bn3
 BYTE   W12
//  #03 //001   ----------------------------------------
Label_01020E2A:
 BYTE   N11  An3  v080
 BYTE   W12
 BYTE   Bn3
 BYTE   W12
 BYTE   Gn3
 BYTE   W12
 BYTE   An3
 BYTE   W12
 BYTE   Fn3
 BYTE   W12
 BYTE   Gn3
 BYTE   W12
 BYTE   En3
 BYTE   W12
 BYTE   Fn3
 BYTE   W12
 BYTE   PEND 
//  #03 //002   ----------------------------------------
 BYTE   En3
 BYTE   W12
 BYTE   Fn3
 BYTE   W12
 BYTE   An3
 BYTE   W12
 BYTE   Gn3
 BYTE   W12
 BYTE   Bn3
 BYTE   W12
 BYTE   An3
 BYTE   W12
 BYTE   Cn4
 BYTE   W12
 BYTE   Bn3
 BYTE   W12
//  #03 //003   ----------------------------------------
 BYTE   PATT
  POIN2 Label_01020E2A
//  #03 //004   ----------------------------------------
 BYTE   W96
//  #03 //005   ----------------------------------------
 BYTE   W96
//  #03 //006   ----------------------------------------
 BYTE   W96
//  #03 //007   ----------------------------------------
 BYTE   W96
//  #03 //008   ----------------------------------------
 BYTE   W96
//  #03 //009   ----------------------------------------
 BYTE   W96
//  #03 //010   ----------------------------------------
 BYTE   W96
//  #03 //011   ----------------------------------------
 BYTE   VOICE   100
 BYTE   VOL   37*FE07CampaignofFireIntrolessAlice_mvl/mxv
 BYTE   PAN   c_v+11
 BYTE   N52  Ds4  v096
 BYTE   W60
 BYTE   N11  Dn4
 BYTE   W12
 BYTE   Ds4
 BYTE   W12
 BYTE   N56  Fn4
 BYTE   W12
//  #03 //012   ----------------------------------------
 BYTE   W48
 BYTE   N44  Ds4
 BYTE   W48
//  #03 //013   ----------------------------------------
 BYTE   N56  Dn4
 BYTE   W60
 BYTE   N11  Cn4
 BYTE   W12
 BYTE   Dn4
 BYTE   W12
 BYTE   N56  Ds4
 BYTE   W12
//  #03 //014   ----------------------------------------
 BYTE   W48
 BYTE   N48  Dn4
 BYTE   W48
//  #03 //015   ----------------------------------------
 BYTE   W96
//  #03 //016   ----------------------------------------
 BYTE   W96
//  #03 //017   ----------------------------------------
 BYTE   W96
//  #03 //018   ----------------------------------------
 BYTE   W72
 BYTE   VOICE   6
 BYTE   VOL   37*FE07CampaignofFireIntrolessAlice_mvl/mxv
 BYTE   PAN   c_v+14
 BYTE   W24
//  #03 //019   ----------------------------------------
 BYTE   N10  En3  v072
 BYTE   W12
 BYTE   N11  Fn3  v076
 BYTE   W12
 BYTE   N10  An3  v084
 BYTE   W12
 BYTE   N11  Gn3  v072
 BYTE   W12
 BYTE   Bn3  v084
 BYTE   W12
 BYTE   An3  v072
 BYTE   W12
 BYTE   Cn4  v092
 BYTE   W12
 BYTE   N10  Bn3  v096
 BYTE   W12
//  #03 //020   ----------------------------------------
 BYTE   N11  An3  v088
 BYTE   W12
 BYTE   Bn3
 BYTE   W12
 BYTE   Gn3  v072
 BYTE   W12
 BYTE   An3  v084
 BYTE   W12
 BYTE   Fn3  v076
 BYTE   W12
 BYTE   Gn3
 BYTE   W12
 BYTE   En3  v080
 BYTE   W12
 BYTE   Fn3  v064
 BYTE   W12
//  #03 //021   ----------------------------------------
 BYTE   En3  v088
 BYTE   W12
 BYTE   Fn3  v084
 BYTE   W12
 BYTE   An3  v076
 BYTE   W12
 BYTE   Gn3
 BYTE   W12
 BYTE   Bn3  v096
 BYTE   W12
 BYTE   An3  v076
 BYTE   W12
 BYTE   Cn4  v084
 BYTE   W12
 BYTE   Bn3  v088
 BYTE   W12
//  #03 //022   ----------------------------------------
 BYTE   An3  v084
 BYTE   W12
 BYTE   Bn3
 BYTE   W12
 BYTE   Gn3  v080
 BYTE   W12
 BYTE   An3
 BYTE   W12
 BYTE   Fn3  v072
 BYTE   W12
 BYTE   Gn3  v076
 BYTE   W12
 BYTE   En3  v080
 BYTE   W12
 BYTE   N08  Fn3  v076
 BYTE   W12
//  #03 //023   ----------------------------------------
 BYTE   GoTo
  POIN2 Label_01020E12
 BYTE   FINE

//**************** Track 4 (Midi-Chn.3) ****************//

FE07CampaignofFireIntrolessAlice_004:
//  #04 //000   ----------------------------------------
 BYTE   KEYSH   FE07CampaignofFireIntrolessAlice_key+0
Label_0102352A:
 BYTE   VOICE   6
 BYTE   VOL   41*FE07CampaignofFireIntrolessAlice_mvl/mxv
 BYTE   PAN   c_v-17
 BYTE   N11  An1  v088
 BYTE   W12
 BYTE   An2
 BYTE   W12
 BYTE   En2
 BYTE   W12
 BYTE   An1
 BYTE   W12
 BYTE   An2
 BYTE   W12
 BYTE   En2
 BYTE   W12
 BYTE   An1
 BYTE   W12
 BYTE   An2
 BYTE   W12
//  #04 //001   ----------------------------------------
Label_01023542:
 BYTE   N11  En2  v088
 BYTE   W12
 BYTE   An1
 BYTE   W12
 BYTE   An2
 BYTE   W12
 BYTE   En2
 BYTE   W12
 BYTE   An1
 BYTE   W12
 BYTE   An2
 BYTE   W12
 BYTE   Dn2
 BYTE   W12
 BYTE   En2
 BYTE   W12
 BYTE   PEND 
//  #04 //002   ----------------------------------------
Label_01023555:
 BYTE   N11  An1  v088
 BYTE   W12
 BYTE   An2
 BYTE   W12
 BYTE   En2
 BYTE   W12
 BYTE   An1
 BYTE   W12
 BYTE   An2
 BYTE   W12
 BYTE   En2
 BYTE   W12
 BYTE   An1
 BYTE   W12
 BYTE   An2
 BYTE   W12
 BYTE   PEND 
//  #04 //003   ----------------------------------------
 BYTE   PATT
  POIN2 Label_01023542
//  #04 //004   ----------------------------------------
Label_0102356D:
 BYTE   N11  An1  v088
 BYTE   W12
 BYTE   An2
 BYTE   W12
 BYTE   En2
 BYTE   W12
 BYTE   An1
 BYTE   W12
 BYTE   An2
 BYTE   W12
 BYTE   En2
 BYTE   W12
 BYTE   An1
 BYTE   W12
 BYTE   An2
 BYTE   W12
 BYTE   PEND 
//  #04 //005   ----------------------------------------
 BYTE   PATT
  POIN2 Label_01023542
//  #04 //006   ----------------------------------------
 BYTE   PATT
  POIN2 Label_01023555
//  #04 //007   ----------------------------------------
 BYTE   PATT
  POIN2 Label_01023542
//  #04 //008   ----------------------------------------
 BYTE   PATT
  POIN2 Label_0102356D
//  #04 //009   ----------------------------------------
 BYTE   PATT
  POIN2 Label_01023542
//  #04 //010   ----------------------------------------
 BYTE   PATT
  POIN2 Label_01023555
//  #04 //011   ----------------------------------------
 BYTE   W96
//  #04 //012   ----------------------------------------
 BYTE   W96
//  #04 //013   ----------------------------------------
 BYTE   W96
//  #04 //014   ----------------------------------------
 BYTE   W96
//  #04 //015   ----------------------------------------
 BYTE   W96
//  #04 //016   ----------------------------------------
 BYTE   W96
//  #04 //017   ----------------------------------------
 BYTE   W96
//  #04 //018   ----------------------------------------
 BYTE   W72
 BYTE   VOICE   6
 BYTE   VOL   46*FE07CampaignofFireIntrolessAlice_mvl/mxv
 BYTE   PAN   c_v-17
 BYTE   W24
//  #04 //019   ----------------------------------------
 BYTE   N11  An1  v092
 BYTE   W12
 BYTE   An2  v080
 BYTE   W12
 BYTE   En2  v100
 BYTE   W12
 BYTE   An1  v080
 BYTE   W12
 BYTE   An2
 BYTE   W12
 BYTE   En2  v092
 BYTE   W12
 BYTE   An1  v080
 BYTE   W12
 BYTE   An2
 BYTE   W12
//  #04 //020   ----------------------------------------
 BYTE   En2  v092
 BYTE   W12
 BYTE   An1  v080
 BYTE   W12
 BYTE   An2
 BYTE   W12
 BYTE   En2  v096
 BYTE   W12
 BYTE   An1  v080
 BYTE   W12
 BYTE   An2
 BYTE   W12
 BYTE   Dn2  v084
 BYTE   W12
 BYTE   En2  v088
 BYTE   W12
//  #04 //021   ----------------------------------------
 BYTE   An1  v092
 BYTE   W12
 BYTE   An2  v088
 BYTE   W12
 BYTE   En2  v100
 BYTE   W12
 BYTE   An1  v080
 BYTE   W12
 BYTE   An2  v084
 BYTE   W12
 BYTE   En2  v100
 BYTE   W12
 BYTE   An1  v080
 BYTE   W12
 BYTE   An2
 BYTE   W12
//  #04 //022   ----------------------------------------
 BYTE   En2  v096
 BYTE   W12
 BYTE   An1  v080
 BYTE   W12
 BYTE   An2  v084
 BYTE   W12
 BYTE   En2  v096
 BYTE   W12
 BYTE   An1  v080
 BYTE   W12
 BYTE   An2
 BYTE   W12
 BYTE   Dn2
 BYTE   W12
 BYTE   En2  v100
 BYTE   W12
//  #04 //023   ----------------------------------------
 BYTE   GoTo
  POIN2 Label_0102352A
 BYTE   FINE

//**************** Track 5 (Midi-Chn.4) ****************//

FE07CampaignofFireIntrolessAlice_005:
//  #05 //000   ----------------------------------------
 BYTE   KEYSH   FE07CampaignofFireIntrolessAlice_key+0
Label_010206AE:
 BYTE   W96
//  #05 //001   ----------------------------------------
 BYTE   W96
//  #05 //002   ----------------------------------------
 BYTE   W96
//  #05 //003   ----------------------------------------
 BYTE   W96
//  #05 //004   ----------------------------------------
 BYTE   VOICE   48
 BYTE   VOL   31*FE07CampaignofFireIntrolessAlice_mvl/mxv
 BYTE   PAN   c_v+0
 BYTE   N92  En3  v092
 BYTE   N92  Cn4  v100
 BYTE   W96
//  #05 //005   ----------------------------------------
 BYTE   N88  Cn3  v092
 BYTE   N90  Gs3  v100
 BYTE   W96
//  #05 //006   ----------------------------------------
 BYTE   N92  En3  v092
 BYTE   N92  Cn4  v100
 BYTE   W96
//  #05 //007   ----------------------------------------
 BYTE   Cn3  v092
 BYTE   N92  Gs3  v100
 BYTE   W96
//  #05 //008   ----------------------------------------
 BYTE   An2  v092
 BYTE   N92  Fn3  v100
 BYTE   W96
//  #05 //009   ----------------------------------------
 BYTE   Fn2  v092
 BYTE   N92  Cs3  v100
 BYTE   W96
//  #05 //010   ----------------------------------------
 BYTE   Fs2  v092
 BYTE   N92  Dn3  v100
 BYTE   W96
//  #05 //011   ----------------------------------------
 BYTE   Gn2  v072
 BYTE   N92  Ds3  v076
 BYTE   W96
//  #05 //012   ----------------------------------------
 BYTE   Gs2
 BYTE   N92  Ds3  v080
 BYTE   W96
//  #05 //013   ----------------------------------------
 BYTE   Gs2  v068
 BYTE   N92  Dn3  v076
 BYTE   W96
//  #05 //014   ----------------------------------------
 BYTE   Fn2  v080
 BYTE   N44  Dn3  v072
 BYTE   W48
 BYTE   Bn2  v076
 BYTE   W48
//  #05 //015   ----------------------------------------
 BYTE   VOICE   48
 BYTE   VOL   34*FE07CampaignofFireIntrolessAlice_mvl/mxv
 BYTE   PAN   c_v+8
 BYTE   W24
 BYTE   N05  Ds2  v104
 BYTE   W06
 BYTE   Gs2  v080
 BYTE   W06
 BYTE   Ds2
 BYTE   W06
 BYTE   Gs2  v088
 BYTE   W06
 BYTE   Cn3  v104
 BYTE   W06
 BYTE   Ds2  v092
 BYTE   W06
 BYTE   Gs2  v080
 BYTE   W06
 BYTE   Cn3  v092
 BYTE   W06
 BYTE   Ds3  v076
 BYTE   W06
 BYTE   Gs2  v072
 BYTE   W06
 BYTE   Cn3  v104
 BYTE   W06
 BYTE   Ds3  v092
 BYTE   W06
//  #05 //016   ----------------------------------------
 BYTE   Gs3  v100
 BYTE   W06
 BYTE   Ds3  v056
 BYTE   W06
 BYTE   Gs3  v060
 BYTE   W06
 BYTE   Ds3  v080
 BYTE   W06
 BYTE   Cn4  v116
 BYTE   W06
 BYTE   Ds3  v080
 BYTE   W06
 BYTE   Gs3
 BYTE   W06
 BYTE   Cn4  v096
 BYTE   W06
 BYTE   Ds4  v092
 BYTE   W06
 BYTE   Gs3  v072
 BYTE   W06
 BYTE   Cn4  v076
 BYTE   W06
 BYTE   Ds4  v088
 BYTE   W06
 BYTE   Gs4  v096
 BYTE   W06
 BYTE   Cn4  v092
 BYTE   W06
 BYTE   Ds4
 BYTE   W06
 BYTE   Gs4  v096
 BYTE   W06
//  #05 //017   ----------------------------------------
 BYTE   W24
 BYTE   Cn2  v112
 BYTE   W06
 BYTE   Dn2  v100
 BYTE   W06
 BYTE   Cn2  v092
 BYTE   W06
 BYTE   Dn2  v100
 BYTE   W06
 BYTE   Gn2  v104
 BYTE   W06
 BYTE   Cn2  v096
 BYTE   W06
 BYTE   Dn2
 BYTE   W06
 BYTE   Gn2
 BYTE   W06
 BYTE   Cn3  v104
 BYTE   W06
 BYTE   Dn2
 BYTE   W06
 BYTE   Gn2  v100
 BYTE   W06
 BYTE   Cn3  v080
 BYTE   W06
//  #05 //018   ----------------------------------------
 BYTE   Dn3  v072
 BYTE   W06
 BYTE   Fn2  v080
 BYTE   W06
 BYTE   Gn2  v100
 BYTE   W06
 BYTE   Dn3  v112
 BYTE   W06
 BYTE   Gn2  v092
 BYTE   W06
 BYTE   Dn3  v100
 BYTE   W06
 BYTE   Fn3  v084
 BYTE   W06
 BYTE   Dn3  v100
 BYTE   W06
 BYTE   Gn3  v088
 BYTE   W06
 BYTE   Dn3
 BYTE   W06
 BYTE   Fn3
 BYTE   W06
 BYTE   Gn3  v100
 BYTE   W06
 BYTE   Bn3  v116
 BYTE   W06
 BYTE   Fn3  v088
 BYTE   W06
 BYTE   Gn3  v092
 BYTE   W06
 BYTE   Dn4  v116
 BYTE   W06
//  #05 //019   ----------------------------------------
 BYTE   W96
//  #05 //020   ----------------------------------------
 BYTE   W96
//  #05 //021   ----------------------------------------
 BYTE   W72
 BYTE   VOICE   48
 BYTE   VOL   34*FE07CampaignofFireIntrolessAlice_mvl/mxv
 BYTE   PAN   c_v+0
 BYTE   W24
//  #05 //022   ----------------------------------------
 BYTE   W96
//  #05 //023   ----------------------------------------
 BYTE   GoTo
  POIN2 Label_010206AE
 BYTE   FINE

//**************** Track 6 (Midi-Chn.5) ****************//

FE07CampaignofFireIntrolessAlice_006:
//  #06 //000   ----------------------------------------
 BYTE   KEYSH   FE07CampaignofFireIntrolessAlice_key+0
Label_01023142:
 BYTE   VOICE   48
 BYTE   VOL   45*FE07CampaignofFireIntrolessAlice_mvl/mxv
 BYTE   PAN   c_v+0
 BYTE   N11  Bn2  v100
 BYTE   N10  An3  v096
 BYTE   N11  En4
 BYTE   W12
 BYTE   N08  Bn2  v032
 BYTE   N07  An3
 BYTE   N09  En4  v028
 BYTE   W84
//  #06 //001   ----------------------------------------
 BYTE   W96
//  #06 //002   ----------------------------------------
 BYTE   W96
//  #06 //003   ----------------------------------------
 BYTE   W96
//  #06 //004   ----------------------------------------
 BYTE   W96
//  #06 //005   ----------------------------------------
 BYTE   W96
//  #06 //006   ----------------------------------------
 BYTE   W96
//  #06 //007   ----------------------------------------
 BYTE   W96
//  #06 //008   ----------------------------------------
 BYTE   W96
//  #06 //009   ----------------------------------------
 BYTE   W96
//  #06 //010   ----------------------------------------
 BYTE   W96
//  #06 //011   ----------------------------------------
 BYTE   W96
//  #06 //012   ----------------------------------------
 BYTE   W96
//  #06 //013   ----------------------------------------
 BYTE   W96
//  #06 //014   ----------------------------------------
 BYTE   W72
 BYTE   VOICE   41
 BYTE   VOL   39*FE07CampaignofFireIntrolessAlice_mvl/mxv
 BYTE   PAN   c_v-3
 BYTE   W24
//  #06 //015   ----------------------------------------
 BYTE   W24
 BYTE   N06  Ds3  v096
 BYTE   W06
 BYTE   Gs3  v080
 BYTE   W06
 BYTE   Ds3
 BYTE   W06
 BYTE   Gs3  v088
 BYTE   W06
 BYTE   Cn4  v096
 BYTE   W06
 BYTE   Ds3  v092
 BYTE   W06
 BYTE   Gs3  v080
 BYTE   W06
 BYTE   Cn4  v092
 BYTE   W06
 BYTE   Ds4  v076
 BYTE   W06
 BYTE   Gs3
 BYTE   W06
 BYTE   Cn4  v096
 BYTE   W06
 BYTE   Ds4  v092
 BYTE   W06
//  #06 //016   ----------------------------------------
 BYTE   Gs4  v096
 BYTE   W06
 BYTE   Ds4  v076
 BYTE   W06
 BYTE   Gs4
 BYTE   W06
 BYTE   Ds4  v080
 BYTE   W06
 BYTE   Cn5  v096
 BYTE   W06
 BYTE   Ds4  v080
 BYTE   W06
 BYTE   Gs4
 BYTE   W06
 BYTE   Cn5  v096
 BYTE   W06
 BYTE   Ds5  v092
 BYTE   W06
 BYTE   Gs4  v076
 BYTE   W06
 BYTE   Cn5
 BYTE   W06
 BYTE   Ds5  v088
 BYTE   W06
 BYTE   Gs5  v096
 BYTE   W06
 BYTE   Cn5  v092
 BYTE   W06
 BYTE   Ds5
 BYTE   W06
 BYTE   N13  Gs5  v096
 BYTE   W06
//  #06 //017   ----------------------------------------
 BYTE   W24
 BYTE   N06  Cn3
 BYTE   W06
 BYTE   Dn3
 BYTE   W06
 BYTE   Cn3  v092
 BYTE   W06
 BYTE   Dn3  v096
 BYTE   W06
 BYTE   Gn3
 BYTE   W06
 BYTE   Cn3
 BYTE   W06
 BYTE   Dn3
 BYTE   W06
 BYTE   Gn3
 BYTE   W06
 BYTE   Cn4
 BYTE   W06
 BYTE   Dn3
 BYTE   W06
 BYTE   Gn3
 BYTE   W06
 BYTE   Cn4  v080
 BYTE   W06
//  #06 //018   ----------------------------------------
 BYTE   Dn4  v076
 BYTE   W06
 BYTE   Fn3  v080
 BYTE   W06
 BYTE   Gn3  v096
 BYTE   W06
 BYTE   Dn4
 BYTE   W06
 BYTE   Gn3  v092
 BYTE   W06
 BYTE   Dn4  v096
 BYTE   W06
 BYTE   Fn4  v084
 BYTE   W06
 BYTE   Dn4  v096
 BYTE   W06
 BYTE   Gn4  v088
 BYTE   W06
 BYTE   Dn4
 BYTE   W06
 BYTE   Fn4
 BYTE   W06
 BYTE   Gn4  v096
 BYTE   W06
 BYTE   VOICE   48
 BYTE   VOL   40*FE07CampaignofFireIntrolessAlice_mvl/mxv
 BYTE   PAN   c_v-3
 BYTE   N06  Bn4
 BYTE   W06
 BYTE   Fn4  v088
 BYTE   W06
 BYTE   Gn4  v092
 BYTE   W06
 BYTE   Dn5  v096
 BYTE   W06
//  #06 //019   ----------------------------------------
 BYTE   TIE  An2
 BYTE   TIE  En3  v092
 BYTE   W96
//  #06 //020   ----------------------------------------
 BYTE   W96
//  #06 //021   ----------------------------------------
 BYTE   W96
//  #06 //022   ----------------------------------------
 BYTE   W88
 BYTE   W01
 BYTE   EOT
 BYTE   An2  v064
 BYTE   W07
//  #06 //023   ----------------------------------------
 BYTE   GoTo
  POIN2 Label_01023142
 BYTE   FINE

//**************** Track 7 (Midi-Chn.6) ****************//

FE07CampaignofFireIntrolessAlice_007:
//  #07 //000   ----------------------------------------
 BYTE   KEYSH   FE07CampaignofFireIntrolessAlice_key+0
Label_010237EE:
 BYTE   VOICE   47
 BYTE   VOL   51*FE07CampaignofFireIntrolessAlice_mvl/mxv
 BYTE   PAN   c_v+0
 BYTE   N24  Fn2  v127
 BYTE   W96
//  #07 //001   ----------------------------------------
 BYTE   VOICE   100
 BYTE   VOL   40*FE07CampaignofFireIntrolessAlice_mvl/mxv
 BYTE   PAN   c_v+11
 BYTE   N10  En5  v072
 BYTE   W12
 BYTE   N11  En4  v064
 BYTE   W12
 BYTE   En5  v076
 BYTE   W12
 BYTE   N10  En4  v072
 BYTE   W12
 BYTE   N11  En5  v068
 BYTE   W12
 BYTE   N10  En4  v064
 BYTE   W12
 BYTE   N11  En5  v068
 BYTE   W12
 BYTE   En4
 BYTE   W12
//  #07 //002   ----------------------------------------
Label_0102381B:
 BYTE   N11  En5  v068
 BYTE   W12
 BYTE   N10  En4  v064
 BYTE   W12
 BYTE   En5  v068
 BYTE   W12
 BYTE   N11  En4  v072
 BYTE   W12
 BYTE   En5  v068
 BYTE   W12
 BYTE   N10  En4  v072
 BYTE   W12
 BYTE   N11  En5  v060
 BYTE   W12
 BYTE   N09  En4  v076
 BYTE   W12
 BYTE   PEND 
//  #07 //003   ----------------------------------------
Label_0102383A:
 BYTE   N11  En5  v056
 BYTE   W12
 BYTE   En4  v076
 BYTE   W12
 BYTE   En5  v068
 BYTE   W12
 BYTE   N10  En4  v076
 BYTE   W12
 BYTE   N11  En5  v064
 BYTE   W12
 BYTE   En4  v076
 BYTE   W12
 BYTE   N09  En5  v064
 BYTE   W12
 BYTE   N08  En4  v068
 BYTE   W12
 BYTE   PEND 
//  #07 //004   ----------------------------------------
Label_01023858:
 BYTE   N10  En5  v084
 BYTE   W12
 BYTE   En4  v068
 BYTE   W12
 BYTE   En5  v052
 BYTE   W12
 BYTE   En4  v064
 BYTE   W12
 BYTE   En5
 BYTE   W12
 BYTE   En4  v068
 BYTE   W12
 BYTE   N11  En5  v060
 BYTE   W12
 BYTE   N10  En4  v072
 BYTE   W12
 BYTE   PEND 
//  #07 //005   ----------------------------------------
Label_01023873:
 BYTE   N10  En5  v072
 BYTE   W12
 BYTE   N11  En4  v064
 BYTE   W12
 BYTE   En5  v076
 BYTE   W12
 BYTE   N10  En4  v072
 BYTE   W12
 BYTE   N11  En5  v068
 BYTE   W12
 BYTE   N10  En4  v064
 BYTE   W12
 BYTE   N11  En5  v068
 BYTE   W12
 BYTE   En4
 BYTE   W12
 BYTE   PEND 
//  #07 //006   ----------------------------------------
 BYTE   PATT
  POIN2 Label_0102381B
//  #07 //007   ----------------------------------------
 BYTE   PATT
  POIN2 Label_0102383A
//  #07 //008   ----------------------------------------
 BYTE   PATT
  POIN2 Label_01023858
//  #07 //009   ----------------------------------------
 BYTE   PATT
  POIN2 Label_01023873
//  #07 //010   ----------------------------------------
 BYTE   N11  En5  v068
 BYTE   W12
 BYTE   N10  En4  v064
 BYTE   W12
 BYTE   En5  v068
 BYTE   W12
 BYTE   N11  En4  v072
 BYTE   W12
 BYTE   En5  v068
 BYTE   W12
 BYTE   N10  En4  v072
 BYTE   W12
 BYTE   VOICE   20
 BYTE   VOL   50*FE07CampaignofFireIntrolessAlice_mvl/mxv
 BYTE   PAN   c_v-9
 BYTE   N11  En5  v060
 BYTE   W12
 BYTE   N09  En4  v076
 BYTE   W12
//  #07 //011   ----------------------------------------
 BYTE   N52  Ds4  v100
 BYTE   W60
 BYTE   N11  Dn4  v092
 BYTE   W12
 BYTE   Ds4
 BYTE   W12
 BYTE   N56  Fn4
 BYTE   W12
//  #07 //012   ----------------------------------------
 BYTE   W48
 BYTE   N44  Ds4  v096
 BYTE   W48
//  #07 //013   ----------------------------------------
 BYTE   N56  Dn4  v100
 BYTE   W60
 BYTE   N11  Cn4  v096
 BYTE   W12
 BYTE   Dn4  v100
 BYTE   W12
 BYTE   N56  Ds4  v092
 BYTE   W12
//  #07 //014   ----------------------------------------
 BYTE   W48
 BYTE   N44  Dn4  v096
 BYTE   W48
//  #07 //015   ----------------------------------------
 BYTE   TIE  Gs3  v092
 BYTE   TIE  Cn4  v096
 BYTE   W96
//  #07 //016   ----------------------------------------
 BYTE   W64
 BYTE   EOT
 BYTE   Gs3  v072
 BYTE   W08
 BYTE   N20  Gs3  v092
 BYTE   N21  Cn4  v096
 BYTE   W24
//  #07 //017   ----------------------------------------
 BYTE   N90  Gn3
 BYTE   N90  Cn4  v100
 BYTE   W96
//  #07 //018   ----------------------------------------
 BYTE   Gn3  v092
 BYTE   N88  Bn3  v096
 BYTE   W96
//  #07 //019   ----------------------------------------
 BYTE   W96
//  #07 //020   ----------------------------------------
 BYTE   W96
//  #07 //021   ----------------------------------------
 BYTE   W96
//  #07 //022   ----------------------------------------
 BYTE   W96
//  #07 //023   ----------------------------------------
 BYTE   GoTo
  POIN2 Label_010237EE
 BYTE   FINE

//******************************************************//
	ALIGN 4

FE07CampaignofFireIntrolessAlice:
	BYTE	7	// NumTrks
	BYTE	0	// NumBlks
	BYTE	FE07CampaignofFireIntrolessAlice_pri	// Priority
	BYTE	FE07CampaignofFireIntrolessAlice_rev	// Reverb.
    
	POIN2	FE07CampaignofFireIntrolessAlice_grp
    
	POIN2	FE07CampaignofFireIntrolessAlice_001
	POIN2	FE07CampaignofFireIntrolessAlice_002
	POIN2	FE07CampaignofFireIntrolessAlice_003
	POIN2	FE07CampaignofFireIntrolessAlice_004
	POIN2	FE07CampaignofFireIntrolessAlice_005
	POIN2	FE07CampaignofFireIntrolessAlice_006
	POIN2	FE07CampaignofFireIntrolessAlice_007

	
