//Event file generated from Sappy .s format.
	#include "MPlayDef.event"

	#define	FE10SorrowfulPrincePelleasRetina_grp  voicegroup000
	#define	FE10SorrowfulPrincePelleasRetina_pri  0
	#define	FE10SorrowfulPrincePelleasRetina_rev  0
	#define	FE10SorrowfulPrincePelleasRetina_mvl  127
	#define	FE10SorrowfulPrincePelleasRetina_key  0
	#define	FE10SorrowfulPrincePelleasRetina_tbs  1
	#define	FE10SorrowfulPrincePelleasRetina_exg  0
	#define	FE10SorrowfulPrincePelleasRetina_cmp  1

	// .rodata
	//	FE10SorrowfulPrincePelleasRetina
	ALIGN 4


//**************** Track 1 (Midi-Chn.0) ****************//

FE10SorrowfulPrincePelleasRetina_001:
// 000   ----------------------------------------
 BYTE   KEYSH   FE10SorrowfulPrincePelleasRetina_key+0
 BYTE   TEMPO   66*FE10SorrowfulPrincePelleasRetina_tbs/2
 BYTE   VOICE   20
 BYTE   PAN   c_v+0
 BYTE   VOL   62*FE10SorrowfulPrincePelleasRetina_mvl/mxv
 BYTE   PAN   c_v+0
 BYTE   VOL   62*FE10SorrowfulPrincePelleasRetina_mvl/mxv
 BYTE   PAN   c_v+0
 BYTE   VOL   62*FE10SorrowfulPrincePelleasRetina_mvl/mxv
 BYTE   BEND   c_v+0
 BYTE   N12  Fn3  v100
 BYTE   N12  Fn4
 BYTE   W12
 BYTE   As2
 BYTE   N12  As3
 BYTE   W12
 BYTE   N24  En3
 BYTE   N24  En4
 BYTE   W72
// 001   ----------------------------------------
Label_0_566773:
 BYTE   N12  Fn3  v100
 BYTE   N12  Fn4
 BYTE   W12
 BYTE   As2
 BYTE   N12  As3
 BYTE   W12
 BYTE   N24  En3
 BYTE   N24  En4
 BYTE   W72
 BYTE   PEND 
// 002   ----------------------------------------
Label_0_566783:
 BYTE   N12  Fn3  v100
 BYTE   N12  An3
 BYTE   N12  Fn4
 BYTE   W12
 BYTE   An2
 BYTE   N12  An3
 BYTE   W12
 BYTE   N24  En3
 BYTE   N24  En4
 BYTE   W72
 BYTE   PEND 
// 003   ----------------------------------------
 BYTE   PATT
  POIN2 Label_0_566783
// 004   ----------------------------------------
 BYTE   PATT
  POIN2 Label_0_566773
// 005   ----------------------------------------
 BYTE   PATT
  POIN2 Label_0_566773
// 006   ----------------------------------------
 BYTE   N12  En3  v100
 BYTE   N12  An3
 BYTE   N12  En4
 BYTE   W12
 BYTE   An2
 BYTE   N12  An3
 BYTE   W12
 BYTE   N24  Dn3
 BYTE   N24  Dn4
 BYTE   W72
// 007   ----------------------------------------
 BYTE   N12  Dn3
 BYTE   N12  Dn4
 BYTE   W24
 BYTE   An2
 BYTE   N12  An3
 BYTE   W24
 BYTE   Gn2
 BYTE   N12  Gn3
 BYTE   W24
 BYTE   Dn3
 BYTE   N12  Dn4
 BYTE   W24
// 008   ----------------------------------------
Label_0_5667C6:
 BYTE   N12  Gn2  v100
 BYTE   N12  Gn3
 BYTE   W12
 BYTE   An2
 BYTE   N12  An3
 BYTE   W12
 BYTE   En3
 BYTE   N12  En4
 BYTE   W24
 BYTE   As2
 BYTE   N12  As3
 BYTE   W12
 BYTE   Cn3
 BYTE   N12  Cn4
 BYTE   W12
 BYTE   As2
 BYTE   N12  As3
 BYTE   W12
 BYTE   An2
 BYTE   N12  An3
 BYTE   W12
 BYTE   PEND 
// 009   ----------------------------------------
Label_0_5667E5:
 BYTE   N12  Gn2  v100
 BYTE   N12  Gn3
 BYTE   W12
 BYTE   An2
 BYTE   N12  An3
 BYTE   W12
 BYTE   Fn2
 BYTE   N12  Fn3
 BYTE   W24
 BYTE   Gn2
 BYTE   N12  Gn3
 BYTE   W12
 BYTE   Fn2
 BYTE   N12  Fn3
 BYTE   W12
 BYTE   En2
 BYTE   N12  En3
 BYTE   W12
 BYTE   An2
 BYTE   N12  An3
 BYTE   W12
 BYTE   PEND 
// 010   ----------------------------------------
 BYTE   Cn3
 BYTE   N12  Cn4
 BYTE   W12
 BYTE   Dn3
 BYTE   N12  Dn4
 BYTE   W12
 BYTE   An3
 BYTE   N12  An4
 BYTE   W24
 BYTE   Gn3
 BYTE   N12  Gn4
 BYTE   W12
 BYTE   Fn3
 BYTE   N12  Fn4
 BYTE   W12
 BYTE   An2
 BYTE   N12  An3
 BYTE   W12
 BYTE   En3
 BYTE   N12  En4
 BYTE   W12
// 011   ----------------------------------------
 BYTE   Cn3
 BYTE   N12  Cn4
 BYTE   W12
 BYTE   Dn3
 BYTE   N12  Dn4
 BYTE   W24
 BYTE   An2
 BYTE   N12  An3
 BYTE   W12
 BYTE   Gn2
 BYTE   N12  Gn3
 BYTE   W12
 BYTE   Fn2
 BYTE   N12  Fn3
 BYTE   W12
 BYTE   Fn2
 BYTE   N12  Fn3
 BYTE   W12
 BYTE   En2
 BYTE   N12  En3
 BYTE   W12
// 012   ----------------------------------------
 BYTE   PATT
  POIN2 Label_0_5667C6
// 013   ----------------------------------------
 BYTE   PATT
  POIN2 Label_0_5667E5
// 014   ----------------------------------------
 BYTE   N12  Cn3  v100
 BYTE   N12  Cn4
 BYTE   W12
 BYTE   Dn3
 BYTE   N12  Dn4
 BYTE   W12
 BYTE   An3
 BYTE   N12  An4
 BYTE   W24
 BYTE   As3
 BYTE   N12  As4
 BYTE   W12
 BYTE   An3
 BYTE   N12  An4
 BYTE   W12
 BYTE   Fn3
 BYTE   N12  Fn4
 BYTE   W12
 BYTE   En3
 BYTE   N12  En4
 BYTE   W12
// 015   ----------------------------------------
 BYTE   W96
// 016   ----------------------------------------
Label_0_566865:
 BYTE   N24  Fn2  v100
 BYTE   W24
 BYTE   N48  An2
 BYTE   W48
 BYTE   N24  Gn2
 BYTE   W24
 BYTE   PEND 
// 017   ----------------------------------------
Label_0_566870:
 BYTE   N36  Cn3  v100
 BYTE   W36
 BYTE   N06  As2
 BYTE   W06
 BYTE   An2
 BYTE   W06
 BYTE   N36  Gn2
 BYTE   W36
 BYTE   N12  Fn2
 BYTE   W12
 BYTE   PEND 
// 018   ----------------------------------------
 BYTE   N60  Gn2
 BYTE   W60
 BYTE   N36  En3
 BYTE   W36
// 019   ----------------------------------------
 BYTE   N96  Fn3
 BYTE   W96
// 020   ----------------------------------------
 BYTE   PATT
  POIN2 Label_0_566865
// 021   ----------------------------------------
 BYTE   PATT
  POIN2 Label_0_566870
// 022   ----------------------------------------
 BYTE   N84  Gn2  v100
 BYTE   W84
 BYTE   N12  Fn2
 BYTE   W12
// 023   ----------------------------------------
 BYTE   N92  An2
 BYTE   W96
// 024   ----------------------------------------
 BYTE   GoTo
  POIN2 Label_0_5667C6
// 025   ----------------------------------------
 BYTE   VOICE   20
 BYTE   PAN   c_v+0
 BYTE   VOL   62*FE10SorrowfulPrincePelleasRetina_mvl/mxv
 BYTE   PAN   c_v+0
 BYTE   VOL   62*FE10SorrowfulPrincePelleasRetina_mvl/mxv
 BYTE   PAN   c_v+0
 BYTE   VOL   62*FE10SorrowfulPrincePelleasRetina_mvl/mxv
 BYTE   BEND   c_v+0
 BYTE   FINE

//**************** Track 2 (Midi-Chn.1) ****************//

FE10SorrowfulPrincePelleasRetina_002:
// 000   ----------------------------------------
 BYTE   KEYSH   FE10SorrowfulPrincePelleasRetina_key+0
 BYTE   VOICE   4
 BYTE   PAN   c_v+0
 BYTE   VOL   62*FE10SorrowfulPrincePelleasRetina_mvl/mxv
 BYTE   PAN   c_v+0
 BYTE   VOL   62*FE10SorrowfulPrincePelleasRetina_mvl/mxv
 BYTE   PAN   c_v+0
 BYTE   VOL   62*FE10SorrowfulPrincePelleasRetina_mvl/mxv
 BYTE   BEND   c_v+0
 BYTE   N72  Gn1  v100
 BYTE   N72  Gn2
 BYTE   W96
// 001   ----------------------------------------
 BYTE   Gn1
 BYTE   N72  Gn2
 BYTE   W96
// 002   ----------------------------------------
 BYTE   Dn1
 BYTE   N72  Dn2
 BYTE   W96
// 003   ----------------------------------------
 BYTE   Dn1
 BYTE   N72  Dn2
 BYTE   W96
// 004   ----------------------------------------
 BYTE   Gn1
 BYTE   N72  Gn2
 BYTE   W48
 BYTE   N24  En2
 BYTE   W24
 BYTE   Cn2
 BYTE   W24
// 005   ----------------------------------------
 BYTE   N72  Gn1
 BYTE   N24  Dn2
 BYTE   N72  Gn2
 BYTE   W24
 BYTE   N24  En2
 BYTE   W24
 BYTE   Dn2
 BYTE   W24
 BYTE   Cn2
 BYTE   W24
// 006   ----------------------------------------
 BYTE   N72  Dn1
 BYTE   N44  Dn2
 BYTE   W24
 BYTE   N24  Fn2
 BYTE   W24
 BYTE   Dn2
 BYTE   W24
 BYTE   En2
 BYTE   W24
// 007   ----------------------------------------
 BYTE   N96  Dn1
 BYTE   N48  Dn2
 BYTE   W48
 BYTE   Cn2
 BYTE   W48
// 008   ----------------------------------------
Label_1_566902:
 BYTE   N48  Gn1  v100
 BYTE   N48  Dn2
 BYTE   W48
 BYTE   N24  As1
 BYTE   W24
 BYTE   Cn2
 BYTE   W24
 BYTE   PEND 
// 009   ----------------------------------------
Label_1_56690E:
 BYTE   N24  Cn1  v100
 BYTE   N24  Cn2
 BYTE   W48
 BYTE   Gn0
 BYTE   N24  Gn1
 BYTE   W48
 BYTE   PEND 
// 010   ----------------------------------------
Label_1_566919:
 BYTE   N24  As0  v100
 BYTE   N24  As1
 BYTE   W48
 BYTE   Cn1
 BYTE   N24  Cn2
 BYTE   W48
 BYTE   PEND 
// 011   ----------------------------------------
 BYTE   Dn2
 BYTE   W24
 BYTE   Dn1
 BYTE   W72
// 012   ----------------------------------------
 BYTE   PATT
  POIN2 Label_1_566902
// 013   ----------------------------------------
 BYTE   PATT
  POIN2 Label_1_56690E
// 014   ----------------------------------------
 BYTE   PATT
  POIN2 Label_1_566919
// 015   ----------------------------------------
 BYTE   N24  Gn0  v100
 BYTE   N24  Gn1
 BYTE   W96
// 016   ----------------------------------------
 BYTE   Dn1
 BYTE   N24  Dn2
 BYTE   W96
// 017   ----------------------------------------
 BYTE   Ds1
 BYTE   N24  Ds2
 BYTE   W96
// 018   ----------------------------------------
 BYTE   En1
 BYTE   N24  En2
 BYTE   W96
// 019   ----------------------------------------
 BYTE   Ds1
 BYTE   N24  Ds2
 BYTE   W96
// 020   ----------------------------------------
 BYTE   Dn1
 BYTE   N24  Dn2
 BYTE   W96
// 021   ----------------------------------------
 BYTE   Ds1
 BYTE   N24  Ds2
 BYTE   W96
// 022   ----------------------------------------
 BYTE   En1
 BYTE   N24  En2
 BYTE   W96
// 023   ----------------------------------------
 BYTE   Ds1
 BYTE   N24  Ds2
 BYTE   W96
// 024   ----------------------------------------
 BYTE   GoTo
  POIN2 Label_1_566902
// 025   ----------------------------------------
 BYTE   VOICE   4
 BYTE   PAN   c_v+0
 BYTE   VOL   62*FE10SorrowfulPrincePelleasRetina_mvl/mxv
 BYTE   PAN   c_v+0
 BYTE   VOL   62*FE10SorrowfulPrincePelleasRetina_mvl/mxv
 BYTE   PAN   c_v+0
 BYTE   VOL   62*FE10SorrowfulPrincePelleasRetina_mvl/mxv
 BYTE   BEND   c_v+0
 BYTE   FINE

//**************** Track 3 (Midi-Chn.2) ****************//

FE10SorrowfulPrincePelleasRetina_003:
// 000   ----------------------------------------
 BYTE   KEYSH   FE10SorrowfulPrincePelleasRetina_key+0
 BYTE   VOICE   1
 BYTE   PAN   c_v+0
 BYTE   VOL   52*FE10SorrowfulPrincePelleasRetina_mvl/mxv
 BYTE   PAN   c_v+0
 BYTE   VOL   52*FE10SorrowfulPrincePelleasRetina_mvl/mxv
 BYTE   PAN   c_v+0
 BYTE   VOL   52*FE10SorrowfulPrincePelleasRetina_mvl/mxv
 BYTE   BEND   c_v+0
 BYTE   W96
// 001   ----------------------------------------
 BYTE   W96
// 002   ----------------------------------------
Label_2_015CC6F4:
 BYTE   N12  An4  v100
 BYTE   W12
 BYTE   N06  Dn4
 BYTE   W06
 BYTE   An4
 BYTE   W06
 BYTE   N12  Gn4
 BYTE   W12
 BYTE   Dn4
 BYTE   W12
 BYTE   N06  An4
 BYTE   W06
 BYTE   An3
 BYTE   W06
 BYTE   Dn4
 BYTE   W05
 BYTE   An4
 BYTE   W07
 BYTE   As4
 BYTE   W06
 BYTE   An4
 BYTE   W06
 BYTE   Fn4
 BYTE   W06
 BYTE   An3
 BYTE   W06
 BYTE   PEND 
// 003   ----------------------------------------
Label_2_015CC714:
 BYTE   N06  An4  v100
 BYTE   W06
 BYTE   An3
 BYTE   W06
 BYTE   Dn4
 BYTE   W06
 BYTE   An4
 BYTE   W06
 BYTE   N12  Gn4
 BYTE   W12
 BYTE   Dn4
 BYTE   W12
 BYTE   N06  An4
 BYTE   W05
 BYTE   An3
 BYTE   W07
 BYTE   Dn4
 BYTE   W06
 BYTE   An4
 BYTE   W06
 BYTE   As4
 BYTE   W06
 BYTE   An4
 BYTE   W06
 BYTE   Fn4
 BYTE   W06
 BYTE   An3
 BYTE   W06
 BYTE   PEND 
// 004   ----------------------------------------
 BYTE   PATT
  POIN2 Label_2_015CC6F4
// 005   ----------------------------------------
 BYTE   PATT
  POIN2 Label_2_015CC714
// 006   ----------------------------------------
 BYTE   PATT
  POIN2 Label_2_015CC6F4
// 007   ----------------------------------------
 BYTE   PATT
  POIN2 Label_2_015CC714
// 008   ----------------------------------------
Label_2_015CC749:
 BYTE   N12  Dn3  v100
 BYTE   W12
 BYTE   Fn3
 BYTE   W12
 BYTE   An3
 BYTE   N12  Gn4
 BYTE   W24
 BYTE   Fn3
 BYTE   W12
 BYTE   N12
 BYTE   W12
 BYTE   Gn3
 BYTE   N12  En4
 BYTE   W24
 BYTE   PEND 
// 009   ----------------------------------------
Label_2_015CC75C:
 BYTE   N12  En3  v100
 BYTE   W12
 BYTE   Cn4
 BYTE   W12
 BYTE   Fn4
 BYTE   W24
 BYTE   An3
 BYTE   W24
 BYTE   N12
 BYTE   N12  Dn4
 BYTE   W24
 BYTE   PEND 
// 010   ----------------------------------------
Label_2_015CC76B:
 BYTE   N12  En4  v100
 BYTE   W12
 BYTE   Fn4
 BYTE   W12
 BYTE   Cn5
 BYTE   W24
 BYTE   As4
 BYTE   W12
 BYTE   An4
 BYTE   W12
 BYTE   Gn4
 BYTE   W24
 BYTE   PEND 
// 011   ----------------------------------------
 BYTE   Fn4
 BYTE   W24
 BYTE   En4
 BYTE   W24
 BYTE   Dn4
 BYTE   W24
 BYTE   Cn4
 BYTE   W24
// 012   ----------------------------------------
 BYTE   PATT
  POIN2 Label_2_015CC749
// 013   ----------------------------------------
 BYTE   PATT
  POIN2 Label_2_015CC75C
// 014   ----------------------------------------
 BYTE   PATT
  POIN2 Label_2_015CC76B
// 015   ----------------------------------------
 BYTE   N12  Fn4  v100
 BYTE   W24
 BYTE   En4
 BYTE   W24
 BYTE   Dn3
 BYTE   N12  Dn4
 BYTE   W12
 BYTE   Fn3
 BYTE   W12
 BYTE   N12
 BYTE   N12  Cn4
 BYTE   W12
 BYTE   En3
 BYTE   W12
// 016   ----------------------------------------
 BYTE   W96
// 017   ----------------------------------------
 BYTE   W96
// 018   ----------------------------------------
 BYTE   W96
// 019   ----------------------------------------
 BYTE   W96
// 020   ----------------------------------------
Label_2_015CC7A7:
 BYTE   N12  Gn3  v100
 BYTE   W12
 BYTE   An3
 BYTE   W12
 BYTE   Cn4
 BYTE   W12
 BYTE   Gn3
 BYTE   W12
 BYTE   An3
 BYTE   W12
 BYTE   Cn4
 BYTE   W12
 BYTE   Gn3
 BYTE   W12
 BYTE   An3
 BYTE   W12
 BYTE   PEND 
// 021   ----------------------------------------
 BYTE   PATT
  POIN2 Label_2_015CC7A7
// 022   ----------------------------------------
 BYTE   PATT
  POIN2 Label_2_015CC7A7
// 023   ----------------------------------------
 BYTE   N12  Dn4  v100
 BYTE   W12
 BYTE   Cn4
 BYTE   W12
 BYTE   Dn4
 BYTE   W12
 BYTE   An3
 BYTE   W12
 BYTE   Gn3
 BYTE   W12
 BYTE   Fn3
 BYTE   W12
 BYTE   En3
 BYTE   W12
 BYTE   N11  Cn3
 BYTE   W12
// 024   ----------------------------------------
 BYTE   GoTo
  POIN2 Label_2_015CC749
// 025   ----------------------------------------
 BYTE   VOICE   1
 BYTE   PAN   c_v+0
 BYTE   VOL   52*FE10SorrowfulPrincePelleasRetina_mvl/mxv
 BYTE   PAN   c_v+0
 BYTE   VOL   52*FE10SorrowfulPrincePelleasRetina_mvl/mxv
 BYTE   PAN   c_v+0
 BYTE   VOL   52*FE10SorrowfulPrincePelleasRetina_mvl/mxv
 BYTE   BEND   c_v+0
 BYTE   FINE

//**************** Track 4 (Midi-Chn.3) ****************//

FE10SorrowfulPrincePelleasRetina_004:
// 000   ----------------------------------------
 BYTE   KEYSH   FE10SorrowfulPrincePelleasRetina_key+0
 BYTE   VOICE   42
 BYTE   PAN   c_v+0
 BYTE   VOL   53*FE10SorrowfulPrincePelleasRetina_mvl/mxv
 BYTE   PAN   c_v+0
 BYTE   VOL   53*FE10SorrowfulPrincePelleasRetina_mvl/mxv
 BYTE   PAN   c_v+0
 BYTE   VOL   53*FE10SorrowfulPrincePelleasRetina_mvl/mxv
 BYTE   BEND   c_v+0
 BYTE   W96
// 001   ----------------------------------------
 BYTE   W96
// 002   ----------------------------------------
 BYTE   W96
// 003   ----------------------------------------
 BYTE   W96
// 004   ----------------------------------------
 BYTE   N24  Fn5  v100
 BYTE   W24
 BYTE   N48  En5
 BYTE   W48
 BYTE   N20  Fn5
 BYTE   W24
// 005   ----------------------------------------
 BYTE   N24
 BYTE   W24
 BYTE   N72  En5
 BYTE   W72
// 006   ----------------------------------------
 BYTE   N96  En4
 BYTE   N96  Cn5
 BYTE   W96
// 007   ----------------------------------------
 BYTE   An4
 BYTE   N96  Dn5
 BYTE   W96
// 008   ----------------------------------------
Label_3_5664F2:
 BYTE   W96
// 009   ----------------------------------------
 BYTE   W96
// 010   ----------------------------------------
 BYTE   W96
// 011   ----------------------------------------
 BYTE   W96
// 012   ----------------------------------------
 BYTE   W96
// 013   ----------------------------------------
 BYTE   W96
// 014   ----------------------------------------
 BYTE   W96
// 015   ----------------------------------------
 BYTE   W96
// 016   ----------------------------------------
 BYTE   N96  Fn4  v100
 BYTE   N96  An4
 BYTE   W96
// 017   ----------------------------------------
 BYTE   Gn4
 BYTE   N96  As4
 BYTE   W96
// 018   ----------------------------------------
 BYTE   An4
 BYTE   N96  Cn5
 BYTE   W96
// 019   ----------------------------------------
 BYTE   Fn4
 BYTE   N96  An4
 BYTE   W96
// 020   ----------------------------------------
 BYTE   Fn4
 BYTE   N96  An4
 BYTE   W96
// 021   ----------------------------------------
 BYTE   Gn4
 BYTE   N96  As4
 BYTE   W96
// 022   ----------------------------------------
 BYTE   An4
 BYTE   N96  Cn5
 BYTE   W96
// 023   ----------------------------------------
 BYTE   N92  Fn4
 BYTE   N92  An4
 BYTE   W96
// 024   ----------------------------------------
 BYTE   GoTo
  POIN2 Label_3_5664F2
// 025   ----------------------------------------
 BYTE   VOICE   42
 BYTE   PAN   c_v+0
 BYTE   VOL   53*FE10SorrowfulPrincePelleasRetina_mvl/mxv
 BYTE   PAN   c_v+0
 BYTE   VOL   53*FE10SorrowfulPrincePelleasRetina_mvl/mxv
 BYTE   PAN   c_v+0
 BYTE   VOL   53*FE10SorrowfulPrincePelleasRetina_mvl/mxv
 BYTE   BEND   c_v+0
 BYTE   FINE

//******************************************************//
	ALIGN 4

FE10SorrowfulPrincePelleasRetina:
	BYTE	4	// NumTrks
	BYTE	0	// NumBlks
	BYTE	FE10SorrowfulPrincePelleasRetina_pri	// Priority
	BYTE	FE10SorrowfulPrincePelleasRetina_rev	// Reverb.
    
	POIN2	FE10SorrowfulPrincePelleasRetina_grp
    
	POIN2	FE10SorrowfulPrincePelleasRetina_001
	POIN2	FE10SorrowfulPrincePelleasRetina_002
	POIN2	FE10SorrowfulPrincePelleasRetina_003
	POIN2	FE10SorrowfulPrincePelleasRetina_004

	
