//Event file generated from Sappy .s format.
	#include "MPlayDef.event"

	#define	FE11OffToWarREALxViPerZ_grp  voicegroup000
	#define	FE11OffToWarREALxViPerZ_pri  0
	#define	FE11OffToWarREALxViPerZ_rev  0
	#define	FE11OffToWarREALxViPerZ_mvl  127
	#define	FE11OffToWarREALxViPerZ_key  0
	#define	FE11OffToWarREALxViPerZ_tbs  1
	#define	FE11OffToWarREALxViPerZ_exg  0
	#define	FE11OffToWarREALxViPerZ_cmp  1

	// .rodata
	//	FE11OffToWarREALxViPerZ
	ALIGN 4


//**************** Track 1 (Midi-Chn.0) ****************//

FE11OffToWarREALxViPerZ_001:
//  #01 //000   ----------------------------------------
 BYTE   KEYSH   FE11OffToWarREALxViPerZ_key+0
Label_547722:
 BYTE   TEMPO   146*FE11OffToWarREALxViPerZ_tbs/2
 BYTE   VOICE   13
 BYTE   MODT 0
 BYTE   LFOS 44
 BYTE   VOL   41*FE11OffToWarREALxViPerZ_mvl/mxv
 BYTE   PAN   c_v-30
 BYTE   BEND   c_v+0
 BYTE   N05  Cn3  v127
 BYTE   W06
 BYTE   Gn2  v031
 BYTE   W06
 BYTE   Cn3  v051
 BYTE   W06
 BYTE   Dn3  v071
 BYTE   W06
 BYTE   Ds3  v127
 BYTE   W06
 BYTE   Gn2  v031
 BYTE   W06
 BYTE   Ds3  v051
 BYTE   W06
 BYTE   Fn3  v071
 BYTE   W06
 BYTE   Ds3  v127
 BYTE   W06
 BYTE   Gn2  v031
 BYTE   W06
 BYTE   Fn3  v047
 BYTE   W06
 BYTE   Gn2  v031
 BYTE   W06
 BYTE   Gn3  v127
 BYTE   W06
 BYTE   Gn2  v031
 BYTE   W06
 BYTE   Fn3  v087
 BYTE   W06
 BYTE   Gn2  v031
 BYTE   W06
//  #01 //001   ----------------------------------------
Label_547761:
 BYTE   N05  Cn3  v127
 BYTE   W06
 BYTE   Gn2  v031
 BYTE   W06
 BYTE   Cn3  v051
 BYTE   W06
 BYTE   Dn3  v071
 BYTE   W06
 BYTE   Ds3  v127
 BYTE   W06
 BYTE   Gn2  v031
 BYTE   W06
 BYTE   Ds3  v051
 BYTE   W06
 BYTE   Fn3  v071
 BYTE   W06
 BYTE   Ds3  v127
 BYTE   W06
 BYTE   Gn2  v031
 BYTE   W06
 BYTE   Fn3  v047
 BYTE   W06
 BYTE   Gn2  v031
 BYTE   W06
 BYTE   Gn3  v127
 BYTE   W06
 BYTE   Gn2  v031
 BYTE   W06
 BYTE   Fn3  v087
 BYTE   W06
 BYTE   Gn2  v031
 BYTE   W06
 BYTE   PEND 
//  #01 //002   ----------------------------------------
 BYTE   PATT
  POIN2 Label_547761
//  #01 //003   ----------------------------------------
 BYTE   N05  Cn3  v127
 BYTE   W06
 BYTE   Gn2  v031
 BYTE   W06
 BYTE   Cn3  v051
 BYTE   W06
 BYTE   Dn3  v071
 BYTE   W06
 BYTE   Ds3  v127
 BYTE   W06
 BYTE   Gn2  v031
 BYTE   W06
 BYTE   Ds3  v051
 BYTE   W06
 BYTE   Fn3  v071
 BYTE   W06
 BYTE   Ds3  v127
 BYTE   W06
 BYTE   Gn2  v031
 BYTE   W06
 BYTE   Fn3  v047
 BYTE   W06
 BYTE   Gn2  v031
 BYTE   W06
 BYTE   Ds3  v127
 BYTE   W06
 BYTE   Gn2  v031
 BYTE   W06
 BYTE   Dn3  v087
 BYTE   W06
 BYTE   Gn2  v031
 BYTE   W06
//  #01 //004   ----------------------------------------
Label_5477C9:
 BYTE   N05  Cn3  v127
 BYTE   W06
 BYTE   Gn3  v031
 BYTE   W06
 BYTE   Gn2  v043
 BYTE   W06
 BYTE   Gn3  v031
 BYTE   W06
 BYTE   Cn3  v127
 BYTE   W06
 BYTE   Gn3  v031
 BYTE   W06
 BYTE   Dn3  v087
 BYTE   W06
 BYTE   Gn3  v031
 BYTE   W06
 BYTE   Ds3  v127
 BYTE   W06
 BYTE   Gn3  v031
 BYTE   W06
 BYTE   Gn2  v043
 BYTE   W06
 BYTE   Gn3  v031
 BYTE   W06
 BYTE   Ds3  v127
 BYTE   W06
 BYTE   Gn3  v031
 BYTE   W06
 BYTE   Fn3  v087
 BYTE   W06
 BYTE   Gn3  v031
 BYTE   W06
 BYTE   PEND 
//  #01 //005   ----------------------------------------
 BYTE   Ds3  v127
 BYTE   W06
 BYTE   Gn3  v031
 BYTE   W06
 BYTE   Gn2  v043
 BYTE   W06
 BYTE   Gn3  v031
 BYTE   W06
 BYTE   Fn3  v127
 BYTE   W06
 BYTE   Gn3  v031
 BYTE   W06
 BYTE   Gn2  v043
 BYTE   W06
 BYTE   Gn3  v031
 BYTE   W06
 BYTE   Gn3  v127
 BYTE   W06
 BYTE   Gn3  v031
 BYTE   W06
 BYTE   Gn2  v043
 BYTE   W06
 BYTE   Gn3  v031
 BYTE   W06
 BYTE   Fn3  v127
 BYTE   W06
 BYTE   Gn3  v031
 BYTE   W06
 BYTE   Gn2  v043
 BYTE   W06
 BYTE   Gn3  v031
 BYTE   W06
//  #01 //006   ----------------------------------------
 BYTE   PATT
  POIN2 Label_5477C9
//  #01 //007   ----------------------------------------
 BYTE   N05  Ds3  v127
 BYTE   W06
 BYTE   Gn3  v031
 BYTE   W06
 BYTE   Gn2  v043
 BYTE   W06
 BYTE   Gn3  v031
 BYTE   W06
 BYTE   Fn3  v127
 BYTE   W06
 BYTE   Gn3  v031
 BYTE   W06
 BYTE   Gn2  v043
 BYTE   W06
 BYTE   Gn3  v031
 BYTE   W06
 BYTE   Ds3  v127
 BYTE   W06
 BYTE   Gn3  v031
 BYTE   W06
 BYTE   Gn2  v043
 BYTE   W06
 BYTE   Gn3  v031
 BYTE   W06
 BYTE   Dn3  v127
 BYTE   W06
 BYTE   Gn3  v031
 BYTE   W06
 BYTE   Gn2  v043
 BYTE   W06
 BYTE   Gn3  v031
 BYTE   W06
//  #01 //008   ----------------------------------------
 BYTE   PATT
  POIN2 Label_547761
//  #01 //009   ----------------------------------------
 BYTE   PATT
  POIN2 Label_547761
//  #01 //010   ----------------------------------------
 BYTE   PATT
  POIN2 Label_547761
//  #01 //011   ----------------------------------------
 BYTE   N05  Cn3  v127
 BYTE   W06
 BYTE   Gn2  v031
 BYTE   W06
 BYTE   Cn3  v051
 BYTE   W06
 BYTE   Dn3  v071
 BYTE   W06
 BYTE   Ds3  v127
 BYTE   W06
 BYTE   Gn2  v031
 BYTE   W06
 BYTE   Ds3  v051
 BYTE   W06
 BYTE   Fn3  v071
 BYTE   W06
 BYTE   Ds3  v127
 BYTE   W06
 BYTE   Gs2
 BYTE   W06
 BYTE   Cn3
 BYTE   W06
 BYTE   Ds3
 BYTE   W06
 BYTE   Fn3
 BYTE   W06
 BYTE   As2
 BYTE   W06
 BYTE   Dn3
 BYTE   W06
 BYTE   As3
 BYTE   W06
//  #01 //012   ----------------------------------------
Label_54789A:
 BYTE   N05  Ds3  v051
 BYTE   W06
 BYTE   As2  v019
 BYTE   W06
 BYTE   Ds3  v023
 BYTE   W06
 BYTE   Fn3  v031
 BYTE   W06
 BYTE   Fs3  v051
 BYTE   W06
 BYTE   As2  v019
 BYTE   W06
 BYTE   Fs3  v023
 BYTE   W06
 BYTE   Gs3  v031
 BYTE   W06
 BYTE   Fs3  v051
 BYTE   W06
 BYTE   As2  v019
 BYTE   W06
 BYTE   Gs3
 BYTE   W06
 BYTE   As2
 BYTE   W06
 BYTE   As3  v051
 BYTE   W06
 BYTE   As2  v019
 BYTE   W06
 BYTE   Gs3  v031
 BYTE   W06
 BYTE   As2  v019
 BYTE   W06
 BYTE   PEND 
//  #01 //013   ----------------------------------------
 BYTE   PATT
  POIN2 Label_54789A
//  #01 //014   ----------------------------------------
 BYTE   PATT
  POIN2 Label_54789A
//  #01 //015   ----------------------------------------
 BYTE   N05  Ds3  v051
 BYTE   W06
 BYTE   As2  v019
 BYTE   W06
 BYTE   Ds3  v023
 BYTE   W06
 BYTE   Fn3  v031
 BYTE   W06
 BYTE   Fs3  v051
 BYTE   W06
 BYTE   As2  v019
 BYTE   W06
 BYTE   Fs3  v023
 BYTE   W06
 BYTE   Gs3  v031
 BYTE   W06
 BYTE   Fs3  v051
 BYTE   W06
 BYTE   As2  v019
 BYTE   W06
 BYTE   Gs3
 BYTE   W06
 BYTE   As2
 BYTE   W06
 BYTE   Fs3  v051
 BYTE   W06
 BYTE   As2  v019
 BYTE   W06
 BYTE   Fn3  v031
 BYTE   W06
 BYTE   As2  v019
 BYTE   W06
//  #01 //016   ----------------------------------------
Label_547903:
 BYTE   N05  Ds3  v051
 BYTE   W06
 BYTE   As3  v019
 BYTE   W06
 BYTE   As2
 BYTE   W06
 BYTE   As3
 BYTE   W06
 BYTE   Ds3  v051
 BYTE   W06
 BYTE   As3  v019
 BYTE   W06
 BYTE   Fn3  v031
 BYTE   W06
 BYTE   As3  v019
 BYTE   W06
 BYTE   Fs3  v051
 BYTE   W06
 BYTE   As3  v019
 BYTE   W06
 BYTE   As2
 BYTE   W06
 BYTE   As3
 BYTE   W06
 BYTE   Fs3  v051
 BYTE   W06
 BYTE   As3  v019
 BYTE   W06
 BYTE   Gs3  v031
 BYTE   W06
 BYTE   As3  v019
 BYTE   W06
 BYTE   PEND 
//  #01 //017   ----------------------------------------
 BYTE   Fs3  v051
 BYTE   W06
 BYTE   As3  v019
 BYTE   W06
 BYTE   As2
 BYTE   W06
 BYTE   As3
 BYTE   W06
 BYTE   Gs3  v051
 BYTE   W06
 BYTE   As3  v019
 BYTE   W06
 BYTE   As2
 BYTE   W06
 BYTE   As3
 BYTE   W06
 BYTE   As3  v051
 BYTE   W06
 BYTE   As3  v019
 BYTE   W06
 BYTE   As2
 BYTE   W06
 BYTE   As3
 BYTE   W06
 BYTE   Gs3  v051
 BYTE   W06
 BYTE   As3  v019
 BYTE   W06
 BYTE   As2
 BYTE   W06
 BYTE   As3
 BYTE   W06
//  #01 //018   ----------------------------------------
 BYTE   PATT
  POIN2 Label_547903
//  #01 //019   ----------------------------------------
 BYTE   N05  Fs3  v051
 BYTE   W06
 BYTE   As3  v019
 BYTE   W06
 BYTE   As2
 BYTE   W06
 BYTE   As3
 BYTE   W06
 BYTE   Gs3  v051
 BYTE   W06
 BYTE   As3  v019
 BYTE   W06
 BYTE   As2
 BYTE   W06
 BYTE   As3
 BYTE   W06
 BYTE   Fs3  v051
 BYTE   W06
 BYTE   As3  v019
 BYTE   W06
 BYTE   As2
 BYTE   W06
 BYTE   As3
 BYTE   W06
 BYTE   Fn3  v051
 BYTE   W06
 BYTE   As3  v019
 BYTE   W06
 BYTE   As2
 BYTE   W06
 BYTE   As3
 BYTE   W06
//  #01 //020   ----------------------------------------
 BYTE   Dn3  v127
 BYTE   W06
 BYTE   As2  v031
 BYTE   W06
 BYTE   Dn3  v051
 BYTE   W06
 BYTE   Ds3  v071
 BYTE   W06
 BYTE   Fn3  v127
 BYTE   W06
 BYTE   As2  v031
 BYTE   W06
 BYTE   Fn3  v051
 BYTE   W06
 BYTE   Fs3  v071
 BYTE   W06
 BYTE   Gs3  v127
 BYTE   W06
 BYTE   Dn3  v031
 BYTE   W06
 BYTE   Gs3  v051
 BYTE   W06
 BYTE   As3  v071
 BYTE   W06
 BYTE   Bn3
 BYTE   W06
 BYTE   Dn3  v047
 BYTE   W06
 BYTE   Fn3  v071
 BYTE   W06
 BYTE   As2  v047
 BYTE   W06
//  #01 //021   ----------------------------------------
 BYTE   Fn2  v043
 BYTE   W06
 BYTE   Dn3  v047
 BYTE   W06
 BYTE   Ds3  v071
 BYTE   W06
 BYTE   Fn2  v043
 BYTE   W06
 BYTE   Fn3  v071
 BYTE   W06
 BYTE   As2  v031
 BYTE   W06
 BYTE   Dn3  v071
 BYTE   W06
 BYTE   Fn3
 BYTE   W06
 BYTE   As3
 BYTE   W06
 BYTE   Fn3  v039
 BYTE   W06
 BYTE   Ds3
 BYTE   W06
 BYTE   Fn3  v071
 BYTE   W06
 BYTE   Ds3  v039
 BYTE   W06
 BYTE   As2
 BYTE   W06
 BYTE   Fn2
 BYTE   W06
 BYTE   Ds2
 BYTE   W06
//  #01 //022   ----------------------------------------
 BYTE   GoTo
  POIN2 Label_547722
 BYTE   FINE

//**************** Track 2 (Midi-Chn.1) ****************//

FE11OffToWarREALxViPerZ_002:
//  #02 //000   ----------------------------------------
 BYTE   KEYSH   FE11OffToWarREALxViPerZ_key+0
Label_5466C2:
 BYTE   VOICE   13
 BYTE   MODT 0
 BYTE   LFOS 44
 BYTE   VOL   41*FE11OffToWarREALxViPerZ_mvl/mxv
 BYTE   PAN   c_v+18
 BYTE   BEND   c_v+0
 BYTE   W06
 BYTE   N05  Cn3  v127
 BYTE   W06
 BYTE   Gn2  v031
 BYTE   W06
 BYTE   Cn3  v051
 BYTE   W06
 BYTE   Dn3  v071
 BYTE   W06
 BYTE   Ds3  v127
 BYTE   W06
 BYTE   Gn2  v031
 BYTE   W06
 BYTE   Ds3  v051
 BYTE   W06
 BYTE   Fn3  v071
 BYTE   W06
 BYTE   Ds3  v127
 BYTE   W06
 BYTE   Gn2  v031
 BYTE   W06
 BYTE   Fn3  v047
 BYTE   W06
 BYTE   Gn2  v031
 BYTE   W06
 BYTE   Gn3  v127
 BYTE   W06
 BYTE   Gn2  v031
 BYTE   W06
 BYTE   Fn3  v087
 BYTE   W06
//  #02 //001   ----------------------------------------
Label_5466FD:
 BYTE   N05  Gn2  v031
 BYTE   W06
 BYTE   Cn3  v127
 BYTE   W06
 BYTE   Gn2  v031
 BYTE   W06
 BYTE   Cn3  v051
 BYTE   W06
 BYTE   Dn3  v071
 BYTE   W06
 BYTE   Ds3  v127
 BYTE   W06
 BYTE   Gn2  v031
 BYTE   W06
 BYTE   Ds3  v051
 BYTE   W06
 BYTE   Fn3  v071
 BYTE   W06
 BYTE   Ds3  v127
 BYTE   W06
 BYTE   Gn2  v031
 BYTE   W06
 BYTE   Fn3  v047
 BYTE   W06
 BYTE   Gn2  v031
 BYTE   W06
 BYTE   Gn3  v127
 BYTE   W06
 BYTE   Gn2  v031
 BYTE   W06
 BYTE   Fn3  v087
 BYTE   W06
 BYTE   PEND 
//  #02 //002   ----------------------------------------
 BYTE   PATT
  POIN2 Label_5466FD
//  #02 //003   ----------------------------------------
 BYTE   N05  Gn2  v031
 BYTE   W06
 BYTE   Cn3  v127
 BYTE   W06
 BYTE   Gn2  v031
 BYTE   W06
 BYTE   Cn3  v051
 BYTE   W06
 BYTE   Dn3  v071
 BYTE   W06
 BYTE   Ds3  v127
 BYTE   W06
 BYTE   Gn2  v031
 BYTE   W06
 BYTE   Ds3  v051
 BYTE   W06
 BYTE   Fn3  v071
 BYTE   W06
 BYTE   Ds3  v127
 BYTE   W06
 BYTE   Gn2  v031
 BYTE   W06
 BYTE   Fn3  v047
 BYTE   W06
 BYTE   Gn2  v031
 BYTE   W06
 BYTE   Ds3  v127
 BYTE   W06
 BYTE   Gn2  v031
 BYTE   W06
 BYTE   Dn3  v087
 BYTE   W06
//  #02 //004   ----------------------------------------
 BYTE   Gn2  v031
 BYTE   W06
 BYTE   Cn3  v127
 BYTE   W06
 BYTE   Gn3  v031
 BYTE   W06
 BYTE   Gn2  v043
 BYTE   W06
 BYTE   Gn3  v031
 BYTE   W06
 BYTE   Cn3  v127
 BYTE   W06
 BYTE   Gn3  v031
 BYTE   W06
 BYTE   Dn3  v087
 BYTE   W06
 BYTE   Gn3  v031
 BYTE   W06
 BYTE   Ds3  v127
 BYTE   W06
 BYTE   Gn3  v031
 BYTE   W06
 BYTE   Gn2  v043
 BYTE   W06
 BYTE   Gn3  v031
 BYTE   W06
 BYTE   Ds3  v127
 BYTE   W06
 BYTE   Gn3  v031
 BYTE   W06
 BYTE   Fn3  v087
 BYTE   W06
//  #02 //005   ----------------------------------------
 BYTE   Gn3  v031
 BYTE   W06
 BYTE   Ds3  v127
 BYTE   W06
 BYTE   Gn3  v031
 BYTE   W06
 BYTE   Gn2  v043
 BYTE   W06
 BYTE   Gn3  v031
 BYTE   W06
 BYTE   Fn3  v127
 BYTE   W06
 BYTE   Gn3  v031
 BYTE   W06
 BYTE   Gn2  v043
 BYTE   W06
 BYTE   Gn3  v031
 BYTE   W06
 BYTE   Gn3  v127
 BYTE   W06
 BYTE   Gn3  v031
 BYTE   W06
 BYTE   Gn2  v043
 BYTE   W06
 BYTE   Gn3  v031
 BYTE   W06
 BYTE   Fn3  v127
 BYTE   W06
 BYTE   Gn3  v031
 BYTE   W06
 BYTE   Gn2  v043
 BYTE   W06
//  #02 //006   ----------------------------------------
 BYTE   Gn3  v031
 BYTE   W06
 BYTE   Cn3  v127
 BYTE   W06
 BYTE   Gn3  v031
 BYTE   W06
 BYTE   Gn2  v043
 BYTE   W06
 BYTE   Gn3  v031
 BYTE   W06
 BYTE   Cn3  v127
 BYTE   W06
 BYTE   Gn3  v031
 BYTE   W06
 BYTE   Dn3  v087
 BYTE   W06
 BYTE   Gn3  v031
 BYTE   W06
 BYTE   Ds3  v127
 BYTE   W06
 BYTE   Gn3  v031
 BYTE   W06
 BYTE   Gn2  v043
 BYTE   W06
 BYTE   Gn3  v031
 BYTE   W06
 BYTE   Ds3  v127
 BYTE   W06
 BYTE   Gn3  v031
 BYTE   W06
 BYTE   Fn3  v087
 BYTE   W06
//  #02 //007   ----------------------------------------
 BYTE   Gn3  v031
 BYTE   W06
 BYTE   Ds3  v127
 BYTE   W06
 BYTE   Gn3  v031
 BYTE   W06
 BYTE   Gn2  v043
 BYTE   W06
 BYTE   Gn3  v031
 BYTE   W06
 BYTE   Fn3  v127
 BYTE   W06
 BYTE   Gn3  v031
 BYTE   W06
 BYTE   Gn2  v043
 BYTE   W06
 BYTE   Gn3  v031
 BYTE   W06
 BYTE   Ds3  v127
 BYTE   W06
 BYTE   Gn3  v031
 BYTE   W06
 BYTE   Gn2  v043
 BYTE   W06
 BYTE   Gn3  v031
 BYTE   W06
 BYTE   Dn3  v127
 BYTE   W06
 BYTE   Gn3  v031
 BYTE   W06
 BYTE   Gn2  v043
 BYTE   W06
//  #02 //008   ----------------------------------------
 BYTE   Gn3  v031
 BYTE   W06
 BYTE   Cn3  v127
 BYTE   W06
 BYTE   Gn2  v031
 BYTE   W06
 BYTE   Cn3  v051
 BYTE   W06
 BYTE   Dn3  v071
 BYTE   W06
 BYTE   Ds3  v127
 BYTE   W06
 BYTE   Gn2  v031
 BYTE   W06
 BYTE   Ds3  v051
 BYTE   W06
 BYTE   Fn3  v071
 BYTE   W06
 BYTE   Ds3  v127
 BYTE   W06
 BYTE   Gn2  v031
 BYTE   W06
 BYTE   Fn3  v047
 BYTE   W06
 BYTE   Gn2  v031
 BYTE   W06
 BYTE   Gn3  v127
 BYTE   W06
 BYTE   Gn2  v031
 BYTE   W06
 BYTE   Fn3  v087
 BYTE   W06
//  #02 //009   ----------------------------------------
 BYTE   PATT
  POIN2 Label_5466FD
//  #02 //010   ----------------------------------------
 BYTE   PATT
  POIN2 Label_5466FD
//  #02 //011   ----------------------------------------
 BYTE   N05  Gn2  v031
 BYTE   W06
 BYTE   Cn3  v127
 BYTE   W06
 BYTE   Gn2  v031
 BYTE   W06
 BYTE   Cn3  v051
 BYTE   W06
 BYTE   Dn3  v071
 BYTE   W06
 BYTE   Ds3  v127
 BYTE   W06
 BYTE   Gn2  v031
 BYTE   W06
 BYTE   Ds3  v051
 BYTE   W06
 BYTE   Fn3  v071
 BYTE   W06
 BYTE   Ds3  v127
 BYTE   W06
 BYTE   Gs2
 BYTE   W06
 BYTE   Cn3
 BYTE   W06
 BYTE   Ds3
 BYTE   W06
 BYTE   Fn3
 BYTE   W06
 BYTE   As2
 BYTE   W06
 BYTE   Dn3
 BYTE   W06
//  #02 //012   ----------------------------------------
 BYTE   As3
 BYTE   W06
 BYTE   Ds3  v051
 BYTE   W06
 BYTE   As2  v019
 BYTE   W06
 BYTE   Ds3  v023
 BYTE   W06
 BYTE   Fn3  v031
 BYTE   W06
 BYTE   Fs3  v051
 BYTE   W06
 BYTE   As2  v019
 BYTE   W06
 BYTE   Fs3  v023
 BYTE   W06
 BYTE   Gs3  v031
 BYTE   W06
 BYTE   Fs3  v051
 BYTE   W06
 BYTE   As2  v019
 BYTE   W06
 BYTE   Gs3
 BYTE   W06
 BYTE   As2
 BYTE   W06
 BYTE   As3  v051
 BYTE   W06
 BYTE   As2  v019
 BYTE   W06
 BYTE   Gs3  v031
 BYTE   W06
//  #02 //013   ----------------------------------------
Label_5468B7:
 BYTE   N05  As2  v019
 BYTE   W06
 BYTE   Ds3  v051
 BYTE   W06
 BYTE   As2  v019
 BYTE   W06
 BYTE   Ds3  v023
 BYTE   W06
 BYTE   Fn3  v031
 BYTE   W06
 BYTE   Fs3  v051
 BYTE   W06
 BYTE   As2  v019
 BYTE   W06
 BYTE   Fs3  v023
 BYTE   W06
 BYTE   Gs3  v031
 BYTE   W06
 BYTE   Fs3  v051
 BYTE   W06
 BYTE   As2  v019
 BYTE   W06
 BYTE   Gs3
 BYTE   W06
 BYTE   As2
 BYTE   W06
 BYTE   As3  v051
 BYTE   W06
 BYTE   As2  v019
 BYTE   W06
 BYTE   Gs3  v031
 BYTE   W06
 BYTE   PEND 
//  #02 //014   ----------------------------------------
 BYTE   PATT
  POIN2 Label_5468B7
//  #02 //015   ----------------------------------------
 BYTE   N05  As2  v019
 BYTE   W06
 BYTE   Ds3  v051
 BYTE   W06
 BYTE   As2  v019
 BYTE   W06
 BYTE   Ds3  v023
 BYTE   W06
 BYTE   Fn3  v031
 BYTE   W06
 BYTE   Fs3  v051
 BYTE   W06
 BYTE   As2  v019
 BYTE   W06
 BYTE   Fs3  v023
 BYTE   W06
 BYTE   Gs3  v031
 BYTE   W06
 BYTE   Fs3  v051
 BYTE   W06
 BYTE   As2  v019
 BYTE   W06
 BYTE   Gs3
 BYTE   W06
 BYTE   As2
 BYTE   W06
 BYTE   Fs3  v051
 BYTE   W06
 BYTE   As2  v019
 BYTE   W06
 BYTE   Fn3  v031
 BYTE   W06
//  #02 //016   ----------------------------------------
 BYTE   As2  v019
 BYTE   W06
 BYTE   Ds3  v051
 BYTE   W06
 BYTE   As3  v019
 BYTE   W06
 BYTE   As2
 BYTE   W06
 BYTE   As3
 BYTE   W06
 BYTE   Ds3  v051
 BYTE   W06
 BYTE   As3  v019
 BYTE   W06
 BYTE   Fn3  v031
 BYTE   W06
 BYTE   As3  v019
 BYTE   W06
 BYTE   Fs3  v051
 BYTE   W06
 BYTE   As3  v019
 BYTE   W06
 BYTE   As2
 BYTE   W06
 BYTE   As3
 BYTE   W06
 BYTE   Fs3  v051
 BYTE   W06
 BYTE   As3  v019
 BYTE   W06
 BYTE   Gs3  v031
 BYTE   W06
//  #02 //017   ----------------------------------------
 BYTE   As3  v019
 BYTE   W06
 BYTE   Fs3  v051
 BYTE   W06
 BYTE   As3  v019
 BYTE   W06
 BYTE   As2
 BYTE   W06
 BYTE   As3
 BYTE   W06
 BYTE   Gs3  v051
 BYTE   W06
 BYTE   As3  v019
 BYTE   W06
 BYTE   As2
 BYTE   W06
 BYTE   As3
 BYTE   W06
 BYTE   As3  v051
 BYTE   W06
 BYTE   As3  v019
 BYTE   W06
 BYTE   As2
 BYTE   W06
 BYTE   As3
 BYTE   W06
 BYTE   Gs3  v051
 BYTE   W06
 BYTE   As3  v019
 BYTE   W06
 BYTE   As2
 BYTE   W06
//  #02 //018   ----------------------------------------
 BYTE   As3
 BYTE   W06
 BYTE   Ds3  v051
 BYTE   W06
 BYTE   As3  v019
 BYTE   W06
 BYTE   As2
 BYTE   W06
 BYTE   As3
 BYTE   W06
 BYTE   Ds3  v051
 BYTE   W06
 BYTE   As3  v019
 BYTE   W06
 BYTE   Fn3  v031
 BYTE   W06
 BYTE   As3  v019
 BYTE   W06
 BYTE   Fs3  v051
 BYTE   W06
 BYTE   As3  v019
 BYTE   W06
 BYTE   As2
 BYTE   W06
 BYTE   As3
 BYTE   W06
 BYTE   Fs3  v051
 BYTE   W06
 BYTE   As3  v019
 BYTE   W06
 BYTE   Gs3  v031
 BYTE   W06
//  #02 //019   ----------------------------------------
 BYTE   As3  v019
 BYTE   W06
 BYTE   Fs3  v051
 BYTE   W06
 BYTE   As3  v019
 BYTE   W06
 BYTE   As2
 BYTE   W06
 BYTE   As3
 BYTE   W06
 BYTE   Gs3  v051
 BYTE   W06
 BYTE   As3  v019
 BYTE   W06
 BYTE   As2
 BYTE   W06
 BYTE   As3
 BYTE   W06
 BYTE   Fs3  v051
 BYTE   W06
 BYTE   As3  v019
 BYTE   W06
 BYTE   As2
 BYTE   W06
 BYTE   As3
 BYTE   W06
 BYTE   Fn3  v051
 BYTE   W06
 BYTE   As3  v019
 BYTE   W06
 BYTE   As2
 BYTE   W06
//  #02 //020   ----------------------------------------
 BYTE   As3
 BYTE   W06
 BYTE   Dn3  v127
 BYTE   W06
 BYTE   As2  v031
 BYTE   W06
 BYTE   Dn3  v051
 BYTE   W06
 BYTE   Ds3  v071
 BYTE   W06
 BYTE   Fn3  v127
 BYTE   W06
 BYTE   As2  v031
 BYTE   W06
 BYTE   Fn3  v051
 BYTE   W06
 BYTE   Fs3  v071
 BYTE   W06
 BYTE   Gs3  v127
 BYTE   W06
 BYTE   Dn3  v031
 BYTE   W06
 BYTE   Gs3  v051
 BYTE   W06
 BYTE   As3  v071
 BYTE   W06
 BYTE   Bn3
 BYTE   W06
 BYTE   Dn3  v047
 BYTE   W06
 BYTE   Fn3  v071
 BYTE   W06
//  #02 //021   ----------------------------------------
 BYTE   As2  v047
 BYTE   W06
 BYTE   Fn2  v043
 BYTE   W06
 BYTE   Dn3  v047
 BYTE   W06
 BYTE   Ds3  v071
 BYTE   W06
 BYTE   Fn2  v043
 BYTE   W06
 BYTE   Fn3  v071
 BYTE   W06
 BYTE   As2  v031
 BYTE   W06
 BYTE   Dn3  v071
 BYTE   W06
 BYTE   Fn3
 BYTE   W06
 BYTE   As3
 BYTE   W06
 BYTE   Fn3  v039
 BYTE   W06
 BYTE   Ds3
 BYTE   W06
 BYTE   Fn3  v071
 BYTE   W06
 BYTE   Ds3  v039
 BYTE   W06
 BYTE   As2
 BYTE   W06
 BYTE   Fn2
 BYTE   W06
//  #02 //022   ----------------------------------------
 BYTE   GoTo
  POIN2 Label_5466C2
 BYTE   FINE

//**************** Track 3 (Midi-Chn.2) ****************//

FE11OffToWarREALxViPerZ_003:
//  #03 //000   ----------------------------------------
 BYTE   KEYSH   FE11OffToWarREALxViPerZ_key+0
Label_5462B2:
 BYTE   VOICE   49
 BYTE   MODT 0
 BYTE   LFOS 44
 BYTE   VOL   30*FE11OffToWarREALxViPerZ_mvl/mxv
 BYTE   PAN   c_v+0
 BYTE   VOL   30*FE11OffToWarREALxViPerZ_mvl/mxv
 BYTE   BEND   c_v+0
 BYTE   W96
//  #03 //001   ----------------------------------------
 BYTE   W96
//  #03 //002   ----------------------------------------
 BYTE   W96
//  #03 //003   ----------------------------------------
 BYTE   W96
//  #03 //004   ----------------------------------------
 BYTE   W96
//  #03 //005   ----------------------------------------
 BYTE   W96
//  #03 //006   ----------------------------------------
 BYTE   W96
//  #03 //007   ----------------------------------------
 BYTE   W96
//  #03 //008   ----------------------------------------
 BYTE   W96
//  #03 //009   ----------------------------------------
 BYTE   W96
//  #03 //010   ----------------------------------------
 BYTE   W96
//  #03 //011   ----------------------------------------
 BYTE   VOL   25*FE11OffToWarREALxViPerZ_mvl/mxv
 BYTE   W48
 BYTE   VOL   25*FE11OffToWarREALxViPerZ_mvl/mxv
 BYTE   TIE  Bn2  v127
 BYTE   W01
 BYTE   VOL   25*FE11OffToWarREALxViPerZ_mvl/mxv
 BYTE   W02
 BYTE   VOL   25*FE11OffToWarREALxViPerZ_mvl/mxv
 BYTE   W01
 BYTE   VOL   25*FE11OffToWarREALxViPerZ_mvl/mxv
 BYTE   W02
 BYTE   VOL   25*FE11OffToWarREALxViPerZ_mvl/mxv
 BYTE   W01
 BYTE   VOL   25*FE11OffToWarREALxViPerZ_mvl/mxv
 BYTE   W02
 BYTE   VOL   25*FE11OffToWarREALxViPerZ_mvl/mxv
 BYTE   W01
 BYTE   VOL   25*FE11OffToWarREALxViPerZ_mvl/mxv
 BYTE   W02
 BYTE   VOL   25*FE11OffToWarREALxViPerZ_mvl/mxv
 BYTE   W01
 BYTE   VOL   25*FE11OffToWarREALxViPerZ_mvl/mxv
 BYTE   W02
 BYTE   VOL   25*FE11OffToWarREALxViPerZ_mvl/mxv
 BYTE   W01
 BYTE   VOL   25*FE11OffToWarREALxViPerZ_mvl/mxv
 BYTE   W02
 BYTE   VOL   25*FE11OffToWarREALxViPerZ_mvl/mxv
 BYTE   W01
 BYTE   VOL   25*FE11OffToWarREALxViPerZ_mvl/mxv
 BYTE   W02
 BYTE   VOL   25*FE11OffToWarREALxViPerZ_mvl/mxv
 BYTE   W01
 BYTE   VOL   25*FE11OffToWarREALxViPerZ_mvl/mxv
 BYTE   W02
 BYTE   VOL   25*FE11OffToWarREALxViPerZ_mvl/mxv
 BYTE   W01
 BYTE   VOL   25*FE11OffToWarREALxViPerZ_mvl/mxv
 BYTE   W02
 BYTE   VOL   25*FE11OffToWarREALxViPerZ_mvl/mxv
 BYTE   W01
 BYTE   VOL   25*FE11OffToWarREALxViPerZ_mvl/mxv
 BYTE   W02
 BYTE   VOL   25*FE11OffToWarREALxViPerZ_mvl/mxv
 BYTE   W01
 BYTE   VOL   25*FE11OffToWarREALxViPerZ_mvl/mxv
 BYTE   W02
 BYTE   VOL   25*FE11OffToWarREALxViPerZ_mvl/mxv
 BYTE   W01
 BYTE   VOL   25*FE11OffToWarREALxViPerZ_mvl/mxv
 BYTE   W02
 BYTE   VOL   25*FE11OffToWarREALxViPerZ_mvl/mxv
 BYTE   W01
 BYTE   VOL   25*FE11OffToWarREALxViPerZ_mvl/mxv
 BYTE   W02
 BYTE   VOL   26*FE11OffToWarREALxViPerZ_mvl/mxv
 BYTE   W01
 BYTE   VOL   26*FE11OffToWarREALxViPerZ_mvl/mxv
 BYTE   W02
 BYTE   VOL   26*FE11OffToWarREALxViPerZ_mvl/mxv
 BYTE   W01
 BYTE   VOL   26*FE11OffToWarREALxViPerZ_mvl/mxv
 BYTE   W02
 BYTE   VOL   26*FE11OffToWarREALxViPerZ_mvl/mxv
 BYTE   W01
 BYTE   VOL   27*FE11OffToWarREALxViPerZ_mvl/mxv
 BYTE   W02
//  #03 //012   ----------------------------------------
 BYTE   VOL   27*FE11OffToWarREALxViPerZ_mvl/mxv
 BYTE   W01
 BYTE   VOL   28*FE11OffToWarREALxViPerZ_mvl/mxv
 BYTE   W01
 BYTE   VOL   28*FE11OffToWarREALxViPerZ_mvl/mxv
 BYTE   W01
 BYTE   VOL   28*FE11OffToWarREALxViPerZ_mvl/mxv
 BYTE   W02
 BYTE   VOL   28*FE11OffToWarREALxViPerZ_mvl/mxv
 BYTE   W01
 BYTE   VOL   27*FE11OffToWarREALxViPerZ_mvl/mxv
 BYTE   W02
 BYTE   VOL   27*FE11OffToWarREALxViPerZ_mvl/mxv
 BYTE   W01
 BYTE   VOL   27*FE11OffToWarREALxViPerZ_mvl/mxv
 BYTE   W02
 BYTE   VOL   27*FE11OffToWarREALxViPerZ_mvl/mxv
 BYTE   W01
 BYTE   VOL   26*FE11OffToWarREALxViPerZ_mvl/mxv
 BYTE   W02
 BYTE   VOL   26*FE11OffToWarREALxViPerZ_mvl/mxv
 BYTE   W01
 BYTE   VOL   26*FE11OffToWarREALxViPerZ_mvl/mxv
 BYTE   W02
 BYTE   VOL   26*FE11OffToWarREALxViPerZ_mvl/mxv
 BYTE   W01
 BYTE   VOL   26*FE11OffToWarREALxViPerZ_mvl/mxv
 BYTE   W02
 BYTE   VOL   26*FE11OffToWarREALxViPerZ_mvl/mxv
 BYTE   W01
 BYTE   VOL   26*FE11OffToWarREALxViPerZ_mvl/mxv
 BYTE   W02
 BYTE   VOL   26*FE11OffToWarREALxViPerZ_mvl/mxv
 BYTE   W01
 BYTE   VOL   26*FE11OffToWarREALxViPerZ_mvl/mxv
 BYTE   W02
 BYTE   VOL   26*FE11OffToWarREALxViPerZ_mvl/mxv
 BYTE   W01
 BYTE   VOL   25*FE11OffToWarREALxViPerZ_mvl/mxv
 BYTE   W02
 BYTE   VOL   25*FE11OffToWarREALxViPerZ_mvl/mxv
 BYTE   W01
 BYTE   VOL   25*FE11OffToWarREALxViPerZ_mvl/mxv
 BYTE   W02
 BYTE   VOL   25*FE11OffToWarREALxViPerZ_mvl/mxv
 BYTE   W01
 BYTE   VOL   25*FE11OffToWarREALxViPerZ_mvl/mxv
 BYTE   W02
 BYTE   VOL   25*FE11OffToWarREALxViPerZ_mvl/mxv
 BYTE   W01
 BYTE   VOL   25*FE11OffToWarREALxViPerZ_mvl/mxv
 BYTE   W02
 BYTE   VOL   25*FE11OffToWarREALxViPerZ_mvl/mxv
 BYTE   W01
 BYTE   VOL   25*FE11OffToWarREALxViPerZ_mvl/mxv
 BYTE   W02
 BYTE   VOL   25*FE11OffToWarREALxViPerZ_mvl/mxv
 BYTE   W01
 BYTE   VOL   25*FE11OffToWarREALxViPerZ_mvl/mxv
 BYTE   W02
 BYTE   VOL   25*FE11OffToWarREALxViPerZ_mvl/mxv
 BYTE   W01
 BYTE   VOL   25*FE11OffToWarREALxViPerZ_mvl/mxv
 BYTE   W02
 BYTE   VOL   25*FE11OffToWarREALxViPerZ_mvl/mxv
 BYTE   W01
 BYTE   VOL   25*FE11OffToWarREALxViPerZ_mvl/mxv
 BYTE   W02
 BYTE   VOL   25*FE11OffToWarREALxViPerZ_mvl/mxv
 BYTE   W01
 BYTE   VOL   25*FE11OffToWarREALxViPerZ_mvl/mxv
 BYTE   W02
 BYTE   VOL   25*FE11OffToWarREALxViPerZ_mvl/mxv
 BYTE   W01
 BYTE   VOL   25*FE11OffToWarREALxViPerZ_mvl/mxv
 BYTE   W02
 BYTE   VOL   25*FE11OffToWarREALxViPerZ_mvl/mxv
 BYTE   W01
 BYTE   VOL   25*FE11OffToWarREALxViPerZ_mvl/mxv
 BYTE   W02
 BYTE   VOL   25*FE11OffToWarREALxViPerZ_mvl/mxv
 BYTE   W10
 BYTE   VOL   25*FE11OffToWarREALxViPerZ_mvl/mxv
 BYTE   W04
 BYTE   VOL   25*FE11OffToWarREALxViPerZ_mvl/mxv
 BYTE   W05
 BYTE   VOL   25*FE11OffToWarREALxViPerZ_mvl/mxv
 BYTE   W05
 BYTE   VOL   25*FE11OffToWarREALxViPerZ_mvl/mxv
 BYTE   W05
 BYTE   VOL   25*FE11OffToWarREALxViPerZ_mvl/mxv
 BYTE   W05
 BYTE   VOL   25*FE11OffToWarREALxViPerZ_mvl/mxv
 BYTE   W03
//  #03 //013   ----------------------------------------
 BYTE   W02
 BYTE   VOL   25*FE11OffToWarREALxViPerZ_mvl/mxv
 BYTE   W04
 BYTE   VOL   25*FE11OffToWarREALxViPerZ_mvl/mxv
 BYTE   W05
 BYTE   VOL   25*FE11OffToWarREALxViPerZ_mvl/mxv
 BYTE   W05
 BYTE   VOL   25*FE11OffToWarREALxViPerZ_mvl/mxv
 BYTE   W05
 BYTE   VOL   25*FE11OffToWarREALxViPerZ_mvl/mxv
 BYTE   W05
 BYTE   VOL   25*FE11OffToWarREALxViPerZ_mvl/mxv
 BYTE   W04
 BYTE   VOL   25*FE11OffToWarREALxViPerZ_mvl/mxv
 BYTE   W05
 BYTE   VOL   25*FE11OffToWarREALxViPerZ_mvl/mxv
 BYTE   W05
 BYTE   VOL   25*FE11OffToWarREALxViPerZ_mvl/mxv
 BYTE   W05
 BYTE   VOL   25*FE11OffToWarREALxViPerZ_mvl/mxv
 BYTE   W05
 BYTE   VOL   25*FE11OffToWarREALxViPerZ_mvl/mxv
 BYTE   W05
 BYTE   VOL   25*FE11OffToWarREALxViPerZ_mvl/mxv
 BYTE   W04
 BYTE   VOL   25*FE11OffToWarREALxViPerZ_mvl/mxv
 BYTE   W05
 BYTE   VOL   25*FE11OffToWarREALxViPerZ_mvl/mxv
 BYTE   W05
 BYTE   VOL   25*FE11OffToWarREALxViPerZ_mvl/mxv
 BYTE   W05
 BYTE   VOL   25*FE11OffToWarREALxViPerZ_mvl/mxv
 BYTE   W05
 BYTE   VOL   25*FE11OffToWarREALxViPerZ_mvl/mxv
 BYTE   W05
 BYTE   VOL   25*FE11OffToWarREALxViPerZ_mvl/mxv
 BYTE   W04
 BYTE   VOL   25*FE11OffToWarREALxViPerZ_mvl/mxv
 BYTE   W05
 BYTE   VOL   25*FE11OffToWarREALxViPerZ_mvl/mxv
 BYTE   W03
//  #03 //014   ----------------------------------------
 BYTE   W02
 BYTE   VOL   25*FE11OffToWarREALxViPerZ_mvl/mxv
 BYTE   W05
 BYTE   VOL   25*FE11OffToWarREALxViPerZ_mvl/mxv
 BYTE   W05
 BYTE   VOL   25*FE11OffToWarREALxViPerZ_mvl/mxv
 BYTE   W04
 BYTE   VOL   25*FE11OffToWarREALxViPerZ_mvl/mxv
 BYTE   W05
 BYTE   VOL   25*FE11OffToWarREALxViPerZ_mvl/mxv
 BYTE   W05
 BYTE   VOL   25*FE11OffToWarREALxViPerZ_mvl/mxv
 BYTE   W05
 BYTE   VOL   25*FE11OffToWarREALxViPerZ_mvl/mxv
 BYTE   W05
 BYTE   VOL   25*FE11OffToWarREALxViPerZ_mvl/mxv
 BYTE   W05
 BYTE   VOL   25*FE11OffToWarREALxViPerZ_mvl/mxv
 BYTE   W04
 BYTE   VOL   25*FE11OffToWarREALxViPerZ_mvl/mxv
 BYTE   W05
 BYTE   VOL   25*FE11OffToWarREALxViPerZ_mvl/mxv
 BYTE   W05
 BYTE   VOL   25*FE11OffToWarREALxViPerZ_mvl/mxv
 BYTE   W05
 BYTE   VOL   25*FE11OffToWarREALxViPerZ_mvl/mxv
 BYTE   W05
 BYTE   VOL   25*FE11OffToWarREALxViPerZ_mvl/mxv
 BYTE   W04
 BYTE   VOL   25*FE11OffToWarREALxViPerZ_mvl/mxv
 BYTE   W05
 BYTE   VOL   25*FE11OffToWarREALxViPerZ_mvl/mxv
 BYTE   W05
 BYTE   VOL   25*FE11OffToWarREALxViPerZ_mvl/mxv
 BYTE   W05
 BYTE   VOL   25*FE11OffToWarREALxViPerZ_mvl/mxv
 BYTE   W05
 BYTE   VOL   25*FE11OffToWarREALxViPerZ_mvl/mxv
 BYTE   W05
 BYTE   VOL   25*FE11OffToWarREALxViPerZ_mvl/mxv
 BYTE   W02
//  #03 //015   ----------------------------------------
 BYTE   W02
 BYTE   VOL   25*FE11OffToWarREALxViPerZ_mvl/mxv
 BYTE   W05
 BYTE   VOL   25*FE11OffToWarREALxViPerZ_mvl/mxv
 BYTE   W05
 BYTE   VOL   25*FE11OffToWarREALxViPerZ_mvl/mxv
 BYTE   W05
 BYTE   VOL   25*FE11OffToWarREALxViPerZ_mvl/mxv
 BYTE   W05
 BYTE   VOL   25*FE11OffToWarREALxViPerZ_mvl/mxv
 BYTE   W07
 BYTE   EOT
 BYTE   W66
 BYTE   W01
//  #03 //016   ----------------------------------------
 BYTE   W96
//  #03 //017   ----------------------------------------
 BYTE   W96
//  #03 //018   ----------------------------------------
 BYTE   W96
//  #03 //019   ----------------------------------------
 BYTE   W96
//  #03 //020   ----------------------------------------
 BYTE   W96
//  #03 //021   ----------------------------------------
 BYTE   W96
//  #03 //022   ----------------------------------------
 BYTE   GoTo
  POIN2 Label_5462B2
 BYTE   FINE

//**************** Track 4 (Midi-Chn.3) ****************//

FE11OffToWarREALxViPerZ_004:
//  #04 //000   ----------------------------------------
 BYTE   KEYSH   FE11OffToWarREALxViPerZ_key+0
Label_546E4E:
 BYTE   VOICE   2
 BYTE   MODT 0
 BYTE   LFOS 44
 BYTE   VOL   70*FE11OffToWarREALxViPerZ_mvl/mxv
 BYTE   PAN   c_v+0
 BYTE   BEND   c_v+0
 BYTE   N11  Cn1  v112
 BYTE   W12
 BYTE   Cn1  v008
 BYTE   W12
 BYTE   Cn1  v004
 BYTE   W12
 BYTE   N05  Cn0  v032
 BYTE   W06
 BYTE   N05
 BYTE   W06
 BYTE   N08  Cn0  v072
 BYTE   W12
 BYTE   N11  Cn0  v112
 BYTE   W12
 BYTE   Cn0  v008
 BYTE   W12
 BYTE   Cn0  v004
 BYTE   W12
//  #04 //001   ----------------------------------------
Label_546E78:
 BYTE   N11  As0  v112
 BYTE   W12
 BYTE   As0  v008
 BYTE   W12
 BYTE   As0  v004
 BYTE   W12
 BYTE   N05  Cn0  v032
 BYTE   W06
 BYTE   N05
 BYTE   W06
 BYTE   N08  Cn0  v072
 BYTE   W12
 BYTE   N11  Cn0  v112
 BYTE   W12
 BYTE   Cn0  v008
 BYTE   W12
 BYTE   Cn0  v004
 BYTE   W12
 BYTE   PEND 
//  #04 //002   ----------------------------------------
Label_546E97:
 BYTE   N11  Gs0  v112
 BYTE   W12
 BYTE   Gs0  v008
 BYTE   W12
 BYTE   Gs0  v004
 BYTE   W12
 BYTE   N05  Cn0  v032
 BYTE   W06
 BYTE   N05
 BYTE   W06
 BYTE   N08  Cn0  v072
 BYTE   W12
 BYTE   N11  Cn0  v112
 BYTE   W12
 BYTE   Cn0  v008
 BYTE   W12
 BYTE   Cn0  v004
 BYTE   W12
 BYTE   PEND 
//  #04 //003   ----------------------------------------
 BYTE   Gn0  v112
 BYTE   W12
 BYTE   Gn0  v008
 BYTE   W12
 BYTE   Gn0  v004
 BYTE   W12
 BYTE   N05  Cn0  v032
 BYTE   W06
 BYTE   N05
 BYTE   W06
 BYTE   N08  Cn0  v072
 BYTE   W12
 BYTE   N11  Cn0  v112
 BYTE   W12
 BYTE   Cn0  v008
 BYTE   W12
 BYTE   N05  Gn0  v112
 BYTE   W06
 BYTE   N05
 BYTE   W06
//  #04 //004   ----------------------------------------
 BYTE   N11  Cn1
 BYTE   W12
 BYTE   Cn1  v008
 BYTE   W12
 BYTE   Cn1  v004
 BYTE   W12
 BYTE   N05  Cn0  v032
 BYTE   W06
 BYTE   N05
 BYTE   W06
 BYTE   N08  Cn0  v072
 BYTE   W12
 BYTE   N11  Cn0  v112
 BYTE   W12
 BYTE   Cn0  v008
 BYTE   W12
 BYTE   Cn0  v004
 BYTE   W12
//  #04 //005   ----------------------------------------
 BYTE   PATT
  POIN2 Label_546E78
//  #04 //006   ----------------------------------------
 BYTE   PATT
  POIN2 Label_546E97
//  #04 //007   ----------------------------------------
 BYTE   N11  Gn0  v112
 BYTE   W12
 BYTE   Gn0  v008
 BYTE   W12
 BYTE   Gn0  v004
 BYTE   W12
 BYTE   N05  Cn0  v032
 BYTE   W06
 BYTE   N05
 BYTE   W06
 BYTE   N08  Cn0  v072
 BYTE   W12
 BYTE   N11  Cn0  v112
 BYTE   W12
 BYTE   Cn0  v008
 BYTE   W12
 BYTE   Cn0  v004
 BYTE   W12
//  #04 //008   ----------------------------------------
 BYTE   N23  Fn0  v060
 BYTE   W30
 BYTE   N01  Fn0  v088
 BYTE   W06
 BYTE   N05  Fn0  v060
 BYTE   W06
 BYTE   Cn1
 BYTE   W06
 BYTE   N11  Fn1
 BYTE   W12
 BYTE   N17  Fn0
 BYTE   W18
 BYTE   N01  Fn0  v088
 BYTE   W06
 BYTE   N11  Cn1  v060
 BYTE   W12
//  #04 //009   ----------------------------------------
 BYTE   N23  Gn0
 BYTE   W24
 BYTE   N11  Dn1
 BYTE   W12
 BYTE   N23  Gn1
 BYTE   W24
 BYTE   N11  Gn0
 BYTE   W18
 BYTE   N05  Dn0
 BYTE   W06
 BYTE   N11  Gn0
 BYTE   W12
//  #04 //010   ----------------------------------------
 BYTE   N23  Gs0
 BYTE   W24
 BYTE   N01  Gs0  v088
 BYTE   W06
 BYTE   Gs0  v016
 BYTE   W06
 BYTE   N05  Dn0  v060
 BYTE   W06
 BYTE   Ds0
 BYTE   W06
 BYTE   N11  Gs0
 BYTE   W12
 BYTE   As0
 BYTE   W12
 BYTE   Cn1
 BYTE   W12
 BYTE   N23  As0
 BYTE   W12
//  #04 //011   ----------------------------------------
 BYTE   W12
 BYTE   N05
 BYTE   W06
 BYTE   As0  v016
 BYTE   W06
 BYTE   N23  As0  v060
 BYTE   W24
 BYTE   N05  Ds1
 BYTE   W06
 BYTE   N03  Gs0
 BYTE   W06
 BYTE   Cn1
 BYTE   W06
 BYTE   Ds1
 BYTE   W06
 BYTE   N05  Fn1
 BYTE   W06
 BYTE   N03  As0
 BYTE   W06
 BYTE   Dn1
 BYTE   W06
 BYTE   As0
 BYTE   W06
//  #04 //012   ----------------------------------------
Label_546F81:
 BYTE   N11  Ds0  v076
 BYTE   W12
 BYTE   N11
 BYTE   W12
 BYTE   N04  Ds0  v004
 BYTE   W06
 BYTE   N04
 BYTE   W06
 BYTE   N03  Ds0  v044
 BYTE   W06
 BYTE   N03
 BYTE   W06
 BYTE   N05
 BYTE   W06
 BYTE   Ds0  v004
 BYTE   W06
 BYTE   N11  Ds0  v044
 BYTE   W12
 BYTE   N03  As0
 BYTE   W06
 BYTE   Ds1
 BYTE   W06
 BYTE   As0
 BYTE   W06
 BYTE   Ds0
 BYTE   W06
 BYTE   PEND 
//  #04 //013   ----------------------------------------
Label_546FA6:
 BYTE   N11  Fn0  v076
 BYTE   W12
 BYTE   N11
 BYTE   W12
 BYTE   N04  Fn0  v004
 BYTE   W06
 BYTE   N04
 BYTE   W06
 BYTE   N03  Fn0  v044
 BYTE   W06
 BYTE   N03
 BYTE   W06
 BYTE   N05
 BYTE   W06
 BYTE   Fn0  v004
 BYTE   W06
 BYTE   N11  Fn0  v044
 BYTE   W12
 BYTE   N03  Fn1
 BYTE   W06
 BYTE   Ds0
 BYTE   W06
 BYTE   Fn0
 BYTE   W06
 BYTE   Gs0
 BYTE   W06
 BYTE   PEND 
//  #04 //014   ----------------------------------------
Label_546FCB:
 BYTE   N11  Fs0  v076
 BYTE   W12
 BYTE   N11
 BYTE   W12
 BYTE   N04  Fs0  v004
 BYTE   W06
 BYTE   N04
 BYTE   W06
 BYTE   N03  Fs0  v044
 BYTE   W06
 BYTE   N03
 BYTE   W06
 BYTE   N05
 BYTE   W06
 BYTE   Fs0  v004
 BYTE   W06
 BYTE   N11  Fs0  v044
 BYTE   W18
 BYTE   N03  Cs1
 BYTE   W06
 BYTE   Fs1
 BYTE   W06
 BYTE   Fs0
 BYTE   W06
 BYTE   PEND 
//  #04 //015   ----------------------------------------
 BYTE   N11  Gs0  v076
 BYTE   W12
 BYTE   N11
 BYTE   W12
 BYTE   N04  Gs0  v004
 BYTE   W06
 BYTE   N04
 BYTE   W06
 BYTE   N03  Gs0  v044
 BYTE   W06
 BYTE   N03
 BYTE   W06
 BYTE   N05
 BYTE   W06
 BYTE   Gs0  v004
 BYTE   W06
 BYTE   N11  Gs0  v044
 BYTE   W12
 BYTE   N05
 BYTE   W06
 BYTE   N05
 BYTE   W06
 BYTE   Fs0
 BYTE   W06
 BYTE   Fn0
 BYTE   W06
//  #04 //016   ----------------------------------------
 BYTE   PATT
  POIN2 Label_546F81
//  #04 //017   ----------------------------------------
 BYTE   PATT
  POIN2 Label_546FA6
//  #04 //018   ----------------------------------------
 BYTE   PATT
  POIN2 Label_546FCB
//  #04 //019   ----------------------------------------
 BYTE   N11  Gs0  v076
 BYTE   W12
 BYTE   N11
 BYTE   W12
 BYTE   N04  Gs0  v004
 BYTE   W06
 BYTE   N04
 BYTE   W06
 BYTE   N03  Gs0  v044
 BYTE   W06
 BYTE   N03
 BYTE   W06
 BYTE   N05
 BYTE   W06
 BYTE   Gs0  v004
 BYTE   W06
 BYTE   N11  Gs0  v044
 BYTE   W12
 BYTE   N05
 BYTE   W06
 BYTE   N05
 BYTE   W06
 BYTE   Fs0
 BYTE   W06
 BYTE   Gs0
 BYTE   W06
//  #04 //020   ----------------------------------------
 BYTE   N11  As0  v076
 BYTE   W12
 BYTE   N11
 BYTE   W12
 BYTE   N04  As0  v004
 BYTE   W06
 BYTE   N04
 BYTE   W06
 BYTE   N03  As0  v044
 BYTE   W06
 BYTE   N03
 BYTE   W06
 BYTE   N05
 BYTE   W06
 BYTE   As0  v004
 BYTE   W06
 BYTE   N11  As0  v044
 BYTE   W12
 BYTE   As0  v004
 BYTE   W12
 BYTE   N05  Fn0  v044
 BYTE   W06
 BYTE   N05
 BYTE   W06
//  #04 //021   ----------------------------------------
 BYTE   N11  As0  v076
 BYTE   W12
 BYTE   N11
 BYTE   W12
 BYTE   N04  As0  v004
 BYTE   W06
 BYTE   N04
 BYTE   W06
 BYTE   N03  As0  v044
 BYTE   W06
 BYTE   N03
 BYTE   W06
 BYTE   N05  As1
 BYTE   W06
 BYTE   Fn1
 BYTE   W06
 BYTE   Ds1
 BYTE   W06
 BYTE   Fn1
 BYTE   W06
 BYTE   Ds1
 BYTE   W06
 BYTE   As0
 BYTE   W06
 BYTE   Fn0
 BYTE   W06
 BYTE   Ds0
 BYTE   W06
//  #04 //022   ----------------------------------------
 BYTE   GoTo
  POIN2 Label_546E4E
 BYTE   FINE

//**************** Track 5 (Midi-Chn.4) ****************//

FE11OffToWarREALxViPerZ_005:
//  #05 //000   ----------------------------------------
 BYTE   KEYSH   FE11OffToWarREALxViPerZ_key+0
Label_5473BE:
 BYTE   VOICE   4
 BYTE   MODT 0
 BYTE   LFOS 44
 BYTE   VOL   70*FE11OffToWarREALxViPerZ_mvl/mxv
 BYTE   PAN   c_v+21
 BYTE   BEND   c_v+0
 BYTE   N92  Cn5  v022
 BYTE   W96
//  #05 //001   ----------------------------------------
 BYTE   As4
 BYTE   W96
//  #05 //002   ----------------------------------------
 BYTE   Gs4
 BYTE   W96
//  #05 //003   ----------------------------------------
 BYTE   Gn4
 BYTE   W96
//  #05 //004   ----------------------------------------
 BYTE   Cn5
 BYTE   W96
//  #05 //005   ----------------------------------------
 BYTE   As4
 BYTE   W96
//  #05 //006   ----------------------------------------
 BYTE   Gs4
 BYTE   W96
//  #05 //007   ----------------------------------------
 BYTE   Gn4
 BYTE   W96
//  #05 //008   ----------------------------------------
 BYTE   Fn4
 BYTE   W96
//  #05 //009   ----------------------------------------
 BYTE   Gn4
 BYTE   W96
//  #05 //010   ----------------------------------------
 BYTE   Gs4
 BYTE   W96
//  #05 //011   ----------------------------------------
 BYTE   As4
 BYTE   W96
//  #05 //012   ----------------------------------------
 BYTE   W96
//  #05 //013   ----------------------------------------
 BYTE   W96
//  #05 //014   ----------------------------------------
 BYTE   W96
//  #05 //015   ----------------------------------------
 BYTE   W96
//  #05 //016   ----------------------------------------
 BYTE   Ds4
 BYTE   W96
//  #05 //017   ----------------------------------------
 BYTE   Fn4
 BYTE   W96
//  #05 //018   ----------------------------------------
 BYTE   Fs4
 BYTE   W96
//  #05 //019   ----------------------------------------
 BYTE   Gs4
 BYTE   W96
//  #05 //020   ----------------------------------------
 BYTE   TIE  As4
 BYTE   W96
//  #05 //021   ----------------------------------------
 BYTE   W44
 BYTE   W03
 BYTE   EOT
 BYTE   W48
 BYTE   W01
//  #05 //022   ----------------------------------------
 BYTE   GoTo
  POIN2 Label_5473BE
 BYTE   FINE

//**************** Track 6 (Midi-Chn.5) ****************//

FE11OffToWarREALxViPerZ_006:
//  #06 //000   ----------------------------------------
 BYTE   KEYSH   FE11OffToWarREALxViPerZ_key+0
Label_547092:
 BYTE   VOICE   48
 BYTE   MODT 0
 BYTE   LFOS 44
 BYTE   PAN   c_v+45
 BYTE   VOL   111*FE11OffToWarREALxViPerZ_mvl/mxv
 BYTE   BEND   c_v+0
 BYTE   N92  Gn3  v009
 BYTE   W96
//  #06 //001   ----------------------------------------
 BYTE   Fn3
 BYTE   W96
//  #06 //002   ----------------------------------------
 BYTE   Ds3
 BYTE   W96
//  #06 //003   ----------------------------------------
 BYTE   Dn3
 BYTE   W96
//  #06 //004   ----------------------------------------
 BYTE   Gn3
 BYTE   W96
//  #06 //005   ----------------------------------------
 BYTE   Fn3
 BYTE   W96
//  #06 //006   ----------------------------------------
 BYTE   Ds3
 BYTE   W96
//  #06 //007   ----------------------------------------
 BYTE   Dn3
 BYTE   W30
 BYTE   W01
 BYTE   VOL   111*FE11OffToWarREALxViPerZ_mvl/mxv
 BYTE   W03
 BYTE   VOL   111*FE11OffToWarREALxViPerZ_mvl/mxv
 BYTE   W03
 BYTE   VOL   110*FE11OffToWarREALxViPerZ_mvl/mxv
 BYTE   W03
 BYTE   VOL   109*FE11OffToWarREALxViPerZ_mvl/mxv
 BYTE   W03
 BYTE   VOL   109*FE11OffToWarREALxViPerZ_mvl/mxv
 BYTE   W03
 BYTE   VOL   109*FE11OffToWarREALxViPerZ_mvl/mxv
 BYTE   W03
 BYTE   VOL   107*FE11OffToWarREALxViPerZ_mvl/mxv
 BYTE   W03
 BYTE   VOL   107*FE11OffToWarREALxViPerZ_mvl/mxv
 BYTE   W03
 BYTE   VOL   106*FE11OffToWarREALxViPerZ_mvl/mxv
 BYTE   W03
 BYTE   VOL   106*FE11OffToWarREALxViPerZ_mvl/mxv
 BYTE   W03
 BYTE   VOL   105*FE11OffToWarREALxViPerZ_mvl/mxv
 BYTE   W03
 BYTE   VOL   105*FE11OffToWarREALxViPerZ_mvl/mxv
 BYTE   W03
 BYTE   VOL   104*FE11OffToWarREALxViPerZ_mvl/mxv
 BYTE   W03
 BYTE   VOL   104*FE11OffToWarREALxViPerZ_mvl/mxv
 BYTE   W03
 BYTE   VOL   104*FE11OffToWarREALxViPerZ_mvl/mxv
 BYTE   W03
 BYTE   VOL   104*FE11OffToWarREALxViPerZ_mvl/mxv
 BYTE   W03
 BYTE   VOL   103*FE11OffToWarREALxViPerZ_mvl/mxv
 BYTE   W03
 BYTE   VOL   102*FE11OffToWarREALxViPerZ_mvl/mxv
 BYTE   W03
 BYTE   VOL   102*FE11OffToWarREALxViPerZ_mvl/mxv
 BYTE   W03
 BYTE   VOL   102*FE11OffToWarREALxViPerZ_mvl/mxv
 BYTE   W03
 BYTE   VOL   101*FE11OffToWarREALxViPerZ_mvl/mxv
 BYTE   W03
 BYTE   VOL   101*FE11OffToWarREALxViPerZ_mvl/mxv
 BYTE   W02
//  #06 //008   ----------------------------------------
 BYTE   N92  Cn1  v021
 BYTE   N92  Gs3
 BYTE   W01
 BYTE   VOL   101*FE11OffToWarREALxViPerZ_mvl/mxv
 BYTE   W03
 BYTE   VOL   100*FE11OffToWarREALxViPerZ_mvl/mxv
 BYTE   W03
 BYTE   VOL   100*FE11OffToWarREALxViPerZ_mvl/mxv
 BYTE   W14
 BYTE   VOL   100*FE11OffToWarREALxViPerZ_mvl/mxv
 BYTE   W06
 BYTE   VOL   100*FE11OffToWarREALxViPerZ_mvl/mxv
 BYTE   W07
 BYTE   VOL   100*FE11OffToWarREALxViPerZ_mvl/mxv
 BYTE   W07
 BYTE   VOL   101*FE11OffToWarREALxViPerZ_mvl/mxv
 BYTE   W07
 BYTE   VOL   101*FE11OffToWarREALxViPerZ_mvl/mxv
 BYTE   W07
 BYTE   VOL   101*FE11OffToWarREALxViPerZ_mvl/mxv
 BYTE   W06
 BYTE   VOL   101*FE11OffToWarREALxViPerZ_mvl/mxv
 BYTE   W07
 BYTE   VOL   102*FE11OffToWarREALxViPerZ_mvl/mxv
 BYTE   W07
 BYTE   VOL   102*FE11OffToWarREALxViPerZ_mvl/mxv
 BYTE   W07
 BYTE   VOL   102*FE11OffToWarREALxViPerZ_mvl/mxv
 BYTE   W06
 BYTE   VOL   102*FE11OffToWarREALxViPerZ_mvl/mxv
 BYTE   W07
 BYTE   VOL   102*FE11OffToWarREALxViPerZ_mvl/mxv
 BYTE   W01
//  #06 //009   ----------------------------------------
 BYTE   N92  Dn1
 BYTE   N92  As3
 BYTE   W06
 BYTE   VOL   102*FE11OffToWarREALxViPerZ_mvl/mxv
 BYTE   W07
 BYTE   VOL   103*FE11OffToWarREALxViPerZ_mvl/mxv
 BYTE   W07
 BYTE   VOL   103*FE11OffToWarREALxViPerZ_mvl/mxv
 BYTE   W06
 BYTE   VOL   104*FE11OffToWarREALxViPerZ_mvl/mxv
 BYTE   W07
 BYTE   VOL   104*FE11OffToWarREALxViPerZ_mvl/mxv
 BYTE   W07
 BYTE   VOL   104*FE11OffToWarREALxViPerZ_mvl/mxv
 BYTE   W07
 BYTE   VOL   104*FE11OffToWarREALxViPerZ_mvl/mxv
 BYTE   W06
 BYTE   VOL   104*FE11OffToWarREALxViPerZ_mvl/mxv
 BYTE   W07
 BYTE   VOL   104*FE11OffToWarREALxViPerZ_mvl/mxv
 BYTE   W07
 BYTE   VOL   105*FE11OffToWarREALxViPerZ_mvl/mxv
 BYTE   W07
 BYTE   VOL   105*FE11OffToWarREALxViPerZ_mvl/mxv
 BYTE   W07
 BYTE   VOL   105*FE11OffToWarREALxViPerZ_mvl/mxv
 BYTE   W06
 BYTE   VOL   105*FE11OffToWarREALxViPerZ_mvl/mxv
 BYTE   W07
 BYTE   VOL   105*FE11OffToWarREALxViPerZ_mvl/mxv
 BYTE   W02
//  #06 //010   ----------------------------------------
 BYTE   N92  Ds1
 BYTE   N92  Cn4
 BYTE   W05
 BYTE   VOL   106*FE11OffToWarREALxViPerZ_mvl/mxv
 BYTE   W07
 BYTE   VOL   106*FE11OffToWarREALxViPerZ_mvl/mxv
 BYTE   W07
 BYTE   VOL   107*FE11OffToWarREALxViPerZ_mvl/mxv
 BYTE   W06
 BYTE   VOL   107*FE11OffToWarREALxViPerZ_mvl/mxv
 BYTE   W07
 BYTE   VOL   107*FE11OffToWarREALxViPerZ_mvl/mxv
 BYTE   W07
 BYTE   VOL   107*FE11OffToWarREALxViPerZ_mvl/mxv
 BYTE   W07
 BYTE   VOL   108*FE11OffToWarREALxViPerZ_mvl/mxv
 BYTE   W06
 BYTE   VOL   109*FE11OffToWarREALxViPerZ_mvl/mxv
 BYTE   W07
 BYTE   VOL   109*FE11OffToWarREALxViPerZ_mvl/mxv
 BYTE   W07
 BYTE   VOL   109*FE11OffToWarREALxViPerZ_mvl/mxv
 BYTE   W07
 BYTE   VOL   109*FE11OffToWarREALxViPerZ_mvl/mxv
 BYTE   W07
 BYTE   VOL   109*FE11OffToWarREALxViPerZ_mvl/mxv
 BYTE   W06
 BYTE   VOL   110*FE11OffToWarREALxViPerZ_mvl/mxv
 BYTE   W07
 BYTE   VOL   111*FE11OffToWarREALxViPerZ_mvl/mxv
 BYTE   W03
//  #06 //011   ----------------------------------------
 BYTE   N44  Fn1
 BYTE   N44  Dn4
 BYTE   W04
 BYTE   VOL   111*FE11OffToWarREALxViPerZ_mvl/mxv
 BYTE   W07
 BYTE   VOL   111*FE11OffToWarREALxViPerZ_mvl/mxv
 BYTE   W07
 BYTE   VOL   112*FE11OffToWarREALxViPerZ_mvl/mxv
 BYTE   W30
 BYTE   N03  Ds4
 BYTE   W06
 BYTE   N06  Gn4
 BYTE   W06
 BYTE   As4
 BYTE   W12
 BYTE   Fn4
 BYTE   W06
 BYTE   An4
 BYTE   W05
 BYTE   Ds5
 BYTE   W13
//  #06 //012   ----------------------------------------
 BYTE   TIE  As3  v013
 BYTE   N02  Ds5  v009
 BYTE   W06
 BYTE   N10
 BYTE   W02
 BYTE   VOL   112*FE11OffToWarREALxViPerZ_mvl/mxv
 BYTE   W01
 BYTE   VOL   112*FE11OffToWarREALxViPerZ_mvl/mxv
 BYTE   W02
 BYTE   VOL   111*FE11OffToWarREALxViPerZ_mvl/mxv
 BYTE   W01
 BYTE   VOL   111*FE11OffToWarREALxViPerZ_mvl/mxv
 BYTE   W02
 BYTE   VOL   109*FE11OffToWarREALxViPerZ_mvl/mxv
 BYTE   W01
 BYTE   VOL   109*FE11OffToWarREALxViPerZ_mvl/mxv
 BYTE   W02
 BYTE   VOL   109*FE11OffToWarREALxViPerZ_mvl/mxv
 BYTE   W01
 BYTE   VOL   109*FE11OffToWarREALxViPerZ_mvl/mxv
 BYTE   W02
 BYTE   VOL   107*FE11OffToWarREALxViPerZ_mvl/mxv
 BYTE   W01
 BYTE   VOL   107*FE11OffToWarREALxViPerZ_mvl/mxv
 BYTE   W02
 BYTE   VOL   107*FE11OffToWarREALxViPerZ_mvl/mxv
 BYTE   W01
 BYTE   VOL   106*FE11OffToWarREALxViPerZ_mvl/mxv
 BYTE   W02
 BYTE   VOL   105*FE11OffToWarREALxViPerZ_mvl/mxv
 BYTE   W01
 BYTE   VOL   105*FE11OffToWarREALxViPerZ_mvl/mxv
 BYTE   W02
 BYTE   VOL   105*FE11OffToWarREALxViPerZ_mvl/mxv
 BYTE   W01
 BYTE   VOL   104*FE11OffToWarREALxViPerZ_mvl/mxv
 BYTE   W02
 BYTE   VOL   104*FE11OffToWarREALxViPerZ_mvl/mxv
 BYTE   W01
 BYTE   VOL   104*FE11OffToWarREALxViPerZ_mvl/mxv
 BYTE   W02
 BYTE   VOL   104*FE11OffToWarREALxViPerZ_mvl/mxv
 BYTE   W01
 BYTE   VOL   103*FE11OffToWarREALxViPerZ_mvl/mxv
 BYTE   W02
 BYTE   VOL   103*FE11OffToWarREALxViPerZ_mvl/mxv
 BYTE   W01
 BYTE   VOL   102*FE11OffToWarREALxViPerZ_mvl/mxv
 BYTE   W02
 BYTE   VOL   102*FE11OffToWarREALxViPerZ_mvl/mxv
 BYTE   W01
 BYTE   VOL   102*FE11OffToWarREALxViPerZ_mvl/mxv
 BYTE   W02
 BYTE   VOL   102*FE11OffToWarREALxViPerZ_mvl/mxv
 BYTE   W01
 BYTE   VOL   101*FE11OffToWarREALxViPerZ_mvl/mxv
 BYTE   W02
 BYTE   VOL   101*FE11OffToWarREALxViPerZ_mvl/mxv
 BYTE   W01
 BYTE   VOL   100*FE11OffToWarREALxViPerZ_mvl/mxv
 BYTE   W02
 BYTE   VOL   100*FE11OffToWarREALxViPerZ_mvl/mxv
 BYTE   W01
 BYTE   VOL   100*FE11OffToWarREALxViPerZ_mvl/mxv
 BYTE   W02
 BYTE   VOL   100*FE11OffToWarREALxViPerZ_mvl/mxv
 BYTE   W01
 BYTE   VOL   100*FE11OffToWarREALxViPerZ_mvl/mxv
 BYTE   W01
 BYTE   VOL   100*FE11OffToWarREALxViPerZ_mvl/mxv
 BYTE   W03
 BYTE   VOL   100*FE11OffToWarREALxViPerZ_mvl/mxv
 BYTE   W03
 BYTE   VOL   100*FE11OffToWarREALxViPerZ_mvl/mxv
 BYTE   W03
 BYTE   VOL   100*FE11OffToWarREALxViPerZ_mvl/mxv
 BYTE   W03
 BYTE   VOL   100*FE11OffToWarREALxViPerZ_mvl/mxv
 BYTE   W03
 BYTE   VOL   100*FE11OffToWarREALxViPerZ_mvl/mxv
 BYTE   W03
 BYTE   VOL   101*FE11OffToWarREALxViPerZ_mvl/mxv
 BYTE   W03
 BYTE   VOL   101*FE11OffToWarREALxViPerZ_mvl/mxv
 BYTE   W03
 BYTE   VOL   101*FE11OffToWarREALxViPerZ_mvl/mxv
 BYTE   W03
 BYTE   VOL   102*FE11OffToWarREALxViPerZ_mvl/mxv
 BYTE   W03
 BYTE   VOL   102*FE11OffToWarREALxViPerZ_mvl/mxv
 BYTE   W03
 BYTE   VOL   102*FE11OffToWarREALxViPerZ_mvl/mxv
 BYTE   W03
 BYTE   VOL   102*FE11OffToWarREALxViPerZ_mvl/mxv
 BYTE   W03
 BYTE   VOL   102*FE11OffToWarREALxViPerZ_mvl/mxv
 BYTE   W02
//  #06 //013   ----------------------------------------
 BYTE   W01
 BYTE   VOL   103*FE11OffToWarREALxViPerZ_mvl/mxv
 BYTE   W03
 BYTE   VOL   104*FE11OffToWarREALxViPerZ_mvl/mxv
 BYTE   W03
 BYTE   VOL   104*FE11OffToWarREALxViPerZ_mvl/mxv
 BYTE   W03
 BYTE   VOL   104*FE11OffToWarREALxViPerZ_mvl/mxv
 BYTE   W03
 BYTE   VOL   104*FE11OffToWarREALxViPerZ_mvl/mxv
 BYTE   W03
 BYTE   VOL   105*FE11OffToWarREALxViPerZ_mvl/mxv
 BYTE   W03
 BYTE   VOL   105*FE11OffToWarREALxViPerZ_mvl/mxv
 BYTE   W03
 BYTE   VOL   105*FE11OffToWarREALxViPerZ_mvl/mxv
 BYTE   W03
 BYTE   VOL   105*FE11OffToWarREALxViPerZ_mvl/mxv
 BYTE   W03
 BYTE   VOL   106*FE11OffToWarREALxViPerZ_mvl/mxv
 BYTE   W03
 BYTE   VOL   107*FE11OffToWarREALxViPerZ_mvl/mxv
 BYTE   W03
 BYTE   VOL   107*FE11OffToWarREALxViPerZ_mvl/mxv
 BYTE   W03
 BYTE   VOL   107*FE11OffToWarREALxViPerZ_mvl/mxv
 BYTE   W03
 BYTE   VOL   108*FE11OffToWarREALxViPerZ_mvl/mxv
 BYTE   W03
 BYTE   VOL   109*FE11OffToWarREALxViPerZ_mvl/mxv
 BYTE   W03
 BYTE   VOL   109*FE11OffToWarREALxViPerZ_mvl/mxv
 BYTE   W01
 BYTE   EOT
 BYTE   As3
 BYTE   W01
 BYTE   VOL   109*FE11OffToWarREALxViPerZ_mvl/mxv
 BYTE   N44  Gs3  v013
 BYTE   W03
 BYTE   VOL   109*FE11OffToWarREALxViPerZ_mvl/mxv
 BYTE   W03
 BYTE   VOL   108*FE11OffToWarREALxViPerZ_mvl/mxv
 BYTE   W03
 BYTE   VOL   107*FE11OffToWarREALxViPerZ_mvl/mxv
 BYTE   W03
 BYTE   VOL   107*FE11OffToWarREALxViPerZ_mvl/mxv
 BYTE   W03
 BYTE   VOL   106*FE11OffToWarREALxViPerZ_mvl/mxv
 BYTE   W03
 BYTE   VOL   105*FE11OffToWarREALxViPerZ_mvl/mxv
 BYTE   W03
 BYTE   VOL   105*FE11OffToWarREALxViPerZ_mvl/mxv
 BYTE   W03
 BYTE   VOL   104*FE11OffToWarREALxViPerZ_mvl/mxv
 BYTE   W03
 BYTE   VOL   104*FE11OffToWarREALxViPerZ_mvl/mxv
 BYTE   W03
 BYTE   VOL   104*FE11OffToWarREALxViPerZ_mvl/mxv
 BYTE   W03
 BYTE   VOL   103*FE11OffToWarREALxViPerZ_mvl/mxv
 BYTE   W03
 BYTE   VOL   102*FE11OffToWarREALxViPerZ_mvl/mxv
 BYTE   W03
 BYTE   VOL   102*FE11OffToWarREALxViPerZ_mvl/mxv
 BYTE   W03
 BYTE   VOL   102*FE11OffToWarREALxViPerZ_mvl/mxv
 BYTE   W03
 BYTE   VOL   101*FE11OffToWarREALxViPerZ_mvl/mxv
 BYTE   W01
 BYTE   VOL   101*FE11OffToWarREALxViPerZ_mvl/mxv
 BYTE   W02
//  #06 //014   ----------------------------------------
 BYTE   N44  As3
 BYTE   W01
 BYTE   VOL   101*FE11OffToWarREALxViPerZ_mvl/mxv
 BYTE   W03
 BYTE   VOL   101*FE11OffToWarREALxViPerZ_mvl/mxv
 BYTE   W03
 BYTE   VOL   102*FE11OffToWarREALxViPerZ_mvl/mxv
 BYTE   W03
 BYTE   VOL   102*FE11OffToWarREALxViPerZ_mvl/mxv
 BYTE   W03
 BYTE   VOL   102*FE11OffToWarREALxViPerZ_mvl/mxv
 BYTE   W03
 BYTE   VOL   103*FE11OffToWarREALxViPerZ_mvl/mxv
 BYTE   W03
 BYTE   VOL   104*FE11OffToWarREALxViPerZ_mvl/mxv
 BYTE   W03
 BYTE   VOL   104*FE11OffToWarREALxViPerZ_mvl/mxv
 BYTE   W03
 BYTE   VOL   104*FE11OffToWarREALxViPerZ_mvl/mxv
 BYTE   W03
 BYTE   VOL   104*FE11OffToWarREALxViPerZ_mvl/mxv
 BYTE   W03
 BYTE   VOL   105*FE11OffToWarREALxViPerZ_mvl/mxv
 BYTE   W03
 BYTE   VOL   105*FE11OffToWarREALxViPerZ_mvl/mxv
 BYTE   W03
 BYTE   VOL   105*FE11OffToWarREALxViPerZ_mvl/mxv
 BYTE   W03
 BYTE   VOL   106*FE11OffToWarREALxViPerZ_mvl/mxv
 BYTE   W03
 BYTE   VOL   107*FE11OffToWarREALxViPerZ_mvl/mxv
 BYTE   W03
 BYTE   VOL   107*FE11OffToWarREALxViPerZ_mvl/mxv
 BYTE   W02
 BYTE   N44  Cs4
 BYTE   W01
 BYTE   VOL   108*FE11OffToWarREALxViPerZ_mvl/mxv
 BYTE   W03
 BYTE   VOL   109*FE11OffToWarREALxViPerZ_mvl/mxv
 BYTE   W10
 BYTE   VOL   109*FE11OffToWarREALxViPerZ_mvl/mxv
 BYTE   W05
 BYTE   VOL   108*FE11OffToWarREALxViPerZ_mvl/mxv
 BYTE   W06
 BYTE   VOL   107*FE11OffToWarREALxViPerZ_mvl/mxv
 BYTE   W05
 BYTE   VOL   107*FE11OffToWarREALxViPerZ_mvl/mxv
 BYTE   W05
 BYTE   VOL   107*FE11OffToWarREALxViPerZ_mvl/mxv
 BYTE   W05
 BYTE   VOL   107*FE11OffToWarREALxViPerZ_mvl/mxv
 BYTE   W05
 BYTE   VOL   106*FE11OffToWarREALxViPerZ_mvl/mxv
 BYTE   W03
//  #06 //015   ----------------------------------------
 BYTE   N44  Cn4
 BYTE   W02
 BYTE   VOL   106*FE11OffToWarREALxViPerZ_mvl/mxv
 BYTE   W05
 BYTE   VOL   105*FE11OffToWarREALxViPerZ_mvl/mxv
 BYTE   W05
 BYTE   VOL   105*FE11OffToWarREALxViPerZ_mvl/mxv
 BYTE   W05
 BYTE   VOL   105*FE11OffToWarREALxViPerZ_mvl/mxv
 BYTE   W05
 BYTE   VOL   105*FE11OffToWarREALxViPerZ_mvl/mxv
 BYTE   W05
 BYTE   VOL   105*FE11OffToWarREALxViPerZ_mvl/mxv
 BYTE   W05
 BYTE   VOL   104*FE11OffToWarREALxViPerZ_mvl/mxv
 BYTE   W05
 BYTE   VOL   104*FE11OffToWarREALxViPerZ_mvl/mxv
 BYTE   W05
 BYTE   VOL   104*FE11OffToWarREALxViPerZ_mvl/mxv
 BYTE   W05
 BYTE   VOL   104*FE11OffToWarREALxViPerZ_mvl/mxv
 BYTE   W01
 BYTE   N44  Gs3
 BYTE   W04
 BYTE   VOL   104*FE11OffToWarREALxViPerZ_mvl/mxv
 BYTE   W05
 BYTE   VOL   104*FE11OffToWarREALxViPerZ_mvl/mxv
 BYTE   W05
 BYTE   VOL   103*FE11OffToWarREALxViPerZ_mvl/mxv
 BYTE   W05
 BYTE   VOL   103*FE11OffToWarREALxViPerZ_mvl/mxv
 BYTE   W05
 BYTE   VOL   102*FE11OffToWarREALxViPerZ_mvl/mxv
 BYTE   W06
 BYTE   VOL   102*FE11OffToWarREALxViPerZ_mvl/mxv
 BYTE   W05
 BYTE   VOL   102*FE11OffToWarREALxViPerZ_mvl/mxv
 BYTE   W05
 BYTE   VOL   102*FE11OffToWarREALxViPerZ_mvl/mxv
 BYTE   W05
 BYTE   VOL   102*FE11OffToWarREALxViPerZ_mvl/mxv
 BYTE   W03
//  #06 //016   ----------------------------------------
 BYTE   TIE  As3
 BYTE   W02
 BYTE   VOL   102*FE11OffToWarREALxViPerZ_mvl/mxv
 BYTE   W05
 BYTE   VOL   101*FE11OffToWarREALxViPerZ_mvl/mxv
 BYTE   W09
 BYTE   VOL   101*FE11OffToWarREALxViPerZ_mvl/mxv
 BYTE   W05
 BYTE   VOL   102*FE11OffToWarREALxViPerZ_mvl/mxv
 BYTE   W05
 BYTE   VOL   102*FE11OffToWarREALxViPerZ_mvl/mxv
 BYTE   W04
 BYTE   VOL   102*FE11OffToWarREALxViPerZ_mvl/mxv
 BYTE   W05
 BYTE   VOL   102*FE11OffToWarREALxViPerZ_mvl/mxv
 BYTE   W05
 BYTE   VOL   102*FE11OffToWarREALxViPerZ_mvl/mxv
 BYTE   W04
 BYTE   VOL   102*FE11OffToWarREALxViPerZ_mvl/mxv
 BYTE   W05
 BYTE   VOL   103*FE11OffToWarREALxViPerZ_mvl/mxv
 BYTE   W05
 BYTE   VOL   103*FE11OffToWarREALxViPerZ_mvl/mxv
 BYTE   W05
 BYTE   VOL   104*FE11OffToWarREALxViPerZ_mvl/mxv
 BYTE   W04
 BYTE   VOL   104*FE11OffToWarREALxViPerZ_mvl/mxv
 BYTE   W05
 BYTE   VOL   104*FE11OffToWarREALxViPerZ_mvl/mxv
 BYTE   W05
 BYTE   VOL   104*FE11OffToWarREALxViPerZ_mvl/mxv
 BYTE   W04
 BYTE   VOL   104*FE11OffToWarREALxViPerZ_mvl/mxv
 BYTE   W05
 BYTE   VOL   104*FE11OffToWarREALxViPerZ_mvl/mxv
 BYTE   W05
 BYTE   VOL   105*FE11OffToWarREALxViPerZ_mvl/mxv
 BYTE   W05
 BYTE   VOL   105*FE11OffToWarREALxViPerZ_mvl/mxv
 BYTE   W04
//  #06 //017   ----------------------------------------
 BYTE   VOL   105*FE11OffToWarREALxViPerZ_mvl/mxv
 BYTE   W05
 BYTE   VOL   105*FE11OffToWarREALxViPerZ_mvl/mxv
 BYTE   W05
 BYTE   VOL   105*FE11OffToWarREALxViPerZ_mvl/mxv
 BYTE   W05
 BYTE   VOL   106*FE11OffToWarREALxViPerZ_mvl/mxv
 BYTE   W04
 BYTE   VOL   106*FE11OffToWarREALxViPerZ_mvl/mxv
 BYTE   W05
 BYTE   VOL   107*FE11OffToWarREALxViPerZ_mvl/mxv
 BYTE   W05
 BYTE   VOL   107*FE11OffToWarREALxViPerZ_mvl/mxv
 BYTE   W04
 BYTE   VOL   107*FE11OffToWarREALxViPerZ_mvl/mxv
 BYTE   W05
 BYTE   VOL   107*FE11OffToWarREALxViPerZ_mvl/mxv
 BYTE   W05
 BYTE   VOL   108*FE11OffToWarREALxViPerZ_mvl/mxv
 BYTE   W04
 BYTE   EOT
 BYTE   W01
 BYTE   VOL   109*FE11OffToWarREALxViPerZ_mvl/mxv
 BYTE   N44  Gs3
 BYTE   W03
 BYTE   VOL   109*FE11OffToWarREALxViPerZ_mvl/mxv
 BYTE   W03
 BYTE   VOL   108*FE11OffToWarREALxViPerZ_mvl/mxv
 BYTE   W03
 BYTE   VOL   107*FE11OffToWarREALxViPerZ_mvl/mxv
 BYTE   W03
 BYTE   VOL   107*FE11OffToWarREALxViPerZ_mvl/mxv
 BYTE   W03
 BYTE   VOL   106*FE11OffToWarREALxViPerZ_mvl/mxv
 BYTE   W03
 BYTE   VOL   106*FE11OffToWarREALxViPerZ_mvl/mxv
 BYTE   W03
 BYTE   VOL   105*FE11OffToWarREALxViPerZ_mvl/mxv
 BYTE   W03
 BYTE   VOL   105*FE11OffToWarREALxViPerZ_mvl/mxv
 BYTE   W03
 BYTE   VOL   105*FE11OffToWarREALxViPerZ_mvl/mxv
 BYTE   W03
 BYTE   VOL   104*FE11OffToWarREALxViPerZ_mvl/mxv
 BYTE   W03
 BYTE   VOL   104*FE11OffToWarREALxViPerZ_mvl/mxv
 BYTE   W03
 BYTE   VOL   104*FE11OffToWarREALxViPerZ_mvl/mxv
 BYTE   W03
 BYTE   VOL   104*FE11OffToWarREALxViPerZ_mvl/mxv
 BYTE   W03
 BYTE   VOL   103*FE11OffToWarREALxViPerZ_mvl/mxv
 BYTE   W03
 BYTE   VOL   103*FE11OffToWarREALxViPerZ_mvl/mxv
 BYTE   W03
//  #06 //018   ----------------------------------------
 BYTE   VOL   102*FE11OffToWarREALxViPerZ_mvl/mxv
 BYTE   N44  As3
 BYTE   W02
 BYTE   VOL   102*FE11OffToWarREALxViPerZ_mvl/mxv
 BYTE   W14
 BYTE   VOL   102*FE11OffToWarREALxViPerZ_mvl/mxv
 BYTE   W07
 BYTE   VOL   102*FE11OffToWarREALxViPerZ_mvl/mxv
 BYTE   W07
 BYTE   VOL   103*FE11OffToWarREALxViPerZ_mvl/mxv
 BYTE   W07
 BYTE   VOL   103*FE11OffToWarREALxViPerZ_mvl/mxv
 BYTE   W07
 BYTE   VOL   104*FE11OffToWarREALxViPerZ_mvl/mxv
 BYTE   W04
 BYTE   N44  Cs4
 BYTE   W03
 BYTE   VOL   104*FE11OffToWarREALxViPerZ_mvl/mxv
 BYTE   W07
 BYTE   VOL   104*FE11OffToWarREALxViPerZ_mvl/mxv
 BYTE   W07
 BYTE   VOL   104*FE11OffToWarREALxViPerZ_mvl/mxv
 BYTE   W07
 BYTE   VOL   104*FE11OffToWarREALxViPerZ_mvl/mxv
 BYTE   W07
 BYTE   VOL   104*FE11OffToWarREALxViPerZ_mvl/mxv
 BYTE   W07
 BYTE   VOL   105*FE11OffToWarREALxViPerZ_mvl/mxv
 BYTE   W07
 BYTE   VOL   105*FE11OffToWarREALxViPerZ_mvl/mxv
 BYTE   W03
//  #06 //019   ----------------------------------------
 BYTE   N44  Cn4
 BYTE   W04
 BYTE   VOL   105*FE11OffToWarREALxViPerZ_mvl/mxv
 BYTE   W07
 BYTE   VOL   105*FE11OffToWarREALxViPerZ_mvl/mxv
 BYTE   W07
 BYTE   VOL   105*FE11OffToWarREALxViPerZ_mvl/mxv
 BYTE   W07
 BYTE   VOL   106*FE11OffToWarREALxViPerZ_mvl/mxv
 BYTE   W07
 BYTE   VOL   106*FE11OffToWarREALxViPerZ_mvl/mxv
 BYTE   W07
 BYTE   VOL   107*FE11OffToWarREALxViPerZ_mvl/mxv
 BYTE   W06
 BYTE   VOL   107*FE11OffToWarREALxViPerZ_mvl/mxv
 BYTE   W03
 BYTE   N44  Ds4
 BYTE   W04
 BYTE   VOL   107*FE11OffToWarREALxViPerZ_mvl/mxv
 BYTE   W07
 BYTE   VOL   107*FE11OffToWarREALxViPerZ_mvl/mxv
 BYTE   W07
 BYTE   VOL   108*FE11OffToWarREALxViPerZ_mvl/mxv
 BYTE   W07
 BYTE   VOL   109*FE11OffToWarREALxViPerZ_mvl/mxv
 BYTE   W07
 BYTE   VOL   109*FE11OffToWarREALxViPerZ_mvl/mxv
 BYTE   W07
 BYTE   VOL   109*FE11OffToWarREALxViPerZ_mvl/mxv
 BYTE   W07
 BYTE   VOL   109*FE11OffToWarREALxViPerZ_mvl/mxv
 BYTE   W02
//  #06 //020   ----------------------------------------
 BYTE   TIE  Fn4
 BYTE   W05
 BYTE   VOL   109*FE11OffToWarREALxViPerZ_mvl/mxv
 BYTE   W03
 BYTE   VOL   109*FE11OffToWarREALxViPerZ_mvl/mxv
 BYTE   W04
 BYTE   VOL   109*FE11OffToWarREALxViPerZ_mvl/mxv
 BYTE   W03
 BYTE   VOL   109*FE11OffToWarREALxViPerZ_mvl/mxv
 BYTE   W04
 BYTE   VOL   108*FE11OffToWarREALxViPerZ_mvl/mxv
 BYTE   W03
 BYTE   VOL   107*FE11OffToWarREALxViPerZ_mvl/mxv
 BYTE   W03
 BYTE   VOL   107*FE11OffToWarREALxViPerZ_mvl/mxv
 BYTE   W04
 BYTE   VOL   107*FE11OffToWarREALxViPerZ_mvl/mxv
 BYTE   W03
 BYTE   VOL   107*FE11OffToWarREALxViPerZ_mvl/mxv
 BYTE   W04
 BYTE   VOL   106*FE11OffToWarREALxViPerZ_mvl/mxv
 BYTE   W03
 BYTE   VOL   106*FE11OffToWarREALxViPerZ_mvl/mxv
 BYTE   W03
 BYTE   VOL   105*FE11OffToWarREALxViPerZ_mvl/mxv
 BYTE   W04
 BYTE   VOL   105*FE11OffToWarREALxViPerZ_mvl/mxv
 BYTE   W03
 BYTE   VOL   105*FE11OffToWarREALxViPerZ_mvl/mxv
 BYTE   W03
 BYTE   VOL   105*FE11OffToWarREALxViPerZ_mvl/mxv
 BYTE   W04
 BYTE   VOL   105*FE11OffToWarREALxViPerZ_mvl/mxv
 BYTE   W03
 BYTE   VOL   104*FE11OffToWarREALxViPerZ_mvl/mxv
 BYTE   W04
 BYTE   VOL   104*FE11OffToWarREALxViPerZ_mvl/mxv
 BYTE   W03
 BYTE   VOL   104*FE11OffToWarREALxViPerZ_mvl/mxv
 BYTE   W03
 BYTE   VOL   104*FE11OffToWarREALxViPerZ_mvl/mxv
 BYTE   W03
 BYTE   VOL   103*FE11OffToWarREALxViPerZ_mvl/mxv
 BYTE   W03
 BYTE   VOL   102*FE11OffToWarREALxViPerZ_mvl/mxv
 BYTE   W03
 BYTE   VOL   102*FE11OffToWarREALxViPerZ_mvl/mxv
 BYTE   W03
 BYTE   VOL   102*FE11OffToWarREALxViPerZ_mvl/mxv
 BYTE   W03
 BYTE   VOL   101*FE11OffToWarREALxViPerZ_mvl/mxv
 BYTE   W03
 BYTE   VOL   101*FE11OffToWarREALxViPerZ_mvl/mxv
 BYTE   W03
 BYTE   VOL   100*FE11OffToWarREALxViPerZ_mvl/mxv
 BYTE   W03
 BYTE   VOL   100*FE11OffToWarREALxViPerZ_mvl/mxv
 BYTE   W03
//  #06 //021   ----------------------------------------
 BYTE   VOL   100*FE11OffToWarREALxViPerZ_mvl/mxv
 BYTE   W03
 BYTE   VOL   100*FE11OffToWarREALxViPerZ_mvl/mxv
 BYTE   W03
 BYTE   VOL   100*FE11OffToWarREALxViPerZ_mvl/mxv
 BYTE   W03
 BYTE   VOL   99*FE11OffToWarREALxViPerZ_mvl/mxv
 BYTE   W03
 BYTE   VOL   99*FE11OffToWarREALxViPerZ_mvl/mxv
 BYTE   W03
 BYTE   VOL   99*FE11OffToWarREALxViPerZ_mvl/mxv
 BYTE   W03
 BYTE   VOL   99*FE11OffToWarREALxViPerZ_mvl/mxv
 BYTE   W03
 BYTE   VOL   99*FE11OffToWarREALxViPerZ_mvl/mxv
 BYTE   W02
 BYTE   EOT
 BYTE   W01
 BYTE   VOL   99*FE11OffToWarREALxViPerZ_mvl/mxv
 BYTE   W02
 BYTE   VOL   99*FE11OffToWarREALxViPerZ_mvl/mxv
 BYTE   W03
 BYTE   VOL   99*FE11OffToWarREALxViPerZ_mvl/mxv
 BYTE   W03
 BYTE   VOL   99*FE11OffToWarREALxViPerZ_mvl/mxv
 BYTE   W03
 BYTE   VOL   99*FE11OffToWarREALxViPerZ_mvl/mxv
 BYTE   W03
 BYTE   VOL   99*FE11OffToWarREALxViPerZ_mvl/mxv
 BYTE   W03
 BYTE   VOL   99*FE11OffToWarREALxViPerZ_mvl/mxv
 BYTE   W01
 BYTE   VOL   99*FE11OffToWarREALxViPerZ_mvl/mxv
 BYTE   W01
 BYTE   VOL   100*FE11OffToWarREALxViPerZ_mvl/mxv
 BYTE   W01
 BYTE   VOL   102*FE11OffToWarREALxViPerZ_mvl/mxv
 BYTE   W01
 BYTE   VOL   104*FE11OffToWarREALxViPerZ_mvl/mxv
 BYTE   W01
 BYTE   VOL   107*FE11OffToWarREALxViPerZ_mvl/mxv
 BYTE   W01
 BYTE   VOL   109*FE11OffToWarREALxViPerZ_mvl/mxv
 BYTE   W01
 BYTE   VOL   111*FE11OffToWarREALxViPerZ_mvl/mxv
 BYTE   N04  Fs5  v021
 BYTE   W05
 BYTE   N05  Cs5
 BYTE   W06
 BYTE   Bn4
 BYTE   W06
 BYTE   Cs5
 BYTE   W07
 BYTE   N04  Bn4
 BYTE   W02
 BYTE   VOL   111*FE11OffToWarREALxViPerZ_mvl/mxv
 BYTE   W03
 BYTE   N05  Fs4
 BYTE   W06
 BYTE   Cs4
 BYTE   W08
 BYTE   Bn3
 BYTE   W05
//  #06 //022   ----------------------------------------
 BYTE   GoTo
  POIN2 Label_547092
 BYTE   FINE

//**************** Track 7 (Midi-Chn.6) ****************//

FE11OffToWarREALxViPerZ_007:
//  #07 //000   ----------------------------------------
 BYTE   KEYSH   FE11OffToWarREALxViPerZ_key+0
Label_01C7A3EA:
 BYTE   VOICE   48
 BYTE   MODT 0
 BYTE   LFOS 44
 BYTE   PAN   c_v-38
 BYTE   VOL   126*FE11OffToWarREALxViPerZ_mvl/mxv
 BYTE   BEND   c_v+0
 BYTE   N92  Cn3  v014
 BYTE   W96
//  #07 //001   ----------------------------------------
 BYTE   As2
 BYTE   W96
//  #07 //002   ----------------------------------------
 BYTE   Gs2
 BYTE   W96
//  #07 //003   ----------------------------------------
 BYTE   Gn2
 BYTE   W96
//  #07 //004   ----------------------------------------
 BYTE   Cn3
 BYTE   W96
//  #07 //005   ----------------------------------------
 BYTE   As2
 BYTE   W96
//  #07 //006   ----------------------------------------
 BYTE   Gs2
 BYTE   W96
//  #07 //007   ----------------------------------------
 BYTE   Gn2
 BYTE   W30
 BYTE   W01
 BYTE   VOL   126*FE11OffToWarREALxViPerZ_mvl/mxv
 BYTE   W03
 BYTE   VOL   126*FE11OffToWarREALxViPerZ_mvl/mxv
 BYTE   W03
 BYTE   VOL   125*FE11OffToWarREALxViPerZ_mvl/mxv
 BYTE   W03
 BYTE   VOL   124*FE11OffToWarREALxViPerZ_mvl/mxv
 BYTE   W03
 BYTE   VOL   124*FE11OffToWarREALxViPerZ_mvl/mxv
 BYTE   W03
 BYTE   VOL   124*FE11OffToWarREALxViPerZ_mvl/mxv
 BYTE   W03
 BYTE   VOL   122*FE11OffToWarREALxViPerZ_mvl/mxv
 BYTE   W03
 BYTE   VOL   122*FE11OffToWarREALxViPerZ_mvl/mxv
 BYTE   W03
 BYTE   VOL   121*FE11OffToWarREALxViPerZ_mvl/mxv
 BYTE   W03
 BYTE   VOL   121*FE11OffToWarREALxViPerZ_mvl/mxv
 BYTE   W03
 BYTE   VOL   120*FE11OffToWarREALxViPerZ_mvl/mxv
 BYTE   W03
 BYTE   VOL   120*FE11OffToWarREALxViPerZ_mvl/mxv
 BYTE   W03
 BYTE   VOL   119*FE11OffToWarREALxViPerZ_mvl/mxv
 BYTE   W03
 BYTE   VOL   119*FE11OffToWarREALxViPerZ_mvl/mxv
 BYTE   W03
 BYTE   VOL   119*FE11OffToWarREALxViPerZ_mvl/mxv
 BYTE   W03
 BYTE   VOL   119*FE11OffToWarREALxViPerZ_mvl/mxv
 BYTE   W03
 BYTE   VOL   118*FE11OffToWarREALxViPerZ_mvl/mxv
 BYTE   W03
 BYTE   VOL   117*FE11OffToWarREALxViPerZ_mvl/mxv
 BYTE   W03
 BYTE   VOL   117*FE11OffToWarREALxViPerZ_mvl/mxv
 BYTE   W03
 BYTE   VOL   117*FE11OffToWarREALxViPerZ_mvl/mxv
 BYTE   W03
 BYTE   VOL   116*FE11OffToWarREALxViPerZ_mvl/mxv
 BYTE   W03
 BYTE   VOL   116*FE11OffToWarREALxViPerZ_mvl/mxv
 BYTE   W02
//  #07 //008   ----------------------------------------
 BYTE   N92  Cn1  v026
 BYTE   N92  Fn2
 BYTE   W01
 BYTE   VOL   116*FE11OffToWarREALxViPerZ_mvl/mxv
 BYTE   W03
 BYTE   VOL   115*FE11OffToWarREALxViPerZ_mvl/mxv
 BYTE   W03
 BYTE   VOL   115*FE11OffToWarREALxViPerZ_mvl/mxv
 BYTE   W14
 BYTE   VOL   115*FE11OffToWarREALxViPerZ_mvl/mxv
 BYTE   W06
 BYTE   VOL   115*FE11OffToWarREALxViPerZ_mvl/mxv
 BYTE   W07
 BYTE   VOL   115*FE11OffToWarREALxViPerZ_mvl/mxv
 BYTE   W07
 BYTE   VOL   116*FE11OffToWarREALxViPerZ_mvl/mxv
 BYTE   W07
 BYTE   VOL   116*FE11OffToWarREALxViPerZ_mvl/mxv
 BYTE   W07
 BYTE   VOL   116*FE11OffToWarREALxViPerZ_mvl/mxv
 BYTE   W06
 BYTE   VOL   116*FE11OffToWarREALxViPerZ_mvl/mxv
 BYTE   W07
 BYTE   VOL   117*FE11OffToWarREALxViPerZ_mvl/mxv
 BYTE   W07
 BYTE   VOL   117*FE11OffToWarREALxViPerZ_mvl/mxv
 BYTE   W07
 BYTE   VOL   117*FE11OffToWarREALxViPerZ_mvl/mxv
 BYTE   W06
 BYTE   VOL   117*FE11OffToWarREALxViPerZ_mvl/mxv
 BYTE   W07
 BYTE   VOL   117*FE11OffToWarREALxViPerZ_mvl/mxv
 BYTE   W01
//  #07 //009   ----------------------------------------
 BYTE   N92  Dn1
 BYTE   N92  Gn2
 BYTE   W06
 BYTE   VOL   117*FE11OffToWarREALxViPerZ_mvl/mxv
 BYTE   W07
 BYTE   VOL   118*FE11OffToWarREALxViPerZ_mvl/mxv
 BYTE   W07
 BYTE   VOL   118*FE11OffToWarREALxViPerZ_mvl/mxv
 BYTE   W06
 BYTE   VOL   119*FE11OffToWarREALxViPerZ_mvl/mxv
 BYTE   W07
 BYTE   VOL   119*FE11OffToWarREALxViPerZ_mvl/mxv
 BYTE   W07
 BYTE   VOL   119*FE11OffToWarREALxViPerZ_mvl/mxv
 BYTE   W07
 BYTE   VOL   119*FE11OffToWarREALxViPerZ_mvl/mxv
 BYTE   W06
 BYTE   VOL   119*FE11OffToWarREALxViPerZ_mvl/mxv
 BYTE   W07
 BYTE   VOL   119*FE11OffToWarREALxViPerZ_mvl/mxv
 BYTE   W07
 BYTE   VOL   120*FE11OffToWarREALxViPerZ_mvl/mxv
 BYTE   W07
 BYTE   VOL   120*FE11OffToWarREALxViPerZ_mvl/mxv
 BYTE   W07
 BYTE   VOL   120*FE11OffToWarREALxViPerZ_mvl/mxv
 BYTE   W06
 BYTE   VOL   120*FE11OffToWarREALxViPerZ_mvl/mxv
 BYTE   W07
 BYTE   VOL   120*FE11OffToWarREALxViPerZ_mvl/mxv
 BYTE   W02
//  #07 //010   ----------------------------------------
 BYTE   N92  Ds1
 BYTE   N92  Gs2
 BYTE   W05
 BYTE   VOL   121*FE11OffToWarREALxViPerZ_mvl/mxv
 BYTE   W07
 BYTE   VOL   121*FE11OffToWarREALxViPerZ_mvl/mxv
 BYTE   W07
 BYTE   VOL   122*FE11OffToWarREALxViPerZ_mvl/mxv
 BYTE   W06
 BYTE   VOL   122*FE11OffToWarREALxViPerZ_mvl/mxv
 BYTE   W07
 BYTE   VOL   122*FE11OffToWarREALxViPerZ_mvl/mxv
 BYTE   W07
 BYTE   VOL   122*FE11OffToWarREALxViPerZ_mvl/mxv
 BYTE   W07
 BYTE   VOL   123*FE11OffToWarREALxViPerZ_mvl/mxv
 BYTE   W06
 BYTE   VOL   124*FE11OffToWarREALxViPerZ_mvl/mxv
 BYTE   W07
 BYTE   VOL   124*FE11OffToWarREALxViPerZ_mvl/mxv
 BYTE   W07
 BYTE   VOL   124*FE11OffToWarREALxViPerZ_mvl/mxv
 BYTE   W07
 BYTE   VOL   124*FE11OffToWarREALxViPerZ_mvl/mxv
 BYTE   W07
 BYTE   VOL   124*FE11OffToWarREALxViPerZ_mvl/mxv
 BYTE   W06
 BYTE   VOL   125*FE11OffToWarREALxViPerZ_mvl/mxv
 BYTE   W07
 BYTE   VOL   126*FE11OffToWarREALxViPerZ_mvl/mxv
 BYTE   W03
//  #07 //011   ----------------------------------------
 BYTE   N44  Fn1
 BYTE   N44  As2
 BYTE   W04
 BYTE   VOL   126*FE11OffToWarREALxViPerZ_mvl/mxv
 BYTE   W07
 BYTE   VOL   126*FE11OffToWarREALxViPerZ_mvl/mxv
 BYTE   W07
 BYTE   VOL   127*FE11OffToWarREALxViPerZ_mvl/mxv
 BYTE   W30
 BYTE   N05  Cn5
 BYTE   W05
 BYTE   N06  Ds4
 BYTE   W06
 BYTE   Gs4
 BYTE   W06
 BYTE   N07  Cn5
 BYTE   W07
 BYTE   N05  Dn5
 BYTE   W05
 BYTE   Fn4
 BYTE   W06
 BYTE   Gs4
 BYTE   W06
 BYTE   Dn5
 BYTE   W06
 BYTE   Dn5  v018
 BYTE   W01
//  #07 //012   ----------------------------------------
 BYTE   TIE  Ds3
 BYTE   W05
 BYTE   N05  Dn5  v014
 BYTE   W03
 BYTE   VOL   127*FE11OffToWarREALxViPerZ_mvl/mxv
 BYTE   W01
 BYTE   VOL   127*FE11OffToWarREALxViPerZ_mvl/mxv
 BYTE   W02
 BYTE   VOL   126*FE11OffToWarREALxViPerZ_mvl/mxv
 BYTE   N04
 BYTE   W01
 BYTE   VOL   126*FE11OffToWarREALxViPerZ_mvl/mxv
 BYTE   W02
 BYTE   VOL   124*FE11OffToWarREALxViPerZ_mvl/mxv
 BYTE   W01
 BYTE   VOL   124*FE11OffToWarREALxViPerZ_mvl/mxv
 BYTE   W02
 BYTE   VOL   124*FE11OffToWarREALxViPerZ_mvl/mxv
 BYTE   W01
 BYTE   VOL   124*FE11OffToWarREALxViPerZ_mvl/mxv
 BYTE   W02
 BYTE   VOL   122*FE11OffToWarREALxViPerZ_mvl/mxv
 BYTE   W01
 BYTE   VOL   122*FE11OffToWarREALxViPerZ_mvl/mxv
 BYTE   W02
 BYTE   VOL   122*FE11OffToWarREALxViPerZ_mvl/mxv
 BYTE   W01
 BYTE   VOL   121*FE11OffToWarREALxViPerZ_mvl/mxv
 BYTE   W02
 BYTE   VOL   120*FE11OffToWarREALxViPerZ_mvl/mxv
 BYTE   W01
 BYTE   VOL   120*FE11OffToWarREALxViPerZ_mvl/mxv
 BYTE   W02
 BYTE   VOL   120*FE11OffToWarREALxViPerZ_mvl/mxv
 BYTE   W01
 BYTE   VOL   119*FE11OffToWarREALxViPerZ_mvl/mxv
 BYTE   W02
 BYTE   VOL   119*FE11OffToWarREALxViPerZ_mvl/mxv
 BYTE   W01
 BYTE   VOL   119*FE11OffToWarREALxViPerZ_mvl/mxv
 BYTE   W02
 BYTE   VOL   119*FE11OffToWarREALxViPerZ_mvl/mxv
 BYTE   W01
 BYTE   VOL   118*FE11OffToWarREALxViPerZ_mvl/mxv
 BYTE   W02
 BYTE   VOL   118*FE11OffToWarREALxViPerZ_mvl/mxv
 BYTE   W01
 BYTE   VOL   117*FE11OffToWarREALxViPerZ_mvl/mxv
 BYTE   W02
 BYTE   VOL   117*FE11OffToWarREALxViPerZ_mvl/mxv
 BYTE   W01
 BYTE   VOL   117*FE11OffToWarREALxViPerZ_mvl/mxv
 BYTE   W02
 BYTE   VOL   117*FE11OffToWarREALxViPerZ_mvl/mxv
 BYTE   W01
 BYTE   VOL   116*FE11OffToWarREALxViPerZ_mvl/mxv
 BYTE   W02
 BYTE   VOL   116*FE11OffToWarREALxViPerZ_mvl/mxv
 BYTE   W01
 BYTE   VOL   115*FE11OffToWarREALxViPerZ_mvl/mxv
 BYTE   W02
 BYTE   VOL   115*FE11OffToWarREALxViPerZ_mvl/mxv
 BYTE   W01
 BYTE   VOL   115*FE11OffToWarREALxViPerZ_mvl/mxv
 BYTE   W02
 BYTE   VOL   115*FE11OffToWarREALxViPerZ_mvl/mxv
 BYTE   W01
 BYTE   VOL   115*FE11OffToWarREALxViPerZ_mvl/mxv
 BYTE   W01
 BYTE   VOL   115*FE11OffToWarREALxViPerZ_mvl/mxv
 BYTE   W03
 BYTE   VOL   115*FE11OffToWarREALxViPerZ_mvl/mxv
 BYTE   W03
 BYTE   VOL   115*FE11OffToWarREALxViPerZ_mvl/mxv
 BYTE   W03
 BYTE   VOL   115*FE11OffToWarREALxViPerZ_mvl/mxv
 BYTE   W03
 BYTE   VOL   115*FE11OffToWarREALxViPerZ_mvl/mxv
 BYTE   W03
 BYTE   VOL   115*FE11OffToWarREALxViPerZ_mvl/mxv
 BYTE   W03
 BYTE   VOL   116*FE11OffToWarREALxViPerZ_mvl/mxv
 BYTE   W03
 BYTE   VOL   116*FE11OffToWarREALxViPerZ_mvl/mxv
 BYTE   W03
 BYTE   VOL   116*FE11OffToWarREALxViPerZ_mvl/mxv
 BYTE   W03
 BYTE   VOL   117*FE11OffToWarREALxViPerZ_mvl/mxv
 BYTE   W03
 BYTE   VOL   117*FE11OffToWarREALxViPerZ_mvl/mxv
 BYTE   W03
 BYTE   VOL   117*FE11OffToWarREALxViPerZ_mvl/mxv
 BYTE   W03
 BYTE   VOL   117*FE11OffToWarREALxViPerZ_mvl/mxv
 BYTE   W03
 BYTE   VOL   117*FE11OffToWarREALxViPerZ_mvl/mxv
 BYTE   W02
//  #07 //013   ----------------------------------------
 BYTE   W01
 BYTE   VOL   118*FE11OffToWarREALxViPerZ_mvl/mxv
 BYTE   W03
 BYTE   VOL   119*FE11OffToWarREALxViPerZ_mvl/mxv
 BYTE   W03
 BYTE   VOL   119*FE11OffToWarREALxViPerZ_mvl/mxv
 BYTE   W03
 BYTE   VOL   119*FE11OffToWarREALxViPerZ_mvl/mxv
 BYTE   W03
 BYTE   VOL   119*FE11OffToWarREALxViPerZ_mvl/mxv
 BYTE   W03
 BYTE   VOL   120*FE11OffToWarREALxViPerZ_mvl/mxv
 BYTE   W03
 BYTE   VOL   120*FE11OffToWarREALxViPerZ_mvl/mxv
 BYTE   W03
 BYTE   VOL   120*FE11OffToWarREALxViPerZ_mvl/mxv
 BYTE   W03
 BYTE   VOL   120*FE11OffToWarREALxViPerZ_mvl/mxv
 BYTE   W03
 BYTE   VOL   121*FE11OffToWarREALxViPerZ_mvl/mxv
 BYTE   W03
 BYTE   VOL   122*FE11OffToWarREALxViPerZ_mvl/mxv
 BYTE   W03
 BYTE   VOL   122*FE11OffToWarREALxViPerZ_mvl/mxv
 BYTE   W03
 BYTE   VOL   122*FE11OffToWarREALxViPerZ_mvl/mxv
 BYTE   W03
 BYTE   VOL   123*FE11OffToWarREALxViPerZ_mvl/mxv
 BYTE   W03
 BYTE   VOL   124*FE11OffToWarREALxViPerZ_mvl/mxv
 BYTE   W03
 BYTE   VOL   124*FE11OffToWarREALxViPerZ_mvl/mxv
 BYTE   W01
 BYTE   EOT
 BYTE   Ds3
 BYTE   W01
 BYTE   VOL   124*FE11OffToWarREALxViPerZ_mvl/mxv
 BYTE   N44  Cs3  v018
 BYTE   W03
 BYTE   VOL   124*FE11OffToWarREALxViPerZ_mvl/mxv
 BYTE   W03
 BYTE   VOL   123*FE11OffToWarREALxViPerZ_mvl/mxv
 BYTE   W03
 BYTE   VOL   122*FE11OffToWarREALxViPerZ_mvl/mxv
 BYTE   W03
 BYTE   VOL   122*FE11OffToWarREALxViPerZ_mvl/mxv
 BYTE   W03
 BYTE   VOL   121*FE11OffToWarREALxViPerZ_mvl/mxv
 BYTE   W03
 BYTE   VOL   120*FE11OffToWarREALxViPerZ_mvl/mxv
 BYTE   W03
 BYTE   VOL   120*FE11OffToWarREALxViPerZ_mvl/mxv
 BYTE   W03
 BYTE   VOL   119*FE11OffToWarREALxViPerZ_mvl/mxv
 BYTE   W03
 BYTE   VOL   119*FE11OffToWarREALxViPerZ_mvl/mxv
 BYTE   W03
 BYTE   VOL   119*FE11OffToWarREALxViPerZ_mvl/mxv
 BYTE   W03
 BYTE   VOL   118*FE11OffToWarREALxViPerZ_mvl/mxv
 BYTE   W03
 BYTE   VOL   117*FE11OffToWarREALxViPerZ_mvl/mxv
 BYTE   W03
 BYTE   VOL   117*FE11OffToWarREALxViPerZ_mvl/mxv
 BYTE   W03
 BYTE   VOL   117*FE11OffToWarREALxViPerZ_mvl/mxv
 BYTE   W03
 BYTE   VOL   116*FE11OffToWarREALxViPerZ_mvl/mxv
 BYTE   W01
 BYTE   VOL   116*FE11OffToWarREALxViPerZ_mvl/mxv
 BYTE   W02
//  #07 //014   ----------------------------------------
 BYTE   N44  Ds3
 BYTE   W01
 BYTE   VOL   116*FE11OffToWarREALxViPerZ_mvl/mxv
 BYTE   W03
 BYTE   VOL   116*FE11OffToWarREALxViPerZ_mvl/mxv
 BYTE   W03
 BYTE   VOL   117*FE11OffToWarREALxViPerZ_mvl/mxv
 BYTE   W03
 BYTE   VOL   117*FE11OffToWarREALxViPerZ_mvl/mxv
 BYTE   W03
 BYTE   VOL   117*FE11OffToWarREALxViPerZ_mvl/mxv
 BYTE   W03
 BYTE   VOL   118*FE11OffToWarREALxViPerZ_mvl/mxv
 BYTE   W03
 BYTE   VOL   119*FE11OffToWarREALxViPerZ_mvl/mxv
 BYTE   W03
 BYTE   VOL   119*FE11OffToWarREALxViPerZ_mvl/mxv
 BYTE   W03
 BYTE   VOL   119*FE11OffToWarREALxViPerZ_mvl/mxv
 BYTE   W03
 BYTE   VOL   119*FE11OffToWarREALxViPerZ_mvl/mxv
 BYTE   W03
 BYTE   VOL   120*FE11OffToWarREALxViPerZ_mvl/mxv
 BYTE   W03
 BYTE   VOL   120*FE11OffToWarREALxViPerZ_mvl/mxv
 BYTE   W03
 BYTE   VOL   120*FE11OffToWarREALxViPerZ_mvl/mxv
 BYTE   W03
 BYTE   VOL   121*FE11OffToWarREALxViPerZ_mvl/mxv
 BYTE   W03
 BYTE   VOL   122*FE11OffToWarREALxViPerZ_mvl/mxv
 BYTE   W03
 BYTE   VOL   122*FE11OffToWarREALxViPerZ_mvl/mxv
 BYTE   W02
 BYTE   N44  Fn3
 BYTE   W01
 BYTE   VOL   123*FE11OffToWarREALxViPerZ_mvl/mxv
 BYTE   W03
 BYTE   VOL   124*FE11OffToWarREALxViPerZ_mvl/mxv
 BYTE   W10
 BYTE   VOL   124*FE11OffToWarREALxViPerZ_mvl/mxv
 BYTE   W05
 BYTE   VOL   123*FE11OffToWarREALxViPerZ_mvl/mxv
 BYTE   W06
 BYTE   VOL   122*FE11OffToWarREALxViPerZ_mvl/mxv
 BYTE   W05
 BYTE   VOL   122*FE11OffToWarREALxViPerZ_mvl/mxv
 BYTE   W05
 BYTE   VOL   122*FE11OffToWarREALxViPerZ_mvl/mxv
 BYTE   W05
 BYTE   VOL   122*FE11OffToWarREALxViPerZ_mvl/mxv
 BYTE   W05
 BYTE   VOL   121*FE11OffToWarREALxViPerZ_mvl/mxv
 BYTE   W03
//  #07 //015   ----------------------------------------
 BYTE   N44  Ds3
 BYTE   W02
 BYTE   VOL   121*FE11OffToWarREALxViPerZ_mvl/mxv
 BYTE   W05
 BYTE   VOL   120*FE11OffToWarREALxViPerZ_mvl/mxv
 BYTE   W05
 BYTE   VOL   120*FE11OffToWarREALxViPerZ_mvl/mxv
 BYTE   W05
 BYTE   VOL   120*FE11OffToWarREALxViPerZ_mvl/mxv
 BYTE   W05
 BYTE   VOL   120*FE11OffToWarREALxViPerZ_mvl/mxv
 BYTE   W05
 BYTE   VOL   120*FE11OffToWarREALxViPerZ_mvl/mxv
 BYTE   W05
 BYTE   VOL   119*FE11OffToWarREALxViPerZ_mvl/mxv
 BYTE   W05
 BYTE   VOL   119*FE11OffToWarREALxViPerZ_mvl/mxv
 BYTE   W05
 BYTE   VOL   119*FE11OffToWarREALxViPerZ_mvl/mxv
 BYTE   W05
 BYTE   VOL   119*FE11OffToWarREALxViPerZ_mvl/mxv
 BYTE   W01
 BYTE   N44  Cn3
 BYTE   W04
 BYTE   VOL   119*FE11OffToWarREALxViPerZ_mvl/mxv
 BYTE   W05
 BYTE   VOL   119*FE11OffToWarREALxViPerZ_mvl/mxv
 BYTE   W05
 BYTE   VOL   118*FE11OffToWarREALxViPerZ_mvl/mxv
 BYTE   W05
 BYTE   VOL   118*FE11OffToWarREALxViPerZ_mvl/mxv
 BYTE   W05
 BYTE   VOL   117*FE11OffToWarREALxViPerZ_mvl/mxv
 BYTE   W06
 BYTE   VOL   117*FE11OffToWarREALxViPerZ_mvl/mxv
 BYTE   W05
 BYTE   VOL   117*FE11OffToWarREALxViPerZ_mvl/mxv
 BYTE   W05
 BYTE   VOL   117*FE11OffToWarREALxViPerZ_mvl/mxv
 BYTE   W05
 BYTE   VOL   117*FE11OffToWarREALxViPerZ_mvl/mxv
 BYTE   W03
//  #07 //016   ----------------------------------------
 BYTE   TIE  Ds3
 BYTE   W02
 BYTE   VOL   117*FE11OffToWarREALxViPerZ_mvl/mxv
 BYTE   W05
 BYTE   VOL   116*FE11OffToWarREALxViPerZ_mvl/mxv
 BYTE   W09
 BYTE   VOL   116*FE11OffToWarREALxViPerZ_mvl/mxv
 BYTE   W05
 BYTE   VOL   117*FE11OffToWarREALxViPerZ_mvl/mxv
 BYTE   W05
 BYTE   VOL   117*FE11OffToWarREALxViPerZ_mvl/mxv
 BYTE   W04
 BYTE   VOL   117*FE11OffToWarREALxViPerZ_mvl/mxv
 BYTE   W05
 BYTE   VOL   117*FE11OffToWarREALxViPerZ_mvl/mxv
 BYTE   W05
 BYTE   VOL   117*FE11OffToWarREALxViPerZ_mvl/mxv
 BYTE   W04
 BYTE   VOL   117*FE11OffToWarREALxViPerZ_mvl/mxv
 BYTE   W05
 BYTE   VOL   118*FE11OffToWarREALxViPerZ_mvl/mxv
 BYTE   W05
 BYTE   VOL   118*FE11OffToWarREALxViPerZ_mvl/mxv
 BYTE   W05
 BYTE   VOL   119*FE11OffToWarREALxViPerZ_mvl/mxv
 BYTE   W04
 BYTE   VOL   119*FE11OffToWarREALxViPerZ_mvl/mxv
 BYTE   W05
 BYTE   VOL   119*FE11OffToWarREALxViPerZ_mvl/mxv
 BYTE   W05
 BYTE   VOL   119*FE11OffToWarREALxViPerZ_mvl/mxv
 BYTE   W04
 BYTE   VOL   119*FE11OffToWarREALxViPerZ_mvl/mxv
 BYTE   W05
 BYTE   VOL   119*FE11OffToWarREALxViPerZ_mvl/mxv
 BYTE   W05
 BYTE   VOL   120*FE11OffToWarREALxViPerZ_mvl/mxv
 BYTE   W05
 BYTE   VOL   120*FE11OffToWarREALxViPerZ_mvl/mxv
 BYTE   W04
//  #07 //017   ----------------------------------------
 BYTE   VOL   120*FE11OffToWarREALxViPerZ_mvl/mxv
 BYTE   W05
 BYTE   VOL   120*FE11OffToWarREALxViPerZ_mvl/mxv
 BYTE   W05
 BYTE   VOL   120*FE11OffToWarREALxViPerZ_mvl/mxv
 BYTE   W05
 BYTE   VOL   121*FE11OffToWarREALxViPerZ_mvl/mxv
 BYTE   W04
 BYTE   VOL   121*FE11OffToWarREALxViPerZ_mvl/mxv
 BYTE   W05
 BYTE   VOL   122*FE11OffToWarREALxViPerZ_mvl/mxv
 BYTE   W05
 BYTE   VOL   122*FE11OffToWarREALxViPerZ_mvl/mxv
 BYTE   W04
 BYTE   VOL   122*FE11OffToWarREALxViPerZ_mvl/mxv
 BYTE   W05
 BYTE   VOL   122*FE11OffToWarREALxViPerZ_mvl/mxv
 BYTE   W05
 BYTE   VOL   123*FE11OffToWarREALxViPerZ_mvl/mxv
 BYTE   W04
 BYTE   EOT
 BYTE   W01
 BYTE   VOL   124*FE11OffToWarREALxViPerZ_mvl/mxv
 BYTE   N44  Cs3
 BYTE   W03
 BYTE   VOL   124*FE11OffToWarREALxViPerZ_mvl/mxv
 BYTE   W03
 BYTE   VOL   123*FE11OffToWarREALxViPerZ_mvl/mxv
 BYTE   W03
 BYTE   VOL   122*FE11OffToWarREALxViPerZ_mvl/mxv
 BYTE   W03
 BYTE   VOL   122*FE11OffToWarREALxViPerZ_mvl/mxv
 BYTE   W03
 BYTE   VOL   121*FE11OffToWarREALxViPerZ_mvl/mxv
 BYTE   W03
 BYTE   VOL   121*FE11OffToWarREALxViPerZ_mvl/mxv
 BYTE   W03
 BYTE   VOL   120*FE11OffToWarREALxViPerZ_mvl/mxv
 BYTE   W03
 BYTE   VOL   120*FE11OffToWarREALxViPerZ_mvl/mxv
 BYTE   W03
 BYTE   VOL   120*FE11OffToWarREALxViPerZ_mvl/mxv
 BYTE   W03
 BYTE   VOL   119*FE11OffToWarREALxViPerZ_mvl/mxv
 BYTE   W03
 BYTE   VOL   119*FE11OffToWarREALxViPerZ_mvl/mxv
 BYTE   W03
 BYTE   VOL   119*FE11OffToWarREALxViPerZ_mvl/mxv
 BYTE   W03
 BYTE   VOL   119*FE11OffToWarREALxViPerZ_mvl/mxv
 BYTE   W03
 BYTE   VOL   118*FE11OffToWarREALxViPerZ_mvl/mxv
 BYTE   W03
 BYTE   VOL   118*FE11OffToWarREALxViPerZ_mvl/mxv
 BYTE   W03
//  #07 //018   ----------------------------------------
 BYTE   VOL   117*FE11OffToWarREALxViPerZ_mvl/mxv
 BYTE   N44  Ds3
 BYTE   W02
 BYTE   VOL   117*FE11OffToWarREALxViPerZ_mvl/mxv
 BYTE   W14
 BYTE   VOL   117*FE11OffToWarREALxViPerZ_mvl/mxv
 BYTE   W07
 BYTE   VOL   117*FE11OffToWarREALxViPerZ_mvl/mxv
 BYTE   W07
 BYTE   VOL   118*FE11OffToWarREALxViPerZ_mvl/mxv
 BYTE   W07
 BYTE   VOL   118*FE11OffToWarREALxViPerZ_mvl/mxv
 BYTE   W07
 BYTE   VOL   119*FE11OffToWarREALxViPerZ_mvl/mxv
 BYTE   W04
 BYTE   N44  Fs3
 BYTE   W03
 BYTE   VOL   119*FE11OffToWarREALxViPerZ_mvl/mxv
 BYTE   W07
 BYTE   VOL   119*FE11OffToWarREALxViPerZ_mvl/mxv
 BYTE   W07
 BYTE   VOL   119*FE11OffToWarREALxViPerZ_mvl/mxv
 BYTE   W07
 BYTE   VOL   119*FE11OffToWarREALxViPerZ_mvl/mxv
 BYTE   W07
 BYTE   VOL   119*FE11OffToWarREALxViPerZ_mvl/mxv
 BYTE   W07
 BYTE   VOL   120*FE11OffToWarREALxViPerZ_mvl/mxv
 BYTE   W07
 BYTE   VOL   120*FE11OffToWarREALxViPerZ_mvl/mxv
 BYTE   W03
//  #07 //019   ----------------------------------------
 BYTE   N44  Ds3
 BYTE   W04
 BYTE   VOL   120*FE11OffToWarREALxViPerZ_mvl/mxv
 BYTE   W07
 BYTE   VOL   120*FE11OffToWarREALxViPerZ_mvl/mxv
 BYTE   W07
 BYTE   VOL   120*FE11OffToWarREALxViPerZ_mvl/mxv
 BYTE   W07
 BYTE   VOL   121*FE11OffToWarREALxViPerZ_mvl/mxv
 BYTE   W07
 BYTE   VOL   121*FE11OffToWarREALxViPerZ_mvl/mxv
 BYTE   W07
 BYTE   VOL   122*FE11OffToWarREALxViPerZ_mvl/mxv
 BYTE   W06
 BYTE   VOL   122*FE11OffToWarREALxViPerZ_mvl/mxv
 BYTE   W03
 BYTE   N44  Gs3
 BYTE   W04
 BYTE   VOL   122*FE11OffToWarREALxViPerZ_mvl/mxv
 BYTE   W07
 BYTE   VOL   122*FE11OffToWarREALxViPerZ_mvl/mxv
 BYTE   W07
 BYTE   VOL   123*FE11OffToWarREALxViPerZ_mvl/mxv
 BYTE   W07
 BYTE   VOL   124*FE11OffToWarREALxViPerZ_mvl/mxv
 BYTE   W07
 BYTE   VOL   124*FE11OffToWarREALxViPerZ_mvl/mxv
 BYTE   W07
 BYTE   VOL   124*FE11OffToWarREALxViPerZ_mvl/mxv
 BYTE   W07
 BYTE   VOL   124*FE11OffToWarREALxViPerZ_mvl/mxv
 BYTE   W02
//  #07 //020   ----------------------------------------
 BYTE   TIE  As3
 BYTE   W05
 BYTE   VOL   124*FE11OffToWarREALxViPerZ_mvl/mxv
 BYTE   W03
 BYTE   VOL   124*FE11OffToWarREALxViPerZ_mvl/mxv
 BYTE   W04
 BYTE   VOL   124*FE11OffToWarREALxViPerZ_mvl/mxv
 BYTE   W03
 BYTE   VOL   124*FE11OffToWarREALxViPerZ_mvl/mxv
 BYTE   W04
 BYTE   VOL   123*FE11OffToWarREALxViPerZ_mvl/mxv
 BYTE   W03
 BYTE   VOL   122*FE11OffToWarREALxViPerZ_mvl/mxv
 BYTE   W03
 BYTE   VOL   122*FE11OffToWarREALxViPerZ_mvl/mxv
 BYTE   W04
 BYTE   VOL   122*FE11OffToWarREALxViPerZ_mvl/mxv
 BYTE   W03
 BYTE   VOL   122*FE11OffToWarREALxViPerZ_mvl/mxv
 BYTE   W04
 BYTE   VOL   121*FE11OffToWarREALxViPerZ_mvl/mxv
 BYTE   W03
 BYTE   VOL   121*FE11OffToWarREALxViPerZ_mvl/mxv
 BYTE   W03
 BYTE   VOL   120*FE11OffToWarREALxViPerZ_mvl/mxv
 BYTE   W04
 BYTE   VOL   120*FE11OffToWarREALxViPerZ_mvl/mxv
 BYTE   W03
 BYTE   VOL   120*FE11OffToWarREALxViPerZ_mvl/mxv
 BYTE   W03
 BYTE   VOL   120*FE11OffToWarREALxViPerZ_mvl/mxv
 BYTE   W04
 BYTE   VOL   120*FE11OffToWarREALxViPerZ_mvl/mxv
 BYTE   W03
 BYTE   VOL   119*FE11OffToWarREALxViPerZ_mvl/mxv
 BYTE   W04
 BYTE   VOL   119*FE11OffToWarREALxViPerZ_mvl/mxv
 BYTE   W03
 BYTE   VOL   119*FE11OffToWarREALxViPerZ_mvl/mxv
 BYTE   W03
 BYTE   VOL   119*FE11OffToWarREALxViPerZ_mvl/mxv
 BYTE   W03
 BYTE   VOL   118*FE11OffToWarREALxViPerZ_mvl/mxv
 BYTE   W03
 BYTE   VOL   117*FE11OffToWarREALxViPerZ_mvl/mxv
 BYTE   W03
 BYTE   VOL   117*FE11OffToWarREALxViPerZ_mvl/mxv
 BYTE   W03
 BYTE   VOL   117*FE11OffToWarREALxViPerZ_mvl/mxv
 BYTE   W03
 BYTE   VOL   116*FE11OffToWarREALxViPerZ_mvl/mxv
 BYTE   W03
 BYTE   VOL   116*FE11OffToWarREALxViPerZ_mvl/mxv
 BYTE   W03
 BYTE   VOL   115*FE11OffToWarREALxViPerZ_mvl/mxv
 BYTE   W03
 BYTE   VOL   115*FE11OffToWarREALxViPerZ_mvl/mxv
 BYTE   W03
//  #07 //021   ----------------------------------------
 BYTE   VOL   115*FE11OffToWarREALxViPerZ_mvl/mxv
 BYTE   W03
 BYTE   VOL   115*FE11OffToWarREALxViPerZ_mvl/mxv
 BYTE   W03
 BYTE   VOL   115*FE11OffToWarREALxViPerZ_mvl/mxv
 BYTE   W03
 BYTE   VOL   114*FE11OffToWarREALxViPerZ_mvl/mxv
 BYTE   W03
 BYTE   VOL   114*FE11OffToWarREALxViPerZ_mvl/mxv
 BYTE   W03
 BYTE   VOL   114*FE11OffToWarREALxViPerZ_mvl/mxv
 BYTE   W03
 BYTE   VOL   114*FE11OffToWarREALxViPerZ_mvl/mxv
 BYTE   W03
 BYTE   VOL   114*FE11OffToWarREALxViPerZ_mvl/mxv
 BYTE   W02
 BYTE   EOT
 BYTE   W01
 BYTE   VOL   114*FE11OffToWarREALxViPerZ_mvl/mxv
 BYTE   W02
 BYTE   VOL   114*FE11OffToWarREALxViPerZ_mvl/mxv
 BYTE   W03
 BYTE   VOL   114*FE11OffToWarREALxViPerZ_mvl/mxv
 BYTE   W03
 BYTE   VOL   114*FE11OffToWarREALxViPerZ_mvl/mxv
 BYTE   W03
 BYTE   VOL   114*FE11OffToWarREALxViPerZ_mvl/mxv
 BYTE   W03
 BYTE   VOL   114*FE11OffToWarREALxViPerZ_mvl/mxv
 BYTE   W03
 BYTE   VOL   114*FE11OffToWarREALxViPerZ_mvl/mxv
 BYTE   W01
 BYTE   VOL   114*FE11OffToWarREALxViPerZ_mvl/mxv
 BYTE   W01
 BYTE   VOL   115*FE11OffToWarREALxViPerZ_mvl/mxv
 BYTE   W01
 BYTE   VOL   117*FE11OffToWarREALxViPerZ_mvl/mxv
 BYTE   W01
 BYTE   VOL   119*FE11OffToWarREALxViPerZ_mvl/mxv
 BYTE   W01
 BYTE   VOL   122*FE11OffToWarREALxViPerZ_mvl/mxv
 BYTE   W01
 BYTE   VOL   124*FE11OffToWarREALxViPerZ_mvl/mxv
 BYTE   W01
 BYTE   VOL   126*FE11OffToWarREALxViPerZ_mvl/mxv
 BYTE   W05
 BYTE   N05  Fs5  v026
 BYTE   W06
 BYTE   Cs5
 BYTE   W06
 BYTE   Bn4
 BYTE   W06
 BYTE   Cs5
 BYTE   W03
 BYTE   VOL   126*FE11OffToWarREALxViPerZ_mvl/mxv
 BYTE   W03
 BYTE   N05  Bn4
 BYTE   W06
 BYTE   Fs4
 BYTE   W02
 BYTE   Cs4
 BYTE   W06
 BYTE   Bn3
 BYTE   W05
//  #07 //022   ----------------------------------------
 BYTE   GoTo
  POIN2 Label_01C7A3EA
 BYTE   FINE

//**************** Track 8 (Midi-Chn.7) ****************//

FE11OffToWarREALxViPerZ_008:
//  #08 //000   ----------------------------------------
 BYTE   KEYSH   FE11OffToWarREALxViPerZ_key+0
Label_01C7A712:
 BYTE   VOICE   0
 BYTE   MODT 0
 BYTE   LFOS 44
 BYTE   PAN   c_v+0
 BYTE   VOL   62*FE11OffToWarREALxViPerZ_mvl/mxv
 BYTE   BEND   c_v+0
 BYTE   N16  Gn5  v092
 BYTE   N16  Cn6
 BYTE   W18
 BYTE   Gn5  v008
 BYTE   N16  Cn6
 BYTE   W18
 BYTE   Gn5  v004
 BYTE   N16  Cn6
 BYTE   W60
//  #08 //001   ----------------------------------------
Label_01C7A72E:
 BYTE   N16  Fn5  v092
 BYTE   N16  As5
 BYTE   W18
 BYTE   Fn5  v008
 BYTE   N16  As5
 BYTE   W18
 BYTE   Fn5  v004
 BYTE   N16  As5
 BYTE   W60
 BYTE   PEND 
//  #08 //002   ----------------------------------------
Label_01C7A73F:
 BYTE   N16  Ds5  v092
 BYTE   N16  Gs5
 BYTE   W18
 BYTE   Ds5  v008
 BYTE   N16  Gs5
 BYTE   W18
 BYTE   Ds5  v004
 BYTE   N16  Gs5
 BYTE   W60
 BYTE   PEND 
//  #08 //003   ----------------------------------------
Label_01C7A750:
 BYTE   N16  Dn5  v092
 BYTE   N16  Gn5
 BYTE   W18
 BYTE   Dn5  v008
 BYTE   N16  Gn5
 BYTE   W18
 BYTE   Dn5  v004
 BYTE   N16  Gn5
 BYTE   W60
 BYTE   PEND 
//  #08 //004   ----------------------------------------
 BYTE   Gn5  v092
 BYTE   N16  Cn6
 BYTE   W18
 BYTE   Gn5  v008
 BYTE   N16  Cn6
 BYTE   W18
 BYTE   Gn5  v004
 BYTE   N16  Cn6
 BYTE   W60
//  #08 //005   ----------------------------------------
 BYTE   PATT
  POIN2 Label_01C7A72E
//  #08 //006   ----------------------------------------
 BYTE   PATT
  POIN2 Label_01C7A73F
//  #08 //007   ----------------------------------------
 BYTE   PATT
  POIN2 Label_01C7A750
//  #08 //008   ----------------------------------------
 BYTE   VOL   62*FE11OffToWarREALxViPerZ_mvl/mxv
 BYTE   W66
 BYTE   W01
 BYTE   VOL   61*FE11OffToWarREALxViPerZ_mvl/mxv
 BYTE   W28
 BYTE   W01
//  #08 //009   ----------------------------------------
 BYTE   W05
 BYTE   VOL   61*FE11OffToWarREALxViPerZ_mvl/mxv
 BYTE   W32
 BYTE   W01
 BYTE   VOL   60*FE11OffToWarREALxViPerZ_mvl/mxv
 BYTE   W32
 BYTE   W02
 BYTE   VOL   60*FE11OffToWarREALxViPerZ_mvl/mxv
 BYTE   W24
//  #08 //010   ----------------------------------------
 BYTE   W10
 BYTE   VOL   60*FE11OffToWarREALxViPerZ_mvl/mxv
 BYTE   W32
 BYTE   W01
 BYTE   VOL   59*FE11OffToWarREALxViPerZ_mvl/mxv
 BYTE   W32
 BYTE   W02
 BYTE   VOL   59*FE11OffToWarREALxViPerZ_mvl/mxv
 BYTE   W19
//  #08 //011   ----------------------------------------
 BYTE   W15
 BYTE   VOL   58*FE11OffToWarREALxViPerZ_mvl/mxv
 BYTE   W32
 BYTE   W01
 BYTE   VOL   58*FE11OffToWarREALxViPerZ_mvl/mxv
 BYTE   W32
 BYTE   W02
 BYTE   VOL   58*FE11OffToWarREALxViPerZ_mvl/mxv
 BYTE   W14
//  #08 //012   ----------------------------------------
 BYTE   W20
 BYTE   VOL   58*FE11OffToWarREALxViPerZ_mvl/mxv
 BYTE   W32
 BYTE   W01
 BYTE   VOL   58*FE11OffToWarREALxViPerZ_mvl/mxv
 BYTE   W32
 BYTE   W02
 BYTE   VOL   58*FE11OffToWarREALxViPerZ_mvl/mxv
 BYTE   W09
//  #08 //013   ----------------------------------------
 BYTE   W24
 BYTE   W01
 BYTE   VOL   58*FE11OffToWarREALxViPerZ_mvl/mxv
 BYTE   W32
 BYTE   W01
 BYTE   VOL   57*FE11OffToWarREALxViPerZ_mvl/mxv
 BYTE   W32
 BYTE   W02
 BYTE   VOL   57*FE11OffToWarREALxViPerZ_mvl/mxv
 BYTE   W04
//  #08 //014   ----------------------------------------
 BYTE   W30
 BYTE   VOL   56*FE11OffToWarREALxViPerZ_mvl/mxv
 BYTE   W32
 BYTE   W02
 BYTE   VOL   56*FE11OffToWarREALxViPerZ_mvl/mxv
 BYTE   W32
//  #08 //015   ----------------------------------------
 BYTE   W01
 BYTE   VOL   56*FE11OffToWarREALxViPerZ_mvl/mxv
 BYTE   W32
 BYTE   W02
 BYTE   VOL   56*FE11OffToWarREALxViPerZ_mvl/mxv
 BYTE   W32
 BYTE   W02
 BYTE   VOL   55*FE11OffToWarREALxViPerZ_mvl/mxv
 BYTE   W03
 BYTE   VOL   55*FE11OffToWarREALxViPerZ_mvl/mxv
 BYTE   W03
 BYTE   VOL   55*FE11OffToWarREALxViPerZ_mvl/mxv
 BYTE   W04
 BYTE   VOL   55*FE11OffToWarREALxViPerZ_mvl/mxv
 BYTE   W03
 BYTE   VOL   55*FE11OffToWarREALxViPerZ_mvl/mxv
 BYTE   W03
 BYTE   VOL   55*FE11OffToWarREALxViPerZ_mvl/mxv
 BYTE   W04
 BYTE   VOL   55*FE11OffToWarREALxViPerZ_mvl/mxv
 BYTE   W03
 BYTE   VOL   54*FE11OffToWarREALxViPerZ_mvl/mxv
 BYTE   W04
//  #08 //016   ----------------------------------------
 BYTE   VOL   54*FE11OffToWarREALxViPerZ_mvl/mxv
 BYTE   W03
 BYTE   VOL   54*FE11OffToWarREALxViPerZ_mvl/mxv
 BYTE   W03
 BYTE   VOL   54*FE11OffToWarREALxViPerZ_mvl/mxv
 BYTE   W04
 BYTE   VOL   54*FE11OffToWarREALxViPerZ_mvl/mxv
 BYTE   W03
 BYTE   VOL   54*FE11OffToWarREALxViPerZ_mvl/mxv
 BYTE   W03
 BYTE   VOL   53*FE11OffToWarREALxViPerZ_mvl/mxv
 BYTE   W04
 BYTE   VOL   53*FE11OffToWarREALxViPerZ_mvl/mxv
 BYTE   W03
 BYTE   VOL   53*FE11OffToWarREALxViPerZ_mvl/mxv
 BYTE   W04
 BYTE   VOL   53*FE11OffToWarREALxViPerZ_mvl/mxv
 BYTE   W03
 BYTE   VOL   53*FE11OffToWarREALxViPerZ_mvl/mxv
 BYTE   W03
 BYTE   VOL   53*FE11OffToWarREALxViPerZ_mvl/mxv
 BYTE   W04
 BYTE   VOL   53*FE11OffToWarREALxViPerZ_mvl/mxv
 BYTE   W03
 BYTE   VOL   53*FE11OffToWarREALxViPerZ_mvl/mxv
 BYTE   W07
 BYTE   VOL   53*FE11OffToWarREALxViPerZ_mvl/mxv
 BYTE   W01
 BYTE   N44  Ds2  v112
 BYTE   W02
 BYTE   VOL   53*FE11OffToWarREALxViPerZ_mvl/mxv
 BYTE   W04
 BYTE   VOL   53*FE11OffToWarREALxViPerZ_mvl/mxv
 BYTE   W03
 BYTE   VOL   53*FE11OffToWarREALxViPerZ_mvl/mxv
 BYTE   W03
 BYTE   VOL   53*FE11OffToWarREALxViPerZ_mvl/mxv
 BYTE   W04
 BYTE   VOL   53*FE11OffToWarREALxViPerZ_mvl/mxv
 BYTE   W03
 BYTE   VOL   53*FE11OffToWarREALxViPerZ_mvl/mxv
 BYTE   W04
 BYTE   VOL   52*FE11OffToWarREALxViPerZ_mvl/mxv
 BYTE   W03
 BYTE   VOL   52*FE11OffToWarREALxViPerZ_mvl/mxv
 BYTE   W04
 BYTE   VOL   52*FE11OffToWarREALxViPerZ_mvl/mxv
 BYTE   W03
 BYTE   VOL   52*FE11OffToWarREALxViPerZ_mvl/mxv
 BYTE   W03
 BYTE   VOL   52*FE11OffToWarREALxViPerZ_mvl/mxv
 BYTE   W03
 BYTE   VOL   53*FE11OffToWarREALxViPerZ_mvl/mxv
 BYTE   W03
 BYTE   VOL   53*FE11OffToWarREALxViPerZ_mvl/mxv
 BYTE   W03
 BYTE   VOL   53*FE11OffToWarREALxViPerZ_mvl/mxv
 BYTE   W03
//  #08 //017   ----------------------------------------
 BYTE   VOL   53*FE11OffToWarREALxViPerZ_mvl/mxv
 BYTE   N44  Fn2
 BYTE   W03
 BYTE   VOL   53*FE11OffToWarREALxViPerZ_mvl/mxv
 BYTE   W03
 BYTE   VOL   53*FE11OffToWarREALxViPerZ_mvl/mxv
 BYTE   W03
 BYTE   VOL   53*FE11OffToWarREALxViPerZ_mvl/mxv
 BYTE   W03
 BYTE   VOL   53*FE11OffToWarREALxViPerZ_mvl/mxv
 BYTE   W03
 BYTE   VOL   54*FE11OffToWarREALxViPerZ_mvl/mxv
 BYTE   W03
 BYTE   VOL   54*FE11OffToWarREALxViPerZ_mvl/mxv
 BYTE   W03
 BYTE   VOL   54*FE11OffToWarREALxViPerZ_mvl/mxv
 BYTE   W03
 BYTE   VOL   55*FE11OffToWarREALxViPerZ_mvl/mxv
 BYTE   W03
 BYTE   VOL   55*FE11OffToWarREALxViPerZ_mvl/mxv
 BYTE   W03
 BYTE   VOL   55*FE11OffToWarREALxViPerZ_mvl/mxv
 BYTE   W13
 BYTE   VOL   55*FE11OffToWarREALxViPerZ_mvl/mxv
 BYTE   W05
 BYTE   N44  Gs2
 BYTE   W09
 BYTE   VOL   55*FE11OffToWarREALxViPerZ_mvl/mxv
 BYTE   W14
 BYTE   VOL   55*FE11OffToWarREALxViPerZ_mvl/mxv
 BYTE   W14
 BYTE   VOL   55*FE11OffToWarREALxViPerZ_mvl/mxv
 BYTE   W11
//  #08 //018   ----------------------------------------
 BYTE   TIE  Ds3  v076
 BYTE   W02
 BYTE   VOL   54*FE11OffToWarREALxViPerZ_mvl/mxv
 BYTE   W14
 BYTE   VOL   54*FE11OffToWarREALxViPerZ_mvl/mxv
 BYTE   W06
 BYTE   VOL   54*FE11OffToWarREALxViPerZ_mvl/mxv
 BYTE   W04
 BYTE   VOL   54*FE11OffToWarREALxViPerZ_mvl/mxv
 BYTE   W03
 BYTE   VOL   54*FE11OffToWarREALxViPerZ_mvl/mxv
 BYTE   W03
 BYTE   VOL   54*FE11OffToWarREALxViPerZ_mvl/mxv
 BYTE   W03
 BYTE   VOL   53*FE11OffToWarREALxViPerZ_mvl/mxv
 BYTE   W03
 BYTE   VOL   53*FE11OffToWarREALxViPerZ_mvl/mxv
 BYTE   W03
 BYTE   VOL   53*FE11OffToWarREALxViPerZ_mvl/mxv
 BYTE   W04
 BYTE   VOL   53*FE11OffToWarREALxViPerZ_mvl/mxv
 BYTE   W03
 BYTE   VOL   53*FE11OffToWarREALxViPerZ_mvl/mxv
 BYTE   W03
 BYTE   VOL   53*FE11OffToWarREALxViPerZ_mvl/mxv
 BYTE   W03
 BYTE   VOL   53*FE11OffToWarREALxViPerZ_mvl/mxv
 BYTE   W03
 BYTE   VOL   53*FE11OffToWarREALxViPerZ_mvl/mxv
 BYTE   W03
 BYTE   VOL   53*FE11OffToWarREALxViPerZ_mvl/mxv
 BYTE   W04
 BYTE   VOL   53*FE11OffToWarREALxViPerZ_mvl/mxv
 BYTE   W03
 BYTE   VOL   53*FE11OffToWarREALxViPerZ_mvl/mxv
 BYTE   W03
 BYTE   VOL   53*FE11OffToWarREALxViPerZ_mvl/mxv
 BYTE   W11
 BYTE   VOL   53*FE11OffToWarREALxViPerZ_mvl/mxv
 BYTE   W11
 BYTE   VOL   53*FE11OffToWarREALxViPerZ_mvl/mxv
 BYTE   W04
//  #08 //019   ----------------------------------------
 BYTE   W06
 BYTE   VOL   52*FE11OffToWarREALxViPerZ_mvl/mxv
 BYTE   W11
 BYTE   VOL   52*FE11OffToWarREALxViPerZ_mvl/mxv
 BYTE   W11
 BYTE   VOL   52*FE11OffToWarREALxViPerZ_mvl/mxv
 BYTE   W11
 BYTE   VOL   52*FE11OffToWarREALxViPerZ_mvl/mxv
 BYTE   W07
 BYTE   EOT
 BYTE   W02
 BYTE   N44  Cn3  v072
 BYTE   W01
 BYTE   VOL   52*FE11OffToWarREALxViPerZ_mvl/mxv
 BYTE   W11
 BYTE   VOL   52*FE11OffToWarREALxViPerZ_mvl/mxv
 BYTE   W11
 BYTE   VOL   52*FE11OffToWarREALxViPerZ_mvl/mxv
 BYTE   W11
 BYTE   VOL   52*FE11OffToWarREALxViPerZ_mvl/mxv
 BYTE   W10
 BYTE   VOL   52*FE11OffToWarREALxViPerZ_mvl/mxv
 BYTE   W04
//  #08 //020   ----------------------------------------
 BYTE   W07
 BYTE   VOL   52*FE11OffToWarREALxViPerZ_mvl/mxv
 BYTE   W88
 BYTE   W01
//  #08 //021   ----------------------------------------
 BYTE   W96
//  #08 //022   ----------------------------------------
 BYTE   GoTo
  POIN2 Label_01C7A712
 BYTE   FINE

//**************** Track 9 (Midi-Chn.8) ****************//

FE11OffToWarREALxViPerZ_009:
//  #09 //000   ----------------------------------------
 BYTE   KEYSH   FE11OffToWarREALxViPerZ_key+0
Label_01C7A88A:
 BYTE   VOICE   4
 BYTE   MODT 0
 BYTE   LFOS 44
 BYTE   VOL   70*FE11OffToWarREALxViPerZ_mvl/mxv
 BYTE   PAN   c_v-12
 BYTE   BEND   c_v+0
 BYTE   N11  Cn3  v112
 BYTE   W12
 BYTE   Cn3  v008
 BYTE   W12
 BYTE   Cn3  v004
 BYTE   W12
 BYTE   N05  Cn2  v032
 BYTE   W06
 BYTE   N05
 BYTE   W06
 BYTE   N08  Cn2  v072
 BYTE   W12
 BYTE   N11  Cn2  v112
 BYTE   W12
 BYTE   Cn2  v008
 BYTE   W12
 BYTE   Cn2  v004
 BYTE   W12
//  #09 //001   ----------------------------------------
Label_01C7A8B4:
 BYTE   N11  As2  v112
 BYTE   W12
 BYTE   As2  v008
 BYTE   W12
 BYTE   As2  v004
 BYTE   W12
 BYTE   N05  Cn2  v032
 BYTE   W06
 BYTE   N05
 BYTE   W06
 BYTE   N08  Cn2  v072
 BYTE   W12
 BYTE   N11  Cn2  v112
 BYTE   W12
 BYTE   Cn2  v008
 BYTE   W12
 BYTE   Cn2  v004
 BYTE   W12
 BYTE   PEND 
//  #09 //002   ----------------------------------------
Label_01C7A8D3:
 BYTE   N11  Gs2  v112
 BYTE   W12
 BYTE   Gs2  v008
 BYTE   W12
 BYTE   Gs2  v004
 BYTE   W12
 BYTE   N05  Cn2  v032
 BYTE   W06
 BYTE   N05
 BYTE   W06
 BYTE   N08  Cn2  v072
 BYTE   W12
 BYTE   N11  Cn2  v112
 BYTE   W12
 BYTE   Cn2  v008
 BYTE   W12
 BYTE   Cn2  v004
 BYTE   W12
 BYTE   PEND 
//  #09 //003   ----------------------------------------
Label_01C7A8F2:
 BYTE   N11  Gn2  v112
 BYTE   W12
 BYTE   Gn2  v008
 BYTE   W12
 BYTE   Gn2  v004
 BYTE   W12
 BYTE   N05  Cn2  v032
 BYTE   W06
 BYTE   N05
 BYTE   W06
 BYTE   N08  Cn2  v072
 BYTE   W12
 BYTE   N11  Cn2  v112
 BYTE   W12
 BYTE   Cn2  v008
 BYTE   W12
 BYTE   Cn2  v004
 BYTE   W12
 BYTE   PEND 
//  #09 //004   ----------------------------------------
 BYTE   Cn3  v112
 BYTE   W12
 BYTE   Cn3  v008
 BYTE   W12
 BYTE   Cn3  v004
 BYTE   W12
 BYTE   N05  Cn2  v032
 BYTE   W06
 BYTE   N05
 BYTE   W06
 BYTE   N08  Cn2  v072
 BYTE   W12
 BYTE   N11  Cn2  v112
 BYTE   W12
 BYTE   Cn2  v008
 BYTE   W12
 BYTE   Cn2  v004
 BYTE   W12
//  #09 //005   ----------------------------------------
 BYTE   PATT
  POIN2 Label_01C7A8B4
//  #09 //006   ----------------------------------------
 BYTE   PATT
  POIN2 Label_01C7A8D3
//  #09 //007   ----------------------------------------
 BYTE   PATT
  POIN2 Label_01C7A8F2
//  #09 //008   ----------------------------------------
 BYTE   N11  Fn2  v056
 BYTE   W12
 BYTE   Fn2  v004
 BYTE   W24
 BYTE   N05  Fn2  v016
 BYTE   W06
 BYTE   N05
 BYTE   W06
 BYTE   N08  Fn2  v032
 BYTE   W12
 BYTE   N11  Fn2  v056
 BYTE   W12
 BYTE   Fn2  v004
 BYTE   W24
//  #09 //009   ----------------------------------------
 BYTE   Gn2  v056
 BYTE   W12
 BYTE   Gn2  v004
 BYTE   W24
 BYTE   N05  Gn2  v016
 BYTE   W06
 BYTE   N05
 BYTE   W06
 BYTE   N08  Gn2  v032
 BYTE   W12
 BYTE   N11  Gn2  v056
 BYTE   W12
 BYTE   Gn2  v004
 BYTE   W24
//  #09 //010   ----------------------------------------
 BYTE   Gs2  v056
 BYTE   W12
 BYTE   Gs2  v004
 BYTE   W24
 BYTE   N05  Gs2  v016
 BYTE   W06
 BYTE   N05
 BYTE   W06
 BYTE   N08  Gs2  v032
 BYTE   W12
 BYTE   N11  Gs2  v056
 BYTE   W12
 BYTE   Gs2  v004
 BYTE   W24
//  #09 //011   ----------------------------------------
 BYTE   As2  v056
 BYTE   W12
 BYTE   As2  v004
 BYTE   W24
 BYTE   N05  As2  v016
 BYTE   W06
 BYTE   N05
 BYTE   W06
 BYTE   N08  As2  v032
 BYTE   W12
 BYTE   N11  As2  v056
 BYTE   W12
 BYTE   As2  v004
 BYTE   W24
//  #09 //012   ----------------------------------------
Label_01C7A99A:
 BYTE   N11  As2  v028
 BYTE   W12
 BYTE   As2  v008
 BYTE   W24
 BYTE   N05  As2  v004
 BYTE   W06
 BYTE   N05
 BYTE   W06
 BYTE   N08  As2  v012
 BYTE   W12
 BYTE   N11  As2  v028
 BYTE   W12
 BYTE   As2  v004
 BYTE   W24
 BYTE   PEND 
//  #09 //013   ----------------------------------------
 BYTE   PATT
  POIN2 Label_01C7A99A
//  #09 //014   ----------------------------------------
 BYTE   PATT
  POIN2 Label_01C7A99A
//  #09 //015   ----------------------------------------
 BYTE   PATT
  POIN2 Label_01C7A99A
//  #09 //016   ----------------------------------------
 BYTE   PATT
  POIN2 Label_01C7A99A
//  #09 //017   ----------------------------------------
 BYTE   PATT
  POIN2 Label_01C7A99A
//  #09 //018   ----------------------------------------
 BYTE   PATT
  POIN2 Label_01C7A99A
//  #09 //019   ----------------------------------------
 BYTE   PATT
  POIN2 Label_01C7A99A
//  #09 //020   ----------------------------------------
 BYTE   PATT
  POIN2 Label_01C7A99A
//  #09 //021   ----------------------------------------
 BYTE   N11  As2  v028
 BYTE   W12
 BYTE   As2  v008
 BYTE   W24
 BYTE   N05  As2  v004
 BYTE   W06
 BYTE   N05
 BYTE   W54
//  #09 //022   ----------------------------------------
 BYTE   GoTo
  POIN2 Label_01C7A88A
 BYTE   FINE

//**************** Track 10 (Midi-Chn.9) ****************//

FE11OffToWarREALxViPerZ_010:
//  #10 //000   ----------------------------------------
 BYTE   KEYSH   FE11OffToWarREALxViPerZ_key+0
Label_547402:
 BYTE   VOICE   4
 BYTE   MODT 0
 BYTE   LFOS 44
 BYTE   VOL   50*FE11OffToWarREALxViPerZ_mvl/mxv
 BYTE   PAN   c_v+63
 BYTE   BEND   c_v+0
 BYTE   W96
//  #10 //001   ----------------------------------------
 BYTE   W96
//  #10 //002   ----------------------------------------
 BYTE   W96
//  #10 //003   ----------------------------------------
 BYTE   W96
//  #10 //004   ----------------------------------------
 BYTE   W96
//  #10 //005   ----------------------------------------
 BYTE   W96
//  #10 //006   ----------------------------------------
 BYTE   W96
//  #10 //007   ----------------------------------------
 BYTE   W96
//  #10 //008   ----------------------------------------
 BYTE   W96
//  #10 //009   ----------------------------------------
 BYTE   W96
//  #10 //010   ----------------------------------------
 BYTE   W96
//  #10 //011   ----------------------------------------
 BYTE   W96
//  #10 //012   ----------------------------------------
Label_54741A:
 BYTE   N11  Ds3  v028
 BYTE   W12
 BYTE   Ds3  v008
 BYTE   W24
 BYTE   N05  Ds3  v004
 BYTE   W06
 BYTE   N05
 BYTE   W06
 BYTE   N08  Ds3  v012
 BYTE   W12
 BYTE   N11  Ds3  v028
 BYTE   W12
 BYTE   Ds3  v004
 BYTE   W24
 BYTE   PEND 
//  #10 //013   ----------------------------------------
 BYTE   PATT
  POIN2 Label_54741A
//  #10 //014   ----------------------------------------
 BYTE   PATT
  POIN2 Label_54741A
//  #10 //015   ----------------------------------------
 BYTE   PATT
  POIN2 Label_54741A
//  #10 //016   ----------------------------------------
 BYTE   PATT
  POIN2 Label_54741A
//  #10 //017   ----------------------------------------
 BYTE   PATT
  POIN2 Label_54741A
//  #10 //018   ----------------------------------------
 BYTE   PATT
  POIN2 Label_54741A
//  #10 //019   ----------------------------------------
 BYTE   PATT
  POIN2 Label_54741A
//  #10 //020   ----------------------------------------
 BYTE   N11  Fn3  v028
 BYTE   W12
 BYTE   Fn3  v008
 BYTE   W24
 BYTE   N05  Fn3  v004
 BYTE   W06
 BYTE   N05
 BYTE   W06
 BYTE   N08  Fn3  v012
 BYTE   W12
 BYTE   N11  Fn3  v028
 BYTE   W12
 BYTE   Fn3  v004
 BYTE   W24
//  #10 //021   ----------------------------------------
 BYTE   Fn3  v028
 BYTE   W12
 BYTE   Fn3  v008
 BYTE   W24
 BYTE   N05  Fn3  v004
 BYTE   W06
 BYTE   N05
 BYTE   W54
//  #10 //022   ----------------------------------------
 BYTE   GoTo
  POIN2 Label_547402
 BYTE   FINE

//**************** Track 11 (Midi-Chn.10) ****************//

FE11OffToWarREALxViPerZ_011:
//  #11 //000   ----------------------------------------
 BYTE   KEYSH   FE11OffToWarREALxViPerZ_key+0
Label_01C7A9F2:
 BYTE   VOICE   127
 BYTE   MODT 0
 BYTE   LFOS 44
 BYTE   VOL   112*FE11OffToWarREALxViPerZ_mvl/mxv
 BYTE   PAN   c_v+0
 BYTE   BEND   c_v+0
 BYTE   N04  Cn1  v107
 BYTE   TIE  Cs2  v023
 BYTE   W12
 BYTE   N04  Fs1  v031
 BYTE   W06
 BYTE   N02  Fs1  v019
 BYTE   W06
 BYTE   N11  As1
 BYTE   W12
 BYTE   N02  Fs1
 BYTE   W06
 BYTE   N02
 BYTE   W06
 BYTE   N04  Cn1  v107
 BYTE   N11  As1  v023
 BYTE   W12
 BYTE   N04  Cn1  v107
 BYTE   N02  Fs1  v019
 BYTE   W06
 BYTE   N02
 BYTE   W06
 BYTE   N11  As1
 BYTE   W12
 BYTE   N02  Fs1
 BYTE   W06
 BYTE   N02
 BYTE   W06
//  #11 //001   ----------------------------------------
 BYTE   N04  Cn1  v107
 BYTE   N11  As1  v031
 BYTE   W12
 BYTE   N04  Fs1
 BYTE   W06
 BYTE   N02  Fs1  v019
 BYTE   W06
 BYTE   N11  As1
 BYTE   W12
 BYTE   N02  Fs1
 BYTE   W06
 BYTE   N02
 BYTE   W06
 BYTE   N04  Cn1  v107
 BYTE   N11  As1  v023
 BYTE   W12
 BYTE   N04  Cn1  v107
 BYTE   N02  Fs1  v019
 BYTE   W06
 BYTE   N02
 BYTE   W06
 BYTE   N11  As1
 BYTE   W12
 BYTE   N02  Fs1
 BYTE   W06
 BYTE   N02
 BYTE   W06
//  #11 //002   ----------------------------------------
 BYTE   N04  Cn1  v107
 BYTE   N11  As1  v031
 BYTE   W11
 BYTE   EOT
 BYTE   Cs2
 BYTE   W01
 BYTE   N04  Fs1
 BYTE   W06
 BYTE   N02  Fs1  v019
 BYTE   W06
 BYTE   N11  As1
 BYTE   W12
 BYTE   N02  Fs1
 BYTE   W06
 BYTE   N02
 BYTE   W06
 BYTE   N04  Cn1  v107
 BYTE   N11  As1  v023
 BYTE   W12
 BYTE   N04  Cn1  v107
 BYTE   N02  Fs1  v019
 BYTE   W06
 BYTE   N02
 BYTE   W06
 BYTE   N11  As1
 BYTE   W12
 BYTE   N02  Fs1
 BYTE   W06
 BYTE   N02
 BYTE   W06
//  #11 //003   ----------------------------------------
 BYTE   N04  Cn1  v107
 BYTE   N11  As1  v031
 BYTE   W12
 BYTE   N04  Fs1
 BYTE   W06
 BYTE   N02  Fs1  v019
 BYTE   W06
 BYTE   N11  As1
 BYTE   W12
 BYTE   N02  Fs1
 BYTE   W06
 BYTE   N02
 BYTE   W06
 BYTE   N04  Cn1  v107
 BYTE   N11  As1  v023
 BYTE   W12
 BYTE   N04  Cn1  v107
 BYTE   N02  Fs1  v019
 BYTE   W06
 BYTE   Dn1  v031
 BYTE   W02
 BYTE   En1  v047
 BYTE   W04
 BYTE   N05  Dn1  v091
 BYTE   W06
 BYTE   An1  v059
 BYTE   W06
 BYTE   Gn1
 BYTE   W06
 BYTE   Fn1
 BYTE   W06
//  #11 //004   ----------------------------------------
 BYTE   N04  Cn1  v103
 BYTE   N48  Gn2  v031
 BYTE   W06
 BYTE   N04  Dn1  v039
 BYTE   W06
 BYTE   Dn1  v027
 BYTE   N04  Gs1
 BYTE   N17  Fs2  v059
 BYTE   W12
 BYTE   N04  En1  v087
 BYTE   W06
 BYTE   En1  v027
 BYTE   N11  Fs2
 BYTE   W06
 BYTE   N04  En1  v019
 BYTE   N04  Gs1
 BYTE   W06
 BYTE   En1
 BYTE   N05  Fs2  v023
 BYTE   W06
 BYTE   N04  Cn1  v071
 BYTE   N11  Fs2  v051
 BYTE   W12
 BYTE   N04  Cn1  v071
 BYTE   N04  Gs1  v023
 BYTE   N23  Fs2  v031
 BYTE   W12
 BYTE   N07  Bn2  v027
 BYTE   W12
 BYTE   N04  Dn1  v087
 BYTE   N04  Gs1  v019
 BYTE   N17  Fs2  v027
 BYTE   W06
 BYTE   N04  Dn1
 BYTE   W06
//  #11 //005   ----------------------------------------
Label_01C7AB0A:
 BYTE   N04  Dn1  v019
 BYTE   W06
 BYTE   N04
 BYTE   N05  Fs2  v027
 BYTE   W06
 BYTE   N04  Cn1  v127
 BYTE   N04  Gs1  v027
 BYTE   N11  Fs2  v059
 BYTE   W12
 BYTE   N04  En1
 BYTE   N11  Fs2  v127
 BYTE   W06
 BYTE   N04  En1  v027
 BYTE   W06
 BYTE   En1  v019
 BYTE   N04  Gs1
 BYTE   N22  Fs2  v039
 BYTE   W06
 BYTE   N04  En1  v019
 BYTE   W06
 BYTE   Cn1  v059
 BYTE   W12
 BYTE   N04
 BYTE   N04  Gs1  v023
 BYTE   N11  Fs2  v067
 BYTE   W11
 BYTE   N05  Dn1  v059
 BYTE   W07
 BYTE   N04  Cn1  v103
 BYTE   W06
 BYTE   Gs1  v019
 BYTE   N04  An1  v031
 BYTE   W06
 BYTE   An1  v067
 BYTE   W06
 BYTE   PEND 
//  #11 //006   ----------------------------------------
Label_01C7AB50:
 BYTE   N04  Cn1  v103
 BYTE   N11  As1  v023
 BYTE   W06
 BYTE   N04  Dn1  v039
 BYTE   W05
 BYTE   N05  Dn1  v027
 BYTE   N05  Gs1
 BYTE   N17  Fs2  v059
 BYTE   W13
 BYTE   N04  En1  v087
 BYTE   W06
 BYTE   En1  v027
 BYTE   N11  Fs2
 BYTE   W06
 BYTE   N04  En1  v019
 BYTE   N04  Gs1
 BYTE   W06
 BYTE   En1
 BYTE   N05  Fs2  v023
 BYTE   W06
 BYTE   N04  Cn1  v071
 BYTE   N11  Fs2  v051
 BYTE   W12
 BYTE   N04  Cn1  v071
 BYTE   N04  Gs1  v023
 BYTE   N23  Fs2  v031
 BYTE   W12
 BYTE   N07  Bn2  v027
 BYTE   W12
 BYTE   N04  Dn1  v087
 BYTE   N04  Gs1  v019
 BYTE   N17  Fs2  v027
 BYTE   W06
 BYTE   N04  Dn1
 BYTE   W06
 BYTE   PEND 
//  #11 //007   ----------------------------------------
 BYTE   Dn1  v019
 BYTE   W06
 BYTE   N04
 BYTE   N05  Fs2  v027
 BYTE   W06
 BYTE   N04  Cn1  v127
 BYTE   N04  Gs1  v027
 BYTE   N11  Fs2  v059
 BYTE   W12
 BYTE   N04  En1
 BYTE   N11  Fs2  v127
 BYTE   W06
 BYTE   N04  En1  v027
 BYTE   W06
 BYTE   En1  v019
 BYTE   N04  Gs1
 BYTE   N22  Fs2  v039
 BYTE   W06
 BYTE   N04  En1  v019
 BYTE   W06
 BYTE   Cn1  v059
 BYTE   W12
 BYTE   N04
 BYTE   N04  Gs1  v023
 BYTE   N11  Fs2  v067
 BYTE   W11
 BYTE   N05  Dn1  v059
 BYTE   W07
 BYTE   N04  Cn1  v103
 BYTE   W06
 BYTE   Gn1  v031
 BYTE   N04  Gs1  v019
 BYTE   W06
 BYTE   Fn1  v067
 BYTE   W06
//  #11 //008   ----------------------------------------
 BYTE   Cn1  v103
 BYTE   N48  Cs2  v023
 BYTE   W06
 BYTE   N04  Dn1  v039
 BYTE   W06
 BYTE   Dn1  v027
 BYTE   N04  Gs1
 BYTE   N17  Fs2  v059
 BYTE   W12
 BYTE   N04  En1  v087
 BYTE   W06
 BYTE   En1  v027
 BYTE   N11  Fs2
 BYTE   W06
 BYTE   N04  En1  v019
 BYTE   N04  Gs1
 BYTE   W06
 BYTE   En1
 BYTE   N05  Fs2  v023
 BYTE   W06
 BYTE   N04  Cn1  v071
 BYTE   N11  Fs2  v051
 BYTE   W12
 BYTE   N04  Cn1  v071
 BYTE   N04  Gs1  v023
 BYTE   N23  Fs2  v031
 BYTE   W12
 BYTE   N07  Bn2  v027
 BYTE   W12
 BYTE   N04  Dn1  v087
 BYTE   N04  Gs1  v019
 BYTE   N17  Fs2  v027
 BYTE   W06
 BYTE   N04  Dn1
 BYTE   W06
//  #11 //009   ----------------------------------------
 BYTE   PATT
  POIN2 Label_01C7AB0A
//  #11 //010   ----------------------------------------
 BYTE   PATT
  POIN2 Label_01C7AB50
//  #11 //011   ----------------------------------------
 BYTE   N04  Dn1  v019
 BYTE   W06
 BYTE   N04
 BYTE   N05  Fs2  v027
 BYTE   W06
 BYTE   N04  Cn1  v127
 BYTE   N04  Gs1  v027
 BYTE   N11  Fs2  v059
 BYTE   W12
 BYTE   N04  En1
 BYTE   N11  Fs2  v127
 BYTE   W06
 BYTE   N04  En1  v027
 BYTE   W06
 BYTE   En1  v019
 BYTE   N04  Gs1
 BYTE   N17  Fs2  v039
 BYTE   W06
 BYTE   N04  En1  v019
 BYTE   W06
 BYTE   Cn1  v059
 BYTE   W06
 BYTE   N05  En1  v051
 BYTE   W06
 BYTE   Cn1
 BYTE   W06
 BYTE   N01  Dn1  v031
 BYTE   W02
 BYTE   En1
 BYTE   W04
 BYTE   N05  Dn1  v051
 BYTE   W06
 BYTE   Bn1  v067
 BYTE   W06
 BYTE   An1
 BYTE   W06
 BYTE   Fn1
 BYTE   W06
//  #11 //012   ----------------------------------------
 BYTE   N04  Cn1  v103
 BYTE   N11  As1  v023
 BYTE   W06
 BYTE   N04  Dn1  v039
 BYTE   W06
 BYTE   Cn1  v027
 BYTE   N04  Fs1  v031
 BYTE   W12
 BYTE   En1  v087
 BYTE   N11  As1  v019
 BYTE   W06
 BYTE   N04  En1  v027
 BYTE   W06
 BYTE   En1  v019
 BYTE   N02  Fs1
 BYTE   W06
 BYTE   N04  En1
 BYTE   W06
 BYTE   Cn1  v071
 BYTE   N11  As1  v023
 BYTE   W12
 BYTE   N04  Cn1  v071
 BYTE   N02  Fs1  v019
 BYTE   W12
 BYTE   N11  As1
 BYTE   W12
 BYTE   N04  Dn1  v087
 BYTE   N02  Fs1  v019
 BYTE   W06
 BYTE   N04  Dn1  v027
 BYTE   W06
//  #11 //013   ----------------------------------------
Label_01C7ACB2:
 BYTE   N04  Dn1  v019
 BYTE   N11  As1  v031
 BYTE   W06
 BYTE   N04  Dn1  v019
 BYTE   W06
 BYTE   Cn1  v127
 BYTE   N04  Fs1  v031
 BYTE   W12
 BYTE   En1  v059
 BYTE   N11  As1  v019
 BYTE   W06
 BYTE   N04  En1  v027
 BYTE   W06
 BYTE   En1  v019
 BYTE   N02  Fs1
 BYTE   W06
 BYTE   N04  En1
 BYTE   W06
 BYTE   Cn1  v059
 BYTE   N11  As1  v023
 BYTE   W12
 BYTE   N04  Cn1  v059
 BYTE   N02  Fs1  v019
 BYTE   W12
 BYTE   N04  Dn1  v059
 BYTE   N11  As1  v019
 BYTE   W06
 BYTE   N04  Cn1  v103
 BYTE   W06
 BYTE   N02  Fs1  v019
 BYTE   N04  An1  v031
 BYTE   W06
 BYTE   An1  v067
 BYTE   W06
 BYTE   PEND 
//  #11 //014   ----------------------------------------
Label_01C7ACF8:
 BYTE   N04  Cn1  v103
 BYTE   N11  As1  v031
 BYTE   W06
 BYTE   N04  Dn1  v039
 BYTE   W06
 BYTE   Cn1  v027
 BYTE   N04  Fs1  v031
 BYTE   W12
 BYTE   En1  v087
 BYTE   N11  As1  v019
 BYTE   W06
 BYTE   N04  En1  v027
 BYTE   W06
 BYTE   En1  v019
 BYTE   N02  Fs1
 BYTE   W06
 BYTE   N04  En1
 BYTE   W06
 BYTE   Cn1  v071
 BYTE   N11  As1  v023
 BYTE   W12
 BYTE   N04  Cn1  v071
 BYTE   N02  Fs1  v019
 BYTE   W12
 BYTE   N11  As1
 BYTE   W12
 BYTE   N04  Dn1  v087
 BYTE   N02  Fs1  v019
 BYTE   W06
 BYTE   N04  Dn1  v027
 BYTE   W06
 BYTE   PEND 
//  #11 //015   ----------------------------------------
 BYTE   Dn1  v019
 BYTE   N11  As1  v031
 BYTE   W06
 BYTE   N04  Dn1  v019
 BYTE   W06
 BYTE   Cn1  v127
 BYTE   N04  Fs1  v031
 BYTE   W12
 BYTE   En1  v059
 BYTE   N11  As1  v019
 BYTE   W06
 BYTE   N04  En1  v027
 BYTE   W06
 BYTE   En1  v019
 BYTE   N02  Fs1
 BYTE   W06
 BYTE   N04  En1
 BYTE   W06
 BYTE   Cn1  v059
 BYTE   N11  As1  v023
 BYTE   W12
 BYTE   N04  Cn1  v059
 BYTE   N02  Fs1  v019
 BYTE   W12
 BYTE   N04  Dn1  v059
 BYTE   W06
 BYTE   Cn1  v103
 BYTE   W06
 BYTE   En1  v031
 BYTE   W06
 BYTE   Dn1  v067
 BYTE   W06
//  #11 //016   ----------------------------------------
 BYTE   Cn1  v103
 BYTE   N76  Cs2  v019
 BYTE   W06
 BYTE   N04  Dn1  v039
 BYTE   W06
 BYTE   Cn1  v027
 BYTE   N04  Fs1  v031
 BYTE   W12
 BYTE   En1  v087
 BYTE   N11  As1  v019
 BYTE   W06
 BYTE   N04  En1  v027
 BYTE   W06
 BYTE   En1  v019
 BYTE   N02  Fs1
 BYTE   W06
 BYTE   N04  En1
 BYTE   W06
 BYTE   Cn1  v071
 BYTE   N11  As1  v023
 BYTE   W12
 BYTE   N04  Cn1  v071
 BYTE   N02  Fs1  v019
 BYTE   W12
 BYTE   N11  As1
 BYTE   W12
 BYTE   N04  Dn1  v087
 BYTE   N02  Fs1  v019
 BYTE   W06
 BYTE   N04  Dn1  v027
 BYTE   W06
//  #11 //017   ----------------------------------------
 BYTE   PATT
  POIN2 Label_01C7ACB2
//  #11 //018   ----------------------------------------
 BYTE   PATT
  POIN2 Label_01C7ACF8
//  #11 //019   ----------------------------------------
 BYTE   N04  Dn1  v019
 BYTE   N11  As1  v031
 BYTE   W06
 BYTE   N04  Dn1  v019
 BYTE   W06
 BYTE   Cn1  v127
 BYTE   N04  Fs1  v031
 BYTE   W12
 BYTE   En1  v059
 BYTE   N11  As1  v019
 BYTE   W06
 BYTE   N04  En1  v027
 BYTE   W06
 BYTE   En1  v019
 BYTE   N02  Fs1
 BYTE   W06
 BYTE   N04  En1
 BYTE   W06
 BYTE   Cn1  v059
 BYTE   N11  As1  v023
 BYTE   W06
 BYTE   N04  Dn1  v051
 BYTE   W06
 BYTE   N02  Fs1  v019
 BYTE   W06
 BYTE   N04  Dn1  v031
 BYTE   W06
 BYTE   Dn1  v027
 BYTE   W06
 BYTE   Dn1  v047
 BYTE   W06
 BYTE   Cn1  v103
 BYTE   N04  As1  v031
 BYTE   W12
//  #11 //020   ----------------------------------------
 BYTE   Cn1  v103
 BYTE   N11  As1  v031
 BYTE   W06
 BYTE   N04  Dn1  v039
 BYTE   W06
 BYTE   Cn1  v027
 BYTE   N04  Fs1  v031
 BYTE   W12
 BYTE   En1  v087
 BYTE   N11  As1  v019
 BYTE   W06
 BYTE   N04  En1  v027
 BYTE   W06
 BYTE   En1  v019
 BYTE   N02  Fs1
 BYTE   W06
 BYTE   N04  En1
 BYTE   W06
 BYTE   Cn1  v071
 BYTE   N11  As1  v023
 BYTE   W12
 BYTE   N04  Cn1  v071
 BYTE   N02  Fs1  v019
 BYTE   W12
 BYTE   N11  As1
 BYTE   W12
 BYTE   N04  Dn1  v059
 BYTE   N02  Fs1  v019
 BYTE   W06
 BYTE   N04  En1  v039
 BYTE   W06
//  #11 //021   ----------------------------------------
 BYTE   Dn1  v051
 BYTE   W06
 BYTE   En1  v067
 BYTE   W06
 BYTE   An1
 BYTE   W06
 BYTE   Fn1
 BYTE   W06
 BYTE   Cn1  v091
 BYTE   N06  Gs1  v031
 BYTE   W06
 BYTE   N04  En1
 BYTE   W06
 BYTE   Cn1  v059
 BYTE   N09  As1  v047
 BYTE   W06
 BYTE   N04  En1  v019
 BYTE   W06
 BYTE   An1
 BYTE   W06
 BYTE   An1  v039
 BYTE   W06
 BYTE   Fn1  v059
 BYTE   W06
 BYTE   N02  Dn1  v019
 BYTE   W02
 BYTE   N02
 BYTE   W04
 BYTE   N04  Dn1  v059
 BYTE   W06
 BYTE   Bn1
 BYTE   W06
 BYTE   An1
 BYTE   W06
 BYTE   Fn1
 BYTE   W06
//  #11 //022   ----------------------------------------
 BYTE   GoTo
  POIN2 Label_01C7A9F2
 BYTE   FINE

//******************************************************//
	ALIGN 4

FE11OffToWarREALxViPerZ:
	BYTE	11	// NumTrks
	BYTE	0	// NumBlks
	BYTE	FE11OffToWarREALxViPerZ_pri	// Priority
	BYTE	FE11OffToWarREALxViPerZ_rev	// Reverb.
    
	POIN2	FE11OffToWarREALxViPerZ_grp
    
	POIN2	FE11OffToWarREALxViPerZ_001
	POIN2	FE11OffToWarREALxViPerZ_002
	POIN2	FE11OffToWarREALxViPerZ_003
	POIN2	FE11OffToWarREALxViPerZ_004
	POIN2	FE11OffToWarREALxViPerZ_005
	POIN2	FE11OffToWarREALxViPerZ_006
	POIN2	FE11OffToWarREALxViPerZ_007
	POIN2	FE11OffToWarREALxViPerZ_008
	POIN2	FE11OffToWarREALxViPerZ_009
	POIN2	FE11OffToWarREALxViPerZ_010
	POIN2	FE11OffToWarREALxViPerZ_011

	
