//Event file generated from Sappy .s format.
	#include "MPlayDef.event"

	#define	FE11AttackAzula_grp  voicegroup000
	#define	FE11AttackAzula_pri  0
	#define	FE11AttackAzula_rev  0
	#define	FE11AttackAzula_mvl  127
	#define	FE11AttackAzula_key  0
	#define	FE11AttackAzula_tbs  1
	#define	FE11AttackAzula_exg  0
	#define	FE11AttackAzula_cmp  1

	// .rodata
	//	FE11AttackAzula
	ALIGN 4


//**************** Track 1 (Midi-Chn.0) ****************//

FE11AttackAzula_001:
//  #01 //000   ----------------------------------------
 BYTE   KEYSH   FE11AttackAzula_key+0
 BYTE   TEMPO   132*FE11AttackAzula_tbs/2
 BYTE   VOICE   47
 BYTE   MODT 0
 BYTE   LFOS 44
 BYTE   VOL   35*FE11AttackAzula_mvl/mxv
 BYTE   PAN   c_v+0
 BYTE   W36
Label_55D203:
 BYTE   N18  Cn3  v124
 BYTE   W60
//  #01 //001   ----------------------------------------
 BYTE   W12
 BYTE   Cs3
 BYTE   W72
 BYTE   Cn3
 BYTE   W12
//  #01 //002   ----------------------------------------
 BYTE   W48
 BYTE   N11  Cn3  v127
 BYTE   W12
 BYTE   Cs3  v124
 BYTE   W24
 BYTE   Dn3
 BYTE   W12
//  #01 //003   ----------------------------------------
 BYTE   W12
 BYTE   Ds3
 BYTE   W24
 BYTE   N18  Cn3
 BYTE   W60
//  #01 //004   ----------------------------------------
 BYTE   W12
 BYTE   Cs3
 BYTE   W72
 BYTE   N11  En3  v127
 BYTE   W12
//  #01 //005   ----------------------------------------
 BYTE   W12
 BYTE   N11
 BYTE   W12
 BYTE   N11
 BYTE   W24
 BYTE   N11
 BYTE   W12
 BYTE   Fn3
 BYTE   W24
 BYTE   N11
 BYTE   W12
//  #01 //006   ----------------------------------------
 BYTE   N11
 BYTE   W36
 BYTE   GoTo
  POIN2 Label_55D203
 BYTE   FINE

//**************** Track 2 (Midi-Chn.1) ****************//

FE11AttackAzula_002:
//  #02 //000   ----------------------------------------
 BYTE   KEYSH   FE11AttackAzula_key+0
 BYTE   VOICE   34
 BYTE   MODT 0
 BYTE   LFOS 44
 BYTE   PAN   c_v-13
 BYTE   VOL   78*FE11AttackAzula_mvl/mxv
 BYTE   W36
Label_55D2F9:
 BYTE   N05  Cn2  v080
 BYTE   W06
 BYTE   Cn2  v064
 BYTE   W06
 BYTE   Dn2  v080
 BYTE   W06
 BYTE   Dn2  v064
 BYTE   W06
 BYTE   N10  Ds2  v080
 BYTE   W12
 BYTE   N05  Fn2
 BYTE   W06
 BYTE   Cn2
 BYTE   W06
 BYTE   Cn2  v064
 BYTE   W06
 BYTE   Dn2  v080
 BYTE   W06
//  #02 //001   ----------------------------------------
 BYTE   Ds2
 BYTE   W06
 BYTE   Fn2
 BYTE   W06
 BYTE   Cn2
 BYTE   W06
 BYTE   Cn2  v064
 BYTE   W06
 BYTE   Dn2  v080
 BYTE   W06
 BYTE   Dn2  v064
 BYTE   W06
 BYTE   N10  Ds2  v080
 BYTE   W12
 BYTE   N05  Fn2
 BYTE   W06
 BYTE   Cn2
 BYTE   W06
 BYTE   Cn2  v064
 BYTE   W06
 BYTE   Dn2  v080
 BYTE   W06
 BYTE   Ds2
 BYTE   W06
 BYTE   Fn2
 BYTE   W06
 BYTE   Cn2
 BYTE   W06
 BYTE   Cn2  v064
 BYTE   W06
//  #02 //002   ----------------------------------------
 BYTE   Dn2  v080
 BYTE   W06
 BYTE   Dn2  v064
 BYTE   W06
 BYTE   N10  Ds2  v080
 BYTE   W12
 BYTE   N05  Fn2
 BYTE   W06
 BYTE   Cn2
 BYTE   W06
 BYTE   Cn2  v064
 BYTE   W06
 BYTE   Dn2  v080
 BYTE   W06
 BYTE   Ds2
 BYTE   W06
 BYTE   Fn2
 BYTE   W06
 BYTE   Cn2
 BYTE   W06
 BYTE   Cn2  v064
 BYTE   W06
 BYTE   Dn2  v080
 BYTE   W06
 BYTE   Dn2  v064
 BYTE   W06
 BYTE   N10  Ds2  v080
 BYTE   W12
//  #02 //003   ----------------------------------------
 BYTE   N05  Fn2
 BYTE   W06
 BYTE   Cn2
 BYTE   W06
 BYTE   Cn2  v064
 BYTE   W06
 BYTE   Dn2  v080
 BYTE   W06
 BYTE   Ds2
 BYTE   W06
 BYTE   Fn2
 BYTE   W06
 BYTE   Cn2
 BYTE   W06
 BYTE   Cn2  v064
 BYTE   W06
 BYTE   Dn2  v080
 BYTE   W06
 BYTE   Dn2  v064
 BYTE   W06
 BYTE   N10  Ds2  v080
 BYTE   W12
 BYTE   N05  Fn2
 BYTE   W06
 BYTE   Cn2
 BYTE   W06
 BYTE   Cn2  v064
 BYTE   W06
 BYTE   Dn2  v080
 BYTE   W06
//  #02 //004   ----------------------------------------
 BYTE   Ds2
 BYTE   W06
 BYTE   Fn2
 BYTE   W06
 BYTE   Cn2
 BYTE   W06
 BYTE   Cn2  v064
 BYTE   W06
 BYTE   Dn2  v080
 BYTE   W06
 BYTE   Dn2  v064
 BYTE   W06
 BYTE   N10  Ds2  v080
 BYTE   W12
 BYTE   N05  Fn2
 BYTE   W06
 BYTE   Cn2
 BYTE   W06
 BYTE   Cn2  v064
 BYTE   W06
 BYTE   Dn2  v080
 BYTE   W06
 BYTE   Ds2
 BYTE   W06
 BYTE   Fn2
 BYTE   W06
 BYTE   N10  Gn2
 BYTE   W12
//  #02 //005   ----------------------------------------
 BYTE   N05  Gn2  v064
 BYTE   W12
 BYTE   N07  Gn2  v080
 BYTE   W12
 BYTE   N10
 BYTE   W12
 BYTE   N05  Gn2  v064
 BYTE   W12
 BYTE   N07  Gn2  v080
 BYTE   W12
 BYTE   N10  Gn1
 BYTE   W12
 BYTE   N05  Gn1  v064
 BYTE   W12
 BYTE   N07  Gn1  v080
 BYTE   W12
//  #02 //006   ----------------------------------------
 BYTE   N10
 BYTE   W12
 BYTE   N05  Gn1  v064
 BYTE   W12
 BYTE   N07  Gn1  v080
 BYTE   W12
 BYTE   GoTo
  POIN2 Label_55D2F9
 BYTE   FINE

//**************** Track 3 (Midi-Chn.2) ****************//

FE11AttackAzula_003:
//  #03 //000   ----------------------------------------
 BYTE   KEYSH   FE11AttackAzula_key+0
 BYTE   VOICE   1
 BYTE   MODT 0
 BYTE   LFOS 44
 BYTE   VOL   27*FE11AttackAzula_mvl/mxv
 BYTE   W36
Label_55D053:
 BYTE   PAN   c_v+25
 BYTE   N72  Gn2  v127
 BYTE   W60
//  #03 //001   ----------------------------------------
 BYTE   W12
 BYTE   Gs2
 BYTE   W72
 BYTE   Gn2
 BYTE   W12
//  #03 //002   ----------------------------------------
 BYTE   W60
 BYTE   N24  Gs2
 BYTE   W24
 BYTE   As2
 BYTE   W12
//  #03 //003   ----------------------------------------
 BYTE   W12
 BYTE   Cn3
 BYTE   W24
 BYTE   N03  Cn3  v088
 BYTE   W04
 BYTE   Gn2
 BYTE   W04
 BYTE   Cn3
 BYTE   W04
 BYTE   Ds3
 BYTE   W04
 BYTE   Cn3  v092
 BYTE   W04
 BYTE   Ds3
 BYTE   W04
 BYTE   Gn3
 BYTE   W04
 BYTE   Cn3
 BYTE   W04
 BYTE   Gn3
 BYTE   W04
 BYTE   Cn4
 BYTE   W04
 BYTE   Gn3
 BYTE   W04
 BYTE   Cn4
 BYTE   W04
 BYTE   Ds4
 BYTE   W04
 BYTE   Cn4
 BYTE   W04
 BYTE   Ds4
 BYTE   W04
//  #03 //004   ----------------------------------------
 BYTE   Gn4
 BYTE   W04
 BYTE   Ds4
 BYTE   W04
 BYTE   Gn4
 BYTE   W04
 BYTE   Cn3
 BYTE   W04
 BYTE   Gs2
 BYTE   W04
 BYTE   Cn3
 BYTE   W04
 BYTE   Ds3
 BYTE   W04
 BYTE   Cn3
 BYTE   W04
 BYTE   Ds3
 BYTE   W04
 BYTE   Gs3
 BYTE   W04
 BYTE   Ds3
 BYTE   W04
 BYTE   Gs3
 BYTE   W04
 BYTE   Cn4
 BYTE   W04
 BYTE   Gs3
 BYTE   W04
 BYTE   Cn4
 BYTE   W04
 BYTE   Ds4
 BYTE   W04
 BYTE   Cn4
 BYTE   W04
 BYTE   Ds4
 BYTE   W04
 BYTE   Gs4
 BYTE   W04
 BYTE   Ds4
 BYTE   W04
 BYTE   Gs4
 BYTE   W04
 BYTE   Gn5  v076
 BYTE   W04
 BYTE   Dn5
 BYTE   W04
 BYTE   Cn5
 BYTE   W04
//  #03 //005   ----------------------------------------
 BYTE   Dn5
 BYTE   W04
 BYTE   Cn5
 BYTE   W04
 BYTE   Gn4  v092
 BYTE   W04
 BYTE   Dn4
 BYTE   W04
 BYTE   Cn4
 BYTE   W04
 BYTE   Gn3
 BYTE   W04
 BYTE   Gn2
 BYTE   W04
 BYTE   Cn3
 BYTE   W04
 BYTE   Dn3
 BYTE   W04
 BYTE   Gn3
 BYTE   W04
 BYTE   Cn4
 BYTE   W04
 BYTE   Dn4
 BYTE   W04
 BYTE   Gn4
 BYTE   W04
 BYTE   Cn5  v076
 BYTE   W04
 BYTE   Dn5
 BYTE   W04
 BYTE   Gn5
 BYTE   W04
 BYTE   Dn5
 BYTE   W04
 BYTE   Bn4  v088
 BYTE   W04
 BYTE   Dn5  v076
 BYTE   W04
 BYTE   Bn4  v080
 BYTE   W04
 BYTE   Gn4  v092
 BYTE   W04
 BYTE   Bn4
 BYTE   W04
 BYTE   Gn4
 BYTE   W04
 BYTE   Dn4
 BYTE   W04
//  #03 //006   ----------------------------------------
 BYTE   Gn4
 BYTE   W04
 BYTE   Dn4
 BYTE   W04
 BYTE   Bn3
 BYTE   W04
 BYTE   Dn4
 BYTE   W04
 BYTE   Bn3
 BYTE   W04
 BYTE   Gn3
 BYTE   W04
 BYTE   Bn3
 BYTE   W04
 BYTE   Gn3
 BYTE   W04
 BYTE   Bn3
 BYTE   W04
 BYTE   GoTo
  POIN2 Label_55D053
//  #03 //007   ----------------------------------------
 BYTE   PAN   c_v+25
 BYTE   FINE

//**************** Track 4 (Midi-Chn.3) ****************//

FE11AttackAzula_004:
//  #04 //000   ----------------------------------------
 BYTE   KEYSH   FE11AttackAzula_key+0
 BYTE   VOICE   48
 BYTE   MODT 0
 BYTE   LFOS 44
 BYTE   VOL   59*FE11AttackAzula_mvl/mxv
 BYTE   W36
Label_01022B1B:
 BYTE   PAN   c_v+12
 BYTE   N05  Gn2  v080
 BYTE   N05  Cn3
 BYTE   W06
 BYTE   Gn2
 BYTE   N05  Cn3
 BYTE   W06
 BYTE   Gs2
 BYTE   N05  Dn3
 BYTE   W06
 BYTE   Gs2
 BYTE   N05  Dn3
 BYTE   W06
 BYTE   N10  As2
 BYTE   N10  Ds3
 BYTE   W12
 BYTE   N05  Cn3
 BYTE   N05  Fn3
 BYTE   W06
 BYTE   Gn2
 BYTE   N05  Cn3
 BYTE   W06
 BYTE   Gn2
 BYTE   N05  Cn3
 BYTE   W06
 BYTE   Gs2
 BYTE   N05  Dn3
 BYTE   W06
//  #04 //001   ----------------------------------------
 BYTE   As2
 BYTE   N05  Ds3
 BYTE   W06
 BYTE   Cn3
 BYTE   N05  Fn3
 BYTE   W06
 BYTE   Gn2
 BYTE   N05  Cn3
 BYTE   W06
 BYTE   Gn2
 BYTE   N05  Cn3
 BYTE   W06
 BYTE   Gs2
 BYTE   N05  Dn3
 BYTE   W06
 BYTE   Gs2
 BYTE   N05  Dn3
 BYTE   W06
 BYTE   N10  As2
 BYTE   N10  Ds3
 BYTE   W12
 BYTE   N05  Cn3
 BYTE   N05  Fn3
 BYTE   W06
 BYTE   Gn2
 BYTE   N05  Cn3
 BYTE   W06
 BYTE   Gn2
 BYTE   N05  Cn3
 BYTE   W06
 BYTE   Gs2
 BYTE   N05  Dn3
 BYTE   W06
 BYTE   As2
 BYTE   N05  Ds3
 BYTE   W06
 BYTE   Cn3
 BYTE   N05  Fn3
 BYTE   W06
 BYTE   Gn2
 BYTE   N05  Cn3
 BYTE   W06
 BYTE   Gn2
 BYTE   N05  Cn3
 BYTE   W06
//  #04 //002   ----------------------------------------
 BYTE   Gs2
 BYTE   N05  Dn3
 BYTE   W06
 BYTE   Gs2
 BYTE   N05  Dn3
 BYTE   W06
 BYTE   N10  As2
 BYTE   N10  Ds3
 BYTE   W12
 BYTE   N05  Cn3
 BYTE   N05  Fn3
 BYTE   W06
 BYTE   Gn2
 BYTE   N05  Cn3
 BYTE   W06
 BYTE   Gn2
 BYTE   N05  Cn3
 BYTE   W06
 BYTE   Gs2
 BYTE   N05  Dn3
 BYTE   W06
 BYTE   As2
 BYTE   N05  Ds3
 BYTE   W06
 BYTE   Cn3
 BYTE   N05  Fn3
 BYTE   W06
 BYTE   N22  Gs2
 BYTE   N22  Cs3
 BYTE   W24
 BYTE   As2
 BYTE   N22  Ds3
 BYTE   W12
//  #04 //003   ----------------------------------------
 BYTE   W12
 BYTE   Cn3
 BYTE   N22  Fn3
 BYTE   W24
 BYTE   N03  Cn3
 BYTE   W04
 BYTE   Gn2
 BYTE   W04
 BYTE   Cn3
 BYTE   W04
 BYTE   Ds3
 BYTE   W04
 BYTE   Cn3
 BYTE   W04
 BYTE   Ds3
 BYTE   W04
 BYTE   Gn3
 BYTE   W04
 BYTE   Cn3
 BYTE   W04
 BYTE   Gn3
 BYTE   W04
 BYTE   Cn4
 BYTE   W04
 BYTE   Gn3
 BYTE   W04
 BYTE   Cn4
 BYTE   W04
 BYTE   Ds4
 BYTE   W04
 BYTE   Cn4
 BYTE   W04
 BYTE   Ds4
 BYTE   W04
//  #04 //004   ----------------------------------------
 BYTE   Gn4
 BYTE   W04
 BYTE   Ds4
 BYTE   W04
 BYTE   Gn4
 BYTE   W04
 BYTE   Cn3
 BYTE   W04
 BYTE   Gs2
 BYTE   W04
 BYTE   Cn3
 BYTE   W04
 BYTE   Ds3
 BYTE   W04
 BYTE   Cn3
 BYTE   W04
 BYTE   Ds3
 BYTE   W04
 BYTE   Gs3
 BYTE   W04
 BYTE   Ds3
 BYTE   W04
 BYTE   Gs3
 BYTE   W04
 BYTE   Cn4
 BYTE   W04
 BYTE   Gs3
 BYTE   W04
 BYTE   Cn4
 BYTE   W04
 BYTE   Ds4
 BYTE   W04
 BYTE   Cn4
 BYTE   W04
 BYTE   Ds4
 BYTE   W04
 BYTE   Gs4
 BYTE   W04
 BYTE   Ds4
 BYTE   W04
 BYTE   Gs4
 BYTE   W04
 BYTE   Gn5
 BYTE   W04
 BYTE   Dn5
 BYTE   W04
 BYTE   Cn5
 BYTE   W04
//  #04 //005   ----------------------------------------
 BYTE   Dn5
 BYTE   W04
 BYTE   Cn5
 BYTE   W04
 BYTE   Gn4
 BYTE   W04
 BYTE   Dn4
 BYTE   W04
 BYTE   Cn4
 BYTE   W04
 BYTE   Gn3
 BYTE   W04
 BYTE   Gn2
 BYTE   W04
 BYTE   Cn3
 BYTE   W04
 BYTE   Dn3
 BYTE   W04
 BYTE   Gn3
 BYTE   W04
 BYTE   Cn4
 BYTE   W04
 BYTE   Dn4
 BYTE   W04
 BYTE   Gn4
 BYTE   W04
 BYTE   Cn5
 BYTE   W04
 BYTE   Dn5
 BYTE   W04
 BYTE   Gn5
 BYTE   W04
 BYTE   Dn5
 BYTE   W04
 BYTE   Bn4
 BYTE   W04
 BYTE   Dn5
 BYTE   W04
 BYTE   Bn4
 BYTE   W04
 BYTE   Gn4
 BYTE   W04
 BYTE   Bn4
 BYTE   W04
 BYTE   Gn4
 BYTE   W04
 BYTE   Dn4
 BYTE   W04
//  #04 //006   ----------------------------------------
 BYTE   Gn4
 BYTE   W04
 BYTE   Dn4
 BYTE   W04
 BYTE   Bn3
 BYTE   W04
 BYTE   Dn4
 BYTE   W04
 BYTE   Bn3
 BYTE   W04
 BYTE   Gn3
 BYTE   W04
 BYTE   Bn3
 BYTE   W04
 BYTE   Gn3
 BYTE   W04
 BYTE   Bn3
 BYTE   W04
 BYTE   GoTo
  POIN2 Label_01022B1B
//  #04 //007   ----------------------------------------
 BYTE   PAN   c_v+12
 BYTE   FINE

//**************** Track 5 (Midi-Chn.4) ****************//

FE11AttackAzula_005:
//  #05 //000   ----------------------------------------
 BYTE   KEYSH   FE11AttackAzula_key+0
 BYTE   VOICE   52
 BYTE   MODT 0
 BYTE   LFOS 44
 BYTE   VOL   25*FE11AttackAzula_mvl/mxv
 BYTE   W36
Label_55D143:
 BYTE   PAN   c_v+10
 BYTE   N72  Cn3  v124
 BYTE   W60
//  #05 //001   ----------------------------------------
 BYTE   W12
 BYTE   Cs3
 BYTE   W72
 BYTE   N56  Cn3
 BYTE   W12
//  #05 //002   ----------------------------------------
 BYTE   W48
 BYTE   N11  Cn3  v127
 BYTE   W12
 BYTE   N24  Cs3  v124
 BYTE   W24
 BYTE   Dn3
 BYTE   W12
//  #05 //003   ----------------------------------------
 BYTE   W12
 BYTE   Ds3
 BYTE   W24
 BYTE   N72  Cn3
 BYTE   W60
//  #05 //004   ----------------------------------------
 BYTE   W12
 BYTE   Cs3
 BYTE   W72
 BYTE   N24  En3  v127
 BYTE   W12
//  #05 //005   ----------------------------------------
 BYTE   W12
 BYTE   N11
 BYTE   W12
 BYTE   N24
 BYTE   W24
 BYTE   N11
 BYTE   W12
 BYTE   N24  Fn3
 BYTE   W24
 BYTE   N11
 BYTE   W12
//  #05 //006   ----------------------------------------
 BYTE   N24
 BYTE   W24
 BYTE   N11
 BYTE   W12
 BYTE   GoTo
  POIN2 Label_55D143
//  #05 //007   ----------------------------------------
 BYTE   PAN   c_v+10
 BYTE   FINE

//**************** Track 6 (Midi-Chn.5) ****************//

FE11AttackAzula_006:
//  #06 //000   ----------------------------------------
 BYTE   KEYSH   FE11AttackAzula_key+0
 BYTE   VOICE   1
 BYTE   MODT 0
 BYTE   LFOS 44
 BYTE   VOL   27*FE11AttackAzula_mvl/mxv
 BYTE   W36
Label_55D433:
 BYTE   PAN   c_v-25
 BYTE   TIE  Cn3  v124
 BYTE   W60
//  #06 //001   ----------------------------------------
 BYTE   W84
 BYTE   EOT
 BYTE   N72
 BYTE   W12
//  #06 //002   ----------------------------------------
 BYTE   W60
 BYTE   N24  Cs3
 BYTE   W24
 BYTE   Ds3
 BYTE   W12
//  #06 //003   ----------------------------------------
 BYTE   W12
 BYTE   Fn3
 BYTE   W24
 BYTE   N03  Cn3  v076
 BYTE   W04
 BYTE   Gn2
 BYTE   W04
 BYTE   Cn3
 BYTE   W04
 BYTE   Ds3
 BYTE   W04
 BYTE   Cn3  v080
 BYTE   W04
 BYTE   Ds3
 BYTE   W04
 BYTE   Gn3
 BYTE   W04
 BYTE   Cn3
 BYTE   W04
 BYTE   Gn3
 BYTE   W04
 BYTE   Cn4
 BYTE   W04
 BYTE   Gn3
 BYTE   W04
 BYTE   Cn4
 BYTE   W04
 BYTE   Ds4
 BYTE   W04
 BYTE   Cn4
 BYTE   W04
 BYTE   Ds4
 BYTE   W04
//  #06 //004   ----------------------------------------
 BYTE   Gn4
 BYTE   W04
 BYTE   Ds4
 BYTE   W04
 BYTE   Gn4
 BYTE   W04
 BYTE   Cn3
 BYTE   W04
 BYTE   Gs2
 BYTE   W04
 BYTE   Cn3
 BYTE   W04
 BYTE   Ds3
 BYTE   W04
 BYTE   Cn3
 BYTE   W04
 BYTE   Ds3
 BYTE   W04
 BYTE   Gs3
 BYTE   W04
 BYTE   Ds3
 BYTE   W04
 BYTE   Gs3
 BYTE   W04
 BYTE   Cn4
 BYTE   W04
 BYTE   Gs3
 BYTE   W04
 BYTE   Cn4
 BYTE   W04
 BYTE   Ds4
 BYTE   W04
 BYTE   Cn4
 BYTE   W04
 BYTE   Ds4
 BYTE   W04
 BYTE   Gs4
 BYTE   W04
 BYTE   Ds4
 BYTE   W04
 BYTE   Gs4
 BYTE   W04
 BYTE   Gn5
 BYTE   W04
 BYTE   Dn5
 BYTE   W04
 BYTE   Cn5
 BYTE   W04
//  #06 //005   ----------------------------------------
 BYTE   Dn5
 BYTE   W04
 BYTE   Cn5
 BYTE   W04
 BYTE   Gn4
 BYTE   W04
 BYTE   Dn4
 BYTE   W04
 BYTE   Cn4
 BYTE   W04
 BYTE   Gn3
 BYTE   W04
 BYTE   Gn2
 BYTE   W04
 BYTE   Cn3
 BYTE   W04
 BYTE   Dn3
 BYTE   W04
 BYTE   Gn3
 BYTE   W04
 BYTE   Cn4
 BYTE   W04
 BYTE   Dn4
 BYTE   W04
 BYTE   Gn4
 BYTE   W04
 BYTE   Cn5
 BYTE   W04
 BYTE   Dn5
 BYTE   W04
 BYTE   Gn5
 BYTE   W04
 BYTE   Dn5
 BYTE   W04
 BYTE   Bn4
 BYTE   W04
 BYTE   Dn5
 BYTE   W04
 BYTE   Bn4
 BYTE   W04
 BYTE   Gn4
 BYTE   W04
 BYTE   Bn4
 BYTE   W04
 BYTE   Gn4
 BYTE   W04
 BYTE   Dn4
 BYTE   W04
//  #06 //006   ----------------------------------------
 BYTE   Gn4
 BYTE   W04
 BYTE   Dn4
 BYTE   W04
 BYTE   Bn3
 BYTE   W04
 BYTE   Dn4
 BYTE   W04
 BYTE   Bn3
 BYTE   W04
 BYTE   Gn3
 BYTE   W04
 BYTE   Bn3
 BYTE   W04
 BYTE   Gn3
 BYTE   W04
 BYTE   Bn3
 BYTE   W04
 BYTE   GoTo
  POIN2 Label_55D433
//  #06 //007   ----------------------------------------
 BYTE   PAN   c_v-25
 BYTE   FINE

//**************** Track 7 (Midi-Chn.6) ****************//

FE11AttackAzula_007:
//  #07 //000   ----------------------------------------
 BYTE   KEYSH   FE11AttackAzula_key+0
 BYTE   VOICE   127
 BYTE   MODT 0
 BYTE   LFOS 44
 BYTE   VOL   42*FE11AttackAzula_mvl/mxv
 BYTE   PAN   c_v-2
 BYTE   N02  Dn1  v127
 BYTE   W03
 BYTE   N02
 BYTE   W03
 BYTE   N02
 BYTE   W03
 BYTE   N02
 BYTE   W03
 BYTE   N03  Cn1
 BYTE   N02  Dn1
 BYTE   W03
 BYTE   En1
 BYTE   W03
 BYTE   Dn1
 BYTE   W03
 BYTE   En1
 BYTE   W03
 BYTE   N03  Cn1
 BYTE   N05  Gn1
 BYTE   W06
 BYTE   Fn1
 BYTE   W06
Label_0103BA10:
 BYTE   N03  Cn1  v080
 BYTE   N11  Cs2
 BYTE   W12
 BYTE   N01  Gs1
 BYTE   N05  Fn2
 BYTE   W06
 BYTE   Fn2  v044
 BYTE   W06
 BYTE   Fn2  v080
 BYTE   W06
 BYTE   Fn2  v044
 BYTE   W06
 BYTE   N03  Cn1  v080
 BYTE   N01  Gs1
 BYTE   N05  Fn2
 BYTE   W06
 BYTE   N05
 BYTE   W06
 BYTE   Fn2  v044
 BYTE   W06
 BYTE   Fn2  v080
 BYTE   W06
//  #07 //001   ----------------------------------------
 BYTE   N03  Cn1
 BYTE   N01  Gs1
 BYTE   N05  Fn2
 BYTE   W06
 BYTE   N02
 BYTE   W03
 BYTE   Fn2  v052
 BYTE   W03
 BYTE   N03  Cn1  v080
 BYTE   N05  Fn2
 BYTE   W06
 BYTE   N05
 BYTE   W06
 BYTE   N01  Gs1
 BYTE   N05  Fn2
 BYTE   W06
 BYTE   Fn2  v044
 BYTE   W06
 BYTE   Fn2  v080
 BYTE   W06
 BYTE   Fn2  v044
 BYTE   W06
 BYTE   N03  Cn1  v080
 BYTE   N01  Gs1
 BYTE   N05  Fn2
 BYTE   W06
 BYTE   N05
 BYTE   W06
 BYTE   Fn2  v044
 BYTE   W06
 BYTE   Fn2  v080
 BYTE   W06
 BYTE   N03  Cn1
 BYTE   N01  Gs1
 BYTE   N05  Fn2  v044
 BYTE   W06
 BYTE   N03  Cn1  v080
 BYTE   N05  Fn2
 BYTE   W06
 BYTE   N03  Cn1
 BYTE   N05  Fn2
 BYTE   W06
 BYTE   Fn2  v044
 BYTE   W06
//  #07 //002   ----------------------------------------
 BYTE   N01  Gs1  v080
 BYTE   N05  Fn2
 BYTE   W06
 BYTE   Fn2  v044
 BYTE   W06
 BYTE   Fn2  v080
 BYTE   W06
 BYTE   N02
 BYTE   W03
 BYTE   Fn2  v052
 BYTE   W03
 BYTE   N03  Cn1  v080
 BYTE   N01  Gs1
 BYTE   N05  Fn2
 BYTE   W06
 BYTE   N06
 BYTE   W12
 BYTE   N05
 BYTE   W06
 BYTE   N03  Cn1
 BYTE   N01  Gs1
 BYTE   N06  Fn2
 BYTE   W12
 BYTE   N03  Cn1
 BYTE   N05  Fn2
 BYTE   W06
 BYTE   N05
 BYTE   W06
 BYTE   N01  Gs1
 BYTE   N05  Fn2
 BYTE   W06
 BYTE   N05
 BYTE   W06
 BYTE   N05
 BYTE   W06
 BYTE   N05
 BYTE   W06
//  #07 //003   ----------------------------------------
 BYTE   N03  Cn1
 BYTE   N01  Gs1
 BYTE   N05  Fn2  v044
 BYTE   W06
 BYTE   Fn2  v080
 BYTE   W06
 BYTE   Fn2  v044
 BYTE   W06
 BYTE   Fn2  v080
 BYTE   W06
 BYTE   N03  Cn1
 BYTE   N01  Gs1
 BYTE   N05  Fn2
 BYTE   W06
 BYTE   N03  Cn1
 BYTE   N05  Fn2
 BYTE   W06
 BYTE   N03  Cn1
 BYTE   N11  Cs2
 BYTE   W12
 BYTE   N01  Gs1
 BYTE   N05  Fn2
 BYTE   W06
 BYTE   Fn2  v044
 BYTE   W06
 BYTE   Fn2  v080
 BYTE   W06
 BYTE   N05
 BYTE   W06
 BYTE   N03  Cn1
 BYTE   N01  Gs1
 BYTE   N05  Fn2
 BYTE   W06
 BYTE   N05
 BYTE   W06
 BYTE   Fn2  v076
 BYTE   W06
 BYTE   Fn2  v080
 BYTE   W06
//  #07 //004   ----------------------------------------
 BYTE   N03  Cn1
 BYTE   N01  Gs1
 BYTE   N06  Fn2
 BYTE   W12
 BYTE   N03  Cn1
 BYTE   N05  Fn2
 BYTE   W06
 BYTE   N05
 BYTE   W06
 BYTE   N01  Gs1
 BYTE   N05  Fn2
 BYTE   W06
 BYTE   N05
 BYTE   W06
 BYTE   N05
 BYTE   W06
 BYTE   Fn2  v076
 BYTE   W06
 BYTE   N03  Cn1  v080
 BYTE   N01  Gs1
 BYTE   N05  Fn2
 BYTE   W06
 BYTE   N05
 BYTE   W06
 BYTE   N05
 BYTE   W06
 BYTE   N05
 BYTE   W06
 BYTE   N03  Cn1
 BYTE   N01  Gs1
 BYTE   N05  Fn2
 BYTE   W06
 BYTE   N05
 BYTE   W06
 BYTE   N03  Cn1
 BYTE   N11  Cs2
 BYTE   W12
//  #07 //005   ----------------------------------------
 BYTE   W12
 BYTE   N03  Cn1
 BYTE   N01  Gs1
 BYTE   W12
 BYTE   N03  Cn1
 BYTE   N11  En2
 BYTE   W24
 BYTE   N03  Cn1
 BYTE   N01  Gs1
 BYTE   W12
 BYTE   N02  Dn1
 BYTE   N09  Cs2
 BYTE   W06
 BYTE   N02  Dn1
 BYTE   W12
 BYTE   En1
 BYTE   W06
 BYTE   N02
 BYTE   N11  Gn2
 BYTE   W03
 BYTE   N02  Dn1
 BYTE   W03
 BYTE   N01  En1
 BYTE   W02
 BYTE   Dn1
 BYTE   W02
 BYTE   En1
 BYTE   W02
//  #07 //006   ----------------------------------------
 BYTE   N02  Cn2
 BYTE   W03
 BYTE   Dn1
 BYTE   W03
 BYTE   En1
 BYTE   W03
 BYTE   Dn1
 BYTE   W03
 BYTE   N03  Cn1
 BYTE   N02  En1
 BYTE   W03
 BYTE   Dn1
 BYTE   W03
 BYTE   N05  An1
 BYTE   W06
 BYTE   N03  Cn1
 BYTE   N05  Gn1
 BYTE   W06
 BYTE   Fn1
 BYTE   W06
 BYTE   GoTo
  POIN2 Label_0103BA10
 BYTE   FINE

//******************************************************//
	ALIGN 4

FE11AttackAzula:
	BYTE	7	// NumTrks
	BYTE	0	// NumBlks
	BYTE	FE11AttackAzula_pri	// Priority
	BYTE	FE11AttackAzula_rev	// Reverb.
    
	POIN2	FE11AttackAzula_grp
    
	POIN2	FE11AttackAzula_001
	POIN2	FE11AttackAzula_002
	POIN2	FE11AttackAzula_003
	POIN2	FE11AttackAzula_004
	POIN2	FE11AttackAzula_005
	POIN2	FE11AttackAzula_006
	POIN2	FE11AttackAzula_007

	
