//Event file generated from Sappy .s format.
	#include "MPlayDef.event"

	#define	FE11TroubleAzula_grp  voicegroup000
	#define	FE11TroubleAzula_pri  0
	#define	FE11TroubleAzula_rev  0
	#define	FE11TroubleAzula_mvl  127
	#define	FE11TroubleAzula_key  0
	#define	FE11TroubleAzula_tbs  1
	#define	FE11TroubleAzula_exg  0
	#define	FE11TroubleAzula_cmp  1

	// .rodata
	//	FE11TroubleAzula
	ALIGN 4


//**************** Track 1 (Midi-Chn.0) ****************//

FE11TroubleAzula_001:
//  #01 //000   ----------------------------------------
 BYTE   KEYSH   FE11TroubleAzula_key+0
Label_01009FBA:
 BYTE   TEMPO   120*FE11TroubleAzula_tbs/2
 BYTE   VOICE   48
 BYTE   MODT 0
 BYTE   LFOS 44
 BYTE   PAN   c_v-1
 BYTE   VOL   57*FE11TroubleAzula_mvl/mxv
 BYTE   N02  Dn3  v064
 BYTE   N05  Dn4  v112
 BYTE   W06
 BYTE   N02  Cn1  v048
 BYTE   N05  Cn4  v080
 BYTE   W06
 BYTE   N02  As0  v044
 BYTE   N05  As3  v076
 BYTE   W06
 BYTE   N02  An0  v048
 BYTE   N05  An3  v080
 BYTE   W06
 BYTE   N02  As0  v052
 BYTE   N05  As3  v088
 BYTE   W06
 BYTE   N02  Gn0  v044
 BYTE   N05  Gn3  v076
 BYTE   W06
 BYTE   N02  Dn1  v056
 BYTE   N05  Dn4  v104
 BYTE   W06
 BYTE   N02  Cn1  v044
 BYTE   N05  Cn4  v072
 BYTE   W06
 BYTE   N02  As0  v048
 BYTE   N05  As3  v084
 BYTE   W06
 BYTE   N02  An0  v044
 BYTE   N05  An3  v072
 BYTE   W06
 BYTE   N02  As0  v044
 BYTE   N05  As3  v076
 BYTE   W06
 BYTE   N02  Gn0  v048
 BYTE   N05  Gn3  v088
 BYTE   W06
 BYTE   N02  Dn1  v056
 BYTE   N05  Dn4  v100
 BYTE   W06
 BYTE   N02  Cn1  v048
 BYTE   N05  Cn4  v088
 BYTE   W06
 BYTE   N02  As0  v040
 BYTE   N05  As3  v068
 BYTE   W06
 BYTE   N02  An0  v048
 BYTE   N05  An3  v080
 BYTE   W06
//  #01 //001   ----------------------------------------
Label_0100A036:
 BYTE   N02  As0  v052
 BYTE   N05  As3  v084
 BYTE   W06
 BYTE   N02  Gn0  v052
 BYTE   N05  Gn3  v088
 BYTE   W06
 BYTE   N02  Dn1  v056
 BYTE   N05  Dn4  v104
 BYTE   W06
 BYTE   N02  Cn1  v048
 BYTE   N05  Cn4  v084
 BYTE   W06
 BYTE   N02  As0  v048
 BYTE   N05  As3  v084
 BYTE   W06
 BYTE   N02  An0  v044
 BYTE   N05  An3  v076
 BYTE   W06
 BYTE   N02  As0  v044
 BYTE   N05  As3  v076
 BYTE   W06
 BYTE   N02  Gn0  v048
 BYTE   N05  Gn3  v084
 BYTE   W06
 BYTE   N02  Dn1  v056
 BYTE   N05  Dn4  v104
 BYTE   W06
 BYTE   N02  Cn1  v048
 BYTE   N05  Cn4  v084
 BYTE   W06
 BYTE   N02  As0  v044
 BYTE   N05  As3  v072
 BYTE   W06
 BYTE   N02  An0  v044
 BYTE   N05  An3  v076
 BYTE   W06
 BYTE   N02  As0  v044
 BYTE   N05  As3  v068
 BYTE   W06
 BYTE   N02  Gn0  v052
 BYTE   N05  Gn3  v092
 BYTE   W06
 BYTE   N02  Dn1  v052
 BYTE   N05  Dn4  v096
 BYTE   W06
 BYTE   N02  Cn1  v048
 BYTE   N05  Cn4  v080
 BYTE   W06
 BYTE   PEND 
//  #01 //002   ----------------------------------------
Label_0100A0A7:
 BYTE   N02  As0  v056
 BYTE   N05  As3  v096
 BYTE   W06
 BYTE   N02  Dn1  v036
 BYTE   N05  Dn4  v060
 BYTE   W06
 BYTE   N02  An0  v052
 BYTE   N05  An3  v088
 BYTE   W06
 BYTE   N02  Dn1  v044
 BYTE   N05  Dn4  v068
 BYTE   W06
 BYTE   N02  Gn0  v052
 BYTE   N05  Gn3  v088
 BYTE   W06
 BYTE   N02  Dn1  v044
 BYTE   N05  Dn4  v072
 BYTE   W06
 BYTE   N02  An0  v052
 BYTE   N05  An3  v092
 BYTE   W06
 BYTE   N02  Dn1  v040
 BYTE   N05  Dn4  v060
 BYTE   W06
 BYTE   N02  As0  v052
 BYTE   N05  As3  v096
 BYTE   W06
 BYTE   N02  Dn1  v044
 BYTE   N05  Dn4  v072
 BYTE   W06
 BYTE   N02  Cn1  v052
 BYTE   N05  Cn4  v092
 BYTE   W06
 BYTE   N02  Dn1  v040
 BYTE   N05  Dn4  v064
 BYTE   W06
 BYTE   N02  As0  v048
 BYTE   N05  As3  v088
 BYTE   W06
 BYTE   N02  Dn1  v036
 BYTE   N05  Dn4  v060
 BYTE   W06
 BYTE   N02  An0  v048
 BYTE   N05  An3  v084
 BYTE   W06
 BYTE   N02  Dn1  v040
 BYTE   N05  Dn4  v060
 BYTE   W06
 BYTE   PEND 
//  #01 //003   ----------------------------------------
 BYTE   N02  As0
 BYTE   N05  As3  v100
 BYTE   W06
 BYTE   N02  Dn1  v048
 BYTE   N05  Dn4  v080
 BYTE   W06
 BYTE   N02  An0  v052
 BYTE   N05  An3  v088
 BYTE   W06
 BYTE   N02  Dn1  v044
 BYTE   N05  Dn4  v072
 BYTE   W06
 BYTE   N02  Gn0  v056
 BYTE   N05  Gn3  v096
 BYTE   W06
 BYTE   N02  Dn1  v044
 BYTE   N05  Dn4  v072
 BYTE   W06
 BYTE   N02  Fs0  v052
 BYTE   N05  Fs3  v096
 BYTE   W06
 BYTE   N02  Dn1  v036
 BYTE   N05  Dn4  v056
 BYTE   W06
 BYTE   N02  Gn0  v048
 BYTE   N05  Gn3  v088
 BYTE   W06
 BYTE   N02  Dn1  v040
 BYTE   N05  Dn4  v064
 BYTE   W06
 BYTE   N02  An0  v052
 BYTE   N05  An3  v092
 BYTE   W06
 BYTE   N02  Dn1  v044
 BYTE   N05  Dn4  v072
 BYTE   W06
 BYTE   N02  As0  v052
 BYTE   N02  As3  v092
 BYTE   N02  As4  v048
 BYTE   W03
 BYTE   Cn1  v052
 BYTE   N02  Cn4  v092
 BYTE   N02  Cn5  v048
 BYTE   W03
 BYTE   As0  v052
 BYTE   N02  As3  v092
 BYTE   N02  As4  v048
 BYTE   W03
 BYTE   Cn1  v052
 BYTE   N02  Cn4  v092
 BYTE   N02  Cn5  v048
 BYTE   W03
 BYTE   An0  v056
 BYTE   N05  An3  v096
 BYTE   N05  An4  v048
 BYTE   W06
 BYTE   N02  As0
 BYTE   N05  As3  v088
 BYTE   N05  As4  v036
 BYTE   W06
//  #01 //004   ----------------------------------------
 BYTE   VOL   57*FE11TroubleAzula_mvl/mxv
 BYTE   N02  Dn1  v064
 BYTE   N05  Dn4  v112
 BYTE   W06
 BYTE   N02  Cn1  v048
 BYTE   N05  Cn4  v080
 BYTE   W06
 BYTE   N02  As0  v044
 BYTE   N05  As3  v076
 BYTE   W06
 BYTE   N02  An0  v048
 BYTE   N05  An3  v080
 BYTE   W06
 BYTE   N02  As0  v052
 BYTE   N05  As3  v088
 BYTE   W06
 BYTE   N02  Gn0  v044
 BYTE   N05  Gn3  v076
 BYTE   W06
 BYTE   N02  Dn1  v056
 BYTE   N05  Dn4  v104
 BYTE   W06
 BYTE   N02  Cn1  v044
 BYTE   N05  Cn4  v072
 BYTE   W06
 BYTE   N02  As0  v048
 BYTE   N05  As3  v084
 BYTE   W06
 BYTE   N02  An0  v044
 BYTE   N05  An3  v072
 BYTE   W06
 BYTE   N02  As0  v044
 BYTE   N05  As3  v076
 BYTE   W06
 BYTE   N02  Gn0  v048
 BYTE   N05  Gn3  v088
 BYTE   W06
 BYTE   N02  Dn1  v056
 BYTE   N05  Dn4  v100
 BYTE   W06
 BYTE   N02  Cn1  v048
 BYTE   N05  Cn4  v088
 BYTE   W06
 BYTE   N02  As0  v040
 BYTE   N05  As3  v068
 BYTE   W06
 BYTE   N02  An0  v048
 BYTE   N05  An3  v080
 BYTE   W06
//  #01 //005   ----------------------------------------
 BYTE   PATT
  POIN2 Label_0100A036
//  #01 //006   ----------------------------------------
 BYTE   PATT
  POIN2 Label_0100A0A7
//  #01 //007   ----------------------------------------
 BYTE   N02  As0  v060
 BYTE   N05  As3  v100
 BYTE   W06
 BYTE   N02  Dn1  v048
 BYTE   N05  Dn4  v080
 BYTE   W06
 BYTE   N02  An0  v052
 BYTE   N05  An3  v088
 BYTE   W06
 BYTE   N02  Dn1  v044
 BYTE   N05  Dn4  v072
 BYTE   W06
 BYTE   N02  Gn0  v056
 BYTE   N05  Gn3  v096
 BYTE   W06
 BYTE   N02  Dn1  v044
 BYTE   N05  Dn4  v072
 BYTE   W06
 BYTE   N02  Fs0  v052
 BYTE   N05  Fs3  v096
 BYTE   W06
 BYTE   N02  Dn1  v036
 BYTE   N05  Dn4  v056
 BYTE   W06
 BYTE   N02  Gn0  v048
 BYTE   N05  Gn3  v088
 BYTE   W06
 BYTE   N02  Dn1  v040
 BYTE   N05  Dn4  v064
 BYTE   W06
 BYTE   N02  An0  v052
 BYTE   N05  An3  v092
 BYTE   W06
 BYTE   N02  Dn1  v044
 BYTE   N05  Dn4  v072
 BYTE   W06
 BYTE   N02  As0  v052
 BYTE   N02  As3  v092
 BYTE   N02  As4  v048
 BYTE   W03
 BYTE   Cn1  v052
 BYTE   N02  Cn4  v092
 BYTE   N02  Cn5  v048
 BYTE   W03
 BYTE   As0  v052
 BYTE   N02  As3  v092
 BYTE   N02  As4  v048
 BYTE   W03
 BYTE   Cn1  v052
 BYTE   N02  Cn4  v092
 BYTE   N02  Cn5  v048
 BYTE   W03
 BYTE   An0  v056
 BYTE   N05  An3  v096
 BYTE   N05  An4  v052
 BYTE   W06
 BYTE   N02  As0  v048
 BYTE   N11  As3  v088
 BYTE   N11  As4  v040
 BYTE   W06
//  #01 //008   ----------------------------------------
 BYTE   VOL   57*FE11TroubleAzula_mvl/mxv
 BYTE   W06
 BYTE   N05  Cn4  v096
 BYTE   N05  Gn4
 BYTE   W06
 BYTE   N06  Cn4  v060
 BYTE   N06  Gn4
 BYTE   W06
 BYTE   N05  Cn4  v012
 BYTE   N05  Gn4
 BYTE   W06
 BYTE   Cn4  v096
 BYTE   N05  Gn4
 BYTE   W06
 BYTE   N06  Cn4  v060
 BYTE   N06  Gn4
 BYTE   W06
 BYTE   N05  Cn4  v012
 BYTE   N05  Gn4
 BYTE   W06
 BYTE   N06  Cn4  v096
 BYTE   N06  Gn4
 BYTE   W06
 BYTE   N05  Cn4  v012
 BYTE   N05  Gn4
 BYTE   W06
 BYTE   Cn4  v096
 BYTE   N05  Gn4
 BYTE   W06
 BYTE   N06  Cn4  v060
 BYTE   N06  Gn4
 BYTE   W06
 BYTE   N05  Cn4  v012
 BYTE   N05  Gn4
 BYTE   W06
 BYTE   Cn4  v096
 BYTE   N05  Gn4
 BYTE   W06
 BYTE   N06  Cn4  v060
 BYTE   N06  Gn4
 BYTE   W06
 BYTE   N05  Cn4  v012
 BYTE   N05  Gn4
 BYTE   W06
 BYTE   N06  Cn4  v096
 BYTE   N06  Gn4
 BYTE   W06
//  #01 //009   ----------------------------------------
 BYTE   N05  Cn4  v016
 BYTE   N05  Gn4
 BYTE   W06
 BYTE   Cn4  v096
 BYTE   N05  Fs4
 BYTE   W06
 BYTE   N06  Cn4  v060
 BYTE   N06  Fs4
 BYTE   W06
 BYTE   N05  Cn4  v012
 BYTE   N05  Fs4
 BYTE   W06
 BYTE   Cn4  v096
 BYTE   N05  Fs4
 BYTE   W06
 BYTE   N06  Cn4  v060
 BYTE   N06  Fs4
 BYTE   W06
 BYTE   N05  Cn4  v012
 BYTE   N05  Fs4
 BYTE   W06
 BYTE   N06  Cn4  v096
 BYTE   N06  Fs4
 BYTE   W06
 BYTE   N05  Cn4  v012
 BYTE   N05  Fs4
 BYTE   W06
 BYTE   Cn4  v096
 BYTE   N05  Fs4
 BYTE   W06
 BYTE   N06  Cn4  v060
 BYTE   N06  Fs4
 BYTE   W06
 BYTE   N05  Cn4  v012
 BYTE   N05  Fs4
 BYTE   W06
 BYTE   Cn4  v096
 BYTE   N05  Fs4
 BYTE   W06
 BYTE   N06  Cn4  v060
 BYTE   N06  Fs4
 BYTE   W06
 BYTE   N05  Cn4  v012
 BYTE   N05  Fs4
 BYTE   W06
 BYTE   N06  Cn4  v096
 BYTE   N06  Fs4
 BYTE   W06
//  #01 //010   ----------------------------------------
 BYTE   N05  Cn4  v016
 BYTE   N05  Fs4
 BYTE   W02
 BYTE   VOL   57*FE11TroubleAzula_mvl/mxv
 BYTE   W04
 BYTE   N05  Cn4  v096
 BYTE   N05  Gn4
 BYTE   W04
 BYTE   VOL   56*FE11TroubleAzula_mvl/mxv
 BYTE   W02
 BYTE   N06  Cn4  v060
 BYTE   N06  Gn4
 BYTE   W03
 BYTE   VOL   55*FE11TroubleAzula_mvl/mxv
 BYTE   W03
 BYTE   N05  Cn4  v012
 BYTE   N05  Gn4
 BYTE   W01
 BYTE   VOL   54*FE11TroubleAzula_mvl/mxv
 BYTE   W04
 BYTE   VOL   53*FE11TroubleAzula_mvl/mxv
 BYTE   W01
 BYTE   N05  Cn4  v096
 BYTE   N05  Gn4
 BYTE   W03
 BYTE   VOL   52*FE11TroubleAzula_mvl/mxv
 BYTE   W03
 BYTE   N06  Cn4  v060
 BYTE   N06  Gn4
 BYTE   W02
 BYTE   VOL   52*FE11TroubleAzula_mvl/mxv
 BYTE   W04
 BYTE   VOL   51*FE11TroubleAzula_mvl/mxv
 BYTE   N05  Cn4  v012
 BYTE   N05  Gn4
 BYTE   W04
 BYTE   VOL   51*FE11TroubleAzula_mvl/mxv
 BYTE   W02
 BYTE   N06  Cn4  v096
 BYTE   N06  Gn4
 BYTE   W02
 BYTE   VOL   50*FE11TroubleAzula_mvl/mxv
 BYTE   W04
 BYTE   N05  Cn4  v012
 BYTE   N05  Gn4
 BYTE   W01
 BYTE   VOL   49*FE11TroubleAzula_mvl/mxv
 BYTE   W04
 BYTE   VOL   48*FE11TroubleAzula_mvl/mxv
 BYTE   W01
 BYTE   N05  Cn4  v096
 BYTE   N05  Gn4
 BYTE   W03
 BYTE   VOL   48*FE11TroubleAzula_mvl/mxv
 BYTE   W03
 BYTE   N06  Cn4  v060
 BYTE   N06  Gn4
 BYTE   W01
 BYTE   VOL   47*FE11TroubleAzula_mvl/mxv
 BYTE   W05
 BYTE   VOL   46*FE11TroubleAzula_mvl/mxv
 BYTE   N05  Cn4  v012
 BYTE   N05  Gn4
 BYTE   W04
 BYTE   VOL   45*FE11TroubleAzula_mvl/mxv
 BYTE   W02
 BYTE   N05  Cn4  v096
 BYTE   N05  Gn4
 BYTE   W02
 BYTE   VOL   45*FE11TroubleAzula_mvl/mxv
 BYTE   W04
 BYTE   VOL   45*FE11TroubleAzula_mvl/mxv
 BYTE   N06  Cn4  v060
 BYTE   N06  Gn4
 BYTE   W05
 BYTE   VOL   44*FE11TroubleAzula_mvl/mxv
 BYTE   W01
 BYTE   N05  Cn4  v012
 BYTE   N05  Gn4
 BYTE   W03
 BYTE   VOL   43*FE11TroubleAzula_mvl/mxv
 BYTE   W03
 BYTE   N06  Cn4  v096
 BYTE   N06  Gn4
 BYTE   W01
 BYTE   VOL   42*FE11TroubleAzula_mvl/mxv
 BYTE   W04
 BYTE   VOL   41*FE11TroubleAzula_mvl/mxv
 BYTE   W01
//  #01 //011   ----------------------------------------
 BYTE   VOL   40*FE11TroubleAzula_mvl/mxv
 BYTE   N05  Cn4  v016
 BYTE   N05  Gn4
 BYTE   W06
 BYTE   Cn4  v096
 BYTE   N05  Fs4
 BYTE   W03
 BYTE   VOL   41*FE11TroubleAzula_mvl/mxv
 BYTE   W03
 BYTE   N06  Cn4  v060
 BYTE   N06  Fs4
 BYTE   W04
 BYTE   VOL   42*FE11TroubleAzula_mvl/mxv
 BYTE   W02
 BYTE   N05  Cn4  v012
 BYTE   N05  Fs4
 BYTE   W04
 BYTE   VOL   43*FE11TroubleAzula_mvl/mxv
 BYTE   W02
 BYTE   N05  Cn4  v096
 BYTE   N05  Fs4
 BYTE   W05
 BYTE   VOL   44*FE11TroubleAzula_mvl/mxv
 BYTE   W01
 BYTE   N06  Cn4  v060
 BYTE   N06  Fs4
 BYTE   W05
 BYTE   VOL   45*FE11TroubleAzula_mvl/mxv
 BYTE   W01
 BYTE   N05  Cn4  v012
 BYTE   N05  Fs4
 BYTE   W03
 BYTE   VOL   45*FE11TroubleAzula_mvl/mxv
 BYTE   W03
 BYTE   VOL   45*FE11TroubleAzula_mvl/mxv
 BYTE   N06  Cn4  v096
 BYTE   N06  Fs4
 BYTE   W03
 BYTE   VOL   46*FE11TroubleAzula_mvl/mxv
 BYTE   W03
 BYTE   VOL   47*FE11TroubleAzula_mvl/mxv
 BYTE   N05  Cn4  v012
 BYTE   N05  Fs4
 BYTE   W04
 BYTE   VOL   48*FE11TroubleAzula_mvl/mxv
 BYTE   W02
 BYTE   N05  Cn4  v096
 BYTE   N05  Fs4
 BYTE   W01
 BYTE   VOL   48*FE11TroubleAzula_mvl/mxv
 BYTE   W03
 BYTE   VOL   50*FE11TroubleAzula_mvl/mxv
 BYTE   W02
 BYTE   N06  Cn4  v060
 BYTE   N06  Fs4
 BYTE   W01
 BYTE   VOL   51*FE11TroubleAzula_mvl/mxv
 BYTE   W04
 BYTE   VOL   52*FE11TroubleAzula_mvl/mxv
 BYTE   W01
 BYTE   N05  Cn4  v012
 BYTE   N05  Fs4
 BYTE   W02
 BYTE   VOL   54*FE11TroubleAzula_mvl/mxv
 BYTE   W03
 BYTE   VOL   56*FE11TroubleAzula_mvl/mxv
 BYTE   W01
 BYTE   VOL   57*FE11TroubleAzula_mvl/mxv
 BYTE   N05  Cn4  v096
 BYTE   N05  Fs4
 BYTE   W06
 BYTE   N06  Cn4  v060
 BYTE   N06  Fs4
 BYTE   W06
 BYTE   N05  Cn4  v012
 BYTE   N05  Fs4
 BYTE   W06
 BYTE   N06  Cn4  v096
 BYTE   N06  Fs4
 BYTE   W06
//  #01 //012   ----------------------------------------
 BYTE   W96
//  #01 //013   ----------------------------------------
 BYTE   W96
//  #01 //014   ----------------------------------------
 BYTE   W96
//  #01 //015   ----------------------------------------
 BYTE   W96
//  #01 //016   ----------------------------------------
 BYTE   VOL   57*FE11TroubleAzula_mvl/mxv
 BYTE   W96
//  #01 //017   ----------------------------------------
 BYTE   W96
//  #01 //018   ----------------------------------------
 BYTE   W96
//  #01 //019   ----------------------------------------
 BYTE   W12
 BYTE   VOL   57*FE11TroubleAzula_mvl/mxv
 BYTE   W01
 BYTE   VOL   53*FE11TroubleAzula_mvl/mxv
 BYTE   W01
 BYTE   VOL   46*FE11TroubleAzula_mvl/mxv
 BYTE   W01
 BYTE   VOL   43*FE11TroubleAzula_mvl/mxv
 BYTE   W01
 BYTE   VOL   40*FE11TroubleAzula_mvl/mxv
 BYTE   W01
 BYTE   VOL   34*FE11TroubleAzula_mvl/mxv
 BYTE   W01
 BYTE   VOL   30*FE11TroubleAzula_mvl/mxv
 BYTE   W01
 BYTE   VOL   27*FE11TroubleAzula_mvl/mxv
 BYTE   W01
 BYTE   VOL   22*FE11TroubleAzula_mvl/mxv
 BYTE   W01
 BYTE   VOL   20*FE11TroubleAzula_mvl/mxv
 BYTE   W01
 BYTE   VOL   17*FE11TroubleAzula_mvl/mxv
 BYTE   W02
 BYTE   N80  Dn0  v120
 BYTE   W04
 BYTE   VOL   18*FE11TroubleAzula_mvl/mxv
 BYTE   W05
 BYTE   VOL   18*FE11TroubleAzula_mvl/mxv
 BYTE   W03
 BYTE   VOL   19*FE11TroubleAzula_mvl/mxv
 BYTE   W03
 BYTE   VOL   19*FE11TroubleAzula_mvl/mxv
 BYTE   W04
 BYTE   VOL   19*FE11TroubleAzula_mvl/mxv
 BYTE   W02
 BYTE   VOL   20*FE11TroubleAzula_mvl/mxv
 BYTE   W03
 BYTE   VOL   20*FE11TroubleAzula_mvl/mxv
 BYTE   W01
 BYTE   VOL   21*FE11TroubleAzula_mvl/mxv
 BYTE   W03
 BYTE   VOL   21*FE11TroubleAzula_mvl/mxv
 BYTE   W02
 BYTE   VOL   22*FE11TroubleAzula_mvl/mxv
 BYTE   W01
 BYTE   VOL   22*FE11TroubleAzula_mvl/mxv
 BYTE   W02
 BYTE   VOL   23*FE11TroubleAzula_mvl/mxv
 BYTE   W01
 BYTE   VOL   23*FE11TroubleAzula_mvl/mxv
 BYTE   W02
 BYTE   VOL   24*FE11TroubleAzula_mvl/mxv
 BYTE   W01
 BYTE   VOL   24*FE11TroubleAzula_mvl/mxv
 BYTE   W02
 BYTE   VOL   25*FE11TroubleAzula_mvl/mxv
 BYTE   W01
 BYTE   VOL   27*FE11TroubleAzula_mvl/mxv
 BYTE   W02
 BYTE   VOL   27*FE11TroubleAzula_mvl/mxv
 BYTE   W01
 BYTE   VOL   28*FE11TroubleAzula_mvl/mxv
 BYTE   W02
 BYTE   VOL   29*FE11TroubleAzula_mvl/mxv
 BYTE   W01
 BYTE   VOL   30*FE11TroubleAzula_mvl/mxv
 BYTE   W02
 BYTE   VOL   32*FE11TroubleAzula_mvl/mxv
 BYTE   W01
 BYTE   VOL   34*FE11TroubleAzula_mvl/mxv
 BYTE   W02
 BYTE   VOL   36*FE11TroubleAzula_mvl/mxv
 BYTE   W01
 BYTE   VOL   37*FE11TroubleAzula_mvl/mxv
 BYTE   W02
 BYTE   VOL   40*FE11TroubleAzula_mvl/mxv
 BYTE   W01
 BYTE   VOL   45*FE11TroubleAzula_mvl/mxv
 BYTE   W02
 BYTE   VOL   48*FE11TroubleAzula_mvl/mxv
 BYTE   W01
 BYTE   VOL   53*FE11TroubleAzula_mvl/mxv
 BYTE   W01
 BYTE   VOL   57*FE11TroubleAzula_mvl/mxv
 BYTE   W10
 BYTE   VOL   57*FE11TroubleAzula_mvl/mxv
 BYTE   W01
 BYTE   VOL   54*FE11TroubleAzula_mvl/mxv
 BYTE   W02
//  #01 //020   ----------------------------------------
 BYTE   VOL   51*FE11TroubleAzula_mvl/mxv
 BYTE   W01
 BYTE   VOL   48*FE11TroubleAzula_mvl/mxv
 BYTE   W02
 BYTE   VOL   45*FE11TroubleAzula_mvl/mxv
 BYTE   W01
 BYTE   VOL   43*FE11TroubleAzula_mvl/mxv
 BYTE   W02
 BYTE   VOL   40*FE11TroubleAzula_mvl/mxv
 BYTE   W01
 BYTE   VOL   37*FE11TroubleAzula_mvl/mxv
 BYTE   W02
 BYTE   VOL   35*FE11TroubleAzula_mvl/mxv
 BYTE   W01
 BYTE   VOL   33*FE11TroubleAzula_mvl/mxv
 BYTE   W02
 BYTE   VOL   34*FE11TroubleAzula_mvl/mxv
 BYTE   N05  Dn2  v044
 BYTE   N05  Fn2
 BYTE   W01
 BYTE   VOL   35*FE11TroubleAzula_mvl/mxv
 BYTE   W02
 BYTE   VOL   37*FE11TroubleAzula_mvl/mxv
 BYTE   W01
 BYTE   VOL   38*FE11TroubleAzula_mvl/mxv
 BYTE   W02
 BYTE   VOL   40*FE11TroubleAzula_mvl/mxv
 BYTE   N05  Cs2
 BYTE   N05  En2
 BYTE   W01
 BYTE   VOL   41*FE11TroubleAzula_mvl/mxv
 BYTE   W02
 BYTE   VOL   44*FE11TroubleAzula_mvl/mxv
 BYTE   W01
 BYTE   VOL   45*FE11TroubleAzula_mvl/mxv
 BYTE   W02
 BYTE   VOL   46*FE11TroubleAzula_mvl/mxv
 BYTE   N05  Dn2
 BYTE   N05  Fn2
 BYTE   W01
 BYTE   VOL   48*FE11TroubleAzula_mvl/mxv
 BYTE   W02
 BYTE   VOL   50*FE11TroubleAzula_mvl/mxv
 BYTE   W01
 BYTE   VOL   52*FE11TroubleAzula_mvl/mxv
 BYTE   W02
 BYTE   VOL   53*FE11TroubleAzula_mvl/mxv
 BYTE   N05  En2
 BYTE   N05  Gn2
 BYTE   W01
 BYTE   VOL   56*FE11TroubleAzula_mvl/mxv
 BYTE   W01
 BYTE   VOL   57*FE11TroubleAzula_mvl/mxv
 BYTE   W04
 BYTE   N05  Fn2
 BYTE   N05  An2  v036
 BYTE   W05
 BYTE   VOL   56*FE11TroubleAzula_mvl/mxv
 BYTE   W01
 BYTE   N05  Gn2
 BYTE   N05  As2
 BYTE   W04
 BYTE   VOL   55*FE11TroubleAzula_mvl/mxv
 BYTE   W02
 BYTE   N05  An2  v044
 BYTE   N05  Cs3  v032
 BYTE   W03
 BYTE   VOL   54*FE11TroubleAzula_mvl/mxv
 BYTE   W03
 BYTE   N05  As2  v040
 BYTE   N05  Dn3  v032
 BYTE   W02
 BYTE   VOL   53*FE11TroubleAzula_mvl/mxv
 BYTE   W04
 BYTE   VOL   52*FE11TroubleAzula_mvl/mxv
 BYTE   N05  Cs3  v036
 BYTE   N05  En3  v032
 BYTE   W05
 BYTE   VOL   52*FE11TroubleAzula_mvl/mxv
 BYTE   W01
 BYTE   N05  As2  v036
 BYTE   N05  Dn3  v032
 BYTE   W04
 BYTE   VOL   51*FE11TroubleAzula_mvl/mxv
 BYTE   W02
 BYTE   N05  An2  v044
 BYTE   N05  Cs3  v032
 BYTE   W03
 BYTE   VOL   51*FE11TroubleAzula_mvl/mxv
 BYTE   W03
 BYTE   N05  Gn2  v040
 BYTE   N05  As2
 BYTE   W02
 BYTE   VOL   50*FE11TroubleAzula_mvl/mxv
 BYTE   W04
 BYTE   VOL   49*FE11TroubleAzula_mvl/mxv
 BYTE   N05  Fn2
 BYTE   N05  An2  v036
 BYTE   W05
 BYTE   VOL   48*FE11TroubleAzula_mvl/mxv
 BYTE   W01
 BYTE   N07  En2
 BYTE   N09  Gn2
 BYTE   W04
 BYTE   VOL   48*FE11TroubleAzula_mvl/mxv
 BYTE   W02
//  #01 //021   ----------------------------------------
 BYTE   W03
 BYTE   VOL   46*FE11TroubleAzula_mvl/mxv
 BYTE   W03
 BYTE   N05  En2  v012
 BYTE   N05  Gn2
 BYTE   W06
 BYTE   Dn2  v036
 BYTE   N05  Fn2
 BYTE   W05
 BYTE   VOL   47*FE11TroubleAzula_mvl/mxv
 BYTE   W01
 BYTE   N05  Cs2  v040
 BYTE   N05  En2  v044
 BYTE   W05
 BYTE   VOL   48*FE11TroubleAzula_mvl/mxv
 BYTE   W01
 BYTE   N05  Dn2  v036
 BYTE   N05  Fn2
 BYTE   W06
 BYTE   VOL   48*FE11TroubleAzula_mvl/mxv
 BYTE   N05  En2
 BYTE   N05  Gn2  v044
 BYTE   W06
 BYTE   Fn2
 BYTE   N05  An2  v036
 BYTE   W01
 BYTE   VOL   49*FE11TroubleAzula_mvl/mxv
 BYTE   W05
 BYTE   N05  Gn2
 BYTE   N05  As2
 BYTE   W02
 BYTE   VOL   50*FE11TroubleAzula_mvl/mxv
 BYTE   W04
 BYTE   N05  An2
 BYTE   N05  Cs3  v032
 BYTE   W02
 BYTE   VOL   51*FE11TroubleAzula_mvl/mxv
 BYTE   W04
 BYTE   N05  As2  v036
 BYTE   N05  Dn3  v032
 BYTE   W03
 BYTE   VOL   51*FE11TroubleAzula_mvl/mxv
 BYTE   W03
 BYTE   N05  Cs3  v036
 BYTE   N05  En3
 BYTE   W04
 BYTE   VOL   52*FE11TroubleAzula_mvl/mxv
 BYTE   W02
 BYTE   N05  Dn3  v032
 BYTE   N05  Fn3
 BYTE   W05
 BYTE   VOL   52*FE11TroubleAzula_mvl/mxv
 BYTE   W01
 BYTE   N05  En3  v036
 BYTE   N05  Gn3  v032
 BYTE   W05
 BYTE   VOL   53*FE11TroubleAzula_mvl/mxv
 BYTE   W01
 BYTE   N05  Fn3  v036
 BYTE   N05  An3  v024
 BYTE   W06
 BYTE   VOL   54*FE11TroubleAzula_mvl/mxv
 BYTE   N13  Gn3  v028
 BYTE   N15  As3  v024
 BYTE   W07
 BYTE   VOL   55*FE11TroubleAzula_mvl/mxv
 BYTE   W05
//  #01 //022   ----------------------------------------
 BYTE   W02
 BYTE   VOL   57*FE11TroubleAzula_mvl/mxv
 BYTE   W03
 BYTE   VOL   56*FE11TroubleAzula_mvl/mxv
 BYTE   W01
 BYTE   N05  Gn3  v012
 BYTE   N05  As3
 BYTE   W02
 BYTE   VOL   55*FE11TroubleAzula_mvl/mxv
 BYTE   W03
 BYTE   VOL   54*FE11TroubleAzula_mvl/mxv
 BYTE   W01
 BYTE   N05  Gn3  v028
 BYTE   N05  As3  v024
 BYTE   W02
 BYTE   VOL   53*FE11TroubleAzula_mvl/mxv
 BYTE   W03
 BYTE   VOL   52*FE11TroubleAzula_mvl/mxv
 BYTE   W01
 BYTE   N05  Fn3  v032
 BYTE   N05  An3  v024
 BYTE   W02
 BYTE   VOL   52*FE11TroubleAzula_mvl/mxv
 BYTE   W03
 BYTE   VOL   51*FE11TroubleAzula_mvl/mxv
 BYTE   W01
 BYTE   N05  En3  v032
 BYTE   N05  Gn3  v028
 BYTE   W02
 BYTE   VOL   51*FE11TroubleAzula_mvl/mxv
 BYTE   W03
 BYTE   VOL   50*FE11TroubleAzula_mvl/mxv
 BYTE   W01
 BYTE   N05  Fn3  v032
 BYTE   N05  An3  v024
 BYTE   W02
 BYTE   VOL   49*FE11TroubleAzula_mvl/mxv
 BYTE   W03
 BYTE   VOL   48*FE11TroubleAzula_mvl/mxv
 BYTE   W01
 BYTE   N05  En3  v036
 BYTE   N05  Gn3  v028
 BYTE   W02
 BYTE   VOL   48*FE11TroubleAzula_mvl/mxv
 BYTE   W03
 BYTE   VOL   47*FE11TroubleAzula_mvl/mxv
 BYTE   W01
 BYTE   N05  Dn3
 BYTE   N05  Fn3  v032
 BYTE   W02
 BYTE   VOL   46*FE11TroubleAzula_mvl/mxv
 BYTE   W03
 BYTE   VOL   45*FE11TroubleAzula_mvl/mxv
 BYTE   W01
 BYTE   N05  Cs3
 BYTE   N05  En3
 BYTE   W02
 BYTE   VOL   45*FE11TroubleAzula_mvl/mxv
 BYTE   W03
 BYTE   VOL   44*FE11TroubleAzula_mvl/mxv
 BYTE   W01
 BYTE   N05  Dn3  v028
 BYTE   N05  Fn3  v032
 BYTE   W02
 BYTE   VOL   43*FE11TroubleAzula_mvl/mxv
 BYTE   W03
 BYTE   VOL   42*FE11TroubleAzula_mvl/mxv
 BYTE   W01
 BYTE   N05  En3  v036
 BYTE   N05  Gn3  v024
 BYTE   W02
 BYTE   VOL   41*FE11TroubleAzula_mvl/mxv
 BYTE   W03
 BYTE   VOL   40*FE11TroubleAzula_mvl/mxv
 BYTE   W01
 BYTE   N05  Dn3  v032
 BYTE   N05  Fn3
 BYTE   W02
 BYTE   VOL   40*FE11TroubleAzula_mvl/mxv
 BYTE   W03
 BYTE   VOL   40*FE11TroubleAzula_mvl/mxv
 BYTE   W01
 BYTE   N05  Cs3  v040
 BYTE   N05  En3  v032
 BYTE   W02
 BYTE   VOL   39*FE11TroubleAzula_mvl/mxv
 BYTE   W03
 BYTE   VOL   38*FE11TroubleAzula_mvl/mxv
 BYTE   W01
 BYTE   N05  As2  v040
 BYTE   N05  Dn3  v032
 BYTE   W02
 BYTE   VOL   37*FE11TroubleAzula_mvl/mxv
 BYTE   W03
 BYTE   VOL   37*FE11TroubleAzula_mvl/mxv
 BYTE   W01
 BYTE   N05  An2  v044
 BYTE   N05  Cs3  v036
 BYTE   W02
 BYTE   VOL   37*FE11TroubleAzula_mvl/mxv
 BYTE   W03
 BYTE   VOL   36*FE11TroubleAzula_mvl/mxv
 BYTE   W01
 BYTE   N07  Gn2  v044
 BYTE   N09  As2  v036
 BYTE   W02
 BYTE   VOL   35*FE11TroubleAzula_mvl/mxv
 BYTE   W03
 BYTE   VOL   34*FE11TroubleAzula_mvl/mxv
 BYTE   W01
//  #01 //023   ----------------------------------------
 BYTE   W02
 BYTE   VOL   34*FE11TroubleAzula_mvl/mxv
 BYTE   W03
 BYTE   VOL   33*FE11TroubleAzula_mvl/mxv
 BYTE   W01
 BYTE   N05  Gn2  v012
 BYTE   N05  As2
 BYTE   W02
 BYTE   VOL   32*FE11TroubleAzula_mvl/mxv
 BYTE   W02
 BYTE   VOL   31*FE11TroubleAzula_mvl/mxv
 BYTE   W02
 BYTE   N05  Gn2  v044
 BYTE   N05  As2  v036
 BYTE   W01
 BYTE   VOL   32*FE11TroubleAzula_mvl/mxv
 BYTE   W03
 BYTE   VOL   33*FE11TroubleAzula_mvl/mxv
 BYTE   W02
 BYTE   N05  Fs2  v044
 BYTE   N05  An2
 BYTE   W01
 BYTE   VOL   34*FE11TroubleAzula_mvl/mxv
 BYTE   W03
 BYTE   VOL   34*FE11TroubleAzula_mvl/mxv
 BYTE   W02
 BYTE   N05  Gn2
 BYTE   N05  As2
 BYTE   W01
 BYTE   VOL   36*FE11TroubleAzula_mvl/mxv
 BYTE   W03
 BYTE   VOL   37*FE11TroubleAzula_mvl/mxv
 BYTE   W02
 BYTE   N05  An2
 BYTE   N05  Cs3  v036
 BYTE   W01
 BYTE   VOL   37*FE11TroubleAzula_mvl/mxv
 BYTE   W03
 BYTE   VOL   38*FE11TroubleAzula_mvl/mxv
 BYTE   W02
 BYTE   N05  As2
 BYTE   N05  Dn3  v032
 BYTE   W01
 BYTE   VOL   40*FE11TroubleAzula_mvl/mxv
 BYTE   W03
 BYTE   VOL   40*FE11TroubleAzula_mvl/mxv
 BYTE   W02
 BYTE   N05
 BYTE   N05  Fn3  v040
 BYTE   W01
 BYTE   VOL   41*FE11TroubleAzula_mvl/mxv
 BYTE   W03
 BYTE   VOL   42*FE11TroubleAzula_mvl/mxv
 BYTE   W02
 BYTE   N05  Cs3
 BYTE   N05  En3  v036
 BYTE   W01
 BYTE   VOL   44*FE11TroubleAzula_mvl/mxv
 BYTE   W03
 BYTE   VOL   45*FE11TroubleAzula_mvl/mxv
 BYTE   W02
 BYTE   N05  An2  v044
 BYTE   N05  Cs3  v040
 BYTE   W01
 BYTE   VOL   45*FE11TroubleAzula_mvl/mxv
 BYTE   W03
 BYTE   VOL   46*FE11TroubleAzula_mvl/mxv
 BYTE   W02
 BYTE   N05  Gs2  v048
 BYTE   N05  Cn3  v044
 BYTE   W01
 BYTE   VOL   47*FE11TroubleAzula_mvl/mxv
 BYTE   W03
 BYTE   VOL   48*FE11TroubleAzula_mvl/mxv
 BYTE   W02
 BYTE   N05  An2  v048
 BYTE   N05  Cs3  v036
 BYTE   W01
 BYTE   VOL   49*FE11TroubleAzula_mvl/mxv
 BYTE   W03
 BYTE   VOL   51*FE11TroubleAzula_mvl/mxv
 BYTE   W02
 BYTE   N05  Cs3  v044
 BYTE   N05  En3  v040
 BYTE   W01
 BYTE   VOL   51*FE11TroubleAzula_mvl/mxv
 BYTE   W03
 BYTE   VOL   52*FE11TroubleAzula_mvl/mxv
 BYTE   W02
 BYTE   N05  Dn3  v036
 BYTE   N05  Fn3
 BYTE   W01
 BYTE   VOL   53*FE11TroubleAzula_mvl/mxv
 BYTE   W03
 BYTE   VOL   55*FE11TroubleAzula_mvl/mxv
 BYTE   W02
 BYTE   N05  En3
 BYTE   N05  Gn3  v032
 BYTE   W01
 BYTE   VOL   56*FE11TroubleAzula_mvl/mxv
 BYTE   W01
 BYTE   VOL   57*FE11TroubleAzula_mvl/mxv
 BYTE   W04
 BYTE   N05  Fn3  v036
 BYTE   N08  An3  v024
 BYTE   W06
//  #01 //024   ----------------------------------------
 BYTE   W02
 BYTE   VOL   56*FE11TroubleAzula_mvl/mxv
 BYTE   W04
 BYTE   N05  Fn3  v012
 BYTE   N05  An3
 BYTE   W01
 BYTE   VOL   55*FE11TroubleAzula_mvl/mxv
 BYTE   W05
 BYTE   N05  Dn2  v052
 BYTE   N05  Fn2  v056
 BYTE   W01
 BYTE   VOL   54*FE11TroubleAzula_mvl/mxv
 BYTE   W05
 BYTE   N05  Cs2  v052
 BYTE   N05  En2  v056
 BYTE   W01
 BYTE   VOL   53*FE11TroubleAzula_mvl/mxv
 BYTE   W05
 BYTE   N05  Dn2  v048
 BYTE   N05  Fn2  v052
 BYTE   W01
 BYTE   VOL   52*FE11TroubleAzula_mvl/mxv
 BYTE   W05
 BYTE   N05  En2
 BYTE   N05  Gn2  v056
 BYTE   W01
 BYTE   VOL   52*FE11TroubleAzula_mvl/mxv
 BYTE   W05
 BYTE   N05  Fn2  v052
 BYTE   N05  An2  v040
 BYTE   W01
 BYTE   VOL   51*FE11TroubleAzula_mvl/mxv
 BYTE   W05
 BYTE   N05  Gn2
 BYTE   N05  As2
 BYTE   W01
 BYTE   VOL   51*FE11TroubleAzula_mvl/mxv
 BYTE   W05
 BYTE   VOL   50*FE11TroubleAzula_mvl/mxv
 BYTE   N05  An2  v052
 BYTE   N05  Cs3  v036
 BYTE   W06
 BYTE   VOL   49*FE11TroubleAzula_mvl/mxv
 BYTE   N05  As2  v044
 BYTE   N05  Dn3  v036
 BYTE   W06
 BYTE   VOL   48*FE11TroubleAzula_mvl/mxv
 BYTE   N05  Cs3
 BYTE   N05  En3
 BYTE   W06
 BYTE   VOL   48*FE11TroubleAzula_mvl/mxv
 BYTE   N05  As2  v044
 BYTE   N05  Dn3  v036
 BYTE   W06
 BYTE   VOL   47*FE11TroubleAzula_mvl/mxv
 BYTE   N05  An2  v048
 BYTE   N05  Cs3  v036
 BYTE   W06
 BYTE   VOL   46*FE11TroubleAzula_mvl/mxv
 BYTE   N05  Gn2  v044
 BYTE   N05  As2
 BYTE   W06
 BYTE   VOL   45*FE11TroubleAzula_mvl/mxv
 BYTE   N05  Fn2
 BYTE   N05  An2
 BYTE   W05
 BYTE   VOL   45*FE11TroubleAzula_mvl/mxv
 BYTE   W01
 BYTE   VOL   45*FE11TroubleAzula_mvl/mxv
 BYTE   N07  En2
 BYTE   N09  Gn2
 BYTE   W06
//  #01 //025   ----------------------------------------
 BYTE   W03
 BYTE   VOL   45*FE11TroubleAzula_mvl/mxv
 BYTE   W03
 BYTE   N05  En2  v012
 BYTE   N05  Gn2
 BYTE   W02
 BYTE   VOL   45*FE11TroubleAzula_mvl/mxv
 BYTE   W04
 BYTE   N05  Dn2  v040
 BYTE   N05  Fn2
 BYTE   W01
 BYTE   VOL   46*FE11TroubleAzula_mvl/mxv
 BYTE   W05
 BYTE   VOL   47*FE11TroubleAzula_mvl/mxv
 BYTE   N05  Cs2  v048
 BYTE   N05  En2
 BYTE   W05
 BYTE   VOL   48*FE11TroubleAzula_mvl/mxv
 BYTE   W01
 BYTE   N05  Dn2  v040
 BYTE   N05  Fn2  v044
 BYTE   W03
 BYTE   VOL   48*FE11TroubleAzula_mvl/mxv
 BYTE   W03
 BYTE   N05  En2  v040
 BYTE   N05  Gn2  v048
 BYTE   W02
 BYTE   VOL   49*FE11TroubleAzula_mvl/mxv
 BYTE   W04
 BYTE   N05  Fn2  v052
 BYTE   N05  An2  v040
 BYTE   W01
 BYTE   VOL   50*FE11TroubleAzula_mvl/mxv
 BYTE   W05
 BYTE   VOL   51*FE11TroubleAzula_mvl/mxv
 BYTE   N05  Gn2  v044
 BYTE   N05  As2  v040
 BYTE   W05
 BYTE   VOL   51*FE11TroubleAzula_mvl/mxv
 BYTE   W01
 BYTE   N05  An2  v044
 BYTE   N05  Cs3  v036
 BYTE   W04
 BYTE   VOL   52*FE11TroubleAzula_mvl/mxv
 BYTE   W02
 BYTE   N05  As2  v040
 BYTE   N05  Dn3  v036
 BYTE   W03
 BYTE   VOL   52*FE11TroubleAzula_mvl/mxv
 BYTE   W03
 BYTE   N05  Cs3  v040
 BYTE   N05  En3  v044
 BYTE   W01
 BYTE   VOL   53*FE11TroubleAzula_mvl/mxv
 BYTE   W05
 BYTE   VOL   54*FE11TroubleAzula_mvl/mxv
 BYTE   N05  Dn3  v032
 BYTE   N05  Fn3  v036
 BYTE   W05
 BYTE   VOL   55*FE11TroubleAzula_mvl/mxv
 BYTE   W01
 BYTE   N05  En3  v044
 BYTE   N05  Gn3  v036
 BYTE   W04
 BYTE   VOL   57*FE11TroubleAzula_mvl/mxv
 BYTE   W02
 BYTE   N05  Fn3
 BYTE   N05  An3  v024
 BYTE   W04
 BYTE   VOL   56*FE11TroubleAzula_mvl/mxv
 BYTE   W02
 BYTE   N13  Gn3  v032
 BYTE   N15  As3  v024
 BYTE   W03
 BYTE   VOL   55*FE11TroubleAzula_mvl/mxv
 BYTE   W06
 BYTE   VOL   54*FE11TroubleAzula_mvl/mxv
 BYTE   W03
//  #01 //026   ----------------------------------------
 BYTE   W02
 BYTE   VOL   53*FE11TroubleAzula_mvl/mxv
 BYTE   W04
 BYTE   N05  Gn3  v012
 BYTE   N05  As3
 BYTE   W02
 BYTE   VOL   52*FE11TroubleAzula_mvl/mxv
 BYTE   W04
 BYTE   N05  Gn3  v028
 BYTE   N05  As3  v024
 BYTE   W01
 BYTE   VOL   52*FE11TroubleAzula_mvl/mxv
 BYTE   W05
 BYTE   N05  Fn3  v036
 BYTE   N05  An3  v024
 BYTE   W01
 BYTE   VOL   51*FE11TroubleAzula_mvl/mxv
 BYTE   W05
 BYTE   VOL   51*FE11TroubleAzula_mvl/mxv
 BYTE   N05  En3  v032
 BYTE   N05  Gn3  v028
 BYTE   W06
 BYTE   VOL   50*FE11TroubleAzula_mvl/mxv
 BYTE   N05  Fn3  v032
 BYTE   N05  An3  v024
 BYTE   W05
 BYTE   VOL   49*FE11TroubleAzula_mvl/mxv
 BYTE   W01
 BYTE   N05  En3  v040
 BYTE   N05  Gn3  v032
 BYTE   W05
 BYTE   VOL   48*FE11TroubleAzula_mvl/mxv
 BYTE   W01
 BYTE   N05  Dn3
 BYTE   N05  Fn3  v036
 BYTE   W04
 BYTE   VOL   48*FE11TroubleAzula_mvl/mxv
 BYTE   W02
 BYTE   N05  Cs3
 BYTE   N05  En3
 BYTE   W03
 BYTE   VOL   48*FE11TroubleAzula_mvl/mxv
 BYTE   W03
 BYTE   N05  Dn3  v032
 BYTE   N05  Fn3
 BYTE   W01
 BYTE   VOL   49*FE11TroubleAzula_mvl/mxv
 BYTE   W04
 BYTE   VOL   50*FE11TroubleAzula_mvl/mxv
 BYTE   W01
 BYTE   N05  En3  v036
 BYTE   N05  Gn3  v028
 BYTE   W04
 BYTE   VOL   51*FE11TroubleAzula_mvl/mxv
 BYTE   W02
 BYTE   N05  Dn3  v036
 BYTE   N05  Fn3  v032
 BYTE   W02
 BYTE   VOL   51*FE11TroubleAzula_mvl/mxv
 BYTE   W04
 BYTE   VOL   52*FE11TroubleAzula_mvl/mxv
 BYTE   N05  Cs3  v044
 BYTE   N05  En3  v036
 BYTE   W04
 BYTE   VOL   52*FE11TroubleAzula_mvl/mxv
 BYTE   W02
 BYTE   N05  As2  v044
 BYTE   N05  Dn3  v036
 BYTE   W03
 BYTE   VOL   53*FE11TroubleAzula_mvl/mxv
 BYTE   W03
 BYTE   N05  An2  v056
 BYTE   N05  Cs3  v040
 BYTE   W01
 BYTE   VOL   54*FE11TroubleAzula_mvl/mxv
 BYTE   W04
 BYTE   VOL   55*FE11TroubleAzula_mvl/mxv
 BYTE   W01
 BYTE   N07  Gn2  v048
 BYTE   N09  As2  v044
 BYTE   W04
 BYTE   VOL   56*FE11TroubleAzula_mvl/mxv
 BYTE   W02
//  #01 //027   ----------------------------------------
 BYTE   W02
 BYTE   VOL   57*FE11TroubleAzula_mvl/mxv
 BYTE   W04
 BYTE   N05  Gn2  v012
 BYTE   N05  As2
 BYTE   W06
 BYTE   Gn2  v044
 BYTE   N05  As2  v036
 BYTE   W06
 BYTE   Fs2  v044
 BYTE   N05  An2
 BYTE   W06
 BYTE   Gn2
 BYTE   N05  As2  v048
 BYTE   W06
 BYTE   An2
 BYTE   N05  Cs3  v040
 BYTE   W06
 BYTE   As2
 BYTE   N05  Dn3
 BYTE   W06
 BYTE   N05
 BYTE   N05  Fn3  v044
 BYTE   W06
 BYTE   Cs4  v080
 BYTE   N05  En4  v088
 BYTE   W06
 BYTE   An3  v084
 BYTE   N05  Cs4  v092
 BYTE   W06
 BYTE   Gs3  v088
 BYTE   N05  Cn4  v092
 BYTE   W06
 BYTE   An3  v084
 BYTE   N05  Cs4  v088
 BYTE   W06
 BYTE   Cs4  v092
 BYTE   N05  En4  v080
 BYTE   W06
 BYTE   Dn4  v092
 BYTE   N05  Fn4
 BYTE   W06
 BYTE   En4  v088
 BYTE   N05  Gn4
 BYTE   W06
 BYTE   Fn4  v080
 BYTE   N05  An4  v088
 BYTE   W06
//  #01 //028   ----------------------------------------
 BYTE   GoTo
  POIN2 Label_01009FBA
 BYTE   FINE

//**************** Track 2 (Midi-Chn.1) ****************//

FE11TroubleAzula_002:
//  #02 //000   ----------------------------------------
 BYTE   KEYSH   FE11TroubleAzula_key+0
Label_563D1A:
 BYTE   VOICE   34
 BYTE   MODT 0
 BYTE   LFOS 44
 BYTE   VOL   51*FE11TroubleAzula_mvl/mxv
 BYTE   PAN   c_v+0
 BYTE   VOL   51*FE11TroubleAzula_mvl/mxv
 BYTE   N04  Gn1  v112
 BYTE   W06
 BYTE   Gn1  v024
 BYTE   W12
 BYTE   Gn1  v092
 BYTE   W06
 BYTE   Gn1  v016
 BYTE   W12
 BYTE   N05  Gn1  v112
 BYTE   W06
 BYTE   Gn1  v028
 BYTE   W12
 BYTE   N04  Gn1  v092
 BYTE   W06
 BYTE   Gn1  v016
 BYTE   W12
 BYTE   Gn1  v104
 BYTE   W06
 BYTE   Gn1  v024
 BYTE   W06
 BYTE   Gn1  v092
 BYTE   W06
 BYTE   Gn1  v016
 BYTE   W06
//  #02 //001   ----------------------------------------
Label_563D4D:
 BYTE   N04  Cn1  v112
 BYTE   W06
 BYTE   Cn1  v024
 BYTE   W12
 BYTE   Cn1  v092
 BYTE   W06
 BYTE   Cn1  v016
 BYTE   W12
 BYTE   N05  Cn1  v112
 BYTE   W06
 BYTE   Cn1  v028
 BYTE   W12
 BYTE   N04  Cn1  v092
 BYTE   W06
 BYTE   Cn1  v016
 BYTE   W12
 BYTE   Cn1  v104
 BYTE   W06
 BYTE   Cn1  v024
 BYTE   W06
 BYTE   Cn1  v092
 BYTE   W06
 BYTE   Cn1  v016
 BYTE   W06
 BYTE   PEND 
//  #02 //002   ----------------------------------------
Label_563D75:
 BYTE   N04  Fn1  v112
 BYTE   W06
 BYTE   Fn1  v024
 BYTE   W12
 BYTE   Fn1  v092
 BYTE   W06
 BYTE   Fn1  v016
 BYTE   W12
 BYTE   N05  Fn1  v112
 BYTE   W06
 BYTE   Fn1  v028
 BYTE   W12
 BYTE   N04  Fn1  v092
 BYTE   W06
 BYTE   Fn1  v016
 BYTE   W12
 BYTE   Fn1  v104
 BYTE   W06
 BYTE   Fn1  v024
 BYTE   W06
 BYTE   Fs1  v092
 BYTE   W06
 BYTE   Fs1  v016
 BYTE   W06
 BYTE   PEND 
//  #02 //003   ----------------------------------------
Label_563D9D:
 BYTE   N04  Gn1  v112
 BYTE   W06
 BYTE   Gn1  v024
 BYTE   W12
 BYTE   Gn1  v092
 BYTE   W06
 BYTE   Gn1  v016
 BYTE   W12
 BYTE   N05  Gn1  v112
 BYTE   W06
 BYTE   Gn1  v028
 BYTE   W12
 BYTE   N04  Gn1  v092
 BYTE   W06
 BYTE   Gn1  v016
 BYTE   W12
 BYTE   Gn1  v104
 BYTE   W06
 BYTE   Gn1  v024
 BYTE   W06
 BYTE   Gn1  v092
 BYTE   W06
 BYTE   Gn1  v016
 BYTE   W06
 BYTE   PEND 
//  #02 //004   ----------------------------------------
 BYTE   VOL   51*FE11TroubleAzula_mvl/mxv
 BYTE   N04  Gn1  v112
 BYTE   W06
 BYTE   Gn1  v024
 BYTE   W12
 BYTE   Gn1  v092
 BYTE   W06
 BYTE   Gn1  v016
 BYTE   W12
 BYTE   N05  Gn1  v112
 BYTE   W06
 BYTE   Gn1  v028
 BYTE   W12
 BYTE   N04  Gn1  v092
 BYTE   W06
 BYTE   Gn1  v016
 BYTE   W12
 BYTE   Gn1  v104
 BYTE   W06
 BYTE   Gn1  v024
 BYTE   W06
 BYTE   Gn1  v092
 BYTE   W06
 BYTE   Gn1  v016
 BYTE   W06
//  #02 //005   ----------------------------------------
 BYTE   PATT
  POIN2 Label_563D4D
//  #02 //006   ----------------------------------------
 BYTE   PATT
  POIN2 Label_563D75
//  #02 //007   ----------------------------------------
 BYTE   PATT
  POIN2 Label_563D9D
//  #02 //008   ----------------------------------------
Label_563DFD:
 BYTE   VOL   51*FE11TroubleAzula_mvl/mxv
 BYTE   N13  Dn1  v124
 BYTE   W18
 BYTE   Dn1  v104
 BYTE   W18
 BYTE   N03
 BYTE   W06
 BYTE   Dn1  v024
 BYTE   W06
 BYTE   N13  Dn1  v116
 BYTE   W18
 BYTE   Dn1  v104
 BYTE   W18
 BYTE   N03
 BYTE   W06
 BYTE   Dn1  v024
 BYTE   W06
 BYTE   PEND 
//  #02 //009   ----------------------------------------
Label_563E18:
 BYTE   N13  Dn1  v124
 BYTE   W18
 BYTE   Dn1  v104
 BYTE   W18
 BYTE   N03
 BYTE   W06
 BYTE   Dn1  v024
 BYTE   W06
 BYTE   N13  Dn1  v116
 BYTE   W18
 BYTE   Dn1  v104
 BYTE   W18
 BYTE   N03
 BYTE   W06
 BYTE   Dn1  v024
 BYTE   W06
 BYTE   PEND 
//  #02 //010   ----------------------------------------
 BYTE   PATT
  POIN2 Label_563DFD
//  #02 //011   ----------------------------------------
 BYTE   PATT
  POIN2 Label_563E18
//  #02 //012   ----------------------------------------
Label_563E3B:
 BYTE   VOL   51*FE11TroubleAzula_mvl/mxv
 BYTE   N04  Gn1  v116
 BYTE   W06
 BYTE   Gn1  v024
 BYTE   W12
 BYTE   Gn1  v096
 BYTE   W06
 BYTE   Gn1  v020
 BYTE   W12
 BYTE   N05  Gn1  v116
 BYTE   W06
 BYTE   Gn1  v032
 BYTE   W12
 BYTE   N04  Gn1  v096
 BYTE   W06
 BYTE   Gn1  v020
 BYTE   W12
 BYTE   Gn1  v108
 BYTE   W06
 BYTE   Gn1  v024
 BYTE   W06
 BYTE   Gn1  v096
 BYTE   W06
 BYTE   Gn1  v020
 BYTE   W06
 BYTE   PEND 
//  #02 //013   ----------------------------------------
Label_563E65:
 BYTE   N04  Cn1  v116
 BYTE   W06
 BYTE   Cn1  v024
 BYTE   W12
 BYTE   Cn1  v096
 BYTE   W06
 BYTE   Cn1  v020
 BYTE   W12
 BYTE   N05  Cn1  v116
 BYTE   W06
 BYTE   Cn1  v032
 BYTE   W12
 BYTE   N04  Cn1  v096
 BYTE   W06
 BYTE   Cn1  v020
 BYTE   W12
 BYTE   Cn1  v108
 BYTE   W06
 BYTE   Cn1  v024
 BYTE   W06
 BYTE   Cn1  v096
 BYTE   W06
 BYTE   Cn1  v020
 BYTE   W06
 BYTE   PEND 
//  #02 //014   ----------------------------------------
Label_563E8D:
 BYTE   N04  Fn1  v116
 BYTE   W06
 BYTE   Fn1  v024
 BYTE   W12
 BYTE   Fn1  v096
 BYTE   W06
 BYTE   Fn1  v020
 BYTE   W12
 BYTE   N05  Fn1  v116
 BYTE   W06
 BYTE   Fn1  v032
 BYTE   W12
 BYTE   N04  Fn1  v096
 BYTE   W06
 BYTE   Fn1  v020
 BYTE   W12
 BYTE   Fn1  v108
 BYTE   W06
 BYTE   Fn1  v024
 BYTE   W06
 BYTE   Fs1  v096
 BYTE   W06
 BYTE   Fs1  v020
 BYTE   W06
 BYTE   PEND 
//  #02 //015   ----------------------------------------
 BYTE   Gn1  v116
 BYTE   W06
 BYTE   Gn1  v024
 BYTE   W12
 BYTE   Gn1  v096
 BYTE   W06
 BYTE   Gn1  v020
 BYTE   W12
 BYTE   N05  Gn1  v116
 BYTE   W06
 BYTE   Gn1  v032
 BYTE   W12
 BYTE   N04  Gn1  v096
 BYTE   W06
 BYTE   Gn1  v020
 BYTE   W12
 BYTE   Gn1  v108
 BYTE   W06
 BYTE   Gn1  v024
 BYTE   W06
 BYTE   Gn1  v096
 BYTE   W06
 BYTE   Gn1  v020
 BYTE   W06
//  #02 //016   ----------------------------------------
 BYTE   PATT
  POIN2 Label_563E3B
//  #02 //017   ----------------------------------------
 BYTE   PATT
  POIN2 Label_563E65
//  #02 //018   ----------------------------------------
 BYTE   PATT
  POIN2 Label_563E8D
//  #02 //019   ----------------------------------------
 BYTE   N04  Gn1  v116
 BYTE   W06
 BYTE   Gn1  v024
 BYTE   W12
 BYTE   Gn1  v096
 BYTE   W06
 BYTE   Gn1  v020
 BYTE   W12
 BYTE   N05  Gn1  v116
 BYTE   W06
 BYTE   Gn1  v032
 BYTE   W12
 BYTE   N04  Gn1  v096
 BYTE   W06
 BYTE   Gn1  v020
 BYTE   W12
 BYTE   Gn1  v108
 BYTE   W06
 BYTE   Gn1  v024
 BYTE   W06
 BYTE   Gn1  v096
 BYTE   W06
 BYTE   Gn1  v024
 BYTE   W06
//  #02 //020   ----------------------------------------
 BYTE   N92  Dn1  v127
 BYTE   W96
//  #02 //021   ----------------------------------------
 BYTE   N88
 BYTE   W96
//  #02 //022   ----------------------------------------
 BYTE   N92  As0
 BYTE   W96
//  #02 //023   ----------------------------------------
 BYTE   N44  Gn0
 BYTE   W48
 BYTE   An0  v120
 BYTE   W48
//  #02 //024   ----------------------------------------
 BYTE   N76  Dn1  v127
 BYTE   W84
 BYTE   N05  Dn1  v120
 BYTE   W12
//  #02 //025   ----------------------------------------
 BYTE   N88  Dn1  v127
 BYTE   W96
//  #02 //026   ----------------------------------------
 BYTE   N56  As0
 BYTE   W66
 BYTE   N18  As1  v120
 BYTE   W18
 BYTE   N05  As0
 BYTE   W06
 BYTE   An0
 BYTE   W06
//  #02 //027   ----------------------------------------
 BYTE   W12
 BYTE   N07  Gn0  v112
 BYTE   W06
 BYTE   Fs0  v116
 BYTE   W06
 BYTE   Gn0  v120
 BYTE   W06
 BYTE   An0
 BYTE   W06
 BYTE   As0  v124
 BYTE   W06
 BYTE   Dn1  v127
 BYTE   W06
 BYTE   N04  Cs1  v124
 BYTE   W18
 BYTE   N10  An0  v127
 BYTE   W12
 BYTE   N07  Dn1  v124
 BYTE   W06
 BYTE   En1
 BYTE   W06
 BYTE   Fn1
 BYTE   W06
//  #02 //028   ----------------------------------------
 BYTE   GoTo
  POIN2 Label_563D1A
//  #02 //029   ----------------------------------------
 BYTE   W01
 BYTE   FINE

//**************** Track 3 (Midi-Chn.2) ****************//

FE11TroubleAzula_003:
//  #03 //000   ----------------------------------------
 BYTE   KEYSH   FE11TroubleAzula_key+0
Label_01003192:
 BYTE   VOICE   0
 BYTE   MODT 0
 BYTE   LFOS 44
 BYTE   VOL   35*FE11TroubleAzula_mvl/mxv
 BYTE   PAN   c_v-25
 BYTE   VOL   35*FE11TroubleAzula_mvl/mxv
 BYTE   N06  Gn4  v088
 BYTE   N06  As4
 BYTE   W06
 BYTE   Gn4  v028
 BYTE   N06  As4
 BYTE   W12
 BYTE   Gn4  v072
 BYTE   N06  As4
 BYTE   W06
 BYTE   Gn4  v020
 BYTE   N06  As4
 BYTE   W12
 BYTE   Gn4  v084
 BYTE   N06  As4
 BYTE   W06
 BYTE   Gn4  v028
 BYTE   N06  As4
 BYTE   W12
 BYTE   Gn4  v072
 BYTE   N06  As4
 BYTE   W06
 BYTE   Gn4  v020
 BYTE   N06  As4
 BYTE   W12
 BYTE   Gn4  v084
 BYTE   N06  As4
 BYTE   W06
 BYTE   Gn4  v028
 BYTE   N06  As4
 BYTE   W06
 BYTE   Gn4  v072
 BYTE   N06  As4
 BYTE   W06
 BYTE   Gn4  v020
 BYTE   N06  As4
 BYTE   W06
//  #03 //001   ----------------------------------------
Label_010031DB:
 BYTE   N06  Gn4  v088
 BYTE   N06  Cn5
 BYTE   W06
 BYTE   Gn4  v028
 BYTE   N06  Cn5
 BYTE   W12
 BYTE   Gn4  v072
 BYTE   N06  Cn5
 BYTE   W06
 BYTE   Gn4  v020
 BYTE   N06  Cn5
 BYTE   W12
 BYTE   Gn4  v084
 BYTE   N06  Cn5
 BYTE   W06
 BYTE   Gn4  v028
 BYTE   N06  Cn5
 BYTE   W12
 BYTE   Gn4  v072
 BYTE   N06  Cn5
 BYTE   W06
 BYTE   Gn4  v020
 BYTE   N06  Cn5
 BYTE   W12
 BYTE   Gn4  v084
 BYTE   N06  Cn5
 BYTE   W06
 BYTE   Gn4  v028
 BYTE   N06  Cn5
 BYTE   W06
 BYTE   Gn4  v072
 BYTE   N06  Cn5
 BYTE   W06
 BYTE   Gn4  v020
 BYTE   N06  Cn5
 BYTE   W06
 BYTE   PEND 
//  #03 //002   ----------------------------------------
Label_01003219:
 BYTE   N06  Fn4  v088
 BYTE   N06  Cn5
 BYTE   W06
 BYTE   Fn4  v028
 BYTE   N06  Cn5
 BYTE   W12
 BYTE   Fn4  v072
 BYTE   N06  Cn5
 BYTE   W06
 BYTE   Fn4  v020
 BYTE   N06  Cn5
 BYTE   W12
 BYTE   Fn4  v084
 BYTE   N06  Cn5
 BYTE   W06
 BYTE   Fn4  v028
 BYTE   N06  Cn5
 BYTE   W12
 BYTE   Fn4  v072
 BYTE   N06  Cn5
 BYTE   W06
 BYTE   Fn4  v020
 BYTE   N06  Cn5
 BYTE   W12
 BYTE   Fn4  v084
 BYTE   N06  Cn5
 BYTE   W06
 BYTE   Fn4  v028
 BYTE   N06  Cn5
 BYTE   W06
 BYTE   Fs4  v072
 BYTE   N06  Cs5
 BYTE   W06
 BYTE   Fs4  v020
 BYTE   N06  Cs5
 BYTE   W06
 BYTE   PEND 
//  #03 //003   ----------------------------------------
Label_01003257:
 BYTE   N06  Gn4  v088
 BYTE   N06  Dn5
 BYTE   W06
 BYTE   Gn4  v028
 BYTE   N06  Dn5
 BYTE   W12
 BYTE   Gn4  v072
 BYTE   N06  Dn5
 BYTE   W06
 BYTE   Gn4  v020
 BYTE   N06  Dn5
 BYTE   W12
 BYTE   Gn4  v084
 BYTE   N06  Dn5
 BYTE   W06
 BYTE   Gn4  v028
 BYTE   N06  Dn5
 BYTE   W12
 BYTE   Gn4  v072
 BYTE   N06  Dn5
 BYTE   W06
 BYTE   Gn4  v020
 BYTE   N06  Dn5
 BYTE   W12
 BYTE   N03  An2  v100
 BYTE   W04
 BYTE   As2
 BYTE   W04
 BYTE   Cn3
 BYTE   W04
 BYTE   Dn3
 BYTE   W04
 BYTE   Ds3
 BYTE   W04
 BYTE   Fn3
 BYTE   W04
 BYTE   PEND 
//  #03 //004   ----------------------------------------
 BYTE   N06  Gn4  v088
 BYTE   N06  As4
 BYTE   W06
 BYTE   Gn4  v028
 BYTE   N06  As4
 BYTE   W12
 BYTE   Gn4  v072
 BYTE   N06  As4
 BYTE   W06
 BYTE   Gn4  v020
 BYTE   N06  As4
 BYTE   W12
 BYTE   Gn4  v084
 BYTE   N06  As4
 BYTE   W06
 BYTE   Gn4  v028
 BYTE   N06  As4
 BYTE   W12
 BYTE   Gn4  v072
 BYTE   N06  As4
 BYTE   W06
 BYTE   Gn4  v020
 BYTE   N06  As4
 BYTE   W12
 BYTE   Gn4  v084
 BYTE   N06  As4
 BYTE   W06
 BYTE   Gn4  v028
 BYTE   N06  As4
 BYTE   W06
 BYTE   Gn4  v072
 BYTE   N06  As4
 BYTE   W06
 BYTE   Gn4  v020
 BYTE   N06  As4
 BYTE   W06
//  #03 //005   ----------------------------------------
 BYTE   PATT
  POIN2 Label_010031DB
//  #03 //006   ----------------------------------------
 BYTE   PATT
  POIN2 Label_01003219
//  #03 //007   ----------------------------------------
 BYTE   PATT
  POIN2 Label_01003257
//  #03 //008   ----------------------------------------
 BYTE   VOL   35*FE11TroubleAzula_mvl/mxv
 BYTE   N84  Gn3  v096
 BYTE   W84
 BYTE   W03
 BYTE   N02  Gs3  v112
 BYTE   W03
 BYTE   As3
 BYTE   W03
 BYTE   Cn4
 BYTE   W03
//  #03 //009   ----------------------------------------
 BYTE   N84  Fs3  v084
 BYTE   N84  Dn4  v076
 BYTE   W88
 BYTE   N05  Fs3  v020
 BYTE   N05  Dn4
 BYTE   W08
//  #03 //010   ----------------------------------------
 BYTE   W06
 BYTE   N88  Cn4  v080
 BYTE   W06
 BYTE   VOL   35*FE11TroubleAzula_mvl/mxv
 BYTE   W03
 BYTE   VOL   34*FE11TroubleAzula_mvl/mxv
 BYTE   W03
 BYTE   VOL   34*FE11TroubleAzula_mvl/mxv
 BYTE   W03
 BYTE   VOL   34*FE11TroubleAzula_mvl/mxv
 BYTE   W03
 BYTE   VOL   33*FE11TroubleAzula_mvl/mxv
 BYTE   W03
 BYTE   VOL   32*FE11TroubleAzula_mvl/mxv
 BYTE   W03
 BYTE   VOL   32*FE11TroubleAzula_mvl/mxv
 BYTE   W03
 BYTE   VOL   31*FE11TroubleAzula_mvl/mxv
 BYTE   W03
 BYTE   VOL   31*FE11TroubleAzula_mvl/mxv
 BYTE   W03
 BYTE   VOL   30*FE11TroubleAzula_mvl/mxv
 BYTE   W03
 BYTE   VOL   30*FE11TroubleAzula_mvl/mxv
 BYTE   W03
 BYTE   VOL   30*FE11TroubleAzula_mvl/mxv
 BYTE   W03
 BYTE   VOL   29*FE11TroubleAzula_mvl/mxv
 BYTE   W03
 BYTE   VOL   29*FE11TroubleAzula_mvl/mxv
 BYTE   W03
 BYTE   VOL   28*FE11TroubleAzula_mvl/mxv
 BYTE   W03
 BYTE   VOL   28*FE11TroubleAzula_mvl/mxv
 BYTE   W03
 BYTE   VOL   28*FE11TroubleAzula_mvl/mxv
 BYTE   W03
 BYTE   VOL   27*FE11TroubleAzula_mvl/mxv
 BYTE   W03
 BYTE   VOL   27*FE11TroubleAzula_mvl/mxv
 BYTE   W03
 BYTE   VOL   27*FE11TroubleAzula_mvl/mxv
 BYTE   W03
 BYTE   VOL   26*FE11TroubleAzula_mvl/mxv
 BYTE   W03
 BYTE   VOL   26*FE11TroubleAzula_mvl/mxv
 BYTE   W03
 BYTE   VOL   25*FE11TroubleAzula_mvl/mxv
 BYTE   W03
 BYTE   VOL   24*FE11TroubleAzula_mvl/mxv
 BYTE   W03
 BYTE   VOL   24*FE11TroubleAzula_mvl/mxv
 BYTE   W03
 BYTE   VOL   23*FE11TroubleAzula_mvl/mxv
 BYTE   W03
 BYTE   VOL   23*FE11TroubleAzula_mvl/mxv
 BYTE   W03
 BYTE   VOL   23*FE11TroubleAzula_mvl/mxv
 BYTE   W03
//  #03 //011   ----------------------------------------
 BYTE   VOL   22*FE11TroubleAzula_mvl/mxv
 BYTE   N23  An2  v092
 BYTE   W03
 BYTE   VOL   23*FE11TroubleAzula_mvl/mxv
 BYTE   W03
 BYTE   VOL   23*FE11TroubleAzula_mvl/mxv
 BYTE   W03
 BYTE   VOL   23*FE11TroubleAzula_mvl/mxv
 BYTE   W03
 BYTE   VOL   24*FE11TroubleAzula_mvl/mxv
 BYTE   W03
 BYTE   VOL   25*FE11TroubleAzula_mvl/mxv
 BYTE   W03
 BYTE   VOL   26*FE11TroubleAzula_mvl/mxv
 BYTE   W03
 BYTE   VOL   26*FE11TroubleAzula_mvl/mxv
 BYTE   W03
 BYTE   VOL   27*FE11TroubleAzula_mvl/mxv
 BYTE   N23  Cn3  v088
 BYTE   W03
 BYTE   VOL   27*FE11TroubleAzula_mvl/mxv
 BYTE   W03
 BYTE   VOL   28*FE11TroubleAzula_mvl/mxv
 BYTE   W03
 BYTE   VOL   28*FE11TroubleAzula_mvl/mxv
 BYTE   W03
 BYTE   VOL   29*FE11TroubleAzula_mvl/mxv
 BYTE   W03
 BYTE   VOL   29*FE11TroubleAzula_mvl/mxv
 BYTE   W03
 BYTE   VOL   30*FE11TroubleAzula_mvl/mxv
 BYTE   W03
 BYTE   VOL   30*FE11TroubleAzula_mvl/mxv
 BYTE   W03
 BYTE   VOL   31*FE11TroubleAzula_mvl/mxv
 BYTE   N23  Dn3  v100
 BYTE   W03
 BYTE   VOL   31*FE11TroubleAzula_mvl/mxv
 BYTE   W03
 BYTE   VOL   32*FE11TroubleAzula_mvl/mxv
 BYTE   W03
 BYTE   VOL   33*FE11TroubleAzula_mvl/mxv
 BYTE   W03
 BYTE   VOL   34*FE11TroubleAzula_mvl/mxv
 BYTE   W03
 BYTE   VOL   34*FE11TroubleAzula_mvl/mxv
 BYTE   W03
 BYTE   VOL   35*FE11TroubleAzula_mvl/mxv
 BYTE   W06
 BYTE   N23  Ds3  v116
 BYTE   W24
//  #03 //012   ----------------------------------------
Label_01003373:
 BYTE   N06  As4  v088
 BYTE   W06
 BYTE   As4  v024
 BYTE   W12
 BYTE   As4  v068
 BYTE   W06
 BYTE   As4  v020
 BYTE   W12
 BYTE   As4  v080
 BYTE   W06
 BYTE   As4  v024
 BYTE   W12
 BYTE   As4  v068
 BYTE   W06
 BYTE   As4  v020
 BYTE   W12
 BYTE   As4  v080
 BYTE   W06
 BYTE   As4  v024
 BYTE   W06
 BYTE   As4  v068
 BYTE   W06
 BYTE   As4  v020
 BYTE   W06
 BYTE   PEND 
//  #03 //013   ----------------------------------------
Label_01003399:
 BYTE   N06  Cn5  v088
 BYTE   W06
 BYTE   Cn5  v024
 BYTE   W12
 BYTE   Cn5  v068
 BYTE   W06
 BYTE   Cn5  v020
 BYTE   W12
 BYTE   Cn5  v080
 BYTE   W06
 BYTE   Cn5  v024
 BYTE   W12
 BYTE   Cn5  v068
 BYTE   W06
 BYTE   Cn5  v020
 BYTE   W12
 BYTE   Cn5  v080
 BYTE   W06
 BYTE   Cn5  v024
 BYTE   W06
 BYTE   Cn5  v068
 BYTE   W06
 BYTE   Cn5  v020
 BYTE   W06
 BYTE   PEND 
//  #03 //014   ----------------------------------------
Label_010033BF:
 BYTE   N06  Cn5  v088
 BYTE   W06
 BYTE   Cn5  v024
 BYTE   W12
 BYTE   Cn5  v068
 BYTE   W06
 BYTE   Cn5  v020
 BYTE   W12
 BYTE   Cn5  v080
 BYTE   W06
 BYTE   Cn5  v024
 BYTE   W12
 BYTE   Cn5  v068
 BYTE   W06
 BYTE   Cn5  v020
 BYTE   W12
 BYTE   Cn5  v080
 BYTE   W06
 BYTE   Cn5  v024
 BYTE   W06
 BYTE   Cs5  v068
 BYTE   W06
 BYTE   Cs5  v020
 BYTE   W06
 BYTE   PEND 
//  #03 //015   ----------------------------------------
 BYTE   Cn5  v088
 BYTE   W06
 BYTE   Cn5  v024
 BYTE   W12
 BYTE   Cn5  v068
 BYTE   W06
 BYTE   Cn5  v020
 BYTE   W12
 BYTE   Cn5  v080
 BYTE   W06
 BYTE   Cn5  v024
 BYTE   W12
 BYTE   Cn5  v068
 BYTE   W06
 BYTE   Cn5  v020
 BYTE   W12
 BYTE   Cn5  v068
 BYTE   W06
 BYTE   Cn5  v020
 BYTE   W06
 BYTE   Cn5  v068
 BYTE   W06
 BYTE   Cn5  v020
 BYTE   W06
//  #03 //016   ----------------------------------------
 BYTE   PATT
  POIN2 Label_01003373
//  #03 //017   ----------------------------------------
 BYTE   PATT
  POIN2 Label_01003399
//  #03 //018   ----------------------------------------
 BYTE   PATT
  POIN2 Label_010033BF
//  #03 //019   ----------------------------------------
 BYTE   N06  Cn5  v088
 BYTE   W06
 BYTE   Cn5  v024
 BYTE   W12
 BYTE   Cn5  v068
 BYTE   W06
 BYTE   Cn5  v020
 BYTE   W12
 BYTE   Cn5  v080
 BYTE   W06
 BYTE   Cn5  v024
 BYTE   W12
 BYTE   Cn5  v068
 BYTE   W06
 BYTE   Cn5  v020
 BYTE   W36
//  #03 //020   ----------------------------------------
 BYTE   VOL   18*FE11TroubleAzula_mvl/mxv
 BYTE   N92  Dn2  v088
 BYTE   TIE  An2
 BYTE   W03
 BYTE   VOL   18*FE11TroubleAzula_mvl/mxv
 BYTE   W03
 BYTE   VOL   19*FE11TroubleAzula_mvl/mxv
 BYTE   W03
 BYTE   VOL   19*FE11TroubleAzula_mvl/mxv
 BYTE   W03
 BYTE   VOL   19*FE11TroubleAzula_mvl/mxv
 BYTE   W03
 BYTE   VOL   20*FE11TroubleAzula_mvl/mxv
 BYTE   W03
 BYTE   VOL   20*FE11TroubleAzula_mvl/mxv
 BYTE   W03
 BYTE   VOL   21*FE11TroubleAzula_mvl/mxv
 BYTE   W03
 BYTE   VOL   22*FE11TroubleAzula_mvl/mxv
 BYTE   W03
 BYTE   VOL   22*FE11TroubleAzula_mvl/mxv
 BYTE   W03
 BYTE   VOL   23*FE11TroubleAzula_mvl/mxv
 BYTE   W03
 BYTE   VOL   23*FE11TroubleAzula_mvl/mxv
 BYTE   W03
 BYTE   VOL   24*FE11TroubleAzula_mvl/mxv
 BYTE   W03
 BYTE   VOL   25*FE11TroubleAzula_mvl/mxv
 BYTE   W03
 BYTE   VOL   26*FE11TroubleAzula_mvl/mxv
 BYTE   W03
 BYTE   VOL   27*FE11TroubleAzula_mvl/mxv
 BYTE   W03
 BYTE   VOL   27*FE11TroubleAzula_mvl/mxv
 BYTE   W03
 BYTE   VOL   28*FE11TroubleAzula_mvl/mxv
 BYTE   W03
 BYTE   VOL   28*FE11TroubleAzula_mvl/mxv
 BYTE   W03
 BYTE   VOL   29*FE11TroubleAzula_mvl/mxv
 BYTE   W03
 BYTE   VOL   29*FE11TroubleAzula_mvl/mxv
 BYTE   W03
 BYTE   VOL   30*FE11TroubleAzula_mvl/mxv
 BYTE   W03
 BYTE   VOL   30*FE11TroubleAzula_mvl/mxv
 BYTE   W03
 BYTE   VOL   31*FE11TroubleAzula_mvl/mxv
 BYTE   W03
 BYTE   VOL   32*FE11TroubleAzula_mvl/mxv
 BYTE   W03
 BYTE   VOL   33*FE11TroubleAzula_mvl/mxv
 BYTE   W03
 BYTE   VOL   34*FE11TroubleAzula_mvl/mxv
 BYTE   W03
 BYTE   VOL   35*FE11TroubleAzula_mvl/mxv
 BYTE   W15
//  #03 //021   ----------------------------------------
 BYTE   N92  Dn2
 BYTE   W14
 BYTE   EOT
 BYTE   An2
 BYTE   W01
 BYTE   VOL   35*FE11TroubleAzula_mvl/mxv
 BYTE   W03
 BYTE   VOL   34*FE11TroubleAzula_mvl/mxv
 BYTE   N05  An2  v020
 BYTE   W03
 BYTE   VOL   32*FE11TroubleAzula_mvl/mxv
 BYTE   W03
 BYTE   VOL   31*FE11TroubleAzula_mvl/mxv
 BYTE   N44  As2  v080
 BYTE   W03
 BYTE   VOL   30*FE11TroubleAzula_mvl/mxv
 BYTE   W03
 BYTE   VOL   29*FE11TroubleAzula_mvl/mxv
 BYTE   W03
 BYTE   VOL   28*FE11TroubleAzula_mvl/mxv
 BYTE   W03
 BYTE   VOL   27*FE11TroubleAzula_mvl/mxv
 BYTE   W03
 BYTE   VOL   26*FE11TroubleAzula_mvl/mxv
 BYTE   W03
 BYTE   VOL   24*FE11TroubleAzula_mvl/mxv
 BYTE   W03
 BYTE   VOL   23*FE11TroubleAzula_mvl/mxv
 BYTE   W03
 BYTE   VOL   22*FE11TroubleAzula_mvl/mxv
 BYTE   W03
 BYTE   VOL   21*FE11TroubleAzula_mvl/mxv
 BYTE   W03
 BYTE   VOL   20*FE11TroubleAzula_mvl/mxv
 BYTE   W03
 BYTE   VOL   19*FE11TroubleAzula_mvl/mxv
 BYTE   W03
 BYTE   VOL   19*FE11TroubleAzula_mvl/mxv
 BYTE   W03
 BYTE   VOL   18*FE11TroubleAzula_mvl/mxv
 BYTE   W03
 BYTE   VOL   17*FE11TroubleAzula_mvl/mxv
 BYTE   W03
 BYTE   VOL   16*FE11TroubleAzula_mvl/mxv
 BYTE   W03
 BYTE   VOL   15*FE11TroubleAzula_mvl/mxv
 BYTE   N44  An2  v108
 BYTE   W03
 BYTE   VOL   14*FE11TroubleAzula_mvl/mxv
 BYTE   W03
 BYTE   VOL   13*FE11TroubleAzula_mvl/mxv
 BYTE   W03
 BYTE   VOL   13*FE11TroubleAzula_mvl/mxv
 BYTE   W03
 BYTE   VOL   11*FE11TroubleAzula_mvl/mxv
 BYTE   W03
 BYTE   VOL   11*FE11TroubleAzula_mvl/mxv
 BYTE   W03
 BYTE   VOL   10*FE11TroubleAzula_mvl/mxv
 BYTE   W01
 BYTE   VOL   10*FE11TroubleAzula_mvl/mxv
 BYTE   W01
 BYTE   VOL   11*FE11TroubleAzula_mvl/mxv
 BYTE   W02
 BYTE   VOL   11*FE11TroubleAzula_mvl/mxv
 BYTE   W01
 BYTE   VOL   11*FE11TroubleAzula_mvl/mxv
 BYTE   W01
//  #03 //022   ----------------------------------------
 BYTE   N92  Dn2  v088
 BYTE   W01
 BYTE   VOL   12*FE11TroubleAzula_mvl/mxv
 BYTE   W01
 BYTE   VOL   12*FE11TroubleAzula_mvl/mxv
 BYTE   W02
 BYTE   VOL   13*FE11TroubleAzula_mvl/mxv
 BYTE   W01
 BYTE   VOL   13*FE11TroubleAzula_mvl/mxv
 BYTE   W02
 BYTE   VOL   14*FE11TroubleAzula_mvl/mxv
 BYTE   W01
 BYTE   VOL   14*FE11TroubleAzula_mvl/mxv
 BYTE   W02
 BYTE   VOL   15*FE11TroubleAzula_mvl/mxv
 BYTE   W01
 BYTE   VOL   16*FE11TroubleAzula_mvl/mxv
 BYTE   W02
 BYTE   VOL   16*FE11TroubleAzula_mvl/mxv
 BYTE   W01
 BYTE   VOL   17*FE11TroubleAzula_mvl/mxv
 BYTE   W02
 BYTE   VOL   17*FE11TroubleAzula_mvl/mxv
 BYTE   W01
 BYTE   VOL   18*FE11TroubleAzula_mvl/mxv
 BYTE   W02
 BYTE   VOL   18*FE11TroubleAzula_mvl/mxv
 BYTE   W01
 BYTE   VOL   19*FE11TroubleAzula_mvl/mxv
 BYTE   W02
 BYTE   VOL   19*FE11TroubleAzula_mvl/mxv
 BYTE   W01
 BYTE   VOL   20*FE11TroubleAzula_mvl/mxv
 BYTE   W01
 BYTE   N44  Gn2  v080
 BYTE   W01
 BYTE   VOL   20*FE11TroubleAzula_mvl/mxv
 BYTE   W01
 BYTE   VOL   21*FE11TroubleAzula_mvl/mxv
 BYTE   W02
 BYTE   VOL   22*FE11TroubleAzula_mvl/mxv
 BYTE   W01
 BYTE   VOL   22*FE11TroubleAzula_mvl/mxv
 BYTE   W02
 BYTE   VOL   23*FE11TroubleAzula_mvl/mxv
 BYTE   W01
 BYTE   VOL   23*FE11TroubleAzula_mvl/mxv
 BYTE   W02
 BYTE   VOL   24*FE11TroubleAzula_mvl/mxv
 BYTE   W01
 BYTE   VOL   24*FE11TroubleAzula_mvl/mxv
 BYTE   W02
 BYTE   VOL   26*FE11TroubleAzula_mvl/mxv
 BYTE   W01
 BYTE   VOL   27*FE11TroubleAzula_mvl/mxv
 BYTE   W02
 BYTE   VOL   27*FE11TroubleAzula_mvl/mxv
 BYTE   W01
 BYTE   VOL   28*FE11TroubleAzula_mvl/mxv
 BYTE   W02
 BYTE   VOL   28*FE11TroubleAzula_mvl/mxv
 BYTE   W01
 BYTE   VOL   29*FE11TroubleAzula_mvl/mxv
 BYTE   W02
 BYTE   VOL   29*FE11TroubleAzula_mvl/mxv
 BYTE   W01
 BYTE   VOL   30*FE11TroubleAzula_mvl/mxv
 BYTE   W02
 BYTE   VOL   30*FE11TroubleAzula_mvl/mxv
 BYTE   W01
 BYTE   VOL   31*FE11TroubleAzula_mvl/mxv
 BYTE   W02
 BYTE   VOL   32*FE11TroubleAzula_mvl/mxv
 BYTE   W01
 BYTE   VOL   33*FE11TroubleAzula_mvl/mxv
 BYTE   W02
 BYTE   VOL   34*FE11TroubleAzula_mvl/mxv
 BYTE   W01
 BYTE   VOL   34*FE11TroubleAzula_mvl/mxv
 BYTE   W01
 BYTE   VOL   35*FE11TroubleAzula_mvl/mxv
 BYTE   W15
 BYTE   N44  Fn2
 BYTE   W06
 BYTE   VOL   35*FE11TroubleAzula_mvl/mxv
 BYTE   W03
 BYTE   VOL   34*FE11TroubleAzula_mvl/mxv
 BYTE   W03
 BYTE   VOL   32*FE11TroubleAzula_mvl/mxv
 BYTE   W03
 BYTE   VOL   30*FE11TroubleAzula_mvl/mxv
 BYTE   W03
 BYTE   VOL   29*FE11TroubleAzula_mvl/mxv
 BYTE   W03
 BYTE   VOL   28*FE11TroubleAzula_mvl/mxv
 BYTE   W03
//  #03 //023   ----------------------------------------
 BYTE   VOL   27*FE11TroubleAzula_mvl/mxv
 BYTE   N44  Dn2  v088
 BYTE   W03
 BYTE   VOL   26*FE11TroubleAzula_mvl/mxv
 BYTE   W03
 BYTE   VOL   24*FE11TroubleAzula_mvl/mxv
 BYTE   W03
 BYTE   VOL   23*FE11TroubleAzula_mvl/mxv
 BYTE   W03
 BYTE   VOL   22*FE11TroubleAzula_mvl/mxv
 BYTE   W03
 BYTE   VOL   21*FE11TroubleAzula_mvl/mxv
 BYTE   W03
 BYTE   VOL   20*FE11TroubleAzula_mvl/mxv
 BYTE   W03
 BYTE   VOL   19*FE11TroubleAzula_mvl/mxv
 BYTE   W03
 BYTE   VOL   18*FE11TroubleAzula_mvl/mxv
 BYTE   N68  En2  v080
 BYTE   W03
 BYTE   VOL   17*FE11TroubleAzula_mvl/mxv
 BYTE   W03
 BYTE   VOL   16*FE11TroubleAzula_mvl/mxv
 BYTE   W03
 BYTE   VOL   15*FE11TroubleAzula_mvl/mxv
 BYTE   W03
 BYTE   VOL   14*FE11TroubleAzula_mvl/mxv
 BYTE   W03
 BYTE   VOL   13*FE11TroubleAzula_mvl/mxv
 BYTE   W03
 BYTE   VOL   12*FE11TroubleAzula_mvl/mxv
 BYTE   W03
 BYTE   VOL   11*FE11TroubleAzula_mvl/mxv
 BYTE   W02
 BYTE   VOL   11*FE11TroubleAzula_mvl/mxv
 BYTE   W01
 BYTE   VOL   11*FE11TroubleAzula_mvl/mxv
 BYTE   N44  Cs2
 BYTE   W02
 BYTE   VOL   12*FE11TroubleAzula_mvl/mxv
 BYTE   W01
 BYTE   VOL   13*FE11TroubleAzula_mvl/mxv
 BYTE   W02
 BYTE   VOL   13*FE11TroubleAzula_mvl/mxv
 BYTE   W01
 BYTE   VOL   14*FE11TroubleAzula_mvl/mxv
 BYTE   W02
 BYTE   VOL   15*FE11TroubleAzula_mvl/mxv
 BYTE   W01
 BYTE   VOL   16*FE11TroubleAzula_mvl/mxv
 BYTE   W02
 BYTE   VOL   17*FE11TroubleAzula_mvl/mxv
 BYTE   W01
 BYTE   VOL   17*FE11TroubleAzula_mvl/mxv
 BYTE   W02
 BYTE   VOL   18*FE11TroubleAzula_mvl/mxv
 BYTE   W01
 BYTE   VOL   19*FE11TroubleAzula_mvl/mxv
 BYTE   W02
 BYTE   VOL   19*FE11TroubleAzula_mvl/mxv
 BYTE   W01
 BYTE   VOL   20*FE11TroubleAzula_mvl/mxv
 BYTE   W02
 BYTE   VOL   21*FE11TroubleAzula_mvl/mxv
 BYTE   W01
 BYTE   VOL   22*FE11TroubleAzula_mvl/mxv
 BYTE   W02
 BYTE   VOL   22*FE11TroubleAzula_mvl/mxv
 BYTE   W01
 BYTE   VOL   23*FE11TroubleAzula_mvl/mxv
 BYTE   W02
 BYTE   VOL   24*FE11TroubleAzula_mvl/mxv
 BYTE   W01
 BYTE   VOL   26*FE11TroubleAzula_mvl/mxv
 BYTE   W02
 BYTE   VOL   27*FE11TroubleAzula_mvl/mxv
 BYTE   W01
 BYTE   VOL   27*FE11TroubleAzula_mvl/mxv
 BYTE   W02
 BYTE   VOL   28*FE11TroubleAzula_mvl/mxv
 BYTE   W01
 BYTE   VOL   29*FE11TroubleAzula_mvl/mxv
 BYTE   W02
 BYTE   VOL   30*FE11TroubleAzula_mvl/mxv
 BYTE   W01
 BYTE   VOL   31*FE11TroubleAzula_mvl/mxv
 BYTE   W02
 BYTE   VOL   32*FE11TroubleAzula_mvl/mxv
 BYTE   W01
 BYTE   VOL   33*FE11TroubleAzula_mvl/mxv
 BYTE   W02
 BYTE   VOL   34*FE11TroubleAzula_mvl/mxv
 BYTE   W01
 BYTE   VOL   35*FE11TroubleAzula_mvl/mxv
 BYTE   W06
//  #03 //024   ----------------------------------------
 BYTE   N06  Fn4  v084
 BYTE   N06  An4
 BYTE   W06
 BYTE   Fn4  v024
 BYTE   N06  An4
 BYTE   W12
 BYTE   Fn4  v064
 BYTE   N06  An4
 BYTE   W06
 BYTE   Fn4  v016
 BYTE   N06  An4
 BYTE   W12
 BYTE   Fn4  v080
 BYTE   N06  An4
 BYTE   W06
 BYTE   Fn4  v024
 BYTE   N06  An4
 BYTE   W12
 BYTE   Fn4  v064
 BYTE   N06  An4
 BYTE   W06
 BYTE   Fn4  v016
 BYTE   N06  An4
 BYTE   W12
 BYTE   Fn4  v080
 BYTE   N06  An4
 BYTE   W06
 BYTE   Fn4  v024
 BYTE   N06  An4
 BYTE   W06
 BYTE   Fn4  v064
 BYTE   N06  An4
 BYTE   W06
 BYTE   Fn4  v016
 BYTE   N06  An4
 BYTE   W06
//  #03 //025   ----------------------------------------
 BYTE   Fn4  v084
 BYTE   N06  An4
 BYTE   W06
 BYTE   Fn4  v024
 BYTE   N06  An4
 BYTE   W12
 BYTE   Fn4  v064
 BYTE   N06  An4
 BYTE   W06
 BYTE   Fn4  v016
 BYTE   N06  An4
 BYTE   W12
 BYTE   Fn4  v080
 BYTE   N06  An4
 BYTE   W06
 BYTE   Fn4  v024
 BYTE   N06  An4
 BYTE   W12
 BYTE   An4  v064
 BYTE   N06  Gn5
 BYTE   W06
 BYTE   An4  v016
 BYTE   N06  Gn5
 BYTE   W12
 BYTE   An4  v080
 BYTE   N06  Gn5
 BYTE   W06
 BYTE   An4  v024
 BYTE   N06  Gn5
 BYTE   W06
 BYTE   An4  v064
 BYTE   N06  Gn5
 BYTE   W06
 BYTE   An4  v016
 BYTE   N06  Gn5
 BYTE   W06
//  #03 //026   ----------------------------------------
 BYTE   As4  v084
 BYTE   N06  Gn5
 BYTE   W06
 BYTE   As4  v024
 BYTE   N06  Gn5
 BYTE   W12
 BYTE   As4  v064
 BYTE   N06  Fn5
 BYTE   W06
 BYTE   As4  v016
 BYTE   N06  Fn5
 BYTE   W12
 BYTE   As4  v080
 BYTE   N06  En5
 BYTE   W06
 BYTE   As4  v024
 BYTE   N06  En5
 BYTE   W12
 BYTE   As4  v076
 BYTE   N06  Dn5
 BYTE   W06
 BYTE   As4  v020
 BYTE   N06  Dn5
 BYTE   W06
 BYTE   An4  v076
 BYTE   N06  Cn5
 BYTE   W06
 BYTE   An4  v020
 BYTE   N06  Cn5
 BYTE   W12
 BYTE   Gn4  v076
 BYTE   N06  As4
 BYTE   W06
 BYTE   Gn4  v020
 BYTE   N06  As4
 BYTE   W06
//  #03 //027   ----------------------------------------
 BYTE   W12
 BYTE   N05  As4  v100
 BYTE   W06
 BYTE   An4  v072
 BYTE   W06
 BYTE   As4
 BYTE   W06
 BYTE   Cn5  v076
 BYTE   W06
 BYTE   Dn4  v100
 BYTE   W06
 BYTE   Fn4
 BYTE   W06
 BYTE   En4  v092
 BYTE   W06
 BYTE   Cs4  v108
 BYTE   W06
 BYTE   Cn4  v084
 BYTE   W06
 BYTE   Cs4  v072
 BYTE   W06
 BYTE   En4  v092
 BYTE   W06
 BYTE   Fn4  v072
 BYTE   W06
 BYTE   Gn4  v076
 BYTE   W06
 BYTE   An4  v084
 BYTE   W06
//  #03 //028   ----------------------------------------
 BYTE   GoTo
  POIN2 Label_01003192
 BYTE   FINE

//**************** Track 4 (Midi-Chn.3) ****************//

FE11TroubleAzula_004:
//  #04 //000   ----------------------------------------
 BYTE   KEYSH   FE11TroubleAzula_key+0
Label_0100A986:
 BYTE   VOICE   10
 BYTE   MODT 0
 BYTE   LFOS 44
 BYTE   VOL   36*FE11TroubleAzula_mvl/mxv
 BYTE   PAN   c_v-10
 BYTE   VOL   36*FE11TroubleAzula_mvl/mxv
 BYTE   PAN   c_v-10
 BYTE   N06  Dn4  v108
 BYTE   W06
 BYTE   Cn4  v072
 BYTE   W06
 BYTE   As3  v064
 BYTE   W06
 BYTE   An3  v072
 BYTE   W06
 BYTE   As3  v080
 BYTE   W06
 BYTE   Gn3  v064
 BYTE   W06
 BYTE   Dn4  v100
 BYTE   W06
 BYTE   Cn4  v056
 BYTE   W06
 BYTE   As3  v076
 BYTE   W06
 BYTE   An3  v060
 BYTE   W06
 BYTE   As3
 BYTE   W06
 BYTE   Gn3  v076
 BYTE   W06
 BYTE   Dn4  v092
 BYTE   W06
 BYTE   Cn4  v080
 BYTE   W06
 BYTE   As3  v052
 BYTE   W06
 BYTE   An3  v068
 BYTE   W06
//  #04 //001   ----------------------------------------
Label_0100A9C4:
 BYTE   N06  As3  v072
 BYTE   W06
 BYTE   Gn3  v080
 BYTE   W06
 BYTE   Dn4  v100
 BYTE   W06
 BYTE   Cn4  v076
 BYTE   W06
 BYTE   As3
 BYTE   W06
 BYTE   An3  v060
 BYTE   W06
 BYTE   As3
 BYTE   W06
 BYTE   Gn3  v072
 BYTE   W06
 BYTE   Dn4  v100
 BYTE   W06
 BYTE   Cn4  v072
 BYTE   W06
 BYTE   As3  v060
 BYTE   W06
 BYTE   An3  v064
 BYTE   W06
 BYTE   As3  v056
 BYTE   W06
 BYTE   Gn3  v084
 BYTE   W06
 BYTE   Dn4  v088
 BYTE   W06
 BYTE   Cn4  v072
 BYTE   W06
 BYTE   PEND 
//  #04 //002   ----------------------------------------
Label_0100A9F4:
 BYTE   N06  As3  v088
 BYTE   W06
 BYTE   Dn4  v044
 BYTE   W06
 BYTE   An3  v080
 BYTE   W06
 BYTE   Dn4  v056
 BYTE   W06
 BYTE   Gn3  v080
 BYTE   W06
 BYTE   Dn4  v060
 BYTE   W06
 BYTE   An3  v084
 BYTE   W06
 BYTE   Dn4  v048
 BYTE   W06
 BYTE   As3  v088
 BYTE   W06
 BYTE   Dn4  v060
 BYTE   W06
 BYTE   Cn4  v084
 BYTE   W06
 BYTE   Dn4  v048
 BYTE   W06
 BYTE   As3  v076
 BYTE   W06
 BYTE   Dn4  v044
 BYTE   W06
 BYTE   An3  v076
 BYTE   W06
 BYTE   Dn4  v048
 BYTE   W06
 BYTE   PEND 
//  #04 //003   ----------------------------------------
Label_0100AA26:
 BYTE   N06  As3  v092
 BYTE   W06
 BYTE   Dn4  v072
 BYTE   W06
 BYTE   An3  v080
 BYTE   W06
 BYTE   Dn4  v056
 BYTE   W06
 BYTE   Gn3  v092
 BYTE   W06
 BYTE   Dn4  v060
 BYTE   W06
 BYTE   Fs3  v088
 BYTE   W06
 BYTE   Dn4  v044
 BYTE   W06
 BYTE   Gn3  v076
 BYTE   W06
 BYTE   Dn4  v052
 BYTE   W06
 BYTE   An3  v084
 BYTE   W06
 BYTE   Dn4  v056
 BYTE   W06
 BYTE   N03  As3  v060
 BYTE   W03
 BYTE   Cn4
 BYTE   W03
 BYTE   As3
 BYTE   W03
 BYTE   Cn4
 BYTE   W03
 BYTE   N06  An3  v092
 BYTE   W06
 BYTE   As3  v076
 BYTE   W06
 BYTE   PEND 
//  #04 //004   ----------------------------------------
 BYTE   VOL   36*FE11TroubleAzula_mvl/mxv
 BYTE   N06  Dn4  v108
 BYTE   W06
 BYTE   Cn4  v072
 BYTE   W06
 BYTE   As3  v064
 BYTE   W06
 BYTE   An3  v072
 BYTE   W06
 BYTE   As3  v080
 BYTE   W06
 BYTE   Gn3  v064
 BYTE   W06
 BYTE   Dn4  v100
 BYTE   W06
 BYTE   Cn4  v056
 BYTE   W06
 BYTE   As3  v076
 BYTE   W06
 BYTE   An3  v060
 BYTE   W06
 BYTE   As3
 BYTE   W06
 BYTE   Gn3  v076
 BYTE   W06
 BYTE   Dn4  v092
 BYTE   W06
 BYTE   Cn4  v080
 BYTE   W06
 BYTE   As3  v052
 BYTE   W06
 BYTE   An3  v068
 BYTE   W06
//  #04 //005   ----------------------------------------
 BYTE   PATT
  POIN2 Label_0100A9C4
//  #04 //006   ----------------------------------------
 BYTE   PATT
  POIN2 Label_0100A9F4
//  #04 //007   ----------------------------------------
 BYTE   PATT
  POIN2 Label_0100AA26
//  #04 //008   ----------------------------------------
 BYTE   W96
//  #04 //009   ----------------------------------------
 BYTE   W96
//  #04 //010   ----------------------------------------
 BYTE   W96
//  #04 //011   ----------------------------------------
 BYTE   W96
//  #04 //012   ----------------------------------------
 BYTE   PAN   c_v-11
 BYTE   VOL   36*FE11TroubleAzula_mvl/mxv
 BYTE   N03  Dn5  v127
 BYTE   W03
 BYTE   Dn5  v028
 BYTE   W03
 BYTE   Cn5  v088
 BYTE   W03
 BYTE   Cn5  v024
 BYTE   W03
 BYTE   As4  v080
 BYTE   W03
 BYTE   As4  v020
 BYTE   W03
 BYTE   An4  v088
 BYTE   W03
 BYTE   An4  v024
 BYTE   W03
 BYTE   As4  v100
 BYTE   W03
 BYTE   As4  v024
 BYTE   W03
 BYTE   Gn4  v080
 BYTE   W03
 BYTE   Gn4  v020
 BYTE   W03
 BYTE   Dn5  v120
 BYTE   W03
 BYTE   Dn5  v028
 BYTE   W03
 BYTE   Cn5  v072
 BYTE   W03
 BYTE   Cn5  v020
 BYTE   W03
 BYTE   As4  v096
 BYTE   W03
 BYTE   As4  v024
 BYTE   W03
 BYTE   An4  v076
 BYTE   W03
 BYTE   An4  v020
 BYTE   W03
 BYTE   As4  v080
 BYTE   W03
 BYTE   As4  v020
 BYTE   W03
 BYTE   Gn4  v096
 BYTE   W03
 BYTE   Gn4  v024
 BYTE   W03
 BYTE   Dn5  v116
 BYTE   W03
 BYTE   Dn5  v028
 BYTE   W03
 BYTE   Cn5  v100
 BYTE   W03
 BYTE   Cn5  v024
 BYTE   W03
 BYTE   As4  v068
 BYTE   W03
 BYTE   As4  v016
 BYTE   W03
 BYTE   An4  v088
 BYTE   W03
 BYTE   An4  v020
 BYTE   W03
//  #04 //013   ----------------------------------------
Label_0100AB07:
 BYTE   N03  As4  v088
 BYTE   W03
 BYTE   As4  v020
 BYTE   W03
 BYTE   Gn4  v100
 BYTE   W03
 BYTE   Gn4  v024
 BYTE   W03
 BYTE   Dn5  v120
 BYTE   W03
 BYTE   Dn5  v028
 BYTE   W03
 BYTE   Cn5  v092
 BYTE   W03
 BYTE   Cn5  v024
 BYTE   W03
 BYTE   As4  v096
 BYTE   W03
 BYTE   As4  v024
 BYTE   W03
 BYTE   An4  v080
 BYTE   W03
 BYTE   An4  v020
 BYTE   W03
 BYTE   As4  v080
 BYTE   W03
 BYTE   As4  v020
 BYTE   W03
 BYTE   Gn4  v092
 BYTE   W03
 BYTE   Gn4  v024
 BYTE   W03
 BYTE   Dn5  v120
 BYTE   W03
 BYTE   Dn5  v028
 BYTE   W03
 BYTE   Cn5  v092
 BYTE   W03
 BYTE   Cn5  v024
 BYTE   W03
 BYTE   As4  v076
 BYTE   W03
 BYTE   As4  v020
 BYTE   W03
 BYTE   An4  v080
 BYTE   W03
 BYTE   An4  v020
 BYTE   W03
 BYTE   As4  v072
 BYTE   W03
 BYTE   As4  v020
 BYTE   W03
 BYTE   Gn4  v104
 BYTE   W03
 BYTE   Gn4  v024
 BYTE   W03
 BYTE   Dn5  v112
 BYTE   W03
 BYTE   Dn5  v024
 BYTE   W03
 BYTE   Cn5  v088
 BYTE   W03
 BYTE   Cn5  v020
 BYTE   W03
 BYTE   PEND 
//  #04 //014   ----------------------------------------
Label_0100AB69:
 BYTE   N03  As4  v108
 BYTE   W03
 BYTE   As4  v024
 BYTE   W03
 BYTE   Dn5  v056
 BYTE   W03
 BYTE   Dn5  v016
 BYTE   W03
 BYTE   An4  v100
 BYTE   W03
 BYTE   An4  v024
 BYTE   W03
 BYTE   Dn5  v072
 BYTE   W03
 BYTE   Dn5  v020
 BYTE   W03
 BYTE   Gn4  v100
 BYTE   W03
 BYTE   Gn4  v024
 BYTE   W03
 BYTE   Dn5  v076
 BYTE   W03
 BYTE   Dn5  v020
 BYTE   W03
 BYTE   An4  v104
 BYTE   W03
 BYTE   An4  v024
 BYTE   W03
 BYTE   Dn5  v060
 BYTE   W03
 BYTE   Dn5  v016
 BYTE   W03
 BYTE   As4  v108
 BYTE   W03
 BYTE   As4  v024
 BYTE   W03
 BYTE   Dn5  v076
 BYTE   W03
 BYTE   Dn5  v020
 BYTE   W03
 BYTE   Cn5  v108
 BYTE   W03
 BYTE   Cn5  v024
 BYTE   W03
 BYTE   Dn5  v064
 BYTE   W03
 BYTE   Dn5  v016
 BYTE   W03
 BYTE   As4  v096
 BYTE   W03
 BYTE   As4  v024
 BYTE   W03
 BYTE   Dn5  v056
 BYTE   W03
 BYTE   Dn5  v016
 BYTE   W03
 BYTE   An4  v092
 BYTE   W03
 BYTE   An4  v024
 BYTE   W03
 BYTE   Dn5  v060
 BYTE   W03
 BYTE   Dn5  v016
 BYTE   W03
 BYTE   PEND 
//  #04 //015   ----------------------------------------
 BYTE   As4  v116
 BYTE   W03
 BYTE   As4  v024
 BYTE   W03
 BYTE   Dn5  v088
 BYTE   W03
 BYTE   Dn5  v020
 BYTE   W03
 BYTE   An4  v100
 BYTE   W03
 BYTE   An4  v024
 BYTE   W03
 BYTE   Dn5  v072
 BYTE   W03
 BYTE   Dn5  v020
 BYTE   W03
 BYTE   Gn4  v112
 BYTE   W03
 BYTE   Gn4  v028
 BYTE   W03
 BYTE   Dn5  v076
 BYTE   W03
 BYTE   Dn5  v020
 BYTE   W03
 BYTE   Fs4  v108
 BYTE   W03
 BYTE   Fs4  v024
 BYTE   W03
 BYTE   Dn5  v056
 BYTE   W03
 BYTE   Dn5  v016
 BYTE   W03
 BYTE   Gn4  v096
 BYTE   W03
 BYTE   Gn4  v024
 BYTE   W03
 BYTE   Dn5  v064
 BYTE   W03
 BYTE   Dn5  v016
 BYTE   W03
 BYTE   An4  v104
 BYTE   W03
 BYTE   An4  v024
 BYTE   W03
 BYTE   Dn5  v072
 BYTE   W03
 BYTE   Dn5  v020
 BYTE   W03
 BYTE   As4  v068
 BYTE   W03
 BYTE   Cn5
 BYTE   W03
 BYTE   As4
 BYTE   W03
 BYTE   Cn5
 BYTE   W03
 BYTE   An4  v112
 BYTE   W03
 BYTE   An4  v028
 BYTE   W03
 BYTE   As4  v096
 BYTE   W03
 BYTE   As4  v024
 BYTE   W03
//  #04 //016   ----------------------------------------
 BYTE   Dn5  v127
 BYTE   W03
 BYTE   Dn5  v028
 BYTE   W03
 BYTE   Cn5  v088
 BYTE   W03
 BYTE   Cn5  v024
 BYTE   W03
 BYTE   As4  v080
 BYTE   W03
 BYTE   As4  v020
 BYTE   W03
 BYTE   An4  v088
 BYTE   W03
 BYTE   An4  v024
 BYTE   W03
 BYTE   As4  v100
 BYTE   W03
 BYTE   As4  v024
 BYTE   W03
 BYTE   Gn4  v080
 BYTE   W03
 BYTE   Gn4  v020
 BYTE   W03
 BYTE   Dn5  v120
 BYTE   W03
 BYTE   Dn5  v028
 BYTE   W03
 BYTE   Cn5  v072
 BYTE   W03
 BYTE   Cn5  v020
 BYTE   W03
 BYTE   As4  v096
 BYTE   W03
 BYTE   As4  v024
 BYTE   W03
 BYTE   An4  v076
 BYTE   W03
 BYTE   An4  v020
 BYTE   W03
 BYTE   As4  v080
 BYTE   W03
 BYTE   As4  v020
 BYTE   W03
 BYTE   Gn4  v096
 BYTE   W03
 BYTE   Gn4  v024
 BYTE   W03
 BYTE   Dn5  v116
 BYTE   W03
 BYTE   Dn5  v028
 BYTE   W03
 BYTE   Cn5  v100
 BYTE   W03
 BYTE   Cn5  v024
 BYTE   W03
 BYTE   As4  v068
 BYTE   W03
 BYTE   As4  v016
 BYTE   W03
 BYTE   An4  v088
 BYTE   W03
 BYTE   An4  v020
 BYTE   W03
//  #04 //017   ----------------------------------------
 BYTE   PATT
  POIN2 Label_0100AB07
//  #04 //018   ----------------------------------------
 BYTE   PATT
  POIN2 Label_0100AB69
//  #04 //019   ----------------------------------------
 BYTE   N03  As4  v116
 BYTE   W03
 BYTE   As4  v024
 BYTE   W03
 BYTE   Dn5  v088
 BYTE   W03
 BYTE   Dn5  v020
 BYTE   W03
 BYTE   An4  v100
 BYTE   W03
 BYTE   An4  v024
 BYTE   W03
 BYTE   Dn5  v072
 BYTE   W03
 BYTE   Dn5  v020
 BYTE   W03
 BYTE   Gn4  v112
 BYTE   W03
 BYTE   Gn4  v028
 BYTE   W03
 BYTE   Dn5  v076
 BYTE   W03
 BYTE   Dn5  v020
 BYTE   W03
 BYTE   Fs4  v108
 BYTE   W03
 BYTE   Fs4  v024
 BYTE   W03
 BYTE   Dn5  v056
 BYTE   W03
 BYTE   Dn5  v016
 BYTE   W03
 BYTE   Gn4  v096
 BYTE   W03
 BYTE   Gn4  v024
 BYTE   W03
 BYTE   Dn5  v064
 BYTE   W03
 BYTE   Dn5  v016
 BYTE   W03
 BYTE   An4  v104
 BYTE   W03
 BYTE   An4  v024
 BYTE   W03
 BYTE   Dn5  v072
 BYTE   W03
 BYTE   Dn5  v020
 BYTE   W03
 BYTE   As4  v068
 BYTE   W03
 BYTE   As4  v016
 BYTE   N03  Cn5  v068
 BYTE   W03
 BYTE   As4
 BYTE   N03  Cn5  v016
 BYTE   W03
 BYTE   As4
 BYTE   N03  Cn5  v068
 BYTE   W03
 BYTE   An4  v112
 BYTE   N03  Cn5  v016
 BYTE   W03
 BYTE   An4  v028
 BYTE   W03
 BYTE   As4  v104
 BYTE   W03
 BYTE   As4  v028
 BYTE   W03
//  #04 //020   ----------------------------------------
 BYTE   W96
//  #04 //021   ----------------------------------------
 BYTE   W96
//  #04 //022   ----------------------------------------
 BYTE   W96
//  #04 //023   ----------------------------------------
 BYTE   W96
//  #04 //024   ----------------------------------------
 BYTE   PAN   c_v+0
 BYTE   W12
 BYTE   N05  Dn3  v064
 BYTE   W06
 BYTE   Cs3  v060
 BYTE   W06
 BYTE   Dn3  v068
 BYTE   W06
 BYTE   En3  v064
 BYTE   W06
 BYTE   Fn3  v072
 BYTE   W06
 BYTE   Gn3  v068
 BYTE   W06
 BYTE   An3
 BYTE   W06
 BYTE   As3  v064
 BYTE   W06
 BYTE   Cs4
 BYTE   W06
 BYTE   As3  v060
 BYTE   W06
 BYTE   An3  v056
 BYTE   W06
 BYTE   Gn3  v048
 BYTE   W06
 BYTE   Fn3  v056
 BYTE   W06
 BYTE   N07  En3  v060
 BYTE   W06
//  #04 //025   ----------------------------------------
 BYTE   W02
 BYTE   N05  En3  v020
 BYTE   W10
 BYTE   Dn3  v064
 BYTE   W06
 BYTE   Cs3
 BYTE   W06
 BYTE   Dn3  v076
 BYTE   W06
 BYTE   En3  v068
 BYTE   W06
 BYTE   Fn3  v064
 BYTE   W06
 BYTE   Gn3
 BYTE   W06
 BYTE   An3  v048
 BYTE   W06
 BYTE   As3  v064
 BYTE   W06
 BYTE   Cs4  v076
 BYTE   W06
 BYTE   Dn4
 BYTE   W06
 BYTE   En4  v080
 BYTE   W06
 BYTE   Fn4  v068
 BYTE   W06
 BYTE   N13  Gn4  v076
 BYTE   W12
//  #04 //026   ----------------------------------------
 BYTE   W03
 BYTE   N05  Gn4  v020
 BYTE   W09
 BYTE   Gn4  v072
 BYTE   W06
 BYTE   Fn4  v076
 BYTE   W06
 BYTE   En4  v056
 BYTE   W06
 BYTE   Fn4  v068
 BYTE   W06
 BYTE   En4  v076
 BYTE   W06
 BYTE   Dn4  v068
 BYTE   W06
 BYTE   Cs4  v076
 BYTE   W06
 BYTE   Dn4  v080
 BYTE   W06
 BYTE   En4  v068
 BYTE   W06
 BYTE   Dn4  v072
 BYTE   W06
 BYTE   Cs4  v060
 BYTE   W06
 BYTE   As3  v056
 BYTE   W06
 BYTE   An3  v068
 BYTE   W06
 BYTE   N07  Gn3
 BYTE   W06
//  #04 //027   ----------------------------------------
 BYTE   W03
 BYTE   N05  Gn3  v020
 BYTE   W09
 BYTE   Gn3  v076
 BYTE   W06
 BYTE   Fs3  v048
 BYTE   W06
 BYTE   Gn3  v052
 BYTE   W06
 BYTE   An3  v056
 BYTE   W06
 BYTE   As3  v076
 BYTE   W06
 BYTE   Dn4
 BYTE   W06
 BYTE   Cs4  v068
 BYTE   W06
 BYTE   An3  v080
 BYTE   W06
 BYTE   Gs3  v060
 BYTE   W06
 BYTE   An3  v052
 BYTE   W06
 BYTE   Cs4  v068
 BYTE   W06
 BYTE   Dn4  v052
 BYTE   W06
 BYTE   En4  v056
 BYTE   W06
 BYTE   Fn4  v064
 BYTE   W06
//  #04 //028   ----------------------------------------
 BYTE   GoTo
  POIN2 Label_0100A986
 BYTE   FINE

//**************** Track 5 (Midi-Chn.4) ****************//

FE11TroubleAzula_005:
//  #05 //000   ----------------------------------------
 BYTE   KEYSH   FE11TroubleAzula_key+0
Label_0100ADD2:
 BYTE   VOICE   73
 BYTE   MODT 0
 BYTE   LFOS 44
 BYTE   VOL   33*FE11TroubleAzula_mvl/mxv
 BYTE   PAN   c_v+0
 BYTE   W96
//  #05 //001   ----------------------------------------
 BYTE   W96
//  #05 //002   ----------------------------------------
 BYTE   W96
//  #05 //003   ----------------------------------------
 BYTE   W96
//  #05 //004   ----------------------------------------
 BYTE   W96
//  #05 //005   ----------------------------------------
 BYTE   W96
//  #05 //006   ----------------------------------------
 BYTE   W96
//  #05 //007   ----------------------------------------
 BYTE   W96
//  #05 //008   ----------------------------------------
 BYTE   PAN   c_v+17
 BYTE   VOL   33*FE11TroubleAzula_mvl/mxv
 BYTE   W06
 BYTE   N05  Dn4  v108
 BYTE   W06
 BYTE   Dn4  v056
 BYTE   W06
 BYTE   Dn4  v020
 BYTE   W06
 BYTE   Dn4  v100
 BYTE   W06
 BYTE   Dn4  v080
 BYTE   W06
 BYTE   Dn4  v020
 BYTE   W06
 BYTE   Dn4  v104
 BYTE   W06
 BYTE   Dn4  v020
 BYTE   W06
 BYTE   Dn4  v100
 BYTE   W06
 BYTE   Dn4  v072
 BYTE   W06
 BYTE   Dn4  v020
 BYTE   W06
 BYTE   VOL   33*FE11TroubleAzula_mvl/mxv
 BYTE   N05  Dn4  v096
 BYTE   W06
 BYTE   Dn4  v064
 BYTE   W06
 BYTE   Dn4  v020
 BYTE   W06
 BYTE   Dn4  v116
 BYTE   W06
//  #05 //009   ----------------------------------------
 BYTE   Dn4  v024
 BYTE   W06
 BYTE   An3  v108
 BYTE   W06
 BYTE   An3  v056
 BYTE   W06
 BYTE   An3  v020
 BYTE   W06
 BYTE   An3  v100
 BYTE   W06
 BYTE   An3  v080
 BYTE   W06
 BYTE   An3  v020
 BYTE   W06
 BYTE   An3  v104
 BYTE   W06
 BYTE   An3  v020
 BYTE   W06
 BYTE   An3  v100
 BYTE   W06
 BYTE   An3  v072
 BYTE   W06
 BYTE   An3  v020
 BYTE   W06
 BYTE   An3  v096
 BYTE   W06
 BYTE   An3  v064
 BYTE   W06
 BYTE   An3  v020
 BYTE   W06
 BYTE   An3  v116
 BYTE   W06
//  #05 //010   ----------------------------------------
 BYTE   N96  Gn1  v100
 BYTE   N05  Dn4  v024
 BYTE   W06
 BYTE   Dn4  v108
 BYTE   W06
 BYTE   Dn4  v056
 BYTE   W06
 BYTE   Dn4  v020
 BYTE   W06
 BYTE   Dn4  v100
 BYTE   W06
 BYTE   Dn4  v080
 BYTE   W06
 BYTE   Dn4  v020
 BYTE   W06
 BYTE   Dn4  v104
 BYTE   W06
 BYTE   Dn4  v020
 BYTE   W02
 BYTE   VOL   33*FE11TroubleAzula_mvl/mxv
 BYTE   W01
 BYTE   VOL   32*FE11TroubleAzula_mvl/mxv
 BYTE   W02
 BYTE   VOL   31*FE11TroubleAzula_mvl/mxv
 BYTE   W01
 BYTE   VOL   30*FE11TroubleAzula_mvl/mxv
 BYTE   N05  Dn4  v100
 BYTE   W02
 BYTE   VOL   29*FE11TroubleAzula_mvl/mxv
 BYTE   W01
 BYTE   VOL   28*FE11TroubleAzula_mvl/mxv
 BYTE   W02
 BYTE   VOL   28*FE11TroubleAzula_mvl/mxv
 BYTE   W01
 BYTE   VOL   27*FE11TroubleAzula_mvl/mxv
 BYTE   N05  Dn4  v072
 BYTE   W02
 BYTE   VOL   27*FE11TroubleAzula_mvl/mxv
 BYTE   W01
 BYTE   VOL   25*FE11TroubleAzula_mvl/mxv
 BYTE   W02
 BYTE   VOL   24*FE11TroubleAzula_mvl/mxv
 BYTE   W01
 BYTE   VOL   23*FE11TroubleAzula_mvl/mxv
 BYTE   N05  Dn4  v020
 BYTE   W02
 BYTE   VOL   23*FE11TroubleAzula_mvl/mxv
 BYTE   W01
 BYTE   VOL   22*FE11TroubleAzula_mvl/mxv
 BYTE   W02
 BYTE   VOL   22*FE11TroubleAzula_mvl/mxv
 BYTE   W01
 BYTE   VOL   20*FE11TroubleAzula_mvl/mxv
 BYTE   N05  Dn4  v096
 BYTE   W02
 BYTE   VOL   20*FE11TroubleAzula_mvl/mxv
 BYTE   W01
 BYTE   VOL   19*FE11TroubleAzula_mvl/mxv
 BYTE   W02
 BYTE   VOL   19*FE11TroubleAzula_mvl/mxv
 BYTE   W01
 BYTE   VOL   18*FE11TroubleAzula_mvl/mxv
 BYTE   N05  Dn4  v064
 BYTE   W02
 BYTE   VOL   17*FE11TroubleAzula_mvl/mxv
 BYTE   W01
 BYTE   VOL   17*FE11TroubleAzula_mvl/mxv
 BYTE   W02
 BYTE   VOL   16*FE11TroubleAzula_mvl/mxv
 BYTE   W01
 BYTE   VOL   15*FE11TroubleAzula_mvl/mxv
 BYTE   N05  Dn4  v020
 BYTE   W02
 BYTE   VOL   15*FE11TroubleAzula_mvl/mxv
 BYTE   W01
 BYTE   VOL   14*FE11TroubleAzula_mvl/mxv
 BYTE   W02
 BYTE   VOL   14*FE11TroubleAzula_mvl/mxv
 BYTE   W01
 BYTE   VOL   13*FE11TroubleAzula_mvl/mxv
 BYTE   N05  Dn4  v116
 BYTE   W02
 BYTE   VOL   13*FE11TroubleAzula_mvl/mxv
 BYTE   W01
 BYTE   VOL   11*FE11TroubleAzula_mvl/mxv
 BYTE   W02
 BYTE   VOL   11*FE11TroubleAzula_mvl/mxv
 BYTE   W01
//  #05 //011   ----------------------------------------
 BYTE   VOL   11*FE11TroubleAzula_mvl/mxv
 BYTE   N88  Fs1  v100
 BYTE   W06
 BYTE   VOL   11*FE11TroubleAzula_mvl/mxv
 BYTE   W03
 BYTE   VOL   11*FE11TroubleAzula_mvl/mxv
 BYTE   W03
 BYTE   VOL   11*FE11TroubleAzula_mvl/mxv
 BYTE   W03
 BYTE   VOL   12*FE11TroubleAzula_mvl/mxv
 BYTE   W03
 BYTE   VOL   13*FE11TroubleAzula_mvl/mxv
 BYTE   W03
 BYTE   VOL   13*FE11TroubleAzula_mvl/mxv
 BYTE   W03
 BYTE   VOL   13*FE11TroubleAzula_mvl/mxv
 BYTE   W03
 BYTE   VOL   14*FE11TroubleAzula_mvl/mxv
 BYTE   W03
 BYTE   VOL   14*FE11TroubleAzula_mvl/mxv
 BYTE   W03
 BYTE   VOL   15*FE11TroubleAzula_mvl/mxv
 BYTE   W03
 BYTE   VOL   16*FE11TroubleAzula_mvl/mxv
 BYTE   W03
 BYTE   VOL   17*FE11TroubleAzula_mvl/mxv
 BYTE   W03
 BYTE   VOL   17*FE11TroubleAzula_mvl/mxv
 BYTE   W03
 BYTE   VOL   18*FE11TroubleAzula_mvl/mxv
 BYTE   W03
 BYTE   VOL   19*FE11TroubleAzula_mvl/mxv
 BYTE   W03
 BYTE   VOL   20*FE11TroubleAzula_mvl/mxv
 BYTE   W03
 BYTE   VOL   22*FE11TroubleAzula_mvl/mxv
 BYTE   W03
 BYTE   VOL   23*FE11TroubleAzula_mvl/mxv
 BYTE   W03
 BYTE   VOL   25*FE11TroubleAzula_mvl/mxv
 BYTE   W03
 BYTE   VOL   27*FE11TroubleAzula_mvl/mxv
 BYTE   W03
 BYTE   VOL   30*FE11TroubleAzula_mvl/mxv
 BYTE   W02
 BYTE   VOL   33*FE11TroubleAzula_mvl/mxv
 BYTE   W28
//  #05 //012   ----------------------------------------
 BYTE   VOL   33*FE11TroubleAzula_mvl/mxv
 BYTE   N06  Dn4  v116
 BYTE   N06  Gn4  v100
 BYTE   W06
 BYTE   Dn4  v028
 BYTE   N06  Gn4
 BYTE   W12
 BYTE   Dn4  v080
 BYTE   N06  Gn4
 BYTE   W06
 BYTE   Dn4  v020
 BYTE   N06  Gn4
 BYTE   W12
 BYTE   Dn4  v092
 BYTE   N06  Gn4
 BYTE   W06
 BYTE   Dn4  v028
 BYTE   N06  Gn4
 BYTE   W12
 BYTE   Dn4  v080
 BYTE   N06  Gn4
 BYTE   W06
 BYTE   Dn4  v020
 BYTE   N06  Gn4
 BYTE   W12
 BYTE   Dn4  v092
 BYTE   N06  Gn4
 BYTE   W06
 BYTE   Dn4  v028
 BYTE   N06  Gn4
 BYTE   W06
 BYTE   Dn4  v080
 BYTE   N06  Gn4
 BYTE   W06
 BYTE   Dn4  v020
 BYTE   N06  Gn4
 BYTE   W06
//  #05 //013   ----------------------------------------
 BYTE   En4  v100
 BYTE   N06  Gn4
 BYTE   W06
 BYTE   En4  v028
 BYTE   N06  Gn4
 BYTE   W12
 BYTE   En4  v080
 BYTE   N06  Gn4
 BYTE   W06
 BYTE   En4  v020
 BYTE   N06  Gn4
 BYTE   W12
 BYTE   En4  v092
 BYTE   N06  Gn4
 BYTE   W06
 BYTE   En4  v028
 BYTE   N06  Gn4
 BYTE   W12
 BYTE   En4  v080
 BYTE   N06  Gn4
 BYTE   W06
 BYTE   En4  v020
 BYTE   N06  Gn4
 BYTE   W12
 BYTE   En4  v092
 BYTE   N06  Gn4
 BYTE   W06
 BYTE   En4  v028
 BYTE   N06  Gn4
 BYTE   W06
 BYTE   En4  v080
 BYTE   N06  Gn4
 BYTE   W06
 BYTE   En4  v020
 BYTE   N06  Gn4
 BYTE   W06
//  #05 //014   ----------------------------------------
 BYTE   Dn4  v100
 BYTE   N06  Gn4
 BYTE   W06
 BYTE   Dn4  v028
 BYTE   N06  Gn4
 BYTE   W12
 BYTE   Dn4  v080
 BYTE   N06  Gn4
 BYTE   W06
 BYTE   Dn4  v020
 BYTE   N06  Gn4
 BYTE   W12
 BYTE   Dn4  v092
 BYTE   N06  Gn4
 BYTE   W06
 BYTE   Dn4  v028
 BYTE   N06  Gn4
 BYTE   W12
 BYTE   Dn4  v080
 BYTE   N06  Gn4
 BYTE   W06
 BYTE   Dn4  v020
 BYTE   N06  Gn4
 BYTE   W12
 BYTE   Cn4  v092
 BYTE   N06  Fn4
 BYTE   W06
 BYTE   Cn4  v028
 BYTE   N06  Fn4
 BYTE   W06
 BYTE   Ds4  v080
 BYTE   N06  Fs4
 BYTE   W06
 BYTE   Ds4  v020
 BYTE   N06  Fs4
 BYTE   W06
//  #05 //015   ----------------------------------------
 BYTE   Dn4  v100
 BYTE   N06  Gn4
 BYTE   W06
 BYTE   Dn4  v028
 BYTE   N06  Gn4
 BYTE   W12
 BYTE   Dn4  v080
 BYTE   N06  Gn4
 BYTE   W06
 BYTE   Dn4  v020
 BYTE   N06  Gn4
 BYTE   W12
 BYTE   Dn4  v092
 BYTE   N06  Gn4
 BYTE   W06
 BYTE   Dn4  v028
 BYTE   N06  Gn4
 BYTE   W12
 BYTE   Dn4  v080
 BYTE   N06  Gn4
 BYTE   W06
 BYTE   Dn4  v020
 BYTE   N06  Gn4
 BYTE   W12
 BYTE   Dn4  v092
 BYTE   N06  Gn4
 BYTE   W06
 BYTE   Dn4  v028
 BYTE   N06  Gn4
 BYTE   W06
 BYTE   Dn4  v080
 BYTE   N06  Gn4
 BYTE   W06
 BYTE   Dn4  v020
 BYTE   N06  Gn4
 BYTE   W06
//  #05 //016   ----------------------------------------
 BYTE   VOL   33*FE11TroubleAzula_mvl/mxv
 BYTE   N06  Fn4  v100
 BYTE   N06  Gn4
 BYTE   W06
 BYTE   Fn4  v028
 BYTE   N06  Gn4
 BYTE   W12
 BYTE   Dn4  v080
 BYTE   N06  Gn4
 BYTE   W06
 BYTE   Dn4  v020
 BYTE   N06  Gn4
 BYTE   W12
 BYTE   As3  v092
 BYTE   N06  Gn4
 BYTE   W06
 BYTE   As3  v028
 BYTE   N06  Gn4
 BYTE   W12
 BYTE   Gn4  v080
 BYTE   N06  An4
 BYTE   W06
 BYTE   Gn4  v020
 BYTE   N06  An4
 BYTE   W12
 BYTE   Gn4  v092
 BYTE   W06
 BYTE   Gn4  v028
 BYTE   W06
 BYTE   Fn4  v080
 BYTE   N06  Gn4
 BYTE   W06
 BYTE   Fn4  v020
 BYTE   N06  Gn4
 BYTE   W06
//  #05 //017   ----------------------------------------
 BYTE   Gn3  v100
 BYTE   N06  En4
 BYTE   W06
 BYTE   Gn3  v028
 BYTE   N06  En4
 BYTE   W12
 BYTE   Gn3  v080
 BYTE   N06  Cn4
 BYTE   W06
 BYTE   Gn3  v020
 BYTE   N06  Cn4
 BYTE   W12
 BYTE   Gn3  v092
 BYTE   N06  Gn4
 BYTE   W06
 BYTE   Gn3  v028
 BYTE   N06  Gn4
 BYTE   W12
 BYTE   Gn3  v080
 BYTE   N06  En4
 BYTE   W06
 BYTE   Gn3  v020
 BYTE   N06  En4
 BYTE   W12
 BYTE   Gn3  v092
 BYTE   N06  Dn4
 BYTE   W06
 BYTE   Gn3  v028
 BYTE   N06  Dn4
 BYTE   W06
 BYTE   Cn4  v080
 BYTE   N06  Gn4
 BYTE   W06
 BYTE   Cn4  v020
 BYTE   N06  Gn4
 BYTE   W06
//  #05 //018   ----------------------------------------
 BYTE   As3  v100
 BYTE   N06  Gn4
 BYTE   W06
 BYTE   As3  v028
 BYTE   N06  Gn4
 BYTE   W12
 BYTE   Gn4  v080
 BYTE   W06
 BYTE   Gn4  v020
 BYTE   W12
 BYTE   Cn4  v092
 BYTE   N06  Gn4
 BYTE   W06
 BYTE   Cn4  v028
 BYTE   N06  Gn4
 BYTE   W12
 BYTE   Dn4  v080
 BYTE   N06  Gn4
 BYTE   W06
 BYTE   Dn4  v020
 BYTE   N06  Gn4
 BYTE   W12
 BYTE   Cn4  v092
 BYTE   N06  Fn4
 BYTE   W06
 BYTE   Cn4  v028
 BYTE   N06  Fn4
 BYTE   W06
 BYTE   Ds4  v080
 BYTE   N06  Fs4
 BYTE   W06
 BYTE   Ds4  v020
 BYTE   N06  Fs4
 BYTE   W06
//  #05 //019   ----------------------------------------
 BYTE   Dn4  v100
 BYTE   N06  Gn4
 BYTE   W06
 BYTE   Dn4  v028
 BYTE   N06  Gn4
 BYTE   W12
 BYTE   Dn4  v080
 BYTE   N06  Gn4
 BYTE   W06
 BYTE   Dn4  v020
 BYTE   N06  Gn4
 BYTE   W12
 BYTE   Dn4  v092
 BYTE   N06  Gn4
 BYTE   W06
 BYTE   Dn4  v028
 BYTE   N06  Gn4
 BYTE   W12
 BYTE   Dn4  v080
 BYTE   N06  Gn4
 BYTE   W06
 BYTE   Dn4  v020
 BYTE   N06  Gn4
 BYTE   W07
 BYTE   VOL   33*FE11TroubleAzula_mvl/mxv
 BYTE   W01
 BYTE   VOL   29*FE11TroubleAzula_mvl/mxv
 BYTE   W01
 BYTE   VOL   22*FE11TroubleAzula_mvl/mxv
 BYTE   W01
 BYTE   VOL   20*FE11TroubleAzula_mvl/mxv
 BYTE   W01
 BYTE   VOL   17*FE11TroubleAzula_mvl/mxv
 BYTE   W01
 BYTE   VOL   11*FE11TroubleAzula_mvl/mxv
 BYTE   N32  Gn1  v084
 BYTE   W01
 BYTE   VOL   10*FE11TroubleAzula_mvl/mxv
 BYTE   W02
 BYTE   VOL   10*FE11TroubleAzula_mvl/mxv
 BYTE   W01
 BYTE   VOL   11*FE11TroubleAzula_mvl/mxv
 BYTE   W02
 BYTE   VOL   11*FE11TroubleAzula_mvl/mxv
 BYTE   W01
 BYTE   VOL   12*FE11TroubleAzula_mvl/mxv
 BYTE   W02
 BYTE   VOL   13*FE11TroubleAzula_mvl/mxv
 BYTE   W01
 BYTE   VOL   15*FE11TroubleAzula_mvl/mxv
 BYTE   W02
 BYTE   VOL   17*FE11TroubleAzula_mvl/mxv
 BYTE   W01
 BYTE   VOL   19*FE11TroubleAzula_mvl/mxv
 BYTE   W02
 BYTE   VOL   22*FE11TroubleAzula_mvl/mxv
 BYTE   W01
 BYTE   VOL   28*FE11TroubleAzula_mvl/mxv
 BYTE   W01
 BYTE   VOL   33*FE11TroubleAzula_mvl/mxv
 BYTE   W01
 BYTE   VOL   28*FE11TroubleAzula_mvl/mxv
 BYTE   W01
 BYTE   VOL   27*FE11TroubleAzula_mvl/mxv
 BYTE   W01
 BYTE   VOL   24*FE11TroubleAzula_mvl/mxv
 BYTE   W01
 BYTE   VOL   20*FE11TroubleAzula_mvl/mxv
 BYTE   W01
 BYTE   VOL   18*FE11TroubleAzula_mvl/mxv
 BYTE   W01
 BYTE   VOL   17*FE11TroubleAzula_mvl/mxv
 BYTE   W01
//  #05 //020   ----------------------------------------
 BYTE   VOL   13*FE11TroubleAzula_mvl/mxv
 BYTE   W01
 BYTE   VOL   11*FE11TroubleAzula_mvl/mxv
 BYTE   W01
 BYTE   VOL   10*FE11TroubleAzula_mvl/mxv
 BYTE   W01
 BYTE   VOL   7*FE11TroubleAzula_mvl/mxv
 BYTE   W01
 BYTE   VOL   6*FE11TroubleAzula_mvl/mxv
 BYTE   W01
 BYTE   VOL   5*FE11TroubleAzula_mvl/mxv
 BYTE   W01
 BYTE   VOL   3*FE11TroubleAzula_mvl/mxv
 BYTE   W01
 BYTE   VOL   2*FE11TroubleAzula_mvl/mxv
 BYTE   W01
 BYTE   VOL   1*FE11TroubleAzula_mvl/mxv
 BYTE   W01
 BYTE   VOL   0*FE11TroubleAzula_mvl/mxv
 BYTE   W01
 BYTE   VOL   0*FE11TroubleAzula_mvl/mxv
 BYTE   W01
 BYTE   VOL   0*FE11TroubleAzula_mvl/mxv
 BYTE   W02
 BYTE   VOL   0*FE11TroubleAzula_mvl/mxv
 BYTE   W11
 BYTE   VOL   0*FE11TroubleAzula_mvl/mxv
 BYTE   W01
 BYTE   VOL   0*FE11TroubleAzula_mvl/mxv
 BYTE   W02
 BYTE   VOL   0*FE11TroubleAzula_mvl/mxv
 BYTE   W01
 BYTE   VOL   0*FE11TroubleAzula_mvl/mxv
 BYTE   W02
 BYTE   VOL   0*FE11TroubleAzula_mvl/mxv
 BYTE   W01
 BYTE   VOL   0*FE11TroubleAzula_mvl/mxv
 BYTE   W02
 BYTE   VOL   0*FE11TroubleAzula_mvl/mxv
 BYTE   W01
 BYTE   VOL   0*FE11TroubleAzula_mvl/mxv
 BYTE   W60
 BYTE   W02
//  #05 //021   ----------------------------------------
 BYTE   W96
//  #05 //022   ----------------------------------------
 BYTE   W96
//  #05 //023   ----------------------------------------
 BYTE   W60
 BYTE   W01
 BYTE   VOL   0*FE11TroubleAzula_mvl/mxv
 BYTE   W01
 BYTE   VOL   3*FE11TroubleAzula_mvl/mxv
 BYTE   W01
 BYTE   VOL   6*FE11TroubleAzula_mvl/mxv
 BYTE   W01
 BYTE   VOL   14*FE11TroubleAzula_mvl/mxv
 BYTE   W01
 BYTE   VOL   20*FE11TroubleAzula_mvl/mxv
 BYTE   W01
 BYTE   VOL   26*FE11TroubleAzula_mvl/mxv
 BYTE   W01
 BYTE   VOL   33*FE11TroubleAzula_mvl/mxv
 BYTE   W01
 BYTE   VOL   31*FE11TroubleAzula_mvl/mxv
 BYTE   W02
 BYTE   VOL   30*FE11TroubleAzula_mvl/mxv
 BYTE   W01
 BYTE   VOL   29*FE11TroubleAzula_mvl/mxv
 BYTE   W02
 BYTE   VOL   28*FE11TroubleAzula_mvl/mxv
 BYTE   W01
 BYTE   VOL   27*FE11TroubleAzula_mvl/mxv
 BYTE   W02
 BYTE   VOL   25*FE11TroubleAzula_mvl/mxv
 BYTE   W01
 BYTE   VOL   24*FE11TroubleAzula_mvl/mxv
 BYTE   W02
 BYTE   VOL   23*FE11TroubleAzula_mvl/mxv
 BYTE   W01
 BYTE   VOL   22*FE11TroubleAzula_mvl/mxv
 BYTE   W02
 BYTE   VOL   21*FE11TroubleAzula_mvl/mxv
 BYTE   W01
 BYTE   VOL   20*FE11TroubleAzula_mvl/mxv
 BYTE   W02
 BYTE   VOL   19*FE11TroubleAzula_mvl/mxv
 BYTE   W01
 BYTE   VOL   18*FE11TroubleAzula_mvl/mxv
 BYTE   W02
 BYTE   VOL   17*FE11TroubleAzula_mvl/mxv
 BYTE   W01
 BYTE   VOL   17*FE11TroubleAzula_mvl/mxv
 BYTE   W02
 BYTE   VOL   15*FE11TroubleAzula_mvl/mxv
 BYTE   W01
 BYTE   VOL   14*FE11TroubleAzula_mvl/mxv
 BYTE   W02
 BYTE   VOL   13*FE11TroubleAzula_mvl/mxv
 BYTE   W01
 BYTE   VOL   13*FE11TroubleAzula_mvl/mxv
 BYTE   W01
//  #05 //024   ----------------------------------------
 BYTE   N88  Fn1  v080
 BYTE   W01
 BYTE   VOL   11*FE11TroubleAzula_mvl/mxv
 BYTE   W01
 BYTE   VOL   11*FE11TroubleAzula_mvl/mxv
 BYTE   W03
 BYTE   VOL   11*FE11TroubleAzula_mvl/mxv
 BYTE   W03
 BYTE   VOL   11*FE11TroubleAzula_mvl/mxv
 BYTE   W03
 BYTE   VOL   12*FE11TroubleAzula_mvl/mxv
 BYTE   W03
 BYTE   VOL   13*FE11TroubleAzula_mvl/mxv
 BYTE   W03
 BYTE   VOL   13*FE11TroubleAzula_mvl/mxv
 BYTE   W03
 BYTE   VOL   14*FE11TroubleAzula_mvl/mxv
 BYTE   W03
 BYTE   VOL   15*FE11TroubleAzula_mvl/mxv
 BYTE   W03
 BYTE   VOL   15*FE11TroubleAzula_mvl/mxv
 BYTE   W03
 BYTE   VOL   16*FE11TroubleAzula_mvl/mxv
 BYTE   W03
 BYTE   VOL   17*FE11TroubleAzula_mvl/mxv
 BYTE   W03
 BYTE   VOL   17*FE11TroubleAzula_mvl/mxv
 BYTE   W03
 BYTE   VOL   18*FE11TroubleAzula_mvl/mxv
 BYTE   W03
 BYTE   VOL   19*FE11TroubleAzula_mvl/mxv
 BYTE   W03
 BYTE   VOL   19*FE11TroubleAzula_mvl/mxv
 BYTE   W03
 BYTE   VOL   20*FE11TroubleAzula_mvl/mxv
 BYTE   W03
 BYTE   VOL   20*FE11TroubleAzula_mvl/mxv
 BYTE   W03
 BYTE   VOL   22*FE11TroubleAzula_mvl/mxv
 BYTE   W03
 BYTE   VOL   22*FE11TroubleAzula_mvl/mxv
 BYTE   W03
 BYTE   VOL   23*FE11TroubleAzula_mvl/mxv
 BYTE   W03
 BYTE   VOL   23*FE11TroubleAzula_mvl/mxv
 BYTE   W03
 BYTE   VOL   24*FE11TroubleAzula_mvl/mxv
 BYTE   W03
 BYTE   VOL   25*FE11TroubleAzula_mvl/mxv
 BYTE   W03
 BYTE   VOL   27*FE11TroubleAzula_mvl/mxv
 BYTE   W03
 BYTE   VOL   27*FE11TroubleAzula_mvl/mxv
 BYTE   W03
 BYTE   VOL   27*FE11TroubleAzula_mvl/mxv
 BYTE   W03
 BYTE   VOL   28*FE11TroubleAzula_mvl/mxv
 BYTE   W03
 BYTE   VOL   29*FE11TroubleAzula_mvl/mxv
 BYTE   W03
 BYTE   VOL   30*FE11TroubleAzula_mvl/mxv
 BYTE   W03
 BYTE   VOL   30*FE11TroubleAzula_mvl/mxv
 BYTE   W01
 BYTE   N05  Fn1  v020
 BYTE   W02
 BYTE   VOL   31*FE11TroubleAzula_mvl/mxv
 BYTE   W02
 BYTE   VOL   33*FE11TroubleAzula_mvl/mxv
 BYTE   W02
//  #05 //025   ----------------------------------------
 BYTE   N90  Fn1  v080
 BYTE   N90  An1
 BYTE   W21
 BYTE   VOL   33*FE11TroubleAzula_mvl/mxv
 BYTE   W03
 BYTE   VOL   32*FE11TroubleAzula_mvl/mxv
 BYTE   W03
 BYTE   VOL   31*FE11TroubleAzula_mvl/mxv
 BYTE   W03
 BYTE   VOL   30*FE11TroubleAzula_mvl/mxv
 BYTE   W03
 BYTE   VOL   30*FE11TroubleAzula_mvl/mxv
 BYTE   W03
 BYTE   VOL   29*FE11TroubleAzula_mvl/mxv
 BYTE   W03
 BYTE   VOL   28*FE11TroubleAzula_mvl/mxv
 BYTE   W03
 BYTE   VOL   28*FE11TroubleAzula_mvl/mxv
 BYTE   W03
 BYTE   VOL   27*FE11TroubleAzula_mvl/mxv
 BYTE   W03
 BYTE   VOL   27*FE11TroubleAzula_mvl/mxv
 BYTE   W03
 BYTE   VOL   25*FE11TroubleAzula_mvl/mxv
 BYTE   W03
 BYTE   VOL   24*FE11TroubleAzula_mvl/mxv
 BYTE   W03
 BYTE   VOL   23*FE11TroubleAzula_mvl/mxv
 BYTE   W03
 BYTE   VOL   22*FE11TroubleAzula_mvl/mxv
 BYTE   W03
 BYTE   VOL   22*FE11TroubleAzula_mvl/mxv
 BYTE   W03
 BYTE   VOL   20*FE11TroubleAzula_mvl/mxv
 BYTE   W03
 BYTE   VOL   19*FE11TroubleAzula_mvl/mxv
 BYTE   W03
 BYTE   VOL   18*FE11TroubleAzula_mvl/mxv
 BYTE   W03
 BYTE   VOL   17*FE11TroubleAzula_mvl/mxv
 BYTE   W03
 BYTE   VOL   16*FE11TroubleAzula_mvl/mxv
 BYTE   W03
 BYTE   VOL   15*FE11TroubleAzula_mvl/mxv
 BYTE   W03
 BYTE   VOL   13*FE11TroubleAzula_mvl/mxv
 BYTE   W03
 BYTE   VOL   11*FE11TroubleAzula_mvl/mxv
 BYTE   W03
 BYTE   VOL   10*FE11TroubleAzula_mvl/mxv
 BYTE   W03
 BYTE   VOL   10*FE11TroubleAzula_mvl/mxv
 BYTE   N02  Fn1  v020
 BYTE   N02  An1
 BYTE   W01
 BYTE   VOL   8*FE11TroubleAzula_mvl/mxv
 BYTE   W02
//  #05 //026   ----------------------------------------
 BYTE   TIE  An1  v108
 BYTE   TIE  Dn2
 BYTE   W44
 BYTE   W01
 BYTE   VOL   8*FE11TroubleAzula_mvl/mxv
 BYTE   W03
 BYTE   VOL   8*FE11TroubleAzula_mvl/mxv
 BYTE   W01
 BYTE   VOL   9*FE11TroubleAzula_mvl/mxv
 BYTE   W02
 BYTE   VOL   10*FE11TroubleAzula_mvl/mxv
 BYTE   W01
 BYTE   VOL   10*FE11TroubleAzula_mvl/mxv
 BYTE   W02
 BYTE   VOL   10*FE11TroubleAzula_mvl/mxv
 BYTE   W01
 BYTE   VOL   10*FE11TroubleAzula_mvl/mxv
 BYTE   W02
 BYTE   VOL   10*FE11TroubleAzula_mvl/mxv
 BYTE   W01
 BYTE   VOL   10*FE11TroubleAzula_mvl/mxv
 BYTE   W02
 BYTE   VOL   11*FE11TroubleAzula_mvl/mxv
 BYTE   W01
 BYTE   VOL   11*FE11TroubleAzula_mvl/mxv
 BYTE   W02
 BYTE   VOL   11*FE11TroubleAzula_mvl/mxv
 BYTE   W01
 BYTE   VOL   13*FE11TroubleAzula_mvl/mxv
 BYTE   W02
 BYTE   VOL   13*FE11TroubleAzula_mvl/mxv
 BYTE   W01
 BYTE   VOL   14*FE11TroubleAzula_mvl/mxv
 BYTE   W02
 BYTE   VOL   15*FE11TroubleAzula_mvl/mxv
 BYTE   W01
 BYTE   VOL   16*FE11TroubleAzula_mvl/mxv
 BYTE   W02
 BYTE   VOL   17*FE11TroubleAzula_mvl/mxv
 BYTE   W01
 BYTE   VOL   18*FE11TroubleAzula_mvl/mxv
 BYTE   W02
 BYTE   VOL   19*FE11TroubleAzula_mvl/mxv
 BYTE   W01
 BYTE   VOL   20*FE11TroubleAzula_mvl/mxv
 BYTE   W02
 BYTE   VOL   23*FE11TroubleAzula_mvl/mxv
 BYTE   W01
 BYTE   VOL   26*FE11TroubleAzula_mvl/mxv
 BYTE   W02
 BYTE   VOL   29*FE11TroubleAzula_mvl/mxv
 BYTE   W01
 BYTE   VOL   33*FE11TroubleAzula_mvl/mxv
 BYTE   W14
//  #05 //027   ----------------------------------------
 BYTE   W01
 BYTE   EOT
 BYTE   An1  v050
 BYTE   W02
 BYTE   N05  An1  v020
 BYTE   N05  Dn2
 BYTE   W09
 BYTE   Gn4  v092
 BYTE   W06
 BYTE   Fs4  v064
 BYTE   W06
 BYTE   Gn4
 BYTE   W06
 BYTE   An4  v068
 BYTE   W06
 BYTE   As4  v092
 BYTE   W06
 BYTE   Dn4
 BYTE   W06
 BYTE   Cs4  v084
 BYTE   W06
 BYTE   Cs4  v020
 BYTE   W12
 BYTE   N11  An1  v096
 BYTE   W12
 BYTE   N05  Dn4  v076
 BYTE   W06
 BYTE   En4  v084
 BYTE   W06
 BYTE   Fn4  v092
 BYTE   W06
//  #05 //028   ----------------------------------------
 BYTE   GoTo
  POIN2 Label_0100ADD2
 BYTE   FINE

//**************** Track 6 (Midi-Chn.5) ****************//

FE11TroubleAzula_006:
//  #06 //000   ----------------------------------------
 BYTE   KEYSH   FE11TroubleAzula_key+0
Label_0100B26A:
 BYTE   VOICE   68
 BYTE   MODT 0
 BYTE   LFOS 44
 BYTE   PAN   c_v+0
 BYTE   VOL   40*FE11TroubleAzula_mvl/mxv
 BYTE   W96
//  #06 //001   ----------------------------------------
 BYTE   W96
//  #06 //002   ----------------------------------------
 BYTE   W96
//  #06 //003   ----------------------------------------
 BYTE   W96
//  #06 //004   ----------------------------------------
 BYTE   VOL   40*FE11TroubleAzula_mvl/mxv
 BYTE   W96
//  #06 //005   ----------------------------------------
 BYTE   W96
//  #06 //006   ----------------------------------------
 BYTE   W96
//  #06 //007   ----------------------------------------
 BYTE   W96
//  #06 //008   ----------------------------------------
 BYTE   W06
 BYTE   N06  Fs3  v127
 BYTE   W06
 BYTE   Fs3  v088
 BYTE   W06
 BYTE   Fs3  v024
 BYTE   W06
 BYTE   Fs3  v127
 BYTE   W06
 BYTE   Fs3  v088
 BYTE   W06
 BYTE   Fs3  v024
 BYTE   W06
 BYTE   Fs3  v127
 BYTE   W06
 BYTE   Fs3  v024
 BYTE   W06
 BYTE   Fs3  v127
 BYTE   W06
 BYTE   Fs3  v088
 BYTE   W06
 BYTE   Fs3  v024
 BYTE   W06
 BYTE   Fs3  v127
 BYTE   W06
 BYTE   Fs3  v088
 BYTE   W06
 BYTE   Fs3  v024
 BYTE   W06
 BYTE   Fs3  v127
 BYTE   W06
//  #06 //009   ----------------------------------------
Label_0100B2AC:
 BYTE   N06  Fs3  v028
 BYTE   W06
 BYTE   Gn3  v127
 BYTE   W06
 BYTE   Gn3  v088
 BYTE   W06
 BYTE   Gn3  v024
 BYTE   W06
 BYTE   Gn3  v127
 BYTE   W06
 BYTE   Gn3  v088
 BYTE   W06
 BYTE   Gn3  v024
 BYTE   W06
 BYTE   Gn3  v127
 BYTE   W06
 BYTE   Gn3  v024
 BYTE   W06
 BYTE   Gn3  v127
 BYTE   W06
 BYTE   Gn3  v088
 BYTE   W06
 BYTE   Gn3  v024
 BYTE   W06
 BYTE   Gn3  v127
 BYTE   W06
 BYTE   Gn3  v088
 BYTE   W06
 BYTE   Gn3  v024
 BYTE   W06
 BYTE   Gn3  v127
 BYTE   W06
 BYTE   PEND 
//  #06 //010   ----------------------------------------
 BYTE   Gn3  v028
 BYTE   W06
 BYTE   Fs3  v127
 BYTE   W06
 BYTE   Fs3  v088
 BYTE   W06
 BYTE   Fs3  v024
 BYTE   W06
 BYTE   Fs3  v127
 BYTE   W06
 BYTE   Fs3  v088
 BYTE   W06
 BYTE   Fs3  v024
 BYTE   W06
 BYTE   Fs3  v127
 BYTE   W06
 BYTE   Fs3  v024
 BYTE   W06
 BYTE   Fs3  v127
 BYTE   W06
 BYTE   Fs3  v088
 BYTE   W06
 BYTE   Fs3  v024
 BYTE   W06
 BYTE   Fs3  v127
 BYTE   W06
 BYTE   Fs3  v088
 BYTE   W06
 BYTE   Fs3  v024
 BYTE   W06
 BYTE   Fs3  v127
 BYTE   W06
//  #06 //011   ----------------------------------------
 BYTE   PATT
  POIN2 Label_0100B2AC
//  #06 //012   ----------------------------------------
 BYTE   W96
//  #06 //013   ----------------------------------------
 BYTE   W96
//  #06 //014   ----------------------------------------
 BYTE   W96
//  #06 //015   ----------------------------------------
 BYTE   W96
//  #06 //016   ----------------------------------------
 BYTE   W96
//  #06 //017   ----------------------------------------
 BYTE   W96
//  #06 //018   ----------------------------------------
 BYTE   W96
//  #06 //019   ----------------------------------------
 BYTE   W96
//  #06 //020   ----------------------------------------
 BYTE   W12
 BYTE   VOL   23*FE11TroubleAzula_mvl/mxv
 BYTE   N05  Fn3  v048
 BYTE   W01
 BYTE   VOL   24*FE11TroubleAzula_mvl/mxv
 BYTE   W02
 BYTE   VOL   26*FE11TroubleAzula_mvl/mxv
 BYTE   W01
 BYTE   VOL   27*FE11TroubleAzula_mvl/mxv
 BYTE   W02
 BYTE   VOL   28*FE11TroubleAzula_mvl/mxv
 BYTE   N05  En3
 BYTE   W01
 BYTE   VOL   29*FE11TroubleAzula_mvl/mxv
 BYTE   W02
 BYTE   VOL   30*FE11TroubleAzula_mvl/mxv
 BYTE   W01
 BYTE   VOL   31*FE11TroubleAzula_mvl/mxv
 BYTE   W02
 BYTE   VOL   32*FE11TroubleAzula_mvl/mxv
 BYTE   N05  Fn3
 BYTE   W01
 BYTE   VOL   34*FE11TroubleAzula_mvl/mxv
 BYTE   W02
 BYTE   VOL   35*FE11TroubleAzula_mvl/mxv
 BYTE   W01
 BYTE   VOL   37*FE11TroubleAzula_mvl/mxv
 BYTE   W02
 BYTE   VOL   37*FE11TroubleAzula_mvl/mxv
 BYTE   N05  Gn3
 BYTE   W01
 BYTE   VOL   39*FE11TroubleAzula_mvl/mxv
 BYTE   W01
 BYTE   VOL   40*FE11TroubleAzula_mvl/mxv
 BYTE   W04
 BYTE   N05  An3  v036
 BYTE   W05
 BYTE   VOL   39*FE11TroubleAzula_mvl/mxv
 BYTE   W01
 BYTE   N05  As3
 BYTE   W04
 BYTE   VOL   38*FE11TroubleAzula_mvl/mxv
 BYTE   W02
 BYTE   N05  Cs4  v032
 BYTE   W03
 BYTE   VOL   38*FE11TroubleAzula_mvl/mxv
 BYTE   W03
 BYTE   N05  Dn4
 BYTE   W02
 BYTE   VOL   37*FE11TroubleAzula_mvl/mxv
 BYTE   W04
 BYTE   VOL   37*FE11TroubleAzula_mvl/mxv
 BYTE   N05  En4
 BYTE   W05
 BYTE   VOL   37*FE11TroubleAzula_mvl/mxv
 BYTE   W01
 BYTE   N05  Dn4
 BYTE   W04
 BYTE   VOL   36*FE11TroubleAzula_mvl/mxv
 BYTE   W02
 BYTE   N05  Cs4
 BYTE   W03
 BYTE   VOL   35*FE11TroubleAzula_mvl/mxv
 BYTE   W03
 BYTE   N05  As3  v040
 BYTE   W02
 BYTE   VOL   35*FE11TroubleAzula_mvl/mxv
 BYTE   W04
 BYTE   VOL   34*FE11TroubleAzula_mvl/mxv
 BYTE   N05  An3
 BYTE   W05
 BYTE   VOL   34*FE11TroubleAzula_mvl/mxv
 BYTE   W01
 BYTE   N09  Gn3  v044
 BYTE   W04
 BYTE   VOL   34*FE11TroubleAzula_mvl/mxv
 BYTE   W02
//  #06 //021   ----------------------------------------
 BYTE   W03
 BYTE   VOL   32*FE11TroubleAzula_mvl/mxv
 BYTE   W03
 BYTE   N05  Gn3  v012
 BYTE   W06
 BYTE   Fn3  v036
 BYTE   W05
 BYTE   VOL   33*FE11TroubleAzula_mvl/mxv
 BYTE   W01
 BYTE   N05  En3  v048
 BYTE   W05
 BYTE   VOL   34*FE11TroubleAzula_mvl/mxv
 BYTE   W01
 BYTE   N05  Fn3  v040
 BYTE   W06
 BYTE   VOL   34*FE11TroubleAzula_mvl/mxv
 BYTE   N05  Gn3  v044
 BYTE   W06
 BYTE   An3  v036
 BYTE   W01
 BYTE   VOL   34*FE11TroubleAzula_mvl/mxv
 BYTE   W05
 BYTE   N05  As3
 BYTE   W02
 BYTE   VOL   35*FE11TroubleAzula_mvl/mxv
 BYTE   W04
 BYTE   N05  Cs4  v032
 BYTE   W02
 BYTE   VOL   35*FE11TroubleAzula_mvl/mxv
 BYTE   W04
 BYTE   N05  Dn4
 BYTE   W03
 BYTE   VOL   36*FE11TroubleAzula_mvl/mxv
 BYTE   W03
 BYTE   N05  En4  v036
 BYTE   W04
 BYTE   VOL   37*FE11TroubleAzula_mvl/mxv
 BYTE   W02
 BYTE   N05  Fn4  v032
 BYTE   W05
 BYTE   VOL   37*FE11TroubleAzula_mvl/mxv
 BYTE   W01
 BYTE   N05  Gn4  v028
 BYTE   W05
 BYTE   VOL   37*FE11TroubleAzula_mvl/mxv
 BYTE   W01
 BYTE   N05  An4  v020
 BYTE   W06
 BYTE   VOL   38*FE11TroubleAzula_mvl/mxv
 BYTE   N15  As4
 BYTE   W07
 BYTE   VOL   38*FE11TroubleAzula_mvl/mxv
 BYTE   W05
//  #06 //022   ----------------------------------------
 BYTE   W02
 BYTE   VOL   40*FE11TroubleAzula_mvl/mxv
 BYTE   W03
 BYTE   VOL   39*FE11TroubleAzula_mvl/mxv
 BYTE   W01
 BYTE   N05  As4  v012
 BYTE   W02
 BYTE   VOL   38*FE11TroubleAzula_mvl/mxv
 BYTE   W03
 BYTE   VOL   38*FE11TroubleAzula_mvl/mxv
 BYTE   W01
 BYTE   N05  As4  v020
 BYTE   W02
 BYTE   VOL   37*FE11TroubleAzula_mvl/mxv
 BYTE   W03
 BYTE   VOL   37*FE11TroubleAzula_mvl/mxv
 BYTE   W01
 BYTE   N05  An4
 BYTE   W02
 BYTE   VOL   37*FE11TroubleAzula_mvl/mxv
 BYTE   W03
 BYTE   VOL   36*FE11TroubleAzula_mvl/mxv
 BYTE   W01
 BYTE   N05  Gn4  v024
 BYTE   W02
 BYTE   VOL   35*FE11TroubleAzula_mvl/mxv
 BYTE   W03
 BYTE   VOL   35*FE11TroubleAzula_mvl/mxv
 BYTE   W01
 BYTE   N05  An4  v020
 BYTE   W02
 BYTE   VOL   34*FE11TroubleAzula_mvl/mxv
 BYTE   W03
 BYTE   VOL   34*FE11TroubleAzula_mvl/mxv
 BYTE   W01
 BYTE   N05  Gn4  v028
 BYTE   W02
 BYTE   VOL   34*FE11TroubleAzula_mvl/mxv
 BYTE   W03
 BYTE   VOL   33*FE11TroubleAzula_mvl/mxv
 BYTE   W01
 BYTE   N05  Fn4  v032
 BYTE   W02
 BYTE   VOL   32*FE11TroubleAzula_mvl/mxv
 BYTE   W03
 BYTE   VOL   32*FE11TroubleAzula_mvl/mxv
 BYTE   W01
 BYTE   N05  En4
 BYTE   W02
 BYTE   VOL   30*FE11TroubleAzula_mvl/mxv
 BYTE   W03
 BYTE   VOL   30*FE11TroubleAzula_mvl/mxv
 BYTE   W01
 BYTE   N05  Fn4
 BYTE   W02
 BYTE   VOL   30*FE11TroubleAzula_mvl/mxv
 BYTE   W03
 BYTE   VOL   29*FE11TroubleAzula_mvl/mxv
 BYTE   W01
 BYTE   N05  Gn4  v024
 BYTE   W02
 BYTE   VOL   29*FE11TroubleAzula_mvl/mxv
 BYTE   W03
 BYTE   VOL   28*FE11TroubleAzula_mvl/mxv
 BYTE   W01
 BYTE   N05  Fn4  v032
 BYTE   W02
 BYTE   VOL   28*FE11TroubleAzula_mvl/mxv
 BYTE   W03
 BYTE   VOL   28*FE11TroubleAzula_mvl/mxv
 BYTE   W01
 BYTE   N05  En4
 BYTE   W02
 BYTE   VOL   27*FE11TroubleAzula_mvl/mxv
 BYTE   W03
 BYTE   VOL   27*FE11TroubleAzula_mvl/mxv
 BYTE   W01
 BYTE   N05  Dn4
 BYTE   W02
 BYTE   VOL   27*FE11TroubleAzula_mvl/mxv
 BYTE   W03
 BYTE   VOL   26*FE11TroubleAzula_mvl/mxv
 BYTE   W01
 BYTE   N05  Cs4  v036
 BYTE   W02
 BYTE   VOL   25*FE11TroubleAzula_mvl/mxv
 BYTE   W03
 BYTE   VOL   25*FE11TroubleAzula_mvl/mxv
 BYTE   W01
 BYTE   N09  As3  v040
 BYTE   W02
 BYTE   VOL   24*FE11TroubleAzula_mvl/mxv
 BYTE   W03
 BYTE   VOL   23*FE11TroubleAzula_mvl/mxv
 BYTE   W01
//  #06 //023   ----------------------------------------
 BYTE   W02
 BYTE   VOL   23*FE11TroubleAzula_mvl/mxv
 BYTE   W03
 BYTE   VOL   22*FE11TroubleAzula_mvl/mxv
 BYTE   W01
 BYTE   N05  As3  v012
 BYTE   W02
 BYTE   VOL   22*FE11TroubleAzula_mvl/mxv
 BYTE   W02
 BYTE   VOL   22*FE11TroubleAzula_mvl/mxv
 BYTE   W02
 BYTE   N05  As3  v040
 BYTE   W01
 BYTE   VOL   22*FE11TroubleAzula_mvl/mxv
 BYTE   W03
 BYTE   VOL   22*FE11TroubleAzula_mvl/mxv
 BYTE   W02
 BYTE   N05  An3  v048
 BYTE   W01
 BYTE   VOL   23*FE11TroubleAzula_mvl/mxv
 BYTE   W03
 BYTE   VOL   23*FE11TroubleAzula_mvl/mxv
 BYTE   W02
 BYTE   N05  As3
 BYTE   W01
 BYTE   VOL   25*FE11TroubleAzula_mvl/mxv
 BYTE   W03
 BYTE   VOL   25*FE11TroubleAzula_mvl/mxv
 BYTE   W02
 BYTE   N05  Cs4  v036
 BYTE   W01
 BYTE   VOL   27*FE11TroubleAzula_mvl/mxv
 BYTE   W03
 BYTE   VOL   27*FE11TroubleAzula_mvl/mxv
 BYTE   W02
 BYTE   N05  Dn4  v032
 BYTE   W01
 BYTE   VOL   28*FE11TroubleAzula_mvl/mxv
 BYTE   W03
 BYTE   VOL   28*FE11TroubleAzula_mvl/mxv
 BYTE   W02
 BYTE   N05  Fn4  v044
 BYTE   W01
 BYTE   VOL   29*FE11TroubleAzula_mvl/mxv
 BYTE   W03
 BYTE   VOL   29*FE11TroubleAzula_mvl/mxv
 BYTE   W02
 BYTE   N05  En4  v036
 BYTE   W01
 BYTE   VOL   30*FE11TroubleAzula_mvl/mxv
 BYTE   W03
 BYTE   VOL   30*FE11TroubleAzula_mvl/mxv
 BYTE   W02
 BYTE   N05  Cs4  v044
 BYTE   W01
 BYTE   VOL   32*FE11TroubleAzula_mvl/mxv
 BYTE   W03
 BYTE   VOL   32*FE11TroubleAzula_mvl/mxv
 BYTE   W02
 BYTE   N05  Cn4  v048
 BYTE   W01
 BYTE   VOL   33*FE11TroubleAzula_mvl/mxv
 BYTE   W03
 BYTE   VOL   34*FE11TroubleAzula_mvl/mxv
 BYTE   W02
 BYTE   N05  Cs4  v040
 BYTE   W01
 BYTE   VOL   34*FE11TroubleAzula_mvl/mxv
 BYTE   W03
 BYTE   VOL   35*FE11TroubleAzula_mvl/mxv
 BYTE   W02
 BYTE   N05  En4
 BYTE   W01
 BYTE   VOL   36*FE11TroubleAzula_mvl/mxv
 BYTE   W03
 BYTE   VOL   37*FE11TroubleAzula_mvl/mxv
 BYTE   W02
 BYTE   N05  Fn4  v036
 BYTE   W01
 BYTE   VOL   37*FE11TroubleAzula_mvl/mxv
 BYTE   W03
 BYTE   VOL   38*FE11TroubleAzula_mvl/mxv
 BYTE   W02
 BYTE   N05  Gn4  v032
 BYTE   W01
 BYTE   VOL   39*FE11TroubleAzula_mvl/mxv
 BYTE   W01
 BYTE   VOL   40*FE11TroubleAzula_mvl/mxv
 BYTE   W04
 BYTE   N08  An4  v028
 BYTE   W06
//  #06 //024   ----------------------------------------
 BYTE   W02
 BYTE   VOL   39*FE11TroubleAzula_mvl/mxv
 BYTE   W04
 BYTE   N05  An4  v012
 BYTE   W01
 BYTE   VOL   38*FE11TroubleAzula_mvl/mxv
 BYTE   W05
 BYTE   N05  Fn3  v064
 BYTE   W01
 BYTE   VOL   38*FE11TroubleAzula_mvl/mxv
 BYTE   W05
 BYTE   N05  En3
 BYTE   W01
 BYTE   VOL   37*FE11TroubleAzula_mvl/mxv
 BYTE   W05
 BYTE   N05  Fn3  v060
 BYTE   W01
 BYTE   VOL   37*FE11TroubleAzula_mvl/mxv
 BYTE   W05
 BYTE   N05  Gn3  v064
 BYTE   W01
 BYTE   VOL   37*FE11TroubleAzula_mvl/mxv
 BYTE   W05
 BYTE   N05  An3  v044
 BYTE   W01
 BYTE   VOL   36*FE11TroubleAzula_mvl/mxv
 BYTE   W05
 BYTE   N05  As3  v040
 BYTE   W01
 BYTE   VOL   35*FE11TroubleAzula_mvl/mxv
 BYTE   W05
 BYTE   VOL   35*FE11TroubleAzula_mvl/mxv
 BYTE   N05  Cs4  v032
 BYTE   W06
 BYTE   VOL   34*FE11TroubleAzula_mvl/mxv
 BYTE   N05  Dn4  v036
 BYTE   W06
 BYTE   VOL   34*FE11TroubleAzula_mvl/mxv
 BYTE   N05  En4
 BYTE   W06
 BYTE   VOL   34*FE11TroubleAzula_mvl/mxv
 BYTE   N05  Dn4
 BYTE   W06
 BYTE   VOL   33*FE11TroubleAzula_mvl/mxv
 BYTE   N05  Cs4
 BYTE   W06
 BYTE   VOL   32*FE11TroubleAzula_mvl/mxv
 BYTE   N05  As3  v048
 BYTE   W06
 BYTE   VOL   32*FE11TroubleAzula_mvl/mxv
 BYTE   N05  An3  v044
 BYTE   W05
 BYTE   VOL   31*FE11TroubleAzula_mvl/mxv
 BYTE   W01
 BYTE   VOL   30*FE11TroubleAzula_mvl/mxv
 BYTE   N09  Gn3  v052
 BYTE   W06
//  #06 //025   ----------------------------------------
 BYTE   W03
 BYTE   VOL   31*FE11TroubleAzula_mvl/mxv
 BYTE   W03
 BYTE   N05  Gn3  v012
 BYTE   W02
 BYTE   VOL   32*FE11TroubleAzula_mvl/mxv
 BYTE   W04
 BYTE   N05  Fn3  v044
 BYTE   W01
 BYTE   VOL   32*FE11TroubleAzula_mvl/mxv
 BYTE   W05
 BYTE   VOL   33*FE11TroubleAzula_mvl/mxv
 BYTE   N05  En3  v056
 BYTE   W05
 BYTE   VOL   34*FE11TroubleAzula_mvl/mxv
 BYTE   W01
 BYTE   N05  Fn3  v044
 BYTE   W03
 BYTE   VOL   34*FE11TroubleAzula_mvl/mxv
 BYTE   W03
 BYTE   N05  Gn3  v052
 BYTE   W02
 BYTE   VOL   34*FE11TroubleAzula_mvl/mxv
 BYTE   W04
 BYTE   N05  An3  v040
 BYTE   W01
 BYTE   VOL   35*FE11TroubleAzula_mvl/mxv
 BYTE   W05
 BYTE   VOL   35*FE11TroubleAzula_mvl/mxv
 BYTE   N05  As3
 BYTE   W05
 BYTE   VOL   36*FE11TroubleAzula_mvl/mxv
 BYTE   W01
 BYTE   N05  Cs4  v036
 BYTE   W04
 BYTE   VOL   37*FE11TroubleAzula_mvl/mxv
 BYTE   W02
 BYTE   N05  Dn4
 BYTE   W03
 BYTE   VOL   37*FE11TroubleAzula_mvl/mxv
 BYTE   W03
 BYTE   N05  En4  v048
 BYTE   W01
 BYTE   VOL   37*FE11TroubleAzula_mvl/mxv
 BYTE   W05
 BYTE   VOL   38*FE11TroubleAzula_mvl/mxv
 BYTE   N05  Fn4  v036
 BYTE   W05
 BYTE   VOL   38*FE11TroubleAzula_mvl/mxv
 BYTE   W01
 BYTE   N05  Gn4  v032
 BYTE   W04
 BYTE   VOL   40*FE11TroubleAzula_mvl/mxv
 BYTE   W02
 BYTE   N05  An4  v020
 BYTE   W04
 BYTE   VOL   39*FE11TroubleAzula_mvl/mxv
 BYTE   W02
 BYTE   N15  As4  v024
 BYTE   W03
 BYTE   VOL   38*FE11TroubleAzula_mvl/mxv
 BYTE   W06
 BYTE   VOL   38*FE11TroubleAzula_mvl/mxv
 BYTE   W03
//  #06 //026   ----------------------------------------
 BYTE   W02
 BYTE   VOL   37*FE11TroubleAzula_mvl/mxv
 BYTE   W04
 BYTE   N05  As4  v012
 BYTE   W02
 BYTE   VOL   37*FE11TroubleAzula_mvl/mxv
 BYTE   W04
 BYTE   N05  As4  v024
 BYTE   W01
 BYTE   VOL   37*FE11TroubleAzula_mvl/mxv
 BYTE   W05
 BYTE   N05  An4
 BYTE   W01
 BYTE   VOL   36*FE11TroubleAzula_mvl/mxv
 BYTE   W05
 BYTE   VOL   35*FE11TroubleAzula_mvl/mxv
 BYTE   N05  Gn4  v028
 BYTE   W06
 BYTE   VOL   35*FE11TroubleAzula_mvl/mxv
 BYTE   N05  An4  v024
 BYTE   W05
 BYTE   VOL   34*FE11TroubleAzula_mvl/mxv
 BYTE   W01
 BYTE   N05  Gn4  v032
 BYTE   W05
 BYTE   VOL   34*FE11TroubleAzula_mvl/mxv
 BYTE   W01
 BYTE   N05  Fn4  v036
 BYTE   W04
 BYTE   VOL   34*FE11TroubleAzula_mvl/mxv
 BYTE   W02
 BYTE   N05  En4
 BYTE   W03
 BYTE   VOL   34*FE11TroubleAzula_mvl/mxv
 BYTE   W03
 BYTE   N05  Fn4  v032
 BYTE   W01
 BYTE   VOL   34*FE11TroubleAzula_mvl/mxv
 BYTE   W04
 BYTE   VOL   35*FE11TroubleAzula_mvl/mxv
 BYTE   W01
 BYTE   N05  Gn4  v024
 BYTE   W04
 BYTE   VOL   35*FE11TroubleAzula_mvl/mxv
 BYTE   W02
 BYTE   N05  Fn4  v032
 BYTE   W02
 BYTE   VOL   36*FE11TroubleAzula_mvl/mxv
 BYTE   W04
 BYTE   VOL   37*FE11TroubleAzula_mvl/mxv
 BYTE   N05  En4  v036
 BYTE   W04
 BYTE   VOL   37*FE11TroubleAzula_mvl/mxv
 BYTE   W02
 BYTE   N05  Dn4
 BYTE   W03
 BYTE   VOL   37*FE11TroubleAzula_mvl/mxv
 BYTE   W03
 BYTE   N05  Cs4  v040
 BYTE   W01
 BYTE   VOL   38*FE11TroubleAzula_mvl/mxv
 BYTE   W04
 BYTE   VOL   38*FE11TroubleAzula_mvl/mxv
 BYTE   W01
 BYTE   N09  As3  v048
 BYTE   W04
 BYTE   VOL   39*FE11TroubleAzula_mvl/mxv
 BYTE   W02
//  #06 //027   ----------------------------------------
 BYTE   W02
 BYTE   VOL   40*FE11TroubleAzula_mvl/mxv
 BYTE   W04
 BYTE   N05  As3  v012
 BYTE   W06
 BYTE   As3  v036
 BYTE   W06
 BYTE   An3  v048
 BYTE   W06
 BYTE   As3  v052
 BYTE   W06
 BYTE   Cs4  v056
 BYTE   W06
 BYTE   Dn4  v052
 BYTE   W06
 BYTE   Fn4  v084
 BYTE   W06
 BYTE   En4  v088
 BYTE   W06
 BYTE   Cs4
 BYTE   W06
 BYTE   Cn4
 BYTE   W06
 BYTE   Cs4
 BYTE   W06
 BYTE   En4
 BYTE   W06
 BYTE   Fn4
 BYTE   W06
 BYTE   Gn4
 BYTE   W12
//  #06 //028   ----------------------------------------
 BYTE   GoTo
  POIN2 Label_0100B26A
 BYTE   FINE

//**************** Track 7 (Midi-Chn.6) ****************//

FE11TroubleAzula_007:
//  #07 //000   ----------------------------------------
 BYTE   KEYSH   FE11TroubleAzula_key+0
Label_0100B66A:
 BYTE   VOICE   61
 BYTE   MODT 0
 BYTE   LFOS 44
 BYTE   VOL   56*FE11TroubleAzula_mvl/mxv
 BYTE   PAN   c_v+0
 BYTE   W96
//  #07 //001   ----------------------------------------
 BYTE   W96
//  #07 //002   ----------------------------------------
 BYTE   W96
//  #07 //003   ----------------------------------------
 BYTE   VOL   56*FE11TroubleAzula_mvl/mxv
 BYTE   W72
 BYTE   N03  An3  v076
 BYTE   W04
 BYTE   As3
 BYTE   W04
 BYTE   Cn4
 BYTE   W04
 BYTE   Dn4
 BYTE   W04
 BYTE   Ds4
 BYTE   W04
 BYTE   Fn4
 BYTE   W04
//  #07 //004   ----------------------------------------
 BYTE   N06  Dn1  v072
 BYTE   W06
 BYTE   Dn1  v024
 BYTE   W12
 BYTE   Dn1  v056
 BYTE   W06
 BYTE   Dn1  v020
 BYTE   W12
 BYTE   Dn1  v064
 BYTE   W06
 BYTE   Dn1  v024
 BYTE   W12
 BYTE   Dn1  v056
 BYTE   W06
 BYTE   Dn1  v020
 BYTE   W12
 BYTE   Dn1  v064
 BYTE   W06
 BYTE   Dn1  v024
 BYTE   W06
 BYTE   Dn1  v056
 BYTE   W06
 BYTE   Dn1  v020
 BYTE   W06
//  #07 //005   ----------------------------------------
 BYTE   En1  v072
 BYTE   W06
 BYTE   En1  v024
 BYTE   W12
 BYTE   En1  v056
 BYTE   W06
 BYTE   En1  v020
 BYTE   W12
 BYTE   En1  v064
 BYTE   W06
 BYTE   En1  v024
 BYTE   W12
 BYTE   En1  v056
 BYTE   W06
 BYTE   En1  v020
 BYTE   W12
 BYTE   En1  v064
 BYTE   W06
 BYTE   En1  v024
 BYTE   W06
 BYTE   En1  v056
 BYTE   W06
 BYTE   En1  v020
 BYTE   W06
//  #07 //006   ----------------------------------------
 BYTE   Fn1  v072
 BYTE   W06
 BYTE   Fn1  v024
 BYTE   W12
 BYTE   Fn1  v056
 BYTE   W06
 BYTE   Fn1  v020
 BYTE   W12
 BYTE   Fn1  v064
 BYTE   W06
 BYTE   Fn1  v024
 BYTE   W12
 BYTE   Fn1  v056
 BYTE   W06
 BYTE   Fn1  v020
 BYTE   W12
 BYTE   Fn1  v064
 BYTE   W06
 BYTE   Fn1  v024
 BYTE   W06
 BYTE   Fs1  v056
 BYTE   W06
 BYTE   Fs1  v020
 BYTE   W06
//  #07 //007   ----------------------------------------
 BYTE   Gn1  v072
 BYTE   W06
 BYTE   Gn1  v024
 BYTE   W12
 BYTE   Gn1  v056
 BYTE   W06
 BYTE   Gn1  v020
 BYTE   W12
 BYTE   Gn1  v064
 BYTE   W06
 BYTE   Gn1  v024
 BYTE   W12
 BYTE   Gn1  v056
 BYTE   W06
 BYTE   Gn1  v020
 BYTE   W36
//  #07 //008   ----------------------------------------
 BYTE   VOL   56*FE11TroubleAzula_mvl/mxv
 BYTE   TIE  Dn3  v108
 BYTE   W44
 BYTE   W03
 BYTE   VOL   56*FE11TroubleAzula_mvl/mxv
 BYTE   W01
 BYTE   VOL   55*FE11TroubleAzula_mvl/mxv
 BYTE   W02
 BYTE   VOL   53*FE11TroubleAzula_mvl/mxv
 BYTE   W01
 BYTE   VOL   52*FE11TroubleAzula_mvl/mxv
 BYTE   W02
 BYTE   VOL   51*FE11TroubleAzula_mvl/mxv
 BYTE   W01
 BYTE   VOL   51*FE11TroubleAzula_mvl/mxv
 BYTE   W02
 BYTE   VOL   49*FE11TroubleAzula_mvl/mxv
 BYTE   W01
 BYTE   VOL   48*FE11TroubleAzula_mvl/mxv
 BYTE   W02
 BYTE   VOL   47*FE11TroubleAzula_mvl/mxv
 BYTE   W01
 BYTE   VOL   45*FE11TroubleAzula_mvl/mxv
 BYTE   W02
 BYTE   VOL   45*FE11TroubleAzula_mvl/mxv
 BYTE   W01
 BYTE   VOL   44*FE11TroubleAzula_mvl/mxv
 BYTE   W02
 BYTE   VOL   42*FE11TroubleAzula_mvl/mxv
 BYTE   W01
 BYTE   VOL   41*FE11TroubleAzula_mvl/mxv
 BYTE   W02
 BYTE   VOL   40*FE11TroubleAzula_mvl/mxv
 BYTE   W01
 BYTE   VOL   40*FE11TroubleAzula_mvl/mxv
 BYTE   W02
 BYTE   VOL   38*FE11TroubleAzula_mvl/mxv
 BYTE   W01
 BYTE   VOL   37*FE11TroubleAzula_mvl/mxv
 BYTE   W02
 BYTE   VOL   37*FE11TroubleAzula_mvl/mxv
 BYTE   W01
 BYTE   VOL   35*FE11TroubleAzula_mvl/mxv
 BYTE   W02
 BYTE   VOL   34*FE11TroubleAzula_mvl/mxv
 BYTE   W01
 BYTE   VOL   34*FE11TroubleAzula_mvl/mxv
 BYTE   W02
 BYTE   VOL   32*FE11TroubleAzula_mvl/mxv
 BYTE   W01
 BYTE   VOL   31*FE11TroubleAzula_mvl/mxv
 BYTE   W02
 BYTE   VOL   30*FE11TroubleAzula_mvl/mxv
 BYTE   W01
 BYTE   VOL   30*FE11TroubleAzula_mvl/mxv
 BYTE   W02
 BYTE   VOL   28*FE11TroubleAzula_mvl/mxv
 BYTE   W01
 BYTE   VOL   28*FE11TroubleAzula_mvl/mxv
 BYTE   W02
 BYTE   VOL   27*FE11TroubleAzula_mvl/mxv
 BYTE   W01
 BYTE   VOL   26*FE11TroubleAzula_mvl/mxv
 BYTE   W02
 BYTE   VOL   25*FE11TroubleAzula_mvl/mxv
 BYTE   W01
 BYTE   VOL   24*FE11TroubleAzula_mvl/mxv
 BYTE   W01
 BYTE   VOL   23*FE11TroubleAzula_mvl/mxv
 BYTE   W02
//  #07 //009   ----------------------------------------
 BYTE   W01
 BYTE   VOL   24*FE11TroubleAzula_mvl/mxv
 BYTE   W03
 BYTE   VOL   25*FE11TroubleAzula_mvl/mxv
 BYTE   W03
 BYTE   VOL   27*FE11TroubleAzula_mvl/mxv
 BYTE   W03
 BYTE   VOL   28*FE11TroubleAzula_mvl/mxv
 BYTE   W03
 BYTE   VOL   28*FE11TroubleAzula_mvl/mxv
 BYTE   W03
 BYTE   VOL   29*FE11TroubleAzula_mvl/mxv
 BYTE   W03
 BYTE   VOL   30*FE11TroubleAzula_mvl/mxv
 BYTE   W03
 BYTE   VOL   31*FE11TroubleAzula_mvl/mxv
 BYTE   W03
 BYTE   VOL   33*FE11TroubleAzula_mvl/mxv
 BYTE   W03
 BYTE   VOL   34*FE11TroubleAzula_mvl/mxv
 BYTE   W03
 BYTE   VOL   34*FE11TroubleAzula_mvl/mxv
 BYTE   W03
 BYTE   VOL   36*FE11TroubleAzula_mvl/mxv
 BYTE   W03
 BYTE   VOL   37*FE11TroubleAzula_mvl/mxv
 BYTE   W03
 BYTE   VOL   38*FE11TroubleAzula_mvl/mxv
 BYTE   W03
 BYTE   VOL   39*FE11TroubleAzula_mvl/mxv
 BYTE   W03
 BYTE   VOL   40*FE11TroubleAzula_mvl/mxv
 BYTE   W03
 BYTE   VOL   41*FE11TroubleAzula_mvl/mxv
 BYTE   W03
 BYTE   VOL   43*FE11TroubleAzula_mvl/mxv
 BYTE   W03
 BYTE   VOL   45*FE11TroubleAzula_mvl/mxv
 BYTE   W03
 BYTE   VOL   45*FE11TroubleAzula_mvl/mxv
 BYTE   W03
 BYTE   VOL   46*FE11TroubleAzula_mvl/mxv
 BYTE   W03
 BYTE   VOL   48*FE11TroubleAzula_mvl/mxv
 BYTE   W03
 BYTE   VOL   49*FE11TroubleAzula_mvl/mxv
 BYTE   W03
 BYTE   VOL   51*FE11TroubleAzula_mvl/mxv
 BYTE   W03
 BYTE   VOL   51*FE11TroubleAzula_mvl/mxv
 BYTE   W03
 BYTE   VOL   52*FE11TroubleAzula_mvl/mxv
 BYTE   W03
 BYTE   VOL   54*FE11TroubleAzula_mvl/mxv
 BYTE   W02
 BYTE   VOL   56*FE11TroubleAzula_mvl/mxv
 BYTE   W15
//  #07 //010   ----------------------------------------
 BYTE   W42
 BYTE   W01
 BYTE   VOL   56*FE11TroubleAzula_mvl/mxv
 BYTE   W03
 BYTE   VOL   54*FE11TroubleAzula_mvl/mxv
 BYTE   W03
 BYTE   VOL   51*FE11TroubleAzula_mvl/mxv
 BYTE   W03
 BYTE   VOL   51*FE11TroubleAzula_mvl/mxv
 BYTE   W03
 BYTE   VOL   48*FE11TroubleAzula_mvl/mxv
 BYTE   W03
 BYTE   VOL   46*FE11TroubleAzula_mvl/mxv
 BYTE   W03
 BYTE   VOL   45*FE11TroubleAzula_mvl/mxv
 BYTE   W03
 BYTE   VOL   43*FE11TroubleAzula_mvl/mxv
 BYTE   W03
 BYTE   VOL   41*FE11TroubleAzula_mvl/mxv
 BYTE   W03
 BYTE   VOL   40*FE11TroubleAzula_mvl/mxv
 BYTE   W03
 BYTE   VOL   37*FE11TroubleAzula_mvl/mxv
 BYTE   W03
 BYTE   VOL   37*FE11TroubleAzula_mvl/mxv
 BYTE   W03
 BYTE   VOL   34*FE11TroubleAzula_mvl/mxv
 BYTE   W03
 BYTE   VOL   33*FE11TroubleAzula_mvl/mxv
 BYTE   W03
 BYTE   VOL   31*FE11TroubleAzula_mvl/mxv
 BYTE   W03
 BYTE   VOL   30*FE11TroubleAzula_mvl/mxv
 BYTE   W03
 BYTE   VOL   28*FE11TroubleAzula_mvl/mxv
 BYTE   W03
 BYTE   VOL   27*FE11TroubleAzula_mvl/mxv
 BYTE   W01
 BYTE   EOT
 BYTE   VOL   27*FE11TroubleAzula_mvl/mxv
 BYTE   W01
//  #07 //011   ----------------------------------------
 BYTE   N92  Dn3  v124
 BYTE   W02
 BYTE   VOL   27*FE11TroubleAzula_mvl/mxv
 BYTE   W03
 BYTE   VOL   28*FE11TroubleAzula_mvl/mxv
 BYTE   W03
 BYTE   VOL   28*FE11TroubleAzula_mvl/mxv
 BYTE   W03
 BYTE   VOL   30*FE11TroubleAzula_mvl/mxv
 BYTE   W03
 BYTE   VOL   30*FE11TroubleAzula_mvl/mxv
 BYTE   W03
 BYTE   VOL   31*FE11TroubleAzula_mvl/mxv
 BYTE   W03
 BYTE   VOL   33*FE11TroubleAzula_mvl/mxv
 BYTE   W03
 BYTE   VOL   34*FE11TroubleAzula_mvl/mxv
 BYTE   W03
 BYTE   VOL   34*FE11TroubleAzula_mvl/mxv
 BYTE   W03
 BYTE   VOL   36*FE11TroubleAzula_mvl/mxv
 BYTE   W03
 BYTE   VOL   37*FE11TroubleAzula_mvl/mxv
 BYTE   W03
 BYTE   VOL   37*FE11TroubleAzula_mvl/mxv
 BYTE   W03
 BYTE   VOL   38*FE11TroubleAzula_mvl/mxv
 BYTE   W03
 BYTE   VOL   40*FE11TroubleAzula_mvl/mxv
 BYTE   W03
 BYTE   VOL   40*FE11TroubleAzula_mvl/mxv
 BYTE   W03
 BYTE   VOL   41*FE11TroubleAzula_mvl/mxv
 BYTE   W03
 BYTE   VOL   43*FE11TroubleAzula_mvl/mxv
 BYTE   W03
 BYTE   VOL   44*FE11TroubleAzula_mvl/mxv
 BYTE   W03
 BYTE   VOL   45*FE11TroubleAzula_mvl/mxv
 BYTE   W03
 BYTE   VOL   46*FE11TroubleAzula_mvl/mxv
 BYTE   W03
 BYTE   VOL   47*FE11TroubleAzula_mvl/mxv
 BYTE   W03
 BYTE   VOL   48*FE11TroubleAzula_mvl/mxv
 BYTE   W03
 BYTE   VOL   49*FE11TroubleAzula_mvl/mxv
 BYTE   W03
 BYTE   VOL   51*FE11TroubleAzula_mvl/mxv
 BYTE   W03
 BYTE   VOL   51*FE11TroubleAzula_mvl/mxv
 BYTE   W03
 BYTE   VOL   52*FE11TroubleAzula_mvl/mxv
 BYTE   W03
 BYTE   VOL   54*FE11TroubleAzula_mvl/mxv
 BYTE   W03
 BYTE   VOL   56*FE11TroubleAzula_mvl/mxv
 BYTE   W13
//  #07 //012   ----------------------------------------
Label_0100B7F7:
 BYTE   N06  Gn1  v076
 BYTE   W06
 BYTE   Gn1  v028
 BYTE   W12
 BYTE   Gn1  v060
 BYTE   W06
 BYTE   Gn1  v024
 BYTE   W12
 BYTE   Gn1  v068
 BYTE   W06
 BYTE   Gn1  v028
 BYTE   W12
 BYTE   Gn1  v060
 BYTE   W06
 BYTE   Gn1  v024
 BYTE   W12
 BYTE   Gn1  v068
 BYTE   W06
 BYTE   Gn1  v028
 BYTE   W06
 BYTE   Gn1  v060
 BYTE   W06
 BYTE   Gn1  v024
 BYTE   W06
 BYTE   PEND 
//  #07 //013   ----------------------------------------
 BYTE   PATT
  POIN2 Label_0100B7F7
//  #07 //014   ----------------------------------------
 BYTE   N06  Fn1  v076
 BYTE   W06
 BYTE   Fn1  v028
 BYTE   W12
 BYTE   Fn1  v060
 BYTE   W06
 BYTE   Fn1  v024
 BYTE   W12
 BYTE   Fn1  v068
 BYTE   W06
 BYTE   Fn1  v028
 BYTE   W12
 BYTE   Fn1  v060
 BYTE   W06
 BYTE   Fn1  v024
 BYTE   W12
 BYTE   Fn1  v068
 BYTE   W06
 BYTE   Fn1  v028
 BYTE   W06
 BYTE   Fs1  v060
 BYTE   W06
 BYTE   Fs1  v024
 BYTE   W06
//  #07 //015   ----------------------------------------
 BYTE   PATT
  POIN2 Label_0100B7F7
//  #07 //016   ----------------------------------------
 BYTE   VOL   56*FE11TroubleAzula_mvl/mxv
 BYTE   N92  Dn3  v084
 BYTE   W44
 BYTE   W03
 BYTE   VOL   56*FE11TroubleAzula_mvl/mxv
 BYTE   W01
 BYTE   VOL   55*FE11TroubleAzula_mvl/mxv
 BYTE   W02
 BYTE   VOL   53*FE11TroubleAzula_mvl/mxv
 BYTE   W01
 BYTE   VOL   52*FE11TroubleAzula_mvl/mxv
 BYTE   W02
 BYTE   VOL   51*FE11TroubleAzula_mvl/mxv
 BYTE   W01
 BYTE   VOL   51*FE11TroubleAzula_mvl/mxv
 BYTE   W02
 BYTE   VOL   49*FE11TroubleAzula_mvl/mxv
 BYTE   W01
 BYTE   VOL   48*FE11TroubleAzula_mvl/mxv
 BYTE   W02
 BYTE   VOL   47*FE11TroubleAzula_mvl/mxv
 BYTE   W01
 BYTE   VOL   45*FE11TroubleAzula_mvl/mxv
 BYTE   W02
 BYTE   VOL   45*FE11TroubleAzula_mvl/mxv
 BYTE   W01
 BYTE   VOL   44*FE11TroubleAzula_mvl/mxv
 BYTE   W02
 BYTE   VOL   42*FE11TroubleAzula_mvl/mxv
 BYTE   W01
 BYTE   VOL   41*FE11TroubleAzula_mvl/mxv
 BYTE   W02
 BYTE   VOL   40*FE11TroubleAzula_mvl/mxv
 BYTE   W01
 BYTE   VOL   40*FE11TroubleAzula_mvl/mxv
 BYTE   W02
 BYTE   VOL   38*FE11TroubleAzula_mvl/mxv
 BYTE   W01
 BYTE   VOL   37*FE11TroubleAzula_mvl/mxv
 BYTE   W02
 BYTE   VOL   37*FE11TroubleAzula_mvl/mxv
 BYTE   W01
 BYTE   VOL   35*FE11TroubleAzula_mvl/mxv
 BYTE   W02
 BYTE   VOL   34*FE11TroubleAzula_mvl/mxv
 BYTE   W01
 BYTE   VOL   34*FE11TroubleAzula_mvl/mxv
 BYTE   W02
 BYTE   VOL   32*FE11TroubleAzula_mvl/mxv
 BYTE   W01
 BYTE   VOL   31*FE11TroubleAzula_mvl/mxv
 BYTE   W02
 BYTE   VOL   30*FE11TroubleAzula_mvl/mxv
 BYTE   W01
 BYTE   VOL   30*FE11TroubleAzula_mvl/mxv
 BYTE   W02
 BYTE   VOL   28*FE11TroubleAzula_mvl/mxv
 BYTE   W01
 BYTE   VOL   28*FE11TroubleAzula_mvl/mxv
 BYTE   W02
 BYTE   VOL   27*FE11TroubleAzula_mvl/mxv
 BYTE   W01
 BYTE   VOL   26*FE11TroubleAzula_mvl/mxv
 BYTE   W02
 BYTE   VOL   25*FE11TroubleAzula_mvl/mxv
 BYTE   W01
 BYTE   VOL   24*FE11TroubleAzula_mvl/mxv
 BYTE   W01
 BYTE   VOL   23*FE11TroubleAzula_mvl/mxv
 BYTE   W02
//  #07 //017   ----------------------------------------
 BYTE   N44  Gn3  v068
 BYTE   W01
 BYTE   VOL   24*FE11TroubleAzula_mvl/mxv
 BYTE   W03
 BYTE   VOL   25*FE11TroubleAzula_mvl/mxv
 BYTE   W03
 BYTE   VOL   25*FE11TroubleAzula_mvl/mxv
 BYTE   W03
 BYTE   VOL   26*FE11TroubleAzula_mvl/mxv
 BYTE   W03
 BYTE   VOL   27*FE11TroubleAzula_mvl/mxv
 BYTE   W03
 BYTE   VOL   28*FE11TroubleAzula_mvl/mxv
 BYTE   W03
 BYTE   VOL   28*FE11TroubleAzula_mvl/mxv
 BYTE   W03
 BYTE   VOL   29*FE11TroubleAzula_mvl/mxv
 BYTE   W03
 BYTE   VOL   30*FE11TroubleAzula_mvl/mxv
 BYTE   W03
 BYTE   VOL   31*FE11TroubleAzula_mvl/mxv
 BYTE   W03
 BYTE   VOL   32*FE11TroubleAzula_mvl/mxv
 BYTE   W03
 BYTE   VOL   34*FE11TroubleAzula_mvl/mxv
 BYTE   W03
 BYTE   VOL   34*FE11TroubleAzula_mvl/mxv
 BYTE   W03
 BYTE   VOL   36*FE11TroubleAzula_mvl/mxv
 BYTE   W03
 BYTE   VOL   37*FE11TroubleAzula_mvl/mxv
 BYTE   W03
 BYTE   VOL   39*FE11TroubleAzula_mvl/mxv
 BYTE   W02
 BYTE   N44  Dn4  v076
 BYTE   W01
 BYTE   VOL   40*FE11TroubleAzula_mvl/mxv
 BYTE   W03
 BYTE   VOL   41*FE11TroubleAzula_mvl/mxv
 BYTE   W03
 BYTE   VOL   44*FE11TroubleAzula_mvl/mxv
 BYTE   W03
 BYTE   VOL   45*FE11TroubleAzula_mvl/mxv
 BYTE   W03
 BYTE   VOL   48*FE11TroubleAzula_mvl/mxv
 BYTE   W03
 BYTE   VOL   50*FE11TroubleAzula_mvl/mxv
 BYTE   W03
 BYTE   VOL   51*FE11TroubleAzula_mvl/mxv
 BYTE   W03
 BYTE   VOL   56*FE11TroubleAzula_mvl/mxv
 BYTE   W02
 BYTE   VOL   55*FE11TroubleAzula_mvl/mxv
 BYTE   W01
 BYTE   VOL   53*FE11TroubleAzula_mvl/mxv
 BYTE   W02
 BYTE   VOL   51*FE11TroubleAzula_mvl/mxv
 BYTE   W01
 BYTE   VOL   51*FE11TroubleAzula_mvl/mxv
 BYTE   W02
 BYTE   VOL   48*FE11TroubleAzula_mvl/mxv
 BYTE   W01
 BYTE   VOL   47*FE11TroubleAzula_mvl/mxv
 BYTE   W02
 BYTE   VOL   45*FE11TroubleAzula_mvl/mxv
 BYTE   W01
 BYTE   VOL   43*FE11TroubleAzula_mvl/mxv
 BYTE   W02
 BYTE   VOL   40*FE11TroubleAzula_mvl/mxv
 BYTE   W01
 BYTE   VOL   39*FE11TroubleAzula_mvl/mxv
 BYTE   W02
 BYTE   VOL   37*FE11TroubleAzula_mvl/mxv
 BYTE   W01
 BYTE   VOL   34*FE11TroubleAzula_mvl/mxv
 BYTE   W02
 BYTE   VOL   31*FE11TroubleAzula_mvl/mxv
 BYTE   W01
 BYTE   VOL   29*FE11TroubleAzula_mvl/mxv
 BYTE   W02
 BYTE   VOL   26*FE11TroubleAzula_mvl/mxv
 BYTE   W01
 BYTE   VOL   24*FE11TroubleAzula_mvl/mxv
 BYTE   W02
//  #07 //018   ----------------------------------------
 BYTE   TIE  As3  v088
 BYTE   TIE  Gn4  v068
 BYTE   W01
 BYTE   VOL   25*FE11TroubleAzula_mvl/mxv
 BYTE   W01
 BYTE   VOL   25*FE11TroubleAzula_mvl/mxv
 BYTE   W02
 BYTE   VOL   26*FE11TroubleAzula_mvl/mxv
 BYTE   W01
 BYTE   VOL   27*FE11TroubleAzula_mvl/mxv
 BYTE   W02
 BYTE   VOL   27*FE11TroubleAzula_mvl/mxv
 BYTE   W01
 BYTE   VOL   28*FE11TroubleAzula_mvl/mxv
 BYTE   W02
 BYTE   VOL   28*FE11TroubleAzula_mvl/mxv
 BYTE   W01
 BYTE   VOL   28*FE11TroubleAzula_mvl/mxv
 BYTE   W02
 BYTE   VOL   29*FE11TroubleAzula_mvl/mxv
 BYTE   W01
 BYTE   VOL   30*FE11TroubleAzula_mvl/mxv
 BYTE   W02
 BYTE   VOL   30*FE11TroubleAzula_mvl/mxv
 BYTE   W01
 BYTE   VOL   30*FE11TroubleAzula_mvl/mxv
 BYTE   W02
 BYTE   VOL   31*FE11TroubleAzula_mvl/mxv
 BYTE   W01
 BYTE   VOL   33*FE11TroubleAzula_mvl/mxv
 BYTE   W02
 BYTE   VOL   34*FE11TroubleAzula_mvl/mxv
 BYTE   W01
 BYTE   VOL   34*FE11TroubleAzula_mvl/mxv
 BYTE   W02
 BYTE   VOL   35*FE11TroubleAzula_mvl/mxv
 BYTE   W01
 BYTE   VOL   36*FE11TroubleAzula_mvl/mxv
 BYTE   W02
 BYTE   VOL   37*FE11TroubleAzula_mvl/mxv
 BYTE   W01
 BYTE   VOL   38*FE11TroubleAzula_mvl/mxv
 BYTE   W02
 BYTE   VOL   39*FE11TroubleAzula_mvl/mxv
 BYTE   W01
 BYTE   VOL   40*FE11TroubleAzula_mvl/mxv
 BYTE   W02
 BYTE   VOL   41*FE11TroubleAzula_mvl/mxv
 BYTE   W01
 BYTE   VOL   43*FE11TroubleAzula_mvl/mxv
 BYTE   W02
 BYTE   VOL   45*FE11TroubleAzula_mvl/mxv
 BYTE   W01
 BYTE   VOL   46*FE11TroubleAzula_mvl/mxv
 BYTE   W02
 BYTE   VOL   48*FE11TroubleAzula_mvl/mxv
 BYTE   W01
 BYTE   VOL   50*FE11TroubleAzula_mvl/mxv
 BYTE   W02
 BYTE   VOL   51*FE11TroubleAzula_mvl/mxv
 BYTE   W01
 BYTE   VOL   53*FE11TroubleAzula_mvl/mxv
 BYTE   W01
 BYTE   VOL   56*FE11TroubleAzula_mvl/mxv
 BYTE   W03
 BYTE   VOL   54*FE11TroubleAzula_mvl/mxv
 BYTE   W02
 BYTE   VOL   53*FE11TroubleAzula_mvl/mxv
 BYTE   W01
 BYTE   VOL   52*FE11TroubleAzula_mvl/mxv
 BYTE   W02
 BYTE   VOL   51*FE11TroubleAzula_mvl/mxv
 BYTE   W01
 BYTE   VOL   51*FE11TroubleAzula_mvl/mxv
 BYTE   W02
 BYTE   VOL   51*FE11TroubleAzula_mvl/mxv
 BYTE   W01
 BYTE   VOL   50*FE11TroubleAzula_mvl/mxv
 BYTE   W02
 BYTE   VOL   48*FE11TroubleAzula_mvl/mxv
 BYTE   W01
 BYTE   VOL   48*FE11TroubleAzula_mvl/mxv
 BYTE   W02
 BYTE   VOL   47*FE11TroubleAzula_mvl/mxv
 BYTE   W01
 BYTE   VOL   45*FE11TroubleAzula_mvl/mxv
 BYTE   W02
 BYTE   VOL   45*FE11TroubleAzula_mvl/mxv
 BYTE   W01
 BYTE   VOL   44*FE11TroubleAzula_mvl/mxv
 BYTE   W02
 BYTE   VOL   42*FE11TroubleAzula_mvl/mxv
 BYTE   W01
 BYTE   VOL   41*FE11TroubleAzula_mvl/mxv
 BYTE   W02
 BYTE   VOL   40*FE11TroubleAzula_mvl/mxv
 BYTE   W01
 BYTE   VOL   39*FE11TroubleAzula_mvl/mxv
 BYTE   W02
 BYTE   VOL   37*FE11TroubleAzula_mvl/mxv
 BYTE   W01
 BYTE   VOL   37*FE11TroubleAzula_mvl/mxv
 BYTE   W02
 BYTE   VOL   35*FE11TroubleAzula_mvl/mxv
 BYTE   W01
 BYTE   VOL   34*FE11TroubleAzula_mvl/mxv
 BYTE   W02
 BYTE   VOL   33*FE11TroubleAzula_mvl/mxv
 BYTE   W01
 BYTE   VOL   30*FE11TroubleAzula_mvl/mxv
 BYTE   W02
 BYTE   VOL   30*FE11TroubleAzula_mvl/mxv
 BYTE   W01
 BYTE   VOL   28*FE11TroubleAzula_mvl/mxv
 BYTE   W02
 BYTE   VOL   27*FE11TroubleAzula_mvl/mxv
 BYTE   W01
 BYTE   VOL   25*FE11TroubleAzula_mvl/mxv
 BYTE   W02
 BYTE   VOL   23*FE11TroubleAzula_mvl/mxv
 BYTE   W01
 BYTE   VOL   22*FE11TroubleAzula_mvl/mxv
 BYTE   W02
 BYTE   VOL   19*FE11TroubleAzula_mvl/mxv
 BYTE   W01
 BYTE   VOL   18*FE11TroubleAzula_mvl/mxv
 BYTE   W02
 BYTE   VOL   17*FE11TroubleAzula_mvl/mxv
 BYTE   W01
//  #07 //019   ----------------------------------------
 BYTE   VOL   14*FE11TroubleAzula_mvl/mxv
 BYTE   W02
 BYTE   VOL   12*FE11TroubleAzula_mvl/mxv
 BYTE   W01
 BYTE   VOL   10*FE11TroubleAzula_mvl/mxv
 BYTE   W02
 BYTE   VOL   8*FE11TroubleAzula_mvl/mxv
 BYTE   W01
 BYTE   VOL   6*FE11TroubleAzula_mvl/mxv
 BYTE   W02
 BYTE   VOL   5*FE11TroubleAzula_mvl/mxv
 BYTE   W01
 BYTE   VOL   3*FE11TroubleAzula_mvl/mxv
 BYTE   W02
 BYTE   EOT
 BYTE   As3  v079
 BYTE   VOL   1*FE11TroubleAzula_mvl/mxv
 BYTE   W01
 BYTE   VOL   0*FE11TroubleAzula_mvl/mxv
 BYTE   N05  As3  v020
 BYTE   N05  Gn4
 BYTE   W02
 BYTE   VOL   0*FE11TroubleAzula_mvl/mxv
 BYTE   W01
 BYTE   VOL   0*FE11TroubleAzula_mvl/mxv
 BYTE   W02
 BYTE   VOL   0*FE11TroubleAzula_mvl/mxv
 BYTE   W01
 BYTE   VOL   0*FE11TroubleAzula_mvl/mxv
 BYTE   W02
 BYTE   VOL   0*FE11TroubleAzula_mvl/mxv
 BYTE   W01
 BYTE   VOL   1*FE11TroubleAzula_mvl/mxv
 BYTE   W02
 BYTE   VOL   1*FE11TroubleAzula_mvl/mxv
 BYTE   W01
 BYTE   VOL   2*FE11TroubleAzula_mvl/mxv
 BYTE   N68  Gn3  v076
 BYTE   W02
 BYTE   VOL   2*FE11TroubleAzula_mvl/mxv
 BYTE   W01
 BYTE   VOL   3*FE11TroubleAzula_mvl/mxv
 BYTE   W02
 BYTE   VOL   3*FE11TroubleAzula_mvl/mxv
 BYTE   W01
 BYTE   VOL   5*FE11TroubleAzula_mvl/mxv
 BYTE   W02
 BYTE   VOL   5*FE11TroubleAzula_mvl/mxv
 BYTE   W01
 BYTE   VOL   6*FE11TroubleAzula_mvl/mxv
 BYTE   W02
 BYTE   VOL   6*FE11TroubleAzula_mvl/mxv
 BYTE   W01
 BYTE   VOL   8*FE11TroubleAzula_mvl/mxv
 BYTE   W02
 BYTE   VOL   8*FE11TroubleAzula_mvl/mxv
 BYTE   W01
 BYTE   VOL   10*FE11TroubleAzula_mvl/mxv
 BYTE   W02
 BYTE   VOL   11*FE11TroubleAzula_mvl/mxv
 BYTE   W01
 BYTE   VOL   12*FE11TroubleAzula_mvl/mxv
 BYTE   W02
 BYTE   VOL   13*FE11TroubleAzula_mvl/mxv
 BYTE   W01
 BYTE   VOL   14*FE11TroubleAzula_mvl/mxv
 BYTE   W02
 BYTE   VOL   15*FE11TroubleAzula_mvl/mxv
 BYTE   W01
 BYTE   VOL   17*FE11TroubleAzula_mvl/mxv
 BYTE   W02
 BYTE   VOL   18*FE11TroubleAzula_mvl/mxv
 BYTE   W01
 BYTE   VOL   19*FE11TroubleAzula_mvl/mxv
 BYTE   W02
 BYTE   VOL   20*FE11TroubleAzula_mvl/mxv
 BYTE   W01
 BYTE   VOL   22*FE11TroubleAzula_mvl/mxv
 BYTE   W02
 BYTE   VOL   23*FE11TroubleAzula_mvl/mxv
 BYTE   W01
 BYTE   VOL   25*FE11TroubleAzula_mvl/mxv
 BYTE   W02
 BYTE   VOL   27*FE11TroubleAzula_mvl/mxv
 BYTE   W01
 BYTE   VOL   28*FE11TroubleAzula_mvl/mxv
 BYTE   W02
 BYTE   VOL   29*FE11TroubleAzula_mvl/mxv
 BYTE   W01
 BYTE   VOL   30*FE11TroubleAzula_mvl/mxv
 BYTE   W02
 BYTE   VOL   33*FE11TroubleAzula_mvl/mxv
 BYTE   W01
 BYTE   VOL   34*FE11TroubleAzula_mvl/mxv
 BYTE   W02
 BYTE   VOL   36*FE11TroubleAzula_mvl/mxv
 BYTE   W01
 BYTE   VOL   37*FE11TroubleAzula_mvl/mxv
 BYTE   W02
 BYTE   VOL   40*FE11TroubleAzula_mvl/mxv
 BYTE   W01
 BYTE   VOL   41*FE11TroubleAzula_mvl/mxv
 BYTE   W02
 BYTE   VOL   43*FE11TroubleAzula_mvl/mxv
 BYTE   W01
 BYTE   VOL   45*FE11TroubleAzula_mvl/mxv
 BYTE   W02
 BYTE   VOL   47*FE11TroubleAzula_mvl/mxv
 BYTE   W01
 BYTE   VOL   49*FE11TroubleAzula_mvl/mxv
 BYTE   W02
 BYTE   VOL   51*FE11TroubleAzula_mvl/mxv
 BYTE   W01
 BYTE   VOL   52*FE11TroubleAzula_mvl/mxv
 BYTE   W02
 BYTE   VOL   56*FE11TroubleAzula_mvl/mxv
 BYTE   W13
//  #07 //020   ----------------------------------------
 BYTE   VOL   56*FE11TroubleAzula_mvl/mxv
 BYTE   N05  Gn3  v024
 BYTE   W12
 BYTE   Dn3  v056
 BYTE   W06
 BYTE   Cs3  v052
 BYTE   W06
 BYTE   Dn3  v056
 BYTE   W06
 BYTE   En3  v052
 BYTE   W06
 BYTE   Fn3  v060
 BYTE   W06
 BYTE   Gn3  v056
 BYTE   W06
 BYTE   An3
 BYTE   W06
 BYTE   As3  v052
 BYTE   W06
 BYTE   Cs4  v056
 BYTE   W06
 BYTE   As3  v048
 BYTE   W06
 BYTE   An3
 BYTE   W06
 BYTE   Gn3  v040
 BYTE   W06
 BYTE   Fn3  v044
 BYTE   W06
 BYTE   N07  En3  v052
 BYTE   W06
//  #07 //021   ----------------------------------------
Label_0100BA22:
 BYTE   W03
 BYTE   N05  En3  v020
 BYTE   W09
 BYTE   Dn3  v052
 BYTE   W06
 BYTE   Cs3
 BYTE   W06
 BYTE   Dn3  v064
 BYTE   W06
 BYTE   En3  v056
 BYTE   W06
 BYTE   Fn3  v052
 BYTE   W06
 BYTE   Gn3  v056
 BYTE   W06
 BYTE   An3  v040
 BYTE   W06
 BYTE   As3  v052
 BYTE   W06
 BYTE   Cs4  v060
 BYTE   W06
 BYTE   Dn4  v064
 BYTE   W06
 BYTE   En4
 BYTE   W06
 BYTE   Fn4  v056
 BYTE   W06
 BYTE   N13  Gn4  v064
 BYTE   W12
 BYTE   PEND 
//  #07 //022   ----------------------------------------
Label_0100BA4E:
 BYTE   W03
 BYTE   N05  Gn4  v020
 BYTE   W09
 BYTE   Gn4  v060
 BYTE   W06
 BYTE   Fn4  v064
 BYTE   W06
 BYTE   En4  v048
 BYTE   W06
 BYTE   Fn4  v056
 BYTE   W06
 BYTE   En4  v064
 BYTE   W06
 BYTE   Dn4  v056
 BYTE   W06
 BYTE   Cs4  v064
 BYTE   W06
 BYTE   Dn4  v068
 BYTE   W06
 BYTE   En4  v056
 BYTE   W06
 BYTE   Dn4  v060
 BYTE   W06
 BYTE   Cs4  v048
 BYTE   W06
 BYTE   As3
 BYTE   W06
 BYTE   An3  v056
 BYTE   W06
 BYTE   N07  Gn3
 BYTE   W06
 BYTE   PEND 
//  #07 //023   ----------------------------------------
 BYTE   W03
 BYTE   N05  Gn3  v020
 BYTE   W09
 BYTE   Gn3  v064
 BYTE   W06
 BYTE   Fs3  v044
 BYTE   W06
 BYTE   Gn3
 BYTE   W06
 BYTE   An3  v048
 BYTE   W06
 BYTE   As3  v064
 BYTE   W06
 BYTE   Dn4
 BYTE   W06
 BYTE   Cs4  v056
 BYTE   W06
 BYTE   An3  v068
 BYTE   W06
 BYTE   Gs3  v052
 BYTE   W06
 BYTE   An3  v044
 BYTE   W06
 BYTE   Cs4  v056
 BYTE   W06
 BYTE   Dn4  v044
 BYTE   W06
 BYTE   En4  v048
 BYTE   W06
 BYTE   N07  Fn4  v052
 BYTE   W06
//  #07 //024   ----------------------------------------
 BYTE   W03
 BYTE   N05  Fn4  v020
 BYTE   W09
 BYTE   Dn3  v056
 BYTE   W06
 BYTE   Cs3  v052
 BYTE   W06
 BYTE   Dn3  v056
 BYTE   W06
 BYTE   En3  v052
 BYTE   W06
 BYTE   Fn3  v060
 BYTE   W06
 BYTE   Gn3  v056
 BYTE   W06
 BYTE   An3
 BYTE   W06
 BYTE   As3  v052
 BYTE   W06
 BYTE   Cs4  v056
 BYTE   W06
 BYTE   As3  v048
 BYTE   W06
 BYTE   An3
 BYTE   W06
 BYTE   Gn3  v040
 BYTE   W06
 BYTE   Fn3  v044
 BYTE   W06
 BYTE   N07  En3  v052
 BYTE   W06
//  #07 //025   ----------------------------------------
 BYTE   PATT
  POIN2 Label_0100BA22
//  #07 //026   ----------------------------------------
 BYTE   PATT
  POIN2 Label_0100BA4E
//  #07 //027   ----------------------------------------
 BYTE   W03
 BYTE   N05  Gn3  v020
 BYTE   W09
 BYTE   Gn2  v084
 BYTE   W06
 BYTE   Fs2  v060
 BYTE   W06
 BYTE   Gn2
 BYTE   W06
 BYTE   An2  v064
 BYTE   W06
 BYTE   As2  v084
 BYTE   W06
 BYTE   Dn3
 BYTE   W06
 BYTE   N07  Cs1  v108
 BYTE   W09
 BYTE   N05  Cs1  v020
 BYTE   W09
 BYTE   N11  An3  v096
 BYTE   W12
 BYTE   N05  Dn1
 BYTE   W06
 BYTE   En1  v100
 BYTE   W06
 BYTE   Fn1  v104
 BYTE   W06
//  #07 //028   ----------------------------------------
 BYTE   GoTo
  POIN2 Label_0100B66A
 BYTE   FINE

//**************** Track 8 (Midi-Chn.7) ****************//

FE11TroubleAzula_008:
//  #08 //000   ----------------------------------------
 BYTE   KEYSH   FE11TroubleAzula_key+0
Label_0100BB2A:
 BYTE   VOICE   127
 BYTE   MODT 0
 BYTE   LFOS 44
 BYTE   VOL   68*FE11TroubleAzula_mvl/mxv
 BYTE   PAN   c_v+0
 BYTE   VOL   68*FE11TroubleAzula_mvl/mxv
 BYTE   N05  Cn1  v108
 BYTE   N03  Fs1  v056
 BYTE   N24  Cs2
 BYTE   W06
 BYTE   N03  Fs1  v036
 BYTE   W06
 BYTE   N02  Fs1  v008
 BYTE   W06
 BYTE   N05  Cn1  v100
 BYTE   N03  Fs1  v044
 BYTE   W06
 BYTE   Fs1  v032
 BYTE   W06
 BYTE   N02  Fs1  v008
 BYTE   W06
 BYTE   N05  Cn1  v100
 BYTE   N03  Fs1  v048
 BYTE   W06
 BYTE   Fs1  v032
 BYTE   W06
 BYTE   N02  Fs1  v008
 BYTE   W06
 BYTE   N05  Cn1  v100
 BYTE   N03  Fs1  v044
 BYTE   W06
 BYTE   Fs1  v032
 BYTE   W06
 BYTE   N02
 BYTE   W03
 BYTE   N02
 BYTE   W03
 BYTE   N03  Cn1  v100
 BYTE   N01  Fs1  v020
 BYTE   W02
 BYTE   Fs1  v012
 BYTE   W02
 BYTE   N01
 BYTE   W02
 BYTE   N02  Fs1  v032
 BYTE   W03
 BYTE   Fs1  v020
 BYTE   W03
 BYTE   Cn1  v100
 BYTE   N01  Fs1  v032
 BYTE   W03
 BYTE   N02  Fs1  v008
 BYTE   W03
 BYTE   N01  Fs1  v032
 BYTE   W03
 BYTE   N02  Fs1  v008
 BYTE   W03
//  #08 //001   ----------------------------------------
Label_0100BB96:
 BYTE   N05  Cn1  v108
 BYTE   N03  Fs1  v052
 BYTE   W06
 BYTE   Fs1  v036
 BYTE   W06
 BYTE   N02  Fs1  v032
 BYTE   W06
 BYTE   N05  Cn1  v100
 BYTE   N03  Fs1  v044
 BYTE   W06
 BYTE   Fs1  v032
 BYTE   W06
 BYTE   N02  Fs1  v008
 BYTE   W06
 BYTE   N05  Cn1  v100
 BYTE   N03  Fs1  v048
 BYTE   W06
 BYTE   Fs1  v032
 BYTE   W06
 BYTE   N02  Fs1  v008
 BYTE   W06
 BYTE   N05  Cn1  v100
 BYTE   N03  Fs1  v044
 BYTE   W06
 BYTE   Fs1  v032
 BYTE   W06
 BYTE   N02  Cn1  v064
 BYTE   N03  Fs1  v020
 BYTE   W02
 BYTE   N01  Cn1  v024
 BYTE   W02
 BYTE   N01
 BYTE   W02
 BYTE   N04  Cn1  v100
 BYTE   N03  Fs1  v032
 BYTE   W06
 BYTE   N02
 BYTE   W03
 BYTE   Fs1  v024
 BYTE   W03
 BYTE   N03  Cn1  v100
 BYTE   N01  Fs1  v016
 BYTE   W02
 BYTE   Fs1  v008
 BYTE   W02
 BYTE   N01
 BYTE   W02
 BYTE   N02  Fs1  v016
 BYTE   W03
 BYTE   Fs1  v008
 BYTE   W03
 BYTE   PEND 
//  #08 //002   ----------------------------------------
Label_0100BBF7:
 BYTE   N05  Cn1  v108
 BYTE   N03  Fs1  v056
 BYTE   W06
 BYTE   Fs1  v036
 BYTE   W06
 BYTE   N02  Fs1  v008
 BYTE   W06
 BYTE   N05  Cn1  v100
 BYTE   N03  Fs1  v044
 BYTE   W06
 BYTE   Fs1  v032
 BYTE   W06
 BYTE   N02  Fs1  v008
 BYTE   W06
 BYTE   N05  Cn1  v100
 BYTE   N03  Fs1  v048
 BYTE   W06
 BYTE   Fs1  v032
 BYTE   W06
 BYTE   N02  Fs1  v008
 BYTE   W06
 BYTE   N05  Cn1  v100
 BYTE   N03  Fs1  v044
 BYTE   W06
 BYTE   Fs1  v032
 BYTE   W06
 BYTE   N02
 BYTE   W03
 BYTE   Fs1  v024
 BYTE   W03
 BYTE   N03  Cn1  v100
 BYTE   N01  Fs1  v020
 BYTE   W02
 BYTE   Fs1  v012
 BYTE   W02
 BYTE   N01
 BYTE   W02
 BYTE   N02  Fs1  v032
 BYTE   W03
 BYTE   Fs1  v020
 BYTE   W03
 BYTE   Cn1  v100
 BYTE   N01  Fs1  v032
 BYTE   W03
 BYTE   N02  Fs1  v008
 BYTE   W03
 BYTE   N01  Fs1  v032
 BYTE   W03
 BYTE   N02  Fs1  v008
 BYTE   W03
 BYTE   PEND 
//  #08 //003   ----------------------------------------
 BYTE   N05  Cn1  v108
 BYTE   N03  Fs1  v052
 BYTE   W06
 BYTE   Fs1  v036
 BYTE   W06
 BYTE   N02  Fs1  v008
 BYTE   W06
 BYTE   N05  Cn1  v100
 BYTE   N03  Fs1  v044
 BYTE   W06
 BYTE   Fs1  v032
 BYTE   W06
 BYTE   N02  Fs1  v008
 BYTE   W06
 BYTE   N05  Cn1  v100
 BYTE   N03  Fs1  v048
 BYTE   W06
 BYTE   Fs1  v032
 BYTE   W06
 BYTE   N02  Fs1  v008
 BYTE   W06
 BYTE   N05  Cn1  v100
 BYTE   N03  Fs1  v044
 BYTE   W06
 BYTE   Fs1  v032
 BYTE   W06
 BYTE   N02
 BYTE   W03
 BYTE   N02
 BYTE   W03
 BYTE   N11  Dn1  v112
 BYTE   N02  Fs1  v032
 BYTE   W06
 BYTE   N02
 BYTE   W03
 BYTE   Fs1  v024
 BYTE   W03
 BYTE   N03  Cn1  v100
 BYTE   N01  Fs1  v020
 BYTE   W02
 BYTE   Fs1  v012
 BYTE   W02
 BYTE   N01
 BYTE   W02
 BYTE   N02  Fs1  v032
 BYTE   W06
//  #08 //004   ----------------------------------------
Label_0100BCAA:
 BYTE   N05  Cn1  v108
 BYTE   N03  Fs1  v056
 BYTE   N24  Cs2
 BYTE   W06
 BYTE   N03  Fs1  v036
 BYTE   W06
 BYTE   N02  Fs1  v008
 BYTE   W06
 BYTE   N05  Cn1  v100
 BYTE   N03  Fs1  v044
 BYTE   W06
 BYTE   Fs1  v032
 BYTE   W06
 BYTE   N02  Fs1  v008
 BYTE   W06
 BYTE   N05  Cn1  v100
 BYTE   N03  Fs1  v048
 BYTE   W06
 BYTE   Fs1  v032
 BYTE   W06
 BYTE   N02  Fs1  v008
 BYTE   W06
 BYTE   N05  Cn1  v100
 BYTE   N03  Fs1  v044
 BYTE   W06
 BYTE   Fs1  v032
 BYTE   W06
 BYTE   N02
 BYTE   W03
 BYTE   N02
 BYTE   W03
 BYTE   N03  Cn1  v100
 BYTE   N01  Fs1  v020
 BYTE   W02
 BYTE   Fs1  v012
 BYTE   W02
 BYTE   N01
 BYTE   W02
 BYTE   N02  Fs1  v032
 BYTE   W03
 BYTE   Fs1  v020
 BYTE   W03
 BYTE   Cn1  v100
 BYTE   N01  Fs1  v032
 BYTE   W03
 BYTE   N02  Fs1  v008
 BYTE   W03
 BYTE   N01  Fs1  v032
 BYTE   W03
 BYTE   N02  Fs1  v008
 BYTE   W03
 BYTE   PEND 
//  #08 //005   ----------------------------------------
 BYTE   PATT
  POIN2 Label_0100BB96
//  #08 //006   ----------------------------------------
 BYTE   PATT
  POIN2 Label_0100BBF7
//  #08 //007   ----------------------------------------
 BYTE   N05  Cn1  v108
 BYTE   N03  Fs1  v052
 BYTE   W06
 BYTE   Fs1  v036
 BYTE   W06
 BYTE   N02  Fs1  v008
 BYTE   W06
 BYTE   N05  Cn1  v100
 BYTE   N03  Fs1  v044
 BYTE   W06
 BYTE   Fs1  v032
 BYTE   W06
 BYTE   N02  Fs1  v008
 BYTE   W06
 BYTE   N05  Cn1  v100
 BYTE   N03  Fs1  v048
 BYTE   W06
 BYTE   Fs1  v032
 BYTE   W06
 BYTE   N02  Fs1  v008
 BYTE   W06
 BYTE   N05  Cn1  v100
 BYTE   N03  Fs1  v044
 BYTE   W06
 BYTE   Fs1  v032
 BYTE   W06
 BYTE   N02
 BYTE   W03
 BYTE   N02
 BYTE   W03
 BYTE   N05  Cn1  v100
 BYTE   N03  Dn1  v112
 BYTE   W06
 BYTE   N02  Fs1  v032
 BYTE   W03
 BYTE   Fs1  v024
 BYTE   W03
 BYTE   N03  Cn1  v100
 BYTE   N01  Fs1  v020
 BYTE   W02
 BYTE   Fs1  v016
 BYTE   W02
 BYTE   N01
 BYTE   W02
 BYTE   N02  Fs1  v036
 BYTE   W03
 BYTE   Fs1  v024
 BYTE   W03
//  #08 //008   ----------------------------------------
 BYTE   N05  Cn1  v108
 BYTE   N24  Cs2  v048
 BYTE   W06
 BYTE   N03  Fs1  v036
 BYTE   W06
 BYTE   N02  Fs1  v012
 BYTE   W06
 BYTE   N05  Cn1  v100
 BYTE   N03  Fs1  v044
 BYTE   W06
 BYTE   Fs1  v032
 BYTE   W06
 BYTE   N02  Fs1  v012
 BYTE   W06
 BYTE   N05  Cn1  v100
 BYTE   N03  Fs1  v048
 BYTE   W06
 BYTE   Fs1  v032
 BYTE   W06
 BYTE   N05  Cn1  v100
 BYTE   N02  Fs1  v012
 BYTE   W06
 BYTE   N03  Fs1  v044
 BYTE   W06
 BYTE   Fs1  v032
 BYTE   W06
 BYTE   N02  Cn1  v100
 BYTE   N02  Fs1  v032
 BYTE   W03
 BYTE   N02
 BYTE   W03
 BYTE   N01  Fs1  v024
 BYTE   W02
 BYTE   Fs1  v016
 BYTE   W02
 BYTE   N01
 BYTE   W02
 BYTE   N02  Fs1  v032
 BYTE   W03
 BYTE   Fs1  v024
 BYTE   W03
 BYTE   Cn1  v100
 BYTE   N01  Fs1  v032
 BYTE   W03
 BYTE   N02  Fs1  v012
 BYTE   W03
 BYTE   N01  Fs1  v032
 BYTE   W03
 BYTE   N02  Fs1  v012
 BYTE   W03
//  #08 //009   ----------------------------------------
 BYTE   N05  Cn1  v108
 BYTE   N03  Fs1  v052
 BYTE   W06
 BYTE   Fs1  v036
 BYTE   W06
 BYTE   N02  Fs1  v032
 BYTE   W06
 BYTE   N05  Cn1  v100
 BYTE   N03  Fs1  v044
 BYTE   W06
 BYTE   Fs1  v032
 BYTE   W06
 BYTE   N02  Fs1  v012
 BYTE   W06
 BYTE   N05  Cn1  v100
 BYTE   N03  Fs1  v048
 BYTE   W06
 BYTE   Fs1  v032
 BYTE   W06
 BYTE   N05  Cn1  v100
 BYTE   N02  Fs1  v012
 BYTE   W06
 BYTE   N03  Fs1  v044
 BYTE   W06
 BYTE   Fs1  v032
 BYTE   W06
 BYTE   N05  Cn1  v100
 BYTE   N03  Fs1  v024
 BYTE   W06
 BYTE   Fs1  v032
 BYTE   W06
 BYTE   N02
 BYTE   W03
 BYTE   Fs1  v028
 BYTE   W03
 BYTE   N03  Cn1  v100
 BYTE   N01  Fs1  v016
 BYTE   W02
 BYTE   Fs1  v012
 BYTE   W02
 BYTE   N01
 BYTE   W02
 BYTE   N02  Fs1  v020
 BYTE   W03
 BYTE   Fs1  v012
 BYTE   W03
//  #08 //010   ----------------------------------------
 BYTE   N05  Cn1  v108
 BYTE   N03  Fs1  v052
 BYTE   W06
 BYTE   Fs1  v036
 BYTE   W06
 BYTE   N02  Fs1  v012
 BYTE   W06
 BYTE   N05  Cn1  v100
 BYTE   N03  Fs1  v044
 BYTE   W06
 BYTE   Fs1  v032
 BYTE   W06
 BYTE   N02  Fs1  v012
 BYTE   W06
 BYTE   N05  Cn1  v100
 BYTE   N03  Fs1  v048
 BYTE   W06
 BYTE   Fs1  v032
 BYTE   W06
 BYTE   N05  Cn1  v100
 BYTE   N02  Fs1  v012
 BYTE   W06
 BYTE   N03  Fs1  v044
 BYTE   W06
 BYTE   Fs1  v032
 BYTE   W06
 BYTE   N02  Cn1  v100
 BYTE   N02  Fs1  v032
 BYTE   W03
 BYTE   Fs1  v028
 BYTE   W03
 BYTE   N01  Fs1  v024
 BYTE   W02
 BYTE   Fs1  v016
 BYTE   W02
 BYTE   N01
 BYTE   W02
 BYTE   N02  Fs1  v032
 BYTE   W03
 BYTE   Fs1  v024
 BYTE   W03
 BYTE   Cn1  v100
 BYTE   N01  Fs1  v032
 BYTE   W03
 BYTE   N02  Fs1  v012
 BYTE   W03
 BYTE   N01  Fs1  v032
 BYTE   W03
 BYTE   N02  Fs1  v012
 BYTE   W03
//  #08 //011   ----------------------------------------
 BYTE   N06  Cn1  v108
 BYTE   N05  Gn1  v127
 BYTE   W18
 BYTE   N06  Cn1  v100
 BYTE   N05  Gn1  v127
 BYTE   W18
 BYTE   N06  Cn1  v100
 BYTE   N05  An1  v127
 BYTE   W12
 BYTE   Cn1  v100
 BYTE   W06
 BYTE   Bn1  v127
 BYTE   W12
 BYTE   N02  An1
 BYTE   W06
 BYTE   N03  Dn1  v112
 BYTE   N05  Gn1  v127
 BYTE   W12
 BYTE   N02  Cn1  v100
 BYTE   N02  Cn2  v127
 BYTE   W03
 BYTE   An1  v088
 BYTE   W03
 BYTE   N05  Gn1  v127
 BYTE   W06
//  #08 //012   ----------------------------------------
 BYTE   PATT
  POIN2 Label_0100BCAA
//  #08 //013   ----------------------------------------
 BYTE   PATT
  POIN2 Label_0100BB96
//  #08 //014   ----------------------------------------
 BYTE   PATT
  POIN2 Label_0100BBF7
//  #08 //015   ----------------------------------------
 BYTE   N05  Cn1  v108
 BYTE   N03  Fs1  v052
 BYTE   W06
 BYTE   Fs1  v036
 BYTE   W06
 BYTE   N02  Fs1  v008
 BYTE   W06
 BYTE   N05  Cn1  v100
 BYTE   N03  Fs1  v044
 BYTE   W06
 BYTE   Fs1  v032
 BYTE   W06
 BYTE   N02  Fs1  v008
 BYTE   W06
 BYTE   N05  Cn1  v100
 BYTE   N03  Fs1  v048
 BYTE   W06
 BYTE   Fs1  v032
 BYTE   W06
 BYTE   N02  Fs1  v008
 BYTE   W06
 BYTE   N05  Cn1  v100
 BYTE   N03  Fs1  v044
 BYTE   W06
 BYTE   Fs1  v032
 BYTE   W06
 BYTE   N02
 BYTE   W03
 BYTE   N02
 BYTE   W03
 BYTE   N05  Cn1  v100
 BYTE   N03  Dn1  v112
 BYTE   N02  Fs1  v032
 BYTE   W06
 BYTE   N02
 BYTE   W03
 BYTE   Fs1  v024
 BYTE   W03
 BYTE   N03  Cn1  v100
 BYTE   N01  Fs1  v020
 BYTE   W02
 BYTE   Fs1  v012
 BYTE   W02
 BYTE   N01
 BYTE   W02
 BYTE   N02  Fs1  v032
 BYTE   W06
//  #08 //016   ----------------------------------------
 BYTE   PATT
  POIN2 Label_0100BCAA
//  #08 //017   ----------------------------------------
 BYTE   PATT
  POIN2 Label_0100BB96
//  #08 //018   ----------------------------------------
 BYTE   PATT
  POIN2 Label_0100BBF7
//  #08 //019   ----------------------------------------
 BYTE   N05  Cn1  v108
 BYTE   N03  Fs1  v052
 BYTE   W06
 BYTE   Fs1  v036
 BYTE   W06
 BYTE   N02  Fs1  v008
 BYTE   W06
 BYTE   N05  Cn1  v100
 BYTE   N03  Fs1  v044
 BYTE   W06
 BYTE   Fs1  v032
 BYTE   W06
 BYTE   N02  Fs1  v008
 BYTE   W06
 BYTE   N05  Cn1  v100
 BYTE   N03  Fs1  v048
 BYTE   W06
 BYTE   Fs1  v032
 BYTE   W06
 BYTE   N02  Fs1  v008
 BYTE   W06
 BYTE   N05  Cn1  v100
 BYTE   N03  Fs1  v044
 BYTE   W06
 BYTE   Fs1  v032
 BYTE   W06
 BYTE   N02
 BYTE   W03
 BYTE   N02
 BYTE   W03
 BYTE   N03  Dn1  v112
 BYTE   W12
 BYTE   N06  Cn1  v100
 BYTE   W12
//  #08 //020   ----------------------------------------
 BYTE   N03  Fn2  v064
 BYTE   W06
 BYTE   Fn2  v040
 BYTE   W06
 BYTE   N02  Fn2  v008
 BYTE   W06
 BYTE   N03  Fn2  v048
 BYTE   W06
 BYTE   Fn2  v036
 BYTE   W06
 BYTE   N02  Fn2  v008
 BYTE   W06
 BYTE   N03  Fn2  v052
 BYTE   W06
 BYTE   Fn2  v036
 BYTE   W06
 BYTE   N02  Fn2  v008
 BYTE   W06
 BYTE   N03  Fn2  v048
 BYTE   W06
 BYTE   Fn2  v036
 BYTE   W06
 BYTE   N01
 BYTE   W03
 BYTE   Fn2  v008
 BYTE   W03
 BYTE   Fn2  v024
 BYTE   W03
 BYTE   Fn2  v012
 BYTE   W03
 BYTE   N02  Fn2  v036
 BYTE   W03
 BYTE   Fn2  v024
 BYTE   W03
 BYTE   N01  Fn2  v036
 BYTE   W03
 BYTE   N02  Fn2  v008
 BYTE   W03
 BYTE   N01  Fn2  v036
 BYTE   W03
 BYTE   N02  Fn2  v008
 BYTE   W03
//  #08 //021   ----------------------------------------
 BYTE   N03  Fn2  v060
 BYTE   W06
 BYTE   Fn2  v040
 BYTE   W06
 BYTE   N02  Fn2  v024
 BYTE   W06
 BYTE   N03  Fn2  v048
 BYTE   W06
 BYTE   Fn2  v036
 BYTE   W06
 BYTE   N02  Fn2  v008
 BYTE   W06
 BYTE   N03  Fn2  v052
 BYTE   W06
 BYTE   Fn2  v036
 BYTE   W06
 BYTE   N02  Fn2  v008
 BYTE   W06
 BYTE   N03  Fn2  v048
 BYTE   W06
 BYTE   Fn2  v036
 BYTE   W06
 BYTE   Fn2  v024
 BYTE   W06
 BYTE   Fn2  v036
 BYTE   W06
 BYTE   N02
 BYTE   W03
 BYTE   Fn2  v028
 BYTE   W03
 BYTE   N01  Fn2  v016
 BYTE   W02
 BYTE   Fn2  v012
 BYTE   W02
 BYTE   N01
 BYTE   W02
 BYTE   N02  Fn2  v020
 BYTE   W03
 BYTE   Fn2  v008
 BYTE   W03
//  #08 //022   ----------------------------------------
 BYTE   N03  Fn2  v064
 BYTE   W06
 BYTE   Fn2  v040
 BYTE   W06
 BYTE   N02  Fn2  v008
 BYTE   W06
 BYTE   N03  Fn2  v048
 BYTE   W06
 BYTE   Fn2  v036
 BYTE   W06
 BYTE   N02  Fn2  v008
 BYTE   W06
 BYTE   N03  Fn2  v052
 BYTE   W06
 BYTE   Fn2  v036
 BYTE   W06
 BYTE   N02  Fn2  v008
 BYTE   W06
 BYTE   N03  Fn2  v048
 BYTE   W06
 BYTE   Fn2  v036
 BYTE   W06
 BYTE   N02
 BYTE   W03
 BYTE   Fn2  v024
 BYTE   W03
 BYTE   N02
 BYTE   W03
 BYTE   Fn2  v016
 BYTE   W03
 BYTE   Fn2  v036
 BYTE   W03
 BYTE   Fn2  v024
 BYTE   W03
 BYTE   N01  Fn2  v036
 BYTE   W03
 BYTE   N02  Fn2  v008
 BYTE   W03
 BYTE   N01  Fn2  v036
 BYTE   W03
 BYTE   N02  Fn2  v008
 BYTE   W03
//  #08 //023   ----------------------------------------
 BYTE   N03  Fn2  v060
 BYTE   W06
 BYTE   Fn2  v040
 BYTE   W06
 BYTE   N02  Fn2  v008
 BYTE   W06
 BYTE   N03  Fn2  v048
 BYTE   W06
 BYTE   Fn2  v036
 BYTE   W06
 BYTE   N02  Fn2  v008
 BYTE   W06
 BYTE   N03  Fn2  v052
 BYTE   W06
 BYTE   Fn2  v036
 BYTE   W06
 BYTE   N02  Fn2  v008
 BYTE   W06
 BYTE   N03  Fn2  v048
 BYTE   W06
 BYTE   Fn2  v036
 BYTE   W06
 BYTE   N02
 BYTE   W03
 BYTE   N02
 BYTE   W03
 BYTE   N03  Dn1  v120
 BYTE   N02  Fn2  v036
 BYTE   W06
 BYTE   N02
 BYTE   W03
 BYTE   Fn2  v028
 BYTE   W03
 BYTE   N03  Gn1  v127
 BYTE   W06
 BYTE   Fn1
 BYTE   N02  Fn2  v036
 BYTE   W03
 BYTE   Fn2  v024
 BYTE   W03
//  #08 //024   ----------------------------------------
 BYTE   N05  Cn1  v088
 BYTE   N24  Cs2  v044
 BYTE   W06
 BYTE   N03  Fs1  v020
 BYTE   W06
 BYTE   N02  Fs1  v004
 BYTE   W06
 BYTE   N03  Fs1  v024
 BYTE   W06
 BYTE   Fs1  v016
 BYTE   W06
 BYTE   N02  Fs1  v004
 BYTE   W06
 BYTE   N03  Fs1  v024
 BYTE   W06
 BYTE   Fs1  v016
 BYTE   W06
 BYTE   N02  Fs1  v004
 BYTE   W06
 BYTE   N03  Fs1  v024
 BYTE   W06
 BYTE   Fs1  v016
 BYTE   W06
 BYTE   N02
 BYTE   W03
 BYTE   N02
 BYTE   W03
 BYTE   N01  Fs1  v012
 BYTE   W02
 BYTE   Fs1  v008
 BYTE   W02
 BYTE   N01
 BYTE   W02
 BYTE   N02  Fs1  v016
 BYTE   W03
 BYTE   Fs1  v012
 BYTE   W03
 BYTE   Cn1  v080
 BYTE   N01  Fs1  v016
 BYTE   W03
 BYTE   N02  Fs1  v004
 BYTE   W03
 BYTE   N01  Fs1  v016
 BYTE   W03
 BYTE   N02  Fs1  v004
 BYTE   W03
//  #08 //025   ----------------------------------------
 BYTE   N05  Cn1  v088
 BYTE   N03  Fs1  v028
 BYTE   W06
 BYTE   Fs1  v020
 BYTE   W06
 BYTE   N02  Fs1  v016
 BYTE   W06
 BYTE   N03  Fs1  v020
 BYTE   W06
 BYTE   Fs1  v016
 BYTE   W06
 BYTE   N02  Fs1  v004
 BYTE   W06
 BYTE   N03  Fs1  v024
 BYTE   W06
 BYTE   Fs1  v016
 BYTE   W06
 BYTE   N02  Fs1  v004
 BYTE   W06
 BYTE   N03  Fs1  v020
 BYTE   W06
 BYTE   Fs1  v016
 BYTE   W06
 BYTE   Fs1  v012
 BYTE   W06
 BYTE   Fs1  v016
 BYTE   W06
 BYTE   N02
 BYTE   W03
 BYTE   Fs1  v012
 BYTE   W03
 BYTE   N01  Fs1  v008
 BYTE   W02
 BYTE   Fs1  v004
 BYTE   W02
 BYTE   N01
 BYTE   W02
 BYTE   N02  Fs1  v008
 BYTE   W03
 BYTE   Fs1  v004
 BYTE   W03
//  #08 //026   ----------------------------------------
 BYTE   N05  Cn1  v088
 BYTE   N03  Fs1  v032
 BYTE   W06
 BYTE   Fs1  v020
 BYTE   W06
 BYTE   N02  Fs1  v004
 BYTE   W06
 BYTE   N03  Fs1  v024
 BYTE   W06
 BYTE   Fs1  v016
 BYTE   W06
 BYTE   N02  Fs1  v004
 BYTE   W06
 BYTE   N03  Fs1  v024
 BYTE   W06
 BYTE   Fs1  v016
 BYTE   W06
 BYTE   N02  Fs1  v004
 BYTE   W06
 BYTE   N03  Fs1  v032
 BYTE   W06
 BYTE   Fs1  v024
 BYTE   W06
 BYTE   N02  Cn1  v080
 BYTE   N02  Fs1  v024
 BYTE   W03
 BYTE   Fs1  v016
 BYTE   W03
 BYTE   N01
 BYTE   W02
 BYTE   Fs1  v012
 BYTE   W02
 BYTE   N01
 BYTE   W02
 BYTE   N02  Fs1  v024
 BYTE   W03
 BYTE   Fs1  v016
 BYTE   W03
 BYTE   Cn1  v080
 BYTE   N01  Fs1  v024
 BYTE   W03
 BYTE   N02  Fs1  v004
 BYTE   W09
//  #08 //027   ----------------------------------------
 BYTE   N24  Cs2  v048
 BYTE   W18
 BYTE   N06  Cn1  v080
 BYTE   N17  Gn1  v092
 BYTE   W18
 BYTE   N06  Cn1  v080
 BYTE   N11  An1  v092
 BYTE   W12
 BYTE   N05  Cn1  v100
 BYTE   W06
 BYTE   N11  Bn1  v127
 BYTE   W12
 BYTE   N03  Dn1
 BYTE   N17  En2  v048
 BYTE   W18
 BYTE   N02  Cn1  v100
 BYTE   N02  Cn2  v127
 BYTE   W03
 BYTE   An1  v088
 BYTE   W03
 BYTE   Gn1  v127
 BYTE   W03
 BYTE   Fn1  v092
 BYTE   W03
//  #08 //028   ----------------------------------------
 BYTE   GoTo
  POIN2 Label_0100BB2A
 BYTE   FINE

//******************************************************//
	ALIGN 4

FE11TroubleAzula:
	BYTE	8	// NumTrks
	BYTE	0	// NumBlks
	BYTE	FE11TroubleAzula_pri	// Priority
	BYTE	FE11TroubleAzula_rev	// Reverb.
    
	POIN2	FE11TroubleAzula_grp
    
	POIN2	FE11TroubleAzula_001
	POIN2	FE11TroubleAzula_002
	POIN2	FE11TroubleAzula_003
	POIN2	FE11TroubleAzula_004
	POIN2	FE11TroubleAzula_005
	POIN2	FE11TroubleAzula_006
	POIN2	FE11TroubleAzula_007
	POIN2	FE11TroubleAzula_008

	
