//Event file generated from Sappy .s format.
	#include "MPlayDef.event"

	#define	FE11MedeusBattleMeteorSR23_grp  voicegroup000
	#define	FE11MedeusBattleMeteorSR23_pri  0
	#define	FE11MedeusBattleMeteorSR23_rev  0
	#define	FE11MedeusBattleMeteorSR23_mvl  127
	#define	FE11MedeusBattleMeteorSR23_key  0
	#define	FE11MedeusBattleMeteorSR23_tbs  1
	#define	FE11MedeusBattleMeteorSR23_exg  0
	#define	FE11MedeusBattleMeteorSR23_cmp  1

	// .rodata
	//	FE11MedeusBattleMeteorSR23
	ALIGN 4


//**************** Track 1 (Midi-Chn.0) ****************//

FE11MedeusBattleMeteorSR23_001:
//  #01 //000   ----------------------------------------
 BYTE   KEYSH   FE11MedeusBattleMeteorSR23_key+0
 BYTE   TEMPO   200*FE11MedeusBattleMeteorSR23_tbs/2
 BYTE   VOICE   49
 BYTE   W24
 BYTE   BENDR  6
 BYTE   PAN   c_v+10
 BYTE   VOL   64*FE11MedeusBattleMeteorSR23_mvl/mxv
 BYTE   N07  Gs2  v075
 BYTE   W08
 BYTE   Bn2  v065
 BYTE   W08
 BYTE   Cn3  v061
 BYTE   W08
 BYTE   N68  Fn3  v088  gtp3
 BYTE   W03
 BYTE   VOL   57*FE11MedeusBattleMeteorSR23_mvl/mxv
 BYTE   W01
 BYTE   VOL   53*FE11MedeusBattleMeteorSR23_mvl/mxv
 BYTE   W01
 BYTE   VOL   49*FE11MedeusBattleMeteorSR23_mvl/mxv
 BYTE   W01
 BYTE   VOL   42*FE11MedeusBattleMeteorSR23_mvl/mxv
 BYTE   W01
 BYTE   VOL   37*FE11MedeusBattleMeteorSR23_mvl/mxv
 BYTE   W01
 BYTE   VOL   31*FE11MedeusBattleMeteorSR23_mvl/mxv
 BYTE   W03
 BYTE   VOL   32*FE11MedeusBattleMeteorSR23_mvl/mxv
 BYTE   W03
 BYTE   VOL   33*FE11MedeusBattleMeteorSR23_mvl/mxv
 BYTE   W03
 BYTE   VOL   34*FE11MedeusBattleMeteorSR23_mvl/mxv
 BYTE   W03
 BYTE   VOL   35*FE11MedeusBattleMeteorSR23_mvl/mxv
 BYTE   W03
 BYTE   VOL   36*FE11MedeusBattleMeteorSR23_mvl/mxv
 BYTE   W01
 BYTE   TEMPO   160*FE11MedeusBattleMeteorSR23_tbs/2
 BYTE   W02
 BYTE   VOL   37*FE11MedeusBattleMeteorSR23_mvl/mxv
 BYTE   W03
 BYTE   VOL   38*FE11MedeusBattleMeteorSR23_mvl/mxv
 BYTE   W03
 BYTE   VOL   40*FE11MedeusBattleMeteorSR23_mvl/mxv
 BYTE   W03
 BYTE   VOL   41*FE11MedeusBattleMeteorSR23_mvl/mxv
 BYTE   W03
 BYTE   VOL   43*FE11MedeusBattleMeteorSR23_mvl/mxv
 BYTE   W03
 BYTE   VOL   44*FE11MedeusBattleMeteorSR23_mvl/mxv
 BYTE   W03
 BYTE   VOL   46*FE11MedeusBattleMeteorSR23_mvl/mxv
 BYTE   W03
 BYTE   VOL   48*FE11MedeusBattleMeteorSR23_mvl/mxv
 BYTE   W01
//  #01 //001   ----------------------------------------
 BYTE   W02
 BYTE   VOL   50*FE11MedeusBattleMeteorSR23_mvl/mxv
 BYTE   W03
 BYTE   VOL   52*FE11MedeusBattleMeteorSR23_mvl/mxv
 BYTE   W03
 BYTE   VOL   54*FE11MedeusBattleMeteorSR23_mvl/mxv
 BYTE   W03
 BYTE   VOL   57*FE11MedeusBattleMeteorSR23_mvl/mxv
 BYTE   W03
 BYTE   VOL   60*FE11MedeusBattleMeteorSR23_mvl/mxv
 BYTE   W03
 BYTE   VOL   63*FE11MedeusBattleMeteorSR23_mvl/mxv
 BYTE   W01
 BYTE   VOL   64*FE11MedeusBattleMeteorSR23_mvl/mxv
 BYTE   W06
 BYTE   TEMPO   94*FE11MedeusBattleMeteorSR23_tbs/2
 BYTE   N92  Fs3  v095  gtp3
 BYTE   W05
 BYTE   VOL   52*FE11MedeusBattleMeteorSR23_mvl/mxv
 BYTE   W01
 BYTE   VOL   40*FE11MedeusBattleMeteorSR23_mvl/mxv
 BYTE   W01
 BYTE   VOL   15*FE11MedeusBattleMeteorSR23_mvl/mxv
 BYTE   W01
 BYTE   VOL   0*FE11MedeusBattleMeteorSR23_mvl/mxv
 BYTE   W03
 BYTE   VOL   0*FE11MedeusBattleMeteorSR23_mvl/mxv
 BYTE   W06
 BYTE   VOL   1*FE11MedeusBattleMeteorSR23_mvl/mxv
 BYTE   W02
 BYTE   VOL   2*FE11MedeusBattleMeteorSR23_mvl/mxv
 BYTE   W03
 BYTE   VOL   3*FE11MedeusBattleMeteorSR23_mvl/mxv
 BYTE   W04
 BYTE   VOL   4*FE11MedeusBattleMeteorSR23_mvl/mxv
 BYTE   W02
 BYTE   VOL   5*FE11MedeusBattleMeteorSR23_mvl/mxv
 BYTE   W01
 BYTE   VOL   6*FE11MedeusBattleMeteorSR23_mvl/mxv
 BYTE   W05
 BYTE   VOL   7*FE11MedeusBattleMeteorSR23_mvl/mxv
 BYTE   W01
 BYTE   VOL   8*FE11MedeusBattleMeteorSR23_mvl/mxv
 BYTE   W03
 BYTE   VOL   9*FE11MedeusBattleMeteorSR23_mvl/mxv
 BYTE   W02
 BYTE   VOL   10*FE11MedeusBattleMeteorSR23_mvl/mxv
 BYTE   W01
 BYTE   VOL   11*FE11MedeusBattleMeteorSR23_mvl/mxv
 BYTE   W03
 BYTE   VOL   12*FE11MedeusBattleMeteorSR23_mvl/mxv
 BYTE   W02
 BYTE   VOL   13*FE11MedeusBattleMeteorSR23_mvl/mxv
 BYTE   W01
 BYTE   VOL   14*FE11MedeusBattleMeteorSR23_mvl/mxv
 BYTE   W02
 BYTE   VOL   15*FE11MedeusBattleMeteorSR23_mvl/mxv
 BYTE   W01
 BYTE   VOL   16*FE11MedeusBattleMeteorSR23_mvl/mxv
 BYTE   W02
 BYTE   VOL   17*FE11MedeusBattleMeteorSR23_mvl/mxv
 BYTE   W01
 BYTE   VOL   18*FE11MedeusBattleMeteorSR23_mvl/mxv
 BYTE   W02
 BYTE   VOL   19*FE11MedeusBattleMeteorSR23_mvl/mxv
 BYTE   W01
 BYTE   VOL   20*FE11MedeusBattleMeteorSR23_mvl/mxv
 BYTE   W02
 BYTE   VOL   21*FE11MedeusBattleMeteorSR23_mvl/mxv
 BYTE   W01
 BYTE   VOL   23*FE11MedeusBattleMeteorSR23_mvl/mxv
 BYTE   W02
 BYTE   VOL   24*FE11MedeusBattleMeteorSR23_mvl/mxv
 BYTE   W01
 BYTE   VOL   26*FE11MedeusBattleMeteorSR23_mvl/mxv
 BYTE   W02
 BYTE   VOL   27*FE11MedeusBattleMeteorSR23_mvl/mxv
 BYTE   W01
 BYTE   VOL   28*FE11MedeusBattleMeteorSR23_mvl/mxv
 BYTE   W02
 BYTE   VOL   30*FE11MedeusBattleMeteorSR23_mvl/mxv
 BYTE   W01
 BYTE   VOL   31*FE11MedeusBattleMeteorSR23_mvl/mxv
 BYTE   W02
 BYTE   VOL   34*FE11MedeusBattleMeteorSR23_mvl/mxv
 BYTE   W01
 BYTE   VOL   35*FE11MedeusBattleMeteorSR23_mvl/mxv
 BYTE   W01
//  #01 //002   ----------------------------------------
 BYTE   W01
 BYTE   VOL   37*FE11MedeusBattleMeteorSR23_mvl/mxv
 BYTE   W01
 BYTE   VOL   40*FE11MedeusBattleMeteorSR23_mvl/mxv
 BYTE   W02
 BYTE   VOL   42*FE11MedeusBattleMeteorSR23_mvl/mxv
 BYTE   W01
 BYTE   VOL   45*FE11MedeusBattleMeteorSR23_mvl/mxv
 BYTE   W02
 BYTE   VOL   47*FE11MedeusBattleMeteorSR23_mvl/mxv
 BYTE   W01
 BYTE   VOL   50*FE11MedeusBattleMeteorSR23_mvl/mxv
 BYTE   W02
 BYTE   VOL   53*FE11MedeusBattleMeteorSR23_mvl/mxv
 BYTE   W01
 BYTE   VOL   57*FE11MedeusBattleMeteorSR23_mvl/mxv
 BYTE   W02
 BYTE   VOL   60*FE11MedeusBattleMeteorSR23_mvl/mxv
 BYTE   W01
 BYTE   VOL   64*FE11MedeusBattleMeteorSR23_mvl/mxv
 BYTE   W10
 BYTE   TEMPO   138*FE11MedeusBattleMeteorSR23_tbs/2
 BYTE   N92  Cn4  v075  gtp3
 BYTE   W72
//  #01 //003   ----------------------------------------
 BYTE   W24
 BYTE   Bn3  v078
 BYTE   W72
//  #01 //004   ----------------------------------------
Label_010022C7:
 BYTE   W24
 BYTE   N92  Gn3  v082  gtp3
 BYTE   W72
 BYTE   PEND 
//  #01 //005   ----------------------------------------
Label_010022CE:
 BYTE   W24
 BYTE   N92  Cn3  v085  gtp3
 BYTE   W72
 BYTE   PEND 
//  #01 //006   ----------------------------------------
 BYTE   W24
 BYTE   Ds3  v079
 BYTE   W05
 BYTE   VOL   61*FE11MedeusBattleMeteorSR23_mvl/mxv
 BYTE   W02
 BYTE   VOL   58*FE11MedeusBattleMeteorSR23_mvl/mxv
 BYTE   W01
 BYTE   VOL   55*FE11MedeusBattleMeteorSR23_mvl/mxv
 BYTE   W02
 BYTE   VOL   51*FE11MedeusBattleMeteorSR23_mvl/mxv
 BYTE   W01
 BYTE   VOL   48*FE11MedeusBattleMeteorSR23_mvl/mxv
 BYTE   W02
 BYTE   VOL   45*FE11MedeusBattleMeteorSR23_mvl/mxv
 BYTE   W01
 BYTE   VOL   42*FE11MedeusBattleMeteorSR23_mvl/mxv
 BYTE   W17
 BYTE   VOL   43*FE11MedeusBattleMeteorSR23_mvl/mxv
 BYTE   W17
 BYTE   VOL   44*FE11MedeusBattleMeteorSR23_mvl/mxv
 BYTE   W12
 BYTE   VOL   45*FE11MedeusBattleMeteorSR23_mvl/mxv
 BYTE   W12
//  #01 //007   ----------------------------------------
 BYTE   W04
 BYTE   VOL   46*FE11MedeusBattleMeteorSR23_mvl/mxv
 BYTE   W12
 BYTE   VOL   47*FE11MedeusBattleMeteorSR23_mvl/mxv
 BYTE   W05
 BYTE   VOL   48*FE11MedeusBattleMeteorSR23_mvl/mxv
 BYTE   W03
 BYTE   N92  En3  v078  gtp3
 BYTE   W09
 BYTE   VOL   49*FE11MedeusBattleMeteorSR23_mvl/mxv
 BYTE   W05
 BYTE   VOL   50*FE11MedeusBattleMeteorSR23_mvl/mxv
 BYTE   W06
 BYTE   VOL   51*FE11MedeusBattleMeteorSR23_mvl/mxv
 BYTE   W11
 BYTE   VOL   52*FE11MedeusBattleMeteorSR23_mvl/mxv
 BYTE   W06
 BYTE   VOL   53*FE11MedeusBattleMeteorSR23_mvl/mxv
 BYTE   W06
 BYTE   VOL   54*FE11MedeusBattleMeteorSR23_mvl/mxv
 BYTE   W11
 BYTE   VOL   56*FE11MedeusBattleMeteorSR23_mvl/mxv
 BYTE   W06
 BYTE   VOL   57*FE11MedeusBattleMeteorSR23_mvl/mxv
 BYTE   W05
 BYTE   VOL   58*FE11MedeusBattleMeteorSR23_mvl/mxv
 BYTE   W06
 BYTE   VOL   59*FE11MedeusBattleMeteorSR23_mvl/mxv
 BYTE   W01
//  #01 //008   ----------------------------------------
 BYTE   W05
 BYTE   VOL   60*FE11MedeusBattleMeteorSR23_mvl/mxv
 BYTE   W05
 BYTE   VOL   62*FE11MedeusBattleMeteorSR23_mvl/mxv
 BYTE   W06
 BYTE   VOL   64*FE11MedeusBattleMeteorSR23_mvl/mxv
 BYTE   W08
Label_01002316:
 BYTE   N44  Cn3  v088  gtp3
 BYTE   W48
 BYTE   N68  An2  v080  gtp3
 BYTE   W24
//  #01 //009   ----------------------------------------
 BYTE   W48
 BYTE   N23  Fs2  v081
 BYTE   W24
 BYTE   An2  v070
 BYTE   W24
//  #01 //010   ----------------------------------------
 BYTE   Cn3  v086
 BYTE   W24
 BYTE   N44  Ds3  v077  gtp3
 BYTE   W48
 BYTE   Fs3
 BYTE   W24
//  #01 //011   ----------------------------------------
 BYTE   W24
 BYTE   An3  v068
 BYTE   W48
 BYTE   Ds4  v063
 BYTE   W24
//  #01 //012   ----------------------------------------
 BYTE   W24
 BYTE   N90  En4  v076
 BYTE   W04
 BYTE   VOL   59*FE11MedeusBattleMeteorSR23_mvl/mxv
 BYTE   W01
 BYTE   VOL   48*FE11MedeusBattleMeteorSR23_mvl/mxv
 BYTE   W01
 BYTE   VOL   42*FE11MedeusBattleMeteorSR23_mvl/mxv
 BYTE   W01
 BYTE   VOL   36*FE11MedeusBattleMeteorSR23_mvl/mxv
 BYTE   W01
 BYTE   VOL   25*FE11MedeusBattleMeteorSR23_mvl/mxv
 BYTE   W01
 BYTE   VOL   20*FE11MedeusBattleMeteorSR23_mvl/mxv
 BYTE   W01
 BYTE   VOL   10*FE11MedeusBattleMeteorSR23_mvl/mxv
 BYTE   W03
 BYTE   VOL   11*FE11MedeusBattleMeteorSR23_mvl/mxv
 BYTE   W06
 BYTE   VOL   12*FE11MedeusBattleMeteorSR23_mvl/mxv
 BYTE   W03
 BYTE   VOL   14*FE11MedeusBattleMeteorSR23_mvl/mxv
 BYTE   W06
 BYTE   VOL   16*FE11MedeusBattleMeteorSR23_mvl/mxv
 BYTE   W03
 BYTE   VOL   17*FE11MedeusBattleMeteorSR23_mvl/mxv
 BYTE   W03
 BYTE   VOL   18*FE11MedeusBattleMeteorSR23_mvl/mxv
 BYTE   W03
 BYTE   VOL   20*FE11MedeusBattleMeteorSR23_mvl/mxv
 BYTE   W06
 BYTE   VOL   22*FE11MedeusBattleMeteorSR23_mvl/mxv
 BYTE   W03
 BYTE   VOL   24*FE11MedeusBattleMeteorSR23_mvl/mxv
 BYTE   W03
 BYTE   VOL   26*FE11MedeusBattleMeteorSR23_mvl/mxv
 BYTE   W03
 BYTE   VOL   27*FE11MedeusBattleMeteorSR23_mvl/mxv
 BYTE   W03
 BYTE   VOL   29*FE11MedeusBattleMeteorSR23_mvl/mxv
 BYTE   W03
 BYTE   VOL   31*FE11MedeusBattleMeteorSR23_mvl/mxv
 BYTE   W03
 BYTE   VOL   33*FE11MedeusBattleMeteorSR23_mvl/mxv
 BYTE   W03
 BYTE   VOL   35*FE11MedeusBattleMeteorSR23_mvl/mxv
 BYTE   W03
 BYTE   VOL   38*FE11MedeusBattleMeteorSR23_mvl/mxv
 BYTE   W03
 BYTE   VOL   40*FE11MedeusBattleMeteorSR23_mvl/mxv
 BYTE   W02
//  #01 //013   ----------------------------------------
 BYTE   W01
 BYTE   VOL   43*FE11MedeusBattleMeteorSR23_mvl/mxv
 BYTE   W03
 BYTE   VOL   47*FE11MedeusBattleMeteorSR23_mvl/mxv
 BYTE   W03
 BYTE   VOL   50*FE11MedeusBattleMeteorSR23_mvl/mxv
 BYTE   W03
 BYTE   VOL   54*FE11MedeusBattleMeteorSR23_mvl/mxv
 BYTE   W03
 BYTE   VOL   58*FE11MedeusBattleMeteorSR23_mvl/mxv
 BYTE   W03
 BYTE   VOL   63*FE11MedeusBattleMeteorSR23_mvl/mxv
 BYTE   W01
 BYTE   VOL   64*FE11MedeusBattleMeteorSR23_mvl/mxv
 BYTE   W78
 BYTE   W01
//  #01 //014   ----------------------------------------
 BYTE   W96
//  #01 //015   ----------------------------------------
 BYTE   W24
 BYTE   N92  Cn3  v098  gtp3
 BYTE   W12
 BYTE   VOL   63*FE11MedeusBattleMeteorSR23_mvl/mxv
 BYTE   W09
 BYTE   VOL   62*FE11MedeusBattleMeteorSR23_mvl/mxv
 BYTE   W06
 BYTE   VOL   61*FE11MedeusBattleMeteorSR23_mvl/mxv
 BYTE   W03
 BYTE   VOL   60*FE11MedeusBattleMeteorSR23_mvl/mxv
 BYTE   W06
 BYTE   VOL   59*FE11MedeusBattleMeteorSR23_mvl/mxv
 BYTE   W03
 BYTE   VOL   58*FE11MedeusBattleMeteorSR23_mvl/mxv
 BYTE   W03
 BYTE   VOL   57*FE11MedeusBattleMeteorSR23_mvl/mxv
 BYTE   W06
 BYTE   VOL   56*FE11MedeusBattleMeteorSR23_mvl/mxv
 BYTE   W03
 BYTE   VOL   55*FE11MedeusBattleMeteorSR23_mvl/mxv
 BYTE   W03
 BYTE   VOL   54*FE11MedeusBattleMeteorSR23_mvl/mxv
 BYTE   W03
 BYTE   VOL   53*FE11MedeusBattleMeteorSR23_mvl/mxv
 BYTE   W03
 BYTE   VOL   51*FE11MedeusBattleMeteorSR23_mvl/mxv
 BYTE   W06
 BYTE   VOL   49*FE11MedeusBattleMeteorSR23_mvl/mxv
 BYTE   W03
 BYTE   VOL   48*FE11MedeusBattleMeteorSR23_mvl/mxv
 BYTE   W03
//  #01 //016   ----------------------------------------
 BYTE   VOL   46*FE11MedeusBattleMeteorSR23_mvl/mxv
 BYTE   W03
 BYTE   VOL   45*FE11MedeusBattleMeteorSR23_mvl/mxv
 BYTE   W03
 BYTE   VOL   43*FE11MedeusBattleMeteorSR23_mvl/mxv
 BYTE   W03
 BYTE   VOL   41*FE11MedeusBattleMeteorSR23_mvl/mxv
 BYTE   W03
 BYTE   VOL   39*FE11MedeusBattleMeteorSR23_mvl/mxv
 BYTE   W03
 BYTE   VOL   37*FE11MedeusBattleMeteorSR23_mvl/mxv
 BYTE   W03
 BYTE   VOL   34*FE11MedeusBattleMeteorSR23_mvl/mxv
 BYTE   W03
 BYTE   VOL   31*FE11MedeusBattleMeteorSR23_mvl/mxv
 BYTE   W01
 BYTE   VOL   28*FE11MedeusBattleMeteorSR23_mvl/mxv
 BYTE   W02
 BYTE   N92  Bn2  v098  gtp3
 BYTE   W04
 BYTE   VOL   29*FE11MedeusBattleMeteorSR23_mvl/mxv
 BYTE   W06
 BYTE   VOL   30*FE11MedeusBattleMeteorSR23_mvl/mxv
 BYTE   W06
 BYTE   VOL   31*FE11MedeusBattleMeteorSR23_mvl/mxv
 BYTE   W09
 BYTE   VOL   32*FE11MedeusBattleMeteorSR23_mvl/mxv
 BYTE   W03
 BYTE   VOL   33*FE11MedeusBattleMeteorSR23_mvl/mxv
 BYTE   W03
 BYTE   VOL   34*FE11MedeusBattleMeteorSR23_mvl/mxv
 BYTE   W09
 BYTE   VOL   35*FE11MedeusBattleMeteorSR23_mvl/mxv
 BYTE   W03
 BYTE   VOL   36*FE11MedeusBattleMeteorSR23_mvl/mxv
 BYTE   W03
 BYTE   VOL   37*FE11MedeusBattleMeteorSR23_mvl/mxv
 BYTE   W02
 BYTE   N44  Ds3  v098  gtp3
 BYTE   W01
 BYTE   VOL   38*FE11MedeusBattleMeteorSR23_mvl/mxv
 BYTE   W03
 BYTE   VOL   39*FE11MedeusBattleMeteorSR23_mvl/mxv
 BYTE   W03
 BYTE   VOL   40*FE11MedeusBattleMeteorSR23_mvl/mxv
 BYTE   W06
 BYTE   VOL   42*FE11MedeusBattleMeteorSR23_mvl/mxv
 BYTE   W03
 BYTE   VOL   43*FE11MedeusBattleMeteorSR23_mvl/mxv
 BYTE   W03
 BYTE   VOL   44*FE11MedeusBattleMeteorSR23_mvl/mxv
 BYTE   W03
 BYTE   VOL   45*FE11MedeusBattleMeteorSR23_mvl/mxv
 BYTE   W02
//  #01 //017   ----------------------------------------
 BYTE   W01
 BYTE   VOL   47*FE11MedeusBattleMeteorSR23_mvl/mxv
 BYTE   W03
 BYTE   VOL   48*FE11MedeusBattleMeteorSR23_mvl/mxv
 BYTE   W03
 BYTE   VOL   51*FE11MedeusBattleMeteorSR23_mvl/mxv
 BYTE   W03
 BYTE   VOL   53*FE11MedeusBattleMeteorSR23_mvl/mxv
 BYTE   W03
 BYTE   VOL   55*FE11MedeusBattleMeteorSR23_mvl/mxv
 BYTE   W03
 BYTE   VOL   57*FE11MedeusBattleMeteorSR23_mvl/mxv
 BYTE   W03
 BYTE   VOL   60*FE11MedeusBattleMeteorSR23_mvl/mxv
 BYTE   W03
 BYTE   VOL   63*FE11MedeusBattleMeteorSR23_mvl/mxv
 BYTE   W01
 BYTE   VOL   64*FE11MedeusBattleMeteorSR23_mvl/mxv
 BYTE   W01
 BYTE   N96  Bn2  v081
 BYTE   N96  Ds3
 BYTE   N96  Gn3  v098
 BYTE   W11
 BYTE   VOL   60*FE11MedeusBattleMeteorSR23_mvl/mxv
 BYTE   W02
 BYTE   VOL   56*FE11MedeusBattleMeteorSR23_mvl/mxv
 BYTE   W01
 BYTE   VOL   52*FE11MedeusBattleMeteorSR23_mvl/mxv
 BYTE   W02
 BYTE   VOL   48*FE11MedeusBattleMeteorSR23_mvl/mxv
 BYTE   W01
 BYTE   VOL   43*FE11MedeusBattleMeteorSR23_mvl/mxv
 BYTE   W02
 BYTE   VOL   40*FE11MedeusBattleMeteorSR23_mvl/mxv
 BYTE   W01
 BYTE   VOL   35*FE11MedeusBattleMeteorSR23_mvl/mxv
 BYTE   W02
 BYTE   VOL   31*FE11MedeusBattleMeteorSR23_mvl/mxv
 BYTE   W01
 BYTE   VOL   27*FE11MedeusBattleMeteorSR23_mvl/mxv
 BYTE   W02
 BYTE   VOL   23*FE11MedeusBattleMeteorSR23_mvl/mxv
 BYTE   W01
 BYTE   VOL   19*FE11MedeusBattleMeteorSR23_mvl/mxv
 BYTE   W01
 BYTE   VOL   17*FE11MedeusBattleMeteorSR23_mvl/mxv
 BYTE   W06
 BYTE   VOL   18*FE11MedeusBattleMeteorSR23_mvl/mxv
 BYTE   W06
 BYTE   VOL   19*FE11MedeusBattleMeteorSR23_mvl/mxv
 BYTE   W06
 BYTE   VOL   20*FE11MedeusBattleMeteorSR23_mvl/mxv
 BYTE   W06
 BYTE   VOL   21*FE11MedeusBattleMeteorSR23_mvl/mxv
 BYTE   W03
 BYTE   VOL   22*FE11MedeusBattleMeteorSR23_mvl/mxv
 BYTE   W03
 BYTE   VOL   23*FE11MedeusBattleMeteorSR23_mvl/mxv
 BYTE   W06
 BYTE   VOL   24*FE11MedeusBattleMeteorSR23_mvl/mxv
 BYTE   W03
 BYTE   VOL   25*FE11MedeusBattleMeteorSR23_mvl/mxv
 BYTE   W03
 BYTE   VOL   26*FE11MedeusBattleMeteorSR23_mvl/mxv
 BYTE   W03
//  #01 //018   ----------------------------------------
 BYTE   VOL   27*FE11MedeusBattleMeteorSR23_mvl/mxv
 BYTE   W03
 BYTE   VOL   28*FE11MedeusBattleMeteorSR23_mvl/mxv
 BYTE   W03
 BYTE   VOL   30*FE11MedeusBattleMeteorSR23_mvl/mxv
 BYTE   W03
 BYTE   VOL   31*FE11MedeusBattleMeteorSR23_mvl/mxv
 BYTE   W03
 BYTE   VOL   34*FE11MedeusBattleMeteorSR23_mvl/mxv
 BYTE   W03
 BYTE   VOL   36*FE11MedeusBattleMeteorSR23_mvl/mxv
 BYTE   W03
 BYTE   VOL   38*FE11MedeusBattleMeteorSR23_mvl/mxv
 BYTE   W03
 BYTE   VOL   41*FE11MedeusBattleMeteorSR23_mvl/mxv
 BYTE   W03
 BYTE   VOL   45*FE11MedeusBattleMeteorSR23_mvl/mxv
 BYTE   TIE  As2  v081
 BYTE   TIE  Dn3
 BYTE   TIE  Fs3  v098
 BYTE   W08
 BYTE   VOL   43*FE11MedeusBattleMeteorSR23_mvl/mxv
 BYTE   W01
 BYTE   VOL   40*FE11MedeusBattleMeteorSR23_mvl/mxv
 BYTE   W01
 BYTE   VOL   36*FE11MedeusBattleMeteorSR23_mvl/mxv
 BYTE   W01
 BYTE   VOL   29*FE11MedeusBattleMeteorSR23_mvl/mxv
 BYTE   W01
 BYTE   VOL   26*FE11MedeusBattleMeteorSR23_mvl/mxv
 BYTE   W01
 BYTE   VOL   23*FE11MedeusBattleMeteorSR23_mvl/mxv
 BYTE   W01
 BYTE   VOL   17*FE11MedeusBattleMeteorSR23_mvl/mxv
 BYTE   W56
 BYTE   W02
//  #01 //019   ----------------------------------------
 BYTE   W30
 BYTE   BEND   c_v+1
 BYTE   W03
 BYTE   BEND   c_v+2
 BYTE   W03
 BYTE   BEND   c_v+3
 BYTE   W03
 BYTE   BEND   c_v+5
 BYTE   VOL   18*FE11MedeusBattleMeteorSR23_mvl/mxv
 BYTE   W03
 BYTE   BEND   c_v+6
 BYTE   VOL   19*FE11MedeusBattleMeteorSR23_mvl/mxv
 BYTE   W03
 BYTE   BEND   c_v+7
 BYTE   VOL   20*FE11MedeusBattleMeteorSR23_mvl/mxv
 BYTE   W03
 BYTE   BEND   c_v+8
 BYTE   W03
 BYTE   BEND   c_v+9
 BYTE   VOL   21*FE11MedeusBattleMeteorSR23_mvl/mxv
 BYTE   W03
 BYTE   BEND   c_v+11
 BYTE   VOL   22*FE11MedeusBattleMeteorSR23_mvl/mxv
 BYTE   W03
 BYTE   BEND   c_v+12
 BYTE   VOL   23*FE11MedeusBattleMeteorSR23_mvl/mxv
 BYTE   W03
 BYTE   BEND   c_v+13
 BYTE   W03
 BYTE   BEND   c_v+15
 BYTE   VOL   25*FE11MedeusBattleMeteorSR23_mvl/mxv
 BYTE   W03
 BYTE   BEND   c_v+17
 BYTE   VOL   26*FE11MedeusBattleMeteorSR23_mvl/mxv
 BYTE   W03
 BYTE   BEND   c_v+18
 BYTE   VOL   27*FE11MedeusBattleMeteorSR23_mvl/mxv
 BYTE   W03
 BYTE   BEND   c_v+20
 BYTE   VOL   28*FE11MedeusBattleMeteorSR23_mvl/mxv
 BYTE   W03
 BYTE   BEND   c_v+22
 BYTE   VOL   29*FE11MedeusBattleMeteorSR23_mvl/mxv
 BYTE   W03
 BYTE   BEND   c_v+24
 BYTE   VOL   31*FE11MedeusBattleMeteorSR23_mvl/mxv
 BYTE   W03
 BYTE   BEND   c_v+26
 BYTE   VOL   33*FE11MedeusBattleMeteorSR23_mvl/mxv
 BYTE   W03
 BYTE   EOT
 BYTE   Dn3
 BYTE   BEND   c_v+28
 BYTE   VOL   34*FE11MedeusBattleMeteorSR23_mvl/mxv
 BYTE   W03
 BYTE   BEND   c_v+30
 BYTE   VOL   37*FE11MedeusBattleMeteorSR23_mvl/mxv
 BYTE   W03
 BYTE   BEND   c_v+32
 BYTE   VOL   38*FE11MedeusBattleMeteorSR23_mvl/mxv
 BYTE   W03
 BYTE   BEND   c_v+35
 BYTE   VOL   41*FE11MedeusBattleMeteorSR23_mvl/mxv
 BYTE   W03
//  #01 //020   ----------------------------------------
 BYTE   BEND   c_v+37
 BYTE   VOL   43*FE11MedeusBattleMeteorSR23_mvl/mxv
 BYTE   W03
 BYTE   BEND   c_v+40
 BYTE   VOL   46*FE11MedeusBattleMeteorSR23_mvl/mxv
 BYTE   W03
 BYTE   BEND   c_v+43
 BYTE   VOL   50*FE11MedeusBattleMeteorSR23_mvl/mxv
 BYTE   W03
 BYTE   BEND   c_v+46
 BYTE   VOL   54*FE11MedeusBattleMeteorSR23_mvl/mxv
 BYTE   W03
 BYTE   BEND   c_v+50
 BYTE   VOL   58*FE11MedeusBattleMeteorSR23_mvl/mxv
 BYTE   W03
 BYTE   BEND   c_v+53
 BYTE   VOL   64*FE11MedeusBattleMeteorSR23_mvl/mxv
 BYTE   W03
 BYTE   BEND   c_v+57
 BYTE   W03
 BYTE   BEND   c_v+63
 BYTE   W02
 BYTE   EOT
 BYTE   As2  v066
 BYTE   W01
 BYTE   BEND   c_v+0
 BYTE   N92  Cn4  v072  gtp3
 BYTE   W72
//  #01 //021   ----------------------------------------
 BYTE   W24
 BYTE   Bn3  v077
 BYTE   W72
//  #01 //022   ----------------------------------------
 BYTE   PATT
  POIN2 Label_010022C7
//  #01 //023   ----------------------------------------
 BYTE   PATT
  POIN2 Label_010022CE
//  #01 //024   ----------------------------------------
 BYTE   W24
 BYTE   N92  Ds3  v079  gtp3
 BYTE   W72
//  #01 //025   ----------------------------------------
 BYTE   W24
 BYTE   En3  v078
 BYTE   W72
//  #01 //026   ----------------------------------------
 BYTE   W24
 BYTE   GoTo
  POIN2 Label_01002316
//  #01 //027   ----------------------------------------
 BYTE   W05
 BYTE   FINE

//**************** Track 2 (Midi-Chn.1) ****************//

FE11MedeusBattleMeteorSR23_002:
//  #02 //000   ----------------------------------------
 BYTE   KEYSH   FE11MedeusBattleMeteorSR23_key+0
 BYTE   VOICE   49
 BYTE   W24
 BYTE   BENDR  6
 BYTE   PAN   c_v+29
 BYTE   VOL   70*FE11MedeusBattleMeteorSR23_mvl/mxv
 BYTE   N07  Gs1  v075
 BYTE   W08
 BYTE   Bn1  v065
 BYTE   W08
 BYTE   Cn2  v061
 BYTE   W08
 BYTE   N68  Fn2  v088  gtp3
 BYTE   W03
 BYTE   VOL   62*FE11MedeusBattleMeteorSR23_mvl/mxv
 BYTE   W01
 BYTE   VOL   58*FE11MedeusBattleMeteorSR23_mvl/mxv
 BYTE   W01
 BYTE   VOL   54*FE11MedeusBattleMeteorSR23_mvl/mxv
 BYTE   W01
 BYTE   VOL   46*FE11MedeusBattleMeteorSR23_mvl/mxv
 BYTE   W01
 BYTE   VOL   42*FE11MedeusBattleMeteorSR23_mvl/mxv
 BYTE   W01
 BYTE   VOL   35*FE11MedeusBattleMeteorSR23_mvl/mxv
 BYTE   W03
 BYTE   VOL   36*FE11MedeusBattleMeteorSR23_mvl/mxv
 BYTE   W03
 BYTE   VOL   37*FE11MedeusBattleMeteorSR23_mvl/mxv
 BYTE   W03
 BYTE   VOL   38*FE11MedeusBattleMeteorSR23_mvl/mxv
 BYTE   W03
 BYTE   VOL   39*FE11MedeusBattleMeteorSR23_mvl/mxv
 BYTE   W03
 BYTE   VOL   40*FE11MedeusBattleMeteorSR23_mvl/mxv
 BYTE   W03
 BYTE   VOL   42*FE11MedeusBattleMeteorSR23_mvl/mxv
 BYTE   W06
 BYTE   VOL   44*FE11MedeusBattleMeteorSR23_mvl/mxv
 BYTE   W03
 BYTE   VOL   46*FE11MedeusBattleMeteorSR23_mvl/mxv
 BYTE   W03
 BYTE   VOL   47*FE11MedeusBattleMeteorSR23_mvl/mxv
 BYTE   W03
 BYTE   VOL   49*FE11MedeusBattleMeteorSR23_mvl/mxv
 BYTE   W03
 BYTE   VOL   51*FE11MedeusBattleMeteorSR23_mvl/mxv
 BYTE   W03
 BYTE   VOL   53*FE11MedeusBattleMeteorSR23_mvl/mxv
 BYTE   W01
//  #02 //001   ----------------------------------------
 BYTE   W02
 BYTE   VOL   55*FE11MedeusBattleMeteorSR23_mvl/mxv
 BYTE   W03
 BYTE   VOL   57*FE11MedeusBattleMeteorSR23_mvl/mxv
 BYTE   W03
 BYTE   VOL   60*FE11MedeusBattleMeteorSR23_mvl/mxv
 BYTE   W03
 BYTE   VOL   63*FE11MedeusBattleMeteorSR23_mvl/mxv
 BYTE   W03
 BYTE   VOL   66*FE11MedeusBattleMeteorSR23_mvl/mxv
 BYTE   W03
 BYTE   VOL   69*FE11MedeusBattleMeteorSR23_mvl/mxv
 BYTE   W01
 BYTE   VOL   70*FE11MedeusBattleMeteorSR23_mvl/mxv
 BYTE   W06
 BYTE   N92  Fs2  v095  gtp3
 BYTE   W05
 BYTE   VOL   57*FE11MedeusBattleMeteorSR23_mvl/mxv
 BYTE   W01
 BYTE   VOL   44*FE11MedeusBattleMeteorSR23_mvl/mxv
 BYTE   W01
 BYTE   VOL   18*FE11MedeusBattleMeteorSR23_mvl/mxv
 BYTE   W01
 BYTE   VOL   1*FE11MedeusBattleMeteorSR23_mvl/mxv
 BYTE   W06
 BYTE   VOL   2*FE11MedeusBattleMeteorSR23_mvl/mxv
 BYTE   W03
 BYTE   VOL   3*FE11MedeusBattleMeteorSR23_mvl/mxv
 BYTE   W02
 BYTE   VOL   4*FE11MedeusBattleMeteorSR23_mvl/mxv
 BYTE   W03
 BYTE   VOL   5*FE11MedeusBattleMeteorSR23_mvl/mxv
 BYTE   W04
 BYTE   VOL   6*FE11MedeusBattleMeteorSR23_mvl/mxv
 BYTE   W02
 BYTE   VOL   7*FE11MedeusBattleMeteorSR23_mvl/mxv
 BYTE   W01
 BYTE   VOL   8*FE11MedeusBattleMeteorSR23_mvl/mxv
 BYTE   W03
 BYTE   VOL   9*FE11MedeusBattleMeteorSR23_mvl/mxv
 BYTE   W03
 BYTE   VOL   10*FE11MedeusBattleMeteorSR23_mvl/mxv
 BYTE   W02
 BYTE   VOL   11*FE11MedeusBattleMeteorSR23_mvl/mxv
 BYTE   W01
 BYTE   VOL   12*FE11MedeusBattleMeteorSR23_mvl/mxv
 BYTE   W02
 BYTE   VOL   13*FE11MedeusBattleMeteorSR23_mvl/mxv
 BYTE   W03
 BYTE   VOL   14*FE11MedeusBattleMeteorSR23_mvl/mxv
 BYTE   W01
 BYTE   VOL   15*FE11MedeusBattleMeteorSR23_mvl/mxv
 BYTE   W02
 BYTE   VOL   16*FE11MedeusBattleMeteorSR23_mvl/mxv
 BYTE   W03
 BYTE   VOL   18*FE11MedeusBattleMeteorSR23_mvl/mxv
 BYTE   W01
 BYTE   VOL   19*FE11MedeusBattleMeteorSR23_mvl/mxv
 BYTE   W02
 BYTE   VOL   20*FE11MedeusBattleMeteorSR23_mvl/mxv
 BYTE   W01
 BYTE   VOL   21*FE11MedeusBattleMeteorSR23_mvl/mxv
 BYTE   W02
 BYTE   VOL   22*FE11MedeusBattleMeteorSR23_mvl/mxv
 BYTE   W01
 BYTE   VOL   24*FE11MedeusBattleMeteorSR23_mvl/mxv
 BYTE   W03
 BYTE   VOL   26*FE11MedeusBattleMeteorSR23_mvl/mxv
 BYTE   W02
 BYTE   VOL   27*FE11MedeusBattleMeteorSR23_mvl/mxv
 BYTE   W01
 BYTE   VOL   29*FE11MedeusBattleMeteorSR23_mvl/mxv
 BYTE   W02
 BYTE   VOL   31*FE11MedeusBattleMeteorSR23_mvl/mxv
 BYTE   W01
 BYTE   VOL   32*FE11MedeusBattleMeteorSR23_mvl/mxv
 BYTE   W02
 BYTE   VOL   34*FE11MedeusBattleMeteorSR23_mvl/mxv
 BYTE   W01
 BYTE   VOL   35*FE11MedeusBattleMeteorSR23_mvl/mxv
 BYTE   W02
 BYTE   VOL   38*FE11MedeusBattleMeteorSR23_mvl/mxv
 BYTE   W01
 BYTE   VOL   39*FE11MedeusBattleMeteorSR23_mvl/mxv
 BYTE   W01
//  #02 //002   ----------------------------------------
 BYTE   W01
 BYTE   VOL   42*FE11MedeusBattleMeteorSR23_mvl/mxv
 BYTE   W01
 BYTE   VOL   44*FE11MedeusBattleMeteorSR23_mvl/mxv
 BYTE   W02
 BYTE   VOL   46*FE11MedeusBattleMeteorSR23_mvl/mxv
 BYTE   W01
 BYTE   VOL   50*FE11MedeusBattleMeteorSR23_mvl/mxv
 BYTE   W02
 BYTE   VOL   52*FE11MedeusBattleMeteorSR23_mvl/mxv
 BYTE   W01
 BYTE   VOL   55*FE11MedeusBattleMeteorSR23_mvl/mxv
 BYTE   W02
 BYTE   VOL   58*FE11MedeusBattleMeteorSR23_mvl/mxv
 BYTE   W01
 BYTE   VOL   62*FE11MedeusBattleMeteorSR23_mvl/mxv
 BYTE   W02
 BYTE   VOL   65*FE11MedeusBattleMeteorSR23_mvl/mxv
 BYTE   W01
 BYTE   VOL   70*FE11MedeusBattleMeteorSR23_mvl/mxv
 BYTE   W10
 BYTE   N92  Cn3  v083  gtp3
 BYTE   W72
//  #02 //003   ----------------------------------------
Label_545716:
 BYTE   W24
 BYTE   N92  Bn2  v082  gtp3
 BYTE   W72
 BYTE   PEND 
//  #02 //004   ----------------------------------------
Label_54571D:
 BYTE   W24
 BYTE   N92  Gn2  v083  gtp3
 BYTE   W72
 BYTE   PEND 
//  #02 //005   ----------------------------------------
Label_545724:
 BYTE   W24
 BYTE   N92  Cn2  v085  gtp3
 BYTE   W72
 BYTE   PEND 
//  #02 //006   ----------------------------------------
 BYTE   W24
 BYTE   Ds2  v079
 BYTE   W04
 BYTE   VOL   67*FE11MedeusBattleMeteorSR23_mvl/mxv
 BYTE   W01
 BYTE   VOL   64*FE11MedeusBattleMeteorSR23_mvl/mxv
 BYTE   W02
 BYTE   VOL   61*FE11MedeusBattleMeteorSR23_mvl/mxv
 BYTE   W01
 BYTE   VOL   57*FE11MedeusBattleMeteorSR23_mvl/mxv
 BYTE   W02
 BYTE   VOL   53*FE11MedeusBattleMeteorSR23_mvl/mxv
 BYTE   W01
 BYTE   VOL   51*FE11MedeusBattleMeteorSR23_mvl/mxv
 BYTE   W22
 BYTE   VOL   52*FE11MedeusBattleMeteorSR23_mvl/mxv
 BYTE   W14
 BYTE   VOL   53*FE11MedeusBattleMeteorSR23_mvl/mxv
 BYTE   W22
 BYTE   VOL   54*FE11MedeusBattleMeteorSR23_mvl/mxv
 BYTE   W03
//  #02 //007   ----------------------------------------
 BYTE   W12
 BYTE   VOL   55*FE11MedeusBattleMeteorSR23_mvl/mxv
 BYTE   W07
 BYTE   VOL   56*FE11MedeusBattleMeteorSR23_mvl/mxv
 BYTE   W05
 BYTE   N96  En2  v078
 BYTE   W02
 BYTE   VOL   57*FE11MedeusBattleMeteorSR23_mvl/mxv
 BYTE   W22
 BYTE   VOL   58*FE11MedeusBattleMeteorSR23_mvl/mxv
 BYTE   W08
 BYTE   VOL   59*FE11MedeusBattleMeteorSR23_mvl/mxv
 BYTE   W07
 BYTE   VOL   61*FE11MedeusBattleMeteorSR23_mvl/mxv
 BYTE   W14
 BYTE   VOL   62*FE11MedeusBattleMeteorSR23_mvl/mxv
 BYTE   W08
 BYTE   VOL   64*FE11MedeusBattleMeteorSR23_mvl/mxv
 BYTE   W11
//  #02 //008   ----------------------------------------
 BYTE   W03
 BYTE   VOL   66*FE11MedeusBattleMeteorSR23_mvl/mxv
 BYTE   W08
 BYTE   VOL   68*FE11MedeusBattleMeteorSR23_mvl/mxv
 BYTE   W07
 BYTE   VOL   70*FE11MedeusBattleMeteorSR23_mvl/mxv
 BYTE   W06
Label_54575F:
 BYTE   W72
//  #02 //009   ----------------------------------------
 BYTE   W96
//  #02 //010   ----------------------------------------
 BYTE   W96
//  #02 //011   ----------------------------------------
 BYTE   W96
//  #02 //012   ----------------------------------------
 BYTE   W96
//  #02 //013   ----------------------------------------
 BYTE   W96
//  #02 //014   ----------------------------------------
 BYTE   W96
//  #02 //015   ----------------------------------------
 BYTE   W24
 BYTE   N92  An1  v094  gtp3
 BYTE   W07
 BYTE   VOL   69*FE11MedeusBattleMeteorSR23_mvl/mxv
 BYTE   W03
 BYTE   VOL   68*FE11MedeusBattleMeteorSR23_mvl/mxv
 BYTE   W03
 BYTE   VOL   66*FE11MedeusBattleMeteorSR23_mvl/mxv
 BYTE   W03
 BYTE   VOL   65*FE11MedeusBattleMeteorSR23_mvl/mxv
 BYTE   W03
 BYTE   VOL   64*FE11MedeusBattleMeteorSR23_mvl/mxv
 BYTE   W03
 BYTE   VOL   62*FE11MedeusBattleMeteorSR23_mvl/mxv
 BYTE   W03
 BYTE   VOL   61*FE11MedeusBattleMeteorSR23_mvl/mxv
 BYTE   W03
 BYTE   VOL   60*FE11MedeusBattleMeteorSR23_mvl/mxv
 BYTE   W03
 BYTE   VOL   58*FE11MedeusBattleMeteorSR23_mvl/mxv
 BYTE   W03
 BYTE   VOL   57*FE11MedeusBattleMeteorSR23_mvl/mxv
 BYTE   W03
 BYTE   VOL   56*FE11MedeusBattleMeteorSR23_mvl/mxv
 BYTE   W03
 BYTE   VOL   54*FE11MedeusBattleMeteorSR23_mvl/mxv
 BYTE   W03
 BYTE   VOL   53*FE11MedeusBattleMeteorSR23_mvl/mxv
 BYTE   W03
 BYTE   VOL   52*FE11MedeusBattleMeteorSR23_mvl/mxv
 BYTE   W03
 BYTE   VOL   50*FE11MedeusBattleMeteorSR23_mvl/mxv
 BYTE   W03
 BYTE   VOL   49*FE11MedeusBattleMeteorSR23_mvl/mxv
 BYTE   W03
 BYTE   VOL   48*FE11MedeusBattleMeteorSR23_mvl/mxv
 BYTE   W03
 BYTE   VOL   46*FE11MedeusBattleMeteorSR23_mvl/mxv
 BYTE   W03
 BYTE   VOL   45*FE11MedeusBattleMeteorSR23_mvl/mxv
 BYTE   W03
 BYTE   VOL   43*FE11MedeusBattleMeteorSR23_mvl/mxv
 BYTE   W03
 BYTE   VOL   42*FE11MedeusBattleMeteorSR23_mvl/mxv
 BYTE   W03
 BYTE   VOL   41*FE11MedeusBattleMeteorSR23_mvl/mxv
 BYTE   W02
//  #02 //016   ----------------------------------------
 BYTE   W01
 BYTE   VOL   39*FE11MedeusBattleMeteorSR23_mvl/mxv
 BYTE   W06
 BYTE   VOL   37*FE11MedeusBattleMeteorSR23_mvl/mxv
 BYTE   W03
 BYTE   VOL   35*FE11MedeusBattleMeteorSR23_mvl/mxv
 BYTE   W06
 BYTE   VOL   33*FE11MedeusBattleMeteorSR23_mvl/mxv
 BYTE   W03
 BYTE   VOL   31*FE11MedeusBattleMeteorSR23_mvl/mxv
 BYTE   W03
 BYTE   VOL   30*FE11MedeusBattleMeteorSR23_mvl/mxv
 BYTE   W02
 BYTE   N92  Gs1  v087  gtp3
 BYTE   W01
 BYTE   VOL   29*FE11MedeusBattleMeteorSR23_mvl/mxv
 BYTE   W02
 BYTE   VOL   27*FE11MedeusBattleMeteorSR23_mvl/mxv
 BYTE   W03
 BYTE   VOL   28*FE11MedeusBattleMeteorSR23_mvl/mxv
 BYTE   W03
 BYTE   VOL   30*FE11MedeusBattleMeteorSR23_mvl/mxv
 BYTE   W03
 BYTE   VOL   31*FE11MedeusBattleMeteorSR23_mvl/mxv
 BYTE   W03
 BYTE   VOL   32*FE11MedeusBattleMeteorSR23_mvl/mxv
 BYTE   W03
 BYTE   VOL   34*FE11MedeusBattleMeteorSR23_mvl/mxv
 BYTE   W03
 BYTE   VOL   35*FE11MedeusBattleMeteorSR23_mvl/mxv
 BYTE   W03
 BYTE   VOL   36*FE11MedeusBattleMeteorSR23_mvl/mxv
 BYTE   W03
 BYTE   VOL   38*FE11MedeusBattleMeteorSR23_mvl/mxv
 BYTE   W03
 BYTE   VOL   39*FE11MedeusBattleMeteorSR23_mvl/mxv
 BYTE   W03
 BYTE   VOL   41*FE11MedeusBattleMeteorSR23_mvl/mxv
 BYTE   W03
 BYTE   VOL   42*FE11MedeusBattleMeteorSR23_mvl/mxv
 BYTE   W03
 BYTE   VOL   43*FE11MedeusBattleMeteorSR23_mvl/mxv
 BYTE   W03
 BYTE   VOL   45*FE11MedeusBattleMeteorSR23_mvl/mxv
 BYTE   W03
 BYTE   VOL   46*FE11MedeusBattleMeteorSR23_mvl/mxv
 BYTE   W03
 BYTE   VOL   47*FE11MedeusBattleMeteorSR23_mvl/mxv
 BYTE   W03
 BYTE   VOL   49*FE11MedeusBattleMeteorSR23_mvl/mxv
 BYTE   W03
 BYTE   VOL   50*FE11MedeusBattleMeteorSR23_mvl/mxv
 BYTE   W03
 BYTE   VOL   51*FE11MedeusBattleMeteorSR23_mvl/mxv
 BYTE   W03
 BYTE   VOL   53*FE11MedeusBattleMeteorSR23_mvl/mxv
 BYTE   W03
 BYTE   VOL   54*FE11MedeusBattleMeteorSR23_mvl/mxv
 BYTE   W03
 BYTE   VOL   55*FE11MedeusBattleMeteorSR23_mvl/mxv
 BYTE   W03
 BYTE   VOL   57*FE11MedeusBattleMeteorSR23_mvl/mxv
 BYTE   W03
//  #02 //017   ----------------------------------------
 BYTE   VOL   58*FE11MedeusBattleMeteorSR23_mvl/mxv
 BYTE   W03
 BYTE   VOL   59*FE11MedeusBattleMeteorSR23_mvl/mxv
 BYTE   W03
 BYTE   VOL   61*FE11MedeusBattleMeteorSR23_mvl/mxv
 BYTE   W03
 BYTE   VOL   62*FE11MedeusBattleMeteorSR23_mvl/mxv
 BYTE   W03
 BYTE   VOL   63*FE11MedeusBattleMeteorSR23_mvl/mxv
 BYTE   W03
 BYTE   VOL   64*FE11MedeusBattleMeteorSR23_mvl/mxv
 BYTE   W03
 BYTE   VOL   66*FE11MedeusBattleMeteorSR23_mvl/mxv
 BYTE   W03
 BYTE   VOL   68*FE11MedeusBattleMeteorSR23_mvl/mxv
 BYTE   W03
 BYTE   N92  Gn1  v094  gtp3
 BYTE   W02
 BYTE   VOL   70*FE11MedeusBattleMeteorSR23_mvl/mxv
 BYTE   W12
 BYTE   VOL   69*FE11MedeusBattleMeteorSR23_mvl/mxv
 BYTE   W03
 BYTE   VOL   68*FE11MedeusBattleMeteorSR23_mvl/mxv
 BYTE   W03
 BYTE   VOL   66*FE11MedeusBattleMeteorSR23_mvl/mxv
 BYTE   W03
 BYTE   VOL   65*FE11MedeusBattleMeteorSR23_mvl/mxv
 BYTE   W03
 BYTE   VOL   64*FE11MedeusBattleMeteorSR23_mvl/mxv
 BYTE   W03
 BYTE   VOL   62*FE11MedeusBattleMeteorSR23_mvl/mxv
 BYTE   W03
 BYTE   VOL   61*FE11MedeusBattleMeteorSR23_mvl/mxv
 BYTE   W03
 BYTE   VOL   60*FE11MedeusBattleMeteorSR23_mvl/mxv
 BYTE   W03
 BYTE   VOL   58*FE11MedeusBattleMeteorSR23_mvl/mxv
 BYTE   W03
 BYTE   VOL   57*FE11MedeusBattleMeteorSR23_mvl/mxv
 BYTE   W03
 BYTE   VOL   55*FE11MedeusBattleMeteorSR23_mvl/mxv
 BYTE   W03
 BYTE   VOL   54*FE11MedeusBattleMeteorSR23_mvl/mxv
 BYTE   W03
 BYTE   VOL   53*FE11MedeusBattleMeteorSR23_mvl/mxv
 BYTE   W03
 BYTE   VOL   51*FE11MedeusBattleMeteorSR23_mvl/mxv
 BYTE   W03
 BYTE   VOL   50*FE11MedeusBattleMeteorSR23_mvl/mxv
 BYTE   W03
 BYTE   VOL   49*FE11MedeusBattleMeteorSR23_mvl/mxv
 BYTE   W03
 BYTE   VOL   47*FE11MedeusBattleMeteorSR23_mvl/mxv
 BYTE   W03
 BYTE   VOL   46*FE11MedeusBattleMeteorSR23_mvl/mxv
 BYTE   W03
 BYTE   VOL   45*FE11MedeusBattleMeteorSR23_mvl/mxv
 BYTE   W03
 BYTE   VOL   43*FE11MedeusBattleMeteorSR23_mvl/mxv
 BYTE   W01
//  #02 //018   ----------------------------------------
 BYTE   W02
 BYTE   VOL   42*FE11MedeusBattleMeteorSR23_mvl/mxv
 BYTE   W03
 BYTE   VOL   40*FE11MedeusBattleMeteorSR23_mvl/mxv
 BYTE   W03
 BYTE   VOL   39*FE11MedeusBattleMeteorSR23_mvl/mxv
 BYTE   W03
 BYTE   VOL   38*FE11MedeusBattleMeteorSR23_mvl/mxv
 BYTE   W03
 BYTE   VOL   36*FE11MedeusBattleMeteorSR23_mvl/mxv
 BYTE   W03
 BYTE   VOL   35*FE11MedeusBattleMeteorSR23_mvl/mxv
 BYTE   W03
 BYTE   VOL   34*FE11MedeusBattleMeteorSR23_mvl/mxv
 BYTE   W02
 BYTE   VOL   32*FE11MedeusBattleMeteorSR23_mvl/mxv
 BYTE   W02
 BYTE   N92  Fs1  v105  gtp3
 BYTE   W72
//  #02 //019   ----------------------------------------
 BYTE   W24
 BYTE   VOL   33*FE11MedeusBattleMeteorSR23_mvl/mxv
 BYTE   W06
 BYTE   BEND   c_v+2
 BYTE   VOL   34*FE11MedeusBattleMeteorSR23_mvl/mxv
 BYTE   W03
 BYTE   BEND   c_v+3
 BYTE   VOL   35*FE11MedeusBattleMeteorSR23_mvl/mxv
 BYTE   W03
 BYTE   BEND   c_v+4
 BYTE   W03
 BYTE   BEND   c_v+5
 BYTE   W03
 BYTE   BEND   c_v+6
 BYTE   VOL   36*FE11MedeusBattleMeteorSR23_mvl/mxv
 BYTE   W03
 BYTE   BEND   c_v+7
 BYTE   VOL   37*FE11MedeusBattleMeteorSR23_mvl/mxv
 BYTE   W03
 BYTE   BEND   c_v+9
 BYTE   VOL   38*FE11MedeusBattleMeteorSR23_mvl/mxv
 BYTE   W03
 BYTE   BEND   c_v+10
 BYTE   VOL   39*FE11MedeusBattleMeteorSR23_mvl/mxv
 BYTE   W03
 BYTE   BEND   c_v+11
 BYTE   W03
 BYTE   BEND   c_v+13
 BYTE   VOL   40*FE11MedeusBattleMeteorSR23_mvl/mxv
 BYTE   W03
 BYTE   BEND   c_v+14
 BYTE   VOL   41*FE11MedeusBattleMeteorSR23_mvl/mxv
 BYTE   W03
 BYTE   BEND   c_v+16
 BYTE   VOL   42*FE11MedeusBattleMeteorSR23_mvl/mxv
 BYTE   W03
 BYTE   BEND   c_v+18
 BYTE   W03
 BYTE   BEND   c_v+20
 BYTE   VOL   43*FE11MedeusBattleMeteorSR23_mvl/mxv
 BYTE   W03
 BYTE   BEND   c_v+21
 BYTE   VOL   45*FE11MedeusBattleMeteorSR23_mvl/mxv
 BYTE   W03
 BYTE   BEND   c_v+23
 BYTE   VOL   46*FE11MedeusBattleMeteorSR23_mvl/mxv
 BYTE   W03
 BYTE   BEND   c_v+26
 BYTE   VOL   47*FE11MedeusBattleMeteorSR23_mvl/mxv
 BYTE   W03
 BYTE   BEND   c_v+28
 BYTE   VOL   48*FE11MedeusBattleMeteorSR23_mvl/mxv
 BYTE   W03
 BYTE   BEND   c_v+30
 BYTE   VOL   50*FE11MedeusBattleMeteorSR23_mvl/mxv
 BYTE   W03
 BYTE   BEND   c_v+33
 BYTE   VOL   51*FE11MedeusBattleMeteorSR23_mvl/mxv
 BYTE   W03
 BYTE   BEND   c_v+35
 BYTE   VOL   53*FE11MedeusBattleMeteorSR23_mvl/mxv
 BYTE   W03
 BYTE   BEND   c_v+38
 BYTE   VOL   54*FE11MedeusBattleMeteorSR23_mvl/mxv
 BYTE   W03
//  #02 //020   ----------------------------------------
 BYTE   BEND   c_v+41
 BYTE   VOL   57*FE11MedeusBattleMeteorSR23_mvl/mxv
 BYTE   W03
 BYTE   BEND   c_v+44
 BYTE   VOL   58*FE11MedeusBattleMeteorSR23_mvl/mxv
 BYTE   W03
 BYTE   BEND   c_v+48
 BYTE   VOL   61*FE11MedeusBattleMeteorSR23_mvl/mxv
 BYTE   W03
 BYTE   BEND   c_v+51
 BYTE   VOL   63*FE11MedeusBattleMeteorSR23_mvl/mxv
 BYTE   W03
 BYTE   BEND   c_v+55
 BYTE   VOL   65*FE11MedeusBattleMeteorSR23_mvl/mxv
 BYTE   W03
 BYTE   BEND   c_v+60
 BYTE   VOL   68*FE11MedeusBattleMeteorSR23_mvl/mxv
 BYTE   W01
 BYTE   VOL   70*FE11MedeusBattleMeteorSR23_mvl/mxv
 BYTE   BEND   c_v+63
 BYTE   W08
 BYTE   BEND   c_v+0
 BYTE   N92  Cn3  v083  gtp3
 BYTE   W72
//  #02 //021   ----------------------------------------
 BYTE   PATT
  POIN2 Label_545716
//  #02 //022   ----------------------------------------
 BYTE   PATT
  POIN2 Label_54571D
//  #02 //023   ----------------------------------------
 BYTE   PATT
  POIN2 Label_545724
//  #02 //024   ----------------------------------------
 BYTE   W24
 BYTE   N92  Ds2  v079  gtp3
 BYTE   W72
//  #02 //025   ----------------------------------------
 BYTE   W24
 BYTE   En2  v078
 BYTE   W72
//  #02 //026   ----------------------------------------
 BYTE   W24
 BYTE   GoTo
  POIN2 Label_54575F
//  #02 //027   ----------------------------------------
 BYTE   W05
 BYTE   FINE

//**************** Track 3 (Midi-Chn.2) ****************//

FE11MedeusBattleMeteorSR23_003:
//  #03 //000   ----------------------------------------
 BYTE   KEYSH   FE11MedeusBattleMeteorSR23_key+0
 BYTE   VOICE   30
 BYTE   W96
//  #03 //001   ----------------------------------------
 BYTE   W96
//  #03 //002   ----------------------------------------
 BYTE   W24
 BYTE   BENDR  12
 BYTE   VOL   53*FE11MedeusBattleMeteorSR23_mvl/mxv
 BYTE   PAN   c_v+25
 BYTE   N92  Cn3  v081  gtp3
 BYTE   W40
 BYTE   BEND   c_v+2
 BYTE   W03
 BYTE   BEND   c_v+1
 BYTE   W02
 BYTE   BEND   c_v+0
 BYTE   W21
 BYTE   BEND   c_v+4
 BYTE   W03
 BYTE   BEND   c_v+2
 BYTE   W01
 BYTE   BEND   c_v+0
 BYTE   W02
//  #03 //003   ----------------------------------------
Label_01002523:
 BYTE   W05
 BYTE   BEND   c_v+2
 BYTE   W03
 BYTE   BEND   c_v+0
 BYTE   W06
 BYTE   BEND   c_v+2
 BYTE   W01
 BYTE   BEND   c_v+4
 BYTE   W03
 BYTE   BEND   c_v+3
 BYTE   W01
 BYTE   BEND   c_v+0
 BYTE   W05
 BYTE   N92  Bn2  v088  gtp3
 BYTE   W42
 BYTE   BEND   c_v+2
 BYTE   W03
 BYTE   BEND   c_v+0
 BYTE   W24
 BYTE   W03
 BYTE   PEND 
//  #03 //004   ----------------------------------------
Label_0100253D:
 BYTE   W04
 BYTE   BEND   c_v+2
 BYTE   W01
 BYTE   BEND   c_v+4
 BYTE   W01
 BYTE   BEND   c_v+6
 BYTE   W01
 BYTE   BEND   c_v+2
 BYTE   W01
 BYTE   BEND   c_v+0
 BYTE   W02
 BYTE   BEND   c_v-1
 BYTE   W01
 BYTE   BEND   c_v-3
 BYTE   W02
 BYTE   BEND   c_v-5
 BYTE   W01
 BYTE   BEND   c_v-7
 BYTE   W02
 BYTE   BEND   c_v-9
 BYTE   W01
 BYTE   BEND   c_v-10
 BYTE   W02
 BYTE   BEND   c_v-12
 BYTE   W01
 BYTE   BEND   c_v-14
 BYTE   W02
 BYTE   BEND   c_v-16
 BYTE   W01
 BYTE   BEND   c_v-18
 BYTE   W01
 BYTE   BEND   c_v-8
 BYTE   N92  Gn2  v098  gtp3
 BYTE   W03
 BYTE   BEND   c_v-6
 BYTE   W03
 BYTE   BEND   c_v-4
 BYTE   W03
 BYTE   BEND   c_v-2
 BYTE   W02
 BYTE   BEND   c_v+0
 BYTE   W20
 BYTE   BEND   c_v+2
 BYTE   W01
 BYTE   BEND   c_v+4
 BYTE   W02
 BYTE   BEND   c_v+6
 BYTE   W01
 BYTE   BEND   c_v+3
 BYTE   W01
 BYTE   BEND   c_v+0
 BYTE   W09
 BYTE   BEND   c_v+2
 BYTE   W02
 BYTE   BEND   c_v+0
 BYTE   W08
 BYTE   BEND   c_v+2
 BYTE   W01
 BYTE   BEND   c_v+4
 BYTE   W02
 BYTE   BEND   c_v+0
 BYTE   W07
 BYTE   BEND   c_v+2
 BYTE   W01
 BYTE   BEND   c_v+4
 BYTE   W01
 BYTE   BEND   c_v+2
 BYTE   W02
 BYTE   BEND   c_v+0
 BYTE   W03
 BYTE   PEND 
//  #03 //005   ----------------------------------------
Label_01002589:
 BYTE   W04
 BYTE   BEND   c_v+2
 BYTE   W03
 BYTE   BEND   c_v+1
 BYTE   W01
 BYTE   BEND   c_v+0
 BYTE   W16
 BYTE   N92  Cn2  v100  gtp3
 BYTE   W32
 BYTE   W01
 BYTE   BEND   c_v+2
 BYTE   W01
 BYTE   BEND   c_v+4
 BYTE   W02
 BYTE   BEND   c_v+6
 BYTE   W01
 BYTE   BEND   c_v+5
 BYTE   W01
 BYTE   BEND   c_v+0
 BYTE   W07
 BYTE   BEND   c_v+2
 BYTE   W01
 BYTE   BEND   c_v+4
 BYTE   W02
 BYTE   BEND   c_v+3
 BYTE   W01
 BYTE   BEND   c_v+1
 BYTE   W01
 BYTE   BEND   c_v+0
 BYTE   W08
 BYTE   BEND   c_v+4
 BYTE   W03
 BYTE   BEND   c_v+2
 BYTE   W01
 BYTE   BEND   c_v+0
 BYTE   W06
 BYTE   BEND   c_v+2
 BYTE   W01
 BYTE   BEND   c_v+6
 BYTE   W01
 BYTE   BEND   c_v+8
 BYTE   W01
 BYTE   BEND   c_v+6
 BYTE   W01
 BYTE   PEND 
//  #03 //006   ----------------------------------------
Label_010025BB:
 BYTE   BEND   c_v+4
 BYTE   W01
 BYTE   BEND   c_v+0
 BYTE   W03
 BYTE   BEND   c_v+1
 BYTE   W02
 BYTE   BEND   c_v+2
 BYTE   W01
 BYTE   BEND   c_v+4
 BYTE   W02
 BYTE   BEND   c_v+3
 BYTE   W01
 BYTE   BEND   c_v+1
 BYTE   W01
 BYTE   BEND   c_v+0
 BYTE   W13
 BYTE   N92  Ds2  v094  gtp3
 BYTE   W28
 BYTE   W01
 BYTE   BEND   c_v+2
 BYTE   W03
 BYTE   BEND   c_v+1
 BYTE   W01
 BYTE   BEND   c_v+0
 BYTE   W20
 BYTE   BEND   c_v+2
 BYTE   W02
 BYTE   BEND   c_v+0
 BYTE   W17
 BYTE   PEND 
//  #03 //007   ----------------------------------------
Label_010025DE:
 BYTE   W02
 BYTE   BEND   c_v+2
 BYTE   W03
 BYTE   BEND   c_v+1
 BYTE   W01
 BYTE   BEND   c_v+0
 BYTE   W18
 BYTE   N92  En2  v093  gtp3
 BYTE   W28
 BYTE   W01
 BYTE   BEND   c_v+2
 BYTE   W01
 BYTE   BEND   c_v+4
 BYTE   W03
 BYTE   BEND   c_v+2
 BYTE   W01
 BYTE   BEND   c_v+0
 BYTE   W07
 BYTE   BEND   c_v+2
 BYTE   W03
 BYTE   BEND   c_v+0
 BYTE   W08
 BYTE   BEND   c_v+2
 BYTE   W02
 BYTE   BEND   c_v+0
 BYTE   W07
 BYTE   BEND   c_v+4
 BYTE   W01
 BYTE   BEND   c_v+6
 BYTE   W02
 BYTE   BEND   c_v+10
 BYTE   W01
 BYTE   BEND   c_v+3
 BYTE   W01
 BYTE   BEND   c_v+0
 BYTE   W06
 BYTE   PEND 
//  #03 //008   ----------------------------------------
 BYTE   W09
 BYTE   Cn3
 BYTE   W01
 BYTE   Gs2
 BYTE   W01
 BYTE   En2
 BYTE   W01
 BYTE   Gs1
 BYTE   W01
 BYTE   En1
 BYTE   W01
 BYTE   Cn1
 BYTE   W01
 BYTE   En0
 BYTE   W01
 BYTE   Cn0
 BYTE   W01
 BYTE   GsM1
 BYTE   W01
 BYTE   CnM1
 BYTE   W01
 BYTE   GnM2
 BYTE   W01
 BYTE   CnM2
 BYTE   W03
 BYTE   En3
 BYTE   W01
Label_01002623:
 BYTE   N44  Cn2  v092  gtp3
 BYTE   W48
 BYTE   N68  An1  v086  gtp3
 BYTE   W24
//  #03 //009   ----------------------------------------
 BYTE   W48
 BYTE   N23  Fs1  v087
 BYTE   N23  Fs2  v070
 BYTE   W24
 BYTE   An1  v080
 BYTE   N23  An2  v063
 BYTE   W24
//  #03 //010   ----------------------------------------
 BYTE   Cn2  v090
 BYTE   N23  Cn3  v073
 BYTE   W24
 BYTE   N44  Ds2  v084  gtp3
 BYTE   Ds3  v053
 BYTE   W24
 BYTE   BEND   c_v+2
 BYTE   W02
 BYTE   BEND   c_v+0
 BYTE   W22
 BYTE   N44  Fs2  v084  gtp3
 BYTE   Fs3  v053
 BYTE   W24
//  #03 //011   ----------------------------------------
 BYTE   W24
 BYTE   An2  v078
 BYTE   N44  An3  v047  gtp3
 BYTE   W17
 BYTE   BEND   c_v+2
 BYTE   W03
 BYTE   BEND   c_v+0
 BYTE   W08
 BYTE   BEND   c_v+2
 BYTE   W03
 BYTE   BEND   c_v+0
 BYTE   W06
 BYTE   BEND   c_v+4
 BYTE   W03
 BYTE   BEND   c_v+2
 BYTE   W01
 BYTE   BEND   c_v+0
 BYTE   W07
 BYTE   N44  Ds3  v092  gtp3
 BYTE   Ds4  v061
 BYTE   W24
//  #03 //012   ----------------------------------------
 BYTE   W24
 BYTE   N80  En3  v083
 BYTE   N80  En4  v052
 BYTE   W21
 BYTE   BEND   c_v+2
 BYTE   W01
 BYTE   BEND   c_v+4
 BYTE   W02
 BYTE   BEND   c_v+0
 BYTE   W08
 BYTE   BEND   c_v+4
 BYTE   W01
 BYTE   BEND   c_v+6
 BYTE   W01
 BYTE   BEND   c_v+4
 BYTE   W01
 BYTE   BEND   c_v+2
 BYTE   W01
 BYTE   BEND   c_v+0
 BYTE   W16
 BYTE   BEND   c_v+2
 BYTE   W02
 BYTE   BEND   c_v+0
 BYTE   W18
//  #03 //013   ----------------------------------------
 BYTE   W08
 BYTE   N03  En3  v060
 BYTE   W04
 BYTE   Dn3  v053
 BYTE   W02
 BYTE   Cn3  v055
 BYTE   W02
 BYTE   N02  Bn2  v065
 BYTE   W02
 BYTE   An2  v066
 BYTE   W01
 BYTE   Gn2
 BYTE   W76
 BYTE   W01
//  #03 //014   ----------------------------------------
 BYTE   W96
//  #03 //015   ----------------------------------------
 BYTE   W24
 BYTE   TIE  An1  v071
 BYTE   W72
//  #03 //016   ----------------------------------------
 BYTE   W96
//  #03 //017   ----------------------------------------
 BYTE   W96
//  #03 //018   ----------------------------------------
 BYTE   W23
 BYTE   EOT
 BYTE   W01
 BYTE   TIE  Gs1  v069
 BYTE   W72
//  #03 //019   ----------------------------------------
 BYTE   W96
//  #03 //020   ----------------------------------------
 BYTE   W23
 BYTE   EOT
 BYTE   W01
 BYTE   VOL   97*FE11MedeusBattleMeteorSR23_mvl/mxv
 BYTE   N92  Cn3  v081  gtp3
 BYTE   W40
 BYTE   BEND   c_v+2
 BYTE   W03
 BYTE   BEND   c_v+1
 BYTE   W02
 BYTE   BEND   c_v+0
 BYTE   W21
 BYTE   BEND   c_v+4
 BYTE   W03
 BYTE   BEND   c_v+2
 BYTE   W01
 BYTE   BEND   c_v+0
 BYTE   W02
//  #03 //021   ----------------------------------------
 BYTE   PATT
  POIN2 Label_01002523
//  #03 //022   ----------------------------------------
 BYTE   PATT
  POIN2 Label_0100253D
//  #03 //023   ----------------------------------------
 BYTE   PATT
  POIN2 Label_01002589
//  #03 //024   ----------------------------------------
 BYTE   PATT
  POIN2 Label_010025BB
//  #03 //025   ----------------------------------------
 BYTE   PATT
  POIN2 Label_010025DE
//  #03 //026   ----------------------------------------
 BYTE   W09
 BYTE   BEND   c_v-4
 BYTE   W01
 BYTE   BEND   c_v-8
 BYTE   W01
 BYTE   BEND   c_v-12
 BYTE   W01
 BYTE   BEND   c_v-20
 BYTE   W01
 BYTE   BEND   c_v-24
 BYTE   W01
 BYTE   BEND   c_v-28
 BYTE   W01
 BYTE   BEND   c_v-36
 BYTE   W01
 BYTE   BEND   c_v-40
 BYTE   W01
 BYTE   BEND   c_v-44
 BYTE   W01
 BYTE   BEND   c_v-52
 BYTE   W01
 BYTE   BEND   c_v-57
 BYTE   W01
 BYTE   BEND   c_v-64
 BYTE   W04
 BYTE   VOL   53*FE11MedeusBattleMeteorSR23_mvl/mxv
 BYTE   BEND   c_v+0
 BYTE   GoTo
  POIN2 Label_01002623
//  #03 //027   ----------------------------------------
 BYTE   W05
 BYTE   FINE

//**************** Track 4 (Midi-Chn.3) ****************//

FE11MedeusBattleMeteorSR23_004:
//  #04 //000   ----------------------------------------
 BYTE   KEYSH   FE11MedeusBattleMeteorSR23_key+0
 BYTE   VOICE   38
 BYTE   W96
//  #04 //001   ----------------------------------------
 BYTE   W96
//  #04 //002   ----------------------------------------
 BYTE   W24
 BYTE   VOL   82*FE11MedeusBattleMeteorSR23_mvl/mxv
 BYTE   N12  An0  v118
 BYTE   W72
//  #04 //003   ----------------------------------------
 BYTE   W96
//  #04 //004   ----------------------------------------
Label_5451DE:
 BYTE   W24
 BYTE   N12  An0  v118
 BYTE   W72
 BYTE   PEND 
//  #04 //005   ----------------------------------------
 BYTE   W96
//  #04 //006   ----------------------------------------
 BYTE   PATT
  POIN2 Label_5451DE
//  #04 //007   ----------------------------------------
 BYTE   W96
//  #04 //008   ----------------------------------------
 BYTE   W24
Label_5451EC:
 BYTE   N06  An0  v127
 BYTE   W06
 BYTE   As0  v112
 BYTE   W06
 BYTE   An0  v119
 BYTE   W06
 BYTE   Cn1  v126
 BYTE   W06
 BYTE   An0  v119
 BYTE   W06
 BYTE   As0  v113
 BYTE   W06
 BYTE   An0  v117
 BYTE   W06
 BYTE   Cn1  v127
 BYTE   W06
 BYTE   An0  v126
 BYTE   W06
 BYTE   As0  v108
 BYTE   W06
 BYTE   An0  v123
 BYTE   W06
 BYTE   Cn1  v127
 BYTE   W06
//  #04 //009   ----------------------------------------
Label_545211:
 BYTE   N06  An0  v127
 BYTE   W06
 BYTE   As0  v112
 BYTE   W06
 BYTE   An0  v127
 BYTE   W06
 BYTE   Cn1
 BYTE   W06
 BYTE   An0
 BYTE   W06
 BYTE   As0  v112
 BYTE   W06
 BYTE   An0  v119
 BYTE   W06
 BYTE   Cn1  v126
 BYTE   W06
 BYTE   An0  v119
 BYTE   W06
 BYTE   As0  v113
 BYTE   W06
 BYTE   An0  v117
 BYTE   W06
 BYTE   Cn1  v127
 BYTE   W06
 BYTE   An0  v126
 BYTE   W06
 BYTE   As0  v108
 BYTE   W06
 BYTE   An0  v123
 BYTE   W06
 BYTE   Cn1  v127
 BYTE   W06
 BYTE   PEND 
//  #04 //010   ----------------------------------------
 BYTE   PATT
  POIN2 Label_545211
//  #04 //011   ----------------------------------------
 BYTE   PATT
  POIN2 Label_545211
//  #04 //012   ----------------------------------------
 BYTE   PATT
  POIN2 Label_545211
//  #04 //013   ----------------------------------------
 BYTE   PATT
  POIN2 Label_545211
//  #04 //014   ----------------------------------------
 BYTE   PATT
  POIN2 Label_545211
//  #04 //015   ----------------------------------------
 BYTE   N06  An0  v127
 BYTE   W06
 BYTE   As0  v112
 BYTE   W06
 BYTE   An0  v127
 BYTE   W06
 BYTE   Cn1
 BYTE   W06
 BYTE   An0  v087
 BYTE   W06
 BYTE   As0  v078
 BYTE   W06
 BYTE   An0  v082
 BYTE   W06
 BYTE   Cn1  v087
 BYTE   W06
 BYTE   An0  v082
 BYTE   W06
 BYTE   As0  v079
 BYTE   W06
 BYTE   An0  v081
 BYTE   W06
 BYTE   Cn1  v087
 BYTE   W06
 BYTE   An0
 BYTE   W06
 BYTE   As0  v075
 BYTE   W06
 BYTE   An0  v085
 BYTE   W06
 BYTE   Cn1  v087
 BYTE   W06
//  #04 //016   ----------------------------------------
Label_545289:
 BYTE   N06  An0  v087
 BYTE   W06
 BYTE   As0  v078
 BYTE   W06
 BYTE   An0  v087
 BYTE   W06
 BYTE   Cn1
 BYTE   W06
 BYTE   An0
 BYTE   W06
 BYTE   As0  v078
 BYTE   W06
 BYTE   An0  v082
 BYTE   W06
 BYTE   Cn1  v087
 BYTE   W06
 BYTE   An0  v082
 BYTE   W06
 BYTE   As0  v079
 BYTE   W06
 BYTE   An0  v081
 BYTE   W06
 BYTE   Cn1  v087
 BYTE   W06
 BYTE   An0
 BYTE   W06
 BYTE   As0  v075
 BYTE   W06
 BYTE   An0  v085
 BYTE   W06
 BYTE   Cn1  v087
 BYTE   W06
 BYTE   PEND 
//  #04 //017   ----------------------------------------
 BYTE   PATT
  POIN2 Label_545289
//  #04 //018   ----------------------------------------
 BYTE   PATT
  POIN2 Label_545289
//  #04 //019   ----------------------------------------
 BYTE   PATT
  POIN2 Label_545289
//  #04 //020   ----------------------------------------
 BYTE   N06  An0  v087
 BYTE   W06
 BYTE   As0  v078
 BYTE   W06
 BYTE   An0  v087
 BYTE   W06
 BYTE   Cn1
 BYTE   W06
 BYTE   N03  An0  v127
 BYTE   W12
 BYTE   N02  An0  v121
 BYTE   W06
 BYTE   An0  v110
 BYTE   W06
 BYTE   N03  An0  v115
 BYTE   W06
 BYTE   N08  An1  v113
 BYTE   W12
 BYTE   N03  An0  v125
 BYTE   W06
 BYTE   N04  An0  v121
 BYTE   W12
 BYTE   N02  An0  v118
 BYTE   W06
 BYTE   N03  An0  v112
 BYTE   W05
 BYTE   N04  An0  v115
 BYTE   W01
//  #04 //021   ----------------------------------------
Label_5452FA:
 BYTE   W05
 BYTE   N08  An1  v113
 BYTE   W12
 BYTE   N03  An0  v125
 BYTE   W07
 BYTE   An0  v127
 BYTE   W12
 BYTE   N02  An0  v121
 BYTE   W06
 BYTE   An0  v110
 BYTE   W06
 BYTE   N03  An0  v115
 BYTE   W06
 BYTE   N08  An1  v113
 BYTE   W12
 BYTE   N03  An0  v125
 BYTE   W06
 BYTE   N04  An0  v121
 BYTE   W12
 BYTE   N02  An0  v118
 BYTE   W06
 BYTE   N03  An0  v112
 BYTE   W05
 BYTE   N04  An0  v115
 BYTE   W01
 BYTE   PEND 
//  #04 //022   ----------------------------------------
 BYTE   PATT
  POIN2 Label_5452FA
//  #04 //023   ----------------------------------------
 BYTE   PATT
  POIN2 Label_5452FA
//  #04 //024   ----------------------------------------
 BYTE   PATT
  POIN2 Label_5452FA
//  #04 //025   ----------------------------------------
 BYTE   PATT
  POIN2 Label_5452FA
//  #04 //026   ----------------------------------------
 BYTE   W05
 BYTE   N08  An1  v113
 BYTE   W12
 BYTE   N03  An0  v125
 BYTE   W07
 BYTE   GoTo
  POIN2 Label_5451EC
//  #04 //027   ----------------------------------------
 BYTE   W05
 BYTE   FINE

//**************** Track 5 (Midi-Chn.4) ****************//

FE11MedeusBattleMeteorSR23_005:
//  #05 //000   ----------------------------------------
 BYTE   KEYSH   FE11MedeusBattleMeteorSR23_key+0
 BYTE   VOICE   104
 BYTE   PAN   c_v-39
 BYTE   VOL   23*FE11MedeusBattleMeteorSR23_mvl/mxv
 BYTE   W24
 BYTE   TIE  Cn3  v127
 BYTE   W72
//  #05 //001   ----------------------------------------
Label_545B81:
 BYTE   W24
 BYTE   W03
 BYTE   VOL   21*FE11MedeusBattleMeteorSR23_mvl/mxv
 BYTE   W01
 BYTE   VOL   19*FE11MedeusBattleMeteorSR23_mvl/mxv
 BYTE   W02
 BYTE   VOL   17*FE11MedeusBattleMeteorSR23_mvl/mxv
 BYTE   W01
 BYTE   VOL   15*FE11MedeusBattleMeteorSR23_mvl/mxv
 BYTE   W02
 BYTE   VOL   13*FE11MedeusBattleMeteorSR23_mvl/mxv
 BYTE   W01
 BYTE   VOL   11*FE11MedeusBattleMeteorSR23_mvl/mxv
 BYTE   W12
 BYTE   VOL   12*FE11MedeusBattleMeteorSR23_mvl/mxv
 BYTE   W12
 BYTE   VOL   13*FE11MedeusBattleMeteorSR23_mvl/mxv
 BYTE   W09
 BYTE   VOL   14*FE11MedeusBattleMeteorSR23_mvl/mxv
 BYTE   W09
 BYTE   VOL   15*FE11MedeusBattleMeteorSR23_mvl/mxv
 BYTE   W03
 BYTE   VOL   16*FE11MedeusBattleMeteorSR23_mvl/mxv
 BYTE   W06
 BYTE   VOL   17*FE11MedeusBattleMeteorSR23_mvl/mxv
 BYTE   W05
 BYTE   N32  Bn2  v115  gtp3
 BYTE   W01
 BYTE   VOL   18*FE11MedeusBattleMeteorSR23_mvl/mxv
 BYTE   W02
 BYTE   N44  Fs3  v115  gtp3
 BYTE   W01
 BYTE   VOL   19*FE11MedeusBattleMeteorSR23_mvl/mxv
 BYTE   W01
 BYTE   EOT
 BYTE   Cn3
 BYTE   W01
 BYTE   PEND 
//  #05 //002   ----------------------------------------
Label_545BB0:
 BYTE   W04
 BYTE   VOL   20*FE11MedeusBattleMeteorSR23_mvl/mxv
 BYTE   W03
 BYTE   VOL   21*FE11MedeusBattleMeteorSR23_mvl/mxv
 BYTE   W03
 BYTE   VOL   22*FE11MedeusBattleMeteorSR23_mvl/mxv
 BYTE   W02
 BYTE   VOL   23*FE11MedeusBattleMeteorSR23_mvl/mxv
 BYTE   W12
 BYTE   N48  Dn3  v103  gtp3
 BYTE   W48
 BYTE   Ds3
 BYTE   W24
 BYTE   PEND 
//  #05 //003   ----------------------------------------
Label_545BC2:
 BYTE   W24
 BYTE   N48  Dn3  v103  gtp3
 BYTE   W48
 BYTE   Ds3
 BYTE   W24
 BYTE   PEND 
//  #05 //004   ----------------------------------------
 BYTE   PATT
  POIN2 Label_545BC2
//  #05 //005   ----------------------------------------
 BYTE   PATT
  POIN2 Label_545BC2
//  #05 //006   ----------------------------------------
 BYTE   PATT
  POIN2 Label_545BC2
//  #05 //007   ----------------------------------------
 BYTE   PATT
  POIN2 Label_545BC2
//  #05 //008   ----------------------------------------
 BYTE   W24
Label_545BE0:
 BYTE   W72
//  #05 //009   ----------------------------------------
 BYTE   W96
//  #05 //010   ----------------------------------------
 BYTE   W96
//  #05 //011   ----------------------------------------
 BYTE   W96
//  #05 //012   ----------------------------------------
 BYTE   W96
//  #05 //013   ----------------------------------------
 BYTE   TIE  En3  v109
 BYTE   W96
//  #05 //014   ----------------------------------------
 BYTE   W96
//  #05 //015   ----------------------------------------
 BYTE   W23
 BYTE   EOT
 BYTE   W72
 BYTE   W01
//  #05 //016   ----------------------------------------
 BYTE   W96
//  #05 //017   ----------------------------------------
 BYTE   W96
//  #05 //018   ----------------------------------------
 BYTE   W96
//  #05 //019   ----------------------------------------
Label_545BF1:
 BYTE   W84
 BYTE   N32  Fs3  v115  gtp3
 BYTE   W12
 BYTE   PEND 
//  #05 //020   ----------------------------------------
Label_545BF8:
 BYTE   W24
 BYTE   N44  Dn3  v103  gtp3
 BYTE   W48
 BYTE   Ds3
 BYTE   W24
 BYTE   PEND 
//  #05 //021   ----------------------------------------
 BYTE   PATT
  POIN2 Label_545BF8
//  #05 //022   ----------------------------------------
 BYTE   PATT
  POIN2 Label_545BF8
//  #05 //023   ----------------------------------------
 BYTE   PATT
  POIN2 Label_545BF8
//  #05 //024   ----------------------------------------
 BYTE   PATT
  POIN2 Label_545BF8
//  #05 //025   ----------------------------------------
 BYTE   PATT
  POIN2 Label_545BF8
//  #05 //026   ----------------------------------------
 BYTE   W24
 BYTE   GoTo
  POIN2 Label_545BE0
//  #05 //027   ----------------------------------------
 BYTE   W05
 BYTE   FINE

//**************** Track 6 (Midi-Chn.5) ****************//

FE11MedeusBattleMeteorSR23_006:
//  #06 //000   ----------------------------------------
 BYTE   KEYSH   FE11MedeusBattleMeteorSR23_key+0
 BYTE   VOICE   104
 BYTE   PAN   c_v+39
 BYTE   VOL   23*FE11MedeusBattleMeteorSR23_mvl/mxv
 BYTE   W24
 BYTE   TIE  Cn3  v127
 BYTE   W72
//  #06 //001   ----------------------------------------
 BYTE   PATT
  POIN2 Label_545B81
//  #06 //002   ----------------------------------------
 BYTE   PATT
  POIN2 Label_545BB0
//  #06 //003   ----------------------------------------
 BYTE   PATT
  POIN2 Label_545BC2
//  #06 //004   ----------------------------------------
 BYTE   PATT
  POIN2 Label_545BC2
//  #06 //005   ----------------------------------------
 BYTE   PATT
  POIN2 Label_545BC2
//  #06 //006   ----------------------------------------
 BYTE   PATT
  POIN2 Label_545BC2
//  #06 //007   ----------------------------------------
 BYTE   PATT
  POIN2 Label_545BC2
//  #06 //008   ----------------------------------------
 BYTE   W24
Label_545DCD:
 BYTE   W72
//  #06 //009   ----------------------------------------
 BYTE   W96
//  #06 //010   ----------------------------------------
 BYTE   W96
//  #06 //011   ----------------------------------------
 BYTE   W96
//  #06 //012   ----------------------------------------
 BYTE   W96
//  #06 //013   ----------------------------------------
 BYTE   TIE  En3  v109
 BYTE   W96
//  #06 //014   ----------------------------------------
 BYTE   W96
//  #06 //015   ----------------------------------------
 BYTE   W23
 BYTE   EOT
 BYTE   W72
 BYTE   W01
//  #06 //016   ----------------------------------------
 BYTE   W96
//  #06 //017   ----------------------------------------
 BYTE   W96
//  #06 //018   ----------------------------------------
 BYTE   W96
//  #06 //019   ----------------------------------------
 BYTE   PATT
  POIN2 Label_545BF1
//  #06 //020   ----------------------------------------
 BYTE   PATT
  POIN2 Label_545BF8
//  #06 //021   ----------------------------------------
 BYTE   PATT
  POIN2 Label_545BF8
//  #06 //022   ----------------------------------------
 BYTE   PATT
  POIN2 Label_545BF8
//  #06 //023   ----------------------------------------
 BYTE   PATT
  POIN2 Label_545BF8
//  #06 //024   ----------------------------------------
 BYTE   PATT
  POIN2 Label_545BF8
//  #06 //025   ----------------------------------------
 BYTE   PATT
  POIN2 Label_545BF8
//  #06 //026   ----------------------------------------
 BYTE   W24
 BYTE   GoTo
  POIN2 Label_545DCD
//  #06 //027   ----------------------------------------
 BYTE   W05
 BYTE   FINE

//**************** Track 7 (Midi-Chn.6) ****************//

FE11MedeusBattleMeteorSR23_007:
//  #07 //000   ----------------------------------------
 BYTE   KEYSH   FE11MedeusBattleMeteorSR23_key+0
 BYTE   VOICE   47
 BYTE   W96
//  #07 //001   ----------------------------------------
 BYTE   W96
//  #07 //002   ----------------------------------------
 BYTE   W96
//  #07 //003   ----------------------------------------
 BYTE   W96
//  #07 //004   ----------------------------------------
 BYTE   W96
//  #07 //005   ----------------------------------------
 BYTE   W96
//  #07 //006   ----------------------------------------
 BYTE   W96
//  #07 //007   ----------------------------------------
 BYTE   W96
//  #07 //008   ----------------------------------------
 BYTE   W24
Label_01002719:
 BYTE   VOL   73*FE11MedeusBattleMeteorSR23_mvl/mxv
 BYTE   N96  Cn3  v127
 BYTE   W72
//  #07 //009   ----------------------------------------
Label_0100271F:
 BYTE   W24
 BYTE   N96  Cn3  v127
 BYTE   W72
 BYTE   PEND 
//  #07 //010   ----------------------------------------
 BYTE   PATT
  POIN2 Label_0100271F
//  #07 //011   ----------------------------------------
 BYTE   PATT
  POIN2 Label_0100271F
//  #07 //012   ----------------------------------------
 BYTE   PATT
  POIN2 Label_0100271F
//  #07 //013   ----------------------------------------
 BYTE   W96
//  #07 //014   ----------------------------------------
 BYTE   W96
//  #07 //015   ----------------------------------------
 BYTE   W12
 BYTE   VOL   61*FE11MedeusBattleMeteorSR23_mvl/mxv
 BYTE   W01
 BYTE   VOL   48*FE11MedeusBattleMeteorSR23_mvl/mxv
 BYTE   W01
 BYTE   VOL   35*FE11MedeusBattleMeteorSR23_mvl/mxv
 BYTE   W01
 BYTE   VOL   9*FE11MedeusBattleMeteorSR23_mvl/mxv
 BYTE   W01
 BYTE   VOL   0*FE11MedeusBattleMeteorSR23_mvl/mxv
 BYTE   W01
 BYTE   VOL   0*FE11MedeusBattleMeteorSR23_mvl/mxv
 BYTE   W01
 BYTE   VOL   0*FE11MedeusBattleMeteorSR23_mvl/mxv
 BYTE   W01
 BYTE   VOL   0*FE11MedeusBattleMeteorSR23_mvl/mxv
 BYTE   W02
 BYTE   VOL   0*FE11MedeusBattleMeteorSR23_mvl/mxv
 BYTE   W01
 BYTE   VOL   0*FE11MedeusBattleMeteorSR23_mvl/mxv
 BYTE   W02
 BYTE   VOL   0*FE11MedeusBattleMeteorSR23_mvl/mxv
 BYTE   N96  Cn3  v085
 BYTE   W01
 BYTE   VOL   0*FE11MedeusBattleMeteorSR23_mvl/mxv
 BYTE   W02
 BYTE   VOL   0*FE11MedeusBattleMeteorSR23_mvl/mxv
 BYTE   W01
 BYTE   VOL   0*FE11MedeusBattleMeteorSR23_mvl/mxv
 BYTE   W02
 BYTE   VOL   0*FE11MedeusBattleMeteorSR23_mvl/mxv
 BYTE   W01
 BYTE   VOL   0*FE11MedeusBattleMeteorSR23_mvl/mxv
 BYTE   W02
 BYTE   VOL   0*FE11MedeusBattleMeteorSR23_mvl/mxv
 BYTE   W01
 BYTE   VOL   0*FE11MedeusBattleMeteorSR23_mvl/mxv
 BYTE   W02
 BYTE   VOL   0*FE11MedeusBattleMeteorSR23_mvl/mxv
 BYTE   W01
 BYTE   VOL   0*FE11MedeusBattleMeteorSR23_mvl/mxv
 BYTE   W02
 BYTE   VOL   0*FE11MedeusBattleMeteorSR23_mvl/mxv
 BYTE   W01
 BYTE   VOL   0*FE11MedeusBattleMeteorSR23_mvl/mxv
 BYTE   W02
 BYTE   VOL   0*FE11MedeusBattleMeteorSR23_mvl/mxv
 BYTE   W01
 BYTE   VOL   0*FE11MedeusBattleMeteorSR23_mvl/mxv
 BYTE   W02
 BYTE   VOL   0*FE11MedeusBattleMeteorSR23_mvl/mxv
 BYTE   W01
 BYTE   VOL   0*FE11MedeusBattleMeteorSR23_mvl/mxv
 BYTE   W02
 BYTE   VOL   0*FE11MedeusBattleMeteorSR23_mvl/mxv
 BYTE   W01
 BYTE   VOL   1*FE11MedeusBattleMeteorSR23_mvl/mxv
 BYTE   W02
 BYTE   VOL   2*FE11MedeusBattleMeteorSR23_mvl/mxv
 BYTE   W01
 BYTE   VOL   3*FE11MedeusBattleMeteorSR23_mvl/mxv
 BYTE   W02
 BYTE   VOL   5*FE11MedeusBattleMeteorSR23_mvl/mxv
 BYTE   W01
 BYTE   VOL   6*FE11MedeusBattleMeteorSR23_mvl/mxv
 BYTE   W02
 BYTE   VOL   8*FE11MedeusBattleMeteorSR23_mvl/mxv
 BYTE   W01
 BYTE   VOL   10*FE11MedeusBattleMeteorSR23_mvl/mxv
 BYTE   W02
 BYTE   VOL   11*FE11MedeusBattleMeteorSR23_mvl/mxv
 BYTE   W01
 BYTE   VOL   12*FE11MedeusBattleMeteorSR23_mvl/mxv
 BYTE   W02
 BYTE   VOL   14*FE11MedeusBattleMeteorSR23_mvl/mxv
 BYTE   W01
 BYTE   VOL   15*FE11MedeusBattleMeteorSR23_mvl/mxv
 BYTE   W02
 BYTE   VOL   17*FE11MedeusBattleMeteorSR23_mvl/mxv
 BYTE   W01
 BYTE   VOL   19*FE11MedeusBattleMeteorSR23_mvl/mxv
 BYTE   W02
 BYTE   VOL   20*FE11MedeusBattleMeteorSR23_mvl/mxv
 BYTE   W01
 BYTE   VOL   21*FE11MedeusBattleMeteorSR23_mvl/mxv
 BYTE   W02
 BYTE   VOL   23*FE11MedeusBattleMeteorSR23_mvl/mxv
 BYTE   W01
 BYTE   VOL   24*FE11MedeusBattleMeteorSR23_mvl/mxv
 BYTE   W02
 BYTE   VOL   26*FE11MedeusBattleMeteorSR23_mvl/mxv
 BYTE   W01
 BYTE   VOL   28*FE11MedeusBattleMeteorSR23_mvl/mxv
 BYTE   W03
 BYTE   VOL   30*FE11MedeusBattleMeteorSR23_mvl/mxv
 BYTE   W02
 BYTE   VOL   32*FE11MedeusBattleMeteorSR23_mvl/mxv
 BYTE   W01
 BYTE   VOL   33*FE11MedeusBattleMeteorSR23_mvl/mxv
 BYTE   W02
 BYTE   VOL   35*FE11MedeusBattleMeteorSR23_mvl/mxv
 BYTE   W01
 BYTE   VOL   37*FE11MedeusBattleMeteorSR23_mvl/mxv
 BYTE   W03
 BYTE   VOL   39*FE11MedeusBattleMeteorSR23_mvl/mxv
 BYTE   W02
 BYTE   VOL   41*FE11MedeusBattleMeteorSR23_mvl/mxv
 BYTE   W01
 BYTE   VOL   42*FE11MedeusBattleMeteorSR23_mvl/mxv
 BYTE   W02
 BYTE   VOL   44*FE11MedeusBattleMeteorSR23_mvl/mxv
 BYTE   W01
 BYTE   VOL   45*FE11MedeusBattleMeteorSR23_mvl/mxv
 BYTE   W02
//  #07 //016   ----------------------------------------
 BYTE   VOL   46*FE11MedeusBattleMeteorSR23_mvl/mxv
 BYTE   W01
 BYTE   VOL   48*FE11MedeusBattleMeteorSR23_mvl/mxv
 BYTE   W02
 BYTE   VOL   49*FE11MedeusBattleMeteorSR23_mvl/mxv
 BYTE   W01
 BYTE   VOL   51*FE11MedeusBattleMeteorSR23_mvl/mxv
 BYTE   W02
 BYTE   VOL   53*FE11MedeusBattleMeteorSR23_mvl/mxv
 BYTE   W01
 BYTE   VOL   54*FE11MedeusBattleMeteorSR23_mvl/mxv
 BYTE   W02
 BYTE   VOL   55*FE11MedeusBattleMeteorSR23_mvl/mxv
 BYTE   W01
 BYTE   VOL   57*FE11MedeusBattleMeteorSR23_mvl/mxv
 BYTE   W02
 BYTE   VOL   58*FE11MedeusBattleMeteorSR23_mvl/mxv
 BYTE   W01
 BYTE   VOL   60*FE11MedeusBattleMeteorSR23_mvl/mxv
 BYTE   W02
 BYTE   VOL   62*FE11MedeusBattleMeteorSR23_mvl/mxv
 BYTE   W03
 BYTE   VOL   64*FE11MedeusBattleMeteorSR23_mvl/mxv
 BYTE   W01
 BYTE   VOL   66*FE11MedeusBattleMeteorSR23_mvl/mxv
 BYTE   W02
 BYTE   VOL   67*FE11MedeusBattleMeteorSR23_mvl/mxv
 BYTE   W01
 BYTE   VOL   69*FE11MedeusBattleMeteorSR23_mvl/mxv
 BYTE   W02
 BYTE   VOL   71*FE11MedeusBattleMeteorSR23_mvl/mxv
 BYTE   N36
 BYTE   W02
 BYTE   VOL   73*FE11MedeusBattleMeteorSR23_mvl/mxv
 BYTE   W24
 BYTE   W02
 BYTE   VOL   72*FE11MedeusBattleMeteorSR23_mvl/mxv
 BYTE   W01
 BYTE   VOL   71*FE11MedeusBattleMeteorSR23_mvl/mxv
 BYTE   W03
 BYTE   VOL   70*FE11MedeusBattleMeteorSR23_mvl/mxv
 BYTE   W03
 BYTE   VOL   69*FE11MedeusBattleMeteorSR23_mvl/mxv
 BYTE   W01
 BYTE   N56  Cn3  v085  gtp3
 BYTE   W01
 BYTE   VOL   68*FE11MedeusBattleMeteorSR23_mvl/mxv
 BYTE   W01
 BYTE   VOL   67*FE11MedeusBattleMeteorSR23_mvl/mxv
 BYTE   W03
 BYTE   VOL   66*FE11MedeusBattleMeteorSR23_mvl/mxv
 BYTE   W02
 BYTE   VOL   65*FE11MedeusBattleMeteorSR23_mvl/mxv
 BYTE   W01
 BYTE   VOL   64*FE11MedeusBattleMeteorSR23_mvl/mxv
 BYTE   W02
 BYTE   VOL   63*FE11MedeusBattleMeteorSR23_mvl/mxv
 BYTE   W01
 BYTE   VOL   62*FE11MedeusBattleMeteorSR23_mvl/mxv
 BYTE   W03
 BYTE   VOL   61*FE11MedeusBattleMeteorSR23_mvl/mxv
 BYTE   W02
 BYTE   VOL   60*FE11MedeusBattleMeteorSR23_mvl/mxv
 BYTE   W01
 BYTE   VOL   59*FE11MedeusBattleMeteorSR23_mvl/mxv
 BYTE   W02
 BYTE   VOL   58*FE11MedeusBattleMeteorSR23_mvl/mxv
 BYTE   W03
 BYTE   VOL   57*FE11MedeusBattleMeteorSR23_mvl/mxv
 BYTE   W01
 BYTE   VOL   56*FE11MedeusBattleMeteorSR23_mvl/mxv
 BYTE   W02
 BYTE   VOL   55*FE11MedeusBattleMeteorSR23_mvl/mxv
 BYTE   W01
 BYTE   VOL   54*FE11MedeusBattleMeteorSR23_mvl/mxv
 BYTE   W03
 BYTE   VOL   52*FE11MedeusBattleMeteorSR23_mvl/mxv
 BYTE   W02
 BYTE   VOL   51*FE11MedeusBattleMeteorSR23_mvl/mxv
 BYTE   W01
 BYTE   VOL   50*FE11MedeusBattleMeteorSR23_mvl/mxv
 BYTE   W02
 BYTE   VOL   49*FE11MedeusBattleMeteorSR23_mvl/mxv
 BYTE   W01
 BYTE   VOL   48*FE11MedeusBattleMeteorSR23_mvl/mxv
 BYTE   W01
//  #07 //017   ----------------------------------------
 BYTE   W01
 BYTE   VOL   47*FE11MedeusBattleMeteorSR23_mvl/mxv
 BYTE   W01
 BYTE   VOL   46*FE11MedeusBattleMeteorSR23_mvl/mxv
 BYTE   W02
 BYTE   VOL   45*FE11MedeusBattleMeteorSR23_mvl/mxv
 BYTE   W01
 BYTE   VOL   44*FE11MedeusBattleMeteorSR23_mvl/mxv
 BYTE   W02
 BYTE   VOL   43*FE11MedeusBattleMeteorSR23_mvl/mxv
 BYTE   W01
 BYTE   VOL   41*FE11MedeusBattleMeteorSR23_mvl/mxv
 BYTE   W03
 BYTE   VOL   39*FE11MedeusBattleMeteorSR23_mvl/mxv
 BYTE   W02
 BYTE   VOL   38*FE11MedeusBattleMeteorSR23_mvl/mxv
 BYTE   W01
 BYTE   VOL   37*FE11MedeusBattleMeteorSR23_mvl/mxv
 BYTE   W02
 BYTE   VOL   35*FE11MedeusBattleMeteorSR23_mvl/mxv
 BYTE   W01
 BYTE   VOL   34*FE11MedeusBattleMeteorSR23_mvl/mxv
 BYTE   W02
 BYTE   VOL   32*FE11MedeusBattleMeteorSR23_mvl/mxv
 BYTE   W01
 BYTE   VOL   31*FE11MedeusBattleMeteorSR23_mvl/mxv
 BYTE   W02
 BYTE   VOL   30*FE11MedeusBattleMeteorSR23_mvl/mxv
 BYTE   W01
 BYTE   VOL   28*FE11MedeusBattleMeteorSR23_mvl/mxv
 BYTE   W02
 BYTE   VOL   27*FE11MedeusBattleMeteorSR23_mvl/mxv
 BYTE   W01
 BYTE   VOL   25*FE11MedeusBattleMeteorSR23_mvl/mxv
 BYTE   W02
 BYTE   VOL   24*FE11MedeusBattleMeteorSR23_mvl/mxv
 BYTE   W01
 BYTE   VOL   22*FE11MedeusBattleMeteorSR23_mvl/mxv
 BYTE   W02
 BYTE   VOL   20*FE11MedeusBattleMeteorSR23_mvl/mxv
 BYTE   W01
 BYTE   VOL   19*FE11MedeusBattleMeteorSR23_mvl/mxv
 BYTE   W02
 BYTE   VOL   17*FE11MedeusBattleMeteorSR23_mvl/mxv
 BYTE   W01
 BYTE   VOL   15*FE11MedeusBattleMeteorSR23_mvl/mxv
 BYTE   W02
 BYTE   VOL   14*FE11MedeusBattleMeteorSR23_mvl/mxv
 BYTE   W01
 BYTE   VOL   12*FE11MedeusBattleMeteorSR23_mvl/mxv
 BYTE   W02
 BYTE   VOL   10*FE11MedeusBattleMeteorSR23_mvl/mxv
 BYTE   W01
 BYTE   VOL   8*FE11MedeusBattleMeteorSR23_mvl/mxv
 BYTE   W02
 BYTE   VOL   6*FE11MedeusBattleMeteorSR23_mvl/mxv
 BYTE   W01
 BYTE   VOL   4*FE11MedeusBattleMeteorSR23_mvl/mxv
 BYTE   W02
 BYTE   VOL   2*FE11MedeusBattleMeteorSR23_mvl/mxv
 BYTE   W01
 BYTE   VOL   0*FE11MedeusBattleMeteorSR23_mvl/mxv
 BYTE   W02
 BYTE   VOL   0*FE11MedeusBattleMeteorSR23_mvl/mxv
 BYTE   W01
 BYTE   VOL   0*FE11MedeusBattleMeteorSR23_mvl/mxv
 BYTE   W02
 BYTE   VOL   0*FE11MedeusBattleMeteorSR23_mvl/mxv
 BYTE   W01
 BYTE   VOL   0*FE11MedeusBattleMeteorSR23_mvl/mxv
 BYTE   W02
 BYTE   VOL   0*FE11MedeusBattleMeteorSR23_mvl/mxv
 BYTE   W01
 BYTE   VOL   0*FE11MedeusBattleMeteorSR23_mvl/mxv
 BYTE   W02
 BYTE   VOL   0*FE11MedeusBattleMeteorSR23_mvl/mxv
 BYTE   W01
 BYTE   VOL   0*FE11MedeusBattleMeteorSR23_mvl/mxv
 BYTE   W02
 BYTE   VOL   0*FE11MedeusBattleMeteorSR23_mvl/mxv
 BYTE   W01
 BYTE   VOL   0*FE11MedeusBattleMeteorSR23_mvl/mxv
 BYTE   W02
 BYTE   VOL   0*FE11MedeusBattleMeteorSR23_mvl/mxv
 BYTE   W32
//  #07 //018   ----------------------------------------
 BYTE   W32
 BYTE   W03
 BYTE   VOL   0*FE11MedeusBattleMeteorSR23_mvl/mxv
 BYTE   W01
 BYTE   VOL   0*FE11MedeusBattleMeteorSR23_mvl/mxv
 BYTE   W02
 BYTE   VOL   0*FE11MedeusBattleMeteorSR23_mvl/mxv
 BYTE   W01
 BYTE   VOL   0*FE11MedeusBattleMeteorSR23_mvl/mxv
 BYTE   W02
 BYTE   VOL   0*FE11MedeusBattleMeteorSR23_mvl/mxv
 BYTE   W01
 BYTE   VOL   0*FE11MedeusBattleMeteorSR23_mvl/mxv
 BYTE   W02
 BYTE   VOL   0*FE11MedeusBattleMeteorSR23_mvl/mxv
 BYTE   W01
 BYTE   VOL   0*FE11MedeusBattleMeteorSR23_mvl/mxv
 BYTE   W02
 BYTE   VOL   0*FE11MedeusBattleMeteorSR23_mvl/mxv
 BYTE   W01
 BYTE   VOL   0*FE11MedeusBattleMeteorSR23_mvl/mxv
 BYTE   W02
 BYTE   VOL   0*FE11MedeusBattleMeteorSR23_mvl/mxv
 BYTE   W01
 BYTE   VOL   0*FE11MedeusBattleMeteorSR23_mvl/mxv
 BYTE   W02
 BYTE   VOL   0*FE11MedeusBattleMeteorSR23_mvl/mxv
 BYTE   W01
 BYTE   VOL   0*FE11MedeusBattleMeteorSR23_mvl/mxv
 BYTE   W02
 BYTE   VOL   0*FE11MedeusBattleMeteorSR23_mvl/mxv
 BYTE   W01
 BYTE   VOL   1*FE11MedeusBattleMeteorSR23_mvl/mxv
 BYTE   W02
 BYTE   VOL   2*FE11MedeusBattleMeteorSR23_mvl/mxv
 BYTE   W01
 BYTE   VOL   4*FE11MedeusBattleMeteorSR23_mvl/mxv
 BYTE   W02
 BYTE   VOL   6*FE11MedeusBattleMeteorSR23_mvl/mxv
 BYTE   W01
 BYTE   VOL   8*FE11MedeusBattleMeteorSR23_mvl/mxv
 BYTE   W02
 BYTE   VOL   11*FE11MedeusBattleMeteorSR23_mvl/mxv
 BYTE   W01
 BYTE   VOL   12*FE11MedeusBattleMeteorSR23_mvl/mxv
 BYTE   W02
 BYTE   VOL   14*FE11MedeusBattleMeteorSR23_mvl/mxv
 BYTE   W01
 BYTE   VOL   16*FE11MedeusBattleMeteorSR23_mvl/mxv
 BYTE   W02
 BYTE   VOL   18*FE11MedeusBattleMeteorSR23_mvl/mxv
 BYTE   W01
 BYTE   N11
 BYTE   VOL   19*FE11MedeusBattleMeteorSR23_mvl/mxv
 BYTE   W02
 BYTE   VOL   22*FE11MedeusBattleMeteorSR23_mvl/mxv
 BYTE   W01
 BYTE   VOL   24*FE11MedeusBattleMeteorSR23_mvl/mxv
 BYTE   W02
 BYTE   VOL   26*FE11MedeusBattleMeteorSR23_mvl/mxv
 BYTE   W01
 BYTE   VOL   28*FE11MedeusBattleMeteorSR23_mvl/mxv
 BYTE   W02
 BYTE   VOL   29*FE11MedeusBattleMeteorSR23_mvl/mxv
 BYTE   W01
 BYTE   VOL   32*FE11MedeusBattleMeteorSR23_mvl/mxv
 BYTE   W02
 BYTE   VOL   33*FE11MedeusBattleMeteorSR23_mvl/mxv
 BYTE   W01
 BYTE   N11
 BYTE   VOL   35*FE11MedeusBattleMeteorSR23_mvl/mxv
 BYTE   W02
 BYTE   VOL   37*FE11MedeusBattleMeteorSR23_mvl/mxv
 BYTE   W01
 BYTE   VOL   39*FE11MedeusBattleMeteorSR23_mvl/mxv
 BYTE   W02
 BYTE   VOL   41*FE11MedeusBattleMeteorSR23_mvl/mxv
 BYTE   W01
 BYTE   VOL   43*FE11MedeusBattleMeteorSR23_mvl/mxv
 BYTE   W02
 BYTE   VOL   45*FE11MedeusBattleMeteorSR23_mvl/mxv
 BYTE   W01
 BYTE   VOL   47*FE11MedeusBattleMeteorSR23_mvl/mxv
 BYTE   W02
 BYTE   VOL   49*FE11MedeusBattleMeteorSR23_mvl/mxv
 BYTE   W01
//  #07 //019   ----------------------------------------
 BYTE   N11
 BYTE   VOL   51*FE11MedeusBattleMeteorSR23_mvl/mxv
 BYTE   W02
 BYTE   VOL   53*FE11MedeusBattleMeteorSR23_mvl/mxv
 BYTE   W01
 BYTE   VOL   54*FE11MedeusBattleMeteorSR23_mvl/mxv
 BYTE   W02
 BYTE   VOL   57*FE11MedeusBattleMeteorSR23_mvl/mxv
 BYTE   W01
 BYTE   VOL   58*FE11MedeusBattleMeteorSR23_mvl/mxv
 BYTE   W02
 BYTE   VOL   60*FE11MedeusBattleMeteorSR23_mvl/mxv
 BYTE   W01
 BYTE   VOL   62*FE11MedeusBattleMeteorSR23_mvl/mxv
 BYTE   W02
 BYTE   VOL   64*FE11MedeusBattleMeteorSR23_mvl/mxv
 BYTE   W01
 BYTE   N11
 BYTE   VOL   67*FE11MedeusBattleMeteorSR23_mvl/mxv
 BYTE   W02
 BYTE   VOL   68*FE11MedeusBattleMeteorSR23_mvl/mxv
 BYTE   W01
 BYTE   VOL   70*FE11MedeusBattleMeteorSR23_mvl/mxv
 BYTE   W02
 BYTE   VOL   73*FE11MedeusBattleMeteorSR23_mvl/mxv
 BYTE   W07
 BYTE   N05  Cn3  v081
 BYTE   W06
 BYTE   Cn3  v085
 BYTE   W06
 BYTE   Cn3  v089
 BYTE   W06
 BYTE   Cn3  v093
 BYTE   W06
 BYTE   N02  Cn3  v098
 BYTE   W03
 BYTE   Cn3  v100
 BYTE   W03
 BYTE   Cn3  v102
 BYTE   W03
 BYTE   Cn3  v104
 BYTE   W03
 BYTE   Cn3  v106
 BYTE   W03
 BYTE   Cn3  v108
 BYTE   W03
 BYTE   Cn3  v110
 BYTE   W03
 BYTE   Cn3  v113
 BYTE   W03
 BYTE   Cn3  v115
 BYTE   W03
 BYTE   Cn3  v117
 BYTE   W03
 BYTE   Cn3  v119
 BYTE   W03
 BYTE   Cn3  v121
 BYTE   W15
//  #07 //020   ----------------------------------------
 BYTE   W96
//  #07 //021   ----------------------------------------
 BYTE   W96
//  #07 //022   ----------------------------------------
 BYTE   W96
//  #07 //023   ----------------------------------------
 BYTE   W96
//  #07 //024   ----------------------------------------
 BYTE   W96
//  #07 //025   ----------------------------------------
 BYTE   W96
//  #07 //026   ----------------------------------------
 BYTE   W24
 BYTE   GoTo
  POIN2 Label_01002719
//  #07 //027   ----------------------------------------
 BYTE   W05
 BYTE   FINE

//**************** Track 8 (Midi-Chn.7) ****************//

FE11MedeusBattleMeteorSR23_008:
//  #08 //000   ----------------------------------------
 BYTE   KEYSH   FE11MedeusBattleMeteorSR23_key+0
 BYTE   W96
//  #08 //001   ----------------------------------------
 BYTE   W96
//  #08 //002   ----------------------------------------
 BYTE   W96
//  #08 //003   ----------------------------------------
 BYTE   W24
 BYTE   VOICE   14
 BYTE   VOL   74*FE11MedeusBattleMeteorSR23_mvl/mxv
 BYTE   PAN   c_v+28
 BYTE   N78  An3  v127  gtp1
 BYTE   W72
//  #08 //004   ----------------------------------------
 BYTE   W96
//  #08 //005   ----------------------------------------
Label_01002922:
 BYTE   W24
 BYTE   N78  An3  v127  gtp1
 BYTE   W72
 BYTE   PEND 
//  #08 //006   ----------------------------------------
 BYTE   W96
//  #08 //007   ----------------------------------------
 BYTE   PATT
  POIN2 Label_01002922
//  #08 //008   ----------------------------------------
 BYTE   W24
Label_01002930:
 BYTE   BENDR  12
 BYTE   VOICE   104
 BYTE   PAN   c_v-27
 BYTE   VOL   57*FE11MedeusBattleMeteorSR23_mvl/mxv
 BYTE   N44  Cn3  v127  gtp3
 BYTE   W48
 BYTE   N68  An2  v119  gtp3
 BYTE   W17
 BYTE   MOD 3
 BYTE   W01
 BYTE   MOD 6
 BYTE   W01
 BYTE   MOD 12
 BYTE   W01
 BYTE   MOD 15
 BYTE   W01
 BYTE   MOD 19
 BYTE   W01
 BYTE   MOD 25
 BYTE   W01
 BYTE   MOD 28
 BYTE   W01
//  #08 //009   ----------------------------------------
 BYTE   MOD 31
 BYTE   W01
 BYTE   MOD 38
 BYTE   W01
 BYTE   MOD 41
 BYTE   W01
 BYTE   MOD 44
 BYTE   W01
 BYTE   MOD 51
 BYTE   W18
 BYTE   MOD 49
 BYTE   W02
 BYTE   MOD 46
 BYTE   W01
 BYTE   MOD 43
 BYTE   W02
 BYTE   MOD 40
 BYTE   W01
 BYTE   MOD 37
 BYTE   W02
 BYTE   MOD 34
 BYTE   W01
 BYTE   BEND   c_v-1
 BYTE   MOD 31
 BYTE   W02
 BYTE   MOD 28
 BYTE   W01
 BYTE   BEND   c_v-2
 BYTE   MOD 25
 BYTE   W02
 BYTE   MOD 23
 BYTE   W01
 BYTE   BEND   c_v-4
 BYTE   MOD 20
 BYTE   W02
 BYTE   MOD 17
 BYTE   W01
 BYTE   BEND   c_v-6
 BYTE   MOD 14
 BYTE   W02
 BYTE   MOD 11
 BYTE   W01
 BYTE   BEND   c_v-8
 BYTE   MOD 8
 BYTE   W02
 BYTE   MOD 5
 BYTE   W01
 BYTE   BEND   c_v-12
 BYTE   MOD 2
 BYTE   W01
 BYTE   MOD 0
 BYTE   W01
 BYTE   N23  Fs2  v120
 BYTE   BEND   c_v-16
 BYTE   W03
 BYTE   BEND   c_v-15
 BYTE   W03
 BYTE   BEND   c_v-13
 BYTE   W03
 BYTE   BEND   c_v-11
 BYTE   W03
 BYTE   BEND   c_v-8
 BYTE   W03
 BYTE   BEND   c_v-4
 BYTE   W03
 BYTE   BEND   c_v+0
 BYTE   W06
 BYTE   N23  An2  v109
 BYTE   W24
//  #08 //010   ----------------------------------------
 BYTE   Cn3  v117
 BYTE   W24
 BYTE   N44  Ds3  v116  gtp3
 BYTE   W48
 BYTE   En3
 BYTE   W01
 BYTE   BEND   c_v+2
 BYTE   W03
 BYTE   BEND   c_v+4
 BYTE   W03
 BYTE   BEND   c_v+6
 BYTE   W03
 BYTE   BEND   c_v+9
 BYTE   W02
 BYTE   BEND   c_v+11
 BYTE   W12
//  #08 //011   ----------------------------------------
 BYTE   W24
 BYTE   BEND   c_v+0
 BYTE   N44  An3  v107  gtp3
 BYTE   W48
 BYTE   Ds4  v103
 BYTE   W24
//  #08 //012   ----------------------------------------
 BYTE   W24
 BYTE   N92  En4  v127
 BYTE   W04
 BYTE   VOL   50*FE11MedeusBattleMeteorSR23_mvl/mxv
 BYTE   W01
 BYTE   VOL   43*FE11MedeusBattleMeteorSR23_mvl/mxv
 BYTE   W01
 BYTE   VOL   35*FE11MedeusBattleMeteorSR23_mvl/mxv
 BYTE   W01
 BYTE   VOL   21*FE11MedeusBattleMeteorSR23_mvl/mxv
 BYTE   W01
 BYTE   VOL   18*FE11MedeusBattleMeteorSR23_mvl/mxv
 BYTE   W02
 BYTE   MOD 3
 BYTE   W02
 BYTE   MOD 6
 BYTE   W01
 BYTE   MOD 9
 BYTE   W01
 BYTE   VOL   19*FE11MedeusBattleMeteorSR23_mvl/mxv
 BYTE   W01
 BYTE   MOD 12
 BYTE   W01
 BYTE   MOD 15
 BYTE   W02
 BYTE   MOD 18
 BYTE   W01
 BYTE   MOD 21
 BYTE   W02
 BYTE   MOD 24
 BYTE   W01
 BYTE   MOD 27
 BYTE   W01
 BYTE   VOL   20*FE11MedeusBattleMeteorSR23_mvl/mxv
 BYTE   W01
 BYTE   MOD 30
 BYTE   W01
 BYTE   MOD 33
 BYTE   W01
 BYTE   VOL   21*FE11MedeusBattleMeteorSR23_mvl/mxv
 BYTE   W01
 BYTE   MOD 37
 BYTE   W01
 BYTE   MOD 40
 BYTE   W02
 BYTE   MOD 43
 BYTE   W01
 BYTE   MOD 46
 BYTE   W01
 BYTE   VOL   22*FE11MedeusBattleMeteorSR23_mvl/mxv
 BYTE   W01
 BYTE   MOD 49
 BYTE   W01
 BYTE   MOD 51
 BYTE   W01
 BYTE   VOL   23*FE11MedeusBattleMeteorSR23_mvl/mxv
 BYTE   W03
 BYTE   VOL   24*FE11MedeusBattleMeteorSR23_mvl/mxv
 BYTE   W03
 BYTE   VOL   25*FE11MedeusBattleMeteorSR23_mvl/mxv
 BYTE   W06
 BYTE   VOL   27*FE11MedeusBattleMeteorSR23_mvl/mxv
 BYTE   W03
 BYTE   VOL   28*FE11MedeusBattleMeteorSR23_mvl/mxv
 BYTE   W03
 BYTE   VOL   29*FE11MedeusBattleMeteorSR23_mvl/mxv
 BYTE   W03
 BYTE   VOL   30*FE11MedeusBattleMeteorSR23_mvl/mxv
 BYTE   W03
 BYTE   VOL   32*FE11MedeusBattleMeteorSR23_mvl/mxv
 BYTE   W03
 BYTE   VOL   33*FE11MedeusBattleMeteorSR23_mvl/mxv
 BYTE   W02
 BYTE   MOD 49
 BYTE   W01
 BYTE   VOL   35*FE11MedeusBattleMeteorSR23_mvl/mxv
 BYTE   W01
 BYTE   MOD 46
 BYTE   W01
 BYTE   MOD 43
 BYTE   W01
 BYTE   VOL   36*FE11MedeusBattleMeteorSR23_mvl/mxv
 BYTE   W01
 BYTE   MOD 41
 BYTE   W01
 BYTE   BEND   c_v-1
 BYTE   MOD 38
 BYTE   W01
 BYTE   VOL   39*FE11MedeusBattleMeteorSR23_mvl/mxv
 BYTE   W01
//  #08 //013   ----------------------------------------
 BYTE   BEND   c_v-2
 BYTE   MOD 35
 BYTE   W01
 BYTE   BEND   c_v-4
 BYTE   MOD 32
 BYTE   W01
 BYTE   VOL   41*FE11MedeusBattleMeteorSR23_mvl/mxv
 BYTE   W01
 BYTE   BEND   c_v-6
 BYTE   MOD 30
 BYTE   W01
 BYTE   BEND   c_v-7
 BYTE   MOD 27
 BYTE   W01
 BYTE   VOL   44*FE11MedeusBattleMeteorSR23_mvl/mxv
 BYTE   W01
 BYTE   BEND   c_v-10
 BYTE   MOD 24
 BYTE   W01
 BYTE   BEND   c_v-12
 BYTE   MOD 21
 BYTE   W01
 BYTE   VOL   47*FE11MedeusBattleMeteorSR23_mvl/mxv
 BYTE   W01
 BYTE   BEND   c_v-14
 BYTE   MOD 19
 BYTE   W01
 BYTE   BEND   c_v-17
 BYTE   MOD 16
 BYTE   W01
 BYTE   VOL   50*FE11MedeusBattleMeteorSR23_mvl/mxv
 BYTE   W01
 BYTE   BEND   c_v-21
 BYTE   MOD 13
 BYTE   W01
 BYTE   BEND   c_v-24
 BYTE   MOD 11
 BYTE   W01
 BYTE   VOL   54*FE11MedeusBattleMeteorSR23_mvl/mxv
 BYTE   W01
 BYTE   BEND   c_v-29
 BYTE   MOD 8
 BYTE   VOL   57*FE11MedeusBattleMeteorSR23_mvl/mxv
 BYTE   W01
 BYTE   BEND   c_v-34
 BYTE   MOD 5
 BYTE   W02
 BYTE   BEND   c_v-40
 BYTE   MOD 2
 BYTE   W01
 BYTE   MOD 0
 BYTE   BEND   c_v-47
 BYTE   W02
 BYTE   BEND   c_v-55
 BYTE   W01
 BYTE   BEND   c_v-38
 BYTE   W01
 BYTE   BEND   c_v-11
 BYTE   W01
 BYTE   VOICE   11
 BYTE   VOL   97*FE11MedeusBattleMeteorSR23_mvl/mxv
 BYTE   PAN   c_v+24
 BYTE   BEND   c_v+0
 BYTE   N03  Cs4  v072
 BYTE   N03  Fs4
 BYTE   W03
 BYTE   Cs4  v014
 BYTE   N03  Fs4
 BYTE   W03
 BYTE   Cs4  v069
 BYTE   N03  Fs4
 BYTE   W03
 BYTE   Cs4  v014
 BYTE   N03  Fs4
 BYTE   W21
 BYTE   N02  Bn3  v081
 BYTE   N02  Cn4  v090
 BYTE   W03
 BYTE   Bn3  v023
 BYTE   N02  Cn4  v032
 BYTE   W03
 BYTE   Bn3  v084
 BYTE   N02  Cn4  v092
 BYTE   W03
 BYTE   Bn3  v026
 BYTE   N02  Cn4  v035
 BYTE   W09
 BYTE   N03  Bn3  v083
 BYTE   N03  Cn4  v085
 BYTE   W03
 BYTE   Bn3  v025
 BYTE   N03  Cn4  v027
 BYTE   W03
 BYTE   Bn3  v083
 BYTE   N03  Cn4  v088
 BYTE   W03
 BYTE   Bn3  v025
 BYTE   N03  Cn4  v030
 BYTE   W03
 BYTE   Bn3  v081
 BYTE   N03  Cn4  v088
 BYTE   W03
 BYTE   Bn3  v023
 BYTE   N03  Cn4  v030
 BYTE   W09
//  #08 //014   ----------------------------------------
 BYTE   W06
 BYTE   Bn3  v086
 BYTE   N03  Cn4  v089
 BYTE   W03
 BYTE   Bn3  v028
 BYTE   N03  Cn4  v031
 BYTE   W15
 BYTE   Cs4  v073
 BYTE   N03  Fs4  v070
 BYTE   W03
 BYTE   Cs4  v014
 BYTE   N03  Fs4
 BYTE   W03
 BYTE   Cs4  v071
 BYTE   N03  Fs4  v073
 BYTE   W03
 BYTE   Cs4  v014
 BYTE   N03  Fs4
 BYTE   W21
 BYTE   Bn3  v085
 BYTE   N03  Cn4  v088
 BYTE   W03
 BYTE   Bn3  v027
 BYTE   N03  Cn4  v030
 BYTE   W03
 BYTE   Bn3  v090
 BYTE   N03  Cn4  v099
 BYTE   W03
 BYTE   Bn3  v032
 BYTE   N03  Cn4  v040
 BYTE   W09
 BYTE   Bn3  v090
 BYTE   N03  Cn4  v095
 BYTE   W03
 BYTE   Bn3  v032
 BYTE   N03  Cn4  v037
 BYTE   W03
 BYTE   Bn3  v094
 BYTE   N03  Cn4  v101
 BYTE   W03
 BYTE   Bn3  v036
 BYTE   N03  Cn4  v042
 BYTE   W03
 BYTE   Bn3  v095
 BYTE   N03  Cn4  v097
 BYTE   W03
 BYTE   Bn3  v037
 BYTE   N03  Cn4  v039
 BYTE   W09
//  #08 //015   ----------------------------------------
 BYTE   W06
 BYTE   Bn3  v097
 BYTE   N03  Cn4  v102
 BYTE   W03
 BYTE   Bn3  v039
 BYTE   N03  Cn4  v043
 BYTE   W15
 BYTE   VOICE   104
 BYTE   PAN   c_v-27
 BYTE   VOL   57*FE11MedeusBattleMeteorSR23_mvl/mxv
 BYTE   N02  An2  v109
 BYTE   W06
 BYTE   Fn2  v111
 BYTE   W06
 BYTE   En2  v107
 BYTE   W06
 BYTE   Fn2  v104
 BYTE   W06
 BYTE   An2  v107
 BYTE   W06
 BYTE   Fn2  v111
 BYTE   W06
 BYTE   En2  v103
 BYTE   W06
 BYTE   Fn2  v105
 BYTE   W06
 BYTE   An2
 BYTE   W06
 BYTE   Fn2  v111
 BYTE   W06
 BYTE   En2  v107
 BYTE   W06
 BYTE   Fn2  v103
 BYTE   W06
//  #08 //016   ----------------------------------------
 BYTE   An2  v105
 BYTE   W06
 BYTE   Fn2  v109
 BYTE   W06
 BYTE   En2  v107
 BYTE   W06
 BYTE   Fn2  v104
 BYTE   W06
 BYTE   An2  v109
 BYTE   W06
 BYTE   Fn2  v111
 BYTE   W06
 BYTE   En2  v107
 BYTE   W06
 BYTE   Fn2  v104
 BYTE   W06
 BYTE   An2  v107
 BYTE   W06
 BYTE   Fn2  v111
 BYTE   W06
 BYTE   En2  v103
 BYTE   W06
 BYTE   Fn2  v105
 BYTE   W06
 BYTE   An2
 BYTE   W06
 BYTE   Fn2  v111
 BYTE   W06
 BYTE   En2  v107
 BYTE   W06
 BYTE   Fn2  v103
 BYTE   W06
//  #08 //017   ----------------------------------------
 BYTE   An2  v105
 BYTE   W06
 BYTE   Fn2  v109
 BYTE   N02  Cn3  v105
 BYTE   W06
 BYTE   En2  v107
 BYTE   N02  Bn2  v105
 BYTE   W06
 BYTE   Fn2  v104
 BYTE   N02  Cn3  v105
 BYTE   W06
 BYTE   An2  v109
 BYTE   W06
 BYTE   Fn2  v111
 BYTE   W06
 BYTE   En2  v109
 BYTE   W06
 BYTE   Fn2  v101
 BYTE   W06
 BYTE   An2  v111
 BYTE   W06
 BYTE   Fn2  v115
 BYTE   W06
 BYTE   En2  v107
 BYTE   W06
 BYTE   Fn2
 BYTE   W06
 BYTE   An2  v105
 BYTE   W06
 BYTE   Fn2  v111
 BYTE   W06
 BYTE   En2  v109
 BYTE   W06
 BYTE   Fn2  v104
 BYTE   W06
//  #08 //018   ----------------------------------------
 BYTE   An2
 BYTE   W06
 BYTE   Fn2  v108
 BYTE   W06
 BYTE   En2  v102
 BYTE   W06
 BYTE   Fn2  v104
 BYTE   W06
 BYTE   An2  v105
 BYTE   W06
 BYTE   Fn2  v110
 BYTE   W06
 BYTE   En2  v099
 BYTE   W06
 BYTE   Fn2  v100
 BYTE   W06
 BYTE   An2  v104
 BYTE   W06
 BYTE   Fn2  v107
 BYTE   W06
 BYTE   En2  v103
 BYTE   W06
 BYTE   Fn2  v109
 BYTE   W06
 BYTE   En3  v105
 BYTE   W06
 BYTE   Cn3  v100
 BYTE   W06
 BYTE   Bn2  v095
 BYTE   W06
 BYTE   N03  Cn3  v104
 BYTE   W06
//  #08 //019   ----------------------------------------
 BYTE   N02  An3  v105
 BYTE   W06
 BYTE   Fn3  v100
 BYTE   W06
 BYTE   En3  v095
 BYTE   W06
 BYTE   N03  Fn3  v104
 BYTE   W06
 BYTE   VOL   9*FE11MedeusBattleMeteorSR23_mvl/mxv
 BYTE   N92  Dn3  v127  gtp3
 BYTE   N56  As3  v127  gtp3
 BYTE   W03
 BYTE   VOL   10*FE11MedeusBattleMeteorSR23_mvl/mxv
 BYTE   W03
 BYTE   VOL   12*FE11MedeusBattleMeteorSR23_mvl/mxv
 BYTE   W03
 BYTE   VOL   13*FE11MedeusBattleMeteorSR23_mvl/mxv
 BYTE   BEND   c_v+1
 BYTE   W03
 BYTE   VOL   15*FE11MedeusBattleMeteorSR23_mvl/mxv
 BYTE   W03
 BYTE   VOL   17*FE11MedeusBattleMeteorSR23_mvl/mxv
 BYTE   BEND   c_v+2
 BYTE   W03
 BYTE   VOL   18*FE11MedeusBattleMeteorSR23_mvl/mxv
 BYTE   BEND   c_v+3
 BYTE   W03
 BYTE   VOL   20*FE11MedeusBattleMeteorSR23_mvl/mxv
 BYTE   W03
 BYTE   VOL   21*FE11MedeusBattleMeteorSR23_mvl/mxv
 BYTE   BEND   c_v+4
 BYTE   W03
 BYTE   VOL   23*FE11MedeusBattleMeteorSR23_mvl/mxv
 BYTE   W03
 BYTE   VOL   25*FE11MedeusBattleMeteorSR23_mvl/mxv
 BYTE   BEND   c_v+5
 BYTE   W03
 BYTE   VOL   26*FE11MedeusBattleMeteorSR23_mvl/mxv
 BYTE   BEND   c_v+6
 BYTE   W03
 BYTE   VOL   28*FE11MedeusBattleMeteorSR23_mvl/mxv
 BYTE   BEND   c_v+7
 BYTE   W03
 BYTE   VOL   30*FE11MedeusBattleMeteorSR23_mvl/mxv
 BYTE   W03
 BYTE   VOL   31*FE11MedeusBattleMeteorSR23_mvl/mxv
 BYTE   BEND   c_v+8
 BYTE   W03
 BYTE   VOL   32*FE11MedeusBattleMeteorSR23_mvl/mxv
 BYTE   BEND   c_v+9
 BYTE   W03
 BYTE   VOL   34*FE11MedeusBattleMeteorSR23_mvl/mxv
 BYTE   BEND   c_v+10
 BYTE   W03
 BYTE   VOL   36*FE11MedeusBattleMeteorSR23_mvl/mxv
 BYTE   BEND   c_v+11
 BYTE   W03
 BYTE   VOL   37*FE11MedeusBattleMeteorSR23_mvl/mxv
 BYTE   BEND   c_v+12
 BYTE   W03
 BYTE   VOL   39*FE11MedeusBattleMeteorSR23_mvl/mxv
 BYTE   BEND   c_v+13
 BYTE   W03
 BYTE   VOL   41*FE11MedeusBattleMeteorSR23_mvl/mxv
 BYTE   BEND   c_v+14
 BYTE   W03
 BYTE   VOL   42*FE11MedeusBattleMeteorSR23_mvl/mxv
 BYTE   BEND   c_v+15
 BYTE   W03
 BYTE   VOL   43*FE11MedeusBattleMeteorSR23_mvl/mxv
 BYTE   BEND   c_v+16
 BYTE   W03
 BYTE   VOL   45*FE11MedeusBattleMeteorSR23_mvl/mxv
 BYTE   BEND   c_v+17
 BYTE   W03
//  #08 //020   ----------------------------------------
 BYTE   VOL   47*FE11MedeusBattleMeteorSR23_mvl/mxv
 BYTE   BEND   c_v+18
 BYTE   W03
 BYTE   VOL   48*FE11MedeusBattleMeteorSR23_mvl/mxv
 BYTE   BEND   c_v+20
 BYTE   W03
 BYTE   VOL   50*FE11MedeusBattleMeteorSR23_mvl/mxv
 BYTE   BEND   c_v+21
 BYTE   W03
 BYTE   VOL   52*FE11MedeusBattleMeteorSR23_mvl/mxv
 BYTE   BEND   c_v+23
 BYTE   W03
 BYTE   VOL   53*FE11MedeusBattleMeteorSR23_mvl/mxv
 BYTE   BEND   c_v+25
 BYTE   W03
 BYTE   VOL   54*FE11MedeusBattleMeteorSR23_mvl/mxv
 BYTE   BEND   c_v+26
 BYTE   W03
 BYTE   VOL   56*FE11MedeusBattleMeteorSR23_mvl/mxv
 BYTE   BEND   c_v+28
 BYTE   W01
 BYTE   VOL   57*FE11MedeusBattleMeteorSR23_mvl/mxv
 BYTE   W02
 BYTE   BEND   c_v+30
 BYTE   W01
 BYTE   BEND   c_v+32
 BYTE   W02
 BYTE   VOICE   14
 BYTE   VOL   74*FE11MedeusBattleMeteorSR23_mvl/mxv
 BYTE   PAN   c_v+28
 BYTE   BEND   c_v+0
 BYTE   W72
//  #08 //021   ----------------------------------------
 BYTE   PATT
  POIN2 Label_01002922
//  #08 //022   ----------------------------------------
 BYTE   W96
//  #08 //023   ----------------------------------------
 BYTE   PATT
  POIN2 Label_01002922
//  #08 //024   ----------------------------------------
 BYTE   W96
//  #08 //025   ----------------------------------------
 BYTE   PATT
  POIN2 Label_01002922
//  #08 //026   ----------------------------------------
 BYTE   W24
 BYTE   VOICE   104
 BYTE   VOL   57*FE11MedeusBattleMeteorSR23_mvl/mxv
 BYTE   PAN   c_v-27
 BYTE   GoTo
  POIN2 Label_01002930
//  #08 //027   ----------------------------------------
 BYTE   W05
 BYTE   FINE

//**************** Track 9 (Midi-Chn.8) ****************//

FE11MedeusBattleMeteorSR23_009:
//  #09 //000   ----------------------------------------
 BYTE   KEYSH   FE11MedeusBattleMeteorSR23_key+0
 BYTE   W96
//  #09 //001   ----------------------------------------
 BYTE   W96
//  #09 //002   ----------------------------------------
 BYTE   W96
//  #09 //003   ----------------------------------------
 BYTE   W96
//  #09 //004   ----------------------------------------
 BYTE   W96
//  #09 //005   ----------------------------------------
 BYTE   W96
//  #09 //006   ----------------------------------------
 BYTE   W96
//  #09 //007   ----------------------------------------
 BYTE   W96
//  #09 //008   ----------------------------------------
 BYTE   W24
Label_01002CF3:
 BYTE   VOICE   15
 BYTE   PAN   c_v-24
 BYTE   VOL   30*FE11MedeusBattleMeteorSR23_mvl/mxv
 BYTE   N48  Cn3  v127
 BYTE   W48
 BYTE   Cn3
 BYTE   W24
//  #09 //009   ----------------------------------------
Label_01002CFF:
 BYTE   W24
 BYTE   N48  Cn3  v127
 BYTE   W48
 BYTE   Cn3
 BYTE   W24
 BYTE   PEND 
//  #09 //010   ----------------------------------------
 BYTE   PATT
  POIN2 Label_01002CFF
//  #09 //011   ----------------------------------------
 BYTE   PATT
  POIN2 Label_01002CFF
//  #09 //012   ----------------------------------------
 BYTE   W24
 BYTE   N48  Cn3  v127
 BYTE   W09
 BYTE   VOL   29*FE11MedeusBattleMeteorSR23_mvl/mxv
 BYTE   W03
 BYTE   VOL   28*FE11MedeusBattleMeteorSR23_mvl/mxv
 BYTE   W06
 BYTE   VOL   27*FE11MedeusBattleMeteorSR23_mvl/mxv
 BYTE   W03
 BYTE   VOL   26*FE11MedeusBattleMeteorSR23_mvl/mxv
 BYTE   W06
 BYTE   VOL   25*FE11MedeusBattleMeteorSR23_mvl/mxv
 BYTE   W03
 BYTE   VOL   24*FE11MedeusBattleMeteorSR23_mvl/mxv
 BYTE   W03
 BYTE   VOL   23*FE11MedeusBattleMeteorSR23_mvl/mxv
 BYTE   W06
 BYTE   VOL   22*FE11MedeusBattleMeteorSR23_mvl/mxv
 BYTE   W03
 BYTE   VOL   21*FE11MedeusBattleMeteorSR23_mvl/mxv
 BYTE   W06
 BYTE   N48
 BYTE   VOL   20*FE11MedeusBattleMeteorSR23_mvl/mxv
 BYTE   W06
 BYTE   VOL   19*FE11MedeusBattleMeteorSR23_mvl/mxv
 BYTE   W03
 BYTE   VOL   18*FE11MedeusBattleMeteorSR23_mvl/mxv
 BYTE   W06
 BYTE   VOL   17*FE11MedeusBattleMeteorSR23_mvl/mxv
 BYTE   W03
 BYTE   VOL   16*FE11MedeusBattleMeteorSR23_mvl/mxv
 BYTE   W03
 BYTE   VOL   15*FE11MedeusBattleMeteorSR23_mvl/mxv
 BYTE   W03
//  #09 //013   ----------------------------------------
 BYTE   W03
 BYTE   VOL   14*FE11MedeusBattleMeteorSR23_mvl/mxv
 BYTE   W03
 BYTE   VOL   13*FE11MedeusBattleMeteorSR23_mvl/mxv
 BYTE   W06
 BYTE   VOL   12*FE11MedeusBattleMeteorSR23_mvl/mxv
 BYTE   W06
 BYTE   VOL   11*FE11MedeusBattleMeteorSR23_mvl/mxv
 BYTE   W02
 BYTE   VOL   10*FE11MedeusBattleMeteorSR23_mvl/mxv
 BYTE   W03
 BYTE   VOL   11*FE11MedeusBattleMeteorSR23_mvl/mxv
 BYTE   W01
 BYTE   N48  Cn3  v098
 BYTE   W05
 BYTE   VOL   12*FE11MedeusBattleMeteorSR23_mvl/mxv
 BYTE   W03
 BYTE   VOL   13*FE11MedeusBattleMeteorSR23_mvl/mxv
 BYTE   W09
 BYTE   VOL   14*FE11MedeusBattleMeteorSR23_mvl/mxv
 BYTE   W03
 BYTE   VOL   15*FE11MedeusBattleMeteorSR23_mvl/mxv
 BYTE   W06
 BYTE   VOL   16*FE11MedeusBattleMeteorSR23_mvl/mxv
 BYTE   W03
 BYTE   VOL   17*FE11MedeusBattleMeteorSR23_mvl/mxv
 BYTE   W06
 BYTE   VOL   18*FE11MedeusBattleMeteorSR23_mvl/mxv
 BYTE   W06
 BYTE   VOL   19*FE11MedeusBattleMeteorSR23_mvl/mxv
 BYTE   W03
 BYTE   VOL   20*FE11MedeusBattleMeteorSR23_mvl/mxv
 BYTE   W04
 BYTE   N48  Cn3  v106
 BYTE   W02
 BYTE   VOL   21*FE11MedeusBattleMeteorSR23_mvl/mxv
 BYTE   W06
 BYTE   VOL   22*FE11MedeusBattleMeteorSR23_mvl/mxv
 BYTE   W06
 BYTE   VOL   23*FE11MedeusBattleMeteorSR23_mvl/mxv
 BYTE   W03
 BYTE   VOL   24*FE11MedeusBattleMeteorSR23_mvl/mxv
 BYTE   W06
 BYTE   VOL   25*FE11MedeusBattleMeteorSR23_mvl/mxv
 BYTE   W01
//  #09 //014   ----------------------------------------
 BYTE   W02
 BYTE   VOL   26*FE11MedeusBattleMeteorSR23_mvl/mxv
 BYTE   W06
 BYTE   VOL   27*FE11MedeusBattleMeteorSR23_mvl/mxv
 BYTE   W03
 BYTE   VOL   28*FE11MedeusBattleMeteorSR23_mvl/mxv
 BYTE   W06
 BYTE   VOL   29*FE11MedeusBattleMeteorSR23_mvl/mxv
 BYTE   W05
 BYTE   VOL   30*FE11MedeusBattleMeteorSR23_mvl/mxv
 BYTE   W02
 BYTE   N48  Cn3  v113
 BYTE   W12
 BYTE   VOL   29*FE11MedeusBattleMeteorSR23_mvl/mxv
 BYTE   W02
 BYTE   VOL   28*FE11MedeusBattleMeteorSR23_mvl/mxv
 BYTE   W01
 BYTE   VOL   27*FE11MedeusBattleMeteorSR23_mvl/mxv
 BYTE   W03
 BYTE   VOL   26*FE11MedeusBattleMeteorSR23_mvl/mxv
 BYTE   W02
 BYTE   VOL   25*FE11MedeusBattleMeteorSR23_mvl/mxv
 BYTE   W01
 BYTE   VOL   24*FE11MedeusBattleMeteorSR23_mvl/mxv
 BYTE   W02
 BYTE   VOL   23*FE11MedeusBattleMeteorSR23_mvl/mxv
 BYTE   W03
 BYTE   VOL   22*FE11MedeusBattleMeteorSR23_mvl/mxv
 BYTE   W01
 BYTE   VOL   21*FE11MedeusBattleMeteorSR23_mvl/mxv
 BYTE   W03
 BYTE   VOL   20*FE11MedeusBattleMeteorSR23_mvl/mxv
 BYTE   W02
 BYTE   VOL   19*FE11MedeusBattleMeteorSR23_mvl/mxv
 BYTE   W01
 BYTE   VOL   18*FE11MedeusBattleMeteorSR23_mvl/mxv
 BYTE   W02
 BYTE   VOL   17*FE11MedeusBattleMeteorSR23_mvl/mxv
 BYTE   W03
 BYTE   VOL   16*FE11MedeusBattleMeteorSR23_mvl/mxv
 BYTE   W01
 BYTE   VOL   15*FE11MedeusBattleMeteorSR23_mvl/mxv
 BYTE   W02
 BYTE   VOL   14*FE11MedeusBattleMeteorSR23_mvl/mxv
 BYTE   W01
 BYTE   VOL   13*FE11MedeusBattleMeteorSR23_mvl/mxv
 BYTE   W03
 BYTE   VOL   12*FE11MedeusBattleMeteorSR23_mvl/mxv
 BYTE   W03
 BYTE   N48  Cn3  v099
 BYTE   VOL   11*FE11MedeusBattleMeteorSR23_mvl/mxv
 BYTE   W02
 BYTE   VOL   10*FE11MedeusBattleMeteorSR23_mvl/mxv
 BYTE   W01
 BYTE   VOL   9*FE11MedeusBattleMeteorSR23_mvl/mxv
 BYTE   W02
 BYTE   VOL   8*FE11MedeusBattleMeteorSR23_mvl/mxv
 BYTE   W03
 BYTE   VOL   7*FE11MedeusBattleMeteorSR23_mvl/mxv
 BYTE   W01
 BYTE   VOL   6*FE11MedeusBattleMeteorSR23_mvl/mxv
 BYTE   W02
 BYTE   VOL   5*FE11MedeusBattleMeteorSR23_mvl/mxv
 BYTE   W01
 BYTE   VOL   4*FE11MedeusBattleMeteorSR23_mvl/mxv
 BYTE   W03
 BYTE   VOL   3*FE11MedeusBattleMeteorSR23_mvl/mxv
 BYTE   W02
 BYTE   VOL   2*FE11MedeusBattleMeteorSR23_mvl/mxv
 BYTE   W03
 BYTE   VOL   1*FE11MedeusBattleMeteorSR23_mvl/mxv
 BYTE   W01
 BYTE   VOL   0*FE11MedeusBattleMeteorSR23_mvl/mxv
 BYTE   W02
 BYTE   VOL   0*FE11MedeusBattleMeteorSR23_mvl/mxv
 BYTE   W01
//  #09 //015   ----------------------------------------
 BYTE   VOL   0*FE11MedeusBattleMeteorSR23_mvl/mxv
 BYTE   W03
 BYTE   VOL   0*FE11MedeusBattleMeteorSR23_mvl/mxv
 BYTE   W02
 BYTE   VOL   0*FE11MedeusBattleMeteorSR23_mvl/mxv
 BYTE   W03
 BYTE   VOL   0*FE11MedeusBattleMeteorSR23_mvl/mxv
 BYTE   W01
 BYTE   VOL   0*FE11MedeusBattleMeteorSR23_mvl/mxv
 BYTE   W02
 BYTE   VOL   0*FE11MedeusBattleMeteorSR23_mvl/mxv
 BYTE   W03
 BYTE   VOL   0*FE11MedeusBattleMeteorSR23_mvl/mxv
 BYTE   W01
 BYTE   VOL   0*FE11MedeusBattleMeteorSR23_mvl/mxv
 BYTE   W02
 BYTE   VOL   0*FE11MedeusBattleMeteorSR23_mvl/mxv
 BYTE   W01
 BYTE   VOL   0*FE11MedeusBattleMeteorSR23_mvl/mxv
 BYTE   W03
 BYTE   VOL   0*FE11MedeusBattleMeteorSR23_mvl/mxv
 BYTE   W01
 BYTE   VOL   0*FE11MedeusBattleMeteorSR23_mvl/mxv
 BYTE   W02
 BYTE   N48  Cn3  v080
 BYTE   W07
 BYTE   VOL   0*FE11MedeusBattleMeteorSR23_mvl/mxv
 BYTE   W12
 BYTE   VOL   0*FE11MedeusBattleMeteorSR23_mvl/mxv
 BYTE   W12
 BYTE   VOL   0*FE11MedeusBattleMeteorSR23_mvl/mxv
 BYTE   W09
 BYTE   VOL   0*FE11MedeusBattleMeteorSR23_mvl/mxv
 BYTE   W08
 BYTE   N48
 BYTE   W01
 BYTE   VOL   0*FE11MedeusBattleMeteorSR23_mvl/mxv
 BYTE   W09
 BYTE   VOL   0*FE11MedeusBattleMeteorSR23_mvl/mxv
 BYTE   W06
 BYTE   VOL   0*FE11MedeusBattleMeteorSR23_mvl/mxv
 BYTE   W08
//  #09 //016   ----------------------------------------
 BYTE   W01
 BYTE   VOL   0*FE11MedeusBattleMeteorSR23_mvl/mxv
 BYTE   W06
 BYTE   VOL   0*FE11MedeusBattleMeteorSR23_mvl/mxv
 BYTE   W09
 BYTE   VOL   0*FE11MedeusBattleMeteorSR23_mvl/mxv
 BYTE   W06
 BYTE   VOL   0*FE11MedeusBattleMeteorSR23_mvl/mxv
 BYTE   W02
 BYTE   N48
 BYTE   W04
 BYTE   VOL   0*FE11MedeusBattleMeteorSR23_mvl/mxv
 BYTE   W03
 BYTE   VOL   0*FE11MedeusBattleMeteorSR23_mvl/mxv
 BYTE   W06
 BYTE   VOL   1*FE11MedeusBattleMeteorSR23_mvl/mxv
 BYTE   W03
 BYTE   VOL   2*FE11MedeusBattleMeteorSR23_mvl/mxv
 BYTE   W06
 BYTE   VOL   3*FE11MedeusBattleMeteorSR23_mvl/mxv
 BYTE   W03
 BYTE   VOL   4*FE11MedeusBattleMeteorSR23_mvl/mxv
 BYTE   W06
 BYTE   VOL   5*FE11MedeusBattleMeteorSR23_mvl/mxv
 BYTE   W03
 BYTE   VOL   6*FE11MedeusBattleMeteorSR23_mvl/mxv
 BYTE   W03
 BYTE   VOL   7*FE11MedeusBattleMeteorSR23_mvl/mxv
 BYTE   W03
 BYTE   VOL   8*FE11MedeusBattleMeteorSR23_mvl/mxv
 BYTE   W03
 BYTE   VOL   9*FE11MedeusBattleMeteorSR23_mvl/mxv
 BYTE   W03
 BYTE   VOL   10*FE11MedeusBattleMeteorSR23_mvl/mxv
 BYTE   W02
 BYTE   N48
 BYTE   W01
 BYTE   VOL   11*FE11MedeusBattleMeteorSR23_mvl/mxv
 BYTE   W03
 BYTE   VOL   13*FE11MedeusBattleMeteorSR23_mvl/mxv
 BYTE   W06
 BYTE   VOL   15*FE11MedeusBattleMeteorSR23_mvl/mxv
 BYTE   W03
 BYTE   VOL   16*FE11MedeusBattleMeteorSR23_mvl/mxv
 BYTE   W03
 BYTE   VOL   18*FE11MedeusBattleMeteorSR23_mvl/mxv
 BYTE   W03
 BYTE   VOL   20*FE11MedeusBattleMeteorSR23_mvl/mxv
 BYTE   W03
 BYTE   VOL   21*FE11MedeusBattleMeteorSR23_mvl/mxv
 BYTE   W02
//  #09 //017   ----------------------------------------
 BYTE   W01
 BYTE   VOL   23*FE11MedeusBattleMeteorSR23_mvl/mxv
 BYTE   W03
 BYTE   VOL   25*FE11MedeusBattleMeteorSR23_mvl/mxv
 BYTE   W03
 BYTE   VOL   27*FE11MedeusBattleMeteorSR23_mvl/mxv
 BYTE   W03
 BYTE   VOL   30*FE11MedeusBattleMeteorSR23_mvl/mxv
 BYTE   W14
 BYTE   N48
 BYTE   W19
 BYTE   VOL   29*FE11MedeusBattleMeteorSR23_mvl/mxv
 BYTE   W09
 BYTE   VOL   28*FE11MedeusBattleMeteorSR23_mvl/mxv
 BYTE   W09
 BYTE   VOL   27*FE11MedeusBattleMeteorSR23_mvl/mxv
 BYTE   W06
 BYTE   VOL   26*FE11MedeusBattleMeteorSR23_mvl/mxv
 BYTE   W05
 BYTE   N48
 BYTE   W04
 BYTE   VOL   25*FE11MedeusBattleMeteorSR23_mvl/mxv
 BYTE   W06
 BYTE   VOL   24*FE11MedeusBattleMeteorSR23_mvl/mxv
 BYTE   W06
 BYTE   VOL   23*FE11MedeusBattleMeteorSR23_mvl/mxv
 BYTE   W06
 BYTE   VOL   22*FE11MedeusBattleMeteorSR23_mvl/mxv
 BYTE   W02
//  #09 //018   ----------------------------------------
 BYTE   W04
 BYTE   VOL   21*FE11MedeusBattleMeteorSR23_mvl/mxv
 BYTE   W09
 BYTE   VOL   20*FE11MedeusBattleMeteorSR23_mvl/mxv
 BYTE   W03
 BYTE   VOL   19*FE11MedeusBattleMeteorSR23_mvl/mxv
 BYTE   W06
 BYTE   VOL   18*FE11MedeusBattleMeteorSR23_mvl/mxv
 BYTE   W02
 BYTE   N48
 BYTE   W04
 BYTE   VOL   17*FE11MedeusBattleMeteorSR23_mvl/mxv
 BYTE   W03
 BYTE   VOL   16*FE11MedeusBattleMeteorSR23_mvl/mxv
 BYTE   W06
 BYTE   VOL   15*FE11MedeusBattleMeteorSR23_mvl/mxv
 BYTE   W03
 BYTE   VOL   14*FE11MedeusBattleMeteorSR23_mvl/mxv
 BYTE   W03
 BYTE   VOL   13*FE11MedeusBattleMeteorSR23_mvl/mxv
 BYTE   W06
 BYTE   VOL   12*FE11MedeusBattleMeteorSR23_mvl/mxv
 BYTE   W03
 BYTE   VOL   11*FE11MedeusBattleMeteorSR23_mvl/mxv
 BYTE   W06
 BYTE   VOL   10*FE11MedeusBattleMeteorSR23_mvl/mxv
 BYTE   W03
 BYTE   VOL   9*FE11MedeusBattleMeteorSR23_mvl/mxv
 BYTE   W03
 BYTE   VOL   8*FE11MedeusBattleMeteorSR23_mvl/mxv
 BYTE   W03
 BYTE   VOL   7*FE11MedeusBattleMeteorSR23_mvl/mxv
 BYTE   W03
 BYTE   VOL   6*FE11MedeusBattleMeteorSR23_mvl/mxv
 BYTE   W02
 BYTE   N48
 BYTE   W01
 BYTE   VOL   5*FE11MedeusBattleMeteorSR23_mvl/mxv
 BYTE   W03
 BYTE   VOL   4*FE11MedeusBattleMeteorSR23_mvl/mxv
 BYTE   W03
 BYTE   VOL   3*FE11MedeusBattleMeteorSR23_mvl/mxv
 BYTE   W03
 BYTE   VOL   2*FE11MedeusBattleMeteorSR23_mvl/mxv
 BYTE   W03
 BYTE   VOL   1*FE11MedeusBattleMeteorSR23_mvl/mxv
 BYTE   W03
 BYTE   VOL   0*FE11MedeusBattleMeteorSR23_mvl/mxv
 BYTE   W03
 BYTE   VOL   0*FE11MedeusBattleMeteorSR23_mvl/mxv
 BYTE   W03
 BYTE   VOL   0*FE11MedeusBattleMeteorSR23_mvl/mxv
 BYTE   W02
//  #09 //019   ----------------------------------------
 BYTE   W01
 BYTE   VOL   0*FE11MedeusBattleMeteorSR23_mvl/mxv
 BYTE   W03
 BYTE   VOL   0*FE11MedeusBattleMeteorSR23_mvl/mxv
 BYTE   W03
 BYTE   VOL   0*FE11MedeusBattleMeteorSR23_mvl/mxv
 BYTE   W03
 BYTE   VOL   0*FE11MedeusBattleMeteorSR23_mvl/mxv
 BYTE   W03
 BYTE   VOL   0*FE11MedeusBattleMeteorSR23_mvl/mxv
 BYTE   W03
 BYTE   VOL   0*FE11MedeusBattleMeteorSR23_mvl/mxv
 BYTE   W03
 BYTE   VOL   0*FE11MedeusBattleMeteorSR23_mvl/mxv
 BYTE   W03
 BYTE   VOL   0*FE11MedeusBattleMeteorSR23_mvl/mxv
 BYTE   W72
 BYTE   W02
//  #09 //020   ----------------------------------------
 BYTE   W96
//  #09 //021   ----------------------------------------
 BYTE   W96
//  #09 //022   ----------------------------------------
 BYTE   W96
//  #09 //023   ----------------------------------------
 BYTE   W96
//  #09 //024   ----------------------------------------
 BYTE   W96
//  #09 //025   ----------------------------------------
 BYTE   W96
//  #09 //026   ----------------------------------------
 BYTE   W24
 BYTE   VOL   30*FE11MedeusBattleMeteorSR23_mvl/mxv
 BYTE   GoTo
  POIN2 Label_01002CF3
//  #09 //027   ----------------------------------------
 BYTE   W05
 BYTE   FINE

//**************** Track 10 (Midi-Chn.9) ****************//

FE11MedeusBattleMeteorSR23_010:
//  #10 //000   ----------------------------------------
 BYTE   KEYSH   FE11MedeusBattleMeteorSR23_key+0
 BYTE   N02  Bn0  v001
 BYTE   W96
//  #10 //001   ----------------------------------------
 BYTE   W24
 BYTE   VOICE   127
 BYTE   VOL   75*FE11MedeusBattleMeteorSR23_mvl/mxv
 BYTE   W72
//  #10 //002   ----------------------------------------
 BYTE   W24
 BYTE   N23  Cn1  v127
 BYTE   N48  Cs2  v079  gtp1
 BYTE   W72
//  #10 //003   ----------------------------------------
 BYTE   W12
 BYTE   N07  Gn1  v127
 BYTE   W04
 BYTE   Fn1
 BYTE   W04
 BYTE   Gn1
 BYTE   W04
 BYTE   Fn1
 BYTE   W72
//  #10 //004   ----------------------------------------
 BYTE   W12
 BYTE   N02  Cn1  v080
 BYTE   W04
 BYTE   Cn1  v099
 BYTE   W04
 BYTE   Cn1  v112
 BYTE   W04
 BYTE   Cn1  v127
 BYTE   W72
//  #10 //005   ----------------------------------------
 BYTE   Fs1  v084
 BYTE   W03
 BYTE   Fs1  v052
 BYTE   W03
 BYTE   Fs1
 BYTE   W03
 BYTE   Gs1
 BYTE   W03
 BYTE   Gs1
 BYTE   W03
 BYTE   Gs1
 BYTE   W03
 BYTE   As1
 BYTE   W03
 BYTE   As1
 BYTE   W03
 BYTE   N14  As1  v042
 BYTE   W60
 BYTE   N11  Cn1  v127
 BYTE   N11  En2  v085
 BYTE   W12
//  #10 //006   ----------------------------------------
 BYTE   W15
 BYTE   N02  Cn1  v117
 BYTE   W03
 BYTE   Cn1  v124
 BYTE   W03
 BYTE   Cn1
 BYTE   W03
 BYTE   N23  Cn1  v127
 BYTE   N48  Cs2  v079  gtp1
 BYTE   W72
//  #10 //007   ----------------------------------------
 BYTE   N02  Dn1  v124
 BYTE   W03
 BYTE   En1  v093
 BYTE   W03
 BYTE   Dn1  v079
 BYTE   W03
 BYTE   En1
 BYTE   W03
 BYTE   An1  v109
 BYTE   W03
 BYTE   An1  v101
 BYTE   W03
 BYTE   Gn1  v100
 BYTE   W03
 BYTE   Fn1  v093
 BYTE   W03
 BYTE   N05  Cn2  v127
 BYTE   W06
 BYTE   Gn1
 BYTE   W06
 BYTE   Bn1
 BYTE   W06
 BYTE   An1
 BYTE   W06
 BYTE   An1
 BYTE   W06
 BYTE   Fn1
 BYTE   W06
 BYTE   N02  Gn1
 BYTE   W03
 BYTE   Bn1  v083
 BYTE   W03
 BYTE   N08  Fn1  v127
 BYTE   W09
 BYTE   N02  Fn1  v087
 BYTE   W03
 BYTE   Bn1  v127
 BYTE   W03
 BYTE   An1  v092
 BYTE   W03
 BYTE   N05  Gn1  v127
 BYTE   W06
 BYTE   N02  Fn1
 BYTE   W03
 BYTE   Fn1  v080
 BYTE   W03
//  #10 //008   ----------------------------------------
 BYTE   Cn1  v082
 BYTE   N02  Dn1
 BYTE   W03
 BYTE   Cs1  v089
 BYTE   N02  En1
 BYTE   W03
 BYTE   Cn1  v097
 BYTE   N02  Dn1
 BYTE   W03
 BYTE   Cs1  v104
 BYTE   N02  En1
 BYTE   W03
 BYTE   Cn1  v112
 BYTE   N02  Dn1
 BYTE   W03
 BYTE   Cs1  v119
 BYTE   N02  En1
 BYTE   W03
 BYTE   Cn1  v127
 BYTE   N02  Dn1
 BYTE   W03
 BYTE   Cs1
 BYTE   N02  En1
 BYTE   W03
Label_01002F60:
 BYTE   N02  Cn1  v127
 BYTE   N05  Cn2
 BYTE   N28  Cs2  v079
 BYTE   W06
 BYTE   N06  Fn1  v127
 BYTE   W18
 BYTE   N02  Cn1
 BYTE   N06  Fn1
 BYTE   W12
 BYTE   N05
 BYTE   W06
 BYTE   N02  Cn1
 BYTE   N06  An1
 BYTE   W12
 BYTE   N02  Cn1
 BYTE   N05  Cn2
 BYTE   W06
 BYTE   An1
 BYTE   W06
 BYTE   Gn1
 BYTE   W06
//  #10 //009   ----------------------------------------
Label_01002F82:
 BYTE   N02  Cn1  v127
 BYTE   N02  Fn1
 BYTE   W03
 BYTE   N06
 BYTE   W15
 BYTE   N02  Cn1
 BYTE   N05  An1
 BYTE   W06
 BYTE   N02  Cn1
 BYTE   N05  Gn1
 BYTE   W06
 BYTE   An1
 BYTE   W06
 BYTE   Bn1
 BYTE   W06
 BYTE   Fn1
 BYTE   W06
 BYTE   N02  Cn1
 BYTE   W06
 BYTE   N05  Fn1
 BYTE   W06
 BYTE   Bn1
 BYTE   W06
 BYTE   N02  Cn1
 BYTE   N06  An1
 BYTE   W12
 BYTE   N02  Cn1
 BYTE   N05  Gn1
 BYTE   W06
 BYTE   N06  An1
 BYTE   W12
 BYTE   PEND 
//  #10 //010   ----------------------------------------
Label_01002FB0:
 BYTE   N02  Cn1  v127
 BYTE   N02  Fn1
 BYTE   W03
 BYTE   N06
 BYTE   W09
 BYTE   N05
 BYTE   W06
 BYTE   N02  Cn1
 BYTE   N05  An1
 BYTE   W06
 BYTE   N02  Cn1
 BYTE   N05  Cn2
 BYTE   W06
 BYTE   N06  Fn1
 BYTE   W18
 BYTE   N02  Cn1
 BYTE   N06  Fn1
 BYTE   W12
 BYTE   N05
 BYTE   W06
 BYTE   N02  Cn1
 BYTE   N06  An1
 BYTE   W12
 BYTE   N02  Cn1
 BYTE   N05  Cn2
 BYTE   W06
 BYTE   An1
 BYTE   W06
 BYTE   Gn1
 BYTE   W06
 BYTE   PEND 
//  #10 //011   ----------------------------------------
 BYTE   PATT
  POIN2 Label_01002F82
//  #10 //012   ----------------------------------------
 BYTE   PATT
  POIN2 Label_01002FB0
//  #10 //013   ----------------------------------------
 BYTE   N02  Cn1  v127
 BYTE   N02  Fs1  v071
 BYTE   W03
 BYTE   Fs1  v039
 BYTE   W03
 BYTE   Fs1
 BYTE   W03
 BYTE   Fs1
 BYTE   W03
 BYTE   As1  v043
 BYTE   W03
 BYTE   As1
 BYTE   W03
 BYTE   Cn1  v127
 BYTE   N02  As1  v054
 BYTE   W03
 BYTE   As1  v058
 BYTE   W03
 BYTE   Bn1  v127
 BYTE   N02  Gn2  v084
 BYTE   W06
 BYTE   N01  Cn1  v104
 BYTE   N02  Bn1  v127
 BYTE   W06
 BYTE   N03  Gs1  v062
 BYTE   W12
 BYTE   N02  Gn1  v108
 BYTE   W06
 BYTE   N01  Cn1  v104
 BYTE   N02  Fn1  v127
 BYTE   W06
 BYTE   N01  Cn1  v104
 BYTE   N04  Gs1  v063
 BYTE   N02  An1  v127
 BYTE   W12
 BYTE   N01  Cn1  v104
 BYTE   N02  Cn2  v127
 BYTE   W06
 BYTE   N01  Cn1  v104
 BYTE   W06
 BYTE   Cn1
 BYTE   N04  Gs1  v063
 BYTE   W06
 BYTE   N02  An1  v127
 BYTE   W06
//  #10 //014   ----------------------------------------
 BYTE   An1
 BYTE   W06
 BYTE   N01  Cn1  v104
 BYTE   N02  An1  v127
 BYTE   W03
 BYTE   N01  Cn1  v104
 BYTE   W03
 BYTE   Cn1
 BYTE   N02  Fn1  v127
 BYTE   N04  Gs1  v065
 BYTE   W12
 BYTE   N01  Cn1  v104
 BYTE   W06
 BYTE   Cn1
 BYTE   W06
 BYTE   N02  Fn1  v127
 BYTE   N03  Gs1  v065
 BYTE   W06
 BYTE   N02  Bn1  v127
 BYTE   W06
 BYTE   Fn1
 BYTE   W06
 BYTE   N01  Cn1  v104
 BYTE   W06
 BYTE   Cn1
 BYTE   N02  Fn1  v127
 BYTE   N04  Gs1  v065
 BYTE   W06
 BYTE   N02  Fn1  v127
 BYTE   W06
 BYTE   N01  Cn1  v104
 BYTE   N02  An1  v127
 BYTE   W06
 BYTE   N01  Cn1  v104
 BYTE   N02  Cn2  v127
 BYTE   W06
 BYTE   N01  Cn1  v104
 BYTE   N03  Gs1  v065
 BYTE   N02  An1  v127
 BYTE   N02  Cs2  v084
 BYTE   W03
 BYTE   An1  v127
 BYTE   W03
 BYTE   Fn1
 BYTE   N05  As1  v065
 BYTE   W06
//  #10 //015   ----------------------------------------
 BYTE   N02  Dn1  v089
 BYTE   W03
 BYTE   Dn1  v084
 BYTE   W03
 BYTE   N01  Cn1  v104
 BYTE   N02  Dn1  v077
 BYTE   W03
 BYTE   N01  Cn1  v104
 BYTE   N02  Dn1  v089
 BYTE   W03
 BYTE   N01  Cn1  v104
 BYTE   N02  Dn1  v116
 BYTE   W03
 BYTE   Dn1  v104
 BYTE   W03
 BYTE   Dn1  v119
 BYTE   W03
 BYTE   Dn1  v104
 BYTE   W03
 BYTE   N11  Cn1  v095
 BYTE   N02  Cn2  v112
 BYTE   N23  En2  v076
 BYTE   W06
 BYTE   N02  Fn1  v112
 BYTE   W18
 BYTE   N11  Cn1  v095
 BYTE   N02  Fn1  v112
 BYTE   W12
 BYTE   Fn1
 BYTE   W06
 BYTE   An1
 BYTE   W06
 BYTE   N11  Cn1  v095
 BYTE   W06
 BYTE   N02  Cn2  v112
 BYTE   W06
 BYTE   An1
 BYTE   W06
 BYTE   Gn1
 BYTE   W06
//  #10 //016   ----------------------------------------
 BYTE   N11  Cn1  v095
 BYTE   N02  Fn1  v112
 BYTE   W03
 BYTE   Fn1  v094
 BYTE   W15
 BYTE   An1  v112
 BYTE   W06
 BYTE   N11  Cn1  v095
 BYTE   N02  Gn1  v112
 BYTE   W06
 BYTE   An1
 BYTE   W06
 BYTE   Bn1
 BYTE   W06
 BYTE   Fn1
 BYTE   W06
 BYTE   N11  Cn1  v095
 BYTE   W06
 BYTE   N02  Fn1  v112
 BYTE   W06
 BYTE   Bn1
 BYTE   W06
 BYTE   An1
 BYTE   W06
 BYTE   N11  Cn1  v095
 BYTE   W06
 BYTE   N02  Gn1  v112
 BYTE   W06
 BYTE   An1
 BYTE   W12
//  #10 //017   ----------------------------------------
 BYTE   N11  Cn1  v095
 BYTE   N02  Fn1  v112
 BYTE   W12
 BYTE   Fn1
 BYTE   W03
 BYTE   Gn1  v089
 BYTE   W03
 BYTE   An1  v112
 BYTE   W03
 BYTE   Gn1  v089
 BYTE   W03
 BYTE   N11  Cn1  v095
 BYTE   N02  Cn2  v112
 BYTE   W06
 BYTE   Fn1
 BYTE   W18
 BYTE   N11  Cn1  v095
 BYTE   N02  Fn1  v112
 BYTE   W12
 BYTE   Fn1
 BYTE   W06
 BYTE   An1
 BYTE   W06
 BYTE   N11  Cn1  v095
 BYTE   W06
 BYTE   N02  Cn2  v112
 BYTE   W06
 BYTE   An1
 BYTE   W06
 BYTE   Gn1
 BYTE   W06
//  #10 //018   ----------------------------------------
 BYTE   N11  Cn1  v095
 BYTE   N02  Fn1  v112
 BYTE   W03
 BYTE   Fn1  v088
 BYTE   W15
 BYTE   An1  v112
 BYTE   W06
 BYTE   N11  Cn1  v095
 BYTE   N02  Gn1  v112
 BYTE   W06
 BYTE   An1
 BYTE   W06
 BYTE   Bn1
 BYTE   W06
 BYTE   Fn1
 BYTE   W06
 BYTE   N11  Cn1  v095
 BYTE   W06
 BYTE   N02  Fn1  v112
 BYTE   W06
 BYTE   Bn1
 BYTE   W06
 BYTE   An1
 BYTE   W06
 BYTE   N11  Cn1  v105
 BYTE   W06
 BYTE   N02  Gn1  v127
 BYTE   W06
 BYTE   An1
 BYTE   W12
//  #10 //019   ----------------------------------------
 BYTE   N11  Cn1  v105
 BYTE   N02  Fn1  v127
 BYTE   W12
 BYTE   Fn1
 BYTE   W03
 BYTE   Gn1  v096
 BYTE   W03
 BYTE   An1  v127
 BYTE   W03
 BYTE   Gn1  v096
 BYTE   W03
 BYTE   N01  Cn1  v104
 BYTE   N23  As1  v078
 BYTE   W06
 BYTE   N01  Cn1  v104
 BYTE   W06
 BYTE   N02  Fn1  v127
 BYTE   W06
 BYTE   Bn1
 BYTE   W06
 BYTE   Fn1
 BYTE   N23  As1  v078
 BYTE   W06
 BYTE   N01  Cn1  v104
 BYTE   W06
 BYTE   Cn1
 BYTE   N02  Fn1  v127
 BYTE   W06
 BYTE   Fn1
 BYTE   W06
 BYTE   Cn1  v115
 BYTE   N10  As1  v078
 BYTE   W03
 BYTE   N02  Cn1  v090
 BYTE   W03
 BYTE   Cn1  v093
 BYTE   W03
 BYTE   Cn1  v095
 BYTE   W03
 BYTE   Cn1  v098
 BYTE   N10  En2  v079
 BYTE   W03
 BYTE   N02  Cn1  v100
 BYTE   W03
 BYTE   Cn1  v103
 BYTE   W03
 BYTE   Cn1  v106
 BYTE   W03
//  #10 //020   ----------------------------------------
 BYTE   Cn1  v109
 BYTE   N02  Dn1
 BYTE   W03
 BYTE   Cn1  v111
 BYTE   N02  Dn1
 BYTE   W03
 BYTE   Cn1  v114
 BYTE   N02  Dn1
 BYTE   W03
 BYTE   Cn1  v117
 BYTE   N02  Dn1
 BYTE   W03
 BYTE   Cn1  v119
 BYTE   N02  Dn1
 BYTE   W03
 BYTE   Cn1  v122
 BYTE   N02  Dn1
 BYTE   W03
 BYTE   Cn1  v125
 BYTE   N02  Dn1
 BYTE   W03
 BYTE   Cn1  v127
 BYTE   N02  Dn1
 BYTE   W03
 BYTE   N01  Cn1  v108
 BYTE   N11  As1  v069
 BYTE   N24  Cs2  v076  gtp1
 BYTE   W06
 BYTE   N01  Cn1  v108
 BYTE   W06
 BYTE   Cn1
 BYTE   N11  As1  v060
 BYTE   W06
 BYTE   N01  Cn1  v108
 BYTE   W06
 BYTE   Cn1
 BYTE   N05  Dn1  v127
 BYTE   N11  As1  v092
 BYTE   W06
 BYTE   N01  Cn1  v108
 BYTE   W06
 BYTE   Cn1
 BYTE   N11  As1  v072
 BYTE   W06
 BYTE   N01  Cn1  v108
 BYTE   W06
 BYTE   Cn1
 BYTE   N11  As1  v069
 BYTE   W06
 BYTE   N01  Cn1  v108
 BYTE   W06
 BYTE   Cn1
 BYTE   N11  As1  v060
 BYTE   W06
 BYTE   N01  Cn1  v108
 BYTE   W06
//  #10 //021   ----------------------------------------
 BYTE   Cn1
 BYTE   N05  Dn1  v127
 BYTE   N11  As1  v075
 BYTE   W06
 BYTE   N01  Cn1  v108
 BYTE   W06
 BYTE   Cn1
 BYTE   N11  As1  v064
 BYTE   W06
 BYTE   N01  Cn1  v108
 BYTE   W06
 BYTE   Cn1
 BYTE   N11  As1  v075
 BYTE   W06
 BYTE   N01  Cn1  v108
 BYTE   W06
 BYTE   Cn1
 BYTE   N11  As1  v064
 BYTE   W06
 BYTE   N01  Cn1  v108
 BYTE   W06
 BYTE   Cn1
 BYTE   N05  Dn1  v127
 BYTE   N11  As1  v092
 BYTE   W06
 BYTE   N01  Cn1  v108
 BYTE   W06
 BYTE   Cn1
 BYTE   N11  As1  v072
 BYTE   W06
 BYTE   N01  Cn1  v108
 BYTE   W06
 BYTE   Cn1
 BYTE   N11  As1  v075
 BYTE   W06
 BYTE   N01  Cn1  v108
 BYTE   W06
 BYTE   Cn1
 BYTE   N11  As1  v064
 BYTE   W06
 BYTE   N01  Cn1  v108
 BYTE   W06
//  #10 //022   ----------------------------------------
 BYTE   Cn1
 BYTE   N05  Dn1  v127
 BYTE   N11  As1  v075
 BYTE   W06
 BYTE   N01  Cn1  v108
 BYTE   W06
 BYTE   Cn1
 BYTE   N11  As1  v064
 BYTE   W06
 BYTE   N01  Cn1  v108
 BYTE   W06
 BYTE   Cn1
 BYTE   N11  As1  v069
 BYTE   W06
 BYTE   N01  Cn1  v108
 BYTE   W06
 BYTE   Cn1
 BYTE   N11  As1  v060
 BYTE   W06
 BYTE   N01  Cn1  v108
 BYTE   W06
 BYTE   Cn1
 BYTE   N05  Dn1  v127
 BYTE   N11  As1  v075
 BYTE   W06
 BYTE   N01  Cn1  v108
 BYTE   W06
 BYTE   Cn1
 BYTE   N11  As1  v064
 BYTE   W06
 BYTE   N01  Cn1  v108
 BYTE   W06
 BYTE   Cn1
 BYTE   N11  As1  v075
 BYTE   W06
 BYTE   N01  Cn1  v108
 BYTE   W06
 BYTE   Cn1
 BYTE   N11  As1  v064
 BYTE   W06
 BYTE   N01  Cn1  v108
 BYTE   W06
//  #10 //023   ----------------------------------------
 BYTE   Cn1
 BYTE   N05  Dn1  v127
 BYTE   N11  As1  v069
 BYTE   W06
 BYTE   N01  Cn1  v108
 BYTE   W06
 BYTE   Cn1
 BYTE   N11  As1  v060
 BYTE   W06
 BYTE   N01  Cn1  v108
 BYTE   W06
 BYTE   Cn1
 BYTE   N11  As1  v075
 BYTE   W06
 BYTE   N01  Cn1  v108
 BYTE   W06
 BYTE   Cn1
 BYTE   N11  As1  v064
 BYTE   W06
 BYTE   N01  Cn1  v108
 BYTE   W06
 BYTE   Cn1
 BYTE   N05  Dn1  v127
 BYTE   N11  As1  v075
 BYTE   W06
 BYTE   N01  Cn1  v108
 BYTE   W06
 BYTE   Cn1
 BYTE   N11  As1  v064
 BYTE   W06
 BYTE   N01  Cn1  v108
 BYTE   W06
 BYTE   Cn1
 BYTE   N11  As1  v069
 BYTE   W06
 BYTE   N01  Cn1  v108
 BYTE   W06
 BYTE   Cn1
 BYTE   N11  As1  v060
 BYTE   W06
 BYTE   N01  Cn1  v108
 BYTE   W06
//  #10 //024   ----------------------------------------
 BYTE   Cn1
 BYTE   N05  Dn1  v127
 BYTE   N11  As1  v069
 BYTE   W06
 BYTE   N01  Cn1  v108
 BYTE   W06
 BYTE   Cn1
 BYTE   N11  As1  v060
 BYTE   W06
 BYTE   N01  Cn1  v108
 BYTE   N05  En1  v127
 BYTE   W06
 BYTE   N01  Cn1  v108
 BYTE   N11  As1  v069
 BYTE   N24  Cs2  v079  gtp1
 BYTE   W06
 BYTE   N01  Cn1  v108
 BYTE   W06
 BYTE   Cn1
 BYTE   N11  As1  v060
 BYTE   W06
 BYTE   N01  Cn1  v108
 BYTE   W06
 BYTE   Cn1
 BYTE   N05  Dn1  v127
 BYTE   N11  As1  v069
 BYTE   W06
 BYTE   N01  Cn1  v108
 BYTE   W06
 BYTE   Cn1
 BYTE   N11  As1  v060
 BYTE   W06
 BYTE   N01  Cn1  v108
 BYTE   W06
 BYTE   Cn1
 BYTE   N11  As1  v065
 BYTE   W06
 BYTE   N01  Cn1  v108
 BYTE   W06
 BYTE   Cn1
 BYTE   N11  As1  v058
 BYTE   W06
 BYTE   N01  Cn1  v108
 BYTE   W06
//  #10 //025   ----------------------------------------
 BYTE   Cn1
 BYTE   N01  Dn1  v124
 BYTE   N11  As1  v065
 BYTE   W03
 BYTE   N02  En1  v093
 BYTE   W03
 BYTE   N01  Cn1  v108
 BYTE   N02  Dn1  v079
 BYTE   W03
 BYTE   En1
 BYTE   W03
 BYTE   N01  Cn1  v108
 BYTE   N02  An1  v109
 BYTE   N11  As1  v058
 BYTE   W03
 BYTE   N02  An1  v101
 BYTE   W03
 BYTE   N01  Cn1  v108
 BYTE   N02  Gn1  v100
 BYTE   W03
 BYTE   Fn1  v093
 BYTE   W03
 BYTE   N01  Cn1  v108
 BYTE   N11  As1  v069
 BYTE   W06
 BYTE   N01  Cn1  v108
 BYTE   W06
 BYTE   Cn1
 BYTE   N11  As1  v060
 BYTE   W06
 BYTE   N01  Cn1  v108
 BYTE   W06
 BYTE   Cn1
 BYTE   N05  Dn1  v127
 BYTE   N11  As1  v069
 BYTE   W06
 BYTE   N01  Cn1  v108
 BYTE   W06
 BYTE   Cn1
 BYTE   N11  As1  v060
 BYTE   W06
 BYTE   N01  Cn1  v108
 BYTE   W06
 BYTE   N05  Fn1  v127
 BYTE   W06
 BYTE   N02  Bn1
 BYTE   W03
 BYTE   An1  v094
 BYTE   W03
 BYTE   N05  Gn1  v127
 BYTE   W06
 BYTE   N02  Fn1
 BYTE   W03
 BYTE   Fn1  v089
 BYTE   W03
//  #10 //026   ----------------------------------------
 BYTE   Cn1  v082
 BYTE   N02  Dn1
 BYTE   W03
 BYTE   Cs1  v089
 BYTE   N02  En1
 BYTE   W03
 BYTE   Cn1  v097
 BYTE   N02  Dn1
 BYTE   W03
 BYTE   Cs1  v104
 BYTE   N02  En1
 BYTE   W03
 BYTE   Cn1  v112
 BYTE   N02  Dn1
 BYTE   W03
 BYTE   Cs1  v119
 BYTE   N02  En1
 BYTE   W03
 BYTE   Cn1  v127
 BYTE   N02  Dn1
 BYTE   W03
 BYTE   Cs1
 BYTE   N02  En1
 BYTE   W03
 BYTE   GoTo
  POIN2 Label_01002F60
//  #10 //027   ----------------------------------------
 BYTE   W05
 BYTE   FINE

//**************** Track 11 (Midi-Chn.10) ****************//

FE11MedeusBattleMeteorSR23_011:
//  #11 //000   ----------------------------------------
 BYTE   KEYSH   FE11MedeusBattleMeteorSR23_key+0
 BYTE   VOICE   19
 BYTE   W24
 BYTE   VOL   70*FE11MedeusBattleMeteorSR23_mvl/mxv
 BYTE   BEND   c_v+6
 BYTE   N07  Gs1  v088
 BYTE   W08
 BYTE   Bn1  v101
 BYTE   W08
 BYTE   Cn2  v080
 BYTE   W08
 BYTE   N68  Fn2  v104  gtp3
 BYTE   W48
//  #11 //001   ----------------------------------------
 BYTE   W24
 BYTE   N96  Fs2  v067
 BYTE   W72
//  #11 //002   ----------------------------------------
Label_01003425:
 BYTE   W24
 BYTE   N92  An1  v088  gtp3
 BYTE   W72
 BYTE   PEND 
//  #11 //003   ----------------------------------------
 BYTE   PATT
  POIN2 Label_01003425
//  #11 //004   ----------------------------------------
 BYTE   PATT
  POIN2 Label_01003425
//  #11 //005   ----------------------------------------
 BYTE   PATT
  POIN2 Label_01003425
//  #11 //006   ----------------------------------------
 BYTE   PATT
  POIN2 Label_01003425
//  #11 //007   ----------------------------------------
 BYTE   PATT
  POIN2 Label_01003425
//  #11 //008   ----------------------------------------
 BYTE   W24
Label_01003446:
 BYTE   N06  An1  v092
 BYTE   W06
 BYTE   As1  v085
 BYTE   W06
 BYTE   An1  v088
 BYTE   W06
 BYTE   Cn2  v091
 BYTE   W06
 BYTE   An1  v088
 BYTE   W06
 BYTE   As1  v085
 BYTE   W06
 BYTE   An1  v087
 BYTE   W06
 BYTE   Cn2  v092
 BYTE   W06
 BYTE   An1  v091
 BYTE   W06
 BYTE   As1  v083
 BYTE   W06
 BYTE   An1  v090
 BYTE   W06
 BYTE   Cn2  v092
 BYTE   W06
//  #11 //009   ----------------------------------------
Label_0100346B:
 BYTE   N06  An1  v092
 BYTE   W06
 BYTE   As1  v085
 BYTE   W06
 BYTE   An1  v092
 BYTE   W06
 BYTE   Cn2
 BYTE   W06
 BYTE   An1
 BYTE   W06
 BYTE   As1  v085
 BYTE   W06
 BYTE   An1  v088
 BYTE   W06
 BYTE   Cn2  v091
 BYTE   W06
 BYTE   An1  v088
 BYTE   W06
 BYTE   As1  v085
 BYTE   W06
 BYTE   An1  v087
 BYTE   W06
 BYTE   Cn2  v092
 BYTE   W06
 BYTE   An1  v091
 BYTE   W06
 BYTE   As1  v083
 BYTE   W06
 BYTE   An1  v090
 BYTE   W06
 BYTE   Cn2  v092
 BYTE   W06
 BYTE   PEND 
//  #11 //010   ----------------------------------------
 BYTE   PATT
  POIN2 Label_0100346B
//  #11 //011   ----------------------------------------
 BYTE   PATT
  POIN2 Label_0100346B
//  #11 //012   ----------------------------------------
 BYTE   PATT
  POIN2 Label_0100346B
//  #11 //013   ----------------------------------------
 BYTE   PATT
  POIN2 Label_0100346B
//  #11 //014   ----------------------------------------
 BYTE   PATT
  POIN2 Label_0100346B
//  #11 //015   ----------------------------------------
 BYTE   N06  An1  v092
 BYTE   W06
 BYTE   As1  v085
 BYTE   W06
 BYTE   An1  v092
 BYTE   W06
 BYTE   Cn2
 BYTE   W78
//  #11 //016   ----------------------------------------
 BYTE   W96
//  #11 //017   ----------------------------------------
 BYTE   W96
//  #11 //018   ----------------------------------------
 BYTE   W96
//  #11 //019   ----------------------------------------
 BYTE   W96
//  #11 //020   ----------------------------------------
 BYTE   PATT
  POIN2 Label_01003425
//  #11 //021   ----------------------------------------
 BYTE   PATT
  POIN2 Label_01003425
//  #11 //022   ----------------------------------------
 BYTE   PATT
  POIN2 Label_01003425
//  #11 //023   ----------------------------------------
 BYTE   PATT
  POIN2 Label_01003425
//  #11 //024   ----------------------------------------
 BYTE   PATT
  POIN2 Label_01003425
//  #11 //025   ----------------------------------------
 BYTE   PATT
  POIN2 Label_01003425
//  #11 //026   ----------------------------------------
 BYTE   W24
 BYTE   GoTo
  POIN2 Label_01003446
//  #11 //027   ----------------------------------------
 BYTE   W05
 BYTE   FINE

//**************** Track 12 (Midi-Chn.11) ****************//

FE11MedeusBattleMeteorSR23_012:
//  #12 //000   ----------------------------------------
 BYTE   KEYSH   FE11MedeusBattleMeteorSR23_key+0
 BYTE   VOICE   49
 BYTE   W30
 BYTE   BENDR  6
 BYTE   PAN   c_v-64
 BYTE   VOL   20*FE11MedeusBattleMeteorSR23_mvl/mxv
 BYTE   N07  Gs2  v075
 BYTE   W08
 BYTE   Bn2  v065
 BYTE   W08
 BYTE   Cn3  v061
 BYTE   W08
 BYTE   N68  Fn3  v088  gtp3
 BYTE   W03
 BYTE   VOL   16*FE11MedeusBattleMeteorSR23_mvl/mxv
 BYTE   W01
 BYTE   VOL   14*FE11MedeusBattleMeteorSR23_mvl/mxv
 BYTE   W01
 BYTE   VOL   12*FE11MedeusBattleMeteorSR23_mvl/mxv
 BYTE   W01
 BYTE   VOL   8*FE11MedeusBattleMeteorSR23_mvl/mxv
 BYTE   W01
 BYTE   VOL   6*FE11MedeusBattleMeteorSR23_mvl/mxv
 BYTE   W01
 BYTE   VOL   3*FE11MedeusBattleMeteorSR23_mvl/mxv
 BYTE   W09
 BYTE   VOL   4*FE11MedeusBattleMeteorSR23_mvl/mxv
 BYTE   W03
 BYTE   VOL   5*FE11MedeusBattleMeteorSR23_mvl/mxv
 BYTE   W06
 BYTE   VOL   6*FE11MedeusBattleMeteorSR23_mvl/mxv
 BYTE   W06
 BYTE   VOL   7*FE11MedeusBattleMeteorSR23_mvl/mxv
 BYTE   W03
 BYTE   VOL   8*FE11MedeusBattleMeteorSR23_mvl/mxv
 BYTE   W03
 BYTE   VOL   9*FE11MedeusBattleMeteorSR23_mvl/mxv
 BYTE   W04
//  #12 //001   ----------------------------------------
 BYTE   W02
 BYTE   VOL   11*FE11MedeusBattleMeteorSR23_mvl/mxv
 BYTE   W06
 BYTE   VOL   13*FE11MedeusBattleMeteorSR23_mvl/mxv
 BYTE   W03
 BYTE   VOL   14*FE11MedeusBattleMeteorSR23_mvl/mxv
 BYTE   W03
 BYTE   VOL   15*FE11MedeusBattleMeteorSR23_mvl/mxv
 BYTE   W03
 BYTE   VOL   16*FE11MedeusBattleMeteorSR23_mvl/mxv
 BYTE   W03
 BYTE   VOL   18*FE11MedeusBattleMeteorSR23_mvl/mxv
 BYTE   W03
 BYTE   VOL   20*FE11MedeusBattleMeteorSR23_mvl/mxv
 BYTE   W07
 BYTE   N92  Fs3  v095  gtp3
 BYTE   W05
 BYTE   VOL   14*FE11MedeusBattleMeteorSR23_mvl/mxv
 BYTE   W01
 BYTE   VOL   7*FE11MedeusBattleMeteorSR23_mvl/mxv
 BYTE   W01
 BYTE   VOL   0*FE11MedeusBattleMeteorSR23_mvl/mxv
 BYTE   W01
 BYTE   VOL   0*FE11MedeusBattleMeteorSR23_mvl/mxv
 BYTE   W03
 BYTE   VOL   0*FE11MedeusBattleMeteorSR23_mvl/mxv
 BYTE   W06
 BYTE   VOL   0*FE11MedeusBattleMeteorSR23_mvl/mxv
 BYTE   W06
 BYTE   VOL   0*FE11MedeusBattleMeteorSR23_mvl/mxv
 BYTE   W05
 BYTE   VOL   0*FE11MedeusBattleMeteorSR23_mvl/mxv
 BYTE   W06
 BYTE   VOL   0*FE11MedeusBattleMeteorSR23_mvl/mxv
 BYTE   W04
 BYTE   VOL   0*FE11MedeusBattleMeteorSR23_mvl/mxv
 BYTE   W03
 BYTE   VOL   0*FE11MedeusBattleMeteorSR23_mvl/mxv
 BYTE   W05
 BYTE   VOL   0*FE11MedeusBattleMeteorSR23_mvl/mxv
 BYTE   W03
 BYTE   VOL   0*FE11MedeusBattleMeteorSR23_mvl/mxv
 BYTE   W03
 BYTE   VOL   0*FE11MedeusBattleMeteorSR23_mvl/mxv
 BYTE   W01
 BYTE   VOL   0*FE11MedeusBattleMeteorSR23_mvl/mxv
 BYTE   W03
 BYTE   VOL   0*FE11MedeusBattleMeteorSR23_mvl/mxv
 BYTE   W03
 BYTE   VOL   0*FE11MedeusBattleMeteorSR23_mvl/mxv
 BYTE   W02
 BYTE   VOL   0*FE11MedeusBattleMeteorSR23_mvl/mxv
 BYTE   W01
 BYTE   VOL   0*FE11MedeusBattleMeteorSR23_mvl/mxv
 BYTE   W03
 BYTE   VOL   1*FE11MedeusBattleMeteorSR23_mvl/mxv
 BYTE   W01
//  #12 //002   ----------------------------------------
 BYTE   W01
 BYTE   VOL   2*FE11MedeusBattleMeteorSR23_mvl/mxv
 BYTE   W01
 BYTE   VOL   3*FE11MedeusBattleMeteorSR23_mvl/mxv
 BYTE   W02
 BYTE   VOL   4*FE11MedeusBattleMeteorSR23_mvl/mxv
 BYTE   W01
 BYTE   VOL   5*FE11MedeusBattleMeteorSR23_mvl/mxv
 BYTE   W02
 BYTE   VOL   6*FE11MedeusBattleMeteorSR23_mvl/mxv
 BYTE   W01
 BYTE   VOL   7*FE11MedeusBattleMeteorSR23_mvl/mxv
 BYTE   W02
 BYTE   VOL   8*FE11MedeusBattleMeteorSR23_mvl/mxv
 BYTE   W01
 BYTE   VOL   10*FE11MedeusBattleMeteorSR23_mvl/mxv
 BYTE   W02
 BYTE   VOL   11*FE11MedeusBattleMeteorSR23_mvl/mxv
 BYTE   W01
 BYTE   VOL   13*FE11MedeusBattleMeteorSR23_mvl/mxv
 BYTE   W02
 BYTE   VOL   14*FE11MedeusBattleMeteorSR23_mvl/mxv
 BYTE   W01
 BYTE   VOL   16*FE11MedeusBattleMeteorSR23_mvl/mxv
 BYTE   W02
 BYTE   VOL   18*FE11MedeusBattleMeteorSR23_mvl/mxv
 BYTE   W01
 BYTE   VOL   20*FE11MedeusBattleMeteorSR23_mvl/mxv
 BYTE   W10
 BYTE   N92  Cn4  v083  gtp3
 BYTE   W66
//  #12 //003   ----------------------------------------
Label_0100357E:
 BYTE   W30
 BYTE   N92  Bn3  v082  gtp3
 BYTE   W66
 BYTE   PEND 
//  #12 //004   ----------------------------------------
Label_01003585:
 BYTE   W30
 BYTE   N92  Gn3  v083  gtp3
 BYTE   W66
 BYTE   PEND 
//  #12 //005   ----------------------------------------
Label_0100358C:
 BYTE   W30
 BYTE   N92  Cn3  v085  gtp3
 BYTE   W66
 BYTE   PEND 
//  #12 //006   ----------------------------------------
Label_01003593:
 BYTE   W30
 BYTE   N92  Ds3  v079  gtp3
 BYTE   W66
 BYTE   PEND 
//  #12 //007   ----------------------------------------
Label_0100359A:
 BYTE   W30
 BYTE   N92  En3  v078  gtp3
 BYTE   W66
 BYTE   PEND 
//  #12 //008   ----------------------------------------
 BYTE   W24
Label_010035A2:
 BYTE   W06
 BYTE   N44  Cn3  v088  gtp3
 BYTE   W48
 BYTE   N68  An2  v080  gtp3
 BYTE   W18
//  #12 //009   ----------------------------------------
 BYTE   W54
 BYTE   N23  Fs2  v081
 BYTE   W24
 BYTE   An2  v070
 BYTE   W18
//  #12 //010   ----------------------------------------
 BYTE   W06
 BYTE   Cn3  v086
 BYTE   W24
 BYTE   N44  Ds3  v077  gtp3
 BYTE   W48
 BYTE   Fs3
 BYTE   W18
//  #12 //011   ----------------------------------------
 BYTE   W30
 BYTE   An3  v068
 BYTE   W48
 BYTE   Ds4  v063
 BYTE   W18
//  #12 //012   ----------------------------------------
 BYTE   W30
 BYTE   N90  En4  v076
 BYTE   W04
 BYTE   VOL   17*FE11MedeusBattleMeteorSR23_mvl/mxv
 BYTE   W01
 BYTE   VOL   11*FE11MedeusBattleMeteorSR23_mvl/mxv
 BYTE   W01
 BYTE   VOL   8*FE11MedeusBattleMeteorSR23_mvl/mxv
 BYTE   W01
 BYTE   VOL   5*FE11MedeusBattleMeteorSR23_mvl/mxv
 BYTE   W01
 BYTE   VOL   0*FE11MedeusBattleMeteorSR23_mvl/mxv
 BYTE   W01
 BYTE   VOL   0*FE11MedeusBattleMeteorSR23_mvl/mxv
 BYTE   W01
 BYTE   VOL   0*FE11MedeusBattleMeteorSR23_mvl/mxv
 BYTE   W03
 BYTE   VOL   0*FE11MedeusBattleMeteorSR23_mvl/mxv
 BYTE   W09
 BYTE   VOL   0*FE11MedeusBattleMeteorSR23_mvl/mxv
 BYTE   W03
 BYTE   VOL   0*FE11MedeusBattleMeteorSR23_mvl/mxv
 BYTE   W06
 BYTE   VOL   0*FE11MedeusBattleMeteorSR23_mvl/mxv
 BYTE   W03
 BYTE   VOL   0*FE11MedeusBattleMeteorSR23_mvl/mxv
 BYTE   W06
 BYTE   VOL   0*FE11MedeusBattleMeteorSR23_mvl/mxv
 BYTE   W03
 BYTE   VOL   0*FE11MedeusBattleMeteorSR23_mvl/mxv
 BYTE   W03
 BYTE   VOL   0*FE11MedeusBattleMeteorSR23_mvl/mxv
 BYTE   W03
 BYTE   VOL   0*FE11MedeusBattleMeteorSR23_mvl/mxv
 BYTE   W06
 BYTE   VOL   1*FE11MedeusBattleMeteorSR23_mvl/mxv
 BYTE   W03
 BYTE   VOL   2*FE11MedeusBattleMeteorSR23_mvl/mxv
 BYTE   W03
 BYTE   VOL   3*FE11MedeusBattleMeteorSR23_mvl/mxv
 BYTE   W03
 BYTE   VOL   5*FE11MedeusBattleMeteorSR23_mvl/mxv
 BYTE   W02
//  #12 //013   ----------------------------------------
 BYTE   W01
 BYTE   VOL   6*FE11MedeusBattleMeteorSR23_mvl/mxv
 BYTE   W03
 BYTE   VOL   7*FE11MedeusBattleMeteorSR23_mvl/mxv
 BYTE   W03
 BYTE   VOL   9*FE11MedeusBattleMeteorSR23_mvl/mxv
 BYTE   W03
 BYTE   VOL   11*FE11MedeusBattleMeteorSR23_mvl/mxv
 BYTE   W03
 BYTE   VOL   13*FE11MedeusBattleMeteorSR23_mvl/mxv
 BYTE   W03
 BYTE   VOL   14*FE11MedeusBattleMeteorSR23_mvl/mxv
 BYTE   W03
 BYTE   VOL   17*FE11MedeusBattleMeteorSR23_mvl/mxv
 BYTE   W03
 BYTE   VOL   19*FE11MedeusBattleMeteorSR23_mvl/mxv
 BYTE   W01
 BYTE   VOL   20*FE11MedeusBattleMeteorSR23_mvl/mxv
 BYTE   W72
 BYTE   W01
//  #12 //014   ----------------------------------------
 BYTE   W96
//  #12 //015   ----------------------------------------
 BYTE   W30
 BYTE   N92  Cn3  v098  gtp3
 BYTE   W18
 BYTE   VOL   19*FE11MedeusBattleMeteorSR23_mvl/mxv
 BYTE   W09
 BYTE   VOL   18*FE11MedeusBattleMeteorSR23_mvl/mxv
 BYTE   W09
 BYTE   VOL   17*FE11MedeusBattleMeteorSR23_mvl/mxv
 BYTE   W06
 BYTE   VOL   16*FE11MedeusBattleMeteorSR23_mvl/mxv
 BYTE   W09
 BYTE   VOL   15*FE11MedeusBattleMeteorSR23_mvl/mxv
 BYTE   W03
 BYTE   VOL   14*FE11MedeusBattleMeteorSR23_mvl/mxv
 BYTE   W06
 BYTE   VOL   13*FE11MedeusBattleMeteorSR23_mvl/mxv
 BYTE   W06
//  #12 //016   ----------------------------------------
 BYTE   VOL   12*FE11MedeusBattleMeteorSR23_mvl/mxv
 BYTE   W03
 BYTE   VOL   11*FE11MedeusBattleMeteorSR23_mvl/mxv
 BYTE   W06
 BYTE   VOL   10*FE11MedeusBattleMeteorSR23_mvl/mxv
 BYTE   W03
 BYTE   VOL   9*FE11MedeusBattleMeteorSR23_mvl/mxv
 BYTE   W03
 BYTE   VOL   8*FE11MedeusBattleMeteorSR23_mvl/mxv
 BYTE   W03
 BYTE   VOL   7*FE11MedeusBattleMeteorSR23_mvl/mxv
 BYTE   W03
 BYTE   VOL   5*FE11MedeusBattleMeteorSR23_mvl/mxv
 BYTE   W03
 BYTE   VOL   4*FE11MedeusBattleMeteorSR23_mvl/mxv
 BYTE   W03
 BYTE   VOL   2*FE11MedeusBattleMeteorSR23_mvl/mxv
 BYTE   W01
 BYTE   VOL   1*FE11MedeusBattleMeteorSR23_mvl/mxv
 BYTE   W02
 BYTE   N44  Bn2  v098  gtp3
 BYTE   W10
 BYTE   VOL   2*FE11MedeusBattleMeteorSR23_mvl/mxv
 BYTE   W09
 BYTE   VOL   3*FE11MedeusBattleMeteorSR23_mvl/mxv
 BYTE   W12
 BYTE   VOL   4*FE11MedeusBattleMeteorSR23_mvl/mxv
 BYTE   W09
 BYTE   VOL   5*FE11MedeusBattleMeteorSR23_mvl/mxv
 BYTE   W08
 BYTE   N44  Ds3  v098  gtp3
 BYTE   W01
 BYTE   VOL   6*FE11MedeusBattleMeteorSR23_mvl/mxv
 BYTE   W03
 BYTE   VOL   7*FE11MedeusBattleMeteorSR23_mvl/mxv
 BYTE   W09
 BYTE   VOL   8*FE11MedeusBattleMeteorSR23_mvl/mxv
 BYTE   W03
 BYTE   VOL   9*FE11MedeusBattleMeteorSR23_mvl/mxv
 BYTE   W02
//  #12 //017   ----------------------------------------
 BYTE   W04
 BYTE   VOL   10*FE11MedeusBattleMeteorSR23_mvl/mxv
 BYTE   W03
 BYTE   VOL   11*FE11MedeusBattleMeteorSR23_mvl/mxv
 BYTE   W03
 BYTE   VOL   12*FE11MedeusBattleMeteorSR23_mvl/mxv
 BYTE   W03
 BYTE   VOL   13*FE11MedeusBattleMeteorSR23_mvl/mxv
 BYTE   W03
 BYTE   VOL   14*FE11MedeusBattleMeteorSR23_mvl/mxv
 BYTE   W03
 BYTE   VOL   15*FE11MedeusBattleMeteorSR23_mvl/mxv
 BYTE   W03
 BYTE   VOL   16*FE11MedeusBattleMeteorSR23_mvl/mxv
 BYTE   W03
 BYTE   VOL   18*FE11MedeusBattleMeteorSR23_mvl/mxv
 BYTE   W03
 BYTE   VOL   20*FE11MedeusBattleMeteorSR23_mvl/mxv
 BYTE   W02
 BYTE   N96  Gn3
 BYTE   W11
 BYTE   VOL   18*FE11MedeusBattleMeteorSR23_mvl/mxv
 BYTE   W02
 BYTE   VOL   16*FE11MedeusBattleMeteorSR23_mvl/mxv
 BYTE   W01
 BYTE   VOL   14*FE11MedeusBattleMeteorSR23_mvl/mxv
 BYTE   W02
 BYTE   VOL   11*FE11MedeusBattleMeteorSR23_mvl/mxv
 BYTE   W01
 BYTE   VOL   9*FE11MedeusBattleMeteorSR23_mvl/mxv
 BYTE   W02
 BYTE   VOL   7*FE11MedeusBattleMeteorSR23_mvl/mxv
 BYTE   W01
 BYTE   VOL   5*FE11MedeusBattleMeteorSR23_mvl/mxv
 BYTE   W02
 BYTE   VOL   2*FE11MedeusBattleMeteorSR23_mvl/mxv
 BYTE   W01
 BYTE   VOL   0*FE11MedeusBattleMeteorSR23_mvl/mxv
 BYTE   W02
 BYTE   VOL   0*FE11MedeusBattleMeteorSR23_mvl/mxv
 BYTE   W01
 BYTE   VOL   0*FE11MedeusBattleMeteorSR23_mvl/mxv
 BYTE   W01
 BYTE   VOL   0*FE11MedeusBattleMeteorSR23_mvl/mxv
 BYTE   W06
 BYTE   VOL   0*FE11MedeusBattleMeteorSR23_mvl/mxv
 BYTE   W15
 BYTE   VOL   0*FE11MedeusBattleMeteorSR23_mvl/mxv
 BYTE   W06
 BYTE   VOL   0*FE11MedeusBattleMeteorSR23_mvl/mxv
 BYTE   W09
 BYTE   VOL   0*FE11MedeusBattleMeteorSR23_mvl/mxv
 BYTE   W03
//  #12 //018   ----------------------------------------
 BYTE   W03
 BYTE   VOL   0*FE11MedeusBattleMeteorSR23_mvl/mxv
 BYTE   W06
 BYTE   VOL   1*FE11MedeusBattleMeteorSR23_mvl/mxv
 BYTE   W03
 BYTE   VOL   2*FE11MedeusBattleMeteorSR23_mvl/mxv
 BYTE   W03
 BYTE   VOL   3*FE11MedeusBattleMeteorSR23_mvl/mxv
 BYTE   W03
 BYTE   VOL   4*FE11MedeusBattleMeteorSR23_mvl/mxv
 BYTE   W03
 BYTE   VOL   5*FE11MedeusBattleMeteorSR23_mvl/mxv
 BYTE   W03
 BYTE   VOL   6*FE11MedeusBattleMeteorSR23_mvl/mxv
 BYTE   W03
 BYTE   VOL   8*FE11MedeusBattleMeteorSR23_mvl/mxv
 BYTE   W03
 BYTE   VOL   10*FE11MedeusBattleMeteorSR23_mvl/mxv
 BYTE   TIE  Fs3
 BYTE   W08
 BYTE   VOL   9*FE11MedeusBattleMeteorSR23_mvl/mxv
 BYTE   W01
 BYTE   VOL   7*FE11MedeusBattleMeteorSR23_mvl/mxv
 BYTE   W01
 BYTE   VOL   5*FE11MedeusBattleMeteorSR23_mvl/mxv
 BYTE   W01
 BYTE   VOL   1*FE11MedeusBattleMeteorSR23_mvl/mxv
 BYTE   W01
 BYTE   VOL   0*FE11MedeusBattleMeteorSR23_mvl/mxv
 BYTE   W01
 BYTE   VOL   0*FE11MedeusBattleMeteorSR23_mvl/mxv
 BYTE   W01
 BYTE   VOL   0*FE11MedeusBattleMeteorSR23_mvl/mxv
 BYTE   W52
//  #12 //019   ----------------------------------------
 BYTE   W36
 BYTE   BEND   c_v+1
 BYTE   W03
 BYTE   BEND   c_v+2
 BYTE   W03
 BYTE   BEND   c_v+3
 BYTE   W03
 BYTE   BEND   c_v+5
 BYTE   VOL   0*FE11MedeusBattleMeteorSR23_mvl/mxv
 BYTE   W03
 BYTE   BEND   c_v+6
 BYTE   W03
 BYTE   BEND   c_v+7
 BYTE   W03
 BYTE   BEND   c_v+8
 BYTE   VOL   0*FE11MedeusBattleMeteorSR23_mvl/mxv
 BYTE   W03
 BYTE   BEND   c_v+9
 BYTE   W03
 BYTE   BEND   c_v+11
 BYTE   VOL   0*FE11MedeusBattleMeteorSR23_mvl/mxv
 BYTE   W03
 BYTE   BEND   c_v+12
 BYTE   W03
 BYTE   BEND   c_v+13
 BYTE   W03
 BYTE   BEND   c_v+15
 BYTE   VOL   0*FE11MedeusBattleMeteorSR23_mvl/mxv
 BYTE   W03
 BYTE   BEND   c_v+17
 BYTE   VOL   0*FE11MedeusBattleMeteorSR23_mvl/mxv
 BYTE   W03
 BYTE   BEND   c_v+18
 BYTE   W03
 BYTE   BEND   c_v+20
 BYTE   VOL   1*FE11MedeusBattleMeteorSR23_mvl/mxv
 BYTE   W03
 BYTE   BEND   c_v+22
 BYTE   W03
 BYTE   BEND   c_v+24
 BYTE   VOL   2*FE11MedeusBattleMeteorSR23_mvl/mxv
 BYTE   W03
 BYTE   BEND   c_v+26
 BYTE   VOL   3*FE11MedeusBattleMeteorSR23_mvl/mxv
 BYTE   W03
 BYTE   BEND   c_v+28
 BYTE   VOL   4*FE11MedeusBattleMeteorSR23_mvl/mxv
 BYTE   W03
 BYTE   BEND   c_v+30
 BYTE   VOL   5*FE11MedeusBattleMeteorSR23_mvl/mxv
 BYTE   W03
//  #12 //020   ----------------------------------------
 BYTE   BEND   c_v+32
 BYTE   VOL   6*FE11MedeusBattleMeteorSR23_mvl/mxv
 BYTE   W03
 BYTE   BEND   c_v+35
 BYTE   VOL   8*FE11MedeusBattleMeteorSR23_mvl/mxv
 BYTE   W03
 BYTE   BEND   c_v+37
 BYTE   VOL   9*FE11MedeusBattleMeteorSR23_mvl/mxv
 BYTE   W03
 BYTE   BEND   c_v+40
 BYTE   VOL   11*FE11MedeusBattleMeteorSR23_mvl/mxv
 BYTE   W03
 BYTE   BEND   c_v+43
 BYTE   VOL   13*FE11MedeusBattleMeteorSR23_mvl/mxv
 BYTE   W03
 BYTE   BEND   c_v+46
 BYTE   VOL   14*FE11MedeusBattleMeteorSR23_mvl/mxv
 BYTE   W03
 BYTE   BEND   c_v+50
 BYTE   VOL   17*FE11MedeusBattleMeteorSR23_mvl/mxv
 BYTE   W03
 BYTE   BEND   c_v+53
 BYTE   VOL   20*FE11MedeusBattleMeteorSR23_mvl/mxv
 BYTE   W03
 BYTE   BEND   c_v+57
 BYTE   W03
 BYTE   BEND   c_v+63
 BYTE   W03
 BYTE   EOT
 BYTE   BEND   c_v+0
 BYTE   N92  Cn4  v083  gtp3
 BYTE   W66
//  #12 //021   ----------------------------------------
 BYTE   PATT
  POIN2 Label_0100357E
//  #12 //022   ----------------------------------------
 BYTE   PATT
  POIN2 Label_01003585
//  #12 //023   ----------------------------------------
 BYTE   PATT
  POIN2 Label_0100358C
//  #12 //024   ----------------------------------------
 BYTE   PATT
  POIN2 Label_01003593
//  #12 //025   ----------------------------------------
 BYTE   PATT
  POIN2 Label_0100359A
//  #12 //026   ----------------------------------------
 BYTE   W24
 BYTE   GoTo
  POIN2 Label_010035A2
//  #12 //027   ----------------------------------------
 BYTE   W05
 BYTE   FINE

//******************************************************//
	ALIGN 4

FE11MedeusBattleMeteorSR23:
	BYTE	12	// NumTrks
	BYTE	0	// NumBlks
	BYTE	FE11MedeusBattleMeteorSR23_pri	// Priority
	BYTE	FE11MedeusBattleMeteorSR23_rev	// Reverb.
    
	POIN2	FE11MedeusBattleMeteorSR23_grp
    
	POIN2	FE11MedeusBattleMeteorSR23_001
	POIN2	FE11MedeusBattleMeteorSR23_002
	POIN2	FE11MedeusBattleMeteorSR23_003
	POIN2	FE11MedeusBattleMeteorSR23_004
	POIN2	FE11MedeusBattleMeteorSR23_005
	POIN2	FE11MedeusBattleMeteorSR23_006
	POIN2	FE11MedeusBattleMeteorSR23_007
	POIN2	FE11MedeusBattleMeteorSR23_008
	POIN2	FE11MedeusBattleMeteorSR23_009
	POIN2	FE11MedeusBattleMeteorSR23_010
	POIN2	FE11MedeusBattleMeteorSR23_011
	POIN2	FE11MedeusBattleMeteorSR23_012

	
