//Event file generated from Sappy .s format.
	#include "MPlayDef.event"

	#define	FE12DaysofTrainingRoyLili500_grp  voicegroup000
	#define	FE12DaysofTrainingRoyLili500_pri  0
	#define	FE12DaysofTrainingRoyLili500_rev  0
	#define	FE12DaysofTrainingRoyLili500_mvl  127
	#define	FE12DaysofTrainingRoyLili500_key  0
	#define	FE12DaysofTrainingRoyLili500_tbs  1
	#define	FE12DaysofTrainingRoyLili500_exg  0
	#define	FE12DaysofTrainingRoyLili500_cmp  1

	// .rodata
	//	FE12DaysofTrainingRoyLili500
	ALIGN 4


//**************** Track 1 (Midi-Chn.0) ****************//

FE12DaysofTrainingRoyLili500_001:
//  #01 //000   ----------------------------------------
 BYTE   KEYSH   FE12DaysofTrainingRoyLili500_key+0
 BYTE   TEMPO   140*FE12DaysofTrainingRoyLili500_tbs/2
 BYTE   VOICE   48
 BYTE   MODT 0
 BYTE   LFOS 44
 BYTE   VOL   127*FE12DaysofTrainingRoyLili500_mvl/mxv
 BYTE   PAN   c_v+0
 BYTE   BEND   c_v+0
 BYTE   N06  Cs2  v012
 BYTE   N07  Fs2  v008
 BYTE   N06  Cs3  v012
 BYTE   W08
 BYTE   Cs2  v028
 BYTE   N07  Fs2  v032
 BYTE   N06  Cs3  v028
 BYTE   W07
 BYTE   Cs2  v064
 BYTE   N07  Fs2  v060
 BYTE   N06  Cs3  v064
 BYTE   W09
Label_014123A4:
 BYTE   N06  Bn2  v072
 BYTE   W08
 BYTE   N02  En3  v040
 BYTE   W07
 BYTE   Fs3  v048
 BYTE   W09
 BYTE   N06  Bn2  v084
 BYTE   N06  Bn3  v040
 BYTE   W08
 BYTE   En3  v048
 BYTE   W07
 BYTE   Gs2
 BYTE   N06  Fs3
 BYTE   W09
 BYTE   An2  v080
 BYTE   W08
 BYTE   Bn2  v048
 BYTE   N06  Dn3  v028
 BYTE   W07
 BYTE   Cs3  v036
 BYTE   N06  En3  v048
 BYTE   W09
//  #01 //001   ----------------------------------------
Label_014123CC:
 BYTE   N06  An2  v080
 BYTE   W08
 BYTE   Fs2  v036
 BYTE   W07
 BYTE   An2  v048
 BYTE   W09
 BYTE   Bn2
 BYTE   W08
 BYTE   En3  v064
 BYTE   W07
 BYTE   N02  Fs3  v036
 BYTE   W09
 BYTE   N06  Bn2
 BYTE   N06  Bn3  v024
 BYTE   W08
 BYTE   En3  v076
 BYTE   W07
 BYTE   Gs2  v056
 BYTE   N06  Fs3  v048
 BYTE   W09
 BYTE   An2  v040
 BYTE   W08
 BYTE   Bn2  v056
 BYTE   N06  Dn3  v064
 BYTE   W07
 BYTE   Cs3  v084
 BYTE   N06  En3  v020
 BYTE   W09
 BYTE   PEND 
//  #01 //002   ----------------------------------------
Label_014123FE:
 BYTE   N06  An2  v048
 BYTE   W08
 BYTE   Fs2  v068
 BYTE   W07
 BYTE   An2  v032
 BYTE   W09
 BYTE   Bn2  v072
 BYTE   W08
 BYTE   N02  En3  v040
 BYTE   W07
 BYTE   Fs3  v048
 BYTE   W09
 BYTE   N06  Bn2  v084
 BYTE   N06  Bn3  v040
 BYTE   W08
 BYTE   En3  v048
 BYTE   W07
 BYTE   Gs2
 BYTE   N06  Fs3
 BYTE   W09
 BYTE   An2  v080
 BYTE   W08
 BYTE   Bn2  v048
 BYTE   N06  Dn3  v028
 BYTE   W07
 BYTE   Cs3  v036
 BYTE   N06  En3  v048
 BYTE   W09
 BYTE   PEND 
//  #01 //003   ----------------------------------------
 BYTE   PATT
  POIN2 Label_014123CC
//  #01 //004   ----------------------------------------
 BYTE   PATT
  POIN2 Label_014123FE
//  #01 //005   ----------------------------------------
 BYTE   PATT
  POIN2 Label_014123CC
//  #01 //006   ----------------------------------------
 BYTE   N06  An2  v048
 BYTE   W08
 BYTE   Fs2  v068
 BYTE   W07
 BYTE   An2  v032
 BYTE   W09
 BYTE   Cn3  v072
 BYTE   W08
 BYTE   N02  Fn3  v040
 BYTE   W07
 BYTE   Gn3  v048
 BYTE   W09
 BYTE   N06  Cn3  v084
 BYTE   N06  Cn4  v040
 BYTE   W08
 BYTE   Fn3  v048
 BYTE   W07
 BYTE   An2
 BYTE   N06  Gn3
 BYTE   W09
 BYTE   As2  v080
 BYTE   W08
 BYTE   Cn3  v048
 BYTE   N06  Ds3  v028
 BYTE   W07
 BYTE   Dn3  v036
 BYTE   N06  Fn3  v048
 BYTE   W09
//  #01 //007   ----------------------------------------
Label_01412470:
 BYTE   N06  As2  v080
 BYTE   W08
 BYTE   Gn2  v036
 BYTE   W07
 BYTE   As2  v048
 BYTE   W09
 BYTE   Cn3
 BYTE   W08
 BYTE   Fn3  v064
 BYTE   W07
 BYTE   N02  Gn3  v036
 BYTE   W09
 BYTE   N06  Cn3
 BYTE   N06  Cn4  v024
 BYTE   W08
 BYTE   Fn3  v076
 BYTE   W07
 BYTE   An2  v056
 BYTE   N06  Gn3  v048
 BYTE   W09
 BYTE   As2  v040
 BYTE   W08
 BYTE   Cn3  v056
 BYTE   N06  Ds3  v064
 BYTE   W07
 BYTE   Dn3  v084
 BYTE   N06  Fn3  v020
 BYTE   W09
 BYTE   PEND 
//  #01 //008   ----------------------------------------
 BYTE   As2  v048
 BYTE   W08
 BYTE   Gn2  v068
 BYTE   W07
 BYTE   As2  v032
 BYTE   W09
 BYTE   Cn3  v072
 BYTE   W08
 BYTE   N02  Fn3  v040
 BYTE   W07
 BYTE   Gn3  v048
 BYTE   W09
 BYTE   N06  Cn3  v084
 BYTE   N06  Cn4  v040
 BYTE   W08
 BYTE   Fn3  v048
 BYTE   W07
 BYTE   An2
 BYTE   N06  Gn3
 BYTE   W09
 BYTE   As2  v080
 BYTE   W08
 BYTE   Cn3  v048
 BYTE   N06  Ds3  v028
 BYTE   W07
 BYTE   Dn3  v036
 BYTE   N06  Fn3  v048
 BYTE   W09
//  #01 //009   ----------------------------------------
 BYTE   PATT
  POIN2 Label_01412470
//  #01 //010   ----------------------------------------
 BYTE   N06  As2  v048
 BYTE   W08
 BYTE   Gn2  v068
 BYTE   W07
 BYTE   As2  v032
 BYTE   W09
 BYTE   Bn2  v072
 BYTE   W08
 BYTE   N02  En3  v040
 BYTE   W07
 BYTE   Fs3  v048
 BYTE   W09
 BYTE   N06  Bn2  v084
 BYTE   N06  Bn3  v040
 BYTE   W08
 BYTE   En3  v048
 BYTE   W07
 BYTE   Gs2
 BYTE   N06  Fs3
 BYTE   W09
 BYTE   An2  v080
 BYTE   W08
 BYTE   Bn2  v048
 BYTE   N06  Dn3  v028
 BYTE   W07
 BYTE   Cs3  v036
 BYTE   N06  En3  v048
 BYTE   W09
//  #01 //011   ----------------------------------------
 BYTE   PATT
  POIN2 Label_014123CC
//  #01 //012   ----------------------------------------
 BYTE   PATT
  POIN2 Label_014123FE
//  #01 //013   ----------------------------------------
 BYTE   PATT
  POIN2 Label_014123CC
//  #01 //014   ----------------------------------------
 BYTE   N06  An2  v048
 BYTE   W08
 BYTE   Fs2  v068
 BYTE   W07
 BYTE   An2  v032
 BYTE   W09
 BYTE   As2  v072
 BYTE   W08
 BYTE   N02  Ds3  v040
 BYTE   W07
 BYTE   Fn3  v048
 BYTE   W09
 BYTE   N06  As2  v084
 BYTE   N06  As3  v040
 BYTE   W08
 BYTE   Ds3  v048
 BYTE   W07
 BYTE   Gn2
 BYTE   N06  Fn3
 BYTE   W09
 BYTE   Gs2  v080
 BYTE   W08
 BYTE   As2  v048
 BYTE   N06  Cs3  v028
 BYTE   W07
 BYTE   Cn3  v036
 BYTE   N06  Ds3  v048
 BYTE   W09
//  #01 //015   ----------------------------------------
Label_01412548:
 BYTE   N06  Gs2  v080
 BYTE   W08
 BYTE   Fn2  v036
 BYTE   W07
 BYTE   Gs2  v048
 BYTE   W09
 BYTE   As2
 BYTE   W08
 BYTE   Ds3  v064
 BYTE   W07
 BYTE   N02  Fn3  v036
 BYTE   W09
 BYTE   N06  As2
 BYTE   N06  As3  v024
 BYTE   W08
 BYTE   Ds3  v076
 BYTE   W07
 BYTE   Gn2  v056
 BYTE   N06  Fn3  v048
 BYTE   W09
 BYTE   Gs2  v040
 BYTE   W08
 BYTE   As2  v056
 BYTE   N06  Cs3  v064
 BYTE   W07
 BYTE   Cn3  v084
 BYTE   N06  Ds3  v020
 BYTE   W09
 BYTE   PEND 
//  #01 //016   ----------------------------------------
 BYTE   Gs2  v048
 BYTE   W08
 BYTE   Fn2  v068
 BYTE   W07
 BYTE   Gs2  v032
 BYTE   W09
 BYTE   As2  v072
 BYTE   W08
 BYTE   N02  Ds3  v040
 BYTE   W07
 BYTE   Fn3  v048
 BYTE   W09
 BYTE   N06  As2  v084
 BYTE   N06  As3  v040
 BYTE   W08
 BYTE   Ds3  v048
 BYTE   W07
 BYTE   Gn2
 BYTE   N06  Fn3
 BYTE   W09
 BYTE   Gs2  v080
 BYTE   W08
 BYTE   As2  v048
 BYTE   N06  Cs3  v028
 BYTE   W07
 BYTE   Cn3  v036
 BYTE   N06  Ds3  v048
 BYTE   W09
//  #01 //017   ----------------------------------------
 BYTE   PATT
  POIN2 Label_01412548
//  #01 //018   ----------------------------------------
 BYTE   N06  Gs2  v048
 BYTE   W08
 BYTE   Fn2  v068
 BYTE   W07
 BYTE   Gs2  v032
 BYTE   W09
 BYTE   Cs3  v068
 BYTE   W08
 BYTE   Bn2  v048
 BYTE   N06  Fs3  v064
 BYTE   W07
 BYTE   Fs2  v044
 BYTE   N06  En3  v048
 BYTE   W09
 BYTE   Bn2  v032
 BYTE   W08
 BYTE   Fs3  v072
 BYTE   W07
 BYTE   Cs3  v068
 BYTE   N06  En3  v048
 BYTE   W09
 BYTE   Bn2
 BYTE   N06  Cs3  v032
 BYTE   W08
 BYTE   Fs2
 BYTE   W07
 BYTE   Cs4  v040
 BYTE   W09
//  #01 //019   ----------------------------------------
 BYTE   Bn2  v064
 BYTE   N06  Gs3  v048
 BYTE   W08
 BYTE   Fs3  v028
 BYTE   W07
 BYTE   Cs3  v032
 BYTE   W09
 BYTE   Fs3  v060
 BYTE   N06  Bn3  v036
 BYTE   W08
 BYTE   Bn2  v032
 BYTE   N06  Fs3  v048
 BYTE   W07
 BYTE   Cs3
 BYTE   N06  En3  v028
 BYTE   W09
 BYTE   Fs3  v044
 BYTE   W08
 BYTE   Fs4  v032
 BYTE   W07
 BYTE   Fs3  v076
 BYTE   N06  Cs4  v024
 BYTE   W09
 BYTE   Cs3  v048
 BYTE   N06  Bn3  v012
 BYTE   W08
 BYTE   Bn2  v036
 BYTE   W07
 BYTE   Bn3  v040
 BYTE   N06  Bn4  v032
 BYTE   W09
//  #01 //020   ----------------------------------------
 BYTE   Fs3  v056
 BYTE   N06  Fs4  v024
 BYTE   W08
 BYTE   Cs3  v048
 BYTE   N06  En4  v016
 BYTE   W07
 BYTE   Bn2  v036
 BYTE   N06  Bn3  v008
 BYTE   W09
 BYTE   GoTo
  POIN2 Label_014123A4
 BYTE   FINE

//**************** Track 2 (Midi-Chn.1) ****************//

FE12DaysofTrainingRoyLili500_002:
//  #02 //000   ----------------------------------------
 BYTE   KEYSH   FE12DaysofTrainingRoyLili500_key+0
 BYTE   VOICE   48
 BYTE   MODT 0
 BYTE   LFOS 44
 BYTE   VOL   60*FE12DaysofTrainingRoyLili500_mvl/mxv
 BYTE   PAN   c_v+0
 BYTE   BEND   c_v+0
 BYTE   W24
Label_01413DF7:
 BYTE   W08
 BYTE   N06  Bn2  v072
 BYTE   W07
 BYTE   N02  En3  v040
 BYTE   W09
 BYTE   Fs3  v048
 BYTE   W08
 BYTE   N06  Bn2  v084
 BYTE   N06  Bn3  v072
 BYTE   W07
 BYTE   En3  v048
 BYTE   W09
 BYTE   Gs2
 BYTE   N06  Fs3
 BYTE   W08
 BYTE   An2  v080
 BYTE   W07
 BYTE   Bn2  v048
 BYTE   N06  Dn3  v028
 BYTE   W09
//  #02 //001   ----------------------------------------
Label_01413E1A:
 BYTE   N06  Cs3  v036
 BYTE   N06  En3  v048
 BYTE   W08
 BYTE   An2  v080
 BYTE   W07
 BYTE   Fs2  v036
 BYTE   W09
 BYTE   An2  v048
 BYTE   W08
 BYTE   Bn2
 BYTE   W07
 BYTE   En3  v064
 BYTE   W09
 BYTE   N02  Fs3  v036
 BYTE   W08
 BYTE   N06  Bn2
 BYTE   N06  Bn3  v052
 BYTE   W07
 BYTE   En3  v076
 BYTE   W09
 BYTE   Gs2  v056
 BYTE   N06  Fs3  v048
 BYTE   W08
 BYTE   An2  v040
 BYTE   W07
 BYTE   Bn2  v056
 BYTE   N06  Dn3  v064
 BYTE   W09
 BYTE   PEND 
//  #02 //002   ----------------------------------------
Label_01413E4C:
 BYTE   N06  Cs3  v084
 BYTE   N06  En3  v020
 BYTE   W08
 BYTE   An2  v048
 BYTE   W07
 BYTE   Fs2  v068
 BYTE   W09
 BYTE   An2  v032
 BYTE   W08
 BYTE   Bn2  v072
 BYTE   W07
 BYTE   N02  En3  v040
 BYTE   W09
 BYTE   Fs3  v048
 BYTE   W08
 BYTE   N06  Bn2  v084
 BYTE   N06  Bn3  v072
 BYTE   W07
 BYTE   En3  v048
 BYTE   W09
 BYTE   Gs2
 BYTE   N06  Fs3
 BYTE   W08
 BYTE   An2  v080
 BYTE   W07
 BYTE   Bn2  v048
 BYTE   N06  Dn3  v028
 BYTE   W09
 BYTE   PEND 
//  #02 //003   ----------------------------------------
 BYTE   PATT
  POIN2 Label_01413E1A
//  #02 //004   ----------------------------------------
 BYTE   PATT
  POIN2 Label_01413E4C
//  #02 //005   ----------------------------------------
 BYTE   PATT
  POIN2 Label_01413E1A
//  #02 //006   ----------------------------------------
 BYTE   N06  Cs3  v084
 BYTE   N06  En3  v020
 BYTE   W08
 BYTE   An2  v048
 BYTE   W07
 BYTE   Fs2  v068
 BYTE   W09
 BYTE   An2  v032
 BYTE   W08
 BYTE   Cn3  v072
 BYTE   W07
 BYTE   N02  Fn3  v040
 BYTE   W09
 BYTE   Gn3  v048
 BYTE   W08
 BYTE   N06  Cn3  v084
 BYTE   N06  Cn4  v072
 BYTE   W07
 BYTE   Fn3  v048
 BYTE   W09
 BYTE   An2
 BYTE   N06  Gn3
 BYTE   W08
 BYTE   As2  v080
 BYTE   W07
 BYTE   Cn3  v048
 BYTE   N06  Ds3  v028
 BYTE   W09
//  #02 //007   ----------------------------------------
Label_01413EBE:
 BYTE   N06  Dn3  v036
 BYTE   N06  Fn3  v048
 BYTE   W08
 BYTE   As2  v080
 BYTE   W07
 BYTE   Gn2  v036
 BYTE   W09
 BYTE   As2  v048
 BYTE   W08
 BYTE   Cn3
 BYTE   W07
 BYTE   Fn3  v064
 BYTE   W09
 BYTE   N02  Gn3  v036
 BYTE   W08
 BYTE   N06  Cn3
 BYTE   N06  Cn4  v052
 BYTE   W07
 BYTE   Fn3  v076
 BYTE   W09
 BYTE   An2  v056
 BYTE   N06  Gn3  v048
 BYTE   W08
 BYTE   As2  v040
 BYTE   W07
 BYTE   Cn3  v056
 BYTE   N06  Ds3  v064
 BYTE   W09
 BYTE   PEND 
//  #02 //008   ----------------------------------------
 BYTE   Dn3  v084
 BYTE   N06  Fn3  v020
 BYTE   W08
 BYTE   As2  v048
 BYTE   W07
 BYTE   Gn2  v068
 BYTE   W09
 BYTE   As2  v032
 BYTE   W08
 BYTE   Cn3  v072
 BYTE   W07
 BYTE   N02  Fn3  v040
 BYTE   W09
 BYTE   Gn3  v048
 BYTE   W08
 BYTE   N06  Cn3  v084
 BYTE   N06  Cn4  v072
 BYTE   W07
 BYTE   Fn3  v048
 BYTE   W09
 BYTE   An2
 BYTE   N06  Gn3
 BYTE   W08
 BYTE   As2  v080
 BYTE   W07
 BYTE   Cn3  v048
 BYTE   N06  Ds3  v028
 BYTE   W09
//  #02 //009   ----------------------------------------
 BYTE   PATT
  POIN2 Label_01413EBE
//  #02 //010   ----------------------------------------
 BYTE   N06  Dn3  v084
 BYTE   N06  Fn3  v020
 BYTE   W08
 BYTE   As2  v048
 BYTE   W07
 BYTE   Gn2  v068
 BYTE   W09
 BYTE   As2  v032
 BYTE   W08
 BYTE   Bn2  v072
 BYTE   W07
 BYTE   N02  En3  v040
 BYTE   W16
 BYTE   N06  Bn2  v084
 BYTE   W08
 BYTE   En3  v048
 BYTE   W08
 BYTE   Gs2
 BYTE   W01
 BYTE   Fs3
 BYTE   W07
 BYTE   An2  v080
 BYTE   W08
 BYTE   Bn2  v048
 BYTE   N06  Dn3  v028
 BYTE   W08
 BYTE   Cs3  v036
 BYTE   W01
//  #02 //011   ----------------------------------------
 BYTE   En3  v048
 BYTE   W07
 BYTE   An2  v080
 BYTE   W08
 BYTE   Fs2  v036
 BYTE   W09
 BYTE   An2  v048
 BYTE   W08
 BYTE   Bn2
 BYTE   W07
 BYTE   En3  v064
 BYTE   W09
 BYTE   N02  Fs3  v036
 BYTE   W07
 BYTE   N06  Bn2
 BYTE   W01
 BYTE   Bn3  v052
 BYTE   W07
 BYTE   En3  v076
 BYTE   W08
 BYTE   Gs2  v056
 BYTE   W01
 BYTE   Fs3  v048
 BYTE   W07
 BYTE   An2  v040
 BYTE   W08
 BYTE   Bn2  v056
 BYTE   N06  Dn3  v064
 BYTE   W08
 BYTE   Cs3  v084
 BYTE   W01
//  #02 //012   ----------------------------------------
 BYTE   En3  v020
 BYTE   W07
 BYTE   An2  v048
 BYTE   W08
 BYTE   Fs2  v068
 BYTE   W09
 BYTE   An2  v032
 BYTE   W08
 BYTE   Bn2  v072
 BYTE   W07
 BYTE   N02  En3  v040
 BYTE   W09
 BYTE   Fs3  v048
 BYTE   W08
 BYTE   N06  Bn2  v084
 BYTE   N06  Bn3  v072
 BYTE   W07
 BYTE   En3  v048
 BYTE   W09
 BYTE   Gs2
 BYTE   N06  Fs3
 BYTE   W08
 BYTE   An2  v080
 BYTE   W07
 BYTE   Bn2  v048
 BYTE   N06  Dn3  v028
 BYTE   W09
//  #02 //013   ----------------------------------------
 BYTE   PATT
  POIN2 Label_01413E1A
//  #02 //014   ----------------------------------------
 BYTE   N06  Cs3  v084
 BYTE   N06  En3  v020
 BYTE   W08
 BYTE   An2  v048
 BYTE   W07
 BYTE   Fs2  v068
 BYTE   W09
 BYTE   An2  v032
 BYTE   W08
 BYTE   As2  v072
 BYTE   W07
 BYTE   N02  Ds3  v040
 BYTE   W09
 BYTE   Fn3  v048
 BYTE   W08
 BYTE   N06  As2  v084
 BYTE   N06  As3  v072
 BYTE   W07
 BYTE   Ds3  v048
 BYTE   W09
 BYTE   Gn2
 BYTE   N06  Fn3
 BYTE   W08
 BYTE   Gs2  v080
 BYTE   W07
 BYTE   As2  v048
 BYTE   N06  Cs3  v028
 BYTE   W09
//  #02 //015   ----------------------------------------
Label_01413FE6:
 BYTE   N06  Cn3  v036
 BYTE   N06  Ds3  v048
 BYTE   W08
 BYTE   Gs2  v080
 BYTE   W07
 BYTE   Fn2  v036
 BYTE   W09
 BYTE   Gs2  v048
 BYTE   W08
 BYTE   As2
 BYTE   W07
 BYTE   Ds3  v064
 BYTE   W09
 BYTE   N02  Fn3  v036
 BYTE   W08
 BYTE   N06  As2
 BYTE   N06  As3  v052
 BYTE   W07
 BYTE   Ds3  v076
 BYTE   W09
 BYTE   Gn2  v056
 BYTE   N06  Fn3  v048
 BYTE   W08
 BYTE   Gs2  v040
 BYTE   W07
 BYTE   As2  v056
 BYTE   N06  Cs3  v064
 BYTE   W09
 BYTE   PEND 
//  #02 //016   ----------------------------------------
 BYTE   Cn3  v084
 BYTE   N06  Ds3  v020
 BYTE   W08
 BYTE   Gs2  v048
 BYTE   W07
 BYTE   Fn2  v068
 BYTE   W09
 BYTE   Gs2  v032
 BYTE   W08
 BYTE   As2  v072
 BYTE   W07
 BYTE   N02  Ds3  v040
 BYTE   W09
 BYTE   Fn3  v048
 BYTE   W08
 BYTE   N06  As2  v084
 BYTE   N06  As3  v072
 BYTE   W07
 BYTE   Ds3  v048
 BYTE   W09
 BYTE   Gn2
 BYTE   N06  Fn3
 BYTE   W08
 BYTE   Gs2  v080
 BYTE   W07
 BYTE   As2  v048
 BYTE   N06  Cs3  v028
 BYTE   W09
//  #02 //017   ----------------------------------------
 BYTE   PATT
  POIN2 Label_01413FE6
//  #02 //018   ----------------------------------------
 BYTE   N06  Cn3  v084
 BYTE   N06  Ds3  v020
 BYTE   W08
 BYTE   Gs2  v048
 BYTE   W07
 BYTE   Fn2  v068
 BYTE   W09
 BYTE   Gs2  v032
 BYTE   W08
 BYTE   Cs3  v068
 BYTE   W07
 BYTE   Bn2  v048
 BYTE   N06  Fs3  v064
 BYTE   W09
 BYTE   Fs2  v044
 BYTE   N06  En3  v048
 BYTE   W08
 BYTE   Bn2  v032
 BYTE   W07
 BYTE   Fs3  v072
 BYTE   W09
 BYTE   Cs3  v068
 BYTE   N06  En3  v048
 BYTE   W08
 BYTE   Bn2
 BYTE   N06  Cs3  v032
 BYTE   W07
 BYTE   Fs2
 BYTE   W09
//  #02 //019   ----------------------------------------
 BYTE   Cs4  v072
 BYTE   W08
 BYTE   Bn2  v064
 BYTE   N06  Gs3  v048
 BYTE   W07
 BYTE   Fs3  v028
 BYTE   W09
 BYTE   Cs3  v032
 BYTE   W08
 BYTE   Fs3  v060
 BYTE   N06  Bn3  v072
 BYTE   W07
 BYTE   Bn2  v032
 BYTE   N06  Fs3  v048
 BYTE   W09
 BYTE   Cs3
 BYTE   N06  En3  v028
 BYTE   W08
 BYTE   Fs3  v044
 BYTE   W07
 BYTE   Fs4  v064
 BYTE   W09
 BYTE   Fs3  v076
 BYTE   N06  Cs4  v048
 BYTE   W08
 BYTE   Cs3
 BYTE   N06  Bn3  v036
 BYTE   W07
 BYTE   Bn2
 BYTE   W09
//  #02 //020   ----------------------------------------
 BYTE   Bn3  v072
 BYTE   N06  Bn4  v060
 BYTE   N06  Bn6  v072
 BYTE   W08
 BYTE   Fs3  v056
 BYTE   N06  Fs4
 BYTE   W07
 BYTE   Cs3  v048
 BYTE   N06  En4  v040
 BYTE   W09
 BYTE   GoTo
  POIN2 Label_01413DF7
 BYTE   FINE

//**************** Track 3 (Midi-Chn.2) ****************//

FE12DaysofTrainingRoyLili500_003:
//  #03 //000   ----------------------------------------
 BYTE   KEYSH   FE12DaysofTrainingRoyLili500_key+0
 BYTE   VOICE   33
 BYTE   MODT 0
 BYTE   LFOS 44
 BYTE   VOL   73*FE12DaysofTrainingRoyLili500_mvl/mxv
 BYTE   PAN   c_v+18
 BYTE   BEND   c_v+0
 BYTE   W24
Label_0141266F:
 BYTE   N03  Bn1  v127
 BYTE   W08
 BYTE   N03
 BYTE   W07
 BYTE   N04  Bn1  v048
 BYTE   W09
 BYTE   N03  Bn1  v127
 BYTE   W08
 BYTE   N06  An2  v108
 BYTE   W07
 BYTE   Bn2
 BYTE   W09
 BYTE   N03  Bn1  v127
 BYTE   W08
 BYTE   Bn1  v052
 BYTE   W07
 BYTE   N04  Bn1  v024
 BYTE   W09
//  #03 //001   ----------------------------------------
Label_0141268E:
 BYTE   N03  Bn1  v127
 BYTE   W08
 BYTE   Bn1  v048
 BYTE   W07
 BYTE   N04  Bn1  v032
 BYTE   W09
 BYTE   N03  Bn1  v127
 BYTE   W08
 BYTE   N03
 BYTE   W07
 BYTE   N04  Bn1  v048
 BYTE   W09
 BYTE   N03  Bn1  v127
 BYTE   W08
 BYTE   Bn1  v048
 BYTE   W07
 BYTE   N06  An2  v108
 BYTE   W09
 BYTE   Bn2
 BYTE   W08
 BYTE   Dn2
 BYTE   W07
 BYTE   En2
 BYTE   W09
 BYTE   PEND 
//  #03 //002   ----------------------------------------
 BYTE   An1
 BYTE   W08
 BYTE   N03  An1  v048
 BYTE   W07
 BYTE   N04  An1  v088
 BYTE   W09
 BYTE   N03  Bn1  v127
 BYTE   W08
 BYTE   N03
 BYTE   W07
 BYTE   N04  Bn1  v048
 BYTE   W09
 BYTE   N03  Bn1  v127
 BYTE   W08
 BYTE   N06  An2  v108
 BYTE   W07
 BYTE   Bn2
 BYTE   W09
 BYTE   N03  Bn1  v127
 BYTE   W08
 BYTE   Bn1  v052
 BYTE   W07
 BYTE   N04  Bn1  v024
 BYTE   W09
//  #03 //003   ----------------------------------------
 BYTE   PATT
  POIN2 Label_0141268E
//  #03 //004   ----------------------------------------
Label_014126E3:
 BYTE   N06  An1  v108
 BYTE   W08
 BYTE   N03  An1  v048
 BYTE   W07
 BYTE   N04  An1  v088
 BYTE   W09
 BYTE   N03  Bn1  v127
 BYTE   W08
 BYTE   N03
 BYTE   W07
 BYTE   N04  Bn1  v048
 BYTE   W09
 BYTE   N03  Bn1  v127
 BYTE   W08
 BYTE   Bn1  v048
 BYTE   W07
 BYTE   N04  Bn1  v032
 BYTE   W09
 BYTE   N03  Bn1  v127
 BYTE   W08
 BYTE   Bn1  v052
 BYTE   W07
 BYTE   N04  Bn1  v024
 BYTE   W09
 BYTE   PEND 
//  #03 //005   ----------------------------------------
Label_01412710:
 BYTE   N03  Bn1  v127
 BYTE   W08
 BYTE   Bn1  v048
 BYTE   W07
 BYTE   N06  En2  v108
 BYTE   W09
 BYTE   Fs2
 BYTE   W08
 BYTE   An2
 BYTE   W07
 BYTE   Bn2
 BYTE   W09
 BYTE   N03  Bn1  v127
 BYTE   W08
 BYTE   Bn1  v048
 BYTE   W07
 BYTE   N04  Bn1  v032
 BYTE   W09
 BYTE   N03  Bn1  v127
 BYTE   W08
 BYTE   Bn1  v040
 BYTE   W07
 BYTE   N06  An1  v108
 BYTE   W09
 BYTE   PEND 
//  #03 //006   ----------------------------------------
 BYTE   Bn1
 BYTE   W08
 BYTE   En2
 BYTE   W07
 BYTE   An2
 BYTE   W09
 BYTE   N03  Cn3  v127
 BYTE   W08
 BYTE   Cn2
 BYTE   W07
 BYTE   N04  Cn2  v048
 BYTE   W09
 BYTE   N03  Cn2  v127
 BYTE   W08
 BYTE   N06  As2  v108
 BYTE   W07
 BYTE   Cn3
 BYTE   W09
 BYTE   N03  Cn2  v127
 BYTE   W08
 BYTE   Cn2  v052
 BYTE   W07
 BYTE   N04  Cn2  v024
 BYTE   W09
//  #03 //007   ----------------------------------------
 BYTE   N03  Cn2  v127
 BYTE   W08
 BYTE   Cn2  v048
 BYTE   W07
 BYTE   N04  Cn2  v032
 BYTE   W09
 BYTE   N03  Cn2  v127
 BYTE   W08
 BYTE   N03
 BYTE   W07
 BYTE   N04  Cn2  v048
 BYTE   W09
 BYTE   N03  Cn2  v127
 BYTE   W08
 BYTE   Cn2  v048
 BYTE   W07
 BYTE   N06  As2  v108
 BYTE   W09
 BYTE   Cn3
 BYTE   W08
 BYTE   Ds2
 BYTE   W07
 BYTE   Fn2
 BYTE   W09
//  #03 //008   ----------------------------------------
 BYTE   As1
 BYTE   W08
 BYTE   N03  As1  v048
 BYTE   W07
 BYTE   N04  As1  v088
 BYTE   W09
 BYTE   N03  Cn2  v127
 BYTE   W08
 BYTE   N03
 BYTE   W07
 BYTE   N04  Cn2  v048
 BYTE   W09
 BYTE   N03  Cn2  v127
 BYTE   W08
 BYTE   Cn2  v048
 BYTE   W07
 BYTE   N04  Cn2  v032
 BYTE   W09
 BYTE   N03  Cn2  v127
 BYTE   W08
 BYTE   Cn2  v052
 BYTE   W07
 BYTE   N04  Cn2  v024
 BYTE   W09
//  #03 //009   ----------------------------------------
 BYTE   N03  Cn2  v127
 BYTE   W08
 BYTE   Cn2  v048
 BYTE   W07
 BYTE   N06  Fn2  v108
 BYTE   W09
 BYTE   Gn2
 BYTE   W08
 BYTE   As2
 BYTE   W07
 BYTE   Cn3
 BYTE   W09
 BYTE   N03  Cn2  v127
 BYTE   W08
 BYTE   Cn2  v048
 BYTE   W07
 BYTE   N04  Cn2  v032
 BYTE   W09
 BYTE   N03  Cn2  v127
 BYTE   W08
 BYTE   Cn2  v040
 BYTE   W07
 BYTE   N06  As1  v108
 BYTE   W09
//  #03 //010   ----------------------------------------
 BYTE   Cn2
 BYTE   W08
 BYTE   Fn2
 BYTE   W07
 BYTE   As2
 BYTE   W09
 BYTE   N03  Bn2  v127
 BYTE   W08
 BYTE   Bn1
 BYTE   W07
 BYTE   N04  Bn1  v048
 BYTE   W09
 BYTE   N03  Bn1  v127
 BYTE   W08
 BYTE   N06  An2  v108
 BYTE   W07
 BYTE   Bn2
 BYTE   W09
 BYTE   N03  Bn1  v127
 BYTE   W08
 BYTE   Bn1  v052
 BYTE   W07
 BYTE   N04  Bn1  v024
 BYTE   W09
//  #03 //011   ----------------------------------------
 BYTE   PATT
  POIN2 Label_0141268E
//  #03 //012   ----------------------------------------
 BYTE   PATT
  POIN2 Label_014126E3
//  #03 //013   ----------------------------------------
 BYTE   PATT
  POIN2 Label_01412710
//  #03 //014   ----------------------------------------
 BYTE   N06  Bn1  v108
 BYTE   W08
 BYTE   En2
 BYTE   W07
 BYTE   An2
 BYTE   W09
 BYTE   N03  As2  v127
 BYTE   W08
 BYTE   As1
 BYTE   W07
 BYTE   N04  As1  v048
 BYTE   W09
 BYTE   N03  As1  v127
 BYTE   W08
 BYTE   N06  Gs2  v108
 BYTE   W07
 BYTE   As2
 BYTE   W09
 BYTE   N03  As1  v127
 BYTE   W08
 BYTE   As1  v052
 BYTE   W07
 BYTE   N04  As1  v024
 BYTE   W09
//  #03 //015   ----------------------------------------
 BYTE   N03  As1  v127
 BYTE   W08
 BYTE   As1  v048
 BYTE   W07
 BYTE   N04  As1  v032
 BYTE   W09
 BYTE   N03  As1  v127
 BYTE   W08
 BYTE   N03
 BYTE   W07
 BYTE   N04  As1  v048
 BYTE   W09
 BYTE   N03  As1  v127
 BYTE   W08
 BYTE   As1  v048
 BYTE   W07
 BYTE   N06  Gs2  v108
 BYTE   W09
 BYTE   As2
 BYTE   W08
 BYTE   Cs2
 BYTE   W07
 BYTE   Ds2
 BYTE   W09
//  #03 //016   ----------------------------------------
 BYTE   Gs1
 BYTE   W08
 BYTE   N03  Gs1  v048
 BYTE   W07
 BYTE   N04  Gs1  v088
 BYTE   W09
 BYTE   N03  As1  v127
 BYTE   W08
 BYTE   N03
 BYTE   W07
 BYTE   N04  As1  v048
 BYTE   W09
 BYTE   N03  As1  v127
 BYTE   W08
 BYTE   As1  v048
 BYTE   W07
 BYTE   N04  As1  v032
 BYTE   W09
 BYTE   N03  As1  v127
 BYTE   W08
 BYTE   As1  v052
 BYTE   W07
 BYTE   N04  As1  v024
 BYTE   W09
//  #03 //017   ----------------------------------------
 BYTE   N03  As1  v127
 BYTE   W08
 BYTE   As1  v048
 BYTE   W07
 BYTE   N06  Ds2  v108
 BYTE   W09
 BYTE   Fn2
 BYTE   W08
 BYTE   Gs2
 BYTE   W07
 BYTE   As2
 BYTE   W09
 BYTE   N03  As1  v127
 BYTE   W08
 BYTE   As1  v048
 BYTE   W07
 BYTE   N04  As1  v032
 BYTE   W09
 BYTE   N03  As1  v127
 BYTE   W08
 BYTE   As1  v040
 BYTE   W07
 BYTE   N06  Gs1  v108
 BYTE   W09
//  #03 //018   ----------------------------------------
 BYTE   As1
 BYTE   W08
 BYTE   Ds2
 BYTE   W07
 BYTE   Gs2
 BYTE   W09
 BYTE   N03  An1  v127
 BYTE   W08
 BYTE   N03
 BYTE   W07
 BYTE   N04  An1  v048
 BYTE   W09
 BYTE   N03  An1  v127
 BYTE   W08
 BYTE   An1  v048
 BYTE   W07
 BYTE   N04  An1  v032
 BYTE   W09
 BYTE   N03  An1  v127
 BYTE   W08
 BYTE   An1  v052
 BYTE   W07
 BYTE   N06  Gs1  v108
 BYTE   W09
//  #03 //019   ----------------------------------------
 BYTE   An1
 BYTE   W08
 BYTE   An2
 BYTE   W07
 BYTE   An1
 BYTE   W09
 BYTE   N03  Gn1  v127
 BYTE   W08
 BYTE   N03
 BYTE   W07
 BYTE   N04  Gn1  v048
 BYTE   W09
 BYTE   N03  Gn1  v127
 BYTE   W08
 BYTE   Gn1  v048
 BYTE   W07
 BYTE   N04  Gn1  v032
 BYTE   W09
 BYTE   N03  Fs1  v127
 BYTE   W08
 BYTE   Fs1  v040
 BYTE   W07
 BYTE   N06  Fs2  v108
 BYTE   W09
//  #03 //020   ----------------------------------------
 BYTE   En2
 BYTE   W08
 BYTE   Gs1
 BYTE   W07
 BYTE   Fs1
 BYTE   W09
 BYTE   GoTo
  POIN2 Label_0141266F
 BYTE   FINE

//**************** Track 4 (Midi-Chn.3) ****************//

FE12DaysofTrainingRoyLili500_004:
//  #04 //000   ----------------------------------------
 BYTE   KEYSH   FE12DaysofTrainingRoyLili500_key+0
 BYTE   VOICE   42
 BYTE   MODT 0
 BYTE   LFOS 44
 BYTE   VOL   63*FE12DaysofTrainingRoyLili500_mvl/mxv
 BYTE   PAN   c_v-16
 BYTE   BEND   c_v+0
 BYTE   N07  Fs1  v024
 BYTE   W08
 BYTE   Fs1  v032
 BYTE   W07
 BYTE   Fs1  v080
 BYTE   W09
Label_01412918:
 BYTE   N07  Bn1  v068
 BYTE   W08
 BYTE   N06  Bn1  v088
 BYTE   W07
 BYTE   N07  Bn1  v020
 BYTE   W09
 BYTE   Bn1  v127
 BYTE   W08
 BYTE   Bn1  v040
 BYTE   W16
 BYTE   En2  v127
 BYTE   W08
 BYTE   En2  v040
 BYTE   W16
//  #04 //001   ----------------------------------------
Label_01412930:
 BYTE   N07  En1  v127
 BYTE   W08
 BYTE   N06  En1  v040
 BYTE   W24
 BYTE   Bn1  v048
 BYTE   W07
 BYTE   N07  Bn1  v068
 BYTE   W09
 BYTE   Bn1  v127
 BYTE   W08
 BYTE   Bn1  v040
 BYTE   W24
 BYTE   En2  v127
 BYTE   W07
 BYTE   En2  v040
 BYTE   W09
 BYTE   PEND 
//  #04 //002   ----------------------------------------
 BYTE   En1  v127
 BYTE   W08
 BYTE   N06  Bn1  v096
 BYTE   W07
 BYTE   N07  Dn2  v127
 BYTE   W09
 BYTE   Bn1  v068
 BYTE   W08
 BYTE   Bn1  v088
 BYTE   W07
 BYTE   Bn1  v020
 BYTE   W09
 BYTE   Bn1  v127
 BYTE   W08
 BYTE   Bn1  v040
 BYTE   W16
 BYTE   En2  v127
 BYTE   W08
 BYTE   N06  En2  v040
 BYTE   W16
//  #04 //003   ----------------------------------------
 BYTE   N07  En1  v127
 BYTE   W08
 BYTE   N06  En1  v040
 BYTE   W24
 BYTE   N07  Bn1  v048
 BYTE   W07
 BYTE   Bn1  v068
 BYTE   W09
 BYTE   Bn1  v127
 BYTE   W08
 BYTE   Bn1  v040
 BYTE   W24
 BYTE   N06  En2  v127
 BYTE   W07
 BYTE   N07  En2  v040
 BYTE   W09
//  #04 //004   ----------------------------------------
 BYTE   En1  v127
 BYTE   W08
 BYTE   Bn1  v096
 BYTE   W07
 BYTE   Dn2  v127
 BYTE   W09
 BYTE   Bn1  v068
 BYTE   W08
 BYTE   Bn1  v088
 BYTE   W07
 BYTE   Bn1  v020
 BYTE   W09
 BYTE   Bn1  v127
 BYTE   W08
 BYTE   N06  Bn1  v040
 BYTE   W16
 BYTE   N07  En2  v127
 BYTE   W08
 BYTE   N06  En2  v040
 BYTE   W16
//  #04 //005   ----------------------------------------
 BYTE   N07  En1  v127
 BYTE   W08
 BYTE   En1  v040
 BYTE   W24
 BYTE   N06  Bn1  v048
 BYTE   W07
 BYTE   N07  Bn1  v068
 BYTE   W09
 BYTE   Bn1  v127
 BYTE   W08
 BYTE   N06  Bn1  v040
 BYTE   W24
 BYTE   N07  En2  v127
 BYTE   W07
 BYTE   En2  v040
 BYTE   W09
//  #04 //006   ----------------------------------------
 BYTE   En1  v127
 BYTE   W08
 BYTE   Bn1  v096
 BYTE   W07
 BYTE   Dn2  v127
 BYTE   W09
 BYTE   Cn2  v068
 BYTE   W08
 BYTE   N06  Cn2  v088
 BYTE   W07
 BYTE   N07  Cn2  v020
 BYTE   W09
 BYTE   Cn2  v127
 BYTE   W08
 BYTE   N06  Cn2  v040
 BYTE   W16
 BYTE   N07  Fn2  v127
 BYTE   W08
 BYTE   Fn2  v040
 BYTE   W16
//  #04 //007   ----------------------------------------
 BYTE   Fn1  v127
 BYTE   W08
 BYTE   N06  Fn1  v040
 BYTE   W24
 BYTE   Cn2  v048
 BYTE   W07
 BYTE   N07  Cn2  v068
 BYTE   W09
 BYTE   Cn2  v127
 BYTE   W08
 BYTE   Cn2  v040
 BYTE   W24
 BYTE   Fn2  v127
 BYTE   W07
 BYTE   Fn2  v040
 BYTE   W09
//  #04 //008   ----------------------------------------
 BYTE   Fn1  v127
 BYTE   W08
 BYTE   N06  Cn2  v096
 BYTE   W07
 BYTE   N07  Ds2  v127
 BYTE   W09
 BYTE   Cn2  v068
 BYTE   W08
 BYTE   Cn2  v088
 BYTE   W07
 BYTE   Cn2  v020
 BYTE   W09
 BYTE   Cn2  v127
 BYTE   W08
 BYTE   Cn2  v040
 BYTE   W16
 BYTE   Fn2  v127
 BYTE   W08
 BYTE   N06  Fn2  v040
 BYTE   W16
//  #04 //009   ----------------------------------------
 BYTE   N07  Fn1  v127
 BYTE   W08
 BYTE   N06  Fn1  v040
 BYTE   W24
 BYTE   N07  Cn2  v048
 BYTE   W07
 BYTE   Cn2  v068
 BYTE   W09
 BYTE   Cn2  v127
 BYTE   W08
 BYTE   Cn2  v040
 BYTE   W24
 BYTE   N06  Fn2  v127
 BYTE   W07
 BYTE   N07  Fn2  v040
 BYTE   W09
//  #04 //010   ----------------------------------------
 BYTE   Fn1  v127
 BYTE   W08
 BYTE   Cn2  v096
 BYTE   W07
 BYTE   Ds2  v127
 BYTE   W09
 BYTE   Bn1  v068
 BYTE   W08
 BYTE   Bn1  v088
 BYTE   W07
 BYTE   Bn1  v020
 BYTE   W09
 BYTE   Bn1  v127
 BYTE   W08
 BYTE   N06  Bn1  v040
 BYTE   W16
 BYTE   N07  En2  v127
 BYTE   W08
 BYTE   N06  En2  v040
 BYTE   W16
//  #04 //011   ----------------------------------------
 BYTE   N07  En1  v127
 BYTE   W08
 BYTE   En1  v040
 BYTE   W24
 BYTE   Bn1  v048
 BYTE   W07
 BYTE   Bn1  v068
 BYTE   W09
 BYTE   Bn1  v127
 BYTE   W08
 BYTE   N06  Bn1  v040
 BYTE   W24
 BYTE   N07  En2  v127
 BYTE   W07
 BYTE   En2  v040
 BYTE   W09
//  #04 //012   ----------------------------------------
 BYTE   En1  v127
 BYTE   W08
 BYTE   Bn1  v096
 BYTE   W07
 BYTE   Dn2  v127
 BYTE   W09
 BYTE   Bn1  v068
 BYTE   W08
 BYTE   N06  Bn1  v088
 BYTE   W07
 BYTE   N07  Bn1  v020
 BYTE   W09
 BYTE   Bn1  v127
 BYTE   W08
 BYTE   N06  Bn1  v040
 BYTE   W16
 BYTE   N07  En2  v127
 BYTE   W08
 BYTE   En2  v040
 BYTE   W16
//  #04 //013   ----------------------------------------
 BYTE   PATT
  POIN2 Label_01412930
//  #04 //014   ----------------------------------------
 BYTE   N07  En1  v127
 BYTE   W08
 BYTE   N06  Bn1  v096
 BYTE   W07
 BYTE   N07  Dn2  v127
 BYTE   W09
 BYTE   As1  v068
 BYTE   W08
 BYTE   N06  As1  v088
 BYTE   W07
 BYTE   N07  As1  v020
 BYTE   W09
 BYTE   As1  v127
 BYTE   W08
 BYTE   As1  v040
 BYTE   W16
 BYTE   Ds2  v127
 BYTE   W08
 BYTE   N06  Ds2  v040
 BYTE   W16
//  #04 //015   ----------------------------------------
 BYTE   N07  Ds1  v127
 BYTE   W08
 BYTE   N06  Ds1  v040
 BYTE   W24
 BYTE   N07  As1  v048
 BYTE   W07
 BYTE   As1  v068
 BYTE   W09
 BYTE   As1  v127
 BYTE   W08
 BYTE   As1  v040
 BYTE   W24
 BYTE   N06  Ds2  v127
 BYTE   W07
 BYTE   N07  Ds2  v040
 BYTE   W09
//  #04 //016   ----------------------------------------
 BYTE   Ds1  v127
 BYTE   W08
 BYTE   N06  As1  v096
 BYTE   W07
 BYTE   N07  Cs2  v127
 BYTE   W09
 BYTE   As1  v068
 BYTE   W08
 BYTE   As1  v088
 BYTE   W07
 BYTE   As1  v020
 BYTE   W09
 BYTE   As1  v127
 BYTE   W08
 BYTE   N06  As1  v040
 BYTE   W16
 BYTE   N07  Ds2  v127
 BYTE   W08
 BYTE   N06  Ds2  v040
 BYTE   W16
//  #04 //017   ----------------------------------------
 BYTE   N07  Ds1  v127
 BYTE   W08
 BYTE   Ds1  v040
 BYTE   W24
 BYTE   As1  v048
 BYTE   W07
 BYTE   As1  v068
 BYTE   W09
 BYTE   As1  v127
 BYTE   W08
 BYTE   N06  As1  v040
 BYTE   W24
 BYTE   N07  Ds2  v127
 BYTE   W07
 BYTE   Ds2  v040
 BYTE   W09
//  #04 //018   ----------------------------------------
 BYTE   Ds1  v127
 BYTE   W08
 BYTE   As1  v096
 BYTE   W07
 BYTE   Cs2  v127
 BYTE   W09
 BYTE   An1  v088
 BYTE   W08
 BYTE   N06  An1  v076
 BYTE   W07
 BYTE   N07  An1  v032
 BYTE   W09
 BYTE   An1  v112
 BYTE   W08
 BYTE   N06  An1  v036
 BYTE   W07
 BYTE   N07  An1  v020
 BYTE   W09
 BYTE   An1  v088
 BYTE   W08
 BYTE   An1  v076
 BYTE   W07
 BYTE   An1  v032
 BYTE   W09
//  #04 //019   ----------------------------------------
 BYTE   An1  v112
 BYTE   W08
 BYTE   An1  v036
 BYTE   W07
 BYTE   An1  v020
 BYTE   W09
 BYTE   Gn1  v088
 BYTE   W08
 BYTE   N06  Gn1  v076
 BYTE   W07
 BYTE   N07  Gn1  v032
 BYTE   W09
 BYTE   Gn1  v112
 BYTE   W08
 BYTE   Gn1  v036
 BYTE   W07
 BYTE   Gn1  v020
 BYTE   W09
 BYTE   Fs1  v088
 BYTE   W08
 BYTE   Fs1  v076
 BYTE   W07
 BYTE   Fs1  v032
 BYTE   W09
//  #04 //020   ----------------------------------------
 BYTE   Fs1  v112
 BYTE   W08
 BYTE   N06  Fs2  v068
 BYTE   W07
 BYTE   N07  Fs2  v104
 BYTE   W09
 BYTE   GoTo
  POIN2 Label_01412918
 BYTE   FINE

//**************** Track 5 (Midi-Chn.4) ****************//

FE12DaysofTrainingRoyLili500_005:
//  #05 //000   ----------------------------------------
 BYTE   KEYSH   FE12DaysofTrainingRoyLili500_key+0
 BYTE   VOICE   73
 BYTE   MODT 0
 BYTE   LFOS 44
 BYTE   VOL   34*FE12DaysofTrainingRoyLili500_mvl/mxv
 BYTE   PAN   c_v+29
 BYTE   BEND   c_v+0
 BYTE   W24
Label_01412B93:
 BYTE   VOL   34*FE12DaysofTrainingRoyLili500_mvl/mxv
 BYTE   W72
//  #05 //001   ----------------------------------------
 BYTE   W64
 BYTE   VOL   34*FE12DaysofTrainingRoyLili500_mvl/mxv
 BYTE   W32
//  #05 //002   ----------------------------------------
 BYTE   W36
 BYTE   W03
 BYTE   N02  Cs5  v116
 BYTE   W04
 BYTE   Dn5
 BYTE   W05
 BYTE   VOL   34*FE12DaysofTrainingRoyLili500_mvl/mxv
 BYTE   N22  Cs5
 BYTE   W02
 BYTE   VOL   33*FE12DaysofTrainingRoyLili500_mvl/mxv
 BYTE   W01
 BYTE   VOL   32*FE12DaysofTrainingRoyLili500_mvl/mxv
 BYTE   W01
 BYTE   VOL   31*FE12DaysofTrainingRoyLili500_mvl/mxv
 BYTE   W01
 BYTE   VOL   28*FE12DaysofTrainingRoyLili500_mvl/mxv
 BYTE   W01
 BYTE   VOL   26*FE12DaysofTrainingRoyLili500_mvl/mxv
 BYTE   W01
 BYTE   VOL   21*FE12DaysofTrainingRoyLili500_mvl/mxv
 BYTE   W01
 BYTE   VOL   18*FE12DaysofTrainingRoyLili500_mvl/mxv
 BYTE   W02
 BYTE   VOL   19*FE12DaysofTrainingRoyLili500_mvl/mxv
 BYTE   W02
 BYTE   VOL   20*FE12DaysofTrainingRoyLili500_mvl/mxv
 BYTE   W01
 BYTE   VOL   22*FE12DaysofTrainingRoyLili500_mvl/mxv
 BYTE   W02
 BYTE   VOL   23*FE12DaysofTrainingRoyLili500_mvl/mxv
 BYTE   W01
 BYTE   VOL   26*FE12DaysofTrainingRoyLili500_mvl/mxv
 BYTE   W02
 BYTE   VOL   27*FE12DaysofTrainingRoyLili500_mvl/mxv
 BYTE   W01
 BYTE   VOL   29*FE12DaysofTrainingRoyLili500_mvl/mxv
 BYTE   W01
 BYTE   VOL   32*FE12DaysofTrainingRoyLili500_mvl/mxv
 BYTE   W04
 BYTE   N07  En5
 BYTE   W01
 BYTE   VOL   32*FE12DaysofTrainingRoyLili500_mvl/mxv
 BYTE   W01
 BYTE   VOL   30*FE12DaysofTrainingRoyLili500_mvl/mxv
 BYTE   W01
 BYTE   VOL   28*FE12DaysofTrainingRoyLili500_mvl/mxv
 BYTE   W01
 BYTE   VOL   26*FE12DaysofTrainingRoyLili500_mvl/mxv
 BYTE   W02
 BYTE   VOL   23*FE12DaysofTrainingRoyLili500_mvl/mxv
 BYTE   W01
 BYTE   VOL   22*FE12DaysofTrainingRoyLili500_mvl/mxv
 BYTE   W01
 BYTE   VOL   21*FE12DaysofTrainingRoyLili500_mvl/mxv
 BYTE   W01
 BYTE   VOL   20*FE12DaysofTrainingRoyLili500_mvl/mxv
 BYTE   W01
 BYTE   VOL   20*FE12DaysofTrainingRoyLili500_mvl/mxv
 BYTE   W02
 BYTE   VOL   22*FE12DaysofTrainingRoyLili500_mvl/mxv
 BYTE   W01
 BYTE   VOL   23*FE12DaysofTrainingRoyLili500_mvl/mxv
 BYTE   W01
 BYTE   VOL   23*FE12DaysofTrainingRoyLili500_mvl/mxv
 BYTE   W02
 BYTE   VOL   25*FE12DaysofTrainingRoyLili500_mvl/mxv
 BYTE   W02
 BYTE   VOL   27*FE12DaysofTrainingRoyLili500_mvl/mxv
 BYTE   W01
 BYTE   VOL   28*FE12DaysofTrainingRoyLili500_mvl/mxv
 BYTE   W02
 BYTE   VOL   29*FE12DaysofTrainingRoyLili500_mvl/mxv
 BYTE   W01
 BYTE   VOL   30*FE12DaysofTrainingRoyLili500_mvl/mxv
 BYTE   W01
 BYTE   VOL   31*FE12DaysofTrainingRoyLili500_mvl/mxv
 BYTE   W01
//  #05 //003   ----------------------------------------
 BYTE   N07  Bn4
 BYTE   W01
 BYTE   VOL   30*FE12DaysofTrainingRoyLili500_mvl/mxv
 BYTE   W01
 BYTE   VOL   28*FE12DaysofTrainingRoyLili500_mvl/mxv
 BYTE   W01
 BYTE   VOL   27*FE12DaysofTrainingRoyLili500_mvl/mxv
 BYTE   W02
 BYTE   VOL   25*FE12DaysofTrainingRoyLili500_mvl/mxv
 BYTE   W02
 BYTE   VOL   23*FE12DaysofTrainingRoyLili500_mvl/mxv
 BYTE   W02
 BYTE   VOL   24*FE12DaysofTrainingRoyLili500_mvl/mxv
 BYTE   W01
 BYTE   VOL   26*FE12DaysofTrainingRoyLili500_mvl/mxv
 BYTE   W02
 BYTE   VOL   28*FE12DaysofTrainingRoyLili500_mvl/mxv
 BYTE   W01
 BYTE   VOL   30*FE12DaysofTrainingRoyLili500_mvl/mxv
 BYTE   W01
 BYTE   VOL   31*FE12DaysofTrainingRoyLili500_mvl/mxv
 BYTE   W01
 BYTE   VOL   33*FE12DaysofTrainingRoyLili500_mvl/mxv
 BYTE   N07  Dn5
 BYTE   W09
 BYTE   Cs5
 BYTE   W03
 BYTE   VOL   31*FE12DaysofTrainingRoyLili500_mvl/mxv
 BYTE   W01
 BYTE   VOL   30*FE12DaysofTrainingRoyLili500_mvl/mxv
 BYTE   W01
 BYTE   VOL   28*FE12DaysofTrainingRoyLili500_mvl/mxv
 BYTE   W01
 BYTE   VOL   27*FE12DaysofTrainingRoyLili500_mvl/mxv
 BYTE   W01
 BYTE   VOL   24*FE12DaysofTrainingRoyLili500_mvl/mxv
 BYTE   W01
 BYTE   VOL   22*FE12DaysofTrainingRoyLili500_mvl/mxv
 BYTE   N03  Bn4
 BYTE   W02
 BYTE   VOL   23*FE12DaysofTrainingRoyLili500_mvl/mxv
 BYTE   W02
 BYTE   VOL   23*FE12DaysofTrainingRoyLili500_mvl/mxv
 BYTE   W01
 BYTE   VOL   24*FE12DaysofTrainingRoyLili500_mvl/mxv
 BYTE   W02
 BYTE   VOL   26*FE12DaysofTrainingRoyLili500_mvl/mxv
 BYTE   N04  Cs5
 BYTE   W01
 BYTE   VOL   27*FE12DaysofTrainingRoyLili500_mvl/mxv
 BYTE   W02
 BYTE   VOL   27*FE12DaysofTrainingRoyLili500_mvl/mxv
 BYTE   W01
 BYTE   VOL   28*FE12DaysofTrainingRoyLili500_mvl/mxv
 BYTE   W01
 BYTE   VOL   29*FE12DaysofTrainingRoyLili500_mvl/mxv
 BYTE   W02
 BYTE   VOL   30*FE12DaysofTrainingRoyLili500_mvl/mxv
 BYTE   W02
 BYTE   VOL   32*FE12DaysofTrainingRoyLili500_mvl/mxv
 BYTE   N44  Fs4
 BYTE   W02
 BYTE   VOL   30*FE12DaysofTrainingRoyLili500_mvl/mxv
 BYTE   W01
 BYTE   VOL   29*FE12DaysofTrainingRoyLili500_mvl/mxv
 BYTE   W01
 BYTE   VOL   26*FE12DaysofTrainingRoyLili500_mvl/mxv
 BYTE   W02
 BYTE   VOL   22*FE12DaysofTrainingRoyLili500_mvl/mxv
 BYTE   W01
 BYTE   VOL   20*FE12DaysofTrainingRoyLili500_mvl/mxv
 BYTE   W01
 BYTE   VOL   18*FE12DaysofTrainingRoyLili500_mvl/mxv
 BYTE   W01
 BYTE   VOL   16*FE12DaysofTrainingRoyLili500_mvl/mxv
 BYTE   W01
 BYTE   VOL   13*FE12DaysofTrainingRoyLili500_mvl/mxv
 BYTE   W02
 BYTE   VOL   11*FE12DaysofTrainingRoyLili500_mvl/mxv
 BYTE   W01
 BYTE   VOL   11*FE12DaysofTrainingRoyLili500_mvl/mxv
 BYTE   W02
 BYTE   VOL   13*FE12DaysofTrainingRoyLili500_mvl/mxv
 BYTE   W01
 BYTE   VOL   13*FE12DaysofTrainingRoyLili500_mvl/mxv
 BYTE   W02
 BYTE   VOL   14*FE12DaysofTrainingRoyLili500_mvl/mxv
 BYTE   W01
 BYTE   VOL   15*FE12DaysofTrainingRoyLili500_mvl/mxv
 BYTE   W02
 BYTE   VOL   16*FE12DaysofTrainingRoyLili500_mvl/mxv
 BYTE   W01
 BYTE   VOL   17*FE12DaysofTrainingRoyLili500_mvl/mxv
 BYTE   W02
 BYTE   VOL   18*FE12DaysofTrainingRoyLili500_mvl/mxv
 BYTE   W01
 BYTE   VOL   18*FE12DaysofTrainingRoyLili500_mvl/mxv
 BYTE   W01
 BYTE   VOL   19*FE12DaysofTrainingRoyLili500_mvl/mxv
 BYTE   W02
 BYTE   VOL   20*FE12DaysofTrainingRoyLili500_mvl/mxv
 BYTE   W02
 BYTE   VOL   21*FE12DaysofTrainingRoyLili500_mvl/mxv
 BYTE   W01
 BYTE   VOL   22*FE12DaysofTrainingRoyLili500_mvl/mxv
 BYTE   W02
 BYTE   VOL   23*FE12DaysofTrainingRoyLili500_mvl/mxv
 BYTE   W01
 BYTE   VOL   23*FE12DaysofTrainingRoyLili500_mvl/mxv
 BYTE   W02
 BYTE   VOL   25*FE12DaysofTrainingRoyLili500_mvl/mxv
 BYTE   W01
 BYTE   VOL   27*FE12DaysofTrainingRoyLili500_mvl/mxv
 BYTE   W01
 BYTE   VOL   27*FE12DaysofTrainingRoyLili500_mvl/mxv
 BYTE   W02
 BYTE   VOL   28*FE12DaysofTrainingRoyLili500_mvl/mxv
 BYTE   W02
 BYTE   VOL   29*FE12DaysofTrainingRoyLili500_mvl/mxv
 BYTE   W01
 BYTE   VOL   30*FE12DaysofTrainingRoyLili500_mvl/mxv
 BYTE   W02
 BYTE   VOL   32*FE12DaysofTrainingRoyLili500_mvl/mxv
 BYTE   W03
//  #05 //004   ----------------------------------------
 BYTE   N15  Gs4
 BYTE   W02
 BYTE   VOL   30*FE12DaysofTrainingRoyLili500_mvl/mxv
 BYTE   W01
 BYTE   VOL   27*FE12DaysofTrainingRoyLili500_mvl/mxv
 BYTE   W01
 BYTE   VOL   25*FE12DaysofTrainingRoyLili500_mvl/mxv
 BYTE   W01
 BYTE   VOL   23*FE12DaysofTrainingRoyLili500_mvl/mxv
 BYTE   W01
 BYTE   VOL   21*FE12DaysofTrainingRoyLili500_mvl/mxv
 BYTE   W01
 BYTE   VOL   20*FE12DaysofTrainingRoyLili500_mvl/mxv
 BYTE   W01
 BYTE   VOL   22*FE12DaysofTrainingRoyLili500_mvl/mxv
 BYTE   W01
 BYTE   VOL   23*FE12DaysofTrainingRoyLili500_mvl/mxv
 BYTE   W02
 BYTE   VOL   26*FE12DaysofTrainingRoyLili500_mvl/mxv
 BYTE   W02
 BYTE   VOL   28*FE12DaysofTrainingRoyLili500_mvl/mxv
 BYTE   W01
 BYTE   VOL   30*FE12DaysofTrainingRoyLili500_mvl/mxv
 BYTE   W01
 BYTE   VOL   31*FE12DaysofTrainingRoyLili500_mvl/mxv
 BYTE   N02
 BYTE   W03
 BYTE   An4
 BYTE   W06
 BYTE   N07  Bn4
 BYTE   W01
 BYTE   VOL   31*FE12DaysofTrainingRoyLili500_mvl/mxv
 BYTE   W01
 BYTE   VOL   30*FE12DaysofTrainingRoyLili500_mvl/mxv
 BYTE   W01
 BYTE   VOL   28*FE12DaysofTrainingRoyLili500_mvl/mxv
 BYTE   W02
 BYTE   VOL   27*FE12DaysofTrainingRoyLili500_mvl/mxv
 BYTE   W02
 BYTE   VOL   23*FE12DaysofTrainingRoyLili500_mvl/mxv
 BYTE   W01
 BYTE   VOL   24*FE12DaysofTrainingRoyLili500_mvl/mxv
 BYTE   N03  An4
 BYTE   W02
 BYTE   VOL   25*FE12DaysofTrainingRoyLili500_mvl/mxv
 BYTE   W02
 BYTE   VOL   26*FE12DaysofTrainingRoyLili500_mvl/mxv
 BYTE   W01
 BYTE   VOL   27*FE12DaysofTrainingRoyLili500_mvl/mxv
 BYTE   W02
 BYTE   VOL   27*FE12DaysofTrainingRoyLili500_mvl/mxv
 BYTE   N04  Bn4
 BYTE   W01
 BYTE   VOL   28*FE12DaysofTrainingRoyLili500_mvl/mxv
 BYTE   W02
 BYTE   VOL   29*FE12DaysofTrainingRoyLili500_mvl/mxv
 BYTE   W01
 BYTE   VOL   30*FE12DaysofTrainingRoyLili500_mvl/mxv
 BYTE   W01
 BYTE   VOL   30*FE12DaysofTrainingRoyLili500_mvl/mxv
 BYTE   W02
 BYTE   VOL   31*FE12DaysofTrainingRoyLili500_mvl/mxv
 BYTE   W02
 BYTE   VOL   32*FE12DaysofTrainingRoyLili500_mvl/mxv
 BYTE   N44  En4
 BYTE   W01
 BYTE   VOL   33*FE12DaysofTrainingRoyLili500_mvl/mxv
 BYTE   W01
 BYTE   VOL   32*FE12DaysofTrainingRoyLili500_mvl/mxv
 BYTE   W02
 BYTE   VOL   30*FE12DaysofTrainingRoyLili500_mvl/mxv
 BYTE   W01
 BYTE   VOL   27*FE12DaysofTrainingRoyLili500_mvl/mxv
 BYTE   W01
 BYTE   VOL   23*FE12DaysofTrainingRoyLili500_mvl/mxv
 BYTE   W01
 BYTE   VOL   17*FE12DaysofTrainingRoyLili500_mvl/mxv
 BYTE   W01
 BYTE   VOL   14*FE12DaysofTrainingRoyLili500_mvl/mxv
 BYTE   W01
 BYTE   VOL   12*FE12DaysofTrainingRoyLili500_mvl/mxv
 BYTE   W01
 BYTE   VOL   13*FE12DaysofTrainingRoyLili500_mvl/mxv
 BYTE   W02
 BYTE   VOL   13*FE12DaysofTrainingRoyLili500_mvl/mxv
 BYTE   W01
 BYTE   VOL   14*FE12DaysofTrainingRoyLili500_mvl/mxv
 BYTE   W01
 BYTE   VOL   15*FE12DaysofTrainingRoyLili500_mvl/mxv
 BYTE   W02
 BYTE   VOL   15*FE12DaysofTrainingRoyLili500_mvl/mxv
 BYTE   W02
 BYTE   VOL   17*FE12DaysofTrainingRoyLili500_mvl/mxv
 BYTE   W01
 BYTE   VOL   17*FE12DaysofTrainingRoyLili500_mvl/mxv
 BYTE   W02
 BYTE   VOL   18*FE12DaysofTrainingRoyLili500_mvl/mxv
 BYTE   W01
 BYTE   VOL   18*FE12DaysofTrainingRoyLili500_mvl/mxv
 BYTE   W02
 BYTE   VOL   19*FE12DaysofTrainingRoyLili500_mvl/mxv
 BYTE   W01
 BYTE   VOL   20*FE12DaysofTrainingRoyLili500_mvl/mxv
 BYTE   W01
 BYTE   VOL   21*FE12DaysofTrainingRoyLili500_mvl/mxv
 BYTE   W02
 BYTE   VOL   22*FE12DaysofTrainingRoyLili500_mvl/mxv
 BYTE   W02
 BYTE   VOL   22*FE12DaysofTrainingRoyLili500_mvl/mxv
 BYTE   W01
 BYTE   VOL   23*FE12DaysofTrainingRoyLili500_mvl/mxv
 BYTE   W02
 BYTE   VOL   23*FE12DaysofTrainingRoyLili500_mvl/mxv
 BYTE   W01
 BYTE   VOL   25*FE12DaysofTrainingRoyLili500_mvl/mxv
 BYTE   W02
 BYTE   VOL   26*FE12DaysofTrainingRoyLili500_mvl/mxv
 BYTE   W01
 BYTE   VOL   27*FE12DaysofTrainingRoyLili500_mvl/mxv
 BYTE   W01
 BYTE   VOL   28*FE12DaysofTrainingRoyLili500_mvl/mxv
 BYTE   W02
 BYTE   VOL   28*FE12DaysofTrainingRoyLili500_mvl/mxv
 BYTE   W02
 BYTE   VOL   29*FE12DaysofTrainingRoyLili500_mvl/mxv
 BYTE   W01
 BYTE   VOL   30*FE12DaysofTrainingRoyLili500_mvl/mxv
 BYTE   W01
 BYTE   VOL   31*FE12DaysofTrainingRoyLili500_mvl/mxv
 BYTE   W01
 BYTE   VOL   32*FE12DaysofTrainingRoyLili500_mvl/mxv
 BYTE   W03
//  #05 //005   ----------------------------------------
 BYTE   N07  Fs4
 BYTE   W08
 BYTE   N03  Gs4
 BYTE   W07
 BYTE   N04  An4
 BYTE   W09
 BYTE   N07  Gs4
 BYTE   W08
 BYTE   N03  An4
 BYTE   W07
 BYTE   N04  Bn4
 BYTE   W09
 BYTE   VOL   32*FE12DaysofTrainingRoyLili500_mvl/mxv
 BYTE   N72  En4
 BYTE   W03
 BYTE   VOL   32*FE12DaysofTrainingRoyLili500_mvl/mxv
 BYTE   W03
 BYTE   VOL   31*FE12DaysofTrainingRoyLili500_mvl/mxv
 BYTE   W02
 BYTE   VOL   30*FE12DaysofTrainingRoyLili500_mvl/mxv
 BYTE   W01
 BYTE   VOL   28*FE12DaysofTrainingRoyLili500_mvl/mxv
 BYTE   W01
 BYTE   VOL   27*FE12DaysofTrainingRoyLili500_mvl/mxv
 BYTE   W02
 BYTE   VOL   26*FE12DaysofTrainingRoyLili500_mvl/mxv
 BYTE   W02
 BYTE   VOL   24*FE12DaysofTrainingRoyLili500_mvl/mxv
 BYTE   W01
 BYTE   VOL   23*FE12DaysofTrainingRoyLili500_mvl/mxv
 BYTE   W01
 BYTE   VOL   22*FE12DaysofTrainingRoyLili500_mvl/mxv
 BYTE   W02
 BYTE   VOL   20*FE12DaysofTrainingRoyLili500_mvl/mxv
 BYTE   W02
 BYTE   VOL   19*FE12DaysofTrainingRoyLili500_mvl/mxv
 BYTE   W01
 BYTE   VOL   18*FE12DaysofTrainingRoyLili500_mvl/mxv
 BYTE   W01
 BYTE   VOL   17*FE12DaysofTrainingRoyLili500_mvl/mxv
 BYTE   W02
 BYTE   VOL   18*FE12DaysofTrainingRoyLili500_mvl/mxv
 BYTE   W01
 BYTE   VOL   18*FE12DaysofTrainingRoyLili500_mvl/mxv
 BYTE   W01
 BYTE   VOL   19*FE12DaysofTrainingRoyLili500_mvl/mxv
 BYTE   W02
 BYTE   VOL   20*FE12DaysofTrainingRoyLili500_mvl/mxv
 BYTE   W02
 BYTE   VOL   20*FE12DaysofTrainingRoyLili500_mvl/mxv
 BYTE   W01
 BYTE   VOL   22*FE12DaysofTrainingRoyLili500_mvl/mxv
 BYTE   W03
 BYTE   VOL   22*FE12DaysofTrainingRoyLili500_mvl/mxv
 BYTE   W03
 BYTE   VOL   22*FE12DaysofTrainingRoyLili500_mvl/mxv
 BYTE   W03
 BYTE   VOL   23*FE12DaysofTrainingRoyLili500_mvl/mxv
 BYTE   W02
 BYTE   VOL   22*FE12DaysofTrainingRoyLili500_mvl/mxv
 BYTE   W01
 BYTE   VOL   21*FE12DaysofTrainingRoyLili500_mvl/mxv
 BYTE   W01
 BYTE   VOL   20*FE12DaysofTrainingRoyLili500_mvl/mxv
 BYTE   W02
 BYTE   VOL   20*FE12DaysofTrainingRoyLili500_mvl/mxv
 BYTE   W02
//  #05 //006   ----------------------------------------
 BYTE   VOL   19*FE12DaysofTrainingRoyLili500_mvl/mxv
 BYTE   W01
 BYTE   VOL   18*FE12DaysofTrainingRoyLili500_mvl/mxv
 BYTE   W02
 BYTE   VOL   18*FE12DaysofTrainingRoyLili500_mvl/mxv
 BYTE   W01
 BYTE   VOL   17*FE12DaysofTrainingRoyLili500_mvl/mxv
 BYTE   W02
 BYTE   VOL   16*FE12DaysofTrainingRoyLili500_mvl/mxv
 BYTE   W01
 BYTE   VOL   15*FE12DaysofTrainingRoyLili500_mvl/mxv
 BYTE   W01
 BYTE   VOL   15*FE12DaysofTrainingRoyLili500_mvl/mxv
 BYTE   W01
 BYTE   VOL   13*FE12DaysofTrainingRoyLili500_mvl/mxv
 BYTE   W01
 BYTE   VOL   11*FE12DaysofTrainingRoyLili500_mvl/mxv
 BYTE   W02
 BYTE   VOL   10*FE12DaysofTrainingRoyLili500_mvl/mxv
 BYTE   W02
 BYTE   VOL   8*FE12DaysofTrainingRoyLili500_mvl/mxv
 BYTE   W01
 BYTE   VOL   7*FE12DaysofTrainingRoyLili500_mvl/mxv
 BYTE   W01
 BYTE   VOL   6*FE12DaysofTrainingRoyLili500_mvl/mxv
 BYTE   W02
 BYTE   VOL   4*FE12DaysofTrainingRoyLili500_mvl/mxv
 BYTE   W02
 BYTE   VOL   3*FE12DaysofTrainingRoyLili500_mvl/mxv
 BYTE   W01
 BYTE   VOL   2*FE12DaysofTrainingRoyLili500_mvl/mxv
 BYTE   W01
 BYTE   VOL   1*FE12DaysofTrainingRoyLili500_mvl/mxv
 BYTE   W02
 BYTE   VOL   1*FE12DaysofTrainingRoyLili500_mvl/mxv
 BYTE   W02
 BYTE   VOL   0*FE12DaysofTrainingRoyLili500_mvl/mxv
 BYTE   W01
 BYTE   VOL   0*FE12DaysofTrainingRoyLili500_mvl/mxv
 BYTE   W01
 BYTE   VOL   0*FE12DaysofTrainingRoyLili500_mvl/mxv
 BYTE   W68
//  #05 //007   ----------------------------------------
 BYTE   W96
//  #05 //008   ----------------------------------------
 BYTE   W96
//  #05 //009   ----------------------------------------
 BYTE   W60
 BYTE   W03
 BYTE   VOL   34*FE12DaysofTrainingRoyLili500_mvl/mxv
 BYTE   W01
 BYTE   VOL   34*FE12DaysofTrainingRoyLili500_mvl/mxv
 BYTE   W32
//  #05 //010   ----------------------------------------
 BYTE   W15
 BYTE   N02  Cs5  v104
 BYTE   N02  Gs5  v116
 BYTE   W04
 BYTE   Dn5  v104
 BYTE   N02  An5  v116
 BYTE   W04
 BYTE   N44  Cs5  v104
 BYTE   W01
 BYTE   Gs5  v116
 BYTE   W02
 BYTE   VOL   34*FE12DaysofTrainingRoyLili500_mvl/mxv
 BYTE   W01
 BYTE   VOL   33*FE12DaysofTrainingRoyLili500_mvl/mxv
 BYTE   W01
 BYTE   VOL   32*FE12DaysofTrainingRoyLili500_mvl/mxv
 BYTE   W01
 BYTE   VOL   32*FE12DaysofTrainingRoyLili500_mvl/mxv
 BYTE   W01
 BYTE   VOL   31*FE12DaysofTrainingRoyLili500_mvl/mxv
 BYTE   W01
 BYTE   VOL   30*FE12DaysofTrainingRoyLili500_mvl/mxv
 BYTE   W01
 BYTE   VOL   23*FE12DaysofTrainingRoyLili500_mvl/mxv
 BYTE   W01
 BYTE   VOL   18*FE12DaysofTrainingRoyLili500_mvl/mxv
 BYTE   W01
 BYTE   VOL   15*FE12DaysofTrainingRoyLili500_mvl/mxv
 BYTE   W01
 BYTE   VOL   12*FE12DaysofTrainingRoyLili500_mvl/mxv
 BYTE   W01
 BYTE   VOL   11*FE12DaysofTrainingRoyLili500_mvl/mxv
 BYTE   W01
 BYTE   VOL   11*FE12DaysofTrainingRoyLili500_mvl/mxv
 BYTE   W02
 BYTE   VOL   13*FE12DaysofTrainingRoyLili500_mvl/mxv
 BYTE   W01
 BYTE   VOL   13*FE12DaysofTrainingRoyLili500_mvl/mxv
 BYTE   W02
 BYTE   VOL   14*FE12DaysofTrainingRoyLili500_mvl/mxv
 BYTE   W01
 BYTE   VOL   15*FE12DaysofTrainingRoyLili500_mvl/mxv
 BYTE   W01
 BYTE   VOL   16*FE12DaysofTrainingRoyLili500_mvl/mxv
 BYTE   W02
 BYTE   VOL   17*FE12DaysofTrainingRoyLili500_mvl/mxv
 BYTE   W02
 BYTE   VOL   18*FE12DaysofTrainingRoyLili500_mvl/mxv
 BYTE   W01
 BYTE   VOL   18*FE12DaysofTrainingRoyLili500_mvl/mxv
 BYTE   W02
 BYTE   VOL   19*FE12DaysofTrainingRoyLili500_mvl/mxv
 BYTE   W01
 BYTE   VOL   20*FE12DaysofTrainingRoyLili500_mvl/mxv
 BYTE   W02
 BYTE   VOL   21*FE12DaysofTrainingRoyLili500_mvl/mxv
 BYTE   W01
 BYTE   VOL   22*FE12DaysofTrainingRoyLili500_mvl/mxv
 BYTE   W02
 BYTE   VOL   23*FE12DaysofTrainingRoyLili500_mvl/mxv
 BYTE   W01
 BYTE   VOL   24*FE12DaysofTrainingRoyLili500_mvl/mxv
 BYTE   W02
 BYTE   VOL   25*FE12DaysofTrainingRoyLili500_mvl/mxv
 BYTE   W01
 BYTE   VOL   27*FE12DaysofTrainingRoyLili500_mvl/mxv
 BYTE   W01
 BYTE   VOL   27*FE12DaysofTrainingRoyLili500_mvl/mxv
 BYTE   W02
 BYTE   VOL   28*FE12DaysofTrainingRoyLili500_mvl/mxv
 BYTE   W02
 BYTE   VOL   29*FE12DaysofTrainingRoyLili500_mvl/mxv
 BYTE   W01
 BYTE   VOL   30*FE12DaysofTrainingRoyLili500_mvl/mxv
 BYTE   W02
 BYTE   VOL   32*FE12DaysofTrainingRoyLili500_mvl/mxv
 BYTE   W02
 BYTE   N06  En5  v104
 BYTE   W01
 BYTE   N07  Bn5  v116
 BYTE   W01
 BYTE   VOL   32*FE12DaysofTrainingRoyLili500_mvl/mxv
 BYTE   W01
 BYTE   VOL   29*FE12DaysofTrainingRoyLili500_mvl/mxv
 BYTE   W01
 BYTE   VOL   27*FE12DaysofTrainingRoyLili500_mvl/mxv
 BYTE   W01
 BYTE   VOL   26*FE12DaysofTrainingRoyLili500_mvl/mxv
 BYTE   W01
 BYTE   VOL   24*FE12DaysofTrainingRoyLili500_mvl/mxv
 BYTE   W01
 BYTE   VOL   23*FE12DaysofTrainingRoyLili500_mvl/mxv
 BYTE   W01
 BYTE   VOL   22*FE12DaysofTrainingRoyLili500_mvl/mxv
 BYTE   W01
 BYTE   VOL   20*FE12DaysofTrainingRoyLili500_mvl/mxv
 BYTE   W01
 BYTE   VOL   20*FE12DaysofTrainingRoyLili500_mvl/mxv
 BYTE   W01
 BYTE   VOL   20*FE12DaysofTrainingRoyLili500_mvl/mxv
 BYTE   W01
 BYTE   VOL   22*FE12DaysofTrainingRoyLili500_mvl/mxv
 BYTE   W01
 BYTE   VOL   22*FE12DaysofTrainingRoyLili500_mvl/mxv
 BYTE   W01
 BYTE   VOL   23*FE12DaysofTrainingRoyLili500_mvl/mxv
 BYTE   W01
 BYTE   VOL   23*FE12DaysofTrainingRoyLili500_mvl/mxv
 BYTE   W01
 BYTE   VOL   25*FE12DaysofTrainingRoyLili500_mvl/mxv
 BYTE   W01
 BYTE   VOL   25*FE12DaysofTrainingRoyLili500_mvl/mxv
 BYTE   W01
 BYTE   VOL   27*FE12DaysofTrainingRoyLili500_mvl/mxv
 BYTE   W01
 BYTE   VOL   27*FE12DaysofTrainingRoyLili500_mvl/mxv
 BYTE   W01
 BYTE   VOL   28*FE12DaysofTrainingRoyLili500_mvl/mxv
 BYTE   W01
 BYTE   VOL   29*FE12DaysofTrainingRoyLili500_mvl/mxv
 BYTE   W01
 BYTE   VOL   30*FE12DaysofTrainingRoyLili500_mvl/mxv
 BYTE   W01
 BYTE   VOL   31*FE12DaysofTrainingRoyLili500_mvl/mxv
 BYTE   W01
 BYTE   VOL   31*FE12DaysofTrainingRoyLili500_mvl/mxv
 BYTE   N06  Bn4  v104
 BYTE   W01
//  #05 //011   ----------------------------------------
 BYTE   VOL   30*FE12DaysofTrainingRoyLili500_mvl/mxv
 BYTE   N07  Fs5  v116
 BYTE   W01
 BYTE   VOL   30*FE12DaysofTrainingRoyLili500_mvl/mxv
 BYTE   W01
 BYTE   VOL   28*FE12DaysofTrainingRoyLili500_mvl/mxv
 BYTE   W01
 BYTE   VOL   27*FE12DaysofTrainingRoyLili500_mvl/mxv
 BYTE   W01
 BYTE   VOL   25*FE12DaysofTrainingRoyLili500_mvl/mxv
 BYTE   W01
 BYTE   VOL   25*FE12DaysofTrainingRoyLili500_mvl/mxv
 BYTE   W01
 BYTE   VOL   23*FE12DaysofTrainingRoyLili500_mvl/mxv
 BYTE   W01
 BYTE   VOL   23*FE12DaysofTrainingRoyLili500_mvl/mxv
 BYTE   W01
 BYTE   VOL   24*FE12DaysofTrainingRoyLili500_mvl/mxv
 BYTE   W01
 BYTE   VOL   26*FE12DaysofTrainingRoyLili500_mvl/mxv
 BYTE   W01
 BYTE   VOL   26*FE12DaysofTrainingRoyLili500_mvl/mxv
 BYTE   W01
 BYTE   VOL   28*FE12DaysofTrainingRoyLili500_mvl/mxv
 BYTE   W01
 BYTE   VOL   28*FE12DaysofTrainingRoyLili500_mvl/mxv
 BYTE   W01
 BYTE   VOL   30*FE12DaysofTrainingRoyLili500_mvl/mxv
 BYTE   W01
 BYTE   VOL   31*FE12DaysofTrainingRoyLili500_mvl/mxv
 BYTE   W01
 BYTE   VOL   33*FE12DaysofTrainingRoyLili500_mvl/mxv
 BYTE   N07  Dn5  v104
 BYTE   N07  An5  v116
 BYTE   W08
 BYTE   N06  Cs5  v104
 BYTE   W01
 BYTE   N07  Gs5  v116
 BYTE   W03
 BYTE   VOL   31*FE12DaysofTrainingRoyLili500_mvl/mxv
 BYTE   W01
 BYTE   VOL   28*FE12DaysofTrainingRoyLili500_mvl/mxv
 BYTE   W01
 BYTE   VOL   28*FE12DaysofTrainingRoyLili500_mvl/mxv
 BYTE   W01
 BYTE   VOL   26*FE12DaysofTrainingRoyLili500_mvl/mxv
 BYTE   W01
 BYTE   VOL   24*FE12DaysofTrainingRoyLili500_mvl/mxv
 BYTE   N04  Bn4  v104
 BYTE   W01
 BYTE   VOL   22*FE12DaysofTrainingRoyLili500_mvl/mxv
 BYTE   N03  Fs5  v116
 BYTE   W01
 BYTE   VOL   23*FE12DaysofTrainingRoyLili500_mvl/mxv
 BYTE   W01
 BYTE   VOL   23*FE12DaysofTrainingRoyLili500_mvl/mxv
 BYTE   W01
 BYTE   VOL   23*FE12DaysofTrainingRoyLili500_mvl/mxv
 BYTE   W01
 BYTE   VOL   23*FE12DaysofTrainingRoyLili500_mvl/mxv
 BYTE   W01
 BYTE   VOL   24*FE12DaysofTrainingRoyLili500_mvl/mxv
 BYTE   W01
 BYTE   VOL   26*FE12DaysofTrainingRoyLili500_mvl/mxv
 BYTE   W01
 BYTE   VOL   27*FE12DaysofTrainingRoyLili500_mvl/mxv
 BYTE   N03  Cs5  v104
 BYTE   N04  Gs5  v116
 BYTE   W01
 BYTE   VOL   27*FE12DaysofTrainingRoyLili500_mvl/mxv
 BYTE   W01
 BYTE   VOL   27*FE12DaysofTrainingRoyLili500_mvl/mxv
 BYTE   W01
 BYTE   VOL   27*FE12DaysofTrainingRoyLili500_mvl/mxv
 BYTE   W01
 BYTE   VOL   28*FE12DaysofTrainingRoyLili500_mvl/mxv
 BYTE   W01
 BYTE   VOL   29*FE12DaysofTrainingRoyLili500_mvl/mxv
 BYTE   W01
 BYTE   VOL   30*FE12DaysofTrainingRoyLili500_mvl/mxv
 BYTE   W01
 BYTE   VOL   30*FE12DaysofTrainingRoyLili500_mvl/mxv
 BYTE   W01
 BYTE   VOL   31*FE12DaysofTrainingRoyLili500_mvl/mxv
 BYTE   N44  Fs4  v104
 BYTE   W01
 BYTE   VOL   32*FE12DaysofTrainingRoyLili500_mvl/mxv
 BYTE   N44  Cs5  v116
 BYTE   W01
 BYTE   VOL   31*FE12DaysofTrainingRoyLili500_mvl/mxv
 BYTE   W01
 BYTE   VOL   30*FE12DaysofTrainingRoyLili500_mvl/mxv
 BYTE   W01
 BYTE   VOL   27*FE12DaysofTrainingRoyLili500_mvl/mxv
 BYTE   W01
 BYTE   VOL   26*FE12DaysofTrainingRoyLili500_mvl/mxv
 BYTE   W01
 BYTE   VOL   23*FE12DaysofTrainingRoyLili500_mvl/mxv
 BYTE   W01
 BYTE   VOL   22*FE12DaysofTrainingRoyLili500_mvl/mxv
 BYTE   W01
 BYTE   VOL   20*FE12DaysofTrainingRoyLili500_mvl/mxv
 BYTE   W01
 BYTE   VOL   18*FE12DaysofTrainingRoyLili500_mvl/mxv
 BYTE   W01
 BYTE   VOL   14*FE12DaysofTrainingRoyLili500_mvl/mxv
 BYTE   W01
 BYTE   VOL   13*FE12DaysofTrainingRoyLili500_mvl/mxv
 BYTE   W01
 BYTE   VOL   11*FE12DaysofTrainingRoyLili500_mvl/mxv
 BYTE   W01
 BYTE   VOL   11*FE12DaysofTrainingRoyLili500_mvl/mxv
 BYTE   W01
 BYTE   VOL   11*FE12DaysofTrainingRoyLili500_mvl/mxv
 BYTE   W01
 BYTE   VOL   13*FE12DaysofTrainingRoyLili500_mvl/mxv
 BYTE   W01
 BYTE   VOL   13*FE12DaysofTrainingRoyLili500_mvl/mxv
 BYTE   W01
 BYTE   VOL   13*FE12DaysofTrainingRoyLili500_mvl/mxv
 BYTE   W01
 BYTE   VOL   14*FE12DaysofTrainingRoyLili500_mvl/mxv
 BYTE   W01
 BYTE   VOL   14*FE12DaysofTrainingRoyLili500_mvl/mxv
 BYTE   W01
 BYTE   VOL   15*FE12DaysofTrainingRoyLili500_mvl/mxv
 BYTE   W01
 BYTE   VOL   16*FE12DaysofTrainingRoyLili500_mvl/mxv
 BYTE   W01
 BYTE   VOL   17*FE12DaysofTrainingRoyLili500_mvl/mxv
 BYTE   W01
 BYTE   VOL   17*FE12DaysofTrainingRoyLili500_mvl/mxv
 BYTE   W01
 BYTE   VOL   18*FE12DaysofTrainingRoyLili500_mvl/mxv
 BYTE   W01
 BYTE   VOL   18*FE12DaysofTrainingRoyLili500_mvl/mxv
 BYTE   W01
 BYTE   VOL   18*FE12DaysofTrainingRoyLili500_mvl/mxv
 BYTE   W01
 BYTE   VOL   19*FE12DaysofTrainingRoyLili500_mvl/mxv
 BYTE   W01
 BYTE   VOL   20*FE12DaysofTrainingRoyLili500_mvl/mxv
 BYTE   W01
 BYTE   VOL   20*FE12DaysofTrainingRoyLili500_mvl/mxv
 BYTE   W01
 BYTE   VOL   21*FE12DaysofTrainingRoyLili500_mvl/mxv
 BYTE   W01
 BYTE   VOL   21*FE12DaysofTrainingRoyLili500_mvl/mxv
 BYTE   W01
 BYTE   VOL   22*FE12DaysofTrainingRoyLili500_mvl/mxv
 BYTE   W01
 BYTE   VOL   23*FE12DaysofTrainingRoyLili500_mvl/mxv
 BYTE   W01
 BYTE   VOL   23*FE12DaysofTrainingRoyLili500_mvl/mxv
 BYTE   W01
 BYTE   VOL   23*FE12DaysofTrainingRoyLili500_mvl/mxv
 BYTE   W01
 BYTE   VOL   25*FE12DaysofTrainingRoyLili500_mvl/mxv
 BYTE   W01
 BYTE   VOL   25*FE12DaysofTrainingRoyLili500_mvl/mxv
 BYTE   W01
 BYTE   VOL   27*FE12DaysofTrainingRoyLili500_mvl/mxv
 BYTE   W01
 BYTE   VOL   27*FE12DaysofTrainingRoyLili500_mvl/mxv
 BYTE   W01
 BYTE   VOL   28*FE12DaysofTrainingRoyLili500_mvl/mxv
 BYTE   W01
 BYTE   VOL   28*FE12DaysofTrainingRoyLili500_mvl/mxv
 BYTE   W01
 BYTE   VOL   29*FE12DaysofTrainingRoyLili500_mvl/mxv
 BYTE   W01
 BYTE   VOL   29*FE12DaysofTrainingRoyLili500_mvl/mxv
 BYTE   W01
 BYTE   VOL   30*FE12DaysofTrainingRoyLili500_mvl/mxv
 BYTE   W01
 BYTE   VOL   31*FE12DaysofTrainingRoyLili500_mvl/mxv
 BYTE   W01
 BYTE   VOL   32*FE12DaysofTrainingRoyLili500_mvl/mxv
 BYTE   W02
 BYTE   N14  Gs4  v104
 BYTE   W01
//  #05 //012   ----------------------------------------
 BYTE   N15  Ds5  v116
 BYTE   W01
 BYTE   VOL   32*FE12DaysofTrainingRoyLili500_mvl/mxv
 BYTE   W01
 BYTE   VOL   30*FE12DaysofTrainingRoyLili500_mvl/mxv
 BYTE   W01
 BYTE   VOL   27*FE12DaysofTrainingRoyLili500_mvl/mxv
 BYTE   W01
 BYTE   VOL   25*FE12DaysofTrainingRoyLili500_mvl/mxv
 BYTE   W01
 BYTE   VOL   23*FE12DaysofTrainingRoyLili500_mvl/mxv
 BYTE   W01
 BYTE   VOL   20*FE12DaysofTrainingRoyLili500_mvl/mxv
 BYTE   W01
 BYTE   VOL   20*FE12DaysofTrainingRoyLili500_mvl/mxv
 BYTE   W01
 BYTE   VOL   22*FE12DaysofTrainingRoyLili500_mvl/mxv
 BYTE   W01
 BYTE   VOL   23*FE12DaysofTrainingRoyLili500_mvl/mxv
 BYTE   W01
 BYTE   VOL   26*FE12DaysofTrainingRoyLili500_mvl/mxv
 BYTE   W01
 BYTE   VOL   26*FE12DaysofTrainingRoyLili500_mvl/mxv
 BYTE   W01
 BYTE   VOL   28*FE12DaysofTrainingRoyLili500_mvl/mxv
 BYTE   W01
 BYTE   VOL   28*FE12DaysofTrainingRoyLili500_mvl/mxv
 BYTE   W01
 BYTE   VOL   31*FE12DaysofTrainingRoyLili500_mvl/mxv
 BYTE   W01
 BYTE   VOL   31*FE12DaysofTrainingRoyLili500_mvl/mxv
 BYTE   N02  Gs4  v104
 BYTE   N02  Ds5  v116
 BYTE   W03
 BYTE   An4  v104
 BYTE   N02  En5  v116
 BYTE   W05
 BYTE   N06  Bn4  v104
 BYTE   W01
 BYTE   VOL   31*FE12DaysofTrainingRoyLili500_mvl/mxv
 BYTE   N07  Fs5  v116
 BYTE   W01
 BYTE   VOL   31*FE12DaysofTrainingRoyLili500_mvl/mxv
 BYTE   W01
 BYTE   VOL   30*FE12DaysofTrainingRoyLili500_mvl/mxv
 BYTE   W01
 BYTE   VOL   28*FE12DaysofTrainingRoyLili500_mvl/mxv
 BYTE   W01
 BYTE   VOL   27*FE12DaysofTrainingRoyLili500_mvl/mxv
 BYTE   W01
 BYTE   VOL   27*FE12DaysofTrainingRoyLili500_mvl/mxv
 BYTE   W01
 BYTE   VOL   25*FE12DaysofTrainingRoyLili500_mvl/mxv
 BYTE   W01
 BYTE   VOL   23*FE12DaysofTrainingRoyLili500_mvl/mxv
 BYTE   N04  An4  v104
 BYTE   W01
 BYTE   N03  En5  v116
 BYTE   W01
 BYTE   VOL   24*FE12DaysofTrainingRoyLili500_mvl/mxv
 BYTE   W01
 BYTE   VOL   25*FE12DaysofTrainingRoyLili500_mvl/mxv
 BYTE   W02
 BYTE   VOL   26*FE12DaysofTrainingRoyLili500_mvl/mxv
 BYTE   W01
 BYTE   VOL   27*FE12DaysofTrainingRoyLili500_mvl/mxv
 BYTE   W01
 BYTE   VOL   27*FE12DaysofTrainingRoyLili500_mvl/mxv
 BYTE   W01
 BYTE   N03  Bn4  v104
 BYTE   N04  Fs5  v116
 BYTE   W01
 BYTE   VOL   28*FE12DaysofTrainingRoyLili500_mvl/mxv
 BYTE   W02
 BYTE   VOL   29*FE12DaysofTrainingRoyLili500_mvl/mxv
 BYTE   W01
 BYTE   VOL   30*FE12DaysofTrainingRoyLili500_mvl/mxv
 BYTE   W02
 BYTE   VOL   30*FE12DaysofTrainingRoyLili500_mvl/mxv
 BYTE   W01
 BYTE   VOL   31*FE12DaysofTrainingRoyLili500_mvl/mxv
 BYTE   W01
 BYTE   N44  En4  v104
 BYTE   W01
 BYTE   VOL   32*FE12DaysofTrainingRoyLili500_mvl/mxv
 BYTE   N44  Bn4  v116
 BYTE   W01
 BYTE   VOL   33*FE12DaysofTrainingRoyLili500_mvl/mxv
 BYTE   W01
 BYTE   VOL   32*FE12DaysofTrainingRoyLili500_mvl/mxv
 BYTE   W01
 BYTE   VOL   30*FE12DaysofTrainingRoyLili500_mvl/mxv
 BYTE   W01
 BYTE   VOL   27*FE12DaysofTrainingRoyLili500_mvl/mxv
 BYTE   W01
 BYTE   VOL   27*FE12DaysofTrainingRoyLili500_mvl/mxv
 BYTE   W01
 BYTE   VOL   20*FE12DaysofTrainingRoyLili500_mvl/mxv
 BYTE   W01
 BYTE   VOL   17*FE12DaysofTrainingRoyLili500_mvl/mxv
 BYTE   W01
 BYTE   VOL   12*FE12DaysofTrainingRoyLili500_mvl/mxv
 BYTE   W01
 BYTE   VOL   13*FE12DaysofTrainingRoyLili500_mvl/mxv
 BYTE   W01
 BYTE   VOL   13*FE12DaysofTrainingRoyLili500_mvl/mxv
 BYTE   W01
 BYTE   VOL   13*FE12DaysofTrainingRoyLili500_mvl/mxv
 BYTE   W01
 BYTE   VOL   13*FE12DaysofTrainingRoyLili500_mvl/mxv
 BYTE   W01
 BYTE   VOL   14*FE12DaysofTrainingRoyLili500_mvl/mxv
 BYTE   W01
 BYTE   VOL   15*FE12DaysofTrainingRoyLili500_mvl/mxv
 BYTE   W01
 BYTE   VOL   15*FE12DaysofTrainingRoyLili500_mvl/mxv
 BYTE   W01
 BYTE   VOL   15*FE12DaysofTrainingRoyLili500_mvl/mxv
 BYTE   W01
 BYTE   VOL   17*FE12DaysofTrainingRoyLili500_mvl/mxv
 BYTE   W01
 BYTE   VOL   17*FE12DaysofTrainingRoyLili500_mvl/mxv
 BYTE   W01
 BYTE   VOL   17*FE12DaysofTrainingRoyLili500_mvl/mxv
 BYTE   W01
 BYTE   VOL   18*FE12DaysofTrainingRoyLili500_mvl/mxv
 BYTE   W01
 BYTE   VOL   18*FE12DaysofTrainingRoyLili500_mvl/mxv
 BYTE   W01
 BYTE   VOL   18*FE12DaysofTrainingRoyLili500_mvl/mxv
 BYTE   W01
 BYTE   VOL   19*FE12DaysofTrainingRoyLili500_mvl/mxv
 BYTE   W01
 BYTE   VOL   19*FE12DaysofTrainingRoyLili500_mvl/mxv
 BYTE   W01
 BYTE   VOL   20*FE12DaysofTrainingRoyLili500_mvl/mxv
 BYTE   W01
 BYTE   VOL   21*FE12DaysofTrainingRoyLili500_mvl/mxv
 BYTE   W01
 BYTE   VOL   22*FE12DaysofTrainingRoyLili500_mvl/mxv
 BYTE   W01
 BYTE   VOL   22*FE12DaysofTrainingRoyLili500_mvl/mxv
 BYTE   W01
 BYTE   VOL   22*FE12DaysofTrainingRoyLili500_mvl/mxv
 BYTE   W01
 BYTE   VOL   22*FE12DaysofTrainingRoyLili500_mvl/mxv
 BYTE   W01
 BYTE   VOL   23*FE12DaysofTrainingRoyLili500_mvl/mxv
 BYTE   W01
 BYTE   VOL   23*FE12DaysofTrainingRoyLili500_mvl/mxv
 BYTE   W01
 BYTE   VOL   25*FE12DaysofTrainingRoyLili500_mvl/mxv
 BYTE   W01
 BYTE   VOL   25*FE12DaysofTrainingRoyLili500_mvl/mxv
 BYTE   W01
 BYTE   VOL   26*FE12DaysofTrainingRoyLili500_mvl/mxv
 BYTE   W01
 BYTE   VOL   26*FE12DaysofTrainingRoyLili500_mvl/mxv
 BYTE   W01
 BYTE   VOL   27*FE12DaysofTrainingRoyLili500_mvl/mxv
 BYTE   W01
 BYTE   VOL   28*FE12DaysofTrainingRoyLili500_mvl/mxv
 BYTE   W01
 BYTE   VOL   28*FE12DaysofTrainingRoyLili500_mvl/mxv
 BYTE   W01
 BYTE   VOL   28*FE12DaysofTrainingRoyLili500_mvl/mxv
 BYTE   W01
 BYTE   VOL   29*FE12DaysofTrainingRoyLili500_mvl/mxv
 BYTE   W01
 BYTE   VOL   29*FE12DaysofTrainingRoyLili500_mvl/mxv
 BYTE   W01
 BYTE   VOL   30*FE12DaysofTrainingRoyLili500_mvl/mxv
 BYTE   W01
 BYTE   VOL   31*FE12DaysofTrainingRoyLili500_mvl/mxv
 BYTE   W01
 BYTE   VOL   32*FE12DaysofTrainingRoyLili500_mvl/mxv
 BYTE   W02
 BYTE   N06  Fs4  v104
 BYTE   W01
//  #05 //013   ----------------------------------------
 BYTE   N07  Cs5  v116
 BYTE   W07
 BYTE   N04  Gs4  v104
 BYTE   W01
 BYTE   N03  Ds5  v116
 BYTE   W07
 BYTE   An4  v104
 BYTE   N04  En5  v116
 BYTE   W08
 BYTE   N06  Gs4  v104
 BYTE   W01
 BYTE   N07  Ds5  v116
 BYTE   W07
 BYTE   N04  An4  v104
 BYTE   W01
 BYTE   N03  En5  v116
 BYTE   W07
 BYTE   Bn4  v104
 BYTE   N04  Fs5  v116
 BYTE   W08
 BYTE   N72  En4  v104
 BYTE   W01
 BYTE   VOL   32*FE12DaysofTrainingRoyLili500_mvl/mxv
 BYTE   N72  Bn4  v116
 BYTE   W02
 BYTE   VOL   32*FE12DaysofTrainingRoyLili500_mvl/mxv
 BYTE   W01
 BYTE   VOL   32*FE12DaysofTrainingRoyLili500_mvl/mxv
 BYTE   W03
 BYTE   VOL   31*FE12DaysofTrainingRoyLili500_mvl/mxv
 BYTE   W01
 BYTE   VOL   30*FE12DaysofTrainingRoyLili500_mvl/mxv
 BYTE   W01
 BYTE   VOL   28*FE12DaysofTrainingRoyLili500_mvl/mxv
 BYTE   W01
 BYTE   VOL   28*FE12DaysofTrainingRoyLili500_mvl/mxv
 BYTE   W01
 BYTE   VOL   27*FE12DaysofTrainingRoyLili500_mvl/mxv
 BYTE   W02
 BYTE   VOL   26*FE12DaysofTrainingRoyLili500_mvl/mxv
 BYTE   W01
 BYTE   VOL   24*FE12DaysofTrainingRoyLili500_mvl/mxv
 BYTE   W01
 BYTE   VOL   24*FE12DaysofTrainingRoyLili500_mvl/mxv
 BYTE   W01
 BYTE   VOL   23*FE12DaysofTrainingRoyLili500_mvl/mxv
 BYTE   W01
 BYTE   VOL   22*FE12DaysofTrainingRoyLili500_mvl/mxv
 BYTE   W02
 BYTE   VOL   20*FE12DaysofTrainingRoyLili500_mvl/mxv
 BYTE   W01
 BYTE   VOL   19*FE12DaysofTrainingRoyLili500_mvl/mxv
 BYTE   W01
 BYTE   VOL   18*FE12DaysofTrainingRoyLili500_mvl/mxv
 BYTE   W01
 BYTE   VOL   18*FE12DaysofTrainingRoyLili500_mvl/mxv
 BYTE   W01
 BYTE   VOL   17*FE12DaysofTrainingRoyLili500_mvl/mxv
 BYTE   W02
 BYTE   VOL   18*FE12DaysofTrainingRoyLili500_mvl/mxv
 BYTE   W01
 BYTE   VOL   18*FE12DaysofTrainingRoyLili500_mvl/mxv
 BYTE   W02
 BYTE   VOL   19*FE12DaysofTrainingRoyLili500_mvl/mxv
 BYTE   W01
 BYTE   VOL   20*FE12DaysofTrainingRoyLili500_mvl/mxv
 BYTE   W02
 BYTE   VOL   20*FE12DaysofTrainingRoyLili500_mvl/mxv
 BYTE   W01
 BYTE   VOL   22*FE12DaysofTrainingRoyLili500_mvl/mxv
 BYTE   W03
 BYTE   VOL   22*FE12DaysofTrainingRoyLili500_mvl/mxv
 BYTE   W03
 BYTE   VOL   22*FE12DaysofTrainingRoyLili500_mvl/mxv
 BYTE   W03
 BYTE   VOL   23*FE12DaysofTrainingRoyLili500_mvl/mxv
 BYTE   W02
 BYTE   VOL   22*FE12DaysofTrainingRoyLili500_mvl/mxv
 BYTE   W01
 BYTE   VOL   21*FE12DaysofTrainingRoyLili500_mvl/mxv
 BYTE   W01
 BYTE   VOL   20*FE12DaysofTrainingRoyLili500_mvl/mxv
 BYTE   W02
 BYTE   VOL   20*FE12DaysofTrainingRoyLili500_mvl/mxv
 BYTE   W02
//  #05 //014   ----------------------------------------
 BYTE   VOL   19*FE12DaysofTrainingRoyLili500_mvl/mxv
 BYTE   W01
 BYTE   VOL   18*FE12DaysofTrainingRoyLili500_mvl/mxv
 BYTE   W01
 BYTE   VOL   18*FE12DaysofTrainingRoyLili500_mvl/mxv
 BYTE   W02
 BYTE   VOL   17*FE12DaysofTrainingRoyLili500_mvl/mxv
 BYTE   W02
 BYTE   VOL   16*FE12DaysofTrainingRoyLili500_mvl/mxv
 BYTE   W01
 BYTE   VOL   15*FE12DaysofTrainingRoyLili500_mvl/mxv
 BYTE   W01
 BYTE   VOL   15*FE12DaysofTrainingRoyLili500_mvl/mxv
 BYTE   W01
 BYTE   VOL   13*FE12DaysofTrainingRoyLili500_mvl/mxv
 BYTE   W01
 BYTE   VOL   11*FE12DaysofTrainingRoyLili500_mvl/mxv
 BYTE   W02
 BYTE   VOL   10*FE12DaysofTrainingRoyLili500_mvl/mxv
 BYTE   W01
 BYTE   VOL   8*FE12DaysofTrainingRoyLili500_mvl/mxv
 BYTE   W01
 BYTE   VOL   7*FE12DaysofTrainingRoyLili500_mvl/mxv
 BYTE   W01
 BYTE   VOL   7*FE12DaysofTrainingRoyLili500_mvl/mxv
 BYTE   W01
 BYTE   VOL   6*FE12DaysofTrainingRoyLili500_mvl/mxv
 BYTE   W02
 BYTE   VOL   4*FE12DaysofTrainingRoyLili500_mvl/mxv
 BYTE   W01
 BYTE   VOL   3*FE12DaysofTrainingRoyLili500_mvl/mxv
 BYTE   W01
 BYTE   VOL   3*FE12DaysofTrainingRoyLili500_mvl/mxv
 BYTE   W01
 BYTE   VOL   2*FE12DaysofTrainingRoyLili500_mvl/mxv
 BYTE   W01
 BYTE   VOL   1*FE12DaysofTrainingRoyLili500_mvl/mxv
 BYTE   W02
 BYTE   VOL   1*FE12DaysofTrainingRoyLili500_mvl/mxv
 BYTE   W01
 BYTE   VOL   0*FE12DaysofTrainingRoyLili500_mvl/mxv
 BYTE   W01
 BYTE   VOL   0*FE12DaysofTrainingRoyLili500_mvl/mxv
 BYTE   W01
 BYTE   VOL   0*FE12DaysofTrainingRoyLili500_mvl/mxv
 BYTE   W01
 BYTE   VOL   0*FE12DaysofTrainingRoyLili500_mvl/mxv
 BYTE   W68
//  #05 //015   ----------------------------------------
 BYTE   W96
//  #05 //016   ----------------------------------------
 BYTE   W96
//  #05 //017   ----------------------------------------
 BYTE   W96
//  #05 //018   ----------------------------------------
 BYTE   W96
//  #05 //019   ----------------------------------------
 BYTE   W96
//  #05 //020   ----------------------------------------
 BYTE   W24
 BYTE   GoTo
  POIN2 Label_01412B93
 BYTE   FINE

//**************** Track 6 (Midi-Chn.5) ****************//

FE12DaysofTrainingRoyLili500_006:
//  #06 //000   ----------------------------------------
 BYTE   KEYSH   FE12DaysofTrainingRoyLili500_key+0
 BYTE   VOICE   73
 BYTE   MODT 0
 BYTE   LFOS 44
 BYTE   VOL   24*FE12DaysofTrainingRoyLili500_mvl/mxv
 BYTE   PAN   c_v-33
 BYTE   BEND   c_v+0
 BYTE   W24
Label_01413077:
 BYTE   VOL   24*FE12DaysofTrainingRoyLili500_mvl/mxv
 BYTE   W72
//  #06 //001   ----------------------------------------
 BYTE   W72
 BYTE   VOL   24*FE12DaysofTrainingRoyLili500_mvl/mxv
 BYTE   W24
//  #06 //002   ----------------------------------------
 BYTE   W48
 BYTE   N02  Cs5  v116
 BYTE   W03
 BYTE   Dn5
 BYTE   W05
 BYTE   VOL   24*FE12DaysofTrainingRoyLili500_mvl/mxv
 BYTE   N22  Cs5
 BYTE   W01
 BYTE   VOL   23*FE12DaysofTrainingRoyLili500_mvl/mxv
 BYTE   W02
 BYTE   VOL   23*FE12DaysofTrainingRoyLili500_mvl/mxv
 BYTE   W01
 BYTE   VOL   22*FE12DaysofTrainingRoyLili500_mvl/mxv
 BYTE   W01
 BYTE   VOL   20*FE12DaysofTrainingRoyLili500_mvl/mxv
 BYTE   W01
 BYTE   VOL   19*FE12DaysofTrainingRoyLili500_mvl/mxv
 BYTE   W01
 BYTE   VOL   15*FE12DaysofTrainingRoyLili500_mvl/mxv
 BYTE   W01
 BYTE   VOL   13*FE12DaysofTrainingRoyLili500_mvl/mxv
 BYTE   W02
 BYTE   VOL   14*FE12DaysofTrainingRoyLili500_mvl/mxv
 BYTE   W02
 BYTE   VOL   15*FE12DaysofTrainingRoyLili500_mvl/mxv
 BYTE   W01
 BYTE   VOL   16*FE12DaysofTrainingRoyLili500_mvl/mxv
 BYTE   W01
 BYTE   VOL   17*FE12DaysofTrainingRoyLili500_mvl/mxv
 BYTE   W02
 BYTE   VOL   19*FE12DaysofTrainingRoyLili500_mvl/mxv
 BYTE   W02
 BYTE   VOL   20*FE12DaysofTrainingRoyLili500_mvl/mxv
 BYTE   W01
 BYTE   VOL   21*FE12DaysofTrainingRoyLili500_mvl/mxv
 BYTE   W01
 BYTE   VOL   23*FE12DaysofTrainingRoyLili500_mvl/mxv
 BYTE   W04
 BYTE   N06  En5
 BYTE   W01
 BYTE   VOL   22*FE12DaysofTrainingRoyLili500_mvl/mxv
 BYTE   W01
 BYTE   VOL   21*FE12DaysofTrainingRoyLili500_mvl/mxv
 BYTE   W01
 BYTE   VOL   20*FE12DaysofTrainingRoyLili500_mvl/mxv
 BYTE   W01
 BYTE   VOL   19*FE12DaysofTrainingRoyLili500_mvl/mxv
 BYTE   W01
 BYTE   VOL   19*FE12DaysofTrainingRoyLili500_mvl/mxv
 BYTE   W01
 BYTE   VOL   17*FE12DaysofTrainingRoyLili500_mvl/mxv
 BYTE   W01
 BYTE   VOL   15*FE12DaysofTrainingRoyLili500_mvl/mxv
 BYTE   W01
 BYTE   VOL   14*FE12DaysofTrainingRoyLili500_mvl/mxv
 BYTE   W02
 BYTE   VOL   15*FE12DaysofTrainingRoyLili500_mvl/mxv
 BYTE   W02
 BYTE   VOL   16*FE12DaysofTrainingRoyLili500_mvl/mxv
 BYTE   W01
 BYTE   VOL   17*FE12DaysofTrainingRoyLili500_mvl/mxv
 BYTE   W01
 BYTE   VOL   18*FE12DaysofTrainingRoyLili500_mvl/mxv
 BYTE   W02
//  #06 //003   ----------------------------------------
 BYTE   VOL   18*FE12DaysofTrainingRoyLili500_mvl/mxv
 BYTE   W02
 BYTE   VOL   19*FE12DaysofTrainingRoyLili500_mvl/mxv
 BYTE   W01
 BYTE   VOL   20*FE12DaysofTrainingRoyLili500_mvl/mxv
 BYTE   W01
 BYTE   VOL   21*FE12DaysofTrainingRoyLili500_mvl/mxv
 BYTE   W02
 BYTE   VOL   22*FE12DaysofTrainingRoyLili500_mvl/mxv
 BYTE   W01
 BYTE   VOL   23*FE12DaysofTrainingRoyLili500_mvl/mxv
 BYTE   W01
 BYTE   N06  Bn4
 BYTE   W01
 BYTE   VOL   22*FE12DaysofTrainingRoyLili500_mvl/mxv
 BYTE   W01
 BYTE   VOL   20*FE12DaysofTrainingRoyLili500_mvl/mxv
 BYTE   W02
 BYTE   VOL   19*FE12DaysofTrainingRoyLili500_mvl/mxv
 BYTE   W01
 BYTE   VOL   18*FE12DaysofTrainingRoyLili500_mvl/mxv
 BYTE   W01
 BYTE   VOL   17*FE12DaysofTrainingRoyLili500_mvl/mxv
 BYTE   W01
 BYTE   VOL   17*FE12DaysofTrainingRoyLili500_mvl/mxv
 BYTE   W01
 BYTE   VOL   18*FE12DaysofTrainingRoyLili500_mvl/mxv
 BYTE   W02
 BYTE   VOL   19*FE12DaysofTrainingRoyLili500_mvl/mxv
 BYTE   W02
 BYTE   VOL   20*FE12DaysofTrainingRoyLili500_mvl/mxv
 BYTE   W01
 BYTE   VOL   22*FE12DaysofTrainingRoyLili500_mvl/mxv
 BYTE   W01
 BYTE   VOL   23*FE12DaysofTrainingRoyLili500_mvl/mxv
 BYTE   W02
 BYTE   VOL   23*FE12DaysofTrainingRoyLili500_mvl/mxv
 BYTE   N07  Dn5
 BYTE   W08
 BYTE   Cs5
 BYTE   W02
 BYTE   VOL   23*FE12DaysofTrainingRoyLili500_mvl/mxv
 BYTE   W02
 BYTE   VOL   22*FE12DaysofTrainingRoyLili500_mvl/mxv
 BYTE   W01
 BYTE   VOL   20*FE12DaysofTrainingRoyLili500_mvl/mxv
 BYTE   W01
 BYTE   VOL   20*FE12DaysofTrainingRoyLili500_mvl/mxv
 BYTE   W01
 BYTE   VOL   18*FE12DaysofTrainingRoyLili500_mvl/mxv
 BYTE   N04  Bn4
 BYTE   W01
 BYTE   VOL   16*FE12DaysofTrainingRoyLili500_mvl/mxv
 BYTE   W02
 BYTE   VOL   17*FE12DaysofTrainingRoyLili500_mvl/mxv
 BYTE   W02
 BYTE   VOL   17*FE12DaysofTrainingRoyLili500_mvl/mxv
 BYTE   W01
 BYTE   VOL   18*FE12DaysofTrainingRoyLili500_mvl/mxv
 BYTE   W01
 BYTE   VOL   19*FE12DaysofTrainingRoyLili500_mvl/mxv
 BYTE   W02
 BYTE   VOL   19*FE12DaysofTrainingRoyLili500_mvl/mxv
 BYTE   N03  Cs5
 BYTE   W02
 BYTE   VOL   20*FE12DaysofTrainingRoyLili500_mvl/mxv
 BYTE   W01
 BYTE   VOL   20*FE12DaysofTrainingRoyLili500_mvl/mxv
 BYTE   W01
 BYTE   VOL   21*FE12DaysofTrainingRoyLili500_mvl/mxv
 BYTE   W02
 BYTE   VOL   22*FE12DaysofTrainingRoyLili500_mvl/mxv
 BYTE   W02
 BYTE   VOL   23*FE12DaysofTrainingRoyLili500_mvl/mxv
 BYTE   N44  Fs4
 BYTE   W01
 BYTE   VOL   22*FE12DaysofTrainingRoyLili500_mvl/mxv
 BYTE   W02
 BYTE   VOL   21*FE12DaysofTrainingRoyLili500_mvl/mxv
 BYTE   W01
 BYTE   VOL   20*FE12DaysofTrainingRoyLili500_mvl/mxv
 BYTE   W01
 BYTE   VOL   19*FE12DaysofTrainingRoyLili500_mvl/mxv
 BYTE   W01
 BYTE   VOL   16*FE12DaysofTrainingRoyLili500_mvl/mxv
 BYTE   W01
 BYTE   VOL   14*FE12DaysofTrainingRoyLili500_mvl/mxv
 BYTE   W01
 BYTE   VOL   13*FE12DaysofTrainingRoyLili500_mvl/mxv
 BYTE   W01
 BYTE   VOL   11*FE12DaysofTrainingRoyLili500_mvl/mxv
 BYTE   W01
 BYTE   VOL   10*FE12DaysofTrainingRoyLili500_mvl/mxv
 BYTE   W01
 BYTE   VOL   10*FE12DaysofTrainingRoyLili500_mvl/mxv
 BYTE   W01
 BYTE   VOL   8*FE12DaysofTrainingRoyLili500_mvl/mxv
 BYTE   W01
 BYTE   VOL   8*FE12DaysofTrainingRoyLili500_mvl/mxv
 BYTE   W01
 BYTE   VOL   10*FE12DaysofTrainingRoyLili500_mvl/mxv
 BYTE   W02
 BYTE   VOL   10*FE12DaysofTrainingRoyLili500_mvl/mxv
 BYTE   W02
 BYTE   VOL   10*FE12DaysofTrainingRoyLili500_mvl/mxv
 BYTE   W01
 BYTE   VOL   11*FE12DaysofTrainingRoyLili500_mvl/mxv
 BYTE   W01
 BYTE   VOL   11*FE12DaysofTrainingRoyLili500_mvl/mxv
 BYTE   W02
 BYTE   VOL   12*FE12DaysofTrainingRoyLili500_mvl/mxv
 BYTE   W02
 BYTE   VOL   13*FE12DaysofTrainingRoyLili500_mvl/mxv
 BYTE   W01
 BYTE   VOL   13*FE12DaysofTrainingRoyLili500_mvl/mxv
 BYTE   W01
 BYTE   VOL   14*FE12DaysofTrainingRoyLili500_mvl/mxv
 BYTE   W02
 BYTE   VOL   15*FE12DaysofTrainingRoyLili500_mvl/mxv
 BYTE   W02
 BYTE   VOL   15*FE12DaysofTrainingRoyLili500_mvl/mxv
 BYTE   W01
 BYTE   VOL   16*FE12DaysofTrainingRoyLili500_mvl/mxv
 BYTE   W01
 BYTE   VOL   17*FE12DaysofTrainingRoyLili500_mvl/mxv
 BYTE   W02
 BYTE   VOL   18*FE12DaysofTrainingRoyLili500_mvl/mxv
 BYTE   W02
 BYTE   VOL   18*FE12DaysofTrainingRoyLili500_mvl/mxv
 BYTE   W01
 BYTE   VOL   19*FE12DaysofTrainingRoyLili500_mvl/mxv
 BYTE   W01
 BYTE   VOL   20*FE12DaysofTrainingRoyLili500_mvl/mxv
 BYTE   W02
//  #06 //004   ----------------------------------------
 BYTE   VOL   20*FE12DaysofTrainingRoyLili500_mvl/mxv
 BYTE   W02
 BYTE   VOL   21*FE12DaysofTrainingRoyLili500_mvl/mxv
 BYTE   W01
 BYTE   VOL   22*FE12DaysofTrainingRoyLili500_mvl/mxv
 BYTE   W01
 BYTE   VOL   23*FE12DaysofTrainingRoyLili500_mvl/mxv
 BYTE   W02
 BYTE   VOL   23*FE12DaysofTrainingRoyLili500_mvl/mxv
 BYTE   W02
 BYTE   N14  Gs4
 BYTE   W01
 BYTE   VOL   23*FE12DaysofTrainingRoyLili500_mvl/mxv
 BYTE   W01
 BYTE   VOL   22*FE12DaysofTrainingRoyLili500_mvl/mxv
 BYTE   W01
 BYTE   VOL   20*FE12DaysofTrainingRoyLili500_mvl/mxv
 BYTE   W01
 BYTE   VOL   19*FE12DaysofTrainingRoyLili500_mvl/mxv
 BYTE   W01
 BYTE   VOL   17*FE12DaysofTrainingRoyLili500_mvl/mxv
 BYTE   W01
 BYTE   VOL   15*FE12DaysofTrainingRoyLili500_mvl/mxv
 BYTE   W01
 BYTE   VOL   15*FE12DaysofTrainingRoyLili500_mvl/mxv
 BYTE   W01
 BYTE   VOL   16*FE12DaysofTrainingRoyLili500_mvl/mxv
 BYTE   W02
 BYTE   VOL   18*FE12DaysofTrainingRoyLili500_mvl/mxv
 BYTE   W01
 BYTE   VOL   19*FE12DaysofTrainingRoyLili500_mvl/mxv
 BYTE   W01
 BYTE   VOL   20*FE12DaysofTrainingRoyLili500_mvl/mxv
 BYTE   W02
 BYTE   VOL   23*FE12DaysofTrainingRoyLili500_mvl/mxv
 BYTE   W02
 BYTE   N02
 BYTE   W02
 BYTE   An4
 BYTE   W06
 BYTE   VOL   23*FE12DaysofTrainingRoyLili500_mvl/mxv
 BYTE   N07  Bn4
 BYTE   W02
 BYTE   VOL   22*FE12DaysofTrainingRoyLili500_mvl/mxv
 BYTE   W02
 BYTE   VOL   20*FE12DaysofTrainingRoyLili500_mvl/mxv
 BYTE   W01
 BYTE   VOL   19*FE12DaysofTrainingRoyLili500_mvl/mxv
 BYTE   W02
 BYTE   VOL   18*FE12DaysofTrainingRoyLili500_mvl/mxv
 BYTE   N04  An4
 BYTE   W01
 BYTE   VOL   18*FE12DaysofTrainingRoyLili500_mvl/mxv
 BYTE   W02
 BYTE   VOL   18*FE12DaysofTrainingRoyLili500_mvl/mxv
 BYTE   W02
 BYTE   VOL   19*FE12DaysofTrainingRoyLili500_mvl/mxv
 BYTE   W01
 BYTE   VOL   19*FE12DaysofTrainingRoyLili500_mvl/mxv
 BYTE   W01
 BYTE   VOL   20*FE12DaysofTrainingRoyLili500_mvl/mxv
 BYTE   W02
 BYTE   VOL   20*FE12DaysofTrainingRoyLili500_mvl/mxv
 BYTE   N03  Bn4
 BYTE   W02
 BYTE   VOL   21*FE12DaysofTrainingRoyLili500_mvl/mxv
 BYTE   W01
 BYTE   VOL   22*FE12DaysofTrainingRoyLili500_mvl/mxv
 BYTE   W01
 BYTE   VOL   22*FE12DaysofTrainingRoyLili500_mvl/mxv
 BYTE   W02
 BYTE   VOL   22*FE12DaysofTrainingRoyLili500_mvl/mxv
 BYTE   W02
 BYTE   VOL   23*FE12DaysofTrainingRoyLili500_mvl/mxv
 BYTE   N44  En4
 BYTE   W01
 BYTE   VOL   23*FE12DaysofTrainingRoyLili500_mvl/mxv
 BYTE   W01
 BYTE   VOL   23*FE12DaysofTrainingRoyLili500_mvl/mxv
 BYTE   W02
 BYTE   VOL   22*FE12DaysofTrainingRoyLili500_mvl/mxv
 BYTE   W01
 BYTE   VOL   19*FE12DaysofTrainingRoyLili500_mvl/mxv
 BYTE   W01
 BYTE   VOL   14*FE12DaysofTrainingRoyLili500_mvl/mxv
 BYTE   W01
 BYTE   VOL   12*FE12DaysofTrainingRoyLili500_mvl/mxv
 BYTE   W01
 BYTE   VOL   9*FE12DaysofTrainingRoyLili500_mvl/mxv
 BYTE   W02
 BYTE   VOL   10*FE12DaysofTrainingRoyLili500_mvl/mxv
 BYTE   W02
 BYTE   VOL   10*FE12DaysofTrainingRoyLili500_mvl/mxv
 BYTE   W01
 BYTE   VOL   10*FE12DaysofTrainingRoyLili500_mvl/mxv
 BYTE   W01
 BYTE   VOL   11*FE12DaysofTrainingRoyLili500_mvl/mxv
 BYTE   W02
 BYTE   VOL   11*FE12DaysofTrainingRoyLili500_mvl/mxv
 BYTE   W02
 BYTE   VOL   11*FE12DaysofTrainingRoyLili500_mvl/mxv
 BYTE   W01
 BYTE   VOL   12*FE12DaysofTrainingRoyLili500_mvl/mxv
 BYTE   W01
 BYTE   VOL   13*FE12DaysofTrainingRoyLili500_mvl/mxv
 BYTE   W02
 BYTE   VOL   13*FE12DaysofTrainingRoyLili500_mvl/mxv
 BYTE   W02
 BYTE   VOL   14*FE12DaysofTrainingRoyLili500_mvl/mxv
 BYTE   W01
 BYTE   VOL   14*FE12DaysofTrainingRoyLili500_mvl/mxv
 BYTE   W01
 BYTE   VOL   15*FE12DaysofTrainingRoyLili500_mvl/mxv
 BYTE   W02
 BYTE   VOL   16*FE12DaysofTrainingRoyLili500_mvl/mxv
 BYTE   W02
 BYTE   VOL   17*FE12DaysofTrainingRoyLili500_mvl/mxv
 BYTE   W01
 BYTE   VOL   17*FE12DaysofTrainingRoyLili500_mvl/mxv
 BYTE   W01
 BYTE   VOL   18*FE12DaysofTrainingRoyLili500_mvl/mxv
 BYTE   W02
 BYTE   VOL   18*FE12DaysofTrainingRoyLili500_mvl/mxv
 BYTE   W02
 BYTE   VOL   19*FE12DaysofTrainingRoyLili500_mvl/mxv
 BYTE   W01
 BYTE   VOL   19*FE12DaysofTrainingRoyLili500_mvl/mxv
 BYTE   W01
 BYTE   VOL   20*FE12DaysofTrainingRoyLili500_mvl/mxv
 BYTE   W02
//  #06 //005   ----------------------------------------
 BYTE   VOL   20*FE12DaysofTrainingRoyLili500_mvl/mxv
 BYTE   W02
 BYTE   VOL   21*FE12DaysofTrainingRoyLili500_mvl/mxv
 BYTE   W01
 BYTE   VOL   22*FE12DaysofTrainingRoyLili500_mvl/mxv
 BYTE   W01
 BYTE   VOL   23*FE12DaysofTrainingRoyLili500_mvl/mxv
 BYTE   W02
 BYTE   VOL   23*FE12DaysofTrainingRoyLili500_mvl/mxv
 BYTE   W02
 BYTE   N07  Fs4
 BYTE   W07
 BYTE   N04  Gs4
 BYTE   W09
 BYTE   N03  An4
 BYTE   W08
 BYTE   N06  Gs4
 BYTE   W07
 BYTE   N04  An4
 BYTE   W09
 BYTE   N03  Bn4
 BYTE   W08
 BYTE   VOL   23*FE12DaysofTrainingRoyLili500_mvl/mxv
 BYTE   N72  En4
 BYTE   W03
 BYTE   VOL   23*FE12DaysofTrainingRoyLili500_mvl/mxv
 BYTE   W03
 BYTE   VOL   23*FE12DaysofTrainingRoyLili500_mvl/mxv
 BYTE   W01
 BYTE   VOL   22*FE12DaysofTrainingRoyLili500_mvl/mxv
 BYTE   W02
 BYTE   VOL   20*FE12DaysofTrainingRoyLili500_mvl/mxv
 BYTE   W02
 BYTE   VOL   20*FE12DaysofTrainingRoyLili500_mvl/mxv
 BYTE   W01
 BYTE   VOL   19*FE12DaysofTrainingRoyLili500_mvl/mxv
 BYTE   W01
 BYTE   VOL   18*FE12DaysofTrainingRoyLili500_mvl/mxv
 BYTE   W02
 BYTE   VOL   17*FE12DaysofTrainingRoyLili500_mvl/mxv
 BYTE   W02
 BYTE   VOL   16*FE12DaysofTrainingRoyLili500_mvl/mxv
 BYTE   W01
 BYTE   VOL   15*FE12DaysofTrainingRoyLili500_mvl/mxv
 BYTE   W01
 BYTE   VOL   14*FE12DaysofTrainingRoyLili500_mvl/mxv
 BYTE   W02
 BYTE   VOL   13*FE12DaysofTrainingRoyLili500_mvl/mxv
 BYTE   W01
 BYTE   VOL   12*FE12DaysofTrainingRoyLili500_mvl/mxv
 BYTE   W02
 BYTE   VOL   13*FE12DaysofTrainingRoyLili500_mvl/mxv
 BYTE   W01
 BYTE   VOL   13*FE12DaysofTrainingRoyLili500_mvl/mxv
 BYTE   W01
 BYTE   VOL   14*FE12DaysofTrainingRoyLili500_mvl/mxv
 BYTE   W02
 BYTE   VOL   14*FE12DaysofTrainingRoyLili500_mvl/mxv
 BYTE   W02
 BYTE   VOL   15*FE12DaysofTrainingRoyLili500_mvl/mxv
 BYTE   W01
 BYTE   VOL   16*FE12DaysofTrainingRoyLili500_mvl/mxv
 BYTE   W03
 BYTE   VOL   16*FE12DaysofTrainingRoyLili500_mvl/mxv
 BYTE   W03
 BYTE   VOL   17*FE12DaysofTrainingRoyLili500_mvl/mxv
 BYTE   W03
//  #06 //006   ----------------------------------------
Label_0141322D:
 BYTE   VOL   17*FE12DaysofTrainingRoyLili500_mvl/mxv
 BYTE   W02
 BYTE   VOL   16*FE12DaysofTrainingRoyLili500_mvl/mxv
 BYTE   W01
 BYTE   VOL   15*FE12DaysofTrainingRoyLili500_mvl/mxv
 BYTE   W01
 BYTE   VOL   15*FE12DaysofTrainingRoyLili500_mvl/mxv
 BYTE   W02
 BYTE   VOL   14*FE12DaysofTrainingRoyLili500_mvl/mxv
 BYTE   W02
 BYTE   VOL   14*FE12DaysofTrainingRoyLili500_mvl/mxv
 BYTE   W01
 BYTE   VOL   13*FE12DaysofTrainingRoyLili500_mvl/mxv
 BYTE   W01
 BYTE   VOL   13*FE12DaysofTrainingRoyLili500_mvl/mxv
 BYTE   W02
 BYTE   VOL   12*FE12DaysofTrainingRoyLili500_mvl/mxv
 BYTE   W02
 BYTE   VOL   11*FE12DaysofTrainingRoyLili500_mvl/mxv
 BYTE   W01
 BYTE   VOL   11*FE12DaysofTrainingRoyLili500_mvl/mxv
 BYTE   W02
 BYTE   VOL   10*FE12DaysofTrainingRoyLili500_mvl/mxv
 BYTE   W02
 BYTE   VOL   8*FE12DaysofTrainingRoyLili500_mvl/mxv
 BYTE   W01
 BYTE   VOL   7*FE12DaysofTrainingRoyLili500_mvl/mxv
 BYTE   W01
 BYTE   VOL   6*FE12DaysofTrainingRoyLili500_mvl/mxv
 BYTE   W02
 BYTE   VOL   5*FE12DaysofTrainingRoyLili500_mvl/mxv
 BYTE   W02
 BYTE   VOL   4*FE12DaysofTrainingRoyLili500_mvl/mxv
 BYTE   W01
 BYTE   VOL   3*FE12DaysofTrainingRoyLili500_mvl/mxv
 BYTE   W01
 BYTE   VOL   2*FE12DaysofTrainingRoyLili500_mvl/mxv
 BYTE   W02
 BYTE   VOL   1*FE12DaysofTrainingRoyLili500_mvl/mxv
 BYTE   W02
 BYTE   VOL   1*FE12DaysofTrainingRoyLili500_mvl/mxv
 BYTE   W01
 BYTE   VOL   0*FE12DaysofTrainingRoyLili500_mvl/mxv
 BYTE   W01
 BYTE   VOL   0*FE12DaysofTrainingRoyLili500_mvl/mxv
 BYTE   W02
 BYTE   VOL   0*FE12DaysofTrainingRoyLili500_mvl/mxv
 BYTE   W02
 BYTE   VOL   0*FE12DaysofTrainingRoyLili500_mvl/mxv
 BYTE   W56
 BYTE   W03
 BYTE   PEND 
//  #06 //007   ----------------------------------------
 BYTE   W96
//  #06 //008   ----------------------------------------
 BYTE   W96
//  #06 //009   ----------------------------------------
 BYTE   W72
 BYTE   Cn0
 BYTE   W24
//  #06 //010   ----------------------------------------
 BYTE   W24
 BYTE   N02  Cs5  v116
 BYTE   W03
 BYTE   Dn5
 BYTE   W05
 BYTE   N44  Cs5
 BYTE   W02
 BYTE   VOL   24*FE12DaysofTrainingRoyLili500_mvl/mxv
 BYTE   W02
 BYTE   VOL   23*FE12DaysofTrainingRoyLili500_mvl/mxv
 BYTE   W01
 BYTE   VOL   23*FE12DaysofTrainingRoyLili500_mvl/mxv
 BYTE   W02
 BYTE   VOL   20*FE12DaysofTrainingRoyLili500_mvl/mxv
 BYTE   W01
 BYTE   VOL   18*FE12DaysofTrainingRoyLili500_mvl/mxv
 BYTE   W01
 BYTE   VOL   15*FE12DaysofTrainingRoyLili500_mvl/mxv
 BYTE   W01
 BYTE   VOL   13*FE12DaysofTrainingRoyLili500_mvl/mxv
 BYTE   W01
 BYTE   VOL   11*FE12DaysofTrainingRoyLili500_mvl/mxv
 BYTE   W01
 BYTE   VOL   8*FE12DaysofTrainingRoyLili500_mvl/mxv
 BYTE   W01
 BYTE   VOL   8*FE12DaysofTrainingRoyLili500_mvl/mxv
 BYTE   W01
 BYTE   VOL   10*FE12DaysofTrainingRoyLili500_mvl/mxv
 BYTE   W02
 BYTE   VOL   10*FE12DaysofTrainingRoyLili500_mvl/mxv
 BYTE   W02
 BYTE   VOL   10*FE12DaysofTrainingRoyLili500_mvl/mxv
 BYTE   W01
 BYTE   VOL   11*FE12DaysofTrainingRoyLili500_mvl/mxv
 BYTE   W01
 BYTE   VOL   11*FE12DaysofTrainingRoyLili500_mvl/mxv
 BYTE   W02
 BYTE   VOL   12*FE12DaysofTrainingRoyLili500_mvl/mxv
 BYTE   W02
 BYTE   VOL   13*FE12DaysofTrainingRoyLili500_mvl/mxv
 BYTE   W01
 BYTE   VOL   13*FE12DaysofTrainingRoyLili500_mvl/mxv
 BYTE   W01
 BYTE   VOL   14*FE12DaysofTrainingRoyLili500_mvl/mxv
 BYTE   W02
 BYTE   VOL   15*FE12DaysofTrainingRoyLili500_mvl/mxv
 BYTE   W02
 BYTE   VOL   15*FE12DaysofTrainingRoyLili500_mvl/mxv
 BYTE   W01
 BYTE   VOL   16*FE12DaysofTrainingRoyLili500_mvl/mxv
 BYTE   W01
 BYTE   VOL   17*FE12DaysofTrainingRoyLili500_mvl/mxv
 BYTE   W02
 BYTE   VOL   18*FE12DaysofTrainingRoyLili500_mvl/mxv
 BYTE   W02
 BYTE   VOL   18*FE12DaysofTrainingRoyLili500_mvl/mxv
 BYTE   W01
 BYTE   VOL   19*FE12DaysofTrainingRoyLili500_mvl/mxv
 BYTE   W01
 BYTE   VOL   20*FE12DaysofTrainingRoyLili500_mvl/mxv
 BYTE   W02
 BYTE   VOL   20*FE12DaysofTrainingRoyLili500_mvl/mxv
 BYTE   W02
 BYTE   VOL   21*FE12DaysofTrainingRoyLili500_mvl/mxv
 BYTE   W01
 BYTE   VOL   22*FE12DaysofTrainingRoyLili500_mvl/mxv
 BYTE   W01
 BYTE   VOL   23*FE12DaysofTrainingRoyLili500_mvl/mxv
 BYTE   W04
 BYTE   N06  En5
 BYTE   W01
 BYTE   VOL   22*FE12DaysofTrainingRoyLili500_mvl/mxv
 BYTE   W01
 BYTE   VOL   21*FE12DaysofTrainingRoyLili500_mvl/mxv
 BYTE   W01
 BYTE   VOL   20*FE12DaysofTrainingRoyLili500_mvl/mxv
 BYTE   W01
 BYTE   VOL   19*FE12DaysofTrainingRoyLili500_mvl/mxv
 BYTE   W01
 BYTE   VOL   19*FE12DaysofTrainingRoyLili500_mvl/mxv
 BYTE   W01
 BYTE   VOL   17*FE12DaysofTrainingRoyLili500_mvl/mxv
 BYTE   W01
 BYTE   VOL   15*FE12DaysofTrainingRoyLili500_mvl/mxv
 BYTE   W01
 BYTE   VOL   14*FE12DaysofTrainingRoyLili500_mvl/mxv
 BYTE   W02
 BYTE   VOL   15*FE12DaysofTrainingRoyLili500_mvl/mxv
 BYTE   W02
 BYTE   VOL   16*FE12DaysofTrainingRoyLili500_mvl/mxv
 BYTE   W01
 BYTE   VOL   17*FE12DaysofTrainingRoyLili500_mvl/mxv
 BYTE   W01
 BYTE   VOL   18*FE12DaysofTrainingRoyLili500_mvl/mxv
 BYTE   W02
//  #06 //011   ----------------------------------------
 BYTE   VOL   18*FE12DaysofTrainingRoyLili500_mvl/mxv
 BYTE   W02
 BYTE   VOL   19*FE12DaysofTrainingRoyLili500_mvl/mxv
 BYTE   W01
 BYTE   VOL   20*FE12DaysofTrainingRoyLili500_mvl/mxv
 BYTE   W01
 BYTE   VOL   21*FE12DaysofTrainingRoyLili500_mvl/mxv
 BYTE   W02
 BYTE   VOL   22*FE12DaysofTrainingRoyLili500_mvl/mxv
 BYTE   W01
 BYTE   VOL   23*FE12DaysofTrainingRoyLili500_mvl/mxv
 BYTE   W01
 BYTE   VOL   22*FE12DaysofTrainingRoyLili500_mvl/mxv
 BYTE   N07  Bn4
 BYTE   W02
 BYTE   VOL   20*FE12DaysofTrainingRoyLili500_mvl/mxv
 BYTE   W02
 BYTE   VOL   19*FE12DaysofTrainingRoyLili500_mvl/mxv
 BYTE   W01
 BYTE   VOL   18*FE12DaysofTrainingRoyLili500_mvl/mxv
 BYTE   W02
 BYTE   VOL   17*FE12DaysofTrainingRoyLili500_mvl/mxv
 BYTE   W01
 BYTE   VOL   18*FE12DaysofTrainingRoyLili500_mvl/mxv
 BYTE   W02
 BYTE   VOL   19*FE12DaysofTrainingRoyLili500_mvl/mxv
 BYTE   W02
 BYTE   VOL   20*FE12DaysofTrainingRoyLili500_mvl/mxv
 BYTE   W01
 BYTE   VOL   22*FE12DaysofTrainingRoyLili500_mvl/mxv
 BYTE   W01
 BYTE   VOL   23*FE12DaysofTrainingRoyLili500_mvl/mxv
 BYTE   W02
 BYTE   VOL   23*FE12DaysofTrainingRoyLili500_mvl/mxv
 BYTE   N07  Dn5
 BYTE   W08
 BYTE   Cs5
 BYTE   W02
 BYTE   VOL   23*FE12DaysofTrainingRoyLili500_mvl/mxv
 BYTE   W02
 BYTE   VOL   22*FE12DaysofTrainingRoyLili500_mvl/mxv
 BYTE   W01
 BYTE   VOL   20*FE12DaysofTrainingRoyLili500_mvl/mxv
 BYTE   W01
 BYTE   VOL   20*FE12DaysofTrainingRoyLili500_mvl/mxv
 BYTE   W01
 BYTE   VOL   18*FE12DaysofTrainingRoyLili500_mvl/mxv
 BYTE   N04  Bn4
 BYTE   W01
 BYTE   VOL   16*FE12DaysofTrainingRoyLili500_mvl/mxv
 BYTE   W02
 BYTE   VOL   17*FE12DaysofTrainingRoyLili500_mvl/mxv
 BYTE   W02
 BYTE   VOL   17*FE12DaysofTrainingRoyLili500_mvl/mxv
 BYTE   W01
 BYTE   VOL   18*FE12DaysofTrainingRoyLili500_mvl/mxv
 BYTE   W01
 BYTE   VOL   19*FE12DaysofTrainingRoyLili500_mvl/mxv
 BYTE   W02
 BYTE   VOL   19*FE12DaysofTrainingRoyLili500_mvl/mxv
 BYTE   N03  Cs5
 BYTE   W02
 BYTE   VOL   20*FE12DaysofTrainingRoyLili500_mvl/mxv
 BYTE   W01
 BYTE   VOL   20*FE12DaysofTrainingRoyLili500_mvl/mxv
 BYTE   W01
 BYTE   VOL   21*FE12DaysofTrainingRoyLili500_mvl/mxv
 BYTE   W02
 BYTE   VOL   22*FE12DaysofTrainingRoyLili500_mvl/mxv
 BYTE   W02
 BYTE   VOL   23*FE12DaysofTrainingRoyLili500_mvl/mxv
 BYTE   N44  Fs4
 BYTE   W01
 BYTE   VOL   22*FE12DaysofTrainingRoyLili500_mvl/mxv
 BYTE   W02
 BYTE   VOL   21*FE12DaysofTrainingRoyLili500_mvl/mxv
 BYTE   W01
 BYTE   VOL   20*FE12DaysofTrainingRoyLili500_mvl/mxv
 BYTE   W01
 BYTE   VOL   19*FE12DaysofTrainingRoyLili500_mvl/mxv
 BYTE   W01
 BYTE   VOL   16*FE12DaysofTrainingRoyLili500_mvl/mxv
 BYTE   W01
 BYTE   VOL   14*FE12DaysofTrainingRoyLili500_mvl/mxv
 BYTE   W01
 BYTE   VOL   13*FE12DaysofTrainingRoyLili500_mvl/mxv
 BYTE   W01
 BYTE   VOL   11*FE12DaysofTrainingRoyLili500_mvl/mxv
 BYTE   W01
 BYTE   VOL   10*FE12DaysofTrainingRoyLili500_mvl/mxv
 BYTE   W01
 BYTE   VOL   10*FE12DaysofTrainingRoyLili500_mvl/mxv
 BYTE   W01
 BYTE   VOL   8*FE12DaysofTrainingRoyLili500_mvl/mxv
 BYTE   W01
 BYTE   VOL   8*FE12DaysofTrainingRoyLili500_mvl/mxv
 BYTE   W01
 BYTE   VOL   10*FE12DaysofTrainingRoyLili500_mvl/mxv
 BYTE   W02
 BYTE   VOL   10*FE12DaysofTrainingRoyLili500_mvl/mxv
 BYTE   W02
 BYTE   VOL   10*FE12DaysofTrainingRoyLili500_mvl/mxv
 BYTE   W01
 BYTE   VOL   11*FE12DaysofTrainingRoyLili500_mvl/mxv
 BYTE   W01
 BYTE   VOL   11*FE12DaysofTrainingRoyLili500_mvl/mxv
 BYTE   W02
 BYTE   VOL   12*FE12DaysofTrainingRoyLili500_mvl/mxv
 BYTE   W02
 BYTE   VOL   13*FE12DaysofTrainingRoyLili500_mvl/mxv
 BYTE   W01
 BYTE   VOL   13*FE12DaysofTrainingRoyLili500_mvl/mxv
 BYTE   W01
 BYTE   VOL   14*FE12DaysofTrainingRoyLili500_mvl/mxv
 BYTE   W02
 BYTE   VOL   15*FE12DaysofTrainingRoyLili500_mvl/mxv
 BYTE   W02
 BYTE   VOL   15*FE12DaysofTrainingRoyLili500_mvl/mxv
 BYTE   W01
 BYTE   VOL   16*FE12DaysofTrainingRoyLili500_mvl/mxv
 BYTE   W01
 BYTE   VOL   17*FE12DaysofTrainingRoyLili500_mvl/mxv
 BYTE   W02
 BYTE   VOL   18*FE12DaysofTrainingRoyLili500_mvl/mxv
 BYTE   W02
 BYTE   VOL   18*FE12DaysofTrainingRoyLili500_mvl/mxv
 BYTE   W01
 BYTE   VOL   19*FE12DaysofTrainingRoyLili500_mvl/mxv
 BYTE   W01
 BYTE   VOL   20*FE12DaysofTrainingRoyLili500_mvl/mxv
 BYTE   W02
//  #06 //012   ----------------------------------------
 BYTE   VOL   20*FE12DaysofTrainingRoyLili500_mvl/mxv
 BYTE   W02
 BYTE   VOL   21*FE12DaysofTrainingRoyLili500_mvl/mxv
 BYTE   W01
 BYTE   VOL   22*FE12DaysofTrainingRoyLili500_mvl/mxv
 BYTE   W01
 BYTE   VOL   23*FE12DaysofTrainingRoyLili500_mvl/mxv
 BYTE   W02
 BYTE   VOL   23*FE12DaysofTrainingRoyLili500_mvl/mxv
 BYTE   W02
 BYTE   N14  Gs4
 BYTE   W01
 BYTE   VOL   23*FE12DaysofTrainingRoyLili500_mvl/mxv
 BYTE   W01
 BYTE   VOL   22*FE12DaysofTrainingRoyLili500_mvl/mxv
 BYTE   W01
 BYTE   VOL   20*FE12DaysofTrainingRoyLili500_mvl/mxv
 BYTE   W01
 BYTE   VOL   19*FE12DaysofTrainingRoyLili500_mvl/mxv
 BYTE   W01
 BYTE   VOL   17*FE12DaysofTrainingRoyLili500_mvl/mxv
 BYTE   W01
 BYTE   VOL   15*FE12DaysofTrainingRoyLili500_mvl/mxv
 BYTE   W01
 BYTE   VOL   15*FE12DaysofTrainingRoyLili500_mvl/mxv
 BYTE   W01
 BYTE   VOL   16*FE12DaysofTrainingRoyLili500_mvl/mxv
 BYTE   W02
 BYTE   VOL   18*FE12DaysofTrainingRoyLili500_mvl/mxv
 BYTE   W01
 BYTE   VOL   19*FE12DaysofTrainingRoyLili500_mvl/mxv
 BYTE   W01
 BYTE   VOL   20*FE12DaysofTrainingRoyLili500_mvl/mxv
 BYTE   W02
 BYTE   VOL   23*FE12DaysofTrainingRoyLili500_mvl/mxv
 BYTE   W02
 BYTE   N02
 BYTE   W02
 BYTE   An4
 BYTE   W06
 BYTE   N06  Bn4
 BYTE   W01
 BYTE   VOL   23*FE12DaysofTrainingRoyLili500_mvl/mxv
 BYTE   W01
 BYTE   VOL   22*FE12DaysofTrainingRoyLili500_mvl/mxv
 BYTE   W02
 BYTE   VOL   20*FE12DaysofTrainingRoyLili500_mvl/mxv
 BYTE   W01
 BYTE   VOL   19*FE12DaysofTrainingRoyLili500_mvl/mxv
 BYTE   W01
 BYTE   VOL   18*FE12DaysofTrainingRoyLili500_mvl/mxv
 BYTE   W01
 BYTE   VOL   18*FE12DaysofTrainingRoyLili500_mvl/mxv
 BYTE   N04  An4
 BYTE   W01
 BYTE   VOL   18*FE12DaysofTrainingRoyLili500_mvl/mxv
 BYTE   W02
 BYTE   VOL   18*FE12DaysofTrainingRoyLili500_mvl/mxv
 BYTE   W02
 BYTE   VOL   19*FE12DaysofTrainingRoyLili500_mvl/mxv
 BYTE   W01
 BYTE   VOL   19*FE12DaysofTrainingRoyLili500_mvl/mxv
 BYTE   W01
 BYTE   VOL   20*FE12DaysofTrainingRoyLili500_mvl/mxv
 BYTE   W02
 BYTE   VOL   20*FE12DaysofTrainingRoyLili500_mvl/mxv
 BYTE   N03  Bn4
 BYTE   W02
 BYTE   VOL   21*FE12DaysofTrainingRoyLili500_mvl/mxv
 BYTE   W01
 BYTE   VOL   22*FE12DaysofTrainingRoyLili500_mvl/mxv
 BYTE   W01
 BYTE   VOL   22*FE12DaysofTrainingRoyLili500_mvl/mxv
 BYTE   W02
 BYTE   VOL   22*FE12DaysofTrainingRoyLili500_mvl/mxv
 BYTE   W02
 BYTE   VOL   23*FE12DaysofTrainingRoyLili500_mvl/mxv
 BYTE   N44  En4
 BYTE   W01
 BYTE   VOL   23*FE12DaysofTrainingRoyLili500_mvl/mxv
 BYTE   W01
 BYTE   VOL   23*FE12DaysofTrainingRoyLili500_mvl/mxv
 BYTE   W02
 BYTE   VOL   22*FE12DaysofTrainingRoyLili500_mvl/mxv
 BYTE   W01
 BYTE   VOL   19*FE12DaysofTrainingRoyLili500_mvl/mxv
 BYTE   W01
 BYTE   VOL   14*FE12DaysofTrainingRoyLili500_mvl/mxv
 BYTE   W01
 BYTE   VOL   12*FE12DaysofTrainingRoyLili500_mvl/mxv
 BYTE   W01
 BYTE   VOL   9*FE12DaysofTrainingRoyLili500_mvl/mxv
 BYTE   W02
 BYTE   VOL   10*FE12DaysofTrainingRoyLili500_mvl/mxv
 BYTE   W02
 BYTE   VOL   10*FE12DaysofTrainingRoyLili500_mvl/mxv
 BYTE   W01
 BYTE   VOL   10*FE12DaysofTrainingRoyLili500_mvl/mxv
 BYTE   W01
 BYTE   VOL   11*FE12DaysofTrainingRoyLili500_mvl/mxv
 BYTE   W02
 BYTE   VOL   11*FE12DaysofTrainingRoyLili500_mvl/mxv
 BYTE   W02
 BYTE   VOL   11*FE12DaysofTrainingRoyLili500_mvl/mxv
 BYTE   W01
 BYTE   VOL   12*FE12DaysofTrainingRoyLili500_mvl/mxv
 BYTE   W01
 BYTE   VOL   13*FE12DaysofTrainingRoyLili500_mvl/mxv
 BYTE   W02
 BYTE   VOL   13*FE12DaysofTrainingRoyLili500_mvl/mxv
 BYTE   W02
 BYTE   VOL   14*FE12DaysofTrainingRoyLili500_mvl/mxv
 BYTE   W01
 BYTE   VOL   14*FE12DaysofTrainingRoyLili500_mvl/mxv
 BYTE   W01
 BYTE   VOL   15*FE12DaysofTrainingRoyLili500_mvl/mxv
 BYTE   W02
 BYTE   VOL   16*FE12DaysofTrainingRoyLili500_mvl/mxv
 BYTE   W02
 BYTE   VOL   17*FE12DaysofTrainingRoyLili500_mvl/mxv
 BYTE   W01
 BYTE   VOL   17*FE12DaysofTrainingRoyLili500_mvl/mxv
 BYTE   W01
 BYTE   VOL   18*FE12DaysofTrainingRoyLili500_mvl/mxv
 BYTE   W02
 BYTE   VOL   18*FE12DaysofTrainingRoyLili500_mvl/mxv
 BYTE   W02
 BYTE   VOL   19*FE12DaysofTrainingRoyLili500_mvl/mxv
 BYTE   W01
 BYTE   VOL   19*FE12DaysofTrainingRoyLili500_mvl/mxv
 BYTE   W01
 BYTE   VOL   20*FE12DaysofTrainingRoyLili500_mvl/mxv
 BYTE   W02
//  #06 //013   ----------------------------------------
 BYTE   VOL   20*FE12DaysofTrainingRoyLili500_mvl/mxv
 BYTE   W02
 BYTE   VOL   21*FE12DaysofTrainingRoyLili500_mvl/mxv
 BYTE   W01
 BYTE   VOL   22*FE12DaysofTrainingRoyLili500_mvl/mxv
 BYTE   W01
 BYTE   VOL   23*FE12DaysofTrainingRoyLili500_mvl/mxv
 BYTE   W02
 BYTE   VOL   23*FE12DaysofTrainingRoyLili500_mvl/mxv
 BYTE   W02
 BYTE   N06  Fs4
 BYTE   W07
 BYTE   N04  Gs4
 BYTE   W09
 BYTE   N03  An4
 BYTE   W08
 BYTE   N06  Gs4
 BYTE   W07
 BYTE   N04  An4
 BYTE   W09
 BYTE   N03  Bn4
 BYTE   W08
 BYTE   VOL   23*FE12DaysofTrainingRoyLili500_mvl/mxv
 BYTE   N72  En4
 BYTE   W03
 BYTE   VOL   23*FE12DaysofTrainingRoyLili500_mvl/mxv
 BYTE   W03
 BYTE   VOL   23*FE12DaysofTrainingRoyLili500_mvl/mxv
 BYTE   W01
 BYTE   VOL   22*FE12DaysofTrainingRoyLili500_mvl/mxv
 BYTE   W02
 BYTE   VOL   20*FE12DaysofTrainingRoyLili500_mvl/mxv
 BYTE   W02
 BYTE   VOL   20*FE12DaysofTrainingRoyLili500_mvl/mxv
 BYTE   W01
 BYTE   VOL   19*FE12DaysofTrainingRoyLili500_mvl/mxv
 BYTE   W01
 BYTE   VOL   18*FE12DaysofTrainingRoyLili500_mvl/mxv
 BYTE   W02
 BYTE   VOL   17*FE12DaysofTrainingRoyLili500_mvl/mxv
 BYTE   W02
 BYTE   VOL   16*FE12DaysofTrainingRoyLili500_mvl/mxv
 BYTE   W01
 BYTE   VOL   15*FE12DaysofTrainingRoyLili500_mvl/mxv
 BYTE   W01
 BYTE   VOL   14*FE12DaysofTrainingRoyLili500_mvl/mxv
 BYTE   W02
 BYTE   VOL   13*FE12DaysofTrainingRoyLili500_mvl/mxv
 BYTE   W01
 BYTE   VOL   12*FE12DaysofTrainingRoyLili500_mvl/mxv
 BYTE   W02
 BYTE   VOL   13*FE12DaysofTrainingRoyLili500_mvl/mxv
 BYTE   W01
 BYTE   VOL   13*FE12DaysofTrainingRoyLili500_mvl/mxv
 BYTE   W01
 BYTE   VOL   14*FE12DaysofTrainingRoyLili500_mvl/mxv
 BYTE   W02
 BYTE   VOL   14*FE12DaysofTrainingRoyLili500_mvl/mxv
 BYTE   W02
 BYTE   VOL   15*FE12DaysofTrainingRoyLili500_mvl/mxv
 BYTE   W01
 BYTE   VOL   16*FE12DaysofTrainingRoyLili500_mvl/mxv
 BYTE   W03
 BYTE   VOL   16*FE12DaysofTrainingRoyLili500_mvl/mxv
 BYTE   W03
 BYTE   VOL   17*FE12DaysofTrainingRoyLili500_mvl/mxv
 BYTE   W03
//  #06 //014   ----------------------------------------
 BYTE   PATT
  POIN2 Label_0141322D
//  #06 //015   ----------------------------------------
 BYTE   W96
//  #06 //016   ----------------------------------------
 BYTE   W96
//  #06 //017   ----------------------------------------
 BYTE   W96
//  #06 //018   ----------------------------------------
 BYTE   W96
//  #06 //019   ----------------------------------------
 BYTE   W96
//  #06 //020   ----------------------------------------
 BYTE   W24
 BYTE   GoTo
  POIN2 Label_01413077
 BYTE   FINE

//**************** Track 7 (Midi-Chn.6) ****************//

FE12DaysofTrainingRoyLili500_007:
//  #07 //000   ----------------------------------------
 BYTE   KEYSH   FE12DaysofTrainingRoyLili500_key+0
 BYTE   VOICE   49
 BYTE   MODT 0
 BYTE   LFOS 44
 BYTE   VOL   21*FE12DaysofTrainingRoyLili500_mvl/mxv
 BYTE   PAN   c_v-47
 BYTE   BEND   c_v+0
 BYTE   W24
Label_014144CB:
 BYTE   VOL   21*FE12DaysofTrainingRoyLili500_mvl/mxv
 BYTE   W72
//  #07 //001   ----------------------------------------
 BYTE   W64
 BYTE   VOL   21*FE12DaysofTrainingRoyLili500_mvl/mxv
 BYTE   W32
//  #07 //002   ----------------------------------------
 BYTE   W36
 BYTE   W03
 BYTE   N02  Cs4  v116
 BYTE   W04
 BYTE   Dn4
 BYTE   W05
 BYTE   VOL   21*FE12DaysofTrainingRoyLili500_mvl/mxv
 BYTE   N22  Cs4
 BYTE   W02
 BYTE   VOL   20*FE12DaysofTrainingRoyLili500_mvl/mxv
 BYTE   W01
 BYTE   VOL   20*FE12DaysofTrainingRoyLili500_mvl/mxv
 BYTE   W01
 BYTE   VOL   19*FE12DaysofTrainingRoyLili500_mvl/mxv
 BYTE   W01
 BYTE   VOL   18*FE12DaysofTrainingRoyLili500_mvl/mxv
 BYTE   W01
 BYTE   VOL   17*FE12DaysofTrainingRoyLili500_mvl/mxv
 BYTE   W01
 BYTE   VOL   13*FE12DaysofTrainingRoyLili500_mvl/mxv
 BYTE   W01
 BYTE   VOL   11*FE12DaysofTrainingRoyLili500_mvl/mxv
 BYTE   W02
 BYTE   VOL   11*FE12DaysofTrainingRoyLili500_mvl/mxv
 BYTE   W02
 BYTE   VOL   13*FE12DaysofTrainingRoyLili500_mvl/mxv
 BYTE   W01
 BYTE   VOL   14*FE12DaysofTrainingRoyLili500_mvl/mxv
 BYTE   W02
 BYTE   VOL   15*FE12DaysofTrainingRoyLili500_mvl/mxv
 BYTE   W01
 BYTE   VOL   16*FE12DaysofTrainingRoyLili500_mvl/mxv
 BYTE   W02
 BYTE   VOL   17*FE12DaysofTrainingRoyLili500_mvl/mxv
 BYTE   W01
 BYTE   VOL   18*FE12DaysofTrainingRoyLili500_mvl/mxv
 BYTE   W01
 BYTE   VOL   20*FE12DaysofTrainingRoyLili500_mvl/mxv
 BYTE   W04
 BYTE   N07  En4
 BYTE   W01
 BYTE   VOL   20*FE12DaysofTrainingRoyLili500_mvl/mxv
 BYTE   W01
 BYTE   VOL   19*FE12DaysofTrainingRoyLili500_mvl/mxv
 BYTE   W01
 BYTE   VOL   18*FE12DaysofTrainingRoyLili500_mvl/mxv
 BYTE   W01
 BYTE   VOL   16*FE12DaysofTrainingRoyLili500_mvl/mxv
 BYTE   W02
 BYTE   VOL   15*FE12DaysofTrainingRoyLili500_mvl/mxv
 BYTE   W01
 BYTE   VOL   14*FE12DaysofTrainingRoyLili500_mvl/mxv
 BYTE   W01
 BYTE   VOL   13*FE12DaysofTrainingRoyLili500_mvl/mxv
 BYTE   W01
 BYTE   VOL   12*FE12DaysofTrainingRoyLili500_mvl/mxv
 BYTE   W01
 BYTE   VOL   13*FE12DaysofTrainingRoyLili500_mvl/mxv
 BYTE   W02
 BYTE   VOL   14*FE12DaysofTrainingRoyLili500_mvl/mxv
 BYTE   W01
 BYTE   VOL   14*FE12DaysofTrainingRoyLili500_mvl/mxv
 BYTE   W01
 BYTE   VOL   15*FE12DaysofTrainingRoyLili500_mvl/mxv
 BYTE   W02
 BYTE   VOL   16*FE12DaysofTrainingRoyLili500_mvl/mxv
 BYTE   W02
 BYTE   VOL   17*FE12DaysofTrainingRoyLili500_mvl/mxv
 BYTE   W01
 BYTE   VOL   18*FE12DaysofTrainingRoyLili500_mvl/mxv
 BYTE   W02
 BYTE   VOL   18*FE12DaysofTrainingRoyLili500_mvl/mxv
 BYTE   W01
 BYTE   VOL   19*FE12DaysofTrainingRoyLili500_mvl/mxv
 BYTE   W01
 BYTE   VOL   20*FE12DaysofTrainingRoyLili500_mvl/mxv
 BYTE   W01
//  #07 //003   ----------------------------------------
 BYTE   N07  Bn3
 BYTE   W01
 BYTE   VOL   19*FE12DaysofTrainingRoyLili500_mvl/mxv
 BYTE   W01
 BYTE   VOL   18*FE12DaysofTrainingRoyLili500_mvl/mxv
 BYTE   W01
 BYTE   VOL   17*FE12DaysofTrainingRoyLili500_mvl/mxv
 BYTE   W02
 BYTE   VOL   16*FE12DaysofTrainingRoyLili500_mvl/mxv
 BYTE   W02
 BYTE   VOL   14*FE12DaysofTrainingRoyLili500_mvl/mxv
 BYTE   W02
 BYTE   VOL   15*FE12DaysofTrainingRoyLili500_mvl/mxv
 BYTE   W01
 BYTE   VOL   17*FE12DaysofTrainingRoyLili500_mvl/mxv
 BYTE   W02
 BYTE   VOL   18*FE12DaysofTrainingRoyLili500_mvl/mxv
 BYTE   W01
 BYTE   VOL   19*FE12DaysofTrainingRoyLili500_mvl/mxv
 BYTE   W01
 BYTE   VOL   20*FE12DaysofTrainingRoyLili500_mvl/mxv
 BYTE   W01
 BYTE   VOL   20*FE12DaysofTrainingRoyLili500_mvl/mxv
 BYTE   N07  Dn4
 BYTE   W09
 BYTE   Cs4
 BYTE   W03
 BYTE   VOL   20*FE12DaysofTrainingRoyLili500_mvl/mxv
 BYTE   W01
 BYTE   VOL   19*FE12DaysofTrainingRoyLili500_mvl/mxv
 BYTE   W01
 BYTE   VOL   18*FE12DaysofTrainingRoyLili500_mvl/mxv
 BYTE   W01
 BYTE   VOL   17*FE12DaysofTrainingRoyLili500_mvl/mxv
 BYTE   W01
 BYTE   VOL   15*FE12DaysofTrainingRoyLili500_mvl/mxv
 BYTE   W01
 BYTE   VOL   14*FE12DaysofTrainingRoyLili500_mvl/mxv
 BYTE   N03  Bn3
 BYTE   W02
 BYTE   VOL   14*FE12DaysofTrainingRoyLili500_mvl/mxv
 BYTE   W02
 BYTE   VOL   15*FE12DaysofTrainingRoyLili500_mvl/mxv
 BYTE   W01
 BYTE   VOL   15*FE12DaysofTrainingRoyLili500_mvl/mxv
 BYTE   W02
 BYTE   VOL   16*FE12DaysofTrainingRoyLili500_mvl/mxv
 BYTE   N04  Cs4
 BYTE   W01
 BYTE   VOL   17*FE12DaysofTrainingRoyLili500_mvl/mxv
 BYTE   W02
 BYTE   VOL   17*FE12DaysofTrainingRoyLili500_mvl/mxv
 BYTE   W01
 BYTE   VOL   18*FE12DaysofTrainingRoyLili500_mvl/mxv
 BYTE   W01
 BYTE   VOL   18*FE12DaysofTrainingRoyLili500_mvl/mxv
 BYTE   W02
 BYTE   VOL   19*FE12DaysofTrainingRoyLili500_mvl/mxv
 BYTE   W02
 BYTE   VOL   20*FE12DaysofTrainingRoyLili500_mvl/mxv
 BYTE   N44  Fs3
 BYTE   W02
 BYTE   VOL   19*FE12DaysofTrainingRoyLili500_mvl/mxv
 BYTE   W01
 BYTE   VOL   18*FE12DaysofTrainingRoyLili500_mvl/mxv
 BYTE   W01
 BYTE   VOL   16*FE12DaysofTrainingRoyLili500_mvl/mxv
 BYTE   W02
 BYTE   VOL   14*FE12DaysofTrainingRoyLili500_mvl/mxv
 BYTE   W01
 BYTE   VOL   13*FE12DaysofTrainingRoyLili500_mvl/mxv
 BYTE   W01
 BYTE   VOL   11*FE12DaysofTrainingRoyLili500_mvl/mxv
 BYTE   W01
 BYTE   VOL   10*FE12DaysofTrainingRoyLili500_mvl/mxv
 BYTE   W01
 BYTE   VOL   8*FE12DaysofTrainingRoyLili500_mvl/mxv
 BYTE   W02
 BYTE   VOL   7*FE12DaysofTrainingRoyLili500_mvl/mxv
 BYTE   W01
 BYTE   VOL   7*FE12DaysofTrainingRoyLili500_mvl/mxv
 BYTE   W02
 BYTE   VOL   8*FE12DaysofTrainingRoyLili500_mvl/mxv
 BYTE   W01
 BYTE   VOL   8*FE12DaysofTrainingRoyLili500_mvl/mxv
 BYTE   W02
 BYTE   VOL   9*FE12DaysofTrainingRoyLili500_mvl/mxv
 BYTE   W01
 BYTE   VOL   10*FE12DaysofTrainingRoyLili500_mvl/mxv
 BYTE   W02
 BYTE   VOL   10*FE12DaysofTrainingRoyLili500_mvl/mxv
 BYTE   W01
 BYTE   VOL   10*FE12DaysofTrainingRoyLili500_mvl/mxv
 BYTE   W02
 BYTE   VOL   11*FE12DaysofTrainingRoyLili500_mvl/mxv
 BYTE   W01
 BYTE   VOL   11*FE12DaysofTrainingRoyLili500_mvl/mxv
 BYTE   W01
 BYTE   VOL   12*FE12DaysofTrainingRoyLili500_mvl/mxv
 BYTE   W02
 BYTE   VOL   13*FE12DaysofTrainingRoyLili500_mvl/mxv
 BYTE   W02
 BYTE   VOL   13*FE12DaysofTrainingRoyLili500_mvl/mxv
 BYTE   W01
 BYTE   VOL   14*FE12DaysofTrainingRoyLili500_mvl/mxv
 BYTE   W02
 BYTE   VOL   15*FE12DaysofTrainingRoyLili500_mvl/mxv
 BYTE   W01
 BYTE   VOL   15*FE12DaysofTrainingRoyLili500_mvl/mxv
 BYTE   W02
 BYTE   VOL   16*FE12DaysofTrainingRoyLili500_mvl/mxv
 BYTE   W01
 BYTE   VOL   17*FE12DaysofTrainingRoyLili500_mvl/mxv
 BYTE   W01
 BYTE   VOL   17*FE12DaysofTrainingRoyLili500_mvl/mxv
 BYTE   W02
 BYTE   VOL   18*FE12DaysofTrainingRoyLili500_mvl/mxv
 BYTE   W02
 BYTE   VOL   18*FE12DaysofTrainingRoyLili500_mvl/mxv
 BYTE   W01
 BYTE   VOL   19*FE12DaysofTrainingRoyLili500_mvl/mxv
 BYTE   W02
 BYTE   VOL   20*FE12DaysofTrainingRoyLili500_mvl/mxv
 BYTE   W03
//  #07 //004   ----------------------------------------
 BYTE   N15  Gs3
 BYTE   W02
 BYTE   VOL   19*FE12DaysofTrainingRoyLili500_mvl/mxv
 BYTE   W01
 BYTE   VOL   17*FE12DaysofTrainingRoyLili500_mvl/mxv
 BYTE   W01
 BYTE   VOL   15*FE12DaysofTrainingRoyLili500_mvl/mxv
 BYTE   W01
 BYTE   VOL   14*FE12DaysofTrainingRoyLili500_mvl/mxv
 BYTE   W01
 BYTE   VOL   13*FE12DaysofTrainingRoyLili500_mvl/mxv
 BYTE   W01
 BYTE   VOL   13*FE12DaysofTrainingRoyLili500_mvl/mxv
 BYTE   W01
 BYTE   VOL   14*FE12DaysofTrainingRoyLili500_mvl/mxv
 BYTE   W01
 BYTE   VOL   15*FE12DaysofTrainingRoyLili500_mvl/mxv
 BYTE   W02
 BYTE   VOL   17*FE12DaysofTrainingRoyLili500_mvl/mxv
 BYTE   W02
 BYTE   VOL   18*FE12DaysofTrainingRoyLili500_mvl/mxv
 BYTE   W01
 BYTE   VOL   19*FE12DaysofTrainingRoyLili500_mvl/mxv
 BYTE   W01
 BYTE   VOL   20*FE12DaysofTrainingRoyLili500_mvl/mxv
 BYTE   N02
 BYTE   W03
 BYTE   An3
 BYTE   W06
 BYTE   N07  Bn3
 BYTE   W01
 BYTE   VOL   20*FE12DaysofTrainingRoyLili500_mvl/mxv
 BYTE   W01
 BYTE   VOL   19*FE12DaysofTrainingRoyLili500_mvl/mxv
 BYTE   W01
 BYTE   VOL   18*FE12DaysofTrainingRoyLili500_mvl/mxv
 BYTE   W02
 BYTE   VOL   17*FE12DaysofTrainingRoyLili500_mvl/mxv
 BYTE   W02
 BYTE   VOL   15*FE12DaysofTrainingRoyLili500_mvl/mxv
 BYTE   W01
 BYTE   VOL   15*FE12DaysofTrainingRoyLili500_mvl/mxv
 BYTE   N03  An3
 BYTE   W02
 BYTE   VOL   16*FE12DaysofTrainingRoyLili500_mvl/mxv
 BYTE   W02
 BYTE   VOL   17*FE12DaysofTrainingRoyLili500_mvl/mxv
 BYTE   W01
 BYTE   VOL   17*FE12DaysofTrainingRoyLili500_mvl/mxv
 BYTE   W02
 BYTE   VOL   17*FE12DaysofTrainingRoyLili500_mvl/mxv
 BYTE   N04  Bn3
 BYTE   W01
 BYTE   VOL   18*FE12DaysofTrainingRoyLili500_mvl/mxv
 BYTE   W02
 BYTE   VOL   18*FE12DaysofTrainingRoyLili500_mvl/mxv
 BYTE   W01
 BYTE   VOL   19*FE12DaysofTrainingRoyLili500_mvl/mxv
 BYTE   W01
 BYTE   VOL   19*FE12DaysofTrainingRoyLili500_mvl/mxv
 BYTE   W02
 BYTE   VOL   19*FE12DaysofTrainingRoyLili500_mvl/mxv
 BYTE   W02
 BYTE   VOL   20*FE12DaysofTrainingRoyLili500_mvl/mxv
 BYTE   N44  En3
 BYTE   W01
 BYTE   VOL   20*FE12DaysofTrainingRoyLili500_mvl/mxv
 BYTE   W01
 BYTE   VOL   20*FE12DaysofTrainingRoyLili500_mvl/mxv
 BYTE   W02
 BYTE   VOL   19*FE12DaysofTrainingRoyLili500_mvl/mxv
 BYTE   W01
 BYTE   VOL   17*FE12DaysofTrainingRoyLili500_mvl/mxv
 BYTE   W01
 BYTE   VOL   15*FE12DaysofTrainingRoyLili500_mvl/mxv
 BYTE   W01
 BYTE   VOL   10*FE12DaysofTrainingRoyLili500_mvl/mxv
 BYTE   W01
 BYTE   VOL   9*FE12DaysofTrainingRoyLili500_mvl/mxv
 BYTE   W01
 BYTE   VOL   8*FE12DaysofTrainingRoyLili500_mvl/mxv
 BYTE   W01
 BYTE   VOL   8*FE12DaysofTrainingRoyLili500_mvl/mxv
 BYTE   W02
 BYTE   VOL   8*FE12DaysofTrainingRoyLili500_mvl/mxv
 BYTE   W01
 BYTE   VOL   9*FE12DaysofTrainingRoyLili500_mvl/mxv
 BYTE   W01
 BYTE   VOL   10*FE12DaysofTrainingRoyLili500_mvl/mxv
 BYTE   W02
 BYTE   VOL   10*FE12DaysofTrainingRoyLili500_mvl/mxv
 BYTE   W02
 BYTE   VOL   10*FE12DaysofTrainingRoyLili500_mvl/mxv
 BYTE   W01
 BYTE   VOL   11*FE12DaysofTrainingRoyLili500_mvl/mxv
 BYTE   W02
 BYTE   VOL   11*FE12DaysofTrainingRoyLili500_mvl/mxv
 BYTE   W01
 BYTE   VOL   11*FE12DaysofTrainingRoyLili500_mvl/mxv
 BYTE   W02
 BYTE   VOL   12*FE12DaysofTrainingRoyLili500_mvl/mxv
 BYTE   W01
 BYTE   VOL   12*FE12DaysofTrainingRoyLili500_mvl/mxv
 BYTE   W01
 BYTE   VOL   13*FE12DaysofTrainingRoyLili500_mvl/mxv
 BYTE   W02
 BYTE   VOL   14*FE12DaysofTrainingRoyLili500_mvl/mxv
 BYTE   W02
 BYTE   VOL   14*FE12DaysofTrainingRoyLili500_mvl/mxv
 BYTE   W01
 BYTE   VOL   15*FE12DaysofTrainingRoyLili500_mvl/mxv
 BYTE   W02
 BYTE   VOL   15*FE12DaysofTrainingRoyLili500_mvl/mxv
 BYTE   W01
 BYTE   VOL   16*FE12DaysofTrainingRoyLili500_mvl/mxv
 BYTE   W02
 BYTE   VOL   17*FE12DaysofTrainingRoyLili500_mvl/mxv
 BYTE   W01
 BYTE   VOL   17*FE12DaysofTrainingRoyLili500_mvl/mxv
 BYTE   W01
 BYTE   VOL   18*FE12DaysofTrainingRoyLili500_mvl/mxv
 BYTE   W02
 BYTE   VOL   18*FE12DaysofTrainingRoyLili500_mvl/mxv
 BYTE   W02
 BYTE   VOL   18*FE12DaysofTrainingRoyLili500_mvl/mxv
 BYTE   W01
 BYTE   VOL   19*FE12DaysofTrainingRoyLili500_mvl/mxv
 BYTE   W01
 BYTE   VOL   20*FE12DaysofTrainingRoyLili500_mvl/mxv
 BYTE   W01
 BYTE   VOL   20*FE12DaysofTrainingRoyLili500_mvl/mxv
 BYTE   W03
//  #07 //005   ----------------------------------------
 BYTE   N07  Fs3
 BYTE   W08
 BYTE   N03  Gs3
 BYTE   W07
 BYTE   N04  An3
 BYTE   W09
 BYTE   N07  Gs3
 BYTE   W08
 BYTE   N03  An3
 BYTE   W07
 BYTE   N04  Bn3
 BYTE   W09
 BYTE   VOL   20*FE12DaysofTrainingRoyLili500_mvl/mxv
 BYTE   N72  En3
 BYTE   W03
 BYTE   VOL   20*FE12DaysofTrainingRoyLili500_mvl/mxv
 BYTE   W03
 BYTE   VOL   20*FE12DaysofTrainingRoyLili500_mvl/mxv
 BYTE   W02
 BYTE   VOL   19*FE12DaysofTrainingRoyLili500_mvl/mxv
 BYTE   W01
 BYTE   VOL   18*FE12DaysofTrainingRoyLili500_mvl/mxv
 BYTE   W01
 BYTE   VOL   17*FE12DaysofTrainingRoyLili500_mvl/mxv
 BYTE   W02
 BYTE   VOL   16*FE12DaysofTrainingRoyLili500_mvl/mxv
 BYTE   W02
 BYTE   VOL   15*FE12DaysofTrainingRoyLili500_mvl/mxv
 BYTE   W01
 BYTE   VOL   14*FE12DaysofTrainingRoyLili500_mvl/mxv
 BYTE   W01
 BYTE   VOL   14*FE12DaysofTrainingRoyLili500_mvl/mxv
 BYTE   W02
 BYTE   VOL   13*FE12DaysofTrainingRoyLili500_mvl/mxv
 BYTE   W02
 BYTE   VOL   12*FE12DaysofTrainingRoyLili500_mvl/mxv
 BYTE   W01
 BYTE   VOL   11*FE12DaysofTrainingRoyLili500_mvl/mxv
 BYTE   W01
 BYTE   VOL   10*FE12DaysofTrainingRoyLili500_mvl/mxv
 BYTE   W02
 BYTE   VOL   11*FE12DaysofTrainingRoyLili500_mvl/mxv
 BYTE   W01
 BYTE   VOL   11*FE12DaysofTrainingRoyLili500_mvl/mxv
 BYTE   W01
 BYTE   VOL   12*FE12DaysofTrainingRoyLili500_mvl/mxv
 BYTE   W02
 BYTE   VOL   12*FE12DaysofTrainingRoyLili500_mvl/mxv
 BYTE   W02
 BYTE   VOL   13*FE12DaysofTrainingRoyLili500_mvl/mxv
 BYTE   W01
 BYTE   VOL   14*FE12DaysofTrainingRoyLili500_mvl/mxv
 BYTE   W03
 BYTE   VOL   14*FE12DaysofTrainingRoyLili500_mvl/mxv
 BYTE   W03
 BYTE   VOL   14*FE12DaysofTrainingRoyLili500_mvl/mxv
 BYTE   W03
 BYTE   VOL   14*FE12DaysofTrainingRoyLili500_mvl/mxv
 BYTE   W02
 BYTE   VOL   14*FE12DaysofTrainingRoyLili500_mvl/mxv
 BYTE   W01
 BYTE   VOL   13*FE12DaysofTrainingRoyLili500_mvl/mxv
 BYTE   W01
 BYTE   VOL   13*FE12DaysofTrainingRoyLili500_mvl/mxv
 BYTE   W02
 BYTE   VOL   12*FE12DaysofTrainingRoyLili500_mvl/mxv
 BYTE   W02
//  #07 //006   ----------------------------------------
 BYTE   VOL   12*FE12DaysofTrainingRoyLili500_mvl/mxv
 BYTE   W01
 BYTE   VOL   11*FE12DaysofTrainingRoyLili500_mvl/mxv
 BYTE   W02
 BYTE   VOL   11*FE12DaysofTrainingRoyLili500_mvl/mxv
 BYTE   W01
 BYTE   VOL   10*FE12DaysofTrainingRoyLili500_mvl/mxv
 BYTE   W02
 BYTE   VOL   10*FE12DaysofTrainingRoyLili500_mvl/mxv
 BYTE   W01
 BYTE   VOL   10*FE12DaysofTrainingRoyLili500_mvl/mxv
 BYTE   W01
 BYTE   VOL   10*FE12DaysofTrainingRoyLili500_mvl/mxv
 BYTE   W01
 BYTE   VOL   8*FE12DaysofTrainingRoyLili500_mvl/mxv
 BYTE   W01
 BYTE   VOL   7*FE12DaysofTrainingRoyLili500_mvl/mxv
 BYTE   W02
 BYTE   VOL   6*FE12DaysofTrainingRoyLili500_mvl/mxv
 BYTE   W02
 BYTE   VOL   5*FE12DaysofTrainingRoyLili500_mvl/mxv
 BYTE   W01
 BYTE   VOL   4*FE12DaysofTrainingRoyLili500_mvl/mxv
 BYTE   W01
 BYTE   VOL   3*FE12DaysofTrainingRoyLili500_mvl/mxv
 BYTE   W02
 BYTE   VOL   3*FE12DaysofTrainingRoyLili500_mvl/mxv
 BYTE   W02
 BYTE   VOL   2*FE12DaysofTrainingRoyLili500_mvl/mxv
 BYTE   W01
 BYTE   VOL   1*FE12DaysofTrainingRoyLili500_mvl/mxv
 BYTE   W01
 BYTE   VOL   1*FE12DaysofTrainingRoyLili500_mvl/mxv
 BYTE   W02
 BYTE   VOL   0*FE12DaysofTrainingRoyLili500_mvl/mxv
 BYTE   W02
 BYTE   VOL   0*FE12DaysofTrainingRoyLili500_mvl/mxv
 BYTE   W01
 BYTE   VOL   0*FE12DaysofTrainingRoyLili500_mvl/mxv
 BYTE   W01
 BYTE   VOL   0*FE12DaysofTrainingRoyLili500_mvl/mxv
 BYTE   W68
//  #07 //007   ----------------------------------------
 BYTE   W96
//  #07 //008   ----------------------------------------
 BYTE   W96
//  #07 //009   ----------------------------------------
 BYTE   W64
 BYTE   VOL   21*FE12DaysofTrainingRoyLili500_mvl/mxv
 BYTE   W32
//  #07 //010   ----------------------------------------
 BYTE   W15
 BYTE   N02  Cs4
 BYTE   W04
 BYTE   Dn4
 BYTE   W05
 BYTE   N44  Cs4
 BYTE   W02
 BYTE   VOL   21*FE12DaysofTrainingRoyLili500_mvl/mxv
 BYTE   W01
 BYTE   VOL   20*FE12DaysofTrainingRoyLili500_mvl/mxv
 BYTE   W02
 BYTE   VOL   20*FE12DaysofTrainingRoyLili500_mvl/mxv
 BYTE   W02
 BYTE   VOL   19*FE12DaysofTrainingRoyLili500_mvl/mxv
 BYTE   W01
 BYTE   VOL   15*FE12DaysofTrainingRoyLili500_mvl/mxv
 BYTE   W01
 BYTE   VOL   13*FE12DaysofTrainingRoyLili500_mvl/mxv
 BYTE   W01
 BYTE   VOL   10*FE12DaysofTrainingRoyLili500_mvl/mxv
 BYTE   W02
 BYTE   VOL   7*FE12DaysofTrainingRoyLili500_mvl/mxv
 BYTE   W01
 BYTE   VOL   7*FE12DaysofTrainingRoyLili500_mvl/mxv
 BYTE   W02
 BYTE   VOL   8*FE12DaysofTrainingRoyLili500_mvl/mxv
 BYTE   W01
 BYTE   VOL   8*FE12DaysofTrainingRoyLili500_mvl/mxv
 BYTE   W02
 BYTE   VOL   9*FE12DaysofTrainingRoyLili500_mvl/mxv
 BYTE   W01
 BYTE   VOL   10*FE12DaysofTrainingRoyLili500_mvl/mxv
 BYTE   W01
 BYTE   VOL   10*FE12DaysofTrainingRoyLili500_mvl/mxv
 BYTE   W02
 BYTE   VOL   10*FE12DaysofTrainingRoyLili500_mvl/mxv
 BYTE   W02
 BYTE   VOL   11*FE12DaysofTrainingRoyLili500_mvl/mxv
 BYTE   W01
 BYTE   VOL   11*FE12DaysofTrainingRoyLili500_mvl/mxv
 BYTE   W02
 BYTE   VOL   12*FE12DaysofTrainingRoyLili500_mvl/mxv
 BYTE   W01
 BYTE   VOL   13*FE12DaysofTrainingRoyLili500_mvl/mxv
 BYTE   W02
 BYTE   VOL   13*FE12DaysofTrainingRoyLili500_mvl/mxv
 BYTE   W01
 BYTE   VOL   14*FE12DaysofTrainingRoyLili500_mvl/mxv
 BYTE   W02
 BYTE   VOL   15*FE12DaysofTrainingRoyLili500_mvl/mxv
 BYTE   W01
 BYTE   VOL   15*FE12DaysofTrainingRoyLili500_mvl/mxv
 BYTE   W02
 BYTE   VOL   16*FE12DaysofTrainingRoyLili500_mvl/mxv
 BYTE   W01
 BYTE   VOL   17*FE12DaysofTrainingRoyLili500_mvl/mxv
 BYTE   W01
 BYTE   VOL   17*FE12DaysofTrainingRoyLili500_mvl/mxv
 BYTE   W02
 BYTE   VOL   18*FE12DaysofTrainingRoyLili500_mvl/mxv
 BYTE   W02
 BYTE   VOL   18*FE12DaysofTrainingRoyLili500_mvl/mxv
 BYTE   W01
 BYTE   VOL   19*FE12DaysofTrainingRoyLili500_mvl/mxv
 BYTE   W02
 BYTE   VOL   20*FE12DaysofTrainingRoyLili500_mvl/mxv
 BYTE   W03
 BYTE   N07  En4
 BYTE   W01
 BYTE   VOL   20*FE12DaysofTrainingRoyLili500_mvl/mxv
 BYTE   W01
 BYTE   VOL   18*FE12DaysofTrainingRoyLili500_mvl/mxv
 BYTE   W01
 BYTE   VOL   18*FE12DaysofTrainingRoyLili500_mvl/mxv
 BYTE   W01
 BYTE   VOL   16*FE12DaysofTrainingRoyLili500_mvl/mxv
 BYTE   W02
 BYTE   VOL   15*FE12DaysofTrainingRoyLili500_mvl/mxv
 BYTE   W01
 BYTE   VOL   14*FE12DaysofTrainingRoyLili500_mvl/mxv
 BYTE   W01
 BYTE   VOL   13*FE12DaysofTrainingRoyLili500_mvl/mxv
 BYTE   W01
 BYTE   VOL   12*FE12DaysofTrainingRoyLili500_mvl/mxv
 BYTE   W01
 BYTE   VOL   13*FE12DaysofTrainingRoyLili500_mvl/mxv
 BYTE   W02
 BYTE   VOL   14*FE12DaysofTrainingRoyLili500_mvl/mxv
 BYTE   W01
 BYTE   VOL   14*FE12DaysofTrainingRoyLili500_mvl/mxv
 BYTE   W01
 BYTE   VOL   15*FE12DaysofTrainingRoyLili500_mvl/mxv
 BYTE   W02
 BYTE   VOL   16*FE12DaysofTrainingRoyLili500_mvl/mxv
 BYTE   W02
 BYTE   VOL   17*FE12DaysofTrainingRoyLili500_mvl/mxv
 BYTE   W01
 BYTE   VOL   18*FE12DaysofTrainingRoyLili500_mvl/mxv
 BYTE   W02
 BYTE   VOL   18*FE12DaysofTrainingRoyLili500_mvl/mxv
 BYTE   W01
 BYTE   VOL   19*FE12DaysofTrainingRoyLili500_mvl/mxv
 BYTE   W01
 BYTE   VOL   20*FE12DaysofTrainingRoyLili500_mvl/mxv
 BYTE   W01
//  #07 //011   ----------------------------------------
 BYTE   N07  Bn3
 BYTE   W01
 BYTE   VOL   19*FE12DaysofTrainingRoyLili500_mvl/mxv
 BYTE   W01
 BYTE   VOL   18*FE12DaysofTrainingRoyLili500_mvl/mxv
 BYTE   W01
 BYTE   VOL   17*FE12DaysofTrainingRoyLili500_mvl/mxv
 BYTE   W02
 BYTE   VOL   16*FE12DaysofTrainingRoyLili500_mvl/mxv
 BYTE   W02
 BYTE   VOL   14*FE12DaysofTrainingRoyLili500_mvl/mxv
 BYTE   W01
 BYTE   VOL   15*FE12DaysofTrainingRoyLili500_mvl/mxv
 BYTE   W02
 BYTE   VOL   17*FE12DaysofTrainingRoyLili500_mvl/mxv
 BYTE   W02
 BYTE   VOL   18*FE12DaysofTrainingRoyLili500_mvl/mxv
 BYTE   W01
 BYTE   VOL   19*FE12DaysofTrainingRoyLili500_mvl/mxv
 BYTE   W02
 BYTE   VOL   20*FE12DaysofTrainingRoyLili500_mvl/mxv
 BYTE   N07  Dn4
 BYTE   W09
 BYTE   Cs4
 BYTE   W03
 BYTE   VOL   20*FE12DaysofTrainingRoyLili500_mvl/mxv
 BYTE   W01
 BYTE   VOL   19*FE12DaysofTrainingRoyLili500_mvl/mxv
 BYTE   W01
 BYTE   VOL   18*FE12DaysofTrainingRoyLili500_mvl/mxv
 BYTE   W01
 BYTE   VOL   17*FE12DaysofTrainingRoyLili500_mvl/mxv
 BYTE   W01
 BYTE   VOL   15*FE12DaysofTrainingRoyLili500_mvl/mxv
 BYTE   W01
 BYTE   VOL   14*FE12DaysofTrainingRoyLili500_mvl/mxv
 BYTE   N03  Bn3
 BYTE   W02
 BYTE   VOL   14*FE12DaysofTrainingRoyLili500_mvl/mxv
 BYTE   W02
 BYTE   VOL   15*FE12DaysofTrainingRoyLili500_mvl/mxv
 BYTE   W01
 BYTE   VOL   15*FE12DaysofTrainingRoyLili500_mvl/mxv
 BYTE   W02
 BYTE   VOL   16*FE12DaysofTrainingRoyLili500_mvl/mxv
 BYTE   N04  Cs4
 BYTE   W01
 BYTE   VOL   17*FE12DaysofTrainingRoyLili500_mvl/mxv
 BYTE   W02
 BYTE   VOL   17*FE12DaysofTrainingRoyLili500_mvl/mxv
 BYTE   W01
 BYTE   VOL   18*FE12DaysofTrainingRoyLili500_mvl/mxv
 BYTE   W02
 BYTE   VOL   18*FE12DaysofTrainingRoyLili500_mvl/mxv
 BYTE   W01
 BYTE   VOL   19*FE12DaysofTrainingRoyLili500_mvl/mxv
 BYTE   W02
 BYTE   VOL   20*FE12DaysofTrainingRoyLili500_mvl/mxv
 BYTE   N44  Fs3
 BYTE   W02
 BYTE   VOL   19*FE12DaysofTrainingRoyLili500_mvl/mxv
 BYTE   W01
 BYTE   VOL   18*FE12DaysofTrainingRoyLili500_mvl/mxv
 BYTE   W01
 BYTE   VOL   16*FE12DaysofTrainingRoyLili500_mvl/mxv
 BYTE   W02
 BYTE   VOL   14*FE12DaysofTrainingRoyLili500_mvl/mxv
 BYTE   W01
 BYTE   VOL   13*FE12DaysofTrainingRoyLili500_mvl/mxv
 BYTE   W01
 BYTE   VOL   11*FE12DaysofTrainingRoyLili500_mvl/mxv
 BYTE   W01
 BYTE   VOL   10*FE12DaysofTrainingRoyLili500_mvl/mxv
 BYTE   W01
 BYTE   VOL   8*FE12DaysofTrainingRoyLili500_mvl/mxv
 BYTE   W02
 BYTE   VOL   7*FE12DaysofTrainingRoyLili500_mvl/mxv
 BYTE   W01
 BYTE   VOL   7*FE12DaysofTrainingRoyLili500_mvl/mxv
 BYTE   W01
 BYTE   VOL   8*FE12DaysofTrainingRoyLili500_mvl/mxv
 BYTE   W02
 BYTE   VOL   8*FE12DaysofTrainingRoyLili500_mvl/mxv
 BYTE   W02
 BYTE   VOL   9*FE12DaysofTrainingRoyLili500_mvl/mxv
 BYTE   W01
 BYTE   VOL   10*FE12DaysofTrainingRoyLili500_mvl/mxv
 BYTE   W02
 BYTE   VOL   10*FE12DaysofTrainingRoyLili500_mvl/mxv
 BYTE   W01
 BYTE   VOL   10*FE12DaysofTrainingRoyLili500_mvl/mxv
 BYTE   W02
 BYTE   VOL   11*FE12DaysofTrainingRoyLili500_mvl/mxv
 BYTE   W01
 BYTE   VOL   11*FE12DaysofTrainingRoyLili500_mvl/mxv
 BYTE   W01
 BYTE   VOL   12*FE12DaysofTrainingRoyLili500_mvl/mxv
 BYTE   W02
 BYTE   VOL   13*FE12DaysofTrainingRoyLili500_mvl/mxv
 BYTE   W02
 BYTE   VOL   13*FE12DaysofTrainingRoyLili500_mvl/mxv
 BYTE   W01
 BYTE   VOL   14*FE12DaysofTrainingRoyLili500_mvl/mxv
 BYTE   W02
 BYTE   VOL   15*FE12DaysofTrainingRoyLili500_mvl/mxv
 BYTE   W01
 BYTE   VOL   15*FE12DaysofTrainingRoyLili500_mvl/mxv
 BYTE   W02
 BYTE   VOL   16*FE12DaysofTrainingRoyLili500_mvl/mxv
 BYTE   W01
 BYTE   VOL   17*FE12DaysofTrainingRoyLili500_mvl/mxv
 BYTE   W02
 BYTE   VOL   17*FE12DaysofTrainingRoyLili500_mvl/mxv
 BYTE   W01
 BYTE   VOL   18*FE12DaysofTrainingRoyLili500_mvl/mxv
 BYTE   W02
 BYTE   VOL   18*FE12DaysofTrainingRoyLili500_mvl/mxv
 BYTE   W01
 BYTE   VOL   19*FE12DaysofTrainingRoyLili500_mvl/mxv
 BYTE   W01
 BYTE   VOL   20*FE12DaysofTrainingRoyLili500_mvl/mxv
 BYTE   W01
 BYTE   VOL   20*FE12DaysofTrainingRoyLili500_mvl/mxv
 BYTE   W03
//  #07 //012   ----------------------------------------
 BYTE   N15  Gs3
 BYTE   W02
 BYTE   VOL   19*FE12DaysofTrainingRoyLili500_mvl/mxv
 BYTE   W01
 BYTE   VOL   17*FE12DaysofTrainingRoyLili500_mvl/mxv
 BYTE   W01
 BYTE   VOL   15*FE12DaysofTrainingRoyLili500_mvl/mxv
 BYTE   W01
 BYTE   VOL   14*FE12DaysofTrainingRoyLili500_mvl/mxv
 BYTE   W01
 BYTE   VOL   13*FE12DaysofTrainingRoyLili500_mvl/mxv
 BYTE   W01
 BYTE   VOL   13*FE12DaysofTrainingRoyLili500_mvl/mxv
 BYTE   W01
 BYTE   VOL   14*FE12DaysofTrainingRoyLili500_mvl/mxv
 BYTE   W01
 BYTE   VOL   15*FE12DaysofTrainingRoyLili500_mvl/mxv
 BYTE   W02
 BYTE   VOL   17*FE12DaysofTrainingRoyLili500_mvl/mxv
 BYTE   W02
 BYTE   VOL   18*FE12DaysofTrainingRoyLili500_mvl/mxv
 BYTE   W01
 BYTE   VOL   19*FE12DaysofTrainingRoyLili500_mvl/mxv
 BYTE   W01
 BYTE   VOL   20*FE12DaysofTrainingRoyLili500_mvl/mxv
 BYTE   N02
 BYTE   W03
 BYTE   An3
 BYTE   W06
 BYTE   N07  Bn3
 BYTE   W01
 BYTE   VOL   20*FE12DaysofTrainingRoyLili500_mvl/mxv
 BYTE   W01
 BYTE   VOL   19*FE12DaysofTrainingRoyLili500_mvl/mxv
 BYTE   W01
 BYTE   VOL   18*FE12DaysofTrainingRoyLili500_mvl/mxv
 BYTE   W02
 BYTE   VOL   17*FE12DaysofTrainingRoyLili500_mvl/mxv
 BYTE   W02
 BYTE   VOL   15*FE12DaysofTrainingRoyLili500_mvl/mxv
 BYTE   W01
 BYTE   N03  An3
 BYTE   W01
 BYTE   VOL   15*FE12DaysofTrainingRoyLili500_mvl/mxv
 BYTE   W01
 BYTE   VOL   16*FE12DaysofTrainingRoyLili500_mvl/mxv
 BYTE   W02
 BYTE   VOL   17*FE12DaysofTrainingRoyLili500_mvl/mxv
 BYTE   W01
 BYTE   VOL   17*FE12DaysofTrainingRoyLili500_mvl/mxv
 BYTE   W01
 BYTE   VOL   17*FE12DaysofTrainingRoyLili500_mvl/mxv
 BYTE   W01
 BYTE   N04  Bn3
 BYTE   W01
 BYTE   VOL   18*FE12DaysofTrainingRoyLili500_mvl/mxv
 BYTE   W02
 BYTE   VOL   18*FE12DaysofTrainingRoyLili500_mvl/mxv
 BYTE   W01
 BYTE   VOL   19*FE12DaysofTrainingRoyLili500_mvl/mxv
 BYTE   W02
 BYTE   VOL   19*FE12DaysofTrainingRoyLili500_mvl/mxv
 BYTE   W01
 BYTE   VOL   19*FE12DaysofTrainingRoyLili500_mvl/mxv
 BYTE   W02
 BYTE   VOL   20*FE12DaysofTrainingRoyLili500_mvl/mxv
 BYTE   N44  En3
 BYTE   W01
 BYTE   VOL   20*FE12DaysofTrainingRoyLili500_mvl/mxv
 BYTE   W01
 BYTE   VOL   20*FE12DaysofTrainingRoyLili500_mvl/mxv
 BYTE   W02
 BYTE   VOL   19*FE12DaysofTrainingRoyLili500_mvl/mxv
 BYTE   W01
 BYTE   VOL   17*FE12DaysofTrainingRoyLili500_mvl/mxv
 BYTE   W01
 BYTE   VOL   15*FE12DaysofTrainingRoyLili500_mvl/mxv
 BYTE   W01
 BYTE   VOL   10*FE12DaysofTrainingRoyLili500_mvl/mxv
 BYTE   W01
 BYTE   VOL   9*FE12DaysofTrainingRoyLili500_mvl/mxv
 BYTE   W01
 BYTE   VOL   8*FE12DaysofTrainingRoyLili500_mvl/mxv
 BYTE   W01
 BYTE   VOL   8*FE12DaysofTrainingRoyLili500_mvl/mxv
 BYTE   W02
 BYTE   VOL   8*FE12DaysofTrainingRoyLili500_mvl/mxv
 BYTE   W01
 BYTE   VOL   9*FE12DaysofTrainingRoyLili500_mvl/mxv
 BYTE   W01
 BYTE   VOL   10*FE12DaysofTrainingRoyLili500_mvl/mxv
 BYTE   W02
 BYTE   VOL   10*FE12DaysofTrainingRoyLili500_mvl/mxv
 BYTE   W02
 BYTE   VOL   10*FE12DaysofTrainingRoyLili500_mvl/mxv
 BYTE   W01
 BYTE   VOL   11*FE12DaysofTrainingRoyLili500_mvl/mxv
 BYTE   W01
 BYTE   VOL   11*FE12DaysofTrainingRoyLili500_mvl/mxv
 BYTE   W02
 BYTE   VOL   11*FE12DaysofTrainingRoyLili500_mvl/mxv
 BYTE   W02
 BYTE   VOL   12*FE12DaysofTrainingRoyLili500_mvl/mxv
 BYTE   W01
 BYTE   VOL   12*FE12DaysofTrainingRoyLili500_mvl/mxv
 BYTE   W02
 BYTE   VOL   13*FE12DaysofTrainingRoyLili500_mvl/mxv
 BYTE   W01
 BYTE   VOL   14*FE12DaysofTrainingRoyLili500_mvl/mxv
 BYTE   W02
 BYTE   VOL   14*FE12DaysofTrainingRoyLili500_mvl/mxv
 BYTE   W01
 BYTE   VOL   15*FE12DaysofTrainingRoyLili500_mvl/mxv
 BYTE   W01
 BYTE   VOL   15*FE12DaysofTrainingRoyLili500_mvl/mxv
 BYTE   W02
 BYTE   VOL   16*FE12DaysofTrainingRoyLili500_mvl/mxv
 BYTE   W02
 BYTE   VOL   17*FE12DaysofTrainingRoyLili500_mvl/mxv
 BYTE   W01
 BYTE   VOL   17*FE12DaysofTrainingRoyLili500_mvl/mxv
 BYTE   W02
 BYTE   VOL   18*FE12DaysofTrainingRoyLili500_mvl/mxv
 BYTE   W01
 BYTE   VOL   18*FE12DaysofTrainingRoyLili500_mvl/mxv
 BYTE   W02
 BYTE   VOL   18*FE12DaysofTrainingRoyLili500_mvl/mxv
 BYTE   W01
 BYTE   VOL   19*FE12DaysofTrainingRoyLili500_mvl/mxv
 BYTE   W01
 BYTE   VOL   20*FE12DaysofTrainingRoyLili500_mvl/mxv
 BYTE   W01
 BYTE   VOL   20*FE12DaysofTrainingRoyLili500_mvl/mxv
 BYTE   W03
//  #07 //013   ----------------------------------------
 BYTE   N07  Fs3
 BYTE   W08
 BYTE   N03  Gs3
 BYTE   W07
 BYTE   N04  An3
 BYTE   W09
 BYTE   N07  Gs3
 BYTE   W08
 BYTE   N03  An3
 BYTE   W07
 BYTE   N04  Bn3
 BYTE   W09
 BYTE   VOL   20*FE12DaysofTrainingRoyLili500_mvl/mxv
 BYTE   N72  En3
 BYTE   W03
 BYTE   VOL   20*FE12DaysofTrainingRoyLili500_mvl/mxv
 BYTE   W03
 BYTE   VOL   20*FE12DaysofTrainingRoyLili500_mvl/mxv
 BYTE   W02
 BYTE   VOL   19*FE12DaysofTrainingRoyLili500_mvl/mxv
 BYTE   W01
 BYTE   VOL   18*FE12DaysofTrainingRoyLili500_mvl/mxv
 BYTE   W01
 BYTE   VOL   17*FE12DaysofTrainingRoyLili500_mvl/mxv
 BYTE   W02
 BYTE   VOL   16*FE12DaysofTrainingRoyLili500_mvl/mxv
 BYTE   W02
 BYTE   VOL   15*FE12DaysofTrainingRoyLili500_mvl/mxv
 BYTE   W01
 BYTE   VOL   14*FE12DaysofTrainingRoyLili500_mvl/mxv
 BYTE   W01
 BYTE   VOL   14*FE12DaysofTrainingRoyLili500_mvl/mxv
 BYTE   W02
 BYTE   VOL   13*FE12DaysofTrainingRoyLili500_mvl/mxv
 BYTE   W02
 BYTE   VOL   12*FE12DaysofTrainingRoyLili500_mvl/mxv
 BYTE   W01
 BYTE   VOL   11*FE12DaysofTrainingRoyLili500_mvl/mxv
 BYTE   W01
 BYTE   VOL   10*FE12DaysofTrainingRoyLili500_mvl/mxv
 BYTE   W02
 BYTE   VOL   11*FE12DaysofTrainingRoyLili500_mvl/mxv
 BYTE   W01
 BYTE   VOL   11*FE12DaysofTrainingRoyLili500_mvl/mxv
 BYTE   W02
 BYTE   VOL   12*FE12DaysofTrainingRoyLili500_mvl/mxv
 BYTE   W01
 BYTE   VOL   12*FE12DaysofTrainingRoyLili500_mvl/mxv
 BYTE   W02
 BYTE   VOL   13*FE12DaysofTrainingRoyLili500_mvl/mxv
 BYTE   W01
 BYTE   VOL   14*FE12DaysofTrainingRoyLili500_mvl/mxv
 BYTE   W03
 BYTE   VOL   14*FE12DaysofTrainingRoyLili500_mvl/mxv
 BYTE   W03
 BYTE   VOL   14*FE12DaysofTrainingRoyLili500_mvl/mxv
 BYTE   W03
 BYTE   VOL   14*FE12DaysofTrainingRoyLili500_mvl/mxv
 BYTE   W02
 BYTE   VOL   14*FE12DaysofTrainingRoyLili500_mvl/mxv
 BYTE   W01
 BYTE   VOL   13*FE12DaysofTrainingRoyLili500_mvl/mxv
 BYTE   W01
 BYTE   VOL   13*FE12DaysofTrainingRoyLili500_mvl/mxv
 BYTE   W02
 BYTE   VOL   12*FE12DaysofTrainingRoyLili500_mvl/mxv
 BYTE   W02
//  #07 //014   ----------------------------------------
 BYTE   VOL   12*FE12DaysofTrainingRoyLili500_mvl/mxv
 BYTE   W01
 BYTE   VOL   11*FE12DaysofTrainingRoyLili500_mvl/mxv
 BYTE   W01
 BYTE   VOL   11*FE12DaysofTrainingRoyLili500_mvl/mxv
 BYTE   W02
 BYTE   VOL   10*FE12DaysofTrainingRoyLili500_mvl/mxv
 BYTE   W02
 BYTE   VOL   10*FE12DaysofTrainingRoyLili500_mvl/mxv
 BYTE   W01
 BYTE   VOL   10*FE12DaysofTrainingRoyLili500_mvl/mxv
 BYTE   W01
 BYTE   VOL   10*FE12DaysofTrainingRoyLili500_mvl/mxv
 BYTE   W01
 BYTE   VOL   8*FE12DaysofTrainingRoyLili500_mvl/mxv
 BYTE   W01
 BYTE   VOL   7*FE12DaysofTrainingRoyLili500_mvl/mxv
 BYTE   W02
 BYTE   VOL   6*FE12DaysofTrainingRoyLili500_mvl/mxv
 BYTE   W02
 BYTE   VOL   5*FE12DaysofTrainingRoyLili500_mvl/mxv
 BYTE   W01
 BYTE   VOL   4*FE12DaysofTrainingRoyLili500_mvl/mxv
 BYTE   W01
 BYTE   VOL   3*FE12DaysofTrainingRoyLili500_mvl/mxv
 BYTE   W02
 BYTE   VOL   3*FE12DaysofTrainingRoyLili500_mvl/mxv
 BYTE   W02
 BYTE   VOL   2*FE12DaysofTrainingRoyLili500_mvl/mxv
 BYTE   W01
 BYTE   VOL   1*FE12DaysofTrainingRoyLili500_mvl/mxv
 BYTE   W01
 BYTE   VOL   1*FE12DaysofTrainingRoyLili500_mvl/mxv
 BYTE   W02
 BYTE   VOL   0*FE12DaysofTrainingRoyLili500_mvl/mxv
 BYTE   W02
 BYTE   VOL   0*FE12DaysofTrainingRoyLili500_mvl/mxv
 BYTE   W01
 BYTE   VOL   0*FE12DaysofTrainingRoyLili500_mvl/mxv
 BYTE   W01
 BYTE   VOL   0*FE12DaysofTrainingRoyLili500_mvl/mxv
 BYTE   W68
//  #07 //015   ----------------------------------------
 BYTE   W96
//  #07 //016   ----------------------------------------
 BYTE   W96
//  #07 //017   ----------------------------------------
 BYTE   W96
//  #07 //018   ----------------------------------------
 BYTE   W96
//  #07 //019   ----------------------------------------
 BYTE   W96
//  #07 //020   ----------------------------------------
 BYTE   W24
 BYTE   GoTo
  POIN2 Label_014144CB
 BYTE   FINE

//**************** Track 8 (Midi-Chn.7) ****************//

FE12DaysofTrainingRoyLili500_008:
//  #08 //000   ----------------------------------------
 BYTE   KEYSH   FE12DaysofTrainingRoyLili500_key+0
 BYTE   VOICE   47
 BYTE   MODT 0
 BYTE   LFOS 44
 BYTE   VOL   73*FE12DaysofTrainingRoyLili500_mvl/mxv
 BYTE   PAN   c_v+32
 BYTE   BEND   c_v+0
 BYTE   N03  Fs1  v020
 BYTE   N22  Fs2  v060
 BYTE   W03
 BYTE   N03  Fs1  v028
 BYTE   W05
 BYTE   N02  Fs1  v040
 BYTE   W04
 BYTE   N03  Fs1  v044
 BYTE   W03
 BYTE   Fs1  v056
 BYTE   W05
 BYTE   N02  Fs1  v088
 BYTE   W04
Label_565070:
 BYTE   N68  Bn1  v108
 BYTE   W72
//  #08 //001   ----------------------------------------
Label_565074:
 BYTE   N16  Bn2  v088
 BYTE   W18
 BYTE   N02  Bn1  v036
 BYTE   W03
 BYTE   N01  Bn1  v048
 BYTE   W03
 BYTE   N68  Bn1  v096
 BYTE   W72
 BYTE   PEND 
//  #08 //002   ----------------------------------------
 BYTE   N07  Bn1  v028
 BYTE   W08
 BYTE   N06  Bn1  v052
 BYTE   W07
 BYTE   N07  Bn1  v060
 BYTE   W09
 BYTE   N68  Bn1  v108
 BYTE   W72
//  #08 //003   ----------------------------------------
 BYTE   PATT
  POIN2 Label_565074
//  #08 //004   ----------------------------------------
Label_56509A:
 BYTE   N07  Bn1  v028
 BYTE   W08
 BYTE   Bn1  v052
 BYTE   W07
 BYTE   Bn1  v060
 BYTE   W09
 BYTE   N68  Bn1  v127
 BYTE   W72
 BYTE   PEND 
//  #08 //005   ----------------------------------------
Label_5650A9:
 BYTE   N16  Bn2  v088
 BYTE   W18
 BYTE   N02  Bn1  v036
 BYTE   W02
 BYTE   Bn1  v048
 BYTE   W04
 BYTE   N68  Bn1  v096
 BYTE   W72
 BYTE   PEND 
//  #08 //006   ----------------------------------------
 BYTE   N07  Fs1  v088
 BYTE   W08
 BYTE   N14
 BYTE   W16
 BYTE   N68  Cn2  v108
 BYTE   W72
//  #08 //007   ----------------------------------------
Label_5650C3:
 BYTE   N16  Cn3  v088
 BYTE   W18
 BYTE   N02  Cn2  v036
 BYTE   W03
 BYTE   N01  Cn2  v048
 BYTE   W03
 BYTE   N68  Cn2  v096
 BYTE   W72
 BYTE   PEND 
//  #08 //008   ----------------------------------------
 BYTE   N07  Cn2  v028
 BYTE   W08
 BYTE   N06  Cn2  v052
 BYTE   W07
 BYTE   N07  Cn2  v060
 BYTE   W09
 BYTE   N68  Cn2  v127
 BYTE   W72
//  #08 //009   ----------------------------------------
 BYTE   PATT
  POIN2 Label_5650C3
//  #08 //010   ----------------------------------------
 BYTE   N07  Gn1  v088
 BYTE   W08
 BYTE   N14
 BYTE   W16
 BYTE   N68  Bn1  v108
 BYTE   W72
//  #08 //011   ----------------------------------------
 BYTE   PATT
  POIN2 Label_5650A9
//  #08 //012   ----------------------------------------
 BYTE   PATT
  POIN2 Label_56509A
//  #08 //013   ----------------------------------------
 BYTE   PATT
  POIN2 Label_565074
//  #08 //014   ----------------------------------------
 BYTE   N07  Fs1  v088
 BYTE   W08
 BYTE   N14
 BYTE   W16
 BYTE   N68  As1  v108
 BYTE   W72
//  #08 //015   ----------------------------------------
 BYTE   N16  As2  v088
 BYTE   W18
 BYTE   N02  As1  v036
 BYTE   W03
 BYTE   N01  As1  v048
 BYTE   W03
 BYTE   N68  As1  v096
 BYTE   W72
//  #08 //016   ----------------------------------------
 BYTE   N07  As1  v028
 BYTE   W08
 BYTE   N06  As1  v052
 BYTE   W07
 BYTE   N07  As1  v060
 BYTE   W09
 BYTE   N68  As1  v127
 BYTE   W72
//  #08 //017   ----------------------------------------
 BYTE   N16  As2  v088
 BYTE   W18
 BYTE   N02  As1  v036
 BYTE   W02
 BYTE   As1  v048
 BYTE   W04
 BYTE   N68  As1  v096
 BYTE   W72
//  #08 //018   ----------------------------------------
 BYTE   N07  Fn1  v088
 BYTE   W08
 BYTE   N14
 BYTE   W16
 BYTE   N21  An1
 BYTE   W24
 BYTE   An1  v064
 BYTE   W24
 BYTE   N20  An1  v084
 BYTE   W24
//  #08 //019   ----------------------------------------
 BYTE   N02  En2  v040
 BYTE   W03
 BYTE   En2  v060
 BYTE   W05
 BYTE   N06  En2  v084
 BYTE   W07
 BYTE   An1
 BYTE   W09
 BYTE   N21  Gn1  v088
 BYTE   W24
 BYTE   N20  Gn1  v064
 BYTE   W24
 BYTE   Fs1  v088
 BYTE   W24
//  #08 //020   ----------------------------------------
 BYTE   N06  Fs1  v064
 BYTE   W08
 BYTE   N15  Fs1  v092
 BYTE   W16
 BYTE   GoTo
  POIN2 Label_565070
 BYTE   FINE

//**************** Track 9 (Midi-Chn.8) ****************//

FE12DaysofTrainingRoyLili500_009:
//  #09 //000   ----------------------------------------
 BYTE   KEYSH   FE12DaysofTrainingRoyLili500_key+0
 BYTE   VOICE   0
 BYTE   MODT 0
 BYTE   LFOS 44
 BYTE   VOL   49*FE12DaysofTrainingRoyLili500_mvl/mxv
 BYTE   PAN   c_v+0
 BYTE   BEND   c_v+0
 BYTE   W24
Label_01413457:
 BYTE   N07  Fs4  v068
 BYTE   W08
 BYTE   N06  Fs3  v052
 BYTE   W16
 BYTE   N07  Fs3  v032
 BYTE   W08
 BYTE   Fs3  v076
 BYTE   W16
 BYTE   Fs4  v068
 BYTE   W08
 BYTE   Fs3  v052
 BYTE   W16
//  #09 //001   ----------------------------------------
 BYTE   Fs3  v032
 BYTE   W08
 BYTE   N06  Fs3  v076
 BYTE   W16
 BYTE   N07  Fs4  v068
 BYTE   W08
 BYTE   N06  Fs3  v052
 BYTE   W16
 BYTE   N07  Fs3  v032
 BYTE   W08
 BYTE   Fs3  v076
 BYTE   W16
 BYTE   Fs4  v068
 BYTE   W08
 BYTE   Fs3  v052
 BYTE   W16
//  #09 //002   ----------------------------------------
Label_01413488:
 BYTE   N07  Fs3  v032
 BYTE   W08
 BYTE   N06  Fs3  v076
 BYTE   W16
 BYTE   N07  Fs4  v068
 BYTE   W08
 BYTE   Fs3  v052
 BYTE   W16
 BYTE   Fs3  v032
 BYTE   W08
 BYTE   Fs3  v076
 BYTE   W16
 BYTE   Fs4  v068
 BYTE   W08
 BYTE   N06  Fs3  v052
 BYTE   W16
 BYTE   PEND 
//  #09 //003   ----------------------------------------
 BYTE   PATT
  POIN2 Label_01413488
//  #09 //004   ----------------------------------------
 BYTE   N07  Fs3  v032
 BYTE   W08
 BYTE   Fs3  v076
 BYTE   W16
 BYTE   Fs4  v068
 BYTE   W08
 BYTE   Fs3  v052
 BYTE   W16
 BYTE   Fs3  v032
 BYTE   W08
 BYTE   N06  Fs3  v076
 BYTE   W16
 BYTE   N07  Fs4  v068
 BYTE   W08
 BYTE   N06  Fs3  v052
 BYTE   W16
//  #09 //005   ----------------------------------------
 BYTE   N07  Fs3  v032
 BYTE   W08
 BYTE   Fs3  v076
 BYTE   W16
 BYTE   Fs4  v068
 BYTE   W08
 BYTE   N06  Fs3  v052
 BYTE   W16
 BYTE   N07  Fs3  v032
 BYTE   W08
 BYTE   N06  Fs3  v076
 BYTE   W16
 BYTE   N03  Fs3  v068
 BYTE   W03
 BYTE   Bn3  v048
 BYTE   W05
 BYTE   Cs4
 BYTE   W04
 BYTE   Bn3  v060
 BYTE   W03
 BYTE   En4  v048
 BYTE   W05
 BYTE   An4  v036
 BYTE   W04
//  #09 //006   ----------------------------------------
 BYTE   En5  v048
 BYTE   W03
 BYTE   Cs5  v032
 BYTE   W05
 BYTE   Bn4
 BYTE   W04
 BYTE   Fs4  v060
 BYTE   W03
 BYTE   En4  v048
 BYTE   W05
 BYTE   Bn3
 BYTE   W04
 BYTE   N07  Gn4  v068
 BYTE   W08
 BYTE   N06  Gn3  v052
 BYTE   W16
 BYTE   N07  Gn3  v032
 BYTE   W08
 BYTE   N06  Gn3  v076
 BYTE   W16
 BYTE   N07  Gn4  v068
 BYTE   W08
 BYTE   Gn3  v052
 BYTE   W16
//  #09 //007   ----------------------------------------
 BYTE   Gn3  v032
 BYTE   W08
 BYTE   N06  Gn3  v076
 BYTE   W16
 BYTE   N07  Gn4  v068
 BYTE   W08
 BYTE   N06  Gn3  v052
 BYTE   W16
 BYTE   N07  Gn3  v032
 BYTE   W08
 BYTE   Gn3  v076
 BYTE   W16
 BYTE   Gn4  v068
 BYTE   W08
 BYTE   Gn3  v052
 BYTE   W16
//  #09 //008   ----------------------------------------
 BYTE   Gn3  v032
 BYTE   W08
 BYTE   N06  Gn3  v076
 BYTE   W16
 BYTE   N07  Gn4  v068
 BYTE   W08
 BYTE   Gn3  v052
 BYTE   W16
 BYTE   Gn3  v032
 BYTE   W08
 BYTE   Gn3  v076
 BYTE   W16
 BYTE   Gn4  v068
 BYTE   W08
 BYTE   N06  Gn3  v052
 BYTE   W16
//  #09 //009   ----------------------------------------
 BYTE   N07  Gn3  v032
 BYTE   W08
 BYTE   N06  Gn3  v076
 BYTE   W16
 BYTE   N07  Gn4  v068
 BYTE   W08
 BYTE   Gn3  v052
 BYTE   W16
 BYTE   Gn3  v032
 BYTE   W08
 BYTE   Gn3  v076
 BYTE   W16
 BYTE   N03  Gn3  v068
 BYTE   W03
 BYTE   Cn4  v060
 BYTE   W05
 BYTE   Dn4
 BYTE   W04
 BYTE   Cn4  v040
 BYTE   W03
 BYTE   Gn4  v060
 BYTE   W05
 BYTE   Dn4  v040
 BYTE   W04
//  #09 //010   ----------------------------------------
 BYTE   Fn4  v060
 BYTE   W03
 BYTE   Gn4  v020
 BYTE   W05
 BYTE   Gn3  v040
 BYTE   W04
 BYTE   Cn5  v060
 BYTE   W03
 BYTE   Cn4  v040
 BYTE   W05
 BYTE   Fn4
 BYTE   W04
 BYTE   N07  Fs4  v068
 BYTE   W08
 BYTE   Fs3  v052
 BYTE   W16
 BYTE   Fs3  v032
 BYTE   W08
 BYTE   N06  Fs3  v076
 BYTE   W16
 BYTE   N07  Fs4  v068
 BYTE   W08
 BYTE   N06  Fs3  v052
 BYTE   W16
//  #09 //011   ----------------------------------------
 BYTE   N07  Fs3  v032
 BYTE   W08
 BYTE   Fs3  v076
 BYTE   W16
 BYTE   Fs4  v068
 BYTE   W08
 BYTE   Fs3  v052
 BYTE   W16
 BYTE   Fs3  v032
 BYTE   W08
 BYTE   N06  Fs3  v076
 BYTE   W16
 BYTE   N07  Fs4  v068
 BYTE   W08
 BYTE   Fs3  v052
 BYTE   W16
//  #09 //012   ----------------------------------------
 BYTE   Fs3  v032
 BYTE   W08
 BYTE   Fs3  v076
 BYTE   W16
 BYTE   Fs4  v068
 BYTE   W08
 BYTE   N06  Fs3  v052
 BYTE   W16
 BYTE   N07  Fs3  v032
 BYTE   W08
 BYTE   N06  Fs3  v076
 BYTE   W16
 BYTE   N07  Fs4  v068
 BYTE   W08
 BYTE   Fs3  v052
 BYTE   W16
//  #09 //013   ----------------------------------------
 BYTE   Fs3  v032
 BYTE   W08
 BYTE   N06  Fs3  v076
 BYTE   W16
 BYTE   N07  Fs4  v068
 BYTE   W08
 BYTE   N06  Fs3  v052
 BYTE   W16
 BYTE   N07  Fs3  v032
 BYTE   W08
 BYTE   Fs3  v076
 BYTE   W16
 BYTE   N03  En3  v068
 BYTE   W03
 BYTE   An3  v032
 BYTE   W05
 BYTE   Bn3  v048
 BYTE   W04
 BYTE   En4  v060
 BYTE   W03
 BYTE   An4  v036
 BYTE   W05
 BYTE   Bn4  v048
 BYTE   W04
//  #09 //014   ----------------------------------------
 BYTE   Dn5  v060
 BYTE   W03
 BYTE   An4  v048
 BYTE   W05
 BYTE   En5  v060
 BYTE   W04
 BYTE   Bn4  v048
 BYTE   W03
 BYTE   An4  v032
 BYTE   W05
 BYTE   En4  v024
 BYTE   W04
 BYTE   N07  Fn4  v068
 BYTE   W08
 BYTE   N06  Fn3  v052
 BYTE   W16
 BYTE   N07  Fn3  v032
 BYTE   W08
 BYTE   Fn3  v076
 BYTE   W16
 BYTE   Fn4  v068
 BYTE   W08
 BYTE   N06  Fn3  v052
 BYTE   W16
//  #09 //015   ----------------------------------------
 BYTE   N07  Fn3  v032
 BYTE   W08
 BYTE   N06  Fn3  v076
 BYTE   W16
 BYTE   N07  Fn4  v068
 BYTE   W08
 BYTE   Fn3  v052
 BYTE   W16
 BYTE   Fn3  v032
 BYTE   W08
 BYTE   Fn3  v076
 BYTE   W16
 BYTE   Fn4  v068
 BYTE   W08
 BYTE   N06  Fn3  v052
 BYTE   W16
//  #09 //016   ----------------------------------------
 BYTE   N07  Fn3  v032
 BYTE   W08
 BYTE   N06  Fn3  v076
 BYTE   W16
 BYTE   N07  Fn4  v068
 BYTE   W08
 BYTE   Fn3  v052
 BYTE   W16
 BYTE   Fn3  v032
 BYTE   W08
 BYTE   N06  Fn3  v076
 BYTE   W16
 BYTE   N07  Fn4  v068
 BYTE   W08
 BYTE   N06  Fn3  v052
 BYTE   W16
//  #09 //017   ----------------------------------------
 BYTE   N07  Fn3  v032
 BYTE   W08
 BYTE   Fn3  v076
 BYTE   W16
 BYTE   Fn4  v068
 BYTE   W08
 BYTE   Fn3  v052
 BYTE   W16
 BYTE   Fn3  v032
 BYTE   W08
 BYTE   N06  Fn3  v076
 BYTE   W16
 BYTE   N03  As2  v060
 BYTE   W03
 BYTE   Fn3  v068
 BYTE   W05
 BYTE   Gs3  v032
 BYTE   W04
 BYTE   As3  v048
 BYTE   W03
 BYTE   Ds4  v060
 BYTE   W05
 BYTE   Gs4  v040
 BYTE   W04
//  #09 //018   ----------------------------------------
 BYTE   As4  v060
 BYTE   W03
 BYTE   Fn4  v044
 BYTE   W05
 BYTE   Gs4  v060
 BYTE   W04
 BYTE   Ds4  v032
 BYTE   W03
 BYTE   Fn4  v060
 BYTE   W05
 BYTE   As3  v024
 BYTE   W04
 BYTE   N07  En4  v068
 BYTE   W08
 BYTE   N06  En3  v052
 BYTE   W16
 BYTE   N07  En3  v032
 BYTE   W08
 BYTE   N06  En3  v076
 BYTE   W16
 BYTE   N07  En4  v068
 BYTE   W08
 BYTE   En3  v052
 BYTE   W16
//  #09 //019   ----------------------------------------
 BYTE   En3  v032
 BYTE   W08
 BYTE   En3  v076
 BYTE   W16
 BYTE   Dn4  v068
 BYTE   W08
 BYTE   N06  Dn3  v052
 BYTE   W16
 BYTE   N07  Dn3  v032
 BYTE   W08
 BYTE   Dn3  v076
 BYTE   W16
 BYTE   Cs4  v044
 BYTE   W08
 BYTE   En4  v048
 BYTE   W07
 BYTE   Fs4  v068
 BYTE   W09
//  #09 //020   ----------------------------------------
 BYTE   En4  v048
 BYTE   W08
 BYTE   N06  Bn3  v044
 BYTE   W07
 BYTE   N07  Fs3  v040
 BYTE   W09
 BYTE   GoTo
  POIN2 Label_01413457
 BYTE   FINE

//**************** Track 10 (Midi-Chn.9) ****************//

FE12DaysofTrainingRoyLili500_010:
//  #10 //000   ----------------------------------------
 BYTE   KEYSH   FE12DaysofTrainingRoyLili500_key+0
 BYTE   VOICE   124
 BYTE   MODT 0
 BYTE   LFOS 44
 BYTE   VOL   80*FE12DaysofTrainingRoyLili500_mvl/mxv
 BYTE   PAN   c_v+0
 BYTE   BEND   c_v+0
 BYTE   N07  Fs1  v056
 BYTE   W08
 BYTE   N03  En1  v092
 BYTE   W04
 BYTE   Dn1  v032
 BYTE   W03
 BYTE   En1  v048
 BYTE   W05
 BYTE   Dn1  v060
 BYTE   W04
Label_014136FB:
 BYTE   N07  Dn1  v120
 BYTE   N44  Cs2  v024
 BYTE   N21  An2  v016
 BYTE   W08
 BYTE   N03  En1  v072
 BYTE   W04
 BYTE   Dn1  v040
 BYTE   W03
 BYTE   En1
 BYTE   W05
 BYTE   Dn1  v044
 BYTE   W04
 BYTE   N06  Dn1  v084
 BYTE   N07  An2  v012
 BYTE   W08
 BYTE   N06  En1  v108
 BYTE   N15  An2  v016
 BYTE   W07
 BYTE   N06  Dn1  v024
 BYTE   W09
 BYTE   En1  v080
 BYTE   N44  Cs2  v012
 BYTE   N15  An2  v016
 BYTE   W08
 BYTE   N06  Dn1  v036
 BYTE   W07
 BYTE   En1  v048
 BYTE   N07  As2  v008
 BYTE   W09
//  #10 //001   ----------------------------------------
Label_01413736:
 BYTE   N06  En1  v092
 BYTE   N07  An2  v012
 BYTE   W08
 BYTE   N06  Dn1  v024
 BYTE   N15  An2  v016
 BYTE   W07
 BYTE   N03  En1  v044
 BYTE   W05
 BYTE   N02  Dn1  v068
 BYTE   W04
 BYTE   N07  En1  v036
 BYTE   N21  An2  v016
 BYTE   W08
 BYTE   N06  Dn1  v076
 BYTE   W07
 BYTE   N07  En1  v096
 BYTE   W09
 BYTE   Dn1  v116
 BYTE   N07  An2  v008
 BYTE   W08
 BYTE   En1  v032
 BYTE   N15  An2  v016
 BYTE   W07
 BYTE   N05  Fs1  v088
 BYTE   W09
 BYTE   N03  En1  v064
 BYTE   N15  An2  v016
 BYTE   W09
 BYTE   N02  En1  v044
 BYTE   W04
 BYTE   Dn1  v072
 BYTE   W02
 BYTE   N06  En1  v080
 BYTE   N07  As2  v008
 BYTE   W09
 BYTE   PEND 
//  #10 //002   ----------------------------------------
Label_01413781:
 BYTE   N06  En1  v064
 BYTE   N07  An2  v012
 BYTE   W08
 BYTE   N06  Dn1  v052
 BYTE   N15  An2  v016
 BYTE   W07
 BYTE   N06  En1  v100
 BYTE   W09
 BYTE   N07  Dn1  v120
 BYTE   N44  En2  v024
 BYTE   N21  An2  v016
 BYTE   W08
 BYTE   N03  En1  v072
 BYTE   W04
 BYTE   Dn1  v056
 BYTE   W03
 BYTE   N07  En1  v068
 BYTE   W09
 BYTE   Dn1  v084
 BYTE   N07  An2  v012
 BYTE   W08
 BYTE   En1  v056
 BYTE   N15  An2  v016
 BYTE   W07
 BYTE   N07  Fs1  v076
 BYTE   W09
 BYTE   En1  v016
 BYTE   N44  En2  v012
 BYTE   N15  An2  v016
 BYTE   W08
 BYTE   N07  Dn1  v052
 BYTE   W07
 BYTE   N03  En1  v044
 BYTE   N07  As2  v008
 BYTE   W05
 BYTE   N03  Dn1  v072
 BYTE   W04
 BYTE   PEND 
//  #10 //003   ----------------------------------------
Label_014137D1:
 BYTE   N06  En1  v064
 BYTE   N07  An2  v012
 BYTE   W08
 BYTE   N06  Dn1  v052
 BYTE   N15  An2  v016
 BYTE   W07
 BYTE   N06  En1  v028
 BYTE   W09
 BYTE   N03  En1  v064
 BYTE   N21  An2  v016
 BYTE   W03
 BYTE   N03  Dn1  v036
 BYTE   W05
 BYTE   En1  v072
 BYTE   W07
 BYTE   N06  Dn1  v080
 BYTE   W09
 BYTE   En1  v064
 BYTE   N07  An2  v008
 BYTE   W08
 BYTE   N06  Dn1  v052
 BYTE   N15  An2  v016
 BYTE   W07
 BYTE   N06  En1  v100
 BYTE   W09
 BYTE   Dn1
 BYTE   N15  An2  v016
 BYTE   W08
 BYTE   N03  En1  v044
 BYTE   W04
 BYTE   Dn1  v072
 BYTE   W03
 BYTE   N06  En1  v080
 BYTE   N07  As2  v008
 BYTE   W09
 BYTE   PEND 
//  #10 //004   ----------------------------------------
Label_0141381A:
 BYTE   N03  Dn1  v048
 BYTE   N07  An2  v012
 BYTE   W03
 BYTE   N03  En1  v052
 BYTE   W05
 BYTE   N06  Dn1  v068
 BYTE   N15  An2  v016
 BYTE   W07
 BYTE   N03  En1  v020
 BYTE   W05
 BYTE   Dn1  v048
 BYTE   W04
 BYTE   N07  Dn1  v120
 BYTE   N21  An2  v016
 BYTE   W08
 BYTE   N03  En1  v072
 BYTE   W04
 BYTE   Dn1  v040
 BYTE   W03
 BYTE   En1
 BYTE   W05
 BYTE   Dn1  v044
 BYTE   W04
 BYTE   N06  Dn1  v084
 BYTE   N07  An2  v012
 BYTE   W08
 BYTE   N06  En1  v108
 BYTE   N15  An2  v016
 BYTE   W07
 BYTE   N06  Dn1  v024
 BYTE   W09
 BYTE   En1  v080
 BYTE   N15  An2  v016
 BYTE   W08
 BYTE   N06  Dn1  v036
 BYTE   W07
 BYTE   En1  v048
 BYTE   N07  As2  v008
 BYTE   W09
 BYTE   PEND 
//  #10 //005   ----------------------------------------
 BYTE   N06  En1  v092
 BYTE   N07  An2  v012
 BYTE   W08
 BYTE   N06  Dn1  v024
 BYTE   N15  An2  v016
 BYTE   W07
 BYTE   N03  En1  v044
 BYTE   W05
 BYTE   N02  Dn1  v068
 BYTE   W04
 BYTE   N07  En1  v036
 BYTE   N21  An2  v016
 BYTE   W08
 BYTE   N06  Dn1  v076
 BYTE   W07
 BYTE   N07  En1  v096
 BYTE   W09
 BYTE   Dn1  v116
 BYTE   N07  An2  v008
 BYTE   W08
 BYTE   N06  En1  v032
 BYTE   N15  An2  v016
 BYTE   W07
 BYTE   N05  Fs1  v088
 BYTE   W09
 BYTE   N03  En1  v064
 BYTE   N15  An2  v016
 BYTE   W09
 BYTE   N02  En1  v044
 BYTE   W04
 BYTE   Dn1  v072
 BYTE   W02
 BYTE   N06  En1  v080
 BYTE   N07  As2  v008
 BYTE   W09
//  #10 //006   ----------------------------------------
Label_014138B4:
 BYTE   N06  En1  v064
 BYTE   N07  An2  v012
 BYTE   W08
 BYTE   N06  Dn1  v052
 BYTE   N15  An2  v016
 BYTE   W07
 BYTE   N06  En1  v100
 BYTE   W09
 BYTE   N07  Dn1  v120
 BYTE   N21  An2  v016
 BYTE   W08
 BYTE   N03  En1  v072
 BYTE   W04
 BYTE   Dn1  v056
 BYTE   W03
 BYTE   N07  En1  v068
 BYTE   W09
 BYTE   Dn1  v084
 BYTE   N07  An2  v012
 BYTE   W08
 BYTE   En1  v056
 BYTE   N15  An2  v016
 BYTE   W07
 BYTE   N07  Fs1  v076
 BYTE   W09
 BYTE   En1  v016
 BYTE   N15  An2
 BYTE   W08
 BYTE   N07  Dn1  v052
 BYTE   W07
 BYTE   N03  En1  v044
 BYTE   N07  As2  v008
 BYTE   W05
 BYTE   N03  Dn1  v072
 BYTE   W04
 BYTE   PEND 
//  #10 //007   ----------------------------------------
 BYTE   PATT
  POIN2 Label_014137D1
//  #10 //008   ----------------------------------------
 BYTE   PATT
  POIN2 Label_0141381A
//  #10 //009   ----------------------------------------
 BYTE   N06  En1  v092
 BYTE   N07  An2  v012
 BYTE   W08
 BYTE   N06  Dn1  v024
 BYTE   N15  An2  v016
 BYTE   W07
 BYTE   N03  En1  v044
 BYTE   W05
 BYTE   N02  Dn1  v068
 BYTE   W04
 BYTE   N07  En1  v036
 BYTE   N21  An2  v016
 BYTE   W08
 BYTE   N07  Dn1  v076
 BYTE   W07
 BYTE   En1  v096
 BYTE   W09
 BYTE   Dn1  v116
 BYTE   N07  An2  v008
 BYTE   W08
 BYTE   En1  v032
 BYTE   N15  An2  v016
 BYTE   W07
 BYTE   N05  Fs1  v088
 BYTE   W09
 BYTE   N03  En1  v064
 BYTE   N15  An2  v016
 BYTE   W09
 BYTE   N02  En1  v044
 BYTE   W04
 BYTE   N01  Dn1  v072
 BYTE   W02
 BYTE   N06  En1  v080
 BYTE   N07  As2  v008
 BYTE   W09
//  #10 //010   ----------------------------------------
 BYTE   PATT
  POIN2 Label_01413781
//  #10 //011   ----------------------------------------
 BYTE   PATT
  POIN2 Label_014137D1
//  #10 //012   ----------------------------------------
 BYTE   PATT
  POIN2 Label_0141381A
//  #10 //013   ----------------------------------------
 BYTE   PATT
  POIN2 Label_01413736
//  #10 //014   ----------------------------------------
 BYTE   PATT
  POIN2 Label_014138B4
//  #10 //015   ----------------------------------------
 BYTE   PATT
  POIN2 Label_014137D1
//  #10 //016   ----------------------------------------
 BYTE   PATT
  POIN2 Label_0141381A
//  #10 //017   ----------------------------------------
 BYTE   N06  En1  v092
 BYTE   N07  An2  v012
 BYTE   W08
 BYTE   N06  Dn1  v024
 BYTE   N15  An2  v016
 BYTE   W07
 BYTE   N03  En1  v044
 BYTE   W05
 BYTE   N02  Dn1  v068
 BYTE   W04
 BYTE   N07  En1  v036
 BYTE   N21  An2  v016
 BYTE   W08
 BYTE   N07  Dn1  v076
 BYTE   W07
 BYTE   En1  v096
 BYTE   W09
 BYTE   Dn1  v116
 BYTE   N07  An2  v008
 BYTE   W08
 BYTE   N06  En1  v032
 BYTE   N15  An2  v016
 BYTE   W07
 BYTE   N05  Fs1  v088
 BYTE   W09
 BYTE   N03  En1  v064
 BYTE   N15  An2  v016
 BYTE   W09
 BYTE   N02  En1  v044
 BYTE   W04
 BYTE   Dn1  v072
 BYTE   W02
 BYTE   N06  En1  v080
 BYTE   N07  As2  v008
 BYTE   W09
//  #10 //018   ----------------------------------------
 BYTE   N06  En1  v064
 BYTE   N07  An2  v012
 BYTE   W08
 BYTE   N06  Dn1  v052
 BYTE   N15  An2  v016
 BYTE   W07
 BYTE   N06  En1  v100
 BYTE   W09
 BYTE   N07  Dn1  v120
 BYTE   N21  An2  v016
 BYTE   W08
 BYTE   N03  En1  v072
 BYTE   W04
 BYTE   Dn1  v056
 BYTE   W03
 BYTE   N07  En1  v068
 BYTE   W09
 BYTE   Dn1  v084
 BYTE   N19  Fn2  v020
 BYTE   N07  An2  v012
 BYTE   W08
 BYTE   En1  v056
 BYTE   N15  An2  v016
 BYTE   W07
 BYTE   N07  Fs1  v076
 BYTE   W09
 BYTE   En1  v016
 BYTE   N19  Fn2  v032
 BYTE   N15  An2  v016
 BYTE   W08
 BYTE   N07  Dn1  v052
 BYTE   W07
 BYTE   N03  En1  v044
 BYTE   N07  As2  v008
 BYTE   W05
 BYTE   N03  Dn1  v072
 BYTE   W04
//  #10 //019   ----------------------------------------
 BYTE   N06  En1  v064
 BYTE   N15  Fn2  v016
 BYTE   N07  An2  v012
 BYTE   W08
 BYTE   N06  Dn1  v052
 BYTE   N15  An2  v016
 BYTE   W07
 BYTE   N06  En1  v028
 BYTE   N03  Fn2  v012
 BYTE   W05
 BYTE   Fn2  v024
 BYTE   W04
 BYTE   En1  v064
 BYTE   N19  Fn2  v032
 BYTE   N21  An2  v016
 BYTE   W03
 BYTE   N03  Dn1  v036
 BYTE   W05
 BYTE   En1  v072
 BYTE   W07
 BYTE   N06  Dn1  v080
 BYTE   W09
 BYTE   En1  v064
 BYTE   N15  Fn2  v016
 BYTE   N07  An2  v008
 BYTE   W08
 BYTE   N06  Dn1  v052
 BYTE   N15  An2  v016
 BYTE   W07
 BYTE   N06  En1  v100
 BYTE   N03  Fn2  v008
 BYTE   W05
 BYTE   Fn2  v024
 BYTE   W04
 BYTE   N06  Dn1  v100
 BYTE   N19  Fn2  v032
 BYTE   N15  An2  v016
 BYTE   W08
 BYTE   N03  En1  v044
 BYTE   W04
 BYTE   Dn1  v072
 BYTE   W03
 BYTE   N06  En1  v080
 BYTE   N07  As2  v008
 BYTE   W09
//  #10 //020   ----------------------------------------
 BYTE   N03  Dn1  v048
 BYTE   N19  Fn2  v028
 BYTE   N07  An2  v012
 BYTE   W03
 BYTE   N03  En1  v052
 BYTE   W05
 BYTE   N06  Dn1  v068
 BYTE   N15  An2  v016
 BYTE   W07
 BYTE   N03  En1  v020
 BYTE   W05
 BYTE   Dn1  v048
 BYTE   W04
 BYTE   GoTo
  POIN2 Label_014136FB
 BYTE   FINE

//**************** Track 11 (Midi-Chn.10) ****************//

FE12DaysofTrainingRoyLili500_011:
//  #11 //000   ----------------------------------------
 BYTE   KEYSH   FE12DaysofTrainingRoyLili500_key+0
 BYTE   VOICE   70
 BYTE   MODT 0
 BYTE   LFOS 44
 BYTE   VOL   64*FE12DaysofTrainingRoyLili500_mvl/mxv
 BYTE   PAN   c_v-30
 BYTE   BEND   c_v+0
 BYTE   W24
Label_01413AA3:
 BYTE   VOL   64*FE12DaysofTrainingRoyLili500_mvl/mxv
 BYTE   W72
//  #11 //001   ----------------------------------------
 BYTE   W96
//  #11 //002   ----------------------------------------
 BYTE   W96
//  #11 //003   ----------------------------------------
 BYTE   W96
//  #11 //004   ----------------------------------------
 BYTE   W96
//  #11 //005   ----------------------------------------
 BYTE   W96
//  #11 //006   ----------------------------------------
 BYTE   W32
 BYTE   VOL   0*FE12DaysofTrainingRoyLili500_mvl/mxv
 BYTE   W07
 BYTE   N22  Dn2  v127
 BYTE   W01
 BYTE   VOL   0*FE12DaysofTrainingRoyLili500_mvl/mxv
 BYTE   W01
 BYTE   VOL   0*FE12DaysofTrainingRoyLili500_mvl/mxv
 BYTE   W01
 BYTE   VOL   0*FE12DaysofTrainingRoyLili500_mvl/mxv
 BYTE   W01
 BYTE   VOL   0*FE12DaysofTrainingRoyLili500_mvl/mxv
 BYTE   W01
 BYTE   VOL   0*FE12DaysofTrainingRoyLili500_mvl/mxv
 BYTE   W01
 BYTE   VOL   5*FE12DaysofTrainingRoyLili500_mvl/mxv
 BYTE   W01
 BYTE   VOL   9*FE12DaysofTrainingRoyLili500_mvl/mxv
 BYTE   W01
 BYTE   VOL   15*FE12DaysofTrainingRoyLili500_mvl/mxv
 BYTE   W01
 BYTE   VOL   20*FE12DaysofTrainingRoyLili500_mvl/mxv
 BYTE   W01
 BYTE   VOL   27*FE12DaysofTrainingRoyLili500_mvl/mxv
 BYTE   W01
 BYTE   VOL   36*FE12DaysofTrainingRoyLili500_mvl/mxv
 BYTE   W01
 BYTE   VOL   39*FE12DaysofTrainingRoyLili500_mvl/mxv
 BYTE   W01
 BYTE   VOL   41*FE12DaysofTrainingRoyLili500_mvl/mxv
 BYTE   W02
 BYTE   VOL   45*FE12DaysofTrainingRoyLili500_mvl/mxv
 BYTE   W02
 BYTE   VOL   49*FE12DaysofTrainingRoyLili500_mvl/mxv
 BYTE   W01
 BYTE   VOL   52*FE12DaysofTrainingRoyLili500_mvl/mxv
 BYTE   W01
 BYTE   VOL   56*FE12DaysofTrainingRoyLili500_mvl/mxv
 BYTE   W02
 BYTE   VOL   59*FE12DaysofTrainingRoyLili500_mvl/mxv
 BYTE   W01
 BYTE   VOL   61*FE12DaysofTrainingRoyLili500_mvl/mxv
 BYTE   W02
 BYTE   N07  Ds2
 BYTE   W09
 BYTE   VOL   61*FE12DaysofTrainingRoyLili500_mvl/mxv
 BYTE   N22  Fn2
 BYTE   W01
 BYTE   VOL   58*FE12DaysofTrainingRoyLili500_mvl/mxv
 BYTE   W02
 BYTE   VOL   53*FE12DaysofTrainingRoyLili500_mvl/mxv
 BYTE   W01
 BYTE   VOL   49*FE12DaysofTrainingRoyLili500_mvl/mxv
 BYTE   W02
 BYTE   VOL   46*FE12DaysofTrainingRoyLili500_mvl/mxv
 BYTE   W02
 BYTE   VOL   47*FE12DaysofTrainingRoyLili500_mvl/mxv
 BYTE   W04
 BYTE   VOL   51*FE12DaysofTrainingRoyLili500_mvl/mxv
 BYTE   W03
 BYTE   VOL   52*FE12DaysofTrainingRoyLili500_mvl/mxv
 BYTE   W03
 BYTE   VOL   56*FE12DaysofTrainingRoyLili500_mvl/mxv
 BYTE   W02
 BYTE   VOL   58*FE12DaysofTrainingRoyLili500_mvl/mxv
 BYTE   W02
 BYTE   VOL   60*FE12DaysofTrainingRoyLili500_mvl/mxv
 BYTE   W02
//  #11 //007   ----------------------------------------
 BYTE   N14  As2
 BYTE   W15
 BYTE   N02  An2  v080
 BYTE   W04
 BYTE   As2  v096
 BYTE   W05
 BYTE   N07  An2  v127
 BYTE   W15
 BYTE   Fn2
 BYTE   W09
 BYTE   N22  Gn2
 BYTE   W01
 BYTE   VOL   60*FE12DaysofTrainingRoyLili500_mvl/mxv
 BYTE   W01
 BYTE   VOL   58*FE12DaysofTrainingRoyLili500_mvl/mxv
 BYTE   W01
 BYTE   VOL   54*FE12DaysofTrainingRoyLili500_mvl/mxv
 BYTE   W02
 BYTE   VOL   51*FE12DaysofTrainingRoyLili500_mvl/mxv
 BYTE   W02
 BYTE   VOL   49*FE12DaysofTrainingRoyLili500_mvl/mxv
 BYTE   W01
 BYTE   VOL   46*FE12DaysofTrainingRoyLili500_mvl/mxv
 BYTE   W01
 BYTE   VOL   43*FE12DaysofTrainingRoyLili500_mvl/mxv
 BYTE   W01
 BYTE   VOL   41*FE12DaysofTrainingRoyLili500_mvl/mxv
 BYTE   W02
 BYTE   VOL   41*FE12DaysofTrainingRoyLili500_mvl/mxv
 BYTE   W02
 BYTE   VOL   43*FE12DaysofTrainingRoyLili500_mvl/mxv
 BYTE   W01
 BYTE   VOL   44*FE12DaysofTrainingRoyLili500_mvl/mxv
 BYTE   W01
 BYTE   VOL   46*FE12DaysofTrainingRoyLili500_mvl/mxv
 BYTE   W02
 BYTE   VOL   47*FE12DaysofTrainingRoyLili500_mvl/mxv
 BYTE   W02
 BYTE   VOL   49*FE12DaysofTrainingRoyLili500_mvl/mxv
 BYTE   W01
 BYTE   VOL   49*FE12DaysofTrainingRoyLili500_mvl/mxv
 BYTE   W01
 BYTE   VOL   51*FE12DaysofTrainingRoyLili500_mvl/mxv
 BYTE   W02
 BYTE   VOL   52*FE12DaysofTrainingRoyLili500_mvl/mxv
 BYTE   N22  Dn3
 BYTE   W02
 BYTE   VOL   54*FE12DaysofTrainingRoyLili500_mvl/mxv
 BYTE   W01
 BYTE   VOL   56*FE12DaysofTrainingRoyLili500_mvl/mxv
 BYTE   W01
 BYTE   VOL   54*FE12DaysofTrainingRoyLili500_mvl/mxv
 BYTE   W02
 BYTE   VOL   52*FE12DaysofTrainingRoyLili500_mvl/mxv
 BYTE   W01
 BYTE   VOL   51*FE12DaysofTrainingRoyLili500_mvl/mxv
 BYTE   W01
 BYTE   VOL   49*FE12DaysofTrainingRoyLili500_mvl/mxv
 BYTE   W01
 BYTE   VOL   49*FE12DaysofTrainingRoyLili500_mvl/mxv
 BYTE   W01
 BYTE   VOL   49*FE12DaysofTrainingRoyLili500_mvl/mxv
 BYTE   W02
 BYTE   VOL   51*FE12DaysofTrainingRoyLili500_mvl/mxv
 BYTE   W02
 BYTE   VOL   53*FE12DaysofTrainingRoyLili500_mvl/mxv
 BYTE   W01
 BYTE   VOL   54*FE12DaysofTrainingRoyLili500_mvl/mxv
 BYTE   W01
 BYTE   VOL   56*FE12DaysofTrainingRoyLili500_mvl/mxv
 BYTE   W02
 BYTE   VOL   58*FE12DaysofTrainingRoyLili500_mvl/mxv
 BYTE   W02
 BYTE   VOL   60*FE12DaysofTrainingRoyLili500_mvl/mxv
 BYTE   W01
 BYTE   VOL   61*FE12DaysofTrainingRoyLili500_mvl/mxv
 BYTE   W01
 BYTE   VOL   64*FE12DaysofTrainingRoyLili500_mvl/mxv
 BYTE   W02
//  #11 //008   ----------------------------------------
 BYTE   N07  Cn3
 BYTE   W08
 BYTE   N03  As2
 BYTE   W07
 BYTE   N04  An2
 BYTE   W09
 BYTE   N07  Gn2
 BYTE   W08
 BYTE   N03  An2
 BYTE   W07
 BYTE   N04  As2
 BYTE   W09
 BYTE   VOL   64*FE12DaysofTrainingRoyLili500_mvl/mxv
 BYTE   N44  Gn2
 BYTE   W02
 BYTE   VOL   61*FE12DaysofTrainingRoyLili500_mvl/mxv
 BYTE   W01
 BYTE   VOL   58*FE12DaysofTrainingRoyLili500_mvl/mxv
 BYTE   W01
 BYTE   VOL   54*FE12DaysofTrainingRoyLili500_mvl/mxv
 BYTE   W02
 BYTE   VOL   51*FE12DaysofTrainingRoyLili500_mvl/mxv
 BYTE   W02
 BYTE   VOL   47*FE12DaysofTrainingRoyLili500_mvl/mxv
 BYTE   W01
 BYTE   VOL   45*FE12DaysofTrainingRoyLili500_mvl/mxv
 BYTE   W01
 BYTE   VOL   41*FE12DaysofTrainingRoyLili500_mvl/mxv
 BYTE   W02
 BYTE   VOL   40*FE12DaysofTrainingRoyLili500_mvl/mxv
 BYTE   W02
 BYTE   VOL   37*FE12DaysofTrainingRoyLili500_mvl/mxv
 BYTE   W01
 BYTE   VOL   35*FE12DaysofTrainingRoyLili500_mvl/mxv
 BYTE   W07
 BYTE   VOL   35*FE12DaysofTrainingRoyLili500_mvl/mxv
 BYTE   W08
 BYTE   VOL   36*FE12DaysofTrainingRoyLili500_mvl/mxv
 BYTE   W02
 BYTE   VOL   38*FE12DaysofTrainingRoyLili500_mvl/mxv
 BYTE   W01
 BYTE   VOL   41*FE12DaysofTrainingRoyLili500_mvl/mxv
 BYTE   W01
 BYTE   VOL   42*FE12DaysofTrainingRoyLili500_mvl/mxv
 BYTE   W02
 BYTE   VOL   45*FE12DaysofTrainingRoyLili500_mvl/mxv
 BYTE   W02
 BYTE   VOL   47*FE12DaysofTrainingRoyLili500_mvl/mxv
 BYTE   W01
 BYTE   VOL   51*FE12DaysofTrainingRoyLili500_mvl/mxv
 BYTE   W01
 BYTE   VOL   53*FE12DaysofTrainingRoyLili500_mvl/mxv
 BYTE   W02
 BYTE   VOL   56*FE12DaysofTrainingRoyLili500_mvl/mxv
 BYTE   W02
 BYTE   VOL   58*FE12DaysofTrainingRoyLili500_mvl/mxv
 BYTE   W01
 BYTE   VOL   61*FE12DaysofTrainingRoyLili500_mvl/mxv
 BYTE   W01
 BYTE   VOL   64*FE12DaysofTrainingRoyLili500_mvl/mxv
 BYTE   W02
//  #11 //009   ----------------------------------------
 BYTE   VOL   63*FE12DaysofTrainingRoyLili500_mvl/mxv
 BYTE   N22  Fn2
 BYTE   W01
 BYTE   VOL   59*FE12DaysofTrainingRoyLili500_mvl/mxv
 BYTE   W01
 BYTE   VOL   58*FE12DaysofTrainingRoyLili500_mvl/mxv
 BYTE   W02
 BYTE   VOL   54*FE12DaysofTrainingRoyLili500_mvl/mxv
 BYTE   W02
 BYTE   VOL   52*FE12DaysofTrainingRoyLili500_mvl/mxv
 BYTE   W01
 BYTE   VOL   51*FE12DaysofTrainingRoyLili500_mvl/mxv
 BYTE   W02
 BYTE   VOL   52*FE12DaysofTrainingRoyLili500_mvl/mxv
 BYTE   W04
 BYTE   VOL   56*FE12DaysofTrainingRoyLili500_mvl/mxv
 BYTE   W02
 BYTE   VOL   58*FE12DaysofTrainingRoyLili500_mvl/mxv
 BYTE   W04
 BYTE   VOL   60*FE12DaysofTrainingRoyLili500_mvl/mxv
 BYTE   W02
 BYTE   VOL   63*FE12DaysofTrainingRoyLili500_mvl/mxv
 BYTE   W03
 BYTE   VOL   64*FE12DaysofTrainingRoyLili500_mvl/mxv
 BYTE   N07  Ds2
 BYTE   W08
 BYTE   N03  Fn2
 BYTE   W07
 BYTE   N04  Gn2
 BYTE   W08
 BYTE   VOL   64*FE12DaysofTrainingRoyLili500_mvl/mxv
 BYTE   W01
 BYTE   N68  Dn2
 BYTE   W01
 BYTE   VOL   60*FE12DaysofTrainingRoyLili500_mvl/mxv
 BYTE   W01
 BYTE   VOL   56*FE12DaysofTrainingRoyLili500_mvl/mxv
 BYTE   W01
 BYTE   VOL   51*FE12DaysofTrainingRoyLili500_mvl/mxv
 BYTE   W02
 BYTE   VOL   47*FE12DaysofTrainingRoyLili500_mvl/mxv
 BYTE   W02
 BYTE   VOL   44*FE12DaysofTrainingRoyLili500_mvl/mxv
 BYTE   W01
 BYTE   VOL   39*FE12DaysofTrainingRoyLili500_mvl/mxv
 BYTE   W04
 BYTE   VOL   40*FE12DaysofTrainingRoyLili500_mvl/mxv
 BYTE   W03
 BYTE   VOL   41*FE12DaysofTrainingRoyLili500_mvl/mxv
 BYTE   W04
 BYTE   VOL   41*FE12DaysofTrainingRoyLili500_mvl/mxv
 BYTE   W03
 BYTE   VOL   42*FE12DaysofTrainingRoyLili500_mvl/mxv
 BYTE   W03
 BYTE   VOL   44*FE12DaysofTrainingRoyLili500_mvl/mxv
 BYTE   W03
 BYTE   VOL   46*FE12DaysofTrainingRoyLili500_mvl/mxv
 BYTE   W01
 BYTE   VOL   47*FE12DaysofTrainingRoyLili500_mvl/mxv
 BYTE   W03
 BYTE   VOL   45*FE12DaysofTrainingRoyLili500_mvl/mxv
 BYTE   W03
 BYTE   VOL   43*FE12DaysofTrainingRoyLili500_mvl/mxv
 BYTE   W03
 BYTE   VOL   41*FE12DaysofTrainingRoyLili500_mvl/mxv
 BYTE   W03
 BYTE   VOL   41*FE12DaysofTrainingRoyLili500_mvl/mxv
 BYTE   W03
 BYTE   VOL   39*FE12DaysofTrainingRoyLili500_mvl/mxv
 BYTE   W03
 BYTE   VOL   37*FE12DaysofTrainingRoyLili500_mvl/mxv
 BYTE   W01
//  #11 //010   ----------------------------------------
 BYTE   W02
 BYTE   VOL   35*FE12DaysofTrainingRoyLili500_mvl/mxv
 BYTE   W03
 BYTE   VOL   34*FE12DaysofTrainingRoyLili500_mvl/mxv
 BYTE   W01
 BYTE   VOL   33*FE12DaysofTrainingRoyLili500_mvl/mxv
 BYTE   W01
 BYTE   VOL   27*FE12DaysofTrainingRoyLili500_mvl/mxv
 BYTE   W01
 BYTE   VOL   25*FE12DaysofTrainingRoyLili500_mvl/mxv
 BYTE   W01
 BYTE   VOL   20*FE12DaysofTrainingRoyLili500_mvl/mxv
 BYTE   W01
 BYTE   VOL   18*FE12DaysofTrainingRoyLili500_mvl/mxv
 BYTE   W01
 BYTE   VOL   15*FE12DaysofTrainingRoyLili500_mvl/mxv
 BYTE   W01
 BYTE   VOL   12*FE12DaysofTrainingRoyLili500_mvl/mxv
 BYTE   W01
 BYTE   VOL   8*FE12DaysofTrainingRoyLili500_mvl/mxv
 BYTE   W01
 BYTE   VOL   6*FE12DaysofTrainingRoyLili500_mvl/mxv
 BYTE   W01
 BYTE   VOL   3*FE12DaysofTrainingRoyLili500_mvl/mxv
 BYTE   W01
 BYTE   VOL   1*FE12DaysofTrainingRoyLili500_mvl/mxv
 BYTE   W01
 BYTE   VOL   0*FE12DaysofTrainingRoyLili500_mvl/mxv
 BYTE   W01
 BYTE   VOL   0*FE12DaysofTrainingRoyLili500_mvl/mxv
 BYTE   W01
 BYTE   VOL   0*FE12DaysofTrainingRoyLili500_mvl/mxv
 BYTE   W01
 BYTE   VOL   0*FE12DaysofTrainingRoyLili500_mvl/mxv
 BYTE   W01
 BYTE   VOL   0*FE12DaysofTrainingRoyLili500_mvl/mxv
 BYTE   W01
 BYTE   VOL   0*FE12DaysofTrainingRoyLili500_mvl/mxv
 BYTE   W01
 BYTE   VOL   0*FE12DaysofTrainingRoyLili500_mvl/mxv
 BYTE   W01
 BYTE   VOL   0*FE12DaysofTrainingRoyLili500_mvl/mxv
 BYTE   W01
 BYTE   VOL   0*FE12DaysofTrainingRoyLili500_mvl/mxv
 BYTE   W68
 BYTE   W03
//  #11 //011   ----------------------------------------
 BYTE   W96
//  #11 //012   ----------------------------------------
 BYTE   W96
//  #11 //013   ----------------------------------------
 BYTE   W96
//  #11 //014   ----------------------------------------
 BYTE   W24
 BYTE   W02
 BYTE   VOL   0*FE12DaysofTrainingRoyLili500_mvl/mxv
 BYTE   W01
 BYTE   VOL   0*FE12DaysofTrainingRoyLili500_mvl/mxv
 BYTE   W01
 BYTE   VOL   0*FE12DaysofTrainingRoyLili500_mvl/mxv
 BYTE   W02
 BYTE   VOL   0*FE12DaysofTrainingRoyLili500_mvl/mxv
 BYTE   W01
 BYTE   VOL   0*FE12DaysofTrainingRoyLili500_mvl/mxv
 BYTE   W01
 BYTE   VOL   0*FE12DaysofTrainingRoyLili500_mvl/mxv
 BYTE   W01
 BYTE   VOL   5*FE12DaysofTrainingRoyLili500_mvl/mxv
 BYTE   W01
 BYTE   VOL   10*FE12DaysofTrainingRoyLili500_mvl/mxv
 BYTE   W02
 BYTE   VOL   17*FE12DaysofTrainingRoyLili500_mvl/mxv
 BYTE   W01
 BYTE   VOL   20*FE12DaysofTrainingRoyLili500_mvl/mxv
 BYTE   W01
 BYTE   VOL   27*FE12DaysofTrainingRoyLili500_mvl/mxv
 BYTE   W01
 BYTE   VOL   30*FE12DaysofTrainingRoyLili500_mvl/mxv
 BYTE   W01
 BYTE   VOL   39*FE12DaysofTrainingRoyLili500_mvl/mxv
 BYTE   W02
 BYTE   VOL   47*FE12DaysofTrainingRoyLili500_mvl/mxv
 BYTE   W01
 BYTE   VOL   51*FE12DaysofTrainingRoyLili500_mvl/mxv
 BYTE   W01
 BYTE   VOL   61*FE12DaysofTrainingRoyLili500_mvl/mxv
 BYTE   W01
 BYTE   VOL   64*FE12DaysofTrainingRoyLili500_mvl/mxv
 BYTE   W01
 BYTE   VOL   61*FE12DaysofTrainingRoyLili500_mvl/mxv
 BYTE   W02
 BYTE   VOL   58*FE12DaysofTrainingRoyLili500_mvl/mxv
 BYTE   N17  Ds2
 BYTE   W02
 BYTE   VOL   54*FE12DaysofTrainingRoyLili500_mvl/mxv
 BYTE   W01
 BYTE   VOL   51*FE12DaysofTrainingRoyLili500_mvl/mxv
 BYTE   W01
 BYTE   VOL   47*FE12DaysofTrainingRoyLili500_mvl/mxv
 BYTE   W02
 BYTE   VOL   45*FE12DaysofTrainingRoyLili500_mvl/mxv
 BYTE   W01
 BYTE   VOL   47*FE12DaysofTrainingRoyLili500_mvl/mxv
 BYTE   W01
 BYTE   VOL   51*FE12DaysofTrainingRoyLili500_mvl/mxv
 BYTE   W02
 BYTE   VOL   53*FE12DaysofTrainingRoyLili500_mvl/mxv
 BYTE   W02
 BYTE   VOL   56*FE12DaysofTrainingRoyLili500_mvl/mxv
 BYTE   W01
 BYTE   VOL   59*FE12DaysofTrainingRoyLili500_mvl/mxv
 BYTE   W02
 BYTE   VOL   64*FE12DaysofTrainingRoyLili500_mvl/mxv
 BYTE   W03
 BYTE   N02  Gs2  v108
 BYTE   W02
 BYTE   An2
 BYTE   W04
 BYTE   VOL   64*FE12DaysofTrainingRoyLili500_mvl/mxv
 BYTE   N22  As2  v127
 BYTE   W01
 BYTE   VOL   63*FE12DaysofTrainingRoyLili500_mvl/mxv
 BYTE   W02
 BYTE   VOL   61*FE12DaysofTrainingRoyLili500_mvl/mxv
 BYTE   W01
 BYTE   VOL   59*FE12DaysofTrainingRoyLili500_mvl/mxv
 BYTE   W02
 BYTE   VOL   58*FE12DaysofTrainingRoyLili500_mvl/mxv
 BYTE   W01
 BYTE   VOL   56*FE12DaysofTrainingRoyLili500_mvl/mxv
 BYTE   W01
 BYTE   VOL   54*FE12DaysofTrainingRoyLili500_mvl/mxv
 BYTE   W02
 BYTE   VOL   52*FE12DaysofTrainingRoyLili500_mvl/mxv
 BYTE   W02
 BYTE   VOL   51*FE12DaysofTrainingRoyLili500_mvl/mxv
 BYTE   W01
 BYTE   VOL   49*FE12DaysofTrainingRoyLili500_mvl/mxv
 BYTE   W01
 BYTE   VOL   47*FE12DaysofTrainingRoyLili500_mvl/mxv
 BYTE   W02
 BYTE   VOL   47*FE12DaysofTrainingRoyLili500_mvl/mxv
 BYTE   W02
 BYTE   VOL   45*FE12DaysofTrainingRoyLili500_mvl/mxv
 BYTE   W01
 BYTE   VOL   43*FE12DaysofTrainingRoyLili500_mvl/mxv
 BYTE   W02
 BYTE   VOL   41*FE12DaysofTrainingRoyLili500_mvl/mxv
 BYTE   W01
 BYTE   VOL   43*FE12DaysofTrainingRoyLili500_mvl/mxv
 BYTE   W02
//  #11 //015   ----------------------------------------
 BYTE   VOL   45*FE12DaysofTrainingRoyLili500_mvl/mxv
 BYTE   N17  Gs2
 BYTE   W01
 BYTE   VOL   47*FE12DaysofTrainingRoyLili500_mvl/mxv
 BYTE   W01
 BYTE   VOL   49*FE12DaysofTrainingRoyLili500_mvl/mxv
 BYTE   W02
 BYTE   VOL   51*FE12DaysofTrainingRoyLili500_mvl/mxv
 BYTE   W02
 BYTE   VOL   52*FE12DaysofTrainingRoyLili500_mvl/mxv
 BYTE   W01
 BYTE   VOL   54*FE12DaysofTrainingRoyLili500_mvl/mxv
 BYTE   W02
 BYTE   VOL   56*FE12DaysofTrainingRoyLili500_mvl/mxv
 BYTE   W01
 BYTE   VOL   58*FE12DaysofTrainingRoyLili500_mvl/mxv
 BYTE   W02
 BYTE   VOL   60*FE12DaysofTrainingRoyLili500_mvl/mxv
 BYTE   W01
 BYTE   VOL   63*FE12DaysofTrainingRoyLili500_mvl/mxv
 BYTE   W01
 BYTE   VOL   64*FE12DaysofTrainingRoyLili500_mvl/mxv
 BYTE   W04
 BYTE   N02  Cs3  v076
 BYTE   W03
 BYTE   Dn3  v108
 BYTE   W03
 BYTE   N22  Ds3  v127
 BYTE   W01
 BYTE   VOL   64*FE12DaysofTrainingRoyLili500_mvl/mxv
 BYTE   W01
 BYTE   VOL   63*FE12DaysofTrainingRoyLili500_mvl/mxv
 BYTE   W01
 BYTE   VOL   60*FE12DaysofTrainingRoyLili500_mvl/mxv
 BYTE   W02
 BYTE   VOL   58*FE12DaysofTrainingRoyLili500_mvl/mxv
 BYTE   W02
 BYTE   VOL   56*FE12DaysofTrainingRoyLili500_mvl/mxv
 BYTE   W01
 BYTE   VOL   54*FE12DaysofTrainingRoyLili500_mvl/mxv
 BYTE   W01
 BYTE   VOL   52*FE12DaysofTrainingRoyLili500_mvl/mxv
 BYTE   W02
 BYTE   VOL   51*FE12DaysofTrainingRoyLili500_mvl/mxv
 BYTE   W02
 BYTE   VOL   49*FE12DaysofTrainingRoyLili500_mvl/mxv
 BYTE   W01
 BYTE   VOL   47*FE12DaysofTrainingRoyLili500_mvl/mxv
 BYTE   W01
 BYTE   VOL   45*FE12DaysofTrainingRoyLili500_mvl/mxv
 BYTE   W02
 BYTE   VOL   43*FE12DaysofTrainingRoyLili500_mvl/mxv
 BYTE   W02
 BYTE   VOL   41*FE12DaysofTrainingRoyLili500_mvl/mxv
 BYTE   W01
 BYTE   VOL   41*FE12DaysofTrainingRoyLili500_mvl/mxv
 BYTE   W01
 BYTE   VOL   39*FE12DaysofTrainingRoyLili500_mvl/mxv
 BYTE   W02
 BYTE   VOL   37*FE12DaysofTrainingRoyLili500_mvl/mxv
 BYTE   W01
 BYTE   VOL   36*FE12DaysofTrainingRoyLili500_mvl/mxv
 BYTE   N22  Cs3
 BYTE   W02
 BYTE   VOL   37*FE12DaysofTrainingRoyLili500_mvl/mxv
 BYTE   W01
 BYTE   VOL   39*FE12DaysofTrainingRoyLili500_mvl/mxv
 BYTE   W01
 BYTE   VOL   41*FE12DaysofTrainingRoyLili500_mvl/mxv
 BYTE   W02
 BYTE   VOL   41*FE12DaysofTrainingRoyLili500_mvl/mxv
 BYTE   W02
 BYTE   VOL   43*FE12DaysofTrainingRoyLili500_mvl/mxv
 BYTE   W01
 BYTE   VOL   45*FE12DaysofTrainingRoyLili500_mvl/mxv
 BYTE   W01
 BYTE   VOL   47*FE12DaysofTrainingRoyLili500_mvl/mxv
 BYTE   W02
 BYTE   VOL   49*FE12DaysofTrainingRoyLili500_mvl/mxv
 BYTE   W02
 BYTE   VOL   51*FE12DaysofTrainingRoyLili500_mvl/mxv
 BYTE   W01
 BYTE   VOL   52*FE12DaysofTrainingRoyLili500_mvl/mxv
 BYTE   W01
 BYTE   VOL   54*FE12DaysofTrainingRoyLili500_mvl/mxv
 BYTE   W02
 BYTE   VOL   56*FE12DaysofTrainingRoyLili500_mvl/mxv
 BYTE   W02
 BYTE   VOL   58*FE12DaysofTrainingRoyLili500_mvl/mxv
 BYTE   W01
 BYTE   VOL   60*FE12DaysofTrainingRoyLili500_mvl/mxv
 BYTE   W01
 BYTE   VOL   63*FE12DaysofTrainingRoyLili500_mvl/mxv
 BYTE   W01
 BYTE   VOL   63*FE12DaysofTrainingRoyLili500_mvl/mxv
 BYTE   W01
 BYTE   N22  Fn3  v112
 BYTE   W01
 BYTE   VOL   63*FE12DaysofTrainingRoyLili500_mvl/mxv
 BYTE   W01
 BYTE   VOL   60*FE12DaysofTrainingRoyLili500_mvl/mxv
 BYTE   W01
 BYTE   VOL   58*FE12DaysofTrainingRoyLili500_mvl/mxv
 BYTE   W02
 BYTE   VOL   56*FE12DaysofTrainingRoyLili500_mvl/mxv
 BYTE   W02
 BYTE   VOL   54*FE12DaysofTrainingRoyLili500_mvl/mxv
 BYTE   W01
 BYTE   VOL   52*FE12DaysofTrainingRoyLili500_mvl/mxv
 BYTE   W01
 BYTE   VOL   51*FE12DaysofTrainingRoyLili500_mvl/mxv
 BYTE   W02
 BYTE   VOL   49*FE12DaysofTrainingRoyLili500_mvl/mxv
 BYTE   W02
 BYTE   VOL   47*FE12DaysofTrainingRoyLili500_mvl/mxv
 BYTE   W01
 BYTE   VOL   45*FE12DaysofTrainingRoyLili500_mvl/mxv
 BYTE   W01
 BYTE   VOL   43*FE12DaysofTrainingRoyLili500_mvl/mxv
 BYTE   W02
 BYTE   VOL   41*FE12DaysofTrainingRoyLili500_mvl/mxv
 BYTE   W02
 BYTE   VOL   41*FE12DaysofTrainingRoyLili500_mvl/mxv
 BYTE   W01
 BYTE   VOL   39*FE12DaysofTrainingRoyLili500_mvl/mxv
 BYTE   W01
 BYTE   VOL   36*FE12DaysofTrainingRoyLili500_mvl/mxv
 BYTE   W02
 BYTE   VOL   38*FE12DaysofTrainingRoyLili500_mvl/mxv
 BYTE   W01
//  #11 //016   ----------------------------------------
 BYTE   N17  Ds3
 BYTE   W01
 BYTE   VOL   40*FE12DaysofTrainingRoyLili500_mvl/mxv
 BYTE   W01
 BYTE   VOL   41*FE12DaysofTrainingRoyLili500_mvl/mxv
 BYTE   W01
 BYTE   VOL   43*FE12DaysofTrainingRoyLili500_mvl/mxv
 BYTE   W02
 BYTE   VOL   45*FE12DaysofTrainingRoyLili500_mvl/mxv
 BYTE   W02
 BYTE   VOL   47*FE12DaysofTrainingRoyLili500_mvl/mxv
 BYTE   W01
 BYTE   VOL   49*FE12DaysofTrainingRoyLili500_mvl/mxv
 BYTE   W01
 BYTE   VOL   51*FE12DaysofTrainingRoyLili500_mvl/mxv
 BYTE   W02
 BYTE   VOL   53*FE12DaysofTrainingRoyLili500_mvl/mxv
 BYTE   W02
 BYTE   VOL   56*FE12DaysofTrainingRoyLili500_mvl/mxv
 BYTE   W01
 BYTE   VOL   58*FE12DaysofTrainingRoyLili500_mvl/mxv
 BYTE   W01
 BYTE   VOL   60*FE12DaysofTrainingRoyLili500_mvl/mxv
 BYTE   W02
 BYTE   VOL   63*FE12DaysofTrainingRoyLili500_mvl/mxv
 BYTE   W01
 BYTE   VOL   64*FE12DaysofTrainingRoyLili500_mvl/mxv
 BYTE   N02  Gs3  v060
 BYTE   W02
 BYTE   An3  v088
 BYTE   W04
 BYTE   VOL   63*FE12DaysofTrainingRoyLili500_mvl/mxv
 BYTE   N44  As3  v100
 BYTE   W07
 BYTE   VOL   63*FE12DaysofTrainingRoyLili500_mvl/mxv
 BYTE   W01
 BYTE   VOL   61*FE12DaysofTrainingRoyLili500_mvl/mxv
 BYTE   W01
 BYTE   VOL   59*FE12DaysofTrainingRoyLili500_mvl/mxv
 BYTE   W02
 BYTE   VOL   58*FE12DaysofTrainingRoyLili500_mvl/mxv
 BYTE   W02
 BYTE   VOL   56*FE12DaysofTrainingRoyLili500_mvl/mxv
 BYTE   W01
 BYTE   VOL   53*FE12DaysofTrainingRoyLili500_mvl/mxv
 BYTE   W01
 BYTE   VOL   51*FE12DaysofTrainingRoyLili500_mvl/mxv
 BYTE   W02
 BYTE   VOL   49*FE12DaysofTrainingRoyLili500_mvl/mxv
 BYTE   W02
 BYTE   VOL   47*FE12DaysofTrainingRoyLili500_mvl/mxv
 BYTE   W01
 BYTE   VOL   47*FE12DaysofTrainingRoyLili500_mvl/mxv
 BYTE   W01
 BYTE   VOL   45*FE12DaysofTrainingRoyLili500_mvl/mxv
 BYTE   W02
 BYTE   VOL   43*FE12DaysofTrainingRoyLili500_mvl/mxv
 BYTE   W01
 BYTE   VOL   42*FE12DaysofTrainingRoyLili500_mvl/mxv
 BYTE   W03
 BYTE   VOL   43*FE12DaysofTrainingRoyLili500_mvl/mxv
 BYTE   W03
 BYTE   VOL   45*FE12DaysofTrainingRoyLili500_mvl/mxv
 BYTE   W02
 BYTE   VOL   47*FE12DaysofTrainingRoyLili500_mvl/mxv
 BYTE   W04
 BYTE   VOL   47*FE12DaysofTrainingRoyLili500_mvl/mxv
 BYTE   W02
 BYTE   VOL   49*FE12DaysofTrainingRoyLili500_mvl/mxv
 BYTE   W04
 BYTE   VOL   51*FE12DaysofTrainingRoyLili500_mvl/mxv
 BYTE   W03
 BYTE   VOL   52*FE12DaysofTrainingRoyLili500_mvl/mxv
 BYTE   W03
 BYTE   VOL   56*FE12DaysofTrainingRoyLili500_mvl/mxv
 BYTE   TIE  Gs3
 BYTE   W09
 BYTE   VOL   54*FE12DaysofTrainingRoyLili500_mvl/mxv
 BYTE   W04
 BYTE   VOL   53*FE12DaysofTrainingRoyLili500_mvl/mxv
 BYTE   W05
 BYTE   VOL   52*FE12DaysofTrainingRoyLili500_mvl/mxv
 BYTE   W04
 BYTE   VOL   51*FE12DaysofTrainingRoyLili500_mvl/mxv
 BYTE   W02
//  #11 //017   ----------------------------------------
 BYTE   W03
 BYTE   VOL   51*FE12DaysofTrainingRoyLili500_mvl/mxv
 BYTE   W04
 BYTE   VOL   49*FE12DaysofTrainingRoyLili500_mvl/mxv
 BYTE   W04
 BYTE   VOL   49*FE12DaysofTrainingRoyLili500_mvl/mxv
 BYTE   W04
 BYTE   VOL   47*FE12DaysofTrainingRoyLili500_mvl/mxv
 BYTE   W05
 BYTE   VOL   47*FE12DaysofTrainingRoyLili500_mvl/mxv
 BYTE   W05
 BYTE   VOL   46*FE12DaysofTrainingRoyLili500_mvl/mxv
 BYTE   W03
 BYTE   VOL   44*FE12DaysofTrainingRoyLili500_mvl/mxv
 BYTE   W04
 BYTE   VOL   43*FE12DaysofTrainingRoyLili500_mvl/mxv
 BYTE   W02
 BYTE   VOL   41*FE12DaysofTrainingRoyLili500_mvl/mxv
 BYTE   W04
 BYTE   VOL   41*FE12DaysofTrainingRoyLili500_mvl/mxv
 BYTE   W02
 BYTE   VOL   40*FE12DaysofTrainingRoyLili500_mvl/mxv
 BYTE   W04
 BYTE   VOL   38*FE12DaysofTrainingRoyLili500_mvl/mxv
 BYTE   W02
 BYTE   VOL   36*FE12DaysofTrainingRoyLili500_mvl/mxv
 BYTE   W04
 BYTE   VOL   35*FE12DaysofTrainingRoyLili500_mvl/mxv
 BYTE   W02
 BYTE   VOL   34*FE12DaysofTrainingRoyLili500_mvl/mxv
 BYTE   W04
 BYTE   VOL   32*FE12DaysofTrainingRoyLili500_mvl/mxv
 BYTE   W02
 BYTE   VOL   31*FE12DaysofTrainingRoyLili500_mvl/mxv
 BYTE   W04
 BYTE   VOL   30*FE12DaysofTrainingRoyLili500_mvl/mxv
 BYTE   W02
 BYTE   VOL   28*FE12DaysofTrainingRoyLili500_mvl/mxv
 BYTE   W02
 BYTE   VOL   27*FE12DaysofTrainingRoyLili500_mvl/mxv
 BYTE   W02
 BYTE   VOL   26*FE12DaysofTrainingRoyLili500_mvl/mxv
 BYTE   W01
 BYTE   VOL   24*FE12DaysofTrainingRoyLili500_mvl/mxv
 BYTE   W01
 BYTE   VOL   22*FE12DaysofTrainingRoyLili500_mvl/mxv
 BYTE   W02
 BYTE   VOL   20*FE12DaysofTrainingRoyLili500_mvl/mxv
 BYTE   W02
 BYTE   VOL   18*FE12DaysofTrainingRoyLili500_mvl/mxv
 BYTE   W01
 BYTE   VOL   17*FE12DaysofTrainingRoyLili500_mvl/mxv
 BYTE   W01
 BYTE   VOL   15*FE12DaysofTrainingRoyLili500_mvl/mxv
 BYTE   W02
 BYTE   VOL   13*FE12DaysofTrainingRoyLili500_mvl/mxv
 BYTE   W02
 BYTE   VOL   12*FE12DaysofTrainingRoyLili500_mvl/mxv
 BYTE   W01
 BYTE   VOL   10*FE12DaysofTrainingRoyLili500_mvl/mxv
 BYTE   W01
 BYTE   VOL   9*FE12DaysofTrainingRoyLili500_mvl/mxv
 BYTE   W02
 BYTE   VOL   7*FE12DaysofTrainingRoyLili500_mvl/mxv
 BYTE   W02
 BYTE   VOL   5*FE12DaysofTrainingRoyLili500_mvl/mxv
 BYTE   W01
 BYTE   VOL   5*FE12DaysofTrainingRoyLili500_mvl/mxv
 BYTE   W01
 BYTE   VOL   3*FE12DaysofTrainingRoyLili500_mvl/mxv
 BYTE   W02
 BYTE   VOL   2*FE12DaysofTrainingRoyLili500_mvl/mxv
 BYTE   W02
 BYTE   VOL   1*FE12DaysofTrainingRoyLili500_mvl/mxv
 BYTE   W01
 BYTE   VOL   0*FE12DaysofTrainingRoyLili500_mvl/mxv
 BYTE   W01
 BYTE   VOL   0*FE12DaysofTrainingRoyLili500_mvl/mxv
 BYTE   W02
//  #11 //018   ----------------------------------------
 BYTE   VOL   0*FE12DaysofTrainingRoyLili500_mvl/mxv
 BYTE   W02
 BYTE   VOL   0*FE12DaysofTrainingRoyLili500_mvl/mxv
 BYTE   W01
 BYTE   VOL   0*FE12DaysofTrainingRoyLili500_mvl/mxv
 BYTE   W01
 BYTE   VOL   0*FE12DaysofTrainingRoyLili500_mvl/mxv
 BYTE   W02
 BYTE   VOL   0*FE12DaysofTrainingRoyLili500_mvl/mxv
 BYTE   W02
 BYTE   VOL   0*FE12DaysofTrainingRoyLili500_mvl/mxv
 BYTE   W01
 BYTE   VOL   0*FE12DaysofTrainingRoyLili500_mvl/mxv
 BYTE   W01
 BYTE   VOL   0*FE12DaysofTrainingRoyLili500_mvl/mxv
 BYTE   W02
 BYTE   VOL   0*FE12DaysofTrainingRoyLili500_mvl/mxv
 BYTE   W02
 BYTE   VOL   0*FE12DaysofTrainingRoyLili500_mvl/mxv
 BYTE   W01
 BYTE   VOL   0*FE12DaysofTrainingRoyLili500_mvl/mxv
 BYTE   W01
 BYTE   VOL   0*FE12DaysofTrainingRoyLili500_mvl/mxv
 BYTE   W02
 BYTE   VOL   0*FE12DaysofTrainingRoyLili500_mvl/mxv
 BYTE   W01
 BYTE   VOL   0*FE12DaysofTrainingRoyLili500_mvl/mxv
 BYTE   W03
 BYTE   EOT
 BYTE   W72
 BYTE   W02
//  #11 //019   ----------------------------------------
 BYTE   W96
//  #11 //020   ----------------------------------------
 BYTE   W24
 BYTE   GoTo
  POIN2 Label_01413AA3
 BYTE   FINE

//**************** Track 12 (Midi-Chn.11) ****************//

FE12DaysofTrainingRoyLili500_012:
//  #12 //000   ----------------------------------------
 BYTE   KEYSH   FE12DaysofTrainingRoyLili500_key+0
 BYTE   VOICE   70
 BYTE   MODT 0
 BYTE   LFOS 44
 BYTE   VOL   30*FE12DaysofTrainingRoyLili500_mvl/mxv
 BYTE   PAN   c_v+30
 BYTE   BEND   c_v+0
 BYTE   W24
Label_0141413B:
 BYTE   VOL   30*FE12DaysofTrainingRoyLili500_mvl/mxv
 BYTE   W72
//  #12 //001   ----------------------------------------
 BYTE   W96
//  #12 //002   ----------------------------------------
 BYTE   W96
//  #12 //003   ----------------------------------------
 BYTE   W96
//  #12 //004   ----------------------------------------
 BYTE   W96
//  #12 //005   ----------------------------------------
 BYTE   W96
//  #12 //006   ----------------------------------------
 BYTE   W44
 BYTE   VOL   0*FE12DaysofTrainingRoyLili500_mvl/mxv
 BYTE   W07
 BYTE   N22  Dn2  v127
 BYTE   W01
 BYTE   VOL   0*FE12DaysofTrainingRoyLili500_mvl/mxv
 BYTE   W01
 BYTE   VOL   0*FE12DaysofTrainingRoyLili500_mvl/mxv
 BYTE   W01
 BYTE   VOL   0*FE12DaysofTrainingRoyLili500_mvl/mxv
 BYTE   W01
 BYTE   VOL   1*FE12DaysofTrainingRoyLili500_mvl/mxv
 BYTE   W01
 BYTE   VOL   2*FE12DaysofTrainingRoyLili500_mvl/mxv
 BYTE   W01
 BYTE   VOL   6*FE12DaysofTrainingRoyLili500_mvl/mxv
 BYTE   W01
 BYTE   VOL   8*FE12DaysofTrainingRoyLili500_mvl/mxv
 BYTE   W01
 BYTE   VOL   10*FE12DaysofTrainingRoyLili500_mvl/mxv
 BYTE   W01
 BYTE   VOL   11*FE12DaysofTrainingRoyLili500_mvl/mxv
 BYTE   W01
 BYTE   VOL   14*FE12DaysofTrainingRoyLili500_mvl/mxv
 BYTE   W01
 BYTE   VOL   18*FE12DaysofTrainingRoyLili500_mvl/mxv
 BYTE   W01
 BYTE   VOL   19*FE12DaysofTrainingRoyLili500_mvl/mxv
 BYTE   W01
 BYTE   VOL   20*FE12DaysofTrainingRoyLili500_mvl/mxv
 BYTE   W02
 BYTE   VOL   22*FE12DaysofTrainingRoyLili500_mvl/mxv
 BYTE   W02
 BYTE   VOL   23*FE12DaysofTrainingRoyLili500_mvl/mxv
 BYTE   W01
 BYTE   VOL   25*FE12DaysofTrainingRoyLili500_mvl/mxv
 BYTE   W01
 BYTE   VOL   26*FE12DaysofTrainingRoyLili500_mvl/mxv
 BYTE   W02
 BYTE   VOL   28*FE12DaysofTrainingRoyLili500_mvl/mxv
 BYTE   W01
 BYTE   VOL   28*FE12DaysofTrainingRoyLili500_mvl/mxv
 BYTE   W02
 BYTE   N07  Ds2
 BYTE   W09
 BYTE   VOL   28*FE12DaysofTrainingRoyLili500_mvl/mxv
 BYTE   N22  Fn2
 BYTE   W01
 BYTE   VOL   27*FE12DaysofTrainingRoyLili500_mvl/mxv
 BYTE   W02
 BYTE   VOL   25*FE12DaysofTrainingRoyLili500_mvl/mxv
 BYTE   W01
 BYTE   VOL   23*FE12DaysofTrainingRoyLili500_mvl/mxv
 BYTE   W02
 BYTE   VOL   22*FE12DaysofTrainingRoyLili500_mvl/mxv
 BYTE   W02
 BYTE   VOL   23*FE12DaysofTrainingRoyLili500_mvl/mxv
 BYTE   W04
//  #12 //007   ----------------------------------------
 BYTE   VOL   24*FE12DaysofTrainingRoyLili500_mvl/mxv
 BYTE   W03
 BYTE   VOL   25*FE12DaysofTrainingRoyLili500_mvl/mxv
 BYTE   W03
 BYTE   VOL   26*FE12DaysofTrainingRoyLili500_mvl/mxv
 BYTE   W02
 BYTE   VOL   27*FE12DaysofTrainingRoyLili500_mvl/mxv
 BYTE   W02
 BYTE   VOL   28*FE12DaysofTrainingRoyLili500_mvl/mxv
 BYTE   W02
 BYTE   N14  As2
 BYTE   W15
 BYTE   N02  An2  v080
 BYTE   W04
 BYTE   As2  v096
 BYTE   W05
 BYTE   N07  An2  v127
 BYTE   W15
 BYTE   Fn2
 BYTE   W09
 BYTE   N22  Gn2
 BYTE   W01
 BYTE   VOL   28*FE12DaysofTrainingRoyLili500_mvl/mxv
 BYTE   W01
 BYTE   VOL   27*FE12DaysofTrainingRoyLili500_mvl/mxv
 BYTE   W01
 BYTE   VOL   26*FE12DaysofTrainingRoyLili500_mvl/mxv
 BYTE   W02
 BYTE   VOL   24*FE12DaysofTrainingRoyLili500_mvl/mxv
 BYTE   W02
 BYTE   VOL   23*FE12DaysofTrainingRoyLili500_mvl/mxv
 BYTE   W01
 BYTE   VOL   22*FE12DaysofTrainingRoyLili500_mvl/mxv
 BYTE   W01
 BYTE   VOL   21*FE12DaysofTrainingRoyLili500_mvl/mxv
 BYTE   W01
 BYTE   VOL   20*FE12DaysofTrainingRoyLili500_mvl/mxv
 BYTE   W02
 BYTE   VOL   20*FE12DaysofTrainingRoyLili500_mvl/mxv
 BYTE   W02
 BYTE   VOL   21*FE12DaysofTrainingRoyLili500_mvl/mxv
 BYTE   W01
 BYTE   VOL   22*FE12DaysofTrainingRoyLili500_mvl/mxv
 BYTE   W01
 BYTE   VOL   22*FE12DaysofTrainingRoyLili500_mvl/mxv
 BYTE   W02
 BYTE   VOL   22*FE12DaysofTrainingRoyLili500_mvl/mxv
 BYTE   W02
 BYTE   VOL   23*FE12DaysofTrainingRoyLili500_mvl/mxv
 BYTE   W01
 BYTE   VOL   23*FE12DaysofTrainingRoyLili500_mvl/mxv
 BYTE   W01
 BYTE   VOL   24*FE12DaysofTrainingRoyLili500_mvl/mxv
 BYTE   W02
 BYTE   VOL   25*FE12DaysofTrainingRoyLili500_mvl/mxv
 BYTE   N22  Dn3
 BYTE   W02
 BYTE   VOL   26*FE12DaysofTrainingRoyLili500_mvl/mxv
 BYTE   W01
 BYTE   VOL   26*FE12DaysofTrainingRoyLili500_mvl/mxv
 BYTE   W01
 BYTE   VOL   26*FE12DaysofTrainingRoyLili500_mvl/mxv
 BYTE   W02
 BYTE   VOL   25*FE12DaysofTrainingRoyLili500_mvl/mxv
 BYTE   W01
 BYTE   VOL   24*FE12DaysofTrainingRoyLili500_mvl/mxv
 BYTE   W01
 BYTE   VOL   23*FE12DaysofTrainingRoyLili500_mvl/mxv
 BYTE   W01
 BYTE   VOL   23*FE12DaysofTrainingRoyLili500_mvl/mxv
 BYTE   W01
 BYTE   VOL   23*FE12DaysofTrainingRoyLili500_mvl/mxv
 BYTE   W02
//  #12 //008   ----------------------------------------
 BYTE   VOL   24*FE12DaysofTrainingRoyLili500_mvl/mxv
 BYTE   W02
 BYTE   VOL   25*FE12DaysofTrainingRoyLili500_mvl/mxv
 BYTE   W01
 BYTE   VOL   26*FE12DaysofTrainingRoyLili500_mvl/mxv
 BYTE   W01
 BYTE   VOL   27*FE12DaysofTrainingRoyLili500_mvl/mxv
 BYTE   W02
 BYTE   VOL   27*FE12DaysofTrainingRoyLili500_mvl/mxv
 BYTE   W02
 BYTE   VOL   28*FE12DaysofTrainingRoyLili500_mvl/mxv
 BYTE   W01
 BYTE   VOL   28*FE12DaysofTrainingRoyLili500_mvl/mxv
 BYTE   W01
 BYTE   VOL   30*FE12DaysofTrainingRoyLili500_mvl/mxv
 BYTE   W02
 BYTE   N07  Cn3
 BYTE   W08
 BYTE   N03  As2
 BYTE   W07
 BYTE   N04  An2
 BYTE   W09
 BYTE   N07  Gn2
 BYTE   W08
 BYTE   N03  An2
 BYTE   W07
 BYTE   N04  As2
 BYTE   W09
 BYTE   VOL   30*FE12DaysofTrainingRoyLili500_mvl/mxv
 BYTE   N44  Gn2
 BYTE   W02
 BYTE   VOL   28*FE12DaysofTrainingRoyLili500_mvl/mxv
 BYTE   W01
 BYTE   VOL   27*FE12DaysofTrainingRoyLili500_mvl/mxv
 BYTE   W01
 BYTE   VOL   26*FE12DaysofTrainingRoyLili500_mvl/mxv
 BYTE   W02
 BYTE   VOL   24*FE12DaysofTrainingRoyLili500_mvl/mxv
 BYTE   W02
 BYTE   VOL   23*FE12DaysofTrainingRoyLili500_mvl/mxv
 BYTE   W01
 BYTE   VOL   22*FE12DaysofTrainingRoyLili500_mvl/mxv
 BYTE   W01
 BYTE   VOL   20*FE12DaysofTrainingRoyLili500_mvl/mxv
 BYTE   W02
 BYTE   VOL   19*FE12DaysofTrainingRoyLili500_mvl/mxv
 BYTE   W02
 BYTE   VOL   19*FE12DaysofTrainingRoyLili500_mvl/mxv
 BYTE   W01
 BYTE   VOL   18*FE12DaysofTrainingRoyLili500_mvl/mxv
 BYTE   W07
 BYTE   VOL   18*FE12DaysofTrainingRoyLili500_mvl/mxv
 BYTE   W08
 BYTE   VOL   18*FE12DaysofTrainingRoyLili500_mvl/mxv
 BYTE   W02
 BYTE   VOL   19*FE12DaysofTrainingRoyLili500_mvl/mxv
 BYTE   W01
 BYTE   VOL   20*FE12DaysofTrainingRoyLili500_mvl/mxv
 BYTE   W01
 BYTE   VOL   21*FE12DaysofTrainingRoyLili500_mvl/mxv
 BYTE   W02
//  #12 //009   ----------------------------------------
 BYTE   VOL   22*FE12DaysofTrainingRoyLili500_mvl/mxv
 BYTE   W02
 BYTE   VOL   23*FE12DaysofTrainingRoyLili500_mvl/mxv
 BYTE   W01
 BYTE   VOL   24*FE12DaysofTrainingRoyLili500_mvl/mxv
 BYTE   W01
 BYTE   VOL   25*FE12DaysofTrainingRoyLili500_mvl/mxv
 BYTE   W02
 BYTE   VOL   26*FE12DaysofTrainingRoyLili500_mvl/mxv
 BYTE   W02
 BYTE   VOL   27*FE12DaysofTrainingRoyLili500_mvl/mxv
 BYTE   W01
 BYTE   VOL   28*FE12DaysofTrainingRoyLili500_mvl/mxv
 BYTE   W01
 BYTE   VOL   30*FE12DaysofTrainingRoyLili500_mvl/mxv
 BYTE   W02
 BYTE   VOL   28*FE12DaysofTrainingRoyLili500_mvl/mxv
 BYTE   N22  Fn2
 BYTE   W01
 BYTE   VOL   28*FE12DaysofTrainingRoyLili500_mvl/mxv
 BYTE   W01
 BYTE   VOL   27*FE12DaysofTrainingRoyLili500_mvl/mxv
 BYTE   W02
 BYTE   VOL   26*FE12DaysofTrainingRoyLili500_mvl/mxv
 BYTE   W02
 BYTE   VOL   25*FE12DaysofTrainingRoyLili500_mvl/mxv
 BYTE   W01
 BYTE   VOL   24*FE12DaysofTrainingRoyLili500_mvl/mxv
 BYTE   W02
 BYTE   VOL   25*FE12DaysofTrainingRoyLili500_mvl/mxv
 BYTE   W04
 BYTE   VOL   26*FE12DaysofTrainingRoyLili500_mvl/mxv
 BYTE   W02
 BYTE   VOL   27*FE12DaysofTrainingRoyLili500_mvl/mxv
 BYTE   W04
 BYTE   VOL   28*FE12DaysofTrainingRoyLili500_mvl/mxv
 BYTE   W02
 BYTE   VOL   28*FE12DaysofTrainingRoyLili500_mvl/mxv
 BYTE   W03
 BYTE   VOL   30*FE12DaysofTrainingRoyLili500_mvl/mxv
 BYTE   N07  Ds2
 BYTE   W08
 BYTE   N03  Fn2
 BYTE   W07
 BYTE   N04  Gn2
 BYTE   W08
 BYTE   VOL   30*FE12DaysofTrainingRoyLili500_mvl/mxv
 BYTE   W01
 BYTE   N48  Dn2
 BYTE   W01
 BYTE   VOL   28*FE12DaysofTrainingRoyLili500_mvl/mxv
 BYTE   W01
 BYTE   VOL   27*FE12DaysofTrainingRoyLili500_mvl/mxv
 BYTE   W01
 BYTE   VOL   24*FE12DaysofTrainingRoyLili500_mvl/mxv
 BYTE   W02
 BYTE   VOL   23*FE12DaysofTrainingRoyLili500_mvl/mxv
 BYTE   W02
 BYTE   VOL   22*FE12DaysofTrainingRoyLili500_mvl/mxv
 BYTE   W01
 BYTE   VOL   20*FE12DaysofTrainingRoyLili500_mvl/mxv
 BYTE   W01
 BYTE   VOL   19*FE12DaysofTrainingRoyLili500_mvl/mxv
 BYTE   W03
 BYTE   VOL   19*FE12DaysofTrainingRoyLili500_mvl/mxv
 BYTE   W03
 BYTE   VOL   20*FE12DaysofTrainingRoyLili500_mvl/mxv
 BYTE   W04
 BYTE   VOL   20*FE12DaysofTrainingRoyLili500_mvl/mxv
 BYTE   W02
 BYTE   VOL   19*FE12DaysofTrainingRoyLili500_mvl/mxv
 BYTE   W01
 BYTE   VOL   17*FE12DaysofTrainingRoyLili500_mvl/mxv
 BYTE   W02
 BYTE   VOL   15*FE12DaysofTrainingRoyLili500_mvl/mxv
 BYTE   W02
 BYTE   VOL   14*FE12DaysofTrainingRoyLili500_mvl/mxv
 BYTE   W01
 BYTE   VOL   13*FE12DaysofTrainingRoyLili500_mvl/mxv
 BYTE   W01
 BYTE   VOL   11*FE12DaysofTrainingRoyLili500_mvl/mxv
 BYTE   W02
 BYTE   VOL   10*FE12DaysofTrainingRoyLili500_mvl/mxv
 BYTE   W02
 BYTE   VOL   10*FE12DaysofTrainingRoyLili500_mvl/mxv
 BYTE   W01
 BYTE   VOL   8*FE12DaysofTrainingRoyLili500_mvl/mxv
 BYTE   W01
 BYTE   VOL   7*FE12DaysofTrainingRoyLili500_mvl/mxv
 BYTE   W02
//  #12 //010   ----------------------------------------
 BYTE   VOL   6*FE12DaysofTrainingRoyLili500_mvl/mxv
 BYTE   W02
 BYTE   VOL   5*FE12DaysofTrainingRoyLili500_mvl/mxv
 BYTE   W01
 BYTE   VOL   5*FE12DaysofTrainingRoyLili500_mvl/mxv
 BYTE   W01
 BYTE   VOL   3*FE12DaysofTrainingRoyLili500_mvl/mxv
 BYTE   W02
 BYTE   VOL   3*FE12DaysofTrainingRoyLili500_mvl/mxv
 BYTE   W02
 BYTE   VOL   2*FE12DaysofTrainingRoyLili500_mvl/mxv
 BYTE   W01
 BYTE   VOL   1*FE12DaysofTrainingRoyLili500_mvl/mxv
 BYTE   W01
 BYTE   VOL   1*FE12DaysofTrainingRoyLili500_mvl/mxv
 BYTE   W02
 BYTE   VOL   0*FE12DaysofTrainingRoyLili500_mvl/mxv
 BYTE   W02
 BYTE   VOL   0*FE12DaysofTrainingRoyLili500_mvl/mxv
 BYTE   W01
 BYTE   VOL   0*FE12DaysofTrainingRoyLili500_mvl/mxv
 BYTE   W01
 BYTE   VOL   0*FE12DaysofTrainingRoyLili500_mvl/mxv
 BYTE   W02
 BYTE   VOL   0*FE12DaysofTrainingRoyLili500_mvl/mxv
 BYTE   W19
 BYTE   VOL   0*FE12DaysofTrainingRoyLili500_mvl/mxv
 BYTE   W56
 BYTE   W03
//  #12 //011   ----------------------------------------
 BYTE   W96
//  #12 //012   ----------------------------------------
 BYTE   W96
//  #12 //013   ----------------------------------------
 BYTE   W96
//  #12 //014   ----------------------------------------
 BYTE   W36
 BYTE   W02
 BYTE   VOL   0*FE12DaysofTrainingRoyLili500_mvl/mxv
 BYTE   W01
 BYTE   VOL   0*FE12DaysofTrainingRoyLili500_mvl/mxv
 BYTE   W01
 BYTE   VOL   1*FE12DaysofTrainingRoyLili500_mvl/mxv
 BYTE   W02
 BYTE   VOL   2*FE12DaysofTrainingRoyLili500_mvl/mxv
 BYTE   W01
 BYTE   VOL   3*FE12DaysofTrainingRoyLili500_mvl/mxv
 BYTE   W01
 BYTE   VOL   5*FE12DaysofTrainingRoyLili500_mvl/mxv
 BYTE   W01
 BYTE   VOL   6*FE12DaysofTrainingRoyLili500_mvl/mxv
 BYTE   W01
 BYTE   VOL   8*FE12DaysofTrainingRoyLili500_mvl/mxv
 BYTE   W02
 BYTE   VOL   10*FE12DaysofTrainingRoyLili500_mvl/mxv
 BYTE   W01
 BYTE   VOL   11*FE12DaysofTrainingRoyLili500_mvl/mxv
 BYTE   W01
 BYTE   VOL   13*FE12DaysofTrainingRoyLili500_mvl/mxv
 BYTE   W01
 BYTE   VOL   16*FE12DaysofTrainingRoyLili500_mvl/mxv
 BYTE   W01
 BYTE   VOL   19*FE12DaysofTrainingRoyLili500_mvl/mxv
 BYTE   W02
 BYTE   VOL   22*FE12DaysofTrainingRoyLili500_mvl/mxv
 BYTE   W01
 BYTE   VOL   24*FE12DaysofTrainingRoyLili500_mvl/mxv
 BYTE   W01
 BYTE   VOL   28*FE12DaysofTrainingRoyLili500_mvl/mxv
 BYTE   W01
 BYTE   VOL   30*FE12DaysofTrainingRoyLili500_mvl/mxv
 BYTE   W01
 BYTE   VOL   28*FE12DaysofTrainingRoyLili500_mvl/mxv
 BYTE   W02
 BYTE   VOL   27*FE12DaysofTrainingRoyLili500_mvl/mxv
 BYTE   N17  Ds2
 BYTE   W02
 BYTE   VOL   26*FE12DaysofTrainingRoyLili500_mvl/mxv
 BYTE   W01
 BYTE   VOL   24*FE12DaysofTrainingRoyLili500_mvl/mxv
 BYTE   W01
 BYTE   VOL   23*FE12DaysofTrainingRoyLili500_mvl/mxv
 BYTE   W02
 BYTE   VOL   22*FE12DaysofTrainingRoyLili500_mvl/mxv
 BYTE   W01
 BYTE   VOL   23*FE12DaysofTrainingRoyLili500_mvl/mxv
 BYTE   W01
 BYTE   VOL   24*FE12DaysofTrainingRoyLili500_mvl/mxv
 BYTE   W02
 BYTE   VOL   25*FE12DaysofTrainingRoyLili500_mvl/mxv
 BYTE   W02
 BYTE   VOL   27*FE12DaysofTrainingRoyLili500_mvl/mxv
 BYTE   W01
 BYTE   VOL   28*FE12DaysofTrainingRoyLili500_mvl/mxv
 BYTE   W02
 BYTE   VOL   30*FE12DaysofTrainingRoyLili500_mvl/mxv
 BYTE   W03
 BYTE   N02  Gs2  v108
 BYTE   W02
 BYTE   An2
 BYTE   W04
 BYTE   VOL   30*FE12DaysofTrainingRoyLili500_mvl/mxv
 BYTE   N22  As2  v127
 BYTE   W01
 BYTE   VOL   29*FE12DaysofTrainingRoyLili500_mvl/mxv
 BYTE   W01
 BYTE   VOL   28*FE12DaysofTrainingRoyLili500_mvl/mxv
 BYTE   W02
 BYTE   VOL   28*FE12DaysofTrainingRoyLili500_mvl/mxv
 BYTE   W02
 BYTE   VOL   27*FE12DaysofTrainingRoyLili500_mvl/mxv
 BYTE   W01
 BYTE   VOL   27*FE12DaysofTrainingRoyLili500_mvl/mxv
 BYTE   W02
 BYTE   VOL   26*FE12DaysofTrainingRoyLili500_mvl/mxv
 BYTE   W01
 BYTE   VOL   25*FE12DaysofTrainingRoyLili500_mvl/mxv
 BYTE   W02
//  #12 //015   ----------------------------------------
 BYTE   VOL   24*FE12DaysofTrainingRoyLili500_mvl/mxv
 BYTE   W01
 BYTE   VOL   23*FE12DaysofTrainingRoyLili500_mvl/mxv
 BYTE   W01
 BYTE   VOL   23*FE12DaysofTrainingRoyLili500_mvl/mxv
 BYTE   W02
 BYTE   VOL   22*FE12DaysofTrainingRoyLili500_mvl/mxv
 BYTE   W02
 BYTE   VOL   22*FE12DaysofTrainingRoyLili500_mvl/mxv
 BYTE   W01
 BYTE   VOL   21*FE12DaysofTrainingRoyLili500_mvl/mxv
 BYTE   W02
 BYTE   VOL   20*FE12DaysofTrainingRoyLili500_mvl/mxv
 BYTE   W01
 BYTE   VOL   21*FE12DaysofTrainingRoyLili500_mvl/mxv
 BYTE   W02
 BYTE   VOL   22*FE12DaysofTrainingRoyLili500_mvl/mxv
 BYTE   N17  Gs2
 BYTE   W01
 BYTE   VOL   22*FE12DaysofTrainingRoyLili500_mvl/mxv
 BYTE   W01
 BYTE   VOL   23*FE12DaysofTrainingRoyLili500_mvl/mxv
 BYTE   W02
 BYTE   VOL   24*FE12DaysofTrainingRoyLili500_mvl/mxv
 BYTE   W02
 BYTE   VOL   25*FE12DaysofTrainingRoyLili500_mvl/mxv
 BYTE   W01
 BYTE   VOL   26*FE12DaysofTrainingRoyLili500_mvl/mxv
 BYTE   W02
 BYTE   VOL   27*FE12DaysofTrainingRoyLili500_mvl/mxv
 BYTE   W01
 BYTE   VOL   27*FE12DaysofTrainingRoyLili500_mvl/mxv
 BYTE   W02
 BYTE   VOL   28*FE12DaysofTrainingRoyLili500_mvl/mxv
 BYTE   W01
 BYTE   VOL   28*FE12DaysofTrainingRoyLili500_mvl/mxv
 BYTE   W01
 BYTE   VOL   30*FE12DaysofTrainingRoyLili500_mvl/mxv
 BYTE   W04
 BYTE   N02  Cs3  v076
 BYTE   W02
 BYTE   Dn3  v108
 BYTE   W04
 BYTE   N22  Ds3  v127
 BYTE   W01
 BYTE   VOL   30*FE12DaysofTrainingRoyLili500_mvl/mxv
 BYTE   W01
 BYTE   VOL   28*FE12DaysofTrainingRoyLili500_mvl/mxv
 BYTE   W01
 BYTE   VOL   28*FE12DaysofTrainingRoyLili500_mvl/mxv
 BYTE   W02
 BYTE   VOL   27*FE12DaysofTrainingRoyLili500_mvl/mxv
 BYTE   W02
 BYTE   VOL   27*FE12DaysofTrainingRoyLili500_mvl/mxv
 BYTE   W01
 BYTE   VOL   26*FE12DaysofTrainingRoyLili500_mvl/mxv
 BYTE   W01
 BYTE   VOL   25*FE12DaysofTrainingRoyLili500_mvl/mxv
 BYTE   W02
 BYTE   VOL   24*FE12DaysofTrainingRoyLili500_mvl/mxv
 BYTE   W02
 BYTE   VOL   23*FE12DaysofTrainingRoyLili500_mvl/mxv
 BYTE   W01
 BYTE   VOL   22*FE12DaysofTrainingRoyLili500_mvl/mxv
 BYTE   W01
 BYTE   VOL   22*FE12DaysofTrainingRoyLili500_mvl/mxv
 BYTE   W02
 BYTE   VOL   21*FE12DaysofTrainingRoyLili500_mvl/mxv
 BYTE   W02
 BYTE   VOL   20*FE12DaysofTrainingRoyLili500_mvl/mxv
 BYTE   W01
 BYTE   VOL   20*FE12DaysofTrainingRoyLili500_mvl/mxv
 BYTE   W01
 BYTE   VOL   19*FE12DaysofTrainingRoyLili500_mvl/mxv
 BYTE   W02
 BYTE   VOL   19*FE12DaysofTrainingRoyLili500_mvl/mxv
 BYTE   W01
 BYTE   VOL   18*FE12DaysofTrainingRoyLili500_mvl/mxv
 BYTE   N22  Cs3
 BYTE   W02
 BYTE   VOL   19*FE12DaysofTrainingRoyLili500_mvl/mxv
 BYTE   W01
 BYTE   VOL   19*FE12DaysofTrainingRoyLili500_mvl/mxv
 BYTE   W01
 BYTE   VOL   20*FE12DaysofTrainingRoyLili500_mvl/mxv
 BYTE   W02
 BYTE   VOL   20*FE12DaysofTrainingRoyLili500_mvl/mxv
 BYTE   W02
 BYTE   VOL   21*FE12DaysofTrainingRoyLili500_mvl/mxv
 BYTE   W01
 BYTE   VOL   22*FE12DaysofTrainingRoyLili500_mvl/mxv
 BYTE   W01
 BYTE   VOL   22*FE12DaysofTrainingRoyLili500_mvl/mxv
 BYTE   W02
 BYTE   VOL   23*FE12DaysofTrainingRoyLili500_mvl/mxv
 BYTE   W02
 BYTE   VOL   24*FE12DaysofTrainingRoyLili500_mvl/mxv
 BYTE   W01
 BYTE   VOL   25*FE12DaysofTrainingRoyLili500_mvl/mxv
 BYTE   W01
 BYTE   VOL   26*FE12DaysofTrainingRoyLili500_mvl/mxv
 BYTE   W02
 BYTE   VOL   27*FE12DaysofTrainingRoyLili500_mvl/mxv
 BYTE   W02
 BYTE   VOL   27*FE12DaysofTrainingRoyLili500_mvl/mxv
 BYTE   W01
 BYTE   VOL   28*FE12DaysofTrainingRoyLili500_mvl/mxv
 BYTE   W01
 BYTE   VOL   28*FE12DaysofTrainingRoyLili500_mvl/mxv
 BYTE   W01
 BYTE   VOL   29*FE12DaysofTrainingRoyLili500_mvl/mxv
 BYTE   W01
 BYTE   N22  Fn3  v112
 BYTE   W01
 BYTE   VOL   28*FE12DaysofTrainingRoyLili500_mvl/mxv
 BYTE   W01
 BYTE   VOL   28*FE12DaysofTrainingRoyLili500_mvl/mxv
 BYTE   W01
 BYTE   VOL   27*FE12DaysofTrainingRoyLili500_mvl/mxv
 BYTE   W02
 BYTE   VOL   27*FE12DaysofTrainingRoyLili500_mvl/mxv
 BYTE   W02
 BYTE   VOL   26*FE12DaysofTrainingRoyLili500_mvl/mxv
 BYTE   W01
 BYTE   VOL   25*FE12DaysofTrainingRoyLili500_mvl/mxv
 BYTE   W01
 BYTE   VOL   24*FE12DaysofTrainingRoyLili500_mvl/mxv
 BYTE   W02
 BYTE   VOL   23*FE12DaysofTrainingRoyLili500_mvl/mxv
 BYTE   W01
//  #12 //016   ----------------------------------------
 BYTE   W01
 BYTE   VOL   22*FE12DaysofTrainingRoyLili500_mvl/mxv
 BYTE   W01
 BYTE   VOL   22*FE12DaysofTrainingRoyLili500_mvl/mxv
 BYTE   W01
 BYTE   VOL   21*FE12DaysofTrainingRoyLili500_mvl/mxv
 BYTE   W02
 BYTE   VOL   20*FE12DaysofTrainingRoyLili500_mvl/mxv
 BYTE   W02
 BYTE   VOL   20*FE12DaysofTrainingRoyLili500_mvl/mxv
 BYTE   W01
 BYTE   VOL   19*FE12DaysofTrainingRoyLili500_mvl/mxv
 BYTE   W01
 BYTE   VOL   18*FE12DaysofTrainingRoyLili500_mvl/mxv
 BYTE   W02
 BYTE   VOL   19*FE12DaysofTrainingRoyLili500_mvl/mxv
 BYTE   W01
 BYTE   N17  Ds3
 BYTE   W01
 BYTE   VOL   19*FE12DaysofTrainingRoyLili500_mvl/mxv
 BYTE   W01
 BYTE   VOL   20*FE12DaysofTrainingRoyLili500_mvl/mxv
 BYTE   W01
 BYTE   VOL   21*FE12DaysofTrainingRoyLili500_mvl/mxv
 BYTE   W02
 BYTE   VOL   22*FE12DaysofTrainingRoyLili500_mvl/mxv
 BYTE   W02
 BYTE   VOL   22*FE12DaysofTrainingRoyLili500_mvl/mxv
 BYTE   W01
 BYTE   VOL   23*FE12DaysofTrainingRoyLili500_mvl/mxv
 BYTE   W01
 BYTE   VOL   24*FE12DaysofTrainingRoyLili500_mvl/mxv
 BYTE   W02
 BYTE   VOL   25*FE12DaysofTrainingRoyLili500_mvl/mxv
 BYTE   W02
 BYTE   VOL   27*FE12DaysofTrainingRoyLili500_mvl/mxv
 BYTE   W01
 BYTE   VOL   27*FE12DaysofTrainingRoyLili500_mvl/mxv
 BYTE   W01
 BYTE   VOL   28*FE12DaysofTrainingRoyLili500_mvl/mxv
 BYTE   W02
 BYTE   VOL   29*FE12DaysofTrainingRoyLili500_mvl/mxv
 BYTE   W01
 BYTE   VOL   30*FE12DaysofTrainingRoyLili500_mvl/mxv
 BYTE   N02  Gs3  v060
 BYTE   W02
 BYTE   An3  v088
 BYTE   W04
 BYTE   VOL   29*FE12DaysofTrainingRoyLili500_mvl/mxv
 BYTE   N44  As3  v100
 BYTE   W07
 BYTE   VOL   28*FE12DaysofTrainingRoyLili500_mvl/mxv
 BYTE   W01
 BYTE   VOL   28*FE12DaysofTrainingRoyLili500_mvl/mxv
 BYTE   W01
 BYTE   VOL   28*FE12DaysofTrainingRoyLili500_mvl/mxv
 BYTE   W02
 BYTE   VOL   27*FE12DaysofTrainingRoyLili500_mvl/mxv
 BYTE   W02
 BYTE   VOL   26*FE12DaysofTrainingRoyLili500_mvl/mxv
 BYTE   W01
 BYTE   VOL   25*FE12DaysofTrainingRoyLili500_mvl/mxv
 BYTE   W01
 BYTE   VOL   24*FE12DaysofTrainingRoyLili500_mvl/mxv
 BYTE   W02
 BYTE   VOL   23*FE12DaysofTrainingRoyLili500_mvl/mxv
 BYTE   W02
 BYTE   VOL   23*FE12DaysofTrainingRoyLili500_mvl/mxv
 BYTE   W01
 BYTE   VOL   22*FE12DaysofTrainingRoyLili500_mvl/mxv
 BYTE   W01
 BYTE   VOL   22*FE12DaysofTrainingRoyLili500_mvl/mxv
 BYTE   W02
 BYTE   VOL   21*FE12DaysofTrainingRoyLili500_mvl/mxv
 BYTE   W01
 BYTE   VOL   21*FE12DaysofTrainingRoyLili500_mvl/mxv
 BYTE   W02
 BYTE   VOL   21*FE12DaysofTrainingRoyLili500_mvl/mxv
 BYTE   W04
 BYTE   VOL   22*FE12DaysofTrainingRoyLili500_mvl/mxv
 BYTE   W03
 BYTE   VOL   22*FE12DaysofTrainingRoyLili500_mvl/mxv
 BYTE   W03
 BYTE   VOL   23*FE12DaysofTrainingRoyLili500_mvl/mxv
 BYTE   W02
 BYTE   VOL   23*FE12DaysofTrainingRoyLili500_mvl/mxv
 BYTE   W04
 BYTE   VOL   24*FE12DaysofTrainingRoyLili500_mvl/mxv
 BYTE   W03
 BYTE   VOL   25*FE12DaysofTrainingRoyLili500_mvl/mxv
 BYTE   W03
 BYTE   VOL   26*FE12DaysofTrainingRoyLili500_mvl/mxv
 BYTE   TIE  Gs3
 BYTE   W09
 BYTE   VOL   26*FE12DaysofTrainingRoyLili500_mvl/mxv
 BYTE   W03
//  #12 //017   ----------------------------------------
 BYTE   W01
 BYTE   VOL   25*FE12DaysofTrainingRoyLili500_mvl/mxv
 BYTE   W05
 BYTE   VOL   25*FE12DaysofTrainingRoyLili500_mvl/mxv
 BYTE   W04
 BYTE   VOL   24*FE12DaysofTrainingRoyLili500_mvl/mxv
 BYTE   W05
 BYTE   VOL   24*FE12DaysofTrainingRoyLili500_mvl/mxv
 BYTE   W04
 BYTE   VOL   23*FE12DaysofTrainingRoyLili500_mvl/mxv
 BYTE   W04
 BYTE   VOL   23*FE12DaysofTrainingRoyLili500_mvl/mxv
 BYTE   W04
 BYTE   VOL   23*FE12DaysofTrainingRoyLili500_mvl/mxv
 BYTE   W05
 BYTE   VOL   22*FE12DaysofTrainingRoyLili500_mvl/mxv
 BYTE   W05
 BYTE   VOL   22*FE12DaysofTrainingRoyLili500_mvl/mxv
 BYTE   W03
 BYTE   VOL   22*FE12DaysofTrainingRoyLili500_mvl/mxv
 BYTE   W04
 BYTE   VOL   21*FE12DaysofTrainingRoyLili500_mvl/mxv
 BYTE   W02
 BYTE   VOL   20*FE12DaysofTrainingRoyLili500_mvl/mxv
 BYTE   W04
 BYTE   VOL   20*FE12DaysofTrainingRoyLili500_mvl/mxv
 BYTE   W02
 BYTE   VOL   19*FE12DaysofTrainingRoyLili500_mvl/mxv
 BYTE   W04
 BYTE   VOL   19*FE12DaysofTrainingRoyLili500_mvl/mxv
 BYTE   W02
 BYTE   VOL   18*FE12DaysofTrainingRoyLili500_mvl/mxv
 BYTE   W04
 BYTE   VOL   18*FE12DaysofTrainingRoyLili500_mvl/mxv
 BYTE   W02
 BYTE   VOL   17*FE12DaysofTrainingRoyLili500_mvl/mxv
 BYTE   W04
 BYTE   VOL   17*FE12DaysofTrainingRoyLili500_mvl/mxv
 BYTE   W02
 BYTE   VOL   17*FE12DaysofTrainingRoyLili500_mvl/mxv
 BYTE   W04
 BYTE   VOL   16*FE12DaysofTrainingRoyLili500_mvl/mxv
 BYTE   W02
 BYTE   VOL   15*FE12DaysofTrainingRoyLili500_mvl/mxv
 BYTE   W02
 BYTE   VOL   15*FE12DaysofTrainingRoyLili500_mvl/mxv
 BYTE   W02
 BYTE   VOL   14*FE12DaysofTrainingRoyLili500_mvl/mxv
 BYTE   W01
 BYTE   VOL   13*FE12DaysofTrainingRoyLili500_mvl/mxv
 BYTE   W01
 BYTE   VOL   13*FE12DaysofTrainingRoyLili500_mvl/mxv
 BYTE   W02
 BYTE   VOL   11*FE12DaysofTrainingRoyLili500_mvl/mxv
 BYTE   W02
 BYTE   VOL   11*FE12DaysofTrainingRoyLili500_mvl/mxv
 BYTE   W01
 BYTE   VOL   11*FE12DaysofTrainingRoyLili500_mvl/mxv
 BYTE   W01
 BYTE   VOL   10*FE12DaysofTrainingRoyLili500_mvl/mxv
 BYTE   W02
 BYTE   VOL   10*FE12DaysofTrainingRoyLili500_mvl/mxv
 BYTE   W02
 BYTE   VOL   8*FE12DaysofTrainingRoyLili500_mvl/mxv
 BYTE   W01
 BYTE   VOL   8*FE12DaysofTrainingRoyLili500_mvl/mxv
 BYTE   W01
 BYTE   VOL   7*FE12DaysofTrainingRoyLili500_mvl/mxv
 BYTE   W02
//  #12 //018   ----------------------------------------
 BYTE   VOL   6*FE12DaysofTrainingRoyLili500_mvl/mxv
 BYTE   W02
 BYTE   VOL   6*FE12DaysofTrainingRoyLili500_mvl/mxv
 BYTE   W01
 BYTE   VOL   6*FE12DaysofTrainingRoyLili500_mvl/mxv
 BYTE   W01
 BYTE   VOL   5*FE12DaysofTrainingRoyLili500_mvl/mxv
 BYTE   W02
 BYTE   VOL   5*FE12DaysofTrainingRoyLili500_mvl/mxv
 BYTE   W02
 BYTE   VOL   4*FE12DaysofTrainingRoyLili500_mvl/mxv
 BYTE   W01
 BYTE   VOL   3*FE12DaysofTrainingRoyLili500_mvl/mxv
 BYTE   W01
 BYTE   VOL   3*FE12DaysofTrainingRoyLili500_mvl/mxv
 BYTE   W02
 BYTE   VOL   3*FE12DaysofTrainingRoyLili500_mvl/mxv
 BYTE   W02
 BYTE   VOL   2*FE12DaysofTrainingRoyLili500_mvl/mxv
 BYTE   W01
 BYTE   VOL   2*FE12DaysofTrainingRoyLili500_mvl/mxv
 BYTE   W01
 BYTE   VOL   1*FE12DaysofTrainingRoyLili500_mvl/mxv
 BYTE   W02
 BYTE   VOL   1*FE12DaysofTrainingRoyLili500_mvl/mxv
 BYTE   W02
 BYTE   VOL   1*FE12DaysofTrainingRoyLili500_mvl/mxv
 BYTE   W01
 BYTE   VOL   1*FE12DaysofTrainingRoyLili500_mvl/mxv
 BYTE   W01
 BYTE   VOL   0*FE12DaysofTrainingRoyLili500_mvl/mxv
 BYTE   W02
 BYTE   VOL   0*FE12DaysofTrainingRoyLili500_mvl/mxv
 BYTE   W02
 BYTE   VOL   0*FE12DaysofTrainingRoyLili500_mvl/mxv
 BYTE   W01
 BYTE   VOL   0*FE12DaysofTrainingRoyLili500_mvl/mxv
 BYTE   W01
 BYTE   VOL   0*FE12DaysofTrainingRoyLili500_mvl/mxv
 BYTE   W02
 BYTE   VOL   0*FE12DaysofTrainingRoyLili500_mvl/mxv
 BYTE   W01
 BYTE   VOL   0*FE12DaysofTrainingRoyLili500_mvl/mxv
 BYTE   W03
 BYTE   EOT
 BYTE   W60
 BYTE   W02
//  #12 //019   ----------------------------------------
 BYTE   W96
//  #12 //020   ----------------------------------------
 BYTE   W24
 BYTE   GoTo
  POIN2 Label_0141413B
 BYTE   FINE

//**************** Track 13 (Midi-Chn.12) ****************//

FE12DaysofTrainingRoyLili500_013:
//  #13 //000   ----------------------------------------
 BYTE   KEYSH   FE12DaysofTrainingRoyLili500_key+0
 BYTE   VOICE   23
 BYTE   MODT 0
 BYTE   LFOS 44
 BYTE   VOL   54*FE12DaysofTrainingRoyLili500_mvl/mxv
 BYTE   PAN   c_v+26
 BYTE   BEND   c_v+0
 BYTE   W24
Label_014148CB:
 BYTE   VOL   54*FE12DaysofTrainingRoyLili500_mvl/mxv
 BYTE   W72
//  #13 //001   ----------------------------------------
 BYTE   W96
//  #13 //002   ----------------------------------------
 BYTE   W96
//  #13 //003   ----------------------------------------
 BYTE   W96
//  #13 //004   ----------------------------------------
 BYTE   W96
//  #13 //005   ----------------------------------------
 BYTE   W96
//  #13 //006   ----------------------------------------
 BYTE   W32
 BYTE   VOL   10*FE12DaysofTrainingRoyLili500_mvl/mxv
 BYTE   W08
 BYTE   VOL   10*FE12DaysofTrainingRoyLili500_mvl/mxv
 BYTE   W01
 BYTE   VOL   10*FE12DaysofTrainingRoyLili500_mvl/mxv
 BYTE   W01
 BYTE   VOL   10*FE12DaysofTrainingRoyLili500_mvl/mxv
 BYTE   W01
 BYTE   VOL   11*FE12DaysofTrainingRoyLili500_mvl/mxv
 BYTE   W01
 BYTE   VOL   13*FE12DaysofTrainingRoyLili500_mvl/mxv
 BYTE   W01
 BYTE   VOL   18*FE12DaysofTrainingRoyLili500_mvl/mxv
 BYTE   W01
 BYTE   VOL   21*FE12DaysofTrainingRoyLili500_mvl/mxv
 BYTE   W01
 BYTE   VOL   24*FE12DaysofTrainingRoyLili500_mvl/mxv
 BYTE   W01
 BYTE   VOL   28*FE12DaysofTrainingRoyLili500_mvl/mxv
 BYTE   N14  Dn3  v116
 BYTE   W01
 BYTE   VOL   31*FE12DaysofTrainingRoyLili500_mvl/mxv
 BYTE   W01
 BYTE   VOL   37*FE12DaysofTrainingRoyLili500_mvl/mxv
 BYTE   W01
 BYTE   VOL   38*FE12DaysofTrainingRoyLili500_mvl/mxv
 BYTE   W01
 BYTE   VOL   40*FE12DaysofTrainingRoyLili500_mvl/mxv
 BYTE   W02
 BYTE   VOL   42*FE12DaysofTrainingRoyLili500_mvl/mxv
 BYTE   W02
 BYTE   VOL   44*FE12DaysofTrainingRoyLili500_mvl/mxv
 BYTE   W01
 BYTE   VOL   47*FE12DaysofTrainingRoyLili500_mvl/mxv
 BYTE   W01
 BYTE   VOL   48*FE12DaysofTrainingRoyLili500_mvl/mxv
 BYTE   W02
 BYTE   VOL   50*FE12DaysofTrainingRoyLili500_mvl/mxv
 BYTE   W01
 BYTE   VOL   51*FE12DaysofTrainingRoyLili500_mvl/mxv
 BYTE   W02
 BYTE   N07  Ds3
 BYTE   W09
 BYTE   VOL   51*FE12DaysofTrainingRoyLili500_mvl/mxv
 BYTE   N22  Fn3
 BYTE   W01
 BYTE   VOL   50*FE12DaysofTrainingRoyLili500_mvl/mxv
 BYTE   W02
 BYTE   VOL   47*FE12DaysofTrainingRoyLili500_mvl/mxv
 BYTE   W01
 BYTE   VOL   45*FE12DaysofTrainingRoyLili500_mvl/mxv
 BYTE   W02
 BYTE   VOL   43*FE12DaysofTrainingRoyLili500_mvl/mxv
 BYTE   W02
 BYTE   VOL   44*FE12DaysofTrainingRoyLili500_mvl/mxv
 BYTE   W04
 BYTE   VOL   46*FE12DaysofTrainingRoyLili500_mvl/mxv
 BYTE   W03
 BYTE   VOL   47*FE12DaysofTrainingRoyLili500_mvl/mxv
 BYTE   W03
 BYTE   VOL   48*FE12DaysofTrainingRoyLili500_mvl/mxv
 BYTE   W02
 BYTE   VOL   50*FE12DaysofTrainingRoyLili500_mvl/mxv
 BYTE   W02
 BYTE   VOL   51*FE12DaysofTrainingRoyLili500_mvl/mxv
 BYTE   W02
//  #13 //007   ----------------------------------------
 BYTE   N14  As3
 BYTE   W15
 BYTE   N02  An3  v072
 BYTE   W04
 BYTE   As3  v084
 BYTE   W05
 BYTE   N07  An3  v116
 BYTE   W15
 BYTE   Fn3
 BYTE   W09
 BYTE   N22  Gn3
 BYTE   W01
 BYTE   VOL   51*FE12DaysofTrainingRoyLili500_mvl/mxv
 BYTE   W01
 BYTE   VOL   50*FE12DaysofTrainingRoyLili500_mvl/mxv
 BYTE   W01
 BYTE   VOL   47*FE12DaysofTrainingRoyLili500_mvl/mxv
 BYTE   W02
 BYTE   VOL   46*FE12DaysofTrainingRoyLili500_mvl/mxv
 BYTE   W02
 BYTE   VOL   44*FE12DaysofTrainingRoyLili500_mvl/mxv
 BYTE   W01
 BYTE   VOL   43*FE12DaysofTrainingRoyLili500_mvl/mxv
 BYTE   W01
 BYTE   VOL   41*FE12DaysofTrainingRoyLili500_mvl/mxv
 BYTE   W01
 BYTE   VOL   40*FE12DaysofTrainingRoyLili500_mvl/mxv
 BYTE   W02
 BYTE   VOL   40*FE12DaysofTrainingRoyLili500_mvl/mxv
 BYTE   W02
 BYTE   VOL   41*FE12DaysofTrainingRoyLili500_mvl/mxv
 BYTE   W01
 BYTE   VOL   42*FE12DaysofTrainingRoyLili500_mvl/mxv
 BYTE   W01
 BYTE   VOL   43*FE12DaysofTrainingRoyLili500_mvl/mxv
 BYTE   W02
 BYTE   VOL   44*FE12DaysofTrainingRoyLili500_mvl/mxv
 BYTE   W02
 BYTE   VOL   44*FE12DaysofTrainingRoyLili500_mvl/mxv
 BYTE   W01
 BYTE   VOL   45*FE12DaysofTrainingRoyLili500_mvl/mxv
 BYTE   W01
 BYTE   VOL   46*FE12DaysofTrainingRoyLili500_mvl/mxv
 BYTE   W02
 BYTE   VOL   47*FE12DaysofTrainingRoyLili500_mvl/mxv
 BYTE   N22  Dn4
 BYTE   W02
 BYTE   VOL   47*FE12DaysofTrainingRoyLili500_mvl/mxv
 BYTE   W01
 BYTE   VOL   48*FE12DaysofTrainingRoyLili500_mvl/mxv
 BYTE   W01
 BYTE   VOL   47*FE12DaysofTrainingRoyLili500_mvl/mxv
 BYTE   W02
 BYTE   VOL   47*FE12DaysofTrainingRoyLili500_mvl/mxv
 BYTE   W01
 BYTE   VOL   46*FE12DaysofTrainingRoyLili500_mvl/mxv
 BYTE   W01
 BYTE   VOL   45*FE12DaysofTrainingRoyLili500_mvl/mxv
 BYTE   W01
 BYTE   VOL   44*FE12DaysofTrainingRoyLili500_mvl/mxv
 BYTE   W01
 BYTE   VOL   45*FE12DaysofTrainingRoyLili500_mvl/mxv
 BYTE   W02
 BYTE   VOL   46*FE12DaysofTrainingRoyLili500_mvl/mxv
 BYTE   W02
 BYTE   VOL   47*FE12DaysofTrainingRoyLili500_mvl/mxv
 BYTE   W01
 BYTE   VOL   47*FE12DaysofTrainingRoyLili500_mvl/mxv
 BYTE   W01
 BYTE   VOL   49*FE12DaysofTrainingRoyLili500_mvl/mxv
 BYTE   W02
 BYTE   VOL   50*FE12DaysofTrainingRoyLili500_mvl/mxv
 BYTE   W02
 BYTE   VOL   51*FE12DaysofTrainingRoyLili500_mvl/mxv
 BYTE   W01
 BYTE   VOL   51*FE12DaysofTrainingRoyLili500_mvl/mxv
 BYTE   W01
 BYTE   VOL   54*FE12DaysofTrainingRoyLili500_mvl/mxv
 BYTE   W02
//  #13 //008   ----------------------------------------
 BYTE   N07  Cn4
 BYTE   W08
 BYTE   N03  As3
 BYTE   W07
 BYTE   N04  An3
 BYTE   W09
 BYTE   N07  Gn3
 BYTE   W08
 BYTE   N03  An3
 BYTE   W07
 BYTE   N04  As3
 BYTE   W09
 BYTE   VOL   54*FE12DaysofTrainingRoyLili500_mvl/mxv
 BYTE   N44  Gn3
 BYTE   W02
 BYTE   VOL   51*FE12DaysofTrainingRoyLili500_mvl/mxv
 BYTE   W01
 BYTE   VOL   50*FE12DaysofTrainingRoyLili500_mvl/mxv
 BYTE   W01
 BYTE   VOL   47*FE12DaysofTrainingRoyLili500_mvl/mxv
 BYTE   W02
 BYTE   VOL   46*FE12DaysofTrainingRoyLili500_mvl/mxv
 BYTE   W02
 BYTE   VOL   44*FE12DaysofTrainingRoyLili500_mvl/mxv
 BYTE   W01
 BYTE   VOL   42*FE12DaysofTrainingRoyLili500_mvl/mxv
 BYTE   W01
 BYTE   VOL   40*FE12DaysofTrainingRoyLili500_mvl/mxv
 BYTE   W02
 BYTE   VOL   39*FE12DaysofTrainingRoyLili500_mvl/mxv
 BYTE   W02
 BYTE   VOL   37*FE12DaysofTrainingRoyLili500_mvl/mxv
 BYTE   W01
 BYTE   VOL   36*FE12DaysofTrainingRoyLili500_mvl/mxv
 BYTE   W07
 BYTE   VOL   37*FE12DaysofTrainingRoyLili500_mvl/mxv
 BYTE   W08
 BYTE   VOL   37*FE12DaysofTrainingRoyLili500_mvl/mxv
 BYTE   W02
 BYTE   VOL   38*FE12DaysofTrainingRoyLili500_mvl/mxv
 BYTE   W01
 BYTE   VOL   39*FE12DaysofTrainingRoyLili500_mvl/mxv
 BYTE   W01
 BYTE   VOL   40*FE12DaysofTrainingRoyLili500_mvl/mxv
 BYTE   W02
 BYTE   VOL   42*FE12DaysofTrainingRoyLili500_mvl/mxv
 BYTE   W02
 BYTE   VOL   44*FE12DaysofTrainingRoyLili500_mvl/mxv
 BYTE   W01
 BYTE   VOL   46*FE12DaysofTrainingRoyLili500_mvl/mxv
 BYTE   W01
 BYTE   VOL   47*FE12DaysofTrainingRoyLili500_mvl/mxv
 BYTE   W02
 BYTE   VOL   48*FE12DaysofTrainingRoyLili500_mvl/mxv
 BYTE   W02
 BYTE   VOL   50*FE12DaysofTrainingRoyLili500_mvl/mxv
 BYTE   W01
 BYTE   VOL   51*FE12DaysofTrainingRoyLili500_mvl/mxv
 BYTE   W01
 BYTE   VOL   54*FE12DaysofTrainingRoyLili500_mvl/mxv
 BYTE   W02
//  #13 //009   ----------------------------------------
 BYTE   VOL   52*FE12DaysofTrainingRoyLili500_mvl/mxv
 BYTE   N22  Fn3
 BYTE   W01
 BYTE   VOL   50*FE12DaysofTrainingRoyLili500_mvl/mxv
 BYTE   W01
 BYTE   VOL   50*FE12DaysofTrainingRoyLili500_mvl/mxv
 BYTE   W02
 BYTE   VOL   47*FE12DaysofTrainingRoyLili500_mvl/mxv
 BYTE   W02
 BYTE   VOL   47*FE12DaysofTrainingRoyLili500_mvl/mxv
 BYTE   W01
 BYTE   VOL   46*FE12DaysofTrainingRoyLili500_mvl/mxv
 BYTE   W02
 BYTE   VOL   47*FE12DaysofTrainingRoyLili500_mvl/mxv
 BYTE   W04
 BYTE   VOL   48*FE12DaysofTrainingRoyLili500_mvl/mxv
 BYTE   W02
 BYTE   VOL   50*FE12DaysofTrainingRoyLili500_mvl/mxv
 BYTE   W04
 BYTE   VOL   51*FE12DaysofTrainingRoyLili500_mvl/mxv
 BYTE   W02
 BYTE   VOL   52*FE12DaysofTrainingRoyLili500_mvl/mxv
 BYTE   W03
 BYTE   VOL   54*FE12DaysofTrainingRoyLili500_mvl/mxv
 BYTE   N07  Ds3
 BYTE   W08
 BYTE   N03  Fn3
 BYTE   W07
 BYTE   N04  Gn3
 BYTE   W08
 BYTE   VOL   54*FE12DaysofTrainingRoyLili500_mvl/mxv
 BYTE   W01
 BYTE   N68  Dn3
 BYTE   W01
 BYTE   VOL   51*FE12DaysofTrainingRoyLili500_mvl/mxv
 BYTE   W01
 BYTE   VOL   49*FE12DaysofTrainingRoyLili500_mvl/mxv
 BYTE   W01
 BYTE   VOL   46*FE12DaysofTrainingRoyLili500_mvl/mxv
 BYTE   W02
 BYTE   VOL   44*FE12DaysofTrainingRoyLili500_mvl/mxv
 BYTE   W02
 BYTE   VOL   42*FE12DaysofTrainingRoyLili500_mvl/mxv
 BYTE   W01
 BYTE   VOL   38*FE12DaysofTrainingRoyLili500_mvl/mxv
 BYTE   W04
 BYTE   VOL   39*FE12DaysofTrainingRoyLili500_mvl/mxv
 BYTE   W03
 BYTE   VOL   39*FE12DaysofTrainingRoyLili500_mvl/mxv
 BYTE   W04
 BYTE   VOL   40*FE12DaysofTrainingRoyLili500_mvl/mxv
 BYTE   W03
 BYTE   VOL   40*FE12DaysofTrainingRoyLili500_mvl/mxv
 BYTE   W03
 BYTE   VOL   42*FE12DaysofTrainingRoyLili500_mvl/mxv
 BYTE   W03
 BYTE   VOL   43*FE12DaysofTrainingRoyLili500_mvl/mxv
 BYTE   W01
 BYTE   VOL   44*FE12DaysofTrainingRoyLili500_mvl/mxv
 BYTE   W03
 BYTE   VOL   42*FE12DaysofTrainingRoyLili500_mvl/mxv
 BYTE   W03
 BYTE   VOL   41*FE12DaysofTrainingRoyLili500_mvl/mxv
 BYTE   W03
 BYTE   VOL   40*FE12DaysofTrainingRoyLili500_mvl/mxv
 BYTE   W03
 BYTE   VOL   39*FE12DaysofTrainingRoyLili500_mvl/mxv
 BYTE   W03
 BYTE   VOL   38*FE12DaysofTrainingRoyLili500_mvl/mxv
 BYTE   W03
 BYTE   VOL   37*FE12DaysofTrainingRoyLili500_mvl/mxv
 BYTE   W01
//  #13 //010   ----------------------------------------
 BYTE   W02
 BYTE   VOL   37*FE12DaysofTrainingRoyLili500_mvl/mxv
 BYTE   W03
 BYTE   VOL   36*FE12DaysofTrainingRoyLili500_mvl/mxv
 BYTE   W01
 BYTE   VOL   35*FE12DaysofTrainingRoyLili500_mvl/mxv
 BYTE   W01
 BYTE   VOL   32*FE12DaysofTrainingRoyLili500_mvl/mxv
 BYTE   W01
 BYTE   VOL   30*FE12DaysofTrainingRoyLili500_mvl/mxv
 BYTE   W01
 BYTE   VOL   27*FE12DaysofTrainingRoyLili500_mvl/mxv
 BYTE   W01
 BYTE   VOL   26*FE12DaysofTrainingRoyLili500_mvl/mxv
 BYTE   W01
 BYTE   VOL   24*FE12DaysofTrainingRoyLili500_mvl/mxv
 BYTE   W01
 BYTE   VOL   23*FE12DaysofTrainingRoyLili500_mvl/mxv
 BYTE   W01
 BYTE   VOL   21*FE12DaysofTrainingRoyLili500_mvl/mxv
 BYTE   W01
 BYTE   VOL   20*FE12DaysofTrainingRoyLili500_mvl/mxv
 BYTE   W01
 BYTE   VOL   17*FE12DaysofTrainingRoyLili500_mvl/mxv
 BYTE   W01
 BYTE   VOL   16*FE12DaysofTrainingRoyLili500_mvl/mxv
 BYTE   W01
 BYTE   VOL   15*FE12DaysofTrainingRoyLili500_mvl/mxv
 BYTE   W01
 BYTE   VOL   14*FE12DaysofTrainingRoyLili500_mvl/mxv
 BYTE   W01
 BYTE   VOL   13*FE12DaysofTrainingRoyLili500_mvl/mxv
 BYTE   W01
 BYTE   VOL   11*FE12DaysofTrainingRoyLili500_mvl/mxv
 BYTE   W01
 BYTE   VOL   11*FE12DaysofTrainingRoyLili500_mvl/mxv
 BYTE   W01
 BYTE   VOL   10*FE12DaysofTrainingRoyLili500_mvl/mxv
 BYTE   W01
 BYTE   VOL   10*FE12DaysofTrainingRoyLili500_mvl/mxv
 BYTE   W01
 BYTE   VOL   10*FE12DaysofTrainingRoyLili500_mvl/mxv
 BYTE   W01
 BYTE   VOL   10*FE12DaysofTrainingRoyLili500_mvl/mxv
 BYTE   W68
 BYTE   W03
//  #13 //011   ----------------------------------------
 BYTE   W96
//  #13 //012   ----------------------------------------
 BYTE   W96
//  #13 //013   ----------------------------------------
 BYTE   W96
//  #13 //014   ----------------------------------------
 BYTE   W24
 BYTE   W02
 BYTE   VOL   10*FE12DaysofTrainingRoyLili500_mvl/mxv
 BYTE   W01
 BYTE   VOL   10*FE12DaysofTrainingRoyLili500_mvl/mxv
 BYTE   W01
 BYTE   VOL   11*FE12DaysofTrainingRoyLili500_mvl/mxv
 BYTE   W02
 BYTE   VOL   13*FE12DaysofTrainingRoyLili500_mvl/mxv
 BYTE   W01
 BYTE   VOL   14*FE12DaysofTrainingRoyLili500_mvl/mxv
 BYTE   W01
 BYTE   VOL   16*FE12DaysofTrainingRoyLili500_mvl/mxv
 BYTE   W01
 BYTE   VOL   18*FE12DaysofTrainingRoyLili500_mvl/mxv
 BYTE   W01
 BYTE   VOL   21*FE12DaysofTrainingRoyLili500_mvl/mxv
 BYTE   W02
 BYTE   VOL   25*FE12DaysofTrainingRoyLili500_mvl/mxv
 BYTE   W01
 BYTE   VOL   27*FE12DaysofTrainingRoyLili500_mvl/mxv
 BYTE   W01
 BYTE   VOL   31*FE12DaysofTrainingRoyLili500_mvl/mxv
 BYTE   W01
 BYTE   VOL   33*FE12DaysofTrainingRoyLili500_mvl/mxv
 BYTE   W01
 BYTE   VOL   38*FE12DaysofTrainingRoyLili500_mvl/mxv
 BYTE   W02
 BYTE   VOL   44*FE12DaysofTrainingRoyLili500_mvl/mxv
 BYTE   W01
 BYTE   VOL   46*FE12DaysofTrainingRoyLili500_mvl/mxv
 BYTE   W01
 BYTE   VOL   51*FE12DaysofTrainingRoyLili500_mvl/mxv
 BYTE   W01
 BYTE   VOL   54*FE12DaysofTrainingRoyLili500_mvl/mxv
 BYTE   W01
 BYTE   VOL   51*FE12DaysofTrainingRoyLili500_mvl/mxv
 BYTE   W02
 BYTE   VOL   50*FE12DaysofTrainingRoyLili500_mvl/mxv
 BYTE   N17  Ds3
 BYTE   W02
 BYTE   VOL   47*FE12DaysofTrainingRoyLili500_mvl/mxv
 BYTE   W01
 BYTE   VOL   46*FE12DaysofTrainingRoyLili500_mvl/mxv
 BYTE   W01
 BYTE   VOL   44*FE12DaysofTrainingRoyLili500_mvl/mxv
 BYTE   W02
 BYTE   VOL   42*FE12DaysofTrainingRoyLili500_mvl/mxv
 BYTE   W01
 BYTE   VOL   44*FE12DaysofTrainingRoyLili500_mvl/mxv
 BYTE   W01
 BYTE   VOL   46*FE12DaysofTrainingRoyLili500_mvl/mxv
 BYTE   W02
 BYTE   VOL   47*FE12DaysofTrainingRoyLili500_mvl/mxv
 BYTE   W02
 BYTE   VOL   49*FE12DaysofTrainingRoyLili500_mvl/mxv
 BYTE   W01
 BYTE   VOL   50*FE12DaysofTrainingRoyLili500_mvl/mxv
 BYTE   W02
 BYTE   VOL   54*FE12DaysofTrainingRoyLili500_mvl/mxv
 BYTE   W03
 BYTE   N02  Gs3  v096
 BYTE   W02
 BYTE   An3
 BYTE   W04
 BYTE   VOL   54*FE12DaysofTrainingRoyLili500_mvl/mxv
 BYTE   N22  As3  v116
 BYTE   W01
 BYTE   VOL   53*FE12DaysofTrainingRoyLili500_mvl/mxv
 BYTE   W02
 BYTE   VOL   51*FE12DaysofTrainingRoyLili500_mvl/mxv
 BYTE   W01
 BYTE   VOL   50*FE12DaysofTrainingRoyLili500_mvl/mxv
 BYTE   W02
 BYTE   VOL   50*FE12DaysofTrainingRoyLili500_mvl/mxv
 BYTE   W01
 BYTE   VOL   49*FE12DaysofTrainingRoyLili500_mvl/mxv
 BYTE   W01
 BYTE   VOL   47*FE12DaysofTrainingRoyLili500_mvl/mxv
 BYTE   W02
 BYTE   VOL   47*FE12DaysofTrainingRoyLili500_mvl/mxv
 BYTE   W02
 BYTE   VOL   46*FE12DaysofTrainingRoyLili500_mvl/mxv
 BYTE   W01
 BYTE   VOL   45*FE12DaysofTrainingRoyLili500_mvl/mxv
 BYTE   W01
 BYTE   VOL   44*FE12DaysofTrainingRoyLili500_mvl/mxv
 BYTE   W02
 BYTE   VOL   44*FE12DaysofTrainingRoyLili500_mvl/mxv
 BYTE   W02
 BYTE   VOL   42*FE12DaysofTrainingRoyLili500_mvl/mxv
 BYTE   W01
 BYTE   VOL   41*FE12DaysofTrainingRoyLili500_mvl/mxv
 BYTE   W02
 BYTE   VOL   40*FE12DaysofTrainingRoyLili500_mvl/mxv
 BYTE   W01
 BYTE   VOL   41*FE12DaysofTrainingRoyLili500_mvl/mxv
 BYTE   W02
//  #13 //015   ----------------------------------------
 BYTE   VOL   42*FE12DaysofTrainingRoyLili500_mvl/mxv
 BYTE   N17  Gs3
 BYTE   W01
 BYTE   VOL   44*FE12DaysofTrainingRoyLili500_mvl/mxv
 BYTE   W01
 BYTE   VOL   44*FE12DaysofTrainingRoyLili500_mvl/mxv
 BYTE   W02
 BYTE   VOL   46*FE12DaysofTrainingRoyLili500_mvl/mxv
 BYTE   W02
 BYTE   VOL   47*FE12DaysofTrainingRoyLili500_mvl/mxv
 BYTE   W01
 BYTE   VOL   47*FE12DaysofTrainingRoyLili500_mvl/mxv
 BYTE   W02
 BYTE   VOL   49*FE12DaysofTrainingRoyLili500_mvl/mxv
 BYTE   W01
 BYTE   VOL   50*FE12DaysofTrainingRoyLili500_mvl/mxv
 BYTE   W02
 BYTE   VOL   51*FE12DaysofTrainingRoyLili500_mvl/mxv
 BYTE   W01
 BYTE   VOL   52*FE12DaysofTrainingRoyLili500_mvl/mxv
 BYTE   W01
 BYTE   VOL   54*FE12DaysofTrainingRoyLili500_mvl/mxv
 BYTE   W04
 BYTE   N02  Cs4  v068
 BYTE   W03
 BYTE   Dn4  v096
 BYTE   W03
 BYTE   N22  Ds4  v116
 BYTE   W01
 BYTE   VOL   54*FE12DaysofTrainingRoyLili500_mvl/mxv
 BYTE   W01
 BYTE   VOL   52*FE12DaysofTrainingRoyLili500_mvl/mxv
 BYTE   W01
 BYTE   VOL   51*FE12DaysofTrainingRoyLili500_mvl/mxv
 BYTE   W02
 BYTE   VOL   50*FE12DaysofTrainingRoyLili500_mvl/mxv
 BYTE   W02
 BYTE   VOL   49*FE12DaysofTrainingRoyLili500_mvl/mxv
 BYTE   W01
 BYTE   VOL   47*FE12DaysofTrainingRoyLili500_mvl/mxv
 BYTE   W01
 BYTE   VOL   47*FE12DaysofTrainingRoyLili500_mvl/mxv
 BYTE   W02
 BYTE   VOL   46*FE12DaysofTrainingRoyLili500_mvl/mxv
 BYTE   W02
 BYTE   VOL   44*FE12DaysofTrainingRoyLili500_mvl/mxv
 BYTE   W01
 BYTE   VOL   44*FE12DaysofTrainingRoyLili500_mvl/mxv
 BYTE   W01
 BYTE   VOL   42*FE12DaysofTrainingRoyLili500_mvl/mxv
 BYTE   W02
 BYTE   VOL   41*FE12DaysofTrainingRoyLili500_mvl/mxv
 BYTE   W02
 BYTE   VOL   40*FE12DaysofTrainingRoyLili500_mvl/mxv
 BYTE   W01
 BYTE   VOL   39*FE12DaysofTrainingRoyLili500_mvl/mxv
 BYTE   W01
 BYTE   VOL   38*FE12DaysofTrainingRoyLili500_mvl/mxv
 BYTE   W02
 BYTE   VOL   37*FE12DaysofTrainingRoyLili500_mvl/mxv
 BYTE   W01
 BYTE   VOL   37*FE12DaysofTrainingRoyLili500_mvl/mxv
 BYTE   N22  Cs4
 BYTE   W02
 BYTE   VOL   37*FE12DaysofTrainingRoyLili500_mvl/mxv
 BYTE   W01
 BYTE   VOL   38*FE12DaysofTrainingRoyLili500_mvl/mxv
 BYTE   W01
 BYTE   VOL   39*FE12DaysofTrainingRoyLili500_mvl/mxv
 BYTE   W02
 BYTE   VOL   40*FE12DaysofTrainingRoyLili500_mvl/mxv
 BYTE   W02
 BYTE   VOL   41*FE12DaysofTrainingRoyLili500_mvl/mxv
 BYTE   W01
 BYTE   VOL   42*FE12DaysofTrainingRoyLili500_mvl/mxv
 BYTE   W01
 BYTE   VOL   44*FE12DaysofTrainingRoyLili500_mvl/mxv
 BYTE   W02
 BYTE   VOL   44*FE12DaysofTrainingRoyLili500_mvl/mxv
 BYTE   W02
 BYTE   VOL   46*FE12DaysofTrainingRoyLili500_mvl/mxv
 BYTE   W01
 BYTE   VOL   47*FE12DaysofTrainingRoyLili500_mvl/mxv
 BYTE   W01
 BYTE   VOL   47*FE12DaysofTrainingRoyLili500_mvl/mxv
 BYTE   W02
 BYTE   VOL   49*FE12DaysofTrainingRoyLili500_mvl/mxv
 BYTE   W02
 BYTE   VOL   50*FE12DaysofTrainingRoyLili500_mvl/mxv
 BYTE   W01
 BYTE   VOL   51*FE12DaysofTrainingRoyLili500_mvl/mxv
 BYTE   W01
 BYTE   VOL   52*FE12DaysofTrainingRoyLili500_mvl/mxv
 BYTE   W01
 BYTE   VOL   53*FE12DaysofTrainingRoyLili500_mvl/mxv
 BYTE   W01
 BYTE   N22  Fn4  v104
 BYTE   W01
 BYTE   VOL   52*FE12DaysofTrainingRoyLili500_mvl/mxv
 BYTE   W01
 BYTE   VOL   51*FE12DaysofTrainingRoyLili500_mvl/mxv
 BYTE   W01
 BYTE   VOL   50*FE12DaysofTrainingRoyLili500_mvl/mxv
 BYTE   W02
 BYTE   VOL   49*FE12DaysofTrainingRoyLili500_mvl/mxv
 BYTE   W02
 BYTE   VOL   47*FE12DaysofTrainingRoyLili500_mvl/mxv
 BYTE   W01
 BYTE   VOL   47*FE12DaysofTrainingRoyLili500_mvl/mxv
 BYTE   W01
 BYTE   VOL   46*FE12DaysofTrainingRoyLili500_mvl/mxv
 BYTE   W02
 BYTE   VOL   44*FE12DaysofTrainingRoyLili500_mvl/mxv
 BYTE   W02
 BYTE   VOL   44*FE12DaysofTrainingRoyLili500_mvl/mxv
 BYTE   W01
 BYTE   VOL   42*FE12DaysofTrainingRoyLili500_mvl/mxv
 BYTE   W01
 BYTE   VOL   41*FE12DaysofTrainingRoyLili500_mvl/mxv
 BYTE   W02
 BYTE   VOL   40*FE12DaysofTrainingRoyLili500_mvl/mxv
 BYTE   W02
 BYTE   VOL   39*FE12DaysofTrainingRoyLili500_mvl/mxv
 BYTE   W01
 BYTE   VOL   38*FE12DaysofTrainingRoyLili500_mvl/mxv
 BYTE   W01
 BYTE   VOL   37*FE12DaysofTrainingRoyLili500_mvl/mxv
 BYTE   W02
 BYTE   VOL   38*FE12DaysofTrainingRoyLili500_mvl/mxv
 BYTE   W01
//  #13 //016   ----------------------------------------
 BYTE   N17  Ds4
 BYTE   W01
 BYTE   VOL   39*FE12DaysofTrainingRoyLili500_mvl/mxv
 BYTE   W01
 BYTE   VOL   40*FE12DaysofTrainingRoyLili500_mvl/mxv
 BYTE   W01
 BYTE   VOL   41*FE12DaysofTrainingRoyLili500_mvl/mxv
 BYTE   W02
 BYTE   VOL   42*FE12DaysofTrainingRoyLili500_mvl/mxv
 BYTE   W02
 BYTE   VOL   44*FE12DaysofTrainingRoyLili500_mvl/mxv
 BYTE   W01
 BYTE   VOL   45*FE12DaysofTrainingRoyLili500_mvl/mxv
 BYTE   W01
 BYTE   VOL   46*FE12DaysofTrainingRoyLili500_mvl/mxv
 BYTE   W02
 BYTE   VOL   47*FE12DaysofTrainingRoyLili500_mvl/mxv
 BYTE   W02
 BYTE   VOL   49*FE12DaysofTrainingRoyLili500_mvl/mxv
 BYTE   W01
 BYTE   VOL   50*FE12DaysofTrainingRoyLili500_mvl/mxv
 BYTE   W01
 BYTE   VOL   51*FE12DaysofTrainingRoyLili500_mvl/mxv
 BYTE   W02
 BYTE   VOL   53*FE12DaysofTrainingRoyLili500_mvl/mxv
 BYTE   W01
 BYTE   VOL   54*FE12DaysofTrainingRoyLili500_mvl/mxv
 BYTE   N02  Gs4  v052
 BYTE   W02
 BYTE   An4  v080
 BYTE   W04
 BYTE   VOL   53*FE12DaysofTrainingRoyLili500_mvl/mxv
 BYTE   N44  As4  v088
 BYTE   W07
 BYTE   VOL   52*FE12DaysofTrainingRoyLili500_mvl/mxv
 BYTE   W01
 BYTE   VOL   51*FE12DaysofTrainingRoyLili500_mvl/mxv
 BYTE   W01
 BYTE   VOL   50*FE12DaysofTrainingRoyLili500_mvl/mxv
 BYTE   W02
 BYTE   VOL   50*FE12DaysofTrainingRoyLili500_mvl/mxv
 BYTE   W02
 BYTE   VOL   48*FE12DaysofTrainingRoyLili500_mvl/mxv
 BYTE   W01
 BYTE   VOL   47*FE12DaysofTrainingRoyLili500_mvl/mxv
 BYTE   W01
 BYTE   VOL   46*FE12DaysofTrainingRoyLili500_mvl/mxv
 BYTE   W02
 BYTE   VOL   45*FE12DaysofTrainingRoyLili500_mvl/mxv
 BYTE   W02
 BYTE   VOL   44*FE12DaysofTrainingRoyLili500_mvl/mxv
 BYTE   W01
 BYTE   VOL   44*FE12DaysofTrainingRoyLili500_mvl/mxv
 BYTE   W01
 BYTE   VOL   42*FE12DaysofTrainingRoyLili500_mvl/mxv
 BYTE   W02
 BYTE   VOL   41*FE12DaysofTrainingRoyLili500_mvl/mxv
 BYTE   W01
 BYTE   VOL   40*FE12DaysofTrainingRoyLili500_mvl/mxv
 BYTE   W03
 BYTE   VOL   41*FE12DaysofTrainingRoyLili500_mvl/mxv
 BYTE   W03
 BYTE   VOL   42*FE12DaysofTrainingRoyLili500_mvl/mxv
 BYTE   W02
 BYTE   VOL   44*FE12DaysofTrainingRoyLili500_mvl/mxv
 BYTE   W04
 BYTE   VOL   44*FE12DaysofTrainingRoyLili500_mvl/mxv
 BYTE   W02
 BYTE   VOL   45*FE12DaysofTrainingRoyLili500_mvl/mxv
 BYTE   W04
 BYTE   VOL   46*FE12DaysofTrainingRoyLili500_mvl/mxv
 BYTE   W03
 BYTE   VOL   47*FE12DaysofTrainingRoyLili500_mvl/mxv
 BYTE   W03
 BYTE   VOL   48*FE12DaysofTrainingRoyLili500_mvl/mxv
 BYTE   TIE  Gs4
 BYTE   W09
 BYTE   VOL   47*FE12DaysofTrainingRoyLili500_mvl/mxv
 BYTE   W04
 BYTE   VOL   47*FE12DaysofTrainingRoyLili500_mvl/mxv
 BYTE   W05
 BYTE   VOL   47*FE12DaysofTrainingRoyLili500_mvl/mxv
 BYTE   W04
 BYTE   VOL   46*FE12DaysofTrainingRoyLili500_mvl/mxv
 BYTE   W02
//  #13 //017   ----------------------------------------
 BYTE   W03
 BYTE   VOL   46*FE12DaysofTrainingRoyLili500_mvl/mxv
 BYTE   W04
 BYTE   VOL   45*FE12DaysofTrainingRoyLili500_mvl/mxv
 BYTE   W04
 BYTE   VOL   44*FE12DaysofTrainingRoyLili500_mvl/mxv
 BYTE   W04
 BYTE   VOL   44*FE12DaysofTrainingRoyLili500_mvl/mxv
 BYTE   W05
 BYTE   VOL   44*FE12DaysofTrainingRoyLili500_mvl/mxv
 BYTE   W05
 BYTE   VOL   43*FE12DaysofTrainingRoyLili500_mvl/mxv
 BYTE   W03
 BYTE   VOL   42*FE12DaysofTrainingRoyLili500_mvl/mxv
 BYTE   W04
 BYTE   VOL   41*FE12DaysofTrainingRoyLili500_mvl/mxv
 BYTE   W02
 BYTE   VOL   40*FE12DaysofTrainingRoyLili500_mvl/mxv
 BYTE   W04
 BYTE   VOL   39*FE12DaysofTrainingRoyLili500_mvl/mxv
 BYTE   W02
 BYTE   VOL   39*FE12DaysofTrainingRoyLili500_mvl/mxv
 BYTE   W04
 BYTE   VOL   38*FE12DaysofTrainingRoyLili500_mvl/mxv
 BYTE   W02
 BYTE   VOL   37*FE12DaysofTrainingRoyLili500_mvl/mxv
 BYTE   W04
 BYTE   VOL   37*FE12DaysofTrainingRoyLili500_mvl/mxv
 BYTE   W02
 BYTE   VOL   36*FE12DaysofTrainingRoyLili500_mvl/mxv
 BYTE   W04
 BYTE   VOL   34*FE12DaysofTrainingRoyLili500_mvl/mxv
 BYTE   W02
 BYTE   VOL   34*FE12DaysofTrainingRoyLili500_mvl/mxv
 BYTE   W04
 BYTE   VOL   33*FE12DaysofTrainingRoyLili500_mvl/mxv
 BYTE   W02
 BYTE   VOL   32*FE12DaysofTrainingRoyLili500_mvl/mxv
 BYTE   W02
 BYTE   VOL   32*FE12DaysofTrainingRoyLili500_mvl/mxv
 BYTE   W02
 BYTE   VOL   31*FE12DaysofTrainingRoyLili500_mvl/mxv
 BYTE   W01
 BYTE   VOL   30*FE12DaysofTrainingRoyLili500_mvl/mxv
 BYTE   W01
 BYTE   VOL   29*FE12DaysofTrainingRoyLili500_mvl/mxv
 BYTE   W02
 BYTE   VOL   28*FE12DaysofTrainingRoyLili500_mvl/mxv
 BYTE   W02
 BYTE   VOL   27*FE12DaysofTrainingRoyLili500_mvl/mxv
 BYTE   W01
 BYTE   VOL   26*FE12DaysofTrainingRoyLili500_mvl/mxv
 BYTE   W01
 BYTE   VOL   24*FE12DaysofTrainingRoyLili500_mvl/mxv
 BYTE   W02
 BYTE   VOL   24*FE12DaysofTrainingRoyLili500_mvl/mxv
 BYTE   W02
 BYTE   VOL   23*FE12DaysofTrainingRoyLili500_mvl/mxv
 BYTE   W01
 BYTE   VOL   21*FE12DaysofTrainingRoyLili500_mvl/mxv
 BYTE   W01
 BYTE   VOL   21*FE12DaysofTrainingRoyLili500_mvl/mxv
 BYTE   W02
 BYTE   VOL   20*FE12DaysofTrainingRoyLili500_mvl/mxv
 BYTE   W02
 BYTE   VOL   19*FE12DaysofTrainingRoyLili500_mvl/mxv
 BYTE   W01
 BYTE   VOL   18*FE12DaysofTrainingRoyLili500_mvl/mxv
 BYTE   W01
 BYTE   VOL   18*FE12DaysofTrainingRoyLili500_mvl/mxv
 BYTE   W02
 BYTE   VOL   16*FE12DaysofTrainingRoyLili500_mvl/mxv
 BYTE   W02
 BYTE   VOL   16*FE12DaysofTrainingRoyLili500_mvl/mxv
 BYTE   W01
 BYTE   VOL   15*FE12DaysofTrainingRoyLili500_mvl/mxv
 BYTE   W01
 BYTE   VOL   15*FE12DaysofTrainingRoyLili500_mvl/mxv
 BYTE   W02
//  #13 //018   ----------------------------------------
 BYTE   VOL   14*FE12DaysofTrainingRoyLili500_mvl/mxv
 BYTE   W02
 BYTE   VOL   13*FE12DaysofTrainingRoyLili500_mvl/mxv
 BYTE   W01
 BYTE   VOL   13*FE12DaysofTrainingRoyLili500_mvl/mxv
 BYTE   W01
 BYTE   VOL   12*FE12DaysofTrainingRoyLili500_mvl/mxv
 BYTE   W02
 BYTE   VOL   12*FE12DaysofTrainingRoyLili500_mvl/mxv
 BYTE   W02
 BYTE   VOL   11*FE12DaysofTrainingRoyLili500_mvl/mxv
 BYTE   W01
 BYTE   VOL   11*FE12DaysofTrainingRoyLili500_mvl/mxv
 BYTE   W01
 BYTE   VOL   11*FE12DaysofTrainingRoyLili500_mvl/mxv
 BYTE   W02
 BYTE   VOL   10*FE12DaysofTrainingRoyLili500_mvl/mxv
 BYTE   W02
 BYTE   VOL   10*FE12DaysofTrainingRoyLili500_mvl/mxv
 BYTE   W01
 BYTE   VOL   10*FE12DaysofTrainingRoyLili500_mvl/mxv
 BYTE   W01
 BYTE   VOL   10*FE12DaysofTrainingRoyLili500_mvl/mxv
 BYTE   W02
 BYTE   VOL   10*FE12DaysofTrainingRoyLili500_mvl/mxv
 BYTE   W01
 BYTE   VOL   10*FE12DaysofTrainingRoyLili500_mvl/mxv
 BYTE   W03
 BYTE   EOT
 BYTE   W72
 BYTE   W02
//  #13 //019   ----------------------------------------
 BYTE   W96
//  #13 //020   ----------------------------------------
 BYTE   W24
 BYTE   GoTo
  POIN2 Label_014148CB
 BYTE   FINE

//******************************************************//
	ALIGN 4

FE12DaysofTrainingRoyLili500:
	BYTE	13	// NumTrks
	BYTE	0	// NumBlks
	BYTE	FE12DaysofTrainingRoyLili500_pri	// Priority
	BYTE	FE12DaysofTrainingRoyLili500_rev	// Reverb.
    
	POIN2	FE12DaysofTrainingRoyLili500_grp
    
	POIN2	FE12DaysofTrainingRoyLili500_001
	POIN2	FE12DaysofTrainingRoyLili500_002
	POIN2	FE12DaysofTrainingRoyLili500_003
	POIN2	FE12DaysofTrainingRoyLili500_004
	POIN2	FE12DaysofTrainingRoyLili500_005
	POIN2	FE12DaysofTrainingRoyLili500_006
	POIN2	FE12DaysofTrainingRoyLili500_007
	POIN2	FE12DaysofTrainingRoyLili500_008
	POIN2	FE12DaysofTrainingRoyLili500_009
	POIN2	FE12DaysofTrainingRoyLili500_010
	POIN2	FE12DaysofTrainingRoyLili500_011
	POIN2	FE12DaysofTrainingRoyLili500_012
	POIN2	FE12DaysofTrainingRoyLili500_013

	
