//Event file generated from Sappy .s format.
	#include "MPlayDef.event"

	#define	FE12TearingShadowsAzula_grp  voicegroup000
	#define	FE12TearingShadowsAzula_pri  0
	#define	FE12TearingShadowsAzula_rev  128
	#define	FE12TearingShadowsAzula_mvl  127
	#define	FE12TearingShadowsAzula_key  0
	#define	FE12TearingShadowsAzula_tbs  1
	#define	FE12TearingShadowsAzula_exg  0
	#define	FE12TearingShadowsAzula_cmp  1

	// .rodata
	//	FE12TearingShadowsAzula
	ALIGN 4


//**************** Track 1 (Midi-Chn.0) ****************//

FE12TearingShadowsAzula_001:
//  #01 //000   ----------------------------------------
 BYTE   KEYSH   FE12TearingShadowsAzula_key+0
 BYTE   TEMPO   370*FE12TearingShadowsAzula_tbs/2
 BYTE   VOICE   30
 BYTE   MODT 0
 BYTE   LFOS 44
 BYTE   VOL   45*FE12TearingShadowsAzula_mvl/mxv
 BYTE   PAN   c_v-29
 BYTE   MODT 1
 BYTE   W48
 BYTE   N48  Fs2  v108
 BYTE   W48
//  #01 //001   ----------------------------------------
 BYTE   W96
//  #01 //002   ----------------------------------------
Label_01BC9E06:
 BYTE   W24
 BYTE   N24  Fs2  v108
 BYTE   W24
 BYTE   Gn2
 BYTE   W24
 BYTE   Cn3
 BYTE   W24
 BYTE   PEND 
//  #01 //003   ----------------------------------------
Label_01BC9E10:
 BYTE   N24  Fs2  v108
 BYTE   W24
 BYTE   Gn2
 BYTE   W24
 BYTE   Cn3
 BYTE   W24
 BYTE   Fs2
 BYTE   W24
 BYTE   PEND 
//  #01 //004   ----------------------------------------
 BYTE   Gn2
 BYTE   W24
 BYTE   Cn3
 BYTE   W24
 BYTE   N48  Fs2
 BYTE   W48
//  #01 //005   ----------------------------------------
 BYTE   W96
//  #01 //006   ----------------------------------------
 BYTE   PATT
  POIN2 Label_01BC9E06
//  #01 //007   ----------------------------------------
 BYTE   PATT
  POIN2 Label_01BC9E10
//  #01 //008   ----------------------------------------
 BYTE   N24  Gn2  v108
 BYTE   W24
 BYTE   Cn3
 BYTE   W48
 BYTE   Fs2
 BYTE   W24
//  #01 //009   ----------------------------------------
 BYTE   Cn3
 BYTE   W24
 BYTE   Bn2
 BYTE   W24
 BYTE   Fs2
 BYTE   W24
 BYTE   Cn3
 BYTE   W24
//  #01 //010   ----------------------------------------
 BYTE   Bn2
 BYTE   W24
 BYTE   Fs2
 BYTE   W24
 BYTE   Cn3
 BYTE   W24
 BYTE   Bn2
 BYTE   W24
//  #01 //011   ----------------------------------------
 BYTE   Fs2
 BYTE   W24
 BYTE   Cn3
 BYTE   W24
 BYTE   Bn2
 BYTE   W48
//  #01 //012   ----------------------------------------
 BYTE   W48
Label_01BC9E4C:
 BYTE   W48
//  #01 //013   ----------------------------------------
 BYTE   N24  Bn1  v108
 BYTE   W24
 BYTE   N24
 BYTE   W24
 BYTE   Cn2
 BYTE   W24
 BYTE   N24
 BYTE   W24
//  #01 //014   ----------------------------------------
 BYTE   An1
 BYTE   W24
 BYTE   N24
 BYTE   W24
 BYTE   Bn1
 BYTE   W24
 BYTE   N24
 BYTE   W24
//  #01 //015   ----------------------------------------
 BYTE   W96
//  #01 //016   ----------------------------------------
 BYTE   N24
 BYTE   W48
 BYTE   N12  Bn3
 BYTE   W12
 BYTE   An3
 BYTE   W12
 BYTE   Gn3
 BYTE   W12
 BYTE   Fs3
 BYTE   W12
//  #01 //017   ----------------------------------------
 BYTE   An3
 BYTE   W12
 BYTE   Gn3
 BYTE   W12
 BYTE   Fs3
 BYTE   W12
 BYTE   En3
 BYTE   W60
//  #01 //018   ----------------------------------------
 BYTE   W48
 BYTE   N12
 BYTE   W12
 BYTE   Dn3
 BYTE   W12
 BYTE   Cn3
 BYTE   W12
 BYTE   Bn2
 BYTE   W12
//  #01 //019   ----------------------------------------
 BYTE   Dn3
 BYTE   W12
 BYTE   Cn3
 BYTE   W12
 BYTE   Bn2
 BYTE   W12
 BYTE   An2
 BYTE   W12
 BYTE   Cn3
 BYTE   W12
 BYTE   Bn2
 BYTE   W12
 BYTE   An2
 BYTE   W12
 BYTE   Gn2
 BYTE   W12
//  #01 //020   ----------------------------------------
 BYTE   Bn2
 BYTE   W12
 BYTE   An2
 BYTE   W12
 BYTE   Gn2
 BYTE   W12
 BYTE   Fn2
 BYTE   W12
 BYTE   N24  Cn2
 BYTE   W24
 BYTE   N48
 BYTE   W24
//  #01 //021   ----------------------------------------
Label_01BC9E99:
 BYTE   W24
 BYTE   N48  Cn2  v108
 BYTE   W48
 BYTE   N24
 BYTE   W24
 BYTE   PEND 
//  #01 //022   ----------------------------------------
Label_01BC9EA1:
 BYTE   N48  Cn2  v108
 BYTE   W48
 BYTE   An1
 BYTE   W48
 BYTE   PEND 
//  #01 //023   ----------------------------------------
Label_01BC9EA8:
 BYTE   N24  An2  v108
 BYTE   W42
 BYTE   N06  An1
 BYTE   W06
 BYTE   N24  An2
 BYTE   W24
 BYTE   N24
 BYTE   W24
 BYTE   PEND 
//  #01 //024   ----------------------------------------
Label_01BC9EB5:
 BYTE   W12
 BYTE   N12  Gn2  v108
 BYTE   W12
 BYTE   Fs2
 BYTE   W12
 BYTE   En2
 BYTE   W12
 BYTE   N24  En1
 BYTE   W24
 BYTE   N48
 BYTE   W24
 BYTE   PEND 
//  #01 //025   ----------------------------------------
Label_01BC9EC4:
 BYTE   W24
 BYTE   N48  En1  v108
 BYTE   W48
 BYTE   N24
 BYTE   W24
 BYTE   PEND 
//  #01 //026   ----------------------------------------
 BYTE   N24
 BYTE   W48
 BYTE   N48
 BYTE   W48
//  #01 //027   ----------------------------------------
 BYTE   N48
 BYTE   W72
 BYTE   Bn1
 BYTE   W24
//  #01 //028   ----------------------------------------
 BYTE   W24
 BYTE   N24  Cn2
 BYTE   W24
 BYTE   N24
 BYTE   W24
 BYTE   N48
 BYTE   W24
//  #01 //029   ----------------------------------------
 BYTE   PATT
  POIN2 Label_01BC9E99
//  #01 //030   ----------------------------------------
 BYTE   PATT
  POIN2 Label_01BC9EA1
//  #01 //031   ----------------------------------------
 BYTE   PATT
  POIN2 Label_01BC9EA8
//  #01 //032   ----------------------------------------
 BYTE   PATT
  POIN2 Label_01BC9EB5
//  #01 //033   ----------------------------------------
 BYTE   PATT
  POIN2 Label_01BC9EC4
//  #01 //034   ----------------------------------------
 BYTE   N24  En1  v108
 BYTE   W48
 BYTE   N32  En2
 BYTE   W32
 BYTE   N16  En1
 BYTE   W16
//  #01 //035   ----------------------------------------
 BYTE   W48
 BYTE   Dn4
 BYTE   W16
 BYTE   Gn3
 BYTE   W16
 BYTE   Fs3
 BYTE   W16
//  #01 //036   ----------------------------------------
 BYTE   Cs4
 BYTE   W16
 BYTE   Fs3
 BYTE   W16
 BYTE   Fn3
 BYTE   W16
 BYTE   En3
 BYTE   W16
 BYTE   N16
 BYTE   W16
 BYTE   N16
 BYTE   W16
//  #01 //037   ----------------------------------------
Label_01BC9F12:
 BYTE   N16  En3  v108
 BYTE   W16
 BYTE   N16
 BYTE   W16
 BYTE   N16
 BYTE   W16
 BYTE   N48  Gn3
 BYTE   N48  Bn3
 BYTE   W48
 BYTE   PEND 
//  #01 //038   ----------------------------------------
Label_01BC9F20:
 BYTE   N16  En3  v108
 BYTE   W16
 BYTE   N16
 BYTE   W16
 BYTE   N16
 BYTE   W16
 BYTE   N16
 BYTE   W16
 BYTE   N16
 BYTE   W16
 BYTE   N16
 BYTE   W16
 BYTE   PEND 
//  #01 //039   ----------------------------------------
Label_01BC9F2F:
 BYTE   N48  As3  v108
 BYTE   N48  Dn4
 BYTE   W48
 BYTE   N16  En3
 BYTE   W16
 BYTE   N16
 BYTE   W16
 BYTE   N16
 BYTE   W16
 BYTE   PEND 
//  #01 //040   ----------------------------------------
Label_01BC9F3D:
 BYTE   N16  En3  v108
 BYTE   W16
 BYTE   N16
 BYTE   W16
 BYTE   N16
 BYTE   W16
 BYTE   N48  Fs3
 BYTE   N48  An3
 BYTE   W48
 BYTE   PEND 
//  #01 //041   ----------------------------------------
 BYTE   PATT
  POIN2 Label_01BC9F20
//  #01 //042   ----------------------------------------
Label_01BC9F50:
 BYTE   N48  Gn3  v108
 BYTE   N48  Bn3
 BYTE   W48
 BYTE   N16  En3
 BYTE   W16
 BYTE   N16
 BYTE   W16
 BYTE   N16
 BYTE   W16
 BYTE   PEND 
//  #01 //043   ----------------------------------------
 BYTE   N16
 BYTE   W16
 BYTE   N16
 BYTE   W16
 BYTE   N16
 BYTE   W16
 BYTE   As3
 BYTE   W16
 BYTE   En3
 BYTE   W16
 BYTE   Ds3
 BYTE   W16
//  #01 //044   ----------------------------------------
 BYTE   An3
 BYTE   W16
 BYTE   Ds3
 BYTE   W16
 BYTE   Dn3
 BYTE   W16
 BYTE   En3
 BYTE   W16
 BYTE   N16
 BYTE   W16
 BYTE   N16
 BYTE   W16
//  #01 //045   ----------------------------------------
 BYTE   PATT
  POIN2 Label_01BC9F12
//  #01 //046   ----------------------------------------
 BYTE   PATT
  POIN2 Label_01BC9F20
//  #01 //047   ----------------------------------------
 BYTE   PATT
  POIN2 Label_01BC9F2F
//  #01 //048   ----------------------------------------
 BYTE   PATT
  POIN2 Label_01BC9F3D
//  #01 //049   ----------------------------------------
 BYTE   PATT
  POIN2 Label_01BC9F20
//  #01 //050   ----------------------------------------
 BYTE   PATT
  POIN2 Label_01BC9F50
//  #01 //051   ----------------------------------------
 BYTE   N16  En3  v108
 BYTE   W16
 BYTE   N16
 BYTE   W16
 BYTE   N16
 BYTE   W64
//  #01 //052   ----------------------------------------
 BYTE   W48
 BYTE   GoTo
  POIN2 Label_01BC9E4C
//  #01 //053   ----------------------------------------
 BYTE   TEMPO   370*FE12TearingShadowsAzula_tbs/2
 BYTE   VOICE   81
 BYTE   FINE

//**************** Track 2 (Midi-Chn.1) ****************//

FE12TearingShadowsAzula_002:
//  #02 //000   ----------------------------------------
 BYTE   KEYSH   FE12TearingShadowsAzula_key+0
 BYTE   VOICE   48
 BYTE   MODT 0
 BYTE   LFOS 44
 BYTE   VOL   42*FE12TearingShadowsAzula_mvl/mxv
 BYTE   MODT 1
 BYTE   W96
//  #02 //001   ----------------------------------------
 BYTE   W96
//  #02 //002   ----------------------------------------
 BYTE   W96
//  #02 //003   ----------------------------------------
 BYTE   W96
//  #02 //004   ----------------------------------------
 BYTE   W96
//  #02 //005   ----------------------------------------
 BYTE   W96
//  #02 //006   ----------------------------------------
 BYTE   W96
//  #02 //007   ----------------------------------------
 BYTE   W96
//  #02 //008   ----------------------------------------
 BYTE   W96
//  #02 //009   ----------------------------------------
 BYTE   W96
//  #02 //010   ----------------------------------------
 BYTE   W96
//  #02 //011   ----------------------------------------
 BYTE   W96
//  #02 //012   ----------------------------------------
 BYTE   W48
Label_0155BDCD:
 BYTE   N48  Bn1  v080
 BYTE   N48  Bn3  v104
 BYTE   W48
//  #02 //013   ----------------------------------------
 BYTE   Fs2  v080
 BYTE   N48  Fs4  v104
 BYTE   W48
 BYTE   Gn2  v080
 BYTE   N48  Gn4  v104
 BYTE   W48
//  #02 //014   ----------------------------------------
 BYTE   Cn3  v080
 BYTE   N48  Cn5  v104
 BYTE   W48
 BYTE   TIE  Bn2  v080
 BYTE   TIE  Bn4  v104
 BYTE   W48
//  #02 //015   ----------------------------------------
 BYTE   W96
//  #02 //016   ----------------------------------------
 BYTE   EOT
 BYTE   Bn2  v083
 BYTE   N24  Fs2  v080
 BYTE   N24  Fs4  v104
 BYTE   W24
 BYTE   Gn2  v080
 BYTE   N24  Gn4  v104
 BYTE   W24
 BYTE   N72  An2  v080
 BYTE   N72  An4  v104
 BYTE   W48
//  #02 //017   ----------------------------------------
 BYTE   W24
 BYTE   N24  Bn2  v080
 BYTE   N24  Bn4  v104
 BYTE   W24
 BYTE   N48  Gn2  v080
 BYTE   N48  Gn4  v104
 BYTE   W48
//  #02 //018   ----------------------------------------
 BYTE   N24  En2  v080
 BYTE   N24  En4  v104
 BYTE   W24
 BYTE   Fs2  v080
 BYTE   N24  Fs4  v104
 BYTE   W24
 BYTE   N72  Gn2  v080
 BYTE   N72  Gn4  v104
 BYTE   W48
//  #02 //019   ----------------------------------------
 BYTE   W24
 BYTE   N24  An2  v080
 BYTE   N24  An4  v104
 BYTE   W24
 BYTE   N96  Fs2  v080
 BYTE   N96  Fs4  v104
 BYTE   W48
//  #02 //020   ----------------------------------------
 BYTE   W96
//  #02 //021   ----------------------------------------
 BYTE   W96
//  #02 //022   ----------------------------------------
 BYTE   W96
//  #02 //023   ----------------------------------------
 BYTE   W96
//  #02 //024   ----------------------------------------
 BYTE   W96
//  #02 //025   ----------------------------------------
 BYTE   W96
//  #02 //026   ----------------------------------------
 BYTE   W96
//  #02 //027   ----------------------------------------
 BYTE   W96
//  #02 //028   ----------------------------------------
 BYTE   W96
//  #02 //029   ----------------------------------------
 BYTE   W96
//  #02 //030   ----------------------------------------
 BYTE   W96
//  #02 //031   ----------------------------------------
 BYTE   W96
//  #02 //032   ----------------------------------------
 BYTE   W96
//  #02 //033   ----------------------------------------
 BYTE   W96
//  #02 //034   ----------------------------------------
 BYTE   W96
//  #02 //035   ----------------------------------------
 BYTE   W96
//  #02 //036   ----------------------------------------
 BYTE   W96
//  #02 //037   ----------------------------------------
 BYTE   W96
//  #02 //038   ----------------------------------------
 BYTE   W96
//  #02 //039   ----------------------------------------
 BYTE   W96
//  #02 //040   ----------------------------------------
 BYTE   W96
//  #02 //041   ----------------------------------------
 BYTE   W96
//  #02 //042   ----------------------------------------
 BYTE   W96
//  #02 //043   ----------------------------------------
 BYTE   W96
//  #02 //044   ----------------------------------------
 BYTE   W96
//  #02 //045   ----------------------------------------
 BYTE   W96
//  #02 //046   ----------------------------------------
 BYTE   W96
//  #02 //047   ----------------------------------------
 BYTE   W96
//  #02 //048   ----------------------------------------
 BYTE   W96
//  #02 //049   ----------------------------------------
 BYTE   W96
//  #02 //050   ----------------------------------------
 BYTE   W96
//  #02 //051   ----------------------------------------
 BYTE   W96
//  #02 //052   ----------------------------------------
 BYTE   W48
 BYTE   GoTo
  POIN2 Label_0155BDCD
//  #02 //053   ----------------------------------------
 BYTE   VOICE   80
 BYTE   MODT 1
 BYTE   FINE

//**************** Track 3 (Midi-Chn.2) ****************//

FE12TearingShadowsAzula_003:
//  #03 //000   ----------------------------------------
 BYTE   KEYSH   FE12TearingShadowsAzula_key+0
 BYTE   VOICE   40
 BYTE   MODT 0
 BYTE   LFOS 44
 BYTE   VOL   49*FE12TearingShadowsAzula_mvl/mxv
 BYTE   MODT 1
 BYTE   W96
//  #03 //001   ----------------------------------------
 BYTE   W96
//  #03 //002   ----------------------------------------
 BYTE   W96
//  #03 //003   ----------------------------------------
 BYTE   W96
//  #03 //004   ----------------------------------------
 BYTE   W96
//  #03 //005   ----------------------------------------
 BYTE   W96
//  #03 //006   ----------------------------------------
 BYTE   W96
//  #03 //007   ----------------------------------------
 BYTE   W96
//  #03 //008   ----------------------------------------
 BYTE   W48
 BYTE   PAN   c_v+0
 BYTE   BEND   c_v+0
 BYTE   TIE  Bn3  v068
 BYTE   TIE  Fs4
 BYTE   TIE  Bn4
 BYTE   W48
//  #03 //009   ----------------------------------------
 BYTE   W96
//  #03 //010   ----------------------------------------
 BYTE   W96
//  #03 //011   ----------------------------------------
 BYTE   W48
 BYTE   EOT
 BYTE   Bn3  v078
 BYTE   Bn4
 BYTE   W48
//  #03 //012   ----------------------------------------
 BYTE   W48
Label_018AFA7E:
 BYTE   W48
//  #03 //013   ----------------------------------------
 BYTE   W96
//  #03 //014   ----------------------------------------
 BYTE   W96
//  #03 //015   ----------------------------------------
 BYTE   W96
//  #03 //016   ----------------------------------------
 BYTE   W96
//  #03 //017   ----------------------------------------
 BYTE   W96
//  #03 //018   ----------------------------------------
 BYTE   W96
//  #03 //019   ----------------------------------------
 BYTE   W96
//  #03 //020   ----------------------------------------
 BYTE   W48
 BYTE   N24  En3  v068
 BYTE   W24
 BYTE   Fs3
 BYTE   W24
//  #03 //021   ----------------------------------------
Label_018AFA8D:
 BYTE   N24  Gn3  v068
 BYTE   W24
 BYTE   N48  Dn4
 BYTE   W48
 BYTE   N24  Gn3
 BYTE   W24
 BYTE   PEND 
//  #03 //022   ----------------------------------------
Label_018AFA98:
 BYTE   N24  Fs3  v068
 BYTE   W24
 BYTE   Gn3
 BYTE   W24
 BYTE   Dn4
 BYTE   W24
 BYTE   Gn3
 BYTE   W24
 BYTE   PEND 
//  #03 //023   ----------------------------------------
Label_018AFAA3:
 BYTE   N24  Gn4  v068
 BYTE   W24
 BYTE   N48  Fs4
 BYTE   W48
 BYTE   N24  Dn4
 BYTE   W24
 BYTE   PEND 
//  #03 //024   ----------------------------------------
Label_018AFAAE:
 BYTE   N24  An3  v068
 BYTE   W24
 BYTE   Gn3
 BYTE   W24
 BYTE   En3
 BYTE   W24
 BYTE   Fs3
 BYTE   W24
 BYTE   PEND 
//  #03 //025   ----------------------------------------
 BYTE   PATT
  POIN2 Label_018AFA8D
//  #03 //026   ----------------------------------------
 BYTE   PATT
  POIN2 Label_018AFA98
//  #03 //027   ----------------------------------------
 BYTE   N24  Cn4  v068
 BYTE   W24
 BYTE   N48  Bn3
 BYTE   W48
 BYTE   N24  Dn3
 BYTE   W24
//  #03 //028   ----------------------------------------
 BYTE   PATT
  POIN2 Label_018AFAAE
//  #03 //029   ----------------------------------------
 BYTE   PATT
  POIN2 Label_018AFA8D
//  #03 //030   ----------------------------------------
 BYTE   PATT
  POIN2 Label_018AFA98
//  #03 //031   ----------------------------------------
 BYTE   PATT
  POIN2 Label_018AFAA3
//  #03 //032   ----------------------------------------
 BYTE   PATT
  POIN2 Label_018AFAAE
//  #03 //033   ----------------------------------------
 BYTE   PATT
  POIN2 Label_018AFA8D
//  #03 //034   ----------------------------------------
 BYTE   N24  Fs3  v068
 BYTE   W24
 BYTE   Gn3
 BYTE   W24
 BYTE   N24
 BYTE   W48
//  #03 //035   ----------------------------------------
 BYTE   W96
//  #03 //036   ----------------------------------------
 BYTE   W96
//  #03 //037   ----------------------------------------
 BYTE   W96
//  #03 //038   ----------------------------------------
 BYTE   W96
//  #03 //039   ----------------------------------------
 BYTE   W96
//  #03 //040   ----------------------------------------
 BYTE   W96
//  #03 //041   ----------------------------------------
 BYTE   W96
//  #03 //042   ----------------------------------------
 BYTE   W96
//  #03 //043   ----------------------------------------
 BYTE   W96
//  #03 //044   ----------------------------------------
 BYTE   W96
//  #03 //045   ----------------------------------------
 BYTE   W96
//  #03 //046   ----------------------------------------
 BYTE   W96
//  #03 //047   ----------------------------------------
 BYTE   W96
//  #03 //048   ----------------------------------------
 BYTE   W96
//  #03 //049   ----------------------------------------
 BYTE   W96
//  #03 //050   ----------------------------------------
 BYTE   W96
//  #03 //051   ----------------------------------------
 BYTE   W96
//  #03 //052   ----------------------------------------
 BYTE   W48
 BYTE   GoTo
  POIN2 Label_018AFA7E
//  #03 //053   ----------------------------------------
 BYTE   VOICE   48
 BYTE   MODT 1
 BYTE   FINE

//**************** Track 4 (Midi-Chn.3) ****************//

FE12TearingShadowsAzula_004:
//  #04 //000   ----------------------------------------
 BYTE   KEYSH   FE12TearingShadowsAzula_key+0
 BYTE   VOICE   30
 BYTE   MODT 0
 BYTE   LFOS 44
 BYTE   VOL   45*FE12TearingShadowsAzula_mvl/mxv
 BYTE   PAN   c_v+30
 BYTE   MODT 1
 BYTE   W48
 BYTE   N48  Fs2  v108
 BYTE   W48
//  #04 //001   ----------------------------------------
 BYTE   W96
//  #04 //002   ----------------------------------------
Label_018AFCCC:
 BYTE   N24  Cn3  v108
 BYTE   W24
 BYTE   N24
 BYTE   W48
 BYTE   N24
 BYTE   W24
 BYTE   PEND 
//  #04 //003   ----------------------------------------
Label_018AFCD5:
 BYTE   N24  Cn3  v108
 BYTE   W48
 BYTE   N48
 BYTE   W48
 BYTE   PEND 
//  #04 //004   ----------------------------------------
 BYTE   N48
 BYTE   W48
 BYTE   Fs2
 BYTE   W48
//  #04 //005   ----------------------------------------
 BYTE   W96
//  #04 //006   ----------------------------------------
 BYTE   PATT
  POIN2 Label_018AFCCC
//  #04 //007   ----------------------------------------
 BYTE   PATT
  POIN2 Label_018AFCD5
//  #04 //008   ----------------------------------------
 BYTE   N48  Cn3  v108
 BYTE   W48
 BYTE   N96  Bn2
 BYTE   W48
//  #04 //009   ----------------------------------------
 BYTE   W96
//  #04 //010   ----------------------------------------
 BYTE   W96
//  #04 //011   ----------------------------------------
 BYTE   W96
//  #04 //012   ----------------------------------------
 BYTE   W48
Label_018AFCF6:
 BYTE   W48
//  #04 //013   ----------------------------------------
 BYTE   W96
//  #04 //014   ----------------------------------------
 BYTE   N24  An1  v108
 BYTE   W24
 BYTE   N24
 BYTE   W24
 BYTE   Bn1
 BYTE   W24
 BYTE   N24
 BYTE   W24
//  #04 //015   ----------------------------------------
 BYTE   Cn2
 BYTE   W24
 BYTE   N24
 BYTE   W24
 BYTE   An1
 BYTE   W24
 BYTE   N24
 BYTE   W24
//  #04 //016   ----------------------------------------
 BYTE   Bn1
 BYTE   W96
//  #04 //017   ----------------------------------------
 BYTE   W48
 BYTE   N12  Gn3
 BYTE   W12
 BYTE   Fs3
 BYTE   W12
 BYTE   En3
 BYTE   W12
 BYTE   Dn3
 BYTE   W12
//  #04 //018   ----------------------------------------
 BYTE   Fs3
 BYTE   W12
 BYTE   En3
 BYTE   W12
 BYTE   Dn3
 BYTE   W12
 BYTE   Cn3
 BYTE   W60
//  #04 //019   ----------------------------------------
 BYTE   W48
 BYTE   N12
 BYTE   W12
 BYTE   Bn2
 BYTE   W12
 BYTE   An2
 BYTE   W12
 BYTE   Gn2
 BYTE   W12
//  #04 //020   ----------------------------------------
 BYTE   Bn2
 BYTE   W12
 BYTE   An2
 BYTE   W12
 BYTE   Gn2
 BYTE   W12
 BYTE   Fn2
 BYTE   W12
 BYTE   N24  Cn2
 BYTE   W24
 BYTE   N48
 BYTE   W24
//  #04 //021   ----------------------------------------
Label_018AFD34:
 BYTE   W24
 BYTE   N48  Cn2  v108
 BYTE   W48
 BYTE   N24
 BYTE   W24
 BYTE   PEND 
//  #04 //022   ----------------------------------------
Label_018AFD3C:
 BYTE   N48  Cn2  v108
 BYTE   W48
 BYTE   N24  An1
 BYTE   W48
 BYTE   PEND 
//  #04 //023   ----------------------------------------
Label_018AFD44:
 BYTE   N24  An1  v108
 BYTE   W72
 BYTE   N72
 BYTE   W24
 BYTE   PEND 
//  #04 //024   ----------------------------------------
Label_018AFD4B:
 BYTE   W48
 BYTE   N24  En1  v108
 BYTE   W24
 BYTE   N48
 BYTE   W24
 BYTE   PEND 
//  #04 //025   ----------------------------------------
Label_018AFD53:
 BYTE   W24
 BYTE   N48  En1  v108
 BYTE   W48
 BYTE   N24
 BYTE   W24
 BYTE   PEND 
//  #04 //026   ----------------------------------------
 BYTE   N48
 BYTE   W48
 BYTE   N48
 BYTE   W48
//  #04 //027   ----------------------------------------
 BYTE   N48
 BYTE   W72
 BYTE   Bn1
 BYTE   W24
//  #04 //028   ----------------------------------------
 BYTE   W24
 BYTE   N24  Cn2
 BYTE   W24
 BYTE   N24
 BYTE   W24
 BYTE   N48
 BYTE   W24
//  #04 //029   ----------------------------------------
 BYTE   PATT
  POIN2 Label_018AFD34
//  #04 //030   ----------------------------------------
 BYTE   PATT
  POIN2 Label_018AFD3C
//  #04 //031   ----------------------------------------
 BYTE   PATT
  POIN2 Label_018AFD44
//  #04 //032   ----------------------------------------
 BYTE   PATT
  POIN2 Label_018AFD4B
//  #04 //033   ----------------------------------------
 BYTE   PATT
  POIN2 Label_018AFD53
//  #04 //034   ----------------------------------------
 BYTE   N48  En1  v108
 BYTE   W48
 BYTE   N32
 BYTE   W48
//  #04 //035   ----------------------------------------
 BYTE   W48
 BYTE   N32
 BYTE   W48
//  #04 //036   ----------------------------------------
 BYTE   W48
 BYTE   N16
 BYTE   W16
 BYTE   N16
 BYTE   W16
 BYTE   N16
 BYTE   W16
//  #04 //037   ----------------------------------------
Label_018AFD94:
 BYTE   N16  En1  v108
 BYTE   W16
 BYTE   N16
 BYTE   W16
 BYTE   N16
 BYTE   W16
 BYTE   N48
 BYTE   W48
 BYTE   PEND 
//  #04 //038   ----------------------------------------
Label_018AFD9F:
 BYTE   N16  En1  v108
 BYTE   W16
 BYTE   N16
 BYTE   W16
 BYTE   N16
 BYTE   W16
 BYTE   N16
 BYTE   W16
 BYTE   N16
 BYTE   W16
 BYTE   N16
 BYTE   W16
 BYTE   PEND 
//  #04 //039   ----------------------------------------
Label_018AFDAE:
 BYTE   N48  En1  v108
 BYTE   W48
 BYTE   N16
 BYTE   W16
 BYTE   N16
 BYTE   W16
 BYTE   N16
 BYTE   W16
 BYTE   PEND 
//  #04 //040   ----------------------------------------
 BYTE   PATT
  POIN2 Label_018AFD94
//  #04 //041   ----------------------------------------
 BYTE   PATT
  POIN2 Label_018AFD9F
//  #04 //042   ----------------------------------------
 BYTE   PATT
  POIN2 Label_018AFDAE
//  #04 //043   ----------------------------------------
 BYTE   N16  En1  v108
 BYTE   W16
 BYTE   N16
 BYTE   W16
 BYTE   N16
 BYTE   W16
 BYTE   Bn3  v127
 BYTE   W16
 BYTE   En3
 BYTE   W16
 BYTE   Ds3
 BYTE   W16
//  #04 //044   ----------------------------------------
 BYTE   An3
 BYTE   W16
 BYTE   Ds3
 BYTE   W16
 BYTE   Dn3
 BYTE   W16
 BYTE   En1  v108
 BYTE   W16
 BYTE   N16
 BYTE   W16
 BYTE   N16
 BYTE   W16
//  #04 //045   ----------------------------------------
 BYTE   PATT
  POIN2 Label_018AFD94
//  #04 //046   ----------------------------------------
 BYTE   PATT
  POIN2 Label_018AFD9F
//  #04 //047   ----------------------------------------
 BYTE   PATT
  POIN2 Label_018AFDAE
//  #04 //048   ----------------------------------------
 BYTE   PATT
  POIN2 Label_018AFD94
//  #04 //049   ----------------------------------------
 BYTE   PATT
  POIN2 Label_018AFD9F
//  #04 //050   ----------------------------------------
 BYTE   PATT
  POIN2 Label_018AFDAE
//  #04 //051   ----------------------------------------
 BYTE   N16  En1  v108
 BYTE   W16
 BYTE   N16
 BYTE   W16
 BYTE   N16
 BYTE   W64
//  #04 //052   ----------------------------------------
 BYTE   W48
 BYTE   GoTo
  POIN2 Label_018AFCF6
//  #04 //053   ----------------------------------------
 BYTE   VOICE   29
 BYTE   MODT 1
 BYTE   FINE

//**************** Track 5 (Midi-Chn.4) ****************//

FE12TearingShadowsAzula_005:
//  #05 //000   ----------------------------------------
 BYTE   VOL   60*FE12TearingShadowsAzula_mvl/mxv
 BYTE   KEYSH   FE12TearingShadowsAzula_key+0
 BYTE   VOICE   31
 BYTE   MODT 0
 BYTE   LFOS 44
 BYTE   W96
//  #05 //001   ----------------------------------------
 BYTE   W96
//  #05 //002   ----------------------------------------
 BYTE   W96
//  #05 //003   ----------------------------------------
 BYTE   W96
//  #05 //004   ----------------------------------------
 BYTE   W96
//  #05 //005   ----------------------------------------
 BYTE   W96
//  #05 //006   ----------------------------------------
 BYTE   W96
//  #05 //007   ----------------------------------------
 BYTE   W96
//  #05 //008   ----------------------------------------
 BYTE   W48
 BYTE   TIE  Cn2  v088
 BYTE   W48
//  #05 //009   ----------------------------------------
 BYTE   W96
//  #05 //010   ----------------------------------------
 BYTE   W96
//  #05 //011   ----------------------------------------
 BYTE   W24
 BYTE   EOT
 BYTE   W72
//  #05 //012   ----------------------------------------
 BYTE   W48
Label_0155BE8D:
 BYTE   W48
//  #05 //013   ----------------------------------------
 BYTE   W96
//  #05 //014   ----------------------------------------
 BYTE   W96
//  #05 //015   ----------------------------------------
 BYTE   W96
//  #05 //016   ----------------------------------------
 BYTE   W96
//  #05 //017   ----------------------------------------
 BYTE   W96
//  #05 //018   ----------------------------------------
 BYTE   W96
//  #05 //019   ----------------------------------------
 BYTE   W96
//  #05 //020   ----------------------------------------
 BYTE   W96
//  #05 //021   ----------------------------------------
 BYTE   W96
//  #05 //022   ----------------------------------------
 BYTE   W96
//  #05 //023   ----------------------------------------
 BYTE   W96
//  #05 //024   ----------------------------------------
 BYTE   W96
//  #05 //025   ----------------------------------------
 BYTE   W96
//  #05 //026   ----------------------------------------
 BYTE   W96
//  #05 //027   ----------------------------------------
 BYTE   W96
//  #05 //028   ----------------------------------------
 BYTE   W96
//  #05 //029   ----------------------------------------
 BYTE   W96
//  #05 //030   ----------------------------------------
 BYTE   W96
//  #05 //031   ----------------------------------------
 BYTE   W96
//  #05 //032   ----------------------------------------
 BYTE   W96
//  #05 //033   ----------------------------------------
 BYTE   W96
//  #05 //034   ----------------------------------------
 BYTE   W96
//  #05 //035   ----------------------------------------
 BYTE   W96
//  #05 //036   ----------------------------------------
 BYTE   W96
//  #05 //037   ----------------------------------------
 BYTE   W96
//  #05 //038   ----------------------------------------
 BYTE   W96
//  #05 //039   ----------------------------------------
 BYTE   W96
//  #05 //040   ----------------------------------------
 BYTE   W96
//  #05 //041   ----------------------------------------
 BYTE   W96
//  #05 //042   ----------------------------------------
 BYTE   W96
//  #05 //043   ----------------------------------------
 BYTE   W96
//  #05 //044   ----------------------------------------
 BYTE   W96
//  #05 //045   ----------------------------------------
 BYTE   W96
//  #05 //046   ----------------------------------------
 BYTE   W96
//  #05 //047   ----------------------------------------
 BYTE   W96
//  #05 //048   ----------------------------------------
 BYTE   W96
//  #05 //049   ----------------------------------------
 BYTE   W96
//  #05 //050   ----------------------------------------
 BYTE   W96
//  #05 //051   ----------------------------------------
 BYTE   W96
//  #05 //052   ----------------------------------------
 BYTE   W48
 BYTE   GoTo
  POIN2 Label_0155BE8D
 BYTE   FINE

//**************** Track 6 (Midi-Chn.5) ****************//

FE12TearingShadowsAzula_006:
//  #06 //000   ----------------------------------------
 BYTE   KEYSH   FE12TearingShadowsAzula_key+0
 BYTE   VOICE   47
 BYTE   MODT 0
 BYTE   LFOS 44
 BYTE   VOL   44*FE12TearingShadowsAzula_mvl/mxv
 BYTE   MODT 1
 BYTE   W48
 BYTE   N48  Fs3  v127
 BYTE   N48  Fs4  v108
 BYTE   W48
//  #06 //001   ----------------------------------------
 BYTE   W96
//  #06 //002   ----------------------------------------
Label_0155BD19:
 BYTE   N24  Cn3  v108
 BYTE   N24  Cn4
 BYTE   W24
 BYTE   Cn3
 BYTE   N24  Cn4
 BYTE   W48
 BYTE   Cn3
 BYTE   N24  Cn4
 BYTE   W24
 BYTE   PEND 
//  #06 //003   ----------------------------------------
Label_0155BD28:
 BYTE   N24  Cn3  v108
 BYTE   N24  Cn4
 BYTE   W48
 BYTE   N48  Cn3
 BYTE   N48  Cn4
 BYTE   W48
 BYTE   PEND 
//  #06 //004   ----------------------------------------
 BYTE   Cn3
 BYTE   N48  Cn4
 BYTE   W48
 BYTE   Fs3  v127
 BYTE   W48
//  #06 //005   ----------------------------------------
 BYTE   W96
//  #06 //006   ----------------------------------------
 BYTE   PATT
  POIN2 Label_0155BD19
//  #06 //007   ----------------------------------------
 BYTE   PATT
  POIN2 Label_0155BD28
//  #06 //008   ----------------------------------------
 BYTE   N48  Cn3  v108
 BYTE   N48  Cn4
 BYTE   W48
 BYTE   N96  Bn2
 BYTE   W48
//  #06 //009   ----------------------------------------
 BYTE   W96
//  #06 //010   ----------------------------------------
 BYTE   W96
//  #06 //011   ----------------------------------------
 BYTE   W96
//  #06 //012   ----------------------------------------
 BYTE   W48
Label_0155BD53:
 BYTE   W48
//  #06 //013   ----------------------------------------
 BYTE   W96
//  #06 //014   ----------------------------------------
 BYTE   W96
//  #06 //015   ----------------------------------------
 BYTE   W96
//  #06 //016   ----------------------------------------
 BYTE   W96
//  #06 //017   ----------------------------------------
 BYTE   W96
//  #06 //018   ----------------------------------------
 BYTE   W96
//  #06 //019   ----------------------------------------
 BYTE   W96
//  #06 //020   ----------------------------------------
 BYTE   W96
//  #06 //021   ----------------------------------------
 BYTE   W96
//  #06 //022   ----------------------------------------
 BYTE   W96
//  #06 //023   ----------------------------------------
 BYTE   W96
//  #06 //024   ----------------------------------------
 BYTE   W96
//  #06 //025   ----------------------------------------
 BYTE   W96
//  #06 //026   ----------------------------------------
 BYTE   W96
//  #06 //027   ----------------------------------------
 BYTE   W96
//  #06 //028   ----------------------------------------
 BYTE   W96
//  #06 //029   ----------------------------------------
 BYTE   W96
//  #06 //030   ----------------------------------------
 BYTE   W96
//  #06 //031   ----------------------------------------
 BYTE   W96
//  #06 //032   ----------------------------------------
 BYTE   W96
//  #06 //033   ----------------------------------------
 BYTE   W96
//  #06 //034   ----------------------------------------
 BYTE   W96
//  #06 //035   ----------------------------------------
 BYTE   W96
//  #06 //036   ----------------------------------------
 BYTE   W96
//  #06 //037   ----------------------------------------
 BYTE   W96
//  #06 //038   ----------------------------------------
 BYTE   W96
//  #06 //039   ----------------------------------------
 BYTE   W96
//  #06 //040   ----------------------------------------
 BYTE   W96
//  #06 //041   ----------------------------------------
 BYTE   W96
//  #06 //042   ----------------------------------------
 BYTE   W96
//  #06 //043   ----------------------------------------
 BYTE   W96
//  #06 //044   ----------------------------------------
 BYTE   W96
//  #06 //045   ----------------------------------------
 BYTE   W96
//  #06 //046   ----------------------------------------
 BYTE   W96
//  #06 //047   ----------------------------------------
 BYTE   W96
//  #06 //048   ----------------------------------------
 BYTE   W96
//  #06 //049   ----------------------------------------
 BYTE   W96
//  #06 //050   ----------------------------------------
 BYTE   W96
//  #06 //051   ----------------------------------------
 BYTE   W96
//  #06 //052   ----------------------------------------
 BYTE   W48
 BYTE   GoTo
  POIN2 Label_0155BD53
//  #06 //053   ----------------------------------------
 BYTE   MODT 1
 BYTE   FINE

//**************** Track 7 (Midi-Chn.6) ****************//

FE12TearingShadowsAzula_007:
//  #07 //000   ----------------------------------------
 BYTE   KEYSH   FE12TearingShadowsAzula_key+0
 BYTE   VOICE   34
 BYTE   MODT 0
 BYTE   LFOS 44
 BYTE   PAN   c_v+0
 BYTE   MODT 1
 BYTE   VOL   40*FE12TearingShadowsAzula_mvl/mxv
 BYTE   VOL   32*FE12TearingShadowsAzula_mvl/mxv
 BYTE   W48
 BYTE   N48  Fs3  v127
 BYTE   W48
//  #07 //001   ----------------------------------------
 BYTE   W96
//  #07 //002   ----------------------------------------
Label_0155BAE5:
 BYTE   W24
 BYTE   N24  Fs3  v127
 BYTE   W24
 BYTE   Gn3
 BYTE   W24
 BYTE   Cn4
 BYTE   W24
 BYTE   PEND 
//  #07 //003   ----------------------------------------
Label_0155BAEF:
 BYTE   N24  Fs3  v127
 BYTE   W24
 BYTE   Gn3
 BYTE   W24
 BYTE   Cn4
 BYTE   W24
 BYTE   Fs3
 BYTE   W24
 BYTE   PEND 
//  #07 //004   ----------------------------------------
 BYTE   Gn3
 BYTE   W24
 BYTE   Cn4
 BYTE   W24
 BYTE   N48  Fs3
 BYTE   W48
//  #07 //005   ----------------------------------------
 BYTE   W96
//  #07 //006   ----------------------------------------
 BYTE   PATT
  POIN2 Label_0155BAE5
//  #07 //007   ----------------------------------------
 BYTE   PATT
  POIN2 Label_0155BAEF
//  #07 //008   ----------------------------------------
 BYTE   N24  Gn3  v127
 BYTE   W24
 BYTE   Cn4
 BYTE   W48
 BYTE   Fs3
 BYTE   W24
//  #07 //009   ----------------------------------------
 BYTE   Cn4
 BYTE   W24
 BYTE   Bn3
 BYTE   W24
 BYTE   Fs3
 BYTE   W24
 BYTE   Cn4
 BYTE   W24
//  #07 //010   ----------------------------------------
 BYTE   Bn3
 BYTE   W24
 BYTE   Fs3
 BYTE   W24
 BYTE   Cn4
 BYTE   W24
 BYTE   Bn3
 BYTE   W24
//  #07 //011   ----------------------------------------
 BYTE   Fs3
 BYTE   W24
 BYTE   Cn4
 BYTE   W24
 BYTE   Bn3
 BYTE   W24
 BYTE   MODT 1
 BYTE   W24
//  #07 //012   ----------------------------------------
 BYTE   W48
Label_0155BB2E:
 BYTE   N48  Bn2  v127
 BYTE   W48
//  #07 //013   ----------------------------------------
 BYTE   Fs3
 BYTE   W48
 BYTE   Gn3
 BYTE   W48
//  #07 //014   ----------------------------------------
 BYTE   Cn4
 BYTE   W48
 BYTE   TIE  Bn3
 BYTE   W48
//  #07 //015   ----------------------------------------
 BYTE   W96
//  #07 //016   ----------------------------------------
 BYTE   EOT
 BYTE   N24  Fs3
 BYTE   W24
 BYTE   Gn3
 BYTE   W24
 BYTE   N72  An3
 BYTE   W48
//  #07 //017   ----------------------------------------
 BYTE   W24
 BYTE   N24  Bn3
 BYTE   W24
 BYTE   N48  Gn3
 BYTE   W48
//  #07 //018   ----------------------------------------
 BYTE   N24  En3
 BYTE   W24
 BYTE   Fs3
 BYTE   W24
 BYTE   N72  Gn3
 BYTE   W48
//  #07 //019   ----------------------------------------
 BYTE   W24
 BYTE   N24  An3
 BYTE   W24
 BYTE   N96  Fs3
 BYTE   W48
//  #07 //020   ----------------------------------------
 BYTE   W48
 BYTE   N24  Cn3
 BYTE   W24
 BYTE   N48
 BYTE   W24
//  #07 //021   ----------------------------------------
Label_0155BB61:
 BYTE   W24
 BYTE   N48  Cn3  v127
 BYTE   W48
 BYTE   N24
 BYTE   W24
 BYTE   PEND 
//  #07 //022   ----------------------------------------
Label_0155BB69:
 BYTE   N48  Cn3  v127
 BYTE   W48
 BYTE   An2
 BYTE   W48
 BYTE   PEND 
//  #07 //023   ----------------------------------------
Label_0155BB70:
 BYTE   N24  An3  v127
 BYTE   W42
 BYTE   N06  An2
 BYTE   W06
 BYTE   N24  An3
 BYTE   W24
 BYTE   N24
 BYTE   W24
 BYTE   PEND 
//  #07 //024   ----------------------------------------
Label_0155BB7D:
 BYTE   W12
 BYTE   N12  Gn3  v127
 BYTE   W12
 BYTE   Fs3
 BYTE   W12
 BYTE   En3
 BYTE   W12
 BYTE   N24  En2
 BYTE   W24
 BYTE   N48
 BYTE   W24
 BYTE   PEND 
//  #07 //025   ----------------------------------------
Label_0155BB8C:
 BYTE   W24
 BYTE   N48  En2  v127
 BYTE   W48
 BYTE   N24
 BYTE   W24
 BYTE   PEND 
//  #07 //026   ----------------------------------------
 BYTE   N24
 BYTE   W48
 BYTE   N48
 BYTE   W48
//  #07 //027   ----------------------------------------
 BYTE   N48
 BYTE   W72
 BYTE   Bn2
 BYTE   W24
//  #07 //028   ----------------------------------------
 BYTE   W24
 BYTE   N24  Cn3
 BYTE   W24
 BYTE   N24
 BYTE   W24
 BYTE   N48
 BYTE   W24
//  #07 //029   ----------------------------------------
 BYTE   PATT
  POIN2 Label_0155BB61
//  #07 //030   ----------------------------------------
 BYTE   PATT
  POIN2 Label_0155BB69
//  #07 //031   ----------------------------------------
 BYTE   PATT
  POIN2 Label_0155BB70
//  #07 //032   ----------------------------------------
 BYTE   PATT
  POIN2 Label_0155BB7D
//  #07 //033   ----------------------------------------
 BYTE   PATT
  POIN2 Label_0155BB8C
//  #07 //034   ----------------------------------------
 BYTE   N24  En2  v127
 BYTE   W48
 BYTE   N32  En3
 BYTE   W32
 BYTE   En2
 BYTE   W16
//  #07 //035   ----------------------------------------
 BYTE   W16
 BYTE   N32
 BYTE   W32
 BYTE   En3
 BYTE   W48
//  #07 //036   ----------------------------------------
Label_0155BBCB:
 BYTE   W48
 BYTE   N16  En2  v127
 BYTE   W16
 BYTE   N16
 BYTE   W16
 BYTE   N16
 BYTE   W16
 BYTE   PEND 
//  #07 //037   ----------------------------------------
Label_0155BBD5:
 BYTE   N16  En2  v127
 BYTE   W16
 BYTE   N16
 BYTE   W16
 BYTE   N16
 BYTE   W16
 BYTE   N48
 BYTE   W48
 BYTE   PEND 
//  #07 //038   ----------------------------------------
Label_0155BBE0:
 BYTE   N16  En2  v127
 BYTE   W16
 BYTE   N16
 BYTE   W16
 BYTE   N16
 BYTE   W16
 BYTE   N16
 BYTE   W16
 BYTE   N16
 BYTE   W16
 BYTE   N16
 BYTE   W16
 BYTE   PEND 
//  #07 //039   ----------------------------------------
Label_0155BBEF:
 BYTE   N48  En2  v127
 BYTE   W48
 BYTE   N16
 BYTE   W16
 BYTE   N16
 BYTE   W16
 BYTE   N16
 BYTE   W16
 BYTE   PEND 
//  #07 //040   ----------------------------------------
 BYTE   PATT
  POIN2 Label_0155BBD5
//  #07 //041   ----------------------------------------
 BYTE   PATT
  POIN2 Label_0155BBE0
//  #07 //042   ----------------------------------------
 BYTE   PATT
  POIN2 Label_0155BBEF
//  #07 //043   ----------------------------------------
 BYTE   N16  En2  v127
 BYTE   W16
 BYTE   N16
 BYTE   W16
 BYTE   N16
 BYTE   W64
//  #07 //044   ----------------------------------------
 BYTE   PATT
  POIN2 Label_0155BBCB
//  #07 //045   ----------------------------------------
 BYTE   PATT
  POIN2 Label_0155BBD5
//  #07 //046   ----------------------------------------
 BYTE   PATT
  POIN2 Label_0155BBE0
//  #07 //047   ----------------------------------------
 BYTE   PATT
  POIN2 Label_0155BBEF
//  #07 //048   ----------------------------------------
 BYTE   PATT
  POIN2 Label_0155BBD5
//  #07 //049   ----------------------------------------
 BYTE   PATT
  POIN2 Label_0155BBE0
//  #07 //050   ----------------------------------------
 BYTE   PATT
  POIN2 Label_0155BBEF
//  #07 //051   ----------------------------------------
 BYTE   N16  En2  v127
 BYTE   W16
 BYTE   N16
 BYTE   W16
 BYTE   N16
 BYTE   W16
 BYTE   N12  Bn2
 BYTE   W12
 BYTE   N12
 BYTE   W12
 BYTE   N12
 BYTE   W12
 BYTE   N12
 BYTE   W12
//  #07 //052   ----------------------------------------
 BYTE   N48
 BYTE   W48
 BYTE   GoTo
  POIN2 Label_0155BB2E
//  #07 //053   ----------------------------------------
 BYTE   MODT 1
 BYTE   FINE

//**************** Track 8 (Midi-Chn.7) ****************//

FE12TearingShadowsAzula_008:
//  #08 //000   ----------------------------------------
 BYTE   KEYSH   FE12TearingShadowsAzula_key+0
 BYTE   VOICE   127
 BYTE   MODT 0
 BYTE   LFOS 44
 BYTE   VOL   44*FE12TearingShadowsAzula_mvl/mxv
 BYTE   MODT 1
 BYTE   N08  Dn1  v108
 BYTE   W08
 BYTE   N08
 BYTE   W08
 BYTE   N08
 BYTE   W08
 BYTE   N08
 BYTE   W08
 BYTE   N08
 BYTE   W08
 BYTE   N08
 BYTE   W08
 BYTE   N48
 BYTE   TIE  As1
 BYTE   W48
//  #08 //001   ----------------------------------------
Label_01BCA176:
 BYTE   N12  Dn1  v108
 BYTE   W12
 BYTE   N12
 BYTE   W12
 BYTE   N12
 BYTE   W12
 BYTE   N12
 BYTE   W12
 BYTE   N12
 BYTE   W12
 BYTE   Bn1
 BYTE   W12
 BYTE   An1
 BYTE   W12
 BYTE   Gn1
 BYTE   W12
 BYTE   PEND 
//  #08 //002   ----------------------------------------
 BYTE   VOICE   127
 BYTE   MODT 1
 BYTE   N24  Cn1
 BYTE   W24
 BYTE   N24
 BYTE   W24
 BYTE   EOT
 BYTE   As1
 BYTE   N24  Dn1
 BYTE   W24
 BYTE   Cn1
 BYTE   W24
//  #08 //003   ----------------------------------------
 BYTE   N24
 BYTE   W24
 BYTE   N24
 BYTE   W48
 BYTE   N12
 BYTE   W12
 BYTE   N12
 BYTE   W12
//  #08 //004   ----------------------------------------
 BYTE   VOICE   127
 BYTE   MODT 1
 BYTE   N24  Dn1
 BYTE   W24
 BYTE   Cn1
 BYTE   W24
 BYTE   N48  Dn1
 BYTE   N96  As1
 BYTE   W48
//  #08 //005   ----------------------------------------
 BYTE   PATT
  POIN2 Label_01BCA176
//  #08 //006   ----------------------------------------
 BYTE   VOICE   127
 BYTE   MODT 1
 BYTE   N24  Cn1  v108
 BYTE   N96  As1
 BYTE   W24
 BYTE   N24  Cn1
 BYTE   W24
 BYTE   Fs1
 BYTE   W24
 BYTE   Dn1
 BYTE   W24
//  #08 //007   ----------------------------------------
 BYTE   N24
 BYTE   W24
 BYTE   Cn1
 BYTE   W48
 BYTE   N24
 BYTE   W24
//  #08 //008   ----------------------------------------
 BYTE   VOICE   127
 BYTE   MODT 1
 BYTE   N24  Dn1
 BYTE   W24
 BYTE   Cn1
 BYTE   W24
 BYTE   Dn1
 BYTE   W24
 BYTE   N12  Fs1
 BYTE   W12
 BYTE   N12
 BYTE   W12
//  #08 //009   ----------------------------------------
 BYTE   N24
 BYTE   W24
 BYTE   N12
 BYTE   W12
 BYTE   N12
 BYTE   W12
 BYTE   N24
 BYTE   W24
 BYTE   N12
 BYTE   W12
 BYTE   N12
 BYTE   W12
//  #08 //010   ----------------------------------------
 BYTE   VOICE   127
 BYTE   MODT 1
 BYTE   N24
 BYTE   W24
 BYTE   N12
 BYTE   W12
 BYTE   N12
 BYTE   W12
 BYTE   N24
 BYTE   W24
 BYTE   N12
 BYTE   W12
 BYTE   N12
 BYTE   W12
//  #08 //011   ----------------------------------------
 BYTE   N24
 BYTE   W24
 BYTE   An1
 BYTE   W24
 BYTE   N12  Gn1
 BYTE   W12
 BYTE   N12
 BYTE   W12
 BYTE   N12
 BYTE   W12
 BYTE   Fs1
 BYTE   W12
//  #08 //012   ----------------------------------------
 BYTE   VOICE   127
 BYTE   MODT 1
 BYTE   N12  Dn1
 BYTE   W12
 BYTE   Bn1
 BYTE   W12
 BYTE   An1
 BYTE   W12
 BYTE   Gn1
 BYTE   W12
Label_01BCA211:
 BYTE   N48  Dn1  v108
 BYTE   N48  Cs2
 BYTE   W48
//  #08 //013   ----------------------------------------
Label_01BCA217:
 BYTE   N24  Cn1  v108
 BYTE   N24  As1
 BYTE   W24
 BYTE   Cn1
 BYTE   N24  As1
 BYTE   W24
 BYTE   Cn1
 BYTE   N24  As1
 BYTE   W24
 BYTE   Cn1
 BYTE   N24  As1
 BYTE   W24
 BYTE   PEND 
//  #08 //014   ----------------------------------------
 BYTE   VOICE   127
 BYTE   MODT 1
 BYTE   N24  Cn1
 BYTE   N24  As1
 BYTE   W24
 BYTE   Cn1
 BYTE   N24  As1
 BYTE   W24
 BYTE   Cn1
 BYTE   N24  As1
 BYTE   W24
 BYTE   Cn1
 BYTE   N24  As1
 BYTE   W24
//  #08 //015   ----------------------------------------
 BYTE   PATT
  POIN2 Label_01BCA217
//  #08 //016   ----------------------------------------
 BYTE   VOICE   127
 BYTE   MODT 1
 BYTE   N12  Dn1  v108
 BYTE   N24  Gs1
 BYTE   W12
 BYTE   N12  Dn1
 BYTE   W12
 BYTE   N12
 BYTE   W12
 BYTE   N12
 BYTE   W12
 BYTE   N24  Cn1
 BYTE   N96  Cn2
 BYTE   W24
 BYTE   N24  Cn1
 BYTE   W24
//  #08 //017   ----------------------------------------
 BYTE   N24
 BYTE   W24
 BYTE   Fs1
 BYTE   W24
 BYTE   Cn1
 BYTE   W24
 BYTE   N24
 BYTE   W24
//  #08 //018   ----------------------------------------
 BYTE   VOICE   127
 BYTE   MODT 1
 BYTE   N24  Dn1
 BYTE   W24
 BYTE   Cn1
 BYTE   W24
 BYTE   N24
 BYTE   W24
 BYTE   N24
 BYTE   W24
//  #08 //019   ----------------------------------------
 BYTE   Dn1
 BYTE   W24
 BYTE   Cn1
 BYTE   W24
 BYTE   N06  Dn1
 BYTE   W06
 BYTE   N06
 BYTE   W06
 BYTE   N06
 BYTE   W06
 BYTE   N06
 BYTE   W06
 BYTE   N06
 BYTE   W06
 BYTE   N06
 BYTE   W06
 BYTE   N06
 BYTE   W06
 BYTE   N06
 BYTE   W06
//  #08 //020   ----------------------------------------
 BYTE   VOICE   127
 BYTE   MODT 1
 BYTE   N06
 BYTE   W06
 BYTE   N06
 BYTE   W06
 BYTE   N06
 BYTE   W06
 BYTE   N06
 BYTE   W06
 BYTE   N06
 BYTE   W06
 BYTE   N06
 BYTE   W06
 BYTE   N06
 BYTE   W06
 BYTE   N06
 BYTE   W06
 BYTE   N24  Cn1
 BYTE   N48  Cs2
 BYTE   W24
 BYTE   Cn1
 BYTE   W24
//  #08 //021   ----------------------------------------
Label_01BCA2A2:
 BYTE   N48  Ds2  v108
 BYTE   W24
 BYTE   Dn1
 BYTE   W24
 BYTE   Ds2
 BYTE   W24
 BYTE   N24  Cn1
 BYTE   W24
 BYTE   PEND 
//  #08 //022   ----------------------------------------
Label_01BCA2AE:
 BYTE   VOICE   127
 BYTE   MODT 1
 BYTE   N24  Dn1  v108
 BYTE   N48  Ds2
 BYTE   W48
 BYTE   Cn1
 BYTE   N48  Ds2
 BYTE   W48
 BYTE   PEND 
//  #08 //023   ----------------------------------------
Label_01BCA2BD:
 BYTE   N24  Dn1  v108
 BYTE   N48  Ds2
 BYTE   W36
 BYTE   N12  Cn1
 BYTE   W12
 BYTE   N24  Dn1
 BYTE   N48  Ds2
 BYTE   W24
 BYTE   N24  Dn1
 BYTE   W24
 BYTE   PEND 
//  #08 //024   ----------------------------------------
Label_01BCA2CF:
 BYTE   VOICE   127
 BYTE   MODT 1
 BYTE   N48  Ds2  v108
 BYTE   W48
 BYTE   N24  Cn1
 BYTE   N48  Ds2
 BYTE   W24
 BYTE   Cn1
 BYTE   W24
 BYTE   PEND 
//  #08 //025   ----------------------------------------
 BYTE   PATT
  POIN2 Label_01BCA2A2
//  #08 //026   ----------------------------------------
 BYTE   VOICE   127
 BYTE   MODT 1
 BYTE   N24  Dn1  v108
 BYTE   N48  Ds2
 BYTE   W24
 BYTE   N24  Cn1
 BYTE   W24
 BYTE   N48  Ds2
 BYTE   W24
 BYTE   N12  Cn1
 BYTE   W12
 BYTE   N12
 BYTE   W12
//  #08 //027   ----------------------------------------
 BYTE   N24  Dn1
 BYTE   N48  Ds2
 BYTE   W24
 BYTE   N24  Cn1
 BYTE   W24
 BYTE   Dn1
 BYTE   W24
 BYTE   N36  As1
 BYTE   W24
//  #08 //028   ----------------------------------------
 BYTE   VOICE   127
 BYTE   MODT 1
 BYTE   W48
 BYTE   N24  Cn1
 BYTE   N48  Cs2
 BYTE   W24
 BYTE   Cn1
 BYTE   W24
//  #08 //029   ----------------------------------------
 BYTE   PATT
  POIN2 Label_01BCA2A2
//  #08 //030   ----------------------------------------
 BYTE   PATT
  POIN2 Label_01BCA2AE
//  #08 //031   ----------------------------------------
 BYTE   PATT
  POIN2 Label_01BCA2BD
//  #08 //032   ----------------------------------------
 BYTE   PATT
  POIN2 Label_01BCA2CF
//  #08 //033   ----------------------------------------
 BYTE   PATT
  POIN2 Label_01BCA2A2
//  #08 //034   ----------------------------------------
 BYTE   VOICE   127
 BYTE   MODT 1
 BYTE   N24  Dn1  v108
 BYTE   N48  Ds2
 BYTE   W24
 BYTE   N24  Cn1
 BYTE   W24
 BYTE   N32  Dn1
 BYTE   W32
 BYTE   Cn1
 BYTE   N32  Gn1
 BYTE   W16
//  #08 //035   ----------------------------------------
 BYTE   W16
 BYTE   Cn1
 BYTE   N32  Gn1
 BYTE   W32
 BYTE   N16  Cn1
 BYTE   N16  Dn1
 BYTE   W16
 BYTE   Cn1
 BYTE   W16
 BYTE   N16
 BYTE   W16
//  #08 //036   ----------------------------------------
 BYTE   VOICE   127
 BYTE   MODT 1
 BYTE   N16
 BYTE   W16
 BYTE   N16
 BYTE   W16
 BYTE   N16
 BYTE   W16
 BYTE   N16
 BYTE   N48  Cs2
 BYTE   W16
 BYTE   N16  Cn1
 BYTE   W16
 BYTE   N16
 BYTE   W16
//  #08 //037   ----------------------------------------
Label_01BCA360:
 BYTE   N16  Dn1  v108
 BYTE   W16
 BYTE   Cn1
 BYTE   N16  As1
 BYTE   W16
 BYTE   Cn1
 BYTE   N16  As1
 BYTE   W16
 BYTE   N48  Dn1
 BYTE   N32  As1
 BYTE   W48
 BYTE   PEND 
//  #08 //038   ----------------------------------------
Label_01BCA372:
 BYTE   VOICE   127
 BYTE   MODT 1
 BYTE   N16  Cn1  v108
 BYTE   W16
 BYTE   Dn1
 BYTE   W16
 BYTE   N16
 BYTE   W16
 BYTE   Cn1
 BYTE   W16
 BYTE   Dn1
 BYTE   N16  As1
 BYTE   W16
 BYTE   Cn1
 BYTE   N16  As1
 BYTE   W16
 BYTE   PEND 
//  #08 //039   ----------------------------------------
 BYTE   N48  Dn1
 BYTE   N48  As1
 BYTE   W48
 BYTE   N16  Cn1
 BYTE   N48  As1
 BYTE   W16
 BYTE   N16  Cn1
 BYTE   W16
 BYTE   N16
 BYTE   W16
//  #08 //040   ----------------------------------------
Label_01BCA398:
 BYTE   VOICE   127
 BYTE   MODT 1
 BYTE   N16  Dn1  v108
 BYTE   W16
 BYTE   Cn1
 BYTE   N16  As1
 BYTE   W16
 BYTE   Cn1
 BYTE   N16  As1
 BYTE   W16
 BYTE   N48  Dn1
 BYTE   N32  As1
 BYTE   W32
 BYTE   N16
 BYTE   W16
 BYTE   PEND 
//  #08 //041   ----------------------------------------
 BYTE   Dn1
 BYTE   N32  As1
 BYTE   W16
 BYTE   N16  Cn1
 BYTE   W16
 BYTE   N16
 BYTE   W16
 BYTE   Dn1
 BYTE   W16
 BYTE   Cn1
 BYTE   N16  As1
 BYTE   W16
 BYTE   Cn1
 BYTE   N16  As1
 BYTE   W16
//  #08 //042   ----------------------------------------
 BYTE   VOICE   127
 BYTE   MODT 1
 BYTE   N48  Dn1
 BYTE   N32  As1
 BYTE   W32
 BYTE   N16
 BYTE   W16
 BYTE   Cn1
 BYTE   N96  As1
 BYTE   W16
 BYTE   N16  Cn1
 BYTE   W16
 BYTE   N16
 BYTE   W16
//  #08 //043   ----------------------------------------
 BYTE   Dn1
 BYTE   W16
 BYTE   Cn1
 BYTE   W16
 BYTE   N16
 BYTE   W16
 BYTE   N16
 BYTE   N96  As1
 BYTE   W16
 BYTE   N16  Cn1
 BYTE   W16
 BYTE   Dn1
 BYTE   W16
//  #08 //044   ----------------------------------------
 BYTE   VOICE   127
 BYTE   MODT 1
 BYTE   N16
 BYTE   W16
 BYTE   Cn1
 BYTE   W16
 BYTE   N16
 BYTE   W16
 BYTE   N16
 BYTE   W16
 BYTE   N16
 BYTE   W16
 BYTE   N16
 BYTE   W16
//  #08 //045   ----------------------------------------
 BYTE   PATT
  POIN2 Label_01BCA360
//  #08 //046   ----------------------------------------
 BYTE   PATT
  POIN2 Label_01BCA372
//  #08 //047   ----------------------------------------
 BYTE   N48  Dn1  v108
 BYTE   N32  As1
 BYTE   W48
 BYTE   N16  Cn1
 BYTE   N48  As1
 BYTE   W16
 BYTE   N16  Cn1
 BYTE   W16
 BYTE   N16
 BYTE   W16
//  #08 //048   ----------------------------------------
 BYTE   PATT
  POIN2 Label_01BCA398
//  #08 //049   ----------------------------------------
 BYTE   N16  Dn1  v108
 BYTE   N48  As1
 BYTE   W16
 BYTE   N16  Cn1
 BYTE   W16
 BYTE   N16
 BYTE   W16
 BYTE   N16
 BYTE   N48  As1
 BYTE   W16
 BYTE   N16  Cn1
 BYTE   W16
 BYTE   N16
 BYTE   W16
//  #08 //050   ----------------------------------------
 BYTE   VOICE   127
 BYTE   MODT 1
 BYTE   N48  Dn1
 BYTE   N48  As1
 BYTE   W48
 BYTE   N16  Cn1
 BYTE   N48  As1
 BYTE   W16
 BYTE   N16  Cn1
 BYTE   W16
 BYTE   N16
 BYTE   W16
//  #08 //051   ----------------------------------------
 BYTE   N16
 BYTE   N48  As1
 BYTE   W16
 BYTE   N16  Cn1
 BYTE   W16
 BYTE   N16
 BYTE   W16
 BYTE   N12  Dn1
 BYTE   W12
 BYTE   N12
 BYTE   W12
 BYTE   N12
 BYTE   W12
 BYTE   N12
 BYTE   W12
//  #08 //052   ----------------------------------------
 BYTE   VOICE   127
 BYTE   MODT 1
 BYTE   N12
 BYTE   N12  Bn1
 BYTE   W12
 BYTE   An1
 BYTE   W12
 BYTE   Gn1
 BYTE   W12
 BYTE   Fn1
 BYTE   W12
 BYTE   GoTo
  POIN2 Label_01BCA211
//  #08 //053   ----------------------------------------
 BYTE   VOICE   127
 BYTE   MODT 1
 BYTE   FINE

//******************************************************//
	ALIGN 4

FE12TearingShadowsAzula:
	BYTE	8	// NumTrks
	BYTE	0	// NumBlks
	BYTE	FE12TearingShadowsAzula_pri	// Priority
	BYTE	FE12TearingShadowsAzula_rev	// Reverb.
    
	POIN2	FE12TearingShadowsAzula_grp
    
	POIN2	FE12TearingShadowsAzula_001
	POIN2	FE12TearingShadowsAzula_002
	POIN2	FE12TearingShadowsAzula_003
	POIN2	FE12TearingShadowsAzula_004
	POIN2	FE12TearingShadowsAzula_005
	POIN2	FE12TearingShadowsAzula_006
	POIN2	FE12TearingShadowsAzula_007
	POIN2	FE12TearingShadowsAzula_008

	
