//Event file generated from Sappy .s format.
	#include "MPlayDef.event"

	#define	FE12ThemeOfLoveSwiftSaturn_grp  voicegroup000
	#define	FE12ThemeOfLoveSwiftSaturn_pri  0
	#define	FE12ThemeOfLoveSwiftSaturn_rev  0
	#define	FE12ThemeOfLoveSwiftSaturn_mvl  127
	#define	FE12ThemeOfLoveSwiftSaturn_key  0
	#define	FE12ThemeOfLoveSwiftSaturn_tbs  1
	#define	FE12ThemeOfLoveSwiftSaturn_exg  0
	#define	FE12ThemeOfLoveSwiftSaturn_cmp  1

	// .rodata
	//	FE12ThemeOfLoveSwiftSaturn
	ALIGN 4


//**************** Track 1 (Midi-Chn.0) ****************//

FE12ThemeOfLoveSwiftSaturn_001:
// 000   ----------------------------------------
 BYTE   KEYSH   FE12ThemeOfLoveSwiftSaturn_key+0
Label_0_01802122:
 BYTE   TEMPO   108*FE12ThemeOfLoveSwiftSaturn_tbs/2
 BYTE   VOICE   0
 BYTE   VOL   62*FE12ThemeOfLoveSwiftSaturn_mvl/mxv
 BYTE   PAN   c_v+0
 BYTE   W96
// 001   ----------------------------------------
 BYTE   W42
 BYTE   W03
 BYTE   W03
 BYTE   TEMPO   108*FE12ThemeOfLoveSwiftSaturn_tbs/2
 BYTE   N72  Cs4  v096
 BYTE   W03
 BYTE   W03
 BYTE   W03
 BYTE   W03
 BYTE   W02
 BYTE   W03
 BYTE   W01
 BYTE   W02
 BYTE   W01
 BYTE   W02
 BYTE   W01
 BYTE   W03
 BYTE   W02
 BYTE   W01
 BYTE   W02
 BYTE   W01
 BYTE   W02
 BYTE   W01
 BYTE   W02
 BYTE   W01
 BYTE   W02
 BYTE   W01
 BYTE   W02
 BYTE   W01
 BYTE   W02
 BYTE   W01
// 002   ----------------------------------------
 BYTE   W02
 BYTE   W01
 BYTE   W02
 BYTE   W01
 BYTE   W02
 BYTE   W01
 BYTE   W02
 BYTE   W01
 BYTE   W02
 BYTE   W01
 BYTE   W02
 BYTE   W01
 BYTE   W02
 BYTE   W01
 BYTE   W02
 BYTE   W01
 BYTE   W01
 BYTE   N44  Bn4  v060
 BYTE   W01
 BYTE   W01
 BYTE   W01
 BYTE   W01
 BYTE   W01
 BYTE   W01
 BYTE   W01
 BYTE   W03
 BYTE   W03
 BYTE   W03
 BYTE   W03
 BYTE   W03
 BYTE   W03
 BYTE   W03
 BYTE   W03
 BYTE   W03
 BYTE   W03
 BYTE   W03
 BYTE   W03
 BYTE   W01
 BYTE   W04
 BYTE   N22  An4
 BYTE   W22
 BYTE   N90  Cs4  v072
 BYTE   W01
// 003   ----------------------------------------
 BYTE   W08
 BYTE   W03
 BYTE   W06
 BYTE   W03
 BYTE   W03
 BYTE   W03
 BYTE   W03
 BYTE   W03
 BYTE   W01
 BYTE   W09
 BYTE   W06
 BYTE   W06
 BYTE   W03
 BYTE   W03
 BYTE   W06
 BYTE   W03
 BYTE   W03
 BYTE   W03
 BYTE   W03
 BYTE   W03
 BYTE   W03
 BYTE   W03
 BYTE   W03
 BYTE   W03
 BYTE   W03
// 004   ----------------------------------------
 BYTE   W01
 BYTE   N17  Bn4  v056
 BYTE   W02
 BYTE   W22
 BYTE   N23  An4
 BYTE   W24
 BYTE   N72  Cs4  v088
 BYTE   W01
 BYTE   W03
 BYTE   W03
 BYTE   W02
 BYTE   W01
 BYTE   W02
 BYTE   W01
 BYTE   W02
 BYTE   W01
 BYTE   W02
 BYTE   W12
 BYTE   W06
 BYTE   W06
 BYTE   W05
// 005   ----------------------------------------
 BYTE   W01
 BYTE   W03
 BYTE   W03
 BYTE   W03
 BYTE   W03
 BYTE   W03
 BYTE   W03
 BYTE   W03
 BYTE   W03
 BYTE   W01
 BYTE   N36  Bn4  v060
 BYTE   W02
 BYTE   W04
 BYTE   W04
 BYTE   W04
 BYTE   W05
 BYTE   W04
 BYTE   W04
 BYTE   W04
 BYTE   W08
 BYTE   W07
 BYTE   N24  An4  v068
 BYTE   W02
 BYTE   W12
 BYTE   W06
 BYTE   W04
// 006   ----------------------------------------
 BYTE   TEMPO   106*FE12ThemeOfLoveSwiftSaturn_tbs/2
 BYTE   W02
 BYTE   N68  Cs4  v088
 BYTE   W04
 BYTE   W09
 BYTE   W06
 BYTE   W06
 BYTE   W06
 BYTE   W07
 BYTE   W06
 BYTE   W03
 BYTE   W06
 BYTE   W03
 BYTE   W06
 BYTE   W03
 BYTE   W04
 BYTE   Bn3  v092
 BYTE   W03
 BYTE   W06
 BYTE   W03
 BYTE   W03
 BYTE   W03
 BYTE   W03
 BYTE   W03
 BYTE   W01
// 007   ----------------------------------------
 BYTE   W02
 BYTE   W04
 BYTE   W03
 BYTE   W03
 BYTE   W03
 BYTE   W03
 BYTE   W03
 BYTE   W03
 BYTE   W03
 BYTE   W03
 BYTE   W03
 BYTE   W03
 BYTE   W04
 BYTE   W03
 BYTE   W03
 BYTE   W02
 BYTE   TEMPO   108*FE12ThemeOfLoveSwiftSaturn_tbs/2
 BYTE   Bn3  v100
 BYTE   W01
 BYTE   W24
 BYTE   W01
 BYTE   W12
 BYTE   W10
// 008   ----------------------------------------
 BYTE   W03
 BYTE   W12
 BYTE   W09
 BYTE   Fs4  v080
 BYTE   W03
 BYTE   W07
 BYTE   W12
 BYTE   W06
 BYTE   W06
 BYTE   W06
 BYTE   W07
 BYTE   W06
 BYTE   W06
 BYTE   W06
 BYTE   W06
 BYTE   W01
// 009   ----------------------------------------
 BYTE   TEMPO   106*FE12ThemeOfLoveSwiftSaturn_tbs/2
 BYTE   N72  En4
 BYTE   W06
 BYTE   W18
 BYTE   W12
 BYTE   W13
 BYTE   W12
 BYTE   W06
 BYTE   W05
 BYTE   TEMPO   104*FE12ThemeOfLoveSwiftSaturn_tbs/2
 BYTE   W01
 BYTE   N68  An3  v076
 BYTE   W06
 BYTE   W07
 BYTE   W06
 BYTE   W04
// 010   ----------------------------------------
 BYTE   TEMPO   108*FE12ThemeOfLoveSwiftSaturn_tbs/2
 BYTE   W02
 BYTE   W06
 BYTE   W06
 BYTE   W06
 BYTE   W06
 BYTE   W07
 BYTE   W06
 BYTE   W06
 BYTE   W03
 BYTE   TEMPO   108*FE12ThemeOfLoveSwiftSaturn_tbs/2
 BYTE   W01
 BYTE   N96  An3  v092
 BYTE   W02
 BYTE   W08
 BYTE   W04
 BYTE   W04
 BYTE   W05
 BYTE   W04
 BYTE   W04
 BYTE   W04
 BYTE   W04
 BYTE   W04
 BYTE   W04
// 011   ----------------------------------------
 BYTE   W04
 BYTE   W05
 BYTE   W04
 BYTE   W04
 BYTE   W04
 BYTE   W04
 BYTE   W04
 BYTE   W04
 BYTE   W04
 BYTE   W05
 BYTE   W04
 BYTE   W04
 BYTE   N20  Gs3
 BYTE   W21
 BYTE   N24  Fs3  v096
 BYTE   W03
 BYTE   W12
 BYTE   W10
// 012   ----------------------------------------
 BYTE   TIE  Gs3
 BYTE   W02
 BYTE   W09
 BYTE   W06
 BYTE   W06
 BYTE   W06
 BYTE   W03
 BYTE   W06
 BYTE   W06
 BYTE   W03
 BYTE   W06
 BYTE   W03
 BYTE   W03
 BYTE   W03
 BYTE   W06
 BYTE   W03
 BYTE   W03
 BYTE   W03
 BYTE   W03
 BYTE   W03
 BYTE   W03
 BYTE   W03
 BYTE   W03
 BYTE   W03
 BYTE   W01
// 013   ----------------------------------------
 BYTE   W02
 BYTE   W03
 BYTE   W03
 BYTE   W03
 BYTE   W03
 BYTE   W03
 BYTE   W03
 BYTE   W03
 BYTE   W03
 BYTE   W03
 BYTE   W03
 BYTE   W03
 BYTE   W03
 BYTE   W03
 BYTE   W03
 BYTE   W03
 BYTE   W01
 BYTE   TEMPO   110*FE12ThemeOfLoveSwiftSaturn_tbs/2
 BYTE   W01
 BYTE   EOT
 BYTE   W01
 BYTE   W03
 BYTE   W01
 BYTE   W02
 BYTE   W01
 BYTE   W02
 BYTE   W01
 BYTE   W02
 BYTE   W01
 BYTE   W02
 BYTE   W01
 BYTE   W02
 BYTE   W01
 BYTE   W02
 BYTE   W01
 BYTE   W01
 BYTE   N24  An2  v092
 BYTE   W01
 BYTE   W01
 BYTE   W21
// 014   ----------------------------------------
 BYTE   W02
 BYTE   N23  Bn2  v096
 BYTE   W24
 BYTE   N22  Cs3  v100
 BYTE   W22
 BYTE   N23  Dn3  v096
 BYTE   W05
 BYTE   W19
 BYTE   En3  v092
 BYTE   W19
 BYTE   W05
// 015   ----------------------------------------
 BYTE   N24  Gs3  v084
 BYTE   W24
 BYTE   W01
 BYTE   N23  An3  v092
 BYTE   W07
 BYTE   W17
 BYTE   Gs3  v096
 BYTE   W20
 BYTE   W03
 BYTE   TEMPO   112*FE12ThemeOfLoveSwiftSaturn_tbs/2
 BYTE   N24  En4  v076
 BYTE   W24
// 016   ----------------------------------------
 BYTE   W01
 BYTE   Dn4  v096
 BYTE   W09
 BYTE   W16
 BYTE   N22  Cs4  v076
 BYTE   W22
 BYTE   N24  Bn3  v088
 BYTE   W24
 BYTE   W01
 BYTE   N22  An3  v096
 BYTE   W12
 BYTE   W11
// 017   ----------------------------------------
 BYTE   N24  Bn3
 BYTE   W24
 BYTE   Cs4
 BYTE   W02
 BYTE   W24
 BYTE   N22  Dn4
 BYTE   W14
 BYTE   W09
 BYTE   N24  En4  v088
 BYTE   W23
// 018   ----------------------------------------
 BYTE   TEMPO   108*FE12ThemeOfLoveSwiftSaturn_tbs/2
 BYTE   W02
 BYTE   TIE  Fs4  v076
 BYTE   W03
 BYTE   W01
 BYTE   W02
 BYTE   W01
 BYTE   W02
 BYTE   W01
 BYTE   W02
 BYTE   W01
 BYTE   W11
 BYTE   W05
 BYTE   W06
 BYTE   W05
 BYTE   W06
 BYTE   W05
 BYTE   W06
 BYTE   W05
 BYTE   W06
 BYTE   W09
 BYTE   W06
 BYTE   W06
 BYTE   W05
// 019   ----------------------------------------
 BYTE   W01
 BYTE   W03
 BYTE   W03
 BYTE   W03
 BYTE   W03
 BYTE   W03
 BYTE   W03
 BYTE   W03
 BYTE   W03
 BYTE   W03
 BYTE   W03
 BYTE   W03
 BYTE   W03
 BYTE   W03
 BYTE   W03
 BYTE   W03
 BYTE   W03
 BYTE   W03
 BYTE   W03
 BYTE   W01
 BYTE   W02
 BYTE   W01
 BYTE   W02
 BYTE   W01
 BYTE   W02
 BYTE   W01
 BYTE   W01
 BYTE   EOT
 BYTE   W01
 BYTE   W01
 BYTE   W02
 BYTE   W01
 BYTE   W02
 BYTE   N24  Fs4  v084
 BYTE   W01
 BYTE   W12
 BYTE   W05
 BYTE   W05
// 020   ----------------------------------------
 BYTE   W01
 BYTE   W01
 BYTE   N22  Gs4  v076
 BYTE   W05
 BYTE   W06
 BYTE   W05
 BYTE   W06
 BYTE   W01
 BYTE   N24  An4  v060
 BYTE   W05
 BYTE   W06
 BYTE   W05
 BYTE   W06
 BYTE   W02
 BYTE   N22  Gs4  v068
 BYTE   W04
 BYTE   W06
 BYTE   W05
 BYTE   W06
 BYTE   W03
 BYTE   N24  An4
 BYTE   W03
 BYTE   W06
 BYTE   W05
 BYTE   W06
 BYTE   W03
// 021   ----------------------------------------
 BYTE   TEMPO   104*FE12ThemeOfLoveSwiftSaturn_tbs/2
 BYTE   W01
 BYTE   N22  Bn4  v056
 BYTE   W07
 BYTE   W06
 BYTE   W05
 BYTE   W05
 BYTE   N24  An4  v068
 BYTE   W01
 BYTE   W05
 BYTE   W06
 BYTE   W06
 BYTE   W05
 BYTE   W02
 BYTE   Gs4  v064
 BYTE   W04
 BYTE   W05
 BYTE   W06
 BYTE   W05
 BYTE   W03
 BYTE   TEMPO   102*FE12ThemeOfLoveSwiftSaturn_tbs/2
 BYTE   W02
 BYTE   An4  v056
 BYTE   W01
 BYTE   W21
// 022   ----------------------------------------
 BYTE   W02
 BYTE   N21  Fn4  v064
 BYTE   W22
 BYTE   N23  Dn4  v068
 BYTE   W24
 BYTE   TEMPO   108*FE12ThemeOfLoveSwiftSaturn_tbs/2
 BYTE   N72  Cs4  v064
 BYTE   W04
 BYTE   W17
 BYTE   W11
 BYTE   W06
 BYTE   W06
 BYTE   W04
// 023   ----------------------------------------
 BYTE   W07
 BYTE   W06
 BYTE   W05
 BYTE   W06
 BYTE   W01
 BYTE   N68  Bn3  v084
 BYTE   W68
 BYTE   W03
// 024   ----------------------------------------
 BYTE   TEMPO   108*FE12ThemeOfLoveSwiftSaturn_tbs/2
 BYTE   W01
 BYTE   An3  v080
 BYTE   W01
 BYTE   W12
 BYTE   W09
 BYTE   W09
 BYTE   W03
 BYTE   W06
 BYTE   W03
 BYTE   W06
 BYTE   W03
 BYTE   W03
 BYTE   W03
 BYTE   W03
 BYTE   W03
 BYTE   W03
 BYTE   W03
 BYTE   W01
 BYTE   TEMPO   108*FE12ThemeOfLoveSwiftSaturn_tbs/2
 BYTE   W02
 BYTE   Dn4  v108
 BYTE   W02
 BYTE   W06
 BYTE   W06
 BYTE   W06
 BYTE   W02
// 025   ----------------------------------------
 BYTE   W01
 BYTE   W03
 BYTE   W03
 BYTE   W03
 BYTE   W03
 BYTE   W03
 BYTE   W03
 BYTE   W03
 BYTE   W03
 BYTE   W03
 BYTE   W03
 BYTE   W03
 BYTE   W03
 BYTE   W03
 BYTE   W03
 BYTE   W01
 BYTE   W02
 BYTE   W01
 BYTE   W01
 BYTE   N72  Cs4  v096
 BYTE   W01
 BYTE   W01
 BYTE   W02
 BYTE   W01
 BYTE   W02
 BYTE   W01
 BYTE   W01
 BYTE   W03
 BYTE   W03
 BYTE   W03
 BYTE   W03
 BYTE   W03
 BYTE   W03
 BYTE   W03
 BYTE   W03
 BYTE   W03
 BYTE   W03
 BYTE   W03
 BYTE   W03
 BYTE   W03
// 026   ----------------------------------------
 BYTE   W03
 BYTE   W03
 BYTE   W03
 BYTE   W03
 BYTE   W03
 BYTE   W03
 BYTE   W03
 BYTE   W04
 BYTE   VOL   73*FE12ThemeOfLoveSwiftSaturn_mvl/mxv
 BYTE   PAN   c_v-24
 BYTE   N60  Fs2  v064
 BYTE   W12
 BYTE   N21  Cs3  v080
 BYTE   W11
 BYTE   Dn3
 BYTE   W12
 BYTE   Cs3  v064
 BYTE   W12
 BYTE   Dn3  v056
 BYTE   W12
 BYTE   N23  Cs3  v052
 BYTE   W12
// 027   ----------------------------------------
 BYTE   N64  Fs2  v064
 BYTE   W12
 BYTE   N21  Cs3
 BYTE   W12
 BYTE   N20  Dn3  v080
 BYTE   W12
 BYTE   N22  Cs3  v064
 BYTE   W12
 BYTE   N21  Dn3
 BYTE   W12
 BYTE   N24  Cs3  v056
 BYTE   W12
 BYTE   N60  Fs2  v072
 BYTE   W01
 BYTE   W12
 BYTE   N21  Cs3
 BYTE   W11
// 028   ----------------------------------------
 BYTE   N19  Dn3
 BYTE   W12
 BYTE   N23  Cs3  v068
 BYTE   W13
 BYTE   N20  Dn3  v064
 BYTE   W11
 BYTE   N24  Cs3  v072
 BYTE   W12
 BYTE   N66  Fs2  v076
 BYTE   W12
 BYTE   N21  Cs3
 BYTE   W12
 BYTE   N18  Dn3  v080
 BYTE   W12
 BYTE   N21  Cs3  v064
 BYTE   W12
// 029   ----------------------------------------
 BYTE   Dn3  v080
 BYTE   W11
 BYTE   N24  Cs3  v076
 BYTE   W13
 BYTE   N60  Fn2  v092
 BYTE   W12
 BYTE   N22  Cs3
 BYTE   W13
 BYTE   N20  Dn3  v068
 BYTE   W11
 BYTE   N21  Cs3  v076
 BYTE   W12
 BYTE   Dn3  v080
 BYTE   W12
 BYTE   N24  Cs3  v072
 BYTE   W12
// 030   ----------------------------------------
 BYTE   W01
 BYTE   N60  Fn2  v092
 BYTE   W12
 BYTE   N22  Cs3  v080
 BYTE   W12
 BYTE   N21  Dn3  v076
 BYTE   W11
 BYTE   Cs3  v088
 BYTE   W12
 BYTE   Dn3
 BYTE   W12
 BYTE   N24  Cs3
 BYTE   W13
 BYTE   N64  En2  v096
 BYTE   W12
 BYTE   N21  Cs3  v084
 BYTE   W11
// 031   ----------------------------------------
 BYTE   W01
 BYTE   Dn3
 BYTE   W12
 BYTE   Cs3  v088
 BYTE   W11
 BYTE   N22  Dn3  v072
 BYTE   W13
 BYTE   N24  Cs3  v076
 BYTE   W11
 BYTE   N56  En2  v092
 BYTE   W13
 BYTE   N21  Cs3  v088
 BYTE   W11
 BYTE   N22  Dn3  v100
 BYTE   W13
 BYTE   N21  Cs3  v088
 BYTE   W11
// 032   ----------------------------------------
 BYTE   W01
 BYTE   Dn3
 BYTE   W11
 BYTE   N24  Cs3  v076
 BYTE   W12
 BYTE   N64  Ds2  v088
 BYTE   W13
 BYTE   N22  Bn2  v100
 BYTE   W12
 BYTE   N21  Cs3  v088
 BYTE   W12
 BYTE   Bn2
 BYTE   W12
 BYTE   Cs3
 BYTE   W11
 BYTE   N23  Bn2  v080
 BYTE   W12
// 033   ----------------------------------------
 BYTE   W01
 BYTE   N68  Ds2  v072
 BYTE   W12
 BYTE   N21  Bn2  v088
 BYTE   W11
 BYTE   N22  Cs3  v084
 BYTE   W13
 BYTE   N21  Bn2  v088
 BYTE   W11
 BYTE   N22  Cs3
 BYTE   W13
 BYTE   Bn2
 BYTE   W12
 BYTE   N60  Dn2
 BYTE   W12
 BYTE   N20  Bn2
 BYTE   W11
// 034   ----------------------------------------
 BYTE   N21  Cs3  v092
 BYTE   W12
 BYTE   Bn2  v088
 BYTE   W12
 BYTE   N22  Cs3  v092
 BYTE   W13
 BYTE   N24  Bn2
 BYTE   W11
 BYTE   N60  Dn2
 BYTE   W13
 BYTE   N23  Bn2  v088
 BYTE   W12
 BYTE   N24  Cs3  v092
 BYTE   W12
 BYTE   N11  Bn2
 BYTE   W11
// 035   ----------------------------------------
 BYTE   W01
 BYTE   N03  Cs3
 BYTE   W12
 BYTE   N23  Bn2  v100
 BYTE   W11
 BYTE   N60  Cs2  v092
 BYTE   W12
 BYTE   N23  An2  v080
 BYTE   W12
 BYTE   Bn2  v100
 BYTE   W12
 BYTE   An2  v080
 BYTE   W12
 BYTE   N21  Bn2  v076
 BYTE   W12
 BYTE   N24  An2  v072
 BYTE   W12
// 036   ----------------------------------------
 BYTE   N64  Cs2  v088
 BYTE   W12
 BYTE   N24  An2  v100
 BYTE   W13
 BYTE   N23  Bn2
 BYTE   W12
 BYTE   An2  v092
 BYTE   W11
 BYTE   N21  Bn2  v100
 BYTE   W13
 BYTE   N24  An2  v080
 BYTE   W12
 BYTE   N60  Cn2  v096
 BYTE   W12
 BYTE   N23  Gs2  v100
 BYTE   W11
// 037   ----------------------------------------
 BYTE   W01
 BYTE   An2  v080
 BYTE   W11
 BYTE   Gs2  v088
 BYTE   W12
 BYTE   N24  An2  v072
 BYTE   W12
 BYTE   Gs2  v076
 BYTE   W13
 BYTE   N60  Cn2  v088
 BYTE   W12
 BYTE   N23  Gs2  v100
 BYTE   W12
 BYTE   N17  An2  v092
 BYTE   W12
 BYTE   N11  Gs2  v112
 BYTE   W11
// 038   ----------------------------------------
 BYTE   N28  An2  v104
 BYTE   W13
 BYTE   N23  Gs2  v092
 BYTE   W11
 BYTE   N60  Cs2  v080
 BYTE   W13
 BYTE   N23  Gs2  v076
 BYTE   W12
 BYTE   An2  v080
 BYTE   W11
 BYTE   Gs2  v088
 BYTE   W12
 BYTE   N24  An2  v072
 BYTE   W12
 BYTE   Gs2
 BYTE   W11
 BYTE   W01
// 039   ----------------------------------------
 BYTE   W01
 BYTE   N66  Cs2
 BYTE   W01
 BYTE   W03
 BYTE   W03
 BYTE   W03
 BYTE   W02
 BYTE   N23  Gs2  v080
 BYTE   W01
 BYTE   W03
 BYTE   W03
 BYTE   W03
 BYTE   W02
 BYTE   N22  An2  v088
 BYTE   W01
 BYTE   W03
 BYTE   W03
 BYTE   W03
 BYTE   W02
 BYTE   N23  Gs2  v076
 BYTE   W01
 BYTE   W03
 BYTE   W03
 BYTE   W03
 BYTE   W01
 BYTE   N28  An2  v064
 BYTE   W02
 BYTE   W03
 BYTE   W03
 BYTE   W03
 BYTE   W01
 BYTE   N24  Gs2
 BYTE   W02
 BYTE   W03
 BYTE   W03
 BYTE   W03
 BYTE   W02
 BYTE   N68  Fs1  v112
 BYTE   W01
 BYTE   W12
 BYTE   N11  Cs3  v088
 BYTE   W10
// 040   ----------------------------------------
 BYTE   W02
 BYTE   Dn3  v104
 BYTE   W06
 BYTE   W05
 BYTE   Cs3  v100
 BYTE   W10
 BYTE   W02
 BYTE   Dn3  v104
 BYTE   W11
 BYTE   N12  Cs3  v096
 BYTE   W02
 BYTE   W10
 BYTE   N68  An3  v092
 BYTE   W01
 BYTE   N11  Dn3  v100
 BYTE   W04
 BYTE   W08
 BYTE   N12  Cs3  v080
 BYTE   W07
 BYTE   W05
 BYTE   N11  Dn3  v084
 BYTE   W11
 BYTE   W01
 BYTE   Cs3  v080
 BYTE   W11
// 041   ----------------------------------------
 BYTE   W01
 BYTE   Dn3
 BYTE   W02
 BYTE   W10
 BYTE   N13  Cs3  v072
 BYTE   W05
 BYTE   W06
 BYTE   N68  Fn1  v104
 BYTE   W09
 BYTE   W04
 BYTE   N12  Cs3  v084
 BYTE   W11
 BYTE   W01
 BYTE   N11  Dn3  v112
 BYTE   W11
 BYTE   N12  Cs3  v108
 BYTE   W03
 BYTE   W10
 BYTE   N11  Dn3  v100
 BYTE   W05
 BYTE   W06
 BYTE   N12  Cs3  v088
 BYTE   W10
 BYTE   W02
// 042   ----------------------------------------
 BYTE   N72  Gs3  v100
 BYTE   W01
 BYTE   N11  Dn3  v080
 BYTE   W12
 BYTE   Cs3  v076
 BYTE   W11
 BYTE   N12  Dn3  v096
 BYTE   W04
 BYTE   W09
 BYTE   N11  Cs3  v084
 BYTE   W06
 BYTE   W06
 BYTE   Dn3  v088
 BYTE   W09
 BYTE   W03
 BYTE   N14  Cs3  v092
 BYTE   W11
 BYTE   N68  En1  v104
 BYTE   W01
 BYTE   W12
 BYTE   N11  Cs3  v088
 BYTE   W03
 BYTE   W08
// 043   ----------------------------------------
 BYTE   W01
 BYTE   Dn3
 BYTE   W06
 BYTE   W06
 BYTE   Cs3  v092
 BYTE   W10
 BYTE   W01
 BYTE   Dn3  v104
 BYTE   W12
 BYTE   Cs3  v096
 BYTE   W02
 BYTE   W10
 BYTE   N12  Dn3  v100
 BYTE   N24  En4  v080
 BYTE   W05
 BYTE   W07
 BYTE   N11  Cs3  v088
 BYTE   W08
 BYTE   W04
 BYTE   Dn3  v112
 BYTE   N24  Dn4  v076
 BYTE   W11
 BYTE   W01
 BYTE   N11  Cs3  v104
 BYTE   W12
// 044   ----------------------------------------
 BYTE   Dn3  v112
 BYTE   N23  Cs4  v092
 BYTE   W02
 BYTE   W10
 BYTE   N21  Cs3  v112
 BYTE   W05
 BYTE   W07
 BYTE   N24  Ds1  v127
 BYTE   W12
 BYTE   N23  Bn2  v100
 BYTE   W13
 BYTE   N24  Cs3  v088
 BYTE   W11
 BYTE   N23  Fs3  v084
 BYTE   W13
 BYTE   Bn3  v076
 BYTE   W11
 BYTE   N24  Cs4  v104
 BYTE   W12
// 045   ----------------------------------------
 BYTE   N23  Fs4  v076
 BYTE   W12
 BYTE   N24  Cs4  v100
 BYTE   W13
 BYTE   N23  Bn3  v088
 BYTE   W12
 BYTE   N22  Fs3  v080
 BYTE   W12
 BYTE   Cs3  v092
 BYTE   W11
 BYTE   N23  Fs2  v072
 BYTE   W13
 BYTE   Dn2  v104
 BYTE   W11
 BYTE   N24  Fs2  v108
 BYTE   W12
// 046   ----------------------------------------
 BYTE   Bn2  v104
 BYTE   W13
 BYTE   N23  Cs3  v092
 BYTE   W11
 BYTE   N22  Dn3
 BYTE   W12
 BYTE   N09  Fs3  v084
 BYTE   W12
 BYTE   N11  Fs3  v068
 BYTE   W01
 BYTE   N23  An3  v104
 BYTE   W11
 BYTE   N12  Dn3  v116
 BYTE   W13
 BYTE   N11  En3  v080
 BYTE   N23  Gs3
 BYTE   W12
 BYTE   N11  Dn3  v100
 BYTE   W11
// 047   ----------------------------------------
 BYTE   W01
 BYTE   N12  Fs3  v064
 BYTE   N23  An3
 BYTE   W12
 BYTE   N11  Dn3  v088
 BYTE   W12
 BYTE   N23  Cs2  v064
 BYTE   N11  Bn3  v116
 BYTE   W12
 BYTE   N22  En3  v092
 BYTE   W12
 BYTE   N23  An3  v076
 BYTE   W11
 BYTE   N24  Bn2  v100
 BYTE   W12
 BYTE   N12  Gs3  v080
 BYTE   W12
 BYTE   N17  En3  v104
 BYTE   W12
// 048   ----------------------------------------
 BYTE   W01
 BYTE   N05  Cn3  v076
 BYTE   W05
 BYTE   N66  Dn3  v080
 BYTE   W03
 BYTE   An3  v064
 BYTE   W76
 BYTE   N23  Bn1  v100
 BYTE   W11
// 049   ----------------------------------------
 BYTE   W01
 BYTE   N22  En2  v112
 BYTE   W12
 BYTE   N23  An2  v092
 BYTE   W11
 BYTE   Bn2  v088
 BYTE   W12
 BYTE   Cs3  v076
 BYTE   W12
 BYTE   N24  Bn2  v072
 BYTE   W12
 BYTE   En2  v092
 BYTE   W12
 BYTE   Dn3  v104
 BYTE   W12
 BYTE   N23  En2  v100
 BYTE   W12
// 050   ----------------------------------------
 BYTE   W01
 BYTE   Bn3  v076
 BYTE   W11
 BYTE   N12  En2  v080
 BYTE   W13
 BYTE   N68  An3
 BYTE   W12
 BYTE   N11  Cs3  v060
 BYTE   W12
 BYTE   Dn3  v064
 BYTE   W12
 BYTE   Cs3  v088
 BYTE   W11
 BYTE   Dn3  v060
 BYTE   W12
 BYTE   N13  Cs3  v080
 BYTE   W12
// 051   ----------------------------------------
 BYTE   N68  An3
 BYTE   W12
 BYTE   N12  Bn2  v064
 BYTE   W12
 BYTE   N11  Dn3  v080
 BYTE   W12
 BYTE   N12  Bn2  v060
 BYTE   W13
 BYTE   Dn3  v072
 BYTE   W12
 BYTE   N10  Bn2  v052
 BYTE   W11
 BYTE   N60  Fs2  v072
 BYTE   W13
 BYTE   N21  Cs3
 BYTE   W11
// 052   ----------------------------------------
 BYTE   N19  Dn3
 BYTE   W12
 BYTE   N23  Cs3  v068
 BYTE   W13
 BYTE   N20  Dn3  v064
 BYTE   W11
 BYTE   N24  Cs3  v072
 BYTE   W48
 BYTE   GoTo
  POIN2 Label_0_01802122
 BYTE   FINE

//**************** Track 2 (Midi-Chn.1) ****************//

FE12ThemeOfLoveSwiftSaturn_002:
// 000   ----------------------------------------
 BYTE   KEYSH   FE12ThemeOfLoveSwiftSaturn_key+0
Label_1_0180272E:
 BYTE   VOICE   0
 BYTE   VOL   50*FE12ThemeOfLoveSwiftSaturn_mvl/mxv
 BYTE   PAN   c_v+36
 BYTE   W04
 BYTE   N64  Fs2  v064
 BYTE   W12
 BYTE   N21  Cs3  v080
 BYTE   W11
 BYTE   Dn3
 BYTE   W12
 BYTE   Cs3  v064
 BYTE   W12
 BYTE   Dn3  v056
 BYTE   W12
 BYTE   Cs3  v052
 BYTE   W12
 BYTE   N66  Fs2  v064
 BYTE   W12
 BYTE   N21  Cs3
 BYTE   W09
// 001   ----------------------------------------
 BYTE   W03
 BYTE   N20  Dn3  v080
 BYTE   W12
 BYTE   N22  Cs3  v064
 BYTE   W12
 BYTE   N21  Dn3
 BYTE   W12
 BYTE   N22  Cs3  v056
 BYTE   W09
 BYTE   W03
 BYTE   N68  Fs2  v072
 BYTE   W13
 BYTE   N21  Cs3
 BYTE   W11
 BYTE   N19  Dn3
 BYTE   W12
 BYTE   N23  Cs3  v068
 BYTE   W09
// 002   ----------------------------------------
 BYTE   W04
 BYTE   N20  Dn3  v064
 BYTE   W11
 BYTE   N11  Cs3  v072
 BYTE   W12
 BYTE   N12  Fs2  v076
 BYTE   W12
 BYTE   N11  Cs3
 BYTE   W12
 BYTE   Dn3  v080
 BYTE   W12
 BYTE   N03  Cs3  v064
 BYTE   W12
 BYTE   N11  Dn3  v080
 BYTE   W11
 BYTE   N12  Cs3  v076
 BYTE   W10
// 003   ----------------------------------------
 BYTE   W03
 BYTE   Fn2  v092
 BYTE   W12
 BYTE   Cs3
 BYTE   W13
 BYTE   N10  Dn3  v068
 BYTE   W11
 BYTE   N11  Cs3  v076
 BYTE   W12
 BYTE   Dn3  v080
 BYTE   W12
 BYTE   N12  Cs3  v072
 BYTE   W13
 BYTE   N11  Fn2  v092
 BYTE   W12
 BYTE   N12  Cs3  v080
 BYTE   W08
// 004   ----------------------------------------
 BYTE   W04
 BYTE   N11  Dn3  v076
 BYTE   W11
 BYTE   Cs3  v088
 BYTE   W12
 BYTE   Dn3
 BYTE   W12
 BYTE   N12  Cs3
 BYTE   W13
 BYTE   En2  v104
 BYTE   W12
 BYTE   N11  Cs3  v084
 BYTE   W12
 BYTE   Dn3
 BYTE   W12
 BYTE   Cs3  v088
 BYTE   W08
// 005   ----------------------------------------
 BYTE   W03
 BYTE   N12  Dn3  v072
 BYTE   W13
 BYTE   N11  Cs3  v076
 BYTE   W11
 BYTE   En2  v092
 BYTE   W13
 BYTE   Cs3  v088
 BYTE   W11
 BYTE   N12  Dn3  v100
 BYTE   W13
 BYTE   N11  Cs3  v088
 BYTE   W12
 BYTE   Dn3
 BYTE   W11
 BYTE   Cs3  v076
 BYTE   W09
// 006   ----------------------------------------
 BYTE   W03
 BYTE   N12  Ds2  v104
 BYTE   W13
 BYTE   Bn2  v100
 BYTE   W12
 BYTE   N11  Cs3  v088
 BYTE   W12
 BYTE   Bn2
 BYTE   W12
 BYTE   Cs3
 BYTE   W11
 BYTE   N12  Bn2  v080
 BYTE   W13
 BYTE   N11  Ds2  v088
 BYTE   W12
 BYTE   Bn2
 BYTE   W08
// 007   ----------------------------------------
 BYTE   W03
 BYTE   N12  Cs3  v084
 BYTE   W13
 BYTE   N11  Bn2  v088
 BYTE   W11
 BYTE   N12  Cs3
 BYTE   W13
 BYTE   N11  Bn2
 BYTE   W12
 BYTE   N12  Dn2
 BYTE   W12
 BYTE   N10  Bn2
 BYTE   W11
 BYTE   N11  Cs3  v092
 BYTE   W12
 BYTE   Bn2  v088
 BYTE   W09
// 008   ----------------------------------------
 BYTE   W03
 BYTE   N12  Cs3  v092
 BYTE   W13
 BYTE   N11  Bn2
 BYTE   W11
 BYTE   N12  Dn2
 BYTE   W13
 BYTE   N11  Bn2  v088
 BYTE   W12
 BYTE   Cs3  v092
 BYTE   W12
 BYTE   Bn2
 BYTE   W12
 BYTE   Cs3
 BYTE   W12
 BYTE   Bn2  v100
 BYTE   W08
// 009   ----------------------------------------
 BYTE   W03
 BYTE   Cs2  v092
 BYTE   W12
 BYTE   An2  v080
 BYTE   W12
 BYTE   Bn2  v100
 BYTE   W12
 BYTE   An2  v080
 BYTE   W12
 BYTE   Bn2  v076
 BYTE   W12
 BYTE   N12  An2  v072
 BYTE   W12
 BYTE   N11  Cs2  v088
 BYTE   W12
 BYTE   N12  An2  v100
 BYTE   W09
// 010   ----------------------------------------
 BYTE   W04
 BYTE   N11  Bn2
 BYTE   W12
 BYTE   An2  v092
 BYTE   W11
 BYTE   Bn2  v100
 BYTE   W13
 BYTE   An2  v080
 BYTE   W12
 BYTE   N12  Cn2  v096
 BYTE   W12
 BYTE   N11  Gs2  v100
 BYTE   W12
 BYTE   An2  v080
 BYTE   W11
 BYTE   N12  Gs2  v088
 BYTE   W09
// 011   ----------------------------------------
 BYTE   W03
 BYTE   N11  An2  v072
 BYTE   W12
 BYTE   N12  Gs2  v076
 BYTE   W13
 BYTE   Cn2  v088
 BYTE   W12
 BYTE   N11  Gs2  v100
 BYTE   W12
 BYTE   An2  v092
 BYTE   W12
 BYTE   Gs2  v112
 BYTE   W11
 BYTE   N12  An2  v104
 BYTE   W13
 BYTE   N11  Gs2  v092
 BYTE   W08
// 012   ----------------------------------------
 BYTE   W03
 BYTE   N12  Cs2  v080
 BYTE   W13
 BYTE   Gs2  v076
 BYTE   W12
 BYTE   N10  An2  v080
 BYTE   W06
 BYTE   W05
 BYTE   N12  Gs2  v088
 BYTE   W05
 BYTE   W04
 BYTE   W03
 BYTE   N11  An2  v072
 BYTE   W02
 BYTE   W05
 BYTE   W05
 BYTE   N12  Gs2
 BYTE   W05
 BYTE   W05
 BYTE   W03
 BYTE   Cs2
 BYTE   W01
 BYTE   W05
 BYTE   W05
 BYTE   W01
 BYTE   N11  Gs2  v080
 BYTE   W04
 BYTE   W04
// 013   ----------------------------------------
 BYTE   W01
 BYTE   W03
 BYTE   An2  v088
 BYTE   W01
 BYTE   W05
 BYTE   W05
 BYTE   W01
 BYTE   Gs2  v076
 BYTE   W04
 BYTE   W05
 BYTE   W02
 BYTE   N12  An2  v064
 BYTE   W02
 BYTE   W05
 BYTE   W05
 BYTE   N11  Gs2
 BYTE   W05
 BYTE   W05
 BYTE   W03
 BYTE   N12  Fs1  v112
 BYTE   W02
 BYTE   W11
 BYTE   N11  Cs3  v088
 BYTE   W06
 BYTE   W06
 BYTE   Dn3  v104
 BYTE   W11
 BYTE   Cs3  v100
 BYTE   W01
 BYTE   W07
// 014   ----------------------------------------
 BYTE   W04
 BYTE   Dn3  v104
 BYTE   W07
 BYTE   W04
 BYTE   Cs3  v096
 BYTE   W12
 BYTE   An3  v092
 BYTE   W02
 BYTE   W11
 BYTE   N12  Cs3  v080
 BYTE   W07
 BYTE   W05
 BYTE   N11  Dn3  v084
 BYTE   W12
 BYTE   Cs3  v080
 BYTE   W12
 BYTE   Dn3
 BYTE   W06
 BYTE   W06
 BYTE   Cs3  v072
 BYTE   W08
// 015   ----------------------------------------
 BYTE   W03
 BYTE   N10  Fn1  v104
 BYTE   W01
 BYTE   W12
 BYTE   N12  Cs3  v084
 BYTE   W06
 BYTE   W06
 BYTE   N11  Dn3  v112
 BYTE   W11
 BYTE   N12  Cs3  v108
 BYTE   W01
 BYTE   W12
 BYTE   N11  Dn3  v100
 BYTE   W05
 BYTE   W06
 BYTE   Cs3  v088
 BYTE   W12
 BYTE   N12  Gs3  v100
 BYTE   W13
 BYTE   N11  Cs3  v076
 BYTE   W05
 BYTE   W03
// 016   ----------------------------------------
 BYTE   W03
 BYTE   N12  Dn3  v096
 BYTE   W12
 BYTE   W01
 BYTE   N11  Cs3  v084
 BYTE   W12
 BYTE   Dn3  v088
 BYTE   W05
 BYTE   W07
 BYTE   Cs3  v092
 BYTE   W11
 BYTE   En1  v104
 BYTE   W13
 BYTE   Cs3  v088
 BYTE   W04
 BYTE   W08
 BYTE   N12  Dn3
 BYTE   W10
 BYTE   W02
 BYTE   N11  Cs3  v092
 BYTE   W08
// 017   ----------------------------------------
 BYTE   W03
 BYTE   Dn3  v104
 BYTE   W05
 BYTE   W07
 BYTE   Cs3  v096
 BYTE   W11
 BYTE   W01
 BYTE   N12  En4  v080
 BYTE   W12
 BYTE   N11  Cs3  v088
 BYTE   W05
 BYTE   W07
 BYTE   Dn4  v076
 BYTE   W10
 BYTE   W02
 BYTE   Cs3  v104
 BYTE   W12
 BYTE   Cs4  v092
 BYTE   W04
 BYTE   W08
 BYTE   Cs3  v112
 BYTE   W09
// 018   ----------------------------------------
 BYTE   W01
 BYTE   W02
 BYTE   N12  Ds1  v127
 BYTE   W12
 BYTE   N11  Bn2  v100
 BYTE   W13
 BYTE   Cs3  v088
 BYTE   W11
 BYTE   N12  Fs3  v084
 BYTE   W13
 BYTE   N10  Bn3  v076
 BYTE   W11
 BYTE   N12  Cs4  v104
 BYTE   W12
 BYTE   N11  Fs4  v076
 BYTE   W12
 BYTE   N12  Cs4  v100
 BYTE   W09
// 019   ----------------------------------------
 BYTE   W04
 BYTE   N11  Bn3  v088
 BYTE   W12
 BYTE   Fs3  v080
 BYTE   W12
 BYTE   Cs3  v092
 BYTE   W11
 BYTE   N12  Fs2  v072
 BYTE   W13
 BYTE   N11  Dn2  v104
 BYTE   W11
 BYTE   Fs2  v108
 BYTE   W12
 BYTE   N12  Bn2  v104
 BYTE   W13
 BYTE   N11  Cs3  v092
 BYTE   W08
// 020   ----------------------------------------
 BYTE   W03
 BYTE   Dn3
 BYTE   W12
 BYTE   N09  Fs3  v084
 BYTE   W13
 BYTE   N11  An3  v104
 BYTE   W11
 BYTE   N12  Dn3  v116
 BYTE   W13
 BYTE   N11  Gs3  v080
 BYTE   W12
 BYTE   Dn3  v100
 BYTE   W12
 BYTE   N12  An3  v064
 BYTE   W12
 BYTE   N11  Dn3  v088
 BYTE   W08
// 021   ----------------------------------------
 BYTE   W04
 BYTE   Cs2  v064
 BYTE   N11  Bn3  v116
 BYTE   W12
 BYTE   N12  En3  v092
 BYTE   W12
 BYTE   N10  An3  v076
 BYTE   W11
 BYTE   N12  Bn2  v100
 BYTE   W12
 BYTE   N11  Gs3  v080
 BYTE   W12
 BYTE   N13  En3  v104
 BYTE   W13
 BYTE   N05  Cn3  v076
 BYTE   W05
 BYTE   N02  Dn3  v080
 BYTE   W03
 BYTE   N66  An3  v064
 BYTE   W12
// 022   ----------------------------------------
 BYTE   W64
 BYTE   N12  Bn1  v100
 BYTE   W12
 BYTE   N11  En2  v112
 BYTE   W12
 BYTE   An2  v092
 BYTE   W08
// 023   ----------------------------------------
 BYTE   W03
 BYTE   Bn2  v088
 BYTE   W12
 BYTE   Cs3  v076
 BYTE   W12
 BYTE   Bn2  v072
 BYTE   W12
 BYTE   N12  En2  v092
 BYTE   W12
 BYTE   N11  Dn3  v104
 BYTE   W12
 BYTE   N12  En2  v100
 BYTE   W13
 BYTE   N11  Bn3  v076
 BYTE   W11
 BYTE   N12  En2  v080
 BYTE   W09
// 024   ----------------------------------------
 BYTE   W04
 BYTE   N08  An3
 BYTE   W12
 BYTE   N11  Cs3  v060
 BYTE   W12
 BYTE   Dn3  v064
 BYTE   W12
 BYTE   Cs3  v088
 BYTE   W11
 BYTE   Dn3  v060
 BYTE   W12
 BYTE   Cs3  v080
 BYTE   W12
 BYTE   N08  An3
 BYTE   W12
 BYTE   N12  Bn2  v064
 BYTE   W09
// 025   ----------------------------------------
 BYTE   W03
 BYTE   N11  Dn3  v080
 BYTE   W12
 BYTE   N12  Bn2  v060
 BYTE   W13
 BYTE   Dn3  v072
 BYTE   W12
 BYTE   N10  Bn2  v052
 BYTE   W11
 BYTE   N22  Fs2  v072
 BYTE   W13
 BYTE   N21  Cs3
 BYTE   W11
 BYTE   N19  Dn3
 BYTE   W12
 BYTE   N23  Cs3  v068
 BYTE   W09
// 026   ----------------------------------------
 BYTE   W04
 BYTE   N20  Dn3  v064
 BYTE   W11
 BYTE   N21  Cs3  v072
 BYTE   W80
 BYTE   W01
// 027   ----------------------------------------
 BYTE   W96
// 028   ----------------------------------------
 BYTE   W96
// 029   ----------------------------------------
 BYTE   W96
// 030   ----------------------------------------
 BYTE   W96
// 031   ----------------------------------------
 BYTE   W96
// 032   ----------------------------------------
 BYTE   W96
// 033   ----------------------------------------
 BYTE   W96
// 034   ----------------------------------------
 BYTE   W96
// 035   ----------------------------------------
 BYTE   W96
// 036   ----------------------------------------
 BYTE   W96
// 037   ----------------------------------------
 BYTE   W96
// 038   ----------------------------------------
 BYTE   W96
// 039   ----------------------------------------
 BYTE   W96
// 040   ----------------------------------------
 BYTE   W96
// 041   ----------------------------------------
 BYTE   W96
// 042   ----------------------------------------
 BYTE   W96
// 043   ----------------------------------------
 BYTE   W96
// 044   ----------------------------------------
 BYTE   W96
// 045   ----------------------------------------
 BYTE   W96
// 046   ----------------------------------------
 BYTE   W96
// 047   ----------------------------------------
 BYTE   W96
// 048   ----------------------------------------
 BYTE   W96
// 049   ----------------------------------------
 BYTE   W96
// 050   ----------------------------------------
 BYTE   W96
// 051   ----------------------------------------
 BYTE   W96
// 052   ----------------------------------------
 BYTE   W84
 BYTE   GoTo
  POIN2 Label_1_0180272E
 BYTE   FINE

//**************** Track 3 (Midi-Chn.2) ****************//

FE12ThemeOfLoveSwiftSaturn_003:
// 000   ----------------------------------------
 BYTE   KEYSH   FE12ThemeOfLoveSwiftSaturn_key+0
Label_2_01802A6E:
 BYTE   VOICE   0
 BYTE   VOL   40*FE12ThemeOfLoveSwiftSaturn_mvl/mxv
 BYTE   PAN   c_v-54
 BYTE   W08
 BYTE   N64  Fs2  v064
 BYTE   W12
 BYTE   N21  Cs3  v080
 BYTE   W11
 BYTE   Dn3
 BYTE   W12
 BYTE   Cs3  v064
 BYTE   W12
 BYTE   Dn3  v056
 BYTE   W12
 BYTE   Cs3  v052
 BYTE   W12
 BYTE   N66  Fs2  v064
 BYTE   W12
 BYTE   N21  Cs3
 BYTE   W05
// 001   ----------------------------------------
 BYTE   W07
 BYTE   N20  Dn3  v080
 BYTE   W12
 BYTE   N22  Cs3  v064
 BYTE   W12
 BYTE   N21  Dn3
 BYTE   W12
 BYTE   N22  Cs3  v056
 BYTE   W05
 BYTE   W07
 BYTE   Fs2  v072
 BYTE   W13
 BYTE   N21  Cs3
 BYTE   W11
 BYTE   N19  Dn3
 BYTE   W12
 BYTE   N23  Cs3  v068
 BYTE   W05
// 002   ----------------------------------------
 BYTE   W08
 BYTE   N20  Dn3  v064
 BYTE   W11
 BYTE   N11  Cs3  v072
 BYTE   W12
 BYTE   N12  Fs2  v076
 BYTE   W12
 BYTE   N11  Cs3
 BYTE   W12
 BYTE   Dn3  v080
 BYTE   W12
 BYTE   N07  Cs3  v064
 BYTE   W12
 BYTE   N11  Dn3  v080
 BYTE   W11
 BYTE   N12  Cs3  v076
 BYTE   W06
// 003   ----------------------------------------
 BYTE   W07
 BYTE   Fn2  v092
 BYTE   W88
 BYTE   W01
// 004   ----------------------------------------
 BYTE   W96
// 005   ----------------------------------------
 BYTE   W96
// 006   ----------------------------------------
 BYTE   W96
// 007   ----------------------------------------
 BYTE   W56
 BYTE   Dn2  v088
 BYTE   W12
 BYTE   N10  Bn2
 BYTE   W11
 BYTE   N11  Cs3  v092
 BYTE   W12
 BYTE   Bn2  v088
 BYTE   W05
// 008   ----------------------------------------
 BYTE   W07
 BYTE   N12  Cs3  v092
 BYTE   W13
 BYTE   N11  Bn2
 BYTE   W11
 BYTE   N12  Dn2
 BYTE   W64
 BYTE   W01
// 009   ----------------------------------------
 BYTE   W96
// 010   ----------------------------------------
 BYTE   W96
// 011   ----------------------------------------
 BYTE   W96
// 012   ----------------------------------------
 BYTE   W68
 BYTE   W01
 BYTE   W06
 BYTE   W03
 BYTE   W03
 BYTE   W04
 BYTE   W03
 BYTE   W03
 BYTE   W03
 BYTE   W02
// 013   ----------------------------------------
 BYTE   W01
 BYTE   W03
 BYTE   W04
 BYTE   W03
 BYTE   W03
 BYTE   W03
 BYTE   W03
 BYTE   W04
 BYTE   W03
 BYTE   W03
 BYTE   W03
 BYTE   W03
 BYTE   W04
 BYTE   W03
 BYTE   W03
 BYTE   W36
 BYTE   W02
 BYTE   W12
// 014   ----------------------------------------
 BYTE   W07
 BYTE   W19
 BYTE   W19
 BYTE   W19
 BYTE   W19
 BYTE   W13
// 015   ----------------------------------------
 BYTE   W06
 BYTE   W19
 BYTE   W19
 BYTE   W20
 BYTE   W19
 BYTE   W13
// 016   ----------------------------------------
 BYTE   W06
 BYTE   W19
 BYTE   W19
 BYTE   W19
 BYTE   W19
 BYTE   W14
// 017   ----------------------------------------
 BYTE   W05
 BYTE   W19
 BYTE   W19
 BYTE   W19
 BYTE   W19
 BYTE   W15
// 018   ----------------------------------------
 BYTE   W04
 BYTE   W92
// 019   ----------------------------------------
 BYTE   W96
// 020   ----------------------------------------
 BYTE   W96
// 021   ----------------------------------------
 BYTE   W96
// 022   ----------------------------------------
 BYTE   W96
// 023   ----------------------------------------
 BYTE   W96
// 024   ----------------------------------------
 BYTE   W96
// 025   ----------------------------------------
 BYTE   W54
 BYTE   W01
 BYTE   Fs2  v072
 BYTE   W13
 BYTE   N11  Cs3
 BYTE   W11
 BYTE   Dn3
 BYTE   W12
 BYTE   N13  Cs3  v068
 BYTE   W05
// 026   ----------------------------------------
 BYTE   W08
 BYTE   N10  Dn3  v064
 BYTE   W11
 BYTE   N11  Cs3  v072
 BYTE   W76
 BYTE   W01
// 027   ----------------------------------------
 BYTE   W96
// 028   ----------------------------------------
 BYTE   W96
// 029   ----------------------------------------
 BYTE   W96
// 030   ----------------------------------------
 BYTE   W96
// 031   ----------------------------------------
 BYTE   W96
// 032   ----------------------------------------
 BYTE   W96
// 033   ----------------------------------------
 BYTE   W96
// 034   ----------------------------------------
 BYTE   W96
// 035   ----------------------------------------
 BYTE   W96
// 036   ----------------------------------------
 BYTE   W96
// 037   ----------------------------------------
 BYTE   W96
// 038   ----------------------------------------
 BYTE   W96
// 039   ----------------------------------------
 BYTE   W96
// 040   ----------------------------------------
 BYTE   W96
// 041   ----------------------------------------
 BYTE   W96
// 042   ----------------------------------------
 BYTE   W96
// 043   ----------------------------------------
 BYTE   W96
// 044   ----------------------------------------
 BYTE   W96
// 045   ----------------------------------------
 BYTE   W96
// 046   ----------------------------------------
 BYTE   W96
// 047   ----------------------------------------
 BYTE   W96
// 048   ----------------------------------------
 BYTE   W96
// 049   ----------------------------------------
 BYTE   W96
// 050   ----------------------------------------
 BYTE   W96
// 051   ----------------------------------------
 BYTE   W96
// 052   ----------------------------------------
 BYTE   W84
 BYTE   GoTo
  POIN2 Label_2_01802A6E
 BYTE   FINE

//**************** Track 4 (Midi-Chn.3) ****************//

FE12ThemeOfLoveSwiftSaturn_004:
// 000   ----------------------------------------
 BYTE   KEYSH   FE12ThemeOfLoveSwiftSaturn_key+0
Label_3_01802B6A:
 BYTE   VOICE   7
 BYTE   VOL   73*FE12ThemeOfLoveSwiftSaturn_mvl/mxv
 BYTE   PAN   c_v+26
 BYTE   W96
// 001   ----------------------------------------
 BYTE   W96
// 002   ----------------------------------------
 BYTE   W96
// 003   ----------------------------------------
 BYTE   W96
// 004   ----------------------------------------
 BYTE   W96
// 005   ----------------------------------------
 BYTE   W96
// 006   ----------------------------------------
 BYTE   W96
// 007   ----------------------------------------
 BYTE   W96
// 008   ----------------------------------------
 BYTE   W96
// 009   ----------------------------------------
 BYTE   W96
// 010   ----------------------------------------
 BYTE   W96
// 011   ----------------------------------------
 BYTE   W96
// 012   ----------------------------------------
 BYTE   W24
 BYTE   N23  Gs4  v072
 BYTE   W05
 BYTE   W14
 BYTE   W05
 BYTE   N24  An4  v068
 BYTE   W10
 BYTE   W14
 BYTE   N23  Gs4  v072
 BYTE   W01
 BYTE   W14
 BYTE   W08
 BYTE   N24  Fn4  v080
 BYTE   W01
// 013   ----------------------------------------
 BYTE   W06
 BYTE   W14
 BYTE   W04
 BYTE   Dn4  v076
 BYTE   W11
 BYTE   W14
 BYTE   N68  Cs4  v068
 BYTE   W01
 BYTE   W03
 BYTE   W03
 BYTE   W03
 BYTE   W03
 BYTE   W03
 BYTE   W03
 BYTE   W03
 BYTE   W03
 BYTE   W03
 BYTE   W03
 BYTE   W03
 BYTE   W03
 BYTE   W03
 BYTE   W03
 BYTE   W03
 BYTE   W01
// 014   ----------------------------------------
 BYTE   W02
 BYTE   W03
 BYTE   W03
 BYTE   W03
 BYTE   W03
 BYTE   W03
 BYTE   W03
 BYTE   W03
 BYTE   W01
 BYTE   N44  Bn4  v060
 BYTE   W02
 BYTE   W01
 BYTE   W11
 BYTE   W05
 BYTE   W06
 BYTE   W06
 BYTE   W05
 BYTE   W06
 BYTE   W05
 BYTE   N24  An4  v072
 BYTE   W06
 BYTE   W06
 BYTE   W05
 BYTE   W06
 BYTE   W02
// 015   ----------------------------------------
 BYTE   N92  Cs4  v076
 BYTE   W03
 BYTE   W06
 BYTE   W06
 BYTE   W05
 BYTE   W06
 BYTE   W07
 BYTE   W04
 BYTE   W04
 BYTE   W04
 BYTE   W04
 BYTE   W04
 BYTE   W03
 BYTE   W04
 BYTE   W04
 BYTE   W04
 BYTE   W04
 BYTE   W04
 BYTE   W04
 BYTE   W03
 BYTE   W04
 BYTE   W04
 BYTE   W04
 BYTE   N23  Bn4  v072
 BYTE   W01
// 016   ----------------------------------------
 BYTE   W03
 BYTE   W20
 BYTE   N24  An4  v068
 BYTE   W24
 BYTE   N68  Cs4  v080
 BYTE   W06
 BYTE   W03
 BYTE   W03
 BYTE   W03
 BYTE   W03
 BYTE   W03
 BYTE   W03
 BYTE   W03
 BYTE   W03
 BYTE   W03
 BYTE   W03
 BYTE   W03
 BYTE   W03
 BYTE   W03
 BYTE   W03
 BYTE   W01
// 017   ----------------------------------------
 BYTE   W02
 BYTE   W03
 BYTE   W10
 BYTE   W05
 BYTE   W03
 BYTE   N48  Bn4  v076
 BYTE   W01
 BYTE   W05
 BYTE   W05
 BYTE   W05
 BYTE   W04
 BYTE   W05
 BYTE   W05
 BYTE   W04
 BYTE   W05
 BYTE   W05
 BYTE   W05
 BYTE   W01
 BYTE   N24  An4
 BYTE   W03
 BYTE   W05
 BYTE   W05
 BYTE   W05
 BYTE   W04
 BYTE   W01
// 018   ----------------------------------------
 BYTE   W02
 BYTE   N44  Cs5  v060
 BYTE   W02
 BYTE   W05
 BYTE   W05
 BYTE   W04
 BYTE   W05
 BYTE   W11
 BYTE   W07
 BYTE   W03
 BYTE   W04
 BYTE   N12  Dn5  v068
 BYTE   W03
 BYTE   W07
 BYTE   W02
 BYTE   N14  Cs5  v080
 BYTE   W02
 BYTE   W06
 BYTE   W04
 BYTE   W03
 BYTE   N66  Bn4  v060
 BYTE   W04
 BYTE   W03
 BYTE   W04
 BYTE   W03
 BYTE   W04
 BYTE   W03
// 019   ----------------------------------------
 BYTE   W04
 BYTE   W03
 BYTE   W04
 BYTE   W03
 BYTE   W04
 BYTE   W03
 BYTE   W04
 BYTE   W03
 BYTE   W04
 BYTE   W03
 BYTE   W04
 BYTE   W03
 BYTE   W04
 BYTE   W01
 BYTE   W01
 BYTE   W02
 BYTE   N68  Bn4  v084
 BYTE   W10
 BYTE   W08
 BYTE   W08
 BYTE   W07
 BYTE   W04
 BYTE   W04
 BYTE   W04
 BYTE   W01
// 020   ----------------------------------------
 BYTE   W03
 BYTE   W04
 BYTE   W04
 BYTE   W03
 BYTE   W04
 BYTE   W04
 BYTE   W01
 BYTE   N60  Fs4  v080
 BYTE   W03
 BYTE   W16
 BYTE   W07
 BYTE   W08
 BYTE   W08
 BYTE   W08
 BYTE   W07
 BYTE   W08
 BYTE   W02
 BYTE   N07  Fs4  v100
 BYTE   W06
// 021   ----------------------------------------
 BYTE   W02
 BYTE   N23  En4  v092
 BYTE   W07
 BYTE   W05
 BYTE   W05
 BYTE   W04
 BYTE   W02
 BYTE   Ds4  v096
 BYTE   W03
 BYTE   W05
 BYTE   W05
 BYTE   W04
 BYTE   W05
 BYTE   W01
 BYTE   N24  En4  v100
 BYTE   W04
 BYTE   W05
 BYTE   W04
 BYTE   W05
 BYTE   W05
 BYTE   W02
 BYTE   N56  An4  v080
 BYTE   W07
 BYTE   W03
 BYTE   W06
 BYTE   W03
 BYTE   W03
 BYTE   W01
// 022   ----------------------------------------
 BYTE   W02
 BYTE   W03
 BYTE   W03
 BYTE   W03
 BYTE   W03
 BYTE   W03
 BYTE   W03
 BYTE   W03
 BYTE   W03
 BYTE   W03
 BYTE   W03
 BYTE   W03
 BYTE   W01
 BYTE   W01
 BYTE   W02
 BYTE   W01
 BYTE   W02
 BYTE   W01
 BYTE   W02
 BYTE   W01
 BYTE   W02
 BYTE   W01
 BYTE   W03
 BYTE   N92  An3  v092
 BYTE   W04
 BYTE   W04
 BYTE   W04
 BYTE   W04
 BYTE   W03
 BYTE   W04
 BYTE   W04
 BYTE   W17
// 023   ----------------------------------------
 BYTE   W01
 BYTE   W09
 BYTE   W18
 BYTE   W09
 BYTE   W09
 BYTE   W03
 BYTE   N22  Gs3  v088
 BYTE   W06
 BYTE   W09
 BYTE   W08
 BYTE   N23  An3  v100
 BYTE   W01
 BYTE   W09
 BYTE   W09
 BYTE   W05
// 024   ----------------------------------------
 BYTE   W02
 BYTE   TIE  An3  v080
 BYTE   W02
 BYTE   W09
 BYTE   W06
 BYTE   W06
 BYTE   W03
 BYTE   W06
 BYTE   W03
 BYTE   W06
 BYTE   W03
 BYTE   W03
 BYTE   W03
 BYTE   W03
 BYTE   W03
 BYTE   W03
 BYTE   W03
 BYTE   W03
 BYTE   W03
 BYTE   W03
 BYTE   W03
 BYTE   W03
 BYTE   W03
 BYTE   W03
 BYTE   W03
 BYTE   W03
 BYTE   W03
 BYTE   W02
// 025   ----------------------------------------
 BYTE   W01
 BYTE   W03
 BYTE   W03
 BYTE   W03
 BYTE   W03
 BYTE   W03
 BYTE   W03
 BYTE   W03
 BYTE   W02
 BYTE   EOT
 BYTE   W01
 BYTE   W03
 BYTE   W68
// 026   ----------------------------------------
 BYTE   W96
// 027   ----------------------------------------
 BYTE   W96
// 028   ----------------------------------------
 BYTE   W96
// 029   ----------------------------------------
 BYTE   W96
// 030   ----------------------------------------
 BYTE   W96
// 031   ----------------------------------------
 BYTE   W96
// 032   ----------------------------------------
 BYTE   W96
// 033   ----------------------------------------
 BYTE   W96
// 034   ----------------------------------------
 BYTE   W96
// 035   ----------------------------------------
 BYTE   W96
// 036   ----------------------------------------
 BYTE   W96
// 037   ----------------------------------------
 BYTE   W96
// 038   ----------------------------------------
 BYTE   W96
// 039   ----------------------------------------
 BYTE   W96
// 040   ----------------------------------------
 BYTE   W96
// 041   ----------------------------------------
 BYTE   W96
// 042   ----------------------------------------
 BYTE   W96
// 043   ----------------------------------------
 BYTE   W96
// 044   ----------------------------------------
 BYTE   W96
// 045   ----------------------------------------
 BYTE   W96
// 046   ----------------------------------------
 BYTE   W96
// 047   ----------------------------------------
 BYTE   W96
// 048   ----------------------------------------
 BYTE   W96
// 049   ----------------------------------------
 BYTE   W96
// 050   ----------------------------------------
 BYTE   W96
// 051   ----------------------------------------
 BYTE   W96
// 052   ----------------------------------------
 BYTE   W84
 BYTE   GoTo
  POIN2 Label_3_01802B6A
 BYTE   FINE

//**************** Track 5 (Midi-Chn.4) ****************//

FE12ThemeOfLoveSwiftSaturn_005:
// 000   ----------------------------------------
 BYTE   KEYSH   FE12ThemeOfLoveSwiftSaturn_key+0
Label_4_01802D1A:
 BYTE   VOICE   7
 BYTE   VOL   66*FE12ThemeOfLoveSwiftSaturn_mvl/mxv
 BYTE   PAN   c_v-43
 BYTE   W96
// 001   ----------------------------------------
 BYTE   W96
// 002   ----------------------------------------
 BYTE   W96
// 003   ----------------------------------------
 BYTE   W96
// 004   ----------------------------------------
 BYTE   W96
// 005   ----------------------------------------
 BYTE   W96
// 006   ----------------------------------------
 BYTE   W96
// 007   ----------------------------------------
 BYTE   W96
// 008   ----------------------------------------
 BYTE   W96
// 009   ----------------------------------------
 BYTE   W96
// 010   ----------------------------------------
 BYTE   W96
// 011   ----------------------------------------
 BYTE   W96
// 012   ----------------------------------------
 BYTE   W24
 BYTE   W02
 BYTE   W04
 BYTE   N23  Gs4  v072
 BYTE   W09
 BYTE   W14
 BYTE   W01
 BYTE   N24  An4  v068
 BYTE   W12
 BYTE   W12
 BYTE   N23  Gs4  v072
 BYTE   W01
 BYTE   W13
 BYTE   W04
// 013   ----------------------------------------
 BYTE   W05
 BYTE   N24  Fn4  v080
 BYTE   W05
 BYTE   W13
 BYTE   W07
 BYTE   Dn4  v076
 BYTE   W06
 BYTE   W14
 BYTE   W03
 BYTE   W02
 BYTE   N68  Cs4  v068
 BYTE   W01
 BYTE   W03
 BYTE   W03
 BYTE   W03
 BYTE   W03
 BYTE   W03
 BYTE   W03
 BYTE   W03
 BYTE   W03
 BYTE   W03
 BYTE   W03
 BYTE   W03
 BYTE   W03
 BYTE   W03
 BYTE   W01
// 014   ----------------------------------------
 BYTE   W02
 BYTE   W03
 BYTE   W03
 BYTE   W03
 BYTE   W03
 BYTE   W03
 BYTE   W03
 BYTE   W03
 BYTE   W03
 BYTE   W01
 BYTE   W03
 BYTE   N44  Bn4  v060
 BYTE   W09
 BYTE   W05
 BYTE   W06
 BYTE   W06
 BYTE   W06
 BYTE   W06
 BYTE   W06
 BYTE   W03
 BYTE   N24  An4  v072
 BYTE   W03
 BYTE   W06
 BYTE   W06
 BYTE   W04
// 015   ----------------------------------------
 BYTE   W02
 BYTE   W04
 BYTE   N92  Cs4  v076
 BYTE   W02
 BYTE   W06
 BYTE   W06
 BYTE   W06
 BYTE   W08
 BYTE   W05
 BYTE   W04
 BYTE   W04
 BYTE   W04
 BYTE   W05
 BYTE   W04
 BYTE   W04
 BYTE   W05
 BYTE   W04
 BYTE   W04
 BYTE   W05
 BYTE   W04
 BYTE   W04
 BYTE   W04
 BYTE   W02
// 016   ----------------------------------------
 BYTE   W03
 BYTE   W02
 BYTE   N23  Bn4  v072
 BYTE   W24
 BYTE   N24  An4  v068
 BYTE   W07
 BYTE   W17
 BYTE   N68  Cs4  v080
 BYTE   W03
 BYTE   W03
 BYTE   W03
 BYTE   W03
 BYTE   W03
 BYTE   W03
 BYTE   W03
 BYTE   W03
 BYTE   W03
 BYTE   W03
 BYTE   W03
 BYTE   W03
 BYTE   W03
 BYTE   W03
 BYTE   W01
// 017   ----------------------------------------
 BYTE   W02
 BYTE   W03
 BYTE   W10
 BYTE   W05
 BYTE   W04
 BYTE   W05
 BYTE   N48  Bn4  v076
 BYTE   W05
 BYTE   W05
 BYTE   W04
 BYTE   W05
 BYTE   W05
 BYTE   W04
 BYTE   W05
 BYTE   W05
 BYTE   W05
 BYTE   W04
 BYTE   W03
 BYTE   N24  An4
 BYTE   W02
 BYTE   W05
 BYTE   W05
 BYTE   W04
 BYTE   W01
// 018   ----------------------------------------
 BYTE   W04
 BYTE   W04
 BYTE   N44  Cs5  v060
 BYTE   W01
 BYTE   W05
 BYTE   W04
 BYTE   W05
 BYTE   W11
 BYTE   W07
 BYTE   W03
 BYTE   W07
 BYTE   W03
 BYTE   N12  Dn5  v068
 BYTE   W04
 BYTE   W04
 BYTE   W04
 BYTE   N14  Cs5  v080
 BYTE   W03
 BYTE   W03
 BYTE   W07
 BYTE   W02
 BYTE   N66  Bn4  v060
 BYTE   W01
 BYTE   W04
 BYTE   W03
 BYTE   W04
 BYTE   W03
// 019   ----------------------------------------
 BYTE   W04
 BYTE   W03
 BYTE   W04
 BYTE   W03
 BYTE   W04
 BYTE   W03
 BYTE   W04
 BYTE   W03
 BYTE   W04
 BYTE   W03
 BYTE   W04
 BYTE   W03
 BYTE   W04
 BYTE   W01
 BYTE   W01
 BYTE   W08
 BYTE   N68  Bn4  v084
 BYTE   W04
 BYTE   W08
 BYTE   W08
 BYTE   W07
 BYTE   W04
 BYTE   W04
 BYTE   W04
 BYTE   W01
// 020   ----------------------------------------
 BYTE   W03
 BYTE   W04
 BYTE   W04
 BYTE   W03
 BYTE   W04
 BYTE   W04
 BYTE   W04
 BYTE   W03
 BYTE   N60  Fs4  v080
 BYTE   W13
 BYTE   W07
 BYTE   W08
 BYTE   W08
 BYTE   W08
 BYTE   W07
 BYTE   W08
 BYTE   W08
// 021   ----------------------------------------
 BYTE   N07  Fs4  v100
 BYTE   W08
 BYTE   N23  En4  v092
 BYTE   W01
 BYTE   W05
 BYTE   W05
 BYTE   W04
 BYTE   W05
 BYTE   W03
 BYTE   Ds4  v096
 BYTE   W02
 BYTE   W05
 BYTE   W04
 BYTE   W05
 BYTE   W05
 BYTE   W02
 BYTE   N24  En4  v100
 BYTE   W03
 BYTE   W04
 BYTE   W05
 BYTE   W05
 BYTE   W08
 BYTE   N56  An4  v080
 BYTE   W01
 BYTE   W03
 BYTE   W06
 BYTE   W03
 BYTE   W03
 BYTE   W01
// 022   ----------------------------------------
 BYTE   W02
 BYTE   W03
 BYTE   W03
 BYTE   W03
 BYTE   W03
 BYTE   W03
 BYTE   W03
 BYTE   W03
 BYTE   W03
 BYTE   W03
 BYTE   W03
 BYTE   W03
 BYTE   W01
 BYTE   W01
 BYTE   W02
 BYTE   W01
 BYTE   W02
 BYTE   W01
 BYTE   W02
 BYTE   W01
 BYTE   W02
 BYTE   W01
 BYTE   W07
 BYTE   W02
 BYTE   N92  An3  v092
 BYTE   W02
 BYTE   W04
 BYTE   W04
 BYTE   W03
 BYTE   W04
 BYTE   W04
 BYTE   W17
// 023   ----------------------------------------
 BYTE   W01
 BYTE   W09
 BYTE   W18
 BYTE   W09
 BYTE   W09
 BYTE   W09
 BYTE   N22  Gs3  v088
 BYTE   W09
 BYTE   W09
 BYTE   W05
 BYTE   N23  An3  v100
 BYTE   W04
 BYTE   W09
 BYTE   W05
// 024   ----------------------------------------
 BYTE   W04
 BYTE   W04
 BYTE   TIE  An3  v080
 BYTE   W02
 BYTE   W06
 BYTE   W06
 BYTE   W03
 BYTE   W06
 BYTE   W03
 BYTE   W03
 BYTE   W06
 BYTE   W03
 BYTE   W03
 BYTE   W03
 BYTE   W03
 BYTE   W03
 BYTE   W03
 BYTE   W03
 BYTE   W03
 BYTE   W03
 BYTE   W03
 BYTE   W03
 BYTE   W03
 BYTE   W03
 BYTE   W03
 BYTE   W03
 BYTE   W03
 BYTE   W03
 BYTE   W02
// 025   ----------------------------------------
 BYTE   W01
 BYTE   W03
 BYTE   W03
 BYTE   W03
 BYTE   W03
 BYTE   W03
 BYTE   W03
 BYTE   W03
 BYTE   W02
 BYTE   EOT
 BYTE   W01
 BYTE   W68
 BYTE   W03
// 026   ----------------------------------------
 BYTE   W96
// 027   ----------------------------------------
 BYTE   W96
// 028   ----------------------------------------
 BYTE   W96
// 029   ----------------------------------------
 BYTE   W96
// 030   ----------------------------------------
 BYTE   W96
// 031   ----------------------------------------
 BYTE   W96
// 032   ----------------------------------------
 BYTE   W96
// 033   ----------------------------------------
 BYTE   W96
// 034   ----------------------------------------
 BYTE   W96
// 035   ----------------------------------------
 BYTE   W96
// 036   ----------------------------------------
 BYTE   W96
// 037   ----------------------------------------
 BYTE   W96
// 038   ----------------------------------------
 BYTE   W96
// 039   ----------------------------------------
 BYTE   W96
// 040   ----------------------------------------
 BYTE   W96
// 041   ----------------------------------------
 BYTE   W96
// 042   ----------------------------------------
 BYTE   W96
// 043   ----------------------------------------
 BYTE   W96
// 044   ----------------------------------------
 BYTE   W96
// 045   ----------------------------------------
 BYTE   W96
// 046   ----------------------------------------
 BYTE   W96
// 047   ----------------------------------------
 BYTE   W96
// 048   ----------------------------------------
 BYTE   W96
// 049   ----------------------------------------
 BYTE   W96
// 050   ----------------------------------------
 BYTE   W96
// 051   ----------------------------------------
 BYTE   W96
// 052   ----------------------------------------
 BYTE   W84
 BYTE   GoTo
  POIN2 Label_4_01802D1A
 BYTE   FINE

//**************** Track 6 (Midi-Chn.5) ****************//

FE12ThemeOfLoveSwiftSaturn_006:
// 000   ----------------------------------------
 BYTE   KEYSH   FE12ThemeOfLoveSwiftSaturn_key+0
Label_5_01802ECA:
 BYTE   VOICE   40
 BYTE   VOL   80*FE12ThemeOfLoveSwiftSaturn_mvl/mxv
 BYTE   PAN   c_v-9
 BYTE   W96
// 001   ----------------------------------------
 BYTE   W40
 BYTE   W03
 BYTE   W03
 BYTE   N76  Cs4  v112
 BYTE   W03
 BYTE   W03
 BYTE   W01
 BYTE   W06
 BYTE   W03
 BYTE   W06
 BYTE   W03
 BYTE   W03
 BYTE   W03
 BYTE   W03
 BYTE   W03
 BYTE   W03
 BYTE   W03
 BYTE   W03
 BYTE   W03
 BYTE   W01
// 002   ----------------------------------------
 BYTE   W02
 BYTE   W03
 BYTE   W03
 BYTE   W03
 BYTE   W03
 BYTE   W03
 BYTE   W03
 BYTE   W03
 BYTE   W03
 BYTE   W03
 BYTE   W08
 BYTE   W03
 BYTE   W04
 BYTE   W04
 BYTE   W04
 BYTE   W03
 BYTE   W04
 BYTE   W04
 BYTE   W04
 BYTE   W01
 BYTE   W02
 BYTE   W01
 BYTE   N24  An4  v076
 BYTE   W02
 BYTE   W03
 BYTE   W03
 BYTE   W03
 BYTE   W03
 BYTE   W03
 BYTE   W03
 BYTE   W05
// 003   ----------------------------------------
 BYTE   W01
 BYTE   W20
 BYTE   W10
 BYTE   W10
 BYTE   W10
 BYTE   W10
 BYTE   W10
 BYTE   W09
 BYTE   W10
 BYTE   W02
 BYTE   W01
 BYTE   W02
 BYTE   N28  Bn4  v088
 BYTE   W01
// 004   ----------------------------------------
 BYTE   W02
 BYTE   W01
 BYTE   W03
 BYTE   W01
 BYTE   W02
 BYTE   W01
 BYTE   W02
 BYTE   W01
 BYTE   W02
 BYTE   W01
 BYTE   W02
 BYTE   W01
 BYTE   W02
 BYTE   W01
 BYTE   W02
 BYTE   W01
 BYTE   W02
 BYTE   W01
 BYTE   W01
 BYTE   W02
 BYTE   W01
 BYTE   W02
 BYTE   W01
 BYTE   W02
 BYTE   W01
 BYTE   W02
 BYTE   W01
 BYTE   W02
 BYTE   W01
 BYTE   W02
 BYTE   W01
 BYTE   N76  Cs4  v104
 BYTE   W01
 BYTE   W03
 BYTE   W03
 BYTE   W03
 BYTE   W03
 BYTE   W03
 BYTE   W03
 BYTE   W03
 BYTE   W03
 BYTE   W03
 BYTE   W03
 BYTE   W03
 BYTE   W03
 BYTE   W03
 BYTE   W03
 BYTE   W03
 BYTE   W03
// 005   ----------------------------------------
 BYTE   W03
 BYTE   W03
 BYTE   W03
 BYTE   W03
 BYTE   W03
 BYTE   W03
 BYTE   W03
 BYTE   W03
 BYTE   W03
 BYTE   W02
 BYTE   W03
 BYTE   W03
 BYTE   W03
 BYTE   W03
 BYTE   W03
 BYTE   W03
 BYTE   W03
 BYTE   W03
 BYTE   W03
 BYTE   W03
 BYTE   W03
 BYTE   W03
 BYTE   W03
 BYTE   W02
 BYTE   N28  An4  v084
 BYTE   W02
 BYTE   W03
 BYTE   W03
 BYTE   W03
 BYTE   W03
 BYTE   W03
 BYTE   W03
 BYTE   W03
 BYTE   W03
// 006   ----------------------------------------
 BYTE   W03
 BYTE   W03
 BYTE   W12
 BYTE   W09
 BYTE   W06
 BYTE   W09
 BYTE   W06
 BYTE   W06
 BYTE   W06
 BYTE   W06
 BYTE   W03
 BYTE   N72  Bn3  v100
 BYTE   W06
 BYTE   W03
 BYTE   W03
 BYTE   W06
 BYTE   W03
 BYTE   W03
 BYTE   W03
// 007   ----------------------------------------
 BYTE   W03
 BYTE   W03
 BYTE   W03
 BYTE   W03
 BYTE   W03
 BYTE   W03
 BYTE   W03
 BYTE   W03
 BYTE   W03
 BYTE   W03
 BYTE   W03
 BYTE   W03
 BYTE   W03
 BYTE   W03
 BYTE   W03
 BYTE   W03
 BYTE   W01
 BYTE   W01
 BYTE   W44
 BYTE   W02
// 008   ----------------------------------------
 BYTE   W21
 BYTE   W01
 BYTE   N76  Fs4  v092
 BYTE   W02
 BYTE   W03
 BYTE   W03
 BYTE   W03
 BYTE   W03
 BYTE   W03
 BYTE   W03
 BYTE   W03
 BYTE   W03
 BYTE   W03
 BYTE   W03
 BYTE   W03
 BYTE   W03
 BYTE   W03
 BYTE   W03
 BYTE   W03
 BYTE   W03
 BYTE   W03
 BYTE   W03
 BYTE   W03
 BYTE   W03
 BYTE   W03
 BYTE   W03
 BYTE   W03
 BYTE   W03
// 009   ----------------------------------------
 BYTE   W03
 BYTE   W18
 BYTE   W12
 BYTE   W13
 BYTE   W12
 BYTE   W06
 BYTE   W07
 BYTE   N68  An3  v080
 BYTE   W06
 BYTE   W06
 BYTE   W06
 BYTE   W06
 BYTE   W01
// 010   ----------------------------------------
 BYTE   W05
 BYTE   W06
 BYTE   W06
 BYTE   W07
 BYTE   W06
 BYTE   W06
 BYTE   W06
 BYTE   W06
 BYTE   W08
 BYTE   W05
 BYTE   W04
 BYTE   W04
 BYTE   W04
 BYTE   W04
 BYTE   W04
 BYTE   W04
 BYTE   W04
 BYTE   W04
 BYTE   W03
// 011   ----------------------------------------
 BYTE   W02
 BYTE   W04
 BYTE   W04
 BYTE   W04
 BYTE   W04
 BYTE   W04
 BYTE   W04
 BYTE   W04
 BYTE   W05
 BYTE   W04
 BYTE   W04
 BYTE   W04
 BYTE   W01
 BYTE   N24  Gs3  v096
 BYTE   W23
 BYTE   W12
 BYTE   W11
 BYTE   TIE  Gs3  v104
 BYTE   W02
// 012   ----------------------------------------
 BYTE   W09
 BYTE   W06
 BYTE   W06
 BYTE   W06
 BYTE   W03
 BYTE   W06
 BYTE   W06
 BYTE   W03
 BYTE   W06
 BYTE   W03
 BYTE   W03
 BYTE   W03
 BYTE   W06
 BYTE   W03
 BYTE   W03
 BYTE   W03
 BYTE   W03
 BYTE   W03
 BYTE   W03
 BYTE   W03
 BYTE   W03
 BYTE   W03
 BYTE   W03
// 013   ----------------------------------------
 BYTE   W03
 BYTE   W03
 BYTE   W03
 BYTE   W03
 BYTE   W03
 BYTE   W03
 BYTE   W03
 BYTE   W03
 BYTE   W03
 BYTE   W03
 BYTE   W03
 BYTE   W03
 BYTE   W03
 BYTE   W03
 BYTE   W03
 BYTE   W03
 BYTE   W02
 BYTE   W01
 BYTE   EOT
 BYTE   W01
 BYTE   W01
 BYTE   W02
 BYTE   W01
 BYTE   W02
 BYTE   W01
 BYTE   W02
 BYTE   W01
 BYTE   W02
 BYTE   W01
 BYTE   W02
 BYTE   W01
 BYTE   W02
 BYTE   W01
 BYTE   N24  An2  v100
 BYTE   W01
 BYTE   W24
// 014   ----------------------------------------
 BYTE   Bn2  v104
 BYTE   W24
 BYTE   N23  Cs3  v108
 BYTE   W22
 BYTE   N24  Dn3  v104
 BYTE   W04
 BYTE   W20
 BYTE   En3
 BYTE   W18
 BYTE   W06
 BYTE   Gs3  v092
 BYTE   W02
// 015   ----------------------------------------
 BYTE   W23
 BYTE   An3  v100
 BYTE   W06
 BYTE   W18
 BYTE   Gs3  v104
 BYTE   W19
 BYTE   W04
 BYTE   En4  v088
 BYTE   W24
 BYTE   W01
 BYTE   Dn4  v104
 BYTE   W01
// 016   ----------------------------------------
 BYTE   W08
 BYTE   W16
 BYTE   N23  Cs4  v076
 BYTE   W21
 BYTE   W01
 BYTE   N24  Bn3  v100
 BYTE   W24
 BYTE   W01
 BYTE   An3  v108
 BYTE   W11
 BYTE   W12
 BYTE   Bn3  v104
 BYTE   W02
// 017   ----------------------------------------
 BYTE   W22
 BYTE   Cs4  v096
 BYTE   W02
 BYTE   W24
 BYTE   N23  Dn4  v104
 BYTE   W13
 BYTE   W10
 BYTE   N24  En4  v096
 BYTE   W24
 BYTE   W01
// 018   ----------------------------------------
 BYTE   TIE  Fs4  v092
 BYTE   W02
 BYTE   W02
 BYTE   W01
 BYTE   W02
 BYTE   W01
 BYTE   W02
 BYTE   W01
 BYTE   W01
 BYTE   W11
 BYTE   W05
 BYTE   W06
 BYTE   W05
 BYTE   W06
 BYTE   W05
 BYTE   W06
 BYTE   W05
 BYTE   W06
 BYTE   W09
 BYTE   W06
 BYTE   W06
 BYTE   W06
 BYTE   W02
// 019   ----------------------------------------
 BYTE   W01
 BYTE   W03
 BYTE   W03
 BYTE   W03
 BYTE   W03
 BYTE   W03
 BYTE   W03
 BYTE   W03
 BYTE   W03
 BYTE   W03
 BYTE   W03
 BYTE   W03
 BYTE   W03
 BYTE   W03
 BYTE   W03
 BYTE   W03
 BYTE   W03
 BYTE   W03
 BYTE   W01
 BYTE   W02
 BYTE   W01
 BYTE   W02
 BYTE   W01
 BYTE   W02
 BYTE   W01
 BYTE   W02
 BYTE   W01
 BYTE   EOT
 BYTE   W02
 BYTE   W01
 BYTE   W02
 BYTE   W01
 BYTE   N28  Fs4  v100
 BYTE   W03
 BYTE   W03
 BYTE   W03
 BYTE   W03
 BYTE   W03
 BYTE   W03
 BYTE   W03
 BYTE   W03
 BYTE   W01
// 020   ----------------------------------------
 BYTE   W02
 BYTE   W03
 BYTE   W04
 BYTE   W03
 BYTE   W03
 BYTE   W03
 BYTE   W03
 BYTE   W02
 BYTE   N24  An4  v076
 BYTE   W01
 BYTE   W03
 BYTE   W03
 BYTE   W03
 BYTE   W03
 BYTE   W03
 BYTE   W03
 BYTE   W03
 BYTE   W03
 BYTE   W03
 BYTE   W03
 BYTE   W03
 BYTE   W03
 BYTE   W03
 BYTE   W03
 BYTE   W03
 BYTE   W02
 BYTE   N28  An4  v084
 BYTE   W01
 BYTE   W03
 BYTE   W03
 BYTE   W03
 BYTE   W03
 BYTE   W03
 BYTE   W03
 BYTE   W03
 BYTE   W03
// 021   ----------------------------------------
 BYTE   W03
 BYTE   W03
 BYTE   W01
 BYTE   W03
 BYTE   W03
 BYTE   W03
 BYTE   W03
 BYTE   W03
 BYTE   An4  v080
 BYTE   W02
 BYTE   W08
 BYTE   W08
 BYTE   W08
 BYTE   W03
 BYTE   W03
 BYTE   W03
 BYTE   W03
 BYTE   W03
 BYTE   W03
 BYTE   W03
 BYTE   W03
 BYTE   N24  An4  v072
 BYTE   W03
 BYTE   W03
 BYTE   W02
 BYTE   W05
 BYTE   W05
 BYTE   W05
 BYTE   W01
// 022   ----------------------------------------
 BYTE   W04
 BYTE   W03
 BYTE   W03
 BYTE   W03
 BYTE   W03
 BYTE   W03
 BYTE   W03
 BYTE   Dn4  v084
 BYTE   W03
 BYTE   W03
 BYTE   W03
 BYTE   W03
 BYTE   W03
 BYTE   W03
 BYTE   W03
 BYTE   W03
 BYTE   W03
 BYTE   W09
 BYTE   W06
 BYTE   W06
 BYTE   W03
 BYTE   W06
 BYTE   W03
 BYTE   W03
 BYTE   W03
 BYTE   W03
 BYTE   W03
 BYTE   W02
// 023   ----------------------------------------
 BYTE   W01
 BYTE   W03
 BYTE   W03
 BYTE   W03
 BYTE   W03
 BYTE   W03
 BYTE   W03
 BYTE   W02
 BYTE   W02
 BYTE   N76  Bn3  v100
 BYTE   W72
 BYTE   W01
// 024   ----------------------------------------
 BYTE   W11
 BYTE   W09
 BYTE   W09
 BYTE   W03
 BYTE   W06
 BYTE   W03
 BYTE   W06
 BYTE   W03
 BYTE   W03
 BYTE   W03
 BYTE   W03
 BYTE   W03
 BYTE   W03
 BYTE   W03
 BYTE   W03
 BYTE   W01
 BYTE   N72  Dn4  v124
 BYTE   W01
 BYTE   W06
 BYTE   W03
 BYTE   W03
 BYTE   W06
 BYTE   W03
 BYTE   W02
// 025   ----------------------------------------
 BYTE   W01
 BYTE   W03
 BYTE   W03
 BYTE   W03
 BYTE   W03
 BYTE   W03
 BYTE   W03
 BYTE   W03
 BYTE   W03
 BYTE   W03
 BYTE   W03
 BYTE   W03
 BYTE   W03
 BYTE   W03
 BYTE   W03
 BYTE   W03
 BYTE   W01
 BYTE   W02
 BYTE   W01
 BYTE   W02
 BYTE   W01
 BYTE   W02
 BYTE   W03
 BYTE   W03
 BYTE   W03
 BYTE   W03
 BYTE   W03
 BYTE   W03
 BYTE   W03
 BYTE   W03
 BYTE   W03
 BYTE   W03
 BYTE   W03
 BYTE   W03
 BYTE   W03
 BYTE   W02
// 026   ----------------------------------------
 BYTE   W01
 BYTE   W03
 BYTE   W03
 BYTE   W03
 BYTE   W03
 BYTE   W03
 BYTE   W03
 BYTE   W76
 BYTE   W01
// 027   ----------------------------------------
 BYTE   W96
// 028   ----------------------------------------
 BYTE   W96
// 029   ----------------------------------------
 BYTE   W96
// 030   ----------------------------------------
 BYTE   W96
// 031   ----------------------------------------
 BYTE   W96
// 032   ----------------------------------------
 BYTE   W96
// 033   ----------------------------------------
 BYTE   W96
// 034   ----------------------------------------
 BYTE   W96
// 035   ----------------------------------------
 BYTE   W96
// 036   ----------------------------------------
 BYTE   W96
// 037   ----------------------------------------
 BYTE   W96
// 038   ----------------------------------------
 BYTE   W96
// 039   ----------------------------------------
 BYTE   W96
// 040   ----------------------------------------
 BYTE   W96
// 041   ----------------------------------------
 BYTE   W96
// 042   ----------------------------------------
 BYTE   W96
// 043   ----------------------------------------
 BYTE   W96
// 044   ----------------------------------------
 BYTE   W96
// 045   ----------------------------------------
 BYTE   W96
// 046   ----------------------------------------
 BYTE   W96
// 047   ----------------------------------------
 BYTE   W96
// 048   ----------------------------------------
 BYTE   W96
// 049   ----------------------------------------
 BYTE   W96
// 050   ----------------------------------------
 BYTE   W96
// 051   ----------------------------------------
 BYTE   W96
// 052   ----------------------------------------
 BYTE   W84
 BYTE   GoTo
  POIN2 Label_5_01802ECA
 BYTE   FINE

//**************** Track 7 (Midi-Chn.6) ****************//

FE12ThemeOfLoveSwiftSaturn_007:
// 000   ----------------------------------------
 BYTE   KEYSH   FE12ThemeOfLoveSwiftSaturn_key+0
Label_6_01803192:
 BYTE   VOICE   40
 BYTE   VOL   72*FE12ThemeOfLoveSwiftSaturn_mvl/mxv
 BYTE   PAN   c_v+26
 BYTE   W96
// 001   ----------------------------------------
 BYTE   W44
 BYTE   W02
 BYTE   W03
 BYTE   W03
 BYTE   N72  Cs4  v096
 BYTE   W03
 BYTE   W03
 BYTE   W03
 BYTE   W03
 BYTE   W01
 BYTE   W03
 BYTE   W02
 BYTE   W01
 BYTE   W02
 BYTE   W01
 BYTE   W02
 BYTE   W03
 BYTE   W01
 BYTE   W02
 BYTE   W01
 BYTE   W02
 BYTE   W01
 BYTE   W02
 BYTE   W01
 BYTE   W02
 BYTE   W01
 BYTE   W02
 BYTE   W01
 BYTE   W01
// 002   ----------------------------------------
 BYTE   W01
 BYTE   W01
 BYTE   W02
 BYTE   W01
 BYTE   W02
 BYTE   W01
 BYTE   W02
 BYTE   W01
 BYTE   W02
 BYTE   W01
 BYTE   W02
 BYTE   W01
 BYTE   W02
 BYTE   W01
 BYTE   W02
 BYTE   W01
 BYTE   W02
 BYTE   W01
 BYTE   W02
 BYTE   W01
 BYTE   N44  Bn4  v060
 BYTE   W01
 BYTE   W01
 BYTE   W01
 BYTE   W01
 BYTE   W01
 BYTE   W01
 BYTE   W03
 BYTE   W03
 BYTE   W03
 BYTE   W03
 BYTE   W03
 BYTE   W03
 BYTE   W03
 BYTE   W03
 BYTE   W03
 BYTE   W03
 BYTE   W03
 BYTE   W03
 BYTE   W02
 BYTE   W04
 BYTE   N22  An4
 BYTE   W19
// 003   ----------------------------------------
 BYTE   W03
 BYTE   N90  Cs4  v072
 BYTE   W09
 BYTE   W03
 BYTE   W06
 BYTE   W03
 BYTE   W03
 BYTE   W03
 BYTE   W03
 BYTE   W03
 BYTE   W09
 BYTE   W06
 BYTE   W06
 BYTE   W03
 BYTE   W03
 BYTE   W06
 BYTE   W03
 BYTE   W03
 BYTE   W03
 BYTE   W03
 BYTE   W03
 BYTE   W03
 BYTE   W03
 BYTE   W03
 BYTE   W03
// 004   ----------------------------------------
 BYTE   W03
 BYTE   W02
 BYTE   N17  Bn4  v056
 BYTE   W01
 BYTE   W23
 BYTE   N23  An4
 BYTE   W24
 BYTE   N72  Cs4  v088
 BYTE   W01
 BYTE   W03
 BYTE   W03
 BYTE   W01
 BYTE   W02
 BYTE   W01
 BYTE   W02
 BYTE   W01
 BYTE   W02
 BYTE   W01
 BYTE   W12
 BYTE   W06
 BYTE   W06
 BYTE   W02
// 005   ----------------------------------------
 BYTE   W04
 BYTE   W03
 BYTE   W03
 BYTE   W03
 BYTE   W03
 BYTE   W03
 BYTE   W03
 BYTE   W03
 BYTE   W03
 BYTE   W02
 BYTE   N36  Bn4  v060
 BYTE   W01
 BYTE   W04
 BYTE   W04
 BYTE   W05
 BYTE   W04
 BYTE   W04
 BYTE   W04
 BYTE   W04
 BYTE   W09
 BYTE   W07
 BYTE   N24  An4  v068
 BYTE   W01
 BYTE   W12
 BYTE   W06
 BYTE   W01
// 006   ----------------------------------------
 BYTE   W06
 BYTE   N68  Cs4  v088
 BYTE   W03
 BYTE   W09
 BYTE   W06
 BYTE   W06
 BYTE   W07
 BYTE   W06
 BYTE   W06
 BYTE   W03
 BYTE   W06
 BYTE   W03
 BYTE   W07
 BYTE   W03
 BYTE   W03
 BYTE   W01
 BYTE   Bn3  v092
 BYTE   W02
 BYTE   W06
 BYTE   W03
 BYTE   W03
 BYTE   W03
 BYTE   W03
 BYTE   W01
// 007   ----------------------------------------
 BYTE   W03
 BYTE   W03
 BYTE   W03
 BYTE   W03
 BYTE   W03
 BYTE   W03
 BYTE   W03
 BYTE   W03
 BYTE   W03
 BYTE   W03
 BYTE   W04
 BYTE   W03
 BYTE   W03
 BYTE   W03
 BYTE   W03
 BYTE   W03
 BYTE   W03
 BYTE   Bn3  v100
 BYTE   W24
 BYTE   W01
 BYTE   W12
 BYTE   W07
// 008   ----------------------------------------
 BYTE   W06
 BYTE   W12
 BYTE   W10
 BYTE   Fs4  v080
 BYTE   W03
 BYTE   W06
 BYTE   W12
 BYTE   W06
 BYTE   W06
 BYTE   W07
 BYTE   W06
 BYTE   W06
 BYTE   W06
 BYTE   W06
 BYTE   W04
// 009   ----------------------------------------
 BYTE   W03
 BYTE   W01
 BYTE   N72  En4
 BYTE   W05
 BYTE   W18
 BYTE   W13
 BYTE   W12
 BYTE   W12
 BYTE   W06
 BYTE   W07
 BYTE   N68  An3  v076
 BYTE   W06
 BYTE   W06
 BYTE   W06
 BYTE   W01
// 010   ----------------------------------------
 BYTE   W05
 BYTE   W06
 BYTE   W06
 BYTE   W06
 BYTE   W07
 BYTE   W06
 BYTE   W06
 BYTE   W06
 BYTE   W06
 BYTE   W08
 BYTE   W05
 BYTE   W04
 BYTE   W04
 BYTE   W04
 BYTE   W04
 BYTE   W04
 BYTE   W04
 BYTE   W04
 BYTE   W01
// 011   ----------------------------------------
 BYTE   W04
 BYTE   W04
 BYTE   W04
 BYTE   W04
 BYTE   W04
 BYTE   W04
 BYTE   W04
 BYTE   W04
 BYTE   W04
 BYTE   W05
 BYTE   W04
 BYTE   W04
 BYTE   W04
 BYTE   W24
 BYTE   W12
 BYTE   W07
// 012   ----------------------------------------
 BYTE   W06
 BYTE   W09
 BYTE   W06
 BYTE   W06
 BYTE   W06
 BYTE   W03
 BYTE   W06
 BYTE   W06
 BYTE   W03
 BYTE   W06
 BYTE   W03
 BYTE   W03
 BYTE   W03
 BYTE   W06
 BYTE   W03
 BYTE   W03
 BYTE   W03
 BYTE   W03
 BYTE   W03
 BYTE   W03
 BYTE   W03
 BYTE   W03
// 013   ----------------------------------------
 BYTE   W03
 BYTE   W03
 BYTE   W03
 BYTE   W03
 BYTE   W03
 BYTE   W03
 BYTE   W03
 BYTE   W03
 BYTE   W03
 BYTE   W03
 BYTE   W03
 BYTE   W03
 BYTE   W03
 BYTE   W03
 BYTE   W03
 BYTE   W03
 BYTE   W03
 BYTE   W03
 BYTE   W02
 BYTE   W02
 BYTE   W01
 BYTE   W02
 BYTE   W01
 BYTE   W02
 BYTE   W01
 BYTE   W02
 BYTE   W01
 BYTE   W02
 BYTE   W01
 BYTE   W02
 BYTE   W01
 BYTE   W02
 BYTE   W01
 BYTE   W01
 BYTE   W18
// 014   ----------------------------------------
 BYTE   W56
 BYTE   W01
 BYTE   W36
 BYTE   W01
 BYTE   W02
// 015   ----------------------------------------
 BYTE   W32
 BYTE   W03
 BYTE   W36
 BYTE   W01
 BYTE   W24
// 016   ----------------------------------------
 BYTE   W14
 BYTE   W36
 BYTE   W01
 BYTE   W36
 BYTE   W01
 BYTE   W08
// 017   ----------------------------------------
 BYTE   W30
 BYTE   W36
 BYTE   W01
 BYTE   W28
 BYTE   W01
// 018   ----------------------------------------
 BYTE   W08
 BYTE   W02
 BYTE   W01
 BYTE   W02
 BYTE   W01
 BYTE   W02
 BYTE   W01
 BYTE   W01
 BYTE   W11
 BYTE   W05
 BYTE   W06
 BYTE   W05
 BYTE   W06
 BYTE   W05
 BYTE   W06
 BYTE   W05
 BYTE   W06
 BYTE   W09
 BYTE   W06
 BYTE   W06
 BYTE   W02
// 019   ----------------------------------------
 BYTE   W04
 BYTE   W03
 BYTE   W03
 BYTE   W03
 BYTE   W03
 BYTE   W03
 BYTE   W03
 BYTE   W03
 BYTE   W03
 BYTE   W03
 BYTE   W03
 BYTE   W03
 BYTE   W03
 BYTE   W03
 BYTE   W03
 BYTE   W03
 BYTE   W03
 BYTE   W03
 BYTE   W03
 BYTE   W01
 BYTE   W02
 BYTE   W01
 BYTE   W02
 BYTE   W01
 BYTE   W02
 BYTE   W01
 BYTE   W02
 BYTE   W01
 BYTE   W02
 BYTE   W01
 BYTE   W02
 BYTE   W01
 BYTE   W12
 BYTE   W05
 BYTE   W02
// 020   ----------------------------------------
 BYTE   W04
 BYTE   W06
 BYTE   W06
 BYTE   W06
 BYTE   W05
 BYTE   W06
 BYTE   W06
 BYTE   W06
 BYTE   W05
 BYTE   W06
 BYTE   W06
 BYTE   W06
 BYTE   W05
 BYTE   W06
 BYTE   W06
 BYTE   W06
 BYTE   W05
// 021   ----------------------------------------
 BYTE   W12
 BYTE   W05
 BYTE   W06
 BYTE   W05
 BYTE   W06
 BYTE   W05
 BYTE   W06
 BYTE   W05
 BYTE   W06
 BYTE   W05
 BYTE   W06
 BYTE   W05
 BYTE   W06
 BYTE   W18
// 022   ----------------------------------------
 BYTE   W54
 BYTE   W01
 BYTE   W17
 BYTE   W12
 BYTE   W05
 BYTE   W06
 BYTE   W01
// 023   ----------------------------------------
 BYTE   W10
 BYTE   W06
 BYTE   W05
 BYTE   W06
 BYTE   W68
 BYTE   W01
// 024   ----------------------------------------
 BYTE   W05
 BYTE   W12
 BYTE   W09
 BYTE   W09
 BYTE   W03
 BYTE   W06
 BYTE   W03
 BYTE   W06
 BYTE   W03
 BYTE   W03
 BYTE   W03
 BYTE   W03
 BYTE   W03
 BYTE   W03
 BYTE   W03
 BYTE   W03
 BYTE   W02
 BYTE   W06
 BYTE   W06
 BYTE   W05
// 025   ----------------------------------------
 BYTE   W01
 BYTE   W03
 BYTE   W03
 BYTE   W03
 BYTE   W03
 BYTE   W03
 BYTE   W03
 BYTE   W03
 BYTE   W03
 BYTE   W03
 BYTE   W03
 BYTE   W03
 BYTE   W03
 BYTE   W03
 BYTE   W03
 BYTE   W03
 BYTE   W01
 BYTE   W02
 BYTE   W01
 BYTE   W02
 BYTE   N72  Cs4  v096
 BYTE   W01
 BYTE   W02
 BYTE   W01
 BYTE   W02
 BYTE   W01
 BYTE   W02
 BYTE   W03
 BYTE   W03
 BYTE   W03
 BYTE   W03
 BYTE   W03
 BYTE   W03
 BYTE   W03
 BYTE   W03
 BYTE   W03
 BYTE   W03
 BYTE   W03
 BYTE   W02
// 026   ----------------------------------------
 BYTE   W01
 BYTE   W03
 BYTE   W03
 BYTE   W03
 BYTE   W03
 BYTE   W03
 BYTE   W03
 BYTE   W76
 BYTE   W01
// 027   ----------------------------------------
 BYTE   W96
// 028   ----------------------------------------
 BYTE   W96
// 029   ----------------------------------------
 BYTE   W96
// 030   ----------------------------------------
 BYTE   W96
// 031   ----------------------------------------
 BYTE   W96
// 032   ----------------------------------------
 BYTE   W96
// 033   ----------------------------------------
 BYTE   W96
// 034   ----------------------------------------
 BYTE   W96
// 035   ----------------------------------------
 BYTE   W96
// 036   ----------------------------------------
 BYTE   W96
// 037   ----------------------------------------
 BYTE   W96
// 038   ----------------------------------------
 BYTE   W96
// 039   ----------------------------------------
 BYTE   W96
// 040   ----------------------------------------
 BYTE   W96
// 041   ----------------------------------------
 BYTE   W96
// 042   ----------------------------------------
 BYTE   W96
// 043   ----------------------------------------
 BYTE   W96
// 044   ----------------------------------------
 BYTE   W96
// 045   ----------------------------------------
 BYTE   W96
// 046   ----------------------------------------
 BYTE   W96
// 047   ----------------------------------------
 BYTE   W96
// 048   ----------------------------------------
 BYTE   W96
// 049   ----------------------------------------
 BYTE   W96
// 050   ----------------------------------------
 BYTE   W96
// 051   ----------------------------------------
 BYTE   W96
// 052   ----------------------------------------
 BYTE   W84
 BYTE   GoTo
  POIN2 Label_6_01803192
 BYTE   FINE

//**************** Track 8 (Midi-Chn.7) ****************//

FE12ThemeOfLoveSwiftSaturn_008:
// 000   ----------------------------------------
 BYTE   KEYSH   FE12ThemeOfLoveSwiftSaturn_key+0
Label_7_018033CE:
 BYTE   VOICE   19
 BYTE   VOL   59*FE12ThemeOfLoveSwiftSaturn_mvl/mxv
 BYTE   PAN   c_v+21
 BYTE   W96
// 001   ----------------------------------------
 BYTE   W68
 BYTE   W02
 BYTE   N23  Bn3  v088
 BYTE   W02
 BYTE   W01
 BYTE   W02
 BYTE   W01
 BYTE   W01
 BYTE   W03
 BYTE   W03
 BYTE   W03
 BYTE   W03
 BYTE   W03
 BYTE   W02
 BYTE   An3
 BYTE   W01
 BYTE   W01
// 002   ----------------------------------------
 BYTE   W02
 BYTE   W03
 BYTE   W03
 BYTE   W03
 BYTE   W03
 BYTE   W03
 BYTE   W03
 BYTE   W02
 BYTE   N22  Gs3  v084
 BYTE   W01
 BYTE   W03
 BYTE   W03
 BYTE   W03
 BYTE   W03
 BYTE   W03
 BYTE   W03
 BYTE   W03
 BYTE   W01
 BYTE   N24  Fs3  v088
 BYTE   W02
 BYTE   W03
 BYTE   W03
 BYTE   W03
 BYTE   W03
 BYTE   W03
 BYTE   W03
 BYTE   W03
 BYTE   W03
 BYTE   TIE  Gs3  v080
 BYTE   W01
 BYTE   W01
 BYTE   W02
 BYTE   W01
 BYTE   W01
 BYTE   W06
 BYTE   W04
 BYTE   W03
 BYTE   W03
 BYTE   W03
// 003   ----------------------------------------
 BYTE   W04
 BYTE   W03
 BYTE   W03
 BYTE   W03
 BYTE   W04
 BYTE   W03
 BYTE   W03
 BYTE   W03
 BYTE   W03
 BYTE   W03
 BYTE   W03
 BYTE   W03
 BYTE   W03
 BYTE   W03
 BYTE   W12
 BYTE   W13
 BYTE   W06
 BYTE   W13
 BYTE   W06
 BYTE   W02
// 004   ----------------------------------------
 BYTE   W04
 BYTE   W06
 BYTE   W07
 BYTE   W06
 BYTE   W06
 BYTE   W06
 BYTE   W07
 BYTE   W06
 BYTE   W06
 BYTE   W06
 BYTE   W07
 BYTE   W03
 BYTE   EOT
 BYTE   W01
 BYTE   N21  Fs3  v088
 BYTE   W02
 BYTE   W03
 BYTE   W03
 BYTE   W03
 BYTE   W03
 BYTE   W03
 BYTE   W03
 BYTE   W02
 BYTE   N72  Gs3  v096
 BYTE   W01
 BYTE   W02
// 005   ----------------------------------------
 BYTE   W01
 BYTE   W03
 BYTE   W03
 BYTE   W03
 BYTE   W03
 BYTE   W03
 BYTE   W01
 BYTE   W06
 BYTE   W03
 BYTE   W04
 BYTE   W03
 BYTE   W03
 BYTE   W03
 BYTE   W03
 BYTE   W03
 BYTE   W04
 BYTE   W03
 BYTE   W03
 BYTE   W03
 BYTE   W03
 BYTE   W03
 BYTE   W04
 BYTE   W03
 BYTE   W01
 BYTE   TIE  An3  v068
 BYTE   W14
 BYTE   W10
// 006   ----------------------------------------
 BYTE   W02
 BYTE   W09
 BYTE   W09
 BYTE   W09
 BYTE   W06
 BYTE   W06
 BYTE   W09
 BYTE   W03
 BYTE   W06
 BYTE   W06
 BYTE   W03
 BYTE   W06
 BYTE   W03
 BYTE   W03
 BYTE   W03
 BYTE   W03
 BYTE   W03
 BYTE   W03
 BYTE   W03
 BYTE   W01
// 007   ----------------------------------------
 BYTE   W02
 BYTE   W03
 BYTE   W03
 BYTE   W03
 BYTE   W03
 BYTE   W03
 BYTE   W03
 BYTE   W03
 BYTE   W03
 BYTE   W03
 BYTE   W03
 BYTE   W03
 BYTE   W03
 BYTE   W03
 BYTE   W03
 BYTE   W03
 BYTE   W02
 BYTE   W03
 BYTE   EOT
 BYTE   W11
 BYTE   W07
 BYTE   W01
 BYTE   N23  Fs3  v084
 BYTE   W01
 BYTE   W01
 BYTE   W17
 BYTE   W04
 BYTE   N24  Gs3  v096
 BYTE   W02
// 008   ----------------------------------------
 BYTE   W03
 BYTE   W08
 BYTE   W09
 BYTE   W02
 BYTE   N23  An3  v088
 BYTE   W07
 BYTE   W08
 BYTE   W09
 BYTE   Gs3  v092
 BYTE   W08
 BYTE   W09
 BYTE   W07
 BYTE   An3  v084
 BYTE   W02
 BYTE   W08
 BYTE   W09
 BYTE   W05
 BYTE   N24  Bn3  v088
 BYTE   W02
// 009   ----------------------------------------
 BYTE   W02
 BYTE   W08
 BYTE   W09
 BYTE   W04
 BYTE   N22  An3  v084
 BYTE   W05
 BYTE   W08
 BYTE   W09
 BYTE   W01
 BYTE   N23  Gs3
 BYTE   W08
 BYTE   W08
 BYTE   W08
 BYTE   N68  An3  v080
 BYTE   W01
 BYTE   W03
 BYTE   W03
 BYTE   W03
 BYTE   W03
 BYTE   W03
 BYTE   W03
 BYTE   W03
 BYTE   W03
 BYTE   W01
// 010   ----------------------------------------
 BYTE   W02
 BYTE   W03
 BYTE   W03
 BYTE   W03
 BYTE   W03
 BYTE   W03
 BYTE   W03
 BYTE   W03
 BYTE   W03
 BYTE   W03
 BYTE   W03
 BYTE   W03
 BYTE   W03
 BYTE   W03
 BYTE   W03
 BYTE   W01
 BYTE   TIE  Fs3  v100
 BYTE   W01
 BYTE   W03
 BYTE   W03
 BYTE   W03
 BYTE   W03
 BYTE   W03
 BYTE   W03
 BYTE   W03
 BYTE   W06
 BYTE   W06
 BYTE   W03
 BYTE   W03
 BYTE   W06
 BYTE   W03
 BYTE   W02
// 011   ----------------------------------------
 BYTE   W01
 BYTE   W06
 BYTE   W03
 BYTE   W03
 BYTE   W03
 BYTE   W06
 BYTE   W03
 BYTE   W03
 BYTE   W03
 BYTE   W03
 BYTE   W03
 BYTE   W03
 BYTE   W03
 BYTE   W03
 BYTE   W03
 BYTE   W03
 BYTE   W03
 BYTE   W03
 BYTE   W03
 BYTE   W03
 BYTE   W03
 BYTE   W03
 BYTE   W03
 BYTE   W03
 BYTE   W03
 BYTE   W03
 BYTE   W03
 BYTE   W03
 BYTE   W03
 BYTE   W03
 BYTE   W02
// 012   ----------------------------------------
 BYTE   W01
 BYTE   W03
 BYTE   W03
 BYTE   W03
 BYTE   W03
 BYTE   W03
 BYTE   W10
 BYTE   W06
 BYTE   W06
 BYTE   W06
 BYTE   W03
 BYTE   W06
 BYTE   W03
 BYTE   W03
 BYTE   W03
 BYTE   W03
 BYTE   W03
 BYTE   W01
 BYTE   EOT
 BYTE   W01
 BYTE   N76  Fn3  v088
 BYTE   W01
 BYTE   W03
 BYTE   W09
 BYTE   W09
 BYTE   W04
// 013   ----------------------------------------
 BYTE   W02
 BYTE   W03
 BYTE   W06
 BYTE   W03
 BYTE   W03
 BYTE   W03
 BYTE   W03
 BYTE   W03
 BYTE   W03
 BYTE   W03
 BYTE   W03
 BYTE   W03
 BYTE   W03
 BYTE   W03
 BYTE   W03
 BYTE   W03
 BYTE   W03
 BYTE   W03
 BYTE   W03
 BYTE   W03
 BYTE   W03
 BYTE   W01
 BYTE   W01
 BYTE   W01
 BYTE   W01
 BYTE   W01
 BYTE   N24  An2  v092
 BYTE   W01
 BYTE   W24
 BYTE   N23  Gs2  v088
 BYTE   W01
// 014   ----------------------------------------
 BYTE   W23
 BYTE   An2  v084
 BYTE   W23
 BYTE   Bn2  v092
 BYTE   W02
 BYTE   W22
 BYTE   N22  Cs3
 BYTE   W02
 BYTE   W21
 BYTE   N24  Bn2
 BYTE   W03
// 015   ----------------------------------------
 BYTE   W22
 BYTE   Fs3  v080
 BYTE   W03
 BYTE   W21
 BYTE   Fn3
 BYTE   W03
 BYTE   W22
 BYTE   N22  Cs4  v064
 BYTE   W02
 BYTE   W21
 BYTE   N23  Bn3  v092
 BYTE   W02
// 016   ----------------------------------------
 BYTE   W01
 BYTE   W20
 BYTE   An3  v088
 BYTE   W05
 BYTE   W19
 BYTE   N24  Gs3  v080
 BYTE   W05
 BYTE   W21
 BYTE   N22  Fs3  v084
 BYTE   W03
 BYTE   W19
 BYTE   N23  Gs3  v088
 BYTE   W03
// 017   ----------------------------------------
 BYTE   W03
 BYTE   W18
 BYTE   An3  v080
 BYTE   W06
 BYTE   W18
 BYTE   N24  Bn3
 BYTE   W06
 BYTE   W18
 BYTE   Cs4  v084
 BYTE   W06
 BYTE   W20
 BYTE   TIE  An3
 BYTE   W01
// 018   ----------------------------------------
 BYTE   W04
 BYTE   W18
 BYTE   W15
 BYTE   W12
 BYTE   W09
 BYTE   W09
 BYTE   W06
 BYTE   W06
 BYTE   W06
 BYTE   W06
 BYTE   W03
 BYTE   W02
// 019   ----------------------------------------
 BYTE   W01
 BYTE   W06
 BYTE   W03
 BYTE   W03
 BYTE   W03
 BYTE   W03
 BYTE   W03
 BYTE   W03
 BYTE   W03
 BYTE   W03
 BYTE   W03
 BYTE   W03
 BYTE   W03
 BYTE   W03
 BYTE   W03
 BYTE   W03
 BYTE   W03
 BYTE   EOT
 BYTE   W03
 BYTE   W40
 BYTE   W01
// 020   ----------------------------------------
 BYTE   W08
 BYTE   W01
 BYTE   W01
 BYTE   W01
 BYTE   W01
 BYTE   W01
 BYTE   W01
 BYTE   W01
 BYTE   W01
 BYTE   W01
 BYTE   W01
 BYTE   W01
 BYTE   W01
 BYTE   W02
 BYTE   N68  Bn3  v092
 BYTE   W01
 BYTE   W03
 BYTE   W03
 BYTE   W03
 BYTE   W03
 BYTE   W09
 BYTE   W05
 BYTE   W05
 BYTE   W05
 BYTE   W04
 BYTE   W05
 BYTE   W05
 BYTE   W05
 BYTE   W04
 BYTE   W05
 BYTE   W05
 BYTE   W02
 BYTE   En4  v096
 BYTE   W02
// 021   ----------------------------------------
 BYTE   W01
 BYTE   W04
 BYTE   W04
 BYTE   W05
 BYTE   W04
 BYTE   W04
 BYTE   W05
 BYTE   W04
 BYTE   W04
 BYTE   W05
 BYTE   W04
 BYTE   W04
 BYTE   W05
 BYTE   W04
 BYTE   W04
 BYTE   W05
 BYTE   W04
 BYTE   N24  Dn4  v084
 BYTE   W04
 BYTE   W05
 BYTE   W04
 BYTE   W04
 BYTE   W05
 BYTE   W02
 BYTE   N23  An3  v080
 BYTE   W02
// 022   ----------------------------------------
 BYTE   W04
 BYTE   W05
 BYTE   W04
 BYTE   W04
 BYTE   W05
 BYTE   Fn3
 BYTE   W04
 BYTE   W04
 BYTE   W05
 BYTE   W04
 BYTE   W04
 BYTE   W02
 BYTE   N68  En3
 BYTE   W12
 BYTE   W07
 BYTE   W08
 BYTE   W07
 BYTE   W07
 BYTE   W07
 BYTE   W03
// 023   ----------------------------------------
 BYTE   W04
 BYTE   W07
 BYTE   W07
 BYTE   W04
 BYTE   Dn3  v084
 BYTE   W03
 BYTE   W07
 BYTE   W07
 BYTE   W07
 BYTE   W07
 BYTE   W07
 BYTE   W07
 BYTE   W07
 BYTE   W07
 BYTE   W07
 BYTE   W06
 BYTE   Cs3  v076
 BYTE   W01
 BYTE   W01
// 024   ----------------------------------------
 BYTE   W14
 BYTE   W11
 BYTE   W11
 BYTE   W11
 BYTE   W07
 BYTE   W07
 BYTE   W08
 BYTE   N72  Bn2  v080
 BYTE   W03
 BYTE   W08
 BYTE   W03
 BYTE   W04
 BYTE   W04
 BYTE   W05
// 025   ----------------------------------------
 BYTE   W02
 BYTE   W04
 BYTE   W03
 BYTE   W04
 BYTE   W04
 BYTE   W03
 BYTE   W04
 BYTE   W04
 BYTE   W03
 BYTE   W04
 BYTE   W04
 BYTE   W03
 BYTE   W04
 BYTE   W01
 BYTE   W08
 BYTE   W04
 BYTE   W03
 BYTE   W04
 BYTE   W04
 BYTE   N23  Bn3  v088
 BYTE   W04
 BYTE   W03
 BYTE   W04
 BYTE   W04
 BYTE   W04
 BYTE   W03
 BYTE   W02
 BYTE   An3
 BYTE   W02
// 026   ----------------------------------------
 BYTE   W04
 BYTE   W04
 BYTE   W04
 BYTE   W03
 BYTE   W04
 BYTE   W76
 BYTE   W01
// 027   ----------------------------------------
 BYTE   W96
// 028   ----------------------------------------
 BYTE   W96
// 029   ----------------------------------------
 BYTE   W96
// 030   ----------------------------------------
 BYTE   W96
// 031   ----------------------------------------
 BYTE   W96
// 032   ----------------------------------------
 BYTE   W96
// 033   ----------------------------------------
 BYTE   W96
// 034   ----------------------------------------
 BYTE   W96
// 035   ----------------------------------------
 BYTE   W96
// 036   ----------------------------------------
 BYTE   W96
// 037   ----------------------------------------
 BYTE   W96
// 038   ----------------------------------------
 BYTE   W96
// 039   ----------------------------------------
 BYTE   W96
// 040   ----------------------------------------
 BYTE   W96
// 041   ----------------------------------------
 BYTE   W96
// 042   ----------------------------------------
 BYTE   W96
// 043   ----------------------------------------
 BYTE   W96
// 044   ----------------------------------------
 BYTE   W96
// 045   ----------------------------------------
 BYTE   W96
// 046   ----------------------------------------
 BYTE   W96
// 047   ----------------------------------------
 BYTE   W96
// 048   ----------------------------------------
 BYTE   W96
// 049   ----------------------------------------
 BYTE   W96
// 050   ----------------------------------------
 BYTE   W96
// 051   ----------------------------------------
 BYTE   W96
// 052   ----------------------------------------
 BYTE   W84
 BYTE   GoTo
  POIN2 Label_7_018033CE
 BYTE   FINE

//**************** Track 9 (Midi-Chn.8) ****************//

FE12ThemeOfLoveSwiftSaturn_009:
// 000   ----------------------------------------
 BYTE   KEYSH   FE12ThemeOfLoveSwiftSaturn_key+0
Label_8_0180367A:
 BYTE   VOICE   19
 BYTE   VOL   53*FE12ThemeOfLoveSwiftSaturn_mvl/mxv
 BYTE   PAN   c_v-34
 BYTE   W96
// 001   ----------------------------------------
 BYTE   W68
 BYTE   W02
 BYTE   W01
 BYTE   W02
 BYTE   W01
 BYTE   N23  Bn3  v088
 BYTE   W02
 BYTE   W03
 BYTE   W03
 BYTE   W03
 BYTE   W03
 BYTE   W03
 BYTE   W03
 BYTE   W02
// 002   ----------------------------------------
 BYTE   W01
 BYTE   W01
 BYTE   An3
 BYTE   W02
 BYTE   W03
 BYTE   W03
 BYTE   W03
 BYTE   W03
 BYTE   W03
 BYTE   W03
 BYTE   W03
 BYTE   W01
 BYTE   N22  Gs3  v084
 BYTE   W02
 BYTE   W03
 BYTE   W03
 BYTE   W03
 BYTE   W03
 BYTE   W03
 BYTE   W03
 BYTE   W03
 BYTE   N24  Fs3  v088
 BYTE   W03
 BYTE   W03
 BYTE   W03
 BYTE   W03
 BYTE   W03
 BYTE   W03
 BYTE   W03
 BYTE   W03
 BYTE   W02
 BYTE   TIE  Gs3  v080
 BYTE   W01
 BYTE   W01
 BYTE   W02
 BYTE   W01
 BYTE   W01
 BYTE   W03
 BYTE   W03
 BYTE   W03
 BYTE   W03
 BYTE   W03
// 003   ----------------------------------------
 BYTE   W03
 BYTE   W03
 BYTE   W03
 BYTE   W03
 BYTE   W01
 BYTE   W03
 BYTE   W03
 BYTE   W03
 BYTE   W03
 BYTE   W03
 BYTE   W03
 BYTE   W03
 BYTE   W03
 BYTE   W03
 BYTE   W03
 BYTE   W03
 BYTE   W03
 BYTE   W03
 BYTE   W03
 BYTE   W02
 BYTE   W15
 BYTE   W15
 BYTE   W08
 BYTE   W01
// 004   ----------------------------------------
 BYTE   W06
 BYTE   W15
 BYTE   W07
 BYTE   W08
 BYTE   W07
 BYTE   W08
 BYTE   W07
 BYTE   W07
 BYTE   W08
 BYTE   W01
 BYTE   EOT
 BYTE   W01
 BYTE   N21  Fs3  v088
 BYTE   W01
 BYTE   W03
 BYTE   W03
 BYTE   W03
 BYTE   W03
 BYTE   W03
 BYTE   W03
 BYTE   W02
// 005   ----------------------------------------
 BYTE   W01
 BYTE   N72  Gs3  v096
 BYTE   W03
 BYTE   W03
 BYTE   W03
 BYTE   W03
 BYTE   W03
 BYTE   W03
 BYTE   W02
 BYTE   W06
 BYTE   W03
 BYTE   W04
 BYTE   W03
 BYTE   W03
 BYTE   W03
 BYTE   W03
 BYTE   W03
 BYTE   W04
 BYTE   W03
 BYTE   W03
 BYTE   W03
 BYTE   W03
 BYTE   W03
 BYTE   W04
 BYTE   W03
 BYTE   W01
 BYTE   TIE  An3  v068
 BYTE   W14
 BYTE   W06
// 006   ----------------------------------------
 BYTE   W06
 BYTE   W09
 BYTE   W09
 BYTE   W09
 BYTE   W06
 BYTE   W06
 BYTE   W09
 BYTE   W03
 BYTE   W06
 BYTE   W06
 BYTE   W03
 BYTE   W06
 BYTE   W03
 BYTE   W03
 BYTE   W03
 BYTE   W03
 BYTE   W03
 BYTE   W03
// 007   ----------------------------------------
 BYTE   W03
 BYTE   W03
 BYTE   W03
 BYTE   W03
 BYTE   W03
 BYTE   W03
 BYTE   W03
 BYTE   W03
 BYTE   W03
 BYTE   W03
 BYTE   W03
 BYTE   W03
 BYTE   W03
 BYTE   W03
 BYTE   W03
 BYTE   W03
 BYTE   W03
 BYTE   W02
 BYTE   W03
 BYTE   EOT
 BYTE   W11
 BYTE   W07
 BYTE   W01
 BYTE   N23  Fs3  v084
 BYTE   W01
 BYTE   W01
 BYTE   W19
// 008   ----------------------------------------
 BYTE   W02
 BYTE   N24  Gs3  v096
 BYTE   W02
 BYTE   W12
 BYTE   W10
 BYTE   N23  An3  v088
 BYTE   W02
 BYTE   W12
 BYTE   W11
 BYTE   Gs3  v092
 BYTE   W01
 BYTE   W12
 BYTE   W10
 BYTE   An3  v084
 BYTE   W02
 BYTE   W12
 BYTE   W08
// 009   ----------------------------------------
 BYTE   W02
 BYTE   N24  Bn3  v088
 BYTE   W02
 BYTE   W11
 BYTE   W12
 BYTE   N22  An3  v084
 BYTE   W12
 BYTE   W11
 BYTE   N23  Gs3
 BYTE   W01
 BYTE   W12
 BYTE   W11
 BYTE   N68  An3  v080
 BYTE   W01
 BYTE   W03
 BYTE   W03
 BYTE   W03
 BYTE   W03
 BYTE   W03
 BYTE   W03
 BYTE   W03
// 010   ----------------------------------------
 BYTE   W03
 BYTE   W03
 BYTE   W03
 BYTE   W03
 BYTE   W03
 BYTE   W03
 BYTE   W03
 BYTE   W03
 BYTE   W03
 BYTE   W03
 BYTE   W03
 BYTE   W03
 BYTE   W03
 BYTE   W03
 BYTE   W03
 BYTE   W03
 BYTE   W02
 BYTE   W03
 BYTE   W03
 BYTE   W03
 BYTE   W03
 BYTE   W03
 BYTE   W03
 BYTE   W03
 BYTE   W01
 BYTE   W02
 BYTE   W01
 BYTE   W02
 BYTE   W01
 BYTE   W02
 BYTE   W01
 BYTE   W02
 BYTE   W01
 BYTE   W02
 BYTE   W01
 BYTE   W02
 BYTE   W01
 BYTE   W02
 BYTE   W01
 BYTE   W02
 BYTE   W01
// 011   ----------------------------------------
 BYTE   W02
 BYTE   W01
 BYTE   W02
 BYTE   W01
 BYTE   W02
 BYTE   W01
 BYTE   W02
 BYTE   W01
 BYTE   W02
 BYTE   W01
 BYTE   W02
 BYTE   W01
 BYTE   W02
 BYTE   W01
 BYTE   W02
 BYTE   W01
 BYTE   W02
 BYTE   W01
 BYTE   W02
 BYTE   W01
 BYTE   W01
 BYTE   TIE  Fs3  v100
 BYTE   W01
 BYTE   W01
 BYTE   W02
 BYTE   W01
 BYTE   W02
 BYTE   W01
 BYTE   W02
 BYTE   W01
 BYTE   W02
 BYTE   W01
 BYTE   W02
 BYTE   W01
 BYTE   W02
 BYTE   W01
 BYTE   W02
 BYTE   W01
 BYTE   W02
 BYTE   W01
 BYTE   W02
 BYTE   W01
 BYTE   W02
 BYTE   W01
 BYTE   W02
 BYTE   W01
 BYTE   W02
 BYTE   W01
 BYTE   W02
 BYTE   W01
 BYTE   W02
 BYTE   W01
 BYTE   W02
 BYTE   W01
 BYTE   W02
 BYTE   W01
 BYTE   W02
 BYTE   W01
 BYTE   W02
 BYTE   W01
 BYTE   W02
 BYTE   W01
 BYTE   W02
 BYTE   W01
 BYTE   W02
 BYTE   W01
// 012   ----------------------------------------
 BYTE   W02
 BYTE   W01
 BYTE   W02
 BYTE   W01
 BYTE   W02
 BYTE   W01
 BYTE   W02
 BYTE   W01
 BYTE   W02
 BYTE   W01
 BYTE   W02
 BYTE   W01
 BYTE   W02
 BYTE   W06
 BYTE   W03
 BYTE   W04
 BYTE   W03
 BYTE   W03
 BYTE   W03
 BYTE   W03
 BYTE   W03
 BYTE   W03
 BYTE   W03
 BYTE   W03
 BYTE   W03
 BYTE   W03
 BYTE   W03
 BYTE   W03
 BYTE   W03
 BYTE   W01
 BYTE   EOT
 BYTE   W01
 BYTE   N76  Fn3  v088
 BYTE   W01
 BYTE   W03
 BYTE   W09
 BYTE   W09
// 013   ----------------------------------------
 BYTE   W06
 BYTE   W03
 BYTE   W06
 BYTE   W03
 BYTE   W03
 BYTE   W03
 BYTE   W03
 BYTE   W03
 BYTE   W03
 BYTE   W03
 BYTE   W03
 BYTE   W03
 BYTE   W03
 BYTE   W03
 BYTE   W03
 BYTE   W03
 BYTE   W03
 BYTE   W03
 BYTE   W03
 BYTE   W03
 BYTE   W03
 BYTE   W01
 BYTE   W01
 BYTE   W01
 BYTE   W01
 BYTE   W01
 BYTE   N18  An2  v092
 BYTE   W01
 BYTE   W14
 BYTE   W07
// 014   ----------------------------------------
 BYTE   W03
 BYTE   N17  Gs2  v088
 BYTE   W05
 BYTE   W07
 BYTE   W07
 BYTE   W05
 BYTE   An2  v084
 BYTE   W02
 BYTE   W07
 BYTE   W07
 BYTE   W07
 BYTE   Bn2  v092
 BYTE   W01
 BYTE   W07
 BYTE   W07
 BYTE   W07
 BYTE   W02
 BYTE   N16  Cs3
 BYTE   W05
 BYTE   W07
 BYTE   W08
 BYTE   W02
// 015   ----------------------------------------
 BYTE   W01
 BYTE   N18  Bn2
 BYTE   W24
 BYTE   W01
 BYTE   Fs3  v080
 BYTE   W24
 BYTE   N19  Fn3
 BYTE   W24
 BYTE   W01
 BYTE   N16  Cs4  v064
 BYTE   W21
// 016   ----------------------------------------
 BYTE   W02
 BYTE   N17  Bn3  v092
 BYTE   W23
 BYTE   An3  v088
 BYTE   W24
 BYTE   N19  Gs3  v080
 BYTE   W24
 BYTE   W02
 BYTE   N16  Fs3  v084
 BYTE   W21
// 017   ----------------------------------------
 BYTE   W01
 BYTE   N17  Gs3  v088
 BYTE   W24
 BYTE   W02
 BYTE   An3  v080
 BYTE   W22
 BYTE   N18  Bn3
 BYTE   W24
 BYTE   N19  Cs4  v084
 BYTE   W23
// 018   ----------------------------------------
 BYTE   W03
 BYTE   N88  An3
 BYTE   W05
 BYTE   W12
 BYTE   W09
 BYTE   W06
 BYTE   W09
 BYTE   W06
 BYTE   W06
 BYTE   W06
 BYTE   W03
 BYTE   W06
 BYTE   W03
 BYTE   W06
 BYTE   W03
 BYTE   W03
 BYTE   W03
 BYTE   W03
 BYTE   W03
 BYTE   W01
// 019   ----------------------------------------
 BYTE   W02
 BYTE   W03
 BYTE   W03
 BYTE   W03
 BYTE   W03
 BYTE   W03
 BYTE   W03
 BYTE   W03
 BYTE   W03
 BYTE   W03
 BYTE   W03
 BYTE   W03
 BYTE   W03
 BYTE   W03
 BYTE   W03
 BYTE   W03
 BYTE   W03
 BYTE   W03
 BYTE   W03
 BYTE   W03
 BYTE   W36
 BYTE   W01
// 020   ----------------------------------------
 BYTE   W12
 BYTE   W01
 BYTE   W01
 BYTE   W01
 BYTE   W01
 BYTE   W01
 BYTE   W01
 BYTE   W01
 BYTE   W01
 BYTE   W01
 BYTE   W01
 BYTE   W01
 BYTE   W01
 BYTE   W03
 BYTE   W03
 BYTE   W03
 BYTE   W03
 BYTE   W03
 BYTE   W09
 BYTE   W05
 BYTE   W05
 BYTE   W05
 BYTE   W04
 BYTE   W05
 BYTE   W05
 BYTE   W05
 BYTE   W04
 BYTE   W05
 BYTE   W05
// 021   ----------------------------------------
 BYTE   W05
 BYTE   W04
 BYTE   W04
 BYTE   W05
 BYTE   W04
 BYTE   W04
 BYTE   W05
 BYTE   W04
 BYTE   W04
 BYTE   W05
 BYTE   W04
 BYTE   W04
 BYTE   W05
 BYTE   W04
 BYTE   W04
 BYTE   W05
 BYTE   W04
 BYTE   N24  Dn4
 BYTE   W04
 BYTE   W05
 BYTE   W04
 BYTE   W04
 BYTE   W05
// 022   ----------------------------------------
 BYTE   W02
 BYTE   N19  An3  v080
 BYTE   W02
 BYTE   W04
 BYTE   W05
 BYTE   W04
 BYTE   W04
 BYTE   W05
 BYTE   N23  Fn3
 BYTE   W04
 BYTE   W04
 BYTE   W05
 BYTE   W04
 BYTE   W04
 BYTE   W03
 BYTE   N68  En3
 BYTE   W11
 BYTE   W07
 BYTE   W08
 BYTE   W07
 BYTE   W07
 BYTE   W06
// 023   ----------------------------------------
 BYTE   W01
 BYTE   W07
 BYTE   W07
 BYTE   W07
 BYTE   W04
 BYTE   N66  Dn3  v084
 BYTE   W03
 BYTE   W07
 BYTE   W07
 BYTE   W07
 BYTE   W07
 BYTE   W07
 BYTE   W07
 BYTE   W07
 BYTE   W07
 BYTE   W07
 BYTE   W04
// 024   ----------------------------------------
 BYTE   W02
 BYTE   N64  Cs3  v076
 BYTE   W01
 BYTE   W16
 BYTE   W12
 BYTE   W12
 BYTE   W08
 BYTE   W12
 BYTE   W04
 BYTE   W06
 BYTE   N66  Bn2  v080
 BYTE   W02
 BYTE   W04
 BYTE   W08
 BYTE   W04
 BYTE   W04
 BYTE   W01
// 025   ----------------------------------------
 BYTE   W03
 BYTE   W04
 BYTE   W04
 BYTE   W04
 BYTE   W04
 BYTE   W04
 BYTE   W04
 BYTE   W04
 BYTE   W04
 BYTE   W04
 BYTE   W03
 BYTE   W04
 BYTE   W02
 BYTE   W01
 BYTE   W02
 BYTE   W07
 BYTE   W04
 BYTE   W03
 BYTE   W04
 BYTE   W04
 BYTE   W01
 BYTE   N23  Bn3  v088
 BYTE   W02
 BYTE   W04
 BYTE   W03
 BYTE   W04
 BYTE   W03
 BYTE   W04
 BYTE   W02
// 026   ----------------------------------------
 BYTE   W01
 BYTE   W01
 BYTE   An3
 BYTE   W03
 BYTE   W03
 BYTE   W04
 BYTE   W04
 BYTE   W03
 BYTE   W76
 BYTE   W01
// 027   ----------------------------------------
 BYTE   W96
// 028   ----------------------------------------
 BYTE   W96
// 029   ----------------------------------------
 BYTE   W96
// 030   ----------------------------------------
 BYTE   W96
// 031   ----------------------------------------
 BYTE   W96
// 032   ----------------------------------------
 BYTE   W96
// 033   ----------------------------------------
 BYTE   W96
// 034   ----------------------------------------
 BYTE   W96
// 035   ----------------------------------------
 BYTE   W96
// 036   ----------------------------------------
 BYTE   W96
// 037   ----------------------------------------
 BYTE   W96
// 038   ----------------------------------------
 BYTE   W96
// 039   ----------------------------------------
 BYTE   W96
// 040   ----------------------------------------
 BYTE   W96
// 041   ----------------------------------------
 BYTE   W96
// 042   ----------------------------------------
 BYTE   W96
// 043   ----------------------------------------
 BYTE   W96
// 044   ----------------------------------------
 BYTE   W96
// 045   ----------------------------------------
 BYTE   W96
// 046   ----------------------------------------
 BYTE   W96
// 047   ----------------------------------------
 BYTE   W96
// 048   ----------------------------------------
 BYTE   W96
// 049   ----------------------------------------
 BYTE   W96
// 050   ----------------------------------------
 BYTE   W96
// 051   ----------------------------------------
 BYTE   W96
// 052   ----------------------------------------
 BYTE   W84
 BYTE   GoTo
  POIN2 Label_8_0180367A
 BYTE   FINE

//**************** Track 10 (Midi-Chn.9) ****************//

FE12ThemeOfLoveSwiftSaturn_010:
// 000   ----------------------------------------
 BYTE   KEYSH   FE12ThemeOfLoveSwiftSaturn_key+0
Label_9_01803962:
 BYTE   VOICE   19
 BYTE   VOL   56*FE12ThemeOfLoveSwiftSaturn_mvl/mxv
 BYTE   PAN   c_v-19
 BYTE   W96
// 001   ----------------------------------------
 BYTE   W96
// 002   ----------------------------------------
 BYTE   W92
 BYTE   W03
 BYTE   W01
// 003   ----------------------------------------
 BYTE   W22
 BYTE   N22  En3  v112
 BYTE   W23
 BYTE   N23  Dn3  v096
 BYTE   W24
 BYTE   N48  Cs3
 BYTE   W24
 BYTE   W03
// 004   ----------------------------------------
 BYTE   W22
 BYTE   N23  Dn3
 BYTE   W24
 BYTE   N44  En3  v092
 BYTE   W02
 BYTE   W02
 BYTE   W01
 BYTE   W02
 BYTE   W01
 BYTE   W02
 BYTE   W01
 BYTE   W01
 BYTE   W24
 BYTE   W03
 BYTE   W09
 BYTE   N24  Dn3  v104
 BYTE   W02
// 005   ----------------------------------------
 BYTE   W03
 BYTE   W13
 BYTE   W07
 BYTE   N23  Cs3  v100
 BYTE   W07
 BYTE   W14
 BYTE   W03
 BYTE   N22  Dn3
 BYTE   W10
 BYTE   W13
 BYTE   N23  En3  v092
 BYTE   W01
 BYTE   W14
 BYTE   W09
 BYTE   TIE  Fs3  v100
 BYTE   W02
// 006   ----------------------------------------
 BYTE   W02
 BYTE   W09
 BYTE   W06
 BYTE   W06
 BYTE   W06
 BYTE   W06
 BYTE   W03
 BYTE   W06
 BYTE   W06
 BYTE   W03
 BYTE   W03
 BYTE   W06
 BYTE   W03
 BYTE   W03
 BYTE   W03
 BYTE   W03
 BYTE   W03
 BYTE   W03
 BYTE   W03
 BYTE   W03
 BYTE   W03
 BYTE   W03
 BYTE   W03
 BYTE   W01
// 007   ----------------------------------------
 BYTE   W02
 BYTE   W03
 BYTE   W03
 BYTE   W03
 BYTE   W03
 BYTE   W03
 BYTE   W03
 BYTE   W03
 BYTE   W03
 BYTE   W03
 BYTE   W03
 BYTE   W03
 BYTE   W03
 BYTE   W03
 BYTE   W03
 BYTE   W03
 BYTE   W01
 BYTE   EOT
 BYTE   W48
// 008   ----------------------------------------
 BYTE   W40
 BYTE   W01
 BYTE   W01
 BYTE   W01
 BYTE   W01
 BYTE   W01
 BYTE   W01
 BYTE   N44  Bn2  v116
 BYTE   W01
 BYTE   W02
 BYTE   W01
 BYTE   W02
 BYTE   W01
 BYTE   W02
 BYTE   W06
 BYTE   W03
 BYTE   W03
 BYTE   W03
 BYTE   W03
 BYTE   W03
 BYTE   W03
 BYTE   W03
 BYTE   W03
 BYTE   W03
 BYTE   W03
 BYTE   W03
 BYTE   TIE  En3  v072
 BYTE   W02
// 009   ----------------------------------------
 BYTE   W01
 BYTE   W01
 BYTE   W09
 BYTE   W09
 BYTE   W06
 BYTE   W06
 BYTE   W06
 BYTE   W03
 BYTE   W06
 BYTE   W03
 BYTE   W03
 BYTE   W03
 BYTE   W03
 BYTE   W03
 BYTE   W03
 BYTE   W03
 BYTE   W03
 BYTE   W03
 BYTE   W03
 BYTE   W03
 BYTE   W03
 BYTE   W03
 BYTE   W03
 BYTE   W03
 BYTE   W01
 BYTE   W03
// 010   ----------------------------------------
 BYTE   W03
 BYTE   W03
 BYTE   W03
 BYTE   W03
 BYTE   W03
 BYTE   W03
 BYTE   W03
 BYTE   W03
 BYTE   W03
 BYTE   W03
 BYTE   W03
 BYTE   W03
 BYTE   W03
 BYTE   W03
 BYTE   W03
 BYTE   EOT
 BYTE   N22  Ds3  v100
 BYTE   W03
 BYTE   W03
 BYTE   W03
 BYTE   W03
 BYTE   W02
 BYTE   W09
 BYTE   N24  Cn3  v104
 BYTE   W24
 BYTE   W01
 BYTE   N23  Bn2  v100
 BYTE   W03
// 011   ----------------------------------------
 BYTE   W21
 BYTE   N24  An2
 BYTE   W24
 BYTE   W01
 BYTE   Bn2  v104
 BYTE   W24
 BYTE   W01
 BYTE   Cn3  v096
 BYTE   W24
 BYTE   W01
// 012   ----------------------------------------
 BYTE   TIE  Bn2  v108
 BYTE   W12
 BYTE   W09
 BYTE   W09
 BYTE   W06
 BYTE   W06
 BYTE   W06
 BYTE   W06
 BYTE   W06
 BYTE   W03
 BYTE   W03
 BYTE   W06
 BYTE   W03
 BYTE   W03
 BYTE   W03
 BYTE   W03
 BYTE   W03
 BYTE   W03
 BYTE   W03
 BYTE   W03
// 013   ----------------------------------------
 BYTE   W03
 BYTE   W03
 BYTE   W03
 BYTE   W03
 BYTE   W03
 BYTE   W03
 BYTE   W03
 BYTE   W03
 BYTE   W03
 BYTE   W03
 BYTE   W03
 BYTE   W03
 BYTE   W03
 BYTE   W03
 BYTE   EOT
 BYTE   W01
 BYTE   W01
 BYTE   W01
 BYTE   TIE  Fs2  v088
 BYTE   W01
 BYTE   W01
 BYTE   W02
 BYTE   W01
 BYTE   W02
 BYTE   W01
 BYTE   W02
 BYTE   W01
 BYTE   W02
 BYTE   W01
 BYTE   W02
 BYTE   W01
 BYTE   W02
 BYTE   W01
 BYTE   W12
 BYTE   W09
 BYTE   W06
 BYTE   W04
// 014   ----------------------------------------
 BYTE   W05
 BYTE   W06
 BYTE   W06
 BYTE   W06
 BYTE   W03
 BYTE   W06
 BYTE   W03
 BYTE   W03
 BYTE   W06
 BYTE   W03
 BYTE   W03
 BYTE   W03
 BYTE   W03
 BYTE   W03
 BYTE   W03
 BYTE   W03
 BYTE   W03
 BYTE   W03
 BYTE   W03
 BYTE   W03
 BYTE   W03
 BYTE   W03
 BYTE   W03
 BYTE   W03
 BYTE   W03
 BYTE   W01
 BYTE   EOT
 BYTE   W01
 BYTE   TIE  Cs3
 BYTE   W02
// 015   ----------------------------------------
 BYTE   W03
 BYTE   W03
 BYTE   W03
 BYTE   W03
 BYTE   W03
 BYTE   W03
 BYTE   W03
 BYTE   W03
 BYTE   W03
 BYTE   W01
 BYTE   W08
 BYTE   W09
 BYTE   W08
 BYTE   W08
 BYTE   W08
 BYTE   W08
 BYTE   W08
 BYTE   W09
 BYTE   W02
// 016   ----------------------------------------
 BYTE   W06
 BYTE   W08
 BYTE   W08
 BYTE   W08
 BYTE   W08
 BYTE   W09
 BYTE   W08
 BYTE   W08
 BYTE   W08
 BYTE   W08
 BYTE   W08
 BYTE   W09
// 017   ----------------------------------------
 BYTE   W08
 BYTE   W08
 BYTE   W08
 BYTE   W16
 BYTE   W09
 BYTE   W08
 BYTE   W16
 BYTE   W16
 BYTE   W01
 BYTE   EOT
 BYTE   W03
 BYTE   N92  Cs3  v096
 BYTE   W03
// 018   ----------------------------------------
 BYTE   W02
 BYTE   W09
 BYTE   W06
 BYTE   W06
 BYTE   W06
 BYTE   W03
 BYTE   W03
 BYTE   W06
 BYTE   W03
 BYTE   W03
 BYTE   W03
 BYTE   W03
 BYTE   W03
 BYTE   W03
 BYTE   W03
 BYTE   W03
 BYTE   W03
 BYTE   W03
 BYTE   W03
 BYTE   W03
 BYTE   W03
 BYTE   W03
 BYTE   W03
 BYTE   W03
 BYTE   W03
 BYTE   W02
 BYTE   N23  An3  v092
 BYTE   W02
// 019   ----------------------------------------
 BYTE   W14
 BYTE   W06
 BYTE   W02
 BYTE   N24  Gs3
 BYTE   W03
 BYTE   W06
 BYTE   W05
 BYTE   W05
 BYTE   W05
 BYTE   TIE  Fs3
 BYTE   W01
 BYTE   W03
 BYTE   W03
 BYTE   W03
 BYTE   W03
 BYTE   W03
 BYTE   W03
 BYTE   W03
 BYTE   W03
 BYTE   W03
 BYTE   W03
 BYTE   W03
 BYTE   W02
 BYTE   W14
// 020   ----------------------------------------
 BYTE   W07
 BYTE   W10
 BYTE   W07
 BYTE   W06
 BYTE   W07
 BYTE   W04
 BYTE   W06
 BYTE   W04
 BYTE   W03
 BYTE   W04
 BYTE   W03
 BYTE   W04
 BYTE   W03
 BYTE   W03
 BYTE   W04
 BYTE   W03
 BYTE   W04
 BYTE   W03
 BYTE   W03
 BYTE   W04
 BYTE   W01
 BYTE   EOT
 BYTE   W01
 BYTE   N24  Gs3  v100
 BYTE   W01
 BYTE   W01
// 021   ----------------------------------------
 BYTE   W05
 BYTE   W03
 BYTE   W03
 BYTE   W03
 BYTE   W03
 BYTE   W03
 BYTE   W03
 BYTE   W01
 BYTE   N23  Fs3  v096
 BYTE   W02
 BYTE   W03
 BYTE   W04
 BYTE   W03
 BYTE   W03
 BYTE   W03
 BYTE   W03
 BYTE   W02
 BYTE   N22  En3
 BYTE   W01
 BYTE   W03
 BYTE   W03
 BYTE   W03
 BYTE   W03
 BYTE   W03
 BYTE   W03
 BYTE   W03
 BYTE   W01
 BYTE   N24  Fn3  v092
 BYTE   W02
 BYTE   W06
 BYTE   W03
 BYTE   W03
 BYTE   W04
 BYTE   W03
 BYTE   W03
 BYTE   N23  Dn3  v096
 BYTE   W02
// 022   ----------------------------------------
 BYTE   W01
 BYTE   W03
 BYTE   W03
 BYTE   W03
 BYTE   W03
 BYTE   W04
 BYTE   W03
 BYTE   W02
 BYTE   TIE  An2  v092
 BYTE   W01
 BYTE   W03
 BYTE   W03
 BYTE   W03
 BYTE   W03
 BYTE   W03
 BYTE   W04
 BYTE   W03
 BYTE   W03
 BYTE   W08
 BYTE   W04
 BYTE   W03
 BYTE   W04
 BYTE   W04
 BYTE   W04
 BYTE   W04
 BYTE   W04
 BYTE   W04
 BYTE   W04
 BYTE   W04
 BYTE   W01
// 023   ----------------------------------------
 BYTE   W03
 BYTE   W03
 BYTE   W04
 BYTE   W04
 BYTE   W04
 BYTE   W04
 BYTE   W04
 BYTE   W04
 BYTE   W04
 BYTE   W04
 BYTE   W03
 BYTE   W04
 BYTE   EOT
 BYTE   W01
 BYTE   N22  Gs2  v096
 BYTE   W03
 BYTE   W04
 BYTE   W04
 BYTE   W04
 BYTE   W04
 BYTE   W04
 BYTE   N24  An2  v100
 BYTE   W04
 BYTE   W04
 BYTE   W03
 BYTE   W04
 BYTE   W11
 BYTE   TIE  An2  v080
 BYTE   W01
// 024   ----------------------------------------
 BYTE   W11
 BYTE   W21
 BYTE   W15
 BYTE   W09
 BYTE   W12
 BYTE   W06
 BYTE   W09
 BYTE   W03
 BYTE   W06
 BYTE   W04
// 025   ----------------------------------------
 BYTE   W02
 BYTE   W03
 BYTE   W03
 BYTE   W03
 BYTE   W03
 BYTE   W03
 BYTE   W03
 BYTE   W03
 BYTE   W03
 BYTE   W03
 BYTE   W03
 BYTE   W03
 BYTE   W03
 BYTE   W03
 BYTE   W03
 BYTE   EOT
 BYTE   W02
 BYTE   W01
 BYTE   TIE
 BYTE   W01
 BYTE   W12
 BYTE   W12
 BYTE   W09
 BYTE   W09
 BYTE   W06
// 026   ----------------------------------------
 BYTE   W09
 BYTE   W06
 BYTE   W06
 BYTE   W36
 BYTE   W02
 BYTE   EOT
 BYTE   W36
 BYTE   W01
// 027   ----------------------------------------
 BYTE   W96
// 028   ----------------------------------------
 BYTE   W96
// 029   ----------------------------------------
 BYTE   W96
// 030   ----------------------------------------
 BYTE   W96
// 031   ----------------------------------------
 BYTE   W96
// 032   ----------------------------------------
 BYTE   W96
// 033   ----------------------------------------
 BYTE   W96
// 034   ----------------------------------------
 BYTE   W96
// 035   ----------------------------------------
 BYTE   W96
// 036   ----------------------------------------
 BYTE   W96
// 037   ----------------------------------------
 BYTE   W96
// 038   ----------------------------------------
 BYTE   W96
// 039   ----------------------------------------
 BYTE   W96
// 040   ----------------------------------------
 BYTE   W96
// 041   ----------------------------------------
 BYTE   W96
// 042   ----------------------------------------
 BYTE   W96
// 043   ----------------------------------------
 BYTE   W96
// 044   ----------------------------------------
 BYTE   W96
// 045   ----------------------------------------
 BYTE   W96
// 046   ----------------------------------------
 BYTE   W96
// 047   ----------------------------------------
 BYTE   W96
// 048   ----------------------------------------
 BYTE   W96
// 049   ----------------------------------------
 BYTE   W96
// 050   ----------------------------------------
 BYTE   W96
// 051   ----------------------------------------
 BYTE   W96
// 052   ----------------------------------------
 BYTE   W84
 BYTE   GoTo
  POIN2 Label_9_01803962
 BYTE   FINE

//**************** Track 11 (Midi-Chn.10) ****************//

FE12ThemeOfLoveSwiftSaturn_011:
// 000   ----------------------------------------
 BYTE   KEYSH   FE12ThemeOfLoveSwiftSaturn_key+0
Label_10_01803BD6:
 BYTE   VOICE   19
 BYTE   VOL   50*FE12ThemeOfLoveSwiftSaturn_mvl/mxv
 BYTE   PAN   c_v+26
 BYTE   W96
// 001   ----------------------------------------
 BYTE   W96
// 002   ----------------------------------------
 BYTE   W92
 BYTE   W03
 BYTE   W01
// 003   ----------------------------------------
 BYTE   W24
 BYTE   W02
 BYTE   N22  En3  v112
 BYTE   W23
 BYTE   N23  Dn3  v096
 BYTE   W24
 BYTE   N48  Cs3
 BYTE   W23
// 004   ----------------------------------------
 BYTE   W24
 BYTE   W03
 BYTE   N22  Dn3
 BYTE   W19
 BYTE   W03
 BYTE   W01
 BYTE   N44  En3  v092
 BYTE   W02
 BYTE   W03
 BYTE   W03
 BYTE   W03
 BYTE   W01
 BYTE   W24
 BYTE   W02
 BYTE   W08
// 005   ----------------------------------------
 BYTE   W02
 BYTE   N24  Dn3  v104
 BYTE   W03
 BYTE   W14
 BYTE   W08
 BYTE   N23  Cs3  v100
 BYTE   W05
 BYTE   W13
 BYTE   W06
 BYTE   N22  Dn3
 BYTE   W08
 BYTE   W13
 BYTE   W02
 BYTE   N23  En3  v092
 BYTE   W11
 BYTE   W11
// 006   ----------------------------------------
 BYTE   W02
 BYTE   N84  Fs3  v100
 BYTE   W03
 BYTE   W03
 BYTE   W02
 BYTE   W03
 BYTE   W01
 BYTE   W02
 BYTE   W03
 BYTE   W01
 BYTE   W02
 BYTE   W01
 BYTE   W02
 BYTE   W01
 BYTE   W02
 BYTE   W01
 BYTE   W02
 BYTE   W01
 BYTE   W02
 BYTE   W01
 BYTE   W02
 BYTE   W01
 BYTE   W02
 BYTE   W01
 BYTE   W02
 BYTE   W01
 BYTE   W02
 BYTE   W01
 BYTE   W02
 BYTE   W01
 BYTE   W02
 BYTE   W01
 BYTE   W02
 BYTE   W01
 BYTE   W02
 BYTE   W01
 BYTE   W02
 BYTE   W01
 BYTE   W02
 BYTE   W01
 BYTE   W02
 BYTE   W01
 BYTE   W02
 BYTE   W01
 BYTE   W02
 BYTE   W01
 BYTE   W02
 BYTE   W01
 BYTE   W02
 BYTE   W01
 BYTE   W02
 BYTE   W01
 BYTE   W02
 BYTE   W01
 BYTE   W01
 BYTE   W02
 BYTE   W01
 BYTE   W02
 BYTE   W01
 BYTE   W02
 BYTE   W01
// 007   ----------------------------------------
 BYTE   W02
 BYTE   W01
 BYTE   W02
 BYTE   W01
 BYTE   W02
 BYTE   W01
 BYTE   W02
 BYTE   W01
 BYTE   W02
 BYTE   W01
 BYTE   W02
 BYTE   W01
 BYTE   W02
 BYTE   W01
 BYTE   W02
 BYTE   W01
 BYTE   W02
 BYTE   W01
 BYTE   W02
 BYTE   W01
 BYTE   W02
 BYTE   W01
 BYTE   W02
 BYTE   W01
 BYTE   W02
 BYTE   W01
 BYTE   W02
 BYTE   W01
 BYTE   W02
 BYTE   W01
 BYTE   W02
 BYTE   W48
 BYTE   W01
// 008   ----------------------------------------
 BYTE   W40
 BYTE   W01
 BYTE   W01
 BYTE   W01
 BYTE   W01
 BYTE   W01
 BYTE   W01
 BYTE   W01
 BYTE   W02
 BYTE   W01
 BYTE   N44  Bn2  v116
 BYTE   W02
 BYTE   W01
 BYTE   W02
 BYTE   W06
 BYTE   W03
 BYTE   W03
 BYTE   W03
 BYTE   W03
 BYTE   W03
 BYTE   W03
 BYTE   W03
 BYTE   W03
 BYTE   W03
 BYTE   W03
 BYTE   W03
 BYTE   W02
// 009   ----------------------------------------
 BYTE   W01
 BYTE   W01
 BYTE   N90  En3  v072
 BYTE   W02
 BYTE   W01
 BYTE   W02
 BYTE   W01
 BYTE   W02
 BYTE   W01
 BYTE   W02
 BYTE   W01
 BYTE   W02
 BYTE   W01
 BYTE   W02
 BYTE   W01
 BYTE   W02
 BYTE   W01
 BYTE   W02
 BYTE   W01
 BYTE   W02
 BYTE   W01
 BYTE   W02
 BYTE   W01
 BYTE   W02
 BYTE   W01
 BYTE   W02
 BYTE   W01
 BYTE   W02
 BYTE   W01
 BYTE   W02
 BYTE   W01
 BYTE   W02
 BYTE   W01
 BYTE   W02
 BYTE   W01
 BYTE   W02
 BYTE   W01
 BYTE   W02
 BYTE   W01
 BYTE   W02
 BYTE   W01
 BYTE   W02
 BYTE   W01
 BYTE   W02
 BYTE   W01
 BYTE   W02
 BYTE   W01
 BYTE   W02
 BYTE   W01
 BYTE   W02
 BYTE   W01
 BYTE   W02
 BYTE   W01
 BYTE   W02
 BYTE   W01
 BYTE   W02
 BYTE   W01
 BYTE   W02
 BYTE   W01
 BYTE   W10
// 010   ----------------------------------------
 BYTE   W44
 BYTE   W02
 BYTE   W01
 BYTE   W01
 BYTE   W01
 BYTE   N22  Ds3  v100
 BYTE   W01
 BYTE   W01
 BYTE   W21
 BYTE   N24  Cn3  v104
 BYTE   W24
// 011   ----------------------------------------
 BYTE   W01
 BYTE   N23  Bn2  v100
 BYTE   W24
 BYTE   N24  An2
 BYTE   W24
 BYTE   W01
 BYTE   Bn2  v104
 BYTE   W24
 BYTE   W01
 BYTE   Cn3  v096
 BYTE   W21
// 012   ----------------------------------------
 BYTE   W12
 BYTE   W09
 BYTE   W09
 BYTE   W06
 BYTE   W06
 BYTE   W06
 BYTE   W06
 BYTE   W06
 BYTE   W03
 BYTE   W03
 BYTE   W06
 BYTE   W03
 BYTE   W03
 BYTE   W03
 BYTE   W03
 BYTE   W03
 BYTE   W03
 BYTE   W03
 BYTE   W03
// 013   ----------------------------------------
 BYTE   W03
 BYTE   W03
 BYTE   W03
 BYTE   W03
 BYTE   W03
 BYTE   W03
 BYTE   W03
 BYTE   W03
 BYTE   W03
 BYTE   W03
 BYTE   W03
 BYTE   W03
 BYTE   W03
 BYTE   W03
 BYTE   W01
 BYTE   W01
 BYTE   W02
 BYTE   W01
 BYTE   W02
 BYTE   W01
 BYTE   W02
 BYTE   W01
 BYTE   W02
 BYTE   W01
 BYTE   W02
 BYTE   W01
 BYTE   W02
 BYTE   W01
 BYTE   W02
 BYTE   W01
 BYTE   W12
 BYTE   W09
 BYTE   W06
 BYTE   W04
// 014   ----------------------------------------
 BYTE   W05
 BYTE   W06
 BYTE   W06
 BYTE   W06
 BYTE   W03
 BYTE   W06
 BYTE   W03
 BYTE   W03
 BYTE   W06
 BYTE   W03
 BYTE   W03
 BYTE   W03
 BYTE   W03
 BYTE   W03
 BYTE   W03
 BYTE   W03
 BYTE   W03
 BYTE   W03
 BYTE   W03
 BYTE   W03
 BYTE   W03
 BYTE   W03
 BYTE   W03
 BYTE   W03
 BYTE   W03
 BYTE   W01
 BYTE   W03
// 015   ----------------------------------------
 BYTE   W03
 BYTE   W03
 BYTE   W03
 BYTE   W03
 BYTE   W03
 BYTE   W03
 BYTE   W03
 BYTE   W03
 BYTE   W03
 BYTE   W01
 BYTE   W08
 BYTE   W09
 BYTE   W08
 BYTE   W08
 BYTE   W08
 BYTE   W08
 BYTE   W08
 BYTE   W09
 BYTE   W02
// 016   ----------------------------------------
 BYTE   W06
 BYTE   W08
 BYTE   W08
 BYTE   W08
 BYTE   W08
 BYTE   W09
 BYTE   W08
 BYTE   W08
 BYTE   W08
 BYTE   W08
 BYTE   W08
 BYTE   W09
// 017   ----------------------------------------
 BYTE   W08
 BYTE   W08
 BYTE   W08
 BYTE   W16
 BYTE   W09
 BYTE   W08
 BYTE   W16
 BYTE   W16
 BYTE   W07
// 018   ----------------------------------------
 BYTE   W02
 BYTE   W09
 BYTE   W06
 BYTE   W06
 BYTE   W06
 BYTE   W03
 BYTE   W03
 BYTE   W06
 BYTE   W03
 BYTE   W03
 BYTE   W03
 BYTE   W03
 BYTE   W03
 BYTE   W03
 BYTE   W03
 BYTE   W03
 BYTE   W03
 BYTE   W03
 BYTE   W03
 BYTE   W03
 BYTE   W03
 BYTE   W03
 BYTE   W03
 BYTE   W03
 BYTE   W03
 BYTE   W02
 BYTE   W02
// 019   ----------------------------------------
 BYTE   W02
 BYTE   N23  An3  v092
 BYTE   W12
 BYTE   W06
 BYTE   W05
 BYTE   W01
 BYTE   N24  Gs3
 BYTE   W05
 BYTE   W05
 BYTE   W05
 BYTE   W06
 BYTE   W03
 BYTE   N66  Fs3
 BYTE   W03
 BYTE   W03
 BYTE   W03
 BYTE   W03
 BYTE   W03
 BYTE   W03
 BYTE   W03
 BYTE   W03
 BYTE   W03
 BYTE   W03
 BYTE   W02
 BYTE   W14
// 020   ----------------------------------------
 BYTE   W07
 BYTE   W10
 BYTE   W07
 BYTE   W06
 BYTE   W07
 BYTE   W04
 BYTE   W06
 BYTE   W04
 BYTE   W03
 BYTE   W04
 BYTE   W03
 BYTE   W04
 BYTE   W03
 BYTE   W03
 BYTE   W04
 BYTE   W03
 BYTE   W04
 BYTE   W03
 BYTE   W03
 BYTE   W04
 BYTE   W03
 BYTE   W01
// 021   ----------------------------------------
 BYTE   W12
 BYTE   W07
 BYTE   W07
 BYTE   W06
 BYTE   W07
 BYTE   W06
 BYTE   W07
 BYTE   W07
 BYTE   W06
 BYTE   W07
 BYTE   W03
 BYTE   W03
 BYTE   W03
 BYTE   W03
 BYTE   W03
 BYTE   W03
 BYTE   W03
 BYTE   W03
// 022   ----------------------------------------
 BYTE   W02
 BYTE   N23  Dn3  v096
 BYTE   W01
 BYTE   W03
 BYTE   W03
 BYTE   W03
 BYTE   W03
 BYTE   W03
 BYTE   W03
 BYTE   W03
 BYTE   W02
 BYTE   N32  An2  v084
 BYTE   W01
 BYTE   W03
 BYTE   W03
 BYTE   W03
 BYTE   W01
 BYTE   W01
 BYTE   W01
 BYTE   W01
 BYTE   W01
 BYTE   W01
 BYTE   W01
 BYTE   W01
 BYTE   W01
 BYTE   W01
 BYTE   W01
 BYTE   W01
 BYTE   W01
 BYTE   W01
 BYTE   W01
 BYTE   W01
 BYTE   W01
 BYTE   W01
 BYTE   W01
 BYTE   W01
 BYTE   W40
// 023   ----------------------------------------
 BYTE   W80
 BYTE   W02
 BYTE   W01
 BYTE   W01
 BYTE   W12
// 024   ----------------------------------------
 BYTE   W11
 BYTE   W15
 BYTE   W09
 BYTE   W09
 BYTE   W06
 BYTE   W09
 BYTE   W06
 BYTE   W06
 BYTE   W03
 BYTE   W06
 BYTE   W03
 BYTE   W03
 BYTE   W03
 BYTE   W03
 BYTE   W03
 BYTE   W01
// 025   ----------------------------------------
 BYTE   W02
 BYTE   W03
 BYTE   W03
 BYTE   W03
 BYTE   W03
 BYTE   W03
 BYTE   W03
 BYTE   W03
 BYTE   W03
 BYTE   W03
 BYTE   W03
 BYTE   W03
 BYTE   W03
 BYTE   W03
 BYTE   W03
 BYTE   W02
 BYTE   W01
 BYTE   W01
 BYTE   W01
 BYTE   W02
 BYTE   N64  An2  v068
 BYTE   W01
 BYTE   W02
 BYTE   W01
 BYTE   W02
 BYTE   W01
 BYTE   W02
 BYTE   W01
 BYTE   W02
 BYTE   W01
 BYTE   W02
 BYTE   W01
 BYTE   W02
 BYTE   W01
 BYTE   W02
 BYTE   W01
 BYTE   W02
 BYTE   W01
 BYTE   W02
 BYTE   W01
 BYTE   W02
 BYTE   W01
 BYTE   W02
 BYTE   W01
 BYTE   W02
 BYTE   W01
 BYTE   W02
 BYTE   W01
 BYTE   W02
 BYTE   W01
 BYTE   W02
// 026   ----------------------------------------
 BYTE   W01
 BYTE   W02
 BYTE   W01
 BYTE   W02
 BYTE   W01
 BYTE   W02
 BYTE   W01
 BYTE   W02
 BYTE   W01
 BYTE   W02
 BYTE   W01
 BYTE   W02
 BYTE   W01
 BYTE   W76
 BYTE   W01
// 027   ----------------------------------------
 BYTE   W96
// 028   ----------------------------------------
 BYTE   W96
// 029   ----------------------------------------
 BYTE   W96
// 030   ----------------------------------------
 BYTE   W96
// 031   ----------------------------------------
 BYTE   W96
// 032   ----------------------------------------
 BYTE   W96
// 033   ----------------------------------------
 BYTE   W96
// 034   ----------------------------------------
 BYTE   W96
// 035   ----------------------------------------
 BYTE   W96
// 036   ----------------------------------------
 BYTE   W96
// 037   ----------------------------------------
 BYTE   W96
// 038   ----------------------------------------
 BYTE   W96
// 039   ----------------------------------------
 BYTE   W96
// 040   ----------------------------------------
 BYTE   W96
// 041   ----------------------------------------
 BYTE   W96
// 042   ----------------------------------------
 BYTE   W96
// 043   ----------------------------------------
 BYTE   W96
// 044   ----------------------------------------
 BYTE   W96
// 045   ----------------------------------------
 BYTE   W96
// 046   ----------------------------------------
 BYTE   W96
// 047   ----------------------------------------
 BYTE   W96
// 048   ----------------------------------------
 BYTE   W96
// 049   ----------------------------------------
 BYTE   W96
// 050   ----------------------------------------
 BYTE   W96
// 051   ----------------------------------------
 BYTE   W96
// 052   ----------------------------------------
 BYTE   W84
 BYTE   GoTo
  POIN2 Label_10_01803BD6
 BYTE   FINE

//**************** Track 12 (Midi-Chn.11) ****************//

FE12ThemeOfLoveSwiftSaturn_012:
// 000   ----------------------------------------
 BYTE   KEYSH   FE12ThemeOfLoveSwiftSaturn_key+0
Label_11_01803E6E:
 BYTE   VOICE   48
 BYTE   VOL   69*FE12ThemeOfLoveSwiftSaturn_mvl/mxv
 BYTE   PAN   c_v+4
 BYTE   W96
// 001   ----------------------------------------
 BYTE   W96
// 002   ----------------------------------------
 BYTE   W44
 BYTE   W02
 BYTE   W02
 BYTE   N44  Fs2  v096
 BYTE   W01
 BYTE   W02
 BYTE   W01
 BYTE   W03
 BYTE   W03
 BYTE   W03
 BYTE   W03
 BYTE   W03
 BYTE   W03
 BYTE   W03
 BYTE   W03
 BYTE   W03
 BYTE   W03
 BYTE   W03
 BYTE   W03
 BYTE   W03
 BYTE   W03
 BYTE   W01
 BYTE   TIE  Fn2  v100
 BYTE   W01
// 003   ----------------------------------------
 BYTE   W01
 BYTE   W02
 BYTE   W01
 BYTE   W02
 BYTE   W01
 BYTE   W02
 BYTE   W01
 BYTE   W02
 BYTE   W01
 BYTE   W02
 BYTE   W01
 BYTE   W02
 BYTE   W01
 BYTE   W02
 BYTE   W01
 BYTE   W01
 BYTE   W16
 BYTE   W07
 BYTE   W08
 BYTE   W08
 BYTE   W07
 BYTE   W08
 BYTE   W08
 BYTE   W07
 BYTE   W04
// 004   ----------------------------------------
 BYTE   W04
 BYTE   W08
 BYTE   W07
 BYTE   W08
 BYTE   W08
 BYTE   W07
 BYTE   W03
 BYTE   EOT
 BYTE   W01
 BYTE   TIE  En2  v120
 BYTE   W02
 BYTE   W03
 BYTE   W03
 BYTE   W03
 BYTE   W03
 BYTE   W03
 BYTE   W03
 BYTE   W03
 BYTE   W03
 BYTE   W03
 BYTE   W03
 BYTE   W03
 BYTE   W01
 BYTE   W07
 BYTE   W04
 BYTE   W03
// 005   ----------------------------------------
 BYTE   W01
 BYTE   W04
 BYTE   W03
 BYTE   W04
 BYTE   W04
 BYTE   W03
 BYTE   W04
 BYTE   W04
 BYTE   W03
 BYTE   W04
 BYTE   W04
 BYTE   W03
 BYTE   W04
 BYTE   W04
 BYTE   W03
 BYTE   W04
 BYTE   W04
 BYTE   W04
 BYTE   W03
 BYTE   W04
 BYTE   W04
 BYTE   W03
 BYTE   W04
 BYTE   W04
 BYTE   W03
 BYTE   W04
 BYTE   W01
 BYTE   EOT
 BYTE   W01
 BYTE   N92  Ds2  v116
 BYTE   W01
// 006   ----------------------------------------
 BYTE   W03
 BYTE   W03
 BYTE   W03
 BYTE   W03
 BYTE   W03
 BYTE   W03
 BYTE   W03
 BYTE   W03
 BYTE   W03
 BYTE   W03
 BYTE   W03
 BYTE   W03
 BYTE   W03
 BYTE   W03
 BYTE   W03
 BYTE   W03
 BYTE   W03
 BYTE   W03
 BYTE   W03
 BYTE   W03
 BYTE   W03
 BYTE   W03
 BYTE   W03
 BYTE   W03
 BYTE   W03
 BYTE   W03
 BYTE   W03
 BYTE   W03
 BYTE   W03
 BYTE   W03
 BYTE   W03
 BYTE   W01
 BYTE   N23  Bn1  v120
 BYTE   W02
// 007   ----------------------------------------
 BYTE   W21
 BYTE   W01
 BYTE   Cs2  v108
 BYTE   W19
 BYTE   W05
 BYTE   TIE  Dn2
 BYTE   W09
 BYTE   W14
 BYTE   W14
 BYTE   W07
 BYTE   W06
// 008   ----------------------------------------
 BYTE   W07
 BYTE   W07
 BYTE   W07
 BYTE   W07
 BYTE   W07
 BYTE   W07
 BYTE   W07
 BYTE   W07
 BYTE   W06
 BYTE   W07
 BYTE   W07
 BYTE   W07
 BYTE   W07
 BYTE   W02
 BYTE   EOT
 BYTE   W01
 BYTE   N72  Cs2  v120
 BYTE   W03
// 009   ----------------------------------------
 BYTE   W01
 BYTE   W08
 BYTE   W04
 BYTE   W05
 BYTE   W04
 BYTE   W04
 BYTE   W04
 BYTE   W04
 BYTE   W04
 BYTE   W05
 BYTE   W04
 BYTE   W04
 BYTE   W04
 BYTE   W04
 BYTE   W05
 BYTE   W04
 BYTE   W04
 BYTE   N22  Fs2  v100
 BYTE   W01
 BYTE   W02
 BYTE   W01
 BYTE   W02
 BYTE   W01
 BYTE   W02
 BYTE   W01
 BYTE   W02
 BYTE   W01
 BYTE   W02
 BYTE   W01
 BYTE   W02
 BYTE   W01
 BYTE   W02
 BYTE   W01
 BYTE   N21  An1
 BYTE   W02
// 010   ----------------------------------------
 BYTE   W20
 BYTE   N24  Bn1
 BYTE   W05
 BYTE   W17
 BYTE   W06
 BYTE   TIE  Cn2  v108
 BYTE   W12
 BYTE   W17
 BYTE   W09
 BYTE   W10
// 011   ----------------------------------------
 BYTE   W07
 BYTE   W09
 BYTE   W09
 BYTE   W08
 BYTE   W09
 BYTE   W09
 BYTE   W09
 BYTE   W08
 BYTE   W09
 BYTE   W09
 BYTE   W07
 BYTE   EOT
 BYTE   W01
 BYTE   N72  Cs2
 BYTE   W01
 BYTE   W01
// 012   ----------------------------------------
 BYTE   W02
 BYTE   W03
 BYTE   W03
 BYTE   W03
 BYTE   W03
 BYTE   W03
 BYTE   W03
 BYTE   W03
 BYTE   W03
 BYTE   W03
 BYTE   W03
 BYTE   W03
 BYTE   W03
 BYTE   W03
 BYTE   W03
 BYTE   W03
 BYTE   W03
 BYTE   W03
 BYTE   W03
 BYTE   W03
 BYTE   W03
 BYTE   W03
 BYTE   W03
 BYTE   W03
 BYTE   N23  Bn1  v100
 BYTE   W01
 BYTE   W21
 BYTE   W02
 BYTE   An1  v112
 BYTE   W01
// 013   ----------------------------------------
 BYTE   W07
 BYTE   W10
 BYTE   W05
 BYTE   N24  Gs1  v100
 BYTE   W05
 BYTE   W10
 BYTE   W09
 BYTE   TIE  Fs1  v096
 BYTE   W01
 BYTE   W03
 BYTE   W03
 BYTE   W03
 BYTE   W03
 BYTE   W03
 BYTE   W03
 BYTE   W03
 BYTE   W03
 BYTE   W02
 BYTE   W10
 BYTE   W04
 BYTE   W05
 BYTE   W04
// 014   ----------------------------------------
 BYTE   W05
 BYTE   W05
 BYTE   W04
 BYTE   W05
 BYTE   W04
 BYTE   W05
 BYTE   W05
 BYTE   W04
 BYTE   W05
 BYTE   W04
 BYTE   W05
 BYTE   W05
 BYTE   W04
 BYTE   W05
 BYTE   W04
 BYTE   W05
 BYTE   W04
 BYTE   W05
 BYTE   W05
 BYTE   W04
 BYTE   EOT
 BYTE   W01
 BYTE   TIE  Fn1  v108
 BYTE   W02
 BYTE   W01
// 015   ----------------------------------------
 BYTE   W02
 BYTE   W03
 BYTE   W03
 BYTE   W03
 BYTE   W03
 BYTE   W03
 BYTE   W03
 BYTE   W03
 BYTE   W03
 BYTE   W03
 BYTE   W03
 BYTE   W08
 BYTE   W04
 BYTE   W04
 BYTE   W04
 BYTE   W05
 BYTE   W04
 BYTE   W04
 BYTE   W04
 BYTE   W04
 BYTE   W04
 BYTE   W04
 BYTE   W04
 BYTE   W05
 BYTE   W04
 BYTE   W02
// 016   ----------------------------------------
 BYTE   W02
 BYTE   W04
 BYTE   W04
 BYTE   W04
 BYTE   W04
 BYTE   W04
 BYTE   W04
 BYTE   W05
 BYTE   W04
 BYTE   W04
 BYTE   W04
 BYTE   W01
 BYTE   EOT
 BYTE   W01
 BYTE   TIE  En1  v112
 BYTE   W02
 BYTE   W04
 BYTE   W03
 BYTE   W03
 BYTE   W03
 BYTE   W03
 BYTE   W03
 BYTE   W03
 BYTE   W03
 BYTE   W03
 BYTE   W03
 BYTE   W03
 BYTE   W03
 BYTE   W03
 BYTE   W03
 BYTE   W03
 BYTE   W03
// 017   ----------------------------------------
 BYTE   W07
 BYTE   W05
 BYTE   W05
 BYTE   W06
 BYTE   W05
 BYTE   W05
 BYTE   W05
 BYTE   W05
 BYTE   W05
 BYTE   W05
 BYTE   W05
 BYTE   W05
 BYTE   W05
 BYTE   W05
 BYTE   W05
 BYTE   W05
 BYTE   W05
 BYTE   W05
 BYTE   EOT
 BYTE   W01
 BYTE   N96  Ds1
 BYTE   W02
// 018   ----------------------------------------
 BYTE   W42
 BYTE   W13
 BYTE   W13
 BYTE   W06
 BYTE   W07
 BYTE   W06
 BYTE   W07
 BYTE   W01
 BYTE   N22  Bn0
 BYTE   W01
// 019   ----------------------------------------
 BYTE   W13
 BYTE   W09
 BYTE   N23  Cs1  v108
 BYTE   W09
 BYTE   W06
 BYTE   W03
 BYTE   W06
 BYTE   TIE  Dn1  v112
 BYTE   W03
 BYTE   W03
 BYTE   W03
 BYTE   W03
 BYTE   W03
 BYTE   W03
 BYTE   W03
 BYTE   W03
 BYTE   W03
 BYTE   W03
 BYTE   W03
 BYTE   W04
 BYTE   W05
 BYTE   W04
 BYTE   W04
// 020   ----------------------------------------
 BYTE   W01
 BYTE   W04
 BYTE   W04
 BYTE   W05
 BYTE   W04
 BYTE   W05
 BYTE   W04
 BYTE   W04
 BYTE   W05
 BYTE   W04
 BYTE   W05
 BYTE   W04
 BYTE   W04
 BYTE   W05
 BYTE   W04
 BYTE   W04
 BYTE   W05
 BYTE   W04
 BYTE   W09
 BYTE   W04
 BYTE   W05
 BYTE   W01
 BYTE   EOT
 BYTE   W01
 BYTE   N68  Cs1  v116
 BYTE   W01
// 021   ----------------------------------------
 BYTE   W01
 BYTE   W05
 BYTE   W08
 BYTE   W05
 BYTE   W04
 BYTE   W09
 BYTE   W04
 BYTE   W09
 BYTE   W05
 BYTE   W08
 BYTE   W09
 BYTE   W03
 BYTE   N72  Cn1  v096
 BYTE   W01
 BYTE   W03
 BYTE   W03
 BYTE   W03
 BYTE   W03
 BYTE   W03
 BYTE   W03
 BYTE   W03
 BYTE   W03
 BYTE   W01
// 022   ----------------------------------------
 BYTE   W02
 BYTE   W03
 BYTE   W03
 BYTE   W03
 BYTE   W03
 BYTE   W03
 BYTE   W03
 BYTE   W03
 BYTE   W03
 BYTE   W03
 BYTE   W03
 BYTE   W03
 BYTE   W03
 BYTE   W03
 BYTE   W03
 BYTE   W03
 BYTE   Bn0  v092
 BYTE   W02
 BYTE   W04
 BYTE   W05
 BYTE   W04
 BYTE   W05
 BYTE   W04
 BYTE   W04
 BYTE   W05
 BYTE   W04
 BYTE   W05
 BYTE   W04
 BYTE   W03
// 023   ----------------------------------------
 BYTE   W01
 BYTE   W05
 BYTE   W04
 BYTE   W05
 BYTE   W04
 BYTE   W04
 BYTE   W01
 BYTE   N68  En1  v096
 BYTE   W04
 BYTE   W04
 BYTE   W05
 BYTE   W04
 BYTE   W04
 BYTE   W05
 BYTE   W04
 BYTE   W05
 BYTE   W04
 BYTE   W04
 BYTE   W05
 BYTE   W04
 BYTE   W05
 BYTE   W04
 BYTE   W04
 BYTE   W05
 BYTE   W01
 BYTE   Fs1  v088
 BYTE   W01
// 024   ----------------------------------------
 BYTE   W04
 BYTE   W04
 BYTE   W03
 BYTE   W03
 BYTE   W04
 BYTE   W03
 BYTE   W03
 BYTE   W04
 BYTE   W03
 BYTE   W03
 BYTE   W04
 BYTE   W03
 BYTE   W03
 BYTE   W04
 BYTE   W03
 BYTE   W03
 BYTE   W04
 BYTE   W03
 BYTE   W03
 BYTE   W04
 BYTE   W02
 BYTE   N72  Fn1  v080
 BYTE   W01
 BYTE   W03
 BYTE   W04
 BYTE   W03
 BYTE   W03
 BYTE   W04
 BYTE   W03
 BYTE   W03
 BYTE   W02
// 025   ----------------------------------------
 BYTE   W02
 BYTE   W03
 BYTE   W03
 BYTE   W04
 BYTE   W03
 BYTE   W03
 BYTE   W04
 BYTE   W03
 BYTE   W03
 BYTE   W04
 BYTE   W03
 BYTE   W03
 BYTE   W04
 BYTE   W03
 BYTE   W48
 BYTE   W03
// 026   ----------------------------------------
 BYTE   W96
// 027   ----------------------------------------
 BYTE   W96
// 028   ----------------------------------------
 BYTE   W96
// 029   ----------------------------------------
 BYTE   W96
// 030   ----------------------------------------
 BYTE   W96
// 031   ----------------------------------------
 BYTE   W96
// 032   ----------------------------------------
 BYTE   W96
// 033   ----------------------------------------
 BYTE   W96
// 034   ----------------------------------------
 BYTE   W96
// 035   ----------------------------------------
 BYTE   W96
// 036   ----------------------------------------
 BYTE   W96
// 037   ----------------------------------------
 BYTE   W96
// 038   ----------------------------------------
 BYTE   W96
// 039   ----------------------------------------
 BYTE   W96
// 040   ----------------------------------------
 BYTE   W96
// 041   ----------------------------------------
 BYTE   W96
// 042   ----------------------------------------
 BYTE   W96
// 043   ----------------------------------------
 BYTE   W96
// 044   ----------------------------------------
 BYTE   W96
// 045   ----------------------------------------
 BYTE   W96
// 046   ----------------------------------------
 BYTE   W96
// 047   ----------------------------------------
 BYTE   W96
// 048   ----------------------------------------
 BYTE   W96
// 049   ----------------------------------------
 BYTE   W96
// 050   ----------------------------------------
 BYTE   W96
// 051   ----------------------------------------
 BYTE   W96
// 052   ----------------------------------------
 BYTE   W84
 BYTE   GoTo
  POIN2 Label_11_01803E6E
 BYTE   FINE

//**************** Track 13 (Midi-Chn.12) ****************//

FE12ThemeOfLoveSwiftSaturn_013:
// 000   ----------------------------------------
 BYTE   KEYSH   FE12ThemeOfLoveSwiftSaturn_key+0
Label_12_01804106:
 BYTE   VOICE   48
 BYTE   VOL   56*FE12ThemeOfLoveSwiftSaturn_mvl/mxv
 BYTE   PAN   c_v-35
 BYTE   W96
// 001   ----------------------------------------
 BYTE   W96
// 002   ----------------------------------------
 BYTE   W52
 BYTE   W01
 BYTE   W01
 BYTE   N44  Fs2  v096
 BYTE   W02
 BYTE   W01
 BYTE   W02
 BYTE   W01
 BYTE   W03
 BYTE   W01
 BYTE   W02
 BYTE   W01
 BYTE   W02
 BYTE   W01
 BYTE   W02
 BYTE   W01
 BYTE   W02
 BYTE   W01
 BYTE   W02
 BYTE   W01
 BYTE   W02
 BYTE   W01
 BYTE   W02
 BYTE   W01
 BYTE   W02
 BYTE   W01
 BYTE   W02
 BYTE   W01
 BYTE   W02
 BYTE   W01
 BYTE   W02
// 003   ----------------------------------------
 BYTE   W01
 BYTE   W02
 BYTE   W01
 BYTE   W01
 BYTE   N16  Fn2  v092
 BYTE   W01
 BYTE   W01
 BYTE   W01
 BYTE   W01
 BYTE   W01
 BYTE   W01
 BYTE   W01
 BYTE   W01
 BYTE   W01
 BYTE   W01
 BYTE   W01
 BYTE   W01
 BYTE   W01
 BYTE   W01
 BYTE   W01
 BYTE   W01
 BYTE   W01
 BYTE   W03
 BYTE   W03
 BYTE   W03
 BYTE   W03
 BYTE   W03
 BYTE   W03
 BYTE   W03
 BYTE   W03
 BYTE   W03
 BYTE   W03
 BYTE   W03
 BYTE   W03
 BYTE   W03
 BYTE   W03
 BYTE   W03
 BYTE   W03
 BYTE   W03
 BYTE   W03
 BYTE   W03
 BYTE   W03
 BYTE   W03
 BYTE   W03
 BYTE   W03
 BYTE   W03
 BYTE   W02
// 004   ----------------------------------------
 BYTE   W01
 BYTE   W03
 BYTE   W03
 BYTE   W03
 BYTE   W03
 BYTE   W03
 BYTE   W03
 BYTE   W03
 BYTE   W03
 BYTE   W03
 BYTE   W03
 BYTE   W03
 BYTE   W03
 BYTE   W03
 BYTE   W01
 BYTE   W03
 BYTE   W03
 BYTE   W03
 BYTE   W03
 BYTE   W03
 BYTE   W03
 BYTE   W03
 BYTE   W03
 BYTE   W03
 BYTE   W03
 BYTE   W03
 BYTE   W03
 BYTE   W03
 BYTE   W03
 BYTE   W03
 BYTE   W02
 BYTE   W08
// 005   ----------------------------------------
 BYTE   W03
 BYTE   W04
 BYTE   W04
 BYTE   W03
 BYTE   W04
 BYTE   W04
 BYTE   W03
 BYTE   W04
 BYTE   W04
 BYTE   W03
 BYTE   W04
 BYTE   W04
 BYTE   W03
 BYTE   W04
 BYTE   W04
 BYTE   W04
 BYTE   W03
 BYTE   W04
 BYTE   W04
 BYTE   W03
 BYTE   W04
 BYTE   W04
 BYTE   W03
 BYTE   W04
 BYTE   W04
 BYTE   W03
 BYTE   W01
// 006   ----------------------------------------
 BYTE   W03
 BYTE   W03
 BYTE   W03
 BYTE   W03
 BYTE   W03
 BYTE   W03
 BYTE   W03
 BYTE   W03
 BYTE   W03
 BYTE   W03
 BYTE   W03
 BYTE   W03
 BYTE   W03
 BYTE   W03
 BYTE   W03
 BYTE   W03
 BYTE   W01
 BYTE   W03
 BYTE   W03
 BYTE   W03
 BYTE   W03
 BYTE   W03
 BYTE   W03
 BYTE   W03
 BYTE   W03
 BYTE   W03
 BYTE   W03
 BYTE   W03
 BYTE   W03
 BYTE   W03
 BYTE   W03
 BYTE   W03
 BYTE   W02
// 007   ----------------------------------------
 BYTE   W01
 BYTE   W03
 BYTE   N23  Bn1  v120
 BYTE   W02
 BYTE   W03
 BYTE   W03
 BYTE   W03
 BYTE   W02
 BYTE   W03
 BYTE   W01
 BYTE   W03
 BYTE   W02
 BYTE   W02
 BYTE   Cs2  v108
 BYTE   W01
 BYTE   W01
 BYTE   W02
 BYTE   W03
 BYTE   W01
 BYTE   W02
 BYTE   W01
 BYTE   W02
 BYTE   W01
 BYTE   W03
 BYTE   W02
 BYTE   W01
 BYTE   W02
 BYTE   W01
 BYTE   W01
 BYTE   N64  Dn2
 BYTE   W01
 BYTE   W01
 BYTE   W02
 BYTE   W01
 BYTE   W02
 BYTE   W01
 BYTE   W02
 BYTE   W01
 BYTE   W02
 BYTE   W01
 BYTE   W02
 BYTE   W01
 BYTE   W02
 BYTE   W01
 BYTE   W02
 BYTE   W01
 BYTE   W02
 BYTE   W01
 BYTE   W02
 BYTE   W01
 BYTE   W02
 BYTE   W01
 BYTE   W02
 BYTE   W01
 BYTE   W02
 BYTE   W01
 BYTE   W02
 BYTE   W01
 BYTE   W02
 BYTE   W01
// 008   ----------------------------------------
 BYTE   W02
 BYTE   W01
 BYTE   W02
 BYTE   W01
 BYTE   W02
 BYTE   W01
 BYTE   W02
 BYTE   W01
 BYTE   W02
 BYTE   W01
 BYTE   W02
 BYTE   W01
 BYTE   W02
 BYTE   W01
 BYTE   W02
 BYTE   W01
 BYTE   W01
 BYTE   W02
 BYTE   W01
 BYTE   W02
 BYTE   W01
 BYTE   W02
 BYTE   W01
 BYTE   W02
 BYTE   W01
 BYTE   W02
 BYTE   W01
 BYTE   W02
 BYTE   W01
 BYTE   W02
 BYTE   W01
 BYTE   W02
 BYTE   W01
 BYTE   W02
 BYTE   W01
 BYTE   W02
 BYTE   W01
 BYTE   W02
 BYTE   W01
 BYTE   W02
 BYTE   W01
 BYTE   W02
 BYTE   W01
 BYTE   W02
 BYTE   W01
 BYTE   W02
 BYTE   W01
 BYTE   W02
 BYTE   W01
 BYTE   W02
 BYTE   W01
 BYTE   W02
 BYTE   W01
 BYTE   W02
 BYTE   W01
 BYTE   W02
 BYTE   W01
 BYTE   W02
 BYTE   W01
 BYTE   W02
 BYTE   W01
 BYTE   W02
 BYTE   W01
 BYTE   W02
// 009   ----------------------------------------
 BYTE   W01
 BYTE   W02
 BYTE   W01
 BYTE   W02
 BYTE   W01
 BYTE   W08
 BYTE   W04
 BYTE   W05
 BYTE   W04
 BYTE   W04
 BYTE   W04
 BYTE   W04
 BYTE   W05
 BYTE   W04
 BYTE   W04
 BYTE   W04
 BYTE   W04
 BYTE   W04
 BYTE   W05
 BYTE   W04
 BYTE   W04
 BYTE   W01
 BYTE   W02
 BYTE   W01
 BYTE   W02
 BYTE   W01
 BYTE   W02
 BYTE   W01
 BYTE   W02
 BYTE   W01
 BYTE   W02
 BYTE   W01
 BYTE   W02
// 010   ----------------------------------------
 BYTE   W01
 BYTE   W02
 BYTE   W01
 BYTE   N21  An1  v100
 BYTE   W03
 BYTE   W03
 BYTE   W03
 BYTE   W03
 BYTE   W03
 BYTE   W03
 BYTE   W03
 BYTE   W01
 BYTE   N24  Bn1
 BYTE   W02
 BYTE   W03
 BYTE   W03
 BYTE   W03
 BYTE   W03
 BYTE   W03
 BYTE   W03
 BYTE   W03
 BYTE   W03
 BYTE   W02
 BYTE   N60  Cn2
 BYTE   W01
 BYTE   W01
 BYTE   W02
 BYTE   W01
 BYTE   W02
 BYTE   W01
 BYTE   W02
 BYTE   W01
 BYTE   W02
 BYTE   W01
 BYTE   W02
 BYTE   W01
 BYTE   W02
 BYTE   W01
 BYTE   W02
 BYTE   W01
 BYTE   W02
 BYTE   W01
 BYTE   W02
 BYTE   W01
 BYTE   W02
 BYTE   W01
 BYTE   W02
 BYTE   W01
 BYTE   W02
 BYTE   W01
 BYTE   W02
 BYTE   W01
 BYTE   W01
// 011   ----------------------------------------
 BYTE   W01
 BYTE   W01
 BYTE   W02
 BYTE   W01
 BYTE   W02
 BYTE   W01
 BYTE   W02
 BYTE   W01
 BYTE   W02
 BYTE   W01
 BYTE   W02
 BYTE   W01
 BYTE   W03
 BYTE   W03
 BYTE   W03
 BYTE   W03
 BYTE   W03
 BYTE   W03
 BYTE   W03
 BYTE   W03
 BYTE   W03
 BYTE   W03
 BYTE   W03
 BYTE   W03
 BYTE   W03
 BYTE   W03
 BYTE   W03
 BYTE   W03
 BYTE   W03
 BYTE   W03
 BYTE   W03
 BYTE   W03
 BYTE   W03
 BYTE   W03
 BYTE   W03
 BYTE   W03
 BYTE   W03
 BYTE   W03
 BYTE   W01
// 012   ----------------------------------------
 BYTE   W02
 BYTE   W03
 BYTE   W03
 BYTE   W03
 BYTE   W03
 BYTE   W03
 BYTE   W03
 BYTE   W03
 BYTE   W03
 BYTE   W03
 BYTE   W03
 BYTE   W03
 BYTE   W03
 BYTE   W03
 BYTE   W03
 BYTE   W03
 BYTE   W03
 BYTE   W03
 BYTE   W03
 BYTE   W03
 BYTE   W03
 BYTE   W03
 BYTE   W03
 BYTE   W03
 BYTE   W03
 BYTE   W03
 BYTE   W02
 BYTE   W17
// 013   ----------------------------------------
 BYTE   W03
 BYTE   W10
 BYTE   W10
 BYTE   W10
 BYTE   W10
 BYTE   W09
 BYTE   TIE  Fs1  v096
 BYTE   W01
 BYTE   W03
 BYTE   W03
 BYTE   W03
 BYTE   W03
 BYTE   W03
 BYTE   W03
 BYTE   W03
 BYTE   W03
 BYTE   W02
 BYTE   W10
 BYTE   W04
 BYTE   W03
// 014   ----------------------------------------
 BYTE   W02
 BYTE   W04
 BYTE   W05
 BYTE   W05
 BYTE   W04
 BYTE   W05
 BYTE   W04
 BYTE   W05
 BYTE   W05
 BYTE   W04
 BYTE   W05
 BYTE   W04
 BYTE   W05
 BYTE   W05
 BYTE   W04
 BYTE   W05
 BYTE   W04
 BYTE   W05
 BYTE   W05
 BYTE   W04
 BYTE   W05
 BYTE   W02
// 015   ----------------------------------------
 BYTE   W02
 BYTE   EOT
 BYTE   W01
 BYTE   TIE  Fn1  v108
 BYTE   W02
 BYTE   W03
 BYTE   W03
 BYTE   W03
 BYTE   W03
 BYTE   W03
 BYTE   W03
 BYTE   W03
 BYTE   W03
 BYTE   W03
 BYTE   W03
 BYTE   W03
 BYTE   W08
 BYTE   W04
 BYTE   W04
 BYTE   W05
 BYTE   W04
 BYTE   W04
 BYTE   W04
 BYTE   W04
 BYTE   W04
 BYTE   W04
 BYTE   W04
 BYTE   W04
 BYTE   W05
// 016   ----------------------------------------
 BYTE   W04
 BYTE   W04
 BYTE   W04
 BYTE   W04
 BYTE   W04
 BYTE   W04
 BYTE   W04
 BYTE   W05
 BYTE   W04
 BYTE   W04
 BYTE   W04
 BYTE   W04
 BYTE   W01
 BYTE   EOT
 BYTE   W01
 BYTE   TIE  En1  v112
 BYTE   W02
 BYTE   W04
 BYTE   W03
 BYTE   W03
 BYTE   W03
 BYTE   W03
 BYTE   W03
 BYTE   W03
 BYTE   W03
 BYTE   W03
 BYTE   W03
 BYTE   W03
 BYTE   W03
 BYTE   W03
 BYTE   W03
// 017   ----------------------------------------
 BYTE   W03
 BYTE   W11
 BYTE   W05
 BYTE   W05
 BYTE   W05
 BYTE   W05
 BYTE   W05
 BYTE   W05
 BYTE   W05
 BYTE   W05
 BYTE   W05
 BYTE   W05
 BYTE   W05
 BYTE   W05
 BYTE   W05
 BYTE   W05
 BYTE   W05
 BYTE   W05
 BYTE   W02
// 018   ----------------------------------------
 BYTE   W03
 BYTE   EOT
 BYTE   W01
 BYTE   N96  Ds1
 BYTE   W44
 BYTE   W13
 BYTE   W13
 BYTE   W06
 BYTE   W07
 BYTE   W06
 BYTE   W03
// 019   ----------------------------------------
 BYTE   W04
 BYTE   W01
 BYTE   N22  Bn0
 BYTE   W14
 BYTE   W09
 BYTE   N23  Cs1  v108
 BYTE   W09
 BYTE   W06
 BYTE   W03
 BYTE   W06
 BYTE   TIE  Dn1  v112
 BYTE   W03
 BYTE   W03
 BYTE   W03
 BYTE   W03
 BYTE   W03
 BYTE   W03
 BYTE   W03
 BYTE   W03
 BYTE   W03
 BYTE   W03
 BYTE   W03
 BYTE   W03
 BYTE   W03
 BYTE   W03
 BYTE   W02
// 020   ----------------------------------------
 BYTE   W01
 BYTE   W03
 BYTE   W03
 BYTE   W03
 BYTE   W03
 BYTE   W03
 BYTE   W03
 BYTE   W03
 BYTE   W03
 BYTE   W03
 BYTE   W03
 BYTE   W03
 BYTE   W03
 BYTE   W03
 BYTE   W03
 BYTE   W03
 BYTE   W03
 BYTE   W03
 BYTE   W03
 BYTE   W03
 BYTE   W03
 BYTE   W03
 BYTE   W03
 BYTE   W03
 BYTE   W03
 BYTE   W03
 BYTE   W03
 BYTE   W03
 BYTE   EOT
 BYTE   W01
 BYTE   W02
 BYTE   W01
 BYTE   W02
 BYTE   W01
 BYTE   W02
 BYTE   W01
 BYTE   W02
 BYTE   W01
 BYTE   W01
// 021   ----------------------------------------
 BYTE   W01
 BYTE   W01
 BYTE   W02
 BYTE   W01
 BYTE   W02
 BYTE   W01
 BYTE   W02
 BYTE   W01
 BYTE   W02
 BYTE   W01
 BYTE   W02
 BYTE   W01
 BYTE   W02
 BYTE   W01
 BYTE   W02
 BYTE   W01
 BYTE   W02
 BYTE   W01
 BYTE   W02
 BYTE   W01
 BYTE   W02
 BYTE   W01
 BYTE   W02
 BYTE   W01
 BYTE   W02
 BYTE   W01
 BYTE   W02
 BYTE   W01
 BYTE   W02
 BYTE   W01
 BYTE   W02
 BYTE   W01
 BYTE   W02
 BYTE   W01
 BYTE   W02
 BYTE   W01
 BYTE   W02
 BYTE   W01
 BYTE   W02
 BYTE   W01
 BYTE   W02
 BYTE   W01
 BYTE   W02
 BYTE   W01
 BYTE   W02
 BYTE   W01
 BYTE   W02
 BYTE   W01
 BYTE   W02
 BYTE   W01
 BYTE   W02
 BYTE   W01
 BYTE   W01
 BYTE   W03
 BYTE   W03
 BYTE   W03
 BYTE   W03
 BYTE   W03
 BYTE   W03
// 022   ----------------------------------------
 BYTE   W03
 BYTE   W03
 BYTE   W03
 BYTE   W03
 BYTE   W03
 BYTE   W03
 BYTE   W03
 BYTE   W03
 BYTE   W03
 BYTE   W03
 BYTE   W03
 BYTE   W03
 BYTE   W03
 BYTE   W03
 BYTE   W03
 BYTE   W03
 BYTE   W03
 BYTE   W02
 BYTE   N72  Bn0  v092
 BYTE   W01
 BYTE   W01
 BYTE   W04
 BYTE   W05
 BYTE   W04
 BYTE   W05
 BYTE   W04
 BYTE   W04
 BYTE   W05
 BYTE   W04
 BYTE   W05
 BYTE   W01
// 023   ----------------------------------------
 BYTE   W03
 BYTE   W04
 BYTE   W05
 BYTE   W04
 BYTE   W05
 BYTE   W04
 BYTE   W04
 BYTE   W01
 BYTE   N68  En1  v096
 BYTE   W04
 BYTE   W04
 BYTE   W05
 BYTE   W04
 BYTE   W04
 BYTE   W05
 BYTE   W04
 BYTE   W05
 BYTE   W04
 BYTE   W04
 BYTE   W05
 BYTE   W04
 BYTE   W05
 BYTE   W04
 BYTE   W04
 BYTE   W01
// 024   ----------------------------------------
 BYTE   W04
 BYTE   W01
 BYTE   Fs1  v088
 BYTE   W05
 BYTE   W04
 BYTE   W03
 BYTE   W03
 BYTE   W04
 BYTE   W03
 BYTE   W03
 BYTE   W04
 BYTE   W03
 BYTE   W03
 BYTE   W04
 BYTE   W03
 BYTE   W04
 BYTE   W03
 BYTE   W03
 BYTE   W03
 BYTE   W04
 BYTE   W03
 BYTE   W03
 BYTE   W04
 BYTE   W02
 BYTE   Fn1  v080
 BYTE   W01
 BYTE   W03
 BYTE   W04
 BYTE   W03
 BYTE   W04
 BYTE   W03
 BYTE   W02
// 025   ----------------------------------------
 BYTE   W01
 BYTE   W04
 BYTE   W03
 BYTE   W03
 BYTE   W04
 BYTE   W03
 BYTE   W03
 BYTE   W04
 BYTE   W03
 BYTE   W03
 BYTE   W04
 BYTE   W03
 BYTE   W03
 BYTE   W04
 BYTE   W48
 BYTE   W03
// 026   ----------------------------------------
 BYTE   W96
// 027   ----------------------------------------
 BYTE   W96
// 028   ----------------------------------------
 BYTE   W96
// 029   ----------------------------------------
 BYTE   W96
// 030   ----------------------------------------
 BYTE   W96
// 031   ----------------------------------------
 BYTE   W96
// 032   ----------------------------------------
 BYTE   W96
// 033   ----------------------------------------
 BYTE   W96
// 034   ----------------------------------------
 BYTE   W96
// 035   ----------------------------------------
 BYTE   W96
// 036   ----------------------------------------
 BYTE   W96
// 037   ----------------------------------------
 BYTE   W96
// 038   ----------------------------------------
 BYTE   W96
// 039   ----------------------------------------
 BYTE   W96
// 040   ----------------------------------------
 BYTE   W96
// 041   ----------------------------------------
 BYTE   W96
// 042   ----------------------------------------
 BYTE   W96
// 043   ----------------------------------------
 BYTE   W96
// 044   ----------------------------------------
 BYTE   W96
// 045   ----------------------------------------
 BYTE   W96
// 046   ----------------------------------------
 BYTE   W96
// 047   ----------------------------------------
 BYTE   W96
// 048   ----------------------------------------
 BYTE   W96
// 049   ----------------------------------------
 BYTE   W96
// 050   ----------------------------------------
 BYTE   W96
// 051   ----------------------------------------
 BYTE   W96
// 052   ----------------------------------------
 BYTE   W84
 BYTE   GoTo
  POIN2 Label_12_01804106
 BYTE   FINE

//**************** Track 14 (Midi-Chn.13) ****************//

FE12ThemeOfLoveSwiftSaturn_014:
// 000   ----------------------------------------
 BYTE   KEYSH   FE12ThemeOfLoveSwiftSaturn_key+0
Label_13_01804476:
 BYTE   VOICE   1
 BYTE   VOL   73*FE12ThemeOfLoveSwiftSaturn_mvl/mxv
 BYTE   PAN   c_v+6
 BYTE   W96
// 001   ----------------------------------------
 BYTE   W96
// 002   ----------------------------------------
 BYTE   W44
 BYTE   W03
 BYTE   W01
 BYTE   N48  Fs4  v127
 BYTE   W01
 BYTE   W01
 BYTE   W02
 BYTE   W01
 BYTE   W02
 BYTE   W03
 BYTE   W02
 BYTE   W01
 BYTE   W02
 BYTE   W01
 BYTE   W02
 BYTE   W01
 BYTE   W02
 BYTE   W01
 BYTE   W02
 BYTE   W01
 BYTE   W02
 BYTE   W01
 BYTE   W02
 BYTE   W01
 BYTE   W02
 BYTE   W01
 BYTE   W02
 BYTE   W01
 BYTE   W02
 BYTE   W01
 BYTE   W02
 BYTE   W01
 BYTE   W02
 BYTE   W01
 BYTE   W02
// 003   ----------------------------------------
 BYTE   W01
 BYTE   TIE  Fn4  v108
 BYTE   W02
 BYTE   W03
 BYTE   W03
 BYTE   W03
 BYTE   W03
 BYTE   W03
 BYTE   W03
 BYTE   W03
 BYTE   W03
 BYTE   W03
 BYTE   W03
 BYTE   W03
 BYTE   W03
 BYTE   W01
 BYTE   W13
 BYTE   W09
 BYTE   W09
 BYTE   W09
 BYTE   W09
 BYTE   W05
 BYTE   W02
// 004   ----------------------------------------
 BYTE   W02
 BYTE   W05
 BYTE   W04
 BYTE   W05
 BYTE   W04
 BYTE   W05
 BYTE   W04
 BYTE   W05
 BYTE   W04
 BYTE   W04
 BYTE   W05
 BYTE   EOT
 BYTE   W01
 BYTE   TIE  En4  v127
 BYTE   W08
 BYTE   W04
 BYTE   W05
 BYTE   W04
 BYTE   W05
 BYTE   W04
 BYTE   W05
 BYTE   W04
 BYTE   W05
 BYTE   W04
// 005   ----------------------------------------
 BYTE   W05
 BYTE   W04
 BYTE   W04
 BYTE   W05
 BYTE   W04
 BYTE   W05
 BYTE   W04
 BYTE   W05
 BYTE   W04
 BYTE   W05
 BYTE   W04
 BYTE   W05
 BYTE   W04
 BYTE   W05
 BYTE   W04
 BYTE   W04
 BYTE   W05
 BYTE   W04
 BYTE   W05
 BYTE   W04
 BYTE   W05
 BYTE   W02
// 006   ----------------------------------------
 BYTE   EOT
 BYTE   N96  Ds4
 BYTE   W02
 BYTE   W03
 BYTE   W03
 BYTE   W03
 BYTE   W03
 BYTE   W03
 BYTE   W03
 BYTE   W03
 BYTE   W03
 BYTE   W03
 BYTE   W03
 BYTE   W03
 BYTE   W03
 BYTE   W03
 BYTE   W03
 BYTE   W03
 BYTE   W03
 BYTE   W03
 BYTE   W03
 BYTE   W03
 BYTE   W03
 BYTE   W03
 BYTE   W03
 BYTE   W03
 BYTE   W03
 BYTE   W03
 BYTE   W03
 BYTE   W03
 BYTE   W03
 BYTE   W03
 BYTE   W03
 BYTE   W03
 BYTE   W01
// 007   ----------------------------------------
 BYTE   N23  Bn3  v112
 BYTE   W02
 BYTE   W17
 BYTE   W05
 BYTE   N24  Cs4
 BYTE   W03
 BYTE   W09
 BYTE   W08
 BYTE   W05
 BYTE   TIE  Dn4  v127
 BYTE   W04
 BYTE   W12
 BYTE   W06
 BYTE   W06
 BYTE   W06
 BYTE   W06
 BYTE   W05
 BYTE   W02
// 008   ----------------------------------------
 BYTE   W04
 BYTE   W06
 BYTE   W06
 BYTE   W06
 BYTE   W06
 BYTE   W06
 BYTE   W06
 BYTE   W06
 BYTE   W06
 BYTE   W06
 BYTE   W06
 BYTE   W06
 BYTE   W06
 BYTE   W06
 BYTE   W06
 BYTE   W06
 BYTE   W02
// 009   ----------------------------------------
 BYTE   EOT
 BYTE   N72  Cs4
 BYTE   W03
 BYTE   W06
 BYTE   W06
 BYTE   W03
 BYTE   W03
 BYTE   W06
 BYTE   W03
 BYTE   W03
 BYTE   W03
 BYTE   W03
 BYTE   W03
 BYTE   W03
 BYTE   W03
 BYTE   W03
 BYTE   W03
 BYTE   W03
 BYTE   W03
 BYTE   W03
 BYTE   W03
 BYTE   W03
 BYTE   W03
 BYTE   W01
 BYTE   N23  Fs4  v108
 BYTE   W02
 BYTE   W01
 BYTE   W02
 BYTE   W01
 BYTE   W02
 BYTE   W01
 BYTE   W02
 BYTE   W01
 BYTE   W02
 BYTE   W01
 BYTE   W02
 BYTE   W01
 BYTE   W02
 BYTE   W01
 BYTE   W02
// 010   ----------------------------------------
 BYTE   W01
 BYTE   N20  An3  v112
 BYTE   W02
 BYTE   W03
 BYTE   W03
 BYTE   W03
 BYTE   W03
 BYTE   W03
 BYTE   W03
 BYTE   N28  Bn3
 BYTE   W03
 BYTE   W03
 BYTE   W03
 BYTE   W03
 BYTE   W03
 BYTE   W03
 BYTE   W03
 BYTE   W03
 BYTE   W01
 BYTE   W04
 BYTE   TIE  Cn4  v127
 BYTE   W05
 BYTE   W05
 BYTE   W05
 BYTE   W04
 BYTE   W05
 BYTE   W04
 BYTE   W05
 BYTE   W04
 BYTE   W05
 BYTE   W04
// 011   ----------------------------------------
 BYTE   W05
 BYTE   W04
 BYTE   W05
 BYTE   W04
 BYTE   W05
 BYTE   W04
 BYTE   W05
 BYTE   W04
 BYTE   W05
 BYTE   W04
 BYTE   W05
 BYTE   W04
 BYTE   W05
 BYTE   W04
 BYTE   W05
 BYTE   W04
 BYTE   W05
 BYTE   W04
 BYTE   W05
 BYTE   W04
 BYTE   W05
 BYTE   EOT
 BYTE   N72  Cs4
 BYTE   W01
// 012   ----------------------------------------
 BYTE   W17
 BYTE   W14
 BYTE   W09
 BYTE   W09
 BYTE   W09
 BYTE   W09
 BYTE   W05
 BYTE   N24  Bn3  v112
 BYTE   W04
 BYTE   W05
 BYTE   W04
 BYTE   W05
 BYTE   W04
 BYTE   W02
// 013   ----------------------------------------
 BYTE   W01
 BYTE   An3
 BYTE   W02
 BYTE   W04
 BYTE   W05
 BYTE   W05
 BYTE   W04
 BYTE   W04
 BYTE   N23  Gs3
 BYTE   W01
 BYTE   W04
 BYTE   W05
 BYTE   W04
 BYTE   W05
 BYTE   W04
 BYTE   TIE  Fs3  v127
 BYTE   W02
 BYTE   W01
 BYTE   W02
 BYTE   W01
 BYTE   W02
 BYTE   W01
 BYTE   W02
 BYTE   W01
 BYTE   W02
 BYTE   W01
 BYTE   W02
 BYTE   W01
 BYTE   W01
 BYTE   W08
 BYTE   W04
 BYTE   W04
 BYTE   W05
 BYTE   W04
 BYTE   W04
// 014   ----------------------------------------
 BYTE   W04
 BYTE   W04
 BYTE   W04
 BYTE   W04
 BYTE   W04
 BYTE   W04
 BYTE   W05
 BYTE   W04
 BYTE   W04
 BYTE   W04
 BYTE   W04
 BYTE   W04
 BYTE   W04
 BYTE   W04
 BYTE   W05
 BYTE   W04
 BYTE   W04
 BYTE   W04
 BYTE   W04
 BYTE   W04
 BYTE   W04
 BYTE   W04
 BYTE   W04
 BYTE   EOT
 BYTE   W01
 BYTE   TIE  Fn3
 BYTE   W01
// 015   ----------------------------------------
 BYTE   W02
 BYTE   W03
 BYTE   W03
 BYTE   W03
 BYTE   W03
 BYTE   W03
 BYTE   W03
 BYTE   W03
 BYTE   W02
 BYTE   W05
 BYTE   W05
 BYTE   W05
 BYTE   W05
 BYTE   W05
 BYTE   W05
 BYTE   W05
 BYTE   W05
 BYTE   W04
 BYTE   W05
 BYTE   W05
 BYTE   W05
 BYTE   W05
 BYTE   W05
 BYTE   W02
// 016   ----------------------------------------
 BYTE   W03
 BYTE   W05
 BYTE   W05
 BYTE   W05
 BYTE   W05
 BYTE   W05
 BYTE   W05
 BYTE   W05
 BYTE   W05
 BYTE   W03
 BYTE   EOT
 BYTE   W01
 BYTE   TIE  En3
 BYTE   W01
 BYTE   W01
 BYTE   W02
 BYTE   W01
 BYTE   W02
 BYTE   W01
 BYTE   W02
 BYTE   W01
 BYTE   W02
 BYTE   W01
 BYTE   W02
 BYTE   W01
 BYTE   W02
 BYTE   W01
 BYTE   W02
 BYTE   W01
 BYTE   W02
 BYTE   W06
 BYTE   W04
 BYTE   W03
 BYTE   W04
 BYTE   W03
 BYTE   W03
 BYTE   W01
// 017   ----------------------------------------
 BYTE   W03
 BYTE   W03
 BYTE   W04
 BYTE   W03
 BYTE   W04
 BYTE   W03
 BYTE   W03
 BYTE   W04
 BYTE   W03
 BYTE   W04
 BYTE   W03
 BYTE   W03
 BYTE   W04
 BYTE   W03
 BYTE   W04
 BYTE   W03
 BYTE   W04
 BYTE   W03
 BYTE   W03
 BYTE   W04
 BYTE   W03
 BYTE   W04
 BYTE   W03
 BYTE   W04
 BYTE   W03
 BYTE   W03
 BYTE   W04
 BYTE   W03
 BYTE   W01
// 018   ----------------------------------------
 BYTE   EOT
 BYTE   W01
 BYTE   N92  Ds3
 BYTE   W01
 BYTE   W02
 BYTE   W01
 BYTE   W02
 BYTE   W01
 BYTE   W02
 BYTE   W01
 BYTE   W02
 BYTE   W01
 BYTE   W01
 BYTE   W08
 BYTE   W04
 BYTE   W04
 BYTE   W04
 BYTE   W04
 BYTE   W04
 BYTE   W04
 BYTE   W04
 BYTE   W03
 BYTE   W04
 BYTE   W04
 BYTE   W04
 BYTE   W04
 BYTE   W04
 BYTE   W04
 BYTE   W04
 BYTE   W04
 BYTE   W04
 BYTE   W03
 BYTE   W03
// 019   ----------------------------------------
 BYTE   W01
 BYTE   N24  Bn3
 BYTE   W03
 BYTE   W03
 BYTE   W03
 BYTE   W03
 BYTE   W03
 BYTE   W03
 BYTE   W03
 BYTE   W03
 BYTE   Cs4
 BYTE   W03
 BYTE   W03
 BYTE   W03
 BYTE   W03
 BYTE   W03
 BYTE   W03
 BYTE   W03
 BYTE   W03
 BYTE   TIE  Dn4
 BYTE   W08
 BYTE   W06
 BYTE   W06
 BYTE   W05
 BYTE   W06
 BYTE   W06
 BYTE   W05
 BYTE   W05
// 020   ----------------------------------------
 BYTE   W01
 BYTE   W06
 BYTE   W05
 BYTE   W06
 BYTE   W05
 BYTE   W06
 BYTE   W06
 BYTE   W05
 BYTE   W06
 BYTE   W06
 BYTE   W05
 BYTE   W06
 BYTE   W05
 BYTE   W06
 BYTE   W06
 BYTE   W05
 BYTE   W06
 BYTE   W04
 BYTE   EOT
 BYTE   W01
// 021   ----------------------------------------
 BYTE   N68  Cs4
 BYTE   W01
 BYTE   W05
 BYTE   W06
 BYTE   W05
 BYTE   W06
 BYTE   W06
 BYTE   W05
 BYTE   W06
 BYTE   W06
 BYTE   W05
 BYTE   W06
 BYTE   W05
 BYTE   W06
 BYTE   W03
 BYTE   N72  Cn4
 BYTE   W03
 BYTE   W06
 BYTE   W06
 BYTE   W03
 BYTE   W03
 BYTE   W03
 BYTE   W01
// 022   ----------------------------------------
 BYTE   W02
 BYTE   W03
 BYTE   W03
 BYTE   W03
 BYTE   W03
 BYTE   W03
 BYTE   W03
 BYTE   W03
 BYTE   W03
 BYTE   W03
 BYTE   W03
 BYTE   W03
 BYTE   W03
 BYTE   W03
 BYTE   W03
 BYTE   W03
 BYTE   W01
 BYTE   N68  Bn3
 BYTE   W02
 BYTE   W03
 BYTE   W03
 BYTE   W03
 BYTE   W03
 BYTE   W03
 BYTE   W03
 BYTE   W03
 BYTE   W03
 BYTE   W03
 BYTE   W03
 BYTE   W03
 BYTE   W03
 BYTE   W03
 BYTE   W03
 BYTE   W03
 BYTE   W01
// 023   ----------------------------------------
 BYTE   W02
 BYTE   W03
 BYTE   W03
 BYTE   W03
 BYTE   W03
 BYTE   W03
 BYTE   W03
 BYTE   W03
 BYTE   En4  v120
 BYTE   W01
 BYTE   W12
 BYTE   W09
 BYTE   W06
 BYTE   W06
 BYTE   W06
 BYTE   W03
 BYTE   W03
 BYTE   W03
 BYTE   W03
 BYTE   W03
 BYTE   W03
 BYTE   W03
 BYTE   W03
 BYTE   W03
 BYTE   W03
 BYTE   W02
 BYTE   N72  Fs4  v127
 BYTE   W01
// 024   ----------------------------------------
 BYTE   W14
 BYTE   W07
 BYTE   W07
 BYTE   W07
 BYTE   W06
 BYTE   W07
 BYTE   W07
 BYTE   W07
 BYTE   W07
 BYTE   W04
 BYTE   Fn4
 BYTE   W02
 BYTE   W07
 BYTE   W07
 BYTE   W07
// 025   ----------------------------------------
 BYTE   W07
 BYTE   W06
 BYTE   W07
 BYTE   W07
 BYTE   W07
 BYTE   W07
 BYTE   W06
 BYTE   W48
 BYTE   W01
// 026   ----------------------------------------
 BYTE   W96
// 027   ----------------------------------------
 BYTE   W96
// 028   ----------------------------------------
 BYTE   W96
// 029   ----------------------------------------
 BYTE   W96
// 030   ----------------------------------------
 BYTE   W96
// 031   ----------------------------------------
 BYTE   W96
// 032   ----------------------------------------
 BYTE   W96
// 033   ----------------------------------------
 BYTE   W96
// 034   ----------------------------------------
 BYTE   W96
// 035   ----------------------------------------
 BYTE   W96
// 036   ----------------------------------------
 BYTE   W96
// 037   ----------------------------------------
 BYTE   W96
// 038   ----------------------------------------
 BYTE   W96
// 039   ----------------------------------------
 BYTE   W96
// 040   ----------------------------------------
 BYTE   W96
// 041   ----------------------------------------
 BYTE   W96
// 042   ----------------------------------------
 BYTE   W96
// 043   ----------------------------------------
 BYTE   W96
// 044   ----------------------------------------
 BYTE   W96
// 045   ----------------------------------------
 BYTE   W96
// 046   ----------------------------------------
 BYTE   W96
// 047   ----------------------------------------
 BYTE   W96
// 048   ----------------------------------------
 BYTE   W96
// 049   ----------------------------------------
 BYTE   W96
// 050   ----------------------------------------
 BYTE   W96
// 051   ----------------------------------------
 BYTE   W96
// 052   ----------------------------------------
 BYTE   W84
 BYTE   GoTo
  POIN2 Label_13_01804476
 BYTE   FINE

//**************** Track 15 (Midi-Chn.14) ****************//

FE12ThemeOfLoveSwiftSaturn_015:
// 000   ----------------------------------------
 BYTE   KEYSH   FE12ThemeOfLoveSwiftSaturn_key+0
Label_14_0180473A:
 BYTE   VOICE   40
 BYTE   VOL   80*FE12ThemeOfLoveSwiftSaturn_mvl/mxv
 BYTE   PAN   c_v-9
 BYTE   W96
// 001   ----------------------------------------
 BYTE   W96
// 002   ----------------------------------------
 BYTE   W21
 BYTE   W02
 BYTE   N52  Bn4  v076
 BYTE   W01
 BYTE   W03
 BYTE   W02
 BYTE   W03
 BYTE   W03
 BYTE   W03
 BYTE   W03
 BYTE   W03
 BYTE   W03
 BYTE   W03
 BYTE   W03
 BYTE   W03
 BYTE   W03
 BYTE   W03
 BYTE   W03
 BYTE   W03
 BYTE   W03
 BYTE   W02
 BYTE   W01
 BYTE   W02
 BYTE   W01
 BYTE   W02
 BYTE   W01
 BYTE   W02
 BYTE   W01
 BYTE   W02
 BYTE   W01
 BYTE   W02
 BYTE   W01
 BYTE   W02
 BYTE   W01
 BYTE   W01
 BYTE   TIE  Cs4  v092
 BYTE   W01
 BYTE   W02
// 003   ----------------------------------------
 BYTE   W17
 BYTE   W03
 BYTE   W03
 BYTE   W03
 BYTE   W03
 BYTE   W03
 BYTE   W03
 BYTE   W03
 BYTE   W03
 BYTE   W03
 BYTE   W03
 BYTE   W03
 BYTE   W03
 BYTE   W03
 BYTE   W03
 BYTE   W03
 BYTE   W03
 BYTE   W03
 BYTE   W03
 BYTE   W03
 BYTE   W03
 BYTE   W03
 BYTE   W03
 BYTE   W03
 BYTE   W03
 BYTE   W03
 BYTE   W03
 BYTE   W01
// 004   ----------------------------------------
 BYTE   W01
 BYTE   EOT
 BYTE   W01
 BYTE   W01
 BYTE   W03
 BYTE   W03
 BYTE   W03
 BYTE   W03
 BYTE   W03
 BYTE   W03
 BYTE   W02
 BYTE   N28  An4  v080
 BYTE   W01
 BYTE   W03
 BYTE   W01
 BYTE   W02
 BYTE   W01
 BYTE   W02
 BYTE   W01
 BYTE   W02
 BYTE   W01
 BYTE   W02
 BYTE   W01
 BYTE   W02
 BYTE   W01
 BYTE   W02
 BYTE   W01
 BYTE   W02
 BYTE   W06
 BYTE   W03
 BYTE   W03
 BYTE   W03
 BYTE   W01
 BYTE   W18
 BYTE   W09
 BYTE   W05
// 005   ----------------------------------------
 BYTE   W01
 BYTE   W03
 BYTE   W03
 BYTE   W03
 BYTE   W03
 BYTE   W03
 BYTE   W03
 BYTE   W03
 BYTE   W02
 BYTE   N48  Bn4  v076
 BYTE   W03
 BYTE   W03
 BYTE   W03
 BYTE   W03
 BYTE   W03
 BYTE   W03
 BYTE   W03
 BYTE   W03
 BYTE   W03
 BYTE   W03
 BYTE   W03
 BYTE   W03
 BYTE   W03
 BYTE   W03
 BYTE   W03
 BYTE   W02
 BYTE   W19
 BYTE   W06
// 006   ----------------------------------------
 BYTE   N72  Cs4  v084
 BYTE   W12
 BYTE   W14
 BYTE   W10
 BYTE   W09
 BYTE   W09
 BYTE   W10
 BYTE   W04
 BYTE   W10
 BYTE   W04
 BYTE   W05
 BYTE   W05
 BYTE   W04
// 007   ----------------------------------------
 BYTE   W05
 BYTE   W05
 BYTE   W04
 BYTE   W05
 BYTE   W05
 BYTE   W05
 BYTE   W04
 BYTE   W05
 BYTE   W05
 BYTE   W03
 BYTE   N76  Bn3  v104
 BYTE   W01
 BYTE   W05
 BYTE   W03
 BYTE   W03
 BYTE   W03
 BYTE   W03
 BYTE   W03
 BYTE   W03
 BYTE   W03
 BYTE   W03
 BYTE   W03
 BYTE   W03
 BYTE   W03
 BYTE   W03
 BYTE   W03
 BYTE   W03
 BYTE   W02
// 008   ----------------------------------------
 BYTE   W01
 BYTE   W03
 BYTE   W03
 BYTE   W03
 BYTE   W03
 BYTE   W03
 BYTE   W03
 BYTE   W03
 BYTE   W03
 BYTE   W03
 BYTE   W06
 BYTE   W03
 BYTE   W03
 BYTE   W03
 BYTE   W03
 BYTE   W06
 BYTE   W03
 BYTE   W03
 BYTE   W06
 BYTE   W03
 BYTE   W03
 BYTE   W06
 BYTE   W03
 BYTE   W06
 BYTE   W06
 BYTE   W03
 BYTE   En4  v084
 BYTE   W02
// 009   ----------------------------------------
 BYTE   W03
 BYTE   W18
 BYTE   W12
 BYTE   W13
 BYTE   W12
 BYTE   W06
 BYTE   W13
 BYTE   W06
 BYTE   W06
 BYTE   W06
 BYTE   W01
// 010   ----------------------------------------
 BYTE   W05
 BYTE   W06
 BYTE   W06
 BYTE   W07
 BYTE   W06
 BYTE   W06
 BYTE   W06
 BYTE   W05
 BYTE   TIE  An3  v096
 BYTE   W01
 BYTE   W08
 BYTE   W05
 BYTE   W04
 BYTE   W04
 BYTE   W04
 BYTE   W04
 BYTE   W04
 BYTE   W04
 BYTE   W04
 BYTE   W04
 BYTE   W03
// 011   ----------------------------------------
 BYTE   W02
 BYTE   W04
 BYTE   W04
 BYTE   W04
 BYTE   W04
 BYTE   W04
 BYTE   W04
 BYTE   W04
 BYTE   W05
 BYTE   W04
 BYTE   W04
 BYTE   W04
 BYTE   W03
 BYTE   W02
 BYTE   EOT
 BYTE   W01
 BYTE   W03
 BYTE   W03
 BYTE   W03
 BYTE   W03
 BYTE   W03
 BYTE   W01
 BYTE   N28  Fs3  v100
 BYTE   W02
 BYTE   W01
 BYTE   W03
 BYTE   W03
 BYTE   W03
 BYTE   W03
 BYTE   W03
 BYTE   W03
 BYTE   W03
 BYTE   W03
// 012   ----------------------------------------
 BYTE   W09
 BYTE   W06
 BYTE   W06
 BYTE   W06
 BYTE   W03
 BYTE   W06
 BYTE   W06
 BYTE   W03
 BYTE   W06
 BYTE   W03
 BYTE   W03
 BYTE   W03
 BYTE   W06
 BYTE   W03
 BYTE   W03
 BYTE   W03
 BYTE   W03
 BYTE   W03
 BYTE   W03
 BYTE   W03
 BYTE   W03
 BYTE   W03
 BYTE   W03
// 013   ----------------------------------------
 BYTE   W03
 BYTE   W03
 BYTE   W03
 BYTE   W03
 BYTE   W03
 BYTE   W03
 BYTE   W03
 BYTE   W03
 BYTE   W03
 BYTE   W03
 BYTE   W03
 BYTE   W03
 BYTE   W03
 BYTE   W03
 BYTE   W03
 BYTE   W03
 BYTE   W02
 BYTE   W02
 BYTE   W01
 BYTE   W02
 BYTE   W01
 BYTE   W02
 BYTE   W01
 BYTE   W02
 BYTE   W01
 BYTE   W02
 BYTE   W01
 BYTE   W02
 BYTE   W01
 BYTE   W02
 BYTE   W01
 BYTE   W01
 BYTE   W24
// 014   ----------------------------------------
 BYTE   W48
 BYTE   W02
 BYTE   W36
 BYTE   W02
 BYTE   W08
// 015   ----------------------------------------
 BYTE   W28
 BYTE   W01
 BYTE   W36
 BYTE   W01
 BYTE   W30
// 016   ----------------------------------------
 BYTE   W08
 BYTE   W36
 BYTE   W01
 BYTE   W36
 BYTE   W01
 BYTE   W14
// 017   ----------------------------------------
 BYTE   W24
 BYTE   W36
 BYTE   W01
 BYTE   W32
 BYTE   W03
// 018   ----------------------------------------
 BYTE   W02
 BYTE   W02
 BYTE   W01
 BYTE   W02
 BYTE   W01
 BYTE   W02
 BYTE   W01
 BYTE   W01
 BYTE   W11
 BYTE   W05
 BYTE   W06
 BYTE   W05
 BYTE   W06
 BYTE   W05
 BYTE   W06
 BYTE   W05
 BYTE   W06
 BYTE   W09
 BYTE   W06
 BYTE   W06
 BYTE   W06
 BYTE   W02
// 019   ----------------------------------------
 BYTE   W01
 BYTE   W03
 BYTE   W03
 BYTE   W03
 BYTE   W03
 BYTE   W03
 BYTE   W03
 BYTE   W03
 BYTE   W03
 BYTE   W03
 BYTE   W03
 BYTE   W03
 BYTE   W03
 BYTE   W03
 BYTE   W03
 BYTE   W03
 BYTE   W03
 BYTE   W03
 BYTE   W01
 BYTE   W02
 BYTE   W01
 BYTE   W02
 BYTE   W01
 BYTE   W02
 BYTE   W01
 BYTE   W02
 BYTE   W01
 BYTE   W02
 BYTE   W01
 BYTE   W02
 BYTE   W01
 BYTE   W12
 BYTE   W06
 BYTE   W06
 BYTE   W01
// 020   ----------------------------------------
 BYTE   N24  Gs4  v092
 BYTE   W04
 BYTE   W06
 BYTE   W06
 BYTE   W06
 BYTE   W06
 BYTE   W06
 BYTE   W05
 BYTE   W06
 BYTE   W02
 BYTE   Gs4  v084
 BYTE   W01
 BYTE   W03
 BYTE   W03
 BYTE   W03
 BYTE   W03
 BYTE   W03
 BYTE   W03
 BYTE   W03
 BYTE   W03
 BYTE   W03
 BYTE   W03
 BYTE   W03
 BYTE   W03
 BYTE   W03
 BYTE   W03
 BYTE   W02
 BYTE   W01
 BYTE   W02
 BYTE   Bn4  v072
 BYTE   W01
// 021   ----------------------------------------
 BYTE   W03
 BYTE   W03
 BYTE   W03
 BYTE   W03
 BYTE   W03
 BYTE   W03
 BYTE   W03
 BYTE   W03
 BYTE   W03
 BYTE   W03
 BYTE   W03
 BYTE   W03
 BYTE   W03
 BYTE   W03
 BYTE   W03
 BYTE   W02
 BYTE   N28  Gs4  v080
 BYTE   W01
 BYTE   W03
 BYTE   W03
 BYTE   W03
 BYTE   W03
 BYTE   W03
 BYTE   W03
 BYTE   W03
 BYTE   W03
 BYTE   W03
 BYTE   W03
 BYTE   W03
 BYTE   W03
 BYTE   W03
 BYTE   W03
 BYTE   W03
 BYTE   W03
// 022   ----------------------------------------
 BYTE   N23  Fn4
 BYTE   W03
 BYTE   W03
 BYTE   W03
 BYTE   W03
 BYTE   W03
 BYTE   W03
 BYTE   W03
 BYTE   W01
 BYTE   W11
 BYTE   W05
 BYTE   W06
 BYTE   W02
 BYTE   N72  Cs4  v068
 BYTE   W03
 BYTE   W23
 BYTE   W15
 BYTE   W07
 BYTE   W02
// 023   ----------------------------------------
 BYTE   W06
 BYTE   W07
 BYTE   W08
 BYTE   W72
 BYTE   W02
 BYTE   An3  v092
 BYTE   W01
// 024   ----------------------------------------
 BYTE   W11
 BYTE   W09
 BYTE   W09
 BYTE   W03
 BYTE   W06
 BYTE   W03
 BYTE   W06
 BYTE   W03
 BYTE   W03
 BYTE   W03
 BYTE   W03
 BYTE   W03
 BYTE   W03
 BYTE   W03
 BYTE   W03
 BYTE   W02
 BYTE   W06
 BYTE   W03
 BYTE   W06
 BYTE   W03
 BYTE   W03
 BYTE   W02
// 025   ----------------------------------------
 BYTE   W01
 BYTE   W03
 BYTE   W03
 BYTE   W03
 BYTE   W03
 BYTE   W03
 BYTE   W03
 BYTE   W03
 BYTE   W03
 BYTE   W03
 BYTE   W03
 BYTE   W03
 BYTE   W03
 BYTE   W03
 BYTE   W03
 BYTE   W03
 BYTE   N76  Cs4
 BYTE   W01
 BYTE   W02
 BYTE   W01
 BYTE   W02
 BYTE   W01
 BYTE   W02
 BYTE   W03
 BYTE   W03
 BYTE   W03
 BYTE   W03
 BYTE   W03
 BYTE   W03
 BYTE   W03
 BYTE   W03
 BYTE   W03
 BYTE   W03
 BYTE   W03
 BYTE   W03
 BYTE   W03
 BYTE   W02
// 026   ----------------------------------------
 BYTE   W01
 BYTE   W03
 BYTE   W03
 BYTE   W03
 BYTE   W03
 BYTE   W03
 BYTE   W03
 BYTE   W76
 BYTE   W01
// 027   ----------------------------------------
 BYTE   W96
// 028   ----------------------------------------
 BYTE   W96
// 029   ----------------------------------------
 BYTE   W96
// 030   ----------------------------------------
 BYTE   W96
// 031   ----------------------------------------
 BYTE   W96
// 032   ----------------------------------------
 BYTE   W96
// 033   ----------------------------------------
 BYTE   W96
// 034   ----------------------------------------
 BYTE   W96
// 035   ----------------------------------------
 BYTE   W96
// 036   ----------------------------------------
 BYTE   W96
// 037   ----------------------------------------
 BYTE   W96
// 038   ----------------------------------------
 BYTE   W96
// 039   ----------------------------------------
 BYTE   W96
// 040   ----------------------------------------
 BYTE   W96
// 041   ----------------------------------------
 BYTE   W96
// 042   ----------------------------------------
 BYTE   W96
// 043   ----------------------------------------
 BYTE   W96
// 044   ----------------------------------------
 BYTE   W96
// 045   ----------------------------------------
 BYTE   W96
// 046   ----------------------------------------
 BYTE   W96
// 047   ----------------------------------------
 BYTE   W96
// 048   ----------------------------------------
 BYTE   W96
// 049   ----------------------------------------
 BYTE   W96
// 050   ----------------------------------------
 BYTE   W96
// 051   ----------------------------------------
 BYTE   W96
// 052   ----------------------------------------
 BYTE   W84
 BYTE   GoTo
  POIN2 Label_14_0180473A
 BYTE   FINE

//******************************************************//
	ALIGN 4

FE12ThemeOfLoveSwiftSaturn:
	BYTE	15	// NumTrks
	BYTE	0	// NumBlks
	BYTE	FE12ThemeOfLoveSwiftSaturn_pri	// Priority
	BYTE	FE12ThemeOfLoveSwiftSaturn_rev	// Reverb.
    
	POIN2	FE12ThemeOfLoveSwiftSaturn_grp
    
	POIN2	FE12ThemeOfLoveSwiftSaturn_001
	POIN2	FE12ThemeOfLoveSwiftSaturn_002
	POIN2	FE12ThemeOfLoveSwiftSaturn_003
	POIN2	FE12ThemeOfLoveSwiftSaturn_004
	POIN2	FE12ThemeOfLoveSwiftSaturn_005
	POIN2	FE12ThemeOfLoveSwiftSaturn_006
	POIN2	FE12ThemeOfLoveSwiftSaturn_007
	POIN2	FE12ThemeOfLoveSwiftSaturn_008
	POIN2	FE12ThemeOfLoveSwiftSaturn_009
	POIN2	FE12ThemeOfLoveSwiftSaturn_010
	POIN2	FE12ThemeOfLoveSwiftSaturn_011
	POIN2	FE12ThemeOfLoveSwiftSaturn_012
	POIN2	FE12ThemeOfLoveSwiftSaturn_013
	POIN2	FE12ThemeOfLoveSwiftSaturn_014
	POIN2	FE12ThemeOfLoveSwiftSaturn_015

	
