//Event file generated from Sappy .s format.
	#include "MPlayDef.event"

	#define	FE12VsHardinAzula_grp  voicegroup000
	#define	FE12VsHardinAzula_pri  0
	#define	FE12VsHardinAzula_rev  0
	#define	FE12VsHardinAzula_mvl  127
	#define	FE12VsHardinAzula_key  0
	#define	FE12VsHardinAzula_tbs  1
	#define	FE12VsHardinAzula_exg  0
	#define	FE12VsHardinAzula_cmp  1

	// .rodata
	//	FE12VsHardinAzula
	ALIGN 4


//**************** Track 1 (Midi-Chn.0) ****************//

FE12VsHardinAzula_001:
//  #01 //000   ----------------------------------------
 BYTE   KEYSH   FE12VsHardinAzula_key+0
 BYTE   TEMPO   184*FE12VsHardinAzula_tbs/2
 BYTE   VOICE   40
 BYTE   MODT 0
 BYTE   LFOS 44
 BYTE   VOL   45*FE12VsHardinAzula_mvl/mxv
 BYTE   PAN   c_v+0
 BYTE   VOL   45*FE12VsHardinAzula_mvl/mxv
 BYTE   BEND   c_v+0
 BYTE   N12  Cn3  v108
 BYTE   W12
 BYTE   Gn3  v080
 BYTE   W12
 BYTE   Fs3  v056
 BYTE   W12
 BYTE   Fn3  v112
 BYTE   W12
 BYTE   As3  v088
 BYTE   W12
 BYTE   An3  v064
 BYTE   W12
 BYTE   Gs3  v116
 BYTE   W12
 BYTE   Cs4  v096
 BYTE   W12
//  #01 //001   ----------------------------------------
 BYTE   Cn4  v072
 BYTE   W12
 BYTE   Bn3  v120
 BYTE   W12
 BYTE   En4  v104
 BYTE   W12
 BYTE   Ds4  v080
 BYTE   W12
 BYTE   Dn4  v127
 BYTE   W12
 BYTE   Gn4  v104
 BYTE   W12
 BYTE   Fs4  v080
 BYTE   W12
 BYTE   Fn4  v060
 BYTE   W12
//  #01 //002   ----------------------------------------
 BYTE   N84  As4  v072
 BYTE   W06
 BYTE   VOL   45*FE12VsHardinAzula_mvl/mxv
 BYTE   W01
 BYTE   VOL   41*FE12VsHardinAzula_mvl/mxv
 BYTE   W02
 BYTE   VOL   38*FE12VsHardinAzula_mvl/mxv
 BYTE   W01
 BYTE   VOL   34*FE12VsHardinAzula_mvl/mxv
 BYTE   W02
 BYTE   VOL   31*FE12VsHardinAzula_mvl/mxv
 BYTE   W01
 BYTE   VOL   29*FE12VsHardinAzula_mvl/mxv
 BYTE   W02
 BYTE   VOL   26*FE12VsHardinAzula_mvl/mxv
 BYTE   W01
 BYTE   VOL   23*FE12VsHardinAzula_mvl/mxv
 BYTE   W02
 BYTE   VOL   20*FE12VsHardinAzula_mvl/mxv
 BYTE   W03
 BYTE   VOL   20*FE12VsHardinAzula_mvl/mxv
 BYTE   W03
 BYTE   VOL   21*FE12VsHardinAzula_mvl/mxv
 BYTE   W03
 BYTE   VOL   21*FE12VsHardinAzula_mvl/mxv
 BYTE   W03
 BYTE   VOL   22*FE12VsHardinAzula_mvl/mxv
 BYTE   W03
 BYTE   VOL   22*FE12VsHardinAzula_mvl/mxv
 BYTE   W03
 BYTE   VOL   23*FE12VsHardinAzula_mvl/mxv
 BYTE   W03
 BYTE   VOL   24*FE12VsHardinAzula_mvl/mxv
 BYTE   W03
 BYTE   VOL   25*FE12VsHardinAzula_mvl/mxv
 BYTE   W03
 BYTE   VOL   26*FE12VsHardinAzula_mvl/mxv
 BYTE   W03
 BYTE   VOL   27*FE12VsHardinAzula_mvl/mxv
 BYTE   W03
 BYTE   VOL   28*FE12VsHardinAzula_mvl/mxv
 BYTE   W03
 BYTE   VOL   29*FE12VsHardinAzula_mvl/mxv
 BYTE   W03
 BYTE   VOL   30*FE12VsHardinAzula_mvl/mxv
 BYTE   W03
 BYTE   VOL   33*FE12VsHardinAzula_mvl/mxv
 BYTE   W03
 BYTE   VOL   35*FE12VsHardinAzula_mvl/mxv
 BYTE   W03
 BYTE   VOL   37*FE12VsHardinAzula_mvl/mxv
 BYTE   W03
 BYTE   VOL   40*FE12VsHardinAzula_mvl/mxv
 BYTE   W03
 BYTE   VOL   45*FE12VsHardinAzula_mvl/mxv
 BYTE   W24
//  #01 //003   ----------------------------------------
Label_01039FEA:
 BYTE   VOL   45*FE12VsHardinAzula_mvl/mxv
 BYTE   W96
//  #01 //004   ----------------------------------------
 BYTE   W60
 BYTE   N12  Cn3  v056
 BYTE   W12
 BYTE   Gn3  v076
 BYTE   W12
 BYTE   Cn4  v096
 BYTE   W12
//  #01 //005   ----------------------------------------
 BYTE   N72  Dn4  v108
 BYTE   W06
 BYTE   VOL   41*FE12VsHardinAzula_mvl/mxv
 BYTE   W01
 BYTE   VOL   38*FE12VsHardinAzula_mvl/mxv
 BYTE   W01
 BYTE   VOL   36*FE12VsHardinAzula_mvl/mxv
 BYTE   W01
 BYTE   VOL   30*FE12VsHardinAzula_mvl/mxv
 BYTE   W01
 BYTE   VOL   28*FE12VsHardinAzula_mvl/mxv
 BYTE   W01
 BYTE   VOL   25*FE12VsHardinAzula_mvl/mxv
 BYTE   W01
 BYTE   VOL   22*FE12VsHardinAzula_mvl/mxv
 BYTE   W03
 BYTE   VOL   22*FE12VsHardinAzula_mvl/mxv
 BYTE   W03
 BYTE   VOL   23*FE12VsHardinAzula_mvl/mxv
 BYTE   W03
 BYTE   VOL   23*FE12VsHardinAzula_mvl/mxv
 BYTE   W03
 BYTE   VOL   24*FE12VsHardinAzula_mvl/mxv
 BYTE   W03
 BYTE   VOL   25*FE12VsHardinAzula_mvl/mxv
 BYTE   W03
 BYTE   VOL   26*FE12VsHardinAzula_mvl/mxv
 BYTE   W03
 BYTE   VOL   27*FE12VsHardinAzula_mvl/mxv
 BYTE   W03
 BYTE   VOL   28*FE12VsHardinAzula_mvl/mxv
 BYTE   W03
 BYTE   VOL   28*FE12VsHardinAzula_mvl/mxv
 BYTE   W03
 BYTE   VOL   29*FE12VsHardinAzula_mvl/mxv
 BYTE   W03
 BYTE   VOL   30*FE12VsHardinAzula_mvl/mxv
 BYTE   W03
 BYTE   VOL   32*FE12VsHardinAzula_mvl/mxv
 BYTE   W03
 BYTE   VOL   33*FE12VsHardinAzula_mvl/mxv
 BYTE   W03
 BYTE   VOL   34*FE12VsHardinAzula_mvl/mxv
 BYTE   W03
 BYTE   VOL   37*FE12VsHardinAzula_mvl/mxv
 BYTE   W03
 BYTE   VOL   38*FE12VsHardinAzula_mvl/mxv
 BYTE   W03
 BYTE   VOL   41*FE12VsHardinAzula_mvl/mxv
 BYTE   W03
 BYTE   VOL   45*FE12VsHardinAzula_mvl/mxv
 BYTE   W06
 BYTE   N24  Cn4  v088
 BYTE   W24
//  #01 //006   ----------------------------------------
 BYTE   N96  Gn3  v072
 BYTE   W06
 BYTE   VOL   45*FE12VsHardinAzula_mvl/mxv
 BYTE   W06
 BYTE   VOL   44*FE12VsHardinAzula_mvl/mxv
 BYTE   W03
 BYTE   VOL   43*FE12VsHardinAzula_mvl/mxv
 BYTE   W03
 BYTE   VOL   42*FE12VsHardinAzula_mvl/mxv
 BYTE   W06
 BYTE   VOL   42*FE12VsHardinAzula_mvl/mxv
 BYTE   W03
 BYTE   VOL   41*FE12VsHardinAzula_mvl/mxv
 BYTE   W03
 BYTE   VOL   40*FE12VsHardinAzula_mvl/mxv
 BYTE   W03
 BYTE   VOL   40*FE12VsHardinAzula_mvl/mxv
 BYTE   W03
 BYTE   VOL   40*FE12VsHardinAzula_mvl/mxv
 BYTE   W03
 BYTE   VOL   39*FE12VsHardinAzula_mvl/mxv
 BYTE   W03
 BYTE   VOL   38*FE12VsHardinAzula_mvl/mxv
 BYTE   W03
 BYTE   VOL   38*FE12VsHardinAzula_mvl/mxv
 BYTE   W03
 BYTE   VOL   37*FE12VsHardinAzula_mvl/mxv
 BYTE   W03
 BYTE   VOL   37*FE12VsHardinAzula_mvl/mxv
 BYTE   W03
 BYTE   VOL   36*FE12VsHardinAzula_mvl/mxv
 BYTE   W03
 BYTE   VOL   35*FE12VsHardinAzula_mvl/mxv
 BYTE   W03
 BYTE   VOL   34*FE12VsHardinAzula_mvl/mxv
 BYTE   W03
 BYTE   VOL   34*FE12VsHardinAzula_mvl/mxv
 BYTE   W03
 BYTE   VOL   33*FE12VsHardinAzula_mvl/mxv
 BYTE   W03
 BYTE   VOL   32*FE12VsHardinAzula_mvl/mxv
 BYTE   W03
 BYTE   VOL   30*FE12VsHardinAzula_mvl/mxv
 BYTE   W03
 BYTE   VOL   30*FE12VsHardinAzula_mvl/mxv
 BYTE   W03
 BYTE   VOL   29*FE12VsHardinAzula_mvl/mxv
 BYTE   W03
 BYTE   VOL   28*FE12VsHardinAzula_mvl/mxv
 BYTE   W03
 BYTE   VOL   27*FE12VsHardinAzula_mvl/mxv
 BYTE   W03
 BYTE   VOL   26*FE12VsHardinAzula_mvl/mxv
 BYTE   W03
 BYTE   VOL   25*FE12VsHardinAzula_mvl/mxv
 BYTE   W03
 BYTE   VOL   23*FE12VsHardinAzula_mvl/mxv
 BYTE   W03
//  #01 //007   ----------------------------------------
 BYTE   VOL   22*FE12VsHardinAzula_mvl/mxv
 BYTE   W01
 BYTE   VOL   23*FE12VsHardinAzula_mvl/mxv
 BYTE   W02
 BYTE   VOL   25*FE12VsHardinAzula_mvl/mxv
 BYTE   W01
 BYTE   VOL   27*FE12VsHardinAzula_mvl/mxv
 BYTE   W02
 BYTE   VOL   28*FE12VsHardinAzula_mvl/mxv
 BYTE   W01
 BYTE   VOL   29*FE12VsHardinAzula_mvl/mxv
 BYTE   W02
 BYTE   VOL   30*FE12VsHardinAzula_mvl/mxv
 BYTE   W01
 BYTE   VOL   33*FE12VsHardinAzula_mvl/mxv
 BYTE   W02
 BYTE   VOL   34*FE12VsHardinAzula_mvl/mxv
 BYTE   W01
 BYTE   VOL   36*FE12VsHardinAzula_mvl/mxv
 BYTE   W02
 BYTE   VOL   37*FE12VsHardinAzula_mvl/mxv
 BYTE   W01
 BYTE   VOL   39*FE12VsHardinAzula_mvl/mxv
 BYTE   W02
 BYTE   VOL   40*FE12VsHardinAzula_mvl/mxv
 BYTE   W01
 BYTE   VOL   42*FE12VsHardinAzula_mvl/mxv
 BYTE   W02
 BYTE   VOL   45*FE12VsHardinAzula_mvl/mxv
 BYTE   W36
 BYTE   W03
 BYTE   N12  Cn3  v056
 BYTE   W12
 BYTE   Gn3  v072
 BYTE   W12
 BYTE   Cn4  v084
 BYTE   W12
//  #01 //008   ----------------------------------------
 BYTE   VOL   45*FE12VsHardinAzula_mvl/mxv
 BYTE   N12  Dn4  v104
 BYTE   W03
 BYTE   VOL   43*FE12VsHardinAzula_mvl/mxv
 BYTE   W03
 BYTE   VOL   41*FE12VsHardinAzula_mvl/mxv
 BYTE   W03
 BYTE   VOL   40*FE12VsHardinAzula_mvl/mxv
 BYTE   W03
 BYTE   VOL   38*FE12VsHardinAzula_mvl/mxv
 BYTE   N12  Cn4  v080
 BYTE   W03
 BYTE   VOL   37*FE12VsHardinAzula_mvl/mxv
 BYTE   W03
 BYTE   VOL   35*FE12VsHardinAzula_mvl/mxv
 BYTE   W03
 BYTE   VOL   34*FE12VsHardinAzula_mvl/mxv
 BYTE   W02
 BYTE   VOL   32*FE12VsHardinAzula_mvl/mxv
 BYTE   W01
 BYTE   VOL   45*FE12VsHardinAzula_mvl/mxv
 BYTE   N12  Fn4  v116
 BYTE   W12
 BYTE   Ds4  v112
 BYTE   W12
 BYTE   Dn4  v104
 BYTE   W12
 BYTE   As3  v088
 BYTE   W12
 BYTE   Fn3  v060
 BYTE   W12
 BYTE   Gs3  v088
 BYTE   W12
//  #01 //009   ----------------------------------------
 BYTE   N96  Gn3  v072
 BYTE   W06
 BYTE   VOL   45*FE12VsHardinAzula_mvl/mxv
 BYTE   W06
 BYTE   VOL   44*FE12VsHardinAzula_mvl/mxv
 BYTE   W06
 BYTE   VOL   43*FE12VsHardinAzula_mvl/mxv
 BYTE   W03
 BYTE   VOL   42*FE12VsHardinAzula_mvl/mxv
 BYTE   W06
 BYTE   VOL   42*FE12VsHardinAzula_mvl/mxv
 BYTE   W03
 BYTE   VOL   41*FE12VsHardinAzula_mvl/mxv
 BYTE   W03
 BYTE   VOL   40*FE12VsHardinAzula_mvl/mxv
 BYTE   W03
 BYTE   VOL   40*FE12VsHardinAzula_mvl/mxv
 BYTE   W03
 BYTE   VOL   40*FE12VsHardinAzula_mvl/mxv
 BYTE   W03
 BYTE   VOL   39*FE12VsHardinAzula_mvl/mxv
 BYTE   W03
 BYTE   VOL   38*FE12VsHardinAzula_mvl/mxv
 BYTE   W03
 BYTE   VOL   38*FE12VsHardinAzula_mvl/mxv
 BYTE   W03
 BYTE   VOL   37*FE12VsHardinAzula_mvl/mxv
 BYTE   W03
 BYTE   VOL   37*FE12VsHardinAzula_mvl/mxv
 BYTE   W03
 BYTE   VOL   37*FE12VsHardinAzula_mvl/mxv
 BYTE   W03
 BYTE   VOL   35*FE12VsHardinAzula_mvl/mxv
 BYTE   W03
 BYTE   VOL   34*FE12VsHardinAzula_mvl/mxv
 BYTE   W03
 BYTE   VOL   34*FE12VsHardinAzula_mvl/mxv
 BYTE   W03
 BYTE   VOL   33*FE12VsHardinAzula_mvl/mxv
 BYTE   W03
 BYTE   VOL   32*FE12VsHardinAzula_mvl/mxv
 BYTE   W03
 BYTE   VOL   30*FE12VsHardinAzula_mvl/mxv
 BYTE   W03
 BYTE   VOL   30*FE12VsHardinAzula_mvl/mxv
 BYTE   W03
 BYTE   VOL   29*FE12VsHardinAzula_mvl/mxv
 BYTE   W03
 BYTE   VOL   28*FE12VsHardinAzula_mvl/mxv
 BYTE   W03
 BYTE   VOL   27*FE12VsHardinAzula_mvl/mxv
 BYTE   W03
 BYTE   VOL   26*FE12VsHardinAzula_mvl/mxv
 BYTE   W03
 BYTE   VOL   24*FE12VsHardinAzula_mvl/mxv
 BYTE   W03
//  #01 //010   ----------------------------------------
 BYTE   VOL   22*FE12VsHardinAzula_mvl/mxv
 BYTE   W01
 BYTE   VOL   24*FE12VsHardinAzula_mvl/mxv
 BYTE   W02
 BYTE   VOL   28*FE12VsHardinAzula_mvl/mxv
 BYTE   W01
 BYTE   VOL   30*FE12VsHardinAzula_mvl/mxv
 BYTE   W02
 BYTE   VOL   34*FE12VsHardinAzula_mvl/mxv
 BYTE   W01
 BYTE   VOL   37*FE12VsHardinAzula_mvl/mxv
 BYTE   W02
 BYTE   VOL   40*FE12VsHardinAzula_mvl/mxv
 BYTE   W01
 BYTE   VOL   45*FE12VsHardinAzula_mvl/mxv
 BYTE   W72
 BYTE   W02
 BYTE   VOL   45*FE12VsHardinAzula_mvl/mxv
 BYTE   W01
 BYTE   VOL   42*FE12VsHardinAzula_mvl/mxv
 BYTE   W02
 BYTE   VOL   40*FE12VsHardinAzula_mvl/mxv
 BYTE   W01
 BYTE   VOL   38*FE12VsHardinAzula_mvl/mxv
 BYTE   W02
 BYTE   VOL   37*FE12VsHardinAzula_mvl/mxv
 BYTE   W01
 BYTE   VOL   34*FE12VsHardinAzula_mvl/mxv
 BYTE   W02
 BYTE   VOL   33*FE12VsHardinAzula_mvl/mxv
 BYTE   W01
 BYTE   VOL   30*FE12VsHardinAzula_mvl/mxv
 BYTE   W02
//  #01 //011   ----------------------------------------
 BYTE   VOL   29*FE12VsHardinAzula_mvl/mxv
 BYTE   N06  Ds3  v100
 BYTE   W06
 BYTE   Ds3  v048
 BYTE   W06
 BYTE   VOL   30*FE12VsHardinAzula_mvl/mxv
 BYTE   N06  Gs2  v100
 BYTE   W06
 BYTE   Gs2  v048
 BYTE   W06
 BYTE   VOL   30*FE12VsHardinAzula_mvl/mxv
 BYTE   N06  Gn3  v100
 BYTE   W06
 BYTE   Gn3  v048
 BYTE   W06
 BYTE   Cn3  v100
 BYTE   W01
 BYTE   VOL   30*FE12VsHardinAzula_mvl/mxv
 BYTE   W05
 BYTE   N06  Cn3  v048
 BYTE   W01
 BYTE   VOL   31*FE12VsHardinAzula_mvl/mxv
 BYTE   W05
 BYTE   N06  Gs3  v100
 BYTE   W06
 BYTE   Gs3  v048
 BYTE   W02
 BYTE   VOL   32*FE12VsHardinAzula_mvl/mxv
 BYTE   W04
 BYTE   N06  Ds3  v100
 BYTE   W02
 BYTE   VOL   33*FE12VsHardinAzula_mvl/mxv
 BYTE   W04
 BYTE   N06  Ds3  v048
 BYTE   W06
 BYTE   Cn4  v100
 BYTE   W02
 BYTE   VOL   33*FE12VsHardinAzula_mvl/mxv
 BYTE   W04
 BYTE   N06  Cn4  v048
 BYTE   W02
 BYTE   VOL   34*FE12VsHardinAzula_mvl/mxv
 BYTE   W04
 BYTE   N06  Gn3  v100
 BYTE   W03
 BYTE   VOL   34*FE12VsHardinAzula_mvl/mxv
 BYTE   W03
 BYTE   N06  Gn3  v048
 BYTE   W03
 BYTE   VOL   34*FE12VsHardinAzula_mvl/mxv
 BYTE   W03
//  #01 //012   ----------------------------------------
 BYTE   N06  Ds4  v072
 BYTE   W03
 BYTE   VOL   35*FE12VsHardinAzula_mvl/mxv
 BYTE   W03
 BYTE   N06  Ds4  v028
 BYTE   W03
 BYTE   VOL   36*FE12VsHardinAzula_mvl/mxv
 BYTE   W03
 BYTE   N06  Gs3  v100
 BYTE   W04
 BYTE   VOL   37*FE12VsHardinAzula_mvl/mxv
 BYTE   W02
 BYTE   N06  Gs3  v048
 BYTE   W04
 BYTE   VOL   37*FE12VsHardinAzula_mvl/mxv
 BYTE   W02
 BYTE   N06  Cn4  v100
 BYTE   W04
 BYTE   VOL   37*FE12VsHardinAzula_mvl/mxv
 BYTE   W02
 BYTE   N06  Cn4  v048
 BYTE   W04
 BYTE   VOL   38*FE12VsHardinAzula_mvl/mxv
 BYTE   W02
 BYTE   N06  Gs3  v100
 BYTE   W04
 BYTE   VOL   39*FE12VsHardinAzula_mvl/mxv
 BYTE   W02
 BYTE   N06  Gs3  v048
 BYTE   W05
 BYTE   VOL   40*FE12VsHardinAzula_mvl/mxv
 BYTE   W01
 BYTE   N06  Cn4  v064
 BYTE   W05
 BYTE   VOL   40*FE12VsHardinAzula_mvl/mxv
 BYTE   W01
 BYTE   N06  Cn4  v024
 BYTE   W05
 BYTE   VOL   42*FE12VsHardinAzula_mvl/mxv
 BYTE   W01
 BYTE   N06  As3  v100
 BYTE   W05
 BYTE   VOL   43*FE12VsHardinAzula_mvl/mxv
 BYTE   W01
 BYTE   N06  As3  v048
 BYTE   W06
 BYTE   VOL   45*FE12VsHardinAzula_mvl/mxv
 BYTE   N06  Ds4  v072
 BYTE   W06
 BYTE   Ds4  v028
 BYTE   W06
 BYTE   Dn4  v100
 BYTE   W06
 BYTE   Dn4  v048
 BYTE   W06
//  #01 //013   ----------------------------------------
 BYTE   VOL   32*FE12VsHardinAzula_mvl/mxv
 BYTE   N06  As3  v100
 BYTE   W06
 BYTE   As3  v048
 BYTE   W06
 BYTE   Ds3  v100
 BYTE   W05
 BYTE   VOL   33*FE12VsHardinAzula_mvl/mxv
 BYTE   W01
 BYTE   N06  Ds3  v048
 BYTE   W06
 BYTE   Fn3  v100
 BYTE   W06
 BYTE   Fn3  v048
 BYTE   W04
 BYTE   VOL   33*FE12VsHardinAzula_mvl/mxv
 BYTE   W02
 BYTE   N06  Ds3  v100
 BYTE   W06
 BYTE   Ds3  v048
 BYTE   W06
 BYTE   Dn3  v100
 BYTE   W03
 BYTE   VOL   34*FE12VsHardinAzula_mvl/mxv
 BYTE   W03
 BYTE   N06  Dn3  v048
 BYTE   W05
 BYTE   VOL   34*FE12VsHardinAzula_mvl/mxv
 BYTE   W01
 BYTE   N06  Ds3  v100
 BYTE   W06
 BYTE   Ds3  v048
 BYTE   W06
 BYTE   As3  v100
 BYTE   W04
 BYTE   VOL   34*FE12VsHardinAzula_mvl/mxv
 BYTE   W02
 BYTE   N06  As3  v048
 BYTE   W06
 BYTE   Ds3  v100
 BYTE   W01
 BYTE   VOL   35*FE12VsHardinAzula_mvl/mxv
 BYTE   W05
 BYTE   N06  Ds3  v048
 BYTE   W03
 BYTE   VOL   36*FE12VsHardinAzula_mvl/mxv
 BYTE   W03
//  #01 //014   ----------------------------------------
 BYTE   N06  As3  v100
 BYTE   W05
 BYTE   VOL   37*FE12VsHardinAzula_mvl/mxv
 BYTE   W01
 BYTE   N06  As3  v048
 BYTE   W06
 BYTE   Ds3  v100
 BYTE   W02
 BYTE   VOL   37*FE12VsHardinAzula_mvl/mxv
 BYTE   W04
 BYTE   N06  Ds3  v048
 BYTE   W04
 BYTE   VOL   37*FE12VsHardinAzula_mvl/mxv
 BYTE   W02
 BYTE   N06  Dn3  v100
 BYTE   W06
 BYTE   Dn3  v048
 BYTE   W01
 BYTE   VOL   38*FE12VsHardinAzula_mvl/mxv
 BYTE   W05
 BYTE   N06  As2  v100
 BYTE   W03
 BYTE   VOL   38*FE12VsHardinAzula_mvl/mxv
 BYTE   W03
 BYTE   N06  As2  v048
 BYTE   W05
 BYTE   VOL   39*FE12VsHardinAzula_mvl/mxv
 BYTE   W01
 BYTE   N06  Fn3  v100
 BYTE   W06
 BYTE   Fn3  v048
 BYTE   W02
 BYTE   VOL   40*FE12VsHardinAzula_mvl/mxv
 BYTE   W04
 BYTE   N06  Gn3  v100
 BYTE   W04
 BYTE   VOL   40*FE12VsHardinAzula_mvl/mxv
 BYTE   W02
 BYTE   N06  Gn3  v048
 BYTE   W06
 BYTE   Gs3  v100
 BYTE   W01
 BYTE   VOL   42*FE12VsHardinAzula_mvl/mxv
 BYTE   W05
 BYTE   N06  Gs3  v048
 BYTE   W03
 BYTE   VOL   43*FE12VsHardinAzula_mvl/mxv
 BYTE   W03
 BYTE   N06  As3  v100
 BYTE   W06
 BYTE   VOL   45*FE12VsHardinAzula_mvl/mxv
 BYTE   N06  As3  v048
 BYTE   W06
//  #01 //015   ----------------------------------------
 BYTE   W96
//  #01 //016   ----------------------------------------
 BYTE   W60
 BYTE   N12  Cn3  v060
 BYTE   W12
 BYTE   Gn3  v076
 BYTE   W12
 BYTE   Cn4  v092
 BYTE   W12
//  #01 //017   ----------------------------------------
 BYTE   VOL   42*FE12VsHardinAzula_mvl/mxv
 BYTE   N36  Dn4  v100
 BYTE   W01
 BYTE   VOL   39*FE12VsHardinAzula_mvl/mxv
 BYTE   W01
 BYTE   VOL   37*FE12VsHardinAzula_mvl/mxv
 BYTE   W01
 BYTE   VOL   31*FE12VsHardinAzula_mvl/mxv
 BYTE   W01
 BYTE   VOL   29*FE12VsHardinAzula_mvl/mxv
 BYTE   W01
 BYTE   VOL   27*FE12VsHardinAzula_mvl/mxv
 BYTE   W01
 BYTE   VOL   22*FE12VsHardinAzula_mvl/mxv
 BYTE   W03
 BYTE   VOL   22*FE12VsHardinAzula_mvl/mxv
 BYTE   W02
 BYTE   VOL   23*FE12VsHardinAzula_mvl/mxv
 BYTE   W01
 BYTE   VOL   23*FE12VsHardinAzula_mvl/mxv
 BYTE   W02
 BYTE   VOL   24*FE12VsHardinAzula_mvl/mxv
 BYTE   W01
 BYTE   VOL   25*FE12VsHardinAzula_mvl/mxv
 BYTE   W02
 BYTE   VOL   26*FE12VsHardinAzula_mvl/mxv
 BYTE   W01
 BYTE   VOL   27*FE12VsHardinAzula_mvl/mxv
 BYTE   W02
 BYTE   VOL   28*FE12VsHardinAzula_mvl/mxv
 BYTE   W01
 BYTE   VOL   28*FE12VsHardinAzula_mvl/mxv
 BYTE   W02
 BYTE   VOL   30*FE12VsHardinAzula_mvl/mxv
 BYTE   W01
 BYTE   VOL   32*FE12VsHardinAzula_mvl/mxv
 BYTE   W02
 BYTE   VOL   34*FE12VsHardinAzula_mvl/mxv
 BYTE   W01
 BYTE   VOL   37*FE12VsHardinAzula_mvl/mxv
 BYTE   W02
 BYTE   VOL   40*FE12VsHardinAzula_mvl/mxv
 BYTE   W01
 BYTE   VOL   45*FE12VsHardinAzula_mvl/mxv
 BYTE   W03
 BYTE   VOL   43*FE12VsHardinAzula_mvl/mxv
 BYTE   W03
 BYTE   VOL   42*FE12VsHardinAzula_mvl/mxv
 BYTE   N12  Gn4  v096
 BYTE   W03
 BYTE   VOL   40*FE12VsHardinAzula_mvl/mxv
 BYTE   W03
 BYTE   VOL   40*FE12VsHardinAzula_mvl/mxv
 BYTE   W03
 BYTE   VOL   38*FE12VsHardinAzula_mvl/mxv
 BYTE   W03
 BYTE   VOL   35*FE12VsHardinAzula_mvl/mxv
 BYTE   N36  Cn4  v076
 BYTE   W01
 BYTE   VOL   33*FE12VsHardinAzula_mvl/mxv
 BYTE   W01
 BYTE   VOL   30*FE12VsHardinAzula_mvl/mxv
 BYTE   W01
 BYTE   VOL   27*FE12VsHardinAzula_mvl/mxv
 BYTE   W01
 BYTE   VOL   24*FE12VsHardinAzula_mvl/mxv
 BYTE   W01
 BYTE   VOL   22*FE12VsHardinAzula_mvl/mxv
 BYTE   W01
 BYTE   VOL   20*FE12VsHardinAzula_mvl/mxv
 BYTE   W01
 BYTE   VOL   20*FE12VsHardinAzula_mvl/mxv
 BYTE   W02
 BYTE   VOL   21*FE12VsHardinAzula_mvl/mxv
 BYTE   W01
 BYTE   VOL   22*FE12VsHardinAzula_mvl/mxv
 BYTE   W02
 BYTE   VOL   22*FE12VsHardinAzula_mvl/mxv
 BYTE   W01
 BYTE   VOL   23*FE12VsHardinAzula_mvl/mxv
 BYTE   W02
 BYTE   VOL   24*FE12VsHardinAzula_mvl/mxv
 BYTE   W01
 BYTE   VOL   26*FE12VsHardinAzula_mvl/mxv
 BYTE   W02
 BYTE   VOL   27*FE12VsHardinAzula_mvl/mxv
 BYTE   W01
 BYTE   VOL   28*FE12VsHardinAzula_mvl/mxv
 BYTE   W02
 BYTE   VOL   30*FE12VsHardinAzula_mvl/mxv
 BYTE   W01
 BYTE   VOL   31*FE12VsHardinAzula_mvl/mxv
 BYTE   W02
 BYTE   VOL   34*FE12VsHardinAzula_mvl/mxv
 BYTE   W01
 BYTE   VOL   36*FE12VsHardinAzula_mvl/mxv
 BYTE   W02
 BYTE   VOL   38*FE12VsHardinAzula_mvl/mxv
 BYTE   W01
 BYTE   VOL   40*FE12VsHardinAzula_mvl/mxv
 BYTE   W02
 BYTE   VOL   45*FE12VsHardinAzula_mvl/mxv
 BYTE   W03
 BYTE   VOL   44*FE12VsHardinAzula_mvl/mxv
 BYTE   W03
 BYTE   VOL   43*FE12VsHardinAzula_mvl/mxv
 BYTE   N12  As4
 BYTE   W03
 BYTE   VOL   42*FE12VsHardinAzula_mvl/mxv
 BYTE   W03
 BYTE   VOL   42*FE12VsHardinAzula_mvl/mxv
 BYTE   W03
 BYTE   VOL   41*FE12VsHardinAzula_mvl/mxv
 BYTE   W03
//  #01 //018   ----------------------------------------
 BYTE   VOL   38*FE12VsHardinAzula_mvl/mxv
 BYTE   N24  An4  v080
 BYTE   W01
 BYTE   VOL   37*FE12VsHardinAzula_mvl/mxv
 BYTE   W01
 BYTE   VOL   34*FE12VsHardinAzula_mvl/mxv
 BYTE   W01
 BYTE   VOL   30*FE12VsHardinAzula_mvl/mxv
 BYTE   W01
 BYTE   VOL   28*FE12VsHardinAzula_mvl/mxv
 BYTE   W01
 BYTE   VOL   27*FE12VsHardinAzula_mvl/mxv
 BYTE   W01
 BYTE   VOL   24*FE12VsHardinAzula_mvl/mxv
 BYTE   W01
 BYTE   VOL   26*FE12VsHardinAzula_mvl/mxv
 BYTE   W02
 BYTE   VOL   27*FE12VsHardinAzula_mvl/mxv
 BYTE   W01
 BYTE   VOL   28*FE12VsHardinAzula_mvl/mxv
 BYTE   W02
 BYTE   VOL   29*FE12VsHardinAzula_mvl/mxv
 BYTE   W01
 BYTE   VOL   32*FE12VsHardinAzula_mvl/mxv
 BYTE   W02
 BYTE   VOL   34*FE12VsHardinAzula_mvl/mxv
 BYTE   W01
 BYTE   VOL   38*FE12VsHardinAzula_mvl/mxv
 BYTE   W02
 BYTE   VOL   45*FE12VsHardinAzula_mvl/mxv
 BYTE   W03
 BYTE   VOL   44*FE12VsHardinAzula_mvl/mxv
 BYTE   W03
 BYTE   VOL   43*FE12VsHardinAzula_mvl/mxv
 BYTE   N12  Gn4  v088
 BYTE   W03
 BYTE   VOL   42*FE12VsHardinAzula_mvl/mxv
 BYTE   W03
 BYTE   VOL   42*FE12VsHardinAzula_mvl/mxv
 BYTE   W03
 BYTE   VOL   40*FE12VsHardinAzula_mvl/mxv
 BYTE   W03
 BYTE   VOL   40*FE12VsHardinAzula_mvl/mxv
 BYTE   N12  Fn4  v072
 BYTE   W03
 BYTE   VOL   40*FE12VsHardinAzula_mvl/mxv
 BYTE   W03
 BYTE   VOL   39*FE12VsHardinAzula_mvl/mxv
 BYTE   W03
 BYTE   VOL   38*FE12VsHardinAzula_mvl/mxv
 BYTE   W03
 BYTE   VOL   37*FE12VsHardinAzula_mvl/mxv
 BYTE   N12  Ds4  v052
 BYTE   W03
 BYTE   VOL   38*FE12VsHardinAzula_mvl/mxv
 BYTE   W03
 BYTE   VOL   38*FE12VsHardinAzula_mvl/mxv
 BYTE   W03
 BYTE   VOL   39*FE12VsHardinAzula_mvl/mxv
 BYTE   W03
 BYTE   VOL   40*FE12VsHardinAzula_mvl/mxv
 BYTE   N12  Fn4  v064
 BYTE   W03
 BYTE   VOL   40*FE12VsHardinAzula_mvl/mxv
 BYTE   W03
 BYTE   VOL   40*FE12VsHardinAzula_mvl/mxv
 BYTE   W03
 BYTE   VOL   41*FE12VsHardinAzula_mvl/mxv
 BYTE   W03
 BYTE   VOL   42*FE12VsHardinAzula_mvl/mxv
 BYTE   N12  Gn4  v092
 BYTE   W03
 BYTE   VOL   42*FE12VsHardinAzula_mvl/mxv
 BYTE   W03
 BYTE   VOL   43*FE12VsHardinAzula_mvl/mxv
 BYTE   W03
 BYTE   VOL   44*FE12VsHardinAzula_mvl/mxv
 BYTE   W03
 BYTE   VOL   45*FE12VsHardinAzula_mvl/mxv
 BYTE   N12  Dn4  v084
 BYTE   W03
 BYTE   VOL   44*FE12VsHardinAzula_mvl/mxv
 BYTE   W03
 BYTE   VOL   42*FE12VsHardinAzula_mvl/mxv
 BYTE   W03
 BYTE   VOL   42*FE12VsHardinAzula_mvl/mxv
 BYTE   W03
//  #01 //019   ----------------------------------------
 BYTE   VOL   40*FE12VsHardinAzula_mvl/mxv
 BYTE   N12  Cn4  v068
 BYTE   W03
 BYTE   VOL   40*FE12VsHardinAzula_mvl/mxv
 BYTE   W03
 BYTE   VOL   39*FE12VsHardinAzula_mvl/mxv
 BYTE   W03
 BYTE   VOL   38*FE12VsHardinAzula_mvl/mxv
 BYTE   W03
 BYTE   VOL   37*FE12VsHardinAzula_mvl/mxv
 BYTE   N12  Cn3
 BYTE   W08
 BYTE   VOL   38*FE12VsHardinAzula_mvl/mxv
 BYTE   W04
 BYTE   N12  Ds3  v072
 BYTE   W04
 BYTE   VOL   38*FE12VsHardinAzula_mvl/mxv
 BYTE   W08
 BYTE   VOL   39*FE12VsHardinAzula_mvl/mxv
 BYTE   N12  Gn3  v076
 BYTE   W08
 BYTE   VOL   40*FE12VsHardinAzula_mvl/mxv
 BYTE   W04
 BYTE   N12  Gs2  v072
 BYTE   W04
 BYTE   VOL   40*FE12VsHardinAzula_mvl/mxv
 BYTE   W08
 BYTE   VOL   40*FE12VsHardinAzula_mvl/mxv
 BYTE   N12  Ds3  v076
 BYTE   W08
 BYTE   VOL   41*FE12VsHardinAzula_mvl/mxv
 BYTE   W04
 BYTE   N12  Gn3  v080
 BYTE   W04
 BYTE   VOL   42*FE12VsHardinAzula_mvl/mxv
 BYTE   W08
 BYTE   VOL   42*FE12VsHardinAzula_mvl/mxv
 BYTE   N12  Cn4  v092
 BYTE   W08
 BYTE   VOL   43*FE12VsHardinAzula_mvl/mxv
 BYTE   W04
//  #01 //020   ----------------------------------------
 BYTE   N12  Dn4  v096
 BYTE   W04
 BYTE   VOL   44*FE12VsHardinAzula_mvl/mxv
 BYTE   W08
 BYTE   VOL   45*FE12VsHardinAzula_mvl/mxv
 BYTE   N12  Fn4  v104
 BYTE   W11
 BYTE   VOL   44*FE12VsHardinAzula_mvl/mxv
 BYTE   W01
 BYTE   N12  As4  v092
 BYTE   W05
 BYTE   VOL   43*FE12VsHardinAzula_mvl/mxv
 BYTE   W06
 BYTE   VOL   42*FE12VsHardinAzula_mvl/mxv
 BYTE   W01
 BYTE   N12  Gs4
 BYTE   W04
 BYTE   VOL   42*FE12VsHardinAzula_mvl/mxv
 BYTE   W06
 BYTE   VOL   41*FE12VsHardinAzula_mvl/mxv
 BYTE   W02
 BYTE   N12  Gn4  v080
 BYTE   W04
 BYTE   VOL   40*FE12VsHardinAzula_mvl/mxv
 BYTE   W06
 BYTE   VOL   40*FE12VsHardinAzula_mvl/mxv
 BYTE   W02
 BYTE   N12  Fn4  v068
 BYTE   W03
 BYTE   VOL   40*FE12VsHardinAzula_mvl/mxv
 BYTE   W06
 BYTE   VOL   38*FE12VsHardinAzula_mvl/mxv
 BYTE   W03
 BYTE   VOL   39*FE12VsHardinAzula_mvl/mxv
 BYTE   N12  Ds4  v052
 BYTE   W03
 BYTE   VOL   40*FE12VsHardinAzula_mvl/mxv
 BYTE   W03
 BYTE   VOL   40*FE12VsHardinAzula_mvl/mxv
 BYTE   W03
 BYTE   VOL   40*FE12VsHardinAzula_mvl/mxv
 BYTE   W03
 BYTE   VOL   41*FE12VsHardinAzula_mvl/mxv
 BYTE   N12  Fn4  v068
 BYTE   W03
 BYTE   VOL   42*FE12VsHardinAzula_mvl/mxv
 BYTE   W03
 BYTE   VOL   42*FE12VsHardinAzula_mvl/mxv
 BYTE   W03
 BYTE   VOL   44*FE12VsHardinAzula_mvl/mxv
 BYTE   W03
//  #01 //021   ----------------------------------------
 BYTE   VOL   45*FE12VsHardinAzula_mvl/mxv
 BYTE   N12  Dn4  v092
 BYTE   W07
 BYTE   VOL   44*FE12VsHardinAzula_mvl/mxv
 BYTE   W05
 BYTE   N12  Dn3  v072
 BYTE   W03
 BYTE   VOL   43*FE12VsHardinAzula_mvl/mxv
 BYTE   W07
 BYTE   VOL   42*FE12VsHardinAzula_mvl/mxv
 BYTE   W02
 BYTE   N12  Fn3  v056
 BYTE   W06
 BYTE   VOL   42*FE12VsHardinAzula_mvl/mxv
 BYTE   W06
 BYTE   N12  Gs3  v072
 BYTE   W01
 BYTE   VOL   41*FE12VsHardinAzula_mvl/mxv
 BYTE   W08
 BYTE   VOL   40*FE12VsHardinAzula_mvl/mxv
 BYTE   W03
 BYTE   N12  Cn4  v100
 BYTE   W04
 BYTE   VOL   40*FE12VsHardinAzula_mvl/mxv
 BYTE   W08
 BYTE   VOL   40*FE12VsHardinAzula_mvl/mxv
 BYTE   N12  Cn3  v080
 BYTE   W06
 BYTE   VOL   40*FE12VsHardinAzula_mvl/mxv
 BYTE   W06
 BYTE   VOL   40*FE12VsHardinAzula_mvl/mxv
 BYTE   N12  Fn3  v060
 BYTE   W06
 BYTE   VOL   41*FE12VsHardinAzula_mvl/mxv
 BYTE   W06
 BYTE   VOL   42*FE12VsHardinAzula_mvl/mxv
 BYTE   N12  Gs3  v076
 BYTE   W06
 BYTE   VOL   42*FE12VsHardinAzula_mvl/mxv
 BYTE   W06
//  #01 //022   ----------------------------------------
 BYTE   VOL   43*FE12VsHardinAzula_mvl/mxv
 BYTE   N12  As3  v104
 BYTE   W06
 BYTE   VOL   44*FE12VsHardinAzula_mvl/mxv
 BYTE   W06
 BYTE   VOL   45*FE12VsHardinAzula_mvl/mxv
 BYTE   N12  Cn4  v100
 BYTE   W12
 BYTE   As3  v096
 BYTE   W01
 BYTE   VOL   44*FE12VsHardinAzula_mvl/mxv
 BYTE   W07
 BYTE   VOL   43*FE12VsHardinAzula_mvl/mxv
 BYTE   W04
 BYTE   N12  Gs3  v084
 BYTE   W03
 BYTE   VOL   42*FE12VsHardinAzula_mvl/mxv
 BYTE   W07
 BYTE   VOL   42*FE12VsHardinAzula_mvl/mxv
 BYTE   W02
 BYTE   N12  Gn3  v076
 BYTE   W05
 BYTE   VOL   41*FE12VsHardinAzula_mvl/mxv
 BYTE   W07
 BYTE   VOL   40*FE12VsHardinAzula_mvl/mxv
 BYTE   N12  Fn3  v064
 BYTE   W07
 BYTE   VOL   40*FE12VsHardinAzula_mvl/mxv
 BYTE   W05
 BYTE   N12  Ds3  v056
 BYTE   W02
 BYTE   VOL   40*FE12VsHardinAzula_mvl/mxv
 BYTE   W07
 BYTE   VOL   39*FE12VsHardinAzula_mvl/mxv
 BYTE   W03
 BYTE   N12  Dn3  v052
 BYTE   W04
 BYTE   VOL   38*FE12VsHardinAzula_mvl/mxv
 BYTE   W07
 BYTE   VOL   37*FE12VsHardinAzula_mvl/mxv
 BYTE   W01
//  #01 //023   ----------------------------------------
 BYTE   VOL   45*FE12VsHardinAzula_mvl/mxv
 BYTE   N72  Cn3  v104
 BYTE   W08
 BYTE   VOL   45*FE12VsHardinAzula_mvl/mxv
 BYTE   W01
 BYTE   VOL   41*FE12VsHardinAzula_mvl/mxv
 BYTE   W01
 BYTE   VOL   36*FE12VsHardinAzula_mvl/mxv
 BYTE   W01
 BYTE   VOL   33*FE12VsHardinAzula_mvl/mxv
 BYTE   W01
 BYTE   VOL   30*FE12VsHardinAzula_mvl/mxv
 BYTE   W01
 BYTE   VOL   25*FE12VsHardinAzula_mvl/mxv
 BYTE   W01
 BYTE   VOL   22*FE12VsHardinAzula_mvl/mxv
 BYTE   W01
 BYTE   VOL   19*FE12VsHardinAzula_mvl/mxv
 BYTE   W10
 BYTE   VOL   20*FE12VsHardinAzula_mvl/mxv
 BYTE   W09
 BYTE   VOL   20*FE12VsHardinAzula_mvl/mxv
 BYTE   W10
 BYTE   VOL   21*FE12VsHardinAzula_mvl/mxv
 BYTE   W28
 BYTE   N08
 BYTE   W02
 BYTE   VOL   21*FE12VsHardinAzula_mvl/mxv
 BYTE   W06
 BYTE   VOL   22*FE12VsHardinAzula_mvl/mxv
 BYTE   N08  Dn3
 BYTE   W03
 BYTE   VOL   22*FE12VsHardinAzula_mvl/mxv
 BYTE   W05
 BYTE   VOL   22*FE12VsHardinAzula_mvl/mxv
 BYTE   N08  Cn3
 BYTE   W03
 BYTE   VOL   23*FE12VsHardinAzula_mvl/mxv
 BYTE   W04
 BYTE   VOL   23*FE12VsHardinAzula_mvl/mxv
 BYTE   W01
//  #01 //024   ----------------------------------------
 BYTE   N96  Bn2
 BYTE   W01
 BYTE   VOL   24*FE12VsHardinAzula_mvl/mxv
 BYTE   W03
 BYTE   VOL   24*FE12VsHardinAzula_mvl/mxv
 BYTE   W06
 BYTE   VOL   25*FE12VsHardinAzula_mvl/mxv
 BYTE   W04
 BYTE   VOL   26*FE12VsHardinAzula_mvl/mxv
 BYTE   W03
 BYTE   VOL   26*FE12VsHardinAzula_mvl/mxv
 BYTE   W03
 BYTE   VOL   27*FE12VsHardinAzula_mvl/mxv
 BYTE   W03
 BYTE   VOL   27*FE12VsHardinAzula_mvl/mxv
 BYTE   W03
 BYTE   VOL   28*FE12VsHardinAzula_mvl/mxv
 BYTE   W04
 BYTE   VOL   28*FE12VsHardinAzula_mvl/mxv
 BYTE   W03
 BYTE   VOL   28*FE12VsHardinAzula_mvl/mxv
 BYTE   W03
 BYTE   VOL   29*FE12VsHardinAzula_mvl/mxv
 BYTE   W03
 BYTE   VOL   29*FE12VsHardinAzula_mvl/mxv
 BYTE   W03
 BYTE   VOL   30*FE12VsHardinAzula_mvl/mxv
 BYTE   W03
 BYTE   VOL   30*FE12VsHardinAzula_mvl/mxv
 BYTE   W04
 BYTE   VOL   31*FE12VsHardinAzula_mvl/mxv
 BYTE   W03
 BYTE   VOL   32*FE12VsHardinAzula_mvl/mxv
 BYTE   W03
 BYTE   VOL   33*FE12VsHardinAzula_mvl/mxv
 BYTE   W03
 BYTE   VOL   34*FE12VsHardinAzula_mvl/mxv
 BYTE   W03
 BYTE   VOL   34*FE12VsHardinAzula_mvl/mxv
 BYTE   W03
 BYTE   VOL   36*FE12VsHardinAzula_mvl/mxv
 BYTE   W04
 BYTE   VOL   37*FE12VsHardinAzula_mvl/mxv
 BYTE   W03
 BYTE   VOL   38*FE12VsHardinAzula_mvl/mxv
 BYTE   W24
 BYTE   W01
//  #01 //025   ----------------------------------------
 BYTE   GoTo
  POIN2 Label_01039FEA
//  #01 //026   ----------------------------------------
 BYTE   W02
 BYTE   VOL   39*FE12VsHardinAzula_mvl/mxv
 BYTE   W03
 BYTE   VOL   40*FE12VsHardinAzula_mvl/mxv
 BYTE   W03
 BYTE   VOL   42*FE12VsHardinAzula_mvl/mxv
 BYTE   W04
 BYTE   VOL   45*FE12VsHardinAzula_mvl/mxv
 BYTE   FINE

//**************** Track 2 (Midi-Chn.1) ****************//

FE12VsHardinAzula_002:
//  #02 //000   ----------------------------------------
 BYTE   KEYSH   FE12VsHardinAzula_key+0
 BYTE   VOICE   34
 BYTE   MODT 0
 BYTE   LFOS 44
 BYTE   VOL   62*FE12VsHardinAzula_mvl/mxv
 BYTE   PAN   c_v+0
 BYTE   BEND   c_v+0
 BYTE   N24  Cn2  v116
 BYTE   W36
 BYTE   Cn2  v100
 BYTE   W36
 BYTE   Cn2  v108
 BYTE   W24
//  #02 //001   ----------------------------------------
 BYTE   W12
 BYTE   N22  Cn2  v112
 BYTE   W36
 BYTE   N24  Cn2  v127
 BYTE   W48
//  #02 //002   ----------------------------------------
 BYTE   W96
//  #02 //003   ----------------------------------------
Label_55EF66:
 BYTE   N24  Cn2  v127
 BYTE   W36
 BYTE   N06  Cn2  v100
 BYTE   W60
 BYTE   PEND 
//  #02 //004   ----------------------------------------
 BYTE   PATT
  POIN2 Label_55EF66
//  #02 //005   ----------------------------------------
 BYTE   PATT
  POIN2 Label_55EF66
//  #02 //006   ----------------------------------------
 BYTE   PATT
  POIN2 Label_55EF66
//  #02 //007   ----------------------------------------
 BYTE   PATT
  POIN2 Label_55EF66
//  #02 //008   ----------------------------------------
 BYTE   PATT
  POIN2 Label_55EF66
//  #02 //009   ----------------------------------------
 BYTE   PATT
  POIN2 Label_55EF66
//  #02 //010   ----------------------------------------
 BYTE   N24  Cn2  v127
 BYTE   W36
 BYTE   N06  Cn2  v100
 BYTE   W06
 BYTE   Cn2  v116
 BYTE   W06
 BYTE   N12  Dn2
 BYTE   W12
 BYTE   As1  v092
 BYTE   W12
 BYTE   As2  v080
 BYTE   W12
 BYTE   Ds2  v092
 BYTE   W12
//  #02 //011   ----------------------------------------
 BYTE   N18  Gs1  v127
 BYTE   W24
 BYTE   N06  Gs1  v100
 BYTE   W12
 BYTE   N10  Gs1  v127
 BYTE   W24
 BYTE   Gs1  v100
 BYTE   W24
 BYTE   Gs1  v127
 BYTE   W12
//  #02 //012   ----------------------------------------
 BYTE   W12
 BYTE   N10
 BYTE   W24
 BYTE   Gs1  v100
 BYTE   W12
 BYTE   N18  Gs1  v127
 BYTE   W24
 BYTE   N18
 BYTE   W24
//  #02 //013   ----------------------------------------
 BYTE   Fn1
 BYTE   W24
 BYTE   N06  Fn1  v100
 BYTE   W12
 BYTE   N10  Fn1  v127
 BYTE   W24
 BYTE   Fn1  v100
 BYTE   W24
 BYTE   Fn1  v127
 BYTE   W12
//  #02 //014   ----------------------------------------
 BYTE   W12
 BYTE   Gn1
 BYTE   W24
 BYTE   Gn1  v100
 BYTE   W12
 BYTE   N18  Gn1  v127
 BYTE   W24
 BYTE   N18
 BYTE   W24
//  #02 //015   ----------------------------------------
Label_55EFDE:
 BYTE   N24  Cn2  v127
 BYTE   W36
 BYTE   N06
 BYTE   W60
 BYTE   PEND 
//  #02 //016   ----------------------------------------
 BYTE   PATT
  POIN2 Label_55EFDE
//  #02 //017   ----------------------------------------
 BYTE   PATT
  POIN2 Label_55EFDE
//  #02 //018   ----------------------------------------
 BYTE   N24  Cn2  v127
 BYTE   W36
 BYTE   N06
 BYTE   W36
 BYTE   N18  As1
 BYTE   W24
//  #02 //019   ----------------------------------------
 BYTE   N24  Gs1
 BYTE   W36
 BYTE   N06
 BYTE   W60
//  #02 //020   ----------------------------------------
 BYTE   N24
 BYTE   W36
 BYTE   N06
 BYTE   W36
 BYTE   N06
 BYTE   W06
 BYTE   As1
 BYTE   W06
 BYTE   Gs1
 BYTE   W06
 BYTE   Gn1
 BYTE   W06
//  #02 //021   ----------------------------------------
 BYTE   N24  Fn1
 BYTE   W36
 BYTE   N06
 BYTE   W60
//  #02 //022   ----------------------------------------
 BYTE   N24
 BYTE   W36
 BYTE   N06
 BYTE   W36
 BYTE   N06
 BYTE   W06
 BYTE   Ds1
 BYTE   W06
 BYTE   Fn1
 BYTE   W06
 BYTE   Fs1
 BYTE   W06
//  #02 //023   ----------------------------------------
 BYTE   N24  Gn1
 BYTE   W36
 BYTE   N06
 BYTE   W60
//  #02 //024   ----------------------------------------
 BYTE   N18
 BYTE   W24
 BYTE   N18
 BYTE   W24
 BYTE   N18
 BYTE   W24
 BYTE   Gn1  v104
 BYTE   W24
//  #02 //025   ----------------------------------------
 BYTE   GoTo
  POIN2 Label_55EF66
//  #02 //026   ----------------------------------------
 BYTE   W12
 BYTE   FINE

//**************** Track 3 (Midi-Chn.2) ****************//

FE12VsHardinAzula_003:
//  #03 //000   ----------------------------------------
 BYTE   KEYSH   FE12VsHardinAzula_key+0
 BYTE   VOICE   10
 BYTE   MODT 0
 BYTE   LFOS 44
 BYTE   VOL   38*FE12VsHardinAzula_mvl/mxv
 BYTE   PAN   c_v-19
 BYTE   VOL   38*FE12VsHardinAzula_mvl/mxv
 BYTE   BEND   c_v+0
 BYTE   N06  Cn2  v112
 BYTE   W06
 BYTE   Cn2  v068
 BYTE   W06
 BYTE   Gn2  v080
 BYTE   W06
 BYTE   Gn2  v044
 BYTE   W06
 BYTE   Fs2  v052
 BYTE   W06
 BYTE   Fs2  v024
 BYTE   W06
 BYTE   Fn2  v116
 BYTE   W06
 BYTE   Fn2  v072
 BYTE   W06
 BYTE   As2  v084
 BYTE   W06
 BYTE   As2  v044
 BYTE   W06
 BYTE   An2  v060
 BYTE   W06
 BYTE   An2  v028
 BYTE   W06
 BYTE   Gs2  v124
 BYTE   W06
 BYTE   Gs2  v076
 BYTE   W06
 BYTE   Cs3  v092
 BYTE   W06
 BYTE   Cs3  v052
 BYTE   W06
//  #03 //001   ----------------------------------------
 BYTE   Cn3  v064
 BYTE   W06
 BYTE   Cn3  v032
 BYTE   W06
 BYTE   Bn2  v127
 BYTE   W06
 BYTE   Bn2  v080
 BYTE   W06
 BYTE   En3  v096
 BYTE   W06
 BYTE   En3  v056
 BYTE   W06
 BYTE   Ds3  v072
 BYTE   W06
 BYTE   Ds3  v036
 BYTE   W06
 BYTE   Dn3  v127
 BYTE   W06
 BYTE   Dn3  v080
 BYTE   W06
 BYTE   Gn3  v100
 BYTE   W06
 BYTE   Gn3  v056
 BYTE   W06
 BYTE   Fs3  v076
 BYTE   W06
 BYTE   Fs3  v036
 BYTE   W06
 BYTE   Fn3  v056
 BYTE   W06
 BYTE   Fn3  v024
 BYTE   W06
//  #03 //002   ----------------------------------------
 BYTE   VOL   38*FE12VsHardinAzula_mvl/mxv
 BYTE   N84  Fs3  v080
 BYTE   N84  As3
 BYTE   W06
 BYTE   VOL   35*FE12VsHardinAzula_mvl/mxv
 BYTE   W01
 BYTE   VOL   33*FE12VsHardinAzula_mvl/mxv
 BYTE   W01
 BYTE   VOL   30*FE12VsHardinAzula_mvl/mxv
 BYTE   W01
 BYTE   VOL   25*FE12VsHardinAzula_mvl/mxv
 BYTE   W01
 BYTE   VOL   23*FE12VsHardinAzula_mvl/mxv
 BYTE   W01
 BYTE   VOL   20*FE12VsHardinAzula_mvl/mxv
 BYTE   W01
 BYTE   VOL   17*FE12VsHardinAzula_mvl/mxv
 BYTE   W01
 BYTE   VOL   15*FE12VsHardinAzula_mvl/mxv
 BYTE   W01
 BYTE   VOL   13*FE12VsHardinAzula_mvl/mxv
 BYTE   W01
 BYTE   VOL   10*FE12VsHardinAzula_mvl/mxv
 BYTE   W01
 BYTE   VOL   8*FE12VsHardinAzula_mvl/mxv
 BYTE   W01
 BYTE   VOL   6*FE12VsHardinAzula_mvl/mxv
 BYTE   W01
 BYTE   VOL   5*FE12VsHardinAzula_mvl/mxv
 BYTE   W03
 BYTE   VOL   5*FE12VsHardinAzula_mvl/mxv
 BYTE   W01
 BYTE   VOL   6*FE12VsHardinAzula_mvl/mxv
 BYTE   W02
 BYTE   VOL   6*FE12VsHardinAzula_mvl/mxv
 BYTE   W01
 BYTE   VOL   6*FE12VsHardinAzula_mvl/mxv
 BYTE   W02
 BYTE   VOL   6*FE12VsHardinAzula_mvl/mxv
 BYTE   W01
 BYTE   VOL   6*FE12VsHardinAzula_mvl/mxv
 BYTE   W02
 BYTE   VOL   6*FE12VsHardinAzula_mvl/mxv
 BYTE   W01
 BYTE   VOL   6*FE12VsHardinAzula_mvl/mxv
 BYTE   W02
 BYTE   VOL   7*FE12VsHardinAzula_mvl/mxv
 BYTE   W01
 BYTE   VOL   8*FE12VsHardinAzula_mvl/mxv
 BYTE   W02
 BYTE   VOL   8*FE12VsHardinAzula_mvl/mxv
 BYTE   W01
 BYTE   VOL   8*FE12VsHardinAzula_mvl/mxv
 BYTE   W02
 BYTE   VOL   8*FE12VsHardinAzula_mvl/mxv
 BYTE   W01
 BYTE   VOL   9*FE12VsHardinAzula_mvl/mxv
 BYTE   W02
 BYTE   VOL   10*FE12VsHardinAzula_mvl/mxv
 BYTE   W01
 BYTE   VOL   10*FE12VsHardinAzula_mvl/mxv
 BYTE   W02
 BYTE   VOL   10*FE12VsHardinAzula_mvl/mxv
 BYTE   W01
 BYTE   VOL   11*FE12VsHardinAzula_mvl/mxv
 BYTE   W02
 BYTE   VOL   11*FE12VsHardinAzula_mvl/mxv
 BYTE   W01
 BYTE   VOL   12*FE12VsHardinAzula_mvl/mxv
 BYTE   W02
 BYTE   VOL   13*FE12VsHardinAzula_mvl/mxv
 BYTE   W01
 BYTE   VOL   14*FE12VsHardinAzula_mvl/mxv
 BYTE   W02
 BYTE   VOL   15*FE12VsHardinAzula_mvl/mxv
 BYTE   W01
 BYTE   VOL   16*FE12VsHardinAzula_mvl/mxv
 BYTE   W02
 BYTE   VOL   17*FE12VsHardinAzula_mvl/mxv
 BYTE   W01
 BYTE   VOL   18*FE12VsHardinAzula_mvl/mxv
 BYTE   W02
 BYTE   VOL   19*FE12VsHardinAzula_mvl/mxv
 BYTE   W01
 BYTE   VOL   20*FE12VsHardinAzula_mvl/mxv
 BYTE   W02
 BYTE   VOL   22*FE12VsHardinAzula_mvl/mxv
 BYTE   W01
 BYTE   VOL   23*FE12VsHardinAzula_mvl/mxv
 BYTE   W02
 BYTE   VOL   26*FE12VsHardinAzula_mvl/mxv
 BYTE   W01
 BYTE   VOL   28*FE12VsHardinAzula_mvl/mxv
 BYTE   W02
 BYTE   VOL   30*FE12VsHardinAzula_mvl/mxv
 BYTE   W01
 BYTE   VOL   34*FE12VsHardinAzula_mvl/mxv
 BYTE   W02
 BYTE   VOL   38*FE12VsHardinAzula_mvl/mxv
 BYTE   W24
//  #03 //003   ----------------------------------------
Label_55F6DA:
 BYTE   N24  Gn3  v092
 BYTE   W36
 BYTE   Gs3
 BYTE   W60
 BYTE   PEND 
//  #03 //004   ----------------------------------------
Label_55F6E1:
 BYTE   N24  Gn3  v092
 BYTE   W36
 BYTE   Fn3
 BYTE   W60
 BYTE   PEND 
//  #03 //005   ----------------------------------------
 BYTE   PATT
  POIN2 Label_55F6DA
//  #03 //006   ----------------------------------------
 BYTE   PATT
  POIN2 Label_55F6E1
//  #03 //007   ----------------------------------------
 BYTE   PATT
  POIN2 Label_55F6DA
//  #03 //008   ----------------------------------------
 BYTE   PATT
  POIN2 Label_55F6E1
//  #03 //009   ----------------------------------------
 BYTE   PATT
  POIN2 Label_55F6DA
//  #03 //010   ----------------------------------------
 BYTE   PATT
  POIN2 Label_55F6E1
//  #03 //011   ----------------------------------------
 BYTE   W96
//  #03 //012   ----------------------------------------
 BYTE   W96
//  #03 //013   ----------------------------------------
 BYTE   W96
//  #03 //014   ----------------------------------------
 BYTE   W96
//  #03 //015   ----------------------------------------
Label_55F70A:
 BYTE   N24  Gn4  v068
 BYTE   W36
 BYTE   Gs4
 BYTE   W60
 BYTE   PEND 
//  #03 //016   ----------------------------------------
Label_55F711:
 BYTE   N24  Gn4  v068
 BYTE   W36
 BYTE   Fn4
 BYTE   W60
 BYTE   PEND 
//  #03 //017   ----------------------------------------
 BYTE   PATT
  POIN2 Label_55F70A
//  #03 //018   ----------------------------------------
 BYTE   PATT
  POIN2 Label_55F711
//  #03 //019   ----------------------------------------
 BYTE   PATT
  POIN2 Label_55F70A
//  #03 //020   ----------------------------------------
 BYTE   PATT
  POIN2 Label_55F711
//  #03 //021   ----------------------------------------
 BYTE   PATT
  POIN2 Label_55F70A
//  #03 //022   ----------------------------------------
 BYTE   PATT
  POIN2 Label_55F711
//  #03 //023   ----------------------------------------
 BYTE   VOL   38*FE12VsHardinAzula_mvl/mxv
 BYTE   N96  Cn4  v056
 BYTE   W01
 BYTE   VOL   37*FE12VsHardinAzula_mvl/mxv
 BYTE   W02
 BYTE   VOL   37*FE12VsHardinAzula_mvl/mxv
 BYTE   W01
 BYTE   VOL   35*FE12VsHardinAzula_mvl/mxv
 BYTE   W02
 BYTE   VOL   30*FE12VsHardinAzula_mvl/mxv
 BYTE   W01
 BYTE   VOL   25*FE12VsHardinAzula_mvl/mxv
 BYTE   W01
 BYTE   VOL   21*FE12VsHardinAzula_mvl/mxv
 BYTE   W01
 BYTE   VOL   14*FE12VsHardinAzula_mvl/mxv
 BYTE   W01
 BYTE   VOL   11*FE12VsHardinAzula_mvl/mxv
 BYTE   W09
 BYTE   VOL   12*FE12VsHardinAzula_mvl/mxv
 BYTE   W06
 BYTE   VOL   13*FE12VsHardinAzula_mvl/mxv
 BYTE   W09
 BYTE   VOL   13*FE12VsHardinAzula_mvl/mxv
 BYTE   W06
 BYTE   VOL   13*FE12VsHardinAzula_mvl/mxv
 BYTE   W06
 BYTE   VOL   14*FE12VsHardinAzula_mvl/mxv
 BYTE   W06
 BYTE   VOL   14*FE12VsHardinAzula_mvl/mxv
 BYTE   W03
 BYTE   VOL   14*FE12VsHardinAzula_mvl/mxv
 BYTE   W06
 BYTE   VOL   15*FE12VsHardinAzula_mvl/mxv
 BYTE   W06
 BYTE   VOL   15*FE12VsHardinAzula_mvl/mxv
 BYTE   W03
 BYTE   VOL   15*FE12VsHardinAzula_mvl/mxv
 BYTE   W06
 BYTE   VOL   16*FE12VsHardinAzula_mvl/mxv
 BYTE   W03
 BYTE   VOL   16*FE12VsHardinAzula_mvl/mxv
 BYTE   W06
 BYTE   VOL   17*FE12VsHardinAzula_mvl/mxv
 BYTE   W03
 BYTE   VOL   17*FE12VsHardinAzula_mvl/mxv
 BYTE   W03
 BYTE   VOL   17*FE12VsHardinAzula_mvl/mxv
 BYTE   W03
 BYTE   VOL   18*FE12VsHardinAzula_mvl/mxv
 BYTE   W02
//  #03 //024   ----------------------------------------
 BYTE   N96  Bn3
 BYTE   W04
 BYTE   VOL   18*FE12VsHardinAzula_mvl/mxv
 BYTE   W03
 BYTE   VOL   18*FE12VsHardinAzula_mvl/mxv
 BYTE   W03
 BYTE   VOL   19*FE12VsHardinAzula_mvl/mxv
 BYTE   W03
 BYTE   VOL   19*FE12VsHardinAzula_mvl/mxv
 BYTE   W03
 BYTE   VOL   19*FE12VsHardinAzula_mvl/mxv
 BYTE   W03
 BYTE   VOL   20*FE12VsHardinAzula_mvl/mxv
 BYTE   W03
 BYTE   VOL   20*FE12VsHardinAzula_mvl/mxv
 BYTE   W03
 BYTE   VOL   20*FE12VsHardinAzula_mvl/mxv
 BYTE   W03
 BYTE   VOL   21*FE12VsHardinAzula_mvl/mxv
 BYTE   W03
 BYTE   VOL   22*FE12VsHardinAzula_mvl/mxv
 BYTE   W03
 BYTE   VOL   22*FE12VsHardinAzula_mvl/mxv
 BYTE   W03
 BYTE   VOL   22*FE12VsHardinAzula_mvl/mxv
 BYTE   W03
 BYTE   VOL   23*FE12VsHardinAzula_mvl/mxv
 BYTE   W03
 BYTE   VOL   23*FE12VsHardinAzula_mvl/mxv
 BYTE   W03
 BYTE   VOL   24*FE12VsHardinAzula_mvl/mxv
 BYTE   W03
 BYTE   VOL   25*FE12VsHardinAzula_mvl/mxv
 BYTE   W03
 BYTE   VOL   26*FE12VsHardinAzula_mvl/mxv
 BYTE   W03
 BYTE   VOL   27*FE12VsHardinAzula_mvl/mxv
 BYTE   W03
 BYTE   VOL   28*FE12VsHardinAzula_mvl/mxv
 BYTE   W03
 BYTE   VOL   28*FE12VsHardinAzula_mvl/mxv
 BYTE   W03
 BYTE   VOL   30*FE12VsHardinAzula_mvl/mxv
 BYTE   W03
 BYTE   VOL   30*FE12VsHardinAzula_mvl/mxv
 BYTE   W03
 BYTE   VOL   31*FE12VsHardinAzula_mvl/mxv
 BYTE   W03
 BYTE   VOL   32*FE12VsHardinAzula_mvl/mxv
 BYTE   W03
 BYTE   VOL   34*FE12VsHardinAzula_mvl/mxv
 BYTE   W03
 BYTE   VOL   35*FE12VsHardinAzula_mvl/mxv
 BYTE   W03
 BYTE   VOL   37*FE12VsHardinAzula_mvl/mxv
 BYTE   W02
 BYTE   VOL   38*FE12VsHardinAzula_mvl/mxv
 BYTE   W12
//  #03 //025   ----------------------------------------
 BYTE   GoTo
  POIN2 Label_55F6DA
//  #03 //026   ----------------------------------------
 BYTE   W12
 BYTE   FINE

//**************** Track 4 (Midi-Chn.3) ****************//

FE12VsHardinAzula_004:
//  #04 //000   ----------------------------------------
 BYTE   KEYSH   FE12VsHardinAzula_key+0
 BYTE   VOICE   30
 BYTE   MODT 0
 BYTE   LFOS 44
 BYTE   VOL   80*FE12VsHardinAzula_mvl/mxv
 BYTE   PAN   c_v+0
 BYTE   VOL   80*FE12VsHardinAzula_mvl/mxv
 BYTE   BEND   c_v+0
 BYTE   N06  Cn2  v108
 BYTE   W06
 BYTE   Cn1
 BYTE   W06
 BYTE   VOL   45*FE12VsHardinAzula_mvl/mxv
 BYTE   N06  Gn2  v080
 BYTE   W06
 BYTE   Gn1
 BYTE   W04
 BYTE   VOL   45*FE12VsHardinAzula_mvl/mxv
 BYTE   W02
 BYTE   N06  Fs2  v056
 BYTE   W02
 BYTE   VOL   46*FE12VsHardinAzula_mvl/mxv
 BYTE   W04
 BYTE   N06  Fs1
 BYTE   W01
 BYTE   VOL   47*FE12VsHardinAzula_mvl/mxv
 BYTE   W05
 BYTE   VOL   48*FE12VsHardinAzula_mvl/mxv
 BYTE   N06  Fn2  v112
 BYTE   W05
 BYTE   VOL   49*FE12VsHardinAzula_mvl/mxv
 BYTE   W01
 BYTE   N06  Fn1
 BYTE   W04
 BYTE   VOL   50*FE12VsHardinAzula_mvl/mxv
 BYTE   W02
 BYTE   N06  As2  v088
 BYTE   W03
 BYTE   VOL   51*FE12VsHardinAzula_mvl/mxv
 BYTE   W03
 BYTE   N06  As1
 BYTE   W02
 BYTE   VOL   51*FE12VsHardinAzula_mvl/mxv
 BYTE   W04
 BYTE   VOL   52*FE12VsHardinAzula_mvl/mxv
 BYTE   N06  An2  v064
 BYTE   W05
 BYTE   VOL   53*FE12VsHardinAzula_mvl/mxv
 BYTE   W01
 BYTE   N06  An1
 BYTE   W04
 BYTE   VOL   54*FE12VsHardinAzula_mvl/mxv
 BYTE   W02
 BYTE   N06  Gs2  v116
 BYTE   W03
 BYTE   VOL   55*FE12VsHardinAzula_mvl/mxv
 BYTE   W03
 BYTE   N06  Gs1
 BYTE   W02
 BYTE   VOL   56*FE12VsHardinAzula_mvl/mxv
 BYTE   W04
 BYTE   N06  Cs3  v096
 BYTE   W01
 BYTE   VOL   57*FE12VsHardinAzula_mvl/mxv
 BYTE   W05
 BYTE   VOL   57*FE12VsHardinAzula_mvl/mxv
 BYTE   N06  Cs2
 BYTE   W04
 BYTE   VOL   59*FE12VsHardinAzula_mvl/mxv
 BYTE   W02
//  #04 //001   ----------------------------------------
 BYTE   N06  Cn3  v072
 BYTE   W03
 BYTE   VOL   59*FE12VsHardinAzula_mvl/mxv
 BYTE   W03
 BYTE   N06  Cn2
 BYTE   W02
 BYTE   VOL   61*FE12VsHardinAzula_mvl/mxv
 BYTE   W04
 BYTE   N06  Bn2  v120
 BYTE   W01
 BYTE   VOL   61*FE12VsHardinAzula_mvl/mxv
 BYTE   W05
 BYTE   VOL   62*FE12VsHardinAzula_mvl/mxv
 BYTE   N06  Bn1
 BYTE   W05
 BYTE   VOL   63*FE12VsHardinAzula_mvl/mxv
 BYTE   W01
 BYTE   N06  En3  v104
 BYTE   W04
 BYTE   VOL   64*FE12VsHardinAzula_mvl/mxv
 BYTE   W02
 BYTE   N06  En2
 BYTE   W02
 BYTE   VOL   66*FE12VsHardinAzula_mvl/mxv
 BYTE   W04
 BYTE   N06  Ds3  v080
 BYTE   W01
 BYTE   VOL   66*FE12VsHardinAzula_mvl/mxv
 BYTE   W05
 BYTE   VOL   68*FE12VsHardinAzula_mvl/mxv
 BYTE   N06  Ds2
 BYTE   W05
 BYTE   VOL   68*FE12VsHardinAzula_mvl/mxv
 BYTE   W01
 BYTE   N06  Dn3  v127
 BYTE   W04
 BYTE   VOL   69*FE12VsHardinAzula_mvl/mxv
 BYTE   W02
 BYTE   N06  Dn2
 BYTE   W03
 BYTE   VOL   70*FE12VsHardinAzula_mvl/mxv
 BYTE   W03
 BYTE   N06  Gn3  v108
 BYTE   W02
 BYTE   VOL   71*FE12VsHardinAzula_mvl/mxv
 BYTE   W04
 BYTE   VOL   73*FE12VsHardinAzula_mvl/mxv
 BYTE   N06  Gn2
 BYTE   W05
 BYTE   VOL   73*FE12VsHardinAzula_mvl/mxv
 BYTE   W01
 BYTE   N06  Fs3  v088
 BYTE   W04
 BYTE   VOL   74*FE12VsHardinAzula_mvl/mxv
 BYTE   W02
 BYTE   N06  Fs2
 BYTE   W03
 BYTE   VOL   75*FE12VsHardinAzula_mvl/mxv
 BYTE   W03
 BYTE   N06  Fn3  v064
 BYTE   W02
 BYTE   VOL   76*FE12VsHardinAzula_mvl/mxv
 BYTE   W04
 BYTE   N06  Fn2
 BYTE   W01
 BYTE   VOL   78*FE12VsHardinAzula_mvl/mxv
 BYTE   W05
//  #04 //002   ----------------------------------------
 BYTE   VOL   80*FE12VsHardinAzula_mvl/mxv
 BYTE   N72  As3  v072
 BYTE   W06
 BYTE   VOL   80*FE12VsHardinAzula_mvl/mxv
 BYTE   W01
 BYTE   VOL   69*FE12VsHardinAzula_mvl/mxv
 BYTE   W01
 BYTE   VOL   64*FE12VsHardinAzula_mvl/mxv
 BYTE   W01
 BYTE   VOL   59*FE12VsHardinAzula_mvl/mxv
 BYTE   W01
 BYTE   VOL   50*FE12VsHardinAzula_mvl/mxv
 BYTE   W01
 BYTE   VOL   45*FE12VsHardinAzula_mvl/mxv
 BYTE   W01
 BYTE   VOL   40*FE12VsHardinAzula_mvl/mxv
 BYTE   W01
 BYTE   VOL   33*FE12VsHardinAzula_mvl/mxv
 BYTE   W01
 BYTE   VOL   29*FE12VsHardinAzula_mvl/mxv
 BYTE   W01
 BYTE   VOL   25*FE12VsHardinAzula_mvl/mxv
 BYTE   W01
 BYTE   VOL   19*FE12VsHardinAzula_mvl/mxv
 BYTE   W01
 BYTE   VOL   16*FE12VsHardinAzula_mvl/mxv
 BYTE   W01
 BYTE   VOL   14*FE12VsHardinAzula_mvl/mxv
 BYTE   W03
 BYTE   VOL   14*FE12VsHardinAzula_mvl/mxv
 BYTE   W01
 BYTE   VOL   15*FE12VsHardinAzula_mvl/mxv
 BYTE   W02
 BYTE   VOL   15*FE12VsHardinAzula_mvl/mxv
 BYTE   W01
 BYTE   VOL   16*FE12VsHardinAzula_mvl/mxv
 BYTE   W02
 BYTE   VOL   17*FE12VsHardinAzula_mvl/mxv
 BYTE   W01
 BYTE   VOL   17*FE12VsHardinAzula_mvl/mxv
 BYTE   W02
 BYTE   VOL   18*FE12VsHardinAzula_mvl/mxv
 BYTE   W01
 BYTE   VOL   18*FE12VsHardinAzula_mvl/mxv
 BYTE   W02
 BYTE   VOL   19*FE12VsHardinAzula_mvl/mxv
 BYTE   W01
 BYTE   VOL   19*FE12VsHardinAzula_mvl/mxv
 BYTE   W02
 BYTE   VOL   20*FE12VsHardinAzula_mvl/mxv
 BYTE   W01
 BYTE   VOL   22*FE12VsHardinAzula_mvl/mxv
 BYTE   W02
 BYTE   VOL   22*FE12VsHardinAzula_mvl/mxv
 BYTE   W01
 BYTE   VOL   23*FE12VsHardinAzula_mvl/mxv
 BYTE   W02
 BYTE   VOL   25*FE12VsHardinAzula_mvl/mxv
 BYTE   W01
 BYTE   VOL   27*FE12VsHardinAzula_mvl/mxv
 BYTE   W02
 BYTE   VOL   28*FE12VsHardinAzula_mvl/mxv
 BYTE   W01
 BYTE   VOL   30*FE12VsHardinAzula_mvl/mxv
 BYTE   W02
 BYTE   VOL   33*FE12VsHardinAzula_mvl/mxv
 BYTE   W01
 BYTE   VOL   36*FE12VsHardinAzula_mvl/mxv
 BYTE   W02
 BYTE   VOL   39*FE12VsHardinAzula_mvl/mxv
 BYTE   W01
 BYTE   VOL   43*FE12VsHardinAzula_mvl/mxv
 BYTE   W02
 BYTE   VOL   47*FE12VsHardinAzula_mvl/mxv
 BYTE   W01
 BYTE   VOL   52*FE12VsHardinAzula_mvl/mxv
 BYTE   W02
 BYTE   VOL   59*FE12VsHardinAzula_mvl/mxv
 BYTE   W01
 BYTE   VOL   68*FE12VsHardinAzula_mvl/mxv
 BYTE   W02
 BYTE   VOL   80*FE12VsHardinAzula_mvl/mxv
 BYTE   W36
//  #04 //003   ----------------------------------------
Label_0103A62B:
 BYTE   PAN   c_v+0
 BYTE   VOL   80*FE12VsHardinAzula_mvl/mxv
 BYTE   PAN   c_v+0
 BYTE   BEND   c_v+0
 BYTE   N06  Gn3  v072
 BYTE   W06
 BYTE   Gn3  v028
 BYTE   W06
 BYTE   Cn3  v048
 BYTE   W06
 BYTE   Cn3  v012
 BYTE   W06
 BYTE   Ds3  v072
 BYTE   W06
 BYTE   Ds3  v028
 BYTE   W06
 BYTE   Dn3  v060
 BYTE   W06
 BYTE   Dn3  v020
 BYTE   W06
 BYTE   As2  v060
 BYTE   W06
 BYTE   As2  v020
 BYTE   W06
 BYTE   Fn2  v060
 BYTE   W06
 BYTE   Fn2  v020
 BYTE   W06
 BYTE   Gn2  v060
 BYTE   W06
 BYTE   Gn2  v020
 BYTE   W06
 BYTE   As2  v060
 BYTE   W06
 BYTE   As2  v020
 BYTE   W06
//  #04 //004   ----------------------------------------
Label_0103A664:
 BYTE   N06  Dn3  v072
 BYTE   W06
 BYTE   Dn3  v028
 BYTE   W06
 BYTE   Ds3  v060
 BYTE   W06
 BYTE   Ds3  v020
 BYTE   W06
 BYTE   As3  v072
 BYTE   W06
 BYTE   As3  v028
 BYTE   W06
 BYTE   Fn3  v048
 BYTE   W06
 BYTE   Fn3  v012
 BYTE   W06
 BYTE   Dn3  v072
 BYTE   W06
 BYTE   Dn3  v028
 BYTE   W06
 BYTE   Fn2  v048
 BYTE   W06
 BYTE   Fn2  v012
 BYTE   W06
 BYTE   Gn2  v060
 BYTE   W06
 BYTE   Gn2  v020
 BYTE   W06
 BYTE   As2  v048
 BYTE   W06
 BYTE   As2  v012
 BYTE   W06
 BYTE   PEND 
//  #04 //005   ----------------------------------------
Label_0103A696:
 BYTE   N06  Gn3  v072
 BYTE   W06
 BYTE   Gn3  v028
 BYTE   W06
 BYTE   Cn3  v048
 BYTE   W06
 BYTE   Cn3  v012
 BYTE   W06
 BYTE   Ds3  v072
 BYTE   W06
 BYTE   Ds3  v028
 BYTE   W06
 BYTE   Dn3  v060
 BYTE   W06
 BYTE   Dn3  v020
 BYTE   W06
 BYTE   As2  v072
 BYTE   W06
 BYTE   As2  v028
 BYTE   W06
 BYTE   Fn2  v060
 BYTE   W06
 BYTE   Fn2  v020
 BYTE   W06
 BYTE   Gn2  v060
 BYTE   W06
 BYTE   Gn2  v020
 BYTE   W06
 BYTE   As2  v060
 BYTE   W06
 BYTE   As2  v020
 BYTE   W06
 BYTE   PEND 
//  #04 //006   ----------------------------------------
 BYTE   Dn3  v072
 BYTE   W06
 BYTE   Dn3  v028
 BYTE   W06
 BYTE   Ds3  v060
 BYTE   W06
 BYTE   Ds3  v020
 BYTE   W06
 BYTE   As3  v072
 BYTE   W06
 BYTE   As3  v028
 BYTE   W06
 BYTE   Fn3  v048
 BYTE   W06
 BYTE   Fn3  v012
 BYTE   W06
 BYTE   Dn4  v072
 BYTE   W06
 BYTE   Dn4  v028
 BYTE   W06
 BYTE   Fn3  v048
 BYTE   W06
 BYTE   Fn3  v012
 BYTE   W06
 BYTE   As3  v060
 BYTE   W06
 BYTE   As3  v020
 BYTE   W06
 BYTE   Fn3  v048
 BYTE   W06
 BYTE   Fn3  v012
 BYTE   W06
//  #04 //007   ----------------------------------------
 BYTE   Gn3  v072
 BYTE   W06
 BYTE   Gn3  v028
 BYTE   W06
 BYTE   Cn3  v048
 BYTE   W06
 BYTE   Cn3  v012
 BYTE   W06
 BYTE   Ds3  v072
 BYTE   W06
 BYTE   Ds3  v028
 BYTE   W06
 BYTE   Dn3  v060
 BYTE   W06
 BYTE   Dn3  v020
 BYTE   W06
 BYTE   As2  v060
 BYTE   W06
 BYTE   As2  v020
 BYTE   W06
 BYTE   Fn2  v060
 BYTE   W06
 BYTE   Fn2  v020
 BYTE   W06
 BYTE   Gn2  v060
 BYTE   W06
 BYTE   Gn2  v020
 BYTE   W06
 BYTE   As2  v060
 BYTE   W06
 BYTE   As2  v020
 BYTE   W06
//  #04 //008   ----------------------------------------
 BYTE   PATT
  POIN2 Label_0103A664
//  #04 //009   ----------------------------------------
 BYTE   PATT
  POIN2 Label_0103A696
//  #04 //010   ----------------------------------------
 BYTE   N06  Dn3  v072
 BYTE   W06
 BYTE   Dn3  v028
 BYTE   W06
 BYTE   Ds3  v060
 BYTE   W06
 BYTE   Ds3  v020
 BYTE   W06
 BYTE   As3  v072
 BYTE   W06
 BYTE   As3  v028
 BYTE   W06
 BYTE   Fn3  v048
 BYTE   W06
 BYTE   Fn3  v012
 BYTE   W06
 BYTE   Dn4  v068
 BYTE   W06
 BYTE   Dn4  v024
 BYTE   W06
 BYTE   Ds4  v072
 BYTE   W06
 BYTE   Ds4  v028
 BYTE   W06
 BYTE   Dn4  v064
 BYTE   W06
 BYTE   Dn4  v024
 BYTE   W06
 BYTE   As3  v060
 BYTE   W06
 BYTE   As3  v020
 BYTE   W06
//  #04 //011   ----------------------------------------
 BYTE   W96
//  #04 //012   ----------------------------------------
 BYTE   W96
//  #04 //013   ----------------------------------------
 BYTE   W96
//  #04 //014   ----------------------------------------
 BYTE   W96
//  #04 //015   ----------------------------------------
 BYTE   W96
//  #04 //016   ----------------------------------------
 BYTE   W96
//  #04 //017   ----------------------------------------
 BYTE   W96
//  #04 //018   ----------------------------------------
 BYTE   W96
//  #04 //019   ----------------------------------------
 BYTE   W96
//  #04 //020   ----------------------------------------
 BYTE   W96
//  #04 //021   ----------------------------------------
 BYTE   W96
//  #04 //022   ----------------------------------------
 BYTE   W96
//  #04 //023   ----------------------------------------
 BYTE   PAN   c_v-16
 BYTE   VOL   80*FE12VsHardinAzula_mvl/mxv
 BYTE   BEND   c_v+0
 BYTE   N12  Cn3  v088
 BYTE   W12
 BYTE   Gn3
 BYTE   W12
 BYTE   Cn4  v084
 BYTE   W12
 BYTE   Dn4
 BYTE   W12
 BYTE   Gn4  v080
 BYTE   W12
 BYTE   Dn4
 BYTE   W12
 BYTE   Gn4  v076
 BYTE   W12
 BYTE   Cn5
 BYTE   W12
//  #04 //024   ----------------------------------------
 BYTE   N06  Dn5
 BYTE   W06
 BYTE   Gn5  v072
 BYTE   W06
 BYTE   Dn5  v076
 BYTE   W06
 BYTE   Bn4
 BYTE   W06
 BYTE   Gn4  v080
 BYTE   W06
 BYTE   Dn4
 BYTE   W06
 BYTE   Bn3  v084
 BYTE   W06
 BYTE   Gn3  v072
 BYTE   W06
 BYTE   Dn4  v068
 BYTE   W06
 BYTE   Gn4  v072
 BYTE   W06
 BYTE   Dn4  v076
 BYTE   W06
 BYTE   Bn3
 BYTE   W06
 BYTE   Gn3  v080
 BYTE   W06
 BYTE   Dn3  v084
 BYTE   W06
 BYTE   Bn2
 BYTE   W06
 BYTE   Gn2  v088
 BYTE   W06
//  #04 //025   ----------------------------------------
 BYTE   GoTo
  POIN2 Label_0103A62B
//  #04 //026   ----------------------------------------
 BYTE   W12
 BYTE   FINE

//**************** Track 5 (Midi-Chn.4) ****************//

FE12VsHardinAzula_005:
//  #05 //000   ----------------------------------------
 BYTE   KEYSH   FE12VsHardinAzula_key+0
 BYTE   VOICE   10
 BYTE   MODT 0
 BYTE   LFOS 44
 BYTE   VOL   37*FE12VsHardinAzula_mvl/mxv
 BYTE   PAN   c_v+20
 BYTE   VOL   10*FE12VsHardinAzula_mvl/mxv
 BYTE   BEND   c_v+0
 BYTE   W30
 BYTE   VOL   10*FE12VsHardinAzula_mvl/mxv
 BYTE   W10
 BYTE   VOL   10*FE12VsHardinAzula_mvl/mxv
 BYTE   W11
 BYTE   VOL   11*FE12VsHardinAzula_mvl/mxv
 BYTE   W11
 BYTE   VOL   11*FE12VsHardinAzula_mvl/mxv
 BYTE   W07
 BYTE   VOL   11*FE12VsHardinAzula_mvl/mxv
 BYTE   W11
 BYTE   VOL   11*FE12VsHardinAzula_mvl/mxv
 BYTE   W07
 BYTE   VOL   12*FE12VsHardinAzula_mvl/mxv
 BYTE   W07
 BYTE   VOL   12*FE12VsHardinAzula_mvl/mxv
 BYTE   W02
//  #05 //001   ----------------------------------------
 BYTE   W05
 BYTE   VOL   13*FE12VsHardinAzula_mvl/mxv
 BYTE   W07
 BYTE   VOL   13*FE12VsHardinAzula_mvl/mxv
 BYTE   W07
 BYTE   VOL   13*FE12VsHardinAzula_mvl/mxv
 BYTE   W04
 BYTE   VOL   14*FE12VsHardinAzula_mvl/mxv
 BYTE   W07
 BYTE   VOL   14*FE12VsHardinAzula_mvl/mxv
 BYTE   W07
 BYTE   VOL   14*FE12VsHardinAzula_mvl/mxv
 BYTE   W04
 BYTE   VOL   15*FE12VsHardinAzula_mvl/mxv
 BYTE   W07
 BYTE   VOL   15*FE12VsHardinAzula_mvl/mxv
 BYTE   W04
 BYTE   VOL   15*FE12VsHardinAzula_mvl/mxv
 BYTE   W03
 BYTE   VOL   16*FE12VsHardinAzula_mvl/mxv
 BYTE   W07
 BYTE   VOL   16*FE12VsHardinAzula_mvl/mxv
 BYTE   W04
 BYTE   VOL   17*FE12VsHardinAzula_mvl/mxv
 BYTE   W04
 BYTE   VOL   17*FE12VsHardinAzula_mvl/mxv
 BYTE   W03
 BYTE   VOL   17*FE12VsHardinAzula_mvl/mxv
 BYTE   W04
 BYTE   VOL   18*FE12VsHardinAzula_mvl/mxv
 BYTE   W03
 BYTE   VOL   18*FE12VsHardinAzula_mvl/mxv
 BYTE   W04
 BYTE   VOL   18*FE12VsHardinAzula_mvl/mxv
 BYTE   W04
 BYTE   VOL   19*FE12VsHardinAzula_mvl/mxv
 BYTE   W03
 BYTE   VOL   19*FE12VsHardinAzula_mvl/mxv
 BYTE   W04
 BYTE   VOL   19*FE12VsHardinAzula_mvl/mxv
 BYTE   W01
//  #05 //002   ----------------------------------------
 BYTE   W02
 BYTE   VOL   20*FE12VsHardinAzula_mvl/mxv
 BYTE   W04
 BYTE   VOL   20*FE12VsHardinAzula_mvl/mxv
 BYTE   W03
 BYTE   VOL   20*FE12VsHardinAzula_mvl/mxv
 BYTE   W04
 BYTE   VOL   21*FE12VsHardinAzula_mvl/mxv
 BYTE   W04
 BYTE   VOL   22*FE12VsHardinAzula_mvl/mxv
 BYTE   W03
 BYTE   VOL   22*FE12VsHardinAzula_mvl/mxv
 BYTE   W04
 BYTE   VOL   22*FE12VsHardinAzula_mvl/mxv
 BYTE   W03
 BYTE   VOL   23*FE12VsHardinAzula_mvl/mxv
 BYTE   W04
 BYTE   VOL   23*FE12VsHardinAzula_mvl/mxv
 BYTE   W04
 BYTE   VOL   24*FE12VsHardinAzula_mvl/mxv
 BYTE   W03
 BYTE   VOL   26*FE12VsHardinAzula_mvl/mxv
 BYTE   W04
 BYTE   VOL   26*FE12VsHardinAzula_mvl/mxv
 BYTE   W03
 BYTE   VOL   27*FE12VsHardinAzula_mvl/mxv
 BYTE   W04
 BYTE   VOL   28*FE12VsHardinAzula_mvl/mxv
 BYTE   W03
 BYTE   VOL   28*FE12VsHardinAzula_mvl/mxv
 BYTE   W04
 BYTE   VOL   29*FE12VsHardinAzula_mvl/mxv
 BYTE   W04
 BYTE   VOL   30*FE12VsHardinAzula_mvl/mxv
 BYTE   W03
 BYTE   VOL   31*FE12VsHardinAzula_mvl/mxv
 BYTE   W04
 BYTE   VOL   33*FE12VsHardinAzula_mvl/mxv
 BYTE   W03
 BYTE   VOL   34*FE12VsHardinAzula_mvl/mxv
 BYTE   W04
 BYTE   VOL   36*FE12VsHardinAzula_mvl/mxv
 BYTE   W04
 BYTE   VOL   37*FE12VsHardinAzula_mvl/mxv
 BYTE   W18
//  #05 //003   ----------------------------------------
Label_0103A83C:
 BYTE   N24  Ds3  v080
 BYTE   W36
 BYTE   Fn3
 BYTE   W60
 BYTE   PEND 
//  #05 //004   ----------------------------------------
Label_0103A843:
 BYTE   N24  Ds3  v080
 BYTE   W36
 BYTE   Dn3
 BYTE   W60
 BYTE   PEND 
//  #05 //005   ----------------------------------------
 BYTE   PATT
  POIN2 Label_0103A83C
//  #05 //006   ----------------------------------------
 BYTE   PATT
  POIN2 Label_0103A843
//  #05 //007   ----------------------------------------
 BYTE   PATT
  POIN2 Label_0103A83C
//  #05 //008   ----------------------------------------
 BYTE   PATT
  POIN2 Label_0103A843
//  #05 //009   ----------------------------------------
 BYTE   PATT
  POIN2 Label_0103A83C
//  #05 //010   ----------------------------------------
 BYTE   PATT
  POIN2 Label_0103A843
//  #05 //011   ----------------------------------------
 BYTE   W96
//  #05 //012   ----------------------------------------
 BYTE   W96
//  #05 //013   ----------------------------------------
 BYTE   W96
//  #05 //014   ----------------------------------------
 BYTE   W96
//  #05 //015   ----------------------------------------
Label_0103A86C:
 BYTE   N24  Ds4  v068
 BYTE   W36
 BYTE   Fn4
 BYTE   W60
 BYTE   PEND 
//  #05 //016   ----------------------------------------
Label_0103A873:
 BYTE   N24  Ds4  v068
 BYTE   W36
 BYTE   Dn4
 BYTE   W60
 BYTE   PEND 
//  #05 //017   ----------------------------------------
 BYTE   PATT
  POIN2 Label_0103A86C
//  #05 //018   ----------------------------------------
 BYTE   PATT
  POIN2 Label_0103A873
//  #05 //019   ----------------------------------------
 BYTE   PATT
  POIN2 Label_0103A86C
//  #05 //020   ----------------------------------------
 BYTE   PATT
  POIN2 Label_0103A873
//  #05 //021   ----------------------------------------
 BYTE   PATT
  POIN2 Label_0103A86C
//  #05 //022   ----------------------------------------
 BYTE   PATT
  POIN2 Label_0103A873
//  #05 //023   ----------------------------------------
 BYTE   VOL   37*FE12VsHardinAzula_mvl/mxv
 BYTE   TIE  Dn4  v056
 BYTE   W01
 BYTE   VOL   36*FE12VsHardinAzula_mvl/mxv
 BYTE   W02
 BYTE   VOL   34*FE12VsHardinAzula_mvl/mxv
 BYTE   W01
 BYTE   VOL   33*FE12VsHardinAzula_mvl/mxv
 BYTE   W02
 BYTE   VOL   28*FE12VsHardinAzula_mvl/mxv
 BYTE   W01
 BYTE   VOL   25*FE12VsHardinAzula_mvl/mxv
 BYTE   W01
 BYTE   VOL   22*FE12VsHardinAzula_mvl/mxv
 BYTE   W01
 BYTE   VOL   16*FE12VsHardinAzula_mvl/mxv
 BYTE   W01
 BYTE   VOL   11*FE12VsHardinAzula_mvl/mxv
 BYTE   W09
 BYTE   VOL   12*FE12VsHardinAzula_mvl/mxv
 BYTE   W09
 BYTE   VOL   12*FE12VsHardinAzula_mvl/mxv
 BYTE   W06
 BYTE   VOL   13*FE12VsHardinAzula_mvl/mxv
 BYTE   W06
 BYTE   VOL   13*FE12VsHardinAzula_mvl/mxv
 BYTE   W06
 BYTE   VOL   13*FE12VsHardinAzula_mvl/mxv
 BYTE   W06
 BYTE   VOL   14*FE12VsHardinAzula_mvl/mxv
 BYTE   W06
 BYTE   VOL   14*FE12VsHardinAzula_mvl/mxv
 BYTE   W06
 BYTE   VOL   14*FE12VsHardinAzula_mvl/mxv
 BYTE   W06
 BYTE   VOL   15*FE12VsHardinAzula_mvl/mxv
 BYTE   W03
 BYTE   VOL   15*FE12VsHardinAzula_mvl/mxv
 BYTE   W06
 BYTE   VOL   15*FE12VsHardinAzula_mvl/mxv
 BYTE   W03
 BYTE   VOL   16*FE12VsHardinAzula_mvl/mxv
 BYTE   W03
 BYTE   VOL   16*FE12VsHardinAzula_mvl/mxv
 BYTE   W06
 BYTE   VOL   17*FE12VsHardinAzula_mvl/mxv
 BYTE   W03
 BYTE   VOL   17*FE12VsHardinAzula_mvl/mxv
 BYTE   W02
//  #05 //024   ----------------------------------------
 BYTE   W01
 BYTE   VOL   17*FE12VsHardinAzula_mvl/mxv
 BYTE   W03
 BYTE   VOL   18*FE12VsHardinAzula_mvl/mxv
 BYTE   W06
 BYTE   VOL   18*FE12VsHardinAzula_mvl/mxv
 BYTE   W03
 BYTE   VOL   18*FE12VsHardinAzula_mvl/mxv
 BYTE   W03
 BYTE   VOL   19*FE12VsHardinAzula_mvl/mxv
 BYTE   W03
 BYTE   VOL   19*FE12VsHardinAzula_mvl/mxv
 BYTE   W03
 BYTE   VOL   19*FE12VsHardinAzula_mvl/mxv
 BYTE   W03
 BYTE   VOL   20*FE12VsHardinAzula_mvl/mxv
 BYTE   W03
 BYTE   VOL   20*FE12VsHardinAzula_mvl/mxv
 BYTE   W03
 BYTE   VOL   21*FE12VsHardinAzula_mvl/mxv
 BYTE   W03
 BYTE   VOL   21*FE12VsHardinAzula_mvl/mxv
 BYTE   W03
 BYTE   VOL   22*FE12VsHardinAzula_mvl/mxv
 BYTE   W03
 BYTE   VOL   22*FE12VsHardinAzula_mvl/mxv
 BYTE   W03
 BYTE   VOL   23*FE12VsHardinAzula_mvl/mxv
 BYTE   W03
 BYTE   VOL   23*FE12VsHardinAzula_mvl/mxv
 BYTE   W03
 BYTE   VOL   24*FE12VsHardinAzula_mvl/mxv
 BYTE   W03
 BYTE   VOL   26*FE12VsHardinAzula_mvl/mxv
 BYTE   W03
 BYTE   VOL   26*FE12VsHardinAzula_mvl/mxv
 BYTE   W03
 BYTE   VOL   27*FE12VsHardinAzula_mvl/mxv
 BYTE   W03
 BYTE   VOL   28*FE12VsHardinAzula_mvl/mxv
 BYTE   W03
 BYTE   VOL   28*FE12VsHardinAzula_mvl/mxv
 BYTE   W03
 BYTE   VOL   30*FE12VsHardinAzula_mvl/mxv
 BYTE   W03
 BYTE   VOL   30*FE12VsHardinAzula_mvl/mxv
 BYTE   W03
 BYTE   VOL   32*FE12VsHardinAzula_mvl/mxv
 BYTE   W03
 BYTE   VOL   33*FE12VsHardinAzula_mvl/mxv
 BYTE   W03
 BYTE   VOL   34*FE12VsHardinAzula_mvl/mxv
 BYTE   W03
 BYTE   VOL   36*FE12VsHardinAzula_mvl/mxv
 BYTE   W02
 BYTE   VOL   37*FE12VsHardinAzula_mvl/mxv
 BYTE   W12
//  #05 //025   ----------------------------------------
 BYTE   EOT
 BYTE   GoTo
  POIN2 Label_0103A83C
//  #05 //026   ----------------------------------------
 BYTE   W12
 BYTE   FINE

//**************** Track 6 (Midi-Chn.5) ****************//

FE12VsHardinAzula_006:
//  #06 //000   ----------------------------------------
 BYTE   KEYSH   FE12VsHardinAzula_key+0
 BYTE   VOICE   61
 BYTE   MODT 0
 BYTE   LFOS 44
 BYTE   VOL   49*FE12VsHardinAzula_mvl/mxv
 BYTE   PAN   c_v+21
 BYTE   VOL   49*FE12VsHardinAzula_mvl/mxv
 BYTE   BEND   c_v+0
 BYTE   N12  Cn3  v108
 BYTE   W12
 BYTE   Gn3  v080
 BYTE   W12
 BYTE   Fs3  v056
 BYTE   W12
 BYTE   Fn3  v112
 BYTE   W12
 BYTE   As3  v088
 BYTE   W12
 BYTE   An3  v064
 BYTE   W12
 BYTE   Gs3  v116
 BYTE   W12
 BYTE   Cs4  v088
 BYTE   W12
//  #06 //001   ----------------------------------------
 BYTE   Cn4  v064
 BYTE   W12
 BYTE   Bn3  v104
 BYTE   W12
 BYTE   En4  v088
 BYTE   W12
 BYTE   Ds4  v064
 BYTE   W12
 BYTE   Dn4  v100
 BYTE   W12
 BYTE   Gn4  v076
 BYTE   W12
 BYTE   Fs4  v056
 BYTE   W24
//  #06 //002   ----------------------------------------
 BYTE   W84
 BYTE   VOL   49*FE12VsHardinAzula_mvl/mxv
 BYTE   BEND   c_v+0
 BYTE   W12
//  #06 //003   ----------------------------------------
Label_0103A9A0:
 BYTE   W96
//  #06 //004   ----------------------------------------
 BYTE   W60
 BYTE   N12  Cn3  v044
 BYTE   W12
 BYTE   Gn3  v064
 BYTE   W12
 BYTE   Cn4  v084
 BYTE   W12
//  #06 //005   ----------------------------------------
 BYTE   VOL   45*FE12VsHardinAzula_mvl/mxv
 BYTE   N72  Dn4  v096
 BYTE   W01
 BYTE   VOL   42*FE12VsHardinAzula_mvl/mxv
 BYTE   W01
 BYTE   VOL   39*FE12VsHardinAzula_mvl/mxv
 BYTE   W01
 BYTE   VOL   33*FE12VsHardinAzula_mvl/mxv
 BYTE   W01
 BYTE   VOL   30*FE12VsHardinAzula_mvl/mxv
 BYTE   W01
 BYTE   VOL   28*FE12VsHardinAzula_mvl/mxv
 BYTE   W01
 BYTE   VOL   24*FE12VsHardinAzula_mvl/mxv
 BYTE   W03
 BYTE   VOL   25*FE12VsHardinAzula_mvl/mxv
 BYTE   W03
 BYTE   VOL   26*FE12VsHardinAzula_mvl/mxv
 BYTE   W03
 BYTE   VOL   26*FE12VsHardinAzula_mvl/mxv
 BYTE   W03
 BYTE   VOL   27*FE12VsHardinAzula_mvl/mxv
 BYTE   W03
 BYTE   VOL   28*FE12VsHardinAzula_mvl/mxv
 BYTE   W03
 BYTE   VOL   28*FE12VsHardinAzula_mvl/mxv
 BYTE   W03
 BYTE   VOL   29*FE12VsHardinAzula_mvl/mxv
 BYTE   W03
 BYTE   VOL   30*FE12VsHardinAzula_mvl/mxv
 BYTE   W03
 BYTE   VOL   31*FE12VsHardinAzula_mvl/mxv
 BYTE   W03
 BYTE   VOL   32*FE12VsHardinAzula_mvl/mxv
 BYTE   W03
 BYTE   VOL   34*FE12VsHardinAzula_mvl/mxv
 BYTE   W03
 BYTE   VOL   35*FE12VsHardinAzula_mvl/mxv
 BYTE   W03
 BYTE   VOL   37*FE12VsHardinAzula_mvl/mxv
 BYTE   W03
 BYTE   VOL   38*FE12VsHardinAzula_mvl/mxv
 BYTE   W03
 BYTE   VOL   40*FE12VsHardinAzula_mvl/mxv
 BYTE   W03
 BYTE   VOL   42*FE12VsHardinAzula_mvl/mxv
 BYTE   W03
 BYTE   VOL   45*FE12VsHardinAzula_mvl/mxv
 BYTE   W03
 BYTE   VOL   49*FE12VsHardinAzula_mvl/mxv
 BYTE   W12
 BYTE   N24  Cn4  v076
 BYTE   W24
//  #06 //006   ----------------------------------------
 BYTE   VOL   49*FE12VsHardinAzula_mvl/mxv
 BYTE   N96  Gn3  v060
 BYTE   W06
 BYTE   VOL   48*FE12VsHardinAzula_mvl/mxv
 BYTE   W03
 BYTE   VOL   47*FE12VsHardinAzula_mvl/mxv
 BYTE   W03
 BYTE   VOL   46*FE12VsHardinAzula_mvl/mxv
 BYTE   W06
 BYTE   VOL   46*FE12VsHardinAzula_mvl/mxv
 BYTE   W03
 BYTE   VOL   45*FE12VsHardinAzula_mvl/mxv
 BYTE   W03
 BYTE   VOL   45*FE12VsHardinAzula_mvl/mxv
 BYTE   W03
 BYTE   VOL   44*FE12VsHardinAzula_mvl/mxv
 BYTE   W03
 BYTE   VOL   44*FE12VsHardinAzula_mvl/mxv
 BYTE   W03
 BYTE   VOL   43*FE12VsHardinAzula_mvl/mxv
 BYTE   W03
 BYTE   VOL   42*FE12VsHardinAzula_mvl/mxv
 BYTE   W03
 BYTE   VOL   41*FE12VsHardinAzula_mvl/mxv
 BYTE   W03
 BYTE   VOL   41*FE12VsHardinAzula_mvl/mxv
 BYTE   W03
 BYTE   VOL   40*FE12VsHardinAzula_mvl/mxv
 BYTE   W03
 BYTE   VOL   39*FE12VsHardinAzula_mvl/mxv
 BYTE   W03
 BYTE   VOL   39*FE12VsHardinAzula_mvl/mxv
 BYTE   W03
 BYTE   VOL   37*FE12VsHardinAzula_mvl/mxv
 BYTE   W03
 BYTE   VOL   37*FE12VsHardinAzula_mvl/mxv
 BYTE   W03
 BYTE   VOL   36*FE12VsHardinAzula_mvl/mxv
 BYTE   W03
 BYTE   VOL   35*FE12VsHardinAzula_mvl/mxv
 BYTE   W03
 BYTE   VOL   34*FE12VsHardinAzula_mvl/mxv
 BYTE   W03
 BYTE   VOL   33*FE12VsHardinAzula_mvl/mxv
 BYTE   W03
 BYTE   VOL   32*FE12VsHardinAzula_mvl/mxv
 BYTE   W03
 BYTE   VOL   30*FE12VsHardinAzula_mvl/mxv
 BYTE   W03
 BYTE   VOL   30*FE12VsHardinAzula_mvl/mxv
 BYTE   W03
 BYTE   VOL   28*FE12VsHardinAzula_mvl/mxv
 BYTE   W03
 BYTE   VOL   28*FE12VsHardinAzula_mvl/mxv
 BYTE   W03
 BYTE   VOL   26*FE12VsHardinAzula_mvl/mxv
 BYTE   W03
 BYTE   VOL   24*FE12VsHardinAzula_mvl/mxv
 BYTE   W01
 BYTE   VOL   26*FE12VsHardinAzula_mvl/mxv
 BYTE   W02
 BYTE   VOL   28*FE12VsHardinAzula_mvl/mxv
 BYTE   W01
 BYTE   VOL   29*FE12VsHardinAzula_mvl/mxv
 BYTE   W02
//  #06 //007   ----------------------------------------
 BYTE   VOL   30*FE12VsHardinAzula_mvl/mxv
 BYTE   W01
 BYTE   VOL   32*FE12VsHardinAzula_mvl/mxv
 BYTE   W02
 BYTE   VOL   34*FE12VsHardinAzula_mvl/mxv
 BYTE   W01
 BYTE   VOL   36*FE12VsHardinAzula_mvl/mxv
 BYTE   W02
 BYTE   VOL   37*FE12VsHardinAzula_mvl/mxv
 BYTE   W01
 BYTE   VOL   39*FE12VsHardinAzula_mvl/mxv
 BYTE   W02
 BYTE   VOL   41*FE12VsHardinAzula_mvl/mxv
 BYTE   W01
 BYTE   VOL   43*FE12VsHardinAzula_mvl/mxv
 BYTE   W02
 BYTE   VOL   45*FE12VsHardinAzula_mvl/mxv
 BYTE   W01
 BYTE   VOL   46*FE12VsHardinAzula_mvl/mxv
 BYTE   W02
 BYTE   VOL   49*FE12VsHardinAzula_mvl/mxv
 BYTE   W44
 BYTE   W01
 BYTE   N12  Cn3  v048
 BYTE   W12
 BYTE   Gn3  v060
 BYTE   W12
 BYTE   Cn4  v072
 BYTE   W06
 BYTE   VOL   49*FE12VsHardinAzula_mvl/mxv
 BYTE   W03
 BYTE   VOL   47*FE12VsHardinAzula_mvl/mxv
 BYTE   W03
//  #06 //008   ----------------------------------------
 BYTE   VOL   45*FE12VsHardinAzula_mvl/mxv
 BYTE   N12  Dn4  v088
 BYTE   W03
 BYTE   VOL   44*FE12VsHardinAzula_mvl/mxv
 BYTE   W03
 BYTE   VOL   41*FE12VsHardinAzula_mvl/mxv
 BYTE   W03
 BYTE   VOL   40*FE12VsHardinAzula_mvl/mxv
 BYTE   W03
 BYTE   VOL   39*FE12VsHardinAzula_mvl/mxv
 BYTE   N12  Cn4  v068
 BYTE   W03
 BYTE   VOL   37*FE12VsHardinAzula_mvl/mxv
 BYTE   W02
 BYTE   VOL   35*FE12VsHardinAzula_mvl/mxv
 BYTE   W01
 BYTE   VOL   49*FE12VsHardinAzula_mvl/mxv
 BYTE   W06
 BYTE   N12  Fn4  v104
 BYTE   W12
 BYTE   Ds4  v100
 BYTE   W12
 BYTE   Dn4  v088
 BYTE   W12
 BYTE   As3  v076
 BYTE   W12
 BYTE   Fn3  v052
 BYTE   W12
 BYTE   Gs3  v076
 BYTE   W12
//  #06 //009   ----------------------------------------
 BYTE   VOL   49*FE12VsHardinAzula_mvl/mxv
 BYTE   N96  Gn3  v060
 BYTE   W06
 BYTE   VOL   48*FE12VsHardinAzula_mvl/mxv
 BYTE   W06
 BYTE   VOL   47*FE12VsHardinAzula_mvl/mxv
 BYTE   W03
 BYTE   VOL   46*FE12VsHardinAzula_mvl/mxv
 BYTE   W06
 BYTE   VOL   46*FE12VsHardinAzula_mvl/mxv
 BYTE   W03
 BYTE   VOL   45*FE12VsHardinAzula_mvl/mxv
 BYTE   W03
 BYTE   VOL   45*FE12VsHardinAzula_mvl/mxv
 BYTE   W03
 BYTE   VOL   44*FE12VsHardinAzula_mvl/mxv
 BYTE   W03
 BYTE   VOL   44*FE12VsHardinAzula_mvl/mxv
 BYTE   W03
 BYTE   VOL   43*FE12VsHardinAzula_mvl/mxv
 BYTE   W03
 BYTE   VOL   42*FE12VsHardinAzula_mvl/mxv
 BYTE   W03
 BYTE   VOL   41*FE12VsHardinAzula_mvl/mxv
 BYTE   W03
 BYTE   VOL   41*FE12VsHardinAzula_mvl/mxv
 BYTE   W03
 BYTE   VOL   40*FE12VsHardinAzula_mvl/mxv
 BYTE   W03
 BYTE   VOL   40*FE12VsHardinAzula_mvl/mxv
 BYTE   W03
 BYTE   VOL   39*FE12VsHardinAzula_mvl/mxv
 BYTE   W03
 BYTE   VOL   38*FE12VsHardinAzula_mvl/mxv
 BYTE   W03
 BYTE   VOL   37*FE12VsHardinAzula_mvl/mxv
 BYTE   W03
 BYTE   VOL   37*FE12VsHardinAzula_mvl/mxv
 BYTE   W03
 BYTE   VOL   35*FE12VsHardinAzula_mvl/mxv
 BYTE   W03
 BYTE   VOL   34*FE12VsHardinAzula_mvl/mxv
 BYTE   W03
 BYTE   VOL   33*FE12VsHardinAzula_mvl/mxv
 BYTE   W03
 BYTE   VOL   32*FE12VsHardinAzula_mvl/mxv
 BYTE   W03
 BYTE   VOL   30*FE12VsHardinAzula_mvl/mxv
 BYTE   W03
 BYTE   VOL   29*FE12VsHardinAzula_mvl/mxv
 BYTE   W03
 BYTE   VOL   28*FE12VsHardinAzula_mvl/mxv
 BYTE   W03
 BYTE   VOL   27*FE12VsHardinAzula_mvl/mxv
 BYTE   W03
 BYTE   VOL   24*FE12VsHardinAzula_mvl/mxv
 BYTE   W01
 BYTE   VOL   27*FE12VsHardinAzula_mvl/mxv
 BYTE   W02
 BYTE   VOL   30*FE12VsHardinAzula_mvl/mxv
 BYTE   W01
 BYTE   VOL   34*FE12VsHardinAzula_mvl/mxv
 BYTE   W02
//  #06 //010   ----------------------------------------
 BYTE   VOL   37*FE12VsHardinAzula_mvl/mxv
 BYTE   W01
 BYTE   VOL   40*FE12VsHardinAzula_mvl/mxv
 BYTE   W02
 BYTE   VOL   44*FE12VsHardinAzula_mvl/mxv
 BYTE   W01
 BYTE   VOL   49*FE12VsHardinAzula_mvl/mxv
 BYTE   W32
 BYTE   VOL   49*FE12VsHardinAzula_mvl/mxv
 BYTE   BEND   c_v+0
 BYTE   W36
 BYTE   N03  Dn2  v068
 BYTE   W03
 BYTE   Ds2  v072
 BYTE   W03
 BYTE   Fn2  v076
 BYTE   W03
 BYTE   Gn2
 BYTE   W03
 BYTE   Gs2  v080
 BYTE   W03
 BYTE   As2  v084
 BYTE   W03
 BYTE   Cn3  v088
 BYTE   W03
 BYTE   Dn3
 BYTE   W03
//  #06 //011   ----------------------------------------
 BYTE   N36  Ds3  v092
 BYTE   W36
 BYTE   N12  Dn3  v068
 BYTE   W12
 BYTE   N36  Fn3  v096
 BYTE   W36
 BYTE   N12  Ds3  v068
 BYTE   W12
//  #06 //012   ----------------------------------------
 BYTE   N36  Gn3  v100
 BYTE   W36
 BYTE   N12  Fn3  v072
 BYTE   W12
 BYTE   Gs3  v108
 BYTE   W12
 BYTE   Gn3  v112
 BYTE   W12
 BYTE   As3  v116
 BYTE   W12
 BYTE   Gs3  v120
 BYTE   W12
//  #06 //013   ----------------------------------------
 BYTE   N36  Ds3  v108
 BYTE   W36
 BYTE   N12  Dn3  v076
 BYTE   W12
 BYTE   N36  Fn3  v112
 BYTE   W36
 BYTE   N12  Ds3  v080
 BYTE   W12
//  #06 //014   ----------------------------------------
 BYTE   N36  Gn3  v112
 BYTE   W36
 BYTE   N12  Fn3  v084
 BYTE   W12
 BYTE   Gs3  v116
 BYTE   W12
 BYTE   As3  v120
 BYTE   W12
 BYTE   Cn4  v124
 BYTE   W12
 BYTE   N24  Dn4  v127
 BYTE   W12
//  #06 //015   ----------------------------------------
 BYTE   W96
//  #06 //016   ----------------------------------------
 BYTE   W60
 BYTE   VOL   49*FE12VsHardinAzula_mvl/mxv
 BYTE   BEND   c_v+0
 BYTE   N12  Cn3  v056
 BYTE   W12
 BYTE   Gn3  v068
 BYTE   W12
 BYTE   Cn4  v088
 BYTE   W06
 BYTE   VOL   46*FE12VsHardinAzula_mvl/mxv
 BYTE   W01
 BYTE   VOL   43*FE12VsHardinAzula_mvl/mxv
 BYTE   W01
 BYTE   VOL   40*FE12VsHardinAzula_mvl/mxv
 BYTE   W01
 BYTE   VOL   34*FE12VsHardinAzula_mvl/mxv
 BYTE   W01
 BYTE   VOL   32*FE12VsHardinAzula_mvl/mxv
 BYTE   W01
 BYTE   VOL   29*FE12VsHardinAzula_mvl/mxv
 BYTE   W01
//  #06 //017   ----------------------------------------
 BYTE   VOL   24*FE12VsHardinAzula_mvl/mxv
 BYTE   N36  Dn4  v096
 BYTE   W03
 BYTE   VOL   25*FE12VsHardinAzula_mvl/mxv
 BYTE   W02
 BYTE   VOL   26*FE12VsHardinAzula_mvl/mxv
 BYTE   W01
 BYTE   VOL   26*FE12VsHardinAzula_mvl/mxv
 BYTE   W02
 BYTE   VOL   27*FE12VsHardinAzula_mvl/mxv
 BYTE   W01
 BYTE   VOL   28*FE12VsHardinAzula_mvl/mxv
 BYTE   W02
 BYTE   VOL   28*FE12VsHardinAzula_mvl/mxv
 BYTE   W01
 BYTE   VOL   29*FE12VsHardinAzula_mvl/mxv
 BYTE   W02
 BYTE   VOL   30*FE12VsHardinAzula_mvl/mxv
 BYTE   W01
 BYTE   VOL   31*FE12VsHardinAzula_mvl/mxv
 BYTE   W02
 BYTE   VOL   33*FE12VsHardinAzula_mvl/mxv
 BYTE   W01
 BYTE   VOL   35*FE12VsHardinAzula_mvl/mxv
 BYTE   W02
 BYTE   VOL   37*FE12VsHardinAzula_mvl/mxv
 BYTE   W01
 BYTE   VOL   40*FE12VsHardinAzula_mvl/mxv
 BYTE   W02
 BYTE   VOL   45*FE12VsHardinAzula_mvl/mxv
 BYTE   W01
 BYTE   VOL   49*FE12VsHardinAzula_mvl/mxv
 BYTE   W03
 BYTE   VOL   47*FE12VsHardinAzula_mvl/mxv
 BYTE   W03
 BYTE   VOL   46*FE12VsHardinAzula_mvl/mxv
 BYTE   W03
 BYTE   VOL   45*FE12VsHardinAzula_mvl/mxv
 BYTE   W03
 BYTE   VOL   44*FE12VsHardinAzula_mvl/mxv
 BYTE   N12  Gn4  v088
 BYTE   W03
 BYTE   VOL   42*FE12VsHardinAzula_mvl/mxv
 BYTE   W03
 BYTE   VOL   39*FE12VsHardinAzula_mvl/mxv
 BYTE   W01
 BYTE   VOL   37*FE12VsHardinAzula_mvl/mxv
 BYTE   W01
 BYTE   VOL   34*FE12VsHardinAzula_mvl/mxv
 BYTE   W01
 BYTE   VOL   29*FE12VsHardinAzula_mvl/mxv
 BYTE   W01
 BYTE   VOL   27*FE12VsHardinAzula_mvl/mxv
 BYTE   W01
 BYTE   VOL   24*FE12VsHardinAzula_mvl/mxv
 BYTE   W01
 BYTE   VOL   22*FE12VsHardinAzula_mvl/mxv
 BYTE   N36  Cn4  v068
 BYTE   W01
 BYTE   VOL   22*FE12VsHardinAzula_mvl/mxv
 BYTE   W02
 BYTE   VOL   23*FE12VsHardinAzula_mvl/mxv
 BYTE   W01
 BYTE   VOL   23*FE12VsHardinAzula_mvl/mxv
 BYTE   W02
 BYTE   VOL   25*FE12VsHardinAzula_mvl/mxv
 BYTE   W01
 BYTE   VOL   26*FE12VsHardinAzula_mvl/mxv
 BYTE   W02
 BYTE   VOL   27*FE12VsHardinAzula_mvl/mxv
 BYTE   W01
 BYTE   VOL   28*FE12VsHardinAzula_mvl/mxv
 BYTE   W02
 BYTE   VOL   30*FE12VsHardinAzula_mvl/mxv
 BYTE   W01
 BYTE   VOL   31*FE12VsHardinAzula_mvl/mxv
 BYTE   W02
 BYTE   VOL   33*FE12VsHardinAzula_mvl/mxv
 BYTE   W01
 BYTE   VOL   34*FE12VsHardinAzula_mvl/mxv
 BYTE   W02
 BYTE   VOL   37*FE12VsHardinAzula_mvl/mxv
 BYTE   W01
 BYTE   VOL   39*FE12VsHardinAzula_mvl/mxv
 BYTE   W02
 BYTE   VOL   41*FE12VsHardinAzula_mvl/mxv
 BYTE   W01
 BYTE   VOL   45*FE12VsHardinAzula_mvl/mxv
 BYTE   W02
 BYTE   VOL   49*FE12VsHardinAzula_mvl/mxv
 BYTE   W03
 BYTE   VOL   48*FE12VsHardinAzula_mvl/mxv
 BYTE   W03
 BYTE   VOL   47*FE12VsHardinAzula_mvl/mxv
 BYTE   W03
 BYTE   VOL   46*FE12VsHardinAzula_mvl/mxv
 BYTE   W03
 BYTE   VOL   46*FE12VsHardinAzula_mvl/mxv
 BYTE   N12  As4  v072
 BYTE   W03
 BYTE   VOL   45*FE12VsHardinAzula_mvl/mxv
 BYTE   W03
 BYTE   VOL   42*FE12VsHardinAzula_mvl/mxv
 BYTE   W01
 BYTE   VOL   40*FE12VsHardinAzula_mvl/mxv
 BYTE   W01
 BYTE   VOL   37*FE12VsHardinAzula_mvl/mxv
 BYTE   W01
 BYTE   VOL   34*FE12VsHardinAzula_mvl/mxv
 BYTE   W01
 BYTE   VOL   31*FE12VsHardinAzula_mvl/mxv
 BYTE   W01
 BYTE   VOL   29*FE12VsHardinAzula_mvl/mxv
 BYTE   W01
//  #06 //018   ----------------------------------------
 BYTE   VOL   27*FE12VsHardinAzula_mvl/mxv
 BYTE   N24  An4
 BYTE   W01
 BYTE   VOL   28*FE12VsHardinAzula_mvl/mxv
 BYTE   W02
 BYTE   VOL   29*FE12VsHardinAzula_mvl/mxv
 BYTE   W01
 BYTE   VOL   30*FE12VsHardinAzula_mvl/mxv
 BYTE   W02
 BYTE   VOL   32*FE12VsHardinAzula_mvl/mxv
 BYTE   W01
 BYTE   VOL   35*FE12VsHardinAzula_mvl/mxv
 BYTE   W02
 BYTE   VOL   38*FE12VsHardinAzula_mvl/mxv
 BYTE   W01
 BYTE   VOL   42*FE12VsHardinAzula_mvl/mxv
 BYTE   W02
 BYTE   VOL   49*FE12VsHardinAzula_mvl/mxv
 BYTE   W03
 BYTE   VOL   48*FE12VsHardinAzula_mvl/mxv
 BYTE   W03
 BYTE   VOL   47*FE12VsHardinAzula_mvl/mxv
 BYTE   W03
 BYTE   VOL   46*FE12VsHardinAzula_mvl/mxv
 BYTE   W03
 BYTE   VOL   46*FE12VsHardinAzula_mvl/mxv
 BYTE   N12  Gn4  v084
 BYTE   W03
 BYTE   VOL   45*FE12VsHardinAzula_mvl/mxv
 BYTE   W03
 BYTE   VOL   44*FE12VsHardinAzula_mvl/mxv
 BYTE   W03
 BYTE   VOL   44*FE12VsHardinAzula_mvl/mxv
 BYTE   W03
 BYTE   VOL   43*FE12VsHardinAzula_mvl/mxv
 BYTE   N12  Fn4  v068
 BYTE   W03
 BYTE   VOL   42*FE12VsHardinAzula_mvl/mxv
 BYTE   W03
 BYTE   VOL   41*FE12VsHardinAzula_mvl/mxv
 BYTE   W03
 BYTE   VOL   41*FE12VsHardinAzula_mvl/mxv
 BYTE   W03
 BYTE   VOL   42*FE12VsHardinAzula_mvl/mxv
 BYTE   N12  Ds4  v048
 BYTE   W03
 BYTE   VOL   43*FE12VsHardinAzula_mvl/mxv
 BYTE   W03
 BYTE   VOL   44*FE12VsHardinAzula_mvl/mxv
 BYTE   W03
 BYTE   VOL   44*FE12VsHardinAzula_mvl/mxv
 BYTE   W03
 BYTE   VOL   45*FE12VsHardinAzula_mvl/mxv
 BYTE   N12  Fn4  v060
 BYTE   W03
 BYTE   VOL   45*FE12VsHardinAzula_mvl/mxv
 BYTE   W03
 BYTE   VOL   46*FE12VsHardinAzula_mvl/mxv
 BYTE   W03
 BYTE   VOL   46*FE12VsHardinAzula_mvl/mxv
 BYTE   W03
 BYTE   VOL   47*FE12VsHardinAzula_mvl/mxv
 BYTE   N12  Gn4  v084
 BYTE   W03
 BYTE   VOL   48*FE12VsHardinAzula_mvl/mxv
 BYTE   W03
 BYTE   VOL   49*FE12VsHardinAzula_mvl/mxv
 BYTE   W03
 BYTE   VOL   48*FE12VsHardinAzula_mvl/mxv
 BYTE   W03
 BYTE   VOL   46*FE12VsHardinAzula_mvl/mxv
 BYTE   N12  Dn4  v076
 BYTE   W03
 BYTE   VOL   46*FE12VsHardinAzula_mvl/mxv
 BYTE   W03
 BYTE   VOL   45*FE12VsHardinAzula_mvl/mxv
 BYTE   W03
 BYTE   VOL   44*FE12VsHardinAzula_mvl/mxv
 BYTE   W03
//  #06 //019   ----------------------------------------
 BYTE   VOL   43*FE12VsHardinAzula_mvl/mxv
 BYTE   N12  Cn4  v064
 BYTE   W03
 BYTE   VOL   42*FE12VsHardinAzula_mvl/mxv
 BYTE   W03
 BYTE   VOL   41*FE12VsHardinAzula_mvl/mxv
 BYTE   W06
 BYTE   N12  Cn3
 BYTE   W02
 BYTE   VOL   41*FE12VsHardinAzula_mvl/mxv
 BYTE   W08
 BYTE   VOL   42*FE12VsHardinAzula_mvl/mxv
 BYTE   W02
 BYTE   N12  Ds3
 BYTE   W06
 BYTE   VOL   43*FE12VsHardinAzula_mvl/mxv
 BYTE   W06
 BYTE   N12  Gn3  v072
 BYTE   W02
 BYTE   VOL   44*FE12VsHardinAzula_mvl/mxv
 BYTE   W08
 BYTE   VOL   44*FE12VsHardinAzula_mvl/mxv
 BYTE   W02
 BYTE   N12  Gs2  v068
 BYTE   W06
 BYTE   VOL   45*FE12VsHardinAzula_mvl/mxv
 BYTE   W06
 BYTE   N12  Ds3  v072
 BYTE   W02
 BYTE   VOL   45*FE12VsHardinAzula_mvl/mxv
 BYTE   W08
 BYTE   VOL   46*FE12VsHardinAzula_mvl/mxv
 BYTE   W02
 BYTE   N12  Gn3  v076
 BYTE   W06
 BYTE   VOL   46*FE12VsHardinAzula_mvl/mxv
 BYTE   W06
 BYTE   N12  Cn4  v084
 BYTE   W02
 BYTE   VOL   47*FE12VsHardinAzula_mvl/mxv
 BYTE   W08
 BYTE   VOL   48*FE12VsHardinAzula_mvl/mxv
 BYTE   W02
//  #06 //020   ----------------------------------------
 BYTE   N12  Dn4  v088
 BYTE   W06
 BYTE   VOL   49*FE12VsHardinAzula_mvl/mxv
 BYTE   W06
 BYTE   N12  Fn4  v100
 BYTE   W05
 BYTE   VOL   48*FE12VsHardinAzula_mvl/mxv
 BYTE   W06
 BYTE   VOL   47*FE12VsHardinAzula_mvl/mxv
 BYTE   W01
 BYTE   N12  As4  v088
 BYTE   W05
 BYTE   VOL   46*FE12VsHardinAzula_mvl/mxv
 BYTE   W05
 BYTE   VOL   46*FE12VsHardinAzula_mvl/mxv
 BYTE   W02
 BYTE   N12  Gs4
 BYTE   W04
 BYTE   VOL   45*FE12VsHardinAzula_mvl/mxv
 BYTE   W06
 BYTE   VOL   45*FE12VsHardinAzula_mvl/mxv
 BYTE   W02
 BYTE   N12  Gn4  v076
 BYTE   W04
 BYTE   VOL   44*FE12VsHardinAzula_mvl/mxv
 BYTE   W05
 BYTE   VOL   44*FE12VsHardinAzula_mvl/mxv
 BYTE   W03
 BYTE   N12  Fn4  v060
 BYTE   W03
 BYTE   VOL   42*FE12VsHardinAzula_mvl/mxv
 BYTE   W03
 BYTE   VOL   43*FE12VsHardinAzula_mvl/mxv
 BYTE   W03
 BYTE   VOL   44*FE12VsHardinAzula_mvl/mxv
 BYTE   W03
 BYTE   VOL   44*FE12VsHardinAzula_mvl/mxv
 BYTE   N12  Ds4  v048
 BYTE   W03
 BYTE   VOL   45*FE12VsHardinAzula_mvl/mxv
 BYTE   W03
 BYTE   VOL   45*FE12VsHardinAzula_mvl/mxv
 BYTE   W03
 BYTE   VOL   46*FE12VsHardinAzula_mvl/mxv
 BYTE   W03
 BYTE   VOL   46*FE12VsHardinAzula_mvl/mxv
 BYTE   N12  Fn4  v064
 BYTE   W03
 BYTE   VOL   48*FE12VsHardinAzula_mvl/mxv
 BYTE   W03
 BYTE   VOL   49*FE12VsHardinAzula_mvl/mxv
 BYTE   W06
//  #06 //021   ----------------------------------------
 BYTE   N12  Dn4  v088
 BYTE   W01
 BYTE   VOL   48*FE12VsHardinAzula_mvl/mxv
 BYTE   W08
 BYTE   VOL   47*FE12VsHardinAzula_mvl/mxv
 BYTE   W03
 BYTE   N12  Dn3  v064
 BYTE   W04
 BYTE   VOL   46*FE12VsHardinAzula_mvl/mxv
 BYTE   W08
 BYTE   VOL   46*FE12VsHardinAzula_mvl/mxv
 BYTE   N12  Fn3  v052
 BYTE   W07
 BYTE   VOL   45*FE12VsHardinAzula_mvl/mxv
 BYTE   W05
 BYTE   N12  Gs3  v068
 BYTE   W03
 BYTE   VOL   45*FE12VsHardinAzula_mvl/mxv
 BYTE   W07
 BYTE   VOL   44*FE12VsHardinAzula_mvl/mxv
 BYTE   W02
 BYTE   N12  Cn4  v092
 BYTE   W06
 BYTE   VOL   44*FE12VsHardinAzula_mvl/mxv
 BYTE   W06
 BYTE   VOL   44*FE12VsHardinAzula_mvl/mxv
 BYTE   N12  Cn3  v076
 BYTE   W06
 BYTE   VOL   45*FE12VsHardinAzula_mvl/mxv
 BYTE   W06
 BYTE   VOL   45*FE12VsHardinAzula_mvl/mxv
 BYTE   N12  Fn3  v056
 BYTE   W06
 BYTE   VOL   46*FE12VsHardinAzula_mvl/mxv
 BYTE   W06
 BYTE   VOL   46*FE12VsHardinAzula_mvl/mxv
 BYTE   N12  Gs3  v072
 BYTE   W06
 BYTE   VOL   47*FE12VsHardinAzula_mvl/mxv
 BYTE   W06
//  #06 //022   ----------------------------------------
 BYTE   VOL   48*FE12VsHardinAzula_mvl/mxv
 BYTE   N12  As3  v096
 BYTE   W06
 BYTE   VOL   49*FE12VsHardinAzula_mvl/mxv
 BYTE   W06
 BYTE   N12  Cn4  v092
 BYTE   W07
 BYTE   VOL   48*FE12VsHardinAzula_mvl/mxv
 BYTE   W05
 BYTE   N12  As3  v088
 BYTE   W02
 BYTE   VOL   47*FE12VsHardinAzula_mvl/mxv
 BYTE   W07
 BYTE   VOL   46*FE12VsHardinAzula_mvl/mxv
 BYTE   W03
 BYTE   N12  Gs3  v080
 BYTE   W04
 BYTE   VOL   46*FE12VsHardinAzula_mvl/mxv
 BYTE   W07
 BYTE   VOL   45*FE12VsHardinAzula_mvl/mxv
 BYTE   W01
 BYTE   N12  Gn3  v068
 BYTE   W06
 BYTE   VOL   45*FE12VsHardinAzula_mvl/mxv
 BYTE   W06
 BYTE   N12  Fn3  v060
 BYTE   W01
 BYTE   VOL   44*FE12VsHardinAzula_mvl/mxv
 BYTE   W07
 BYTE   VOL   44*FE12VsHardinAzula_mvl/mxv
 BYTE   W04
 BYTE   N12  Ds3  v052
 BYTE   W03
 BYTE   VOL   43*FE12VsHardinAzula_mvl/mxv
 BYTE   W07
 BYTE   VOL   42*FE12VsHardinAzula_mvl/mxv
 BYTE   W02
 BYTE   N12  Dn3  v048
 BYTE   W05
 BYTE   VOL   41*FE12VsHardinAzula_mvl/mxv
 BYTE   W01
 BYTE   VOL   49*FE12VsHardinAzula_mvl/mxv
 BYTE   W06
//  #06 //023   ----------------------------------------
 BYTE   TIE  Gn3  v076
 BYTE   W02
 BYTE   VOL   49*FE12VsHardinAzula_mvl/mxv
 BYTE   W01
 BYTE   VOL   45*FE12VsHardinAzula_mvl/mxv
 BYTE   W01
 BYTE   VOL   39*FE12VsHardinAzula_mvl/mxv
 BYTE   W01
 BYTE   VOL   37*FE12VsHardinAzula_mvl/mxv
 BYTE   W01
 BYTE   VOL   34*FE12VsHardinAzula_mvl/mxv
 BYTE   W01
 BYTE   VOL   28*FE12VsHardinAzula_mvl/mxv
 BYTE   W01
 BYTE   VOL   25*FE12VsHardinAzula_mvl/mxv
 BYTE   W01
 BYTE   VOL   22*FE12VsHardinAzula_mvl/mxv
 BYTE   W10
 BYTE   VOL   22*FE12VsHardinAzula_mvl/mxv
 BYTE   W09
 BYTE   VOL   22*FE12VsHardinAzula_mvl/mxv
 BYTE   W10
 BYTE   VOL   23*FE12VsHardinAzula_mvl/mxv
 BYTE   W06
 BYTE   VOL   23*FE12VsHardinAzula_mvl/mxv
 BYTE   W06
 BYTE   VOL   23*FE12VsHardinAzula_mvl/mxv
 BYTE   W07
 BYTE   VOL   24*FE12VsHardinAzula_mvl/mxv
 BYTE   W06
 BYTE   VOL   25*FE12VsHardinAzula_mvl/mxv
 BYTE   W06
 BYTE   VOL   26*FE12VsHardinAzula_mvl/mxv
 BYTE   W04
 BYTE   VOL   26*FE12VsHardinAzula_mvl/mxv
 BYTE   W06
 BYTE   VOL   27*FE12VsHardinAzula_mvl/mxv
 BYTE   W03
 BYTE   VOL   27*FE12VsHardinAzula_mvl/mxv
 BYTE   W06
 BYTE   VOL   28*FE12VsHardinAzula_mvl/mxv
 BYTE   W04
 BYTE   VOL   28*FE12VsHardinAzula_mvl/mxv
 BYTE   W03
 BYTE   VOL   28*FE12VsHardinAzula_mvl/mxv
 BYTE   W01
//  #06 //024   ----------------------------------------
 BYTE   W02
 BYTE   VOL   29*FE12VsHardinAzula_mvl/mxv
 BYTE   W03
 BYTE   VOL   30*FE12VsHardinAzula_mvl/mxv
 BYTE   W03
 BYTE   VOL   30*FE12VsHardinAzula_mvl/mxv
 BYTE   W04
 BYTE   VOL   30*FE12VsHardinAzula_mvl/mxv
 BYTE   W03
 BYTE   VOL   31*FE12VsHardinAzula_mvl/mxv
 BYTE   W03
 BYTE   VOL   32*FE12VsHardinAzula_mvl/mxv
 BYTE   W03
 BYTE   VOL   32*FE12VsHardinAzula_mvl/mxv
 BYTE   W03
 BYTE   VOL   33*FE12VsHardinAzula_mvl/mxv
 BYTE   W03
 BYTE   VOL   34*FE12VsHardinAzula_mvl/mxv
 BYTE   W04
 BYTE   VOL   34*FE12VsHardinAzula_mvl/mxv
 BYTE   W03
 BYTE   VOL   35*FE12VsHardinAzula_mvl/mxv
 BYTE   W03
 BYTE   VOL   37*FE12VsHardinAzula_mvl/mxv
 BYTE   W03
 BYTE   VOL   37*FE12VsHardinAzula_mvl/mxv
 BYTE   W03
 BYTE   VOL   38*FE12VsHardinAzula_mvl/mxv
 BYTE   W03
 BYTE   VOL   39*FE12VsHardinAzula_mvl/mxv
 BYTE   W04
 BYTE   VOL   40*FE12VsHardinAzula_mvl/mxv
 BYTE   W03
 BYTE   VOL   41*FE12VsHardinAzula_mvl/mxv
 BYTE   W03
 BYTE   VOL   43*FE12VsHardinAzula_mvl/mxv
 BYTE   W03
 BYTE   VOL   45*FE12VsHardinAzula_mvl/mxv
 BYTE   W03
 BYTE   VOL   46*FE12VsHardinAzula_mvl/mxv
 BYTE   W04
 BYTE   VOL   49*FE12VsHardinAzula_mvl/mxv
 BYTE   W18
 BYTE   EOT
 BYTE   W12
//  #06 //025   ----------------------------------------
 BYTE   GoTo
  POIN2 Label_0103A9A0
//  #06 //026   ----------------------------------------
 BYTE   W12
 BYTE   FINE

//**************** Track 7 (Midi-Chn.6) ****************//

FE12VsHardinAzula_007:
//  #07 //000   ----------------------------------------
 BYTE   KEYSH   FE12VsHardinAzula_key+0
 BYTE   VOICE   73
 BYTE   MODT 0
 BYTE   LFOS 44
 BYTE   VOL   36*FE12VsHardinAzula_mvl/mxv
 BYTE   PAN   c_v-20
 BYTE   VOL   36*FE12VsHardinAzula_mvl/mxv
 BYTE   BEND   c_v+0
 BYTE   N12  Cn3  v108
 BYTE   W12
 BYTE   Gn3  v080
 BYTE   W12
 BYTE   Fs3  v056
 BYTE   W12
 BYTE   Fn3  v112
 BYTE   W12
 BYTE   As3  v088
 BYTE   W12
 BYTE   An3  v064
 BYTE   W12
 BYTE   Gs3  v116
 BYTE   W12
 BYTE   Cs4  v088
 BYTE   W12
//  #07 //001   ----------------------------------------
 BYTE   Cn4  v064
 BYTE   W12
 BYTE   Bn3  v104
 BYTE   W12
 BYTE   En4  v088
 BYTE   W12
 BYTE   Ds4  v064
 BYTE   W12
 BYTE   Dn4  v100
 BYTE   W12
 BYTE   Gn4  v076
 BYTE   W12
 BYTE   Fs4  v056
 BYTE   W24
//  #07 //002   ----------------------------------------
 BYTE   W78
 BYTE   VOL   36*FE12VsHardinAzula_mvl/mxv
 BYTE   BEND   c_v+0
 BYTE   W18
//  #07 //003   ----------------------------------------
Label_0103B5F4:
 BYTE   W96
//  #07 //004   ----------------------------------------
 BYTE   W60
 BYTE   N12  Cn3  v044
 BYTE   W12
 BYTE   Gn3  v064
 BYTE   W12
 BYTE   Cn4  v084
 BYTE   W06
 BYTE   VOL   33*FE12VsHardinAzula_mvl/mxv
 BYTE   W01
 BYTE   VOL   30*FE12VsHardinAzula_mvl/mxv
 BYTE   W01
 BYTE   VOL   28*FE12VsHardinAzula_mvl/mxv
 BYTE   W01
 BYTE   VOL   23*FE12VsHardinAzula_mvl/mxv
 BYTE   W01
 BYTE   VOL   22*FE12VsHardinAzula_mvl/mxv
 BYTE   W01
 BYTE   VOL   20*FE12VsHardinAzula_mvl/mxv
 BYTE   W01
//  #07 //005   ----------------------------------------
 BYTE   VOL   18*FE12VsHardinAzula_mvl/mxv
 BYTE   N72  Dn4  v096
 BYTE   W03
 BYTE   VOL   18*FE12VsHardinAzula_mvl/mxv
 BYTE   W03
 BYTE   VOL   19*FE12VsHardinAzula_mvl/mxv
 BYTE   W03
 BYTE   VOL   19*FE12VsHardinAzula_mvl/mxv
 BYTE   W03
 BYTE   VOL   19*FE12VsHardinAzula_mvl/mxv
 BYTE   W03
 BYTE   VOL   20*FE12VsHardinAzula_mvl/mxv
 BYTE   W03
 BYTE   VOL   20*FE12VsHardinAzula_mvl/mxv
 BYTE   W03
 BYTE   VOL   21*FE12VsHardinAzula_mvl/mxv
 BYTE   W03
 BYTE   VOL   22*FE12VsHardinAzula_mvl/mxv
 BYTE   W03
 BYTE   VOL   22*FE12VsHardinAzula_mvl/mxv
 BYTE   W03
 BYTE   VOL   23*FE12VsHardinAzula_mvl/mxv
 BYTE   W03
 BYTE   VOL   24*FE12VsHardinAzula_mvl/mxv
 BYTE   W03
 BYTE   VOL   26*FE12VsHardinAzula_mvl/mxv
 BYTE   W03
 BYTE   VOL   27*FE12VsHardinAzula_mvl/mxv
 BYTE   W03
 BYTE   VOL   28*FE12VsHardinAzula_mvl/mxv
 BYTE   W03
 BYTE   VOL   29*FE12VsHardinAzula_mvl/mxv
 BYTE   W03
 BYTE   VOL   30*FE12VsHardinAzula_mvl/mxv
 BYTE   W03
 BYTE   VOL   33*FE12VsHardinAzula_mvl/mxv
 BYTE   W03
 BYTE   VOL   36*FE12VsHardinAzula_mvl/mxv
 BYTE   W18
 BYTE   N24  Cn4  v076
 BYTE   W18
 BYTE   VOL   36*FE12VsHardinAzula_mvl/mxv
 BYTE   W06
//  #07 //006   ----------------------------------------
 BYTE   VOL   35*FE12VsHardinAzula_mvl/mxv
 BYTE   N96  Gn3  v060
 BYTE   W03
 BYTE   VOL   34*FE12VsHardinAzula_mvl/mxv
 BYTE   W03
 BYTE   VOL   34*FE12VsHardinAzula_mvl/mxv
 BYTE   W06
 BYTE   VOL   34*FE12VsHardinAzula_mvl/mxv
 BYTE   W03
 BYTE   VOL   33*FE12VsHardinAzula_mvl/mxv
 BYTE   W03
 BYTE   VOL   33*FE12VsHardinAzula_mvl/mxv
 BYTE   W03
 BYTE   VOL   32*FE12VsHardinAzula_mvl/mxv
 BYTE   W03
 BYTE   VOL   32*FE12VsHardinAzula_mvl/mxv
 BYTE   W03
 BYTE   VOL   31*FE12VsHardinAzula_mvl/mxv
 BYTE   W03
 BYTE   VOL   30*FE12VsHardinAzula_mvl/mxv
 BYTE   W03
 BYTE   VOL   30*FE12VsHardinAzula_mvl/mxv
 BYTE   W03
 BYTE   VOL   30*FE12VsHardinAzula_mvl/mxv
 BYTE   W03
 BYTE   VOL   29*FE12VsHardinAzula_mvl/mxv
 BYTE   W03
 BYTE   VOL   28*FE12VsHardinAzula_mvl/mxv
 BYTE   W03
 BYTE   VOL   28*FE12VsHardinAzula_mvl/mxv
 BYTE   W03
 BYTE   VOL   27*FE12VsHardinAzula_mvl/mxv
 BYTE   W03
 BYTE   VOL   27*FE12VsHardinAzula_mvl/mxv
 BYTE   W03
 BYTE   VOL   26*FE12VsHardinAzula_mvl/mxv
 BYTE   W03
 BYTE   VOL   26*FE12VsHardinAzula_mvl/mxv
 BYTE   W03
 BYTE   VOL   25*FE12VsHardinAzula_mvl/mxv
 BYTE   W03
 BYTE   VOL   23*FE12VsHardinAzula_mvl/mxv
 BYTE   W03
 BYTE   VOL   23*FE12VsHardinAzula_mvl/mxv
 BYTE   W03
 BYTE   VOL   22*FE12VsHardinAzula_mvl/mxv
 BYTE   W03
 BYTE   VOL   22*FE12VsHardinAzula_mvl/mxv
 BYTE   W03
 BYTE   VOL   20*FE12VsHardinAzula_mvl/mxv
 BYTE   W03
 BYTE   VOL   20*FE12VsHardinAzula_mvl/mxv
 BYTE   W03
 BYTE   VOL   19*FE12VsHardinAzula_mvl/mxv
 BYTE   W03
 BYTE   VOL   18*FE12VsHardinAzula_mvl/mxv
 BYTE   W01
 BYTE   VOL   19*FE12VsHardinAzula_mvl/mxv
 BYTE   W02
 BYTE   VOL   20*FE12VsHardinAzula_mvl/mxv
 BYTE   W01
 BYTE   VOL   21*FE12VsHardinAzula_mvl/mxv
 BYTE   W02
 BYTE   VOL   22*FE12VsHardinAzula_mvl/mxv
 BYTE   W01
 BYTE   VOL   23*FE12VsHardinAzula_mvl/mxv
 BYTE   W02
 BYTE   VOL   25*FE12VsHardinAzula_mvl/mxv
 BYTE   W01
 BYTE   VOL   26*FE12VsHardinAzula_mvl/mxv
 BYTE   W02
//  #07 //007   ----------------------------------------
 BYTE   VOL   27*FE12VsHardinAzula_mvl/mxv
 BYTE   W01
 BYTE   VOL   28*FE12VsHardinAzula_mvl/mxv
 BYTE   W02
 BYTE   VOL   30*FE12VsHardinAzula_mvl/mxv
 BYTE   W01
 BYTE   VOL   31*FE12VsHardinAzula_mvl/mxv
 BYTE   W02
 BYTE   VOL   33*FE12VsHardinAzula_mvl/mxv
 BYTE   W01
 BYTE   VOL   34*FE12VsHardinAzula_mvl/mxv
 BYTE   W02
 BYTE   VOL   36*FE12VsHardinAzula_mvl/mxv
 BYTE   W48
 BYTE   W03
 BYTE   N12  Cn3  v048
 BYTE   W12
 BYTE   Gn3  v060
 BYTE   W12
 BYTE   VOL   36*FE12VsHardinAzula_mvl/mxv
 BYTE   N12  Cn4  v072
 BYTE   W03
 BYTE   VOL   34*FE12VsHardinAzula_mvl/mxv
 BYTE   W03
 BYTE   VOL   33*FE12VsHardinAzula_mvl/mxv
 BYTE   W03
 BYTE   VOL   32*FE12VsHardinAzula_mvl/mxv
 BYTE   W03
//  #07 //008   ----------------------------------------
 BYTE   VOL   30*FE12VsHardinAzula_mvl/mxv
 BYTE   N12  Dn4  v088
 BYTE   W03
 BYTE   VOL   29*FE12VsHardinAzula_mvl/mxv
 BYTE   W03
 BYTE   VOL   28*FE12VsHardinAzula_mvl/mxv
 BYTE   W03
 BYTE   VOL   27*FE12VsHardinAzula_mvl/mxv
 BYTE   W02
 BYTE   VOL   26*FE12VsHardinAzula_mvl/mxv
 BYTE   W01
 BYTE   VOL   36*FE12VsHardinAzula_mvl/mxv
 BYTE   N12  Cn4  v068
 BYTE   W12
 BYTE   Fn4  v104
 BYTE   W12
 BYTE   Ds4  v100
 BYTE   W12
 BYTE   Dn4  v088
 BYTE   W12
 BYTE   As3  v076
 BYTE   W12
 BYTE   Fn3  v052
 BYTE   W12
 BYTE   Gs3  v076
 BYTE   W06
 BYTE   VOL   36*FE12VsHardinAzula_mvl/mxv
 BYTE   W06
//  #07 //009   ----------------------------------------
 BYTE   VOL   35*FE12VsHardinAzula_mvl/mxv
 BYTE   N96  Gn3  v060
 BYTE   W06
 BYTE   VOL   34*FE12VsHardinAzula_mvl/mxv
 BYTE   W03
 BYTE   VOL   34*FE12VsHardinAzula_mvl/mxv
 BYTE   W06
 BYTE   VOL   34*FE12VsHardinAzula_mvl/mxv
 BYTE   W03
 BYTE   VOL   33*FE12VsHardinAzula_mvl/mxv
 BYTE   W03
 BYTE   VOL   33*FE12VsHardinAzula_mvl/mxv
 BYTE   W03
 BYTE   VOL   32*FE12VsHardinAzula_mvl/mxv
 BYTE   W03
 BYTE   VOL   32*FE12VsHardinAzula_mvl/mxv
 BYTE   W03
 BYTE   VOL   31*FE12VsHardinAzula_mvl/mxv
 BYTE   W03
 BYTE   VOL   30*FE12VsHardinAzula_mvl/mxv
 BYTE   W03
 BYTE   VOL   30*FE12VsHardinAzula_mvl/mxv
 BYTE   W03
 BYTE   VOL   30*FE12VsHardinAzula_mvl/mxv
 BYTE   W03
 BYTE   VOL   29*FE12VsHardinAzula_mvl/mxv
 BYTE   W03
 BYTE   VOL   29*FE12VsHardinAzula_mvl/mxv
 BYTE   W03
 BYTE   VOL   28*FE12VsHardinAzula_mvl/mxv
 BYTE   W03
 BYTE   VOL   28*FE12VsHardinAzula_mvl/mxv
 BYTE   W03
 BYTE   VOL   27*FE12VsHardinAzula_mvl/mxv
 BYTE   W03
 BYTE   VOL   27*FE12VsHardinAzula_mvl/mxv
 BYTE   W03
 BYTE   VOL   26*FE12VsHardinAzula_mvl/mxv
 BYTE   W03
 BYTE   VOL   25*FE12VsHardinAzula_mvl/mxv
 BYTE   W03
 BYTE   VOL   23*FE12VsHardinAzula_mvl/mxv
 BYTE   W03
 BYTE   VOL   23*FE12VsHardinAzula_mvl/mxv
 BYTE   W03
 BYTE   VOL   22*FE12VsHardinAzula_mvl/mxv
 BYTE   W03
 BYTE   VOL   21*FE12VsHardinAzula_mvl/mxv
 BYTE   W03
 BYTE   VOL   20*FE12VsHardinAzula_mvl/mxv
 BYTE   W03
 BYTE   VOL   19*FE12VsHardinAzula_mvl/mxv
 BYTE   W03
 BYTE   VOL   18*FE12VsHardinAzula_mvl/mxv
 BYTE   W01
 BYTE   VOL   19*FE12VsHardinAzula_mvl/mxv
 BYTE   W02
 BYTE   VOL   22*FE12VsHardinAzula_mvl/mxv
 BYTE   W01
 BYTE   VOL   24*FE12VsHardinAzula_mvl/mxv
 BYTE   W02
 BYTE   VOL   27*FE12VsHardinAzula_mvl/mxv
 BYTE   W01
 BYTE   VOL   29*FE12VsHardinAzula_mvl/mxv
 BYTE   W02
 BYTE   VOL   32*FE12VsHardinAzula_mvl/mxv
 BYTE   W01
 BYTE   VOL   36*FE12VsHardinAzula_mvl/mxv
 BYTE   W02
//  #07 //010   ----------------------------------------
 BYTE   W30
 BYTE   VOL   36*FE12VsHardinAzula_mvl/mxv
 BYTE   BEND   c_v+0
 BYTE   W42
 BYTE   N03  Dn2  v032
 BYTE   W03
 BYTE   Ds2
 BYTE   W03
 BYTE   Fn2
 BYTE   W03
 BYTE   Gn2  v036
 BYTE   W03
 BYTE   Gs2  v040
 BYTE   W03
 BYTE   As2
 BYTE   W03
 BYTE   Cn3  v044
 BYTE   W03
 BYTE   Dn3
 BYTE   W03
//  #07 //011   ----------------------------------------
 BYTE   N36  Ds3  v048
 BYTE   W36
 BYTE   N12  Dn3  v028
 BYTE   W12
 BYTE   N36  Fn3  v056
 BYTE   W36
 BYTE   N12  Ds3  v032
 BYTE   W12
//  #07 //012   ----------------------------------------
 BYTE   N36  Gn3  v056
 BYTE   W36
 BYTE   N12  Fn3  v032
 BYTE   W12
 BYTE   Gs3  v060
 BYTE   W12
 BYTE   Gn3  v068
 BYTE   W12
 BYTE   As3  v072
 BYTE   W12
 BYTE   Gs3  v076
 BYTE   W12
//  #07 //013   ----------------------------------------
 BYTE   N36  Ds3  v060
 BYTE   W36
 BYTE   N12  Dn3  v036
 BYTE   W12
 BYTE   N36  Fn3  v064
 BYTE   W36
 BYTE   N12  Ds3  v040
 BYTE   W12
//  #07 //014   ----------------------------------------
 BYTE   N36  Gn3  v068
 BYTE   W36
 BYTE   N12  Fn3  v044
 BYTE   W12
 BYTE   Gs3  v072
 BYTE   W12
 BYTE   As3
 BYTE   W12
 BYTE   Cn4  v076
 BYTE   W12
 BYTE   Dn4  v080
 BYTE   W12
//  #07 //015   ----------------------------------------
 BYTE   W90
 BYTE   VOL   36*FE12VsHardinAzula_mvl/mxv
 BYTE   BEND   c_v+0
 BYTE   W06
//  #07 //016   ----------------------------------------
 BYTE   W60
 BYTE   N12  Cn3  v056
 BYTE   W12
 BYTE   Gn3  v068
 BYTE   W12
 BYTE   VOL   34*FE12VsHardinAzula_mvl/mxv
 BYTE   N12  Cn4  v088
 BYTE   W01
 BYTE   VOL   31*FE12VsHardinAzula_mvl/mxv
 BYTE   W01
 BYTE   VOL   29*FE12VsHardinAzula_mvl/mxv
 BYTE   W01
 BYTE   VOL   25*FE12VsHardinAzula_mvl/mxv
 BYTE   W01
 BYTE   VOL   23*FE12VsHardinAzula_mvl/mxv
 BYTE   W01
 BYTE   VOL   21*FE12VsHardinAzula_mvl/mxv
 BYTE   W01
 BYTE   VOL   18*FE12VsHardinAzula_mvl/mxv
 BYTE   W03
 BYTE   VOL   18*FE12VsHardinAzula_mvl/mxv
 BYTE   W02
 BYTE   VOL   19*FE12VsHardinAzula_mvl/mxv
 BYTE   W01
//  #07 //017   ----------------------------------------
 BYTE   VOL   19*FE12VsHardinAzula_mvl/mxv
 BYTE   N36  Dn4  v096
 BYTE   W02
 BYTE   VOL   19*FE12VsHardinAzula_mvl/mxv
 BYTE   W01
 BYTE   VOL   20*FE12VsHardinAzula_mvl/mxv
 BYTE   W02
 BYTE   VOL   20*FE12VsHardinAzula_mvl/mxv
 BYTE   W01
 BYTE   VOL   21*FE12VsHardinAzula_mvl/mxv
 BYTE   W02
 BYTE   VOL   22*FE12VsHardinAzula_mvl/mxv
 BYTE   W01
 BYTE   VOL   22*FE12VsHardinAzula_mvl/mxv
 BYTE   W02
 BYTE   VOL   23*FE12VsHardinAzula_mvl/mxv
 BYTE   W01
 BYTE   VOL   26*FE12VsHardinAzula_mvl/mxv
 BYTE   W02
 BYTE   VOL   27*FE12VsHardinAzula_mvl/mxv
 BYTE   W01
 BYTE   VOL   29*FE12VsHardinAzula_mvl/mxv
 BYTE   W02
 BYTE   VOL   33*FE12VsHardinAzula_mvl/mxv
 BYTE   W01
 BYTE   VOL   36*FE12VsHardinAzula_mvl/mxv
 BYTE   W03
 BYTE   VOL   34*FE12VsHardinAzula_mvl/mxv
 BYTE   W03
 BYTE   VOL   34*FE12VsHardinAzula_mvl/mxv
 BYTE   W03
 BYTE   VOL   33*FE12VsHardinAzula_mvl/mxv
 BYTE   W03
 BYTE   VOL   32*FE12VsHardinAzula_mvl/mxv
 BYTE   W03
 BYTE   VOL   30*FE12VsHardinAzula_mvl/mxv
 BYTE   W03
 BYTE   VOL   28*FE12VsHardinAzula_mvl/mxv
 BYTE   N12  Gn4  v088
 BYTE   W01
 BYTE   VOL   27*FE12VsHardinAzula_mvl/mxv
 BYTE   W01
 BYTE   VOL   24*FE12VsHardinAzula_mvl/mxv
 BYTE   W01
 BYTE   VOL   21*FE12VsHardinAzula_mvl/mxv
 BYTE   W01
 BYTE   VOL   19*FE12VsHardinAzula_mvl/mxv
 BYTE   W01
 BYTE   VOL   18*FE12VsHardinAzula_mvl/mxv
 BYTE   W01
 BYTE   VOL   16*FE12VsHardinAzula_mvl/mxv
 BYTE   W01
 BYTE   VOL   17*FE12VsHardinAzula_mvl/mxv
 BYTE   W02
 BYTE   VOL   17*FE12VsHardinAzula_mvl/mxv
 BYTE   W01
 BYTE   VOL   18*FE12VsHardinAzula_mvl/mxv
 BYTE   W02
 BYTE   VOL   18*FE12VsHardinAzula_mvl/mxv
 BYTE   N36  Cn4  v068
 BYTE   W01
 BYTE   VOL   19*FE12VsHardinAzula_mvl/mxv
 BYTE   W02
 BYTE   VOL   19*FE12VsHardinAzula_mvl/mxv
 BYTE   W01
 BYTE   VOL   20*FE12VsHardinAzula_mvl/mxv
 BYTE   W02
 BYTE   VOL   22*FE12VsHardinAzula_mvl/mxv
 BYTE   W01
 BYTE   VOL   22*FE12VsHardinAzula_mvl/mxv
 BYTE   W02
 BYTE   VOL   23*FE12VsHardinAzula_mvl/mxv
 BYTE   W01
 BYTE   VOL   25*FE12VsHardinAzula_mvl/mxv
 BYTE   W02
 BYTE   VOL   27*FE12VsHardinAzula_mvl/mxv
 BYTE   W01
 BYTE   VOL   28*FE12VsHardinAzula_mvl/mxv
 BYTE   W02
 BYTE   VOL   30*FE12VsHardinAzula_mvl/mxv
 BYTE   W01
 BYTE   VOL   33*FE12VsHardinAzula_mvl/mxv
 BYTE   W02
 BYTE   VOL   36*FE12VsHardinAzula_mvl/mxv
 BYTE   W03
 BYTE   VOL   35*FE12VsHardinAzula_mvl/mxv
 BYTE   W03
 BYTE   VOL   34*FE12VsHardinAzula_mvl/mxv
 BYTE   W03
 BYTE   VOL   34*FE12VsHardinAzula_mvl/mxv
 BYTE   W03
 BYTE   VOL   34*FE12VsHardinAzula_mvl/mxv
 BYTE   W03
 BYTE   VOL   33*FE12VsHardinAzula_mvl/mxv
 BYTE   W03
 BYTE   VOL   30*FE12VsHardinAzula_mvl/mxv
 BYTE   N12  As4  v072
 BYTE   W01
 BYTE   VOL   29*FE12VsHardinAzula_mvl/mxv
 BYTE   W01
 BYTE   VOL   27*FE12VsHardinAzula_mvl/mxv
 BYTE   W01
 BYTE   VOL   24*FE12VsHardinAzula_mvl/mxv
 BYTE   W01
 BYTE   VOL   22*FE12VsHardinAzula_mvl/mxv
 BYTE   W01
 BYTE   VOL   21*FE12VsHardinAzula_mvl/mxv
 BYTE   W01
 BYTE   VOL   19*FE12VsHardinAzula_mvl/mxv
 BYTE   W01
 BYTE   VOL   20*FE12VsHardinAzula_mvl/mxv
 BYTE   W02
 BYTE   VOL   21*FE12VsHardinAzula_mvl/mxv
 BYTE   W01
 BYTE   VOL   22*FE12VsHardinAzula_mvl/mxv
 BYTE   W02
//  #07 //018   ----------------------------------------
 BYTE   VOL   23*FE12VsHardinAzula_mvl/mxv
 BYTE   N24  An4
 BYTE   W01
 BYTE   VOL   26*FE12VsHardinAzula_mvl/mxv
 BYTE   W02
 BYTE   VOL   28*FE12VsHardinAzula_mvl/mxv
 BYTE   W01
 BYTE   VOL   30*FE12VsHardinAzula_mvl/mxv
 BYTE   W02
 BYTE   VOL   36*FE12VsHardinAzula_mvl/mxv
 BYTE   W03
 BYTE   VOL   35*FE12VsHardinAzula_mvl/mxv
 BYTE   W03
 BYTE   VOL   34*FE12VsHardinAzula_mvl/mxv
 BYTE   W03
 BYTE   VOL   34*FE12VsHardinAzula_mvl/mxv
 BYTE   W03
 BYTE   VOL   34*FE12VsHardinAzula_mvl/mxv
 BYTE   W03
 BYTE   VOL   33*FE12VsHardinAzula_mvl/mxv
 BYTE   W03
 BYTE   VOL   32*FE12VsHardinAzula_mvl/mxv
 BYTE   N12  Gn4  v084
 BYTE   W03
 BYTE   VOL   32*FE12VsHardinAzula_mvl/mxv
 BYTE   W03
 BYTE   VOL   31*FE12VsHardinAzula_mvl/mxv
 BYTE   W03
 BYTE   VOL   30*FE12VsHardinAzula_mvl/mxv
 BYTE   W03
 BYTE   VOL   30*FE12VsHardinAzula_mvl/mxv
 BYTE   N12  Fn4  v068
 BYTE   W03
 BYTE   VOL   30*FE12VsHardinAzula_mvl/mxv
 BYTE   W03
 BYTE   VOL   30*FE12VsHardinAzula_mvl/mxv
 BYTE   W03
 BYTE   VOL   31*FE12VsHardinAzula_mvl/mxv
 BYTE   W03
 BYTE   VOL   32*FE12VsHardinAzula_mvl/mxv
 BYTE   N12  Ds4  v048
 BYTE   W03
 BYTE   VOL   32*FE12VsHardinAzula_mvl/mxv
 BYTE   W03
 BYTE   VOL   33*FE12VsHardinAzula_mvl/mxv
 BYTE   W03
 BYTE   VOL   33*FE12VsHardinAzula_mvl/mxv
 BYTE   W03
 BYTE   VOL   34*FE12VsHardinAzula_mvl/mxv
 BYTE   N12  Fn4  v060
 BYTE   W03
 BYTE   VOL   34*FE12VsHardinAzula_mvl/mxv
 BYTE   W03
 BYTE   VOL   34*FE12VsHardinAzula_mvl/mxv
 BYTE   W03
 BYTE   VOL   35*FE12VsHardinAzula_mvl/mxv
 BYTE   W03
 BYTE   VOL   36*FE12VsHardinAzula_mvl/mxv
 BYTE   N12  Gn4  v084
 BYTE   W03
 BYTE   VOL   35*FE12VsHardinAzula_mvl/mxv
 BYTE   W03
 BYTE   VOL   34*FE12VsHardinAzula_mvl/mxv
 BYTE   W03
 BYTE   VOL   34*FE12VsHardinAzula_mvl/mxv
 BYTE   W03
 BYTE   VOL   33*FE12VsHardinAzula_mvl/mxv
 BYTE   N12  Dn4  v076
 BYTE   W03
 BYTE   VOL   32*FE12VsHardinAzula_mvl/mxv
 BYTE   W03
 BYTE   VOL   31*FE12VsHardinAzula_mvl/mxv
 BYTE   W03
 BYTE   VOL   30*FE12VsHardinAzula_mvl/mxv
 BYTE   W03
//  #07 //019   ----------------------------------------
 BYTE   VOL   30*FE12VsHardinAzula_mvl/mxv
 BYTE   N12  Cn4  v064
 BYTE   W08
 BYTE   VOL   30*FE12VsHardinAzula_mvl/mxv
 BYTE   W04
 BYTE   N12  Cn3
 BYTE   W04
 BYTE   VOL   30*FE12VsHardinAzula_mvl/mxv
 BYTE   W08
 BYTE   VOL   31*FE12VsHardinAzula_mvl/mxv
 BYTE   N12  Ds3
 BYTE   W08
 BYTE   VOL   32*FE12VsHardinAzula_mvl/mxv
 BYTE   W04
 BYTE   N12  Gn3  v072
 BYTE   W04
 BYTE   VOL   32*FE12VsHardinAzula_mvl/mxv
 BYTE   W08
 BYTE   VOL   33*FE12VsHardinAzula_mvl/mxv
 BYTE   N12  Gs2  v068
 BYTE   W08
 BYTE   VOL   33*FE12VsHardinAzula_mvl/mxv
 BYTE   W04
 BYTE   N12  Ds3  v072
 BYTE   W04
 BYTE   VOL   34*FE12VsHardinAzula_mvl/mxv
 BYTE   W08
 BYTE   VOL   34*FE12VsHardinAzula_mvl/mxv
 BYTE   N12  Gn3  v076
 BYTE   W08
 BYTE   VOL   34*FE12VsHardinAzula_mvl/mxv
 BYTE   W04
 BYTE   N12  Cn4  v084
 BYTE   W04
 BYTE   VOL   35*FE12VsHardinAzula_mvl/mxv
 BYTE   W08
//  #07 //020   ----------------------------------------
 BYTE   VOL   36*FE12VsHardinAzula_mvl/mxv
 BYTE   N12  Dn4  v088
 BYTE   W11
 BYTE   VOL   35*FE12VsHardinAzula_mvl/mxv
 BYTE   W01
 BYTE   N12  Fn4  v100
 BYTE   W05
 BYTE   VOL   34*FE12VsHardinAzula_mvl/mxv
 BYTE   W06
 BYTE   VOL   34*FE12VsHardinAzula_mvl/mxv
 BYTE   W01
 BYTE   N12  As4  v088
 BYTE   W04
 BYTE   VOL   34*FE12VsHardinAzula_mvl/mxv
 BYTE   W06
 BYTE   VOL   33*FE12VsHardinAzula_mvl/mxv
 BYTE   W02
 BYTE   N12  Gs4
 BYTE   W04
 BYTE   VOL   33*FE12VsHardinAzula_mvl/mxv
 BYTE   W06
 BYTE   VOL   32*FE12VsHardinAzula_mvl/mxv
 BYTE   W02
 BYTE   N12  Gn4  v076
 BYTE   W03
 BYTE   VOL   32*FE12VsHardinAzula_mvl/mxv
 BYTE   W06
 BYTE   VOL   30*FE12VsHardinAzula_mvl/mxv
 BYTE   W03
 BYTE   VOL   31*FE12VsHardinAzula_mvl/mxv
 BYTE   N12  Fn4  v060
 BYTE   W03
 BYTE   VOL   32*FE12VsHardinAzula_mvl/mxv
 BYTE   W03
 BYTE   VOL   32*FE12VsHardinAzula_mvl/mxv
 BYTE   W03
 BYTE   VOL   33*FE12VsHardinAzula_mvl/mxv
 BYTE   W03
 BYTE   VOL   33*FE12VsHardinAzula_mvl/mxv
 BYTE   N12  Ds4  v048
 BYTE   W03
 BYTE   VOL   34*FE12VsHardinAzula_mvl/mxv
 BYTE   W03
 BYTE   VOL   34*FE12VsHardinAzula_mvl/mxv
 BYTE   W03
 BYTE   VOL   35*FE12VsHardinAzula_mvl/mxv
 BYTE   W03
 BYTE   VOL   36*FE12VsHardinAzula_mvl/mxv
 BYTE   N12  Fn4  v064
 BYTE   W07
 BYTE   VOL   35*FE12VsHardinAzula_mvl/mxv
 BYTE   W05
//  #07 //021   ----------------------------------------
 BYTE   N12  Dn4  v088
 BYTE   W03
 BYTE   VOL   34*FE12VsHardinAzula_mvl/mxv
 BYTE   W07
 BYTE   VOL   34*FE12VsHardinAzula_mvl/mxv
 BYTE   W02
 BYTE   N12  Dn3  v064
 BYTE   W06
 BYTE   VOL   34*FE12VsHardinAzula_mvl/mxv
 BYTE   W06
 BYTE   N12  Fn3  v052
 BYTE   W01
 BYTE   VOL   33*FE12VsHardinAzula_mvl/mxv
 BYTE   W08
 BYTE   VOL   33*FE12VsHardinAzula_mvl/mxv
 BYTE   W03
 BYTE   N12  Gs3  v068
 BYTE   W04
 BYTE   VOL   32*FE12VsHardinAzula_mvl/mxv
 BYTE   W08
 BYTE   VOL   32*FE12VsHardinAzula_mvl/mxv
 BYTE   N12  Cn4  v092
 BYTE   W06
 BYTE   VOL   32*FE12VsHardinAzula_mvl/mxv
 BYTE   W06
 BYTE   VOL   33*FE12VsHardinAzula_mvl/mxv
 BYTE   N12  Cn3  v076
 BYTE   W06
 BYTE   VOL   33*FE12VsHardinAzula_mvl/mxv
 BYTE   W06
 BYTE   VOL   34*FE12VsHardinAzula_mvl/mxv
 BYTE   N12  Fn3  v056
 BYTE   W06
 BYTE   VOL   34*FE12VsHardinAzula_mvl/mxv
 BYTE   W06
 BYTE   VOL   34*FE12VsHardinAzula_mvl/mxv
 BYTE   N12  Gs3  v072
 BYTE   W06
 BYTE   VOL   35*FE12VsHardinAzula_mvl/mxv
 BYTE   W06
//  #07 //022   ----------------------------------------
 BYTE   VOL   36*FE12VsHardinAzula_mvl/mxv
 BYTE   N12  As3  v096
 BYTE   W12
 BYTE   Cn4  v092
 BYTE   W01
 BYTE   VOL   35*FE12VsHardinAzula_mvl/mxv
 BYTE   W07
 BYTE   VOL   34*FE12VsHardinAzula_mvl/mxv
 BYTE   W04
 BYTE   N12  As3  v088
 BYTE   W03
 BYTE   VOL   34*FE12VsHardinAzula_mvl/mxv
 BYTE   W07
 BYTE   VOL   34*FE12VsHardinAzula_mvl/mxv
 BYTE   W02
 BYTE   N12  Gs3  v080
 BYTE   W05
 BYTE   VOL   33*FE12VsHardinAzula_mvl/mxv
 BYTE   W07
 BYTE   VOL   33*FE12VsHardinAzula_mvl/mxv
 BYTE   N12  Gn3  v068
 BYTE   W07
 BYTE   VOL   32*FE12VsHardinAzula_mvl/mxv
 BYTE   W05
 BYTE   N12  Fn3  v060
 BYTE   W02
 BYTE   VOL   32*FE12VsHardinAzula_mvl/mxv
 BYTE   W07
 BYTE   VOL   31*FE12VsHardinAzula_mvl/mxv
 BYTE   W03
 BYTE   N12  Ds3  v052
 BYTE   W04
 BYTE   VOL   30*FE12VsHardinAzula_mvl/mxv
 BYTE   W07
 BYTE   VOL   30*FE12VsHardinAzula_mvl/mxv
 BYTE   W01
 BYTE   VOL   36*FE12VsHardinAzula_mvl/mxv
 BYTE   N12  Dn3  v048
 BYTE   W08
 BYTE   VOL   36*FE12VsHardinAzula_mvl/mxv
 BYTE   W01
 BYTE   VOL   33*FE12VsHardinAzula_mvl/mxv
 BYTE   W01
 BYTE   VOL   28*FE12VsHardinAzula_mvl/mxv
 BYTE   W01
 BYTE   VOL   27*FE12VsHardinAzula_mvl/mxv
 BYTE   W01
//  #07 //023   ----------------------------------------
 BYTE   VOL   24*FE12VsHardinAzula_mvl/mxv
 BYTE   TIE  Gn3  v076
 BYTE   W01
 BYTE   VOL   20*FE12VsHardinAzula_mvl/mxv
 BYTE   W01
 BYTE   VOL   18*FE12VsHardinAzula_mvl/mxv
 BYTE   W01
 BYTE   VOL   16*FE12VsHardinAzula_mvl/mxv
 BYTE   W10
 BYTE   VOL   16*FE12VsHardinAzula_mvl/mxv
 BYTE   W09
 BYTE   VOL   17*FE12VsHardinAzula_mvl/mxv
 BYTE   W10
 BYTE   VOL   17*FE12VsHardinAzula_mvl/mxv
 BYTE   W06
 BYTE   VOL   17*FE12VsHardinAzula_mvl/mxv
 BYTE   W06
 BYTE   VOL   18*FE12VsHardinAzula_mvl/mxv
 BYTE   W07
 BYTE   VOL   18*FE12VsHardinAzula_mvl/mxv
 BYTE   W06
 BYTE   VOL   18*FE12VsHardinAzula_mvl/mxv
 BYTE   W06
 BYTE   VOL   19*FE12VsHardinAzula_mvl/mxv
 BYTE   W04
 BYTE   VOL   19*FE12VsHardinAzula_mvl/mxv
 BYTE   W06
 BYTE   VOL   19*FE12VsHardinAzula_mvl/mxv
 BYTE   W03
 BYTE   VOL   19*FE12VsHardinAzula_mvl/mxv
 BYTE   W06
 BYTE   VOL   20*FE12VsHardinAzula_mvl/mxv
 BYTE   W04
 BYTE   VOL   20*FE12VsHardinAzula_mvl/mxv
 BYTE   W03
 BYTE   VOL   20*FE12VsHardinAzula_mvl/mxv
 BYTE   W03
 BYTE   VOL   21*FE12VsHardinAzula_mvl/mxv
 BYTE   W03
 BYTE   VOL   22*FE12VsHardinAzula_mvl/mxv
 BYTE   W01
//  #07 //024   ----------------------------------------
 BYTE   W02
 BYTE   VOL   22*FE12VsHardinAzula_mvl/mxv
 BYTE   W04
 BYTE   VOL   22*FE12VsHardinAzula_mvl/mxv
 BYTE   W03
 BYTE   VOL   22*FE12VsHardinAzula_mvl/mxv
 BYTE   W03
 BYTE   VOL   23*FE12VsHardinAzula_mvl/mxv
 BYTE   W03
 BYTE   VOL   23*FE12VsHardinAzula_mvl/mxv
 BYTE   W03
 BYTE   VOL   23*FE12VsHardinAzula_mvl/mxv
 BYTE   W03
 BYTE   VOL   24*FE12VsHardinAzula_mvl/mxv
 BYTE   W04
 BYTE   VOL   25*FE12VsHardinAzula_mvl/mxv
 BYTE   W03
 BYTE   VOL   26*FE12VsHardinAzula_mvl/mxv
 BYTE   W03
 BYTE   VOL   27*FE12VsHardinAzula_mvl/mxv
 BYTE   W03
 BYTE   VOL   27*FE12VsHardinAzula_mvl/mxv
 BYTE   W03
 BYTE   VOL   28*FE12VsHardinAzula_mvl/mxv
 BYTE   W03
 BYTE   VOL   28*FE12VsHardinAzula_mvl/mxv
 BYTE   W04
 BYTE   VOL   29*FE12VsHardinAzula_mvl/mxv
 BYTE   W03
 BYTE   VOL   30*FE12VsHardinAzula_mvl/mxv
 BYTE   W03
 BYTE   VOL   31*FE12VsHardinAzula_mvl/mxv
 BYTE   W03
 BYTE   VOL   33*FE12VsHardinAzula_mvl/mxv
 BYTE   W03
 BYTE   VOL   34*FE12VsHardinAzula_mvl/mxv
 BYTE   W04
 BYTE   VOL   36*FE12VsHardinAzula_mvl/mxv
 BYTE   W18
 BYTE   EOT
 BYTE   W18
//  #07 //025   ----------------------------------------
 BYTE   GoTo
  POIN2 Label_0103B5F4
//  #07 //026   ----------------------------------------
 BYTE   W12
 BYTE   FINE

//**************** Track 8 (Midi-Chn.7) ****************//

FE12VsHardinAzula_008:
//  #08 //000   ----------------------------------------
 BYTE   KEYSH   FE12VsHardinAzula_key+0
 BYTE   VOICE   127
 BYTE   MODT 0
 BYTE   LFOS 44
 BYTE   VOL   59*FE12VsHardinAzula_mvl/mxv
 BYTE   PAN   c_v+0
 BYTE   BEND   c_v+0
 BYTE   N06  Cn1  v080
 BYTE   N24  Dn1
 BYTE   N72  Cn2  v036
 BYTE   W06
 BYTE   N06  Cn1  v056
 BYTE   W06
 BYTE   Cn1  v048
 BYTE   W06
 BYTE   Cn1  v036
 BYTE   W06
 BYTE   Cn1  v052
 BYTE   W06
 BYTE   Cn1  v040
 BYTE   W06
 BYTE   Cn1  v056
 BYTE   N24  En1  v064
 BYTE   N72  Bn1  v016
 BYTE   W06
 BYTE   N06  Cn1  v044
 BYTE   W06
 BYTE   Cn1  v060
 BYTE   W06
 BYTE   Cn1  v048
 BYTE   W06
 BYTE   Cn1  v064
 BYTE   W06
 BYTE   Cn1  v052
 BYTE   W06
 BYTE   Cn1  v064
 BYTE   N24  Dn1
 BYTE   N72  Cn2  v028
 BYTE   W06
 BYTE   N06  Cn1  v052
 BYTE   W06
 BYTE   Cn1  v068
 BYTE   W06
 BYTE   Cn1  v056
 BYTE   W06
//  #08 //001   ----------------------------------------
 BYTE   Cn1  v072
 BYTE   W06
 BYTE   Cn1  v056
 BYTE   W06
 BYTE   Cn1  v076
 BYTE   N24  En1  v072
 BYTE   N36  Bn1  v032
 BYTE   W06
 BYTE   N06  Cn1  v056
 BYTE   W06
 BYTE   Cn1  v076
 BYTE   W06
 BYTE   Cn1  v060
 BYTE   W06
 BYTE   Cn1  v080
 BYTE   W06
 BYTE   Cn1  v060
 BYTE   W06
 BYTE   Cn1  v080
 BYTE   N24  Dn1
 BYTE   N72  Cn2  v040
 BYTE   W12
 BYTE   N06  Cn1  v080
 BYTE   W12
 BYTE   N12  Gn1  v064
 BYTE   W02
 BYTE   N10  Fn1  v060
 BYTE   W10
 BYTE   N06  Cn1  v080
 BYTE   W12
//  #08 //002   ----------------------------------------
 BYTE   N24  Cn1  v127
 BYTE   N24  As1  v080
 BYTE   W24
 BYTE   As1  v064
 BYTE   W24
 BYTE   As1  v088
 BYTE   W12
 BYTE   N12  Cn1  v127
 BYTE   W12
 BYTE   N24  En1
 BYTE   W02
 BYTE   N22  Dn1  v120
 BYTE   W22
//  #08 //003   ----------------------------------------
Label_0103B2C9:
 BYTE   N12  Cn1  v127
 BYTE   N96  Cn2  v048
 BYTE   W24
 BYTE   N12  Gs1  v024
 BYTE   W12
 BYTE   Cn1  v100
 BYTE   W12
 BYTE   Gs1  v036
 BYTE   W12
 BYTE   Cn1  v088
 BYTE   W12
 BYTE   N06  Fs1  v052
 BYTE   W06
 BYTE   Fs1  v028
 BYTE   W06
 BYTE   Fs1  v036
 BYTE   W06
 BYTE   Fs1  v024
 BYTE   W06
//  #08 //004   ----------------------------------------
 BYTE   N14  Cn1  v124
 BYTE   N12  Gs1  v044
 BYTE   W24
 BYTE   Gs1  v024
 BYTE   W12
 BYTE   Cn1  v100
 BYTE   W12
 BYTE   Gs1  v036
 BYTE   W12
 BYTE   Cn1  v088
 BYTE   W12
 BYTE   N06  En1  v076
 BYTE   N12  Gs1  v020
 BYTE   W06
 BYTE   N06  Dn1  v048
 BYTE   W06
 BYTE   En1  v060
 BYTE   W06
 BYTE   Dn1  v040
 BYTE   W06
//  #08 //005   ----------------------------------------
Label_0103B30E:
 BYTE   N12  Cn1  v127
 BYTE   N12  Gs1  v044
 BYTE   W24
 BYTE   Gs1  v024
 BYTE   W12
 BYTE   Cn1  v100
 BYTE   N06  Fs1  v032
 BYTE   W06
 BYTE   Fs1  v020
 BYTE   W06
 BYTE   N12  Gs1  v036
 BYTE   W12
 BYTE   Cn1  v088
 BYTE   W12
 BYTE   N06  Fs1  v052
 BYTE   W06
 BYTE   Fs1  v028
 BYTE   W06
 BYTE   Fs1  v036
 BYTE   W06
 BYTE   Fs1  v024
 BYTE   W06
 BYTE   PEND 
//  #08 //006   ----------------------------------------
 BYTE   N12  Cn1  v124
 BYTE   N12  Gs1  v044
 BYTE   W24
 BYTE   Gs1  v024
 BYTE   W12
 BYTE   Cn1  v100
 BYTE   N06  En1  v048
 BYTE   W06
 BYTE   Dn1  v036
 BYTE   W06
 BYTE   N12  Gs1
 BYTE   W12
 BYTE   Cn1  v088
 BYTE   W12
 BYTE   N06  En1  v076
 BYTE   N12  Gs1  v020
 BYTE   W06
 BYTE   N06  Dn1  v048
 BYTE   W06
 BYTE   En1  v060
 BYTE   W06
 BYTE   Dn1  v040
 BYTE   W06
//  #08 //007   ----------------------------------------
 BYTE   N12  Cn1  v127
 BYTE   N12  Gs1  v044
 BYTE   W24
 BYTE   Gs1  v024
 BYTE   W12
 BYTE   Cn1  v100
 BYTE   W12
 BYTE   Gs1  v036
 BYTE   W12
 BYTE   Cn1  v088
 BYTE   W12
 BYTE   N06  Fs1  v052
 BYTE   W06
 BYTE   Fs1  v028
 BYTE   W06
 BYTE   Fs1  v036
 BYTE   W06
 BYTE   Fs1  v024
 BYTE   W06
//  #08 //008   ----------------------------------------
 BYTE   N12  Cn1  v124
 BYTE   N12  Gs1  v044
 BYTE   W24
 BYTE   Gs1  v024
 BYTE   W12
 BYTE   Cn1  v100
 BYTE   W12
 BYTE   Gs1  v036
 BYTE   W12
 BYTE   Cn1  v088
 BYTE   W12
 BYTE   N06  En1  v076
 BYTE   N12  Gs1  v020
 BYTE   W06
 BYTE   N06  Dn1  v048
 BYTE   W06
 BYTE   En1  v060
 BYTE   W06
 BYTE   Dn1  v040
 BYTE   W06
//  #08 //009   ----------------------------------------
 BYTE   PATT
  POIN2 Label_0103B30E
//  #08 //010   ----------------------------------------
 BYTE   N12  Cn1  v127
 BYTE   N48  Bn1  v048
 BYTE   W12
 BYTE   N12  Dn1  v096
 BYTE   W12
 BYTE   En1  v120
 BYTE   W12
 BYTE   N06  Cn1  v100
 BYTE   W06
 BYTE   Cn1  v127
 BYTE   W06
 BYTE   N12  En1  v124
 BYTE   W01
 BYTE   N10  Dn1  v108
 BYTE   W11
 BYTE   N12  Cn1  v127
 BYTE   W12
 BYTE   Gn1  v108
 BYTE   W01
 BYTE   N10  Fn1  v096
 BYTE   W11
 BYTE   N12  Cn1  v127
 BYTE   W12
//  #08 //011   ----------------------------------------
 BYTE   N12
 BYTE   N72  Cn2  v064
 BYTE   W24
 BYTE   N12  Cn1  v127
 BYTE   N18  As1  v056
 BYTE   W12
 BYTE   N12  Cn1  v127
 BYTE   W12
 BYTE   Dn1
 BYTE   N18  As1  v072
 BYTE   W12
 BYTE   N12  Cn1  v127
 BYTE   W12
 BYTE   N18  As1  v052
 BYTE   W12
 BYTE   N12  Cn1  v127
 BYTE   W12
//  #08 //012   ----------------------------------------
 BYTE   N18  As1  v060
 BYTE   W12
 BYTE   N12  Cn1  v127
 BYTE   W12
 BYTE   N12
 BYTE   N18  As1  v056
 BYTE   W12
 BYTE   N06  Cn1  v108
 BYTE   W06
 BYTE   Cn1  v088
 BYTE   W06
 BYTE   N12  Dn1  v127
 BYTE   N18  As1  v072
 BYTE   W12
 BYTE   N12  Cn1  v127
 BYTE   W12
 BYTE   En1
 BYTE   N18  As1  v052
 BYTE   W12
 BYTE   N12  Dn1  v127
 BYTE   W12
//  #08 //013   ----------------------------------------
 BYTE   Cn1
 BYTE   N72  Bn1  v048
 BYTE   W24
 BYTE   N12  Cn1  v127
 BYTE   N18  As1  v056
 BYTE   W12
 BYTE   N12  Cn1  v127
 BYTE   W12
 BYTE   Dn1
 BYTE   N18  As1  v072
 BYTE   W12
 BYTE   N12  Cn1  v127
 BYTE   W12
 BYTE   N18  As1  v052
 BYTE   W12
 BYTE   N12  Cn1  v127
 BYTE   W12
//  #08 //014   ----------------------------------------
 BYTE   N18  As1  v060
 BYTE   W12
 BYTE   N12  Cn1  v127
 BYTE   W12
 BYTE   N12
 BYTE   N18  As1  v056
 BYTE   W12
 BYTE   N06  Cn1  v108
 BYTE   W06
 BYTE   Cn1  v088
 BYTE   W06
 BYTE   N12  Dn1  v127
 BYTE   N18  As1  v072
 BYTE   W12
 BYTE   N12  Cn1  v127
 BYTE   W12
 BYTE   N24  Gn1  v108
 BYTE   W01
 BYTE   N22  Fn1  v096
 BYTE   W23
//  #08 //015   ----------------------------------------
 BYTE   N12  Cn1  v127
 BYTE   N72  Cn2  v048
 BYTE   W24
 BYTE   N12  Gs1  v024
 BYTE   W12
 BYTE   Cn1  v100
 BYTE   W12
 BYTE   Gs1  v036
 BYTE   W24
 BYTE   Gs1  v020
 BYTE   W24
//  #08 //016   ----------------------------------------
 BYTE   N14  Cn1  v124
 BYTE   N12  Gs1  v044
 BYTE   W24
 BYTE   Gs1  v024
 BYTE   W12
 BYTE   Cn1  v100
 BYTE   W12
 BYTE   Gs1  v036
 BYTE   W12
 BYTE   N06  Cn1  v088
 BYTE   W06
 BYTE   Cn1  v108
 BYTE   W06
 BYTE   N24  En1  v127
 BYTE   W02
 BYTE   N21  Dn1  v124
 BYTE   W22
//  #08 //017   ----------------------------------------
Label_0103B499:
 BYTE   N12  Cn1  v127
 BYTE   N24  As1  v060
 BYTE   W24
 BYTE   N06  Fs1  v056
 BYTE   W06
 BYTE   Fs1  v040
 BYTE   W06
 BYTE   N12  Cn1  v100
 BYTE   N24  As1  v052
 BYTE   W24
 BYTE   N12  Cn1  v088
 BYTE   N06  Fs1  v036
 BYTE   W06
 BYTE   Fs1  v024
 BYTE   W06
 BYTE   N24  Dn1  v127
 BYTE   W24
 BYTE   PEND 
//  #08 //018   ----------------------------------------
Label_0103B4BD:
 BYTE   N12  Cn1  v124
 BYTE   N12  As1  v060
 BYTE   W12
 BYTE   N06  Fs1  v044
 BYTE   W06
 BYTE   Fs1  v028
 BYTE   W06
 BYTE   N12  Fs1  v076
 BYTE   W12
 BYTE   Cn1  v100
 BYTE   N06  Fs1  v044
 BYTE   W06
 BYTE   Fs1  v024
 BYTE   W06
 BYTE   N12  Fs1  v064
 BYTE   W12
 BYTE   Cn1  v127
 BYTE   N12  As1  v052
 BYTE   W12
 BYTE   N24  Dn1  v127
 BYTE   W12
 BYTE   N06  Fs1  v056
 BYTE   W06
 BYTE   Fs1  v040
 BYTE   W06
 BYTE   PEND 
//  #08 //019   ----------------------------------------
 BYTE   N12  Cn1  v127
 BYTE   N24  As1  v060
 BYTE   W24
 BYTE   N06  Fs1  v056
 BYTE   W06
 BYTE   Fs1  v040
 BYTE   W06
 BYTE   N12  Cn1  v100
 BYTE   N24  As1  v052
 BYTE   W24
 BYTE   N06  Cn1  v088
 BYTE   N06  Fs1  v036
 BYTE   W06
 BYTE   Cn1  v108
 BYTE   N06  Fs1  v024
 BYTE   W06
 BYTE   N24  Dn1  v127
 BYTE   W12
 BYTE   N06  Fs1  v036
 BYTE   W06
 BYTE   Fs1  v020
 BYTE   W06
//  #08 //020   ----------------------------------------
 BYTE   N12  Cn1  v124
 BYTE   N24  As1  v060
 BYTE   W24
 BYTE   N06  Fs1  v056
 BYTE   W06
 BYTE   Fs1  v040
 BYTE   W06
 BYTE   N12  Cn1  v100
 BYTE   N24  As1  v052
 BYTE   W24
 BYTE   N06  Cn1  v127
 BYTE   N06  Fs1  v036
 BYTE   W06
 BYTE   Cn1  v100
 BYTE   N06  Fs1  v024
 BYTE   W06
 BYTE   En1  v127
 BYTE   W06
 BYTE   Dn1  v092
 BYTE   W06
 BYTE   Cn1  v127
 BYTE   W06
 BYTE   Cn1  v100
 BYTE   W06
//  #08 //021   ----------------------------------------
 BYTE   PATT
  POIN2 Label_0103B499
//  #08 //022   ----------------------------------------
 BYTE   PATT
  POIN2 Label_0103B4BD
//  #08 //023   ----------------------------------------
 BYTE   N12  Cn1  v124
 BYTE   N24  As1  v060
 BYTE   W24
 BYTE   N06  Fs1  v056
 BYTE   W06
 BYTE   Fs1  v040
 BYTE   W06
 BYTE   N12  Cn1  v100
 BYTE   N24  As1  v052
 BYTE   W24
 BYTE   N06  Cn1  v092
 BYTE   N06  Fs1  v036
 BYTE   W06
 BYTE   Cn1  v108
 BYTE   N06  Fs1  v024
 BYTE   W06
 BYTE   En1  v127
 BYTE   W06
 BYTE   N18  Dn1
 BYTE   W06
 BYTE   N06  Cn1  v108
 BYTE   W06
 BYTE   Cn1  v088
 BYTE   W06
//  #08 //024   ----------------------------------------
 BYTE   N12  Cn1  v127
 BYTE   N96  Bn1  v048
 BYTE   W12
 BYTE   N12  Dn1  v096
 BYTE   W12
 BYTE   En1  v120
 BYTE   W12
 BYTE   Cn1  v127
 BYTE   W12
 BYTE   Gn1  v108
 BYTE   W01
 BYTE   N10  Fn1  v096
 BYTE   W11
 BYTE   N12  Cn1  v127
 BYTE   W12
 BYTE   En1
 BYTE   W02
 BYTE   N09  Dn1  v124
 BYTE   W10
 BYTE   N12  Cn1  v127
 BYTE   W12
//  #08 //025   ----------------------------------------
 BYTE   GoTo
  POIN2 Label_0103B2C9
//  #08 //026   ----------------------------------------
 BYTE   W12
 BYTE   FINE

//******************************************************//
	ALIGN 4

FE12VsHardinAzula:
	BYTE	8	// NumTrks
	BYTE	0	// NumBlks
	BYTE	FE12VsHardinAzula_pri	// Priority
	BYTE	FE12VsHardinAzula_rev	// Reverb.
    
	POIN2	FE12VsHardinAzula_grp
    
	POIN2	FE12VsHardinAzula_001
	POIN2	FE12VsHardinAzula_002
	POIN2	FE12VsHardinAzula_003
	POIN2	FE12VsHardinAzula_004
	POIN2	FE12VsHardinAzula_005
	POIN2	FE12VsHardinAzula_006
	POIN2	FE12VsHardinAzula_007
	POIN2	FE12VsHardinAzula_008

	
