//Event file generated from Sappy .s format.
	#include "MPlayDef.event"

	#define	FE14JusticeRIPMrGreen3339_grp  voicegroup000
	#define	FE14JusticeRIPMrGreen3339_pri  10
	#define	FE14JusticeRIPMrGreen3339_rev  128
	#define	FE14JusticeRIPMrGreen3339_mvl  127
	#define	FE14JusticeRIPMrGreen3339_key  0
	#define	FE14JusticeRIPMrGreen3339_tbs  1
	#define	FE14JusticeRIPMrGreen3339_exg  0
	#define	FE14JusticeRIPMrGreen3339_cmp  1

	// .rodata
	//	FE14JusticeRIPMrGreen3339
	ALIGN 4


//**************** Track 1 (Midi-Chn.0) ****************//

FE14JusticeRIPMrGreen3339_001:
// 000   ----------------------------------------
 BYTE   KEYSH   FE14JusticeRIPMrGreen3339_key+0
 BYTE   TEMPO   78*FE14JusticeRIPMrGreen3339_tbs/2
 BYTE   VOICE   1
 BYTE   VOL   51*FE14JusticeRIPMrGreen3339_mvl/mxv
 BYTE   PAN   c_v+51
 BYTE   VOL   51*FE14JusticeRIPMrGreen3339_mvl/mxv
 BYTE   PAN   c_v-50
 BYTE   W96
// 001   ----------------------------------------
 BYTE   W96
// 002   ----------------------------------------
 BYTE   W96
// 003   ----------------------------------------
 BYTE   W96
// 004   ----------------------------------------
Label_0_013140FA:
 BYTE   N44  En4  v080
 BYTE   N23  Bn4
 BYTE   N23  Cn5
 BYTE   N23  Dn5
 BYTE   N23  En5
 BYTE   W48
 BYTE   N92  Fs4
 BYTE   N92  Cn5
 BYTE   N92  Fs5
 BYTE   W48
 BYTE   PEND 
// 005   ----------------------------------------
 BYTE   W96
// 006   ----------------------------------------
Label_0_0131410F:
 BYTE   W96
// 007   ----------------------------------------
 BYTE   W96
// 008   ----------------------------------------
 BYTE   W96
// 009   ----------------------------------------
 BYTE   W96
// 010   ----------------------------------------
 BYTE   W96
// 011   ----------------------------------------
 BYTE   W96
// 012   ----------------------------------------
 BYTE   W96
// 013   ----------------------------------------
 BYTE   W96
// 014   ----------------------------------------
 BYTE   N05  Bn2  v064
 BYTE   W06
 BYTE   N05
 BYTE   W06
 BYTE   En3
 BYTE   W06
 BYTE   N05
 BYTE   W06
 BYTE   Gn3
 BYTE   W06
 BYTE   Gn3  v068
 BYTE   W06
 BYTE   An3
 BYTE   W06
 BYTE   N05
 BYTE   W06
 BYTE   Bn3
 BYTE   W06
 BYTE   Bn3  v072
 BYTE   W06
 BYTE   Dn4
 BYTE   W06
 BYTE   N05
 BYTE   W06
 BYTE   En4
 BYTE   W06
 BYTE   En4  v076
 BYTE   W06
 BYTE   Fs4
 BYTE   W06
 BYTE   N05
 BYTE   W06
// 015   ----------------------------------------
 BYTE   Bn3
 BYTE   W06
 BYTE   N05
 BYTE   W12
 BYTE   N05
 BYTE   W06
 BYTE   N05
 BYTE   N23  En4  v088
 BYTE   W12
 BYTE   N05  Bn3  v076
 BYTE   W06
 BYTE   N05
 BYTE   W06
 BYTE   N23  An4  v088
 BYTE   W06
 BYTE   N05  Bn3  v076
 BYTE   W06
 BYTE   N05
 BYTE   W12
 BYTE   An3
 BYTE   N11  Bn4  v088
 BYTE   W06
 BYTE   N05  Bn3  v076
 BYTE   W06
 BYTE   Cn4
 BYTE   N11  Cn5  v088
 BYTE   W06
 BYTE   N05  An3  v076
 BYTE   W06
// 016   ----------------------------------------
 BYTE   Bn3
 BYTE   N11  Dn5  v088
 BYTE   W06
 BYTE   N05  Bn3  v076
 BYTE   W06
 BYTE   N11  En5  v088
 BYTE   W06
 BYTE   N05  Bn3  v076
 BYTE   W06
 BYTE   N05
 BYTE   N44  Bn4  v088
 BYTE   W12
 BYTE   N05  Bn3  v076
 BYTE   W06
 BYTE   N05
 BYTE   W12
 BYTE   N05
 BYTE   W06
 BYTE   N05
 BYTE   W12
 BYTE   Cn4
 BYTE   N23  An4  v088
 BYTE   W06
 BYTE   N05  Bn3  v076
 BYTE   W06
 BYTE   An3
 BYTE   W06
 BYTE   Cn4
 BYTE   W06
// 017   ----------------------------------------
 BYTE   Bn3
 BYTE   W06
 BYTE   N05
 BYTE   W12
 BYTE   N05
 BYTE   W06
 BYTE   N05
 BYTE   N23  Bn4  v088
 BYTE   W12
 BYTE   N05  Bn3  v076
 BYTE   W06
 BYTE   N05
 BYTE   W06
 BYTE   N23  En5  v088
 BYTE   W06
 BYTE   N05  Bn3  v076
 BYTE   W06
 BYTE   N05
 BYTE   W12
 BYTE   An3
 BYTE   N11  Fs5  v088
 BYTE   W06
 BYTE   N05  Bn3  v076
 BYTE   W06
 BYTE   Cn4
 BYTE   N11  Gn5  v088
 BYTE   W06
 BYTE   N05  An3  v076
 BYTE   W06
// 018   ----------------------------------------
 BYTE   Bn3
 BYTE   N11  An5  v088
 BYTE   W06
 BYTE   N05  Bn3  v076
 BYTE   W06
 BYTE   N11  Dn6  v088
 BYTE   W06
 BYTE   N05  Bn3  v076
 BYTE   W06
 BYTE   N05
 BYTE   N44  Bn5  v088
 BYTE   W12
 BYTE   N05  Bn3  v076
 BYTE   W06
 BYTE   N05
 BYTE   W12
 BYTE   N05
 BYTE   W06
 BYTE   N05
 BYTE   W12
 BYTE   Cn4
 BYTE   N23  An5  v088
 BYTE   W06
 BYTE   N05  Bn3  v076
 BYTE   W06
 BYTE   An3
 BYTE   W06
 BYTE   Cn4
 BYTE   W06
// 019   ----------------------------------------
 BYTE   N11  En3
 BYTE   N11  Gn3
 BYTE   N11  En5
 BYTE   W12
 BYTE   Bn3
 BYTE   N05  En5
 BYTE   W06
 BYTE   Fs5
 BYTE   W06
 BYTE   N32  Dn3
 BYTE   N32  Fs3
 BYTE   N11  Gn5
 BYTE   W12
 BYTE   N05  En5
 BYTE   W06
 BYTE   Fs5
 BYTE   W06
 BYTE   N11  Gn5
 BYTE   W12
 BYTE   Fs3
 BYTE   N11  Fs5
 BYTE   W12
 BYTE   Dn3
 BYTE   N11  Fs3
 BYTE   N11  En5
 BYTE   W12
 BYTE   Gn3
 BYTE   N11  Dn5
 BYTE   W12
// 020   ----------------------------------------
 BYTE   Cn3
 BYTE   N11  Fs3
 BYTE   N11  Cn5
 BYTE   W12
 BYTE   En3
 BYTE   N05  Cn5
 BYTE   W06
 BYTE   Dn5
 BYTE   W06
 BYTE   N44  Cn3
 BYTE   N44  En3
 BYTE   N11  En5
 BYTE   W12
 BYTE   N05  Cn5
 BYTE   W06
 BYTE   En5
 BYTE   W06
 BYTE   N11  Gn5
 BYTE   W12
 BYTE   Fs5
 BYTE   W12
 BYTE   Cn3
 BYTE   N11  En3
 BYTE   N11  En5
 BYTE   W12
 BYTE   An2
 BYTE   N11  Fs3
 BYTE   N11  Dn5
 BYTE   W12
// 021   ----------------------------------------
 BYTE   Bn2
 BYTE   N11  Gn3
 BYTE   N11  En5
 BYTE   W12
 BYTE   Bn3
 BYTE   N05  En5
 BYTE   W06
 BYTE   Fs5
 BYTE   W06
 BYTE   N11  Bn2
 BYTE   N11  Fs3
 BYTE   N11  Gn5
 BYTE   W12
 BYTE   Gn3
 BYTE   N05  En5
 BYTE   W06
 BYTE   Gn5
 BYTE   W06
 BYTE   N23  Dn3
 BYTE   N23  Dn4
 BYTE   N11  Bn5
 BYTE   W12
 BYTE   An5
 BYTE   W12
 BYTE   En3
 BYTE   N11  Cn4
 BYTE   N11  Gn5
 BYTE   W12
 BYTE   Dn3
 BYTE   N11  Bn3
 BYTE   N11  En5
 BYTE   W12
// 022   ----------------------------------------
 BYTE   Dn3
 BYTE   N11  Bn3
 BYTE   N11  Fs5
 BYTE   W12
 BYTE   An3
 BYTE   N05  Dn5
 BYTE   W06
 BYTE   En5
 BYTE   W06
 BYTE   N44  Dn3
 BYTE   N44  An3
 BYTE   N11  Fs5
 BYTE   W12
 BYTE   N05  Dn5
 BYTE   W06
 BYTE   Fs5
 BYTE   W06
 BYTE   N11  An5
 BYTE   W12
 BYTE   Gn5
 BYTE   W12
 BYTE   An3
 BYTE   N11  Fs5
 BYTE   W12
 BYTE   Bn3
 BYTE   N11  Dn5
 BYTE   W12
// 023   ----------------------------------------
 BYTE   Cn4
 BYTE   N11  En5
 BYTE   W12
 BYTE   En4
 BYTE   N05  Cn5
 BYTE   W06
 BYTE   Dn5
 BYTE   W06
 BYTE   N11  Bn3
 BYTE   N05  En5
 BYTE   W06
 BYTE   Cn5
 BYTE   W06
 BYTE   N11  Cn4
 BYTE   N05  En5
 BYTE   W06
 BYTE   Gn5
 BYTE   W06
 BYTE   N23  Gn4
 BYTE   N11  Bn5
 BYTE   W12
 BYTE   An5
 BYTE   W12
 BYTE   Fs4
 BYTE   N11  Gn5
 BYTE   W12
 BYTE   En4
 BYTE   N11  Dn5
 BYTE   W12
// 024   ----------------------------------------
 BYTE   Dn4
 BYTE   N11  Fs5
 BYTE   W12
 BYTE   Bn3
 BYTE   N05  Dn5
 BYTE   W06
 BYTE   En5
 BYTE   W06
 BYTE   N44  Bn3
 BYTE   N05  Fs5
 BYTE   W06
 BYTE   Dn5
 BYTE   W06
 BYTE   Fs5
 BYTE   W06
 BYTE   An5
 BYTE   W18
 BYTE   N11  Cn6
 BYTE   W12
 BYTE   Bn3
 BYTE   N11  Bn5
 BYTE   W12
 BYTE   Dn4
 BYTE   N11  Gn5
 BYTE   W12
// 025   ----------------------------------------
 BYTE   N23  An3
 BYTE   N11  An5
 BYTE   W12
 BYTE   N05  En5
 BYTE   W06
 BYTE   Gn5
 BYTE   W06
 BYTE   N11  Bn3
 BYTE   N11  An5
 BYTE   W12
 BYTE   Dn4
 BYTE   N05  En5
 BYTE   W06
 BYTE   An5
 BYTE   W06
 BYTE   N23  An3
 BYTE   N11  Gn5
 BYTE   W12
 BYTE   Fs5
 BYTE   W12
 BYTE   Gn3
 BYTE   N11  En5
 BYTE   W12
 BYTE   An3
 BYTE   N11  Dn5
 BYTE   W12
// 026   ----------------------------------------
 BYTE   N23  En3
 BYTE   N23  Gn3
 BYTE   W96
// 027   ----------------------------------------
 BYTE   W36
 BYTE   N02  Fs4
 BYTE   W03
 BYTE   An4
 BYTE   W03
 BYTE   Cs5
 BYTE   W03
 BYTE   Ds5
 BYTE   W03
 BYTE   En5
 BYTE   W03
 BYTE   Ds5
 BYTE   W03
 BYTE   Cs5
 BYTE   W03
 BYTE   Bn4
 BYTE   W03
 BYTE   An4
 BYTE   W03
 BYTE   Gs4
 BYTE   W03
 BYTE   Gn4
 BYTE   W03
 BYTE   Fs4
 BYTE   W03
 BYTE   En4
 BYTE   W03
 BYTE   Ds4  v080
 BYTE   W03
 BYTE   Cs4
 BYTE   W03
 BYTE   Bn3
 BYTE   W03
 BYTE   An3
 BYTE   W03
 BYTE   Gs3
 BYTE   W03
 BYTE   Gn3
 BYTE   W03
 BYTE   Fs3
 BYTE   W03
// 028   ----------------------------------------
 BYTE   N23  En3
 BYTE   W96
// 029   ----------------------------------------
 BYTE   N02  En5  v076
 BYTE   W03
 BYTE   Ds5
 BYTE   W03
 BYTE   Cs5
 BYTE   W03
 BYTE   Bn4
 BYTE   W03
 BYTE   An4
 BYTE   W03
 BYTE   Gs4
 BYTE   W03
 BYTE   Gn4
 BYTE   W03
 BYTE   Fs4
 BYTE   W03
 BYTE   En4
 BYTE   W03
 BYTE   Ds4  v080
 BYTE   W03
 BYTE   Cs4
 BYTE   W03
 BYTE   Bn3
 BYTE   W03
 BYTE   An3
 BYTE   N02  En4  v076
 BYTE   W03
 BYTE   Cs4  v080
 BYTE   N02  Gn4  v076
 BYTE   W03
 BYTE   En4  v080
 BYTE   N02  Bn4  v076
 BYTE   W03
 BYTE   Fs4  v080
 BYTE   N02  En5  v076
 BYTE   W03
 BYTE   N23  Gn4  v080
 BYTE   N02  Gn5  v076
 BYTE   W03
 BYTE   Fs5
 BYTE   W03
 BYTE   En5
 BYTE   W03
 BYTE   Dn5
 BYTE   W03
 BYTE   Cs5
 BYTE   W03
 BYTE   Cn5
 BYTE   W03
 BYTE   Bn4
 BYTE   W03
 BYTE   An4
 BYTE   W03
 BYTE   Gn4
 BYTE   W03
 BYTE   Fs4  v080
 BYTE   W03
 BYTE   En4
 BYTE   W03
 BYTE   Dn4
 BYTE   W03
 BYTE   Cn4
 BYTE   N11  An4  v076
 BYTE   W03
 BYTE   N02  Bn3  v080
 BYTE   W03
 BYTE   As3
 BYTE   W03
 BYTE   An3
 BYTE   W03
// 030   ----------------------------------------
 BYTE   N23  Gn3
 BYTE   N23  Bn3
 BYTE   W96
// 031   ----------------------------------------
 BYTE   W96
// 032   ----------------------------------------
 BYTE   W72
 BYTE   N11  Bn4  v104
 BYTE   W12
 BYTE   Dn5
 BYTE   W12
// 033   ----------------------------------------
Label_0_0131439E:
 BYTE   N11  Gn4  v104
 BYTE   N05  An4  v096
 BYTE   W06
 BYTE   En4
 BYTE   W06
 BYTE   Cn4
 BYTE   N11  An4  v104
 BYTE   W06
 BYTE   N05  En4  v096
 BYTE   W06
 BYTE   An4
 BYTE   N11  Bn4  v104
 BYTE   W06
 BYTE   N05  En4  v096
 BYTE   W06
 BYTE   Cn4
 BYTE   N11  Dn5  v104
 BYTE   W06
 BYTE   N05  En4  v096
 BYTE   W06
 BYTE   N11  Gn4  v104
 BYTE   N05  An4  v096
 BYTE   W06
 BYTE   Dn4
 BYTE   W06
 BYTE   Bn3
 BYTE   N11  An4  v104
 BYTE   W06
 BYTE   N05  Dn4  v096
 BYTE   W06
 BYTE   N11  Gn4  v104
 BYTE   N05  An4  v096
 BYTE   W06
 BYTE   Dn4
 BYTE   W06
 BYTE   Bn3
 BYTE   N11  An4  v104
 BYTE   W06
 BYTE   N05  Dn4  v096
 BYTE   W06
 BYTE   PEND 
// 034   ----------------------------------------
 BYTE   Gn4
 BYTE   N05  An4  v104
 BYTE   W06
 BYTE   Dn4  v096
 BYTE   N05  Bn4  v104
 BYTE   W06
 BYTE   Bn3  v096
 BYTE   N11  Dn5  v104
 BYTE   W06
 BYTE   N05  Dn4  v096
 BYTE   W06
 BYTE   Gn4
 BYTE   N11  En5  v104
 BYTE   W06
 BYTE   N05  Dn4  v096
 BYTE   W06
 BYTE   Bn3
 BYTE   N11  Gn5  v104
 BYTE   W06
 BYTE   N05  Dn4  v096
 BYTE   W06
 BYTE   Gn4
 BYTE   N05  Fs5  v104
 BYTE   W06
 BYTE   Dn4  v096
 BYTE   N05  Gn5  v104
 BYTE   W06
 BYTE   Bn3  v096
 BYTE   N11  Fs5  v104
 BYTE   W06
 BYTE   N05  Dn4  v096
 BYTE   W06
 BYTE   Gn4
 BYTE   N11  Dn5  v104
 BYTE   W06
 BYTE   N05  Dn4  v096
 BYTE   W06
 BYTE   Gn4
 BYTE   N11  Bn4  v104
 BYTE   W06
 BYTE   N05  En4  v096
 BYTE   W06
// 035   ----------------------------------------
 BYTE   An4  v104
 BYTE   W06
 BYTE   En4  v096
 BYTE   N05  Bn4  v104
 BYTE   W06
 BYTE   Cn4  v096
 BYTE   N11  An4  v104
 BYTE   W06
 BYTE   N05  En4  v096
 BYTE   W06
 BYTE   N11  Gn4  v104
 BYTE   N05  An4  v096
 BYTE   W06
 BYTE   En4
 BYTE   W06
 BYTE   Cn4
 BYTE   N11  An4  v104
 BYTE   W06
 BYTE   N05  En4  v096
 BYTE   W06
 BYTE   An4  v104
 BYTE   W06
 BYTE   Dn4  v096
 BYTE   N05  Bn4  v104
 BYTE   W06
 BYTE   Bn3  v096
 BYTE   N11  Gn4  v104
 BYTE   W06
 BYTE   N05  Dn4  v096
 BYTE   W06
 BYTE   An4  v104
 BYTE   W06
 BYTE   Dn4  v096
 BYTE   W06
 BYTE   Bn3
 BYTE   N11  Bn4  v104
 BYTE   W06
 BYTE   N05  Dn4  v096
 BYTE   W06
// 036   ----------------------------------------
 BYTE   Gn4  v104
 BYTE   W06
 BYTE   Dn4  v096
 BYTE   W06
 BYTE   Bn3
 BYTE   N11  An4  v104
 BYTE   W06
 BYTE   N05  Dn4  v096
 BYTE   W06
 BYTE   Gn4  v104
 BYTE   W06
 BYTE   Dn4  v096
 BYTE   W06
 BYTE   Bn3
 BYTE   N11  An4  v104
 BYTE   W06
 BYTE   N05  Dn4  v096
 BYTE   W06
 BYTE   Fs4
 BYTE   N05  Gn4  v104
 BYTE   W06
 BYTE   Dn4  v096
 BYTE   N05  An4  v104
 BYTE   W06
 BYTE   Bn3  v096
 BYTE   N11  Bn4  v104
 BYTE   W06
 BYTE   N05  Dn4  v096
 BYTE   W06
 BYTE   Fs4
 BYTE   N11  Bn4  v104
 BYTE   W06
 BYTE   N05  Dn4  v096
 BYTE   W06
 BYTE   Fs4
 BYTE   N11  Dn5  v104
 BYTE   W06
 BYTE   N05  En4  v096
 BYTE   W06
 BYTE   PATT
  POIN2 Label_0_0131439E
// 037   ----------------------------------------
 BYTE   N05  Gn4  v096
 BYTE   N05  An4  v104
 BYTE   W06
 BYTE   Dn4  v096
 BYTE   N05  Bn4  v104
 BYTE   W06
 BYTE   Bn3  v096
 BYTE   N11  Dn5  v104
 BYTE   W06
 BYTE   N05  En4  v096
 BYTE   W06
 BYTE   Fs4
 BYTE   N11  En5  v104
 BYTE   W06
 BYTE   N05  Dn4  v096
 BYTE   W06
 BYTE   Bn3
 BYTE   N11  Gn5  v104
 BYTE   W06
 BYTE   N05  Dn4  v096
 BYTE   W06
 BYTE   En4
 BYTE   N05  Fs5  v104
 BYTE   W06
 BYTE   Cn4  v096
 BYTE   N05  Gn5  v104
 BYTE   W06
 BYTE   Bn3  v096
 BYTE   N11  Fs5  v104
 BYTE   W06
 BYTE   N05  Cn4  v096
 BYTE   W06
 BYTE   Bn3
 BYTE   N11  Dn5  v104
 BYTE   W06
 BYTE   N05  Gs3  v096
 BYTE   W06
 BYTE   Bn3
 BYTE   N11  Bn4  v104
 BYTE   W06
 BYTE   N05  Dn4  v096
 BYTE   W06
// 038   ----------------------------------------
 BYTE   En4
 BYTE   N11  Gn4  v104
 BYTE   W06
 BYTE   N05  Cn4  v096
 BYTE   W06
 BYTE   An3
 BYTE   N11  An4  v104
 BYTE   W06
 BYTE   N05  Cn4  v096
 BYTE   W06
 BYTE   En4
 BYTE   N11  Gn4  v104
 BYTE   W06
 BYTE   N05  Cn4  v096
 BYTE   W06
 BYTE   An3
 BYTE   N11  An4  v104
 BYTE   W06
 BYTE   N05  Dn4  v096
 BYTE   W06
 BYTE   Fs4
 BYTE   N05  An4  v104
 BYTE   W06
 BYTE   Dn4  v096
 BYTE   N05  Bn4  v104
 BYTE   W06
 BYTE   An3  v096
 BYTE   N11  Gn4  v104
 BYTE   W06
 BYTE   N05  Dn4  v096
 BYTE   W06
 BYTE   N11  En4  v104
 BYTE   N05  Gn4  v096
 BYTE   W06
 BYTE   Dn4
 BYTE   W06
 BYTE   N11  Dn4  v104
 BYTE   N05  Gn4  v096
 BYTE   W06
 BYTE   An4
 BYTE   W06
// 039   ----------------------------------------
Label_0_01314561:
 BYTE   N05  Bn4  v096
 BYTE   W06
 BYTE   N05
 BYTE   W06
 BYTE   An4
 BYTE   W06
 BYTE   N05
 BYTE   W06
 BYTE   Fs4
 BYTE   W06
 BYTE   N05
 BYTE   W06
 BYTE   An4
 BYTE   W06
 BYTE   N05
 BYTE   W06
 BYTE   Fs4
 BYTE   W06
 BYTE   N05
 BYTE   W06
 BYTE   En4
 BYTE   W06
 BYTE   N05
 BYTE   W06
 BYTE   Dn4
 BYTE   W06
 BYTE   N05
 BYTE   W06
 BYTE   En4
 BYTE   W06
 BYTE   N05
 BYTE   W06
 BYTE   PEND 
// 040   ----------------------------------------
Label_0_01314584:
 BYTE   N05  Gn4  v096
 BYTE   W06
 BYTE   N05
 BYTE   W06
 BYTE   En4
 BYTE   W06
 BYTE   N05
 BYTE   W06
 BYTE   Dn4
 BYTE   W06
 BYTE   N05
 BYTE   W06
 BYTE   En4
 BYTE   W06
 BYTE   N05
 BYTE   W06
 BYTE   Cn4
 BYTE   W06
 BYTE   N05
 BYTE   W06
 BYTE   Dn4
 BYTE   W06
 BYTE   N05
 BYTE   W06
 BYTE   Gn4
 BYTE   W06
 BYTE   N05
 BYTE   W06
 BYTE   An4
 BYTE   W06
 BYTE   N05
 BYTE   W06
 BYTE   PEND 
 BYTE   PATT
  POIN2 Label_0_01314561
 BYTE   PATT
  POIN2 Label_0_01314584
// 041   ----------------------------------------
 BYTE   W96
// 042   ----------------------------------------
 BYTE   W96
// 043   ----------------------------------------
 BYTE   W96
// 044   ----------------------------------------
 BYTE   W96
// 045   ----------------------------------------
 BYTE   TEMPO   78*FE14JusticeRIPMrGreen3339_tbs/2
 BYTE   W96
// 046   ----------------------------------------
 BYTE   W96
// 047   ----------------------------------------
 BYTE   W96
// 048   ----------------------------------------
 BYTE   W96
 BYTE   PATT
  POIN2 Label_0_013140FA
// 049   ----------------------------------------
 BYTE   W96
// 050   ----------------------------------------
 BYTE   GoTo
  POIN2 Label_0_0131410F
 BYTE   FINE

//**************** Track 2 (Midi-Chn.1) ****************//

FE14JusticeRIPMrGreen3339_002:
// 000   ----------------------------------------
 BYTE   KEYSH   FE14JusticeRIPMrGreen3339_key+0
 BYTE   VOICE   2
 BYTE   VOL   51*FE14JusticeRIPMrGreen3339_mvl/mxv
 BYTE   PAN   c_v-32
 BYTE   VOL   51*FE14JusticeRIPMrGreen3339_mvl/mxv
 BYTE   PAN   c_v-1
 BYTE   W24
 BYTE   N23  En3  v080
 BYTE   W24
 BYTE   An3
 BYTE   W24
 BYTE   N11  Bn3
 BYTE   W12
 BYTE   Cn4
 BYTE   W12
// 001   ----------------------------------------
Label_1_013145DF:
 BYTE   N11  Dn4  v080
 BYTE   W12
 BYTE   En4
 BYTE   W12
 BYTE   N44  Bn3
 BYTE   W48
 BYTE   N23  An3
 BYTE   W24
 BYTE   PEND 
// 002   ----------------------------------------
Label_1_013145EC:
 BYTE   W24
 BYTE   N23  Bn3  v080
 BYTE   W24
 BYTE   En4
 BYTE   W24
 BYTE   N11  Fs4
 BYTE   W12
 BYTE   Gn4
 BYTE   W12
 BYTE   PEND 
// 003   ----------------------------------------
Label_1_013145F9:
 BYTE   N11  An4  v080
 BYTE   W12
 BYTE   Dn5
 BYTE   W12
 BYTE   N44  Bn4
 BYTE   W48
 BYTE   N23  An4
 BYTE   W24
 BYTE   PEND 
// 004   ----------------------------------------
Label_1_01314606:
 BYTE   W24
 BYTE   N11  En4  v080
 BYTE   N11  Fs4
 BYTE   W12
 BYTE   N03  Cn4
 BYTE   W04
 BYTE   Fs3
 BYTE   N03  Bn3
 BYTE   W04
 BYTE   Cn3
 BYTE   N03  En3
 BYTE   W52
 BYTE   PEND 
// 005   ----------------------------------------
 BYTE   W96
// 006   ----------------------------------------
Label_1_0131461A:
 BYTE   W96
// 007   ----------------------------------------
 BYTE   W96
// 008   ----------------------------------------
 BYTE   W96
// 009   ----------------------------------------
 BYTE   W96
// 010   ----------------------------------------
 BYTE   W96
// 011   ----------------------------------------
 BYTE   W96
// 012   ----------------------------------------
 BYTE   W96
// 013   ----------------------------------------
 BYTE   N44  En3  v052
 BYTE   W48
 BYTE   N44
 BYTE   W48
// 014   ----------------------------------------
 BYTE   N05  Bn2  v064
 BYTE   W06
 BYTE   N05
 BYTE   W06
 BYTE   En3  v068
 BYTE   W06
 BYTE   En3  v072
 BYTE   W06
 BYTE   Gn3
 BYTE   W06
 BYTE   Gn3  v076
 BYTE   W06
 BYTE   An3  v080
 BYTE   W06
 BYTE   An3  v084
 BYTE   W06
 BYTE   Bn3  v088
 BYTE   W06
 BYTE   Bn3  v092
 BYTE   W06
 BYTE   Dn4  v096
 BYTE   W06
 BYTE   Dn4  v100
 BYTE   W06
 BYTE   En4  v104
 BYTE   W06
 BYTE   N05
 BYTE   W06
 BYTE   Fs4  v108
 BYTE   W06
 BYTE   Fs4  v112
 BYTE   W06
// 015   ----------------------------------------
 BYTE   N17  Gn4  v127
 BYTE   N17  Bn4
 BYTE   W18
 BYTE   N05  Gn4
 BYTE   N05  Bn4
 BYTE   W06
 BYTE   N23  En3  v112
 BYTE   W24
 BYTE   An3
 BYTE   W24
 BYTE   N11  Bn3
 BYTE   N05  En4  v127
 BYTE   W06
 BYTE   Fs4
 BYTE   W06
 BYTE   N11  Cn4  v112
 BYTE   N02  En4  v127
 BYTE   W03
 BYTE   Fs4
 BYTE   W03
 BYTE   Gn4
 BYTE   W03
 BYTE   An4
 BYTE   W03
// 016   ----------------------------------------
 BYTE   N11  Dn4  v112
 BYTE   N23  Gn4  v127
 BYTE   N23  Bn4
 BYTE   W12
 BYTE   N11  En4  v112
 BYTE   W12
 BYTE   N44  Bn3
 BYTE   W48
 BYTE   N23  An3
 BYTE   N02  Cn5  v127
 BYTE   W03
 BYTE   Bn4
 BYTE   W03
 BYTE   An4
 BYTE   W03
 BYTE   Gn4
 BYTE   W03
 BYTE   N05  An4
 BYTE   W06
 BYTE   Cn5
 BYTE   W06
// 017   ----------------------------------------
 BYTE   N23  Gn4
 BYTE   N23  Bn4
 BYTE   W24
 BYTE   Bn3  v112
 BYTE   W24
 BYTE   En4
 BYTE   W24
 BYTE   N11  Fs4  v127
 BYTE   W06
 BYTE   N05  Gn4
 BYTE   W06
 BYTE   N11  Gn4  v112
 BYTE   N02  An4  v127
 BYTE   W03
 BYTE   Bn4
 BYTE   W03
 BYTE   Cn5
 BYTE   W03
 BYTE   An4
 BYTE   W03
// 018   ----------------------------------------
 BYTE   N17  Gn4  v104
 BYTE   N11  An4  v112
 BYTE   N17  Bn4  v104
 BYTE   W12
 BYTE   N11  Dn5  v112
 BYTE   W06
 BYTE   N17  Gn4  v104
 BYTE   N06  Bn4
 BYTE   W06
 BYTE   N12  Bn4  v112
 BYTE   W12
 BYTE   N11  Gn4  v104
 BYTE   N12  Bn4
 BYTE   W12
 BYTE   N07  Gn4
 BYTE   N08  Bn4
 BYTE   W08
 BYTE   N07  Gn4
 BYTE   N08  Bn4
 BYTE   W08
 BYTE   N07  Gn4
 BYTE   N07  Bn4
 BYTE   W08
 BYTE   N11  Dn4
 BYTE   N12  An4
 BYTE   W12
 BYTE   N11  Dn4
 BYTE   N11  An4
 BYTE   W12
// 019   ----------------------------------------
 BYTE   En4  v064
 BYTE   W12
 BYTE   N05
 BYTE   W06
 BYTE   Fs4
 BYTE   W06
 BYTE   N11  Gn4
 BYTE   W12
 BYTE   N05  En4
 BYTE   W06
 BYTE   Fs4
 BYTE   W06
 BYTE   N11  Gn4
 BYTE   W12
 BYTE   Fs4
 BYTE   W12
 BYTE   En4
 BYTE   W12
 BYTE   Dn4
 BYTE   W12
// 020   ----------------------------------------
 BYTE   Cn4
 BYTE   W12
 BYTE   N05
 BYTE   W06
 BYTE   Dn4
 BYTE   W06
 BYTE   N11  En4
 BYTE   W12
 BYTE   N05  Cn4
 BYTE   W06
 BYTE   En4
 BYTE   W06
 BYTE   N11  Gn4
 BYTE   W12
 BYTE   Fs4
 BYTE   W12
 BYTE   En4
 BYTE   W12
 BYTE   Dn4
 BYTE   W12
// 021   ----------------------------------------
 BYTE   En4
 BYTE   W12
 BYTE   N05
 BYTE   W06
 BYTE   Fs4
 BYTE   W06
 BYTE   N11  Gn4
 BYTE   W12
 BYTE   N05  En4
 BYTE   W06
 BYTE   Gn4
 BYTE   W06
 BYTE   N11  Bn4
 BYTE   W12
 BYTE   An4
 BYTE   W12
 BYTE   Gn4
 BYTE   W12
 BYTE   En4
 BYTE   W12
// 022   ----------------------------------------
 BYTE   Fs4
 BYTE   W12
 BYTE   N05  Dn4
 BYTE   W06
 BYTE   En4
 BYTE   W06
 BYTE   N11  Fs4
 BYTE   W12
 BYTE   N05  Dn4
 BYTE   W06
 BYTE   Fs4
 BYTE   W06
 BYTE   N11  An4
 BYTE   W12
 BYTE   Gn4
 BYTE   W12
 BYTE   Fs4
 BYTE   W12
 BYTE   Dn4
 BYTE   W12
// 023   ----------------------------------------
 BYTE   En4
 BYTE   W12
 BYTE   N05  Cn4
 BYTE   W06
 BYTE   Dn4
 BYTE   W06
 BYTE   En4
 BYTE   W06
 BYTE   Cn4
 BYTE   W06
 BYTE   En4
 BYTE   W06
 BYTE   Gn4
 BYTE   W06
 BYTE   N11  Bn4
 BYTE   W12
 BYTE   An4
 BYTE   W12
 BYTE   Gn4
 BYTE   W12
 BYTE   Dn4
 BYTE   W12
// 024   ----------------------------------------
 BYTE   Fs4
 BYTE   W12
 BYTE   N05  Dn4
 BYTE   W06
 BYTE   En4
 BYTE   W06
 BYTE   Fs4
 BYTE   W06
 BYTE   Dn4
 BYTE   W06
 BYTE   Fs4
 BYTE   W06
 BYTE   An4
 BYTE   W18
 BYTE   N11  Cn5
 BYTE   W12
 BYTE   Bn4
 BYTE   W12
 BYTE   Gn4
 BYTE   W12
// 025   ----------------------------------------
 BYTE   An4
 BYTE   W12
 BYTE   N05  En4
 BYTE   W06
 BYTE   Gn4
 BYTE   W06
 BYTE   N11  An4
 BYTE   W12
 BYTE   N05  En4
 BYTE   W06
 BYTE   An4
 BYTE   W06
 BYTE   N11  Gn4
 BYTE   W12
 BYTE   Fs4
 BYTE   W12
 BYTE   En4
 BYTE   W12
 BYTE   Dn4
 BYTE   W12
// 026   ----------------------------------------
 BYTE   N05  Cs4  v080
 BYTE   W06
 BYTE   En3
 BYTE   W06
 BYTE   Cs4
 BYTE   N11  Bn4  v096
 BYTE   W06
 BYTE   N05  En3  v080
 BYTE   W06
 BYTE   Cs4
 BYTE   N11  An4  v096
 BYTE   W06
 BYTE   N05  En3  v080
 BYTE   W06
 BYTE   Cs4
 BYTE   N11  Gn4  v096
 BYTE   W06
 BYTE   N05  En3  v080
 BYTE   W06
 BYTE   Ds4
 BYTE   N23  Fs4  v096
 BYTE   W06
 BYTE   N05  Fs3  v080
 BYTE   W06
 BYTE   Ds4
 BYTE   W06
 BYTE   Fs3
 BYTE   W06
 BYTE   Ds4
 BYTE   N11  Gn4  v096
 BYTE   W06
 BYTE   N05  Fs3  v080
 BYTE   W06
 BYTE   Ds4
 BYTE   N11  An4  v096
 BYTE   W06
 BYTE   N05  Fs3  v080
 BYTE   W06
// 027   ----------------------------------------
 BYTE   En4
 BYTE   N92  Bn4  v096
 BYTE   W06
 BYTE   N05  Gn3  v080
 BYTE   W06
 BYTE   En4
 BYTE   W06
 BYTE   Gn3
 BYTE   W06
 BYTE   En4
 BYTE   W06
 BYTE   Gn3
 BYTE   W06
 BYTE   En4
 BYTE   W06
 BYTE   Gn3
 BYTE   W06
 BYTE   En4
 BYTE   W06
 BYTE   Gn3
 BYTE   W06
 BYTE   En4
 BYTE   W06
 BYTE   Gn3
 BYTE   W06
 BYTE   En4
 BYTE   W06
 BYTE   Gn3
 BYTE   W06
 BYTE   En4
 BYTE   W06
 BYTE   Gn3
 BYTE   W06
// 028   ----------------------------------------
 BYTE   En4
 BYTE   W06
 BYTE   Gn3
 BYTE   W06
 BYTE   En4
 BYTE   N11  En5  v096
 BYTE   W06
 BYTE   N05  Gn3  v080
 BYTE   W06
 BYTE   En4
 BYTE   N11  Dn5  v096
 BYTE   W06
 BYTE   N05  Gn3  v080
 BYTE   W06
 BYTE   En4
 BYTE   N11  Bn4  v096
 BYTE   W06
 BYTE   N05  Gn3  v080
 BYTE   W06
 BYTE   Ds4
 BYTE   N23  An4  v096
 BYTE   W06
 BYTE   N05  Fs3  v080
 BYTE   W06
 BYTE   Ds4
 BYTE   W06
 BYTE   Fs3
 BYTE   W06
 BYTE   En4
 BYTE   N11  Gn4  v096
 BYTE   W06
 BYTE   N05  Bn3  v080
 BYTE   W06
 BYTE   En4
 BYTE   N06  Fs4  v096
 BYTE   W06
 BYTE   N05  Fs4  v080
 BYTE   W06
// 029   ----------------------------------------
 BYTE   N23  En4  v096
 BYTE   N05  Gn4  v080
 BYTE   W06
 BYTE   Bn3
 BYTE   W06
 BYTE   Gn4
 BYTE   W06
 BYTE   Bn3
 BYTE   W06
 BYTE   N11  Gn4
 BYTE   W06
 BYTE   N05  Bn3
 BYTE   W06
 BYTE   Gn4
 BYTE   N11  An4  v096
 BYTE   W06
 BYTE   N05  Bn3  v080
 BYTE   W06
 BYTE   N23  En4  v096
 BYTE   N05  Gn4  v080
 BYTE   W06
 BYTE   Bn3
 BYTE   W06
 BYTE   Gn4
 BYTE   W06
 BYTE   Bn3
 BYTE   W06
 BYTE   N11  Gn4
 BYTE   W06
 BYTE   N05  Bn3
 BYTE   W06
 BYTE   Gn4
 BYTE   N11  An4  v096
 BYTE   W06
 BYTE   N05  Bn3  v080
 BYTE   W06
// 030   ----------------------------------------
 BYTE   N44  Bn4  v096
 BYTE   W48
 BYTE   An4
 BYTE   W48
// 031   ----------------------------------------
 BYTE   N92
 BYTE   W96
// 032   ----------------------------------------
 BYTE   W72
 BYTE   N11  Bn3
 BYTE   N11  Bn4
 BYTE   W12
 BYTE   Dn4
 BYTE   N11  Dn5
 BYTE   W12
// 033   ----------------------------------------
 BYTE   N23  An3
 BYTE   N23  An4
 BYTE   W24
 BYTE   N11  Bn3  v127
 BYTE   N11  Bn4  v096
 BYTE   W12
 BYTE   Dn4  v127
 BYTE   N11  Dn5  v096
 BYTE   W12
 BYTE   N23  An3  v127
 BYTE   N23  An4  v096
 BYTE   W24
 BYTE   N11  Gn3  v127
 BYTE   N11  Gn4  v096
 BYTE   W12
 BYTE   An3  v127
 BYTE   N11  An4  v096
 BYTE   W12
// 034   ----------------------------------------
Label_1_013148A8:
 BYTE   N11  Bn3  v127
 BYTE   N11  Bn4  v096
 BYTE   W12
 BYTE   Dn4  v127
 BYTE   N11  Dn5  v096
 BYTE   W12
 BYTE   En4  v127
 BYTE   N11  En5  v096
 BYTE   W12
 BYTE   Gn4  v127
 BYTE   N11  Gn5  v096
 BYTE   W12
 BYTE   N23  Fs4  v127
 BYTE   N23  Fs5  v096
 BYTE   W24
 BYTE   N11  Dn4  v127
 BYTE   N11  Dn5  v096
 BYTE   W12
 BYTE   Bn3  v127
 BYTE   N11  Bn4  v096
 BYTE   W12
 BYTE   PEND 
// 035   ----------------------------------------
 BYTE   N23  An3  v127
 BYTE   N23  An4  v096
 BYTE   W24
 BYTE   N11  Gn3  v127
 BYTE   N11  Gn4  v096
 BYTE   W12
 BYTE   An3  v127
 BYTE   N11  An4  v096
 BYTE   W12
 BYTE   Bn3  v127
 BYTE   N11  Bn4  v096
 BYTE   W12
 BYTE   Gn3  v127
 BYTE   N11  Gn4  v096
 BYTE   W12
 BYTE   An3  v127
 BYTE   N11  An4  v096
 BYTE   W12
 BYTE   Bn3  v127
 BYTE   N11  Bn4  v096
 BYTE   W12
// 036   ----------------------------------------
 BYTE   N23  An3  v127
 BYTE   N23  An4  v096
 BYTE   W24
 BYTE   N11  Gn3  v127
 BYTE   N11  Gn4  v096
 BYTE   W12
 BYTE   An3  v127
 BYTE   N11  An4  v096
 BYTE   W12
 BYTE   N23  Bn3  v127
 BYTE   N23  Bn4  v096
 BYTE   W24
 BYTE   N11  Bn3  v127
 BYTE   N11  Bn4  v096
 BYTE   W12
 BYTE   Dn4  v127
 BYTE   N11  Dn5  v096
 BYTE   W12
// 037   ----------------------------------------
 BYTE   N23  An3  v127
 BYTE   N23  An4  v096
 BYTE   W24
 BYTE   N11  Bn3  v127
 BYTE   N11  Bn4  v096
 BYTE   W12
 BYTE   Dn4  v127
 BYTE   N11  Dn5  v096
 BYTE   W12
 BYTE   N23  An3  v127
 BYTE   N23  An4  v096
 BYTE   W24
 BYTE   N11  Gn3  v127
 BYTE   N11  Gn4  v096
 BYTE   W12
 BYTE   An3  v127
 BYTE   N11  An4  v096
 BYTE   W12
 BYTE   PATT
  POIN2 Label_1_013148A8
// 038   ----------------------------------------
 BYTE   N23  An3  v127
 BYTE   N23  An4  v096
 BYTE   W24
 BYTE   N11  Gn3  v127
 BYTE   N11  Gn4  v096
 BYTE   W12
 BYTE   An3  v127
 BYTE   N11  An4  v096
 BYTE   W12
 BYTE   Bn3  v127
 BYTE   N11  Bn4  v096
 BYTE   W12
 BYTE   Gn3  v127
 BYTE   N11  Gn4  v096
 BYTE   W12
 BYTE   En3  v127
 BYTE   N11  En4  v096
 BYTE   W12
 BYTE   Dn3  v127
 BYTE   N11  Dn4  v096
 BYTE   W12
// 039   ----------------------------------------
Label_1_01314983:
 BYTE   N05  En4  v096
 BYTE   N05  Bn4
 BYTE   W06
 BYTE   En4
 BYTE   N05  Bn4
 BYTE   W06
 BYTE   Dn4
 BYTE   N05  An4
 BYTE   W06
 BYTE   Dn4
 BYTE   N05  An4
 BYTE   W06
 BYTE   Bn3
 BYTE   N05  Fs4
 BYTE   W06
 BYTE   Bn3
 BYTE   N05  Fs4
 BYTE   W06
 BYTE   Dn4
 BYTE   N05  An4
 BYTE   W06
 BYTE   Dn4
 BYTE   N05  An4
 BYTE   W06
 BYTE   Bn3
 BYTE   N05  Fs4
 BYTE   W06
 BYTE   Bn3
 BYTE   N05  Fs4
 BYTE   W06
 BYTE   An3
 BYTE   N05  En4
 BYTE   W06
 BYTE   An3
 BYTE   N05  En4
 BYTE   W06
 BYTE   Gn3
 BYTE   N05  Dn4
 BYTE   W06
 BYTE   Gn3
 BYTE   N05  Dn4
 BYTE   W06
 BYTE   An3
 BYTE   N05  En4
 BYTE   W06
 BYTE   An3
 BYTE   N05  En4
 BYTE   W06
 BYTE   PEND 
// 040   ----------------------------------------
Label_1_013149C6:
 BYTE   N05  Gn3  v096
 BYTE   N05  Gn4
 BYTE   W06
 BYTE   Gn3
 BYTE   N05  Gn4
 BYTE   W06
 BYTE   En3
 BYTE   N05  En4
 BYTE   W06
 BYTE   En3
 BYTE   N05  En4
 BYTE   W06
 BYTE   Dn3
 BYTE   N05  Dn4
 BYTE   W06
 BYTE   Dn3
 BYTE   N05  Dn4
 BYTE   W06
 BYTE   En3
 BYTE   N05  En4
 BYTE   W06
 BYTE   En3
 BYTE   N05  En4
 BYTE   W06
 BYTE   Fn3
 BYTE   N05  Cn4
 BYTE   W06
 BYTE   Fn3
 BYTE   N05  Cn4
 BYTE   W06
 BYTE   An3
 BYTE   N05  Dn4
 BYTE   W06
 BYTE   An3
 BYTE   N05  Dn4
 BYTE   W06
 BYTE   Cn4
 BYTE   N05  Gn4
 BYTE   W06
 BYTE   Cn4
 BYTE   N05  Gn4
 BYTE   W06
 BYTE   Dn4
 BYTE   N05  An4
 BYTE   W06
 BYTE   Dn4
 BYTE   N05  An4
 BYTE   W06
 BYTE   PEND 
 BYTE   PATT
  POIN2 Label_1_01314983
 BYTE   PATT
  POIN2 Label_1_013149C6
// 041   ----------------------------------------
 BYTE   W96
// 042   ----------------------------------------
 BYTE   W96
// 043   ----------------------------------------
 BYTE   N23  Bn3  v064
 BYTE   W24
 BYTE   N11  An3
 BYTE   W12
 BYTE   Dn4
 BYTE   W12
 BYTE   N23  Bn3
 BYTE   W24
 BYTE   N11  An3
 BYTE   W12
 BYTE   Dn4
 BYTE   W12
// 044   ----------------------------------------
 BYTE   N92  Bn3
 BYTE   W96
// 045   ----------------------------------------
 BYTE   W24
 BYTE   N23  En3  v080
 BYTE   W24
 BYTE   An3
 BYTE   W24
 BYTE   N11  Bn3
 BYTE   W12
 BYTE   Cn4
 BYTE   W12
 BYTE   PATT
  POIN2 Label_1_013145DF
 BYTE   PATT
  POIN2 Label_1_013145EC
 BYTE   PATT
  POIN2 Label_1_013145F9
 BYTE   PATT
  POIN2 Label_1_01314606
// 046   ----------------------------------------
 BYTE   W96
// 047   ----------------------------------------
 BYTE   GoTo
  POIN2 Label_1_0131461A
 BYTE   FINE

//**************** Track 3 (Midi-Chn.2) ****************//

FE14JusticeRIPMrGreen3339_003:
// 000   ----------------------------------------
 BYTE   KEYSH   FE14JusticeRIPMrGreen3339_key+0
 BYTE   VOICE   3
 BYTE   VOL   51*FE14JusticeRIPMrGreen3339_mvl/mxv
 BYTE   PAN   c_v-15
 BYTE   W96
// 001   ----------------------------------------
 BYTE   W96
// 002   ----------------------------------------
 BYTE   W96
// 003   ----------------------------------------
 BYTE   W96
// 004   ----------------------------------------
 BYTE   W96
// 005   ----------------------------------------
 BYTE   W96
// 006   ----------------------------------------
Label_2_01314A5E:
 BYTE   W96
// 007   ----------------------------------------
 BYTE   W96
// 008   ----------------------------------------
 BYTE   W96
// 009   ----------------------------------------
 BYTE   W96
// 010   ----------------------------------------
 BYTE   W96
// 011   ----------------------------------------
 BYTE   W96
// 012   ----------------------------------------
 BYTE   W96
// 013   ----------------------------------------
 BYTE   W96
// 014   ----------------------------------------
 BYTE   W48
 BYTE   N02  Gn1  v052
 BYTE   W03
 BYTE   N02
 BYTE   W03
 BYTE   N02
 BYTE   W03
 BYTE   N02
 BYTE   W03
 BYTE   N02
 BYTE   W03
 BYTE   N02
 BYTE   W03
 BYTE   N02
 BYTE   W03
 BYTE   N02
 BYTE   W03
 BYTE   N01
 BYTE   W01
 BYTE   N01
 BYTE   W02
 BYTE   N01
 BYTE   W01
 BYTE   N01
 BYTE   W02
 BYTE   N01
 BYTE   W01
 BYTE   N01
 BYTE   W02
 BYTE   N01
 BYTE   W01
 BYTE   N01
 BYTE   W02
 BYTE   N02  Bn1  v064
 BYTE   W03
 BYTE   Gn1  v068
 BYTE   W03
 BYTE   Bn1
 BYTE   W03
 BYTE   Dn2  v072
 BYTE   W03
// 015   ----------------------------------------
Label_2_01314A95:
 BYTE   N23  En2  v076
 BYTE   W48
 BYTE   N02  Gn1
 BYTE   W03
 BYTE   N02
 BYTE   W03
 BYTE   N02
 BYTE   W03
 BYTE   N02
 BYTE   W03
 BYTE   N02
 BYTE   W03
 BYTE   N02
 BYTE   W03
 BYTE   N02
 BYTE   W03
 BYTE   N02
 BYTE   W03
 BYTE   N01
 BYTE   W01
 BYTE   N01
 BYTE   W02
 BYTE   N01
 BYTE   W01
 BYTE   N01
 BYTE   W02
 BYTE   N01
 BYTE   W01
 BYTE   N01
 BYTE   W02
 BYTE   N01
 BYTE   W01
 BYTE   N01
 BYTE   W02
 BYTE   N02  Bn1
 BYTE   W03
 BYTE   Gn1
 BYTE   W03
 BYTE   Bn1
 BYTE   W03
 BYTE   Dn2
 BYTE   W03
 BYTE   PEND 
 BYTE   PATT
  POIN2 Label_2_01314A95
// 016   ----------------------------------------
 BYTE   N23  En2  v076
 BYTE   W48
 BYTE   N02  Gn1
 BYTE   W03
 BYTE   N02
 BYTE   W03
 BYTE   N02
 BYTE   W03
 BYTE   N02
 BYTE   W03
 BYTE   N02
 BYTE   W03
 BYTE   N02
 BYTE   W03
 BYTE   N02
 BYTE   W03
 BYTE   N02
 BYTE   W03
 BYTE   N01
 BYTE   W01
 BYTE   N01
 BYTE   W02
 BYTE   N01
 BYTE   W01
 BYTE   N01
 BYTE   W02
 BYTE   N01
 BYTE   W01
 BYTE   N01
 BYTE   W02
 BYTE   N01
 BYTE   W01
 BYTE   N01
 BYTE   W02
 BYTE   N02  Bn1  v104
 BYTE   W03
 BYTE   Gn1  v108
 BYTE   W03
 BYTE   Bn1  v116
 BYTE   W03
 BYTE   Dn2  v120
 BYTE   W03
// 017   ----------------------------------------
 BYTE   N23  En2  v127
 BYTE   W72
 BYTE   N11  Bn1
 BYTE   N11  En2
 BYTE   W12
 BYTE   Bn1
 BYTE   N11  En2
 BYTE   W12
// 018   ----------------------------------------
 BYTE   N17  Bn1  v096
 BYTE   N17  En2
 BYTE   W18
 BYTE   N17
 BYTE   W18
 BYTE   N05
 BYTE   W06
 BYTE   N02
 BYTE   W03
 BYTE   N02
 BYTE   W03
 BYTE   N17
 BYTE   W18
 BYTE   N11
 BYTE   W12
 BYTE   N05
 BYTE   W06
 BYTE   N02
 BYTE   W03
 BYTE   N02
 BYTE   W03
 BYTE   N02
 BYTE   W03
 BYTE   N02
 BYTE   W03
// 019   ----------------------------------------
Label_2_01314B24:
 BYTE   N17  Bn1  v096
 BYTE   W18
 BYTE   N17
 BYTE   W18
 BYTE   N05
 BYTE   W06
 BYTE   N02
 BYTE   W03
 BYTE   N02
 BYTE   W03
 BYTE   N17
 BYTE   W18
 BYTE   N17
 BYTE   W18
 BYTE   N02
 BYTE   W03
 BYTE   N02
 BYTE   W03
 BYTE   N02
 BYTE   W03
 BYTE   N02
 BYTE   W03
 BYTE   PEND 
// 020   ----------------------------------------
 BYTE   N17  En2
 BYTE   W18
 BYTE   N17
 BYTE   W18
 BYTE   N05
 BYTE   W06
 BYTE   N02
 BYTE   W03
 BYTE   N02
 BYTE   W03
 BYTE   N17
 BYTE   W18
 BYTE   N11
 BYTE   W12
 BYTE   N05
 BYTE   W06
 BYTE   N02
 BYTE   W03
 BYTE   N02
 BYTE   W03
 BYTE   N02
 BYTE   W03
 BYTE   N02
 BYTE   W03
// 021   ----------------------------------------
 BYTE   N17  Dn2
 BYTE   W18
 BYTE   N17
 BYTE   W18
 BYTE   N05
 BYTE   W06
 BYTE   N02
 BYTE   W03
 BYTE   N02
 BYTE   W03
 BYTE   N17
 BYTE   W18
 BYTE   N11
 BYTE   W12
 BYTE   N05
 BYTE   W06
 BYTE   N02
 BYTE   W03
 BYTE   N02
 BYTE   W03
 BYTE   N02
 BYTE   W03
 BYTE   N02
 BYTE   W03
// 022   ----------------------------------------
 BYTE   N17  En2
 BYTE   W18
 BYTE   N17
 BYTE   W18
 BYTE   N05
 BYTE   W06
 BYTE   N02
 BYTE   W03
 BYTE   N02
 BYTE   W03
 BYTE   N17  Bn1
 BYTE   W18
 BYTE   N17
 BYTE   W18
 BYTE   N02
 BYTE   W03
 BYTE   N02
 BYTE   W03
 BYTE   N02
 BYTE   W03
 BYTE   N02
 BYTE   W03
 BYTE   PATT
  POIN2 Label_2_01314B24
 BYTE   PATT
  POIN2 Label_2_01314B24
// 023   ----------------------------------------
 BYTE   W96
// 024   ----------------------------------------
 BYTE   W96
// 025   ----------------------------------------
 BYTE   W96
// 026   ----------------------------------------
 BYTE   W96
// 027   ----------------------------------------
 BYTE   N17  En2  v096
 BYTE   W18
 BYTE   N11
 BYTE   W12
 BYTE   N05  Bn1
 BYTE   W06
 BYTE   En2
 BYTE   W06
 BYTE   Bn1
 BYTE   W06
 BYTE   N17  En2
 BYTE   W18
 BYTE   N11
 BYTE   W12
 BYTE   N05  Bn1
 BYTE   W06
 BYTE   En2
 BYTE   W06
 BYTE   Bn1
 BYTE   W06
// 028   ----------------------------------------
 BYTE   En2  v112
 BYTE   W18
 BYTE   N05
 BYTE   W18
 BYTE   N05
 BYTE   W18
 BYTE   N05
 BYTE   W18
 BYTE   N05
 BYTE   W06
 BYTE   Gn1
 BYTE   W06
 BYTE   Bn1
 BYTE   W06
 BYTE   Dn2
 BYTE   W06
// 029   ----------------------------------------
 BYTE   N01  En2  v127
 BYTE   W01
 BYTE   En1  v080
 BYTE   W01
 BYTE   N01
 BYTE   W01
 BYTE   N01
 BYTE   W01
 BYTE   N01
 BYTE   W01
 BYTE   N01
 BYTE   W01
 BYTE   N01
 BYTE   W01
 BYTE   N01
 BYTE   W01
 BYTE   N01
 BYTE   W02
 BYTE   N01
 BYTE   W01
 BYTE   N01
 BYTE   W02
 BYTE   N01
 BYTE   W01
 BYTE   N01
 BYTE   W02
 BYTE   N01
 BYTE   W01
 BYTE   N01
 BYTE   W02
 BYTE   N01
 BYTE   W01
 BYTE   N01
 BYTE   W02
 BYTE   N01
 BYTE   W02
 BYTE   N02
 BYTE   W02
 BYTE   N02
 BYTE   W03
 BYTE   N02
 BYTE   W03
 BYTE   N02
 BYTE   W03
 BYTE   N02
 BYTE   W03
 BYTE   N02
 BYTE   W03
 BYTE   N02
 BYTE   W03
 BYTE   N02
 BYTE   W03
 BYTE   N02
 BYTE   W03
 BYTE   N02
 BYTE   W03
 BYTE   N02
 BYTE   W03
 BYTE   N02
 BYTE   W04
 BYTE   En1  v096
 BYTE   W03
 BYTE   Gn1  v104
 BYTE   W03
 BYTE   Bn1  v112
 BYTE   W03
 BYTE   Dn2  v120
 BYTE   W03
 BYTE   N05  En2  v127
 BYTE   W06
 BYTE   Bn1
 BYTE   W06
 BYTE   Gn1
 BYTE   W06
 BYTE   Fs1
 BYTE   W06
// 030   ----------------------------------------
 BYTE   N23  En1  v080
 BYTE   W96
// 031   ----------------------------------------
 BYTE   N23
 BYTE   W96
// 032   ----------------------------------------
 BYTE   N23
 BYTE   W96
// 033   ----------------------------------------
 BYTE   N23
 BYTE   W96
// 034   ----------------------------------------
 BYTE   N23
 BYTE   W96
// 035   ----------------------------------------
 BYTE   N23
 BYTE   W96
// 036   ----------------------------------------
 BYTE   N23
 BYTE   W96
// 037   ----------------------------------------
 BYTE   N23
 BYTE   W96
// 038   ----------------------------------------
 BYTE   N23
 BYTE   W96
// 039   ----------------------------------------
 BYTE   N23
 BYTE   W96
// 040   ----------------------------------------
 BYTE   N23
 BYTE   W96
// 041   ----------------------------------------
 BYTE   W96
// 042   ----------------------------------------
 BYTE   W96
// 043   ----------------------------------------
 BYTE   W96
// 044   ----------------------------------------
 BYTE   W96
// 045   ----------------------------------------
 BYTE   W96
// 046   ----------------------------------------
 BYTE   W96
// 047   ----------------------------------------
 BYTE   W96
// 048   ----------------------------------------
 BYTE   W96
// 049   ----------------------------------------
 BYTE   W96
// 050   ----------------------------------------
 BYTE   W96
// 051   ----------------------------------------
 BYTE   GoTo
  POIN2 Label_2_01314A5E
 BYTE   FINE

//**************** Track 4 (Midi-Chn.3) ****************//

FE14JusticeRIPMrGreen3339_004:
// 000   ----------------------------------------
 BYTE   KEYSH   FE14JusticeRIPMrGreen3339_key+0
 BYTE   VOICE   4
 BYTE   VOL   51*FE14JusticeRIPMrGreen3339_mvl/mxv
 BYTE   PAN   c_v-1
 BYTE   W96
// 001   ----------------------------------------
 BYTE   W96
// 002   ----------------------------------------
 BYTE   W96
// 003   ----------------------------------------
 BYTE   W96
// 004   ----------------------------------------
 BYTE   W96
// 005   ----------------------------------------
 BYTE   W96
// 006   ----------------------------------------
Label_3_01314C4A:
 BYTE   W96
// 007   ----------------------------------------
 BYTE   W96
// 008   ----------------------------------------
 BYTE   W96
// 009   ----------------------------------------
 BYTE   W96
// 010   ----------------------------------------
 BYTE   W96
// 011   ----------------------------------------
 BYTE   W96
// 012   ----------------------------------------
 BYTE   W96
// 013   ----------------------------------------
 BYTE   W96
// 014   ----------------------------------------
 BYTE   W96
// 015   ----------------------------------------
 BYTE   W96
// 016   ----------------------------------------
 BYTE   W96
// 017   ----------------------------------------
 BYTE   W96
// 018   ----------------------------------------
 BYTE   W96
// 019   ----------------------------------------
 BYTE   W96
// 020   ----------------------------------------
 BYTE   W96
// 021   ----------------------------------------
 BYTE   W96
// 022   ----------------------------------------
 BYTE   W96
// 023   ----------------------------------------
 BYTE   W96
// 024   ----------------------------------------
 BYTE   W96
// 025   ----------------------------------------
 BYTE   W96
// 026   ----------------------------------------
 BYTE   W96
// 027   ----------------------------------------
 BYTE   W96
// 028   ----------------------------------------
 BYTE   W96
// 029   ----------------------------------------
 BYTE   W96
// 030   ----------------------------------------
 BYTE   W96
// 031   ----------------------------------------
 BYTE   W96
// 032   ----------------------------------------
 BYTE   W96
// 033   ----------------------------------------
 BYTE   N44  Cn4  v127
 BYTE   W48
 BYTE   An3
 BYTE   W48
// 034   ----------------------------------------
 BYTE   Bn3
 BYTE   W48
 BYTE   N23  En4
 BYTE   W24
 BYTE   Dn4
 BYTE   W24
// 035   ----------------------------------------
 BYTE   N44  Cn4
 BYTE   W48
 BYTE   Bn3
 BYTE   W48
// 036   ----------------------------------------
 BYTE   En4
 BYTE   W48
 BYTE   Dn4
 BYTE   W48
// 037   ----------------------------------------
Label_3_01314C7B:
 BYTE   N44  Cn4  v127
 BYTE   W48
 BYTE   Dn4
 BYTE   W48
 BYTE   PEND 
// 038   ----------------------------------------
 BYTE   Bn3
 BYTE   W48
 BYTE   En4
 BYTE   W48
 BYTE   PATT
  POIN2 Label_3_01314C7B
// 039   ----------------------------------------
 BYTE   N23  Bn3  v096
 BYTE   N44  En4
 BYTE   W24
 BYTE   N11  An3
 BYTE   W12
 BYTE   Dn4
 BYTE   W12
 BYTE   N23  Bn3
 BYTE   W24
 BYTE   N11  An3
 BYTE   W12
 BYTE   Dn4
 BYTE   W12
// 040   ----------------------------------------
 BYTE   N92  Bn3
 BYTE   W96
// 041   ----------------------------------------
 BYTE   N23  En3
 BYTE   W24
 BYTE   N11  Dn3
 BYTE   W12
 BYTE   An3
 BYTE   W12
 BYTE   N23  En3
 BYTE   W24
 BYTE   N11  Dn3
 BYTE   W12
 BYTE   Bn3
 BYTE   W12
// 042   ----------------------------------------
 BYTE   N92  En3
 BYTE   W96
// 043   ----------------------------------------
 BYTE   W96
// 044   ----------------------------------------
 BYTE   W96
// 045   ----------------------------------------
 BYTE   W96
// 046   ----------------------------------------
 BYTE   W96
// 047   ----------------------------------------
 BYTE   W96
// 048   ----------------------------------------
 BYTE   W96
// 049   ----------------------------------------
 BYTE   W96
// 050   ----------------------------------------
 BYTE   W96
// 051   ----------------------------------------
 BYTE   W96
// 052   ----------------------------------------
 BYTE   W96
// 053   ----------------------------------------
 BYTE   GoTo
  POIN2 Label_3_01314C4A
 BYTE   FINE

//**************** Track 5 (Midi-Chn.4) ****************//

FE14JusticeRIPMrGreen3339_005:
// 000   ----------------------------------------
 BYTE   KEYSH   FE14JusticeRIPMrGreen3339_key+0
 BYTE   VOICE   5
 BYTE   VOL   51*FE14JusticeRIPMrGreen3339_mvl/mxv
 BYTE   PAN   c_v-1
 BYTE   W96
// 001   ----------------------------------------
 BYTE   W96
// 002   ----------------------------------------
 BYTE   W96
// 003   ----------------------------------------
 BYTE   W96
// 004   ----------------------------------------
 BYTE   W96
// 005   ----------------------------------------
 BYTE   W96
// 006   ----------------------------------------
Label_4_01314CD2:
 BYTE   N23  En3  v052
 BYTE   W36
 BYTE   N05  Dn3
 BYTE   W06
 BYTE   En3
 BYTE   W06
 BYTE   N11  Fs3
 BYTE   W12
 BYTE   Bn2
 BYTE   W12
 BYTE   En3
 BYTE   W12
 BYTE   Fs3
 BYTE   W12
// 007   ----------------------------------------
 BYTE   N23  Gn3
 BYTE   W36
 BYTE   N05  En3
 BYTE   W06
 BYTE   Dn3
 BYTE   W06
 BYTE   N11  Cn3
 BYTE   W12
 BYTE   Gn2
 BYTE   W12
 BYTE   Cn3
 BYTE   W12
 BYTE   Dn3
 BYTE   W12
// 008   ----------------------------------------
 BYTE   N23  En3
 BYTE   W36
 BYTE   N05
 BYTE   W06
 BYTE   Fs3
 BYTE   W06
 BYTE   N11  Gn3
 BYTE   W12
 BYTE   Bn2
 BYTE   W12
 BYTE   Dn3
 BYTE   W12
 BYTE   Gn3
 BYTE   W12
// 009   ----------------------------------------
 BYTE   N23  Fs3
 BYTE   W36
 BYTE   N05
 BYTE   W06
 BYTE   En3
 BYTE   W06
 BYTE   N11  Dn3
 BYTE   W12
 BYTE   An2
 BYTE   W12
 BYTE   Dn3
 BYTE   W12
 BYTE   Fs3
 BYTE   W12
// 010   ----------------------------------------
 BYTE   N23  En3
 BYTE   W36
 BYTE   N05
 BYTE   W06
 BYTE   Fs3
 BYTE   W06
 BYTE   N11  Gn3
 BYTE   W12
 BYTE   Cn3
 BYTE   W12
 BYTE   En3
 BYTE   W12
 BYTE   Gn3
 BYTE   W12
// 011   ----------------------------------------
 BYTE   N23  An3
 BYTE   W36
 BYTE   N05
 BYTE   W06
 BYTE   Gn3
 BYTE   W06
 BYTE   N11  Fs3
 BYTE   W12
 BYTE   Bn2
 BYTE   W12
 BYTE   Dn3
 BYTE   W12
 BYTE   Fs3
 BYTE   W12
// 012   ----------------------------------------
 BYTE   N23  En3
 BYTE   W36
 BYTE   N05
 BYTE   W06
 BYTE   N05
 BYTE   W06
 BYTE   N11
 BYTE   W12
 BYTE   Bn2
 BYTE   W12
 BYTE   An2
 BYTE   W12
 BYTE   Gn2
 BYTE   W12
// 013   ----------------------------------------
 BYTE   N23  En2
 BYTE   N23  En3
 BYTE   W96
// 014   ----------------------------------------
 BYTE   W96
// 015   ----------------------------------------
 BYTE   W96
// 016   ----------------------------------------
 BYTE   W96
// 017   ----------------------------------------
 BYTE   W96
// 018   ----------------------------------------
 BYTE   W96
// 019   ----------------------------------------
 BYTE   W96
// 020   ----------------------------------------
 BYTE   W96
// 021   ----------------------------------------
 BYTE   W96
// 022   ----------------------------------------
 BYTE   W96
// 023   ----------------------------------------
 BYTE   W96
// 024   ----------------------------------------
 BYTE   W96
// 025   ----------------------------------------
 BYTE   W96
// 026   ----------------------------------------
 BYTE   W96
// 027   ----------------------------------------
 BYTE   W96
// 028   ----------------------------------------
 BYTE   W96
// 029   ----------------------------------------
 BYTE   W96
// 030   ----------------------------------------
 BYTE   W96
// 031   ----------------------------------------
 BYTE   W96
// 032   ----------------------------------------
 BYTE   W96
// 033   ----------------------------------------
 BYTE   W96
// 034   ----------------------------------------
 BYTE   W96
// 035   ----------------------------------------
 BYTE   W96
// 036   ----------------------------------------
 BYTE   W96
// 037   ----------------------------------------
 BYTE   W96
// 038   ----------------------------------------
 BYTE   W96
// 039   ----------------------------------------
 BYTE   W96
// 040   ----------------------------------------
Label_4_01314D63:
 BYTE   N17  Bn3  v076
 BYTE   W18
 BYTE   N02  An3
 BYTE   W03
 BYTE   Dn4
 BYTE   W03
 BYTE   N17  Bn3
 BYTE   W18
 BYTE   N02  An3
 BYTE   W03
 BYTE   Dn4
 BYTE   W03
 BYTE   N17  Bn3
 BYTE   W18
 BYTE   N02  An3
 BYTE   W03
 BYTE   Dn4
 BYTE   W03
 BYTE   N07  An3
 BYTE   W08
 BYTE   Gn3
 BYTE   W08
 BYTE   Fs3
 BYTE   W08
 BYTE   PEND 
// 041   ----------------------------------------
 BYTE   N05  En3
 BYTE   W06
 BYTE   Dn3
 BYTE   W06
 BYTE   N11
 BYTE   W12
 BYTE   N08  En3
 BYTE   W09
 BYTE   N02  Bn3
 BYTE   W03
 BYTE   N05
 BYTE   W06
 BYTE   An3
 BYTE   W06
 BYTE   N44  Bn3
 BYTE   W48
 BYTE   PATT
  POIN2 Label_4_01314D63
// 042   ----------------------------------------
 BYTE   N02  En3  v076
 BYTE   W03
 BYTE   Dn3
 BYTE   W03
 BYTE   Cn3
 BYTE   W03
 BYTE   Dn3
 BYTE   W03
 BYTE   N05  En3
 BYTE   W06
 BYTE   An3
 BYTE   W06
 BYTE   N02  En3
 BYTE   W03
 BYTE   Dn3
 BYTE   W03
 BYTE   Cn3
 BYTE   W03
 BYTE   Dn3
 BYTE   W03
 BYTE   N05  En3
 BYTE   W06
 BYTE   Bn3
 BYTE   W06
 BYTE   En3
 BYTE   W06
 BYTE   Dn3
 BYTE   W06
 BYTE   Cn3
 BYTE   W06
 BYTE   Bn2
 BYTE   W06
 BYTE   An2
 BYTE   W06
 BYTE   Gn2
 BYTE   W06
 BYTE   N02  Fs2
 BYTE   W03
 BYTE   An2
 BYTE   W03
 BYTE   Cn3
 BYTE   W03
 BYTE   Dn3
 BYTE   W03
// 043   ----------------------------------------
 BYTE   N44  Bn2
 BYTE   N44  En3
 BYTE   W48
 BYTE   Bn2
 BYTE   N44  Ds3
 BYTE   W48
// 044   ----------------------------------------
 BYTE   Bn2
 BYTE   N44  Dn3
 BYTE   W48
 BYTE   Cs3
 BYTE   N44  Fs3
 BYTE   W48
// 045   ----------------------------------------
 BYTE   Cn3
 BYTE   N44  En3
 BYTE   W96
// 046   ----------------------------------------
 BYTE   W96
// 047   ----------------------------------------
 BYTE   W96
// 048   ----------------------------------------
 BYTE   W96
// 049   ----------------------------------------
 BYTE   W96
// 050   ----------------------------------------
 BYTE   W96
// 051   ----------------------------------------
 BYTE   W96
// 052   ----------------------------------------
 BYTE   W96
// 053   ----------------------------------------
 BYTE   GoTo
  POIN2 Label_4_01314CD2
 BYTE   FINE

//**************** Track 6 (Midi-Chn.5) ****************//

FE14JusticeRIPMrGreen3339_006:
// 000   ----------------------------------------
 BYTE   KEYSH   FE14JusticeRIPMrGreen3339_key+0
 BYTE   VOICE   6
 BYTE   VOL   51*FE14JusticeRIPMrGreen3339_mvl/mxv
 BYTE   PAN   c_v-15
 BYTE   VOL   51*FE14JusticeRIPMrGreen3339_mvl/mxv
 BYTE   PAN   c_v-1
 BYTE   W24
 BYTE   N23  Bn2  v064
 BYTE   W24
 BYTE   Dn3
 BYTE   W24
 BYTE   N11  En3
 BYTE   W12
 BYTE   Fn3
 BYTE   W12
// 001   ----------------------------------------
Label_5_01314E09:
 BYTE   N11  Gn3  v064
 BYTE   W12
 BYTE   An3
 BYTE   W12
 BYTE   N44  Fs3
 BYTE   W48
 BYTE   N23  En3
 BYTE   W24
 BYTE   PEND 
// 002   ----------------------------------------
Label_5_01314E16:
 BYTE   W24
 BYTE   N23  En3  v080
 BYTE   W24
 BYTE   An3
 BYTE   W24
 BYTE   N11  Bn3
 BYTE   W12
 BYTE   Cn4
 BYTE   W12
 BYTE   PEND 
// 003   ----------------------------------------
Label_5_01314E23:
 BYTE   N11  Dn4  v080
 BYTE   W12
 BYTE   Fs4
 BYTE   W12
 BYTE   N44
 BYTE   W48
 BYTE   N23  En4
 BYTE   W24
 BYTE   PEND 
// 004   ----------------------------------------
 BYTE   W96
// 005   ----------------------------------------
Label_5_01314E30:
 BYTE   W72
 BYTE   N11  En3  v064
 BYTE   W12
 BYTE   Fs3
 BYTE   W12
 BYTE   PEND 
// 006   ----------------------------------------
Label_5_01314E38:
 BYTE   N11  Gn3  v064
 BYTE   W12
 BYTE   Bn3
 BYTE   W12
 BYTE   N32  Fs3
 BYTE   W36
 BYTE   N11
 BYTE   W12
 BYTE   N11
 BYTE   W12
 BYTE   Gn3
 BYTE   W12
// 007   ----------------------------------------
 BYTE   Fs3
 BYTE   W12
 BYTE   En3
 BYTE   W12
 BYTE   N44
 BYTE   W48
 BYTE   N11
 BYTE   W12
 BYTE   Fs3
 BYTE   W12
// 008   ----------------------------------------
 BYTE   Gn3
 BYTE   W12
 BYTE   Bn3
 BYTE   W12
 BYTE   Fs3
 BYTE   W12
 BYTE   Gn3
 BYTE   W12
 BYTE   N23  Dn4
 BYTE   W24
 BYTE   N11  Cn4
 BYTE   W12
 BYTE   Bn3
 BYTE   W12
// 009   ----------------------------------------
 BYTE   N11
 BYTE   W12
 BYTE   An3
 BYTE   W12
 BYTE   N44
 BYTE   W48
 BYTE   N11
 BYTE   W12
 BYTE   Bn3
 BYTE   W12
// 010   ----------------------------------------
 BYTE   Cn4
 BYTE   W12
 BYTE   En4
 BYTE   W12
 BYTE   N44  Bn3
 BYTE   W48
 BYTE   N11  Cn4
 BYTE   W12
 BYTE   Gn4
 BYTE   W12
// 011   ----------------------------------------
 BYTE   Fs4
 BYTE   W12
 BYTE   Dn4
 BYTE   W12
 BYTE   N44
 BYTE   W48
 BYTE   N11  Bn3
 BYTE   W12
 BYTE   Dn4
 BYTE   W12
// 012   ----------------------------------------
 BYTE   N23  An3
 BYTE   W24
 BYTE   N11  Bn3
 BYTE   W12
 BYTE   Dn4
 BYTE   W12
 BYTE   N23  An3
 BYTE   W24
 BYTE   N11  Gn3
 BYTE   W12
 BYTE   An3
 BYTE   W12
// 013   ----------------------------------------
 BYTE   TIE  En3
 BYTE   W96
// 014   ----------------------------------------
 BYTE   N05  Bn2
 BYTE   W06
 BYTE   N05
 BYTE   W06
 BYTE   EOT
 BYTE   En3
 BYTE   N06
 BYTE   W06
 BYTE   N76  En3  v068
 BYTE   W06
 BYTE   N05  Gn3  v072
 BYTE   W06
 BYTE   N05
 BYTE   W06
 BYTE   An3  v076
 BYTE   W06
 BYTE   N05
 BYTE   W06
 BYTE   Gn3  v080
 BYTE   W06
 BYTE   Gn3  v084
 BYTE   W06
 BYTE   An3
 BYTE   W06
 BYTE   An3  v088
 BYTE   W06
 BYTE   Bn3
 BYTE   W06
 BYTE   Bn3  v092
 BYTE   W06
 BYTE   Gn3  v096
 BYTE   W06
 BYTE   N05
 BYTE   W06
// 015   ----------------------------------------
 BYTE   Bn3
 BYTE   N05  En4
 BYTE   W18
 BYTE   Bn3
 BYTE   N05  En4
 BYTE   W36
 BYTE   Bn3
 BYTE   N05  En4
 BYTE   W18
 BYTE   Bn3
 BYTE   N05  En4
 BYTE   W12
 BYTE   Bn3
 BYTE   N05  Dn4
 BYTE   W12
// 016   ----------------------------------------
 BYTE   Bn3
 BYTE   N05  En4
 BYTE   W18
 BYTE   Bn3
 BYTE   N05  En4
 BYTE   W36
 BYTE   Bn3
 BYTE   N05  En4
 BYTE   W12
 BYTE   Bn3
 BYTE   N05  En4
 BYTE   W06
 BYTE   N07  An3
 BYTE   N07  En4
 BYTE   W08
 BYTE   An3
 BYTE   N07  En4
 BYTE   W08
 BYTE   An3
 BYTE   N07  En4
 BYTE   W08
// 017   ----------------------------------------
 BYTE   N05  Bn3
 BYTE   N05  En4
 BYTE   W18
 BYTE   Bn3
 BYTE   N05  En4
 BYTE   W36
 BYTE   Bn3
 BYTE   N05  En4
 BYTE   W18
 BYTE   Cn4
 BYTE   N05  Dn4
 BYTE   W12
 BYTE   Cn4
 BYTE   N05  Dn4
 BYTE   W12
// 018   ----------------------------------------
 BYTE   Bn3
 BYTE   N05  Cn4
 BYTE   W18
 BYTE   Bn3
 BYTE   N05  Cn4
 BYTE   W18
 BYTE   Bn3
 BYTE   N05  Cn4
 BYTE   W12
 BYTE   Bn3
 BYTE   N05  Dn4
 BYTE   W06
 BYTE   Bn3
 BYTE   N05  Dn4
 BYTE   W18
 BYTE   N11  En3  v064
 BYTE   W12
 BYTE   Fs3
 BYTE   W12
// 019   ----------------------------------------
 BYTE   En3  v080
 BYTE   N11  Gn3  v088
 BYTE   W12
 BYTE   N05  En3  v080
 BYTE   N11  Bn3  v088
 BYTE   W06
 BYTE   N05  Fs3  v080
 BYTE   W06
 BYTE   N18  Fs3  v088
 BYTE   N11  Gn3  v080
 BYTE   W12
 BYTE   N05  En3
 BYTE   W06
 BYTE   N17  Fs3
 BYTE   W06
 BYTE   N11  Gn3
 BYTE   W12
 BYTE   Fs3  v088
 BYTE   W12
 BYTE   En3  v080
 BYTE   N11  Fs3  v088
 BYTE   W12
 BYTE   Dn3  v080
 BYTE   N11  Gn3  v088
 BYTE   W12
// 020   ----------------------------------------
 BYTE   Cn3  v080
 BYTE   N11  Fs3  v088
 BYTE   W12
 BYTE   N05  Cn3  v080
 BYTE   N11  En3  v088
 BYTE   W06
 BYTE   N05  Dn3  v080
 BYTE   W06
 BYTE   N18  En3  v088
 BYTE   W12
 BYTE   N05  Cn3  v080
 BYTE   W06
 BYTE   N28  En3
 BYTE   W06
 BYTE   N11  Gn3
 BYTE   W12
 BYTE   Fs3
 BYTE   W12
 BYTE   En3  v088
 BYTE   W12
 BYTE   Dn3  v080
 BYTE   N11  Fs3  v088
 BYTE   W12
// 021   ----------------------------------------
 BYTE   En3  v080
 BYTE   N11  Gn3  v088
 BYTE   W12
 BYTE   N05  En3  v080
 BYTE   N11  Bn3  v088
 BYTE   W06
 BYTE   N05  Fs3  v080
 BYTE   W06
 BYTE   N11  Fs3  v088
 BYTE   N11  Gn3  v080
 BYTE   W12
 BYTE   N05  En3
 BYTE   N06  Gn3  v088
 BYTE   W06
 BYTE   N05  Gn3  v080
 BYTE   W06
 BYTE   N11  Bn3
 BYTE   N23  Dn4  v088
 BYTE   W12
 BYTE   N11  An3  v080
 BYTE   W12
 BYTE   Gn3
 BYTE   N11  Cn4  v088
 BYTE   W12
 BYTE   En3  v080
 BYTE   N11  Bn3  v088
 BYTE   W12
// 022   ----------------------------------------
 BYTE   Fs3  v080
 BYTE   N11  Bn3  v088
 BYTE   W12
 BYTE   N05  Dn3  v080
 BYTE   N11  An3  v088
 BYTE   W06
 BYTE   N05  En3  v080
 BYTE   W06
 BYTE   N11  Fs3
 BYTE   N24  An3  v088
 BYTE   W12
 BYTE   N05  Dn3  v080
 BYTE   W06
 BYTE   Fs3
 BYTE   W06
 BYTE   N23  An3
 BYTE   W12
 BYTE   N11  Gn3
 BYTE   W12
 BYTE   Fs3
 BYTE   N11  An3  v088
 BYTE   W12
 BYTE   Dn3  v080
 BYTE   N11  Bn3  v088
 BYTE   W12
// 023   ----------------------------------------
 BYTE   En3  v080
 BYTE   N11  Cn4  v088
 BYTE   W12
 BYTE   N05  Cn3  v080
 BYTE   N11  En4  v088
 BYTE   W06
 BYTE   N05  Dn3  v080
 BYTE   W06
 BYTE   En3
 BYTE   N11  Bn3  v088
 BYTE   W06
 BYTE   N05  Cn3  v080
 BYTE   W06
 BYTE   En3
 BYTE   N11  Cn4  v088
 BYTE   W06
 BYTE   N05  Gn3  v080
 BYTE   W06
 BYTE   N11  Bn3
 BYTE   N23  Gn4  v088
 BYTE   W12
 BYTE   N11  An3  v080
 BYTE   W12
 BYTE   Gn3
 BYTE   N11  Fs4  v088
 BYTE   W12
 BYTE   Dn3  v080
 BYTE   N11  En4  v088
 BYTE   W12
// 024   ----------------------------------------
 BYTE   Fs3  v080
 BYTE   N11  Dn4  v088
 BYTE   W12
 BYTE   N05  Dn3  v080
 BYTE   N11  Bn3  v088
 BYTE   W06
 BYTE   N05  En3  v080
 BYTE   W06
 BYTE   Fs3
 BYTE   N44  Bn3  v088
 BYTE   W06
 BYTE   N05  Dn3  v080
 BYTE   W06
 BYTE   Fs3
 BYTE   W06
 BYTE   An3
 BYTE   W18
 BYTE   N11  Cn4
 BYTE   W12
 BYTE   Bn3  v088
 BYTE   W12
 BYTE   Gn3  v080
 BYTE   N11  Dn4  v088
 BYTE   W12
// 025   ----------------------------------------
 BYTE   N23  An3
 BYTE   W12
 BYTE   N05  En3  v080
 BYTE   W06
 BYTE   Gn3
 BYTE   W06
 BYTE   N11  An3
 BYTE   N11  Bn3  v088
 BYTE   W12
 BYTE   N05  En3  v080
 BYTE   N11  Dn4  v088
 BYTE   W06
 BYTE   N05  An3  v080
 BYTE   W06
 BYTE   N11  Gn3
 BYTE   N23  An3  v088
 BYTE   W12
 BYTE   N11  Fs3  v080
 BYTE   W12
 BYTE   En3
 BYTE   N11  Gn3  v088
 BYTE   W12
 BYTE   Dn3  v080
 BYTE   N11  An3  v088
 BYTE   W12
// 026   ----------------------------------------
 BYTE   N92  En3
 BYTE   W12
 BYTE   N11  Bn3  v080
 BYTE   W12
 BYTE   An3
 BYTE   W12
 BYTE   Gn3
 BYTE   W12
 BYTE   N23  Fs3
 BYTE   W24
 BYTE   N11  Gn3
 BYTE   W12
 BYTE   An3
 BYTE   W12
// 027   ----------------------------------------
 BYTE   N92  Bn3
 BYTE   W96
// 028   ----------------------------------------
 BYTE   W12
 BYTE   N11  En4
 BYTE   W12
 BYTE   Dn4
 BYTE   W12
 BYTE   Bn3
 BYTE   W12
 BYTE   N23  An3
 BYTE   W24
 BYTE   N11  Gn3
 BYTE   W12
 BYTE   Fs3
 BYTE   W12
// 029   ----------------------------------------
 BYTE   N23  En3
 BYTE   W24
 BYTE   N11  Gn3
 BYTE   W12
 BYTE   An3
 BYTE   W12
 BYTE   N23  En3
 BYTE   W24
 BYTE   N11  Gn3
 BYTE   W12
 BYTE   An3
 BYTE   W12
// 030   ----------------------------------------
 BYTE   N44  Bn3
 BYTE   W48
 BYTE   An3
 BYTE   W48
// 031   ----------------------------------------
 BYTE   N92  Bn3
 BYTE   W96
// 032   ----------------------------------------
 BYTE   W72
 BYTE   N11  Bn3  v104
 BYTE   W12
 BYTE   Dn4
 BYTE   W12
// 033   ----------------------------------------
 BYTE   N17  En3  v080
 BYTE   N11  Gn3  v104
 BYTE   N17  Cn4  v080
 BYTE   W12
 BYTE   N11  An3  v104
 BYTE   W06
 BYTE   N17  En3  v080
 BYTE   N17  Cn4
 BYTE   W06
 BYTE   N11  Bn3  v104
 BYTE   W12
 BYTE   En3  v080
 BYTE   N11  Cn4
 BYTE   N11  Dn4  v104
 BYTE   W12
 BYTE   Gn3
 BYTE   N12  An3  v080
 BYTE   N17  Dn4
 BYTE   W12
 BYTE   N06  An3  v104
 BYTE   W06
 BYTE   N17  An3  v080
 BYTE   N17  Dn4
 BYTE   W06
 BYTE   N11  Gn3  v104
 BYTE   W12
 BYTE   An3
 BYTE   N11  Dn4  v080
 BYTE   W12
// 034   ----------------------------------------
 BYTE   N17  Fs3
 BYTE   N05  An3  v104
 BYTE   N06  Bn3  v080
 BYTE   W06
 BYTE   N11  Bn3  v104
 BYTE   W06
 BYTE   Dn4
 BYTE   W06
 BYTE   N17  Fs3  v080
 BYTE   N17  Bn3
 BYTE   W06
 BYTE   N11  En4  v104
 BYTE   W12
 BYTE   Fs3  v080
 BYTE   N11  Bn3
 BYTE   N11  Gn4  v104
 BYTE   W12
 BYTE   N05  Gs3  v080
 BYTE   N05  En4
 BYTE   N05  Fs4  v104
 BYTE   W06
 BYTE   N11  Gs3  v080
 BYTE   N11  En4
 BYTE   N05  Gn4  v104
 BYTE   W06
 BYTE   N11  Fs4
 BYTE   W06
 BYTE   N05  Gs3  v080
 BYTE   N05  En4
 BYTE   W06
 BYTE   Fs3
 BYTE   N06  Dn4  v104
 BYTE   W06
 BYTE   N11  Fs3  v080
 BYTE   N11  Dn4
 BYTE   W06
 BYTE   Bn3  v104
 BYTE   W06
 BYTE   N05  Fs3  v080
 BYTE   N05  Dn4
 BYTE   W06
// 035   ----------------------------------------
 BYTE   N17  En3
 BYTE   N05  An3  v104
 BYTE   N17  Cn4  v080
 BYTE   W06
 BYTE   N05  Bn3  v104
 BYTE   W06
 BYTE   N11  An3
 BYTE   W06
 BYTE   N17  En3  v080
 BYTE   N17  Cn4
 BYTE   W06
 BYTE   N11  Gn3  v104
 BYTE   W12
 BYTE   En3  v080
 BYTE   N11  An3  v104
 BYTE   N11  Cn4  v080
 BYTE   W12
 BYTE   N17  Fs3
 BYTE   N05  An3  v104
 BYTE   N06  Bn3  v080
 BYTE   W06
 BYTE   N11  Bn3  v104
 BYTE   W06
 BYTE   Gn3
 BYTE   W06
 BYTE   N17  Fs3  v080
 BYTE   N17  Bn3
 BYTE   W06
 BYTE   N11  An3  v104
 BYTE   W12
 BYTE   Fs3  v080
 BYTE   N11  Bn3  v104
 BYTE   W12
// 036   ----------------------------------------
 BYTE   N17  Gn3
 BYTE   N17  En4  v080
 BYTE   W12
 BYTE   N11  An3  v104
 BYTE   W06
 BYTE   N06  Gn3  v080
 BYTE   N17  En4
 BYTE   W06
 BYTE   N11  Gn3  v104
 BYTE   W12
 BYTE   Gn3  v080
 BYTE   N11  An3  v104
 BYTE   N11  En4  v080
 BYTE   W12
 BYTE   N05  Gn3  v104
 BYTE   N05  An3  v080
 BYTE   N05  Dn4
 BYTE   W06
 BYTE   N11  An3  v104
 BYTE   N11  Dn4  v080
 BYTE   W06
 BYTE   Bn3  v104
 BYTE   W06
 BYTE   N28  An3  v080
 BYTE   N18  Dn4
 BYTE   W06
 BYTE   N11  Bn3  v104
 BYTE   W12
 BYTE   Dn4
 BYTE   W12
// 037   ----------------------------------------
 BYTE   N17  Gn3
 BYTE   N17  Cn4  v080
 BYTE   W12
 BYTE   N11  An3  v104
 BYTE   W06
 BYTE   N17  Gn3  v080
 BYTE   N17  Cn4
 BYTE   W06
 BYTE   N11  Bn3  v104
 BYTE   W12
 BYTE   Gn3  v080
 BYTE   N11  Cn4
 BYTE   N11  Dn4  v104
 BYTE   W12
 BYTE   Gn3
 BYTE   N12  An3  v080
 BYTE   N17  Dn4
 BYTE   W12
 BYTE   N06  An3  v104
 BYTE   W06
 BYTE   N17  An3  v080
 BYTE   N17  Dn4
 BYTE   W06
 BYTE   N11  Gn3  v104
 BYTE   W12
 BYTE   An3
 BYTE   N11  Dn4  v080
 BYTE   W12
// 038   ----------------------------------------
 BYTE   N17  Fs3
 BYTE   N05  An3  v104
 BYTE   N06  Bn3  v080
 BYTE   W06
 BYTE   N11  Bn3  v104
 BYTE   W06
 BYTE   Dn4
 BYTE   W06
 BYTE   N17  Fs3  v080
 BYTE   N17  An3
 BYTE   W06
 BYTE   N11  En4  v104
 BYTE   W12
 BYTE   En3  v080
 BYTE   N11  An3
 BYTE   N11  Gn4  v104
 BYTE   W12
 BYTE   N17  En3  v080
 BYTE   N17  Gs3
 BYTE   N05  Fs4  v104
 BYTE   W06
 BYTE   Gn4
 BYTE   W06
 BYTE   N11  Fs4
 BYTE   W06
 BYTE   N17  En3  v080
 BYTE   N17  Gs3
 BYTE   W06
 BYTE   N11  Dn4  v104
 BYTE   W12
 BYTE   En3  v080
 BYTE   N11  Gs3
 BYTE   N11  Bn3  v104
 BYTE   W12
// 039   ----------------------------------------
 BYTE   N17  En3  v080
 BYTE   N11  Gn3  v104
 BYTE   N12  An3  v080
 BYTE   W12
 BYTE   N06  An3  v104
 BYTE   W06
 BYTE   N17  En3  v080
 BYTE   N17  An3
 BYTE   W06
 BYTE   N11  Gn3  v104
 BYTE   W12
 BYTE   En3  v080
 BYTE   N11  An3  v104
 BYTE   W12
 BYTE   N17  Dn3  v080
 BYTE   N05  An3  v104
 BYTE   N06  Bn3  v080
 BYTE   W06
 BYTE   N11  Bn3  v104
 BYTE   W06
 BYTE   Gn3
 BYTE   W06
 BYTE   N17  Dn3  v080
 BYTE   N17  Bn3
 BYTE   W06
 BYTE   N11  En3  v104
 BYTE   W12
 BYTE   Dn3
 BYTE   N11  Bn3  v080
 BYTE   W12
// 040   ----------------------------------------
Label_5_01315273:
 BYTE   N17  Bn3  v076
 BYTE   N05  En4  v080
 BYTE   W06
 BYTE   N05
 BYTE   W06
 BYTE   Dn4
 BYTE   W06
 BYTE   N02  An3  v076
 BYTE   N03  Dn4  v080
 BYTE   W03
 BYTE   N02  Dn4  v076
 BYTE   W03
 BYTE   N06  Bn3
 BYTE   W06
 BYTE   N11  Bn3  v080
 BYTE   W06
 BYTE   N05  Dn4
 BYTE   W06
 BYTE   N02  An3  v076
 BYTE   N03  Dn4  v080
 BYTE   W03
 BYTE   N02  Dn4  v076
 BYTE   W03
 BYTE   N06  Bn3
 BYTE   W06
 BYTE   N11  Bn3  v080
 BYTE   W06
 BYTE   N05  An3
 BYTE   W06
 BYTE   An3  v076
 BYTE   W03
 BYTE   N02  Dn4
 BYTE   W03
 BYTE   N05  Gn3  v080
 BYTE   N07  An3  v076
 BYTE   W06
 BYTE   N02  Gn3  v080
 BYTE   W02
 BYTE   N07  Gn3  v076
 BYTE   W04
 BYTE   N05  An3  v080
 BYTE   W04
 BYTE   N07  Fs3  v076
 BYTE   W02
 BYTE   N05  An3  v080
 BYTE   W06
 BYTE   PEND 
// 041   ----------------------------------------
 BYTE   En3  v076
 BYTE   N05  Gn3  v080
 BYTE   W06
 BYTE   Dn3  v076
 BYTE   N05  Gn3  v080
 BYTE   W06
 BYTE   N11  Dn3  v076
 BYTE   N05  En3  v080
 BYTE   W06
 BYTE   N05
 BYTE   W06
 BYTE   Dn3
 BYTE   N08  En3  v076
 BYTE   W06
 BYTE   N05  Dn3  v080
 BYTE   W03
 BYTE   N02  Bn3  v076
 BYTE   W03
 BYTE   N05  En3  v080
 BYTE   N05  Bn3  v076
 BYTE   W06
 BYTE   En3  v080
 BYTE   N05  An3  v076
 BYTE   W06
 BYTE   Fn3  v080
 BYTE   N44  Bn3  v076
 BYTE   W06
 BYTE   N05  Fn3  v080
 BYTE   W06
 BYTE   An3
 BYTE   W06
 BYTE   N05
 BYTE   W06
 BYTE   Cn4
 BYTE   W06
 BYTE   N05
 BYTE   W06
 BYTE   Dn4
 BYTE   W06
 BYTE   N05
 BYTE   W06
 BYTE   PATT
  POIN2 Label_5_01315273
// 042   ----------------------------------------
 BYTE   N02  En3  v076
 BYTE   N05  Gn3  v080
 BYTE   W03
 BYTE   N02  Dn3  v076
 BYTE   W03
 BYTE   Cn3
 BYTE   N05  Gn3  v080
 BYTE   W03
 BYTE   N02  Dn3  v076
 BYTE   W03
 BYTE   N05  En3
 BYTE   W06
 BYTE   En3  v080
 BYTE   N05  An3  v076
 BYTE   W06
 BYTE   N03  Dn3  v080
 BYTE   N02  En3  v076
 BYTE   W03
 BYTE   Dn3
 BYTE   W03
 BYTE   Cn3
 BYTE   N03  Dn3  v080
 BYTE   W03
 BYTE   N02  Dn3  v076
 BYTE   W03
 BYTE   N05  En3
 BYTE   W06
 BYTE   En3  v080
 BYTE   N05  Bn3  v076
 BYTE   W06
 BYTE   N44  En3
 BYTE   N05  Fn3  v080
 BYTE   W06
 BYTE   N05
 BYTE   W06
 BYTE   An3
 BYTE   W06
 BYTE   N05
 BYTE   W06
 BYTE   Cn4
 BYTE   W06
 BYTE   N05
 BYTE   W06
 BYTE   Dn4
 BYTE   W06
 BYTE   N05
 BYTE   W06
// 043   ----------------------------------------
 BYTE   N92  Fs3  v064
 BYTE   W96
// 044   ----------------------------------------
 BYTE   N92
 BYTE   W96
// 045   ----------------------------------------
 BYTE   En3
 BYTE   N23  Bn3
 BYTE   W24
 BYTE   N11  An3
 BYTE   W12
 BYTE   Dn4
 BYTE   W12
 BYTE   N23  Bn3
 BYTE   W24
 BYTE   N11  An3
 BYTE   W12
 BYTE   Dn4
 BYTE   W12
// 046   ----------------------------------------
 BYTE   N92  Fs3
 BYTE   N92  Bn3
 BYTE   W96
// 047   ----------------------------------------
 BYTE   W24
 BYTE   N23  Bn2
 BYTE   W24
 BYTE   Dn3
 BYTE   W24
 BYTE   N11  En3
 BYTE   W12
 BYTE   Fn3
 BYTE   W12
 BYTE   PATT
  POIN2 Label_5_01314E09
 BYTE   PATT
  POIN2 Label_5_01314E16
 BYTE   PATT
  POIN2 Label_5_01314E23
// 048   ----------------------------------------
 BYTE   W96
 BYTE   PATT
  POIN2 Label_5_01314E30
// 049   ----------------------------------------
 BYTE   GoTo
  POIN2 Label_5_01314E38
 BYTE   FINE

//**************** Track 7 (Midi-Chn.6) ****************//

FE14JusticeRIPMrGreen3339_007:
// 000   ----------------------------------------
 BYTE   KEYSH   FE14JusticeRIPMrGreen3339_key+0
 BYTE   VOICE   7
 BYTE   VOL   51*FE14JusticeRIPMrGreen3339_mvl/mxv
 BYTE   PAN   c_v-26
 BYTE   W24
 BYTE   N23  En3  v080
 BYTE   W24
 BYTE   Dn3
 BYTE   W24
 BYTE   N11  Gn3
 BYTE   W12
 BYTE   Dn3
 BYTE   W12
// 001   ----------------------------------------
Label_6_013153B6:
 BYTE   N11  Dn3  v080
 BYTE   W12
 BYTE   En3
 BYTE   W12
 BYTE   N68
 BYTE   W72
 BYTE   PEND 
// 002   ----------------------------------------
Label_6_013153BF:
 BYTE   W24
 BYTE   N23  En3  v080
 BYTE   W24
 BYTE   Dn3
 BYTE   W24
 BYTE   N11  Gn3
 BYTE   W12
 BYTE   Dn3
 BYTE   W12
 BYTE   PEND 
 BYTE   PATT
  POIN2 Label_6_013153B6
// 003   ----------------------------------------
 BYTE   W96
// 004   ----------------------------------------
 BYTE   W96
// 005   ----------------------------------------
Label_6_013153D3:
 BYTE   W96
// 006   ----------------------------------------
 BYTE   W96
// 007   ----------------------------------------
 BYTE   W96
// 008   ----------------------------------------
 BYTE   W96
// 009   ----------------------------------------
 BYTE   W96
// 010   ----------------------------------------
 BYTE   W96
// 011   ----------------------------------------
 BYTE   W96
// 012   ----------------------------------------
 BYTE   N23  Bn3  v064
 BYTE   W24
 BYTE   N11  An3
 BYTE   W12
 BYTE   Dn4
 BYTE   W12
 BYTE   N23  Bn3
 BYTE   W24
 BYTE   N11  An3
 BYTE   W12
 BYTE   Dn4
 BYTE   W12
// 013   ----------------------------------------
 BYTE   N92  Bn3
 BYTE   W96
// 014   ----------------------------------------
 BYTE   N05  Bn3  v088
 BYTE   W06
 BYTE   N05
 BYTE   W12
 BYTE   N05
 BYTE   W06
 BYTE   N05
 BYTE   W12
 BYTE   N05
 BYTE   W06
 BYTE   N05
 BYTE   W12
 BYTE   N05
 BYTE   W06
 BYTE   N05
 BYTE   W12
 BYTE   An3
 BYTE   W06
 BYTE   Bn3
 BYTE   W06
 BYTE   N02  An3
 BYTE   W03
 BYTE   Bn3
 BYTE   W03
 BYTE   Cn4
 BYTE   W03
 BYTE   An3
 BYTE   W03
// 015   ----------------------------------------
 BYTE   N05  Bn3
 BYTE   W06
 BYTE   N05
 BYTE   W12
 BYTE   N05
 BYTE   W06
 BYTE   N05
 BYTE   W12
 BYTE   N05
 BYTE   W06
 BYTE   N05
 BYTE   W12
 BYTE   N05
 BYTE   W06
 BYTE   N05
 BYTE   W12
 BYTE   Cn4
 BYTE   W06
 BYTE   Bn3
 BYTE   W06
 BYTE   An3
 BYTE   W06
 BYTE   Cn4
 BYTE   W06
// 016   ----------------------------------------
 BYTE   Bn3
 BYTE   W06
 BYTE   N05
 BYTE   W12
 BYTE   N05
 BYTE   W06
 BYTE   N05
 BYTE   W12
 BYTE   N05
 BYTE   W06
 BYTE   N05
 BYTE   W12
 BYTE   N05
 BYTE   W06
 BYTE   N05
 BYTE   W12
 BYTE   An3
 BYTE   W06
 BYTE   Bn3
 BYTE   W06
 BYTE   Cn4
 BYTE   W06
 BYTE   An3
 BYTE   W06
// 017   ----------------------------------------
 BYTE   Bn3
 BYTE   W06
 BYTE   N05
 BYTE   W12
 BYTE   N05
 BYTE   W06
 BYTE   N05
 BYTE   W12
 BYTE   N05
 BYTE   W06
 BYTE   N05
 BYTE   W12
 BYTE   N05
 BYTE   W06
 BYTE   N05
 BYTE   W36
// 018   ----------------------------------------
 BYTE   N44  Bn2  v080
 BYTE   N44  En3
 BYTE   W48
 BYTE   N11  Bn2
 BYTE   N11  Gn3
 BYTE   W12
 BYTE   N32  Bn2
 BYTE   N32  Gn3
 BYTE   W36
// 019   ----------------------------------------
 BYTE   N44  Gn2
 BYTE   N44  Gn3
 BYTE   W48
 BYTE   N11  Gn2
 BYTE   N11  An3
 BYTE   W12
 BYTE   N32  Gn2
 BYTE   N32  An3
 BYTE   W36
// 020   ----------------------------------------
 BYTE   N44  Bn2
 BYTE   N44  Gn3
 BYTE   W48
 BYTE   Dn3
 BYTE   N44  Gn3
 BYTE   W48
// 021   ----------------------------------------
 BYTE   Dn3
 BYTE   N44  Gn3
 BYTE   W48
 BYTE   Dn3
 BYTE   N44  Fs3
 BYTE   W48
// 022   ----------------------------------------
 BYTE   Cn3
 BYTE   N44  En3
 BYTE   W48
 BYTE   Cn3
 BYTE   N44  Gn3
 BYTE   W48
// 023   ----------------------------------------
 BYTE   Dn3
 BYTE   N44  An3
 BYTE   W48
 BYTE   Cs3
 BYTE   N44  Fs3
 BYTE   W48
// 024   ----------------------------------------
 BYTE   Cn3
 BYTE   N44  En3
 BYTE   W48
 BYTE   An2
 BYTE   N44  Dn3
 BYTE   W48
// 025   ----------------------------------------
Label_6_01315496:
 BYTE   N44  Cs3  v064
 BYTE   W48
 BYTE   N23  Ds3
 BYTE   W24
 BYTE   N11  En3
 BYTE   W12
 BYTE   Fs3
 BYTE   W12
 BYTE   PEND 
// 026   ----------------------------------------
 BYTE   N44  Gn3
 BYTE   W48
 BYTE   En3
 BYTE   W48
 BYTE   PATT
  POIN2 Label_6_01315496
// 027   ----------------------------------------
 BYTE   N23  En3  v064
 BYTE   W24
 BYTE   Bn2
 BYTE   W24
 BYTE   An2
 BYTE   W24
 BYTE   N11  Gn2
 BYTE   W12
 BYTE   An2
 BYTE   W12
// 028   ----------------------------------------
 BYTE   N23  Bn2  v112
 BYTE   W24
 BYTE   Gn3
 BYTE   W24
 BYTE   N44  Fs3
 BYTE   W48
// 029   ----------------------------------------
 BYTE   N92  Bn3
 BYTE   W96
// 030   ----------------------------------------
 BYTE   W96
// 031   ----------------------------------------
 BYTE   W12
 BYTE   N11  Gn2
 BYTE   W12
 BYTE   Cn3
 BYTE   W12
 BYTE   En3
 BYTE   W12
 BYTE   N23  Dn3
 BYTE   W24
 BYTE   N11  An2
 BYTE   W12
 BYTE   Dn3
 BYTE   W12
// 032   ----------------------------------------
 BYTE   W12
 BYTE   Bn2
 BYTE   W12
 BYTE   An2
 BYTE   W12
 BYTE   Fs2
 BYTE   W12
 BYTE   N44  Gs2
 BYTE   W48
// 033   ----------------------------------------
 BYTE   W12
 BYTE   N11  En2
 BYTE   W12
 BYTE   An2
 BYTE   W12
 BYTE   Cn3
 BYTE   W12
 BYTE   N23  Bn2
 BYTE   W24
 BYTE   N11  Cs3
 BYTE   W12
 BYTE   Ds3
 BYTE   W12
// 034   ----------------------------------------
 BYTE   N23  Fs3
 BYTE   W24
 BYTE   N11  En3
 BYTE   W12
 BYTE   Fs3
 BYTE   W12
 BYTE   N44  Gn3
 BYTE   W48
// 035   ----------------------------------------
 BYTE   W12
 BYTE   N19  Cn3
 BYTE   W20
 BYTE   N07  En3
 BYTE   W08
 BYTE   Bn3
 BYTE   W08
 BYTE   N23  An3
 BYTE   W24
 BYTE   N11  Gn3
 BYTE   W12
 BYTE   An3
 BYTE   W12
// 036   ----------------------------------------
 BYTE   N23  Fs3
 BYTE   W24
 BYTE   N15  Dn3
 BYTE   W16
 BYTE   N07  Cn3
 BYTE   W08
 BYTE   N23  Bn2
 BYTE   W24
 BYTE   En3
 BYTE   W24
// 037   ----------------------------------------
 BYTE   W12
 BYTE   N11  Cn3
 BYTE   W12
 BYTE   En3
 BYTE   W12
 BYTE   Gn3
 BYTE   W12
 BYTE   N23  Fs3
 BYTE   W24
 BYTE   N11  En3
 BYTE   W12
 BYTE   Dn3
 BYTE   W12
// 038   ----------------------------------------
 BYTE   N05  En3  v096
 BYTE   W06
 BYTE   N05
 BYTE   W42
 BYTE   N32
 BYTE   W36
 BYTE   N02  Bn2
 BYTE   W03
 BYTE   Cn3
 BYTE   W03
 BYTE   Dn3
 BYTE   W03
 BYTE   En3
 BYTE   W03
// 039   ----------------------------------------
 BYTE   N92  Fn3
 BYTE   W96
// 040   ----------------------------------------
 BYTE   W48
 BYTE   N23  En3
 BYTE   W24
 BYTE   N02  Dn3
 BYTE   W03
 BYTE   Cn3
 BYTE   W03
 BYTE   Bn2
 BYTE   W03
 BYTE   An2
 BYTE   W03
 BYTE   Bn2
 BYTE   W03
 BYTE   Cn3
 BYTE   W03
 BYTE   Dn3
 BYTE   W03
 BYTE   En3
 BYTE   W03
// 041   ----------------------------------------
 BYTE   N44  Fn3
 BYTE   W48
 BYTE   N44
 BYTE   N44  As3
 BYTE   W48
// 042   ----------------------------------------
 BYTE   En3  v080
 BYTE   W48
 BYTE   Ds3
 BYTE   W48
// 043   ----------------------------------------
 BYTE   Dn3
 BYTE   W48
 BYTE   Cs3
 BYTE   W48
// 044   ----------------------------------------
 BYTE   N92  Cn3
 BYTE   N92  En3
 BYTE   W96
// 045   ----------------------------------------
 BYTE   Bn2
 BYTE   N92  Fs3
 BYTE   W96
 BYTE   PATT
  POIN2 Label_6_013153BF
 BYTE   PATT
  POIN2 Label_6_013153B6
 BYTE   PATT
  POIN2 Label_6_013153BF
 BYTE   PATT
  POIN2 Label_6_013153B6
// 046   ----------------------------------------
 BYTE   W96
// 047   ----------------------------------------
 BYTE   W96
// 048   ----------------------------------------
 BYTE   GoTo
  POIN2 Label_6_013153D3
 BYTE   FINE

//**************** Track 8 (Midi-Chn.7) ****************//

FE14JusticeRIPMrGreen3339_008:
// 000   ----------------------------------------
 BYTE   KEYSH   FE14JusticeRIPMrGreen3339_key+0
 BYTE   VOICE   8
 BYTE   VOL   51*FE14JusticeRIPMrGreen3339_mvl/mxv
 BYTE   PAN   c_v+7
 BYTE   N44  Bn2  v064
 BYTE   W48
 BYTE   Cn3
 BYTE   W48
// 001   ----------------------------------------
Label_7_01315597:
 BYTE   N44  Bn2  v064
 BYTE   W48
 BYTE   Cn3
 BYTE   W48
 BYTE   PEND 
 BYTE   PATT
  POIN2 Label_7_01315597
// 002   ----------------------------------------
Label_7_013155A3:
 BYTE   N44  Bn2  v064
 BYTE   W48
 BYTE   Cn3  v076
 BYTE   W48
 BYTE   PEND 
// 003   ----------------------------------------
 BYTE   W96
// 004   ----------------------------------------
 BYTE   W96
// 005   ----------------------------------------
Label_7_013155AD:
 BYTE   W96
// 006   ----------------------------------------
 BYTE   W96
// 007   ----------------------------------------
 BYTE   W96
// 008   ----------------------------------------
 BYTE   W96
// 009   ----------------------------------------
 BYTE   W96
// 010   ----------------------------------------
 BYTE   W96
// 011   ----------------------------------------
 BYTE   W96
// 012   ----------------------------------------
 BYTE   W96
// 013   ----------------------------------------
 BYTE   W96
// 014   ----------------------------------------
Label_7_013155B6:
 BYTE   W24
 BYTE   N23  En2  v088
 BYTE   W24
 BYTE   An2
 BYTE   W24
 BYTE   N11  Bn2
 BYTE   W12
 BYTE   Cn3
 BYTE   W12
 BYTE   PEND 
// 015   ----------------------------------------
 BYTE   Dn3
 BYTE   W12
 BYTE   En3
 BYTE   W12
 BYTE   N44  Bn2
 BYTE   W48
 BYTE   N23  An2
 BYTE   W24
 BYTE   PATT
  POIN2 Label_7_013155B6
// 016   ----------------------------------------
 BYTE   N11  Dn3  v088
 BYTE   W12
 BYTE   En3
 BYTE   W12
 BYTE   N44
 BYTE   W48
 BYTE   N11  En2
 BYTE   W12
 BYTE   Fs2
 BYTE   W12
// 017   ----------------------------------------
 BYTE   Gn2
 BYTE   W12
 BYTE   Bn2
 BYTE   W12
 BYTE   N32  Fs2
 BYTE   W36
 BYTE   N11
 BYTE   W12
 BYTE   N11
 BYTE   W12
 BYTE   Gn2
 BYTE   W12
// 018   ----------------------------------------
 BYTE   Fs2
 BYTE   W12
 BYTE   En2
 BYTE   W12
 BYTE   N44
 BYTE   W48
 BYTE   N11
 BYTE   W12
 BYTE   Fs2
 BYTE   W12
// 019   ----------------------------------------
 BYTE   Gn2
 BYTE   W12
 BYTE   Bn2
 BYTE   W12
 BYTE   Fs2
 BYTE   W12
 BYTE   Gn2
 BYTE   W12
 BYTE   N23  Dn3
 BYTE   W24
 BYTE   N11  Cn3
 BYTE   W12
 BYTE   Bn2
 BYTE   W12
// 020   ----------------------------------------
 BYTE   N11
 BYTE   W12
 BYTE   An2
 BYTE   W12
 BYTE   N44
 BYTE   W48
 BYTE   N11
 BYTE   W12
 BYTE   Bn2
 BYTE   W12
// 021   ----------------------------------------
 BYTE   Cn3
 BYTE   W12
 BYTE   En3
 BYTE   W12
 BYTE   Bn2
 BYTE   W12
 BYTE   Cn3
 BYTE   W12
 BYTE   N23  Gn3
 BYTE   W24
 BYTE   N11  Fs3
 BYTE   W12
 BYTE   En3
 BYTE   W12
// 022   ----------------------------------------
 BYTE   Dn3
 BYTE   W12
 BYTE   Bn2
 BYTE   W12
 BYTE   N44
 BYTE   W48
 BYTE   N11
 BYTE   W12
 BYTE   Dn3
 BYTE   W12
// 023   ----------------------------------------
 BYTE   N23  An2
 BYTE   W24
 BYTE   N11  Bn2
 BYTE   W12
 BYTE   Dn3
 BYTE   W12
 BYTE   N23  An2
 BYTE   W24
 BYTE   N11  Gn2
 BYTE   W12
 BYTE   An2
 BYTE   W12
// 024   ----------------------------------------
Label_7_0131563A:
 BYTE   N44  Cs3  v064
 BYTE   W48
 BYTE   N23  Ds3
 BYTE   W24
 BYTE   N11  En3
 BYTE   W12
 BYTE   Fs3
 BYTE   W12
 BYTE   PEND 
// 025   ----------------------------------------
 BYTE   N44  Gn3
 BYTE   W48
 BYTE   En3
 BYTE   W48
 BYTE   PATT
  POIN2 Label_7_0131563A
// 026   ----------------------------------------
 BYTE   N23  En3  v064
 BYTE   W24
 BYTE   Bn2
 BYTE   W24
 BYTE   An2
 BYTE   W24
 BYTE   N11  Gn2
 BYTE   W12
 BYTE   An2
 BYTE   W12
// 027   ----------------------------------------
 BYTE   N44  Bn2
 BYTE   W48
 BYTE   N44
 BYTE   W48
// 028   ----------------------------------------
 BYTE   N92  An2
 BYTE   W96
// 029   ----------------------------------------
 BYTE   W96
// 030   ----------------------------------------
 BYTE   W12
 BYTE   N11  Gn2  v080
 BYTE   W12
 BYTE   Cn3
 BYTE   W12
 BYTE   En3
 BYTE   W12
 BYTE   N23  Dn3
 BYTE   W24
 BYTE   N11  An2
 BYTE   W12
 BYTE   Dn3
 BYTE   W12
// 031   ----------------------------------------
 BYTE   W12
 BYTE   Bn2
 BYTE   W12
 BYTE   An2
 BYTE   W12
 BYTE   Fs2
 BYTE   W12
 BYTE   N44  Gs2
 BYTE   W48
// 032   ----------------------------------------
 BYTE   W12
 BYTE   N11  En2
 BYTE   W12
 BYTE   An2
 BYTE   W12
 BYTE   Cn3
 BYTE   W12
 BYTE   N23  Bn2
 BYTE   W24
 BYTE   N11  Cs3
 BYTE   W12
 BYTE   Ds3
 BYTE   W12
// 033   ----------------------------------------
 BYTE   N23  Fs3
 BYTE   W24
 BYTE   N11  En3
 BYTE   W12
 BYTE   Fs3
 BYTE   W12
 BYTE   N44  Gn3
 BYTE   W48
// 034   ----------------------------------------
 BYTE   W12
 BYTE   N19  Cn3
 BYTE   W20
 BYTE   N07  En3
 BYTE   W08
 BYTE   Bn3
 BYTE   W08
 BYTE   N23  An3
 BYTE   W24
 BYTE   N11  Gn3
 BYTE   W12
 BYTE   An3
 BYTE   W12
// 035   ----------------------------------------
 BYTE   N23  Fs3
 BYTE   W24
 BYTE   N15  Dn3
 BYTE   W16
 BYTE   N07  Cn3
 BYTE   W08
 BYTE   N23  Bn2
 BYTE   W24
 BYTE   En3
 BYTE   W24
// 036   ----------------------------------------
 BYTE   W12
 BYTE   N11  Cn3
 BYTE   W12
 BYTE   En3
 BYTE   W12
 BYTE   Gn3
 BYTE   W12
 BYTE   N23  Fs3
 BYTE   W24
 BYTE   N11  En3
 BYTE   W12
 BYTE   Dn3
 BYTE   W12
// 037   ----------------------------------------
 BYTE   N23  Bn2  v096
 BYTE   W24
 BYTE   N11  An2
 BYTE   W12
 BYTE   Dn3
 BYTE   W12
 BYTE   N23  Bn2
 BYTE   W24
 BYTE   N11  An2
 BYTE   W12
 BYTE   Dn3
 BYTE   W12
// 038   ----------------------------------------
 BYTE   N92  Bn2
 BYTE   W96
// 039   ----------------------------------------
 BYTE   N23  En2
 BYTE   W24
 BYTE   N11  Dn2
 BYTE   W12
 BYTE   An2
 BYTE   W12
 BYTE   N23  En2
 BYTE   W24
 BYTE   N11  Dn2
 BYTE   W12
 BYTE   Bn2
 BYTE   W12
// 040   ----------------------------------------
 BYTE   N92  En2
 BYTE   W96
// 041   ----------------------------------------
 BYTE   W96
// 042   ----------------------------------------
 BYTE   W96
// 043   ----------------------------------------
 BYTE   W96
// 044   ----------------------------------------
 BYTE   W96
 BYTE   PATT
  POIN2 Label_7_01315597
 BYTE   PATT
  POIN2 Label_7_01315597
 BYTE   PATT
  POIN2 Label_7_01315597
 BYTE   PATT
  POIN2 Label_7_013155A3
// 045   ----------------------------------------
 BYTE   W96
// 046   ----------------------------------------
 BYTE   W96
// 047   ----------------------------------------
 BYTE   GoTo
  POIN2 Label_7_013155AD
 BYTE   FINE

//**************** Track 9 (Midi-Chn.8) ****************//

FE14JusticeRIPMrGreen3339_009:
// 000   ----------------------------------------
 BYTE   KEYSH   FE14JusticeRIPMrGreen3339_key+0
 BYTE   VOICE   9
 BYTE   VOL   51*FE14JusticeRIPMrGreen3339_mvl/mxv
 BYTE   PAN   c_v+41
 BYTE   VOL   51*FE14JusticeRIPMrGreen3339_mvl/mxv
 BYTE   PAN   c_v-36
 BYTE   W36
 BYTE   N05  En4  v096
 BYTE   W06
 BYTE   N05
 BYTE   W06
 BYTE   N11
 BYTE   W48
// 001   ----------------------------------------
Label_8_01315728:
 BYTE   N02  Cs2  v064
 BYTE   W02
 BYTE   N02
 BYTE   W03
 BYTE   N02
 BYTE   W03
 BYTE   N02
 BYTE   W03
 BYTE   N02
 BYTE   W03
 BYTE   N02
 BYTE   W03
 BYTE   N02
 BYTE   W03
 BYTE   N02
 BYTE   W03
 BYTE   N02
 BYTE   W03
 BYTE   N02
 BYTE   W03
 BYTE   N02
 BYTE   W03
 BYTE   N02
 BYTE   W03
 BYTE   N02
 BYTE   W01
 BYTE   N05  En4  v096
 BYTE   W02
 BYTE   N02  Cs2  v064
 BYTE   W03
 BYTE   N02
 BYTE   W01
 BYTE   N05  En4  v096
 BYTE   W02
 BYTE   N02  Cs2  v064
 BYTE   W03
 BYTE   N02
 BYTE   W01
 BYTE   N11  En4  v096
 BYTE   W02
 BYTE   N02  Cs2  v064
 BYTE   W03
 BYTE   N02
 BYTE   W03
 BYTE   N02
 BYTE   W03
 BYTE   N02
 BYTE   W03
 BYTE   N02
 BYTE   W03
 BYTE   N02
 BYTE   W03
 BYTE   N02
 BYTE   W03
 BYTE   N02
 BYTE   W03
 BYTE   N02
 BYTE   W03
 BYTE   N02
 BYTE   W03
 BYTE   N02
 BYTE   W03
 BYTE   N02
 BYTE   W03
 BYTE   N02
 BYTE   W03
 BYTE   N02
 BYTE   W03
 BYTE   N02
 BYTE   W04
 BYTE   PEND 
// 002   ----------------------------------------
Label_8_0131577D:
 BYTE   N23  Bn4  v064
 BYTE   W36
 BYTE   N05  En4  v096
 BYTE   W06
 BYTE   N05
 BYTE   W06
 BYTE   N11
 BYTE   W48
 BYTE   PEND 
// 003   ----------------------------------------
Label_8_0131578A:
 BYTE   W36
 BYTE   N05  En4  v096
 BYTE   W06
 BYTE   N05
 BYTE   W06
 BYTE   N11
 BYTE   W48
 BYTE   PEND 
// 004   ----------------------------------------
Label_8_01315794:
 BYTE   N02  Cs2  v064
 BYTE   N23  Ds4  v104
 BYTE   W02
 BYTE   N02  Cs2  v064
 BYTE   W03
 BYTE   N02
 BYTE   W03
 BYTE   N02
 BYTE   W03
 BYTE   N02
 BYTE   W03
 BYTE   N02
 BYTE   W03
 BYTE   N02
 BYTE   W03
 BYTE   N02
 BYTE   W03
 BYTE   N02
 BYTE   W01
 BYTE   N11  Ds4  v104
 BYTE   W02
 BYTE   N02  Cs2  v064
 BYTE   W03
 BYTE   N02
 BYTE   W03
 BYTE   N02
 BYTE   W03
 BYTE   N02
 BYTE   W01
 BYTE   N11  Ds4  v104
 BYTE   W02
 BYTE   N02  Cs2  v064
 BYTE   W03
 BYTE   N02
 BYTE   W03
 BYTE   N02
 BYTE   W03
 BYTE   N02
 BYTE   W03
 BYTE   N02
 BYTE   W03
 BYTE   N02
 BYTE   W03
 BYTE   N02
 BYTE   N07  Ds4  v104
 BYTE   W03
 BYTE   N02  Cs2  v064
 BYTE   W03
 BYTE   N02
 BYTE   W02
 BYTE   N07  Ds4  v104
 BYTE   W01
 BYTE   N02  Cs2  v064
 BYTE   W03
 BYTE   N02
 BYTE   W03
 BYTE   N02
 BYTE   W01
 BYTE   N11  Ds4  v104
 BYTE   W02
 BYTE   N02  Cs2  v064
 BYTE   W03
 BYTE   N02
 BYTE   W03
 BYTE   N02
 BYTE   W03
 BYTE   N02
 BYTE   W01
 BYTE   N03  Ds4  v104
 BYTE   W02
 BYTE   N02  Cs2  v064
 BYTE   W02
 BYTE   N03  Ds4  v104
 BYTE   W01
 BYTE   N02  Cs2  v064
 BYTE   W03
 BYTE   N48
 BYTE   N03  Ds4  v104
 BYTE   W04
 BYTE   PEND 
// 005   ----------------------------------------
Label_8_01315808:
 BYTE   N03  Ds4  v104
 BYTE   W04
 BYTE   N03
 BYTE   W04
 BYTE   N03
 BYTE   W04
 BYTE   N05
 BYTE   W06
 BYTE   N05
 BYTE   W06
 BYTE   N11
 BYTE   W12
 BYTE   N11
 BYTE   W60
 BYTE   PEND 
// 006   ----------------------------------------
Label_8_01315819:
 BYTE   W12
 BYTE   N05  En4  v064
 BYTE   W06
 BYTE   N05
 BYTE   W06
 BYTE   N11
 BYTE   W72
// 007   ----------------------------------------
 BYTE   W24
 BYTE   N02  Gn2  v052
 BYTE   W02
 BYTE   N02
 BYTE   W03
 BYTE   N02
 BYTE   W03
 BYTE   N02
 BYTE   W03
 BYTE   N02
 BYTE   W03
 BYTE   N02
 BYTE   W03
 BYTE   N02
 BYTE   W03
 BYTE   N02
 BYTE   W03
 BYTE   N02
 BYTE   W03
 BYTE   N02
 BYTE   W03
 BYTE   N02
 BYTE   W03
 BYTE   N02
 BYTE   W03
 BYTE   N02
 BYTE   W03
 BYTE   N02
 BYTE   W03
 BYTE   N02
 BYTE   W03
 BYTE   N02
 BYTE   W03
 BYTE   N02
 BYTE   W03
 BYTE   N02
 BYTE   W03
 BYTE   N02
 BYTE   W03
 BYTE   N02
 BYTE   W03
 BYTE   N02
 BYTE   W02
 BYTE   N02
 BYTE   W03
 BYTE   N02
 BYTE   W03
 BYTE   N02
 BYTE   W05
// 008   ----------------------------------------
 BYTE   N23  Bn4  v064
 BYTE   W12
 BYTE   N05  En4  v076
 BYTE   W06
 BYTE   En4  v072
 BYTE   W06
 BYTE   N11
 BYTE   W60
 BYTE   N05  Fn4  v060
 BYTE   W06
 BYTE   Fn4  v056
 BYTE   W06
// 009   ----------------------------------------
 BYTE   N11
 BYTE   W24
 BYTE   N02  Gn2  v052
 BYTE   W02
 BYTE   N02
 BYTE   W03
 BYTE   N02
 BYTE   W03
 BYTE   N02
 BYTE   W03
 BYTE   N02
 BYTE   W03
 BYTE   N02
 BYTE   W03
 BYTE   N02
 BYTE   W03
 BYTE   N02
 BYTE   W03
 BYTE   N02
 BYTE   W03
 BYTE   N02
 BYTE   W03
 BYTE   N02
 BYTE   W03
 BYTE   N02
 BYTE   W03
 BYTE   N02
 BYTE   W03
 BYTE   N02
 BYTE   W03
 BYTE   N02
 BYTE   W03
 BYTE   N02
 BYTE   W03
 BYTE   N02
 BYTE   W03
 BYTE   N02
 BYTE   W03
 BYTE   N02
 BYTE   W03
 BYTE   N02
 BYTE   W03
 BYTE   N02
 BYTE   W02
 BYTE   N02
 BYTE   W03
 BYTE   N02
 BYTE   W03
 BYTE   N02
 BYTE   W05
// 010   ----------------------------------------
 BYTE   N11  En4  v076
 BYTE   W36
 BYTE   N05
 BYTE   W06
 BYTE   N05
 BYTE   W06
 BYTE   N11  Ds4
 BYTE   W12
 BYTE   En4
 BYTE   W12
 BYTE   N11
 BYTE   W12
 BYTE   Ds4
 BYTE   W12
// 011   ----------------------------------------
 BYTE   N23  Bn4  v064
 BYTE   W12
 BYTE   N05  Fn4  v076
 BYTE   W06
 BYTE   N05
 BYTE   W06
 BYTE   N11
 BYTE   W12
 BYTE   N05  Ds4
 BYTE   W06
 BYTE   N05
 BYTE   W06
 BYTE   N02  Gn2  v052
 BYTE   N11  Fn4  v076
 BYTE   W02
 BYTE   N02  Gn2  v052
 BYTE   W03
 BYTE   N02
 BYTE   W03
 BYTE   N02
 BYTE   W03
 BYTE   N02
 BYTE   W03
 BYTE   N02
 BYTE   W03
 BYTE   N02
 BYTE   W03
 BYTE   N02
 BYTE   W03
 BYTE   N02
 BYTE   W03
 BYTE   N02
 BYTE   W03
 BYTE   N02
 BYTE   W03
 BYTE   N02
 BYTE   W03
 BYTE   N02
 BYTE   W03
 BYTE   N02
 BYTE   W03
 BYTE   N02
 BYTE   W03
 BYTE   N02
 BYTE   W04
// 012   ----------------------------------------
 BYTE   W12
 BYTE   N05  Fn4  v076
 BYTE   W06
 BYTE   N05
 BYTE   W06
 BYTE   N23  En4
 BYTE   W36
 BYTE   N05
 BYTE   W06
 BYTE   N05
 BYTE   W06
 BYTE   N11  Ds4
 BYTE   W12
 BYTE   N11
 BYTE   W12
// 013   ----------------------------------------
 BYTE   W96
// 014   ----------------------------------------
 BYTE   N02  Cs2  v052
 BYTE   W02
 BYTE   N02
 BYTE   W03
 BYTE   N02
 BYTE   W03
 BYTE   N02
 BYTE   W03
 BYTE   N02
 BYTE   W03
 BYTE   N02
 BYTE   W03
 BYTE   N02
 BYTE   W03
 BYTE   N02
 BYTE   W03
 BYTE   N02
 BYTE   W03
 BYTE   N02
 BYTE   W03
 BYTE   N02
 BYTE   W03
 BYTE   N02
 BYTE   W03
 BYTE   N02
 BYTE   W03
 BYTE   N02
 BYTE   W03
 BYTE   N02
 BYTE   W03
 BYTE   N02
 BYTE   W03
 BYTE   N02
 BYTE   W03
 BYTE   N02
 BYTE   W03
 BYTE   N02
 BYTE   W03
 BYTE   N02
 BYTE   W03
 BYTE   N02
 BYTE   W03
 BYTE   N02
 BYTE   W03
 BYTE   N02
 BYTE   W03
 BYTE   N02
 BYTE   W03
 BYTE   N02
 BYTE   W03
 BYTE   N02
 BYTE   W03
 BYTE   N02
 BYTE   W03
 BYTE   N02
 BYTE   W03
 BYTE   N02
 BYTE   W03
 BYTE   N02
 BYTE   W03
 BYTE   N02
 BYTE   W03
 BYTE   N02
 BYTE   W04
// 015   ----------------------------------------
 BYTE   N11  Dn1  v104
 BYTE   N11  Gn1
 BYTE   N05  Fs2  v088
 BYTE   W06
 BYTE   N05
 BYTE   W12
 BYTE   N11  Dn1  v104
 BYTE   N11  Gn1
 BYTE   W18
 BYTE   Dn1
 BYTE   N11  Gn1
 BYTE   W18
 BYTE   Dn1
 BYTE   N11  Gn1
 BYTE   W18
 BYTE   N05  Dn1
 BYTE   N11  Gn1
 BYTE   N23  Cs2  v088
 BYTE   N23  Gn2
 BYTE   W06
 BYTE   N05  Dn1  v104
 BYTE   W06
 BYTE   N01
 BYTE   N05  Gn1
 BYTE   W01
 BYTE   N01  Dn1
 BYTE   W02
 BYTE   N01
 BYTE   W01
 BYTE   N01
 BYTE   W02
 BYTE   N01
 BYTE   N05  Gn1
 BYTE   W01
 BYTE   N01  Dn1
 BYTE   W02
 BYTE   N01
 BYTE   W01
 BYTE   N01
 BYTE   W02
// 016   ----------------------------------------
 BYTE   N11
 BYTE   N11  Gn1
 BYTE   N05  Fs2  v088
 BYTE   W06
 BYTE   N05
 BYTE   W12
 BYTE   N11  Dn1  v104
 BYTE   N11  Gn1
 BYTE   W18
 BYTE   Dn1
 BYTE   N11  Gn1
 BYTE   W12
 BYTE   N01  Dn1
 BYTE   W01
 BYTE   N01
 BYTE   W02
 BYTE   N01
 BYTE   W01
 BYTE   N01
 BYTE   W02
 BYTE   N01
 BYTE   N11  Gn1
 BYTE   W01
 BYTE   N01  Dn1
 BYTE   W02
 BYTE   N01
 BYTE   W01
 BYTE   N01
 BYTE   W02
 BYTE   N05
 BYTE   W06
 BYTE   N05
 BYTE   W06
 BYTE   N03
 BYTE   N11  Gn1
 BYTE   N23  Cs2  v088
 BYTE   N23  Gn2
 BYTE   W04
 BYTE   N03  Dn1  v104
 BYTE   W04
 BYTE   Cs1
 BYTE   W04
 BYTE   N05
 BYTE   N05  Gn1
 BYTE   W06
 BYTE   Cs1
 BYTE   N05  Gn1
 BYTE   W06
// 017   ----------------------------------------
 BYTE   N11  Dn1
 BYTE   N11  Gn1
 BYTE   N05  Fs2  v088
 BYTE   W06
 BYTE   N05
 BYTE   W12
 BYTE   N11  Dn1  v104
 BYTE   N11  Gn1
 BYTE   W18
 BYTE   Dn1
 BYTE   N11  Gn1
 BYTE   W18
 BYTE   Dn1
 BYTE   N11  Gn1
 BYTE   W18
 BYTE   Dn1
 BYTE   N11  Gn1
 BYTE   N23  Cs2  v088
 BYTE   N23  Gn2
 BYTE   W12
 BYTE   N05  Dn1  v104
 BYTE   N05  Gn1
 BYTE   W06
 BYTE   Dn1
 BYTE   N05  Gn1
 BYTE   W06
// 018   ----------------------------------------
 BYTE   N11  Dn1
 BYTE   N11  Gn1
 BYTE   N05  Fs2  v088
 BYTE   W06
 BYTE   N05
 BYTE   W12
 BYTE   N11  Dn1  v104
 BYTE   N11  Gn1
 BYTE   W18
 BYTE   Dn1
 BYTE   N11  Gn1
 BYTE   W12
 BYTE   N07  Dn1
 BYTE   W06
 BYTE   N11  Gn1
 BYTE   W02
 BYTE   N07  Dn1
 BYTE   W08
 BYTE   N07
 BYTE   W08
 BYTE   N07
 BYTE   N11  Gn1
 BYTE   N23  Cs2  v088
 BYTE   N23  Gn2
 BYTE   W08
 BYTE   N07  Dn1  v104
 BYTE   W04
 BYTE   N05  Gn1
 BYTE   W04
 BYTE   N07  Dn1
 BYTE   W02
 BYTE   N05  Gn1
 BYTE   W06
// 019   ----------------------------------------
Label_8_01315A1B:
 BYTE   N11  Dn1  v096
 BYTE   N17  Gn1  v080
 BYTE   W12
 BYTE   N05  Dn1  v096
 BYTE   W06
 BYTE   N05
 BYTE   N17  Gn1  v080
 BYTE   W06
 BYTE   N11  Dn1  v096
 BYTE   W12
 BYTE   N05
 BYTE   N05  Gn1  v080
 BYTE   W06
 BYTE   Dn1  v096
 BYTE   N05  Gn1  v080
 BYTE   W06
 BYTE   Dn1  v096
 BYTE   N05  Gn1  v080
 BYTE   W06
 BYTE   N11  Dn1  v096
 BYTE   N11  Gn1  v080
 BYTE   W12
 BYTE   N05  Dn1  v096
 BYTE   N11  Gn1  v080
 BYTE   W06
 BYTE   Dn1  v096
 BYTE   N23  Fs2
 BYTE   N23  Bn4
 BYTE   W06
 BYTE   N05  Gn1  v080
 BYTE   W06
 BYTE   N11  Dn1  v096
 BYTE   N11  Gn1  v080
 BYTE   W12
 BYTE   PEND 
// 020   ----------------------------------------
Label_8_01315A61:
 BYTE   N11  Dn1  v096
 BYTE   N17  Gn1  v080
 BYTE   W12
 BYTE   N05  Dn1  v096
 BYTE   W06
 BYTE   N05
 BYTE   N17  Gn1  v080
 BYTE   W06
 BYTE   N05  Dn1  v096
 BYTE   W06
 BYTE   N05
 BYTE   W06
 BYTE   Gn1  v080
 BYTE   W06
 BYTE   N11  Dn1  v096
 BYTE   N05  Gn1  v080
 BYTE   W06
 BYTE   N05
 BYTE   W06
 BYTE   Dn1  v096
 BYTE   N11  Gn1  v080
 BYTE   W06
 BYTE   N05  Dn1  v096
 BYTE   W06
 BYTE   N02
 BYTE   N11  Gn1  v080
 BYTE   W03
 BYTE   N02  Dn1  v096
 BYTE   W03
 BYTE   N11
 BYTE   N23  Fs2
 BYTE   N23  Bn4
 BYTE   W06
 BYTE   N05  Gn1  v080
 BYTE   W06
 BYTE   N11  Dn1  v096
 BYTE   N11  Gn1  v080
 BYTE   W12
 BYTE   PEND 
 BYTE   PATT
  POIN2 Label_8_01315A1B
 BYTE   PATT
  POIN2 Label_8_01315A61
 BYTE   PATT
  POIN2 Label_8_01315A1B
 BYTE   PATT
  POIN2 Label_8_01315A61
 BYTE   PATT
  POIN2 Label_8_01315A1B
// 021   ----------------------------------------
 BYTE   N17  Gn1  v096
 BYTE   N02  Cs2  v088
 BYTE   W02
 BYTE   N02
 BYTE   W03
 BYTE   N02
 BYTE   W03
 BYTE   N02
 BYTE   W03
 BYTE   N02
 BYTE   W03
 BYTE   N02
 BYTE   W03
 BYTE   N02
 BYTE   W01
 BYTE   N17  Gn1  v096
 BYTE   W02
 BYTE   N02  Cs2  v088
 BYTE   W03
 BYTE   N02
 BYTE   W01
 BYTE   N17  Cs1
 BYTE   W02
 BYTE   N02  Cs2
 BYTE   W03
 BYTE   N02
 BYTE   W03
 BYTE   N02
 BYTE   W03
 BYTE   N02
 BYTE   W01
 BYTE   N05  Gn1  v096
 BYTE   W02
 BYTE   N02  Cs2  v088
 BYTE   W03
 BYTE   N02
 BYTE   W01
 BYTE   N05  Cs1
 BYTE   N05  Gn1  v096
 BYTE   W02
 BYTE   N02  Cs2  v088
 BYTE   W03
 BYTE   N02
 BYTE   W01
 BYTE   N05  Gn1  v096
 BYTE   W02
 BYTE   N02  Cs2  v088
 BYTE   W03
 BYTE   N02
 BYTE   W01
 BYTE   N11  Cs1
 BYTE   N11  Gn1  v096
 BYTE   W02
 BYTE   N02  Cs2  v088
 BYTE   W03
 BYTE   N02
 BYTE   W03
 BYTE   N02
 BYTE   W03
 BYTE   N02
 BYTE   W01
 BYTE   N05  Cs1
 BYTE   N11  Gn1  v096
 BYTE   W02
 BYTE   N02  Cs2  v088
 BYTE   W03
 BYTE   N02
 BYTE   W01
 BYTE   N05  Cs1
 BYTE   W02
 BYTE   N02  Cs2
 BYTE   W03
 BYTE   N02
 BYTE   W01
 BYTE   Cs1
 BYTE   N05  Gn1  v096
 BYTE   W02
 BYTE   N02  Cs2  v088
 BYTE   W01
 BYTE   Cs1
 BYTE   W02
 BYTE   Cs2
 BYTE   W01
 BYTE   N11  Cs1
 BYTE   N11  Gn1  v096
 BYTE   W02
 BYTE   N02  Cs2  v088
 BYTE   W03
 BYTE   N02
 BYTE   W03
 BYTE   N02
 BYTE   W04
// 022   ----------------------------------------
 BYTE   N17  Gn1  v096
 BYTE   N23  Bn4  v088
 BYTE   W18
 BYTE   N17  Gn1  v096
 BYTE   W06
 BYTE   Cs1  v088
 BYTE   W12
 BYTE   N05  Gn1  v096
 BYTE   W06
 BYTE   Cs1  v088
 BYTE   N05  Gn1  v096
 BYTE   W06
 BYTE   N05
 BYTE   W06
 BYTE   N11  Cs1  v088
 BYTE   N11  Gn1  v096
 BYTE   W12
 BYTE   N05  Cs1  v088
 BYTE   N11  Gn1  v096
 BYTE   W06
 BYTE   N05  Cs1  v088
 BYTE   W06
 BYTE   N02
 BYTE   N05  Gn1  v096
 BYTE   W03
 BYTE   N02  Cs1  v088
 BYTE   W03
 BYTE   N11
 BYTE   N11  Gn1  v096
 BYTE   W12
// 023   ----------------------------------------
Label_8_01315B83:
 BYTE   N17  Gn1  v096
 BYTE   W18
 BYTE   N17
 BYTE   W06
 BYTE   Cs1  v088
 BYTE   W12
 BYTE   N05  Gn1  v096
 BYTE   W06
 BYTE   Cs1  v088
 BYTE   N05  Gn1  v096
 BYTE   W06
 BYTE   N05
 BYTE   W06
 BYTE   N11  Cs1  v088
 BYTE   N11  Gn1  v096
 BYTE   W12
 BYTE   N05  Cs1  v088
 BYTE   N11  Gn1  v096
 BYTE   W06
 BYTE   N05  Cs1  v088
 BYTE   W06
 BYTE   N02
 BYTE   N05  Gn1  v096
 BYTE   W03
 BYTE   N02  Cs1  v088
 BYTE   W03
 BYTE   N11
 BYTE   N11  Gn1  v096
 BYTE   W12
 BYTE   PEND 
 BYTE   PATT
  POIN2 Label_8_01315B83
 BYTE   PATT
  POIN2 Label_8_01315B83
// 024   ----------------------------------------
 BYTE   N05  Fn1  v112
 BYTE   N05  Gn1
 BYTE   W06
 BYTE   N05
 BYTE   W06
 BYTE   N05
 BYTE   W06
 BYTE   Fn1
 BYTE   N05  Gn1
 BYTE   W06
 BYTE   N17  Cs1  v088
 BYTE   N05  Gn1  v112
 BYTE   W06
 BYTE   N05
 BYTE   W06
 BYTE   Fn1
 BYTE   N05  Gn1
 BYTE   W06
 BYTE   Cs1  v088
 BYTE   N05  Gn1  v112
 BYTE   W06
 BYTE   N05
 BYTE   W06
 BYTE   N11  Cs1  v088
 BYTE   N05  Fn1  v112
 BYTE   N05  Gn1
 BYTE   W06
 BYTE   N05
 BYTE   W06
 BYTE   Cs1  v088
 BYTE   N05  Gn1  v112
 BYTE   W06
 BYTE   Cs1  v088
 BYTE   N05  Fn1  v112
 BYTE   N05  Gn1
 BYTE   W06
 BYTE   N02  Cs1  v088
 BYTE   N05  Gn1  v112
 BYTE   W03
 BYTE   N02  Cs1  v088
 BYTE   W03
 BYTE   N11
 BYTE   N05  Gn1  v112
 BYTE   W06
 BYTE   N05
 BYTE   W06
// 025   ----------------------------------------
 BYTE   Fn1
 BYTE   N05  Gn1
 BYTE   N02  Cs2  v088
 BYTE   W02
 BYTE   N02
 BYTE   W03
 BYTE   N02
 BYTE   W01
 BYTE   N05  Gn1  v112
 BYTE   W02
 BYTE   N02  Cs2  v088
 BYTE   W03
 BYTE   N02
 BYTE   W03
 BYTE   N02
 BYTE   W03
 BYTE   N02
 BYTE   W01
 BYTE   N05  Gn1  v112
 BYTE   W02
 BYTE   N02  Cs2  v088
 BYTE   W03
 BYTE   N02
 BYTE   W01
 BYTE   N05  Gn1  v112
 BYTE   W02
 BYTE   N02  Cs2  v088
 BYTE   W03
 BYTE   N02
 BYTE   W03
 BYTE   N02
 BYTE   W03
 BYTE   N02
 BYTE   W01
 BYTE   N05  Gn1  v112
 BYTE   W02
 BYTE   N02  Cs2  v088
 BYTE   W03
 BYTE   N02
 BYTE   W01
 BYTE   N05  Gn1  v112
 BYTE   W02
 BYTE   N02  Cs2  v088
 BYTE   W03
 BYTE   N02
 BYTE   W01
 BYTE   N05  Ds4  v112
 BYTE   W02
 BYTE   N02  Cs2  v088
 BYTE   W03
 BYTE   N02
 BYTE   W01
 BYTE   N05  Gn1  v112
 BYTE   N05  Ds4
 BYTE   W02
 BYTE   N02  Cs2  v088
 BYTE   W03
 BYTE   N02
 BYTE   W01
 BYTE   N05  Gn1  v112
 BYTE   N05  En4
 BYTE   W02
 BYTE   N02  Cs2  v088
 BYTE   W03
 BYTE   N02
 BYTE   W01
 BYTE   N05  En4  v112
 BYTE   W02
 BYTE   N02  Cs2  v088
 BYTE   W03
 BYTE   N02
 BYTE   W01
 BYTE   N11  Gn1  v112
 BYTE   N05  Fn4
 BYTE   W02
 BYTE   N02  Cs2  v088
 BYTE   W03
 BYTE   N02
 BYTE   W01
 BYTE   N05  Fn4  v112
 BYTE   W02
 BYTE   N02  Cs2  v088
 BYTE   W03
 BYTE   N02
 BYTE   W01
 BYTE   N11  Gn1  v112
 BYTE   N05  En4
 BYTE   W02
 BYTE   N02  Cs2  v088
 BYTE   W03
 BYTE   N02
 BYTE   W01
 BYTE   N05  Fn4  v112
 BYTE   W02
 BYTE   N02  Cs2  v088
 BYTE   W04
// 026   ----------------------------------------
 BYTE   N17  Bn0  v112
 BYTE   N11  Dn1
 BYTE   N17  Gn1
 BYTE   N05  Ds4
 BYTE   N23  Bn4
 BYTE   W06
 BYTE   N05  Ds4
 BYTE   W06
 BYTE   Dn1
 BYTE   N05  En4
 BYTE   W06
 BYTE   N17  Bn0
 BYTE   N05  Dn1
 BYTE   N17  Gn1
 BYTE   N05  En4
 BYTE   W06
 BYTE   N11  Dn1
 BYTE   N05  Fn4
 BYTE   W06
 BYTE   N05
 BYTE   W06
 BYTE   Bn0
 BYTE   N05  Dn1
 BYTE   N05  Gn1
 BYTE   N05  En4
 BYTE   W06
 BYTE   Bn0
 BYTE   N05  Dn1
 BYTE   N05  Gn1
 BYTE   N05  En4
 BYTE   W06
 BYTE   Bn0
 BYTE   N05  Dn1
 BYTE   N05  Gn1
 BYTE   N05  Fn4
 BYTE   W06
 BYTE   N11  Bn0
 BYTE   N11  Dn1
 BYTE   N11  Gn1
 BYTE   N05  Fn4
 BYTE   W06
 BYTE   En4
 BYTE   W06
 BYTE   N11  Bn0
 BYTE   N05  Dn1
 BYTE   N11  Gn1
 BYTE   N05  En4
 BYTE   W06
 BYTE   N11  Dn1
 BYTE   N23  Fs2
 BYTE   N05  Fn4
 BYTE   N23  Bn4
 BYTE   W06
 BYTE   N05  Bn0
 BYTE   N05  Gn1
 BYTE   N05  Fn4
 BYTE   W06
 BYTE   N11  Bn0
 BYTE   N05  Dn1
 BYTE   N11  Gn1
 BYTE   N05  En4
 BYTE   W06
 BYTE   Dn1
 BYTE   N05  En4
 BYTE   W06
// 027   ----------------------------------------
 BYTE   N17  Bn0
 BYTE   N11  Dn1
 BYTE   N17  Gn1
 BYTE   N05  Ds4
 BYTE   W06
 BYTE   N05
 BYTE   W06
 BYTE   Dn1
 BYTE   N05  En4
 BYTE   W06
 BYTE   N17  Bn0
 BYTE   N05  Dn1
 BYTE   N17  Gn1
 BYTE   N05  En4
 BYTE   W06
 BYTE   Dn1
 BYTE   N05  Fn4
 BYTE   W06
 BYTE   Dn1
 BYTE   N05  Fn4
 BYTE   W06
 BYTE   Bn0
 BYTE   N05  Gn1
 BYTE   N05  En4
 BYTE   W06
 BYTE   Bn0
 BYTE   N11  Dn1
 BYTE   N05  Gn1
 BYTE   N05  En4
 BYTE   W06
 BYTE   Bn0
 BYTE   N05  Gn1
 BYTE   N05  Fn4
 BYTE   W06
 BYTE   N11  Bn0
 BYTE   N05  Dn1
 BYTE   N11  Gn1
 BYTE   N05  Fn4
 BYTE   W06
 BYTE   Dn1
 BYTE   N05  En4
 BYTE   W06
 BYTE   N11  Bn0
 BYTE   N02  Dn1
 BYTE   N11  Gn1
 BYTE   N05  En4
 BYTE   W03
 BYTE   N02  Dn1
 BYTE   W03
 BYTE   N11
 BYTE   N23  Fs2
 BYTE   N05  Ds4
 BYTE   N23  Bn4
 BYTE   W06
 BYTE   N05  Bn0
 BYTE   N05  Gn1
 BYTE   N05  Ds4
 BYTE   W06
 BYTE   N11  Bn0
 BYTE   N05  Dn1
 BYTE   N11  Gn1
 BYTE   N05  En4
 BYTE   W06
 BYTE   Dn1
 BYTE   N05  En4
 BYTE   W06
// 028   ----------------------------------------
 BYTE   N17  Bn0
 BYTE   N11  Dn1
 BYTE   N17  Gn1
 BYTE   N05  Ds4
 BYTE   W06
 BYTE   N05
 BYTE   W06
 BYTE   Dn1
 BYTE   N05  En4
 BYTE   W06
 BYTE   N17  Bn0
 BYTE   N05  Dn1
 BYTE   N17  Gn1
 BYTE   N05  En4
 BYTE   W06
 BYTE   N11  Dn1
 BYTE   N05  Fn4
 BYTE   W06
 BYTE   N05
 BYTE   W06
 BYTE   Bn0
 BYTE   N05  Dn1
 BYTE   N05  Gn1
 BYTE   N05  En4
 BYTE   W06
 BYTE   Bn0
 BYTE   N05  Dn1
 BYTE   N05  Gn1
 BYTE   N05  En4
 BYTE   W06
 BYTE   Bn0
 BYTE   N05  Dn1
 BYTE   N05  Gn1
 BYTE   N05  Fn4
 BYTE   W06
 BYTE   N11  Bn0
 BYTE   N11  Dn1
 BYTE   N11  Gn1
 BYTE   N05  En4
 BYTE   W06
 BYTE   Ds4
 BYTE   W06
 BYTE   N11  Bn0
 BYTE   N05  Dn1
 BYTE   N11  Gn1
 BYTE   N05  En4
 BYTE   W06
 BYTE   N11  Dn1
 BYTE   N23  Fs2
 BYTE   N05  Fn4
 BYTE   N23  Bn4
 BYTE   W06
 BYTE   N05  Bn0
 BYTE   N05  Gn1
 BYTE   N05  Fn4
 BYTE   W06
 BYTE   N11  Bn0
 BYTE   N05  Dn1
 BYTE   N11  Gn1
 BYTE   N05  Ds4
 BYTE   W06
 BYTE   Dn1
 BYTE   N05  En4
 BYTE   W06
// 029   ----------------------------------------
 BYTE   N17  Bn0
 BYTE   N11  Dn1
 BYTE   N17  Gn1
 BYTE   N05  Ds4
 BYTE   W06
 BYTE   N05
 BYTE   W06
 BYTE   Dn1
 BYTE   N05  En4
 BYTE   W06
 BYTE   N17  Bn0
 BYTE   N05  Dn1
 BYTE   N17  Gn1
 BYTE   N05  En4
 BYTE   W06
 BYTE   Dn1
 BYTE   N05  Fn4
 BYTE   W06
 BYTE   Dn1
 BYTE   N05  Fn4
 BYTE   W06
 BYTE   Bn0
 BYTE   N05  Gn1
 BYTE   N05  En4
 BYTE   W06
 BYTE   Bn0
 BYTE   N11  Dn1
 BYTE   N05  Gn1
 BYTE   N05  En4
 BYTE   W06
 BYTE   Bn0
 BYTE   N05  Gn1
 BYTE   N05  Fn4
 BYTE   W06
 BYTE   N11  Bn0
 BYTE   N05  Dn1
 BYTE   N11  Gn1
 BYTE   N05  Fn4
 BYTE   W06
 BYTE   Dn1
 BYTE   N05  En4
 BYTE   W06
 BYTE   N11  Bn0
 BYTE   N02  Dn1
 BYTE   N11  Gn1
 BYTE   N05  En4
 BYTE   W03
 BYTE   N02  Dn1
 BYTE   W03
 BYTE   N11
 BYTE   N23  Fs2
 BYTE   N05  Ds4
 BYTE   N23  Bn4
 BYTE   W06
 BYTE   N05  Bn0
 BYTE   N05  Gn1
 BYTE   N05  Ds4
 BYTE   W06
 BYTE   N11  Bn0
 BYTE   N05  Dn1
 BYTE   N11  Gn1
 BYTE   N05  Fn4
 BYTE   W06
 BYTE   Dn1
 BYTE   N05  Fn4
 BYTE   W06
// 030   ----------------------------------------
 BYTE   N17  Bn0
 BYTE   N11  Dn1
 BYTE   N17  Gn1
 BYTE   N05  Ds4
 BYTE   W06
 BYTE   N05
 BYTE   W06
 BYTE   Dn1
 BYTE   N05  En4
 BYTE   W06
 BYTE   N17  Bn0
 BYTE   N05  Dn1
 BYTE   N17  Gn1
 BYTE   N05  En4
 BYTE   W06
 BYTE   N11  Dn1
 BYTE   N05  Fn4
 BYTE   W06
 BYTE   N05
 BYTE   W06
 BYTE   Bn0
 BYTE   N05  Dn1
 BYTE   N05  Gn1
 BYTE   N05  En4
 BYTE   W06
 BYTE   Bn0
 BYTE   N05  Dn1
 BYTE   N05  Gn1
 BYTE   N05  En4
 BYTE   W06
 BYTE   Bn0
 BYTE   N05  Dn1
 BYTE   N05  Gn1
 BYTE   N05  Fn4
 BYTE   W06
 BYTE   N11  Bn0
 BYTE   N11  Dn1
 BYTE   N11  Gn1
 BYTE   N05  Fn4
 BYTE   W06
 BYTE   En4
 BYTE   W06
 BYTE   N11  Bn0
 BYTE   N05  Dn1
 BYTE   N11  Gn1
 BYTE   N05  En4
 BYTE   W06
 BYTE   N11  Dn1
 BYTE   N23  Fs2
 BYTE   N05  En4
 BYTE   N23  Bn4
 BYTE   W06
 BYTE   N05  Bn0
 BYTE   N05  Gn1
 BYTE   N05  En4
 BYTE   W06
 BYTE   N11  Bn0
 BYTE   N05  Dn1
 BYTE   N11  Gn1
 BYTE   N05  Ds4
 BYTE   W06
 BYTE   Dn1
 BYTE   N05  Ds4
 BYTE   W06
// 031   ----------------------------------------
 BYTE   N17  Bn0
 BYTE   N11  Dn1
 BYTE   N17  Gn1
 BYTE   N05  Fn4
 BYTE   W06
 BYTE   N05
 BYTE   W06
 BYTE   Dn1
 BYTE   N05  En4
 BYTE   W06
 BYTE   N17  Bn0
 BYTE   N05  Dn1
 BYTE   N17  Gn1
 BYTE   N05  En4
 BYTE   W06
 BYTE   Dn1
 BYTE   N05  Ds4
 BYTE   W06
 BYTE   Dn1
 BYTE   N05  Ds4
 BYTE   W06
 BYTE   Bn0
 BYTE   N05  Gn1
 BYTE   N05  En4
 BYTE   W06
 BYTE   Bn0
 BYTE   N11  Dn1
 BYTE   N05  Gn1
 BYTE   N05  En4
 BYTE   W06
 BYTE   Bn0
 BYTE   N05  Gn1
 BYTE   N05  Ds4
 BYTE   W06
 BYTE   N11  Bn0
 BYTE   N05  Dn1
 BYTE   N11  Gn1
 BYTE   N05  Ds4
 BYTE   W06
 BYTE   Dn1
 BYTE   N05  En4
 BYTE   W06
 BYTE   N11  Bn0
 BYTE   N02  Dn1
 BYTE   N11  Gn1
 BYTE   N05  En4
 BYTE   W03
 BYTE   N02  Dn1
 BYTE   W03
 BYTE   N11
 BYTE   N23  Fs2
 BYTE   N05  Fn4
 BYTE   N23  Bn4
 BYTE   W06
 BYTE   N05  Bn0
 BYTE   N05  Gn1
 BYTE   N05  Fn4
 BYTE   W06
 BYTE   N11  Bn0
 BYTE   N05  Dn1
 BYTE   N11  Gn1
 BYTE   N05  En4
 BYTE   W06
 BYTE   Dn1
 BYTE   N05  En4
 BYTE   W06
// 032   ----------------------------------------
 BYTE   N17  Bn0
 BYTE   N11  Dn1
 BYTE   N17  Gn1
 BYTE   N05  Ds4
 BYTE   W06
 BYTE   N05
 BYTE   W06
 BYTE   Dn1
 BYTE   N05  En4
 BYTE   W06
 BYTE   N17  Bn0
 BYTE   N05  Dn1
 BYTE   N17  Gn1
 BYTE   N05  En4
 BYTE   W06
 BYTE   Dn1
 BYTE   N05  Fn4
 BYTE   W06
 BYTE   Dn1
 BYTE   N05  Fn4
 BYTE   W06
 BYTE   Bn0
 BYTE   N05  Gn1
 BYTE   N05  En4
 BYTE   W06
 BYTE   Bn0
 BYTE   N11  Dn1
 BYTE   N05  Gn1
 BYTE   N05  En4
 BYTE   W06
 BYTE   Bn0
 BYTE   N05  Gn1
 BYTE   N05  Ds4
 BYTE   W06
 BYTE   N11  Bn0
 BYTE   N05  Dn1
 BYTE   N11  Gn1
 BYTE   N05  Ds4
 BYTE   W06
 BYTE   Dn1
 BYTE   N05  En4
 BYTE   W06
 BYTE   N11  Bn0
 BYTE   N02  Dn1
 BYTE   N11  Gn1
 BYTE   N05  En4
 BYTE   W03
 BYTE   N02  Dn1
 BYTE   W03
 BYTE   N11
 BYTE   N23  Fs2
 BYTE   N05  Fn4
 BYTE   N23  Bn4
 BYTE   W06
 BYTE   N05  Bn0
 BYTE   N05  Gn1
 BYTE   N05  Fn4
 BYTE   W06
 BYTE   N11  Bn0
 BYTE   N05  Dn1
 BYTE   N11  Gn1
 BYTE   N05  En4
 BYTE   W06
 BYTE   Dn1
 BYTE   N05  En4
 BYTE   W06
// 033   ----------------------------------------
Label_8_01315F8C:
 BYTE   N11  Dn1  v112
 BYTE   N17  Gn1
 BYTE   W12
 BYTE   N05  Dn1
 BYTE   W06
 BYTE   N05
 BYTE   N17  Gn1
 BYTE   W06
 BYTE   N11  Dn1
 BYTE   W12
 BYTE   N05
 BYTE   N05  Gn1
 BYTE   W06
 BYTE   Dn1
 BYTE   N05  Gn1
 BYTE   W06
 BYTE   Dn1
 BYTE   N05  Gn1
 BYTE   W06
 BYTE   N11  Dn1
 BYTE   N11  Gn1
 BYTE   W12
 BYTE   N05  Dn1
 BYTE   N11  Gn1
 BYTE   W06
 BYTE   Dn1
 BYTE   N23  Fs2
 BYTE   N23  Bn4
 BYTE   W06
 BYTE   N05  Gn1
 BYTE   W06
 BYTE   N11  Dn1
 BYTE   N11  Gn1
 BYTE   W12
 BYTE   PEND 
// 034   ----------------------------------------
Label_8_01315FC1:
 BYTE   N11  Dn1  v112
 BYTE   N17  Gn1
 BYTE   W12
 BYTE   N05  Dn1
 BYTE   W06
 BYTE   N05
 BYTE   N17  Gn1
 BYTE   W06
 BYTE   N05  Dn1
 BYTE   W06
 BYTE   N05
 BYTE   W06
 BYTE   Gn1
 BYTE   W06
 BYTE   N11  Dn1
 BYTE   N05  Gn1
 BYTE   W06
 BYTE   N05
 BYTE   W06
 BYTE   Dn1
 BYTE   N11  Gn1
 BYTE   W06
 BYTE   N05  Dn1
 BYTE   W06
 BYTE   N02
 BYTE   N11  Gn1
 BYTE   W03
 BYTE   N02  Dn1
 BYTE   W03
 BYTE   N11
 BYTE   N23  Fs2
 BYTE   N23  Bn4
 BYTE   W06
 BYTE   N05  Gn1
 BYTE   W06
 BYTE   N11  Dn1
 BYTE   N11  Gn1
 BYTE   W12
 BYTE   PEND 
 BYTE   PATT
  POIN2 Label_8_01315F8C
 BYTE   PATT
  POIN2 Label_8_01315FC1
// 035   ----------------------------------------
Label_8_01316003:
 BYTE   W24
 BYTE   N17  Cs1  v112
 BYTE   W18
 BYTE   N05
 BYTE   W12
 BYTE   N11
 BYTE   W12
 BYTE   N05
 BYTE   W06
 BYTE   N05
 BYTE   W06
 BYTE   N02
 BYTE   W03
 BYTE   N02
 BYTE   W03
 BYTE   N11
 BYTE   W12
 BYTE   PEND 
 BYTE   PATT
  POIN2 Label_8_01316003
 BYTE   PATT
  POIN2 Label_8_01316003
// 036   ----------------------------------------
 BYTE   W24
 BYTE   N17  Cs1  v112
 BYTE   W18
 BYTE   N05
 BYTE   W12
 BYTE   N11
 BYTE   W12
 BYTE   N05
 BYTE   W06
 BYTE   N05
 BYTE   W06
 BYTE   N02
 BYTE   W03
 BYTE   N02
 BYTE   W03
 BYTE   N05
 BYTE   W06
 BYTE   N05
 BYTE   W06
 BYTE   PATT
  POIN2 Label_8_0131578A
 BYTE   PATT
  POIN2 Label_8_01315728
 BYTE   PATT
  POIN2 Label_8_0131577D
 BYTE   PATT
  POIN2 Label_8_0131578A
 BYTE   PATT
  POIN2 Label_8_01315794
 BYTE   PATT
  POIN2 Label_8_01315808
// 037   ----------------------------------------
 BYTE   GoTo
  POIN2 Label_8_01315819
 BYTE   FINE

//**************** Track 10 (Midi-Chn.9) ****************//

FE14JusticeRIPMrGreen3339_010:
// 000   ----------------------------------------
 BYTE   KEYSH   FE14JusticeRIPMrGreen3339_key+0
 BYTE   VOICE   8
 BYTE   VOL   51*FE14JusticeRIPMrGreen3339_mvl/mxv
 BYTE   PAN   c_v+19
 BYTE   N44  En2  v064
 BYTE   W48
 BYTE   Fn2
 BYTE   W48
// 001   ----------------------------------------
Label_9_01316068:
 BYTE   N44  En2  v064
 BYTE   W48
 BYTE   Fn2
 BYTE   W48
 BYTE   PEND 
 BYTE   PATT
  POIN2 Label_9_01316068
 BYTE   PATT
  POIN2 Label_9_01316068
// 002   ----------------------------------------
 BYTE   W96
// 003   ----------------------------------------
 BYTE   W96
// 004   ----------------------------------------
Label_9_0131607B:
 BYTE   W96
// 005   ----------------------------------------
 BYTE   W96
// 006   ----------------------------------------
 BYTE   W96
// 007   ----------------------------------------
 BYTE   W96
// 008   ----------------------------------------
 BYTE   W96
// 009   ----------------------------------------
 BYTE   W96
// 010   ----------------------------------------
 BYTE   W96
// 011   ----------------------------------------
 BYTE   N68  Bn2  v052
 BYTE   W72
 BYTE   N11
 BYTE   W12
 BYTE   An2
 BYTE   W12
// 012   ----------------------------------------
 BYTE   N44  Gn2  v056
 BYTE   W48
 BYTE   Fs2  v072
 BYTE   W48
// 013   ----------------------------------------
 BYTE   N92  En2  v088
 BYTE   W96
// 014   ----------------------------------------
 BYTE   N92
 BYTE   W96
// 015   ----------------------------------------
 BYTE   N92
 BYTE   W96
// 016   ----------------------------------------
 BYTE   N92
 BYTE   W96
// 017   ----------------------------------------
 BYTE   N11  Gn2
 BYTE   W12
 BYTE   Bn2
 BYTE   W12
 BYTE   N32  Fs2
 BYTE   W36
 BYTE   N11
 BYTE   W12
 BYTE   N11
 BYTE   W12
 BYTE   Gn2
 BYTE   W12
// 018   ----------------------------------------
 BYTE   Fs2
 BYTE   W12
 BYTE   En2
 BYTE   W12
 BYTE   N44
 BYTE   W48
 BYTE   N11
 BYTE   W12
 BYTE   Fs2
 BYTE   W12
// 019   ----------------------------------------
 BYTE   Gn2
 BYTE   W12
 BYTE   Bn2
 BYTE   W12
 BYTE   Fs2
 BYTE   W12
 BYTE   Gn2
 BYTE   W12
 BYTE   N23  Dn3
 BYTE   W24
 BYTE   N11  Cn3
 BYTE   W12
 BYTE   Bn2
 BYTE   W12
// 020   ----------------------------------------
 BYTE   N11
 BYTE   W12
 BYTE   An2
 BYTE   W12
 BYTE   N44
 BYTE   W48
 BYTE   N11
 BYTE   W12
 BYTE   Bn2
 BYTE   W12
// 021   ----------------------------------------
 BYTE   Cn3
 BYTE   W12
 BYTE   En3
 BYTE   W12
 BYTE   Bn2
 BYTE   W12
 BYTE   Cn3
 BYTE   W12
 BYTE   N23  Gn3
 BYTE   W24
 BYTE   N11  Fs3
 BYTE   W12
 BYTE   En3
 BYTE   W12
// 022   ----------------------------------------
 BYTE   Dn3
 BYTE   W12
 BYTE   Bn2
 BYTE   W12
 BYTE   N44
 BYTE   W48
 BYTE   N11
 BYTE   W12
 BYTE   Dn3
 BYTE   W12
// 023   ----------------------------------------
 BYTE   N23  An2
 BYTE   W24
 BYTE   N11  Bn2
 BYTE   W12
 BYTE   Dn3
 BYTE   W12
 BYTE   N23  An2
 BYTE   W24
 BYTE   N11  Dn2
 BYTE   N11  Gn2
 BYTE   W12
 BYTE   Fs2
 BYTE   N11  An2
 BYTE   W12
// 024   ----------------------------------------
 BYTE   N44  En2  v064
 BYTE   W48
 BYTE   An2
 BYTE   W48
// 025   ----------------------------------------
Label_9_01316101:
 BYTE   N44  Gn2  v064
 BYTE   W48
 BYTE   En2
 BYTE   W48
 BYTE   PEND 
// 026   ----------------------------------------
 BYTE   N44
 BYTE   W48
 BYTE   Fs2
 BYTE   W48
// 027   ----------------------------------------
 BYTE   N23  En2
 BYTE   W24
 BYTE   N11  Gn2
 BYTE   W12
 BYTE   Fs2
 BYTE   W12
 BYTE   N23  En2
 BYTE   W24
 BYTE   N11  Gn2
 BYTE   W12
 BYTE   An2
 BYTE   W12
 BYTE   PATT
  POIN2 Label_9_01316101
// 028   ----------------------------------------
 BYTE   N92  Fs2  v064
 BYTE   W96
// 029   ----------------------------------------
 BYTE   W96
// 030   ----------------------------------------
Label_9_01316126:
 BYTE   N17  Cn2  v080
 BYTE   W18
 BYTE   N17
 BYTE   W18
 BYTE   N11
 BYTE   W12
 BYTE   N17  Dn2
 BYTE   W18
 BYTE   N17
 BYTE   W18
 BYTE   N11
 BYTE   W12
 BYTE   PEND 
// 031   ----------------------------------------
 BYTE   N17  Bn1
 BYTE   W18
 BYTE   N17
 BYTE   W18
 BYTE   N11
 BYTE   W12
 BYTE   N05  En2
 BYTE   W06
 BYTE   N11
 BYTE   W12
 BYTE   N05
 BYTE   W06
 BYTE   Dn2
 BYTE   W06
 BYTE   N17
 BYTE   W18
// 032   ----------------------------------------
 BYTE   Cn2
 BYTE   W18
 BYTE   N17
 BYTE   W18
 BYTE   N11
 BYTE   W12
 BYTE   N17  Bn1
 BYTE   W18
 BYTE   N17
 BYTE   W18
 BYTE   N11
 BYTE   W12
// 033   ----------------------------------------
 BYTE   N17  En2
 BYTE   W18
 BYTE   N17
 BYTE   W18
 BYTE   N11
 BYTE   W12
 BYTE   N05  Dn2
 BYTE   W06
 BYTE   N11
 BYTE   W12
 BYTE   N28
 BYTE   W30
 BYTE   PATT
  POIN2 Label_9_01316126
// 034   ----------------------------------------
 BYTE   N17  Bn1  v080
 BYTE   W18
 BYTE   N17
 BYTE   W18
 BYTE   N11
 BYTE   W12
 BYTE   N17  En2
 BYTE   W18
 BYTE   N17
 BYTE   W18
 BYTE   N11
 BYTE   W12
 BYTE   PATT
  POIN2 Label_9_01316126
// 035   ----------------------------------------
Label_9_0131617C:
 BYTE   N32  En2  v096
 BYTE   W36
 BYTE   N03
 BYTE   W04
 BYTE   N03
 BYTE   W04
 BYTE   N03
 BYTE   W04
 BYTE   N11
 BYTE   W12
 BYTE   N23
 BYTE   W24
 BYTE   N11
 BYTE   W12
 BYTE   PEND 
// 036   ----------------------------------------
Label_9_0131618D:
 BYTE   N32  Fn2  v096
 BYTE   W36
 BYTE   N03
 BYTE   W04
 BYTE   N03
 BYTE   W04
 BYTE   N03
 BYTE   W04
 BYTE   N11
 BYTE   W12
 BYTE   N23
 BYTE   W24
 BYTE   N11
 BYTE   W12
 BYTE   PEND 
 BYTE   PATT
  POIN2 Label_9_0131617C
 BYTE   PATT
  POIN2 Label_9_0131618D
// 037   ----------------------------------------
 BYTE   N23  Bn1  v064
 BYTE   W24
 BYTE   N11  An1
 BYTE   W12
 BYTE   Dn2
 BYTE   W12
 BYTE   N23  Bn1
 BYTE   W24
 BYTE   N11  Gn1
 BYTE   W12
 BYTE   An1
 BYTE   W12
// 038   ----------------------------------------
 BYTE   Bn1
 BYTE   W12
 BYTE   Dn2
 BYTE   W12
 BYTE   En2
 BYTE   W12
 BYTE   Gn2
 BYTE   W12
 BYTE   N44  Fs2
 BYTE   W48
// 039   ----------------------------------------
 BYTE   N92  An2
 BYTE   W96
// 040   ----------------------------------------
 BYTE   Bn2
 BYTE   W96
 BYTE   PATT
  POIN2 Label_9_01316068
 BYTE   PATT
  POIN2 Label_9_01316068
 BYTE   PATT
  POIN2 Label_9_01316068
 BYTE   PATT
  POIN2 Label_9_01316068
// 041   ----------------------------------------
 BYTE   W96
// 042   ----------------------------------------
 BYTE   W96
// 043   ----------------------------------------
 BYTE   GoTo
  POIN2 Label_9_0131607B
 BYTE   FINE

//**************** Track 11 (Midi-Chn.10) ****************//

FE14JusticeRIPMrGreen3339_011:
// 000   ----------------------------------------
 BYTE   KEYSH   FE14JusticeRIPMrGreen3339_key+0
 BYTE   VOICE   10
 BYTE   VOL   51*FE14JusticeRIPMrGreen3339_mvl/mxv
 BYTE   PAN   c_v+41
 BYTE   N92  En1  v076
 BYTE   W96
// 001   ----------------------------------------
 BYTE   N92
 BYTE   W96
// 002   ----------------------------------------
 BYTE   N92
 BYTE   W96
// 003   ----------------------------------------
 BYTE   N92
 BYTE   W96
// 004   ----------------------------------------
 BYTE   W96
// 005   ----------------------------------------
 BYTE   W96
// 006   ----------------------------------------
Label_10_013161F9:
 BYTE   N23  En1  v052
 BYTE   W36
 BYTE   N05
 BYTE   W06
 BYTE   Fs1
 BYTE   W06
 BYTE   N11  Gn1
 BYTE   W12
 BYTE   N32
 BYTE   W36
 BYTE   PEND 
// 007   ----------------------------------------
 BYTE   N23  Cn2
 BYTE   W36
 BYTE   N05
 BYTE   W06
 BYTE   Bn1
 BYTE   W06
 BYTE   N11  An1
 BYTE   W12
 BYTE   N32
 BYTE   W36
 BYTE   PATT
  POIN2 Label_10_013161F9
// 008   ----------------------------------------
 BYTE   N23  Dn2  v052
 BYTE   W36
 BYTE   N05
 BYTE   W06
 BYTE   Cn2
 BYTE   W06
 BYTE   N11  Bn1
 BYTE   W12
 BYTE   N32
 BYTE   W36
// 009   ----------------------------------------
 BYTE   N23  An1
 BYTE   W36
 BYTE   N05
 BYTE   W06
 BYTE   Bn1
 BYTE   W06
 BYTE   N11  Cn2
 BYTE   W12
 BYTE   N32
 BYTE   W36
// 010   ----------------------------------------
 BYTE   N23  Bn1
 BYTE   W36
 BYTE   N05
 BYTE   W06
 BYTE   An1
 BYTE   W06
 BYTE   N11  Gs1
 BYTE   W12
 BYTE   N23
 BYTE   W24
 BYTE   N11
 BYTE   W12
// 011   ----------------------------------------
 BYTE   N23  An1
 BYTE   W36
 BYTE   N05
 BYTE   W06
 BYTE   As1
 BYTE   W06
 BYTE   N11  Bn1
 BYTE   W12
 BYTE   N32
 BYTE   W36
// 012   ----------------------------------------
 BYTE   N23
 BYTE   W24
 BYTE   N11  An1
 BYTE   W12
 BYTE   Dn2
 BYTE   W12
 BYTE   N23  Bn1
 BYTE   W24
 BYTE   N11  An1
 BYTE   W12
 BYTE   Dn2
 BYTE   W12
// 013   ----------------------------------------
 BYTE   N23  Bn1
 BYTE   W24
 BYTE   N11  An1  v060
 BYTE   W12
 BYTE   Gn1  v064
 BYTE   W12
 BYTE   N23  Fs1  v068
 BYTE   W24
 BYTE   En1  v080
 BYTE   W24
// 014   ----------------------------------------
 BYTE   N92  En1  v088
 BYTE   W96
// 015   ----------------------------------------
 BYTE   N92
 BYTE   W96
// 016   ----------------------------------------
 BYTE   N92
 BYTE   W96
// 017   ----------------------------------------
 BYTE   N68
 BYTE   W72
 BYTE   N11
 BYTE   W12
 BYTE   Fs1
 BYTE   W12
// 018   ----------------------------------------
 BYTE   N23  Gn1
 BYTE   W36
 BYTE   N05  En1
 BYTE   W06
 BYTE   Fs1
 BYTE   W06
 BYTE   N11  Gn1
 BYTE   W12
 BYTE   N32
 BYTE   W36
// 019   ----------------------------------------
 BYTE   N23  Cn2
 BYTE   W36
 BYTE   N05
 BYTE   W06
 BYTE   Bn1
 BYTE   W06
 BYTE   N11  An1
 BYTE   W12
 BYTE   N32
 BYTE   W36
// 020   ----------------------------------------
 BYTE   N23  En1
 BYTE   W36
 BYTE   N05
 BYTE   W06
 BYTE   Fs1
 BYTE   W06
 BYTE   N11  Gn1
 BYTE   W12
 BYTE   N32
 BYTE   W36
// 021   ----------------------------------------
 BYTE   N23  Dn2
 BYTE   W36
 BYTE   N05
 BYTE   W06
 BYTE   Cn2
 BYTE   W06
 BYTE   N11  Bn1
 BYTE   W12
 BYTE   N32
 BYTE   W36
// 022   ----------------------------------------
 BYTE   N23  An1
 BYTE   W36
 BYTE   N05
 BYTE   W06
 BYTE   Bn1
 BYTE   W06
 BYTE   N11  Cn2
 BYTE   W12
 BYTE   N32
 BYTE   W36
// 023   ----------------------------------------
 BYTE   N23  Bn1
 BYTE   W36
 BYTE   N05
 BYTE   W06
 BYTE   An1
 BYTE   W06
 BYTE   N11  Gs1
 BYTE   W12
 BYTE   N23
 BYTE   W24
 BYTE   N11
 BYTE   W12
// 024   ----------------------------------------
 BYTE   N23  An1
 BYTE   W36
 BYTE   N05
 BYTE   W06
 BYTE   As1
 BYTE   W06
 BYTE   N11  Bn1
 BYTE   W12
 BYTE   N32
 BYTE   W36
// 025   ----------------------------------------
 BYTE   N44  Cs2  v064
 BYTE   W48
 BYTE   Ds2
 BYTE   W48
// 026   ----------------------------------------
 BYTE   Bn1
 BYTE   W48
 BYTE   En1
 BYTE   W48
// 027   ----------------------------------------
 BYTE   N44
 BYTE   W48
 BYTE   Fs1
 BYTE   W48
// 028   ----------------------------------------
 BYTE   Gn1
 BYTE   W48
 BYTE   N44
 BYTE   W48
// 029   ----------------------------------------
 BYTE   N92
 BYTE   W96
// 030   ----------------------------------------
 BYTE   Fs1
 BYTE   W96
// 031   ----------------------------------------
 BYTE   W96
// 032   ----------------------------------------
Label_10_013162E7:
 BYTE   N17  Cn1  v080
 BYTE   W18
 BYTE   N17
 BYTE   W18
 BYTE   N11
 BYTE   W12
 BYTE   N17  Dn1
 BYTE   W18
 BYTE   N17
 BYTE   W18
 BYTE   N11
 BYTE   W12
 BYTE   PEND 
// 033   ----------------------------------------
 BYTE   N17  Bn0
 BYTE   W18
 BYTE   N17
 BYTE   W18
 BYTE   N11
 BYTE   W12
 BYTE   N05  En1
 BYTE   W06
 BYTE   N11
 BYTE   W12
 BYTE   N05
 BYTE   W06
 BYTE   Dn1
 BYTE   W06
 BYTE   N17
 BYTE   W18
// 034   ----------------------------------------
 BYTE   Cn1
 BYTE   W18
 BYTE   N17
 BYTE   W18
 BYTE   N11
 BYTE   W12
 BYTE   N17  Bn0
 BYTE   W18
 BYTE   N17
 BYTE   W18
 BYTE   N11
 BYTE   W12
// 035   ----------------------------------------
 BYTE   N17  En1
 BYTE   W18
 BYTE   N17
 BYTE   W18
 BYTE   N11
 BYTE   W12
 BYTE   N05  Dn1
 BYTE   W06
 BYTE   N11
 BYTE   W12
 BYTE   N28
 BYTE   W30
 BYTE   PATT
  POIN2 Label_10_013162E7
// 036   ----------------------------------------
 BYTE   N17  Bn0  v080
 BYTE   W18
 BYTE   N17
 BYTE   W18
 BYTE   N11
 BYTE   W12
 BYTE   N17  En1
 BYTE   W18
 BYTE   N17
 BYTE   W18
 BYTE   N11
 BYTE   W12
 BYTE   PATT
  POIN2 Label_10_013162E7
// 037   ----------------------------------------
Label_10_0131633D:
 BYTE   N32  En1  v096
 BYTE   W36
 BYTE   N03
 BYTE   W04
 BYTE   N03
 BYTE   W04
 BYTE   N03
 BYTE   W04
 BYTE   N11
 BYTE   W12
 BYTE   N23
 BYTE   W24
 BYTE   N11
 BYTE   W12
 BYTE   PEND 
// 038   ----------------------------------------
Label_10_0131634E:
 BYTE   N32  Fn1  v096
 BYTE   W36
 BYTE   N03
 BYTE   W04
 BYTE   N03
 BYTE   W04
 BYTE   N03
 BYTE   W04
 BYTE   N11
 BYTE   W12
 BYTE   N23
 BYTE   W24
 BYTE   N11
 BYTE   W12
 BYTE   PEND 
 BYTE   PATT
  POIN2 Label_10_0131633D
 BYTE   PATT
  POIN2 Label_10_0131634E
// 039   ----------------------------------------
 BYTE   N23  Bn1  v064
 BYTE   W24
 BYTE   N11  An1
 BYTE   W12
 BYTE   Dn2
 BYTE   W12
 BYTE   N23  Bn1
 BYTE   W24
 BYTE   N11  Gn1
 BYTE   W12
 BYTE   An1
 BYTE   W12
// 040   ----------------------------------------
 BYTE   N44  Bn1
 BYTE   W48
 BYTE   N23
 BYTE   W24
 BYTE   N23
 BYTE   W24
// 041   ----------------------------------------
 BYTE   N92  Cn2
 BYTE   W96
// 042   ----------------------------------------
 BYTE   N44  Bn1
 BYTE   W48
 BYTE   Fs1  v072
 BYTE   W48
// 043   ----------------------------------------
 BYTE   N92  En1  v076
 BYTE   W96
// 044   ----------------------------------------
 BYTE   N92
 BYTE   W96
// 045   ----------------------------------------
 BYTE   N92
 BYTE   W96
// 046   ----------------------------------------
 BYTE   N92
 BYTE   W96
// 047   ----------------------------------------
 BYTE   W96
// 048   ----------------------------------------
 BYTE   W96
// 049   ----------------------------------------
 BYTE   GoTo
  POIN2 Label_10_013161F9
 BYTE   FINE

//**************** Track 12 (Midi-Chn.11) ****************//

FE14JusticeRIPMrGreen3339_012:
// 000   ----------------------------------------
 BYTE   KEYSH   FE14JusticeRIPMrGreen3339_key+0
 BYTE   VOICE   11
 BYTE   VOL   51*FE14JusticeRIPMrGreen3339_mvl/mxv
 BYTE   PAN   c_v-45
 BYTE   W96
// 001   ----------------------------------------
 BYTE   W96
// 002   ----------------------------------------
 BYTE   W96
// 003   ----------------------------------------
 BYTE   W96
// 004   ----------------------------------------
 BYTE   W96
// 005   ----------------------------------------
 BYTE   W96
// 006   ----------------------------------------
Label_11_013163AA:
 BYTE   W96
// 007   ----------------------------------------
 BYTE   W96
// 008   ----------------------------------------
 BYTE   W96
// 009   ----------------------------------------
 BYTE   W96
// 010   ----------------------------------------
 BYTE   W96
// 011   ----------------------------------------
 BYTE   W96
// 012   ----------------------------------------
 BYTE   W96
// 013   ----------------------------------------
 BYTE   W96
// 014   ----------------------------------------
 BYTE   W72
 BYTE   N05  En5  v096
 BYTE   W06
 BYTE   N02  Gn5
 BYTE   W03
 BYTE   An5
 BYTE   W03
 BYTE   Cn6
 BYTE   W03
 BYTE   Dn6
 BYTE   W03
 BYTE   En6
 BYTE   W03
 BYTE   Fs6
 BYTE   W03
// 015   ----------------------------------------
 BYTE   N23  Gn6
 BYTE   W96
// 016   ----------------------------------------
Label_11_013163C7:
 BYTE   N05  En6  v096
 BYTE   N05  Gn6
 BYTE   W06
 BYTE   En6
 BYTE   N05  Gn6
 BYTE   W66
 BYTE   N11  Dn6
 BYTE   N11  Fs6
 BYTE   W12
 BYTE   Dn6
 BYTE   N11  Fs6
 BYTE   W12
 BYTE   PEND 
 BYTE   PATT
  POIN2 Label_11_013163C7
// 017   ----------------------------------------
 BYTE   N44  Dn6  v096
 BYTE   N44  Fs6
 BYTE   W48
 BYTE   N44
 BYTE   N44  An6
 BYTE   W48
// 018   ----------------------------------------
 BYTE   N11  En6  v080
 BYTE   W12
 BYTE   N05
 BYTE   W06
 BYTE   Fs6
 BYTE   W06
 BYTE   N11  Gn6
 BYTE   W12
 BYTE   N05  En6
 BYTE   W06
 BYTE   Fs6
 BYTE   W06
 BYTE   N11  Gn6
 BYTE   W12
 BYTE   Fs6
 BYTE   W12
 BYTE   En6
 BYTE   W12
 BYTE   Dn6
 BYTE   W12
// 019   ----------------------------------------
 BYTE   Cn6
 BYTE   W12
 BYTE   N05
 BYTE   W06
 BYTE   Dn6
 BYTE   W06
 BYTE   N11  En6
 BYTE   W12
 BYTE   N05  Cn6
 BYTE   W06
 BYTE   En6
 BYTE   W06
 BYTE   N11  Gn6
 BYTE   W12
 BYTE   Fs6
 BYTE   W12
 BYTE   En6
 BYTE   W12
 BYTE   Dn6
 BYTE   W12
// 020   ----------------------------------------
 BYTE   En6
 BYTE   W12
 BYTE   N05
 BYTE   W06
 BYTE   Fs6
 BYTE   W06
 BYTE   N11  Gn6
 BYTE   W12
 BYTE   N05  En6
 BYTE   W06
 BYTE   Gn6
 BYTE   W06
 BYTE   N11  Bn6
 BYTE   W12
 BYTE   An6
 BYTE   W12
 BYTE   Gn6
 BYTE   W12
 BYTE   En6
 BYTE   W12
// 021   ----------------------------------------
 BYTE   Fs6
 BYTE   W12
 BYTE   N05  Dn6
 BYTE   W06
 BYTE   En6
 BYTE   W06
 BYTE   N11  Fs6
 BYTE   W12
 BYTE   N05  Dn6
 BYTE   W06
 BYTE   Fs6
 BYTE   W06
 BYTE   N11  An6
 BYTE   W12
 BYTE   Gn6
 BYTE   W12
 BYTE   Fs6
 BYTE   W12
 BYTE   Dn6
 BYTE   W12
// 022   ----------------------------------------
 BYTE   En6
 BYTE   W12
 BYTE   N05  Cn6
 BYTE   W06
 BYTE   Dn6
 BYTE   W06
 BYTE   En6
 BYTE   W06
 BYTE   Cn6
 BYTE   W06
 BYTE   En6
 BYTE   W06
 BYTE   Gn6
 BYTE   W06
 BYTE   N11  Bn6
 BYTE   W12
 BYTE   An6
 BYTE   W12
 BYTE   Gn6
 BYTE   W12
 BYTE   Dn6
 BYTE   W12
// 023   ----------------------------------------
 BYTE   Fs6
 BYTE   W12
 BYTE   N05  Dn6
 BYTE   W06
 BYTE   En6
 BYTE   W06
 BYTE   Fs6
 BYTE   W06
 BYTE   Dn6
 BYTE   W06
 BYTE   Fs6
 BYTE   W06
 BYTE   An6
 BYTE   W18
 BYTE   N11  Cn7
 BYTE   W12
 BYTE   Bn6
 BYTE   W12
 BYTE   Gn6
 BYTE   W12
// 024   ----------------------------------------
 BYTE   An6
 BYTE   W12
 BYTE   N05  En6
 BYTE   W06
 BYTE   Gn6
 BYTE   W06
 BYTE   N11  An6
 BYTE   W12
 BYTE   N05  En6
 BYTE   W06
 BYTE   An6
 BYTE   W06
 BYTE   N11  Gn6
 BYTE   W12
 BYTE   Fs6
 BYTE   W12
 BYTE   En6
 BYTE   W12
 BYTE   Dn6
 BYTE   W12
// 025   ----------------------------------------
 BYTE   W96
// 026   ----------------------------------------
 BYTE   W36
 BYTE   N02  Gn5
 BYTE   W03
 BYTE   An5
 BYTE   W03
 BYTE   Cs6
 BYTE   W03
 BYTE   Ds6
 BYTE   W03
 BYTE   En6
 BYTE   W03
 BYTE   Ds6
 BYTE   W03
 BYTE   Cs6
 BYTE   W03
 BYTE   Bn5
 BYTE   W03
 BYTE   An5
 BYTE   W03
 BYTE   Gs5
 BYTE   W03
 BYTE   Gn5
 BYTE   W03
 BYTE   Fs5
 BYTE   W03
 BYTE   N23  En5
 BYTE   W24
// 027   ----------------------------------------
 BYTE   W96
// 028   ----------------------------------------
 BYTE   N02  En6
 BYTE   W03
 BYTE   Ds6
 BYTE   W03
 BYTE   Cs6
 BYTE   W03
 BYTE   Bn5
 BYTE   W03
 BYTE   An5
 BYTE   W03
 BYTE   Gs5
 BYTE   W03
 BYTE   Gn5
 BYTE   W03
 BYTE   Fs5
 BYTE   W03
 BYTE   N11  En5
 BYTE   W12
 BYTE   N02
 BYTE   W03
 BYTE   Gn5
 BYTE   W03
 BYTE   Bn5
 BYTE   W03
 BYTE   En6
 BYTE   W03
 BYTE   Gn6
 BYTE   W03
 BYTE   Fs6
 BYTE   W03
 BYTE   En6
 BYTE   W03
 BYTE   Dn6
 BYTE   W03
 BYTE   Cs6
 BYTE   W03
 BYTE   Cn6
 BYTE   W03
 BYTE   Bn5
 BYTE   W03
 BYTE   An5
 BYTE   W03
 BYTE   N11  Gn5
 BYTE   W12
 BYTE   An5
 BYTE   W12
// 029   ----------------------------------------
 BYTE   W96
// 030   ----------------------------------------
 BYTE   W96
// 031   ----------------------------------------
 BYTE   W72
 BYTE   Bn5  v096
 BYTE   W12
 BYTE   Dn6
 BYTE   W12
// 032   ----------------------------------------
Label_11_013164E7:
 BYTE   N23  An5  v080
 BYTE   W24
 BYTE   N11  Bn5
 BYTE   W12
 BYTE   Dn6
 BYTE   W12
 BYTE   N23  An5
 BYTE   W24
 BYTE   N11  Gn5
 BYTE   W12
 BYTE   An5
 BYTE   W12
 BYTE   PEND 
// 033   ----------------------------------------
Label_11_013164F9:
 BYTE   N11  Bn5  v080
 BYTE   W12
 BYTE   Dn6
 BYTE   W12
 BYTE   En6
 BYTE   W12
 BYTE   Gn6
 BYTE   W12
 BYTE   N23  Fs6
 BYTE   W24
 BYTE   N11  Dn6
 BYTE   W12
 BYTE   Bn5
 BYTE   W12
 BYTE   PEND 
// 034   ----------------------------------------
 BYTE   N23  An5
 BYTE   W24
 BYTE   N11  Gn5
 BYTE   W12
 BYTE   An5
 BYTE   W12
 BYTE   Bn5
 BYTE   W12
 BYTE   Gn5
 BYTE   W12
 BYTE   An5
 BYTE   W12
 BYTE   Bn5
 BYTE   W12
// 035   ----------------------------------------
 BYTE   N23  An5
 BYTE   W24
 BYTE   N11  Gn5
 BYTE   W12
 BYTE   An5
 BYTE   W12
 BYTE   N23  Bn5
 BYTE   W24
 BYTE   N11
 BYTE   W12
 BYTE   Dn6
 BYTE   W12
 BYTE   PATT
  POIN2 Label_11_013164E7
 BYTE   PATT
  POIN2 Label_11_013164F9
// 036   ----------------------------------------
 BYTE   N23  An5  v080
 BYTE   W24
 BYTE   N11  Gn5
 BYTE   W12
 BYTE   An5
 BYTE   W12
 BYTE   Bn5
 BYTE   W12
 BYTE   Gn5
 BYTE   W12
 BYTE   En5
 BYTE   W12
 BYTE   Dn5
 BYTE   W12
// 037   ----------------------------------------
 BYTE   N23  Bn5  v096
 BYTE   W24
 BYTE   N11  An5
 BYTE   W12
 BYTE   Dn6
 BYTE   W12
 BYTE   N23  Bn5
 BYTE   W24
 BYTE   N11  An5
 BYTE   W12
 BYTE   Dn6
 BYTE   W12
// 038   ----------------------------------------
 BYTE   N92  Bn5
 BYTE   W96
// 039   ----------------------------------------
 BYTE   N23  En5
 BYTE   W24
 BYTE   N11  Dn5
 BYTE   W12
 BYTE   An5
 BYTE   W12
 BYTE   N23  En5
 BYTE   W24
 BYTE   N11  Dn5
 BYTE   W12
 BYTE   Bn5
 BYTE   W12
// 040   ----------------------------------------
 BYTE   N92  En5
 BYTE   W96
// 041   ----------------------------------------
 BYTE   W96
// 042   ----------------------------------------
 BYTE   W96
// 043   ----------------------------------------
 BYTE   W96
// 044   ----------------------------------------
 BYTE   W96
// 045   ----------------------------------------
 BYTE   W96
// 046   ----------------------------------------
 BYTE   W96
// 047   ----------------------------------------
 BYTE   W96
// 048   ----------------------------------------
 BYTE   W96
// 049   ----------------------------------------
 BYTE   W96
// 050   ----------------------------------------
 BYTE   W96
// 051   ----------------------------------------
 BYTE   GoTo
  POIN2 Label_11_013163AA
 BYTE   FINE

//**************** Track 13 (Midi-Chn.12) ****************//

FE14JusticeRIPMrGreen3339_013:
// 000   ----------------------------------------
 BYTE   KEYSH   FE14JusticeRIPMrGreen3339_key+0
 BYTE   VOICE   12
 BYTE   VOL   51*FE14JusticeRIPMrGreen3339_mvl/mxv
 BYTE   PAN   c_v+18
 BYTE   W96
// 001   ----------------------------------------
 BYTE   W96
// 002   ----------------------------------------
 BYTE   W96
// 003   ----------------------------------------
 BYTE   W96
// 004   ----------------------------------------
Label_12_01316589:
 BYTE   N23  Fs4  v080
 BYTE   W24
 BYTE   N01
 BYTE   W01
 BYTE   Fn4
 BYTE   W02
 BYTE   En4
 BYTE   W03
 BYTE   Ds4
 BYTE   W01
 BYTE   Dn4
 BYTE   W02
 BYTE   Cs4
 BYTE   W03
 BYTE   Cn4
 BYTE   W01
 BYTE   Bn3
 BYTE   W02
 BYTE   As3
 BYTE   W03
 BYTE   An3
 BYTE   W01
 BYTE   Gs3
 BYTE   W02
 BYTE   Gn3
 BYTE   W03
 BYTE   N92  Fs3
 BYTE   W48
 BYTE   PEND 
// 005   ----------------------------------------
 BYTE   W96
// 006   ----------------------------------------
Label_12_013165AA:
 BYTE   W96
// 007   ----------------------------------------
 BYTE   W96
// 008   ----------------------------------------
 BYTE   W96
// 009   ----------------------------------------
 BYTE   W96
// 010   ----------------------------------------
 BYTE   W96
// 011   ----------------------------------------
 BYTE   W96
// 012   ----------------------------------------
 BYTE   W96
// 013   ----------------------------------------
 BYTE   W96
// 014   ----------------------------------------
 BYTE   N05  Bn2  v064
 BYTE   W06
 BYTE   N05
 BYTE   W06
 BYTE   En3  v068
 BYTE   W06
 BYTE   En3  v072
 BYTE   W06
 BYTE   Gn3  v076
 BYTE   W06
 BYTE   Gn3  v080
 BYTE   W06
 BYTE   An3  v084
 BYTE   W06
 BYTE   An3  v092
 BYTE   W06
 BYTE   Bn3  v096
 BYTE   W06
 BYTE   Bn3  v100
 BYTE   W06
 BYTE   Dn4  v104
 BYTE   W06
 BYTE   Dn4  v108
 BYTE   W06
 BYTE   En4  v112
 BYTE   W06
 BYTE   En4  v116
 BYTE   W06
 BYTE   Fs4  v124
 BYTE   W06
 BYTE   Fs4  v127
 BYTE   W06
// 015   ----------------------------------------
 BYTE   N17  Gn4
 BYTE   N17  Bn4
 BYTE   W18
 BYTE   N05  Gn4
 BYTE   N05  Bn4
 BYTE   W54
 BYTE   En4
 BYTE   W06
 BYTE   Fs4
 BYTE   W06
 BYTE   N02  En4
 BYTE   W03
 BYTE   Fs4
 BYTE   W03
 BYTE   Gn4
 BYTE   W03
 BYTE   An4
 BYTE   W03
// 016   ----------------------------------------
 BYTE   N23  Gn4
 BYTE   N23  Bn4
 BYTE   W72
 BYTE   N02  Cn5
 BYTE   W03
 BYTE   Bn4
 BYTE   W03
 BYTE   An4
 BYTE   W03
 BYTE   Gn4
 BYTE   W03
 BYTE   N05  An4
 BYTE   W06
 BYTE   Cn5
 BYTE   W06
// 017   ----------------------------------------
 BYTE   N23  Gn4
 BYTE   N23  Bn4
 BYTE   W72
 BYTE   N05  Fs4
 BYTE   W06
 BYTE   Gn4
 BYTE   W06
 BYTE   N02  An4
 BYTE   W03
 BYTE   Bn4
 BYTE   W03
 BYTE   Cn5
 BYTE   W03
 BYTE   An4
 BYTE   W03
// 018   ----------------------------------------
 BYTE   N17  Gn4  v104
 BYTE   N17  Bn4
 BYTE   W18
 BYTE   Gn4
 BYTE   N17  Bn4
 BYTE   W18
 BYTE   N11  Gn4
 BYTE   N11  Bn4
 BYTE   W12
 BYTE   N07  Gn4
 BYTE   N07  Bn4
 BYTE   W08
 BYTE   Gn4
 BYTE   N07  Bn4
 BYTE   W08
 BYTE   Gn4
 BYTE   N07  Bn4
 BYTE   W08
 BYTE   N11  Dn4
 BYTE   N11  An4
 BYTE   W12
 BYTE   Dn4
 BYTE   N11  An4
 BYTE   W12
// 019   ----------------------------------------
 BYTE   N44  En3  v076
 BYTE   N44  Gn3
 BYTE   N44  En4
 BYTE   N44  Gn4
 BYTE   W48
 BYTE   Dn3
 BYTE   N44  Fs3
 BYTE   N44  Fs4
 BYTE   W48
// 020   ----------------------------------------
 BYTE   Cn4
 BYTE   N44  En4
 BYTE   W48
 BYTE   Gn3
 BYTE   N44  Bn3
 BYTE   N44  Dn4
 BYTE   W48
// 021   ----------------------------------------
 BYTE   Gn3
 BYTE   N44  En4
 BYTE   N44  Gn4
 BYTE   W48
 BYTE   An3
 BYTE   N44  Dn4
 BYTE   N44  An4
 BYTE   W48
// 022   ----------------------------------------
 BYTE   Gn3
 BYTE   N44  En4
 BYTE   N44  Gn4
 BYTE   W48
 BYTE   Fs3
 BYTE   N44  Dn4
 BYTE   N44  Fs4
 BYTE   W48
// 023   ----------------------------------------
 BYTE   En3
 BYTE   N44  Cn4
 BYTE   W48
 BYTE   En3
 BYTE   N44  Gn4
 BYTE   W48
// 024   ----------------------------------------
 BYTE   Fs3
 BYTE   N44  An4
 BYTE   W48
 BYTE   Dn3
 BYTE   N44  Fs4
 BYTE   W48
// 025   ----------------------------------------
 BYTE   En3
 BYTE   N44  En4
 BYTE   W48
 BYTE   An3
 BYTE   N44  Fs4
 BYTE   W48
// 026   ----------------------------------------
 BYTE   En3
 BYTE   N44  Cs4
 BYTE   W48
 BYTE   Fs3
 BYTE   N44  Ds4
 BYTE   W48
// 027   ----------------------------------------
 BYTE   Gn3
 BYTE   N44  En4
 BYTE   W48
 BYTE   En3
 BYTE   N44  Gn3
 BYTE   N44  En4
 BYTE   W48
// 028   ----------------------------------------
 BYTE   W24
 BYTE   N23  Gn3
 BYTE   N23  En4
 BYTE   W24
 BYTE   Fs3
 BYTE   N23  Ds4
 BYTE   W24
 BYTE   N11  Gn3
 BYTE   N11  En4
 BYTE   W12
 BYTE   An3
 BYTE   N11  Fs4
 BYTE   W12
// 029   ----------------------------------------
 BYTE   N44  Gn3
 BYTE   N44  Bn3
 BYTE   N44  Gn4
 BYTE   W96
// 030   ----------------------------------------
 BYTE   W96
// 031   ----------------------------------------
 BYTE   W96
// 032   ----------------------------------------
 BYTE   W96
// 033   ----------------------------------------
 BYTE   N17  En3  v096
 BYTE   N17  Cn4
 BYTE   W18
 BYTE   En3
 BYTE   N17  Cn4
 BYTE   W18
 BYTE   N11  En3
 BYTE   N11  Cn4
 BYTE   W12
 BYTE   N17  An3
 BYTE   N17  Dn4
 BYTE   W18
 BYTE   An3
 BYTE   N17  Dn4
 BYTE   W18
 BYTE   N11  An3
 BYTE   N11  Dn4
 BYTE   W12
// 034   ----------------------------------------
 BYTE   N17  Fs3
 BYTE   N17  Bn3
 BYTE   W18
 BYTE   Fs3
 BYTE   N17  Bn3
 BYTE   W18
 BYTE   N11  Fs3
 BYTE   N11  Bn3
 BYTE   W12
 BYTE   N05  Gs3
 BYTE   N05  En4
 BYTE   W06
 BYTE   N11  Gs3
 BYTE   N11  En4
 BYTE   W12
 BYTE   N05  Gs3
 BYTE   N05  En4
 BYTE   W06
 BYTE   Fs3
 BYTE   N05  Dn4
 BYTE   W06
 BYTE   N11  Fs3
 BYTE   N11  Dn4
 BYTE   W12
 BYTE   N05  Fs3
 BYTE   N05  Dn4
 BYTE   W06
// 035   ----------------------------------------
 BYTE   N17  En3
 BYTE   N17  Cn4
 BYTE   W18
 BYTE   En3
 BYTE   N17  Cn4
 BYTE   W18
 BYTE   N11  En3
 BYTE   N11  Cn4
 BYTE   W12
 BYTE   N17  Fs3
 BYTE   N17  Bn3
 BYTE   W18
 BYTE   Fs3
 BYTE   N17  Bn3
 BYTE   W18
 BYTE   N11  Fs3
 BYTE   N11  Bn3
 BYTE   W12
// 036   ----------------------------------------
 BYTE   N17  Gn3
 BYTE   N17  En4
 BYTE   W18
 BYTE   Gn3
 BYTE   N17  En4
 BYTE   W18
 BYTE   N11  Gn3
 BYTE   N11  En4
 BYTE   W12
 BYTE   N17  An3
 BYTE   N17  Dn4
 BYTE   W18
 BYTE   An3
 BYTE   N17  Dn4
 BYTE   W18
 BYTE   N11  An3
 BYTE   N11  Dn4
 BYTE   W12
// 037   ----------------------------------------
 BYTE   N17  Gn3
 BYTE   N17  Cn4
 BYTE   W18
 BYTE   Gn3
 BYTE   N17  Cn4
 BYTE   W18
 BYTE   N11  Gn3
 BYTE   N11  Cn4
 BYTE   W12
 BYTE   N17  An3
 BYTE   N17  Dn4
 BYTE   W18
 BYTE   An3
 BYTE   N17  Dn4
 BYTE   W18
 BYTE   N11  An3
 BYTE   N11  Dn4
 BYTE   W12
// 038   ----------------------------------------
 BYTE   N17  Fs3
 BYTE   N17  Bn3
 BYTE   W18
 BYTE   Fs3
 BYTE   N17  An3
 BYTE   W18
 BYTE   N11  En3
 BYTE   N11  An3
 BYTE   W12
 BYTE   N17  En3
 BYTE   N17  Gs3
 BYTE   W18
 BYTE   En3
 BYTE   N17  Gs3
 BYTE   W18
 BYTE   N11  En3
 BYTE   N11  Gs3
 BYTE   W12
// 039   ----------------------------------------
 BYTE   N17  En3
 BYTE   N17  An3
 BYTE   W18
 BYTE   En3
 BYTE   N17  An3
 BYTE   W18
 BYTE   N11  En3
 BYTE   N11  An3
 BYTE   W12
 BYTE   N17  Dn3
 BYTE   N17  Bn3
 BYTE   W18
 BYTE   Dn3
 BYTE   N17  Bn3
 BYTE   W18
 BYTE   N11  Dn3
 BYTE   N11  Bn3
 BYTE   W12
// 040   ----------------------------------------
Label_12_01316791:
 BYTE   N17  Bn3  v076
 BYTE   W18
 BYTE   N02  An3
 BYTE   W03
 BYTE   Dn4
 BYTE   W03
 BYTE   N17  Bn3
 BYTE   W18
 BYTE   N02  An3
 BYTE   W03
 BYTE   Dn4
 BYTE   W03
 BYTE   N17  Bn3
 BYTE   W18
 BYTE   N02  An3
 BYTE   W03
 BYTE   Dn4
 BYTE   W03
 BYTE   N07  An3
 BYTE   W08
 BYTE   Gn3
 BYTE   W08
 BYTE   Fs3
 BYTE   W08
 BYTE   PEND 
// 041   ----------------------------------------
 BYTE   N05  En3
 BYTE   W06
 BYTE   Dn3
 BYTE   W06
 BYTE   N11
 BYTE   W12
 BYTE   N08  En3
 BYTE   W09
 BYTE   N02  Bn3
 BYTE   W03
 BYTE   N05
 BYTE   W06
 BYTE   An3
 BYTE   W06
 BYTE   N44  Bn3
 BYTE   W48
 BYTE   PATT
  POIN2 Label_12_01316791
// 042   ----------------------------------------
 BYTE   N02  En3  v076
 BYTE   W03
 BYTE   Dn3
 BYTE   W03
 BYTE   Cn3
 BYTE   W03
 BYTE   Dn3
 BYTE   W03
 BYTE   N05  En3
 BYTE   W06
 BYTE   An3
 BYTE   W06
 BYTE   N02  En3
 BYTE   W03
 BYTE   Dn3
 BYTE   W03
 BYTE   Cn3
 BYTE   W03
 BYTE   Dn3
 BYTE   W03
 BYTE   N05  En3
 BYTE   W06
 BYTE   Bn3
 BYTE   W06
 BYTE   En3
 BYTE   W06
 BYTE   Dn3
 BYTE   W06
 BYTE   Cn3
 BYTE   W06
 BYTE   Bn2
 BYTE   W06
 BYTE   An2
 BYTE   W06
 BYTE   Gn2
 BYTE   W06
 BYTE   N02  Fs2
 BYTE   W03
 BYTE   An2
 BYTE   W03
 BYTE   Cn3
 BYTE   W03
 BYTE   Dn3
 BYTE   W03
// 043   ----------------------------------------
 BYTE   N92  En3
 BYTE   N92  Bn3
 BYTE   N92  En4
 BYTE   W96
// 044   ----------------------------------------
 BYTE   W96
// 045   ----------------------------------------
 BYTE   W96
// 046   ----------------------------------------
 BYTE   W96
// 047   ----------------------------------------
 BYTE   W96
// 048   ----------------------------------------
 BYTE   W96
// 049   ----------------------------------------
 BYTE   W96
// 050   ----------------------------------------
 BYTE   W96
 BYTE   PATT
  POIN2 Label_12_01316589
// 051   ----------------------------------------
 BYTE   W96
// 052   ----------------------------------------
 BYTE   GoTo
  POIN2 Label_12_013165AA
 BYTE   FINE

//******************************************************//
	ALIGN 4

FE14JusticeRIPMrGreen3339:
	BYTE	13	// NumTrks
	BYTE	0	// NumBlks
	BYTE	FE14JusticeRIPMrGreen3339_pri	// Priority
	BYTE	FE14JusticeRIPMrGreen3339_rev	// Reverb.
    
	POIN2	FE14JusticeRIPMrGreen3339_grp
    
	POIN2	FE14JusticeRIPMrGreen3339_001
	POIN2	FE14JusticeRIPMrGreen3339_002
	POIN2	FE14JusticeRIPMrGreen3339_003
	POIN2	FE14JusticeRIPMrGreen3339_004
	POIN2	FE14JusticeRIPMrGreen3339_005
	POIN2	FE14JusticeRIPMrGreen3339_006
	POIN2	FE14JusticeRIPMrGreen3339_007
	POIN2	FE14JusticeRIPMrGreen3339_008
	POIN2	FE14JusticeRIPMrGreen3339_009
	POIN2	FE14JusticeRIPMrGreen3339_010
	POIN2	FE14JusticeRIPMrGreen3339_011
	POIN2	FE14JusticeRIPMrGreen3339_012
	POIN2	FE14JusticeRIPMrGreen3339_013

	
