//Event file generated from Sappy .s format.
	#include "MPlayDef.event"

	#define	FE14GloryRuinDeedsMycahel_grp  voicegroup000
	#define	FE14GloryRuinDeedsMycahel_pri  0
	#define	FE14GloryRuinDeedsMycahel_rev  0
	#define	FE14GloryRuinDeedsMycahel_mvl  127
	#define	FE14GloryRuinDeedsMycahel_key  0
	#define	FE14GloryRuinDeedsMycahel_tbs  1
	#define	FE14GloryRuinDeedsMycahel_exg  0
	#define	FE14GloryRuinDeedsMycahel_cmp  1

	// .rodata
	//	FE14GloryRuinDeedsMycahel
	ALIGN 4


//**************** Track 1 (Midi-Chn.0) ****************//

FE14GloryRuinDeedsMycahel_001:
// 000   ----------------------------------------
 BYTE   VOL   40*FE14GloryRuinDeedsMycahel_mvl/mxv
 BYTE   KEYSH   FE14GloryRuinDeedsMycahel_key+0
Label_0_013876E8:
 BYTE   TEMPO   124*FE14GloryRuinDeedsMycahel_tbs/2
 BYTE   VOICE   69
 BYTE   W96
// 001   ----------------------------------------
 BYTE   W96
// 002   ----------------------------------------
 BYTE   W96
// 003   ----------------------------------------
 BYTE   W96
// 004   ----------------------------------------
 BYTE   W96
// 005   ----------------------------------------
 BYTE   W96
// 006   ----------------------------------------
 BYTE   N96  Gs3  v124
 BYTE   N96  Cs4
 BYTE   W96
// 007   ----------------------------------------
 BYTE   N72  Gs3
 BYTE   N72  Cs4
 BYTE   W72
 BYTE   N12  Gs3
 BYTE   N12  Cs4
 BYTE   W12
 BYTE   Gs3
 BYTE   N12  Cs4
 BYTE   W12
// 008   ----------------------------------------
 BYTE   N96  Gn3
 BYTE   N96  Cn4
 BYTE   W96
// 009   ----------------------------------------
 BYTE   W96
// 010   ----------------------------------------
 BYTE   W96
// 011   ----------------------------------------
 BYTE   W96
// 012   ----------------------------------------
 BYTE   W96
// 013   ----------------------------------------
 BYTE   W96
// 014   ----------------------------------------
 BYTE   Gs3
 BYTE   N96  Cs4
 BYTE   W96
// 015   ----------------------------------------
 BYTE   Gs3
 BYTE   N96  Cs4
 BYTE   W96
// 016   ----------------------------------------
Label_0_01387718:
 BYTE   W48
 BYTE   N36  Dn3  v120
 BYTE   N36  Gn3
 BYTE   W36
 BYTE   N06  Dn3
 BYTE   N06  Gn3
 BYTE   W06
 BYTE   Dn3
 BYTE   N06  Gn3
 BYTE   W06
 BYTE   PEND 
// 017   ----------------------------------------
 BYTE   N96  Dn3
 BYTE   N96  Gn3
 BYTE   W96
 BYTE   PATT
  POIN2 Label_0_01387718
// 018   ----------------------------------------
 BYTE   N96  Cs3  v120
 BYTE   N96  Fs3
 BYTE   W96
 BYTE   PATT
  POIN2 Label_0_01387718
// 019   ----------------------------------------
 BYTE   N96  Ds3  v120
 BYTE   N96  Gs3
 BYTE   W96
// 020   ----------------------------------------
Label_0_01387744:
 BYTE   W48
 BYTE   N36  As3  v120
 BYTE   N36  Dn4
 BYTE   W36
 BYTE   N06  As3
 BYTE   N06  Dn4
 BYTE   W06
 BYTE   As3
 BYTE   N06  Dn4
 BYTE   W06
 BYTE   PEND 
// 021   ----------------------------------------
Label_0_01387755:
 BYTE   N48  Cn4  v120
 BYTE   N48  Ds4
 BYTE   W48
 BYTE   Gs3
 BYTE   N48  Bn3
 BYTE   W48
 BYTE   PEND 
 BYTE   PATT
  POIN2 Label_0_01387718
// 022   ----------------------------------------
 BYTE   N96  Dn3  v120
 BYTE   N96  Gn3
 BYTE   W96
 BYTE   PATT
  POIN2 Label_0_01387718
// 023   ----------------------------------------
 BYTE   N96  Cs3  v120
 BYTE   N96  Fs3
 BYTE   W96
 BYTE   PATT
  POIN2 Label_0_01387718
// 024   ----------------------------------------
 BYTE   N96  Ds3  v120
 BYTE   N96  Gs3
 BYTE   W96
 BYTE   PATT
  POIN2 Label_0_01387744
 BYTE   PATT
  POIN2 Label_0_01387755
// 025   ----------------------------------------
 BYTE   W96
// 026   ----------------------------------------
 BYTE   W96
// 027   ----------------------------------------
 BYTE   W96
// 028   ----------------------------------------
 BYTE   W96
// 029   ----------------------------------------
 BYTE   W96
// 030   ----------------------------------------
 BYTE   W96
// 031   ----------------------------------------
 BYTE   W96
// 032   ----------------------------------------
 BYTE   W96
// 033   ----------------------------------------
 BYTE   W96
// 034   ----------------------------------------
 BYTE   W96
// 035   ----------------------------------------
 BYTE   W96
// 036   ----------------------------------------
 BYTE   W96
// 037   ----------------------------------------
 BYTE   W96
// 038   ----------------------------------------
 BYTE   W96
// 039   ----------------------------------------
 BYTE   W96
// 040   ----------------------------------------
 BYTE   W96
// 041   ----------------------------------------
 BYTE   W96
// 042   ----------------------------------------
 BYTE   W96
// 043   ----------------------------------------
 BYTE   TEMPO   124*FE14GloryRuinDeedsMycahel_tbs/2
 BYTE   W72
 BYTE   W72
// 044   ----------------------------------------
 BYTE   W72
 BYTE   W72
// 045   ----------------------------------------
Label_0_013877A3:
 BYTE   N09  Gs4  v127
 BYTE   W12
 BYTE   N09
 BYTE   W24
 BYTE   Fn4
 BYTE   W12
 BYTE   N09
 BYTE   W24
 BYTE   PEND 
Label_0_013877AE:
 BYTE   N09  Fs4  v127
 BYTE   W12
 BYTE   N09
 BYTE   W24
// 046   ----------------------------------------
 BYTE   An4
 BYTE   W12
 BYTE   N09
 BYTE   W24
 BYTE   PEND 
 BYTE   PATT
  POIN2 Label_0_013877A3
 BYTE   PATT
  POIN2 Label_0_013877AE
// 047   ----------------------------------------
 BYTE   TEMPO   124*FE14GloryRuinDeedsMycahel_tbs/2
 BYTE   W96
// 048   ----------------------------------------
 BYTE   W96
// 049   ----------------------------------------
 BYTE   W96
// 050   ----------------------------------------
 BYTE   W96
// 051   ----------------------------------------
 BYTE   W96
// 052   ----------------------------------------
 BYTE   W96
// 053   ----------------------------------------
 BYTE   W96
// 054   ----------------------------------------
 BYTE   W96
// 055   ----------------------------------------
 BYTE   W96
// 056   ----------------------------------------
 BYTE   W96
// 057   ----------------------------------------
 BYTE   W96
// 058   ----------------------------------------
 BYTE   W96
// 059   ----------------------------------------
 BYTE   W96
// 060   ----------------------------------------
 BYTE   W96
// 061   ----------------------------------------
 BYTE   W96
// 062   ----------------------------------------
 BYTE   W96
// 063   ----------------------------------------
 BYTE   W96
// 064   ----------------------------------------
 BYTE   W96
// 065   ----------------------------------------
 BYTE   W96
// 066   ----------------------------------------
 BYTE   W96
// 067   ----------------------------------------
 BYTE   GoTo
  POIN2 Label_0_013876E8
 BYTE   FINE

//**************** Track 2 (Midi-Chn.1) ****************//

FE14GloryRuinDeedsMycahel_002:
// 000   ----------------------------------------
 BYTE   VOL   30*FE14GloryRuinDeedsMycahel_mvl/mxv
 BYTE   KEYSH   FE14GloryRuinDeedsMycahel_key+0
Label_1_013877E4:
 BYTE   VOICE   19
 BYTE   N03  Fn3  v096
 BYTE   N03  As3
 BYTE   W03
 BYTE   Fs3
 BYTE   N03  Bn3
 BYTE   W03
 BYTE   TIE  Gn3
 BYTE   TIE  Cn4
 BYTE   W90
// 001   ----------------------------------------
 BYTE   W96
// 002   ----------------------------------------
 BYTE   W96
// 003   ----------------------------------------
Label_1_013877F7:
 BYTE   W92
 BYTE   W02
 BYTE   TIE  Gs3  v096
 BYTE   TIE  Cs4
 BYTE   W02
 BYTE   PEND 
// 004   ----------------------------------------
 BYTE   EOT
 BYTE   Gn3  v072
 BYTE   W96
// 005   ----------------------------------------
 BYTE   W96
// 006   ----------------------------------------
 BYTE   W96
// 007   ----------------------------------------
 BYTE   W92
 BYTE   W03
 BYTE   Gs3  v073
 BYTE   W01
// 008   ----------------------------------------
 BYTE   N03  Fn3
 BYTE   N03  As3
 BYTE   W03
 BYTE   Fs3
 BYTE   N03  Bn3
 BYTE   W03
 BYTE   TIE  Gn3
 BYTE   TIE  Cn4
 BYTE   W90
// 009   ----------------------------------------
 BYTE   W96
// 010   ----------------------------------------
 BYTE   W96
 BYTE   PATT
  POIN2 Label_1_013877F7
// 011   ----------------------------------------
 BYTE   EOT
 BYTE   Gn3  v072
 BYTE   W96
// 012   ----------------------------------------
 BYTE   W96
// 013   ----------------------------------------
 BYTE   W96
// 014   ----------------------------------------
 BYTE   W92
 BYTE   W03
 BYTE   Gs3  v073
 BYTE   W01
// 015   ----------------------------------------
 BYTE   W96
// 016   ----------------------------------------
 BYTE   W96
// 017   ----------------------------------------
 BYTE   W96
// 018   ----------------------------------------
 BYTE   W96
// 019   ----------------------------------------
 BYTE   W96
// 020   ----------------------------------------
 BYTE   W96
// 021   ----------------------------------------
 BYTE   W96
// 022   ----------------------------------------
 BYTE   W96
// 023   ----------------------------------------
 BYTE   N03  Bn2  v096
 BYTE   N03  Fn3
 BYTE   W03
 BYTE   Cn3
 BYTE   N03  Fs3
 BYTE   W03
 BYTE   TIE  Cs3
 BYTE   TIE  Gn3
 BYTE   W90
// 024   ----------------------------------------
 BYTE   W96
// 025   ----------------------------------------
 BYTE   W96
// 026   ----------------------------------------
 BYTE   W96
// 027   ----------------------------------------
 BYTE   EOT
 BYTE   Cs3  v067
 BYTE   TIE  Dn3
 BYTE   TIE  Gs3
 BYTE   W96
// 028   ----------------------------------------
 BYTE   W96
// 029   ----------------------------------------
 BYTE   W96
// 030   ----------------------------------------
 BYTE   W96
// 031   ----------------------------------------
 BYTE   EOT
 BYTE   Dn3  v068
 BYTE   W96
// 032   ----------------------------------------
 BYTE   W96
// 033   ----------------------------------------
 BYTE   W96
// 034   ----------------------------------------
 BYTE   W96
// 035   ----------------------------------------
 BYTE   W96
// 036   ----------------------------------------
 BYTE   W96
// 037   ----------------------------------------
 BYTE   W96
// 038   ----------------------------------------
 BYTE   W96
// 039   ----------------------------------------
 BYTE   W96
// 040   ----------------------------------------
 BYTE   W96
// 041   ----------------------------------------
 BYTE   W96
// 042   ----------------------------------------
 BYTE   W96
// 043   ----------------------------------------
 BYTE   W96
// 044   ----------------------------------------
 BYTE   W96
// 045   ----------------------------------------
 BYTE   W96
// 046   ----------------------------------------
 BYTE   W96
// 047   ----------------------------------------
 BYTE   N36  Dn4  v127
 BYTE   W36
 BYTE   Bn4
 BYTE   W36
 BYTE   Gs4
 BYTE   W24
// 048   ----------------------------------------
 BYTE   W12
 BYTE   N12  Dn5
 BYTE   W12
 BYTE   Bn4
 BYTE   W12
 BYTE   N24
 BYTE   W24
 BYTE   W03
 BYTE   N32  Gs4
 BYTE   W32
 BYTE   W01
// 049   ----------------------------------------
 BYTE   TIE  Cs4
 BYTE   TIE  Gn4
 BYTE   W72
 BYTE   W72
// 050   ----------------------------------------
 BYTE   W72
 BYTE   W72
// 051   ----------------------------------------
 BYTE   W72
 BYTE   W72
// 052   ----------------------------------------
 BYTE   W72
 BYTE   W72
// 053   ----------------------------------------
 BYTE   EOT
 BYTE   Cs4  v079
 BYTE   TIE  Cn4
 BYTE   TIE  Gn4
 BYTE   W96
// 054   ----------------------------------------
 BYTE   W96
// 055   ----------------------------------------
 BYTE   W96
// 056   ----------------------------------------
 BYTE   W96
// 057   ----------------------------------------
 BYTE   W96
// 058   ----------------------------------------
 BYTE   W96
// 059   ----------------------------------------
 BYTE   W96
// 060   ----------------------------------------
 BYTE   W96
// 061   ----------------------------------------
 BYTE   EOT
 BYTE   Cn4  v079
 BYTE   TIE  As3
 BYTE   TIE  Fn4
 BYTE   W96
// 062   ----------------------------------------
 BYTE   W96
// 063   ----------------------------------------
 BYTE   W96
// 064   ----------------------------------------
 BYTE   W96
// 065   ----------------------------------------
 BYTE   W96
// 066   ----------------------------------------
 BYTE   W96
// 067   ----------------------------------------
 BYTE   W96
// 068   ----------------------------------------
 BYTE   W96
// 069   ----------------------------------------
 BYTE   EOT
 BYTE   As3  v077
 BYTE   W96
// 070   ----------------------------------------
 BYTE   W96
// 071   ----------------------------------------
 BYTE   W96
// 072   ----------------------------------------
 BYTE   W96
// 073   ----------------------------------------
 BYTE   GoTo
  POIN2 Label_1_013877E4
 BYTE   FINE

//**************** Track 3 (Midi-Chn.2) ****************//

FE14GloryRuinDeedsMycahel_003:
// 000   ----------------------------------------
 BYTE   VOL   30*FE14GloryRuinDeedsMycahel_mvl/mxv
 BYTE   KEYSH   FE14GloryRuinDeedsMycahel_key+0
Label_2_013878B4:
 BYTE   VOICE   48
 BYTE   W96
// 001   ----------------------------------------
 BYTE   W96
// 002   ----------------------------------------
 BYTE   W96
// 003   ----------------------------------------
 BYTE   W96
// 004   ----------------------------------------
 BYTE   W96
// 005   ----------------------------------------
 BYTE   W96
// 006   ----------------------------------------
 BYTE   W96
// 007   ----------------------------------------
 BYTE   W96
// 008   ----------------------------------------
 BYTE   N12  Gn2  v096
 BYTE   N12  As2
 BYTE   W12
 BYTE   Gs2
 BYTE   N12  Bn2
 BYTE   W12
 BYTE   TIE  As2
 BYTE   TIE  Cn3
 BYTE   W72
// 009   ----------------------------------------
 BYTE   W96
// 010   ----------------------------------------
 BYTE   W96
// 011   ----------------------------------------
 BYTE   W96
// 012   ----------------------------------------
 BYTE   EOT
 BYTE   As2  v060
 BYTE   TIE  Bn2
 BYTE   TIE  Cs3
 BYTE   W96
// 013   ----------------------------------------
 BYTE   W96
// 014   ----------------------------------------
 BYTE   EOT
 BYTE   TIE
 BYTE   W96
// 015   ----------------------------------------
 BYTE   W96
// 016   ----------------------------------------
 BYTE   EOT
 BYTE   Bn2  v061
 BYTE   TIE  Gn2
 BYTE   W96
// 017   ----------------------------------------
 BYTE   W96
// 018   ----------------------------------------
 BYTE   W96
// 019   ----------------------------------------
 BYTE   W96
// 020   ----------------------------------------
 BYTE   EOT
 BYTE   TIE  Gs2
 BYTE   W96
// 021   ----------------------------------------
 BYTE   W96
// 022   ----------------------------------------
 BYTE   W96
// 023   ----------------------------------------
 BYTE   W96
// 024   ----------------------------------------
 BYTE   EOT
 BYTE   TIE  As2  v116
 BYTE   W96
// 025   ----------------------------------------
 BYTE   W96
// 026   ----------------------------------------
 BYTE   W96
// 027   ----------------------------------------
 BYTE   W96
// 028   ----------------------------------------
 BYTE   EOT
 BYTE   TIE  Cn3
 BYTE   W96
// 029   ----------------------------------------
 BYTE   W96
// 030   ----------------------------------------
 BYTE   EOT
 BYTE   TIE  Cs3
 BYTE   W96
// 031   ----------------------------------------
 BYTE   W96
// 032   ----------------------------------------
 BYTE   EOT
 BYTE   TIE  Bn2
 BYTE   TIE  En3
 BYTE   W96
// 033   ----------------------------------------
 BYTE   W96
// 034   ----------------------------------------
 BYTE   EOT
 BYTE   Bn2  v064
 BYTE   TIE  Cn3
 BYTE   TIE  Fs3
 BYTE   W96
// 035   ----------------------------------------
 BYTE   W96
// 036   ----------------------------------------
 BYTE   EOT
 BYTE   Cn3  v066
 BYTE   TIE  Dn3
 BYTE   TIE  Gn3
 BYTE   W96
// 037   ----------------------------------------
 BYTE   W96
// 038   ----------------------------------------
 BYTE   EOT
 BYTE   Dn3  v067
 BYTE   TIE  En3
 BYTE   TIE  An3
 BYTE   W96
// 039   ----------------------------------------
 BYTE   W96
// 040   ----------------------------------------
 BYTE   EOT
 BYTE   En3  v069
 BYTE   TIE  Bn2
 BYTE   TIE  Ds3
 BYTE   W96
// 041   ----------------------------------------
 BYTE   W96
// 042   ----------------------------------------
 BYTE   EOT
 BYTE   Bn2  v063
 BYTE   TIE  Cn3
 BYTE   TIE  En3
 BYTE   W96
// 043   ----------------------------------------
 BYTE   W96
// 044   ----------------------------------------
 BYTE   EOT
 BYTE   Cn3  v064
 BYTE   TIE  Cs3
 BYTE   TIE  Fs3
 BYTE   W96
// 045   ----------------------------------------
 BYTE   W96
// 046   ----------------------------------------
 BYTE   EOT
 BYTE   Cs3  v066
 BYTE   TIE  An2
 BYTE   TIE  Cs3
 BYTE   W96
// 047   ----------------------------------------
 BYTE   W96
// 048   ----------------------------------------
 BYTE   EOT
 BYTE   An2  v061
 BYTE   W96
// 049   ----------------------------------------
 BYTE   W96
// 050   ----------------------------------------
 BYTE   W72
 BYTE   W72
// 051   ----------------------------------------
 BYTE   W72
 BYTE   W72
// 052   ----------------------------------------
 BYTE   W72
 BYTE   W72
// 053   ----------------------------------------
 BYTE   W72
 BYTE   W72
// 054   ----------------------------------------
 BYTE   N96  Ds3  v096
 BYTE   W96
// 055   ----------------------------------------
 BYTE   En3
 BYTE   W96
// 056   ----------------------------------------
 BYTE   Fn3
 BYTE   W96
// 057   ----------------------------------------
 BYTE   Fs3
 BYTE   W96
// 058   ----------------------------------------
 BYTE   Gn3
 BYTE   W96
// 059   ----------------------------------------
 BYTE   Gs3
 BYTE   W96
// 060   ----------------------------------------
 BYTE   An3
 BYTE   W96
// 061   ----------------------------------------
 BYTE   As3
 BYTE   W96
// 062   ----------------------------------------
 BYTE   Fs3
 BYTE   W96
// 063   ----------------------------------------
 BYTE   Gn3
 BYTE   W96
// 064   ----------------------------------------
 BYTE   Gs3
 BYTE   W96
// 065   ----------------------------------------
 BYTE   An3
 BYTE   W96
// 066   ----------------------------------------
 BYTE   As3
 BYTE   W96
// 067   ----------------------------------------
 BYTE   Bn3
 BYTE   W96
// 068   ----------------------------------------
 BYTE   Cn4
 BYTE   W96
// 069   ----------------------------------------
 BYTE   Cs4
 BYTE   W96
// 070   ----------------------------------------
 BYTE   TIE  Dn4
 BYTE   W96
// 071   ----------------------------------------
 BYTE   W96
// 072   ----------------------------------------
 BYTE   W96
// 073   ----------------------------------------
 BYTE   W96
// 074   ----------------------------------------
 BYTE   EOT
 BYTE   GoTo
  POIN2 Label_2_013878B4
 BYTE   FINE

//**************** Track 4 (Midi-Chn.3) ****************//

FE14GloryRuinDeedsMycahel_004:
// 000   ----------------------------------------
 BYTE   VOL   40*FE14GloryRuinDeedsMycahel_mvl/mxv
 BYTE   KEYSH   FE14GloryRuinDeedsMycahel_key+0
Label_3_01387988:
 BYTE   VOICE   127
 BYTE   N24  Cn1  v116
 BYTE   N06  Dn2  v127
 BYTE   W06
 BYTE   N06
 BYTE   W12
 BYTE   N06
 BYTE   W06
 BYTE   N24  Cn1  v116
 BYTE   W12
 BYTE   N06  Dn2  v127
 BYTE   W06
 BYTE   N06
 BYTE   W06
 BYTE   N24  Cn1  v116
 BYTE   N06  Dn2  v127
 BYTE   W12
 BYTE   N06
 BYTE   W12
 BYTE   N12  Cn1  v116
 BYTE   W12
 BYTE   N12
 BYTE   N06  Dn2  v127
 BYTE   W12
// 001   ----------------------------------------
Label_3_013879B1:
 BYTE   N24  Cn1  v116
 BYTE   N06  Dn2  v127
 BYTE   W06
 BYTE   N06
 BYTE   W12
 BYTE   N06
 BYTE   W06
 BYTE   N12  Cn1  v116
 BYTE   W06
 BYTE   N06  Dn2  v127
 BYTE   W06
 BYTE   N12  Cn1  v116
 BYTE   N06  Dn2  v127
 BYTE   W12
 BYTE   N06
 BYTE   W12
 BYTE   N12  Cn1  v116
 BYTE   N06  Dn2  v127
 BYTE   W06
 BYTE   N06
 BYTE   W06
 BYTE   N12  Cn1  v116
 BYTE   W06
 BYTE   N06  Dn2  v127
 BYTE   W06
 BYTE   N06
 BYTE   W12
 BYTE   PEND 
// 002   ----------------------------------------
Label_3_013879E1:
 BYTE   N24  Cn1  v116
 BYTE   N06  Dn2  v127
 BYTE   W06
 BYTE   N06
 BYTE   W12
 BYTE   N06
 BYTE   W06
 BYTE   N24  Cn1  v116
 BYTE   W12
 BYTE   N06  Dn2  v127
 BYTE   W06
 BYTE   N06
 BYTE   W06
 BYTE   N24  Cn1  v116
 BYTE   N06  Dn2  v127
 BYTE   W12
 BYTE   N06
 BYTE   W12
 BYTE   N12  Cn1  v116
 BYTE   W12
 BYTE   N12
 BYTE   N06  Dn2  v127
 BYTE   W12
 BYTE   PEND 
 BYTE   PATT
  POIN2 Label_3_013879B1
 BYTE   PATT
  POIN2 Label_3_013879E1
 BYTE   PATT
  POIN2 Label_3_013879B1
 BYTE   PATT
  POIN2 Label_3_013879E1
 BYTE   PATT
  POIN2 Label_3_013879B1
 BYTE   PATT
  POIN2 Label_3_013879E1
 BYTE   PATT
  POIN2 Label_3_013879B1
 BYTE   PATT
  POIN2 Label_3_013879E1
 BYTE   PATT
  POIN2 Label_3_013879B1
 BYTE   PATT
  POIN2 Label_3_013879E1
 BYTE   PATT
  POIN2 Label_3_013879B1
 BYTE   PATT
  POIN2 Label_3_013879E1
 BYTE   PATT
  POIN2 Label_3_013879B1
// 003   ----------------------------------------
Label_3_01387A4A:
 BYTE   N12  Cn1  v116
 BYTE   N06  Dn2  v127
 BYTE   W06
 BYTE   N06
 BYTE   W12
 BYTE   N06
 BYTE   W18
 BYTE   N12  Cn1  v116
 BYTE   N06  Dn2  v127
 BYTE   W06
 BYTE   N06
 BYTE   W06
 BYTE   N06
 BYTE   W12
 BYTE   N12  Cn1  v116
 BYTE   N06  Dn2  v127
 BYTE   W12
 BYTE   N12  Cn1  v116
 BYTE   W12
 BYTE   N06  Dn2  v127
 BYTE   W12
 BYTE   PEND 
// 004   ----------------------------------------
Label_3_01387A70:
 BYTE   N06  Dn2  v127
 BYTE   W06
 BYTE   N06
 BYTE   W06
 BYTE   N12  Cn1  v116
 BYTE   W06
 BYTE   N06  Dn2  v127
 BYTE   W12
 BYTE   N06
 BYTE   W06
 BYTE   N12  Cn1  v116
 BYTE   N06  Dn2  v127
 BYTE   W12
 BYTE   N12  Cn1  v116
 BYTE   N06  Dn2  v127
 BYTE   W12
 BYTE   N12  Cn1  v116
 BYTE   N06  Dn2  v127
 BYTE   W06
 BYTE   N06
 BYTE   W12
 BYTE   N06
 BYTE   W06
 BYTE   N06
 BYTE   W12
 BYTE   PEND 
 BYTE   PATT
  POIN2 Label_3_01387A4A
 BYTE   PATT
  POIN2 Label_3_01387A70
 BYTE   PATT
  POIN2 Label_3_01387A4A
 BYTE   PATT
  POIN2 Label_3_01387A70
 BYTE   PATT
  POIN2 Label_3_01387A4A
 BYTE   PATT
  POIN2 Label_3_01387A70
// 005   ----------------------------------------
Label_3_01387ABA:
 BYTE   N12  Cn1  v116
 BYTE   N06  Dn2  v127
 BYTE   W06
 BYTE   N06
 BYTE   W06
 BYTE   N06
 BYTE   W12
 BYTE   N12  Cn1  v116
 BYTE   N06  Dn2  v127
 BYTE   W06
 BYTE   N06
 BYTE   W06
 BYTE   N06
 BYTE   W12
 BYTE   N12  Cn1  v116
 BYTE   N06  Dn2  v127
 BYTE   W06
 BYTE   N06
 BYTE   W06
 BYTE   N06
 BYTE   W12
 BYTE   N12  Cn1  v116
 BYTE   N06  Dn2  v127
 BYTE   W06
 BYTE   N06
 BYTE   W06
 BYTE   N06
 BYTE   W12
 BYTE   PEND 
 BYTE   PATT
  POIN2 Label_3_01387ABA
 BYTE   PATT
  POIN2 Label_3_01387ABA
 BYTE   PATT
  POIN2 Label_3_01387ABA
 BYTE   PATT
  POIN2 Label_3_01387ABA
 BYTE   PATT
  POIN2 Label_3_01387ABA
 BYTE   PATT
  POIN2 Label_3_01387ABA
 BYTE   PATT
  POIN2 Label_3_01387ABA
// 006   ----------------------------------------
Label_3_01387B0A:
 BYTE   N12  Cn1  v116
 BYTE   N06  Dn2  v127
 BYTE   W12
 BYTE   N06
 BYTE   W24
 BYTE   N12  Cn1  v116
 BYTE   N06  Dn2  v127
 BYTE   W06
 BYTE   N06
 BYTE   W06
 BYTE   N12  Cn1  v116
 BYTE   N06  Dn2  v127
 BYTE   W12
 BYTE   N12  Cn1  v116
 BYTE   N06  Dn2  v127
 BYTE   W12
 BYTE   N12  Cn1  v116
 BYTE   N06  Dn2  v127
 BYTE   W12
 BYTE   N12  Cn1  v116
 BYTE   N06  Dn2  v127
 BYTE   W12
 BYTE   PEND 
// 007   ----------------------------------------
Label_3_01387B39:
 BYTE   W12
 BYTE   N12  Cn1  v116
 BYTE   N06  Dn2  v127
 BYTE   W12
 BYTE   N12  Cn1  v116
 BYTE   N06  Dn2  v127
 BYTE   W24
 BYTE   N12  Cn1  v116
 BYTE   W12
 BYTE   N12
 BYTE   W12
 BYTE   N12
 BYTE   W24
 BYTE   PEND 
 BYTE   PATT
  POIN2 Label_3_01387B0A
 BYTE   PATT
  POIN2 Label_3_01387B39
 BYTE   PATT
  POIN2 Label_3_01387B0A
 BYTE   PATT
  POIN2 Label_3_01387B39
 BYTE   PATT
  POIN2 Label_3_01387B0A
 BYTE   PATT
  POIN2 Label_3_01387B39
 BYTE   PATT
  POIN2 Label_3_01387B0A
 BYTE   PATT
  POIN2 Label_3_01387B39
 BYTE   PATT
  POIN2 Label_3_01387B0A
 BYTE   PATT
  POIN2 Label_3_01387B39
 BYTE   PATT
  POIN2 Label_3_01387B0A
 BYTE   PATT
  POIN2 Label_3_01387B39
 BYTE   PATT
  POIN2 Label_3_01387B0A
 BYTE   PATT
  POIN2 Label_3_01387B39
// 008   ----------------------------------------
 BYTE   W96
// 009   ----------------------------------------
 BYTE   W96
// 010   ----------------------------------------
Label_3_01387B99:
 BYTE   N36  Cn1  v116
 BYTE   N06  Dn2  v127
 BYTE   W06
 BYTE   N06
 BYTE   W06
 BYTE   N06
 BYTE   W12
 BYTE   N06
 BYTE   W12
 BYTE   N36  Cn1  v116
 BYTE   N06  Dn2  v127
 BYTE   W06
 BYTE   N06
 BYTE   W06
 BYTE   N06
 BYTE   W12
 BYTE   N06
 BYTE   W12
 BYTE   PEND 
Label_3_01387BB4:
 BYTE   N36  Cn1  v116
 BYTE   N06  Dn2  v127
 BYTE   W06
 BYTE   N06
 BYTE   W06
 BYTE   N06
 BYTE   W12
// 011   ----------------------------------------
 BYTE   N06
 BYTE   W12
 BYTE   N12  Cn1  v116
 BYTE   N06  Dn2  v127
 BYTE   W06
 BYTE   N06
 BYTE   W06
 BYTE   N24  Cn1  v116
 BYTE   N06  Dn2  v127
 BYTE   W12
 BYTE   N06
 BYTE   W12
 BYTE   PEND 
 BYTE   PATT
  POIN2 Label_3_01387B99
 BYTE   PATT
  POIN2 Label_3_01387BB4
 BYTE   PATT
  POIN2 Label_3_01387B99
 BYTE   PATT
  POIN2 Label_3_01387BB4
 BYTE   PATT
  POIN2 Label_3_01387B99
 BYTE   PATT
  POIN2 Label_3_01387BB4
// 012   ----------------------------------------
Label_3_01387BF2:
 BYTE   N36  Cn1  v116
 BYTE   N06  Dn2  v127
 BYTE   W06
 BYTE   N06
 BYTE   W06
 BYTE   N06
 BYTE   W12
 BYTE   N06
 BYTE   W12
 BYTE   N36  Cn1  v116
 BYTE   N06  Dn2  v127
 BYTE   W06
 BYTE   N06
 BYTE   W06
 BYTE   N06
 BYTE   W12
 BYTE   N06
 BYTE   W12
 BYTE   N36  Cn1  v116
 BYTE   N06  Dn2  v127
 BYTE   W06
 BYTE   N06
 BYTE   W06
 BYTE   N06
 BYTE   W12
 BYTE   PEND 
// 013   ----------------------------------------
Label_3_01387C18:
 BYTE   N06  Dn2  v127
 BYTE   W12
 BYTE   N12  Cn1  v116
 BYTE   N06  Dn2  v127
 BYTE   W06
 BYTE   N06
 BYTE   W06
 BYTE   N24  Cn1  v116
 BYTE   N06  Dn2  v127
 BYTE   W12
 BYTE   N06
 BYTE   W12
 BYTE   N36  Cn1  v116
 BYTE   N06  Dn2  v127
 BYTE   W06
 BYTE   N06
 BYTE   W06
 BYTE   N06
 BYTE   W12
 BYTE   N06
 BYTE   W12
 BYTE   N36  Cn1  v116
 BYTE   N06  Dn2  v127
 BYTE   W06
 BYTE   N06
 BYTE   W06
 BYTE   PEND 
// 014   ----------------------------------------
Label_3_01387C45:
 BYTE   N06  Dn2  v127
 BYTE   W12
 BYTE   N06
 BYTE   W12
 BYTE   N36  Cn1  v116
 BYTE   N06  Dn2  v127
 BYTE   W06
 BYTE   N06
 BYTE   W06
 BYTE   N06
 BYTE   W12
 BYTE   N06
 BYTE   W12
 BYTE   N12  Cn1  v116
 BYTE   N06  Dn2  v127
 BYTE   W06
 BYTE   N06
 BYTE   W06
 BYTE   N24  Cn1  v116
 BYTE   N06  Dn2  v127
 BYTE   W12
 BYTE   N06
 BYTE   W12
 BYTE   PEND 
 BYTE   PATT
  POIN2 Label_3_01387BF2
 BYTE   PATT
  POIN2 Label_3_01387C18
 BYTE   PATT
  POIN2 Label_3_01387C45
 BYTE   PATT
  POIN2 Label_3_01387BF2
 BYTE   PATT
  POIN2 Label_3_01387C18
 BYTE   PATT
  POIN2 Label_3_01387C45
 BYTE   PATT
  POIN2 Label_3_01387BF2
 BYTE   PATT
  POIN2 Label_3_01387C18
 BYTE   PATT
  POIN2 Label_3_01387C45
 BYTE   PATT
  POIN2 Label_3_01387BF2
 BYTE   PATT
  POIN2 Label_3_01387C18
 BYTE   PATT
  POIN2 Label_3_01387C45
// 015   ----------------------------------------
 BYTE   N36  Cn1  v116
 BYTE   N06  Dn2  v127
 BYTE   W06
 BYTE   N06
 BYTE   W06
 BYTE   N06
 BYTE   W12
 BYTE   N06
 BYTE   W12
 BYTE   N36  Cn1  v116
 BYTE   N06  Dn2  v127
 BYTE   W06
 BYTE   N06
 BYTE   W06
 BYTE   N06
 BYTE   W12
 BYTE   N06
 BYTE   W12
 BYTE   N24  Cn1  v116
 BYTE   N06  Dn2  v127
 BYTE   W06
 BYTE   N06
 BYTE   W06
 BYTE   N06
 BYTE   W12
 BYTE   PATT
  POIN2 Label_3_013879E1
 BYTE   PATT
  POIN2 Label_3_013879B1
 BYTE   PATT
  POIN2 Label_3_013879E1
 BYTE   PATT
  POIN2 Label_3_013879B1
// 016   ----------------------------------------
 BYTE   GoTo
  POIN2 Label_3_01387988
 BYTE   FINE

//**************** Track 5 (Midi-Chn.4) ****************//

FE14GloryRuinDeedsMycahel_005:
// 000   ----------------------------------------
 BYTE   VOL   25*FE14GloryRuinDeedsMycahel_mvl/mxv
 BYTE   KEYSH   FE14GloryRuinDeedsMycahel_key+0
Label_4_01387CEC:
 BYTE   VOICE   48
 BYTE   N06  Cn4  v127
 BYTE   W06
 BYTE   N06
 BYTE   W06
 BYTE   Gn4
 BYTE   W06
 BYTE   N06
 BYTE   W06
 BYTE   Fs4
 BYTE   W06
 BYTE   N06
 BYTE   W06
 BYTE   Cn4
 BYTE   W06
 BYTE   N06
 BYTE   W06
 BYTE   Fn4
 BYTE   W06
 BYTE   N06
 BYTE   W06
 BYTE   Ds4
 BYTE   W06
 BYTE   N06
 BYTE   W06
 BYTE   Cn4
 BYTE   W06
 BYTE   N06
 BYTE   W06
 BYTE   Dn4
 BYTE   W06
 BYTE   N06
 BYTE   W06
// 001   ----------------------------------------
Label_4_01387D10:
 BYTE   N06  Ds4  v127
 BYTE   W06
 BYTE   N06
 BYTE   W06
 BYTE   Fn4
 BYTE   W06
 BYTE   N06
 BYTE   W06
 BYTE   Ds4
 BYTE   W06
 BYTE   N06
 BYTE   W06
 BYTE   Cn4
 BYTE   W06
 BYTE   N06
 BYTE   W06
 BYTE   Dn4
 BYTE   W06
 BYTE   N06
 BYTE   W06
 BYTE   Cn4
 BYTE   W06
 BYTE   N06
 BYTE   W06
 BYTE   Cs4
 BYTE   W06
 BYTE   N06
 BYTE   W06
 BYTE   Bn3
 BYTE   W06
 BYTE   N06
 BYTE   W06
 BYTE   PEND 
// 002   ----------------------------------------
Label_4_01387D33:
 BYTE   N06  Cn4  v127
 BYTE   W06
 BYTE   N06
 BYTE   W06
 BYTE   Gn4
 BYTE   W06
 BYTE   N06
 BYTE   W06
 BYTE   Fs4
 BYTE   W06
 BYTE   N06
 BYTE   W06
 BYTE   Cn4
 BYTE   W06
 BYTE   N06
 BYTE   W06
 BYTE   Fn4
 BYTE   W06
 BYTE   N06
 BYTE   W06
 BYTE   Ds4
 BYTE   W06
 BYTE   N06
 BYTE   W06
 BYTE   Cn4
 BYTE   W06
 BYTE   N06
 BYTE   W06
 BYTE   Dn4
 BYTE   W06
 BYTE   N06
 BYTE   W06
 BYTE   PEND 
 BYTE   PATT
  POIN2 Label_4_01387D10
// 003   ----------------------------------------
Label_4_01387D5B:
 BYTE   N06  Cn4  v127
 BYTE   W06
 BYTE   N06
 BYTE   W06
 BYTE   Gn3
 BYTE   W06
 BYTE   N06
 BYTE   W06
 BYTE   Cn4
 BYTE   W06
 BYTE   N06
 BYTE   W06
 BYTE   Gn4
 BYTE   W06
 BYTE   N06
 BYTE   W06
 BYTE   Fs4
 BYTE   W06
 BYTE   N06
 BYTE   W06
 BYTE   Cn4
 BYTE   W06
 BYTE   N06
 BYTE   W06
 BYTE   Fn4
 BYTE   W06
 BYTE   N06
 BYTE   W06
 BYTE   Ds4
 BYTE   W06
 BYTE   N06
 BYTE   W06
 BYTE   PEND 
// 004   ----------------------------------------
Label_4_01387D7E:
 BYTE   N06  Cn4  v127
 BYTE   W06
 BYTE   N06
 BYTE   W06
 BYTE   Dn4
 BYTE   W06
 BYTE   N06
 BYTE   W06
 BYTE   Ds4
 BYTE   W06
 BYTE   N06
 BYTE   W06
 BYTE   Fn4
 BYTE   W06
 BYTE   N06
 BYTE   W06
 BYTE   Ds4
 BYTE   W06
 BYTE   N06
 BYTE   W06
 BYTE   Cn4
 BYTE   W06
 BYTE   N06
 BYTE   W06
 BYTE   Dn4
 BYTE   W06
 BYTE   N06
 BYTE   W06
 BYTE   Cn4
 BYTE   W06
 BYTE   N06
 BYTE   W06
 BYTE   PEND 
 BYTE   PATT
  POIN2 Label_4_01387D5B
// 005   ----------------------------------------
Label_4_01387DA6:
 BYTE   N06  Cn4  v127
 BYTE   W06
 BYTE   N06
 BYTE   W06
 BYTE   Dn4
 BYTE   W06
 BYTE   N06
 BYTE   W06
 BYTE   Ds4
 BYTE   W06
 BYTE   N06
 BYTE   W06
 BYTE   Fn4
 BYTE   W06
 BYTE   N06
 BYTE   W06
 BYTE   Ds4
 BYTE   W06
 BYTE   N06
 BYTE   W06
 BYTE   Cn4
 BYTE   W06
 BYTE   N06
 BYTE   W06
 BYTE   Dn4
 BYTE   W06
 BYTE   N06
 BYTE   W06
 BYTE   Gn4
 BYTE   W06
 BYTE   N06
 BYTE   W06
 BYTE   PEND 
 BYTE   PATT
  POIN2 Label_4_01387D33
 BYTE   PATT
  POIN2 Label_4_01387D10
 BYTE   PATT
  POIN2 Label_4_01387D33
 BYTE   PATT
  POIN2 Label_4_01387D10
 BYTE   PATT
  POIN2 Label_4_01387D5B
 BYTE   PATT
  POIN2 Label_4_01387D7E
 BYTE   PATT
  POIN2 Label_4_01387D5B
 BYTE   PATT
  POIN2 Label_4_01387DA6
// 006   ----------------------------------------
 BYTE   N03  Gn2  v104
 BYTE   W06
 BYTE   N03
 BYTE   W06
 BYTE   N03
 BYTE   W12
 BYTE   Gs2
 BYTE   W06
 BYTE   N03
 BYTE   W06
 BYTE   N03
 BYTE   W12
 BYTE   As2
 BYTE   W06
 BYTE   N03
 BYTE   W06
 BYTE   N03
 BYTE   W12
 BYTE   Cn3
 BYTE   W06
 BYTE   N03
 BYTE   W06
 BYTE   N03
 BYTE   W12
// 007   ----------------------------------------
 BYTE   Cs3
 BYTE   W06
 BYTE   N03
 BYTE   W06
 BYTE   N03
 BYTE   W12
 BYTE   Cn3
 BYTE   W06
 BYTE   N03
 BYTE   W06
 BYTE   N03
 BYTE   W12
 BYTE   As2
 BYTE   W06
 BYTE   N03
 BYTE   W06
 BYTE   N03
 BYTE   W12
 BYTE   Cn3
 BYTE   W06
 BYTE   N03
 BYTE   W06
 BYTE   N03
 BYTE   W12
// 008   ----------------------------------------
 BYTE   Cs3
 BYTE   W06
 BYTE   N03
 BYTE   W06
 BYTE   N03
 BYTE   W12
 BYTE   Ds3
 BYTE   W06
 BYTE   N03
 BYTE   W06
 BYTE   N03
 BYTE   W12
 BYTE   En3
 BYTE   W06
 BYTE   N03
 BYTE   W06
 BYTE   N03
 BYTE   W12
 BYTE   Cn3
 BYTE   W06
 BYTE   N03
 BYTE   W06
 BYTE   N03
 BYTE   W12
// 009   ----------------------------------------
 BYTE   Bn2
 BYTE   W06
 BYTE   N03
 BYTE   W06
 BYTE   N03
 BYTE   W12
 BYTE   Cn3
 BYTE   W06
 BYTE   N03
 BYTE   W06
 BYTE   N03
 BYTE   W12
 BYTE   As2
 BYTE   W06
 BYTE   N03
 BYTE   W06
 BYTE   N03
 BYTE   W12
 BYTE   An2
 BYTE   W06
 BYTE   N03
 BYTE   W06
 BYTE   N03
 BYTE   W12
// 010   ----------------------------------------
 BYTE   Gs2
 BYTE   W06
 BYTE   N03
 BYTE   W06
 BYTE   N03
 BYTE   W12
 BYTE   Ds3
 BYTE   W06
 BYTE   N03
 BYTE   W06
 BYTE   N03
 BYTE   W12
 BYTE   Dn3
 BYTE   W06
 BYTE   N03
 BYTE   W06
 BYTE   N03
 BYTE   W12
 BYTE   Cs3
 BYTE   W06
 BYTE   N03
 BYTE   W06
 BYTE   N03
 BYTE   W12
// 011   ----------------------------------------
 BYTE   N03
 BYTE   W06
 BYTE   N03
 BYTE   W06
 BYTE   N03
 BYTE   W12
 BYTE   Fs3
 BYTE   W06
 BYTE   N03
 BYTE   W06
 BYTE   N03
 BYTE   W12
 BYTE   Fn3
 BYTE   W06
 BYTE   N03
 BYTE   W06
 BYTE   N03
 BYTE   W12
 BYTE   Ds3
 BYTE   W06
 BYTE   N03
 BYTE   W06
 BYTE   N03
 BYTE   W12
// 012   ----------------------------------------
 BYTE   Fn3
 BYTE   W06
 BYTE   N03
 BYTE   W06
 BYTE   N03
 BYTE   W12
 BYTE   An2
 BYTE   W06
 BYTE   N03
 BYTE   W06
 BYTE   N03
 BYTE   W12
 BYTE   Cn3
 BYTE   W06
 BYTE   N03
 BYTE   W06
 BYTE   N03
 BYTE   W12
 BYTE   Cs3
 BYTE   W06
 BYTE   N03
 BYTE   W06
 BYTE   N03
 BYTE   W12
// 013   ----------------------------------------
 BYTE   Ds3
 BYTE   W06
 BYTE   N03
 BYTE   W06
 BYTE   N03
 BYTE   W12
 BYTE   En3
 BYTE   W06
 BYTE   N03
 BYTE   W06
 BYTE   N03
 BYTE   W12
 BYTE   Fs3
 BYTE   W06
 BYTE   N03
 BYTE   W06
 BYTE   N03
 BYTE   W12
 BYTE   Gs3
 BYTE   W06
 BYTE   N03
 BYTE   W06
 BYTE   N03
 BYTE   W12
// 014   ----------------------------------------
 BYTE   Gn3
 BYTE   W06
 BYTE   N03
 BYTE   W06
 BYTE   N03
 BYTE   W12
 BYTE   Gs3
 BYTE   W06
 BYTE   N03
 BYTE   W06
 BYTE   N03
 BYTE   W12
 BYTE   As3
 BYTE   W06
 BYTE   N03
 BYTE   W06
 BYTE   N03
 BYTE   W12
 BYTE   Cn4
 BYTE   W06
 BYTE   N03
 BYTE   W06
 BYTE   N03
 BYTE   W12
// 015   ----------------------------------------
 BYTE   Cs4
 BYTE   W06
 BYTE   N03
 BYTE   W06
 BYTE   N03
 BYTE   W12
 BYTE   Cn4
 BYTE   W06
 BYTE   N03
 BYTE   W06
 BYTE   N03
 BYTE   W12
 BYTE   As3
 BYTE   W06
 BYTE   N03
 BYTE   W06
 BYTE   N03
 BYTE   W12
 BYTE   Cn4
 BYTE   W06
 BYTE   N03
 BYTE   W06
 BYTE   N03
 BYTE   W12
// 016   ----------------------------------------
 BYTE   Cs4
 BYTE   W06
 BYTE   N03
 BYTE   W06
 BYTE   N03
 BYTE   W12
 BYTE   Ds4
 BYTE   W06
 BYTE   N03
 BYTE   W06
 BYTE   N03
 BYTE   W12
 BYTE   En4
 BYTE   W06
 BYTE   N03
 BYTE   W06
 BYTE   N03
 BYTE   W12
 BYTE   Cn4
 BYTE   W06
 BYTE   N03
 BYTE   W06
 BYTE   N03
 BYTE   W12
// 017   ----------------------------------------
 BYTE   Bn3
 BYTE   W06
 BYTE   N03
 BYTE   W06
 BYTE   N03
 BYTE   W12
 BYTE   Cn4
 BYTE   W06
 BYTE   N03
 BYTE   W06
 BYTE   N03
 BYTE   W12
 BYTE   As3
 BYTE   W06
 BYTE   N03
 BYTE   W06
 BYTE   N03
 BYTE   W12
 BYTE   An3
 BYTE   W06
 BYTE   N03
 BYTE   W06
 BYTE   N03
 BYTE   W12
// 018   ----------------------------------------
 BYTE   Gs3
 BYTE   W06
 BYTE   N03
 BYTE   W06
 BYTE   N03
 BYTE   W12
 BYTE   Ds4
 BYTE   W06
 BYTE   N03
 BYTE   W06
 BYTE   N03
 BYTE   W12
 BYTE   Dn4
 BYTE   W06
 BYTE   N03
 BYTE   W06
 BYTE   N03
 BYTE   W12
 BYTE   Cs4
 BYTE   W06
 BYTE   N03
 BYTE   W06
 BYTE   N03
 BYTE   W12
// 019   ----------------------------------------
 BYTE   N03
 BYTE   W06
 BYTE   N03
 BYTE   W06
 BYTE   N03
 BYTE   W12
 BYTE   Fs4
 BYTE   W06
 BYTE   N03
 BYTE   W06
 BYTE   N03
 BYTE   W12
 BYTE   Fn4
 BYTE   W06
 BYTE   N03
 BYTE   W06
 BYTE   N03
 BYTE   W12
 BYTE   Ds4
 BYTE   W06
 BYTE   N03
 BYTE   W06
 BYTE   N03
 BYTE   W12
// 020   ----------------------------------------
 BYTE   Fn4
 BYTE   W06
 BYTE   N03
 BYTE   W06
 BYTE   N03
 BYTE   W12
 BYTE   An3
 BYTE   W06
 BYTE   N03
 BYTE   W06
 BYTE   N03
 BYTE   W12
 BYTE   Cn4
 BYTE   W06
 BYTE   N03
 BYTE   W06
 BYTE   N03
 BYTE   W12
 BYTE   Cs4
 BYTE   W06
 BYTE   N03
 BYTE   W06
 BYTE   N03
 BYTE   W12
// 021   ----------------------------------------
 BYTE   Ds4
 BYTE   W06
 BYTE   N03
 BYTE   W06
 BYTE   N03
 BYTE   W12
 BYTE   En4
 BYTE   W06
 BYTE   N03
 BYTE   W06
 BYTE   N03
 BYTE   W12
 BYTE   Fs4
 BYTE   W06
 BYTE   N03
 BYTE   W06
 BYTE   N03
 BYTE   W12
 BYTE   Gs4
 BYTE   W06
 BYTE   N03
 BYTE   W06
 BYTE   N03
 BYTE   W12
// 022   ----------------------------------------
 BYTE   W96
// 023   ----------------------------------------
 BYTE   W96
// 024   ----------------------------------------
 BYTE   W96
// 025   ----------------------------------------
 BYTE   W96
// 026   ----------------------------------------
 BYTE   W96
// 027   ----------------------------------------
 BYTE   W96
// 028   ----------------------------------------
 BYTE   W96
// 029   ----------------------------------------
 BYTE   W96
// 030   ----------------------------------------
 BYTE   W96
// 031   ----------------------------------------
 BYTE   W96
// 032   ----------------------------------------
 BYTE   W96
// 033   ----------------------------------------
 BYTE   W96
// 034   ----------------------------------------
 BYTE   W96
// 035   ----------------------------------------
 BYTE   W96
// 036   ----------------------------------------
 BYTE   W96
// 037   ----------------------------------------
 BYTE   W96
// 038   ----------------------------------------
 BYTE   W96
// 039   ----------------------------------------
 BYTE   W96
// 040   ----------------------------------------
Label_4_01387F85:
 BYTE   N12  Cn2  v096
 BYTE   N12  Gs3
 BYTE   W12
 BYTE   Gn2
 BYTE   N12  Gs3
 BYTE   W12
 BYTE   Cs3
 BYTE   W12
 BYTE   Cn2  v100
 BYTE   N12  Fn3  v096
 BYTE   W12
 BYTE   Gn2  v100
 BYTE   N12  Fn3  v096
 BYTE   W12
 BYTE   Cn3  v100
 BYTE   W12
 BYTE   PEND 
Label_4_01387FA1:
 BYTE   N12  Cn2  v100
 BYTE   N12  Fs3  v096
 BYTE   W12
 BYTE   Gn2  v100
 BYTE   N12  Fs3  v096
 BYTE   W12
// 041   ----------------------------------------
 BYTE   Bn2  v100
 BYTE   W12
 BYTE   Cn2
 BYTE   N12  An3  v096
 BYTE   W12
 BYTE   Gn2  v100
 BYTE   N12  An3  v096
 BYTE   W12
 BYTE   As2  v100
 BYTE   W12
 BYTE   PEND 
 BYTE   PATT
  POIN2 Label_4_01387F85
 BYTE   PATT
  POIN2 Label_4_01387FA1
 BYTE   PATT
  POIN2 Label_4_01387F85
 BYTE   PATT
  POIN2 Label_4_01387FA1
 BYTE   PATT
  POIN2 Label_4_01387F85
 BYTE   PATT
  POIN2 Label_4_01387FA1
 BYTE   PATT
  POIN2 Label_4_01387D33
 BYTE   PATT
  POIN2 Label_4_01387D10
 BYTE   PATT
  POIN2 Label_4_01387D33
 BYTE   PATT
  POIN2 Label_4_01387D10
 BYTE   PATT
  POIN2 Label_4_01387D5B
 BYTE   PATT
  POIN2 Label_4_01387D7E
 BYTE   PATT
  POIN2 Label_4_01387D5B
 BYTE   PATT
  POIN2 Label_4_01387DA6
// 042   ----------------------------------------
Label_4_01388006:
 BYTE   N06  As3  v127
 BYTE   W06
 BYTE   N06
 BYTE   W06
 BYTE   Fn4
 BYTE   W06
 BYTE   N06
 BYTE   W06
 BYTE   En4
 BYTE   W06
 BYTE   N06
 BYTE   W06
 BYTE   As3
 BYTE   W06
 BYTE   N06
 BYTE   W06
 BYTE   Ds4
 BYTE   W06
 BYTE   N06
 BYTE   W06
 BYTE   Cs4
 BYTE   W06
 BYTE   N06
 BYTE   W06
 BYTE   As3
 BYTE   W06
 BYTE   N06
 BYTE   W06
 BYTE   Cn4
 BYTE   W06
 BYTE   N06
 BYTE   W06
 BYTE   PEND 
// 043   ----------------------------------------
Label_4_01388029:
 BYTE   N06  Cs4  v127
 BYTE   W06
 BYTE   N06
 BYTE   W06
 BYTE   Ds4
 BYTE   W06
 BYTE   N06
 BYTE   W06
 BYTE   Cs4
 BYTE   W06
 BYTE   N06
 BYTE   W06
 BYTE   As3
 BYTE   W06
 BYTE   N06
 BYTE   W06
 BYTE   Cn4
 BYTE   W06
 BYTE   N06
 BYTE   W06
 BYTE   As3
 BYTE   W06
 BYTE   N06
 BYTE   W06
 BYTE   Bn3
 BYTE   W06
 BYTE   N06
 BYTE   W06
 BYTE   An3
 BYTE   W06
 BYTE   N06
 BYTE   W06
 BYTE   PEND 
 BYTE   PATT
  POIN2 Label_4_01388006
 BYTE   PATT
  POIN2 Label_4_01388029
// 044   ----------------------------------------
Label_4_01388056:
 BYTE   N06  As3  v127
 BYTE   W06
 BYTE   N06
 BYTE   W06
 BYTE   Fn3
 BYTE   W06
 BYTE   N06
 BYTE   W06
 BYTE   As3
 BYTE   W06
 BYTE   N06
 BYTE   W06
 BYTE   Fn4
 BYTE   W06
 BYTE   N06
 BYTE   W06
 BYTE   En4
 BYTE   W06
 BYTE   N06
 BYTE   W06
 BYTE   As3
 BYTE   W06
 BYTE   N06
 BYTE   W06
 BYTE   Ds4
 BYTE   W06
 BYTE   N06
 BYTE   W06
 BYTE   Cs4
 BYTE   W06
 BYTE   N06
 BYTE   W06
 BYTE   PEND 
// 045   ----------------------------------------
 BYTE   As3
 BYTE   W06
 BYTE   N06
 BYTE   W06
 BYTE   Cn4
 BYTE   W06
 BYTE   N06
 BYTE   W06
 BYTE   Cs4
 BYTE   W06
 BYTE   N06
 BYTE   W06
 BYTE   Ds4
 BYTE   W06
 BYTE   N06
 BYTE   W06
 BYTE   Cs4
 BYTE   W06
 BYTE   N06
 BYTE   W06
 BYTE   As3
 BYTE   W06
 BYTE   N06
 BYTE   W06
 BYTE   Cn4
 BYTE   W06
 BYTE   N06
 BYTE   W06
 BYTE   As3
 BYTE   W06
 BYTE   N06
 BYTE   W06
 BYTE   PATT
  POIN2 Label_4_01388056
// 046   ----------------------------------------
 BYTE   N06  As3  v127
 BYTE   W06
 BYTE   N06
 BYTE   W06
 BYTE   Cn4
 BYTE   W06
 BYTE   N06
 BYTE   W06
 BYTE   Cs4
 BYTE   W06
 BYTE   N06
 BYTE   W06
 BYTE   Ds4
 BYTE   W06
 BYTE   N06
 BYTE   W06
 BYTE   Cs4
 BYTE   W06
 BYTE   N06
 BYTE   W06
 BYTE   As3
 BYTE   W06
 BYTE   N06
 BYTE   W06
 BYTE   Cn4
 BYTE   W06
 BYTE   N06
 BYTE   W06
 BYTE   Fn4
 BYTE   W06
 BYTE   N06
 BYTE   W06
// 047   ----------------------------------------
Label_4_013880C0:
 BYTE   N06  Cn4  v127
 BYTE   W06
 BYTE   N06
 BYTE   W06
 BYTE   Fn4
 BYTE   W06
 BYTE   N06
 BYTE   W06
 BYTE   Ds4
 BYTE   W06
 BYTE   N06
 BYTE   W06
 BYTE   Cn4
 BYTE   W06
 BYTE   N06
 BYTE   W06
 BYTE   Ds4
 BYTE   W06
 BYTE   N06
 BYTE   W06
 BYTE   Dn4
 BYTE   W06
 BYTE   N06
 BYTE   W06
 BYTE   Cn4
 BYTE   W06
 BYTE   N06
 BYTE   W06
 BYTE   Dn4
 BYTE   W06
 BYTE   N06
 BYTE   W06
 BYTE   PEND 
// 048   ----------------------------------------
Label_4_013880E3:
 BYTE   N06  Fn4  v127
 BYTE   W06
 BYTE   N06
 BYTE   W06
 BYTE   Ds4
 BYTE   W06
 BYTE   N06
 BYTE   W06
 BYTE   Cn4
 BYTE   W06
 BYTE   N06
 BYTE   W06
 BYTE   Gn4
 BYTE   W06
 BYTE   N06
 BYTE   W06
 BYTE   Fn4
 BYTE   W06
 BYTE   N06
 BYTE   W06
 BYTE   Cn4
 BYTE   W06
 BYTE   N06
 BYTE   W06
 BYTE   Ds4
 BYTE   W06
 BYTE   N06
 BYTE   W06
 BYTE   Dn4
 BYTE   W06
 BYTE   N06
 BYTE   W06
 BYTE   PEND 
 BYTE   PATT
  POIN2 Label_4_013880C0
 BYTE   PATT
  POIN2 Label_4_013880E3
// 049   ----------------------------------------
 BYTE   GoTo
  POIN2 Label_4_01387CEC
 BYTE   FINE

//**************** Track 6 (Midi-Chn.5) ****************//

FE14GloryRuinDeedsMycahel_006:
// 000   ----------------------------------------
 BYTE   VOL   40*FE14GloryRuinDeedsMycahel_mvl/mxv
 BYTE   KEYSH   FE14GloryRuinDeedsMycahel_key+0
Label_5_0138811C:
 BYTE   VOICE   119
 BYTE   W96
// 001   ----------------------------------------
 BYTE   W96
// 002   ----------------------------------------
 BYTE   W96
// 003   ----------------------------------------
 BYTE   W96
// 004   ----------------------------------------
 BYTE   W96
// 005   ----------------------------------------
 BYTE   W96
// 006   ----------------------------------------
 BYTE   W96
// 007   ----------------------------------------
 BYTE   W96
// 008   ----------------------------------------
 BYTE   W96
// 009   ----------------------------------------
 BYTE   W96
// 010   ----------------------------------------
 BYTE   W96
// 011   ----------------------------------------
 BYTE   W96
// 012   ----------------------------------------
 BYTE   W96
// 013   ----------------------------------------
 BYTE   W96
// 014   ----------------------------------------
 BYTE   W96
// 015   ----------------------------------------
Label_5_0138812D:
 BYTE   W72
 BYTE   TIE  Fn3  v104
 BYTE   W24
 BYTE   PEND 
// 016   ----------------------------------------
 BYTE   W96
// 017   ----------------------------------------
 BYTE   W48
 BYTE   EOT
 BYTE   W48
// 018   ----------------------------------------
 BYTE   W96
// 019   ----------------------------------------
 BYTE   W96
// 020   ----------------------------------------
 BYTE   W96
// 021   ----------------------------------------
 BYTE   W96
// 022   ----------------------------------------
 BYTE   W96
// 023   ----------------------------------------
 BYTE   W96
// 024   ----------------------------------------
 BYTE   W96
// 025   ----------------------------------------
 BYTE   W96
// 026   ----------------------------------------
 BYTE   W96
// 027   ----------------------------------------
 BYTE   W96
// 028   ----------------------------------------
 BYTE   W96
// 029   ----------------------------------------
 BYTE   W96
// 030   ----------------------------------------
 BYTE   W96
 BYTE   PATT
  POIN2 Label_5_0138812D
// 031   ----------------------------------------
 BYTE   W96
// 032   ----------------------------------------
 BYTE   W48
 BYTE   EOT
 BYTE   Fn3
 BYTE   W48
// 033   ----------------------------------------
 BYTE   W96
// 034   ----------------------------------------
 BYTE   W96
// 035   ----------------------------------------
 BYTE   W96
// 036   ----------------------------------------
 BYTE   W96
// 037   ----------------------------------------
 BYTE   W96
// 038   ----------------------------------------
 BYTE   W96
// 039   ----------------------------------------
 BYTE   W96
// 040   ----------------------------------------
 BYTE   W96
// 041   ----------------------------------------
 BYTE   W96
// 042   ----------------------------------------
 BYTE   W96
// 043   ----------------------------------------
 BYTE   W96
// 044   ----------------------------------------
 BYTE   W96
// 045   ----------------------------------------
 BYTE   W96
// 046   ----------------------------------------
 BYTE   W96
// 047   ----------------------------------------
 BYTE   W96
 BYTE   PATT
  POIN2 Label_5_0138812D
// 048   ----------------------------------------
 BYTE   W72
 BYTE   W72
// 049   ----------------------------------------
 BYTE   EOT
 BYTE   Fn3
 BYTE   W72
 BYTE   W72
// 050   ----------------------------------------
 BYTE   W72
 BYTE   W72
// 051   ----------------------------------------
 BYTE   W72
 BYTE   W72
// 052   ----------------------------------------
 BYTE   W96
// 053   ----------------------------------------
 BYTE   W96
// 054   ----------------------------------------
 BYTE   W96
// 055   ----------------------------------------
 BYTE   W96
// 056   ----------------------------------------
 BYTE   W96
// 057   ----------------------------------------
 BYTE   W96
// 058   ----------------------------------------
 BYTE   W96
// 059   ----------------------------------------
 BYTE   W96
// 060   ----------------------------------------
 BYTE   W96
// 061   ----------------------------------------
 BYTE   W96
// 062   ----------------------------------------
 BYTE   W96
// 063   ----------------------------------------
 BYTE   W96
// 064   ----------------------------------------
 BYTE   W96
// 065   ----------------------------------------
 BYTE   W96
// 066   ----------------------------------------
 BYTE   W96
// 067   ----------------------------------------
 BYTE   W96
// 068   ----------------------------------------
 BYTE   W96
// 069   ----------------------------------------
 BYTE   W96
// 070   ----------------------------------------
 BYTE   W96
// 071   ----------------------------------------
 BYTE   W96
// 072   ----------------------------------------
 BYTE   GoTo
  POIN2 Label_5_0138811C
 BYTE   FINE

//**************** Track 7 (Midi-Chn.6) ****************//

FE14GloryRuinDeedsMycahel_007:
// 000   ----------------------------------------
 BYTE   VOL   55*FE14GloryRuinDeedsMycahel_mvl/mxv
 BYTE   KEYSH   FE14GloryRuinDeedsMycahel_key+0
Label_6_0138818C:
 BYTE   VOICE   40
 BYTE   N12  Cn1  v116
 BYTE   W36
 BYTE   N12
 BYTE   W36
 BYTE   N12
 BYTE   W24
// 001   ----------------------------------------
Label_6_01388196:
 BYTE   W36
 BYTE   N12  Cn1  v116
 BYTE   W24
 BYTE   N36
 BYTE   W36
 BYTE   PEND 
// 002   ----------------------------------------
Label_6_0138819E:
 BYTE   N12  Cn1  v116
 BYTE   W36
 BYTE   N12
 BYTE   W36
 BYTE   N12
 BYTE   W24
 BYTE   PEND 
 BYTE   PATT
  POIN2 Label_6_01388196
 BYTE   PATT
  POIN2 Label_6_0138819E
 BYTE   PATT
  POIN2 Label_6_01388196
 BYTE   PATT
  POIN2 Label_6_0138819E
 BYTE   PATT
  POIN2 Label_6_01388196
 BYTE   PATT
  POIN2 Label_6_0138819E
 BYTE   PATT
  POIN2 Label_6_01388196
 BYTE   PATT
  POIN2 Label_6_0138819E
 BYTE   PATT
  POIN2 Label_6_01388196
 BYTE   PATT
  POIN2 Label_6_0138819E
 BYTE   PATT
  POIN2 Label_6_01388196
 BYTE   PATT
  POIN2 Label_6_0138819E
 BYTE   PATT
  POIN2 Label_6_01388196
// 003   ----------------------------------------
Label_6_013881E8:
 BYTE   N12  Gn0  v116
 BYTE   W36
 BYTE   N12
 BYTE   W36
 BYTE   N12
 BYTE   W24
 BYTE   PEND 
// 004   ----------------------------------------
Label_6_013881F1:
 BYTE   W36
 BYTE   N12  Gn0  v116
 BYTE   W24
 BYTE   N36
 BYTE   W36
 BYTE   PEND 
 BYTE   PATT
  POIN2 Label_6_013881E8
 BYTE   PATT
  POIN2 Label_6_013881F1
// 005   ----------------------------------------
Label_6_01388203:
 BYTE   N12  Gs0  v116
 BYTE   W36
 BYTE   N12
 BYTE   W36
 BYTE   N12
 BYTE   W24
 BYTE   PEND 
// 006   ----------------------------------------
Label_6_0138820C:
 BYTE   W36
 BYTE   N12  Gs0  v116
 BYTE   W24
 BYTE   N36
 BYTE   W36
 BYTE   PEND 
 BYTE   PATT
  POIN2 Label_6_01388203
 BYTE   PATT
  POIN2 Label_6_0138820C
 BYTE   PATT
  POIN2 Label_6_013881E8
 BYTE   PATT
  POIN2 Label_6_013881F1
 BYTE   PATT
  POIN2 Label_6_013881E8
 BYTE   PATT
  POIN2 Label_6_013881F1
 BYTE   PATT
  POIN2 Label_6_01388203
 BYTE   PATT
  POIN2 Label_6_0138820C
 BYTE   PATT
  POIN2 Label_6_01388203
 BYTE   PATT
  POIN2 Label_6_0138820C
// 007   ----------------------------------------
 BYTE   W96
// 008   ----------------------------------------
 BYTE   W96
// 009   ----------------------------------------
 BYTE   W96
// 010   ----------------------------------------
 BYTE   W96
// 011   ----------------------------------------
 BYTE   W96
// 012   ----------------------------------------
 BYTE   W96
// 013   ----------------------------------------
 BYTE   W96
// 014   ----------------------------------------
 BYTE   W96
// 015   ----------------------------------------
 BYTE   W96
// 016   ----------------------------------------
 BYTE   W96
// 017   ----------------------------------------
 BYTE   W96
// 018   ----------------------------------------
 BYTE   W96
// 019   ----------------------------------------
 BYTE   W96
// 020   ----------------------------------------
 BYTE   W96
// 021   ----------------------------------------
 BYTE   W96
// 022   ----------------------------------------
 BYTE   W96
// 023   ----------------------------------------
 BYTE   W96
// 024   ----------------------------------------
 BYTE   W96
// 025   ----------------------------------------
Label_6_01388258:
 BYTE   N12  As0  v116
 BYTE   W36
 BYTE   N12
 BYTE   W36
 BYTE   PEND 
Label_6_0138825F:
 BYTE   N12  As0  v116
 BYTE   W48
// 026   ----------------------------------------
 BYTE   N12
 BYTE   W24
 BYTE   PEND 
 BYTE   PATT
  POIN2 Label_6_01388258
 BYTE   PATT
  POIN2 Label_6_0138825F
 BYTE   PATT
  POIN2 Label_6_01388258
 BYTE   PATT
  POIN2 Label_6_0138825F
 BYTE   PATT
  POIN2 Label_6_01388258
 BYTE   PATT
  POIN2 Label_6_0138825F
 BYTE   PATT
  POIN2 Label_6_0138819E
 BYTE   PATT
  POIN2 Label_6_01388196
 BYTE   PATT
  POIN2 Label_6_0138819E
 BYTE   PATT
  POIN2 Label_6_01388196
 BYTE   PATT
  POIN2 Label_6_0138819E
 BYTE   PATT
  POIN2 Label_6_01388196
 BYTE   PATT
  POIN2 Label_6_0138819E
 BYTE   PATT
  POIN2 Label_6_01388196
// 027   ----------------------------------------
Label_6_013882AC:
 BYTE   N12  Cs1  v116
 BYTE   W36
 BYTE   N12
 BYTE   W36
 BYTE   N12
 BYTE   W24
 BYTE   PEND 
// 028   ----------------------------------------
Label_6_013882B5:
 BYTE   W36
 BYTE   N12  Cs1  v116
 BYTE   W24
 BYTE   N36
 BYTE   W36
 BYTE   PEND 
 BYTE   PATT
  POIN2 Label_6_013882AC
 BYTE   PATT
  POIN2 Label_6_013882B5
 BYTE   PATT
  POIN2 Label_6_013882AC
 BYTE   PATT
  POIN2 Label_6_013882B5
 BYTE   PATT
  POIN2 Label_6_013882AC
 BYTE   PATT
  POIN2 Label_6_013882B5
// 029   ----------------------------------------
 BYTE   W96
// 030   ----------------------------------------
 BYTE   W96
// 031   ----------------------------------------
 BYTE   W96
// 032   ----------------------------------------
 BYTE   W96
// 033   ----------------------------------------
 BYTE   GoTo
  POIN2 Label_6_0138818C
 BYTE   FINE

//**************** Track 8 (Midi-Chn.7) ****************//

FE14GloryRuinDeedsMycahel_008:
// 000   ----------------------------------------
 BYTE   VOL   35*FE14GloryRuinDeedsMycahel_mvl/mxv
 BYTE   KEYSH   FE14GloryRuinDeedsMycahel_key+0
Label_7_013882EC:
 BYTE   VOICE   48
 BYTE   W96
// 001   ----------------------------------------
 BYTE   W96
// 002   ----------------------------------------
 BYTE   W96
// 003   ----------------------------------------
 BYTE   W96
// 004   ----------------------------------------
 BYTE   W96
// 005   ----------------------------------------
 BYTE   W96
// 006   ----------------------------------------
 BYTE   W96
// 007   ----------------------------------------
 BYTE   W96
// 008   ----------------------------------------
 BYTE   W96
// 009   ----------------------------------------
 BYTE   W96
// 010   ----------------------------------------
 BYTE   W96
// 011   ----------------------------------------
 BYTE   W96
// 012   ----------------------------------------
 BYTE   W96
// 013   ----------------------------------------
 BYTE   W96
// 014   ----------------------------------------
 BYTE   W96
// 015   ----------------------------------------
 BYTE   W96
// 016   ----------------------------------------
 BYTE   W96
// 017   ----------------------------------------
 BYTE   W96
// 018   ----------------------------------------
 BYTE   W96
// 019   ----------------------------------------
 BYTE   W96
// 020   ----------------------------------------
 BYTE   W96
// 021   ----------------------------------------
 BYTE   W96
// 022   ----------------------------------------
 BYTE   W96
// 023   ----------------------------------------
 BYTE   W96
// 024   ----------------------------------------
 BYTE   W96
// 025   ----------------------------------------
 BYTE   W96
// 026   ----------------------------------------
 BYTE   W96
// 027   ----------------------------------------
 BYTE   W96
// 028   ----------------------------------------
 BYTE   W96
// 029   ----------------------------------------
 BYTE   W96
// 030   ----------------------------------------
 BYTE   W96
// 031   ----------------------------------------
 BYTE   W96
// 032   ----------------------------------------
 BYTE   N06  Gn3  v096
 BYTE   W06
 BYTE   Fs3
 BYTE   W06
 BYTE   Gn3
 BYTE   W06
 BYTE   An3
 BYTE   W06
 BYTE   Bn3
 BYTE   W06
 BYTE   Cn4
 BYTE   W06
 BYTE   Dn4
 BYTE   W06
 BYTE   En4
 BYTE   W06
 BYTE   Fs4
 BYTE   W06
 BYTE   En4
 BYTE   W06
 BYTE   Dn4
 BYTE   W06
 BYTE   Cn4
 BYTE   W06
 BYTE   Bn3
 BYTE   W06
 BYTE   An3
 BYTE   W06
 BYTE   Gn3
 BYTE   W06
 BYTE   Fs3
 BYTE   W06
// 033   ----------------------------------------
 BYTE   En3
 BYTE   W06
 BYTE   Fs3
 BYTE   W06
 BYTE   En3
 BYTE   W06
 BYTE   Fs3
 BYTE   W06
 BYTE   Gn3
 BYTE   W06
 BYTE   An3
 BYTE   W06
 BYTE   Bn3
 BYTE   W06
 BYTE   Cn4
 BYTE   W06
 BYTE   Dn4
 BYTE   W06
 BYTE   En4
 BYTE   W06
 BYTE   Fs4
 BYTE   W06
 BYTE   Gn4
 BYTE   W06
 BYTE   Ds4
 BYTE   W06
 BYTE   Fs4
 BYTE   W06
 BYTE   Gn4
 BYTE   W06
 BYTE   An4
 BYTE   W06
// 034   ----------------------------------------
 BYTE   Bn4
 BYTE   W06
 BYTE   Cn5
 BYTE   W06
 BYTE   Bn4
 BYTE   W06
 BYTE   An4
 BYTE   W06
 BYTE   Gn4
 BYTE   W06
 BYTE   Fn4
 BYTE   W06
 BYTE   En4
 BYTE   W06
 BYTE   Dn4
 BYTE   W06
 BYTE   Cn4
 BYTE   W06
 BYTE   Bn3
 BYTE   W06
 BYTE   An3
 BYTE   W06
 BYTE   Gs3
 BYTE   W06
 BYTE   Gn3
 BYTE   W06
 BYTE   Fs3
 BYTE   W06
 BYTE   En3
 BYTE   W06
 BYTE   Ds3
 BYTE   W06
// 035   ----------------------------------------
 BYTE   En4
 BYTE   W06
 BYTE   Gn3
 BYTE   W06
 BYTE   Fs3
 BYTE   W06
 BYTE   Gn3
 BYTE   W06
 BYTE   En3
 BYTE   W06
 BYTE   Gn3
 BYTE   W06
 BYTE   Fs3
 BYTE   W06
 BYTE   Gn3
 BYTE   W06
 BYTE   Fs4
 BYTE   W06
 BYTE   Gn3
 BYTE   W06
 BYTE   Fs3
 BYTE   W06
 BYTE   Gn3
 BYTE   W06
 BYTE   Gn4
 BYTE   W06
 BYTE   Gn3
 BYTE   W06
 BYTE   Fs3
 BYTE   W06
 BYTE   Gn3
 BYTE   W06
// 036   ----------------------------------------
 BYTE   W96
// 037   ----------------------------------------
 BYTE   W96
// 038   ----------------------------------------
 BYTE   W96
// 039   ----------------------------------------
 BYTE   W96
// 040   ----------------------------------------
 BYTE   W96
// 041   ----------------------------------------
 BYTE   W96
// 042   ----------------------------------------
 BYTE   W96
// 043   ----------------------------------------
 BYTE   W96
// 044   ----------------------------------------
 BYTE   W96
// 045   ----------------------------------------
 BYTE   W96
// 046   ----------------------------------------
 BYTE   W96
// 047   ----------------------------------------
 BYTE   Fn3
 BYTE   W06
 BYTE   Bn3
 BYTE   W06
 BYTE   As3
 BYTE   W06
 BYTE   Bn3
 BYTE   W06
 BYTE   Gs3
 BYTE   W06
 BYTE   Gs4
 BYTE   W06
 BYTE   Gn4
 BYTE   W06
 BYTE   Fn4
 BYTE   W06
 BYTE   Bn4
 BYTE   W06
 BYTE   As4
 BYTE   W06
 BYTE   Bn4
 BYTE   W06
 BYTE   Gs4
 BYTE   W06
 BYTE   Fn4
 BYTE   W06
 BYTE   Bn3
 BYTE   W06
 BYTE   Gs3
 BYTE   W06
 BYTE   Fn3
 BYTE   W06
// 048   ----------------------------------------
 BYTE   W96
// 049   ----------------------------------------
 BYTE   W96
// 050   ----------------------------------------
Label_7_013883BD:
 BYTE   N06  En5  v127
 BYTE   N06  As5
 BYTE   W24
 BYTE   En5
 BYTE   N06  As5
 BYTE   W24
 BYTE   En5
 BYTE   N06  As5
 BYTE   W24
 BYTE   PEND 
 BYTE   PATT
  POIN2 Label_7_013883BD
 BYTE   PATT
  POIN2 Label_7_013883BD
 BYTE   PATT
  POIN2 Label_7_013883BD
 BYTE   PATT
  POIN2 Label_7_013883BD
 BYTE   PATT
  POIN2 Label_7_013883BD
 BYTE   PATT
  POIN2 Label_7_013883BD
 BYTE   PATT
  POIN2 Label_7_013883BD
// 051   ----------------------------------------
 BYTE   W96
// 052   ----------------------------------------
 BYTE   W96
// 053   ----------------------------------------
 BYTE   W96
// 054   ----------------------------------------
 BYTE   W96
// 055   ----------------------------------------
 BYTE   W96
// 056   ----------------------------------------
 BYTE   W96
// 057   ----------------------------------------
 BYTE   W96
// 058   ----------------------------------------
 BYTE   W96
// 059   ----------------------------------------
 BYTE   W96
// 060   ----------------------------------------
 BYTE   W96
// 061   ----------------------------------------
 BYTE   W96
// 062   ----------------------------------------
 BYTE   W96
// 063   ----------------------------------------
 BYTE   W96
// 064   ----------------------------------------
 BYTE   W96
// 065   ----------------------------------------
 BYTE   W96
// 066   ----------------------------------------
 BYTE   W96
// 067   ----------------------------------------
 BYTE   W96
// 068   ----------------------------------------
 BYTE   W96
// 069   ----------------------------------------
 BYTE   W96
// 070   ----------------------------------------
 BYTE   W96
// 071   ----------------------------------------
 BYTE   GoTo
  POIN2 Label_7_013882EC
 BYTE   FINE

//**************** Track 9 (Midi-Chn.8) ****************//

FE14GloryRuinDeedsMycahel_009:
// 000   ----------------------------------------
 BYTE   VOL   45*FE14GloryRuinDeedsMycahel_mvl/mxv
 BYTE   KEYSH   FE14GloryRuinDeedsMycahel_key+0
Label_8_01388410:
 BYTE   VOICE   1
 BYTE   W96
// 001   ----------------------------------------
 BYTE   W96
// 002   ----------------------------------------
 BYTE   W96
// 003   ----------------------------------------
 BYTE   W96
// 004   ----------------------------------------
 BYTE   W96
// 005   ----------------------------------------
 BYTE   W96
// 006   ----------------------------------------
 BYTE   W96
// 007   ----------------------------------------
 BYTE   W96
// 008   ----------------------------------------
 BYTE   W96
// 009   ----------------------------------------
 BYTE   W96
// 010   ----------------------------------------
 BYTE   W96
// 011   ----------------------------------------
 BYTE   W96
// 012   ----------------------------------------
 BYTE   W96
// 013   ----------------------------------------
 BYTE   W96
// 014   ----------------------------------------
 BYTE   W96
// 015   ----------------------------------------
 BYTE   W96
// 016   ----------------------------------------
 BYTE   W96
// 017   ----------------------------------------
 BYTE   W96
// 018   ----------------------------------------
 BYTE   W96
// 019   ----------------------------------------
 BYTE   W96
// 020   ----------------------------------------
 BYTE   W96
// 021   ----------------------------------------
 BYTE   W96
// 022   ----------------------------------------
 BYTE   W96
// 023   ----------------------------------------
 BYTE   W96
// 024   ----------------------------------------
 BYTE   W96
// 025   ----------------------------------------
 BYTE   W96
// 026   ----------------------------------------
 BYTE   W96
// 027   ----------------------------------------
 BYTE   W96
// 028   ----------------------------------------
 BYTE   W96
// 029   ----------------------------------------
 BYTE   W96
// 030   ----------------------------------------
 BYTE   W96
// 031   ----------------------------------------
 BYTE   W96
// 032   ----------------------------------------
Label_8_01388432:
 BYTE   N48  Gn3  v127
 BYTE   N48  En4
 BYTE   W48
 BYTE   An3
 BYTE   N48  Fs4
 BYTE   W48
 BYTE   PEND 
// 033   ----------------------------------------
Label_8_0138843D:
 BYTE   N48  Bn3  v127
 BYTE   N48  Gn4
 BYTE   W48
 BYTE   Cn4
 BYTE   N48  An4
 BYTE   W48
 BYTE   PEND 
// 034   ----------------------------------------
Label_8_01388448:
 BYTE   N48  Dn4  v127
 BYTE   N48  Bn4
 BYTE   W48
 BYTE   En4
 BYTE   N48  Cn5
 BYTE   W48
 BYTE   PEND 
// 035   ----------------------------------------
 BYTE   Fs4
 BYTE   N48  Dn5
 BYTE   W48
 BYTE   Ds4
 BYTE   N48  Cn5
 BYTE   W48
// 036   ----------------------------------------
 BYTE   As3
 BYTE   N48  As4
 BYTE   W48
 BYTE   An3
 BYTE   N48  An4
 BYTE   W48
// 037   ----------------------------------------
 BYTE   Dn3
 BYTE   N48  Dn4
 BYTE   W48
 BYTE   As3
 BYTE   N48  Gn4
 BYTE   W48
// 038   ----------------------------------------
 BYTE   Gs3
 BYTE   N48  Fn4
 BYTE   W48
 BYTE   Gn3
 BYTE   N48  En4
 BYTE   W48
// 039   ----------------------------------------
 BYTE   Dn3
 BYTE   N48  Bn3
 BYTE   W48
 BYTE   Gn3
 BYTE   N48  En4
 BYTE   W48
 BYTE   PATT
  POIN2 Label_8_01388432
 BYTE   PATT
  POIN2 Label_8_0138843D
 BYTE   PATT
  POIN2 Label_8_01388448
// 040   ----------------------------------------
 BYTE   N48  Fs4  v127
 BYTE   N48  En5
 BYTE   W48
 BYTE   An5
 BYTE   W48
// 041   ----------------------------------------
 BYTE   Gn5
 BYTE   W48
 BYTE   Fn5
 BYTE   W48
// 042   ----------------------------------------
 BYTE   An4
 BYTE   W48
 BYTE   Cn5
 BYTE   W48
// 043   ----------------------------------------
 BYTE   As4
 BYTE   W48
 BYTE   Gs4
 BYTE   W48
// 044   ----------------------------------------
 BYTE   N96  Dn4
 BYTE   W96
// 045   ----------------------------------------
 BYTE   W96
// 046   ----------------------------------------
 BYTE   W96
// 047   ----------------------------------------
 BYTE   W72
 BYTE   W72
// 048   ----------------------------------------
 BYTE   W72
 BYTE   W72
// 049   ----------------------------------------
 BYTE   W72
 BYTE   W72
// 050   ----------------------------------------
 BYTE   W72
 BYTE   W72
// 051   ----------------------------------------
Label_8_013884AB:
 BYTE   N12  Cn5  v096
 BYTE   W12
 BYTE   N06  Gn5
 BYTE   W06
 BYTE   N12  Cn5
 BYTE   W12
 BYTE   N06  Fn5
 BYTE   W06
 BYTE   N12  Cn5
 BYTE   W12
 BYTE   Ds5
 BYTE   W12
 BYTE   Dn5
 BYTE   W12
 BYTE   As4
 BYTE   W12
 BYTE   Cn5
 BYTE   W12
 BYTE   PEND 
// 052   ----------------------------------------
 BYTE   N06  Gn5
 BYTE   W06
 BYTE   N12  Cn5
 BYTE   W12
 BYTE   N06  Fn5
 BYTE   W06
 BYTE   N12  Cn5
 BYTE   W12
 BYTE   Ds5
 BYTE   W12
 BYTE   Dn5
 BYTE   W12
 BYTE   As4
 BYTE   W12
 BYTE   Cn5
 BYTE   W12
 BYTE   N06  Gn5
 BYTE   W06
 BYTE   N12  Cn5
 BYTE   W06
// 053   ----------------------------------------
 BYTE   W06
 BYTE   N06  Fn5
 BYTE   W06
 BYTE   N12  Cn5
 BYTE   W12
 BYTE   Ds5
 BYTE   W12
 BYTE   Dn5
 BYTE   W12
 BYTE   As4
 BYTE   W12
 BYTE   Cn5
 BYTE   W12
 BYTE   N06  Gn5
 BYTE   W06
 BYTE   N12  Cn5
 BYTE   W12
 BYTE   N06  Fn5
 BYTE   W06
// 054   ----------------------------------------
 BYTE   N12  Cn5
 BYTE   W12
 BYTE   Ds5
 BYTE   W12
 BYTE   Dn5
 BYTE   W12
 BYTE   As4
 BYTE   W12
 BYTE   Cn5
 BYTE   W12
 BYTE   N06  Gn5
 BYTE   W06
 BYTE   N12  Cn5
 BYTE   W12
 BYTE   N06  Fn5
 BYTE   W06
 BYTE   N12  Cn5
 BYTE   W12
// 055   ----------------------------------------
 BYTE   Ds5
 BYTE   W12
 BYTE   Dn5
 BYTE   W12
 BYTE   As4
 BYTE   W12
 BYTE   Cn5
 BYTE   W12
 BYTE   N06  Gn5
 BYTE   W06
 BYTE   N12  Cn5
 BYTE   W12
 BYTE   N06  Fn5
 BYTE   W06
 BYTE   N12  Cn5
 BYTE   W12
 BYTE   Ds5
 BYTE   W12
// 056   ----------------------------------------
 BYTE   Dn5
 BYTE   W12
 BYTE   As4
 BYTE   W12
 BYTE   Cn5
 BYTE   W12
 BYTE   N06  Gn5
 BYTE   W06
 BYTE   N12  Cn5
 BYTE   W12
 BYTE   N06  Fn5
 BYTE   W06
 BYTE   N12  Cn5
 BYTE   W12
 BYTE   Ds5
 BYTE   W12
 BYTE   Dn5
 BYTE   W12
// 057   ----------------------------------------
 BYTE   As4
 BYTE   W12
 BYTE   Cn5
 BYTE   W12
 BYTE   N06  Gn5
 BYTE   W06
 BYTE   N12  Cn5
 BYTE   W12
 BYTE   N06  Fn5
 BYTE   W06
 BYTE   N12  Cn5
 BYTE   W12
 BYTE   Ds5
 BYTE   W12
 BYTE   Dn5
 BYTE   W12
 BYTE   As4
 BYTE   W12
 BYTE   PATT
  POIN2 Label_8_013884AB
// 058   ----------------------------------------
 BYTE   N06  As4  v096
 BYTE   W12
 BYTE   Fn4
 BYTE   W06
 BYTE   As4
 BYTE   W12
 BYTE   Ds5
 BYTE   W06
 BYTE   N12  As4
 BYTE   W12
 BYTE   Cs5
 BYTE   W12
 BYTE   Cn5
 BYTE   W12
 BYTE   Gs4
 BYTE   W12
 BYTE   As4
 BYTE   W12
// 059   ----------------------------------------
 BYTE   N06
 BYTE   W06
 BYTE   Fn4
 BYTE   W06
 BYTE   As4
 BYTE   W06
 BYTE   Ds5
 BYTE   W06
 BYTE   N12  As4
 BYTE   W12
 BYTE   Cs5
 BYTE   W12
 BYTE   Cn5
 BYTE   W12
 BYTE   Gs4
 BYTE   W12
 BYTE   As4
 BYTE   W12
 BYTE   N06  Fn4
 BYTE   W06
 BYTE   As4
 BYTE   W06
// 060   ----------------------------------------
 BYTE   W06
 BYTE   Ds5
 BYTE   W06
 BYTE   N12  As4
 BYTE   W12
 BYTE   Cs5
 BYTE   W12
 BYTE   Cn5
 BYTE   W12
 BYTE   Gs4
 BYTE   W12
 BYTE   As4
 BYTE   W12
 BYTE   N06
 BYTE   W06
 BYTE   Fn4
 BYTE   W06
 BYTE   As4
 BYTE   W06
 BYTE   Ds5
 BYTE   W06
// 061   ----------------------------------------
 BYTE   N12  As4
 BYTE   W12
 BYTE   Cs5
 BYTE   W12
 BYTE   Cn5
 BYTE   W12
 BYTE   Gs4
 BYTE   W12
 BYTE   As4
 BYTE   W12
 BYTE   N06  Fn4
 BYTE   W06
 BYTE   As4
 BYTE   W12
 BYTE   Ds5
 BYTE   W06
 BYTE   N12  As4
 BYTE   W12
// 062   ----------------------------------------
 BYTE   Cs5
 BYTE   W12
 BYTE   Cn5
 BYTE   W12
 BYTE   Gs4
 BYTE   W12
 BYTE   As4
 BYTE   W12
 BYTE   N06
 BYTE   W06
 BYTE   Fn4
 BYTE   W06
 BYTE   As4
 BYTE   W06
 BYTE   Ds5
 BYTE   W06
 BYTE   N12  As4
 BYTE   W12
 BYTE   Cs5
 BYTE   W12
// 063   ----------------------------------------
 BYTE   Cn5
 BYTE   W12
 BYTE   Gs4
 BYTE   W12
 BYTE   As4
 BYTE   W12
 BYTE   N06  Fn4
 BYTE   W06
 BYTE   As4
 BYTE   W12
 BYTE   Ds5
 BYTE   W06
 BYTE   N12  As4
 BYTE   W12
 BYTE   Cs5
 BYTE   W12
 BYTE   Cn5
 BYTE   W12
// 064   ----------------------------------------
 BYTE   Gs4
 BYTE   W12
 BYTE   As4
 BYTE   W12
 BYTE   N06
 BYTE   W06
 BYTE   Fn4
 BYTE   W06
 BYTE   As4
 BYTE   W06
 BYTE   Ds5
 BYTE   W06
 BYTE   N12  As4
 BYTE   W12
 BYTE   Cs5
 BYTE   W12
 BYTE   Cn5
 BYTE   W12
 BYTE   Gs4
 BYTE   W12
// 065   ----------------------------------------
 BYTE   As4
 BYTE   W12
 BYTE   N06  Fn4
 BYTE   W06
 BYTE   As4
 BYTE   W12
 BYTE   Ds5
 BYTE   W06
 BYTE   N12  As4
 BYTE   W12
 BYTE   Cs5
 BYTE   W12
 BYTE   Cn5
 BYTE   W12
 BYTE   Gs4
 BYTE   W12
 BYTE   As4
 BYTE   W12
// 066   ----------------------------------------
Label_8_013885FE:
 BYTE   N24  As4  v096
 BYTE   N24  Gn5
 BYTE   W24
 BYTE   Gs4
 BYTE   N24  Ds5
 BYTE   W72
 BYTE   PEND 
 BYTE   PATT
  POIN2 Label_8_013885FE
 BYTE   PATT
  POIN2 Label_8_013885FE
 BYTE   PATT
  POIN2 Label_8_013885FE
// 067   ----------------------------------------
 BYTE   GoTo
  POIN2 Label_8_01388410
 BYTE   FINE

//**************** Track 10 (Midi-Chn.9) ****************//

FE14GloryRuinDeedsMycahel_010:
// 000   ----------------------------------------
 BYTE   VOL   65*FE14GloryRuinDeedsMycahel_mvl/mxv
 BYTE   KEYSH   FE14GloryRuinDeedsMycahel_key+0
Label_9_01388624:
 BYTE   VOICE   56
 BYTE   N12  Cn4  v127
 BYTE   W12
 BYTE   Gn4
 BYTE   W12
 BYTE   Fs4
 BYTE   W12
 BYTE   Cn4
 BYTE   W12
 BYTE   Fn4
 BYTE   W12
 BYTE   Ds4
 BYTE   W12
 BYTE   Cn4
 BYTE   W12
 BYTE   Dn4
 BYTE   W12
// 001   ----------------------------------------
Label_9_01388638:
 BYTE   N12  Ds4  v127
 BYTE   W12
 BYTE   Fn4
 BYTE   W12
 BYTE   Ds4
 BYTE   W12
 BYTE   Cn4
 BYTE   W12
 BYTE   Dn4
 BYTE   W12
 BYTE   Cn4
 BYTE   W12
 BYTE   Cs4
 BYTE   W12
 BYTE   Bn3
 BYTE   W12
 BYTE   PEND 
// 002   ----------------------------------------
Label_9_0138864B:
 BYTE   N12  Cn4  v127
 BYTE   W12
 BYTE   Gn4
 BYTE   W12
 BYTE   Fs4
 BYTE   W12
 BYTE   Cn4
 BYTE   W12
 BYTE   Fn4
 BYTE   W12
 BYTE   Ds4
 BYTE   W12
 BYTE   Cn4
 BYTE   W12
 BYTE   Dn4
 BYTE   W12
 BYTE   PEND 
// 003   ----------------------------------------
Label_9_0138865E:
 BYTE   N12  Ds4  v127
 BYTE   W12
 BYTE   Fn4
 BYTE   W12
 BYTE   Ds4
 BYTE   W12
 BYTE   Cn4
 BYTE   W12
 BYTE   Dn4
 BYTE   W12
 BYTE   Cn4
 BYTE   W12
 BYTE   Cs4
 BYTE   W12
 BYTE   Gn4
 BYTE   W12
 BYTE   PEND 
// 004   ----------------------------------------
Label_9_01388671:
 BYTE   N12  Cn4  v127
 BYTE   W12
 BYTE   Gn3
 BYTE   W12
 BYTE   Cn4
 BYTE   W12
 BYTE   Gn4
 BYTE   W12
 BYTE   Fs4
 BYTE   W12
 BYTE   Cn4
 BYTE   W12
 BYTE   Fn4
 BYTE   W12
 BYTE   Ds4
 BYTE   W12
 BYTE   PEND 
// 005   ----------------------------------------
Label_9_01388684:
 BYTE   N12  Cn4  v127
 BYTE   W12
 BYTE   Dn4
 BYTE   W12
 BYTE   Ds4
 BYTE   W12
 BYTE   Fn4
 BYTE   W12
 BYTE   Ds4
 BYTE   W12
 BYTE   Cn4
 BYTE   W12
 BYTE   Dn4
 BYTE   W12
 BYTE   Cn4
 BYTE   W12
 BYTE   PEND 
// 006   ----------------------------------------
Label_9_01388697:
 BYTE   N12  Cs4  v127
 BYTE   W12
 BYTE   Gn3
 BYTE   W12
 BYTE   Cn4
 BYTE   W12
 BYTE   Gn4
 BYTE   W12
 BYTE   Fs4
 BYTE   W12
 BYTE   Cn4
 BYTE   W12
 BYTE   Fn4
 BYTE   W12
 BYTE   Ds4
 BYTE   W12
 BYTE   PEND 
// 007   ----------------------------------------
Label_9_013886AA:
 BYTE   N12  Cn4  v127
 BYTE   W12
 BYTE   Dn4
 BYTE   W12
 BYTE   Ds4
 BYTE   W12
 BYTE   Fn4
 BYTE   W12
 BYTE   Ds4
 BYTE   W12
 BYTE   Cn4
 BYTE   W12
 BYTE   Cs4
 BYTE   W12
 BYTE   Gn4
 BYTE   W12
 BYTE   PEND 
 BYTE   PATT
  POIN2 Label_9_0138864B
 BYTE   PATT
  POIN2 Label_9_01388638
 BYTE   PATT
  POIN2 Label_9_0138864B
 BYTE   PATT
  POIN2 Label_9_0138865E
 BYTE   PATT
  POIN2 Label_9_01388671
 BYTE   PATT
  POIN2 Label_9_01388684
 BYTE   PATT
  POIN2 Label_9_01388697
 BYTE   PATT
  POIN2 Label_9_013886AA
// 008   ----------------------------------------
 BYTE   N06  Gn2  v104
 BYTE   W06
 BYTE   N06
 BYTE   W06
 BYTE   N06
 BYTE   W12
 BYTE   Gs2
 BYTE   W06
 BYTE   N06
 BYTE   W06
 BYTE   N06
 BYTE   W12
 BYTE   As2
 BYTE   W06
 BYTE   N06
 BYTE   W06
 BYTE   N06
 BYTE   W12
 BYTE   Cn3
 BYTE   W06
 BYTE   N06
 BYTE   W06
 BYTE   N06
 BYTE   W12
// 009   ----------------------------------------
 BYTE   Cs3
 BYTE   W06
 BYTE   N06
 BYTE   W06
 BYTE   N06
 BYTE   W12
 BYTE   Cn3
 BYTE   W06
 BYTE   N06
 BYTE   W06
 BYTE   N06
 BYTE   W12
 BYTE   As2
 BYTE   W06
 BYTE   N06
 BYTE   W06
 BYTE   N06
 BYTE   W12
 BYTE   Cn3
 BYTE   W06
 BYTE   N06
 BYTE   W06
 BYTE   N06
 BYTE   W12
// 010   ----------------------------------------
 BYTE   Cs3
 BYTE   W06
 BYTE   N06
 BYTE   W06
 BYTE   N06
 BYTE   W12
 BYTE   Ds3
 BYTE   W06
 BYTE   N06
 BYTE   W06
 BYTE   N06
 BYTE   W12
 BYTE   En3
 BYTE   W06
 BYTE   N06
 BYTE   W06
 BYTE   N06
 BYTE   W12
 BYTE   Cn3
 BYTE   W06
 BYTE   N06
 BYTE   W06
 BYTE   N06
 BYTE   W12
// 011   ----------------------------------------
 BYTE   Bn2
 BYTE   W06
 BYTE   N06
 BYTE   W06
 BYTE   N06
 BYTE   W12
 BYTE   Cn3
 BYTE   W06
 BYTE   N06
 BYTE   W06
 BYTE   N06
 BYTE   W12
 BYTE   As2
 BYTE   W06
 BYTE   N06
 BYTE   W06
 BYTE   N06
 BYTE   W12
 BYTE   An2
 BYTE   W06
 BYTE   N06
 BYTE   W06
 BYTE   N06
 BYTE   W12
// 012   ----------------------------------------
 BYTE   Gs2
 BYTE   W06
 BYTE   N06
 BYTE   W06
 BYTE   N06
 BYTE   W12
 BYTE   Ds3
 BYTE   W06
 BYTE   N06
 BYTE   W06
 BYTE   N06
 BYTE   W12
 BYTE   Dn3
 BYTE   W06
 BYTE   N06
 BYTE   W06
 BYTE   N06
 BYTE   W12
 BYTE   Cs3
 BYTE   W06
 BYTE   N06
 BYTE   W06
 BYTE   N06
 BYTE   W12
// 013   ----------------------------------------
 BYTE   N06
 BYTE   W06
 BYTE   N06
 BYTE   W06
 BYTE   N06
 BYTE   W12
 BYTE   Fs3
 BYTE   W06
 BYTE   N06
 BYTE   W06
 BYTE   N06
 BYTE   W12
 BYTE   Fn3
 BYTE   W06
 BYTE   N06
 BYTE   W06
 BYTE   N06
 BYTE   W12
 BYTE   Ds3
 BYTE   W06
 BYTE   N06
 BYTE   W06
 BYTE   N06
 BYTE   W12
// 014   ----------------------------------------
 BYTE   Fn3
 BYTE   W06
 BYTE   N06
 BYTE   W06
 BYTE   N06
 BYTE   W12
 BYTE   An2
 BYTE   W06
 BYTE   N06
 BYTE   W06
 BYTE   N06
 BYTE   W12
 BYTE   Cn3
 BYTE   W06
 BYTE   N06
 BYTE   W06
 BYTE   N06
 BYTE   W12
 BYTE   Cs3
 BYTE   W06
 BYTE   N06
 BYTE   W06
 BYTE   N06
 BYTE   W12
// 015   ----------------------------------------
 BYTE   Ds3
 BYTE   W06
 BYTE   N06
 BYTE   W06
 BYTE   N06
 BYTE   W12
 BYTE   En3
 BYTE   W06
 BYTE   N06
 BYTE   W06
 BYTE   N06
 BYTE   W12
 BYTE   Fs3
 BYTE   W06
 BYTE   N06
 BYTE   W06
 BYTE   N06
 BYTE   W12
 BYTE   Gs3
 BYTE   W06
 BYTE   N06
 BYTE   W06
 BYTE   N06
 BYTE   W12
// 016   ----------------------------------------
 BYTE   Gn3
 BYTE   W06
 BYTE   N06
 BYTE   W06
 BYTE   N06
 BYTE   W12
 BYTE   Gs3
 BYTE   W06
 BYTE   N06
 BYTE   W06
 BYTE   N06
 BYTE   W12
 BYTE   As3
 BYTE   W06
 BYTE   N06
 BYTE   W06
 BYTE   N06
 BYTE   W12
 BYTE   Cn4
 BYTE   W06
 BYTE   N06
 BYTE   W06
 BYTE   N06
 BYTE   W12
// 017   ----------------------------------------
 BYTE   Cs4
 BYTE   W06
 BYTE   N06
 BYTE   W06
 BYTE   N06
 BYTE   W12
 BYTE   Cn4
 BYTE   W06
 BYTE   N06
 BYTE   W06
 BYTE   N06
 BYTE   W12
 BYTE   As3
 BYTE   W06
 BYTE   N06
 BYTE   W06
 BYTE   N06
 BYTE   W12
 BYTE   Cn4
 BYTE   W06
 BYTE   N06
 BYTE   W06
 BYTE   N06
 BYTE   W12
// 018   ----------------------------------------
 BYTE   Cs4
 BYTE   W06
 BYTE   N06
 BYTE   W06
 BYTE   N06
 BYTE   W12
 BYTE   Ds4
 BYTE   W06
 BYTE   N06
 BYTE   W06
 BYTE   N06
 BYTE   W12
 BYTE   En4
 BYTE   W06
 BYTE   N06
 BYTE   W06
 BYTE   N06
 BYTE   W12
 BYTE   Cn4
 BYTE   W06
 BYTE   N06
 BYTE   W06
 BYTE   N06
 BYTE   W12
// 019   ----------------------------------------
 BYTE   Bn3
 BYTE   W06
 BYTE   N06
 BYTE   W06
 BYTE   N06
 BYTE   W12
 BYTE   Cn4
 BYTE   W06
 BYTE   N06
 BYTE   W06
 BYTE   N06
 BYTE   W12
 BYTE   As3
 BYTE   W06
 BYTE   N06
 BYTE   W06
 BYTE   N06
 BYTE   W12
 BYTE   An3
 BYTE   W06
 BYTE   N06
 BYTE   W06
 BYTE   N06
 BYTE   W12
// 020   ----------------------------------------
 BYTE   Gs3
 BYTE   W06
 BYTE   N06
 BYTE   W06
 BYTE   N06
 BYTE   W12
 BYTE   Ds4
 BYTE   W06
 BYTE   N06
 BYTE   W06
 BYTE   N06
 BYTE   W12
 BYTE   Dn4
 BYTE   W06
 BYTE   N06
 BYTE   W06
 BYTE   N06
 BYTE   W12
 BYTE   Cs4
 BYTE   W06
 BYTE   N06
 BYTE   W06
 BYTE   N06
 BYTE   W12
// 021   ----------------------------------------
 BYTE   N06
 BYTE   W06
 BYTE   N06
 BYTE   W06
 BYTE   N06
 BYTE   W12
 BYTE   Fs4
 BYTE   W06
 BYTE   N06
 BYTE   W06
 BYTE   N06
 BYTE   W12
 BYTE   Fn4
 BYTE   W06
 BYTE   N06
 BYTE   W06
 BYTE   N06
 BYTE   W12
 BYTE   Ds4
 BYTE   W06
 BYTE   N06
 BYTE   W06
 BYTE   N06
 BYTE   W12
// 022   ----------------------------------------
 BYTE   Fn4
 BYTE   W06
 BYTE   N06
 BYTE   W06
 BYTE   N06
 BYTE   W12
 BYTE   An3
 BYTE   W06
 BYTE   N06
 BYTE   W06
 BYTE   N06
 BYTE   W12
 BYTE   Cn4
 BYTE   W06
 BYTE   N06
 BYTE   W06
 BYTE   N06
 BYTE   W12
 BYTE   Cs4
 BYTE   W06
 BYTE   N06
 BYTE   W06
 BYTE   N06
 BYTE   W12
// 023   ----------------------------------------
 BYTE   Ds4
 BYTE   W06
 BYTE   N06
 BYTE   W06
 BYTE   N06
 BYTE   W12
 BYTE   En4
 BYTE   W06
 BYTE   N06
 BYTE   W06
 BYTE   N06
 BYTE   W12
 BYTE   Fs4
 BYTE   W06
 BYTE   N06
 BYTE   W06
 BYTE   N06
 BYTE   W12
 BYTE   Gs4
 BYTE   W06
 BYTE   N06
 BYTE   W06
 BYTE   N06
 BYTE   W12
// 024   ----------------------------------------
 BYTE   W96
// 025   ----------------------------------------
 BYTE   W96
// 026   ----------------------------------------
 BYTE   W96
// 027   ----------------------------------------
 BYTE   W96
// 028   ----------------------------------------
 BYTE   W96
// 029   ----------------------------------------
 BYTE   W96
// 030   ----------------------------------------
 BYTE   W96
// 031   ----------------------------------------
 BYTE   W96
// 032   ----------------------------------------
 BYTE   W96
// 033   ----------------------------------------
 BYTE   W96
// 034   ----------------------------------------
 BYTE   W96
// 035   ----------------------------------------
 BYTE   W96
// 036   ----------------------------------------
 BYTE   W96
// 037   ----------------------------------------
 BYTE   W96
// 038   ----------------------------------------
 BYTE   W96
// 039   ----------------------------------------
 BYTE   W96
// 040   ----------------------------------------
 BYTE   W96
// 041   ----------------------------------------
 BYTE   W96
// 042   ----------------------------------------
 BYTE   W72
 BYTE   W72
// 043   ----------------------------------------
 BYTE   W72
 BYTE   W72
// 044   ----------------------------------------
Label_9_0138887D:
 BYTE   N09  Gs4  v127
 BYTE   W12
 BYTE   N09
 BYTE   W24
 BYTE   Fn4
 BYTE   W12
 BYTE   N09
 BYTE   W24
 BYTE   PEND 
Label_9_01388888:
 BYTE   N09  Fs4  v127
 BYTE   W12
 BYTE   N09
 BYTE   W24
// 045   ----------------------------------------
 BYTE   An4
 BYTE   W12
 BYTE   N09
 BYTE   W24
 BYTE   PEND 
 BYTE   PATT
  POIN2 Label_9_0138887D
 BYTE   PATT
  POIN2 Label_9_01388888
// 046   ----------------------------------------
Label_9_0138889D:
 BYTE   W60
 BYTE   N12  Cs4  v127
 BYTE   W12
 BYTE   N06  Cn4
 BYTE   W06
 BYTE   N06
 BYTE   W06
 BYTE   N12
 BYTE   W12
 BYTE   PEND 
// 047   ----------------------------------------
Label_9_013888AA:
 BYTE   W84
 BYTE   N06  Cn4  v127
 BYTE   W06
 BYTE   N06
 BYTE   W06
 BYTE   PEND 
// 048   ----------------------------------------
 BYTE   N12
 BYTE   W96
// 049   ----------------------------------------
Label_9_013888B4:
 BYTE   W48
 BYTE   N06  Cn4  v127
 BYTE   W06
 BYTE   N06
 BYTE   W06
 BYTE   N06
 BYTE   W06
 BYTE   N12
 BYTE   W30
 BYTE   PEND 
 BYTE   PATT
  POIN2 Label_9_0138889D
 BYTE   PATT
  POIN2 Label_9_013888AA
// 050   ----------------------------------------
 BYTE   N12  Cn4  v127
 BYTE   W96
 BYTE   PATT
  POIN2 Label_9_013888B4
// 051   ----------------------------------------
Label_9_013888D3:
 BYTE   W60
 BYTE   N12  Bn3  v127
 BYTE   W12
 BYTE   N06  As3
 BYTE   W06
 BYTE   N06
 BYTE   W06
 BYTE   N12
 BYTE   W12
 BYTE   PEND 
// 052   ----------------------------------------
Label_9_013888E0:
 BYTE   W84
 BYTE   N06  As3  v127
 BYTE   W06
 BYTE   N06
 BYTE   W06
 BYTE   PEND 
// 053   ----------------------------------------
 BYTE   N12
 BYTE   W96
// 054   ----------------------------------------
Label_9_013888EA:
 BYTE   W48
 BYTE   N06  As3  v127
 BYTE   W06
 BYTE   N06
 BYTE   W06
 BYTE   N06
 BYTE   W06
 BYTE   N12
 BYTE   W30
 BYTE   PEND 
 BYTE   PATT
  POIN2 Label_9_013888D3
 BYTE   PATT
  POIN2 Label_9_013888E0
// 055   ----------------------------------------
 BYTE   N12  As3  v127
 BYTE   W96
 BYTE   PATT
  POIN2 Label_9_013888EA
// 056   ----------------------------------------
 BYTE   W96
// 057   ----------------------------------------
 BYTE   W96
// 058   ----------------------------------------
 BYTE   W96
// 059   ----------------------------------------
 BYTE   W96
// 060   ----------------------------------------
 BYTE   GoTo
  POIN2 Label_9_01388624
 BYTE   FINE

//******************************************************//
	ALIGN 4

FE14GloryRuinDeedsMycahel:
	BYTE	10	// NumTrks
	BYTE	0	// NumBlks
	BYTE	FE14GloryRuinDeedsMycahel_pri	// Priority
	BYTE	FE14GloryRuinDeedsMycahel_rev	// Reverb.
    
	POIN2	FE14GloryRuinDeedsMycahel_grp
    
	POIN2	FE14GloryRuinDeedsMycahel_001
	POIN2	FE14GloryRuinDeedsMycahel_002
	POIN2	FE14GloryRuinDeedsMycahel_003
	POIN2	FE14GloryRuinDeedsMycahel_004
	POIN2	FE14GloryRuinDeedsMycahel_005
	POIN2	FE14GloryRuinDeedsMycahel_006
	POIN2	FE14GloryRuinDeedsMycahel_007
	POIN2	FE14GloryRuinDeedsMycahel_008
	POIN2	FE14GloryRuinDeedsMycahel_009
	POIN2	FE14GloryRuinDeedsMycahel_010

	
