//Event file generated from Sappy .s format.
	#include "MPlayDef.event"

	#define	FE15TwilightOfTheGodsSme_grp  voicegroup000
	#define	FE15TwilightOfTheGodsSme_pri  0
	#define	FE15TwilightOfTheGodsSme_rev  0
	#define	FE15TwilightOfTheGodsSme_mvl  75
	#define	FE15TwilightOfTheGodsSme_key  0
	#define	FE15TwilightOfTheGodsSme_tbs  1
	#define	FE15TwilightOfTheGodsSme_exg  0
	#define	FE15TwilightOfTheGodsSme_cmp  1

	// .rodata
	//	FE15TwilightOfTheGodsSme
	ALIGN 4

//**************** Track 1 (Midi-Chn.1) ****************//

FE15TwilightOfTheGodsSme_1:
	BYTE	KEYSH   FE15TwilightOfTheGodsSme_key+0
// 000   ----------------------------------------
	BYTE	TEMPO   160*FE15TwilightOfTheGodsSme_tbs/2
	BYTE		VOICE   48
	BYTE		VOL     49*FE15TwilightOfTheGodsSme_mvl/mxv
	BYTE		N08     En3   v104
	BYTE	W16
	BYTE		        Gn3 
	BYTE	W08
	BYTE		        Fs3 
	BYTE	W08
	BYTE		        Gn3 
	BYTE	W08
	BYTE		        Fs3 
	BYTE	W08
	BYTE		        En3 
	BYTE	W16
	BYTE		        Gn3 
	BYTE	W08
	BYTE		        Fs3 
	BYTE	W08
	BYTE		        Gn3 
	BYTE	W08
	BYTE		        Fs3 
	BYTE	W08
// 001   ----------------------------------------
FE15TwilightOfTheGodsSme_1_001:
	BYTE		N08     En3   v104
	BYTE	W16
	BYTE		        Gn3 
	BYTE	W08
	BYTE		        Fs3 
	BYTE	W08
	BYTE		        Gn3 
	BYTE	W08
	BYTE		        Fs3 
	BYTE	W08
	BYTE		        En3 
	BYTE	W08
	BYTE		        Fs3 
	BYTE	W08
	BYTE		        Gn3 
	BYTE	W08
	BYTE		        An3 
	BYTE	W08
	BYTE		        Gn3 
	BYTE	W08
	BYTE		        Fs3 
	BYTE	W08
	BYTE	PEND
// 002   ----------------------------------------
FE15TwilightOfTheGodsSme_1_002:
	BYTE		N08     En3   v104
	BYTE	W16
	BYTE		        Gn3 
	BYTE	W08
	BYTE		        Fs3 
	BYTE	W08
	BYTE		        Gn3 
	BYTE	W08
	BYTE		        Fs3 
	BYTE	W08
	BYTE		        En3 
	BYTE	W16
	BYTE		        Gn3 
	BYTE	W08
	BYTE		        Fs3 
	BYTE	W08
	BYTE		        Gn3 
	BYTE	W08
	BYTE		        Fs3 
	BYTE	W08
	BYTE	PEND
// 003   ----------------------------------------
	BYTE	PATT
	 POIN2	FE15TwilightOfTheGodsSme_1_001
// 004   ----------------------------------------
	BYTE	PATT
	 POIN2	FE15TwilightOfTheGodsSme_1_002
// 005   ----------------------------------------
	BYTE	PATT
	 POIN2	FE15TwilightOfTheGodsSme_1_001
// 006   ----------------------------------------
	BYTE	PATT
	 POIN2	FE15TwilightOfTheGodsSme_1_002
// 007   ----------------------------------------
	BYTE	PATT
	 POIN2	FE15TwilightOfTheGodsSme_1_001
// 008   ----------------------------------------
	BYTE	PATT
	 POIN2	FE15TwilightOfTheGodsSme_1_002
// 009   ----------------------------------------
	BYTE	PATT
	 POIN2	FE15TwilightOfTheGodsSme_1_001
// 010   ----------------------------------------
	BYTE	PATT
	 POIN2	FE15TwilightOfTheGodsSme_1_002
// 011   ----------------------------------------
	BYTE	PATT
	 POIN2	FE15TwilightOfTheGodsSme_1_001
// 012   ----------------------------------------
	BYTE	PATT
	 POIN2	FE15TwilightOfTheGodsSme_1_002
// 013   ----------------------------------------
	BYTE	PATT
	 POIN2	FE15TwilightOfTheGodsSme_1_001
// 014   ----------------------------------------
	BYTE	PATT
	 POIN2	FE15TwilightOfTheGodsSme_1_002
// 015   ----------------------------------------
	BYTE	PATT
	 POIN2	FE15TwilightOfTheGodsSme_1_001
// 016   ----------------------------------------
	BYTE	PATT
	 POIN2	FE15TwilightOfTheGodsSme_1_002
// 017   ----------------------------------------
	BYTE	PATT
	 POIN2	FE15TwilightOfTheGodsSme_1_001
// 018   ----------------------------------------
	BYTE	PATT
	 POIN2	FE15TwilightOfTheGodsSme_1_002
// 019   ----------------------------------------
	BYTE	PATT
	 POIN2	FE15TwilightOfTheGodsSme_1_001
// 020   ----------------------------------------
	BYTE	PATT
	 POIN2	FE15TwilightOfTheGodsSme_1_002
// 021   ----------------------------------------
	BYTE	PATT
	 POIN2	FE15TwilightOfTheGodsSme_1_001
// 022   ----------------------------------------
	BYTE	PATT
	 POIN2	FE15TwilightOfTheGodsSme_1_002
// 023   ----------------------------------------
	BYTE	PATT
	 POIN2	FE15TwilightOfTheGodsSme_1_001
// 024   ----------------------------------------
	BYTE	PATT
	 POIN2	FE15TwilightOfTheGodsSme_1_002
// 025   ----------------------------------------
	BYTE	PATT
	 POIN2	FE15TwilightOfTheGodsSme_1_001
// 026   ----------------------------------------
	BYTE	PATT
	 POIN2	FE15TwilightOfTheGodsSme_1_002
// 027   ----------------------------------------
	BYTE	PATT
	 POIN2	FE15TwilightOfTheGodsSme_1_001
// 028   ----------------------------------------
	BYTE	PATT
	 POIN2	FE15TwilightOfTheGodsSme_1_002
// 029   ----------------------------------------
	BYTE	PATT
	 POIN2	FE15TwilightOfTheGodsSme_1_001
// 030   ----------------------------------------
	BYTE	PATT
	 POIN2	FE15TwilightOfTheGodsSme_1_002
// 031   ----------------------------------------
	BYTE	PATT
	 POIN2	FE15TwilightOfTheGodsSme_1_001
// 032   ----------------------------------------
	BYTE	TEMPO   104*FE15TwilightOfTheGodsSme_tbs/2
	BYTE	W96
// 033   ----------------------------------------
	BYTE	W96
// 034   ----------------------------------------
	BYTE	W96
// 035   ----------------------------------------
	BYTE	W96
// 036   ----------------------------------------
	BYTE	W48
FE15TwilightOfTheGodsSme_1_B1:
// 037   ----------------------------------------
	BYTE	TEMPO   160*FE15TwilightOfTheGodsSme_tbs/2
	BYTE		N08     En3   v104
	BYTE	W16
	BYTE		        Gn3 
	BYTE	W08
	BYTE		        Fs3 
	BYTE	W08
	BYTE		        Gn3 
	BYTE	W08
	BYTE		        Fs3 
	BYTE	W08
	BYTE		        En3 
	BYTE	W16
	BYTE		        Gn3 
	BYTE	W08
	BYTE		        Fs3 
	BYTE	W08
	BYTE		        Gn3 
	BYTE	W08
	BYTE		        Fs3 
	BYTE	W08
// 038   ----------------------------------------
	BYTE	PATT
	 POIN2	FE15TwilightOfTheGodsSme_1_001
// 039   ----------------------------------------
	BYTE	PATT
	 POIN2	FE15TwilightOfTheGodsSme_1_002
// 040   ----------------------------------------
	BYTE	PATT
	 POIN2	FE15TwilightOfTheGodsSme_1_001
// 041   ----------------------------------------
	BYTE	PATT
	 POIN2	FE15TwilightOfTheGodsSme_1_002
// 042   ----------------------------------------
	BYTE	PATT
	 POIN2	FE15TwilightOfTheGodsSme_1_001
// 043   ----------------------------------------
	BYTE	PATT
	 POIN2	FE15TwilightOfTheGodsSme_1_002
// 044   ----------------------------------------
	BYTE		N08     En3   v104
	BYTE	W16
	BYTE		        Bn2 
	BYTE	W08
	BYTE		        En3 
	BYTE	W08
	BYTE		        Fs3 
	BYTE	W08
	BYTE		        En3 
	BYTE	W08
	BYTE		N48     Ds3 
	BYTE	W48
// 045   ----------------------------------------
	BYTE		N96     En3 
	BYTE	W96
// 046   ----------------------------------------
	BYTE		        Dn3 
	BYTE	W96
// 047   ----------------------------------------
	BYTE		        Bn2 
	BYTE	W96
// 048   ----------------------------------------
	BYTE		N96   
	BYTE	W96
// 049   ----------------------------------------
	BYTE		        En3 
	BYTE	W96
// 050   ----------------------------------------
	BYTE		        Bn2 
	BYTE	W96
// 051   ----------------------------------------
	BYTE		        An2 
	BYTE	W96
// 052   ----------------------------------------
	BYTE		        Bn2 
	BYTE	W96
// 053   ----------------------------------------
	BYTE		        En3 
	BYTE	W96
// 054   ----------------------------------------
	BYTE		        Bn2 
	BYTE	W96
// 055   ----------------------------------------
	BYTE		N96   
	BYTE	W96
// 056   ----------------------------------------
	BYTE		N96   
	BYTE	W96
// 057   ----------------------------------------
	BYTE		        En3 
	BYTE	W96
// 058   ----------------------------------------
	BYTE		        Bn2 
	BYTE	W96
// 059   ----------------------------------------
	BYTE		        An2 
	BYTE	W96
// 060   ----------------------------------------
	BYTE		        Bn2 
	BYTE	W96
// 061   ----------------------------------------
	BYTE	W96
// 062   ----------------------------------------
	BYTE	W96
// 063   ----------------------------------------
	BYTE	W96
// 064   ----------------------------------------
	BYTE	W96
// 065   ----------------------------------------
	BYTE	W96
// 066   ----------------------------------------
	BYTE	W96
// 067   ----------------------------------------
	BYTE	W96
// 068   ----------------------------------------
	BYTE	W96
// 069   ----------------------------------------
	BYTE	W96
// 070   ----------------------------------------
	BYTE	W96
// 071   ----------------------------------------
	BYTE	W96
// 072   ----------------------------------------
	BYTE	W96
// 073   ----------------------------------------
	BYTE	W96
// 074   ----------------------------------------
	BYTE	W96
// 075   ----------------------------------------
	BYTE	W96
// 076   ----------------------------------------
	BYTE	W96
// 077   ----------------------------------------
	BYTE	W96
// 078   ----------------------------------------
	BYTE	W96
// 079   ----------------------------------------
	BYTE	W96
// 080   ----------------------------------------
	BYTE	W96
	BYTE	GoTo
	 POIN2	FE15TwilightOfTheGodsSme_1_B1
FE15TwilightOfTheGodsSme_1_B2:
// 081   ----------------------------------------
	BYTE	FINE

//**************** Track 2 (Midi-Chn.2) ****************//

FE15TwilightOfTheGodsSme_2:
	BYTE	KEYSH   FE15TwilightOfTheGodsSme_key+0
// 000   ----------------------------------------
	BYTE		VOICE   51
	BYTE		VOL     59*FE15TwilightOfTheGodsSme_mvl/mxv
	BYTE		TIE     En1   v104
	BYTE	W96
// 001   ----------------------------------------
	BYTE	W96
// 002   ----------------------------------------
	BYTE	W96
// 003   ----------------------------------------
	BYTE	W96
	BYTE		EOT   
// 004   ----------------------------------------
	BYTE		TIE     Cn1 
	BYTE	W96
// 005   ----------------------------------------
	BYTE	W96
// 006   ----------------------------------------
	BYTE	W96
// 007   ----------------------------------------
	BYTE	W96
	BYTE		EOT   
// 008   ----------------------------------------
	BYTE		TIE     An0 
	BYTE	W96
// 009   ----------------------------------------
	BYTE	W96
// 010   ----------------------------------------
	BYTE	W96
// 011   ----------------------------------------
	BYTE	W96
	BYTE		EOT   
// 012   ----------------------------------------
	BYTE		TIE     Bn0 
	BYTE	W96
// 013   ----------------------------------------
	BYTE	W96
// 014   ----------------------------------------
	BYTE	W96
// 015   ----------------------------------------
	BYTE	W96
	BYTE		EOT   
// 016   ----------------------------------------
	BYTE		VOL     59*FE15TwilightOfTheGodsSme_mvl/mxv
	BYTE		TIE     En1 
	BYTE	W96
// 017   ----------------------------------------
	BYTE	W96
// 018   ----------------------------------------
	BYTE	W96
// 019   ----------------------------------------
	BYTE	W96
	BYTE		EOT   
// 020   ----------------------------------------
	BYTE		TIE     Cn1 
	BYTE	W96
// 021   ----------------------------------------
	BYTE	W96
// 022   ----------------------------------------
	BYTE	W96
// 023   ----------------------------------------
	BYTE	W96
	BYTE		EOT   
// 024   ----------------------------------------
	BYTE		TIE     An0 
	BYTE	W96
// 025   ----------------------------------------
	BYTE	W96
// 026   ----------------------------------------
	BYTE	W96
// 027   ----------------------------------------
	BYTE	W96
	BYTE		EOT   
// 028   ----------------------------------------
	BYTE		TIE     Bn0 
	BYTE	W96
// 029   ----------------------------------------
	BYTE	W96
// 030   ----------------------------------------
	BYTE	W96
// 031   ----------------------------------------
	BYTE	W96
	BYTE		EOT   
// 032   ----------------------------------------
FE15TwilightOfTheGodsSme_2_032:
	BYTE		N12     En1   v104
	BYTE	W48
	BYTE		        Gn1 
	BYTE	W24
	BYTE		        Fs1 
	BYTE	W24
	BYTE	PEND
// 033   ----------------------------------------
	BYTE	PATT
	 POIN2	FE15TwilightOfTheGodsSme_2_032
// 034   ----------------------------------------
	BYTE	PATT
	 POIN2	FE15TwilightOfTheGodsSme_2_032
// 035   ----------------------------------------
	BYTE	PATT
	 POIN2	FE15TwilightOfTheGodsSme_2_032
// 036   ----------------------------------------
	BYTE	W48
FE15TwilightOfTheGodsSme_2_B1:
// 037   ----------------------------------------
	BYTE		TIE     En1   v104
	BYTE	W96
// 038   ----------------------------------------
	BYTE	W96
	BYTE		EOT   
// 039   ----------------------------------------
	BYTE		TIE     Dn1 
	BYTE	W96
// 040   ----------------------------------------
	BYTE	W96
	BYTE		EOT   
// 041   ----------------------------------------
	BYTE		TIE     Cn1 
	BYTE	W96
// 042   ----------------------------------------
	BYTE	W96
	BYTE		EOT   
// 043   ----------------------------------------
	BYTE		N96     Dn1 
	BYTE	W96
// 044   ----------------------------------------
	BYTE		N48   
	BYTE	W48
	BYTE		        Ds1 
	BYTE	W48
// 045   ----------------------------------------
	BYTE		TIE     En1 
	BYTE	W96
// 046   ----------------------------------------
	BYTE	W96
// 047   ----------------------------------------
	BYTE	W96
// 048   ----------------------------------------
	BYTE	W96
	BYTE		EOT   
// 049   ----------------------------------------
	BYTE		TIE     Cn1 
	BYTE	W96
// 050   ----------------------------------------
	BYTE	W96
// 051   ----------------------------------------
	BYTE	W96
// 052   ----------------------------------------
	BYTE	W96
	BYTE		EOT   
// 053   ----------------------------------------
	BYTE		TIE     An0 
	BYTE	W96
// 054   ----------------------------------------
	BYTE	W96
// 055   ----------------------------------------
	BYTE	W96
// 056   ----------------------------------------
	BYTE	W96
	BYTE		EOT   
// 057   ----------------------------------------
	BYTE		TIE     Bn0 
	BYTE	W96
// 058   ----------------------------------------
	BYTE	W96
// 059   ----------------------------------------
	BYTE	W96
// 060   ----------------------------------------
	BYTE	W96
	BYTE		EOT   
// 061   ----------------------------------------
	BYTE		VOL     59*FE15TwilightOfTheGodsSme_mvl/mxv
	BYTE		TIE     An0 
	BYTE	W96
// 062   ----------------------------------------
	BYTE	W96
// 063   ----------------------------------------
	BYTE	W96
// 064   ----------------------------------------
	BYTE	W96
	BYTE		EOT   
// 065   ----------------------------------------
	BYTE		TIE     Bn0 
	BYTE	W96
// 066   ----------------------------------------
	BYTE	W96
// 067   ----------------------------------------
	BYTE	W96
// 068   ----------------------------------------
	BYTE	W96
	BYTE		EOT   
// 069   ----------------------------------------
	BYTE		N96     En1 
	BYTE	W96
// 070   ----------------------------------------
	BYTE		        Dn1 
	BYTE	W96
// 071   ----------------------------------------
	BYTE		        Cn1 
	BYTE	W96
// 072   ----------------------------------------
	BYTE		        Bn0 
	BYTE	W96
// 073   ----------------------------------------
	BYTE		        En1 
	BYTE	W96
// 074   ----------------------------------------
	BYTE		        Dn1 
	BYTE	W96
// 075   ----------------------------------------
	BYTE		        Cn1 
	BYTE	W96
// 076   ----------------------------------------
	BYTE		        Bn0 
	BYTE	W96
// 077   ----------------------------------------
	BYTE		        En1 
	BYTE	W96
// 078   ----------------------------------------
	BYTE		N96   
	BYTE	W96
// 079   ----------------------------------------
	BYTE		N96   
	BYTE	W96
// 080   ----------------------------------------
	BYTE		        Dn1 
	BYTE	W96
	BYTE	GoTo
	 POIN2	FE15TwilightOfTheGodsSme_2_B1
FE15TwilightOfTheGodsSme_2_B2:
// 081   ----------------------------------------
	BYTE	FINE

//**************** Track 3 (Midi-Chn.3) ****************//

FE15TwilightOfTheGodsSme_3:
	BYTE	KEYSH   FE15TwilightOfTheGodsSme_key+0
// 000   ----------------------------------------
	BYTE		VOICE   79
	BYTE		VOL     55*FE15TwilightOfTheGodsSme_mvl/mxv
	BYTE	W96
// 001   ----------------------------------------
	BYTE		TIE     Bn3   v104
	BYTE		TIE     Fs4 
	BYTE	W96
// 002   ----------------------------------------
	BYTE	W96
// 003   ----------------------------------------
	BYTE	W96
	BYTE		EOT     Bn3 
	BYTE		        Fs4 
// 004   ----------------------------------------
	BYTE	W96
// 005   ----------------------------------------
FE15TwilightOfTheGodsSme_3_005:
	BYTE		TIE     Bn3   v104
	BYTE		TIE     En4 
	BYTE	W96
	BYTE	PEND
// 006   ----------------------------------------
	BYTE	W96
// 007   ----------------------------------------
	BYTE	W96
	BYTE		EOT     Bn3 
	BYTE		        En4 
// 008   ----------------------------------------
	BYTE	W96
// 009   ----------------------------------------
	BYTE	PATT
	 POIN2	FE15TwilightOfTheGodsSme_3_005
// 010   ----------------------------------------
	BYTE	W96
// 011   ----------------------------------------
	BYTE	W96
	BYTE		EOT     Bn3 
	BYTE		        En4 
// 012   ----------------------------------------
	BYTE	W96
// 013   ----------------------------------------
	BYTE	PATT
	 POIN2	FE15TwilightOfTheGodsSme_3_005
// 014   ----------------------------------------
	BYTE	W96
// 015   ----------------------------------------
	BYTE	W96
	BYTE		EOT     Bn3 
	BYTE		        En4 
// 016   ----------------------------------------
	BYTE	W96
// 017   ----------------------------------------
	BYTE	W96
// 018   ----------------------------------------
	BYTE	W96
// 019   ----------------------------------------
	BYTE	W96
// 020   ----------------------------------------
	BYTE	W96
// 021   ----------------------------------------
	BYTE	W96
// 022   ----------------------------------------
	BYTE	W96
// 023   ----------------------------------------
	BYTE	W96
// 024   ----------------------------------------
	BYTE	W96
// 025   ----------------------------------------
	BYTE	W96
// 026   ----------------------------------------
	BYTE	W96
// 027   ----------------------------------------
	BYTE	W96
// 028   ----------------------------------------
	BYTE	W96
// 029   ----------------------------------------
	BYTE	W96
// 030   ----------------------------------------
	BYTE	W96
// 031   ----------------------------------------
	BYTE	W96
// 032   ----------------------------------------
	BYTE	W96
// 033   ----------------------------------------
	BYTE	W96
// 034   ----------------------------------------
	BYTE	W96
// 035   ----------------------------------------
	BYTE	W96
// 036   ----------------------------------------
	BYTE	W48
FE15TwilightOfTheGodsSme_3_B1:
// 037   ----------------------------------------
	BYTE	W96
// 038   ----------------------------------------
	BYTE	W96
// 039   ----------------------------------------
	BYTE	W96
// 040   ----------------------------------------
	BYTE	W96
// 041   ----------------------------------------
	BYTE	W96
// 042   ----------------------------------------
	BYTE	W96
// 043   ----------------------------------------
	BYTE	W96
// 044   ----------------------------------------
	BYTE	W96
// 045   ----------------------------------------
	BYTE	W96
// 046   ----------------------------------------
	BYTE	W96
// 047   ----------------------------------------
	BYTE	W96
// 048   ----------------------------------------
	BYTE	W96
// 049   ----------------------------------------
	BYTE	W96
// 050   ----------------------------------------
	BYTE	W96
// 051   ----------------------------------------
	BYTE	W96
// 052   ----------------------------------------
	BYTE	W96
// 053   ----------------------------------------
	BYTE	W96
// 054   ----------------------------------------
	BYTE	W96
// 055   ----------------------------------------
	BYTE	W96
// 056   ----------------------------------------
	BYTE	W96
// 057   ----------------------------------------
	BYTE	W96
// 058   ----------------------------------------
	BYTE	W96
// 059   ----------------------------------------
	BYTE	W96
// 060   ----------------------------------------
	BYTE	W96
// 061   ----------------------------------------
	BYTE	W96
// 062   ----------------------------------------
	BYTE	W96
// 063   ----------------------------------------
	BYTE	W96
// 064   ----------------------------------------
	BYTE	W96
// 065   ----------------------------------------
	BYTE	W96
// 066   ----------------------------------------
	BYTE	W96
// 067   ----------------------------------------
	BYTE	W96
// 068   ----------------------------------------
	BYTE	W96
// 069   ----------------------------------------
	BYTE	W96
// 070   ----------------------------------------
	BYTE	W96
// 071   ----------------------------------------
	BYTE	W96
// 072   ----------------------------------------
	BYTE	W96
// 073   ----------------------------------------
	BYTE	W96
// 074   ----------------------------------------
	BYTE	W96
// 075   ----------------------------------------
	BYTE	W96
// 076   ----------------------------------------
	BYTE	W96
// 077   ----------------------------------------
	BYTE	W96
// 078   ----------------------------------------
	BYTE	W96
// 079   ----------------------------------------
	BYTE	W96
// 080   ----------------------------------------
	BYTE	W96
	BYTE	GoTo
	 POIN2	FE15TwilightOfTheGodsSme_3_B1
FE15TwilightOfTheGodsSme_3_B2:
// 081   ----------------------------------------
	BYTE	FINE

//**************** Track 4 (Midi-Chn.4) ****************//

FE15TwilightOfTheGodsSme_4:
	BYTE	KEYSH   FE15TwilightOfTheGodsSme_key+0
// 000   ----------------------------------------
	BYTE		VOICE   52
	BYTE		VOL     80*FE15TwilightOfTheGodsSme_mvl/mxv
	BYTE	W96
// 001   ----------------------------------------
	BYTE	W96
// 002   ----------------------------------------
	BYTE	W96
// 003   ----------------------------------------
	BYTE	W96
// 004   ----------------------------------------
	BYTE	W96
// 005   ----------------------------------------
	BYTE	W96
// 006   ----------------------------------------
	BYTE	W96
// 007   ----------------------------------------
	BYTE	W96
// 008   ----------------------------------------
	BYTE	W96
// 009   ----------------------------------------
	BYTE	W96
// 010   ----------------------------------------
	BYTE	W96
// 011   ----------------------------------------
	BYTE	W96
// 012   ----------------------------------------
	BYTE	W96
// 013   ----------------------------------------
	BYTE	W96
// 014   ----------------------------------------
	BYTE	W96
// 015   ----------------------------------------
	BYTE	W96
// 016   ----------------------------------------
FE15TwilightOfTheGodsSme_4_016:
	BYTE	W24
	BYTE		N24     En4   v104
	BYTE	W24
	BYTE		        Dn4 
	BYTE	W24
	BYTE		        An3 
	BYTE	W24
	BYTE	PEND
// 017   ----------------------------------------
FE15TwilightOfTheGodsSme_4_017:
	BYTE		N48     Bn3   v104
	BYTE	W48
	BYTE		N24     Gn2 
	BYTE	W24
	BYTE		        An2 
	BYTE	W24
	BYTE	PEND
// 018   ----------------------------------------
FE15TwilightOfTheGodsSme_4_018:
	BYTE		N48     Bn2   v104
	BYTE	W48
	BYTE		        Gn3 
	BYTE	W48
	BYTE	PEND
// 019   ----------------------------------------
FE15TwilightOfTheGodsSme_4_019:
	BYTE		N48     Fs3   v104
	BYTE	W48
	BYTE		        Dn3 
	BYTE	W48
	BYTE	PEND
// 020   ----------------------------------------
	BYTE	PATT
	 POIN2	FE15TwilightOfTheGodsSme_4_016
// 021   ----------------------------------------
	BYTE	PATT
	 POIN2	FE15TwilightOfTheGodsSme_4_017
// 022   ----------------------------------------
	BYTE		N48     Bn2   v104
	BYTE	W48
	BYTE		        Cn3 
	BYTE	W48
// 023   ----------------------------------------
	BYTE		        Bn2 
	BYTE	W48
	BYTE		        Gn2 
	BYTE	W48
// 024   ----------------------------------------
	BYTE	PATT
	 POIN2	FE15TwilightOfTheGodsSme_4_016
// 025   ----------------------------------------
	BYTE	PATT
	 POIN2	FE15TwilightOfTheGodsSme_4_017
// 026   ----------------------------------------
	BYTE	PATT
	 POIN2	FE15TwilightOfTheGodsSme_4_018
// 027   ----------------------------------------
	BYTE	PATT
	 POIN2	FE15TwilightOfTheGodsSme_4_019
// 028   ----------------------------------------
	BYTE	PATT
	 POIN2	FE15TwilightOfTheGodsSme_4_016
// 029   ----------------------------------------
	BYTE	PATT
	 POIN2	FE15TwilightOfTheGodsSme_4_017
// 030   ----------------------------------------
	BYTE		N48     Bn2   v104
	BYTE	W48
	BYTE		        En3 
	BYTE	W48
// 031   ----------------------------------------
	BYTE		        Ds3 
	BYTE	W48
	BYTE		        Bn2 
	BYTE	W48
// 032   ----------------------------------------
	BYTE		TIE     En4 
	BYTE	W96
// 033   ----------------------------------------
	BYTE	W96
// 034   ----------------------------------------
	BYTE	W12
	BYTE		EOT   
	BYTE	W84
// 035   ----------------------------------------
	BYTE	W96
// 036   ----------------------------------------
	BYTE	W48
FE15TwilightOfTheGodsSme_4_B1:
// 037   ----------------------------------------
	BYTE	W96
// 038   ----------------------------------------
	BYTE	W96
// 039   ----------------------------------------
	BYTE	W96
// 040   ----------------------------------------
	BYTE	W96
// 041   ----------------------------------------
	BYTE	W96
// 042   ----------------------------------------
	BYTE	W96
// 043   ----------------------------------------
	BYTE	W96
// 044   ----------------------------------------
	BYTE	W96
// 045   ----------------------------------------
	BYTE	PATT
	 POIN2	FE15TwilightOfTheGodsSme_4_016
// 046   ----------------------------------------
FE15TwilightOfTheGodsSme_4_046:
	BYTE		N48     Bn3   v104
	BYTE	W48
	BYTE		N24     Gn3 
	BYTE	W24
	BYTE		        An3 
	BYTE	W24
	BYTE	PEND
// 047   ----------------------------------------
FE15TwilightOfTheGodsSme_4_047:
	BYTE		N48     Bn3   v104
	BYTE	W48
	BYTE		        Gn4 
	BYTE	W48
	BYTE	PEND
// 048   ----------------------------------------
FE15TwilightOfTheGodsSme_4_048:
	BYTE		N48     Fs4   v104
	BYTE	W48
	BYTE		        Dn4 
	BYTE	W48
	BYTE	PEND
// 049   ----------------------------------------
	BYTE	PATT
	 POIN2	FE15TwilightOfTheGodsSme_4_016
// 050   ----------------------------------------
	BYTE	PATT
	 POIN2	FE15TwilightOfTheGodsSme_4_046
// 051   ----------------------------------------
FE15TwilightOfTheGodsSme_4_051:
	BYTE		N48     Bn3   v104
	BYTE	W48
	BYTE		        Cn4 
	BYTE	W48
	BYTE	PEND
// 052   ----------------------------------------
	BYTE		        Bn3 
	BYTE	W48
	BYTE		        Gn3 
	BYTE	W48
// 053   ----------------------------------------
	BYTE	PATT
	 POIN2	FE15TwilightOfTheGodsSme_4_016
// 054   ----------------------------------------
	BYTE	PATT
	 POIN2	FE15TwilightOfTheGodsSme_4_046
// 055   ----------------------------------------
	BYTE	PATT
	 POIN2	FE15TwilightOfTheGodsSme_4_047
// 056   ----------------------------------------
	BYTE	PATT
	 POIN2	FE15TwilightOfTheGodsSme_4_048
// 057   ----------------------------------------
	BYTE	PATT
	 POIN2	FE15TwilightOfTheGodsSme_4_016
// 058   ----------------------------------------
	BYTE	PATT
	 POIN2	FE15TwilightOfTheGodsSme_4_046
// 059   ----------------------------------------
	BYTE	PATT
	 POIN2	FE15TwilightOfTheGodsSme_4_051
// 060   ----------------------------------------
FE15TwilightOfTheGodsSme_4_060:
	BYTE		N48     Bn3   v104
	BYTE	W48
	BYTE		        An3 
	BYTE	W48
	BYTE	PEND
// 061   ----------------------------------------
FE15TwilightOfTheGodsSme_4_061:
	BYTE		N48     An3   v104
	BYTE	W48
	BYTE		N96     Gn3 
	BYTE	W48
	BYTE	PEND
// 062   ----------------------------------------
FE15TwilightOfTheGodsSme_4_062:
	BYTE	W48
	BYTE		N16     En3   v104
	BYTE	W16
	BYTE		        Fs3 
	BYTE	W16
	BYTE		        Gn3 
	BYTE	W16
	BYTE	PEND
// 063   ----------------------------------------
	BYTE		N48     An3 
	BYTE	W48
	BYTE		        Gn3 
	BYTE	W48
// 064   ----------------------------------------
	BYTE	PATT
	 POIN2	FE15TwilightOfTheGodsSme_4_019
// 065   ----------------------------------------
	BYTE	PATT
	 POIN2	FE15TwilightOfTheGodsSme_4_061
// 066   ----------------------------------------
	BYTE	PATT
	 POIN2	FE15TwilightOfTheGodsSme_4_062
// 067   ----------------------------------------
	BYTE	PATT
	 POIN2	FE15TwilightOfTheGodsSme_4_060
// 068   ----------------------------------------
	BYTE		N48     Bn3   v104
	BYTE	W48
	BYTE		N16     Gn3 
	BYTE	W16
	BYTE		        An3 
	BYTE	W16
	BYTE		        Bn3 
	BYTE	W16
// 069   ----------------------------------------
FE15TwilightOfTheGodsSme_4_069:
	BYTE		N48     En4   v104
	BYTE	W48
	BYTE		N16     Gn3 
	BYTE	W16
	BYTE		        An3 
	BYTE	W16
	BYTE		        Bn3 
	BYTE	W16
	BYTE	PEND
// 070   ----------------------------------------
FE15TwilightOfTheGodsSme_4_070:
	BYTE		N48     Dn4   v104
	BYTE	W48
	BYTE		N16     En3 
	BYTE	W16
	BYTE		        Gn3 
	BYTE	W16
	BYTE		        An3 
	BYTE	W16
	BYTE	PEND
// 071   ----------------------------------------
FE15TwilightOfTheGodsSme_4_071:
	BYTE		N48     Dn4   v104
	BYTE	W48
	BYTE		N16     Dn3 
	BYTE	W16
	BYTE		        Fs3 
	BYTE	W16
	BYTE		        An3 
	BYTE	W16
	BYTE	PEND
// 072   ----------------------------------------
	BYTE		N24     En4 
	BYTE	W24
	BYTE		        Dn4 
	BYTE	W24
	BYTE		N16     Gn3 
	BYTE	W16
	BYTE		        An3 
	BYTE	W16
	BYTE		        Bn3 
	BYTE	W16
// 073   ----------------------------------------
	BYTE	PATT
	 POIN2	FE15TwilightOfTheGodsSme_4_069
// 074   ----------------------------------------
	BYTE	PATT
	 POIN2	FE15TwilightOfTheGodsSme_4_070
// 075   ----------------------------------------
	BYTE	PATT
	 POIN2	FE15TwilightOfTheGodsSme_4_071
// 076   ----------------------------------------
	BYTE		N24     En4   v104
	BYTE	W24
	BYTE		        Dn4 
	BYTE	W24
	BYTE		N16     Dn3 
	BYTE	W16
	BYTE		        Fs3 
	BYTE	W16
	BYTE		        An3 
	BYTE	W16
// 077   ----------------------------------------
	BYTE		N24     En4 
	BYTE	W96
// 078   ----------------------------------------
	BYTE		N24   
	BYTE	W96
// 079   ----------------------------------------
	BYTE		N24   
	BYTE	W96
// 080   ----------------------------------------
	BYTE		N24   
	BYTE	W96
	BYTE	GoTo
	 POIN2	FE15TwilightOfTheGodsSme_4_B1
FE15TwilightOfTheGodsSme_4_B2:
// 081   ----------------------------------------
	BYTE	FINE

//**************** Track 5 (Midi-Chn.5) ****************//

FE15TwilightOfTheGodsSme_5:
	BYTE	KEYSH   FE15TwilightOfTheGodsSme_key+0
// 000   ----------------------------------------
	BYTE		VOICE   1
	BYTE		VOL     68*FE15TwilightOfTheGodsSme_mvl/mxv
	BYTE		N96     En2   v104
	BYTE	W96
// 001   ----------------------------------------
	BYTE		TIE     Bn2 
	BYTE		TIE     Dn3 
	BYTE	W96
// 002   ----------------------------------------
	BYTE	W96
// 003   ----------------------------------------
	BYTE	W96
	BYTE		EOT     Bn2 
	BYTE		        Dn3 
// 004   ----------------------------------------
	BYTE		N96     Cn2 
	BYTE	W96
// 005   ----------------------------------------
FE15TwilightOfTheGodsSme_5_005:
	BYTE		TIE     Gn2   v104
	BYTE		TIE     Bn2 
	BYTE	W96
	BYTE	PEND
// 006   ----------------------------------------
	BYTE	W96
// 007   ----------------------------------------
	BYTE	W96
	BYTE		EOT     Gn2 
	BYTE		        Bn2 
// 008   ----------------------------------------
	BYTE		N96     An1 
	BYTE	W96
// 009   ----------------------------------------
	BYTE	PATT
	 POIN2	FE15TwilightOfTheGodsSme_5_005
// 010   ----------------------------------------
	BYTE	W96
// 011   ----------------------------------------
	BYTE	W96
	BYTE		EOT     Gn2 
	BYTE		        Bn2 
// 012   ----------------------------------------
	BYTE		N96     Bn1   v104
	BYTE	W96
// 013   ----------------------------------------
	BYTE	PATT
	 POIN2	FE15TwilightOfTheGodsSme_5_005
// 014   ----------------------------------------
	BYTE	W96
// 015   ----------------------------------------
	BYTE	W96
	BYTE		EOT     Gn2 
	BYTE		        Bn2 
// 016   ----------------------------------------
	BYTE	W96
// 017   ----------------------------------------
	BYTE	W96
// 018   ----------------------------------------
	BYTE	W96
// 019   ----------------------------------------
	BYTE	W96
// 020   ----------------------------------------
	BYTE	W96
// 021   ----------------------------------------
	BYTE	W96
// 022   ----------------------------------------
	BYTE	W96
// 023   ----------------------------------------
	BYTE	W96
// 024   ----------------------------------------
	BYTE	W96
// 025   ----------------------------------------
	BYTE	W96
// 026   ----------------------------------------
	BYTE	W96
// 027   ----------------------------------------
	BYTE	W96
// 028   ----------------------------------------
	BYTE	W96
// 029   ----------------------------------------
	BYTE	W96
// 030   ----------------------------------------
	BYTE	W96
// 031   ----------------------------------------
	BYTE	W96
// 032   ----------------------------------------
	BYTE	W96
// 033   ----------------------------------------
	BYTE	W96
// 034   ----------------------------------------
	BYTE	W96
// 035   ----------------------------------------
	BYTE	W96
// 036   ----------------------------------------
	BYTE	W48
FE15TwilightOfTheGodsSme_5_B1:
// 037   ----------------------------------------
	BYTE	W96
// 038   ----------------------------------------
	BYTE	W96
// 039   ----------------------------------------
	BYTE	W96
// 040   ----------------------------------------
	BYTE	W96
// 041   ----------------------------------------
	BYTE	W96
// 042   ----------------------------------------
	BYTE	W96
// 043   ----------------------------------------
	BYTE	W96
// 044   ----------------------------------------
	BYTE	W96
// 045   ----------------------------------------
	BYTE	W96
// 046   ----------------------------------------
	BYTE	W96
// 047   ----------------------------------------
	BYTE	W96
// 048   ----------------------------------------
	BYTE	W96
// 049   ----------------------------------------
	BYTE	W96
// 050   ----------------------------------------
	BYTE	W96
// 051   ----------------------------------------
	BYTE	W96
// 052   ----------------------------------------
	BYTE	W96
// 053   ----------------------------------------
	BYTE	W96
// 054   ----------------------------------------
	BYTE	W96
// 055   ----------------------------------------
	BYTE	W96
// 056   ----------------------------------------
	BYTE	W96
// 057   ----------------------------------------
	BYTE	W96
// 058   ----------------------------------------
	BYTE	W96
// 059   ----------------------------------------
	BYTE	W96
// 060   ----------------------------------------
	BYTE	W96
// 061   ----------------------------------------
	BYTE	W96
// 062   ----------------------------------------
	BYTE	W96
// 063   ----------------------------------------
	BYTE	W96
// 064   ----------------------------------------
	BYTE	W96
// 065   ----------------------------------------
	BYTE	W96
// 066   ----------------------------------------
	BYTE	W96
// 067   ----------------------------------------
	BYTE	W96
// 068   ----------------------------------------
	BYTE	W96
// 069   ----------------------------------------
	BYTE	W96
// 070   ----------------------------------------
	BYTE	W96
// 071   ----------------------------------------
	BYTE	W96
// 072   ----------------------------------------
	BYTE	W96
// 073   ----------------------------------------
	BYTE	W96
// 074   ----------------------------------------
	BYTE	W96
// 075   ----------------------------------------
	BYTE	W96
// 076   ----------------------------------------
	BYTE	W96
// 077   ----------------------------------------
	BYTE	W96
// 078   ----------------------------------------
	BYTE	W96
// 079   ----------------------------------------
	BYTE	W96
// 080   ----------------------------------------
	BYTE	W96
	BYTE	GoTo
	 POIN2	FE15TwilightOfTheGodsSme_5_B1
FE15TwilightOfTheGodsSme_5_B2:
// 081   ----------------------------------------
	BYTE	FINE

//**************** Track 6 (Midi-Chn.6) ****************//

FE15TwilightOfTheGodsSme_6:
	BYTE	KEYSH   FE15TwilightOfTheGodsSme_key+0
// 000   ----------------------------------------
	BYTE		VOICE   123
	BYTE		VOL     78*FE15TwilightOfTheGodsSme_mvl/mxv
	BYTE		N96     En2   v104
	BYTE	W96
// 001   ----------------------------------------
	BYTE	W96
// 002   ----------------------------------------
	BYTE	W96
// 003   ----------------------------------------
	BYTE	W96
// 004   ----------------------------------------
	BYTE	W96
// 005   ----------------------------------------
	BYTE	W96
// 006   ----------------------------------------
	BYTE	W96
// 007   ----------------------------------------
	BYTE	W96
// 008   ----------------------------------------
	BYTE	W96
// 009   ----------------------------------------
	BYTE	W96
// 010   ----------------------------------------
	BYTE	W96
// 011   ----------------------------------------
	BYTE	W96
// 012   ----------------------------------------
	BYTE	W96
// 013   ----------------------------------------
	BYTE	W96
// 014   ----------------------------------------
	BYTE	W96
// 015   ----------------------------------------
	BYTE	W48
	BYTE		N03     Cn1   v016
	BYTE	W03
	BYTE		        Cn1   v020
	BYTE	W03
	BYTE		        Cn1   v028
	BYTE	W03
	BYTE		        Cn1   v032
	BYTE	W03
	BYTE		        Cn1   v040
	BYTE	W03
	BYTE		        Cn1   v048
	BYTE	W03
	BYTE		        Cn1   v052
	BYTE	W03
	BYTE		        Cn1   v060
	BYTE	W03
	BYTE		        Cn1   v064
	BYTE	W03
	BYTE		        Cn1   v072
	BYTE	W03
	BYTE		        Cn1   v076
	BYTE	W03
	BYTE		        Cn1   v084
	BYTE	W03
	BYTE		        Cn1   v092
	BYTE	W03
	BYTE		        Cn1   v096
	BYTE	W03
	BYTE		        Cn1   v104
	BYTE	W03
	BYTE		N03   
	BYTE	W03
// 016   ----------------------------------------
FE15TwilightOfTheGodsSme_6_016:
	BYTE		N48     Cn1   v104
	BYTE		N48     Cs2 
	BYTE	W48
	BYTE		N16     Dn1   v064
	BYTE	W16
	BYTE		        Dn1   v040
	BYTE	W32
	BYTE	PEND
// 017   ----------------------------------------
FE15TwilightOfTheGodsSme_6_017:
	BYTE	W48
	BYTE		N16     Dn1   v064
	BYTE	W16
	BYTE		        Dn1   v040
	BYTE	W32
	BYTE	PEND
// 018   ----------------------------------------
	BYTE	PATT
	 POIN2	FE15TwilightOfTheGodsSme_6_017
// 019   ----------------------------------------
FE15TwilightOfTheGodsSme_6_019:
	BYTE	W48
	BYTE		N16     Dn1   v064
	BYTE	W16
	BYTE		        Dn1   v040
	BYTE	W16
	BYTE		        Ds1   v064
	BYTE	W16
	BYTE	PEND
// 020   ----------------------------------------
	BYTE	PATT
	 POIN2	FE15TwilightOfTheGodsSme_6_016
// 021   ----------------------------------------
	BYTE	PATT
	 POIN2	FE15TwilightOfTheGodsSme_6_017
// 022   ----------------------------------------
	BYTE	PATT
	 POIN2	FE15TwilightOfTheGodsSme_6_017
// 023   ----------------------------------------
	BYTE	PATT
	 POIN2	FE15TwilightOfTheGodsSme_6_019
// 024   ----------------------------------------
	BYTE	PATT
	 POIN2	FE15TwilightOfTheGodsSme_6_016
// 025   ----------------------------------------
	BYTE	PATT
	 POIN2	FE15TwilightOfTheGodsSme_6_017
// 026   ----------------------------------------
	BYTE	PATT
	 POIN2	FE15TwilightOfTheGodsSme_6_017
// 027   ----------------------------------------
	BYTE	PATT
	 POIN2	FE15TwilightOfTheGodsSme_6_019
// 028   ----------------------------------------
	BYTE	PATT
	 POIN2	FE15TwilightOfTheGodsSme_6_016
// 029   ----------------------------------------
	BYTE	PATT
	 POIN2	FE15TwilightOfTheGodsSme_6_017
// 030   ----------------------------------------
	BYTE	PATT
	 POIN2	FE15TwilightOfTheGodsSme_6_017
// 031   ----------------------------------------
	BYTE	PATT
	 POIN2	FE15TwilightOfTheGodsSme_6_019
// 032   ----------------------------------------
	BYTE		N48     Cn1   v104
	BYTE		N48     Cs2 
	BYTE	W96
// 033   ----------------------------------------
	BYTE	W96
// 034   ----------------------------------------
	BYTE	W96
// 035   ----------------------------------------
	BYTE	W96
// 036   ----------------------------------------
	BYTE		        En2 
	BYTE	W48
FE15TwilightOfTheGodsSme_6_B1:
// 037   ----------------------------------------
FE15TwilightOfTheGodsSme_6_037:
	BYTE		N48     Cn1   v104
	BYTE		N96     Cs2 
	BYTE	W48
	BYTE		N48     Cn1 
	BYTE	W48
	BYTE	PEND
// 038   ----------------------------------------
FE15TwilightOfTheGodsSme_6_038:
	BYTE		N48     Cn1   v104
	BYTE	W48
	BYTE		N48   
	BYTE	W48
	BYTE	PEND
// 039   ----------------------------------------
	BYTE	PATT
	 POIN2	FE15TwilightOfTheGodsSme_6_037
// 040   ----------------------------------------
	BYTE	PATT
	 POIN2	FE15TwilightOfTheGodsSme_6_038
// 041   ----------------------------------------
	BYTE	PATT
	 POIN2	FE15TwilightOfTheGodsSme_6_037
// 042   ----------------------------------------
	BYTE	PATT
	 POIN2	FE15TwilightOfTheGodsSme_6_038
// 043   ----------------------------------------
	BYTE	PATT
	 POIN2	FE15TwilightOfTheGodsSme_6_037
// 044   ----------------------------------------
	BYTE		N48     Cn1   v104
	BYTE	W24
	BYTE		N96     En2 
	BYTE	W24
	BYTE		N48     Cn1 
	BYTE	W48
// 045   ----------------------------------------
	BYTE	W24
	BYTE		N96     Cs2 
	BYTE	W72
// 046   ----------------------------------------
	BYTE	W96
// 047   ----------------------------------------
	BYTE	W96
// 048   ----------------------------------------
	BYTE	W96
// 049   ----------------------------------------
	BYTE		N96   
	BYTE	W96
// 050   ----------------------------------------
	BYTE	W96
// 051   ----------------------------------------
	BYTE	W96
// 052   ----------------------------------------
	BYTE	W96
// 053   ----------------------------------------
	BYTE		N96   
	BYTE	W96
// 054   ----------------------------------------
	BYTE	W96
// 055   ----------------------------------------
	BYTE	W96
// 056   ----------------------------------------
	BYTE	W96
// 057   ----------------------------------------
	BYTE		N96   
	BYTE	W96
// 058   ----------------------------------------
	BYTE	W96
// 059   ----------------------------------------
	BYTE	W96
// 060   ----------------------------------------
	BYTE	W96
// 061   ----------------------------------------
FE15TwilightOfTheGodsSme_6_061:
	BYTE		N24     Cn1   v104
	BYTE	W24
	BYTE		N24   
	BYTE	W24
	BYTE		N24   
	BYTE	W24
	BYTE		N24   
	BYTE	W24
	BYTE	PEND
// 062   ----------------------------------------
	BYTE	PATT
	 POIN2	FE15TwilightOfTheGodsSme_6_061
// 063   ----------------------------------------
	BYTE	PATT
	 POIN2	FE15TwilightOfTheGodsSme_6_061
// 064   ----------------------------------------
	BYTE	PATT
	 POIN2	FE15TwilightOfTheGodsSme_6_061
// 065   ----------------------------------------
	BYTE	PATT
	 POIN2	FE15TwilightOfTheGodsSme_6_061
// 066   ----------------------------------------
	BYTE	PATT
	 POIN2	FE15TwilightOfTheGodsSme_6_061
// 067   ----------------------------------------
	BYTE	PATT
	 POIN2	FE15TwilightOfTheGodsSme_6_061
// 068   ----------------------------------------
	BYTE	PATT
	 POIN2	FE15TwilightOfTheGodsSme_6_061
// 069   ----------------------------------------
	BYTE	PATT
	 POIN2	FE15TwilightOfTheGodsSme_6_037
// 070   ----------------------------------------
	BYTE	PATT
	 POIN2	FE15TwilightOfTheGodsSme_6_037
// 071   ----------------------------------------
	BYTE	PATT
	 POIN2	FE15TwilightOfTheGodsSme_6_037
// 072   ----------------------------------------
	BYTE	PATT
	 POIN2	FE15TwilightOfTheGodsSme_6_037
// 073   ----------------------------------------
	BYTE	PATT
	 POIN2	FE15TwilightOfTheGodsSme_6_037
// 074   ----------------------------------------
	BYTE	PATT
	 POIN2	FE15TwilightOfTheGodsSme_6_037
// 075   ----------------------------------------
	BYTE	PATT
	 POIN2	FE15TwilightOfTheGodsSme_6_037
// 076   ----------------------------------------
	BYTE	PATT
	 POIN2	FE15TwilightOfTheGodsSme_6_037
// 077   ----------------------------------------
	BYTE		N48     Cn1   v104
	BYTE		N48     Cs2 
	BYTE	W96
// 078   ----------------------------------------
	BYTE		        Cn1 
	BYTE		N48     Cs2 
	BYTE	W96
// 079   ----------------------------------------
	BYTE		        Cn1 
	BYTE		N48     Cs2 
	BYTE	W96
// 080   ----------------------------------------
	BYTE		        Cn1 
	BYTE		N48     Cs2 
	BYTE	W96
	BYTE	GoTo
	 POIN2	FE15TwilightOfTheGodsSme_6_B1
FE15TwilightOfTheGodsSme_6_B2:
// 081   ----------------------------------------
	BYTE	FINE

//**************** Track 7 (Midi-Chn.7) ****************//

FE15TwilightOfTheGodsSme_7:
	BYTE	KEYSH   FE15TwilightOfTheGodsSme_key+0
// 000   ----------------------------------------
	BYTE		VOICE   1
	BYTE		VOL     71*FE15TwilightOfTheGodsSme_mvl/mxv
	BYTE	W96
// 001   ----------------------------------------
	BYTE	W96
// 002   ----------------------------------------
	BYTE	W96
// 003   ----------------------------------------
	BYTE	W96
// 004   ----------------------------------------
	BYTE	W96
// 005   ----------------------------------------
	BYTE	W96
// 006   ----------------------------------------
	BYTE	W96
// 007   ----------------------------------------
	BYTE	W96
// 008   ----------------------------------------
	BYTE	W96
// 009   ----------------------------------------
	BYTE	W96
// 010   ----------------------------------------
	BYTE	W96
// 011   ----------------------------------------
	BYTE	W96
// 012   ----------------------------------------
	BYTE	W96
// 013   ----------------------------------------
	BYTE	W96
// 014   ----------------------------------------
	BYTE	W96
// 015   ----------------------------------------
	BYTE	W96
// 016   ----------------------------------------
	BYTE	W96
// 017   ----------------------------------------
	BYTE	W96
// 018   ----------------------------------------
	BYTE	W96
// 019   ----------------------------------------
	BYTE	W96
// 020   ----------------------------------------
	BYTE	W96
// 021   ----------------------------------------
	BYTE	W96
// 022   ----------------------------------------
	BYTE	W96
// 023   ----------------------------------------
	BYTE	W96
// 024   ----------------------------------------
	BYTE	W96
// 025   ----------------------------------------
	BYTE	W96
// 026   ----------------------------------------
	BYTE	W96
// 027   ----------------------------------------
	BYTE	W96
// 028   ----------------------------------------
	BYTE	W96
// 029   ----------------------------------------
	BYTE	W96
// 030   ----------------------------------------
	BYTE	W96
// 031   ----------------------------------------
	BYTE	W96
// 032   ----------------------------------------
FE15TwilightOfTheGodsSme_7_032:
	BYTE		N04     Bn2   v104
	BYTE	W04
	BYTE		        En3 
	BYTE	W04
	BYTE		        Fs3 
	BYTE	W04
	BYTE		        Gn3 
	BYTE	W04
	BYTE		        Dn4 
	BYTE	W04
	BYTE		        An3 
	BYTE	W04
	BYTE		        Gn3 
	BYTE	W04
	BYTE		        Fs3 
	BYTE	W04
	BYTE		        Gn3 
	BYTE	W04
	BYTE		        Fs3 
	BYTE	W04
	BYTE		        En3 
	BYTE	W04
	BYTE		        Fs3 
	BYTE	W04
	BYTE		        En3 
	BYTE	W04
	BYTE		        An2 
	BYTE	W04
	BYTE		        En3 
	BYTE	W04
	BYTE		        Fs3 
	BYTE	W04
	BYTE		        Bn2 
	BYTE	W04
	BYTE		        Fs3 
	BYTE	W04
	BYTE		        Gn3 
	BYTE	W04
	BYTE		        An2 
	BYTE	W04
	BYTE		        Gn3 
	BYTE	W04
	BYTE		N04   
	BYTE	W04
	BYTE		        Fs3 
	BYTE	W04
	BYTE		        Dn3 
	BYTE	W04
	BYTE	PEND
// 033   ----------------------------------------
	BYTE	PATT
	 POIN2	FE15TwilightOfTheGodsSme_7_032
// 034   ----------------------------------------
	BYTE	PATT
	 POIN2	FE15TwilightOfTheGodsSme_7_032
// 035   ----------------------------------------
	BYTE	PATT
	 POIN2	FE15TwilightOfTheGodsSme_7_032
// 036   ----------------------------------------
	BYTE		N04     Fs5   v104
	BYTE	W04
	BYTE		        An4 
	BYTE	W04
	BYTE		        Dn5 
	BYTE	W04
	BYTE		        Dn4 
	BYTE	W04
	BYTE		        En4 
	BYTE	W04
	BYTE		        An3 
	BYTE	W04
	BYTE		        Dn4 
	BYTE	W04
	BYTE		        Gn3 
	BYTE	W04
	BYTE		        Fs3 
	BYTE	W04
	BYTE		        An2 
	BYTE	W04
	BYTE		N04   
	BYTE	W04
	BYTE		N04   
	BYTE	W04
FE15TwilightOfTheGodsSme_7_B1:
// 037   ----------------------------------------
	BYTE	W96
// 038   ----------------------------------------
	BYTE	W96
// 039   ----------------------------------------
	BYTE	W96
// 040   ----------------------------------------
	BYTE	W96
// 041   ----------------------------------------
	BYTE	W96
// 042   ----------------------------------------
	BYTE	W96
// 043   ----------------------------------------
	BYTE	W96
// 044   ----------------------------------------
	BYTE	W96
// 045   ----------------------------------------
FE15TwilightOfTheGodsSme_7_045:
	BYTE	W24
	BYTE		N24     En3   v064
	BYTE	W24
	BYTE		        Dn3 
	BYTE	W24
	BYTE		        An2 
	BYTE	W24
	BYTE	PEND
// 046   ----------------------------------------
FE15TwilightOfTheGodsSme_7_046:
	BYTE		N48     Bn2   v064
	BYTE	W48
	BYTE		N24     Gn2 
	BYTE	W24
	BYTE		        An2 
	BYTE	W24
	BYTE	PEND
// 047   ----------------------------------------
FE15TwilightOfTheGodsSme_7_047:
	BYTE		N48     Bn2   v064
	BYTE	W48
	BYTE		        Gn3 
	BYTE	W48
	BYTE	PEND
// 048   ----------------------------------------
FE15TwilightOfTheGodsSme_7_048:
	BYTE		N48     Fs3   v064
	BYTE	W48
	BYTE		        Dn3 
	BYTE	W48
	BYTE	PEND
// 049   ----------------------------------------
	BYTE	PATT
	 POIN2	FE15TwilightOfTheGodsSme_7_045
// 050   ----------------------------------------
	BYTE	PATT
	 POIN2	FE15TwilightOfTheGodsSme_7_046
// 051   ----------------------------------------
FE15TwilightOfTheGodsSme_7_051:
	BYTE		N48     Bn2   v064
	BYTE	W48
	BYTE		        Cn3 
	BYTE	W48
	BYTE	PEND
// 052   ----------------------------------------
	BYTE		        Bn2 
	BYTE	W48
	BYTE		        Gn2 
	BYTE	W48
// 053   ----------------------------------------
	BYTE	PATT
	 POIN2	FE15TwilightOfTheGodsSme_7_045
// 054   ----------------------------------------
	BYTE	PATT
	 POIN2	FE15TwilightOfTheGodsSme_7_046
// 055   ----------------------------------------
	BYTE	PATT
	 POIN2	FE15TwilightOfTheGodsSme_7_047
// 056   ----------------------------------------
	BYTE	PATT
	 POIN2	FE15TwilightOfTheGodsSme_7_048
// 057   ----------------------------------------
	BYTE	PATT
	 POIN2	FE15TwilightOfTheGodsSme_7_045
// 058   ----------------------------------------
	BYTE	PATT
	 POIN2	FE15TwilightOfTheGodsSme_7_046
// 059   ----------------------------------------
	BYTE	PATT
	 POIN2	FE15TwilightOfTheGodsSme_7_051
// 060   ----------------------------------------
	BYTE		N48     Bn2   v064
	BYTE	W48
	BYTE		        An2 
	BYTE	W48
// 061   ----------------------------------------
	BYTE	W96
// 062   ----------------------------------------
	BYTE	W96
// 063   ----------------------------------------
	BYTE	W96
// 064   ----------------------------------------
	BYTE	W96
// 065   ----------------------------------------
	BYTE	W96
// 066   ----------------------------------------
	BYTE	W96
// 067   ----------------------------------------
	BYTE	W96
// 068   ----------------------------------------
	BYTE	W96
// 069   ----------------------------------------
	BYTE	W96
// 070   ----------------------------------------
	BYTE	W96
// 071   ----------------------------------------
	BYTE	W96
// 072   ----------------------------------------
	BYTE	W96
// 073   ----------------------------------------
	BYTE	W96
// 074   ----------------------------------------
	BYTE	W96
// 075   ----------------------------------------
	BYTE	W96
// 076   ----------------------------------------
	BYTE	W96
// 077   ----------------------------------------
	BYTE	W96
// 078   ----------------------------------------
	BYTE	W96
// 079   ----------------------------------------
	BYTE	W96
// 080   ----------------------------------------
	BYTE	W96
	BYTE	GoTo
	 POIN2	FE15TwilightOfTheGodsSme_7_B1
FE15TwilightOfTheGodsSme_7_B2:
// 081   ----------------------------------------
	BYTE	FINE

//**************** Track 8 (Midi-Chn.8) ****************//

FE15TwilightOfTheGodsSme_8:
	BYTE	KEYSH   FE15TwilightOfTheGodsSme_key+0
// 000   ----------------------------------------
	BYTE		VOICE   61
	BYTE		VOL     63*FE15TwilightOfTheGodsSme_mvl/mxv
	BYTE	W96
// 001   ----------------------------------------
	BYTE	W96
// 002   ----------------------------------------
	BYTE	W96
// 003   ----------------------------------------
	BYTE	W96
// 004   ----------------------------------------
	BYTE	W96
// 005   ----------------------------------------
	BYTE	W96
// 006   ----------------------------------------
	BYTE	W96
// 007   ----------------------------------------
	BYTE	W96
// 008   ----------------------------------------
	BYTE	W96
// 009   ----------------------------------------
	BYTE	W96
// 010   ----------------------------------------
	BYTE	W96
// 011   ----------------------------------------
	BYTE	W96
// 012   ----------------------------------------
	BYTE	W96
// 013   ----------------------------------------
	BYTE	W96
// 014   ----------------------------------------
	BYTE	W96
// 015   ----------------------------------------
	BYTE	W96
// 016   ----------------------------------------
	BYTE	W96
// 017   ----------------------------------------
	BYTE	W96
// 018   ----------------------------------------
	BYTE	W96
// 019   ----------------------------------------
	BYTE	W96
// 020   ----------------------------------------
	BYTE	W96
// 021   ----------------------------------------
	BYTE	W96
// 022   ----------------------------------------
	BYTE	W96
// 023   ----------------------------------------
	BYTE	W96
// 024   ----------------------------------------
	BYTE	W96
// 025   ----------------------------------------
	BYTE	W96
// 026   ----------------------------------------
	BYTE	W96
// 027   ----------------------------------------
	BYTE	W96
// 028   ----------------------------------------
	BYTE	W96
// 029   ----------------------------------------
	BYTE	W96
// 030   ----------------------------------------
	BYTE	W96
// 031   ----------------------------------------
	BYTE	W96
// 032   ----------------------------------------
	BYTE	W96
// 033   ----------------------------------------
	BYTE	W96
// 034   ----------------------------------------
	BYTE	W96
// 035   ----------------------------------------
	BYTE	W96
// 036   ----------------------------------------
	BYTE	W48
FE15TwilightOfTheGodsSme_8_B1:
// 037   ----------------------------------------
FE15TwilightOfTheGodsSme_8_037:
	BYTE		N08     En4   v104
	BYTE	W16
	BYTE		        Gn4 
	BYTE	W08
	BYTE		        Fs4 
	BYTE	W08
	BYTE		        Gn4 
	BYTE	W08
	BYTE		        Fs4 
	BYTE	W08
	BYTE		        En4 
	BYTE	W16
	BYTE		        Gn4 
	BYTE	W08
	BYTE		        Fs4 
	BYTE	W08
	BYTE		        Gn4 
	BYTE	W08
	BYTE		        Fs4 
	BYTE	W08
	BYTE	PEND
// 038   ----------------------------------------
FE15TwilightOfTheGodsSme_8_038:
	BYTE		N08     En4   v104
	BYTE	W16
	BYTE		        Gn4 
	BYTE	W08
	BYTE		        Fs4 
	BYTE	W08
	BYTE		        Gn4 
	BYTE	W08
	BYTE		        Fs4 
	BYTE	W08
	BYTE		        En4 
	BYTE	W08
	BYTE		        Fs4 
	BYTE	W08
	BYTE		        Gn4 
	BYTE	W08
	BYTE		        An4 
	BYTE	W08
	BYTE		        Gn4 
	BYTE	W08
	BYTE		        Fs4 
	BYTE	W08
	BYTE	PEND
// 039   ----------------------------------------
	BYTE	PATT
	 POIN2	FE15TwilightOfTheGodsSme_8_037
// 040   ----------------------------------------
	BYTE	PATT
	 POIN2	FE15TwilightOfTheGodsSme_8_038
// 041   ----------------------------------------
	BYTE	PATT
	 POIN2	FE15TwilightOfTheGodsSme_8_037
// 042   ----------------------------------------
	BYTE	PATT
	 POIN2	FE15TwilightOfTheGodsSme_8_038
// 043   ----------------------------------------
	BYTE	PATT
	 POIN2	FE15TwilightOfTheGodsSme_8_037
// 044   ----------------------------------------
	BYTE		N08     En4   v104
	BYTE	W16
	BYTE		        Bn3 
	BYTE	W08
	BYTE		        En4 
	BYTE	W08
	BYTE		        Fs4 
	BYTE	W08
	BYTE		        En4 
	BYTE	W08
	BYTE		N48     Ds4 
	BYTE	W48
// 045   ----------------------------------------
	BYTE	W96
// 046   ----------------------------------------
	BYTE	W96
// 047   ----------------------------------------
	BYTE	W96
// 048   ----------------------------------------
	BYTE	W96
// 049   ----------------------------------------
	BYTE	W96
// 050   ----------------------------------------
	BYTE	W96
// 051   ----------------------------------------
	BYTE	W96
// 052   ----------------------------------------
	BYTE	W96
// 053   ----------------------------------------
	BYTE	W96
// 054   ----------------------------------------
	BYTE	W96
// 055   ----------------------------------------
	BYTE	W96
// 056   ----------------------------------------
	BYTE	W96
// 057   ----------------------------------------
	BYTE	W96
// 058   ----------------------------------------
	BYTE	W96
// 059   ----------------------------------------
	BYTE	W96
// 060   ----------------------------------------
	BYTE	W96
// 061   ----------------------------------------
FE15TwilightOfTheGodsSme_8_061:
	BYTE		N16     En2   v104
	BYTE	W24
	BYTE		N16   
	BYTE	W24
	BYTE		N16   
	BYTE	W16
	BYTE		N16   
	BYTE	W16
	BYTE		N16   
	BYTE	W16
	BYTE	PEND
// 062   ----------------------------------------
	BYTE	PATT
	 POIN2	FE15TwilightOfTheGodsSme_8_061
// 063   ----------------------------------------
	BYTE	PATT
	 POIN2	FE15TwilightOfTheGodsSme_8_061
// 064   ----------------------------------------
	BYTE	PATT
	 POIN2	FE15TwilightOfTheGodsSme_8_061
// 065   ----------------------------------------
FE15TwilightOfTheGodsSme_8_065:
	BYTE		N16     Cn2   v104
	BYTE	W24
	BYTE		N16   
	BYTE	W24
	BYTE		N16   
	BYTE	W16
	BYTE		N16   
	BYTE	W16
	BYTE		N16   
	BYTE	W16
	BYTE	PEND
// 066   ----------------------------------------
	BYTE	PATT
	 POIN2	FE15TwilightOfTheGodsSme_8_065
// 067   ----------------------------------------
FE15TwilightOfTheGodsSme_8_067:
	BYTE		N16     Dn2   v104
	BYTE	W24
	BYTE		N16   
	BYTE	W24
	BYTE		N16   
	BYTE	W16
	BYTE		N16   
	BYTE	W16
	BYTE		N16   
	BYTE	W16
	BYTE	PEND
// 068   ----------------------------------------
	BYTE	PATT
	 POIN2	FE15TwilightOfTheGodsSme_8_067
// 069   ----------------------------------------
	BYTE	W96
// 070   ----------------------------------------
	BYTE	W96
// 071   ----------------------------------------
	BYTE	W96
// 072   ----------------------------------------
	BYTE	W96
// 073   ----------------------------------------
	BYTE	W96
// 074   ----------------------------------------
	BYTE	W96
// 075   ----------------------------------------
	BYTE	W96
// 076   ----------------------------------------
	BYTE	W96
// 077   ----------------------------------------
	BYTE	W96
// 078   ----------------------------------------
	BYTE	W96
// 079   ----------------------------------------
	BYTE	W96
// 080   ----------------------------------------
	BYTE	W96
	BYTE	GoTo
	 POIN2	FE15TwilightOfTheGodsSme_8_B1
FE15TwilightOfTheGodsSme_8_B2:
// 081   ----------------------------------------
	BYTE	FINE

//**************** Track 9 (Midi-Chn.9) ****************//

FE15TwilightOfTheGodsSme_9:
	BYTE	KEYSH   FE15TwilightOfTheGodsSme_key+0
// 000   ----------------------------------------
	BYTE		VOICE   116
	BYTE		VOL     66*FE15TwilightOfTheGodsSme_mvl/mxv
	BYTE	W96
// 001   ----------------------------------------
	BYTE	W96
// 002   ----------------------------------------
	BYTE	W96
// 003   ----------------------------------------
	BYTE	W96
// 004   ----------------------------------------
	BYTE	W96
// 005   ----------------------------------------
	BYTE	W96
// 006   ----------------------------------------
	BYTE	W96
// 007   ----------------------------------------
	BYTE	W96
// 008   ----------------------------------------
	BYTE	W96
// 009   ----------------------------------------
	BYTE	W96
// 010   ----------------------------------------
	BYTE	W96
// 011   ----------------------------------------
	BYTE	W96
// 012   ----------------------------------------
	BYTE	W96
// 013   ----------------------------------------
	BYTE	W96
// 014   ----------------------------------------
	BYTE	W96
// 015   ----------------------------------------
	BYTE	W96
// 016   ----------------------------------------
	BYTE	W96
// 017   ----------------------------------------
	BYTE	W96
// 018   ----------------------------------------
	BYTE	W96
// 019   ----------------------------------------
	BYTE	W96
// 020   ----------------------------------------
	BYTE	W96
// 021   ----------------------------------------
	BYTE	W96
// 022   ----------------------------------------
	BYTE	W96
// 023   ----------------------------------------
	BYTE	W96
// 024   ----------------------------------------
	BYTE	W96
// 025   ----------------------------------------
	BYTE	W96
// 026   ----------------------------------------
	BYTE	W96
// 027   ----------------------------------------
	BYTE	W96
// 028   ----------------------------------------
	BYTE	W96
// 029   ----------------------------------------
	BYTE	W96
// 030   ----------------------------------------
	BYTE	W96
// 031   ----------------------------------------
	BYTE	W96
// 032   ----------------------------------------
	BYTE	W96
// 033   ----------------------------------------
	BYTE	W96
// 034   ----------------------------------------
	BYTE	W96
// 035   ----------------------------------------
	BYTE	W96
// 036   ----------------------------------------
	BYTE	W48
FE15TwilightOfTheGodsSme_9_B1:
// 037   ----------------------------------------
FE15TwilightOfTheGodsSme_9_037:
	BYTE		N16     Cn2   v104
	BYTE		N08     Cn3 
	BYTE	W16
	BYTE		N16     Cn2 
	BYTE	W16
	BYTE		N16   
	BYTE	W08
	BYTE		N08     Cn3 
	BYTE	W08
	BYTE		N16     Cn2 
	BYTE		N08     Cn3 
	BYTE	W16
	BYTE		N16     Cn2 
	BYTE	W16
	BYTE		N16   
	BYTE		N08     Cn3 
	BYTE	W16
	BYTE	PEND
// 038   ----------------------------------------
	BYTE	PATT
	 POIN2	FE15TwilightOfTheGodsSme_9_037
// 039   ----------------------------------------
	BYTE	PATT
	 POIN2	FE15TwilightOfTheGodsSme_9_037
// 040   ----------------------------------------
	BYTE	PATT
	 POIN2	FE15TwilightOfTheGodsSme_9_037
// 041   ----------------------------------------
	BYTE	PATT
	 POIN2	FE15TwilightOfTheGodsSme_9_037
// 042   ----------------------------------------
	BYTE	PATT
	 POIN2	FE15TwilightOfTheGodsSme_9_037
// 043   ----------------------------------------
	BYTE	PATT
	 POIN2	FE15TwilightOfTheGodsSme_9_037
// 044   ----------------------------------------
	BYTE	PATT
	 POIN2	FE15TwilightOfTheGodsSme_9_037
// 045   ----------------------------------------
	BYTE	PATT
	 POIN2	FE15TwilightOfTheGodsSme_9_037
// 046   ----------------------------------------
	BYTE	PATT
	 POIN2	FE15TwilightOfTheGodsSme_9_037
// 047   ----------------------------------------
	BYTE	PATT
	 POIN2	FE15TwilightOfTheGodsSme_9_037
// 048   ----------------------------------------
	BYTE	PATT
	 POIN2	FE15TwilightOfTheGodsSme_9_037
// 049   ----------------------------------------
	BYTE	PATT
	 POIN2	FE15TwilightOfTheGodsSme_9_037
// 050   ----------------------------------------
	BYTE	PATT
	 POIN2	FE15TwilightOfTheGodsSme_9_037
// 051   ----------------------------------------
	BYTE	PATT
	 POIN2	FE15TwilightOfTheGodsSme_9_037
// 052   ----------------------------------------
	BYTE	PATT
	 POIN2	FE15TwilightOfTheGodsSme_9_037
// 053   ----------------------------------------
	BYTE	PATT
	 POIN2	FE15TwilightOfTheGodsSme_9_037
// 054   ----------------------------------------
	BYTE	PATT
	 POIN2	FE15TwilightOfTheGodsSme_9_037
// 055   ----------------------------------------
	BYTE	PATT
	 POIN2	FE15TwilightOfTheGodsSme_9_037
// 056   ----------------------------------------
	BYTE	PATT
	 POIN2	FE15TwilightOfTheGodsSme_9_037
// 057   ----------------------------------------
	BYTE	PATT
	 POIN2	FE15TwilightOfTheGodsSme_9_037
// 058   ----------------------------------------
	BYTE	PATT
	 POIN2	FE15TwilightOfTheGodsSme_9_037
// 059   ----------------------------------------
	BYTE	PATT
	 POIN2	FE15TwilightOfTheGodsSme_9_037
// 060   ----------------------------------------
	BYTE	PATT
	 POIN2	FE15TwilightOfTheGodsSme_9_037
// 061   ----------------------------------------
	BYTE	PATT
	 POIN2	FE15TwilightOfTheGodsSme_9_037
// 062   ----------------------------------------
	BYTE	PATT
	 POIN2	FE15TwilightOfTheGodsSme_9_037
// 063   ----------------------------------------
	BYTE	PATT
	 POIN2	FE15TwilightOfTheGodsSme_9_037
// 064   ----------------------------------------
	BYTE	PATT
	 POIN2	FE15TwilightOfTheGodsSme_9_037
// 065   ----------------------------------------
	BYTE	PATT
	 POIN2	FE15TwilightOfTheGodsSme_9_037
// 066   ----------------------------------------
	BYTE	PATT
	 POIN2	FE15TwilightOfTheGodsSme_9_037
// 067   ----------------------------------------
	BYTE	PATT
	 POIN2	FE15TwilightOfTheGodsSme_9_037
// 068   ----------------------------------------
	BYTE	PATT
	 POIN2	FE15TwilightOfTheGodsSme_9_037
// 069   ----------------------------------------
	BYTE	PATT
	 POIN2	FE15TwilightOfTheGodsSme_9_037
// 070   ----------------------------------------
	BYTE	PATT
	 POIN2	FE15TwilightOfTheGodsSme_9_037
// 071   ----------------------------------------
	BYTE	PATT
	 POIN2	FE15TwilightOfTheGodsSme_9_037
// 072   ----------------------------------------
	BYTE	PATT
	 POIN2	FE15TwilightOfTheGodsSme_9_037
// 073   ----------------------------------------
	BYTE	PATT
	 POIN2	FE15TwilightOfTheGodsSme_9_037
// 074   ----------------------------------------
	BYTE	PATT
	 POIN2	FE15TwilightOfTheGodsSme_9_037
// 075   ----------------------------------------
	BYTE	PATT
	 POIN2	FE15TwilightOfTheGodsSme_9_037
// 076   ----------------------------------------
	BYTE	PATT
	 POIN2	FE15TwilightOfTheGodsSme_9_037
// 077   ----------------------------------------
	BYTE	PATT
	 POIN2	FE15TwilightOfTheGodsSme_9_037
// 078   ----------------------------------------
	BYTE	PATT
	 POIN2	FE15TwilightOfTheGodsSme_9_037
// 079   ----------------------------------------
	BYTE	PATT
	 POIN2	FE15TwilightOfTheGodsSme_9_037
// 080   ----------------------------------------
	BYTE	PATT
	 POIN2	FE15TwilightOfTheGodsSme_9_037
	BYTE	GoTo
	 POIN2	FE15TwilightOfTheGodsSme_9_B1
FE15TwilightOfTheGodsSme_9_B2:
// 081   ----------------------------------------
	BYTE	FINE

//******************************************************//
	ALIGN 4

FE15TwilightOfTheGodsSme:
	BYTE	9	// NumTrks
	BYTE	0	// NumBlks
	BYTE	FE15TwilightOfTheGodsSme_pri	// Priority
	BYTE	FE15TwilightOfTheGodsSme_rev	// Reverb.

	POIN2	FE15TwilightOfTheGodsSme_grp

	POIN2	FE15TwilightOfTheGodsSme_1
	POIN2	FE15TwilightOfTheGodsSme_2
	POIN2	FE15TwilightOfTheGodsSme_3
	POIN2	FE15TwilightOfTheGodsSme_4
	POIN2	FE15TwilightOfTheGodsSme_5
	POIN2	FE15TwilightOfTheGodsSme_6
	POIN2	FE15TwilightOfTheGodsSme_7
	POIN2	FE15TwilightOfTheGodsSme_8
	POIN2	FE15TwilightOfTheGodsSme_9

	
