//Event file generated from Sappy .s format.
	#include "MPlayDef.event"

	#define	FE16TheDreamisOverMysteriousDancer_grp  voicegroup000
	#define	FE16TheDreamisOverMysteriousDancer_pri  0
	#define	FE16TheDreamisOverMysteriousDancer_rev  0
	#define	FE16TheDreamisOverMysteriousDancer_mvl  127
	#define	FE16TheDreamisOverMysteriousDancer_key  0
	#define	FE16TheDreamisOverMysteriousDancer_tbs  1
	#define	FE16TheDreamisOverMysteriousDancer_exg  0
	#define	FE16TheDreamisOverMysteriousDancer_cmp  1

	// .rodata
	//	FE16TheDreamisOverMysteriousDancer
	ALIGN 4

//**************** Track 1 (Midi-Chn.1) ****************//

FE16TheDreamisOverMysteriousDancer_1:
	BYTE	KEYSH   FE16TheDreamisOverMysteriousDancer_key+0
FE16TheDreamisOverMysteriousDancer_1_B1:
// 000   ----------------------------------------
	BYTE	TEMPO   41*FE16TheDreamisOverMysteriousDancer_tbs/2
	BYTE		VOICE   1
	BYTE		VOL     101*FE16TheDreamisOverMysteriousDancer_mvl/mxv
	BYTE		PAN     c_v+0
	BYTE		VOL     110*FE16TheDreamisOverMysteriousDancer_mvl/mxv
	BYTE		N44     Bn2   v076
	BYTE		N24     Dn3   v080
	BYTE		N24     Fs3 
	BYTE		N24     Bn3 
	BYTE	W24
	BYTE		N10     Cs3 
	BYTE		N10     En3 
	BYTE		N32     Cs4 
	BYTE	W12
	BYTE		N11     Dn3   v076
	BYTE		N11     Fs3 
	BYTE	W12
// 001   ----------------------------------------
FE16TheDreamisOverMysteriousDancer_1_001:
	BYTE		N44     An2   v076
	BYTE		N44     Dn3 
	BYTE		N24     Fs3   v080
	BYTE	W12
	BYTE		N11     Bn3   v076
	BYTE	W12
	BYTE		N23     An3   v080
	BYTE		N10     Cs4 
	BYTE	W12
	BYTE		N11     Dn4   v076
	BYTE	W12
	BYTE	PEND
// 002   ----------------------------------------
FE16TheDreamisOverMysteriousDancer_1_002:
	BYTE		N44     Gn2   v076
	BYTE		N24     Dn3   v080
	BYTE		N44     Bn3   v076
	BYTE		N36     Fs4 
	BYTE	W24
	BYTE		N10     Cs3   v080
	BYTE	W12
	BYTE		N11     Bn2   v076
	BYTE		N11     Gn4 
	BYTE	W12
	BYTE	PEND
// 003   ----------------------------------------
FE16TheDreamisOverMysteriousDancer_1_003:
	BYTE		N44     Gn2   v076
	BYTE		N11     Cs3   v080
	BYTE		N24     Bn3 
	BYTE		N44     En4   v076
	BYTE	W12
	BYTE		N11     Dn3 
	BYTE	W12
	BYTE		N10     En3   v080
	BYTE		N23     An3 
	BYTE	W12
	BYTE		N11     Cs3   v076
	BYTE	W12
	BYTE	PEND
// 004   ----------------------------------------
FE16TheDreamisOverMysteriousDancer_1_004:
	BYTE		N44     Fs2   v076
	BYTE		N24     Cs3   v080
	BYTE		N24     Gs3 
	BYTE		N11     Bn4 
	BYTE	W12
	BYTE		        An4   v076
	BYTE	W12
	BYTE		N10     Cs3   v080
	BYTE		N23     An3 
	BYTE		N32     Cs4 
	BYTE	W12
	BYTE		N11     Dn3   v076
	BYTE	W12
	BYTE	PEND
// 005   ----------------------------------------
FE16TheDreamisOverMysteriousDancer_1_005:
	BYTE		N44     Fs2   v076
	BYTE		N11     En3   v080
	BYTE		N44     An3   v076
	BYTE	W12
	BYTE		N11     Dn3 
	BYTE		N11     Dn4 
	BYTE	W12
	BYTE		N10     Cs3   v080
	BYTE		N10     En4 
	BYTE	W12
	BYTE		N11     Dn3   v076
	BYTE		N11     Fs4 
	BYTE	W12
	BYTE	PEND
// 006   ----------------------------------------
FE16TheDreamisOverMysteriousDancer_1_006:
	BYTE		N44     En2   v076
	BYTE		N24     Dn3   v080
	BYTE		N24     Bn3 
	BYTE		N11     An4 
	BYTE	W12
	BYTE		        Gn4   v076
	BYTE	W12
	BYTE		N10     Bn2   v080
	BYTE		N23     Gn3 
	BYTE		N23     Bn3 
	BYTE	W12
	BYTE		N11     Dn3   v076
	BYTE	W12
	BYTE	PEND
// 007   ----------------------------------------
FE16TheDreamisOverMysteriousDancer_1_007:
	BYTE		N44     En2   v076
	BYTE		N11     Cs3   v080
	BYTE		N11     Bn3 
	BYTE	W12
	BYTE		        As2   v076
	BYTE		N23     Gn3 
	BYTE		N11     Gn4 
	BYTE	W12
	BYTE		N10     Bn2   v080
	BYTE		N10     Fs4 
	BYTE	W12
	BYTE		N11     Cs3   v076
	BYTE		N11     As3 
	BYTE		N11     Fn4 
	BYTE	W12
	BYTE	PEND
// 008   ----------------------------------------
FE16TheDreamisOverMysteriousDancer_1_008:
	BYTE		N44     Dn2   v076
	BYTE		N24     As2   v080
	BYTE		N24     Cs4 
	BYTE		N60     Fs4   v076
	BYTE	W24
	BYTE		N23     Bn2   v080
	BYTE		N23     Bn3 
	BYTE	W24
	BYTE	PEND
// 009   ----------------------------------------
FE16TheDreamisOverMysteriousDancer_1_009:
	BYTE		N44     Dn2   v076
	BYTE		N44     Bn2 
	BYTE		N24     As3   v080
	BYTE	W12
	BYTE		N11     Fs4   v072
	BYTE	W12
	BYTE		N23     Bn3   v064
	BYTE		N10     En4 
	BYTE	W12
	BYTE		N11     Dn4   v060
	BYTE	W12
	BYTE	PEND
// 010   ----------------------------------------
FE16TheDreamisOverMysteriousDancer_1_010:
	BYTE		N92     Gn3   v044
	BYTE		N92     Cn4 
	BYTE		N92     En4   v052
	BYTE	W12
	BYTE		N11     Cn3 
	BYTE	W12
	BYTE		N10     Bn2 
	BYTE	W12
	BYTE		N11     An2 
	BYTE	W12
	BYTE	PEND
// 011   ----------------------------------------
FE16TheDreamisOverMysteriousDancer_1_011:
	BYTE		N11     Gn2   v056
	BYTE	W12
	BYTE		        Fs2   v052
	BYTE	W12
	BYTE		N10     Gn2 
	BYTE	W12
	BYTE		N11     En2 
	BYTE	W12
	BYTE	PEND
// 012   ----------------------------------------
FE16TheDreamisOverMysteriousDancer_1_012:
	BYTE		N92     Cn1   v052
	BYTE		N44     Cn2   v064
	BYTE		N24     An2   v060
	BYTE		N24     En3 
	BYTE		N24     Fs3   v076
	BYTE	W06
	BYTE		N05     Gn2   v064
	BYTE	W06
	BYTE		        Cn3 
	BYTE	W06
	BYTE		        Dn3 
	BYTE	W06
	BYTE		        En3   v068
	BYTE		N06     Gn3 
	BYTE	W06
	BYTE		N05     Gn3   v064
	BYTE	W01
	BYTE	TEMPO   41*FE16TheDreamisOverMysteriousDancer_tbs/2
	BYTE	W05
	BYTE		        Cn4 
	BYTE	W01
	BYTE	TEMPO   41*FE16TheDreamisOverMysteriousDancer_tbs/2
	BYTE	W04
	BYTE		        Dn4 
	BYTE	W02
	BYTE	TEMPO   40*FE16TheDreamisOverMysteriousDancer_tbs/2
	BYTE	W05
	BYTE	PEND
// 013   ----------------------------------------
	BYTE		N44     Cn2 
	BYTE		N24     Gn2   v068
	BYTE		N44     En3   v056
	BYTE		N44     Bn3 
	BYTE		N44     En4   v068
	BYTE	W01
	BYTE	TEMPO   40*FE16TheDreamisOverMysteriousDancer_tbs/2
	BYTE	W05
	BYTE	TEMPO   40*FE16TheDreamisOverMysteriousDancer_tbs/2
	BYTE	W06
	BYTE	TEMPO   39*FE16TheDreamisOverMysteriousDancer_tbs/2
	BYTE	W06
	BYTE	TEMPO   39*FE16TheDreamisOverMysteriousDancer_tbs/2
	BYTE	W05
	BYTE	TEMPO   25*FE16TheDreamisOverMysteriousDancer_tbs/2
	BYTE	W01
	BYTE		N14     Fs2 
	BYTE	W23
	BYTE		VOL     110*FE16TheDreamisOverMysteriousDancer_mvl/mxv
	BYTE	W01
// 014   ----------------------------------------
	BYTE	TEMPO   41*FE16TheDreamisOverMysteriousDancer_tbs/2
	BYTE		        110*FE16TheDreamisOverMysteriousDancer_mvl/mxv
	BYTE		N44     Bn2   v076
	BYTE		N24     Dn3   v080
	BYTE		N24     Fs3 
	BYTE		N24     Bn3 
	BYTE	W24
	BYTE		N10     Cs3 
	BYTE		N10     En3 
	BYTE		N32     Cs4 
	BYTE	W12
	BYTE		N11     Dn3   v076
	BYTE		N11     Fs3 
	BYTE	W12
// 015   ----------------------------------------
	BYTE	PATT
	 POIN2	FE16TheDreamisOverMysteriousDancer_1_001
// 016   ----------------------------------------
	BYTE	PATT
	 POIN2	FE16TheDreamisOverMysteriousDancer_1_002
// 017   ----------------------------------------
	BYTE	PATT
	 POIN2	FE16TheDreamisOverMysteriousDancer_1_003
// 018   ----------------------------------------
	BYTE	PATT
	 POIN2	FE16TheDreamisOverMysteriousDancer_1_004
// 019   ----------------------------------------
	BYTE	PATT
	 POIN2	FE16TheDreamisOverMysteriousDancer_1_005
// 020   ----------------------------------------
	BYTE	PATT
	 POIN2	FE16TheDreamisOverMysteriousDancer_1_006
// 021   ----------------------------------------
	BYTE	PATT
	 POIN2	FE16TheDreamisOverMysteriousDancer_1_007
// 022   ----------------------------------------
	BYTE	PATT
	 POIN2	FE16TheDreamisOverMysteriousDancer_1_008
// 023   ----------------------------------------
	BYTE	PATT
	 POIN2	FE16TheDreamisOverMysteriousDancer_1_009
// 024   ----------------------------------------
	BYTE	PATT
	 POIN2	FE16TheDreamisOverMysteriousDancer_1_010
// 025   ----------------------------------------
	BYTE	PATT
	 POIN2	FE16TheDreamisOverMysteriousDancer_1_011
// 026   ----------------------------------------
	BYTE	PATT
	 POIN2	FE16TheDreamisOverMysteriousDancer_1_012
// 027   ----------------------------------------
	BYTE		N44     Cn2   v064
	BYTE		N24     Gn2   v068
	BYTE		N44     En3   v056
	BYTE		N44     Bn3 
	BYTE		N44     En4   v068
	BYTE	W24
	BYTE		N14     Fs2 
	BYTE	W23
	BYTE	GoTo
	 POIN2	FE16TheDreamisOverMysteriousDancer_1_B1
FE16TheDreamisOverMysteriousDancer_1_B2:
	BYTE		VOL     110*FE16TheDreamisOverMysteriousDancer_mvl/mxv
	BYTE	FINE

//**************** Track 2 (Midi-Chn.2) ****************//

FE16TheDreamisOverMysteriousDancer_2:
	BYTE	KEYSH   FE16TheDreamisOverMysteriousDancer_key+0
FE16TheDreamisOverMysteriousDancer_2_B1:
// 000   ----------------------------------------
	BYTE		VOICE   40
	BYTE		VOL     79*FE16TheDreamisOverMysteriousDancer_mvl/mxv
	BYTE		PAN     c_v+0
	BYTE		N44     Bn2   v076
	BYTE		N24     Dn3   v080
	BYTE		N24     Fs3 
	BYTE		N24     Bn3 
	BYTE	W24
	BYTE		N10     Cs3 
	BYTE		N10     En3 
	BYTE		N32     Cs4 
	BYTE	W12
	BYTE		N11     Dn3   v076
	BYTE		N11     Fs3 
	BYTE	W12
// 001   ----------------------------------------
FE16TheDreamisOverMysteriousDancer_2_001:
	BYTE		N44     An2   v076
	BYTE		N44     Dn3 
	BYTE		N24     Fs3   v080
	BYTE	W12
	BYTE		N11     Bn3   v076
	BYTE	W12
	BYTE		N23     An3   v080
	BYTE		N10     Cs4 
	BYTE	W12
	BYTE		N11     Dn4   v076
	BYTE	W12
	BYTE	PEND
// 002   ----------------------------------------
FE16TheDreamisOverMysteriousDancer_2_002:
	BYTE		N44     Gn2   v076
	BYTE		N24     Dn3   v080
	BYTE		N44     Bn3   v076
	BYTE		N36     Fs4 
	BYTE	W24
	BYTE		N10     Cs3   v080
	BYTE	W12
	BYTE		N11     Bn2   v076
	BYTE		N11     Gn4 
	BYTE	W12
	BYTE	PEND
// 003   ----------------------------------------
FE16TheDreamisOverMysteriousDancer_2_003:
	BYTE		N44     Gn2   v076
	BYTE		N11     Cs3   v080
	BYTE		N24     Bn3 
	BYTE		N44     En4   v076
	BYTE	W12
	BYTE		N11     Dn3 
	BYTE	W12
	BYTE		N10     En3   v080
	BYTE		N23     An3 
	BYTE	W12
	BYTE		N11     Cs3   v076
	BYTE	W12
	BYTE	PEND
// 004   ----------------------------------------
FE16TheDreamisOverMysteriousDancer_2_004:
	BYTE		N44     Fs2   v076
	BYTE		N24     Cs3   v080
	BYTE		N24     Gs3 
	BYTE		N11     Bn4 
	BYTE	W12
	BYTE		        An4   v076
	BYTE	W12
	BYTE		N10     Cs3   v080
	BYTE		N23     An3 
	BYTE		N32     Cs4 
	BYTE	W12
	BYTE		N11     Dn3   v076
	BYTE	W12
	BYTE	PEND
// 005   ----------------------------------------
FE16TheDreamisOverMysteriousDancer_2_005:
	BYTE		N44     Fs2   v076
	BYTE		N11     En3   v080
	BYTE		N44     An3   v076
	BYTE	W12
	BYTE		N11     Dn3 
	BYTE		N11     Dn4 
	BYTE	W12
	BYTE		N10     Cs3   v080
	BYTE		N10     En4 
	BYTE	W12
	BYTE		N11     Dn3   v076
	BYTE		N11     Fs4 
	BYTE	W12
	BYTE	PEND
// 006   ----------------------------------------
FE16TheDreamisOverMysteriousDancer_2_006:
	BYTE		N44     En2   v076
	BYTE		N24     Dn3   v080
	BYTE		N24     Bn3 
	BYTE		N11     An4 
	BYTE	W12
	BYTE		        Gn4   v076
	BYTE	W12
	BYTE		N10     Bn2   v080
	BYTE		N23     Gn3 
	BYTE		N23     Bn3 
	BYTE	W12
	BYTE		N11     Dn3   v076
	BYTE	W12
	BYTE	PEND
// 007   ----------------------------------------
FE16TheDreamisOverMysteriousDancer_2_007:
	BYTE		N44     En2   v076
	BYTE		N11     Cs3   v080
	BYTE		N11     Bn3 
	BYTE	W12
	BYTE		        As2   v076
	BYTE		N23     Gn3 
	BYTE		N11     Gn4 
	BYTE	W12
	BYTE		N10     Bn2   v080
	BYTE		N10     Fs4 
	BYTE	W12
	BYTE		N11     Cs3   v076
	BYTE		N11     As3 
	BYTE		N11     Fn4 
	BYTE	W12
	BYTE	PEND
// 008   ----------------------------------------
FE16TheDreamisOverMysteriousDancer_2_008:
	BYTE		N44     Dn2   v076
	BYTE		N24     As2   v080
	BYTE		N24     Cs4 
	BYTE		N60     Fs4   v076
	BYTE	W24
	BYTE		N23     Bn2   v080
	BYTE		N23     Bn3 
	BYTE	W24
	BYTE	PEND
// 009   ----------------------------------------
FE16TheDreamisOverMysteriousDancer_2_009:
	BYTE		N44     Dn2   v076
	BYTE		N44     Bn2 
	BYTE		N24     As3   v080
	BYTE	W12
	BYTE		N11     Fs4   v072
	BYTE	W12
	BYTE		N23     Bn3   v064
	BYTE		N10     En4 
	BYTE	W12
	BYTE		N11     Dn4   v060
	BYTE	W12
	BYTE	PEND
// 010   ----------------------------------------
FE16TheDreamisOverMysteriousDancer_2_010:
	BYTE		N92     Gn3   v044
	BYTE		N92     Cn4 
	BYTE		N92     En4   v052
	BYTE	W12
	BYTE		N11     Cn3 
	BYTE	W12
	BYTE		N10     Bn2 
	BYTE	W12
	BYTE		N11     An2 
	BYTE	W12
	BYTE	PEND
// 011   ----------------------------------------
FE16TheDreamisOverMysteriousDancer_2_011:
	BYTE		N11     Gn2   v056
	BYTE	W12
	BYTE		        Fs2   v052
	BYTE	W12
	BYTE		N10     Gn2 
	BYTE	W12
	BYTE		N11     En2 
	BYTE	W12
	BYTE	PEND
// 012   ----------------------------------------
FE16TheDreamisOverMysteriousDancer_2_012:
	BYTE		N92     Cn1   v052
	BYTE		N44     Cn2   v064
	BYTE		N24     An2   v060
	BYTE		N24     En3 
	BYTE		N24     Fs3   v076
	BYTE	W06
	BYTE		N05     Gn2   v064
	BYTE	W06
	BYTE		        Cn3 
	BYTE	W06
	BYTE		        Dn3 
	BYTE	W06
	BYTE		        En3   v068
	BYTE		N06     Gn3 
	BYTE	W06
	BYTE		N05     Gn3   v064
	BYTE	W06
	BYTE		        Cn4 
	BYTE	W05
	BYTE		        Dn4 
	BYTE	W07
	BYTE	PEND
// 013   ----------------------------------------
	BYTE		N44     Cn2 
	BYTE		N24     Gn2   v068
	BYTE		N44     En3   v056
	BYTE		N44     Bn3 
	BYTE		N44     En4   v068
	BYTE	W24
	BYTE		N14     Fs2 
	BYTE	W24
// 014   ----------------------------------------
	BYTE		N44     Bn2   v076
	BYTE		N24     Dn3   v080
	BYTE		N24     Fs3 
	BYTE		N24     Bn3 
	BYTE	W24
	BYTE		N10     Cs3 
	BYTE		N10     En3 
	BYTE		N32     Cs4 
	BYTE	W12
	BYTE		N11     Dn3   v076
	BYTE		N11     Fs3 
	BYTE	W12
// 015   ----------------------------------------
	BYTE	PATT
	 POIN2	FE16TheDreamisOverMysteriousDancer_2_001
// 016   ----------------------------------------
	BYTE	PATT
	 POIN2	FE16TheDreamisOverMysteriousDancer_2_002
// 017   ----------------------------------------
	BYTE	PATT
	 POIN2	FE16TheDreamisOverMysteriousDancer_2_003
// 018   ----------------------------------------
	BYTE	PATT
	 POIN2	FE16TheDreamisOverMysteriousDancer_2_004
// 019   ----------------------------------------
	BYTE	PATT
	 POIN2	FE16TheDreamisOverMysteriousDancer_2_005
// 020   ----------------------------------------
	BYTE	PATT
	 POIN2	FE16TheDreamisOverMysteriousDancer_2_006
// 021   ----------------------------------------
	BYTE	PATT
	 POIN2	FE16TheDreamisOverMysteriousDancer_2_007
// 022   ----------------------------------------
	BYTE	PATT
	 POIN2	FE16TheDreamisOverMysteriousDancer_2_008
// 023   ----------------------------------------
	BYTE	PATT
	 POIN2	FE16TheDreamisOverMysteriousDancer_2_009
// 024   ----------------------------------------
	BYTE	PATT
	 POIN2	FE16TheDreamisOverMysteriousDancer_2_010
// 025   ----------------------------------------
	BYTE	PATT
	 POIN2	FE16TheDreamisOverMysteriousDancer_2_011
// 026   ----------------------------------------
	BYTE	PATT
	 POIN2	FE16TheDreamisOverMysteriousDancer_2_012
// 027   ----------------------------------------
	BYTE		N44     Cn2   v064
	BYTE		N24     Gn2   v068
	BYTE		N44     En3   v056
	BYTE		N44     Bn3 
	BYTE		N44     En4   v068
	BYTE	W24
	BYTE		N14     Fs2 
	BYTE	W23
	BYTE	GoTo
	 POIN2	FE16TheDreamisOverMysteriousDancer_2_B1
FE16TheDreamisOverMysteriousDancer_2_B2:
	BYTE	FINE

//******************************************************//
	ALIGN 4

FE16TheDreamisOverMysteriousDancer:
	BYTE	2	// NumTrks
	BYTE	0	// NumBlks
	BYTE	FE16TheDreamisOverMysteriousDancer_pri	// Priority
	BYTE	FE16TheDreamisOverMysteriousDancer_rev	// Reverb.

	POIN2	FE16TheDreamisOverMysteriousDancer_grp

	POIN2	FE16TheDreamisOverMysteriousDancer_1
	POIN2	FE16TheDreamisOverMysteriousDancer_2

	
