//Event file generated from Sappy .s format.
	#include "MPlayDef.event"

	#define	FE16TheApexoftheWorldRainMrGreen3339_grp  voicegroup000
	#define	FE16TheApexoftheWorldRainMrGreen3339_pri  0
	#define	FE16TheApexoftheWorldRainMrGreen3339_rev  0
	#define	FE16TheApexoftheWorldRainMrGreen3339_mvl  127
	#define	FE16TheApexoftheWorldRainMrGreen3339_key  0
	#define	FE16TheApexoftheWorldRainMrGreen3339_tbs  1
	#define	FE16TheApexoftheWorldRainMrGreen3339_exg  0
	#define	FE16TheApexoftheWorldRainMrGreen3339_cmp  1

	// .rodata
	//	FE16TheApexoftheWorldRainMrGreen3339
	ALIGN 4


//**************** Track 1 (Midi-Chn.0) ****************//

FE16TheApexoftheWorldRainMrGreen3339_001:
// 000   ----------------------------------------
 BYTE   KEYSH   FE16TheApexoftheWorldRainMrGreen3339_key+0
Label_0_0128D19A:
 BYTE   TEMPO   160*FE16TheApexoftheWorldRainMrGreen3339_tbs/2
 BYTE   VOICE   45
 BYTE   VOL   51*FE16TheApexoftheWorldRainMrGreen3339_mvl/mxv
 BYTE   PAN   c_v+0
 BYTE   VOL   51*FE16TheApexoftheWorldRainMrGreen3339_mvl/mxv
 BYTE   PAN   c_v-22
 BYTE   VOL   51*FE16TheApexoftheWorldRainMrGreen3339_mvl/mxv
 BYTE   PAN   c_v+0
 BYTE   VOL   51*FE16TheApexoftheWorldRainMrGreen3339_mvl/mxv
 BYTE   PAN   c_v+0
 BYTE   VOL   51*FE16TheApexoftheWorldRainMrGreen3339_mvl/mxv
 BYTE   PAN   c_v+0
 BYTE   VOL   51*FE16TheApexoftheWorldRainMrGreen3339_mvl/mxv
 BYTE   PAN   c_v+0
 BYTE   W48
 BYTE   TEMPO   88*FE16TheApexoftheWorldRainMrGreen3339_tbs/2
 BYTE   W24
 BYTE   N23  Dn3  v080
 BYTE   W24
// 001   ----------------------------------------
 BYTE   En3
 BYTE   W24
 BYTE   Bn2
 BYTE   W24
 BYTE   N92  Dn3
 BYTE   W96
// 002   ----------------------------------------
 BYTE   W24
 BYTE   N23
 BYTE   W24
 BYTE   Fn3
 BYTE   W24
 BYTE   Dn3
 BYTE   W24
// 003   ----------------------------------------
 BYTE   N92
 BYTE   W96
// 004   ----------------------------------------
 BYTE   W24
 BYTE   N23  Cn3
 BYTE   W24
 BYTE   Dn3
 BYTE   W24
 BYTE   Bn2
 BYTE   W24
// 005   ----------------------------------------
 BYTE   N44  Cn3
 BYTE   W48
 BYTE   Gn3
 BYTE   W48
// 006   ----------------------------------------
 BYTE   N44
 BYTE   W48
 BYTE   Fn3
 BYTE   W48
// 007   ----------------------------------------
 BYTE   En3
 BYTE   W48
 BYTE   Dn3
 BYTE   W48
// 008   ----------------------------------------
 BYTE   TEMPO   180*FE16TheApexoftheWorldRainMrGreen3339_tbs/2
 BYTE   W96
// 009   ----------------------------------------
 BYTE   W96
// 010   ----------------------------------------
 BYTE   W96
// 011   ----------------------------------------
 BYTE   W96
// 012   ----------------------------------------
 BYTE   W96
// 013   ----------------------------------------
 BYTE   W96
// 014   ----------------------------------------
 BYTE   W96
// 015   ----------------------------------------
 BYTE   W96
// 016   ----------------------------------------
 BYTE   W96
// 017   ----------------------------------------
 BYTE   W96
// 018   ----------------------------------------
 BYTE   W96
// 019   ----------------------------------------
 BYTE   W96
// 020   ----------------------------------------
 BYTE   W96
// 021   ----------------------------------------
 BYTE   W96
// 022   ----------------------------------------
 BYTE   W96
// 023   ----------------------------------------
 BYTE   W96
// 024   ----------------------------------------
 BYTE   W96
// 025   ----------------------------------------
 BYTE   W96
// 026   ----------------------------------------
 BYTE   W96
// 027   ----------------------------------------
 BYTE   W96
// 028   ----------------------------------------
 BYTE   W96
// 029   ----------------------------------------
 BYTE   W96
// 030   ----------------------------------------
 BYTE   W96
// 031   ----------------------------------------
 BYTE   W96
// 032   ----------------------------------------
 BYTE   W96
// 033   ----------------------------------------
 BYTE   W96
// 034   ----------------------------------------
 BYTE   W96
// 035   ----------------------------------------
 BYTE   W96
// 036   ----------------------------------------
 BYTE   W96
// 037   ----------------------------------------
 BYTE   W96
// 038   ----------------------------------------
 BYTE   W96
// 039   ----------------------------------------
 BYTE   W96
// 040   ----------------------------------------
 BYTE   W96
// 041   ----------------------------------------
 BYTE   W96
// 042   ----------------------------------------
 BYTE   W96
// 043   ----------------------------------------
 BYTE   W96
// 044   ----------------------------------------
 BYTE   W96
// 045   ----------------------------------------
 BYTE   W96
// 046   ----------------------------------------
 BYTE   W96
// 047   ----------------------------------------
 BYTE   W96
// 048   ----------------------------------------
 BYTE   W96
// 049   ----------------------------------------
 BYTE   W96
// 050   ----------------------------------------
 BYTE   W96
// 051   ----------------------------------------
 BYTE   W96
// 052   ----------------------------------------
 BYTE   W96
// 053   ----------------------------------------
 BYTE   W96
// 054   ----------------------------------------
 BYTE   W96
// 055   ----------------------------------------
 BYTE   W96
// 056   ----------------------------------------
 BYTE   W96
// 057   ----------------------------------------
 BYTE   W96
// 058   ----------------------------------------
 BYTE   W96
// 059   ----------------------------------------
 BYTE   W96
// 060   ----------------------------------------
 BYTE   W96
// 061   ----------------------------------------
 BYTE   W96
// 062   ----------------------------------------
 BYTE   W96
// 063   ----------------------------------------
 BYTE   W96
// 064   ----------------------------------------
 BYTE   W96
// 065   ----------------------------------------
 BYTE   W96
// 066   ----------------------------------------
 BYTE   W96
// 067   ----------------------------------------
 BYTE   W96
// 068   ----------------------------------------
 BYTE   W96
// 069   ----------------------------------------
 BYTE   W96
// 070   ----------------------------------------
 BYTE   W96
// 071   ----------------------------------------
 BYTE   W96
// 072   ----------------------------------------
 BYTE   W96
// 073   ----------------------------------------
 BYTE   W96
// 074   ----------------------------------------
 BYTE   W96
// 075   ----------------------------------------
 BYTE   W96
// 076   ----------------------------------------
 BYTE   W96
// 077   ----------------------------------------
 BYTE   W96
// 078   ----------------------------------------
 BYTE   W96
// 079   ----------------------------------------
 BYTE   W96
// 080   ----------------------------------------
 BYTE   W96
// 081   ----------------------------------------
 BYTE   W96
// 082   ----------------------------------------
 BYTE   W96
// 083   ----------------------------------------
 BYTE   W96
// 084   ----------------------------------------
 BYTE   W96
// 085   ----------------------------------------
 BYTE   W96
// 086   ----------------------------------------
 BYTE   W96
// 087   ----------------------------------------
 BYTE   W96
// 088   ----------------------------------------
 BYTE   W96
// 089   ----------------------------------------
 BYTE   W96
// 090   ----------------------------------------
 BYTE   W96
// 091   ----------------------------------------
 BYTE   W96
// 092   ----------------------------------------
 BYTE   W96
// 093   ----------------------------------------
 BYTE   W96
// 094   ----------------------------------------
 BYTE   W96
// 095   ----------------------------------------
 BYTE   W96
// 096   ----------------------------------------
 BYTE   N32  Fn4
 BYTE   W36
 BYTE   En4
 BYTE   W36
 BYTE   N68  Gn4
 BYTE   W24
// 097   ----------------------------------------
 BYTE   W48
 BYTE   N44  En4
 BYTE   W48
// 098   ----------------------------------------
Label_0_0128D249:
 BYTE   N11  Fn4  v080
 BYTE   W12
 BYTE   Cn4
 BYTE   W12
 BYTE   En4
 BYTE   W12
 BYTE   Cn4
 BYTE   W12
 BYTE   Gn4
 BYTE   W12
 BYTE   Cn4
 BYTE   W12
 BYTE   En4
 BYTE   W12
 BYTE   Cn4
 BYTE   W12
 BYTE   PEND 
 BYTE   PATT
  POIN2 Label_0_0128D249
// 099   ----------------------------------------
 BYTE   N32  Cn4  v080
 BYTE   W36
 BYTE   N23  Dn4
 BYTE   W24
 BYTE   N11  En4
 BYTE   W12
 BYTE   N68  Dn4
 BYTE   W24
// 100   ----------------------------------------
 BYTE   W48
 BYTE   N44  Cn4
 BYTE   W48
// 101   ----------------------------------------
Label_0_0128D272:
 BYTE   N11  Dn4  v080
 BYTE   W12
 BYTE   Cn4
 BYTE   W12
 BYTE   En4
 BYTE   W12
 BYTE   Cn4
 BYTE   W12
 BYTE   Dn4
 BYTE   W12
 BYTE   Cn4
 BYTE   W12
 BYTE   En4
 BYTE   W12
 BYTE   Cn4
 BYTE   W12
 BYTE   PEND 
 BYTE   PATT
  POIN2 Label_0_0128D272
// 102   ----------------------------------------
 BYTE   N11  Cn4  v064
 BYTE   W12
 BYTE   N11
 BYTE   W12
 BYTE   N11
 BYTE   W12
 BYTE   Bn3
 BYTE   W12
 BYTE   N11
 BYTE   W12
 BYTE   N11
 BYTE   W12
 BYTE   Cn4
 BYTE   W12
 BYTE   N11
 BYTE   W12
// 103   ----------------------------------------
Label_0_0128D29C:
 BYTE   N11  Cn4  v064
 BYTE   W12
 BYTE   N11
 BYTE   W12
 BYTE   N11
 BYTE   W12
 BYTE   Bn3
 BYTE   W12
 BYTE   N11
 BYTE   W12
 BYTE   N11
 BYTE   W12
 BYTE   Cn4
 BYTE   W24
 BYTE   PEND 
 BYTE   PATT
  POIN2 Label_0_0128D29C
// 104   ----------------------------------------
 BYTE   N11  Cn4  v064
 BYTE   W12
 BYTE   Dn3
 BYTE   W12
 BYTE   Gn3
 BYTE   W12
 BYTE   Dn3
 BYTE   W12
 BYTE   Cn4
 BYTE   W12
 BYTE   Gn3
 BYTE   W12
 BYTE   Bn3
 BYTE   W24
// 105   ----------------------------------------
 BYTE   N23  Dn4
 BYTE   W24
 BYTE   N11  En4
 BYTE   W12
 BYTE   N23
 BYTE   W24
 BYTE   N11  Fn4
 BYTE   W12
 BYTE   N23  Dn4
 BYTE   W24
// 106   ----------------------------------------
 BYTE   N11
 BYTE   W12
 BYTE   N11
 BYTE   W12
 BYTE   N11
 BYTE   W12
 BYTE   N11
 BYTE   W12
 BYTE   N11
 BYTE   W12
 BYTE   N11
 BYTE   W12
 BYTE   N11
 BYTE   W12
 BYTE   N11
 BYTE   W12
// 107   ----------------------------------------
 BYTE   Dn5
 BYTE   W12
 BYTE   N11
 BYTE   W12
 BYTE   N11
 BYTE   W12
 BYTE   N11
 BYTE   W12
 BYTE   N11
 BYTE   W12
 BYTE   N11
 BYTE   W12
 BYTE   N11
 BYTE   W12
 BYTE   N11
 BYTE   W12
// 108   ----------------------------------------
 BYTE   W48
 BYTE   N44  Gs3  v016
 BYTE   W01
 BYTE   W01
 BYTE   W01
 BYTE   W01
 BYTE   W01
 BYTE   W01
 BYTE   W01
 BYTE   W01
 BYTE   W01
 BYTE   W01
 BYTE   W01
 BYTE   W01
 BYTE   W01
 BYTE   W01
 BYTE   W01
 BYTE   W01
 BYTE   W01
 BYTE   W01
 BYTE   W01
 BYTE   W01
 BYTE   W01
 BYTE   W01
 BYTE   W01
 BYTE   W01
 BYTE   W01
 BYTE   W01
 BYTE   W01
 BYTE   W01
 BYTE   W01
 BYTE   W01
 BYTE   W01
 BYTE   W01
 BYTE   W01
 BYTE   W01
 BYTE   W01
 BYTE   W01
 BYTE   W01
 BYTE   W01
 BYTE   W01
 BYTE   W01
 BYTE   W01
 BYTE   W01
 BYTE   W01
 BYTE   W01
 BYTE   W01
 BYTE   W01
 BYTE   W01
 BYTE   W01
// 109   ----------------------------------------
 BYTE   N92  Cn4  v080
 BYTE   W96
// 110   ----------------------------------------
Label_0_0128D328:
 BYTE   N32  Cn4  v080
 BYTE   W36
 BYTE   Dn4
 BYTE   W36
 BYTE   N23  Bn3
 BYTE   W24
 BYTE   PEND 
// 111   ----------------------------------------
 BYTE   N92  Gn3
 BYTE   W96
 BYTE   PATT
  POIN2 Label_0_0128D328
// 112   ----------------------------------------
 BYTE   N44  Cn4  v080
 BYTE   W48
 BYTE   Gn4
 BYTE   W48
// 113   ----------------------------------------
 BYTE   N23
 BYTE   W24
 BYTE   Fn4
 BYTE   W24
 BYTE   En4
 BYTE   W24
 BYTE   N11  Dn4
 BYTE   W12
 BYTE   TIE  En4
 BYTE   W12
// 114   ----------------------------------------
 BYTE   W92
 BYTE   W03
 BYTE   EOT
 BYTE   W01
 BYTE   PATT
  POIN2 Label_0_0128D328
// 115   ----------------------------------------
 BYTE   N92  Cn4  v080
 BYTE   W96
 BYTE   PATT
  POIN2 Label_0_0128D328
// 116   ----------------------------------------
 BYTE   N44  Gn3  v080
 BYTE   W48
 BYTE   Gn4
 BYTE   W48
// 117   ----------------------------------------
 BYTE   N23
 BYTE   W24
 BYTE   Fn4
 BYTE   W24
 BYTE   En4
 BYTE   W24
 BYTE   Dn4
 BYTE   W24
// 118   ----------------------------------------
 BYTE   N44  Cn4
 BYTE   W48
 BYTE   En4
 BYTE   W48
// 119   ----------------------------------------
 BYTE   Dn4
 BYTE   W48
 BYTE   Cn4
 BYTE   W48
// 120   ----------------------------------------
 BYTE   N32  Bn3
 BYTE   W36
 BYTE   TIE  An3
 BYTE   W60
// 121   ----------------------------------------
 BYTE   W92
 BYTE   W03
 BYTE   EOT
 BYTE   W01
// 122   ----------------------------------------
 BYTE   W96
// 123   ----------------------------------------
 BYTE   W96
// 124   ----------------------------------------
 BYTE   W48
 BYTE   N44  Gn4  v064
 BYTE   W48
// 125   ----------------------------------------
 BYTE   N92  Dn4
 BYTE   W96
// 126   ----------------------------------------
 BYTE   N44  An3
 BYTE   W48
 BYTE   En4
 BYTE   W48
// 127   ----------------------------------------
 BYTE   N44
 BYTE   N44  Gn4
 BYTE   W48
 BYTE   Dn4
 BYTE   N44  Fn4
 BYTE   W48
// 128   ----------------------------------------
 BYTE   Gn4
 BYTE   N44  Bn4
 BYTE   W48
 BYTE   En4
 BYTE   N44  An4
 BYTE   W48
// 129   ----------------------------------------
 BYTE   Cn5
 BYTE   W48
 BYTE   Dn5
 BYTE   W48
// 130   ----------------------------------------
 BYTE   TIE  En5  v052
 BYTE   W96
// 131   ----------------------------------------
 BYTE   W44
 BYTE   W03
 BYTE   EOT
 BYTE   W01
 BYTE   N44  Dn5
 BYTE   W48
// 132   ----------------------------------------
 BYTE   TIE  Bn4
 BYTE   TIE  Dn5
 BYTE   W96
// 133   ----------------------------------------
 BYTE   W44
 BYTE   W03
 BYTE   EOT
 BYTE   Bn4  v086
 BYTE   W01
 BYTE   N44  Gn4
 BYTE   W48
// 134   ----------------------------------------
 BYTE   N92  En5
 BYTE   W96
// 135   ----------------------------------------
 BYTE   Fn5
 BYTE   W96
// 136   ----------------------------------------
 BYTE   W96
// 137   ----------------------------------------
 BYTE   W96
// 138   ----------------------------------------
 BYTE   W96
// 139   ----------------------------------------
 BYTE   W96
// 140   ----------------------------------------
 BYTE   W96
// 141   ----------------------------------------
 BYTE   W96
// 142   ----------------------------------------
 BYTE   W96
// 143   ----------------------------------------
 BYTE   W96
// 144   ----------------------------------------
 BYTE   W96
// 145   ----------------------------------------
 BYTE   W96
// 146   ----------------------------------------
 BYTE   W96
// 147   ----------------------------------------
 BYTE   W96
// 148   ----------------------------------------
 BYTE   W96
// 149   ----------------------------------------
 BYTE   W96
// 150   ----------------------------------------
 BYTE   W96
// 151   ----------------------------------------
 BYTE   W96
// 152   ----------------------------------------
 BYTE   W96
// 153   ----------------------------------------
 BYTE   W96
// 154   ----------------------------------------
 BYTE   W96
// 155   ----------------------------------------
Label_0_0128D3D3:
 BYTE   N32  Cs5  v096
 BYTE   W36
 BYTE   Ds5
 BYTE   W36
 BYTE   N23  Cn5
 BYTE   W24
 BYTE   PEND 
// 156   ----------------------------------------
 BYTE   N92  Cs5
 BYTE   W96
 BYTE   PATT
  POIN2 Label_0_0128D3D3
// 157   ----------------------------------------
 BYTE   N92  Gs4  v096
 BYTE   W96
 BYTE   PATT
  POIN2 Label_0_0128D3D3
// 158   ----------------------------------------
 BYTE   N44  Cs5  v096
 BYTE   W48
 BYTE   Gs5
 BYTE   W48
// 159   ----------------------------------------
 BYTE   N23
 BYTE   W24
 BYTE   Fs5
 BYTE   W24
 BYTE   Fn5
 BYTE   W24
 BYTE   N11  Ds5
 BYTE   W12
 BYTE   TIE  Fn5
 BYTE   W12
// 160   ----------------------------------------
 BYTE   W92
 BYTE   W03
 BYTE   EOT
 BYTE   W01
 BYTE   PATT
  POIN2 Label_0_0128D3D3
// 161   ----------------------------------------
 BYTE   N92  Cs5  v096
 BYTE   W96
 BYTE   PATT
  POIN2 Label_0_0128D3D3
// 162   ----------------------------------------
 BYTE   N44  Gs4  v096
 BYTE   W48
 BYTE   Gs5
 BYTE   W48
// 163   ----------------------------------------
 BYTE   N23
 BYTE   W24
 BYTE   Fs5
 BYTE   W24
 BYTE   Fn5
 BYTE   W24
 BYTE   Ds5
 BYTE   W24
// 164   ----------------------------------------
 BYTE   N44  Cs5
 BYTE   W48
 BYTE   Fn5
 BYTE   W48
// 165   ----------------------------------------
 BYTE   Ds5
 BYTE   W48
 BYTE   Cs5
 BYTE   W48
// 166   ----------------------------------------
 BYTE   N32  Cn5
 BYTE   W36
 BYTE   TIE  As4
 BYTE   W60
// 167   ----------------------------------------
 BYTE   W92
 BYTE   W03
 BYTE   EOT
 BYTE   W01
// 168   ----------------------------------------
Label_0_0128D433:
 BYTE   N11  Fn4  v060
 BYTE   W03
 BYTE   W01
 BYTE   W01
 BYTE   W19
 BYTE   N11
 BYTE   W03
 BYTE   W01
 BYTE   W01
 BYTE   W19
 BYTE   N11
 BYTE   W03
 BYTE   W01
 BYTE   W01
 BYTE   W19
 BYTE   N11
 BYTE   W03
 BYTE   W01
 BYTE   W01
 BYTE   W19
 BYTE   PEND 
 BYTE   PATT
  POIN2 Label_0_0128D433
 BYTE   PATT
  POIN2 Label_0_0128D433
 BYTE   PATT
  POIN2 Label_0_0128D433
 BYTE   PATT
  POIN2 Label_0_0128D433
 BYTE   PATT
  POIN2 Label_0_0128D433
 BYTE   PATT
  POIN2 Label_0_0128D433
 BYTE   PATT
  POIN2 Label_0_0128D433
// 169   ----------------------------------------
Label_0_0128D46D:
 BYTE   N11  Gn4  v060
 BYTE   W03
 BYTE   W01
 BYTE   W01
 BYTE   W19
 BYTE   N11
 BYTE   W03
 BYTE   W01
 BYTE   W01
 BYTE   W19
 BYTE   N11
 BYTE   W03
 BYTE   W01
 BYTE   W01
 BYTE   W19
 BYTE   N11
 BYTE   W03
 BYTE   W01
 BYTE   W01
 BYTE   W19
 BYTE   PEND 
 BYTE   PATT
  POIN2 Label_0_0128D46D
// 170   ----------------------------------------
 BYTE   GoTo
  POIN2 Label_0_0128D19A
 BYTE   FINE

//**************** Track 2 (Midi-Chn.1) ****************//

FE16TheApexoftheWorldRainMrGreen3339_002:
// 000   ----------------------------------------
 BYTE   KEYSH   FE16TheApexoftheWorldRainMrGreen3339_key+0
Label_1_0128D492:
 BYTE   VOICE   48
 BYTE   VOL   51*FE16TheApexoftheWorldRainMrGreen3339_mvl/mxv
 BYTE   PAN   c_v+0
 BYTE   VOL   51*FE16TheApexoftheWorldRainMrGreen3339_mvl/mxv
 BYTE   PAN   c_v+0
 BYTE   VOL   51*FE16TheApexoftheWorldRainMrGreen3339_mvl/mxv
 BYTE   PAN   c_v+0
 BYTE   VOL   51*FE16TheApexoftheWorldRainMrGreen3339_mvl/mxv
 BYTE   PAN   c_v+0
 BYTE   VOL   51*FE16TheApexoftheWorldRainMrGreen3339_mvl/mxv
 BYTE   PAN   c_v+0
 BYTE   VOL   51*FE16TheApexoftheWorldRainMrGreen3339_mvl/mxv
 BYTE   PAN   c_v+0
 BYTE   W48
 BYTE   W96
// 001   ----------------------------------------
 BYTE   N44  Gn3  v080
 BYTE   W48
 BYTE   N23  Cn4
 BYTE   W24
 BYTE   En4
 BYTE   W24
// 002   ----------------------------------------
 BYTE   N44
 BYTE   W48
 BYTE   TIE  An3
 BYTE   W48
// 003   ----------------------------------------
 BYTE   W56
 BYTE   W03
 BYTE   EOT
 BYTE   W01
 BYTE   N11  Bn3
 BYTE   W12
 BYTE   Cn4
 BYTE   W12
 BYTE   Dn4
 BYTE   W12
// 004   ----------------------------------------
 BYTE   N44  Cn4
 BYTE   W48
 BYTE   Bn3
 BYTE   W48
// 005   ----------------------------------------
 BYTE   N68  Cn4
 BYTE   W72
 BYTE   N23  En4
 BYTE   W24
// 006   ----------------------------------------
 BYTE   N44  Gn4
 BYTE   W48
 BYTE   Fn4
 BYTE   W48
// 007   ----------------------------------------
 BYTE   En4
 BYTE   W48
 BYTE   Dn4
 BYTE   W48
// 008   ----------------------------------------
 BYTE   W96
// 009   ----------------------------------------
 BYTE   W96
// 010   ----------------------------------------
 BYTE   W96
// 011   ----------------------------------------
 BYTE   W96
// 012   ----------------------------------------
 BYTE   W96
// 013   ----------------------------------------
 BYTE   W96
// 014   ----------------------------------------
 BYTE   W96
// 015   ----------------------------------------
 BYTE   W96
// 016   ----------------------------------------
 BYTE   N92  An1  v036
 BYTE   W06
 BYTE   W03
 BYTE   W03
 BYTE   W03
 BYTE   W03
 BYTE   W03
 BYTE   W03
 BYTE   W03
 BYTE   W03
 BYTE   W03
 BYTE   W03
 BYTE   W03
 BYTE   W03
 BYTE   W03
 BYTE   W03
 BYTE   W03
 BYTE   W03
 BYTE   W03
 BYTE   W04
 BYTE   W03
 BYTE   W03
 BYTE   W03
 BYTE   W03
 BYTE   W03
 BYTE   W03
 BYTE   W03
 BYTE   W03
 BYTE   W03
 BYTE   W03
 BYTE   W03
 BYTE   W02
// 017   ----------------------------------------
 BYTE   Gn1  v064
 BYTE   W96
// 018   ----------------------------------------
 BYTE   TIE  Fn1
 BYTE   W06
 BYTE   W06
 BYTE   W07
 BYTE   W06
 BYTE   W07
 BYTE   W06
 BYTE   W06
 BYTE   W07
 BYTE   W06
 BYTE   W07
 BYTE   W06
 BYTE   W06
 BYTE   W07
 BYTE   W06
 BYTE   W07
// 019   ----------------------------------------
 BYTE   W44
 BYTE   W03
 BYTE   EOT
 BYTE   W01
 BYTE   N11  Cn2
 BYTE   W12
 BYTE   Fn1
 BYTE   W12
 BYTE   Cn2
 BYTE   W12
 BYTE   Fn1
 BYTE   W12
// 020   ----------------------------------------
 BYTE   N92  Dn1  v052
 BYTE   W06
 BYTE   W06
 BYTE   W07
 BYTE   W06
 BYTE   W07
 BYTE   W06
 BYTE   W06
 BYTE   W07
 BYTE   W06
 BYTE   W07
 BYTE   W06
 BYTE   W06
 BYTE   W07
 BYTE   W06
 BYTE   W07
// 021   ----------------------------------------
 BYTE   En1  v064
 BYTE   W96
// 022   ----------------------------------------
 BYTE   TIE  An1
 BYTE   W09
 BYTE   W04
 BYTE   W05
 BYTE   W05
 BYTE   W04
 BYTE   W05
 BYTE   W04
 BYTE   W05
 BYTE   W05
 BYTE   W04
 BYTE   W05
 BYTE   W04
 BYTE   W05
 BYTE   W05
 BYTE   W04
 BYTE   W05
 BYTE   W04
 BYTE   W05
 BYTE   W05
 BYTE   W04
// 023   ----------------------------------------
 BYTE   W05
 BYTE   W04
 BYTE   W05
 BYTE   W05
 BYTE   W04
 BYTE   W05
 BYTE   W04
 BYTE   W05
 BYTE   W05
 BYTE   W04
 BYTE   W01
 BYTE   EOT
 BYTE   W48
 BYTE   W01
// 024   ----------------------------------------
 BYTE   N11  An0  v052
 BYTE   N11  An1
 BYTE   W19
 BYTE   W17
 BYTE   An0
 BYTE   N11  An1
 BYTE   W02
 BYTE   W19
 BYTE   W19
 BYTE   W20
// 025   ----------------------------------------
 BYTE   Gn0  v056
 BYTE   N11  Gn1
 BYTE   W19
 BYTE   W17
 BYTE   Gn0
 BYTE   N11  Gn1
 BYTE   W02
 BYTE   W19
 BYTE   W03
 BYTE   Gn0  v060
 BYTE   N11  Gn1
 BYTE   W16
 BYTE   W20
// 026   ----------------------------------------
 BYTE   Fn0
 BYTE   N11  Fn1
 BYTE   W19
 BYTE   W17
 BYTE   Fn0
 BYTE   N11  Fn1
 BYTE   W02
 BYTE   W19
 BYTE   W19
 BYTE   W20
// 027   ----------------------------------------
 BYTE   Fn0  v064
 BYTE   N11  Fn1
 BYTE   W36
 BYTE   Fn0
 BYTE   N11  Fn1
 BYTE   W24
 BYTE   Fn0
 BYTE   N11  Fn1
 BYTE   W36
// 028   ----------------------------------------
 BYTE   Dn0
 BYTE   N11  Dn1
 BYTE   W18
 BYTE   W18
 BYTE   Dn0  v068
 BYTE   N11  Dn1
 BYTE   W18
 BYTE   W18
 BYTE   W18
 BYTE   W06
// 029   ----------------------------------------
 BYTE   En0  v072
 BYTE   N11  En1
 BYTE   W12
 BYTE   W18
 BYTE   W06
 BYTE   En0
 BYTE   N11  En1
 BYTE   W12
 BYTE   W12
 BYTE   En0
 BYTE   N11  En1
 BYTE   W06
 BYTE   W18
 BYTE   W12
// 030   ----------------------------------------
 BYTE   An0  v076
 BYTE   N11  An1
 BYTE   W06
 BYTE   W18
 BYTE   W12
 BYTE   An0
 BYTE   N11  An1
 BYTE   W06
 BYTE   W18
 BYTE   W18
 BYTE   W18
// 031   ----------------------------------------
 BYTE   An0  v080
 BYTE   N11  An1
 BYTE   W36
 BYTE   An0
 BYTE   N11  An1
 BYTE   W24
 BYTE   An0
 BYTE   N11  An1
 BYTE   W36
// 032   ----------------------------------------
Label_1_0128D5D2:
 BYTE   N11  An1  v096
 BYTE   W36
 BYTE   N11
 BYTE   W60
 BYTE   PEND 
// 033   ----------------------------------------
Label_1_0128D5D9:
 BYTE   N11  Gn1  v096
 BYTE   W36
 BYTE   N11
 BYTE   W24
 BYTE   N11
 BYTE   W36
 BYTE   PEND 
// 034   ----------------------------------------
Label_1_0128D5E2:
 BYTE   N11  Fn1  v096
 BYTE   W36
 BYTE   N11
 BYTE   W60
 BYTE   PEND 
// 035   ----------------------------------------
Label_1_0128D5E9:
 BYTE   N11  Fn1  v096
 BYTE   W36
 BYTE   N11
 BYTE   W24
 BYTE   N11
 BYTE   W36
 BYTE   PEND 
// 036   ----------------------------------------
Label_1_0128D5F2:
 BYTE   N11  Dn1  v096
 BYTE   W36
 BYTE   N11
 BYTE   W60
 BYTE   PEND 
// 037   ----------------------------------------
 BYTE   En1
 BYTE   W36
 BYTE   N11
 BYTE   W24
 BYTE   N11
 BYTE   W36
 BYTE   PATT
  POIN2 Label_1_0128D5D2
// 038   ----------------------------------------
 BYTE   N11  An1  v096
 BYTE   W36
 BYTE   N11
 BYTE   W24
 BYTE   N11
 BYTE   W36
 BYTE   PATT
  POIN2 Label_1_0128D5D2
 BYTE   PATT
  POIN2 Label_1_0128D5D9
 BYTE   PATT
  POIN2 Label_1_0128D5E2
 BYTE   PATT
  POIN2 Label_1_0128D5E9
 BYTE   PATT
  POIN2 Label_1_0128D5F2
// 039   ----------------------------------------
 BYTE   N11  Dn1  v096
 BYTE   W36
 BYTE   N11
 BYTE   W24
 BYTE   N11
 BYTE   W36
// 040   ----------------------------------------
 BYTE   N92  En1  v064
 BYTE   W96
// 041   ----------------------------------------
Label_1_0128D631:
 BYTE   W24
 BYTE   N23  Gn4  v096
 BYTE   W24
 BYTE   Cn4
 BYTE   W24
 BYTE   En4
 BYTE   W24
 BYTE   PEND 
// 042   ----------------------------------------
 BYTE   N92  Dn4
 BYTE   W96
 BYTE   PATT
  POIN2 Label_1_0128D631
// 043   ----------------------------------------
Label_1_0128D643:
 BYTE   N32  Dn4  v096
 BYTE   W36
 BYTE   N56  En4
 BYTE   W60
 BYTE   PEND 
// 044   ----------------------------------------
Label_1_0128D64B:
 BYTE   W24
 BYTE   N23  Cn4  v096
 BYTE   W24
 BYTE   Dn4
 BYTE   W24
 BYTE   Bn3
 BYTE   W24
 BYTE   PEND 
// 045   ----------------------------------------
 BYTE   N44  Cn4
 BYTE   W48
 BYTE   Gn4
 BYTE   W48
// 046   ----------------------------------------
 BYTE   N23
 BYTE   W24
 BYTE   Fn4
 BYTE   W24
 BYTE   En4
 BYTE   W24
 BYTE   N11  Dn4
 BYTE   W12
 BYTE   TIE  En4
 BYTE   W12
// 047   ----------------------------------------
 BYTE   W92
 BYTE   W03
 BYTE   EOT
 BYTE   W01
 BYTE   PATT
  POIN2 Label_1_0128D631
// 048   ----------------------------------------
 BYTE   N92  Dn4  v096
 BYTE   W96
 BYTE   PATT
  POIN2 Label_1_0128D631
 BYTE   PATT
  POIN2 Label_1_0128D643
 BYTE   PATT
  POIN2 Label_1_0128D64B
// 049   ----------------------------------------
 BYTE   N92  Cn4  v096
 BYTE   W96
 BYTE   PATT
  POIN2 Label_1_0128D64B
// 050   ----------------------------------------
 BYTE   N32  Bn3  v096
 BYTE   W36
 BYTE   TIE  An3
 BYTE   W60
// 051   ----------------------------------------
 BYTE   W68
 BYTE   W03
 BYTE   EOT
 BYTE   W24
 BYTE   W01
// 052   ----------------------------------------
 BYTE   W96
// 053   ----------------------------------------
 BYTE   W96
// 054   ----------------------------------------
 BYTE   W96
// 055   ----------------------------------------
 BYTE   W96
// 056   ----------------------------------------
 BYTE   W96
// 057   ----------------------------------------
 BYTE   W96
// 058   ----------------------------------------
 BYTE   W96
// 059   ----------------------------------------
 BYTE   W96
// 060   ----------------------------------------
 BYTE   W96
// 061   ----------------------------------------
 BYTE   W96
// 062   ----------------------------------------
 BYTE   W96
// 063   ----------------------------------------
 BYTE   W96
// 064   ----------------------------------------
 BYTE   W96
// 065   ----------------------------------------
 BYTE   W96
// 066   ----------------------------------------
 BYTE   W96
// 067   ----------------------------------------
 BYTE   N92  Dn3  v064
 BYTE   N92  Gs3
 BYTE   W96
// 068   ----------------------------------------
 BYTE   W96
// 069   ----------------------------------------
 BYTE   W96
// 070   ----------------------------------------
 BYTE   W96
// 071   ----------------------------------------
 BYTE   W96
// 072   ----------------------------------------
 BYTE   W96
// 073   ----------------------------------------
 BYTE   W96
// 074   ----------------------------------------
 BYTE   W96
// 075   ----------------------------------------
 BYTE   W96
// 076   ----------------------------------------
 BYTE   W96
// 077   ----------------------------------------
 BYTE   W96
// 078   ----------------------------------------
 BYTE   W96
// 079   ----------------------------------------
 BYTE   W96
// 080   ----------------------------------------
 BYTE   W96
// 081   ----------------------------------------
 BYTE   W96
// 082   ----------------------------------------
 BYTE   W96
// 083   ----------------------------------------
 BYTE   W96
// 084   ----------------------------------------
Label_1_0128D6BC:
 BYTE   N32  Cn4  v080
 BYTE   W36
 BYTE   Bn3
 BYTE   W36
 BYTE   TIE  En3
 BYTE   W24
 BYTE   PEND 
// 085   ----------------------------------------
 BYTE   W92
 BYTE   W03
 BYTE   EOT
 BYTE   W01
// 086   ----------------------------------------
Label_1_0128D6CA:
 BYTE   W24
 BYTE   N23  Cn4  v080
 BYTE   W24
 BYTE   Bn3
 BYTE   W24
 BYTE   N68  En3
 BYTE   W24
 BYTE   PEND 
// 087   ----------------------------------------
 BYTE   W48
 BYTE   N44  Dn3
 BYTE   W48
// 088   ----------------------------------------
Label_1_0128D6D9:
 BYTE   N23  Dn3  v080
 BYTE   W24
 BYTE   N11  En3
 BYTE   W12
 BYTE   N23
 BYTE   W24
 BYTE   N11  Fn3
 BYTE   W12
 BYTE   TIE  En3
 BYTE   W24
 BYTE   PEND 
// 089   ----------------------------------------
 BYTE   W92
 BYTE   W03
 BYTE   EOT
 BYTE   W01
// 090   ----------------------------------------
 BYTE   W96
// 091   ----------------------------------------
 BYTE   W72
 BYTE   N23  Bn3
 BYTE   W24
 BYTE   PATT
  POIN2 Label_1_0128D6BC
// 092   ----------------------------------------
 BYTE   W92
 BYTE   W03
 BYTE   EOT
 BYTE   En3
 BYTE   W01
 BYTE   PATT
  POIN2 Label_1_0128D6CA
// 093   ----------------------------------------
 BYTE   W48
 BYTE   N44  Dn3  v080
 BYTE   W48
 BYTE   PATT
  POIN2 Label_1_0128D6D9
// 094   ----------------------------------------
 BYTE   W92
 BYTE   W03
 BYTE   EOT
 BYTE   En3
 BYTE   W01
// 095   ----------------------------------------
 BYTE   W96
// 096   ----------------------------------------
Label_1_0128D711:
 BYTE   N32  Cn4  v080
 BYTE   W36
 BYTE   Dn4
 BYTE   W36
 BYTE   N23  Bn3
 BYTE   W24
 BYTE   PEND 
// 097   ----------------------------------------
 BYTE   N92  Cn4
 BYTE   W96
 BYTE   PATT
  POIN2 Label_1_0128D711
// 098   ----------------------------------------
 BYTE   N92  Gn3  v080
 BYTE   W96
 BYTE   PATT
  POIN2 Label_1_0128D711
// 099   ----------------------------------------
 BYTE   N44  Cn4  v080
 BYTE   W48
 BYTE   Gn4
 BYTE   W48
// 100   ----------------------------------------
 BYTE   N23
 BYTE   W24
 BYTE   Fn4
 BYTE   W24
 BYTE   En4
 BYTE   W24
 BYTE   N11  Dn4
 BYTE   W12
 BYTE   TIE  En4
 BYTE   W12
// 101   ----------------------------------------
 BYTE   W92
 BYTE   W03
 BYTE   EOT
 BYTE   W01
 BYTE   PATT
  POIN2 Label_1_0128D711
// 102   ----------------------------------------
 BYTE   N92  Cn4  v080
 BYTE   W96
 BYTE   PATT
  POIN2 Label_1_0128D711
// 103   ----------------------------------------
 BYTE   N44  Gn3  v080
 BYTE   W48
 BYTE   Gn4
 BYTE   W48
// 104   ----------------------------------------
 BYTE   N23
 BYTE   W24
 BYTE   Fn4
 BYTE   W24
 BYTE   En4
 BYTE   W24
 BYTE   Dn4
 BYTE   W24
// 105   ----------------------------------------
 BYTE   N44  Cn4
 BYTE   W48
 BYTE   En4
 BYTE   W48
// 106   ----------------------------------------
 BYTE   Dn4
 BYTE   W48
 BYTE   Cn4
 BYTE   W48
// 107   ----------------------------------------
 BYTE   N32  Bn3
 BYTE   W36
 BYTE   TIE  An3
 BYTE   W60
// 108   ----------------------------------------
 BYTE   W92
 BYTE   W03
 BYTE   EOT
 BYTE   W01
// 109   ----------------------------------------
 BYTE   W96
// 110   ----------------------------------------
 BYTE   W96
// 111   ----------------------------------------
 BYTE   W96
// 112   ----------------------------------------
 BYTE   W96
// 113   ----------------------------------------
 BYTE   W96
// 114   ----------------------------------------
 BYTE   W96
// 115   ----------------------------------------
 BYTE   W96
// 116   ----------------------------------------
 BYTE   W96
// 117   ----------------------------------------
 BYTE   W96
// 118   ----------------------------------------
 BYTE   W96
// 119   ----------------------------------------
 BYTE   W96
// 120   ----------------------------------------
 BYTE   W96
// 121   ----------------------------------------
 BYTE   W96
// 122   ----------------------------------------
 BYTE   W96
// 123   ----------------------------------------
 BYTE   W96
// 124   ----------------------------------------
 BYTE   W96
// 125   ----------------------------------------
 BYTE   W96
// 126   ----------------------------------------
 BYTE   W96
// 127   ----------------------------------------
 BYTE   W96
// 128   ----------------------------------------
 BYTE   W96
// 129   ----------------------------------------
 BYTE   W96
// 130   ----------------------------------------
 BYTE   W96
// 131   ----------------------------------------
 BYTE   W96
// 132   ----------------------------------------
 BYTE   W96
// 133   ----------------------------------------
 BYTE   W96
// 134   ----------------------------------------
Label_1_0128D78A:
 BYTE   N32  Cs4  v052
 BYTE   W36
 BYTE   Ds4
 BYTE   W36
 BYTE   N23  Cn4
 BYTE   W24
 BYTE   PEND 
// 135   ----------------------------------------
 BYTE   N92  Cs4
 BYTE   W96
 BYTE   PATT
  POIN2 Label_1_0128D78A
// 136   ----------------------------------------
 BYTE   N44  Gs3  v052
 BYTE   W48
 BYTE   Gs4
 BYTE   W48
// 137   ----------------------------------------
 BYTE   N23
 BYTE   W24
 BYTE   Fs4
 BYTE   W24
 BYTE   Fn4
 BYTE   W24
 BYTE   Ds4
 BYTE   W24
// 138   ----------------------------------------
 BYTE   N44  Cs4
 BYTE   W48
 BYTE   Fn4
 BYTE   W48
// 139   ----------------------------------------
 BYTE   Ds4
 BYTE   W48
 BYTE   TIE  Cs4
 BYTE   W48
// 140   ----------------------------------------
 BYTE   W92
 BYTE   W03
 BYTE   EOT
 BYTE   W01
// 141   ----------------------------------------
Label_1_0128D7B8:
 BYTE   N32  Cs4  v096
 BYTE   W36
 BYTE   Ds4
 BYTE   W36
 BYTE   N23  Cn4
 BYTE   W24
 BYTE   PEND 
// 142   ----------------------------------------
 BYTE   N92  Cs4
 BYTE   W96
 BYTE   PATT
  POIN2 Label_1_0128D7B8
// 143   ----------------------------------------
 BYTE   N92  Gs3  v096
 BYTE   W96
 BYTE   PATT
  POIN2 Label_1_0128D7B8
// 144   ----------------------------------------
 BYTE   N44  Cs4  v096
 BYTE   W48
 BYTE   Gs4
 BYTE   W48
// 145   ----------------------------------------
 BYTE   N23
 BYTE   W24
 BYTE   Fs4
 BYTE   W24
 BYTE   Fn4
 BYTE   W24
 BYTE   N11  Ds4
 BYTE   W12
 BYTE   TIE  Fn4
 BYTE   W12
// 146   ----------------------------------------
 BYTE   W92
 BYTE   W03
 BYTE   EOT
 BYTE   W01
 BYTE   PATT
  POIN2 Label_1_0128D7B8
// 147   ----------------------------------------
 BYTE   N92  Cs4  v096
 BYTE   W96
 BYTE   PATT
  POIN2 Label_1_0128D7B8
// 148   ----------------------------------------
 BYTE   N44  Gs3  v096
 BYTE   W48
 BYTE   Gs4
 BYTE   W48
// 149   ----------------------------------------
 BYTE   N23
 BYTE   W24
 BYTE   Fs4
 BYTE   W24
 BYTE   Fn4
 BYTE   W24
 BYTE   Ds4
 BYTE   W24
// 150   ----------------------------------------
 BYTE   N44  Cs4
 BYTE   W48
 BYTE   Fn4
 BYTE   W48
// 151   ----------------------------------------
 BYTE   Ds4
 BYTE   W48
 BYTE   Cs4
 BYTE   W48
// 152   ----------------------------------------
 BYTE   N32  Cn4
 BYTE   W36
 BYTE   TIE  As3
 BYTE   W60
// 153   ----------------------------------------
 BYTE   W92
 BYTE   W03
 BYTE   EOT
 BYTE   W01
// 154   ----------------------------------------
 BYTE   W96
// 155   ----------------------------------------
 BYTE   W96
// 156   ----------------------------------------
 BYTE   W96
// 157   ----------------------------------------
 BYTE   W96
// 158   ----------------------------------------
 BYTE   W96
// 159   ----------------------------------------
 BYTE   W96
// 160   ----------------------------------------
 BYTE   W96
// 161   ----------------------------------------
 BYTE   W96
// 162   ----------------------------------------
 BYTE   W96
// 163   ----------------------------------------
 BYTE   W96
// 164   ----------------------------------------
 BYTE   GoTo
  POIN2 Label_1_0128D492
 BYTE   FINE

//**************** Track 3 (Midi-Chn.2) ****************//

FE16TheApexoftheWorldRainMrGreen3339_003:
// 000   ----------------------------------------
 BYTE   KEYSH   FE16TheApexoftheWorldRainMrGreen3339_key+0
Label_2_0128D82A:
 BYTE   VOICE   45
 BYTE   VOL   51*FE16TheApexoftheWorldRainMrGreen3339_mvl/mxv
 BYTE   PAN   c_v-10
 BYTE   VOL   51*FE16TheApexoftheWorldRainMrGreen3339_mvl/mxv
 BYTE   PAN   c_v+0
 BYTE   VOL   51*FE16TheApexoftheWorldRainMrGreen3339_mvl/mxv
 BYTE   PAN   c_v+6
 BYTE   VOL   51*FE16TheApexoftheWorldRainMrGreen3339_mvl/mxv
 BYTE   PAN   c_v+0
 BYTE   VOL   51*FE16TheApexoftheWorldRainMrGreen3339_mvl/mxv
 BYTE   PAN   c_v+0
 BYTE   W48
Label_2_0128D841:
 BYTE   W24
 BYTE   N23  Cn4  v080
 BYTE   W24
// 001   ----------------------------------------
 BYTE   Dn4
 BYTE   W24
 BYTE   Bn3
 BYTE   W24
 BYTE   PEND 
 BYTE   N92  Cn4
 BYTE   W96
 BYTE   PATT
  POIN2 Label_2_0128D841
// 002   ----------------------------------------
 BYTE   N92  Gn3  v080
 BYTE   W96
 BYTE   PATT
  POIN2 Label_2_0128D841
// 003   ----------------------------------------
Label_2_0128D85C:
 BYTE   N44  Cn4  v080
 BYTE   W48
 BYTE   Gn4
 BYTE   W48
 BYTE   PEND 
// 004   ----------------------------------------
 BYTE   N44
 BYTE   W48
 BYTE   Fn4
 BYTE   W48
// 005   ----------------------------------------
 BYTE   En4
 BYTE   W48
 BYTE   Dn4
 BYTE   W48
// 006   ----------------------------------------
 BYTE   W96
// 007   ----------------------------------------
 BYTE   W96
// 008   ----------------------------------------
 BYTE   W96
// 009   ----------------------------------------
 BYTE   W96
// 010   ----------------------------------------
 BYTE   W96
// 011   ----------------------------------------
 BYTE   W96
// 012   ----------------------------------------
 BYTE   W96
// 013   ----------------------------------------
 BYTE   W96
// 014   ----------------------------------------
 BYTE   W96
// 015   ----------------------------------------
 BYTE   W96
// 016   ----------------------------------------
 BYTE   W96
// 017   ----------------------------------------
 BYTE   W96
// 018   ----------------------------------------
 BYTE   W96
// 019   ----------------------------------------
 BYTE   W96
// 020   ----------------------------------------
 BYTE   W96
// 021   ----------------------------------------
 BYTE   W96
// 022   ----------------------------------------
 BYTE   W96
// 023   ----------------------------------------
 BYTE   W96
// 024   ----------------------------------------
 BYTE   W96
// 025   ----------------------------------------
 BYTE   W96
// 026   ----------------------------------------
 BYTE   W96
// 027   ----------------------------------------
 BYTE   W96
// 028   ----------------------------------------
 BYTE   W96
// 029   ----------------------------------------
 BYTE   W96
// 030   ----------------------------------------
 BYTE   W96
// 031   ----------------------------------------
 BYTE   W96
// 032   ----------------------------------------
 BYTE   W96
// 033   ----------------------------------------
 BYTE   W96
// 034   ----------------------------------------
 BYTE   W96
// 035   ----------------------------------------
 BYTE   W96
// 036   ----------------------------------------
 BYTE   W96
// 037   ----------------------------------------
 BYTE   W96
// 038   ----------------------------------------
 BYTE   W96
// 039   ----------------------------------------
 BYTE   W96
// 040   ----------------------------------------
 BYTE   W96
// 041   ----------------------------------------
 BYTE   W96
// 042   ----------------------------------------
 BYTE   W96
// 043   ----------------------------------------
 BYTE   W96
// 044   ----------------------------------------
 BYTE   W96
// 045   ----------------------------------------
Label_2_0128D892:
 BYTE   W24
 BYTE   N23  Gn4  v080
 BYTE   W24
 BYTE   Cn4
 BYTE   W24
 BYTE   En4
 BYTE   W24
 BYTE   PEND 
// 046   ----------------------------------------
 BYTE   N92  Dn4
 BYTE   W96
 BYTE   PATT
  POIN2 Label_2_0128D892
// 047   ----------------------------------------
Label_2_0128D8A4:
 BYTE   N32  Dn4  v080
 BYTE   W36
 BYTE   N56  En4
 BYTE   W60
 BYTE   PEND 
 BYTE   PATT
  POIN2 Label_2_0128D841
 BYTE   PATT
  POIN2 Label_2_0128D85C
// 048   ----------------------------------------
 BYTE   N23  Gn4  v080
 BYTE   W24
 BYTE   Fn4
 BYTE   W24
 BYTE   En4
 BYTE   W24
 BYTE   N11  Dn4
 BYTE   W12
 BYTE   TIE  En4
 BYTE   W12
// 049   ----------------------------------------
 BYTE   W92
 BYTE   W03
 BYTE   EOT
 BYTE   W01
 BYTE   PATT
  POIN2 Label_2_0128D892
// 050   ----------------------------------------
 BYTE   N92  Dn4  v080
 BYTE   W96
 BYTE   PATT
  POIN2 Label_2_0128D892
 BYTE   PATT
  POIN2 Label_2_0128D8A4
 BYTE   PATT
  POIN2 Label_2_0128D841
// 051   ----------------------------------------
 BYTE   N92  Cn4  v080
 BYTE   W96
 BYTE   PATT
  POIN2 Label_2_0128D841
// 052   ----------------------------------------
 BYTE   N32  Bn3  v080
 BYTE   W36
 BYTE   TIE  An3
 BYTE   W60
// 053   ----------------------------------------
 BYTE   W68
 BYTE   W03
 BYTE   EOT
 BYTE   W24
 BYTE   W01
// 054   ----------------------------------------
 BYTE   W96
// 055   ----------------------------------------
 BYTE   W96
// 056   ----------------------------------------
 BYTE   W96
// 057   ----------------------------------------
 BYTE   W96
// 058   ----------------------------------------
 BYTE   W96
// 059   ----------------------------------------
 BYTE   W96
// 060   ----------------------------------------
 BYTE   W96
// 061   ----------------------------------------
 BYTE   W96
// 062   ----------------------------------------
 BYTE   W96
// 063   ----------------------------------------
 BYTE   W96
// 064   ----------------------------------------
 BYTE   W96
// 065   ----------------------------------------
 BYTE   W96
// 066   ----------------------------------------
 BYTE   W96
// 067   ----------------------------------------
 BYTE   W96
// 068   ----------------------------------------
 BYTE   W96
// 069   ----------------------------------------
 BYTE   W96
// 070   ----------------------------------------
Label_2_0128D905:
 BYTE   N32  An2  v064
 BYTE   N32  Cn3
 BYTE   N32  En3
 BYTE   W36
 BYTE   N11  An2
 BYTE   N11  Cn3
 BYTE   N11  En3
 BYTE   W36
 BYTE   N32  An2
 BYTE   N32  Cn3
 BYTE   N32  En3
 BYTE   W24
 BYTE   PEND 
// 071   ----------------------------------------
Label_2_0128D91C:
 BYTE   W12
 BYTE   N11  An2  v064
 BYTE   N11  Cn3
 BYTE   N11  En3
 BYTE   W84
 BYTE   PEND 
// 072   ----------------------------------------
 BYTE   N32  Gn2
 BYTE   N32  Bn2
 BYTE   N12  Dn3
 BYTE   W36
 BYTE   N11  Gn2
 BYTE   N11  Bn2
 BYTE   N11  Dn3
 BYTE   W36
 BYTE   N32  An2
 BYTE   N32  Cn3
 BYTE   N32  En3
 BYTE   W24
// 073   ----------------------------------------
 BYTE   W12
 BYTE   N11  An2
 BYTE   N11  Bn2
 BYTE   N11  En3
 BYTE   W84
 BYTE   PATT
  POIN2 Label_2_0128D905
 BYTE   PATT
  POIN2 Label_2_0128D91C
// 074   ----------------------------------------
 BYTE   N32  Dn4  v064
 BYTE   N32  Gn4
 BYTE   N32  Bn4
 BYTE   W36
 BYTE   N11  Dn4
 BYTE   N11  Gn4
 BYTE   N11  Bn4
 BYTE   W36
 BYTE   N68  Bn3
 BYTE   N68  Dn4
 BYTE   N68  Gn4
 BYTE   W24
// 075   ----------------------------------------
 BYTE   W48
 BYTE   N44  Gn3
 BYTE   N44  Bn3
 BYTE   N44  Dn4
 BYTE   W48
// 076   ----------------------------------------
 BYTE   W96
// 077   ----------------------------------------
 BYTE   W24
 BYTE   N17  En3
 BYTE   N17  Gn3
 BYTE   N17  Cn4
 BYTE   W18
 BYTE   N05  En3
 BYTE   N05  Gn3
 BYTE   N05  Cn4
 BYTE   W18
 BYTE   N17  En3
 BYTE   N17  Gn3
 BYTE   N17  Cn4
 BYTE   W18
 BYTE   N05  En3
 BYTE   N05  Gn3
 BYTE   N05  Cn4
 BYTE   W18
// 078   ----------------------------------------
 BYTE   W96
// 079   ----------------------------------------
 BYTE   W24
 BYTE   N11  Bn2
 BYTE   N11  Dn3
 BYTE   N11  Bn3
 BYTE   W12
 BYTE   N05  Bn2
 BYTE   N05  Dn3
 BYTE   N05  Bn3
 BYTE   W06
 BYTE   Bn2
 BYTE   N05  Dn3
 BYTE   N05  Bn3
 BYTE   W18
 BYTE   N17  Bn2
 BYTE   N17  Dn3
 BYTE   N17  Gn3
 BYTE   W18
 BYTE   Bn2
 BYTE   N17  Dn3
 BYTE   N17  Gn3
 BYTE   W18
// 080   ----------------------------------------
 BYTE   W96
// 081   ----------------------------------------
 BYTE   W96
// 082   ----------------------------------------
 BYTE   W96
// 083   ----------------------------------------
 BYTE   W96
// 084   ----------------------------------------
 BYTE   N32  Cn4  v080
 BYTE   W36
 BYTE   Bn3
 BYTE   W36
 BYTE   TIE  En3
 BYTE   W24
// 085   ----------------------------------------
 BYTE   W92
 BYTE   W03
 BYTE   EOT
 BYTE   W01
// 086   ----------------------------------------
 BYTE   W24
 BYTE   N23  Cn4
 BYTE   W24
 BYTE   Bn3
 BYTE   W24
 BYTE   N68  En3
 BYTE   W24
// 087   ----------------------------------------
 BYTE   W48
 BYTE   N44  Dn3
 BYTE   W48
// 088   ----------------------------------------
 BYTE   N23
 BYTE   W24
 BYTE   N11  En3
 BYTE   W12
 BYTE   N23
 BYTE   W24
 BYTE   N11  Fn3
 BYTE   W12
 BYTE   TIE  En3
 BYTE   W24
// 089   ----------------------------------------
 BYTE   W92
 BYTE   W03
 BYTE   EOT
 BYTE   W01
// 090   ----------------------------------------
 BYTE   W96
// 091   ----------------------------------------
 BYTE   W96
// 092   ----------------------------------------
 BYTE   W96
// 093   ----------------------------------------
 BYTE   W96
// 094   ----------------------------------------
 BYTE   W96
// 095   ----------------------------------------
 BYTE   W96
// 096   ----------------------------------------
 BYTE   W96
// 097   ----------------------------------------
 BYTE   W96
// 098   ----------------------------------------
 BYTE   W96
// 099   ----------------------------------------
 BYTE   W96
// 100   ----------------------------------------
Label_2_0128D9E5:
 BYTE   N32  An2  v080
 BYTE   N32  Cn3
 BYTE   W36
 BYTE   N23  An2
 BYTE   N23  Cn3
 BYTE   W24
 BYTE   N32  An2
 BYTE   N32  Cn3
 BYTE   W36
 BYTE   PEND 
// 101   ----------------------------------------
Label_2_0128D9F6:
 BYTE   N32  Gn2  v080
 BYTE   N32  Cn3
 BYTE   W36
 BYTE   N23  Gn2
 BYTE   N23  Bn2
 BYTE   W24
 BYTE   N32  Gn2
 BYTE   N32  Bn2
 BYTE   W36
 BYTE   PEND 
 BYTE   PATT
  POIN2 Label_2_0128D9E5
 BYTE   PATT
  POIN2 Label_2_0128D9F6
 BYTE   PATT
  POIN2 Label_2_0128D9E5
 BYTE   PATT
  POIN2 Label_2_0128D9E5
 BYTE   PATT
  POIN2 Label_2_0128D9E5
 BYTE   PATT
  POIN2 Label_2_0128D9F6
 BYTE   PATT
  POIN2 Label_2_0128D9E5
 BYTE   PATT
  POIN2 Label_2_0128D9E5
 BYTE   PATT
  POIN2 Label_2_0128D9E5
 BYTE   PATT
  POIN2 Label_2_0128D9F6
 BYTE   PATT
  POIN2 Label_2_0128D9E5
// 102   ----------------------------------------
 BYTE   N32  Gs2  v080
 BYTE   N32  Bn2
 BYTE   W36
 BYTE   N23  Gs2
 BYTE   N23  Bn2
 BYTE   W24
 BYTE   N32  Gs2
 BYTE   N32  Bn2
 BYTE   W36
 BYTE   PATT
  POIN2 Label_2_0128D9E5
// 103   ----------------------------------------
 BYTE   N32  Gn2  v080
 BYTE   N32  Cn3
 BYTE   W36
 BYTE   N23  Gn2
 BYTE   N23  Cn3
 BYTE   W24
 BYTE   N32  Gn2
 BYTE   N32  Cn3
 BYTE   W36
// 104   ----------------------------------------
 BYTE   W96
// 105   ----------------------------------------
 BYTE   W96
// 106   ----------------------------------------
 BYTE   W96
// 107   ----------------------------------------
 BYTE   W96
// 108   ----------------------------------------
 BYTE   W96
// 109   ----------------------------------------
 BYTE   W96
// 110   ----------------------------------------
 BYTE   W96
// 111   ----------------------------------------
 BYTE   W96
// 112   ----------------------------------------
 BYTE   W96
// 113   ----------------------------------------
 BYTE   W96
// 114   ----------------------------------------
 BYTE   W96
// 115   ----------------------------------------
 BYTE   W96
// 116   ----------------------------------------
 BYTE   W96
// 117   ----------------------------------------
 BYTE   W96
// 118   ----------------------------------------
 BYTE   W96
// 119   ----------------------------------------
 BYTE   W96
// 120   ----------------------------------------
 BYTE   W96
// 121   ----------------------------------------
 BYTE   W96
// 122   ----------------------------------------
 BYTE   W96
// 123   ----------------------------------------
 BYTE   W96
// 124   ----------------------------------------
 BYTE   W96
// 125   ----------------------------------------
 BYTE   W96
// 126   ----------------------------------------
 BYTE   W96
// 127   ----------------------------------------
 BYTE   W96
// 128   ----------------------------------------
 BYTE   W96
// 129   ----------------------------------------
 BYTE   W96
// 130   ----------------------------------------
 BYTE   W96
// 131   ----------------------------------------
 BYTE   W96
// 132   ----------------------------------------
 BYTE   W96
// 133   ----------------------------------------
 BYTE   W96
// 134   ----------------------------------------
 BYTE   W96
// 135   ----------------------------------------
 BYTE   W96
// 136   ----------------------------------------
 BYTE   W96
// 137   ----------------------------------------
 BYTE   W96
// 138   ----------------------------------------
 BYTE   W96
// 139   ----------------------------------------
 BYTE   W96
// 140   ----------------------------------------
 BYTE   W96
// 141   ----------------------------------------
 BYTE   W96
// 142   ----------------------------------------
 BYTE   W96
// 143   ----------------------------------------
 BYTE   W96
// 144   ----------------------------------------
 BYTE   W96
// 145   ----------------------------------------
 BYTE   W96
// 146   ----------------------------------------
 BYTE   W96
// 147   ----------------------------------------
 BYTE   W96
// 148   ----------------------------------------
 BYTE   W96
// 149   ----------------------------------------
 BYTE   W96
// 150   ----------------------------------------
 BYTE   W96
// 151   ----------------------------------------
 BYTE   W96
// 152   ----------------------------------------
 BYTE   W96
// 153   ----------------------------------------
 BYTE   W96
// 154   ----------------------------------------
 BYTE   W48
 BYTE   N44  Cs4  v052
 BYTE   W48
// 155   ----------------------------------------
 BYTE   N32  Cn4
 BYTE   W36
 BYTE   Cs4
 BYTE   W36
 BYTE   N23  Ds4
 BYTE   W24
// 156   ----------------------------------------
 BYTE   N44  Fn4
 BYTE   W48
 BYTE   Gs4
 BYTE   W48
// 157   ----------------------------------------
 BYTE   N32  Ds4
 BYTE   W36
 BYTE   Cs4
 BYTE   W36
 BYTE   N23  Cn4
 BYTE   W24
// 158   ----------------------------------------
 BYTE   W48
 BYTE   N44  Cs4
 BYTE   W48
// 159   ----------------------------------------
 BYTE   N32
 BYTE   W36
 BYTE   Ds4
 BYTE   W36
 BYTE   N23  Cs4
 BYTE   W24
// 160   ----------------------------------------
 BYTE   TIE  Cn4
 BYTE   W96
// 161   ----------------------------------------
 BYTE   W92
 BYTE   W03
 BYTE   EOT
 BYTE   W01
// 162   ----------------------------------------
 BYTE   TIE  Dn4
 BYTE   W96
// 163   ----------------------------------------
 BYTE   W92
 BYTE   W03
 BYTE   EOT
 BYTE   W01
// 164   ----------------------------------------
 BYTE   GoTo
  POIN2 Label_2_0128D82A
 BYTE   FINE

//**************** Track 4 (Midi-Chn.3) ****************//

FE16TheApexoftheWorldRainMrGreen3339_004:
// 000   ----------------------------------------
 BYTE   KEYSH   FE16TheApexoftheWorldRainMrGreen3339_key+0
Label_3_0128DAD2:
 BYTE   VOICE   45
 BYTE   VOL   51*FE16TheApexoftheWorldRainMrGreen3339_mvl/mxv
 BYTE   PAN   c_v+8
 BYTE   VOL   51*FE16TheApexoftheWorldRainMrGreen3339_mvl/mxv
 BYTE   PAN   c_v+0
 BYTE   VOL   51*FE16TheApexoftheWorldRainMrGreen3339_mvl/mxv
 BYTE   PAN   c_v+0
 BYTE   VOL   51*FE16TheApexoftheWorldRainMrGreen3339_mvl/mxv
 BYTE   PAN   c_v+0
 BYTE   VOL   51*FE16TheApexoftheWorldRainMrGreen3339_mvl/mxv
 BYTE   PAN   c_v+0
 BYTE   W48
 BYTE   W24
 BYTE   N23  Cn3  v080
 BYTE   W24
// 001   ----------------------------------------
 BYTE   Dn3
 BYTE   W24
 BYTE   Bn2
 BYTE   W24
 BYTE   N44  Gn2
 BYTE   N48  Cn3
 BYTE   W48
// 002   ----------------------------------------
 BYTE   N23
 BYTE   W24
 BYTE   Bn2
 BYTE   W24
 BYTE   N44
 BYTE   W24
 BYTE   N23  Cn3
 BYTE   W24
// 003   ----------------------------------------
 BYTE   TIE  An2
 BYTE   N23  Dn3
 BYTE   W24
 BYTE   Bn2
 BYTE   W24
 BYTE   N92  Gn2
 BYTE   W56
// 004   ----------------------------------------
 BYTE   W03
 BYTE   EOT
 BYTE   An2
 BYTE   W01
 BYTE   N11  Bn2
 BYTE   W12
 BYTE   Cn3
 BYTE   W12
 BYTE   Dn3
 BYTE   W12
 BYTE   N44  Gn3
 BYTE   W24
 BYTE   N23  Cn3
 BYTE   W24
 BYTE   Dn3
 BYTE   N44  Gn3
 BYTE   W24
// 005   ----------------------------------------
 BYTE   N23  Bn2
 BYTE   W24
 BYTE   N44  Cn3
 BYTE   W48
 BYTE   Gn3
 BYTE   W24
// 006   ----------------------------------------
 BYTE   N23  En3
 BYTE   W24
 BYTE   N44  Dn3
 BYTE   N44  Gn3
 BYTE   W48
 BYTE   Fn3
 BYTE   W48
// 007   ----------------------------------------
 BYTE   En3
 BYTE   W48
 BYTE   Dn3
 BYTE   W48
// 008   ----------------------------------------
 BYTE   W96
// 009   ----------------------------------------
 BYTE   W96
// 010   ----------------------------------------
 BYTE   W96
// 011   ----------------------------------------
 BYTE   W96
// 012   ----------------------------------------
 BYTE   W96
// 013   ----------------------------------------
 BYTE   W96
// 014   ----------------------------------------
 BYTE   W96
// 015   ----------------------------------------
 BYTE   W96
// 016   ----------------------------------------
 BYTE   W96
// 017   ----------------------------------------
 BYTE   W96
// 018   ----------------------------------------
 BYTE   W96
// 019   ----------------------------------------
 BYTE   W96
// 020   ----------------------------------------
 BYTE   W96
// 021   ----------------------------------------
 BYTE   W96
// 022   ----------------------------------------
 BYTE   W96
// 023   ----------------------------------------
 BYTE   W96
// 024   ----------------------------------------
 BYTE   W96
// 025   ----------------------------------------
 BYTE   W96
// 026   ----------------------------------------
 BYTE   W96
// 027   ----------------------------------------
 BYTE   W96
// 028   ----------------------------------------
 BYTE   W96
// 029   ----------------------------------------
 BYTE   W96
// 030   ----------------------------------------
 BYTE   W96
// 031   ----------------------------------------
 BYTE   W96
// 032   ----------------------------------------
 BYTE   W96
// 033   ----------------------------------------
 BYTE   W96
// 034   ----------------------------------------
 BYTE   W96
// 035   ----------------------------------------
 BYTE   W96
// 036   ----------------------------------------
 BYTE   W96
// 037   ----------------------------------------
 BYTE   W96
// 038   ----------------------------------------
 BYTE   W96
// 039   ----------------------------------------
 BYTE   W96
// 040   ----------------------------------------
 BYTE   W96
// 041   ----------------------------------------
 BYTE   W96
// 042   ----------------------------------------
 BYTE   W96
// 043   ----------------------------------------
 BYTE   W96
// 044   ----------------------------------------
 BYTE   W96
// 045   ----------------------------------------
 BYTE   W96
// 046   ----------------------------------------
 BYTE   W96
// 047   ----------------------------------------
 BYTE   W96
// 048   ----------------------------------------
 BYTE   W96
// 049   ----------------------------------------
 BYTE   W96
// 050   ----------------------------------------
 BYTE   W96
// 051   ----------------------------------------
 BYTE   W96
// 052   ----------------------------------------
 BYTE   W96
// 053   ----------------------------------------
 BYTE   W96
// 054   ----------------------------------------
 BYTE   W96
// 055   ----------------------------------------
Label_3_0128DB64:
 BYTE   W24
 BYTE   N23  Gn3  v064
 BYTE   W24
 BYTE   Cn3
 BYTE   W24
 BYTE   En3
 BYTE   W24
 BYTE   PEND 
// 056   ----------------------------------------
 BYTE   N92  Dn3
 BYTE   W96
 BYTE   PATT
  POIN2 Label_3_0128DB64
// 057   ----------------------------------------
 BYTE   N32  Dn3  v064
 BYTE   W36
 BYTE   N56  En3
 BYTE   W60
// 058   ----------------------------------------
Label_3_0128DB7D:
 BYTE   W24
 BYTE   N23  Cn3  v064
 BYTE   W24
 BYTE   Dn3
 BYTE   W24
 BYTE   Bn2
 BYTE   W24
 BYTE   PEND 
// 059   ----------------------------------------
 BYTE   N92  Cn3
 BYTE   W96
 BYTE   PATT
  POIN2 Label_3_0128DB7D
// 060   ----------------------------------------
 BYTE   N32  Bn2  v064
 BYTE   W36
 BYTE   TIE  An2
 BYTE   W60
// 061   ----------------------------------------
 BYTE   W68
 BYTE   W03
 BYTE   EOT
 BYTE   W24
 BYTE   W01
// 062   ----------------------------------------
 BYTE   W96
// 063   ----------------------------------------
 BYTE   W96
// 064   ----------------------------------------
 BYTE   W96
// 065   ----------------------------------------
 BYTE   W96
// 066   ----------------------------------------
 BYTE   W96
// 067   ----------------------------------------
 BYTE   W96
// 068   ----------------------------------------
 BYTE   W96
// 069   ----------------------------------------
 BYTE   W96
// 070   ----------------------------------------
 BYTE   W96
// 071   ----------------------------------------
 BYTE   W96
// 072   ----------------------------------------
 BYTE   W96
// 073   ----------------------------------------
 BYTE   W96
// 074   ----------------------------------------
 BYTE   W96
// 075   ----------------------------------------
 BYTE   W96
// 076   ----------------------------------------
 BYTE   W96
// 077   ----------------------------------------
 BYTE   W72
 BYTE   N11  An3  v080
 BYTE   W12
 BYTE   Bn3
 BYTE   W12
// 078   ----------------------------------------
Label_3_0128DBB1:
 BYTE   N56  Cn4  v080
 BYTE   W60
 BYTE   N11  Bn3
 BYTE   W12
 BYTE   An3
 BYTE   W12
 BYTE   Gn3
 BYTE   W12
 BYTE   PEND 
// 079   ----------------------------------------
Label_3_0128DBBD:
 BYTE   N56  An3  v080
 BYTE   W60
 BYTE   N11  Gn3
 BYTE   W12
 BYTE   Fn3
 BYTE   W12
 BYTE   En3
 BYTE   W12
 BYTE   PEND 
// 080   ----------------------------------------
 BYTE   Dn3
 BYTE   W12
 BYTE   N05
 BYTE   W06
 BYTE   Ds3
 BYTE   W06
 BYTE   N11  En3
 BYTE   W12
 BYTE   TIE
 BYTE   W60
// 081   ----------------------------------------
 BYTE   W44
 BYTE   W03
 BYTE   EOT
 BYTE   W24
 BYTE   W01
 BYTE   N11  An3
 BYTE   W12
 BYTE   Bn3
 BYTE   W12
 BYTE   PATT
  POIN2 Label_3_0128DBB1
// 082   ----------------------------------------
 BYTE   N56  An3  v080
 BYTE   W60
 BYTE   N11  Bn3
 BYTE   W12
 BYTE   Cn4
 BYTE   W12
 BYTE   Dn4
 BYTE   W12
// 083   ----------------------------------------
 BYTE   N23  Bn3
 BYTE   W24
 BYTE   N11  Gn3
 BYTE   W12
 BYTE   TIE
 BYTE   W60
// 084   ----------------------------------------
 BYTE   W44
 BYTE   W03
 BYTE   EOT
 BYTE   W13
 BYTE   N11  An3
 BYTE   W12
 BYTE   N11
 BYTE   W12
 BYTE   Bn3
 BYTE   W12
 BYTE   PATT
  POIN2 Label_3_0128DBB1
 BYTE   PATT
  POIN2 Label_3_0128DBBD
// 085   ----------------------------------------
 BYTE   N23  Dn3  v080
 BYTE   W24
 BYTE   N11  En3
 BYTE   W12
 BYTE   N23
 BYTE   W24
 BYTE   N11  Fn3
 BYTE   W12
 BYTE   N68  En3
 BYTE   W24
// 086   ----------------------------------------
 BYTE   W72
 BYTE   N11
 BYTE   W12
 BYTE   Fn3
 BYTE   W12
// 087   ----------------------------------------
 BYTE   N23  Gn3
 BYTE   W24
 BYTE   N11  Fn3
 BYTE   W12
 BYTE   N23
 BYTE   W24
 BYTE   N11  En3
 BYTE   W12
 BYTE   N68
 BYTE   W24
// 088   ----------------------------------------
 BYTE   W48
 BYTE   N44  Dn3
 BYTE   W48
// 089   ----------------------------------------
 BYTE   N23
 BYTE   W24
 BYTE   N11  En3
 BYTE   W12
 BYTE   TIE
 BYTE   W60
// 090   ----------------------------------------
 BYTE   W92
 BYTE   W03
 BYTE   EOT
 BYTE   W01
// 091   ----------------------------------------
 BYTE   W96
// 092   ----------------------------------------
 BYTE   W96
// 093   ----------------------------------------
 BYTE   W96
// 094   ----------------------------------------
 BYTE   W96
// 095   ----------------------------------------
 BYTE   W96
// 096   ----------------------------------------
 BYTE   W96
// 097   ----------------------------------------
 BYTE   W96
// 098   ----------------------------------------
 BYTE   W96
// 099   ----------------------------------------
 BYTE   W96
// 100   ----------------------------------------
 BYTE   W96
// 101   ----------------------------------------
 BYTE   W96
// 102   ----------------------------------------
 BYTE   W96
// 103   ----------------------------------------
 BYTE   W96
// 104   ----------------------------------------
 BYTE   W96
// 105   ----------------------------------------
 BYTE   W96
// 106   ----------------------------------------
 BYTE   W96
// 107   ----------------------------------------
 BYTE   W96
// 108   ----------------------------------------
 BYTE   W96
// 109   ----------------------------------------
 BYTE   W96
// 110   ----------------------------------------
 BYTE   W96
// 111   ----------------------------------------
 BYTE   W96
// 112   ----------------------------------------
 BYTE   W96
// 113   ----------------------------------------
 BYTE   W96
// 114   ----------------------------------------
 BYTE   W96
// 115   ----------------------------------------
 BYTE   W96
// 116   ----------------------------------------
 BYTE   W96
// 117   ----------------------------------------
 BYTE   W96
// 118   ----------------------------------------
 BYTE   W96
// 119   ----------------------------------------
 BYTE   W96
// 120   ----------------------------------------
 BYTE   W96
// 121   ----------------------------------------
 BYTE   W96
// 122   ----------------------------------------
 BYTE   W96
// 123   ----------------------------------------
 BYTE   W96
// 124   ----------------------------------------
 BYTE   W96
// 125   ----------------------------------------
 BYTE   W96
// 126   ----------------------------------------
 BYTE   W96
// 127   ----------------------------------------
 BYTE   W96
// 128   ----------------------------------------
 BYTE   W96
// 129   ----------------------------------------
 BYTE   W96
// 130   ----------------------------------------
 BYTE   W96
// 131   ----------------------------------------
 BYTE   W96
// 132   ----------------------------------------
 BYTE   W96
// 133   ----------------------------------------
 BYTE   W96
// 134   ----------------------------------------
 BYTE   W96
// 135   ----------------------------------------
 BYTE   W96
// 136   ----------------------------------------
 BYTE   W96
// 137   ----------------------------------------
 BYTE   W96
// 138   ----------------------------------------
 BYTE   W96
// 139   ----------------------------------------
 BYTE   W96
// 140   ----------------------------------------
 BYTE   W96
// 141   ----------------------------------------
 BYTE   W96
// 142   ----------------------------------------
 BYTE   W96
// 143   ----------------------------------------
 BYTE   W96
// 144   ----------------------------------------
 BYTE   W96
// 145   ----------------------------------------
 BYTE   W96
// 146   ----------------------------------------
 BYTE   W96
// 147   ----------------------------------------
 BYTE   W96
// 148   ----------------------------------------
 BYTE   W96
// 149   ----------------------------------------
 BYTE   W96
// 150   ----------------------------------------
 BYTE   W96
// 151   ----------------------------------------
 BYTE   W96
// 152   ----------------------------------------
 BYTE   W96
// 153   ----------------------------------------
 BYTE   W96
// 154   ----------------------------------------
 BYTE   W96
// 155   ----------------------------------------
 BYTE   W96
// 156   ----------------------------------------
 BYTE   W96
// 157   ----------------------------------------
 BYTE   W96
// 158   ----------------------------------------
 BYTE   W96
// 159   ----------------------------------------
 BYTE   W96
// 160   ----------------------------------------
 BYTE   W96
// 161   ----------------------------------------
 BYTE   W96
// 162   ----------------------------------------
 BYTE   W96
// 163   ----------------------------------------
 BYTE   W96
// 164   ----------------------------------------
 BYTE   W96
// 165   ----------------------------------------
 BYTE   W96
// 166   ----------------------------------------
 BYTE   W96
// 167   ----------------------------------------
 BYTE   W96
// 168   ----------------------------------------
 BYTE   W96
// 169   ----------------------------------------
 BYTE   W96
// 170   ----------------------------------------
 BYTE   W96
// 171   ----------------------------------------
 BYTE   W96
// 172   ----------------------------------------
 BYTE   W96
// 173   ----------------------------------------
 BYTE   W48
 BYTE   N44  Fs2
 BYTE   W48
// 174   ----------------------------------------
Label_3_0128DC91:
 BYTE   N32  Gs2  v080
 BYTE   W36
 BYTE   N32
 BYTE   W36
 BYTE   N23
 BYTE   W24
 BYTE   PEND 
// 175   ----------------------------------------
 BYTE   N44  As2
 BYTE   W48
 BYTE   N44
 BYTE   W48
 BYTE   PATT
  POIN2 Label_3_0128DC91
// 176   ----------------------------------------
 BYTE   W48
 BYTE   N44  Fs2  v080
 BYTE   W48
// 177   ----------------------------------------
 BYTE   N32
 BYTE   W36
 BYTE   N32
 BYTE   W36
 BYTE   N23
 BYTE   W24
// 178   ----------------------------------------
 BYTE   TIE  Fn2
 BYTE   W96
// 179   ----------------------------------------
 BYTE   W92
 BYTE   W03
 BYTE   EOT
 BYTE   W01
// 180   ----------------------------------------
 BYTE   TIE  Gn2
 BYTE   W96
// 181   ----------------------------------------
 BYTE   W92
 BYTE   W03
 BYTE   EOT
 BYTE   W01
// 182   ----------------------------------------
 BYTE   GoTo
  POIN2 Label_3_0128DAD2
 BYTE   FINE

//**************** Track 5 (Midi-Chn.4) ****************//

FE16TheApexoftheWorldRainMrGreen3339_005:
// 000   ----------------------------------------
 BYTE   KEYSH   FE16TheApexoftheWorldRainMrGreen3339_key+0
Label_4_0128DCC6:
 BYTE   VOICE   45
 BYTE   VOL   51*FE16TheApexoftheWorldRainMrGreen3339_mvl/mxv
 BYTE   PAN   c_v+0
 BYTE   VOL   43*FE16TheApexoftheWorldRainMrGreen3339_mvl/mxv
 BYTE   PAN   c_v+14
 BYTE   VOL   51*FE16TheApexoftheWorldRainMrGreen3339_mvl/mxv
 BYTE   PAN   c_v+0
 BYTE   VOL   51*FE16TheApexoftheWorldRainMrGreen3339_mvl/mxv
 BYTE   PAN   c_v+6
 BYTE   VOL   51*FE16TheApexoftheWorldRainMrGreen3339_mvl/mxv
 BYTE   PAN   c_v+0
 BYTE   W48
 BYTE   W96
// 001   ----------------------------------------
 BYTE   W96
// 002   ----------------------------------------
 BYTE   W96
// 003   ----------------------------------------
 BYTE   W96
// 004   ----------------------------------------
 BYTE   W96
// 005   ----------------------------------------
 BYTE   W96
// 006   ----------------------------------------
 BYTE   W96
// 007   ----------------------------------------
 BYTE   W96
// 008   ----------------------------------------
Label_4_0128DCE5:
 BYTE   N32  An1  v052
 BYTE   N32  An2
 BYTE   N32  Cn3
 BYTE   N11  Bn3  v080
 BYTE   W12
 BYTE   Cn4
 BYTE   W12
 BYTE   En4
 BYTE   W12
 BYTE   An1  v052
 BYTE   N11  An2
 BYTE   N11  Bn2
 BYTE   N11  Gn4  v080
 BYTE   W24
 BYTE   An1  v052
 BYTE   N11  An2
 BYTE   N11  Bn2
 BYTE   N11  Gn4  v080
 BYTE   W12
 BYTE   Bn4
 BYTE   W12
 BYTE   N05  An1  v052
 BYTE   N05  An2
 BYTE   N05  Bn2
 BYTE   N11  Cn5  v080
 BYTE   W12
 BYTE   PEND 
// 009   ----------------------------------------
Label_4_0128DD16:
 BYTE   N32  An1  v052
 BYTE   N32  An2
 BYTE   N32  Cn3
 BYTE   W12
 BYTE   N11  Bn4  v080
 BYTE   W12
 BYTE   Gn4
 BYTE   W12
 BYTE   An1  v052
 BYTE   N11  An2
 BYTE   N11  Bn2
 BYTE   N11  Dn4  v080
 BYTE   W24
 BYTE   An1  v052
 BYTE   N11  An2
 BYTE   N11  Bn2
 BYTE   N11  Cn4  v080
 BYTE   W12
 BYTE   Bn3
 BYTE   W12
 BYTE   N05  An1  v052
 BYTE   N05  An2
 BYTE   N05  Bn2
 BYTE   N11  Cn4  v080
 BYTE   W12
 BYTE   PEND 
 BYTE   PATT
  POIN2 Label_4_0128DCE5
 BYTE   PATT
  POIN2 Label_4_0128DD16
// 010   ----------------------------------------
 BYTE   N64  AnM1  v096
 BYTE   N32  An1  v052
 BYTE   N32  An2
 BYTE   N32  Cn3
 BYTE   N11  Bn3  v080
 BYTE   W03
 BYTE   W01
 BYTE   W01
 BYTE   W07
 BYTE   Cn4
 BYTE   W12
 BYTE   En4
 BYTE   W12
 BYTE   An1  v052
 BYTE   N11  An2
 BYTE   N11  Bn2
 BYTE   N11  Gn4  v080
 BYTE   W24
 BYTE   An1  v052
 BYTE   N11  An2
 BYTE   N11  Bn2
 BYTE   N11  Gn4  v080
 BYTE   W12
 BYTE   Bn4
 BYTE   W12
 BYTE   N05  An1  v052
 BYTE   N05  An2
 BYTE   N05  Bn2
 BYTE   N11  Cn5  v080
 BYTE   W12
 BYTE   PATT
  POIN2 Label_4_0128DD16
// 011   ----------------------------------------
 BYTE   N32  An1  v052
 BYTE   N32  An2
 BYTE   N32  Cn3
 BYTE   N11  Bn3  v080
 BYTE   W12
 BYTE   Cn4
 BYTE   W12
 BYTE   En4
 BYTE   W01
 BYTE   W11
 BYTE   An1  v052
 BYTE   N11  An2
 BYTE   N11  Bn2
 BYTE   N11  Gn4  v080
 BYTE   W02
 BYTE   W13
 BYTE   W09
 BYTE   An1  v056
 BYTE   N11  An2
 BYTE   N11  Bn2
 BYTE   N11  Gn4  v080
 BYTE   W04
 BYTE   W08
 BYTE   Bn4
 BYTE   W04
 BYTE   W08
 BYTE   N05  An1  v056
 BYTE   N05  An2
 BYTE   N05  Bn2
 BYTE   N11  Cn5  v080
 BYTE   W05
 BYTE   W07
// 012   ----------------------------------------
 BYTE   N32  An1  v056
 BYTE   N32  An2
 BYTE   N32  Cn3
 BYTE   N11  Cn4
 BYTE   W06
 BYTE   W06
 BYTE   Cn4  v060
 BYTE   N11  Bn4  v080
 BYTE   W07
 BYTE   W05
 BYTE   Cn4  v060
 BYTE   N11  Gn4  v080
 BYTE   W08
 BYTE   W04
 BYTE   An1  v060
 BYTE   N11  An2
 BYTE   N11  Bn2
 BYTE   N23  Bn3
 BYTE   N11  Dn4  v080
 BYTE   W08
 BYTE   W04
 BYTE   W09
 BYTE   W03
 BYTE   An1  v064
 BYTE   N11  An2
 BYTE   N11  Bn2
 BYTE   N11  Cn4
 BYTE   W10
 BYTE   W02
 BYTE   Bn3
 BYTE   W11
 BYTE   W01
 BYTE   N05  An1
 BYTE   N05  An2
 BYTE   N05  Bn2
 BYTE   N11  Gn3
 BYTE   N11  Cn4  v080
 BYTE   W12
// 013   ----------------------------------------
Label_4_0128DE02:
 BYTE   N11  Bn3  v080
 BYTE   W12
 BYTE   Cn4
 BYTE   W12
 BYTE   En4
 BYTE   W12
 BYTE   Gn4
 BYTE   W24
 BYTE   N11
 BYTE   W12
 BYTE   Bn4
 BYTE   W12
 BYTE   Cn5
 BYTE   W12
 BYTE   PEND 
// 014   ----------------------------------------
Label_4_0128DE13:
 BYTE   W12
 BYTE   N11  Bn4  v080
 BYTE   W12
 BYTE   Gn4
 BYTE   W12
 BYTE   Dn4
 BYTE   W24
 BYTE   Cn4
 BYTE   W12
 BYTE   Bn3
 BYTE   W12
 BYTE   Cn4
 BYTE   W12
 BYTE   PEND 
 BYTE   PATT
  POIN2 Label_4_0128DE02
 BYTE   PATT
  POIN2 Label_4_0128DE13
 BYTE   PATT
  POIN2 Label_4_0128DE02
 BYTE   PATT
  POIN2 Label_4_0128DE13
 BYTE   PATT
  POIN2 Label_4_0128DE02
 BYTE   PATT
  POIN2 Label_4_0128DE13
 BYTE   PATT
  POIN2 Label_4_0128DE02
 BYTE   PATT
  POIN2 Label_4_0128DE13
 BYTE   PATT
  POIN2 Label_4_0128DE02
 BYTE   PATT
  POIN2 Label_4_0128DE13
 BYTE   PATT
  POIN2 Label_4_0128DE02
 BYTE   PATT
  POIN2 Label_4_0128DE13
 BYTE   PATT
  POIN2 Label_4_0128DE02
 BYTE   PATT
  POIN2 Label_4_0128DE13
// 015   ----------------------------------------
Label_4_0128DE69:
 BYTE   N11  Bn3  v064
 BYTE   W12
 BYTE   Cn4
 BYTE   W12
 BYTE   En4
 BYTE   W12
 BYTE   Gn4
 BYTE   W24
 BYTE   N11
 BYTE   W12
 BYTE   Bn4
 BYTE   W12
 BYTE   Cn5
 BYTE   W12
 BYTE   PEND 
// 016   ----------------------------------------
Label_4_0128DE7A:
 BYTE   W12
 BYTE   N11  Bn4  v064
 BYTE   W12
 BYTE   Gn4
 BYTE   W12
 BYTE   Dn4
 BYTE   W24
 BYTE   Cn4
 BYTE   W12
 BYTE   Bn3
 BYTE   W12
 BYTE   Cn4
 BYTE   W12
 BYTE   PEND 
 BYTE   PATT
  POIN2 Label_4_0128DE69
 BYTE   PATT
  POIN2 Label_4_0128DE7A
 BYTE   PATT
  POIN2 Label_4_0128DE69
 BYTE   PATT
  POIN2 Label_4_0128DE7A
 BYTE   PATT
  POIN2 Label_4_0128DE69
 BYTE   PATT
  POIN2 Label_4_0128DE7A
 BYTE   PATT
  POIN2 Label_4_0128DE69
 BYTE   PATT
  POIN2 Label_4_0128DE7A
 BYTE   PATT
  POIN2 Label_4_0128DE69
 BYTE   PATT
  POIN2 Label_4_0128DE7A
 BYTE   PATT
  POIN2 Label_4_0128DE69
 BYTE   PATT
  POIN2 Label_4_0128DE7A
// 017   ----------------------------------------
 BYTE   W96
// 018   ----------------------------------------
 BYTE   W96
// 019   ----------------------------------------
 BYTE   W96
// 020   ----------------------------------------
 BYTE   W96
// 021   ----------------------------------------
 BYTE   W96
// 022   ----------------------------------------
 BYTE   W96
// 023   ----------------------------------------
 BYTE   W96
// 024   ----------------------------------------
 BYTE   W96
// 025   ----------------------------------------
 BYTE   W96
// 026   ----------------------------------------
 BYTE   W96
// 027   ----------------------------------------
 BYTE   W96
// 028   ----------------------------------------
 BYTE   W96
// 029   ----------------------------------------
 BYTE   W96
// 030   ----------------------------------------
 BYTE   W96
// 031   ----------------------------------------
 BYTE   W96
// 032   ----------------------------------------
 BYTE   W96
// 033   ----------------------------------------
 BYTE   W96
// 034   ----------------------------------------
 BYTE   W96
// 035   ----------------------------------------
Label_4_0128DED8:
 BYTE   N11  En4  v064
 BYTE   W12
 BYTE   An3
 BYTE   W12
 BYTE   Dn4
 BYTE   W12
 BYTE   N22  En4
 BYTE   W24
 BYTE   N11  An3
 BYTE   W12
 BYTE   Dn4
 BYTE   W12
 BYTE   En4
 BYTE   W12
 BYTE   PEND 
// 036   ----------------------------------------
Label_4_0128DEEB:
 BYTE   W24
 BYTE   N22  Bn4  v064
 BYTE   N22  Bn5
 BYTE   W24
 BYTE   Cn5
 BYTE   N22  Cn6
 BYTE   W24
 BYTE   Dn5
 BYTE   N22  Dn6
 BYTE   W24
 BYTE   PEND 
// 037   ----------------------------------------
Label_4_0128DEFB:
 BYTE   N11  En4  v064
 BYTE   W12
 BYTE   Bn3
 BYTE   W12
 BYTE   Cn4
 BYTE   W12
 BYTE   An4
 BYTE   W12
 BYTE   Cn4
 BYTE   W12
 BYTE   Bn3
 BYTE   W12
 BYTE   Cn4
 BYTE   W12
 BYTE   Gn4
 BYTE   W12
 BYTE   PEND 
 BYTE   PATT
  POIN2 Label_4_0128DEEB
// 038   ----------------------------------------
Label_4_0128DF13:
 BYTE   N11  Dn4  v064
 BYTE   W12
 BYTE   Gn3
 BYTE   W12
 BYTE   Bn3
 BYTE   W12
 BYTE   Cn4
 BYTE   W12
 BYTE   Gn3
 BYTE   W12
 BYTE   En3
 BYTE   W12
 BYTE   Bn3
 BYTE   W12
 BYTE   Cn4
 BYTE   W12
 BYTE   PEND 
// 039   ----------------------------------------
 BYTE   Gn3
 BYTE   W12
 BYTE   En3
 BYTE   W12
 BYTE   Bn3
 BYTE   W12
 BYTE   Cn4
 BYTE   W12
 BYTE   Gn3
 BYTE   W12
 BYTE   En3
 BYTE   W12
 BYTE   Bn3
 BYTE   W12
 BYTE   Cn4
 BYTE   W12
 BYTE   PATT
  POIN2 Label_4_0128DF13
// 040   ----------------------------------------
 BYTE   W96
 BYTE   PATT
  POIN2 Label_4_0128DED8
 BYTE   PATT
  POIN2 Label_4_0128DEEB
 BYTE   PATT
  POIN2 Label_4_0128DEFB
 BYTE   PATT
  POIN2 Label_4_0128DEEB
 BYTE   PATT
  POIN2 Label_4_0128DF13
// 041   ----------------------------------------
 BYTE   N32  Bn4  v064
 BYTE   N32  Bn5
 BYTE   W36
 BYTE   Gs4
 BYTE   N32  Gs5
 BYTE   W36
 BYTE   N22  En4
 BYTE   N22  En5
 BYTE   W24
// 042   ----------------------------------------
 BYTE   N11  Gs4
 BYTE   N11  Gs5
 BYTE   W12
 BYTE   En3
 BYTE   W12
 BYTE   Gs3
 BYTE   W12
 BYTE   Cn4
 BYTE   W12
 BYTE   N11
 BYTE   W12
 BYTE   En3
 BYTE   W12
 BYTE   Gs3
 BYTE   W12
 BYTE   Cn4
 BYTE   W12
// 043   ----------------------------------------
 BYTE   N90  Bn3
 BYTE   W96
// 044   ----------------------------------------
 BYTE   W96
// 045   ----------------------------------------
 BYTE   W36
 BYTE   N11
 BYTE   W12
 BYTE   Cn4
 BYTE   W12
 BYTE   Gn4
 BYTE   W12
 BYTE   Dn4
 BYTE   W24
// 046   ----------------------------------------
 BYTE   W96
// 047   ----------------------------------------
 BYTE   W36
 BYTE   N11
 BYTE   W12
 BYTE   Cn4
 BYTE   W12
 BYTE   Bn3
 BYTE   W12
 BYTE   An3
 BYTE   W12
 BYTE   Gn3
 BYTE   W12
// 048   ----------------------------------------
 BYTE   W96
// 049   ----------------------------------------
 BYTE   W96
// 050   ----------------------------------------
 BYTE   W96
// 051   ----------------------------------------
 BYTE   W96
// 052   ----------------------------------------
 BYTE   W96
// 053   ----------------------------------------
 BYTE   W96
// 054   ----------------------------------------
 BYTE   W96
// 055   ----------------------------------------
 BYTE   W96
// 056   ----------------------------------------
 BYTE   W96
// 057   ----------------------------------------
 BYTE   W96
// 058   ----------------------------------------
 BYTE   W96
// 059   ----------------------------------------
 BYTE   W96
// 060   ----------------------------------------
 BYTE   W96
// 061   ----------------------------------------
 BYTE   W96
// 062   ----------------------------------------
Label_4_0128DF9E:
 BYTE   N22  An4  v064
 BYTE   N22  Cn5
 BYTE   W24
 BYTE   N05  Dn4
 BYTE   W06
 BYTE   En4
 BYTE   W06
 BYTE   Fn4
 BYTE   W06
 BYTE   Gn4
 BYTE   W06
 BYTE   An4
 BYTE   W06
 BYTE   Gn4
 BYTE   W06
 BYTE   Fn4
 BYTE   W06
 BYTE   En4
 BYTE   W06
 BYTE   Fn4
 BYTE   W06
 BYTE   En4
 BYTE   W06
 BYTE   Dn4
 BYTE   W06
 BYTE   Cn4
 BYTE   W06
 BYTE   PEND 
// 063   ----------------------------------------
Label_4_0128DFBE:
 BYTE   N05  En4  v064
 BYTE   W06
 BYTE   Dn4
 BYTE   W06
 BYTE   Cn4
 BYTE   W06
 BYTE   Bn3
 BYTE   W78
 BYTE   PEND 
// 064   ----------------------------------------
 BYTE   W96
// 065   ----------------------------------------
 BYTE   W96
// 066   ----------------------------------------
 BYTE   W96
// 067   ----------------------------------------
 BYTE   W96
// 068   ----------------------------------------
 BYTE   W96
// 069   ----------------------------------------
 BYTE   W96
 BYTE   PATT
  POIN2 Label_4_0128DF9E
 BYTE   PATT
  POIN2 Label_4_0128DFBE
// 070   ----------------------------------------
 BYTE   W96
// 071   ----------------------------------------
 BYTE   W96
// 072   ----------------------------------------
 BYTE   W96
// 073   ----------------------------------------
 BYTE   W96
// 074   ----------------------------------------
 BYTE   W96
// 075   ----------------------------------------
 BYTE   W96
// 076   ----------------------------------------
 BYTE   W96
// 077   ----------------------------------------
 BYTE   W96
// 078   ----------------------------------------
 BYTE   W96
// 079   ----------------------------------------
 BYTE   W96
// 080   ----------------------------------------
 BYTE   W96
// 081   ----------------------------------------
 BYTE   W96
// 082   ----------------------------------------
 BYTE   W96
// 083   ----------------------------------------
 BYTE   W96
// 084   ----------------------------------------
 BYTE   W96
// 085   ----------------------------------------
 BYTE   W96
// 086   ----------------------------------------
 BYTE   W96
// 087   ----------------------------------------
 BYTE   W96
// 088   ----------------------------------------
 BYTE   W96
// 089   ----------------------------------------
 BYTE   W96
// 090   ----------------------------------------
 BYTE   W96
// 091   ----------------------------------------
 BYTE   W96
// 092   ----------------------------------------
 BYTE   W96
// 093   ----------------------------------------
 BYTE   W96
// 094   ----------------------------------------
 BYTE   W96
// 095   ----------------------------------------
 BYTE   W96
// 096   ----------------------------------------
 BYTE   W96
// 097   ----------------------------------------
 BYTE   W96
// 098   ----------------------------------------
 BYTE   W96
// 099   ----------------------------------------
 BYTE   W96
// 100   ----------------------------------------
 BYTE   W96
// 101   ----------------------------------------
 BYTE   W96
// 102   ----------------------------------------
 BYTE   W96
// 103   ----------------------------------------
 BYTE   W96
// 104   ----------------------------------------
 BYTE   W96
// 105   ----------------------------------------
 BYTE   W96
// 106   ----------------------------------------
 BYTE   W96
// 107   ----------------------------------------
 BYTE   W96
// 108   ----------------------------------------
 BYTE   N90  Fs2  v080
 BYTE   N90  Fn3
 BYTE   N90  As3
 BYTE   N11  Cn4
 BYTE   W12
 BYTE   Cs4
 BYTE   W12
 BYTE   Fn4
 BYTE   W12
 BYTE   Gs4
 BYTE   W24
 BYTE   N11
 BYTE   W12
 BYTE   Cn5
 BYTE   W12
 BYTE   Cs5
 BYTE   W12
// 109   ----------------------------------------
 BYTE   W12
 BYTE   Cn5
 BYTE   W12
 BYTE   Gs4
 BYTE   W12
 BYTE   Ds4
 BYTE   W24
 BYTE   Cs4
 BYTE   W12
 BYTE   Cn4
 BYTE   W12
 BYTE   Cs4
 BYTE   W12
// 110   ----------------------------------------
 BYTE   N90  Fn2
 BYTE   N90  Cn3
 BYTE   N90  Ds3
 BYTE   N11  Cn4
 BYTE   W12
 BYTE   Cs4
 BYTE   W12
 BYTE   Fn4
 BYTE   W12
 BYTE   Gs4
 BYTE   W24
 BYTE   N11
 BYTE   W12
 BYTE   Cn5
 BYTE   W12
 BYTE   Cs5
 BYTE   W12
// 111   ----------------------------------------
 BYTE   N90  As1
 BYTE   W12
 BYTE   N11  Cn5
 BYTE   W12
 BYTE   Gs4
 BYTE   W12
 BYTE   Ds4
 BYTE   W24
 BYTE   Cs4
 BYTE   W12
 BYTE   Cn4
 BYTE   W12
 BYTE   Cs4
 BYTE   W12
// 112   ----------------------------------------
 BYTE   N44  Ds1
 BYTE   N44  As2
 BYTE   N44  Cs3
 BYTE   N11  Cs4
 BYTE   W12
 BYTE   Fn4
 BYTE   W12
 BYTE   Fs4
 BYTE   W12
 BYTE   Cs4
 BYTE   W24
 BYTE   N32  Ds1
 BYTE   N32  As2
 BYTE   N32  Cs3
 BYTE   N11  Fn4
 BYTE   W12
 BYTE   Fs4
 BYTE   W12
 BYTE   Cs5
 BYTE   W12
// 113   ----------------------------------------
 BYTE   N44  Fn1
 BYTE   N44  Cn3
 BYTE   N44  Ds3
 BYTE   N11  Fn4
 BYTE   W12
 BYTE   Ds4
 BYTE   W12
 BYTE   Cs4
 BYTE   W12
 BYTE   Cn4
 BYTE   W12
 BYTE   N44  An1
 BYTE   N44  Cn3
 BYTE   N44  Ds3
 BYTE   N11  Fs4
 BYTE   W12
 BYTE   Fn4
 BYTE   W12
 BYTE   Cn4
 BYTE   W12
 BYTE   Cs4
 BYTE   W12
// 114   ----------------------------------------
 BYTE   N44  As1
 BYTE   N44  Gs2
 BYTE   N44  Cn3
 BYTE   N11  Fn4
 BYTE   W12
 BYTE   Cs4
 BYTE   W12
 BYTE   Cn4
 BYTE   W12
 BYTE   Cs4
 BYTE   W24
 BYTE   N32  As1
 BYTE   N32  Gs2
 BYTE   N32  Cn3
 BYTE   N11  Cs4
 BYTE   W12
 BYTE   Cn5
 BYTE   W12
 BYTE   Cs5
 BYTE   W12
// 115   ----------------------------------------
 BYTE   N32  Gs1
 BYTE   N32  Gs2
 BYTE   N32  Ds3
 BYTE   N11  Gs4
 BYTE   W12
 BYTE   Fn4
 BYTE   W12
 BYTE   Cs4
 BYTE   W12
 BYTE   N32  Gs1
 BYTE   N32  Fs2
 BYTE   N32  Cs3
 BYTE   N11  Cn4
 BYTE   W24
 BYTE   Fn4
 BYTE   W12
 BYTE   N22  Gn1
 BYTE   N22  Fn2
 BYTE   N22  Cn3
 BYTE   N11  Cs4
 BYTE   W12
 BYTE   Cn4
 BYTE   W12
// 116   ----------------------------------------
 BYTE   N32  Fs2
 BYTE   N32  As2
 BYTE   N11  Fn4
 BYTE   W12
 BYTE   Cs4
 BYTE   W12
 BYTE   Cn4
 BYTE   W12
 BYTE   Fs2
 BYTE   N11  As2
 BYTE   N11  Cs4
 BYTE   W24
 BYTE   Gs4
 BYTE   W12
 BYTE   Cs4
 BYTE   W12
 BYTE   Cn4
 BYTE   W12
// 117   ----------------------------------------
 BYTE   N32  Gs2
 BYTE   N32  Ds3
 BYTE   N11  Ds4
 BYTE   W12
 BYTE   Cs4
 BYTE   W12
 BYTE   Cn4
 BYTE   W12
 BYTE   N32  Gs2
 BYTE   N32  Cs3
 BYTE   N11  Cs4
 BYTE   W36
 BYTE   N22  Gs2
 BYTE   N22  Cn3
 BYTE   N11  Cn4
 BYTE   W12
 BYTE   Cs4
 BYTE   W12
// 118   ----------------------------------------
 BYTE   N32  As2
 BYTE   N32  Cs3
 BYTE   N22  Gs3
 BYTE   W24
 BYTE   N11  Cn4
 BYTE   W12
 BYTE   As2
 BYTE   N11  Cs3
 BYTE   N11  Cs4
 BYTE   W12
 BYTE   N22  Fn4
 BYTE   W12
 BYTE   N32  As2
 BYTE   N32  Cs3
 BYTE   W12
 BYTE   N11  Cn4
 BYTE   W12
 BYTE   Cs4
 BYTE   W12
// 119   ----------------------------------------
 BYTE   N32  Gs2
 BYTE   N32  Ds3
 BYTE   N22  Gs4
 BYTE   W24
 BYTE   Fs4
 BYTE   W12
 BYTE   N32  Gs2
 BYTE   N32  Cs3
 BYTE   W12
 BYTE   N22  Fn4
 BYTE   W24
 BYTE   Gs2
 BYTE   N22  Cn3
 BYTE   N22  Ds4
 BYTE   W24
// 120   ----------------------------------------
 BYTE   N32  As2
 BYTE   N32  Cs3
 BYTE   N44  Cs4
 BYTE   W36
 BYTE   N11  As2
 BYTE   N11  Cs3
 BYTE   W12
 BYTE   N44  Fn4
 BYTE   W12
 BYTE   N22  As2
 BYTE   N22  Cs3
 BYTE   W24
 BYTE   N11  As2
 BYTE   N11  Cs3
 BYTE   W12
// 121   ----------------------------------------
 BYTE   N32  Cn3
 BYTE   N32  Ds3
 BYTE   N44  Ds4
 BYTE   W36
 BYTE   N11  Cn3
 BYTE   W12
 BYTE   Cs3
 BYTE   N44  Cs4
 BYTE   W12
 BYTE   N11  Ds3
 BYTE   W12
 BYTE   Fn3
 BYTE   W12
 BYTE   Fs3
 BYTE   W12
// 122   ----------------------------------------
 BYTE   W96
// 123   ----------------------------------------
 BYTE   W96
// 124   ----------------------------------------
 BYTE   W96
// 125   ----------------------------------------
 BYTE   W96
// 126   ----------------------------------------
 BYTE   W96
// 127   ----------------------------------------
 BYTE   W96
// 128   ----------------------------------------
 BYTE   W96
// 129   ----------------------------------------
 BYTE   W96
// 130   ----------------------------------------
 BYTE   W96
// 131   ----------------------------------------
 BYTE   W96
// 132   ----------------------------------------
 BYTE   W96
// 133   ----------------------------------------
 BYTE   W96
// 134   ----------------------------------------
 BYTE   W96
// 135   ----------------------------------------
 BYTE   W96
// 136   ----------------------------------------
 BYTE   W96
// 137   ----------------------------------------
 BYTE   W96
// 138   ----------------------------------------
 BYTE   W96
// 139   ----------------------------------------
 BYTE   W96
// 140   ----------------------------------------
Label_4_0128E166:
 BYTE   N05  Cn6  v080
 BYTE   W06
 BYTE   Cs6
 BYTE   W06
 BYTE   Cn6
 BYTE   W06
 BYTE   Gs5
 BYTE   W06
 BYTE   Ds5
 BYTE   W06
 BYTE   Fn5
 BYTE   W06
 BYTE   Gs5
 BYTE   W12
 BYTE   N44  Fs2
 BYTE   N44  As2
 BYTE   N44  Cs3
 BYTE   W48
 BYTE   PEND 
// 141   ----------------------------------------
 BYTE   N32  Gs2
 BYTE   N32  As2
 BYTE   N32  Cn3
 BYTE   W36
 BYTE   Gs2
 BYTE   N32  As2
 BYTE   N32  Cs3
 BYTE   W36
 BYTE   N22  Gs2
 BYTE   N22  Cn3
 BYTE   N22  Ds3
 BYTE   W24
// 142   ----------------------------------------
 BYTE   N44  As2
 BYTE   N44  Cs3
 BYTE   N44  Fn3
 BYTE   N05  Cn6
 BYTE   W06
 BYTE   Cs6
 BYTE   W06
 BYTE   Cn6
 BYTE   W06
 BYTE   Gs5
 BYTE   W06
 BYTE   Ds5
 BYTE   W06
 BYTE   Fn5
 BYTE   W06
 BYTE   Gs5
 BYTE   W12
 BYTE   N44  As2
 BYTE   N44  Cs3
 BYTE   N44  Gs3
 BYTE   W48
// 143   ----------------------------------------
 BYTE   N32  Gs2
 BYTE   N32  Cn3
 BYTE   N32  Ds3
 BYTE   W36
 BYTE   Gs2
 BYTE   N32  Cn3
 BYTE   N32  Cs3
 BYTE   W36
 BYTE   N22  Gs2
 BYTE   N22  Cn3
 BYTE   W24
 BYTE   PATT
  POIN2 Label_4_0128E166
// 144   ----------------------------------------
 BYTE   N32  Fs2  v080
 BYTE   N32  As2
 BYTE   N32  Cs3
 BYTE   W36
 BYTE   Fs2
 BYTE   N32  As2
 BYTE   N32  Ds3
 BYTE   W36
 BYTE   N22  Fs2
 BYTE   N22  As2
 BYTE   N22  Cs3
 BYTE   W24
// 145   ----------------------------------------
 BYTE   N90  Fn2
 BYTE   N90  As2
 BYTE   N90  Cn3
 BYTE   W96
// 146   ----------------------------------------
 BYTE   Fn2
 BYTE   N90  An2
 BYTE   N90  Cn3
 BYTE   W96
// 147   ----------------------------------------
 BYTE   Gn2
 BYTE   N90  Cn3
 BYTE   W96
// 148   ----------------------------------------
 BYTE   Gn2
 BYTE   N90  Bn2
 BYTE   W96
// 149   ----------------------------------------
 BYTE   GoTo
  POIN2 Label_4_0128DCC6
 BYTE   FINE

//**************** Track 6 (Midi-Chn.5) ****************//

FE16TheApexoftheWorldRainMrGreen3339_006:
// 000   ----------------------------------------
 BYTE   KEYSH   FE16TheApexoftheWorldRainMrGreen3339_key+0
Label_5_0128E1FA:
 BYTE   VOICE   45
 BYTE   VOL   51*FE16TheApexoftheWorldRainMrGreen3339_mvl/mxv
 BYTE   PAN   c_v+0
 BYTE   VOL   43*FE16TheApexoftheWorldRainMrGreen3339_mvl/mxv
 BYTE   PAN   c_v-19
 BYTE   VOL   43*FE16TheApexoftheWorldRainMrGreen3339_mvl/mxv
 BYTE   PAN   c_v-19
 BYTE   VOL   51*FE16TheApexoftheWorldRainMrGreen3339_mvl/mxv
 BYTE   PAN   c_v+0
 BYTE   VOL   51*FE16TheApexoftheWorldRainMrGreen3339_mvl/mxv
 BYTE   PAN   c_v+0
 BYTE   W48
Label_5_0128E211:
 BYTE   W24
 BYTE   N23  Gn3  v080
 BYTE   N23  Cn4
 BYTE   W24
// 001   ----------------------------------------
 BYTE   An3
 BYTE   N23  Dn4
 BYTE   W24
 BYTE   Gn3
 BYTE   N23  Bn3
 BYTE   W24
 BYTE   PEND 
 BYTE   N92  Gn3
 BYTE   N92  Cn4
 BYTE   W96
 BYTE   PATT
  POIN2 Label_5_0128E211
// 002   ----------------------------------------
 BYTE   N92  Gn3  v080
 BYTE   W96
 BYTE   PATT
  POIN2 Label_5_0128E211
// 003   ----------------------------------------
 BYTE   N44  Gn3  v080
 BYTE   N44  Cn4
 BYTE   W48
 BYTE   N44
 BYTE   N44  Gn4
 BYTE   W48
// 004   ----------------------------------------
 BYTE   Cn4
 BYTE   N44  Gn4
 BYTE   W48
 BYTE   Cn4
 BYTE   N44  Fn4
 BYTE   W48
// 005   ----------------------------------------
 BYTE   Cn4
 BYTE   N44  En4
 BYTE   W48
 BYTE   Bn3
 BYTE   N44  Dn4
 BYTE   W48
// 006   ----------------------------------------
 BYTE   W96
// 007   ----------------------------------------
 BYTE   W96
// 008   ----------------------------------------
Label_5_0128E250:
 BYTE   W24
 BYTE   N05  An4  v052
 BYTE   W06
 BYTE   Bn4
 BYTE   W06
 BYTE   Cn5
 BYTE   W06
 BYTE   Dn5
 BYTE   W06
 BYTE   En5
 BYTE   W48
 BYTE   PEND 
// 009   ----------------------------------------
 BYTE   W96
 BYTE   PATT
  POIN2 Label_5_0128E250
// 010   ----------------------------------------
 BYTE   W24
 BYTE   N05  An4  v052
 BYTE   W06
 BYTE   Bn4
 BYTE   W06
 BYTE   Cn5
 BYTE   W06
 BYTE   En5
 BYTE   W06
 BYTE   An4
 BYTE   W06
 BYTE   Bn4
 BYTE   W06
 BYTE   Cn5
 BYTE   W06
 BYTE   En5
 BYTE   W06
 BYTE   An4
 BYTE   W06
 BYTE   Bn4
 BYTE   W06
 BYTE   Cn5
 BYTE   W06
 BYTE   En5
 BYTE   W06
// 011   ----------------------------------------
 BYTE   N05
 BYTE   W06
 BYTE   Dn5
 BYTE   W06
 BYTE   Cn5
 BYTE   W06
 BYTE   An4
 BYTE   W06
 BYTE   Gn4
 BYTE   W06
 BYTE   En4
 BYTE   W06
 BYTE   Dn4
 BYTE   W06
 BYTE   Cn4
 BYTE   W06
 BYTE   An3
 BYTE   W48
// 012   ----------------------------------------
 BYTE   W48
 BYTE   Bn4
 BYTE   W06
 BYTE   Cn5
 BYTE   W06
 BYTE   Dn5
 BYTE   W06
 BYTE   En5
 BYTE   W06
 BYTE   Gn5
 BYTE   W06
 BYTE   An5
 BYTE   W06
 BYTE   Bn5
 BYTE   W06
 BYTE   Cn6
 BYTE   W06
// 013   ----------------------------------------
 BYTE   W96
// 014   ----------------------------------------
 BYTE   W96
// 015   ----------------------------------------
 BYTE   W96
// 016   ----------------------------------------
 BYTE   W96
// 017   ----------------------------------------
Label_5_0128E2A6:
 BYTE   W24
 BYTE   N05  An3  v052
 BYTE   N05  An4
 BYTE   W06
 BYTE   Bn3
 BYTE   N05  Bn4
 BYTE   W06
 BYTE   Cn4
 BYTE   N05  Cn5
 BYTE   W06
 BYTE   Dn4
 BYTE   N05  Dn5
 BYTE   W06
 BYTE   En4
 BYTE   N05  En5
 BYTE   W48
 BYTE   PEND 
 BYTE   PATT
  POIN2 Label_5_0128E2A6
 BYTE   PATT
  POIN2 Label_5_0128E2A6
// 018   ----------------------------------------
 BYTE   W12
 BYTE   N05  Dn4  v052
 BYTE   N05  Dn5
 BYTE   W06
 BYTE   En4
 BYTE   N05  En5
 BYTE   W06
 BYTE   Gn4
 BYTE   N05  Gn5
 BYTE   W06
 BYTE   En4
 BYTE   N05  En5
 BYTE   W06
 BYTE   Dn4
 BYTE   N05  Dn5
 BYTE   W06
 BYTE   Bn3
 BYTE   N05  Bn4
 BYTE   W06
 BYTE   Gn3
 BYTE   N05  Gn4
 BYTE   W06
 BYTE   En3
 BYTE   N05  En4
 BYTE   W06
 BYTE   Gn3
 BYTE   N05  Gn4
 BYTE   W06
 BYTE   Bn3
 BYTE   N05  Bn4
 BYTE   W06
 BYTE   Dn4
 BYTE   N05  Dn5
 BYTE   W24
// 019   ----------------------------------------
Label_5_0128E2F7:
 BYTE   W24
 BYTE   N05  An4  v052
 BYTE   W06
 BYTE   Bn4
 BYTE   W06
 BYTE   Cn5
 BYTE   W06
 BYTE   Dn5
 BYTE   W06
 BYTE   An4
 BYTE   W06
 BYTE   Bn4
 BYTE   W06
 BYTE   Cn5
 BYTE   W06
 BYTE   Dn5
 BYTE   W06
 BYTE   En5
 BYTE   W06
 BYTE   Dn5
 BYTE   W06
 BYTE   Cn5
 BYTE   W06
 BYTE   Bn4
 BYTE   W06
 BYTE   PEND 
// 020   ----------------------------------------
 BYTE   An4
 BYTE   W96
 BYTE   PATT
  POIN2 Label_5_0128E2F7
// 021   ----------------------------------------
 BYTE   N05  An4  v052
 BYTE   W96
// 022   ----------------------------------------
Label_5_0128E31E:
 BYTE   W24
 BYTE   N05  An4  v052
 BYTE   W06
 BYTE   Bn4
 BYTE   W06
 BYTE   Cn5
 BYTE   W06
 BYTE   En5
 BYTE   W06
 BYTE   Dn5
 BYTE   W06
 BYTE   Cn5
 BYTE   W06
 BYTE   Bn4
 BYTE   W06
 BYTE   An4
 BYTE   W06
 BYTE   En4
 BYTE   W24
 BYTE   PEND 
 BYTE   PATT
  POIN2 Label_5_0128E31E
// 023   ----------------------------------------
 BYTE   W96
// 024   ----------------------------------------
 BYTE   W24
 BYTE   N05  Fn3  v052
 BYTE   N05  Fn4
 BYTE   W06
 BYTE   Gn3
 BYTE   N05  Gn4
 BYTE   W06
 BYTE   An3
 BYTE   N05  An4
 BYTE   W06
 BYTE   Bn3
 BYTE   N05  Bn4
 BYTE   W06
 BYTE   Cn4
 BYTE   N05  Cn5
 BYTE   W06
 BYTE   Dn4
 BYTE   N05  Dn5
 BYTE   W06
 BYTE   En4
 BYTE   N05  En5
 BYTE   W06
 BYTE   Fn4
 BYTE   N05  Fn5
 BYTE   W06
 BYTE   Gn4
 BYTE   N05  Gn5
 BYTE   W06
 BYTE   An4
 BYTE   N05  An5
 BYTE   W06
 BYTE   Bn4
 BYTE   N05  Bn5
 BYTE   W06
 BYTE   Cn5
 BYTE   N05  Cn6
 BYTE   W06
// 025   ----------------------------------------
Label_5_0128E36D:
 BYTE   N92  En3  v052
 BYTE   N11  Bn3
 BYTE   W12
 BYTE   Cn4
 BYTE   W12
 BYTE   En4
 BYTE   W12
 BYTE   Gn4
 BYTE   W24
 BYTE   N11
 BYTE   W12
 BYTE   Bn4
 BYTE   W12
 BYTE   Cn5
 BYTE   W12
 BYTE   PEND 
// 026   ----------------------------------------
 BYTE   N92  En3
 BYTE   W12
 BYTE   N11  Bn4
 BYTE   W12
 BYTE   Gn4
 BYTE   W12
 BYTE   Dn4
 BYTE   W24
 BYTE   Cn4
 BYTE   W12
 BYTE   Bn3
 BYTE   W12
 BYTE   Cn4
 BYTE   W12
 BYTE   PATT
  POIN2 Label_5_0128E36D
// 027   ----------------------------------------
 BYTE   N92  Dn3  v052
 BYTE   W12
 BYTE   N11  Bn4
 BYTE   W12
 BYTE   Gn4
 BYTE   W12
 BYTE   Dn4
 BYTE   W24
 BYTE   Cn4
 BYTE   W12
 BYTE   Bn3
 BYTE   W12
 BYTE   Cn4
 BYTE   W12
// 028   ----------------------------------------
 BYTE   N92  Cn3
 BYTE   N05  En5
 BYTE   W06
 BYTE   Fn5
 BYTE   W06
 BYTE   Cn5
 BYTE   W06
 BYTE   An4
 BYTE   W06
 BYTE   Dn4
 BYTE   W72
// 029   ----------------------------------------
 BYTE   N92  Dn3
 BYTE   W96
// 030   ----------------------------------------
 BYTE   TIE
 BYTE   W96
// 031   ----------------------------------------
 BYTE   W92
 BYTE   W03
 BYTE   EOT
 BYTE   W01
// 032   ----------------------------------------
 BYTE   N92  En3
 BYTE   W96
// 033   ----------------------------------------
 BYTE   N92
 BYTE   W96
// 034   ----------------------------------------
 BYTE   TIE
 BYTE   W96
// 035   ----------------------------------------
 BYTE   W92
 BYTE   W03
 BYTE   EOT
 BYTE   W01
// 036   ----------------------------------------
 BYTE   N92  Cn3
 BYTE   W96
// 037   ----------------------------------------
 BYTE   N92
 BYTE   W24
 BYTE   N05  An4
 BYTE   W06
 BYTE   Cn5
 BYTE   W06
 BYTE   Dn5
 BYTE   W06
 BYTE   Fn5
 BYTE   W06
 BYTE   An4
 BYTE   W06
 BYTE   Cn5
 BYTE   W06
 BYTE   Dn5
 BYTE   W06
 BYTE   Fn5
 BYTE   W06
 BYTE   An4
 BYTE   W06
 BYTE   Cn5
 BYTE   W06
 BYTE   Dn5
 BYTE   W06
 BYTE   Fn5
 BYTE   W06
// 038   ----------------------------------------
 BYTE   N92  Bn2
 BYTE   W24
 BYTE   N11  Dn3
 BYTE   W12
 BYTE   Fn3
 BYTE   W12
 BYTE   N05  Gs3
 BYTE   W06
 BYTE   Bn3
 BYTE   W06
 BYTE   Dn4
 BYTE   W06
 BYTE   Fn4
 BYTE   W06
 BYTE   Gs4
 BYTE   W06
 BYTE   Bn4
 BYTE   W06
 BYTE   Dn5
 BYTE   W06
 BYTE   Fn5
 BYTE   W06
// 039   ----------------------------------------
 BYTE   W96
// 040   ----------------------------------------
 BYTE   N92  Gn3  v064
 BYTE   W96
// 041   ----------------------------------------
 BYTE   Fn3
 BYTE   W96
// 042   ----------------------------------------
 BYTE   En3
 BYTE   W96
// 043   ----------------------------------------
 BYTE   N44  Dn3
 BYTE   W48
 BYTE   En3
 BYTE   W48
// 044   ----------------------------------------
 BYTE   N92  Gn3
 BYTE   W96
// 045   ----------------------------------------
 BYTE   En3
 BYTE   W96
// 046   ----------------------------------------
 BYTE   Bn3
 BYTE   W96
// 047   ----------------------------------------
 BYTE   Cn4
 BYTE   W96
// 048   ----------------------------------------
 BYTE   TIE  An3
 BYTE   W96
// 049   ----------------------------------------
 BYTE   W92
 BYTE   W03
 BYTE   EOT
 BYTE   W01
// 050   ----------------------------------------
 BYTE   N92  Bn3
 BYTE   W96
// 051   ----------------------------------------
 BYTE   Gn3
 BYTE   W96
// 052   ----------------------------------------
 BYTE   An3
 BYTE   W96
// 053   ----------------------------------------
 BYTE   Gs3
 BYTE   W96
// 054   ----------------------------------------
 BYTE   N32  Bn3
 BYTE   W36
 BYTE   TIE  An3
 BYTE   W60
// 055   ----------------------------------------
 BYTE   W68
 BYTE   W03
 BYTE   EOT
 BYTE   W24
 BYTE   W01
// 056   ----------------------------------------
 BYTE   W96
// 057   ----------------------------------------
 BYTE   W96
// 058   ----------------------------------------
 BYTE   W96
// 059   ----------------------------------------
 BYTE   W96
// 060   ----------------------------------------
 BYTE   W96
// 061   ----------------------------------------
 BYTE   W96
// 062   ----------------------------------------
 BYTE   W96
// 063   ----------------------------------------
 BYTE   W96
// 064   ----------------------------------------
 BYTE   W96
// 065   ----------------------------------------
 BYTE   W96
// 066   ----------------------------------------
 BYTE   W96
// 067   ----------------------------------------
 BYTE   W96
// 068   ----------------------------------------
 BYTE   W96
// 069   ----------------------------------------
 BYTE   W96
// 070   ----------------------------------------
 BYTE   W96
// 071   ----------------------------------------
 BYTE   W96
// 072   ----------------------------------------
 BYTE   W96
// 073   ----------------------------------------
 BYTE   W96
// 074   ----------------------------------------
 BYTE   W96
// 075   ----------------------------------------
 BYTE   W96
// 076   ----------------------------------------
 BYTE   W96
// 077   ----------------------------------------
 BYTE   W36
 BYTE   N11  Gn4  v052
 BYTE   W12
 BYTE   Cn4
 BYTE   W12
 BYTE   Bn3
 BYTE   W12
 BYTE   Cn4
 BYTE   W12
 BYTE   Dn4
 BYTE   W12
// 078   ----------------------------------------
 BYTE   W96
// 079   ----------------------------------------
 BYTE   W96
// 080   ----------------------------------------
 BYTE   W96
// 081   ----------------------------------------
 BYTE   W96
// 082   ----------------------------------------
 BYTE   W96
// 083   ----------------------------------------
 BYTE   W96
// 084   ----------------------------------------
 BYTE   W96
// 085   ----------------------------------------
 BYTE   W96
// 086   ----------------------------------------
 BYTE   W96
// 087   ----------------------------------------
 BYTE   W24
 BYTE   N05  Gs4
 BYTE   W06
 BYTE   Bn4
 BYTE   W06
 BYTE   Dn5
 BYTE   W06
 BYTE   Fn5
 BYTE   W06
 BYTE   Gs4
 BYTE   W06
 BYTE   Bn4
 BYTE   W06
 BYTE   Dn5
 BYTE   W06
 BYTE   Fn5
 BYTE   W06
 BYTE   Gs4
 BYTE   W06
 BYTE   Bn4
 BYTE   W06
 BYTE   Dn5
 BYTE   W06
 BYTE   Gs5
 BYTE   W06
// 088   ----------------------------------------
 BYTE   N32  Fn3  v064
 BYTE   N05  Bn4  v052
 BYTE   W06
 BYTE   Cn5
 BYTE   W06
 BYTE   Dn5
 BYTE   W06
 BYTE   En5
 BYTE   W06
 BYTE   Bn4
 BYTE   W06
 BYTE   Cn5
 BYTE   W06
 BYTE   N32  En3  v064
 BYTE   N05  Dn5  v052
 BYTE   W06
 BYTE   En5
 BYTE   W06
 BYTE   Cn5
 BYTE   W06
 BYTE   Dn5
 BYTE   W06
 BYTE   En5
 BYTE   W06
 BYTE   Fn5
 BYTE   W06
 BYTE   TIE  Gn3  v064
 BYTE   N05  An5  v052
 BYTE   W06
 BYTE   Gn5
 BYTE   W06
 BYTE   Fn5
 BYTE   W06
 BYTE   En5
 BYTE   W06
// 089   ----------------------------------------
Label_5_0128E4A4:
 BYTE   N05  Cn5  v052
 BYTE   W06
 BYTE   Dn5
 BYTE   W06
 BYTE   En5
 BYTE   W06
 BYTE   Fn5
 BYTE   W06
 BYTE   An5
 BYTE   W06
 BYTE   Gn5
 BYTE   W06
 BYTE   Fn5
 BYTE   W06
 BYTE   En5
 BYTE   W06
 BYTE   Cn5
 BYTE   W06
 BYTE   Dn5
 BYTE   W06
 BYTE   En5
 BYTE   W06
 BYTE   Fn5
 BYTE   W06
 BYTE   An5
 BYTE   W06
 BYTE   Gn5
 BYTE   W06
 BYTE   Fn5
 BYTE   W06
 BYTE   En5
 BYTE   W06
 BYTE   PEND 
 BYTE   PATT
  POIN2 Label_5_0128E4A4
// 090   ----------------------------------------
Label_5_0128E4CC:
 BYTE   N05  Cn5  v052
 BYTE   W06
 BYTE   Dn5
 BYTE   W06
 BYTE   En5
 BYTE   W06
 BYTE   Fn5
 BYTE   W06
 BYTE   An5
 BYTE   W06
 BYTE   Gn5
 BYTE   W06
 BYTE   Fn5
 BYTE   W06
 BYTE   En5
 BYTE   W06
 BYTE   Cn5
 BYTE   W06
 BYTE   Dn5
 BYTE   W06
 BYTE   En5
 BYTE   W06
 BYTE   Fn5
 BYTE   W06
 BYTE   An5
 BYTE   W06
 BYTE   Gn5
 BYTE   W06
 BYTE   Fn5
 BYTE   W06
 BYTE   En5
 BYTE   W05
 BYTE   PEND 
 BYTE   EOT
 BYTE   Gn3
 BYTE   W01
// 091   ----------------------------------------
 BYTE   N32  Fn3  v064
 BYTE   N05  Bn4  v052
 BYTE   W06
 BYTE   Cn5
 BYTE   W06
 BYTE   Dn5
 BYTE   W06
 BYTE   En5
 BYTE   W06
 BYTE   Bn4
 BYTE   W06
 BYTE   Cn5
 BYTE   W06
 BYTE   N32  En3  v064
 BYTE   N05  Dn5  v052
 BYTE   W06
 BYTE   En5
 BYTE   W06
 BYTE   Cn5
 BYTE   W06
 BYTE   Dn5
 BYTE   W06
 BYTE   En5
 BYTE   W06
 BYTE   Fn5
 BYTE   W06
 BYTE   TIE  En3  v064
 BYTE   N05  An5  v052
 BYTE   W06
 BYTE   Gn5
 BYTE   W06
 BYTE   Fn5
 BYTE   W06
 BYTE   En5
 BYTE   W06
 BYTE   PATT
  POIN2 Label_5_0128E4A4
 BYTE   PATT
  POIN2 Label_5_0128E4A4
 BYTE   PATT
  POIN2 Label_5_0128E4CC
// 092   ----------------------------------------
 BYTE   EOT
 BYTE   En3
 BYTE   W01
 BYTE   W96
// 093   ----------------------------------------
 BYTE   W96
// 094   ----------------------------------------
 BYTE   W96
// 095   ----------------------------------------
 BYTE   W96
// 096   ----------------------------------------
 BYTE   W96
// 097   ----------------------------------------
 BYTE   W96
// 098   ----------------------------------------
 BYTE   W24
 BYTE   N05  En5  v052
 BYTE   W06
 BYTE   Gs5
 BYTE   W06
 BYTE   Bn5
 BYTE   W12
 BYTE   En5
 BYTE   W06
 BYTE   Gs5
 BYTE   W06
 BYTE   Bn5
 BYTE   W12
 BYTE   En5
 BYTE   W06
 BYTE   Gs5
 BYTE   W06
 BYTE   Bn5
 BYTE   W12
// 099   ----------------------------------------
 BYTE   W96
// 100   ----------------------------------------
 BYTE   W96
// 101   ----------------------------------------
 BYTE   W96
// 102   ----------------------------------------
 BYTE   W96
// 103   ----------------------------------------
 BYTE   W96
// 104   ----------------------------------------
 BYTE   W96
// 105   ----------------------------------------
 BYTE   W96
// 106   ----------------------------------------
 BYTE   W96
// 107   ----------------------------------------
 BYTE   W96
// 108   ----------------------------------------
 BYTE   W96
// 109   ----------------------------------------
 BYTE   W96
// 110   ----------------------------------------
 BYTE   W96
// 111   ----------------------------------------
 BYTE   W96
// 112   ----------------------------------------
 BYTE   W96
// 113   ----------------------------------------
 BYTE   W96
// 114   ----------------------------------------
 BYTE   W96
// 115   ----------------------------------------
 BYTE   W96
// 116   ----------------------------------------
 BYTE   W96
// 117   ----------------------------------------
 BYTE   W96
// 118   ----------------------------------------
 BYTE   W96
// 119   ----------------------------------------
 BYTE   W96
// 120   ----------------------------------------
 BYTE   W96
// 121   ----------------------------------------
 BYTE   W96
// 122   ----------------------------------------
 BYTE   W96
// 123   ----------------------------------------
 BYTE   W96
// 124   ----------------------------------------
 BYTE   W48
 BYTE   N92  An3  v096
 BYTE   W48
// 125   ----------------------------------------
 BYTE   W48
 BYTE   N44  Bn3
 BYTE   W48
// 126   ----------------------------------------
 BYTE   Gn3
 BYTE   W48
 BYTE   N23  Dn3
 BYTE   W24
 BYTE   N11  Cn4
 BYTE   W12
 BYTE   N32  Dn4
 BYTE   W12
// 127   ----------------------------------------
 BYTE   W24
 BYTE   N23  Cn4
 BYTE   W72
// 128   ----------------------------------------
 BYTE   N44  Fn3
 BYTE   W48
 BYTE   En3
 BYTE   W48
// 129   ----------------------------------------
 BYTE   N92  Fn3
 BYTE   W96
// 130   ----------------------------------------
 BYTE   An3
 BYTE   W96
// 131   ----------------------------------------
 BYTE   Gs3
 BYTE   W96
// 132   ----------------------------------------
 BYTE   As3  v064
 BYTE   W96
// 133   ----------------------------------------
 BYTE   An3
 BYTE   W96
// 134   ----------------------------------------
 BYTE   W96
// 135   ----------------------------------------
 BYTE   W96
// 136   ----------------------------------------
 BYTE   W96
// 137   ----------------------------------------
 BYTE   W96
// 138   ----------------------------------------
 BYTE   W96
// 139   ----------------------------------------
 BYTE   W96
// 140   ----------------------------------------
 BYTE   W96
// 141   ----------------------------------------
 BYTE   W96
// 142   ----------------------------------------
 BYTE   W96
// 143   ----------------------------------------
 BYTE   W96
// 144   ----------------------------------------
 BYTE   W96
// 145   ----------------------------------------
 BYTE   W96
// 146   ----------------------------------------
 BYTE   W96
// 147   ----------------------------------------
 BYTE   W96
// 148   ----------------------------------------
 BYTE   W96
// 149   ----------------------------------------
 BYTE   W96
// 150   ----------------------------------------
 BYTE   BEND   c_v+31
 BYTE   N44  Dn1  v112
 BYTE   W01
 BYTE   BEND   c_v+30
 BYTE   W01
 BYTE   As5
 BYTE   W01
 BYTE   An5
 BYTE   W01
 BYTE   Gs5
 BYTE   W01
 BYTE   Gs5
 BYTE   W01
 BYTE   Gn5
 BYTE   W01
 BYTE   Gn5
 BYTE   W01
 BYTE   Fs5
 BYTE   W01
 BYTE   Fn5
 BYTE   W01
 BYTE   Fn5
 BYTE   W01
 BYTE   En5
 BYTE   W01
 BYTE   Ds5
 BYTE   W01
 BYTE   Dn5
 BYTE   W01
 BYTE   Dn5
 BYTE   W01
 BYTE   Cs5
 BYTE   W01
 BYTE   Cn5
 BYTE   W01
 BYTE   Cn5
 BYTE   W01
 BYTE   Bn4
 BYTE   W01
 BYTE   Bn4
 BYTE   W01
 BYTE   As4
 BYTE   W01
 BYTE   An4
 BYTE   W01
 BYTE   An4
 BYTE   W01
 BYTE   Gs4
 BYTE   W01
 BYTE   Gn4
 BYTE   W01
 BYTE   Fs4
 BYTE   W01
 BYTE   Fs4
 BYTE   W01
 BYTE   Fn4
 BYTE   W01
 BYTE   En4
 BYTE   W01
 BYTE   En4
 BYTE   W01
 BYTE   Ds4
 BYTE   W01
 BYTE   Ds4
 BYTE   W01
 BYTE   Dn4
 BYTE   W01
 BYTE   Cs4
 BYTE   W01
 BYTE   Cs4
 BYTE   W01
 BYTE   Cn4
 BYTE   W01
 BYTE   Bn3
 BYTE   W01
 BYTE   As3
 BYTE   W01
 BYTE   As3
 BYTE   W01
 BYTE   An3
 BYTE   W01
 BYTE   Gs3
 BYTE   W01
 BYTE   Gs3
 BYTE   W01
 BYTE   Gn3
 BYTE   W01
 BYTE   Gn3
 BYTE   W01
 BYTE   Fs3
 BYTE   W01
 BYTE   Fn3
 BYTE   W01
 BYTE   Fn3
 BYTE   W01
 BYTE   En3
 BYTE   W01
 BYTE   En3
 BYTE   W48
// 151   ----------------------------------------
 BYTE   W96
// 152   ----------------------------------------
 BYTE   W96
// 153   ----------------------------------------
 BYTE   W96
// 154   ----------------------------------------
 BYTE   W96
// 155   ----------------------------------------
 BYTE   W96
// 156   ----------------------------------------
 BYTE   W96
// 157   ----------------------------------------
 BYTE   W96
// 158   ----------------------------------------
 BYTE   W96
// 159   ----------------------------------------
 BYTE   W96
// 160   ----------------------------------------
 BYTE   W96
// 161   ----------------------------------------
 BYTE   W96
// 162   ----------------------------------------
 BYTE   W96
// 163   ----------------------------------------
 BYTE   W96
// 164   ----------------------------------------
 BYTE   W96
// 165   ----------------------------------------
 BYTE   W96
// 166   ----------------------------------------
 BYTE   W48
 BYTE   N44  Cs3  v080
 BYTE   W48
// 167   ----------------------------------------
 BYTE   N32  Cn3
 BYTE   W36
 BYTE   Cs3
 BYTE   W36
 BYTE   N23  Ds3
 BYTE   W24
// 168   ----------------------------------------
 BYTE   N44  Fn3
 BYTE   W48
 BYTE   Gs3
 BYTE   W48
// 169   ----------------------------------------
 BYTE   N32  Ds3
 BYTE   W36
 BYTE   Cs3
 BYTE   W36
 BYTE   N23  Cn3
 BYTE   W24
// 170   ----------------------------------------
 BYTE   W48
 BYTE   N44  Cs3
 BYTE   W48
// 171   ----------------------------------------
 BYTE   N32
 BYTE   W36
 BYTE   Ds3
 BYTE   W36
 BYTE   N23  Cs3
 BYTE   W24
// 172   ----------------------------------------
 BYTE   TIE  Cn3
 BYTE   W96
// 173   ----------------------------------------
 BYTE   W92
 BYTE   W03
 BYTE   EOT
 BYTE   W01
// 174   ----------------------------------------
 BYTE   N92
 BYTE   W96
// 175   ----------------------------------------
 BYTE   Bn2
 BYTE   W92
 BYTE   W03
 BYTE   BEND   c_v+0
 BYTE   W01
// 176   ----------------------------------------
 BYTE   GoTo
  POIN2 Label_5_0128E1FA
 BYTE   FINE

//**************** Track 7 (Midi-Chn.6) ****************//

FE16TheApexoftheWorldRainMrGreen3339_007:
// 000   ----------------------------------------
 BYTE   KEYSH   FE16TheApexoftheWorldRainMrGreen3339_key+0
Label_6_0128E652:
 BYTE   VOICE   127
 BYTE   VOL   43*FE16TheApexoftheWorldRainMrGreen3339_mvl/mxv
 BYTE   PAN   c_v+14
 BYTE   VOL   51*FE16TheApexoftheWorldRainMrGreen3339_mvl/mxv
 BYTE   PAN   c_v+0
 BYTE   VOL   51*FE16TheApexoftheWorldRainMrGreen3339_mvl/mxv
 BYTE   PAN   c_v+0
 BYTE   VOL   51*FE16TheApexoftheWorldRainMrGreen3339_mvl/mxv
 BYTE   PAN   c_v+0
 BYTE   VOL   51*FE16TheApexoftheWorldRainMrGreen3339_mvl/mxv
 BYTE   PAN   c_v+0
 BYTE   W48
 BYTE   W96
// 001   ----------------------------------------
 BYTE   W96
// 002   ----------------------------------------
 BYTE   W96
// 003   ----------------------------------------
 BYTE   W96
// 004   ----------------------------------------
 BYTE   W96
// 005   ----------------------------------------
 BYTE   W96
// 006   ----------------------------------------
 BYTE   W96
// 007   ----------------------------------------
 BYTE   W96
// 008   ----------------------------------------
Label_6_0128E671:
 BYTE   N23  An2  v064
 BYTE   W24
 BYTE   N23
 BYTE   W24
 BYTE   N23
 BYTE   W24
 BYTE   N23
 BYTE   W24
 BYTE   PEND 
// 009   ----------------------------------------
Label_6_0128E67C:
 BYTE   N23  An2  v064
 BYTE   W24
 BYTE   N23
 BYTE   W24
 BYTE   N23
 BYTE   W48
 BYTE   PEND 
 BYTE   PATT
  POIN2 Label_6_0128E671
 BYTE   PATT
  POIN2 Label_6_0128E67C
 BYTE   PATT
  POIN2 Label_6_0128E671
 BYTE   PATT
  POIN2 Label_6_0128E671
 BYTE   PATT
  POIN2 Label_6_0128E671
 BYTE   PATT
  POIN2 Label_6_0128E67C
 BYTE   PATT
  POIN2 Label_6_0128E671
 BYTE   PATT
  POIN2 Label_6_0128E67C
 BYTE   PATT
  POIN2 Label_6_0128E671
 BYTE   PATT
  POIN2 Label_6_0128E67C
 BYTE   PATT
  POIN2 Label_6_0128E671
 BYTE   PATT
  POIN2 Label_6_0128E671
 BYTE   PATT
  POIN2 Label_6_0128E671
 BYTE   PATT
  POIN2 Label_6_0128E67C
 BYTE   PATT
  POIN2 Label_6_0128E671
 BYTE   PATT
  POIN2 Label_6_0128E671
 BYTE   PATT
  POIN2 Label_6_0128E671
// 010   ----------------------------------------
 BYTE   N23  An2  v064
 BYTE   W96
 BYTE   PATT
  POIN2 Label_6_0128E671
 BYTE   PATT
  POIN2 Label_6_0128E671
 BYTE   PATT
  POIN2 Label_6_0128E671
// 011   ----------------------------------------
 BYTE   N23  An2  v064
 BYTE   W96
// 012   ----------------------------------------
 BYTE   N92  An2  v052
 BYTE   W96
// 013   ----------------------------------------
 BYTE   Gn2
 BYTE   W96
// 014   ----------------------------------------
 BYTE   TIE  Fn2
 BYTE   W96
// 015   ----------------------------------------
 BYTE   W92
 BYTE   W03
 BYTE   EOT
 BYTE   W01
// 016   ----------------------------------------
 BYTE   N92
 BYTE   W96
// 017   ----------------------------------------
 BYTE   Gn2
 BYTE   W96
// 018   ----------------------------------------
 BYTE   TIE
 BYTE   W96
// 019   ----------------------------------------
 BYTE   W92
 BYTE   W03
 BYTE   EOT
 BYTE   W01
// 020   ----------------------------------------
 BYTE   N92  An2
 BYTE   W96
// 021   ----------------------------------------
 BYTE   Gn2
 BYTE   W96
// 022   ----------------------------------------
 BYTE   TIE  Fn2
 BYTE   W96
// 023   ----------------------------------------
 BYTE   W92
 BYTE   W03
 BYTE   EOT
 BYTE   W01
// 024   ----------------------------------------
 BYTE   N92
 BYTE   W96
// 025   ----------------------------------------
 BYTE   Gn2
 BYTE   W96
// 026   ----------------------------------------
 BYTE   Gs2
 BYTE   W96
// 027   ----------------------------------------
 BYTE   W96
// 028   ----------------------------------------
 BYTE   W96
// 029   ----------------------------------------
 BYTE   W96
// 030   ----------------------------------------
 BYTE   W96
// 031   ----------------------------------------
 BYTE   W96
// 032   ----------------------------------------
 BYTE   Bn2  v064
 BYTE   W96
// 033   ----------------------------------------
 BYTE   Cn3
 BYTE   W96
// 034   ----------------------------------------
 BYTE   Dn3
 BYTE   W96
// 035   ----------------------------------------
 BYTE   Gn3
 BYTE   W96
// 036   ----------------------------------------
 BYTE   Dn3
 BYTE   W96
// 037   ----------------------------------------
 BYTE   En3
 BYTE   W96
// 038   ----------------------------------------
 BYTE   N92
 BYTE   W96
// 039   ----------------------------------------
 BYTE   Dn3
 BYTE   W96
// 040   ----------------------------------------
 BYTE   An2
 BYTE   W96
// 041   ----------------------------------------
 BYTE   Gs2
 BYTE   W96
// 042   ----------------------------------------
 BYTE   N32  Bn2
 BYTE   W36
 BYTE   TIE  An2
 BYTE   W60
// 043   ----------------------------------------
 BYTE   W68
 BYTE   W03
 BYTE   EOT
 BYTE   W24
 BYTE   W01
// 044   ----------------------------------------
 BYTE   W96
// 045   ----------------------------------------
 BYTE   W96
// 046   ----------------------------------------
 BYTE   W96
// 047   ----------------------------------------
 BYTE   W96
// 048   ----------------------------------------
 BYTE   W96
// 049   ----------------------------------------
 BYTE   W96
// 050   ----------------------------------------
 BYTE   W96
// 051   ----------------------------------------
 BYTE   W96
// 052   ----------------------------------------
 BYTE   W96
// 053   ----------------------------------------
 BYTE   W96
// 054   ----------------------------------------
 BYTE   W96
// 055   ----------------------------------------
 BYTE   W96
// 056   ----------------------------------------
 BYTE   W96
// 057   ----------------------------------------
 BYTE   W96
// 058   ----------------------------------------
 BYTE   W96
// 059   ----------------------------------------
 BYTE   W96
// 060   ----------------------------------------
 BYTE   W96
// 061   ----------------------------------------
 BYTE   W72
 BYTE   N23  En1  v080
 BYTE   W24
// 062   ----------------------------------------
 BYTE   N92  An1  v052
 BYTE   W96
// 063   ----------------------------------------
 BYTE   W96
// 064   ----------------------------------------
 BYTE   N32  Fn1
 BYTE   W36
 BYTE   N11
 BYTE   W36
 BYTE   N32
 BYTE   W24
// 065   ----------------------------------------
 BYTE   W12
 BYTE   N11
 BYTE   W36
 BYTE   N44  Gn1  v080
 BYTE   W48
// 066   ----------------------------------------
 BYTE   N32  An1  v052
 BYTE   W36
 BYTE   N11
 BYTE   W36
 BYTE   TIE
 BYTE   W24
// 067   ----------------------------------------
 BYTE   W04
 BYTE   W05
 BYTE   W05
 BYTE   W05
 BYTE   W05
 BYTE   W04
 BYTE   W05
 BYTE   W05
 BYTE   W05
 BYTE   W05
 BYTE   W04
 BYTE   W05
 BYTE   W05
 BYTE   W05
 BYTE   W28
 BYTE   EOT
 BYTE   W01
// 068   ----------------------------------------
 BYTE   TIE  Dn1
 BYTE   W96
// 069   ----------------------------------------
 BYTE   W44
 BYTE   W03
 BYTE   EOT
 BYTE   W01
 BYTE   N44  En1
 BYTE   W48
// 070   ----------------------------------------
 BYTE   TIE  An1
 BYTE   W96
// 071   ----------------------------------------
 BYTE   W44
 BYTE   W03
 BYTE   EOT
 BYTE   W01
 BYTE   N11  Gn1
 BYTE   W12
 BYTE   Fn1
 BYTE   W12
 BYTE   N23  En1
 BYTE   W24
// 072   ----------------------------------------
 BYTE   TIE  Dn1
 BYTE   W96
// 073   ----------------------------------------
 BYTE   W44
 BYTE   W03
 BYTE   EOT
 BYTE   W01
 BYTE   N44
 BYTE   W48
// 074   ----------------------------------------
 BYTE   TIE  En1
 BYTE   W96
// 075   ----------------------------------------
 BYTE   W05
 BYTE   W03
 BYTE   W02
 BYTE   W03
 BYTE   W03
 BYTE   W02
 BYTE   W03
 BYTE   W03
 BYTE   W03
 BYTE   W02
 BYTE   W03
 BYTE   W03
 BYTE   W02
 BYTE   W03
 BYTE   W03
 BYTE   W02
 BYTE   W03
 BYTE   W03
 BYTE   W03
 BYTE   W02
 BYTE   W03
 BYTE   W03
 BYTE   W02
 BYTE   W03
 BYTE   W03
 BYTE   W02
 BYTE   W03
 BYTE   W03
 BYTE   W03
 BYTE   W02
 BYTE   W12
 BYTE   EOT
 BYTE   W01
// 076   ----------------------------------------
 BYTE   N32  Dn1  v080
 BYTE   N32  Cn3  v064
 BYTE   W36
 BYTE   En1  v080
 BYTE   N32  Dn3  v064
 BYTE   W36
 BYTE   TIE  An1  v080
 BYTE   N68  Cn3  v064
 BYTE   W24
// 077   ----------------------------------------
 BYTE   W48
 BYTE   N44  Bn2
 BYTE   W48
// 078   ----------------------------------------
 BYTE   N11  Gn2
 BYTE   W12
 BYTE   Bn2
 BYTE   W12
 BYTE   Dn3
 BYTE   W12
 BYTE   Bn2
 BYTE   W12
 BYTE   Gn2
 BYTE   W12
 BYTE   Bn2
 BYTE   W12
 BYTE   Dn3
 BYTE   W12
 BYTE   Bn2
 BYTE   W12
// 079   ----------------------------------------
Label_6_0128E7F0:
 BYTE   N11  Gn2  v064
 BYTE   W12
 BYTE   Bn2
 BYTE   W12
 BYTE   Dn3
 BYTE   W12
 BYTE   Bn2
 BYTE   W12
 BYTE   Gn2
 BYTE   W12
 BYTE   Bn2
 BYTE   W12
 BYTE   Dn3
 BYTE   W12
 BYTE   Bn2
 BYTE   W11
 BYTE   PEND 
 BYTE   EOT
 BYTE   An1
 BYTE   W01
// 080   ----------------------------------------
 BYTE   N32  Dn1  v080
 BYTE   N32  Cn3  v064
 BYTE   W36
 BYTE   En1  v080
 BYTE   N32  Dn3  v064
 BYTE   W36
 BYTE   TIE  An1  v080
 BYTE   TIE  Bn2  v064
 BYTE   W24
// 081   ----------------------------------------
 BYTE   W92
 BYTE   W03
 BYTE   EOT
 BYTE   W01
// 082   ----------------------------------------
 BYTE   N23  Dn3
 BYTE   W48
 BYTE   N11  Gn2
 BYTE   W12
 BYTE   Bn2
 BYTE   W12
 BYTE   Dn3
 BYTE   W12
 BYTE   Bn2
 BYTE   W12
 BYTE   PATT
  POIN2 Label_6_0128E7F0
// 083   ----------------------------------------
 BYTE   EOT
 BYTE   An1
 BYTE   W01
 BYTE   N32  Dn1  v080
 BYTE   N32  Cn4  v064
 BYTE   W36
 BYTE   En1  v080
 BYTE   N32  Bn3  v064
 BYTE   W36
 BYTE   TIE  An1  v080
 BYTE   TIE  En3  v064
 BYTE   W24
// 084   ----------------------------------------
 BYTE   W92
 BYTE   W03
 BYTE   EOT
 BYTE   An1  v064
 BYTE   W01
// 085   ----------------------------------------
 BYTE   TIE  An1  v080
 BYTE   W24
 BYTE   N23  Cn4  v064
 BYTE   W24
 BYTE   Bn3
 BYTE   W24
 BYTE   N68  En3
 BYTE   W24
// 086   ----------------------------------------
 BYTE   W48
 BYTE   N44  Dn3
 BYTE   W44
 BYTE   W03
 BYTE   EOT
 BYTE   An1
 BYTE   W01
// 087   ----------------------------------------
 BYTE   N32  Dn1  v080
 BYTE   N23  Dn3  v064
 BYTE   W24
 BYTE   N11  En3
 BYTE   W12
 BYTE   N32  Dn1  v080
 BYTE   N23  En3  v064
 BYTE   W24
 BYTE   N11  Fn3
 BYTE   W12
 BYTE   TIE  En1  v080
 BYTE   TIE  En3  v064
 BYTE   W24
// 088   ----------------------------------------
 BYTE   W92
 BYTE   W03
 BYTE   EOT
 BYTE   W01
// 089   ----------------------------------------
 BYTE   W92
 BYTE   W03
 BYTE   En1
 BYTE   W01
// 090   ----------------------------------------
 BYTE   W96
// 091   ----------------------------------------
 BYTE   N92  Fn1  v096
 BYTE   N32  En3  v080
 BYTE   W36
 BYTE   N11
 BYTE   W24
 BYTE   N32  Cn3
 BYTE   W36
// 092   ----------------------------------------
 BYTE   N92  Gn1  v096
 BYTE   N32  Cn3  v080
 BYTE   W36
 BYTE   Dn3
 BYTE   W36
 BYTE   N23  Bn2
 BYTE   W24
// 093   ----------------------------------------
 BYTE   N92  An1  v096
 BYTE   N32  Gn3  v080
 BYTE   W36
 BYTE   N11  En3
 BYTE   W24
 BYTE   N32
 BYTE   W36
// 094   ----------------------------------------
 BYTE   N92  En1  v096
 BYTE   N32  Dn3  v080
 BYTE   W36
 BYTE   Cn3
 BYTE   W36
 BYTE   N23  Bn2
 BYTE   W24
// 095   ----------------------------------------
 BYTE   N92  Dn1  v096
 BYTE   N44  An2  v080
 BYTE   W48
 BYTE   N23  Gn3
 BYTE   W24
 BYTE   Fn3
 BYTE   W24
// 096   ----------------------------------------
 BYTE   N44  En1  v096
 BYTE   N44  Dn3  v080
 BYTE   W48
 BYTE   Gs1  v096
 BYTE   N44  Gs3  v080
 BYTE   W48
// 097   ----------------------------------------
 BYTE   N92  An1  v096
 BYTE   N32  Bn3  v080
 BYTE   W36
 BYTE   N56  An3
 BYTE   W60
// 098   ----------------------------------------
 BYTE   N32  Gn1  v096
 BYTE   N32  Gn3  v080
 BYTE   W36
 BYTE   Gn1  v096
 BYTE   N32  Fn3  v080
 BYTE   W36
 BYTE   N23  Fs1  v096
 BYTE   N23  En3  v080
 BYTE   W24
// 099   ----------------------------------------
 BYTE   N92  Fn1  v096
 BYTE   N23  En3  v080
 BYTE   W24
 BYTE   Fn3
 BYTE   W24
 BYTE   N32  An3
 BYTE   W36
 BYTE   N44  Gn3
 BYTE   W12
// 100   ----------------------------------------
 BYTE   N92  Gn1  v096
 BYTE   W36
 BYTE   N32  Dn3  v080
 BYTE   W36
 BYTE   N23  Gn3
 BYTE   W24
// 101   ----------------------------------------
 BYTE   N92  En1  v096
 BYTE   N32  Dn3  v080
 BYTE   W36
 BYTE   N56  Bn3
 BYTE   W60
// 102   ----------------------------------------
 BYTE   N44  An1  v096
 BYTE   N23  Bn3  v080
 BYTE   W24
 BYTE   Cn4
 BYTE   W24
 BYTE   Bn1  v096
 BYTE   N44  Gn3  v080
 BYTE   W24
 BYTE   N11  An1  v096
 BYTE   W12
 BYTE   Gn1
 BYTE   W12
// 103   ----------------------------------------
 BYTE   N92  Dn1
 BYTE   N44  Fn3  v080
 BYTE   W48
 BYTE   An3
 BYTE   W48
// 104   ----------------------------------------
 BYTE   N92  En1  v096
 BYTE   N44  Gs3  v080
 BYTE   W48
 BYTE   En3
 BYTE   W48
// 105   ----------------------------------------
 BYTE   TIE  An1  v096
 BYTE   N32  Dn3  v080
 BYTE   W36
 BYTE   Cn3
 BYTE   W36
 BYTE   N23
 BYTE   W24
// 106   ----------------------------------------
 BYTE   N32  Bn2
 BYTE   W36
 BYTE   N56  An2
 BYTE   W56
 BYTE   W03
 BYTE   EOT
 BYTE   An1
 BYTE   W01
// 107   ----------------------------------------
 BYTE   N92  Fn1  v096
 BYTE   N68  Gn4  v112
 BYTE   W72
 BYTE   N11  Fn4
 BYTE   W12
 BYTE   N80  En4
 BYTE   W12
// 108   ----------------------------------------
 BYTE   N92  Gn1  v096
 BYTE   W72
 BYTE   N23  Fn4  v112
 BYTE   W24
// 109   ----------------------------------------
 BYTE   N92  An1  v096
 BYTE   N23  En4  v112
 BYTE   W24
 BYTE   N44  Dn4
 BYTE   W48
 BYTE   N23  En4
 BYTE   W24
// 110   ----------------------------------------
 BYTE   N92  En1  v096
 BYTE   N23  Fn4  v112
 BYTE   W24
 BYTE   En4
 BYTE   W24
 BYTE   Dn4
 BYTE   W24
 BYTE   Cn4
 BYTE   W24
// 111   ----------------------------------------
 BYTE   N92  Fn1  v096
 BYTE   N23  Dn4  v112
 BYTE   W24
 BYTE   N11  En4
 BYTE   W12
 BYTE   TIE
 BYTE   W60
// 112   ----------------------------------------
 BYTE   N44  Gn1  v096
 BYTE   W44
 BYTE   W03
 BYTE   EOT
 BYTE   En4
 BYTE   W01
 BYTE   N44  Gs1
 BYTE   N44  Bn3  v112
 BYTE   W48
// 113   ----------------------------------------
 BYTE   N92  An1  v096
 BYTE   N23  Bn3  v112
 BYTE   W24
 BYTE   Cn4
 BYTE   W24
 BYTE   Bn3
 BYTE   W24
 BYTE   N92  Cn4
 BYTE   W24
// 114   ----------------------------------------
 BYTE   N44  Gn1  v096
 BYTE   W48
 BYTE   Fs1
 BYTE   W24
 BYTE   N11  An3  v112
 BYTE   W12
 BYTE   Bn3
 BYTE   W12
// 115   ----------------------------------------
 BYTE   N92  Fn0  v064
 BYTE   N92  Fn1
 BYTE   N56  Cn4  v112
 BYTE   W60
 BYTE   N11  Bn3
 BYTE   W12
 BYTE   An3
 BYTE   W12
 BYTE   Gn3
 BYTE   W12
// 116   ----------------------------------------
 BYTE   N92  Gn0  v064
 BYTE   N92  Gn1
 BYTE   N68  An3  v112
 BYTE   W72
 BYTE   N11
 BYTE   W12
 BYTE   Bn3
 BYTE   W12
// 117   ----------------------------------------
 BYTE   N92  En0  v064
 BYTE   N92  En1
 BYTE   N56  Cn4  v112
 BYTE   W60
 BYTE   N11  Bn3
 BYTE   W12
 BYTE   Cn4
 BYTE   W12
 BYTE   N32  Dn4
 BYTE   W12
// 118   ----------------------------------------
 BYTE   N92  An0  v064
 BYTE   N92  An1
 BYTE   W24
 BYTE   N23  Cn4  v112
 BYTE   W48
 BYTE   N11  An3
 BYTE   W12
 BYTE   Bn3
 BYTE   W12
// 119   ----------------------------------------
 BYTE   N92  Dn0  v064
 BYTE   N92  Dn1
 BYTE   N56  Cn4  v112
 BYTE   W60
 BYTE   N23  An3
 BYTE   W24
 BYTE   N11  Bn3
 BYTE   W12
// 120   ----------------------------------------
 BYTE   N92  Dn0  v064
 BYTE   N92  Dn1
 BYTE   N23  Cn4  v112
 BYTE   W24
 BYTE   Dn4
 BYTE   W24
 BYTE   En4
 BYTE   W24
 BYTE   N11  Fn4
 BYTE   W12
 BYTE   TIE  En4
 BYTE   W12
// 121   ----------------------------------------
 BYTE   En0  v064
 BYTE   TIE  En1
 BYTE   N92  Dn3  v080
 BYTE   W96
// 122   ----------------------------------------
 BYTE   N92
 BYTE   W92
 BYTE   W03
 BYTE   EOT
 BYTE   En0  v040
 BYTE   En4
 BYTE   W01
// 123   ----------------------------------------
 BYTE   N92  Fn1  v064
 BYTE   N92  Cs3
 BYTE   W96
// 124   ----------------------------------------
 BYTE   Fn1
 BYTE   N92  Cs3
 BYTE   W96
// 125   ----------------------------------------
 BYTE   W96
// 126   ----------------------------------------
 BYTE   W96
// 127   ----------------------------------------
 BYTE   W96
// 128   ----------------------------------------
 BYTE   W96
// 129   ----------------------------------------
 BYTE   W96
// 130   ----------------------------------------
 BYTE   W96
// 131   ----------------------------------------
 BYTE   W96
// 132   ----------------------------------------
 BYTE   W96
// 133   ----------------------------------------
 BYTE   Fs1  v080
 BYTE   W96
// 134   ----------------------------------------
 BYTE   Gs1
 BYTE   W96
// 135   ----------------------------------------
 BYTE   As1
 BYTE   W96
// 136   ----------------------------------------
 BYTE   Fn1
 BYTE   W96
// 137   ----------------------------------------
 BYTE   Ds1
 BYTE   W96
// 138   ----------------------------------------
 BYTE   TIE  Fn1
 BYTE   W96
// 139   ----------------------------------------
 BYTE   W92
 BYTE   W03
 BYTE   EOT
 BYTE   W01
// 140   ----------------------------------------
 BYTE   W96
// 141   ----------------------------------------
 BYTE   W48
 BYTE   N44  Fs1
 BYTE   N44  Cs3
 BYTE   W48
// 142   ----------------------------------------
 BYTE   N32  Gs1
 BYTE   N32  Cs3
 BYTE   W36
 BYTE   N11  Gs1
 BYTE   N32  Ds3
 BYTE   W24
 BYTE   Gs1
 BYTE   W12
 BYTE   N23  Cn3
 BYTE   W24
// 143   ----------------------------------------
 BYTE   N92  As1
 BYTE   N32  Gs3
 BYTE   W36
 BYTE   N11  Fn3
 BYTE   W24
 BYTE   N32
 BYTE   W36
// 144   ----------------------------------------
 BYTE   N92  Fn1
 BYTE   N32  Ds3
 BYTE   W36
 BYTE   Cs3
 BYTE   W36
 BYTE   N23  Cn3
 BYTE   W24
// 145   ----------------------------------------
 BYTE   N92  Ds1
 BYTE   N44  As2
 BYTE   W48
 BYTE   N23  Gs3
 BYTE   W24
 BYTE   Fs3
 BYTE   W24
// 146   ----------------------------------------
 BYTE   N44  Fn1
 BYTE   N44  Ds3
 BYTE   W48
 BYTE   An1
 BYTE   N44  An3
 BYTE   W48
// 147   ----------------------------------------
 BYTE   N92  As1
 BYTE   N32  Cn4
 BYTE   W36
 BYTE   N56  As3
 BYTE   W60
// 148   ----------------------------------------
 BYTE   N32  Gs1
 BYTE   N32  Gs3
 BYTE   W36
 BYTE   Gs1
 BYTE   N32  Fs3
 BYTE   W36
 BYTE   N23  Gn1
 BYTE   N23  Fn3
 BYTE   W24
// 149   ----------------------------------------
 BYTE   N92  Fs1
 BYTE   N23  Fn3
 BYTE   W24
 BYTE   Fs3
 BYTE   W24
 BYTE   N32  As3
 BYTE   W36
 BYTE   N44  Gs3
 BYTE   W12
// 150   ----------------------------------------
 BYTE   N92  Gs1
 BYTE   W36
 BYTE   N32  Ds3
 BYTE   W36
 BYTE   N23  Gs3
 BYTE   W24
// 151   ----------------------------------------
 BYTE   N92  Fn1
 BYTE   N32  Ds3
 BYTE   W36
 BYTE   N56  Cn4
 BYTE   W60
// 152   ----------------------------------------
 BYTE   N44  As1
 BYTE   N23  Cn4
 BYTE   W24
 BYTE   Cs4
 BYTE   W24
 BYTE   Cn2
 BYTE   N44  Gs3
 BYTE   W24
 BYTE   N11  As1
 BYTE   W12
 BYTE   Gs1
 BYTE   W12
// 153   ----------------------------------------
 BYTE   N92  Ds1
 BYTE   N44  Fs3
 BYTE   W48
 BYTE   As3
 BYTE   W48
// 154   ----------------------------------------
 BYTE   N92  Fn1
 BYTE   N44  An3
 BYTE   W48
 BYTE   Fn3
 BYTE   W48
// 155   ----------------------------------------
 BYTE   TIE  As1
 BYTE   N32  Ds3
 BYTE   W36
 BYTE   Cs3
 BYTE   W36
 BYTE   N23
 BYTE   W24
// 156   ----------------------------------------
 BYTE   N32  Cn3
 BYTE   W36
 BYTE   N56  As2
 BYTE   W56
 BYTE   W03
 BYTE   EOT
 BYTE   As1
 BYTE   W01
// 157   ----------------------------------------
Label_6_0128EAE3:
 BYTE   N11  Ds1  v116
 BYTE   W03
 BYTE   W01
 BYTE   W01
 BYTE   W19
 BYTE   N11
 BYTE   W03
 BYTE   W01
 BYTE   W01
 BYTE   W19
 BYTE   N11
 BYTE   W03
 BYTE   W01
 BYTE   W01
 BYTE   W19
 BYTE   N11
 BYTE   W03
 BYTE   W01
 BYTE   W01
 BYTE   W19
 BYTE   PEND 
// 158   ----------------------------------------
Label_6_0128EAFA:
 BYTE   N11  Fn1  v116
 BYTE   W03
 BYTE   W01
 BYTE   W01
 BYTE   W19
 BYTE   N11
 BYTE   W03
 BYTE   W01
 BYTE   W01
 BYTE   W19
 BYTE   N11
 BYTE   W03
 BYTE   W01
 BYTE   W01
 BYTE   W19
 BYTE   N11
 BYTE   W03
 BYTE   W01
 BYTE   W01
 BYTE   W19
 BYTE   PEND 
// 159   ----------------------------------------
 BYTE   Fs1
 BYTE   W03
 BYTE   W01
 BYTE   W01
 BYTE   W19
 BYTE   N11
 BYTE   W03
 BYTE   W01
 BYTE   W01
 BYTE   W19
 BYTE   N11
 BYTE   W03
 BYTE   W01
 BYTE   W01
 BYTE   W19
 BYTE   N11
 BYTE   W03
 BYTE   W01
 BYTE   W01
 BYTE   W19
 BYTE   PATT
  POIN2 Label_6_0128EAFA
 BYTE   PATT
  POIN2 Label_6_0128EAE3
 BYTE   PATT
  POIN2 Label_6_0128EAE3
 BYTE   PATT
  POIN2 Label_6_0128EAFA
 BYTE   PATT
  POIN2 Label_6_0128EAFA
// 160   ----------------------------------------
Label_6_0128EB3E:
 BYTE   N11  Gn1  v116
 BYTE   W03
 BYTE   W01
 BYTE   W01
 BYTE   W19
 BYTE   N11
 BYTE   W03
 BYTE   W01
 BYTE   W01
 BYTE   W19
 BYTE   N11
 BYTE   W03
 BYTE   W01
 BYTE   W01
 BYTE   W19
 BYTE   N11
 BYTE   W03
 BYTE   W01
 BYTE   W01
 BYTE   W19
 BYTE   PEND 
 BYTE   PATT
  POIN2 Label_6_0128EB3E
// 161   ----------------------------------------
 BYTE   GoTo
  POIN2 Label_6_0128E652
 BYTE   FINE

//**************** Track 8 (Midi-Chn.7) ****************//

FE16TheApexoftheWorldRainMrGreen3339_008:
// 000   ----------------------------------------
 BYTE   KEYSH   FE16TheApexoftheWorldRainMrGreen3339_key+0
Label_7_0128EB62:
 BYTE   VOICE   45
 BYTE   VOL   41*FE16TheApexoftheWorldRainMrGreen3339_mvl/mxv
 BYTE   PAN   c_v+0
 BYTE   VOL   51*FE16TheApexoftheWorldRainMrGreen3339_mvl/mxv
 BYTE   PAN   c_v+0
 BYTE   VOL   51*FE16TheApexoftheWorldRainMrGreen3339_mvl/mxv
 BYTE   PAN   c_v+0
 BYTE   VOL   51*FE16TheApexoftheWorldRainMrGreen3339_mvl/mxv
 BYTE   PAN   c_v+18
 BYTE   VOL   51*FE16TheApexoftheWorldRainMrGreen3339_mvl/mxv
 BYTE   PAN   c_v+0
 BYTE   W48
 BYTE   W96
// 001   ----------------------------------------
 BYTE   W96
// 002   ----------------------------------------
 BYTE   W96
// 003   ----------------------------------------
 BYTE   W96
// 004   ----------------------------------------
 BYTE   W96
// 005   ----------------------------------------
 BYTE   W96
// 006   ----------------------------------------
 BYTE   W96
// 007   ----------------------------------------
 BYTE   W96
// 008   ----------------------------------------
 BYTE   W96
// 009   ----------------------------------------
 BYTE   W96
// 010   ----------------------------------------
 BYTE   W96
// 011   ----------------------------------------
 BYTE   W96
// 012   ----------------------------------------
 BYTE   W96
// 013   ----------------------------------------
 BYTE   W96
// 014   ----------------------------------------
 BYTE   W96
// 015   ----------------------------------------
 BYTE   W96
// 016   ----------------------------------------
Label_7_0128EB89:
 BYTE   N92  En3  v036
 BYTE   W06
 BYTE   W03
 BYTE   W03
 BYTE   W03
 BYTE   W03
 BYTE   W03
 BYTE   W03
 BYTE   W03
 BYTE   W03
 BYTE   W03
 BYTE   W03
 BYTE   W03
 BYTE   W03
 BYTE   W03
 BYTE   W03
 BYTE   W03
 BYTE   W03
 BYTE   W03
 BYTE   W04
 BYTE   W03
 BYTE   W03
 BYTE   W03
 BYTE   W03
 BYTE   W03
 BYTE   W03
 BYTE   W03
 BYTE   W03
 BYTE   W03
 BYTE   W03
 BYTE   W03
 BYTE   W02
 BYTE   PEND 
// 017   ----------------------------------------
 BYTE   En3  v064
 BYTE   W96
// 018   ----------------------------------------
Label_7_0128EBAF:
 BYTE   TIE  En3  v064
 BYTE   W09
 BYTE   W04
 BYTE   W05
 BYTE   W05
 BYTE   W04
 BYTE   W05
 BYTE   W04
 BYTE   W05
 BYTE   W05
 BYTE   W04
 BYTE   W05
 BYTE   W04
 BYTE   W05
 BYTE   W05
 BYTE   W04
 BYTE   W05
 BYTE   W04
 BYTE   W05
 BYTE   W05
 BYTE   W04
 BYTE   PEND 
// 019   ----------------------------------------
Label_7_0128EBC7:
 BYTE   W05
 BYTE   W04
 BYTE   W05
 BYTE   W05
 BYTE   W04
 BYTE   W05
 BYTE   W04
 BYTE   W05
 BYTE   W05
 BYTE   W04
 BYTE   W01
 BYTE   PEND 
 BYTE   EOT
 BYTE   En3
 BYTE   W48
 BYTE   W01
// 020   ----------------------------------------
Label_7_0128EBD7:
 BYTE   N92  Cn3  v036
 BYTE   W06
 BYTE   W03
 BYTE   W03
 BYTE   W03
 BYTE   W03
 BYTE   W03
 BYTE   W03
 BYTE   W03
 BYTE   W03
 BYTE   W03
 BYTE   W03
 BYTE   W03
 BYTE   W03
 BYTE   W03
 BYTE   W03
 BYTE   W03
 BYTE   W03
 BYTE   W03
 BYTE   W04
 BYTE   W03
 BYTE   W03
 BYTE   W03
 BYTE   W03
 BYTE   W03
 BYTE   W03
 BYTE   W03
 BYTE   W03
 BYTE   W03
 BYTE   W03
 BYTE   W03
 BYTE   W02
 BYTE   PEND 
// 021   ----------------------------------------
 BYTE   Dn3  v064
 BYTE   W96
// 022   ----------------------------------------
 BYTE   TIE
 BYTE   W09
 BYTE   W04
 BYTE   W05
 BYTE   W05
 BYTE   W04
 BYTE   W05
 BYTE   W04
 BYTE   W05
 BYTE   W05
 BYTE   W04
 BYTE   W05
 BYTE   W04
 BYTE   W05
 BYTE   W05
 BYTE   W04
 BYTE   W05
 BYTE   W04
 BYTE   W05
 BYTE   W05
 BYTE   W04
 BYTE   PATT
  POIN2 Label_7_0128EBC7
// 023   ----------------------------------------
 BYTE   EOT
 BYTE   Dn3
 BYTE   W48
 BYTE   W01
 BYTE   PATT
  POIN2 Label_7_0128EB89
// 024   ----------------------------------------
 BYTE   N92  En3  v064
 BYTE   W96
 BYTE   PATT
  POIN2 Label_7_0128EBAF
 BYTE   PATT
  POIN2 Label_7_0128EBC7
// 025   ----------------------------------------
 BYTE   EOT
 BYTE   En3
 BYTE   W48
 BYTE   W01
 BYTE   PATT
  POIN2 Label_7_0128EBD7
// 026   ----------------------------------------
 BYTE   N92  Dn3  v064
 BYTE   W96
// 027   ----------------------------------------
 BYTE   TIE
 BYTE   W09
 BYTE   W10
 BYTE   W09
 BYTE   W10
 BYTE   W10
 BYTE   W09
 BYTE   W10
 BYTE   W09
 BYTE   W10
 BYTE   W10
// 028   ----------------------------------------
 BYTE   W09
 BYTE   W10
 BYTE   W09
 BYTE   W10
 BYTE   W09
 BYTE   EOT
 BYTE   W24
 BYTE   W01
 BYTE   N11  An3  v096
 BYTE   N11  An5  v064
 BYTE   W12
 BYTE   Bn3  v096
 BYTE   N11  Bn5  v064
 BYTE   W12
// 029   ----------------------------------------
Label_7_0128EC5B:
 BYTE   N56  Cn4  v096
 BYTE   N56  Cn6  v064
 BYTE   W60
 BYTE   N11  Bn3  v096
 BYTE   N11  Bn5  v064
 BYTE   W12
 BYTE   An3  v096
 BYTE   N11  An5  v064
 BYTE   W12
 BYTE   Gn3  v096
 BYTE   N11  Gn5  v064
 BYTE   W12
 BYTE   PEND 
// 030   ----------------------------------------
 BYTE   N56  An3  v096
 BYTE   N56  An5  v064
 BYTE   W60
 BYTE   N11  Gn3  v096
 BYTE   N11  Gn5  v064
 BYTE   W12
 BYTE   Fn3  v096
 BYTE   N11  Fn5  v064
 BYTE   W12
 BYTE   En3  v096
 BYTE   N11  En5  v064
 BYTE   W12
// 031   ----------------------------------------
 BYTE   N23  Dn3  v096
 BYTE   N23  Dn5  v064
 BYTE   W24
 BYTE   N11  En3  v096
 BYTE   N11  En5  v064
 BYTE   W12
 BYTE   TIE  En3  v096
 BYTE   TIE  En5  v064
 BYTE   W60
// 032   ----------------------------------------
 BYTE   W44
 BYTE   W03
 BYTE   EOT
 BYTE   En3  v088
 BYTE   W24
 BYTE   W01
 BYTE   N11  An3  v096
 BYTE   N11  An5  v064
 BYTE   W12
 BYTE   Bn3  v096
 BYTE   N11  Bn5  v064
 BYTE   W12
 BYTE   PATT
  POIN2 Label_7_0128EC5B
// 033   ----------------------------------------
 BYTE   N56  An3  v096
 BYTE   N56  An5  v064
 BYTE   W60
 BYTE   N11  Bn3  v096
 BYTE   N11  Bn5  v064
 BYTE   W12
 BYTE   Cn4  v096
 BYTE   N11  Cn6  v064
 BYTE   W12
 BYTE   Dn4  v096
 BYTE   N11  Dn6  v064
 BYTE   W12
// 034   ----------------------------------------
 BYTE   N23  Bn3  v096
 BYTE   N23  Bn5  v064
 BYTE   W24
 BYTE   N11  Gn3  v096
 BYTE   N11  Gn5  v064
 BYTE   W12
 BYTE   N80  Gn3  v096
 BYTE   N80  Gn5  v064
 BYTE   W60
// 035   ----------------------------------------
 BYTE   W72
 BYTE   N11  An3  v096
 BYTE   N11  An4
 BYTE   N11  An5  v064
 BYTE   W12
 BYTE   Bn3  v096
 BYTE   N11  Bn4
 BYTE   N11  Bn5  v064
 BYTE   W12
// 036   ----------------------------------------
 BYTE   N56  Cn4  v096
 BYTE   N56  Cn5
 BYTE   N56  Cn6  v064
 BYTE   W60
 BYTE   N11  Bn3  v096
 BYTE   N11  Bn4
 BYTE   N11  Bn5  v064
 BYTE   W12
 BYTE   An3  v096
 BYTE   N11  An4
 BYTE   N11  An5  v064
 BYTE   W12
 BYTE   Gn3  v096
 BYTE   N11  Gn4
 BYTE   N11  Gn5  v064
 BYTE   W12
// 037   ----------------------------------------
 BYTE   N56  An3  v096
 BYTE   N56  An4
 BYTE   N56  An5  v064
 BYTE   W60
 BYTE   N11  Gn3  v096
 BYTE   N11  Gn4
 BYTE   N11  Gn5  v064
 BYTE   W12
 BYTE   Fn3  v096
 BYTE   N11  Fn4
 BYTE   N11  Fn5  v064
 BYTE   W12
 BYTE   En3  v096
 BYTE   N11  En4
 BYTE   N11  En5  v064
 BYTE   W12
// 038   ----------------------------------------
 BYTE   N23  Dn3  v096
 BYTE   N23  Dn4
 BYTE   N23  Dn5  v064
 BYTE   W24
 BYTE   N11  En3  v096
 BYTE   N11  En4
 BYTE   N11  En5  v064
 BYTE   W12
 BYTE   N23  En3  v096
 BYTE   N23  En4
 BYTE   N23  En5  v064
 BYTE   W24
 BYTE   N11  Fn3  v096
 BYTE   N11  Fn4
 BYTE   N11  Fn5  v064
 BYTE   W12
 BYTE   N68  En3  v096
 BYTE   N68  En4
 BYTE   N68  En5  v064
 BYTE   W24
// 039   ----------------------------------------
 BYTE   W72
 BYTE   N11  En3  v096
 BYTE   N11  En4
 BYTE   N11  En5  v064
 BYTE   W12
 BYTE   Fn3  v096
 BYTE   N11  Fn4
 BYTE   N11  Fn5  v064
 BYTE   W12
// 040   ----------------------------------------
 BYTE   N23  Gn3  v096
 BYTE   N23  Gn4
 BYTE   N23  Gn5  v064
 BYTE   W24
 BYTE   N11  Fn3  v096
 BYTE   N11  Fn4
 BYTE   N11  Fn5  v064
 BYTE   W12
 BYTE   N23  Fn3  v096
 BYTE   N23  Fn4
 BYTE   N23  Fn5  v064
 BYTE   W24
 BYTE   N11  En3  v096
 BYTE   N11  En4
 BYTE   N11  En5  v064
 BYTE   W12
 BYTE   N68  En3  v096
 BYTE   N68  En4
 BYTE   N68  En5  v064
 BYTE   W24
// 041   ----------------------------------------
 BYTE   W48
 BYTE   N44  Dn3  v096
 BYTE   N44  Dn4
 BYTE   N44  Dn5  v064
 BYTE   W48
// 042   ----------------------------------------
 BYTE   N23  Dn3  v096
 BYTE   N23  Dn4
 BYTE   N23  Dn5  v064
 BYTE   W24
 BYTE   N11  En3  v096
 BYTE   N11  En4
 BYTE   N11  En5  v064
 BYTE   W12
 BYTE   N56  En3  v096
 BYTE   N56  En4
 BYTE   N56  En5  v064
 BYTE   W60
// 043   ----------------------------------------
 BYTE   W96
// 044   ----------------------------------------
 BYTE   N11  Gn4  v096
 BYTE   W12
 BYTE   Cn4
 BYTE   W12
 BYTE   An3
 BYTE   W12
 BYTE   Cn4
 BYTE   W12
 BYTE   Gn4
 BYTE   W12
 BYTE   Cn4
 BYTE   W12
 BYTE   An3
 BYTE   W12
 BYTE   Cn4
 BYTE   W12
// 045   ----------------------------------------
 BYTE   Fn4
 BYTE   W12
 BYTE   Cn4
 BYTE   W12
 BYTE   An3
 BYTE   W12
 BYTE   Cn4
 BYTE   W12
 BYTE   Fn4
 BYTE   W12
 BYTE   Cn4
 BYTE   W12
 BYTE   An3
 BYTE   W12
 BYTE   Cn4
 BYTE   W12
// 046   ----------------------------------------
Label_7_0128EDF7:
 BYTE   N11  Dn4  v096
 BYTE   W12
 BYTE   Gn3
 BYTE   W12
 BYTE   Bn3
 BYTE   W12
 BYTE   Gn3
 BYTE   W12
 BYTE   Dn4
 BYTE   W12
 BYTE   Gn3
 BYTE   W12
 BYTE   Bn3
 BYTE   W12
 BYTE   Gn3
 BYTE   W12
 BYTE   PEND 
 BYTE   PATT
  POIN2 Label_7_0128EDF7
// 047   ----------------------------------------
Label_7_0128EE0F:
 BYTE   N11  Gn4  v096
 BYTE   W12
 BYTE   Cn4
 BYTE   W12
 BYTE   Bn3
 BYTE   W12
 BYTE   Cn4
 BYTE   W12
 BYTE   Gn4
 BYTE   W12
 BYTE   Cn4
 BYTE   W12
 BYTE   Bn3
 BYTE   W12
 BYTE   Cn4
 BYTE   W12
 BYTE   PEND 
// 048   ----------------------------------------
 BYTE   Fn4
 BYTE   W12
 BYTE   Cn4
 BYTE   W12
 BYTE   Bn3
 BYTE   W12
 BYTE   Cn4
 BYTE   W12
 BYTE   Fn4
 BYTE   W12
 BYTE   Cn4
 BYTE   W12
 BYTE   Bn3
 BYTE   W12
 BYTE   Cn4
 BYTE   W12
// 049   ----------------------------------------
 BYTE   Bn4
 BYTE   W12
 BYTE   Gn4
 BYTE   W12
 BYTE   Dn4
 BYTE   W12
 BYTE   Gn4
 BYTE   W12
 BYTE   Bn4
 BYTE   W12
 BYTE   Gn4
 BYTE   W12
 BYTE   Dn4
 BYTE   W12
 BYTE   Gn4
 BYTE   W12
// 050   ----------------------------------------
 BYTE   Cn5
 BYTE   W12
 BYTE   Gn4
 BYTE   W12
 BYTE   Dn4
 BYTE   W12
 BYTE   Gn4
 BYTE   W12
 BYTE   Cn5
 BYTE   W12
 BYTE   Gn4
 BYTE   W12
 BYTE   Dn4
 BYTE   W12
 BYTE   Gn4
 BYTE   W12
// 051   ----------------------------------------
Label_7_0128EE52:
 BYTE   N11  Dn5  v096
 BYTE   W12
 BYTE   En5
 BYTE   W12
 BYTE   Bn4
 BYTE   W12
 BYTE   An4
 BYTE   W12
 BYTE   Gn4
 BYTE   W12
 BYTE   En4
 BYTE   W12
 BYTE   Cn4
 BYTE   W12
 BYTE   Gn3
 BYTE   W12
 BYTE   PEND 
 BYTE   PATT
  POIN2 Label_7_0128EE52
 BYTE   PATT
  POIN2 Label_7_0128EE52
 BYTE   PATT
  POIN2 Label_7_0128EE52
// 052   ----------------------------------------
 BYTE   N11  An4  v096
 BYTE   W12
 BYTE   Cn4
 BYTE   W12
 BYTE   En4
 BYTE   W12
 BYTE   Cn4
 BYTE   W12
 BYTE   An4
 BYTE   W12
 BYTE   Cn4
 BYTE   W12
 BYTE   En4
 BYTE   W12
 BYTE   Cn4
 BYTE   W12
// 053   ----------------------------------------
 BYTE   Gs4
 BYTE   W12
 BYTE   Bn3
 BYTE   W12
 BYTE   Dn4
 BYTE   W12
 BYTE   Bn3
 BYTE   W12
 BYTE   Gs4
 BYTE   W12
 BYTE   Bn3
 BYTE   W12
 BYTE   Dn4
 BYTE   W12
 BYTE   Bn3
 BYTE   W12
// 054   ----------------------------------------
 BYTE   Bn4
 BYTE   W12
 BYTE   Dn4
 BYTE   W12
 BYTE   En4
 BYTE   W12
 BYTE   Dn4
 BYTE   W12
 BYTE   An4
 BYTE   W12
 BYTE   Dn4
 BYTE   W12
 BYTE   En4
 BYTE   W12
 BYTE   Dn4
 BYTE   W12
 BYTE   PATT
  POIN2 Label_7_0128EE0F
// 055   ----------------------------------------
 BYTE   W96
// 056   ----------------------------------------
 BYTE   W96
// 057   ----------------------------------------
 BYTE   W96
// 058   ----------------------------------------
 BYTE   W96
// 059   ----------------------------------------
 BYTE   W96
// 060   ----------------------------------------
 BYTE   W96
// 061   ----------------------------------------
 BYTE   W96
// 062   ----------------------------------------
 BYTE   W96
// 063   ----------------------------------------
 BYTE   W96
// 064   ----------------------------------------
 BYTE   W96
// 065   ----------------------------------------
 BYTE   W96
// 066   ----------------------------------------
 BYTE   W96
// 067   ----------------------------------------
 BYTE   W96
// 068   ----------------------------------------
 BYTE   W96
// 069   ----------------------------------------
 BYTE   W96
// 070   ----------------------------------------
 BYTE   W96
// 071   ----------------------------------------
 BYTE   W96
// 072   ----------------------------------------
 BYTE   W96
// 073   ----------------------------------------
 BYTE   W96
// 074   ----------------------------------------
 BYTE   W96
// 075   ----------------------------------------
 BYTE   W96
// 076   ----------------------------------------
 BYTE   W96
// 077   ----------------------------------------
 BYTE   W96
// 078   ----------------------------------------
 BYTE   W60
 BYTE   N11  An5  v080
 BYTE   W12
 BYTE   N11
 BYTE   W12
 BYTE   Bn5
 BYTE   W12
// 079   ----------------------------------------
 BYTE   N56  Cn6
 BYTE   W60
 BYTE   N11  Bn5
 BYTE   W12
 BYTE   An5
 BYTE   W12
 BYTE   Gn5
 BYTE   W12
// 080   ----------------------------------------
 BYTE   N56  An5
 BYTE   W60
 BYTE   N11  Gn5
 BYTE   W12
 BYTE   Fn5
 BYTE   W12
 BYTE   En5
 BYTE   W12
// 081   ----------------------------------------
 BYTE   N23  Dn5
 BYTE   W24
 BYTE   N11  En5
 BYTE   W12
 BYTE   N23
 BYTE   W24
 BYTE   N11  Fn5
 BYTE   W12
 BYTE   N68  En5
 BYTE   W24
// 082   ----------------------------------------
 BYTE   W72
 BYTE   N11
 BYTE   W12
 BYTE   Fn5
 BYTE   W12
// 083   ----------------------------------------
 BYTE   N23  Gn5
 BYTE   W24
 BYTE   N11  Fn5
 BYTE   W12
 BYTE   N23
 BYTE   W24
 BYTE   N11  En5
 BYTE   W12
 BYTE   N68
 BYTE   W24
// 084   ----------------------------------------
 BYTE   W48
 BYTE   N44  Dn5
 BYTE   W48
// 085   ----------------------------------------
 BYTE   N23
 BYTE   W24
 BYTE   N11  En5
 BYTE   W12
 BYTE   TIE
 BYTE   W60
// 086   ----------------------------------------
 BYTE   W92
 BYTE   W03
 BYTE   EOT
 BYTE   W01
// 087   ----------------------------------------
 BYTE   W96
// 088   ----------------------------------------
 BYTE   W96
// 089   ----------------------------------------
 BYTE   W96
// 090   ----------------------------------------
 BYTE   W96
// 091   ----------------------------------------
 BYTE   W96
// 092   ----------------------------------------
 BYTE   W96
// 093   ----------------------------------------
 BYTE   W96
// 094   ----------------------------------------
 BYTE   W96
// 095   ----------------------------------------
 BYTE   W96
// 096   ----------------------------------------
 BYTE   W96
// 097   ----------------------------------------
 BYTE   W96
// 098   ----------------------------------------
 BYTE   W96
// 099   ----------------------------------------
 BYTE   W96
// 100   ----------------------------------------
 BYTE   W96
// 101   ----------------------------------------
 BYTE   W96
// 102   ----------------------------------------
 BYTE   W96
// 103   ----------------------------------------
 BYTE   W96
// 104   ----------------------------------------
 BYTE   W96
// 105   ----------------------------------------
 BYTE   W96
// 106   ----------------------------------------
 BYTE   W96
// 107   ----------------------------------------
 BYTE   W96
// 108   ----------------------------------------
 BYTE   W96
// 109   ----------------------------------------
 BYTE   W96
// 110   ----------------------------------------
 BYTE   W96
// 111   ----------------------------------------
 BYTE   W96
// 112   ----------------------------------------
 BYTE   W96
// 113   ----------------------------------------
 BYTE   W96
// 114   ----------------------------------------
 BYTE   W96
// 115   ----------------------------------------
 BYTE   W96
// 116   ----------------------------------------
 BYTE   W96
// 117   ----------------------------------------
 BYTE   W96
// 118   ----------------------------------------
 BYTE   W96
// 119   ----------------------------------------
 BYTE   W96
// 120   ----------------------------------------
 BYTE   W96
// 121   ----------------------------------------
 BYTE   W96
// 122   ----------------------------------------
 BYTE   W96
// 123   ----------------------------------------
 BYTE   W96
// 124   ----------------------------------------
 BYTE   W96
// 125   ----------------------------------------
 BYTE   W96
// 126   ----------------------------------------
 BYTE   W96
// 127   ----------------------------------------
Label_7_0128EF36:
 BYTE   N11  An2  v080
 BYTE   W24
 BYTE   N11
 BYTE   W24
 BYTE   N11
 BYTE   W24
 BYTE   N11
 BYTE   W24
 BYTE   PEND 
 BYTE   PATT
  POIN2 Label_7_0128EF36
// 128   ----------------------------------------
 BYTE   N11  Gn2  v080
 BYTE   W24
 BYTE   N11
 BYTE   W24
 BYTE   N11
 BYTE   W24
 BYTE   N11
 BYTE   W24
// 129   ----------------------------------------
 BYTE   Bn2
 BYTE   W24
 BYTE   An2
 BYTE   W24
 BYTE   En2
 BYTE   W24
 BYTE   An2
 BYTE   W24
 BYTE   PATT
  POIN2 Label_7_0128EF36
 BYTE   PATT
  POIN2 Label_7_0128EF36
 BYTE   PATT
  POIN2 Label_7_0128EF36
// 130   ----------------------------------------
 BYTE   N11  Gs2  v080
 BYTE   W24
 BYTE   N11
 BYTE   W24
 BYTE   N11
 BYTE   W24
 BYTE   N11
 BYTE   W24
// 131   ----------------------------------------
 BYTE   As2  v064
 BYTE   W24
 BYTE   N11
 BYTE   W24
 BYTE   N11
 BYTE   W24
 BYTE   N11
 BYTE   W24
// 132   ----------------------------------------
 BYTE   W96
// 133   ----------------------------------------
 BYTE   W96
// 134   ----------------------------------------
 BYTE   W96
// 135   ----------------------------------------
 BYTE   W96
// 136   ----------------------------------------
 BYTE   W96
// 137   ----------------------------------------
 BYTE   W96
// 138   ----------------------------------------
 BYTE   W96
// 139   ----------------------------------------
 BYTE   W96
// 140   ----------------------------------------
 BYTE   W96
// 141   ----------------------------------------
 BYTE   W96
// 142   ----------------------------------------
 BYTE   W96
// 143   ----------------------------------------
 BYTE   W96
// 144   ----------------------------------------
 BYTE   W96
// 145   ----------------------------------------
 BYTE   W96
// 146   ----------------------------------------
 BYTE   W96
// 147   ----------------------------------------
 BYTE   W96
// 148   ----------------------------------------
 BYTE   W96
// 149   ----------------------------------------
 BYTE   W48
 BYTE   N44  Fn2  v080
 BYTE   W48
// 150   ----------------------------------------
 BYTE   N92  Gs2
 BYTE   W96
// 151   ----------------------------------------
 BYTE   As2
 BYTE   W96
// 152   ----------------------------------------
 BYTE   Fn2
 BYTE   W96
// 153   ----------------------------------------
 BYTE   Ds2
 BYTE   W96
// 154   ----------------------------------------
 BYTE   N44  Fn2
 BYTE   W48
 BYTE   An2
 BYTE   W48
// 155   ----------------------------------------
 BYTE   N92  As2
 BYTE   W96
// 156   ----------------------------------------
 BYTE   N32  Gs2
 BYTE   W36
 BYTE   N32
 BYTE   W36
 BYTE   N23  Gn2
 BYTE   W24
// 157   ----------------------------------------
 BYTE   N32  Fs2
 BYTE   W36
 BYTE   N23
 BYTE   W24
 BYTE   N32
 BYTE   W36
// 158   ----------------------------------------
 BYTE   N92  Gs2
 BYTE   W96
// 159   ----------------------------------------
 BYTE   Fn2
 BYTE   W96
// 160   ----------------------------------------
 BYTE   N44  As2
 BYTE   W48
 BYTE   N23  Cn3
 BYTE   W24
 BYTE   N11  As2
 BYTE   W12
 BYTE   Gs2
 BYTE   W12
// 161   ----------------------------------------
 BYTE   N92  Ds2
 BYTE   W96
// 162   ----------------------------------------
 BYTE   Fn2
 BYTE   W96
// 163   ----------------------------------------
 BYTE   TIE  As2
 BYTE   W96
// 164   ----------------------------------------
 BYTE   W92
 BYTE   W03
 BYTE   EOT
 BYTE   W01
// 165   ----------------------------------------
 BYTE   W96
// 166   ----------------------------------------
 BYTE   W96
// 167   ----------------------------------------
 BYTE   W96
// 168   ----------------------------------------
 BYTE   W96
// 169   ----------------------------------------
 BYTE   W96
// 170   ----------------------------------------
 BYTE   W96
// 171   ----------------------------------------
 BYTE   W96
// 172   ----------------------------------------
 BYTE   W96
// 173   ----------------------------------------
 BYTE   W96
// 174   ----------------------------------------
 BYTE   W96
// 175   ----------------------------------------
 BYTE   GoTo
  POIN2 Label_7_0128EB62
 BYTE   FINE

//**************** Track 9 (Midi-Chn.8) ****************//

FE16TheApexoftheWorldRainMrGreen3339_009:
// 000   ----------------------------------------
 BYTE   KEYSH   FE16TheApexoftheWorldRainMrGreen3339_key+0
Label_8_0128EFDE:
 BYTE   VOICE   116
 BYTE   VOL   51*FE16TheApexoftheWorldRainMrGreen3339_mvl/mxv
 BYTE   PAN   c_v+0
 BYTE   VOL   51*FE16TheApexoftheWorldRainMrGreen3339_mvl/mxv
 BYTE   PAN   c_v+0
 BYTE   VOL   51*FE16TheApexoftheWorldRainMrGreen3339_mvl/mxv
 BYTE   PAN   c_v+0
 BYTE   VOL   51*FE16TheApexoftheWorldRainMrGreen3339_mvl/mxv
 BYTE   PAN   c_v+0
 BYTE   VOL   51*FE16TheApexoftheWorldRainMrGreen3339_mvl/mxv
 BYTE   PAN   c_v+0
 BYTE   W48
Label_8_0128EFF5:
 BYTE   W24
 BYTE   N23  Dn3  v080
 BYTE   W24
// 001   ----------------------------------------
 BYTE   En3
 BYTE   W24
 BYTE   Bn2
 BYTE   W24
 BYTE   PEND 
 BYTE   N92  Dn3
 BYTE   W96
// 002   ----------------------------------------
 BYTE   W24
 BYTE   N23  Cn3
 BYTE   W24
 BYTE   Dn3
 BYTE   W24
 BYTE   Bn2
 BYTE   W24
// 003   ----------------------------------------
 BYTE   N92  Gn2
 BYTE   W96
 BYTE   PATT
  POIN2 Label_8_0128EFF5
// 004   ----------------------------------------
 BYTE   N44  Cn3  v080
 BYTE   W48
 BYTE   Bn2
 BYTE   W48
// 005   ----------------------------------------
 BYTE   Dn3
 BYTE   W48
 BYTE   Cn3
 BYTE   W48
// 006   ----------------------------------------
 BYTE   N44
 BYTE   W48
 BYTE   N44
 BYTE   W48
// 007   ----------------------------------------
 BYTE   W96
// 008   ----------------------------------------
 BYTE   W96
// 009   ----------------------------------------
 BYTE   W96
// 010   ----------------------------------------
 BYTE   W96
// 011   ----------------------------------------
 BYTE   W96
// 012   ----------------------------------------
 BYTE   W96
// 013   ----------------------------------------
 BYTE   W96
// 014   ----------------------------------------
 BYTE   W96
// 015   ----------------------------------------
 BYTE   W96
// 016   ----------------------------------------
 BYTE   W96
// 017   ----------------------------------------
 BYTE   W96
// 018   ----------------------------------------
 BYTE   W96
// 019   ----------------------------------------
 BYTE   W96
// 020   ----------------------------------------
 BYTE   W96
// 021   ----------------------------------------
 BYTE   W96
// 022   ----------------------------------------
 BYTE   W96
// 023   ----------------------------------------
 BYTE   W96
// 024   ----------------------------------------
 BYTE   W96
// 025   ----------------------------------------
 BYTE   W96
// 026   ----------------------------------------
 BYTE   W96
// 027   ----------------------------------------
 BYTE   W96
// 028   ----------------------------------------
 BYTE   W96
// 029   ----------------------------------------
 BYTE   W96
// 030   ----------------------------------------
 BYTE   W96
// 031   ----------------------------------------
 BYTE   W96
// 032   ----------------------------------------
 BYTE   W96
// 033   ----------------------------------------
 BYTE   W96
// 034   ----------------------------------------
 BYTE   W96
// 035   ----------------------------------------
 BYTE   W96
// 036   ----------------------------------------
 BYTE   W96
// 037   ----------------------------------------
 BYTE   W96
// 038   ----------------------------------------
 BYTE   W96
// 039   ----------------------------------------
 BYTE   W96
// 040   ----------------------------------------
 BYTE   W96
// 041   ----------------------------------------
 BYTE   W96
// 042   ----------------------------------------
 BYTE   W96
// 043   ----------------------------------------
 BYTE   W96
// 044   ----------------------------------------
 BYTE   W96
// 045   ----------------------------------------
 BYTE   W96
// 046   ----------------------------------------
 BYTE   W96
// 047   ----------------------------------------
Label_8_0128F048:
 BYTE   N11  Fn1  v064
 BYTE   W12
 BYTE   N11
 BYTE   W24
 BYTE   Cn1
 BYTE   W12
 BYTE   N11
 BYTE   W12
 BYTE   Fn1
 BYTE   W36
 BYTE   PEND 
 BYTE   PATT
  POIN2 Label_8_0128F048
// 048   ----------------------------------------
 BYTE   N11  Gn1  v064
 BYTE   W12
 BYTE   N11
 BYTE   W24
 BYTE   N11
 BYTE   W12
 BYTE   N11
 BYTE   W12
 BYTE   N11
 BYTE   W36
// 049   ----------------------------------------
Label_8_0128F066:
 BYTE   N11  Gn1  v064
 BYTE   W12
 BYTE   N11
 BYTE   W24
 BYTE   Dn1
 BYTE   W12
 BYTE   N11
 BYTE   W12
 BYTE   Gn1
 BYTE   W36
 BYTE   PEND 
// 050   ----------------------------------------
Label_8_0128F073:
 BYTE   N11  An1  v064
 BYTE   W12
 BYTE   N11
 BYTE   W24
 BYTE   N11
 BYTE   W12
 BYTE   N11
 BYTE   W12
 BYTE   N11
 BYTE   W36
 BYTE   PEND 
 BYTE   PATT
  POIN2 Label_8_0128F073
 BYTE   PATT
  POIN2 Label_8_0128F073
 BYTE   PATT
  POIN2 Label_8_0128F073
 BYTE   PATT
  POIN2 Label_8_0128F048
 BYTE   PATT
  POIN2 Label_8_0128F048
 BYTE   PATT
  POIN2 Label_8_0128F066
 BYTE   PATT
  POIN2 Label_8_0128F066
// 051   ----------------------------------------
 BYTE   N11  Dn1  v064
 BYTE   W12
 BYTE   N11
 BYTE   W24
 BYTE   N11
 BYTE   W24
 BYTE   N11
 BYTE   W36
// 052   ----------------------------------------
 BYTE   En1
 BYTE   W12
 BYTE   N11
 BYTE   W24
 BYTE   N11
 BYTE   W24
 BYTE   N11
 BYTE   W36
// 053   ----------------------------------------
 BYTE   An1
 BYTE   W12
 BYTE   N11
 BYTE   W24
 BYTE   N11
 BYTE   W24
 BYTE   N11
 BYTE   W36
// 054   ----------------------------------------
 BYTE   Gn1
 BYTE   W12
 BYTE   N11
 BYTE   W24
 BYTE   N11
 BYTE   W24
 BYTE   N11
 BYTE   W36
// 055   ----------------------------------------
Label_8_0128F0C5:
 BYTE   N11  Fn1  v080
 BYTE   W24
 BYTE   N11
 BYTE   W24
 BYTE   N11
 BYTE   W24
 BYTE   N11
 BYTE   W24
 BYTE   PEND 
// 056   ----------------------------------------
Label_8_0128F0D0:
 BYTE   N11  Fn1  v080
 BYTE   W24
 BYTE   N11
 BYTE   W24
 BYTE   N11
 BYTE   W24
 BYTE   Cn1
 BYTE   W12
 BYTE   En1
 BYTE   W12
 BYTE   PEND 
 BYTE   PATT
  POIN2 Label_8_0128F0C5
// 057   ----------------------------------------
Label_8_0128F0E2:
 BYTE   N11  Fn1  v080
 BYTE   W24
 BYTE   N11
 BYTE   W24
 BYTE   N11
 BYTE   W24
 BYTE   Gn1
 BYTE   W12
 BYTE   Fn1
 BYTE   W12
 BYTE   PEND 
// 058   ----------------------------------------
Label_8_0128F0EF:
 BYTE   N11  En1  v080
 BYTE   W24
 BYTE   N11
 BYTE   W24
 BYTE   N11
 BYTE   W24
 BYTE   N11
 BYTE   W24
 BYTE   PEND 
 BYTE   PATT
  POIN2 Label_8_0128F0EF
// 059   ----------------------------------------
 BYTE   N11  An1  v080
 BYTE   W24
 BYTE   N11
 BYTE   W24
 BYTE   N11
 BYTE   W24
 BYTE   N11
 BYTE   W24
// 060   ----------------------------------------
 BYTE   N11
 BYTE   W12
 BYTE   Cn2
 BYTE   W12
 BYTE   Bn1
 BYTE   W12
 BYTE   Gn1
 BYTE   W12
 BYTE   Dn1
 BYTE   W12
 BYTE   En1
 BYTE   W12
 BYTE   N05
 BYTE   W06
 BYTE   Dn1
 BYTE   W06
 BYTE   Cn1
 BYTE   W06
 BYTE   Bn0
 BYTE   W06
 BYTE   PATT
  POIN2 Label_8_0128F0C5
 BYTE   PATT
  POIN2 Label_8_0128F0D0
 BYTE   PATT
  POIN2 Label_8_0128F0C5
 BYTE   PATT
  POIN2 Label_8_0128F0E2
 BYTE   PATT
  POIN2 Label_8_0128F0EF
 BYTE   PATT
  POIN2 Label_8_0128F0EF
 BYTE   PATT
  POIN2 Label_8_0128F0EF
// 061   ----------------------------------------
 BYTE   W96
// 062   ----------------------------------------
 BYTE   W96
// 063   ----------------------------------------
 BYTE   W96
// 064   ----------------------------------------
 BYTE   W96
// 065   ----------------------------------------
 BYTE   W96
// 066   ----------------------------------------
 BYTE   W96
// 067   ----------------------------------------
 BYTE   W96
// 068   ----------------------------------------
 BYTE   W96
// 069   ----------------------------------------
 BYTE   W96
// 070   ----------------------------------------
 BYTE   W96
// 071   ----------------------------------------
 BYTE   W96
// 072   ----------------------------------------
 BYTE   W96
// 073   ----------------------------------------
 BYTE   W96
// 074   ----------------------------------------
 BYTE   W96
// 075   ----------------------------------------
 BYTE   W96
// 076   ----------------------------------------
 BYTE   W96
// 077   ----------------------------------------
 BYTE   W96
// 078   ----------------------------------------
 BYTE   W96
// 079   ----------------------------------------
 BYTE   W96
// 080   ----------------------------------------
 BYTE   W96
// 081   ----------------------------------------
 BYTE   W96
// 082   ----------------------------------------
 BYTE   W96
// 083   ----------------------------------------
 BYTE   W96
// 084   ----------------------------------------
 BYTE   W96
// 085   ----------------------------------------
 BYTE   W96
// 086   ----------------------------------------
 BYTE   W96
// 087   ----------------------------------------
 BYTE   W96
// 088   ----------------------------------------
 BYTE   W96
// 089   ----------------------------------------
 BYTE   W96
// 090   ----------------------------------------
 BYTE   W96
// 091   ----------------------------------------
 BYTE   W96
// 092   ----------------------------------------
 BYTE   W96
// 093   ----------------------------------------
 BYTE   W96
// 094   ----------------------------------------
 BYTE   W96
// 095   ----------------------------------------
 BYTE   W96
// 096   ----------------------------------------
 BYTE   W96
// 097   ----------------------------------------
 BYTE   W96
// 098   ----------------------------------------
 BYTE   W96
// 099   ----------------------------------------
 BYTE   W96
// 100   ----------------------------------------
 BYTE   W96
// 101   ----------------------------------------
 BYTE   W96
// 102   ----------------------------------------
 BYTE   W96
// 103   ----------------------------------------
 BYTE   W96
// 104   ----------------------------------------
 BYTE   W96
// 105   ----------------------------------------
 BYTE   W96
// 106   ----------------------------------------
 BYTE   W96
// 107   ----------------------------------------
 BYTE   W96
// 108   ----------------------------------------
 BYTE   W96
// 109   ----------------------------------------
 BYTE   W96
// 110   ----------------------------------------
 BYTE   W96
// 111   ----------------------------------------
 BYTE   W96
// 112   ----------------------------------------
 BYTE   W96
// 113   ----------------------------------------
 BYTE   W96
// 114   ----------------------------------------
 BYTE   W96
// 115   ----------------------------------------
 BYTE   W96
// 116   ----------------------------------------
 BYTE   W96
// 117   ----------------------------------------
 BYTE   W96
// 118   ----------------------------------------
 BYTE   W96
// 119   ----------------------------------------
 BYTE   W96
// 120   ----------------------------------------
 BYTE   W96
// 121   ----------------------------------------
 BYTE   W96
// 122   ----------------------------------------
 BYTE   W96
// 123   ----------------------------------------
 BYTE   W96
// 124   ----------------------------------------
 BYTE   W96
// 125   ----------------------------------------
 BYTE   W96
// 126   ----------------------------------------
 BYTE   W96
// 127   ----------------------------------------
 BYTE   W96
// 128   ----------------------------------------
 BYTE   W96
// 129   ----------------------------------------
 BYTE   W96
// 130   ----------------------------------------
 BYTE   W96
// 131   ----------------------------------------
 BYTE   W96
// 132   ----------------------------------------
 BYTE   W96
// 133   ----------------------------------------
 BYTE   W96
// 134   ----------------------------------------
 BYTE   W96
// 135   ----------------------------------------
 BYTE   W96
// 136   ----------------------------------------
 BYTE   W96
// 137   ----------------------------------------
 BYTE   W96
// 138   ----------------------------------------
 BYTE   W96
// 139   ----------------------------------------
 BYTE   W96
// 140   ----------------------------------------
 BYTE   W96
// 141   ----------------------------------------
 BYTE   W96
// 142   ----------------------------------------
 BYTE   W96
// 143   ----------------------------------------
 BYTE   W96
// 144   ----------------------------------------
 BYTE   W96
// 145   ----------------------------------------
 BYTE   W96
// 146   ----------------------------------------
 BYTE   W96
// 147   ----------------------------------------
 BYTE   W96
// 148   ----------------------------------------
 BYTE   W96
// 149   ----------------------------------------
 BYTE   W96
// 150   ----------------------------------------
 BYTE   W96
// 151   ----------------------------------------
 BYTE   W96
// 152   ----------------------------------------
 BYTE   W96
// 153   ----------------------------------------
 BYTE   W96
// 154   ----------------------------------------
 BYTE   W96
// 155   ----------------------------------------
 BYTE   W96
// 156   ----------------------------------------
 BYTE   W96
// 157   ----------------------------------------
 BYTE   W96
// 158   ----------------------------------------
 BYTE   W96
// 159   ----------------------------------------
 BYTE   W96
// 160   ----------------------------------------
 BYTE   W96
// 161   ----------------------------------------
 BYTE   W96
// 162   ----------------------------------------
 BYTE   W96
// 163   ----------------------------------------
 BYTE   W96
// 164   ----------------------------------------
 BYTE   W96
// 165   ----------------------------------------
 BYTE   W96
// 166   ----------------------------------------
 BYTE   W96
// 167   ----------------------------------------
 BYTE   W96
// 168   ----------------------------------------
 BYTE   W96
// 169   ----------------------------------------
 BYTE   W96
// 170   ----------------------------------------
 BYTE   GoTo
  POIN2 Label_8_0128EFDE
 BYTE   FINE

//**************** Track 10 (Midi-Chn.9) ****************//

FE16TheApexoftheWorldRainMrGreen3339_010:
// 000   ----------------------------------------
 BYTE   KEYSH   FE16TheApexoftheWorldRainMrGreen3339_key+0
Label_9_0128F1B6:
 BYTE   VOICE   24
 BYTE   VOL   51*FE16TheApexoftheWorldRainMrGreen3339_mvl/mxv
 BYTE   PAN   c_v+0
 BYTE   VOL   35*FE16TheApexoftheWorldRainMrGreen3339_mvl/mxv
 BYTE   PAN   c_v-4
 BYTE   VOL   51*FE16TheApexoftheWorldRainMrGreen3339_mvl/mxv
 BYTE   PAN   c_v+0
 BYTE   VOL   51*FE16TheApexoftheWorldRainMrGreen3339_mvl/mxv
 BYTE   PAN   c_v+0
 BYTE   VOL   51*FE16TheApexoftheWorldRainMrGreen3339_mvl/mxv
 BYTE   PAN   c_v+0
 BYTE   VOL   51*FE16TheApexoftheWorldRainMrGreen3339_mvl/mxv
 BYTE   PAN   c_v+0
 BYTE   VOL   51*FE16TheApexoftheWorldRainMrGreen3339_mvl/mxv
 BYTE   PAN   c_v+0
 BYTE   VOL   51*FE16TheApexoftheWorldRainMrGreen3339_mvl/mxv
 BYTE   PAN   c_v+0
 BYTE   VOL   51*FE16TheApexoftheWorldRainMrGreen3339_mvl/mxv
 BYTE   PAN   c_v+0
 BYTE   VOL   15*FE16TheApexoftheWorldRainMrGreen3339_mvl/mxv
 BYTE   PAN   c_v+3
 BYTE   VOL   15*FE16TheApexoftheWorldRainMrGreen3339_mvl/mxv
 BYTE   PAN   c_v-64
 BYTE   VOL   15*FE16TheApexoftheWorldRainMrGreen3339_mvl/mxv
 BYTE   PAN   c_v+63
 BYTE   VOL   15*FE16TheApexoftheWorldRainMrGreen3339_mvl/mxv
 BYTE   PAN   c_v+3
 BYTE   W24
 BYTE   N02  An2  v064
 BYTE   W03
 BYTE   N02
 BYTE   W03
 BYTE   N02
 BYTE   W03
 BYTE   N02
 BYTE   W03
 BYTE   N02
 BYTE   W03
 BYTE   N02
 BYTE   W03
 BYTE   N02
 BYTE   W03
 BYTE   N02
 BYTE   W03
 BYTE   N23  Bn0  v080
 BYTE   W90
// 001   ----------------------------------------
 BYTE   N02  Dn1
 BYTE   W03
 BYTE   N02
 BYTE   W03
Label_9_0128F208:
 BYTE   N23  Bn0  v080
 BYTE   N23  Dn1
 BYTE   W24
 BYTE   Bn0
 BYTE   N23  Dn1
 BYTE   W72
 BYTE   PEND 
// 002   ----------------------------------------
 BYTE   Bn0
 BYTE   N23  Dn1
 BYTE   N92  An2  v064
 BYTE   W90
 BYTE   N02  Dn1  v080
 BYTE   W03
 BYTE   N02
 BYTE   W03
// 003   ----------------------------------------
 BYTE   N23  Bn0
 BYTE   N23  Dn1
 BYTE   W24
 BYTE   Bn0
 BYTE   N23  Dn1
 BYTE   W48
 BYTE   N02  An2  v064
 BYTE   W03
 BYTE   N02
 BYTE   W03
 BYTE   N02
 BYTE   W03
 BYTE   N02
 BYTE   W03
 BYTE   N02
 BYTE   W03
 BYTE   N02
 BYTE   W03
 BYTE   N02
 BYTE   W03
 BYTE   N02
 BYTE   W03
// 004   ----------------------------------------
 BYTE   N23  Bn0  v080
 BYTE   N23  Dn1
 BYTE   W90
 BYTE   N02
 BYTE   W03
 BYTE   N02
 BYTE   W03
 BYTE   PATT
  POIN2 Label_9_0128F208
// 005   ----------------------------------------
 BYTE   N44  Bn0  v080
 BYTE   N44  Dn1
 BYTE   N92  An2  v064
 BYTE   W48
 BYTE   N44  Bn0  v080
 BYTE   N23  Dn1
 BYTE   W42
 BYTE   N02
 BYTE   W03
 BYTE   N02
 BYTE   W03
// 006   ----------------------------------------
 BYTE   N44  Bn0
 BYTE   N44  Dn1
 BYTE   N92  An2  v064
 BYTE   W48
 BYTE   N44  Bn0  v080
 BYTE   N01  Dn1
 BYTE   W01
 BYTE   N01
 BYTE   W01
 BYTE   N01
 BYTE   W02
 BYTE   N01
 BYTE   W01
 BYTE   N01
 BYTE   W02
 BYTE   N01
 BYTE   W01
 BYTE   N01
 BYTE   W02
 BYTE   N01
 BYTE   W01
 BYTE   N01
 BYTE   W02
 BYTE   N01
 BYTE   W01
 BYTE   N01
 BYTE   W02
 BYTE   N01
 BYTE   W01
 BYTE   N01
 BYTE   W02
 BYTE   N01
 BYTE   W01
 BYTE   N01
 BYTE   W02
 BYTE   N01
 BYTE   W01
 BYTE   N01
 BYTE   W02
 BYTE   N01
 BYTE   W01
 BYTE   N01
 BYTE   W02
 BYTE   N01
 BYTE   W01
 BYTE   N01
 BYTE   W02
 BYTE   N01
 BYTE   W01
 BYTE   N01
 BYTE   W02
 BYTE   N01
 BYTE   W01
 BYTE   N01
 BYTE   W02
 BYTE   N01
 BYTE   W01
 BYTE   N01
 BYTE   W02
 BYTE   N01
 BYTE   W01
 BYTE   N01
 BYTE   W02
 BYTE   N01
 BYTE   W01
 BYTE   N01
 BYTE   W02
 BYTE   N01
 BYTE   W02
// 007   ----------------------------------------
 BYTE   N11  Fs1  v036
 BYTE   N92  An2  v064
 BYTE   W12
 BYTE   N11  Fs1  v036
 BYTE   W12
 BYTE   N11
 BYTE   W12
 BYTE   N11
 BYTE   W24
 BYTE   N11
 BYTE   W12
 BYTE   N11
 BYTE   W12
 BYTE   N05
 BYTE   W06
 BYTE   N05
 BYTE   W06
// 008   ----------------------------------------
Label_9_0128F2C0:
 BYTE   N11  Fs1  v036
 BYTE   W12
 BYTE   N11
 BYTE   W12
 BYTE   N11
 BYTE   W12
 BYTE   N11
 BYTE   W24
 BYTE   N11
 BYTE   W12
 BYTE   N11
 BYTE   W12
 BYTE   N05
 BYTE   W06
 BYTE   N05
 BYTE   W06
 BYTE   PEND 
 BYTE   PATT
  POIN2 Label_9_0128F2C0
 BYTE   PATT
  POIN2 Label_9_0128F2C0
 BYTE   PATT
  POIN2 Label_9_0128F2C0
 BYTE   PATT
  POIN2 Label_9_0128F2C0
 BYTE   PATT
  POIN2 Label_9_0128F2C0
// 009   ----------------------------------------
 BYTE   N11  Fs1  v036
 BYTE   N02  An2
 BYTE   W02
 BYTE   N02
 BYTE   W03
 BYTE   N02
 BYTE   W01
 BYTE   W02
 BYTE   N02
 BYTE   W01
 BYTE   W02
 BYTE   N02
 BYTE   W01
 BYTE   N11  Fs1
 BYTE   W02
 BYTE   N02  An2
 BYTE   W01
 BYTE   W02
 BYTE   N02
 BYTE   W01
 BYTE   W02
 BYTE   N02
 BYTE   W01
 BYTE   W02
 BYTE   N02
 BYTE   W01
 BYTE   N11  Fs1
 BYTE   W02
 BYTE   N02  An2
 BYTE   W01
 BYTE   W02
 BYTE   N02
 BYTE   W01
 BYTE   W02
 BYTE   N02
 BYTE   W01
 BYTE   W02
 BYTE   N02
 BYTE   W01
 BYTE   N11  Fs1
 BYTE   W02
 BYTE   N02  An2
 BYTE   W01
 BYTE   W02
 BYTE   N02
 BYTE   W01
 BYTE   W02
 BYTE   N02
 BYTE   W01
 BYTE   W02
 BYTE   N02
 BYTE   W01
 BYTE   W02
 BYTE   N02
 BYTE   W01
 BYTE   W02
 BYTE   N02
 BYTE   W01
 BYTE   W02
 BYTE   N02
 BYTE   W01
 BYTE   W02
 BYTE   N02
 BYTE   W01
 BYTE   N11  Fs1
 BYTE   W01
 BYTE   W01
 BYTE   N02  An2
 BYTE   W02
 BYTE   W01
 BYTE   N02
 BYTE   W02
 BYTE   W01
 BYTE   N02
 BYTE   W02
 BYTE   W01
 BYTE   N02
 BYTE   W01
 BYTE   N11  Fs1
 BYTE   W01
 BYTE   W01
 BYTE   N02  An2
 BYTE   W02
 BYTE   W01
 BYTE   N02
 BYTE   W02
 BYTE   W01
 BYTE   N02
 BYTE   W02
 BYTE   W01
 BYTE   N02
 BYTE   W01
 BYTE   N05  Fs1
 BYTE   W01
 BYTE   W01
 BYTE   N02  An2
 BYTE   W02
 BYTE   W01
 BYTE   N02
 BYTE   W01
 BYTE   N05  Fs1
 BYTE   W01
 BYTE   W01
 BYTE   N02  An2
 BYTE   W02
 BYTE   W02
// 010   ----------------------------------------
Label_9_0128F367:
 BYTE   N11  Dn1  v052
 BYTE   N11  Fs1
 BYTE   W12
 BYTE   Dn1  v036
 BYTE   N11  Fs1  v052
 BYTE   W12
 BYTE   Dn1  v036
 BYTE   N11  Fs1  v052
 BYTE   W12
 BYTE   Dn1
 BYTE   N11  Fs1
 BYTE   W24
 BYTE   N11
 BYTE   W12
 BYTE   N11
 BYTE   W12
 BYTE   N05  Dn1
 BYTE   N05  Fs1
 BYTE   W06
 BYTE   Dn1
 BYTE   N05  Fs1
 BYTE   W06
 BYTE   PEND 
// 011   ----------------------------------------
Label_9_0128F38B:
 BYTE   N11  Dn1  v052
 BYTE   N11  Fs1
 BYTE   W12
 BYTE   N11
 BYTE   W12
 BYTE   N11
 BYTE   W12
 BYTE   Dn1
 BYTE   N11  Fs1
 BYTE   W24
 BYTE   Dn1
 BYTE   N11  Fs1
 BYTE   W12
 BYTE   N11
 BYTE   W12
 BYTE   N05
 BYTE   W06
 BYTE   N05
 BYTE   W06
 BYTE   PEND 
 BYTE   PATT
  POIN2 Label_9_0128F367
 BYTE   PATT
  POIN2 Label_9_0128F38B
 BYTE   PATT
  POIN2 Label_9_0128F367
 BYTE   PATT
  POIN2 Label_9_0128F38B
 BYTE   PATT
  POIN2 Label_9_0128F367
// 012   ----------------------------------------
Label_9_0128F3BD:
 BYTE   N11  Dn1  v052
 BYTE   N11  Fs1
 BYTE   W12
 BYTE   N11
 BYTE   W12
 BYTE   N11
 BYTE   W12
 BYTE   Dn1
 BYTE   N11  Fs1
 BYTE   W24
 BYTE   Dn1
 BYTE   N11  Fs1
 BYTE   W12
 BYTE   N05  Dn1  v036
 BYTE   N11  Fs1  v052
 BYTE   W06
 BYTE   N05  Dn1  v036
 BYTE   W06
 BYTE   N05
 BYTE   N05  Fs1  v052
 BYTE   W06
 BYTE   Dn1  v036
 BYTE   N05  Fs1  v052
 BYTE   W06
 BYTE   PEND 
 BYTE   PATT
  POIN2 Label_9_0128F367
 BYTE   PATT
  POIN2 Label_9_0128F3BD
// 013   ----------------------------------------
Label_9_0128F3F0:
 BYTE   N11  Dn1  v052
 BYTE   N11  Fs1
 BYTE   W12
 BYTE   Dn1  v036
 BYTE   N11  Fs1  v052
 BYTE   W12
 BYTE   Dn1  v036
 BYTE   N11  Fs1  v052
 BYTE   W12
 BYTE   Dn1
 BYTE   N11  Fs1
 BYTE   W12
 BYTE   Dn1  v036
 BYTE   W12
 BYTE   N11
 BYTE   N11  Fs1  v052
 BYTE   W12
 BYTE   Dn1  v036
 BYTE   N11  Fs1  v052
 BYTE   W12
 BYTE   N05  Dn1
 BYTE   N05  Fs1
 BYTE   W06
 BYTE   Dn1
 BYTE   N05  Fs1
 BYTE   W06
 BYTE   PEND 
 BYTE   PATT
  POIN2 Label_9_0128F3BD
 BYTE   PATT
  POIN2 Label_9_0128F3F0
 BYTE   PATT
  POIN2 Label_9_0128F3BD
 BYTE   PATT
  POIN2 Label_9_0128F3F0
// 014   ----------------------------------------
 BYTE   N11  Dn1  v052
 BYTE   N11  Fs1
 BYTE   N02  An2  v036
 BYTE   W02
 BYTE   N02
 BYTE   W02
 BYTE   W01
 BYTE   N02
 BYTE   W01
 BYTE   W02
 BYTE   N02
 BYTE   W02
 BYTE   W01
 BYTE   N02
 BYTE   W01
 BYTE   N11  Fs1  v052
 BYTE   W02
 BYTE   N02  An2  v036
 BYTE   W02
 BYTE   W01
 BYTE   N02
 BYTE   W01
 BYTE   W02
 BYTE   N02
 BYTE   W02
 BYTE   W01
 BYTE   N02
 BYTE   W01
 BYTE   N11  Fs1  v052
 BYTE   W02
 BYTE   N02  An2  v036
 BYTE   W02
 BYTE   W01
 BYTE   N02
 BYTE   W01
 BYTE   W02
 BYTE   N02
 BYTE   W02
 BYTE   W01
 BYTE   N02
 BYTE   W01
 BYTE   N11  Dn1  v052
 BYTE   N11  Fs1
 BYTE   W02
 BYTE   N02  An2  v036
 BYTE   W02
 BYTE   W01
 BYTE   N02
 BYTE   W01
 BYTE   W02
 BYTE   N02
 BYTE   W02
 BYTE   W01
 BYTE   N02
 BYTE   W01
 BYTE   W02
 BYTE   N02
 BYTE   W02
 BYTE   W01
 BYTE   N02
 BYTE   W01
 BYTE   W02
 BYTE   N02
 BYTE   W02
 BYTE   W01
 BYTE   N02
 BYTE   W01
 BYTE   N11  Dn1  v052
 BYTE   N11  Fs1
 BYTE   W02
 BYTE   N02  An2  v036
 BYTE   W02
 BYTE   W01
 BYTE   N02
 BYTE   W01
 BYTE   W02
 BYTE   N02
 BYTE   W02
 BYTE   W01
 BYTE   N02
 BYTE   W01
 BYTE   N05  Dn1
 BYTE   N11  Fs1  v052
 BYTE   W02
 BYTE   N02  An2  v036
 BYTE   W02
 BYTE   W01
 BYTE   N02
 BYTE   W01
 BYTE   N05  Dn1
 BYTE   W02
 BYTE   N02  An2
 BYTE   W02
 BYTE   W01
 BYTE   N02
 BYTE   W01
 BYTE   N05  Dn1
 BYTE   N05  Fs1  v052
 BYTE   W02
 BYTE   N02  An2  v036
 BYTE   W02
 BYTE   W01
 BYTE   N02
 BYTE   W01
 BYTE   N05  Dn1
 BYTE   N05  Fs1  v052
 BYTE   W02
 BYTE   N02  An2  v036
 BYTE   W02
 BYTE   W02
// 015   ----------------------------------------
Label_9_0128F4C8:
 BYTE   N92  Bn0  v064
 BYTE   N11  Dn1  v052
 BYTE   N11  Fs1
 BYTE   W12
 BYTE   Dn1  v036
 BYTE   N11  Fs1  v052
 BYTE   W12
 BYTE   Dn1  v036
 BYTE   N11  Fs1  v052
 BYTE   W12
 BYTE   Dn1
 BYTE   N11  Fs1
 BYTE   W24
 BYTE   N11
 BYTE   W12
 BYTE   N11
 BYTE   W12
 BYTE   N05  Dn1
 BYTE   N05  Fs1
 BYTE   W06
 BYTE   Dn1
 BYTE   N05  Fs1
 BYTE   W06
 BYTE   PEND 
// 016   ----------------------------------------
Label_9_0128F4EF:
 BYTE   N92  Bn0  v064
 BYTE   N11  Dn1  v052
 BYTE   N11  Fs1
 BYTE   W12
 BYTE   N11
 BYTE   W12
 BYTE   N11
 BYTE   W12
 BYTE   Dn1
 BYTE   N11  Fs1
 BYTE   W24
 BYTE   Dn1
 BYTE   N11  Fs1
 BYTE   W12
 BYTE   N11
 BYTE   W12
 BYTE   N05
 BYTE   W06
 BYTE   N05
 BYTE   W06
 BYTE   PEND 
 BYTE   PATT
  POIN2 Label_9_0128F4C8
 BYTE   PATT
  POIN2 Label_9_0128F4EF
 BYTE   PATT
  POIN2 Label_9_0128F4C8
 BYTE   PATT
  POIN2 Label_9_0128F4EF
 BYTE   PATT
  POIN2 Label_9_0128F4C8
 BYTE   PATT
  POIN2 Label_9_0128F4EF
// 017   ----------------------------------------
Label_9_0128F529:
 BYTE   N92  Bn0  v064
 BYTE   N11  Dn1  v052
 BYTE   N11  Fs1
 BYTE   W12
 BYTE   Dn1  v036
 BYTE   N11  Fs1  v052
 BYTE   W12
 BYTE   Dn1  v036
 BYTE   N11  Fs1  v052
 BYTE   W12
 BYTE   Dn1
 BYTE   N11  Fs1
 BYTE   W12
 BYTE   Dn1  v036
 BYTE   W12
 BYTE   N11
 BYTE   N11  Fs1  v052
 BYTE   W12
 BYTE   Dn1  v036
 BYTE   N11  Fs1  v052
 BYTE   W12
 BYTE   N05  Dn1
 BYTE   N05  Fs1
 BYTE   W06
 BYTE   Dn1
 BYTE   N05  Fs1
 BYTE   W06
 BYTE   PEND 
// 018   ----------------------------------------
Label_9_0128F55A:
 BYTE   N92  Bn0  v064
 BYTE   N11  Dn1  v052
 BYTE   N11  Fs1
 BYTE   W12
 BYTE   N11
 BYTE   W12
 BYTE   N11
 BYTE   W12
 BYTE   Dn1
 BYTE   N11  Fs1
 BYTE   W24
 BYTE   Dn1
 BYTE   N11  Fs1
 BYTE   W12
 BYTE   N05  Dn1  v036
 BYTE   N11  Fs1  v052
 BYTE   W06
 BYTE   N05  Dn1  v036
 BYTE   W06
 BYTE   N05
 BYTE   N05  Fs1  v052
 BYTE   W06
 BYTE   Dn1  v036
 BYTE   N05  Fs1  v052
 BYTE   W06
 BYTE   PEND 
 BYTE   PATT
  POIN2 Label_9_0128F529
 BYTE   PATT
  POIN2 Label_9_0128F55A
 BYTE   PATT
  POIN2 Label_9_0128F529
 BYTE   PATT
  POIN2 Label_9_0128F55A
// 019   ----------------------------------------
 BYTE   N68  Bn0  v064
 BYTE   N23  Dn1  v036
 BYTE   N23  Fs1  v052
 BYTE   N02  An2  v036
 BYTE   W02
 BYTE   N02
 BYTE   W03
 BYTE   N02
 BYTE   W01
 BYTE   W02
 BYTE   N02
 BYTE   W01
 BYTE   W02
 BYTE   N02
 BYTE   W01
 BYTE   W02
 BYTE   N02
 BYTE   W01
 BYTE   W02
 BYTE   N02
 BYTE   W01
 BYTE   W02
 BYTE   N02
 BYTE   W01
 BYTE   W02
 BYTE   N02
 BYTE   W01
 BYTE   N11  Dn1  v044
 BYTE   N11  Fs1  v052
 BYTE   W02
 BYTE   N02  An2  v036
 BYTE   W01
 BYTE   W02
 BYTE   N02
 BYTE   W01
 BYTE   W02
 BYTE   N02
 BYTE   W01
 BYTE   W02
 BYTE   N02
 BYTE   W01
 BYTE   N11  Dn1  v052
 BYTE   N11  Fs1
 BYTE   W02
 BYTE   N02  An2  v036
 BYTE   W01
 BYTE   W02
 BYTE   N02
 BYTE   W01
 BYTE   W02
 BYTE   N02
 BYTE   W01
 BYTE   W02
 BYTE   N02
 BYTE   W01
 BYTE   N11  Dn1  v056
 BYTE   N11  Fs1  v052
 BYTE   W02
 BYTE   N02  An2  v036
 BYTE   W01
 BYTE   W02
 BYTE   N02
 BYTE   W01
 BYTE   W02
 BYTE   N02
 BYTE   W01
 BYTE   W02
 BYTE   N02
 BYTE   W01
 BYTE   N11  Dn1  v064
 BYTE   N11  Fs1  v052
 BYTE   W01
 BYTE   W01
 BYTE   N02  An2  v036
 BYTE   W02
 BYTE   W01
 BYTE   N02
 BYTE   W02
 BYTE   W01
 BYTE   N02
 BYTE   W02
 BYTE   W01
 BYTE   N02
 BYTE   W01
 BYTE   N11  Bn0  v064
 BYTE   N11  Dn1  v068
 BYTE   N05  Fs1  v052
 BYTE   W01
 BYTE   W01
 BYTE   N02  An2  v036
 BYTE   W02
 BYTE   W01
 BYTE   N02
 BYTE   W01
 BYTE   N05  Fs1  v052
 BYTE   W01
 BYTE   W01
 BYTE   N02  An2  v036
 BYTE   W02
 BYTE   W01
 BYTE   N02
 BYTE   W01
 BYTE   N11  Bn0  v064
 BYTE   N11  Dn1  v076
 BYTE   N05  Fs1  v052
 BYTE   W01
 BYTE   W01
 BYTE   N02  An2  v036
 BYTE   W02
 BYTE   W01
 BYTE   N02
 BYTE   W01
 BYTE   N05  Fs1  v052
 BYTE   W01
 BYTE   W01
 BYTE   N02  An2  v036
 BYTE   W02
 BYTE   W02
// 020   ----------------------------------------
 BYTE   W96
// 021   ----------------------------------------
Label_9_0128F648:
 BYTE   N11  Bn0  v064
 BYTE   N11  Dn1
 BYTE   N11  Fs1  v080
 BYTE   N92  An2  v064
 BYTE   W12
 BYTE   N11  Bn0
 BYTE   N02  Fs1  v080
 BYTE   W03
 BYTE   N02
 BYTE   W03
 BYTE   N02
 BYTE   W03
 BYTE   N02
 BYTE   W03
 BYTE   N11
 BYTE   W12
 BYTE   N23  Bn0  v064
 BYTE   N11  Dn1
 BYTE   N11  Fs1  v080
 BYTE   W12
 BYTE   N11
 BYTE   W12
 BYTE   N23  Bn0  v064
 BYTE   N11  Fs1  v080
 BYTE   W12
 BYTE   N05
 BYTE   W06
 BYTE   N05
 BYTE   W06
 BYTE   Dn1  v064
 BYTE   N11  Fs1  v080
 BYTE   W06
 BYTE   N05  Dn1  v064
 BYTE   W06
 BYTE   PEND 
// 022   ----------------------------------------
Label_9_0128F683:
 BYTE   N11  Bn0  v064
 BYTE   N11  Dn1
 BYTE   N11  Fs1  v080
 BYTE   W12
 BYTE   Bn0  v064
 BYTE   N11  Fs1  v080
 BYTE   W12
 BYTE   N11
 BYTE   W12
 BYTE   N23  Bn0  v064
 BYTE   N23  Dn1
 BYTE   N11  Fs1  v080
 BYTE   W12
 BYTE   N05
 BYTE   W06
 BYTE   N05
 BYTE   W06
 BYTE   N23  Bn0  v064
 BYTE   N11  Dn1
 BYTE   N11  Fs1  v080
 BYTE   W12
 BYTE   N11
 BYTE   W12
 BYTE   N11
 BYTE   W12
 BYTE   PEND 
// 023   ----------------------------------------
Label_9_0128F6AF:
 BYTE   N11  Bn0  v064
 BYTE   N11  Dn1
 BYTE   N11  Fs1  v080
 BYTE   N32  An2  v064
 BYTE   W12
 BYTE   N11  Bn0
 BYTE   N02  Fs1  v080
 BYTE   W03
 BYTE   N02
 BYTE   W03
 BYTE   N02
 BYTE   W03
 BYTE   N02
 BYTE   W03
 BYTE   N11
 BYTE   W12
 BYTE   N23  Bn0  v064
 BYTE   N11  Dn1
 BYTE   N11  Fs1  v080
 BYTE   N11  An2  v064
 BYTE   W12
 BYTE   Fs1  v080
 BYTE   W12
 BYTE   N23  Bn0  v064
 BYTE   N11  Fs1  v080
 BYTE   W12
 BYTE   N05
 BYTE   W06
 BYTE   N05
 BYTE   W06
 BYTE   Dn1  v064
 BYTE   N11  Fs1  v080
 BYTE   W06
 BYTE   N05  Dn1  v064
 BYTE   W06
 BYTE   PEND 
 BYTE   PATT
  POIN2 Label_9_0128F683
 BYTE   PATT
  POIN2 Label_9_0128F648
 BYTE   PATT
  POIN2 Label_9_0128F683
 BYTE   PATT
  POIN2 Label_9_0128F6AF
// 024   ----------------------------------------
Label_9_0128F702:
 BYTE   N11  Bn0  v064
 BYTE   N11  Dn1
 BYTE   N11  Fs1  v080
 BYTE   W12
 BYTE   Bn0  v064
 BYTE   N11  Fs1  v080
 BYTE   W12
 BYTE   N11
 BYTE   W12
 BYTE   N23  Bn0  v064
 BYTE   N23  Dn1
 BYTE   N11  Fs1  v080
 BYTE   W12
 BYTE   N05
 BYTE   N02  An2  v064
 BYTE   W02
 BYTE   N02
 BYTE   W03
 BYTE   N02
 BYTE   W01
 BYTE   N05  Fs1  v080
 BYTE   W02
 BYTE   N02  An2  v064
 BYTE   W03
 BYTE   N02
 BYTE   W01
 BYTE   N23  Bn0
 BYTE   N11  Dn1
 BYTE   N11  Fs1  v080
 BYTE   W02
 BYTE   N02  An2  v064
 BYTE   W03
 BYTE   N02
 BYTE   W03
 BYTE   N02
 BYTE   W03
 BYTE   N02
 BYTE   W01
 BYTE   N11  Fs1  v080
 BYTE   W02
 BYTE   N02  An2  v064
 BYTE   W03
 BYTE   N02
 BYTE   W03
 BYTE   N02
 BYTE   W03
 BYTE   N02
 BYTE   W01
 BYTE   N11  Fs1  v080
 BYTE   W02
 BYTE   N02  An2  v064
 BYTE   W03
 BYTE   N02
 BYTE   W03
 BYTE   N02
 BYTE   W04
 BYTE   PEND 
// 025   ----------------------------------------
 BYTE   N11  Bn0
 BYTE   N11  Dn1
 BYTE   N11  Fs1  v080
 BYTE   W12
 BYTE   Bn0  v064
 BYTE   N02  Fs1  v080
 BYTE   W03
 BYTE   N02
 BYTE   W03
 BYTE   N02
 BYTE   W03
 BYTE   N02
 BYTE   W03
 BYTE   N11
 BYTE   W12
 BYTE   N23  Bn0  v064
 BYTE   N11  Dn1
 BYTE   N11  Fs1  v080
 BYTE   W12
 BYTE   N11
 BYTE   W12
 BYTE   N23  Bn0  v064
 BYTE   N11  Fs1  v080
 BYTE   W12
 BYTE   N05
 BYTE   W06
 BYTE   N05
 BYTE   W06
 BYTE   Dn1  v064
 BYTE   N11  Fs1  v080
 BYTE   W06
 BYTE   N05  Dn1  v064
 BYTE   W06
 BYTE   PATT
  POIN2 Label_9_0128F683
 BYTE   PATT
  POIN2 Label_9_0128F6AF
 BYTE   PATT
  POIN2 Label_9_0128F683
 BYTE   PATT
  POIN2 Label_9_0128F648
 BYTE   PATT
  POIN2 Label_9_0128F683
 BYTE   PATT
  POIN2 Label_9_0128F6AF
 BYTE   PATT
  POIN2 Label_9_0128F702
// 026   ----------------------------------------
Label_9_0128F7B5:
 BYTE   N92  Bn0  v080
 BYTE   N11  Dn1  v064
 BYTE   W36
 BYTE   N11
 BYTE   W48
 BYTE   N05
 BYTE   W06
 BYTE   N05
 BYTE   W06
 BYTE   PEND 
// 027   ----------------------------------------
Label_9_0128F7C3:
 BYTE   N11  Dn1  v064
 BYTE   W36
 BYTE   N11
 BYTE   W48
 BYTE   N05
 BYTE   W06
 BYTE   N05
 BYTE   W06
 BYTE   PEND 
 BYTE   PATT
  POIN2 Label_9_0128F7B5
// 028   ----------------------------------------
Label_9_0128F7D3:
 BYTE   N11  Dn1  v064
 BYTE   W36
 BYTE   N23
 BYTE   W24
 BYTE   N11
 BYTE   W12
 BYTE   N05
 BYTE   W06
 BYTE   N05
 BYTE   W06
 BYTE   N05
 BYTE   W06
 BYTE   N05
 BYTE   W06
 BYTE   PEND 
 BYTE   PATT
  POIN2 Label_9_0128F7B5
 BYTE   PATT
  POIN2 Label_9_0128F7C3
 BYTE   PATT
  POIN2 Label_9_0128F7B5
// 029   ----------------------------------------
Label_9_0128F7F3:
 BYTE   N02  An2  v036
 BYTE   W02
 BYTE   N02
 BYTE   W03
 BYTE   N02
 BYTE   W01
 BYTE   W02
 BYTE   N02
 BYTE   W01
 BYTE   W02
 BYTE   N02
 BYTE   W01
 BYTE   N11  Dn1  v064
 BYTE   W02
 BYTE   N02  An2  v036
 BYTE   W01
 BYTE   W02
 BYTE   N02
 BYTE   W01
 BYTE   W02
 BYTE   N02
 BYTE   W01
 BYTE   W02
 BYTE   N02
 BYTE   W01
 BYTE   N11  Dn1  v064
 BYTE   W02
 BYTE   N02  An2  v036
 BYTE   W01
 BYTE   W02
 BYTE   N02
 BYTE   W01
 BYTE   W02
 BYTE   N02
 BYTE   W01
 BYTE   W02
 BYTE   N02
 BYTE   W01
 BYTE   N11  Dn1  v064
 BYTE   W02
 BYTE   N02  An2  v036
 BYTE   W01
 BYTE   W02
 BYTE   N02
 BYTE   W01
 BYTE   W02
 BYTE   N02
 BYTE   W01
 BYTE   W02
 BYTE   N02
 BYTE   W01
 BYTE   W02
 BYTE   N02
 BYTE   W01
 BYTE   W02
 BYTE   N02
 BYTE   W01
 BYTE   W02
 BYTE   N02
 BYTE   W01
 BYTE   W02
 BYTE   N02
 BYTE   W01
 BYTE   N11  Dn1  v064
 BYTE   W01
 BYTE   W01
 BYTE   N02  An2  v036
 BYTE   W02
 BYTE   W01
 BYTE   N02
 BYTE   W02
 BYTE   W01
 BYTE   N02
 BYTE   W02
 BYTE   W01
 BYTE   N02
 BYTE   W01
 BYTE   N05  Dn1  v064
 BYTE   W01
 BYTE   W01
 BYTE   N02  An2  v036
 BYTE   W02
 BYTE   W01
 BYTE   N02
 BYTE   W01
 BYTE   N05  Dn1  v064
 BYTE   W01
 BYTE   W01
 BYTE   N02  An2  v036
 BYTE   W02
 BYTE   W01
 BYTE   N02
 BYTE   W01
 BYTE   N05  Dn1  v064
 BYTE   W01
 BYTE   W01
 BYTE   N02  An2  v036
 BYTE   W02
 BYTE   W01
 BYTE   N02
 BYTE   W01
 BYTE   N05  Dn1  v064
 BYTE   W01
 BYTE   W01
 BYTE   N02  An2  v036
 BYTE   W02
 BYTE   W02
 BYTE   PEND 
 BYTE   PATT
  POIN2 Label_9_0128F7B5
 BYTE   PATT
  POIN2 Label_9_0128F7C3
 BYTE   PATT
  POIN2 Label_9_0128F7B5
 BYTE   PATT
  POIN2 Label_9_0128F7D3
 BYTE   PATT
  POIN2 Label_9_0128F7B5
 BYTE   PATT
  POIN2 Label_9_0128F7C3
 BYTE   PATT
  POIN2 Label_9_0128F7B5
 BYTE   PATT
  POIN2 Label_9_0128F7F3
// 030   ----------------------------------------
Label_9_0128F8A9:
 BYTE   N23  Bn0  v052
 BYTE   W24
 BYTE   N23
 BYTE   W24
 BYTE   N23
 BYTE   W24
 BYTE   N23
 BYTE   W24
 BYTE   PEND 
 BYTE   PATT
  POIN2 Label_9_0128F8A9
 BYTE   PATT
  POIN2 Label_9_0128F8A9
 BYTE   PATT
  POIN2 Label_9_0128F8A9
 BYTE   PATT
  POIN2 Label_9_0128F8A9
 BYTE   PATT
  POIN2 Label_9_0128F8A9
 BYTE   PATT
  POIN2 Label_9_0128F8A9
// 031   ----------------------------------------
 BYTE   N23  Bn0  v052
 BYTE   N02  An2  v036
 BYTE   W02
 BYTE   N02
 BYTE   W03
 BYTE   N02
 BYTE   W01
 BYTE   W02
 BYTE   N02
 BYTE   W01
 BYTE   W02
 BYTE   N02
 BYTE   W01
 BYTE   W02
 BYTE   N02
 BYTE   W01
 BYTE   W02
 BYTE   N02
 BYTE   W01
 BYTE   W02
 BYTE   N02
 BYTE   W01
 BYTE   W02
 BYTE   N02
 BYTE   W01
 BYTE   N23  Bn0  v052
 BYTE   W02
 BYTE   N02  An2  v036
 BYTE   W01
 BYTE   W02
 BYTE   N02
 BYTE   W01
 BYTE   W02
 BYTE   N02
 BYTE   W01
 BYTE   W02
 BYTE   N02
 BYTE   W01
 BYTE   W02
 BYTE   N02
 BYTE   W01
 BYTE   W02
 BYTE   N02
 BYTE   W01
 BYTE   W02
 BYTE   N02
 BYTE   W01
 BYTE   W02
 BYTE   N02
 BYTE   W01
 BYTE   N23  Bn0  v052
 BYTE   W02
 BYTE   N02  An2  v036
 BYTE   W01
 BYTE   W02
 BYTE   N02
 BYTE   W01
 BYTE   W02
 BYTE   N02
 BYTE   W01
 BYTE   W02
 BYTE   N02
 BYTE   W02
 BYTE   W01
 BYTE   N02
 BYTE   W02
 BYTE   W01
 BYTE   N02
 BYTE   W02
 BYTE   W01
 BYTE   N02
 BYTE   W02
 BYTE   W01
 BYTE   N02
 BYTE   W01
 BYTE   N23  Bn0  v052
 BYTE   W01
 BYTE   W01
 BYTE   N02  An2  v036
 BYTE   W02
 BYTE   W01
 BYTE   N02
 BYTE   W02
 BYTE   W01
 BYTE   N02
 BYTE   W02
 BYTE   W01
 BYTE   N02
 BYTE   W02
 BYTE   W01
 BYTE   N02
 BYTE   W02
 BYTE   W01
 BYTE   N02
 BYTE   W02
 BYTE   W01
 BYTE   N02
 BYTE   W02
 BYTE   W02
// 032   ----------------------------------------
 BYTE   N32  Bn0  v064
 BYTE   N11  Fs1  v080
 BYTE   W12
 BYTE   Gs1
 BYTE   W12
 BYTE   N32  Cs1  v064
 BYTE   N11  Fs1  v080
 BYTE   W12
 BYTE   N32  Bn0  v064
 BYTE   N11  Gs1  v080
 BYTE   W12
 BYTE   Fs1
 BYTE   W12
 BYTE   N32  Cs1  v064
 BYTE   N11  Gs1  v080
 BYTE   W12
 BYTE   N23  Bn0  v064
 BYTE   N11  Fs1  v080
 BYTE   W12
 BYTE   Gs1
 BYTE   W12
// 033   ----------------------------------------
Label_9_0128F96E:
 BYTE   N32  Cs1  v064
 BYTE   N11  Fs1  v080
 BYTE   W12
 BYTE   N23  Bn0  v064
 BYTE   N11  Gs1  v080
 BYTE   W12
 BYTE   Fs1
 BYTE   W12
 BYTE   N32  Cs1  v064
 BYTE   N11  Gs1  v080
 BYTE   W12
 BYTE   N05  Bn0  v064
 BYTE   N11  Fs1  v080
 BYTE   W06
 BYTE   N05  Bn0  v064
 BYTE   W06
 BYTE   N11
 BYTE   N11  Gs1  v080
 BYTE   W12
 BYTE   N23  Cs1  v064
 BYTE   N11  Fs1  v080
 BYTE   W12
 BYTE   Gs1
 BYTE   W12
 BYTE   PEND 
// 034   ----------------------------------------
Label_9_0128F99F:
 BYTE   N32  Bn0  v064
 BYTE   N11  Fs1  v080
 BYTE   W12
 BYTE   Gs1
 BYTE   W12
 BYTE   N23  Cs1  v064
 BYTE   N11  Fs1  v080
 BYTE   W12
 BYTE   N23  Bn0  v064
 BYTE   N11  Gs1  v080
 BYTE   W12
 BYTE   Fs1
 BYTE   W12
 BYTE   N23  Bn0  v064
 BYTE   N11  Gs1  v080
 BYTE   W12
 BYTE   N23  Cs1  v064
 BYTE   N11  Fs1  v080
 BYTE   W12
 BYTE   Gs1
 BYTE   W12
 BYTE   PEND 
// 035   ----------------------------------------
 BYTE   N23  Bn0  v064
 BYTE   N11  Fs1  v080
 BYTE   W12
 BYTE   Gs1
 BYTE   W12
 BYTE   N23  Cs1  v064
 BYTE   N11  Fs1  v080
 BYTE   W12
 BYTE   N05  Bn0  v064
 BYTE   N11  Gs1  v080
 BYTE   W06
 BYTE   N05  Bn0  v064
 BYTE   W06
 BYTE   N23
 BYTE   N11  Fs1  v080
 BYTE   W12
 BYTE   Gs1
 BYTE   W12
 BYTE   N23  Bn0  v064
 BYTE   N05  Cs1
 BYTE   N05  Fs1  v080
 BYTE   W06
 BYTE   N05
 BYTE   W06
 BYTE   N11  Cs1  v064
 BYTE   N11  Gs1  v080
 BYTE   W12
// 036   ----------------------------------------
 BYTE   N32  Bn0  v064
 BYTE   N11  Fs1  v080
 BYTE   W12
 BYTE   Gs1
 BYTE   W12
 BYTE   N32  Cs1  v064
 BYTE   N11  Fs1  v080
 BYTE   W12
 BYTE   N23  Bn0  v064
 BYTE   N11  Gs1  v080
 BYTE   W12
 BYTE   Fs1
 BYTE   W12
 BYTE   N23  Bn0  v064
 BYTE   N32  Cs1
 BYTE   N11  Gs1  v080
 BYTE   W12
 BYTE   Fs1
 BYTE   W12
 BYTE   Gs1
 BYTE   W12
 BYTE   PATT
  POIN2 Label_9_0128F96E
 BYTE   PATT
  POIN2 Label_9_0128F99F
// 037   ----------------------------------------
 BYTE   N23  Bn0  v064
 BYTE   N11  Fs1  v080
 BYTE   N02  An2  v036
 BYTE   W02
 BYTE   N02
 BYTE   W02
 BYTE   W01
 BYTE   N02
 BYTE   W01
 BYTE   W02
 BYTE   N02
 BYTE   W02
 BYTE   W01
 BYTE   N02
 BYTE   W01
 BYTE   N11  Gs1  v080
 BYTE   W02
 BYTE   N02  An2  v036
 BYTE   W02
 BYTE   W01
 BYTE   N02
 BYTE   W01
 BYTE   W02
 BYTE   N02
 BYTE   W02
 BYTE   W01
 BYTE   N02
 BYTE   W01
 BYTE   N23  Cs1  v064
 BYTE   N11  As1  v080
 BYTE   W02
 BYTE   N02  An2  v036
 BYTE   W02
 BYTE   W01
 BYTE   N02
 BYTE   W01
 BYTE   W02
 BYTE   N02
 BYTE   W02
 BYTE   W01
 BYTE   N02
 BYTE   W01
 BYTE   N05  Bn0  v064
 BYTE   N11  Fs1  v080
 BYTE   W02
 BYTE   N02  An2  v036
 BYTE   W02
 BYTE   W01
 BYTE   N02
 BYTE   W01
 BYTE   N05  Bn0  v064
 BYTE   W02
 BYTE   N02  An2  v036
 BYTE   W02
 BYTE   W01
 BYTE   N02
 BYTE   W01
 BYTE   N23  Bn0  v064
 BYTE   N05  Fs1  v080
 BYTE   W02
 BYTE   N02  An2  v036
 BYTE   W01
 BYTE   W01
 BYTE   W01
 BYTE   N02
 BYTE   W01
 BYTE   N05  Fs1  v084
 BYTE   W02
 BYTE   N02  An2  v036
 BYTE   W01
 BYTE   W01
 BYTE   W01
 BYTE   N02
 BYTE   W01
 BYTE   N11  Cs1  v064
 BYTE   N05  Fs1  v084
 BYTE   W02
 BYTE   N02  An2  v036
 BYTE   W01
 BYTE   W01
 BYTE   W01
 BYTE   N02
 BYTE   W01
 BYTE   N05  Fs1  v088
 BYTE   W02
 BYTE   N02  An2  v036
 BYTE   W01
 BYTE   W01
 BYTE   W01
 BYTE   N02
 BYTE   W01
 BYTE   N23  Bn0  v064
 BYTE   N23  Cs1
 BYTE   N05  Fs1  v088
 BYTE   W02
 BYTE   N02  An2  v036
 BYTE   W01
 BYTE   W01
 BYTE   W01
 BYTE   N02
 BYTE   W01
 BYTE   N05  Fs1  v092
 BYTE   W02
 BYTE   N02  An2  v036
 BYTE   W01
 BYTE   W01
 BYTE   W01
 BYTE   N02
 BYTE   W01
 BYTE   N05  Fs1  v092
 BYTE   W02
 BYTE   N02  An2  v036
 BYTE   W01
 BYTE   W01
 BYTE   W01
 BYTE   N02
 BYTE   W01
 BYTE   N05  Fs1  v096
 BYTE   W02
 BYTE   N02  An2  v036
 BYTE   W01
 BYTE   W01
 BYTE   W02
// 038   ----------------------------------------
Label_9_0128FAE9:
 BYTE   N32  Bn0  v080
 BYTE   N32  Dn1  v064
 BYTE   N32  An2  v080
 BYTE   W36
 BYTE   Bn0
 BYTE   N32  Dn1  v064
 BYTE   N32  An2  v080
 BYTE   W36
 BYTE   N23  Bn0
 BYTE   N23  Dn1  v064
 BYTE   N23  An2  v080
 BYTE   W24
 BYTE   PEND 
// 039   ----------------------------------------
Label_9_0128FB05:
 BYTE   N32  Dn1  v064
 BYTE   W36
 BYTE   N32
 BYTE   W12
 BYTE   N44  Bn0  v080
 BYTE   N44  An2
 BYTE   W48
 BYTE   PEND 
// 040   ----------------------------------------
Label_9_0128FB12:
 BYTE   N92  Bn0  v080
 BYTE   N32  Dn1  v064
 BYTE   N92  An2  v080
 BYTE   W36
 BYTE   N32  Dn1  v064
 BYTE   W36
 BYTE   N23
 BYTE   W24
 BYTE   PEND 
// 041   ----------------------------------------
Label_9_0128FB23:
 BYTE   N92  Bn0  v080
 BYTE   N32  Dn1  v064
 BYTE   N92  An2  v080
 BYTE   W36
 BYTE   N32  Dn1  v064
 BYTE   W60
 BYTE   PEND 
 BYTE   PATT
  POIN2 Label_9_0128FAE9
 BYTE   PATT
  POIN2 Label_9_0128FB05
 BYTE   PATT
  POIN2 Label_9_0128FB12
 BYTE   PATT
  POIN2 Label_9_0128FB23
// 042   ----------------------------------------
 BYTE   N32  Bn0  v080
 BYTE   N32  Dn1  v064
 BYTE   N11  Fs1  v096
 BYTE   N32  An2  v064
 BYTE   W12
 BYTE   N11  Fs1  v096
 BYTE   W12
 BYTE   N11
 BYTE   W12
 BYTE   N32  Bn0  v080
 BYTE   N32  Dn1  v064
 BYTE   N02  Fs1  v096
 BYTE   N32  An2  v064
 BYTE   W03
 BYTE   N02  Fs1  v096
 BYTE   W03
 BYTE   N02
 BYTE   W03
 BYTE   N02
 BYTE   W03
 BYTE   N11
 BYTE   W12
 BYTE   N11
 BYTE   W12
 BYTE   N23  Bn0  v080
 BYTE   N23  Dn1  v064
 BYTE   N11  Fs1  v096
 BYTE   N23  An2  v064
 BYTE   W12
 BYTE   N11  Fs1  v096
 BYTE   W12
// 043   ----------------------------------------
 BYTE   N32  Dn1  v064
 BYTE   N11  Fs1  v096
 BYTE   W12
 BYTE   N11
 BYTE   W12
 BYTE   N11
 BYTE   W12
 BYTE   N32  Dn1  v064
 BYTE   N11  Fs1  v096
 BYTE   W12
 BYTE   N44  Bn0  v080
 BYTE   N11  Fs1  v096
 BYTE   N44  An2  v064
 BYTE   W12
 BYTE   N11  Fs1  v096
 BYTE   W12
 BYTE   N11
 BYTE   W12
 BYTE   N02
 BYTE   W03
 BYTE   N02
 BYTE   W03
 BYTE   N02
 BYTE   W03
 BYTE   N02
 BYTE   W03
// 044   ----------------------------------------
 BYTE   N92  Bn0  v080
 BYTE   N32  Dn1  v064
 BYTE   N11  Fs1  v096
 BYTE   N92  An2  v064
 BYTE   W12
 BYTE   N11  Fs1  v096
 BYTE   W12
 BYTE   N11
 BYTE   W12
 BYTE   N32  Dn1  v064
 BYTE   N11  Fs1  v096
 BYTE   W12
 BYTE   N11
 BYTE   W12
 BYTE   N11
 BYTE   W12
 BYTE   N23  Dn1  v064
 BYTE   N11  Fs1  v096
 BYTE   W12
 BYTE   N11
 BYTE   W12
// 045   ----------------------------------------
 BYTE   N92  Bn0  v080
 BYTE   N32  Dn1  v064
 BYTE   N11  Fs1  v096
 BYTE   N92  An2  v064
 BYTE   W12
 BYTE   N11  Fs1  v096
 BYTE   W12
 BYTE   N11
 BYTE   W12
 BYTE   N32  Dn1  v064
 BYTE   N11  Fs1  v096
 BYTE   W12
 BYTE   N11
 BYTE   W12
 BYTE   N11
 BYTE   W12
 BYTE   N11
 BYTE   W12
 BYTE   N11
 BYTE   W12
// 046   ----------------------------------------
 BYTE   N32  Bn0  v080
 BYTE   N32  Dn1  v064
 BYTE   N11  Fs1  v096
 BYTE   N32  An2  v064
 BYTE   W12
 BYTE   N11  Fs1  v096
 BYTE   W12
 BYTE   N11
 BYTE   W12
 BYTE   N32  Bn0  v080
 BYTE   N32  Dn1  v064
 BYTE   N11  Fs1  v096
 BYTE   N32  An2  v064
 BYTE   W12
 BYTE   N11  Fs1  v096
 BYTE   W12
 BYTE   N11
 BYTE   W12
 BYTE   N23  Bn0  v080
 BYTE   N23  Dn1  v064
 BYTE   N11  Fs1  v096
 BYTE   N23  An2  v064
 BYTE   W12
 BYTE   N11  Fs1  v096
 BYTE   W12
// 047   ----------------------------------------
 BYTE   N32  Dn1  v064
 BYTE   N11  Fs1  v096
 BYTE   W12
 BYTE   N11
 BYTE   W12
 BYTE   N11
 BYTE   W12
 BYTE   N32  Dn1  v064
 BYTE   N11  Fs1  v096
 BYTE   W12
 BYTE   N44  Bn0  v080
 BYTE   N11  Fs1  v096
 BYTE   W12
 BYTE   N11
 BYTE   W12
 BYTE   N11
 BYTE   W12
 BYTE   N11
 BYTE   W12
// 048   ----------------------------------------
 BYTE   N92  Bn0  v080
 BYTE   N11  Dn1  v064
 BYTE   N11  Fs1  v096
 BYTE   N92  An2  v064
 BYTE   W12
 BYTE   N11  Dn1
 BYTE   N11  Fs1  v096
 BYTE   W12
 BYTE   Dn1  v064
 BYTE   N11  Fs1  v096
 BYTE   W12
 BYTE   Dn1  v064
 BYTE   N11  Fs1  v096
 BYTE   W12
 BYTE   N05  Dn1  v064
 BYTE   N11  Fs1  v096
 BYTE   W06
 BYTE   N05  Dn1  v064
 BYTE   W06
 BYTE   N05
 BYTE   N11  Fs1  v096
 BYTE   W06
 BYTE   N05  Dn1  v064
 BYTE   W06
 BYTE   N05
 BYTE   N11  Fs1  v096
 BYTE   W06
 BYTE   N05  Dn1  v064
 BYTE   W06
 BYTE   N05
 BYTE   N11  Fs1  v096
 BYTE   W06
 BYTE   N05  Dn1  v064
 BYTE   W06
// 049   ----------------------------------------
 BYTE   W96
// 050   ----------------------------------------
Label_9_0128FC92:
 BYTE   N32  Bn0  v080
 BYTE   N32  Dn1  v064
 BYTE   N11  Fs1
 BYTE   N92  An2
 BYTE   W12
 BYTE   N02  Fs1
 BYTE   W03
 BYTE   N02
 BYTE   W03
 BYTE   N02
 BYTE   W03
 BYTE   N02
 BYTE   W03
 BYTE   N02
 BYTE   W03
 BYTE   N02
 BYTE   W03
 BYTE   N02
 BYTE   W03
 BYTE   N02
 BYTE   W03
 BYTE   N56  Bn0  v080
 BYTE   N32  Dn1  v064
 BYTE   N02  Fs1
 BYTE   W03
 BYTE   N02
 BYTE   W03
 BYTE   N02
 BYTE   W03
 BYTE   N02
 BYTE   W03
 BYTE   N11
 BYTE   W12
 BYTE   N02
 BYTE   W03
 BYTE   N02
 BYTE   W03
 BYTE   N02
 BYTE   W03
 BYTE   N02
 BYTE   W03
 BYTE   N23  Dn1
 BYTE   N02  Fs1
 BYTE   W03
 BYTE   N02
 BYTE   W03
 BYTE   N02
 BYTE   W03
 BYTE   N02
 BYTE   W03
 BYTE   N02
 BYTE   W03
 BYTE   N02
 BYTE   W03
 BYTE   N02
 BYTE   W03
 BYTE   N02
 BYTE   W03
 BYTE   PEND 
// 051   ----------------------------------------
Label_9_0128FCDB:
 BYTE   N32  Bn0  v080
 BYTE   N32  Dn1  v064
 BYTE   N11  Fs1
 BYTE   W12
 BYTE   N02
 BYTE   W03
 BYTE   N02
 BYTE   W03
 BYTE   N02
 BYTE   W03
 BYTE   N02
 BYTE   W03
 BYTE   N02
 BYTE   W03
 BYTE   N02
 BYTE   W03
 BYTE   N02
 BYTE   W03
 BYTE   N02
 BYTE   W03
 BYTE   N56  Bn0  v080
 BYTE   N32  Dn1  v064
 BYTE   N02  Fs1
 BYTE   W03
 BYTE   N02
 BYTE   W03
 BYTE   N02
 BYTE   W03
 BYTE   N02
 BYTE   W03
 BYTE   N11
 BYTE   W12
 BYTE   N02
 BYTE   W03
 BYTE   N02
 BYTE   W03
 BYTE   N02
 BYTE   W03
 BYTE   N02
 BYTE   W03
 BYTE   N02
 BYTE   W03
 BYTE   N02
 BYTE   W03
 BYTE   N02
 BYTE   W03
 BYTE   N02
 BYTE   W03
 BYTE   N02
 BYTE   W03
 BYTE   N02
 BYTE   W03
 BYTE   N02
 BYTE   W03
 BYTE   N02
 BYTE   W03
 BYTE   PEND 
// 052   ----------------------------------------
Label_9_0128FD1E:
 BYTE   N32  Bn0  v080
 BYTE   N32  Dn1  v064
 BYTE   N11  Fs1
 BYTE   W12
 BYTE   N02
 BYTE   W03
 BYTE   N02
 BYTE   W03
 BYTE   N02
 BYTE   W03
 BYTE   N02
 BYTE   W03
 BYTE   N02
 BYTE   W03
 BYTE   N02
 BYTE   W03
 BYTE   N02
 BYTE   W03
 BYTE   N02
 BYTE   W03
 BYTE   N56  Bn0  v080
 BYTE   N32  Dn1  v064
 BYTE   N02  Fs1
 BYTE   W03
 BYTE   N02
 BYTE   W03
 BYTE   N02
 BYTE   W03
 BYTE   N02
 BYTE   W03
 BYTE   N11
 BYTE   W12
 BYTE   N02
 BYTE   W03
 BYTE   N02
 BYTE   W03
 BYTE   N02
 BYTE   W03
 BYTE   N02
 BYTE   W03
 BYTE   N23  Dn1
 BYTE   N02  Fs1
 BYTE   W03
 BYTE   N02
 BYTE   W03
 BYTE   N02
 BYTE   W03
 BYTE   N02
 BYTE   W03
 BYTE   N02
 BYTE   W03
 BYTE   N02
 BYTE   W03
 BYTE   N02
 BYTE   W03
 BYTE   N02
 BYTE   W03
 BYTE   PEND 
 BYTE   PATT
  POIN2 Label_9_0128FCDB
 BYTE   PATT
  POIN2 Label_9_0128FC92
 BYTE   PATT
  POIN2 Label_9_0128FCDB
 BYTE   PATT
  POIN2 Label_9_0128FD1E
 BYTE   PATT
  POIN2 Label_9_0128FCDB
 BYTE   PATT
  POIN2 Label_9_0128FC92
 BYTE   PATT
  POIN2 Label_9_0128FCDB
 BYTE   PATT
  POIN2 Label_9_0128FD1E
 BYTE   PATT
  POIN2 Label_9_0128FCDB
 BYTE   PATT
  POIN2 Label_9_0128FD1E
 BYTE   PATT
  POIN2 Label_9_0128FCDB
 BYTE   PATT
  POIN2 Label_9_0128FC92
// 053   ----------------------------------------
 BYTE   N32  Bn0  v080
 BYTE   N32  Dn1  v064
 BYTE   N11  Fs1
 BYTE   N02  An2  v036
 BYTE   W02
 BYTE   N02
 BYTE   W03
 BYTE   N02
 BYTE   W01
 BYTE   W02
 BYTE   N02
 BYTE   W01
 BYTE   W02
 BYTE   N02
 BYTE   W01
 BYTE   Fs1  v064
 BYTE   W02
 BYTE   An2  v036
 BYTE   W01
 BYTE   Fs1  v064
 BYTE   W02
 BYTE   An2  v036
 BYTE   W01
 BYTE   Fs1  v064
 BYTE   W02
 BYTE   An2  v036
 BYTE   W01
 BYTE   Fs1  v064
 BYTE   W02
 BYTE   An2  v036
 BYTE   W01
 BYTE   Fs1  v064
 BYTE   W02
 BYTE   An2  v036
 BYTE   W01
 BYTE   Fs1  v064
 BYTE   W02
 BYTE   An2  v036
 BYTE   W01
 BYTE   Fs1  v064
 BYTE   W02
 BYTE   An2  v036
 BYTE   W01
 BYTE   Fs1  v064
 BYTE   W02
 BYTE   An2  v036
 BYTE   W01
 BYTE   N56  Bn0  v080
 BYTE   N32  Dn1  v064
 BYTE   N02  Fs1
 BYTE   W02
 BYTE   An2  v036
 BYTE   W01
 BYTE   Fs1  v064
 BYTE   W02
 BYTE   An2  v036
 BYTE   W01
 BYTE   Fs1  v064
 BYTE   W02
 BYTE   An2  v036
 BYTE   W01
 BYTE   Fs1  v064
 BYTE   W02
 BYTE   An2  v036
 BYTE   W01
 BYTE   N11  Fs1  v064
 BYTE   W02
 BYTE   N02  An2  v036
 BYTE   W01
 BYTE   W02
 BYTE   N02
 BYTE   W01
 BYTE   W02
 BYTE   N02
 BYTE   W01
 BYTE   W02
 BYTE   N02
 BYTE   W01
 BYTE   Fs1  v064
 BYTE   W01
 BYTE   W01
 BYTE   An2  v036
 BYTE   W01
 BYTE   Fs1  v064
 BYTE   W01
 BYTE   W01
 BYTE   An2  v036
 BYTE   W01
 BYTE   Fs1  v064
 BYTE   W01
 BYTE   W01
 BYTE   An2  v036
 BYTE   W01
 BYTE   Fs1  v064
 BYTE   W01
 BYTE   W01
 BYTE   An2  v036
 BYTE   W01
 BYTE   Fs1  v064
 BYTE   W01
 BYTE   W01
 BYTE   An2  v036
 BYTE   W01
 BYTE   Fs1  v064
 BYTE   W01
 BYTE   W01
 BYTE   An2  v036
 BYTE   W01
 BYTE   Fs1  v064
 BYTE   W01
 BYTE   W01
 BYTE   An2  v036
 BYTE   W01
 BYTE   Fs1  v064
 BYTE   W01
 BYTE   W01
 BYTE   An2  v036
 BYTE   W01
 BYTE   Fs1  v064
 BYTE   W01
 BYTE   W01
 BYTE   An2  v036
 BYTE   W01
 BYTE   Fs1  v064
 BYTE   W01
 BYTE   W01
 BYTE   An2  v036
 BYTE   W01
 BYTE   Fs1  v064
 BYTE   W01
 BYTE   W01
 BYTE   An2  v036
 BYTE   W01
 BYTE   Fs1  v064
 BYTE   W01
 BYTE   W02
// 054   ----------------------------------------
Label_9_0128FE66:
 BYTE   N32  Dn1  v064
 BYTE   W36
 BYTE   N32
 BYTE   W36
 BYTE   N23
 BYTE   W24
 BYTE   PEND 
// 055   ----------------------------------------
 BYTE   N32
 BYTE   W36
 BYTE   N32
 BYTE   W48
 BYTE   N05
 BYTE   W06
 BYTE   N05
 BYTE   W06
 BYTE   PATT
  POIN2 Label_9_0128FE66
// 056   ----------------------------------------
 BYTE   N32  Dn1  v064
 BYTE   W36
 BYTE   N32
 BYTE   W48
 BYTE   N11
 BYTE   W12
 BYTE   PATT
  POIN2 Label_9_0128FE66
// 057   ----------------------------------------
Label_9_0128FE89:
 BYTE   N32  Dn1  v064
 BYTE   W36
 BYTE   N32
 BYTE   W60
 BYTE   PEND 
 BYTE   PATT
  POIN2 Label_9_0128FE66
 BYTE   PATT
  POIN2 Label_9_0128FE89
// 058   ----------------------------------------
 BYTE   N64  Bn0  v096
 BYTE   N32  Dn1  v064
 BYTE   W36
 BYTE   N32
 BYTE   W36
 BYTE   N23
 BYTE   W24
 BYTE   PATT
  POIN2 Label_9_0128FE89
// 059   ----------------------------------------
Label_9_0128FEAA:
 BYTE   N92  Bn0  v080
 BYTE   N32  Dn1  v064
 BYTE   W36
 BYTE   N32
 BYTE   W36
 BYTE   N23
 BYTE   W24
 BYTE   PEND 
 BYTE   PATT
  POIN2 Label_9_0128FE89
 BYTE   PATT
  POIN2 Label_9_0128FEAA
 BYTE   PATT
  POIN2 Label_9_0128FE89
 BYTE   PATT
  POIN2 Label_9_0128FEAA
 BYTE   PATT
  POIN2 Label_9_0128FE89
 BYTE   PATT
  POIN2 Label_9_0128FEAA
// 060   ----------------------------------------
 BYTE   N92  Bn0  v080
 BYTE   N32  Dn1  v064
 BYTE   W48
 BYTE   N02  Fs1
 BYTE   W03
 BYTE   N02
 BYTE   W03
 BYTE   N02
 BYTE   W03
 BYTE   N02
 BYTE   W15
 BYTE   N02
 BYTE   N02  An2  v052
 BYTE   W03
 BYTE   Fs1  v064
 BYTE   N02  An2  v052
 BYTE   W03
 BYTE   Fs1  v064
 BYTE   N02  An2  v052
 BYTE   W03
 BYTE   Fs1  v064
 BYTE   N02  An2  v052
 BYTE   W03
 BYTE   N02
 BYTE   W03
 BYTE   N02
 BYTE   W03
 BYTE   N02
 BYTE   W03
 BYTE   N02
 BYTE   W03
// 061   ----------------------------------------
 BYTE   W96
// 062   ----------------------------------------
 BYTE   W96
// 063   ----------------------------------------
 BYTE   W96
// 064   ----------------------------------------
 BYTE   W96
// 065   ----------------------------------------
 BYTE   W96
// 066   ----------------------------------------
 BYTE   W96
// 067   ----------------------------------------
 BYTE   W96
// 068   ----------------------------------------
 BYTE   W96
// 069   ----------------------------------------
 BYTE   N23  Bn0  v080
 BYTE   W12
 BYTE   N05  Fs1  v064
 BYTE   W06
 BYTE   N05
 BYTE   W06
 BYTE   N23  Bn0  v080
 BYTE   N05  Fs1  v064
 BYTE   W06
 BYTE   N05
 BYTE   W06
 BYTE   N05
 BYTE   W06
 BYTE   N05
 BYTE   W06
 BYTE   N23  Bn0  v080
 BYTE   W24
 BYTE   N23
 BYTE   W12
 BYTE   N02  Fs1  v064
 BYTE   W03
 BYTE   N02
 BYTE   W03
 BYTE   N02
 BYTE   W03
 BYTE   N02
 BYTE   W03
// 070   ----------------------------------------
 BYTE   N23  Bn0  v080
 BYTE   W12
 BYTE   N05  Fs1  v064
 BYTE   W06
 BYTE   N05
 BYTE   W06
 BYTE   N23  Bn0  v080
 BYTE   N05  Fs1  v064
 BYTE   W06
 BYTE   N05
 BYTE   W06
 BYTE   N02
 BYTE   W03
 BYTE   N02
 BYTE   W03
 BYTE   N02
 BYTE   W03
 BYTE   N02
 BYTE   W03
 BYTE   N23  Bn0  v080
 BYTE   N02  Fs1  v064
 BYTE   W24
 BYTE   N23  Bn0  v080
 BYTE   W12
 BYTE   N05  Fs1  v064
 BYTE   W06
 BYTE   N05
 BYTE   W06
// 071   ----------------------------------------
Label_9_0128FF5E:
 BYTE   N23  Bn0  v080
 BYTE   N11  Fs1  v064
 BYTE   W12
 BYTE   N11
 BYTE   W12
 BYTE   N23  Bn0  v080
 BYTE   N11  Fs1  v064
 BYTE   W12
 BYTE   N11
 BYTE   W12
 BYTE   N23  Bn0  v080
 BYTE   N11  Fs1  v064
 BYTE   W12
 BYTE   N11
 BYTE   W12
 BYTE   N23  Bn0  v080
 BYTE   N11  Fs1  v064
 BYTE   W12
 BYTE   N11
 BYTE   W12
 BYTE   PEND 
 BYTE   PATT
  POIN2 Label_9_0128FF5E
 BYTE   PATT
  POIN2 Label_9_0128FF5E
 BYTE   PATT
  POIN2 Label_9_0128FF5E
// 072   ----------------------------------------
 BYTE   N11  Bn0  v080
 BYTE   N11  Fs1  v064
 BYTE   W12
 BYTE   Bn0  v080
 BYTE   N11  Fs1  v064
 BYTE   W12
 BYTE   Bn0  v080
 BYTE   N11  Fs1  v064
 BYTE   W12
 BYTE   Bn0  v080
 BYTE   N11  Fs1  v064
 BYTE   W12
 BYTE   N05  Bn0  v080
 BYTE   N05  Fs1  v064
 BYTE   W01
 BYTE   W02
 BYTE   W01
 BYTE   W02
 BYTE   Bn0  v080
 BYTE   N05  Fs1  v068
 BYTE   W01
 BYTE   W02
 BYTE   W01
 BYTE   W02
 BYTE   Bn0  v080
 BYTE   N05  Fs1  v072
 BYTE   W01
 BYTE   W02
 BYTE   W01
 BYTE   W02
 BYTE   Bn0  v080
 BYTE   N05  Fs1  v076
 BYTE   W01
 BYTE   W02
 BYTE   W01
 BYTE   W02
 BYTE   Bn0  v080
 BYTE   N05  Fs1
 BYTE   W01
 BYTE   W02
 BYTE   W01
 BYTE   W02
 BYTE   Bn0
 BYTE   N05  Fs1  v084
 BYTE   W01
 BYTE   W02
 BYTE   W01
 BYTE   W02
 BYTE   Bn0  v080
 BYTE   N05  Fs1  v088
 BYTE   W01
 BYTE   W02
 BYTE   W01
 BYTE   W02
 BYTE   Bn0  v080
 BYTE   N05  Fs1  v092
 BYTE   W01
 BYTE   W02
 BYTE   W01
 BYTE   W02
// 073   ----------------------------------------
 BYTE   N02  An2  v016
 BYTE   W02
 BYTE   N02
 BYTE   W03
 BYTE   N02
 BYTE   W03
 BYTE   N02
 BYTE   W03
 BYTE   N02
 BYTE   W03
 BYTE   N02
 BYTE   W03
 BYTE   N02
 BYTE   W03
 BYTE   N02
 BYTE   W03
 BYTE   N02
 BYTE   W03
 BYTE   N02
 BYTE   W03
 BYTE   N02
 BYTE   W03
 BYTE   N02
 BYTE   W03
 BYTE   N02
 BYTE   W03
 BYTE   N02
 BYTE   W03
 BYTE   N02
 BYTE   W03
 BYTE   N02
 BYTE   W03
 BYTE   N02
 BYTE   W03
 BYTE   N02
 BYTE   W03
 BYTE   N02
 BYTE   W03
 BYTE   N02
 BYTE   W03
 BYTE   N02
 BYTE   W03
 BYTE   N02
 BYTE   W03
 BYTE   N02
 BYTE   W03
 BYTE   N02
 BYTE   W03
 BYTE   N02
 BYTE   W03
 BYTE   N02
 BYTE   W03
 BYTE   N02
 BYTE   W03
 BYTE   N02
 BYTE   W03
 BYTE   N02
 BYTE   W03
 BYTE   N02
 BYTE   W03
 BYTE   N02
 BYTE   W03
 BYTE   N02
 BYTE   W04
// 074   ----------------------------------------
 BYTE   N05  Fs1  v064
 BYTE   W06
 BYTE   N05
 BYTE   W06
 BYTE   N05
 BYTE   W06
 BYTE   N05
 BYTE   W06
 BYTE   N05
 BYTE   W06
 BYTE   N05
 BYTE   W06
 BYTE   N05
 BYTE   W06
 BYTE   N05
 BYTE   W06
 BYTE   N44  Bn0  v080
 BYTE   N32  Dn1  v064
 BYTE   N44  An2  v080
 BYTE   W36
 BYTE   N11  Dn1  v064
 BYTE   W12
// 075   ----------------------------------------
 BYTE   N32  Bn0  v080
 BYTE   N32  Dn1  v064
 BYTE   N11  Fs1
 BYTE   N92  An2  v080
 BYTE   W12
 BYTE   N02  Fs1  v064
 BYTE   W03
 BYTE   N02
 BYTE   W03
 BYTE   N02
 BYTE   W03
 BYTE   N02
 BYTE   W03
 BYTE   N02
 BYTE   W03
 BYTE   N02
 BYTE   W03
 BYTE   N02
 BYTE   W03
 BYTE   N02
 BYTE   W03
 BYTE   N32  Bn0  v080
 BYTE   N32  Dn1  v064
 BYTE   N02  Fs1
 BYTE   W03
 BYTE   N02
 BYTE   W03
 BYTE   N02
 BYTE   W03
 BYTE   N02
 BYTE   W03
 BYTE   N11
 BYTE   W12
 BYTE   N02
 BYTE   W03
 BYTE   N02
 BYTE   W03
 BYTE   N02
 BYTE   W03
 BYTE   N02
 BYTE   W03
 BYTE   N02
 BYTE   W03
 BYTE   N02
 BYTE   W03
 BYTE   N02
 BYTE   W03
 BYTE   N02
 BYTE   W03
 BYTE   N05  Dn1
 BYTE   N02  Fs1
 BYTE   W03
 BYTE   N02
 BYTE   W03
 BYTE   N05  Dn1
 BYTE   N02  Fs1
 BYTE   W03
 BYTE   N02
 BYTE   W03
// 076   ----------------------------------------
Label_9_012900A1:
 BYTE   N32  Bn0  v080
 BYTE   N32  Dn1  v064
 BYTE   N11  Fs1
 BYTE   N92  An2  v080
 BYTE   W12
 BYTE   N02  Fs1  v064
 BYTE   W03
 BYTE   N02
 BYTE   W03
 BYTE   N02
 BYTE   W03
 BYTE   N02
 BYTE   W03
 BYTE   N02
 BYTE   W03
 BYTE   N02
 BYTE   W03
 BYTE   N02
 BYTE   W03
 BYTE   N02
 BYTE   W03
 BYTE   N32  Bn0  v080
 BYTE   N32  Dn1  v064
 BYTE   N02  Fs1
 BYTE   W03
 BYTE   N02
 BYTE   W03
 BYTE   N02
 BYTE   W03
 BYTE   N02
 BYTE   W03
 BYTE   N11
 BYTE   W12
 BYTE   N02
 BYTE   W03
 BYTE   N02
 BYTE   W03
 BYTE   N02
 BYTE   W03
 BYTE   N02
 BYTE   W03
 BYTE   N23  Dn1
 BYTE   N02  Fs1
 BYTE   W03
 BYTE   N02
 BYTE   W03
 BYTE   N02
 BYTE   W03
 BYTE   N02
 BYTE   W03
 BYTE   N02
 BYTE   W03
 BYTE   N02
 BYTE   W03
 BYTE   N02
 BYTE   W03
 BYTE   N02
 BYTE   W03
 BYTE   PEND 
// 077   ----------------------------------------
Label_9_012900EC:
 BYTE   N32  Bn0  v080
 BYTE   N32  Dn1  v064
 BYTE   N11  Fs1
 BYTE   W12
 BYTE   N02
 BYTE   W03
 BYTE   N02
 BYTE   W03
 BYTE   N02
 BYTE   W03
 BYTE   N02
 BYTE   W03
 BYTE   N02
 BYTE   W03
 BYTE   N02
 BYTE   W03
 BYTE   N02
 BYTE   W03
 BYTE   N02
 BYTE   W03
 BYTE   N32  Bn0  v080
 BYTE   N32  Dn1  v064
 BYTE   N02  Fs1
 BYTE   W03
 BYTE   N02
 BYTE   W03
 BYTE   N02
 BYTE   W03
 BYTE   N02
 BYTE   W03
 BYTE   N11
 BYTE   W12
 BYTE   N02
 BYTE   W03
 BYTE   N02
 BYTE   W03
 BYTE   N02
 BYTE   W03
 BYTE   N02
 BYTE   W03
 BYTE   N02
 BYTE   W03
 BYTE   N02
 BYTE   W03
 BYTE   N02
 BYTE   W03
 BYTE   N02
 BYTE   W03
 BYTE   N02
 BYTE   W03
 BYTE   N02
 BYTE   W03
 BYTE   N02
 BYTE   W03
 BYTE   N02
 BYTE   W03
 BYTE   PEND 
 BYTE   PATT
  POIN2 Label_9_012900A1
 BYTE   PATT
  POIN2 Label_9_012900EC
 BYTE   PATT
  POIN2 Label_9_012900A1
 BYTE   PATT
  POIN2 Label_9_012900EC
 BYTE   PATT
  POIN2 Label_9_012900A1
 BYTE   PATT
  POIN2 Label_9_012900EC
 BYTE   PATT
  POIN2 Label_9_012900A1
 BYTE   PATT
  POIN2 Label_9_012900EC
 BYTE   PATT
  POIN2 Label_9_012900A1
 BYTE   PATT
  POIN2 Label_9_012900EC
 BYTE   PATT
  POIN2 Label_9_012900A1
 BYTE   PATT
  POIN2 Label_9_012900EC
// 078   ----------------------------------------
Label_9_0129016B:
 BYTE   N92  Bn0  v080
 BYTE   N32  Dn1  v064
 BYTE   N23  Fs1
 BYTE   W24
 BYTE   N23
 BYTE   W12
 BYTE   N32  Dn1
 BYTE   W12
 BYTE   N23  Fs1
 BYTE   W24
 BYTE   Dn1
 BYTE   N23  Fs1
 BYTE   W24
 BYTE   PEND 
// 079   ----------------------------------------
Label_9_01290181:
 BYTE   N92  Bn0  v080
 BYTE   N32  Dn1  v064
 BYTE   N23  Fs1
 BYTE   W24
 BYTE   N23
 BYTE   W12
 BYTE   N32  Dn1
 BYTE   W12
 BYTE   N23  Fs1
 BYTE   W24
 BYTE   N23
 BYTE   W24
 BYTE   PEND 
 BYTE   PATT
  POIN2 Label_9_0129016B
 BYTE   PATT
  POIN2 Label_9_01290181
 BYTE   PATT
  POIN2 Label_9_0129016B
 BYTE   PATT
  POIN2 Label_9_01290181
 BYTE   PATT
  POIN2 Label_9_0129016B
 BYTE   PATT
  POIN2 Label_9_01290181
// 080   ----------------------------------------
 BYTE   N92  Bn0  v080
 BYTE   N32  Dn1  v064
 BYTE   N23  Fs1
 BYTE   N92  An2  v080
 BYTE   W24
 BYTE   N23  Fs1  v064
 BYTE   W12
 BYTE   N32  Dn1
 BYTE   W12
 BYTE   N23  Fs1
 BYTE   W24
 BYTE   Dn1
 BYTE   N23  Fs1
 BYTE   W24
// 081   ----------------------------------------
 BYTE   N92  Bn0  v080
 BYTE   N32  Dn1  v064
 BYTE   N23  Fs1
 BYTE   W24
 BYTE   N23
 BYTE   W12
 BYTE   N32  Dn1
 BYTE   W12
 BYTE   N23  Fs1
 BYTE   W24
 BYTE   N05  Dn1
 BYTE   N23  Fs1
 BYTE   N02  An2
 BYTE   W03
 BYTE   N02
 BYTE   W03
 BYTE   N05  Dn1
 BYTE   N02  An2
 BYTE   W03
 BYTE   N02
 BYTE   W03
 BYTE   N05  Dn1
 BYTE   N02  An2
 BYTE   W03
 BYTE   N02
 BYTE   W03
 BYTE   N05  Dn1
 BYTE   N02  An2
 BYTE   W03
 BYTE   N02
 BYTE   W03
// 082   ----------------------------------------
 BYTE   GoTo
  POIN2 Label_9_0128F1B6
 BYTE   FINE

//**************** Track 11 (Midi-Chn.10) ****************//

FE16TheApexoftheWorldRainMrGreen3339_011:
// 000   ----------------------------------------
 BYTE   KEYSH   FE16TheApexoftheWorldRainMrGreen3339_key+0
Label_10_01290206:
 BYTE   VOICE   45
 BYTE   VOL   51*FE16TheApexoftheWorldRainMrGreen3339_mvl/mxv
 BYTE   PAN   c_v+0
 BYTE   VOL   51*FE16TheApexoftheWorldRainMrGreen3339_mvl/mxv
 BYTE   PAN   c_v+0
 BYTE   VOL   50*FE16TheApexoftheWorldRainMrGreen3339_mvl/mxv
 BYTE   PAN   c_v+18
 BYTE   VOL   51*FE16TheApexoftheWorldRainMrGreen3339_mvl/mxv
 BYTE   PAN   c_v+0
 BYTE   VOL   51*FE16TheApexoftheWorldRainMrGreen3339_mvl/mxv
 BYTE   PAN   c_v+0
 BYTE   W48
 BYTE   W96
// 001   ----------------------------------------
 BYTE   W96
// 002   ----------------------------------------
 BYTE   W96
// 003   ----------------------------------------
 BYTE   W96
// 004   ----------------------------------------
 BYTE   W96
// 005   ----------------------------------------
 BYTE   W96
// 006   ----------------------------------------
 BYTE   W96
// 007   ----------------------------------------
 BYTE   W96
// 008   ----------------------------------------
 BYTE   W96
// 009   ----------------------------------------
 BYTE   W96
// 010   ----------------------------------------
 BYTE   W96
// 011   ----------------------------------------
 BYTE   W96
// 012   ----------------------------------------
 BYTE   W96
// 013   ----------------------------------------
 BYTE   W96
// 014   ----------------------------------------
 BYTE   W96
// 015   ----------------------------------------
 BYTE   W96
// 016   ----------------------------------------
 BYTE   W96
// 017   ----------------------------------------
 BYTE   W96
// 018   ----------------------------------------
 BYTE   W96
// 019   ----------------------------------------
 BYTE   W96
// 020   ----------------------------------------
 BYTE   W96
// 021   ----------------------------------------
 BYTE   W96
// 022   ----------------------------------------
 BYTE   W96
// 023   ----------------------------------------
 BYTE   W96
// 024   ----------------------------------------
 BYTE   W96
// 025   ----------------------------------------
 BYTE   W96
// 026   ----------------------------------------
 BYTE   W96
// 027   ----------------------------------------
 BYTE   W96
// 028   ----------------------------------------
 BYTE   W96
// 029   ----------------------------------------
 BYTE   W96
// 030   ----------------------------------------
 BYTE   W96
// 031   ----------------------------------------
 BYTE   W96
// 032   ----------------------------------------
 BYTE   W96
// 033   ----------------------------------------
 BYTE   W96
// 034   ----------------------------------------
 BYTE   W96
// 035   ----------------------------------------
 BYTE   W96
// 036   ----------------------------------------
 BYTE   W96
// 037   ----------------------------------------
 BYTE   W96
// 038   ----------------------------------------
 BYTE   W96
// 039   ----------------------------------------
 BYTE   W96
// 040   ----------------------------------------
 BYTE   W96
// 041   ----------------------------------------
 BYTE   W96
// 042   ----------------------------------------
 BYTE   W96
// 043   ----------------------------------------
 BYTE   W96
// 044   ----------------------------------------
 BYTE   W96
// 045   ----------------------------------------
 BYTE   W96
// 046   ----------------------------------------
 BYTE   W96
// 047   ----------------------------------------
 BYTE   W96
// 048   ----------------------------------------
 BYTE   W96
// 049   ----------------------------------------
 BYTE   W96
// 050   ----------------------------------------
 BYTE   W96
// 051   ----------------------------------------
 BYTE   W96
// 052   ----------------------------------------
 BYTE   W96
// 053   ----------------------------------------
 BYTE   W96
// 054   ----------------------------------------
 BYTE   W96
// 055   ----------------------------------------
 BYTE   W96
// 056   ----------------------------------------
 BYTE   W96
// 057   ----------------------------------------
 BYTE   W96
// 058   ----------------------------------------
 BYTE   W96
// 059   ----------------------------------------
 BYTE   W96
// 060   ----------------------------------------
 BYTE   W96
// 061   ----------------------------------------
 BYTE   W96
// 062   ----------------------------------------
 BYTE   W96
// 063   ----------------------------------------
 BYTE   W96
// 064   ----------------------------------------
 BYTE   W96
// 065   ----------------------------------------
 BYTE   W96
// 066   ----------------------------------------
 BYTE   W96
// 067   ----------------------------------------
 BYTE   W96
// 068   ----------------------------------------
 BYTE   W96
// 069   ----------------------------------------
 BYTE   W96
// 070   ----------------------------------------
 BYTE   W96
// 071   ----------------------------------------
 BYTE   W96
// 072   ----------------------------------------
 BYTE   W96
// 073   ----------------------------------------
 BYTE   W96
// 074   ----------------------------------------
 BYTE   W96
// 075   ----------------------------------------
 BYTE   W96
// 076   ----------------------------------------
 BYTE   W96
// 077   ----------------------------------------
 BYTE   W96
// 078   ----------------------------------------
 BYTE   W96
// 079   ----------------------------------------
 BYTE   W96
// 080   ----------------------------------------
 BYTE   W96
// 081   ----------------------------------------
 BYTE   W96
// 082   ----------------------------------------
 BYTE   W96
// 083   ----------------------------------------
 BYTE   W96
// 084   ----------------------------------------
 BYTE   W96
// 085   ----------------------------------------
 BYTE   W96
// 086   ----------------------------------------
 BYTE   W96
// 087   ----------------------------------------
 BYTE   W96
// 088   ----------------------------------------
 BYTE   W96
// 089   ----------------------------------------
 BYTE   W96
// 090   ----------------------------------------
 BYTE   W96
// 091   ----------------------------------------
 BYTE   W96
// 092   ----------------------------------------
 BYTE   W96
// 093   ----------------------------------------
 BYTE   W96
// 094   ----------------------------------------
 BYTE   W96
// 095   ----------------------------------------
 BYTE   W96
// 096   ----------------------------------------
 BYTE   N32  Dn2  v080
 BYTE   W36
 BYTE   En2
 BYTE   W36
 BYTE   N68  Cn3
 BYTE   W24
// 097   ----------------------------------------
 BYTE   W48
 BYTE   N44  Bn2
 BYTE   W48
// 098   ----------------------------------------
Label_10_0129028A:
 BYTE   N11  Gn2  v080
 BYTE   W12
 BYTE   Bn2
 BYTE   W12
 BYTE   Dn3
 BYTE   W12
 BYTE   Bn2
 BYTE   W12
 BYTE   Gn2
 BYTE   W12
 BYTE   Bn2
 BYTE   W12
 BYTE   Dn3
 BYTE   W12
 BYTE   Bn2
 BYTE   W12
 BYTE   PEND 
 BYTE   PATT
  POIN2 Label_10_0129028A
// 099   ----------------------------------------
 BYTE   N32  Dn2  v080
 BYTE   W36
 BYTE   En2
 BYTE   W36
 BYTE   TIE  Bn2
 BYTE   W24
// 100   ----------------------------------------
 BYTE   W92
 BYTE   W03
 BYTE   EOT
 BYTE   W01
// 101   ----------------------------------------
 BYTE   N11  Dn3
 BYTE   W12
 BYTE   En2
 BYTE   W12
 BYTE   Gn2
 BYTE   W12
 BYTE   En2
 BYTE   W12
 BYTE   Gn2
 BYTE   W12
 BYTE   Bn2
 BYTE   W12
 BYTE   Dn3
 BYTE   W12
 BYTE   Bn2
 BYTE   W12
 BYTE   PATT
  POIN2 Label_10_0129028A
// 102   ----------------------------------------
 BYTE   N11  Fn2  v064
 BYTE   W12
 BYTE   N11
 BYTE   W12
 BYTE   N11
 BYTE   W12
 BYTE   Gn2
 BYTE   W12
 BYTE   N11
 BYTE   W12
 BYTE   N11
 BYTE   W12
 BYTE   N11
 BYTE   W12
 BYTE   N11
 BYTE   W12
// 103   ----------------------------------------
Label_10_012902D7:
 BYTE   N11  Gn2  v064
 BYTE   W12
 BYTE   N11
 BYTE   W12
 BYTE   N11
 BYTE   W12
 BYTE   Dn2
 BYTE   W12
 BYTE   N11
 BYTE   W12
 BYTE   N11
 BYTE   W12
 BYTE   En2
 BYTE   W24
 BYTE   PEND 
 BYTE   PATT
  POIN2 Label_10_012902D7
// 104   ----------------------------------------
 BYTE   N11  Gn2  v064
 BYTE   W12
 BYTE   N11
 BYTE   W12
 BYTE   N11
 BYTE   W12
 BYTE   N11
 BYTE   W12
 BYTE   N11
 BYTE   W12
 BYTE   N11
 BYTE   W12
 BYTE   N11
 BYTE   W12
 BYTE   N11
 BYTE   W12
// 105   ----------------------------------------
 BYTE   An2
 BYTE   W12
 BYTE   N11
 BYTE   W12
 BYTE   N11
 BYTE   W12
 BYTE   N11
 BYTE   W12
 BYTE   N11
 BYTE   W12
 BYTE   N11
 BYTE   W12
 BYTE   Bn2
 BYTE   W12
 BYTE   N11
 BYTE   W12
// 106   ----------------------------------------
 BYTE   N11
 BYTE   W12
 BYTE   N11
 BYTE   W12
 BYTE   N11
 BYTE   W12
 BYTE   N11
 BYTE   W12
 BYTE   N11
 BYTE   W12
 BYTE   N11
 BYTE   W12
 BYTE   N11
 BYTE   W12
 BYTE   N11
 BYTE   W12
// 107   ----------------------------------------
 BYTE   Gs2
 BYTE   W12
 BYTE   N11
 BYTE   W12
 BYTE   N11
 BYTE   W12
 BYTE   N11
 BYTE   W12
 BYTE   N11
 BYTE   W12
 BYTE   N11
 BYTE   W12
 BYTE   N11
 BYTE   W12
 BYTE   N11
 BYTE   W12
// 108   ----------------------------------------
 BYTE   W48
 BYTE   N44  En2  v016
 BYTE   W01
 BYTE   W01
 BYTE   W01
 BYTE   W01
 BYTE   W01
 BYTE   W01
 BYTE   W01
 BYTE   W01
 BYTE   W01
 BYTE   W01
 BYTE   W01
 BYTE   W01
 BYTE   W01
 BYTE   W01
 BYTE   W01
 BYTE   W01
 BYTE   W01
 BYTE   W01
 BYTE   W01
 BYTE   W01
 BYTE   W01
 BYTE   W01
 BYTE   W01
 BYTE   W01
 BYTE   W01
 BYTE   W01
 BYTE   W01
 BYTE   W01
 BYTE   W01
 BYTE   W01
 BYTE   W01
 BYTE   W01
 BYTE   W01
 BYTE   W01
 BYTE   W01
 BYTE   W01
 BYTE   W01
 BYTE   W01
 BYTE   W01
 BYTE   W01
 BYTE   W01
 BYTE   W01
 BYTE   W01
 BYTE   W01
 BYTE   W01
 BYTE   W01
 BYTE   W01
 BYTE   W01
// 109   ----------------------------------------
 BYTE   N32  Fn2  v080
 BYTE   W36
 BYTE   N23
 BYTE   W24
 BYTE   N32  En2
 BYTE   W36
// 110   ----------------------------------------
 BYTE   N92  Gn2
 BYTE   W96
// 111   ----------------------------------------
 BYTE   An2
 BYTE   W96
// 112   ----------------------------------------
 BYTE   En2
 BYTE   W96
// 113   ----------------------------------------
 BYTE   Dn2
 BYTE   W96
// 114   ----------------------------------------
 BYTE   N44  En2
 BYTE   W48
 BYTE   Gs2
 BYTE   W48
// 115   ----------------------------------------
 BYTE   N92  An2
 BYTE   W96
// 116   ----------------------------------------
 BYTE   N32  Gn2
 BYTE   W36
 BYTE   N32
 BYTE   W36
 BYTE   N23  Fs2
 BYTE   W24
// 117   ----------------------------------------
 BYTE   N32  Fn2
 BYTE   W36
 BYTE   N23
 BYTE   W24
 BYTE   N32
 BYTE   W36
// 118   ----------------------------------------
 BYTE   N92  Gn2
 BYTE   W96
// 119   ----------------------------------------
 BYTE   En2
 BYTE   W96
// 120   ----------------------------------------
 BYTE   N44  An2
 BYTE   W48
 BYTE   N23  Bn2
 BYTE   W24
 BYTE   N11  An2
 BYTE   W12
 BYTE   Gn2
 BYTE   W12
// 121   ----------------------------------------
 BYTE   N92  Dn2
 BYTE   W96
// 122   ----------------------------------------
 BYTE   En2
 BYTE   W96
// 123   ----------------------------------------
 BYTE   TIE  An2
 BYTE   W96
// 124   ----------------------------------------
 BYTE   W92
 BYTE   W03
 BYTE   EOT
 BYTE   W01
// 125   ----------------------------------------
 BYTE   N44
 BYTE   W48
 BYTE   En2
 BYTE   W48
// 126   ----------------------------------------
 BYTE   N32  Cn3
 BYTE   W36
 BYTE   Dn3
 BYTE   W36
 BYTE   N23  Dn2
 BYTE   W24
// 127   ----------------------------------------
 BYTE   N44  Cn2
 BYTE   W48
 BYTE   Bn1
 BYTE   W48
// 128   ----------------------------------------
 BYTE   N92  Gn2
 BYTE   W96
// 129   ----------------------------------------
 BYTE   Fn2
 BYTE   W96
// 130   ----------------------------------------
 BYTE   N44  Bn2
 BYTE   W48
 BYTE   Gs2
 BYTE   W48
// 131   ----------------------------------------
 BYTE   N92  An2
 BYTE   W96
// 132   ----------------------------------------
 BYTE   Gn2
 BYTE   W96
// 133   ----------------------------------------
 BYTE   W96
// 134   ----------------------------------------
 BYTE   W96
// 135   ----------------------------------------
 BYTE   W96
// 136   ----------------------------------------
 BYTE   W96
// 137   ----------------------------------------
 BYTE   W96
// 138   ----------------------------------------
 BYTE   W96
// 139   ----------------------------------------
 BYTE   W96
// 140   ----------------------------------------
 BYTE   W96
// 141   ----------------------------------------
 BYTE   W96
// 142   ----------------------------------------
 BYTE   W96
// 143   ----------------------------------------
 BYTE   W96
// 144   ----------------------------------------
 BYTE   W96
// 145   ----------------------------------------
 BYTE   W96
// 146   ----------------------------------------
 BYTE   W96
// 147   ----------------------------------------
 BYTE   W96
// 148   ----------------------------------------
 BYTE   W96
// 149   ----------------------------------------
 BYTE   W96
// 150   ----------------------------------------
 BYTE   W96
// 151   ----------------------------------------
 BYTE   W96
// 152   ----------------------------------------
 BYTE   W96
// 153   ----------------------------------------
 BYTE   W96
// 154   ----------------------------------------
 BYTE   W96
// 155   ----------------------------------------
 BYTE   W96
// 156   ----------------------------------------
 BYTE   W96
// 157   ----------------------------------------
 BYTE   W96
// 158   ----------------------------------------
 BYTE   W96
// 159   ----------------------------------------
 BYTE   W96
// 160   ----------------------------------------
 BYTE   W96
// 161   ----------------------------------------
 BYTE   W96
// 162   ----------------------------------------
 BYTE   W96
// 163   ----------------------------------------
 BYTE   W96
// 164   ----------------------------------------
 BYTE   W96
// 165   ----------------------------------------
 BYTE   W96
// 166   ----------------------------------------
 BYTE   W96
// 167   ----------------------------------------
 BYTE   W96
// 168   ----------------------------------------
 BYTE   W96
// 169   ----------------------------------------
 BYTE   W96
// 170   ----------------------------------------
 BYTE   W96
// 171   ----------------------------------------
 BYTE   W96
// 172   ----------------------------------------
 BYTE   W96
// 173   ----------------------------------------
 BYTE   W96
// 174   ----------------------------------------
 BYTE   W96
// 175   ----------------------------------------
 BYTE   W96
// 176   ----------------------------------------
 BYTE   W96
// 177   ----------------------------------------
 BYTE   W96
// 178   ----------------------------------------
 BYTE   W96
// 179   ----------------------------------------
 BYTE   W96
// 180   ----------------------------------------
 BYTE   W96
// 181   ----------------------------------------
 BYTE   W96
// 182   ----------------------------------------
 BYTE   W96
// 183   ----------------------------------------
 BYTE   W96
// 184   ----------------------------------------
 BYTE   W96
// 185   ----------------------------------------
 BYTE   GoTo
  POIN2 Label_10_01290206
 BYTE   FINE

//**************** Track 12 (Midi-Chn.11) ****************//

FE16TheApexoftheWorldRainMrGreen3339_012:
// 000   ----------------------------------------
 BYTE   KEYSH   FE16TheApexoftheWorldRainMrGreen3339_key+0
Label_11_01290406:
 BYTE   VOICE   116
 BYTE   VOL   51*FE16TheApexoftheWorldRainMrGreen3339_mvl/mxv
 BYTE   PAN   c_v+0
 BYTE   VOL   51*FE16TheApexoftheWorldRainMrGreen3339_mvl/mxv
 BYTE   PAN   c_v+0
 BYTE   VOL   51*FE16TheApexoftheWorldRainMrGreen3339_mvl/mxv
 BYTE   PAN   c_v+0
 BYTE   VOL   51*FE16TheApexoftheWorldRainMrGreen3339_mvl/mxv
 BYTE   PAN   c_v+0
 BYTE   VOL   51*FE16TheApexoftheWorldRainMrGreen3339_mvl/mxv
 BYTE   PAN   c_v+0
 BYTE   W48
 BYTE   W96
// 001   ----------------------------------------
 BYTE   W96
// 002   ----------------------------------------
 BYTE   W96
// 003   ----------------------------------------
 BYTE   W96
// 004   ----------------------------------------
 BYTE   W96
// 005   ----------------------------------------
 BYTE   W96
// 006   ----------------------------------------
 BYTE   W96
// 007   ----------------------------------------
 BYTE   W96
// 008   ----------------------------------------
 BYTE   W96
// 009   ----------------------------------------
 BYTE   W96
// 010   ----------------------------------------
 BYTE   W96
// 011   ----------------------------------------
 BYTE   W96
// 012   ----------------------------------------
 BYTE   W96
// 013   ----------------------------------------
 BYTE   W96
// 014   ----------------------------------------
 BYTE   W96
// 015   ----------------------------------------
 BYTE   W96
// 016   ----------------------------------------
Label_11_0129042D:
 BYTE   N92  Cn3  v036
 BYTE   W06
 BYTE   W03
 BYTE   W03
 BYTE   W03
 BYTE   W03
 BYTE   W03
 BYTE   W03
 BYTE   W03
 BYTE   W03
 BYTE   W03
 BYTE   W03
 BYTE   W03
 BYTE   W03
 BYTE   W03
 BYTE   W03
 BYTE   W03
 BYTE   W03
 BYTE   W03
 BYTE   W04
 BYTE   W03
 BYTE   W03
 BYTE   W03
 BYTE   W03
 BYTE   W03
 BYTE   W03
 BYTE   W03
 BYTE   W03
 BYTE   W03
 BYTE   W03
 BYTE   W03
 BYTE   W02
 BYTE   PEND 
// 017   ----------------------------------------
 BYTE   Cn3  v064
 BYTE   W96
// 018   ----------------------------------------
Label_11_01290453:
 BYTE   TIE  Cn3  v064
 BYTE   W09
 BYTE   W04
 BYTE   W05
 BYTE   W05
 BYTE   W04
 BYTE   W05
 BYTE   W04
 BYTE   W05
 BYTE   W05
 BYTE   W04
 BYTE   W05
 BYTE   W04
 BYTE   W05
 BYTE   W05
 BYTE   W04
 BYTE   W05
 BYTE   W04
 BYTE   W05
 BYTE   W05
 BYTE   W04
 BYTE   PEND 
// 019   ----------------------------------------
Label_11_0129046B:
 BYTE   W05
 BYTE   W04
 BYTE   W05
 BYTE   W05
 BYTE   W04
 BYTE   W05
 BYTE   W04
 BYTE   W05
 BYTE   W05
 BYTE   W04
 BYTE   W01
 BYTE   PEND 
 BYTE   EOT
 BYTE   Cn3
 BYTE   W48
 BYTE   W01
// 020   ----------------------------------------
Label_11_0129047B:
 BYTE   N92  An2  v036
 BYTE   W06
 BYTE   W03
 BYTE   W03
 BYTE   W03
 BYTE   W03
 BYTE   W03
 BYTE   W03
 BYTE   W03
 BYTE   W03
 BYTE   W03
 BYTE   W03
 BYTE   W03
 BYTE   W03
 BYTE   W03
 BYTE   W03
 BYTE   W03
 BYTE   W03
 BYTE   W03
 BYTE   W04
 BYTE   W03
 BYTE   W03
 BYTE   W03
 BYTE   W03
 BYTE   W03
 BYTE   W03
 BYTE   W03
 BYTE   W03
 BYTE   W03
 BYTE   W03
 BYTE   W03
 BYTE   W02
 BYTE   PEND 
// 021   ----------------------------------------
 BYTE   Bn2  v064
 BYTE   W96
// 022   ----------------------------------------
 BYTE   TIE
 BYTE   W09
 BYTE   W04
 BYTE   W05
 BYTE   W05
 BYTE   W04
 BYTE   W05
 BYTE   W04
 BYTE   W05
 BYTE   W05
 BYTE   W04
 BYTE   W05
 BYTE   W04
 BYTE   W05
 BYTE   W05
 BYTE   W04
 BYTE   W05
 BYTE   W04
 BYTE   W05
 BYTE   W05
 BYTE   W04
 BYTE   PATT
  POIN2 Label_11_0129046B
// 023   ----------------------------------------
 BYTE   EOT
 BYTE   Bn2
 BYTE   W48
 BYTE   W01
 BYTE   PATT
  POIN2 Label_11_0129042D
// 024   ----------------------------------------
 BYTE   N92  Cn3  v064
 BYTE   W96
 BYTE   PATT
  POIN2 Label_11_01290453
 BYTE   PATT
  POIN2 Label_11_0129046B
// 025   ----------------------------------------
 BYTE   EOT
 BYTE   Cn3
 BYTE   W48
 BYTE   W01
 BYTE   PATT
  POIN2 Label_11_0129047B
// 026   ----------------------------------------
 BYTE   N92  Bn2  v064
 BYTE   W96
// 027   ----------------------------------------
 BYTE   TIE
 BYTE   W09
 BYTE   W10
 BYTE   W09
 BYTE   W10
 BYTE   W10
 BYTE   W09
 BYTE   W10
 BYTE   W09
 BYTE   W10
 BYTE   W10
// 028   ----------------------------------------
 BYTE   W09
 BYTE   W10
 BYTE   W09
 BYTE   W10
 BYTE   W09
 BYTE   EOT
 BYTE   W48
 BYTE   W01
// 029   ----------------------------------------
Label_11_012904F2:
 BYTE   W24
 BYTE   N11  En3  v080
 BYTE   W36
 BYTE   N11
 BYTE   W36
 BYTE   PEND 
// 030   ----------------------------------------
 BYTE   W24
 BYTE   N11
 BYTE   W72
// 031   ----------------------------------------
Label_11_012904FD:
 BYTE   W24
 BYTE   N11  Cn3  v080
 BYTE   W36
 BYTE   N11
 BYTE   W36
 BYTE   PEND 
// 032   ----------------------------------------
 BYTE   W24
 BYTE   N11
 BYTE   W24
 BYTE   Bn2
 BYTE   W24
 BYTE   An2
 BYTE   W24
 BYTE   PATT
  POIN2 Label_11_012904FD
// 033   ----------------------------------------
 BYTE   W24
 BYTE   N11  Cn3  v080
 BYTE   W24
 BYTE   Dn3
 BYTE   W24
 BYTE   N11
 BYTE   W24
// 034   ----------------------------------------
 BYTE   W24
 BYTE   N11
 BYTE   W36
 BYTE   N11
 BYTE   W36
// 035   ----------------------------------------
 BYTE   W24
 BYTE   N11
 BYTE   W24
 BYTE   N11
 BYTE   W24
 BYTE   N11
 BYTE   W24
 BYTE   PATT
  POIN2 Label_11_012904F2
// 036   ----------------------------------------
Label_11_0129052B:
 BYTE   W24
 BYTE   N11  En3  v080
 BYTE   W24
 BYTE   N11
 BYTE   W24
 BYTE   N11
 BYTE   W24
 BYTE   PEND 
 BYTE   PATT
  POIN2 Label_11_012904F2
 BYTE   PATT
  POIN2 Label_11_0129052B
 BYTE   PATT
  POIN2 Label_11_012904FD
// 037   ----------------------------------------
 BYTE   W24
 BYTE   N11  Cn3  v080
 BYTE   W24
 BYTE   N11
 BYTE   W24
 BYTE   N11
 BYTE   W24
// 038   ----------------------------------------
 BYTE   N92
 BYTE   W96
// 039   ----------------------------------------
 BYTE   W96
// 040   ----------------------------------------
 BYTE   N11  Gn3
 BYTE   W12
 BYTE   Cn3
 BYTE   W12
 BYTE   An2
 BYTE   W12
 BYTE   Cn3
 BYTE   W12
 BYTE   Gn3
 BYTE   W12
 BYTE   Cn3
 BYTE   W12
 BYTE   An2
 BYTE   W12
 BYTE   Cn3
 BYTE   W12
// 041   ----------------------------------------
 BYTE   Fn3
 BYTE   W12
 BYTE   Cn3
 BYTE   W12
 BYTE   An2
 BYTE   W12
 BYTE   Cn3
 BYTE   W12
 BYTE   Fn3
 BYTE   W12
 BYTE   Cn3
 BYTE   W12
 BYTE   An2
 BYTE   W12
 BYTE   Cn3
 BYTE   W12
// 042   ----------------------------------------
Label_11_01290571:
 BYTE   N11  Dn3  v080
 BYTE   W12
 BYTE   Gn2
 BYTE   W12
 BYTE   Bn2
 BYTE   W12
 BYTE   Gn2
 BYTE   W12
 BYTE   Dn3
 BYTE   W12
 BYTE   Gn2
 BYTE   W12
 BYTE   Bn2
 BYTE   W12
 BYTE   Gn2
 BYTE   W12
 BYTE   PEND 
 BYTE   PATT
  POIN2 Label_11_01290571
// 043   ----------------------------------------
Label_11_01290589:
 BYTE   N11  Gn3  v080
 BYTE   W12
 BYTE   Cn3
 BYTE   W12
 BYTE   Bn2
 BYTE   W12
 BYTE   Cn3
 BYTE   W12
 BYTE   Gn3
 BYTE   W12
 BYTE   Cn3
 BYTE   W12
 BYTE   Bn2
 BYTE   W12
 BYTE   Cn3
 BYTE   W12
 BYTE   PEND 
// 044   ----------------------------------------
 BYTE   Fn3
 BYTE   W12
 BYTE   Cn3
 BYTE   W12
 BYTE   Bn2
 BYTE   W12
 BYTE   Cn3
 BYTE   W12
 BYTE   Fn3
 BYTE   W12
 BYTE   Cn3
 BYTE   W12
 BYTE   Bn2
 BYTE   W12
 BYTE   Cn3
 BYTE   W12
// 045   ----------------------------------------
 BYTE   Bn3
 BYTE   W12
 BYTE   Gn3
 BYTE   W12
 BYTE   Dn3
 BYTE   W12
 BYTE   Gn3
 BYTE   W12
 BYTE   Bn3
 BYTE   W12
 BYTE   Gn3
 BYTE   W12
 BYTE   Dn3
 BYTE   W12
 BYTE   Gn3
 BYTE   W12
// 046   ----------------------------------------
 BYTE   Cn4
 BYTE   W12
 BYTE   Gn3
 BYTE   W12
 BYTE   Dn3
 BYTE   W12
 BYTE   Gn3
 BYTE   W12
 BYTE   Cn4
 BYTE   W12
 BYTE   Gn3
 BYTE   W12
 BYTE   Dn3
 BYTE   W12
 BYTE   Gn3
 BYTE   W12
// 047   ----------------------------------------
Label_11_012905CC:
 BYTE   N11  Dn4  v080
 BYTE   W12
 BYTE   En4
 BYTE   W12
 BYTE   Bn3
 BYTE   W12
 BYTE   An3
 BYTE   W12
 BYTE   Gn3
 BYTE   W12
 BYTE   En3
 BYTE   W12
 BYTE   Cn3
 BYTE   W12
 BYTE   Gn2
 BYTE   W12
 BYTE   PEND 
 BYTE   PATT
  POIN2 Label_11_012905CC
 BYTE   PATT
  POIN2 Label_11_012905CC
 BYTE   PATT
  POIN2 Label_11_012905CC
// 048   ----------------------------------------
 BYTE   N11  An3  v080
 BYTE   W12
 BYTE   Cn3
 BYTE   W12
 BYTE   En3
 BYTE   W12
 BYTE   Cn3
 BYTE   W12
 BYTE   An3
 BYTE   W12
 BYTE   Cn3
 BYTE   W12
 BYTE   En3
 BYTE   W12
 BYTE   Cn3
 BYTE   W12
// 049   ----------------------------------------
 BYTE   Gs3
 BYTE   W12
 BYTE   Bn2
 BYTE   W12
 BYTE   Dn3
 BYTE   W12
 BYTE   Bn2
 BYTE   W12
 BYTE   Gs3
 BYTE   W12
 BYTE   Bn2
 BYTE   W12
 BYTE   Dn3
 BYTE   W12
 BYTE   Bn2
 BYTE   W12
// 050   ----------------------------------------
 BYTE   Bn3
 BYTE   W12
 BYTE   Dn3
 BYTE   W12
 BYTE   En3
 BYTE   W12
 BYTE   Dn3
 BYTE   W12
 BYTE   An3
 BYTE   W12
 BYTE   Dn3
 BYTE   W12
 BYTE   En3
 BYTE   W12
 BYTE   Dn3
 BYTE   W12
 BYTE   PATT
  POIN2 Label_11_01290589
// 051   ----------------------------------------
 BYTE   W96
// 052   ----------------------------------------
 BYTE   W96
// 053   ----------------------------------------
 BYTE   W96
// 054   ----------------------------------------
 BYTE   W96
// 055   ----------------------------------------
 BYTE   W96
// 056   ----------------------------------------
 BYTE   W96
// 057   ----------------------------------------
 BYTE   W96
// 058   ----------------------------------------
 BYTE   W96
// 059   ----------------------------------------
 BYTE   W96
// 060   ----------------------------------------
 BYTE   W96
// 061   ----------------------------------------
 BYTE   W96
// 062   ----------------------------------------
 BYTE   W96
// 063   ----------------------------------------
 BYTE   W96
// 064   ----------------------------------------
 BYTE   W96
// 065   ----------------------------------------
 BYTE   W96
// 066   ----------------------------------------
 BYTE   N92  En1  v080
 BYTE   W96
// 067   ----------------------------------------
 BYTE   W96
// 068   ----------------------------------------
 BYTE   W96
// 069   ----------------------------------------
 BYTE   W96
// 070   ----------------------------------------
 BYTE   W96
// 071   ----------------------------------------
 BYTE   W96
// 072   ----------------------------------------
 BYTE   W96
// 073   ----------------------------------------
 BYTE   W96
// 074   ----------------------------------------
 BYTE   W96
// 075   ----------------------------------------
 BYTE   W96
// 076   ----------------------------------------
 BYTE   W96
// 077   ----------------------------------------
 BYTE   W96
// 078   ----------------------------------------
 BYTE   W96
// 079   ----------------------------------------
 BYTE   W96
// 080   ----------------------------------------
 BYTE   W96
// 081   ----------------------------------------
 BYTE   W96
// 082   ----------------------------------------
 BYTE   W96
// 083   ----------------------------------------
 BYTE   W96
// 084   ----------------------------------------
 BYTE   W96
// 085   ----------------------------------------
 BYTE   W96
// 086   ----------------------------------------
 BYTE   W96
// 087   ----------------------------------------
 BYTE   W96
// 088   ----------------------------------------
 BYTE   W96
// 089   ----------------------------------------
 BYTE   W96
// 090   ----------------------------------------
 BYTE   W96
// 091   ----------------------------------------
 BYTE   W96
// 092   ----------------------------------------
 BYTE   W96
// 093   ----------------------------------------
 BYTE   W96
// 094   ----------------------------------------
 BYTE   W96
// 095   ----------------------------------------
 BYTE   W96
// 096   ----------------------------------------
 BYTE   W96
// 097   ----------------------------------------
 BYTE   W96
// 098   ----------------------------------------
 BYTE   W96
// 099   ----------------------------------------
 BYTE   W96
// 100   ----------------------------------------
 BYTE   W96
// 101   ----------------------------------------
 BYTE   W96
// 102   ----------------------------------------
 BYTE   W96
// 103   ----------------------------------------
 BYTE   W96
// 104   ----------------------------------------
 BYTE   W96
// 105   ----------------------------------------
 BYTE   W96
// 106   ----------------------------------------
 BYTE   W96
// 107   ----------------------------------------
 BYTE   W96
// 108   ----------------------------------------
 BYTE   W96
// 109   ----------------------------------------
 BYTE   W96
// 110   ----------------------------------------
 BYTE   W96
// 111   ----------------------------------------
 BYTE   W96
// 112   ----------------------------------------
 BYTE   W96
// 113   ----------------------------------------
 BYTE   W96
// 114   ----------------------------------------
 BYTE   W96
// 115   ----------------------------------------
 BYTE   W96
// 116   ----------------------------------------
 BYTE   W96
// 117   ----------------------------------------
 BYTE   W96
// 118   ----------------------------------------
 BYTE   W96
// 119   ----------------------------------------
 BYTE   W96
// 120   ----------------------------------------
 BYTE   W96
// 121   ----------------------------------------
 BYTE   W96
// 122   ----------------------------------------
 BYTE   W96
// 123   ----------------------------------------
Label_11_01290670:
 BYTE   W12
 BYTE   N11  Bn2  v080
 BYTE   W24
 BYTE   N11
 BYTE   W24
 BYTE   N11
 BYTE   W24
 BYTE   N11
 BYTE   W12
 BYTE   PEND 
 BYTE   PATT
  POIN2 Label_11_01290670
 BYTE   PATT
  POIN2 Label_11_01290670
 BYTE   PATT
  POIN2 Label_11_01290670
 BYTE   PATT
  POIN2 Label_11_01290670
 BYTE   PATT
  POIN2 Label_11_01290670
// 124   ----------------------------------------
 BYTE   W96
// 125   ----------------------------------------
 BYTE   W96
// 126   ----------------------------------------
 BYTE   W96
// 127   ----------------------------------------
Label_11_01290698:
 BYTE   N32  Cs3  v096
 BYTE   W36
 BYTE   Ds3
 BYTE   W36
 BYTE   N23  Cn3
 BYTE   W24
 BYTE   PEND 
// 128   ----------------------------------------
 BYTE   N92  Cs3
 BYTE   W96
 BYTE   PATT
  POIN2 Label_11_01290698
// 129   ----------------------------------------
 BYTE   N92  Gs2  v096
 BYTE   W96
 BYTE   PATT
  POIN2 Label_11_01290698
// 130   ----------------------------------------
 BYTE   N44  Cs3  v096
 BYTE   W48
 BYTE   Gs3
 BYTE   W48
// 131   ----------------------------------------
 BYTE   N23
 BYTE   W24
 BYTE   Fs3
 BYTE   W24
 BYTE   Fn3
 BYTE   W24
 BYTE   N11  Ds3
 BYTE   W12
 BYTE   TIE  Fn3
 BYTE   W12
// 132   ----------------------------------------
 BYTE   W92
 BYTE   W03
 BYTE   EOT
 BYTE   W01
 BYTE   PATT
  POIN2 Label_11_01290698
// 133   ----------------------------------------
 BYTE   N92  Cs3  v096
 BYTE   W96
 BYTE   PATT
  POIN2 Label_11_01290698
// 134   ----------------------------------------
 BYTE   N44  Gs2  v096
 BYTE   W48
 BYTE   Gs3
 BYTE   W48
// 135   ----------------------------------------
 BYTE   N23
 BYTE   W24
 BYTE   Fs3
 BYTE   W24
 BYTE   Fn3
 BYTE   W24
 BYTE   Ds3
 BYTE   W24
// 136   ----------------------------------------
 BYTE   N44  Cs3
 BYTE   W48
 BYTE   Fn3
 BYTE   W48
// 137   ----------------------------------------
 BYTE   Ds3
 BYTE   W48
 BYTE   TIE  Cs3
 BYTE   W48
// 138   ----------------------------------------
 BYTE   W92
 BYTE   W03
 BYTE   EOT
 BYTE   W01
// 139   ----------------------------------------
 BYTE   W96
// 140   ----------------------------------------
 BYTE   W96
// 141   ----------------------------------------
 BYTE   W96
// 142   ----------------------------------------
 BYTE   W96
// 143   ----------------------------------------
 BYTE   W96
// 144   ----------------------------------------
 BYTE   W96
// 145   ----------------------------------------
 BYTE   W96
// 146   ----------------------------------------
 BYTE   W96
// 147   ----------------------------------------
 BYTE   W96
// 148   ----------------------------------------
 BYTE   W96
// 149   ----------------------------------------
 BYTE   W96
// 150   ----------------------------------------
 BYTE   W96
// 151   ----------------------------------------
 BYTE   W96
// 152   ----------------------------------------
 BYTE   W96
// 153   ----------------------------------------
 BYTE   W96
// 154   ----------------------------------------
 BYTE   W96
// 155   ----------------------------------------
 BYTE   W96
// 156   ----------------------------------------
 BYTE   W96
// 157   ----------------------------------------
 BYTE   W96
// 158   ----------------------------------------
 BYTE   W96
// 159   ----------------------------------------
 BYTE   W96
// 160   ----------------------------------------
 BYTE   W96
// 161   ----------------------------------------
 BYTE   W96
// 162   ----------------------------------------
 BYTE   W96
// 163   ----------------------------------------
 BYTE   W96
// 164   ----------------------------------------
 BYTE   W96
// 165   ----------------------------------------
 BYTE   W96
// 166   ----------------------------------------
 BYTE   GoTo
  POIN2 Label_11_01290406
 BYTE   FINE

//**************** Track 13 (Midi-Chn.12) ****************//

FE16TheApexoftheWorldRainMrGreen3339_013:
// 000   ----------------------------------------
 BYTE   KEYSH   FE16TheApexoftheWorldRainMrGreen3339_key+0
Label_12_01290716:
 BYTE   VOICE   110
 BYTE   VOL   51*FE16TheApexoftheWorldRainMrGreen3339_mvl/mxv
 BYTE   PAN   c_v+0
 BYTE   VOL   51*FE16TheApexoftheWorldRainMrGreen3339_mvl/mxv
 BYTE   PAN   c_v+0
 BYTE   VOL   51*FE16TheApexoftheWorldRainMrGreen3339_mvl/mxv
 BYTE   PAN   c_v+0
 BYTE   VOL   51*FE16TheApexoftheWorldRainMrGreen3339_mvl/mxv
 BYTE   PAN   c_v+0
 BYTE   VOL   51*FE16TheApexoftheWorldRainMrGreen3339_mvl/mxv
 BYTE   PAN   c_v+0
 BYTE   W48
 BYTE   TIE  An1  v064
 BYTE   W96
// 001   ----------------------------------------
 BYTE   W92
 BYTE   W03
 BYTE   EOT
 BYTE   W01
// 002   ----------------------------------------
 BYTE   TIE  Fn1
 BYTE   W96
// 003   ----------------------------------------
 BYTE   W92
 BYTE   W03
 BYTE   EOT
 BYTE   W01
// 004   ----------------------------------------
 BYTE   N92  Dn1
 BYTE   W96
// 005   ----------------------------------------
 BYTE   En1
 BYTE   W96
// 006   ----------------------------------------
 BYTE   Fn1
 BYTE   W96
// 007   ----------------------------------------
 BYTE   Gn1
 BYTE   W96
// 008   ----------------------------------------
 BYTE   W96
// 009   ----------------------------------------
 BYTE   W96
// 010   ----------------------------------------
 BYTE   W96
// 011   ----------------------------------------
 BYTE   W96
// 012   ----------------------------------------
 BYTE   W96
// 013   ----------------------------------------
 BYTE   W96
// 014   ----------------------------------------
 BYTE   W96
// 015   ----------------------------------------
 BYTE   W96
// 016   ----------------------------------------
 BYTE   W96
// 017   ----------------------------------------
 BYTE   W96
// 018   ----------------------------------------
 BYTE   W96
// 019   ----------------------------------------
 BYTE   W96
// 020   ----------------------------------------
 BYTE   W96
// 021   ----------------------------------------
 BYTE   W96
// 022   ----------------------------------------
 BYTE   W96
// 023   ----------------------------------------
 BYTE   W96
// 024   ----------------------------------------
 BYTE   W96
// 025   ----------------------------------------
 BYTE   W96
// 026   ----------------------------------------
 BYTE   W96
// 027   ----------------------------------------
 BYTE   W96
// 028   ----------------------------------------
 BYTE   W96
// 029   ----------------------------------------
 BYTE   W96
// 030   ----------------------------------------
 BYTE   W96
// 031   ----------------------------------------
 BYTE   W96
// 032   ----------------------------------------
 BYTE   W96
// 033   ----------------------------------------
 BYTE   W96
// 034   ----------------------------------------
 BYTE   W96
// 035   ----------------------------------------
 BYTE   W96
// 036   ----------------------------------------
 BYTE   W96
// 037   ----------------------------------------
 BYTE   W96
// 038   ----------------------------------------
 BYTE   W96
// 039   ----------------------------------------
 BYTE   W96
// 040   ----------------------------------------
 BYTE   W96
// 041   ----------------------------------------
 BYTE   W96
// 042   ----------------------------------------
 BYTE   W96
// 043   ----------------------------------------
 BYTE   W96
// 044   ----------------------------------------
 BYTE   W96
// 045   ----------------------------------------
 BYTE   W96
// 046   ----------------------------------------
 BYTE   W96
// 047   ----------------------------------------
 BYTE   W96
// 048   ----------------------------------------
Label_12_0129076D:
 BYTE   N11  An2  v080
 BYTE   W12
 BYTE   Fn2
 BYTE   W24
 BYTE   An2
 BYTE   W12
 BYTE   N11
 BYTE   W12
 BYTE   Fn2
 BYTE   W24
 BYTE   An2
 BYTE   W12
 BYTE   PEND 
 BYTE   PATT
  POIN2 Label_12_0129076D
// 049   ----------------------------------------
Label_12_01290781:
 BYTE   N11  Bn2  v080
 BYTE   W12
 BYTE   Gn2
 BYTE   W24
 BYTE   Bn2
 BYTE   W12
 BYTE   N11
 BYTE   W12
 BYTE   Gn2
 BYTE   W24
 BYTE   Bn2
 BYTE   W12
 BYTE   PEND 
 BYTE   PATT
  POIN2 Label_12_01290781
// 050   ----------------------------------------
Label_12_01290795:
 BYTE   N11  Cn3  v080
 BYTE   W12
 BYTE   Bn2
 BYTE   W24
 BYTE   Cn3
 BYTE   W12
 BYTE   N11
 BYTE   W12
 BYTE   Bn2
 BYTE   W24
 BYTE   Cn3
 BYTE   W12
 BYTE   PEND 
 BYTE   PATT
  POIN2 Label_12_01290795
// 051   ----------------------------------------
 BYTE   N11  Gn3  v080
 BYTE   W12
 BYTE   Gn2
 BYTE   W12
 BYTE   Dn3
 BYTE   W12
 BYTE   Gn2
 BYTE   W12
 BYTE   Gn3
 BYTE   W12
 BYTE   Gn2
 BYTE   W12
 BYTE   Dn3
 BYTE   W12
 BYTE   Gn2
 BYTE   W12
// 052   ----------------------------------------
 BYTE   N44  Gn3
 BYTE   W48
 BYTE   N23  Fn3
 BYTE   W24
 BYTE   En3
 BYTE   W24
// 053   ----------------------------------------
 BYTE   N11  Dn3
 BYTE   W12
 BYTE   N11
 BYTE   W24
 BYTE   N11
 BYTE   W12
 BYTE   N11
 BYTE   W12
 BYTE   N11
 BYTE   W24
 BYTE   N11
 BYTE   W12
// 054   ----------------------------------------
 BYTE   En3
 BYTE   W12
 BYTE   N11
 BYTE   W24
 BYTE   N11
 BYTE   W12
 BYTE   N11
 BYTE   W12
 BYTE   N11
 BYTE   W24
 BYTE   N11
 BYTE   W12
// 055   ----------------------------------------
 BYTE   Dn2
 BYTE   W12
 BYTE   Gn2
 BYTE   W12
 BYTE   Bn2
 BYTE   W12
 BYTE   Gn2
 BYTE   W12
 BYTE   Dn2
 BYTE   W12
 BYTE   Gn2
 BYTE   W12
 BYTE   Bn2
 BYTE   W12
 BYTE   Gn2
 BYTE   W12
// 056   ----------------------------------------
 BYTE   Dn2
 BYTE   W12
 BYTE   Gn2
 BYTE   W12
 BYTE   Bn2
 BYTE   W24
 BYTE   N23  Gn2
 BYTE   W24
 BYTE   Bn2
 BYTE   W24
// 057   ----------------------------------------
 BYTE   N11  Cn3
 BYTE   W12
 BYTE   N11
 BYTE   W24
 BYTE   N11
 BYTE   W12
 BYTE   N11
 BYTE   W12
 BYTE   N11
 BYTE   W24
 BYTE   N11
 BYTE   W12
// 058   ----------------------------------------
 BYTE   Bn2
 BYTE   W12
 BYTE   Gs2
 BYTE   W24
 BYTE   Bn2
 BYTE   W12
 BYTE   N11
 BYTE   W12
 BYTE   Gs2
 BYTE   W24
 BYTE   Bn2
 BYTE   W12
// 059   ----------------------------------------
 BYTE   N11
 BYTE   W12
 BYTE   Gn2
 BYTE   W12
 BYTE   Dn2
 BYTE   W12
 BYTE   Gn2
 BYTE   W12
 BYTE   An2
 BYTE   W12
 BYTE   Gn2
 BYTE   W12
 BYTE   Dn2
 BYTE   W12
 BYTE   Gn2
 BYTE   W12
// 060   ----------------------------------------
 BYTE   N11
 BYTE   W12
 BYTE   Dn2
 BYTE   W12
 BYTE   Gn2
 BYTE   W12
 BYTE   Dn2
 BYTE   W12
 BYTE   Gn2
 BYTE   W12
 BYTE   Dn2
 BYTE   W12
 BYTE   Gn2
 BYTE   W12
 BYTE   Dn2
 BYTE   W12
// 061   ----------------------------------------
Label_12_01290830:
 BYTE   N11  Fn2  v064
 BYTE   W24
 BYTE   N11
 BYTE   W24
 BYTE   N11
 BYTE   W24
 BYTE   N11
 BYTE   W24
 BYTE   PEND 
// 062   ----------------------------------------
Label_12_0129083B:
 BYTE   N11  Fn2  v064
 BYTE   W24
 BYTE   N11
 BYTE   W24
 BYTE   N11
 BYTE   W24
 BYTE   Cn2
 BYTE   W12
 BYTE   En2
 BYTE   W12
 BYTE   PEND 
 BYTE   PATT
  POIN2 Label_12_01290830
// 063   ----------------------------------------
Label_12_0129084D:
 BYTE   N11  Fn2  v064
 BYTE   W24
 BYTE   N11
 BYTE   W24
 BYTE   N11
 BYTE   W24
 BYTE   Gn2
 BYTE   W12
 BYTE   Fn2
 BYTE   W12
 BYTE   PEND 
// 064   ----------------------------------------
Label_12_0129085A:
 BYTE   N11  En2  v064
 BYTE   W24
 BYTE   N11
 BYTE   W24
 BYTE   N11
 BYTE   W24
 BYTE   N11
 BYTE   W24
 BYTE   PEND 
 BYTE   PATT
  POIN2 Label_12_0129085A
// 065   ----------------------------------------
 BYTE   N11  An2  v064
 BYTE   W24
 BYTE   N11
 BYTE   W24
 BYTE   N11
 BYTE   W24
 BYTE   N11
 BYTE   W24
// 066   ----------------------------------------
 BYTE   N11
 BYTE   W12
 BYTE   Cn3
 BYTE   W12
 BYTE   Bn2
 BYTE   W12
 BYTE   Gn2
 BYTE   W12
 BYTE   Dn2
 BYTE   W12
 BYTE   En2
 BYTE   W12
 BYTE   N05
 BYTE   W06
 BYTE   Dn2
 BYTE   W06
 BYTE   Cn2
 BYTE   W06
 BYTE   Bn1
 BYTE   W06
 BYTE   PATT
  POIN2 Label_12_01290830
 BYTE   PATT
  POIN2 Label_12_0129083B
 BYTE   PATT
  POIN2 Label_12_01290830
 BYTE   PATT
  POIN2 Label_12_0129084D
 BYTE   PATT
  POIN2 Label_12_0129085A
 BYTE   PATT
  POIN2 Label_12_0129085A
 BYTE   PATT
  POIN2 Label_12_0129085A
// 067   ----------------------------------------
 BYTE   W96
// 068   ----------------------------------------
 BYTE   W96
// 069   ----------------------------------------
 BYTE   W96
// 070   ----------------------------------------
 BYTE   W96
// 071   ----------------------------------------
 BYTE   W96
// 072   ----------------------------------------
 BYTE   W96
// 073   ----------------------------------------
 BYTE   W96
// 074   ----------------------------------------
 BYTE   W96
// 075   ----------------------------------------
 BYTE   W96
// 076   ----------------------------------------
 BYTE   W96
// 077   ----------------------------------------
 BYTE   W96
// 078   ----------------------------------------
 BYTE   W96
// 079   ----------------------------------------
 BYTE   W96
// 080   ----------------------------------------
 BYTE   W96
// 081   ----------------------------------------
 BYTE   W96
// 082   ----------------------------------------
 BYTE   W96
// 083   ----------------------------------------
 BYTE   W96
// 084   ----------------------------------------
 BYTE   W96
// 085   ----------------------------------------
 BYTE   W96
// 086   ----------------------------------------
 BYTE   W96
// 087   ----------------------------------------
 BYTE   W96
// 088   ----------------------------------------
 BYTE   W96
// 089   ----------------------------------------
 BYTE   W96
// 090   ----------------------------------------
 BYTE   W96
// 091   ----------------------------------------
 BYTE   W96
// 092   ----------------------------------------
 BYTE   W96
// 093   ----------------------------------------
 BYTE   W96
// 094   ----------------------------------------
 BYTE   W96
// 095   ----------------------------------------
 BYTE   W96
// 096   ----------------------------------------
 BYTE   W96
// 097   ----------------------------------------
 BYTE   W96
// 098   ----------------------------------------
 BYTE   W96
// 099   ----------------------------------------
 BYTE   W96
// 100   ----------------------------------------
 BYTE   W96
// 101   ----------------------------------------
 BYTE   W96
// 102   ----------------------------------------
 BYTE   W96
// 103   ----------------------------------------
 BYTE   W96
// 104   ----------------------------------------
 BYTE   W96
// 105   ----------------------------------------
 BYTE   W96
// 106   ----------------------------------------
 BYTE   W96
// 107   ----------------------------------------
 BYTE   W96
// 108   ----------------------------------------
 BYTE   W96
// 109   ----------------------------------------
 BYTE   W96
// 110   ----------------------------------------
 BYTE   W96
// 111   ----------------------------------------
 BYTE   W96
// 112   ----------------------------------------
 BYTE   W96
// 113   ----------------------------------------
 BYTE   W96
// 114   ----------------------------------------
 BYTE   W96
// 115   ----------------------------------------
 BYTE   W96
// 116   ----------------------------------------
 BYTE   W96
// 117   ----------------------------------------
 BYTE   W96
// 118   ----------------------------------------
 BYTE   W96
// 119   ----------------------------------------
 BYTE   W96
// 120   ----------------------------------------
 BYTE   W96
// 121   ----------------------------------------
 BYTE   W96
// 122   ----------------------------------------
 BYTE   W96
// 123   ----------------------------------------
 BYTE   W96
// 124   ----------------------------------------
 BYTE   W96
// 125   ----------------------------------------
 BYTE   W96
// 126   ----------------------------------------
 BYTE   W96
// 127   ----------------------------------------
 BYTE   W96
// 128   ----------------------------------------
 BYTE   W96
// 129   ----------------------------------------
 BYTE   W96
// 130   ----------------------------------------
 BYTE   W96
// 131   ----------------------------------------
 BYTE   W96
// 132   ----------------------------------------
 BYTE   W96
// 133   ----------------------------------------
 BYTE   W96
// 134   ----------------------------------------
 BYTE   W96
// 135   ----------------------------------------
 BYTE   W96
// 136   ----------------------------------------
 BYTE   W96
// 137   ----------------------------------------
 BYTE   W96
// 138   ----------------------------------------
 BYTE   W96
// 139   ----------------------------------------
 BYTE   W96
// 140   ----------------------------------------
 BYTE   W96
// 141   ----------------------------------------
 BYTE   W96
// 142   ----------------------------------------
 BYTE   W96
// 143   ----------------------------------------
 BYTE   W96
// 144   ----------------------------------------
 BYTE   W96
// 145   ----------------------------------------
 BYTE   W96
// 146   ----------------------------------------
 BYTE   W96
// 147   ----------------------------------------
 BYTE   W96
// 148   ----------------------------------------
 BYTE   W96
// 149   ----------------------------------------
 BYTE   W96
// 150   ----------------------------------------
 BYTE   W96
// 151   ----------------------------------------
 BYTE   W96
// 152   ----------------------------------------
 BYTE   W96
// 153   ----------------------------------------
 BYTE   W96
// 154   ----------------------------------------
 BYTE   W96
// 155   ----------------------------------------
 BYTE   W96
// 156   ----------------------------------------
 BYTE   W96
// 157   ----------------------------------------
 BYTE   W96
// 158   ----------------------------------------
 BYTE   W96
// 159   ----------------------------------------
 BYTE   W96
// 160   ----------------------------------------
 BYTE   W96
// 161   ----------------------------------------
 BYTE   W96
// 162   ----------------------------------------
 BYTE   W96
// 163   ----------------------------------------
 BYTE   W96
// 164   ----------------------------------------
 BYTE   W96
// 165   ----------------------------------------
 BYTE   W96
// 166   ----------------------------------------
 BYTE   W96
// 167   ----------------------------------------
 BYTE   W96
// 168   ----------------------------------------
 BYTE   W96
// 169   ----------------------------------------
 BYTE   W96
// 170   ----------------------------------------
 BYTE   W96
// 171   ----------------------------------------
 BYTE   W96
// 172   ----------------------------------------
 BYTE   W96
// 173   ----------------------------------------
 BYTE   W96
// 174   ----------------------------------------
 BYTE   W96
// 175   ----------------------------------------
 BYTE   W96
// 176   ----------------------------------------
 BYTE   GoTo
  POIN2 Label_12_01290716
 BYTE   FINE

//**************** Track 14 (Midi-Chn.13) ****************//

FE16TheApexoftheWorldRainMrGreen3339_014:
// 000   ----------------------------------------
 BYTE   KEYSH   FE16TheApexoftheWorldRainMrGreen3339_key+0
Label_13_01290922:
 BYTE   VOICE   45
 BYTE   VOL   51*FE16TheApexoftheWorldRainMrGreen3339_mvl/mxv
 BYTE   PAN   c_v+0
 BYTE   VOL   51*FE16TheApexoftheWorldRainMrGreen3339_mvl/mxv
 BYTE   PAN   c_v+0
 BYTE   VOL   51*FE16TheApexoftheWorldRainMrGreen3339_mvl/mxv
 BYTE   PAN   c_v+0
 BYTE   VOL   51*FE16TheApexoftheWorldRainMrGreen3339_mvl/mxv
 BYTE   PAN   c_v+0
 BYTE   VOL   51*FE16TheApexoftheWorldRainMrGreen3339_mvl/mxv
 BYTE   PAN   c_v+0
 BYTE   W48
 BYTE   W96
// 001   ----------------------------------------
 BYTE   W96
// 002   ----------------------------------------
 BYTE   W96
// 003   ----------------------------------------
 BYTE   W96
// 004   ----------------------------------------
 BYTE   W96
// 005   ----------------------------------------
 BYTE   W96
// 006   ----------------------------------------
 BYTE   W96
// 007   ----------------------------------------
 BYTE   W96
// 008   ----------------------------------------
 BYTE   W96
// 009   ----------------------------------------
 BYTE   W96
// 010   ----------------------------------------
 BYTE   W96
// 011   ----------------------------------------
 BYTE   W96
// 012   ----------------------------------------
 BYTE   W96
// 013   ----------------------------------------
 BYTE   W96
// 014   ----------------------------------------
 BYTE   W96
// 015   ----------------------------------------
 BYTE   W96
// 016   ----------------------------------------
 BYTE   W96
// 017   ----------------------------------------
 BYTE   W96
// 018   ----------------------------------------
 BYTE   W96
// 019   ----------------------------------------
 BYTE   W96
// 020   ----------------------------------------
 BYTE   W96
// 021   ----------------------------------------
 BYTE   W96
// 022   ----------------------------------------
 BYTE   W96
// 023   ----------------------------------------
 BYTE   W96
// 024   ----------------------------------------
 BYTE   W96
// 025   ----------------------------------------
 BYTE   W96
// 026   ----------------------------------------
 BYTE   W96
// 027   ----------------------------------------
 BYTE   W96
// 028   ----------------------------------------
 BYTE   W96
// 029   ----------------------------------------
 BYTE   W96
// 030   ----------------------------------------
 BYTE   W96
// 031   ----------------------------------------
 BYTE   W96
// 032   ----------------------------------------
 BYTE   W96
// 033   ----------------------------------------
 BYTE   W96
// 034   ----------------------------------------
 BYTE   W96
// 035   ----------------------------------------
 BYTE   W96
// 036   ----------------------------------------
 BYTE   W96
// 037   ----------------------------------------
 BYTE   W96
// 038   ----------------------------------------
 BYTE   W96
// 039   ----------------------------------------
 BYTE   W96
// 040   ----------------------------------------
 BYTE   W96
// 041   ----------------------------------------
 BYTE   W96
// 042   ----------------------------------------
 BYTE   W96
// 043   ----------------------------------------
 BYTE   W96
// 044   ----------------------------------------
 BYTE   W96
// 045   ----------------------------------------
 BYTE   W96
// 046   ----------------------------------------
 BYTE   W96
// 047   ----------------------------------------
 BYTE   W96
// 048   ----------------------------------------
 BYTE   W96
// 049   ----------------------------------------
 BYTE   W96
// 050   ----------------------------------------
 BYTE   W96
// 051   ----------------------------------------
 BYTE   W96
// 052   ----------------------------------------
 BYTE   W96
// 053   ----------------------------------------
 BYTE   W96
// 054   ----------------------------------------
 BYTE   W96
// 055   ----------------------------------------
 BYTE   W96
// 056   ----------------------------------------
 BYTE   W96
// 057   ----------------------------------------
 BYTE   W96
// 058   ----------------------------------------
 BYTE   W96
// 059   ----------------------------------------
 BYTE   W96
// 060   ----------------------------------------
 BYTE   W96
// 061   ----------------------------------------
 BYTE   W96
// 062   ----------------------------------------
 BYTE   W96
// 063   ----------------------------------------
 BYTE   W96
// 064   ----------------------------------------
 BYTE   W96
// 065   ----------------------------------------
 BYTE   W96
// 066   ----------------------------------------
 BYTE   W96
// 067   ----------------------------------------
 BYTE   W96
// 068   ----------------------------------------
 BYTE   W96
// 069   ----------------------------------------
 BYTE   W96
// 070   ----------------------------------------
 BYTE   W96
// 071   ----------------------------------------
 BYTE   W96
// 072   ----------------------------------------
 BYTE   W96
// 073   ----------------------------------------
 BYTE   W96
// 074   ----------------------------------------
 BYTE   W96
// 075   ----------------------------------------
 BYTE   W96
// 076   ----------------------------------------
 BYTE   W96
// 077   ----------------------------------------
 BYTE   W96
// 078   ----------------------------------------
 BYTE   W96
// 079   ----------------------------------------
 BYTE   W96
// 080   ----------------------------------------
 BYTE   W96
// 081   ----------------------------------------
 BYTE   W96
// 082   ----------------------------------------
 BYTE   W96
// 083   ----------------------------------------
 BYTE   W96
// 084   ----------------------------------------
 BYTE   W96
// 085   ----------------------------------------
 BYTE   W96
// 086   ----------------------------------------
 BYTE   W96
// 087   ----------------------------------------
 BYTE   W96
// 088   ----------------------------------------
 BYTE   W96
// 089   ----------------------------------------
 BYTE   W96
// 090   ----------------------------------------
 BYTE   W96
// 091   ----------------------------------------
 BYTE   W96
// 092   ----------------------------------------
 BYTE   W96
// 093   ----------------------------------------
 BYTE   W96
// 094   ----------------------------------------
 BYTE   W96
// 095   ----------------------------------------
 BYTE   W96
// 096   ----------------------------------------
 BYTE   N32  Fn3  v080
 BYTE   W36
 BYTE   En3
 BYTE   W36
 BYTE   TIE  Gn3
 BYTE   W24
// 097   ----------------------------------------
 BYTE   W96
// 098   ----------------------------------------
 BYTE   W96
// 099   ----------------------------------------
 BYTE   W92
 BYTE   W03
 BYTE   EOT
 BYTE   W01
// 100   ----------------------------------------
 BYTE   N32  Fn3
 BYTE   W36
 BYTE   En3
 BYTE   W36
 BYTE   TIE
 BYTE   W24
// 101   ----------------------------------------
 BYTE   W96
// 102   ----------------------------------------
 BYTE   W96
// 103   ----------------------------------------
 BYTE   W92
 BYTE   W03
 BYTE   EOT
 BYTE   W01
// 104   ----------------------------------------
 BYTE   W96
// 105   ----------------------------------------
 BYTE   W96
// 106   ----------------------------------------
 BYTE   W96
// 107   ----------------------------------------
 BYTE   W96
// 108   ----------------------------------------
 BYTE   W96
// 109   ----------------------------------------
 BYTE   W96
// 110   ----------------------------------------
 BYTE   N11  Bn3  v064
 BYTE   W12
 BYTE   N11
 BYTE   W12
 BYTE   N11
 BYTE   W12
 BYTE   N11
 BYTE   W12
 BYTE   N11
 BYTE   W12
 BYTE   N11
 BYTE   W12
 BYTE   N11
 BYTE   W12
 BYTE   N11
 BYTE   W12
// 111   ----------------------------------------
 BYTE   W48
 BYTE   N44  Bn2  v016
 BYTE   N44  Dn3
 BYTE   W01
 BYTE   W01
 BYTE   W01
 BYTE   W01
 BYTE   W01
 BYTE   W01
 BYTE   W01
 BYTE   W01
 BYTE   W01
 BYTE   W01
 BYTE   W01
 BYTE   W01
 BYTE   W01
 BYTE   W01
 BYTE   W01
 BYTE   W01
 BYTE   W01
 BYTE   W01
 BYTE   W01
 BYTE   W01
 BYTE   W01
 BYTE   W01
 BYTE   W01
 BYTE   W01
 BYTE   W01
 BYTE   W01
 BYTE   W01
 BYTE   W01
 BYTE   W01
 BYTE   W01
 BYTE   W01
 BYTE   W01
 BYTE   W01
 BYTE   W01
 BYTE   W01
 BYTE   W01
 BYTE   W01
 BYTE   W01
 BYTE   W01
 BYTE   W01
 BYTE   W01
 BYTE   W01
 BYTE   W01
 BYTE   W01
 BYTE   W01
 BYTE   W01
 BYTE   W01
 BYTE   W01
// 112   ----------------------------------------
 BYTE   N32  En3  v080
 BYTE   W36
 BYTE   N11
 BYTE   W24
 BYTE   N32  Cn3
 BYTE   W36
// 113   ----------------------------------------
Label_13_01290A0C:
 BYTE   N32  Cn3  v080
 BYTE   W36
 BYTE   Dn3
 BYTE   W36
 BYTE   N23  Bn2
 BYTE   W24
 BYTE   PEND 
// 114   ----------------------------------------
 BYTE   N32  Cn3
 BYTE   W36
 BYTE   N11  Bn2
 BYTE   W24
 BYTE   N32
 BYTE   W36
// 115   ----------------------------------------
Label_13_01290A1E:
 BYTE   N32  Dn3  v080
 BYTE   W36
 BYTE   Cn3
 BYTE   W36
 BYTE   N23  Bn2
 BYTE   W24
 BYTE   PEND 
// 116   ----------------------------------------
 BYTE   N44  An2
 BYTE   W48
 BYTE   N23  Gn3
 BYTE   W24
 BYTE   Fn3
 BYTE   W24
// 117   ----------------------------------------
 BYTE   N44  Dn3
 BYTE   W48
 BYTE   Gs3
 BYTE   W48
// 118   ----------------------------------------
 BYTE   N32  Bn3
 BYTE   W36
 BYTE   N56  An3
 BYTE   W60
// 119   ----------------------------------------
Label_13_01290A3B:
 BYTE   N32  Gn3  v080
 BYTE   W36
 BYTE   Fn3
 BYTE   W36
 BYTE   N23  En3
 BYTE   W24
 BYTE   PEND 
// 120   ----------------------------------------
 BYTE   N23
 BYTE   W24
 BYTE   Fn3
 BYTE   W24
 BYTE   N32  An3
 BYTE   W36
 BYTE   N44  Gn3
 BYTE   W12
// 121   ----------------------------------------
 BYTE   W36
 BYTE   N32  Dn3
 BYTE   W36
 BYTE   N23  Gn3
 BYTE   W24
// 122   ----------------------------------------
 BYTE   N32  Dn3
 BYTE   W36
 BYTE   N80  Bn3
 BYTE   W60
// 123   ----------------------------------------
 BYTE   W24
 BYTE   N68  Cn4
 BYTE   W72
// 124   ----------------------------------------
 BYTE   N44  Fn3
 BYTE   W48
 BYTE   An3
 BYTE   W48
// 125   ----------------------------------------
 BYTE   Gs3
 BYTE   W48
 BYTE   En3
 BYTE   W48
// 126   ----------------------------------------
 BYTE   N32  Dn3
 BYTE   W36
 BYTE   TIE  Cn3
 BYTE   W60
// 127   ----------------------------------------
 BYTE   W92
 BYTE   W03
 BYTE   EOT
 BYTE   W01
// 128   ----------------------------------------
 BYTE   N44  An2
 BYTE   W48
 BYTE   En2
 BYTE   W48
 BYTE   PATT
  POIN2 Label_13_01290A0C
// 129   ----------------------------------------
 BYTE   N44  Cn3  v080
 BYTE   W48
 BYTE   Bn2
 BYTE   W48
 BYTE   PATT
  POIN2 Label_13_01290A1E
// 130   ----------------------------------------
 BYTE   N23  An2  v080
 BYTE   W24
 BYTE   Cn3
 BYTE   W24
 BYTE   N44  Gn3
 BYTE   W48
// 131   ----------------------------------------
 BYTE   N23  Dn3
 BYTE   W24
 BYTE   N07  En3
 BYTE   W08
 BYTE   Fn3
 BYTE   W08
 BYTE   Gn3
 BYTE   W08
 BYTE   N44  Gs3
 BYTE   W48
// 132   ----------------------------------------
 BYTE   Bn3
 BYTE   W48
 BYTE   An3
 BYTE   W48
 BYTE   PATT
  POIN2 Label_13_01290A3B
// 133   ----------------------------------------
 BYTE   W96
// 134   ----------------------------------------
 BYTE   W96
// 135   ----------------------------------------
 BYTE   W96
// 136   ----------------------------------------
 BYTE   W96
// 137   ----------------------------------------
 BYTE   W96
// 138   ----------------------------------------
 BYTE   W96
// 139   ----------------------------------------
 BYTE   W96
// 140   ----------------------------------------
 BYTE   W96
// 141   ----------------------------------------
 BYTE   W96
// 142   ----------------------------------------
 BYTE   W96
// 143   ----------------------------------------
 BYTE   W96
// 144   ----------------------------------------
 BYTE   W96
// 145   ----------------------------------------
 BYTE   W96
// 146   ----------------------------------------
 BYTE   W96
// 147   ----------------------------------------
 BYTE   W96
// 148   ----------------------------------------
 BYTE   W96
// 149   ----------------------------------------
 BYTE   W96
// 150   ----------------------------------------
 BYTE   W96
// 151   ----------------------------------------
 BYTE   W96
// 152   ----------------------------------------
 BYTE   W96
// 153   ----------------------------------------
 BYTE   W96
// 154   ----------------------------------------
 BYTE   W96
// 155   ----------------------------------------
 BYTE   W96
// 156   ----------------------------------------
 BYTE   W96
// 157   ----------------------------------------
 BYTE   W96
// 158   ----------------------------------------
 BYTE   W96
// 159   ----------------------------------------
 BYTE   W96
// 160   ----------------------------------------
 BYTE   W96
// 161   ----------------------------------------
 BYTE   W96
// 162   ----------------------------------------
 BYTE   W96
// 163   ----------------------------------------
 BYTE   W96
// 164   ----------------------------------------
 BYTE   W96
// 165   ----------------------------------------
 BYTE   W96
// 166   ----------------------------------------
 BYTE   W96
// 167   ----------------------------------------
 BYTE   W96
// 168   ----------------------------------------
 BYTE   W96
// 169   ----------------------------------------
 BYTE   W96
// 170   ----------------------------------------
 BYTE   W96
// 171   ----------------------------------------
 BYTE   W96
// 172   ----------------------------------------
 BYTE   W96
// 173   ----------------------------------------
 BYTE   W96
// 174   ----------------------------------------
 BYTE   W96
// 175   ----------------------------------------
 BYTE   W96
// 176   ----------------------------------------
 BYTE   W96
// 177   ----------------------------------------
 BYTE   W96
// 178   ----------------------------------------
 BYTE   W96
// 179   ----------------------------------------
 BYTE   W96
// 180   ----------------------------------------
 BYTE   W96
// 181   ----------------------------------------
 BYTE   W96
// 182   ----------------------------------------
 BYTE   W96
// 183   ----------------------------------------
 BYTE   W96
// 184   ----------------------------------------
 BYTE   W96
// 185   ----------------------------------------
 BYTE   GoTo
  POIN2 Label_13_01290922
 BYTE   FINE

//**************** Track 15 (Midi-Chn.14) ****************//

FE16TheApexoftheWorldRainMrGreen3339_015:
// 000   ----------------------------------------
 BYTE   KEYSH   FE16TheApexoftheWorldRainMrGreen3339_key+0
Label_14_01290AE6:
 BYTE   VOICE   110
 BYTE   VOL   38*FE16TheApexoftheWorldRainMrGreen3339_mvl/mxv
 BYTE   PAN   c_v+0
 BYTE   VOL   51*FE16TheApexoftheWorldRainMrGreen3339_mvl/mxv
 BYTE   PAN   c_v+0
 BYTE   VOL   51*FE16TheApexoftheWorldRainMrGreen3339_mvl/mxv
 BYTE   PAN   c_v+0
 BYTE   VOL   51*FE16TheApexoftheWorldRainMrGreen3339_mvl/mxv
 BYTE   PAN   c_v+0
 BYTE   VOL   51*FE16TheApexoftheWorldRainMrGreen3339_mvl/mxv
 BYTE   PAN   c_v+0
 BYTE   W48
 BYTE   W96
// 001   ----------------------------------------
 BYTE   W96
// 002   ----------------------------------------
 BYTE   W96
// 003   ----------------------------------------
 BYTE   W96
// 004   ----------------------------------------
 BYTE   W96
// 005   ----------------------------------------
 BYTE   W96
// 006   ----------------------------------------
 BYTE   W96
// 007   ----------------------------------------
 BYTE   W96
// 008   ----------------------------------------
 BYTE   W96
// 009   ----------------------------------------
 BYTE   W96
// 010   ----------------------------------------
 BYTE   W96
// 011   ----------------------------------------
 BYTE   W96
// 012   ----------------------------------------
 BYTE   W96
// 013   ----------------------------------------
 BYTE   W96
// 014   ----------------------------------------
 BYTE   W96
// 015   ----------------------------------------
 BYTE   W96
// 016   ----------------------------------------
Label_14_01290B0D:
 BYTE   N92  An2  v036
 BYTE   W06
 BYTE   W03
 BYTE   W03
 BYTE   W03
 BYTE   W03
 BYTE   W03
 BYTE   W03
 BYTE   W03
 BYTE   W03
 BYTE   W03
 BYTE   W03
 BYTE   W03
 BYTE   W03
 BYTE   W03
 BYTE   W03
 BYTE   W03
 BYTE   W03
 BYTE   W03
 BYTE   W04
 BYTE   W03
 BYTE   W03
 BYTE   W03
 BYTE   W03
 BYTE   W03
 BYTE   W03
 BYTE   W03
 BYTE   W03
 BYTE   W03
 BYTE   W03
 BYTE   W03
 BYTE   W02
 BYTE   PEND 
// 017   ----------------------------------------
 BYTE   Gn2  v064
 BYTE   W96
// 018   ----------------------------------------
Label_14_01290B33:
 BYTE   TIE  Fn2  v064
 BYTE   W09
 BYTE   W04
 BYTE   W05
 BYTE   W05
 BYTE   W04
 BYTE   W05
 BYTE   W04
 BYTE   W05
 BYTE   W05
 BYTE   W04
 BYTE   W05
 BYTE   W04
 BYTE   W05
 BYTE   W05
 BYTE   W04
 BYTE   W05
 BYTE   W04
 BYTE   W05
 BYTE   W05
 BYTE   W04
 BYTE   PEND 
// 019   ----------------------------------------
Label_14_01290B4B:
 BYTE   W05
 BYTE   W04
 BYTE   W05
 BYTE   W05
 BYTE   W04
 BYTE   W05
 BYTE   W04
 BYTE   W05
 BYTE   W05
 BYTE   W04
 BYTE   W01
 BYTE   PEND 
 BYTE   EOT
 BYTE   Fn2
 BYTE   W48
 BYTE   W01
// 020   ----------------------------------------
Label_14_01290B5B:
 BYTE   N44  Fn2  v036
 BYTE   W06
 BYTE   W03
 BYTE   W03
 BYTE   W03
 BYTE   W03
 BYTE   W03
 BYTE   W03
 BYTE   W03
 BYTE   W03
 BYTE   W03
 BYTE   W03
 BYTE   W03
 BYTE   W03
 BYTE   W03
 BYTE   W03
 BYTE   En2  v048
 BYTE   W03
 BYTE   W03
 BYTE   W03
 BYTE   W04
 BYTE   W03
 BYTE   W03
 BYTE   W03
 BYTE   W03
 BYTE   W03
 BYTE   W03
 BYTE   W03
 BYTE   W03
 BYTE   W03
 BYTE   W03
 BYTE   W03
 BYTE   W02
 BYTE   PEND 
// 021   ----------------------------------------
 BYTE   N92  Gn2  v064
 BYTE   W96
// 022   ----------------------------------------
 BYTE   TIE
 BYTE   W09
 BYTE   W04
 BYTE   W05
 BYTE   W05
 BYTE   W04
 BYTE   W05
 BYTE   W04
 BYTE   W05
 BYTE   W05
 BYTE   W04
 BYTE   W05
 BYTE   W04
 BYTE   W05
 BYTE   W05
 BYTE   W04
 BYTE   W05
 BYTE   W04
 BYTE   W05
 BYTE   W05
 BYTE   W04
 BYTE   PATT
  POIN2 Label_14_01290B4B
// 023   ----------------------------------------
 BYTE   EOT
 BYTE   Gn2
 BYTE   W48
 BYTE   W01
 BYTE   PATT
  POIN2 Label_14_01290B0D
// 024   ----------------------------------------
 BYTE   N92  Gn2  v064
 BYTE   W96
 BYTE   PATT
  POIN2 Label_14_01290B33
 BYTE   PATT
  POIN2 Label_14_01290B4B
// 025   ----------------------------------------
 BYTE   EOT
 BYTE   Fn2
 BYTE   W48
 BYTE   W01
 BYTE   PATT
  POIN2 Label_14_01290B5B
// 026   ----------------------------------------
 BYTE   N92  Gn2  v064
 BYTE   W96
// 027   ----------------------------------------
 BYTE   TIE
 BYTE   W09
 BYTE   W10
 BYTE   W09
 BYTE   W10
 BYTE   W10
 BYTE   W09
 BYTE   W10
 BYTE   W09
 BYTE   W10
 BYTE   W10
// 028   ----------------------------------------
 BYTE   W09
 BYTE   W10
 BYTE   W09
 BYTE   W10
 BYTE   W09
 BYTE   EOT
 BYTE   W48
 BYTE   W01
// 029   ----------------------------------------
Label_14_01290BD5:
 BYTE   W24
 BYTE   N11  An2  v080
 BYTE   W36
 BYTE   N11
 BYTE   W36
 BYTE   PEND 
// 030   ----------------------------------------
Label_14_01290BDD:
 BYTE   W24
 BYTE   N11  Gn2  v080
 BYTE   W24
 BYTE   Dn2
 BYTE   W24
 BYTE   N11
 BYTE   W24
 BYTE   PEND 
// 031   ----------------------------------------
Label_14_01290BE7:
 BYTE   W24
 BYTE   N11  En2  v080
 BYTE   N11  An2
 BYTE   W36
 BYTE   En2
 BYTE   N11  An2
 BYTE   W36
 BYTE   PEND 
// 032   ----------------------------------------
Label_14_01290BF3:
 BYTE   W24
 BYTE   N11  En2  v080
 BYTE   N11  An2
 BYTE   W24
 BYTE   En2
 BYTE   N11  An2
 BYTE   W24
 BYTE   En2
 BYTE   W24
 BYTE   PEND 
// 033   ----------------------------------------
Label_14_01290C01:
 BYTE   W24
 BYTE   N11  Dn2  v080
 BYTE   N11  Fn2
 BYTE   W36
 BYTE   Dn2
 BYTE   N11  Fn2
 BYTE   W36
 BYTE   PEND 
// 034   ----------------------------------------
 BYTE   W24
 BYTE   Dn2
 BYTE   N11  Fn2
 BYTE   W24
 BYTE   N11
 BYTE   N11  Gn2
 BYTE   W24
 BYTE   Dn2
 BYTE   N11  Gn2
 BYTE   W24
// 035   ----------------------------------------
 BYTE   W24
 BYTE   N11
 BYTE   N11  Bn2
 BYTE   W36
 BYTE   Gn2
 BYTE   N11  Bn2
 BYTE   W36
// 036   ----------------------------------------
 BYTE   W24
 BYTE   Gn2
 BYTE   N11  Bn2
 BYTE   W24
 BYTE   Gn2
 BYTE   N11  Bn2
 BYTE   W24
 BYTE   Gn2
 BYTE   N11  Bn2
 BYTE   W24
 BYTE   PATT
  POIN2 Label_14_01290BD5
 BYTE   PATT
  POIN2 Label_14_01290BDD
 BYTE   PATT
  POIN2 Label_14_01290BE7
 BYTE   PATT
  POIN2 Label_14_01290BF3
 BYTE   PATT
  POIN2 Label_14_01290C01
// 037   ----------------------------------------
 BYTE   W24
 BYTE   N11  Dn2  v080
 BYTE   N11  Fn2
 BYTE   W24
 BYTE   Dn2
 BYTE   N11  Fn2
 BYTE   W24
 BYTE   Dn2
 BYTE   N11  Fn2
 BYTE   W24
// 038   ----------------------------------------
 BYTE   N92  Bn2
 BYTE   W96
// 039   ----------------------------------------
 BYTE   W96
// 040   ----------------------------------------
 BYTE   W96
// 041   ----------------------------------------
 BYTE   W96
// 042   ----------------------------------------
 BYTE   W96
// 043   ----------------------------------------
 BYTE   W96
// 044   ----------------------------------------
 BYTE   W96
// 045   ----------------------------------------
 BYTE   W96
// 046   ----------------------------------------
 BYTE   W96
// 047   ----------------------------------------
 BYTE   W96
// 048   ----------------------------------------
 BYTE   W96
// 049   ----------------------------------------
 BYTE   W96
// 050   ----------------------------------------
 BYTE   W96
// 051   ----------------------------------------
 BYTE   W96
// 052   ----------------------------------------
 BYTE   W96
// 053   ----------------------------------------
 BYTE   W96
// 054   ----------------------------------------
 BYTE   W96
// 055   ----------------------------------------
 BYTE   W96
// 056   ----------------------------------------
 BYTE   W96
// 057   ----------------------------------------
 BYTE   W96
// 058   ----------------------------------------
 BYTE   W96
// 059   ----------------------------------------
 BYTE   W96
// 060   ----------------------------------------
 BYTE   W96
// 061   ----------------------------------------
 BYTE   W96
// 062   ----------------------------------------
 BYTE   W96
// 063   ----------------------------------------
 BYTE   W96
// 064   ----------------------------------------
 BYTE   W96
// 065   ----------------------------------------
 BYTE   W96
// 066   ----------------------------------------
 BYTE   W96
// 067   ----------------------------------------
 BYTE   W96
// 068   ----------------------------------------
 BYTE   W96
// 069   ----------------------------------------
 BYTE   W96
// 070   ----------------------------------------
 BYTE   W96
// 071   ----------------------------------------
 BYTE   En2  v064
 BYTE   W96
// 072   ----------------------------------------
 BYTE   W96
// 073   ----------------------------------------
 BYTE   W96
// 074   ----------------------------------------
 BYTE   W96
// 075   ----------------------------------------
 BYTE   W96
// 076   ----------------------------------------
 BYTE   W96
// 077   ----------------------------------------
 BYTE   W96
// 078   ----------------------------------------
 BYTE   W96
// 079   ----------------------------------------
 BYTE   W96
// 080   ----------------------------------------
 BYTE   W96
// 081   ----------------------------------------
 BYTE   W96
// 082   ----------------------------------------
 BYTE   W96
// 083   ----------------------------------------
 BYTE   W96
// 084   ----------------------------------------
 BYTE   W96
// 085   ----------------------------------------
 BYTE   W96
// 086   ----------------------------------------
 BYTE   W96
// 087   ----------------------------------------
 BYTE   W96
// 088   ----------------------------------------
 BYTE   W96
// 089   ----------------------------------------
 BYTE   W96
// 090   ----------------------------------------
 BYTE   W96
// 091   ----------------------------------------
 BYTE   W96
// 092   ----------------------------------------
 BYTE   W96
// 093   ----------------------------------------
 BYTE   W96
// 094   ----------------------------------------
 BYTE   W96
// 095   ----------------------------------------
 BYTE   W96
// 096   ----------------------------------------
 BYTE   W96
// 097   ----------------------------------------
 BYTE   W96
// 098   ----------------------------------------
 BYTE   W96
// 099   ----------------------------------------
 BYTE   W96
// 100   ----------------------------------------
 BYTE   W96
// 101   ----------------------------------------
 BYTE   W96
// 102   ----------------------------------------
 BYTE   W96
// 103   ----------------------------------------
 BYTE   W96
// 104   ----------------------------------------
 BYTE   W96
// 105   ----------------------------------------
 BYTE   W96
// 106   ----------------------------------------
 BYTE   W96
// 107   ----------------------------------------
 BYTE   W96
// 108   ----------------------------------------
 BYTE   W96
// 109   ----------------------------------------
 BYTE   W96
// 110   ----------------------------------------
 BYTE   W96
// 111   ----------------------------------------
 BYTE   W96
// 112   ----------------------------------------
 BYTE   W96
// 113   ----------------------------------------
 BYTE   W96
// 114   ----------------------------------------
 BYTE   W96
// 115   ----------------------------------------
 BYTE   W96
// 116   ----------------------------------------
 BYTE   W96
// 117   ----------------------------------------
 BYTE   W96
// 118   ----------------------------------------
 BYTE   W96
// 119   ----------------------------------------
 BYTE   W96
// 120   ----------------------------------------
 BYTE   W96
// 121   ----------------------------------------
 BYTE   W96
// 122   ----------------------------------------
 BYTE   W96
// 123   ----------------------------------------
 BYTE   W96
// 124   ----------------------------------------
 BYTE   W96
// 125   ----------------------------------------
 BYTE   W96
// 126   ----------------------------------------
 BYTE   W96
// 127   ----------------------------------------
 BYTE   W96
// 128   ----------------------------------------
 BYTE   W96
// 129   ----------------------------------------
 BYTE   W96
// 130   ----------------------------------------
 BYTE   W96
// 131   ----------------------------------------
 BYTE   W96
// 132   ----------------------------------------
 BYTE   W96
// 133   ----------------------------------------
 BYTE   W96
// 134   ----------------------------------------
 BYTE   W96
// 135   ----------------------------------------
 BYTE   W96
// 136   ----------------------------------------
 BYTE   W96
// 137   ----------------------------------------
 BYTE   W96
// 138   ----------------------------------------
 BYTE   W96
// 139   ----------------------------------------
 BYTE   W96
// 140   ----------------------------------------
 BYTE   W96
// 141   ----------------------------------------
 BYTE   W96
// 142   ----------------------------------------
 BYTE   W96
// 143   ----------------------------------------
 BYTE   W96
// 144   ----------------------------------------
 BYTE   W96
// 145   ----------------------------------------
 BYTE   W96
// 146   ----------------------------------------
 BYTE   W96
// 147   ----------------------------------------
 BYTE   W96
// 148   ----------------------------------------
 BYTE   W96
// 149   ----------------------------------------
 BYTE   W96
// 150   ----------------------------------------
 BYTE   W96
// 151   ----------------------------------------
 BYTE   W96
// 152   ----------------------------------------
 BYTE   W96
// 153   ----------------------------------------
 BYTE   N68  Ds4  v016
 BYTE   N68  Fs4
 BYTE   W02
 BYTE   W01
 BYTE   W01
 BYTE   W01
 BYTE   W01
 BYTE   W01
 BYTE   W01
 BYTE   W01
 BYTE   W02
 BYTE   W01
 BYTE   W01
 BYTE   W01
 BYTE   W01
 BYTE   W01
 BYTE   W01
 BYTE   W01
 BYTE   W01
 BYTE   W01
 BYTE   W02
 BYTE   W01
 BYTE   W01
 BYTE   W01
 BYTE   W01
 BYTE   W01
 BYTE   W01
 BYTE   W01
 BYTE   W01
 BYTE   W01
 BYTE   W02
 BYTE   W01
 BYTE   W01
 BYTE   W01
 BYTE   W01
 BYTE   W01
 BYTE   W01
 BYTE   W01
 BYTE   W01
 BYTE   W01
 BYTE   W02
 BYTE   W01
 BYTE   W01
 BYTE   W01
 BYTE   W01
 BYTE   W01
 BYTE   W02
 BYTE   W01
 BYTE   W01
 BYTE   W02
 BYTE   W01
 BYTE   W01
 BYTE   W01
 BYTE   W01
 BYTE   W01
 BYTE   W01
 BYTE   W01
 BYTE   W01
 BYTE   W01
 BYTE   W02
 BYTE   W01
 BYTE   W01
 BYTE   W01
 BYTE   W01
 BYTE   W01
 BYTE   W24
 BYTE   W01
// 154   ----------------------------------------
 BYTE   W96
// 155   ----------------------------------------
 BYTE   W96
// 156   ----------------------------------------
 BYTE   W96
// 157   ----------------------------------------
 BYTE   W96
// 158   ----------------------------------------
 BYTE   W96
// 159   ----------------------------------------
 BYTE   W96
// 160   ----------------------------------------
 BYTE   W96
// 161   ----------------------------------------
 BYTE   W96
// 162   ----------------------------------------
 BYTE   W96
// 163   ----------------------------------------
 BYTE   W96
// 164   ----------------------------------------
 BYTE   W96
// 165   ----------------------------------------
 BYTE   W96
// 166   ----------------------------------------
 BYTE   W96
// 167   ----------------------------------------
 BYTE   W96
// 168   ----------------------------------------
 BYTE   W96
// 169   ----------------------------------------
 BYTE   W96
// 170   ----------------------------------------
 BYTE   W96
// 171   ----------------------------------------
 BYTE   W96
// 172   ----------------------------------------
 BYTE   W96
// 173   ----------------------------------------
 BYTE   W96
// 174   ----------------------------------------
 BYTE   W96
// 175   ----------------------------------------
 BYTE   W96
// 176   ----------------------------------------
 BYTE   W96
// 177   ----------------------------------------
 BYTE   W96
// 178   ----------------------------------------
 BYTE   W96
// 179   ----------------------------------------
 BYTE   W96
// 180   ----------------------------------------
 BYTE   GoTo
  POIN2 Label_14_01290AE6
 BYTE   FINE

//**************** Track 16 (Midi-Chn.15) ****************//

FE16TheApexoftheWorldRainMrGreen3339_016:
// 000   ----------------------------------------
 BYTE   KEYSH   FE16TheApexoftheWorldRainMrGreen3339_key+0
Label_15_01290D3A:
 BYTE   VOICE   48
 BYTE   VOL   51*FE16TheApexoftheWorldRainMrGreen3339_mvl/mxv
 BYTE   PAN   c_v+0
 BYTE   VOL   51*FE16TheApexoftheWorldRainMrGreen3339_mvl/mxv
 BYTE   PAN   c_v+0
 BYTE   VOL   51*FE16TheApexoftheWorldRainMrGreen3339_mvl/mxv
 BYTE   PAN   c_v+0
 BYTE   VOL   51*FE16TheApexoftheWorldRainMrGreen3339_mvl/mxv
 BYTE   PAN   c_v+0
 BYTE   VOL   51*FE16TheApexoftheWorldRainMrGreen3339_mvl/mxv
 BYTE   PAN   c_v+0
 BYTE   W48
 BYTE   TIE  An1  v080
 BYTE   W96
// 001   ----------------------------------------
 BYTE   W92
 BYTE   W03
 BYTE   EOT
 BYTE   W01
// 002   ----------------------------------------
 BYTE   TIE  Fn1
 BYTE   W96
// 003   ----------------------------------------
 BYTE   W92
 BYTE   W03
 BYTE   EOT
 BYTE   W01
// 004   ----------------------------------------
 BYTE   N92  Dn1
 BYTE   W96
// 005   ----------------------------------------
 BYTE   En1
 BYTE   W96
// 006   ----------------------------------------
 BYTE   Fn1
 BYTE   W96
// 007   ----------------------------------------
 BYTE   Gn1
 BYTE   W96
// 008   ----------------------------------------
 BYTE   W96
// 009   ----------------------------------------
 BYTE   W96
// 010   ----------------------------------------
 BYTE   W96
// 011   ----------------------------------------
 BYTE   W96
// 012   ----------------------------------------
 BYTE   W96
// 013   ----------------------------------------
 BYTE   W96
// 014   ----------------------------------------
 BYTE   W96
// 015   ----------------------------------------
 BYTE   W96
// 016   ----------------------------------------
 BYTE   W96
// 017   ----------------------------------------
 BYTE   W96
// 018   ----------------------------------------
 BYTE   W96
// 019   ----------------------------------------
 BYTE   W96
// 020   ----------------------------------------
 BYTE   W96
// 021   ----------------------------------------
 BYTE   W96
// 022   ----------------------------------------
 BYTE   W96
// 023   ----------------------------------------
 BYTE   W96
// 024   ----------------------------------------
 BYTE   W96
// 025   ----------------------------------------
 BYTE   W96
// 026   ----------------------------------------
 BYTE   W96
// 027   ----------------------------------------
 BYTE   W96
// 028   ----------------------------------------
 BYTE   W96
// 029   ----------------------------------------
 BYTE   W96
// 030   ----------------------------------------
 BYTE   W96
// 031   ----------------------------------------
 BYTE   W96
// 032   ----------------------------------------
 BYTE   W96
// 033   ----------------------------------------
 BYTE   W96
// 034   ----------------------------------------
 BYTE   W96
// 035   ----------------------------------------
 BYTE   W96
// 036   ----------------------------------------
 BYTE   W96
// 037   ----------------------------------------
 BYTE   W96
// 038   ----------------------------------------
 BYTE   W96
// 039   ----------------------------------------
 BYTE   W96
// 040   ----------------------------------------
 BYTE   W96
// 041   ----------------------------------------
 BYTE   W96
// 042   ----------------------------------------
 BYTE   W96
// 043   ----------------------------------------
 BYTE   W96
// 044   ----------------------------------------
 BYTE   W96
// 045   ----------------------------------------
 BYTE   W96
// 046   ----------------------------------------
 BYTE   W96
// 047   ----------------------------------------
 BYTE   W96
// 048   ----------------------------------------
 BYTE   W96
// 049   ----------------------------------------
 BYTE   W96
// 050   ----------------------------------------
 BYTE   W96
// 051   ----------------------------------------
 BYTE   W96
// 052   ----------------------------------------
 BYTE   W96
// 053   ----------------------------------------
 BYTE   W96
// 054   ----------------------------------------
 BYTE   W96
// 055   ----------------------------------------
 BYTE   W96
// 056   ----------------------------------------
 BYTE   W96
// 057   ----------------------------------------
 BYTE   W96
// 058   ----------------------------------------
 BYTE   W96
// 059   ----------------------------------------
 BYTE   W96
// 060   ----------------------------------------
 BYTE   W96
// 061   ----------------------------------------
 BYTE   W96
// 062   ----------------------------------------
 BYTE   W96
// 063   ----------------------------------------
 BYTE   W96
// 064   ----------------------------------------
Label_15_01290DA1:
 BYTE   N11  En3  v064
 BYTE   W12
 BYTE   An2
 BYTE   W12
 BYTE   Dn3
 BYTE   W12
 BYTE   An2
 BYTE   W12
 BYTE   En3
 BYTE   W12
 BYTE   An2
 BYTE   W12
 BYTE   Dn3
 BYTE   W12
 BYTE   An2
 BYTE   W12
 BYTE   PEND 
 BYTE   PATT
  POIN2 Label_15_01290DA1
// 065   ----------------------------------------
Label_15_01290DB9:
 BYTE   N11  En3  v064
 BYTE   W12
 BYTE   Bn2
 BYTE   W12
 BYTE   Cn3
 BYTE   W12
 BYTE   An3
 BYTE   W12
 BYTE   Cn3
 BYTE   W12
 BYTE   Bn2
 BYTE   W12
 BYTE   Cn3
 BYTE   W12
 BYTE   Gn3
 BYTE   W12
 BYTE   PEND 
// 066   ----------------------------------------
Label_15_01290DCC:
 BYTE   N11  Dn3  v064
 BYTE   W12
 BYTE   Bn2
 BYTE   W12
 BYTE   Cn3
 BYTE   W12
 BYTE   Gn3
 BYTE   W12
 BYTE   Dn3
 BYTE   W12
 BYTE   Bn2
 BYTE   W12
 BYTE   Cn3
 BYTE   W12
 BYTE   Gn3
 BYTE   W12
 BYTE   PEND 
// 067   ----------------------------------------
Label_15_01290DDF:
 BYTE   N11  Dn3  v064
 BYTE   W12
 BYTE   Gn2
 BYTE   W12
 BYTE   Bn2
 BYTE   W12
 BYTE   Cn3
 BYTE   W12
 BYTE   Gn2
 BYTE   W12
 BYTE   En2
 BYTE   W12
 BYTE   Bn2
 BYTE   W12
 BYTE   Cn3
 BYTE   W12
 BYTE   PEND 
// 068   ----------------------------------------
Label_15_01290DF2:
 BYTE   N11  Gn2  v064
 BYTE   W12
 BYTE   En2
 BYTE   W12
 BYTE   Bn2
 BYTE   W12
 BYTE   Cn3
 BYTE   W12
 BYTE   Gn2
 BYTE   W12
 BYTE   En2
 BYTE   W12
 BYTE   Bn2
 BYTE   W12
 BYTE   Cn3
 BYTE   W12
 BYTE   PEND 
 BYTE   PATT
  POIN2 Label_15_01290DDF
// 069   ----------------------------------------
 BYTE   N11  Gn2  v064
 BYTE   W12
 BYTE   Cn3
 BYTE   W12
 BYTE   Bn2
 BYTE   W12
 BYTE   Gn2
 BYTE   W12
 BYTE   En2
 BYTE   W12
 BYTE   Gn2
 BYTE   W12
 BYTE   Bn2
 BYTE   W12
 BYTE   Gn2
 BYTE   W12
 BYTE   PATT
  POIN2 Label_15_01290DA1
 BYTE   PATT
  POIN2 Label_15_01290DA1
 BYTE   PATT
  POIN2 Label_15_01290DB9
 BYTE   PATT
  POIN2 Label_15_01290DCC
 BYTE   PATT
  POIN2 Label_15_01290DDF
 BYTE   PATT
  POIN2 Label_15_01290DF2
// 070   ----------------------------------------
 BYTE   N11  Cn3  v064
 BYTE   W12
 BYTE   En2
 BYTE   W12
 BYTE   Gs2
 BYTE   W12
 BYTE   Cn3
 BYTE   W12
 BYTE   N11
 BYTE   W12
 BYTE   En2
 BYTE   W12
 BYTE   Gs2
 BYTE   W12
 BYTE   Cn3
 BYTE   W12
// 071   ----------------------------------------
 BYTE   W96
// 072   ----------------------------------------
Label_15_01290E4D:
 BYTE   N56  Cn3  v064
 BYTE   W60
 BYTE   N11  Bn2
 BYTE   W12
 BYTE   An2
 BYTE   W12
 BYTE   Gn2
 BYTE   W12
 BYTE   PEND 
// 073   ----------------------------------------
 BYTE   N56  An2
 BYTE   W60
 BYTE   N11  Gn2
 BYTE   W12
 BYTE   Fn2
 BYTE   W12
 BYTE   En2
 BYTE   W12
// 074   ----------------------------------------
 BYTE   Dn2
 BYTE   W24
 BYTE   En2
 BYTE   W12
 BYTE   TIE
 BYTE   W60
// 075   ----------------------------------------
 BYTE   W44
 BYTE   W03
 BYTE   EOT
 BYTE   W24
 BYTE   W01
 BYTE   N11  An2
 BYTE   W12
 BYTE   Bn2
 BYTE   W12
 BYTE   PATT
  POIN2 Label_15_01290E4D
// 076   ----------------------------------------
 BYTE   N56  An2  v064
 BYTE   W60
 BYTE   N11  Bn2
 BYTE   W12
 BYTE   Cn3
 BYTE   W12
 BYTE   Dn3
 BYTE   W12
// 077   ----------------------------------------
 BYTE   N23  Bn2
 BYTE   W24
 BYTE   N11  Gn2
 BYTE   W12
 BYTE   TIE
 BYTE   W60
// 078   ----------------------------------------
 BYTE   W44
 BYTE   W03
 BYTE   EOT
 BYTE   W13
 BYTE   N11  An2
 BYTE   W12
 BYTE   N11
 BYTE   W12
 BYTE   Bn2
 BYTE   W12
// 079   ----------------------------------------
 BYTE   Fn3
 BYTE   W12
 BYTE   N11
 BYTE   W12
 BYTE   N11
 BYTE   W12
 BYTE   N11
 BYTE   W24
 BYTE   Bn2
 BYTE   W12
 BYTE   An2
 BYTE   N11  Cn3
 BYTE   N11  Fn3
 BYTE   W12
 BYTE   Gn2
 BYTE   N11  Cn3
 BYTE   N11  Fn3
 BYTE   W12
// 080   ----------------------------------------
 BYTE   N56  An2
 BYTE   N11  Cn3
 BYTE   N11  Fn3
 BYTE   W12
 BYTE   Cn3
 BYTE   N11  Fn3
 BYTE   W48
 BYTE   Gn2
 BYTE   W12
 BYTE   Fn2
 BYTE   W12
 BYTE   En2
 BYTE   W12
// 081   ----------------------------------------
 BYTE   N23  Dn2
 BYTE   N11  Bn2
 BYTE   N11  Dn3
 BYTE   W12
 BYTE   Bn2
 BYTE   N11  Dn3
 BYTE   W12
 BYTE   En2
 BYTE   N11  Bn2
 BYTE   N11  Dn3
 BYTE   W12
 BYTE   N23  En2
 BYTE   N11  Bn2
 BYTE   N11  Dn3
 BYTE   W24
 BYTE   Fn2
 BYTE   W12
 BYTE   N68  Gn2
 BYTE   N11  Cn3
 BYTE   N11  En3
 BYTE   W12
 BYTE   Cn3
 BYTE   N11  En3
 BYTE   W12
// 082   ----------------------------------------
 BYTE   Cn3
 BYTE   N11  En3
 BYTE   W12
 BYTE   Cn3
 BYTE   N11  En3
 BYTE   W60
 BYTE   En2
 BYTE   W12
 BYTE   Fn2
 BYTE   W12
// 083   ----------------------------------------
 BYTE   N11
 BYTE   N23  Gn2
 BYTE   N11  Cn3
 BYTE   W12
 BYTE   Fn2
 BYTE   N11  Cn3
 BYTE   W12
 BYTE   N11
 BYTE   W12
 BYTE   N11
 BYTE   W24
 BYTE   En2
 BYTE   W12
 BYTE   N68
 BYTE   N11  Fn2
 BYTE   N11  Cn3
 BYTE   W12
 BYTE   Fn2
 BYTE   N11  Cn3
 BYTE   W12
// 084   ----------------------------------------
 BYTE   Fn2
 BYTE   N11  Cn3
 BYTE   W12
 BYTE   Fn2
 BYTE   N11  Cn3
 BYTE   W36
 BYTE   N44  Dn2
 BYTE   W48
// 085   ----------------------------------------
 BYTE   N23
 BYTE   N11  Gs2
 BYTE   W12
 BYTE   Bn2
 BYTE   W12
 BYTE   En2
 BYTE   N11  Dn3
 BYTE   W12
 BYTE   TIE  En2
 BYTE   N11  Gs2
 BYTE   W12
 BYTE   Dn3
 BYTE   W12
 BYTE   Fn3
 BYTE   W12
 BYTE   Gs3
 BYTE   W12
 BYTE   Fn3
 BYTE   W12
// 086   ----------------------------------------
 BYTE   Dn4
 BYTE   W12
 BYTE   Gs3
 BYTE   W12
 BYTE   Bn3
 BYTE   W12
 BYTE   Dn4
 BYTE   W12
 BYTE   En4
 BYTE   W12
 BYTE   Gs3
 BYTE   W12
 BYTE   N05
 BYTE   W06
 BYTE   Bn3
 BYTE   W06
 BYTE   Dn4
 BYTE   W06
 BYTE   En4
 BYTE   W05
 BYTE   EOT
 BYTE   En2
 BYTE   W01
// 087   ----------------------------------------
 BYTE   W96
// 088   ----------------------------------------
 BYTE   W96
// 089   ----------------------------------------
 BYTE   W96
// 090   ----------------------------------------
 BYTE   W96
// 091   ----------------------------------------
 BYTE   W96
// 092   ----------------------------------------
 BYTE   W96
// 093   ----------------------------------------
 BYTE   W96
// 094   ----------------------------------------
 BYTE   W96
// 095   ----------------------------------------
 BYTE   W96
// 096   ----------------------------------------
 BYTE   W96
// 097   ----------------------------------------
 BYTE   W96
// 098   ----------------------------------------
 BYTE   W96
// 099   ----------------------------------------
 BYTE   W96
// 100   ----------------------------------------
 BYTE   W96
// 101   ----------------------------------------
 BYTE   W96
// 102   ----------------------------------------
 BYTE   W96
// 103   ----------------------------------------
 BYTE   W96
// 104   ----------------------------------------
 BYTE   W96
// 105   ----------------------------------------
 BYTE   W96
// 106   ----------------------------------------
 BYTE   W96
// 107   ----------------------------------------
 BYTE   W96
// 108   ----------------------------------------
 BYTE   W96
// 109   ----------------------------------------
 BYTE   W96
// 110   ----------------------------------------
 BYTE   W96
// 111   ----------------------------------------
 BYTE   W96
// 112   ----------------------------------------
 BYTE   W96
// 113   ----------------------------------------
 BYTE   W96
// 114   ----------------------------------------
 BYTE   W96
// 115   ----------------------------------------
 BYTE   W96
// 116   ----------------------------------------
 BYTE   W96
// 117   ----------------------------------------
 BYTE   W96
// 118   ----------------------------------------
 BYTE   W96
// 119   ----------------------------------------
 BYTE   W96
// 120   ----------------------------------------
 BYTE   W96
// 121   ----------------------------------------
 BYTE   W96
// 122   ----------------------------------------
 BYTE   W96
// 123   ----------------------------------------
 BYTE   W96
// 124   ----------------------------------------
 BYTE   W96
// 125   ----------------------------------------
 BYTE   W96
// 126   ----------------------------------------
 BYTE   W96
// 127   ----------------------------------------
 BYTE   W96
// 128   ----------------------------------------
 BYTE   W96
// 129   ----------------------------------------
 BYTE   W96
// 130   ----------------------------------------
 BYTE   W96
// 131   ----------------------------------------
 BYTE   W96
// 132   ----------------------------------------
 BYTE   W96
// 133   ----------------------------------------
 BYTE   W96
// 134   ----------------------------------------
 BYTE   W96
// 135   ----------------------------------------
 BYTE   W96
// 136   ----------------------------------------
 BYTE   W96
// 137   ----------------------------------------
 BYTE   W96
// 138   ----------------------------------------
 BYTE   W96
// 139   ----------------------------------------
 BYTE   W96
// 140   ----------------------------------------
 BYTE   W96
// 141   ----------------------------------------
 BYTE   W96
// 142   ----------------------------------------
 BYTE   W96
// 143   ----------------------------------------
 BYTE   W96
// 144   ----------------------------------------
 BYTE   W96
// 145   ----------------------------------------
 BYTE   W96
// 146   ----------------------------------------
 BYTE   W96
// 147   ----------------------------------------
 BYTE   W96
// 148   ----------------------------------------
 BYTE   W96
// 149   ----------------------------------------
 BYTE   W96
// 150   ----------------------------------------
 BYTE   W96
// 151   ----------------------------------------
 BYTE   W96
// 152   ----------------------------------------
 BYTE   W96
// 153   ----------------------------------------
 BYTE   W48
 BYTE   N44  Cs3  v080
 BYTE   W48
// 154   ----------------------------------------
 BYTE   N32
 BYTE   W36
 BYTE   Ds3
 BYTE   W36
 BYTE   N23  Cn3
 BYTE   W24
// 155   ----------------------------------------
 BYTE   N32  Cs3
 BYTE   W36
 BYTE   N11  Cn3
 BYTE   W24
 BYTE   N32
 BYTE   W36
// 156   ----------------------------------------
 BYTE   Ds3
 BYTE   W36
 BYTE   Cs3
 BYTE   W36
 BYTE   N23  Cn3
 BYTE   W24
// 157   ----------------------------------------
 BYTE   N44  As2
 BYTE   W48
 BYTE   N23  Gs3
 BYTE   W24
 BYTE   Fs3
 BYTE   W24
// 158   ----------------------------------------
 BYTE   N44  Ds3
 BYTE   W48
 BYTE   An3
 BYTE   W48
// 159   ----------------------------------------
 BYTE   N32  Cn4
 BYTE   W36
 BYTE   N56  As3
 BYTE   W60
// 160   ----------------------------------------
 BYTE   N32  Gs3
 BYTE   W36
 BYTE   Fs3
 BYTE   W36
 BYTE   N23  Fn3
 BYTE   W24
// 161   ----------------------------------------
 BYTE   N23
 BYTE   W24
 BYTE   Fs3
 BYTE   W24
 BYTE   N32  As3
 BYTE   W36
 BYTE   N44  Gs3
 BYTE   W12
// 162   ----------------------------------------
 BYTE   W36
 BYTE   N32  Ds3
 BYTE   W36
 BYTE   N23  Gs3
 BYTE   W24
// 163   ----------------------------------------
 BYTE   N32  Ds3
 BYTE   W36
 BYTE   N80  Cn4
 BYTE   W60
// 164   ----------------------------------------
 BYTE   W24
 BYTE   N68  Cs4
 BYTE   W72
// 165   ----------------------------------------
 BYTE   N44  Fs3
 BYTE   W48
 BYTE   As3
 BYTE   W48
// 166   ----------------------------------------
 BYTE   An3
 BYTE   W48
 BYTE   Fn3
 BYTE   W48
// 167   ----------------------------------------
 BYTE   N32  Ds3
 BYTE   W36
 BYTE   TIE  Cs3
 BYTE   W60
// 168   ----------------------------------------
 BYTE   W92
 BYTE   W03
 BYTE   EOT
 BYTE   W01
// 169   ----------------------------------------
Label_15_01290FE7:
 BYTE   N11  Cs3  v060
 BYTE   W03
 BYTE   W01
 BYTE   W01
 BYTE   W19
 BYTE   N11
 BYTE   W03
 BYTE   W01
 BYTE   W01
 BYTE   W19
 BYTE   N11
 BYTE   W03
 BYTE   W01
 BYTE   W01
 BYTE   W19
 BYTE   N11
 BYTE   W03
 BYTE   W01
 BYTE   W01
 BYTE   W19
 BYTE   PEND 
 BYTE   PATT
  POIN2 Label_15_01290FE7
 BYTE   PATT
  POIN2 Label_15_01290FE7
 BYTE   PATT
  POIN2 Label_15_01290FE7
 BYTE   PATT
  POIN2 Label_15_01290FE7
 BYTE   PATT
  POIN2 Label_15_01290FE7
// 170   ----------------------------------------
Label_15_01291017:
 BYTE   N11  Cn3  v060
 BYTE   W03
 BYTE   W01
 BYTE   W01
 BYTE   W19
 BYTE   N11
 BYTE   W03
 BYTE   W01
 BYTE   W01
 BYTE   W19
 BYTE   N11
 BYTE   W03
 BYTE   W01
 BYTE   W01
 BYTE   W19
 BYTE   N11
 BYTE   W03
 BYTE   W01
 BYTE   W01
 BYTE   W19
 BYTE   PEND 
 BYTE   PATT
  POIN2 Label_15_01291017
// 171   ----------------------------------------
Label_15_01291033:
 BYTE   N11  Dn3  v060
 BYTE   W03
 BYTE   W01
 BYTE   W01
 BYTE   W19
 BYTE   N11
 BYTE   W03
 BYTE   W01
 BYTE   W01
 BYTE   W19
 BYTE   N11
 BYTE   W03
 BYTE   W01
 BYTE   W01
 BYTE   W19
 BYTE   N11
 BYTE   W03
 BYTE   W01
 BYTE   W01
 BYTE   W19
 BYTE   PEND 
 BYTE   PATT
  POIN2 Label_15_01291033
// 172   ----------------------------------------
 BYTE   GoTo
  POIN2 Label_15_01290D3A
 BYTE   FINE

//******************************************************//
	ALIGN 4

FE16TheApexoftheWorldRainMrGreen3339:
	BYTE	16	// NumTrks
	BYTE	0	// NumBlks
	BYTE	FE16TheApexoftheWorldRainMrGreen3339_pri	// Priority
	BYTE	FE16TheApexoftheWorldRainMrGreen3339_rev	// Reverb.
    
	POIN2	FE16TheApexoftheWorldRainMrGreen3339_grp
    
	POIN2	FE16TheApexoftheWorldRainMrGreen3339_001
	POIN2	FE16TheApexoftheWorldRainMrGreen3339_002
	POIN2	FE16TheApexoftheWorldRainMrGreen3339_003
	POIN2	FE16TheApexoftheWorldRainMrGreen3339_004
	POIN2	FE16TheApexoftheWorldRainMrGreen3339_005
	POIN2	FE16TheApexoftheWorldRainMrGreen3339_006
	POIN2	FE16TheApexoftheWorldRainMrGreen3339_007
	POIN2	FE16TheApexoftheWorldRainMrGreen3339_008
	POIN2	FE16TheApexoftheWorldRainMrGreen3339_009
	POIN2	FE16TheApexoftheWorldRainMrGreen3339_010
	POIN2	FE16TheApexoftheWorldRainMrGreen3339_011
	POIN2	FE16TheApexoftheWorldRainMrGreen3339_012
	POIN2	FE16TheApexoftheWorldRainMrGreen3339_013
	POIN2	FE16TheApexoftheWorldRainMrGreen3339_014
	POIN2	FE16TheApexoftheWorldRainMrGreen3339_015
	POIN2	FE16TheApexoftheWorldRainMrGreen3339_016

	
