//Event file generated from Sappy .s format.
	#include "MPlayDef.event"

	#define	FE16AsSwiftasWindTak_grp  voicegroup000
	#define	FE16AsSwiftasWindTak_pri  0
	#define	FE16AsSwiftasWindTak_rev  0
	#define	FE16AsSwiftasWindTak_mvl  127
	#define	FE16AsSwiftasWindTak_key  0
	#define	FE16AsSwiftasWindTak_tbs  1
	#define	FE16AsSwiftasWindTak_exg  0
	#define	FE16AsSwiftasWindTak_cmp  1

	// .rodata
	//	FE16AsSwiftasWindTak
	ALIGN 4


//**************** Track 1 (Midi-Chn.0) ****************//

FE16AsSwiftasWindTak_001:
//  #01 //000   ----------------------------------------
 BYTE   KEYSH   FE16AsSwiftasWindTak_key+0
 BYTE   TEMPO   120*FE16AsSwiftasWindTak_tbs/2
 BYTE   VOICE   110
 BYTE   VOL   109*FE16AsSwiftasWindTak_mvl/mxv
 BYTE   BENDR  12
 BYTE   W48
Label_0100302F:
 BYTE   W48
//  #01 //001   ----------------------------------------
 BYTE   W96
//  #01 //002   ----------------------------------------
 BYTE   W96
//  #01 //003   ----------------------------------------
 BYTE   W96
//  #01 //004   ----------------------------------------
 BYTE   W96
//  #01 //005   ----------------------------------------
 BYTE   W96
//  #01 //006   ----------------------------------------
 BYTE   W96
//  #01 //007   ----------------------------------------
 BYTE   W96
//  #01 //008   ----------------------------------------
 BYTE   W96
//  #01 //009   ----------------------------------------
 BYTE   W96
//  #01 //010   ----------------------------------------
 BYTE   W96
//  #01 //011   ----------------------------------------
 BYTE   W96
//  #01 //012   ----------------------------------------
 BYTE   W96
//  #01 //013   ----------------------------------------
 BYTE   W96
//  #01 //014   ----------------------------------------
 BYTE   W96
//  #01 //015   ----------------------------------------
 BYTE   W96
//  #01 //016   ----------------------------------------
 BYTE   W96
//  #01 //017   ----------------------------------------
 BYTE   W96
//  #01 //018   ----------------------------------------
 BYTE   W96
//  #01 //019   ----------------------------------------
 BYTE   W96
//  #01 //020   ----------------------------------------
 BYTE   W96
//  #01 //021   ----------------------------------------
 BYTE   W96
//  #01 //022   ----------------------------------------
 BYTE   W96
//  #01 //023   ----------------------------------------
 BYTE   W96
//  #01 //024   ----------------------------------------
 BYTE   W48
 BYTE   N92  Cn3  v041  gtp3
 BYTE   Fn3
 BYTE   W48
//  #01 //025   ----------------------------------------
 BYTE   W48
 BYTE   N44  Gn3  v041  gtp3
 BYTE   Dn3
 BYTE   W48
//  #01 //026   ----------------------------------------
 BYTE   Gs3
 BYTE   N44  Ds3  v041  gtp3
 BYTE   W48
 BYTE   As3
 BYTE   N44  Fn3  v041  gtp3
 BYTE   W48
//  #01 //027   ----------------------------------------
 BYTE   N92  As2  v041  gtp3
 BYTE   Ds3
 BYTE   W96
//  #01 //028   ----------------------------------------
 BYTE   N23  Gn3
 BYTE   N23  Dn3
 BYTE   W24
 BYTE   As2
 BYTE   N23  Ds3
 BYTE   W24
 BYTE   N92  Cn3  v041  gtp3
 BYTE   Fn3
 BYTE   W48
//  #01 //029   ----------------------------------------
 BYTE   W48
 BYTE   N44  As3  v041  gtp3
 BYTE   Ds4
 BYTE   W48
//  #01 //030   ----------------------------------------
 BYTE   N23  Cs4
 BYTE   N23  Gs3
 BYTE   W24
 BYTE   Gn3
 BYTE   N23  Cn4
 BYTE   W24
 BYTE   N44  Fn3  v041  gtp3
 BYTE   As3
 BYTE   W48
//  #01 //031   ----------------------------------------
 BYTE   N92  Cn4  v041  gtp3
 BYTE   Gn3
 BYTE   W96
//  #01 //032   ----------------------------------------
 BYTE   N23  Dn3
 BYTE   N23  Gn3
 BYTE   W24
 BYTE   Ds3
 BYTE   N23  Gs3
 BYTE   W24
 BYTE   N92  Cn3  v041  gtp3
 BYTE   Fn3
 BYTE   W48
//  #01 //033   ----------------------------------------
 BYTE   W48
 BYTE   N44  Dn3  v041  gtp3
 BYTE   Gn3
 BYTE   W48
//  #01 //034   ----------------------------------------
 BYTE   Gs3
 BYTE   N44  Ds3  v041  gtp3
 BYTE   W48
 BYTE   Fn3
 BYTE   N44  As3  v041  gtp3
 BYTE   W48
//  #01 //035   ----------------------------------------
 BYTE   N92  Ds4  v041  gtp3
 BYTE   As3
 BYTE   W96
//  #01 //036   ----------------------------------------
 BYTE   N23  Gs3
 BYTE   N23  Cs4
 BYTE   W24
 BYTE   Gn3
 BYTE   N23  Cn4
 BYTE   W24
 BYTE   N44  As3  v041  gtp3
 BYTE   Fn3
 BYTE   W48
//  #01 //037   ----------------------------------------
 BYTE   N92  Cn3  v041  gtp3
 BYTE   Fn3
 BYTE   W96
//  #01 //038   ----------------------------------------
 BYTE   N44  As3  v041  gtp3
 BYTE   Fn3
 BYTE   W48
 BYTE   TIE  Gn3
 BYTE   TIE  Cn4
 BYTE   W48
//  #01 //039   ----------------------------------------
 BYTE   W96
//  #01 //040   ----------------------------------------
 BYTE   W44
 BYTE   W03
 BYTE   EOT
 BYTE   Gn3  v072
 BYTE   W48
 BYTE   W01
//  #01 //041   ----------------------------------------
 BYTE   W96
//  #01 //042   ----------------------------------------
 BYTE   W96
//  #01 //043   ----------------------------------------
 BYTE   W96
//  #01 //044   ----------------------------------------
 BYTE   W96
//  #01 //045   ----------------------------------------
 BYTE   W96
//  #01 //046   ----------------------------------------
 BYTE   W96
//  #01 //047   ----------------------------------------
 BYTE   W96
//  #01 //048   ----------------------------------------
 BYTE   W96
//  #01 //049   ----------------------------------------
 BYTE   W24
 BYTE   GoTo
  POIN2 Label_0100302F
 BYTE   FINE

//**************** Track 2 (Midi-Chn.1) ****************//

FE16AsSwiftasWindTak_002:
//  #02 //000   ----------------------------------------
 BYTE   KEYSH   FE16AsSwiftasWindTak_key+0
 BYTE   VOICE   127
 BYTE   VOL   98*FE16AsSwiftasWindTak_mvl/mxv
 BYTE   BENDR  12
 BYTE   W24
 BYTE   N24  En1  v058
 BYTE   W12
 BYTE   N12  Ds1  v048
 BYTE   W12
Label_01025BA1:
 BYTE   N17  Fn1  v059
 BYTE   N05  Fs1  v026
 BYTE   W06
 BYTE   Fs1
 BYTE   W06
 BYTE   Fs1  v050
 BYTE   W06
 BYTE   N17  Fn1  v059
 BYTE   N05  Fs1  v026
 BYTE   W06
 BYTE   Fs1
 BYTE   W06
 BYTE   Fs1
 BYTE   W06
 BYTE   N11  Dn1  v048
 BYTE   N05  Fs1  v026
 BYTE   W06
 BYTE   Fs1
 BYTE   W06
//  #02 //001   ----------------------------------------
 BYTE   Fs1
 BYTE   W06
 BYTE   N11  Dn1  v048
 BYTE   N05  Fs1  v026
 BYTE   W06
 BYTE   Fs1  v050
 BYTE   W06
 BYTE   Fs1  v026
 BYTE   N11  Dn1  v048
 BYTE   W06
 BYTE   N05  Fs1  v026
 BYTE   W06
 BYTE   Fs1
 BYTE   W06
 BYTE   N11  Dn1  v048
 BYTE   N05  Fs1  v026
 BYTE   W06
 BYTE   Fs1
 BYTE   W06
 BYTE   Fs1
 BYTE   N17  Fn1  v059
 BYTE   W06
 BYTE   N05  Fs1  v026
 BYTE   W06
 BYTE   Fs1  v050
 BYTE   W06
 BYTE   N17  Fn1  v059
 BYTE   N05  Fs1  v026
 BYTE   W06
 BYTE   Fs1
 BYTE   W06
 BYTE   Fs1
 BYTE   W06
 BYTE   Fs1
 BYTE   N11  Dn1  v048
 BYTE   W06
 BYTE   N05  Fs1  v026
 BYTE   W06
//  #02 //002   ----------------------------------------
Label_01025C02:
 BYTE   N05  Fs1  v026
 BYTE   W06
 BYTE   Fs1
 BYTE   W06
 BYTE   Fs1  v050
 BYTE   W06
 BYTE   Fs1  v026
 BYTE   W06
 BYTE   Fs1
 BYTE   W06
 BYTE   Fs1
 BYTE   W06
 BYTE   N12  Ds1  v048
 BYTE   N05  Fs1  v026
 BYTE   W06
 BYTE   Fs1
 BYTE   W06
 BYTE   Fs1
 BYTE   N17  Fn1  v059
 BYTE   W06
 BYTE   N05  Fs1  v026
 BYTE   W06
 BYTE   Fs1  v050
 BYTE   W06
 BYTE   N17  Fn1  v059
 BYTE   N05  Fs1  v026
 BYTE   W06
 BYTE   Fs1
 BYTE   W06
 BYTE   Fs1
 BYTE   W06
 BYTE   N12  Ds1  v048
 BYTE   N05  Fs1  v026
 BYTE   W06
 BYTE   Fs1
 BYTE   W06
 BYTE   PEND 
//  #02 //003   ----------------------------------------
 BYTE   Fs1
 BYTE   W06
 BYTE   N11  Dn1  v048
 BYTE   N05  Fs1  v026
 BYTE   W06
 BYTE   Fs1  v050
 BYTE   W06
 BYTE   N11  Dn1  v048
 BYTE   N05  Fs1  v026
 BYTE   W06
 BYTE   Fs1
 BYTE   W06
 BYTE   Fs1
 BYTE   W06
 BYTE   Fs1
 BYTE   N11  Dn1  v048
 BYTE   W06
 BYTE   N05  Fs1  v026
 BYTE   W06
 BYTE   Fs1
 BYTE   N11  Fn1  v059
 BYTE   W06
 BYTE   N05  Fs1  v026
 BYTE   W06
 BYTE   N11  Fn1  v059
 BYTE   N05  Fs1  v050
 BYTE   W06
 BYTE   Fs1  v026
 BYTE   W06
 BYTE   Fs1
 BYTE   W06
 BYTE   Fs1
 BYTE   W06
 BYTE   N11  Dn1  v048
 BYTE   N05  Fs1  v026
 BYTE   W06
 BYTE   Fs1
 BYTE   W06
//  #02 //004   ----------------------------------------
Label_01025C7C:
 BYTE   N05  Fs1  v026
 BYTE   W06
 BYTE   Fs1
 BYTE   W06
 BYTE   Fs1  v050
 BYTE   W06
 BYTE   Fs1  v026
 BYTE   W06
 BYTE   Fs1
 BYTE   W06
 BYTE   Fs1
 BYTE   W06
 BYTE   N12  Ds1  v048
 BYTE   N05  Fs1  v026
 BYTE   W06
 BYTE   Fs1
 BYTE   W06
 BYTE   N17  Fn1  v059
 BYTE   N05  Fs1  v026
 BYTE   W06
 BYTE   Fs1
 BYTE   W06
 BYTE   Fs1  v050
 BYTE   W06
 BYTE   Fs1  v026
 BYTE   N17  Fn1  v059
 BYTE   W06
 BYTE   N05  Fs1  v026
 BYTE   W06
 BYTE   Fs1
 BYTE   W06
 BYTE   Fs1
 BYTE   N11  Dn1  v048
 BYTE   W06
 BYTE   N05  Fs1  v026
 BYTE   W06
 BYTE   PEND 
//  #02 //005   ----------------------------------------
 BYTE   Fs1
 BYTE   W06
 BYTE   N11  Dn1  v048
 BYTE   N05  Fs1  v026
 BYTE   W06
 BYTE   Fs1  v050
 BYTE   W06
 BYTE   Fs1  v026
 BYTE   N11  Dn1  v048
 BYTE   W06
 BYTE   N05  Fs1  v026
 BYTE   W06
 BYTE   Fs1
 BYTE   W06
 BYTE   N12  Ds1  v048
 BYTE   N05  Fs1  v026
 BYTE   W06
 BYTE   Fs1
 BYTE   W06
 BYTE   Fs1
 BYTE   N17  Fn1  v059
 BYTE   W06
 BYTE   N05  Fs1  v026
 BYTE   W06
 BYTE   Fs1  v050
 BYTE   W06
 BYTE   Fs1  v026
 BYTE   N17  Fn1  v059
 BYTE   W06
 BYTE   N05  Fs1  v026
 BYTE   W06
 BYTE   Fs1
 BYTE   W06
 BYTE   Fs1
 BYTE   N11  Dn1  v048
 BYTE   W06
 BYTE   N05  Fs1  v026
 BYTE   W06
//  #02 //006   ----------------------------------------
Label_01025CF9:
 BYTE   N05  Fs1  v026
 BYTE   W06
 BYTE   Fs1
 BYTE   W06
 BYTE   Fs1  v050
 BYTE   W06
 BYTE   Fs1  v026
 BYTE   W06
 BYTE   Fs1
 BYTE   W06
 BYTE   Fs1
 BYTE   W06
 BYTE   N12  Ds1  v048
 BYTE   N05  Fs1  v026
 BYTE   W06
 BYTE   Fs1
 BYTE   W06
 BYTE   N17  Fn1  v059
 BYTE   N05  Fs1  v026
 BYTE   W06
 BYTE   Fs1
 BYTE   W06
 BYTE   Fs1  v050
 BYTE   W06
 BYTE   Fs1  v026
 BYTE   N17  Fn1  v059
 BYTE   W06
 BYTE   N05  Fs1  v026
 BYTE   W06
 BYTE   Fs1
 BYTE   W06
 BYTE   N12  Ds1  v048
 BYTE   N05  Fs1  v026
 BYTE   W06
 BYTE   Fs1
 BYTE   W06
 BYTE   PEND 
//  #02 //007   ----------------------------------------
 BYTE   Fs1
 BYTE   W06
 BYTE   Fs1
 BYTE   N11  Dn1  v048
 BYTE   W06
 BYTE   N05  Fs1  v050
 BYTE   W06
 BYTE   Fs1  v026
 BYTE   N11  Dn1  v048
 BYTE   W06
 BYTE   N05  Fs1  v026
 BYTE   W06
 BYTE   Fs1
 BYTE   W06
 BYTE   N11  Dn1  v048
 BYTE   N05  Fs1  v026
 BYTE   W06
 BYTE   Fs1
 BYTE   W06
 BYTE   Fs1
 BYTE   N11  Fn1  v059
 BYTE   W06
 BYTE   N05  Fs1  v026
 BYTE   W06
 BYTE   Fs1  v050
 BYTE   N11  Fn1  v059
 BYTE   W06
 BYTE   N05  Fs1  v026
 BYTE   W06
 BYTE   Fs1
 BYTE   W06
 BYTE   Fs1
 BYTE   W06
 BYTE   N11  Dn1  v048
 BYTE   N05  Fs1  v026
 BYTE   W06
 BYTE   Fs1
 BYTE   W06
//  #02 //008   ----------------------------------------
 BYTE   Fs1
 BYTE   W06
 BYTE   Fs1
 BYTE   W06
 BYTE   Fs1  v050
 BYTE   W06
 BYTE   Fs1  v026
 BYTE   W06
 BYTE   Fs1
 BYTE   W06
 BYTE   Fs1
 BYTE   W06
 BYTE   N11  Dn1  v048
 BYTE   N05  Fs1  v026
 BYTE   W06
 BYTE   Fs1
 BYTE   W06
 BYTE   Fs1
 BYTE   N17  Fn1  v059
 BYTE   N48  An2  v088
 BYTE   W06
 BYTE   N05  Fs1  v026
 BYTE   W06
 BYTE   Fs1  v050
 BYTE   W06
 BYTE   Fs1  v026
 BYTE   N17  Fn1  v059
 BYTE   W06
 BYTE   N05  Fs1  v026
 BYTE   W06
 BYTE   Fs1
 BYTE   W06
 BYTE   Fs1
 BYTE   N11  Dn1  v048
 BYTE   W06
 BYTE   N05  Fs1  v026
 BYTE   W06
//  #02 //009   ----------------------------------------
 BYTE   Fs1
 BYTE   W06
 BYTE   N11  Dn1  v048
 BYTE   N05  Fs1  v026
 BYTE   W06
 BYTE   Fs1  v050
 BYTE   W06
 BYTE   Fs1  v026
 BYTE   N11  Dn1  v048
 BYTE   W06
 BYTE   N05  Fs1  v026
 BYTE   W06
 BYTE   Fs1
 BYTE   W06
 BYTE   N12  Ds1  v048
 BYTE   N05  Fs1  v026
 BYTE   W06
 BYTE   Fs1
 BYTE   W06
 BYTE   Fs1
 BYTE   N17  Fn1  v059
 BYTE   W06
 BYTE   N05  Fs1  v026
 BYTE   W06
 BYTE   Fs1  v050
 BYTE   W06
 BYTE   N17  Fn1  v059
 BYTE   N05  Fs1  v026
 BYTE   W06
 BYTE   Fs1
 BYTE   W06
 BYTE   Fs1
 BYTE   W06
 BYTE   Fs1
 BYTE   N11  Dn1  v048
 BYTE   W06
 BYTE   N05  Fs1  v026
 BYTE   W06
//  #02 //010   ----------------------------------------
 BYTE   PATT
  POIN2 Label_01025CF9
//  #02 //011   ----------------------------------------
Label_01025DF5:
 BYTE   N05  Fs1  v026
 BYTE   W06
 BYTE   Fs1
 BYTE   N11  Dn1  v048
 BYTE   W06
 BYTE   N05  Fs1  v050
 BYTE   W06
 BYTE   Fs1  v026
 BYTE   N11  Dn1  v048
 BYTE   W06
 BYTE   N05  Fs1  v026
 BYTE   W06
 BYTE   Fs1
 BYTE   W06
 BYTE   N11  Dn1  v048
 BYTE   N05  Fs1  v026
 BYTE   W06
 BYTE   Fs1
 BYTE   W06
 BYTE   Fs1
 BYTE   N11  Fn1  v059
 BYTE   W06
 BYTE   N05  Fs1  v026
 BYTE   W06
 BYTE   N11  Fn1  v059
 BYTE   N05  Fs1  v050
 BYTE   W06
 BYTE   Fs1  v026
 BYTE   W06
 BYTE   Fs1
 BYTE   W06
 BYTE   Fs1
 BYTE   W06
 BYTE   Fs1
 BYTE   N11  Dn1  v048
 BYTE   W06
 BYTE   N05  Fs1  v026
 BYTE   W06
 BYTE   PEND 
//  #02 //012   ----------------------------------------
 BYTE   PATT
  POIN2 Label_01025C7C
//  #02 //013   ----------------------------------------
 BYTE   N05  Fs1  v026
 BYTE   W06
 BYTE   Fs1
 BYTE   N11  Dn1  v048
 BYTE   W06
 BYTE   N05  Fs1  v050
 BYTE   W06
 BYTE   Fs1  v026
 BYTE   N11  Dn1  v048
 BYTE   W06
 BYTE   N05  Fs1  v026
 BYTE   W06
 BYTE   Fs1
 BYTE   W06
 BYTE   N12  Ds1  v048
 BYTE   N05  Fs1  v026
 BYTE   W06
 BYTE   Fs1
 BYTE   W06
 BYTE   Fs1
 BYTE   N17  Fn1  v059
 BYTE   W06
 BYTE   N05  Fs1  v026
 BYTE   W06
 BYTE   Fs1  v050
 BYTE   W06
 BYTE   Fs1  v026
 BYTE   N17  Fn1  v059
 BYTE   W06
 BYTE   N05  Fs1  v026
 BYTE   W06
 BYTE   Fs1
 BYTE   W06
 BYTE   Fs1
 BYTE   N11  Dn1  v048
 BYTE   W06
 BYTE   N05  Fs1  v026
 BYTE   W06
//  #02 //014   ----------------------------------------
 BYTE   PATT
  POIN2 Label_01025CF9
//  #02 //015   ----------------------------------------
 BYTE   N05  Fs1  v026
 BYTE   W06
 BYTE   Fs1
 BYTE   N11  Dn1  v048
 BYTE   W06
 BYTE   N05  Fs1  v050
 BYTE   W06
 BYTE   Fs1  v026
 BYTE   N11  Dn1  v048
 BYTE   W06
 BYTE   N05  Fs1  v026
 BYTE   W06
 BYTE   Fs1
 BYTE   W06
 BYTE   Fs1
 BYTE   N11  Dn1  v048
 BYTE   W06
 BYTE   N05  Fs1  v026
 BYTE   W06
 BYTE   N11  Fn1  v059
 BYTE   N05  Fs1  v026
 BYTE   W06
 BYTE   Fs1
 BYTE   W06
 BYTE   N11  Fn1  v059
 BYTE   N05  Fs1  v050
 BYTE   W06
 BYTE   Fs1  v026
 BYTE   W06
 BYTE   Fs1
 BYTE   W06
 BYTE   Fs1
 BYTE   W06
 BYTE   N11  Dn1  v048
 BYTE   N05  Fs1  v026
 BYTE   W06
 BYTE   Fs1
 BYTE   W06
//  #02 //016   ----------------------------------------
 BYTE   Fs1
 BYTE   W06
 BYTE   Fs1
 BYTE   W06
 BYTE   Fs1  v050
 BYTE   W06
 BYTE   Fs1  v026
 BYTE   W06
 BYTE   Fs1
 BYTE   W06
 BYTE   Fs1
 BYTE   W06
 BYTE   N12  Ds1  v048
 BYTE   N05  Fs1  v026
 BYTE   W06
 BYTE   Fs1
 BYTE   W06
 BYTE   Fs1
 BYTE   N17  Fn1  v059
 BYTE   N48  An2  v088
 BYTE   W06
 BYTE   N05  Fs1  v026
 BYTE   W06
 BYTE   Fs1  v050
 BYTE   W06
 BYTE   N17  Fn1  v059
 BYTE   N05  Fs1  v026
 BYTE   W06
 BYTE   Fs1
 BYTE   W06
 BYTE   Fs1
 BYTE   W06
 BYTE   N11  Dn1  v048
 BYTE   N05  Fs1  v026
 BYTE   W06
 BYTE   Fs1
 BYTE   W06
//  #02 //017   ----------------------------------------
 BYTE   Fs1
 BYTE   W06
 BYTE   N11  Dn1  v048
 BYTE   N05  Fs1  v026
 BYTE   W06
 BYTE   Fs1  v050
 BYTE   W06
 BYTE   N11  Dn1  v048
 BYTE   N05  Fs1  v026
 BYTE   W06
 BYTE   Fs1
 BYTE   W06
 BYTE   Fs1
 BYTE   W06
 BYTE   N12  Ds1  v048
 BYTE   N05  Fs1  v026
 BYTE   W06
 BYTE   Fs1
 BYTE   W06
 BYTE   N11  Fn1  v059
 BYTE   N05  Fs1  v026
 BYTE   W06
 BYTE   Fs1
 BYTE   W06
 BYTE   N11  Fn1  v059
 BYTE   N05  Fs1  v050
 BYTE   W06
 BYTE   Fs1  v026
 BYTE   W06
 BYTE   Fs1
 BYTE   W06
 BYTE   Fs1
 BYTE   W06
 BYTE   N11  Dn1  v048
 BYTE   N05  Fs1  v026
 BYTE   W06
 BYTE   Fs1
 BYTE   W06
//  #02 //018   ----------------------------------------
 BYTE   PATT
  POIN2 Label_01025C02
//  #02 //019   ----------------------------------------
 BYTE   PATT
  POIN2 Label_01025DF5
//  #02 //020   ----------------------------------------
 BYTE   PATT
  POIN2 Label_01025C7C
//  #02 //021   ----------------------------------------
 BYTE   N05  Fs1  v026
 BYTE   W06
 BYTE   Fs1
 BYTE   N11  Dn1  v048
 BYTE   W06
 BYTE   N05  Fs1  v050
 BYTE   W06
 BYTE   Fs1  v026
 BYTE   N11  Dn1  v048
 BYTE   W06
 BYTE   N05  Fs1  v026
 BYTE   W06
 BYTE   Fs1
 BYTE   W06
 BYTE   N12  Ds1  v048
 BYTE   N05  Fs1  v026
 BYTE   W06
 BYTE   Fs1
 BYTE   W06
 BYTE   N11  Fn1  v059
 BYTE   N05  Fs1  v026
 BYTE   W06
 BYTE   Fs1
 BYTE   W06
 BYTE   Fs1  v050
 BYTE   N11  Fn1  v059
 BYTE   W06
 BYTE   N05  Fs1  v026
 BYTE   W06
 BYTE   Fs1
 BYTE   W06
 BYTE   Fs1
 BYTE   W06
 BYTE   Fs1
 BYTE   N11  Dn1  v048
 BYTE   W06
 BYTE   N05  Fs1  v026
 BYTE   W06
//  #02 //022   ----------------------------------------
 BYTE   PATT
  POIN2 Label_01025CF9
//  #02 //023   ----------------------------------------
 BYTE   N05  Fs1  v026
 BYTE   W06
 BYTE   Fs1
 BYTE   N11  Dn1  v048
 BYTE   W06
 BYTE   N05  Fs1  v050
 BYTE   W06
 BYTE   N11  Dn1  v048
 BYTE   N05  Fs1  v026
 BYTE   W06
 BYTE   Fs1
 BYTE   W06
 BYTE   Fs1
 BYTE   W06
 BYTE   Fs1
 BYTE   N11  Dn1  v048
 BYTE   W06
 BYTE   N05  Fs1  v026
 BYTE   W06
 BYTE   Fs1
 BYTE   N11  Fn1  v059
 BYTE   W06
 BYTE   N05  Fs1  v026
 BYTE   W06
 BYTE   N11  Fn1  v059
 BYTE   N05  Fs1  v050
 BYTE   W06
 BYTE   Fs1  v026
 BYTE   W06
 BYTE   N72  En2  v070
 BYTE   N05  Fs1  v026
 BYTE   W06
 BYTE   Fs1
 BYTE   W06
 BYTE   N11  Dn1  v048
 BYTE   N05  Fs1  v026
 BYTE   W06
 BYTE   Fs1
 BYTE   W06
//  #02 //024   ----------------------------------------
 BYTE   Fs1
 BYTE   W06
 BYTE   Fs1
 BYTE   W06
 BYTE   Fs1  v050
 BYTE   W06
 BYTE   Fs1  v026
 BYTE   W06
 BYTE   N24  Ds1  v048
 BYTE   N05  Fs1  v026
 BYTE   W06
 BYTE   Fs1
 BYTE   W06
 BYTE   Fs1
 BYTE   W06
 BYTE   Fs1
 BYTE   W06
 BYTE   Fs1
 BYTE   N17  Fn1  v059
 BYTE   N23  As1  v039
 BYTE   W06
 BYTE   N05  Fs1  v026
 BYTE   W06
 BYTE   Fs1  v050
 BYTE   W06
 BYTE   Fs1  v026
 BYTE   N17  Fn1  v059
 BYTE   W06
 BYTE   N23  As1  v039
 BYTE   N05  Fs1  v026
 BYTE   W06
 BYTE   Fs1
 BYTE   W06
 BYTE   N11  Dn1  v048
 BYTE   N05  Fs1  v026
 BYTE   W06
 BYTE   Fs1
 BYTE   W06
//  #02 //025   ----------------------------------------
 BYTE   N23  As1  v039
 BYTE   N05  Fs1  v026
 BYTE   W06
 BYTE   Fs1
 BYTE   N11  Dn1  v048
 BYTE   W06
 BYTE   N05  Fs1  v050
 BYTE   W06
 BYTE   N11  Dn1  v048
 BYTE   N05  Fs1  v026
 BYTE   W06
 BYTE   N23  As1  v039
 BYTE   N05  Fs1  v026
 BYTE   W06
 BYTE   Fs1
 BYTE   W06
 BYTE   N12  Ds1  v048
 BYTE   N05  Fs1  v026
 BYTE   W06
 BYTE   Fs1
 BYTE   W06
 BYTE   N23  As1  v039
 BYTE   N05  Fs1  v026
 BYTE   N11  Fn1  v059
 BYTE   W06
 BYTE   N05  Fs1  v026
 BYTE   W06
 BYTE   N11  Fn1  v059
 BYTE   N05  Fs1  v050
 BYTE   W06
 BYTE   Fs1  v026
 BYTE   W06
 BYTE   N23  As1  v039
 BYTE   N05  Fs1  v026
 BYTE   W06
 BYTE   Fs1
 BYTE   W06
 BYTE   N11  Dn1  v048
 BYTE   N05  Fs1  v026
 BYTE   W06
 BYTE   Fs1
 BYTE   W06
//  #02 //026   ----------------------------------------
 BYTE   Fs1
 BYTE   N23  As1  v039
 BYTE   W06
 BYTE   N05  Fs1  v026
 BYTE   W06
 BYTE   Fs1  v050
 BYTE   W06
 BYTE   Fs1  v026
 BYTE   W06
 BYTE   Fs1
 BYTE   N23  As1  v039
 BYTE   W06
 BYTE   N05  Fs1  v026
 BYTE   W06
 BYTE   N12  Ds1  v048
 BYTE   N05  Fs1  v026
 BYTE   W06
 BYTE   Fs1
 BYTE   W06
 BYTE   N23  As1  v039
 BYTE   N17  Fn1  v059
 BYTE   N05  Fs1  v026
 BYTE   W06
 BYTE   Fs1
 BYTE   W06
 BYTE   Fs1  v050
 BYTE   W06
 BYTE   N17  Fn1  v059
 BYTE   N05  Fs1  v026
 BYTE   W06
 BYTE   Fs1
 BYTE   N23  As1  v039
 BYTE   W06
 BYTE   N05  Fs1  v026
 BYTE   W06
 BYTE   N12  Ds1  v048
 BYTE   N05  Fs1  v026
 BYTE   W06
 BYTE   Fs1
 BYTE   W06
//  #02 //027   ----------------------------------------
 BYTE   Fs1
 BYTE   N23  As1  v039
 BYTE   W06
 BYTE   N05  Fs1  v026
 BYTE   N11  Dn1  v048
 BYTE   W06
 BYTE   N05  Fs1  v050
 BYTE   W06
 BYTE   Fs1  v026
 BYTE   N11  Dn1  v048
 BYTE   W06
 BYTE   N05  Fs1  v026
 BYTE   N23  As1  v039
 BYTE   W06
 BYTE   N05  Fs1  v026
 BYTE   W06
 BYTE   N11  Dn1  v048
 BYTE   N05  Fs1  v026
 BYTE   W06
 BYTE   Fs1
 BYTE   W06
 BYTE   N11  Fn1  v059
 BYTE   N05  Fs1  v026
 BYTE   N23  As1  v039
 BYTE   W06
 BYTE   N05  Fs1  v026
 BYTE   W06
 BYTE   Fs1  v050
 BYTE   N11  Fn1  v059
 BYTE   W06
 BYTE   N05  Fs1  v026
 BYTE   W06
 BYTE   Fs1
 BYTE   N23  As1  v039
 BYTE   W06
 BYTE   N05  Fs1  v026
 BYTE   W06
 BYTE   N11  Dn1  v048
 BYTE   N05  Fs1  v026
 BYTE   W06
 BYTE   Fs1
 BYTE   W06
//  #02 //028   ----------------------------------------
 BYTE   Fs1
 BYTE   N23  As1  v039
 BYTE   W06
 BYTE   N05  Fs1  v026
 BYTE   W06
 BYTE   Fs1  v050
 BYTE   W06
 BYTE   Fs1  v026
 BYTE   W06
 BYTE   Fs1
 BYTE   N23  As1  v039
 BYTE   W06
 BYTE   N05  Fs1  v026
 BYTE   W06
 BYTE   N12  Ds1  v048
 BYTE   N05  Fs1  v026
 BYTE   W06
 BYTE   Fs1
 BYTE   W06
 BYTE   N23  As1  v039
 BYTE   N05  Fs1  v026
 BYTE   N17  Fn1  v059
 BYTE   W06
 BYTE   N05  Fs1  v026
 BYTE   W06
 BYTE   Fs1  v050
 BYTE   W06
 BYTE   N17  Fn1  v059
 BYTE   N05  Fs1  v026
 BYTE   W06
 BYTE   Fs1
 BYTE   N23  As1  v039
 BYTE   W06
 BYTE   N05  Fs1  v026
 BYTE   W06
 BYTE   Fs1
 BYTE   N11  Dn1  v048
 BYTE   W06
 BYTE   N05  Fs1  v026
 BYTE   W06
//  #02 //029   ----------------------------------------
 BYTE   Fs1
 BYTE   N23  As1  v039
 BYTE   W06
 BYTE   N05  Fs1  v026
 BYTE   N11  Dn1  v048
 BYTE   W06
 BYTE   N05  Fs1  v050
 BYTE   W06
 BYTE   Fs1  v026
 BYTE   N11  Dn1  v048
 BYTE   W06
 BYTE   N05  Fs1  v026
 BYTE   N23  As1  v039
 BYTE   W06
 BYTE   N05  Fs1  v026
 BYTE   W06
 BYTE   N12  Ds1  v048
 BYTE   N05  Fs1  v026
 BYTE   W06
 BYTE   Fs1
 BYTE   W06
 BYTE   N11  Fn1  v059
 BYTE   N05  Fs1  v026
 BYTE   N23  As1  v039
 BYTE   W06
 BYTE   N05  Fs1  v026
 BYTE   W06
 BYTE   N11  Fn1  v059
 BYTE   N05  Fs1  v050
 BYTE   W06
 BYTE   Fs1  v026
 BYTE   W06
 BYTE   N23  As1  v039
 BYTE   N05  Fs1  v026
 BYTE   W06
 BYTE   Fs1
 BYTE   W06
 BYTE   Fs1
 BYTE   N11  Dn1  v048
 BYTE   W06
 BYTE   N05  Fs1  v026
 BYTE   W06
//  #02 //030   ----------------------------------------
 BYTE   Fs1
 BYTE   N23  As1  v039
 BYTE   W06
 BYTE   N05  Fs1  v026
 BYTE   W06
 BYTE   Fs1  v050
 BYTE   W06
 BYTE   Fs1  v026
 BYTE   W06
 BYTE   Fs1
 BYTE   N23  As1  v039
 BYTE   W06
 BYTE   N05  Fs1  v026
 BYTE   W06
 BYTE   N12  Ds1  v048
 BYTE   N05  Fs1  v026
 BYTE   W06
 BYTE   Fs1
 BYTE   W06
 BYTE   N23  As1  v039
 BYTE   N05  Fs1  v026
 BYTE   N17  Fn1  v059
 BYTE   W06
 BYTE   N05  Fs1  v026
 BYTE   W06
 BYTE   Fs1  v050
 BYTE   W06
 BYTE   N17  Fn1  v059
 BYTE   N05  Fs1  v026
 BYTE   W06
 BYTE   Fs1
 BYTE   N23  As1  v039
 BYTE   W06
 BYTE   N05  Fs1  v026
 BYTE   W06
 BYTE   N12  Ds1  v048
 BYTE   N05  Fs1  v026
 BYTE   W06
 BYTE   Fs1
 BYTE   W06
//  #02 //031   ----------------------------------------
 BYTE   N23  As1  v039
 BYTE   N05  Fs1  v026
 BYTE   W06
 BYTE   Fs1
 BYTE   N11  Dn1  v048
 BYTE   W06
 BYTE   N05  Fs1  v050
 BYTE   W06
 BYTE   Fs1  v026
 BYTE   N11  Dn1  v048
 BYTE   W06
 BYTE   N05  Fs1  v026
 BYTE   N23  As1  v039
 BYTE   W06
 BYTE   N05  Fs1  v026
 BYTE   W06
 BYTE   N11  Dn1  v048
 BYTE   N05  Fs1  v026
 BYTE   W06
 BYTE   Fs1
 BYTE   W06
 BYTE   Fs1
 BYTE   N11  Fn1  v059
 BYTE   N23  As1  v039
 BYTE   W06
 BYTE   N05  Fs1  v026
 BYTE   W06
 BYTE   N11  Fn1  v059
 BYTE   N05  Fs1  v050
 BYTE   W06
 BYTE   Fs1  v026
 BYTE   W06
 BYTE   N23  As1  v039
 BYTE   N05  Fs1  v026
 BYTE   W06
 BYTE   Fs1
 BYTE   W06
 BYTE   Fs1
 BYTE   N11  Dn1  v048
 BYTE   W06
 BYTE   N05  Fs1  v026
 BYTE   W06
//  #02 //032   ----------------------------------------
 BYTE   N23  As1  v039
 BYTE   N05  Fs1  v026
 BYTE   W06
 BYTE   Fs1
 BYTE   W06
 BYTE   Fs1  v050
 BYTE   W06
 BYTE   Fs1  v026
 BYTE   W06
 BYTE   Fs1
 BYTE   N23  As1  v039
 BYTE   W06
 BYTE   N05  Fs1  v026
 BYTE   W06
 BYTE   N12  Ds1  v048
 BYTE   N05  Fs1  v026
 BYTE   W06
 BYTE   Fs1
 BYTE   W06
 BYTE   N68  An2  v088  gtp3
 BYTE   N05  Fs1  v026
 BYTE   N17  Fn1  v059
 BYTE   N23  As1  v039
 BYTE   W06
 BYTE   N05  Fs1  v026
 BYTE   W06
 BYTE   Fs1  v050
 BYTE   W06
 BYTE   N17  Fn1  v059
 BYTE   N05  Fs1  v026
 BYTE   W06
 BYTE   N23  As1  v039
 BYTE   N05  Fs1  v026
 BYTE   W06
 BYTE   Fs1
 BYTE   W06
 BYTE   N11  Dn1  v048
 BYTE   N05  Fs1  v026
 BYTE   W06
 BYTE   Fs1
 BYTE   W06
//  #02 //033   ----------------------------------------
 BYTE   N23  As1  v039
 BYTE   N05  Fs1  v026
 BYTE   W06
 BYTE   Fs1
 BYTE   N11  Dn1  v048
 BYTE   W06
 BYTE   N05  Fs1  v050
 BYTE   W06
 BYTE   Fs1  v026
 BYTE   N11  Dn1  v048
 BYTE   W06
 BYTE   N23  As1  v039
 BYTE   N05  Fs1  v026
 BYTE   W06
 BYTE   Fs1
 BYTE   W06
 BYTE   N12  Ds1  v048
 BYTE   N05  Fs1  v026
 BYTE   W06
 BYTE   Fs1
 BYTE   W06
 BYTE   N11  Fn1  v059
 BYTE   N05  Fs1  v026
 BYTE   N23  As1  v039
 BYTE   W06
 BYTE   N05  Fs1  v026
 BYTE   W06
 BYTE   Fs1  v050
 BYTE   N11  Fn1  v059
 BYTE   W06
 BYTE   N05  Fs1  v026
 BYTE   W06
 BYTE   Fs1
 BYTE   N23  As1  v039
 BYTE   W06
 BYTE   N05  Fs1  v026
 BYTE   W06
 BYTE   N11  Dn1  v048
 BYTE   N05  Fs1  v026
 BYTE   W06
 BYTE   Fs1
 BYTE   W06
//  #02 //034   ----------------------------------------
 BYTE   N23  As1  v039
 BYTE   N05  Fs1  v026
 BYTE   W06
 BYTE   Fs1
 BYTE   W06
 BYTE   Fs1  v050
 BYTE   W06
 BYTE   Fs1  v026
 BYTE   W06
 BYTE   N23  As1  v039
 BYTE   N05  Fs1  v026
 BYTE   W06
 BYTE   Fs1
 BYTE   W06
 BYTE   N12  Ds1  v048
 BYTE   N05  Fs1  v026
 BYTE   W06
 BYTE   Fs1
 BYTE   W06
 BYTE   Fs1
 BYTE   N17  Fn1  v059
 BYTE   N23  As1  v039
 BYTE   W06
 BYTE   N05  Fs1  v026
 BYTE   W06
 BYTE   Fs1  v050
 BYTE   W06
 BYTE   N17  Fn1  v059
 BYTE   N05  Fs1  v026
 BYTE   W06
 BYTE   N23  As1  v039
 BYTE   N05  Fs1  v026
 BYTE   W06
 BYTE   Fs1
 BYTE   W06
 BYTE   N12  Ds1  v048
 BYTE   N05  Fs1  v026
 BYTE   W06
 BYTE   Fs1
 BYTE   W06
//  #02 //035   ----------------------------------------
 BYTE   Fs1
 BYTE   N23  As1  v039
 BYTE   W06
 BYTE   N11  Dn1  v048
 BYTE   N05  Fs1  v026
 BYTE   W06
 BYTE   Fs1  v050
 BYTE   W06
 BYTE   N11  Dn1  v048
 BYTE   N05  Fs1  v026
 BYTE   W06
 BYTE   Fs1
 BYTE   N23  As1  v039
 BYTE   W06
 BYTE   N05  Fs1  v026
 BYTE   W06
 BYTE   Fs1
 BYTE   N11  Dn1  v048
 BYTE   W06
 BYTE   N05  Fs1  v026
 BYTE   W06
 BYTE   N11  Fn1  v059
 BYTE   N05  Fs1  v026
 BYTE   N23  As1  v039
 BYTE   W06
 BYTE   N05  Fs1  v026
 BYTE   W06
 BYTE   N11  Fn1  v059
 BYTE   N05  Fs1  v050
 BYTE   W06
 BYTE   Fs1  v026
 BYTE   W06
 BYTE   Fs1
 BYTE   N23  As1  v039
 BYTE   W06
 BYTE   N05  Fs1  v026
 BYTE   W06
 BYTE   Fs1
 BYTE   N11  Dn1  v048
 BYTE   W06
 BYTE   N05  Fs1  v026
 BYTE   W06
//  #02 //036   ----------------------------------------
 BYTE   Fs1
 BYTE   N23  As1  v039
 BYTE   W06
 BYTE   N05  Fs1  v026
 BYTE   W06
 BYTE   Fs1  v050
 BYTE   W06
 BYTE   Fs1  v026
 BYTE   W06
 BYTE   Fs1
 BYTE   N23  As1  v039
 BYTE   W06
 BYTE   N05  Fs1  v026
 BYTE   W06
 BYTE   N12  Ds1  v048
 BYTE   N05  Fs1  v026
 BYTE   W06
 BYTE   Fs1
 BYTE   W06
 BYTE   N23  As1  v039
 BYTE   N17  Fn1  v059
 BYTE   N05  Fs1  v026
 BYTE   W06
 BYTE   Fs1
 BYTE   W06
 BYTE   Fs1  v050
 BYTE   W06
 BYTE   Fs1  v026
 BYTE   N17  Fn1  v059
 BYTE   W06
 BYTE   N05  Fs1  v026
 BYTE   N23  As1  v039
 BYTE   W06
 BYTE   N05  Fs1  v026
 BYTE   W06
 BYTE   Fs1
 BYTE   N11  Dn1  v048
 BYTE   W06
 BYTE   N05  Fs1  v026
 BYTE   W06
//  #02 //037   ----------------------------------------
 BYTE   N23  As1  v039
 BYTE   N05  Fs1  v026
 BYTE   W06
 BYTE   Fs1
 BYTE   N11  Dn1  v048
 BYTE   W06
 BYTE   N05  Fs1  v050
 BYTE   W06
 BYTE   Fs1  v026
 BYTE   N11  Dn1  v048
 BYTE   W06
 BYTE   N23  As1  v039
 BYTE   N05  Fs1  v026
 BYTE   W06
 BYTE   Fs1
 BYTE   W06
 BYTE   N12  Ds1  v048
 BYTE   N05  Fs1  v026
 BYTE   W06
 BYTE   Fs1
 BYTE   W06
 BYTE   N11  Fn1  v059
 BYTE   N05  Fs1  v026
 BYTE   N23  As1  v039
 BYTE   W06
 BYTE   N05  Fs1  v026
 BYTE   W06
 BYTE   N11  Fn1  v059
 BYTE   N05  Fs1  v050
 BYTE   W06
 BYTE   Fs1  v026
 BYTE   W06
 BYTE   Fs1
 BYTE   N23  As1  v039
 BYTE   W06
 BYTE   N05  Fs1  v026
 BYTE   W06
 BYTE   Fs1
 BYTE   N11  Dn1  v048
 BYTE   W06
 BYTE   N05  Fs1  v026
 BYTE   W06
//  #02 //038   ----------------------------------------
 BYTE   Fs1
 BYTE   N23  As1  v039
 BYTE   W06
 BYTE   N05  Fs1  v026
 BYTE   W06
 BYTE   Fs1  v050
 BYTE   W06
 BYTE   Fs1  v026
 BYTE   W06
 BYTE   Fs1
 BYTE   N23  As1  v039
 BYTE   W06
 BYTE   N05  Fs1  v026
 BYTE   W06
 BYTE   N12  Ds1  v048
 BYTE   N05  Fs1  v026
 BYTE   W06
 BYTE   Fs1
 BYTE   W06
 BYTE   Fs1
 BYTE   N17  Fn1  v059
 BYTE   N23  As1  v039
 BYTE   W06
 BYTE   N05  Fs1  v026
 BYTE   W06
 BYTE   Fs1  v050
 BYTE   W06
 BYTE   N17  Fn1  v059
 BYTE   N05  Fs1  v026
 BYTE   W06
 BYTE   N23  As1  v039
 BYTE   N05  Fs1  v026
 BYTE   W06
 BYTE   Fs1
 BYTE   W06
 BYTE   N12  Ds1  v048
 BYTE   N05  Fs1  v026
 BYTE   W06
 BYTE   Fs1
 BYTE   W06
//  #02 //039   ----------------------------------------
 BYTE   N23  As1  v039
 BYTE   N05  Fs1  v026
 BYTE   W06
 BYTE   N11  Dn1  v048
 BYTE   N05  Fs1  v026
 BYTE   W06
 BYTE   Fs1  v050
 BYTE   W06
 BYTE   N11  Dn1  v048
 BYTE   N05  Fs1  v026
 BYTE   W06
 BYTE   N23  As1  v039
 BYTE   N05  Fs1  v026
 BYTE   W06
 BYTE   Fs1
 BYTE   W06
 BYTE   Fs1
 BYTE   N11  Dn1  v048
 BYTE   W06
 BYTE   N05  Fs1  v026
 BYTE   W06
 BYTE   N23  As1  v039
 BYTE   N05  Fs1  v026
 BYTE   N11  Fn1  v059
 BYTE   W06
 BYTE   N05  Fs1  v026
 BYTE   W06
 BYTE   Fs1  v050
 BYTE   N11  Fn1  v059
 BYTE   W06
 BYTE   N05  Fs1  v026
 BYTE   W06
 BYTE   Fs1
 BYTE   N23  As1  v039
 BYTE   W06
 BYTE   N05  Fs1  v026
 BYTE   W06
 BYTE   Fs1
 BYTE   N11  Dn1  v048
 BYTE   W06
 BYTE   N05  Fs1  v026
 BYTE   W06
//  #02 //040   ----------------------------------------
 BYTE   N23  As1  v039
 BYTE   N05  Fs1  v026
 BYTE   W06
 BYTE   Fs1
 BYTE   W06
 BYTE   Fs1  v050
 BYTE   W06
 BYTE   Fs1  v026
 BYTE   W06
 BYTE   Fs1
 BYTE   N23  As1  v039
 BYTE   W06
 BYTE   N05  Fs1  v026
 BYTE   W06
 BYTE   N12  Ds1  v048
 BYTE   N05  Fs1  v026
 BYTE   W06
 BYTE   Fs1
 BYTE   W06
 BYTE   N17  Fn1  v059
 BYTE   N23  As1  v039
 BYTE   W18
 BYTE   N17  Fn1  v059
 BYTE   W18
 BYTE   N12  Ds1  v048
 BYTE   W12
//  #02 //041   ----------------------------------------
 BYTE   W06
 BYTE   N11  Dn1
 BYTE   W12
 BYTE   Dn1
 BYTE   W18
 BYTE   N17  Fn1  v059
 BYTE   W12
 BYTE   N12  Ds1  v048
 BYTE   W18
 BYTE   N05  Dn1
 BYTE   W18
 BYTE   N17  Fn1  v059
 BYTE   W12
//  #02 //042   ----------------------------------------
 BYTE   W06
 BYTE   N11  Dn1  v048
 BYTE   W12
 BYTE   Dn1
 BYTE   W18
 BYTE   N12  Ds1
 BYTE   W18
 BYTE   N11  Dn1
 BYTE   W12
 BYTE   Dn1
 BYTE   W06
 BYTE   N17  Fn1  v059
 BYTE   W18
 BYTE   N05
 BYTE   W06
//  #02 //043   ----------------------------------------
 BYTE   W12
 BYTE   N12  Ds1  v048
 BYTE   W18
 BYTE   N11  Dn1
 BYTE   W12
 BYTE   Dn1
 BYTE   W18
 BYTE   N17  Fn1  v059
 BYTE   W12
 BYTE   N12  Ds1  v048
 BYTE   W18
 BYTE   N05  Dn1
 BYTE   W06
//  #02 //044   ----------------------------------------
 BYTE   W12
 BYTE   N11  Fn1  v059
 BYTE   W18
 BYTE   Dn1  v048
 BYTE   W06
 BYTE   N17  Fn1  v059
 BYTE   W06
 BYTE   N11  Dn1  v048
 BYTE   W18
 BYTE   N12  Ds1
 BYTE   W18
 BYTE   N11  Dn1
 BYTE   W12
 BYTE   Dn1
 BYTE   W06
//  #02 //045   ----------------------------------------
 BYTE   N17  Fn1  v059
 BYTE   W06
 BYTE   N05  Dn1  v048
 BYTE   W06
 BYTE   N03  Dn1  v065
 BYTE   W06
 BYTE   N17  Fn1  v059
 BYTE   N05  Dn1  v048
 BYTE   W12
 BYTE   N02
 BYTE   W03
 BYTE   Dn1
 BYTE   W03
 BYTE   N03  Dn1  v065
 BYTE   W06
 BYTE   N05  Dn1  v048
 BYTE   W12
 BYTE   Dn1
 BYTE   W06
 BYTE   N03  Dn1  v065
 BYTE   W06
 BYTE   N05  Dn1  v048
 BYTE   W18
 BYTE   N17  Fn1  v059
 BYTE   W12
//  #02 //046   ----------------------------------------
 BYTE   W06
 BYTE   N11  Dn1  v048
 BYTE   W12
 BYTE   Dn1
 BYTE   W18
 BYTE   N17  Fn1  v059
 BYTE   W12
 BYTE   N12  Ds1  v048
 BYTE   W18
 BYTE   N05  Dn1
 BYTE   W12
 BYTE   N11
 BYTE   W18
//  #02 //047   ----------------------------------------
 BYTE   N17  Fn1  v059
 BYTE   W18
 BYTE   Fn1
 BYTE   W12
 BYTE   N02  Dn1  v048
 BYTE   W03
 BYTE   Dn1
 BYTE   W03
 BYTE   N11
 BYTE   W18
 BYTE   N02
 BYTE   W03
 BYTE   Dn1
 BYTE   W03
 BYTE   N11
 BYTE   W24
 BYTE   N17  Fn1  v059
 BYTE   W12
//  #02 //048   ----------------------------------------
 BYTE   W06
 BYTE   N05  Dn1  v048
 BYTE   W06
 BYTE   N03  Dn1  v065
 BYTE   W06
 BYTE   N05  Dn1  v048
 BYTE   W12
 BYTE   N02
 BYTE   W03
 BYTE   Dn1
 BYTE   W03
 BYTE   N03  Dn1  v065
 BYTE   W06
 BYTE   N05  Dn1  v048
 BYTE   W06
 BYTE   N17  Fn1  v059
 BYTE   W06
 BYTE   N05  Dn1  v048
 BYTE   W06
 BYTE   N03  Dn1  v065
 BYTE   W06
 BYTE   N05  Dn1  v048
 BYTE   N17  Fn1  v059
 BYTE   W12
 BYTE   N05  Dn1  v048
 BYTE   W06
 BYTE   N03  Dn1  v065
 BYTE   W06
 BYTE   N05  Dn1  v048
 BYTE   W06
//  #02 //049   ----------------------------------------
 BYTE   N06  En1  v076
 BYTE   N24  As1  v019
 BYTE   W24
 BYTE   GoTo
  POIN2 Label_01025BA1
 BYTE   FINE

//**************** Track 3 (Midi-Chn.2) ****************//

FE16AsSwiftasWindTak_003:
//  #03 //000   ----------------------------------------
 BYTE   KEYSH   FE16AsSwiftasWindTak_key+0
 BYTE   VOICE   1
 BYTE   VOL   87*FE16AsSwiftasWindTak_mvl/mxv
 BYTE   PAN   c_v-13
 BYTE   BENDR  12
 BYTE   W48
Label_010005DB:
 BYTE   W48
//  #03 //001   ----------------------------------------
 BYTE   W96
//  #03 //002   ----------------------------------------
 BYTE   W96
//  #03 //003   ----------------------------------------
 BYTE   W96
//  #03 //004   ----------------------------------------
Label_010005DF:
 BYTE   W24
 BYTE   N05  Gn4  v059
 BYTE   W06
 BYTE   Gs4
 BYTE   W06
 BYTE   As4
 BYTE   W06
 BYTE   N17  Gn4
 BYTE   W18
 BYTE   N05  Ds4
 BYTE   W06
 BYTE   N17
 BYTE   W18
 BYTE   N05  Fn4
 BYTE   W06
 BYTE   N40  Cn4  v059  gtp1
 BYTE   W06
 BYTE   PEND 
//  #03 //005   ----------------------------------------
Label_010005F9:
 BYTE   W36
 BYTE   N05  As3  v059
 BYTE   W06
 BYTE   N40  Ds4  v059  gtp1
 BYTE   W42
 BYTE   N05  Cs4
 BYTE   W06
 BYTE   N40  Cn4  v059  gtp1
 BYTE   W06
 BYTE   PEND 
//  #03 //006   ----------------------------------------
Label_0100060C:
 BYTE   W36
 BYTE   N05  As3  v059
 BYTE   W06
 BYTE   N52  Cn4
 BYTE   W54
 BYTE   PEND 
//  #03 //007   ----------------------------------------
 BYTE   W96
//  #03 //008   ----------------------------------------
 BYTE   PATT
  POIN2 Label_010005DF
//  #03 //009   ----------------------------------------
 BYTE   PATT
  POIN2 Label_010005F9
//  #03 //010   ----------------------------------------
 BYTE   PATT
  POIN2 Label_0100060C
//  #03 //011   ----------------------------------------
 BYTE   W96
//  #03 //012   ----------------------------------------
 BYTE   PATT
  POIN2 Label_010005DF
//  #03 //013   ----------------------------------------
 BYTE   PATT
  POIN2 Label_010005F9
//  #03 //014   ----------------------------------------
 BYTE   PATT
  POIN2 Label_0100060C
//  #03 //015   ----------------------------------------
 BYTE   W96
//  #03 //016   ----------------------------------------
 BYTE   W84
 BYTE   TIE  Fn3  v059
 BYTE   TIE  As3
 BYTE   TIE  Ds4
 BYTE   W12
//  #03 //017   ----------------------------------------
 BYTE   W92
 BYTE   W01
 BYTE   EOT
 BYTE   Fn3  v070
 BYTE   Ds4
 BYTE   W03
//  #03 //018   ----------------------------------------
 BYTE   N17  Gn3
 BYTE   N17  Cn4
 BYTE   N17  Fn4
 BYTE   W18
 BYTE   Gs3
 BYTE   N17  Cs4
 BYTE   N17  Gn4
 BYTE   W18
 BYTE   N11  As3
 BYTE   N11  Ds4
 BYTE   N11  Gs4
 BYTE   W18
 BYTE   N05  As4
 BYTE   W06
 BYTE   Fn4
 BYTE   W06
 BYTE   Cn4
 BYTE   W06
 BYTE   Gs4
 BYTE   W06
 BYTE   Ds4
 BYTE   W06
 BYTE   As3
 BYTE   W06
 BYTE   Gn4
 BYTE   W06
//  #03 //019   ----------------------------------------
 BYTE   Cs4
 BYTE   W06
 BYTE   Gs3
 BYTE   W06
 BYTE   Fn4
 BYTE   W06
 BYTE   Cn4
 BYTE   W06
 BYTE   Gn3
 BYTE   W06
 BYTE   Ds4
 BYTE   W06
 BYTE   As3
 BYTE   W06
 BYTE   Fn3
 BYTE   W06
 BYTE   Ds3
 BYTE   W06
 BYTE   Cn3
 BYTE   W06
 BYTE   Ds3
 BYTE   W06
 BYTE   Gn3
 BYTE   W06
 BYTE   As3
 BYTE   W06
 BYTE   Cn4
 BYTE   W06
 BYTE   Ds4
 BYTE   W06
 BYTE   N48  As4  v059  gtp3
 BYTE   Gn4
 BYTE   N48  Ds4  v059  gtp3
 BYTE   W06
//  #03 //020   ----------------------------------------
 BYTE   W48
 BYTE   N17
 BYTE   N17  Gs4
 BYTE   N17  Cn5
 BYTE   W18
 BYTE   N44  Ds4  v064  gtp3
 BYTE   Gs4
 BYTE   N44  Cn5  v064  gtp3
 BYTE   W30
//  #03 //021   ----------------------------------------
 BYTE   W24
 BYTE   N44  As4  v059  gtp2
 BYTE   Gn4
 BYTE   N44  Ds4  v059  gtp2
 BYTE   W54
 BYTE   N05  As4
 BYTE   W06
 BYTE   Gs4
 BYTE   W06
 BYTE   Gn4
 BYTE   W06
//  #03 //022   ----------------------------------------
 BYTE   Ds4
 BYTE   W06
 BYTE   As3
 BYTE   W06
 BYTE   Gs3
 BYTE   W06
 BYTE   Gn3
 BYTE   W06
 BYTE   Ds3
 BYTE   W06
 BYTE   As2
 BYTE   W06
 BYTE   Gs2
 BYTE   W06
 BYTE   Fn2
 BYTE   W06
 BYTE   N17
 BYTE   W18
 BYTE   Cn3
 BYTE   W18
 BYTE   Gn3
 BYTE   W12
//  #03 //023   ----------------------------------------
 BYTE   W06
 BYTE   Ds4
 BYTE   W18
 BYTE   N64  Ds5  v059  gtp1
 BYTE   As4
 BYTE   N64  Gs4  v059  gtp1
 BYTE   W72
//  #03 //024   ----------------------------------------
 BYTE   N44  Cn5  v059  gtp1
 BYTE   Fn5
 BYTE   W96
//  #03 //025   ----------------------------------------
 BYTE   W96
//  #03 //026   ----------------------------------------
 BYTE   W96
//  #03 //027   ----------------------------------------
 BYTE   W96
//  #03 //028   ----------------------------------------
 BYTE   W96
//  #03 //029   ----------------------------------------
 BYTE   W96
//  #03 //030   ----------------------------------------
 BYTE   W96
//  #03 //031   ----------------------------------------
 BYTE   W96
//  #03 //032   ----------------------------------------
 BYTE   W96
//  #03 //033   ----------------------------------------
 BYTE   W96
//  #03 //034   ----------------------------------------
 BYTE   W96
//  #03 //035   ----------------------------------------
 BYTE   W96
//  #03 //036   ----------------------------------------
 BYTE   W96
//  #03 //037   ----------------------------------------
 BYTE   W96
//  #03 //038   ----------------------------------------
 BYTE   W96
//  #03 //039   ----------------------------------------
 BYTE   W96
//  #03 //040   ----------------------------------------
 BYTE   W96
//  #03 //041   ----------------------------------------
 BYTE   W96
//  #03 //042   ----------------------------------------
 BYTE   W48
 BYTE   N05  Gn4
 BYTE   W06
 BYTE   Gs4
 BYTE   W06
 BYTE   As4
 BYTE   W06
 BYTE   N76  Gn4  v059  gtp1
 BYTE   W30
//  #03 //043   ----------------------------------------
 BYTE   W96
//  #03 //044   ----------------------------------------
 BYTE   W96
//  #03 //045   ----------------------------------------
 BYTE   W96
//  #03 //046   ----------------------------------------
 BYTE   W96
//  #03 //047   ----------------------------------------
 BYTE   W96
//  #03 //048   ----------------------------------------
 BYTE   W96
//  #03 //049   ----------------------------------------
 BYTE   W24
 BYTE   GoTo
  POIN2 Label_010005DB
 BYTE   FINE

//**************** Track 4 (Midi-Chn.3) ****************//

FE16AsSwiftasWindTak_004:
//  #04 //000   ----------------------------------------
 BYTE   KEYSH   FE16AsSwiftasWindTak_key+0
 BYTE   VOICE   49
 BYTE   VOL   90*FE16AsSwiftasWindTak_mvl/mxv
 BYTE   BENDR  12
 BYTE   W48
Label_010030FD:
 BYTE   W48
//  #04 //001   ----------------------------------------
 BYTE   W96
//  #04 //002   ----------------------------------------
 BYTE   W96
//  #04 //003   ----------------------------------------
 BYTE   W96
//  #04 //004   ----------------------------------------
 BYTE   W96
//  #04 //005   ----------------------------------------
 BYTE   W96
//  #04 //006   ----------------------------------------
 BYTE   W96
//  #04 //007   ----------------------------------------
 BYTE   W96
//  #04 //008   ----------------------------------------
 BYTE   W96
//  #04 //009   ----------------------------------------
 BYTE   W96
//  #04 //010   ----------------------------------------
 BYTE   W96
//  #04 //011   ----------------------------------------
 BYTE   W96
//  #04 //012   ----------------------------------------
 BYTE   W96
//  #04 //013   ----------------------------------------
 BYTE   W96
//  #04 //014   ----------------------------------------
 BYTE   W96
//  #04 //015   ----------------------------------------
 BYTE   W96
//  #04 //016   ----------------------------------------
 BYTE   W96
//  #04 //017   ----------------------------------------
 BYTE   W96
//  #04 //018   ----------------------------------------
 BYTE   W96
//  #04 //019   ----------------------------------------
 BYTE   W96
//  #04 //020   ----------------------------------------
 BYTE   W96
//  #04 //021   ----------------------------------------
 BYTE   W96
//  #04 //022   ----------------------------------------
 BYTE   W96
//  #04 //023   ----------------------------------------
 BYTE   W96
//  #04 //024   ----------------------------------------
 BYTE   W48
 BYTE   TIE  Gs3  v041
 BYTE   TIE  Cn4
 BYTE   W48
//  #04 //025   ----------------------------------------
 BYTE   W96
//  #04 //026   ----------------------------------------
 BYTE   W44
 BYTE   W03
 BYTE   EOT
 BYTE   Gs3  v072
 BYTE   W01
 BYTE   TIE  As3
 BYTE   TIE  Gn3
 BYTE   W48
//  #04 //027   ----------------------------------------
 BYTE   W96
//  #04 //028   ----------------------------------------
 BYTE   W44
 BYTE   W03
 BYTE   EOT
 BYTE   EOT
 BYTE   As3
 BYTE   W01
 BYTE   TIE  Gs3
 BYTE   TIE  Cn4
 BYTE   W48
//  #04 //029   ----------------------------------------
 BYTE   W96
//  #04 //030   ----------------------------------------
Label_01003135:
 BYTE   W44
 BYTE   W03
 BYTE   EOT
 BYTE   Cn4  v068
 BYTE   W01
 BYTE   TIE  As3  v041
 BYTE   TIE  Gn3
 BYTE   W48
 BYTE   PEND 
//  #04 //031   ----------------------------------------
 BYTE   W96
//  #04 //032   ----------------------------------------
 BYTE   W44
 BYTE   W03
 BYTE   EOT
 BYTE   EOT
 BYTE   As3
 BYTE   W01
 BYTE   TIE  Cn4
 BYTE   TIE  Gs3
 BYTE   W48
//  #04 //033   ----------------------------------------
 BYTE   W96
//  #04 //034   ----------------------------------------
 BYTE   PATT
  POIN2 Label_01003135
//  #04 //035   ----------------------------------------
 BYTE   W96
//  #04 //036   ----------------------------------------
 BYTE   W44
 BYTE   W03
 BYTE   EOT
 BYTE   Gn3  v070
 BYTE   W01
 BYTE   TIE  Cs4  v041
 BYTE   TIE  As3
 BYTE   W48
//  #04 //037   ----------------------------------------
 BYTE   W96
//  #04 //038   ----------------------------------------
 BYTE   W44
 BYTE   W03
 BYTE   EOT
 BYTE   EOT
 BYTE   Cs4
 BYTE   W01
 BYTE   N92  As3  v041  gtp3
 BYTE   Dn4
 BYTE   W48
//  #04 //039   ----------------------------------------
 BYTE   W48
 BYTE   En4
 BYTE   N92  As3  v041  gtp3
 BYTE   W48
//  #04 //040   ----------------------------------------
 BYTE   W96
//  #04 //041   ----------------------------------------
 BYTE   W96
//  #04 //042   ----------------------------------------
 BYTE   W96
//  #04 //043   ----------------------------------------
 BYTE   W96
//  #04 //044   ----------------------------------------
 BYTE   W96
//  #04 //045   ----------------------------------------
 BYTE   W96
//  #04 //046   ----------------------------------------
 BYTE   W96
//  #04 //047   ----------------------------------------
 BYTE   W96
//  #04 //048   ----------------------------------------
 BYTE   W96
//  #04 //049   ----------------------------------------
 BYTE   W24
 BYTE   GoTo
  POIN2 Label_010030FD
 BYTE   FINE

//**************** Track 5 (Midi-Chn.4) ****************//

FE16AsSwiftasWindTak_005:
//  #05 //000   ----------------------------------------
 BYTE   KEYSH   FE16AsSwiftasWindTak_key+0
 BYTE   VOICE   40
 BYTE   VOL   77*FE16AsSwiftasWindTak_mvl/mxv
 BYTE   PAN   c_v+12
 BYTE   BENDR  12
 BYTE   W48
Label_01003D5B:
 BYTE   W48
//  #05 //001   ----------------------------------------
 BYTE   W96
//  #05 //002   ----------------------------------------
 BYTE   W96
//  #05 //003   ----------------------------------------
 BYTE   W96
//  #05 //004   ----------------------------------------
 BYTE   W96
//  #05 //005   ----------------------------------------
 BYTE   W96
//  #05 //006   ----------------------------------------
 BYTE   W96
//  #05 //007   ----------------------------------------
 BYTE   W96
//  #05 //008   ----------------------------------------
Label_01003D63:
 BYTE   W24
 BYTE   N05  Gn3  v059
 BYTE   W06
 BYTE   Gs3
 BYTE   W06
 BYTE   As3
 BYTE   W06
 BYTE   N17  Gn3
 BYTE   W18
 BYTE   N05  Ds3
 BYTE   W06
 BYTE   N17
 BYTE   W18
 BYTE   N05  Fn3
 BYTE   W06
 BYTE   N40  Cn3  v059  gtp1
 BYTE   W06
 BYTE   PEND 
//  #05 //009   ----------------------------------------
Label_01003D7D:
 BYTE   W36
 BYTE   N05  As2  v059
 BYTE   W06
 BYTE   N40  Ds3  v059  gtp1
 BYTE   W42
 BYTE   N05  Cs3
 BYTE   W06
 BYTE   N40  Cn3  v059  gtp1
 BYTE   W06
 BYTE   PEND 
//  #05 //010   ----------------------------------------
Label_01003D90:
 BYTE   W36
 BYTE   N05  As2  v059
 BYTE   W06
 BYTE   TIE  Cn3
 BYTE   W54
 BYTE   PEND 
//  #05 //011   ----------------------------------------
 BYTE   W48
 BYTE   EOT
 BYTE   W48
//  #05 //012   ----------------------------------------
 BYTE   PATT
  POIN2 Label_01003D63
//  #05 //013   ----------------------------------------
 BYTE   PATT
  POIN2 Label_01003D7D
//  #05 //014   ----------------------------------------
 BYTE   PATT
  POIN2 Label_01003D90
//  #05 //015   ----------------------------------------
 BYTE   W48
 BYTE   EOT
 BYTE   Cn3
 BYTE   W48
//  #05 //016   ----------------------------------------
 BYTE   W96
//  #05 //017   ----------------------------------------
 BYTE   W96
//  #05 //018   ----------------------------------------
 BYTE   W96
//  #05 //019   ----------------------------------------
 BYTE   W96
//  #05 //020   ----------------------------------------
 BYTE   W96
//  #05 //021   ----------------------------------------
 BYTE   W96
//  #05 //022   ----------------------------------------
 BYTE   W96
//  #05 //023   ----------------------------------------
 BYTE   W96
//  #05 //024   ----------------------------------------
 BYTE   W96
//  #05 //025   ----------------------------------------
 BYTE   W96
//  #05 //026   ----------------------------------------
 BYTE   W96
//  #05 //027   ----------------------------------------
 BYTE   W96
//  #05 //028   ----------------------------------------
 BYTE   W96
//  #05 //029   ----------------------------------------
 BYTE   W96
//  #05 //030   ----------------------------------------
 BYTE   W96
//  #05 //031   ----------------------------------------
 BYTE   W96
//  #05 //032   ----------------------------------------
 BYTE   W96
//  #05 //033   ----------------------------------------
 BYTE   W96
//  #05 //034   ----------------------------------------
 BYTE   W96
//  #05 //035   ----------------------------------------
 BYTE   W96
//  #05 //036   ----------------------------------------
 BYTE   W96
//  #05 //037   ----------------------------------------
 BYTE   W96
//  #05 //038   ----------------------------------------
 BYTE   W96
//  #05 //039   ----------------------------------------
 BYTE   W96
//  #05 //040   ----------------------------------------
 BYTE   W96
//  #05 //041   ----------------------------------------
 BYTE   W96
//  #05 //042   ----------------------------------------
 BYTE   W96
//  #05 //043   ----------------------------------------
 BYTE   W96
//  #05 //044   ----------------------------------------
 BYTE   W48
 BYTE   N05  Gn3  v059
 BYTE   W06
 BYTE   Gs3
 BYTE   W06
 BYTE   As3
 BYTE   W06
 BYTE   N17  Gn3
 BYTE   W18
 BYTE   N05  Ds3
 BYTE   W06
 BYTE   N17
 BYTE   W06
//  #05 //045   ----------------------------------------
 BYTE   W12
 BYTE   N05  Fn3
 BYTE   W06
 BYTE   N40  Cn3  v059  gtp1
 BYTE   W42
 BYTE   N05  As2
 BYTE   W06
 BYTE   N40  Ds3  v059  gtp1
 BYTE   W30
//  #05 //046   ----------------------------------------
 BYTE   W12
 BYTE   N05  Cs3
 BYTE   W06
 BYTE   N40  Cn3  v059  gtp1
 BYTE   W42
 BYTE   N05  As2
 BYTE   W06
 BYTE   TIE  Cn3
 BYTE   W30
//  #05 //047   ----------------------------------------
 BYTE   W72
 BYTE   EOT
 BYTE   W24
//  #05 //048   ----------------------------------------
 BYTE   W96
//  #05 //049   ----------------------------------------
 BYTE   W24
 BYTE   GoTo
  POIN2 Label_01003D5B
 BYTE   FINE

//**************** Track 6 (Midi-Chn.5) ****************//

FE16AsSwiftasWindTak_006:
//  #06 //000   ----------------------------------------
 BYTE   KEYSH   FE16AsSwiftasWindTak_key+0
 BYTE   VOICE   48
 BYTE   VOL   103*FE16AsSwiftasWindTak_mvl/mxv
 BYTE   N05  Fn1  v059
 BYTE   N05  Fn3
 BYTE   N05  Fn2
 BYTE   BENDR  12
 BYTE   W06
 BYTE   N05  Cn2
 BYTE   N05  Cn4
 BYTE   N05  Cn3
 BYTE   W06
 BYTE   As1
 BYTE   N05  As3
 BYTE   N05  As2
 BYTE   W06
 BYTE   Fn2
 BYTE   N05  Fn4
 BYTE   N05  Fn3
 BYTE   W06
 BYTE   Gn2
 BYTE   N05  Gn4
 BYTE   N05  Gn3
 BYTE   W06
 BYTE   Ds2
 BYTE   N05  Ds4
 BYTE   N05  Ds3
 BYTE   W06
 BYTE   As1
 BYTE   N05  As2
 BYTE   N05  As3
 BYTE   W06
 BYTE   Ds2
 BYTE   N05  Ds3
 BYTE   N05  Ds4
 BYTE   W06
Label_01003E57:
 BYTE   N12  Gs3  v059
 BYTE   N12  Gs2
 BYTE   W18
 BYTE   Gs3
 BYTE   N12  Gs2
 BYTE   W30
//  #06 //001   ----------------------------------------
 BYTE   W06
 BYTE   N05  Fn3
 BYTE   N05  Fn2
 BYTE   W06
 BYTE   Cn4
 BYTE   N05  Cn3
 BYTE   W06
 BYTE   Fn4
 BYTE   N05  Fn3
 BYTE   W06
 BYTE   Cn4
 BYTE   N05  Cn3
 BYTE   W06
 BYTE   Fn3
 BYTE   N05  Fn2
 BYTE   W06
 BYTE   Gs3
 BYTE   N05  Gs2
 BYTE   W06
 BYTE   As3
 BYTE   N05  As2
 BYTE   W06
 BYTE   N12  Gn3
 BYTE   N12  Gn2
 BYTE   W18
 BYTE   Gn3
 BYTE   N12  Gn2
 BYTE   W30
//  #06 //002   ----------------------------------------
Label_01003E88:
 BYTE   N12  Gs3  v059
 BYTE   N12  Gs2
 BYTE   W18
 BYTE   Gn3
 BYTE   N12  Gn2
 BYTE   W30
 BYTE   Fn3
 BYTE   N12  Fn2
 BYTE   W18
 BYTE   Fn3
 BYTE   N12  Fn2
 BYTE   W30
 BYTE   PEND 
//  #06 //003   ----------------------------------------
 BYTE   W06
 BYTE   N05  Cs3
 BYTE   N05  Cs2
 BYTE   W06
 BYTE   Gs3
 BYTE   N05  Gs2
 BYTE   W06
 BYTE   Cs4
 BYTE   N05  Cs3
 BYTE   W06
 BYTE   Gs3
 BYTE   N05  Gs2
 BYTE   W06
 BYTE   Cs3
 BYTE   N05  Cs2
 BYTE   W06
 BYTE   Gs3
 BYTE   N05  Gs2
 BYTE   W06
 BYTE   As3
 BYTE   N05  As2
 BYTE   W06
 BYTE   N12  Gn3
 BYTE   N12  Gn2
 BYTE   W18
 BYTE   Gn3
 BYTE   N12  Gn2
 BYTE   W30
//  #06 //004   ----------------------------------------
Label_01003EC2:
 BYTE   N12  Gs3  v059
 BYTE   N12  Gs2
 BYTE   W18
 BYTE   Gn3
 BYTE   N12  Gn2
 BYTE   W30
 BYTE   Gn3
 BYTE   N12  Gn2
 BYTE   W18
 BYTE   Gs3
 BYTE   N12  Gs2
 BYTE   W30
 BYTE   PEND 
//  #06 //005   ----------------------------------------
 BYTE   W06
 BYTE   N05  Fn3
 BYTE   N05  Fn2
 BYTE   W06
 BYTE   Cn4
 BYTE   N05  Cn3
 BYTE   W06
 BYTE   Fn4
 BYTE   N05  Fn3
 BYTE   W06
 BYTE   Cn4
 BYTE   N05  Cn3
 BYTE   W06
 BYTE   Fn3
 BYTE   N05  Fn2
 BYTE   W06
 BYTE   Cn3
 BYTE   N05  Cn4
 BYTE   W06
 BYTE   Ds3
 BYTE   N05  Ds4
 BYTE   W06
 BYTE   N12  Gn3
 BYTE   N12  Gn2
 BYTE   W18
 BYTE   Gn3
 BYTE   N12  Gn2
 BYTE   W30
//  #06 //006   ----------------------------------------
Label_01003EFC:
 BYTE   N12  Fn3  v059
 BYTE   N12  Fn2
 BYTE   W18
 BYTE   Fn3
 BYTE   N12  Fn2
 BYTE   W30
 BYTE   Ds3
 BYTE   N12  Ds2
 BYTE   W18
 BYTE   Ds3
 BYTE   N12  Ds2
 BYTE   W30
 BYTE   PEND 
//  #06 //007   ----------------------------------------
 BYTE   W06
 BYTE   N05  Ds3
 BYTE   N05  Ds2
 BYTE   W06
 BYTE   As3
 BYTE   N05  As2
 BYTE   W06
 BYTE   Ds4
 BYTE   N05  Ds3
 BYTE   W06
 BYTE   As3
 BYTE   N05  As2
 BYTE   W06
 BYTE   Ds3
 BYTE   N05  Ds2
 BYTE   W06
 BYTE   As3
 BYTE   N05  As2
 BYTE   W06
 BYTE   Ds4
 BYTE   N05  Ds3
 BYTE   W06
 BYTE   N12  Cn4
 BYTE   N12  Cn3
 BYTE   W18
 BYTE   Cn4
 BYTE   N12  Cn3
 BYTE   W30
//  #06 //008   ----------------------------------------
 BYTE   Ds4
 BYTE   N12  Ds3
 BYTE   W18
 BYTE   As3
 BYTE   N12  As2
 BYTE   W30
 BYTE   Gs3
 BYTE   N12  Gs2
 BYTE   W18
 BYTE   Gs3
 BYTE   N12  Gs2
 BYTE   W30
//  #06 //009   ----------------------------------------
Label_01003F46:
 BYTE   W48
 BYTE   N12  Gn3  v059
 BYTE   N12  Gn2
 BYTE   W18
 BYTE   Gn3
 BYTE   N12  Gn2
 BYTE   W30
 BYTE   PEND 
//  #06 //010   ----------------------------------------
 BYTE   PATT
  POIN2 Label_01003E88
//  #06 //011   ----------------------------------------
 BYTE   PATT
  POIN2 Label_01003F46
//  #06 //012   ----------------------------------------
 BYTE   PATT
  POIN2 Label_01003EC2
//  #06 //013   ----------------------------------------
 BYTE   PATT
  POIN2 Label_01003F46
//  #06 //014   ----------------------------------------
 BYTE   PATT
  POIN2 Label_01003EFC
//  #06 //015   ----------------------------------------
 BYTE   W06
 BYTE   N05  Ds3  v059
 BYTE   N05  Ds2
 BYTE   W06
 BYTE   As3
 BYTE   N05  As2
 BYTE   W06
 BYTE   Ds4
 BYTE   N05  Ds3
 BYTE   W06
 BYTE   As3
 BYTE   N05  As2
 BYTE   W06
 BYTE   Ds3
 BYTE   N05  Ds2
 BYTE   W06
 BYTE   As3
 BYTE   N05  As2
 BYTE   W06
 BYTE   Cs4
 BYTE   N05  Cs3
 BYTE   W06
 BYTE   N12  Cn4
 BYTE   N12  Cn3
 BYTE   W18
 BYTE   Cn4
 BYTE   N12  Cn3
 BYTE   W30
//  #06 //016   ----------------------------------------
 BYTE   Ds4
 BYTE   N12  Ds3
 BYTE   W18
 BYTE   Cs4
 BYTE   N12  Cs3
 BYTE   W78
//  #06 //017   ----------------------------------------
 BYTE   W96
//  #06 //018   ----------------------------------------
 BYTE   W96
//  #06 //019   ----------------------------------------
 BYTE   W96
//  #06 //020   ----------------------------------------
 BYTE   W96
//  #06 //021   ----------------------------------------
 BYTE   W96
//  #06 //022   ----------------------------------------
 BYTE   W96
//  #06 //023   ----------------------------------------
 BYTE   W96
//  #06 //024   ----------------------------------------
 BYTE   W96
//  #06 //025   ----------------------------------------
 BYTE   W96
//  #06 //026   ----------------------------------------
 BYTE   W96
//  #06 //027   ----------------------------------------
 BYTE   W96
//  #06 //028   ----------------------------------------
 BYTE   W96
//  #06 //029   ----------------------------------------
 BYTE   W96
//  #06 //030   ----------------------------------------
 BYTE   W96
//  #06 //031   ----------------------------------------
 BYTE   W96
//  #06 //032   ----------------------------------------
 BYTE   W96
//  #06 //033   ----------------------------------------
 BYTE   W96
//  #06 //034   ----------------------------------------
 BYTE   W96
//  #06 //035   ----------------------------------------
 BYTE   W96
//  #06 //036   ----------------------------------------
 BYTE   W96
//  #06 //037   ----------------------------------------
 BYTE   W96
//  #06 //038   ----------------------------------------
 BYTE   W96
//  #06 //039   ----------------------------------------
 BYTE   W96
//  #06 //040   ----------------------------------------
 BYTE   W48
 BYTE   Cn3
 BYTE   N12  Cn5
 BYTE   N12  Cn4
 BYTE   W18
 BYTE   Cn3
 BYTE   N12  Cn5
 BYTE   N12  Cn4
 BYTE   W30
//  #06 //041   ----------------------------------------
 BYTE   W36
 BYTE   Cn5
 BYTE   N12  Cn4
 BYTE   N12  Cn3
 BYTE   W48
 BYTE   Cn4
 BYTE   N12  Cn5
 BYTE   N12  Cn3
 BYTE   W12
//  #06 //042   ----------------------------------------
 BYTE   W06
 BYTE   N05  Gn3
 BYTE   N05  Gn4
 BYTE   W06
 BYTE   Gs4
 BYTE   N05  Gs3
 BYTE   W06
 BYTE   As4
 BYTE   N05  As3
 BYTE   W06
 BYTE   Gn4
 BYTE   N05  Gn3
 BYTE   W06
 BYTE   Ds4
 BYTE   N05  Ds3
 BYTE   W06
 BYTE   Fn3
 BYTE   N05  Fn4
 BYTE   W06
 BYTE   Cn3
 BYTE   N05  Cn4
 BYTE   W30
 BYTE   N12  Cn5
 BYTE   N12  Cn4
 BYTE   N12  Cn3
 BYTE   W18
 BYTE   N09  Cn5
 BYTE   N09  Cn4
 BYTE   N09  Cn3
 BYTE   W06
//  #06 //043   ----------------------------------------
 BYTE   W60
 BYTE   N12  Cn4
 BYTE   N12  Cn5
 BYTE   N12  Cn3
 BYTE   W36
//  #06 //044   ----------------------------------------
 BYTE   W12
 BYTE   N11  Ds3
 BYTE   N11  Ds4
 BYTE   N11  Ds5
 BYTE   W24
 BYTE   N12  Gn3  v048
 BYTE   N12  Gn4  v059
 BYTE   W60
//  #06 //045   ----------------------------------------
 BYTE   Cn3
 BYTE   N12  Cn5
 BYTE   N12  Cn4
 BYTE   W18
 BYTE   Cn3
 BYTE   N12  Cn5
 BYTE   N12  Cn4
 BYTE   W66
 BYTE   Cn3
 BYTE   N12  Cn5
 BYTE   N12  Cn4
 BYTE   W12
//  #06 //046   ----------------------------------------
 BYTE   W96
//  #06 //047   ----------------------------------------
 BYTE   As3
 BYTE   N12  As4
 BYTE   N12  As2
 BYTE   W18
 BYTE   As4
 BYTE   N12  As3
 BYTE   N12  As2
 BYTE   W66
 BYTE   N13  Cn3
 BYTE   N13  Cn5
 BYTE   N13  Cn4
 BYTE   W12
//  #06 //048   ----------------------------------------
 BYTE   W48
 BYTE   N05  Fn1
 BYTE   N05  Fn3
 BYTE   N05  Fn2
 BYTE   W06
 BYTE   Cn4
 BYTE   N05  Cn2
 BYTE   N05  Cn3
 BYTE   W06
 BYTE   As1
 BYTE   N05  As3
 BYTE   N05  As2
 BYTE   W06
 BYTE   Fn4
 BYTE   N05  Fn2
 BYTE   N05  Fn3
 BYTE   W06
 BYTE   Gn2
 BYTE   N05  Gn4
 BYTE   N05  Gn3
 BYTE   W06
 BYTE   Ds4
 BYTE   N05  Ds2
 BYTE   N05  Ds3
 BYTE   W06
 BYTE   As3
 BYTE   N05  As2
 BYTE   N05  As1
 BYTE   W06
 BYTE   Ds4
 BYTE   N05  Ds3
 BYTE   N05  Ds2
 BYTE   W06
//  #06 //049   ----------------------------------------
 BYTE   W24
 BYTE   GoTo
  POIN2 Label_01003E57
 BYTE   FINE

//**************** Track 7 (Midi-Chn.6) ****************//

FE16AsSwiftasWindTak_007:
//  #07 //000   ----------------------------------------
 BYTE   KEYSH   FE16AsSwiftasWindTak_key+0
 BYTE   VOICE   68
 BYTE   VOL   98*FE16AsSwiftasWindTak_mvl/mxv
 BYTE   PAN   c_v+12
 BYTE   BENDR  12
 BYTE   W48
Label_0100408B:
 BYTE   W48
//  #07 //001   ----------------------------------------
 BYTE   W96
//  #07 //002   ----------------------------------------
 BYTE   W96
//  #07 //003   ----------------------------------------
 BYTE   W96
//  #07 //004   ----------------------------------------
 BYTE   W96
//  #07 //005   ----------------------------------------
 BYTE   W96
//  #07 //006   ----------------------------------------
 BYTE   W96
//  #07 //007   ----------------------------------------
 BYTE   W96
//  #07 //008   ----------------------------------------
 BYTE   W96
//  #07 //009   ----------------------------------------
 BYTE   W96
//  #07 //010   ----------------------------------------
 BYTE   W96
//  #07 //011   ----------------------------------------
 BYTE   W96
//  #07 //012   ----------------------------------------
 BYTE   W96
//  #07 //013   ----------------------------------------
 BYTE   W96
//  #07 //014   ----------------------------------------
 BYTE   W96
//  #07 //015   ----------------------------------------
 BYTE   W96
//  #07 //016   ----------------------------------------
 BYTE   W96
//  #07 //017   ----------------------------------------
 BYTE   W96
//  #07 //018   ----------------------------------------
 BYTE   W96
//  #07 //019   ----------------------------------------
 BYTE   W96
//  #07 //020   ----------------------------------------
 BYTE   PATT
  POIN2 Label_01003D63
//  #07 //021   ----------------------------------------
 BYTE   PATT
  POIN2 Label_01003D7D
//  #07 //022   ----------------------------------------
 BYTE   W36
 BYTE   N05  As2  v059
 BYTE   W06
 BYTE   TIE  Fn3
 BYTE   W54
//  #07 //023   ----------------------------------------
 BYTE   W44
 BYTE   W02
 BYTE   EOT
 BYTE   W48
 BYTE   W02
//  #07 //024   ----------------------------------------
 BYTE   W96
//  #07 //025   ----------------------------------------
 BYTE   W96
//  #07 //026   ----------------------------------------
 BYTE   W96
//  #07 //027   ----------------------------------------
 BYTE   W96
//  #07 //028   ----------------------------------------
 BYTE   W96
//  #07 //029   ----------------------------------------
 BYTE   W96
//  #07 //030   ----------------------------------------
 BYTE   W96
//  #07 //031   ----------------------------------------
 BYTE   W96
//  #07 //032   ----------------------------------------
 BYTE   W96
//  #07 //033   ----------------------------------------
 BYTE   W96
//  #07 //034   ----------------------------------------
 BYTE   W96
//  #07 //035   ----------------------------------------
 BYTE   W96
//  #07 //036   ----------------------------------------
 BYTE   W96
//  #07 //037   ----------------------------------------
 BYTE   W96
//  #07 //038   ----------------------------------------
 BYTE   W96
//  #07 //039   ----------------------------------------
 BYTE   W96
//  #07 //040   ----------------------------------------
 BYTE   W96
//  #07 //041   ----------------------------------------
 BYTE   W96
//  #07 //042   ----------------------------------------
 BYTE   W96
//  #07 //043   ----------------------------------------
 BYTE   W96
//  #07 //044   ----------------------------------------
 BYTE   W96
//  #07 //045   ----------------------------------------
 BYTE   W96
//  #07 //046   ----------------------------------------
 BYTE   W96
//  #07 //047   ----------------------------------------
 BYTE   W96
//  #07 //048   ----------------------------------------
 BYTE   W96
//  #07 //049   ----------------------------------------
 BYTE   W24
 BYTE   GoTo
  POIN2 Label_0100408B
 BYTE   FINE

//**************** Track 8 (Midi-Chn.7) ****************//

FE16AsSwiftasWindTak_008:
//  #08 //000   ----------------------------------------
 BYTE   KEYSH   FE16AsSwiftasWindTak_key+0
 BYTE   VOICE   50
 BYTE   VOL   90*FE16AsSwiftasWindTak_mvl/mxv
 BYTE   BENDR  12
 BYTE   W48
Label_010040F1:
 BYTE   N08  Fn1  v059
 BYTE   W18
 BYTE   Fn1
 BYTE   W30
//  #08 //001   ----------------------------------------
Label_010040F7:
 BYTE   W48
 BYTE   N08  Fn1  v059
 BYTE   W18
 BYTE   Fn1
 BYTE   W30
 BYTE   PEND 
//  #08 //002   ----------------------------------------
 BYTE   PATT
  POIN2 Label_010040F7
//  #08 //003   ----------------------------------------
 BYTE   PATT
  POIN2 Label_010040F7
//  #08 //004   ----------------------------------------
 BYTE   PATT
  POIN2 Label_010040F7
//  #08 //005   ----------------------------------------
 BYTE   PATT
  POIN2 Label_010040F7
//  #08 //006   ----------------------------------------
 BYTE   PATT
  POIN2 Label_010040F7
//  #08 //007   ----------------------------------------
Label_01004118:
 BYTE   W48
 BYTE   N12  Cs1  v059
 BYTE   W18
 BYTE   Cs1
 BYTE   W30
 BYTE   PEND 
//  #08 //008   ----------------------------------------
 BYTE   Fs0
 BYTE   W18
 BYTE   Fs0
 BYTE   W30
 BYTE   N08  Fn1
 BYTE   W18
 BYTE   Fn1
 BYTE   W30
//  #08 //009   ----------------------------------------
 BYTE   PATT
  POIN2 Label_010040F7
//  #08 //010   ----------------------------------------
 BYTE   PATT
  POIN2 Label_010040F7
//  #08 //011   ----------------------------------------
 BYTE   PATT
  POIN2 Label_01004118
//  #08 //012   ----------------------------------------
 BYTE   N12  Ds1  v059
 BYTE   W18
 BYTE   Ds0
 BYTE   W30
 BYTE   N08  Fn1
 BYTE   W18
 BYTE   Fn1
 BYTE   W30
//  #08 //013   ----------------------------------------
 BYTE   PATT
  POIN2 Label_010040F7
//  #08 //014   ----------------------------------------
 BYTE   PATT
  POIN2 Label_010040F7
//  #08 //015   ----------------------------------------
 BYTE   PATT
  POIN2 Label_01004118
//  #08 //016   ----------------------------------------
 BYTE   N12  Fs0  v059
 BYTE   W18
 BYTE   Fs0
 BYTE   W78
//  #08 //017   ----------------------------------------
 BYTE   W96
//  #08 //018   ----------------------------------------
 BYTE   W96
//  #08 //019   ----------------------------------------
 BYTE   W96
//  #08 //020   ----------------------------------------
 BYTE   W96
//  #08 //021   ----------------------------------------
 BYTE   W96
//  #08 //022   ----------------------------------------
 BYTE   W96
//  #08 //023   ----------------------------------------
 BYTE   W96
//  #08 //024   ----------------------------------------
 BYTE   W96
//  #08 //025   ----------------------------------------
 BYTE   W96
//  #08 //026   ----------------------------------------
 BYTE   W96
//  #08 //027   ----------------------------------------
 BYTE   W96
//  #08 //028   ----------------------------------------
 BYTE   W96
//  #08 //029   ----------------------------------------
 BYTE   W96
//  #08 //030   ----------------------------------------
 BYTE   W96
//  #08 //031   ----------------------------------------
 BYTE   W96
//  #08 //032   ----------------------------------------
 BYTE   W96
//  #08 //033   ----------------------------------------
 BYTE   W96
//  #08 //034   ----------------------------------------
 BYTE   W96
//  #08 //035   ----------------------------------------
 BYTE   W96
//  #08 //036   ----------------------------------------
 BYTE   W96
//  #08 //037   ----------------------------------------
 BYTE   W96
//  #08 //038   ----------------------------------------
 BYTE   W96
//  #08 //039   ----------------------------------------
 BYTE   W96
//  #08 //040   ----------------------------------------
 BYTE   W48
 BYTE   N05  Fn1
 BYTE   W18
 BYTE   Fn1
 BYTE   W30
//  #08 //041   ----------------------------------------
 BYTE   W36
 BYTE   Fn1
 BYTE   W48
 BYTE   Fn1
 BYTE   W12
//  #08 //042   ----------------------------------------
 BYTE   W72
 BYTE   Ds1
 BYTE   W18
 BYTE   N06
 BYTE   W06
//  #08 //043   ----------------------------------------
 BYTE   W60
 BYTE   N05  Fn1
 BYTE   W36
//  #08 //044   ----------------------------------------
 BYTE   W12
 BYTE   Ds1
 BYTE   W24
 BYTE   Ds1
 BYTE   W60
//  #08 //045   ----------------------------------------
 BYTE   Fn1
 BYTE   W18
 BYTE   Fn1
 BYTE   W66
 BYTE   Fn1
 BYTE   W12
//  #08 //046   ----------------------------------------
 BYTE   W36
 BYTE   Fn1
 BYTE   W60
//  #08 //047   ----------------------------------------
 BYTE   Fn1
 BYTE   W18
 BYTE   Fn1
 BYTE   W66
 BYTE   N09
 BYTE   W12
//  #08 //048   ----------------------------------------
 BYTE   W96
//  #08 //049   ----------------------------------------
 BYTE   W24
 BYTE   GoTo
  POIN2 Label_010040F1
 BYTE   FINE

//**************** Track 9 (Midi-Chn.8) ****************//

FE16AsSwiftasWindTak_009:
//  #09 //000   ----------------------------------------
 BYTE   KEYSH   FE16AsSwiftasWindTak_key+0
 BYTE   VOICE   34
 BYTE   VOL   108*FE16AsSwiftasWindTak_mvl/mxv
 BYTE   BENDR  12
 BYTE   W24
 BYTE   N23  Dn2  v041
 BYTE   W03
 BYTE   BEND   c_v+1
 BYTE   W04
 BYTE   BEND   c_v+2
 BYTE   W05
 BYTE   BEND   c_v+3
 BYTE   W04
 BYTE   BEND   c_v+4
 BYTE   W04
 BYTE   BEND   c_v+5
 BYTE   W04
Label_010041CC:
 BYTE   BEND   c_v+0
 BYTE   N11  Fn1  v059
 BYTE   W18
 BYTE   Fn1
 BYTE   W30
//  #09 //001   ----------------------------------------
Label_010041D4:
 BYTE   W30
 BYTE   N01  Gs1  v059
 BYTE   W06
 BYTE   N05  As1
 BYTE   W06
 BYTE   Cn2
 BYTE   W06
 BYTE   N11  Fn1
 BYTE   W18
 BYTE   Fn1
 BYTE   W30
 BYTE   PEND 
//  #09 //002   ----------------------------------------
 BYTE   PATT
  POIN2 Label_010041D4
//  #09 //003   ----------------------------------------
 BYTE   PATT
  POIN2 Label_010041D4
//  #09 //004   ----------------------------------------
 BYTE   PATT
  POIN2 Label_010041D4
//  #09 //005   ----------------------------------------
 BYTE   PATT
  POIN2 Label_010041D4
//  #09 //006   ----------------------------------------
 BYTE   PATT
  POIN2 Label_010041D4
//  #09 //007   ----------------------------------------
 BYTE   W30
 BYTE   N01  Gs1  v059
 BYTE   W06
 BYTE   N05  As1
 BYTE   W06
 BYTE   Cn2
 BYTE   W06
 BYTE   N11  Cs2
 BYTE   W18
 BYTE   Cs2
 BYTE   W30
//  #09 //008   ----------------------------------------
 BYTE   Fs1
 BYTE   W18
 BYTE   Fs1
 BYTE   W18
 BYTE   Gn1
 BYTE   W02
 BYTE   BEND   c_v+1
 BYTE   W02
 BYTE   BEND   c_v+2
 BYTE   W04
 BYTE   BEND   c_v+3
 BYTE   W03
 BYTE   BEND   c_v+4
 BYTE   W01
 BYTE   BEND   c_v+0
 BYTE   N11  Fn1
 BYTE   W18
 BYTE   Fn1
 BYTE   W18
 BYTE   N03
 BYTE   W12
//  #09 //009   ----------------------------------------
Label_01004223:
 BYTE   W06
 BYTE   N01  Fn1  v059
 BYTE   W06
 BYTE   N05  Gn1
 BYTE   W06
 BYTE   Gs1
 BYTE   W12
 BYTE   N01  Fn1
 BYTE   W06
 BYTE   N11  Gn1
 BYTE   W12
 BYTE   Fn1
 BYTE   W18
 BYTE   Fn1
 BYTE   W30
 BYTE   PEND 
//  #09 //010   ----------------------------------------
 BYTE   W06
 BYTE   N01  As1
 BYTE   W06
 BYTE   N05  Ds2
 BYTE   W06
 BYTE   Fn2
 BYTE   W12
 BYTE   N01  Gs1
 BYTE   W06
 BYTE   N05  As1
 BYTE   W06
 BYTE   Cn2
 BYTE   W06
 BYTE   N11  Fn1
 BYTE   W18
 BYTE   Fn1
 BYTE   W30
//  #09 //011   ----------------------------------------
Label_0100424E:
 BYTE   W06
 BYTE   N01  Fn1  v059
 BYTE   W06
 BYTE   N05  Gn1
 BYTE   W06
 BYTE   Gs1
 BYTE   W12
 BYTE   N01
 BYTE   W06
 BYTE   N05  As1
 BYTE   W06
 BYTE   Cn2
 BYTE   W06
 BYTE   N11  Cs2
 BYTE   W18
 BYTE   Cs2
 BYTE   W30
 BYTE   PEND 
//  #09 //012   ----------------------------------------
 BYTE   Ds2
 BYTE   W18
 BYTE   N28  Fs1  v059  gtp1
 BYTE   BEND   c_v+5
 BYTE   W02
 BYTE   BEND   c_v+4
 BYTE   W06
 BYTE   BEND   c_v+3
 BYTE   W07
 BYTE   BEND   c_v+2
 BYTE   W05
 BYTE   BEND   c_v+1
 BYTE   W07
 BYTE   BEND   c_v+0
 BYTE   W03
 BYTE   N11  Fn1
 BYTE   W18
 BYTE   Fn1
 BYTE   W18
 BYTE   N03
 BYTE   W12
//  #09 //013   ----------------------------------------
 BYTE   PATT
  POIN2 Label_01004223
//  #09 //014   ----------------------------------------
 BYTE   W06
 BYTE   N05  As2  v059
 BYTE   W06
 BYTE   Cn3
 BYTE   W06
 BYTE   Fn2
 BYTE   W06
 BYTE   Ds2
 BYTE   W06
 BYTE   N01  Fn2
 BYTE   W06
 BYTE   N05  As1
 BYTE   W06
 BYTE   Cn2
 BYTE   W06
 BYTE   N11  Fn1
 BYTE   W18
 BYTE   Fn1
 BYTE   W30
//  #09 //015   ----------------------------------------
 BYTE   PATT
  POIN2 Label_0100424E
//  #09 //016   ----------------------------------------
 BYTE   N11  Fs1  v059
 BYTE   W18
 BYTE   Fs1
 BYTE   W18
 BYTE   Gn1
 BYTE   W02
 BYTE   BEND   c_v+1
 BYTE   W02
 BYTE   BEND   c_v+2
 BYTE   W04
 BYTE   BEND   c_v+3
 BYTE   W03
 BYTE   BEND   c_v+4
 BYTE   W01
 BYTE   BEND   c_v+0
 BYTE   N11  Fn1
 BYTE   W18
 BYTE   N03
 BYTE   W12
 BYTE   N01
 BYTE   W06
 BYTE   N05  Gn1
 BYTE   W06
 BYTE   Gs1
 BYTE   W06
//  #09 //017   ----------------------------------------
Label_010042BF:
 BYTE   W06
 BYTE   N01  Gn1  v059
 BYTE   W06
 BYTE   N05  Gs1
 BYTE   W06
 BYTE   As1
 BYTE   W12
 BYTE   N01  Gs1
 BYTE   W06
 BYTE   N05  As1
 BYTE   W06
 BYTE   Cn2
 BYTE   W06
 BYTE   N11  Fn1
 BYTE   W18
 BYTE   N03
 BYTE   W12
 BYTE   N01
 BYTE   W06
 BYTE   N05  Gn1
 BYTE   W06
 BYTE   Gs1
 BYTE   W06
 BYTE   PEND 
//  #09 //018   ----------------------------------------
Label_010042DE:
 BYTE   W06
 BYTE   N01  Gs1  v059
 BYTE   W06
 BYTE   N05  As1
 BYTE   W06
 BYTE   Cn2
 BYTE   W12
 BYTE   N01  As1
 BYTE   W06
 BYTE   N05  Cn2
 BYTE   W06
 BYTE   Ds2
 BYTE   W06
 BYTE   N11  Fn1
 BYTE   W18
 BYTE   N03
 BYTE   W12
 BYTE   N01
 BYTE   W06
 BYTE   N05  Gn1
 BYTE   W06
 BYTE   Gs1
 BYTE   W06
 BYTE   PEND 
//  #09 //019   ----------------------------------------
Label_010042FD:
 BYTE   W06
 BYTE   N01  Gn1  v059
 BYTE   W06
 BYTE   N05  Gs1
 BYTE   W06
 BYTE   As1
 BYTE   W12
 BYTE   N01  Gs1
 BYTE   W06
 BYTE   N05  As1
 BYTE   W06
 BYTE   Cn2
 BYTE   W06
 BYTE   N01  Fn1
 BYTE   W06
 BYTE   N05  Ds2
 BYTE   W06
 BYTE   Gn2
 BYTE   W06
 BYTE   Gs2
 BYTE   W12
 BYTE   N01  Ds2
 BYTE   W06
 BYTE   N05  Gn2
 BYTE   W06
 BYTE   Fn2
 BYTE   W06
 BYTE   PEND 
//  #09 //020   ----------------------------------------
 BYTE   W06
 BYTE   As1
 BYTE   W06
 BYTE   Cn2
 BYTE   W06
 BYTE   Ds2
 BYTE   W06
 BYTE   As1
 BYTE   W06
 BYTE   Cn2
 BYTE   W06
 BYTE   Gn1
 BYTE   W06
 BYTE   Gs1
 BYTE   W06
 BYTE   N11  Fn1
 BYTE   W18
 BYTE   N03
 BYTE   W12
 BYTE   N01
 BYTE   W06
 BYTE   N05  Gn1
 BYTE   W06
 BYTE   Gs1
 BYTE   W06
//  #09 //021   ----------------------------------------
 BYTE   PATT
  POIN2 Label_010042BF
//  #09 //022   ----------------------------------------
 BYTE   PATT
  POIN2 Label_010042DE
//  #09 //023   ----------------------------------------
 BYTE   PATT
  POIN2 Label_010042FD
//  #09 //024   ----------------------------------------
 BYTE   W06
 BYTE   N05  As1  v059
 BYTE   W06
 BYTE   Cn2
 BYTE   W06
 BYTE   Ds2
 BYTE   W06
 BYTE   As1
 BYTE   W06
 BYTE   Cn2
 BYTE   W06
 BYTE   Gn1
 BYTE   W06
 BYTE   Gs1
 BYTE   W54
//  #09 //025   ----------------------------------------
 BYTE   W96
//  #09 //026   ----------------------------------------
 BYTE   W96
//  #09 //027   ----------------------------------------
 BYTE   W96
//  #09 //028   ----------------------------------------
 BYTE   W96
//  #09 //029   ----------------------------------------
 BYTE   W96
//  #09 //030   ----------------------------------------
 BYTE   W96
//  #09 //031   ----------------------------------------
 BYTE   W96
//  #09 //032   ----------------------------------------
 BYTE   W96
//  #09 //033   ----------------------------------------
 BYTE   W96
//  #09 //034   ----------------------------------------
 BYTE   W96
//  #09 //035   ----------------------------------------
 BYTE   W96
//  #09 //036   ----------------------------------------
 BYTE   W96
//  #09 //037   ----------------------------------------
 BYTE   W96
//  #09 //038   ----------------------------------------
 BYTE   W96
//  #09 //039   ----------------------------------------
 BYTE   W96
//  #09 //040   ----------------------------------------
 BYTE   W48
 BYTE   N11  Fn1
 BYTE   W18
 BYTE   Fn1
 BYTE   W18
 BYTE   N05  Ds2
 BYTE   W06
 BYTE   Fn2
 BYTE   W06
//  #09 //041   ----------------------------------------
 BYTE   W12
 BYTE   As1
 BYTE   W06
 BYTE   Cn2
 BYTE   W18
 BYTE   N11  Fn1
 BYTE   W48
 BYTE   Fn1
 BYTE   W12
//  #09 //042   ----------------------------------------
 BYTE   W48
 BYTE   N05  As1
 BYTE   W06
 BYTE   Cn2
 BYTE   W18
 BYTE   N11  Fn1
 BYTE   W18
 BYTE   N05
 BYTE   W06
//  #09 //043   ----------------------------------------
 BYTE   W60
 BYTE   N11  Cs2
 BYTE   W36
//  #09 //044   ----------------------------------------
 BYTE   W12
 BYTE   Ds2
 BYTE   W24
 BYTE   Ds1
 BYTE   W18
 BYTE   N05
 BYTE   W06
 BYTE   Gs1
 BYTE   W06
 BYTE   Gn1
 BYTE   W30
//  #09 //045   ----------------------------------------
 BYTE   N11  Fn1
 BYTE   W18
 BYTE   Fn1
 BYTE   W18
 BYTE   N05  Gn1
 BYTE   W06
 BYTE   Gs1
 BYTE   W12
 BYTE   Gn1
 BYTE   W06
 BYTE   Gs1
 BYTE   W06
 BYTE   As1
 BYTE   W12
 BYTE   As1
 BYTE   W06
 BYTE   N11  Fn1
 BYTE   W12
//  #09 //046   ----------------------------------------
 BYTE   W18
 BYTE   N05
 BYTE   W12
 BYTE   Ds1
 BYTE   W06
 BYTE   Gn1
 BYTE   W06
 BYTE   Gs1
 BYTE   W12
 BYTE   N01
 BYTE   W06
 BYTE   N05  As1
 BYTE   W06
 BYTE   Cn2
 BYTE   W18
 BYTE   N11
 BYTE   W12
//  #09 //047   ----------------------------------------
 BYTE   Fn1
 BYTE   W18
 BYTE   Fn1
 BYTE   W12
 BYTE   N05
 BYTE   W06
 BYTE   Gn1
 BYTE   W06
 BYTE   Gs1
 BYTE   W12
 BYTE   Gn1
 BYTE   W06
 BYTE   Gs1
 BYTE   W06
 BYTE   As1
 BYTE   W12
 BYTE   Gs1
 BYTE   W06
 BYTE   N11  Cs2
 BYTE   W12
//  #09 //048   ----------------------------------------
 BYTE   W06
 BYTE   N05  Fn2
 BYTE   W06
 BYTE   Gn2
 BYTE   W06
 BYTE   Gs2
 BYTE   W12
 BYTE   Ds2
 BYTE   W06
 BYTE   Gn2
 BYTE   W06
 BYTE   Fn2
 BYTE   W12
 BYTE   Ds2
 BYTE   W06
 BYTE   As1
 BYTE   W06
 BYTE   Cn2
 BYTE   W06
 BYTE   Gs1
 BYTE   W06
 BYTE   As1
 BYTE   W06
 BYTE   Gn1
 BYTE   W06
 BYTE   Gs1
 BYTE   W06
//  #09 //049   ----------------------------------------
 BYTE   W24
 BYTE   GoTo
  POIN2 Label_010041CC
 BYTE   FINE

//******************************************************//
	ALIGN 4

FE16AsSwiftasWindTak:
	BYTE	9	// NumTrks
	BYTE	0	// NumBlks
	BYTE	FE16AsSwiftasWindTak_pri	// Priority
	BYTE	FE16AsSwiftasWindTak_rev	// Reverb.
    
	POIN2	FE16AsSwiftasWindTak_grp
    
	POIN2	FE16AsSwiftasWindTak_001
	POIN2	FE16AsSwiftasWindTak_002
	POIN2	FE16AsSwiftasWindTak_003
	POIN2	FE16AsSwiftasWindTak_004
	POIN2	FE16AsSwiftasWindTak_005
	POIN2	FE16AsSwiftasWindTak_006
	POIN2	FE16AsSwiftasWindTak_007
	POIN2	FE16AsSwiftasWindTak_008
	POIN2	FE16AsSwiftasWindTak_009

	
