//Event file generated from Sappy .s format.
	#include "MPlayDef.event"

	#define	FE16TheLongRoadAzula_grp  voicegroup000
	#define	FE16TheLongRoadAzula_pri  0
	#define	FE16TheLongRoadAzula_rev  0
	#define	FE16TheLongRoadAzula_mvl  127
	#define	FE16TheLongRoadAzula_key  0
	#define	FE16TheLongRoadAzula_tbs  1
	#define	FE16TheLongRoadAzula_exg  0
	#define	FE16TheLongRoadAzula_cmp  1

	// .rodata
	//	FE16TheLongRoadAzula
	ALIGN 4


//**************** Track 1 (Midi-Chn.0) ****************//

FE16TheLongRoadAzula_001:
//  #01 //000   ----------------------------------------
 BYTE   KEYSH   FE16TheLongRoadAzula_key+0
Label_54E0BA:
 BYTE   TEMPO   76*FE16TheLongRoadAzula_tbs/2
 BYTE   VOICE   48
 BYTE   MODT 0
 BYTE   LFOS 44
 BYTE   VOL   75*FE16TheLongRoadAzula_mvl/mxv
 BYTE   MODT 0
 BYTE   LFOS 44
 BYTE   PAN   c_v+0
 BYTE   N92  En2  v036
 BYTE   N90  Gs2
 BYTE   W96
//  #01 //001   ----------------------------------------
Label_54E0D0:
 BYTE   N92  Ds2  v036
 BYTE   N90  Bn2
 BYTE   W96
 BYTE   PEND 
//  #01 //002   ----------------------------------------
Label_54E0D7:
 BYTE   N92  En2  v036
 BYTE   N90  An2
 BYTE   W96
 BYTE   PEND 
//  #01 //003   ----------------------------------------
Label_54E0DE:
 BYTE   N92  Ds2  v036
 BYTE   N90  Fs2
 BYTE   W96
 BYTE   PEND 
//  #01 //004   ----------------------------------------
Label_54E0E5:
 BYTE   N92  En2  v036
 BYTE   N90  Gs2
 BYTE   W96
 BYTE   PEND 
//  #01 //005   ----------------------------------------
 BYTE   N92  Ds2
 BYTE   N90  Bn2
 BYTE   W24
 BYTE   N24  En3  v044
 BYTE   W24
 BYTE   Bn3
 BYTE   W24
 BYTE   An3
 BYTE   W24
//  #01 //006   ----------------------------------------
 BYTE   N92  En2  v036
 BYTE   N90  An2
 BYTE   N12  Gs3  v044
 BYTE   W12
 BYTE   An3
 BYTE   W12
 BYTE   Gs3
 BYTE   W12
 BYTE   Cs3
 BYTE   W12
 BYTE   N48  En3
 BYTE   W48
//  #01 //007   ----------------------------------------
 BYTE   PATT
  POIN2 Label_54E0DE
//  #01 //008   ----------------------------------------
 BYTE   PATT
  POIN2 Label_54E0E5
//  #01 //009   ----------------------------------------
 BYTE   PATT
  POIN2 Label_54E0D0
//  #01 //010   ----------------------------------------
 BYTE   PATT
  POIN2 Label_54E0D7
//  #01 //011   ----------------------------------------
 BYTE   PATT
  POIN2 Label_54E0DE
//  #01 //012   ----------------------------------------
 BYTE   PATT
  POIN2 Label_54E0E5
//  #01 //013   ----------------------------------------
 BYTE   PATT
  POIN2 Label_54E0D0
//  #01 //014   ----------------------------------------
 BYTE   N92  En2  v036
 BYTE   N90  An2
 BYTE   N96  En3
 BYTE   N96  An3
 BYTE   W96
//  #01 //015   ----------------------------------------
 BYTE   PATT
  POIN2 Label_54E0DE
//  #01 //016   ----------------------------------------
 BYTE   N90  Gs2  v024
 BYTE   N90  Gs3
 BYTE   W96
//  #01 //017   ----------------------------------------
 BYTE   Bn2
 BYTE   N90  Bn3
 BYTE   W96
//  #01 //018   ----------------------------------------
 BYTE   An2
 BYTE   N90  An3
 BYTE   W96
//  #01 //019   ----------------------------------------
 BYTE   Fs2
 BYTE   N90  Fs3
 BYTE   W96
//  #01 //020   ----------------------------------------
 BYTE   Gs2
 BYTE   N90  Gs3
 BYTE   W96
//  #01 //021   ----------------------------------------
 BYTE   Bn2
 BYTE   N90  Bn3
 BYTE   W96
//  #01 //022   ----------------------------------------
 BYTE   An2
 BYTE   N90  An3
 BYTE   W96
//  #01 //023   ----------------------------------------
 BYTE   Fs2
 BYTE   N90  Fs3
 BYTE   W96
//  #01 //024   ----------------------------------------
 BYTE   W96
//  #01 //025   ----------------------------------------
 BYTE   W96
//  #01 //026   ----------------------------------------
 BYTE   W96
//  #01 //027   ----------------------------------------
 BYTE   W96
//  #01 //028   ----------------------------------------
 BYTE   W96
//  #01 //029   ----------------------------------------
 BYTE   W96
//  #01 //030   ----------------------------------------
 BYTE   W96
//  #01 //031   ----------------------------------------
 BYTE   W96
//  #01 //032   ----------------------------------------
 BYTE   N44  Cn3  v016
 BYTE   W48
 BYTE   Cs3
 BYTE   W48
//  #01 //033   ----------------------------------------
 BYTE   Ds3
 BYTE   W72
 BYTE   W03
 BYTE   N11  Fs3  v024
 BYTE   W12
 BYTE   Gs3
 BYTE   W09
//  #01 //034   ----------------------------------------
Label_54E176:
 BYTE   W03
 BYTE   N56  An3  v024
 BYTE   W60
 BYTE   N11  Gs3
 BYTE   W12
 BYTE   Fs3
 BYTE   W12
 BYTE   En3
 BYTE   W09
 BYTE   PEND 
//  #01 //035   ----------------------------------------
Label_54E183:
 BYTE   W03
 BYTE   N56  Fs3  v024
 BYTE   W60
 BYTE   N11  En3
 BYTE   W12
 BYTE   Dn3
 BYTE   W12
 BYTE   Cs3
 BYTE   W09
 BYTE   PEND 
//  #01 //036   ----------------------------------------
 BYTE   W03
 BYTE   Bn2
 BYTE   W12
 BYTE   N80  Cs3
 BYTE   W72
 BYTE   N11  Cs4  v016
 BYTE   W09
//  #01 //037   ----------------------------------------
 BYTE   W03
 BYTE   Bn3
 BYTE   W12
 BYTE   Cs4
 BYTE   W12
 BYTE   N68  Bn3
 BYTE   W48
 BYTE   N11  Fs3  v024
 BYTE   W12
 BYTE   Gs3
 BYTE   W09
//  #01 //038   ----------------------------------------
 BYTE   PATT
  POIN2 Label_54E176
//  #01 //039   ----------------------------------------
 BYTE   PATT
  POIN2 Label_54E183
//  #01 //040   ----------------------------------------
 BYTE   W03
 BYTE   N11  Bn2  v024
 BYTE   W12
 BYTE   N80  Gs3
 BYTE   W72
 BYTE   N11  Cs4  v016
 BYTE   W09
//  #01 //041   ----------------------------------------
 BYTE   W03
 BYTE   Bn3
 BYTE   W12
 BYTE   Cs4
 BYTE   W12
 BYTE   N68  Bn3
 BYTE   W68
 BYTE   W01
//  #01 //042   ----------------------------------------
 BYTE   W03
 BYTE   N05  Gs2
 BYTE   W06
 BYTE   N05
 BYTE   W06
 BYTE   An2
 BYTE   W06
 BYTE   N05
 BYTE   W06
 BYTE   Gs2
 BYTE   W06
 BYTE   N05
 BYTE   W06
 BYTE   An2
 BYTE   W06
 BYTE   N05
 BYTE   W06
 BYTE   Gs2
 BYTE   W06
 BYTE   N05
 BYTE   W06
 BYTE   An2
 BYTE   W06
 BYTE   N05
 BYTE   W06
 BYTE   Gs2
 BYTE   W06
 BYTE   N05
 BYTE   W06
 BYTE   An2
 BYTE   W06
 BYTE   N05
 BYTE   W03
//  #01 //043   ----------------------------------------
 BYTE   W03
 BYTE   Gs2
 BYTE   W06
 BYTE   N05
 BYTE   W06
 BYTE   An2
 BYTE   W06
 BYTE   N05
 BYTE   W06
 BYTE   Gs2
 BYTE   W06
 BYTE   N05
 BYTE   W06
 BYTE   An2
 BYTE   W06
 BYTE   N05
 BYTE   W06
 BYTE   Gs2
 BYTE   W06
 BYTE   N05
 BYTE   W06
 BYTE   An2
 BYTE   W06
 BYTE   N05
 BYTE   W06
 BYTE   Cs3
 BYTE   W06
 BYTE   N05
 BYTE   W06
 BYTE   An2
 BYTE   W06
 BYTE   N05
 BYTE   W03
//  #01 //044   ----------------------------------------
 BYTE   W96
//  #01 //045   ----------------------------------------
 BYTE   W96
//  #01 //046   ----------------------------------------
 BYTE   W96
//  #01 //047   ----------------------------------------
 BYTE   W96
//  #01 //048   ----------------------------------------
 BYTE   W96
//  #01 //049   ----------------------------------------
 BYTE   W96
//  #01 //050   ----------------------------------------
 BYTE   W96
//  #01 //051   ----------------------------------------
 BYTE   W96
//  #01 //052   ----------------------------------------
 BYTE   W90
 BYTE   GoTo
  POIN2 Label_54E0BA
//  #01 //053   ----------------------------------------
 BYTE   W06
 BYTE   TEMPO   76*FE16TheLongRoadAzula_tbs/2
 BYTE   VOICE   48
 BYTE   MODT 0
 BYTE   LFOS 44
 BYTE   PAN   c_v+0
 BYTE   FINE

//**************** Track 2 (Midi-Chn.1) ****************//

FE16TheLongRoadAzula_002:
//  #02 //000   ----------------------------------------
 BYTE   KEYSH   FE16TheLongRoadAzula_key+0
Label_01034A52:
 BYTE   VOICE   4
 BYTE   MODT 0
 BYTE   LFOS 44
 BYTE   VOL   90*FE16TheLongRoadAzula_mvl/mxv
 BYTE   MODT 0
 BYTE   LFOS 44
 BYTE   W96
//  #02 //001   ----------------------------------------
 BYTE   W96
//  #02 //002   ----------------------------------------
 BYTE   W96
//  #02 //003   ----------------------------------------
 BYTE   W96
//  #02 //004   ----------------------------------------
 BYTE   W96
//  #02 //005   ----------------------------------------
 BYTE   W96
//  #02 //006   ----------------------------------------
 BYTE   W96
//  #02 //007   ----------------------------------------
 BYTE   W96
//  #02 //008   ----------------------------------------
Label_01034A66:
 BYTE   N11  Ds4  v024
 BYTE   W12
 BYTE   En4
 BYTE   W12
 BYTE   Fs4
 BYTE   W12
 BYTE   Gs4
 BYTE   W12
 BYTE   N44  Cs4
 BYTE   W48
 BYTE   PEND 
//  #02 //009   ----------------------------------------
Label_01034A74:
 BYTE   W72
 BYTE   N11  Cs4  v024
 BYTE   W12
 BYTE   En4
 BYTE   W12
 BYTE   PEND 
//  #02 //010   ----------------------------------------
 BYTE   PATT
  POIN2 Label_01034A66
//  #02 //011   ----------------------------------------
 BYTE   W72
 BYTE   N22  Fs4  v024
 BYTE   W24
//  #02 //012   ----------------------------------------
Label_01034A86:
 BYTE   N11  Gs4  v024
 BYTE   W12
 BYTE   An4
 BYTE   W12
 BYTE   Gs4
 BYTE   W12
 BYTE   Cs4
 BYTE   W12
 BYTE   N44  En4
 BYTE   W48
 BYTE   PEND 
//  #02 //013   ----------------------------------------
Label_01034A94:
 BYTE   W24
 BYTE   N22  Ds4  v024
 BYTE   W24
 BYTE   Bn4
 BYTE   W24
 BYTE   An4
 BYTE   W24
 BYTE   PEND 
//  #02 //014   ----------------------------------------
 BYTE   PATT
  POIN2 Label_01034A86
//  #02 //015   ----------------------------------------
 BYTE   W96
//  #02 //016   ----------------------------------------
 BYTE   PATT
  POIN2 Label_01034A66
//  #02 //017   ----------------------------------------
 BYTE   PATT
  POIN2 Label_01034A74
//  #02 //018   ----------------------------------------
 BYTE   PATT
  POIN2 Label_01034A66
//  #02 //019   ----------------------------------------
 BYTE   W72
 BYTE   N22  Fs4  v024
 BYTE   W24
//  #02 //020   ----------------------------------------
 BYTE   PATT
  POIN2 Label_01034A86
//  #02 //021   ----------------------------------------
 BYTE   PATT
  POIN2 Label_01034A94
//  #02 //022   ----------------------------------------
 BYTE   PATT
  POIN2 Label_01034A86
//  #02 //023   ----------------------------------------
 BYTE   W96
//  #02 //024   ----------------------------------------
 BYTE   W96
//  #02 //025   ----------------------------------------
 BYTE   W96
//  #02 //026   ----------------------------------------
 BYTE   W96
//  #02 //027   ----------------------------------------
 BYTE   W96
//  #02 //028   ----------------------------------------
 BYTE   W96
//  #02 //029   ----------------------------------------
 BYTE   W96
//  #02 //030   ----------------------------------------
 BYTE   W96
//  #02 //031   ----------------------------------------
 BYTE   W72
 BYTE   N22  Fs4  v024
 BYTE   W24
//  #02 //032   ----------------------------------------
 BYTE   N32  Gs4
 BYTE   W36
 BYTE   N11  Fs4
 BYTE   W12
 BYTE   N32  Gs4
 BYTE   W36
 BYTE   N11  An4
 BYTE   W12
//  #02 //033   ----------------------------------------
 BYTE   N90  Gs4
 BYTE   W96
//  #02 //034   ----------------------------------------
 BYTE   W96
//  #02 //035   ----------------------------------------
 BYTE   W96
//  #02 //036   ----------------------------------------
 BYTE   W96
//  #02 //037   ----------------------------------------
 BYTE   W96
//  #02 //038   ----------------------------------------
 BYTE   W96
//  #02 //039   ----------------------------------------
 BYTE   W96
//  #02 //040   ----------------------------------------
 BYTE   W96
//  #02 //041   ----------------------------------------
 BYTE   W96
//  #02 //042   ----------------------------------------
 BYTE   W96
//  #02 //043   ----------------------------------------
 BYTE   W96
//  #02 //044   ----------------------------------------
 BYTE   W96
//  #02 //045   ----------------------------------------
 BYTE   W96
//  #02 //046   ----------------------------------------
 BYTE   W96
//  #02 //047   ----------------------------------------
 BYTE   W96
//  #02 //048   ----------------------------------------
 BYTE   W96
//  #02 //049   ----------------------------------------
 BYTE   W96
//  #02 //050   ----------------------------------------
 BYTE   W96
//  #02 //051   ----------------------------------------
 BYTE   W96
//  #02 //052   ----------------------------------------
 BYTE   W90
 BYTE   GoTo
  POIN2 Label_01034A52
//  #02 //053   ----------------------------------------
 BYTE   W06
 BYTE   VOICE   4
 BYTE   MODT 0
 BYTE   LFOS 44
 BYTE   FINE

//**************** Track 3 (Midi-Chn.2) ****************//

FE16TheLongRoadAzula_003:
//  #03 //000   ----------------------------------------
 BYTE   KEYSH   FE16TheLongRoadAzula_key+0
Label_01042E0A:
 BYTE   VOICE   68
 BYTE   MODT 0
 BYTE   LFOS 44
 BYTE   VOL   112*FE16TheLongRoadAzula_mvl/mxv
 BYTE   MODT 0
 BYTE   LFOS 44
 BYTE   PAN   c_v+10
 BYTE   N02  Ds3  v024
 BYTE   W06
 BYTE   N02
 BYTE   W06
 BYTE   Fs3
 BYTE   W06
 BYTE   En3
 BYTE   W06
 BYTE   Ds3
 BYTE   W06
 BYTE   N02
 BYTE   W06
 BYTE   Fs3
 BYTE   W06
 BYTE   En3
 BYTE   W06
 BYTE   Ds3
 BYTE   W06
 BYTE   N02
 BYTE   W06
 BYTE   Fs3
 BYTE   W06
 BYTE   En3
 BYTE   W06
 BYTE   Ds3
 BYTE   W06
 BYTE   N02
 BYTE   W06
 BYTE   Fs3
 BYTE   W06
 BYTE   En3
 BYTE   W06
//  #03 //001   ----------------------------------------
Label_01042E3A:
 BYTE   N02  Ds3  v024
 BYTE   W06
 BYTE   N02
 BYTE   W06
 BYTE   Fs3
 BYTE   W06
 BYTE   En3
 BYTE   W06
 BYTE   Ds3
 BYTE   W06
 BYTE   N02
 BYTE   W06
 BYTE   Fs3
 BYTE   W06
 BYTE   En3
 BYTE   W06
 BYTE   Ds3
 BYTE   W06
 BYTE   N02
 BYTE   W06
 BYTE   Fs3
 BYTE   W06
 BYTE   En3
 BYTE   W06
 BYTE   Ds3
 BYTE   W06
 BYTE   N02
 BYTE   W06
 BYTE   Fs3
 BYTE   W06
 BYTE   En3
 BYTE   W06
 BYTE   PEND 
//  #03 //002   ----------------------------------------
 BYTE   PATT
  POIN2 Label_01042E3A
//  #03 //003   ----------------------------------------
 BYTE   PATT
  POIN2 Label_01042E3A
//  #03 //004   ----------------------------------------
 BYTE   PATT
  POIN2 Label_01042E3A
//  #03 //005   ----------------------------------------
 BYTE   PATT
  POIN2 Label_01042E3A
//  #03 //006   ----------------------------------------
 BYTE   PATT
  POIN2 Label_01042E3A
//  #03 //007   ----------------------------------------
 BYTE   PATT
  POIN2 Label_01042E3A
//  #03 //008   ----------------------------------------
 BYTE   PATT
  POIN2 Label_01042E3A
//  #03 //009   ----------------------------------------
 BYTE   PATT
  POIN2 Label_01042E3A
//  #03 //010   ----------------------------------------
 BYTE   PATT
  POIN2 Label_01042E3A
//  #03 //011   ----------------------------------------
 BYTE   PATT
  POIN2 Label_01042E3A
//  #03 //012   ----------------------------------------
 BYTE   PATT
  POIN2 Label_01042E3A
//  #03 //013   ----------------------------------------
 BYTE   PATT
  POIN2 Label_01042E3A
//  #03 //014   ----------------------------------------
 BYTE   PATT
  POIN2 Label_01042E3A
//  #03 //015   ----------------------------------------
 BYTE   PATT
  POIN2 Label_01042E3A
//  #03 //016   ----------------------------------------
 BYTE   PATT
  POIN2 Label_01042E3A
//  #03 //017   ----------------------------------------
 BYTE   PATT
  POIN2 Label_01042E3A
//  #03 //018   ----------------------------------------
 BYTE   PATT
  POIN2 Label_01042E3A
//  #03 //019   ----------------------------------------
 BYTE   PATT
  POIN2 Label_01042E3A
//  #03 //020   ----------------------------------------
 BYTE   PATT
  POIN2 Label_01042E3A
//  #03 //021   ----------------------------------------
 BYTE   PATT
  POIN2 Label_01042E3A
//  #03 //022   ----------------------------------------
 BYTE   PATT
  POIN2 Label_01042E3A
//  #03 //023   ----------------------------------------
 BYTE   PATT
  POIN2 Label_01042E3A
//  #03 //024   ----------------------------------------
 BYTE   N32  Ds3  v036
 BYTE   N32  Ds4  v024
 BYTE   W36
 BYTE   N11  Cs3  v036
 BYTE   N11  Cs4  v024
 BYTE   W12
 BYTE   Ds3  v036
 BYTE   N11  Ds4  v024
 BYTE   W12
 BYTE   En3  v036
 BYTE   N11  En4  v024
 BYTE   W12
 BYTE   Fs3  v036
 BYTE   N11  Fs4  v024
 BYTE   W12
 BYTE   Gs3  v036
 BYTE   N11  Gs4  v024
 BYTE   W12
//  #03 //025   ----------------------------------------
 BYTE   N44  Ds3  v036
 BYTE   N44  Ds4  v024
 BYTE   W48
 BYTE   N11  Cs3  v036
 BYTE   N11  Cs4  v024
 BYTE   W24
 BYTE   As2  v036
 BYTE   N11  As3  v024
 BYTE   W12
 BYTE   Bn2  v036
 BYTE   N11  Bn3  v024
 BYTE   W12
//  #03 //026   ----------------------------------------
 BYTE   N22  Cs3  v036
 BYTE   N22  Cs4  v024
 BYTE   W24
 BYTE   Fs3  v036
 BYTE   N22  Fs4  v024
 BYTE   W24
 BYTE   Bn3  v036
 BYTE   N22  Bn4  v024
 BYTE   W24
 BYTE   An3  v036
 BYTE   N22  An4  v024
 BYTE   W24
//  #03 //027   ----------------------------------------
 BYTE   N11  An3  v036
 BYTE   N11  An4  v024
 BYTE   W12
 BYTE   Gs3  v036
 BYTE   N11  Gs4  v024
 BYTE   W12
 BYTE   N32  Cs3  v036
 BYTE   N32  Cs4  v024
 BYTE   W48
 BYTE   N11  En3  v036
 BYTE   N11  En4  v024
 BYTE   W12
 BYTE   Cs4  v036
 BYTE   N11  Cs5  v024
 BYTE   W12
//  #03 //028   ----------------------------------------
 BYTE   Ds4  v036
 BYTE   N11  Ds5  v024
 BYTE   W12
 BYTE   Cs4  v036
 BYTE   N11  Cs5  v024
 BYTE   W12
 BYTE   N32  Gs3  v036
 BYTE   N32  Gs4  v024
 BYTE   W48
 BYTE   N11  En3  v036
 BYTE   N11  En4  v024
 BYTE   W12
 BYTE   Bn3  v036
 BYTE   N11  Bn4  v024
 BYTE   W12
//  #03 //029   ----------------------------------------
 BYTE   Cs4  v036
 BYTE   N11  Cs5  v024
 BYTE   W12
 BYTE   Bn3  v036
 BYTE   N11  Bn4  v024
 BYTE   W12
 BYTE   N44  En3  v036
 BYTE   N44  En4  v024
 BYTE   W48
 BYTE   N22  Fs3  v036
 BYTE   N22  Fs4  v024
 BYTE   W24
//  #03 //030   ----------------------------------------
 BYTE   N32  Gs3  v036
 BYTE   N32  Gs4  v024
 BYTE   W36
 BYTE   N11  Fs3  v036
 BYTE   N11  Fs4  v024
 BYTE   W12
 BYTE   N32  Gs3  v036
 BYTE   N32  Gs4  v024
 BYTE   W36
 BYTE   N11  An3  v036
 BYTE   N11  An4  v024
 BYTE   W12
//  #03 //031   ----------------------------------------
 BYTE   N68  Gs3  v036
 BYTE   N68  Gs4  v024
 BYTE   W96
//  #03 //032   ----------------------------------------
 BYTE   W96
//  #03 //033   ----------------------------------------
 BYTE   W96
//  #03 //034   ----------------------------------------
Label_01042FA4:
 BYTE   N05  Bn3  v016
 BYTE   W06
 BYTE   N05
 BYTE   W06
 BYTE   Cs4
 BYTE   W06
 BYTE   N05
 BYTE   W06
 BYTE   Bn3
 BYTE   W06
 BYTE   N05
 BYTE   W06
 BYTE   Cs4
 BYTE   W06
 BYTE   N05
 BYTE   W06
 BYTE   Bn3
 BYTE   W06
 BYTE   N05
 BYTE   W06
 BYTE   Cs4
 BYTE   W06
 BYTE   N05
 BYTE   W06
 BYTE   Bn3
 BYTE   W06
 BYTE   N05
 BYTE   W06
 BYTE   Cs4
 BYTE   W06
 BYTE   N05
 BYTE   W06
 BYTE   PEND 
//  #03 //035   ----------------------------------------
 BYTE   PATT
  POIN2 Label_01042FA4
//  #03 //036   ----------------------------------------
 BYTE   PATT
  POIN2 Label_01042FA4
//  #03 //037   ----------------------------------------
Label_01042FD1:
 BYTE   N05  Bn3  v016
 BYTE   W06
 BYTE   N05
 BYTE   W06
 BYTE   Cs4
 BYTE   W06
 BYTE   N05
 BYTE   W06
 BYTE   Bn3
 BYTE   W06
 BYTE   N05
 BYTE   W06
 BYTE   Cs4
 BYTE   W06
 BYTE   N05
 BYTE   W06
 BYTE   Bn3
 BYTE   W06
 BYTE   N05
 BYTE   W06
 BYTE   Cs4
 BYTE   W06
 BYTE   N05
 BYTE   W06
 BYTE   En4
 BYTE   W06
 BYTE   N05
 BYTE   W06
 BYTE   Cs4
 BYTE   W06
 BYTE   N05
 BYTE   W06
 BYTE   PEND 
//  #03 //038   ----------------------------------------
 BYTE   PATT
  POIN2 Label_01042FA4
//  #03 //039   ----------------------------------------
 BYTE   PATT
  POIN2 Label_01042FA4
//  #03 //040   ----------------------------------------
 BYTE   PATT
  POIN2 Label_01042FA4
//  #03 //041   ----------------------------------------
 BYTE   PATT
  POIN2 Label_01042FD1
//  #03 //042   ----------------------------------------
 BYTE   N05  Bn3  v016
 BYTE   N05  Bn4
 BYTE   W06
 BYTE   Bn3
 BYTE   N05  Bn4
 BYTE   W06
 BYTE   Cs4
 BYTE   N05  Cs5
 BYTE   W06
 BYTE   Cs4
 BYTE   N05  Cs5
 BYTE   W06
 BYTE   Bn3
 BYTE   N05  Bn4
 BYTE   W06
 BYTE   Bn3
 BYTE   N05  Bn4
 BYTE   W06
 BYTE   Cs4
 BYTE   N05  Cs5
 BYTE   W06
 BYTE   Cs4
 BYTE   N05  Cs5
 BYTE   W06
 BYTE   Bn3
 BYTE   N05  Bn4
 BYTE   W06
 BYTE   Bn3
 BYTE   N05  Bn4
 BYTE   W06
 BYTE   Cs4
 BYTE   N05  Cs5
 BYTE   W06
 BYTE   Cs4
 BYTE   N05  Cs5
 BYTE   W06
 BYTE   Bn3
 BYTE   N05  Bn4
 BYTE   W06
 BYTE   Bn3
 BYTE   N05  Bn4
 BYTE   W06
 BYTE   Cs4
 BYTE   N05  Cs5
 BYTE   W06
 BYTE   Cs4
 BYTE   N05  Cs5
 BYTE   W06
//  #03 //043   ----------------------------------------
 BYTE   Bn3
 BYTE   N05  Bn4
 BYTE   W06
 BYTE   Bn3
 BYTE   N05  Bn4
 BYTE   W06
 BYTE   Cs4
 BYTE   N05  Cs5
 BYTE   W06
 BYTE   Cs4
 BYTE   N05  Cs5
 BYTE   W06
 BYTE   Bn3
 BYTE   N05  Bn4
 BYTE   W06
 BYTE   Bn3
 BYTE   N05  Bn4
 BYTE   W06
 BYTE   Cs4
 BYTE   N05  Cs5
 BYTE   W06
 BYTE   Cs4
 BYTE   N05  Cs5
 BYTE   W06
 BYTE   Bn3
 BYTE   N05  Bn4
 BYTE   W06
 BYTE   Bn3
 BYTE   N05  Bn4
 BYTE   W06
 BYTE   Cs4
 BYTE   N05  Cs5
 BYTE   W06
 BYTE   Cs4
 BYTE   N05  Cs5
 BYTE   W06
 BYTE   En4
 BYTE   N05  En5
 BYTE   W06
 BYTE   En4
 BYTE   N05  En5
 BYTE   W06
 BYTE   Cs4
 BYTE   N05  Cs5
 BYTE   W06
 BYTE   Cs4
 BYTE   N05  Cs5
 BYTE   W06
//  #03 //044   ----------------------------------------
 BYTE   N22  Gs3  v004
 BYTE   W24
 BYTE   Fs3
 BYTE   W24
 BYTE   Cs4
 BYTE   W24
 BYTE   Bn3
 BYTE   W24
//  #03 //045   ----------------------------------------
 BYTE   N68  En3
 BYTE   W72
 BYTE   N22  An3
 BYTE   W24
//  #03 //046   ----------------------------------------
 BYTE   N22
 BYTE   W24
 BYTE   Cn3
 BYTE   W24
 BYTE   Ds3
 BYTE   W24
 BYTE   N11  Gs3
 BYTE   W12
 BYTE   Fs3
 BYTE   W12
//  #03 //047   ----------------------------------------
 BYTE   N22
 BYTE   W24
 BYTE   Fn3
 BYTE   W24
 BYTE   Fs3
 BYTE   W24
 BYTE   Gs3
 BYTE   W24
//  #03 //048   ----------------------------------------
 BYTE   Fs3
 BYTE   W24
 BYTE   Cs3
 BYTE   W24
 BYTE   Fs3
 BYTE   W24
 BYTE   Cs4
 BYTE   W24
//  #03 //049   ----------------------------------------
 BYTE   N22
 BYTE   W24
 BYTE   Bn3
 BYTE   W24
 BYTE   N44  Dn3
 BYTE   W48
//  #03 //050   ----------------------------------------
 BYTE   N44
 BYTE   W48
 BYTE   Bn3
 BYTE   W48
//  #03 //051   ----------------------------------------
 BYTE   TIE  Gs3
 BYTE   W96
//  #03 //052   ----------------------------------------
 BYTE   W40
 BYTE   EOT
 BYTE   W48
 BYTE   W02
 BYTE   GoTo
  POIN2 Label_01042E0A
//  #03 //053   ----------------------------------------
 BYTE   W06
 BYTE   VOICE   68
 BYTE   MODT 0
 BYTE   LFOS 44
 BYTE   PAN   c_v+10
 BYTE   FINE

//**************** Track 4 (Midi-Chn.3) ****************//

FE16TheLongRoadAzula_004:
//  #04 //000   ----------------------------------------
 BYTE   KEYSH   FE16TheLongRoadAzula_key+0
Label_010434B2:
 BYTE   VOICE   48
 BYTE   MODT 0
 BYTE   LFOS 44
 BYTE   VOL   73*FE16TheLongRoadAzula_mvl/mxv
 BYTE   MODT 0
 BYTE   LFOS 44
 BYTE   N90  En3  v036
 BYTE   N90  Gs3
 BYTE   W96
//  #04 //001   ----------------------------------------
 BYTE   Ds3
 BYTE   N90  Bn3
 BYTE   W96
//  #04 //002   ----------------------------------------
 BYTE   En3
 BYTE   N90  An3
 BYTE   W96
//  #04 //003   ----------------------------------------
 BYTE   Ds3
 BYTE   N90  Fs3
 BYTE   W96
//  #04 //004   ----------------------------------------
 BYTE   En3
 BYTE   N90  Gs3
 BYTE   W96
//  #04 //005   ----------------------------------------
 BYTE   Ds3
 BYTE   N90  Bn3
 BYTE   W96
//  #04 //006   ----------------------------------------
 BYTE   En3
 BYTE   N90  An3
 BYTE   W96
//  #04 //007   ----------------------------------------
 BYTE   Ds3
 BYTE   N90  Fs3
 BYTE   W96
//  #04 //008   ----------------------------------------
 BYTE   En3
 BYTE   N90  Gs3
 BYTE   W96
//  #04 //009   ----------------------------------------
 BYTE   Ds3
 BYTE   N90  Bn3
 BYTE   W96
//  #04 //010   ----------------------------------------
 BYTE   En3
 BYTE   N90  An3
 BYTE   W96
//  #04 //011   ----------------------------------------
 BYTE   Ds3
 BYTE   N90  Fs3
 BYTE   W96
//  #04 //012   ----------------------------------------
 BYTE   En3
 BYTE   N90  Gs3
 BYTE   W96
//  #04 //013   ----------------------------------------
 BYTE   Ds3
 BYTE   N90  Bn3
 BYTE   W96
//  #04 //014   ----------------------------------------
 BYTE   W72
 BYTE   N11  Cs3
 BYTE   W12
 BYTE   En3
 BYTE   W12
//  #04 //015   ----------------------------------------
 BYTE   Ds3
 BYTE   W12
 BYTE   En3
 BYTE   W12
 BYTE   Fs3
 BYTE   W12
 BYTE   Gs3
 BYTE   W12
 BYTE   N48  Cs3
 BYTE   W48
//  #04 //016   ----------------------------------------
 BYTE   W96
//  #04 //017   ----------------------------------------
 BYTE   PAN   c_v+0
 BYTE   W24
 BYTE   N24  En3  v048
 BYTE   W24
 BYTE   Bn3
 BYTE   W24
 BYTE   An3
 BYTE   W24
//  #04 //018   ----------------------------------------
 BYTE   N12  Gs3
 BYTE   W12
 BYTE   An3
 BYTE   W12
 BYTE   Gs3
 BYTE   W12
 BYTE   Cs3
 BYTE   W12
 BYTE   N48  En3
 BYTE   W48
//  #04 //019   ----------------------------------------
 BYTE   N72  Fs3  v024
 BYTE   W72
 BYTE   N23  Fs3  v036
 BYTE   W24
//  #04 //020   ----------------------------------------
 BYTE   N11  Gs3  v024
 BYTE   W12
 BYTE   An3  v036
 BYTE   W12
 BYTE   Gs3
 BYTE   W12
 BYTE   Cs3
 BYTE   W12
 BYTE   N68  En3
 BYTE   W48
//  #04 //021   ----------------------------------------
 BYTE   N48  Bn3  v024
 BYTE   W24
 BYTE   N23  Ds3  v036
 BYTE   W24
 BYTE   Bn3
 BYTE   W24
 BYTE   An3
 BYTE   W24
//  #04 //022   ----------------------------------------
 BYTE   N11  Gs3
 BYTE   N12  An3  v024
 BYTE   W12
 BYTE   N11  An3  v036
 BYTE   W12
 BYTE   Gs3
 BYTE   W12
 BYTE   Cs3
 BYTE   W12
 BYTE   TIE  En3
 BYTE   W48
//  #04 //023   ----------------------------------------
 BYTE   N92  Fs3  v024
 BYTE   W68
 BYTE   W03
 BYTE   EOT
 BYTE   En3
 BYTE   W24
 BYTE   W01
//  #04 //024   ----------------------------------------
 BYTE   N44  Bn2  v016
 BYTE   N44  Ds3  v024
 BYTE   W48
 BYTE   Bn2  v016
 BYTE   N44  En3  v024
 BYTE   W48
//  #04 //025   ----------------------------------------
 BYTE   As2  v016
 BYTE   N44  Ds3  v024
 BYTE   W48
 BYTE   As2  v016
 BYTE   N44  Cs3  v024
 BYTE   W48
//  #04 //026   ----------------------------------------
 BYTE   An2  v016
 BYTE   N44  Cs3  v024
 BYTE   W48
 BYTE   An2  v016
 BYTE   N44  En3  v024
 BYTE   W48
//  #04 //027   ----------------------------------------
 BYTE   N92  Gs2  v016
 BYTE   N44  Cs3  v024
 BYTE   W48
 BYTE   Gs3
 BYTE   W48
//  #04 //028   ----------------------------------------
 BYTE   N92  Gs2  v016
 BYTE   N23  Gs3  v024
 BYTE   W24
 BYTE   An3
 BYTE   W24
 BYTE   Bn3
 BYTE   W24
 BYTE   Cs4
 BYTE   W24
//  #04 //029   ----------------------------------------
 BYTE   N92  An2  v016
 BYTE   N44  Fs3  v024
 BYTE   W48
 BYTE   En3
 BYTE   W48
//  #04 //030   ----------------------------------------
 BYTE   N92  An2  v016
 BYTE   N92  Ds3  v024
 BYTE   W96
//  #04 //031   ----------------------------------------
 BYTE   N44  Gs2  v016
 BYTE   N44  Cn3  v024
 BYTE   W48
 BYTE   An2  v016
 BYTE   N44  Cs3  v024
 BYTE   W48
//  #04 //032   ----------------------------------------
 BYTE   Ds3  v036
 BYTE   W48
 BYTE   En3
 BYTE   W48
//  #04 //033   ----------------------------------------
 BYTE   Fs3
 BYTE   W48
 BYTE   Ds3
 BYTE   W24
 BYTE   N11  Fs4  v060
 BYTE   W12
 BYTE   Gs4  v036
 BYTE   W12
//  #04 //034   ----------------------------------------
Label_010435C5:
 BYTE   N05  Bn2  v024
 BYTE   N56  An4  v036
 BYTE   W06
 BYTE   N05  Bn2  v024
 BYTE   W06
 BYTE   Cs3
 BYTE   W06
 BYTE   N05
 BYTE   W06
 BYTE   Bn2
 BYTE   W06
 BYTE   N05
 BYTE   W06
 BYTE   Cs3
 BYTE   W06
 BYTE   N05
 BYTE   W06
 BYTE   Bn2
 BYTE   W06
 BYTE   N05
 BYTE   W06
 BYTE   Cs3
 BYTE   N11  Gs4  v036
 BYTE   W06
 BYTE   N05  Cs3  v024
 BYTE   W06
 BYTE   Bn2
 BYTE   N11  Fs4  v036
 BYTE   W06
 BYTE   N05  Bn2  v024
 BYTE   W06
 BYTE   Cs3
 BYTE   N11  En4  v036
 BYTE   W06
 BYTE   N05  Cs3  v024
 BYTE   W06
 BYTE   PEND 
//  #04 //035   ----------------------------------------
Label_010435FC:
 BYTE   N05  Bn2  v024
 BYTE   N56  Fs4  v036
 BYTE   W06
 BYTE   N05  Bn2  v024
 BYTE   W06
 BYTE   Cs3
 BYTE   W06
 BYTE   N05
 BYTE   W06
 BYTE   Bn2
 BYTE   W06
 BYTE   N05
 BYTE   W06
 BYTE   Cs3
 BYTE   W06
 BYTE   N05
 BYTE   W06
 BYTE   Bn2
 BYTE   W06
 BYTE   N05
 BYTE   W06
 BYTE   Cs3
 BYTE   N11  En4  v036
 BYTE   W06
 BYTE   N05  Cs3  v024
 BYTE   W06
 BYTE   Bn2
 BYTE   N11  Dn4  v036
 BYTE   W06
 BYTE   N05  Bn2  v024
 BYTE   W06
 BYTE   Cs3
 BYTE   N11  Cs4  v036
 BYTE   W06
 BYTE   N05  Cs3  v024
 BYTE   W06
 BYTE   PEND 
//  #04 //036   ----------------------------------------
 BYTE   Bn2
 BYTE   N11  Bn3  v036
 BYTE   W06
 BYTE   N05  Bn2  v024
 BYTE   W06
 BYTE   Cs3
 BYTE   N80  Cs4  v036
 BYTE   W06
 BYTE   N05  Cs3  v024
 BYTE   W06
 BYTE   Bn2
 BYTE   W06
 BYTE   N05
 BYTE   W06
 BYTE   Cs3
 BYTE   W06
 BYTE   N05
 BYTE   W06
 BYTE   Bn2
 BYTE   W06
 BYTE   N05
 BYTE   W06
 BYTE   Cs3
 BYTE   W06
 BYTE   N05
 BYTE   W06
 BYTE   Bn2
 BYTE   W06
 BYTE   N05
 BYTE   W06
 BYTE   Cs3
 BYTE   W06
 BYTE   N05
 BYTE   W06
//  #04 //037   ----------------------------------------
 BYTE   Bn2
 BYTE   W06
 BYTE   N05
 BYTE   W06
 BYTE   Cs3
 BYTE   W06
 BYTE   N05
 BYTE   W06
 BYTE   Bn2
 BYTE   W06
 BYTE   N05
 BYTE   W06
 BYTE   Cs3
 BYTE   W06
 BYTE   N05
 BYTE   W06
 BYTE   Bn2
 BYTE   W06
 BYTE   N05
 BYTE   W06
 BYTE   Cs3
 BYTE   W06
 BYTE   N05
 BYTE   W06
 BYTE   En3
 BYTE   N11  Fs4  v036
 BYTE   W06
 BYTE   N05  En3  v024
 BYTE   W06
 BYTE   Cs3
 BYTE   N11  Gs4  v036
 BYTE   W06
 BYTE   N05  Cs3  v024
 BYTE   W06
//  #04 //038   ----------------------------------------
 BYTE   PATT
  POIN2 Label_010435C5
//  #04 //039   ----------------------------------------
 BYTE   PATT
  POIN2 Label_010435FC
//  #04 //040   ----------------------------------------
 BYTE   N05  Bn2  v024
 BYTE   N11  Bn3  v036
 BYTE   W06
 BYTE   N05  Bn2  v024
 BYTE   W06
 BYTE   Cs3
 BYTE   N80  Gs4  v036
 BYTE   W06
 BYTE   N05  Cs3  v024
 BYTE   W06
 BYTE   Bn2
 BYTE   W06
 BYTE   N05
 BYTE   W06
 BYTE   Cs3
 BYTE   W06
 BYTE   N05
 BYTE   W06
 BYTE   Bn2
 BYTE   W06
 BYTE   N05
 BYTE   W06
 BYTE   Cs3
 BYTE   W06
 BYTE   N05
 BYTE   W06
 BYTE   Bn2
 BYTE   W06
 BYTE   N05
 BYTE   W06
 BYTE   Cs3
 BYTE   W06
 BYTE   N05
 BYTE   W06
//  #04 //041   ----------------------------------------
 BYTE   Bn2
 BYTE   W06
 BYTE   N05
 BYTE   W06
 BYTE   Cs3
 BYTE   W06
 BYTE   N05
 BYTE   W06
 BYTE   Bn2
 BYTE   W06
 BYTE   N05
 BYTE   W06
 BYTE   Cs3
 BYTE   W06
 BYTE   N05
 BYTE   W06
 BYTE   Bn2
 BYTE   W06
 BYTE   N05
 BYTE   W06
 BYTE   Cs3
 BYTE   W06
 BYTE   N05
 BYTE   W06
 BYTE   En3
 BYTE   W06
 BYTE   N05
 BYTE   W06
 BYTE   Cs3
 BYTE   W06
 BYTE   N05
 BYTE   W06
//  #04 //042   ----------------------------------------
 BYTE   Bn2
 BYTE   N05  Bn3
 BYTE   W06
 BYTE   Bn2
 BYTE   N05  Bn3
 BYTE   W06
 BYTE   Cs3
 BYTE   N05  Cs4
 BYTE   W06
 BYTE   Cs3
 BYTE   N05  Cs4
 BYTE   W06
 BYTE   Bn2
 BYTE   N05  Bn3
 BYTE   W06
 BYTE   Bn2
 BYTE   N05  Bn3
 BYTE   W06
 BYTE   Cs3
 BYTE   N05  Cs4
 BYTE   W06
 BYTE   Cs3
 BYTE   N05  Cs4
 BYTE   W06
 BYTE   Bn2
 BYTE   N05  Bn3
 BYTE   W06
 BYTE   Bn2
 BYTE   N05  Bn3
 BYTE   W06
 BYTE   Cs3
 BYTE   N05  Cs4
 BYTE   W06
 BYTE   Cs3
 BYTE   N05  Cs4
 BYTE   W06
 BYTE   Bn2
 BYTE   N05  Bn3
 BYTE   W06
 BYTE   Bn2
 BYTE   N05  Bn3
 BYTE   W06
 BYTE   Cs3
 BYTE   N05  Cs4
 BYTE   W06
 BYTE   Cs3
 BYTE   N05  Cs4
 BYTE   W06
//  #04 //043   ----------------------------------------
 BYTE   Bn2
 BYTE   N05  Bn3
 BYTE   W06
 BYTE   Bn2
 BYTE   N05  Bn3
 BYTE   W06
 BYTE   Cs3
 BYTE   N05  Cs4
 BYTE   W06
 BYTE   Cs3
 BYTE   N05  Cs4
 BYTE   W06
 BYTE   Bn2
 BYTE   N05  Bn3
 BYTE   W06
 BYTE   Bn2
 BYTE   N05  Bn3
 BYTE   W06
 BYTE   Cs3
 BYTE   N05  Cs4
 BYTE   W06
 BYTE   Cs3
 BYTE   N05  Cs4
 BYTE   W06
 BYTE   Bn2
 BYTE   N05  Bn3
 BYTE   W06
 BYTE   Bn2
 BYTE   N05  Bn3
 BYTE   W06
 BYTE   Cs3
 BYTE   N05  Cs4
 BYTE   W06
 BYTE   Cs3
 BYTE   N05  Cs4
 BYTE   W06
 BYTE   En3
 BYTE   N05  En4
 BYTE   W06
 BYTE   En3
 BYTE   N05  En4
 BYTE   W06
 BYTE   Cs3
 BYTE   N05  Cs4
 BYTE   W06
 BYTE   Cs3
 BYTE   N05  Cs4
 BYTE   W06
//  #04 //044   ----------------------------------------
 BYTE   N92  Dn2
 BYTE   N23  Gs3  v016
 BYTE   W24
 BYTE   Fs3
 BYTE   W24
 BYTE   Cs4
 BYTE   W24
 BYTE   Bn3
 BYTE   W24
//  #04 //045   ----------------------------------------
 BYTE   N92  Cs2  v024
 BYTE   N23  Gs3  v016
 BYTE   W24
 BYTE   N44  Bn3
 BYTE   W48
 BYTE   N23  An3
 BYTE   W24
//  #04 //046   ----------------------------------------
 BYTE   N92  Cn2  v024
 BYTE   N23  An3  v016
 BYTE   W24
 BYTE   N44  Ds3
 BYTE   W48
 BYTE   N11  Gs3
 BYTE   W12
 BYTE   Fs3
 BYTE   W12
//  #04 //047   ----------------------------------------
 BYTE   N44  Cs2  v024
 BYTE   N23  Fs3  v016
 BYTE   W24
 BYTE   Fn3
 BYTE   W24
 BYTE   Bn1  v024
 BYTE   N23  Fs3  v016
 BYTE   W24
 BYTE   Cs2  v024
 BYTE   N23  Fn3  v016
 BYTE   N23  Gs3
 BYTE   W24
//  #04 //048   ----------------------------------------
 BYTE   N92  An1  v024
 BYTE   N23  Fs3  v016
 BYTE   W24
 BYTE   Cs3
 BYTE   W24
 BYTE   Fs3
 BYTE   W24
 BYTE   Cs4
 BYTE   W24
//  #04 //049   ----------------------------------------
 BYTE   N68  Gs1  v024
 BYTE   N23  Cs4  v016
 BYTE   W24
 BYTE   Bn3
 BYTE   W24
 BYTE   N44  Dn3
 BYTE   W24
 BYTE   N23  Fs1  v024
 BYTE   W24
//  #04 //050   ----------------------------------------
 BYTE   N92  Fn1
 BYTE   N44  Dn3  v016
 BYTE   W48
 BYTE   Bn3
 BYTE   W48
//  #04 //051   ----------------------------------------
 BYTE   TIE  Gs1  v024
 BYTE   TIE  Gs3  v016
 BYTE   W96
//  #04 //052   ----------------------------------------
 BYTE   W44
 BYTE   W03
 BYTE   EOT
 BYTE   W42
 BYTE   W01
 BYTE   GoTo
  POIN2 Label_010434B2
//  #04 //053   ----------------------------------------
 BYTE   W05
 BYTE   EOT
 BYTE   Gs1
 BYTE   W01
 BYTE   VOICE   48
 BYTE   MODT 0
 BYTE   LFOS 44
 BYTE   FINE

//**************** Track 5 (Midi-Chn.4) ****************//

FE16TheLongRoadAzula_005:
//  #05 //000   ----------------------------------------
 BYTE   KEYSH   FE16TheLongRoadAzula_key+0
Label_54D75A:
 BYTE   VOICE   40
 BYTE   MODT 0
 BYTE   LFOS 44
 BYTE   VOL   109*FE16TheLongRoadAzula_mvl/mxv
 BYTE   MODT 0
 BYTE   LFOS 44
 BYTE   PAN   c_v+0
 BYTE   W96
//  #05 //001   ----------------------------------------
 BYTE   W96
//  #05 //002   ----------------------------------------
 BYTE   W96
//  #05 //003   ----------------------------------------
 BYTE   W96
//  #05 //004   ----------------------------------------
 BYTE   W96
//  #05 //005   ----------------------------------------
 BYTE   W96
//  #05 //006   ----------------------------------------
 BYTE   W96
//  #05 //007   ----------------------------------------
 BYTE   W96
//  #05 //008   ----------------------------------------
 BYTE   W96
//  #05 //009   ----------------------------------------
 BYTE   W96
//  #05 //010   ----------------------------------------
 BYTE   W96
//  #05 //011   ----------------------------------------
 BYTE   W96
//  #05 //012   ----------------------------------------
 BYTE   W96
//  #05 //013   ----------------------------------------
 BYTE   W96
//  #05 //014   ----------------------------------------
 BYTE   W96
//  #05 //015   ----------------------------------------
 BYTE   W96
//  #05 //016   ----------------------------------------
Label_54D778:
 BYTE   N11  Ds2  v036
 BYTE   W12
 BYTE   En2
 BYTE   W12
 BYTE   Fs2
 BYTE   W12
 BYTE   Gs2
 BYTE   W12
 BYTE   N92  Cs2
 BYTE   W48
 BYTE   PEND 
//  #05 //017   ----------------------------------------
 BYTE   W72
 BYTE   N11
 BYTE   W12
 BYTE   En2
 BYTE   W12
//  #05 //018   ----------------------------------------
 BYTE   PATT
  POIN2 Label_54D778
//  #05 //019   ----------------------------------------
 BYTE   W72
 BYTE   N23  Fs2  v036
 BYTE   W24
//  #05 //020   ----------------------------------------
 BYTE   N11  Gs2
 BYTE   W12
 BYTE   An2
 BYTE   W12
 BYTE   Gs2
 BYTE   W12
 BYTE   Cs2
 BYTE   W12
 BYTE   N68  En2
 BYTE   W48
//  #05 //021   ----------------------------------------
 BYTE   W24
 BYTE   N23  Ds2
 BYTE   W24
 BYTE   Bn2
 BYTE   W24
 BYTE   An2
 BYTE   W24
//  #05 //022   ----------------------------------------
 BYTE   N11  Gs2
 BYTE   W12
 BYTE   An2
 BYTE   W12
 BYTE   Gs2
 BYTE   W12
 BYTE   Cs2
 BYTE   W12
 BYTE   TIE  En2
 BYTE   W48
//  #05 //023   ----------------------------------------
 BYTE   W68
 BYTE   W03
 BYTE   EOT
 BYTE   W24
 BYTE   W01
//  #05 //024   ----------------------------------------
 BYTE   W96
//  #05 //025   ----------------------------------------
 BYTE   W96
//  #05 //026   ----------------------------------------
 BYTE   W96
//  #05 //027   ----------------------------------------
 BYTE   W96
//  #05 //028   ----------------------------------------
 BYTE   W96
//  #05 //029   ----------------------------------------
 BYTE   W96
//  #05 //030   ----------------------------------------
 BYTE   W96
//  #05 //031   ----------------------------------------
 BYTE   W96
//  #05 //032   ----------------------------------------
 BYTE   W96
//  #05 //033   ----------------------------------------
Label_54D7C3:
 BYTE   W72
 BYTE   N11  Fs3  v036
 BYTE   W12
 BYTE   Gs3
 BYTE   W12
 BYTE   PEND 
//  #05 //034   ----------------------------------------
Label_54D7CB:
 BYTE   N56  An3  v036
 BYTE   W60
 BYTE   N11  Gs3
 BYTE   W12
 BYTE   Fs3
 BYTE   W12
 BYTE   En3
 BYTE   W12
 BYTE   PEND 
//  #05 //035   ----------------------------------------
Label_54D7D7:
 BYTE   N56  Fs3  v036
 BYTE   W60
 BYTE   N11  En3
 BYTE   W12
 BYTE   Dn3
 BYTE   W12
 BYTE   Cs3
 BYTE   W12
 BYTE   PEND 
//  #05 //036   ----------------------------------------
 BYTE   Bn2
 BYTE   W12
 BYTE   N80  Cs3
 BYTE   W84
//  #05 //037   ----------------------------------------
 BYTE   PATT
  POIN2 Label_54D7C3
//  #05 //038   ----------------------------------------
 BYTE   PATT
  POIN2 Label_54D7CB
//  #05 //039   ----------------------------------------
 BYTE   PATT
  POIN2 Label_54D7D7
//  #05 //040   ----------------------------------------
 BYTE   N11  Bn2  v036
 BYTE   W12
 BYTE   N12  Gs3
 BYTE   W12
 BYTE   N72
 BYTE   W72
//  #05 //041   ----------------------------------------
 BYTE   W96
//  #05 //042   ----------------------------------------
 BYTE   W96
//  #05 //043   ----------------------------------------
 BYTE   W96
//  #05 //044   ----------------------------------------
 BYTE   W96
//  #05 //045   ----------------------------------------
 BYTE   W96
//  #05 //046   ----------------------------------------
 BYTE   W96
//  #05 //047   ----------------------------------------
 BYTE   W96
//  #05 //048   ----------------------------------------
 BYTE   W96
//  #05 //049   ----------------------------------------
 BYTE   W96
//  #05 //050   ----------------------------------------
 BYTE   W96
//  #05 //051   ----------------------------------------
 BYTE   W54
 BYTE   N11  Gs3  v016
 BYTE   W12
 BYTE   Cs4
 BYTE   W12
 BYTE   Ds4
 BYTE   W12
 BYTE   Gs4
 BYTE   W06
//  #05 //052   ----------------------------------------
 BYTE   W06
 BYTE   Gs3
 BYTE   W12
 BYTE   Gs4
 BYTE   W12
 BYTE   Gs3
 BYTE   W12
 BYTE   N17  Fs4
 BYTE   W24
 BYTE   Gs3
 BYTE   N17  Fs4
 BYTE   W24
 BYTE   GoTo
  POIN2 Label_54D75A
//  #05 //053   ----------------------------------------
 BYTE   W06
 BYTE   VOICE   40
 BYTE   MODT 0
 BYTE   LFOS 44
 BYTE   PAN   c_v+0
 BYTE   FINE

//**************** Track 6 (Midi-Chn.5) ****************//

FE16TheLongRoadAzula_006:
//  #06 //000   ----------------------------------------
 BYTE   KEYSH   FE16TheLongRoadAzula_key+0
Label_01034986:
 BYTE   VOICE   10
 BYTE   MODT 0
 BYTE   LFOS 44
 BYTE   PAN   c_v-13
 BYTE   VOL   86*FE16TheLongRoadAzula_mvl/mxv
 BYTE   MODT 0
 BYTE   LFOS 44
 BYTE   W96
//  #06 //001   ----------------------------------------
 BYTE   W96
//  #06 //002   ----------------------------------------
 BYTE   W96
//  #06 //003   ----------------------------------------
 BYTE   W96
//  #06 //004   ----------------------------------------
 BYTE   W96
//  #06 //005   ----------------------------------------
 BYTE   W96
//  #06 //006   ----------------------------------------
 BYTE   W96
//  #06 //007   ----------------------------------------
 BYTE   W96
//  #06 //008   ----------------------------------------
Label_0103499C:
 BYTE   N11  Ds4  v036
 BYTE   W12
 BYTE   En4
 BYTE   W12
 BYTE   Fs4
 BYTE   W12
 BYTE   Gs4
 BYTE   W12
 BYTE   N44  Cs4
 BYTE   W48
 BYTE   PEND 
//  #06 //009   ----------------------------------------
Label_010349AA:
 BYTE   W72
 BYTE   N11  Cs4  v036
 BYTE   W12
 BYTE   En4
 BYTE   W12
 BYTE   PEND 
//  #06 //010   ----------------------------------------
 BYTE   PATT
  POIN2 Label_0103499C
//  #06 //011   ----------------------------------------
 BYTE   W72
 BYTE   N23  Fs4  v036
 BYTE   W24
//  #06 //012   ----------------------------------------
Label_010349BC:
 BYTE   N11  Gs4  v036
 BYTE   W12
 BYTE   An4
 BYTE   W12
 BYTE   Gs4
 BYTE   W12
 BYTE   Cs4
 BYTE   W12
 BYTE   N44  En4
 BYTE   W48
 BYTE   PEND 
//  #06 //013   ----------------------------------------
Label_010349CA:
 BYTE   W24
 BYTE   N23  Ds4  v036
 BYTE   W24
 BYTE   Bn4
 BYTE   W24
 BYTE   An4
 BYTE   W24
 BYTE   PEND 
//  #06 //014   ----------------------------------------
 BYTE   PATT
  POIN2 Label_010349BC
//  #06 //015   ----------------------------------------
 BYTE   W96
//  #06 //016   ----------------------------------------
 BYTE   PATT
  POIN2 Label_0103499C
//  #06 //017   ----------------------------------------
 BYTE   PATT
  POIN2 Label_010349AA
//  #06 //018   ----------------------------------------
 BYTE   PATT
  POIN2 Label_0103499C
//  #06 //019   ----------------------------------------
 BYTE   W72
 BYTE   N23  Fs4  v036
 BYTE   W24
//  #06 //020   ----------------------------------------
 BYTE   PATT
  POIN2 Label_010349BC
//  #06 //021   ----------------------------------------
 BYTE   PATT
  POIN2 Label_010349CA
//  #06 //022   ----------------------------------------
 BYTE   PATT
  POIN2 Label_010349BC
//  #06 //023   ----------------------------------------
 BYTE   W96
//  #06 //024   ----------------------------------------
 BYTE   W96
//  #06 //025   ----------------------------------------
 BYTE   W96
//  #06 //026   ----------------------------------------
 BYTE   W96
//  #06 //027   ----------------------------------------
 BYTE   W96
//  #06 //028   ----------------------------------------
 BYTE   W96
//  #06 //029   ----------------------------------------
 BYTE   W96
//  #06 //030   ----------------------------------------
 BYTE   W96
//  #06 //031   ----------------------------------------
 BYTE   W72
 BYTE   N23  Fs4  v024
 BYTE   W24
//  #06 //032   ----------------------------------------
 BYTE   N32  Gs4
 BYTE   W36
 BYTE   N11  Fs4
 BYTE   W12
 BYTE   N32  Gs4
 BYTE   W36
 BYTE   N11  An4
 BYTE   W12
//  #06 //033   ----------------------------------------
 BYTE   N92  Gs4
 BYTE   W96
//  #06 //034   ----------------------------------------
 BYTE   W96
//  #06 //035   ----------------------------------------
 BYTE   W96
//  #06 //036   ----------------------------------------
 BYTE   W84
 BYTE   N11  Cs4  v016
 BYTE   W12
//  #06 //037   ----------------------------------------
Label_01034A20:
 BYTE   N11  Bn3  v016
 BYTE   W12
 BYTE   Cs4
 BYTE   W12
 BYTE   N68  Bn3
 BYTE   W72
 BYTE   PEND 
//  #06 //038   ----------------------------------------
 BYTE   W96
//  #06 //039   ----------------------------------------
 BYTE   W96
//  #06 //040   ----------------------------------------
 BYTE   W84
 BYTE   N11  Cs4
 BYTE   W12
//  #06 //041   ----------------------------------------
 BYTE   PATT
  POIN2 Label_01034A20
//  #06 //042   ----------------------------------------
 BYTE   W96
//  #06 //043   ----------------------------------------
 BYTE   W96
//  #06 //044   ----------------------------------------
 BYTE   W96
//  #06 //045   ----------------------------------------
 BYTE   W96
//  #06 //046   ----------------------------------------
 BYTE   W96
//  #06 //047   ----------------------------------------
 BYTE   W96
//  #06 //048   ----------------------------------------
 BYTE   W96
//  #06 //049   ----------------------------------------
 BYTE   W96
//  #06 //050   ----------------------------------------
 BYTE   W96
//  #06 //051   ----------------------------------------
 BYTE   W96
//  #06 //052   ----------------------------------------
 BYTE   W90
 BYTE   GoTo
  POIN2 Label_01034986
//  #06 //053   ----------------------------------------
 BYTE   W06
 BYTE   VOICE   10
 BYTE   MODT 0
 BYTE   LFOS 44
 BYTE   FINE

//**************** Track 7 (Midi-Chn.6) ****************//

FE16TheLongRoadAzula_007:
//  #07 //000   ----------------------------------------
 BYTE   KEYSH   FE16TheLongRoadAzula_key+0
Label_01043F4A:
 BYTE   VOICE   34
 BYTE   MODT 0
 BYTE   LFOS 44
 BYTE   VOL   112*FE16TheLongRoadAzula_mvl/mxv
 BYTE   MODT 0
 BYTE   LFOS 44
 BYTE   PAN   c_v-10
 BYTE   N03  Cs2  v024
 BYTE   W06
 BYTE   N03
 BYTE   W06
 BYTE   N03
 BYTE   W06
 BYTE   N03
 BYTE   W06
 BYTE   N03
 BYTE   W06
 BYTE   N03
 BYTE   W06
 BYTE   N03
 BYTE   W06
 BYTE   N03
 BYTE   W06
 BYTE   N03
 BYTE   W06
 BYTE   N03
 BYTE   W06
 BYTE   N03
 BYTE   W06
 BYTE   N03
 BYTE   W06
 BYTE   N03
 BYTE   W06
 BYTE   N03
 BYTE   W06
 BYTE   N03
 BYTE   W06
 BYTE   N03
 BYTE   W06
//  #07 //001   ----------------------------------------
Label_01043F7A:
 BYTE   N03  Dn2  v024
 BYTE   W06
 BYTE   N03
 BYTE   W06
 BYTE   N03
 BYTE   W06
 BYTE   N03
 BYTE   W06
 BYTE   N03
 BYTE   W06
 BYTE   N03
 BYTE   W06
 BYTE   N03
 BYTE   W06
 BYTE   N03
 BYTE   W06
 BYTE   N03
 BYTE   W06
 BYTE   N03
 BYTE   W06
 BYTE   N03
 BYTE   W06
 BYTE   N03
 BYTE   W06
 BYTE   N03
 BYTE   W06
 BYTE   N03
 BYTE   W06
 BYTE   N03
 BYTE   W06
 BYTE   N03
 BYTE   W06
 BYTE   PEND 
//  #07 //002   ----------------------------------------
Label_01043F9D:
 BYTE   N03  En2  v024
 BYTE   W06
 BYTE   N03
 BYTE   W06
 BYTE   N03
 BYTE   W06
 BYTE   N03
 BYTE   W06
 BYTE   N03
 BYTE   W06
 BYTE   N03
 BYTE   W06
 BYTE   N03
 BYTE   W06
 BYTE   N03
 BYTE   W06
 BYTE   N03
 BYTE   W06
 BYTE   N03
 BYTE   W06
 BYTE   N03
 BYTE   W06
 BYTE   N03
 BYTE   W06
 BYTE   N03
 BYTE   W06
 BYTE   N03
 BYTE   W06
 BYTE   N03
 BYTE   W06
 BYTE   N03
 BYTE   W06
 BYTE   PEND 
//  #07 //003   ----------------------------------------
Label_01043FC0:
 BYTE   N03  Fs2  v024
 BYTE   W06
 BYTE   N03
 BYTE   W06
 BYTE   N03
 BYTE   W06
 BYTE   N03
 BYTE   W06
 BYTE   N03
 BYTE   W06
 BYTE   N03
 BYTE   W06
 BYTE   N03
 BYTE   W06
 BYTE   N03
 BYTE   W06
 BYTE   N03
 BYTE   W06
 BYTE   N03
 BYTE   W06
 BYTE   N03
 BYTE   W06
 BYTE   N03
 BYTE   W06
 BYTE   N03
 BYTE   W06
 BYTE   N03
 BYTE   W06
 BYTE   N03
 BYTE   W06
 BYTE   N03
 BYTE   W06
 BYTE   PEND 
//  #07 //004   ----------------------------------------
Label_01043FE3:
 BYTE   VOL   112*FE16TheLongRoadAzula_mvl/mxv
 BYTE   MODT 0
 BYTE   LFOS 44
 BYTE   PAN   c_v-10
 BYTE   N03  Cs2  v024
 BYTE   W06
 BYTE   N03
 BYTE   W06
 BYTE   N03
 BYTE   W06
 BYTE   N03
 BYTE   W06
 BYTE   N03
 BYTE   W06
 BYTE   N03
 BYTE   W06
 BYTE   N03
 BYTE   W06
 BYTE   N03
 BYTE   W06
 BYTE   N03
 BYTE   W06
 BYTE   N03
 BYTE   W06
 BYTE   N03
 BYTE   W06
 BYTE   N03
 BYTE   W06
 BYTE   N03
 BYTE   W06
 BYTE   N03
 BYTE   W06
 BYTE   N03
 BYTE   W06
 BYTE   N03
 BYTE   W06
 BYTE   PEND 
//  #07 //005   ----------------------------------------
 BYTE   PATT
  POIN2 Label_01043F7A
//  #07 //006   ----------------------------------------
 BYTE   PATT
  POIN2 Label_01043F9D
//  #07 //007   ----------------------------------------
 BYTE   PATT
  POIN2 Label_01043FC0
//  #07 //008   ----------------------------------------
 BYTE   PATT
  POIN2 Label_01043FE3
//  #07 //009   ----------------------------------------
 BYTE   PATT
  POIN2 Label_01043F7A
//  #07 //010   ----------------------------------------
 BYTE   PATT
  POIN2 Label_01043F9D
//  #07 //011   ----------------------------------------
 BYTE   PATT
  POIN2 Label_01043FC0
//  #07 //012   ----------------------------------------
 BYTE   PATT
  POIN2 Label_01043FE3
//  #07 //013   ----------------------------------------
 BYTE   PATT
  POIN2 Label_01043F7A
//  #07 //014   ----------------------------------------
 BYTE   PATT
  POIN2 Label_01043F9D
//  #07 //015   ----------------------------------------
 BYTE   PATT
  POIN2 Label_01043FC0
//  #07 //016   ----------------------------------------
 BYTE   PATT
  POIN2 Label_01043FE3
//  #07 //017   ----------------------------------------
 BYTE   PATT
  POIN2 Label_01043F7A
//  #07 //018   ----------------------------------------
 BYTE   PATT
  POIN2 Label_01043F9D
//  #07 //019   ----------------------------------------
 BYTE   PATT
  POIN2 Label_01043FC0
//  #07 //020   ----------------------------------------
 BYTE   PATT
  POIN2 Label_01043FE3
//  #07 //021   ----------------------------------------
 BYTE   PATT
  POIN2 Label_01043F7A
//  #07 //022   ----------------------------------------
 BYTE   PATT
  POIN2 Label_01043F9D
//  #07 //023   ----------------------------------------
 BYTE   PATT
  POIN2 Label_01043FC0
//  #07 //024   ----------------------------------------
 BYTE   N32  Ds3  v020
 BYTE   W36
 BYTE   N11  Cs3  v036
 BYTE   W12
 BYTE   Ds3
 BYTE   N12  En3  v020
 BYTE   W12
 BYTE   N11  En3  v036
 BYTE   W12
 BYTE   Fs3
 BYTE   W12
 BYTE   Gs3
 BYTE   W12
//  #07 //025   ----------------------------------------
 BYTE   N44  Ds3  v020
 BYTE   W48
 BYTE   N11  Cs3
 BYTE   W24
 BYTE   As2
 BYTE   W12
 BYTE   Bn2
 BYTE   W12
//  #07 //026   ----------------------------------------
 BYTE   N23  Cs3
 BYTE   W24
 BYTE   Fs3
 BYTE   W24
 BYTE   Bn3
 BYTE   W24
 BYTE   An3
 BYTE   W24
//  #07 //027   ----------------------------------------
 BYTE   N11
 BYTE   W12
 BYTE   Gs3
 BYTE   W12
 BYTE   N32  Cs3
 BYTE   W48
 BYTE   N11  En3
 BYTE   W12
 BYTE   Cs4
 BYTE   W12
//  #07 //028   ----------------------------------------
 BYTE   Ds4
 BYTE   W12
 BYTE   Cs4
 BYTE   W12
 BYTE   N32  Gs3
 BYTE   W48
 BYTE   N11  En3
 BYTE   W12
 BYTE   Bn3
 BYTE   W12
//  #07 //029   ----------------------------------------
 BYTE   Cs4
 BYTE   W12
 BYTE   Bn3
 BYTE   W12
 BYTE   N44  En3
 BYTE   W48
 BYTE   N23  Fs3
 BYTE   W24
//  #07 //030   ----------------------------------------
 BYTE   N32  Gs3
 BYTE   W36
 BYTE   N11  Fs3
 BYTE   W12
 BYTE   N32  Gs3
 BYTE   W36
 BYTE   N11  An3
 BYTE   W12
//  #07 //031   ----------------------------------------
 BYTE   N68  Gs3
 BYTE   W96
//  #07 //032   ----------------------------------------
 BYTE   W96
//  #07 //033   ----------------------------------------
 BYTE   W96
//  #07 //034   ----------------------------------------
Label_010440C9:
 BYTE   N05  Dn1  v060
 BYTE   N05  Gs3  v020
 BYTE   W06
 BYTE   N05
 BYTE   W06
 BYTE   An3
 BYTE   W06
 BYTE   Dn1  v060
 BYTE   N05  An3  v020
 BYTE   W06
 BYTE   Gs3
 BYTE   W06
 BYTE   N05
 BYTE   W06
 BYTE   Dn1  v060
 BYTE   N05  An3  v020
 BYTE   W06
 BYTE   Dn1  v060
 BYTE   N05  An3  v020
 BYTE   W06
 BYTE   Gs3
 BYTE   W06
 BYTE   Dn1  v060
 BYTE   N05  Gs3  v020
 BYTE   W06
 BYTE   Dn1  v060
 BYTE   N05  An3  v020
 BYTE   W06
 BYTE   N05
 BYTE   W06
 BYTE   Dn1  v060
 BYTE   N05  Gs3  v020
 BYTE   W06
 BYTE   N05
 BYTE   W06
 BYTE   An3
 BYTE   W06
 BYTE   N05
 BYTE   W06
 BYTE   PEND 
//  #07 //035   ----------------------------------------
 BYTE   PATT
  POIN2 Label_010440C9
//  #07 //036   ----------------------------------------
Label_0104410C:
 BYTE   N05  Fs1  v060
 BYTE   N05  Gs3  v020
 BYTE   W06
 BYTE   N05
 BYTE   W06
 BYTE   An3
 BYTE   W06
 BYTE   Fs1  v060
 BYTE   N05  An3  v020
 BYTE   W06
 BYTE   Gs3
 BYTE   W06
 BYTE   N05
 BYTE   W06
 BYTE   Fs1  v060
 BYTE   N05  An3  v020
 BYTE   W06
 BYTE   Fs1  v060
 BYTE   N05  An3  v020
 BYTE   W06
 BYTE   Gs3
 BYTE   W06
 BYTE   Fs1  v060
 BYTE   N05  Gs3  v020
 BYTE   W06
 BYTE   Fs1  v060
 BYTE   N05  An3  v020
 BYTE   W06
 BYTE   N05
 BYTE   W06
 BYTE   Fs1  v060
 BYTE   N05  Gs3  v020
 BYTE   W06
 BYTE   N05
 BYTE   W06
 BYTE   An3
 BYTE   N11  Cs4  v008
 BYTE   W06
 BYTE   N05  An3  v020
 BYTE   W06
 BYTE   PEND 
//  #07 //037   ----------------------------------------
Label_0104414F:
 BYTE   N05  Fs1  v060
 BYTE   N05  Gs3  v020
 BYTE   N11  Bn3  v008
 BYTE   W06
 BYTE   N05  Gs3  v020
 BYTE   W06
 BYTE   An3
 BYTE   N11  Cs4  v008
 BYTE   W06
 BYTE   N05  Fs1  v060
 BYTE   N05  An3  v020
 BYTE   W06
 BYTE   Gs3
 BYTE   N68  Bn3  v008
 BYTE   W06
 BYTE   N05  Gs3  v020
 BYTE   W06
 BYTE   Fs1  v060
 BYTE   N05  An3  v020
 BYTE   W06
 BYTE   Fs1  v060
 BYTE   N05  An3  v020
 BYTE   W06
 BYTE   Gs3
 BYTE   W06
 BYTE   Fs1  v060
 BYTE   N05  Gs3  v020
 BYTE   W06
 BYTE   Fs1  v060
 BYTE   N05  An3  v020
 BYTE   W06
 BYTE   N05
 BYTE   W06
 BYTE   Fs1  v060
 BYTE   N05  Cs4  v020
 BYTE   W06
 BYTE   N05
 BYTE   W06
 BYTE   An3
 BYTE   W06
 BYTE   N05
 BYTE   W06
 BYTE   PEND 
//  #07 //038   ----------------------------------------
 BYTE   PATT
  POIN2 Label_010440C9
//  #07 //039   ----------------------------------------
 BYTE   N05  Bn0  v060
 BYTE   N05  Gs3  v020
 BYTE   W06
 BYTE   N05
 BYTE   W06
 BYTE   An3
 BYTE   W06
 BYTE   Bn0  v060
 BYTE   N05  An3  v020
 BYTE   W06
 BYTE   Gs3
 BYTE   W06
 BYTE   N05
 BYTE   W06
 BYTE   Bn0  v060
 BYTE   N05  An3  v020
 BYTE   W06
 BYTE   Bn0  v060
 BYTE   N05  An3  v020
 BYTE   W06
 BYTE   Gs3
 BYTE   W06
 BYTE   Bn0  v060
 BYTE   N05  Gs3  v020
 BYTE   W06
 BYTE   Bn0  v060
 BYTE   N05  An3  v020
 BYTE   W06
 BYTE   N05
 BYTE   W06
 BYTE   Bn0  v060
 BYTE   N05  Cs4  v020
 BYTE   W06
 BYTE   N05
 BYTE   W06
 BYTE   An3
 BYTE   W06
 BYTE   N05
 BYTE   W06
//  #07 //040   ----------------------------------------
 BYTE   PATT
  POIN2 Label_0104410C
//  #07 //041   ----------------------------------------
 BYTE   PATT
  POIN2 Label_0104414F
//  #07 //042   ----------------------------------------
Label_010441E7:
 BYTE   N05  Fs1  v060
 BYTE   N05  Gs3  v020
 BYTE   W06
 BYTE   N05
 BYTE   W06
 BYTE   An3
 BYTE   W06
 BYTE   Fs1  v060
 BYTE   N05  An3  v020
 BYTE   W06
 BYTE   Gs3
 BYTE   W06
 BYTE   N05
 BYTE   W06
 BYTE   Fs1  v060
 BYTE   N05  An3  v020
 BYTE   W06
 BYTE   Fs1  v060
 BYTE   N05  An3  v020
 BYTE   W06
 BYTE   Gs3
 BYTE   W06
 BYTE   Fs1  v060
 BYTE   N05  Gs3  v020
 BYTE   W06
 BYTE   Fs1  v060
 BYTE   N05  An3  v020
 BYTE   W06
 BYTE   N05
 BYTE   W06
 BYTE   Fs1  v060
 BYTE   N05  Cs4  v020
 BYTE   W06
 BYTE   N05
 BYTE   W06
 BYTE   An3
 BYTE   W06
 BYTE   N05
 BYTE   W06
 BYTE   PEND 
//  #07 //043   ----------------------------------------
 BYTE   PATT
  POIN2 Label_010441E7
//  #07 //044   ----------------------------------------
 BYTE   N23  Gs3  v020
 BYTE   W24
 BYTE   Fs3
 BYTE   W24
 BYTE   Bn3
 BYTE   W24
 BYTE   Gs3
 BYTE   W24
//  #07 //045   ----------------------------------------
 BYTE   N32  En3
 BYTE   W36
 BYTE   N11  Fs3
 BYTE   W12
 BYTE   N23  En3
 BYTE   W24
 BYTE   N23
 BYTE   W24
//  #07 //046   ----------------------------------------
 BYTE   N23
 BYTE   W24
 BYTE   N44  Ds3
 BYTE   W48
 BYTE   N11  En3
 BYTE   W12
 BYTE   Ds3
 BYTE   W12
//  #07 //047   ----------------------------------------
 BYTE   N23
 BYTE   W24
 BYTE   Cs3
 BYTE   W24
 BYTE   Bn2
 BYTE   W24
 BYTE   Cs3
 BYTE   W24
//  #07 //048   ----------------------------------------
 BYTE   N23
 BYTE   W24
 BYTE   Fs2
 BYTE   W24
 BYTE   Cs3
 BYTE   W24
 BYTE   En3
 BYTE   W24
//  #07 //049   ----------------------------------------
 BYTE   N23
 BYTE   W24
 BYTE   Dn3
 BYTE   W24
 BYTE   Cs3
 BYTE   W24
 BYTE   Bn2
 BYTE   W24
//  #07 //050   ----------------------------------------
 BYTE   N44
 BYTE   W48
 BYTE   Gn3
 BYTE   W48
//  #07 //051   ----------------------------------------
 BYTE   N92  Gs3
 BYTE   W96
//  #07 //052   ----------------------------------------
 BYTE   W90
 BYTE   GoTo
  POIN2 Label_01043F4A
//  #07 //053   ----------------------------------------
 BYTE   W06
 BYTE   VOICE   34
 BYTE   MODT 0
 BYTE   LFOS 44
 BYTE   PAN   c_v-10
 BYTE   FINE

//**************** Track 8 (Midi-Chn.7) ****************//

FE16TheLongRoadAzula_008:
//  #08 //000   ----------------------------------------
 BYTE   KEYSH   FE16TheLongRoadAzula_key+0
Label_01034B16:
 BYTE   VOICE   47
 BYTE   MODT 0
 BYTE   LFOS 44
 BYTE   VOL   86*FE16TheLongRoadAzula_mvl/mxv
 BYTE   MODT 0
 BYTE   LFOS 44
 BYTE   W96
//  #08 //001   ----------------------------------------
Label_01034B23:
 BYTE   W78
 BYTE   N06  En3  v032
 BYTE   W06
 BYTE   En3  v052
 BYTE   W06
 BYTE   En3  v072
 BYTE   W06
 BYTE   PEND 
//  #08 //002   ----------------------------------------
 BYTE   Gs3  v100
 BYTE   W96
//  #08 //003   ----------------------------------------
 BYTE   W84
 BYTE   Gs3  v072
 BYTE   W12
//  #08 //004   ----------------------------------------
 BYTE   En3
 BYTE   W96
//  #08 //005   ----------------------------------------
 BYTE   PATT
  POIN2 Label_01034B23
//  #08 //006   ----------------------------------------
 BYTE   N06  Gs3  v100
 BYTE   W96
//  #08 //007   ----------------------------------------
Label_01034B41:
 BYTE   W84
 BYTE   N06  Gs3  v072
 BYTE   W06
 BYTE   N03
 BYTE   W03
 BYTE   N03
 BYTE   W03
 BYTE   PEND 
//  #08 //008   ----------------------------------------
 BYTE   N06  En3  v100
 BYTE   W96
//  #08 //009   ----------------------------------------
 BYTE   PATT
  POIN2 Label_01034B23
//  #08 //010   ----------------------------------------
 BYTE   N06  Gs3  v100
 BYTE   W96
//  #08 //011   ----------------------------------------
 BYTE   W84
 BYTE   Gs3  v072
 BYTE   W12
//  #08 //012   ----------------------------------------
 BYTE   En3
 BYTE   W96
//  #08 //013   ----------------------------------------
 BYTE   PATT
  POIN2 Label_01034B23
//  #08 //014   ----------------------------------------
 BYTE   N06  Gs3  v100
 BYTE   W96
//  #08 //015   ----------------------------------------
 BYTE   PATT
  POIN2 Label_01034B41
//  #08 //016   ----------------------------------------
 BYTE   N06  En3  v100
 BYTE   W96
//  #08 //017   ----------------------------------------
 BYTE   PATT
  POIN2 Label_01034B23
//  #08 //018   ----------------------------------------
 BYTE   N06  Gs3  v100
 BYTE   W96
//  #08 //019   ----------------------------------------
 BYTE   W84
 BYTE   Gs3  v072
 BYTE   W12
//  #08 //020   ----------------------------------------
 BYTE   En3
 BYTE   W96
//  #08 //021   ----------------------------------------
 BYTE   PATT
  POIN2 Label_01034B23
//  #08 //022   ----------------------------------------
 BYTE   N06  Gs3  v100
 BYTE   W96
//  #08 //023   ----------------------------------------
 BYTE   PATT
  POIN2 Label_01034B41
//  #08 //024   ----------------------------------------
 BYTE   N06  En3  v100
 BYTE   W96
//  #08 //025   ----------------------------------------
 BYTE   W96
//  #08 //026   ----------------------------------------
 BYTE   W96
//  #08 //027   ----------------------------------------
 BYTE   W96
//  #08 //028   ----------------------------------------
 BYTE   W96
//  #08 //029   ----------------------------------------
 BYTE   W96
//  #08 //030   ----------------------------------------
 BYTE   W96
//  #08 //031   ----------------------------------------
 BYTE   W96
//  #08 //032   ----------------------------------------
 BYTE   W96
//  #08 //033   ----------------------------------------
 BYTE   W96
//  #08 //034   ----------------------------------------
Label_01034B9A:
 BYTE   N05  Dn3  v036
 BYTE   W18
 BYTE   N05
 BYTE   W18
 BYTE   N05
 BYTE   W06
 BYTE   N05
 BYTE   W12
 BYTE   N05
 BYTE   W06
 BYTE   N05
 BYTE   W12
 BYTE   N05
 BYTE   W24
 BYTE   PEND 
//  #08 //035   ----------------------------------------
 BYTE   PATT
  POIN2 Label_01034B9A
//  #08 //036   ----------------------------------------
Label_01034BB0:
 BYTE   N05  Fs3  v036
 BYTE   W18
 BYTE   N05
 BYTE   W18
 BYTE   N05
 BYTE   W06
 BYTE   N05
 BYTE   W12
 BYTE   N05
 BYTE   W06
 BYTE   N05
 BYTE   W12
 BYTE   N05
 BYTE   W24
 BYTE   PEND 
//  #08 //037   ----------------------------------------
 BYTE   PATT
  POIN2 Label_01034BB0
//  #08 //038   ----------------------------------------
 BYTE   PATT
  POIN2 Label_01034B9A
//  #08 //039   ----------------------------------------
 BYTE   N05  Bn2  v036
 BYTE   W18
 BYTE   N05
 BYTE   W18
 BYTE   N05
 BYTE   W06
 BYTE   N05
 BYTE   W12
 BYTE   N05
 BYTE   W06
 BYTE   N05
 BYTE   W12
 BYTE   N05
 BYTE   W24
//  #08 //040   ----------------------------------------
 BYTE   PATT
  POIN2 Label_01034BB0
//  #08 //041   ----------------------------------------
 BYTE   PATT
  POIN2 Label_01034BB0
//  #08 //042   ----------------------------------------
 BYTE   PATT
  POIN2 Label_01034BB0
//  #08 //043   ----------------------------------------
 BYTE   PATT
  POIN2 Label_01034BB0
//  #08 //044   ----------------------------------------
 BYTE   W96
//  #08 //045   ----------------------------------------
 BYTE   W96
//  #08 //046   ----------------------------------------
 BYTE   W96
//  #08 //047   ----------------------------------------
 BYTE   W96
//  #08 //048   ----------------------------------------
 BYTE   W96
//  #08 //049   ----------------------------------------
 BYTE   W96
//  #08 //050   ----------------------------------------
 BYTE   W96
//  #08 //051   ----------------------------------------
 BYTE   W96
//  #08 //052   ----------------------------------------
 BYTE   W90
 BYTE   GoTo
  POIN2 Label_01034B16
//  #08 //053   ----------------------------------------
 BYTE   W06
 BYTE   VOICE   47
 BYTE   MODT 0
 BYTE   LFOS 44
 BYTE   FINE

//**************** Track 9 (Midi-Chn.8) ****************//

FE16TheLongRoadAzula_009:
//  #09 //000   ----------------------------------------
 BYTE   KEYSH   FE16TheLongRoadAzula_key+0
Label_010444BE:
 BYTE   VOICE   127
 BYTE   MODT 0
 BYTE   LFOS 44
 BYTE   VOL   97*FE16TheLongRoadAzula_mvl/mxv
 BYTE   MODT 0
 BYTE   LFOS 44
 BYTE   PAN   c_v+0
 BYTE   N05  Cn1  v036
 BYTE   N12  Fs1  v024
 BYTE   N12  Cs2  v036
 BYTE   W06
 BYTE   N05  Cn1
 BYTE   W18
 BYTE   N11
 BYTE   N05  Fs1  v024
 BYTE   W06
 BYTE   N05
 BYTE   W06
 BYTE   Cn1  v036
 BYTE   W06
 BYTE   N05
 BYTE   W06
 BYTE   N23  Fs1  v024
 BYTE   W12
 BYTE   N05  Cn1  v036
 BYTE   W06
 BYTE   N05
 BYTE   W06
 BYTE   Fs1  v024
 BYTE   W06
 BYTE   Cn1  v036
 BYTE   N05  Fs1  v024
 BYTE   W06
 BYTE   Cn1  v036
 BYTE   W12
//  #09 //001   ----------------------------------------
Label_010444FB:
 BYTE   N05  Cn1  v036
 BYTE   N05  Fs1  v024
 BYTE   W06
 BYTE   Cn1  v036
 BYTE   N05  Fs1  v024
 BYTE   W18
 BYTE   N11  Cn1  v036
 BYTE   N05  Fs1  v024
 BYTE   W06
 BYTE   N05
 BYTE   W06
 BYTE   Cn1  v036
 BYTE   W06
 BYTE   N05
 BYTE   W06
 BYTE   Fs1  v024
 BYTE   W06
 BYTE   N05
 BYTE   W06
 BYTE   Cn1  v036
 BYTE   W06
 BYTE   N05
 BYTE   W06
 BYTE   Fs1  v024
 BYTE   W06
 BYTE   Cn1  v036
 BYTE   N05  Dn1  v024
 BYTE   N05  En1
 BYTE   N05  Fs1
 BYTE   W06
 BYTE   Cn1  v036
 BYTE   N05  Dn1  v024
 BYTE   N05  En1
 BYTE   W06
 BYTE   Dn1
 BYTE   N05  En1  v052
 BYTE   W06
 BYTE   PEND 
//  #09 //002   ----------------------------------------
 BYTE   Cn1  v036
 BYTE   N06  Dn1
 BYTE   N12  En1  v092
 BYTE   N12  Fs1  v036
 BYTE   N12  As1
 BYTE   W06
 BYTE   N05  Cn1
 BYTE   W18
 BYTE   N11
 BYTE   N05  Fs1  v024
 BYTE   W06
 BYTE   N05
 BYTE   W06
 BYTE   Cn1  v036
 BYTE   W06
 BYTE   N05
 BYTE   W06
 BYTE   N23  Fs1  v024
 BYTE   W12
 BYTE   N05  Cn1  v036
 BYTE   W06
 BYTE   N05
 BYTE   W06
 BYTE   Fs1  v024
 BYTE   W06
 BYTE   Cn1  v036
 BYTE   N05  Fs1  v024
 BYTE   W06
 BYTE   Cn1  v036
 BYTE   W12
//  #09 //003   ----------------------------------------
Label_0104456D:
 BYTE   N05  Cn1  v036
 BYTE   N05  Fs1  v024
 BYTE   W06
 BYTE   Cn1  v036
 BYTE   N05  Fs1  v024
 BYTE   W18
 BYTE   N11  Cn1  v036
 BYTE   N05  Fs1  v024
 BYTE   W06
 BYTE   N05
 BYTE   W06
 BYTE   Cn1  v036
 BYTE   W06
 BYTE   N05
 BYTE   W06
 BYTE   Fs1  v024
 BYTE   W06
 BYTE   N05
 BYTE   W06
 BYTE   Cn1  v036
 BYTE   W06
 BYTE   N05
 BYTE   W06
 BYTE   Fs1  v024
 BYTE   W06
 BYTE   Cn1  v036
 BYTE   N05  Fs1  v024
 BYTE   W06
 BYTE   Cn1  v036
 BYTE   N11  An2
 BYTE   W06
 BYTE   N02  En1  v024
 BYTE   W03
 BYTE   N02
 BYTE   W03
 BYTE   PEND 
//  #09 //004   ----------------------------------------
 BYTE   N05  Cn1  v036
 BYTE   N12  En1  v024
 BYTE   N12  Fs1
 BYTE   N92  Cs2  v036
 BYTE   W06
 BYTE   N05  Cn1
 BYTE   W18
 BYTE   N11
 BYTE   N05  Fs1  v024
 BYTE   W06
 BYTE   N05
 BYTE   W06
 BYTE   Cn1  v036
 BYTE   W06
 BYTE   N05
 BYTE   W06
 BYTE   N23  Fs1  v024
 BYTE   W12
 BYTE   N05  Cn1  v036
 BYTE   W06
 BYTE   N05
 BYTE   W06
 BYTE   Fs1  v024
 BYTE   W06
 BYTE   Cn1  v036
 BYTE   N05  Fs1  v024
 BYTE   W06
 BYTE   Cn1  v036
 BYTE   W12
//  #09 //005   ----------------------------------------
 BYTE   PATT
  POIN2 Label_010444FB
//  #09 //006   ----------------------------------------
 BYTE   N05  Cn1  v036
 BYTE   N06  Dn1
 BYTE   N12  En1  v092
 BYTE   N23  Fs1  v024
 BYTE   N12  As1  v036
 BYTE   W06
 BYTE   N05  Cn1
 BYTE   W18
 BYTE   N11
 BYTE   N05  Fs1  v024
 BYTE   W06
 BYTE   N05
 BYTE   W06
 BYTE   Cn1  v036
 BYTE   W06
 BYTE   N05
 BYTE   W06
 BYTE   N23  Fs1  v024
 BYTE   W12
 BYTE   N05  Cn1  v036
 BYTE   W06
 BYTE   N05
 BYTE   W06
 BYTE   Fs1  v024
 BYTE   W06
 BYTE   Cn1  v036
 BYTE   N05  Fs1  v024
 BYTE   W06
 BYTE   Cn1  v036
 BYTE   W12
//  #09 //007   ----------------------------------------
 BYTE   PATT
  POIN2 Label_0104456D
//  #09 //008   ----------------------------------------
 BYTE   N11  Bn0  v024
 BYTE   N23  Cn1  v036
 BYTE   N23  Fs1  v024
 BYTE   N24  Cs2  v036
 BYTE   W12
 BYTE   N11  Bn0  v024
 BYTE   W12
 BYTE   N23  Cn1  v036
 BYTE   N05  Fs1  v024
 BYTE   W06
 BYTE   N05
 BYTE   W06
 BYTE   N11  Bn0
 BYTE   W12
 BYTE   N12  Bn0  v036
 BYTE   N23  Fs1  v024
 BYTE   N24  As1
 BYTE   W24
 BYTE   N11  Cn1  v036
 BYTE   N05  Fs1  v024
 BYTE   W06
 BYTE   N05
 BYTE   W06
 BYTE   N11  Cn1  v036
 BYTE   W12
//  #09 //009   ----------------------------------------
 BYTE   N12  Bn0  v024
 BYTE   N23  Cn1  v036
 BYTE   N05  Fs1  v024
 BYTE   W06
 BYTE   N05
 BYTE   W06
 BYTE   N11  Bn0
 BYTE   N11  As1
 BYTE   W12
 BYTE   N23  Cn1  v036
 BYTE   N05  Fs1  v024
 BYTE   W06
 BYTE   N05
 BYTE   W18
 BYTE   N05
 BYTE   W06
 BYTE   N05
 BYTE   W06
 BYTE   N12  An2  v036
 BYTE   W12
 BYTE   N11  Cn1
 BYTE   N05  Fs1  v024
 BYTE   W06
 BYTE   Dn1
 BYTE   N05  En1
 BYTE   N05  Fs1
 BYTE   W06
 BYTE   N11  Cn1  v036
 BYTE   N05  Dn1  v024
 BYTE   N05  En1
 BYTE   W06
 BYTE   Dn1
 BYTE   N05  En1  v052
 BYTE   W06
//  #09 //010   ----------------------------------------
Label_01044685:
 BYTE   N11  Bn0  v024
 BYTE   N23  Cn1  v036
 BYTE   N12  Dn1  v032
 BYTE   N12  En1  v092
 BYTE   N12  Fs1  v036
 BYTE   N23  Cs2  v024
 BYTE   W12
 BYTE   N11  Bn0
 BYTE   W12
 BYTE   N23  Cn1  v036
 BYTE   N05  Fs1  v024
 BYTE   W06
 BYTE   N05
 BYTE   W06
 BYTE   N11
 BYTE   W12
 BYTE   N44  Bn0
 BYTE   N23  Fs1
 BYTE   N44  As1
 BYTE   W24
 BYTE   N11  Cn1  v036
 BYTE   N05  Fs1  v024
 BYTE   W06
 BYTE   N05
 BYTE   W06
 BYTE   N11  Cn1  v036
 BYTE   W12
 BYTE   PEND 
//  #09 //011   ----------------------------------------
Label_010446BB:
 BYTE   N12  Bn0  v024
 BYTE   N23  Cn1  v036
 BYTE   N05  Fs1  v024
 BYTE   W06
 BYTE   N05
 BYTE   W06
 BYTE   N11  Bn0
 BYTE   N11  As1
 BYTE   W12
 BYTE   N23  Cn1  v036
 BYTE   N05  Fs1  v024
 BYTE   W06
 BYTE   N05
 BYTE   W18
 BYTE   N05
 BYTE   W06
 BYTE   N05
 BYTE   W18
 BYTE   N11  Cn1  v036
 BYTE   N05  Fs1  v024
 BYTE   W06
 BYTE   N05
 BYTE   W06
 BYTE   N11  Cn1  v036
 BYTE   N11  An2
 BYTE   W06
 BYTE   N02  En1  v024
 BYTE   W03
 BYTE   N02
 BYTE   W03
 BYTE   PEND 
//  #09 //012   ----------------------------------------
 BYTE   N23  Cn1  v036
 BYTE   N92  En1  v024
 BYTE   N23  Fs1
 BYTE   N11  Cs2
 BYTE   W12
 BYTE   Bn0
 BYTE   W12
 BYTE   N23  Cn1  v036
 BYTE   N05  Fs1  v024
 BYTE   W06
 BYTE   N05
 BYTE   W06
 BYTE   N11  Bn0
 BYTE   W12
 BYTE   N44
 BYTE   N23  Fs1
 BYTE   N44  As1
 BYTE   W24
 BYTE   N11  Cn1  v036
 BYTE   N05  Fs1  v024
 BYTE   W06
 BYTE   N05
 BYTE   W06
 BYTE   N11  Cn1  v036
 BYTE   W12
//  #09 //013   ----------------------------------------
 BYTE   N12  Bn0  v024
 BYTE   N23  Cn1  v036
 BYTE   N05  Fs1  v024
 BYTE   W06
 BYTE   N05
 BYTE   W06
 BYTE   N11  Bn0
 BYTE   N11  As1
 BYTE   W12
 BYTE   N23  Cn1  v036
 BYTE   N05  Fs1  v024
 BYTE   W06
 BYTE   N05
 BYTE   W18
 BYTE   N05
 BYTE   W06
 BYTE   N05
 BYTE   W06
 BYTE   N12  An2  v036
 BYTE   W12
 BYTE   N11  Cn1
 BYTE   N05  Fs1  v024
 BYTE   W06
 BYTE   Dn1
 BYTE   N05  En1
 BYTE   N05  Fs1
 BYTE   W06
 BYTE   N06  Cn1  v036
 BYTE   N05  Dn1  v024
 BYTE   N05  En1
 BYTE   W06
 BYTE   Cn1  v052
 BYTE   N05  En1  v024
 BYTE   W06
//  #09 //014   ----------------------------------------
 BYTE   PATT
  POIN2 Label_01044685
//  #09 //015   ----------------------------------------
 BYTE   PATT
  POIN2 Label_010446BB
//  #09 //016   ----------------------------------------
Label_01044762:
 BYTE   N23  Cn1  v036
 BYTE   N96  En1  v024
 BYTE   N23  Fs1
 BYTE   N11  Cs2
 BYTE   W12
 BYTE   Bn0
 BYTE   W12
 BYTE   N23  Cn1  v036
 BYTE   N05  Fs1  v024
 BYTE   W06
 BYTE   N05
 BYTE   W06
 BYTE   N11  Bn0
 BYTE   W12
 BYTE   N48
 BYTE   N23  Fs1
 BYTE   N48  As1
 BYTE   W24
 BYTE   N11  Cn1  v036
 BYTE   N05  Fs1  v024
 BYTE   W06
 BYTE   N05
 BYTE   W06
 BYTE   N12  Cn1  v036
 BYTE   W12
 BYTE   PEND 
//  #09 //017   ----------------------------------------
Label_0104478F:
 BYTE   N12  Bn0  v024
 BYTE   N23  Cn1  v036
 BYTE   N05  Fs1  v024
 BYTE   W06
 BYTE   N05
 BYTE   W06
 BYTE   N11  Bn0
 BYTE   N11  As1
 BYTE   W12
 BYTE   N23  Cn1  v036
 BYTE   N05  Fs1  v024
 BYTE   W06
 BYTE   N05
 BYTE   W18
 BYTE   N05
 BYTE   W06
 BYTE   N05
 BYTE   W06
 BYTE   N12  An2  v036
 BYTE   W12
 BYTE   N11  Cn1
 BYTE   N05  Fs1  v024
 BYTE   W06
 BYTE   Dn1
 BYTE   N05  En1
 BYTE   N05  Fs1
 BYTE   W06
 BYTE   N11  Cn1  v036
 BYTE   N05  Dn1  v024
 BYTE   N05  En1
 BYTE   W06
 BYTE   N05
 BYTE   N05  Fn1  v052
 BYTE   W06
 BYTE   PEND 
//  #09 //018   ----------------------------------------
 BYTE   PATT
  POIN2 Label_01044685
//  #09 //019   ----------------------------------------
 BYTE   PATT
  POIN2 Label_010446BB
//  #09 //020   ----------------------------------------
 BYTE   PATT
  POIN2 Label_01044762
//  #09 //021   ----------------------------------------
 BYTE   PATT
  POIN2 Label_0104478F
//  #09 //022   ----------------------------------------
 BYTE   PATT
  POIN2 Label_01044685
//  #09 //023   ----------------------------------------
 BYTE   N12  Bn0  v024
 BYTE   N23  Cn1  v036
 BYTE   N05  Fs1  v024
 BYTE   W06
 BYTE   N05
 BYTE   W06
 BYTE   N11  Bn0
 BYTE   N11  As1
 BYTE   W12
 BYTE   N23  Cn1  v036
 BYTE   N05  Fs1  v024
 BYTE   W06
 BYTE   N05
 BYTE   W18
 BYTE   N05
 BYTE   W06
 BYTE   N05
 BYTE   W18
 BYTE   N11  Cn1  v036
 BYTE   N05  Fs1  v024
 BYTE   W06
 BYTE   N05
 BYTE   W06
 BYTE   N12  Cn1  v036
 BYTE   N12  An2
 BYTE   W06
 BYTE   N02  En1  v024
 BYTE   W03
 BYTE   N03
 BYTE   W03
//  #09 //024   ----------------------------------------
Label_01044818:
 BYTE   N12  Fs1  v036
 BYTE   W12
 BYTE   N06
 BYTE   W06
 BYTE   N06
 BYTE   W06
 BYTE   N12
 BYTE   W12
 BYTE   N06
 BYTE   W06
 BYTE   N06
 BYTE   W06
 BYTE   N12
 BYTE   W12
 BYTE   N06
 BYTE   W06
 BYTE   N06
 BYTE   W06
 BYTE   N12
 BYTE   W12
 BYTE   N06
 BYTE   W06
 BYTE   N06
 BYTE   W06
 BYTE   PEND 
//  #09 //025   ----------------------------------------
 BYTE   PATT
  POIN2 Label_01044818
//  #09 //026   ----------------------------------------
 BYTE   PATT
  POIN2 Label_01044818
//  #09 //027   ----------------------------------------
 BYTE   PATT
  POIN2 Label_01044818
//  #09 //028   ----------------------------------------
 BYTE   PATT
  POIN2 Label_01044818
//  #09 //029   ----------------------------------------
 BYTE   PATT
  POIN2 Label_01044818
//  #09 //030   ----------------------------------------
 BYTE   PATT
  POIN2 Label_01044818
//  #09 //031   ----------------------------------------
 BYTE   PATT
  POIN2 Label_01044818
//  #09 //032   ----------------------------------------
 BYTE   PATT
  POIN2 Label_01044818
//  #09 //033   ----------------------------------------
 BYTE   N12  Fs1  v036
 BYTE   W24
 BYTE   N12
 BYTE   W24
 BYTE   N12
 BYTE   W48
//  #09 //034   ----------------------------------------
Label_01044863:
 BYTE   N24  Cn1  v096
 BYTE   N05  En1  v020
 BYTE   N24  Cs2  v080
 BYTE   W18
 BYTE   N05  En1  v020
 BYTE   W06
 BYTE   N23  Fs1
 BYTE   W12
 BYTE   N05  Bn0  v060
 BYTE   N05  En1  v036
 BYTE   W06
 BYTE   Bn0  v060
 BYTE   N05  En1  v036
 BYTE   W06
 BYTE   Gs1  v008
 BYTE   W06
 BYTE   Bn0  v036
 BYTE   N05  En1  v020
 BYTE   N05  Fs1  v060
 BYTE   N05  Gs1  v008
 BYTE   W06
 BYTE   Bn0  v036
 BYTE   N05  En1  v020
 BYTE   N05  Fs1  v060
 BYTE   N11  Gs1  v008
 BYTE   W12
 BYTE   N23  Bn0  v036
 BYTE   N05  En1  v020
 BYTE   N23  As1
 BYTE   W24
 BYTE   PEND 
//  #09 //035   ----------------------------------------
Label_010448A6:
 BYTE   N12  Cn1  v096
 BYTE   N05  En1  v020
 BYTE   W18
 BYTE   N05
 BYTE   W06
 BYTE   N23  Bn0  v036
 BYTE   N11  Fs1  v020
 BYTE   W12
 BYTE   N05  Dn1
 BYTE   N05  En1
 BYTE   N05  Fs1  v060
 BYTE   N05  Gs1  v020
 BYTE   W06
 BYTE   N11  Cn1  v036
 BYTE   N05  Dn1  v020
 BYTE   N05  En1
 BYTE   N05  Fs1  v060
 BYTE   N05  Gs1  v008
 BYTE   W12
 BYTE   Dn1  v020
 BYTE   N05  En1
 BYTE   N05  Fs1  v060
 BYTE   N05  Gs1  v008
 BYTE   W06
 BYTE   N11  Cn1  v036
 BYTE   N05  Dn1  v020
 BYTE   N05  En1
 BYTE   N05  Fs1  v060
 BYTE   N05  Gs1  v008
 BYTE   W12
 BYTE   Dn1  v020
 BYTE   N23  An2  v036
 BYTE   W24
 BYTE   PEND 
//  #09 //036   ----------------------------------------
 BYTE   PATT
  POIN2 Label_01044863
//  #09 //037   ----------------------------------------
 BYTE   PATT
  POIN2 Label_010448A6
//  #09 //038   ----------------------------------------
Label_010448FB:
 BYTE   N24  Cn1  v096
 BYTE   N05  En1  v020
 BYTE   N24  Cs2  v076
 BYTE   W18
 BYTE   N05  En1  v020
 BYTE   W06
 BYTE   N23  Fs1
 BYTE   W12
 BYTE   N05  Bn0  v060
 BYTE   N05  En1  v036
 BYTE   W06
 BYTE   Bn0  v060
 BYTE   N05  En1  v036
 BYTE   W06
 BYTE   Gs1  v008
 BYTE   W06
 BYTE   Bn0  v036
 BYTE   N05  En1  v020
 BYTE   N05  Fs1  v060
 BYTE   N05  Gs1  v008
 BYTE   W06
 BYTE   Bn0  v036
 BYTE   N05  En1  v020
 BYTE   N05  Fs1  v060
 BYTE   N11  Gs1  v008
 BYTE   W12
 BYTE   N23  Bn0  v036
 BYTE   N05  En1  v020
 BYTE   N23  As1
 BYTE   W24
 BYTE   PEND 
//  #09 //039   ----------------------------------------
 BYTE   PATT
  POIN2 Label_010448A6
//  #09 //040   ----------------------------------------
 BYTE   PATT
  POIN2 Label_010448FB
//  #09 //041   ----------------------------------------
 BYTE   PATT
  POIN2 Label_010448A6
//  #09 //042   ----------------------------------------
 BYTE   N24  Cn1  v096
 BYTE   N05  Dn1  v020
 BYTE   N05  Fs1  v060
 BYTE   N24  Cs2  v076
 BYTE   W06
 BYTE   N05  Fs1  v060
 BYTE   W06
 BYTE   N05
 BYTE   W06
 BYTE   Dn1  v020
 BYTE   N05  Fs1  v060
 BYTE   W06
 BYTE   N05
 BYTE   W06
 BYTE   N05
 BYTE   W06
 BYTE   Dn1  v020
 BYTE   N05  En1  v036
 BYTE   N05  Fs1  v060
 BYTE   W06
 BYTE   Dn1  v020
 BYTE   N05  En1  v036
 BYTE   N05  Fs1  v060
 BYTE   W06
 BYTE   N05
 BYTE   W06
 BYTE   Dn1  v020
 BYTE   N05  En1  v036
 BYTE   N05  Fs1  v060
 BYTE   W06
 BYTE   Dn1  v020
 BYTE   N05  En1  v036
 BYTE   N05  Fs1  v060
 BYTE   W06
 BYTE   N05
 BYTE   W06
 BYTE   Dn1  v020
 BYTE   N12  En1  v036
 BYTE   N05  Fs1  v060
 BYTE   W06
 BYTE   N05
 BYTE   W06
 BYTE   N05
 BYTE   W06
 BYTE   N05
 BYTE   W06
//  #09 //043   ----------------------------------------
 BYTE   N24  Cn1  v096
 BYTE   N05  Dn1  v020
 BYTE   N05  Fs1  v060
 BYTE   W06
 BYTE   N05
 BYTE   W06
 BYTE   N05
 BYTE   W06
 BYTE   Dn1  v020
 BYTE   N05  Fs1  v060
 BYTE   W06
 BYTE   N05
 BYTE   W06
 BYTE   N05
 BYTE   W06
 BYTE   Dn1  v020
 BYTE   N05  En1  v036
 BYTE   N05  Fs1  v060
 BYTE   W06
 BYTE   Dn1  v020
 BYTE   N05  En1  v036
 BYTE   N05  Fs1  v060
 BYTE   W06
 BYTE   N05
 BYTE   W06
 BYTE   Dn1  v020
 BYTE   N05  En1  v036
 BYTE   N05  Fs1  v060
 BYTE   W06
 BYTE   Dn1  v020
 BYTE   N05  En1  v036
 BYTE   N05  Fs1  v060
 BYTE   W06
 BYTE   N05
 BYTE   W06
 BYTE   Dn1  v020
 BYTE   N12  En1  v036
 BYTE   N05  Fs1  v060
 BYTE   W06
 BYTE   N05
 BYTE   W06
 BYTE   N05
 BYTE   W06
 BYTE   N05
 BYTE   W06
//  #09 //044   ----------------------------------------
Label_010449F0:
 BYTE   N06  Fs1  v036
 BYTE   W06
 BYTE   N06
 BYTE   W12
 BYTE   N06
 BYTE   W06
 BYTE   N06
 BYTE   W06
 BYTE   N06
 BYTE   W12
 BYTE   N06
 BYTE   W06
 BYTE   N06
 BYTE   W06
 BYTE   N06
 BYTE   W12
 BYTE   N06
 BYTE   W06
 BYTE   As1
 BYTE   W24
 BYTE   PEND 
//  #09 //045   ----------------------------------------
 BYTE   PATT
  POIN2 Label_010449F0
//  #09 //046   ----------------------------------------
 BYTE   PATT
  POIN2 Label_010449F0
//  #09 //047   ----------------------------------------
 BYTE   PATT
  POIN2 Label_010449F0
//  #09 //048   ----------------------------------------
 BYTE   PATT
  POIN2 Label_010449F0
//  #09 //049   ----------------------------------------
 BYTE   PATT
  POIN2 Label_010449F0
//  #09 //050   ----------------------------------------
 BYTE   PATT
  POIN2 Label_010449F0
//  #09 //051   ----------------------------------------
 BYTE   W96
//  #09 //052   ----------------------------------------
 BYTE   W66
 BYTE   N06  An2  v036
 BYTE   W24
 BYTE   GoTo
  POIN2 Label_010444BE
//  #09 //053   ----------------------------------------
 BYTE   VOICE   127
 BYTE   MODT 0
 BYTE   LFOS 44
 BYTE   PAN   c_v+0
 BYTE   W06
 BYTE   FINE

//******************************************************//
	ALIGN 4

FE16TheLongRoadAzula:
	BYTE	9	// NumTrks
	BYTE	0	// NumBlks
	BYTE	FE16TheLongRoadAzula_pri	// Priority
	BYTE	FE16TheLongRoadAzula_rev	// Reverb.
    
	POIN2	FE16TheLongRoadAzula_grp
    
	POIN2	FE16TheLongRoadAzula_001
	POIN2	FE16TheLongRoadAzula_002
	POIN2	FE16TheLongRoadAzula_003
	POIN2	FE16TheLongRoadAzula_004
	POIN2	FE16TheLongRoadAzula_005
	POIN2	FE16TheLongRoadAzula_006
	POIN2	FE16TheLongRoadAzula_007
	POIN2	FE16TheLongRoadAzula_008
	POIN2	FE16TheLongRoadAzula_009

	
