//Event file generated from Sappy .s format.
	#include "MPlayDef.event"

	#define	FireEmblemEngage_FallenPetalsNew_grp  voicegroup000
	#define	FireEmblemEngage_FallenPetalsNew_pri  0
	#define	FireEmblemEngage_FallenPetalsNew_rev  0
	#define	FireEmblemEngage_FallenPetalsNew_mvl  127
	#define	FireEmblemEngage_FallenPetalsNew_key  0
	#define	FireEmblemEngage_FallenPetalsNew_tbs  1
	#define	FireEmblemEngage_FallenPetalsNew_exg  0
	#define	FireEmblemEngage_FallenPetalsNew_cmp  1

	// .rodata
	//	FireEmblemEngage_FallenPetalsNew
	ALIGN 4


//**************** Track 1 (Midi-Chn.0) ****************//

FireEmblemEngage_FallenPetalsNew_001:
//  #01 //000   ----------------------------------------
 BYTE   KEYSH   FireEmblemEngage_FallenPetalsNew_key+0
 BYTE   TEMPO   80*FireEmblemEngage_FallenPetalsNew_tbs/2
 BYTE   VOICE   61
 BYTE   MODT 0
 BYTE   LFOS 44
 BYTE   VOL   28*FireEmblemEngage_FallenPetalsNew_mvl/mxv
 BYTE   BENDR  12
 BYTE   PAN   c_v+0
 BYTE   W48
 BYTE   N23  Dn2  v104
 BYTE   W24
 BYTE   N32  Gn2
 BYTE   W24
//  #01 //001   ----------------------------------------
Label_01191BF0:
 BYTE   W12
 BYTE   N11  Dn3  v104
 BYTE   W12
 BYTE   N92  Cs3
 BYTE   W06
 BYTE   W06
 BYTE   W06
 BYTE   W06
 BYTE   W06
 BYTE   W06
 BYTE   W06
 BYTE   W06
 BYTE   W06
 BYTE   W06
 BYTE   W06
 BYTE   W06
 BYTE   PEND 
//  #01 //002   ----------------------------------------
 BYTE   W06
 BYTE   W06
 BYTE   W06
 BYTE   W06
 BYTE   W72
//  #01 //003   ----------------------------------------
 BYTE   W96
//  #01 //004   ----------------------------------------
 BYTE   W48
 BYTE   N23  Dn2
 BYTE   W24
 BYTE   N32  Gn2
 BYTE   W24
//  #01 //005   ----------------------------------------
 BYTE   PATT
  POIN2 Label_01191BF0
//  #01 //006   ----------------------------------------
 BYTE   TEMPO   74*FireEmblemEngage_FallenPetalsNew_tbs/2
 BYTE   W06
 BYTE   W06
 BYTE   W06
 BYTE   W06
 BYTE   W24
 BYTE   N23  An2  v104
 BYTE   W24
 BYTE   N32  Dn3
 BYTE   W24
//  #01 //007   ----------------------------------------
 BYTE   W12
 BYTE   N11  An3
 BYTE   W12
 BYTE   TEMPO   68*FireEmblemEngage_FallenPetalsNew_tbs/2
 BYTE   N44  Gs3
 BYTE   W48
 BYTE   Fn3
 BYTE   W24
//  #01 //008   ----------------------------------------
 BYTE   W24
 BYTE   TEMPO   80*FireEmblemEngage_FallenPetalsNew_tbs/2
 BYTE   W48
 BYTE   TEMPO   130*FireEmblemEngage_FallenPetalsNew_tbs/2
 BYTE   W24
//  #01 //009   ----------------------------------------
 BYTE   W96
//  #01 //010   ----------------------------------------
 BYTE   W96
//  #01 //011   ----------------------------------------
 BYTE   W96
//  #01 //012   ----------------------------------------
 BYTE   W96
//  #01 //013   ----------------------------------------
 BYTE   W96
//  #01 //014   ----------------------------------------
 BYTE   W96
//  #01 //015   ----------------------------------------
 BYTE   W96
//  #01 //016   ----------------------------------------
 BYTE   W96
//  #01 //017   ----------------------------------------
 BYTE   W96
//  #01 //018   ----------------------------------------
 BYTE   W96
//  #01 //019   ----------------------------------------
 BYTE   W96
//  #01 //020   ----------------------------------------
 BYTE   W96
//  #01 //021   ----------------------------------------
 BYTE   W12
 BYTE   N32  Gs2
 BYTE   W36
 BYTE   N52  Cn3
 BYTE   W48
//  #01 //022   ----------------------------------------
 BYTE   W06
 BYTE   N17  Fn3
 BYTE   W18
 BYTE   N68
 BYTE   W07
 BYTE   W08
 BYTE   W07
 BYTE   W08
 BYTE   W07
 BYTE   W08
 BYTE   W07
 BYTE   W08
 BYTE   W07
 BYTE   W05
//  #01 //023   ----------------------------------------
 BYTE   N44  En3
 BYTE   W03
 BYTE   W07
 BYTE   W08
 BYTE   W07
 BYTE   W08
 BYTE   W07
 BYTE   W08
 BYTE   W24
Label_01191C62:
 BYTE   TIE  Fn1  v104
 BYTE   W24
//  #01 //024   ----------------------------------------
 BYTE   W96
//  #01 //025   ----------------------------------------
 BYTE   W23
 BYTE   EOT
 BYTE   W01
 BYTE   TIE  Gn1
 BYTE   W72
//  #01 //026   ----------------------------------------
 BYTE   W68
 BYTE   W03
 BYTE   EOT
 BYTE   W01
 BYTE   TIE  Gs1
 BYTE   W24
//  #01 //027   ----------------------------------------
 BYTE   W96
//  #01 //028   ----------------------------------------
 BYTE   W23
 BYTE   EOT
 BYTE   W01
 BYTE   TIE  An1
 BYTE   W72
//  #01 //029   ----------------------------------------
 BYTE   W68
 BYTE   W03
 BYTE   EOT
 BYTE   W01
 BYTE   TIE  As1
 BYTE   W24
//  #01 //030   ----------------------------------------
 BYTE   W96
//  #01 //031   ----------------------------------------
 BYTE   W23
 BYTE   EOT
 BYTE   W01
 BYTE   TIE  Fs1
 BYTE   W72
//  #01 //032   ----------------------------------------
 BYTE   W68
 BYTE   W03
 BYTE   EOT
 BYTE   W01
 BYTE   TIE  Cn2
 BYTE   W24
//  #01 //033   ----------------------------------------
 BYTE   W96
//  #01 //034   ----------------------------------------
 BYTE   W96
//  #01 //035   ----------------------------------------
 BYTE   W44
 BYTE   W03
 BYTE   EOT
 BYTE   W24
 BYTE   W01
 BYTE   N17  Fn4
 BYTE   W18
 BYTE   Ds4
 BYTE   W06
//  #01 //036   ----------------------------------------
Label_01191C9C:
 BYTE   W12
 BYTE   N17  Fn4  v104
 BYTE   W18
 BYTE   As4
 BYTE   W18
 BYTE   N23  Fn4
 BYTE   W48
 BYTE   PEND 
//  #01 //037   ----------------------------------------
 BYTE   W96
//  #01 //038   ----------------------------------------
 BYTE   N17  Gs4
 BYTE   W18
 BYTE   As4
 BYTE   W18
 BYTE   Cn5
 BYTE   W18
 BYTE   Cs5
 BYTE   W18
 BYTE   Cn5
 BYTE   W18
 BYTE   Gn4
 BYTE   W06
//  #01 //039   ----------------------------------------
 BYTE   W12
 BYTE   N23  Ds4
 BYTE   W84
//  #01 //040   ----------------------------------------
 BYTE   W96
//  #01 //041   ----------------------------------------
 BYTE   W72
 BYTE   N17  Fn4
 BYTE   W18
 BYTE   Ds4
 BYTE   W06
//  #01 //042   ----------------------------------------
 BYTE   PATT
  POIN2 Label_01191C9C
//  #01 //043   ----------------------------------------
 BYTE   W96
//  #01 //044   ----------------------------------------
 BYTE   N17  Fn4  v104
 BYTE   W18
 BYTE   As4
 BYTE   W18
 BYTE   Cn5
 BYTE   W18
 BYTE   Cs5
 BYTE   W18
 BYTE   Ds5
 BYTE   W18
 BYTE   Fn5
 BYTE   W06
//  #01 //045   ----------------------------------------
 BYTE   W12
 BYTE   N23  Cn5
 BYTE   W84
//  #01 //046   ----------------------------------------
 BYTE   W96
//  #01 //047   ----------------------------------------
 BYTE   W72
 BYTE   TIE  En3
 BYTE   W24
//  #01 //048   ----------------------------------------
 BYTE   W96
//  #01 //049   ----------------------------------------
 BYTE   W23
 BYTE   EOT
 BYTE   W01
 BYTE   TIE  Fs3
 BYTE   W72
//  #01 //050   ----------------------------------------
 BYTE   W68
 BYTE   W03
 BYTE   EOT
 BYTE   W01
 BYTE   TIE
 BYTE   W24
//  #01 //051   ----------------------------------------
 BYTE   W96
//  #01 //052   ----------------------------------------
 BYTE   W23
 BYTE   EOT
 BYTE   W01
 BYTE   N68
 BYTE   W72
//  #01 //053   ----------------------------------------
 BYTE   N32  Fn3
 BYTE   W36
 BYTE   Bn2
 BYTE   W36
 BYTE   N68  Bn3
 BYTE   W24
//  #01 //054   ----------------------------------------
 BYTE   W48
 BYTE   N17
 BYTE   W18
 BYTE   An3
 BYTE   W18
 BYTE   Bn3
 BYTE   W12
//  #01 //055   ----------------------------------------
 BYTE   W06
 BYTE   En4
 BYTE   W18
 BYTE   Dn4
 BYTE   W18
 BYTE   An3
 BYTE   W18
 BYTE   N56  Fs3
 BYTE   W36
//  #01 //056   ----------------------------------------
 BYTE   W36
 BYTE   N17
 BYTE   W18
 BYTE   Gn3
 BYTE   W18
 BYTE   N68  An3
 BYTE   W24
//  #01 //057   ----------------------------------------
 BYTE   W48
 BYTE   Gs3
 BYTE   W48
//  #01 //058   ----------------------------------------
 BYTE   W60
 BYTE   N32  Bn2
 BYTE   W36
//  #01 //059   ----------------------------------------
 BYTE   N68  En3
 BYTE   W72
 BYTE   N68
 BYTE   W24
//  #01 //060   ----------------------------------------
 BYTE   W48
 BYTE   N68
 BYTE   W48
//  #01 //061   ----------------------------------------
 BYTE   W24
 BYTE   N68
 BYTE   W72
//  #01 //062   ----------------------------------------
 BYTE   N68
 BYTE   W96
//  #01 //063   ----------------------------------------
 BYTE   W09
 BYTE   N02  An2
 BYTE   W03
 BYTE   N32  Bn2
 BYTE   W36
 BYTE   N32
 BYTE   W48
//  #01 //064   ----------------------------------------
Label_01191D2E:
 BYTE   W24
 BYTE   N32  Bn2  v104
 BYTE   W36
 BYTE   N32
 BYTE   W36
 BYTE   PEND 
//  #01 //065   ----------------------------------------
 BYTE   W36
 BYTE   N32
 BYTE   W36
 BYTE   N32
 BYTE   W24
//  #01 //066   ----------------------------------------
 BYTE   W48
 BYTE   N32
 BYTE   W36
 BYTE   N32
 BYTE   W12
//  #01 //067   ----------------------------------------
 BYTE   W60
 BYTE   As2
 BYTE   W36
//  #01 //068   ----------------------------------------
 BYTE   N32
 BYTE   W72
 BYTE   N32
 BYTE   W24
//  #01 //069   ----------------------------------------
 BYTE   W12
 BYTE   N17  Cs3
 BYTE   W18
 BYTE   Bn2
 BYTE   W18
 BYTE   TIE  As2
 BYTE   W01
 BYTE   W01
 BYTE   W01
 BYTE   W01
 BYTE   W01
 BYTE   W01
 BYTE   W01
 BYTE   W01
 BYTE   W01
 BYTE   W01
 BYTE   W01
 BYTE   W01
 BYTE   W01
 BYTE   W01
 BYTE   W01
 BYTE   W01
 BYTE   W01
 BYTE   W01
 BYTE   W01
 BYTE   W01
 BYTE   W02
 BYTE   W02
 BYTE   W01
 BYTE   W02
 BYTE   W01
 BYTE   W02
 BYTE   W02
 BYTE   W01
 BYTE   W02
 BYTE   W01
 BYTE   W02
 BYTE   W02
 BYTE   W01
 BYTE   W02
 BYTE   W01
 BYTE   W02
 BYTE   W02
//  #01 //070   ----------------------------------------
 BYTE   W01
 BYTE   W02
 BYTE   W01
 BYTE   W02
 BYTE   W02
 BYTE   W01
 BYTE   W02
 BYTE   W01
 BYTE   W02
 BYTE   W02
 BYTE   W01
 BYTE   W02
 BYTE   W01
 BYTE   W02
 BYTE   W02
 BYTE   W01
 BYTE   W02
 BYTE   W01
 BYTE   W02
 BYTE   W02
 BYTE   W01
 BYTE   W02
 BYTE   W01
 BYTE   W02
 BYTE   W02
 BYTE   W01
 BYTE   W02
 BYTE   W01
 BYTE   W02
 BYTE   W02
 BYTE   W11
 BYTE   EOT
 BYTE   W36
 BYTE   W01
//  #01 //071   ----------------------------------------
 BYTE   W96
//  #01 //072   ----------------------------------------
 BYTE   W12
 BYTE   N32  Ds2
 BYTE   W36
 BYTE   N52  Gs2
 BYTE   W48
//  #01 //073   ----------------------------------------
Label_01191D9E:
 BYTE   W06
 BYTE   N17  Bn2  v104
 BYTE   W18
 BYTE   TIE  As2
 BYTE   W72
 BYTE   PEND 
//  #01 //074   ----------------------------------------
 BYTE   W68
 BYTE   W03
 BYTE   EOT
 BYTE   W01
 BYTE   N68  Gs2
 BYTE   W24
//  #01 //075   ----------------------------------------
 BYTE   W48
 BYTE   Gn2
 BYTE   W48
//  #01 //076   ----------------------------------------
Label_01191DB1:
 BYTE   W24
 BYTE   N32  Gn2  v104
 BYTE   W36
 BYTE   N92  Fs2
 BYTE   W36
 BYTE   PEND 
//  #01 //077   ----------------------------------------
 BYTE   W96
//  #01 //078   ----------------------------------------
 BYTE   W12
 BYTE   N32  Gs2
 BYTE   W36
 BYTE   N44  Gn2
 BYTE   W48
//  #01 //079   ----------------------------------------
 BYTE   N11  Gs2
 BYTE   W12
 BYTE   As2
 BYTE   W12
 BYTE   N68  Bn2
 BYTE   W72
//  #01 //080   ----------------------------------------
 BYTE   Gs2
 BYTE   W02
 BYTE   W02
 BYTE   W02
 BYTE   W03
 BYTE   W02
 BYTE   W02
 BYTE   W02
 BYTE   W03
 BYTE   W02
 BYTE   W02
 BYTE   W02
 BYTE   W03
 BYTE   W02
 BYTE   W02
 BYTE   W02
 BYTE   W03
 BYTE   W02
 BYTE   W02
 BYTE   W02
 BYTE   W03
 BYTE   W02
 BYTE   W02
 BYTE   W02
 BYTE   W03
 BYTE   W02
 BYTE   W02
 BYTE   W02
 BYTE   W03
 BYTE   W02
 BYTE   W02
 BYTE   W02
 BYTE   W03
 BYTE   W24
//  #01 //081   ----------------------------------------
 BYTE   W12
 BYTE   N32
 BYTE   N32  Ds3
 BYTE   W36
 BYTE   N52  Bn2
 BYTE   N68  Ds3
 BYTE   W48
//  #01 //082   ----------------------------------------
 BYTE   W06
 BYTE   N17  Fs2
 BYTE   W18
 BYTE   N68  Gs2
 BYTE   N68  En3
 BYTE   W72
//  #01 //083   ----------------------------------------
 BYTE   Gn2
 BYTE   N68  Ds3
 BYTE   W96
//  #01 //084   ----------------------------------------
 BYTE   W12
 BYTE   N32  Ds2
 BYTE   W36
 BYTE   N52  Gs2
 BYTE   W48
//  #01 //085   ----------------------------------------
 BYTE   PATT
  POIN2 Label_01191D9E
//  #01 //086   ----------------------------------------
 BYTE   W68
 BYTE   W03
 BYTE   EOT
 BYTE   As2
 BYTE   W01
 BYTE   N68  Gs2  v104
 BYTE   W24
//  #01 //087   ----------------------------------------
 BYTE   W48
 BYTE   Gn2
 BYTE   W48
//  #01 //088   ----------------------------------------
 BYTE   PATT
  POIN2 Label_01191DB1
//  #01 //089   ----------------------------------------
 BYTE   W96
//  #01 //090   ----------------------------------------
 BYTE   W96
//  #01 //091   ----------------------------------------
 BYTE   W96
//  #01 //092   ----------------------------------------
 BYTE   W54
 BYTE   N17  Fs2  v104
 BYTE   W18
 BYTE   N32  Gs2
 BYTE   W24
//  #01 //093   ----------------------------------------
 BYTE   W12
 BYTE   N68  Ds3
 BYTE   W84
//  #01 //094   ----------------------------------------
 BYTE   W06
 BYTE   N17  Fs2
 BYTE   W18
 BYTE   N32  Gs2
 BYTE   W36
 BYTE   N68  Ds3
 BYTE   W36
//  #01 //095   ----------------------------------------
 BYTE   W96
//  #01 //096   ----------------------------------------
 BYTE   W96
//  #01 //097   ----------------------------------------
 BYTE   W96
//  #01 //098   ----------------------------------------
 BYTE   W72
 BYTE   TEMPO   120*FireEmblemEngage_FallenPetalsNew_tbs/2
 BYTE   W24
//  #01 //099   ----------------------------------------
 BYTE   W48
 BYTE   TEMPO   130*FireEmblemEngage_FallenPetalsNew_tbs/2
 BYTE   W48
//  #01 //100   ----------------------------------------
 BYTE   W96
//  #01 //101   ----------------------------------------
 BYTE   W96
//  #01 //102   ----------------------------------------
 BYTE   W96
//  #01 //103   ----------------------------------------
 BYTE   W96
//  #01 //104   ----------------------------------------
 BYTE   W96
//  #01 //105   ----------------------------------------
 BYTE   W96
//  #01 //106   ----------------------------------------
 BYTE   W96
//  #01 //107   ----------------------------------------
 BYTE   W96
//  #01 //108   ----------------------------------------
 BYTE   W96
//  #01 //109   ----------------------------------------
 BYTE   W96
//  #01 //110   ----------------------------------------
 BYTE   W96
//  #01 //111   ----------------------------------------
 BYTE   W96
//  #01 //112   ----------------------------------------
 BYTE   W96
//  #01 //113   ----------------------------------------
 BYTE   W96
//  #01 //114   ----------------------------------------
 BYTE   W84
 BYTE   N32  Gs2
 BYTE   W12
//  #01 //115   ----------------------------------------
 BYTE   W24
 BYTE   N52  Cn3
 BYTE   W54
 BYTE   N17  Fn3
 BYTE   W18
//  #01 //116   ----------------------------------------
 BYTE   N68
 BYTE   W07
 BYTE   W08
 BYTE   W07
 BYTE   W08
 BYTE   W07
 BYTE   W08
 BYTE   W07
 BYTE   W08
 BYTE   W07
 BYTE   W05
 BYTE   N44  En3
 BYTE   W03
 BYTE   W07
 BYTE   W08
 BYTE   W06
//  #01 //117   ----------------------------------------
 BYTE   W01
 BYTE   W08
 BYTE   W07
 BYTE   W08
 BYTE   W24
 BYTE   GoTo
  POIN2 Label_01191C62
//  #01 //118   ----------------------------------------
 BYTE   TIE  Fn1  v104
 BYTE   W48
 BYTE   W92
//  #01 //119   ----------------------------------------
 BYTE   W03
 BYTE   EOT
 BYTE   W01
 BYTE   TIE  Gn1
 BYTE   W96
//  #01 //120   ----------------------------------------
 BYTE   W44
 BYTE   W03
 BYTE   EOT
 BYTE   W01
 BYTE   TIE  Gs1
 BYTE   W48
//  #01 //121   ----------------------------------------
 BYTE   W92
 BYTE   W03
 BYTE   EOT
 BYTE   W01
//  #01 //122   ----------------------------------------
 BYTE   TIE  An1
 BYTE   W96
//  #01 //123   ----------------------------------------
 BYTE   W44
 BYTE   W03
 BYTE   EOT
 BYTE   W01
 BYTE   TIE  As1
 BYTE   W48
//  #01 //124   ----------------------------------------
 BYTE   W92
 BYTE   W03
 BYTE   EOT
 BYTE   W01
//  #01 //125   ----------------------------------------
 BYTE   TIE  Fs1
 BYTE   W96
//  #01 //126   ----------------------------------------
 BYTE   W44
 BYTE   W03
 BYTE   EOT
 BYTE   W01
 BYTE   TIE  Cn2
 BYTE   W48
//  #01 //127   ----------------------------------------
 BYTE   W96
//  #01 //128   ----------------------------------------
 BYTE   W96
//  #01 //129   ----------------------------------------
 BYTE   W23
 BYTE   EOT
 BYTE   W24
 BYTE   W01
 BYTE   N17  Fn4
 BYTE   W18
 BYTE   Ds4
 BYTE   W18
 BYTE   Fn4
 BYTE   W12
//  #01 //130   ----------------------------------------
Label_01191EB3:
 BYTE   W06
 BYTE   N17  As4  v104
 BYTE   W18
 BYTE   N23  Fn4
 BYTE   W72
 BYTE   PEND 
//  #01 //131   ----------------------------------------
 BYTE   W72
 BYTE   N17  Gs4
 BYTE   W18
 BYTE   As4
 BYTE   W06
//  #01 //132   ----------------------------------------
 BYTE   W12
 BYTE   Cn5
 BYTE   W18
 BYTE   Cs5
 BYTE   W18
 BYTE   Cn5
 BYTE   W18
 BYTE   Gn4
 BYTE   W18
 BYTE   N23  Ds4
 BYTE   W12
//  #01 //133   ----------------------------------------
 BYTE   W96
//  #01 //134   ----------------------------------------
 BYTE   W96
//  #01 //135   ----------------------------------------
 BYTE   W48
 BYTE   N17  Fn4
 BYTE   W18
 BYTE   Ds4
 BYTE   W18
 BYTE   Fn4
 BYTE   W12
//  #01 //136   ----------------------------------------
 BYTE   PATT
  POIN2 Label_01191EB3
//  #01 //137   ----------------------------------------
 BYTE   W72
 BYTE   N17  Fn4  v104
 BYTE   W18
 BYTE   As4
 BYTE   W06
//  #01 //138   ----------------------------------------
 BYTE   W12
 BYTE   Cn5
 BYTE   W18
 BYTE   Cs5
 BYTE   W18
 BYTE   Ds5
 BYTE   W18
 BYTE   Fn5
 BYTE   W18
 BYTE   N23  Cn5
 BYTE   W12
//  #01 //139   ----------------------------------------
 BYTE   W96
//  #01 //140   ----------------------------------------
 BYTE   W96
//  #01 //141   ----------------------------------------
 BYTE   W48
 BYTE   TIE  En3
 BYTE   W48
//  #01 //142   ----------------------------------------
 BYTE   W92
 BYTE   W03
 BYTE   EOT
 BYTE   W01
//  #01 //143   ----------------------------------------
 BYTE   TIE  Fs3
 BYTE   W96
//  #01 //144   ----------------------------------------
 BYTE   W44
 BYTE   W03
 BYTE   EOT
 BYTE   W01
 BYTE   TIE
 BYTE   W48
//  #01 //145   ----------------------------------------
 BYTE   W92
 BYTE   W03
 BYTE   EOT
 BYTE   W01
//  #01 //146   ----------------------------------------
 BYTE   N68
 BYTE   W72
 BYTE   N32  Fn3
 BYTE   W24
//  #01 //147   ----------------------------------------
 BYTE   W12
 BYTE   Bn2
 BYTE   W36
 BYTE   N68  Bn3
 BYTE   W48
//  #01 //148   ----------------------------------------
 BYTE   W24
 BYTE   N17
 BYTE   W18
 BYTE   An3
 BYTE   W18
 BYTE   Bn3
 BYTE   W18
 BYTE   En4
 BYTE   W18
//  #01 //149   ----------------------------------------
 BYTE   Dn4
 BYTE   W18
 BYTE   An3
 BYTE   W18
 BYTE   N56  Fs3
 BYTE   W60
//  #01 //150   ----------------------------------------
 BYTE   W12
 BYTE   N17
 BYTE   W18
 BYTE   Gn3
 BYTE   W18
 BYTE   N68  An3
 BYTE   W48
//  #01 //151   ----------------------------------------
 BYTE   W24
 BYTE   Gs3
 BYTE   W72
//  #01 //152   ----------------------------------------
 BYTE   W36
 BYTE   N32  Bn2
 BYTE   W36
 BYTE   N68  En3
 BYTE   W24
//  #01 //153   ----------------------------------------
 BYTE   W48
 BYTE   N68
 BYTE   W48
//  #01 //154   ----------------------------------------
 BYTE   W24
 BYTE   N68
 BYTE   W72
//  #01 //155   ----------------------------------------
 BYTE   N68
 BYTE   W72
 BYTE   N68
 BYTE   W24
//  #01 //156   ----------------------------------------
 BYTE   W80
 BYTE   W01
 BYTE   N02  An2
 BYTE   W03
 BYTE   N32  Bn2
 BYTE   W12
//  #01 //157   ----------------------------------------
 BYTE   W24
 BYTE   N32
 BYTE   W72
//  #01 //158   ----------------------------------------
 BYTE   N32
 BYTE   W36
 BYTE   N32
 BYTE   W60
//  #01 //159   ----------------------------------------
 BYTE   W12
 BYTE   N32
 BYTE   W36
 BYTE   N32
 BYTE   W48
//  #01 //160   ----------------------------------------
 BYTE   PATT
  POIN2 Label_01191D2E
//  #01 //161   ----------------------------------------
 BYTE   W36
 BYTE   N32  As2  v104
 BYTE   W36
 BYTE   N32
 BYTE   W24
//  #01 //162   ----------------------------------------
 BYTE   W48
 BYTE   N32
 BYTE   W36
 BYTE   N17  Cs3
 BYTE   W12
//  #01 //163   ----------------------------------------
 BYTE   W06
 BYTE   Bn2
 BYTE   W18
 BYTE   TIE  As2
 BYTE   W01
 BYTE   W01
 BYTE   W01
 BYTE   W01
 BYTE   W01
 BYTE   W01
 BYTE   W01
 BYTE   W01
 BYTE   W01
 BYTE   W01
 BYTE   W01
 BYTE   W01
 BYTE   W01
 BYTE   W01
 BYTE   W01
 BYTE   W01
 BYTE   W01
 BYTE   W01
 BYTE   W01
 BYTE   W01
 BYTE   W02
 BYTE   W02
 BYTE   W01
 BYTE   W02
 BYTE   W01
 BYTE   W02
 BYTE   W02
 BYTE   W01
 BYTE   W02
 BYTE   W01
 BYTE   W02
 BYTE   W02
 BYTE   W01
 BYTE   W02
 BYTE   W01
 BYTE   W02
 BYTE   W02
 BYTE   W01
 BYTE   W02
 BYTE   W01
 BYTE   W02
 BYTE   W02
 BYTE   W01
 BYTE   W02
 BYTE   W01
 BYTE   W02
 BYTE   W02
 BYTE   W01
 BYTE   W02
 BYTE   W01
 BYTE   W02
 BYTE   W02
//  #01 //164   ----------------------------------------
 BYTE   W01
 BYTE   W02
 BYTE   W01
 BYTE   W02
 BYTE   W02
 BYTE   W01
 BYTE   W02
 BYTE   W01
 BYTE   W02
 BYTE   W02
 BYTE   W01
 BYTE   W02
 BYTE   W01
 BYTE   W02
 BYTE   W02
 BYTE   W11
 BYTE   EOT
 BYTE   W60
 BYTE   W01
//  #01 //165   ----------------------------------------
 BYTE   W84
 BYTE   N32  Ds2
 BYTE   W12
//  #01 //166   ----------------------------------------
Label_01191FB4:
 BYTE   W24
 BYTE   N52  Gs2  v104
 BYTE   W54
 BYTE   N17  Bn2
 BYTE   W18
 BYTE   PEND 
//  #01 //167   ----------------------------------------
 BYTE   TIE  As2
 BYTE   W96
//  #01 //168   ----------------------------------------
 BYTE   W44
 BYTE   W03
 BYTE   EOT
 BYTE   W01
 BYTE   N68  Gs2
 BYTE   W48
//  #01 //169   ----------------------------------------
 BYTE   W24
 BYTE   Gn2
 BYTE   W72
//  #01 //170   ----------------------------------------
Label_01191FCA:
 BYTE   N32  Gn2  v104
 BYTE   W36
 BYTE   N92  Fs2
 BYTE   W60
 BYTE   PEND 
//  #01 //171   ----------------------------------------
 BYTE   W84
 BYTE   N32  Gs2
 BYTE   W12
//  #01 //172   ----------------------------------------
 BYTE   W24
 BYTE   N44  Gn2
 BYTE   W48
 BYTE   N11  Gs2
 BYTE   W12
 BYTE   As2
 BYTE   W12
//  #01 //173   ----------------------------------------
 BYTE   N68  Bn2
 BYTE   W72
 BYTE   Gs2
 BYTE   W02
 BYTE   W02
 BYTE   W02
 BYTE   W03
 BYTE   W02
 BYTE   W02
 BYTE   W02
 BYTE   W03
 BYTE   W02
 BYTE   W02
 BYTE   W02
//  #01 //174   ----------------------------------------
 BYTE   W03
 BYTE   W02
 BYTE   W02
 BYTE   W02
 BYTE   W03
 BYTE   W02
 BYTE   W02
 BYTE   W02
 BYTE   W03
 BYTE   W02
 BYTE   W02
 BYTE   W02
 BYTE   W03
 BYTE   W02
 BYTE   W02
 BYTE   W02
 BYTE   W03
 BYTE   W02
 BYTE   W02
 BYTE   W02
 BYTE   W03
 BYTE   W36
 BYTE   N32
 BYTE   N32  Ds3
 BYTE   W12
//  #01 //175   ----------------------------------------
 BYTE   W24
 BYTE   N52  Bn2
 BYTE   N68  Ds3
 BYTE   W54
 BYTE   N17  Fs2
 BYTE   W18
//  #01 //176   ----------------------------------------
 BYTE   N68  Gs2
 BYTE   N68  En3
 BYTE   W72
 BYTE   Gn2
 BYTE   N68  Ds3
 BYTE   W24
//  #01 //177   ----------------------------------------
 BYTE   W84
 BYTE   N32  Ds2
 BYTE   W12
//  #01 //178   ----------------------------------------
 BYTE   PATT
  POIN2 Label_01191FB4
//  #01 //179   ----------------------------------------
 BYTE   TIE  As2  v104
 BYTE   W96
//  #01 //180   ----------------------------------------
 BYTE   W44
 BYTE   W03
 BYTE   EOT
 BYTE   W01
 BYTE   N68  Gs2
 BYTE   W48
//  #01 //181   ----------------------------------------
 BYTE   W24
 BYTE   Gn2
 BYTE   W72
//  #01 //182   ----------------------------------------
 BYTE   PATT
  POIN2 Label_01191FCA
//  #01 //183   ----------------------------------------
 BYTE   W96
//  #01 //184   ----------------------------------------
 BYTE   W96
//  #01 //185   ----------------------------------------
 BYTE   W96
//  #01 //186   ----------------------------------------
 BYTE   W30
 BYTE   N17  Fs2  v104
 BYTE   W18
 BYTE   N32  Gs2
 BYTE   W36
 BYTE   N68  Ds3
 BYTE   W12
//  #01 //187   ----------------------------------------
 BYTE   W78
 BYTE   N17  Fs2
 BYTE   W18
//  #01 //188   ----------------------------------------
 BYTE   N32  Gs2
 BYTE   W36
 BYTE   N68  Ds3
 BYTE   W60
//  #01 //189   ----------------------------------------
 BYTE   W96
//  #01 //190   ----------------------------------------
 BYTE   W96
//  #01 //191   ----------------------------------------
 BYTE   W96
//  #01 //192   ----------------------------------------
 BYTE   W48
 BYTE   TEMPO   120*FireEmblemEngage_FallenPetalsNew_tbs/2
 BYTE   W48
//  #01 //193   ----------------------------------------
 BYTE   W24
 BYTE   TEMPO   130*FireEmblemEngage_FallenPetalsNew_tbs/2
 BYTE   FINE

//**************** Track 2 (Midi-Chn.1) ****************//

FireEmblemEngage_FallenPetalsNew_002:
//  #02 //000   ----------------------------------------
 BYTE   KEYSH   FireEmblemEngage_FallenPetalsNew_key+0
 BYTE   VOICE   0
 BYTE   MODT 0
 BYTE   LFOS 44
 BYTE   VOL   13*FireEmblemEngage_FallenPetalsNew_mvl/mxv
 BYTE   BENDR  12
 BYTE   PAN   c_v+0
 BYTE   W96
//  #02 //001   ----------------------------------------
 BYTE   W96
//  #02 //002   ----------------------------------------
 BYTE   W96
//  #02 //003   ----------------------------------------
 BYTE   W96
//  #02 //004   ----------------------------------------
 BYTE   W96
//  #02 //005   ----------------------------------------
 BYTE   W96
//  #02 //006   ----------------------------------------
 BYTE   W96
//  #02 //007   ----------------------------------------
 BYTE   W96
//  #02 //008   ----------------------------------------
 BYTE   W96
//  #02 //009   ----------------------------------------
 BYTE   W96
//  #02 //010   ----------------------------------------
 BYTE   W96
//  #02 //011   ----------------------------------------
 BYTE   W96
//  #02 //012   ----------------------------------------
 BYTE   W12
 BYTE   N32  Cn2  v104
 BYTE   W36
 BYTE   N52  Gs2
 BYTE   W48
//  #02 //013   ----------------------------------------
 BYTE   W06
 BYTE   N17  Fn2
 BYTE   W18
 BYTE   N68
 BYTE   W72
//  #02 //014   ----------------------------------------
 BYTE   N44  En2
 BYTE   W48
 BYTE   N11  Fn2
 BYTE   W12
 BYTE   Gn2
 BYTE   W12
 BYTE   N68
 BYTE   W24
//  #02 //015   ----------------------------------------
 BYTE   W48
 BYTE   Cn2
 BYTE   W48
//  #02 //016   ----------------------------------------
 BYTE   W60
 BYTE   N32
 BYTE   W36
//  #02 //017   ----------------------------------------
 BYTE   N52  Fn2
 BYTE   W54
 BYTE   N17  Cn3
 BYTE   W18
 BYTE   N68
 BYTE   W24
//  #02 //018   ----------------------------------------
 BYTE   W48
 BYTE   As2
 BYTE   W48
//  #02 //019   ----------------------------------------
 BYTE   W24
 BYTE   Gs2
 BYTE   W72
//  #02 //020   ----------------------------------------
 BYTE   N44  Gn2
 BYTE   W48
 BYTE   N11  Fn2
 BYTE   W12
 BYTE   Gn2
 BYTE   W12
 BYTE   TIE  Gs2
 BYTE   W24
//  #02 //021   ----------------------------------------
 BYTE   W80
 BYTE   W03
 BYTE   EOT
 BYTE   W01
 BYTE   N32  As2
 BYTE   W12
//  #02 //022   ----------------------------------------
 BYTE   W24
 BYTE   TIE  Gn2
 BYTE   W72
//  #02 //023   ----------------------------------------
 BYTE   W68
 BYTE   W03
 BYTE   EOT
 BYTE   W01
Label_01193338:
 BYTE   N05  Fn1  v104
 BYTE   W06
 BYTE   Cn2
 BYTE   W06
 BYTE   Fn2
 BYTE   W06
 BYTE   Gs2
 BYTE   W06
//  #02 //024   ----------------------------------------
 BYTE   Cn3
 BYTE   W06
 BYTE   Fn3
 BYTE   W06
 BYTE   Fn1
 BYTE   W06
 BYTE   Cn2
 BYTE   W06
 BYTE   Fn2
 BYTE   W06
 BYTE   Gs2
 BYTE   W06
 BYTE   Cn3
 BYTE   W06
 BYTE   Fn3
 BYTE   W06
 BYTE   Gs3
 BYTE   W06
 BYTE   Fn3
 BYTE   W06
 BYTE   Cn3
 BYTE   W06
 BYTE   Gs2
 BYTE   W06
 BYTE   Fn2
 BYTE   W06
 BYTE   Cn2
 BYTE   W06
 BYTE   Fn1
 BYTE   W06
 BYTE   Cn2
 BYTE   W06
//  #02 //025   ----------------------------------------
 BYTE   Fn2
 BYTE   W06
 BYTE   Gs2
 BYTE   W06
 BYTE   As2
 BYTE   W06
 BYTE   Cn3
 BYTE   W06
 BYTE   Gn1
 BYTE   W06
 BYTE   As1
 BYTE   W06
 BYTE   En2
 BYTE   W06
 BYTE   Gn2
 BYTE   W06
 BYTE   Cn3
 BYTE   W06
 BYTE   Cs3
 BYTE   W06
 BYTE   Gn1
 BYTE   W06
 BYTE   As1
 BYTE   W06
 BYTE   En2
 BYTE   W06
 BYTE   Gn2
 BYTE   W06
 BYTE   Cn3
 BYTE   W06
 BYTE   Cs3
 BYTE   W06
//  #02 //026   ----------------------------------------
 BYTE   En3
 BYTE   W06
 BYTE   Gn3
 BYTE   W06
 BYTE   As3
 BYTE   W06
 BYTE   Gn3
 BYTE   W06
 BYTE   En3
 BYTE   W06
 BYTE   Gn3
 BYTE   W06
 BYTE   En3
 BYTE   W06
 BYTE   Cn3
 BYTE   W06
 BYTE   En3
 BYTE   W06
 BYTE   Cn3
 BYTE   W06
 BYTE   Gn2
 BYTE   W06
 BYTE   En2
 BYTE   W06
 BYTE   Gs1
 BYTE   W06
 BYTE   Cn2
 BYTE   W06
 BYTE   Fn2
 BYTE   W06
 BYTE   Gs2
 BYTE   W06
//  #02 //027   ----------------------------------------
 BYTE   Cn3
 BYTE   W06
 BYTE   Ds3
 BYTE   W06
 BYTE   Gs1
 BYTE   W06
 BYTE   Cn2
 BYTE   W06
 BYTE   Fn2
 BYTE   W06
 BYTE   Gs2
 BYTE   W06
 BYTE   Cn3
 BYTE   W06
 BYTE   Fn3
 BYTE   W06
 BYTE   Cn4
 BYTE   W06
 BYTE   Gs3
 BYTE   W06
 BYTE   Fn3
 BYTE   W06
 BYTE   Gs3
 BYTE   W06
 BYTE   Fn3
 BYTE   W06
 BYTE   Cn3
 BYTE   W06
 BYTE   Gs2
 BYTE   W06
 BYTE   Cn3
 BYTE   W06
//  #02 //028   ----------------------------------------
 BYTE   Fn3
 BYTE   W06
 BYTE   Gs3
 BYTE   W06
 BYTE   Fn3
 BYTE   W06
 BYTE   Cn3
 BYTE   W06
 BYTE   An1
 BYTE   W06
 BYTE   Fn2
 BYTE   W06
 BYTE   An2
 BYTE   W06
 BYTE   Cn3
 BYTE   W06
 BYTE   Fn3
 BYTE   W06
 BYTE   An3
 BYTE   W06
 BYTE   An1
 BYTE   W06
 BYTE   Fn2
 BYTE   W06
 BYTE   An2
 BYTE   W06
 BYTE   Cn3
 BYTE   W06
 BYTE   Fn3
 BYTE   W06
 BYTE   Cs4
 BYTE   W06
//  #02 //029   ----------------------------------------
 BYTE   Cn4
 BYTE   W06
 BYTE   An3
 BYTE   W06
 BYTE   Fn3
 BYTE   W06
 BYTE   Cn3
 BYTE   W06
 BYTE   Fn3
 BYTE   W06
 BYTE   An3
 BYTE   W06
 BYTE   An1
 BYTE   W06
 BYTE   Fn2
 BYTE   W06
 BYTE   An2
 BYTE   W06
 BYTE   Cn3
 BYTE   W06
 BYTE   Fn3
 BYTE   W06
 BYTE   An3
 BYTE   W06
 BYTE   As1
 BYTE   W06
 BYTE   Cs2
 BYTE   W06
 BYTE   Fn2
 BYTE   W06
 BYTE   As2
 BYTE   W06
//  #02 //030   ----------------------------------------
 BYTE   Cs3
 BYTE   W06
 BYTE   Fn3
 BYTE   W06
 BYTE   Cs3
 BYTE   W06
 BYTE   Fn3
 BYTE   W06
 BYTE   As3
 BYTE   W06
 BYTE   Cs4
 BYTE   W06
 BYTE   Fn4
 BYTE   W06
 BYTE   As4
 BYTE   W06
 BYTE   Cs5
 BYTE   W06
 BYTE   As4
 BYTE   W06
 BYTE   Fn4
 BYTE   W06
 BYTE   Cs4
 BYTE   W06
 BYTE   As3
 BYTE   W06
 BYTE   Fn3
 BYTE   W06
 BYTE   Cs3
 BYTE   W06
 BYTE   As2
 BYTE   W06
//  #02 //031   ----------------------------------------
 BYTE   Fn2
 BYTE   W06
 BYTE   Cs2
 BYTE   W06
 BYTE   As1
 BYTE   W06
 BYTE   Fn1
 BYTE   W06
 BYTE   Fs1
 BYTE   W06
 BYTE   As1
 BYTE   W06
 BYTE   Cs2
 BYTE   W06
 BYTE   Fs2
 BYTE   W06
 BYTE   As2
 BYTE   W06
 BYTE   Cs3
 BYTE   W06
 BYTE   As2
 BYTE   W06
 BYTE   Cs3
 BYTE   W06
 BYTE   Fs3
 BYTE   W06
 BYTE   As3
 BYTE   W06
 BYTE   Cs4
 BYTE   W06
 BYTE   Fs4
 BYTE   W06
//  #02 //032   ----------------------------------------
 BYTE   As4
 BYTE   W06
 BYTE   Fs4
 BYTE   W06
 BYTE   Cs4
 BYTE   W06
 BYTE   As3
 BYTE   W06
 BYTE   Fs3
 BYTE   W06
 BYTE   Cs3
 BYTE   W06
 BYTE   As2
 BYTE   W06
 BYTE   Fs2
 BYTE   W06
 BYTE   Cs2
 BYTE   W06
 BYTE   As1
 BYTE   W06
 BYTE   Fs1
 BYTE   W06
 BYTE   Cs1
 BYTE   W06
 BYTE   TIE  Cn2
 BYTE   N05  Fn3
 BYTE   W06
 BYTE   Gs3
 BYTE   W06
 BYTE   Fn3
 BYTE   W06
 BYTE   Gs3
 BYTE   W06
//  #02 //033   ----------------------------------------
 BYTE   Fn3
 BYTE   W06
 BYTE   Cn3
 BYTE   W06
 BYTE   Fn3
 BYTE   W06
 BYTE   Gs3
 BYTE   W06
 BYTE   As3
 BYTE   W06
 BYTE   Cn4
 BYTE   W06
 BYTE   Gs3
 BYTE   W06
 BYTE   Fn3
 BYTE   W06
 BYTE   Fn4
 BYTE   W06
 BYTE   Cn4
 BYTE   W06
 BYTE   Gs3
 BYTE   W06
 BYTE   Cn4
 BYTE   W06
 BYTE   Gs3
 BYTE   W06
 BYTE   Fn3
 BYTE   W06
 BYTE   Cn3
 BYTE   W06
 BYTE   Gs3
 BYTE   W06
//  #02 //034   ----------------------------------------
 BYTE   Fn3
 BYTE   W06
 BYTE   Cn4
 BYTE   W06
 BYTE   Gs3
 BYTE   W06
 BYTE   Fn3
 BYTE   W06
 BYTE   Cn3
 BYTE   W06
 BYTE   En3
 BYTE   W06
 BYTE   Fn3
 BYTE   W06
 BYTE   Gn3
 BYTE   W06
 BYTE   Gs3
 BYTE   W06
 BYTE   As3
 BYTE   W06
 BYTE   Gn3
 BYTE   W06
 BYTE   Gs3
 BYTE   W06
 BYTE   Cn4
 BYTE   W06
 BYTE   Fn4
 BYTE   W06
 BYTE   Cn5
 BYTE   W06
 BYTE   Fn5
 BYTE   W06
//  #02 //035   ----------------------------------------
 BYTE   N02  Cn6
 BYTE   W03
 BYTE   As5
 BYTE   W03
 BYTE   Gn5
 BYTE   W03
 BYTE   En5
 BYTE   W03
 BYTE   Cn5
 BYTE   W03
 BYTE   As4
 BYTE   W03
 BYTE   Gn4
 BYTE   W03
 BYTE   En4
 BYTE   W03
 BYTE   Cs4
 BYTE   W03
 BYTE   Cn4
 BYTE   W03
 BYTE   As3
 BYTE   W03
 BYTE   Gn3
 BYTE   W03
 BYTE   En3
 BYTE   W03
 BYTE   Cs3
 BYTE   W03
 BYTE   Cn3
 BYTE   W03
 BYTE   As2
 BYTE   W02
 BYTE   EOT
 BYTE   Cn2
 BYTE   W01
 BYTE   N02  Gn2
 BYTE   W03
 BYTE   Fn2
 BYTE   W03
 BYTE   En2
 BYTE   W03
 BYTE   Cs2
 BYTE   W03
 BYTE   Cn2
 BYTE   W03
 BYTE   As1
 BYTE   W03
 BYTE   Gs1
 BYTE   W03
 BYTE   Gn1
 BYTE   W03
 BYTE   N68  Fn2
 BYTE   W24
//  #02 //036   ----------------------------------------
 BYTE   W48
 BYTE   N23
 BYTE   W24
 BYTE   N23
 BYTE   W24
//  #02 //037   ----------------------------------------
 BYTE   Gn2
 BYTE   W24
 BYTE   N68  Gs2
 BYTE   W72
//  #02 //038   ----------------------------------------
 BYTE   Fn2
 BYTE   W72
 BYTE   Ds2
 BYTE   W24
//  #02 //039   ----------------------------------------
 BYTE   W66
 BYTE   N17
 BYTE   W18
 BYTE   N17
 BYTE   W12
//  #02 //040   ----------------------------------------
 BYTE   W06
 BYTE   Fn2
 BYTE   W18
 BYTE   N23  Gn2
 BYTE   W24
 BYTE   Ds2
 BYTE   W24
 BYTE   Cn2
 BYTE   W24
//  #02 //041   ----------------------------------------
 BYTE   Ds2
 BYTE   W24
 BYTE   Cn2
 BYTE   W24
 BYTE   As1
 BYTE   W24
 BYTE   N68
 BYTE   W24
//  #02 //042   ----------------------------------------
 BYTE   W48
 BYTE   N44  Cs2
 BYTE   W48
//  #02 //043   ----------------------------------------
 BYTE   N23  Ds2
 BYTE   W24
 BYTE   N68  Fn2
 BYTE   W72
//  #02 //044   ----------------------------------------
 BYTE   As2
 BYTE   W72
 BYTE   TIE  Gn2
 BYTE   W24
//  #02 //045   ----------------------------------------
 BYTE   W96
//  #02 //046   ----------------------------------------
 BYTE   W23
 BYTE   EOT
 BYTE   W01
 BYTE   N23  Fs2
 BYTE   W24
 BYTE   N23
 BYTE   W24
 BYTE   Fn2
 BYTE   W04
 BYTE   W05
 BYTE   W04
 BYTE   W05
 BYTE   W04
 BYTE   W02
//  #02 //047   ----------------------------------------
 BYTE   Ds2
 BYTE   W03
 BYTE   W04
 BYTE   W05
 BYTE   W04
 BYTE   W05
 BYTE   W03
 BYTE   As1
 BYTE   W01
 BYTE   W05
 BYTE   W04
 BYTE   W02
 BYTE   N02  Ds5
 BYTE   W03
 BYTE   Cs5
 BYTE   W03
 BYTE   Cn5
 BYTE   W01
 BYTE   W02
 BYTE   As4
 BYTE   W03
 BYTE   N23  Gs1
 BYTE   N02  Gs4
 BYTE   W03
 BYTE   Gn4
 BYTE   W03
 BYTE   Fn4
 BYTE   W03
 BYTE   Ds4
 BYTE   W03
 BYTE   Cs4
 BYTE   W03
 BYTE   Cn4
 BYTE   W03
 BYTE   As3
 BYTE   W03
 BYTE   Gs3
 BYTE   W03
 BYTE   Fs1
 BYTE   W03
 BYTE   An1
 BYTE   W03
 BYTE   Bn1
 BYTE   W03
 BYTE   Cs2
 BYTE   W03
 BYTE   Ds2
 BYTE   W03
 BYTE   En2
 BYTE   W03
 BYTE   Fs2
 BYTE   W03
 BYTE   Gs2
 BYTE   W03
//  #02 //048   ----------------------------------------
 BYTE   An2
 BYTE   W03
 BYTE   Bn2
 BYTE   W03
 BYTE   Cs3
 BYTE   W03
 BYTE   Ds3
 BYTE   W03
 BYTE   En3
 BYTE   W03
 BYTE   Fs3
 BYTE   W03
 BYTE   Gs3
 BYTE   W03
 BYTE   An3
 BYTE   W03
 BYTE   Bn3
 BYTE   W03
 BYTE   Cs4
 BYTE   W03
 BYTE   Ds4
 BYTE   W03
 BYTE   En4
 BYTE   W03
 BYTE   Fs4
 BYTE   W03
 BYTE   Gs4
 BYTE   W03
 BYTE   An4
 BYTE   W03
 BYTE   Bn4
 BYTE   W03
 BYTE   Cs5
 BYTE   W03
 BYTE   Bn4
 BYTE   W03
 BYTE   An4
 BYTE   W03
 BYTE   Gs4
 BYTE   W03
 BYTE   Fs4
 BYTE   W03
 BYTE   En4
 BYTE   W03
 BYTE   Ds4
 BYTE   W03
 BYTE   Cs4
 BYTE   W03
 BYTE   Bn3
 BYTE   W03
 BYTE   An3
 BYTE   W03
 BYTE   Gs3
 BYTE   W03
 BYTE   Fs3
 BYTE   W03
 BYTE   En3
 BYTE   W03
 BYTE   Ds3
 BYTE   W03
 BYTE   Cs3
 BYTE   W03
 BYTE   Bn2
 BYTE   W03
//  #02 //049   ----------------------------------------
 BYTE   An2
 BYTE   W03
 BYTE   Gs2
 BYTE   W03
 BYTE   Fs2
 BYTE   W03
 BYTE   En2
 BYTE   W03
 BYTE   Ds2
 BYTE   W03
 BYTE   Cs2
 BYTE   W03
 BYTE   Bn1
 BYTE   W03
 BYTE   An1
 BYTE   W03
 BYTE   Bn1
 BYTE   W03
 BYTE   Cs2
 BYTE   W03
 BYTE   Ds2
 BYTE   W03
 BYTE   Fs2
 BYTE   W03
 BYTE   An2
 BYTE   W03
 BYTE   Bn2
 BYTE   W03
 BYTE   Cs3
 BYTE   W03
 BYTE   Ds3
 BYTE   W03
 BYTE   Fs3
 BYTE   W03
 BYTE   An3
 BYTE   W03
 BYTE   Bn3
 BYTE   W03
 BYTE   Cs4
 BYTE   W03
 BYTE   An2
 BYTE   W03
 BYTE   Bn2
 BYTE   W03
 BYTE   Cs3
 BYTE   W03
 BYTE   Ds3
 BYTE   W03
 BYTE   Fs3
 BYTE   W03
 BYTE   An3
 BYTE   W03
 BYTE   Bn3
 BYTE   W03
 BYTE   Cs4
 BYTE   W03
 BYTE   Ds4
 BYTE   W03
 BYTE   Fs4
 BYTE   W03
 BYTE   An4
 BYTE   W03
 BYTE   As4
 BYTE   W03
//  #02 //050   ----------------------------------------
 BYTE   Bn4
 BYTE   W03
 BYTE   An4
 BYTE   W03
 BYTE   Fs4
 BYTE   W03
 BYTE   Ds4
 BYTE   W03
 BYTE   Cs4
 BYTE   W03
 BYTE   Bn3
 BYTE   W03
 BYTE   An3
 BYTE   W03
 BYTE   Fs3
 BYTE   W03
 BYTE   Ds3
 BYTE   W03
 BYTE   Cs3
 BYTE   W03
 BYTE   Fs4
 BYTE   W03
 BYTE   Ds4
 BYTE   W03
 BYTE   N32  An1
 BYTE   N02  Cs4
 BYTE   W03
 BYTE   Bn3
 BYTE   W03
 BYTE   An3
 BYTE   W03
 BYTE   Fs3
 BYTE   W03
 BYTE   Ds3
 BYTE   W03
 BYTE   Cs3
 BYTE   W03
 BYTE   Bn2
 BYTE   W03
 BYTE   An2
 BYTE   W03
 BYTE   Fs2
 BYTE   W03
 BYTE   Ds2
 BYTE   W03
 BYTE   Cs2
 BYTE   W03
 BYTE   Bn1
 BYTE   W03
 BYTE   TIE  Gs1
 BYTE   N02  Bn1
 BYTE   W03
 BYTE   Cs2
 BYTE   W03
 BYTE   Ds2
 BYTE   W03
 BYTE   Fs2
 BYTE   W03
 BYTE   An2
 BYTE   W03
 BYTE   Bn2
 BYTE   W03
 BYTE   Cs3
 BYTE   W03
 BYTE   Ds3
 BYTE   W03
//  #02 //051   ----------------------------------------
 BYTE   Fs3
 BYTE   W03
 BYTE   An3
 BYTE   W03
 BYTE   Bn3
 BYTE   W03
 BYTE   Cs4
 BYTE   W03
 BYTE   An2
 BYTE   W03
 BYTE   Bn2
 BYTE   W03
 BYTE   Cs3
 BYTE   W03
 BYTE   Ds3
 BYTE   W03
 BYTE   Fs3
 BYTE   W03
 BYTE   An3
 BYTE   W03
 BYTE   Bn3
 BYTE   W03
 BYTE   Cs4
 BYTE   W03
 BYTE   Ds4
 BYTE   W03
 BYTE   Fs4
 BYTE   W03
 BYTE   An4
 BYTE   W03
 BYTE   As4
 BYTE   W03
 BYTE   Bn4
 BYTE   W03
 BYTE   An4
 BYTE   W03
 BYTE   Fs4
 BYTE   W03
 BYTE   Ds4
 BYTE   W03
 BYTE   Cs4
 BYTE   W03
 BYTE   Bn3
 BYTE   W03
 BYTE   An3
 BYTE   W03
 BYTE   Fs3
 BYTE   W03
 BYTE   Ds3
 BYTE   W03
 BYTE   Cs3
 BYTE   W03
 BYTE   Fs4
 BYTE   W03
 BYTE   Ds4
 BYTE   W03
 BYTE   Cs4
 BYTE   W03
 BYTE   Bn3
 BYTE   W03
 BYTE   An3
 BYTE   W03
 BYTE   Fs3
 BYTE   W03
//  #02 //052   ----------------------------------------
 BYTE   Ds3
 BYTE   W03
 BYTE   Cs3
 BYTE   W03
 BYTE   Bn2
 BYTE   W03
 BYTE   An2
 BYTE   W03
 BYTE   Fs2
 BYTE   W03
 BYTE   Ds2
 BYTE   W03
 BYTE   Cs2
 BYTE   W03
 BYTE   Bn1
 BYTE   W02
 BYTE   EOT
 BYTE   Gs1
 BYTE   W01
 BYTE   TIE  Cs1
 BYTE   N02  Cs2
 BYTE   W03
 BYTE   Fn2
 BYTE   W03
 BYTE   Gs2
 BYTE   W03
 BYTE   Cn3
 BYTE   W03
 BYTE   Cs3
 BYTE   W03
 BYTE   Fn3
 BYTE   W03
 BYTE   Gs3
 BYTE   W03
 BYTE   Cn4
 BYTE   W03
 BYTE   Cs4
 BYTE   W03
 BYTE   Fn4
 BYTE   W03
 BYTE   Gs4
 BYTE   W03
 BYTE   Cn5
 BYTE   W03
 BYTE   Gs4
 BYTE   W03
 BYTE   Fn4
 BYTE   W03
 BYTE   Cs4
 BYTE   W03
 BYTE   Fn4
 BYTE   W03
 BYTE   Cs4
 BYTE   W03
 BYTE   Cn4
 BYTE   W03
 BYTE   As3
 BYTE   W03
 BYTE   Cn4
 BYTE   W03
 BYTE   Cs4
 BYTE   W03
 BYTE   Fn4
 BYTE   W03
 BYTE   Gs4
 BYTE   W03
 BYTE   Cn5
 BYTE   W03
//  #02 //053   ----------------------------------------
 BYTE   Cs5
 BYTE   W03
 BYTE   Cn5
 BYTE   W03
 BYTE   Gs4
 BYTE   W03
 BYTE   Fn4
 BYTE   W03
 BYTE   Cs4
 BYTE   W03
 BYTE   Cn4
 BYTE   W03
 BYTE   Gs3
 BYTE   W03
 BYTE   Fn3
 BYTE   W03
 BYTE   Cs3
 BYTE   W03
 BYTE   Cn3
 BYTE   W03
 BYTE   Gs2
 BYTE   W03
 BYTE   Fn2
 BYTE   W03
 BYTE   Cn3
 BYTE   W03
 BYTE   Cs3
 BYTE   W03
 BYTE   Fn3
 BYTE   W03
 BYTE   Gs3
 BYTE   W03
 BYTE   Cn4
 BYTE   W03
 BYTE   Gs3
 BYTE   W03
 BYTE   Fn3
 BYTE   W03
 BYTE   Cs3
 BYTE   W03
 BYTE   Cn3
 BYTE   W03
 BYTE   Gs2
 BYTE   W03
 BYTE   Fn2
 BYTE   W03
 BYTE   Cs2
 BYTE   W02
 BYTE   EOT
 BYTE   Cs1
 BYTE   W01
 BYTE   TIE  An1
 BYTE   W24
//  #02 //054   ----------------------------------------
 BYTE   W96
//  #02 //055   ----------------------------------------
 BYTE   W23
 BYTE   EOT
 BYTE   W01
 BYTE   TIE  Dn2
 BYTE   W72
//  #02 //056   ----------------------------------------
 BYTE   W32
 BYTE   W03
 BYTE   EOT
 BYTE   W01
 BYTE   N32  Cn2
 BYTE   W36
 BYTE   TIE  Bn1
 BYTE   W24
//  #02 //057   ----------------------------------------
 BYTE   W96
//  #02 //058   ----------------------------------------
 BYTE   W23
 BYTE   EOT
 BYTE   W01
 BYTE   TIE  En2
 BYTE   W72
//  #02 //059   ----------------------------------------
 BYTE   W68
 BYTE   W03
 BYTE   EOT
 BYTE   W01
 BYTE   N68
 BYTE   W24
//  #02 //060   ----------------------------------------
 BYTE   W48
 BYTE   N68
 BYTE   W48
//  #02 //061   ----------------------------------------
 BYTE   W24
 BYTE   N68
 BYTE   W72
//  #02 //062   ----------------------------------------
 BYTE   N68
 BYTE   W96
//  #02 //063   ----------------------------------------
 BYTE   W96
//  #02 //064   ----------------------------------------
 BYTE   W96
//  #02 //065   ----------------------------------------
 BYTE   W96
//  #02 //066   ----------------------------------------
 BYTE   W96
//  #02 //067   ----------------------------------------
 BYTE   W96
//  #02 //068   ----------------------------------------
 BYTE   W96
//  #02 //069   ----------------------------------------
 BYTE   W96
//  #02 //070   ----------------------------------------
 BYTE   W96
//  #02 //071   ----------------------------------------
 BYTE   W96
//  #02 //072   ----------------------------------------
 BYTE   W12
 BYTE   N32  Ds2
 BYTE   W36
 BYTE   N52  Gs2
 BYTE   W48
//  #02 //073   ----------------------------------------
Label_01193712:
 BYTE   W06
 BYTE   N17  Bn2  v104
 BYTE   W18
 BYTE   TIE  As2
 BYTE   W72
 BYTE   PEND 
//  #02 //074   ----------------------------------------
 BYTE   W68
 BYTE   W03
 BYTE   EOT
 BYTE   W01
 BYTE   N68  Gs2
 BYTE   W24
//  #02 //075   ----------------------------------------
 BYTE   W48
 BYTE   Gn2
 BYTE   W48
//  #02 //076   ----------------------------------------
Label_01193725:
 BYTE   W24
 BYTE   N32  Gn2  v104
 BYTE   W36
 BYTE   N92  Fs2
 BYTE   W36
 BYTE   PEND 
//  #02 //077   ----------------------------------------
 BYTE   W96
//  #02 //078   ----------------------------------------
 BYTE   W12
 BYTE   N32  Gs2
 BYTE   W36
 BYTE   N44  Gn2
 BYTE   W48
//  #02 //079   ----------------------------------------
 BYTE   N11  Gs2
 BYTE   W12
 BYTE   As2
 BYTE   W12
 BYTE   N68  Bn2
 BYTE   W72
//  #02 //080   ----------------------------------------
 BYTE   Gs2
 BYTE   W02
 BYTE   W02
 BYTE   W02
 BYTE   W03
 BYTE   W02
 BYTE   W02
 BYTE   W02
 BYTE   W03
 BYTE   W02
 BYTE   W02
 BYTE   W02
 BYTE   W03
 BYTE   W02
 BYTE   W02
 BYTE   W02
 BYTE   W03
 BYTE   W02
 BYTE   W02
 BYTE   W02
 BYTE   W03
 BYTE   W02
 BYTE   W02
 BYTE   W02
 BYTE   W03
 BYTE   W02
 BYTE   W02
 BYTE   W02
 BYTE   W03
 BYTE   W02
 BYTE   W02
 BYTE   W02
 BYTE   W03
 BYTE   W24
//  #02 //081   ----------------------------------------
 BYTE   W12
 BYTE   N32
 BYTE   W36
 BYTE   N52  Bn2
 BYTE   W48
//  #02 //082   ----------------------------------------
 BYTE   W06
 BYTE   N17  Fs2
 BYTE   W18
 BYTE   N68  Gs2
 BYTE   W72
//  #02 //083   ----------------------------------------
 BYTE   Gn2
 BYTE   W96
//  #02 //084   ----------------------------------------
 BYTE   W12
 BYTE   N32  Ds2
 BYTE   W36
 BYTE   N52  Gs2
 BYTE   W48
//  #02 //085   ----------------------------------------
 BYTE   PATT
  POIN2 Label_01193712
//  #02 //086   ----------------------------------------
 BYTE   W68
 BYTE   W03
 BYTE   EOT
 BYTE   As2
 BYTE   W01
 BYTE   N68  Gs2  v104
 BYTE   W24
//  #02 //087   ----------------------------------------
 BYTE   W48
 BYTE   Gn2
 BYTE   W48
//  #02 //088   ----------------------------------------
 BYTE   PATT
  POIN2 Label_01193725
//  #02 //089   ----------------------------------------
 BYTE   W96
//  #02 //090   ----------------------------------------
 BYTE   W96
//  #02 //091   ----------------------------------------
 BYTE   W96
//  #02 //092   ----------------------------------------
 BYTE   W72
 BYTE   TIE  En2  v104
 BYTE   W24
//  #02 //093   ----------------------------------------
 BYTE   W96
//  #02 //094   ----------------------------------------
 BYTE   W23
 BYTE   EOT
 BYTE   W01
 BYTE   TIE  Fs2
 BYTE   W72
//  #02 //095   ----------------------------------------
 BYTE   W68
 BYTE   W03
 BYTE   EOT
 BYTE   W24
 BYTE   W01
//  #02 //096   ----------------------------------------
 BYTE   W96
//  #02 //097   ----------------------------------------
 BYTE   W96
//  #02 //098   ----------------------------------------
 BYTE   W96
//  #02 //099   ----------------------------------------
 BYTE   W96
//  #02 //100   ----------------------------------------
 BYTE   W96
//  #02 //101   ----------------------------------------
 BYTE   W96
//  #02 //102   ----------------------------------------
 BYTE   W96
//  #02 //103   ----------------------------------------
 BYTE   W96
//  #02 //104   ----------------------------------------
 BYTE   W96
//  #02 //105   ----------------------------------------
 BYTE   W84
 BYTE   N32  Cn2
 BYTE   W12
//  #02 //106   ----------------------------------------
 BYTE   W24
 BYTE   N52  Gs2
 BYTE   W54
 BYTE   N17  Fn2
 BYTE   W18
//  #02 //107   ----------------------------------------
 BYTE   N68
 BYTE   W72
 BYTE   N44  En2
 BYTE   W24
//  #02 //108   ----------------------------------------
 BYTE   W24
 BYTE   N11  Fn2
 BYTE   W12
 BYTE   Gn2
 BYTE   W12
 BYTE   N68
 BYTE   W48
//  #02 //109   ----------------------------------------
 BYTE   W24
 BYTE   Cn2
 BYTE   W72
//  #02 //110   ----------------------------------------
 BYTE   W36
 BYTE   N32
 BYTE   W36
 BYTE   N52  Fn2
 BYTE   W24
//  #02 //111   ----------------------------------------
 BYTE   W30
 BYTE   N17  Cn3
 BYTE   W18
 BYTE   N68
 BYTE   W48
//  #02 //112   ----------------------------------------
 BYTE   W24
 BYTE   As2
 BYTE   W72
//  #02 //113   ----------------------------------------
 BYTE   Gs2
 BYTE   W72
 BYTE   N44  Gn2
 BYTE   W24
//  #02 //114   ----------------------------------------
 BYTE   W24
 BYTE   N11  Fn2
 BYTE   W12
 BYTE   Gn2
 BYTE   W12
 BYTE   TIE  Gs2
 BYTE   W48
//  #02 //115   ----------------------------------------
 BYTE   W56
 BYTE   W03
 BYTE   EOT
 BYTE   W01
 BYTE   N32  As2
 BYTE   W36
//  #02 //116   ----------------------------------------
 BYTE   TIE  Gn2
 BYTE   W96
//  #02 //117   ----------------------------------------
 BYTE   W44
 BYTE   W03
 BYTE   EOT
 BYTE   W01
 BYTE   GoTo
  POIN2 Label_01193338
//  #02 //118   ----------------------------------------
 BYTE   N05  Fn1  v104
 BYTE   W06
 BYTE   Cn2
 BYTE   W06
 BYTE   Fn2
 BYTE   W06
 BYTE   Gs2
 BYTE   W06
 BYTE   Cn3
 BYTE   W06
 BYTE   Fn3
 BYTE   W06
 BYTE   Fn1
 BYTE   W06
 BYTE   Cn2
 BYTE   W06
 BYTE   Fn2
 BYTE   W06
 BYTE   Gs2
 BYTE   W06
 BYTE   Cn3
 BYTE   W06
 BYTE   Fn3
 BYTE   W06
 BYTE   Gs3
 BYTE   W06
 BYTE   Fn3
 BYTE   W06
 BYTE   Cn3
 BYTE   W06
 BYTE   Gs2
 BYTE   W06
//  #02 //119   ----------------------------------------
 BYTE   Fn2
 BYTE   W06
 BYTE   Cn2
 BYTE   W06
 BYTE   Fn1
 BYTE   W06
 BYTE   Cn2
 BYTE   W06
 BYTE   Fn2
 BYTE   W06
 BYTE   Gs2
 BYTE   W06
 BYTE   As2
 BYTE   W06
 BYTE   Cn3
 BYTE   W06
 BYTE   Gn1
 BYTE   W06
 BYTE   As1
 BYTE   W06
 BYTE   En2
 BYTE   W06
 BYTE   Gn2
 BYTE   W06
 BYTE   Cn3
 BYTE   W06
 BYTE   Cs3
 BYTE   W06
 BYTE   Gn1
 BYTE   W06
 BYTE   As1
 BYTE   W06
//  #02 //120   ----------------------------------------
 BYTE   En2
 BYTE   W06
 BYTE   Gn2
 BYTE   W06
 BYTE   Cn3
 BYTE   W06
 BYTE   Cs3
 BYTE   W06
 BYTE   En3
 BYTE   W06
 BYTE   Gn3
 BYTE   W06
 BYTE   As3
 BYTE   W06
 BYTE   Gn3
 BYTE   W06
 BYTE   En3
 BYTE   W06
 BYTE   Gn3
 BYTE   W06
 BYTE   En3
 BYTE   W06
 BYTE   Cn3
 BYTE   W06
 BYTE   En3
 BYTE   W06
 BYTE   Cn3
 BYTE   W06
 BYTE   Gn2
 BYTE   W06
 BYTE   En2
 BYTE   W06
//  #02 //121   ----------------------------------------
 BYTE   Gs1
 BYTE   W06
 BYTE   Cn2
 BYTE   W06
 BYTE   Fn2
 BYTE   W06
 BYTE   Gs2
 BYTE   W06
 BYTE   Cn3
 BYTE   W06
 BYTE   Ds3
 BYTE   W06
 BYTE   Gs1
 BYTE   W06
 BYTE   Cn2
 BYTE   W06
 BYTE   Fn2
 BYTE   W06
 BYTE   Gs2
 BYTE   W06
 BYTE   Cn3
 BYTE   W06
 BYTE   Fn3
 BYTE   W06
 BYTE   Cn4
 BYTE   W06
 BYTE   Gs3
 BYTE   W06
 BYTE   Fn3
 BYTE   W06
 BYTE   Gs3
 BYTE   W06
//  #02 //122   ----------------------------------------
 BYTE   Fn3
 BYTE   W06
 BYTE   Cn3
 BYTE   W06
 BYTE   Gs2
 BYTE   W06
 BYTE   Cn3
 BYTE   W06
 BYTE   Fn3
 BYTE   W06
 BYTE   Gs3
 BYTE   W06
 BYTE   Fn3
 BYTE   W06
 BYTE   Cn3
 BYTE   W06
 BYTE   An1
 BYTE   W06
 BYTE   Fn2
 BYTE   W06
 BYTE   An2
 BYTE   W06
 BYTE   Cn3
 BYTE   W06
 BYTE   Fn3
 BYTE   W06
 BYTE   An3
 BYTE   W06
 BYTE   An1
 BYTE   W06
 BYTE   Fn2
 BYTE   W06
//  #02 //123   ----------------------------------------
 BYTE   An2
 BYTE   W06
 BYTE   Cn3
 BYTE   W06
 BYTE   Fn3
 BYTE   W06
 BYTE   Cs4
 BYTE   W06
 BYTE   Cn4
 BYTE   W06
 BYTE   An3
 BYTE   W06
 BYTE   Fn3
 BYTE   W06
 BYTE   Cn3
 BYTE   W06
 BYTE   Fn3
 BYTE   W06
 BYTE   An3
 BYTE   W06
 BYTE   An1
 BYTE   W06
 BYTE   Fn2
 BYTE   W06
 BYTE   An2
 BYTE   W06
 BYTE   Cn3
 BYTE   W06
 BYTE   Fn3
 BYTE   W06
 BYTE   An3
 BYTE   W06
//  #02 //124   ----------------------------------------
 BYTE   As1
 BYTE   W06
 BYTE   Cs2
 BYTE   W06
 BYTE   Fn2
 BYTE   W06
 BYTE   As2
 BYTE   W06
 BYTE   Cs3
 BYTE   W06
 BYTE   Fn3
 BYTE   W06
 BYTE   Cs3
 BYTE   W06
 BYTE   Fn3
 BYTE   W06
 BYTE   As3
 BYTE   W06
 BYTE   Cs4
 BYTE   W06
 BYTE   Fn4
 BYTE   W06
 BYTE   As4
 BYTE   W06
 BYTE   Cs5
 BYTE   W06
 BYTE   As4
 BYTE   W06
 BYTE   Fn4
 BYTE   W06
 BYTE   Cs4
 BYTE   W06
//  #02 //125   ----------------------------------------
 BYTE   As3
 BYTE   W06
 BYTE   Fn3
 BYTE   W06
 BYTE   Cs3
 BYTE   W06
 BYTE   As2
 BYTE   W06
 BYTE   Fn2
 BYTE   W06
 BYTE   Cs2
 BYTE   W06
 BYTE   As1
 BYTE   W06
 BYTE   Fn1
 BYTE   W06
 BYTE   Fs1
 BYTE   W06
 BYTE   As1
 BYTE   W06
 BYTE   Cs2
 BYTE   W06
 BYTE   Fs2
 BYTE   W06
 BYTE   As2
 BYTE   W06
 BYTE   Cs3
 BYTE   W06
 BYTE   As2
 BYTE   W06
 BYTE   Cs3
 BYTE   W06
//  #02 //126   ----------------------------------------
 BYTE   Fs3
 BYTE   W06
 BYTE   As3
 BYTE   W06
 BYTE   Cs4
 BYTE   W06
 BYTE   Fs4
 BYTE   W06
 BYTE   As4
 BYTE   W06
 BYTE   Fs4
 BYTE   W06
 BYTE   Cs4
 BYTE   W06
 BYTE   As3
 BYTE   W06
 BYTE   Fs3
 BYTE   W06
 BYTE   Cs3
 BYTE   W06
 BYTE   As2
 BYTE   W06
 BYTE   Fs2
 BYTE   W06
 BYTE   Cs2
 BYTE   W06
 BYTE   As1
 BYTE   W06
 BYTE   Fs1
 BYTE   W06
 BYTE   Cs1
 BYTE   W06
//  #02 //127   ----------------------------------------
 BYTE   TIE  Cn2
 BYTE   N05  Fn3
 BYTE   W06
 BYTE   Gs3
 BYTE   W06
 BYTE   Fn3
 BYTE   W06
 BYTE   Gs3
 BYTE   W06
 BYTE   Fn3
 BYTE   W06
 BYTE   Cn3
 BYTE   W06
 BYTE   Fn3
 BYTE   W06
 BYTE   Gs3
 BYTE   W06
 BYTE   As3
 BYTE   W06
 BYTE   Cn4
 BYTE   W06
 BYTE   Gs3
 BYTE   W06
 BYTE   Fn3
 BYTE   W06
 BYTE   Fn4
 BYTE   W06
 BYTE   Cn4
 BYTE   W06
 BYTE   Gs3
 BYTE   W06
 BYTE   Cn4
 BYTE   W06
//  #02 //128   ----------------------------------------
 BYTE   Gs3
 BYTE   W06
 BYTE   Fn3
 BYTE   W06
 BYTE   Cn3
 BYTE   W06
 BYTE   Gs3
 BYTE   W06
 BYTE   Fn3
 BYTE   W06
 BYTE   Cn4
 BYTE   W06
 BYTE   Gs3
 BYTE   W06
 BYTE   Fn3
 BYTE   W06
 BYTE   Cn3
 BYTE   W06
 BYTE   En3
 BYTE   W06
 BYTE   Fn3
 BYTE   W06
 BYTE   Gn3
 BYTE   W06
 BYTE   Gs3
 BYTE   W06
 BYTE   As3
 BYTE   W06
 BYTE   Gn3
 BYTE   W06
 BYTE   Gs3
 BYTE   W06
//  #02 //129   ----------------------------------------
 BYTE   Cn4
 BYTE   W06
 BYTE   Fn4
 BYTE   W06
 BYTE   Cn5
 BYTE   W06
 BYTE   Fn5
 BYTE   W06
 BYTE   N02  Cn6
 BYTE   W03
 BYTE   As5
 BYTE   W03
 BYTE   Gn5
 BYTE   W03
 BYTE   En5
 BYTE   W03
 BYTE   Cn5
 BYTE   W03
 BYTE   As4
 BYTE   W03
 BYTE   Gn4
 BYTE   W03
 BYTE   En4
 BYTE   W03
 BYTE   Cs4
 BYTE   W03
 BYTE   Cn4
 BYTE   W03
 BYTE   As3
 BYTE   W03
 BYTE   Gn3
 BYTE   W03
 BYTE   En3
 BYTE   W03
 BYTE   Cs3
 BYTE   W03
 BYTE   Cn3
 BYTE   W03
 BYTE   As2
 BYTE   W02
 BYTE   EOT
 BYTE   Cn2
 BYTE   W01
 BYTE   N02  Gn2
 BYTE   W03
 BYTE   Fn2
 BYTE   W03
 BYTE   En2
 BYTE   W03
 BYTE   Cs2
 BYTE   W03
 BYTE   Cn2
 BYTE   W03
 BYTE   As1
 BYTE   W03
 BYTE   Gs1
 BYTE   W03
 BYTE   Gn1
 BYTE   W03
//  #02 //130   ----------------------------------------
 BYTE   N68  Fn2
 BYTE   W48
 BYTE   W24
 BYTE   N23
 BYTE   W24
//  #02 //131   ----------------------------------------
 BYTE   N23
 BYTE   W24
 BYTE   Gn2
 BYTE   W24
 BYTE   N68  Gs2
 BYTE   W72
//  #02 //132   ----------------------------------------
 BYTE   Fn2
 BYTE   W24
 BYTE   W48
 BYTE   Ds2
 BYTE   W48
//  #02 //133   ----------------------------------------
 BYTE   W42
 BYTE   N17
 BYTE   W18
 BYTE   N17
 BYTE   W18
 BYTE   Fn2
 BYTE   W18
//  #02 //134   ----------------------------------------
 BYTE   N23  Gn2
 BYTE   W24
 BYTE   Ds2
 BYTE   W24
 BYTE   Cn2
 BYTE   W24
 BYTE   Ds2
 BYTE   W24
//  #02 //135   ----------------------------------------
 BYTE   Cn2
 BYTE   W24
 BYTE   As1
 BYTE   W24
 BYTE   N68
 BYTE   W48
//  #02 //136   ----------------------------------------
 BYTE   W24
 BYTE   N44  Cs2
 BYTE   W48
 BYTE   N23  Ds2
 BYTE   W24
//  #02 //137   ----------------------------------------
 BYTE   N68  Fn2
 BYTE   W72
 BYTE   As2
 BYTE   W24
//  #02 //138   ----------------------------------------
 BYTE   W48
 BYTE   TIE  Gn2
 BYTE   W48
//  #02 //139   ----------------------------------------
 BYTE   W92
 BYTE   W03
 BYTE   EOT
 BYTE   W01
//  #02 //140   ----------------------------------------
 BYTE   N23  Fs2
 BYTE   W24
 BYTE   N23
 BYTE   W24
 BYTE   Fn2
 BYTE   W04
 BYTE   W05
 BYTE   W04
 BYTE   W05
 BYTE   W04
 BYTE   W02
 BYTE   Ds2
 BYTE   W03
 BYTE   W04
 BYTE   W05
 BYTE   W04
 BYTE   W05
 BYTE   W03
//  #02 //141   ----------------------------------------
 BYTE   As1
 BYTE   W01
 BYTE   W05
 BYTE   W04
 BYTE   W02
 BYTE   N02  Ds5
 BYTE   W03
 BYTE   Cs5
 BYTE   W03
 BYTE   Cn5
 BYTE   W01
 BYTE   W02
 BYTE   As4
 BYTE   W03
 BYTE   N23  Gs1
 BYTE   N02  Gs4
 BYTE   W03
 BYTE   Gn4
 BYTE   W03
 BYTE   Fn4
 BYTE   W03
 BYTE   Ds4
 BYTE   W03
 BYTE   Cs4
 BYTE   W03
 BYTE   Cn4
 BYTE   W03
 BYTE   As3
 BYTE   W03
 BYTE   Gs3
 BYTE   W03
 BYTE   Fs1
 BYTE   W03
 BYTE   An1
 BYTE   W03
 BYTE   Bn1
 BYTE   W03
 BYTE   Cs2
 BYTE   W03
 BYTE   Ds2
 BYTE   W03
 BYTE   En2
 BYTE   W03
 BYTE   Fs2
 BYTE   W03
 BYTE   Gs2
 BYTE   W03
 BYTE   An2
 BYTE   W03
 BYTE   Bn2
 BYTE   W03
 BYTE   Cs3
 BYTE   W03
 BYTE   Ds3
 BYTE   W03
 BYTE   En3
 BYTE   W03
 BYTE   Fs3
 BYTE   W03
 BYTE   Gs3
 BYTE   W03
 BYTE   An3
 BYTE   W03
//  #02 //142   ----------------------------------------
 BYTE   Bn3
 BYTE   W03
 BYTE   Cs4
 BYTE   W03
 BYTE   Ds4
 BYTE   W03
 BYTE   En4
 BYTE   W03
 BYTE   Fs4
 BYTE   W03
 BYTE   Gs4
 BYTE   W03
 BYTE   An4
 BYTE   W03
 BYTE   Bn4
 BYTE   W03
 BYTE   Cs5
 BYTE   W03
 BYTE   Bn4
 BYTE   W03
 BYTE   An4
 BYTE   W03
 BYTE   Gs4
 BYTE   W03
 BYTE   Fs4
 BYTE   W03
 BYTE   En4
 BYTE   W03
 BYTE   Ds4
 BYTE   W03
 BYTE   Cs4
 BYTE   W03
 BYTE   Bn3
 BYTE   W03
 BYTE   An3
 BYTE   W03
 BYTE   Gs3
 BYTE   W03
 BYTE   Fs3
 BYTE   W03
 BYTE   En3
 BYTE   W03
 BYTE   Ds3
 BYTE   W03
 BYTE   Cs3
 BYTE   W03
 BYTE   Bn2
 BYTE   W03
 BYTE   An2
 BYTE   W03
 BYTE   Gs2
 BYTE   W03
 BYTE   Fs2
 BYTE   W03
 BYTE   En2
 BYTE   W03
 BYTE   Ds2
 BYTE   W03
 BYTE   Cs2
 BYTE   W03
 BYTE   Bn1
 BYTE   W03
 BYTE   An1
 BYTE   W03
//  #02 //143   ----------------------------------------
 BYTE   Bn1
 BYTE   W03
 BYTE   Cs2
 BYTE   W03
 BYTE   Ds2
 BYTE   W03
 BYTE   Fs2
 BYTE   W03
 BYTE   An2
 BYTE   W03
 BYTE   Bn2
 BYTE   W03
 BYTE   Cs3
 BYTE   W03
 BYTE   Ds3
 BYTE   W03
 BYTE   Fs3
 BYTE   W03
 BYTE   An3
 BYTE   W03
 BYTE   Bn3
 BYTE   W03
 BYTE   Cs4
 BYTE   W03
 BYTE   An2
 BYTE   W03
 BYTE   Bn2
 BYTE   W03
 BYTE   Cs3
 BYTE   W03
 BYTE   Ds3
 BYTE   W03
 BYTE   Fs3
 BYTE   W03
 BYTE   An3
 BYTE   W03
 BYTE   Bn3
 BYTE   W03
 BYTE   Cs4
 BYTE   W03
 BYTE   Ds4
 BYTE   W03
 BYTE   Fs4
 BYTE   W03
 BYTE   An4
 BYTE   W03
 BYTE   As4
 BYTE   W03
 BYTE   Bn4
 BYTE   W03
 BYTE   An4
 BYTE   W03
 BYTE   Fs4
 BYTE   W03
 BYTE   Ds4
 BYTE   W03
 BYTE   Cs4
 BYTE   W03
 BYTE   Bn3
 BYTE   W03
 BYTE   An3
 BYTE   W03
 BYTE   Fs3
 BYTE   W03
//  #02 //144   ----------------------------------------
 BYTE   Ds3
 BYTE   W03
 BYTE   Cs3
 BYTE   W03
 BYTE   Fs4
 BYTE   W03
 BYTE   Ds4
 BYTE   W03
 BYTE   N32  An1
 BYTE   N02  Cs4
 BYTE   W03
 BYTE   Bn3
 BYTE   W03
 BYTE   An3
 BYTE   W03
 BYTE   Fs3
 BYTE   W03
 BYTE   Ds3
 BYTE   W03
 BYTE   Cs3
 BYTE   W03
 BYTE   Bn2
 BYTE   W03
 BYTE   An2
 BYTE   W03
 BYTE   Fs2
 BYTE   W03
 BYTE   Ds2
 BYTE   W03
 BYTE   Cs2
 BYTE   W03
 BYTE   Bn1
 BYTE   W03
 BYTE   TIE  Gs1
 BYTE   N02  Bn1
 BYTE   W03
 BYTE   Cs2
 BYTE   W03
 BYTE   Ds2
 BYTE   W03
 BYTE   Fs2
 BYTE   W03
 BYTE   An2
 BYTE   W03
 BYTE   Bn2
 BYTE   W03
 BYTE   Cs3
 BYTE   W03
 BYTE   Ds3
 BYTE   W03
 BYTE   Fs3
 BYTE   W03
 BYTE   An3
 BYTE   W03
 BYTE   Bn3
 BYTE   W03
 BYTE   Cs4
 BYTE   W03
 BYTE   An2
 BYTE   W03
 BYTE   Bn2
 BYTE   W03
 BYTE   Cs3
 BYTE   W03
 BYTE   Ds3
 BYTE   W03
//  #02 //145   ----------------------------------------
 BYTE   Fs3
 BYTE   W03
 BYTE   An3
 BYTE   W03
 BYTE   Bn3
 BYTE   W03
 BYTE   Cs4
 BYTE   W03
 BYTE   Ds4
 BYTE   W03
 BYTE   Fs4
 BYTE   W03
 BYTE   An4
 BYTE   W03
 BYTE   As4
 BYTE   W03
 BYTE   Bn4
 BYTE   W03
 BYTE   An4
 BYTE   W03
 BYTE   Fs4
 BYTE   W03
 BYTE   Ds4
 BYTE   W03
 BYTE   Cs4
 BYTE   W03
 BYTE   Bn3
 BYTE   W03
 BYTE   An3
 BYTE   W03
 BYTE   Fs3
 BYTE   W03
 BYTE   Ds3
 BYTE   W03
 BYTE   Cs3
 BYTE   W03
 BYTE   Fs4
 BYTE   W03
 BYTE   Ds4
 BYTE   W03
 BYTE   Cs4
 BYTE   W03
 BYTE   Bn3
 BYTE   W03
 BYTE   An3
 BYTE   W03
 BYTE   Fs3
 BYTE   W03
 BYTE   Ds3
 BYTE   W03
 BYTE   Cs3
 BYTE   W03
 BYTE   Bn2
 BYTE   W03
 BYTE   An2
 BYTE   W03
 BYTE   Fs2
 BYTE   W03
 BYTE   Ds2
 BYTE   W03
 BYTE   Cs2
 BYTE   W03
 BYTE   Bn1
 BYTE   W02
 BYTE   EOT
 BYTE   Gs1
 BYTE   W01
//  #02 //146   ----------------------------------------
 BYTE   TIE  Cs1
 BYTE   N02  Cs2
 BYTE   W03
 BYTE   Fn2
 BYTE   W03
 BYTE   Gs2
 BYTE   W03
 BYTE   Cn3
 BYTE   W03
 BYTE   Cs3
 BYTE   W03
 BYTE   Fn3
 BYTE   W03
 BYTE   Gs3
 BYTE   W03
 BYTE   Cn4
 BYTE   W03
 BYTE   Cs4
 BYTE   W03
 BYTE   Fn4
 BYTE   W03
 BYTE   Gs4
 BYTE   W03
 BYTE   Cn5
 BYTE   W03
 BYTE   Gs4
 BYTE   W03
 BYTE   Fn4
 BYTE   W03
 BYTE   Cs4
 BYTE   W03
 BYTE   Fn4
 BYTE   W03
 BYTE   Cs4
 BYTE   W03
 BYTE   Cn4
 BYTE   W03
 BYTE   As3
 BYTE   W03
 BYTE   Cn4
 BYTE   W03
 BYTE   Cs4
 BYTE   W03
 BYTE   Fn4
 BYTE   W03
 BYTE   Gs4
 BYTE   W03
 BYTE   Cn5
 BYTE   W03
 BYTE   Cs5
 BYTE   W03
 BYTE   Cn5
 BYTE   W03
 BYTE   Gs4
 BYTE   W03
 BYTE   Fn4
 BYTE   W03
 BYTE   Cs4
 BYTE   W03
 BYTE   Cn4
 BYTE   W03
 BYTE   Gs3
 BYTE   W03
 BYTE   Fn3
 BYTE   W03
//  #02 //147   ----------------------------------------
 BYTE   Cs3
 BYTE   W03
 BYTE   Cn3
 BYTE   W03
 BYTE   Gs2
 BYTE   W03
 BYTE   Fn2
 BYTE   W03
 BYTE   Cn3
 BYTE   W03
 BYTE   Cs3
 BYTE   W03
 BYTE   Fn3
 BYTE   W03
 BYTE   Gs3
 BYTE   W03
 BYTE   Cn4
 BYTE   W03
 BYTE   Gs3
 BYTE   W03
 BYTE   Fn3
 BYTE   W03
 BYTE   Cs3
 BYTE   W03
 BYTE   Cn3
 BYTE   W03
 BYTE   Gs2
 BYTE   W03
 BYTE   Fn2
 BYTE   W03
 BYTE   Cs2
 BYTE   W02
 BYTE   EOT
 BYTE   Cs1
 BYTE   W01
 BYTE   TIE  An1
 BYTE   W48
//  #02 //148   ----------------------------------------
 BYTE   W92
 BYTE   W03
 BYTE   EOT
 BYTE   W01
//  #02 //149   ----------------------------------------
 BYTE   TIE  Dn2
 BYTE   W96
//  #02 //150   ----------------------------------------
 BYTE   W11
 BYTE   EOT
 BYTE   W01
 BYTE   N32  Cn2
 BYTE   W36
 BYTE   TIE  Bn1
 BYTE   W48
//  #02 //151   ----------------------------------------
 BYTE   W92
 BYTE   W03
 BYTE   EOT
 BYTE   W01
//  #02 //152   ----------------------------------------
 BYTE   TIE  En2
 BYTE   W96
//  #02 //153   ----------------------------------------
 BYTE   W44
 BYTE   W03
 BYTE   EOT
 BYTE   W01
 BYTE   N68
 BYTE   W48
//  #02 //154   ----------------------------------------
 BYTE   W24
 BYTE   N68
 BYTE   W72
//  #02 //155   ----------------------------------------
 BYTE   N68
 BYTE   W72
 BYTE   N68
 BYTE   W24
//  #02 //156   ----------------------------------------
 BYTE   W96
//  #02 //157   ----------------------------------------
 BYTE   W96
//  #02 //158   ----------------------------------------
 BYTE   W96
//  #02 //159   ----------------------------------------
 BYTE   W96
//  #02 //160   ----------------------------------------
 BYTE   W96
//  #02 //161   ----------------------------------------
 BYTE   W96
//  #02 //162   ----------------------------------------
 BYTE   W96
//  #02 //163   ----------------------------------------
 BYTE   W96
//  #02 //164   ----------------------------------------
 BYTE   W96
//  #02 //165   ----------------------------------------
 BYTE   W84
 BYTE   N32  Ds2
 BYTE   W12
//  #02 //166   ----------------------------------------
Label_01193BCA:
 BYTE   W24
 BYTE   N52  Gs2  v104
 BYTE   W54
 BYTE   N17  Bn2
 BYTE   W18
 BYTE   PEND 
//  #02 //167   ----------------------------------------
 BYTE   TIE  As2
 BYTE   W96
//  #02 //168   ----------------------------------------
 BYTE   W44
 BYTE   W03
 BYTE   EOT
 BYTE   W01
 BYTE   N68  Gs2
 BYTE   W48
//  #02 //169   ----------------------------------------
 BYTE   W24
 BYTE   Gn2
 BYTE   W72
//  #02 //170   ----------------------------------------
Label_01193BE0:
 BYTE   N32  Gn2  v104
 BYTE   W36
 BYTE   N92  Fs2
 BYTE   W60
 BYTE   PEND 
//  #02 //171   ----------------------------------------
 BYTE   W84
 BYTE   N32  Gs2
 BYTE   W12
//  #02 //172   ----------------------------------------
 BYTE   W24
 BYTE   N44  Gn2
 BYTE   W48
 BYTE   N11  Gs2
 BYTE   W12
 BYTE   As2
 BYTE   W12
//  #02 //173   ----------------------------------------
 BYTE   N68  Bn2
 BYTE   W72
 BYTE   Gs2
 BYTE   W02
 BYTE   W02
 BYTE   W02
 BYTE   W03
 BYTE   W02
 BYTE   W02
 BYTE   W02
 BYTE   W03
 BYTE   W02
 BYTE   W02
 BYTE   W02
//  #02 //174   ----------------------------------------
 BYTE   W03
 BYTE   W02
 BYTE   W02
 BYTE   W02
 BYTE   W03
 BYTE   W02
 BYTE   W02
 BYTE   W02
 BYTE   W03
 BYTE   W02
 BYTE   W02
 BYTE   W02
 BYTE   W03
 BYTE   W02
 BYTE   W02
 BYTE   W02
 BYTE   W03
 BYTE   W02
 BYTE   W02
 BYTE   W02
 BYTE   W03
 BYTE   W36
 BYTE   N32
 BYTE   W12
//  #02 //175   ----------------------------------------
 BYTE   W24
 BYTE   N52  Bn2
 BYTE   W54
 BYTE   N17  Fs2
 BYTE   W18
//  #02 //176   ----------------------------------------
 BYTE   N68  Gs2
 BYTE   W72
 BYTE   Gn2
 BYTE   W24
//  #02 //177   ----------------------------------------
 BYTE   W84
 BYTE   N32  Ds2
 BYTE   W12
//  #02 //178   ----------------------------------------
 BYTE   PATT
  POIN2 Label_01193BCA
//  #02 //179   ----------------------------------------
 BYTE   TIE  As2  v104
 BYTE   W96
//  #02 //180   ----------------------------------------
 BYTE   W44
 BYTE   W03
 BYTE   EOT
 BYTE   W01
 BYTE   N68  Gs2
 BYTE   W48
//  #02 //181   ----------------------------------------
 BYTE   W24
 BYTE   Gn2
 BYTE   W72
//  #02 //182   ----------------------------------------
 BYTE   PATT
  POIN2 Label_01193BE0
//  #02 //183   ----------------------------------------
 BYTE   W96
//  #02 //184   ----------------------------------------
 BYTE   W96
//  #02 //185   ----------------------------------------
 BYTE   W96
//  #02 //186   ----------------------------------------
 BYTE   W48
 BYTE   TIE  En2  v104
 BYTE   W48
//  #02 //187   ----------------------------------------
 BYTE   W92
 BYTE   W03
 BYTE   EOT
 BYTE   W01
//  #02 //188   ----------------------------------------
 BYTE   TIE  Fs2
 BYTE   W96
//  #02 //189   ----------------------------------------
 BYTE   W44
 BYTE   W03
 BYTE   EOT
 BYTE   W48
 BYTE   W01
//  #02 //190   ----------------------------------------
 BYTE   W96
//  #02 //191   ----------------------------------------
 BYTE   W96
//  #02 //192   ----------------------------------------
 BYTE   W96
//  #02 //193   ----------------------------------------
 BYTE   W24
 BYTE   FINE

//**************** Track 3 (Midi-Chn.2) ****************//

FireEmblemEngage_FallenPetalsNew_003:
//  #03 //000   ----------------------------------------
 BYTE   KEYSH   FireEmblemEngage_FallenPetalsNew_key+0
 BYTE   VOICE   45
 BYTE   MODT 0
 BYTE   LFOS 44
 BYTE   VOL   33*FireEmblemEngage_FallenPetalsNew_mvl/mxv
 BYTE   BENDR  12
 BYTE   PAN   c_v+0
 BYTE   W24
 BYTE   N92  Gn0  v104
 BYTE   W72
//  #03 //001   ----------------------------------------
 BYTE   W24
 BYTE   As0
 BYTE   W72
//  #03 //002   ----------------------------------------
 BYTE   W24
 BYTE   Cs1
 BYTE   W72
//  #03 //003   ----------------------------------------
 BYTE   W24
 BYTE   En0
 BYTE   W72
//  #03 //004   ----------------------------------------
 BYTE   W24
 BYTE   Gn0
 BYTE   W72
//  #03 //005   ----------------------------------------
 BYTE   W24
 BYTE   As0
 BYTE   W72
//  #03 //006   ----------------------------------------
 BYTE   W24
 BYTE   Dn1
 BYTE   W72
//  #03 //007   ----------------------------------------
 BYTE   W24
 BYTE   Cs1
 BYTE   W72
//  #03 //008   ----------------------------------------
 BYTE   W96
//  #03 //009   ----------------------------------------
 BYTE   W96
//  #03 //010   ----------------------------------------
 BYTE   W96
//  #03 //011   ----------------------------------------
 BYTE   W96
//  #03 //012   ----------------------------------------
 BYTE   W96
//  #03 //013   ----------------------------------------
 BYTE   W96
//  #03 //014   ----------------------------------------
 BYTE   W96
//  #03 //015   ----------------------------------------
 BYTE   W96
//  #03 //016   ----------------------------------------
 BYTE   W96
//  #03 //017   ----------------------------------------
 BYTE   W96
//  #03 //018   ----------------------------------------
 BYTE   W96
//  #03 //019   ----------------------------------------
 BYTE   W96
//  #03 //020   ----------------------------------------
 BYTE   W96
//  #03 //021   ----------------------------------------
 BYTE   W96
//  #03 //022   ----------------------------------------
 BYTE   W96
//  #03 //023   ----------------------------------------
 BYTE   W72
Label_01191678:
 BYTE   TIE  Fn0  v104
 BYTE   W24
//  #03 //024   ----------------------------------------
 BYTE   W96
//  #03 //025   ----------------------------------------
 BYTE   W23
 BYTE   EOT
 BYTE   W01
 BYTE   TIE  Gn0
 BYTE   W72
//  #03 //026   ----------------------------------------
 BYTE   W68
 BYTE   W03
 BYTE   EOT
 BYTE   W01
 BYTE   TIE  Gs0
 BYTE   W24
//  #03 //027   ----------------------------------------
 BYTE   W96
//  #03 //028   ----------------------------------------
 BYTE   W23
 BYTE   EOT
 BYTE   W01
 BYTE   TIE  An0
 BYTE   W72
//  #03 //029   ----------------------------------------
 BYTE   W68
 BYTE   W03
 BYTE   EOT
 BYTE   W01
 BYTE   TIE  As0
 BYTE   W24
//  #03 //030   ----------------------------------------
 BYTE   W96
//  #03 //031   ----------------------------------------
 BYTE   W23
 BYTE   EOT
 BYTE   W01
 BYTE   TIE  Fs0
 BYTE   W72
//  #03 //032   ----------------------------------------
 BYTE   W68
 BYTE   W03
 BYTE   EOT
 BYTE   W01
 BYTE   TIE  Cn1
 BYTE   W24
//  #03 //033   ----------------------------------------
 BYTE   W96
//  #03 //034   ----------------------------------------
 BYTE   W96
//  #03 //035   ----------------------------------------
 BYTE   W44
 BYTE   W03
 BYTE   EOT
 BYTE   W24
 BYTE   W01
 BYTE   TIE  Cs1
 BYTE   W24
//  #03 //036   ----------------------------------------
 BYTE   W96
//  #03 //037   ----------------------------------------
 BYTE   W96
//  #03 //038   ----------------------------------------
 BYTE   W68
 BYTE   W03
 BYTE   EOT
 BYTE   W01
 BYTE   TIE  Cn1
 BYTE   W24
//  #03 //039   ----------------------------------------
 BYTE   W96
//  #03 //040   ----------------------------------------
 BYTE   W96
//  #03 //041   ----------------------------------------
 BYTE   W68
 BYTE   W03
 BYTE   EOT
 BYTE   W01
 BYTE   TIE  As0
 BYTE   W24
//  #03 //042   ----------------------------------------
 BYTE   W96
//  #03 //043   ----------------------------------------
 BYTE   W23
 BYTE   EOT
 BYTE   W01
 BYTE   TIE  Ds1
 BYTE   W72
//  #03 //044   ----------------------------------------
 BYTE   W32
 BYTE   W03
 BYTE   EOT
 BYTE   W01
 BYTE   N32  As0
 BYTE   W36
 BYTE   TIE  Gs0
 BYTE   W24
//  #03 //045   ----------------------------------------
 BYTE   W96
//  #03 //046   ----------------------------------------
 BYTE   W96
//  #03 //047   ----------------------------------------
 BYTE   W68
 BYTE   W03
 BYTE   EOT
 BYTE   W01
 BYTE   TIE  Fs1
 BYTE   W24
//  #03 //048   ----------------------------------------
 BYTE   W96
//  #03 //049   ----------------------------------------
 BYTE   W23
 BYTE   EOT
 BYTE   W01
 BYTE   TIE  Bn1
 BYTE   W72
//  #03 //050   ----------------------------------------
 BYTE   W32
 BYTE   W03
 BYTE   EOT
 BYTE   W01
 BYTE   N32  An1
 BYTE   W36
 BYTE   TIE  Gs1
 BYTE   W24
//  #03 //051   ----------------------------------------
 BYTE   W96
//  #03 //052   ----------------------------------------
 BYTE   W23
 BYTE   EOT
 BYTE   W01
 BYTE   TIE  Cs1
 BYTE   W72
//  #03 //053   ----------------------------------------
 BYTE   W68
 BYTE   W03
 BYTE   EOT
 BYTE   W01
 BYTE   TIE  An0
 BYTE   W24
//  #03 //054   ----------------------------------------
 BYTE   W96
//  #03 //055   ----------------------------------------
 BYTE   W23
 BYTE   EOT
 BYTE   W01
 BYTE   TIE  Dn1
 BYTE   W72
//  #03 //056   ----------------------------------------
 BYTE   W32
 BYTE   W03
 BYTE   EOT
 BYTE   W01
 BYTE   N32  Cn1
 BYTE   W36
 BYTE   TIE  Bn0
 BYTE   W24
//  #03 //057   ----------------------------------------
 BYTE   W96
//  #03 //058   ----------------------------------------
 BYTE   W23
 BYTE   EOT
 BYTE   W01
 BYTE   TIE  En1
 BYTE   W72
//  #03 //059   ----------------------------------------
 BYTE   W68
 BYTE   W03
 BYTE   EOT
 BYTE   W01
 BYTE   N68  Fn1
 BYTE   W24
//  #03 //060   ----------------------------------------
 BYTE   W48
 BYTE   N68
 BYTE   W48
//  #03 //061   ----------------------------------------
 BYTE   W24
 BYTE   Fs1
 BYTE   W72
//  #03 //062   ----------------------------------------
 BYTE   N68
 BYTE   W72
 BYTE   Bn1
 BYTE   W24
//  #03 //063   ----------------------------------------
Label_01191724:
 BYTE   W48
 BYTE   N17  Bn1  v104
 BYTE   W18
 BYTE   Cn2
 BYTE   W18
 BYTE   N52  Bn1
 BYTE   W12
 BYTE   PEND 
//  #03 //064   ----------------------------------------
 BYTE   W42
 BYTE   N17
 BYTE   W18
 BYTE   N17
 BYTE   W18
 BYTE   Fs1
 BYTE   W18
//  #03 //065   ----------------------------------------
 BYTE   N68  Bn1
 BYTE   W72
 BYTE   N17
 BYTE   W18
 BYTE   Cn2
 BYTE   W06
//  #03 //066   ----------------------------------------
 BYTE   W12
 BYTE   N52  Bn1
 BYTE   W54
 BYTE   N17
 BYTE   W18
 BYTE   N17
 BYTE   W12
//  #03 //067   ----------------------------------------
 BYTE   W06
 BYTE   Gs1
 BYTE   W18
 BYTE   N68
 BYTE   W72
//  #03 //068   ----------------------------------------
 BYTE   N17
 BYTE   W18
 BYTE   Bn1
 BYTE   W18
 BYTE   N52  Gs1
 BYTE   W54
 BYTE   N17
 BYTE   W06
//  #03 //069   ----------------------------------------
 BYTE   W12
 BYTE   En2
 BYTE   W18
 BYTE   Bn1
 BYTE   W18
 BYTE   TIE  As1
 BYTE   W48
//  #03 //070   ----------------------------------------
 BYTE   W56
 BYTE   W03
 BYTE   EOT
 BYTE   W01
 BYTE   N11  Ds2
 BYTE   W36
//  #03 //071   ----------------------------------------
 BYTE   W72
 BYTE   TIE  Gs1
 BYTE   W24
//  #03 //072   ----------------------------------------
 BYTE   W96
//  #03 //073   ----------------------------------------
 BYTE   W23
 BYTE   EOT
 BYTE   W01
 BYTE   TIE  Fs1
 BYTE   W72
//  #03 //074   ----------------------------------------
 BYTE   W68
 BYTE   W03
 BYTE   EOT
 BYTE   W01
 BYTE   TIE  En1
 BYTE   W24
//  #03 //075   ----------------------------------------
 BYTE   W96
//  #03 //076   ----------------------------------------
 BYTE   W23
 BYTE   EOT
 BYTE   W01
 BYTE   N32  Bn0
 BYTE   W36
 BYTE   N92
 BYTE   W36
//  #03 //077   ----------------------------------------
 BYTE   W72
 BYTE   N68  As0
 BYTE   W24
//  #03 //078   ----------------------------------------
 BYTE   W48
 BYTE   Ds1
 BYTE   W48
//  #03 //079   ----------------------------------------
 BYTE   W24
 BYTE   Gs1
 BYTE   W72
//  #03 //080   ----------------------------------------
 BYTE   Cs1
 BYTE   W72
 BYTE   TIE  En1
 BYTE   W24
//  #03 //081   ----------------------------------------
 BYTE   W96
//  #03 //082   ----------------------------------------
 BYTE   W23
 BYTE   EOT
 BYTE   W01
 BYTE   N68  As0
 BYTE   W72
//  #03 //083   ----------------------------------------
 BYTE   Ds1
 BYTE   W72
 BYTE   TIE  Gs1
 BYTE   W24
//  #03 //084   ----------------------------------------
 BYTE   W96
//  #03 //085   ----------------------------------------
 BYTE   W23
 BYTE   EOT
 BYTE   W01
 BYTE   TIE  Fs1
 BYTE   W72
//  #03 //086   ----------------------------------------
 BYTE   W68
 BYTE   W03
 BYTE   EOT
 BYTE   W01
 BYTE   TIE  En1
 BYTE   W24
//  #03 //087   ----------------------------------------
 BYTE   W96
//  #03 //088   ----------------------------------------
 BYTE   W23
 BYTE   EOT
 BYTE   W01
 BYTE   N32  Bn0
 BYTE   W36
 BYTE   N92
 BYTE   W36
//  #03 //089   ----------------------------------------
 BYTE   W96
//  #03 //090   ----------------------------------------
 BYTE   W96
//  #03 //091   ----------------------------------------
 BYTE   W96
//  #03 //092   ----------------------------------------
 BYTE   W72
 BYTE   TIE  En1
 BYTE   W24
//  #03 //093   ----------------------------------------
 BYTE   W96
//  #03 //094   ----------------------------------------
 BYTE   W23
 BYTE   EOT
 BYTE   W01
 BYTE   TIE  Fs1
 BYTE   W72
//  #03 //095   ----------------------------------------
 BYTE   W68
 BYTE   W03
 BYTE   EOT
 BYTE   W24
 BYTE   W01
//  #03 //096   ----------------------------------------
 BYTE   W96
//  #03 //097   ----------------------------------------
 BYTE   W96
//  #03 //098   ----------------------------------------
 BYTE   W96
//  #03 //099   ----------------------------------------
 BYTE   W96
//  #03 //100   ----------------------------------------
 BYTE   W96
//  #03 //101   ----------------------------------------
 BYTE   W96
//  #03 //102   ----------------------------------------
 BYTE   W96
//  #03 //103   ----------------------------------------
 BYTE   W96
//  #03 //104   ----------------------------------------
 BYTE   W96
//  #03 //105   ----------------------------------------
 BYTE   W96
//  #03 //106   ----------------------------------------
 BYTE   W96
//  #03 //107   ----------------------------------------
 BYTE   W96
//  #03 //108   ----------------------------------------
 BYTE   W96
//  #03 //109   ----------------------------------------
 BYTE   W96
//  #03 //110   ----------------------------------------
 BYTE   W96
//  #03 //111   ----------------------------------------
 BYTE   W96
//  #03 //112   ----------------------------------------
 BYTE   W96
//  #03 //113   ----------------------------------------
 BYTE   W96
//  #03 //114   ----------------------------------------
 BYTE   W96
//  #03 //115   ----------------------------------------
 BYTE   W96
//  #03 //116   ----------------------------------------
 BYTE   W96
//  #03 //117   ----------------------------------------
 BYTE   W48
 BYTE   GoTo
  POIN2 Label_01191678
//  #03 //118   ----------------------------------------
 BYTE   TIE  Fn0  v104
 BYTE   W48
 BYTE   W92
//  #03 //119   ----------------------------------------
 BYTE   W03
 BYTE   EOT
 BYTE   W01
 BYTE   TIE  Gn0
 BYTE   W96
//  #03 //120   ----------------------------------------
 BYTE   W44
 BYTE   W03
 BYTE   EOT
 BYTE   W01
 BYTE   TIE  Gs0
 BYTE   W48
//  #03 //121   ----------------------------------------
 BYTE   W92
 BYTE   W03
 BYTE   EOT
 BYTE   W01
//  #03 //122   ----------------------------------------
 BYTE   TIE  An0
 BYTE   W96
//  #03 //123   ----------------------------------------
 BYTE   W44
 BYTE   W03
 BYTE   EOT
 BYTE   W01
 BYTE   TIE  As0
 BYTE   W48
//  #03 //124   ----------------------------------------
 BYTE   W92
 BYTE   W03
 BYTE   EOT
 BYTE   W01
//  #03 //125   ----------------------------------------
 BYTE   TIE  Fs0
 BYTE   W96
//  #03 //126   ----------------------------------------
 BYTE   W44
 BYTE   W03
 BYTE   EOT
 BYTE   W01
 BYTE   TIE  Cn1
 BYTE   W48
//  #03 //127   ----------------------------------------
 BYTE   W96
//  #03 //128   ----------------------------------------
 BYTE   W96
//  #03 //129   ----------------------------------------
 BYTE   W23
 BYTE   EOT
 BYTE   W24
 BYTE   W01
 BYTE   TIE  Cs1
 BYTE   W48
//  #03 //130   ----------------------------------------
 BYTE   W96
//  #03 //131   ----------------------------------------
 BYTE   W96
//  #03 //132   ----------------------------------------
 BYTE   W44
 BYTE   W03
 BYTE   EOT
 BYTE   W01
 BYTE   TIE  Cn1
 BYTE   W48
//  #03 //133   ----------------------------------------
 BYTE   W96
//  #03 //134   ----------------------------------------
 BYTE   W96
//  #03 //135   ----------------------------------------
 BYTE   W44
 BYTE   W03
 BYTE   EOT
 BYTE   W01
 BYTE   TIE  As0
 BYTE   W48
//  #03 //136   ----------------------------------------
 BYTE   W92
 BYTE   W03
 BYTE   EOT
 BYTE   W01
//  #03 //137   ----------------------------------------
 BYTE   TIE  Ds1
 BYTE   W96
//  #03 //138   ----------------------------------------
 BYTE   W11
 BYTE   EOT
 BYTE   W01
 BYTE   N32  As0
 BYTE   W36
 BYTE   TIE  Gs0
 BYTE   W48
//  #03 //139   ----------------------------------------
 BYTE   W96
//  #03 //140   ----------------------------------------
 BYTE   W96
//  #03 //141   ----------------------------------------
 BYTE   W44
 BYTE   W03
 BYTE   EOT
 BYTE   W01
 BYTE   TIE  Fs1
 BYTE   W48
//  #03 //142   ----------------------------------------
 BYTE   W92
 BYTE   W03
 BYTE   EOT
 BYTE   W01
//  #03 //143   ----------------------------------------
 BYTE   TIE  Bn1
 BYTE   W96
//  #03 //144   ----------------------------------------
 BYTE   W11
 BYTE   EOT
 BYTE   W01
 BYTE   N32  An1
 BYTE   W36
 BYTE   TIE  Gs1
 BYTE   W48
//  #03 //145   ----------------------------------------
 BYTE   W92
 BYTE   W03
 BYTE   EOT
 BYTE   W01
//  #03 //146   ----------------------------------------
 BYTE   TIE  Cs1
 BYTE   W96
//  #03 //147   ----------------------------------------
 BYTE   W44
 BYTE   W03
 BYTE   EOT
 BYTE   W01
 BYTE   TIE  An0
 BYTE   W48
//  #03 //148   ----------------------------------------
 BYTE   W92
 BYTE   W03
 BYTE   EOT
 BYTE   W01
//  #03 //149   ----------------------------------------
 BYTE   TIE  Dn1
 BYTE   W96
//  #03 //150   ----------------------------------------
 BYTE   W11
 BYTE   EOT
 BYTE   W01
 BYTE   N32  Cn1
 BYTE   W36
 BYTE   TIE  Bn0
 BYTE   W48
//  #03 //151   ----------------------------------------
 BYTE   W92
 BYTE   W03
 BYTE   EOT
 BYTE   W01
//  #03 //152   ----------------------------------------
 BYTE   TIE  En1
 BYTE   W96
//  #03 //153   ----------------------------------------
 BYTE   W44
 BYTE   W03
 BYTE   EOT
 BYTE   W01
 BYTE   N68  Fn1
 BYTE   W48
//  #03 //154   ----------------------------------------
 BYTE   W24
 BYTE   N68
 BYTE   W72
//  #03 //155   ----------------------------------------
 BYTE   Fs1
 BYTE   W72
 BYTE   N68
 BYTE   W24
//  #03 //156   ----------------------------------------
 BYTE   W48
 BYTE   Bn1
 BYTE   W48
//  #03 //157   ----------------------------------------
 BYTE   W24
 BYTE   N17
 BYTE   W18
 BYTE   Cn2
 BYTE   W18
 BYTE   N52  Bn1
 BYTE   W36
//  #03 //158   ----------------------------------------
 BYTE   W18
 BYTE   N17
 BYTE   W18
 BYTE   N17
 BYTE   W18
 BYTE   Fs1
 BYTE   W18
 BYTE   N68  Bn1
 BYTE   W24
//  #03 //159   ----------------------------------------
 BYTE   PATT
  POIN2 Label_01191724
//  #03 //160   ----------------------------------------
 BYTE   W42
 BYTE   N17  Bn1  v104
 BYTE   W18
 BYTE   N17
 BYTE   W18
 BYTE   Gs1
 BYTE   W18
//  #03 //161   ----------------------------------------
 BYTE   N68
 BYTE   W72
 BYTE   N17
 BYTE   W18
 BYTE   Bn1
 BYTE   W06
//  #03 //162   ----------------------------------------
 BYTE   W12
 BYTE   N52  Gs1
 BYTE   W54
 BYTE   N17
 BYTE   W18
 BYTE   En2
 BYTE   W12
//  #03 //163   ----------------------------------------
 BYTE   W06
 BYTE   Bn1
 BYTE   W18
 BYTE   TIE  As1
 BYTE   W72
//  #03 //164   ----------------------------------------
 BYTE   W32
 BYTE   W03
 BYTE   EOT
 BYTE   W01
 BYTE   N11  Ds2
 BYTE   W60
//  #03 //165   ----------------------------------------
Label_011918C0:
 BYTE   W48
 BYTE   TIE  Gs1  v104
 BYTE   W48
 BYTE   PEND 
//  #03 //166   ----------------------------------------
 BYTE   W92
 BYTE   W03
 BYTE   EOT
 BYTE   W01
//  #03 //167   ----------------------------------------
 BYTE   TIE  Fs1
 BYTE   W96
//  #03 //168   ----------------------------------------
 BYTE   W44
 BYTE   W03
 BYTE   EOT
 BYTE   W01
 BYTE   TIE  En1
 BYTE   W48
//  #03 //169   ----------------------------------------
 BYTE   W92
 BYTE   W03
 BYTE   EOT
 BYTE   W01
//  #03 //170   ----------------------------------------
Label_011918D8:
 BYTE   N32  Bn0  v104
 BYTE   W36
 BYTE   N92
 BYTE   W60
 BYTE   PEND 
//  #03 //171   ----------------------------------------
 BYTE   W48
 BYTE   N68  As0
 BYTE   W48
//  #03 //172   ----------------------------------------
 BYTE   W24
 BYTE   Ds1
 BYTE   W72
//  #03 //173   ----------------------------------------
 BYTE   Gs1
 BYTE   W72
 BYTE   Cs1
 BYTE   W24
//  #03 //174   ----------------------------------------
Label_011918EA:
 BYTE   W48
 BYTE   TIE  En1  v104
 BYTE   W48
 BYTE   PEND 
//  #03 //175   ----------------------------------------
 BYTE   W92
 BYTE   W03
 BYTE   EOT
 BYTE   W01
//  #03 //176   ----------------------------------------
 BYTE   N68  As0
 BYTE   W72
 BYTE   Ds1
 BYTE   W24
//  #03 //177   ----------------------------------------
 BYTE   PATT
  POIN2 Label_011918C0
//  #03 //178   ----------------------------------------
 BYTE   W92
 BYTE   W03
 BYTE   EOT
 BYTE   Gs1
 BYTE   W01
//  #03 //179   ----------------------------------------
 BYTE   TIE  Fs1  v104
 BYTE   W96
//  #03 //180   ----------------------------------------
 BYTE   W44
 BYTE   W03
 BYTE   EOT
 BYTE   W01
 BYTE   TIE  En1
 BYTE   W48
//  #03 //181   ----------------------------------------
 BYTE   W92
 BYTE   W03
 BYTE   EOT
 BYTE   W01
//  #03 //182   ----------------------------------------
 BYTE   PATT
  POIN2 Label_011918D8
//  #03 //183   ----------------------------------------
 BYTE   W96
//  #03 //184   ----------------------------------------
 BYTE   W96
//  #03 //185   ----------------------------------------
 BYTE   W96
//  #03 //186   ----------------------------------------
 BYTE   PATT
  POIN2 Label_011918EA
//  #03 //187   ----------------------------------------
 BYTE   W92
 BYTE   W03
 BYTE   EOT
 BYTE   En1
 BYTE   W01
//  #03 //188   ----------------------------------------
 BYTE   TIE  Fs1  v104
 BYTE   W96
//  #03 //189   ----------------------------------------
 BYTE   W44
 BYTE   W03
 BYTE   EOT
 BYTE   W48
 BYTE   W01
//  #03 //190   ----------------------------------------
 BYTE   W96
//  #03 //191   ----------------------------------------
 BYTE   W96
//  #03 //192   ----------------------------------------
 BYTE   W96
//  #03 //193   ----------------------------------------
 BYTE   W24
 BYTE   FINE

//**************** Track 4 (Midi-Chn.3) ****************//

FireEmblemEngage_FallenPetalsNew_004:
//  #04 //000   ----------------------------------------
 BYTE   KEYSH   FireEmblemEngage_FallenPetalsNew_key+0
 BYTE   VOICE   85
 BYTE   MODT 0
 BYTE   LFOS 44
 BYTE   VOL   33*FireEmblemEngage_FallenPetalsNew_mvl/mxv
 BYTE   BENDR  12
 BYTE   PAN   c_v+0
 BYTE   W24
 BYTE   N92  Dn4  v104
 BYTE   W72
//  #04 //001   ----------------------------------------
 BYTE   W24
 BYTE   Cs4
 BYTE   W72
//  #04 //002   ----------------------------------------
 BYTE   W24
 BYTE   En4
 BYTE   W72
//  #04 //003   ----------------------------------------
 BYTE   W24
 BYTE   N44  Dn4
 BYTE   W48
 BYTE   En4
 BYTE   W24
//  #04 //004   ----------------------------------------
 BYTE   W24
 BYTE   Dn4
 BYTE   W48
 BYTE   Gn4
 BYTE   W24
//  #04 //005   ----------------------------------------
 BYTE   W24
 BYTE   N92  Fn4
 BYTE   W72
//  #04 //006   ----------------------------------------
 BYTE   W24
 BYTE   N44
 BYTE   W48
 BYTE   Gn4
 BYTE   W24
//  #04 //007   ----------------------------------------
 BYTE   W24
 BYTE   N92  Gs4
 BYTE   W72
//  #04 //008   ----------------------------------------
 BYTE   W96
//  #04 //009   ----------------------------------------
 BYTE   W96
//  #04 //010   ----------------------------------------
 BYTE   W96
//  #04 //011   ----------------------------------------
 BYTE   W96
//  #04 //012   ----------------------------------------
 BYTE   W96
//  #04 //013   ----------------------------------------
 BYTE   W96
//  #04 //014   ----------------------------------------
 BYTE   W96
//  #04 //015   ----------------------------------------
 BYTE   W96
//  #04 //016   ----------------------------------------
 BYTE   W96
//  #04 //017   ----------------------------------------
 BYTE   W96
//  #04 //018   ----------------------------------------
 BYTE   W96
//  #04 //019   ----------------------------------------
 BYTE   W96
//  #04 //020   ----------------------------------------
 BYTE   W96
//  #04 //021   ----------------------------------------
 BYTE   W96
//  #04 //022   ----------------------------------------
 BYTE   W96
//  #04 //023   ----------------------------------------
 BYTE   W72
Label_0119460D:
 BYTE   W24
//  #04 //024   ----------------------------------------
 BYTE   W12
 BYTE   N32  Cn4  v104
 BYTE   W36
 BYTE   N52  Gs4
 BYTE   W48
//  #04 //025   ----------------------------------------
 BYTE   W06
 BYTE   N17  Fn4
 BYTE   W18
 BYTE   N68
 BYTE   W72
//  #04 //026   ----------------------------------------
 BYTE   N44  En4
 BYTE   W48
 BYTE   N11  Fn4
 BYTE   W12
 BYTE   Gn4
 BYTE   W12
 BYTE   N68
 BYTE   W24
//  #04 //027   ----------------------------------------
 BYTE   W48
 BYTE   Cn4
 BYTE   W48
//  #04 //028   ----------------------------------------
 BYTE   W60
 BYTE   N32
 BYTE   W36
//  #04 //029   ----------------------------------------
 BYTE   N52  Fn4
 BYTE   W54
 BYTE   N17  Cn5
 BYTE   W18
 BYTE   N68
 BYTE   W24
//  #04 //030   ----------------------------------------
 BYTE   W48
 BYTE   As4
 BYTE   W48
//  #04 //031   ----------------------------------------
 BYTE   W24
 BYTE   Gs4
 BYTE   W72
//  #04 //032   ----------------------------------------
 BYTE   Fs4
 BYTE   W72
 BYTE   TIE  Fn4
 BYTE   W24
//  #04 //033   ----------------------------------------
 BYTE   W80
 BYTE   W03
 BYTE   EOT
 BYTE   W01
 BYTE   N32  Gs4
 BYTE   W12
//  #04 //034   ----------------------------------------
 BYTE   W24
 BYTE   TIE  As4
 BYTE   W72
//  #04 //035   ----------------------------------------
 BYTE   W32
 BYTE   W03
 BYTE   EOT
 BYTE   W60
 BYTE   W01
//  #04 //036   ----------------------------------------
 BYTE   W96
//  #04 //037   ----------------------------------------
 BYTE   W96
//  #04 //038   ----------------------------------------
 BYTE   W96
//  #04 //039   ----------------------------------------
 BYTE   W96
//  #04 //040   ----------------------------------------
 BYTE   W96
//  #04 //041   ----------------------------------------
 BYTE   W96
//  #04 //042   ----------------------------------------
 BYTE   W96
//  #04 //043   ----------------------------------------
 BYTE   W96
//  #04 //044   ----------------------------------------
 BYTE   W96
//  #04 //045   ----------------------------------------
 BYTE   W96
//  #04 //046   ----------------------------------------
 BYTE   W96
//  #04 //047   ----------------------------------------
 BYTE   W72
 BYTE   N68  Gs3
 BYTE   W24
//  #04 //048   ----------------------------------------
 BYTE   W48
 BYTE   N68
 BYTE   W48
//  #04 //049   ----------------------------------------
 BYTE   W24
 BYTE   TIE  Fs3
 BYTE   W72
//  #04 //050   ----------------------------------------
 BYTE   W68
 BYTE   W03
 BYTE   EOT
 BYTE   W24
 BYTE   W01
//  #04 //051   ----------------------------------------
 BYTE   W12
 BYTE   N32
 BYTE   W36
 BYTE   TIE  An3
 BYTE   W48
//  #04 //052   ----------------------------------------
 BYTE   W92
 BYTE   W03
 BYTE   EOT
 BYTE   W01
//  #04 //053   ----------------------------------------
 BYTE   N44  Gs3
 BYTE   W01
 BYTE   W02
 BYTE   W01
 BYTE   W02
 BYTE   W01
 BYTE   W02
 BYTE   W01
 BYTE   W02
 BYTE   W01
 BYTE   W02
 BYTE   W02
 BYTE   W01
 BYTE   W02
 BYTE   W01
 BYTE   W02
 BYTE   W01
 BYTE   W02
 BYTE   W01
 BYTE   W02
 BYTE   W02
 BYTE   W01
 BYTE   W02
 BYTE   W01
 BYTE   W02
 BYTE   W01
 BYTE   W02
 BYTE   W01
 BYTE   W02
 BYTE   W01
 BYTE   W02
 BYTE   W02
 BYTE   W48
//  #04 //054   ----------------------------------------
 BYTE   W96
//  #04 //055   ----------------------------------------
 BYTE   W96
//  #04 //056   ----------------------------------------
 BYTE   W36
 BYTE   N17  Fs4
 BYTE   W18
 BYTE   Gn4
 BYTE   W18
 BYTE   N68  An4
 BYTE   W24
//  #04 //057   ----------------------------------------
 BYTE   W48
 BYTE   Gs4
 BYTE   W48
//  #04 //058   ----------------------------------------
 BYTE   W60
 BYTE   N32
 BYTE   W36
//  #04 //059   ----------------------------------------
 BYTE   N52  An4
 BYTE   W54
 BYTE   N17  Bn4
 BYTE   W18
 BYTE   N68
 BYTE   W24
//  #04 //060   ----------------------------------------
 BYTE   W48
 BYTE   N52  An4
 BYTE   W48
//  #04 //061   ----------------------------------------
 BYTE   W06
 BYTE   N17  En4
 BYTE   W18
 BYTE   N68  Bn4
 BYTE   W72
//  #04 //062   ----------------------------------------
 BYTE   An4
 BYTE   W96
//  #04 //063   ----------------------------------------
 BYTE   W96
//  #04 //064   ----------------------------------------
 BYTE   W96
//  #04 //065   ----------------------------------------
 BYTE   W96
//  #04 //066   ----------------------------------------
 BYTE   W96
//  #04 //067   ----------------------------------------
 BYTE   W96
//  #04 //068   ----------------------------------------
 BYTE   W96
//  #04 //069   ----------------------------------------
 BYTE   W96
//  #04 //070   ----------------------------------------
 BYTE   W96
//  #04 //071   ----------------------------------------
 BYTE   W36
 BYTE   N32  Ds4
 BYTE   W36
 BYTE   TIE  Bn4
 BYTE   W24
//  #04 //072   ----------------------------------------
 BYTE   W96
//  #04 //073   ----------------------------------------
 BYTE   W23
 BYTE   EOT
 BYTE   W01
 BYTE   TIE  As4
 BYTE   W72
//  #04 //074   ----------------------------------------
 BYTE   W68
 BYTE   W03
 BYTE   EOT
 BYTE   W01
 BYTE   N68  Gs4
 BYTE   W24
//  #04 //075   ----------------------------------------
Label_011946D9:
 BYTE   W48
 BYTE   N17  Fs4  v104
 BYTE   W18
 BYTE   En4
 BYTE   W18
 BYTE   Bn3
 BYTE   W12
 BYTE   PEND 
//  #04 //076   ----------------------------------------
Label_011946E3:
 BYTE   W06
 BYTE   N17  Cs4  v104
 BYTE   W18
 BYTE   N32  En4
 BYTE   W36
 BYTE   N92  Ds4
 BYTE   W36
 BYTE   PEND 
//  #04 //077   ----------------------------------------
 BYTE   W72
 BYTE   N68
 BYTE   W24
//  #04 //078   ----------------------------------------
 BYTE   W48
 BYTE   N17  Cs4
 BYTE   W18
 BYTE   Bn3
 BYTE   W18
 BYTE   Cs4
 BYTE   W12
//  #04 //079   ----------------------------------------
 BYTE   W06
 BYTE   Fs4
 BYTE   W18
 BYTE   Ds4
 BYTE   W18
 BYTE   Bn3
 BYTE   W18
 BYTE   N68  Gs3
 BYTE   W36
//  #04 //080   ----------------------------------------
Label_01194704:
 BYTE   W54
 BYTE   N17  Fs3  v104
 BYTE   W18
 BYTE   N32  Gs3
 BYTE   W24
 BYTE   PEND 
//  #04 //081   ----------------------------------------
 BYTE   W12
 BYTE   N88  Ds4
 BYTE   W84
//  #04 //082   ----------------------------------------
Label_01194711:
 BYTE   W06
 BYTE   N17  Fs3  v104
 BYTE   W18
 BYTE   N32  Gs3
 BYTE   W36
 BYTE   N68  Ds4
 BYTE   W36
 BYTE   PEND 
//  #04 //083   ----------------------------------------
 BYTE   W36
 BYTE   N32
 BYTE   W36
 BYTE   TIE  Bn4
 BYTE   W24
//  #04 //084   ----------------------------------------
 BYTE   W96
//  #04 //085   ----------------------------------------
 BYTE   W23
 BYTE   EOT
 BYTE   W01
 BYTE   TIE  As4
 BYTE   W72
//  #04 //086   ----------------------------------------
 BYTE   W68
 BYTE   W03
 BYTE   EOT
 BYTE   W01
 BYTE   N68  Gs4
 BYTE   W24
//  #04 //087   ----------------------------------------
 BYTE   PATT
  POIN2 Label_011946D9
//  #04 //088   ----------------------------------------
 BYTE   PATT
  POIN2 Label_011946E3
//  #04 //089   ----------------------------------------
 BYTE   W96
//  #04 //090   ----------------------------------------
 BYTE   W96
//  #04 //091   ----------------------------------------
 BYTE   W96
//  #04 //092   ----------------------------------------
 BYTE   PATT
  POIN2 Label_01194704
//  #04 //093   ----------------------------------------
 BYTE   W12
 BYTE   N68  Ds4  v104
 BYTE   W84
//  #04 //094   ----------------------------------------
 BYTE   PATT
  POIN2 Label_01194711
//  #04 //095   ----------------------------------------
 BYTE   W96
//  #04 //096   ----------------------------------------
 BYTE   W96
//  #04 //097   ----------------------------------------
 BYTE   W96
//  #04 //098   ----------------------------------------
 BYTE   W96
//  #04 //099   ----------------------------------------
 BYTE   W96
//  #04 //100   ----------------------------------------
 BYTE   W96
//  #04 //101   ----------------------------------------
 BYTE   W96
//  #04 //102   ----------------------------------------
 BYTE   W96
//  #04 //103   ----------------------------------------
 BYTE   W96
//  #04 //104   ----------------------------------------
 BYTE   W96
//  #04 //105   ----------------------------------------
 BYTE   W96
//  #04 //106   ----------------------------------------
 BYTE   W96
//  #04 //107   ----------------------------------------
 BYTE   W96
//  #04 //108   ----------------------------------------
 BYTE   W96
//  #04 //109   ----------------------------------------
 BYTE   W96
//  #04 //110   ----------------------------------------
 BYTE   W96
//  #04 //111   ----------------------------------------
 BYTE   W96
//  #04 //112   ----------------------------------------
 BYTE   W96
//  #04 //113   ----------------------------------------
 BYTE   W96
//  #04 //114   ----------------------------------------
 BYTE   W96
//  #04 //115   ----------------------------------------
 BYTE   W96
//  #04 //116   ----------------------------------------
 BYTE   W96
//  #04 //117   ----------------------------------------
 BYTE   W48
 BYTE   GoTo
  POIN2 Label_0119460D
//  #04 //118   ----------------------------------------
 BYTE   W36
 BYTE   N32  Cn4  v104
 BYTE   W12
 BYTE   W24
 BYTE   N52  Gs4
 BYTE   W54
//  #04 //119   ----------------------------------------
 BYTE   N17  Fn4
 BYTE   W18
 BYTE   N68
 BYTE   W72
 BYTE   N44  En4
 BYTE   W24
//  #04 //120   ----------------------------------------
 BYTE   W24
 BYTE   N11  Fn4
 BYTE   W12
 BYTE   Gn4
 BYTE   W12
 BYTE   N68
 BYTE   W48
//  #04 //121   ----------------------------------------
 BYTE   W24
 BYTE   Cn4
 BYTE   W72
//  #04 //122   ----------------------------------------
 BYTE   W36
 BYTE   N32
 BYTE   W36
 BYTE   N52  Fn4
 BYTE   W24
//  #04 //123   ----------------------------------------
 BYTE   W30
 BYTE   N17  Cn5
 BYTE   W18
 BYTE   N68
 BYTE   W48
//  #04 //124   ----------------------------------------
 BYTE   W24
 BYTE   As4
 BYTE   W72
//  #04 //125   ----------------------------------------
 BYTE   Gs4
 BYTE   W72
 BYTE   Fs4
 BYTE   W24
//  #04 //126   ----------------------------------------
 BYTE   W48
 BYTE   TIE  Fn4
 BYTE   W48
//  #04 //127   ----------------------------------------
 BYTE   W56
 BYTE   W03
 BYTE   EOT
 BYTE   W01
 BYTE   N32  Gs4
 BYTE   W36
//  #04 //128   ----------------------------------------
 BYTE   TIE  As4
 BYTE   W96
//  #04 //129   ----------------------------------------
 BYTE   W11
 BYTE   EOT
 BYTE   W84
 BYTE   W01
//  #04 //130   ----------------------------------------
 BYTE   W96
//  #04 //131   ----------------------------------------
 BYTE   W96
//  #04 //132   ----------------------------------------
 BYTE   W96
//  #04 //133   ----------------------------------------
 BYTE   W96
//  #04 //134   ----------------------------------------
 BYTE   W96
//  #04 //135   ----------------------------------------
 BYTE   W96
//  #04 //136   ----------------------------------------
 BYTE   W96
//  #04 //137   ----------------------------------------
 BYTE   W96
//  #04 //138   ----------------------------------------
 BYTE   W96
//  #04 //139   ----------------------------------------
 BYTE   W96
//  #04 //140   ----------------------------------------
 BYTE   W96
//  #04 //141   ----------------------------------------
 BYTE   W48
 BYTE   N68  Gs3
 BYTE   W48
//  #04 //142   ----------------------------------------
 BYTE   W24
 BYTE   N68
 BYTE   W72
//  #04 //143   ----------------------------------------
 BYTE   TIE  Fs3
 BYTE   W96
//  #04 //144   ----------------------------------------
 BYTE   W44
 BYTE   W03
 BYTE   EOT
 BYTE   W36
 BYTE   W01
 BYTE   N32
 BYTE   W12
//  #04 //145   ----------------------------------------
 BYTE   W24
 BYTE   TIE  An3
 BYTE   W72
//  #04 //146   ----------------------------------------
 BYTE   W68
 BYTE   W03
 BYTE   EOT
 BYTE   W01
 BYTE   N44  Gs3
 BYTE   W01
 BYTE   W02
 BYTE   W01
 BYTE   W02
 BYTE   W01
 BYTE   W02
 BYTE   W01
 BYTE   W02
 BYTE   W01
 BYTE   W02
 BYTE   W02
 BYTE   W01
 BYTE   W02
 BYTE   W01
 BYTE   W02
 BYTE   W01
//  #04 //147   ----------------------------------------
 BYTE   W02
 BYTE   W01
 BYTE   W02
 BYTE   W02
 BYTE   W01
 BYTE   W02
 BYTE   W01
 BYTE   W02
 BYTE   W01
 BYTE   W02
 BYTE   W01
 BYTE   W02
 BYTE   W01
 BYTE   W02
 BYTE   W02
 BYTE   W72
//  #04 //148   ----------------------------------------
 BYTE   W96
//  #04 //149   ----------------------------------------
 BYTE   W96
//  #04 //150   ----------------------------------------
 BYTE   W12
 BYTE   N17  Fs4
 BYTE   W18
 BYTE   Gn4
 BYTE   W18
 BYTE   N68  An4
 BYTE   W48
//  #04 //151   ----------------------------------------
 BYTE   W24
 BYTE   Gs4
 BYTE   W72
//  #04 //152   ----------------------------------------
 BYTE   W36
 BYTE   N32
 BYTE   W36
 BYTE   N52  An4
 BYTE   W24
//  #04 //153   ----------------------------------------
 BYTE   W30
 BYTE   N17  Bn4
 BYTE   W18
 BYTE   N68
 BYTE   W48
//  #04 //154   ----------------------------------------
 BYTE   W24
 BYTE   N52  An4
 BYTE   W54
 BYTE   N17  En4
 BYTE   W18
//  #04 //155   ----------------------------------------
 BYTE   N68  Bn4
 BYTE   W72
 BYTE   An4
 BYTE   W24
//  #04 //156   ----------------------------------------
 BYTE   W96
//  #04 //157   ----------------------------------------
 BYTE   W96
//  #04 //158   ----------------------------------------
 BYTE   W96
//  #04 //159   ----------------------------------------
 BYTE   W96
//  #04 //160   ----------------------------------------
 BYTE   W96
//  #04 //161   ----------------------------------------
 BYTE   W96
//  #04 //162   ----------------------------------------
 BYTE   W96
//  #04 //163   ----------------------------------------
 BYTE   W96
//  #04 //164   ----------------------------------------
 BYTE   W96
//  #04 //165   ----------------------------------------
 BYTE   W12
 BYTE   N32  Ds4
 BYTE   W36
 BYTE   TIE  Bn4
 BYTE   W48
//  #04 //166   ----------------------------------------
 BYTE   W92
 BYTE   W03
 BYTE   EOT
 BYTE   W01
//  #04 //167   ----------------------------------------
 BYTE   TIE  As4
 BYTE   W96
//  #04 //168   ----------------------------------------
 BYTE   W44
 BYTE   W03
 BYTE   EOT
 BYTE   W01
 BYTE   N68  Gs4
 BYTE   W48
//  #04 //169   ----------------------------------------
Label_01194834:
 BYTE   W24
 BYTE   N17  Fs4  v104
 BYTE   W18
 BYTE   En4
 BYTE   W18
 BYTE   Bn3
 BYTE   W18
 BYTE   Cs4
 BYTE   W18
 BYTE   PEND 
//  #04 //170   ----------------------------------------
Label_01194840:
 BYTE   N32  En4  v104
 BYTE   W36
 BYTE   N92  Ds4
 BYTE   W60
 BYTE   PEND 
//  #04 //171   ----------------------------------------
 BYTE   W48
 BYTE   N68
 BYTE   W48
//  #04 //172   ----------------------------------------
 BYTE   W24
 BYTE   N17  Cs4
 BYTE   W18
 BYTE   Bn3
 BYTE   W18
 BYTE   Cs4
 BYTE   W18
 BYTE   Fs4
 BYTE   W18
//  #04 //173   ----------------------------------------
 BYTE   Ds4
 BYTE   W18
 BYTE   Bn3
 BYTE   W18
 BYTE   N68  Gs3
 BYTE   W60
//  #04 //174   ----------------------------------------
 BYTE   W30
 BYTE   N17  Fs3
 BYTE   W18
 BYTE   N32  Gs3
 BYTE   W36
 BYTE   N88  Ds4
 BYTE   W12
//  #04 //175   ----------------------------------------
 BYTE   W78
 BYTE   N17  Fs3
 BYTE   W18
//  #04 //176   ----------------------------------------
Label_0119486A:
 BYTE   N32  Gs3  v104
 BYTE   W36
 BYTE   N68  Ds4
 BYTE   W60
 BYTE   PEND 
//  #04 //177   ----------------------------------------
 BYTE   W12
 BYTE   N32
 BYTE   W36
 BYTE   TIE  Bn4
 BYTE   W48
//  #04 //178   ----------------------------------------
 BYTE   W92
 BYTE   W03
 BYTE   EOT
 BYTE   W01
//  #04 //179   ----------------------------------------
 BYTE   TIE  As4
 BYTE   W96
//  #04 //180   ----------------------------------------
 BYTE   W44
 BYTE   W03
 BYTE   EOT
 BYTE   W01
 BYTE   N68  Gs4
 BYTE   W48
//  #04 //181   ----------------------------------------
 BYTE   PATT
  POIN2 Label_01194834
//  #04 //182   ----------------------------------------
 BYTE   PATT
  POIN2 Label_01194840
//  #04 //183   ----------------------------------------
 BYTE   W96
//  #04 //184   ----------------------------------------
 BYTE   W96
//  #04 //185   ----------------------------------------
 BYTE   W96
//  #04 //186   ----------------------------------------
 BYTE   W30
 BYTE   N17  Fs3  v104
 BYTE   W18
 BYTE   N32  Gs3
 BYTE   W36
 BYTE   N68  Ds4
 BYTE   W12
//  #04 //187   ----------------------------------------
 BYTE   W78
 BYTE   N17  Fs3
 BYTE   W18
//  #04 //188   ----------------------------------------
 BYTE   PATT
  POIN2 Label_0119486A
//  #04 //189   ----------------------------------------
 BYTE   W96
//  #04 //190   ----------------------------------------
 BYTE   W96
//  #04 //191   ----------------------------------------
 BYTE   W96
//  #04 //192   ----------------------------------------
 BYTE   W96
//  #04 //193   ----------------------------------------
 BYTE   W24
 BYTE   FINE

//**************** Track 5 (Midi-Chn.4) ****************//

FireEmblemEngage_FallenPetalsNew_005:
//  #05 //000   ----------------------------------------
 BYTE   KEYSH   FireEmblemEngage_FallenPetalsNew_key+0
 BYTE   VOICE   48
 BYTE   MODT 0
 BYTE   LFOS 44
 BYTE   VOL   27*FireEmblemEngage_FallenPetalsNew_mvl/mxv
 BYTE   BENDR  12
 BYTE   PAN   c_v+0
 BYTE   W24
 BYTE   N92  Gn0  v104
 BYTE   N92  Bn3
 BYTE   W72
//  #05 //001   ----------------------------------------
 BYTE   W24
 BYTE   As0
 BYTE   N92  As3
 BYTE   W72
//  #05 //002   ----------------------------------------
 BYTE   W24
 BYTE   Cs1
 BYTE   N92  Cs4
 BYTE   W72
//  #05 //003   ----------------------------------------
 BYTE   W24
 BYTE   En0
 BYTE   N44  Bn3
 BYTE   W48
 BYTE   Cs4
 BYTE   W24
//  #05 //004   ----------------------------------------
 BYTE   W24
 BYTE   N92  Gn0
 BYTE   N44  Gn3
 BYTE   W48
 BYTE   Dn4
 BYTE   W24
//  #05 //005   ----------------------------------------
 BYTE   W24
 BYTE   N92  As0
 BYTE   N92  Cs4
 BYTE   W72
//  #05 //006   ----------------------------------------
 BYTE   W24
 BYTE   Dn1
 BYTE   N44  Dn4
 BYTE   W48
 BYTE   En4
 BYTE   W24
//  #05 //007   ----------------------------------------
 BYTE   W24
 BYTE   N92  Cs1
 BYTE   N92  Fn4
 BYTE   W72
//  #05 //008   ----------------------------------------
 BYTE   W96
//  #05 //009   ----------------------------------------
 BYTE   W96
//  #05 //010   ----------------------------------------
 BYTE   W96
//  #05 //011   ----------------------------------------
 BYTE   W72
 BYTE   N23  Fn0
 BYTE   W24
//  #05 //012   ----------------------------------------
 BYTE   W84
 BYTE   N23
 BYTE   W12
//  #05 //013   ----------------------------------------
 BYTE   W24
 BYTE   Gn0
 BYTE   W72
//  #05 //014   ----------------------------------------
 BYTE   W36
 BYTE   N23
 BYTE   W36
 BYTE   Gs0
 BYTE   W24
//  #05 //015   ----------------------------------------
 BYTE   W84
 BYTE   N23
 BYTE   W12
//  #05 //016   ----------------------------------------
 BYTE   W24
 BYTE   An0
 BYTE   W72
//  #05 //017   ----------------------------------------
 BYTE   W36
 BYTE   N23
 BYTE   W18
 BYTE   N17  Ds3
 BYTE   W18
 BYTE   N23  As0
 BYTE   N68  Ds3
 BYTE   W24
//  #05 //018   ----------------------------------------
 BYTE   W48
 BYTE   Cs3
 BYTE   W36
 BYTE   N23  As0
 BYTE   W12
//  #05 //019   ----------------------------------------
 BYTE   W24
 BYTE   Bn0
 BYTE   N68  Dn3
 BYTE   W72
//  #05 //020   ----------------------------------------
 BYTE   Bn2
 BYTE   W36
 BYTE   N23  Bn0
 BYTE   W36
 BYTE   Cn1
 BYTE   TIE  Cn3
 BYTE   W24
//  #05 //021   ----------------------------------------
 BYTE   W96
//  #05 //022   ----------------------------------------
 BYTE   W24
 BYTE   N23  Cn1
 BYTE   W72
//  #05 //023   ----------------------------------------
 BYTE   W68
 BYTE   W03
 BYTE   EOT
 BYTE   Cn3
 BYTE   W01
Label_011951AA:
 BYTE   TIE  Fn0  v104
 BYTE   W24
//  #05 //024   ----------------------------------------
 BYTE   W12
 BYTE   N32  Cn3
 BYTE   W36
 BYTE   N52  Gs3
 BYTE   W48
//  #05 //025   ----------------------------------------
 BYTE   W06
 BYTE   N17  Fn3
 BYTE   W17
 BYTE   EOT
 BYTE   Fn0
 BYTE   W01
 BYTE   TIE  Gn0
 BYTE   N68  Fn3
 BYTE   W72
//  #05 //026   ----------------------------------------
 BYTE   N44  En3
 BYTE   W48
 BYTE   N11  Fn3
 BYTE   W12
 BYTE   Gn3
 BYTE   W11
 BYTE   EOT
 BYTE   Gn0
 BYTE   W01
 BYTE   TIE  Gs0
 BYTE   N68  Gn3
 BYTE   W24
//  #05 //027   ----------------------------------------
 BYTE   W48
 BYTE   Cn3
 BYTE   W48
//  #05 //028   ----------------------------------------
 BYTE   W23
 BYTE   EOT
 BYTE   Gs0
 BYTE   W01
 BYTE   TIE  An0
 BYTE   W36
 BYTE   N32  Cn3
 BYTE   W36
//  #05 //029   ----------------------------------------
 BYTE   N52  Cn4
 BYTE   W54
 BYTE   N17  Fn4
 BYTE   W17
 BYTE   EOT
 BYTE   An0
 BYTE   W01
 BYTE   TIE  As0
 BYTE   N68  Ds4
 BYTE   W24
//  #05 //030   ----------------------------------------
 BYTE   W48
 BYTE   Cs4
 BYTE   W48
//  #05 //031   ----------------------------------------
 BYTE   W23
 BYTE   EOT
 BYTE   As0
 BYTE   W01
 BYTE   TIE  Fs0
 BYTE   N68  Cn4
 BYTE   W72
//  #05 //032   ----------------------------------------
 BYTE   As3
 BYTE   W68
 BYTE   W03
 BYTE   EOT
 BYTE   Fs0
 BYTE   W01
 BYTE   TIE  Cn1
 BYTE   TIE  Cn4
 BYTE   W24
//  #05 //033   ----------------------------------------
 BYTE   W80
 BYTE   W03
 BYTE   EOT
 BYTE   W01
 BYTE   N32  Fn3
 BYTE   W12
//  #05 //034   ----------------------------------------
 BYTE   W24
 BYTE   TIE  Gn3
 BYTE   W72
//  #05 //035   ----------------------------------------
 BYTE   W32
 BYTE   W03
 BYTE   EOT
 BYTE   W12
 BYTE   EOT
 BYTE   Cn1
 BYTE   W24
 BYTE   W01
 BYTE   N23  Cs2
 BYTE   W24
//  #05 //036   ----------------------------------------
 BYTE   W48
 BYTE   N23
 BYTE   W36
 BYTE   Gs1
 BYTE   W12
//  #05 //037   ----------------------------------------
 BYTE   W24
 BYTE   Cs2
 BYTE   W72
//  #05 //038   ----------------------------------------
 BYTE   N23
 BYTE   W36
 BYTE   Cs1
 BYTE   W36
 BYTE   Cn1
 BYTE   W24
//  #05 //039   ----------------------------------------
 BYTE   W48
 BYTE   N23
 BYTE   W36
 BYTE   Gn0
 BYTE   W12
//  #05 //040   ----------------------------------------
 BYTE   W24
 BYTE   Cn1
 BYTE   W72
//  #05 //041   ----------------------------------------
 BYTE   N23
 BYTE   W36
 BYTE   N23
 BYTE   W36
 BYTE   As0
 BYTE   W24
//  #05 //042   ----------------------------------------
 BYTE   W48
 BYTE   N23
 BYTE   W36
 BYTE   N23
 BYTE   W12
//  #05 //043   ----------------------------------------
 BYTE   W24
 BYTE   Ds1
 BYTE   W72
//  #05 //044   ----------------------------------------
 BYTE   N23
 BYTE   W36
 BYTE   As0
 BYTE   W36
 BYTE   Gs0
 BYTE   W24
//  #05 //045   ----------------------------------------
 BYTE   W48
 BYTE   N23
 BYTE   W36
 BYTE   N23
 BYTE   W12
//  #05 //046   ----------------------------------------
 BYTE   W24
 BYTE   N23
 BYTE   N23  Cn2
 BYTE   W72
//  #05 //047   ----------------------------------------
 BYTE   Gs0
 BYTE   W72
 BYTE   Fs1
 BYTE   N68  En3
 BYTE   W24
//  #05 //048   ----------------------------------------
 BYTE   W48
 BYTE   N68
 BYTE   W18
 BYTE   N17  Cs1
 BYTE   W18
 BYTE   An0
 BYTE   W12
//  #05 //049   ----------------------------------------
 BYTE   W06
 BYTE   Fs0
 BYTE   W18
 BYTE   N23  Bn0
 BYTE   TIE  Ds3
 BYTE   W54
 BYTE   N17  Fs1
 BYTE   W18
//  #05 //050   ----------------------------------------
 BYTE   N23  Bn1
 BYTE   W68
 BYTE   W03
 BYTE   EOT
 BYTE   Ds3
 BYTE   W01
 BYTE   N23  Gs1
 BYTE   TIE  Dn3
 BYTE   W24
//  #05 //051   ----------------------------------------
 BYTE   W30
 BYTE   N17  Dn1
 BYTE   W18
 BYTE   N23  Gs1
 BYTE   W48
//  #05 //052   ----------------------------------------
 BYTE   W24
 BYTE   Cs1
 BYTE   W54
 BYTE   N17  Gs1
 BYTE   W17
 BYTE   EOT
 BYTE   Dn3
 BYTE   W01
//  #05 //053   ----------------------------------------
 BYTE   N11  Cs2
 BYTE   N44  Cs3
 BYTE   W01
 BYTE   W01
 BYTE   W01
 BYTE   W01
 BYTE   W01
 BYTE   W01
 BYTE   W01
 BYTE   W01
 BYTE   W01
 BYTE   W01
 BYTE   W01
 BYTE   W01
 BYTE   N11  Gs1
 BYTE   W01
 BYTE   W01
 BYTE   W01
 BYTE   W01
 BYTE   W01
 BYTE   W01
 BYTE   W01
 BYTE   W01
 BYTE   W01
 BYTE   W01
 BYTE   W01
 BYTE   W01
 BYTE   Fn1
 BYTE   W01
 BYTE   W01
 BYTE   W01
 BYTE   W01
 BYTE   W01
 BYTE   W01
 BYTE   W01
 BYTE   W01
 BYTE   W01
 BYTE   W01
 BYTE   W01
 BYTE   W01
 BYTE   Gs1
 BYTE   W01
 BYTE   W01
 BYTE   W01
 BYTE   W01
 BYTE   W01
 BYTE   W01
 BYTE   W01
 BYTE   W01
 BYTE   W02
 BYTE   W01
 BYTE   W01
 BYTE   Fn1
 BYTE   W12
 BYTE   Cs1
 BYTE   W12
 BYTE   N23  An0
 BYTE   N68  Cn3
 BYTE   W24
//  #05 //054   ----------------------------------------
 BYTE   W48
 BYTE   En3
 BYTE   W18
 BYTE   N17  En1
 BYTE   W18
 BYTE   Cn1
 BYTE   W12
//  #05 //055   ----------------------------------------
 BYTE   W06
 BYTE   An0
 BYTE   W18
 BYTE   N23  Dn1
 BYTE   TIE  Dn3
 BYTE   W54
 BYTE   N17  An0
 BYTE   W18
//  #05 //056   ----------------------------------------
 BYTE   N23  Dn1
 BYTE   W36
 BYTE   Cn1
 BYTE   W32
 BYTE   W03
 BYTE   EOT
 BYTE   Dn3
 BYTE   W01
 BYTE   N23  Bn0
 BYTE   N68  Dn3
 BYTE   W24
//  #05 //057   ----------------------------------------
 BYTE   W30
 BYTE   N17  Fn1
 BYTE   W18
 BYTE   Bn1
 BYTE   N68  Dn3
 BYTE   W18
 BYTE   N17  Fn1
 BYTE   W18
 BYTE   N23  Bn0
 BYTE   W12
//  #05 //058   ----------------------------------------
 BYTE   W24
 BYTE   En1
 BYTE   N68  Dn3
 BYTE   N68  Fn3
 BYTE   W54
 BYTE   N17  Bn1
 BYTE   W18
//  #05 //059   ----------------------------------------
 BYTE   N11  En2
 BYTE   N68  Dn3
 BYTE   N68  En3
 BYTE   W12
 BYTE   N11  Bn1
 BYTE   W12
 BYTE   Gs1
 BYTE   W12
 BYTE   Bn1
 BYTE   W12
 BYTE   Gs1
 BYTE   W12
 BYTE   En1
 BYTE   W12
 BYTE   N68  Fn1
 BYTE   N68  En3
 BYTE   N68  Fn3
 BYTE   W24
//  #05 //060   ----------------------------------------
 BYTE   W48
 BYTE   Fn1
 BYTE   N68  En3
 BYTE   N68  Fn3
 BYTE   W48
//  #05 //061   ----------------------------------------
 BYTE   W24
 BYTE   Fs1
 BYTE   N68  En3
 BYTE   N68  Fs3
 BYTE   W72
//  #05 //062   ----------------------------------------
 BYTE   Fs1
 BYTE   N68  En3
 BYTE   N68  Fs3
 BYTE   W72
 BYTE   Bn0
 BYTE   W24
//  #05 //063   ----------------------------------------
Label_0119532A:
 BYTE   W48
 BYTE   N17  Bn0  v104
 BYTE   W18
 BYTE   Cn1
 BYTE   W18
 BYTE   N52  Bn0
 BYTE   W12
 BYTE   PEND 
//  #05 //064   ----------------------------------------
 BYTE   W42
 BYTE   N17
 BYTE   W18
 BYTE   N17
 BYTE   W18
 BYTE   Fs0
 BYTE   W18
//  #05 //065   ----------------------------------------
 BYTE   N68  Bn0
 BYTE   W72
 BYTE   N17
 BYTE   W18
 BYTE   Cn1
 BYTE   W06
//  #05 //066   ----------------------------------------
 BYTE   W12
 BYTE   N52  Bn0
 BYTE   W54
 BYTE   N17
 BYTE   W18
 BYTE   N17
 BYTE   W12
//  #05 //067   ----------------------------------------
 BYTE   W06
 BYTE   Gs0
 BYTE   W18
 BYTE   N68
 BYTE   W72
//  #05 //068   ----------------------------------------
 BYTE   N17
 BYTE   W18
 BYTE   Bn0
 BYTE   W18
 BYTE   N52  Gs0
 BYTE   W54
 BYTE   N17
 BYTE   W06
//  #05 //069   ----------------------------------------
 BYTE   W12
 BYTE   En1
 BYTE   W18
 BYTE   Bn0
 BYTE   W18
 BYTE   TIE  As0
 BYTE   W48
//  #05 //070   ----------------------------------------
 BYTE   W56
 BYTE   W03
 BYTE   EOT
 BYTE   W01
 BYTE   N11  Ds1
 BYTE   W36
//  #05 //071   ----------------------------------------
 BYTE   W36
 BYTE   N32  Ds3
 BYTE   W36
 BYTE   TIE  Gs1
 BYTE   TIE  Bn3
 BYTE   W24
//  #05 //072   ----------------------------------------
 BYTE   W96
//  #05 //073   ----------------------------------------
 BYTE   W23
 BYTE   EOT
 BYTE   Gs1  v071
 BYTE   W01
 BYTE   TIE  Fs1
 BYTE   TIE  As3
 BYTE   W72
//  #05 //074   ----------------------------------------
 BYTE   W68
 BYTE   W03
 BYTE   EOT
 BYTE   Fs1  v070
 BYTE   W01
 BYTE   TIE  En1
 BYTE   N68  Gs3
 BYTE   W24
//  #05 //075   ----------------------------------------
Label_01195387:
 BYTE   W48
 BYTE   N17  Fs3  v104
 BYTE   W18
 BYTE   En3
 BYTE   W18
 BYTE   Bn2
 BYTE   W12
 BYTE   PEND 
//  #05 //076   ----------------------------------------
 BYTE   W06
 BYTE   Cs3
 BYTE   W17
 BYTE   EOT
 BYTE   En1
 BYTE   W01
 BYTE   N32  Bn0
 BYTE   N32  En3
 BYTE   W36
 BYTE   N92  Bn0
 BYTE   N92  Ds3
 BYTE   W36
//  #05 //077   ----------------------------------------
 BYTE   W72
 BYTE   N68  As0
 BYTE   N68  Ds4
 BYTE   W24
//  #05 //078   ----------------------------------------
 BYTE   W48
 BYTE   Ds1
 BYTE   N17  Cs4
 BYTE   W18
 BYTE   Bn3
 BYTE   W18
 BYTE   Cs4
 BYTE   W12
//  #05 //079   ----------------------------------------
 BYTE   W06
 BYTE   Fs4
 BYTE   W18
 BYTE   N68  Gs1
 BYTE   N17  Ds4
 BYTE   W18
 BYTE   Bn3
 BYTE   W18
 BYTE   N68  Gs3
 BYTE   W36
//  #05 //080   ----------------------------------------
 BYTE   Cs1
 BYTE   W54
 BYTE   N17  Fs3
 BYTE   W18
 BYTE   TIE  En1
 BYTE   N32  Gs3
 BYTE   W24
//  #05 //081   ----------------------------------------
 BYTE   W12
 BYTE   N88  Ds4
 BYTE   W84
//  #05 //082   ----------------------------------------
 BYTE   W06
 BYTE   N17  Fs3
 BYTE   W17
 BYTE   EOT
 BYTE   En1
 BYTE   W01
 BYTE   N68  As0
 BYTE   N32  Gs3
 BYTE   W36
 BYTE   N68  Ds4
 BYTE   W36
//  #05 //083   ----------------------------------------
 BYTE   Ds1
 BYTE   W36
 BYTE   N32  Ds4
 BYTE   W36
 BYTE   TIE  Gs1
 BYTE   TIE  Bn3
 BYTE   W24
//  #05 //084   ----------------------------------------
 BYTE   W96
//  #05 //085   ----------------------------------------
 BYTE   W23
 BYTE   EOT
 BYTE   Gs1  v071
 BYTE   W01
 BYTE   TIE  Fs1
 BYTE   TIE  As3
 BYTE   W72
//  #05 //086   ----------------------------------------
 BYTE   W68
 BYTE   W03
 BYTE   EOT
 BYTE   Fs1  v070
 BYTE   W01
 BYTE   TIE  En1
 BYTE   N68  Gs3
 BYTE   W24
//  #05 //087   ----------------------------------------
 BYTE   PATT
  POIN2 Label_01195387
//  #05 //088   ----------------------------------------
 BYTE   W06
 BYTE   N17  Cs3  v104
 BYTE   W17
 BYTE   EOT
 BYTE   En1
 BYTE   W01
 BYTE   N32  Bn0
 BYTE   N32  En3
 BYTE   W36
 BYTE   N92  Bn0
 BYTE   N92  Ds3
 BYTE   W36
//  #05 //089   ----------------------------------------
 BYTE   W96
//  #05 //090   ----------------------------------------
 BYTE   W12
 BYTE   W84
//  #05 //091   ----------------------------------------
 BYTE   W30
 BYTE   W07
 BYTE   W07
 BYTE   W07
 BYTE   W06
 BYTE   W07
 BYTE   W07
 BYTE   W07
 BYTE   W06
 BYTE   W07
 BYTE   W05
//  #05 //092   ----------------------------------------
 BYTE   W02
 BYTE   W07
 BYTE   W06
 BYTE   W07
 BYTE   W07
 BYTE   W07
 BYTE   W18
 BYTE   N17  Fs2
 BYTE   W18
 BYTE   TIE  En0
 BYTE   N32  Gs2
 BYTE   W24
//  #05 //093   ----------------------------------------
 BYTE   W12
 BYTE   N68  Ds3
 BYTE   W84
//  #05 //094   ----------------------------------------
 BYTE   W06
 BYTE   N17  Fs2
 BYTE   W17
 BYTE   EOT
 BYTE   En0
 BYTE   W01
 BYTE   TIE  Fs0
 BYTE   N32  Gs2
 BYTE   W36
 BYTE   N68  Ds3
 BYTE   W36
//  #05 //095   ----------------------------------------
 BYTE   W54
 BYTE   N17  Fs3
 BYTE   W17
 BYTE   EOT
 BYTE   Fs0
 BYTE   W01
 BYTE   N32  Gs3
 BYTE   W24
//  #05 //096   ----------------------------------------
 BYTE   W12
 BYTE   N68  Ds4
 BYTE   W84
//  #05 //097   ----------------------------------------
 BYTE   W06
 BYTE   N17  Fs4
 BYTE   W18
 BYTE   N32  Gs4
 BYTE   W36
 BYTE   TIE  Ds5
 BYTE   W36
//  #05 //098   ----------------------------------------
 BYTE   W68
 BYTE   W03
 BYTE   EOT
 BYTE   W24
 BYTE   W01
//  #05 //099   ----------------------------------------
 BYTE   W96
//  #05 //100   ----------------------------------------
 BYTE   W96
//  #05 //101   ----------------------------------------
 BYTE   W96
//  #05 //102   ----------------------------------------
 BYTE   W96
//  #05 //103   ----------------------------------------
 BYTE   W96
//  #05 //104   ----------------------------------------
 BYTE   W96
//  #05 //105   ----------------------------------------
 BYTE   W48
 BYTE   N23  Fn0
 BYTE   W48
//  #05 //106   ----------------------------------------
 BYTE   W60
 BYTE   N23
 BYTE   W36
//  #05 //107   ----------------------------------------
 BYTE   Gn0
 BYTE   W96
//  #05 //108   ----------------------------------------
 BYTE   W12
 BYTE   N23
 BYTE   W36
 BYTE   Gs0
 BYTE   W48
//  #05 //109   ----------------------------------------
 BYTE   W60
 BYTE   N23
 BYTE   W36
//  #05 //110   ----------------------------------------
 BYTE   An0
 BYTE   W96
//  #05 //111   ----------------------------------------
 BYTE   W12
 BYTE   N23
 BYTE   W18
 BYTE   N17  Ds3
 BYTE   W18
 BYTE   N23  As0
 BYTE   N68  Ds3
 BYTE   W48
//  #05 //112   ----------------------------------------
 BYTE   W24
 BYTE   Cs3
 BYTE   W36
 BYTE   N23  As0
 BYTE   W36
//  #05 //113   ----------------------------------------
 BYTE   Bn0
 BYTE   N68  Dn3
 BYTE   W72
 BYTE   Bn2
 BYTE   W24
//  #05 //114   ----------------------------------------
 BYTE   W12
 BYTE   N23  Bn0
 BYTE   W36
 BYTE   Cn1
 BYTE   TIE  Cn3
 BYTE   W48
//  #05 //115   ----------------------------------------
 BYTE   W96
//  #05 //116   ----------------------------------------
 BYTE   N23  Cn1
 BYTE   W96
//  #05 //117   ----------------------------------------
 BYTE   W44
 BYTE   W03
 BYTE   EOT
 BYTE   Cn3
 BYTE   W01
 BYTE   GoTo
  POIN2 Label_011951AA
//  #05 //118   ----------------------------------------
 BYTE   TIE  Fn0  v104
 BYTE   W36
 BYTE   N32  Cn3
 BYTE   W12
 BYTE   W24
 BYTE   N52  Gs3
 BYTE   W54
//  #05 //119   ----------------------------------------
 BYTE   N17  Fn3
 BYTE   W17
 BYTE   EOT
 BYTE   Fn0
 BYTE   W01
 BYTE   TIE  Gn0
 BYTE   N68  Fn3
 BYTE   W72
 BYTE   N44  En3
 BYTE   W24
//  #05 //120   ----------------------------------------
 BYTE   W24
 BYTE   N11  Fn3
 BYTE   W12
 BYTE   Gn3
 BYTE   W11
 BYTE   EOT
 BYTE   Gn0
 BYTE   W01
 BYTE   TIE  Gs0
 BYTE   N68  Gn3
 BYTE   W48
//  #05 //121   ----------------------------------------
 BYTE   W24
 BYTE   Cn3
 BYTE   W68
 BYTE   W03
 BYTE   EOT
 BYTE   Gs0
 BYTE   W01
//  #05 //122   ----------------------------------------
 BYTE   TIE  An0
 BYTE   W36
 BYTE   N32  Cn3
 BYTE   W36
 BYTE   N52  Cn4
 BYTE   W24
//  #05 //123   ----------------------------------------
 BYTE   W30
 BYTE   N17  Fn4
 BYTE   W17
 BYTE   EOT
 BYTE   An0
 BYTE   W01
 BYTE   TIE  As0
 BYTE   N68  Ds4
 BYTE   W48
//  #05 //124   ----------------------------------------
 BYTE   W24
 BYTE   Cs4
 BYTE   W68
 BYTE   W03
 BYTE   EOT
 BYTE   As0
 BYTE   W01
//  #05 //125   ----------------------------------------
 BYTE   TIE  Fs0
 BYTE   N68  Cn4
 BYTE   W72
 BYTE   As3
 BYTE   W24
//  #05 //126   ----------------------------------------
 BYTE   W44
 BYTE   W03
 BYTE   EOT
 BYTE   Fs0
 BYTE   W01
 BYTE   TIE  Cn1
 BYTE   TIE  Cn4
 BYTE   W48
//  #05 //127   ----------------------------------------
 BYTE   W56
 BYTE   W03
 BYTE   EOT
 BYTE   W01
 BYTE   N32  Fn3
 BYTE   W36
//  #05 //128   ----------------------------------------
 BYTE   TIE  Gn3
 BYTE   W96
//  #05 //129   ----------------------------------------
 BYTE   W11
 BYTE   EOT
 BYTE   W12
 BYTE   EOT
 BYTE   Cn1
 BYTE   W24
 BYTE   W01
 BYTE   N23  Cs2
 BYTE   W48
//  #05 //130   ----------------------------------------
 BYTE   W24
 BYTE   N23
 BYTE   W36
 BYTE   Gs1
 BYTE   W36
//  #05 //131   ----------------------------------------
 BYTE   Cs2
 BYTE   W72
 BYTE   N23
 BYTE   W24
//  #05 //132   ----------------------------------------
 BYTE   W12
 BYTE   Cs1
 BYTE   W36
 BYTE   Cn1
 BYTE   W48
//  #05 //133   ----------------------------------------
 BYTE   W24
 BYTE   N23
 BYTE   W36
 BYTE   Gn0
 BYTE   W36
//  #05 //134   ----------------------------------------
 BYTE   Cn1
 BYTE   W72
 BYTE   N23
 BYTE   W24
//  #05 //135   ----------------------------------------
 BYTE   W12
 BYTE   N23
 BYTE   W36
 BYTE   As0
 BYTE   W48
//  #05 //136   ----------------------------------------
 BYTE   W24
 BYTE   N23
 BYTE   W36
 BYTE   N23
 BYTE   W36
//  #05 //137   ----------------------------------------
 BYTE   Ds1
 BYTE   W72
 BYTE   N23
 BYTE   W24
//  #05 //138   ----------------------------------------
 BYTE   W12
 BYTE   As0
 BYTE   W36
 BYTE   Gs0
 BYTE   W48
//  #05 //139   ----------------------------------------
 BYTE   W24
 BYTE   N23
 BYTE   W36
 BYTE   N23
 BYTE   W36
//  #05 //140   ----------------------------------------
 BYTE   N23
 BYTE   N23  Cn2
 BYTE   W72
 BYTE   Gs0
 BYTE   W24
//  #05 //141   ----------------------------------------
 BYTE   W48
 BYTE   Fs1
 BYTE   N68  En3
 BYTE   W48
//  #05 //142   ----------------------------------------
 BYTE   W24
 BYTE   N68
 BYTE   W18
 BYTE   N17  Cs1
 BYTE   W18
 BYTE   An0
 BYTE   W18
 BYTE   Fs0
 BYTE   W18
//  #05 //143   ----------------------------------------
 BYTE   N23  Bn0
 BYTE   TIE  Ds3
 BYTE   W54
 BYTE   N17  Fs1
 BYTE   W18
 BYTE   N23  Bn1
 BYTE   W24
//  #05 //144   ----------------------------------------
 BYTE   W44
 BYTE   W03
 BYTE   EOT
 BYTE   Ds3
 BYTE   W01
 BYTE   N23  Gs1
 BYTE   TIE  Dn3
 BYTE   W48
//  #05 //145   ----------------------------------------
 BYTE   W06
 BYTE   N17  Dn1
 BYTE   W18
 BYTE   N23  Gs1
 BYTE   W72
//  #05 //146   ----------------------------------------
 BYTE   Cs1
 BYTE   W54
 BYTE   N17  Gs1
 BYTE   W17
 BYTE   EOT
 BYTE   Dn3
 BYTE   W01
 BYTE   N11  Cs2
 BYTE   N44  Cs3
 BYTE   W01
 BYTE   W01
 BYTE   W01
 BYTE   W01
 BYTE   W01
 BYTE   W01
 BYTE   W01
 BYTE   W01
 BYTE   W01
 BYTE   W01
 BYTE   W01
 BYTE   W01
 BYTE   N11  Gs1
 BYTE   W01
 BYTE   W01
 BYTE   W01
 BYTE   W01
 BYTE   W01
 BYTE   W01
 BYTE   W01
 BYTE   W01
 BYTE   W01
 BYTE   W01
 BYTE   W01
 BYTE   W01
//  #05 //147   ----------------------------------------
 BYTE   Fn1
 BYTE   W01
 BYTE   W01
 BYTE   W01
 BYTE   W01
 BYTE   W01
 BYTE   W01
 BYTE   W01
 BYTE   W01
 BYTE   W01
 BYTE   W01
 BYTE   W01
 BYTE   W01
 BYTE   Gs1
 BYTE   W01
 BYTE   W01
 BYTE   W01
 BYTE   W01
 BYTE   W01
 BYTE   W01
 BYTE   W01
 BYTE   W01
 BYTE   W02
 BYTE   W01
 BYTE   W01
 BYTE   Fn1
 BYTE   W12
 BYTE   Cs1
 BYTE   W12
 BYTE   N23  An0
 BYTE   N68  Cn3
 BYTE   W48
//  #05 //148   ----------------------------------------
 BYTE   W24
 BYTE   En3
 BYTE   W18
 BYTE   N17  En1
 BYTE   W18
 BYTE   Cn1
 BYTE   W18
 BYTE   An0
 BYTE   W18
//  #05 //149   ----------------------------------------
 BYTE   N23  Dn1
 BYTE   TIE  Dn3
 BYTE   W54
 BYTE   N17  An0
 BYTE   W18
 BYTE   N23  Dn1
 BYTE   W24
//  #05 //150   ----------------------------------------
 BYTE   W12
 BYTE   Cn1
 BYTE   W32
 BYTE   W03
 BYTE   EOT
 BYTE   Dn3
 BYTE   W01
 BYTE   N23  Bn0
 BYTE   N68  Dn3
 BYTE   W48
//  #05 //151   ----------------------------------------
 BYTE   W06
 BYTE   N17  Fn1
 BYTE   W18
 BYTE   Bn1
 BYTE   N68  Dn3
 BYTE   W18
 BYTE   N17  Fn1
 BYTE   W18
 BYTE   N23  Bn0
 BYTE   W36
//  #05 //152   ----------------------------------------
 BYTE   En1
 BYTE   N68  Dn3
 BYTE   N68  Fn3
 BYTE   W54
 BYTE   N17  Bn1
 BYTE   W18
 BYTE   N11  En2
 BYTE   N68  Dn3
 BYTE   N68  En3
 BYTE   W12
 BYTE   N11  Bn1
 BYTE   W12
//  #05 //153   ----------------------------------------
 BYTE   Gs1
 BYTE   W12
 BYTE   Bn1
 BYTE   W12
 BYTE   Gs1
 BYTE   W12
 BYTE   En1
 BYTE   W12
 BYTE   N68  Fn1
 BYTE   N68  En3
 BYTE   N68  Fn3
 BYTE   W48
//  #05 //154   ----------------------------------------
 BYTE   W24
 BYTE   Fn1
 BYTE   N68  En3
 BYTE   N68  Fn3
 BYTE   W72
//  #05 //155   ----------------------------------------
 BYTE   Fs1
 BYTE   N68  En3
 BYTE   N68  Fs3
 BYTE   W72
 BYTE   Fs1
 BYTE   N68  En3
 BYTE   N68  Fs3
 BYTE   W24
//  #05 //156   ----------------------------------------
 BYTE   W48
 BYTE   Bn0
 BYTE   W48
//  #05 //157   ----------------------------------------
 BYTE   W24
 BYTE   N17
 BYTE   W18
 BYTE   Cn1
 BYTE   W18
 BYTE   N52  Bn0
 BYTE   W36
//  #05 //158   ----------------------------------------
 BYTE   W18
 BYTE   N17
 BYTE   W18
 BYTE   N17
 BYTE   W18
 BYTE   Fs0
 BYTE   W18
 BYTE   N68  Bn0
 BYTE   W24
//  #05 //159   ----------------------------------------
 BYTE   PATT
  POIN2 Label_0119532A
//  #05 //160   ----------------------------------------
 BYTE   W42
 BYTE   N17  Bn0  v104
 BYTE   W18
 BYTE   N17
 BYTE   W18
 BYTE   Gs0
 BYTE   W18
//  #05 //161   ----------------------------------------
 BYTE   N68
 BYTE   W72
 BYTE   N17
 BYTE   W18
 BYTE   Bn0
 BYTE   W06
//  #05 //162   ----------------------------------------
 BYTE   W12
 BYTE   N52  Gs0
 BYTE   W54
 BYTE   N17
 BYTE   W18
 BYTE   En1
 BYTE   W12
//  #05 //163   ----------------------------------------
 BYTE   W06
 BYTE   Bn0
 BYTE   W18
 BYTE   TIE  As0
 BYTE   W72
//  #05 //164   ----------------------------------------
 BYTE   W32
 BYTE   W03
 BYTE   EOT
 BYTE   W01
 BYTE   N11  Ds1
 BYTE   W60
//  #05 //165   ----------------------------------------
 BYTE   W12
 BYTE   N32  Ds3
 BYTE   W36
 BYTE   TIE  Gs1
 BYTE   TIE  Bn3
 BYTE   W48
//  #05 //166   ----------------------------------------
 BYTE   W92
 BYTE   W03
 BYTE   EOT
 BYTE   Gs1  v071
 BYTE   W01
//  #05 //167   ----------------------------------------
Label_0119566C:
 BYTE   TIE  Fs1  v104
 BYTE   TIE  As3
 BYTE   W96
 BYTE   PEND 
//  #05 //168   ----------------------------------------
 BYTE   W44
 BYTE   W03
 BYTE   EOT
 BYTE   Fs1  v070
 BYTE   W01
 BYTE   TIE  En1
 BYTE   N68  Gs3
 BYTE   W48
//  #05 //169   ----------------------------------------
Label_0119567E:
 BYTE   W24
 BYTE   N17  Fs3  v104
 BYTE   W18
 BYTE   En3
 BYTE   W18
 BYTE   Bn2
 BYTE   W18
 BYTE   Cs3
 BYTE   W17
 BYTE   PEND 
 BYTE   EOT
 BYTE   En1
 BYTE   W01
//  #05 //170   ----------------------------------------
Label_0119568D:
 BYTE   N32  Bn0  v104
 BYTE   N32  En3
 BYTE   W36
 BYTE   N92  Bn0
 BYTE   N92  Ds3
 BYTE   W60
 BYTE   PEND 
//  #05 //171   ----------------------------------------
 BYTE   W48
 BYTE   N68  As0
 BYTE   N68  Ds4
 BYTE   W48
//  #05 //172   ----------------------------------------
 BYTE   W24
 BYTE   Ds1
 BYTE   N17  Cs4
 BYTE   W18
 BYTE   Bn3
 BYTE   W18
 BYTE   Cs4
 BYTE   W18
 BYTE   Fs4
 BYTE   W18
//  #05 //173   ----------------------------------------
 BYTE   N68  Gs1
 BYTE   N17  Ds4
 BYTE   W18
 BYTE   Bn3
 BYTE   W18
 BYTE   N68  Gs3
 BYTE   W36
 BYTE   Cs1
 BYTE   W24
//  #05 //174   ----------------------------------------
 BYTE   W30
 BYTE   N17  Fs3
 BYTE   W18
 BYTE   TIE  En1
 BYTE   N32  Gs3
 BYTE   W36
 BYTE   N88  Ds4
 BYTE   W12
//  #05 //175   ----------------------------------------
 BYTE   W78
 BYTE   N17  Fs3
 BYTE   W17
 BYTE   EOT
 BYTE   En1
 BYTE   W01
//  #05 //176   ----------------------------------------
 BYTE   N68  As0
 BYTE   N32  Gs3
 BYTE   W36
 BYTE   N68  Ds4
 BYTE   W36
 BYTE   Ds1
 BYTE   W24
//  #05 //177   ----------------------------------------
 BYTE   W12
 BYTE   N32  Ds4
 BYTE   W36
 BYTE   TIE  Gs1
 BYTE   TIE  Bn3
 BYTE   W48
//  #05 //178   ----------------------------------------
 BYTE   W92
 BYTE   W03
 BYTE   EOT
 BYTE   Gs1  v071
 BYTE   W01
//  #05 //179   ----------------------------------------
 BYTE   PATT
  POIN2 Label_0119566C
//  #05 //180   ----------------------------------------
 BYTE   W44
 BYTE   W03
 BYTE   EOT
 BYTE   Fs1  v070
 BYTE   W01
 BYTE   TIE  En1  v104
 BYTE   N68  Gs3
 BYTE   W48
//  #05 //181   ----------------------------------------
 BYTE   PATT
  POIN2 Label_0119567E
//  #05 //182   ----------------------------------------
 BYTE   EOT
 BYTE   En1
 BYTE   W01
//  #05 //183   ----------------------------------------
 BYTE   PATT
  POIN2 Label_0119568D
//  #05 //184   ----------------------------------------
 BYTE   W84
 BYTE   N32  Gs5  v104
 BYTE   W12
//  #05 //185   ----------------------------------------
 BYTE   W24
 BYTE   N44  Gn5
 BYTE   W48
 BYTE   N11  Gs5
 BYTE   W12
 BYTE   As5
 BYTE   W12
//  #05 //186   ----------------------------------------
 BYTE   TIE  Bn5
 BYTE   W06
 BYTE   W07
 BYTE   W07
 BYTE   W07
 BYTE   W06
 BYTE   W07
 BYTE   W07
 BYTE   W07
 BYTE   W06
 BYTE   W07
 BYTE   W07
 BYTE   W07
 BYTE   W06
 BYTE   W07
 BYTE   W02
//  #05 //187   ----------------------------------------
 BYTE   W05
 BYTE   W06
 BYTE   EOT
 BYTE   W01
 BYTE   W18
 BYTE   N17  Fs3
 BYTE   W18
 BYTE   TIE  En1
 BYTE   N32  Gs3
 BYTE   W36
 BYTE   N68  Ds4
 BYTE   W12
//  #05 //188   ----------------------------------------
 BYTE   W78
 BYTE   N17  Fs3
 BYTE   W17
 BYTE   EOT
 BYTE   En1
 BYTE   W01
//  #05 //189   ----------------------------------------
 BYTE   TIE  Fs1
 BYTE   N32  Gs3
 BYTE   W36
 BYTE   N68  Ds4
 BYTE   W60
//  #05 //190   ----------------------------------------
 BYTE   W30
 BYTE   N17  Fs4
 BYTE   W17
 BYTE   EOT
 BYTE   Fs1
 BYTE   W01
 BYTE   N32  Gs4
 BYTE   W36
 BYTE   N68  Ds5
 BYTE   W12
//  #05 //191   ----------------------------------------
 BYTE   W78
 BYTE   N17  Fs5
 BYTE   W18
//  #05 //192   ----------------------------------------
 BYTE   N32  Gs5
 BYTE   W36
 BYTE   TIE  Ds6
 BYTE   W60
//  #05 //193   ----------------------------------------
 BYTE   W44
 BYTE   W03
 BYTE   EOT
 BYTE   W48
 BYTE   W01
//  #05 //194   ----------------------------------------
 BYTE   W24
 BYTE   FINE

//**************** Track 6 (Midi-Chn.5) ****************//

FireEmblemEngage_FallenPetalsNew_006:
//  #06 //000   ----------------------------------------
 BYTE   KEYSH   FireEmblemEngage_FallenPetalsNew_key+0
 BYTE   VOICE   61
 BYTE   MODT 0
 BYTE   LFOS 44
 BYTE   VOL   33*FireEmblemEngage_FallenPetalsNew_mvl/mxv
 BYTE   BENDR  12
 BYTE   PAN   c_v+0
 BYTE   W24
 BYTE   N92  Dn3  v104
 BYTE   W72
//  #06 //001   ----------------------------------------
 BYTE   W24
 BYTE   Cs3
 BYTE   W72
//  #06 //002   ----------------------------------------
 BYTE   W24
 BYTE   En3
 BYTE   W72
//  #06 //003   ----------------------------------------
 BYTE   W24
 BYTE   N44  Dn3
 BYTE   W48
 BYTE   En3
 BYTE   W24
//  #06 //004   ----------------------------------------
 BYTE   W24
 BYTE   Dn3
 BYTE   W48
 BYTE   Gn3
 BYTE   W24
//  #06 //005   ----------------------------------------
 BYTE   W24
 BYTE   N92  Fn3
 BYTE   W72
//  #06 //006   ----------------------------------------
 BYTE   W24
 BYTE   N44
 BYTE   W48
 BYTE   Gn3
 BYTE   W24
//  #06 //007   ----------------------------------------
 BYTE   W24
 BYTE   N92  Gs3
 BYTE   W72
//  #06 //008   ----------------------------------------
 BYTE   W96
//  #06 //009   ----------------------------------------
 BYTE   W96
//  #06 //010   ----------------------------------------
 BYTE   W96
//  #06 //011   ----------------------------------------
 BYTE   W96
//  #06 //012   ----------------------------------------
 BYTE   W12
 BYTE   N32  Cn2
 BYTE   W36
 BYTE   N52  Gs2
 BYTE   W48
//  #06 //013   ----------------------------------------
 BYTE   W06
 BYTE   N17  Fn2
 BYTE   W18
 BYTE   N68
 BYTE   W72
//  #06 //014   ----------------------------------------
 BYTE   N44  En2
 BYTE   W48
 BYTE   N11  Fn2
 BYTE   W12
 BYTE   Gn2
 BYTE   W12
 BYTE   N68
 BYTE   W24
//  #06 //015   ----------------------------------------
 BYTE   W48
 BYTE   Cn2
 BYTE   W48
//  #06 //016   ----------------------------------------
 BYTE   W60
 BYTE   N32
 BYTE   W36
//  #06 //017   ----------------------------------------
 BYTE   N52  Fn2
 BYTE   W54
 BYTE   N17  Cn3
 BYTE   W18
 BYTE   N68
 BYTE   W24
//  #06 //018   ----------------------------------------
 BYTE   W48
 BYTE   As2
 BYTE   W48
//  #06 //019   ----------------------------------------
 BYTE   W24
 BYTE   Gs2
 BYTE   W72
//  #06 //020   ----------------------------------------
 BYTE   N44  Gn2
 BYTE   W48
 BYTE   N11  Fn2
 BYTE   W12
 BYTE   Gn2
 BYTE   W12
 BYTE   TIE  Gs2
 BYTE   W24
//  #06 //021   ----------------------------------------
 BYTE   W80
 BYTE   W03
 BYTE   EOT
 BYTE   W01
 BYTE   N32  As2
 BYTE   W12
//  #06 //022   ----------------------------------------
 BYTE   W24
 BYTE   TIE  Gn2
 BYTE   W72
//  #06 //023   ----------------------------------------
 BYTE   W68
 BYTE   W03
 BYTE   EOT
 BYTE   W01
Label_01194BE2:
 BYTE   W24
//  #06 //024   ----------------------------------------
 BYTE   W12
 BYTE   N32  Cn3  v104
 BYTE   W36
 BYTE   N52  Gs3
 BYTE   W48
//  #06 //025   ----------------------------------------
 BYTE   W06
 BYTE   N17  Fn3
 BYTE   W18
 BYTE   N68
 BYTE   W72
//  #06 //026   ----------------------------------------
 BYTE   N44  En3
 BYTE   W48
 BYTE   N11  Fn3
 BYTE   W12
 BYTE   Gn3
 BYTE   W12
 BYTE   N68
 BYTE   W24
//  #06 //027   ----------------------------------------
 BYTE   W48
 BYTE   Cn3
 BYTE   W48
//  #06 //028   ----------------------------------------
 BYTE   W60
 BYTE   N32
 BYTE   W36
//  #06 //029   ----------------------------------------
 BYTE   N52  Fn3
 BYTE   W54
 BYTE   N17  Cn4
 BYTE   W18
 BYTE   N68
 BYTE   W24
//  #06 //030   ----------------------------------------
 BYTE   W48
 BYTE   As3
 BYTE   W48
//  #06 //031   ----------------------------------------
 BYTE   W24
 BYTE   Gs3
 BYTE   W72
//  #06 //032   ----------------------------------------
 BYTE   Fs3
 BYTE   W72
 BYTE   TIE  Fn3
 BYTE   W24
//  #06 //033   ----------------------------------------
 BYTE   W80
 BYTE   W03
 BYTE   EOT
 BYTE   W01
 BYTE   N32  Gs3
 BYTE   W12
//  #06 //034   ----------------------------------------
 BYTE   W24
 BYTE   TIE  As3
 BYTE   W72
//  #06 //035   ----------------------------------------
 BYTE   W32
 BYTE   W03
 BYTE   EOT
 BYTE   W60
 BYTE   W01
//  #06 //036   ----------------------------------------
 BYTE   W96
//  #06 //037   ----------------------------------------
 BYTE   W96
//  #06 //038   ----------------------------------------
 BYTE   W96
//  #06 //039   ----------------------------------------
 BYTE   W96
//  #06 //040   ----------------------------------------
 BYTE   W96
//  #06 //041   ----------------------------------------
 BYTE   W96
//  #06 //042   ----------------------------------------
 BYTE   W96
//  #06 //043   ----------------------------------------
 BYTE   W96
//  #06 //044   ----------------------------------------
 BYTE   W96
//  #06 //045   ----------------------------------------
 BYTE   W96
//  #06 //046   ----------------------------------------
 BYTE   W96
//  #06 //047   ----------------------------------------
 BYTE   W72
 BYTE   N68  An2
 BYTE   W24
//  #06 //048   ----------------------------------------
 BYTE   W48
 BYTE   Cs3
 BYTE   W48
//  #06 //049   ----------------------------------------
 BYTE   W24
 BYTE   TIE  Bn2
 BYTE   W72
//  #06 //050   ----------------------------------------
 BYTE   W68
 BYTE   W03
 BYTE   EOT
 BYTE   W24
 BYTE   W01
//  #06 //051   ----------------------------------------
 BYTE   W12
 BYTE   N32
 BYTE   W36
 BYTE   TIE  Dn3
 BYTE   W48
//  #06 //052   ----------------------------------------
 BYTE   W92
 BYTE   W03
 BYTE   EOT
 BYTE   W01
//  #06 //053   ----------------------------------------
 BYTE   N44  Cs3
 BYTE   W01
 BYTE   W02
 BYTE   W01
 BYTE   W02
 BYTE   W01
 BYTE   W02
 BYTE   W01
 BYTE   W02
 BYTE   W01
 BYTE   W02
 BYTE   W01
 BYTE   W02
 BYTE   W01
 BYTE   W02
 BYTE   W01
 BYTE   W02
 BYTE   W01
 BYTE   W02
 BYTE   W01
 BYTE   W02
 BYTE   W01
 BYTE   W02
 BYTE   W01
 BYTE   W02
 BYTE   W01
 BYTE   W02
 BYTE   W01
 BYTE   W02
 BYTE   W01
 BYTE   W02
 BYTE   W01
 BYTE   W02
 BYTE   W24
 BYTE   N68  Cn3
 BYTE   W24
//  #06 //054   ----------------------------------------
 BYTE   W48
 BYTE   En3
 BYTE   W48
//  #06 //055   ----------------------------------------
Label_01194C72:
 BYTE   W24
 BYTE   TIE  Dn3  v104
 BYTE   W72
 BYTE   PEND 
//  #06 //056   ----------------------------------------
 BYTE   W68
 BYTE   W03
 BYTE   EOT
 BYTE   W01
 BYTE   N68
 BYTE   W24
//  #06 //057   ----------------------------------------
 BYTE   W48
 BYTE   N68
 BYTE   W48
//  #06 //058   ----------------------------------------
 BYTE   W24
 BYTE   N68
 BYTE   W72
//  #06 //059   ----------------------------------------
 BYTE   N68
 BYTE   W72
 BYTE   Bn2
 BYTE   W24
//  #06 //060   ----------------------------------------
 BYTE   W48
 BYTE   N52  An2
 BYTE   W48
//  #06 //061   ----------------------------------------
 BYTE   W06
 BYTE   N17  En2
 BYTE   W18
 BYTE   N68  Bn2
 BYTE   W72
//  #06 //062   ----------------------------------------
 BYTE   An2
 BYTE   W96
//  #06 //063   ----------------------------------------
 BYTE   W96
//  #06 //064   ----------------------------------------
 BYTE   W96
//  #06 //065   ----------------------------------------
 BYTE   W96
//  #06 //066   ----------------------------------------
 BYTE   W96
//  #06 //067   ----------------------------------------
 BYTE   W96
//  #06 //068   ----------------------------------------
 BYTE   W96
//  #06 //069   ----------------------------------------
 BYTE   W96
//  #06 //070   ----------------------------------------
 BYTE   W96
//  #06 //071   ----------------------------------------
 BYTE   W72
 BYTE   TIE  Bn2
 BYTE   W24
//  #06 //072   ----------------------------------------
 BYTE   W96
//  #06 //073   ----------------------------------------
 BYTE   W23
 BYTE   EOT
 BYTE   W01
 BYTE   TIE  As2
 BYTE   W72
//  #06 //074   ----------------------------------------
 BYTE   W68
 BYTE   W03
 BYTE   EOT
 BYTE   W01
 BYTE   N68  Gs2
 BYTE   W24
//  #06 //075   ----------------------------------------
Label_01194CAF:
 BYTE   W48
 BYTE   N17  Fs2  v104
 BYTE   W18
 BYTE   En2
 BYTE   W18
 BYTE   Bn1
 BYTE   W12
 BYTE   PEND 
//  #06 //076   ----------------------------------------
Label_01194CB9:
 BYTE   W06
 BYTE   N17  Cs2  v104
 BYTE   W18
 BYTE   N32  En2
 BYTE   N32  Gn2
 BYTE   W36
 BYTE   N92  Ds2
 BYTE   N92  Fs2
 BYTE   W36
 BYTE   PEND 
//  #06 //077   ----------------------------------------
 BYTE   W72
 BYTE   N68  Ds3
 BYTE   W24
//  #06 //078   ----------------------------------------
 BYTE   W48
 BYTE   N17  Cs3
 BYTE   W18
 BYTE   Bn2
 BYTE   W18
 BYTE   Cs3
 BYTE   W12
//  #06 //079   ----------------------------------------
 BYTE   W06
 BYTE   Fs3
 BYTE   W18
 BYTE   Ds3
 BYTE   W18
 BYTE   Bn2
 BYTE   W18
 BYTE   N68  Gs2
 BYTE   W36
//  #06 //080   ----------------------------------------
Label_01194CDF:
 BYTE   W54
 BYTE   N17  Fs2  v104
 BYTE   W18
 BYTE   N32  Gs2
 BYTE   W24
 BYTE   PEND 
//  #06 //081   ----------------------------------------
 BYTE   W12
 BYTE   N88  Ds3
 BYTE   W84
//  #06 //082   ----------------------------------------
Label_01194CEC:
 BYTE   W06
 BYTE   N17  Fs2  v104
 BYTE   W18
 BYTE   N32  Gs2
 BYTE   W36
 BYTE   N68  Ds3
 BYTE   W36
 BYTE   PEND 
//  #06 //083   ----------------------------------------
 BYTE   W36
 BYTE   N32
 BYTE   W36
 BYTE   TIE  Bn2
 BYTE   W24
//  #06 //084   ----------------------------------------
 BYTE   W96
//  #06 //085   ----------------------------------------
 BYTE   W23
 BYTE   EOT
 BYTE   W01
 BYTE   TIE  As2
 BYTE   W72
//  #06 //086   ----------------------------------------
 BYTE   W68
 BYTE   W03
 BYTE   EOT
 BYTE   W01
 BYTE   N68  Gs2
 BYTE   W24
//  #06 //087   ----------------------------------------
 BYTE   PATT
  POIN2 Label_01194CAF
//  #06 //088   ----------------------------------------
 BYTE   PATT
  POIN2 Label_01194CB9
//  #06 //089   ----------------------------------------
 BYTE   W96
//  #06 //090   ----------------------------------------
 BYTE   W96
//  #06 //091   ----------------------------------------
 BYTE   W96
//  #06 //092   ----------------------------------------
 BYTE   PATT
  POIN2 Label_01194CDF
//  #06 //093   ----------------------------------------
 BYTE   W12
 BYTE   N68  Ds3  v104
 BYTE   W84
//  #06 //094   ----------------------------------------
 BYTE   PATT
  POIN2 Label_01194CEC
//  #06 //095   ----------------------------------------
 BYTE   W96
//  #06 //096   ----------------------------------------
 BYTE   W96
//  #06 //097   ----------------------------------------
 BYTE   W96
//  #06 //098   ----------------------------------------
 BYTE   W96
//  #06 //099   ----------------------------------------
 BYTE   W96
//  #06 //100   ----------------------------------------
 BYTE   W96
//  #06 //101   ----------------------------------------
 BYTE   W96
//  #06 //102   ----------------------------------------
 BYTE   W96
//  #06 //103   ----------------------------------------
 BYTE   W96
//  #06 //104   ----------------------------------------
 BYTE   W96
//  #06 //105   ----------------------------------------
 BYTE   W84
 BYTE   N32  Cn2  v104
 BYTE   W12
//  #06 //106   ----------------------------------------
 BYTE   W24
 BYTE   N52  Gs2
 BYTE   W54
 BYTE   N17  Fn2
 BYTE   W18
//  #06 //107   ----------------------------------------
 BYTE   N68
 BYTE   W72
 BYTE   N44  En2
 BYTE   W24
//  #06 //108   ----------------------------------------
 BYTE   W24
 BYTE   N11  Fn2
 BYTE   W12
 BYTE   Gn2
 BYTE   W12
 BYTE   N68
 BYTE   W48
//  #06 //109   ----------------------------------------
 BYTE   W24
 BYTE   Cn2
 BYTE   W72
//  #06 //110   ----------------------------------------
 BYTE   W36
 BYTE   N32
 BYTE   W36
 BYTE   N52  Fn2
 BYTE   W24
//  #06 //111   ----------------------------------------
 BYTE   W30
 BYTE   N17  Cn3
 BYTE   W18
 BYTE   N68
 BYTE   W48
//  #06 //112   ----------------------------------------
 BYTE   W24
 BYTE   As2
 BYTE   W72
//  #06 //113   ----------------------------------------
 BYTE   Gs2
 BYTE   W72
 BYTE   N44  Gn2
 BYTE   W24
//  #06 //114   ----------------------------------------
 BYTE   W24
 BYTE   N11  Fn2
 BYTE   W12
 BYTE   Gn2
 BYTE   W12
 BYTE   TIE  Gs2
 BYTE   W48
//  #06 //115   ----------------------------------------
 BYTE   W56
 BYTE   W03
 BYTE   EOT
 BYTE   W01
 BYTE   N32  As2
 BYTE   W36
//  #06 //116   ----------------------------------------
 BYTE   TIE  Gn2
 BYTE   W96
//  #06 //117   ----------------------------------------
 BYTE   W44
 BYTE   W03
 BYTE   EOT
 BYTE   W01
 BYTE   GoTo
  POIN2 Label_01194BE2
//  #06 //118   ----------------------------------------
 BYTE   W36
 BYTE   N32  Cn3  v104
 BYTE   W12
 BYTE   W24
 BYTE   N52  Gs3
 BYTE   W54
//  #06 //119   ----------------------------------------
 BYTE   N17  Fn3
 BYTE   W18
 BYTE   N68
 BYTE   W72
 BYTE   N44  En3
 BYTE   W24
//  #06 //120   ----------------------------------------
 BYTE   W24
 BYTE   N11  Fn3
 BYTE   W12
 BYTE   Gn3
 BYTE   W12
 BYTE   N68
 BYTE   W48
//  #06 //121   ----------------------------------------
 BYTE   W24
 BYTE   Cn3
 BYTE   W72
//  #06 //122   ----------------------------------------
 BYTE   W36
 BYTE   N32
 BYTE   W36
 BYTE   N52  Fn3
 BYTE   W24
//  #06 //123   ----------------------------------------
 BYTE   W30
 BYTE   N17  Cn4
 BYTE   W18
 BYTE   N68
 BYTE   W48
//  #06 //124   ----------------------------------------
 BYTE   W24
 BYTE   As3
 BYTE   W72
//  #06 //125   ----------------------------------------
 BYTE   Gs3
 BYTE   W72
 BYTE   Fs3
 BYTE   W24
//  #06 //126   ----------------------------------------
 BYTE   W48
 BYTE   TIE  Fn3
 BYTE   W48
//  #06 //127   ----------------------------------------
 BYTE   W56
 BYTE   W03
 BYTE   EOT
 BYTE   W01
 BYTE   N32  Gs3
 BYTE   W36
//  #06 //128   ----------------------------------------
 BYTE   TIE  As3
 BYTE   W96
//  #06 //129   ----------------------------------------
 BYTE   W11
 BYTE   EOT
 BYTE   W84
 BYTE   W01
//  #06 //130   ----------------------------------------
 BYTE   W96
//  #06 //131   ----------------------------------------
 BYTE   W96
//  #06 //132   ----------------------------------------
 BYTE   W96
//  #06 //133   ----------------------------------------
 BYTE   W96
//  #06 //134   ----------------------------------------
 BYTE   W96
//  #06 //135   ----------------------------------------
 BYTE   W96
//  #06 //136   ----------------------------------------
 BYTE   W96
//  #06 //137   ----------------------------------------
 BYTE   W96
//  #06 //138   ----------------------------------------
 BYTE   W96
//  #06 //139   ----------------------------------------
 BYTE   W96
//  #06 //140   ----------------------------------------
 BYTE   W96
//  #06 //141   ----------------------------------------
 BYTE   W48
 BYTE   N68  An2
 BYTE   W48
//  #06 //142   ----------------------------------------
 BYTE   W24
 BYTE   Cs3
 BYTE   W72
//  #06 //143   ----------------------------------------
 BYTE   TIE  Bn2
 BYTE   W96
//  #06 //144   ----------------------------------------
 BYTE   W44
 BYTE   W03
 BYTE   EOT
 BYTE   W36
 BYTE   W01
 BYTE   N32
 BYTE   W12
//  #06 //145   ----------------------------------------
 BYTE   PATT
  POIN2 Label_01194C72
//  #06 //146   ----------------------------------------
 BYTE   W68
 BYTE   W03
 BYTE   EOT
 BYTE   Dn3
 BYTE   W01
 BYTE   N44  Cs3  v104
 BYTE   W01
 BYTE   W02
 BYTE   W01
 BYTE   W02
 BYTE   W01
 BYTE   W02
 BYTE   W01
 BYTE   W02
 BYTE   W01
 BYTE   W02
 BYTE   W01
 BYTE   W02
 BYTE   W01
 BYTE   W02
 BYTE   W01
 BYTE   W02
//  #06 //147   ----------------------------------------
 BYTE   W01
 BYTE   W02
 BYTE   W01
 BYTE   W02
 BYTE   W01
 BYTE   W02
 BYTE   W01
 BYTE   W02
 BYTE   W01
 BYTE   W02
 BYTE   W01
 BYTE   W02
 BYTE   W01
 BYTE   W02
 BYTE   W01
 BYTE   W02
 BYTE   W24
 BYTE   N68  Cn3
 BYTE   W48
//  #06 //148   ----------------------------------------
 BYTE   W24
 BYTE   En3
 BYTE   W72
//  #06 //149   ----------------------------------------
 BYTE   TIE  Dn3
 BYTE   W96
//  #06 //150   ----------------------------------------
 BYTE   W44
 BYTE   W03
 BYTE   EOT
 BYTE   W01
 BYTE   N68
 BYTE   W48
//  #06 //151   ----------------------------------------
 BYTE   W24
 BYTE   N68
 BYTE   W72
//  #06 //152   ----------------------------------------
 BYTE   N68
 BYTE   W72
 BYTE   N68
 BYTE   W24
//  #06 //153   ----------------------------------------
 BYTE   W48
 BYTE   Bn2
 BYTE   W48
//  #06 //154   ----------------------------------------
 BYTE   W24
 BYTE   N52  An2
 BYTE   W54
 BYTE   N17  En2
 BYTE   W18
//  #06 //155   ----------------------------------------
 BYTE   N68  Bn2
 BYTE   W72
 BYTE   An2
 BYTE   W24
//  #06 //156   ----------------------------------------
 BYTE   W96
//  #06 //157   ----------------------------------------
 BYTE   W96
//  #06 //158   ----------------------------------------
 BYTE   W96
//  #06 //159   ----------------------------------------
 BYTE   W96
//  #06 //160   ----------------------------------------
 BYTE   W96
//  #06 //161   ----------------------------------------
 BYTE   W96
//  #06 //162   ----------------------------------------
 BYTE   W96
//  #06 //163   ----------------------------------------
 BYTE   W96
//  #06 //164   ----------------------------------------
 BYTE   W96
//  #06 //165   ----------------------------------------
 BYTE   W48
 BYTE   TIE  Bn2
 BYTE   W48
//  #06 //166   ----------------------------------------
 BYTE   W92
 BYTE   W03
 BYTE   EOT
 BYTE   W01
//  #06 //167   ----------------------------------------
 BYTE   TIE  As2
 BYTE   W96
//  #06 //168   ----------------------------------------
 BYTE   W44
 BYTE   W03
 BYTE   EOT
 BYTE   W01
 BYTE   N68  Gs2
 BYTE   W48
//  #06 //169   ----------------------------------------
Label_01194E49:
 BYTE   W24
 BYTE   N17  Fs2  v104
 BYTE   W18
 BYTE   En2
 BYTE   W18
 BYTE   Bn1
 BYTE   W18
 BYTE   Cs2
 BYTE   W18
 BYTE   PEND 
//  #06 //170   ----------------------------------------
Label_01194E55:
 BYTE   N32  En2  v104
 BYTE   N32  Gn2
 BYTE   W36
 BYTE   N92  Ds2
 BYTE   N92  Fs2
 BYTE   W60
 BYTE   PEND 
//  #06 //171   ----------------------------------------
 BYTE   W48
 BYTE   N68  Ds3
 BYTE   W48
//  #06 //172   ----------------------------------------
 BYTE   W24
 BYTE   N17  Cs3
 BYTE   W18
 BYTE   Bn2
 BYTE   W18
 BYTE   Cs3
 BYTE   W18
 BYTE   Fs3
 BYTE   W18
//  #06 //173   ----------------------------------------
 BYTE   Ds3
 BYTE   W18
 BYTE   Bn2
 BYTE   W18
 BYTE   N68  Gs2
 BYTE   W60
//  #06 //174   ----------------------------------------
 BYTE   W30
 BYTE   N17  Fs2
 BYTE   W18
 BYTE   N32  Gs2
 BYTE   W36
 BYTE   N88  Ds3
 BYTE   W12
//  #06 //175   ----------------------------------------
 BYTE   W78
 BYTE   N17  Fs2
 BYTE   W18
//  #06 //176   ----------------------------------------
Label_01194E84:
 BYTE   N32  Gs2  v104
 BYTE   W36
 BYTE   N68  Ds3
 BYTE   W60
 BYTE   PEND 
//  #06 //177   ----------------------------------------
 BYTE   W12
 BYTE   N32
 BYTE   W36
 BYTE   TIE  Bn2
 BYTE   W48
//  #06 //178   ----------------------------------------
 BYTE   W92
 BYTE   W03
 BYTE   EOT
 BYTE   W01
//  #06 //179   ----------------------------------------
 BYTE   TIE  As2
 BYTE   W96
//  #06 //180   ----------------------------------------
 BYTE   W44
 BYTE   W03
 BYTE   EOT
 BYTE   W01
 BYTE   N68  Gs2
 BYTE   W48
//  #06 //181   ----------------------------------------
 BYTE   PATT
  POIN2 Label_01194E49
//  #06 //182   ----------------------------------------
 BYTE   PATT
  POIN2 Label_01194E55
//  #06 //183   ----------------------------------------
 BYTE   W96
//  #06 //184   ----------------------------------------
 BYTE   W96
//  #06 //185   ----------------------------------------
 BYTE   W96
//  #06 //186   ----------------------------------------
 BYTE   W30
 BYTE   N17  Fs2  v104
 BYTE   W18
 BYTE   N32  Gs2
 BYTE   W36
 BYTE   N68  Ds3
 BYTE   W12
//  #06 //187   ----------------------------------------
 BYTE   W78
 BYTE   N17  Fs2
 BYTE   W18
//  #06 //188   ----------------------------------------
 BYTE   PATT
  POIN2 Label_01194E84
//  #06 //189   ----------------------------------------
 BYTE   W96
//  #06 //190   ----------------------------------------
 BYTE   W96
//  #06 //191   ----------------------------------------
 BYTE   W96
//  #06 //192   ----------------------------------------
 BYTE   W96
//  #06 //193   ----------------------------------------
 BYTE   W24
 BYTE   FINE

//**************** Track 7 (Midi-Chn.6) ****************//

FireEmblemEngage_FallenPetalsNew_007:
//  #07 //000   ----------------------------------------
 BYTE   KEYSH   FireEmblemEngage_FallenPetalsNew_key+0
 BYTE   VOICE   18
 BYTE   MODT 0
 BYTE   LFOS 44
 BYTE   VOL   23*FireEmblemEngage_FallenPetalsNew_mvl/mxv
 BYTE   BENDR  12
 BYTE   PAN   c_v+0
 BYTE   W24
 BYTE   N05  Ds5  v104
 BYTE   W06
 BYTE   Dn5
 BYTE   W06
 BYTE   Bn4
 BYTE   W06
 BYTE   Gn4
 BYTE   W06
 BYTE   Ds5
 BYTE   W06
 BYTE   Dn5
 BYTE   W06
 BYTE   Bn4
 BYTE   W06
 BYTE   Gn4
 BYTE   W06
 BYTE   Ds5
 BYTE   W06
 BYTE   Dn5
 BYTE   W06
 BYTE   Bn4
 BYTE   W06
 BYTE   Gn4
 BYTE   W06
//  #07 //001   ----------------------------------------
 BYTE   Ds5
 BYTE   W06
 BYTE   Dn5
 BYTE   W06
 BYTE   Bn4
 BYTE   W06
 BYTE   Gn4
 BYTE   W06
 BYTE   Ds5
 BYTE   W06
 BYTE   Dn5
 BYTE   W06
 BYTE   As4
 BYTE   W06
 BYTE   Fn4
 BYTE   W06
 BYTE   Ds5
 BYTE   W06
 BYTE   Dn5
 BYTE   W06
 BYTE   As4
 BYTE   W06
 BYTE   Fn4
 BYTE   W06
 BYTE   Ds5
 BYTE   W06
 BYTE   Dn5
 BYTE   W06
 BYTE   As4
 BYTE   W06
 BYTE   Fn4
 BYTE   W06
//  #07 //002   ----------------------------------------
 BYTE   Ds5
 BYTE   W06
 BYTE   Dn5
 BYTE   W06
 BYTE   As4
 BYTE   W06
 BYTE   Fn4
 BYTE   W06
 BYTE   En5
 BYTE   W06
 BYTE   Ds5
 BYTE   W06
 BYTE   Cs5
 BYTE   W06
 BYTE   Gs4
 BYTE   W06
 BYTE   En5
 BYTE   W06
 BYTE   Ds5
 BYTE   W06
 BYTE   Cs5
 BYTE   W06
 BYTE   Gs4
 BYTE   W06
 BYTE   En5
 BYTE   W06
 BYTE   Ds5
 BYTE   W06
 BYTE   Cs5
 BYTE   W06
 BYTE   Gs4
 BYTE   W06
//  #07 //003   ----------------------------------------
 BYTE   En5
 BYTE   W06
 BYTE   Ds5
 BYTE   W06
 BYTE   Cs5
 BYTE   W06
 BYTE   Gs4
 BYTE   W06
 BYTE   En5
 BYTE   W06
 BYTE   Ds5
 BYTE   W06
 BYTE   Bn4
 BYTE   W06
 BYTE   Gn4
 BYTE   W06
 BYTE   En5
 BYTE   W06
 BYTE   Ds5
 BYTE   W06
 BYTE   Bn4
 BYTE   W06
 BYTE   Gn4
 BYTE   W06
 BYTE   En5
 BYTE   W06
 BYTE   Ds5
 BYTE   W06
 BYTE   Bn4
 BYTE   W06
 BYTE   Gn4
 BYTE   W06
//  #07 //004   ----------------------------------------
 BYTE   En5
 BYTE   W06
 BYTE   Ds5
 BYTE   W06
 BYTE   Bn4
 BYTE   W06
 BYTE   Gn4
 BYTE   W06
 BYTE   Dn5
 BYTE   W06
 BYTE   Cs5
 BYTE   W06
 BYTE   Gn4
 BYTE   W06
 BYTE   Dn4
 BYTE   W06
 BYTE   Dn5
 BYTE   W06
 BYTE   Cs5
 BYTE   W06
 BYTE   Gn4
 BYTE   W06
 BYTE   Dn4
 BYTE   W06
 BYTE   Dn5
 BYTE   W06
 BYTE   Cs5
 BYTE   W06
 BYTE   Gn4
 BYTE   W06
 BYTE   Dn4
 BYTE   W06
//  #07 //005   ----------------------------------------
 BYTE   Dn5
 BYTE   W06
 BYTE   Cs5
 BYTE   W06
 BYTE   Gn4
 BYTE   W06
 BYTE   Dn4
 BYTE   W78
//  #07 //006   ----------------------------------------
 BYTE   N11  Dn5
 BYTE   W12
 BYTE   En5
 BYTE   W12
 BYTE   N44  Fn5
 BYTE   W48
 BYTE   Gn5
 BYTE   W24
//  #07 //007   ----------------------------------------
 BYTE   W24
 BYTE   N02  Cs2
 BYTE   N44  Gs5
 BYTE   W02
 BYTE   N02  Cs2
 BYTE   W03
 BYTE   N02
 BYTE   W03
 BYTE   N02
 BYTE   W03
 BYTE   N02
 BYTE   W03
 BYTE   N02
 BYTE   W03
 BYTE   N02
 BYTE   W03
 BYTE   N02
 BYTE   W03
 BYTE   N02
 BYTE   W03
 BYTE   N02
 BYTE   W03
 BYTE   N02
 BYTE   W03
 BYTE   N02
 BYTE   W03
 BYTE   N02
 BYTE   W03
 BYTE   N02
 BYTE   W03
 BYTE   N02
 BYTE   W03
 BYTE   N02
 BYTE   W03
 BYTE   N02
 BYTE   W01
 BYTE   N92  Cs6
 BYTE   W02
 BYTE   N02  Cs2
 BYTE   W03
 BYTE   N02
 BYTE   W03
 BYTE   N02
 BYTE   W03
 BYTE   N02
 BYTE   W03
 BYTE   N02
 BYTE   W03
 BYTE   N02
 BYTE   W03
 BYTE   N02
 BYTE   W03
 BYTE   N02
 BYTE   W01
//  #07 //008   ----------------------------------------
 BYTE   W02
 BYTE   N02
 BYTE   W03
 BYTE   N02
 BYTE   W03
 BYTE   N02
 BYTE   W03
 BYTE   N02
 BYTE   W03
 BYTE   N02
 BYTE   W03
 BYTE   N02
 BYTE   W03
 BYTE   N02
 BYTE   W52
 BYTE   TIE  Cn6
 BYTE   W06
 BYTE   W06
 BYTE   W06
 BYTE   W06
//  #07 //009   ----------------------------------------
 BYTE   W06
 BYTE   W06
 BYTE   W06
 BYTE   W07
 BYTE   W06
 BYTE   W06
 BYTE   W06
 BYTE   W06
 BYTE   W06
 BYTE   W06
 BYTE   W06
 BYTE   W07
 BYTE   W06
 BYTE   W06
 BYTE   W06
 BYTE   W04
//  #07 //010   ----------------------------------------
 BYTE   W02
 BYTE   W06
 BYTE   W06
 BYTE   W06
 BYTE   W07
 BYTE   W06
 BYTE   W06
 BYTE   W06
 BYTE   W06
 BYTE   W06
 BYTE   W06
 BYTE   W07
 BYTE   W06
 BYTE   W06
 BYTE   W06
 BYTE   W06
 BYTE   W02
//  #07 //011   ----------------------------------------
 BYTE   W04
 BYTE   W06
 BYTE   W06
 BYTE   W07
 BYTE   W06
 BYTE   W06
 BYTE   W06
 BYTE   W06
 BYTE   W06
 BYTE   W06
 BYTE   W06
 BYTE   W06
 BYTE   EOT
 BYTE   W01
 BYTE   W24
//  #07 //012   ----------------------------------------
 BYTE   W96
//  #07 //013   ----------------------------------------
 BYTE   W96
//  #07 //014   ----------------------------------------
 BYTE   W96
//  #07 //015   ----------------------------------------
 BYTE   W96
//  #07 //016   ----------------------------------------
 BYTE   W60
 BYTE   N32  Cn3
 BYTE   W36
//  #07 //017   ----------------------------------------
 BYTE   N52  Fn3
 BYTE   W54
 BYTE   N17  Cn4
 BYTE   W18
 BYTE   N68
 BYTE   W24
//  #07 //018   ----------------------------------------
 BYTE   W48
 BYTE   As3
 BYTE   W48
//  #07 //019   ----------------------------------------
 BYTE   W24
 BYTE   Gs3
 BYTE   W72
//  #07 //020   ----------------------------------------
 BYTE   N44  Gn3
 BYTE   W48
 BYTE   N11  Fn3
 BYTE   W12
 BYTE   Gn3
 BYTE   W12
 BYTE   TIE  Gs3
 BYTE   W24
//  #07 //021   ----------------------------------------
 BYTE   W80
 BYTE   W03
 BYTE   EOT
 BYTE   W01
 BYTE   N32  As3
 BYTE   W12
//  #07 //022   ----------------------------------------
 BYTE   W24
 BYTE   TIE  Gn3
 BYTE   W72
//  #07 //023   ----------------------------------------
 BYTE   N02  Cn2
 BYTE   W02
 BYTE   N02
 BYTE   W03
 BYTE   N02
 BYTE   W03
 BYTE   N02
 BYTE   W03
 BYTE   N02
 BYTE   W03
 BYTE   N02
 BYTE   W03
 BYTE   N02
 BYTE   W03
 BYTE   N02
 BYTE   W03
 BYTE   N02
 BYTE   W03
 BYTE   N02
 BYTE   W03
 BYTE   N02
 BYTE   W03
 BYTE   N02
 BYTE   W03
 BYTE   N02
 BYTE   W03
 BYTE   N02
 BYTE   W03
 BYTE   N02
 BYTE   W03
 BYTE   N02
 BYTE   W03
 BYTE   N02
 BYTE   W03
 BYTE   N02
 BYTE   W03
 BYTE   N02
 BYTE   W03
 BYTE   N02
 BYTE   W03
 BYTE   N02
 BYTE   W02
 BYTE   N02
 BYTE   W03
 BYTE   N02
 BYTE   W03
 BYTE   N02
 BYTE   W04
 BYTE   EOT
 BYTE   Gn3
 BYTE   W01
Label_01195963:
 BYTE   N23  Fn1  v104
 BYTE   W24
//  #07 //024   ----------------------------------------
 BYTE   W12
 BYTE   N32  Cn5
 BYTE   W36
 BYTE   N52  Gs5
 BYTE   W48
//  #07 //025   ----------------------------------------
 BYTE   W06
 BYTE   N17  Fn5
 BYTE   W18
 BYTE   N68
 BYTE   W72
//  #07 //026   ----------------------------------------
 BYTE   N44  En5
 BYTE   W48
 BYTE   N11  Fn5
 BYTE   W12
 BYTE   Gn5
 BYTE   W12
 BYTE   N68
 BYTE   W24
//  #07 //027   ----------------------------------------
 BYTE   W48
 BYTE   Cn5
 BYTE   W48
//  #07 //028   ----------------------------------------
 BYTE   W96
//  #07 //029   ----------------------------------------
 BYTE   W54
 BYTE   W42
//  #07 //030   ----------------------------------------
 BYTE   W96
//  #07 //031   ----------------------------------------
 BYTE   W96
//  #07 //032   ----------------------------------------
 BYTE   W96
//  #07 //033   ----------------------------------------
 BYTE   W96
//  #07 //034   ----------------------------------------
 BYTE   W96
//  #07 //035   ----------------------------------------
 BYTE   W72
 BYTE   Cs3
 BYTE   W24
//  #07 //036   ----------------------------------------
 BYTE   W48
 BYTE   N23
 BYTE   W24
 BYTE   N23
 BYTE   W24
//  #07 //037   ----------------------------------------
 BYTE   Ds3
 BYTE   W24
 BYTE   N68  Fn3
 BYTE   W72
//  #07 //038   ----------------------------------------
 BYTE   Gs3
 BYTE   W72
 BYTE   Gn3
 BYTE   W24
//  #07 //039   ----------------------------------------
 BYTE   W66
 BYTE   N17
 BYTE   W18
 BYTE   N17
 BYTE   W12
//  #07 //040   ----------------------------------------
 BYTE   W06
 BYTE   Gs3
 BYTE   W18
 BYTE   N23  As3
 BYTE   W24
 BYTE   Gn3
 BYTE   W24
 BYTE   Fn3
 BYTE   W24
//  #07 //041   ----------------------------------------
 BYTE   Ds3
 BYTE   W24
 BYTE   As2
 BYTE   W24
 BYTE   Gn2
 BYTE   W24
 BYTE   N68  Cs3
 BYTE   W24
//  #07 //042   ----------------------------------------
 BYTE   W48
 BYTE   N44  Fn3
 BYTE   W48
//  #07 //043   ----------------------------------------
 BYTE   N23  Gn3
 BYTE   W24
 BYTE   N68  Gs3
 BYTE   W72
//  #07 //044   ----------------------------------------
 BYTE   Cs4
 BYTE   W72
 BYTE   TIE  Cn4
 BYTE   W24
//  #07 //045   ----------------------------------------
 BYTE   W80
 BYTE   W03
 BYTE   EOT
 BYTE   W01
 BYTE   N17
 BYTE   W12
//  #07 //046   ----------------------------------------
 BYTE   W06
 BYTE   Cs4
 BYTE   W18
 BYTE   N23  Ds4
 BYTE   W24
 BYTE   As3
 BYTE   W24
 BYTE   Gs3
 BYTE   W04
 BYTE   W05
 BYTE   W04
 BYTE   W05
 BYTE   W04
 BYTE   W02
//  #07 //047   ----------------------------------------
 BYTE   Fs3
 BYTE   W03
 BYTE   W04
 BYTE   W05
 BYTE   W04
 BYTE   W05
 BYTE   W03
 BYTE   Fn3
 BYTE   W01
 BYTE   W05
 BYTE   W04
 BYTE   W05
 BYTE   W04
 BYTE   W05
 BYTE   Ds3
 BYTE   W24
 BYTE   N68  Gs5
 BYTE   W24
//  #07 //048   ----------------------------------------
 BYTE   W48
 BYTE   N17
 BYTE   W18
 BYTE   Fs5
 BYTE   W18
 BYTE   Gs5
 BYTE   W12
//  #07 //049   ----------------------------------------
 BYTE   W06
 BYTE   Cs6
 BYTE   W18
 BYTE   Bn5
 BYTE   W18
 BYTE   Fs5
 BYTE   W18
 BYTE   N56  Ds5
 BYTE   W36
//  #07 //050   ----------------------------------------
 BYTE   W36
 BYTE   N32  En5
 BYTE   W36
 BYTE   N68  Fs5
 BYTE   W24
//  #07 //051   ----------------------------------------
 BYTE   W48
 BYTE   N17
 BYTE   W18
 BYTE   En5
 BYTE   W18
 BYTE   Fs5
 BYTE   W12
//  #07 //052   ----------------------------------------
 BYTE   W06
 BYTE   Bn5
 BYTE   W18
 BYTE   TIE  Gs5
 BYTE   W04
 BYTE   W05
 BYTE   W04
 BYTE   W05
 BYTE   W04
 BYTE   W05
 BYTE   W04
 BYTE   W05
 BYTE   W04
 BYTE   W05
 BYTE   W04
 BYTE   W05
 BYTE   W04
 BYTE   W05
 BYTE   W04
 BYTE   W05
//  #07 //053   ----------------------------------------
 BYTE   W04
 BYTE   W05
 BYTE   W04
 BYTE   W05
 BYTE   W04
 BYTE   W05
 BYTE   W04
 BYTE   W05
 BYTE   W04
 BYTE   W05
 BYTE   W04
 BYTE   W05
 BYTE   W04
 BYTE   W05
 BYTE   W04
 BYTE   W04
 BYTE   EOT
 BYTE   W01
 BYTE   W24
//  #07 //054   ----------------------------------------
 BYTE   W96
//  #07 //055   ----------------------------------------
 BYTE   W96
//  #07 //056   ----------------------------------------
 BYTE   W36
 BYTE   N17  Fs5
 BYTE   W18
 BYTE   Gn5
 BYTE   W18
 BYTE   N68  An5
 BYTE   W24
//  #07 //057   ----------------------------------------
 BYTE   W48
 BYTE   Gs5
 BYTE   W48
//  #07 //058   ----------------------------------------
 BYTE   W60
 BYTE   N32
 BYTE   W06
 BYTE   W07
 BYTE   W07
 BYTE   W07
 BYTE   W06
 BYTE   W03
//  #07 //059   ----------------------------------------
 BYTE   N52  An5
 BYTE   W04
 BYTE   W07
 BYTE   W07
 BYTE   W06
 BYTE   W07
 BYTE   W05
 BYTE   N02  En1
 BYTE   W02
 BYTE   N02
 BYTE   W03
 BYTE   N02
 BYTE   W03
 BYTE   N02
 BYTE   W01
 BYTE   W02
 BYTE   N02
 BYTE   W03
 BYTE   N02
 BYTE   W01
 BYTE   W02
 BYTE   N02
 BYTE   W01
 BYTE   N17  Bn5
 BYTE   W02
 BYTE   N02  En1
 BYTE   W02
 BYTE   W01
 BYTE   N02
 BYTE   W03
 BYTE   N02
 BYTE   W03
 BYTE   N02
 BYTE   W03
 BYTE   N02
 BYTE   W04
 BYTE   N68  Bn5
 BYTE   W24
//  #07 //060   ----------------------------------------
 BYTE   W48
 BYTE   N52  An5
 BYTE   W48
//  #07 //061   ----------------------------------------
 BYTE   W06
 BYTE   N17  En5
 BYTE   W18
 BYTE   N68  Bn5
 BYTE   W72
//  #07 //062   ----------------------------------------
 BYTE   N17  En5
 BYTE   W18
 BYTE   An5
 BYTE   W18
 BYTE   En5
 BYTE   W18
 BYTE   An5
 BYTE   W18
 BYTE   N23  Bn1
 BYTE   N05  Bn5
 BYTE   W18
 BYTE   N05
 BYTE   W06
//  #07 //063   ----------------------------------------
Label_01195A8C:
 BYTE   N05  Bn5  v104
 BYTE   W06
 BYTE   N05
 BYTE   W06
 BYTE   N05
 BYTE   W18
 BYTE   N17  Bn1
 BYTE   N05  Bn5
 BYTE   W06
 BYTE   N05
 BYTE   W06
 BYTE   N05
 BYTE   W06
 BYTE   N17  Bn1
 BYTE   N05  Bn5
 BYTE   W06
 BYTE   N05
 BYTE   W06
 BYTE   N05
 BYTE   W06
 BYTE   N17  Bn1
 BYTE   N05  Bn5
 BYTE   W06
 BYTE   N05
 BYTE   W06
 BYTE   N05
 BYTE   W06
 BYTE   N23  Bn1
 BYTE   N05  Bn5
 BYTE   W12
 BYTE   PEND 
//  #07 //064   ----------------------------------------
 BYTE   W06
 BYTE   N05
 BYTE   W06
 BYTE   N05
 BYTE   W06
 BYTE   N05
 BYTE   W06
 BYTE   N05
 BYTE   W18
 BYTE   N17  Bn1
 BYTE   N05  Bn5
 BYTE   W06
 BYTE   N05
 BYTE   W06
 BYTE   N05
 BYTE   W06
 BYTE   N17  Bn1
 BYTE   N05  Bn5
 BYTE   W06
 BYTE   N05
 BYTE   W06
 BYTE   N05
 BYTE   W06
 BYTE   N17  Bn1
 BYTE   N05  Bn5
 BYTE   W06
 BYTE   N05
 BYTE   W06
 BYTE   N05
 BYTE   W06
//  #07 //065   ----------------------------------------
 BYTE   N23  Bn1
 BYTE   N05  Bn5
 BYTE   W18
 BYTE   N05
 BYTE   W06
 BYTE   N05
 BYTE   W06
 BYTE   N05
 BYTE   W06
 BYTE   N05
 BYTE   W18
 BYTE   N17  Bn1
 BYTE   N05  Bn5
 BYTE   W06
 BYTE   N05
 BYTE   W06
 BYTE   N05
 BYTE   W06
 BYTE   N17  Bn1
 BYTE   N05  Bn5
 BYTE   W06
 BYTE   N05
 BYTE   W06
 BYTE   N05
 BYTE   W06
 BYTE   N17  Bn1
 BYTE   N05  Bn5
 BYTE   W06
//  #07 //066   ----------------------------------------
 BYTE   N05
 BYTE   W06
 BYTE   N05
 BYTE   W06
 BYTE   N23  Bn1
 BYTE   N05  Bn5
 BYTE   W18
 BYTE   N05
 BYTE   W06
 BYTE   N05
 BYTE   W06
 BYTE   N05
 BYTE   W06
 BYTE   N05
 BYTE   W18
 BYTE   N17  Bn1
 BYTE   N05  Bn5
 BYTE   W06
 BYTE   N05
 BYTE   W06
 BYTE   N05
 BYTE   W06
 BYTE   N17  Bn1
 BYTE   N05  Bn5
 BYTE   W06
 BYTE   N05
 BYTE   W06
//  #07 //067   ----------------------------------------
 BYTE   N05
 BYTE   W06
 BYTE   N17  Bn1
 BYTE   N05  As5
 BYTE   W06
 BYTE   N05
 BYTE   W06
 BYTE   N05
 BYTE   W06
 BYTE   N23  Gs1
 BYTE   N05  As5
 BYTE   W18
 BYTE   N05
 BYTE   W06
 BYTE   N05
 BYTE   W06
 BYTE   N05
 BYTE   W06
 BYTE   N05
 BYTE   W18
 BYTE   N17  Gs1
 BYTE   N05  As5
 BYTE   W06
 BYTE   N05
 BYTE   W06
 BYTE   N05
 BYTE   W06
//  #07 //068   ----------------------------------------
 BYTE   N17  Gs1
 BYTE   N05  As5
 BYTE   W06
 BYTE   N05
 BYTE   W06
 BYTE   N05
 BYTE   W06
 BYTE   N17  Gs1
 BYTE   N05  As5
 BYTE   W06
 BYTE   N05
 BYTE   W06
 BYTE   N05
 BYTE   W06
 BYTE   N23  Gs1
 BYTE   N05  As5
 BYTE   W18
 BYTE   N05
 BYTE   W06
 BYTE   N05
 BYTE   W06
 BYTE   N05
 BYTE   W06
 BYTE   N05
 BYTE   W18
 BYTE   N17  Gs1
 BYTE   N05  As5
 BYTE   W06
//  #07 //069   ----------------------------------------
 BYTE   N05
 BYTE   W06
 BYTE   N05
 BYTE   W06
 BYTE   N17  En2
 BYTE   N05  As5
 BYTE   W06
 BYTE   N05
 BYTE   W06
 BYTE   N05
 BYTE   W06
 BYTE   N17  Bn1
 BYTE   N05  As5
 BYTE   W06
 BYTE   N05
 BYTE   W06
 BYTE   N05
 BYTE   W06
 BYTE   N23  As1
 BYTE   N05  As5
 BYTE   W18
 BYTE   N05
 BYTE   W06
 BYTE   N05
 BYTE   W06
 BYTE   N05
 BYTE   W06
 BYTE   N05
 BYTE   W12
//  #07 //070   ----------------------------------------
 BYTE   W06
 BYTE   N17  As1
 BYTE   N05  As5
 BYTE   W06
 BYTE   N05
 BYTE   W06
 BYTE   N05
 BYTE   W06
 BYTE   N17  As1
 BYTE   N05  As5
 BYTE   W06
 BYTE   N05
 BYTE   W06
 BYTE   N05
 BYTE   W06
 BYTE   N17  As1
 BYTE   N05  As5
 BYTE   W06
 BYTE   N05
 BYTE   W06
 BYTE   N05
 BYTE   W06
 BYTE   N23  Ds2
 BYTE   W36
//  #07 //071   ----------------------------------------
 BYTE   W36
 BYTE   N32  Ds5
 BYTE   W36
 BYTE   TIE  Bn5
 BYTE   W24
//  #07 //072   ----------------------------------------
 BYTE   W84
 BYTE   N23  Cs2
 BYTE   W12
//  #07 //073   ----------------------------------------
 BYTE   W23
 BYTE   EOT
 BYTE   Bn5
 BYTE   W01
 BYTE   TIE  As5
 BYTE   W72
//  #07 //074   ----------------------------------------
Label_01195BB7:
 BYTE   W36
 BYTE   N23  Cs2  v104
 BYTE   W32
 BYTE   W03
 BYTE   PEND 
 BYTE   EOT
 BYTE   As5
 BYTE   W01
 BYTE   N68  Gs5
 BYTE   W24
//  #07 //075   ----------------------------------------
Label_01195BC4:
 BYTE   W48
 BYTE   N17  Fs5  v104
 BYTE   W18
 BYTE   En5
 BYTE   W18
 BYTE   N23  Cs2
 BYTE   N17  Bn4
 BYTE   W12
 BYTE   PEND 
//  #07 //076   ----------------------------------------
Label_01195BD1:
 BYTE   W06
 BYTE   N17  Cs5  v104
 BYTE   W18
 BYTE   N32  En5
 BYTE   W36
 BYTE   N92  Ds5
 BYTE   W36
 BYTE   PEND 
//  #07 //077   ----------------------------------------
 BYTE   W96
//  #07 //078   ----------------------------------------
 BYTE   W12
 BYTE   N32  Gs5
 BYTE   W36
 BYTE   N44  Gn5
 BYTE   W36
 BYTE   N23  Cs2
 BYTE   W12
//  #07 //079   ----------------------------------------
 BYTE   N11  Gs5
 BYTE   W12
 BYTE   As5
 BYTE   W12
 BYTE   N68  Ds5
 BYTE   W72
//  #07 //080   ----------------------------------------
 BYTE   Gs5
 BYTE   W02
 BYTE   W02
 BYTE   W02
 BYTE   W03
 BYTE   W02
 BYTE   W02
 BYTE   W02
 BYTE   W03
 BYTE   W02
 BYTE   W02
 BYTE   W02
 BYTE   W03
 BYTE   W02
 BYTE   W02
 BYTE   W02
 BYTE   W03
 BYTE   N23  Cs2
 BYTE   W02
 BYTE   W02
 BYTE   W02
 BYTE   W03
 BYTE   W02
 BYTE   W02
 BYTE   W02
 BYTE   W03
 BYTE   W02
 BYTE   W02
 BYTE   W02
 BYTE   W03
 BYTE   W02
 BYTE   W02
 BYTE   W02
 BYTE   W03
 BYTE   W24
//  #07 //081   ----------------------------------------
 BYTE   W42
 BYTE   N05  Ds5
 BYTE   W06
 BYTE   Gs5
 BYTE   W06
 BYTE   Ds5
 BYTE   W06
 BYTE   Bn4
 BYTE   W06
 BYTE   N17  Gs1
 BYTE   N05  Ds5
 BYTE   W06
 BYTE   Bn4
 BYTE   W06
 BYTE   Gs4
 BYTE   W06
 BYTE   N23  Cs2
 BYTE   N32  Gs5
 BYTE   W12
//  #07 //082   ----------------------------------------
 BYTE   W24
 BYTE   N52  En5
 BYTE   W36
 BYTE   N17  Ds2
 BYTE   W18
 BYTE   Gs1
 BYTE   N17  Gs5
 BYTE   W18
//  #07 //083   ----------------------------------------
 BYTE   N23  Gs1
 BYTE   N32  Gn5
 BYTE   W36
 BYTE   Ds5
 BYTE   W36
 BYTE   TIE  Bn5
 BYTE   W24
//  #07 //084   ----------------------------------------
 BYTE   W84
 BYTE   N23  Cs2
 BYTE   W12
//  #07 //085   ----------------------------------------
 BYTE   W23
 BYTE   EOT
 BYTE   Bn5
 BYTE   W01
 BYTE   TIE  As5
 BYTE   W72
//  #07 //086   ----------------------------------------
 BYTE   PATT
  POIN2 Label_01195BB7
//  #07 //087   ----------------------------------------
 BYTE   EOT
 BYTE   As5
 BYTE   W01
 BYTE   N68  Gs5  v104
 BYTE   W24
//  #07 //088   ----------------------------------------
 BYTE   PATT
  POIN2 Label_01195BC4
//  #07 //089   ----------------------------------------
 BYTE   PATT
  POIN2 Label_01195BD1
//  #07 //090   ----------------------------------------
 BYTE   W36
 BYTE   N32  Ds2  v104
 BYTE   W36
 BYTE   N68  Ds3
 BYTE   W24
//  #07 //091   ----------------------------------------
 BYTE   W48
 BYTE   N17  Cs3
 BYTE   W18
 BYTE   Bn2
 BYTE   W18
 BYTE   Cs3
 BYTE   W12
//  #07 //092   ----------------------------------------
 BYTE   W06
 BYTE   Fs3
 BYTE   W18
 BYTE   Ds3
 BYTE   W18
 BYTE   Bn2
 BYTE   W18
 BYTE   N88  Gs2
 BYTE   W02
 BYTE   W02
 BYTE   W02
 BYTE   W03
 BYTE   W02
 BYTE   W02
 BYTE   W02
 BYTE   W03
 BYTE   W02
 BYTE   W02
 BYTE   W02
 BYTE   W03
 BYTE   W02
 BYTE   W02
 BYTE   W02
 BYTE   W03
//  #07 //093   ----------------------------------------
 BYTE   W02
 BYTE   W02
 BYTE   W02
 BYTE   W03
 BYTE   W02
 BYTE   W02
 BYTE   W02
 BYTE   W03
 BYTE   W02
 BYTE   W02
 BYTE   W02
 BYTE   W03
 BYTE   W02
 BYTE   W02
 BYTE   W02
 BYTE   W03
 BYTE   W18
 BYTE   N17  Fs2
 BYTE   W18
 BYTE   N32  Gs2
 BYTE   W24
//  #07 //094   ----------------------------------------
 BYTE   W12
 BYTE   N68  Ds3
 BYTE   W84
//  #07 //095   ----------------------------------------
 BYTE   W06
 BYTE   N17  Fs2
 BYTE   W18
 BYTE   N32  Gs2
 BYTE   W36
 BYTE   N68  Ds3
 BYTE   W36
//  #07 //096   ----------------------------------------
 BYTE   W96
//  #07 //097   ----------------------------------------
 BYTE   W96
//  #07 //098   ----------------------------------------
 BYTE   W96
//  #07 //099   ----------------------------------------
 BYTE   W96
//  #07 //100   ----------------------------------------
 BYTE   W96
//  #07 //101   ----------------------------------------
 BYTE   W96
//  #07 //102   ----------------------------------------
 BYTE   W96
//  #07 //103   ----------------------------------------
 BYTE   W96
//  #07 //104   ----------------------------------------
 BYTE   W96
//  #07 //105   ----------------------------------------
 BYTE   W96
//  #07 //106   ----------------------------------------
 BYTE   W96
//  #07 //107   ----------------------------------------
 BYTE   W96
//  #07 //108   ----------------------------------------
 BYTE   W96
//  #07 //109   ----------------------------------------
 BYTE   W96
//  #07 //110   ----------------------------------------
 BYTE   W96
//  #07 //111   ----------------------------------------
 BYTE   W36
 BYTE   N32  Cn3
 BYTE   W36
 BYTE   N52  Fn3
 BYTE   W24
//  #07 //112   ----------------------------------------
 BYTE   W30
 BYTE   N17  Cn4
 BYTE   W18
 BYTE   N68
 BYTE   W48
//  #07 //113   ----------------------------------------
 BYTE   W24
 BYTE   As3
 BYTE   W72
//  #07 //114   ----------------------------------------
 BYTE   Gs3
 BYTE   W72
 BYTE   N44  Gn3
 BYTE   W24
//  #07 //115   ----------------------------------------
 BYTE   W24
 BYTE   N11  Fn3
 BYTE   W12
 BYTE   Gn3
 BYTE   W12
 BYTE   TIE  Gs3
 BYTE   W48
//  #07 //116   ----------------------------------------
 BYTE   W56
 BYTE   W03
 BYTE   EOT
 BYTE   W01
 BYTE   N32  As3
 BYTE   W36
//  #07 //117   ----------------------------------------
 BYTE   TIE  Gn3
 BYTE   W72
 BYTE   N02  Cn2
 BYTE   W02
 BYTE   N02
 BYTE   W03
 BYTE   N02
 BYTE   W03
 BYTE   N02
 BYTE   W03
 BYTE   N02
 BYTE   W03
 BYTE   N02
 BYTE   W03
 BYTE   N02
 BYTE   W03
 BYTE   N02
 BYTE   W03
 BYTE   N02
 BYTE   W01
//  #07 //118   ----------------------------------------
 BYTE   W02
 BYTE   N02
 BYTE   W03
 BYTE   N02
 BYTE   W03
 BYTE   N02
 BYTE   W03
 BYTE   N02
 BYTE   W03
 BYTE   N02
 BYTE   W03
 BYTE   N02
 BYTE   W03
 BYTE   N02
 BYTE   W03
 BYTE   N02
 BYTE   W03
 BYTE   N02
 BYTE   W03
 BYTE   N02
 BYTE   W03
 BYTE   N02
 BYTE   W03
 BYTE   N02
 BYTE   W02
 BYTE   N02
 BYTE   W03
 BYTE   N02
 BYTE   W03
 BYTE   N02
 BYTE   W04
 BYTE   EOT
 BYTE   Gn3
 BYTE   W01
 BYTE   GoTo
  POIN2 Label_01195963
//  #07 //119   ----------------------------------------
 BYTE   N23  Fn1  v104
 BYTE   W36
 BYTE   N32  Cn5
 BYTE   W12
 BYTE   W24
 BYTE   N52  Gs5
 BYTE   W54
//  #07 //120   ----------------------------------------
 BYTE   N17  Fn5
 BYTE   W18
 BYTE   N68
 BYTE   W72
 BYTE   N44  En5
 BYTE   W24
//  #07 //121   ----------------------------------------
 BYTE   W24
 BYTE   N11  Fn5
 BYTE   W12
 BYTE   Gn5
 BYTE   W12
 BYTE   N68
 BYTE   W48
//  #07 //122   ----------------------------------------
 BYTE   W24
 BYTE   Cn5
 BYTE   W72
//  #07 //123   ----------------------------------------
 BYTE   W36
 BYTE   N32
 BYTE   W36
 BYTE   N52  Cn6
 BYTE   W24
//  #07 //124   ----------------------------------------
 BYTE   W30
 BYTE   N17  Ds6
 BYTE   W18
 BYTE   N68
 BYTE   W48
//  #07 //125   ----------------------------------------
 BYTE   W24
 BYTE   Cs6
 BYTE   W72
//  #07 //126   ----------------------------------------
 BYTE   Cn6
 BYTE   W72
 BYTE   As5
 BYTE   W24
//  #07 //127   ----------------------------------------
 BYTE   W48
 BYTE   TIE  Cn6
 BYTE   W48
//  #07 //128   ----------------------------------------
 BYTE   W56
 BYTE   W03
 BYTE   EOT
 BYTE   W01
 BYTE   N32  Fn6
 BYTE   W36
//  #07 //129   ----------------------------------------
 BYTE   TIE  Gn6
 BYTE   W96
//  #07 //130   ----------------------------------------
 BYTE   W11
 BYTE   EOT
 BYTE   W36
 BYTE   W01
 BYTE   N68  Cs3
 BYTE   W48
//  #07 //131   ----------------------------------------
 BYTE   W24
 BYTE   N23
 BYTE   W24
 BYTE   N23
 BYTE   W24
 BYTE   Ds3
 BYTE   W24
//  #07 //132   ----------------------------------------
 BYTE   N68  Fn3
 BYTE   W72
 BYTE   Gs3
 BYTE   W24
//  #07 //133   ----------------------------------------
 BYTE   W48
 BYTE   Gn3
 BYTE   W48
//  #07 //134   ----------------------------------------
 BYTE   W42
 BYTE   N17
 BYTE   W18
 BYTE   N17
 BYTE   W18
 BYTE   Gs3
 BYTE   W18
//  #07 //135   ----------------------------------------
 BYTE   N23  As3
 BYTE   W24
 BYTE   Gn3
 BYTE   W24
 BYTE   Fn3
 BYTE   W24
 BYTE   Ds3
 BYTE   W24
//  #07 //136   ----------------------------------------
 BYTE   As2
 BYTE   W24
 BYTE   Gn2
 BYTE   W24
 BYTE   N68  Cs3
 BYTE   W48
//  #07 //137   ----------------------------------------
 BYTE   W24
 BYTE   N44  Fn3
 BYTE   W48
 BYTE   N23  Gn3
 BYTE   W24
//  #07 //138   ----------------------------------------
 BYTE   N68  Gs3
 BYTE   W72
 BYTE   Cs4
 BYTE   W24
//  #07 //139   ----------------------------------------
 BYTE   W48
 BYTE   TIE  Cn4
 BYTE   W48
//  #07 //140   ----------------------------------------
 BYTE   W56
 BYTE   W03
 BYTE   EOT
 BYTE   W01
 BYTE   N17
 BYTE   W18
 BYTE   Cs4
 BYTE   W18
//  #07 //141   ----------------------------------------
 BYTE   N23  Ds4
 BYTE   W24
 BYTE   As3
 BYTE   W24
 BYTE   Gs3
 BYTE   W04
 BYTE   W05
 BYTE   W04
 BYTE   W05
 BYTE   W04
 BYTE   W02
 BYTE   Fs3
 BYTE   W03
 BYTE   W04
 BYTE   W05
 BYTE   W04
 BYTE   W05
 BYTE   W03
//  #07 //142   ----------------------------------------
 BYTE   Fn3
 BYTE   W01
 BYTE   W05
 BYTE   W04
 BYTE   W05
 BYTE   W04
 BYTE   W05
 BYTE   Ds3
 BYTE   W24
 BYTE   N68  Gs5
 BYTE   W48
//  #07 //143   ----------------------------------------
 BYTE   W24
 BYTE   N17
 BYTE   W18
 BYTE   Fs5
 BYTE   W18
 BYTE   Gs5
 BYTE   W18
 BYTE   Cs6
 BYTE   W18
//  #07 //144   ----------------------------------------
 BYTE   Bn5
 BYTE   W18
 BYTE   Fs5
 BYTE   W18
 BYTE   N56  Ds5
 BYTE   W60
//  #07 //145   ----------------------------------------
 BYTE   W12
 BYTE   N32  En5
 BYTE   W36
 BYTE   N68  Fs5
 BYTE   W48
//  #07 //146   ----------------------------------------
 BYTE   W24
 BYTE   N17
 BYTE   W18
 BYTE   En5
 BYTE   W18
 BYTE   Fs5
 BYTE   W18
 BYTE   Bn5
 BYTE   W18
//  #07 //147   ----------------------------------------
 BYTE   TIE  Gs5
 BYTE   W04
 BYTE   W05
 BYTE   W04
 BYTE   W05
 BYTE   W04
 BYTE   W05
 BYTE   W04
 BYTE   W05
 BYTE   W04
 BYTE   W05
 BYTE   W04
 BYTE   W05
 BYTE   W04
 BYTE   W05
 BYTE   W04
 BYTE   W05
 BYTE   W04
 BYTE   W05
 BYTE   W04
 BYTE   W05
 BYTE   W04
 BYTE   W02
//  #07 //148   ----------------------------------------
 BYTE   W03
 BYTE   W04
 BYTE   W05
 BYTE   W04
 BYTE   W05
 BYTE   W04
 BYTE   W05
 BYTE   W04
 BYTE   W05
 BYTE   W04
 BYTE   W04
 BYTE   EOT
 BYTE   W01
 BYTE   W48
//  #07 //149   ----------------------------------------
 BYTE   W96
//  #07 //150   ----------------------------------------
 BYTE   W96
//  #07 //151   ----------------------------------------
 BYTE   W12
 BYTE   N17  Fs5
 BYTE   W18
 BYTE   Gn5
 BYTE   W18
 BYTE   N68  An5
 BYTE   W48
//  #07 //152   ----------------------------------------
 BYTE   W24
 BYTE   Gs5
 BYTE   W72
//  #07 //153   ----------------------------------------
 BYTE   W36
 BYTE   N32
 BYTE   W06
 BYTE   W07
 BYTE   W07
 BYTE   W07
 BYTE   W06
 BYTE   W03
 BYTE   N52  An5
 BYTE   W04
 BYTE   W07
 BYTE   W07
 BYTE   W06
//  #07 //154   ----------------------------------------
 BYTE   W07
 BYTE   W05
 BYTE   N02  En1
 BYTE   W02
 BYTE   N02
 BYTE   W03
 BYTE   N02
 BYTE   W03
 BYTE   N02
 BYTE   W01
 BYTE   W02
 BYTE   N02
 BYTE   W03
 BYTE   N02
 BYTE   W01
 BYTE   W02
 BYTE   N02
 BYTE   W01
 BYTE   N17  Bn5
 BYTE   W02
 BYTE   N02  En1
 BYTE   W02
 BYTE   W01
 BYTE   N02
 BYTE   W03
 BYTE   N02
 BYTE   W03
 BYTE   N02
 BYTE   W03
 BYTE   N02
 BYTE   W04
 BYTE   N68  Bn5
 BYTE   W48
//  #07 //155   ----------------------------------------
 BYTE   W24
 BYTE   N52  An5
 BYTE   W54
 BYTE   N17  En5
 BYTE   W18
//  #07 //156   ----------------------------------------
 BYTE   N68  Bn5
 BYTE   W72
 BYTE   N17  En5
 BYTE   W18
 BYTE   An5
 BYTE   W06
//  #07 //157   ----------------------------------------
 BYTE   W12
 BYTE   En5
 BYTE   W18
 BYTE   An5
 BYTE   W18
 BYTE   N23  Bn1
 BYTE   N05  Bn5
 BYTE   W18
 BYTE   N05
 BYTE   W06
 BYTE   N05
 BYTE   W06
 BYTE   N05
 BYTE   W06
 BYTE   N05
 BYTE   W12
//  #07 //158   ----------------------------------------
 BYTE   W06
 BYTE   N17  Bn1
 BYTE   N05  Bn5
 BYTE   W06
 BYTE   N05
 BYTE   W06
 BYTE   N05
 BYTE   W06
 BYTE   N17  Bn1
 BYTE   N05  Bn5
 BYTE   W06
 BYTE   N05
 BYTE   W06
 BYTE   N05
 BYTE   W06
 BYTE   N17  Bn1
 BYTE   N05  Bn5
 BYTE   W06
 BYTE   N05
 BYTE   W06
 BYTE   N05
 BYTE   W06
 BYTE   N23  Bn1
 BYTE   N05  Bn5
 BYTE   W18
 BYTE   N05
 BYTE   W06
 BYTE   N05
 BYTE   W06
 BYTE   N05
 BYTE   W06
//  #07 //159   ----------------------------------------
 BYTE   N05
 BYTE   W18
 BYTE   N17  Bn1
 BYTE   N05  Bn5
 BYTE   W06
 BYTE   N05
 BYTE   W06
 BYTE   N05
 BYTE   W06
 BYTE   N17  Bn1
 BYTE   N05  Bn5
 BYTE   W06
 BYTE   N05
 BYTE   W06
 BYTE   N05
 BYTE   W06
 BYTE   N17  Bn1
 BYTE   N05  Bn5
 BYTE   W06
 BYTE   N05
 BYTE   W06
 BYTE   N05
 BYTE   W06
 BYTE   N23  Bn1
 BYTE   N05  Bn5
 BYTE   W18
 BYTE   N05
 BYTE   W06
//  #07 //160   ----------------------------------------
 BYTE   PATT
  POIN2 Label_01195A8C
//  #07 //161   ----------------------------------------
 BYTE   W06
 BYTE   N05  Bn5  v104
 BYTE   W06
 BYTE   N05
 BYTE   W06
 BYTE   N05
 BYTE   W06
 BYTE   N05
 BYTE   W18
 BYTE   N17  Bn1
 BYTE   N05  Bn5
 BYTE   W06
 BYTE   N05
 BYTE   W06
 BYTE   N05
 BYTE   W06
 BYTE   N17  Bn1
 BYTE   N05  Bn5
 BYTE   W06
 BYTE   N05
 BYTE   W06
 BYTE   N05
 BYTE   W06
 BYTE   N17  Bn1
 BYTE   N05  As5
 BYTE   W06
 BYTE   N05
 BYTE   W06
 BYTE   N05
 BYTE   W06
//  #07 //162   ----------------------------------------
 BYTE   N23  Gs1
 BYTE   N05  As5
 BYTE   W18
 BYTE   N05
 BYTE   W06
 BYTE   N05
 BYTE   W06
 BYTE   N05
 BYTE   W06
 BYTE   N05
 BYTE   W18
 BYTE   N17  Gs1
 BYTE   N05  As5
 BYTE   W06
 BYTE   N05
 BYTE   W06
 BYTE   N05
 BYTE   W06
 BYTE   N17  Gs1
 BYTE   N05  As5
 BYTE   W06
 BYTE   N05
 BYTE   W06
 BYTE   N05
 BYTE   W06
 BYTE   N17  Gs1
 BYTE   N05  As5
 BYTE   W06
//  #07 //163   ----------------------------------------
 BYTE   N05
 BYTE   W06
 BYTE   N05
 BYTE   W06
 BYTE   N23  Gs1
 BYTE   N05  As5
 BYTE   W18
 BYTE   N05
 BYTE   W06
 BYTE   N05
 BYTE   W06
 BYTE   N05
 BYTE   W06
 BYTE   N05
 BYTE   W18
 BYTE   N17  Gs1
 BYTE   N05  As5
 BYTE   W06
 BYTE   N05
 BYTE   W06
 BYTE   N05
 BYTE   W06
 BYTE   N17  En2
 BYTE   N05  As5
 BYTE   W06
 BYTE   N05
 BYTE   W06
//  #07 //164   ----------------------------------------
 BYTE   N05
 BYTE   W06
 BYTE   N17  Bn1
 BYTE   N05  As5
 BYTE   W06
 BYTE   N05
 BYTE   W06
 BYTE   N05
 BYTE   W06
 BYTE   N23  As1
 BYTE   N05  As5
 BYTE   W18
 BYTE   N05
 BYTE   W06
 BYTE   N05
 BYTE   W06
 BYTE   N05
 BYTE   W06
 BYTE   N05
 BYTE   W18
 BYTE   N17  As1
 BYTE   N05  As5
 BYTE   W06
 BYTE   N05
 BYTE   W06
 BYTE   N05
 BYTE   W06
//  #07 //165   ----------------------------------------
 BYTE   N17  As1
 BYTE   N05  As5
 BYTE   W06
 BYTE   N05
 BYTE   W06
 BYTE   N05
 BYTE   W06
 BYTE   N17  As1
 BYTE   N05  As5
 BYTE   W06
 BYTE   N05
 BYTE   W06
 BYTE   N05
 BYTE   W06
 BYTE   N23  Ds2
 BYTE   W60
//  #07 //166   ----------------------------------------
Label_01195F5D:
 BYTE   W12
 BYTE   N32  Ds5  v104
 BYTE   W36
 BYTE   TIE  Bn5
 BYTE   W48
 BYTE   PEND 
//  #07 //167   ----------------------------------------
Label_01195F66:
 BYTE   W60
 BYTE   N23  Cs2  v104
 BYTE   W32
 BYTE   W03
 BYTE   PEND 
 BYTE   EOT
 BYTE   Bn5
 BYTE   W01
//  #07 //168   ----------------------------------------
 BYTE   TIE  As5
 BYTE   W96
//  #07 //169   ----------------------------------------
Label_01195F73:
 BYTE   W12
 BYTE   N23  Cs2  v104
 BYTE   W32
 BYTE   W03
 BYTE   PEND 
 BYTE   EOT
 BYTE   As5
 BYTE   W01
 BYTE   N68  Gs5
 BYTE   W48
//  #07 //170   ----------------------------------------
Label_01195F80:
 BYTE   W24
 BYTE   N17  Fs5  v104
 BYTE   W18
 BYTE   En5
 BYTE   W18
 BYTE   N23  Cs2
 BYTE   N17  Bn4
 BYTE   W18
 BYTE   Cs5
 BYTE   W18
 BYTE   PEND 
//  #07 //171   ----------------------------------------
Label_01195F8F:
 BYTE   N32  En5  v104
 BYTE   W36
 BYTE   N92  Ds5
 BYTE   W60
 BYTE   PEND 
//  #07 //172   ----------------------------------------
 BYTE   W84
 BYTE   N32  Gs5
 BYTE   W12
//  #07 //173   ----------------------------------------
 BYTE   W24
 BYTE   N44  Gn5
 BYTE   W36
 BYTE   N23  Cs2
 BYTE   W12
 BYTE   N11  Gs5
 BYTE   W12
 BYTE   As5
 BYTE   W12
//  #07 //174   ----------------------------------------
 BYTE   N68  Ds5
 BYTE   W72
 BYTE   Gs5
 BYTE   W02
 BYTE   W02
 BYTE   W02
 BYTE   W03
 BYTE   W02
 BYTE   W02
 BYTE   W02
 BYTE   W03
 BYTE   W02
 BYTE   W02
 BYTE   W02
//  #07 //175   ----------------------------------------
 BYTE   W03
 BYTE   W02
 BYTE   W02
 BYTE   W02
 BYTE   W03
 BYTE   N23  Cs2
 BYTE   W02
 BYTE   W02
 BYTE   W02
 BYTE   W03
 BYTE   W02
 BYTE   W02
 BYTE   W02
 BYTE   W03
 BYTE   W02
 BYTE   W02
 BYTE   W02
 BYTE   W03
 BYTE   W02
 BYTE   W02
 BYTE   W02
 BYTE   W03
 BYTE   W48
//  #07 //176   ----------------------------------------
 BYTE   W18
 BYTE   N05  Ds5
 BYTE   W06
 BYTE   Gs5
 BYTE   W06
 BYTE   Ds5
 BYTE   W06
 BYTE   Bn4
 BYTE   W06
 BYTE   N17  Gs1
 BYTE   N05  Ds5
 BYTE   W06
 BYTE   Bn4
 BYTE   W06
 BYTE   Gs4
 BYTE   W06
 BYTE   N23  Cs2
 BYTE   N32  Gs5
 BYTE   W36
//  #07 //177   ----------------------------------------
 BYTE   N52  En5
 BYTE   W36
 BYTE   N17  Ds2
 BYTE   W18
 BYTE   Gs1
 BYTE   N17  Gs5
 BYTE   W18
 BYTE   N23  Gs1
 BYTE   N32  Gn5
 BYTE   W24
//  #07 //178   ----------------------------------------
 BYTE   PATT
  POIN2 Label_01195F5D
//  #07 //179   ----------------------------------------
 BYTE   PATT
  POIN2 Label_01195F66
//  #07 //180   ----------------------------------------
 BYTE   EOT
 BYTE   Bn5
 BYTE   W01
 BYTE   TIE  As5  v104
 BYTE   W96
//  #07 //181   ----------------------------------------
 BYTE   PATT
  POIN2 Label_01195F73
//  #07 //182   ----------------------------------------
 BYTE   EOT
 BYTE   As5
 BYTE   W01
 BYTE   N68  Gs5  v104
 BYTE   W48
//  #07 //183   ----------------------------------------
 BYTE   PATT
  POIN2 Label_01195F80
//  #07 //184   ----------------------------------------
 BYTE   PATT
  POIN2 Label_01195F8F
//  #07 //185   ----------------------------------------
 BYTE   W12
 BYTE   N32  Ds2  v104
 BYTE   W36
 BYTE   N68  Ds3
 BYTE   W48
//  #07 //186   ----------------------------------------
 BYTE   W24
 BYTE   N17  Cs3
 BYTE   W18
 BYTE   Bn2
 BYTE   W18
 BYTE   Cs3
 BYTE   W18
 BYTE   Fs3
 BYTE   W18
//  #07 //187   ----------------------------------------
 BYTE   Ds3
 BYTE   W18
 BYTE   Bn2
 BYTE   W18
 BYTE   N88  Gs2
 BYTE   W02
 BYTE   W02
 BYTE   W02
 BYTE   W03
 BYTE   W02
 BYTE   W02
 BYTE   W02
 BYTE   W03
 BYTE   W02
 BYTE   W02
 BYTE   W02
 BYTE   W03
 BYTE   W02
 BYTE   W02
 BYTE   W02
 BYTE   W03
 BYTE   W02
 BYTE   W02
 BYTE   W02
 BYTE   W03
 BYTE   W02
 BYTE   W02
 BYTE   W02
 BYTE   W03
 BYTE   W02
 BYTE   W02
 BYTE   W02
//  #07 //188   ----------------------------------------
 BYTE   W03
 BYTE   W02
 BYTE   W02
 BYTE   W02
 BYTE   W03
 BYTE   W18
 BYTE   N17  Fs2
 BYTE   W18
 BYTE   N32  Gs2
 BYTE   W36
 BYTE   N68  Ds3
 BYTE   W12
//  #07 //189   ----------------------------------------
 BYTE   W78
 BYTE   N17  Fs2
 BYTE   W18
//  #07 //190   ----------------------------------------
 BYTE   N32  Gs2
 BYTE   W36
 BYTE   N68  Ds3
 BYTE   W60
//  #07 //191   ----------------------------------------
 BYTE   W96
//  #07 //192   ----------------------------------------
 BYTE   W96
//  #07 //193   ----------------------------------------
 BYTE   W96
//  #07 //194   ----------------------------------------
 BYTE   W96
//  #07 //195   ----------------------------------------
 BYTE   W24
 BYTE   FINE

//**************** Track 8 (Midi-Chn.7) ****************//

FireEmblemEngage_FallenPetalsNew_008:
//  #08 //000   ----------------------------------------
 BYTE   KEYSH   FireEmblemEngage_FallenPetalsNew_key+0
 BYTE   VOICE   48
 BYTE   MODT 0
 BYTE   LFOS 44
 BYTE   VOL   23*FireEmblemEngage_FallenPetalsNew_mvl/mxv
 BYTE   BENDR  12
 BYTE   PAN   c_v+0
 BYTE   W96
//  #08 //001   ----------------------------------------
 BYTE   W96
//  #08 //002   ----------------------------------------
 BYTE   W48
 BYTE   N23  Gs2  v104
 BYTE   N23  Gs3
 BYTE   W24
 BYTE   N32  Cs3
 BYTE   N32  Cs4
 BYTE   W24
//  #08 //003   ----------------------------------------
 BYTE   W12
 BYTE   N11  Gs3
 BYTE   N11  Gs4
 BYTE   W12
 BYTE   N44  Gn3
 BYTE   N44  Gn4
 BYTE   W48
 BYTE   An3
 BYTE   N44  An4
 BYTE   W24
//  #08 //004   ----------------------------------------
 BYTE   W24
 BYTE   N92  As3
 BYTE   N92  As4
 BYTE   W03
 BYTE   W03
 BYTE   W03
 BYTE   W03
 BYTE   W03
 BYTE   W03
 BYTE   W03
 BYTE   W03
 BYTE   W03
 BYTE   W03
 BYTE   W03
 BYTE   W03
 BYTE   W03
 BYTE   W03
 BYTE   W03
 BYTE   W03
 BYTE   W03
 BYTE   W03
 BYTE   W03
 BYTE   W03
 BYTE   W03
 BYTE   W03
 BYTE   W03
 BYTE   W03
//  #08 //005   ----------------------------------------
 BYTE   W03
 BYTE   W03
 BYTE   W03
 BYTE   W03
 BYTE   W03
 BYTE   W03
 BYTE   W03
 BYTE   W03
 BYTE   W72
//  #08 //006   ----------------------------------------
 BYTE   N11  Dn4
 BYTE   W03
 BYTE   W04
 BYTE   W04
 BYTE   W01
 BYTE   En4
 BYTE   W03
 BYTE   W03
 BYTE   W04
 BYTE   W02
 BYTE   N44  Dn4
 BYTE   N44  Fn4
 BYTE   W02
 BYTE   W04
 BYTE   W03
 BYTE   W04
 BYTE   W04
 BYTE   W04
 BYTE   W03
 BYTE   W04
 BYTE   W04
 BYTE   W04
 BYTE   W03
 BYTE   W04
 BYTE   W04
 BYTE   W01
 BYTE   Dn4
 BYTE   N44  Gn4
 BYTE   W03
 BYTE   W03
 BYTE   W04
 BYTE   W04
 BYTE   W04
 BYTE   W03
 BYTE   W03
//  #08 //007   ----------------------------------------
 BYTE   W01
 BYTE   W04
 BYTE   W04
 BYTE   W03
 BYTE   W04
 BYTE   W04
 BYTE   W04
 BYTE   N92  Cs4
 BYTE   N92  Gs4
 BYTE   W72
//  #08 //008   ----------------------------------------
 BYTE   W96
//  #08 //009   ----------------------------------------
 BYTE   W96
//  #08 //010   ----------------------------------------
 BYTE   W96
//  #08 //011   ----------------------------------------
 BYTE   W96
//  #08 //012   ----------------------------------------
 BYTE   W96
//  #08 //013   ----------------------------------------
 BYTE   W96
//  #08 //014   ----------------------------------------
 BYTE   W96
//  #08 //015   ----------------------------------------
 BYTE   W96
//  #08 //016   ----------------------------------------
 BYTE   W96
//  #08 //017   ----------------------------------------
 BYTE   W96
//  #08 //018   ----------------------------------------
 BYTE   W96
//  #08 //019   ----------------------------------------
 BYTE   W96
//  #08 //020   ----------------------------------------
 BYTE   W96
//  #08 //021   ----------------------------------------
 BYTE   W12
 BYTE   N32  Gs2
 BYTE   W36
 BYTE   N52  Cn3
 BYTE   W48
//  #08 //022   ----------------------------------------
 BYTE   W06
 BYTE   N17  Fn3
 BYTE   W18
 BYTE   N68
 BYTE   W07
 BYTE   W08
 BYTE   W07
 BYTE   W08
 BYTE   W07
 BYTE   W08
 BYTE   W07
 BYTE   W08
 BYTE   W07
 BYTE   W05
//  #08 //023   ----------------------------------------
 BYTE   N44  En3
 BYTE   W03
 BYTE   W07
 BYTE   W08
 BYTE   W07
 BYTE   W08
 BYTE   W07
 BYTE   W08
 BYTE   W24
Label_0119613D:
 BYTE   W24
//  #08 //024   ----------------------------------------
 BYTE   W12
 BYTE   N32  Cn3  v104
 BYTE   W36
 BYTE   N52  Gs3
 BYTE   W48
//  #08 //025   ----------------------------------------
 BYTE   W06
 BYTE   N17  Fn3
 BYTE   W18
 BYTE   N68
 BYTE   W72
//  #08 //026   ----------------------------------------
 BYTE   N44  En3
 BYTE   W48
 BYTE   N11  Fn3
 BYTE   W12
 BYTE   Gn3
 BYTE   W12
 BYTE   N68
 BYTE   W24
//  #08 //027   ----------------------------------------
 BYTE   W48
 BYTE   Cn3
 BYTE   W48
//  #08 //028   ----------------------------------------
 BYTE   W60
 BYTE   N32
 BYTE   W36
//  #08 //029   ----------------------------------------
 BYTE   N52  Cn4
 BYTE   W54
 BYTE   N17  Fn4
 BYTE   W18
 BYTE   N68  Ds4
 BYTE   W24
//  #08 //030   ----------------------------------------
 BYTE   W48
 BYTE   Cs4
 BYTE   W48
//  #08 //031   ----------------------------------------
 BYTE   W24
 BYTE   Cn4
 BYTE   N68  Gs4
 BYTE   W72
//  #08 //032   ----------------------------------------
 BYTE   As3
 BYTE   N68  Fs4
 BYTE   W72
 BYTE   TIE  Gs3
 BYTE   TIE  Fn4
 BYTE   W24
//  #08 //033   ----------------------------------------
 BYTE   W80
 BYTE   W03
 BYTE   EOT
 BYTE   Gs3  v077
 BYTE   W01
 BYTE   N32
 BYTE   N32  Gs4
 BYTE   W12
//  #08 //034   ----------------------------------------
 BYTE   W24
 BYTE   TIE  Gn4
 BYTE   TIE  As4
 BYTE   W72
//  #08 //035   ----------------------------------------
 BYTE   W32
 BYTE   W03
 BYTE   EOT
 BYTE   Gn4  v082
 BYTE   W60
 BYTE   W01
//  #08 //036   ----------------------------------------
 BYTE   W96
//  #08 //037   ----------------------------------------
 BYTE   W96
//  #08 //038   ----------------------------------------
 BYTE   W96
//  #08 //039   ----------------------------------------
 BYTE   W96
//  #08 //040   ----------------------------------------
 BYTE   W96
//  #08 //041   ----------------------------------------
 BYTE   W96
//  #08 //042   ----------------------------------------
 BYTE   W96
//  #08 //043   ----------------------------------------
 BYTE   W96
//  #08 //044   ----------------------------------------
 BYTE   W96
//  #08 //045   ----------------------------------------
 BYTE   W96
//  #08 //046   ----------------------------------------
 BYTE   W96
//  #08 //047   ----------------------------------------
 BYTE   W72
 BYTE   N68  Gs4
 BYTE   W24
//  #08 //048   ----------------------------------------
 BYTE   W48
 BYTE   N17
 BYTE   W18
 BYTE   Fs4
 BYTE   W18
 BYTE   Gs4
 BYTE   W12
//  #08 //049   ----------------------------------------
 BYTE   W06
 BYTE   Cs5
 BYTE   W18
 BYTE   Bn4
 BYTE   W18
 BYTE   Fs4
 BYTE   W18
 BYTE   N56  Ds4
 BYTE   W36
//  #08 //050   ----------------------------------------
 BYTE   W36
 BYTE   N32  En4
 BYTE   W36
 BYTE   N68  Fs4
 BYTE   W24
//  #08 //051   ----------------------------------------
 BYTE   W48
 BYTE   N17
 BYTE   W18
 BYTE   En4
 BYTE   W18
 BYTE   Fs4
 BYTE   W12
//  #08 //052   ----------------------------------------
 BYTE   W06
 BYTE   Bn4
 BYTE   W18
 BYTE   TIE  Gs4
 BYTE   W72
//  #08 //053   ----------------------------------------
 BYTE   W28
 BYTE   W01
 BYTE   EOT
 BYTE   W07
 BYTE   N32  Bn2
 BYTE   W36
 BYTE   N68  Bn3
 BYTE   W24
//  #08 //054   ----------------------------------------
 BYTE   W48
 BYTE   N17
 BYTE   W18
 BYTE   An3
 BYTE   W18
 BYTE   Bn3
 BYTE   W12
//  #08 //055   ----------------------------------------
 BYTE   W06
 BYTE   En4
 BYTE   W18
 BYTE   Dn4
 BYTE   W18
 BYTE   An3
 BYTE   W18
 BYTE   N56  Fs3
 BYTE   W36
//  #08 //056   ----------------------------------------
 BYTE   W36
 BYTE   N17
 BYTE   W18
 BYTE   Gn3
 BYTE   W18
 BYTE   N68  An3
 BYTE   W24
//  #08 //057   ----------------------------------------
 BYTE   W48
 BYTE   Gs3
 BYTE   W48
//  #08 //058   ----------------------------------------
 BYTE   W60
 BYTE   N32
 BYTE   W36
//  #08 //059   ----------------------------------------
 BYTE   N52  An3
 BYTE   W54
 BYTE   N17  Bn3
 BYTE   W18
 BYTE   N44
 BYTE   N44  En4
 BYTE   W24
//  #08 //060   ----------------------------------------
 BYTE   W24
 BYTE   N11  Bn3
 BYTE   N11  En4
 BYTE   W12
 BYTE   Bn3
 BYTE   N11  En4
 BYTE   W12
 BYTE   N68  Bn3
 BYTE   N68  En4
 BYTE   W48
//  #08 //061   ----------------------------------------
 BYTE   W24
 BYTE   N44  Bn3
 BYTE   N44  En4
 BYTE   W48
 BYTE   N11  Bn3
 BYTE   N11  En4
 BYTE   W12
 BYTE   Bn3
 BYTE   N11  En4
 BYTE   W12
//  #08 //062   ----------------------------------------
 BYTE   N68  Bn3
 BYTE   N68  En4
 BYTE   W72
 BYTE   W24
//  #08 //063   ----------------------------------------
 BYTE   W09
 BYTE   N02  An3
 BYTE   W03
 BYTE   N32  Bn3
 BYTE   W36
 BYTE   N32
 BYTE   W48
//  #08 //064   ----------------------------------------
Label_01196221:
 BYTE   W24
 BYTE   N32  Bn3  v104
 BYTE   W36
 BYTE   N32
 BYTE   W36
 BYTE   PEND 
//  #08 //065   ----------------------------------------
 BYTE   W36
 BYTE   N32
 BYTE   W36
 BYTE   N32
 BYTE   W24
//  #08 //066   ----------------------------------------
 BYTE   W48
 BYTE   N32
 BYTE   W36
 BYTE   N32
 BYTE   W12
//  #08 //067   ----------------------------------------
 BYTE   W60
 BYTE   As3
 BYTE   W36
//  #08 //068   ----------------------------------------
 BYTE   N32
 BYTE   W72
 BYTE   N32
 BYTE   W24
//  #08 //069   ----------------------------------------
 BYTE   W12
 BYTE   N17  Cs4
 BYTE   W18
 BYTE   Bn3
 BYTE   W18
 BYTE   TIE  As4
 BYTE   W01
 BYTE   W01
 BYTE   W01
 BYTE   W01
 BYTE   W01
 BYTE   W01
 BYTE   W01
 BYTE   W01
 BYTE   W01
 BYTE   W01
 BYTE   W01
 BYTE   W01
 BYTE   W01
 BYTE   W01
 BYTE   W01
 BYTE   W01
 BYTE   W01
 BYTE   W01
 BYTE   W01
 BYTE   W01
 BYTE   W05
 BYTE   W05
 BYTE   W05
 BYTE   W05
 BYTE   W05
 BYTE   W03
//  #08 //070   ----------------------------------------
 BYTE   W02
 BYTE   W05
 BYTE   W05
 BYTE   W05
 BYTE   W05
 BYTE   W05
 BYTE   W06
 BYTE   W05
 BYTE   W05
 BYTE   W05
 BYTE   W11
 BYTE   EOT
 BYTE   W36
 BYTE   W01
//  #08 //071   ----------------------------------------
 BYTE   W36
 BYTE   N32  Ds3
 BYTE   W36
 BYTE   TIE  Bn3
 BYTE   W24
//  #08 //072   ----------------------------------------
 BYTE   W80
 BYTE   W03
 BYTE   EOT
 BYTE   W01
 BYTE   N32  Ds3
 BYTE   W12
//  #08 //073   ----------------------------------------
 BYTE   W24
 BYTE   TIE  As3
 BYTE   W72
//  #08 //074   ----------------------------------------
 BYTE   W32
 BYTE   W03
 BYTE   EOT
 BYTE   W01
 BYTE   N32  Ds3
 BYTE   W36
 BYTE   N68  Gs3
 BYTE   W24
//  #08 //075   ----------------------------------------
 BYTE   W48
 BYTE   N17  Fs3
 BYTE   W18
 BYTE   En3
 BYTE   W18
 BYTE   Bn2
 BYTE   W12
//  #08 //076   ----------------------------------------
 BYTE   W06
 BYTE   Cs3
 BYTE   W18
 BYTE   N32  En3
 BYTE   W36
 BYTE   N92  Ds3
 BYTE   W36
//  #08 //077   ----------------------------------------
 BYTE   W96
//  #08 //078   ----------------------------------------
 BYTE   W12
 BYTE   N32  Gs3
 BYTE   W36
 BYTE   N44  Gn3
 BYTE   W48
//  #08 //079   ----------------------------------------
 BYTE   N11  Gs3
 BYTE   W12
 BYTE   As3
 BYTE   W12
 BYTE   N68  Ds3
 BYTE   W72
//  #08 //080   ----------------------------------------
 BYTE   Gs3
 BYTE   W02
 BYTE   W02
 BYTE   W02
 BYTE   W03
 BYTE   W02
 BYTE   W02
 BYTE   W02
 BYTE   W03
 BYTE   W02
 BYTE   W02
 BYTE   W02
 BYTE   W03
 BYTE   W02
 BYTE   W02
 BYTE   W02
 BYTE   W03
 BYTE   W02
 BYTE   W02
 BYTE   W02
 BYTE   W03
 BYTE   W02
 BYTE   W02
 BYTE   W02
 BYTE   W03
 BYTE   W02
 BYTE   W02
 BYTE   W02
 BYTE   W03
 BYTE   W02
 BYTE   W02
 BYTE   W02
 BYTE   W03
 BYTE   W24
//  #08 //081   ----------------------------------------
 BYTE   W96
//  #08 //082   ----------------------------------------
 BYTE   W24
 BYTE   N52  En3
 BYTE   W54
 BYTE   N17  Gs3
 BYTE   W18
//  #08 //083   ----------------------------------------
 BYTE   N32  Gn3
 BYTE   W36
 BYTE   Ds4
 BYTE   W36
 BYTE   TIE  Bn4
 BYTE   W24
//  #08 //084   ----------------------------------------
 BYTE   W12
 BYTE   N32  Ds3
 BYTE   W36
 BYTE   N68  Gs3
 BYTE   W32
 BYTE   W03
 BYTE   EOT
 BYTE   Bn4
 BYTE   W01
 BYTE   N32  Ds4
 BYTE   W12
//  #08 //085   ----------------------------------------
 BYTE   W24
 BYTE   TIE  As4
 BYTE   W36
 BYTE   N32  Ds3
 BYTE   W36
//  #08 //086   ----------------------------------------
 BYTE   N68  Gn3
 BYTE   W32
 BYTE   W03
 BYTE   EOT
 BYTE   As4
 BYTE   W01
 BYTE   N32  Ds4
 BYTE   W36
 BYTE   N68  Bn3
 BYTE   N68  Gs4
 BYTE   W24
//  #08 //087   ----------------------------------------
 BYTE   W48
 BYTE   N17  Fs3
 BYTE   N36  Bn3
 BYTE   N17  Fs4
 BYTE   W18
 BYTE   En3
 BYTE   N17  En4
 BYTE   W18
 BYTE   Bn2
 BYTE   N32  Bn3
 BYTE   W12
//  #08 //088   ----------------------------------------
 BYTE   W06
 BYTE   N17  Cs3
 BYTE   N17  Cs4
 BYTE   W18
 BYTE   N32
 BYTE   N32  En4
 BYTE   W36
 BYTE   N92  Bn3
 BYTE   N92  Ds4
 BYTE   W36
//  #08 //089   ----------------------------------------
 BYTE   W96
//  #08 //090   ----------------------------------------
 BYTE   W96
//  #08 //091   ----------------------------------------
 BYTE   W96
//  #08 //092   ----------------------------------------
 BYTE   W54
 BYTE   N17  Fs3
 BYTE   W18
 BYTE   N32  Gs3
 BYTE   W24
//  #08 //093   ----------------------------------------
 BYTE   W12
 BYTE   N68  Ds4
 BYTE   W84
//  #08 //094   ----------------------------------------
 BYTE   W06
 BYTE   N17  Fs3
 BYTE   W18
 BYTE   N32  Gs3
 BYTE   W36
 BYTE   N68  Ds4
 BYTE   W36
//  #08 //095   ----------------------------------------
 BYTE   W96
//  #08 //096   ----------------------------------------
 BYTE   W96
//  #08 //097   ----------------------------------------
 BYTE   W96
//  #08 //098   ----------------------------------------
 BYTE   W96
//  #08 //099   ----------------------------------------
 BYTE   W96
//  #08 //100   ----------------------------------------
 BYTE   W96
//  #08 //101   ----------------------------------------
 BYTE   W96
//  #08 //102   ----------------------------------------
 BYTE   W96
//  #08 //103   ----------------------------------------
 BYTE   W96
//  #08 //104   ----------------------------------------
 BYTE   W96
//  #08 //105   ----------------------------------------
 BYTE   W96
//  #08 //106   ----------------------------------------
 BYTE   W96
//  #08 //107   ----------------------------------------
 BYTE   W96
//  #08 //108   ----------------------------------------
 BYTE   W96
//  #08 //109   ----------------------------------------
 BYTE   W96
//  #08 //110   ----------------------------------------
 BYTE   W96
//  #08 //111   ----------------------------------------
 BYTE   W96
//  #08 //112   ----------------------------------------
 BYTE   W96
//  #08 //113   ----------------------------------------
 BYTE   W96
//  #08 //114   ----------------------------------------
 BYTE   W84
 BYTE   N32  Gs2
 BYTE   W12
//  #08 //115   ----------------------------------------
 BYTE   W24
 BYTE   N52  Cn3
 BYTE   W54
 BYTE   N17  Fn3
 BYTE   W18
//  #08 //116   ----------------------------------------
 BYTE   N68
 BYTE   W07
 BYTE   W08
 BYTE   W07
 BYTE   W08
 BYTE   W07
 BYTE   W08
 BYTE   W07
 BYTE   W08
 BYTE   W07
 BYTE   W05
 BYTE   N44  En3
 BYTE   W03
 BYTE   W07
 BYTE   W08
 BYTE   W06
//  #08 //117   ----------------------------------------
 BYTE   W01
 BYTE   W08
 BYTE   W07
 BYTE   W08
 BYTE   W24
 BYTE   GoTo
  POIN2 Label_0119613D
//  #08 //118   ----------------------------------------
 BYTE   W36
 BYTE   N32  Cn3  v104
 BYTE   W12
 BYTE   W24
 BYTE   N52  Gs3
 BYTE   W54
//  #08 //119   ----------------------------------------
 BYTE   N17  Fn3
 BYTE   W18
 BYTE   N68
 BYTE   W72
 BYTE   N44  En3
 BYTE   W24
//  #08 //120   ----------------------------------------
 BYTE   W24
 BYTE   N11  Fn3
 BYTE   W12
 BYTE   Gn3
 BYTE   W12
 BYTE   N68
 BYTE   W48
//  #08 //121   ----------------------------------------
 BYTE   W24
 BYTE   Cn3
 BYTE   W72
//  #08 //122   ----------------------------------------
 BYTE   W36
 BYTE   N32
 BYTE   W36
 BYTE   N52  Cn4
 BYTE   W24
//  #08 //123   ----------------------------------------
 BYTE   W30
 BYTE   N17  Fn4
 BYTE   W18
 BYTE   N68  Ds4
 BYTE   W48
//  #08 //124   ----------------------------------------
 BYTE   W24
 BYTE   Cs4
 BYTE   W72
//  #08 //125   ----------------------------------------
 BYTE   Cn4
 BYTE   N68  Gs4
 BYTE   W72
 BYTE   As3
 BYTE   N68  Fs4
 BYTE   W24
//  #08 //126   ----------------------------------------
 BYTE   W48
 BYTE   TIE  Gs3
 BYTE   TIE  Fn4
 BYTE   W48
//  #08 //127   ----------------------------------------
 BYTE   W56
 BYTE   W03
 BYTE   EOT
 BYTE   Gs3  v077
 BYTE   W01
 BYTE   N32
 BYTE   N32  Gs4
 BYTE   W36
//  #08 //128   ----------------------------------------
 BYTE   TIE  Gn4
 BYTE   TIE  As4
 BYTE   W96
//  #08 //129   ----------------------------------------
 BYTE   W11
 BYTE   EOT
 BYTE   Gn4  v082
 BYTE   W84
 BYTE   W01
//  #08 //130   ----------------------------------------
 BYTE   W96
//  #08 //131   ----------------------------------------
 BYTE   W96
//  #08 //132   ----------------------------------------
 BYTE   W96
//  #08 //133   ----------------------------------------
 BYTE   W96
//  #08 //134   ----------------------------------------
 BYTE   W96
//  #08 //135   ----------------------------------------
 BYTE   W96
//  #08 //136   ----------------------------------------
 BYTE   W96
//  #08 //137   ----------------------------------------
 BYTE   W96
//  #08 //138   ----------------------------------------
 BYTE   W96
//  #08 //139   ----------------------------------------
 BYTE   W96
//  #08 //140   ----------------------------------------
 BYTE   W96
//  #08 //141   ----------------------------------------
 BYTE   W48
 BYTE   N68  Gs4
 BYTE   W48
//  #08 //142   ----------------------------------------
 BYTE   W24
 BYTE   N17
 BYTE   W18
 BYTE   Fs4
 BYTE   W18
 BYTE   Gs4
 BYTE   W18
 BYTE   Cs5
 BYTE   W18
//  #08 //143   ----------------------------------------
 BYTE   Bn4
 BYTE   W18
 BYTE   Fs4
 BYTE   W18
 BYTE   N56  Ds4
 BYTE   W60
//  #08 //144   ----------------------------------------
 BYTE   W12
 BYTE   N32  En4
 BYTE   W36
 BYTE   N68  Fs4
 BYTE   W48
//  #08 //145   ----------------------------------------
 BYTE   W24
 BYTE   N17
 BYTE   W18
 BYTE   En4
 BYTE   W18
 BYTE   Fs4
 BYTE   W18
 BYTE   Bn4
 BYTE   W18
//  #08 //146   ----------------------------------------
 BYTE   TIE  Gs4
 BYTE   W96
//  #08 //147   ----------------------------------------
 BYTE   W05
 BYTE   EOT
 BYTE   W07
 BYTE   N32  Bn2
 BYTE   W36
 BYTE   N68  Bn3
 BYTE   W48
//  #08 //148   ----------------------------------------
 BYTE   W24
 BYTE   N17
 BYTE   W18
 BYTE   An3
 BYTE   W18
 BYTE   Bn3
 BYTE   W18
 BYTE   En4
 BYTE   W18
//  #08 //149   ----------------------------------------
 BYTE   Dn4
 BYTE   W18
 BYTE   An3
 BYTE   W18
 BYTE   N56  Fs3
 BYTE   W60
//  #08 //150   ----------------------------------------
 BYTE   W12
 BYTE   N17
 BYTE   W18
 BYTE   Gn3
 BYTE   W18
 BYTE   N68  An3
 BYTE   W48
//  #08 //151   ----------------------------------------
 BYTE   W24
 BYTE   Gs3
 BYTE   W72
//  #08 //152   ----------------------------------------
 BYTE   W36
 BYTE   N32
 BYTE   W36
 BYTE   N52  An3
 BYTE   W24
//  #08 //153   ----------------------------------------
 BYTE   W30
 BYTE   N17  Bn3
 BYTE   W18
 BYTE   N44
 BYTE   N44  En4
 BYTE   W48
//  #08 //154   ----------------------------------------
 BYTE   N11  Bn3
 BYTE   N11  En4
 BYTE   W12
 BYTE   Bn3
 BYTE   N11  En4
 BYTE   W12
 BYTE   N68  Bn3
 BYTE   N68  En4
 BYTE   W72
//  #08 //155   ----------------------------------------
 BYTE   N44  Bn3
 BYTE   N44  En4
 BYTE   W48
 BYTE   N11  Bn3
 BYTE   N11  En4
 BYTE   W12
 BYTE   Bn3
 BYTE   N11  En4
 BYTE   W12
 BYTE   N68  Bn3
 BYTE   N68  En4
 BYTE   W24
//  #08 //156   ----------------------------------------
 BYTE   W48
 BYTE   W32
 BYTE   W01
 BYTE   N02  An3
 BYTE   W03
 BYTE   N32  Bn3
 BYTE   W12
//  #08 //157   ----------------------------------------
 BYTE   W24
 BYTE   N32
 BYTE   W72
//  #08 //158   ----------------------------------------
 BYTE   N32
 BYTE   W36
 BYTE   N32
 BYTE   W60
//  #08 //159   ----------------------------------------
 BYTE   W12
 BYTE   N32
 BYTE   W36
 BYTE   N32
 BYTE   W48
//  #08 //160   ----------------------------------------
 BYTE   PATT
  POIN2 Label_01196221
//  #08 //161   ----------------------------------------
 BYTE   W36
 BYTE   N32  As3  v104
 BYTE   W36
 BYTE   N32
 BYTE   W24
//  #08 //162   ----------------------------------------
 BYTE   W48
 BYTE   N32
 BYTE   W36
 BYTE   N17  Cs4
 BYTE   W12
//  #08 //163   ----------------------------------------
 BYTE   W06
 BYTE   Bn3
 BYTE   W18
 BYTE   TIE  As4
 BYTE   W01
 BYTE   W01
 BYTE   W01
 BYTE   W01
 BYTE   W01
 BYTE   W01
 BYTE   W01
 BYTE   W01
 BYTE   W01
 BYTE   W01
 BYTE   W01
 BYTE   W01
 BYTE   W01
 BYTE   W01
 BYTE   W01
 BYTE   W01
 BYTE   W01
 BYTE   W01
 BYTE   W01
 BYTE   W01
 BYTE   W05
 BYTE   W05
 BYTE   W05
 BYTE   W05
 BYTE   W05
 BYTE   W05
 BYTE   W05
 BYTE   W05
 BYTE   W05
 BYTE   W05
 BYTE   W02
//  #08 //164   ----------------------------------------
 BYTE   W03
 BYTE   W06
 BYTE   W05
 BYTE   W05
 BYTE   W05
 BYTE   W11
 BYTE   EOT
 BYTE   W60
 BYTE   W01
//  #08 //165   ----------------------------------------
 BYTE   W12
 BYTE   N32  Ds3
 BYTE   W36
 BYTE   TIE  Bn3
 BYTE   W48
//  #08 //166   ----------------------------------------
 BYTE   W56
 BYTE   W03
 BYTE   EOT
 BYTE   W01
 BYTE   N32  Ds3
 BYTE   W36
//  #08 //167   ----------------------------------------
 BYTE   TIE  As3
 BYTE   W96
//  #08 //168   ----------------------------------------
 BYTE   W11
 BYTE   EOT
 BYTE   W01
 BYTE   N32  Ds3
 BYTE   W36
 BYTE   N68  Gs3
 BYTE   W48
//  #08 //169   ----------------------------------------
 BYTE   W24
 BYTE   N17  Fs3
 BYTE   W18
 BYTE   En3
 BYTE   W18
 BYTE   Bn2
 BYTE   W18
 BYTE   Cs3
 BYTE   W18
//  #08 //170   ----------------------------------------
 BYTE   N32  En3
 BYTE   W36
 BYTE   N92  Ds3
 BYTE   W60
//  #08 //171   ----------------------------------------
 BYTE   W84
 BYTE   N32  Gs3
 BYTE   W12
//  #08 //172   ----------------------------------------
 BYTE   W24
 BYTE   N44  Gn3
 BYTE   W48
 BYTE   N11  Gs3
 BYTE   W12
 BYTE   As3
 BYTE   W12
//  #08 //173   ----------------------------------------
 BYTE   N68  Ds3
 BYTE   W72
 BYTE   Gs3
 BYTE   W02
 BYTE   W02
 BYTE   W02
 BYTE   W03
 BYTE   W02
 BYTE   W02
 BYTE   W02
 BYTE   W03
 BYTE   W02
 BYTE   W02
 BYTE   W02
//  #08 //174   ----------------------------------------
 BYTE   W03
 BYTE   W02
 BYTE   W02
 BYTE   W02
 BYTE   W03
 BYTE   W02
 BYTE   W02
 BYTE   W02
 BYTE   W03
 BYTE   W02
 BYTE   W02
 BYTE   W02
 BYTE   W03
 BYTE   W02
 BYTE   W02
 BYTE   W02
 BYTE   W03
 BYTE   W02
 BYTE   W02
 BYTE   W02
 BYTE   W03
 BYTE   W48
//  #08 //175   ----------------------------------------
 BYTE   W96
//  #08 //176   ----------------------------------------
 BYTE   N52  En3
 BYTE   W54
 BYTE   N17  Gs3
 BYTE   W18
 BYTE   N32  Gn3
 BYTE   W24
//  #08 //177   ----------------------------------------
 BYTE   W12
 BYTE   Ds4
 BYTE   W36
 BYTE   TIE  Bn4
 BYTE   W36
 BYTE   N32  Ds3
 BYTE   W12
//  #08 //178   ----------------------------------------
 BYTE   W24
 BYTE   N68  Gs3
 BYTE   W32
 BYTE   W03
 BYTE   EOT
 BYTE   Bn4
 BYTE   W01
 BYTE   N32  Ds4
 BYTE   W36
//  #08 //179   ----------------------------------------
 BYTE   TIE  As4
 BYTE   W36
 BYTE   N32  Ds3
 BYTE   W36
 BYTE   N68  Gn3
 BYTE   W24
//  #08 //180   ----------------------------------------
 BYTE   W11
 BYTE   EOT
 BYTE   As4
 BYTE   W01
 BYTE   N32  Ds4
 BYTE   W36
 BYTE   N68  Bn3
 BYTE   N68  Gs4
 BYTE   W48
//  #08 //181   ----------------------------------------
 BYTE   W24
 BYTE   N17  Fs3
 BYTE   N36  Bn3
 BYTE   N17  Fs4
 BYTE   W18
 BYTE   En3
 BYTE   N17  En4
 BYTE   W18
 BYTE   Bn2
 BYTE   N32  Bn3
 BYTE   W18
 BYTE   N17  Cs3
 BYTE   N17  Cs4
 BYTE   W18
//  #08 //182   ----------------------------------------
 BYTE   N32
 BYTE   N32  En4
 BYTE   W36
 BYTE   N92  Bn3
 BYTE   N92  Ds4
 BYTE   W60
//  #08 //183   ----------------------------------------
 BYTE   W96
//  #08 //184   ----------------------------------------
 BYTE   W96
//  #08 //185   ----------------------------------------
 BYTE   W96
//  #08 //186   ----------------------------------------
 BYTE   W30
 BYTE   N17  Fs3
 BYTE   W18
 BYTE   N32  Gs3
 BYTE   W36
 BYTE   N68  Ds4
 BYTE   W12
//  #08 //187   ----------------------------------------
 BYTE   W78
 BYTE   N17  Fs3
 BYTE   W18
//  #08 //188   ----------------------------------------
 BYTE   N32  Gs3
 BYTE   W36
 BYTE   N68  Ds4
 BYTE   W60
//  #08 //189   ----------------------------------------
 BYTE   W96
//  #08 //190   ----------------------------------------
 BYTE   W96
//  #08 //191   ----------------------------------------
 BYTE   W96
//  #08 //192   ----------------------------------------
 BYTE   W96
//  #08 //193   ----------------------------------------
 BYTE   W24
 BYTE   FINE

//**************** Track 9 (Midi-Chn.8) ****************//

FireEmblemEngage_FallenPetalsNew_009:
//  #09 //000   ----------------------------------------
 BYTE   KEYSH   FireEmblemEngage_FallenPetalsNew_key+0
 BYTE   VOICE   127
 BYTE   MODT 0
 BYTE   LFOS 44
 BYTE   VOL   24*FireEmblemEngage_FallenPetalsNew_mvl/mxv
 BYTE   PAN   c_v+0
 BYTE   N03  An2  v104
 BYTE   W03
 BYTE   N03
 BYTE   W03
 BYTE   N03
 BYTE   W03
 BYTE   N03
 BYTE   W03
 BYTE   N03
 BYTE   W03
 BYTE   N03
 BYTE   W03
 BYTE   N03
 BYTE   W03
 BYTE   TIE
 BYTE   W03
 BYTE   N96  Cn1
 BYTE   N96  Cs1
 BYTE   N96  Dn1
 BYTE   W72
//  #09 //001   ----------------------------------------
 BYTE   W24
 BYTE   N36  Cn1
 BYTE   N36  Cs1
 BYTE   N36  Dn1
 BYTE   W36
 BYTE   N60  Cn1
 BYTE   TIE  Cs1
 BYTE   N60  Dn1
 BYTE   W36
//  #09 //002   ----------------------------------------
 BYTE   W24
 BYTE   N96  Cn1
 BYTE   N96  Dn1
 BYTE   TIE  Fs1
 BYTE   W72
//  #09 //003   ----------------------------------------
 BYTE   W24
 BYTE   EOT
 BYTE   Cs1
 BYTE   N36  Cn1
 BYTE   N36  Cs1
 BYTE   N36  Dn1
 BYTE   W36
 BYTE   N60  Cn1
 BYTE   TIE  Cs1
 BYTE   N60  Dn1
 BYTE   W36
//  #09 //004   ----------------------------------------
Label_01199C2D:
 BYTE   W24
 BYTE   N96  Cn1  v104
 BYTE   N96  Dn1
 BYTE   N96  Gs1
 BYTE   W72
 BYTE   PEND 
//  #09 //005   ----------------------------------------
 BYTE   W24
 BYTE   N36  Cn1
 BYTE   N36  Dn1
 BYTE   N36  Gs1
 BYTE   W36
 BYTE   N60  Cn1
 BYTE   N60  Dn1
 BYTE   N60  Gs1
 BYTE   W36
//  #09 //006   ----------------------------------------
 BYTE   PATT
  POIN2 Label_01199C2D
//  #09 //007   ----------------------------------------
 BYTE   W24
 BYTE   TIE  Cn1  v104
 BYTE   TIE  Dn1
 BYTE   TIE  Gs1
 BYTE   W72
//  #09 //008   ----------------------------------------
 BYTE   W36
 BYTE   EOT
 BYTE   An2
 BYTE   N02
 BYTE   W02
 BYTE   N03
 BYTE   W03
 BYTE   N03
 BYTE   W03
 BYTE   N03
 BYTE   W03
 BYTE   N02
 BYTE   W03
 BYTE   N03
 BYTE   W03
 BYTE   N03
 BYTE   W03
 BYTE   N03
 BYTE   W03
 BYTE   N02
 BYTE   W03
 BYTE   N03
 BYTE   W03
 BYTE   N03
 BYTE   W03
 BYTE   TIE
 BYTE   W04
 BYTE   EOT
 BYTE   Cn1  v038
 BYTE   TIE  Cn1
 BYTE   N18  Dn1
 BYTE   W18
 BYTE   N06
 BYTE   W06
//  #09 //009   ----------------------------------------
Label_01199C79:
 BYTE   N06  Dn1  v104
 BYTE   W06
 BYTE   N06
 BYTE   W06
 BYTE   N18
 BYTE   W18
 BYTE   N06
 BYTE   W06
 BYTE   N06
 BYTE   W06
 BYTE   N06
 BYTE   W06
 BYTE   N18
 BYTE   W18
 BYTE   N06
 BYTE   W06
 BYTE   N06
 BYTE   W06
 BYTE   N06
 BYTE   W06
 BYTE   N06
 BYTE   W06
 BYTE   N06
 BYTE   W06
 BYTE   PEND 
//  #09 //010   ----------------------------------------
Label_01199C94:
 BYTE   N06  Dn1  v104
 BYTE   W06
 BYTE   N06
 BYTE   W06
 BYTE   N06
 BYTE   W06
 BYTE   N06
 BYTE   W06
 BYTE   PEND 
 BYTE   EOT
 BYTE   Cn1
 BYTE   N54
 BYTE   N18  Dn1
 BYTE   W18
 BYTE   N06
 BYTE   W06
 BYTE   N06
 BYTE   W06
 BYTE   N06
 BYTE   W06
 BYTE   N18
 BYTE   W18
 BYTE   TIE  Cn1
 BYTE   N18  Dn1
 BYTE   W18
//  #09 //011   ----------------------------------------
 BYTE   N06
 BYTE   W06
 BYTE   N06
 BYTE   W06
 BYTE   N06
 BYTE   W06
 BYTE   N18
 BYTE   W17
 BYTE   EOT
 BYTE   An2
 BYTE   W01
 BYTE   N06  Dn1
 BYTE   N02  An2
 BYTE   W02
 BYTE   N03
 BYTE   W03
 BYTE   N03
 BYTE   W01
 BYTE   N06  Dn1
 BYTE   W02
 BYTE   N03  An2
 BYTE   W03
 BYTE   N02
 BYTE   W01
 BYTE   N06  Dn1
 BYTE   W02
 BYTE   N03  An2
 BYTE   W03
 BYTE   N03
 BYTE   W01
 BYTE   N06  Dn1
 BYTE   W02
 BYTE   N03  An2
 BYTE   W03
 BYTE   N02
 BYTE   W01
 BYTE   N06  Dn1
 BYTE   W02
 BYTE   N03  An2
 BYTE   W03
 BYTE   N03
 BYTE   W01
 BYTE   N06  Dn1
 BYTE   W02
 BYTE   TIE  An2
 BYTE   W04
 BYTE   N18  Dn1
 BYTE   W18
 BYTE   N06
 BYTE   W06
//  #09 //012   ----------------------------------------
 BYTE   PATT
  POIN2 Label_01199C79
//  #09 //013   ----------------------------------------
Label_01199CF6:
 BYTE   N06  Dn1  v104
 BYTE   W06
 BYTE   N06
 BYTE   W06
 BYTE   N06
 BYTE   W06
 BYTE   N06
 BYTE   W06
 BYTE   N18
 BYTE   W18
 BYTE   N06
 BYTE   W06
 BYTE   N06
 BYTE   W06
 BYTE   N06
 BYTE   W06
 BYTE   N18
 BYTE   W18
 BYTE   N06
 BYTE   W06
 BYTE   N06
 BYTE   W06
 BYTE   N06
 BYTE   W06
 BYTE   PEND 
//  #09 //014   ----------------------------------------
Label_01199D11:
 BYTE   N06  Dn1  v104
 BYTE   W06
 BYTE   N06
 BYTE   W06
 BYTE   N06
 BYTE   W06
 BYTE   N06
 BYTE   W06
 BYTE   N06
 BYTE   W06
 BYTE   N06
 BYTE   W06
 BYTE   N06
 BYTE   W06
 BYTE   N06
 BYTE   W06
 BYTE   N06
 BYTE   W06
 BYTE   N06
 BYTE   W06
 BYTE   N06
 BYTE   W06
 BYTE   N06
 BYTE   W06
 BYTE   N18
 BYTE   W18
 BYTE   N06
 BYTE   W06
 BYTE   PEND 
//  #09 //015   ----------------------------------------
 BYTE   PATT
  POIN2 Label_01199C79
//  #09 //016   ----------------------------------------
 BYTE   PATT
  POIN2 Label_01199CF6
//  #09 //017   ----------------------------------------
 BYTE   PATT
  POIN2 Label_01199D11
//  #09 //018   ----------------------------------------
 BYTE   PATT
  POIN2 Label_01199C79
//  #09 //019   ----------------------------------------
 BYTE   PATT
  POIN2 Label_01199CF6
//  #09 //020   ----------------------------------------
 BYTE   PATT
  POIN2 Label_01199D11
//  #09 //021   ----------------------------------------
 BYTE   PATT
  POIN2 Label_01199C79
//  #09 //022   ----------------------------------------
 BYTE   PATT
  POIN2 Label_01199CF6
//  #09 //023   ----------------------------------------
 BYTE   N72  Dn1  v104
 BYTE   W72
 BYTE   EOT
 BYTE   Cn1  v042
Label_01199D5F:
 BYTE   TIE  Cn1  v104
 BYTE   N18  Dn1
 BYTE   TIE  Fs1
 BYTE   W18
 BYTE   N06  Dn1
 BYTE   W06
//  #09 //024   ----------------------------------------
Label_01199D6A:
 BYTE   N06  Dn1  v104
 BYTE   W06
 BYTE   N06
 BYTE   W06
 BYTE   N18
 BYTE   W18
 BYTE   N06
 BYTE   W06
 BYTE   N06
 BYTE   W06
 BYTE   N06
 BYTE   W06
 BYTE   N18
 BYTE   W18
 BYTE   N06
 BYTE   W06
 BYTE   N06
 BYTE   W06
 BYTE   N06
 BYTE   W06
 BYTE   PEND 
 BYTE   EOT
 BYTE   Cn1  v042
 BYTE   N36  Cn1
 BYTE   N06  Dn1
 BYTE   N36  Fs1
 BYTE   W06
 BYTE   N06  Dn1
 BYTE   W06
//  #09 //025   ----------------------------------------
Label_01199D8E:
 BYTE   N06  Dn1  v104
 BYTE   W06
 BYTE   N06
 BYTE   W06
 BYTE   N06
 BYTE   W06
 BYTE   N06
 BYTE   W06
 BYTE   TIE  Cn1
 BYTE   N18  Dn1
 BYTE   TIE  Fs1
 BYTE   W18
 BYTE   N06  Dn1
 BYTE   W06
 BYTE   N06
 BYTE   W06
 BYTE   N06
 BYTE   W06
 BYTE   N18
 BYTE   W18
 BYTE   N06
 BYTE   W06
 BYTE   N06
 BYTE   W06
 BYTE   N06
 BYTE   W06
 BYTE   PEND 
//  #09 //026   ----------------------------------------
Label_01199DAF:
 BYTE   N06  Dn1  v104
 BYTE   W06
 BYTE   N06
 BYTE   W06
 BYTE   N06
 BYTE   W06
 BYTE   N06
 BYTE   W06
 BYTE   N06
 BYTE   W06
 BYTE   N06
 BYTE   W06
 BYTE   N06
 BYTE   W06
 BYTE   N06
 BYTE   W06
 BYTE   N06
 BYTE   W06
 BYTE   N06
 BYTE   W06
 BYTE   N06
 BYTE   W06
 BYTE   N06
 BYTE   W06
 BYTE   PEND 
 BYTE   EOT
 BYTE   Cn1  v042
 BYTE   TIE  Cn1
 BYTE   N18  Dn1
 BYTE   TIE  Fs1
 BYTE   W18
 BYTE   N06  Dn1
 BYTE   W06
//  #09 //027   ----------------------------------------
 BYTE   PATT
  POIN2 Label_01199D6A
//  #09 //028   ----------------------------------------
 BYTE   EOT
 BYTE   Cn1  v042
 BYTE   N36  Cn1  v104
 BYTE   N06  Dn1
 BYTE   N36  Fs1
 BYTE   W06
 BYTE   N06  Dn1
 BYTE   W06
//  #09 //029   ----------------------------------------
 BYTE   PATT
  POIN2 Label_01199D8E
//  #09 //030   ----------------------------------------
 BYTE   PATT
  POIN2 Label_01199DAF
//  #09 //031   ----------------------------------------
 BYTE   EOT
 BYTE   Cn1  v042
 BYTE   N54  Cn1  v104
 BYTE   N18  Dn1
 BYTE   N54  Fs1
 BYTE   W18
 BYTE   N06  Dn1
 BYTE   W06
 BYTE   N06
 BYTE   W06
 BYTE   N06
 BYTE   W06
 BYTE   N18
 BYTE   W18
 BYTE   N90  Cn1
 BYTE   N06  Dn1
 BYTE   N90  Fs1
 BYTE   W06
 BYTE   N06  Dn1
 BYTE   W06
 BYTE   N06
 BYTE   W06
 BYTE   N18
 BYTE   W18
 BYTE   N06
 BYTE   W06
//  #09 //032   ----------------------------------------
 BYTE   N06
 BYTE   W06
 BYTE   N06
 BYTE   N06  Cn2
 BYTE   W06
 BYTE   Dn1
 BYTE   TIE  Cn2
 BYTE   W06
 BYTE   N06  Dn1
 BYTE   W06
 BYTE   N06
 BYTE   TIE  An1
 BYTE   W06
 BYTE   N06  Dn1
 BYTE   W06
 BYTE   N06
 BYTE   TIE  Fn1
 BYTE   W06
 BYTE   N06  Dn1
 BYTE   W06
 BYTE   N54  Cn1
 BYTE   N18  Dn1
 BYTE   N54  Fs1
 BYTE   W18
 BYTE   N06  Dn1
 BYTE   W06
 BYTE   N06
 BYTE   W06
 BYTE   N06
 BYTE   W06
 BYTE   N18
 BYTE   W18
//  #09 //033   ----------------------------------------
 BYTE   N90  Cn1
 BYTE   N06  Dn1
 BYTE   N90  Fs1
 BYTE   W06
 BYTE   N06  Dn1
 BYTE   W06
 BYTE   N06
 BYTE   W06
 BYTE   N06
 BYTE   W06
 BYTE   N06
 BYTE   W06
 BYTE   N06
 BYTE   W06
 BYTE   N06
 BYTE   W06
 BYTE   N06
 BYTE   W06
 BYTE   EOT
 BYTE   Cn2
 BYTE   N06  Dn1
 BYTE   N06  Cn2
 BYTE   W06
 BYTE   Dn1
 BYTE   TIE  Cn2
 BYTE   W06
 BYTE   N06  Dn1
 BYTE   W06
 BYTE   EOT
 BYTE   An1
 BYTE   N06  Dn1
 BYTE   TIE  An1
 BYTE   W06
 BYTE   N06  Dn1
 BYTE   W06
 BYTE   EOT
 BYTE   Fn1
 BYTE   N06  Dn1
 BYTE   TIE  Fn1
 BYTE   W06
 BYTE   N06  Dn1
 BYTE   W06
 BYTE   TIE  Cn1
 BYTE   N18  Dn1
 BYTE   TIE  Fs1
 BYTE   W18
//  #09 //034   ----------------------------------------
 BYTE   N06  Dn1
 BYTE   W06
 BYTE   N06
 BYTE   W06
 BYTE   N06
 BYTE   W06
 BYTE   N18
 BYTE   N72  Dn2
 BYTE   W12
 BYTE   Bn1
 BYTE   W06
 BYTE   N06  Dn1
 BYTE   W06
 BYTE   N06
 BYTE   N72  Gn1
 BYTE   W06
 BYTE   N06  Dn1
 BYTE   W06
 BYTE   N18
 BYTE   W18
 BYTE   N06
 BYTE   W06
 BYTE   N06
 BYTE   W06
 BYTE   N06
 BYTE   W06
 BYTE   EOT
 BYTE   Cn1  v042
 BYTE   N36  Cn1
 BYTE   N06  Dn1
 BYTE   N36  Fs1
 BYTE   N72  Dn2
 BYTE   W06
//  #09 //035   ----------------------------------------
 BYTE   N06  Dn1
 BYTE   W06
 BYTE   N06
 BYTE   N72  Bn1
 BYTE   W06
 BYTE   N06  Dn1
 BYTE   W06
 BYTE   N06
 BYTE   N72  Gn1
 BYTE   W06
 BYTE   N06  Dn1
 BYTE   W06
 BYTE   N72  Cn1
 BYTE   N18  Dn1
 BYTE   TIE  Fs1
 BYTE   W18
 BYTE   N06  Dn1
 BYTE   W06
 BYTE   N06
 BYTE   W06
 BYTE   N06
 BYTE   W06
 BYTE   N18
 BYTE   N72  Dn2
 BYTE   W12
 BYTE   Bn1
 BYTE   W06
 BYTE   N06  Dn1
 BYTE   W06
 BYTE   N06
 BYTE   N12  Gn1
 BYTE   W06
//  #09 //036   ----------------------------------------
 BYTE   N06  Dn1
 BYTE   W06
 BYTE   TIE  Cn1
 BYTE   N72  Dn1
 BYTE   N60  Gn1
 BYTE   W23
 BYTE   EOT
 BYTE   An2
 BYTE   W01
 BYTE   N02
 BYTE   W02
 BYTE   N03
 BYTE   W03
 BYTE   N02
 BYTE   W01
 BYTE   EOT
 BYTE   Cn2
 BYTE   TIE
 BYTE   W02
 BYTE   N03  An2
 BYTE   W03
 BYTE   N02
 BYTE   W01
 BYTE   TIE  Dn2
 BYTE   W02
 BYTE   N03  An2
 BYTE   W03
 BYTE   N02
 BYTE   W03
 BYTE   N03
 BYTE   W03
 BYTE   N02
 BYTE   W01
 BYTE   TIE  Bn1
 BYTE   W02
 BYTE   N03  An2
 BYTE   W03
 BYTE   N02
 BYTE   W03
 BYTE   N03
 BYTE   W03
 BYTE   N02
 BYTE   W01
 BYTE   TIE  Gn1
 BYTE   W02
 BYTE   N03  An2
 BYTE   W03
 BYTE   N02
 BYTE   W03
 BYTE   TIE
 BYTE   W04
 BYTE   EOT
 BYTE   Fs1
 BYTE   N18  Dn1
 BYTE   N72  Fs1
 BYTE   W18
//  #09 //037   ----------------------------------------
 BYTE   N06  Dn1
 BYTE   W06
Label_01199F21:
 BYTE   N06  Dn1  v104
 BYTE   W06
 BYTE   N06
 BYTE   W06
 BYTE   N18
 BYTE   W18
 BYTE   N06
 BYTE   W06
 BYTE   N06
 BYTE   W06
 BYTE   N06
 BYTE   W06
 BYTE   N18
 BYTE   N72  Fs1
 BYTE   W18
 BYTE   N06  Dn1
 BYTE   W06
 BYTE   N06
 BYTE   W06
 BYTE   N06
 BYTE   W06
 BYTE   N06
 BYTE   W06
//  #09 //038   ----------------------------------------
 BYTE   N06
 BYTE   W06
 BYTE   PEND 
Label_01199F3F:
 BYTE   N06  Dn1  v104
 BYTE   W06
 BYTE   N06
 BYTE   W06
 BYTE   N06
 BYTE   W06
 BYTE   N06
 BYTE   W06
 BYTE   N18
 BYTE   N72  Fs1
 BYTE   W18
 BYTE   N06  Dn1
 BYTE   W06
 BYTE   N06
 BYTE   W06
 BYTE   N06
 BYTE   W06
 BYTE   N18
 BYTE   W18
 BYTE   N06
 BYTE   W06
 BYTE   N06
 BYTE   W06
//  #09 //039   ----------------------------------------
 BYTE   N06
 BYTE   W06
 BYTE   PEND 
Label_01199F5D:
 BYTE   N12  Dn1  v104
 BYTE   N72  Fs1
 BYTE   W12
 BYTE   N06  Dn1
 BYTE   W06
 BYTE   N18
 BYTE   W18
 BYTE   N06
 BYTE   W06
 BYTE   N06
 BYTE   W06
 BYTE   N06
 BYTE   W06
 BYTE   N06
 BYTE   W06
 BYTE   N06
 BYTE   W06
 BYTE   N06
 BYTE   W06
 BYTE   N18
 BYTE   N72  Fs1
 BYTE   W18
//  #09 //040   ----------------------------------------
 BYTE   N06  Dn1
 BYTE   W06
 BYTE   PEND 
//  #09 //041   ----------------------------------------
 BYTE   PATT
  POIN2 Label_01199F21
//  #09 //042   ----------------------------------------
 BYTE   PATT
  POIN2 Label_01199F3F
//  #09 //043   ----------------------------------------
 BYTE   PATT
  POIN2 Label_01199F5D
//  #09 //044   ----------------------------------------
 BYTE   PATT
  POIN2 Label_01199F21
//  #09 //045   ----------------------------------------
 BYTE   PATT
  POIN2 Label_01199F3F
//  #09 //046   ----------------------------------------
 BYTE   PATT
  POIN2 Label_01199F5D
//  #09 //047   ----------------------------------------
 BYTE   PATT
  POIN2 Label_01199F21
//  #09 //048   ----------------------------------------
 BYTE   N06  Dn1  v104
 BYTE   W06
 BYTE   N06
 BYTE   W06
 BYTE   N06
 BYTE   W06
 BYTE   N06
 BYTE   W06
 BYTE   N18
 BYTE   N72  Fs1
 BYTE   W18
 BYTE   N18  Dn1
 BYTE   W18
 BYTE   N06
 BYTE   W06
 BYTE   N06
 BYTE   W06
 BYTE   N06
 BYTE   W06
 BYTE   N18
 BYTE   W18
//  #09 //049   ----------------------------------------
 BYTE   N06
 BYTE   TIE  Fs1
 BYTE   W06
 BYTE   N06  Dn1
 BYTE   W06
 BYTE   N06
 BYTE   W06
 BYTE   N06
 BYTE   W05
 BYTE   EOT
 BYTE   An2
 BYTE   W01
 BYTE   N06  Dn1
 BYTE   N02  An2
 BYTE   W02
 BYTE   N03
 BYTE   W03
 BYTE   N02
 BYTE   W01
 BYTE   N06  Dn1
 BYTE   W02
 BYTE   N03  An2
 BYTE   W03
 BYTE   N02
 BYTE   W01
 BYTE   N06  Dn1
 BYTE   W02
 BYTE   N03  An2
 BYTE   W03
 BYTE   N02
 BYTE   W01
 BYTE   N06  Dn1
 BYTE   W02
 BYTE   N03  An2
 BYTE   W03
 BYTE   N02
 BYTE   W01
 BYTE   N06  Dn1
 BYTE   W02
 BYTE   N03  An2
 BYTE   W03
 BYTE   N02
 BYTE   W01
 BYTE   N06  Dn1
 BYTE   W02
 BYTE   N03  An2
 BYTE   W03
 BYTE   N02
 BYTE   W01
 BYTE   N06  Dn1
 BYTE   W02
 BYTE   N03  An2
 BYTE   W03
 BYTE   N02
 BYTE   W01
 BYTE   N06  Dn1
 BYTE   W02
 BYTE   TIE  An2
 BYTE   W04
 BYTE   EOT
 BYTE   Cn1  v044
 BYTE   TIE  Cn1
 BYTE   N24  Dn1
 BYTE   TIE  Gs1
 BYTE   W24
//  #09 //050   ----------------------------------------
Label_0119A00F:
 BYTE   N06  Dn1  v104
 BYTE   W06
 BYTE   N06
 BYTE   W06
 BYTE   N12
 BYTE   W12
 BYTE   N12
 BYTE   W12
 BYTE   N06
 BYTE   W06
 BYTE   N06
 BYTE   W06
 BYTE   N24
 BYTE   W24
 BYTE   N06
 BYTE   W06
 BYTE   N06
 BYTE   W06
 BYTE   N06
 BYTE   W06
 BYTE   N06
 BYTE   W06
 BYTE   PEND 
//  #09 //051   ----------------------------------------
 BYTE   PATT
  POIN2 Label_01199C94
//  #09 //052   ----------------------------------------
 BYTE   EOT
 BYTE   Cn1  v044
 BYTE   TIE  Cn1  v104
 BYTE   N24  Dn1
 BYTE   TIE  Gs1
 BYTE   W24
 BYTE   N06  Dn1
 BYTE   W06
 BYTE   N06
 BYTE   W06
 BYTE   N24
 BYTE   W24
 BYTE   N06
 BYTE   W06
 BYTE   N06
 BYTE   W06
Label_0119A043:
 BYTE   N24  Dn1  v104
 BYTE   W24
//  #09 //053   ----------------------------------------
 BYTE   N06
 BYTE   W06
 BYTE   N06
 BYTE   W06
 BYTE   N06
 BYTE   W06
 BYTE   N06
 BYTE   W06
 BYTE   N06
 BYTE   W06
 BYTE   N06
 BYTE   W06
 BYTE   N06
 BYTE   W06
 BYTE   N06
 BYTE   W06
 BYTE   PEND 
 BYTE   EOT
 BYTE   Cn1  v044
 BYTE   TIE  Cn1
 BYTE   N24  Dn1
 BYTE   TIE  Gs1
 BYTE   W24
//  #09 //054   ----------------------------------------
 BYTE   PATT
  POIN2 Label_0119A00F
//  #09 //055   ----------------------------------------
 BYTE   PATT
  POIN2 Label_01199C94
//  #09 //056   ----------------------------------------
 BYTE   EOT
 BYTE   Cn1  v044
 BYTE   TIE  Cn1  v104
 BYTE   N24  Dn1
 BYTE   TIE  Gs1
 BYTE   W24
 BYTE   N06  Dn1
 BYTE   W06
 BYTE   N06
 BYTE   W06
 BYTE   N24
 BYTE   W24
 BYTE   N06
 BYTE   W06
 BYTE   N06
 BYTE   W06
//  #09 //057   ----------------------------------------
 BYTE   PATT
  POIN2 Label_0119A043
//  #09 //058   ----------------------------------------
 BYTE   EOT
 BYTE   Cn1  v044
 BYTE   TIE  Cn1  v104
 BYTE   N24  Dn1
 BYTE   TIE  Gs1
 BYTE   W24
//  #09 //059   ----------------------------------------
 BYTE   PATT
  POIN2 Label_0119A00F
//  #09 //060   ----------------------------------------
 BYTE   PATT
  POIN2 Label_01199C94
//  #09 //061   ----------------------------------------
 BYTE   EOT
 BYTE   Cn1  v044
 BYTE   TIE  Cn1  v104
 BYTE   N24  Dn1
 BYTE   TIE  Gs1
 BYTE   W24
 BYTE   N06  Dn1
 BYTE   W06
 BYTE   N06
 BYTE   W06
 BYTE   N12
 BYTE   W12
 BYTE   N12
 BYTE   W12
 BYTE   N06
 BYTE   W06
 BYTE   N06
 BYTE   W06
 BYTE   N24
 BYTE   W24
//  #09 //062   ----------------------------------------
 BYTE   N06
 BYTE   W06
 BYTE   N06
 BYTE   W06
 BYTE   EOT
 BYTE   Gs1
 BYTE   N06  Dn1
 BYTE   N36  Gs1
 BYTE   W06
 BYTE   N06  Dn1
 BYTE   W06
 BYTE   N06
 BYTE   W06
 BYTE   N06
 BYTE   W06
 BYTE   N06
 BYTE   W06
 BYTE   N06
 BYTE   W06
 BYTE   EOT
 BYTE   Cn1
 BYTE   TIE
 BYTE   N24  Dn1
 BYTE   TIE  Gs1
 BYTE   W24
//  #09 //063   ----------------------------------------
 BYTE   PATT
  POIN2 Label_0119A00F
//  #09 //064   ----------------------------------------
 BYTE   PATT
  POIN2 Label_01199C94
//  #09 //065   ----------------------------------------
 BYTE   EOT
 BYTE   Cn1  v044
 BYTE   TIE  Cn1  v104
 BYTE   N24  Dn1
 BYTE   TIE  Gs1
 BYTE   W24
 BYTE   N06  Dn1
 BYTE   W06
 BYTE   N06
 BYTE   W06
 BYTE   N12
 BYTE   W12
 BYTE   N12
 BYTE   W12
 BYTE   N06
 BYTE   W06
 BYTE   N06
 BYTE   W06
 BYTE   N24
 BYTE   W24
//  #09 //066   ----------------------------------------
 BYTE   N06
 BYTE   W06
 BYTE   N06
 BYTE   W05
 BYTE   EOT
 BYTE   An2
 BYTE   W01
 BYTE   N06  Dn1
 BYTE   N02  An2
 BYTE   W02
 BYTE   N03
 BYTE   W03
 BYTE   N03
 BYTE   W01
 BYTE   N06  Dn1
 BYTE   W02
 BYTE   N03  An2
 BYTE   W03
 BYTE   N02
 BYTE   W01
 BYTE   N06  Dn1
 BYTE   W02
 BYTE   N03  An2
 BYTE   W03
 BYTE   N03
 BYTE   W01
 BYTE   N06  Dn1
 BYTE   W02
 BYTE   N03  An2
 BYTE   W03
 BYTE   N02
 BYTE   W01
 BYTE   N06  Dn1
 BYTE   W02
 BYTE   N03  An2
 BYTE   W03
 BYTE   N03
 BYTE   W01
 BYTE   N06  Dn1
 BYTE   W02
 BYTE   TIE  An2
 BYTE   W04
 BYTE   EOT
 BYTE   Cn1  v044
 BYTE   TIE  Cn1
 BYTE   N24  Dn1
 BYTE   TIE  Gs1
 BYTE   W24
 BYTE   N06  Dn1
 BYTE   W06
 BYTE   N06
 BYTE   W06
 BYTE   N12
 BYTE   W12
//  #09 //067   ----------------------------------------
 BYTE   N12
 BYTE   W12
 BYTE   N06
 BYTE   W06
 BYTE   N06
 BYTE   W06
 BYTE   N24
 BYTE   W24
 BYTE   N06
 BYTE   W06
 BYTE   N06
 BYTE   W06
 BYTE   EOT
 BYTE   Cn1  v042
 BYTE   N36  Cn1
 BYTE   N06  Dn1
 BYTE   TIE  Fs1
 BYTE   W06
 BYTE   N06  Dn1
 BYTE   W06
//  #09 //068   ----------------------------------------
 BYTE   PATT
  POIN2 Label_01199C94
//  #09 //069   ----------------------------------------
 BYTE   EOT
 BYTE   Gs1
 BYTE   TIE  Cn1  v104
 BYTE   N24  Dn1
 BYTE   TIE  Gs1
 BYTE   W24
 BYTE   N06  Dn1
 BYTE   W06
 BYTE   N06
 BYTE   W06
 BYTE   N24
 BYTE   W24
 BYTE   N06
 BYTE   W06
 BYTE   N06
 BYTE   W06
 BYTE   N24
 BYTE   W24
//  #09 //070   ----------------------------------------
 BYTE   N06
 BYTE   W06
 BYTE   EOT
 BYTE   Bn1
 BYTE   N06  Dn1
 BYTE   N06  Bn1
 BYTE   W06
 BYTE   Dn1
 BYTE   TIE  Bn1
 BYTE   W06
 BYTE   N06  Dn1
 BYTE   W06
 BYTE   N06
 BYTE   W06
 BYTE   EOT
 BYTE   Fn1
 BYTE   N06  Dn1
 BYTE   N72  Fn1
 BYTE   W06
 BYTE   N06  Dn1
 BYTE   W06
 BYTE   N06
 BYTE   W06
 BYTE   EOT
 BYTE   Cn1
 BYTE   N54
 BYTE   N18  Dn1
 BYTE   W18
 BYTE   N06
 BYTE   W06
 BYTE   N06
 BYTE   W06
 BYTE   N06
 BYTE   W03
 BYTE   EOT
 BYTE   Cn2
 BYTE   N03
 BYTE   W03
 BYTE   EOT
 BYTE   Gs1
 BYTE   N18  Dn1
 BYTE   N36  Gs1
 BYTE   N36  Cn2
 BYTE   W18
//  #09 //071   ----------------------------------------
 BYTE   N18  Cn1
 BYTE   N06  Dn1
 BYTE   TIE  Fn1
 BYTE   W06
 BYTE   N06  Dn1
 BYTE   W06
 BYTE   N06
 BYTE   W06
 BYTE   N18  Cn1
 BYTE   N06  Dn1
 BYTE   N18  Gs1
 BYTE   N68  Cn2
 BYTE   W06
 BYTE   N06  Dn1
 BYTE   W06
 BYTE   N06
 BYTE   W06
 BYTE   N18  Cn1
 BYTE   N06  Dn1
 BYTE   N54  Gs1
 BYTE   W06
 BYTE   N06  Dn1
 BYTE   W06
 BYTE   N06
 BYTE   W06
 BYTE   N54  Cn1
 BYTE   N18  Dn1
 BYTE   W12
Label_0119A1D6:
 BYTE   W06
 BYTE   N06  Dn1  v104
 BYTE   W06
 BYTE   N06
 BYTE   W06
 BYTE   N06
 BYTE   W03
 BYTE   N03  Cn2
 BYTE   W03
 BYTE   N18  Dn1
 BYTE   N36  Gs1
 BYTE   N36  Cn2
 BYTE   W18
 BYTE   PEND 
//  #09 //072   ----------------------------------------
 BYTE   EOT
 BYTE   Fn1
 BYTE   N18  Cn1
 BYTE   N06  Dn1
 BYTE   TIE  Fn1
 BYTE   W06
 BYTE   N06  Dn1
 BYTE   W06
 BYTE   N06
 BYTE   W06
 BYTE   N18  Cn1
 BYTE   N06  Dn1
 BYTE   N18  Gs1
 BYTE   N68  Cn2
 BYTE   W06
 BYTE   N06  Dn1
 BYTE   W06
 BYTE   N06
 BYTE   W06
 BYTE   N18  Cn1
 BYTE   N06  Dn1
 BYTE   N54  Gs1
 BYTE   W06
 BYTE   N06  Dn1
 BYTE   W06
 BYTE   N06
 BYTE   W06
Label_0119A212:
 BYTE   N54  Cn1  v104
 BYTE   N18  Dn1
 BYTE   W18
 BYTE   N06
 BYTE   W06
 BYTE   N06
 BYTE   W06
 BYTE   N06
 BYTE   W03
 BYTE   N03  Cn2
 BYTE   W03
 BYTE   N18  Dn1
 BYTE   N36  Gs1
 BYTE   N36  Cn2
 BYTE   W18
 BYTE   PEND 
//  #09 //073   ----------------------------------------
 BYTE   EOT
 BYTE   Fn1
 BYTE   N18  Cn1
 BYTE   N06  Dn1
 BYTE   TIE  Fn1
 BYTE   W06
 BYTE   N06  Dn1
 BYTE   W06
 BYTE   N06
 BYTE   W06
 BYTE   N18  Cn1
 BYTE   N06  Dn1
 BYTE   N18  Gs1
 BYTE   N68  Cn2
 BYTE   W06
 BYTE   N06  Dn1
 BYTE   W06
 BYTE   N06
 BYTE   W06
 BYTE   N18  Cn1
 BYTE   N06  Dn1
 BYTE   N54  Gs1
 BYTE   W06
Label_0119A24C:
 BYTE   N06  Dn1  v104
 BYTE   W06
 BYTE   N06
 BYTE   W06
 BYTE   N54  Cn1
 BYTE   N18  Dn1
 BYTE   W18
 BYTE   N06
 BYTE   W06
 BYTE   N06
 BYTE   W06
 BYTE   N06
 BYTE   W03
 BYTE   N03  Cn2
 BYTE   W03
 BYTE   N18  Dn1
 BYTE   N36  Gs1
 BYTE   N36  Cn2
 BYTE   W18
 BYTE   PEND 
//  #09 //074   ----------------------------------------
 BYTE   EOT
 BYTE   Fn1
 BYTE   N18  Cn1
 BYTE   N06  Dn1
 BYTE   TIE  Fn1
 BYTE   W06
 BYTE   N06  Dn1
 BYTE   W06
 BYTE   N06
 BYTE   W05
 BYTE   EOT
 BYTE   An2
 BYTE   W01
 BYTE   N18  Cn1
 BYTE   N06  Dn1
 BYTE   N18  Gs1
 BYTE   N68  Cn2
 BYTE   N02  An2
 BYTE   W02
 BYTE   N03
 BYTE   W03
 BYTE   N03
 BYTE   W01
 BYTE   N06  Dn1
 BYTE   W02
 BYTE   N03  An2
 BYTE   W03
 BYTE   N02
 BYTE   W01
 BYTE   N06  Dn1
 BYTE   W02
 BYTE   N03  An2
 BYTE   W03
 BYTE   N03
 BYTE   W01
 BYTE   N18  Cn1
 BYTE   N06  Dn1
 BYTE   N54  Gs1
 BYTE   W02
 BYTE   N03  An2
 BYTE   W03
 BYTE   N02
 BYTE   W01
 BYTE   N06  Dn1
 BYTE   W02
 BYTE   N03  An2
 BYTE   W03
 BYTE   N03
 BYTE   W01
 BYTE   N06  Dn1
 BYTE   W02
 BYTE   TIE  An2
 BYTE   W04
 BYTE   N54  Cn1
 BYTE   N18  Dn1
 BYTE   W18
 BYTE   N06
 BYTE   W06
 BYTE   N06
 BYTE   W06
 BYTE   N06
 BYTE   W03
 BYTE   N03  Cn2
 BYTE   W03
 BYTE   N18  Dn1
 BYTE   N36  Gs1
 BYTE   N36  Cn2
 BYTE   W18
//  #09 //075   ----------------------------------------
 BYTE   EOT
 BYTE   Fn1
 BYTE   N18  Cn1
 BYTE   N06  Dn1
 BYTE   TIE  Fn1
 BYTE   W06
 BYTE   N06  Dn1
 BYTE   W06
 BYTE   N06
 BYTE   W06
 BYTE   N18  Cn1
 BYTE   N06  Dn1
 BYTE   N18  Gs1
 BYTE   N68  Cn2
 BYTE   W06
 BYTE   N06  Dn1
 BYTE   W06
 BYTE   N06
 BYTE   W06
 BYTE   N18  Cn1
 BYTE   N06  Dn1
 BYTE   N54  Gs1
 BYTE   W06
 BYTE   N06  Dn1
 BYTE   W06
 BYTE   N06
 BYTE   W06
 BYTE   N54  Cn1
 BYTE   N18  Dn1
 BYTE   W18
 BYTE   N06
 BYTE   W06
 BYTE   N06
 BYTE   W06
 BYTE   N06
 BYTE   W03
 BYTE   N03  Cn2
 BYTE   W03
 BYTE   N18  Dn1
 BYTE   N36  Gs1
 BYTE   N36  Cn2
 BYTE   W18
//  #09 //076   ----------------------------------------
 BYTE   EOT
 BYTE   Fn1
 BYTE   N18  Cn1
 BYTE   N06  Dn1
 BYTE   TIE  Fn1
 BYTE   W06
 BYTE   N06  Dn1
 BYTE   W06
 BYTE   N06
 BYTE   W06
 BYTE   N18  Cn1
 BYTE   N06  Dn1
 BYTE   N18  Gs1
 BYTE   N68  Cn2
 BYTE   W06
 BYTE   N06  Dn1
 BYTE   W06
 BYTE   N06
 BYTE   W06
 BYTE   N18  Cn1
 BYTE   N06  Dn1
 BYTE   N54  Gs1
 BYTE   W06
 BYTE   N06  Dn1
 BYTE   W06
 BYTE   N06
 BYTE   W06
 BYTE   N54  Cn1
 BYTE   N18  Dn1
 BYTE   W18
 BYTE   N06
 BYTE   W06
 BYTE   N06
 BYTE   W06
 BYTE   N06
 BYTE   W03
 BYTE   N03  Cn2
 BYTE   W03
 BYTE   N18  Dn1
 BYTE   N36  Gs1
 BYTE   N36  Cn2
 BYTE   W12
//  #09 //077   ----------------------------------------
 BYTE   W06
 BYTE   EOT
 BYTE   Fn1
 BYTE   N18  Cn1
 BYTE   N06  Dn1
 BYTE   TIE  Fn1
 BYTE   W06
 BYTE   N06  Dn1
 BYTE   W06
 BYTE   N06
 BYTE   W05
 BYTE   EOT
 BYTE   An2
 BYTE   W01
 BYTE   N18  Cn1
 BYTE   N06  Dn1
 BYTE   N18  Gs1
 BYTE   TIE  Cn2
 BYTE   N02  An2
 BYTE   W02
 BYTE   N03
 BYTE   W03
 BYTE   N03
 BYTE   W01
 BYTE   N06  Dn1
 BYTE   W02
 BYTE   N03  An2
 BYTE   W03
 BYTE   N02
 BYTE   W01
 BYTE   N06  Dn1
 BYTE   W02
 BYTE   N03  An2
 BYTE   W03
 BYTE   N03
 BYTE   W01
 BYTE   N18  Cn1
 BYTE   N06  Dn1
 BYTE   TIE  Gs1
 BYTE   W02
 BYTE   N03  An2
 BYTE   W03
 BYTE   N02
 BYTE   W01
 BYTE   N06  Dn1
 BYTE   W02
 BYTE   N03  An2
 BYTE   W03
 BYTE   N03
 BYTE   W01
 BYTE   N06  Dn1
 BYTE   W02
 BYTE   N72  An2
 BYTE   W04
 BYTE   TIE  Cn1
 BYTE   TIE  Dn1
 BYTE   W36
//  #09 //078   ----------------------------------------
 BYTE   W36
 BYTE   N02  An2
 BYTE   W02
 BYTE   N03
 BYTE   W03
 BYTE   N03
 BYTE   W03
 BYTE   N03
 BYTE   W03
 BYTE   N02
 BYTE   W03
 BYTE   N03
 BYTE   W03
 BYTE   N03
 BYTE   W03
 BYTE   N03
 BYTE   W03
 BYTE   N02
 BYTE   W03
 BYTE   N03
 BYTE   W03
 BYTE   N03
 BYTE   W03
 BYTE   TIE
 BYTE   W04
 BYTE   EOT
 BYTE   Cn1  v038
 BYTE   Gs1
 BYTE   TIE  Cn1
 BYTE   N18  Dn1
 BYTE   TIE  Gs1
 BYTE   W18
 BYTE   N06  Dn1
 BYTE   W06
//  #09 //079   ----------------------------------------
 BYTE   PATT
  POIN2 Label_01199D6A
//  #09 //080   ----------------------------------------
 BYTE   EOT
 BYTE   Gs1  v048
 BYTE   N06  Dn1  v104
 BYTE   N36  Gs1
 BYTE   TIE  Cn2
 BYTE   W06
 BYTE   N06  Dn1
 BYTE   W06
//  #09 //081   ----------------------------------------
 BYTE   PATT
  POIN2 Label_01199C94
//  #09 //082   ----------------------------------------
 BYTE   EOT
 BYTE   Cn1
 BYTE   TIE  Cn1  v104
 BYTE   N18  Dn1
 BYTE   TIE  Gs1
 BYTE   W18
 BYTE   N06  Dn1
 BYTE   W06
 BYTE   N06
 BYTE   W06
 BYTE   N06
 BYTE   W06
 BYTE   N18
 BYTE   W18
 BYTE   N06
 BYTE   W06
 BYTE   N06
 BYTE   W06
 BYTE   N06
 BYTE   W06
Label_0119A3EA:
 BYTE   N18  Dn1  v104
 BYTE   W18
 BYTE   N06
 BYTE   W06
//  #09 //083   ----------------------------------------
 BYTE   N06
 BYTE   W06
 BYTE   N06
 BYTE   W06
 BYTE   PEND 
 BYTE   EOT
 BYTE   Gs1  v048
 BYTE   N06  Dn1
 BYTE   N36  Gs1
 BYTE   TIE  Cn2
 BYTE   W06
 BYTE   N06  Dn1
 BYTE   W06
 BYTE   N06
 BYTE   W06
 BYTE   N06
 BYTE   W06
 BYTE   N06
 BYTE   W06
 BYTE   N06
 BYTE   W06
 BYTE   EOT
 BYTE   Cn1
 BYTE   TIE
 BYTE   N18  Dn1
 BYTE   N72  Gs1
 BYTE   W18
 BYTE   N06  Dn1
 BYTE   W06
Label_0119A415:
 BYTE   N06  Dn1  v104
 BYTE   W06
 BYTE   N06
 BYTE   W06
 BYTE   N18
 BYTE   W18
//  #09 //084   ----------------------------------------
 BYTE   N06
 BYTE   W06
 BYTE   N06
 BYTE   W06
 BYTE   N06
 BYTE   W06
 BYTE   N18
 BYTE   N72  Gs1
 BYTE   W18
 BYTE   N06  Dn1
 BYTE   W06
 BYTE   N06
 BYTE   W06
 BYTE   N06
 BYTE   W06
 BYTE   PEND 
 BYTE   EOT
 BYTE   Cn2
 BYTE   N06  Dn1
 BYTE   TIE  Cn2
 BYTE   W06
 BYTE   N06  Dn1
 BYTE   W06
//  #09 //085   ----------------------------------------
 BYTE   PATT
  POIN2 Label_01199C94
//  #09 //086   ----------------------------------------
 BYTE   EOT
 BYTE   Cn1
 BYTE   N36  Cn1  v104
 BYTE   N18  Dn1
 BYTE   N36  Gs1
 BYTE   W18
 BYTE   N06  Dn1
 BYTE   W06
 BYTE   N06
 BYTE   W06
 BYTE   N06
 BYTE   W06
 BYTE   TIE  Cn1
 BYTE   N18  Dn1
 BYTE   TIE  Gs1
 BYTE   W18
 BYTE   N06  Dn1
 BYTE   W06
 BYTE   N06
 BYTE   W06
 BYTE   N06
 BYTE   W06
//  #09 //087   ----------------------------------------
 BYTE   PATT
  POIN2 Label_0119A3EA
//  #09 //088   ----------------------------------------
 BYTE   EOT
 BYTE   Cn2
 BYTE   N06  Dn1  v104
 BYTE   TIE  Cn2
 BYTE   W06
 BYTE   N06  Dn1
 BYTE   W06
 BYTE   EOT
 BYTE   An1
 BYTE   N06  Dn1
 BYTE   TIE  An1
 BYTE   W06
 BYTE   N06  Dn1
 BYTE   W06
 BYTE   EOT
 BYTE   Fn1
 BYTE   N06  Dn1
 BYTE   TIE  Fn1
 BYTE   W06
 BYTE   N06  Dn1
 BYTE   W06
 BYTE   EOT
 BYTE   Cn1  v044
 BYTE   N54  Cn1
 BYTE   N18  Dn1
 BYTE   N54  Gs1
 BYTE   W18
 BYTE   N06  Dn1
 BYTE   W06
 BYTE   N06
 BYTE   W06
 BYTE   N06
 BYTE   W06
 BYTE   N18
 BYTE   W18
 BYTE   N90  Cn1
 BYTE   N18  Dn1
 BYTE   N90  Gs1
 BYTE   W18
//  #09 //089   ----------------------------------------
 BYTE   N06  Dn1
 BYTE   W06
 BYTE   N06
 BYTE   W06
 BYTE   N06
 BYTE   W06
 BYTE   N18
 BYTE   W18
 BYTE   EOT
 BYTE   Cn2
 BYTE   N06  Dn1
 BYTE   TIE  Cn2
 BYTE   W06
 BYTE   N06  Dn1
 BYTE   W06
 BYTE   N06
 BYTE   W06
 BYTE   N06
 BYTE   W06
 BYTE   N06
 BYTE   W06
 BYTE   N06
 BYTE   W06
 BYTE   N54  Cn1
 BYTE   N18  Dn1
 BYTE   N54  Gs1
 BYTE   W18
 BYTE   N06  Dn1
 BYTE   W06
//  #09 //090   ----------------------------------------
 BYTE   N06
 BYTE   W06
 BYTE   N06
 BYTE   W06
 BYTE   N18
 BYTE   W18
 BYTE   N90  Cn1
 BYTE   N18  Dn1
 BYTE   N90  Gs1
 BYTE   W18
 BYTE   N06  Dn1
 BYTE   W06
 BYTE   N06
 BYTE   W06
 BYTE   N06
 BYTE   W06
 BYTE   N18
 BYTE   W18
 BYTE   EOT
 BYTE   Cn2
 BYTE   N06  Dn1
 BYTE   TIE  Cn2
 BYTE   W06
 BYTE   N06  Dn1
 BYTE   W06
//  #09 //091   ----------------------------------------
 BYTE   N06
 BYTE   W06
 BYTE   N06
 BYTE   W06
 BYTE   N06
 BYTE   W06
 BYTE   N06
 BYTE   W06
 BYTE   TIE  Cn1
 BYTE   N18  Dn1
 BYTE   TIE  Gs1
 BYTE   W18
 BYTE   N06  Dn1
 BYTE   W06
 BYTE   N06
 BYTE   W06
 BYTE   N06
 BYTE   W06
 BYTE   N18
 BYTE   W18
 BYTE   N06
 BYTE   W06
 BYTE   N06
 BYTE   W06
 BYTE   N06
 BYTE   W06
//  #09 //092   ----------------------------------------
 BYTE   N12
 BYTE   W12
 BYTE   N06
 BYTE   W06
 BYTE   EOT
 BYTE   Gn1
 BYTE   N18  Dn1
 BYTE   TIE  Gn1
 BYTE   W18
 BYTE   EOT
 BYTE   Gs1  v048
 BYTE   N06  Dn1
 BYTE   N36  Gs1
 BYTE   TIE  Cn2
 BYTE   W06
 BYTE   N06  Dn1
 BYTE   W06
//  #09 //093   ----------------------------------------
 BYTE   PATT
  POIN2 Label_01199C94
//  #09 //094   ----------------------------------------
 BYTE   EOT
 BYTE   Cn1
 BYTE   N72  Cn1  v104
 BYTE   N18  Dn1
 BYTE   N72  Gs1
 BYTE   W18
 BYTE   N06  Dn1
 BYTE   W06
 BYTE   N06
 BYTE   W06
 BYTE   N06
 BYTE   W06
 BYTE   EOT
 BYTE   Dn2
 BYTE   N18  Dn1
 BYTE   TIE  Dn2
 BYTE   W18
 BYTE   EOT
 BYTE   Gn1
 BYTE   N06  Dn1
 BYTE   N18  Gn1
 BYTE   W06
 BYTE   N06  Dn1
 BYTE   W06
 BYTE   N06
 BYTE   W06
 BYTE   N72  Cn1
 BYTE   N12  Dn1
 BYTE   TIE  Gn1
 BYTE   N72  Gs1
 BYTE   W12
 BYTE   N06  Dn1
 BYTE   W06
 BYTE   N12
 BYTE   W12
//  #09 //095   ----------------------------------------
 BYTE   EOT
 BYTE   Bn1
 BYTE   N06  Dn1
 BYTE   TIE  Bn1
 BYTE   W06
 BYTE   EOT
 BYTE   Cn2
 BYTE   N12  Dn1
 BYTE   TIE  Cn2
 BYTE   W12
 BYTE   EOT
 BYTE   An1
 BYTE   N12  Dn1
 BYTE   TIE  An1
 BYTE   W12
 BYTE   EOT
 BYTE   Fn1
 BYTE   N12  Dn1
 BYTE   TIE  Fn1
 BYTE   W12
 BYTE   Cn1
 BYTE   N18  Dn1
 BYTE   TIE  Gs1
 BYTE   W18
 BYTE   N06  Dn1
 BYTE   W06
//  #09 //096   ----------------------------------------
 BYTE   PATT
  POIN2 Label_01199D6A
//  #09 //097   ----------------------------------------
 BYTE   EOT
 BYTE   Gs1  v048
 BYTE   N06  Dn1  v104
 BYTE   N36  Gs1
 BYTE   TIE  Cn2
 BYTE   W06
 BYTE   N06  Dn1
 BYTE   W06
//  #09 //098   ----------------------------------------
 BYTE   PATT
  POIN2 Label_01199C94
//  #09 //099   ----------------------------------------
 BYTE   EOT
 BYTE   Cn1
 BYTE   TIE  Cn1  v104
 BYTE   N18  Dn1
 BYTE   TIE  Gs1
 BYTE   W18
 BYTE   N06  Dn1
 BYTE   W06
 BYTE   N06
 BYTE   W06
 BYTE   N06
 BYTE   W06
 BYTE   N18
 BYTE   W18
 BYTE   N06
 BYTE   W06
 BYTE   N06
 BYTE   W06
 BYTE   N06
 BYTE   W06
//  #09 //100   ----------------------------------------
 BYTE   PATT
  POIN2 Label_0119A3EA
//  #09 //101   ----------------------------------------
 BYTE   EOT
 BYTE   Gs1  v048
 BYTE   N06  Dn1  v104
 BYTE   N36  Gs1
 BYTE   TIE  Cn2
 BYTE   W06
 BYTE   N06  Dn1
 BYTE   W06
 BYTE   N06
 BYTE   W06
 BYTE   N06
 BYTE   W06
 BYTE   N06
 BYTE   W06
 BYTE   N06
 BYTE   W06
 BYTE   EOT
 BYTE   Cn1
 BYTE   TIE
 BYTE   N18  Dn1
 BYTE   N72  Gs1
 BYTE   W18
 BYTE   N06  Dn1
 BYTE   W06
//  #09 //102   ----------------------------------------
 BYTE   PATT
  POIN2 Label_0119A415
//  #09 //103   ----------------------------------------
 BYTE   EOT
 BYTE   Cn2
 BYTE   N06  Dn1  v104
 BYTE   TIE  Cn2
 BYTE   W06
 BYTE   N06  Dn1
 BYTE   W06
//  #09 //104   ----------------------------------------
 BYTE   PATT
  POIN2 Label_01199C94
//  #09 //105   ----------------------------------------
 BYTE   EOT
 BYTE   Cn1
 BYTE   N36  Cn1  v104
 BYTE   N18  Dn1
 BYTE   N36  Gs1
 BYTE   W18
 BYTE   N06  Dn1
 BYTE   W06
 BYTE   N06
 BYTE   W06
 BYTE   N06
 BYTE   W06
 BYTE   TIE  Cn1
 BYTE   N18  Dn1
 BYTE   TIE  Gs1
 BYTE   W18
 BYTE   N06  Dn1
 BYTE   W06
 BYTE   N06
 BYTE   W06
 BYTE   N06
 BYTE   W06
//  #09 //106   ----------------------------------------
 BYTE   PATT
  POIN2 Label_0119A3EA
//  #09 //107   ----------------------------------------
 BYTE   EOT
 BYTE   Cn2
 BYTE   N06  Dn1  v104
 BYTE   TIE  Cn2
 BYTE   W06
 BYTE   N06  Dn1
 BYTE   W06
 BYTE   EOT
 BYTE   An1
 BYTE   N06  Dn1
 BYTE   TIE  An1
 BYTE   W06
 BYTE   N06  Dn1
 BYTE   W06
 BYTE   EOT
 BYTE   Fn1
 BYTE   N06  Dn1
 BYTE   TIE  Fn1
 BYTE   W06
 BYTE   N06  Dn1
 BYTE   W06
 BYTE   EOT
 BYTE   Gs1
 BYTE   TIE  Dn1
 BYTE   TIE  Gs1
 BYTE   W24
 BYTE   W48
//  #09 //108   ----------------------------------------
 BYTE   EOT
 BYTE   Cs1
 BYTE   N72
 BYTE   W48
 BYTE   W24
 BYTE   N72
 BYTE   W72
//  #09 //109   ----------------------------------------
 BYTE   TIE
 BYTE   W32
 BYTE   W03
 BYTE   EOT
 BYTE   An2
 BYTE   W01
 BYTE   Cn2
 BYTE   TIE
 BYTE   N02  An2
 BYTE   W02
 BYTE   N03
 BYTE   W03
 BYTE   N03
 BYTE   W01
 BYTE   EOT
 BYTE   Gn1
 BYTE   TIE
 BYTE   W02
 BYTE   N03  An2
 BYTE   W03
 BYTE   N02
 BYTE   W01
 BYTE   EOT
 BYTE   Fn1
 BYTE   N18
 BYTE   W02
 BYTE   N03  An2
 BYTE   W03
 BYTE   N03
 BYTE   W01
 BYTE   EOT
 BYTE   Dn2
 BYTE   TIE
 BYTE   W02
 BYTE   N03  An2
 BYTE   W03
 BYTE   N02
 BYTE   W01
 BYTE   EOT
 BYTE   An1
 BYTE   TIE
 BYTE   W02
 BYTE   N03  An2
 BYTE   W03
 BYTE   N03
 BYTE   W01
 BYTE   TIE  Fn1
 BYTE   W02
 BYTE   An2
 BYTE   W04
 BYTE   EOT
 BYTE   Cn1  v038
 BYTE   N54  Cn1
 BYTE   N18  Dn1
 BYTE   W18
 BYTE   N06
 BYTE   W06
//  #09 //110   ----------------------------------------
 BYTE   N06
 BYTE   W06
 BYTE   N06
 BYTE   W06
 BYTE   N18
 BYTE   W18
 BYTE   N54  Cn1
 BYTE   N06  Dn1
 BYTE   W06
 BYTE   N06
 BYTE   W06
 BYTE   N06
 BYTE   W06
 BYTE   N18
 BYTE   W18
 BYTE   EOT
 BYTE   Gn1
 BYTE   N06  Dn1
 BYTE   TIE  Gn1
 BYTE   W06
 BYTE   N06  Dn1
 BYTE   W06
 BYTE   N06
 BYTE   W06
 BYTE   EOT
 BYTE   Gs1  v048
 BYTE   N36  Cn1
 BYTE   N06  Dn1
 BYTE   N36  Gs1
 BYTE   TIE  Cn2
 BYTE   W06
 BYTE   N06  Dn1
 BYTE   W06
//  #09 //111   ----------------------------------------
 BYTE   N06
 BYTE   W06
 BYTE   N06
 BYTE   W06
 BYTE   N06
 BYTE   W06
 BYTE   N06
 BYTE   W06
 BYTE   N54  Cn1
 BYTE   N18  Dn1
 BYTE   TIE  Gs1
 BYTE   W18
 BYTE   N06  Dn1
 BYTE   W06
 BYTE   N06
 BYTE   W06
 BYTE   N06
 BYTE   W06
 BYTE   N18
 BYTE   W18
 BYTE   N54  Cn1
 BYTE   N06  Dn1
 BYTE   W06
 BYTE   N06
 BYTE   W06
 BYTE   N06
 BYTE   W06
//  #09 //112   ----------------------------------------
 BYTE   N18
 BYTE   W18
 BYTE   EOT
 BYTE   Gn1
 BYTE   N06  Dn1
 BYTE   TIE  Gn1
 BYTE   W06
 BYTE   N06  Dn1
 BYTE   W06
 BYTE   N06
 BYTE   W05
 BYTE   EOT
 BYTE   An2
 BYTE   W01
 BYTE   Gs1  v048
 BYTE   TIE  Cn1
 BYTE   N06  Dn1
 BYTE   N36  Gs1
 BYTE   TIE  Cn2
 BYTE   N02  An2
 BYTE   W02
 BYTE   N03
 BYTE   W03
 BYTE   N03
 BYTE   W01
 BYTE   N06  Dn1
 BYTE   W02
 BYTE   N03  An2
 BYTE   W03
 BYTE   N02
 BYTE   W01
 BYTE   N06  Dn1
 BYTE   W02
 BYTE   N03  An2
 BYTE   W03
 BYTE   N03
 BYTE   W01
 BYTE   N06  Dn1
 BYTE   W02
 BYTE   N03  An2
 BYTE   W03
 BYTE   N02
 BYTE   W01
 BYTE   N06  Dn1
 BYTE   W02
 BYTE   N03  An2
 BYTE   W03
 BYTE   N03
 BYTE   W01
 BYTE   N06  Dn1
 BYTE   W02
 BYTE   TIE  An2
 BYTE   W04
 BYTE   N24  Dn1
 BYTE   TIE  Gs1
 BYTE   W24
//  #09 //113   ----------------------------------------
 BYTE   N06  Dn1
 BYTE   W06
 BYTE   N06
 BYTE   W06
 BYTE   N24
 BYTE   W24
 BYTE   N06
 BYTE   W06
 BYTE   N06
 BYTE   W06
 BYTE   EOT
 BYTE   Cs1
 BYTE   N72
 BYTE   N24  Dn1
 BYTE   W24
 BYTE   N06
 BYTE   W06
 BYTE   N06
 BYTE   W06
 BYTE   N09
 BYTE   W09
 BYTE   N09
 BYTE   W03
//  #09 //114   ----------------------------------------
 BYTE   W06
 BYTE   N06
 BYTE   W06
 BYTE   N06
 BYTE   W06
 BYTE   N06
 BYTE   W06
 BYTE   N72  Cs1
 BYTE   N24  Dn1
 BYTE   W24
 BYTE   N06
 BYTE   W06
 BYTE   N06
 BYTE   W06
 BYTE   N24
 BYTE   W24
 BYTE   N06
 BYTE   W06
 BYTE   N06
 BYTE   W06
//  #09 //115   ----------------------------------------
 BYTE   N72  Cs1
 BYTE   N24  Dn1
 BYTE   W24
 BYTE   N06
 BYTE   W06
 BYTE   N06
 BYTE   W06
 BYTE   N09
 BYTE   W09
 BYTE   N09
 BYTE   W09
 BYTE   N06
 BYTE   W06
 BYTE   N06
 BYTE   W06
 BYTE   N06
 BYTE   W06
 BYTE   TIE  Cs1
 BYTE   N72  Dn1
 BYTE   TIE  En1
 BYTE   W24
//  #09 //116   ----------------------------------------
 BYTE   W48
 BYTE   EOT
 BYTE   Cn1  v044
 BYTE   TIE  Cn1
 BYTE   N18  Dn1
 BYTE   TIE  Gs1
 BYTE   W18
 BYTE   N06  Dn1
 BYTE   W06
 BYTE   N06
 BYTE   W06
 BYTE   N06
 BYTE   W06
 BYTE   N18
 BYTE   W12
//  #09 //117   ----------------------------------------
Label_0119A769:
 BYTE   W06
 BYTE   N06  Dn1  v104
 BYTE   W06
 BYTE   N06
 BYTE   W06
 BYTE   N06
 BYTE   W06
 BYTE   N18
 BYTE   W18
 BYTE   N06
 BYTE   W06
 BYTE   N06
 BYTE   W06
 BYTE   N06
 BYTE   W06
 BYTE   N06
 BYTE   W06
 BYTE   N06
 BYTE   W06
 BYTE   N06
 BYTE   W06
 BYTE   N06
 BYTE   W06
 BYTE   N06
 BYTE   W06
 BYTE   N06
 BYTE   W06
 BYTE   PEND 
//  #09 //118   ----------------------------------------
 BYTE   EOT
 BYTE   Cn1  v044
Label_0119A78A:
 BYTE   N36  Cn1  v104
 BYTE   N18  Dn1
 BYTE   N36  Gs1
 BYTE   W18
 BYTE   N06  Dn1
 BYTE   W06
 BYTE   N06
 BYTE   W06
 BYTE   N06
 BYTE   W06
 BYTE   TIE  Cn1
 BYTE   N18  Dn1
 BYTE   TIE  Gs1
 BYTE   W18
 BYTE   N06  Dn1
 BYTE   W06
 BYTE   N06
 BYTE   W06
 BYTE   N06
 BYTE   W06
 BYTE   N18
 BYTE   W18
 BYTE   N06
 BYTE   W06
 BYTE   PEND 
//  #09 //119   ----------------------------------------
Label_0119A7AC:
 BYTE   N06  Dn1  v104
 BYTE   W06
 BYTE   N06
 BYTE   W06
 BYTE   N06
 BYTE   W06
 BYTE   N06
 BYTE   W06
 BYTE   N06
 BYTE   W06
 BYTE   N06
 BYTE   W06
 BYTE   N06
 BYTE   W06
 BYTE   N06
 BYTE   W06
 BYTE   PEND 
 BYTE   EOT
 BYTE   Cn1  v044
 BYTE   TIE  Cn1
 BYTE   N18  Dn1
 BYTE   TIE  Gs1
 BYTE   W18
 BYTE   N06  Dn1
 BYTE   W06
 BYTE   N06
 BYTE   W06
 BYTE   N06
 BYTE   W06
 BYTE   N18
 BYTE   W12
//  #09 //120   ----------------------------------------
 BYTE   W06
 BYTE   N06
 BYTE   W06
 BYTE   N06
 BYTE   W06
 BYTE   N06
 BYTE   W06
 BYTE   N18
 BYTE   W18
 BYTE   N12
 BYTE   W12
 BYTE   N03
 BYTE   W03
 BYTE   N03
 BYTE   W03
 BYTE   N06
 BYTE   W06
 BYTE   N06
 BYTE   W06
 BYTE   N06
 BYTE   W06
 BYTE   N06
 BYTE   W06
 BYTE   N06
 BYTE   W06
 BYTE   N06
 BYTE   W06
//  #09 //121   ----------------------------------------
 BYTE   EOT
 BYTE   Cn1  v044
 BYTE   N54  Cn1
 BYTE   N18  Dn1
 BYTE   N54  Gs1
 BYTE   W18
 BYTE   N06  Dn1
 BYTE   W06
 BYTE   N06
 BYTE   W06
 BYTE   N06
 BYTE   W06
 BYTE   N18
 BYTE   W18
 BYTE   TIE  Cn1
 BYTE   N18  Dn1
 BYTE   TIE  Gs1
 BYTE   W18
 BYTE   N06  Dn1
 BYTE   W06
 BYTE   N06
 BYTE   W06
 BYTE   N06
 BYTE   W06
 BYTE   N18
 BYTE   W06
//  #09 //122   ----------------------------------------
 BYTE   W11
 BYTE   EOT
 BYTE   An2
 BYTE   W01
 BYTE   N06  Dn1
 BYTE   N02  An2
 BYTE   W02
 BYTE   N03
 BYTE   W03
 BYTE   N03
 BYTE   W01
 BYTE   N06  Dn1
 BYTE   W02
 BYTE   N03  An2
 BYTE   W03
 BYTE   N02
 BYTE   W01
 BYTE   N06  Dn1
 BYTE   W02
 BYTE   N03  An2
 BYTE   W03
 BYTE   N03
 BYTE   W01
 BYTE   N06  Dn1
 BYTE   W02
 BYTE   N03  An2
 BYTE   W03
 BYTE   N02
 BYTE   W01
 BYTE   N06  Dn1
 BYTE   W02
 BYTE   N03  An2
 BYTE   W03
 BYTE   N03
 BYTE   W01
 BYTE   N06  Dn1
 BYTE   W02
 BYTE   TIE  An2
 BYTE   W04
 BYTE   N18  Dn1
 BYTE   W18
 BYTE   N06
 BYTE   W06
 BYTE   N06
 BYTE   W06
 BYTE   N06
 BYTE   W06
 BYTE   N18
 BYTE   W12
//  #09 //123   ----------------------------------------
 BYTE   PATT
  POIN2 Label_0119A769
//  #09 //124   ----------------------------------------
Label_0119A853:
 BYTE   N18  Dn1  v104
 BYTE   W18
 BYTE   N06
 BYTE   W06
 BYTE   N06
 BYTE   W06
 BYTE   N06
 BYTE   W06
 BYTE   N18
 BYTE   W18
 BYTE   N06
 BYTE   W06
 BYTE   N06
 BYTE   W06
 BYTE   N06
 BYTE   W06
 BYTE   N06
 BYTE   W06
 BYTE   N06
 BYTE   W06
 BYTE   N06
 BYTE   W06
 BYTE   N06
 BYTE   W06
 BYTE   PEND 
//  #09 //125   ----------------------------------------
Label_0119A86E:
 BYTE   N06  Dn1  v104
 BYTE   W06
 BYTE   N06
 BYTE   W06
 BYTE   N06
 BYTE   W06
 BYTE   N06
 BYTE   W06
 BYTE   N06
 BYTE   W06
 BYTE   N06
 BYTE   W06
 BYTE   N06
 BYTE   W06
 BYTE   N06
 BYTE   W06
 BYTE   N18
 BYTE   W18
 BYTE   N06
 BYTE   W06
 BYTE   N06
 BYTE   W06
 BYTE   N06
 BYTE   W06
 BYTE   N18
 BYTE   W12
 BYTE   PEND 
//  #09 //126   ----------------------------------------
 BYTE   PATT
  POIN2 Label_0119A769
//  #09 //127   ----------------------------------------
 BYTE   PATT
  POIN2 Label_0119A853
//  #09 //128   ----------------------------------------
 BYTE   PATT
  POIN2 Label_0119A86E
//  #09 //129   ----------------------------------------
 BYTE   PATT
  POIN2 Label_0119A769
//  #09 //130   ----------------------------------------
 BYTE   PATT
  POIN2 Label_0119A853
//  #09 //131   ----------------------------------------
 BYTE   PATT
  POIN2 Label_0119A86E
//  #09 //132   ----------------------------------------
 BYTE   PATT
  POIN2 Label_0119A769
//  #09 //133   ----------------------------------------
 BYTE   N18  Dn1  v104
 BYTE   W18
 BYTE   N06
 BYTE   W06
 BYTE   N06
 BYTE   W06
 BYTE   N06
 BYTE   W06
 BYTE   N18
 BYTE   W18
 BYTE   N06
 BYTE   W06
 BYTE   N06
 BYTE   W06
 BYTE   N06
 BYTE   W06
 BYTE   N72
 BYTE   W24
//  #09 //134   ----------------------------------------
 BYTE   W48
 BYTE   EOT
 BYTE   Cn1  v042
 BYTE   GoTo
  POIN2 Label_01199D5F
//  #09 //135   ----------------------------------------
 BYTE   TIE  Cn1  v104
 BYTE   N18  Dn1
 BYTE   TIE  Fs1
 BYTE   W18
 BYTE   N06  Dn1
 BYTE   W06
 BYTE   N06
 BYTE   W06
 BYTE   N06
 BYTE   W06
 BYTE   N18
 BYTE   W12
Label_0119A8DC:
 BYTE   W06
 BYTE   N06  Dn1  v104
 BYTE   W06
 BYTE   N06
 BYTE   W06
 BYTE   N06
 BYTE   W06
 BYTE   N18
 BYTE   W18
 BYTE   N06
 BYTE   W06
//  #09 //136   ----------------------------------------
 BYTE   N06
 BYTE   W06
 BYTE   N06
 BYTE   W06
 BYTE   PEND 
 BYTE   EOT
 BYTE   Cn1  v042
 BYTE   N36  Cn1
 BYTE   N06  Dn1
 BYTE   N36  Fs1
 BYTE   W06
 BYTE   N06  Dn1
 BYTE   W06
 BYTE   N06
 BYTE   W06
 BYTE   N06
 BYTE   W06
 BYTE   N06
 BYTE   W06
 BYTE   N06
 BYTE   W06
Label_0119A903:
 BYTE   TIE  Cn1  v104
 BYTE   N18  Dn1
 BYTE   TIE  Fs1
 BYTE   W18
 BYTE   N06  Dn1
 BYTE   W06
 BYTE   N06
 BYTE   W06
 BYTE   N06
 BYTE   W06
 BYTE   N18
 BYTE   W18
//  #09 //137   ----------------------------------------
 BYTE   N06
 BYTE   W06
 BYTE   N06
 BYTE   W06
 BYTE   N06
 BYTE   W06
 BYTE   N06
 BYTE   W06
 BYTE   N06
 BYTE   W06
 BYTE   N06
 BYTE   W06
 BYTE   N06
 BYTE   W06
 BYTE   PEND 
//  #09 //138   ----------------------------------------
 BYTE   PATT
  POIN2 Label_0119A7AC
//  #09 //139   ----------------------------------------
 BYTE   EOT
 BYTE   Cn1  v042
 BYTE   TIE  Cn1  v104
 BYTE   N18  Dn1
 BYTE   TIE  Fs1
 BYTE   W18
 BYTE   N06  Dn1
 BYTE   W06
 BYTE   N06
 BYTE   W06
 BYTE   N06
 BYTE   W06
 BYTE   N18
 BYTE   W12
//  #09 //140   ----------------------------------------
 BYTE   PATT
  POIN2 Label_0119A8DC
//  #09 //141   ----------------------------------------
 BYTE   EOT
 BYTE   Cn1  v042
 BYTE   N36  Cn1  v104
 BYTE   N06  Dn1
 BYTE   N36  Fs1
 BYTE   W06
 BYTE   N06  Dn1
 BYTE   W06
 BYTE   N06
 BYTE   W06
 BYTE   N06
 BYTE   W06
 BYTE   N06
 BYTE   W06
 BYTE   N06
 BYTE   W06
//  #09 //142   ----------------------------------------
 BYTE   PATT
  POIN2 Label_0119A903
//  #09 //143   ----------------------------------------
 BYTE   PATT
  POIN2 Label_0119A7AC
//  #09 //144   ----------------------------------------
 BYTE   EOT
 BYTE   Cn1  v042
 BYTE   N54  Cn1  v104
 BYTE   N18  Dn1
 BYTE   N54  Fs1
 BYTE   W18
 BYTE   N06  Dn1
 BYTE   W06
 BYTE   N06
 BYTE   W06
 BYTE   N06
 BYTE   W06
 BYTE   N18
 BYTE   W12
 BYTE   W06
 BYTE   N90  Cn1
 BYTE   N06  Dn1
 BYTE   N90  Fs1
 BYTE   W06
 BYTE   N06  Dn1
 BYTE   W06
 BYTE   N06
 BYTE   W06
 BYTE   N18
 BYTE   W18
 BYTE   N06
 BYTE   W06
//  #09 //145   ----------------------------------------
 BYTE   N06
 BYTE   W06
 BYTE   EOT
 BYTE   Cn2
 BYTE   N06  Dn1
 BYTE   N06  Cn2
 BYTE   W06
 BYTE   Dn1
 BYTE   TIE  Cn2
 BYTE   W06
 BYTE   N06  Dn1
 BYTE   W06
 BYTE   EOT
 BYTE   An1
 BYTE   N06  Dn1
 BYTE   TIE  An1
 BYTE   W06
 BYTE   N06  Dn1
 BYTE   W06
 BYTE   EOT
 BYTE   Fn1
 BYTE   N06  Dn1
 BYTE   TIE  Fn1
 BYTE   W06
 BYTE   N06  Dn1
 BYTE   W06
 BYTE   N54  Cn1
 BYTE   N18  Dn1
 BYTE   N54  Fs1
 BYTE   W18
 BYTE   N06  Dn1
 BYTE   W06
 BYTE   N06
 BYTE   W06
 BYTE   N06
 BYTE   W06
 BYTE   N18
 BYTE   W18
//  #09 //146   ----------------------------------------
 BYTE   N90  Cn1
 BYTE   N06  Dn1
 BYTE   N90  Fs1
 BYTE   W06
 BYTE   N06  Dn1
 BYTE   W06
 BYTE   N06
 BYTE   W06
 BYTE   N06
 BYTE   W06
 BYTE   N06
 BYTE   W06
 BYTE   N06
 BYTE   W06
 BYTE   N06
 BYTE   W06
 BYTE   N06
 BYTE   W06
 BYTE   EOT
 BYTE   Cn2
 BYTE   N06  Dn1
 BYTE   N06  Cn2
 BYTE   W06
 BYTE   Dn1
 BYTE   TIE  Cn2
 BYTE   W06
 BYTE   N06  Dn1
 BYTE   W06
 BYTE   EOT
 BYTE   An1
 BYTE   N06  Dn1
 BYTE   TIE  An1
 BYTE   W06
 BYTE   N06  Dn1
 BYTE   W06
 BYTE   EOT
 BYTE   Fn1
 BYTE   N06  Dn1
 BYTE   TIE  Fn1
 BYTE   W06
 BYTE   N06  Dn1
 BYTE   W06
 BYTE   TIE  Cn1
 BYTE   N18  Dn1
 BYTE   TIE  Fs1
 BYTE   W18
//  #09 //147   ----------------------------------------
 BYTE   N06  Dn1
 BYTE   W06
 BYTE   N06
 BYTE   W06
 BYTE   N06
 BYTE   W06
 BYTE   EOT
 BYTE   Dn2
 BYTE   N18  Dn1
 BYTE   N72  Dn2
 BYTE   W12
 BYTE   EOT
 BYTE   Bn1
 BYTE   N72
 BYTE   W06
 BYTE   N06  Dn1
 BYTE   W06
 BYTE   EOT
 BYTE   Gn1
 BYTE   N06  Dn1
 BYTE   N72  Gn1
 BYTE   W06
 BYTE   N06  Dn1
 BYTE   W06
 BYTE   N18
 BYTE   W18
 BYTE   N06
 BYTE   W06
 BYTE   N06
 BYTE   W06
 BYTE   N06
 BYTE   W06
 BYTE   EOT
 BYTE   Cn1  v042
 BYTE   N36  Cn1
 BYTE   N06  Dn1
 BYTE   N36  Fs1
 BYTE   N72  Dn2
 BYTE   W06
//  #09 //148   ----------------------------------------
 BYTE   N06  Dn1
 BYTE   W06
 BYTE   N06
 BYTE   N72  Bn1
 BYTE   W06
 BYTE   N06  Dn1
 BYTE   W06
 BYTE   N06
 BYTE   N72  Gn1
 BYTE   W06
 BYTE   N06  Dn1
 BYTE   W06
 BYTE   N72  Cn1
 BYTE   N18  Dn1
 BYTE   TIE  Fs1
 BYTE   W18
 BYTE   N06  Dn1
 BYTE   W06
 BYTE   N06
 BYTE   W06
 BYTE   N06
 BYTE   W06
 BYTE   N18
 BYTE   N72  Dn2
 BYTE   W12
 BYTE   Bn1
 BYTE   W06
 BYTE   N06  Dn1
 BYTE   W06
 BYTE   N06
 BYTE   N12  Gn1
 BYTE   W06
//  #09 //149   ----------------------------------------
 BYTE   N06  Dn1
 BYTE   W06
 BYTE   TIE  Cn1
 BYTE   N72  Dn1
 BYTE   N60  Gn1
 BYTE   W23
 BYTE   EOT
 BYTE   An2
 BYTE   W01
 BYTE   N02
 BYTE   W02
 BYTE   N03
 BYTE   W03
 BYTE   N02
 BYTE   W01
 BYTE   EOT
 BYTE   Cn2
 BYTE   TIE
 BYTE   W02
 BYTE   N03  An2
 BYTE   W03
 BYTE   N02
 BYTE   W01
 BYTE   TIE  Dn2
 BYTE   W02
 BYTE   N03  An2
 BYTE   W03
 BYTE   N02
 BYTE   W03
 BYTE   N03
 BYTE   W03
 BYTE   N02
 BYTE   W01
 BYTE   TIE  Bn1
 BYTE   W02
 BYTE   N03  An2
 BYTE   W03
 BYTE   N02
 BYTE   W03
 BYTE   N03
 BYTE   W03
 BYTE   N02
 BYTE   W01
 BYTE   TIE  Gn1
 BYTE   W02
 BYTE   N03  An2
 BYTE   W03
 BYTE   N02
 BYTE   W03
 BYTE   TIE
 BYTE   W04
 BYTE   EOT
 BYTE   Fs1
 BYTE   N18  Dn1
 BYTE   N72  Fs1
 BYTE   W18
//  #09 //150   ----------------------------------------
 BYTE   N06  Dn1
 BYTE   W06
 BYTE   N06
 BYTE   W06
 BYTE   N06
 BYTE   W06
 BYTE   N18
 BYTE   W12
Label_0119AAA6:
 BYTE   W06
 BYTE   N06  Dn1  v104
 BYTE   W06
 BYTE   N06
 BYTE   W06
 BYTE   N06
 BYTE   W06
 BYTE   N18
 BYTE   N72  Fs1
 BYTE   W18
 BYTE   N06  Dn1
 BYTE   W06
 BYTE   N06
 BYTE   W06
 BYTE   N06
 BYTE   W06
 BYTE   N06
 BYTE   W06
//  #09 //151   ----------------------------------------
 BYTE   N06
 BYTE   W06
 BYTE   N06
 BYTE   W06
 BYTE   N06
 BYTE   W06
 BYTE   N06
 BYTE   W06
 BYTE   N06
 BYTE   W06
 BYTE   PEND 
Label_0119AAC7:
 BYTE   N18  Dn1  v104
 BYTE   N72  Fs1
 BYTE   W18
 BYTE   N06  Dn1
 BYTE   W06
 BYTE   N06
 BYTE   W06
 BYTE   N06
 BYTE   W06
 BYTE   N18
 BYTE   W18
 BYTE   N06
 BYTE   W06
 BYTE   N06
 BYTE   W06
//  #09 //152   ----------------------------------------
 BYTE   N06
 BYTE   W06
 BYTE   N12
 BYTE   N72  Fs1
 BYTE   W12
 BYTE   N06  Dn1
 BYTE   W06
 BYTE   N18
 BYTE   W06
 BYTE   PEND 
Label_0119AAE6:
 BYTE   W12
 BYTE   N06  Dn1  v104
 BYTE   W06
 BYTE   N06
 BYTE   W06
 BYTE   N06
 BYTE   W06
 BYTE   N06
 BYTE   W06
 BYTE   N06
 BYTE   W06
 BYTE   N06
 BYTE   W06
 BYTE   N18
 BYTE   N72  Fs1
 BYTE   W18
//  #09 //153   ----------------------------------------
 BYTE   N06  Dn1
 BYTE   W06
 BYTE   N06
 BYTE   W06
 BYTE   N06
 BYTE   W06
 BYTE   N18
 BYTE   W12
 BYTE   PEND 
//  #09 //154   ----------------------------------------
 BYTE   PATT
  POIN2 Label_0119AAA6
//  #09 //155   ----------------------------------------
 BYTE   PATT
  POIN2 Label_0119AAC7
//  #09 //156   ----------------------------------------
 BYTE   PATT
  POIN2 Label_0119AAE6
//  #09 //157   ----------------------------------------
 BYTE   PATT
  POIN2 Label_0119AAA6
//  #09 //158   ----------------------------------------
 BYTE   PATT
  POIN2 Label_0119AAC7
//  #09 //159   ----------------------------------------
 BYTE   PATT
  POIN2 Label_0119AAE6
//  #09 //160   ----------------------------------------
 BYTE   PATT
  POIN2 Label_0119AAA6
//  #09 //161   ----------------------------------------
 BYTE   N18  Dn1  v104
 BYTE   N72  Fs1
 BYTE   W18
 BYTE   N18  Dn1
 BYTE   W18
 BYTE   N06
 BYTE   W06
 BYTE   N06
 BYTE   W06
 BYTE   N06
 BYTE   W06
 BYTE   N18
 BYTE   W18
 BYTE   N06
 BYTE   TIE  Fs1
 BYTE   W06
 BYTE   N06  Dn1
 BYTE   W06
 BYTE   N06
 BYTE   W06
 BYTE   N06
 BYTE   W05
 BYTE   EOT
 BYTE   An2
 BYTE   W01
//  #09 //162   ----------------------------------------
 BYTE   N06  Dn1
 BYTE   N02  An2
 BYTE   W02
 BYTE   N03
 BYTE   W03
 BYTE   N02
 BYTE   W01
 BYTE   N06  Dn1
 BYTE   W02
 BYTE   N03  An2
 BYTE   W03
 BYTE   N02
 BYTE   W01
 BYTE   N06  Dn1
 BYTE   W02
 BYTE   N03  An2
 BYTE   W03
 BYTE   N02
 BYTE   W01
 BYTE   N06  Dn1
 BYTE   W02
 BYTE   N03  An2
 BYTE   W03
 BYTE   N02
 BYTE   W01
 BYTE   N06  Dn1
 BYTE   W02
 BYTE   N03  An2
 BYTE   W03
 BYTE   N02
 BYTE   W01
 BYTE   N06  Dn1
 BYTE   W02
 BYTE   N03  An2
 BYTE   W03
 BYTE   N02
 BYTE   W01
 BYTE   N06  Dn1
 BYTE   W02
 BYTE   N03  An2
 BYTE   W03
 BYTE   N02
 BYTE   W01
 BYTE   N06  Dn1
 BYTE   W02
 BYTE   TIE  An2
 BYTE   W04
 BYTE   EOT
 BYTE   Cn1  v044
 BYTE   TIE  Cn1
 BYTE   N24  Dn1
 BYTE   TIE  Gs1
 BYTE   W24
 BYTE   N06  Dn1
 BYTE   W06
 BYTE   N06
 BYTE   W06
 BYTE   N12
 BYTE   W12
//  #09 //163   ----------------------------------------
Label_0119AB95:
 BYTE   N12  Dn1  v104
 BYTE   W12
 BYTE   N06
 BYTE   W06
 BYTE   N06
 BYTE   W06
 BYTE   N24
 BYTE   W24
 BYTE   N06
 BYTE   W06
 BYTE   N06
 BYTE   W06
 BYTE   N06
 BYTE   W06
 BYTE   N06
 BYTE   W06
 BYTE   N06
 BYTE   W06
 BYTE   N06
 BYTE   W06
 BYTE   N06
 BYTE   W06
 BYTE   N06
 BYTE   W06
 BYTE   PEND 
//  #09 //164   ----------------------------------------
 BYTE   EOT
 BYTE   Cn1  v044
Label_0119ABB3:
 BYTE   TIE  Cn1  v104
 BYTE   N24  Dn1
 BYTE   TIE  Gs1
 BYTE   W24
 BYTE   N06  Dn1
 BYTE   W06
 BYTE   N06
 BYTE   W06
 BYTE   N24
 BYTE   W24
 BYTE   N06
 BYTE   W06
 BYTE   N06
 BYTE   W06
 BYTE   N24
 BYTE   W24
 BYTE   PEND 
//  #09 //165   ----------------------------------------
 BYTE   PATT
  POIN2 Label_0119A7AC
//  #09 //166   ----------------------------------------
 BYTE   EOT
 BYTE   Cn1  v044
 BYTE   TIE  Cn1  v104
 BYTE   N24  Dn1
 BYTE   TIE  Gs1
 BYTE   W24
 BYTE   N06  Dn1
 BYTE   W06
 BYTE   N06
 BYTE   W06
 BYTE   N12
 BYTE   W12
//  #09 //167   ----------------------------------------
 BYTE   PATT
  POIN2 Label_0119AB95
//  #09 //168   ----------------------------------------
 BYTE   EOT
 BYTE   Cn1  v044
//  #09 //169   ----------------------------------------
 BYTE   PATT
  POIN2 Label_0119ABB3
//  #09 //170   ----------------------------------------
 BYTE   PATT
  POIN2 Label_0119A7AC
//  #09 //171   ----------------------------------------
 BYTE   EOT
 BYTE   Cn1  v044
 BYTE   TIE  Cn1  v104
 BYTE   N24  Dn1
 BYTE   TIE  Gs1
 BYTE   W24
 BYTE   N06  Dn1
 BYTE   W06
 BYTE   N06
 BYTE   W06
 BYTE   N12
 BYTE   W12
//  #09 //172   ----------------------------------------
 BYTE   PATT
  POIN2 Label_0119AB95
//  #09 //173   ----------------------------------------
 BYTE   EOT
 BYTE   Cn1  v044
Label_0119AC0C:
 BYTE   TIE  Cn1  v104
 BYTE   N24  Dn1
 BYTE   TIE  Gs1
 BYTE   W24
 BYTE   N06  Dn1
 BYTE   W06
 BYTE   N06
 BYTE   W06
 BYTE   N12
 BYTE   W12
 BYTE   N12
 BYTE   W12
 BYTE   N06
 BYTE   W06
 BYTE   N06
 BYTE   W06
 BYTE   N24
 BYTE   W24
 BYTE   PEND 
//  #09 //174   ----------------------------------------
Label_0119AC24:
 BYTE   N06  Dn1  v104
 BYTE   W06
 BYTE   N06
 BYTE   W06
 BYTE   PEND 
 BYTE   EOT
 BYTE   Gs1
 BYTE   N06  Dn1
 BYTE   N36  Gs1
 BYTE   W06
 BYTE   N06  Dn1
 BYTE   W06
 BYTE   N06
 BYTE   W06
 BYTE   N06
 BYTE   W06
 BYTE   N06
 BYTE   W06
 BYTE   N06
 BYTE   W06
 BYTE   EOT
 BYTE   Cn1
 BYTE   TIE
 BYTE   N24  Dn1
 BYTE   TIE  Gs1
 BYTE   W24
 BYTE   N06  Dn1
 BYTE   W06
 BYTE   N06
 BYTE   W06
 BYTE   N12
 BYTE   W12
//  #09 //175   ----------------------------------------
 BYTE   PATT
  POIN2 Label_0119AB95
//  #09 //176   ----------------------------------------
 BYTE   EOT
 BYTE   Cn1  v044
//  #09 //177   ----------------------------------------
 BYTE   PATT
  POIN2 Label_0119AC0C
//  #09 //178   ----------------------------------------
Label_0119AC59:
 BYTE   N06  Dn1  v104
 BYTE   W06
 BYTE   N06
 BYTE   W05
 BYTE   PEND 
 BYTE   EOT
 BYTE   An2
 BYTE   W01
 BYTE   N06  Dn1
 BYTE   N02  An2
 BYTE   W02
 BYTE   N03
 BYTE   W03
 BYTE   N03
 BYTE   W01
 BYTE   N06  Dn1
 BYTE   W02
 BYTE   N03  An2
 BYTE   W03
 BYTE   N02
 BYTE   W01
 BYTE   N06  Dn1
 BYTE   W02
 BYTE   N03  An2
 BYTE   W03
 BYTE   N03
 BYTE   W01
 BYTE   N06  Dn1
 BYTE   W02
 BYTE   N03  An2
 BYTE   W03
 BYTE   N02
 BYTE   W01
 BYTE   N06  Dn1
 BYTE   W02
 BYTE   N03  An2
 BYTE   W03
 BYTE   N03
 BYTE   W01
 BYTE   N06  Dn1
 BYTE   W02
 BYTE   TIE  An2
 BYTE   W04
 BYTE   EOT
 BYTE   Cn1  v044
 BYTE   TIE  Cn1
 BYTE   N24  Dn1
 BYTE   TIE  Gs1
 BYTE   W24
 BYTE   N06  Dn1
 BYTE   W06
 BYTE   N06
 BYTE   W06
 BYTE   N12
 BYTE   W12
//  #09 //179   ----------------------------------------
 BYTE   N12
 BYTE   W12
 BYTE   N06
 BYTE   W06
 BYTE   N06
 BYTE   W06
 BYTE   N24
 BYTE   W24
 BYTE   N06
 BYTE   W06
 BYTE   N06
 BYTE   W06
 BYTE   EOT
 BYTE   Cn1  v042
 BYTE   N36  Cn1
 BYTE   N06  Dn1
 BYTE   W06
 BYTE   N06
 BYTE   W06
 BYTE   N06
 BYTE   W06
 BYTE   N06
 BYTE   W06
 BYTE   N06
 BYTE   W06
 BYTE   N06
 BYTE   W06
//  #09 //180   ----------------------------------------
 BYTE   EOT
 BYTE   Gs1
//  #09 //181   ----------------------------------------
 BYTE   PATT
  POIN2 Label_0119ABB3
//  #09 //182   ----------------------------------------
 BYTE   N06  Dn1  v104
 BYTE   W06
 BYTE   EOT
 BYTE   Bn1
 BYTE   N06  Dn1
 BYTE   N06  Bn1
 BYTE   W06
 BYTE   Dn1
 BYTE   TIE  Bn1
 BYTE   W06
 BYTE   N06  Dn1
 BYTE   W06
 BYTE   N06
 BYTE   W06
 BYTE   EOT
 BYTE   Fn1
 BYTE   N06  Dn1
 BYTE   N72  Fn1
 BYTE   W06
 BYTE   N06  Dn1
 BYTE   W06
 BYTE   N06
 BYTE   W06
 BYTE   EOT
 BYTE   Cn1
 BYTE   N54
 BYTE   N18  Dn1
 BYTE   W18
 BYTE   N06
 BYTE   W06
 BYTE   N06
 BYTE   W06
 BYTE   N06
 BYTE   W03
 BYTE   EOT
 BYTE   Cn2
 BYTE   N03
 BYTE   W03
 BYTE   EOT
 BYTE   Gs1
 BYTE   N18  Dn1
 BYTE   N36  Gs1
 BYTE   N36  Cn2
 BYTE   W12
//  #09 //183   ----------------------------------------
 BYTE   W06
 BYTE   N18  Cn1
 BYTE   N06  Dn1
 BYTE   TIE  Fn1
 BYTE   W06
 BYTE   N06  Dn1
 BYTE   W06
 BYTE   N06
 BYTE   W06
 BYTE   N18  Cn1
 BYTE   N06  Dn1
 BYTE   N18  Gs1
 BYTE   N68  Cn2
 BYTE   W06
 BYTE   N06  Dn1
 BYTE   W06
 BYTE   N06
 BYTE   W06
 BYTE   N18  Cn1
 BYTE   N06  Dn1
 BYTE   N54  Gs1
 BYTE   W06
 BYTE   N06  Dn1
 BYTE   W06
 BYTE   N06
 BYTE   W06
 BYTE   N54  Cn1
 BYTE   N18  Dn1
 BYTE   W18
 BYTE   N06
 BYTE   W06
 BYTE   N06
 BYTE   W06
 BYTE   N06
 BYTE   W03
 BYTE   N03  Cn2
 BYTE   W03
//  #09 //184   ----------------------------------------
 BYTE   N18  Dn1
 BYTE   N36  Gs1
 BYTE   N36  Cn2
 BYTE   W18
 BYTE   EOT
 BYTE   Fn1
 BYTE   N18  Cn1
 BYTE   N06  Dn1
 BYTE   TIE  Fn1
 BYTE   W06
 BYTE   N06  Dn1
 BYTE   W06
 BYTE   N06
 BYTE   W06
 BYTE   N18  Cn1
 BYTE   N06  Dn1
 BYTE   N18  Gs1
 BYTE   N68  Cn2
 BYTE   W06
 BYTE   N06  Dn1
 BYTE   W06
 BYTE   N06
 BYTE   W06
 BYTE   N18  Cn1
 BYTE   N06  Dn1
 BYTE   N54  Gs1
 BYTE   W06
 BYTE   N06  Dn1
 BYTE   W06
 BYTE   N06
 BYTE   W06
 BYTE   N54  Cn1
 BYTE   N18  Dn1
 BYTE   W18
 BYTE   N06
 BYTE   W06
//  #09 //185   ----------------------------------------
 BYTE   N06
 BYTE   W06
 BYTE   N06
 BYTE   W03
 BYTE   N03  Cn2
 BYTE   W03
 BYTE   N18  Dn1
 BYTE   N36  Gs1
 BYTE   N36  Cn2
 BYTE   W18
 BYTE   EOT
 BYTE   Fn1
 BYTE   N18  Cn1
 BYTE   N06  Dn1
 BYTE   TIE  Fn1
 BYTE   W06
 BYTE   N06  Dn1
 BYTE   W06
 BYTE   N06
 BYTE   W06
 BYTE   N18  Cn1
 BYTE   N06  Dn1
 BYTE   N18  Gs1
 BYTE   N68  Cn2
 BYTE   W06
 BYTE   N06  Dn1
 BYTE   W06
 BYTE   N06
 BYTE   W06
 BYTE   N18  Cn1
 BYTE   N06  Dn1
 BYTE   N54  Gs1
 BYTE   W06
 BYTE   N06  Dn1
 BYTE   W06
 BYTE   N06
 BYTE   W06
 BYTE   N54  Cn1
 BYTE   N18  Dn1
 BYTE   W12
//  #09 //186   ----------------------------------------
 BYTE   PATT
  POIN2 Label_0119A1D6
//  #09 //187   ----------------------------------------
 BYTE   EOT
 BYTE   Fn1
 BYTE   N18  Cn1  v104
 BYTE   N06  Dn1
 BYTE   TIE  Fn1
 BYTE   W06
 BYTE   N06  Dn1
 BYTE   W06
 BYTE   N06
 BYTE   W05
 BYTE   EOT
 BYTE   An2
 BYTE   W01
 BYTE   N18  Cn1
 BYTE   N06  Dn1
 BYTE   N18  Gs1
 BYTE   N68  Cn2
 BYTE   N02  An2
 BYTE   W02
 BYTE   N03
 BYTE   W03
 BYTE   N03
 BYTE   W01
 BYTE   N06  Dn1
 BYTE   W02
 BYTE   N03  An2
 BYTE   W03
 BYTE   N02
 BYTE   W01
 BYTE   N06  Dn1
 BYTE   W02
 BYTE   N03  An2
 BYTE   W03
 BYTE   N03
 BYTE   W01
 BYTE   N18  Cn1
 BYTE   N06  Dn1
 BYTE   N54  Gs1
 BYTE   W02
 BYTE   N03  An2
 BYTE   W03
 BYTE   N02
 BYTE   W01
 BYTE   N06  Dn1
 BYTE   W02
 BYTE   N03  An2
 BYTE   W03
 BYTE   N03
 BYTE   W01
 BYTE   N06  Dn1
 BYTE   W02
 BYTE   TIE  An2
 BYTE   W04
//  #09 //188   ----------------------------------------
 BYTE   PATT
  POIN2 Label_0119A212
//  #09 //189   ----------------------------------------
 BYTE   EOT
 BYTE   Fn1
 BYTE   N18  Cn1  v104
 BYTE   N06  Dn1
 BYTE   TIE  Fn1
 BYTE   W06
 BYTE   N06  Dn1
 BYTE   W06
 BYTE   N06
 BYTE   W06
 BYTE   N18  Cn1
 BYTE   N06  Dn1
 BYTE   N18  Gs1
 BYTE   N68  Cn2
 BYTE   W06
 BYTE   N06  Dn1
 BYTE   W06
 BYTE   N06
 BYTE   W06
 BYTE   N18  Cn1
 BYTE   N06  Dn1
 BYTE   N54  Gs1
 BYTE   W06
//  #09 //190   ----------------------------------------
 BYTE   PATT
  POIN2 Label_0119A24C
//  #09 //191   ----------------------------------------
 BYTE   EOT
 BYTE   Fn1
 BYTE   N18  Cn1  v104
 BYTE   N06  Dn1
 BYTE   TIE  Fn1
 BYTE   W06
 BYTE   N06  Dn1
 BYTE   W06
 BYTE   N06
 BYTE   W06
 BYTE   N18  Cn1
 BYTE   N06  Dn1
 BYTE   N18  Gs1
 BYTE   N68  Cn2
 BYTE   W06
 BYTE   N06  Dn1
 BYTE   W06
 BYTE   N06
 BYTE   W06
 BYTE   N18  Cn1
 BYTE   N06  Dn1
 BYTE   N54  Gs1
 BYTE   W06
 BYTE   N06  Dn1
 BYTE   W06
 BYTE   N06
 BYTE   W06
 BYTE   N54  Cn1
 BYTE   N18  Dn1
 BYTE   W18
 BYTE   N06
 BYTE   W06
 BYTE   N06
 BYTE   W06
 BYTE   N06
 BYTE   W03
 BYTE   N03  Cn2
 BYTE   W03
 BYTE   N18  Dn1
 BYTE   N36  Gs1
 BYTE   N36  Cn2
 BYTE   W18
//  #09 //192   ----------------------------------------
 BYTE   EOT
 BYTE   Fn1
 BYTE   N18  Cn1
 BYTE   N06  Dn1
 BYTE   TIE  Fn1
 BYTE   W06
 BYTE   N06  Dn1
 BYTE   W06
 BYTE   N06
 BYTE   W05
 BYTE   EOT
 BYTE   An2
 BYTE   W01
 BYTE   N18  Cn1
 BYTE   N06  Dn1
 BYTE   N18  Gs1
 BYTE   TIE  Cn2
 BYTE   N02  An2
 BYTE   W02
 BYTE   N03
 BYTE   W03
 BYTE   N03
 BYTE   W01
 BYTE   N06  Dn1
 BYTE   W02
 BYTE   N03  An2
 BYTE   W03
 BYTE   N02
 BYTE   W01
 BYTE   N06  Dn1
 BYTE   W02
 BYTE   N03  An2
 BYTE   W03
 BYTE   N03
 BYTE   W01
 BYTE   N18  Cn1
 BYTE   N06  Dn1
 BYTE   TIE  Gs1
 BYTE   W02
 BYTE   N03  An2
 BYTE   W03
 BYTE   N02
 BYTE   W01
 BYTE   N06  Dn1
 BYTE   W02
 BYTE   N03  An2
 BYTE   W03
 BYTE   N03
 BYTE   W01
 BYTE   N06  Dn1
 BYTE   W02
 BYTE   N72  An2
 BYTE   W04
 BYTE   TIE  Cn1
 BYTE   TIE  Dn1
 BYTE   W60
//  #09 //193   ----------------------------------------
 BYTE   W12
 BYTE   N02  An2
 BYTE   W02
 BYTE   N03
 BYTE   W03
 BYTE   N03
 BYTE   W03
 BYTE   N03
 BYTE   W03
 BYTE   N02
 BYTE   W03
 BYTE   N03
 BYTE   W03
 BYTE   N03
 BYTE   W03
 BYTE   N03
 BYTE   W03
 BYTE   N02
 BYTE   W03
 BYTE   N03
 BYTE   W03
 BYTE   N03
 BYTE   W03
 BYTE   TIE
 BYTE   W04
 BYTE   EOT
 BYTE   Cn1  v038
 BYTE   Gs1
 BYTE   TIE  Cn1
 BYTE   N18  Dn1
 BYTE   TIE  Gs1
 BYTE   W18
 BYTE   N06  Dn1
 BYTE   W06
 BYTE   N06
 BYTE   W06
 BYTE   N06
 BYTE   W06
 BYTE   N18
 BYTE   W12
//  #09 //194   ----------------------------------------
 BYTE   PATT
  POIN2 Label_0119A8DC
//  #09 //195   ----------------------------------------
 BYTE   EOT
 BYTE   Gs1  v048
 BYTE   N06  Dn1  v104
 BYTE   N36  Gs1
 BYTE   TIE  Cn2
 BYTE   W06
 BYTE   N06  Dn1
 BYTE   W06
 BYTE   N06
 BYTE   W06
 BYTE   N06
 BYTE   W06
 BYTE   N06
 BYTE   W06
 BYTE   N06
 BYTE   W06
 BYTE   EOT
 BYTE   Cn1
Label_0119AEFD:
 BYTE   TIE  Cn1  v104
 BYTE   N18  Dn1
 BYTE   TIE  Gs1
 BYTE   W18
 BYTE   N06  Dn1
 BYTE   W06
 BYTE   N06
 BYTE   W06
 BYTE   N06
 BYTE   W06
 BYTE   N18
 BYTE   W18
 BYTE   N06
 BYTE   W06
//  #09 //196   ----------------------------------------
 BYTE   N06
 BYTE   W06
 BYTE   N06
 BYTE   W06
 BYTE   N18
 BYTE   W18
 BYTE   N06
 BYTE   W06
 BYTE   PEND 
//  #09 //197   ----------------------------------------
 BYTE   PATT
  POIN2 Label_0119AC24
//  #09 //198   ----------------------------------------
 BYTE   EOT
 BYTE   Gs1  v048
 BYTE   N06  Dn1  v104
 BYTE   N36  Gs1
 BYTE   TIE  Cn2
 BYTE   W06
 BYTE   N06  Dn1
 BYTE   W06
 BYTE   N06
 BYTE   W06
 BYTE   N06
 BYTE   W06
 BYTE   N06
 BYTE   W06
 BYTE   N06
 BYTE   W06
 BYTE   EOT
 BYTE   Cn1
 BYTE   TIE
 BYTE   N18  Dn1
 BYTE   N72  Gs1
 BYTE   W18
 BYTE   N06  Dn1
 BYTE   W06
 BYTE   N06
 BYTE   W06
 BYTE   N06
 BYTE   W06
 BYTE   N18
 BYTE   W12
Label_0119AF45:
 BYTE   W06
 BYTE   N06  Dn1  v104
 BYTE   W06
//  #09 //199   ----------------------------------------
 BYTE   N06
 BYTE   W06
 BYTE   N06
 BYTE   W06
 BYTE   N18
 BYTE   N72  Gs1
 BYTE   W18
 BYTE   N06  Dn1
 BYTE   W06
 BYTE   N06
 BYTE   W06
 BYTE   N06
 BYTE   W06
 BYTE   PEND 
 BYTE   EOT
 BYTE   Cn2
 BYTE   N06  Dn1
 BYTE   TIE  Cn2
 BYTE   W06
 BYTE   N06  Dn1
 BYTE   W06
 BYTE   N06
 BYTE   W06
 BYTE   N06
 BYTE   W06
 BYTE   N06
 BYTE   W06
 BYTE   N06
 BYTE   W06
 BYTE   EOT
 BYTE   Cn1
//  #09 //200   ----------------------------------------
 BYTE   PATT
  POIN2 Label_0119A78A
//  #09 //201   ----------------------------------------
 BYTE   PATT
  POIN2 Label_0119AC24
//  #09 //202   ----------------------------------------
 BYTE   EOT
 BYTE   Cn2
 BYTE   N06  Dn1  v104
 BYTE   TIE  Cn2
 BYTE   W06
 BYTE   N06  Dn1
 BYTE   W06
 BYTE   EOT
 BYTE   An1
 BYTE   N06  Dn1
 BYTE   TIE  An1
 BYTE   W06
 BYTE   N06  Dn1
 BYTE   W06
 BYTE   EOT
 BYTE   Fn1
 BYTE   N06  Dn1
 BYTE   TIE  Fn1
 BYTE   W06
 BYTE   N06  Dn1
 BYTE   W06
 BYTE   EOT
 BYTE   Cn1  v044
 BYTE   N54  Cn1
 BYTE   N18  Dn1
 BYTE   N54  Gs1
 BYTE   W18
 BYTE   N06  Dn1
 BYTE   W06
 BYTE   N06
 BYTE   W06
 BYTE   N06
 BYTE   W06
 BYTE   N18
 BYTE   W12
 BYTE   W06
 BYTE   N90  Cn1
 BYTE   N18  Dn1
 BYTE   N90  Gs1
 BYTE   W18
//  #09 //203   ----------------------------------------
 BYTE   N06  Dn1
 BYTE   W06
 BYTE   N06
 BYTE   W06
 BYTE   N06
 BYTE   W06
 BYTE   N18
 BYTE   W18
 BYTE   EOT
 BYTE   Cn2
 BYTE   N06  Dn1
 BYTE   TIE  Cn2
 BYTE   W06
 BYTE   N06  Dn1
 BYTE   W06
 BYTE   N06
 BYTE   W06
 BYTE   N06
 BYTE   W06
 BYTE   N06
 BYTE   W06
 BYTE   N06
 BYTE   W06
 BYTE   N54  Cn1
 BYTE   N18  Dn1
 BYTE   N54  Gs1
 BYTE   W18
 BYTE   N06  Dn1
 BYTE   W06
//  #09 //204   ----------------------------------------
 BYTE   N06
 BYTE   W06
 BYTE   N06
 BYTE   W06
 BYTE   N18
 BYTE   W18
 BYTE   N90  Cn1
 BYTE   N18  Dn1
 BYTE   N90  Gs1
 BYTE   W18
 BYTE   N06  Dn1
 BYTE   W06
 BYTE   N06
 BYTE   W06
 BYTE   N06
 BYTE   W06
 BYTE   N18
 BYTE   W06
 BYTE   W12
 BYTE   EOT
 BYTE   Cn2
 BYTE   N06  Dn1
 BYTE   TIE  Cn2
 BYTE   W06
 BYTE   N06  Dn1
 BYTE   W06
//  #09 //205   ----------------------------------------
 BYTE   N06
 BYTE   W06
 BYTE   N06
 BYTE   W06
 BYTE   N06
 BYTE   W06
 BYTE   N06
 BYTE   W06
 BYTE   TIE  Cn1
 BYTE   N18  Dn1
 BYTE   TIE  Gs1
 BYTE   W18
 BYTE   N06  Dn1
 BYTE   W06
 BYTE   N06
 BYTE   W06
 BYTE   N06
 BYTE   W06
 BYTE   N18
 BYTE   W12
 BYTE   W06
 BYTE   N06
 BYTE   W06
 BYTE   N06
 BYTE   W06
 BYTE   N06
 BYTE   W06
//  #09 //206   ----------------------------------------
 BYTE   N12
 BYTE   W12
 BYTE   N06
 BYTE   W06
 BYTE   EOT
 BYTE   Gn1
 BYTE   N18  Dn1
 BYTE   TIE  Gn1
 BYTE   W18
 BYTE   EOT
 BYTE   Gs1  v048
 BYTE   N06  Dn1
 BYTE   N36  Gs1
 BYTE   TIE  Cn2
 BYTE   W06
 BYTE   N06  Dn1
 BYTE   W06
 BYTE   N06
 BYTE   W06
 BYTE   N06
 BYTE   W06
 BYTE   N06
 BYTE   W06
 BYTE   N06
 BYTE   W06
 BYTE   EOT
 BYTE   Cn1
 BYTE   N72
 BYTE   N18  Dn1
 BYTE   N72  Gs1
 BYTE   W18
 BYTE   N06  Dn1
 BYTE   W06
//  #09 //207   ----------------------------------------
 BYTE   N06
 BYTE   W06
 BYTE   N06
 BYTE   W06
 BYTE   EOT
 BYTE   Dn2
 BYTE   N18  Dn1
 BYTE   TIE  Dn2
 BYTE   W18
 BYTE   EOT
 BYTE   Gn1
 BYTE   N06  Dn1
 BYTE   N18  Gn1
 BYTE   W06
 BYTE   N06  Dn1
 BYTE   W06
 BYTE   N06
 BYTE   W06
 BYTE   N72  Cn1
 BYTE   N12  Dn1
 BYTE   TIE  Gn1
 BYTE   N72  Gs1
 BYTE   W12
 BYTE   N06  Dn1
 BYTE   W06
 BYTE   N12
 BYTE   W06
 BYTE   W06
 BYTE   EOT
 BYTE   Bn1
 BYTE   N06  Dn1
 BYTE   W06
 BYTE   EOT
 BYTE   Cn2
 BYTE   N12  Dn1
 BYTE   TIE  Cn2
 BYTE   W12
//  #09 //208   ----------------------------------------
 BYTE   EOT
 BYTE   An1
 BYTE   N12  Dn1
 BYTE   TIE  An1
 BYTE   W12
 BYTE   EOT
 BYTE   Fn1
 BYTE   N12  Dn1
 BYTE   TIE  Fn1
 BYTE   W12
 BYTE   Cn1
 BYTE   N18  Dn1
 BYTE   TIE  Gs1
 BYTE   W18
 BYTE   N06  Dn1
 BYTE   W06
 BYTE   N06
 BYTE   W06
 BYTE   N06
 BYTE   W06
 BYTE   N18
 BYTE   W12
//  #09 //209   ----------------------------------------
 BYTE   PATT
  POIN2 Label_0119A8DC
//  #09 //210   ----------------------------------------
 BYTE   EOT
 BYTE   Gs1  v048
 BYTE   N06  Dn1  v104
 BYTE   N36  Gs1
 BYTE   TIE  Cn2
 BYTE   W06
 BYTE   N06  Dn1
 BYTE   W06
 BYTE   N06
 BYTE   W06
 BYTE   N06
 BYTE   W06
 BYTE   N06
 BYTE   W06
 BYTE   N06
 BYTE   W06
 BYTE   EOT
 BYTE   Cn1
//  #09 //211   ----------------------------------------
 BYTE   PATT
  POIN2 Label_0119AEFD
//  #09 //212   ----------------------------------------
 BYTE   PATT
  POIN2 Label_0119AC24
//  #09 //213   ----------------------------------------
 BYTE   EOT
 BYTE   Gs1  v048
 BYTE   N06  Dn1  v104
 BYTE   N36  Gs1
 BYTE   TIE  Cn2
 BYTE   W06
 BYTE   N06  Dn1
 BYTE   W06
 BYTE   N06
 BYTE   W06
 BYTE   N06
 BYTE   W06
 BYTE   N06
 BYTE   W06
 BYTE   N06
 BYTE   W06
 BYTE   EOT
 BYTE   Cn1
 BYTE   TIE
 BYTE   N18  Dn1
 BYTE   N72  Gs1
 BYTE   W18
 BYTE   N06  Dn1
 BYTE   W06
 BYTE   N06
 BYTE   W06
 BYTE   N06
 BYTE   W06
 BYTE   N18
 BYTE   W12
//  #09 //214   ----------------------------------------
 BYTE   PATT
  POIN2 Label_0119AF45
//  #09 //215   ----------------------------------------
 BYTE   EOT
 BYTE   Cn2
 BYTE   N06  Dn1  v104
 BYTE   TIE  Cn2
 BYTE   W06
 BYTE   N06  Dn1
 BYTE   W06
 BYTE   N06
 BYTE   W06
 BYTE   N06
 BYTE   W06
 BYTE   N06
 BYTE   W06
 BYTE   N06
 BYTE   W06
 BYTE   EOT
 BYTE   Cn1
//  #09 //216   ----------------------------------------
 BYTE   PATT
  POIN2 Label_0119A78A
//  #09 //217   ----------------------------------------
 BYTE   PATT
  POIN2 Label_0119AC24
//  #09 //218   ----------------------------------------
 BYTE   EOT
 BYTE   Cn2
 BYTE   N06  Dn1  v104
 BYTE   TIE  Cn2
 BYTE   W06
 BYTE   N06  Dn1
 BYTE   W06
 BYTE   EOT
 BYTE   An1
 BYTE   N06  Dn1
 BYTE   TIE  An1
 BYTE   W06
 BYTE   N06  Dn1
 BYTE   W06
 BYTE   EOT
 BYTE   Fn1
 BYTE   N06  Dn1
 BYTE   TIE  Fn1
 BYTE   W06
 BYTE   N06  Dn1
 BYTE   W06
 BYTE   EOT
 BYTE   Gs1
 BYTE   TIE  Dn1
 BYTE   TIE  Gs1
 BYTE   W48
 BYTE   W24
//  #09 //219   ----------------------------------------
 BYTE   EOT
 BYTE   Cs1
 BYTE   N72
 BYTE   W72
 BYTE   N72
 BYTE   W72
//  #09 //220   ----------------------------------------
 BYTE   TIE
 BYTE   W24
 BYTE   W11
 BYTE   EOT
 BYTE   An2
 BYTE   W01
 BYTE   Cn2
 BYTE   TIE
 BYTE   N02  An2
 BYTE   W02
 BYTE   N03
 BYTE   W03
 BYTE   N03
 BYTE   W01
 BYTE   EOT
 BYTE   Gn1
 BYTE   TIE
 BYTE   W02
 BYTE   N03  An2
 BYTE   W03
 BYTE   N02
 BYTE   W01
 BYTE   EOT
 BYTE   Fn1
 BYTE   N18
 BYTE   W02
 BYTE   N03  An2
 BYTE   W03
 BYTE   N03
 BYTE   W01
 BYTE   EOT
 BYTE   Dn2
 BYTE   W02
 BYTE   N03  An2
 BYTE   W03
 BYTE   N02
 BYTE   W01
 BYTE   EOT
 BYTE   An1
 BYTE   W02
 BYTE   N03  An2
 BYTE   W03
 BYTE   N03
 BYTE   W03
 BYTE   TIE
 BYTE   W04
 BYTE   EOT
 BYTE   Cn1  v038
 BYTE   N54  Cn1
 BYTE   N18  Dn1
 BYTE   W18
 BYTE   N06
 BYTE   W06
//  #09 //221   ----------------------------------------
 BYTE   N06
 BYTE   W06
 BYTE   N06
 BYTE   W06
 BYTE   N18
 BYTE   W12
 BYTE   W06
 BYTE   N54  Cn1
 BYTE   N06  Dn1
 BYTE   W06
 BYTE   N06
 BYTE   W06
 BYTE   N06
 BYTE   W06
 BYTE   N18
 BYTE   W18
 BYTE   EOT
 BYTE   Gn1
 BYTE   N06  Dn1
 BYTE   TIE  Gn1
 BYTE   W06
 BYTE   N06  Dn1
 BYTE   W06
 BYTE   N06
 BYTE   W06
 BYTE   EOT
 BYTE   Gs1  v048
 BYTE   N36  Cn1
 BYTE   N06  Dn1
 BYTE   N36  Gs1
 BYTE   TIE  Cn2
 BYTE   W06
 BYTE   N06  Dn1
 BYTE   W06
//  #09 //222   ----------------------------------------
 BYTE   N06
 BYTE   W06
 BYTE   N06
 BYTE   W06
 BYTE   N06
 BYTE   W06
 BYTE   N06
 BYTE   W06
 BYTE   N54  Cn1
 BYTE   N18  Dn1
 BYTE   TIE  Gs1
 BYTE   W18
 BYTE   N06  Dn1
 BYTE   W06
 BYTE   N06
 BYTE   W06
 BYTE   N06
 BYTE   W06
 BYTE   N18
 BYTE   W18
 BYTE   N54  Cn1
 BYTE   N06  Dn1
 BYTE   W06
 BYTE   N06
 BYTE   W06
 BYTE   N06
 BYTE   W06
//  #09 //223   ----------------------------------------
 BYTE   N18
 BYTE   W18
 BYTE   EOT
 BYTE   Gn1
 BYTE   N06  Dn1
 BYTE   W06
//  #09 //224   ----------------------------------------
 BYTE   PATT
  POIN2 Label_0119AC59
//  #09 //225   ----------------------------------------
 BYTE   EOT
 BYTE   An2
 BYTE   W01
 BYTE   Gs1  v048
 BYTE   TIE  Cn1  v104
 BYTE   N06  Dn1
 BYTE   N36  Gs1
 BYTE   N02  An2
 BYTE   W02
 BYTE   N03
 BYTE   W03
 BYTE   N03
 BYTE   W01
 BYTE   N06  Dn1
 BYTE   W02
 BYTE   N03  An2
 BYTE   W03
 BYTE   N02
 BYTE   W01
 BYTE   N06  Dn1
 BYTE   W02
 BYTE   N03  An2
 BYTE   W03
 BYTE   N03
 BYTE   W01
 BYTE   N06  Dn1
 BYTE   W02
 BYTE   N03  An2
 BYTE   W03
 BYTE   N02
 BYTE   W01
 BYTE   N06  Dn1
 BYTE   W02
 BYTE   N03  An2
 BYTE   W03
 BYTE   N03
 BYTE   W01
 BYTE   N06  Dn1
 BYTE   W02
 BYTE   TIE  An2
 BYTE   W04
 BYTE   N24  Dn1
 BYTE   TIE  Gs1
 BYTE   W24
 BYTE   N06  Dn1
 BYTE   W06
 BYTE   N06
 BYTE   W06
 BYTE   N24
 BYTE   W12
 BYTE   W12
//  #09 //226   ----------------------------------------
 BYTE   N06
 BYTE   W06
 BYTE   N06
 BYTE   W06
 BYTE   EOT
 BYTE   Cs1
 BYTE   N72
 BYTE   N24  Dn1
 BYTE   W24
 BYTE   N06
 BYTE   W06
 BYTE   N06
 BYTE   W06
 BYTE   N09
 BYTE   W09
 BYTE   N09
 BYTE   W09
 BYTE   N06
 BYTE   W06
 BYTE   N06
 BYTE   W06
 BYTE   N06
 BYTE   W06
 BYTE   N72  Cs1
 BYTE   N24  Dn1
 BYTE   W24
//  #09 //227   ----------------------------------------
 BYTE   N06
 BYTE   W06
 BYTE   N06
 BYTE   W06
 BYTE   N24
 BYTE   W24
 BYTE   N06
 BYTE   W06
 BYTE   N06
 BYTE   W06
 BYTE   N72  Cs1
 BYTE   N24  Dn1
 BYTE   W24
 BYTE   N06
 BYTE   W06
 BYTE   N06
 BYTE   W06
 BYTE   N09
 BYTE   W09
 BYTE   N09
 BYTE   W09
//  #09 //228   ----------------------------------------
 BYTE   N06
 BYTE   W06
 BYTE   N06
 BYTE   W06
 BYTE   N06
 BYTE   W06
 BYTE   EOT
 BYTE   En1
 BYTE   N72  Dn1
 BYTE   W48
 BYTE   W24
 BYTE   EOT
 BYTE   Cn1  v044
 BYTE   TIE  Cn1
 BYTE   N18  Dn1
 BYTE   TIE  Gs1
 BYTE   W18
//  #09 //229   ----------------------------------------
 BYTE   N06  Dn1
 BYTE   W06
 BYTE   N06
 BYTE   W06
 BYTE   N06
 BYTE   W06
 BYTE   N18
 BYTE   W18
 BYTE   N06
 BYTE   W06
 BYTE   N06
 BYTE   W06
 BYTE   N06
 BYTE   W06
 BYTE   N18
 BYTE   W18
 BYTE   N06
 BYTE   W06
 BYTE   N06
 BYTE   W06
 BYTE   N06
 BYTE   W06
 BYTE   N06
 BYTE   W06
//  #09 //230   ----------------------------------------
 BYTE   N06
 BYTE   W06
 BYTE   N06
 BYTE   W06
 BYTE   N06
 BYTE   W06
 BYTE   N06
 BYTE   W06
 BYTE   N06
 BYTE   W06
 BYTE   EOT
 BYTE   Cn1  v044
 BYTE   N36  Cn1
 BYTE   N18  Dn1
 BYTE   N36  Gs1
 BYTE   W18
 BYTE   N06  Dn1
 BYTE   W06
 BYTE   N06
 BYTE   W06
 BYTE   N06
 BYTE   W06
 BYTE   TIE  Cn1
 BYTE   N18  Dn1
 BYTE   TIE  Gs1
 BYTE   W18
 BYTE   N06  Dn1
 BYTE   W06
 BYTE   N06
 BYTE   W06
//  #09 //231   ----------------------------------------
 BYTE   N06
 BYTE   W06
 BYTE   N18
 BYTE   W18
 BYTE   N06
 BYTE   W06
 BYTE   N06
 BYTE   W06
 BYTE   N06
 BYTE   W06
 BYTE   N06
 BYTE   W06
 BYTE   N06
 BYTE   W06
//  #09 //232   ----------------------------------------
 BYTE   PATT
  POIN2 Label_01199C94
//  #09 //233   ----------------------------------------
 BYTE   EOT
 BYTE   Cn1  v044
 BYTE   TIE  Cn1  v104
 BYTE   N18  Dn1
 BYTE   TIE  Gs1
 BYTE   W18
 BYTE   N06  Dn1
 BYTE   W06
 BYTE   N06
 BYTE   W06
 BYTE   N06
 BYTE   W06
 BYTE   N18
 BYTE   W18
 BYTE   N06
 BYTE   W06
 BYTE   N06
 BYTE   W06
 BYTE   N06
 BYTE   W06
 BYTE   N18
 BYTE   W18
 BYTE   N12
 BYTE   W12
//  #09 //234   ----------------------------------------
 BYTE   N03
 BYTE   W03
 BYTE   N03
 BYTE   W03
 BYTE   N06
 BYTE   W06
 BYTE   N06
 BYTE   W06
 BYTE   N06
 BYTE   W06
 BYTE   N06
 BYTE   W06
 BYTE   N06
 BYTE   W06
 BYTE   N06
 BYTE   W06
 BYTE   EOT
 BYTE   Cn1  v044
 BYTE   N54  Cn1
 BYTE   N18  Dn1
 BYTE   N54  Gs1
 BYTE   W18
 BYTE   N06  Dn1
 BYTE   W06
 BYTE   N06
 BYTE   W06
 BYTE   N06
 BYTE   W06
 BYTE   N18
 BYTE   W18
//  #09 //235   ----------------------------------------
 BYTE   N18
 BYTE   W18
 BYTE   N06
 BYTE   W06
 BYTE   N06
 BYTE   W06
 BYTE   N06
 BYTE   W06
 BYTE   N18
 BYTE   W17
 BYTE   EOT
 BYTE   An2
 BYTE   W01
 BYTE   N06  Dn1
 BYTE   N02  An2
 BYTE   W02
 BYTE   N03
 BYTE   W03
 BYTE   N03
 BYTE   W01
 BYTE   N06  Dn1
 BYTE   W02
 BYTE   N03  An2
 BYTE   W03
 BYTE   N02
 BYTE   W01
 BYTE   N06  Dn1
 BYTE   W02
 BYTE   N03  An2
 BYTE   W03
 BYTE   N03
 BYTE   W01
 BYTE   N06  Dn1
 BYTE   W02
 BYTE   N03  An2
 BYTE   W03
 BYTE   N02
 BYTE   W01
 BYTE   N06  Dn1
 BYTE   W02
 BYTE   N03  An2
 BYTE   W03
 BYTE   N03
 BYTE   W03
 BYTE   FINE

//**************** Track 10 (Midi-Chn.9) ****************//

FireEmblemEngage_FallenPetalsNew_010:
//  #10 //000   ----------------------------------------
 BYTE   KEYSH   FireEmblemEngage_FallenPetalsNew_key+0
 BYTE   VOICE   1
 BYTE   MODT 0
 BYTE   LFOS 44
 BYTE   VOL   31*FireEmblemEngage_FallenPetalsNew_mvl/mxv
 BYTE   BENDR  12
 BYTE   PAN   c_v+0
 BYTE   W24
 BYTE   N05  Ds4  v104
 BYTE   W06
 BYTE   Dn4
 BYTE   W06
 BYTE   Bn3
 BYTE   W06
 BYTE   Gn3
 BYTE   W06
 BYTE   Ds4
 BYTE   W06
 BYTE   Dn4
 BYTE   W06
 BYTE   Bn3
 BYTE   W06
 BYTE   Gn3
 BYTE   W06
 BYTE   Ds4
 BYTE   W06
 BYTE   Dn4
 BYTE   W06
 BYTE   Bn3
 BYTE   W06
 BYTE   Gn3
 BYTE   W06
//  #10 //001   ----------------------------------------
 BYTE   Ds4
 BYTE   W06
 BYTE   Dn4
 BYTE   W06
 BYTE   Bn3
 BYTE   W06
 BYTE   Gn3
 BYTE   W06
 BYTE   Ds4
 BYTE   W06
 BYTE   Dn4
 BYTE   W06
 BYTE   As3
 BYTE   W06
 BYTE   Fn3
 BYTE   W06
 BYTE   Ds4
 BYTE   W06
 BYTE   Dn4
 BYTE   W06
 BYTE   As3
 BYTE   W06
 BYTE   Fn3
 BYTE   W06
 BYTE   Ds4
 BYTE   W06
 BYTE   Dn4
 BYTE   W06
 BYTE   As3
 BYTE   W06
 BYTE   Fn3
 BYTE   W06
//  #10 //002   ----------------------------------------
 BYTE   Ds4
 BYTE   W06
 BYTE   Dn4
 BYTE   W06
 BYTE   As3
 BYTE   W06
 BYTE   Fn3
 BYTE   W06
 BYTE   En4
 BYTE   W06
 BYTE   Ds4
 BYTE   W06
 BYTE   Cs4
 BYTE   W06
 BYTE   Gs3
 BYTE   W06
 BYTE   En4
 BYTE   W06
 BYTE   Ds4
 BYTE   W06
 BYTE   Cs4
 BYTE   W06
 BYTE   Gs3
 BYTE   W06
 BYTE   En4
 BYTE   W06
 BYTE   Ds4
 BYTE   W06
 BYTE   Cs4
 BYTE   W06
 BYTE   Gs3
 BYTE   W06
//  #10 //003   ----------------------------------------
 BYTE   En4
 BYTE   W06
 BYTE   Ds4
 BYTE   W06
 BYTE   Cs4
 BYTE   W06
 BYTE   Gs3
 BYTE   W06
 BYTE   En4
 BYTE   W06
 BYTE   Ds4
 BYTE   W06
 BYTE   Bn3
 BYTE   W06
 BYTE   Gn3
 BYTE   W06
 BYTE   En4
 BYTE   W06
 BYTE   Ds4
 BYTE   W06
 BYTE   Bn3
 BYTE   W06
 BYTE   Gn3
 BYTE   W06
 BYTE   En4
 BYTE   W06
 BYTE   Ds4
 BYTE   W06
 BYTE   Bn3
 BYTE   W06
 BYTE   Gn3
 BYTE   W06
//  #10 //004   ----------------------------------------
 BYTE   En4
 BYTE   W06
 BYTE   Ds4
 BYTE   W06
 BYTE   Bn3
 BYTE   W06
 BYTE   Gn3
 BYTE   W06
 BYTE   Dn4
 BYTE   W06
 BYTE   Cs4
 BYTE   W06
 BYTE   Gn3
 BYTE   W06
 BYTE   Dn3
 BYTE   W06
 BYTE   Dn4
 BYTE   W06
 BYTE   Cs4
 BYTE   W06
 BYTE   Gn3
 BYTE   W06
 BYTE   Dn3
 BYTE   W06
 BYTE   Dn4
 BYTE   W06
 BYTE   Cs4
 BYTE   W06
 BYTE   Gn3
 BYTE   W06
 BYTE   Dn3
 BYTE   W06
//  #10 //005   ----------------------------------------
 BYTE   Dn4
 BYTE   W06
 BYTE   Cs4
 BYTE   W06
 BYTE   Gn3
 BYTE   W06
 BYTE   Dn3
 BYTE   W78
//  #10 //006   ----------------------------------------
 BYTE   N11  Dn4
 BYTE   W12
 BYTE   En4
 BYTE   W12
 BYTE   N44  Fn4
 BYTE   W48
 BYTE   Gn4
 BYTE   W24
//  #10 //007   ----------------------------------------
 BYTE   W24
 BYTE   Gs4
 BYTE   W48
 BYTE   N92  Cs5
 BYTE   W24
//  #10 //008   ----------------------------------------
 BYTE   W24
 BYTE   W08
 BYTE   N07  Fs6
 BYTE   W08
 BYTE   En6
 BYTE   W08
 BYTE   N01  Gn3
 BYTE   N03  Ds6
 BYTE   W02
 BYTE   N01  Cn3
 BYTE   W01
 BYTE   N03  As5
 BYTE   W01
 BYTE   N01  Fn3
 BYTE   W02
 BYTE   Gs2
 BYTE   N03  Cs6
 BYTE   W02
 BYTE   N01  Cs3
 BYTE   W02
 BYTE   Gn2
 BYTE   N03  Fn5
 BYTE   W02
 BYTE   N01  Cn3
 BYTE   W01
 BYTE   N03  Gn5
 BYTE   W01
 BYTE   N01  Ds2
 BYTE   W02
 BYTE   Fn2
 BYTE   W01
 BYTE   N03  En5
 BYTE   W01
 BYTE   N01  Cn2
 BYTE   W02
 BYTE   As2
 BYTE   N03  En4
 BYTE   W02
 BYTE   N01  En2
 BYTE   W02
 BYTE   N05  Gn1
 BYTE   TIE  Cn5
 BYTE   W06
 BYTE   N05  Cn2
 BYTE   W06
 BYTE   Fn2
 BYTE   W06
 BYTE   Gs2
 BYTE   W06
//  #10 //009   ----------------------------------------
 BYTE   Cn3
 BYTE   W06
 BYTE   Ds3
 BYTE   W06
 BYTE   Fn1
 BYTE   W06
 BYTE   Cn2
 BYTE   W06
 BYTE   Fn2
 BYTE   W01
 BYTE   W05
 BYTE   Gs2
 BYTE   W01
 BYTE   W05
 BYTE   Cn3
 BYTE   W01
 BYTE   W05
 BYTE   Ds3
 BYTE   W01
 BYTE   W05
 BYTE   Gn3
 BYTE   W01
 BYTE   W05
 BYTE   Ds3
 BYTE   W01
 BYTE   W05
 BYTE   Cn3
 BYTE   W01
 BYTE   W05
 BYTE   Ds3
 BYTE   W01
 BYTE   W05
 BYTE   Cn3
 BYTE   W02
 BYTE   W04
 BYTE   Gs2
 BYTE   W02
 BYTE   W04
 BYTE   Fn2
 BYTE   W02
 BYTE   W04
 BYTE   Gs2
 BYTE   W02
 BYTE   W04
//  #10 //010   ----------------------------------------
 BYTE   As2
 BYTE   W02
 BYTE   W04
 BYTE   Cn3
 BYTE   W02
 BYTE   W04
 BYTE   Gs2
 BYTE   W02
 BYTE   W04
 BYTE   Fn2
 BYTE   W02
 BYTE   W04
 BYTE   Fn1
 BYTE   W03
 BYTE   W03
 BYTE   Cn2
 BYTE   W03
 BYTE   W03
 BYTE   Fn2
 BYTE   W03
 BYTE   W03
 BYTE   Gs2
 BYTE   W03
 BYTE   W03
 BYTE   Cn3
 BYTE   W03
 BYTE   W03
 BYTE   Cs3
 BYTE   W03
 BYTE   W03
 BYTE   Fn1
 BYTE   W03
 BYTE   W03
 BYTE   Cn2
 BYTE   W04
 BYTE   W02
 BYTE   Fn2
 BYTE   W04
 BYTE   W02
 BYTE   Gs2
 BYTE   W04
 BYTE   W02
 BYTE   Cn3
 BYTE   W04
 BYTE   W02
 BYTE   Cs3
 BYTE   W04
 BYTE   W02
//  #10 //011   ----------------------------------------
 BYTE   Gn3
 BYTE   W04
 BYTE   W02
 BYTE   Cs3
 BYTE   W04
 BYTE   W02
 BYTE   Cn3
 BYTE   W04
 BYTE   W02
 BYTE   Cs3
 BYTE   W05
 BYTE   W01
 BYTE   Cn3
 BYTE   W05
 BYTE   W01
 BYTE   Gs2
 BYTE   W05
 BYTE   W01
 BYTE   Fn2
 BYTE   W05
 BYTE   W01
 BYTE   Cs2
 BYTE   W05
 BYTE   W01
 BYTE   Cn2
 BYTE   W05
 BYTE   W01
 BYTE   Gs1
 BYTE   W05
 BYTE   W01
 BYTE   Fn1
 BYTE   W05
 BYTE   W01
 BYTE   Cs2
 BYTE   W05
 BYTE   EOT
 BYTE   Cn5
 BYTE   W01
 BYTE   N05  Fn1
 BYTE   W06
 BYTE   Cn2
 BYTE   W06
 BYTE   Fn2
 BYTE   W06
 BYTE   Gs2
 BYTE   W06
//  #10 //012   ----------------------------------------
 BYTE   Cn3
 BYTE   W06
 BYTE   Fn3
 BYTE   W06
 BYTE   Fn1
 BYTE   W06
 BYTE   Cn2
 BYTE   W06
 BYTE   Fn2
 BYTE   W06
 BYTE   Gs2
 BYTE   W06
 BYTE   Cn3
 BYTE   W06
 BYTE   Fn3
 BYTE   W06
 BYTE   Gs3
 BYTE   W06
 BYTE   Fn3
 BYTE   W06
 BYTE   Cn3
 BYTE   W06
 BYTE   Gs2
 BYTE   W06
 BYTE   Fn2
 BYTE   W06
 BYTE   Cn2
 BYTE   W06
 BYTE   Fn1
 BYTE   W06
 BYTE   Cn2
 BYTE   W06
//  #10 //013   ----------------------------------------
 BYTE   Fn2
 BYTE   W06
 BYTE   Gs2
 BYTE   W06
 BYTE   As2
 BYTE   W06
 BYTE   Cn3
 BYTE   W06
 BYTE   Gn1
 BYTE   W06
 BYTE   As1
 BYTE   W06
 BYTE   En2
 BYTE   W06
 BYTE   Gn2
 BYTE   W06
 BYTE   Cn3
 BYTE   W06
 BYTE   Cs3
 BYTE   W06
 BYTE   Gn1
 BYTE   W06
 BYTE   As1
 BYTE   W06
 BYTE   En2
 BYTE   W06
 BYTE   Gn2
 BYTE   W06
 BYTE   Cn3
 BYTE   W06
 BYTE   Cs3
 BYTE   W06
//  #10 //014   ----------------------------------------
 BYTE   En3
 BYTE   W06
 BYTE   Gn3
 BYTE   W06
 BYTE   As3
 BYTE   W06
 BYTE   Gn3
 BYTE   W06
 BYTE   En3
 BYTE   W06
 BYTE   Gn3
 BYTE   W06
 BYTE   En3
 BYTE   W06
 BYTE   Cn3
 BYTE   W06
 BYTE   En3
 BYTE   W06
 BYTE   Cn3
 BYTE   W06
 BYTE   Gn2
 BYTE   W06
 BYTE   En2
 BYTE   W06
 BYTE   Gs1
 BYTE   W06
 BYTE   Cn2
 BYTE   W06
 BYTE   Fn2
 BYTE   W06
 BYTE   Gs2
 BYTE   W06
//  #10 //015   ----------------------------------------
 BYTE   Cn3
 BYTE   W06
 BYTE   Ds3
 BYTE   W06
 BYTE   Gs1
 BYTE   W06
 BYTE   Cn2
 BYTE   W06
 BYTE   Fn2
 BYTE   W06
 BYTE   Gs2
 BYTE   W06
 BYTE   Cn3
 BYTE   W06
 BYTE   Fn3
 BYTE   W06
 BYTE   Cn4
 BYTE   W06
 BYTE   Gs3
 BYTE   W06
 BYTE   Fn3
 BYTE   W06
 BYTE   Gs3
 BYTE   W06
 BYTE   Fn3
 BYTE   W06
 BYTE   Cn3
 BYTE   W06
 BYTE   Gs2
 BYTE   W06
 BYTE   Cn3
 BYTE   W06
//  #10 //016   ----------------------------------------
 BYTE   Fn3
 BYTE   W06
 BYTE   Gs3
 BYTE   W06
 BYTE   Fn3
 BYTE   W06
 BYTE   Cn3
 BYTE   W06
 BYTE   An1
 BYTE   W06
 BYTE   Fn2
 BYTE   W06
 BYTE   An2
 BYTE   W06
 BYTE   Cn3
 BYTE   W06
 BYTE   Fn3
 BYTE   W06
 BYTE   An3
 BYTE   W06
 BYTE   An1
 BYTE   N18  Cn3
 BYTE   W06
 BYTE   N05  Fn2
 BYTE   W06
 BYTE   An2
 BYTE   W06
 BYTE   Cn3
 BYTE   W06
 BYTE   Fn3
 BYTE   W06
 BYTE   Cs4
 BYTE   W06
//  #10 //017   ----------------------------------------
 BYTE   N12  Fn3
 BYTE   N05  Cn4
 BYTE   W06
 BYTE   An3
 BYTE   W06
 BYTE   Fn3
 BYTE   W06
 BYTE   Cn3
 BYTE   W06
 BYTE   Fn3
 BYTE   W06
 BYTE   An3
 BYTE   W06
 BYTE   An1
 BYTE   W06
 BYTE   Fn2
 BYTE   W06
 BYTE   An2
 BYTE   W06
 BYTE   Cn3
 BYTE   N17  Cn4
 BYTE   W06
 BYTE   N05  Fn3
 BYTE   W06
 BYTE   An3
 BYTE   W06
 BYTE   As1
 BYTE   N68  Cn4
 BYTE   W06
 BYTE   N05  Cs2
 BYTE   W06
 BYTE   Fn2
 BYTE   W06
 BYTE   As2
 BYTE   W06
//  #10 //018   ----------------------------------------
 BYTE   Cs3
 BYTE   W06
 BYTE   Fn3
 BYTE   W06
 BYTE   Cs3
 BYTE   W06
 BYTE   Fn3
 BYTE   W06
 BYTE   As3
 BYTE   W06
 BYTE   Cs4
 BYTE   W06
 BYTE   Fn4
 BYTE   W06
 BYTE   As4
 BYTE   W06
 BYTE   N24  As3
 BYTE   N05  Cs5
 BYTE   W06
 BYTE   As4
 BYTE   W06
 BYTE   Fn4
 BYTE   W06
 BYTE   Cs4
 BYTE   W06
 BYTE   As3
 BYTE   W06
 BYTE   Fn3
 BYTE   W06
 BYTE   Cs3
 BYTE   W06
 BYTE   As2
 BYTE   W06
//  #10 //019   ----------------------------------------
 BYTE   Fn2
 BYTE   W06
 BYTE   Cs2
 BYTE   W06
 BYTE   As1
 BYTE   W06
 BYTE   Fn1
 BYTE   W06
 BYTE   Bn1
 BYTE   N68  Gs3
 BYTE   W06
 BYTE   N05  Dn2
 BYTE   W06
 BYTE   Fs2
 BYTE   W06
 BYTE   Bn2
 BYTE   W06
 BYTE   Dn3
 BYTE   W06
 BYTE   Fs3
 BYTE   W06
 BYTE   Dn3
 BYTE   W06
 BYTE   Fs3
 BYTE   W06
 BYTE   Bn3
 BYTE   W06
 BYTE   Dn4
 BYTE   W06
 BYTE   Fs4
 BYTE   W06
 BYTE   Bn4
 BYTE   W06
//  #10 //020   ----------------------------------------
 BYTE   N44  Gn3
 BYTE   N05  Dn5
 BYTE   W06
 BYTE   Bn4
 BYTE   W06
 BYTE   Fs4
 BYTE   W06
 BYTE   Dn4
 BYTE   W06
 BYTE   Bn3
 BYTE   W06
 BYTE   Fs3
 BYTE   W06
 BYTE   Dn3
 BYTE   W06
 BYTE   Bn2
 BYTE   W06
 BYTE   Fs2
 BYTE   N11  Fn3
 BYTE   W06
 BYTE   N05  Dn2
 BYTE   W06
 BYTE   Bn1
 BYTE   N11  Gn3
 BYTE   W06
 BYTE   N05  Fs1
 BYTE   W06
 BYTE   Fn3
 BYTE   N06  Gs3
 BYTE   W06
 BYTE   N05
 BYTE   W06
 BYTE   Fn3
 BYTE   W06
 BYTE   Gs3
 BYTE   W06
//  #10 //021   ----------------------------------------
 BYTE   Fn3
 BYTE   W06
 BYTE   Cn3
 BYTE   W06
 BYTE   Fn3
 BYTE   W06
 BYTE   Gs3
 BYTE   W06
 BYTE   As3
 BYTE   W06
 BYTE   Cn4
 BYTE   W06
 BYTE   Gs3
 BYTE   W06
 BYTE   Fn3
 BYTE   W06
 BYTE   Fn4
 BYTE   W06
 BYTE   Cn4
 BYTE   W06
 BYTE   Gs3
 BYTE   W06
 BYTE   Cn4
 BYTE   W06
 BYTE   Gs3
 BYTE   W06
 BYTE   Fn3
 BYTE   W06
 BYTE   Cn3
 BYTE   N32  As3
 BYTE   W06
 BYTE   N05  Gs3
 BYTE   W06
//  #10 //022   ----------------------------------------
 BYTE   Fn3
 BYTE   W06
 BYTE   Cn4
 BYTE   W06
 BYTE   Gs3
 BYTE   W06
 BYTE   Fn3
 BYTE   W06
 BYTE   Cn3
 BYTE   N18  Gn3
 BYTE   W06
 BYTE   N05  En3
 BYTE   W06
 BYTE   Fn3
 BYTE   W06
 BYTE   Gn3
 BYTE   W06
 BYTE   Gs3
 BYTE   W06
 BYTE   As3
 BYTE   W06
 BYTE   Gn3
 BYTE   W06
 BYTE   Gs3
 BYTE   W06
 BYTE   Cn4
 BYTE   W06
 BYTE   Fn4
 BYTE   W06
 BYTE   Cn5
 BYTE   W06
 BYTE   Fn5
 BYTE   W06
//  #10 //023   ----------------------------------------
 BYTE   N02  Cn6
 BYTE   W03
 BYTE   As5
 BYTE   W03
 BYTE   Gn5
 BYTE   W03
 BYTE   En5
 BYTE   W03
 BYTE   Cn5
 BYTE   W03
 BYTE   As4
 BYTE   W03
 BYTE   Gn4
 BYTE   W03
 BYTE   En4
 BYTE   W03
 BYTE   Cs4
 BYTE   W03
 BYTE   Cn4
 BYTE   W03
 BYTE   As3
 BYTE   W03
 BYTE   Gn3
 BYTE   W03
 BYTE   En3
 BYTE   W03
 BYTE   Cs3
 BYTE   W03
 BYTE   Cn3
 BYTE   W03
 BYTE   As2
 BYTE   W03
 BYTE   Gn2
 BYTE   W03
 BYTE   Fn2
 BYTE   W03
 BYTE   En2
 BYTE   W03
 BYTE   Cs2
 BYTE   W03
 BYTE   Cn2
 BYTE   W03
 BYTE   As1
 BYTE   W03
 BYTE   Gs1
 BYTE   W03
 BYTE   Gn1
 BYTE   W03
Label_0119B668:
 BYTE   W24
//  #10 //024   ----------------------------------------
 BYTE   W12
 BYTE   N32  Cn4  v104
 BYTE   W36
 BYTE   N52  Gs4
 BYTE   W48
//  #10 //025   ----------------------------------------
 BYTE   W06
 BYTE   N17  Fn4
 BYTE   W18
 BYTE   N68
 BYTE   W72
//  #10 //026   ----------------------------------------
 BYTE   N44  En4
 BYTE   W48
 BYTE   N11  Fn4
 BYTE   W12
 BYTE   Gn4
 BYTE   W12
 BYTE   N68
 BYTE   W24
//  #10 //027   ----------------------------------------
 BYTE   W48
 BYTE   Cn4
 BYTE   W48
//  #10 //028   ----------------------------------------
 BYTE   W60
 BYTE   N32
 BYTE   W36
//  #10 //029   ----------------------------------------
 BYTE   N52  Cn5
 BYTE   W54
 BYTE   N17  Fn5
 BYTE   W18
 BYTE   N68  Ds5
 BYTE   W24
//  #10 //030   ----------------------------------------
 BYTE   W48
 BYTE   Cs5
 BYTE   W48
//  #10 //031   ----------------------------------------
 BYTE   W24
 BYTE   Cn5
 BYTE   W72
//  #10 //032   ----------------------------------------
 BYTE   As4
 BYTE   W72
 BYTE   TIE  Cn5
 BYTE   W24
//  #10 //033   ----------------------------------------
 BYTE   W80
 BYTE   W03
 BYTE   EOT
 BYTE   W01
 BYTE   N32  Fn5
 BYTE   W12
//  #10 //034   ----------------------------------------
 BYTE   W24
 BYTE   TIE  Gn5
 BYTE   W72
//  #10 //035   ----------------------------------------
 BYTE   W32
 BYTE   W03
 BYTE   EOT
 BYTE   W60
 BYTE   W01
//  #10 //036   ----------------------------------------
 BYTE   W96
//  #10 //037   ----------------------------------------
 BYTE   W96
//  #10 //038   ----------------------------------------
 BYTE   W72
 BYTE   N68  Ds3
 BYTE   W24
//  #10 //039   ----------------------------------------
 BYTE   W66
 BYTE   N17
 BYTE   W18
 BYTE   N17
 BYTE   W12
//  #10 //040   ----------------------------------------
 BYTE   W06
 BYTE   Fn3
 BYTE   W18
 BYTE   N23  Gn3
 BYTE   W24
 BYTE   Ds3
 BYTE   W24
 BYTE   As2
 BYTE   W24
//  #10 //041   ----------------------------------------
 BYTE   Ds3
 BYTE   W24
 BYTE   As2
 BYTE   W24
 BYTE   Gn2
 BYTE   W24
 BYTE   N68  As2
 BYTE   W24
//  #10 //042   ----------------------------------------
 BYTE   W48
 BYTE   N44  Cs3
 BYTE   W48
//  #10 //043   ----------------------------------------
 BYTE   N23  Ds3
 BYTE   W24
 BYTE   N68  Fn3
 BYTE   W72
//  #10 //044   ----------------------------------------
 BYTE   Gs3
 BYTE   W72
 BYTE   TIE  Gn3
 BYTE   W24
//  #10 //045   ----------------------------------------
 BYTE   W80
 BYTE   W03
 BYTE   EOT
 BYTE   W01
 BYTE   N17
 BYTE   W12
//  #10 //046   ----------------------------------------
 BYTE   W06
 BYTE   Gs3
 BYTE   W18
 BYTE   N23  As3
 BYTE   W24
 BYTE   Fs3
 BYTE   W24
 BYTE   Fn3
 BYTE   W04
 BYTE   W05
 BYTE   W04
 BYTE   W05
 BYTE   W04
 BYTE   W02
//  #10 //047   ----------------------------------------
 BYTE   Ds3
 BYTE   W03
 BYTE   W04
 BYTE   W05
 BYTE   W04
 BYTE   W05
 BYTE   W03
 BYTE   Cs3
 BYTE   W01
 BYTE   W05
 BYTE   W04
 BYTE   W05
 BYTE   W04
 BYTE   W05
 BYTE   Cn3
 BYTE   W24
 BYTE   N68  Gs4
 BYTE   W24
//  #10 //048   ----------------------------------------
 BYTE   W48
 BYTE   N17
 BYTE   W18
 BYTE   Fs4
 BYTE   W18
 BYTE   Gs4
 BYTE   W12
//  #10 //049   ----------------------------------------
 BYTE   W06
 BYTE   Cs5
 BYTE   W18
 BYTE   Bn4
 BYTE   W18
 BYTE   Fs4
 BYTE   W18
 BYTE   N56  Ds4
 BYTE   W36
//  #10 //050   ----------------------------------------
 BYTE   W36
 BYTE   N32  En4
 BYTE   W36
 BYTE   N68  Fs4
 BYTE   W24
//  #10 //051   ----------------------------------------
 BYTE   W48
 BYTE   N17
 BYTE   W18
 BYTE   En4
 BYTE   W18
 BYTE   Fs4
 BYTE   W12
//  #10 //052   ----------------------------------------
 BYTE   W06
 BYTE   Bn4
 BYTE   W18
 BYTE   TIE  Gs4
 BYTE   W09
 BYTE   W09
 BYTE   W09
 BYTE   W09
 BYTE   W09
 BYTE   W09
 BYTE   W09
 BYTE   W09
//  #10 //053   ----------------------------------------
 BYTE   W09
 BYTE   W09
 BYTE   W09
 BYTE   W09
 BYTE   W09
 BYTE   W09
 BYTE   W09
 BYTE   W08
 BYTE   EOT
 BYTE   W01
 BYTE   N68  Gn3
 BYTE   W24
//  #10 //054   ----------------------------------------
 BYTE   W48
 BYTE   N32  En3
 BYTE   W36
 BYTE   Gn3
 BYTE   W12
//  #10 //055   ----------------------------------------
 BYTE   W24
 BYTE   TIE  Fs3
 BYTE   W54
 BYTE   N17  Fs4
 BYTE   N17  An4
 BYTE   N17  An5
 BYTE   W18
//  #10 //056   ----------------------------------------
 BYTE   An4
 BYTE   N17  Dn5
 BYTE   N17  Dn6
 BYTE   W18
 BYTE   Fs4
 BYTE   N17  An4
 BYTE   N17  An5
 BYTE   W17
 BYTE   EOT
 BYTE   Fs3
 BYTE   W01
 BYTE   N17  Fs4
 BYTE   W18
 BYTE   Gn4
 BYTE   W18
 BYTE   N68  An4
 BYTE   W24
//  #10 //057   ----------------------------------------
 BYTE   W48
 BYTE   Gs4
 BYTE   W48
//  #10 //058   ----------------------------------------
 BYTE   W60
 BYTE   N32
 BYTE   W06
 BYTE   W07
 BYTE   W07
 BYTE   W07
 BYTE   W06
 BYTE   W03
//  #10 //059   ----------------------------------------
 BYTE   N52  An4
 BYTE   W04
 BYTE   W07
 BYTE   W07
 BYTE   W06
 BYTE   W07
 BYTE   W07
 BYTE   W07
 BYTE   W06
 BYTE   W03
 BYTE   N17  Bn4
 BYTE   W04
 BYTE   W07
 BYTE   W07
 BYTE   N68
 BYTE   W24
//  #10 //060   ----------------------------------------
 BYTE   W48
 BYTE   N52  An4
 BYTE   W48
//  #10 //061   ----------------------------------------
 BYTE   W06
 BYTE   N17  En4
 BYTE   W18
 BYTE   N68  Bn4
 BYTE   W72
//  #10 //062   ----------------------------------------
 BYTE   N17  En4
 BYTE   W18
 BYTE   An4
 BYTE   W18
 BYTE   En4
 BYTE   W18
 BYTE   An4
 BYTE   W18
 BYTE   W24
//  #10 //063   ----------------------------------------
 BYTE   W96
//  #10 //064   ----------------------------------------
 BYTE   W96
//  #10 //065   ----------------------------------------
 BYTE   W96
//  #10 //066   ----------------------------------------
 BYTE   W96
//  #10 //067   ----------------------------------------
 BYTE   W96
//  #10 //068   ----------------------------------------
 BYTE   W96
//  #10 //069   ----------------------------------------
 BYTE   W48
 BYTE   TIE  As0
 BYTE   N05  As4
 BYTE   W18
 BYTE   N05
 BYTE   W06
 BYTE   N05
 BYTE   W06
 BYTE   N05
 BYTE   W06
 BYTE   N02  Ds3
 BYTE   N05  As4
 BYTE   W03
 BYTE   N02  En3
 BYTE   W03
 BYTE   Fs3
 BYTE   W03
 BYTE   Gs3
 BYTE   W03
//  #10 //070   ----------------------------------------
 BYTE   As3
 BYTE   W03
 BYTE   Bn3
 BYTE   W03
 BYTE   Cs4
 BYTE   N05  As4
 BYTE   W03
 BYTE   N02  Ds4
 BYTE   W03
 BYTE   En4
 BYTE   N05  As4
 BYTE   W03
 BYTE   N02  Fs4
 BYTE   W03
 BYTE   Gs4
 BYTE   N03  As4
 BYTE   W03
 BYTE   N02
 BYTE   W03
 BYTE   N05
 BYTE   N04  Ds5
 BYTE   W04
 BYTE   En5
 BYTE   W02
 BYTE   N05  As4
 BYTE   W03
 BYTE   N08  Ds5
 BYTE   W03
 BYTE   N05  As4
 BYTE   W06
 BYTE   N05
 BYTE   N04  Cs5
 BYTE   W04
 BYTE   Ds5
 BYTE   W02
 BYTE   N05  As4
 BYTE   W03
 BYTE   N08  Cs5
 BYTE   W03
 BYTE   N05  As4
 BYTE   W05
 BYTE   EOT
 BYTE   As0
 BYTE   W01
 BYTE   N04  Bn4
 BYTE   W04
 BYTE   Cs5
 BYTE   W05
 BYTE   N08  Bn4
 BYTE   W09
 BYTE   N04  As4
 BYTE   W04
 BYTE   Bn4
 BYTE   W05
 BYTE   N08  As4
 BYTE   W09
//  #10 //071   ----------------------------------------
 BYTE   N02  Gn4
 BYTE   W03
 BYTE   Ds4
 BYTE   W03
 BYTE   Cs4
 BYTE   W03
 BYTE   As3
 BYTE   W03
 BYTE   Gn3
 BYTE   W03
 BYTE   Ds3
 BYTE   W03
 BYTE   Cs3
 BYTE   W03
 BYTE   As2
 BYTE   W03
 BYTE   Gs2
 BYTE   W03
 BYTE   Gn2
 BYTE   W03
 BYTE   Ds2
 BYTE   W03
 BYTE   Cs2
 BYTE   W03
 BYTE   As1
 BYTE   N32  Ds4
 BYTE   N32  Ds5
 BYTE   W03
 BYTE   N02  Gn1
 BYTE   W03
 BYTE   Ds1
 BYTE   W03
 BYTE   Cs1
 BYTE   W03
 BYTE   N23  As0
 BYTE   W24
 BYTE   TIE  Bn4
 BYTE   TIE  Bn5
 BYTE   W24
//  #10 //072   ----------------------------------------
 BYTE   W80
 BYTE   W03
 BYTE   EOT
 BYTE   Bn4  v095
 BYTE   W01
 BYTE   N32  Ds4
 BYTE   N32  Ds5
 BYTE   W12
//  #10 //073   ----------------------------------------
Label_0119B833:
 BYTE   W24
 BYTE   TIE  As4  v104
 BYTE   TIE  As5
 BYTE   W72
 BYTE   PEND 
//  #10 //074   ----------------------------------------
 BYTE   W32
 BYTE   W03
 BYTE   EOT
 BYTE   As4  v094
 BYTE   W01
 BYTE   N32  Ds4
 BYTE   N32  Ds5
 BYTE   W36
 BYTE   N68  Gs4
 BYTE   N68  Gs5
 BYTE   W24
//  #10 //075   ----------------------------------------
Label_0119B84B:
 BYTE   W48
 BYTE   N17  Fs4  v104
 BYTE   N17  Fs5
 BYTE   W18
 BYTE   En4
 BYTE   N17  En5
 BYTE   W18
 BYTE   Bn3
 BYTE   N17  Bn4
 BYTE   W12
 BYTE   PEND 
//  #10 //076   ----------------------------------------
Label_0119B85B:
 BYTE   W06
 BYTE   N17  Cs4  v104
 BYTE   N17  Cs5
 BYTE   W18
 BYTE   N32  En4
 BYTE   N32  En5
 BYTE   W36
 BYTE   N92  Ds4
 BYTE   N92  Ds5
 BYTE   W36
 BYTE   PEND 
//  #10 //077   ----------------------------------------
 BYTE   W72
 BYTE   N68  Ds4
 BYTE   N68  Ds5
 BYTE   W24
//  #10 //078   ----------------------------------------
 BYTE   W12
 BYTE   N32  Gs4
 BYTE   W36
 BYTE   N17  Cs4
 BYTE   N44  Gn4
 BYTE   N17  Cs5
 BYTE   W18
 BYTE   Bn3
 BYTE   N17  Bn4
 BYTE   W18
 BYTE   Cs4
 BYTE   N17  Cs5
 BYTE   W12
//  #10 //079   ----------------------------------------
 BYTE   N11  Gs4
 BYTE   W06
 BYTE   N17  Fs4
 BYTE   N17  Fs5
 BYTE   W06
 BYTE   N11  As4
 BYTE   W12
 BYTE   N17  Ds4
 BYTE   N17  Ds5
 BYTE   W18
 BYTE   Bn3
 BYTE   N17  Bn4
 BYTE   W18
 BYTE   N68  Gs3
 BYTE   N36  Gs4
 BYTE   W36
//  #10 //080   ----------------------------------------
 BYTE   N32
 BYTE   W02
 BYTE   W02
 BYTE   W02
 BYTE   W03
 BYTE   W02
 BYTE   W02
 BYTE   W02
 BYTE   W03
 BYTE   W02
 BYTE   W02
 BYTE   W02
 BYTE   W03
 BYTE   W02
 BYTE   W02
 BYTE   W02
 BYTE   W03
 BYTE   W02
 BYTE   W02
 BYTE   W02
 BYTE   W03
 BYTE   W02
 BYTE   W02
 BYTE   W02
 BYTE   W03
 BYTE   N17  Fs3
 BYTE   N17  Fs4
 BYTE   W02
 BYTE   W02
 BYTE   W02
 BYTE   W03
 BYTE   W02
 BYTE   W02
 BYTE   W02
 BYTE   W03
 BYTE   N32  Gs3
 BYTE   N32  Gs4
 BYTE   W24
//  #10 //081   ----------------------------------------
 BYTE   W12
 BYTE   N30  Ds4
 BYTE   N88  Ds5
 BYTE   W30
 BYTE   N05  Ds4
 BYTE   W06
 BYTE   Gs4
 BYTE   W06
 BYTE   Ds4
 BYTE   W06
 BYTE   Bn3
 BYTE   W06
 BYTE   Ds4
 BYTE   W06
 BYTE   Bn3
 BYTE   W06
 BYTE   Gs3
 BYTE   W06
 BYTE   N32  Gs4
 BYTE   W12
//  #10 //082   ----------------------------------------
 BYTE   W06
 BYTE   N17  Fs3
 BYTE   N17  Fs4
 BYTE   W18
 BYTE   N32  Gs3
 BYTE   N52  En4
 BYTE   N32  Gs4
 BYTE   W36
 BYTE   N68  Ds4
 BYTE   N68  Ds5
 BYTE   W18
 BYTE   N17  Gs4
 BYTE   W18
//  #10 //083   ----------------------------------------
 BYTE   N32  Gn4
 BYTE   W36
 BYTE   Ds4
 BYTE   N32  Ds5
 BYTE   W36
 BYTE   TIE  Bn4
 BYTE   TIE  Bn5
 BYTE   W24
//  #10 //084   ----------------------------------------
 BYTE   W80
 BYTE   W03
 BYTE   EOT
 BYTE   Bn4  v095
 BYTE   W01
 BYTE   N32  Ds4
 BYTE   N32  Ds5
 BYTE   W12
//  #10 //085   ----------------------------------------
 BYTE   PATT
  POIN2 Label_0119B833
//  #10 //086   ----------------------------------------
 BYTE   W32
 BYTE   W03
 BYTE   EOT
 BYTE   As4  v094
 BYTE   W01
 BYTE   N32  Ds4  v104
 BYTE   N32  Ds5
 BYTE   W36
 BYTE   N68  Gs4
 BYTE   N68  Gs5
 BYTE   W24
//  #10 //087   ----------------------------------------
 BYTE   PATT
  POIN2 Label_0119B84B
//  #10 //088   ----------------------------------------
 BYTE   PATT
  POIN2 Label_0119B85B
//  #10 //089   ----------------------------------------
 BYTE   W72
 BYTE   N68  As2  v104
 BYTE   N68  En3
 BYTE   N68  Ds4
 BYTE   N68  Ds5
 BYTE   W03
 BYTE   As3
 BYTE   W21
//  #10 //090   ----------------------------------------
 BYTE   W48
 BYTE   Ds2
 BYTE   N32  Ds3
 BYTE   N32  Gn3
 BYTE   N17  Cs4
 BYTE   N17  Cs5
 BYTE   W18
 BYTE   Bn3
 BYTE   N17  Bn4
 BYTE   W18
 BYTE   N32  Bn3
 BYTE   N17  Cs4
 BYTE   N17  Cs5
 BYTE   W12
//  #10 //091   ----------------------------------------
 BYTE   W06
 BYTE   Fs4
 BYTE   N17  Fs5
 BYTE   W18
 BYTE   N68  Gs2
 BYTE   N68  Ds3
 BYTE   N68  Fs3
 BYTE   N17  Ds4
 BYTE   N17  Ds5
 BYTE   W18
 BYTE   Bn3
 BYTE   N17  Bn4
 BYTE   W18
 BYTE   N92  Gs3
 BYTE   N92  Gs4
 BYTE   W36
//  #10 //092   ----------------------------------------
 BYTE   N68  Cs2
 BYTE   N68  Cs3
 BYTE   N68  Fn3
 BYTE   W72
 BYTE   N04  En2
 BYTE   W04
 BYTE   Fs2
 BYTE   W05
 BYTE   Gs2
 BYTE   W04
 BYTE   Bn2
 BYTE   W05
 BYTE   Ds3
 BYTE   W04
 BYTE   En3
 BYTE   W02
//  #10 //093   ----------------------------------------
 BYTE   W03
 BYTE   Fs3
 BYTE   W04
 BYTE   Gs3
 BYTE   W05
 BYTE   Bn3
 BYTE   W04
 BYTE   Gs3
 BYTE   W05
 BYTE   Ds3
 BYTE   W04
 BYTE   Bn2
 BYTE   W05
 BYTE   Gs2
 BYTE   W04
 BYTE   Fs2
 BYTE   W05
 BYTE   Gs2
 BYTE   W04
 BYTE   Ds3
 BYTE   W05
 BYTE   Gs3
 BYTE   W04
 BYTE   Bn3
 BYTE   W05
 BYTE   Ds4
 BYTE   W04
 BYTE   Gs4
 BYTE   W05
 BYTE   Ds4
 BYTE   W04
 BYTE   Bn3
 BYTE   W05
 BYTE   Gs3
 BYTE   W04
 BYTE   Ds3
 BYTE   W05
 BYTE   Bn2
 BYTE   W04
 BYTE   Gs2
 BYTE   W05
 BYTE   Ds2
 BYTE   W03
//  #10 //094   ----------------------------------------
 BYTE   W01
 BYTE   Bn1
 BYTE   W05
 BYTE   Ds2
 BYTE   W04
 BYTE   Bn1
 BYTE   W05
 BYTE   Gs1
 BYTE   W04
 BYTE   Bn1
 BYTE   W05
 BYTE   Fs1
 BYTE   W04
 BYTE   As1
 BYTE   W05
 BYTE   Cs2
 BYTE   W04
 BYTE   En2
 BYTE   W05
 BYTE   Fs2
 BYTE   W04
 BYTE   As2
 BYTE   W05
 BYTE   Cs3
 BYTE   W04
 BYTE   Fs3
 BYTE   W05
 BYTE   As3
 BYTE   W04
 BYTE   Fs3
 BYTE   W05
 BYTE   Cs3
 BYTE   W04
 BYTE   As2
 BYTE   W05
 BYTE   Fs2
 BYTE   W04
 BYTE   En2
 BYTE   W05
 BYTE   Fs2
 BYTE   W04
 BYTE   Cs3
 BYTE   W05
//  #10 //095   ----------------------------------------
 BYTE   Fs3
 BYTE   W04
 BYTE   As3
 BYTE   W05
 BYTE   Cs4
 BYTE   W04
 BYTE   Fs4
 BYTE   W05
 BYTE   Cs4
 BYTE   W04
 BYTE   As3
 BYTE   W05
 BYTE   Fs3
 BYTE   W04
 BYTE   Cs3
 BYTE   W05
 BYTE   As2
 BYTE   W04
 BYTE   Fs2
 BYTE   W05
 BYTE   Cs2
 BYTE   W04
 BYTE   As1
 BYTE   W05
 BYTE   Cs2
 BYTE   N17  Fs4
 BYTE   W04
 BYTE   N04  As1
 BYTE   W05
 BYTE   Fs1
 BYTE   W04
 BYTE   As1
 BYTE   W05
 BYTE   N68  En2
 BYTE   N68  Bn2
 BYTE   N32  Gs4
 BYTE   W24
//  #10 //096   ----------------------------------------
 BYTE   W12
 BYTE   N68  Ds5
 BYTE   W36
 BYTE   As2
 BYTE   W48
//  #10 //097   ----------------------------------------
 BYTE   W06
 BYTE   N17  Fs4
 BYTE   W18
 BYTE   TIE  An2
 BYTE   TIE  En3
 BYTE   TIE  Cs4
 BYTE   N32  Gs4
 BYTE   W36
 BYTE   TIE  Ds5
 BYTE   W36
//  #10 //098   ----------------------------------------
 BYTE   W68
 BYTE   W03
 BYTE   EOT
 BYTE   An2  v064
 BYTE   Cs4  v087
 BYTE   W01
 BYTE   W06
 BYTE   N08  Ds6
 BYTE   W09
 BYTE   Cs6
 BYTE   W09
//  #10 //099   ----------------------------------------
 BYTE   Gs5
 BYTE   W09
 BYTE   N05  Ds5
 BYTE   W06
 BYTE   Cs5
 BYTE   W06
 BYTE   Gs4
 BYTE   W06
 BYTE   En4
 BYTE   W06
 BYTE   N02  Ds4
 BYTE   W03
 BYTE   Cs4
 BYTE   W03
 BYTE   Gs3
 BYTE   W03
 BYTE   En3
 BYTE   W03
 BYTE   Cs3
 BYTE   W03
 BYTE   N05  Fn1
 BYTE   W06
 BYTE   Cn2
 BYTE   W06
 BYTE   Fn2
 BYTE   W06
 BYTE   Gs2
 BYTE   W06
 BYTE   Cn3
 BYTE   W06
 BYTE   Ds3
 BYTE   W06
 BYTE   Fn1
 BYTE   W06
 BYTE   Cn2
 BYTE   W06
//  #10 //100   ----------------------------------------
Label_0119BA48:
 BYTE   N05  Fn2  v104
 BYTE   W06
 BYTE   Gs2
 BYTE   W06
 BYTE   Cn3
 BYTE   W06
 BYTE   Ds3
 BYTE   W06
 BYTE   Gn3
 BYTE   W06
 BYTE   Ds3
 BYTE   W06
 BYTE   Cn3
 BYTE   W06
 BYTE   Ds3
 BYTE   W06
 BYTE   Cn3
 BYTE   W06
 BYTE   Gs2
 BYTE   W06
 BYTE   Fn2
 BYTE   W06
 BYTE   Gs2
 BYTE   W06
 BYTE   As2
 BYTE   W06
 BYTE   Cn3
 BYTE   W06
 BYTE   Gs2
 BYTE   W06
 BYTE   Fn2
 BYTE   W06
 BYTE   PEND 
//  #10 //101   ----------------------------------------
 BYTE   Fn1
 BYTE   W06
 BYTE   Cn2
 BYTE   W06
 BYTE   Fn2
 BYTE   W06
 BYTE   Gs2
 BYTE   W06
 BYTE   Cn3
 BYTE   W06
 BYTE   Cs3
 BYTE   W06
 BYTE   Fn1
 BYTE   W06
 BYTE   Cn2
 BYTE   W06
 BYTE   Fn2
 BYTE   W06
 BYTE   Gs2
 BYTE   W06
 BYTE   N02  Cs2
 BYTE   N05  Cn3
 BYTE   W03
 BYTE   N02  Fn2
 BYTE   W03
 BYTE   Fs2
 BYTE   N05  Cs3
 BYTE   W03
 BYTE   N02  Gs2
 BYTE   W03
 BYTE   Cn3
 BYTE   N05  Gn3
 BYTE   W03
 BYTE   N02  Cs3
 BYTE   W03
 BYTE   N05
 BYTE   N02  Fn3
 BYTE   W03
 BYTE   Fs3
 BYTE   W03
 BYTE   N05  Cn3
 BYTE   N02  Cs4
 BYTE   W03
 BYTE   Ds4
 BYTE   W03
 BYTE   N05  Cs3
 BYTE   N02  Cs4
 BYTE   W03
 BYTE   Ds4
 BYTE   W03
//  #10 //102   ----------------------------------------
 BYTE   N05  Cn3
 BYTE   N02  Cs4
 BYTE   W03
 BYTE   Gs3
 BYTE   W03
 BYTE   N05  Gs2
 BYTE   N02  Fn3
 BYTE   W03
 BYTE   Cs3
 BYTE   W03
 BYTE   N05  Fn2
 BYTE   N02  Cn3
 BYTE   W03
 BYTE   As2
 BYTE   W03
 BYTE   Gs2
 BYTE   W03
 BYTE   Fn2
 BYTE   W03
 BYTE   Cs2
 BYTE   N05  Cn3
 BYTE   W06
 BYTE   Cs3
 BYTE   W06
 BYTE   Cn3
 BYTE   W06
 BYTE   Gs2
 BYTE   W06
 BYTE   Fn1
 BYTE   W06
 BYTE   Cn2
 BYTE   W06
 BYTE   Fn2
 BYTE   W06
 BYTE   Gs2
 BYTE   W06
 BYTE   Cn3
 BYTE   W06
 BYTE   Ds3
 BYTE   W06
 BYTE   Fn1
 BYTE   W06
 BYTE   Cn2
 BYTE   W06
//  #10 //103   ----------------------------------------
 BYTE   PATT
  POIN2 Label_0119BA48
//  #10 //104   ----------------------------------------
 BYTE   N05  Cs3  v104
 BYTE   W06
 BYTE   Gs2
 BYTE   W06
 BYTE   Fn2
 BYTE   W06
 BYTE   Gs2
 BYTE   W06
 BYTE   Fn2
 BYTE   W06
 BYTE   Gs2
 BYTE   W06
 BYTE   Gn2
 BYTE   W06
 BYTE   Gs2
 BYTE   W06
 BYTE   Fn2
 BYTE   W06
 BYTE   Cs3
 BYTE   W06
 BYTE   Gs2
 BYTE   W06
 BYTE   Fn2
 BYTE   W06
 BYTE   Gn2
 BYTE   W06
 BYTE   Gs2
 BYTE   W06
 BYTE   Fn2
 BYTE   W06
 BYTE   Gn2
 BYTE   W06
//  #10 //105   ----------------------------------------
 BYTE   Gs2
 BYTE   W06
 BYTE   Fn2
 BYTE   W06
 BYTE   Cs3
 BYTE   W06
 BYTE   Gs2
 BYTE   W06
 BYTE   Gn2
 BYTE   W06
 BYTE   Fn2
 BYTE   W06
 BYTE   Cs2
 BYTE   W06
 BYTE   As1
 BYTE   W06
 BYTE   Fn1
 BYTE   W06
 BYTE   Cn2
 BYTE   W06
 BYTE   Fn2
 BYTE   W06
 BYTE   Gs2
 BYTE   W06
 BYTE   Cn3
 BYTE   W06
 BYTE   Fn3
 BYTE   W06
 BYTE   Fn1
 BYTE   W06
 BYTE   Cn2
 BYTE   W06
//  #10 //106   ----------------------------------------
 BYTE   Fn2
 BYTE   W06
 BYTE   Gs2
 BYTE   W06
 BYTE   Cn3
 BYTE   W06
 BYTE   Fn3
 BYTE   W06
 BYTE   Gs3
 BYTE   W06
 BYTE   Fn3
 BYTE   W06
 BYTE   Cn3
 BYTE   W06
 BYTE   Gs2
 BYTE   W06
 BYTE   Fn2
 BYTE   W06
 BYTE   Cn2
 BYTE   W06
 BYTE   Fn1
 BYTE   W06
 BYTE   Cn2
 BYTE   W06
 BYTE   Fn2
 BYTE   W06
 BYTE   Gs2
 BYTE   W06
 BYTE   As2
 BYTE   W06
 BYTE   Cn3
 BYTE   W06
//  #10 //107   ----------------------------------------
 BYTE   Gn1
 BYTE   W06
 BYTE   As1
 BYTE   W06
 BYTE   En2
 BYTE   W06
 BYTE   Gn2
 BYTE   W06
 BYTE   Cn3
 BYTE   W06
 BYTE   Cs3
 BYTE   W06
 BYTE   Gn1
 BYTE   W06
 BYTE   As1
 BYTE   W06
 BYTE   En2
 BYTE   W06
 BYTE   Gn2
 BYTE   W06
 BYTE   Cn3
 BYTE   W06
 BYTE   Cs3
 BYTE   W06
 BYTE   En3
 BYTE   W06
 BYTE   Gn3
 BYTE   W06
 BYTE   As3
 BYTE   W06
 BYTE   Gn3
 BYTE   W06
//  #10 //108   ----------------------------------------
 BYTE   En3
 BYTE   W06
 BYTE   Gn3
 BYTE   W06
 BYTE   En3
 BYTE   W06
 BYTE   Cn3
 BYTE   W06
 BYTE   En3
 BYTE   W06
 BYTE   Cn3
 BYTE   W06
 BYTE   Gn2
 BYTE   W06
 BYTE   En2
 BYTE   W06
 BYTE   Gs1
 BYTE   W06
 BYTE   Cn2
 BYTE   W06
 BYTE   Fn2
 BYTE   W06
 BYTE   Gs2
 BYTE   W06
 BYTE   Cn3
 BYTE   W06
 BYTE   Ds3
 BYTE   W06
 BYTE   Gs1
 BYTE   W06
 BYTE   Cn2
 BYTE   W06
//  #10 //109   ----------------------------------------
 BYTE   Fn2
 BYTE   W06
 BYTE   Gs2
 BYTE   W06
 BYTE   Cn3
 BYTE   W06
 BYTE   Fn3
 BYTE   W06
 BYTE   Cn4
 BYTE   W06
 BYTE   Gs3
 BYTE   W06
 BYTE   Fn3
 BYTE   W06
 BYTE   Gs3
 BYTE   W06
 BYTE   Fn3
 BYTE   W06
 BYTE   Cn3
 BYTE   W06
 BYTE   Gs2
 BYTE   W06
 BYTE   Cn3
 BYTE   W06
 BYTE   Fn3
 BYTE   W06
 BYTE   Gs3
 BYTE   W06
 BYTE   Fn3
 BYTE   W06
 BYTE   Cn3
 BYTE   W06
//  #10 //110   ----------------------------------------
 BYTE   An1
 BYTE   W06
 BYTE   Fn2
 BYTE   W06
 BYTE   An2
 BYTE   W06
 BYTE   Cn3
 BYTE   W06
 BYTE   Fn3
 BYTE   W06
 BYTE   An3
 BYTE   W06
 BYTE   An1
 BYTE   N18  Cn3
 BYTE   W06
 BYTE   N05  Fn2
 BYTE   W06
 BYTE   An2
 BYTE   W06
 BYTE   Cn3
 BYTE   W06
 BYTE   Fn3
 BYTE   W06
 BYTE   Cs4
 BYTE   W06
 BYTE   N12  Fn3
 BYTE   N05  Cn4
 BYTE   W06
 BYTE   An3
 BYTE   W06
 BYTE   Fn3
 BYTE   W06
 BYTE   Cn3
 BYTE   W06
//  #10 //111   ----------------------------------------
 BYTE   Fn3
 BYTE   W06
 BYTE   An3
 BYTE   W06
 BYTE   An1
 BYTE   W06
 BYTE   Fn2
 BYTE   W06
 BYTE   An2
 BYTE   W06
 BYTE   Cn3
 BYTE   N17  Cn4
 BYTE   W06
 BYTE   N05  Fn3
 BYTE   W06
 BYTE   An3
 BYTE   W06
 BYTE   As1
 BYTE   N68  Cn4
 BYTE   W06
 BYTE   N05  Cs2
 BYTE   W06
 BYTE   Fn2
 BYTE   W06
 BYTE   As2
 BYTE   W06
 BYTE   Cs3
 BYTE   W06
 BYTE   Fn3
 BYTE   W06
 BYTE   Cs3
 BYTE   W06
 BYTE   Fn3
 BYTE   W06
//  #10 //112   ----------------------------------------
 BYTE   As3
 BYTE   W06
 BYTE   Cs4
 BYTE   W06
 BYTE   Fn4
 BYTE   W06
 BYTE   As4
 BYTE   W06
 BYTE   N24  As3
 BYTE   N05  Cs5
 BYTE   W06
 BYTE   As4
 BYTE   W06
 BYTE   Fn4
 BYTE   W06
 BYTE   Cs4
 BYTE   W06
 BYTE   As3
 BYTE   W06
 BYTE   Fn3
 BYTE   W06
 BYTE   Cs3
 BYTE   W06
 BYTE   As2
 BYTE   W06
 BYTE   Fn2
 BYTE   W06
 BYTE   Cs2
 BYTE   W06
 BYTE   As1
 BYTE   W06
 BYTE   Fn1
 BYTE   W06
//  #10 //113   ----------------------------------------
 BYTE   Bn1
 BYTE   N68  Gs3
 BYTE   W06
 BYTE   N05  Dn2
 BYTE   W06
 BYTE   Fs2
 BYTE   W06
 BYTE   Bn2
 BYTE   W06
 BYTE   Dn3
 BYTE   W06
 BYTE   Fs3
 BYTE   W06
 BYTE   Dn3
 BYTE   W06
 BYTE   Fs3
 BYTE   W06
 BYTE   Bn3
 BYTE   W06
 BYTE   Dn4
 BYTE   W06
 BYTE   Fs4
 BYTE   W06
 BYTE   Bn4
 BYTE   W06
 BYTE   N44  Gn3
 BYTE   N05  Dn5
 BYTE   W06
 BYTE   Bn4
 BYTE   W06
 BYTE   Fs4
 BYTE   W06
 BYTE   Dn4
 BYTE   W06
//  #10 //114   ----------------------------------------
 BYTE   Bn3
 BYTE   W06
 BYTE   Fs3
 BYTE   W06
 BYTE   Dn3
 BYTE   W06
 BYTE   Bn2
 BYTE   W06
 BYTE   Fs2
 BYTE   N11  Fn3
 BYTE   W06
 BYTE   N05  Dn2
 BYTE   W06
 BYTE   Bn1
 BYTE   N11  Gn3
 BYTE   W06
 BYTE   N05  Fs1
 BYTE   W06
 BYTE   Fn3
 BYTE   N06  Gs3
 BYTE   W06
 BYTE   N05
 BYTE   W06
 BYTE   Fn3
 BYTE   W06
 BYTE   Gs3
 BYTE   W06
 BYTE   Fn3
 BYTE   W06
 BYTE   Cn3
 BYTE   W06
 BYTE   Fn3
 BYTE   W06
 BYTE   Gs3
 BYTE   W06
//  #10 //115   ----------------------------------------
 BYTE   As3
 BYTE   W06
 BYTE   Cn4
 BYTE   W06
 BYTE   Gs3
 BYTE   W06
 BYTE   Fn3
 BYTE   W06
 BYTE   Fn4
 BYTE   W06
 BYTE   Cn4
 BYTE   W06
 BYTE   Gs3
 BYTE   W06
 BYTE   Cn4
 BYTE   W06
 BYTE   Gs3
 BYTE   W06
 BYTE   Fn3
 BYTE   W06
 BYTE   Cn3
 BYTE   N32  As3
 BYTE   W06
 BYTE   N05  Gs3
 BYTE   W06
 BYTE   Fn3
 BYTE   W06
 BYTE   Cn4
 BYTE   W06
 BYTE   Gs3
 BYTE   W06
 BYTE   Fn3
 BYTE   W06
//  #10 //116   ----------------------------------------
 BYTE   Cn3
 BYTE   N18  Gn3
 BYTE   W06
 BYTE   N05  En3
 BYTE   W06
 BYTE   Fn3
 BYTE   W06
 BYTE   Gn3
 BYTE   W06
 BYTE   Gs3
 BYTE   W06
 BYTE   As3
 BYTE   W06
 BYTE   Gn3
 BYTE   W06
 BYTE   Gs3
 BYTE   W06
 BYTE   Cn4
 BYTE   W06
 BYTE   Fn4
 BYTE   W06
 BYTE   Cn5
 BYTE   W06
 BYTE   Fn5
 BYTE   W06
 BYTE   N02  Cn6
 BYTE   W03
 BYTE   As5
 BYTE   W03
 BYTE   Gn5
 BYTE   W03
 BYTE   En5
 BYTE   W03
 BYTE   Cn5
 BYTE   W03
 BYTE   As4
 BYTE   W03
 BYTE   Gn4
 BYTE   W03
 BYTE   En4
 BYTE   W03
//  #10 //117   ----------------------------------------
 BYTE   Cs4
 BYTE   W03
 BYTE   Cn4
 BYTE   W03
 BYTE   As3
 BYTE   W03
 BYTE   Gn3
 BYTE   W03
 BYTE   En3
 BYTE   W03
 BYTE   Cs3
 BYTE   W03
 BYTE   Cn3
 BYTE   W03
 BYTE   As2
 BYTE   W03
 BYTE   Gn2
 BYTE   W03
 BYTE   Fn2
 BYTE   W03
 BYTE   En2
 BYTE   W03
 BYTE   Cs2
 BYTE   W03
 BYTE   Cn2
 BYTE   W03
 BYTE   As1
 BYTE   W03
 BYTE   Gs1
 BYTE   W03
 BYTE   Gn1
 BYTE   W03
 BYTE   GoTo
  POIN2 Label_0119B668
//  #10 //118   ----------------------------------------
 BYTE   W36
 BYTE   N32  Cn4  v104
 BYTE   W12
 BYTE   W24
 BYTE   N52  Gs4
 BYTE   W54
//  #10 //119   ----------------------------------------
 BYTE   N17  Fn4
 BYTE   W18
 BYTE   N68
 BYTE   W72
 BYTE   N44  En4
 BYTE   W24
//  #10 //120   ----------------------------------------
 BYTE   W24
 BYTE   N11  Fn4
 BYTE   W12
 BYTE   Gn4
 BYTE   W12
 BYTE   N68
 BYTE   W48
//  #10 //121   ----------------------------------------
 BYTE   W24
 BYTE   Cn4
 BYTE   W72
//  #10 //122   ----------------------------------------
 BYTE   W36
 BYTE   N32
 BYTE   W36
 BYTE   N52  Cn5
 BYTE   W24
//  #10 //123   ----------------------------------------
 BYTE   W30
 BYTE   N17  Fn5
 BYTE   W18
 BYTE   N68  Ds5
 BYTE   W48
//  #10 //124   ----------------------------------------
 BYTE   W24
 BYTE   Cs5
 BYTE   W72
//  #10 //125   ----------------------------------------
 BYTE   Cn5
 BYTE   W72
 BYTE   As4
 BYTE   W24
//  #10 //126   ----------------------------------------
 BYTE   W48
 BYTE   TIE  Cn5
 BYTE   W48
//  #10 //127   ----------------------------------------
 BYTE   W56
 BYTE   W03
 BYTE   EOT
 BYTE   W01
 BYTE   N32  Fn5
 BYTE   W36
//  #10 //128   ----------------------------------------
 BYTE   TIE  Gn5
 BYTE   W96
//  #10 //129   ----------------------------------------
 BYTE   W11
 BYTE   EOT
 BYTE   W84
 BYTE   W01
//  #10 //130   ----------------------------------------
 BYTE   W96
//  #10 //131   ----------------------------------------
 BYTE   W96
//  #10 //132   ----------------------------------------
 BYTE   W48
 BYTE   N68  Ds3
 BYTE   W48
//  #10 //133   ----------------------------------------
 BYTE   W42
 BYTE   N17
 BYTE   W18
 BYTE   N17
 BYTE   W18
 BYTE   Fn3
 BYTE   W18
//  #10 //134   ----------------------------------------
 BYTE   N23  Gn3
 BYTE   W24
 BYTE   Ds3
 BYTE   W24
 BYTE   As2
 BYTE   W24
 BYTE   Ds3
 BYTE   W24
//  #10 //135   ----------------------------------------
 BYTE   As2
 BYTE   W24
 BYTE   Gn2
 BYTE   W24
 BYTE   N68  As2
 BYTE   W48
//  #10 //136   ----------------------------------------
 BYTE   W24
 BYTE   N44  Cs3
 BYTE   W48
 BYTE   N23  Ds3
 BYTE   W24
//  #10 //137   ----------------------------------------
 BYTE   N68  Fn3
 BYTE   W72
 BYTE   Gs3
 BYTE   W24
//  #10 //138   ----------------------------------------
 BYTE   W48
 BYTE   TIE  Gn3
 BYTE   W48
//  #10 //139   ----------------------------------------
 BYTE   W56
 BYTE   W03
 BYTE   EOT
 BYTE   W01
 BYTE   N17
 BYTE   W18
 BYTE   Gs3
 BYTE   W18
//  #10 //140   ----------------------------------------
 BYTE   N23  As3
 BYTE   W24
 BYTE   Fs3
 BYTE   W24
 BYTE   Fn3
 BYTE   W04
 BYTE   W05
 BYTE   W04
 BYTE   W05
 BYTE   W04
 BYTE   W02
 BYTE   Ds3
 BYTE   W03
 BYTE   W04
 BYTE   W05
 BYTE   W04
 BYTE   W05
 BYTE   W03
//  #10 //141   ----------------------------------------
 BYTE   Cs3
 BYTE   W01
 BYTE   W05
 BYTE   W04
 BYTE   W05
 BYTE   W04
 BYTE   W05
 BYTE   Cn3
 BYTE   W24
 BYTE   N68  Gs4
 BYTE   W48
//  #10 //142   ----------------------------------------
 BYTE   W24
 BYTE   N17
 BYTE   W18
 BYTE   Fs4
 BYTE   W18
 BYTE   Gs4
 BYTE   W18
 BYTE   Cs5
 BYTE   W18
//  #10 //143   ----------------------------------------
 BYTE   Bn4
 BYTE   W18
 BYTE   Fs4
 BYTE   W18
 BYTE   N56  Ds4
 BYTE   W60
//  #10 //144   ----------------------------------------
 BYTE   W12
 BYTE   N32  En4
 BYTE   W36
 BYTE   N68  Fs4
 BYTE   W48
//  #10 //145   ----------------------------------------
 BYTE   W24
 BYTE   N17
 BYTE   W18
 BYTE   En4
 BYTE   W18
 BYTE   Fs4
 BYTE   W18
 BYTE   Bn4
 BYTE   W18
//  #10 //146   ----------------------------------------
 BYTE   TIE  Gs4
 BYTE   W09
 BYTE   W09
 BYTE   W09
 BYTE   W09
 BYTE   W09
 BYTE   W09
 BYTE   W09
 BYTE   W09
 BYTE   W09
 BYTE   W09
 BYTE   W06
//  #10 //147   ----------------------------------------
 BYTE   W03
 BYTE   W09
 BYTE   W09
 BYTE   W09
 BYTE   W09
 BYTE   W08
 BYTE   EOT
 BYTE   W01
 BYTE   N68  Gn3
 BYTE   W48
//  #10 //148   ----------------------------------------
 BYTE   W24
 BYTE   N32  En3
 BYTE   W36
 BYTE   Gn3
 BYTE   W36
//  #10 //149   ----------------------------------------
 BYTE   TIE  Fs3
 BYTE   W54
 BYTE   N17  Fs4
 BYTE   N17  An4
 BYTE   N17  An5
 BYTE   W18
 BYTE   An4
 BYTE   N17  Dn5
 BYTE   N17  Dn6
 BYTE   W18
 BYTE   Fs4
 BYTE   N17  An4
 BYTE   N17  An5
 BYTE   W06
//  #10 //150   ----------------------------------------
 BYTE   W11
 BYTE   EOT
 BYTE   Fs3
 BYTE   W01
 BYTE   N17  Fs4
 BYTE   W18
 BYTE   Gn4
 BYTE   W18
 BYTE   N68  An4
 BYTE   W48
//  #10 //151   ----------------------------------------
 BYTE   W24
 BYTE   Gs4
 BYTE   W72
//  #10 //152   ----------------------------------------
 BYTE   W36
 BYTE   N32
 BYTE   W06
 BYTE   W07
 BYTE   W07
 BYTE   W07
 BYTE   W06
 BYTE   W03
 BYTE   N52  An4
 BYTE   W04
 BYTE   W07
 BYTE   W07
 BYTE   W06
//  #10 //153   ----------------------------------------
 BYTE   W07
 BYTE   W07
 BYTE   W07
 BYTE   W06
 BYTE   W03
 BYTE   N17  Bn4
 BYTE   W04
 BYTE   W07
 BYTE   W07
 BYTE   N68
 BYTE   W48
//  #10 //154   ----------------------------------------
 BYTE   W24
 BYTE   N52  An4
 BYTE   W54
 BYTE   N17  En4
 BYTE   W18
//  #10 //155   ----------------------------------------
 BYTE   N68  Bn4
 BYTE   W72
 BYTE   N17  En4
 BYTE   W18
 BYTE   An4
 BYTE   W06
//  #10 //156   ----------------------------------------
 BYTE   W12
 BYTE   En4
 BYTE   W18
 BYTE   An4
 BYTE   W18
 BYTE   N68  Bn0
 BYTE   N05  Bn4
 BYTE   W18
 BYTE   N05
 BYTE   W06
 BYTE   N05
 BYTE   W06
 BYTE   N05
 BYTE   W06
 BYTE   N05
 BYTE   W12
//  #10 //157   ----------------------------------------
 BYTE   W06
 BYTE   N05
 BYTE   W06
 BYTE   N05
 BYTE   W06
 BYTE   N05
 BYTE   W06
 BYTE   N17  Bn0
 BYTE   N17  Fs3
 BYTE   N17  Bn3
 BYTE   N05  Bn4
 BYTE   W06
 BYTE   N05
 BYTE   W06
 BYTE   N05
 BYTE   W06
 BYTE   N17  Cn1
 BYTE   N17  Gn3
 BYTE   N17  Cn4
 BYTE   N05  Bn4
 BYTE   W06
 BYTE   N05
 BYTE   W06
 BYTE   N05
 BYTE   W06
 BYTE   N52  Bn0
 BYTE   N05  Bn4
 BYTE   W18
 BYTE   N05
 BYTE   W06
 BYTE   N05
 BYTE   W06
 BYTE   N05
 BYTE   W06
//  #10 //158   ----------------------------------------
 BYTE   N05
 BYTE   W18
 BYTE   N17  Bn0
 BYTE   N05  Bn4
 BYTE   W06
 BYTE   N05
 BYTE   W06
 BYTE   N05
 BYTE   W06
 BYTE   N17  Bn0
 BYTE   N17  An3
 BYTE   N17  Dn4
 BYTE   N05  Bn4
 BYTE   W06
 BYTE   N05
 BYTE   W06
 BYTE   N05
 BYTE   W06
 BYTE   N17  Fs0
 BYTE   N17  Gn3
 BYTE   N17  Cn4
 BYTE   N05  Bn4
 BYTE   W06
 BYTE   N05
 BYTE   W06
 BYTE   N05
 BYTE   W06
 BYTE   N68  Bn0
 BYTE   N05  Bn4
 BYTE   W18
 BYTE   N05
 BYTE   W06
//  #10 //159   ----------------------------------------
 BYTE   N05
 BYTE   W06
 BYTE   N05
 BYTE   W06
 BYTE   N05
 BYTE   W18
 BYTE   N05
 BYTE   W06
 BYTE   N05
 BYTE   W06
 BYTE   N05
 BYTE   W06
 BYTE   N17  Bn0
 BYTE   N17  Fs3
 BYTE   N17  Bn3
 BYTE   N05  Bn4
 BYTE   W06
 BYTE   N05
 BYTE   W06
 BYTE   N05
 BYTE   W06
 BYTE   N17  Cn1
 BYTE   N17  Gn3
 BYTE   N17  Cn4
 BYTE   N05  Bn4
 BYTE   W06
 BYTE   N05
 BYTE   W06
 BYTE   N05
 BYTE   W06
 BYTE   N52  Bn0
 BYTE   N05  Bn4
 BYTE   W12
//  #10 //160   ----------------------------------------
 BYTE   W06
 BYTE   N05
 BYTE   W06
 BYTE   N05
 BYTE   W06
 BYTE   N05
 BYTE   W06
 BYTE   N05
 BYTE   W18
 BYTE   N17  Bn0
 BYTE   N05  Bn4
 BYTE   W06
 BYTE   N05
 BYTE   W06
 BYTE   N05
 BYTE   W06
 BYTE   N17  Bn0
 BYTE   N17  Fs3
 BYTE   N17  Bn3
 BYTE   N05  Bn4
 BYTE   W06
 BYTE   N05
 BYTE   W06
 BYTE   N05
 BYTE   W06
 BYTE   N17  Gs0
 BYTE   N17  An3
 BYTE   N17  Dn4
 BYTE   N05  As4
 BYTE   W06
 BYTE   N05
 BYTE   W06
 BYTE   N05
 BYTE   W06
//  #10 //161   ----------------------------------------
 BYTE   N68  Gs0
 BYTE   N05  As4
 BYTE   W18
 BYTE   N05
 BYTE   W06
 BYTE   N05
 BYTE   W06
 BYTE   N05
 BYTE   W06
 BYTE   N05
 BYTE   W18
 BYTE   N05
 BYTE   W06
 BYTE   N05
 BYTE   W06
 BYTE   N05
 BYTE   W06
 BYTE   N17  Gs0
 BYTE   N17  Gs3
 BYTE   N17  Ds4
 BYTE   N05  As4
 BYTE   W06
 BYTE   N05
 BYTE   W06
 BYTE   N05
 BYTE   W06
 BYTE   N17  Bn0
 BYTE   N17  Bn3
 BYTE   N17  En4
 BYTE   N05  As4
 BYTE   W06
//  #10 //162   ----------------------------------------
 BYTE   N05
 BYTE   W06
 BYTE   N05
 BYTE   W06
 BYTE   N52  Gs0
 BYTE   N05  As4
 BYTE   W18
 BYTE   N05
 BYTE   W06
 BYTE   N05
 BYTE   W06
 BYTE   N05
 BYTE   W06
 BYTE   N05
 BYTE   W18
 BYTE   N17  Gs0
 BYTE   N05  As4
 BYTE   W06
 BYTE   N05
 BYTE   W06
 BYTE   N05
 BYTE   W06
 BYTE   N17  En1
 BYTE   N17  Cs4
 BYTE   N17  Fs4
 BYTE   N05  As4
 BYTE   W06
 BYTE   N05
 BYTE   W06
//  #10 //163   ----------------------------------------
 BYTE   N05
 BYTE   W06
 BYTE   N17  Bn0
 BYTE   N17  Bn3
 BYTE   N17  En4
 BYTE   N05  As4
 BYTE   W06
 BYTE   N05
 BYTE   W06
 BYTE   N05
 BYTE   W06
 BYTE   TIE  As0
 BYTE   N05  As4
 BYTE   W18
 BYTE   N05
 BYTE   W06
 BYTE   N05
 BYTE   W06
 BYTE   N05
 BYTE   W06
 BYTE   N02  Ds3
 BYTE   N05  As4
 BYTE   W03
 BYTE   N02  En3
 BYTE   W03
 BYTE   Fs3
 BYTE   W03
 BYTE   Gs3
 BYTE   W03
 BYTE   As3
 BYTE   W03
 BYTE   Bn3
 BYTE   W03
 BYTE   Cs4
 BYTE   N05  As4
 BYTE   W03
 BYTE   N02  Ds4
 BYTE   W03
 BYTE   En4
 BYTE   N05  As4
 BYTE   W03
 BYTE   N02  Fs4
 BYTE   W03
 BYTE   Gs4
 BYTE   N03  As4
 BYTE   W03
 BYTE   N02
 BYTE   W03
//  #10 //164   ----------------------------------------
 BYTE   N05
 BYTE   N04  Ds5
 BYTE   W04
 BYTE   En5
 BYTE   W02
 BYTE   N05  As4
 BYTE   W03
 BYTE   N08  Ds5
 BYTE   W03
 BYTE   N05  As4
 BYTE   W06
 BYTE   N05
 BYTE   N04  Cs5
 BYTE   W04
 BYTE   Ds5
 BYTE   W02
 BYTE   N05  As4
 BYTE   W03
 BYTE   N08  Cs5
 BYTE   W03
 BYTE   N05  As4
 BYTE   W05
 BYTE   EOT
 BYTE   As0
 BYTE   W01
 BYTE   N04  Bn4
 BYTE   W04
 BYTE   Cs5
 BYTE   W05
 BYTE   N08  Bn4
 BYTE   W09
 BYTE   N04  As4
 BYTE   W04
 BYTE   Bn4
 BYTE   W05
 BYTE   N08  As4
 BYTE   W09
 BYTE   N02  Gn4
 BYTE   W03
 BYTE   Ds4
 BYTE   W03
 BYTE   Cs4
 BYTE   W03
 BYTE   As3
 BYTE   W03
 BYTE   Gn3
 BYTE   W03
 BYTE   Ds3
 BYTE   W03
 BYTE   Cs3
 BYTE   W03
 BYTE   As2
 BYTE   W03
//  #10 //165   ----------------------------------------
 BYTE   Gs2
 BYTE   W03
 BYTE   Gn2
 BYTE   W03
 BYTE   Ds2
 BYTE   W03
 BYTE   Cs2
 BYTE   W03
 BYTE   As1
 BYTE   N32  Ds4
 BYTE   N32  Ds5
 BYTE   W03
 BYTE   N02  Gn1
 BYTE   W03
 BYTE   Ds1
 BYTE   W03
 BYTE   Cs1
 BYTE   W03
 BYTE   N23  As0
 BYTE   W24
 BYTE   TIE  Bn4
 BYTE   TIE  Bn5
 BYTE   W48
//  #10 //166   ----------------------------------------
 BYTE   W56
 BYTE   W03
 BYTE   EOT
 BYTE   Bn4  v095
 BYTE   W01
 BYTE   N32  Ds4
 BYTE   N32  Ds5
 BYTE   W36
//  #10 //167   ----------------------------------------
Label_0119BFAD:
 BYTE   TIE  As4  v104
 BYTE   TIE  As5
 BYTE   W96
 BYTE   PEND 
//  #10 //168   ----------------------------------------
 BYTE   W11
 BYTE   EOT
 BYTE   As4  v094
 BYTE   W01
 BYTE   N32  Ds4
 BYTE   N32  Ds5
 BYTE   W36
 BYTE   N68  Gs4
 BYTE   N68  Gs5
 BYTE   W48
//  #10 //169   ----------------------------------------
Label_0119BFC3:
 BYTE   W24
 BYTE   N17  Fs4  v104
 BYTE   N17  Fs5
 BYTE   W18
 BYTE   En4
 BYTE   N17  En5
 BYTE   W18
 BYTE   Bn3
 BYTE   N17  Bn4
 BYTE   W18
 BYTE   Cs4
 BYTE   N17  Cs5
 BYTE   W18
 BYTE   PEND 
//  #10 //170   ----------------------------------------
Label_0119BFD7:
 BYTE   N32  En4  v104
 BYTE   N32  En5
 BYTE   W36
 BYTE   N92  Ds4
 BYTE   N92  Ds5
 BYTE   W60
 BYTE   PEND 
//  #10 //171   ----------------------------------------
 BYTE   W48
 BYTE   N68  Ds4
 BYTE   N68  Ds5
 BYTE   W36
 BYTE   N32  Gs4
 BYTE   W12
//  #10 //172   ----------------------------------------
 BYTE   W24
 BYTE   N17  Cs4
 BYTE   N44  Gn4
 BYTE   N17  Cs5
 BYTE   W18
 BYTE   Bn3
 BYTE   N17  Bn4
 BYTE   W18
 BYTE   Cs4
 BYTE   N17  Cs5
 BYTE   W12
 BYTE   N11  Gs4
 BYTE   W06
 BYTE   N17  Fs4
 BYTE   N17  Fs5
 BYTE   W06
 BYTE   N11  As4
 BYTE   W12
//  #10 //173   ----------------------------------------
 BYTE   N17  Ds4
 BYTE   N17  Ds5
 BYTE   W18
 BYTE   Bn3
 BYTE   N17  Bn4
 BYTE   W18
 BYTE   N68  Gs3
 BYTE   N36  Gs4
 BYTE   W36
 BYTE   N32
 BYTE   W02
 BYTE   W02
 BYTE   W02
 BYTE   W03
 BYTE   W02
 BYTE   W02
 BYTE   W02
 BYTE   W03
 BYTE   W02
 BYTE   W02
 BYTE   W02
//  #10 //174   ----------------------------------------
 BYTE   W03
 BYTE   W02
 BYTE   W02
 BYTE   W02
 BYTE   W03
 BYTE   W02
 BYTE   W02
 BYTE   W02
 BYTE   W03
 BYTE   W02
 BYTE   W02
 BYTE   W02
 BYTE   W03
 BYTE   N17  Fs3
 BYTE   N17  Fs4
 BYTE   W02
 BYTE   W02
 BYTE   W02
 BYTE   W03
 BYTE   W02
 BYTE   W02
 BYTE   W02
 BYTE   W03
 BYTE   N32  Gs3
 BYTE   N32  Gs4
 BYTE   W36
 BYTE   N30  Ds4
 BYTE   N88  Ds5
 BYTE   W12
//  #10 //175   ----------------------------------------
 BYTE   W18
 BYTE   N05  Ds4
 BYTE   W06
 BYTE   Gs4
 BYTE   W06
 BYTE   Ds4
 BYTE   W06
 BYTE   Bn3
 BYTE   W06
 BYTE   Ds4
 BYTE   W06
 BYTE   Bn3
 BYTE   W06
 BYTE   Gs3
 BYTE   W06
 BYTE   N32  Gs4
 BYTE   W18
 BYTE   N17  Fs3
 BYTE   N17  Fs4
 BYTE   W18
//  #10 //176   ----------------------------------------
 BYTE   N32  Gs3
 BYTE   N52  En4
 BYTE   N32  Gs4
 BYTE   W36
 BYTE   N68  Ds4
 BYTE   N68  Ds5
 BYTE   W18
 BYTE   N17  Gs4
 BYTE   W18
 BYTE   N32  Gn4
 BYTE   W24
//  #10 //177   ----------------------------------------
 BYTE   W12
 BYTE   Ds4
 BYTE   N32  Ds5
 BYTE   W36
 BYTE   TIE  Bn4
 BYTE   TIE  Bn5
 BYTE   W48
//  #10 //178   ----------------------------------------
 BYTE   W56
 BYTE   W03
 BYTE   EOT
 BYTE   Bn4  v095
 BYTE   W01
 BYTE   N32  Ds4
 BYTE   N32  Ds5
 BYTE   W36
//  #10 //179   ----------------------------------------
 BYTE   PATT
  POIN2 Label_0119BFAD
//  #10 //180   ----------------------------------------
 BYTE   W11
 BYTE   EOT
 BYTE   As4  v094
 BYTE   W01
 BYTE   N32  Ds4  v104
 BYTE   N32  Ds5
 BYTE   W36
 BYTE   N68  Gs4
 BYTE   N68  Gs5
 BYTE   W48
//  #10 //181   ----------------------------------------
 BYTE   PATT
  POIN2 Label_0119BFC3
//  #10 //182   ----------------------------------------
 BYTE   PATT
  POIN2 Label_0119BFD7
//  #10 //183   ----------------------------------------
 BYTE   W48
 BYTE   N68  As2  v104
 BYTE   N68  En3
 BYTE   N68  Ds4
 BYTE   N68  Ds5
 BYTE   W03
 BYTE   As3
 BYTE   W44
 BYTE   W01
//  #10 //184   ----------------------------------------
 BYTE   W24
 BYTE   Ds2
 BYTE   N32  Ds3
 BYTE   N32  Gn3
 BYTE   N17  Cs4
 BYTE   N17  Cs5
 BYTE   W18
 BYTE   Bn3
 BYTE   N17  Bn4
 BYTE   W18
 BYTE   N32  Bn3
 BYTE   N17  Cs4
 BYTE   N17  Cs5
 BYTE   W18
 BYTE   Fs4
 BYTE   N17  Fs5
 BYTE   W18
//  #10 //185   ----------------------------------------
 BYTE   N68  Gs2
 BYTE   N68  Ds3
 BYTE   N68  Fs3
 BYTE   N17  Ds4
 BYTE   N17  Ds5
 BYTE   W18
 BYTE   Bn3
 BYTE   N17  Bn4
 BYTE   W18
 BYTE   N92  Gs3
 BYTE   N92  Gs4
 BYTE   W36
 BYTE   N68  Cs2
 BYTE   N68  Cs3
 BYTE   N68  Fn3
 BYTE   W24
//  #10 //186   ----------------------------------------
 BYTE   W48
 BYTE   N04  En2
 BYTE   W04
 BYTE   Fs2
 BYTE   W05
 BYTE   Gs2
 BYTE   W04
 BYTE   Bn2
 BYTE   W05
 BYTE   Ds3
 BYTE   W04
 BYTE   En3
 BYTE   W05
 BYTE   Fs3
 BYTE   W04
 BYTE   Gs3
 BYTE   W05
 BYTE   Bn3
 BYTE   W04
 BYTE   Gs3
 BYTE   W05
 BYTE   Ds3
 BYTE   W03
//  #10 //187   ----------------------------------------
 BYTE   W01
 BYTE   Bn2
 BYTE   W05
 BYTE   Gs2
 BYTE   W04
 BYTE   Fs2
 BYTE   W05
 BYTE   Gs2
 BYTE   W04
 BYTE   Ds3
 BYTE   W05
 BYTE   Gs3
 BYTE   W04
 BYTE   Bn3
 BYTE   W05
 BYTE   Ds4
 BYTE   W04
 BYTE   Gs4
 BYTE   W05
 BYTE   Ds4
 BYTE   W04
 BYTE   Bn3
 BYTE   W05
 BYTE   Gs3
 BYTE   W04
 BYTE   Ds3
 BYTE   W05
 BYTE   Bn2
 BYTE   W04
 BYTE   Gs2
 BYTE   W05
 BYTE   Ds2
 BYTE   W04
 BYTE   Bn1
 BYTE   W05
 BYTE   Ds2
 BYTE   W04
 BYTE   Bn1
 BYTE   W05
 BYTE   Gs1
 BYTE   W04
 BYTE   Bn1
 BYTE   W05
//  #10 //188   ----------------------------------------
 BYTE   Fs1
 BYTE   W04
 BYTE   As1
 BYTE   W05
 BYTE   Cs2
 BYTE   W04
 BYTE   En2
 BYTE   W05
 BYTE   Fs2
 BYTE   W04
 BYTE   As2
 BYTE   W05
 BYTE   Cs3
 BYTE   W04
 BYTE   Fs3
 BYTE   W05
 BYTE   As3
 BYTE   W04
 BYTE   Fs3
 BYTE   W05
 BYTE   Cs3
 BYTE   W04
 BYTE   As2
 BYTE   W05
 BYTE   Fs2
 BYTE   W04
 BYTE   En2
 BYTE   W05
 BYTE   Fs2
 BYTE   W04
 BYTE   Cs3
 BYTE   W05
 BYTE   Fs3
 BYTE   W04
 BYTE   As3
 BYTE   W05
 BYTE   Cs4
 BYTE   W04
 BYTE   Fs4
 BYTE   W05
 BYTE   Cs4
 BYTE   W04
 BYTE   As3
 BYTE   W02
//  #10 //189   ----------------------------------------
 BYTE   W03
 BYTE   Fs3
 BYTE   W04
 BYTE   Cs3
 BYTE   W05
 BYTE   As2
 BYTE   W04
 BYTE   Fs2
 BYTE   W05
 BYTE   Cs2
 BYTE   W04
 BYTE   As1
 BYTE   W05
 BYTE   Cs2
 BYTE   N17  Fs4
 BYTE   W04
 BYTE   N04  As1
 BYTE   W05
 BYTE   Fs1
 BYTE   W04
 BYTE   As1
 BYTE   W05
 BYTE   N68  En2
 BYTE   N68  Bn2
 BYTE   N32  Gs4
 BYTE   W36
 BYTE   N68  Ds5
 BYTE   W12
//  #10 //190   ----------------------------------------
 BYTE   W24
 BYTE   As2
 BYTE   W54
 BYTE   N17  Fs4
 BYTE   W18
//  #10 //191   ----------------------------------------
 BYTE   TIE  An2
 BYTE   TIE  En3
 BYTE   TIE  Cs4
 BYTE   N32  Gs4
 BYTE   W36
 BYTE   TIE  Ds5
 BYTE   W60
//  #10 //192   ----------------------------------------
 BYTE   W44
 BYTE   W03
 BYTE   EOT
 BYTE   An2  v064
 BYTE   Cs4  v087
 BYTE   W07
 BYTE   N08  Ds6
 BYTE   W09
 BYTE   Cs6
 BYTE   W09
 BYTE   Gs5
 BYTE   W09
 BYTE   N05  Ds5
 BYTE   W06
 BYTE   Cs5
 BYTE   W06
 BYTE   Gs4
 BYTE   W03
//  #10 //193   ----------------------------------------
 BYTE   W03
 BYTE   En4
 BYTE   W06
 BYTE   N02  Ds4
 BYTE   W03
 BYTE   Cs4
 BYTE   W03
 BYTE   Gs3
 BYTE   W03
 BYTE   En3
 BYTE   W03
 BYTE   Cs3
 BYTE   W03
 BYTE   N05  Fn1
 BYTE   W06
 BYTE   Cn2
 BYTE   W06
 BYTE   Fn2
 BYTE   W06
 BYTE   Gs2
 BYTE   W06
 BYTE   Cn3
 BYTE   W06
 BYTE   Ds3
 BYTE   W06
 BYTE   Fn1
 BYTE   W06
 BYTE   Cn2
 BYTE   W06
 BYTE   Fn2
 BYTE   W06
 BYTE   Gs2
 BYTE   W06
 BYTE   Cn3
 BYTE   W06
 BYTE   Ds3
 BYTE   W06
//  #10 //194   ----------------------------------------
 BYTE   Gn3
 BYTE   W06
 BYTE   Ds3
 BYTE   W06
 BYTE   Cn3
 BYTE   W06
 BYTE   Ds3
 BYTE   W06
 BYTE   Cn3
 BYTE   W06
 BYTE   Gs2
 BYTE   W06
 BYTE   Fn2
 BYTE   W06
 BYTE   Gs2
 BYTE   W06
 BYTE   As2
 BYTE   W06
 BYTE   Cn3
 BYTE   W06
 BYTE   Gs2
 BYTE   W06
 BYTE   Fn2
 BYTE   W06
 BYTE   Fn1
 BYTE   W06
 BYTE   Cn2
 BYTE   W06
 BYTE   Fn2
 BYTE   W06
 BYTE   Gs2
 BYTE   W06
//  #10 //195   ----------------------------------------
 BYTE   Cn3
 BYTE   W06
 BYTE   Cs3
 BYTE   W06
 BYTE   Fn1
 BYTE   W06
 BYTE   Cn2
 BYTE   W06
 BYTE   Fn2
 BYTE   W06
 BYTE   Gs2
 BYTE   W06
 BYTE   N02  Cs2
 BYTE   N05  Cn3
 BYTE   W03
 BYTE   N02  Fn2
 BYTE   W03
 BYTE   Fs2
 BYTE   N05  Cs3
 BYTE   W03
 BYTE   N02  Gs2
 BYTE   W03
 BYTE   Cn3
 BYTE   N05  Gn3
 BYTE   W03
 BYTE   N02  Cs3
 BYTE   W03
 BYTE   N05
 BYTE   N02  Fn3
 BYTE   W03
 BYTE   Fs3
 BYTE   W03
 BYTE   N05  Cn3
 BYTE   N02  Cs4
 BYTE   W03
 BYTE   Ds4
 BYTE   W03
 BYTE   N05  Cs3
 BYTE   N02  Cs4
 BYTE   W03
 BYTE   Ds4
 BYTE   W03
 BYTE   N05  Cn3
 BYTE   N02  Cs4
 BYTE   W03
 BYTE   Gs3
 BYTE   W03
 BYTE   N05  Gs2
 BYTE   N02  Fn3
 BYTE   W03
 BYTE   Cs3
 BYTE   W03
 BYTE   N05  Fn2
 BYTE   N02  Cn3
 BYTE   W03
 BYTE   As2
 BYTE   W03
 BYTE   Gs2
 BYTE   W03
 BYTE   Fn2
 BYTE   W03
//  #10 //196   ----------------------------------------
 BYTE   Cs2
 BYTE   N05  Cn3
 BYTE   W06
 BYTE   Cs3
 BYTE   W06
 BYTE   Cn3
 BYTE   W06
 BYTE   Gs2
 BYTE   W06
 BYTE   Fn1
 BYTE   W06
 BYTE   Cn2
 BYTE   W06
 BYTE   Fn2
 BYTE   W06
 BYTE   Gs2
 BYTE   W06
 BYTE   Cn3
 BYTE   W06
 BYTE   Ds3
 BYTE   W06
 BYTE   Fn1
 BYTE   W06
 BYTE   Cn2
 BYTE   W06
 BYTE   Fn2
 BYTE   W06
 BYTE   Gs2
 BYTE   W06
 BYTE   Cn3
 BYTE   W06
 BYTE   Ds3
 BYTE   W06
//  #10 //197   ----------------------------------------
 BYTE   Gn3
 BYTE   W06
 BYTE   Ds3
 BYTE   W06
 BYTE   Cn3
 BYTE   W06
 BYTE   Ds3
 BYTE   W06
 BYTE   Cn3
 BYTE   W06
 BYTE   Gs2
 BYTE   W06
 BYTE   Fn2
 BYTE   W06
 BYTE   Gs2
 BYTE   W06
 BYTE   As2
 BYTE   W06
 BYTE   Cn3
 BYTE   W06
 BYTE   Gs2
 BYTE   W06
 BYTE   Fn2
 BYTE   W06
 BYTE   Cs3
 BYTE   W06
 BYTE   Gs2
 BYTE   W06
 BYTE   Fn2
 BYTE   W06
 BYTE   Gs2
 BYTE   W06
//  #10 //198   ----------------------------------------
 BYTE   Fn2
 BYTE   W06
 BYTE   Gs2
 BYTE   W06
 BYTE   Gn2
 BYTE   W06
 BYTE   Gs2
 BYTE   W06
 BYTE   Fn2
 BYTE   W06
 BYTE   Cs3
 BYTE   W06
 BYTE   Gs2
 BYTE   W06
 BYTE   Fn2
 BYTE   W06
 BYTE   Gn2
 BYTE   W06
 BYTE   Gs2
 BYTE   W06
 BYTE   Fn2
 BYTE   W06
 BYTE   Gn2
 BYTE   W06
 BYTE   Gs2
 BYTE   W06
 BYTE   Fn2
 BYTE   W06
 BYTE   Cs3
 BYTE   W06
 BYTE   Gs2
 BYTE   W06
//  #10 //199   ----------------------------------------
 BYTE   Gn2
 BYTE   W06
 BYTE   Fn2
 BYTE   W06
 BYTE   Cs2
 BYTE   W06
 BYTE   As1
 BYTE   W05
 BYTE   FINE

//**************** Track 11 (Midi-Chn.10) ****************//

FireEmblemEngage_FallenPetalsNew_011:
//  #11 //000   ----------------------------------------
 BYTE   KEYSH   FireEmblemEngage_FallenPetalsNew_key+0
 BYTE   VOICE   56
 BYTE   MODT 0
 BYTE   LFOS 44
 BYTE   VOL   33*FireEmblemEngage_FallenPetalsNew_mvl/mxv
 BYTE   BENDR  12
 BYTE   PAN   c_v+0
 BYTE   W96
//  #11 //001   ----------------------------------------
 BYTE   W96
//  #11 //002   ----------------------------------------
 BYTE   W96
//  #11 //003   ----------------------------------------
 BYTE   W96
//  #11 //004   ----------------------------------------
 BYTE   W96
//  #11 //005   ----------------------------------------
 BYTE   W96
//  #11 //006   ----------------------------------------
 BYTE   W96
//  #11 //007   ----------------------------------------
 BYTE   W96
//  #11 //008   ----------------------------------------
 BYTE   W96
//  #11 //009   ----------------------------------------
 BYTE   W96
//  #11 //010   ----------------------------------------
 BYTE   W96
//  #11 //011   ----------------------------------------
 BYTE   W96
//  #11 //012   ----------------------------------------
 BYTE   W96
//  #11 //013   ----------------------------------------
 BYTE   W96
//  #11 //014   ----------------------------------------
 BYTE   W96
//  #11 //015   ----------------------------------------
 BYTE   W96
//  #11 //016   ----------------------------------------
 BYTE   W96
//  #11 //017   ----------------------------------------
 BYTE   W96
//  #11 //018   ----------------------------------------
 BYTE   W96
//  #11 //019   ----------------------------------------
 BYTE   W96
//  #11 //020   ----------------------------------------
 BYTE   W96
//  #11 //021   ----------------------------------------
 BYTE   W12
 BYTE   N32  Gs2  v104
 BYTE   W06
 BYTE   W07
 BYTE   W07
 BYTE   W07
 BYTE   W06
 BYTE   W03
 BYTE   N52  Cn3
 BYTE   W04
 BYTE   W07
 BYTE   W07
 BYTE   W06
 BYTE   W07
 BYTE   W07
 BYTE   W07
 BYTE   W03
//  #11 //022   ----------------------------------------
 BYTE   W03
 BYTE   W03
 BYTE   N17  Fn3
 BYTE   W04
 BYTE   W07
 BYTE   W07
 BYTE   N68
 BYTE   W72
//  #11 //023   ----------------------------------------
 BYTE   N44  En3
 BYTE   W01
 BYTE   W02
 BYTE   W01
 BYTE   W02
 BYTE   W01
 BYTE   W02
 BYTE   W01
 BYTE   W02
 BYTE   W01
 BYTE   W02
 BYTE   W01
 BYTE   W02
 BYTE   W01
 BYTE   W02
 BYTE   W01
 BYTE   W02
 BYTE   W01
 BYTE   W02
 BYTE   W01
 BYTE   W02
 BYTE   W01
 BYTE   W02
 BYTE   W01
 BYTE   W02
 BYTE   W01
 BYTE   W02
 BYTE   W01
 BYTE   W02
 BYTE   W01
 BYTE   W02
 BYTE   W01
 BYTE   W02
 BYTE   W24
Label_01198B67:
 BYTE   W24
//  #11 //024   ----------------------------------------
 BYTE   W12
 BYTE   N32  Cn3  v104
 BYTE   W36
 BYTE   N52  Gs3
 BYTE   W48
//  #11 //025   ----------------------------------------
 BYTE   W06
 BYTE   N17  Fn3
 BYTE   W18
 BYTE   N68
 BYTE   W72
//  #11 //026   ----------------------------------------
 BYTE   N44  En3
 BYTE   W48
 BYTE   N11  Fn3
 BYTE   W12
 BYTE   Gn3
 BYTE   W12
 BYTE   N68
 BYTE   W24
//  #11 //027   ----------------------------------------
 BYTE   W48
 BYTE   Cn3
 BYTE   W48
//  #11 //028   ----------------------------------------
 BYTE   W60
 BYTE   N32
 BYTE   W36
//  #11 //029   ----------------------------------------
 BYTE   N52  An3
 BYTE   W54
 BYTE   N17  Cn4
 BYTE   W18
 BYTE   N68
 BYTE   W24
//  #11 //030   ----------------------------------------
 BYTE   W48
 BYTE   As3
 BYTE   W48
//  #11 //031   ----------------------------------------
 BYTE   W24
 BYTE   Gs3
 BYTE   W72
//  #11 //032   ----------------------------------------
 BYTE   Fs3
 BYTE   W72
 BYTE   TIE  Fn3
 BYTE   W24
//  #11 //033   ----------------------------------------
 BYTE   W80
 BYTE   W03
 BYTE   EOT
 BYTE   W01
 BYTE   N32  Gs3
 BYTE   W12
//  #11 //034   ----------------------------------------
 BYTE   W24
 BYTE   TIE  As3
 BYTE   W72
//  #11 //035   ----------------------------------------
 BYTE   W32
 BYTE   W03
 BYTE   EOT
 BYTE   W60
 BYTE   W01
//  #11 //036   ----------------------------------------
 BYTE   W96
//  #11 //037   ----------------------------------------
 BYTE   W96
//  #11 //038   ----------------------------------------
 BYTE   W96
//  #11 //039   ----------------------------------------
 BYTE   W96
//  #11 //040   ----------------------------------------
 BYTE   W96
//  #11 //041   ----------------------------------------
 BYTE   W96
//  #11 //042   ----------------------------------------
 BYTE   W96
//  #11 //043   ----------------------------------------
 BYTE   W96
//  #11 //044   ----------------------------------------
 BYTE   W96
//  #11 //045   ----------------------------------------
 BYTE   W96
//  #11 //046   ----------------------------------------
 BYTE   W96
//  #11 //047   ----------------------------------------
 BYTE   W72
 BYTE   N68  Gs3
 BYTE   W24
//  #11 //048   ----------------------------------------
 BYTE   W48
 BYTE   N17
 BYTE   W18
 BYTE   Fs3
 BYTE   W18
 BYTE   Gs3
 BYTE   W12
//  #11 //049   ----------------------------------------
 BYTE   W06
 BYTE   Cs4
 BYTE   W18
 BYTE   Bn3
 BYTE   W18
 BYTE   Fs3
 BYTE   W18
 BYTE   N56  Ds3
 BYTE   W36
//  #11 //050   ----------------------------------------
 BYTE   W36
 BYTE   N32  En3
 BYTE   W36
 BYTE   N68  Fs3
 BYTE   W24
//  #11 //051   ----------------------------------------
 BYTE   W48
 BYTE   N17
 BYTE   W18
 BYTE   En3
 BYTE   W18
 BYTE   Fs3
 BYTE   W12
//  #11 //052   ----------------------------------------
 BYTE   W06
 BYTE   Bn3
 BYTE   W18
 BYTE   TIE  Gs3
 BYTE   W72
//  #11 //053   ----------------------------------------
 BYTE   W28
 BYTE   W01
 BYTE   EOT
 BYTE   W07
 BYTE   N32  Bn2
 BYTE   W36
 BYTE   N68  Bn3
 BYTE   W24
//  #11 //054   ----------------------------------------
 BYTE   W48
 BYTE   N17
 BYTE   W18
 BYTE   An3
 BYTE   W18
 BYTE   Bn3
 BYTE   W12
//  #11 //055   ----------------------------------------
 BYTE   W06
 BYTE   En4
 BYTE   W18
 BYTE   Dn4
 BYTE   W18
 BYTE   An3
 BYTE   W18
 BYTE   N56  Fs3
 BYTE   W36
//  #11 //056   ----------------------------------------
 BYTE   W36
 BYTE   N17
 BYTE   W18
 BYTE   Gn3
 BYTE   W18
 BYTE   N68  An3
 BYTE   W24
//  #11 //057   ----------------------------------------
 BYTE   W48
 BYTE   Gs3
 BYTE   W48
//  #11 //058   ----------------------------------------
 BYTE   W60
 BYTE   N32  Bn2
 BYTE   W36
//  #11 //059   ----------------------------------------
 BYTE   N68  En3
 BYTE   W72
 BYTE   Bn3
 BYTE   W24
//  #11 //060   ----------------------------------------
 BYTE   W48
 BYTE   N52  An3
 BYTE   W48
//  #11 //061   ----------------------------------------
 BYTE   W06
 BYTE   N17  En3
 BYTE   W18
 BYTE   N68  Bn3
 BYTE   W72
//  #11 //062   ----------------------------------------
 BYTE   An3
 BYTE   W96
//  #11 //063   ----------------------------------------
Label_01198C19:
 BYTE   W12
 BYTE   N32  Fs3  v104
 BYTE   W36
 BYTE   N32
 BYTE   W48
 BYTE   PEND 
//  #11 //064   ----------------------------------------
Label_01198C21:
 BYTE   W24
 BYTE   N32  Fs3  v104
 BYTE   W36
 BYTE   N32
 BYTE   W36
 BYTE   PEND 
//  #11 //065   ----------------------------------------
 BYTE   W36
 BYTE   N32
 BYTE   W36
 BYTE   N32
 BYTE   W24
//  #11 //066   ----------------------------------------
 BYTE   W48
 BYTE   N32
 BYTE   W36
 BYTE   N32
 BYTE   W12
//  #11 //067   ----------------------------------------
 BYTE   W60
 BYTE   Ds3
 BYTE   W36
//  #11 //068   ----------------------------------------
 BYTE   N32
 BYTE   W72
 BYTE   N32
 BYTE   W24
//  #11 //069   ----------------------------------------
 BYTE   W12
 BYTE   N17  Fs3
 BYTE   W18
 BYTE   En3
 BYTE   W18
 BYTE   TIE  Ds3
 BYTE   W01
 BYTE   W01
 BYTE   W01
 BYTE   W01
 BYTE   W01
 BYTE   W01
 BYTE   W01
 BYTE   W01
 BYTE   W01
 BYTE   W01
 BYTE   W01
 BYTE   W01
 BYTE   W01
 BYTE   W01
 BYTE   W01
 BYTE   W01
 BYTE   W01
 BYTE   W01
 BYTE   W01
 BYTE   W01
 BYTE   W02
 BYTE   W02
 BYTE   W01
 BYTE   W02
 BYTE   W01
 BYTE   W02
 BYTE   W02
 BYTE   W01
 BYTE   W02
 BYTE   W01
 BYTE   W02
 BYTE   W02
 BYTE   W01
 BYTE   W02
 BYTE   W01
 BYTE   W02
 BYTE   W02
//  #11 //070   ----------------------------------------
 BYTE   W01
 BYTE   W02
 BYTE   W01
 BYTE   W02
 BYTE   W02
 BYTE   W01
 BYTE   W02
 BYTE   W01
 BYTE   W02
 BYTE   W02
 BYTE   W01
 BYTE   W02
 BYTE   W01
 BYTE   W02
 BYTE   W02
 BYTE   W01
 BYTE   W02
 BYTE   W01
 BYTE   W02
 BYTE   W02
 BYTE   W01
 BYTE   W02
 BYTE   W01
 BYTE   W02
 BYTE   W02
 BYTE   W01
 BYTE   W02
 BYTE   W01
 BYTE   W02
 BYTE   W02
 BYTE   W11
 BYTE   EOT
 BYTE   W36
 BYTE   W01
//  #11 //071   ----------------------------------------
 BYTE   W96
//  #11 //072   ----------------------------------------
 BYTE   W12
 BYTE   N32  Ds2
 BYTE   W36
 BYTE   N68  Ds3
 BYTE   W48
//  #11 //073   ----------------------------------------
 BYTE   W60
 BYTE   N32  Ds2
 BYTE   W36
//  #11 //074   ----------------------------------------
Label_01198C95:
 BYTE   N68  Ds3  v104
 BYTE   W72
 BYTE   Gs3
 BYTE   W24
 BYTE   PEND 
//  #11 //075   ----------------------------------------
Label_01198C9C:
 BYTE   W48
 BYTE   N17  Fs3  v104
 BYTE   W18
 BYTE   En3
 BYTE   W18
 BYTE   Bn2
 BYTE   W12
 BYTE   PEND 
//  #11 //076   ----------------------------------------
Label_01198CA6:
 BYTE   W06
 BYTE   N17  Cs3  v104
 BYTE   W18
 BYTE   N32  En3
 BYTE   W36
 BYTE   N92  Ds3
 BYTE   W36
 BYTE   PEND 
//  #11 //077   ----------------------------------------
 BYTE   W72
 BYTE   N68
 BYTE   W24
//  #11 //078   ----------------------------------------
 BYTE   W48
 BYTE   N17  Cs3
 BYTE   W18
 BYTE   Bn2
 BYTE   W18
 BYTE   Cs3
 BYTE   W12
//  #11 //079   ----------------------------------------
 BYTE   W06
 BYTE   Fs3
 BYTE   W18
 BYTE   Ds3
 BYTE   W18
 BYTE   Bn2
 BYTE   W18
 BYTE   N68  Gs2
 BYTE   W36
//  #11 //080   ----------------------------------------
 BYTE   W54
 BYTE   N17  Fs2
 BYTE   W18
 BYTE   N32  Gs2
 BYTE   W24
//  #11 //081   ----------------------------------------
 BYTE   W12
 BYTE   N88  Ds3
 BYTE   W84
//  #11 //082   ----------------------------------------
 BYTE   W06
 BYTE   N17  Fs2
 BYTE   W18
 BYTE   N32  Gs2
 BYTE   W36
 BYTE   N68  Ds3
 BYTE   W36
//  #11 //083   ----------------------------------------
 BYTE   W36
 BYTE   N32
 BYTE   W60
//  #11 //084   ----------------------------------------
 BYTE   W12
 BYTE   Ds2
 BYTE   W36
 BYTE   N68  Ds3
 BYTE   W48
//  #11 //085   ----------------------------------------
 BYTE   W60
 BYTE   N32  Ds2
 BYTE   W36
//  #11 //086   ----------------------------------------
 BYTE   PATT
  POIN2 Label_01198C95
//  #11 //087   ----------------------------------------
 BYTE   PATT
  POIN2 Label_01198C9C
//  #11 //088   ----------------------------------------
 BYTE   PATT
  POIN2 Label_01198CA6
//  #11 //089   ----------------------------------------
 BYTE   W96
//  #11 //090   ----------------------------------------
 BYTE   W96
//  #11 //091   ----------------------------------------
 BYTE   W96
//  #11 //092   ----------------------------------------
 BYTE   W96
//  #11 //093   ----------------------------------------
 BYTE   W96
//  #11 //094   ----------------------------------------
 BYTE   W96
//  #11 //095   ----------------------------------------
 BYTE   W96
//  #11 //096   ----------------------------------------
 BYTE   W96
//  #11 //097   ----------------------------------------
 BYTE   W96
//  #11 //098   ----------------------------------------
 BYTE   W96
//  #11 //099   ----------------------------------------
 BYTE   W96
//  #11 //100   ----------------------------------------
 BYTE   W96
//  #11 //101   ----------------------------------------
 BYTE   W68
 BYTE   W01
 BYTE   N02  Cs2  v104
 BYTE   W03
 BYTE   Fn2
 BYTE   W03
 BYTE   Fs2
 BYTE   W03
 BYTE   Gs2
 BYTE   W03
 BYTE   Cn3
 BYTE   W03
 BYTE   Cs3
 BYTE   W03
 BYTE   Fn3
 BYTE   W03
 BYTE   Fs3
 BYTE   W03
 BYTE   Cs4
 BYTE   W03
//  #11 //102   ----------------------------------------
 BYTE   Ds4
 BYTE   W03
 BYTE   Cs4
 BYTE   W03
 BYTE   Ds4
 BYTE   W03
 BYTE   Cs4
 BYTE   W03
 BYTE   Gs3
 BYTE   W03
 BYTE   Fn3
 BYTE   W03
 BYTE   Cs3
 BYTE   W03
 BYTE   Cn3
 BYTE   W03
 BYTE   As2
 BYTE   W03
 BYTE   Gs2
 BYTE   W03
 BYTE   Fn2
 BYTE   W03
 BYTE   Cs2
 BYTE   W60
 BYTE   W03
//  #11 //103   ----------------------------------------
 BYTE   W96
//  #11 //104   ----------------------------------------
 BYTE   W96
//  #11 //105   ----------------------------------------
 BYTE   W96
//  #11 //106   ----------------------------------------
 BYTE   W96
//  #11 //107   ----------------------------------------
 BYTE   W96
//  #11 //108   ----------------------------------------
 BYTE   W96
//  #11 //109   ----------------------------------------
 BYTE   W96
//  #11 //110   ----------------------------------------
 BYTE   W96
//  #11 //111   ----------------------------------------
 BYTE   W96
//  #11 //112   ----------------------------------------
 BYTE   W96
//  #11 //113   ----------------------------------------
 BYTE   W96
//  #11 //114   ----------------------------------------
 BYTE   W84
 BYTE   N32  Gs2
 BYTE   W06
 BYTE   W06
//  #11 //115   ----------------------------------------
 BYTE   W01
 BYTE   W07
 BYTE   W07
 BYTE   W06
 BYTE   W03
 BYTE   N52  Cn3
 BYTE   W04
 BYTE   W07
 BYTE   W07
 BYTE   W06
 BYTE   W07
 BYTE   W07
 BYTE   W07
 BYTE   W06
 BYTE   W03
 BYTE   N17  Fn3
 BYTE   W04
 BYTE   W07
 BYTE   W07
//  #11 //116   ----------------------------------------
 BYTE   N68
 BYTE   W72
 BYTE   N44  En3
 BYTE   W01
 BYTE   W02
 BYTE   W01
 BYTE   W02
 BYTE   W01
 BYTE   W02
 BYTE   W01
 BYTE   W02
 BYTE   W01
 BYTE   W02
 BYTE   W01
 BYTE   W02
 BYTE   W01
 BYTE   W02
 BYTE   W01
 BYTE   W02
//  #11 //117   ----------------------------------------
 BYTE   W01
 BYTE   W02
 BYTE   W01
 BYTE   W02
 BYTE   W01
 BYTE   W02
 BYTE   W01
 BYTE   W02
 BYTE   W01
 BYTE   W02
 BYTE   W01
 BYTE   W02
 BYTE   W01
 BYTE   W02
 BYTE   W01
 BYTE   W02
 BYTE   W24
 BYTE   GoTo
  POIN2 Label_01198B67
//  #11 //118   ----------------------------------------
 BYTE   W36
 BYTE   N32  Cn3  v104
 BYTE   W12
 BYTE   W24
 BYTE   N52  Gs3
 BYTE   W54
//  #11 //119   ----------------------------------------
 BYTE   N17  Fn3
 BYTE   W18
 BYTE   N68
 BYTE   W72
 BYTE   N44  En3
 BYTE   W24
//  #11 //120   ----------------------------------------
 BYTE   W24
 BYTE   N11  Fn3
 BYTE   W12
 BYTE   Gn3
 BYTE   W12
 BYTE   N68
 BYTE   W48
//  #11 //121   ----------------------------------------
 BYTE   W24
 BYTE   Cn3
 BYTE   W72
//  #11 //122   ----------------------------------------
 BYTE   W36
 BYTE   N32
 BYTE   W36
 BYTE   N52  An3
 BYTE   W24
//  #11 //123   ----------------------------------------
 BYTE   W30
 BYTE   N17  Cn4
 BYTE   W18
 BYTE   N68
 BYTE   W48
//  #11 //124   ----------------------------------------
 BYTE   W24
 BYTE   As3
 BYTE   W72
//  #11 //125   ----------------------------------------
 BYTE   Gs3
 BYTE   W72
 BYTE   Fs3
 BYTE   W24
//  #11 //126   ----------------------------------------
 BYTE   W48
 BYTE   TIE  Fn3
 BYTE   W48
//  #11 //127   ----------------------------------------
 BYTE   W56
 BYTE   W03
 BYTE   EOT
 BYTE   W01
 BYTE   N32  Gs3
 BYTE   W36
//  #11 //128   ----------------------------------------
 BYTE   TIE  As3
 BYTE   W96
//  #11 //129   ----------------------------------------
 BYTE   W11
 BYTE   EOT
 BYTE   W84
 BYTE   W01
//  #11 //130   ----------------------------------------
 BYTE   W96
//  #11 //131   ----------------------------------------
 BYTE   W96
//  #11 //132   ----------------------------------------
 BYTE   W96
//  #11 //133   ----------------------------------------
 BYTE   W96
//  #11 //134   ----------------------------------------
 BYTE   W96
//  #11 //135   ----------------------------------------
 BYTE   W96
//  #11 //136   ----------------------------------------
 BYTE   W96
//  #11 //137   ----------------------------------------
 BYTE   W96
//  #11 //138   ----------------------------------------
 BYTE   W96
//  #11 //139   ----------------------------------------
 BYTE   W96
//  #11 //140   ----------------------------------------
 BYTE   W96
//  #11 //141   ----------------------------------------
 BYTE   W48
 BYTE   N68  Gs3
 BYTE   W48
//  #11 //142   ----------------------------------------
 BYTE   W24
 BYTE   N17
 BYTE   W18
 BYTE   Fs3
 BYTE   W18
 BYTE   Gs3
 BYTE   W18
 BYTE   Cs4
 BYTE   W18
//  #11 //143   ----------------------------------------
 BYTE   Bn3
 BYTE   W18
 BYTE   Fs3
 BYTE   W18
 BYTE   N56  Ds3
 BYTE   W60
//  #11 //144   ----------------------------------------
 BYTE   W12
 BYTE   N32  En3
 BYTE   W36
 BYTE   N68  Fs3
 BYTE   W48
//  #11 //145   ----------------------------------------
 BYTE   W24
 BYTE   N17
 BYTE   W18
 BYTE   En3
 BYTE   W18
 BYTE   Fs3
 BYTE   W18
 BYTE   Bn3
 BYTE   W18
//  #11 //146   ----------------------------------------
 BYTE   TIE  Gs3
 BYTE   W96
//  #11 //147   ----------------------------------------
 BYTE   W05
 BYTE   EOT
 BYTE   W07
 BYTE   N32  Bn2
 BYTE   W36
 BYTE   N68  Bn3
 BYTE   W48
//  #11 //148   ----------------------------------------
 BYTE   W24
 BYTE   N17
 BYTE   W18
 BYTE   An3
 BYTE   W18
 BYTE   Bn3
 BYTE   W18
 BYTE   En4
 BYTE   W18
//  #11 //149   ----------------------------------------
 BYTE   Dn4
 BYTE   W18
 BYTE   An3
 BYTE   W18
 BYTE   N56  Fs3
 BYTE   W60
//  #11 //150   ----------------------------------------
 BYTE   W12
 BYTE   N17
 BYTE   W18
 BYTE   Gn3
 BYTE   W18
 BYTE   N68  An3
 BYTE   W48
//  #11 //151   ----------------------------------------
 BYTE   W24
 BYTE   Gs3
 BYTE   W72
//  #11 //152   ----------------------------------------
 BYTE   W36
 BYTE   N32  Bn2
 BYTE   W36
 BYTE   N68  En3
 BYTE   W24
//  #11 //153   ----------------------------------------
 BYTE   W48
 BYTE   Bn3
 BYTE   W48
//  #11 //154   ----------------------------------------
 BYTE   W24
 BYTE   N52  An3
 BYTE   W54
 BYTE   N17  En3
 BYTE   W18
//  #11 //155   ----------------------------------------
 BYTE   N68  Bn3
 BYTE   W72
 BYTE   An3
 BYTE   W24
//  #11 //156   ----------------------------------------
 BYTE   W84
 BYTE   N32  Fs3
 BYTE   W12
//  #11 //157   ----------------------------------------
 BYTE   W24
 BYTE   N32
 BYTE   W72
//  #11 //158   ----------------------------------------
 BYTE   N32
 BYTE   W36
 BYTE   N32
 BYTE   W60
//  #11 //159   ----------------------------------------
 BYTE   PATT
  POIN2 Label_01198C19
//  #11 //160   ----------------------------------------
 BYTE   PATT
  POIN2 Label_01198C21
//  #11 //161   ----------------------------------------
 BYTE   W36
 BYTE   N32  Ds3  v104
 BYTE   W36
 BYTE   N32
 BYTE   W24
//  #11 //162   ----------------------------------------
 BYTE   W48
 BYTE   N32
 BYTE   W36
 BYTE   N17  Fs3
 BYTE   W12
//  #11 //163   ----------------------------------------
 BYTE   W06
 BYTE   En3
 BYTE   W18
 BYTE   TIE  Ds3
 BYTE   W01
 BYTE   W01
 BYTE   W01
 BYTE   W01
 BYTE   W01
 BYTE   W01
 BYTE   W01
 BYTE   W01
 BYTE   W01
 BYTE   W01
 BYTE   W01
 BYTE   W01
 BYTE   W01
 BYTE   W01
 BYTE   W01
 BYTE   W01
 BYTE   W01
 BYTE   W01
 BYTE   W01
 BYTE   W01
 BYTE   W02
 BYTE   W02
 BYTE   W01
 BYTE   W02
 BYTE   W01
 BYTE   W02
 BYTE   W02
 BYTE   W01
 BYTE   W02
 BYTE   W01
 BYTE   W02
 BYTE   W02
 BYTE   W01
 BYTE   W02
 BYTE   W01
 BYTE   W02
 BYTE   W02
 BYTE   W01
 BYTE   W02
 BYTE   W01
 BYTE   W02
 BYTE   W02
 BYTE   W01
 BYTE   W02
 BYTE   W01
 BYTE   W02
 BYTE   W02
 BYTE   W01
 BYTE   W02
 BYTE   W01
 BYTE   W02
 BYTE   W02
//  #11 //164   ----------------------------------------
 BYTE   W01
 BYTE   W02
 BYTE   W01
 BYTE   W02
 BYTE   W02
 BYTE   W01
 BYTE   W02
 BYTE   W01
 BYTE   W02
 BYTE   W02
 BYTE   W01
 BYTE   W02
 BYTE   W01
 BYTE   W02
 BYTE   W02
 BYTE   W11
 BYTE   EOT
 BYTE   W60
 BYTE   W01
//  #11 //165   ----------------------------------------
 BYTE   W84
 BYTE   N32  Ds2
 BYTE   W12
//  #11 //166   ----------------------------------------
 BYTE   W24
 BYTE   N68  Ds3
 BYTE   W72
//  #11 //167   ----------------------------------------
Label_01198EA5:
 BYTE   W36
 BYTE   N32  Ds2  v104
 BYTE   W36
 BYTE   N68  Ds3
 BYTE   W24
 BYTE   PEND 
//  #11 //168   ----------------------------------------
 BYTE   W48
 BYTE   Gs3
 BYTE   W48
//  #11 //169   ----------------------------------------
Label_01198EB1:
 BYTE   W24
 BYTE   N17  Fs3  v104
 BYTE   W18
 BYTE   En3
 BYTE   W18
 BYTE   Bn2
 BYTE   W18
 BYTE   Cs3
 BYTE   W18
 BYTE   PEND 
//  #11 //170   ----------------------------------------
Label_01198EBD:
 BYTE   N32  En3  v104
 BYTE   W36
 BYTE   N92  Ds3
 BYTE   W60
 BYTE   PEND 
//  #11 //171   ----------------------------------------
 BYTE   W48
 BYTE   N68
 BYTE   W48
//  #11 //172   ----------------------------------------
 BYTE   W24
 BYTE   N17  Cs3
 BYTE   W18
 BYTE   Bn2
 BYTE   W18
 BYTE   Cs3
 BYTE   W18
 BYTE   Fs3
 BYTE   W18
//  #11 //173   ----------------------------------------
 BYTE   Ds3
 BYTE   W18
 BYTE   Bn2
 BYTE   W18
 BYTE   N68  Gs2
 BYTE   W60
//  #11 //174   ----------------------------------------
 BYTE   W30
 BYTE   N17  Fs2
 BYTE   W18
 BYTE   N32  Gs2
 BYTE   W36
 BYTE   N88  Ds3
 BYTE   W12
//  #11 //175   ----------------------------------------
 BYTE   W78
 BYTE   N17  Fs2
 BYTE   W18
//  #11 //176   ----------------------------------------
 BYTE   N32  Gs2
 BYTE   W36
 BYTE   N68  Ds3
 BYTE   W60
//  #11 //177   ----------------------------------------
 BYTE   W12
 BYTE   N32
 BYTE   W72
 BYTE   Ds2
 BYTE   W12
//  #11 //178   ----------------------------------------
 BYTE   W24
 BYTE   N68  Ds3
 BYTE   W72
//  #11 //179   ----------------------------------------
 BYTE   PATT
  POIN2 Label_01198EA5
//  #11 //180   ----------------------------------------
 BYTE   W48
 BYTE   N68  Gs3  v104
 BYTE   W48
//  #11 //181   ----------------------------------------
 BYTE   PATT
  POIN2 Label_01198EB1
//  #11 //182   ----------------------------------------
 BYTE   PATT
  POIN2 Label_01198EBD
//  #11 //183   ----------------------------------------
 BYTE   W96
//  #11 //184   ----------------------------------------
 BYTE   W96
//  #11 //185   ----------------------------------------
 BYTE   W96
//  #11 //186   ----------------------------------------
 BYTE   W96
//  #11 //187   ----------------------------------------
 BYTE   W96
//  #11 //188   ----------------------------------------
 BYTE   W96
//  #11 //189   ----------------------------------------
 BYTE   W96
//  #11 //190   ----------------------------------------
 BYTE   W96
//  #11 //191   ----------------------------------------
 BYTE   W96
//  #11 //192   ----------------------------------------
 BYTE   W96
//  #11 //193   ----------------------------------------
 BYTE   W96
//  #11 //194   ----------------------------------------
 BYTE   W96
//  #11 //195   ----------------------------------------
 BYTE   W44
 BYTE   W01
 BYTE   N02  Cs2  v104
 BYTE   W03
 BYTE   Fn2
 BYTE   W03
 BYTE   Fs2
 BYTE   W03
 BYTE   Gs2
 BYTE   W03
 BYTE   Cn3
 BYTE   W03
 BYTE   Cs3
 BYTE   W03
 BYTE   Fn3
 BYTE   W03
 BYTE   Fs3
 BYTE   W03
 BYTE   Cs4
 BYTE   W03
 BYTE   Ds4
 BYTE   W03
 BYTE   Cs4
 BYTE   W03
 BYTE   Ds4
 BYTE   W03
 BYTE   Cs4
 BYTE   W03
 BYTE   Gs3
 BYTE   W03
 BYTE   Fn3
 BYTE   W03
 BYTE   Cs3
 BYTE   W03
 BYTE   Cn3
 BYTE   W03
//  #11 //196   ----------------------------------------
 BYTE   As2
 BYTE   W03
 BYTE   Gs2
 BYTE   W03
 BYTE   Fn2
 BYTE   W03
 BYTE   Cs2
 BYTE   W02
 BYTE   FINE

//**************** Track 12 (Midi-Chn.11) ****************//

FireEmblemEngage_FallenPetalsNew_012:
//  #12 //000   ----------------------------------------
 BYTE   KEYSH   FireEmblemEngage_FallenPetalsNew_key+0
 BYTE   VOICE   39
 BYTE   MODT 0
 BYTE   LFOS 44
 BYTE   VOL   13*FireEmblemEngage_FallenPetalsNew_mvl/mxv
 BYTE   PAN   c_v+0
 BYTE   W24
 BYTE   N05  Ds4  v104
 BYTE   W06
 BYTE   Dn4
 BYTE   W06
 BYTE   Bn3
 BYTE   W06
 BYTE   Gn3
 BYTE   W06
 BYTE   Ds4
 BYTE   W06
 BYTE   Dn4
 BYTE   W06
 BYTE   Bn3
 BYTE   W06
 BYTE   Gn3
 BYTE   W06
 BYTE   Ds4
 BYTE   W06
 BYTE   Dn4
 BYTE   W06
 BYTE   Bn3
 BYTE   W06
 BYTE   Gn3
 BYTE   W06
//  #12 //001   ----------------------------------------
 BYTE   Ds4
 BYTE   W06
 BYTE   Dn4
 BYTE   W06
 BYTE   Bn3
 BYTE   W06
 BYTE   Gn3
 BYTE   W06
 BYTE   Ds4
 BYTE   W06
 BYTE   Dn4
 BYTE   W06
 BYTE   As3
 BYTE   W06
 BYTE   Fn3
 BYTE   W06
 BYTE   Ds4
 BYTE   W06
 BYTE   Dn4
 BYTE   W06
 BYTE   As3
 BYTE   W06
 BYTE   Fn3
 BYTE   W06
 BYTE   Ds4
 BYTE   W06
 BYTE   Dn4
 BYTE   W06
 BYTE   As3
 BYTE   W06
 BYTE   Fn3
 BYTE   W06
//  #12 //002   ----------------------------------------
 BYTE   Ds4
 BYTE   W06
 BYTE   Dn4
 BYTE   W06
 BYTE   As3
 BYTE   W06
 BYTE   Fn3
 BYTE   W06
 BYTE   En4
 BYTE   W06
 BYTE   Ds4
 BYTE   W06
 BYTE   Cs4
 BYTE   W06
 BYTE   Gs3
 BYTE   W06
 BYTE   En4
 BYTE   W06
 BYTE   Ds4
 BYTE   W06
 BYTE   Cs4
 BYTE   W06
 BYTE   Gs3
 BYTE   W06
 BYTE   En4
 BYTE   W06
 BYTE   Ds4
 BYTE   W06
 BYTE   Cs4
 BYTE   W06
 BYTE   Gs3
 BYTE   W06
//  #12 //003   ----------------------------------------
 BYTE   En4
 BYTE   W06
 BYTE   Ds4
 BYTE   W06
 BYTE   Cs4
 BYTE   W06
 BYTE   Gs3
 BYTE   W06
 BYTE   En4
 BYTE   W06
 BYTE   Ds4
 BYTE   W06
 BYTE   Bn3
 BYTE   W06
 BYTE   Gn3
 BYTE   W06
 BYTE   En4
 BYTE   W06
 BYTE   Ds4
 BYTE   W06
 BYTE   Bn3
 BYTE   W06
 BYTE   Gn3
 BYTE   W06
 BYTE   En4
 BYTE   W06
 BYTE   Ds4
 BYTE   W06
 BYTE   Bn3
 BYTE   W06
 BYTE   Gn3
 BYTE   W06
//  #12 //004   ----------------------------------------
 BYTE   En4
 BYTE   W06
 BYTE   Ds4
 BYTE   W06
 BYTE   Bn3
 BYTE   W06
 BYTE   Gn3
 BYTE   W06
 BYTE   Dn4
 BYTE   W06
 BYTE   Cs4
 BYTE   W06
 BYTE   Gn3
 BYTE   W06
 BYTE   Dn3
 BYTE   W06
 BYTE   Dn4
 BYTE   W06
 BYTE   Cs4
 BYTE   W06
 BYTE   Gn3
 BYTE   W06
 BYTE   Dn3
 BYTE   W06
 BYTE   Dn4
 BYTE   W06
 BYTE   Cs4
 BYTE   W06
 BYTE   Gn3
 BYTE   W06
 BYTE   Dn3
 BYTE   W06
//  #12 //005   ----------------------------------------
 BYTE   Dn4
 BYTE   W06
 BYTE   Cs4
 BYTE   W06
 BYTE   Gn3
 BYTE   W06
 BYTE   Dn3
 BYTE   W78
//  #12 //006   ----------------------------------------
 BYTE   N11  Dn4
 BYTE   W12
 BYTE   En4
 BYTE   W12
 BYTE   N44  Fn4
 BYTE   W48
 BYTE   Gn4
 BYTE   W24
//  #12 //007   ----------------------------------------
 BYTE   W24
 BYTE   Gs4
 BYTE   W48
 BYTE   N92  Cs5
 BYTE   W24
//  #12 //008   ----------------------------------------
 BYTE   W24
 BYTE   W08
 BYTE   N07  Fs6
 BYTE   W08
 BYTE   En6
 BYTE   W08
 BYTE   N01  Gn3
 BYTE   N03  Ds6
 BYTE   W02
 BYTE   N01  Cn3
 BYTE   W01
 BYTE   N03  As5
 BYTE   W01
 BYTE   N01  Fn3
 BYTE   W02
 BYTE   Gs2
 BYTE   N03  Cs6
 BYTE   W02
 BYTE   N01  Cs3
 BYTE   W02
 BYTE   Gn2
 BYTE   N03  Fn5
 BYTE   W02
 BYTE   N01  Cn3
 BYTE   W01
 BYTE   N03  Gn5
 BYTE   W01
 BYTE   N01  Ds2
 BYTE   W02
 BYTE   Fn2
 BYTE   W01
 BYTE   N03  En5
 BYTE   W01
 BYTE   N01  Cn2
 BYTE   W02
 BYTE   As2
 BYTE   N03  En4
 BYTE   W02
 BYTE   N01  En2
 BYTE   W02
 BYTE   N05  Gn1
 BYTE   TIE  Cn5
 BYTE   W06
 BYTE   N05  Cn2
 BYTE   W06
 BYTE   Fn2
 BYTE   W06
 BYTE   Gs2
 BYTE   W06
//  #12 //009   ----------------------------------------
 BYTE   Cn3
 BYTE   W06
 BYTE   Ds3
 BYTE   W06
 BYTE   Fn1
 BYTE   W06
 BYTE   Cn2
 BYTE   W06
 BYTE   Fn2
 BYTE   W01
 BYTE   W05
 BYTE   Gs2
 BYTE   W01
 BYTE   W05
 BYTE   Cn3
 BYTE   W01
 BYTE   W05
 BYTE   Ds3
 BYTE   W01
 BYTE   W05
 BYTE   Gn3
 BYTE   W01
 BYTE   W05
 BYTE   Ds3
 BYTE   W01
 BYTE   W05
 BYTE   Cn3
 BYTE   W01
 BYTE   W05
 BYTE   Ds3
 BYTE   W01
 BYTE   W05
 BYTE   Cn3
 BYTE   W02
 BYTE   W04
 BYTE   Gs2
 BYTE   W02
 BYTE   W04
 BYTE   Fn2
 BYTE   W02
 BYTE   W04
 BYTE   Gs2
 BYTE   W02
 BYTE   W04
//  #12 //010   ----------------------------------------
 BYTE   As2
 BYTE   W02
 BYTE   W04
 BYTE   Cn3
 BYTE   W02
 BYTE   W04
 BYTE   Gs2
 BYTE   W02
 BYTE   W04
 BYTE   Fn2
 BYTE   W02
 BYTE   W04
 BYTE   Fn1
 BYTE   W03
 BYTE   W03
 BYTE   Cn2
 BYTE   W03
 BYTE   W03
 BYTE   Fn2
 BYTE   W03
 BYTE   W03
 BYTE   Gs2
 BYTE   W03
 BYTE   W03
 BYTE   Cn3
 BYTE   W03
 BYTE   W03
 BYTE   Cs3
 BYTE   W03
 BYTE   W03
 BYTE   Fn1
 BYTE   W03
 BYTE   W03
 BYTE   Cn2
 BYTE   W04
 BYTE   W02
 BYTE   Fn2
 BYTE   W04
 BYTE   W02
 BYTE   Gs2
 BYTE   W04
 BYTE   W02
 BYTE   Cn3
 BYTE   W04
 BYTE   W02
 BYTE   Cs3
 BYTE   W04
 BYTE   W02
//  #12 //011   ----------------------------------------
 BYTE   Gn3
 BYTE   W04
 BYTE   W02
 BYTE   Cs3
 BYTE   W04
 BYTE   W02
 BYTE   Cn3
 BYTE   W04
 BYTE   W02
 BYTE   Cs3
 BYTE   W05
 BYTE   W01
 BYTE   Cn3
 BYTE   W05
 BYTE   W01
 BYTE   Gs2
 BYTE   W05
 BYTE   W01
 BYTE   Fn2
 BYTE   W05
 BYTE   W01
 BYTE   Cs2
 BYTE   W05
 BYTE   W01
 BYTE   Cn2
 BYTE   W05
 BYTE   W01
 BYTE   Gs1
 BYTE   W05
 BYTE   W01
 BYTE   Fn1
 BYTE   W05
 BYTE   W01
 BYTE   Cs2
 BYTE   W05
 BYTE   EOT
 BYTE   Cn5
 BYTE   W01
 BYTE   N05  Fn1
 BYTE   W06
 BYTE   Cn2
 BYTE   W06
 BYTE   Fn2
 BYTE   W06
 BYTE   Gs2
 BYTE   W06
//  #12 //012   ----------------------------------------
 BYTE   Cn3
 BYTE   W06
 BYTE   Fn3
 BYTE   W06
 BYTE   Fn1
 BYTE   W06
 BYTE   Cn2
 BYTE   W06
 BYTE   Fn2
 BYTE   W06
 BYTE   Gs2
 BYTE   W06
 BYTE   Cn3
 BYTE   W06
 BYTE   Fn3
 BYTE   W06
 BYTE   Gs3
 BYTE   W06
 BYTE   Fn3
 BYTE   W06
 BYTE   Cn3
 BYTE   W06
 BYTE   Gs2
 BYTE   W06
 BYTE   Fn2
 BYTE   W06
 BYTE   Cn2
 BYTE   W06
 BYTE   Fn1
 BYTE   W06
 BYTE   Cn2
 BYTE   W06
//  #12 //013   ----------------------------------------
 BYTE   Fn2
 BYTE   W06
 BYTE   Gs2
 BYTE   W06
 BYTE   As2
 BYTE   W06
 BYTE   Cn3
 BYTE   W06
 BYTE   Gn1
 BYTE   W06
 BYTE   As1
 BYTE   W06
 BYTE   En2
 BYTE   W06
 BYTE   Gn2
 BYTE   W06
 BYTE   Cn3
 BYTE   W06
 BYTE   Cs3
 BYTE   W06
 BYTE   Gn1
 BYTE   W06
 BYTE   As1
 BYTE   W06
 BYTE   En2
 BYTE   W06
 BYTE   Gn2
 BYTE   W06
 BYTE   Cn3
 BYTE   W06
 BYTE   Cs3
 BYTE   W06
//  #12 //014   ----------------------------------------
 BYTE   En3
 BYTE   W06
 BYTE   Gn3
 BYTE   W06
 BYTE   As3
 BYTE   W06
 BYTE   Gn3
 BYTE   W06
 BYTE   En3
 BYTE   W06
 BYTE   Gn3
 BYTE   W06
 BYTE   En3
 BYTE   W06
 BYTE   Cn3
 BYTE   W06
 BYTE   En3
 BYTE   W06
 BYTE   Cn3
 BYTE   W06
 BYTE   Gn2
 BYTE   W06
 BYTE   En2
 BYTE   W06
 BYTE   Gs1
 BYTE   W06
 BYTE   Cn2
 BYTE   W06
 BYTE   Fn2
 BYTE   W06
 BYTE   Gs2
 BYTE   W06
//  #12 //015   ----------------------------------------
 BYTE   Cn3
 BYTE   W06
 BYTE   Ds3
 BYTE   W06
 BYTE   Gs1
 BYTE   W06
 BYTE   Cn2
 BYTE   W06
 BYTE   Fn2
 BYTE   W06
 BYTE   Gs2
 BYTE   W06
 BYTE   Cn3
 BYTE   W06
 BYTE   Fn3
 BYTE   W06
 BYTE   Cn4
 BYTE   W06
 BYTE   Gs3
 BYTE   W06
 BYTE   Fn3
 BYTE   W06
 BYTE   Gs3
 BYTE   W06
 BYTE   Fn3
 BYTE   W06
 BYTE   Cn3
 BYTE   W06
 BYTE   Gs2
 BYTE   W06
 BYTE   Cn3
 BYTE   W06
//  #12 //016   ----------------------------------------
 BYTE   Fn3
 BYTE   W06
 BYTE   Gs3
 BYTE   W06
 BYTE   Fn3
 BYTE   W06
 BYTE   Cn3
 BYTE   W06
 BYTE   An1
 BYTE   W06
 BYTE   Fn2
 BYTE   W06
 BYTE   An2
 BYTE   W06
 BYTE   Cn3
 BYTE   W06
 BYTE   Fn3
 BYTE   W06
 BYTE   An3
 BYTE   W06
 BYTE   An1
 BYTE   N18  Cn3
 BYTE   W06
 BYTE   N05  Fn2
 BYTE   W06
 BYTE   An2
 BYTE   W06
 BYTE   Cn3
 BYTE   W06
 BYTE   Fn3
 BYTE   W06
 BYTE   Cs4
 BYTE   W06
//  #12 //017   ----------------------------------------
 BYTE   N12  Fn3
 BYTE   N05  Cn4
 BYTE   W06
 BYTE   An3
 BYTE   W06
 BYTE   Fn3
 BYTE   W06
 BYTE   Cn3
 BYTE   W06
 BYTE   Fn3
 BYTE   W06
 BYTE   An3
 BYTE   W06
 BYTE   An1
 BYTE   W06
 BYTE   Fn2
 BYTE   W06
 BYTE   An2
 BYTE   W06
 BYTE   Cn3
 BYTE   N17  Cn4
 BYTE   W06
 BYTE   N05  Fn3
 BYTE   W06
 BYTE   An3
 BYTE   W06
 BYTE   As1
 BYTE   N68  Cn4
 BYTE   W06
 BYTE   N05  Cs2
 BYTE   W06
 BYTE   Fn2
 BYTE   W06
 BYTE   As2
 BYTE   W06
//  #12 //018   ----------------------------------------
 BYTE   Cs3
 BYTE   W06
 BYTE   Fn3
 BYTE   W06
 BYTE   Cs3
 BYTE   W06
 BYTE   Fn3
 BYTE   W06
 BYTE   As3
 BYTE   W06
 BYTE   Cs4
 BYTE   W06
 BYTE   Fn4
 BYTE   W06
 BYTE   As4
 BYTE   W06
 BYTE   N24  As3
 BYTE   N05  Cs5
 BYTE   W06
 BYTE   As4
 BYTE   W06
 BYTE   Fn4
 BYTE   W06
 BYTE   Cs4
 BYTE   W06
 BYTE   As3
 BYTE   W06
 BYTE   Fn3
 BYTE   W06
 BYTE   Cs3
 BYTE   W06
 BYTE   As2
 BYTE   W06
//  #12 //019   ----------------------------------------
 BYTE   Fn2
 BYTE   W06
 BYTE   Cs2
 BYTE   W06
 BYTE   As1
 BYTE   W06
 BYTE   Fn1
 BYTE   W06
 BYTE   Bn1
 BYTE   N68  Gs3
 BYTE   W06
 BYTE   N05  Dn2
 BYTE   W06
 BYTE   Fs2
 BYTE   W06
 BYTE   Bn2
 BYTE   W06
 BYTE   Dn3
 BYTE   W06
 BYTE   Fs3
 BYTE   W06
 BYTE   Dn3
 BYTE   W06
 BYTE   Fs3
 BYTE   W06
 BYTE   Bn3
 BYTE   W06
 BYTE   Dn4
 BYTE   W06
 BYTE   Fs4
 BYTE   W06
 BYTE   Bn4
 BYTE   W06
//  #12 //020   ----------------------------------------
 BYTE   N44  Gn3
 BYTE   N05  Dn5
 BYTE   W06
 BYTE   Bn4
 BYTE   W06
 BYTE   Fs4
 BYTE   W06
 BYTE   Dn4
 BYTE   W06
 BYTE   Bn3
 BYTE   W06
 BYTE   Fs3
 BYTE   W06
 BYTE   Dn3
 BYTE   W06
 BYTE   Bn2
 BYTE   W06
 BYTE   Fs2
 BYTE   N11  Fn3
 BYTE   W06
 BYTE   N05  Dn2
 BYTE   W06
 BYTE   Bn1
 BYTE   N11  Gn3
 BYTE   W06
 BYTE   N05  Fs1
 BYTE   W06
 BYTE   Fn3
 BYTE   N06  Gs3
 BYTE   W06
 BYTE   N05
 BYTE   W06
 BYTE   Fn3
 BYTE   W06
 BYTE   Gs3
 BYTE   W06
//  #12 //021   ----------------------------------------
 BYTE   Fn3
 BYTE   W06
 BYTE   Cn3
 BYTE   W06
 BYTE   Fn3
 BYTE   W06
 BYTE   Gs3
 BYTE   W06
 BYTE   As3
 BYTE   W06
 BYTE   Cn4
 BYTE   W06
 BYTE   Gs3
 BYTE   W06
 BYTE   Fn3
 BYTE   W06
 BYTE   Fn4
 BYTE   W06
 BYTE   Cn4
 BYTE   W06
 BYTE   Gs3
 BYTE   W06
 BYTE   Cn4
 BYTE   W06
 BYTE   Gs3
 BYTE   W06
 BYTE   Fn3
 BYTE   W06
 BYTE   Cn3
 BYTE   N32  As3
 BYTE   W06
 BYTE   N05  Gs3
 BYTE   W06
//  #12 //022   ----------------------------------------
 BYTE   Fn3
 BYTE   W06
 BYTE   Cn4
 BYTE   W06
 BYTE   Gs3
 BYTE   W06
 BYTE   Fn3
 BYTE   W06
 BYTE   Cn3
 BYTE   N18  Gn3
 BYTE   W06
 BYTE   N05  En3
 BYTE   W06
 BYTE   Fn3
 BYTE   W06
 BYTE   Gn3
 BYTE   W06
 BYTE   Gs3
 BYTE   W06
 BYTE   As3
 BYTE   W06
 BYTE   Gn3
 BYTE   W06
 BYTE   Gs3
 BYTE   W06
 BYTE   Cn4
 BYTE   W06
 BYTE   Fn4
 BYTE   W06
 BYTE   Cn5
 BYTE   W06
 BYTE   Fn5
 BYTE   W06
//  #12 //023   ----------------------------------------
 BYTE   N02  Cn6
 BYTE   W03
 BYTE   As5
 BYTE   W03
 BYTE   Gn5
 BYTE   W03
 BYTE   En5
 BYTE   W03
 BYTE   Cn5
 BYTE   W03
 BYTE   As4
 BYTE   W03
 BYTE   Gn4
 BYTE   W03
 BYTE   En4
 BYTE   W03
 BYTE   Cs4
 BYTE   W03
 BYTE   Cn4
 BYTE   W03
 BYTE   As3
 BYTE   W03
 BYTE   Gn3
 BYTE   W03
 BYTE   En3
 BYTE   W03
 BYTE   Cs3
 BYTE   W03
 BYTE   Cn3
 BYTE   W03
 BYTE   As2
 BYTE   W03
 BYTE   Gn2
 BYTE   W03
 BYTE   Fn2
 BYTE   W03
 BYTE   En2
 BYTE   W03
 BYTE   Cs2
 BYTE   W03
 BYTE   Cn2
 BYTE   W03
 BYTE   As1
 BYTE   W03
 BYTE   Gs1
 BYTE   W03
 BYTE   Gn1
 BYTE   W03
Label_011968A2:
 BYTE   W24
//  #12 //024   ----------------------------------------
 BYTE   W12
 BYTE   W84
//  #12 //025   ----------------------------------------
 BYTE   W96
//  #12 //026   ----------------------------------------
 BYTE   W96
//  #12 //027   ----------------------------------------
 BYTE   W96
//  #12 //028   ----------------------------------------
 BYTE   W96
//  #12 //029   ----------------------------------------
 BYTE   W96
//  #12 //030   ----------------------------------------
 BYTE   W96
//  #12 //031   ----------------------------------------
 BYTE   W96
//  #12 //032   ----------------------------------------
 BYTE   W96
//  #12 //033   ----------------------------------------
 BYTE   W96
//  #12 //034   ----------------------------------------
 BYTE   W96
//  #12 //035   ----------------------------------------
 BYTE   W96
//  #12 //036   ----------------------------------------
 BYTE   W96
//  #12 //037   ----------------------------------------
 BYTE   W96
//  #12 //038   ----------------------------------------
 BYTE   W72
 BYTE   N68  Ds3  v104
 BYTE   W24
//  #12 //039   ----------------------------------------
 BYTE   W66
 BYTE   N17
 BYTE   W18
 BYTE   N17
 BYTE   W12
//  #12 //040   ----------------------------------------
 BYTE   W06
 BYTE   Fn3
 BYTE   W18
 BYTE   N23  Gn3
 BYTE   W24
 BYTE   Ds3
 BYTE   W24
 BYTE   As2
 BYTE   W24
//  #12 //041   ----------------------------------------
 BYTE   Ds3
 BYTE   W24
 BYTE   As2
 BYTE   W24
 BYTE   Gn2
 BYTE   W24
 BYTE   N68  As2
 BYTE   W24
//  #12 //042   ----------------------------------------
 BYTE   W48
 BYTE   N44  Cs3
 BYTE   W48
//  #12 //043   ----------------------------------------
 BYTE   N23  Ds3
 BYTE   W24
 BYTE   N68  Fn3
 BYTE   W72
//  #12 //044   ----------------------------------------
 BYTE   Gs3
 BYTE   W72
 BYTE   TIE  Gn3
 BYTE   W24
//  #12 //045   ----------------------------------------
 BYTE   W80
 BYTE   W03
 BYTE   EOT
 BYTE   W01
 BYTE   N17
 BYTE   W12
//  #12 //046   ----------------------------------------
 BYTE   W06
 BYTE   Gs3
 BYTE   W18
 BYTE   N23  As3
 BYTE   W24
 BYTE   Fs3
 BYTE   W24
 BYTE   Fn3
 BYTE   W04
 BYTE   W05
 BYTE   W04
 BYTE   W05
 BYTE   W04
 BYTE   W02
//  #12 //047   ----------------------------------------
 BYTE   Ds3
 BYTE   W03
 BYTE   W04
 BYTE   W05
 BYTE   W04
 BYTE   W05
 BYTE   W03
 BYTE   Cs3
 BYTE   W01
 BYTE   W05
 BYTE   W04
 BYTE   W05
 BYTE   W04
 BYTE   W05
 BYTE   Cn3
 BYTE   W24
 BYTE   N68  Gs4
 BYTE   W24
//  #12 //048   ----------------------------------------
 BYTE   W48
 BYTE   N17
 BYTE   W18
 BYTE   Fs4
 BYTE   W18
 BYTE   Gs4
 BYTE   W12
//  #12 //049   ----------------------------------------
 BYTE   W06
 BYTE   Cs5
 BYTE   W18
 BYTE   Bn4
 BYTE   W18
 BYTE   Fs4
 BYTE   W18
 BYTE   N56  Ds4
 BYTE   W36
//  #12 //050   ----------------------------------------
 BYTE   W36
 BYTE   N32  En4
 BYTE   W36
 BYTE   N68  Fs4
 BYTE   W24
//  #12 //051   ----------------------------------------
 BYTE   W48
 BYTE   N17
 BYTE   W18
 BYTE   En4
 BYTE   W18
 BYTE   Fs4
 BYTE   W12
//  #12 //052   ----------------------------------------
 BYTE   W06
 BYTE   Bn4
 BYTE   W18
 BYTE   TIE  Gs4
 BYTE   W09
 BYTE   W09
 BYTE   W09
 BYTE   W09
 BYTE   W09
 BYTE   W09
 BYTE   W09
 BYTE   W09
//  #12 //053   ----------------------------------------
 BYTE   W09
 BYTE   W09
 BYTE   W09
 BYTE   W09
 BYTE   W09
 BYTE   W09
 BYTE   W09
 BYTE   W08
 BYTE   EOT
 BYTE   W01
 BYTE   N68  Gn3
 BYTE   W24
//  #12 //054   ----------------------------------------
 BYTE   W48
 BYTE   N32  En3
 BYTE   W48
//  #12 //055   ----------------------------------------
 BYTE   W96
//  #12 //056   ----------------------------------------
 BYTE   W36
 BYTE   W36
 BYTE   N68  An4
 BYTE   W24
//  #12 //057   ----------------------------------------
 BYTE   W48
 BYTE   Gs4
 BYTE   W48
//  #12 //058   ----------------------------------------
 BYTE   W60
 BYTE   N32
 BYTE   W06
 BYTE   W07
 BYTE   W07
 BYTE   W07
 BYTE   W06
 BYTE   W03
//  #12 //059   ----------------------------------------
 BYTE   N52  An4
 BYTE   W04
 BYTE   W07
 BYTE   W07
 BYTE   W06
 BYTE   W07
 BYTE   W07
 BYTE   W07
 BYTE   W06
 BYTE   W03
 BYTE   N17  Bn4
 BYTE   W04
 BYTE   W07
 BYTE   W07
 BYTE   N68
 BYTE   W24
//  #12 //060   ----------------------------------------
 BYTE   W48
 BYTE   N52  An4
 BYTE   W48
//  #12 //061   ----------------------------------------
 BYTE   W06
 BYTE   N17  En4
 BYTE   W18
 BYTE   N68  Bn4
 BYTE   W72
//  #12 //062   ----------------------------------------
 BYTE   N17  En4
 BYTE   W18
 BYTE   An4
 BYTE   W18
 BYTE   En4
 BYTE   W18
 BYTE   An4
 BYTE   W18
 BYTE   N68  Bn0
 BYTE   N05  Bn4
 BYTE   W18
 BYTE   N05
 BYTE   W06
//  #12 //063   ----------------------------------------
Label_01196981:
 BYTE   N05  Bn4  v104
 BYTE   W06
 BYTE   N05
 BYTE   W06
 BYTE   N05
 BYTE   W18
 BYTE   N05
 BYTE   W06
 BYTE   N05
 BYTE   W06
 BYTE   N05
 BYTE   W06
 BYTE   N17  Bn0
 BYTE   N17  Fs3
 BYTE   N17  Bn3
 BYTE   N05  Bn4
 BYTE   W06
 BYTE   N05
 BYTE   W06
 BYTE   N05
 BYTE   W06
 BYTE   N17  Cn1
 BYTE   N17  Gn3
 BYTE   N17  Cn4
 BYTE   N05  Bn4
 BYTE   W06
 BYTE   N05
 BYTE   W06
 BYTE   N05
 BYTE   W06
 BYTE   N52  Bn0
 BYTE   N05  Bn4
 BYTE   W12
 BYTE   PEND 
//  #12 //064   ----------------------------------------
 BYTE   W06
 BYTE   N05
 BYTE   W06
 BYTE   N05
 BYTE   W06
 BYTE   N05
 BYTE   W06
 BYTE   N05
 BYTE   W18
 BYTE   N17  Bn0
 BYTE   N05  Bn4
 BYTE   W06
 BYTE   N05
 BYTE   W06
 BYTE   N05
 BYTE   W06
 BYTE   N17  Bn0
 BYTE   N17  An3
 BYTE   N17  Dn4
 BYTE   N05  Bn4
 BYTE   W06
 BYTE   N05
 BYTE   W06
 BYTE   N05
 BYTE   W06
 BYTE   N17  Fs0
 BYTE   N17  Gn3
 BYTE   N17  Cn4
 BYTE   N05  Bn4
 BYTE   W06
 BYTE   N05
 BYTE   W06
 BYTE   N05
 BYTE   W06
//  #12 //065   ----------------------------------------
 BYTE   N68  Bn0
 BYTE   N05  Bn4
 BYTE   W18
 BYTE   N05
 BYTE   W06
 BYTE   N05
 BYTE   W06
 BYTE   N05
 BYTE   W06
 BYTE   N05
 BYTE   W18
 BYTE   N05
 BYTE   W06
 BYTE   N05
 BYTE   W06
 BYTE   N05
 BYTE   W06
 BYTE   N17  Bn0
 BYTE   N17  Fs3
 BYTE   N17  Bn3
 BYTE   N05  Bn4
 BYTE   W06
 BYTE   N05
 BYTE   W06
 BYTE   N05
 BYTE   W06
 BYTE   N17  Cn1
 BYTE   N17  Gn3
 BYTE   N17  Cn4
 BYTE   N05  Bn4
 BYTE   W06
//  #12 //066   ----------------------------------------
 BYTE   N05
 BYTE   W06
 BYTE   N05
 BYTE   W06
 BYTE   N52  Bn0
 BYTE   N05  Bn4
 BYTE   W18
 BYTE   N05
 BYTE   W06
 BYTE   N05
 BYTE   W06
 BYTE   N05
 BYTE   W06
 BYTE   N05
 BYTE   W18
 BYTE   N17  Bn0
 BYTE   N05  Bn4
 BYTE   W06
 BYTE   N05
 BYTE   W06
 BYTE   N05
 BYTE   W06
 BYTE   N17  Bn0
 BYTE   N17  Fs3
 BYTE   N17  Bn3
 BYTE   N05  Bn4
 BYTE   W06
 BYTE   N05
 BYTE   W06
//  #12 //067   ----------------------------------------
 BYTE   N05
 BYTE   W06
 BYTE   N17  Gs0
 BYTE   N17  An3
 BYTE   N17  Dn4
 BYTE   N05  As4
 BYTE   W06
 BYTE   N05
 BYTE   W06
 BYTE   N05
 BYTE   W06
 BYTE   N68  Gs0
 BYTE   N05  As4
 BYTE   W18
 BYTE   N05
 BYTE   W06
 BYTE   N05
 BYTE   W06
 BYTE   N05
 BYTE   W06
 BYTE   N05
 BYTE   W18
 BYTE   N05
 BYTE   W06
 BYTE   N05
 BYTE   W06
 BYTE   N05
 BYTE   W06
//  #12 //068   ----------------------------------------
 BYTE   N17  Gs0
 BYTE   N17  Gs3
 BYTE   N17  Ds4
 BYTE   N05  As4
 BYTE   W06
 BYTE   N05
 BYTE   W06
 BYTE   N05
 BYTE   W06
 BYTE   N17  Bn0
 BYTE   N17  Bn3
 BYTE   N17  En4
 BYTE   N05  As4
 BYTE   W06
 BYTE   N05
 BYTE   W06
 BYTE   N05
 BYTE   W06
 BYTE   N52  Gs0
 BYTE   N05  As4
 BYTE   W18
 BYTE   N05
 BYTE   W06
 BYTE   N05
 BYTE   W06
 BYTE   N05
 BYTE   W06
 BYTE   N05
 BYTE   W18
 BYTE   N17  Gs0
 BYTE   N05  As4
 BYTE   W06
//  #12 //069   ----------------------------------------
 BYTE   N05
 BYTE   W06
 BYTE   N05
 BYTE   W06
 BYTE   N17  En1
 BYTE   N17  Cs4
 BYTE   N17  Fs4
 BYTE   N05  As4
 BYTE   W06
 BYTE   N05
 BYTE   W06
 BYTE   N05
 BYTE   W06
 BYTE   N17  Bn0
 BYTE   N17  Bn3
 BYTE   N17  En4
 BYTE   N05  As4
 BYTE   W06
 BYTE   N05
 BYTE   W06
 BYTE   N05
 BYTE   W06
 BYTE   TIE  As0
 BYTE   N05  As4
 BYTE   W18
 BYTE   N05
 BYTE   W06
 BYTE   N05
 BYTE   W06
 BYTE   N05
 BYTE   W06
 BYTE   N02  Ds3
 BYTE   N05  As4
 BYTE   W03
 BYTE   N02  En3
 BYTE   W03
 BYTE   Fs3
 BYTE   W03
 BYTE   Gs3
 BYTE   W03
//  #12 //070   ----------------------------------------
 BYTE   As3
 BYTE   W03
 BYTE   Bn3
 BYTE   W03
 BYTE   Cs4
 BYTE   N05  As4
 BYTE   W03
 BYTE   N02  Ds4
 BYTE   W03
 BYTE   En4
 BYTE   N05  As4
 BYTE   W03
 BYTE   N02  Fs4
 BYTE   W03
 BYTE   Gs4
 BYTE   N03  As4
 BYTE   W03
 BYTE   N02
 BYTE   W03
 BYTE   N05
 BYTE   N04  Ds5
 BYTE   W04
 BYTE   En5
 BYTE   W02
 BYTE   N05  As4
 BYTE   W03
 BYTE   N08  Ds5
 BYTE   W03
 BYTE   N05  As4
 BYTE   W06
 BYTE   N05
 BYTE   N04  Cs5
 BYTE   W04
 BYTE   Ds5
 BYTE   W02
 BYTE   N05  As4
 BYTE   W03
 BYTE   N08  Cs5
 BYTE   W03
 BYTE   N05  As4
 BYTE   W05
 BYTE   EOT
 BYTE   As0
 BYTE   W01
 BYTE   N04  Bn4
 BYTE   W04
 BYTE   Cs5
 BYTE   W05
 BYTE   N08  Bn4
 BYTE   W09
 BYTE   N04  As4
 BYTE   W04
 BYTE   Bn4
 BYTE   W05
 BYTE   N08  As4
 BYTE   W09
//  #12 //071   ----------------------------------------
 BYTE   N02  Gn4
 BYTE   W03
 BYTE   Ds4
 BYTE   W03
 BYTE   Cs4
 BYTE   W03
 BYTE   As3
 BYTE   W03
 BYTE   Gn3
 BYTE   W03
 BYTE   Ds3
 BYTE   W03
 BYTE   Cs3
 BYTE   W03
 BYTE   As2
 BYTE   W03
 BYTE   Gs2
 BYTE   W03
 BYTE   Gn2
 BYTE   W03
 BYTE   Ds2
 BYTE   W03
 BYTE   Cs2
 BYTE   W03
 BYTE   As1
 BYTE   N32  Ds4
 BYTE   N32  Ds5
 BYTE   W03
 BYTE   N02  Gn1
 BYTE   W03
 BYTE   Ds1
 BYTE   W03
 BYTE   Cs1
 BYTE   W03
 BYTE   N23  As0
 BYTE   W24
 BYTE   TIE  Bn4
 BYTE   TIE  Bn5
 BYTE   W24
//  #12 //072   ----------------------------------------
 BYTE   W80
 BYTE   W03
 BYTE   EOT
 BYTE   Bn4  v095
 BYTE   W01
 BYTE   N32  Ds4
 BYTE   N32  Ds5
 BYTE   W12
//  #12 //073   ----------------------------------------
Label_01196B2E:
 BYTE   W24
 BYTE   TIE  As4  v104
 BYTE   TIE  As5
 BYTE   W72
 BYTE   PEND 
//  #12 //074   ----------------------------------------
 BYTE   W32
 BYTE   W03
 BYTE   EOT
 BYTE   As4  v094
 BYTE   W01
 BYTE   N32  Ds4
 BYTE   N32  Ds5
 BYTE   W36
 BYTE   N68  Gs4
 BYTE   N68  Gs5
 BYTE   W24
//  #12 //075   ----------------------------------------
Label_01196B46:
 BYTE   W48
 BYTE   N17  Fs4  v104
 BYTE   N17  Fs5
 BYTE   W18
 BYTE   En4
 BYTE   N17  En5
 BYTE   W18
 BYTE   Bn3
 BYTE   N17  Bn4
 BYTE   W12
 BYTE   PEND 
//  #12 //076   ----------------------------------------
Label_01196B56:
 BYTE   W06
 BYTE   N17  Cs4  v104
 BYTE   N17  Cs5
 BYTE   W18
 BYTE   N32  En4
 BYTE   N32  En5
 BYTE   W36
 BYTE   N92  Ds4
 BYTE   N92  Ds5
 BYTE   W36
 BYTE   PEND 
//  #12 //077   ----------------------------------------
 BYTE   W72
 BYTE   N68  Ds4
 BYTE   N68  Ds5
 BYTE   W24
//  #12 //078   ----------------------------------------
 BYTE   W12
 BYTE   N32  Gs4
 BYTE   W36
 BYTE   N17  Cs4
 BYTE   N44  Gn4
 BYTE   N17  Cs5
 BYTE   W18
 BYTE   Bn3
 BYTE   N17  Bn4
 BYTE   W18
 BYTE   Cs4
 BYTE   N17  Cs5
 BYTE   W12
//  #12 //079   ----------------------------------------
 BYTE   N11  Gs4
 BYTE   W06
 BYTE   N17  Fs4
 BYTE   N17  Fs5
 BYTE   W06
 BYTE   N11  As4
 BYTE   W12
 BYTE   N17  Ds4
 BYTE   N17  Ds5
 BYTE   W18
 BYTE   Bn3
 BYTE   N17  Bn4
 BYTE   W18
 BYTE   N68  Gs3
 BYTE   N36  Gs4
 BYTE   W36
//  #12 //080   ----------------------------------------
 BYTE   N32
 BYTE   W02
 BYTE   W02
 BYTE   W02
 BYTE   W03
 BYTE   W02
 BYTE   W02
 BYTE   W02
 BYTE   W03
 BYTE   W02
 BYTE   W02
 BYTE   W02
 BYTE   W03
 BYTE   W02
 BYTE   W02
 BYTE   W02
 BYTE   W03
 BYTE   W02
 BYTE   W02
 BYTE   W02
 BYTE   W03
 BYTE   W02
 BYTE   W02
 BYTE   W02
 BYTE   W03
 BYTE   N17  Fs3
 BYTE   N17  Fs4
 BYTE   W02
 BYTE   W02
 BYTE   W02
 BYTE   W03
 BYTE   W02
 BYTE   W02
 BYTE   W02
 BYTE   W03
 BYTE   N32  Gs3
 BYTE   N32  Gs4
 BYTE   W24
//  #12 //081   ----------------------------------------
 BYTE   W12
 BYTE   N30  Ds4
 BYTE   N88  Ds5
 BYTE   W30
 BYTE   N05  Ds4
 BYTE   W06
 BYTE   Gs4
 BYTE   W06
 BYTE   Ds4
 BYTE   W06
 BYTE   Bn3
 BYTE   W06
 BYTE   Ds4
 BYTE   W06
 BYTE   Bn3
 BYTE   W06
 BYTE   Gs3
 BYTE   W06
 BYTE   N32  Gs4
 BYTE   W12
//  #12 //082   ----------------------------------------
 BYTE   W06
 BYTE   N17  Fs3
 BYTE   N17  Fs4
 BYTE   W18
 BYTE   N32  Gs3
 BYTE   N52  En4
 BYTE   N32  Gs4
 BYTE   W36
 BYTE   N68  Ds4
 BYTE   N68  Ds5
 BYTE   W18
 BYTE   N17  Gs4
 BYTE   W18
//  #12 //083   ----------------------------------------
 BYTE   N32  Gn4
 BYTE   W36
 BYTE   Ds4
 BYTE   N32  Ds5
 BYTE   W36
 BYTE   TIE  Bn4
 BYTE   TIE  Bn5
 BYTE   W24
//  #12 //084   ----------------------------------------
 BYTE   W80
 BYTE   W03
 BYTE   EOT
 BYTE   Bn4  v095
 BYTE   W01
 BYTE   N32  Ds4
 BYTE   N32  Ds5
 BYTE   W12
//  #12 //085   ----------------------------------------
 BYTE   PATT
  POIN2 Label_01196B2E
//  #12 //086   ----------------------------------------
 BYTE   W32
 BYTE   W03
 BYTE   EOT
 BYTE   As4  v094
 BYTE   W01
 BYTE   N32  Ds4  v104
 BYTE   N32  Ds5
 BYTE   W36
 BYTE   N68  Gs4
 BYTE   N68  Gs5
 BYTE   W24
//  #12 //087   ----------------------------------------
 BYTE   PATT
  POIN2 Label_01196B46
//  #12 //088   ----------------------------------------
 BYTE   PATT
  POIN2 Label_01196B56
//  #12 //089   ----------------------------------------
 BYTE   W72
 BYTE   N68  As2  v104
 BYTE   N68  En3
 BYTE   N68  Ds4
 BYTE   N68  Ds5
 BYTE   W03
 BYTE   As3
 BYTE   W21
//  #12 //090   ----------------------------------------
 BYTE   W48
 BYTE   Ds2
 BYTE   N32  Ds3
 BYTE   N32  Gn3
 BYTE   N17  Cs4
 BYTE   N17  Cs5
 BYTE   W18
 BYTE   Bn3
 BYTE   N17  Bn4
 BYTE   W18
 BYTE   N32  Bn3
 BYTE   N17  Cs4
 BYTE   N17  Cs5
 BYTE   W12
//  #12 //091   ----------------------------------------
 BYTE   W06
 BYTE   Fs4
 BYTE   N17  Fs5
 BYTE   W18
 BYTE   N68  Gs2
 BYTE   N68  Ds3
 BYTE   N68  Fs3
 BYTE   N17  Ds4
 BYTE   N17  Ds5
 BYTE   W18
 BYTE   Bn3
 BYTE   N17  Bn4
 BYTE   W18
 BYTE   N92  Gs3
 BYTE   N92  Gs4
 BYTE   W36
//  #12 //092   ----------------------------------------
 BYTE   N68  Cs2
 BYTE   N68  Cs3
 BYTE   N68  Fn3
 BYTE   W72
 BYTE   N04  En2
 BYTE   W04
 BYTE   Fs2
 BYTE   W05
 BYTE   Gs2
 BYTE   W04
 BYTE   Bn2
 BYTE   W05
 BYTE   Ds3
 BYTE   W04
 BYTE   En3
 BYTE   W02
//  #12 //093   ----------------------------------------
 BYTE   W03
 BYTE   Fs3
 BYTE   W04
 BYTE   Gs3
 BYTE   W05
 BYTE   Bn3
 BYTE   W04
 BYTE   Gs3
 BYTE   W05
 BYTE   Ds3
 BYTE   W04
 BYTE   Bn2
 BYTE   W05
 BYTE   Gs2
 BYTE   W04
 BYTE   Fs2
 BYTE   W05
 BYTE   Gs2
 BYTE   W04
 BYTE   Ds3
 BYTE   W05
 BYTE   Gs3
 BYTE   W04
 BYTE   Bn3
 BYTE   W05
 BYTE   Ds4
 BYTE   W04
 BYTE   Gs4
 BYTE   W05
 BYTE   Ds4
 BYTE   W04
 BYTE   Bn3
 BYTE   W05
 BYTE   Gs3
 BYTE   W04
 BYTE   Ds3
 BYTE   W05
 BYTE   Bn2
 BYTE   W04
 BYTE   Gs2
 BYTE   W05
 BYTE   Ds2
 BYTE   W03
//  #12 //094   ----------------------------------------
 BYTE   W01
 BYTE   Bn1
 BYTE   W05
 BYTE   Ds2
 BYTE   W04
 BYTE   Bn1
 BYTE   W05
 BYTE   Gs1
 BYTE   W04
 BYTE   Bn1
 BYTE   W05
 BYTE   Fs1
 BYTE   W04
 BYTE   As1
 BYTE   W05
 BYTE   Cs2
 BYTE   W04
 BYTE   En2
 BYTE   W05
 BYTE   Fs2
 BYTE   W04
 BYTE   As2
 BYTE   W05
 BYTE   Cs3
 BYTE   W04
 BYTE   Fs3
 BYTE   W05
 BYTE   As3
 BYTE   W04
 BYTE   Fs3
 BYTE   W05
 BYTE   Cs3
 BYTE   W04
 BYTE   As2
 BYTE   W05
 BYTE   Fs2
 BYTE   W04
 BYTE   En2
 BYTE   W05
 BYTE   Fs2
 BYTE   W04
 BYTE   Cs3
 BYTE   W05
//  #12 //095   ----------------------------------------
 BYTE   Fs3
 BYTE   W04
 BYTE   As3
 BYTE   W05
 BYTE   Cs4
 BYTE   W04
 BYTE   Fs4
 BYTE   W05
 BYTE   Cs4
 BYTE   W04
 BYTE   As3
 BYTE   W05
 BYTE   Fs3
 BYTE   W04
 BYTE   Cs3
 BYTE   W05
 BYTE   As2
 BYTE   W04
 BYTE   Fs2
 BYTE   W05
 BYTE   Cs2
 BYTE   W04
 BYTE   As1
 BYTE   W05
 BYTE   Cs2
 BYTE   N17  Fs4
 BYTE   W04
 BYTE   N04  As1
 BYTE   W05
 BYTE   Fs1
 BYTE   W04
 BYTE   As1
 BYTE   W05
 BYTE   N68  En2
 BYTE   N68  Bn2
 BYTE   N32  Gs4
 BYTE   W24
//  #12 //096   ----------------------------------------
 BYTE   W12
 BYTE   N68  Ds5
 BYTE   W36
 BYTE   As2
 BYTE   W48
//  #12 //097   ----------------------------------------
 BYTE   W06
 BYTE   N17  Fs4
 BYTE   W18
 BYTE   TIE  An2
 BYTE   TIE  En3
 BYTE   TIE  Cs4
 BYTE   N32  Gs4
 BYTE   W36
 BYTE   TIE  Ds5
 BYTE   W36
//  #12 //098   ----------------------------------------
 BYTE   W68
 BYTE   W03
 BYTE   EOT
 BYTE   An2  v064
 BYTE   Cs4  v087
 BYTE   W01
 BYTE   W06
 BYTE   N08  Ds6
 BYTE   W09
 BYTE   Cs6
 BYTE   W09
//  #12 //099   ----------------------------------------
 BYTE   Gs5
 BYTE   W09
 BYTE   N05  Ds5
 BYTE   W06
 BYTE   Cs5
 BYTE   W06
 BYTE   Gs4
 BYTE   W06
 BYTE   En4
 BYTE   W06
 BYTE   N02  Ds4
 BYTE   W03
 BYTE   Cs4
 BYTE   W03
 BYTE   Gs3
 BYTE   W03
 BYTE   En3
 BYTE   W03
 BYTE   Cs3
 BYTE   W03
 BYTE   N05  Fn1
 BYTE   W06
 BYTE   Cn2
 BYTE   W06
 BYTE   Fn2
 BYTE   W06
 BYTE   Gs2
 BYTE   W06
 BYTE   Cn3
 BYTE   W06
 BYTE   Ds3
 BYTE   W06
 BYTE   Fn1
 BYTE   W06
 BYTE   Cn2
 BYTE   W06
//  #12 //100   ----------------------------------------
Label_01196D43:
 BYTE   N05  Fn2  v104
 BYTE   W06
 BYTE   Gs2
 BYTE   W06
 BYTE   Cn3
 BYTE   W06
 BYTE   Ds3
 BYTE   W06
 BYTE   Gn3
 BYTE   W06
 BYTE   Ds3
 BYTE   W06
 BYTE   Cn3
 BYTE   W06
 BYTE   Ds3
 BYTE   W06
 BYTE   Cn3
 BYTE   W06
 BYTE   Gs2
 BYTE   W06
 BYTE   Fn2
 BYTE   W06
 BYTE   Gs2
 BYTE   W06
 BYTE   As2
 BYTE   W06
 BYTE   Cn3
 BYTE   W06
 BYTE   Gs2
 BYTE   W06
 BYTE   Fn2
 BYTE   W06
 BYTE   PEND 
//  #12 //101   ----------------------------------------
 BYTE   Fn1
 BYTE   W06
 BYTE   Cn2
 BYTE   W06
 BYTE   Fn2
 BYTE   W06
 BYTE   Gs2
 BYTE   W06
 BYTE   Cn3
 BYTE   W06
 BYTE   Cs3
 BYTE   W06
 BYTE   Fn1
 BYTE   W06
 BYTE   Cn2
 BYTE   W06
 BYTE   Fn2
 BYTE   W06
 BYTE   Gs2
 BYTE   W06
 BYTE   N02  Cs2
 BYTE   N05  Cn3
 BYTE   W03
 BYTE   N02  Fn2
 BYTE   W03
 BYTE   Fs2
 BYTE   N05  Cs3
 BYTE   W03
 BYTE   N02  Gs2
 BYTE   W03
 BYTE   Cn3
 BYTE   N05  Gn3
 BYTE   W03
 BYTE   N02  Cs3
 BYTE   W03
 BYTE   N05
 BYTE   N02  Fn3
 BYTE   W03
 BYTE   Fs3
 BYTE   W03
 BYTE   N05  Cn3
 BYTE   N02  Cs4
 BYTE   W03
 BYTE   Ds4
 BYTE   W03
 BYTE   N05  Cs3
 BYTE   N02  Cs4
 BYTE   W03
 BYTE   Ds4
 BYTE   W03
//  #12 //102   ----------------------------------------
 BYTE   N05  Cn3
 BYTE   N02  Cs4
 BYTE   W03
 BYTE   Gs3
 BYTE   W03
 BYTE   N05  Gs2
 BYTE   N02  Fn3
 BYTE   W03
 BYTE   Cs3
 BYTE   W03
 BYTE   N05  Fn2
 BYTE   N02  Cn3
 BYTE   W03
 BYTE   As2
 BYTE   W03
 BYTE   Gs2
 BYTE   W03
 BYTE   Fn2
 BYTE   W03
 BYTE   Cs2
 BYTE   N05  Cn3
 BYTE   W06
 BYTE   Cs3
 BYTE   W06
 BYTE   Cn3
 BYTE   W06
 BYTE   Gs2
 BYTE   W06
 BYTE   Fn1
 BYTE   W06
 BYTE   Cn2
 BYTE   W06
 BYTE   Fn2
 BYTE   W06
 BYTE   Gs2
 BYTE   W06
 BYTE   Cn3
 BYTE   W06
 BYTE   Ds3
 BYTE   W06
 BYTE   Fn1
 BYTE   W06
 BYTE   Cn2
 BYTE   W06
//  #12 //103   ----------------------------------------
 BYTE   PATT
  POIN2 Label_01196D43
//  #12 //104   ----------------------------------------
 BYTE   N05  Cs3  v104
 BYTE   W06
 BYTE   Gs2
 BYTE   W06
 BYTE   Fn2
 BYTE   W06
 BYTE   Gs2
 BYTE   W06
 BYTE   Fn2
 BYTE   W06
 BYTE   Gs2
 BYTE   W06
 BYTE   Gn2
 BYTE   W06
 BYTE   Gs2
 BYTE   W06
 BYTE   Fn2
 BYTE   W06
 BYTE   Cs3
 BYTE   W06
 BYTE   Gs2
 BYTE   W06
 BYTE   Fn2
 BYTE   W06
 BYTE   Gn2
 BYTE   W06
 BYTE   Gs2
 BYTE   W06
 BYTE   Fn2
 BYTE   W06
 BYTE   Gn2
 BYTE   W06
//  #12 //105   ----------------------------------------
 BYTE   Gs2
 BYTE   W06
 BYTE   Fn2
 BYTE   W06
 BYTE   Cs3
 BYTE   W06
 BYTE   Gs2
 BYTE   W06
 BYTE   Gn2
 BYTE   W06
 BYTE   Fn2
 BYTE   W06
 BYTE   Cs2
 BYTE   W06
 BYTE   As1
 BYTE   W06
 BYTE   Fn1
 BYTE   W06
 BYTE   Cn2
 BYTE   W06
 BYTE   Fn2
 BYTE   W06
 BYTE   Gs2
 BYTE   W06
 BYTE   Cn3
 BYTE   W06
 BYTE   Fn3
 BYTE   W06
 BYTE   Fn1
 BYTE   W06
 BYTE   Cn2
 BYTE   W06
//  #12 //106   ----------------------------------------
 BYTE   Fn2
 BYTE   W06
 BYTE   Gs2
 BYTE   W06
 BYTE   Cn3
 BYTE   W06
 BYTE   Fn3
 BYTE   W06
 BYTE   Gs3
 BYTE   W06
 BYTE   Fn3
 BYTE   W06
 BYTE   Cn3
 BYTE   W06
 BYTE   Gs2
 BYTE   W06
 BYTE   Fn2
 BYTE   W06
 BYTE   Cn2
 BYTE   W06
 BYTE   Fn1
 BYTE   W06
 BYTE   Cn2
 BYTE   W06
 BYTE   Fn2
 BYTE   W06
 BYTE   Gs2
 BYTE   W06
 BYTE   As2
 BYTE   W06
 BYTE   Cn3
 BYTE   W06
//  #12 //107   ----------------------------------------
 BYTE   Gn1
 BYTE   W06
 BYTE   As1
 BYTE   W06
 BYTE   En2
 BYTE   W06
 BYTE   Gn2
 BYTE   W06
 BYTE   Cn3
 BYTE   W06
 BYTE   Cs3
 BYTE   W06
 BYTE   Gn1
 BYTE   W06
 BYTE   As1
 BYTE   W06
 BYTE   En2
 BYTE   W06
 BYTE   Gn2
 BYTE   W06
 BYTE   Cn3
 BYTE   W06
 BYTE   Cs3
 BYTE   W06
 BYTE   En3
 BYTE   W06
 BYTE   Gn3
 BYTE   W06
 BYTE   As3
 BYTE   W06
 BYTE   Gn3
 BYTE   W06
//  #12 //108   ----------------------------------------
 BYTE   En3
 BYTE   W06
 BYTE   Gn3
 BYTE   W06
 BYTE   En3
 BYTE   W06
 BYTE   Cn3
 BYTE   W06
 BYTE   En3
 BYTE   W06
 BYTE   Cn3
 BYTE   W06
 BYTE   Gn2
 BYTE   W06
 BYTE   En2
 BYTE   W06
 BYTE   Gs1
 BYTE   W06
 BYTE   Cn2
 BYTE   W06
 BYTE   Fn2
 BYTE   W06
 BYTE   Gs2
 BYTE   W06
 BYTE   Cn3
 BYTE   W06
 BYTE   Ds3
 BYTE   W06
 BYTE   Gs1
 BYTE   W06
 BYTE   Cn2
 BYTE   W06
//  #12 //109   ----------------------------------------
 BYTE   Fn2
 BYTE   W06
 BYTE   Gs2
 BYTE   W06
 BYTE   Cn3
 BYTE   W06
 BYTE   Fn3
 BYTE   W06
 BYTE   Cn4
 BYTE   W06
 BYTE   Gs3
 BYTE   W06
 BYTE   Fn3
 BYTE   W06
 BYTE   Gs3
 BYTE   W06
 BYTE   Fn3
 BYTE   W06
 BYTE   Cn3
 BYTE   W06
 BYTE   Gs2
 BYTE   W06
 BYTE   Cn3
 BYTE   W06
 BYTE   Fn3
 BYTE   W06
 BYTE   Gs3
 BYTE   W06
 BYTE   Fn3
 BYTE   W06
 BYTE   Cn3
 BYTE   W06
//  #12 //110   ----------------------------------------
 BYTE   An1
 BYTE   W06
 BYTE   Fn2
 BYTE   W06
 BYTE   An2
 BYTE   W06
 BYTE   Cn3
 BYTE   W06
 BYTE   Fn3
 BYTE   W06
 BYTE   An3
 BYTE   W06
 BYTE   An1
 BYTE   N18  Cn3
 BYTE   W06
 BYTE   N05  Fn2
 BYTE   W06
 BYTE   An2
 BYTE   W06
 BYTE   Cn3
 BYTE   W06
 BYTE   Fn3
 BYTE   W06
 BYTE   Cs4
 BYTE   W06
 BYTE   N12  Fn3
 BYTE   N05  Cn4
 BYTE   W06
 BYTE   An3
 BYTE   W06
 BYTE   Fn3
 BYTE   W06
 BYTE   Cn3
 BYTE   W06
//  #12 //111   ----------------------------------------
 BYTE   Fn3
 BYTE   W06
 BYTE   An3
 BYTE   W06
 BYTE   An1
 BYTE   W06
 BYTE   Fn2
 BYTE   W06
 BYTE   An2
 BYTE   W06
 BYTE   Cn3
 BYTE   N17  Cn4
 BYTE   W06
 BYTE   N05  Fn3
 BYTE   W06
 BYTE   An3
 BYTE   W06
 BYTE   As1
 BYTE   N68  Cn4
 BYTE   W06
 BYTE   N05  Cs2
 BYTE   W06
 BYTE   Fn2
 BYTE   W06
 BYTE   As2
 BYTE   W06
 BYTE   Cs3
 BYTE   W06
 BYTE   Fn3
 BYTE   W06
 BYTE   Cs3
 BYTE   W06
 BYTE   Fn3
 BYTE   W06
//  #12 //112   ----------------------------------------
 BYTE   As3
 BYTE   W06
 BYTE   Cs4
 BYTE   W06
 BYTE   Fn4
 BYTE   W06
 BYTE   As4
 BYTE   W06
 BYTE   N24  As3
 BYTE   N05  Cs5
 BYTE   W06
 BYTE   As4
 BYTE   W06
 BYTE   Fn4
 BYTE   W06
 BYTE   Cs4
 BYTE   W06
 BYTE   As3
 BYTE   W06
 BYTE   Fn3
 BYTE   W06
 BYTE   Cs3
 BYTE   W06
 BYTE   As2
 BYTE   W06
 BYTE   Fn2
 BYTE   W06
 BYTE   Cs2
 BYTE   W06
 BYTE   As1
 BYTE   W06
 BYTE   Fn1
 BYTE   W06
//  #12 //113   ----------------------------------------
 BYTE   Bn1
 BYTE   N68  Gs3
 BYTE   W06
 BYTE   N05  Dn2
 BYTE   W06
 BYTE   Fs2
 BYTE   W06
 BYTE   Bn2
 BYTE   W06
 BYTE   Dn3
 BYTE   W06
 BYTE   Fs3
 BYTE   W06
 BYTE   Dn3
 BYTE   W06
 BYTE   Fs3
 BYTE   W06
 BYTE   Bn3
 BYTE   W06
 BYTE   Dn4
 BYTE   W06
 BYTE   Fs4
 BYTE   W06
 BYTE   Bn4
 BYTE   W06
 BYTE   N44  Gn3
 BYTE   N05  Dn5
 BYTE   W06
 BYTE   Bn4
 BYTE   W06
 BYTE   Fs4
 BYTE   W06
 BYTE   Dn4
 BYTE   W06
//  #12 //114   ----------------------------------------
 BYTE   Bn3
 BYTE   W06
 BYTE   Fs3
 BYTE   W06
 BYTE   Dn3
 BYTE   W06
 BYTE   Bn2
 BYTE   W06
 BYTE   Fs2
 BYTE   N11  Fn3
 BYTE   W06
 BYTE   N05  Dn2
 BYTE   W06
 BYTE   Bn1
 BYTE   N11  Gn3
 BYTE   W06
 BYTE   N05  Fs1
 BYTE   W06
 BYTE   Fn3
 BYTE   N06  Gs3
 BYTE   W06
 BYTE   N05
 BYTE   W06
 BYTE   Fn3
 BYTE   W06
 BYTE   Gs3
 BYTE   W06
 BYTE   Fn3
 BYTE   W06
 BYTE   Cn3
 BYTE   W06
 BYTE   Fn3
 BYTE   W06
 BYTE   Gs3
 BYTE   W06
//  #12 //115   ----------------------------------------
 BYTE   As3
 BYTE   W06
 BYTE   Cn4
 BYTE   W06
 BYTE   Gs3
 BYTE   W06
 BYTE   Fn3
 BYTE   W06
 BYTE   Fn4
 BYTE   W06
 BYTE   Cn4
 BYTE   W06
 BYTE   Gs3
 BYTE   W06
 BYTE   Cn4
 BYTE   W06
 BYTE   Gs3
 BYTE   W06
 BYTE   Fn3
 BYTE   W06
 BYTE   Cn3
 BYTE   N32  As3
 BYTE   W06
 BYTE   N05  Gs3
 BYTE   W06
 BYTE   Fn3
 BYTE   W06
 BYTE   Cn4
 BYTE   W06
 BYTE   Gs3
 BYTE   W06
 BYTE   Fn3
 BYTE   W06
//  #12 //116   ----------------------------------------
 BYTE   Cn3
 BYTE   N18  Gn3
 BYTE   W06
 BYTE   N05  En3
 BYTE   W06
 BYTE   Fn3
 BYTE   W06
 BYTE   Gn3
 BYTE   W06
 BYTE   Gs3
 BYTE   W06
 BYTE   As3
 BYTE   W06
 BYTE   Gn3
 BYTE   W06
 BYTE   Gs3
 BYTE   W06
 BYTE   Cn4
 BYTE   W06
 BYTE   Fn4
 BYTE   W06
 BYTE   Cn5
 BYTE   W06
 BYTE   Fn5
 BYTE   W06
 BYTE   N02  Cn6
 BYTE   W03
 BYTE   As5
 BYTE   W03
 BYTE   Gn5
 BYTE   W03
 BYTE   En5
 BYTE   W03
 BYTE   Cn5
 BYTE   W03
 BYTE   As4
 BYTE   W03
 BYTE   Gn4
 BYTE   W03
 BYTE   En4
 BYTE   W03
//  #12 //117   ----------------------------------------
 BYTE   Cs4
 BYTE   W03
 BYTE   Cn4
 BYTE   W03
 BYTE   As3
 BYTE   W03
 BYTE   Gn3
 BYTE   W03
 BYTE   En3
 BYTE   W03
 BYTE   Cs3
 BYTE   W03
 BYTE   Cn3
 BYTE   W03
 BYTE   As2
 BYTE   W03
 BYTE   Gn2
 BYTE   W03
 BYTE   Fn2
 BYTE   W03
 BYTE   En2
 BYTE   W03
 BYTE   Cs2
 BYTE   W03
 BYTE   Cn2
 BYTE   W03
 BYTE   As1
 BYTE   W03
 BYTE   Gs1
 BYTE   W03
 BYTE   Gn1
 BYTE   W03
 BYTE   GoTo
  POIN2 Label_011968A2
//  #12 //118   ----------------------------------------
 BYTE   W36
 BYTE   N32  Cn4  v104
 BYTE   W12
 BYTE   W24
 BYTE   N52  Gs4
 BYTE   W54
//  #12 //119   ----------------------------------------
 BYTE   N17  Fn4
 BYTE   W18
 BYTE   N68
 BYTE   W72
 BYTE   N44  En4
 BYTE   W24
//  #12 //120   ----------------------------------------
 BYTE   W24
 BYTE   N11  Fn4
 BYTE   W12
 BYTE   Gn4
 BYTE   W12
 BYTE   N68
 BYTE   W48
//  #12 //121   ----------------------------------------
 BYTE   W24
 BYTE   Cn4
 BYTE   W72
//  #12 //122   ----------------------------------------
 BYTE   W36
 BYTE   N32
 BYTE   W36
 BYTE   N52  Cn5
 BYTE   W24
//  #12 //123   ----------------------------------------
 BYTE   W30
 BYTE   N17  Fn5
 BYTE   W18
 BYTE   N68  Ds5
 BYTE   W48
//  #12 //124   ----------------------------------------
 BYTE   W24
 BYTE   Cs5
 BYTE   W72
//  #12 //125   ----------------------------------------
 BYTE   Cn5
 BYTE   W72
 BYTE   As4
 BYTE   W24
//  #12 //126   ----------------------------------------
 BYTE   W48
 BYTE   TIE  Cn5
 BYTE   W48
//  #12 //127   ----------------------------------------
 BYTE   W56
 BYTE   W03
 BYTE   EOT
 BYTE   W01
 BYTE   N32  Fn5
 BYTE   W36
//  #12 //128   ----------------------------------------
 BYTE   TIE  Gn5
 BYTE   W96
//  #12 //129   ----------------------------------------
 BYTE   W11
 BYTE   EOT
 BYTE   W84
 BYTE   W01
//  #12 //130   ----------------------------------------
 BYTE   W96
//  #12 //131   ----------------------------------------
 BYTE   W96
//  #12 //132   ----------------------------------------
 BYTE   W48
 BYTE   N68  Ds3
 BYTE   W48
//  #12 //133   ----------------------------------------
 BYTE   W42
 BYTE   N17
 BYTE   W18
 BYTE   N17
 BYTE   W18
 BYTE   Fn3
 BYTE   W18
//  #12 //134   ----------------------------------------
 BYTE   N23  Gn3
 BYTE   W24
 BYTE   Ds3
 BYTE   W24
 BYTE   As2
 BYTE   W24
 BYTE   Ds3
 BYTE   W24
//  #12 //135   ----------------------------------------
 BYTE   As2
 BYTE   W24
 BYTE   Gn2
 BYTE   W24
 BYTE   N68  As2
 BYTE   W48
//  #12 //136   ----------------------------------------
 BYTE   W24
 BYTE   N44  Cs3
 BYTE   W48
 BYTE   N23  Ds3
 BYTE   W24
//  #12 //137   ----------------------------------------
 BYTE   N68  Fn3
 BYTE   W72
 BYTE   Gs3
 BYTE   W24
//  #12 //138   ----------------------------------------
 BYTE   W48
 BYTE   TIE  Gn3
 BYTE   W48
//  #12 //139   ----------------------------------------
 BYTE   W56
 BYTE   W03
 BYTE   EOT
 BYTE   W01
 BYTE   N17
 BYTE   W18
 BYTE   Gs3
 BYTE   W18
//  #12 //140   ----------------------------------------
 BYTE   N23  As3
 BYTE   W24
 BYTE   Fs3
 BYTE   W24
 BYTE   Fn3
 BYTE   W04
 BYTE   W05
 BYTE   W04
 BYTE   W05
 BYTE   W04
 BYTE   W02
 BYTE   Ds3
 BYTE   W03
 BYTE   W04
 BYTE   W05
 BYTE   W04
 BYTE   W05
 BYTE   W03
//  #12 //141   ----------------------------------------
 BYTE   Cs3
 BYTE   W01
 BYTE   W05
 BYTE   W04
 BYTE   W05
 BYTE   W04
 BYTE   W05
 BYTE   Cn3
 BYTE   W24
 BYTE   N68  Gs4
 BYTE   W48
//  #12 //142   ----------------------------------------
 BYTE   W24
 BYTE   N17
 BYTE   W18
 BYTE   Fs4
 BYTE   W18
 BYTE   Gs4
 BYTE   W18
 BYTE   Cs5
 BYTE   W18
//  #12 //143   ----------------------------------------
 BYTE   Bn4
 BYTE   W18
 BYTE   Fs4
 BYTE   W18
 BYTE   N56  Ds4
 BYTE   W60
//  #12 //144   ----------------------------------------
 BYTE   W12
 BYTE   N32  En4
 BYTE   W36
 BYTE   N68  Fs4
 BYTE   W48
//  #12 //145   ----------------------------------------
 BYTE   W24
 BYTE   N17
 BYTE   W18
 BYTE   En4
 BYTE   W18
 BYTE   Fs4
 BYTE   W18
 BYTE   Bn4
 BYTE   W18
//  #12 //146   ----------------------------------------
 BYTE   TIE  Gs4
 BYTE   W09
 BYTE   W09
 BYTE   W09
 BYTE   W09
 BYTE   W09
 BYTE   W09
 BYTE   W09
 BYTE   W09
 BYTE   W09
 BYTE   W09
 BYTE   W06
//  #12 //147   ----------------------------------------
 BYTE   W03
 BYTE   W09
 BYTE   W09
 BYTE   W09
 BYTE   W09
 BYTE   W08
 BYTE   EOT
 BYTE   W01
 BYTE   N68  Gn3
 BYTE   W48
//  #12 //148   ----------------------------------------
 BYTE   W24
 BYTE   N32  En3
 BYTE   W36
 BYTE   Gn3
 BYTE   W36
//  #12 //149   ----------------------------------------
 BYTE   TIE  Fs3
 BYTE   W54
 BYTE   N17  Fs4
 BYTE   N17  An4
 BYTE   N17  An5
 BYTE   W18
 BYTE   An4
 BYTE   N17  Dn5
 BYTE   N17  Dn6
 BYTE   W18
 BYTE   Fs4
 BYTE   N17  An4
 BYTE   N17  An5
 BYTE   W06
//  #12 //150   ----------------------------------------
 BYTE   W11
 BYTE   EOT
 BYTE   Fs3
 BYTE   W01
 BYTE   N17  Fs4
 BYTE   W18
 BYTE   Gn4
 BYTE   W18
 BYTE   N68  An4
 BYTE   W48
//  #12 //151   ----------------------------------------
 BYTE   W24
 BYTE   Gs4
 BYTE   W72
//  #12 //152   ----------------------------------------
 BYTE   W36
 BYTE   N32
 BYTE   W06
 BYTE   W07
 BYTE   W07
 BYTE   W07
 BYTE   W06
 BYTE   W03
 BYTE   N52  An4
 BYTE   W04
 BYTE   W07
 BYTE   W07
 BYTE   W06
//  #12 //153   ----------------------------------------
 BYTE   W07
 BYTE   W07
 BYTE   W07
 BYTE   W06
 BYTE   W03
 BYTE   N17  Bn4
 BYTE   W04
 BYTE   W07
 BYTE   W07
 BYTE   N68
 BYTE   W48
//  #12 //154   ----------------------------------------
 BYTE   W24
 BYTE   N52  An4
 BYTE   W54
 BYTE   N17  En4
 BYTE   W18
//  #12 //155   ----------------------------------------
 BYTE   N68  Bn4
 BYTE   W72
 BYTE   N17  En4
 BYTE   W18
 BYTE   An4
 BYTE   W06
//  #12 //156   ----------------------------------------
 BYTE   W12
 BYTE   En4
 BYTE   W18
 BYTE   An4
 BYTE   W18
 BYTE   N68  Bn0
 BYTE   N05  Bn4
 BYTE   W18
 BYTE   N05
 BYTE   W06
 BYTE   N05
 BYTE   W06
 BYTE   N05
 BYTE   W06
 BYTE   N05
 BYTE   W12
//  #12 //157   ----------------------------------------
 BYTE   W06
 BYTE   N05
 BYTE   W06
 BYTE   N05
 BYTE   W06
 BYTE   N05
 BYTE   W06
 BYTE   N17  Bn0
 BYTE   N17  Fs3
 BYTE   N17  Bn3
 BYTE   N05  Bn4
 BYTE   W06
 BYTE   N05
 BYTE   W06
 BYTE   N05
 BYTE   W06
 BYTE   N17  Cn1
 BYTE   N17  Gn3
 BYTE   N17  Cn4
 BYTE   N05  Bn4
 BYTE   W06
 BYTE   N05
 BYTE   W06
 BYTE   N05
 BYTE   W06
 BYTE   N52  Bn0
 BYTE   N05  Bn4
 BYTE   W18
 BYTE   N05
 BYTE   W06
 BYTE   N05
 BYTE   W06
 BYTE   N05
 BYTE   W06
//  #12 //158   ----------------------------------------
 BYTE   N05
 BYTE   W18
 BYTE   N17  Bn0
 BYTE   N05  Bn4
 BYTE   W06
 BYTE   N05
 BYTE   W06
 BYTE   N05
 BYTE   W06
 BYTE   N17  Bn0
 BYTE   N17  An3
 BYTE   N17  Dn4
 BYTE   N05  Bn4
 BYTE   W06
 BYTE   N05
 BYTE   W06
 BYTE   N05
 BYTE   W06
 BYTE   N17  Fs0
 BYTE   N17  Gn3
 BYTE   N17  Cn4
 BYTE   N05  Bn4
 BYTE   W06
 BYTE   N05
 BYTE   W06
 BYTE   N05
 BYTE   W06
 BYTE   N68  Bn0
 BYTE   N05  Bn4
 BYTE   W18
 BYTE   N05
 BYTE   W06
//  #12 //159   ----------------------------------------
 BYTE   PATT
  POIN2 Label_01196981
//  #12 //160   ----------------------------------------
 BYTE   W06
 BYTE   N05  Bn4  v104
 BYTE   W06
 BYTE   N05
 BYTE   W06
 BYTE   N05
 BYTE   W06
 BYTE   N05
 BYTE   W18
 BYTE   N17  Bn0
 BYTE   N05  Bn4
 BYTE   W06
 BYTE   N05
 BYTE   W06
 BYTE   N05
 BYTE   W06
 BYTE   N17  Bn0
 BYTE   N17  Fs3
 BYTE   N17  Bn3
 BYTE   N05  Bn4
 BYTE   W06
 BYTE   N05
 BYTE   W06
 BYTE   N05
 BYTE   W06
 BYTE   N17  Gs0
 BYTE   N17  An3
 BYTE   N17  Dn4
 BYTE   N05  As4
 BYTE   W06
 BYTE   N05
 BYTE   W06
 BYTE   N05
 BYTE   W06
//  #12 //161   ----------------------------------------
 BYTE   N68  Gs0
 BYTE   N05  As4
 BYTE   W18
 BYTE   N05
 BYTE   W06
 BYTE   N05
 BYTE   W06
 BYTE   N05
 BYTE   W06
 BYTE   N05
 BYTE   W18
 BYTE   N05
 BYTE   W06
 BYTE   N05
 BYTE   W06
 BYTE   N05
 BYTE   W06
 BYTE   N17  Gs0
 BYTE   N17  Gs3
 BYTE   N17  Ds4
 BYTE   N05  As4
 BYTE   W06
 BYTE   N05
 BYTE   W06
 BYTE   N05
 BYTE   W06
 BYTE   N17  Bn0
 BYTE   N17  Bn3
 BYTE   N17  En4
 BYTE   N05  As4
 BYTE   W06
//  #12 //162   ----------------------------------------
 BYTE   N05
 BYTE   W06
 BYTE   N05
 BYTE   W06
 BYTE   N52  Gs0
 BYTE   N05  As4
 BYTE   W18
 BYTE   N05
 BYTE   W06
 BYTE   N05
 BYTE   W06
 BYTE   N05
 BYTE   W06
 BYTE   N05
 BYTE   W18
 BYTE   N17  Gs0
 BYTE   N05  As4
 BYTE   W06
 BYTE   N05
 BYTE   W06
 BYTE   N05
 BYTE   W06
 BYTE   N17  En1
 BYTE   N17  Cs4
 BYTE   N17  Fs4
 BYTE   N05  As4
 BYTE   W06
 BYTE   N05
 BYTE   W06
//  #12 //163   ----------------------------------------
 BYTE   N05
 BYTE   W06
 BYTE   N17  Bn0
 BYTE   N17  Bn3
 BYTE   N17  En4
 BYTE   N05  As4
 BYTE   W06
 BYTE   N05
 BYTE   W06
 BYTE   N05
 BYTE   W06
 BYTE   TIE  As0
 BYTE   N05  As4
 BYTE   W18
 BYTE   N05
 BYTE   W06
 BYTE   N05
 BYTE   W06
 BYTE   N05
 BYTE   W06
 BYTE   N02  Ds3
 BYTE   N05  As4
 BYTE   W03
 BYTE   N02  En3
 BYTE   W03
 BYTE   Fs3
 BYTE   W03
 BYTE   Gs3
 BYTE   W03
 BYTE   As3
 BYTE   W03
 BYTE   Bn3
 BYTE   W03
 BYTE   Cs4
 BYTE   N05  As4
 BYTE   W03
 BYTE   N02  Ds4
 BYTE   W03
 BYTE   En4
 BYTE   N05  As4
 BYTE   W03
 BYTE   N02  Fs4
 BYTE   W03
 BYTE   Gs4
 BYTE   N03  As4
 BYTE   W03
 BYTE   N02
 BYTE   W03
//  #12 //164   ----------------------------------------
 BYTE   N05
 BYTE   N04  Ds5
 BYTE   W04
 BYTE   En5
 BYTE   W02
 BYTE   N05  As4
 BYTE   W03
 BYTE   N08  Ds5
 BYTE   W03
 BYTE   N05  As4
 BYTE   W06
 BYTE   N05
 BYTE   N04  Cs5
 BYTE   W04
 BYTE   Ds5
 BYTE   W02
 BYTE   N05  As4
 BYTE   W03
 BYTE   N08  Cs5
 BYTE   W03
 BYTE   N05  As4
 BYTE   W05
 BYTE   EOT
 BYTE   As0
 BYTE   W01
 BYTE   N04  Bn4
 BYTE   W04
 BYTE   Cs5
 BYTE   W05
 BYTE   N08  Bn4
 BYTE   W09
 BYTE   N04  As4
 BYTE   W04
 BYTE   Bn4
 BYTE   W05
 BYTE   N08  As4
 BYTE   W09
 BYTE   N02  Gn4
 BYTE   W03
 BYTE   Ds4
 BYTE   W03
 BYTE   Cs4
 BYTE   W03
 BYTE   As3
 BYTE   W03
 BYTE   Gn3
 BYTE   W03
 BYTE   Ds3
 BYTE   W03
 BYTE   Cs3
 BYTE   W03
 BYTE   As2
 BYTE   W03
//  #12 //165   ----------------------------------------
 BYTE   Gs2
 BYTE   W03
 BYTE   Gn2
 BYTE   W03
 BYTE   Ds2
 BYTE   W03
 BYTE   Cs2
 BYTE   W03
 BYTE   As1
 BYTE   N32  Ds4
 BYTE   N32  Ds5
 BYTE   W03
 BYTE   N02  Gn1
 BYTE   W03
 BYTE   Ds1
 BYTE   W03
 BYTE   Cs1
 BYTE   W03
 BYTE   N23  As0
 BYTE   W24
 BYTE   TIE  Bn4
 BYTE   TIE  Bn5
 BYTE   W48
//  #12 //166   ----------------------------------------
 BYTE   W56
 BYTE   W03
 BYTE   EOT
 BYTE   Bn4  v095
 BYTE   W01
 BYTE   N32  Ds4
 BYTE   N32  Ds5
 BYTE   W36
//  #12 //167   ----------------------------------------
Label_01197284:
 BYTE   TIE  As4  v104
 BYTE   TIE  As5
 BYTE   W96
 BYTE   PEND 
//  #12 //168   ----------------------------------------
 BYTE   W11
 BYTE   EOT
 BYTE   As4  v094
 BYTE   W01
 BYTE   N32  Ds4
 BYTE   N32  Ds5
 BYTE   W36
 BYTE   N68  Gs4
 BYTE   N68  Gs5
 BYTE   W48
//  #12 //169   ----------------------------------------
Label_0119729A:
 BYTE   W24
 BYTE   N17  Fs4  v104
 BYTE   N17  Fs5
 BYTE   W18
 BYTE   En4
 BYTE   N17  En5
 BYTE   W18
 BYTE   Bn3
 BYTE   N17  Bn4
 BYTE   W18
 BYTE   Cs4
 BYTE   N17  Cs5
 BYTE   W18
 BYTE   PEND 
//  #12 //170   ----------------------------------------
Label_011972AE:
 BYTE   N32  En4  v104
 BYTE   N32  En5
 BYTE   W36
 BYTE   N92  Ds4
 BYTE   N92  Ds5
 BYTE   W60
 BYTE   PEND 
//  #12 //171   ----------------------------------------
 BYTE   W48
 BYTE   N68  Ds4
 BYTE   N68  Ds5
 BYTE   W36
 BYTE   N32  Gs4
 BYTE   W12
//  #12 //172   ----------------------------------------
 BYTE   W24
 BYTE   N17  Cs4
 BYTE   N44  Gn4
 BYTE   N17  Cs5
 BYTE   W18
 BYTE   Bn3
 BYTE   N17  Bn4
 BYTE   W18
 BYTE   Cs4
 BYTE   N17  Cs5
 BYTE   W12
 BYTE   N11  Gs4
 BYTE   W06
 BYTE   N17  Fs4
 BYTE   N17  Fs5
 BYTE   W06
 BYTE   N11  As4
 BYTE   W12
//  #12 //173   ----------------------------------------
 BYTE   N17  Ds4
 BYTE   N17  Ds5
 BYTE   W18
 BYTE   Bn3
 BYTE   N17  Bn4
 BYTE   W18
 BYTE   N68  Gs3
 BYTE   N36  Gs4
 BYTE   W36
 BYTE   N32
 BYTE   W02
 BYTE   W02
 BYTE   W02
 BYTE   W03
 BYTE   W02
 BYTE   W02
 BYTE   W02
 BYTE   W03
 BYTE   W02
 BYTE   W02
 BYTE   W02
//  #12 //174   ----------------------------------------
 BYTE   W03
 BYTE   W02
 BYTE   W02
 BYTE   W02
 BYTE   W03
 BYTE   W02
 BYTE   W02
 BYTE   W02
 BYTE   W03
 BYTE   W02
 BYTE   W02
 BYTE   W02
 BYTE   W03
 BYTE   N17  Fs3
 BYTE   N17  Fs4
 BYTE   W02
 BYTE   W02
 BYTE   W02
 BYTE   W03
 BYTE   W02
 BYTE   W02
 BYTE   W02
 BYTE   W03
 BYTE   N32  Gs3
 BYTE   N32  Gs4
 BYTE   W36
 BYTE   N30  Ds4
 BYTE   N88  Ds5
 BYTE   W12
//  #12 //175   ----------------------------------------
 BYTE   W18
 BYTE   N05  Ds4
 BYTE   W06
 BYTE   Gs4
 BYTE   W06
 BYTE   Ds4
 BYTE   W06
 BYTE   Bn3
 BYTE   W06
 BYTE   Ds4
 BYTE   W06
 BYTE   Bn3
 BYTE   W06
 BYTE   Gs3
 BYTE   W06
 BYTE   N32  Gs4
 BYTE   W18
 BYTE   N17  Fs3
 BYTE   N17  Fs4
 BYTE   W18
//  #12 //176   ----------------------------------------
 BYTE   N32  Gs3
 BYTE   N52  En4
 BYTE   N32  Gs4
 BYTE   W36
 BYTE   N68  Ds4
 BYTE   N68  Ds5
 BYTE   W18
 BYTE   N17  Gs4
 BYTE   W18
 BYTE   N32  Gn4
 BYTE   W24
//  #12 //177   ----------------------------------------
 BYTE   W12
 BYTE   Ds4
 BYTE   N32  Ds5
 BYTE   W36
 BYTE   TIE  Bn4
 BYTE   TIE  Bn5
 BYTE   W48
//  #12 //178   ----------------------------------------
 BYTE   W56
 BYTE   W03
 BYTE   EOT
 BYTE   Bn4  v095
 BYTE   W01
 BYTE   N32  Ds4
 BYTE   N32  Ds5
 BYTE   W36
//  #12 //179   ----------------------------------------
 BYTE   PATT
  POIN2 Label_01197284
//  #12 //180   ----------------------------------------
 BYTE   W11
 BYTE   EOT
 BYTE   As4  v094
 BYTE   W01
 BYTE   N32  Ds4  v104
 BYTE   N32  Ds5
 BYTE   W36
 BYTE   N68  Gs4
 BYTE   N68  Gs5
 BYTE   W48
//  #12 //181   ----------------------------------------
 BYTE   PATT
  POIN2 Label_0119729A
//  #12 //182   ----------------------------------------
 BYTE   PATT
  POIN2 Label_011972AE
//  #12 //183   ----------------------------------------
 BYTE   W48
 BYTE   N68  As2  v104
 BYTE   N68  En3
 BYTE   N68  Ds4
 BYTE   N68  Ds5
 BYTE   W03
 BYTE   As3
 BYTE   W44
 BYTE   W01
//  #12 //184   ----------------------------------------
 BYTE   W24
 BYTE   Ds2
 BYTE   N32  Ds3
 BYTE   N32  Gn3
 BYTE   N17  Cs4
 BYTE   N17  Cs5
 BYTE   W18
 BYTE   Bn3
 BYTE   N17  Bn4
 BYTE   W18
 BYTE   N32  Bn3
 BYTE   N17  Cs4
 BYTE   N17  Cs5
 BYTE   W18
 BYTE   Fs4
 BYTE   N17  Fs5
 BYTE   W18
//  #12 //185   ----------------------------------------
 BYTE   N68  Gs2
 BYTE   N68  Ds3
 BYTE   N68  Fs3
 BYTE   N17  Ds4
 BYTE   N17  Ds5
 BYTE   W18
 BYTE   Bn3
 BYTE   N17  Bn4
 BYTE   W18
 BYTE   N92  Gs3
 BYTE   N92  Gs4
 BYTE   W36
 BYTE   N68  Cs2
 BYTE   N68  Cs3
 BYTE   N68  Fn3
 BYTE   W24
//  #12 //186   ----------------------------------------
 BYTE   W48
 BYTE   N04  En2
 BYTE   W04
 BYTE   Fs2
 BYTE   W05
 BYTE   Gs2
 BYTE   W04
 BYTE   Bn2
 BYTE   W05
 BYTE   Ds3
 BYTE   W04
 BYTE   En3
 BYTE   W05
 BYTE   Fs3
 BYTE   W04
 BYTE   Gs3
 BYTE   W05
 BYTE   Bn3
 BYTE   W04
 BYTE   Gs3
 BYTE   W05
 BYTE   Ds3
 BYTE   W03
//  #12 //187   ----------------------------------------
 BYTE   W01
 BYTE   Bn2
 BYTE   W05
 BYTE   Gs2
 BYTE   W04
 BYTE   Fs2
 BYTE   W05
 BYTE   Gs2
 BYTE   W04
 BYTE   Ds3
 BYTE   W05
 BYTE   Gs3
 BYTE   W04
 BYTE   Bn3
 BYTE   W05
 BYTE   Ds4
 BYTE   W04
 BYTE   Gs4
 BYTE   W05
 BYTE   Ds4
 BYTE   W04
 BYTE   Bn3
 BYTE   W05
 BYTE   Gs3
 BYTE   W04
 BYTE   Ds3
 BYTE   W05
 BYTE   Bn2
 BYTE   W04
 BYTE   Gs2
 BYTE   W05
 BYTE   Ds2
 BYTE   W04
 BYTE   Bn1
 BYTE   W05
 BYTE   Ds2
 BYTE   W04
 BYTE   Bn1
 BYTE   W05
 BYTE   Gs1
 BYTE   W04
 BYTE   Bn1
 BYTE   W05
//  #12 //188   ----------------------------------------
 BYTE   Fs1
 BYTE   W04
 BYTE   As1
 BYTE   W05
 BYTE   Cs2
 BYTE   W04
 BYTE   En2
 BYTE   W05
 BYTE   Fs2
 BYTE   W04
 BYTE   As2
 BYTE   W05
 BYTE   Cs3
 BYTE   W04
 BYTE   Fs3
 BYTE   W05
 BYTE   As3
 BYTE   W04
 BYTE   Fs3
 BYTE   W05
 BYTE   Cs3
 BYTE   W04
 BYTE   As2
 BYTE   W05
 BYTE   Fs2
 BYTE   W04
 BYTE   En2
 BYTE   W05
 BYTE   Fs2
 BYTE   W04
 BYTE   Cs3
 BYTE   W05
 BYTE   Fs3
 BYTE   W04
 BYTE   As3
 BYTE   W05
 BYTE   Cs4
 BYTE   W04
 BYTE   Fs4
 BYTE   W05
 BYTE   Cs4
 BYTE   W04
 BYTE   As3
 BYTE   W02
//  #12 //189   ----------------------------------------
 BYTE   W03
 BYTE   Fs3
 BYTE   W04
 BYTE   Cs3
 BYTE   W05
 BYTE   As2
 BYTE   W04
 BYTE   Fs2
 BYTE   W05
 BYTE   Cs2
 BYTE   W04
 BYTE   As1
 BYTE   W05
 BYTE   Cs2
 BYTE   N17  Fs4
 BYTE   W04
 BYTE   N04  As1
 BYTE   W05
 BYTE   Fs1
 BYTE   W04
 BYTE   As1
 BYTE   W05
 BYTE   N68  En2
 BYTE   N68  Bn2
 BYTE   N32  Gs4
 BYTE   W36
 BYTE   N68  Ds5
 BYTE   W12
//  #12 //190   ----------------------------------------
 BYTE   W24
 BYTE   As2
 BYTE   W54
 BYTE   N17  Fs4
 BYTE   W18
//  #12 //191   ----------------------------------------
 BYTE   TIE  An2
 BYTE   TIE  En3
 BYTE   TIE  Cs4
 BYTE   N32  Gs4
 BYTE   W36
 BYTE   TIE  Ds5
 BYTE   W60
//  #12 //192   ----------------------------------------
 BYTE   W44
 BYTE   W03
 BYTE   EOT
 BYTE   An2  v064
 BYTE   Cs4  v087
 BYTE   W07
 BYTE   N08  Ds6
 BYTE   W09
 BYTE   Cs6
 BYTE   W09
 BYTE   Gs5
 BYTE   W09
 BYTE   N05  Ds5
 BYTE   W06
 BYTE   Cs5
 BYTE   W06
 BYTE   Gs4
 BYTE   W03
//  #12 //193   ----------------------------------------
 BYTE   W03
 BYTE   En4
 BYTE   W06
 BYTE   N02  Ds4
 BYTE   W03
 BYTE   Cs4
 BYTE   W03
 BYTE   Gs3
 BYTE   W03
 BYTE   En3
 BYTE   W03
 BYTE   Cs3
 BYTE   W03
 BYTE   N05  Fn1
 BYTE   W06
 BYTE   Cn2
 BYTE   W06
 BYTE   Fn2
 BYTE   W06
 BYTE   Gs2
 BYTE   W06
 BYTE   Cn3
 BYTE   W06
 BYTE   Ds3
 BYTE   W06
 BYTE   Fn1
 BYTE   W06
 BYTE   Cn2
 BYTE   W06
 BYTE   Fn2
 BYTE   W06
 BYTE   Gs2
 BYTE   W06
 BYTE   Cn3
 BYTE   W06
 BYTE   Ds3
 BYTE   W06
//  #12 //194   ----------------------------------------
 BYTE   Gn3
 BYTE   W06
 BYTE   Ds3
 BYTE   W06
 BYTE   Cn3
 BYTE   W06
 BYTE   Ds3
 BYTE   W06
 BYTE   Cn3
 BYTE   W06
 BYTE   Gs2
 BYTE   W06
 BYTE   Fn2
 BYTE   W06
 BYTE   Gs2
 BYTE   W06
 BYTE   As2
 BYTE   W06
 BYTE   Cn3
 BYTE   W06
 BYTE   Gs2
 BYTE   W06
 BYTE   Fn2
 BYTE   W06
 BYTE   Fn1
 BYTE   W06
 BYTE   Cn2
 BYTE   W06
 BYTE   Fn2
 BYTE   W06
 BYTE   Gs2
 BYTE   W06
//  #12 //195   ----------------------------------------
 BYTE   Cn3
 BYTE   W06
 BYTE   Cs3
 BYTE   W06
 BYTE   Fn1
 BYTE   W06
 BYTE   Cn2
 BYTE   W06
 BYTE   Fn2
 BYTE   W06
 BYTE   Gs2
 BYTE   W06
 BYTE   N02  Cs2
 BYTE   N05  Cn3
 BYTE   W03
 BYTE   N02  Fn2
 BYTE   W03
 BYTE   Fs2
 BYTE   N05  Cs3
 BYTE   W03
 BYTE   N02  Gs2
 BYTE   W03
 BYTE   Cn3
 BYTE   N05  Gn3
 BYTE   W03
 BYTE   N02  Cs3
 BYTE   W03
 BYTE   N05
 BYTE   N02  Fn3
 BYTE   W03
 BYTE   Fs3
 BYTE   W03
 BYTE   N05  Cn3
 BYTE   N02  Cs4
 BYTE   W03
 BYTE   Ds4
 BYTE   W03
 BYTE   N05  Cs3
 BYTE   N02  Cs4
 BYTE   W03
 BYTE   Ds4
 BYTE   W03
 BYTE   N05  Cn3
 BYTE   N02  Cs4
 BYTE   W03
 BYTE   Gs3
 BYTE   W03
 BYTE   N05  Gs2
 BYTE   N02  Fn3
 BYTE   W03
 BYTE   Cs3
 BYTE   W03
 BYTE   N05  Fn2
 BYTE   N02  Cn3
 BYTE   W03
 BYTE   As2
 BYTE   W03
 BYTE   Gs2
 BYTE   W03
 BYTE   Fn2
 BYTE   W03
//  #12 //196   ----------------------------------------
 BYTE   Cs2
 BYTE   N05  Cn3
 BYTE   W06
 BYTE   Cs3
 BYTE   W06
 BYTE   Cn3
 BYTE   W06
 BYTE   Gs2
 BYTE   W06
 BYTE   Fn1
 BYTE   W06
 BYTE   Cn2
 BYTE   W06
 BYTE   Fn2
 BYTE   W06
 BYTE   Gs2
 BYTE   W06
 BYTE   Cn3
 BYTE   W06
 BYTE   Ds3
 BYTE   W06
 BYTE   Fn1
 BYTE   W06
 BYTE   Cn2
 BYTE   W06
 BYTE   Fn2
 BYTE   W06
 BYTE   Gs2
 BYTE   W06
 BYTE   Cn3
 BYTE   W06
 BYTE   Ds3
 BYTE   W06
//  #12 //197   ----------------------------------------
 BYTE   Gn3
 BYTE   W06
 BYTE   Ds3
 BYTE   W06
 BYTE   Cn3
 BYTE   W06
 BYTE   Ds3
 BYTE   W06
 BYTE   Cn3
 BYTE   W06
 BYTE   Gs2
 BYTE   W06
 BYTE   Fn2
 BYTE   W06
 BYTE   Gs2
 BYTE   W06
 BYTE   As2
 BYTE   W06
 BYTE   Cn3
 BYTE   W06
 BYTE   Gs2
 BYTE   W06
 BYTE   Fn2
 BYTE   W06
 BYTE   Cs3
 BYTE   W06
 BYTE   Gs2
 BYTE   W06
 BYTE   Fn2
 BYTE   W06
 BYTE   Gs2
 BYTE   W06
//  #12 //198   ----------------------------------------
 BYTE   Fn2
 BYTE   W06
 BYTE   Gs2
 BYTE   W06
 BYTE   Gn2
 BYTE   W06
 BYTE   Gs2
 BYTE   W06
 BYTE   Fn2
 BYTE   W06
 BYTE   Cs3
 BYTE   W06
 BYTE   Gs2
 BYTE   W06
 BYTE   Fn2
 BYTE   W06
 BYTE   Gn2
 BYTE   W06
 BYTE   Gs2
 BYTE   W06
 BYTE   Fn2
 BYTE   W06
 BYTE   Gn2
 BYTE   W06
 BYTE   Gs2
 BYTE   W06
 BYTE   Fn2
 BYTE   W06
 BYTE   Cs3
 BYTE   W06
 BYTE   Gs2
 BYTE   W06
//  #12 //199   ----------------------------------------
 BYTE   Gn2
 BYTE   W06
 BYTE   Fn2
 BYTE   W06
 BYTE   Cs2
 BYTE   W06
 BYTE   As1
 BYTE   W05
 BYTE   FINE

//**************** Track 13 (Midi-Chn.12) ****************//

FireEmblemEngage_FallenPetalsNew_013:
//  #13 //000   ----------------------------------------
 BYTE   KEYSH   FireEmblemEngage_FallenPetalsNew_key+0
 BYTE   VOICE   0
 BYTE   MODT 0
 BYTE   LFOS 44
 BYTE   VOL   31*FireEmblemEngage_FallenPetalsNew_mvl/mxv
 BYTE   BENDR  12
 BYTE   PAN   c_v+0
 BYTE   W96
//  #13 //001   ----------------------------------------
 BYTE   W36
 BYTE   N01  As0  v104
 BYTE   W02
 BYTE   Cs1
 BYTE   W02
 BYTE   Fn1
 BYTE   W02
 BYTE   Gs1
 BYTE   W02
 BYTE   As1
 BYTE   W02
 BYTE   Cs2
 BYTE   W02
 BYTE   Fn2
 BYTE   W02
 BYTE   Gs2
 BYTE   W02
 BYTE   As2
 BYTE   W02
 BYTE   Cs3
 BYTE   W02
 BYTE   Fn3
 BYTE   W02
 BYTE   Gs3
 BYTE   W02
 BYTE   As3
 BYTE   W02
 BYTE   Cs4
 BYTE   W02
 BYTE   Fn4
 BYTE   W02
 BYTE   Gs4
 BYTE   W02
 BYTE   As4
 BYTE   W02
 BYTE   Gs4
 BYTE   W02
 BYTE   Fn4
 BYTE   W02
 BYTE   Cs4
 BYTE   W02
 BYTE   As4
 BYTE   W02
 BYTE   Gs4
 BYTE   W02
 BYTE   Fn4
 BYTE   W02
 BYTE   Cs4
 BYTE   W02
 BYTE   As3
 BYTE   W02
 BYTE   Gs3
 BYTE   W02
 BYTE   Fn3
 BYTE   W02
 BYTE   Cs3
 BYTE   W02
 BYTE   As2
 BYTE   W02
 BYTE   Gs2
 BYTE   W02
//  #13 //002   ----------------------------------------
Label_01198FA6:
 BYTE   N01  Fn2  v104
 BYTE   W02
 BYTE   Cs2
 BYTE   W02
 BYTE   As1
 BYTE   W02
 BYTE   Gs1
 BYTE   W02
 BYTE   Fn1
 BYTE   W02
 BYTE   Cs1
 BYTE   W84
 BYTE   W02
 BYTE   PEND 
//  #13 //003   ----------------------------------------
 BYTE   W84
 BYTE   En1
 BYTE   W02
 BYTE   Gn1
 BYTE   W02
 BYTE   Bn1
 BYTE   W02
 BYTE   Dn2
 BYTE   W02
 BYTE   En2
 BYTE   W02
 BYTE   Gn2
 BYTE   W02
//  #13 //004   ----------------------------------------
 BYTE   Bn2
 BYTE   W02
 BYTE   Dn3
 BYTE   W02
 BYTE   En3
 BYTE   W02
 BYTE   Gn3
 BYTE   W02
 BYTE   Bn3
 BYTE   W02
 BYTE   Dn4
 BYTE   W02
 BYTE   En4
 BYTE   W02
 BYTE   Gn4
 BYTE   W02
 BYTE   Bn4
 BYTE   W02
 BYTE   Dn5
 BYTE   W78
//  #13 //005   ----------------------------------------
 BYTE   W36
 BYTE   As0
 BYTE   W02
 BYTE   Cs1
 BYTE   W02
 BYTE   Fn1
 BYTE   W02
 BYTE   Gs1
 BYTE   W02
 BYTE   As1
 BYTE   W02
 BYTE   Cs2
 BYTE   W02
 BYTE   Fn2
 BYTE   W02
 BYTE   Gs2
 BYTE   W02
 BYTE   As2
 BYTE   W02
 BYTE   Cs3
 BYTE   W02
 BYTE   Fn3
 BYTE   W02
 BYTE   Gs3
 BYTE   W02
 BYTE   As3
 BYTE   W02
 BYTE   Cs4
 BYTE   W02
 BYTE   Fn4
 BYTE   W02
 BYTE   Gs4
 BYTE   W02
 BYTE   As4
 BYTE   W02
 BYTE   Gs4
 BYTE   W02
 BYTE   Fn4
 BYTE   W02
 BYTE   Cs4
 BYTE   W02
 BYTE   As4
 BYTE   W02
 BYTE   Gs4
 BYTE   W02
 BYTE   Fn4
 BYTE   W02
 BYTE   Cs4
 BYTE   W02
 BYTE   As3
 BYTE   W02
 BYTE   Gs3
 BYTE   W02
 BYTE   Fn3
 BYTE   W02
 BYTE   Cs3
 BYTE   W02
 BYTE   As2
 BYTE   W02
 BYTE   Gs2
 BYTE   W02
//  #13 //006   ----------------------------------------
 BYTE   PATT
  POIN2 Label_01198FA6
//  #13 //007   ----------------------------------------
 BYTE   W96
//  #13 //008   ----------------------------------------
 BYTE   W96
//  #13 //009   ----------------------------------------
 BYTE   W96
//  #13 //010   ----------------------------------------
 BYTE   W96
//  #13 //011   ----------------------------------------
 BYTE   W96
//  #13 //012   ----------------------------------------
 BYTE   W96
//  #13 //013   ----------------------------------------
 BYTE   W96
//  #13 //014   ----------------------------------------
 BYTE   W96
//  #13 //015   ----------------------------------------
 BYTE   W96
//  #13 //016   ----------------------------------------
 BYTE   W96
//  #13 //017   ----------------------------------------
 BYTE   W54
 BYTE   N17  Ds3  v104
 BYTE   W18
 BYTE   N68
 BYTE   W24
//  #13 //018   ----------------------------------------
 BYTE   W48
 BYTE   Cs3
 BYTE   W48
//  #13 //019   ----------------------------------------
 BYTE   W24
 BYTE   Dn3
 BYTE   W72
//  #13 //020   ----------------------------------------
 BYTE   Bn2
 BYTE   W72
 BYTE   TIE  Cn3
 BYTE   W24
//  #13 //021   ----------------------------------------
 BYTE   W96
//  #13 //022   ----------------------------------------
 BYTE   W96
//  #13 //023   ----------------------------------------
 BYTE   W68
 BYTE   W03
 BYTE   EOT
 BYTE   W01
Label_0119903B:
 BYTE   TIE  Gs2  v104
 BYTE   W24
//  #13 //024   ----------------------------------------
 BYTE   W96
//  #13 //025   ----------------------------------------
 BYTE   W23
 BYTE   EOT
 BYTE   W01
 BYTE   TIE  As2
 BYTE   W72
//  #13 //026   ----------------------------------------
 BYTE   W68
 BYTE   W03
 BYTE   EOT
 BYTE   W01
 BYTE   TIE  Cn3
 BYTE   W24
//  #13 //027   ----------------------------------------
 BYTE   W96
//  #13 //028   ----------------------------------------
 BYTE   W23
 BYTE   EOT
 BYTE   W01
 BYTE   TIE
 BYTE   W72
//  #13 //029   ----------------------------------------
 BYTE   W68
 BYTE   W03
 BYTE   EOT
 BYTE   W01
 BYTE   N68  Ds3
 BYTE   W24
//  #13 //030   ----------------------------------------
 BYTE   W48
 BYTE   Cs3
 BYTE   W48
//  #13 //031   ----------------------------------------
 BYTE   W24
 BYTE   Cn3
 BYTE   W72
//  #13 //032   ----------------------------------------
 BYTE   As2
 BYTE   W72
 BYTE   TIE  Cn3
 BYTE   W24
//  #13 //033   ----------------------------------------
 BYTE   W96
//  #13 //034   ----------------------------------------
 BYTE   W96
//  #13 //035   ----------------------------------------
 BYTE   W68
 BYTE   W03
 BYTE   EOT
 BYTE   W01
 BYTE   N68  Gs2
 BYTE   W24
//  #13 //036   ----------------------------------------
 BYTE   W48
 BYTE   N23
 BYTE   W24
 BYTE   N23
 BYTE   W24
//  #13 //037   ----------------------------------------
 BYTE   As2
 BYTE   W12
 BYTE   N05  Cs5
 BYTE   W01
 BYTE   W02
 BYTE   W01
 BYTE   W01
 BYTE   W01
 BYTE   Ds5
 BYTE   W01
 BYTE   W01
 BYTE   W01
 BYTE   W01
 BYTE   W02
 BYTE   N68  Cn3
 BYTE   N05  Gs5
 BYTE   W02
 BYTE   W03
 BYTE   W01
 BYTE   Ds5
 BYTE   W01
 BYTE   W03
 BYTE   W02
 BYTE   Cs5
 BYTE   W01
 BYTE   W02
 BYTE   W03
 BYTE   Gs5
 BYTE   W03
 BYTE   W02
 BYTE   W01
 BYTE   Ds5
 BYTE   W02
 BYTE   W02
 BYTE   W02
 BYTE   Cs5
 BYTE   W01
 BYTE   W03
 BYTE   W02
 BYTE   Gs5
 BYTE   W03
 BYTE   W03
 BYTE   W30
//  #13 //038   ----------------------------------------
 BYTE   N68  Cs3
 BYTE   W72
 BYTE   Cn3
 BYTE   W24
//  #13 //039   ----------------------------------------
 BYTE   W66
 BYTE   N17
 BYTE   W18
 BYTE   N17
 BYTE   W12
//  #13 //040   ----------------------------------------
 BYTE   W06
 BYTE   Cs3
 BYTE   W18
 BYTE   N23  Ds3
 BYTE   W24
 BYTE   As2
 BYTE   W24
 BYTE   Gs2
 BYTE   W24
//  #13 //041   ----------------------------------------
 BYTE   Gn2
 BYTE   W24
 BYTE   Ds2
 BYTE   W24
 BYTE   Cn2
 BYTE   W24
 BYTE   N68  Gs2
 BYTE   W24
//  #13 //042   ----------------------------------------
 BYTE   W48
 BYTE   N44  Cs3
 BYTE   W48
//  #13 //043   ----------------------------------------
 BYTE   N23  Cn3
 BYTE   W12
 BYTE   N05  Cs5
 BYTE   W01
 BYTE   W02
 BYTE   W01
 BYTE   W01
 BYTE   W01
 BYTE   Ds5
 BYTE   W01
 BYTE   W01
 BYTE   W01
 BYTE   W01
 BYTE   W02
 BYTE   N68  Cs3
 BYTE   N05  Gs5
 BYTE   W02
 BYTE   W03
 BYTE   W01
 BYTE   Ds5
 BYTE   W01
 BYTE   W03
 BYTE   W02
 BYTE   Cs5
 BYTE   W01
 BYTE   W02
 BYTE   W03
 BYTE   Gs5
 BYTE   W03
 BYTE   W02
 BYTE   W01
 BYTE   Ds5
 BYTE   W02
 BYTE   W02
 BYTE   W02
 BYTE   Cs5
 BYTE   W01
 BYTE   W03
 BYTE   W02
 BYTE   Gs5
 BYTE   W03
 BYTE   W03
 BYTE   W30
//  #13 //044   ----------------------------------------
 BYTE   N68  Fn3
 BYTE   W72
 BYTE   Ds3
 BYTE   W24
//  #13 //045   ----------------------------------------
 BYTE   W48
 BYTE   Gn3
 BYTE   W48
//  #13 //046   ----------------------------------------
 BYTE   W24
 BYTE   Fs3
 BYTE   W72
//  #13 //047   ----------------------------------------
 BYTE   N23  Cn3
 BYTE   W03
 BYTE   W03
 BYTE   W03
 BYTE   W03
 BYTE   W03
 BYTE   W03
 BYTE   W03
 BYTE   W03
 BYTE   As2
 BYTE   W03
 BYTE   W03
 BYTE   W03
 BYTE   W03
 BYTE   W03
 BYTE   W03
 BYTE   W03
 BYTE   W03
 BYTE   Gs2
 BYTE   W24
 BYTE   TIE  An2
 BYTE   W24
//  #13 //048   ----------------------------------------
 BYTE   W96
//  #13 //049   ----------------------------------------
 BYTE   W23
 BYTE   EOT
 BYTE   W01
 BYTE   TIE  Bn2
 BYTE   W72
//  #13 //050   ----------------------------------------
 BYTE   W68
 BYTE   W03
 BYTE   EOT
 BYTE   W24
 BYTE   W01
//  #13 //051   ----------------------------------------
 BYTE   W12
 BYTE   N32
 BYTE   W36
 BYTE   TIE  Dn3
 BYTE   W48
//  #13 //052   ----------------------------------------
 BYTE   W92
 BYTE   W03
 BYTE   EOT
 BYTE   W01
//  #13 //053   ----------------------------------------
 BYTE   N44  Cs3
 BYTE   W01
 BYTE   W01
 BYTE   W01
 BYTE   W01
 BYTE   W01
 BYTE   W01
 BYTE   W01
 BYTE   W01
 BYTE   W01
 BYTE   W01
 BYTE   W01
 BYTE   W01
 BYTE   W01
 BYTE   W01
 BYTE   W01
 BYTE   W01
 BYTE   W01
 BYTE   W01
 BYTE   W01
 BYTE   W01
 BYTE   W01
 BYTE   W01
 BYTE   W01
 BYTE   W01
 BYTE   W01
 BYTE   W01
 BYTE   W01
 BYTE   W01
 BYTE   W01
 BYTE   W01
 BYTE   W01
 BYTE   W01
 BYTE   W01
 BYTE   W01
 BYTE   W01
 BYTE   W01
 BYTE   W01
 BYTE   W01
 BYTE   W01
 BYTE   W01
 BYTE   W01
 BYTE   W01
 BYTE   W01
 BYTE   W01
 BYTE   W02
 BYTE   W01
 BYTE   W01
 BYTE   W24
 BYTE   TIE  En2
 BYTE   W24
//  #13 //054   ----------------------------------------
 BYTE   W96
//  #13 //055   ----------------------------------------
 BYTE   W23
 BYTE   EOT
 BYTE   W01
 BYTE   TIE  An2
 BYTE   W72
//  #13 //056   ----------------------------------------
 BYTE   W68
 BYTE   W03
 BYTE   EOT
 BYTE   W01
 BYTE   TIE
 BYTE   N68  Dn3
 BYTE   W24
//  #13 //057   ----------------------------------------
 BYTE   W48
 BYTE   N68
 BYTE   W48
//  #13 //058   ----------------------------------------
 BYTE   W23
 BYTE   EOT
 BYTE   An2
 BYTE   W01
 BYTE   N68
 BYTE   N68  Fn3
 BYTE   W72
//  #13 //059   ----------------------------------------
 BYTE   Gs2
 BYTE   N68  En3
 BYTE   W72
 BYTE   Bn3
 BYTE   W24
//  #13 //060   ----------------------------------------
 BYTE   W48
 BYTE   N52  An3
 BYTE   W48
//  #13 //061   ----------------------------------------
 BYTE   W06
 BYTE   N17  En3
 BYTE   W18
 BYTE   N68  Bn3
 BYTE   W72
//  #13 //062   ----------------------------------------
 BYTE   An3
 BYTE   W96
//  #13 //063   ----------------------------------------
 BYTE   W96
//  #13 //064   ----------------------------------------
 BYTE   W96
//  #13 //065   ----------------------------------------
 BYTE   W96
//  #13 //066   ----------------------------------------
 BYTE   W96
//  #13 //067   ----------------------------------------
 BYTE   W96
//  #13 //068   ----------------------------------------
 BYTE   W96
//  #13 //069   ----------------------------------------
 BYTE   W96
//  #13 //070   ----------------------------------------
 BYTE   W96
//  #13 //071   ----------------------------------------
 BYTE   W72
 BYTE   TIE  Bn3
 BYTE   W24
//  #13 //072   ----------------------------------------
 BYTE   W96
//  #13 //073   ----------------------------------------
 BYTE   W23
 BYTE   EOT
 BYTE   W01
 BYTE   TIE  As3
 BYTE   W72
//  #13 //074   ----------------------------------------
 BYTE   W68
 BYTE   W03
 BYTE   EOT
 BYTE   W01
 BYTE   N68  Gs3
 BYTE   W24
//  #13 //075   ----------------------------------------
Label_011991A6:
 BYTE   W48
 BYTE   N17  Fs3  v104
 BYTE   W18
 BYTE   En3
 BYTE   W18
 BYTE   Bn2
 BYTE   W12
 BYTE   PEND 
//  #13 //076   ----------------------------------------
Label_011991B0:
 BYTE   W06
 BYTE   N17  Cs3  v104
 BYTE   W18
 BYTE   N32  En3
 BYTE   N32  Gn3
 BYTE   W36
 BYTE   N92  Ds3
 BYTE   N92  Fs3
 BYTE   W36
 BYTE   PEND 
//  #13 //077   ----------------------------------------
 BYTE   W72
 BYTE   N68  Ds3
 BYTE   W24
//  #13 //078   ----------------------------------------
 BYTE   W48
 BYTE   N44  Cs3
 BYTE   W48
//  #13 //079   ----------------------------------------
 BYTE   N11  Bn2
 BYTE   W12
 BYTE   Cs3
 BYTE   W12
 BYTE   N52  Ds3
 BYTE   W54
 BYTE   N17
 BYTE   N17  Fs3
 BYTE   W18
//  #13 //080   ----------------------------------------
 BYTE   N68  Cs3
 BYTE   N68  Fn3
 BYTE   W96
//  #13 //081   ----------------------------------------
 BYTE   W12
 BYTE   N32  Ds3
 BYTE   W36
 BYTE   N68
 BYTE   W48
//  #13 //082   ----------------------------------------
 BYTE   W24
 BYTE   En3
 BYTE   W72
//  #13 //083   ----------------------------------------
 BYTE   N32  Ds3
 BYTE   W36
 BYTE   N32
 BYTE   W36
 BYTE   TIE  Bn3
 BYTE   W24
//  #13 //084   ----------------------------------------
 BYTE   W96
//  #13 //085   ----------------------------------------
 BYTE   W23
 BYTE   EOT
 BYTE   W01
 BYTE   TIE  As3
 BYTE   W72
//  #13 //086   ----------------------------------------
 BYTE   W68
 BYTE   W03
 BYTE   EOT
 BYTE   W01
 BYTE   N68  Gs3
 BYTE   W24
//  #13 //087   ----------------------------------------
 BYTE   PATT
  POIN2 Label_011991A6
//  #13 //088   ----------------------------------------
 BYTE   PATT
  POIN2 Label_011991B0
//  #13 //089   ----------------------------------------
 BYTE   W96
//  #13 //090   ----------------------------------------
 BYTE   W96
//  #13 //091   ----------------------------------------
 BYTE   W24
 BYTE   N68  Ds3  v104
 BYTE   N68  Fs3
 BYTE   W02
 BYTE   W02
 BYTE   W02
 BYTE   W03
 BYTE   W02
 BYTE   W02
 BYTE   W02
 BYTE   W03
 BYTE   W02
 BYTE   W02
 BYTE   W02
 BYTE   W03
 BYTE   W02
 BYTE   W02
 BYTE   W02
 BYTE   W03
 BYTE   W02
 BYTE   W02
 BYTE   W02
 BYTE   W03
 BYTE   W02
 BYTE   W02
 BYTE   W02
 BYTE   W03
 BYTE   W02
 BYTE   W02
 BYTE   W02
 BYTE   W03
 BYTE   W02
 BYTE   W02
 BYTE   W02
 BYTE   W03
//  #13 //092   ----------------------------------------
 BYTE   N56  Cs3
 BYTE   N56  Fn3
 BYTE   W01
 BYTE   W01
 BYTE   W01
 BYTE   W02
 BYTE   W01
 BYTE   W01
 BYTE   W01
 BYTE   W02
 BYTE   W01
 BYTE   W01
 BYTE   W02
 BYTE   W01
 BYTE   W01
 BYTE   W01
 BYTE   W02
 BYTE   W01
 BYTE   W01
 BYTE   W02
 BYTE   W01
 BYTE   W01
 BYTE   W01
 BYTE   W02
 BYTE   W01
 BYTE   W01
 BYTE   W01
 BYTE   W02
 BYTE   W01
 BYTE   W01
 BYTE   W02
 BYTE   W01
 BYTE   W01
 BYTE   W01
 BYTE   W02
 BYTE   W01
 BYTE   W01
 BYTE   W02
 BYTE   W01
 BYTE   W01
 BYTE   W01
 BYTE   W02
 BYTE   W01
 BYTE   W01
 BYTE   W01
 BYTE   W02
 BYTE   W01
 BYTE   W01
 BYTE   W02
 BYTE   W12
 BYTE   TIE  Bn2
 BYTE   W24
//  #13 //093   ----------------------------------------
 BYTE   W96
//  #13 //094   ----------------------------------------
 BYTE   W23
 BYTE   EOT
 BYTE   W01
 BYTE   TIE  Cs3
 BYTE   W72
//  #13 //095   ----------------------------------------
 BYTE   W68
 BYTE   W03
 BYTE   EOT
 BYTE   W24
 BYTE   W01
//  #13 //096   ----------------------------------------
 BYTE   W96
//  #13 //097   ----------------------------------------
 BYTE   W96
//  #13 //098   ----------------------------------------
 BYTE   W96
//  #13 //099   ----------------------------------------
 BYTE   W96
//  #13 //100   ----------------------------------------
 BYTE   W96
//  #13 //101   ----------------------------------------
 BYTE   W96
//  #13 //102   ----------------------------------------
 BYTE   W96
//  #13 //103   ----------------------------------------
 BYTE   W96
//  #13 //104   ----------------------------------------
 BYTE   W96
//  #13 //105   ----------------------------------------
 BYTE   W96
//  #13 //106   ----------------------------------------
 BYTE   W96
//  #13 //107   ----------------------------------------
 BYTE   W96
//  #13 //108   ----------------------------------------
 BYTE   W96
//  #13 //109   ----------------------------------------
 BYTE   W96
//  #13 //110   ----------------------------------------
 BYTE   W96
//  #13 //111   ----------------------------------------
 BYTE   W30
 BYTE   N17  Ds3
 BYTE   W18
 BYTE   N68
 BYTE   W48
//  #13 //112   ----------------------------------------
 BYTE   W24
 BYTE   Cs3
 BYTE   W72
//  #13 //113   ----------------------------------------
 BYTE   Dn3
 BYTE   W72
 BYTE   Bn2
 BYTE   W24
//  #13 //114   ----------------------------------------
Label_01199289:
 BYTE   W48
 BYTE   TIE  Cn3  v104
 BYTE   W48
 BYTE   PEND 
//  #13 //115   ----------------------------------------
 BYTE   W96
//  #13 //116   ----------------------------------------
 BYTE   W96
//  #13 //117   ----------------------------------------
 BYTE   W44
 BYTE   W03
 BYTE   EOT
 BYTE   W01
 BYTE   GoTo
  POIN2 Label_0119903B
//  #13 //118   ----------------------------------------
 BYTE   TIE  Gs2  v104
 BYTE   W48
 BYTE   W92
//  #13 //119   ----------------------------------------
 BYTE   W03
 BYTE   EOT
 BYTE   W01
 BYTE   TIE  As2
 BYTE   W96
//  #13 //120   ----------------------------------------
 BYTE   W44
 BYTE   W03
 BYTE   EOT
 BYTE   W01
 BYTE   TIE  Cn3
 BYTE   W48
//  #13 //121   ----------------------------------------
 BYTE   W92
 BYTE   W03
 BYTE   EOT
 BYTE   W01
//  #13 //122   ----------------------------------------
 BYTE   TIE
 BYTE   W96
//  #13 //123   ----------------------------------------
 BYTE   W44
 BYTE   W03
 BYTE   EOT
 BYTE   W01
 BYTE   N68  Ds3
 BYTE   W48
//  #13 //124   ----------------------------------------
 BYTE   W24
 BYTE   Cs3
 BYTE   W72
//  #13 //125   ----------------------------------------
 BYTE   Cn3
 BYTE   W72
 BYTE   As2
 BYTE   W24
//  #13 //126   ----------------------------------------
 BYTE   PATT
  POIN2 Label_01199289
//  #13 //127   ----------------------------------------
 BYTE   W96
//  #13 //128   ----------------------------------------
 BYTE   W96
//  #13 //129   ----------------------------------------
 BYTE   W44
 BYTE   W03
 BYTE   EOT
 BYTE   Cn3
 BYTE   W01
 BYTE   N68  Gs2  v104
 BYTE   W48
//  #13 //130   ----------------------------------------
 BYTE   W24
 BYTE   N23
 BYTE   W24
 BYTE   N23
 BYTE   W24
 BYTE   As2
 BYTE   W12
 BYTE   N05  Cs5
 BYTE   W01
 BYTE   W02
 BYTE   W01
 BYTE   W01
 BYTE   W01
 BYTE   Ds5
 BYTE   W01
 BYTE   W01
 BYTE   W01
 BYTE   W01
 BYTE   W02
//  #13 //131   ----------------------------------------
 BYTE   N68  Cn3
 BYTE   N05  Gs5
 BYTE   W02
 BYTE   W03
 BYTE   W01
 BYTE   Ds5
 BYTE   W01
 BYTE   W03
 BYTE   W02
 BYTE   Cs5
 BYTE   W01
 BYTE   W02
 BYTE   W03
 BYTE   Gs5
 BYTE   W03
 BYTE   W02
 BYTE   W01
 BYTE   Ds5
 BYTE   W02
 BYTE   W02
 BYTE   W02
 BYTE   Cs5
 BYTE   W01
 BYTE   W03
 BYTE   W02
 BYTE   Gs5
 BYTE   W03
 BYTE   W03
 BYTE   W30
 BYTE   N68  Cs3
 BYTE   W24
//  #13 //132   ----------------------------------------
 BYTE   W48
 BYTE   Cn3
 BYTE   W48
//  #13 //133   ----------------------------------------
 BYTE   W42
 BYTE   N17
 BYTE   W18
 BYTE   N17
 BYTE   W18
 BYTE   Cs3
 BYTE   W18
//  #13 //134   ----------------------------------------
 BYTE   N23  Ds3
 BYTE   W24
 BYTE   As2
 BYTE   W24
 BYTE   Gs2
 BYTE   W24
 BYTE   Gn2
 BYTE   W24
//  #13 //135   ----------------------------------------
 BYTE   Ds2
 BYTE   W24
 BYTE   Cn2
 BYTE   W24
 BYTE   N68  Gs2
 BYTE   W48
//  #13 //136   ----------------------------------------
 BYTE   W24
 BYTE   N44  Cs3
 BYTE   W48
 BYTE   N23  Cn3
 BYTE   W12
 BYTE   N05  Cs5
 BYTE   W01
 BYTE   W02
 BYTE   W01
 BYTE   W01
 BYTE   W01
 BYTE   Ds5
 BYTE   W01
 BYTE   W01
 BYTE   W01
 BYTE   W01
 BYTE   W02
//  #13 //137   ----------------------------------------
 BYTE   N68  Cs3
 BYTE   N05  Gs5
 BYTE   W02
 BYTE   W03
 BYTE   W01
 BYTE   Ds5
 BYTE   W01
 BYTE   W03
 BYTE   W02
 BYTE   Cs5
 BYTE   W01
 BYTE   W02
 BYTE   W03
 BYTE   Gs5
 BYTE   W03
 BYTE   W02
 BYTE   W01
 BYTE   Ds5
 BYTE   W02
 BYTE   W02
 BYTE   W02
 BYTE   Cs5
 BYTE   W01
 BYTE   W03
 BYTE   W02
 BYTE   Gs5
 BYTE   W03
 BYTE   W03
 BYTE   W30
 BYTE   N68  Fn3
 BYTE   W24
//  #13 //138   ----------------------------------------
 BYTE   W48
 BYTE   Ds3
 BYTE   W48
//  #13 //139   ----------------------------------------
 BYTE   W24
 BYTE   Gn3
 BYTE   W72
//  #13 //140   ----------------------------------------
 BYTE   Fs3
 BYTE   W72
 BYTE   N23  Cn3
 BYTE   W03
 BYTE   W03
 BYTE   W03
 BYTE   W03
 BYTE   W03
 BYTE   W03
 BYTE   W03
 BYTE   W03
//  #13 //141   ----------------------------------------
 BYTE   As2
 BYTE   W03
 BYTE   W03
 BYTE   W03
 BYTE   W03
 BYTE   W03
 BYTE   W03
 BYTE   W03
 BYTE   W03
 BYTE   Gs2
 BYTE   W24
 BYTE   TIE  An2
 BYTE   W48
//  #13 //142   ----------------------------------------
 BYTE   W92
 BYTE   W03
 BYTE   EOT
 BYTE   W01
//  #13 //143   ----------------------------------------
 BYTE   TIE  Bn2
 BYTE   W96
//  #13 //144   ----------------------------------------
 BYTE   W44
 BYTE   W03
 BYTE   EOT
 BYTE   W36
 BYTE   W01
 BYTE   N32
 BYTE   W12
//  #13 //145   ----------------------------------------
 BYTE   W24
 BYTE   TIE  Dn3
 BYTE   W72
//  #13 //146   ----------------------------------------
 BYTE   W68
 BYTE   W03
 BYTE   EOT
 BYTE   W01
 BYTE   N44  Cs3
 BYTE   W01
 BYTE   W01
 BYTE   W01
 BYTE   W01
 BYTE   W01
 BYTE   W01
 BYTE   W01
 BYTE   W01
 BYTE   W01
 BYTE   W01
 BYTE   W01
 BYTE   W01
 BYTE   W01
 BYTE   W01
 BYTE   W01
 BYTE   W01
 BYTE   W01
 BYTE   W01
 BYTE   W01
 BYTE   W01
 BYTE   W01
 BYTE   W01
 BYTE   W01
 BYTE   W01
//  #13 //147   ----------------------------------------
 BYTE   W01
 BYTE   W01
 BYTE   W01
 BYTE   W01
 BYTE   W01
 BYTE   W01
 BYTE   W01
 BYTE   W01
 BYTE   W01
 BYTE   W01
 BYTE   W01
 BYTE   W01
 BYTE   W01
 BYTE   W01
 BYTE   W01
 BYTE   W01
 BYTE   W01
 BYTE   W01
 BYTE   W01
 BYTE   W01
 BYTE   W02
 BYTE   W01
 BYTE   W01
 BYTE   W24
 BYTE   TIE  En2
 BYTE   W48
//  #13 //148   ----------------------------------------
 BYTE   W92
 BYTE   W03
 BYTE   EOT
 BYTE   W01
//  #13 //149   ----------------------------------------
 BYTE   TIE  An2
 BYTE   W96
//  #13 //150   ----------------------------------------
 BYTE   W44
 BYTE   W03
 BYTE   EOT
 BYTE   W01
 BYTE   TIE
 BYTE   N68  Dn3
 BYTE   W48
//  #13 //151   ----------------------------------------
 BYTE   W24
 BYTE   N68
 BYTE   W68
 BYTE   W03
 BYTE   EOT
 BYTE   An2
 BYTE   W01
//  #13 //152   ----------------------------------------
 BYTE   N68
 BYTE   N68  Fn3
 BYTE   W72
 BYTE   Gs2
 BYTE   N68  En3
 BYTE   W24
//  #13 //153   ----------------------------------------
 BYTE   W48
 BYTE   Bn3
 BYTE   W48
//  #13 //154   ----------------------------------------
 BYTE   W24
 BYTE   N52  An3
 BYTE   W54
 BYTE   N17  En3
 BYTE   W18
//  #13 //155   ----------------------------------------
 BYTE   N68  Bn3
 BYTE   W72
 BYTE   An3
 BYTE   W24
//  #13 //156   ----------------------------------------
 BYTE   W96
//  #13 //157   ----------------------------------------
 BYTE   W96
//  #13 //158   ----------------------------------------
 BYTE   W96
//  #13 //159   ----------------------------------------
 BYTE   W96
//  #13 //160   ----------------------------------------
 BYTE   W96
//  #13 //161   ----------------------------------------
 BYTE   W96
//  #13 //162   ----------------------------------------
 BYTE   W96
//  #13 //163   ----------------------------------------
 BYTE   W96
//  #13 //164   ----------------------------------------
 BYTE   W96
//  #13 //165   ----------------------------------------
 BYTE   W48
 BYTE   TIE  Bn3
 BYTE   W48
//  #13 //166   ----------------------------------------
 BYTE   W92
 BYTE   W03
 BYTE   EOT
 BYTE   W01
//  #13 //167   ----------------------------------------
 BYTE   TIE  As3
 BYTE   W96
//  #13 //168   ----------------------------------------
 BYTE   W44
 BYTE   W03
 BYTE   EOT
 BYTE   W01
 BYTE   N68  Gs3
 BYTE   W48
//  #13 //169   ----------------------------------------
Label_01199409:
 BYTE   W24
 BYTE   N17  Fs3  v104
 BYTE   W18
 BYTE   En3
 BYTE   W18
 BYTE   Bn2
 BYTE   W18
 BYTE   Cs3
 BYTE   W18
 BYTE   PEND 
//  #13 //170   ----------------------------------------
Label_01199415:
 BYTE   N32  En3  v104
 BYTE   N32  Gn3
 BYTE   W36
 BYTE   N92  Ds3
 BYTE   N92  Fs3
 BYTE   W60
 BYTE   PEND 
//  #13 //171   ----------------------------------------
 BYTE   W48
 BYTE   N68  Ds3
 BYTE   W48
//  #13 //172   ----------------------------------------
 BYTE   W24
 BYTE   N44  Cs3
 BYTE   W48
 BYTE   N11  Bn2
 BYTE   W12
 BYTE   Cs3
 BYTE   W12
//  #13 //173   ----------------------------------------
 BYTE   N52  Ds3
 BYTE   W54
 BYTE   N17
 BYTE   N17  Fs3
 BYTE   W18
 BYTE   N68  Cs3
 BYTE   N68  Fn3
 BYTE   W24
//  #13 //174   ----------------------------------------
 BYTE   W84
 BYTE   N32  Ds3
 BYTE   W12
//  #13 //175   ----------------------------------------
 BYTE   W24
 BYTE   N68
 BYTE   W72
//  #13 //176   ----------------------------------------
 BYTE   En3
 BYTE   W72
 BYTE   N32  Ds3
 BYTE   W24
//  #13 //177   ----------------------------------------
 BYTE   W12
 BYTE   N32
 BYTE   W36
 BYTE   TIE  Bn3
 BYTE   W48
//  #13 //178   ----------------------------------------
 BYTE   W92
 BYTE   W03
 BYTE   EOT
 BYTE   W01
//  #13 //179   ----------------------------------------
 BYTE   TIE  As3
 BYTE   W96
//  #13 //180   ----------------------------------------
 BYTE   W44
 BYTE   W03
 BYTE   EOT
 BYTE   W01
 BYTE   N68  Gs3
 BYTE   W48
//  #13 //181   ----------------------------------------
 BYTE   PATT
  POIN2 Label_01199409
//  #13 //182   ----------------------------------------
 BYTE   PATT
  POIN2 Label_01199415
//  #13 //183   ----------------------------------------
 BYTE   W96
//  #13 //184   ----------------------------------------
 BYTE   W96
//  #13 //185   ----------------------------------------
 BYTE   N68  Ds3  v104
 BYTE   N68  Fs3
 BYTE   W02
 BYTE   W02
 BYTE   W02
 BYTE   W03
 BYTE   W02
 BYTE   W02
 BYTE   W02
 BYTE   W03
 BYTE   W02
 BYTE   W02
 BYTE   W02
 BYTE   W03
 BYTE   W02
 BYTE   W02
 BYTE   W02
 BYTE   W03
 BYTE   W02
 BYTE   W02
 BYTE   W02
 BYTE   W03
 BYTE   W02
 BYTE   W02
 BYTE   W02
 BYTE   W03
 BYTE   W02
 BYTE   W02
 BYTE   W02
 BYTE   W03
 BYTE   W02
 BYTE   W02
 BYTE   W02
 BYTE   W03
 BYTE   N56  Cs3
 BYTE   N56  Fn3
 BYTE   W01
 BYTE   W01
 BYTE   W01
 BYTE   W02
 BYTE   W01
 BYTE   W01
 BYTE   W01
 BYTE   W02
 BYTE   W01
 BYTE   W01
 BYTE   W02
 BYTE   W01
 BYTE   W01
 BYTE   W01
 BYTE   W02
 BYTE   W01
 BYTE   W01
 BYTE   W02
 BYTE   W01
//  #13 //186   ----------------------------------------
 BYTE   W01
 BYTE   W01
 BYTE   W02
 BYTE   W01
 BYTE   W01
 BYTE   W01
 BYTE   W02
 BYTE   W01
 BYTE   W01
 BYTE   W02
 BYTE   W01
 BYTE   W01
 BYTE   W01
 BYTE   W02
 BYTE   W01
 BYTE   W01
 BYTE   W02
 BYTE   W01
 BYTE   W01
 BYTE   W01
 BYTE   W02
 BYTE   W01
 BYTE   W01
 BYTE   W01
 BYTE   W02
 BYTE   W01
 BYTE   W01
 BYTE   W02
 BYTE   W12
 BYTE   TIE  Bn2
 BYTE   W48
//  #13 //187   ----------------------------------------
 BYTE   W92
 BYTE   W03
 BYTE   EOT
 BYTE   W01
//  #13 //188   ----------------------------------------
 BYTE   TIE  Cs3
 BYTE   W96
//  #13 //189   ----------------------------------------
 BYTE   W44
 BYTE   W03
 BYTE   EOT
 BYTE   W48
 BYTE   W01
//  #13 //190   ----------------------------------------
 BYTE   W96
//  #13 //191   ----------------------------------------
 BYTE   W96
//  #13 //192   ----------------------------------------
 BYTE   W96
//  #13 //193   ----------------------------------------
 BYTE   W24
 BYTE   FINE

//******************************************************//
	ALIGN 4

FireEmblemEngage_FallenPetalsNew:
	BYTE	13	// NumTrks
	BYTE	0	// NumBlks
	BYTE	FireEmblemEngage_FallenPetalsNew_pri	// Priority
	BYTE	FireEmblemEngage_FallenPetalsNew_rev	// Reverb.
    
	POIN2	FireEmblemEngage_FallenPetalsNew_grp
    
	POIN2	FireEmblemEngage_FallenPetalsNew_001
	POIN2	FireEmblemEngage_FallenPetalsNew_002
	POIN2	FireEmblemEngage_FallenPetalsNew_003
	POIN2	FireEmblemEngage_FallenPetalsNew_004
	POIN2	FireEmblemEngage_FallenPetalsNew_005
	POIN2	FireEmblemEngage_FallenPetalsNew_006
	POIN2	FireEmblemEngage_FallenPetalsNew_007
	POIN2	FireEmblemEngage_FallenPetalsNew_008
	POIN2	FireEmblemEngage_FallenPetalsNew_009
	POIN2	FireEmblemEngage_FallenPetalsNew_010
	POIN2	FireEmblemEngage_FallenPetalsNew_011
	POIN2	FireEmblemEngage_FallenPetalsNew_012
	POIN2	FireEmblemEngage_FallenPetalsNew_013

	
