//Event file generated from Sappy .s format.
	#include "MPlayDef.event"

	#define	DeltaruneSpamtonRetina_grp  voicegroup000
	#define	DeltaruneSpamtonRetina_pri  0
	#define	DeltaruneSpamtonRetina_rev  0
	#define	DeltaruneSpamtonRetina_mvl  127
	#define	DeltaruneSpamtonRetina_key  0
	#define	DeltaruneSpamtonRetina_tbs  1
	#define	DeltaruneSpamtonRetina_exg  0
	#define	DeltaruneSpamtonRetina_cmp  1

	// .rodata
	//	DeltaruneSpamtonRetina
	ALIGN 4


//**************** Track 1 (Midi-Chn.0) ****************//

DeltaruneSpamtonRetina_001:
// 000   ----------------------------------------
 BYTE   KEYSH   DeltaruneSpamtonRetina_key+0
 BYTE   TEMPO   100*DeltaruneSpamtonRetina_tbs/2
 BYTE   VOICE   81
 BYTE   PAN   c_v+0
 BYTE   VOL   62*DeltaruneSpamtonRetina_mvl/mxv
 BYTE   PAN   c_v+0
 BYTE   VOL   62*DeltaruneSpamtonRetina_mvl/mxv
 BYTE   PAN   c_v+0
 BYTE   VOL   62*DeltaruneSpamtonRetina_mvl/mxv
 BYTE   PAN   c_v+0
 BYTE   VOL   62*DeltaruneSpamtonRetina_mvl/mxv
 BYTE   BEND   c_v+2
 BYTE   N11  Fs3  v100
 BYTE   W12
 BYTE   N05  Cs4
 BYTE   W06
 BYTE   N11  Fs3
 BYTE   W12
 BYTE   N05  Cs4
 BYTE   W18
 BYTE   N05
 BYTE   W06
 BYTE   Cn4
 BYTE   W06
 BYTE   Fs3
 BYTE   W06
 BYTE   An3
 BYTE   W06
 BYTE   N17  En4
 BYTE   W24
// 001   ----------------------------------------
Label_0_0171B830:
 BYTE   N11  Fs3  v100
 BYTE   W12
 BYTE   N05  Cs4
 BYTE   W06
 BYTE   N11  Fs3
 BYTE   W12
 BYTE   N05  Cs4
 BYTE   W15
 BYTE   N01  Bn3  v064
 BYTE   W01
 BYTE   Cn4  v080
 BYTE   W02
 BYTE   N05  Cs4  v100
 BYTE   W06
 BYTE   Cn4
 BYTE   W06
 BYTE   Fs3
 BYTE   W06
 BYTE   An3
 BYTE   W06
 BYTE   N17  Bn3
 BYTE   W24
 BYTE   PEND 
// 002   ----------------------------------------
Label_0_0171B852:
 BYTE   N11  Fs3  v100
 BYTE   W12
 BYTE   N05  Cs4
 BYTE   W06
 BYTE   N11  Fs3
 BYTE   W12
 BYTE   N05  Cs4
 BYTE   W18
 BYTE   N05
 BYTE   W06
 BYTE   Cn4
 BYTE   W06
 BYTE   Fs3
 BYTE   W06
 BYTE   An3
 BYTE   W06
 BYTE   N17  En4
 BYTE   W24
 BYTE   PEND 
// 003   ----------------------------------------
Label_0_0171B86B:
 BYTE   N11  Fs3  v100
 BYTE   W12
 BYTE   N05  Cs4
 BYTE   W06
 BYTE   N11  Fs3
 BYTE   W12
 BYTE   N05  Cs4
 BYTE   W18
 BYTE   N03  Fs4
 BYTE   W06
 BYTE   N03
 BYTE   W06
 BYTE   N03
 BYTE   W06
 BYTE   N03
 BYTE   W06
 BYTE   Dn4
 BYTE   W06
 BYTE   N03
 BYTE   W06
 BYTE   N03
 BYTE   W06
 BYTE   N03
 BYTE   W06
 BYTE   PEND 
// 004   ----------------------------------------
 BYTE   PATT
  POIN2 Label_0_0171B852
// 005   ----------------------------------------
 BYTE   PATT
  POIN2 Label_0_0171B830
// 006   ----------------------------------------
 BYTE   PATT
  POIN2 Label_0_0171B852
// 007   ----------------------------------------
 BYTE   PATT
  POIN2 Label_0_0171B86B
// 008   ----------------------------------------
 BYTE   W96
// 009   ----------------------------------------
 BYTE   W96
// 010   ----------------------------------------
 BYTE   W96
// 011   ----------------------------------------
 BYTE   W96
// 012   ----------------------------------------
 BYTE   W96
// 013   ----------------------------------------
 BYTE   W96
// 014   ----------------------------------------
 BYTE   W96
// 015   ----------------------------------------
 BYTE   W96
// 016   ----------------------------------------
Label_0_0171B8A6:
// 017   ----------------------------------------
 BYTE   PATT
  POIN2 Label_0_0171B852
// 018   ----------------------------------------
 BYTE   PATT
  POIN2 Label_0_0171B830
// 019   ----------------------------------------
 BYTE   PATT
  POIN2 Label_0_0171B852
// 020   ----------------------------------------
 BYTE   PATT
  POIN2 Label_0_0171B86B
// 021   ----------------------------------------
 BYTE   PATT
  POIN2 Label_0_0171B852
// 022   ----------------------------------------
 BYTE   PATT
  POIN2 Label_0_0171B830
// 023   ----------------------------------------
 BYTE   PATT
  POIN2 Label_0_0171B852
// 024   ----------------------------------------
 BYTE   PATT
  POIN2 Label_0_0171B86B
// 025   ----------------------------------------
 BYTE   W96
// 026   ----------------------------------------
 BYTE   W96
// 027   ----------------------------------------
 BYTE   W96
// 028   ----------------------------------------
 BYTE   W96
// 029   ----------------------------------------
 BYTE   W96
// 030   ----------------------------------------
 BYTE   W96
// 031   ----------------------------------------
 BYTE   W96
// 032   ----------------------------------------
 BYTE   W96
// 033   ----------------------------------------
 BYTE   GoTo
  POIN2 Label_0_0171B8A6
// 034   ----------------------------------------
 BYTE   VOICE   81
 BYTE   PAN   c_v+0
 BYTE   VOL   62*DeltaruneSpamtonRetina_mvl/mxv
 BYTE   PAN   c_v+0
 BYTE   VOL   62*DeltaruneSpamtonRetina_mvl/mxv
 BYTE   BEND   c_v+2
 BYTE   FINE

//**************** Track 2 (Midi-Chn.1) ****************//

DeltaruneSpamtonRetina_002:
// 000   ----------------------------------------
 BYTE   KEYSH   DeltaruneSpamtonRetina_key+0
 BYTE   VOICE   81
 BYTE   PAN   c_v+0
 BYTE   VOL   40*DeltaruneSpamtonRetina_mvl/mxv
 BYTE   PAN   c_v+0
 BYTE   VOL   40*DeltaruneSpamtonRetina_mvl/mxv
 BYTE   PAN   c_v+0
 BYTE   VOL   40*DeltaruneSpamtonRetina_mvl/mxv
 BYTE   PAN   c_v+0
 BYTE   VOL   40*DeltaruneSpamtonRetina_mvl/mxv
 BYTE   BEND   c_v+2
 BYTE   W12
 BYTE   N11  Fs3  v100
 BYTE   W12
 BYTE   N05  Cs4
 BYTE   W06
 BYTE   N11  Fs3
 BYTE   W12
 BYTE   N05  Cs4
 BYTE   W18
 BYTE   N05
 BYTE   W06
 BYTE   Cn4
 BYTE   W06
 BYTE   Fs3
 BYTE   W06
 BYTE   An3
 BYTE   W06
 BYTE   N17  En4
 BYTE   W12
// 001   ----------------------------------------
Label_1_0171BB73:
 BYTE   W12
 BYTE   N11  Fs3  v100
 BYTE   W12
 BYTE   N05  Cs4
 BYTE   W06
 BYTE   N11  Fs3
 BYTE   W12
 BYTE   N05  Cs4
 BYTE   W15
 BYTE   N01  Bn3  v064
 BYTE   W01
 BYTE   Cn4  v080
 BYTE   W02
 BYTE   N05  Cs4  v100
 BYTE   W06
 BYTE   Cn4
 BYTE   W06
 BYTE   Fs3
 BYTE   W06
 BYTE   An3
 BYTE   W06
 BYTE   N17  Bn3
 BYTE   W12
 BYTE   PEND 
// 002   ----------------------------------------
Label_1_0171BB96:
 BYTE   W12
 BYTE   N11  Fs3  v100
 BYTE   W12
 BYTE   N05  Cs4
 BYTE   W06
 BYTE   N11  Fs3
 BYTE   W12
 BYTE   N05  Cs4
 BYTE   W18
 BYTE   N05
 BYTE   W06
 BYTE   Cn4
 BYTE   W06
 BYTE   Fs3
 BYTE   W06
 BYTE   An3
 BYTE   W06
 BYTE   N17  En4
 BYTE   W12
 BYTE   PEND 
// 003   ----------------------------------------
Label_1_0171BBB0:
 BYTE   W12
 BYTE   N11  Fs3  v100
 BYTE   W12
 BYTE   N05  Cs4
 BYTE   W06
 BYTE   N11  Fs3
 BYTE   W12
 BYTE   N05  Cs4
 BYTE   W18
 BYTE   N03  Fs4
 BYTE   W06
 BYTE   N03
 BYTE   W06
 BYTE   N03
 BYTE   W06
 BYTE   N03
 BYTE   W06
 BYTE   Dn4
 BYTE   W06
 BYTE   N03
 BYTE   W06
 BYTE   PEND 
// 004   ----------------------------------------
 BYTE   PATT
  POIN2 Label_1_0171BB96
// 005   ----------------------------------------
 BYTE   PATT
  POIN2 Label_1_0171BB73
// 006   ----------------------------------------
 BYTE   PATT
  POIN2 Label_1_0171BB96
// 007   ----------------------------------------
 BYTE   PATT
  POIN2 Label_1_0171BBB0
// 008   ----------------------------------------
 BYTE   W96
// 009   ----------------------------------------
 BYTE   W96
// 010   ----------------------------------------
 BYTE   W96
// 011   ----------------------------------------
 BYTE   W96
// 012   ----------------------------------------
 BYTE   W96
// 013   ----------------------------------------
 BYTE   W96
// 014   ----------------------------------------
 BYTE   W96
// 015   ----------------------------------------
 BYTE   W96
// 016   ----------------------------------------
Label_1_0171BBE8:
// 017   ----------------------------------------
 BYTE   PATT
  POIN2 Label_1_0171BB96
// 018   ----------------------------------------
 BYTE   PATT
  POIN2 Label_1_0171BB73
// 019   ----------------------------------------
 BYTE   PATT
  POIN2 Label_1_0171BB96
// 020   ----------------------------------------
 BYTE   PATT
  POIN2 Label_1_0171BBB0
// 021   ----------------------------------------
 BYTE   PATT
  POIN2 Label_1_0171BB96
// 022   ----------------------------------------
 BYTE   PATT
  POIN2 Label_1_0171BB73
// 023   ----------------------------------------
 BYTE   PATT
  POIN2 Label_1_0171BB96
// 024   ----------------------------------------
 BYTE   PATT
  POIN2 Label_1_0171BBB0
// 025   ----------------------------------------
 BYTE   W96
// 026   ----------------------------------------
 BYTE   W96
// 027   ----------------------------------------
 BYTE   W96
// 028   ----------------------------------------
 BYTE   W96
// 029   ----------------------------------------
 BYTE   W96
// 030   ----------------------------------------
 BYTE   W96
// 031   ----------------------------------------
 BYTE   W96
// 032   ----------------------------------------
 BYTE   W96
// 033   ----------------------------------------
 BYTE   GoTo
  POIN2 Label_1_0171BBE8
// 034   ----------------------------------------
 BYTE   VOICE   81
 BYTE   PAN   c_v+0
 BYTE   VOL   40*DeltaruneSpamtonRetina_mvl/mxv
 BYTE   PAN   c_v+0
 BYTE   VOL   40*DeltaruneSpamtonRetina_mvl/mxv
 BYTE   BEND   c_v+2
 BYTE   FINE

//**************** Track 3 (Midi-Chn.2) ****************//

DeltaruneSpamtonRetina_003:
// 000   ----------------------------------------
 BYTE   KEYSH   DeltaruneSpamtonRetina_key+0
 BYTE   VOICE   48
 BYTE   PAN   c_v+0
 BYTE   VOL   19*DeltaruneSpamtonRetina_mvl/mxv
 BYTE   PAN   c_v+0
 BYTE   VOL   0*DeltaruneSpamtonRetina_mvl/mxv
 BYTE   PAN   c_v+0
 BYTE   VOL   0*DeltaruneSpamtonRetina_mvl/mxv
 BYTE   PAN   c_v+0
 BYTE   VOL   20*DeltaruneSpamtonRetina_mvl/mxv
 BYTE   BEND   c_v+2
 BYTE   N96  Fs3  v100
 BYTE   N96  An3
 BYTE   N96  Cs4
 BYTE   W01
 BYTE   VOL   20*DeltaruneSpamtonRetina_mvl/mxv
 BYTE   W01
 BYTE   VOL   21*DeltaruneSpamtonRetina_mvl/mxv
 BYTE   W01
 BYTE   VOL   22*DeltaruneSpamtonRetina_mvl/mxv
 BYTE   W01
 BYTE   VOL   22*DeltaruneSpamtonRetina_mvl/mxv
 BYTE   W01
 BYTE   VOL   23*DeltaruneSpamtonRetina_mvl/mxv
 BYTE   W01
 BYTE   VOL   23*DeltaruneSpamtonRetina_mvl/mxv
 BYTE   W01
 BYTE   VOL   23*DeltaruneSpamtonRetina_mvl/mxv
 BYTE   W01
 BYTE   VOL   24*DeltaruneSpamtonRetina_mvl/mxv
 BYTE   W01
 BYTE   VOL   25*DeltaruneSpamtonRetina_mvl/mxv
 BYTE   W01
 BYTE   VOL   25*DeltaruneSpamtonRetina_mvl/mxv
 BYTE   W01
 BYTE   VOL   26*DeltaruneSpamtonRetina_mvl/mxv
 BYTE   W01
 BYTE   VOL   27*DeltaruneSpamtonRetina_mvl/mxv
 BYTE   W01
 BYTE   VOL   27*DeltaruneSpamtonRetina_mvl/mxv
 BYTE   W01
 BYTE   VOL   28*DeltaruneSpamtonRetina_mvl/mxv
 BYTE   W01
 BYTE   VOL   28*DeltaruneSpamtonRetina_mvl/mxv
 BYTE   W01
 BYTE   VOL   28*DeltaruneSpamtonRetina_mvl/mxv
 BYTE   W01
 BYTE   VOL   29*DeltaruneSpamtonRetina_mvl/mxv
 BYTE   W01
 BYTE   VOL   30*DeltaruneSpamtonRetina_mvl/mxv
 BYTE   W01
 BYTE   VOL   30*DeltaruneSpamtonRetina_mvl/mxv
 BYTE   W01
 BYTE   VOL   31*DeltaruneSpamtonRetina_mvl/mxv
 BYTE   W01
 BYTE   VOL   32*DeltaruneSpamtonRetina_mvl/mxv
 BYTE   W01
 BYTE   VOL   32*DeltaruneSpamtonRetina_mvl/mxv
 BYTE   W01
 BYTE   VOL   33*DeltaruneSpamtonRetina_mvl/mxv
 BYTE   W01
 BYTE   VOL   34*DeltaruneSpamtonRetina_mvl/mxv
 BYTE   W01
 BYTE   VOL   34*DeltaruneSpamtonRetina_mvl/mxv
 BYTE   W01
 BYTE   VOL   34*DeltaruneSpamtonRetina_mvl/mxv
 BYTE   W01
 BYTE   VOL   35*DeltaruneSpamtonRetina_mvl/mxv
 BYTE   W01
 BYTE   VOL   35*DeltaruneSpamtonRetina_mvl/mxv
 BYTE   W01
 BYTE   VOL   36*DeltaruneSpamtonRetina_mvl/mxv
 BYTE   W01
 BYTE   VOL   37*DeltaruneSpamtonRetina_mvl/mxv
 BYTE   W01
 BYTE   VOL   37*DeltaruneSpamtonRetina_mvl/mxv
 BYTE   W01
 BYTE   VOL   38*DeltaruneSpamtonRetina_mvl/mxv
 BYTE   W01
 BYTE   VOL   39*DeltaruneSpamtonRetina_mvl/mxv
 BYTE   W01
 BYTE   VOL   39*DeltaruneSpamtonRetina_mvl/mxv
 BYTE   W01
 BYTE   VOL   39*DeltaruneSpamtonRetina_mvl/mxv
 BYTE   W01
 BYTE   VOL   40*DeltaruneSpamtonRetina_mvl/mxv
 BYTE   W01
 BYTE   VOL   40*DeltaruneSpamtonRetina_mvl/mxv
 BYTE   W01
 BYTE   VOL   41*DeltaruneSpamtonRetina_mvl/mxv
 BYTE   W01
 BYTE   VOL   42*DeltaruneSpamtonRetina_mvl/mxv
 BYTE   W01
 BYTE   VOL   42*DeltaruneSpamtonRetina_mvl/mxv
 BYTE   W01
 BYTE   VOL   43*DeltaruneSpamtonRetina_mvl/mxv
 BYTE   W01
 BYTE   VOL   44*DeltaruneSpamtonRetina_mvl/mxv
 BYTE   W01
 BYTE   VOL   44*DeltaruneSpamtonRetina_mvl/mxv
 BYTE   W01
 BYTE   VOL   44*DeltaruneSpamtonRetina_mvl/mxv
 BYTE   W01
 BYTE   VOL   45*DeltaruneSpamtonRetina_mvl/mxv
 BYTE   W01
 BYTE   VOL   45*DeltaruneSpamtonRetina_mvl/mxv
 BYTE   W01
 BYTE   VOL   46*DeltaruneSpamtonRetina_mvl/mxv
 BYTE   W01
 BYTE   VOL   47*DeltaruneSpamtonRetina_mvl/mxv
 BYTE   W01
 BYTE   VOL   47*DeltaruneSpamtonRetina_mvl/mxv
 BYTE   W01
 BYTE   VOL   48*DeltaruneSpamtonRetina_mvl/mxv
 BYTE   W01
 BYTE   VOL   48*DeltaruneSpamtonRetina_mvl/mxv
 BYTE   W01
 BYTE   VOL   49*DeltaruneSpamtonRetina_mvl/mxv
 BYTE   W01
 BYTE   VOL   49*DeltaruneSpamtonRetina_mvl/mxv
 BYTE   W01
 BYTE   VOL   50*DeltaruneSpamtonRetina_mvl/mxv
 BYTE   W01
 BYTE   VOL   51*DeltaruneSpamtonRetina_mvl/mxv
 BYTE   W01
 BYTE   VOL   51*DeltaruneSpamtonRetina_mvl/mxv
 BYTE   W01
 BYTE   VOL   52*DeltaruneSpamtonRetina_mvl/mxv
 BYTE   W01
 BYTE   VOL   52*DeltaruneSpamtonRetina_mvl/mxv
 BYTE   W01
 BYTE   VOL   53*DeltaruneSpamtonRetina_mvl/mxv
 BYTE   W01
 BYTE   VOL   53*DeltaruneSpamtonRetina_mvl/mxv
 BYTE   W01
 BYTE   VOL   54*DeltaruneSpamtonRetina_mvl/mxv
 BYTE   W01
 BYTE   VOL   54*DeltaruneSpamtonRetina_mvl/mxv
 BYTE   W01
 BYTE   VOL   55*DeltaruneSpamtonRetina_mvl/mxv
 BYTE   W01
 BYTE   VOL   56*DeltaruneSpamtonRetina_mvl/mxv
 BYTE   W01
 BYTE   VOL   56*DeltaruneSpamtonRetina_mvl/mxv
 BYTE   W01
 BYTE   VOL   57*DeltaruneSpamtonRetina_mvl/mxv
 BYTE   W01
 BYTE   VOL   57*DeltaruneSpamtonRetina_mvl/mxv
 BYTE   W01
 BYTE   VOL   58*DeltaruneSpamtonRetina_mvl/mxv
 BYTE   W01
 BYTE   VOL   58*DeltaruneSpamtonRetina_mvl/mxv
 BYTE   W01
 BYTE   VOL   59*DeltaruneSpamtonRetina_mvl/mxv
 BYTE   W01
 BYTE   VOL   59*DeltaruneSpamtonRetina_mvl/mxv
 BYTE   W01
 BYTE   VOL   59*DeltaruneSpamtonRetina_mvl/mxv
 BYTE   W24
// 001   ----------------------------------------
Label_2_0195F3FF:
 BYTE   N96  Fs3  v100
 BYTE   N96  Bn3
 BYTE   N96  Ds4
 BYTE   W24
 BYTE   VOL   59*DeltaruneSpamtonRetina_mvl/mxv
 BYTE   W01
 BYTE   VOL   59*DeltaruneSpamtonRetina_mvl/mxv
 BYTE   W01
 BYTE   VOL   58*DeltaruneSpamtonRetina_mvl/mxv
 BYTE   W01
 BYTE   VOL   57*DeltaruneSpamtonRetina_mvl/mxv
 BYTE   W01
 BYTE   VOL   57*DeltaruneSpamtonRetina_mvl/mxv
 BYTE   W01
 BYTE   VOL   57*DeltaruneSpamtonRetina_mvl/mxv
 BYTE   W01
 BYTE   VOL   56*DeltaruneSpamtonRetina_mvl/mxv
 BYTE   W01
 BYTE   VOL   56*DeltaruneSpamtonRetina_mvl/mxv
 BYTE   W01
 BYTE   VOL   55*DeltaruneSpamtonRetina_mvl/mxv
 BYTE   W01
 BYTE   VOL   54*DeltaruneSpamtonRetina_mvl/mxv
 BYTE   W01
 BYTE   VOL   54*DeltaruneSpamtonRetina_mvl/mxv
 BYTE   W01
 BYTE   VOL   53*DeltaruneSpamtonRetina_mvl/mxv
 BYTE   W01
 BYTE   VOL   52*DeltaruneSpamtonRetina_mvl/mxv
 BYTE   W01
 BYTE   VOL   52*DeltaruneSpamtonRetina_mvl/mxv
 BYTE   W01
 BYTE   VOL   52*DeltaruneSpamtonRetina_mvl/mxv
 BYTE   W01
 BYTE   VOL   51*DeltaruneSpamtonRetina_mvl/mxv
 BYTE   W01
 BYTE   VOL   51*DeltaruneSpamtonRetina_mvl/mxv
 BYTE   W01
 BYTE   VOL   50*DeltaruneSpamtonRetina_mvl/mxv
 BYTE   W01
 BYTE   VOL   49*DeltaruneSpamtonRetina_mvl/mxv
 BYTE   W01
 BYTE   VOL   49*DeltaruneSpamtonRetina_mvl/mxv
 BYTE   W01
 BYTE   VOL   48*DeltaruneSpamtonRetina_mvl/mxv
 BYTE   W01
 BYTE   VOL   47*DeltaruneSpamtonRetina_mvl/mxv
 BYTE   W01
 BYTE   VOL   47*DeltaruneSpamtonRetina_mvl/mxv
 BYTE   W01
 BYTE   VOL   47*DeltaruneSpamtonRetina_mvl/mxv
 BYTE   W01
 BYTE   VOL   46*DeltaruneSpamtonRetina_mvl/mxv
 BYTE   W01
 BYTE   VOL   45*DeltaruneSpamtonRetina_mvl/mxv
 BYTE   W01
 BYTE   VOL   45*DeltaruneSpamtonRetina_mvl/mxv
 BYTE   W01
 BYTE   VOL   44*DeltaruneSpamtonRetina_mvl/mxv
 BYTE   W01
 BYTE   VOL   44*DeltaruneSpamtonRetina_mvl/mxv
 BYTE   W01
 BYTE   VOL   43*DeltaruneSpamtonRetina_mvl/mxv
 BYTE   W01
 BYTE   VOL   42*DeltaruneSpamtonRetina_mvl/mxv
 BYTE   W01
 BYTE   VOL   42*DeltaruneSpamtonRetina_mvl/mxv
 BYTE   W01
 BYTE   VOL   42*DeltaruneSpamtonRetina_mvl/mxv
 BYTE   W01
 BYTE   VOL   41*DeltaruneSpamtonRetina_mvl/mxv
 BYTE   W01
 BYTE   VOL   40*DeltaruneSpamtonRetina_mvl/mxv
 BYTE   W01
 BYTE   VOL   40*DeltaruneSpamtonRetina_mvl/mxv
 BYTE   W01
 BYTE   VOL   39*DeltaruneSpamtonRetina_mvl/mxv
 BYTE   W01
 BYTE   VOL   39*DeltaruneSpamtonRetina_mvl/mxv
 BYTE   W01
 BYTE   VOL   38*DeltaruneSpamtonRetina_mvl/mxv
 BYTE   W01
 BYTE   VOL   37*DeltaruneSpamtonRetina_mvl/mxv
 BYTE   W01
 BYTE   VOL   37*DeltaruneSpamtonRetina_mvl/mxv
 BYTE   W01
 BYTE   VOL   37*DeltaruneSpamtonRetina_mvl/mxv
 BYTE   W01
 BYTE   VOL   36*DeltaruneSpamtonRetina_mvl/mxv
 BYTE   W01
 BYTE   VOL   35*DeltaruneSpamtonRetina_mvl/mxv
 BYTE   W01
 BYTE   VOL   35*DeltaruneSpamtonRetina_mvl/mxv
 BYTE   W01
 BYTE   VOL   34*DeltaruneSpamtonRetina_mvl/mxv
 BYTE   W01
 BYTE   VOL   34*DeltaruneSpamtonRetina_mvl/mxv
 BYTE   W01
 BYTE   VOL   33*DeltaruneSpamtonRetina_mvl/mxv
 BYTE   W01
 BYTE   VOL   32*DeltaruneSpamtonRetina_mvl/mxv
 BYTE   W01
 BYTE   VOL   32*DeltaruneSpamtonRetina_mvl/mxv
 BYTE   W01
 BYTE   VOL   32*DeltaruneSpamtonRetina_mvl/mxv
 BYTE   W01
 BYTE   VOL   31*DeltaruneSpamtonRetina_mvl/mxv
 BYTE   W01
 BYTE   VOL   30*DeltaruneSpamtonRetina_mvl/mxv
 BYTE   W01
 BYTE   VOL   30*DeltaruneSpamtonRetina_mvl/mxv
 BYTE   W01
 BYTE   VOL   29*DeltaruneSpamtonRetina_mvl/mxv
 BYTE   W01
 BYTE   VOL   28*DeltaruneSpamtonRetina_mvl/mxv
 BYTE   W01
 BYTE   VOL   28*DeltaruneSpamtonRetina_mvl/mxv
 BYTE   W01
 BYTE   VOL   27*DeltaruneSpamtonRetina_mvl/mxv
 BYTE   W01
 BYTE   VOL   27*DeltaruneSpamtonRetina_mvl/mxv
 BYTE   W01
 BYTE   VOL   26*DeltaruneSpamtonRetina_mvl/mxv
 BYTE   W01
 BYTE   VOL   26*DeltaruneSpamtonRetina_mvl/mxv
 BYTE   W01
 BYTE   VOL   25*DeltaruneSpamtonRetina_mvl/mxv
 BYTE   W01
 BYTE   VOL   25*DeltaruneSpamtonRetina_mvl/mxv
 BYTE   W01
 BYTE   VOL   24*DeltaruneSpamtonRetina_mvl/mxv
 BYTE   W01
 BYTE   VOL   23*DeltaruneSpamtonRetina_mvl/mxv
 BYTE   W01
 BYTE   VOL   23*DeltaruneSpamtonRetina_mvl/mxv
 BYTE   W01
 BYTE   VOL   22*DeltaruneSpamtonRetina_mvl/mxv
 BYTE   W01
 BYTE   VOL   22*DeltaruneSpamtonRetina_mvl/mxv
 BYTE   W01
 BYTE   VOL   21*DeltaruneSpamtonRetina_mvl/mxv
 BYTE   W01
 BYTE   VOL   21*DeltaruneSpamtonRetina_mvl/mxv
 BYTE   W01
 BYTE   VOL   20*DeltaruneSpamtonRetina_mvl/mxv
 BYTE   W01
 BYTE   VOL   20*DeltaruneSpamtonRetina_mvl/mxv
 BYTE   W01
 BYTE   PEND 
// 002   ----------------------------------------
Label_2_0195F499:
 BYTE   VOL   20*DeltaruneSpamtonRetina_mvl/mxv
 BYTE   N96  Fs3  v100
 BYTE   N96  Cs4
 BYTE   N96  En4
 BYTE   W01
 BYTE   VOL   20*DeltaruneSpamtonRetina_mvl/mxv
 BYTE   W01
 BYTE   VOL   21*DeltaruneSpamtonRetina_mvl/mxv
 BYTE   W01
 BYTE   VOL   22*DeltaruneSpamtonRetina_mvl/mxv
 BYTE   W01
 BYTE   VOL   22*DeltaruneSpamtonRetina_mvl/mxv
 BYTE   W01
 BYTE   VOL   23*DeltaruneSpamtonRetina_mvl/mxv
 BYTE   W01
 BYTE   VOL   23*DeltaruneSpamtonRetina_mvl/mxv
 BYTE   W01
 BYTE   VOL   23*DeltaruneSpamtonRetina_mvl/mxv
 BYTE   W01
 BYTE   VOL   24*DeltaruneSpamtonRetina_mvl/mxv
 BYTE   W01
 BYTE   VOL   25*DeltaruneSpamtonRetina_mvl/mxv
 BYTE   W01
 BYTE   VOL   25*DeltaruneSpamtonRetina_mvl/mxv
 BYTE   W01
 BYTE   VOL   26*DeltaruneSpamtonRetina_mvl/mxv
 BYTE   W01
 BYTE   VOL   27*DeltaruneSpamtonRetina_mvl/mxv
 BYTE   W01
 BYTE   VOL   27*DeltaruneSpamtonRetina_mvl/mxv
 BYTE   W01
 BYTE   VOL   28*DeltaruneSpamtonRetina_mvl/mxv
 BYTE   W01
 BYTE   VOL   28*DeltaruneSpamtonRetina_mvl/mxv
 BYTE   W01
 BYTE   VOL   29*DeltaruneSpamtonRetina_mvl/mxv
 BYTE   W01
 BYTE   VOL   29*DeltaruneSpamtonRetina_mvl/mxv
 BYTE   W01
 BYTE   VOL   30*DeltaruneSpamtonRetina_mvl/mxv
 BYTE   W01
 BYTE   VOL   30*DeltaruneSpamtonRetina_mvl/mxv
 BYTE   W01
 BYTE   VOL   31*DeltaruneSpamtonRetina_mvl/mxv
 BYTE   W01
 BYTE   VOL   32*DeltaruneSpamtonRetina_mvl/mxv
 BYTE   W01
 BYTE   VOL   32*DeltaruneSpamtonRetina_mvl/mxv
 BYTE   W01
 BYTE   VOL   33*DeltaruneSpamtonRetina_mvl/mxv
 BYTE   W01
 BYTE   VOL   34*DeltaruneSpamtonRetina_mvl/mxv
 BYTE   W01
 BYTE   VOL   34*DeltaruneSpamtonRetina_mvl/mxv
 BYTE   W01
 BYTE   VOL   34*DeltaruneSpamtonRetina_mvl/mxv
 BYTE   W01
 BYTE   VOL   35*DeltaruneSpamtonRetina_mvl/mxv
 BYTE   W01
 BYTE   VOL   35*DeltaruneSpamtonRetina_mvl/mxv
 BYTE   W01
 BYTE   VOL   36*DeltaruneSpamtonRetina_mvl/mxv
 BYTE   W01
 BYTE   VOL   37*DeltaruneSpamtonRetina_mvl/mxv
 BYTE   W01
 BYTE   VOL   37*DeltaruneSpamtonRetina_mvl/mxv
 BYTE   W01
 BYTE   VOL   38*DeltaruneSpamtonRetina_mvl/mxv
 BYTE   W01
 BYTE   VOL   39*DeltaruneSpamtonRetina_mvl/mxv
 BYTE   W01
 BYTE   VOL   39*DeltaruneSpamtonRetina_mvl/mxv
 BYTE   W01
 BYTE   VOL   40*DeltaruneSpamtonRetina_mvl/mxv
 BYTE   W01
 BYTE   VOL   40*DeltaruneSpamtonRetina_mvl/mxv
 BYTE   W01
 BYTE   VOL   40*DeltaruneSpamtonRetina_mvl/mxv
 BYTE   W01
 BYTE   VOL   41*DeltaruneSpamtonRetina_mvl/mxv
 BYTE   W01
 BYTE   VOL   42*DeltaruneSpamtonRetina_mvl/mxv
 BYTE   W01
 BYTE   VOL   42*DeltaruneSpamtonRetina_mvl/mxv
 BYTE   W01
 BYTE   VOL   43*DeltaruneSpamtonRetina_mvl/mxv
 BYTE   W01
 BYTE   VOL   44*DeltaruneSpamtonRetina_mvl/mxv
 BYTE   W01
 BYTE   VOL   44*DeltaruneSpamtonRetina_mvl/mxv
 BYTE   W01
 BYTE   VOL   45*DeltaruneSpamtonRetina_mvl/mxv
 BYTE   W01
 BYTE   VOL   45*DeltaruneSpamtonRetina_mvl/mxv
 BYTE   W01
 BYTE   VOL   45*DeltaruneSpamtonRetina_mvl/mxv
 BYTE   W01
 BYTE   VOL   46*DeltaruneSpamtonRetina_mvl/mxv
 BYTE   W01
 BYTE   VOL   47*DeltaruneSpamtonRetina_mvl/mxv
 BYTE   W01
 BYTE   VOL   47*DeltaruneSpamtonRetina_mvl/mxv
 BYTE   W01
 BYTE   VOL   48*DeltaruneSpamtonRetina_mvl/mxv
 BYTE   W01
 BYTE   VOL   49*DeltaruneSpamtonRetina_mvl/mxv
 BYTE   W01
 BYTE   VOL   49*DeltaruneSpamtonRetina_mvl/mxv
 BYTE   W01
 BYTE   VOL   50*DeltaruneSpamtonRetina_mvl/mxv
 BYTE   W01
 BYTE   VOL   50*DeltaruneSpamtonRetina_mvl/mxv
 BYTE   W01
 BYTE   VOL   51*DeltaruneSpamtonRetina_mvl/mxv
 BYTE   W01
 BYTE   VOL   51*DeltaruneSpamtonRetina_mvl/mxv
 BYTE   W01
 BYTE   VOL   52*DeltaruneSpamtonRetina_mvl/mxv
 BYTE   W01
 BYTE   VOL   52*DeltaruneSpamtonRetina_mvl/mxv
 BYTE   W01
 BYTE   VOL   53*DeltaruneSpamtonRetina_mvl/mxv
 BYTE   W01
 BYTE   VOL   54*DeltaruneSpamtonRetina_mvl/mxv
 BYTE   W01
 BYTE   VOL   54*DeltaruneSpamtonRetina_mvl/mxv
 BYTE   W01
 BYTE   VOL   55*DeltaruneSpamtonRetina_mvl/mxv
 BYTE   W01
 BYTE   VOL   56*DeltaruneSpamtonRetina_mvl/mxv
 BYTE   W01
 BYTE   VOL   56*DeltaruneSpamtonRetina_mvl/mxv
 BYTE   W01
 BYTE   VOL   56*DeltaruneSpamtonRetina_mvl/mxv
 BYTE   W01
 BYTE   VOL   57*DeltaruneSpamtonRetina_mvl/mxv
 BYTE   W01
 BYTE   VOL   57*DeltaruneSpamtonRetina_mvl/mxv
 BYTE   W01
 BYTE   VOL   58*DeltaruneSpamtonRetina_mvl/mxv
 BYTE   W01
 BYTE   VOL   59*DeltaruneSpamtonRetina_mvl/mxv
 BYTE   W01
 BYTE   VOL   59*DeltaruneSpamtonRetina_mvl/mxv
 BYTE   W01
 BYTE   VOL   59*DeltaruneSpamtonRetina_mvl/mxv
 BYTE   W24
 BYTE   W01
 BYTE   PEND 
// 003   ----------------------------------------
Label_2_0195F534:
 BYTE   VOL   60*DeltaruneSpamtonRetina_mvl/mxv
 BYTE   N96  Fs3  v100
 BYTE   N96  Gs3
 BYTE   N96  Cn4
 BYTE   W01
 BYTE   VOL   60*DeltaruneSpamtonRetina_mvl/mxv
 BYTE   W01
 BYTE   VOL   60*DeltaruneSpamtonRetina_mvl/mxv
 BYTE   W01
 BYTE   VOL   60*DeltaruneSpamtonRetina_mvl/mxv
 BYTE   W01
 BYTE   VOL   60*DeltaruneSpamtonRetina_mvl/mxv
 BYTE   W01
 BYTE   VOL   60*DeltaruneSpamtonRetina_mvl/mxv
 BYTE   W01
 BYTE   VOL   60*DeltaruneSpamtonRetina_mvl/mxv
 BYTE   W01
 BYTE   VOL   60*DeltaruneSpamtonRetina_mvl/mxv
 BYTE   W01
 BYTE   VOL   60*DeltaruneSpamtonRetina_mvl/mxv
 BYTE   W01
 BYTE   VOL   60*DeltaruneSpamtonRetina_mvl/mxv
 BYTE   W01
 BYTE   VOL   59*DeltaruneSpamtonRetina_mvl/mxv
 BYTE   W01
 BYTE   VOL   59*DeltaruneSpamtonRetina_mvl/mxv
 BYTE   W01
 BYTE   VOL   59*DeltaruneSpamtonRetina_mvl/mxv
 BYTE   W01
 BYTE   VOL   59*DeltaruneSpamtonRetina_mvl/mxv
 BYTE   W01
 BYTE   VOL   59*DeltaruneSpamtonRetina_mvl/mxv
 BYTE   W01
 BYTE   VOL   59*DeltaruneSpamtonRetina_mvl/mxv
 BYTE   W01
 BYTE   VOL   59*DeltaruneSpamtonRetina_mvl/mxv
 BYTE   W01
 BYTE   VOL   59*DeltaruneSpamtonRetina_mvl/mxv
 BYTE   W01
 BYTE   VOL   59*DeltaruneSpamtonRetina_mvl/mxv
 BYTE   W01
 BYTE   VOL   59*DeltaruneSpamtonRetina_mvl/mxv
 BYTE   W01
 BYTE   VOL   59*DeltaruneSpamtonRetina_mvl/mxv
 BYTE   W01
 BYTE   VOL   59*DeltaruneSpamtonRetina_mvl/mxv
 BYTE   W01
 BYTE   VOL   59*DeltaruneSpamtonRetina_mvl/mxv
 BYTE   W01
 BYTE   VOL   59*DeltaruneSpamtonRetina_mvl/mxv
 BYTE   W01
 BYTE   VOL   59*DeltaruneSpamtonRetina_mvl/mxv
 BYTE   W01
 BYTE   VOL   59*DeltaruneSpamtonRetina_mvl/mxv
 BYTE   W01
 BYTE   VOL   58*DeltaruneSpamtonRetina_mvl/mxv
 BYTE   W01
 BYTE   VOL   57*DeltaruneSpamtonRetina_mvl/mxv
 BYTE   W01
 BYTE   VOL   57*DeltaruneSpamtonRetina_mvl/mxv
 BYTE   W01
 BYTE   VOL   56*DeltaruneSpamtonRetina_mvl/mxv
 BYTE   W01
 BYTE   VOL   56*DeltaruneSpamtonRetina_mvl/mxv
 BYTE   W01
 BYTE   VOL   55*DeltaruneSpamtonRetina_mvl/mxv
 BYTE   W01
 BYTE   VOL   54*DeltaruneSpamtonRetina_mvl/mxv
 BYTE   W01
 BYTE   VOL   54*DeltaruneSpamtonRetina_mvl/mxv
 BYTE   W01
 BYTE   VOL   54*DeltaruneSpamtonRetina_mvl/mxv
 BYTE   W01
 BYTE   VOL   53*DeltaruneSpamtonRetina_mvl/mxv
 BYTE   W01
 BYTE   VOL   52*DeltaruneSpamtonRetina_mvl/mxv
 BYTE   W01
 BYTE   VOL   52*DeltaruneSpamtonRetina_mvl/mxv
 BYTE   W01
 BYTE   VOL   51*DeltaruneSpamtonRetina_mvl/mxv
 BYTE   W01
 BYTE   VOL   51*DeltaruneSpamtonRetina_mvl/mxv
 BYTE   W01
 BYTE   VOL   50*DeltaruneSpamtonRetina_mvl/mxv
 BYTE   W01
 BYTE   VOL   49*DeltaruneSpamtonRetina_mvl/mxv
 BYTE   W01
 BYTE   VOL   49*DeltaruneSpamtonRetina_mvl/mxv
 BYTE   W01
 BYTE   VOL   49*DeltaruneSpamtonRetina_mvl/mxv
 BYTE   W01
 BYTE   VOL   48*DeltaruneSpamtonRetina_mvl/mxv
 BYTE   W01
 BYTE   VOL   47*DeltaruneSpamtonRetina_mvl/mxv
 BYTE   W01
 BYTE   VOL   47*DeltaruneSpamtonRetina_mvl/mxv
 BYTE   W01
 BYTE   VOL   46*DeltaruneSpamtonRetina_mvl/mxv
 BYTE   W01
 BYTE   VOL   45*DeltaruneSpamtonRetina_mvl/mxv
 BYTE   W01
 BYTE   VOL   45*DeltaruneSpamtonRetina_mvl/mxv
 BYTE   W01
 BYTE   VOL   44*DeltaruneSpamtonRetina_mvl/mxv
 BYTE   W01
 BYTE   VOL   44*DeltaruneSpamtonRetina_mvl/mxv
 BYTE   W01
 BYTE   VOL   44*DeltaruneSpamtonRetina_mvl/mxv
 BYTE   W01
 BYTE   VOL   43*DeltaruneSpamtonRetina_mvl/mxv
 BYTE   W01
 BYTE   VOL   42*DeltaruneSpamtonRetina_mvl/mxv
 BYTE   W01
 BYTE   VOL   42*DeltaruneSpamtonRetina_mvl/mxv
 BYTE   W01
 BYTE   VOL   41*DeltaruneSpamtonRetina_mvl/mxv
 BYTE   W01
 BYTE   VOL   40*DeltaruneSpamtonRetina_mvl/mxv
 BYTE   W01
 BYTE   VOL   40*DeltaruneSpamtonRetina_mvl/mxv
 BYTE   W01
 BYTE   VOL   39*DeltaruneSpamtonRetina_mvl/mxv
 BYTE   W01
 BYTE   VOL   39*DeltaruneSpamtonRetina_mvl/mxv
 BYTE   W01
 BYTE   VOL   39*DeltaruneSpamtonRetina_mvl/mxv
 BYTE   W01
 BYTE   VOL   38*DeltaruneSpamtonRetina_mvl/mxv
 BYTE   W01
 BYTE   VOL   37*DeltaruneSpamtonRetina_mvl/mxv
 BYTE   W01
 BYTE   VOL   37*DeltaruneSpamtonRetina_mvl/mxv
 BYTE   W01
 BYTE   VOL   36*DeltaruneSpamtonRetina_mvl/mxv
 BYTE   W01
 BYTE   VOL   35*DeltaruneSpamtonRetina_mvl/mxv
 BYTE   W01
 BYTE   VOL   35*DeltaruneSpamtonRetina_mvl/mxv
 BYTE   W01
 BYTE   VOL   34*DeltaruneSpamtonRetina_mvl/mxv
 BYTE   W01
 BYTE   VOL   34*DeltaruneSpamtonRetina_mvl/mxv
 BYTE   W01
 BYTE   VOL   34*DeltaruneSpamtonRetina_mvl/mxv
 BYTE   W01
 BYTE   VOL   33*DeltaruneSpamtonRetina_mvl/mxv
 BYTE   W01
 BYTE   VOL   32*DeltaruneSpamtonRetina_mvl/mxv
 BYTE   W01
 BYTE   VOL   32*DeltaruneSpamtonRetina_mvl/mxv
 BYTE   W01
 BYTE   VOL   31*DeltaruneSpamtonRetina_mvl/mxv
 BYTE   W01
 BYTE   VOL   30*DeltaruneSpamtonRetina_mvl/mxv
 BYTE   W01
 BYTE   VOL   30*DeltaruneSpamtonRetina_mvl/mxv
 BYTE   W01
 BYTE   VOL   29*DeltaruneSpamtonRetina_mvl/mxv
 BYTE   W01
 BYTE   VOL   29*DeltaruneSpamtonRetina_mvl/mxv
 BYTE   W01
 BYTE   VOL   28*DeltaruneSpamtonRetina_mvl/mxv
 BYTE   W01
 BYTE   VOL   28*DeltaruneSpamtonRetina_mvl/mxv
 BYTE   W01
 BYTE   VOL   27*DeltaruneSpamtonRetina_mvl/mxv
 BYTE   W01
 BYTE   VOL   27*DeltaruneSpamtonRetina_mvl/mxv
 BYTE   W01
 BYTE   VOL   26*DeltaruneSpamtonRetina_mvl/mxv
 BYTE   W01
 BYTE   VOL   25*DeltaruneSpamtonRetina_mvl/mxv
 BYTE   W01
 BYTE   VOL   25*DeltaruneSpamtonRetina_mvl/mxv
 BYTE   W01
 BYTE   VOL   24*DeltaruneSpamtonRetina_mvl/mxv
 BYTE   W01
 BYTE   VOL   24*DeltaruneSpamtonRetina_mvl/mxv
 BYTE   W01
 BYTE   VOL   23*DeltaruneSpamtonRetina_mvl/mxv
 BYTE   W01
 BYTE   VOL   23*DeltaruneSpamtonRetina_mvl/mxv
 BYTE   W01
 BYTE   VOL   22*DeltaruneSpamtonRetina_mvl/mxv
 BYTE   W01
 BYTE   VOL   22*DeltaruneSpamtonRetina_mvl/mxv
 BYTE   W01
 BYTE   VOL   21*DeltaruneSpamtonRetina_mvl/mxv
 BYTE   W01
 BYTE   VOL   20*DeltaruneSpamtonRetina_mvl/mxv
 BYTE   W01
 BYTE   VOL   20*DeltaruneSpamtonRetina_mvl/mxv
 BYTE   W01
 BYTE   VOL   19*DeltaruneSpamtonRetina_mvl/mxv
 BYTE   W01
 BYTE   PEND 
// 004   ----------------------------------------
Label_2_0195F5FE:
 BYTE   VOL   20*DeltaruneSpamtonRetina_mvl/mxv
 BYTE   N96  Fs3  v100
 BYTE   N96  An3
 BYTE   N96  Cs4
 BYTE   W01
 BYTE   VOL   20*DeltaruneSpamtonRetina_mvl/mxv
 BYTE   W01
 BYTE   VOL   21*DeltaruneSpamtonRetina_mvl/mxv
 BYTE   W01
 BYTE   VOL   22*DeltaruneSpamtonRetina_mvl/mxv
 BYTE   W01
 BYTE   VOL   22*DeltaruneSpamtonRetina_mvl/mxv
 BYTE   W01
 BYTE   VOL   23*DeltaruneSpamtonRetina_mvl/mxv
 BYTE   W01
 BYTE   VOL   23*DeltaruneSpamtonRetina_mvl/mxv
 BYTE   W01
 BYTE   VOL   23*DeltaruneSpamtonRetina_mvl/mxv
 BYTE   W01
 BYTE   VOL   24*DeltaruneSpamtonRetina_mvl/mxv
 BYTE   W01
 BYTE   VOL   25*DeltaruneSpamtonRetina_mvl/mxv
 BYTE   W01
 BYTE   VOL   25*DeltaruneSpamtonRetina_mvl/mxv
 BYTE   W01
 BYTE   VOL   26*DeltaruneSpamtonRetina_mvl/mxv
 BYTE   W01
 BYTE   VOL   27*DeltaruneSpamtonRetina_mvl/mxv
 BYTE   W01
 BYTE   VOL   27*DeltaruneSpamtonRetina_mvl/mxv
 BYTE   W01
 BYTE   VOL   28*DeltaruneSpamtonRetina_mvl/mxv
 BYTE   W01
 BYTE   VOL   28*DeltaruneSpamtonRetina_mvl/mxv
 BYTE   W01
 BYTE   VOL   28*DeltaruneSpamtonRetina_mvl/mxv
 BYTE   W01
 BYTE   VOL   29*DeltaruneSpamtonRetina_mvl/mxv
 BYTE   W01
 BYTE   VOL   30*DeltaruneSpamtonRetina_mvl/mxv
 BYTE   W01
 BYTE   VOL   30*DeltaruneSpamtonRetina_mvl/mxv
 BYTE   W01
 BYTE   VOL   31*DeltaruneSpamtonRetina_mvl/mxv
 BYTE   W01
 BYTE   VOL   32*DeltaruneSpamtonRetina_mvl/mxv
 BYTE   W01
 BYTE   VOL   32*DeltaruneSpamtonRetina_mvl/mxv
 BYTE   W01
 BYTE   VOL   33*DeltaruneSpamtonRetina_mvl/mxv
 BYTE   W01
 BYTE   VOL   34*DeltaruneSpamtonRetina_mvl/mxv
 BYTE   W01
 BYTE   VOL   34*DeltaruneSpamtonRetina_mvl/mxv
 BYTE   W01
 BYTE   VOL   34*DeltaruneSpamtonRetina_mvl/mxv
 BYTE   W01
 BYTE   VOL   35*DeltaruneSpamtonRetina_mvl/mxv
 BYTE   W01
 BYTE   VOL   35*DeltaruneSpamtonRetina_mvl/mxv
 BYTE   W01
 BYTE   VOL   36*DeltaruneSpamtonRetina_mvl/mxv
 BYTE   W01
 BYTE   VOL   37*DeltaruneSpamtonRetina_mvl/mxv
 BYTE   W01
 BYTE   VOL   37*DeltaruneSpamtonRetina_mvl/mxv
 BYTE   W01
 BYTE   VOL   38*DeltaruneSpamtonRetina_mvl/mxv
 BYTE   W01
 BYTE   VOL   39*DeltaruneSpamtonRetina_mvl/mxv
 BYTE   W01
 BYTE   VOL   39*DeltaruneSpamtonRetina_mvl/mxv
 BYTE   W01
 BYTE   VOL   39*DeltaruneSpamtonRetina_mvl/mxv
 BYTE   W01
 BYTE   VOL   40*DeltaruneSpamtonRetina_mvl/mxv
 BYTE   W01
 BYTE   VOL   40*DeltaruneSpamtonRetina_mvl/mxv
 BYTE   W01
 BYTE   VOL   41*DeltaruneSpamtonRetina_mvl/mxv
 BYTE   W01
 BYTE   VOL   42*DeltaruneSpamtonRetina_mvl/mxv
 BYTE   W01
 BYTE   VOL   42*DeltaruneSpamtonRetina_mvl/mxv
 BYTE   W01
 BYTE   VOL   43*DeltaruneSpamtonRetina_mvl/mxv
 BYTE   W01
 BYTE   VOL   44*DeltaruneSpamtonRetina_mvl/mxv
 BYTE   W01
 BYTE   VOL   44*DeltaruneSpamtonRetina_mvl/mxv
 BYTE   W01
 BYTE   VOL   44*DeltaruneSpamtonRetina_mvl/mxv
 BYTE   W01
 BYTE   VOL   45*DeltaruneSpamtonRetina_mvl/mxv
 BYTE   W01
 BYTE   VOL   45*DeltaruneSpamtonRetina_mvl/mxv
 BYTE   W01
 BYTE   VOL   46*DeltaruneSpamtonRetina_mvl/mxv
 BYTE   W01
 BYTE   VOL   47*DeltaruneSpamtonRetina_mvl/mxv
 BYTE   W01
 BYTE   VOL   47*DeltaruneSpamtonRetina_mvl/mxv
 BYTE   W01
 BYTE   VOL   48*DeltaruneSpamtonRetina_mvl/mxv
 BYTE   W01
 BYTE   VOL   48*DeltaruneSpamtonRetina_mvl/mxv
 BYTE   W01
 BYTE   VOL   49*DeltaruneSpamtonRetina_mvl/mxv
 BYTE   W01
 BYTE   VOL   49*DeltaruneSpamtonRetina_mvl/mxv
 BYTE   W01
 BYTE   VOL   50*DeltaruneSpamtonRetina_mvl/mxv
 BYTE   W01
 BYTE   VOL   51*DeltaruneSpamtonRetina_mvl/mxv
 BYTE   W01
 BYTE   VOL   51*DeltaruneSpamtonRetina_mvl/mxv
 BYTE   W01
 BYTE   VOL   52*DeltaruneSpamtonRetina_mvl/mxv
 BYTE   W01
 BYTE   VOL   52*DeltaruneSpamtonRetina_mvl/mxv
 BYTE   W01
 BYTE   VOL   53*DeltaruneSpamtonRetina_mvl/mxv
 BYTE   W01
 BYTE   VOL   53*DeltaruneSpamtonRetina_mvl/mxv
 BYTE   W01
 BYTE   VOL   54*DeltaruneSpamtonRetina_mvl/mxv
 BYTE   W01
 BYTE   VOL   54*DeltaruneSpamtonRetina_mvl/mxv
 BYTE   W01
 BYTE   VOL   55*DeltaruneSpamtonRetina_mvl/mxv
 BYTE   W01
 BYTE   VOL   56*DeltaruneSpamtonRetina_mvl/mxv
 BYTE   W01
 BYTE   VOL   56*DeltaruneSpamtonRetina_mvl/mxv
 BYTE   W01
 BYTE   VOL   57*DeltaruneSpamtonRetina_mvl/mxv
 BYTE   W01
 BYTE   VOL   57*DeltaruneSpamtonRetina_mvl/mxv
 BYTE   W01
 BYTE   VOL   58*DeltaruneSpamtonRetina_mvl/mxv
 BYTE   W01
 BYTE   VOL   58*DeltaruneSpamtonRetina_mvl/mxv
 BYTE   W01
 BYTE   VOL   59*DeltaruneSpamtonRetina_mvl/mxv
 BYTE   W01
 BYTE   VOL   59*DeltaruneSpamtonRetina_mvl/mxv
 BYTE   W01
 BYTE   VOL   59*DeltaruneSpamtonRetina_mvl/mxv
 BYTE   W24
 BYTE   PEND 
// 005   ----------------------------------------
 BYTE   PATT
  POIN2 Label_2_0195F3FF
// 006   ----------------------------------------
 BYTE   PATT
  POIN2 Label_2_0195F499
// 007   ----------------------------------------
 BYTE   PATT
  POIN2 Label_2_0195F534
// 008   ----------------------------------------
 BYTE   W96
// 009   ----------------------------------------
 BYTE   W96
// 010   ----------------------------------------
 BYTE   W96
// 011   ----------------------------------------
 BYTE   W96
// 012   ----------------------------------------
 BYTE   PATT
  POIN2 Label_2_0195F5FE
// 013   ----------------------------------------
 BYTE   PATT
  POIN2 Label_2_0195F3FF
// 014   ----------------------------------------
 BYTE   PATT
  POIN2 Label_2_0195F499
// 015   ----------------------------------------
 BYTE   PATT
  POIN2 Label_2_0195F534
// 016   ----------------------------------------
Label_2_0195F6C1:
// 017   ----------------------------------------
 BYTE   PATT
  POIN2 Label_2_0195F5FE
// 018   ----------------------------------------
 BYTE   PATT
  POIN2 Label_2_0195F3FF
// 019   ----------------------------------------
 BYTE   PATT
  POIN2 Label_2_0195F499
// 020   ----------------------------------------
 BYTE   PATT
  POIN2 Label_2_0195F534
// 021   ----------------------------------------
 BYTE   PATT
  POIN2 Label_2_0195F5FE
// 022   ----------------------------------------
 BYTE   PATT
  POIN2 Label_2_0195F3FF
// 023   ----------------------------------------
 BYTE   PATT
  POIN2 Label_2_0195F499
// 024   ----------------------------------------
 BYTE   PATT
  POIN2 Label_2_0195F534
// 025   ----------------------------------------
 BYTE   W96
// 026   ----------------------------------------
 BYTE   W96
// 027   ----------------------------------------
 BYTE   W96
// 028   ----------------------------------------
 BYTE   W96
// 029   ----------------------------------------
 BYTE   PATT
  POIN2 Label_2_0195F5FE
// 030   ----------------------------------------
 BYTE   PATT
  POIN2 Label_2_0195F3FF
// 031   ----------------------------------------
 BYTE   PATT
  POIN2 Label_2_0195F499
// 032   ----------------------------------------
 BYTE   VOL   60*DeltaruneSpamtonRetina_mvl/mxv
 BYTE   N92  Fs3  v100
 BYTE   N92  Gs3
 BYTE   N92  Cn4
 BYTE   W01
 BYTE   VOL   60*DeltaruneSpamtonRetina_mvl/mxv
 BYTE   W01
 BYTE   VOL   60*DeltaruneSpamtonRetina_mvl/mxv
 BYTE   W01
 BYTE   VOL   60*DeltaruneSpamtonRetina_mvl/mxv
 BYTE   W01
 BYTE   VOL   60*DeltaruneSpamtonRetina_mvl/mxv
 BYTE   W01
 BYTE   VOL   60*DeltaruneSpamtonRetina_mvl/mxv
 BYTE   W01
 BYTE   VOL   60*DeltaruneSpamtonRetina_mvl/mxv
 BYTE   W01
 BYTE   VOL   60*DeltaruneSpamtonRetina_mvl/mxv
 BYTE   W01
 BYTE   VOL   60*DeltaruneSpamtonRetina_mvl/mxv
 BYTE   W01
 BYTE   VOL   60*DeltaruneSpamtonRetina_mvl/mxv
 BYTE   W01
 BYTE   VOL   59*DeltaruneSpamtonRetina_mvl/mxv
 BYTE   W01
 BYTE   VOL   59*DeltaruneSpamtonRetina_mvl/mxv
 BYTE   W01
 BYTE   VOL   59*DeltaruneSpamtonRetina_mvl/mxv
 BYTE   W01
 BYTE   VOL   59*DeltaruneSpamtonRetina_mvl/mxv
 BYTE   W01
 BYTE   VOL   59*DeltaruneSpamtonRetina_mvl/mxv
 BYTE   W01
 BYTE   VOL   59*DeltaruneSpamtonRetina_mvl/mxv
 BYTE   W01
 BYTE   VOL   59*DeltaruneSpamtonRetina_mvl/mxv
 BYTE   W01
 BYTE   VOL   59*DeltaruneSpamtonRetina_mvl/mxv
 BYTE   W01
 BYTE   VOL   59*DeltaruneSpamtonRetina_mvl/mxv
 BYTE   W01
 BYTE   VOL   59*DeltaruneSpamtonRetina_mvl/mxv
 BYTE   W01
 BYTE   VOL   59*DeltaruneSpamtonRetina_mvl/mxv
 BYTE   W01
 BYTE   VOL   59*DeltaruneSpamtonRetina_mvl/mxv
 BYTE   W01
 BYTE   VOL   59*DeltaruneSpamtonRetina_mvl/mxv
 BYTE   W01
 BYTE   VOL   59*DeltaruneSpamtonRetina_mvl/mxv
 BYTE   W01
 BYTE   VOL   59*DeltaruneSpamtonRetina_mvl/mxv
 BYTE   W01
 BYTE   VOL   59*DeltaruneSpamtonRetina_mvl/mxv
 BYTE   W01
 BYTE   VOL   58*DeltaruneSpamtonRetina_mvl/mxv
 BYTE   W01
 BYTE   VOL   57*DeltaruneSpamtonRetina_mvl/mxv
 BYTE   W01
 BYTE   VOL   57*DeltaruneSpamtonRetina_mvl/mxv
 BYTE   W01
 BYTE   VOL   56*DeltaruneSpamtonRetina_mvl/mxv
 BYTE   W01
 BYTE   VOL   56*DeltaruneSpamtonRetina_mvl/mxv
 BYTE   W01
 BYTE   VOL   55*DeltaruneSpamtonRetina_mvl/mxv
 BYTE   W01
 BYTE   VOL   54*DeltaruneSpamtonRetina_mvl/mxv
 BYTE   W01
 BYTE   VOL   54*DeltaruneSpamtonRetina_mvl/mxv
 BYTE   W01
 BYTE   VOL   54*DeltaruneSpamtonRetina_mvl/mxv
 BYTE   W01
 BYTE   VOL   53*DeltaruneSpamtonRetina_mvl/mxv
 BYTE   W01
 BYTE   VOL   52*DeltaruneSpamtonRetina_mvl/mxv
 BYTE   W01
 BYTE   VOL   52*DeltaruneSpamtonRetina_mvl/mxv
 BYTE   W01
 BYTE   VOL   51*DeltaruneSpamtonRetina_mvl/mxv
 BYTE   W01
 BYTE   VOL   51*DeltaruneSpamtonRetina_mvl/mxv
 BYTE   W01
 BYTE   VOL   50*DeltaruneSpamtonRetina_mvl/mxv
 BYTE   W01
 BYTE   VOL   49*DeltaruneSpamtonRetina_mvl/mxv
 BYTE   W01
 BYTE   VOL   49*DeltaruneSpamtonRetina_mvl/mxv
 BYTE   W01
 BYTE   VOL   49*DeltaruneSpamtonRetina_mvl/mxv
 BYTE   W01
 BYTE   VOL   48*DeltaruneSpamtonRetina_mvl/mxv
 BYTE   W01
 BYTE   VOL   47*DeltaruneSpamtonRetina_mvl/mxv
 BYTE   W01
 BYTE   VOL   47*DeltaruneSpamtonRetina_mvl/mxv
 BYTE   W01
 BYTE   VOL   46*DeltaruneSpamtonRetina_mvl/mxv
 BYTE   W01
 BYTE   VOL   45*DeltaruneSpamtonRetina_mvl/mxv
 BYTE   W01
 BYTE   VOL   45*DeltaruneSpamtonRetina_mvl/mxv
 BYTE   W01
 BYTE   VOL   44*DeltaruneSpamtonRetina_mvl/mxv
 BYTE   W01
 BYTE   VOL   44*DeltaruneSpamtonRetina_mvl/mxv
 BYTE   W01
 BYTE   VOL   44*DeltaruneSpamtonRetina_mvl/mxv
 BYTE   W01
 BYTE   VOL   43*DeltaruneSpamtonRetina_mvl/mxv
 BYTE   W01
 BYTE   VOL   42*DeltaruneSpamtonRetina_mvl/mxv
 BYTE   W01
 BYTE   VOL   42*DeltaruneSpamtonRetina_mvl/mxv
 BYTE   W01
 BYTE   VOL   41*DeltaruneSpamtonRetina_mvl/mxv
 BYTE   W01
 BYTE   VOL   40*DeltaruneSpamtonRetina_mvl/mxv
 BYTE   W01
 BYTE   VOL   40*DeltaruneSpamtonRetina_mvl/mxv
 BYTE   W01
 BYTE   VOL   39*DeltaruneSpamtonRetina_mvl/mxv
 BYTE   W01
 BYTE   VOL   39*DeltaruneSpamtonRetina_mvl/mxv
 BYTE   W01
 BYTE   VOL   39*DeltaruneSpamtonRetina_mvl/mxv
 BYTE   W01
 BYTE   VOL   38*DeltaruneSpamtonRetina_mvl/mxv
 BYTE   W01
 BYTE   VOL   37*DeltaruneSpamtonRetina_mvl/mxv
 BYTE   W01
 BYTE   VOL   37*DeltaruneSpamtonRetina_mvl/mxv
 BYTE   W01
 BYTE   VOL   36*DeltaruneSpamtonRetina_mvl/mxv
 BYTE   W01
 BYTE   VOL   35*DeltaruneSpamtonRetina_mvl/mxv
 BYTE   W01
 BYTE   VOL   35*DeltaruneSpamtonRetina_mvl/mxv
 BYTE   W01
 BYTE   VOL   34*DeltaruneSpamtonRetina_mvl/mxv
 BYTE   W01
 BYTE   VOL   34*DeltaruneSpamtonRetina_mvl/mxv
 BYTE   W01
 BYTE   VOL   34*DeltaruneSpamtonRetina_mvl/mxv
 BYTE   W01
 BYTE   VOL   33*DeltaruneSpamtonRetina_mvl/mxv
 BYTE   W01
 BYTE   VOL   32*DeltaruneSpamtonRetina_mvl/mxv
 BYTE   W01
 BYTE   VOL   32*DeltaruneSpamtonRetina_mvl/mxv
 BYTE   W01
 BYTE   VOL   31*DeltaruneSpamtonRetina_mvl/mxv
 BYTE   W01
 BYTE   VOL   30*DeltaruneSpamtonRetina_mvl/mxv
 BYTE   W01
 BYTE   VOL   30*DeltaruneSpamtonRetina_mvl/mxv
 BYTE   W01
 BYTE   VOL   29*DeltaruneSpamtonRetina_mvl/mxv
 BYTE   W01
 BYTE   VOL   29*DeltaruneSpamtonRetina_mvl/mxv
 BYTE   W01
 BYTE   VOL   28*DeltaruneSpamtonRetina_mvl/mxv
 BYTE   W01
 BYTE   VOL   28*DeltaruneSpamtonRetina_mvl/mxv
 BYTE   W01
 BYTE   VOL   27*DeltaruneSpamtonRetina_mvl/mxv
 BYTE   W01
 BYTE   VOL   27*DeltaruneSpamtonRetina_mvl/mxv
 BYTE   W01
 BYTE   VOL   26*DeltaruneSpamtonRetina_mvl/mxv
 BYTE   W01
 BYTE   VOL   25*DeltaruneSpamtonRetina_mvl/mxv
 BYTE   W01
 BYTE   VOL   25*DeltaruneSpamtonRetina_mvl/mxv
 BYTE   W01
 BYTE   VOL   24*DeltaruneSpamtonRetina_mvl/mxv
 BYTE   W01
 BYTE   VOL   24*DeltaruneSpamtonRetina_mvl/mxv
 BYTE   W01
 BYTE   VOL   23*DeltaruneSpamtonRetina_mvl/mxv
 BYTE   W01
 BYTE   VOL   23*DeltaruneSpamtonRetina_mvl/mxv
 BYTE   W01
 BYTE   VOL   22*DeltaruneSpamtonRetina_mvl/mxv
 BYTE   W01
 BYTE   VOL   22*DeltaruneSpamtonRetina_mvl/mxv
 BYTE   W01
 BYTE   VOL   21*DeltaruneSpamtonRetina_mvl/mxv
 BYTE   W01
 BYTE   VOL   20*DeltaruneSpamtonRetina_mvl/mxv
 BYTE   W01
 BYTE   VOL   20*DeltaruneSpamtonRetina_mvl/mxv
 BYTE   W01
 BYTE   VOL   19*DeltaruneSpamtonRetina_mvl/mxv
 BYTE   W01
// 033   ----------------------------------------
 BYTE   GoTo
  POIN2 Label_2_0195F6C1
// 034   ----------------------------------------
 BYTE   VOICE   48
 BYTE   PAN   c_v+0
 BYTE   VOL   0*DeltaruneSpamtonRetina_mvl/mxv
 BYTE   PAN   c_v+0
 BYTE   VOL   19*DeltaruneSpamtonRetina_mvl/mxv
 BYTE   BEND   c_v+2
 BYTE   FINE

//**************** Track 4 (Midi-Chn.3) ****************//

DeltaruneSpamtonRetina_004:
// 000   ----------------------------------------
 BYTE   KEYSH   DeltaruneSpamtonRetina_key+0
 BYTE   VOICE   4
 BYTE   PAN   c_v+63
 BYTE   VOL   56*DeltaruneSpamtonRetina_mvl/mxv
 BYTE   PAN   c_v+63
 BYTE   VOL   56*DeltaruneSpamtonRetina_mvl/mxv
 BYTE   PAN   c_v+63
 BYTE   VOL   56*DeltaruneSpamtonRetina_mvl/mxv
 BYTE   PAN   c_v+63
 BYTE   VOL   56*DeltaruneSpamtonRetina_mvl/mxv
 BYTE   BEND   c_v-16
 BYTE   W96
// 001   ----------------------------------------
 BYTE   W96
// 002   ----------------------------------------
 BYTE   W96
// 003   ----------------------------------------
 BYTE   W96
// 004   ----------------------------------------
Label_3_0199A826:
 BYTE   PAN   c_v-64
 BYTE   BEND   c_v-5
 BYTE   N04  Fn4  v100
 BYTE   W01
 BYTE   BEND   c_v-11
 BYTE   W01
 BYTE   BEND   c_v-16
 BYTE   W01
 BYTE   BEND   c_v-22
 BYTE   W01
 BYTE   BEND   c_v-28
 BYTE   W01
 BYTE   BEND   c_v-33
 BYTE   W01
 BYTE   BEND   c_v+0
 BYTE   W06
 BYTE   BEND   c_v-5
 BYTE   N04  An4
 BYTE   W01
 BYTE   BEND   c_v-11
 BYTE   W01
 BYTE   BEND   c_v-16
 BYTE   W01
 BYTE   BEND   c_v-22
 BYTE   W01
 BYTE   BEND   c_v-28
 BYTE   W01
 BYTE   BEND   c_v-33
 BYTE   W01
 BYTE   BEND   c_v-5
 BYTE   N04  Fn4
 BYTE   W01
 BYTE   BEND   c_v-11
 BYTE   W01
 BYTE   BEND   c_v-16
 BYTE   W01
 BYTE   BEND   c_v-22
 BYTE   W01
 BYTE   BEND   c_v-28
 BYTE   W01
 BYTE   BEND   c_v-33
 BYTE   W01
 BYTE   BEND   c_v+0
 BYTE   W06
 BYTE   BEND   c_v-5
 BYTE   N04  An4
 BYTE   W01
 BYTE   BEND   c_v-11
 BYTE   W01
 BYTE   BEND   c_v-16
 BYTE   W01
 BYTE   BEND   c_v-22
 BYTE   W01
 BYTE   BEND   c_v-28
 BYTE   W01
 BYTE   BEND   c_v-33
 BYTE   W01
 BYTE   BEND   c_v-5
 BYTE   N04  Fn4
 BYTE   W01
 BYTE   BEND   c_v-11
 BYTE   W01
 BYTE   BEND   c_v-16
 BYTE   W01
 BYTE   BEND   c_v-22
 BYTE   W01
 BYTE   BEND   c_v-28
 BYTE   W01
 BYTE   BEND   c_v-33
 BYTE   W01
 BYTE   BEND   c_v-5
 BYTE   N04  Dn4
 BYTE   W01
 BYTE   BEND   c_v-11
 BYTE   W01
 BYTE   BEND   c_v-16
 BYTE   W01
 BYTE   BEND   c_v-22
 BYTE   W01
 BYTE   BEND   c_v-28
 BYTE   W01
 BYTE   BEND   c_v-33
 BYTE   W01
 BYTE   BEND   c_v-5
 BYTE   N04  Fn4
 BYTE   W01
 BYTE   BEND   c_v-11
 BYTE   W01
 BYTE   BEND   c_v-16
 BYTE   W01
 BYTE   BEND   c_v-22
 BYTE   W01
 BYTE   BEND   c_v-28
 BYTE   W01
 BYTE   BEND   c_v-33
 BYTE   W01
 BYTE   BEND   c_v+0
 BYTE   W06
 BYTE   BEND   c_v-5
 BYTE   N04  An4
 BYTE   W01
 BYTE   BEND   c_v-11
 BYTE   W01
 BYTE   BEND   c_v-16
 BYTE   W01
 BYTE   BEND   c_v-22
 BYTE   W01
 BYTE   BEND   c_v-28
 BYTE   W01
 BYTE   BEND   c_v-33
 BYTE   W01
 BYTE   BEND   c_v+0
 BYTE   W06
 BYTE   BEND   c_v-5
 BYTE   N04  Cn5
 BYTE   W01
 BYTE   BEND   c_v-11
 BYTE   W01
 BYTE   BEND   c_v-16
 BYTE   W01
 BYTE   BEND   c_v-22
 BYTE   W01
 BYTE   BEND   c_v-28
 BYTE   W01
 BYTE   BEND   c_v-33
 BYTE   W01
 BYTE   BEND   c_v+0
 BYTE   W18
 BYTE   PEND 
// 005   ----------------------------------------
Label_3_0199A8BC:
 BYTE   PAN   c_v+63
 BYTE   BEND   c_v-5
 BYTE   N04  Fn4  v100
 BYTE   W01
 BYTE   BEND   c_v-11
 BYTE   W01
 BYTE   BEND   c_v-16
 BYTE   W01
 BYTE   BEND   c_v-22
 BYTE   W01
 BYTE   BEND   c_v-28
 BYTE   W01
 BYTE   BEND   c_v-33
 BYTE   W01
 BYTE   BEND   c_v+0
 BYTE   W06
 BYTE   BEND   c_v-5
 BYTE   N04  An4
 BYTE   W01
 BYTE   BEND   c_v-11
 BYTE   W01
 BYTE   BEND   c_v-16
 BYTE   W01
 BYTE   BEND   c_v-22
 BYTE   W01
 BYTE   BEND   c_v-28
 BYTE   W01
 BYTE   BEND   c_v-33
 BYTE   W01
 BYTE   BEND   c_v-5
 BYTE   N04  Fn4
 BYTE   W01
 BYTE   BEND   c_v-11
 BYTE   W01
 BYTE   BEND   c_v-16
 BYTE   W01
 BYTE   BEND   c_v-22
 BYTE   W01
 BYTE   BEND   c_v-28
 BYTE   W01
 BYTE   BEND   c_v-33
 BYTE   W01
 BYTE   BEND   c_v+0
 BYTE   W06
 BYTE   BEND   c_v-5
 BYTE   N04  An4
 BYTE   W01
 BYTE   BEND   c_v-11
 BYTE   W01
 BYTE   BEND   c_v-16
 BYTE   W01
 BYTE   BEND   c_v-22
 BYTE   W01
 BYTE   BEND   c_v-28
 BYTE   W01
 BYTE   BEND   c_v-33
 BYTE   W01
 BYTE   BEND   c_v-5
 BYTE   N04  Fn4
 BYTE   W01
 BYTE   BEND   c_v-11
 BYTE   W01
 BYTE   BEND   c_v-16
 BYTE   W01
 BYTE   BEND   c_v-22
 BYTE   W01
 BYTE   BEND   c_v-28
 BYTE   W01
 BYTE   BEND   c_v-33
 BYTE   W01
 BYTE   BEND   c_v-5
 BYTE   N04  Dn4
 BYTE   W01
 BYTE   BEND   c_v-11
 BYTE   W01
 BYTE   BEND   c_v-16
 BYTE   W01
 BYTE   BEND   c_v-22
 BYTE   W01
 BYTE   BEND   c_v-28
 BYTE   W01
 BYTE   BEND   c_v-33
 BYTE   W01
 BYTE   BEND   c_v-5
 BYTE   N04  Fn4
 BYTE   W01
 BYTE   BEND   c_v-11
 BYTE   W01
 BYTE   BEND   c_v-16
 BYTE   W01
 BYTE   BEND   c_v-22
 BYTE   W01
 BYTE   BEND   c_v-28
 BYTE   W01
 BYTE   BEND   c_v-33
 BYTE   W01
 BYTE   BEND   c_v+0
 BYTE   W06
 BYTE   BEND   c_v-5
 BYTE   N04  An4
 BYTE   W01
 BYTE   BEND   c_v-11
 BYTE   W01
 BYTE   BEND   c_v-16
 BYTE   W01
 BYTE   BEND   c_v-22
 BYTE   W01
 BYTE   BEND   c_v-28
 BYTE   W01
 BYTE   BEND   c_v-33
 BYTE   W01
 BYTE   BEND   c_v+0
 BYTE   W06
 BYTE   BEND   c_v-5
 BYTE   N04  Fn4
 BYTE   W01
 BYTE   BEND   c_v-11
 BYTE   W01
 BYTE   BEND   c_v-16
 BYTE   W01
 BYTE   BEND   c_v-22
 BYTE   W01
 BYTE   BEND   c_v-28
 BYTE   W01
 BYTE   BEND   c_v-33
 BYTE   W01
 BYTE   BEND   c_v+0
 BYTE   W18
 BYTE   PEND 
// 006   ----------------------------------------
 BYTE   PATT
  POIN2 Label_3_0199A826
// 007   ----------------------------------------
Label_3_0199A957:
 BYTE   PAN   c_v+63
 BYTE   BEND   c_v-5
 BYTE   N04  Fn4  v100
 BYTE   W01
 BYTE   BEND   c_v-11
 BYTE   W01
 BYTE   BEND   c_v-16
 BYTE   W01
 BYTE   BEND   c_v-22
 BYTE   W01
 BYTE   BEND   c_v-28
 BYTE   W01
 BYTE   BEND   c_v-33
 BYTE   W01
 BYTE   BEND   c_v+0
 BYTE   W06
 BYTE   BEND   c_v-5
 BYTE   N04  An4
 BYTE   W01
 BYTE   BEND   c_v-11
 BYTE   W01
 BYTE   BEND   c_v-16
 BYTE   W01
 BYTE   BEND   c_v-22
 BYTE   W01
 BYTE   BEND   c_v-28
 BYTE   W01
 BYTE   BEND   c_v-33
 BYTE   W01
 BYTE   BEND   c_v-5
 BYTE   N04  Fn4
 BYTE   W01
 BYTE   BEND   c_v-11
 BYTE   W01
 BYTE   BEND   c_v-16
 BYTE   W01
 BYTE   BEND   c_v-22
 BYTE   W01
 BYTE   BEND   c_v-28
 BYTE   W01
 BYTE   BEND   c_v-33
 BYTE   W01
 BYTE   BEND   c_v+0
 BYTE   W06
 BYTE   BEND   c_v-5
 BYTE   N04  An4
 BYTE   W01
 BYTE   BEND   c_v-11
 BYTE   W01
 BYTE   BEND   c_v-16
 BYTE   W01
 BYTE   BEND   c_v-22
 BYTE   W01
 BYTE   BEND   c_v-28
 BYTE   W01
 BYTE   BEND   c_v-33
 BYTE   W01
 BYTE   BEND   c_v-5
 BYTE   N04  Fn4
 BYTE   W01
 BYTE   BEND   c_v-11
 BYTE   W01
 BYTE   BEND   c_v-16
 BYTE   W01
 BYTE   BEND   c_v-22
 BYTE   W01
 BYTE   BEND   c_v-28
 BYTE   W01
 BYTE   BEND   c_v-33
 BYTE   W01
 BYTE   BEND   c_v-5
 BYTE   N04  Dn4
 BYTE   W01
 BYTE   BEND   c_v-11
 BYTE   W01
 BYTE   BEND   c_v-16
 BYTE   W01
 BYTE   BEND   c_v-22
 BYTE   W01
 BYTE   BEND   c_v-28
 BYTE   W01
 BYTE   BEND   c_v-33
 BYTE   W01
 BYTE   PAN   c_v-64
 BYTE   BEND   c_v-4
 BYTE   N06  Fs4
 BYTE   W01
 BYTE   BEND   c_v-1
 BYTE   W01
 BYTE   BEND   c_v-9
 BYTE   W01
 BYTE   BEND   c_v-21
 BYTE   W01
 BYTE   BEND   c_v-24
 BYTE   W01
 BYTE   BEND   c_v-16
 BYTE   W01
 BYTE   BEND   c_v-4
 BYTE   N06
 BYTE   W01
 BYTE   BEND   c_v-1
 BYTE   W01
 BYTE   BEND   c_v-9
 BYTE   W01
 BYTE   BEND   c_v-21
 BYTE   W01
 BYTE   BEND   c_v-24
 BYTE   W01
 BYTE   BEND   c_v-16
 BYTE   W01
 BYTE   BEND   c_v-4
 BYTE   N06
 BYTE   W01
 BYTE   BEND   c_v-1
 BYTE   W01
 BYTE   BEND   c_v-9
 BYTE   W01
 BYTE   BEND   c_v-21
 BYTE   W01
 BYTE   BEND   c_v-24
 BYTE   W01
 BYTE   BEND   c_v-16
 BYTE   W01
 BYTE   BEND   c_v-4
 BYTE   N06
 BYTE   W01
 BYTE   BEND   c_v-1
 BYTE   W01
 BYTE   BEND   c_v-9
 BYTE   W01
 BYTE   BEND   c_v-21
 BYTE   W01
 BYTE   BEND   c_v-24
 BYTE   W01
 BYTE   BEND   c_v-16
 BYTE   W01
 BYTE   PAN   c_v+63
 BYTE   BEND   c_v-4
 BYTE   N06  En4
 BYTE   W01
 BYTE   BEND   c_v-1
 BYTE   W01
 BYTE   BEND   c_v-9
 BYTE   W01
 BYTE   BEND   c_v-21
 BYTE   W01
 BYTE   BEND   c_v-24
 BYTE   W01
 BYTE   BEND   c_v-16
 BYTE   W01
 BYTE   BEND   c_v-4
 BYTE   N06
 BYTE   W01
 BYTE   BEND   c_v-1
 BYTE   W01
 BYTE   BEND   c_v-9
 BYTE   W01
 BYTE   BEND   c_v-21
 BYTE   W01
 BYTE   BEND   c_v-24
 BYTE   W01
 BYTE   BEND   c_v-16
 BYTE   W01
 BYTE   BEND   c_v-4
 BYTE   N06
 BYTE   W01
 BYTE   BEND   c_v-1
 BYTE   W01
 BYTE   BEND   c_v-9
 BYTE   W01
 BYTE   BEND   c_v-21
 BYTE   W01
 BYTE   BEND   c_v-24
 BYTE   W01
 BYTE   BEND   c_v-16
 BYTE   W01
 BYTE   BEND   c_v-4
 BYTE   N06
 BYTE   W01
 BYTE   BEND   c_v-1
 BYTE   W01
 BYTE   BEND   c_v-9
 BYTE   W01
 BYTE   BEND   c_v-21
 BYTE   W01
 BYTE   BEND   c_v-24
 BYTE   W01
 BYTE   BEND   c_v-16
 BYTE   W01
 BYTE   PEND 
// 008   ----------------------------------------
 BYTE   W96
// 009   ----------------------------------------
 BYTE   W96
// 010   ----------------------------------------
 BYTE   W96
// 011   ----------------------------------------
 BYTE   W96
// 012   ----------------------------------------
 BYTE   W96
// 013   ----------------------------------------
 BYTE   W96
// 014   ----------------------------------------
 BYTE   W96
// 015   ----------------------------------------
 BYTE   W96
// 016   ----------------------------------------
Label_3_0199AA3A:
 BYTE   W96
// 017   ----------------------------------------
 BYTE   W96
// 018   ----------------------------------------
 BYTE   W96
// 019   ----------------------------------------
 BYTE   W96
// 020   ----------------------------------------
 BYTE   PATT
  POIN2 Label_3_0199A826
// 021   ----------------------------------------
 BYTE   PATT
  POIN2 Label_3_0199A8BC
// 022   ----------------------------------------
 BYTE   PATT
  POIN2 Label_3_0199A826
// 023   ----------------------------------------
 BYTE   PATT
  POIN2 Label_3_0199A957
// 024   ----------------------------------------
 BYTE   W96
// 025   ----------------------------------------
 BYTE   W96
// 026   ----------------------------------------
 BYTE   W96
// 027   ----------------------------------------
 BYTE   W96
// 028   ----------------------------------------
 BYTE   W96
// 029   ----------------------------------------
 BYTE   W96
// 030   ----------------------------------------
 BYTE   W96
// 031   ----------------------------------------
 BYTE   W96
// 032   ----------------------------------------
 BYTE   GoTo
  POIN2 Label_3_0199AA3A
// 033   ----------------------------------------
 BYTE   VOICE   4
 BYTE   PAN   c_v+63
 BYTE   VOL   56*DeltaruneSpamtonRetina_mvl/mxv
 BYTE   PAN   c_v+63
 BYTE   VOL   56*DeltaruneSpamtonRetina_mvl/mxv
 BYTE   BEND   c_v-16
 BYTE   FINE

//**************** Track 5 (Midi-Chn.4) ****************//

DeltaruneSpamtonRetina_005:
// 000   ----------------------------------------
 BYTE   KEYSH   DeltaruneSpamtonRetina_key+0
 BYTE   VOICE   39
 BYTE   PAN   c_v+0
 BYTE   VOL   80*DeltaruneSpamtonRetina_mvl/mxv
 BYTE   PAN   c_v+0
 BYTE   VOL   80*DeltaruneSpamtonRetina_mvl/mxv
 BYTE   PAN   c_v+0
 BYTE   VOL   80*DeltaruneSpamtonRetina_mvl/mxv
 BYTE   PAN   c_v+0
 BYTE   VOL   80*DeltaruneSpamtonRetina_mvl/mxv
 BYTE   BEND   c_v+2
 BYTE   N12  Fs0  v100
 BYTE   W18
 BYTE   N12
 BYTE   W18
 BYTE   En0
 BYTE   W12
 BYTE   Fs0
 BYTE   W18
 BYTE   N24  Cs0
 BYTE   W30
// 001   ----------------------------------------
Label_4_0195F11B:
 BYTE   N12  Fs0  v100
 BYTE   W18
 BYTE   N12
 BYTE   W18
 BYTE   En0
 BYTE   W12
 BYTE   Fs0
 BYTE   W18
 BYTE   N24  Cs0
 BYTE   W30
 BYTE   PEND 
// 002   ----------------------------------------
 BYTE   PATT
  POIN2 Label_4_0195F11B
// 003   ----------------------------------------
 BYTE   PATT
  POIN2 Label_4_0195F11B
// 004   ----------------------------------------
 BYTE   PATT
  POIN2 Label_4_0195F11B
// 005   ----------------------------------------
 BYTE   PATT
  POIN2 Label_4_0195F11B
// 006   ----------------------------------------
 BYTE   PATT
  POIN2 Label_4_0195F11B
// 007   ----------------------------------------
 BYTE   PATT
  POIN2 Label_4_0195F11B
// 008   ----------------------------------------
 BYTE   PATT
  POIN2 Label_4_0195F11B
// 009   ----------------------------------------
 BYTE   PATT
  POIN2 Label_4_0195F11B
// 010   ----------------------------------------
 BYTE   PATT
  POIN2 Label_4_0195F11B
// 011   ----------------------------------------
 BYTE   PATT
  POIN2 Label_4_0195F11B
// 012   ----------------------------------------
 BYTE   PATT
  POIN2 Label_4_0195F11B
// 013   ----------------------------------------
 BYTE   PATT
  POIN2 Label_4_0195F11B
// 014   ----------------------------------------
 BYTE   PATT
  POIN2 Label_4_0195F11B
// 015   ----------------------------------------
 BYTE   PATT
  POIN2 Label_4_0195F11B
// 016   ----------------------------------------
Label_4_0195F16F:
// 017   ----------------------------------------
 BYTE   PATT
  POIN2 Label_4_0195F11B
// 018   ----------------------------------------
 BYTE   PATT
  POIN2 Label_4_0195F11B
// 019   ----------------------------------------
 BYTE   PATT
  POIN2 Label_4_0195F11B
// 020   ----------------------------------------
 BYTE   PATT
  POIN2 Label_4_0195F11B
// 021   ----------------------------------------
 BYTE   PATT
  POIN2 Label_4_0195F11B
// 022   ----------------------------------------
 BYTE   PATT
  POIN2 Label_4_0195F11B
// 023   ----------------------------------------
 BYTE   PATT
  POIN2 Label_4_0195F11B
// 024   ----------------------------------------
 BYTE   PATT
  POIN2 Label_4_0195F11B
// 025   ----------------------------------------
 BYTE   PATT
  POIN2 Label_4_0195F11B
// 026   ----------------------------------------
 BYTE   PATT
  POIN2 Label_4_0195F11B
// 027   ----------------------------------------
 BYTE   PATT
  POIN2 Label_4_0195F11B
// 028   ----------------------------------------
 BYTE   PATT
  POIN2 Label_4_0195F11B
// 029   ----------------------------------------
 BYTE   PATT
  POIN2 Label_4_0195F11B
// 030   ----------------------------------------
 BYTE   PATT
  POIN2 Label_4_0195F11B
// 031   ----------------------------------------
 BYTE   PATT
  POIN2 Label_4_0195F11B
// 032   ----------------------------------------
 BYTE   PATT
  POIN2 Label_4_0195F11B
// 033   ----------------------------------------
 BYTE   GoTo
  POIN2 Label_4_0195F16F
// 034   ----------------------------------------
 BYTE   VOICE   39
 BYTE   PAN   c_v+0
 BYTE   VOL   80*DeltaruneSpamtonRetina_mvl/mxv
 BYTE   PAN   c_v+0
 BYTE   VOL   80*DeltaruneSpamtonRetina_mvl/mxv
 BYTE   BEND   c_v+2
 BYTE   FINE

//**************** Track 6 (Midi-Chn.5) ****************//

DeltaruneSpamtonRetina_006:
// 000   ----------------------------------------
 BYTE   KEYSH   DeltaruneSpamtonRetina_key+0
 BYTE   VOICE   103
 BYTE   PAN   c_v+63
 BYTE   VOL   62*DeltaruneSpamtonRetina_mvl/mxv
 BYTE   PAN   c_v+63
 BYTE   VOL   62*DeltaruneSpamtonRetina_mvl/mxv
 BYTE   PAN   c_v+63
 BYTE   VOL   62*DeltaruneSpamtonRetina_mvl/mxv
 BYTE   PAN   c_v+0
 BYTE   VOL   62*DeltaruneSpamtonRetina_mvl/mxv
 BYTE   BEND   c_v+0
 BYTE   W96
// 001   ----------------------------------------
 BYTE   W96
// 002   ----------------------------------------
 BYTE   W96
// 003   ----------------------------------------
Label_5_0195EF01:
 BYTE   W48
 BYTE   PAN   c_v-64
 BYTE   N18  Ds3  v100
 BYTE   W24
 BYTE   PAN   c_v+63
 BYTE   N18
 BYTE   W24
 BYTE   PEND 
// 004   ----------------------------------------
 BYTE   W96
// 005   ----------------------------------------
 BYTE   W96
// 006   ----------------------------------------
 BYTE   W96
// 007   ----------------------------------------
 BYTE   PATT
  POIN2 Label_5_0195EF01
// 008   ----------------------------------------
 BYTE   W96
// 009   ----------------------------------------
 BYTE   W96
// 010   ----------------------------------------
 BYTE   W96
// 011   ----------------------------------------
Label_5_0195EF18:
 BYTE   W48
 BYTE   PAN   c_v+0
 BYTE   N18  Ds3  v100
 BYTE   W24
 BYTE   N18
 BYTE   W24
 BYTE   PEND 
// 012   ----------------------------------------
 BYTE   W96
// 013   ----------------------------------------
 BYTE   W96
// 014   ----------------------------------------
 BYTE   W96
// 015   ----------------------------------------
 BYTE   PATT
  POIN2 Label_5_0195EF18
// 016   ----------------------------------------
Label_5_0195EF2A:
 BYTE   W96
// 017   ----------------------------------------
 BYTE   W96
// 018   ----------------------------------------
 BYTE   W96
// 019   ----------------------------------------
 BYTE   PATT
  POIN2 Label_5_0195EF01
// 020   ----------------------------------------
 BYTE   W96
// 021   ----------------------------------------
 BYTE   W96
// 022   ----------------------------------------
 BYTE   W96
// 023   ----------------------------------------
 BYTE   PATT
  POIN2 Label_5_0195EF01
// 024   ----------------------------------------
 BYTE   W96
// 025   ----------------------------------------
 BYTE   W96
// 026   ----------------------------------------
 BYTE   W96
// 027   ----------------------------------------
 BYTE   PATT
  POIN2 Label_5_0195EF18
// 028   ----------------------------------------
 BYTE   W96
// 029   ----------------------------------------
 BYTE   W96
// 030   ----------------------------------------
 BYTE   W96
// 031   ----------------------------------------
 BYTE   PATT
  POIN2 Label_5_0195EF18
// 032   ----------------------------------------
 BYTE   GoTo
  POIN2 Label_5_0195EF2A
// 033   ----------------------------------------
 BYTE   VOICE   103
 BYTE   PAN   c_v+0
 BYTE   VOL   62*DeltaruneSpamtonRetina_mvl/mxv
 BYTE   PAN   c_v+0
 BYTE   VOL   62*DeltaruneSpamtonRetina_mvl/mxv
 BYTE   BEND   c_v+0
 BYTE   FINE

//**************** Track 7 (Midi-Chn.6) ****************//

DeltaruneSpamtonRetina_007:
// 000   ----------------------------------------
 BYTE   KEYSH   DeltaruneSpamtonRetina_key+0
 BYTE   VOICE   121
 BYTE   PAN   c_v+0
 BYTE   VOL   62*DeltaruneSpamtonRetina_mvl/mxv
 BYTE   PAN   c_v+0
 BYTE   VOL   62*DeltaruneSpamtonRetina_mvl/mxv
 BYTE   PAN   c_v+0
 BYTE   VOL   62*DeltaruneSpamtonRetina_mvl/mxv
 BYTE   PAN   c_v+0
 BYTE   VOL   62*DeltaruneSpamtonRetina_mvl/mxv
 BYTE   BEND   c_v+0
 BYTE   N06  Cn1  v100
 BYTE   N06  Fs1
 BYTE   W12
 BYTE   N06
 BYTE   W06
 BYTE   Cn1
 BYTE   N06  Fs1
 BYTE   W06
 BYTE   N06
 BYTE   W06
 BYTE   Dn1
 BYTE   N06  Fs1
 BYTE   W06
 BYTE   N06
 BYTE   W06
 BYTE   N06
 BYTE   W06
 BYTE   Cn1
 BYTE   N06  Fs1
 BYTE   W12
 BYTE   N06
 BYTE   W06
 BYTE   Cn1
 BYTE   N06  Fs1
 BYTE   W06
 BYTE   Dn1
 BYTE   N06  Fs1
 BYTE   W06
 BYTE   N06
 BYTE   W06
 BYTE   Dn1  v072
 BYTE   N06  Fs1  v100
 BYTE   W06
 BYTE   Dn1  v072
 BYTE   N06  Fs1  v100
 BYTE   W06
// 001   ----------------------------------------
Label_6_0195ED3C:
 BYTE   N06  Cn1  v100
 BYTE   N06  Fs1
 BYTE   W12
 BYTE   N06
 BYTE   W06
 BYTE   Cn1
 BYTE   N06  Fs1
 BYTE   W06
 BYTE   N06
 BYTE   W06
 BYTE   Dn1
 BYTE   N06  Fs1
 BYTE   W06
 BYTE   N06
 BYTE   W06
 BYTE   N06
 BYTE   W06
 BYTE   Cn1
 BYTE   N06  Fs1
 BYTE   W12
 BYTE   N06
 BYTE   W06
 BYTE   Cn1
 BYTE   N06  Fs1
 BYTE   W06
 BYTE   Dn1
 BYTE   N06  Fs1
 BYTE   W06
 BYTE   N06
 BYTE   W06
 BYTE   N06
 BYTE   W06
 BYTE   N06
 BYTE   W06
 BYTE   PEND 
// 002   ----------------------------------------
Label_6_0195ED67:
 BYTE   N06  Cn1  v100
 BYTE   N06  Fs1
 BYTE   W12
 BYTE   N06
 BYTE   W06
 BYTE   Cn1
 BYTE   N06  Fs1
 BYTE   W06
 BYTE   N06
 BYTE   W06
 BYTE   Dn1
 BYTE   N06  Fs1
 BYTE   W06
 BYTE   N06
 BYTE   W06
 BYTE   N06
 BYTE   W06
 BYTE   Cn1
 BYTE   N06  Fs1
 BYTE   W12
 BYTE   N06
 BYTE   W06
 BYTE   Cn1
 BYTE   N06  Fs1
 BYTE   W06
 BYTE   Dn1
 BYTE   N06  Fs1
 BYTE   W06
 BYTE   N06
 BYTE   W06
 BYTE   Dn1  v072
 BYTE   N06  Fs1  v100
 BYTE   W06
 BYTE   Dn1  v072
 BYTE   N06  Fs1  v100
 BYTE   W06
 BYTE   PEND 
// 003   ----------------------------------------
Label_6_0195ED9A:
 BYTE   N06  Cn1  v100
 BYTE   N06  Fs1
 BYTE   W12
 BYTE   N06
 BYTE   W06
 BYTE   Cn1
 BYTE   N06  Fs1
 BYTE   W06
 BYTE   N06
 BYTE   W06
 BYTE   Dn1
 BYTE   N06  Fs1
 BYTE   W12
 BYTE   N06
 BYTE   W06
 BYTE   Cn1
 BYTE   N06  Fs1
 BYTE   W06
 BYTE   N06
 BYTE   W06
 BYTE   N06
 BYTE   W06
 BYTE   Cn1
 BYTE   N06  Fs1
 BYTE   W06
 BYTE   Dn1
 BYTE   N06  Fs1
 BYTE   N06  Dn2
 BYTE   W06
 BYTE   Dn1
 BYTE   N06  Fs1
 BYTE   N06  Dn2
 BYTE   W06
 BYTE   Dn1
 BYTE   N06  Fs1
 BYTE   N06  Cn2
 BYTE   W06
 BYTE   Dn1
 BYTE   N06  Fs1
 BYTE   N06  An1
 BYTE   W06
 BYTE   PEND 
// 004   ----------------------------------------
 BYTE   PATT
  POIN2 Label_6_0195ED67
// 005   ----------------------------------------
 BYTE   PATT
  POIN2 Label_6_0195ED3C
// 006   ----------------------------------------
 BYTE   PATT
  POIN2 Label_6_0195ED67
// 007   ----------------------------------------
 BYTE   PATT
  POIN2 Label_6_0195ED9A
// 008   ----------------------------------------
 BYTE   PATT
  POIN2 Label_6_0195ED67
// 009   ----------------------------------------
 BYTE   PATT
  POIN2 Label_6_0195ED3C
// 010   ----------------------------------------
 BYTE   PATT
  POIN2 Label_6_0195ED67
// 011   ----------------------------------------
 BYTE   PATT
  POIN2 Label_6_0195ED9A
// 012   ----------------------------------------
 BYTE   PATT
  POIN2 Label_6_0195ED67
// 013   ----------------------------------------
 BYTE   PATT
  POIN2 Label_6_0195ED3C
// 014   ----------------------------------------
 BYTE   PATT
  POIN2 Label_6_0195ED67
// 015   ----------------------------------------
 BYTE   PATT
  POIN2 Label_6_0195ED9A
// 016   ----------------------------------------
Label_6_0195EE0F:
// 017   ----------------------------------------
 BYTE   PATT
  POIN2 Label_6_0195ED67
// 018   ----------------------------------------
 BYTE   PATT
  POIN2 Label_6_0195ED3C
// 019   ----------------------------------------
 BYTE   PATT
  POIN2 Label_6_0195ED67
// 020   ----------------------------------------
 BYTE   PATT
  POIN2 Label_6_0195ED9A
// 021   ----------------------------------------
 BYTE   PATT
  POIN2 Label_6_0195ED67
// 022   ----------------------------------------
 BYTE   PATT
  POIN2 Label_6_0195ED3C
// 023   ----------------------------------------
 BYTE   PATT
  POIN2 Label_6_0195ED67
// 024   ----------------------------------------
 BYTE   PATT
  POIN2 Label_6_0195ED9A
// 025   ----------------------------------------
 BYTE   PATT
  POIN2 Label_6_0195ED67
// 026   ----------------------------------------
 BYTE   PATT
  POIN2 Label_6_0195ED3C
// 027   ----------------------------------------
 BYTE   PATT
  POIN2 Label_6_0195ED67
// 028   ----------------------------------------
 BYTE   PATT
  POIN2 Label_6_0195ED9A
// 029   ----------------------------------------
 BYTE   PATT
  POIN2 Label_6_0195ED67
// 030   ----------------------------------------
 BYTE   PATT
  POIN2 Label_6_0195ED3C
// 031   ----------------------------------------
 BYTE   PATT
  POIN2 Label_6_0195ED67
// 032   ----------------------------------------
 BYTE   N06  Cn1  v100
 BYTE   N06  Fs1
 BYTE   W12
 BYTE   N06
 BYTE   W06
 BYTE   Cn1
 BYTE   N06  Fs1
 BYTE   W06
 BYTE   N06
 BYTE   W06
 BYTE   Dn1
 BYTE   N06  Fs1
 BYTE   W12
 BYTE   N06
 BYTE   W06
 BYTE   Cn1
 BYTE   N06  Fs1
 BYTE   W06
 BYTE   N06
 BYTE   W06
 BYTE   N06
 BYTE   W06
 BYTE   Cn1
 BYTE   N06  Fs1
 BYTE   W06
 BYTE   Dn1
 BYTE   N06  Fs1
 BYTE   N06  Dn2
 BYTE   W06
 BYTE   Dn1
 BYTE   N06  Fs1
 BYTE   N06  Dn2
 BYTE   W06
 BYTE   Dn1
 BYTE   N06  Fs1
 BYTE   N06  Cn2
 BYTE   W06
 BYTE   N05  Dn1
 BYTE   N05  Fs1
 BYTE   N05  An1
 BYTE   W06
// 033   ----------------------------------------
 BYTE   GoTo
  POIN2 Label_6_0195EE0F
// 034   ----------------------------------------
 BYTE   PAN   c_v+0
 BYTE   VOL   62*DeltaruneSpamtonRetina_mvl/mxv
 BYTE   PAN   c_v+0
 BYTE   VOL   62*DeltaruneSpamtonRetina_mvl/mxv
 BYTE   BEND   c_v+0
 BYTE   FINE

//******************************************************//
	ALIGN 4

DeltaruneSpamtonRetina:
	BYTE	7	// NumTrks
	BYTE	0	// NumBlks
	BYTE	DeltaruneSpamtonRetina_pri	// Priority
	BYTE	DeltaruneSpamtonRetina_rev	// Reverb.
    
	POIN2	DeltaruneSpamtonRetina_grp
    
	POIN2	DeltaruneSpamtonRetina_001
	POIN2	DeltaruneSpamtonRetina_002
	POIN2	DeltaruneSpamtonRetina_003
	POIN2	DeltaruneSpamtonRetina_004
	POIN2	DeltaruneSpamtonRetina_005
	POIN2	DeltaruneSpamtonRetina_006
	POIN2	DeltaruneSpamtonRetina_007

	
