//Event file generated from Sappy .s format.
	#include "MPlayDef.event"

	#define	DeltaruneTheWorldRevolvingPikmin1211_grp  voicegroup000
	#define	DeltaruneTheWorldRevolvingPikmin1211_pri  0
	#define	DeltaruneTheWorldRevolvingPikmin1211_rev  0
	#define	DeltaruneTheWorldRevolvingPikmin1211_mvl  25
	#define	DeltaruneTheWorldRevolvingPikmin1211_key  0
	#define	DeltaruneTheWorldRevolvingPikmin1211_tbs  1
	#define	DeltaruneTheWorldRevolvingPikmin1211_exg  0
	#define	DeltaruneTheWorldRevolvingPikmin1211_cmp  1

	// .rodata
	//	DeltaruneTheWorldRevolvingPikmin1211
	ALIGN 4

//**************** Track 1 (Midi-Chn.1) ****************//

DeltaruneTheWorldRevolvingPikmin1211_1:
	BYTE	KEYSH   DeltaruneTheWorldRevolvingPikmin1211_key+0
// 000   ----------------------------------------
	BYTE	TEMPO   190*DeltaruneTheWorldRevolvingPikmin1211_tbs/2
	BYTE		VOICE   21
	BYTE		PAN     c_v+39
	BYTE		VOL     116*DeltaruneTheWorldRevolvingPikmin1211_mvl/mxv
	BYTE		BEND    c_v-2
	BYTE	W96
// 001   ----------------------------------------
	BYTE	W96
// 002   ----------------------------------------
DeltaruneTheWorldRevolvingPikmin1211_1_002:
	BYTE		N36     En3   v108
	BYTE		N36     Bn3 
	BYTE	W36
	BYTE		        Bn2 
	BYTE		N36     En3 
	BYTE	W36
	BYTE		N24     Dn3 
	BYTE		N24     Gn3 
	BYTE	W24
	BYTE	PEND
// 003   ----------------------------------------
DeltaruneTheWorldRevolvingPikmin1211_1_003:
	BYTE		N24     Cs4   v108
	BYTE		N24     Fs4 
	BYTE	W24
	BYTE		        Bn3 
	BYTE		N24     En4 
	BYTE	W24
	BYTE		        Fs3 
	BYTE		N24     Bn3 
	BYTE	W24
	BYTE		        Gs3 
	BYTE		N24     Cs4 
	BYTE	W24
	BYTE	PEND
// 004   ----------------------------------------
	BYTE		N96     Bn3 
	BYTE		N96     Ds4 
	BYTE	W96
// 005   ----------------------------------------
	BYTE	W96
// 006   ----------------------------------------
	BYTE		N36     En3 
	BYTE		N36     Bn3 
	BYTE	W36
	BYTE		        En2 
	BYTE		N36     En3 
	BYTE	W36
	BYTE		N24     Gs2 
	BYTE		N24     Gs3 
	BYTE	W24
// 007   ----------------------------------------
	BYTE		N48     Bn2 
	BYTE		N48     Ds3 
	BYTE		N36     Ds4 
	BYTE	W36
	BYTE		N06     En4 
	BYTE	W06
	BYTE		        Ds4 
	BYTE	W06
	BYTE		N48     Cs3 
	BYTE		N48     En3 
	BYTE		N48     Cs4 
	BYTE	W48
// 008   ----------------------------------------
	BYTE	W96
// 009   ----------------------------------------
	BYTE	W96
// 010   ----------------------------------------
	BYTE	PATT
	 POIN2	DeltaruneTheWorldRevolvingPikmin1211_1_002
// 011   ----------------------------------------
	BYTE	PATT
	 POIN2	DeltaruneTheWorldRevolvingPikmin1211_1_003
// 012   ----------------------------------------
	BYTE		N96     Bn3   v108
	BYTE		N96     Ds4 
	BYTE	W96
// 013   ----------------------------------------
	BYTE	W96
// 014   ----------------------------------------
	BYTE	W96
// 015   ----------------------------------------
	BYTE	W14
	BYTE		PAN     c_v-56
	BYTE	W78
DeltaruneTheWorldRevolvingPikmin1211_1_B1:
	BYTE	W04
// 016   ----------------------------------------
DeltaruneTheWorldRevolvingPikmin1211_1_016:
	BYTE		N12     En2   v108
	BYTE	W12
	BYTE		N06     Bn2   v080
	BYTE		N06     En3 
	BYTE	W12
	BYTE		N12     Bn1   v108
	BYTE	W12
	BYTE		N06     Bn2   v080
	BYTE		N06     En3 
	BYTE	W12
	BYTE		N12     En2   v108
	BYTE	W12
	BYTE		N06     Bn2   v080
	BYTE		N06     En3 
	BYTE	W12
	BYTE		N12     Bn1   v108
	BYTE	W12
	BYTE		N06     Bn2   v080
	BYTE		N06     En3 
	BYTE	W12
	BYTE	PEND
// 017   ----------------------------------------
DeltaruneTheWorldRevolvingPikmin1211_1_017:
	BYTE		N12     Fs2   v108
	BYTE	W12
	BYTE		N06     Cs3   v080
	BYTE		N06     Fs3 
	BYTE	W12
	BYTE		N12     Cs2   v108
	BYTE	W12
	BYTE		N06     Cs3   v080
	BYTE		N06     Fs3 
	BYTE	W12
	BYTE		N12     Fs2   v108
	BYTE	W12
	BYTE		N06     Cs3   v080
	BYTE		N06     Fs3 
	BYTE	W12
	BYTE		N12     Cs2   v108
	BYTE	W12
	BYTE		N06     Cs3   v080
	BYTE		N06     Fs3 
	BYTE	W12
	BYTE	PEND
// 018   ----------------------------------------
DeltaruneTheWorldRevolvingPikmin1211_1_018:
	BYTE		N12     Gs2   v108
	BYTE	W12
	BYTE		N06     Ds3   v080
	BYTE		N06     Gs3 
	BYTE	W12
	BYTE		N12     Ds2   v108
	BYTE	W12
	BYTE		N06     Ds3   v080
	BYTE		N06     Gs3 
	BYTE	W12
	BYTE		N12     Gs2   v108
	BYTE	W12
	BYTE		N06     Ds3   v080
	BYTE		N06     Gs3 
	BYTE	W12
	BYTE		N12     Ds2   v108
	BYTE	W12
	BYTE		N06     Ds3   v080
	BYTE		N06     Gs3 
	BYTE	W12
	BYTE	PEND
// 019   ----------------------------------------
	BYTE		N12     Ds2   v108
	BYTE	W12
	BYTE		N06     As2   v080
	BYTE		N06     Fs3 
	BYTE		N06     As3 
	BYTE	W12
	BYTE		N12     As1   v108
	BYTE	W12
	BYTE		N06     As2   v080
	BYTE		N06     Fs3 
	BYTE		N06     As3 
	BYTE	W12
	BYTE		N12     Ds2   v108
	BYTE	W12
	BYTE		N06     As2   v080
	BYTE		N06     Fs3 
	BYTE		N06     As3 
	BYTE	W12
	BYTE		N12     As1   v108
	BYTE	W12
	BYTE		N06     As2   v080
	BYTE		N06     Fs3 
	BYTE		N06     As3 
	BYTE	W12
// 020   ----------------------------------------
	BYTE	PATT
	 POIN2	DeltaruneTheWorldRevolvingPikmin1211_1_016
// 021   ----------------------------------------
DeltaruneTheWorldRevolvingPikmin1211_1_021:
	BYTE		N12     Bn2   v108
	BYTE	W12
	BYTE		N06     Ds3   v080
	BYTE		N06     Bn3 
	BYTE	W12
	BYTE		N12     Fs2   v108
	BYTE	W12
	BYTE		N06     Ds3   v080
	BYTE		N06     Bn3 
	BYTE	W12
	BYTE		N12     Bn2   v108
	BYTE	W12
	BYTE		N06     Ds3   v080
	BYTE		N06     Bn3 
	BYTE	W12
	BYTE		N12     Fs2   v108
	BYTE	W12
	BYTE		N06     Ds3   v080
	BYTE		N06     Bn3 
	BYTE	W12
	BYTE	PEND
// 022   ----------------------------------------
DeltaruneTheWorldRevolvingPikmin1211_1_022:
	BYTE		N12     Cs2   v108
	BYTE	W12
	BYTE		N06     Gs2   v080
	BYTE		N06     Cs3 
	BYTE	W12
	BYTE		N12     Gs1   v108
	BYTE	W12
	BYTE		N06     Gs2   v080
	BYTE		N06     Cs3 
	BYTE	W12
	BYTE		N12     Cs2   v108
	BYTE	W12
	BYTE		N06     Gs2   v080
	BYTE		N06     Cs3 
	BYTE	W12
	BYTE		N12     Gs1   v108
	BYTE	W12
	BYTE		N06     Gs2   v080
	BYTE		N06     Cs3 
	BYTE	W12
	BYTE	PEND
// 023   ----------------------------------------
DeltaruneTheWorldRevolvingPikmin1211_1_023:
	BYTE		N12     Gn2   v108
	BYTE	W12
	BYTE		N06     Ds3   v080
	BYTE		N06     Gn3 
	BYTE	W12
	BYTE		N12     Ds2   v108
	BYTE	W12
	BYTE		N06     Ds3   v080
	BYTE		N06     Gn3 
	BYTE	W12
	BYTE		N12     Gn2   v108
	BYTE	W12
	BYTE		N06     Ds3   v080
	BYTE		N06     Gn3 
	BYTE	W12
	BYTE		N12     Ds2   v108
	BYTE	W12
	BYTE		N06     Ds3   v080
	BYTE		N06     As3 
	BYTE	W12
	BYTE	PEND
// 024   ----------------------------------------
	BYTE	PATT
	 POIN2	DeltaruneTheWorldRevolvingPikmin1211_1_016
// 025   ----------------------------------------
	BYTE	PATT
	 POIN2	DeltaruneTheWorldRevolvingPikmin1211_1_017
// 026   ----------------------------------------
	BYTE	PATT
	 POIN2	DeltaruneTheWorldRevolvingPikmin1211_1_018
// 027   ----------------------------------------
DeltaruneTheWorldRevolvingPikmin1211_1_027:
	BYTE		N12     Ds2   v108
	BYTE	W12
	BYTE		N06     As2   v080
	BYTE		N06     Fs3 
	BYTE	W12
	BYTE		N12     As1   v108
	BYTE	W12
	BYTE		N06     As2   v080
	BYTE		N06     Fs3 
	BYTE	W12
	BYTE		N12     Ds2   v108
	BYTE	W12
	BYTE		N06     As2   v080
	BYTE		N06     Fs3 
	BYTE	W12
	BYTE		N12     As1   v108
	BYTE	W12
	BYTE		N06     As2   v080
	BYTE		N06     Fs3 
	BYTE	W12
	BYTE	PEND
// 028   ----------------------------------------
	BYTE	PATT
	 POIN2	DeltaruneTheWorldRevolvingPikmin1211_1_016
// 029   ----------------------------------------
	BYTE	PATT
	 POIN2	DeltaruneTheWorldRevolvingPikmin1211_1_021
// 030   ----------------------------------------
	BYTE		N12     Cs2   v108
	BYTE	W12
	BYTE		N06     Gs2   v080
	BYTE		N06     Cs3 
	BYTE		N06     Gs3 
	BYTE	W12
	BYTE		N12     Gs1   v108
	BYTE	W12
	BYTE		N06     Gs2   v080
	BYTE		N06     Cs3 
	BYTE		N06     Gs3 
	BYTE	W12
	BYTE		N12     Cs2   v108
	BYTE	W12
	BYTE		N06     Gs2   v080
	BYTE		N06     Cs3 
	BYTE		N06     Gs3 
	BYTE	W12
	BYTE		N12     Gs1   v108
	BYTE	W12
	BYTE		N06     Gs2   v080
	BYTE		N06     Cs3 
	BYTE		N06     Gs3 
	BYTE	W12
// 031   ----------------------------------------
	BYTE	PATT
	 POIN2	DeltaruneTheWorldRevolvingPikmin1211_1_023
// 032   ----------------------------------------
	BYTE	PATT
	 POIN2	DeltaruneTheWorldRevolvingPikmin1211_1_016
// 033   ----------------------------------------
	BYTE	PATT
	 POIN2	DeltaruneTheWorldRevolvingPikmin1211_1_017
// 034   ----------------------------------------
	BYTE	PATT
	 POIN2	DeltaruneTheWorldRevolvingPikmin1211_1_018
// 035   ----------------------------------------
	BYTE	PATT
	 POIN2	DeltaruneTheWorldRevolvingPikmin1211_1_027
// 036   ----------------------------------------
	BYTE	PATT
	 POIN2	DeltaruneTheWorldRevolvingPikmin1211_1_016
// 037   ----------------------------------------
	BYTE	PATT
	 POIN2	DeltaruneTheWorldRevolvingPikmin1211_1_021
// 038   ----------------------------------------
	BYTE	PATT
	 POIN2	DeltaruneTheWorldRevolvingPikmin1211_1_022
// 039   ----------------------------------------
	BYTE	PATT
	 POIN2	DeltaruneTheWorldRevolvingPikmin1211_1_023
// 040   ----------------------------------------
	BYTE	PATT
	 POIN2	DeltaruneTheWorldRevolvingPikmin1211_1_016
// 041   ----------------------------------------
	BYTE	PATT
	 POIN2	DeltaruneTheWorldRevolvingPikmin1211_1_017
// 042   ----------------------------------------
	BYTE	PATT
	 POIN2	DeltaruneTheWorldRevolvingPikmin1211_1_018
// 043   ----------------------------------------
	BYTE	PATT
	 POIN2	DeltaruneTheWorldRevolvingPikmin1211_1_027
// 044   ----------------------------------------
	BYTE	PATT
	 POIN2	DeltaruneTheWorldRevolvingPikmin1211_1_016
// 045   ----------------------------------------
	BYTE	PATT
	 POIN2	DeltaruneTheWorldRevolvingPikmin1211_1_021
// 046   ----------------------------------------
	BYTE		N12     Cs2   v108
	BYTE	W12
	BYTE		N06     Gs2   v080
	BYTE		N06     En3 
	BYTE	W12
	BYTE		N12     Bn1   v108
	BYTE	W12
	BYTE		N06     Gs2   v080
	BYTE		N06     En3 
	BYTE	W12
	BYTE		N12     As1   v108
	BYTE	W12
	BYTE		N06     Gs2   v080
	BYTE		N06     En3 
	BYTE	W12
	BYTE		N12     Gs1   v108
	BYTE	W12
	BYTE		N06     Gs2   v080
	BYTE		N06     En3 
	BYTE	W12
// 047   ----------------------------------------
	BYTE	W96
// 048   ----------------------------------------
	BYTE	W96
// 049   ----------------------------------------
	BYTE	W96
// 050   ----------------------------------------
	BYTE	W96
// 051   ----------------------------------------
	BYTE	W96
// 052   ----------------------------------------
	BYTE	W96
// 053   ----------------------------------------
	BYTE	W96
// 054   ----------------------------------------
	BYTE	W96
// 055   ----------------------------------------
	BYTE	W96
// 056   ----------------------------------------
	BYTE	W96
// 057   ----------------------------------------
	BYTE	W96
// 058   ----------------------------------------
	BYTE	W96
// 059   ----------------------------------------
	BYTE	W96
// 060   ----------------------------------------
	BYTE	W96
// 061   ----------------------------------------
	BYTE	W96
// 062   ----------------------------------------
	BYTE	W96
// 063   ----------------------------------------
	BYTE	W96
// 064   ----------------------------------------
	BYTE	W96
// 065   ----------------------------------------
	BYTE	W96
// 066   ----------------------------------------
	BYTE	W96
// 067   ----------------------------------------
	BYTE	W96
// 068   ----------------------------------------
	BYTE	W96
// 069   ----------------------------------------
	BYTE	W96
// 070   ----------------------------------------
	BYTE	W96
// 071   ----------------------------------------
	BYTE	W96
// 072   ----------------------------------------
	BYTE	W96
// 073   ----------------------------------------
	BYTE	W96
// 074   ----------------------------------------
	BYTE	W96
// 075   ----------------------------------------
	BYTE	W96
// 076   ----------------------------------------
	BYTE	W96
// 077   ----------------------------------------
	BYTE	W96
// 078   ----------------------------------------
	BYTE	W96
// 079   ----------------------------------------
	BYTE	W96
// 080   ----------------------------------------
	BYTE		BEND    c_v-2
	BYTE	W05
	BYTE	GoTo
	 POIN2	DeltaruneTheWorldRevolvingPikmin1211_1_B1
DeltaruneTheWorldRevolvingPikmin1211_1_B2:
	BYTE	W48
	BYTE		BEND    c_v-2
	BYTE	FINE

//**************** Track 2 (Midi-Chn.2) ****************//

DeltaruneTheWorldRevolvingPikmin1211_2:
	BYTE	KEYSH   DeltaruneTheWorldRevolvingPikmin1211_key+0
// 000   ----------------------------------------
	BYTE		VOICE   1
	BYTE		PAN     c_v+0
	BYTE		VOL     100*DeltaruneTheWorldRevolvingPikmin1211_mvl/mxv
	BYTE		BEND    c_v-2
	BYTE		N12     Gs1   v108
	BYTE	W12
	BYTE		N06     Bn1 
	BYTE	W12
	BYTE		N12     Ds1 
	BYTE	W12
	BYTE		N06     Bn1 
	BYTE	W12
	BYTE		N12     Gs1 
	BYTE	W12
	BYTE		N06     Bn1 
	BYTE	W12
	BYTE		N12     Ds1 
	BYTE	W12
	BYTE		N06     Bn1 
	BYTE	W12
// 001   ----------------------------------------
DeltaruneTheWorldRevolvingPikmin1211_2_001:
	BYTE		N12     Gs1   v108
	BYTE	W12
	BYTE		N06     Bn1 
	BYTE	W12
	BYTE		N12     Ds1 
	BYTE	W12
	BYTE		N06     Bn1 
	BYTE	W12
	BYTE		N12     Gs1 
	BYTE	W12
	BYTE		N06     Bn1 
	BYTE	W12
	BYTE		N12     Ds1 
	BYTE	W12
	BYTE		N06     Bn1 
	BYTE	W12
	BYTE	PEND
// 002   ----------------------------------------
DeltaruneTheWorldRevolvingPikmin1211_2_002:
	BYTE		N12     En1   v108
	BYTE	W12
	BYTE		N06     Gn1 
	BYTE	W12
	BYTE		N12     Bn0 
	BYTE	W12
	BYTE		N06     Gn1 
	BYTE	W12
	BYTE		N12     En1 
	BYTE	W12
	BYTE		N06     Gn1 
	BYTE	W12
	BYTE		N12     Bn0 
	BYTE	W12
	BYTE		N06     Gn1 
	BYTE	W12
	BYTE	PEND
// 003   ----------------------------------------
DeltaruneTheWorldRevolvingPikmin1211_2_003:
	BYTE		N12     En1   v108
	BYTE	W12
	BYTE		N06     Gn1 
	BYTE	W12
	BYTE		N12     Bn0 
	BYTE	W12
	BYTE		N06     Gn1 
	BYTE	W12
	BYTE		N12     Fs1 
	BYTE	W12
	BYTE		N06     Gn1 
	BYTE	W12
	BYTE		N12     Cs1 
	BYTE	W12
	BYTE		N06     Gn1 
	BYTE	W12
	BYTE	PEND
// 004   ----------------------------------------
	BYTE	PATT
	 POIN2	DeltaruneTheWorldRevolvingPikmin1211_2_001
// 005   ----------------------------------------
	BYTE	PATT
	 POIN2	DeltaruneTheWorldRevolvingPikmin1211_2_001
// 006   ----------------------------------------
	BYTE		N96     En1   v108
	BYTE		N36     En2 
	BYTE	W36
	BYTE		N36   
	BYTE	W36
	BYTE		N24     Gs2 
	BYTE	W24
// 007   ----------------------------------------
	BYTE		N48     Fs1 
	BYTE		N48     Cs2 
	BYTE		N48     Fs2 
	BYTE	W48
	BYTE		        Cs2 
	BYTE		N48     Fs2 
	BYTE		N48     Cs3 
	BYTE	W48
// 008   ----------------------------------------
	BYTE	PATT
	 POIN2	DeltaruneTheWorldRevolvingPikmin1211_2_001
// 009   ----------------------------------------
	BYTE	PATT
	 POIN2	DeltaruneTheWorldRevolvingPikmin1211_2_001
// 010   ----------------------------------------
	BYTE	PATT
	 POIN2	DeltaruneTheWorldRevolvingPikmin1211_2_002
// 011   ----------------------------------------
	BYTE	PATT
	 POIN2	DeltaruneTheWorldRevolvingPikmin1211_2_003
// 012   ----------------------------------------
	BYTE	PATT
	 POIN2	DeltaruneTheWorldRevolvingPikmin1211_2_001
// 013   ----------------------------------------
	BYTE	PATT
	 POIN2	DeltaruneTheWorldRevolvingPikmin1211_2_001
// 014   ----------------------------------------
	BYTE		N96     En1   v108
	BYTE		N36     En2 
	BYTE		N96     Bn2 
	BYTE	W36
	BYTE		N36     En2 
	BYTE	W36
	BYTE		N24     Gs2 
	BYTE	W24
// 015   ----------------------------------------
	BYTE		N48     Fs1 
	BYTE		N48     Cs2 
	BYTE		N48     Fs2 
	BYTE		N36     Ds3 
	BYTE	W36
	BYTE		N06     En3 
	BYTE	W06
	BYTE		        Ds3 
	BYTE	W06
	BYTE		N48     Cs2 
	BYTE		N48     Fs2 
	BYTE		N48     Cs3 
	BYTE	W44
DeltaruneTheWorldRevolvingPikmin1211_2_B1:
	BYTE	W04
// 016   ----------------------------------------
DeltaruneTheWorldRevolvingPikmin1211_2_016:
	BYTE		N12     En1   v108
	BYTE	W12
	BYTE		N06     Bn1 
	BYTE		N06     En2 
	BYTE		N06     Bn2 
	BYTE	W12
	BYTE		N12     Bn0 
	BYTE	W12
	BYTE		N06     Bn1 
	BYTE		N06     En2 
	BYTE		N06     Bn2 
	BYTE	W12
	BYTE		N12     En1 
	BYTE	W12
	BYTE		N06     Bn1 
	BYTE		N06     En2 
	BYTE		N06     Bn2 
	BYTE	W12
	BYTE		N12     Bn0 
	BYTE	W12
	BYTE		N06     Bn1 
	BYTE		N06     En2 
	BYTE		N06     Bn2 
	BYTE	W12
	BYTE	PEND
// 017   ----------------------------------------
DeltaruneTheWorldRevolvingPikmin1211_2_017:
	BYTE		N12     Fs1   v108
	BYTE	W12
	BYTE		N06     Cs2 
	BYTE		N06     Fs2 
	BYTE		N06     Cs3 
	BYTE	W12
	BYTE		N12     Cs1 
	BYTE	W12
	BYTE		N06     Cs2 
	BYTE		N06     Fs2 
	BYTE		N06     Cs3 
	BYTE	W12
	BYTE		N12     Fs1 
	BYTE	W12
	BYTE		N06     Cs2 
	BYTE		N06     Fs2 
	BYTE		N06     Cs3 
	BYTE	W12
	BYTE		N12     Cs1 
	BYTE	W12
	BYTE		N06     Cs2 
	BYTE		N06     Fs2 
	BYTE		N06     Cs3 
	BYTE	W12
	BYTE	PEND
// 018   ----------------------------------------
DeltaruneTheWorldRevolvingPikmin1211_2_018:
	BYTE		N12     Gs1   v108
	BYTE	W12
	BYTE		N06     Ds2 
	BYTE		N06     Gs2 
	BYTE		N06     Ds3 
	BYTE	W12
	BYTE		N12     Ds1 
	BYTE	W12
	BYTE		N06     Ds2 
	BYTE		N06     Gs2 
	BYTE		N06     Ds3 
	BYTE	W12
	BYTE		N12     Gs1 
	BYTE	W12
	BYTE		N06     Ds2 
	BYTE		N06     Gs2 
	BYTE		N06     Ds3 
	BYTE	W12
	BYTE		N12     Ds1 
	BYTE	W12
	BYTE		N06     Ds2 
	BYTE		N06     Gs2 
	BYTE		N06     Ds3 
	BYTE	W12
	BYTE	PEND
// 019   ----------------------------------------
DeltaruneTheWorldRevolvingPikmin1211_2_019:
	BYTE		N12     Ds1   v108
	BYTE	W12
	BYTE		N06     As1 
	BYTE		N06     Fs2 
	BYTE		N06     As2 
	BYTE	W12
	BYTE		N12     As0 
	BYTE	W12
	BYTE		N06     As1 
	BYTE		N06     Fs2 
	BYTE		N06     As2 
	BYTE	W12
	BYTE		N12     Ds1 
	BYTE	W12
	BYTE		N06     As1 
	BYTE		N06     Fs2 
	BYTE		N06     As2 
	BYTE	W12
	BYTE		N12     As0 
	BYTE	W12
	BYTE		N06     As1 
	BYTE		N06     Fs2 
	BYTE		N06     As2 
	BYTE	W12
	BYTE	PEND
// 020   ----------------------------------------
	BYTE	PATT
	 POIN2	DeltaruneTheWorldRevolvingPikmin1211_2_016
// 021   ----------------------------------------
DeltaruneTheWorldRevolvingPikmin1211_2_021:
	BYTE		N12     Bn1   v108
	BYTE	W12
	BYTE		N06     Ds2 
	BYTE		N06     Bn2 
	BYTE		N06     Ds3 
	BYTE	W12
	BYTE		N12     Fs1 
	BYTE	W12
	BYTE		N06     Ds2 
	BYTE		N06     Bn2 
	BYTE		N06     Ds3 
	BYTE	W12
	BYTE		N12     Bn1 
	BYTE	W12
	BYTE		N06     Ds2 
	BYTE		N06     Bn2 
	BYTE		N06     Ds3 
	BYTE	W12
	BYTE		N12     Fs1 
	BYTE	W12
	BYTE		N06     Ds2 
	BYTE		N06     Bn2 
	BYTE		N06     Ds3 
	BYTE	W12
	BYTE	PEND
// 022   ----------------------------------------
DeltaruneTheWorldRevolvingPikmin1211_2_022:
	BYTE		N12     Cs1   v108
	BYTE	W12
	BYTE		N06     Gs1 
	BYTE		N06     Cs2 
	BYTE		N06     Gs2 
	BYTE	W12
	BYTE		N12     Gs0 
	BYTE	W12
	BYTE		N06     Gs1 
	BYTE		N06     Cs2 
	BYTE		N06     Gs2 
	BYTE	W12
	BYTE		N12     Cs1 
	BYTE	W12
	BYTE		N06     Gs1 
	BYTE		N06     Cs2 
	BYTE		N06     Gs2 
	BYTE	W12
	BYTE		N12     Gs0 
	BYTE	W12
	BYTE		N06     Gs1 
	BYTE		N06     Cs2 
	BYTE		N06     Gs2 
	BYTE	W12
	BYTE	PEND
// 023   ----------------------------------------
DeltaruneTheWorldRevolvingPikmin1211_2_023:
	BYTE		N12     Gn1   v108
	BYTE	W12
	BYTE		N06     Ds2 
	BYTE		N06     Gn2 
	BYTE		N06     Ds3 
	BYTE	W12
	BYTE		N12     Ds1 
	BYTE	W12
	BYTE		N06     Ds2 
	BYTE		N06     Gn2 
	BYTE		N06     Ds3 
	BYTE	W12
	BYTE		N12     Gn1 
	BYTE	W12
	BYTE		N06     Ds2 
	BYTE		N06     Gn2 
	BYTE		N06     Ds3 
	BYTE	W12
	BYTE		N12     Ds1 
	BYTE	W12
	BYTE		N06     Ds2 
	BYTE		N06     As2 
	BYTE		N06     Cs3 
	BYTE	W12
	BYTE	PEND
// 024   ----------------------------------------
	BYTE	PATT
	 POIN2	DeltaruneTheWorldRevolvingPikmin1211_2_016
// 025   ----------------------------------------
	BYTE	PATT
	 POIN2	DeltaruneTheWorldRevolvingPikmin1211_2_017
// 026   ----------------------------------------
	BYTE	PATT
	 POIN2	DeltaruneTheWorldRevolvingPikmin1211_2_018
// 027   ----------------------------------------
	BYTE	PATT
	 POIN2	DeltaruneTheWorldRevolvingPikmin1211_2_019
// 028   ----------------------------------------
	BYTE	PATT
	 POIN2	DeltaruneTheWorldRevolvingPikmin1211_2_016
// 029   ----------------------------------------
	BYTE	PATT
	 POIN2	DeltaruneTheWorldRevolvingPikmin1211_2_021
// 030   ----------------------------------------
	BYTE	PATT
	 POIN2	DeltaruneTheWorldRevolvingPikmin1211_2_022
// 031   ----------------------------------------
	BYTE	PATT
	 POIN2	DeltaruneTheWorldRevolvingPikmin1211_2_023
// 032   ----------------------------------------
	BYTE	PATT
	 POIN2	DeltaruneTheWorldRevolvingPikmin1211_2_016
// 033   ----------------------------------------
	BYTE	PATT
	 POIN2	DeltaruneTheWorldRevolvingPikmin1211_2_017
// 034   ----------------------------------------
	BYTE	PATT
	 POIN2	DeltaruneTheWorldRevolvingPikmin1211_2_018
// 035   ----------------------------------------
	BYTE	PATT
	 POIN2	DeltaruneTheWorldRevolvingPikmin1211_2_019
// 036   ----------------------------------------
	BYTE	PATT
	 POIN2	DeltaruneTheWorldRevolvingPikmin1211_2_016
// 037   ----------------------------------------
	BYTE	PATT
	 POIN2	DeltaruneTheWorldRevolvingPikmin1211_2_021
// 038   ----------------------------------------
	BYTE	PATT
	 POIN2	DeltaruneTheWorldRevolvingPikmin1211_2_022
// 039   ----------------------------------------
	BYTE	PATT
	 POIN2	DeltaruneTheWorldRevolvingPikmin1211_2_023
// 040   ----------------------------------------
	BYTE	PATT
	 POIN2	DeltaruneTheWorldRevolvingPikmin1211_2_016
// 041   ----------------------------------------
	BYTE	PATT
	 POIN2	DeltaruneTheWorldRevolvingPikmin1211_2_017
// 042   ----------------------------------------
	BYTE	PATT
	 POIN2	DeltaruneTheWorldRevolvingPikmin1211_2_018
// 043   ----------------------------------------
	BYTE	PATT
	 POIN2	DeltaruneTheWorldRevolvingPikmin1211_2_019
// 044   ----------------------------------------
	BYTE	PATT
	 POIN2	DeltaruneTheWorldRevolvingPikmin1211_2_016
// 045   ----------------------------------------
	BYTE	PATT
	 POIN2	DeltaruneTheWorldRevolvingPikmin1211_2_021
// 046   ----------------------------------------
	BYTE		N12     Cs1   v108
	BYTE	W12
	BYTE		N06     Gs1 
	BYTE		N06     En2 
	BYTE		N06     Gs2 
	BYTE	W12
	BYTE		N12     Bn0 
	BYTE	W12
	BYTE		N06     Gs1 
	BYTE		N06     En2 
	BYTE		N06     Gs2 
	BYTE	W12
	BYTE		N12     As0 
	BYTE	W12
	BYTE		N06     Gs1 
	BYTE		N06     En2 
	BYTE		N06     Gs2 
	BYTE	W12
	BYTE		N12     Gs0 
	BYTE	W12
	BYTE		N06     Gs1 
	BYTE		N06     En2 
	BYTE		N06     Gs2 
	BYTE	W12
// 047   ----------------------------------------
	BYTE		N48     Gn0 
	BYTE		N48     Ds1 
	BYTE		N48     Gn1 
	BYTE	W48
	BYTE		N48   
	BYTE		N48     Ds2 
	BYTE		N48     Gn2 
	BYTE	W48
// 048   ----------------------------------------
DeltaruneTheWorldRevolvingPikmin1211_2_048:
	BYTE		N12     En1   v108
	BYTE	W12
	BYTE		N06     Bn1 
	BYTE		N06     Gn2 
	BYTE		N06     Bn2 
	BYTE	W12
	BYTE		N12     Bn0 
	BYTE	W12
	BYTE		N06     Bn1 
	BYTE		N06     Gn2 
	BYTE		N06     Bn2 
	BYTE	W12
	BYTE		N12     En1 
	BYTE	W12
	BYTE		N06     Bn1 
	BYTE		N06     Gn2 
	BYTE		N06     Bn2 
	BYTE	W12
	BYTE		N12     Bn0 
	BYTE	W12
	BYTE		N06     Bn1 
	BYTE		N06     Gn2 
	BYTE		N06     Bn2 
	BYTE	W12
	BYTE	PEND
// 049   ----------------------------------------
	BYTE	PATT
	 POIN2	DeltaruneTheWorldRevolvingPikmin1211_2_048
// 050   ----------------------------------------
DeltaruneTheWorldRevolvingPikmin1211_2_050:
	BYTE		N12     Bn1   v108
	BYTE	W12
	BYTE		N06   
	BYTE		N06     Fs2 
	BYTE		N06     Bn2 
	BYTE	W12
	BYTE		N12     Fs1 
	BYTE	W12
	BYTE		N06     Bn1 
	BYTE		N06     Fs2 
	BYTE		N06     Bn2 
	BYTE	W12
	BYTE		N12     Bn1 
	BYTE	W12
	BYTE		N06   
	BYTE		N06     Fs2 
	BYTE		N06     Bn2 
	BYTE	W12
	BYTE		N12     Fs1 
	BYTE	W12
	BYTE		N06     Bn1 
	BYTE		N06     Fs2 
	BYTE		N06     Bn2 
	BYTE	W12
	BYTE	PEND
// 051   ----------------------------------------
DeltaruneTheWorldRevolvingPikmin1211_2_051:
	BYTE		N12     Fs1   v108
	BYTE	W12
	BYTE		N06     As1 
	BYTE		N06     Fs2 
	BYTE		N06     As2 
	BYTE	W12
	BYTE		N12     Cs1 
	BYTE	W12
	BYTE		N06     As1 
	BYTE		N06     Fs2 
	BYTE		N06     As2 
	BYTE	W12
	BYTE		N12     Fs1 
	BYTE	W12
	BYTE		N06     As1 
	BYTE		N06     Fs2 
	BYTE		N06     As2 
	BYTE	W12
	BYTE		N12     Cs1 
	BYTE	W12
	BYTE		N06     As1 
	BYTE		N06     Fs2 
	BYTE		N06     As2 
	BYTE	W12
	BYTE	PEND
// 052   ----------------------------------------
	BYTE	PATT
	 POIN2	DeltaruneTheWorldRevolvingPikmin1211_2_048
// 053   ----------------------------------------
	BYTE	PATT
	 POIN2	DeltaruneTheWorldRevolvingPikmin1211_2_048
// 054   ----------------------------------------
	BYTE	PATT
	 POIN2	DeltaruneTheWorldRevolvingPikmin1211_2_050
// 055   ----------------------------------------
	BYTE	PATT
	 POIN2	DeltaruneTheWorldRevolvingPikmin1211_2_051
// 056   ----------------------------------------
	BYTE	PATT
	 POIN2	DeltaruneTheWorldRevolvingPikmin1211_2_048
// 057   ----------------------------------------
	BYTE	PATT
	 POIN2	DeltaruneTheWorldRevolvingPikmin1211_2_048
// 058   ----------------------------------------
	BYTE	PATT
	 POIN2	DeltaruneTheWorldRevolvingPikmin1211_2_050
// 059   ----------------------------------------
	BYTE	PATT
	 POIN2	DeltaruneTheWorldRevolvingPikmin1211_2_051
// 060   ----------------------------------------
	BYTE	PATT
	 POIN2	DeltaruneTheWorldRevolvingPikmin1211_2_048
// 061   ----------------------------------------
	BYTE	PATT
	 POIN2	DeltaruneTheWorldRevolvingPikmin1211_2_048
// 062   ----------------------------------------
	BYTE	PATT
	 POIN2	DeltaruneTheWorldRevolvingPikmin1211_2_050
// 063   ----------------------------------------
	BYTE		N12     Fs1   v108
	BYTE	W12
	BYTE		N06     As1 
	BYTE		N06     Fs2 
	BYTE		N06     As2 
	BYTE	W12
	BYTE		N12     Gs1 
	BYTE	W12
	BYTE		N06     As1 
	BYTE		N06     Fs2 
	BYTE		N06     As2 
	BYTE	W12
	BYTE		N12     As1 
	BYTE	W12
	BYTE		N06   
	BYTE		N06     Fs2 
	BYTE		N06     As2 
	BYTE	W12
	BYTE		N12     Cs2 
	BYTE	W12
	BYTE		N06     As1 
	BYTE		N06     Fs2 
	BYTE		N06     As2 
	BYTE	W12
// 064   ----------------------------------------
DeltaruneTheWorldRevolvingPikmin1211_2_064:
	BYTE		N12     En1   v108
	BYTE	W12
	BYTE		N06     Bn1 
	BYTE		N06     Gs2 
	BYTE		N06     Bn2 
	BYTE	W12
	BYTE		N12     Bn0 
	BYTE	W12
	BYTE		N06     Bn1 
	BYTE		N06     Gs2 
	BYTE		N06     Bn2 
	BYTE	W12
	BYTE		N12     En1 
	BYTE	W12
	BYTE		N06     Bn1 
	BYTE		N06     Gs2 
	BYTE		N06     Bn2 
	BYTE	W12
	BYTE		N12     Bn0 
	BYTE	W12
	BYTE		N06     Bn1 
	BYTE		N06     Gs2 
	BYTE		N06     Bn2 
	BYTE	W12
	BYTE	PEND
// 065   ----------------------------------------
DeltaruneTheWorldRevolvingPikmin1211_2_065:
	BYTE		N12     Fs1   v108
	BYTE	W12
	BYTE		N06     Cs2 
	BYTE		N06     As2 
	BYTE		N06     Cs3 
	BYTE	W12
	BYTE		N12     Cs1 
	BYTE	W12
	BYTE		N06     Cs2 
	BYTE		N06     As2 
	BYTE		N06     Cs3 
	BYTE	W12
	BYTE		N12     Fs1 
	BYTE	W12
	BYTE		N06     Cs2 
	BYTE		N06     As2 
	BYTE		N06     Cs3 
	BYTE	W12
	BYTE		N12     Cs1 
	BYTE	W12
	BYTE		N06     Cs2 
	BYTE		N06     As2 
	BYTE		N06     Cs3 
	BYTE	W12
	BYTE	PEND
// 066   ----------------------------------------
DeltaruneTheWorldRevolvingPikmin1211_2_066:
	BYTE		N12     Gs1   v108
	BYTE	W12
	BYTE		N06     Ds2 
	BYTE		N06     Bn2 
	BYTE		N06     Ds3 
	BYTE	W12
	BYTE		N12     Ds1 
	BYTE	W12
	BYTE		N06     Ds2 
	BYTE		N06     Bn2 
	BYTE		N06     Ds3 
	BYTE	W12
	BYTE		N12     Gs1 
	BYTE	W12
	BYTE		N06     Ds2 
	BYTE		N06     Bn2 
	BYTE		N06     Ds3 
	BYTE	W12
	BYTE		N12     Ds1 
	BYTE	W12
	BYTE		N06     Ds2 
	BYTE		N06     Bn2 
	BYTE		N06     Ds3 
	BYTE	W12
	BYTE	PEND
// 067   ----------------------------------------
	BYTE	PATT
	 POIN2	DeltaruneTheWorldRevolvingPikmin1211_2_065
// 068   ----------------------------------------
	BYTE	PATT
	 POIN2	DeltaruneTheWorldRevolvingPikmin1211_2_064
// 069   ----------------------------------------
	BYTE	PATT
	 POIN2	DeltaruneTheWorldRevolvingPikmin1211_2_065
// 070   ----------------------------------------
	BYTE	PATT
	 POIN2	DeltaruneTheWorldRevolvingPikmin1211_2_066
// 071   ----------------------------------------
	BYTE	PATT
	 POIN2	DeltaruneTheWorldRevolvingPikmin1211_2_065
// 072   ----------------------------------------
	BYTE	PATT
	 POIN2	DeltaruneTheWorldRevolvingPikmin1211_2_064
// 073   ----------------------------------------
	BYTE	PATT
	 POIN2	DeltaruneTheWorldRevolvingPikmin1211_2_065
// 074   ----------------------------------------
	BYTE	PATT
	 POIN2	DeltaruneTheWorldRevolvingPikmin1211_2_066
// 075   ----------------------------------------
	BYTE	PATT
	 POIN2	DeltaruneTheWorldRevolvingPikmin1211_2_065
// 076   ----------------------------------------
	BYTE	PATT
	 POIN2	DeltaruneTheWorldRevolvingPikmin1211_2_064
// 077   ----------------------------------------
	BYTE	PATT
	 POIN2	DeltaruneTheWorldRevolvingPikmin1211_2_065
// 078   ----------------------------------------
	BYTE	PATT
	 POIN2	DeltaruneTheWorldRevolvingPikmin1211_2_066
// 079   ----------------------------------------
	BYTE		N48     Cs1   v108
	BYTE		N48     Fs1 
	BYTE	W48
	BYTE		N44     Ds1 
	BYTE		N44     Gn1 
	BYTE	W48
// 080   ----------------------------------------
	BYTE		BEND    c_v-2
	BYTE	W05
	BYTE	GoTo
	 POIN2	DeltaruneTheWorldRevolvingPikmin1211_2_B1
DeltaruneTheWorldRevolvingPikmin1211_2_B2:
	BYTE	W48
	BYTE		BEND    c_v-2
	BYTE	FINE

//**************** Track 3 (Midi-Chn.3) ****************//

DeltaruneTheWorldRevolvingPikmin1211_3:
	BYTE	KEYSH   DeltaruneTheWorldRevolvingPikmin1211_key+0
// 000   ----------------------------------------
	BYTE		VOICE   76
	BYTE		PAN     c_v-21
	BYTE		VOL     84*DeltaruneTheWorldRevolvingPikmin1211_mvl/mxv
	BYTE		BEND    c_v-2
	BYTE	W12
	BYTE		N06     Bn3   v088
	BYTE		N06     Ds4   v096
	BYTE		N06     Ds5   v068
	BYTE	W12
	BYTE		        As3   v088
	BYTE		N06     Dn4   v096
	BYTE		N06     Dn5   v068
	BYTE	W12
	BYTE		        Bn3   v088
	BYTE		N06     Ds4   v096
	BYTE		N06     Ds5   v068
	BYTE	W12
	BYTE		        As3   v088
	BYTE		N06     Dn4   v096
	BYTE		N06     Dn5   v068
	BYTE	W12
	BYTE		        Bn3   v088
	BYTE		N06     Ds4   v096
	BYTE		N06     Ds5   v068
	BYTE	W24
	BYTE		        Bn3   v088
	BYTE		N06     Ds4   v096
	BYTE		N06     Ds5   v068
	BYTE	W12
// 001   ----------------------------------------
DeltaruneTheWorldRevolvingPikmin1211_3_001:
	BYTE	W12
	BYTE		N06     Bn3   v088
	BYTE		N06     Ds4   v096
	BYTE		N06     Ds5   v068
	BYTE	W12
	BYTE		        As3   v088
	BYTE		N06     Dn4   v096
	BYTE		N06     Dn5   v068
	BYTE	W12
	BYTE		        Bn3   v088
	BYTE		N06     Ds4   v096
	BYTE		N06     Ds5   v068
	BYTE	W12
	BYTE		        As3   v088
	BYTE		N06     Dn4   v096
	BYTE		N06     Dn5   v068
	BYTE	W12
	BYTE		        Bn3   v088
	BYTE		N06     Ds4   v096
	BYTE		N06     Ds5   v068
	BYTE	W36
	BYTE	PEND
// 002   ----------------------------------------
	BYTE	W96
// 003   ----------------------------------------
	BYTE	W96
// 004   ----------------------------------------
DeltaruneTheWorldRevolvingPikmin1211_3_004:
	BYTE	W12
	BYTE		N06     Bn3   v088
	BYTE		N06     Ds4   v096
	BYTE		N06     Ds5   v068
	BYTE	W12
	BYTE		        As3   v088
	BYTE		N06     Dn4   v096
	BYTE		N06     Dn5   v068
	BYTE	W12
	BYTE		        Bn3   v088
	BYTE		N06     Ds4   v096
	BYTE		N06     Ds5   v068
	BYTE	W12
	BYTE		        As3   v088
	BYTE		N06     Dn4   v096
	BYTE		N06     Dn5   v068
	BYTE	W12
	BYTE		        Bn3   v088
	BYTE		N06     Ds4   v096
	BYTE		N06     Ds5   v068
	BYTE	W24
	BYTE		        Bn3   v088
	BYTE		N06     Ds4   v096
	BYTE		N06     Ds5   v068
	BYTE	W12
	BYTE	PEND
// 005   ----------------------------------------
	BYTE	PATT
	 POIN2	DeltaruneTheWorldRevolvingPikmin1211_3_001
// 006   ----------------------------------------
	BYTE	W96
// 007   ----------------------------------------
	BYTE	W96
// 008   ----------------------------------------
	BYTE	PATT
	 POIN2	DeltaruneTheWorldRevolvingPikmin1211_3_004
// 009   ----------------------------------------
	BYTE	PATT
	 POIN2	DeltaruneTheWorldRevolvingPikmin1211_3_001
// 010   ----------------------------------------
	BYTE	W96
// 011   ----------------------------------------
	BYTE	W96
// 012   ----------------------------------------
	BYTE	PATT
	 POIN2	DeltaruneTheWorldRevolvingPikmin1211_3_004
// 013   ----------------------------------------
	BYTE	PATT
	 POIN2	DeltaruneTheWorldRevolvingPikmin1211_3_001
// 014   ----------------------------------------
	BYTE	W96
// 015   ----------------------------------------
	BYTE	W48
	BYTE	W02
	BYTE		VOL     124*DeltaruneTheWorldRevolvingPikmin1211_mvl/mxv
	BYTE	W42
DeltaruneTheWorldRevolvingPikmin1211_3_B1:
	BYTE	W04
// 016   ----------------------------------------
	BYTE		N84     Bn3   v096
	BYTE	W96
// 017   ----------------------------------------
DeltaruneTheWorldRevolvingPikmin1211_3_017:
	BYTE	W12
	BYTE		N12     Bn3   v096
	BYTE	W12
	BYTE		        As3 
	BYTE	W12
	BYTE		        Bn3 
	BYTE	W12
	BYTE		N24     Fs4 
	BYTE	W24
	BYTE		N12     As3 
	BYTE	W12
	BYTE		N96     Bn3 
	BYTE	W12
	BYTE	PEND
// 018   ----------------------------------------
	BYTE	W96
// 019   ----------------------------------------
DeltaruneTheWorldRevolvingPikmin1211_3_019:
	BYTE	W12
	BYTE		N12     Bn3   v096
	BYTE	W12
	BYTE		        As3 
	BYTE	W12
	BYTE		        Gs3 
	BYTE	W12
	BYTE		N18     Fs3 
	BYTE	W24
	BYTE		        As3 
	BYTE	W24
	BYTE	PEND
// 020   ----------------------------------------
DeltaruneTheWorldRevolvingPikmin1211_3_020:
	BYTE		N12     Bn3   v096
	BYTE	W12
	BYTE		        As3 
	BYTE	W12
	BYTE		        Bn3 
	BYTE	W12
	BYTE		N30     Fs4 
	BYTE	W36
	BYTE		N12   
	BYTE	W12
	BYTE		        Gs4 
	BYTE	W12
	BYTE	PEND
// 021   ----------------------------------------
DeltaruneTheWorldRevolvingPikmin1211_3_021:
	BYTE		N18     Fs4   v096
	BYTE	W24
	BYTE		N12     En4 
	BYTE	W12
	BYTE		N30     Ds4 
	BYTE	W36
	BYTE		N24     Bn3 
	BYTE	W24
	BYTE	PEND
// 022   ----------------------------------------
DeltaruneTheWorldRevolvingPikmin1211_3_022:
	BYTE		N30     Cs4   v096
	BYTE	W36
	BYTE		N36     Gs3 
	BYTE	W36
	BYTE		N24     Cs4 
	BYTE	W24
	BYTE	PEND
// 023   ----------------------------------------
DeltaruneTheWorldRevolvingPikmin1211_3_023:
	BYTE		N24     Ds4   v096
	BYTE	W36
	BYTE		N06     En4 
	BYTE	W06
	BYTE		        Ds4 
	BYTE	W06
	BYTE		N42     Cs4 
	BYTE	W48
	BYTE	PEND
// 024   ----------------------------------------
	BYTE		N84     Bn3 
	BYTE	W96
// 025   ----------------------------------------
	BYTE	PATT
	 POIN2	DeltaruneTheWorldRevolvingPikmin1211_3_017
// 026   ----------------------------------------
	BYTE	W96
// 027   ----------------------------------------
	BYTE	PATT
	 POIN2	DeltaruneTheWorldRevolvingPikmin1211_3_019
// 028   ----------------------------------------
	BYTE	PATT
	 POIN2	DeltaruneTheWorldRevolvingPikmin1211_3_020
// 029   ----------------------------------------
	BYTE	PATT
	 POIN2	DeltaruneTheWorldRevolvingPikmin1211_3_021
// 030   ----------------------------------------
	BYTE	PATT
	 POIN2	DeltaruneTheWorldRevolvingPikmin1211_3_022
// 031   ----------------------------------------
	BYTE	PATT
	 POIN2	DeltaruneTheWorldRevolvingPikmin1211_3_023
// 032   ----------------------------------------
DeltaruneTheWorldRevolvingPikmin1211_3_032:
	BYTE	W12
	BYTE		N12     Bn3   v096
	BYTE	W12
	BYTE		        As3 
	BYTE	W12
	BYTE		        Bn3 
	BYTE	W12
	BYTE		        Fs4 
	BYTE	W12
	BYTE		        Bn3 
	BYTE	W12
	BYTE		        As3 
	BYTE	W12
	BYTE		        Bn3 
	BYTE	W12
	BYTE	PEND
// 033   ----------------------------------------
DeltaruneTheWorldRevolvingPikmin1211_3_033:
	BYTE		N12     Gs4   v096
	BYTE	W12
	BYTE		        Bn3 
	BYTE	W12
	BYTE		        As3 
	BYTE	W12
	BYTE		        Bn3 
	BYTE	W12
	BYTE		        As4 
	BYTE	W12
	BYTE		        Bn3 
	BYTE	W12
	BYTE		        As3 
	BYTE	W12
	BYTE		        Bn3 
	BYTE	W12
	BYTE	PEND
// 034   ----------------------------------------
DeltaruneTheWorldRevolvingPikmin1211_3_034:
	BYTE		N12     Bn4   v096
	BYTE	W12
	BYTE		N03     As4 
	BYTE	W06
	BYTE		N03   
	BYTE		N03     Bn4 
	BYTE	W06
	BYTE		N12     Gs4 
	BYTE	W12
	BYTE		        Fs4 
	BYTE	W12
	BYTE		        Ds4 
	BYTE	W12
	BYTE		        Bn3 
	BYTE	W12
	BYTE		        As3 
	BYTE	W12
	BYTE		        Bn3 
	BYTE	W12
	BYTE	PEND
// 035   ----------------------------------------
DeltaruneTheWorldRevolvingPikmin1211_3_035:
	BYTE		N12     Fn4   v096
	BYTE	W12
	BYTE		        As3 
	BYTE	W12
	BYTE		        Fs3 
	BYTE	W12
	BYTE		        As3 
	BYTE	W12
	BYTE		        Fs4 
	BYTE	W12
	BYTE		        As3 
	BYTE	W12
	BYTE		        Fs3 
	BYTE	W12
	BYTE		        As3 
	BYTE	W12
	BYTE	PEND
// 036   ----------------------------------------
DeltaruneTheWorldRevolvingPikmin1211_3_036:
	BYTE		N12     Gs4   v096
	BYTE	W12
	BYTE		N03     Fs4 
	BYTE	W06
	BYTE		N03   
	BYTE		N03     Gs4 
	BYTE	W06
	BYTE		N12     En4 
	BYTE	W12
	BYTE		        Ds4 
	BYTE	W12
	BYTE		        Cs4 
	BYTE	W12
	BYTE		        Bn3 
	BYTE	W12
	BYTE		        Cs4 
	BYTE	W12
	BYTE		        En4 
	BYTE	W12
	BYTE	PEND
// 037   ----------------------------------------
DeltaruneTheWorldRevolvingPikmin1211_3_037:
	BYTE		N12     Ds4   v096
	BYTE	W12
	BYTE		        Bn3 
	BYTE	W12
	BYTE		        Fs3 
	BYTE	W12
	BYTE		        Bn3 
	BYTE	W12
	BYTE		N24     Ds4 
	BYTE	W36
	BYTE		N12     Bn3 
	BYTE	W12
	BYTE	PEND
// 038   ----------------------------------------
DeltaruneTheWorldRevolvingPikmin1211_3_038:
	BYTE		N12     Cs4   v096
	BYTE	W12
	BYTE		        Gs3 
	BYTE	W12
	BYTE		        En3 
	BYTE	W12
	BYTE		        Gs3 
	BYTE	W12
	BYTE		N21     Cs4 
	BYTE	W24
	BYTE		        En4 
	BYTE	W24
	BYTE	PEND
// 039   ----------------------------------------
	BYTE		N30     Ds4 
	BYTE	W36
	BYTE		N06     En4 
	BYTE	W06
	BYTE		        Ds4 
	BYTE	W06
	BYTE		N42     Cs4 
	BYTE	W48
// 040   ----------------------------------------
	BYTE	PATT
	 POIN2	DeltaruneTheWorldRevolvingPikmin1211_3_032
// 041   ----------------------------------------
	BYTE	PATT
	 POIN2	DeltaruneTheWorldRevolvingPikmin1211_3_033
// 042   ----------------------------------------
	BYTE	PATT
	 POIN2	DeltaruneTheWorldRevolvingPikmin1211_3_034
// 043   ----------------------------------------
	BYTE	PATT
	 POIN2	DeltaruneTheWorldRevolvingPikmin1211_3_035
// 044   ----------------------------------------
	BYTE	PATT
	 POIN2	DeltaruneTheWorldRevolvingPikmin1211_3_036
// 045   ----------------------------------------
	BYTE	PATT
	 POIN2	DeltaruneTheWorldRevolvingPikmin1211_3_037
// 046   ----------------------------------------
	BYTE	PATT
	 POIN2	DeltaruneTheWorldRevolvingPikmin1211_3_038
// 047   ----------------------------------------
	BYTE		N30     Bn3   v080
	BYTE		N30     Ds4   v096
	BYTE	W36
	BYTE		N06     En4 
	BYTE	W06
	BYTE		        Ds4 
	BYTE	W06
	BYTE		N42     As3   v080
	BYTE		N42     Cs4   v096
	BYTE	W48
// 048   ----------------------------------------
	BYTE	W96
// 049   ----------------------------------------
	BYTE	W96
// 050   ----------------------------------------
	BYTE	W96
// 051   ----------------------------------------
	BYTE	W96
// 052   ----------------------------------------
	BYTE	W96
// 053   ----------------------------------------
	BYTE	W96
// 054   ----------------------------------------
	BYTE	W96
// 055   ----------------------------------------
	BYTE	W96
// 056   ----------------------------------------
	BYTE	W96
// 057   ----------------------------------------
	BYTE	W96
// 058   ----------------------------------------
	BYTE	W96
// 059   ----------------------------------------
	BYTE	W96
// 060   ----------------------------------------
	BYTE	W96
// 061   ----------------------------------------
	BYTE	W96
// 062   ----------------------------------------
	BYTE	W96
// 063   ----------------------------------------
	BYTE	W96
// 064   ----------------------------------------
	BYTE	W96
// 065   ----------------------------------------
	BYTE	W96
// 066   ----------------------------------------
	BYTE	W96
// 067   ----------------------------------------
	BYTE	W96
// 068   ----------------------------------------
	BYTE	W96
// 069   ----------------------------------------
	BYTE	W96
// 070   ----------------------------------------
	BYTE	W96
// 071   ----------------------------------------
	BYTE	W96
// 072   ----------------------------------------
	BYTE	W96
// 073   ----------------------------------------
	BYTE	W96
// 074   ----------------------------------------
	BYTE	W96
// 075   ----------------------------------------
	BYTE	W96
// 076   ----------------------------------------
	BYTE	W96
// 077   ----------------------------------------
	BYTE	W96
// 078   ----------------------------------------
	BYTE	W96
// 079   ----------------------------------------
	BYTE		N24     Ds4   v092
	BYTE	W24
	BYTE		        En4 
	BYTE	W24
	BYTE		        Cs4 
	BYTE	W24
	BYTE		N23     Bn3 
	BYTE	W24
// 080   ----------------------------------------
	BYTE		BEND    c_v-2
	BYTE	W05
	BYTE	GoTo
	 POIN2	DeltaruneTheWorldRevolvingPikmin1211_3_B1
DeltaruneTheWorldRevolvingPikmin1211_3_B2:
	BYTE	W48
	BYTE		BEND    c_v-2
	BYTE	FINE

//**************** Track 4 (Midi-Chn.4) ****************//

DeltaruneTheWorldRevolvingPikmin1211_4:
	BYTE	KEYSH   DeltaruneTheWorldRevolvingPikmin1211_key+0
// 000   ----------------------------------------
	BYTE		VOICE   34
	BYTE		PAN     c_v+55
	BYTE		VOL     114*DeltaruneTheWorldRevolvingPikmin1211_mvl/mxv
	BYTE		BEND    c_v-2
	BYTE		N12     Gs1   v088
	BYTE	W24
	BYTE		        Ds1 
	BYTE	W24
	BYTE		        Gs1 
	BYTE	W24
	BYTE		        Ds1 
	BYTE	W24
// 001   ----------------------------------------
DeltaruneTheWorldRevolvingPikmin1211_4_001:
	BYTE		N12     Gs1   v088
	BYTE	W24
	BYTE		        Ds1 
	BYTE	W24
	BYTE		        Gs1 
	BYTE	W24
	BYTE		        Ds1 
	BYTE	W24
	BYTE	PEND
// 002   ----------------------------------------
DeltaruneTheWorldRevolvingPikmin1211_4_002:
	BYTE		N12     En1   v088
	BYTE	W24
	BYTE		        Bn0 
	BYTE	W24
	BYTE		        En1 
	BYTE	W24
	BYTE		        Bn0 
	BYTE	W24
	BYTE	PEND
// 003   ----------------------------------------
DeltaruneTheWorldRevolvingPikmin1211_4_003:
	BYTE		N12     En1   v088
	BYTE	W24
	BYTE		        Bn0 
	BYTE	W24
	BYTE		        Fs1 
	BYTE	W24
	BYTE		        Cs1 
	BYTE	W24
	BYTE	PEND
// 004   ----------------------------------------
	BYTE	PATT
	 POIN2	DeltaruneTheWorldRevolvingPikmin1211_4_001
// 005   ----------------------------------------
	BYTE	PATT
	 POIN2	DeltaruneTheWorldRevolvingPikmin1211_4_001
// 006   ----------------------------------------
	BYTE		N96     En1   v088
	BYTE	W96
// 007   ----------------------------------------
	BYTE		N48     Fs1 
	BYTE	W48
	BYTE		        Cs2 
	BYTE	W48
// 008   ----------------------------------------
	BYTE	PATT
	 POIN2	DeltaruneTheWorldRevolvingPikmin1211_4_001
// 009   ----------------------------------------
	BYTE	PATT
	 POIN2	DeltaruneTheWorldRevolvingPikmin1211_4_001
// 010   ----------------------------------------
	BYTE	PATT
	 POIN2	DeltaruneTheWorldRevolvingPikmin1211_4_002
// 011   ----------------------------------------
	BYTE	PATT
	 POIN2	DeltaruneTheWorldRevolvingPikmin1211_4_003
// 012   ----------------------------------------
	BYTE	PATT
	 POIN2	DeltaruneTheWorldRevolvingPikmin1211_4_001
// 013   ----------------------------------------
	BYTE	PATT
	 POIN2	DeltaruneTheWorldRevolvingPikmin1211_4_001
// 014   ----------------------------------------
	BYTE		N96     En1   v088
	BYTE	W96
// 015   ----------------------------------------
	BYTE		N48     Fs1 
	BYTE	W48
	BYTE		        Cs2 
	BYTE	W44
DeltaruneTheWorldRevolvingPikmin1211_4_B1:
	BYTE	W04
// 016   ----------------------------------------
	BYTE	PATT
	 POIN2	DeltaruneTheWorldRevolvingPikmin1211_4_002
// 017   ----------------------------------------
DeltaruneTheWorldRevolvingPikmin1211_4_017:
	BYTE		N12     Fs1   v088
	BYTE	W24
	BYTE		        Cs1 
	BYTE	W24
	BYTE		        Fs1 
	BYTE	W24
	BYTE		        Cs1 
	BYTE	W24
	BYTE	PEND
// 018   ----------------------------------------
	BYTE	PATT
	 POIN2	DeltaruneTheWorldRevolvingPikmin1211_4_001
// 019   ----------------------------------------
DeltaruneTheWorldRevolvingPikmin1211_4_019:
	BYTE		N12     Ds1   v088
	BYTE	W24
	BYTE		        As0 
	BYTE	W24
	BYTE		        Ds1 
	BYTE	W24
	BYTE		        As0 
	BYTE	W24
	BYTE	PEND
// 020   ----------------------------------------
	BYTE	PATT
	 POIN2	DeltaruneTheWorldRevolvingPikmin1211_4_002
// 021   ----------------------------------------
DeltaruneTheWorldRevolvingPikmin1211_4_021:
	BYTE		N12     Bn1   v088
	BYTE	W24
	BYTE		        Fs1 
	BYTE	W24
	BYTE		        Bn1 
	BYTE	W24
	BYTE		        Fs1 
	BYTE	W24
	BYTE	PEND
// 022   ----------------------------------------
DeltaruneTheWorldRevolvingPikmin1211_4_022:
	BYTE		N12     Cs1   v088
	BYTE	W24
	BYTE		        Gs0 
	BYTE	W24
	BYTE		        Cs1 
	BYTE	W24
	BYTE		        Gs0 
	BYTE	W24
	BYTE	PEND
// 023   ----------------------------------------
DeltaruneTheWorldRevolvingPikmin1211_4_023:
	BYTE		N12     Gn1   v088
	BYTE	W24
	BYTE		        Ds1 
	BYTE	W24
	BYTE		        Gn1 
	BYTE	W24
	BYTE		        Ds1 
	BYTE	W24
	BYTE	PEND
// 024   ----------------------------------------
	BYTE	PATT
	 POIN2	DeltaruneTheWorldRevolvingPikmin1211_4_002
// 025   ----------------------------------------
	BYTE	PATT
	 POIN2	DeltaruneTheWorldRevolvingPikmin1211_4_017
// 026   ----------------------------------------
	BYTE	PATT
	 POIN2	DeltaruneTheWorldRevolvingPikmin1211_4_001
// 027   ----------------------------------------
	BYTE	PATT
	 POIN2	DeltaruneTheWorldRevolvingPikmin1211_4_019
// 028   ----------------------------------------
	BYTE	PATT
	 POIN2	DeltaruneTheWorldRevolvingPikmin1211_4_002
// 029   ----------------------------------------
	BYTE	PATT
	 POIN2	DeltaruneTheWorldRevolvingPikmin1211_4_021
// 030   ----------------------------------------
	BYTE	PATT
	 POIN2	DeltaruneTheWorldRevolvingPikmin1211_4_022
// 031   ----------------------------------------
	BYTE	PATT
	 POIN2	DeltaruneTheWorldRevolvingPikmin1211_4_023
// 032   ----------------------------------------
	BYTE	PATT
	 POIN2	DeltaruneTheWorldRevolvingPikmin1211_4_002
// 033   ----------------------------------------
	BYTE	PATT
	 POIN2	DeltaruneTheWorldRevolvingPikmin1211_4_017
// 034   ----------------------------------------
	BYTE	PATT
	 POIN2	DeltaruneTheWorldRevolvingPikmin1211_4_001
// 035   ----------------------------------------
	BYTE	PATT
	 POIN2	DeltaruneTheWorldRevolvingPikmin1211_4_019
// 036   ----------------------------------------
	BYTE	PATT
	 POIN2	DeltaruneTheWorldRevolvingPikmin1211_4_002
// 037   ----------------------------------------
	BYTE	PATT
	 POIN2	DeltaruneTheWorldRevolvingPikmin1211_4_021
// 038   ----------------------------------------
	BYTE	PATT
	 POIN2	DeltaruneTheWorldRevolvingPikmin1211_4_022
// 039   ----------------------------------------
	BYTE	PATT
	 POIN2	DeltaruneTheWorldRevolvingPikmin1211_4_023
// 040   ----------------------------------------
	BYTE	PATT
	 POIN2	DeltaruneTheWorldRevolvingPikmin1211_4_002
// 041   ----------------------------------------
	BYTE	PATT
	 POIN2	DeltaruneTheWorldRevolvingPikmin1211_4_017
// 042   ----------------------------------------
	BYTE	PATT
	 POIN2	DeltaruneTheWorldRevolvingPikmin1211_4_001
// 043   ----------------------------------------
	BYTE	PATT
	 POIN2	DeltaruneTheWorldRevolvingPikmin1211_4_019
// 044   ----------------------------------------
	BYTE	PATT
	 POIN2	DeltaruneTheWorldRevolvingPikmin1211_4_002
// 045   ----------------------------------------
	BYTE	PATT
	 POIN2	DeltaruneTheWorldRevolvingPikmin1211_4_021
// 046   ----------------------------------------
	BYTE		N12     Cs1   v088
	BYTE	W24
	BYTE		        Bn0 
	BYTE	W24
	BYTE		        As0 
	BYTE	W24
	BYTE		        Gs0 
	BYTE	W24
// 047   ----------------------------------------
	BYTE		N48     Gn0 
	BYTE	W48
	BYTE		        Ds1 
	BYTE	W48
// 048   ----------------------------------------
	BYTE	PATT
	 POIN2	DeltaruneTheWorldRevolvingPikmin1211_4_002
// 049   ----------------------------------------
	BYTE	PATT
	 POIN2	DeltaruneTheWorldRevolvingPikmin1211_4_002
// 050   ----------------------------------------
	BYTE	PATT
	 POIN2	DeltaruneTheWorldRevolvingPikmin1211_4_021
// 051   ----------------------------------------
	BYTE	PATT
	 POIN2	DeltaruneTheWorldRevolvingPikmin1211_4_017
// 052   ----------------------------------------
	BYTE	PATT
	 POIN2	DeltaruneTheWorldRevolvingPikmin1211_4_002
// 053   ----------------------------------------
	BYTE	PATT
	 POIN2	DeltaruneTheWorldRevolvingPikmin1211_4_002
// 054   ----------------------------------------
	BYTE	PATT
	 POIN2	DeltaruneTheWorldRevolvingPikmin1211_4_021
// 055   ----------------------------------------
	BYTE	PATT
	 POIN2	DeltaruneTheWorldRevolvingPikmin1211_4_017
// 056   ----------------------------------------
	BYTE	PATT
	 POIN2	DeltaruneTheWorldRevolvingPikmin1211_4_002
// 057   ----------------------------------------
	BYTE	PATT
	 POIN2	DeltaruneTheWorldRevolvingPikmin1211_4_002
// 058   ----------------------------------------
	BYTE	PATT
	 POIN2	DeltaruneTheWorldRevolvingPikmin1211_4_021
// 059   ----------------------------------------
	BYTE	PATT
	 POIN2	DeltaruneTheWorldRevolvingPikmin1211_4_017
// 060   ----------------------------------------
	BYTE	PATT
	 POIN2	DeltaruneTheWorldRevolvingPikmin1211_4_002
// 061   ----------------------------------------
	BYTE	PATT
	 POIN2	DeltaruneTheWorldRevolvingPikmin1211_4_002
// 062   ----------------------------------------
	BYTE	PATT
	 POIN2	DeltaruneTheWorldRevolvingPikmin1211_4_021
// 063   ----------------------------------------
	BYTE		N12     Fs1   v088
	BYTE	W24
	BYTE		        Gs1 
	BYTE	W24
	BYTE		        As1 
	BYTE	W24
	BYTE		        Cs2 
	BYTE	W24
// 064   ----------------------------------------
DeltaruneTheWorldRevolvingPikmin1211_4_064:
	BYTE		N12     En1   v108
	BYTE	W24
	BYTE		        Bn0 
	BYTE	W24
	BYTE		        En1 
	BYTE	W24
	BYTE		        Bn0 
	BYTE	W24
	BYTE	PEND
// 065   ----------------------------------------
DeltaruneTheWorldRevolvingPikmin1211_4_065:
	BYTE		N12     Fs1   v108
	BYTE	W24
	BYTE		        Cs1 
	BYTE	W24
	BYTE		        Fs1 
	BYTE	W24
	BYTE		        Cs1 
	BYTE	W24
	BYTE	PEND
// 066   ----------------------------------------
DeltaruneTheWorldRevolvingPikmin1211_4_066:
	BYTE		N12     Gs1   v108
	BYTE	W24
	BYTE		        Ds1 
	BYTE	W24
	BYTE		        Gs1 
	BYTE	W24
	BYTE		        Ds1 
	BYTE	W24
	BYTE	PEND
// 067   ----------------------------------------
	BYTE	PATT
	 POIN2	DeltaruneTheWorldRevolvingPikmin1211_4_065
// 068   ----------------------------------------
	BYTE	PATT
	 POIN2	DeltaruneTheWorldRevolvingPikmin1211_4_064
// 069   ----------------------------------------
	BYTE	PATT
	 POIN2	DeltaruneTheWorldRevolvingPikmin1211_4_065
// 070   ----------------------------------------
	BYTE	PATT
	 POIN2	DeltaruneTheWorldRevolvingPikmin1211_4_066
// 071   ----------------------------------------
	BYTE	PATT
	 POIN2	DeltaruneTheWorldRevolvingPikmin1211_4_065
// 072   ----------------------------------------
	BYTE	PATT
	 POIN2	DeltaruneTheWorldRevolvingPikmin1211_4_064
// 073   ----------------------------------------
	BYTE	PATT
	 POIN2	DeltaruneTheWorldRevolvingPikmin1211_4_065
// 074   ----------------------------------------
	BYTE	PATT
	 POIN2	DeltaruneTheWorldRevolvingPikmin1211_4_066
// 075   ----------------------------------------
	BYTE	PATT
	 POIN2	DeltaruneTheWorldRevolvingPikmin1211_4_065
// 076   ----------------------------------------
	BYTE	PATT
	 POIN2	DeltaruneTheWorldRevolvingPikmin1211_4_064
// 077   ----------------------------------------
	BYTE	PATT
	 POIN2	DeltaruneTheWorldRevolvingPikmin1211_4_065
// 078   ----------------------------------------
	BYTE	PATT
	 POIN2	DeltaruneTheWorldRevolvingPikmin1211_4_066
// 079   ----------------------------------------
	BYTE		N48     Fs1   v108
	BYTE	W48
	BYTE		N44     Gn1 
	BYTE	W48
// 080   ----------------------------------------
	BYTE		BEND    c_v-2
	BYTE	W05
	BYTE	GoTo
	 POIN2	DeltaruneTheWorldRevolvingPikmin1211_4_B1
DeltaruneTheWorldRevolvingPikmin1211_4_B2:
	BYTE	W48
	BYTE		BEND    c_v-2
	BYTE	FINE

//**************** Track 5 (Midi-Chn.5) ****************//

DeltaruneTheWorldRevolvingPikmin1211_5:
	BYTE	KEYSH   DeltaruneTheWorldRevolvingPikmin1211_key+0
// 000   ----------------------------------------
	BYTE		VOICE   11
	BYTE		PAN     c_v-28
	BYTE		VOL     100*DeltaruneTheWorldRevolvingPikmin1211_mvl/mxv
	BYTE		BEND    c_v-2
	BYTE		N06     Gs3   v088
	BYTE	W24
	BYTE		        Ds4 
	BYTE	W24
	BYTE		        Gs3 
	BYTE	W24
	BYTE		        Ds4 
	BYTE	W24
// 001   ----------------------------------------
DeltaruneTheWorldRevolvingPikmin1211_5_001:
	BYTE		N06     Gs3   v088
	BYTE	W24
	BYTE		        Ds4 
	BYTE	W24
	BYTE		        Gs3 
	BYTE	W24
	BYTE		        Ds4 
	BYTE	W24
	BYTE	PEND
// 002   ----------------------------------------
DeltaruneTheWorldRevolvingPikmin1211_5_002:
	BYTE		N06     Bn3   v088
	BYTE	W12
	BYTE		        Bn2 
	BYTE	W12
	BYTE		        En3 
	BYTE	W12
	BYTE		        Bn2 
	BYTE	W12
	BYTE		        Bn3 
	BYTE	W12
	BYTE		        Bn2 
	BYTE	W12
	BYTE		        En3 
	BYTE	W12
	BYTE		        Bn2 
	BYTE	W12
	BYTE	PEND
// 003   ----------------------------------------
DeltaruneTheWorldRevolvingPikmin1211_5_003:
	BYTE		N06     Cs4   v088
	BYTE	W12
	BYTE		        Cs3 
	BYTE	W12
	BYTE		        Gs3 
	BYTE	W12
	BYTE		        Cs3 
	BYTE	W12
	BYTE		        Cs4 
	BYTE	W12
	BYTE		        Cs3 
	BYTE	W12
	BYTE		        Gs3 
	BYTE	W12
	BYTE		        Cs3 
	BYTE	W12
	BYTE	PEND
// 004   ----------------------------------------
	BYTE	PATT
	 POIN2	DeltaruneTheWorldRevolvingPikmin1211_5_001
// 005   ----------------------------------------
	BYTE	PATT
	 POIN2	DeltaruneTheWorldRevolvingPikmin1211_5_001
// 006   ----------------------------------------
	BYTE		N06     Bn3   v088
	BYTE	W12
	BYTE		        Fs4 
	BYTE	W12
	BYTE		        Gs3 
	BYTE	W12
	BYTE		        Fs4 
	BYTE	W12
	BYTE		        Bn3 
	BYTE	W12
	BYTE		        Fs4 
	BYTE	W12
	BYTE		        Gs3 
	BYTE	W12
	BYTE		        Fs4 
	BYTE	W12
// 007   ----------------------------------------
	BYTE		        Cs4 
	BYTE	W12
	BYTE		        Cs2 
	BYTE	W12
	BYTE		        Cs3 
	BYTE	W12
	BYTE		        Cs2 
	BYTE	W12
	BYTE		        Cs4 
	BYTE	W12
	BYTE		        Cs2 
	BYTE	W12
	BYTE		        Cs3 
	BYTE	W12
	BYTE		        Cs2 
	BYTE	W12
// 008   ----------------------------------------
	BYTE	PATT
	 POIN2	DeltaruneTheWorldRevolvingPikmin1211_5_001
// 009   ----------------------------------------
	BYTE	PATT
	 POIN2	DeltaruneTheWorldRevolvingPikmin1211_5_001
// 010   ----------------------------------------
	BYTE	PATT
	 POIN2	DeltaruneTheWorldRevolvingPikmin1211_5_002
// 011   ----------------------------------------
	BYTE	PATT
	 POIN2	DeltaruneTheWorldRevolvingPikmin1211_5_003
// 012   ----------------------------------------
	BYTE	PATT
	 POIN2	DeltaruneTheWorldRevolvingPikmin1211_5_001
// 013   ----------------------------------------
	BYTE	PATT
	 POIN2	DeltaruneTheWorldRevolvingPikmin1211_5_001
// 014   ----------------------------------------
	BYTE	W96
// 015   ----------------------------------------
	BYTE	W92
DeltaruneTheWorldRevolvingPikmin1211_5_B1:
	BYTE	W04
// 016   ----------------------------------------
	BYTE	W96
// 017   ----------------------------------------
	BYTE	W96
// 018   ----------------------------------------
	BYTE	W96
// 019   ----------------------------------------
	BYTE	W96
// 020   ----------------------------------------
	BYTE	W96
// 021   ----------------------------------------
	BYTE	W96
// 022   ----------------------------------------
	BYTE	W96
// 023   ----------------------------------------
	BYTE	W96
// 024   ----------------------------------------
	BYTE	W96
// 025   ----------------------------------------
	BYTE	W96
// 026   ----------------------------------------
	BYTE	W96
// 027   ----------------------------------------
	BYTE	W96
// 028   ----------------------------------------
	BYTE	W96
// 029   ----------------------------------------
	BYTE	W96
// 030   ----------------------------------------
	BYTE	W96
// 031   ----------------------------------------
	BYTE	W96
// 032   ----------------------------------------
	BYTE	W96
// 033   ----------------------------------------
	BYTE	W96
// 034   ----------------------------------------
	BYTE	W96
// 035   ----------------------------------------
	BYTE	W96
// 036   ----------------------------------------
	BYTE	W96
// 037   ----------------------------------------
	BYTE	W96
// 038   ----------------------------------------
	BYTE	W96
// 039   ----------------------------------------
	BYTE	W96
// 040   ----------------------------------------
	BYTE	W96
// 041   ----------------------------------------
	BYTE	W96
// 042   ----------------------------------------
	BYTE	W96
// 043   ----------------------------------------
	BYTE	W96
// 044   ----------------------------------------
	BYTE	W96
// 045   ----------------------------------------
	BYTE	W96
// 046   ----------------------------------------
	BYTE	W96
// 047   ----------------------------------------
	BYTE	W96
// 048   ----------------------------------------
	BYTE	W96
// 049   ----------------------------------------
	BYTE	W96
// 050   ----------------------------------------
	BYTE	W96
// 051   ----------------------------------------
	BYTE	W96
// 052   ----------------------------------------
	BYTE	W96
// 053   ----------------------------------------
	BYTE	W96
// 054   ----------------------------------------
	BYTE	W96
// 055   ----------------------------------------
	BYTE	W96
// 056   ----------------------------------------
	BYTE	W96
// 057   ----------------------------------------
	BYTE	W96
// 058   ----------------------------------------
	BYTE	W96
// 059   ----------------------------------------
	BYTE	W96
// 060   ----------------------------------------
	BYTE	W96
// 061   ----------------------------------------
	BYTE	W96
// 062   ----------------------------------------
	BYTE	W96
// 063   ----------------------------------------
	BYTE	W96
// 064   ----------------------------------------
	BYTE	W96
// 065   ----------------------------------------
	BYTE	W96
// 066   ----------------------------------------
	BYTE	W96
// 067   ----------------------------------------
	BYTE	W96
// 068   ----------------------------------------
	BYTE	W96
// 069   ----------------------------------------
	BYTE	W96
// 070   ----------------------------------------
	BYTE	W96
// 071   ----------------------------------------
	BYTE	W96
// 072   ----------------------------------------
	BYTE	W96
// 073   ----------------------------------------
	BYTE	W96
// 074   ----------------------------------------
	BYTE	W96
// 075   ----------------------------------------
	BYTE	W96
// 076   ----------------------------------------
	BYTE	W96
// 077   ----------------------------------------
	BYTE	W96
// 078   ----------------------------------------
	BYTE	W96
// 079   ----------------------------------------
	BYTE	W96
// 080   ----------------------------------------
	BYTE		BEND    c_v-2
	BYTE	W05
	BYTE	GoTo
	 POIN2	DeltaruneTheWorldRevolvingPikmin1211_5_B1
DeltaruneTheWorldRevolvingPikmin1211_5_B2:
	BYTE	W48
	BYTE		BEND    c_v-2
	BYTE	FINE

//**************** Track 6 (Midi-Chn.6) ****************//

DeltaruneTheWorldRevolvingPikmin1211_6:
	BYTE	KEYSH   DeltaruneTheWorldRevolvingPikmin1211_key+0
// 000   ----------------------------------------
	BYTE		VOICE   42
	BYTE		PAN     c_v-38
	BYTE		VOL     92*DeltaruneTheWorldRevolvingPikmin1211_mvl/mxv
	BYTE		BEND    c_v-2
	BYTE	W96
// 001   ----------------------------------------
	BYTE	W96
// 002   ----------------------------------------
DeltaruneTheWorldRevolvingPikmin1211_6_002:
	BYTE		N36     Bn2   v092
	BYTE		N36     En3 
	BYTE	W36
	BYTE		        Fs2 
	BYTE		N36     Bn2 
	BYTE	W36
	BYTE		N24     Gn2 
	BYTE		N24     Dn3 
	BYTE	W24
	BYTE	PEND
// 003   ----------------------------------------
DeltaruneTheWorldRevolvingPikmin1211_6_003:
	BYTE		N24     Bn2   v092
	BYTE		N24     Fs3 
	BYTE		N24     Bn3 
	BYTE	W24
	BYTE		        Gn2 
	BYTE		N24     Dn3 
	BYTE		N24     Gn3 
	BYTE	W24
	BYTE		        Fs2 
	BYTE		N24     Dn3 
	BYTE		N24     Fs3 
	BYTE	W24
	BYTE		        Cs2 
	BYTE		N24     Cs3 
	BYTE	W24
	BYTE	PEND
// 004   ----------------------------------------
DeltaruneTheWorldRevolvingPikmin1211_6_004:
	BYTE		TIE     Bn2   v092
	BYTE		TIE     Ds3 
	BYTE		TIE     Bn3 
	BYTE		TIE     Ds4 
	BYTE	W96
	BYTE	PEND
// 005   ----------------------------------------
	BYTE	W72
	BYTE		EOT     Bn2 
	BYTE		        Ds3 
	BYTE		        Bn3 
	BYTE		        Ds4 
	BYTE	W24
// 006   ----------------------------------------
	BYTE	W96
// 007   ----------------------------------------
	BYTE	W96
// 008   ----------------------------------------
	BYTE	W96
// 009   ----------------------------------------
	BYTE	W96
// 010   ----------------------------------------
	BYTE	PATT
	 POIN2	DeltaruneTheWorldRevolvingPikmin1211_6_002
// 011   ----------------------------------------
	BYTE	PATT
	 POIN2	DeltaruneTheWorldRevolvingPikmin1211_6_003
// 012   ----------------------------------------
	BYTE	PATT
	 POIN2	DeltaruneTheWorldRevolvingPikmin1211_6_004
// 013   ----------------------------------------
	BYTE	W72
	BYTE		EOT     Bn2 
	BYTE		        Ds3 
	BYTE		        Bn3 
	BYTE		        Ds4 
	BYTE	W24
// 014   ----------------------------------------
	BYTE		N54     Bn3   v092
	BYTE		N54     Bn4 
	BYTE	W36
	BYTE		N44     Cs4 
	BYTE		N44     Cs5 
	BYTE	W36
	BYTE		N32     Gs3 
	BYTE		N32     Gs4 
	BYTE	W24
// 015   ----------------------------------------
	BYTE		N36     Fs4 
	BYTE		N36     Ds5 
	BYTE	W36
	BYTE		N06     Gn4 
	BYTE		N06     En5 
	BYTE	W06
	BYTE		        Fs4 
	BYTE		N06     Ds5 
	BYTE	W05
	BYTE		VOL     75*DeltaruneTheWorldRevolvingPikmin1211_mvl/mxv
	BYTE	W01
	BYTE		N48     En4 
	BYTE		N48     Cs5 
	BYTE	W01
	BYTE		VOL     57*DeltaruneTheWorldRevolvingPikmin1211_mvl/mxv
	BYTE	W01
	BYTE		        58*DeltaruneTheWorldRevolvingPikmin1211_mvl/mxv
	BYTE	W02
	BYTE		        59*DeltaruneTheWorldRevolvingPikmin1211_mvl/mxv
	BYTE	W02
	BYTE		        61*DeltaruneTheWorldRevolvingPikmin1211_mvl/mxv
	BYTE	W02
	BYTE		        62*DeltaruneTheWorldRevolvingPikmin1211_mvl/mxv
	BYTE	W01
	BYTE		        58*DeltaruneTheWorldRevolvingPikmin1211_mvl/mxv
	BYTE	W01
	BYTE		        59*DeltaruneTheWorldRevolvingPikmin1211_mvl/mxv
	BYTE	W02
	BYTE		        61*DeltaruneTheWorldRevolvingPikmin1211_mvl/mxv
	BYTE	W03
	BYTE		        62*DeltaruneTheWorldRevolvingPikmin1211_mvl/mxv
	BYTE	W01
	BYTE		        63*DeltaruneTheWorldRevolvingPikmin1211_mvl/mxv
	BYTE	W01
	BYTE		        64*DeltaruneTheWorldRevolvingPikmin1211_mvl/mxv
	BYTE	W01
	BYTE		        65*DeltaruneTheWorldRevolvingPikmin1211_mvl/mxv
	BYTE	W01
	BYTE		        66*DeltaruneTheWorldRevolvingPikmin1211_mvl/mxv
	BYTE	W01
	BYTE		        67*DeltaruneTheWorldRevolvingPikmin1211_mvl/mxv
	BYTE	W01
	BYTE		        69*DeltaruneTheWorldRevolvingPikmin1211_mvl/mxv
	BYTE	W01
	BYTE		        71*DeltaruneTheWorldRevolvingPikmin1211_mvl/mxv
	BYTE	W01
	BYTE		        74*DeltaruneTheWorldRevolvingPikmin1211_mvl/mxv
	BYTE	W01
	BYTE		        76*DeltaruneTheWorldRevolvingPikmin1211_mvl/mxv
	BYTE	W01
	BYTE		        79*DeltaruneTheWorldRevolvingPikmin1211_mvl/mxv
	BYTE	W01
	BYTE		        82*DeltaruneTheWorldRevolvingPikmin1211_mvl/mxv
	BYTE	W01
	BYTE		        85*DeltaruneTheWorldRevolvingPikmin1211_mvl/mxv
	BYTE	W01
	BYTE		        87*DeltaruneTheWorldRevolvingPikmin1211_mvl/mxv
	BYTE	W01
	BYTE		        91*DeltaruneTheWorldRevolvingPikmin1211_mvl/mxv
	BYTE	W01
	BYTE		        94*DeltaruneTheWorldRevolvingPikmin1211_mvl/mxv
	BYTE	W01
	BYTE		        98*DeltaruneTheWorldRevolvingPikmin1211_mvl/mxv
	BYTE	W01
	BYTE		        99*DeltaruneTheWorldRevolvingPikmin1211_mvl/mxv
	BYTE	W01
	BYTE		        102*DeltaruneTheWorldRevolvingPikmin1211_mvl/mxv
	BYTE	W01
	BYTE		        105*DeltaruneTheWorldRevolvingPikmin1211_mvl/mxv
	BYTE	W01
	BYTE		        107*DeltaruneTheWorldRevolvingPikmin1211_mvl/mxv
	BYTE	W01
	BYTE		        111*DeltaruneTheWorldRevolvingPikmin1211_mvl/mxv
	BYTE	W01
	BYTE		        113*DeltaruneTheWorldRevolvingPikmin1211_mvl/mxv
	BYTE	W01
	BYTE		        115*DeltaruneTheWorldRevolvingPikmin1211_mvl/mxv
	BYTE	W01
	BYTE		        117*DeltaruneTheWorldRevolvingPikmin1211_mvl/mxv
	BYTE	W01
	BYTE		        120*DeltaruneTheWorldRevolvingPikmin1211_mvl/mxv
	BYTE	W01
	BYTE		        122*DeltaruneTheWorldRevolvingPikmin1211_mvl/mxv
	BYTE	W01
	BYTE		        123*DeltaruneTheWorldRevolvingPikmin1211_mvl/mxv
	BYTE	W01
	BYTE		        125*DeltaruneTheWorldRevolvingPikmin1211_mvl/mxv
	BYTE	W01
DeltaruneTheWorldRevolvingPikmin1211_6_B1:
	BYTE	W04
// 016   ----------------------------------------
	BYTE	W05
	BYTE		VOL     90*DeltaruneTheWorldRevolvingPikmin1211_mvl/mxv
	BYTE	W90
	BYTE	W01
// 017   ----------------------------------------
	BYTE	W96
// 018   ----------------------------------------
	BYTE	W96
// 019   ----------------------------------------
	BYTE	W96
// 020   ----------------------------------------
	BYTE	W96
// 021   ----------------------------------------
	BYTE	W96
// 022   ----------------------------------------
	BYTE	W96
// 023   ----------------------------------------
	BYTE	W96
// 024   ----------------------------------------
	BYTE	W96
// 025   ----------------------------------------
	BYTE	W96
// 026   ----------------------------------------
	BYTE	W96
// 027   ----------------------------------------
	BYTE	W96
// 028   ----------------------------------------
	BYTE	W96
// 029   ----------------------------------------
	BYTE	W96
// 030   ----------------------------------------
	BYTE	W96
// 031   ----------------------------------------
	BYTE	W96
// 032   ----------------------------------------
DeltaruneTheWorldRevolvingPikmin1211_6_032:
	BYTE		N96     En2   v092
	BYTE		N96     Gs2 
	BYTE		N96     Bn2 
	BYTE		N96     Bn3 
	BYTE	W96
	BYTE	PEND
// 033   ----------------------------------------
DeltaruneTheWorldRevolvingPikmin1211_6_033:
	BYTE		N96     Fs2   v092
	BYTE		N96     As2 
	BYTE		N96     Cs3 
	BYTE		N96     Cs4 
	BYTE	W96
	BYTE	PEND
// 034   ----------------------------------------
DeltaruneTheWorldRevolvingPikmin1211_6_034:
	BYTE		N96     Gs2   v092
	BYTE		N96     Bn2 
	BYTE		N96     Ds3 
	BYTE		N96     Ds4 
	BYTE	W96
	BYTE	PEND
// 035   ----------------------------------------
DeltaruneTheWorldRevolvingPikmin1211_6_035:
	BYTE		N96     As2   v092
	BYTE		N96     Ds3 
	BYTE		N48     Fn3 
	BYTE		N48     Fn4 
	BYTE	W48
	BYTE		        Fs3 
	BYTE		N48     Fs4 
	BYTE	W48
	BYTE	PEND
// 036   ----------------------------------------
DeltaruneTheWorldRevolvingPikmin1211_6_036:
	BYTE		N96     Bn2   v092
	BYTE		N96     En3 
	BYTE		N96     Gs3 
	BYTE		N96     Gs4 
	BYTE	W96
	BYTE	PEND
// 037   ----------------------------------------
DeltaruneTheWorldRevolvingPikmin1211_6_037:
	BYTE		N96     Bn2   v092
	BYTE		N96     Ds3 
	BYTE		N96     Fs3 
	BYTE		N96     Fs4 
	BYTE	W96
	BYTE	PEND
// 038   ----------------------------------------
DeltaruneTheWorldRevolvingPikmin1211_6_038:
	BYTE		N96     Gs2   v092
	BYTE		N96     Cs3 
	BYTE		N96     En3 
	BYTE		N96     En4 
	BYTE	W96
	BYTE	PEND
// 039   ----------------------------------------
	BYTE		        As2 
	BYTE		N96     Ds3 
	BYTE		N96     Gn3 
	BYTE		N96     Ds4 
	BYTE	W96
// 040   ----------------------------------------
	BYTE	PATT
	 POIN2	DeltaruneTheWorldRevolvingPikmin1211_6_032
// 041   ----------------------------------------
	BYTE	PATT
	 POIN2	DeltaruneTheWorldRevolvingPikmin1211_6_033
// 042   ----------------------------------------
	BYTE	PATT
	 POIN2	DeltaruneTheWorldRevolvingPikmin1211_6_034
// 043   ----------------------------------------
	BYTE	PATT
	 POIN2	DeltaruneTheWorldRevolvingPikmin1211_6_035
// 044   ----------------------------------------
	BYTE	PATT
	 POIN2	DeltaruneTheWorldRevolvingPikmin1211_6_036
// 045   ----------------------------------------
	BYTE	PATT
	 POIN2	DeltaruneTheWorldRevolvingPikmin1211_6_037
// 046   ----------------------------------------
	BYTE	PATT
	 POIN2	DeltaruneTheWorldRevolvingPikmin1211_6_038
// 047   ----------------------------------------
	BYTE		N48     As2   v092
	BYTE		N48     Ds3 
	BYTE		N48     Gn3 
	BYTE		N48     Ds4 
	BYTE	W48
	BYTE		        As2   v088
	BYTE		N48     Ds3 
	BYTE		N48     Gn3 
	BYTE		N48     Cs4 
	BYTE	W48
// 048   ----------------------------------------
	BYTE	W96
// 049   ----------------------------------------
	BYTE	W96
// 050   ----------------------------------------
	BYTE	W96
// 051   ----------------------------------------
	BYTE	W96
// 052   ----------------------------------------
	BYTE	W96
// 053   ----------------------------------------
	BYTE	W96
// 054   ----------------------------------------
	BYTE	W96
// 055   ----------------------------------------
	BYTE	W96
// 056   ----------------------------------------
	BYTE	W96
// 057   ----------------------------------------
	BYTE	W96
// 058   ----------------------------------------
	BYTE	W96
// 059   ----------------------------------------
	BYTE	W96
// 060   ----------------------------------------
	BYTE	W96
// 061   ----------------------------------------
	BYTE	W96
// 062   ----------------------------------------
	BYTE	W96
// 063   ----------------------------------------
	BYTE	W96
// 064   ----------------------------------------
DeltaruneTheWorldRevolvingPikmin1211_6_064:
	BYTE		N96     Gs3   v084
	BYTE		N96     Bn3 
	BYTE		N96     En4 
	BYTE		N96     Gs4 
	BYTE	W96
	BYTE	PEND
// 065   ----------------------------------------
DeltaruneTheWorldRevolvingPikmin1211_6_065:
	BYTE		N96     As3   v084
	BYTE		N96     Cs4 
	BYTE		N96     Fs4 
	BYTE		N96     As4 
	BYTE	W96
	BYTE	PEND
// 066   ----------------------------------------
DeltaruneTheWorldRevolvingPikmin1211_6_066:
	BYTE		N96     Bn3   v084
	BYTE		N96     Ds4 
	BYTE		N96     Gs4 
	BYTE		N96     Bn4 
	BYTE	W96
	BYTE	PEND
// 067   ----------------------------------------
DeltaruneTheWorldRevolvingPikmin1211_6_067:
	BYTE		N96     Cs4   v084
	BYTE		N96     Fs4 
	BYTE		N96     As4 
	BYTE		N96     Cs5 
	BYTE	W96
	BYTE	PEND
// 068   ----------------------------------------
DeltaruneTheWorldRevolvingPikmin1211_6_068:
	BYTE		N96     Ds4   v084
	BYTE		N96     Gs4 
	BYTE		N96     Bn4 
	BYTE		N96     Ds5 
	BYTE	W96
	BYTE	PEND
// 069   ----------------------------------------
	BYTE	PATT
	 POIN2	DeltaruneTheWorldRevolvingPikmin1211_6_067
// 070   ----------------------------------------
DeltaruneTheWorldRevolvingPikmin1211_6_070:
	BYTE		N96     Gs3   v084
	BYTE		N96     Bn3 
	BYTE		N96     Ds4 
	BYTE		N96     Gs4 
	BYTE	W96
	BYTE	PEND
// 071   ----------------------------------------
	BYTE	PATT
	 POIN2	DeltaruneTheWorldRevolvingPikmin1211_6_065
// 072   ----------------------------------------
	BYTE	PATT
	 POIN2	DeltaruneTheWorldRevolvingPikmin1211_6_064
// 073   ----------------------------------------
	BYTE	PATT
	 POIN2	DeltaruneTheWorldRevolvingPikmin1211_6_065
// 074   ----------------------------------------
	BYTE	PATT
	 POIN2	DeltaruneTheWorldRevolvingPikmin1211_6_066
// 075   ----------------------------------------
	BYTE	PATT
	 POIN2	DeltaruneTheWorldRevolvingPikmin1211_6_067
// 076   ----------------------------------------
	BYTE	PATT
	 POIN2	DeltaruneTheWorldRevolvingPikmin1211_6_068
// 077   ----------------------------------------
	BYTE	PATT
	 POIN2	DeltaruneTheWorldRevolvingPikmin1211_6_067
// 078   ----------------------------------------
	BYTE	PATT
	 POIN2	DeltaruneTheWorldRevolvingPikmin1211_6_070
// 079   ----------------------------------------
	BYTE		N24     Ds4   v084
	BYTE	W24
	BYTE		        En4 
	BYTE	W24
	BYTE		        Cs4 
	BYTE	W24
	BYTE		N23     Bn3 
	BYTE	W24
// 080   ----------------------------------------
	BYTE		BEND    c_v-2
	BYTE	W05
	BYTE	GoTo
	 POIN2	DeltaruneTheWorldRevolvingPikmin1211_6_B1
DeltaruneTheWorldRevolvingPikmin1211_6_B2:
	BYTE	W48
	BYTE		BEND    c_v-2
	BYTE	FINE

//**************** Track 7 (Midi-Chn.7) ****************//

DeltaruneTheWorldRevolvingPikmin1211_7:
	BYTE	KEYSH   DeltaruneTheWorldRevolvingPikmin1211_key+0
// 000   ----------------------------------------
	BYTE		VOICE   57
	BYTE		VOL     127*DeltaruneTheWorldRevolvingPikmin1211_mvl/mxv
	BYTE		PAN     c_v+12
	BYTE		BEND    c_v-2
	BYTE	W12
	BYTE		N06     Bn3   v088
	BYTE		N06     Ds4   v096
	BYTE	W12
	BYTE		        As3   v088
	BYTE		N06     Dn4   v096
	BYTE	W12
	BYTE		        Bn3   v088
	BYTE		N06     Ds4   v096
	BYTE	W12
	BYTE		        As3   v088
	BYTE		N06     Dn4   v096
	BYTE	W12
	BYTE		        Bn3   v088
	BYTE		N06     Ds4   v096
	BYTE	W24
	BYTE		        Bn3   v088
	BYTE		N06     Ds4   v096
	BYTE	W12
// 001   ----------------------------------------
DeltaruneTheWorldRevolvingPikmin1211_7_001:
	BYTE	W12
	BYTE		N06     Bn3   v088
	BYTE		N06     Ds4   v096
	BYTE	W12
	BYTE		        As3   v088
	BYTE		N06     Dn4   v096
	BYTE	W12
	BYTE		        Bn3   v088
	BYTE		N06     Ds4   v096
	BYTE	W12
	BYTE		        As3   v088
	BYTE		N06     Dn4   v096
	BYTE	W12
	BYTE		        Bn3   v088
	BYTE		N06     Ds4   v096
	BYTE	W36
	BYTE	PEND
// 002   ----------------------------------------
	BYTE	W96
// 003   ----------------------------------------
	BYTE	W96
// 004   ----------------------------------------
DeltaruneTheWorldRevolvingPikmin1211_7_004:
	BYTE	W12
	BYTE		N06     Bn3   v088
	BYTE		N06     Ds4   v096
	BYTE	W12
	BYTE		        As3   v088
	BYTE		N06     Dn4   v096
	BYTE	W12
	BYTE		        Bn3   v088
	BYTE		N06     Ds4   v096
	BYTE	W12
	BYTE		        As3   v088
	BYTE		N06     Dn4   v096
	BYTE	W12
	BYTE		        Bn3   v088
	BYTE		N06     Ds4   v096
	BYTE	W24
	BYTE		        Bn3   v088
	BYTE		N06     Ds4   v096
	BYTE	W12
	BYTE	PEND
// 005   ----------------------------------------
	BYTE	PATT
	 POIN2	DeltaruneTheWorldRevolvingPikmin1211_7_001
// 006   ----------------------------------------
	BYTE	W96
// 007   ----------------------------------------
	BYTE	W96
// 008   ----------------------------------------
	BYTE	PATT
	 POIN2	DeltaruneTheWorldRevolvingPikmin1211_7_004
// 009   ----------------------------------------
	BYTE	PATT
	 POIN2	DeltaruneTheWorldRevolvingPikmin1211_7_001
// 010   ----------------------------------------
	BYTE	W96
// 011   ----------------------------------------
	BYTE	W96
// 012   ----------------------------------------
	BYTE	PATT
	 POIN2	DeltaruneTheWorldRevolvingPikmin1211_7_004
// 013   ----------------------------------------
	BYTE	PATT
	 POIN2	DeltaruneTheWorldRevolvingPikmin1211_7_001
// 014   ----------------------------------------
	BYTE	W96
// 015   ----------------------------------------
	BYTE	W92
DeltaruneTheWorldRevolvingPikmin1211_7_B1:
	BYTE	W04
// 016   ----------------------------------------
	BYTE	W96
// 017   ----------------------------------------
	BYTE	W96
// 018   ----------------------------------------
	BYTE	W96
// 019   ----------------------------------------
	BYTE	W96
// 020   ----------------------------------------
	BYTE	W96
// 021   ----------------------------------------
	BYTE	W96
// 022   ----------------------------------------
	BYTE	W96
// 023   ----------------------------------------
	BYTE	W96
// 024   ----------------------------------------
	BYTE	W96
// 025   ----------------------------------------
	BYTE	W96
// 026   ----------------------------------------
	BYTE	W96
// 027   ----------------------------------------
	BYTE	W96
// 028   ----------------------------------------
	BYTE	W96
// 029   ----------------------------------------
	BYTE	W96
// 030   ----------------------------------------
	BYTE	W96
// 031   ----------------------------------------
	BYTE	W96
// 032   ----------------------------------------
	BYTE	W96
// 033   ----------------------------------------
	BYTE	W96
// 034   ----------------------------------------
	BYTE	W96
// 035   ----------------------------------------
	BYTE	W96
// 036   ----------------------------------------
	BYTE	W96
// 037   ----------------------------------------
	BYTE	W96
// 038   ----------------------------------------
	BYTE	W96
// 039   ----------------------------------------
	BYTE	W96
// 040   ----------------------------------------
	BYTE	W96
// 041   ----------------------------------------
	BYTE	W96
// 042   ----------------------------------------
	BYTE	W96
// 043   ----------------------------------------
	BYTE	W96
// 044   ----------------------------------------
	BYTE	W96
// 045   ----------------------------------------
	BYTE	W96
// 046   ----------------------------------------
	BYTE	W96
// 047   ----------------------------------------
	BYTE	W96
// 048   ----------------------------------------
	BYTE		N96     Gn3   v104
	BYTE		N96     Bn3 
	BYTE	W96
// 049   ----------------------------------------
DeltaruneTheWorldRevolvingPikmin1211_7_049:
	BYTE	W12
	BYTE		N06     Gn3   v104
	BYTE		N06     Bn3 
	BYTE	W12
	BYTE		N12     Fs3 
	BYTE		N12     An3 
	BYTE	W12
	BYTE		        En3 
	BYTE		N12     Gn3 
	BYTE	W12
	BYTE		N21     Ds3 
	BYTE		N24     Fs3 
	BYTE	W24
	BYTE		N12     Cs3 
	BYTE		N12     En3 
	BYTE	W12
	BYTE		TIE     Bn2 
	BYTE		TIE     Ds3 
	BYTE	W12
	BYTE	PEND
// 050   ----------------------------------------
	BYTE	W96
	BYTE		EOT     Bn2 
	BYTE		        Ds3 
// 051   ----------------------------------------
DeltaruneTheWorldRevolvingPikmin1211_7_051:
	BYTE	W12
	BYTE		N06     Bn2   v104
	BYTE		N06     Ds3 
	BYTE	W12
	BYTE		        Cs3 
	BYTE		N06     En3 
	BYTE	W12
	BYTE		        Bn2 
	BYTE		N06     Ds3 
	BYTE	W12
	BYTE		N24     As2 
	BYTE		N24     Cs3 
	BYTE	W24
	BYTE		        Ds3 
	BYTE		N24     Fs3 
	BYTE	W24
	BYTE	PEND
// 052   ----------------------------------------
	BYTE		N96     Gn3 
	BYTE		N96     Bn3 
	BYTE	W96
// 053   ----------------------------------------
DeltaruneTheWorldRevolvingPikmin1211_7_053:
	BYTE	W12
	BYTE		N12     Gn3   v104
	BYTE		N12     Bn3 
	BYTE	W12
	BYTE		        Fs3 
	BYTE		N12     As3 
	BYTE	W12
	BYTE		        Gn3 
	BYTE		N12     Bn3 
	BYTE	W12
	BYTE		N24     Fs3 
	BYTE		N24     Fs4 
	BYTE	W24
	BYTE		N06     En3 
	BYTE		N06     Bn3 
	BYTE	W12
	BYTE		N84     Ds3 
	BYTE		N84     Bn3 
	BYTE	W12
	BYTE	PEND
// 054   ----------------------------------------
DeltaruneTheWorldRevolvingPikmin1211_7_054:
	BYTE	W84
	BYTE		N06     Ds3   v104
	BYTE		N06     Cs4 
	BYTE	W06
	BYTE		        En3 
	BYTE		N06     Bn3 
	BYTE	W06
	BYTE	PEND
// 055   ----------------------------------------
DeltaruneTheWorldRevolvingPikmin1211_7_055:
	BYTE		N24     Fs3   v104
	BYTE		N24     As3 
	BYTE	W24
	BYTE		        Gs3 
	BYTE		N24     Bn3 
	BYTE	W24
	BYTE		        As3 
	BYTE		N24     Cs4 
	BYTE	W24
	BYTE		        Fs3 
	BYTE		N24     As3 
	BYTE	W24
	BYTE	PEND
// 056   ----------------------------------------
	BYTE		N96     Gn3 
	BYTE		N96     Bn3 
	BYTE	W96
// 057   ----------------------------------------
	BYTE	PATT
	 POIN2	DeltaruneTheWorldRevolvingPikmin1211_7_049
// 058   ----------------------------------------
	BYTE	W96
	BYTE		EOT     Bn2 
	BYTE		        Ds3 
// 059   ----------------------------------------
	BYTE	PATT
	 POIN2	DeltaruneTheWorldRevolvingPikmin1211_7_051
// 060   ----------------------------------------
	BYTE		N96     Gn3   v104
	BYTE		N96     Bn3 
	BYTE	W96
// 061   ----------------------------------------
	BYTE	PATT
	 POIN2	DeltaruneTheWorldRevolvingPikmin1211_7_053
// 062   ----------------------------------------
	BYTE	PATT
	 POIN2	DeltaruneTheWorldRevolvingPikmin1211_7_054
// 063   ----------------------------------------
	BYTE	PATT
	 POIN2	DeltaruneTheWorldRevolvingPikmin1211_7_055
// 064   ----------------------------------------
DeltaruneTheWorldRevolvingPikmin1211_7_064:
	BYTE		N68     Gs3   v104
	BYTE		N68     Bn3 
	BYTE	W72
	BYTE		N24     Ds3 
	BYTE		N24     Fs3 
	BYTE	W24
	BYTE	PEND
// 065   ----------------------------------------
DeltaruneTheWorldRevolvingPikmin1211_7_065:
	BYTE		N24     Bn3   v104
	BYTE		N24     Ds4 
	BYTE	W24
	BYTE		        Cs4 
	BYTE		N24     En4 
	BYTE	W24
	BYTE		N32     As3 
	BYTE		N32     Cs4 
	BYTE	W36
	BYTE		N06     Gs3 
	BYTE		N06     Bn3 
	BYTE	W12
	BYTE	PEND
// 066   ----------------------------------------
DeltaruneTheWorldRevolvingPikmin1211_7_066:
	BYTE		N72     Gs3   v104
	BYTE		N72     Bn3 
	BYTE	W72
	BYTE		N24     Ds3 
	BYTE		N24     Fs3 
	BYTE	W24
	BYTE	PEND
// 067   ----------------------------------------
DeltaruneTheWorldRevolvingPikmin1211_7_067:
	BYTE		N24     Bn3   v104
	BYTE		N24     Ds4 
	BYTE	W24
	BYTE		        Cs4 
	BYTE		N24     En4 
	BYTE	W24
	BYTE		        As3 
	BYTE		N24     Cs4 
	BYTE	W24
	BYTE		        Gs3 
	BYTE		N24     Bn3 
	BYTE	W24
	BYTE	PEND
// 068   ----------------------------------------
	BYTE	PATT
	 POIN2	DeltaruneTheWorldRevolvingPikmin1211_7_064
// 069   ----------------------------------------
	BYTE	PATT
	 POIN2	DeltaruneTheWorldRevolvingPikmin1211_7_065
// 070   ----------------------------------------
	BYTE	PATT
	 POIN2	DeltaruneTheWorldRevolvingPikmin1211_7_066
// 071   ----------------------------------------
	BYTE	PATT
	 POIN2	DeltaruneTheWorldRevolvingPikmin1211_7_067
// 072   ----------------------------------------
	BYTE	PATT
	 POIN2	DeltaruneTheWorldRevolvingPikmin1211_7_064
// 073   ----------------------------------------
	BYTE	PATT
	 POIN2	DeltaruneTheWorldRevolvingPikmin1211_7_065
// 074   ----------------------------------------
	BYTE	PATT
	 POIN2	DeltaruneTheWorldRevolvingPikmin1211_7_066
// 075   ----------------------------------------
	BYTE	PATT
	 POIN2	DeltaruneTheWorldRevolvingPikmin1211_7_067
// 076   ----------------------------------------
	BYTE	PATT
	 POIN2	DeltaruneTheWorldRevolvingPikmin1211_7_064
// 077   ----------------------------------------
	BYTE	PATT
	 POIN2	DeltaruneTheWorldRevolvingPikmin1211_7_065
// 078   ----------------------------------------
	BYTE	PATT
	 POIN2	DeltaruneTheWorldRevolvingPikmin1211_7_066
// 079   ----------------------------------------
	BYTE	W96
// 080   ----------------------------------------
	BYTE		BEND    c_v-2
	BYTE	W05
	BYTE	GoTo
	 POIN2	DeltaruneTheWorldRevolvingPikmin1211_7_B1
DeltaruneTheWorldRevolvingPikmin1211_7_B2:
	BYTE	W48
	BYTE		BEND    c_v-2
	BYTE	FINE

//**************** Track 8 (Midi-Chn.8) ****************//

DeltaruneTheWorldRevolvingPikmin1211_8:
	BYTE	KEYSH   DeltaruneTheWorldRevolvingPikmin1211_key+0
// 000   ----------------------------------------
	BYTE		VOICE   75
	BYTE		PAN     c_v+16
	BYTE		VOL     100*DeltaruneTheWorldRevolvingPikmin1211_mvl/mxv
	BYTE		BEND    c_v-2
	BYTE	W96
// 001   ----------------------------------------
	BYTE	W96
// 002   ----------------------------------------
	BYTE	W96
// 003   ----------------------------------------
	BYTE	W96
// 004   ----------------------------------------
	BYTE	W96
// 005   ----------------------------------------
	BYTE	W96
// 006   ----------------------------------------
	BYTE	W96
// 007   ----------------------------------------
	BYTE	W96
// 008   ----------------------------------------
	BYTE	W96
// 009   ----------------------------------------
	BYTE	W96
// 010   ----------------------------------------
	BYTE	W96
// 011   ----------------------------------------
	BYTE	W96
// 012   ----------------------------------------
	BYTE	W96
// 013   ----------------------------------------
	BYTE	W96
// 014   ----------------------------------------
	BYTE	W96
// 015   ----------------------------------------
	BYTE	W92
DeltaruneTheWorldRevolvingPikmin1211_8_B1:
	BYTE	W04
// 016   ----------------------------------------
	BYTE		N84     Bn3   v096
	BYTE	W96
// 017   ----------------------------------------
DeltaruneTheWorldRevolvingPikmin1211_8_017:
	BYTE	W12
	BYTE		N12     Bn3   v096
	BYTE	W12
	BYTE		        As3 
	BYTE	W12
	BYTE		        Bn3 
	BYTE	W12
	BYTE		N24     Fs4 
	BYTE	W24
	BYTE		N12     As3 
	BYTE	W12
	BYTE		N96     Bn3 
	BYTE	W12
	BYTE	PEND
// 018   ----------------------------------------
	BYTE	W96
// 019   ----------------------------------------
DeltaruneTheWorldRevolvingPikmin1211_8_019:
	BYTE	W12
	BYTE		N12     Bn3   v096
	BYTE	W12
	BYTE		        As3 
	BYTE	W12
	BYTE		        Gs3 
	BYTE	W12
	BYTE		N18     Fs3 
	BYTE	W24
	BYTE		        As3 
	BYTE	W24
	BYTE	PEND
// 020   ----------------------------------------
DeltaruneTheWorldRevolvingPikmin1211_8_020:
	BYTE		N12     Bn3   v096
	BYTE	W12
	BYTE		        As3 
	BYTE	W12
	BYTE		        Bn3 
	BYTE	W12
	BYTE		N30     Fs4 
	BYTE	W36
	BYTE		N12   
	BYTE	W12
	BYTE		        Gs4 
	BYTE	W12
	BYTE	PEND
// 021   ----------------------------------------
DeltaruneTheWorldRevolvingPikmin1211_8_021:
	BYTE		N18     Fs4   v096
	BYTE	W24
	BYTE		N12     En4 
	BYTE	W12
	BYTE		N30     Ds4 
	BYTE	W36
	BYTE		N24     Bn3 
	BYTE	W24
	BYTE	PEND
// 022   ----------------------------------------
DeltaruneTheWorldRevolvingPikmin1211_8_022:
	BYTE		N30     Cs4   v096
	BYTE	W36
	BYTE		N36     Gs3 
	BYTE	W36
	BYTE		N24     Cs4 
	BYTE	W24
	BYTE	PEND
// 023   ----------------------------------------
DeltaruneTheWorldRevolvingPikmin1211_8_023:
	BYTE		N24     Ds4   v096
	BYTE	W36
	BYTE		N06     En4 
	BYTE	W06
	BYTE		        Ds4 
	BYTE	W06
	BYTE		N42     Cs4 
	BYTE	W48
	BYTE	PEND
// 024   ----------------------------------------
	BYTE		N84     Bn3 
	BYTE	W96
// 025   ----------------------------------------
	BYTE	PATT
	 POIN2	DeltaruneTheWorldRevolvingPikmin1211_8_017
// 026   ----------------------------------------
	BYTE	W96
// 027   ----------------------------------------
	BYTE	PATT
	 POIN2	DeltaruneTheWorldRevolvingPikmin1211_8_019
// 028   ----------------------------------------
	BYTE	PATT
	 POIN2	DeltaruneTheWorldRevolvingPikmin1211_8_020
// 029   ----------------------------------------
	BYTE	PATT
	 POIN2	DeltaruneTheWorldRevolvingPikmin1211_8_021
// 030   ----------------------------------------
	BYTE	PATT
	 POIN2	DeltaruneTheWorldRevolvingPikmin1211_8_022
// 031   ----------------------------------------
	BYTE	PATT
	 POIN2	DeltaruneTheWorldRevolvingPikmin1211_8_023
// 032   ----------------------------------------
DeltaruneTheWorldRevolvingPikmin1211_8_032:
	BYTE	W12
	BYTE		N12     Bn3   v096
	BYTE	W12
	BYTE		        As3 
	BYTE	W12
	BYTE		        Bn3 
	BYTE	W12
	BYTE		        Fs4 
	BYTE	W12
	BYTE		        Bn3 
	BYTE	W12
	BYTE		        As3 
	BYTE	W12
	BYTE		        Bn3 
	BYTE	W12
	BYTE	PEND
// 033   ----------------------------------------
DeltaruneTheWorldRevolvingPikmin1211_8_033:
	BYTE		N12     Gs4   v096
	BYTE	W12
	BYTE		        Bn3 
	BYTE	W12
	BYTE		        As3 
	BYTE	W12
	BYTE		        Bn3 
	BYTE	W12
	BYTE		        As4 
	BYTE	W12
	BYTE		        Bn3 
	BYTE	W12
	BYTE		        As3 
	BYTE	W12
	BYTE		        Bn3 
	BYTE	W12
	BYTE	PEND
// 034   ----------------------------------------
DeltaruneTheWorldRevolvingPikmin1211_8_034:
	BYTE		N12     Bn4   v096
	BYTE	W12
	BYTE		N03     As4 
	BYTE	W06
	BYTE		N03   
	BYTE		N03     Bn4 
	BYTE	W06
	BYTE		N12     Gs4 
	BYTE	W12
	BYTE		        Fs4 
	BYTE	W12
	BYTE		        Ds4 
	BYTE	W12
	BYTE		        Bn3 
	BYTE	W12
	BYTE		        As3 
	BYTE	W12
	BYTE		        Bn3 
	BYTE	W12
	BYTE	PEND
// 035   ----------------------------------------
DeltaruneTheWorldRevolvingPikmin1211_8_035:
	BYTE		N12     Fn4   v096
	BYTE	W12
	BYTE		        As3 
	BYTE	W12
	BYTE		        Fs3 
	BYTE	W12
	BYTE		        As3 
	BYTE	W12
	BYTE		        Fs4 
	BYTE	W12
	BYTE		        As3 
	BYTE	W12
	BYTE		        Fs3 
	BYTE	W12
	BYTE		        As3 
	BYTE	W12
	BYTE	PEND
// 036   ----------------------------------------
DeltaruneTheWorldRevolvingPikmin1211_8_036:
	BYTE		N12     Gs4   v096
	BYTE	W12
	BYTE		N03     Fs4 
	BYTE	W06
	BYTE		N03   
	BYTE		N03     Gs4 
	BYTE	W06
	BYTE		N12     En4 
	BYTE	W12
	BYTE		        Ds4 
	BYTE	W12
	BYTE		        Cs4 
	BYTE	W12
	BYTE		        Bn3 
	BYTE	W12
	BYTE		        Cs4 
	BYTE	W12
	BYTE		        En4 
	BYTE	W12
	BYTE	PEND
// 037   ----------------------------------------
DeltaruneTheWorldRevolvingPikmin1211_8_037:
	BYTE		N12     Ds4   v096
	BYTE	W12
	BYTE		        Bn3 
	BYTE	W12
	BYTE		        Fs3 
	BYTE	W12
	BYTE		        Bn3 
	BYTE	W12
	BYTE		N24     Ds4 
	BYTE	W36
	BYTE		N12     Bn3 
	BYTE	W12
	BYTE	PEND
// 038   ----------------------------------------
DeltaruneTheWorldRevolvingPikmin1211_8_038:
	BYTE		N12     Cs4   v096
	BYTE	W12
	BYTE		        Gs3 
	BYTE	W12
	BYTE		        En3 
	BYTE	W12
	BYTE		        Gs3 
	BYTE	W12
	BYTE		N21     Cs4 
	BYTE	W24
	BYTE		        En4 
	BYTE	W24
	BYTE	PEND
// 039   ----------------------------------------
	BYTE		N30     Ds4 
	BYTE	W36
	BYTE		N06     En4 
	BYTE	W06
	BYTE		        Ds4 
	BYTE	W06
	BYTE		N42     Cs4 
	BYTE	W48
// 040   ----------------------------------------
	BYTE	PATT
	 POIN2	DeltaruneTheWorldRevolvingPikmin1211_8_032
// 041   ----------------------------------------
	BYTE	PATT
	 POIN2	DeltaruneTheWorldRevolvingPikmin1211_8_033
// 042   ----------------------------------------
	BYTE	PATT
	 POIN2	DeltaruneTheWorldRevolvingPikmin1211_8_034
// 043   ----------------------------------------
	BYTE	PATT
	 POIN2	DeltaruneTheWorldRevolvingPikmin1211_8_035
// 044   ----------------------------------------
	BYTE	PATT
	 POIN2	DeltaruneTheWorldRevolvingPikmin1211_8_036
// 045   ----------------------------------------
	BYTE	PATT
	 POIN2	DeltaruneTheWorldRevolvingPikmin1211_8_037
// 046   ----------------------------------------
	BYTE	PATT
	 POIN2	DeltaruneTheWorldRevolvingPikmin1211_8_038
// 047   ----------------------------------------
	BYTE		N30     Bn3   v080
	BYTE		N30     Ds4   v096
	BYTE	W36
	BYTE		N06     En4 
	BYTE	W06
	BYTE		        Ds4 
	BYTE	W06
	BYTE		N42     As3   v080
	BYTE		N42     Cs4   v096
	BYTE	W48
// 048   ----------------------------------------
	BYTE	W36
	BYTE		N06     Bn2   v108
	BYTE		N06     Gn3 
	BYTE		N06     Bn3 
	BYTE	W24
	BYTE		        Bn2 
	BYTE		N06     Gn3 
	BYTE		N06     Bn3 
	BYTE	W24
	BYTE		        Bn2 
	BYTE		N06     Gn3 
	BYTE		N06     Bn3 
	BYTE	W12
// 049   ----------------------------------------
DeltaruneTheWorldRevolvingPikmin1211_8_049:
	BYTE	W12
	BYTE		N06     Bn2   v108
	BYTE		N06     Gn3 
	BYTE		N06     Bn3 
	BYTE	W24
	BYTE		        Bn2 
	BYTE		N06     Gn3 
	BYTE		N06     Bn3 
	BYTE	W24
	BYTE		        Bn2 
	BYTE		N06     Gn3 
	BYTE		N06     Bn3 
	BYTE	W24
	BYTE		        Bn2 
	BYTE		N06     Gn3 
	BYTE		N06     Bn3 
	BYTE	W12
	BYTE	PEND
// 050   ----------------------------------------
DeltaruneTheWorldRevolvingPikmin1211_8_050:
	BYTE	W12
	BYTE		N06     Bn2   v108
	BYTE		N06     Fs3 
	BYTE		N06     Bn3 
	BYTE	W24
	BYTE		        Bn2 
	BYTE		N06     Fs3 
	BYTE		N06     Bn3 
	BYTE	W24
	BYTE		        Bn2 
	BYTE		N06     Fs3 
	BYTE		N06     Bn3 
	BYTE	W24
	BYTE		        Bn2 
	BYTE		N06     Fs3 
	BYTE		N06     Bn3 
	BYTE	W12
	BYTE	PEND
// 051   ----------------------------------------
DeltaruneTheWorldRevolvingPikmin1211_8_051:
	BYTE	W12
	BYTE		N06     As2   v108
	BYTE		N06     Fs3 
	BYTE		N06     As3 
	BYTE	W24
	BYTE		        As2 
	BYTE		N06     Fs3 
	BYTE		N06     As3 
	BYTE	W24
	BYTE		        As2 
	BYTE		N06     Fs3 
	BYTE		N06     As3 
	BYTE	W24
	BYTE		        As2 
	BYTE		N06     Fs3 
	BYTE		N06     As3 
	BYTE	W12
	BYTE	PEND
// 052   ----------------------------------------
	BYTE	PATT
	 POIN2	DeltaruneTheWorldRevolvingPikmin1211_8_049
// 053   ----------------------------------------
	BYTE	PATT
	 POIN2	DeltaruneTheWorldRevolvingPikmin1211_8_049
// 054   ----------------------------------------
	BYTE	PATT
	 POIN2	DeltaruneTheWorldRevolvingPikmin1211_8_050
// 055   ----------------------------------------
	BYTE	PATT
	 POIN2	DeltaruneTheWorldRevolvingPikmin1211_8_051
// 056   ----------------------------------------
	BYTE	PATT
	 POIN2	DeltaruneTheWorldRevolvingPikmin1211_8_049
// 057   ----------------------------------------
	BYTE	PATT
	 POIN2	DeltaruneTheWorldRevolvingPikmin1211_8_049
// 058   ----------------------------------------
	BYTE	PATT
	 POIN2	DeltaruneTheWorldRevolvingPikmin1211_8_050
// 059   ----------------------------------------
	BYTE	PATT
	 POIN2	DeltaruneTheWorldRevolvingPikmin1211_8_051
// 060   ----------------------------------------
	BYTE	PATT
	 POIN2	DeltaruneTheWorldRevolvingPikmin1211_8_049
// 061   ----------------------------------------
	BYTE	PATT
	 POIN2	DeltaruneTheWorldRevolvingPikmin1211_8_049
// 062   ----------------------------------------
	BYTE	PATT
	 POIN2	DeltaruneTheWorldRevolvingPikmin1211_8_050
// 063   ----------------------------------------
	BYTE	PATT
	 POIN2	DeltaruneTheWorldRevolvingPikmin1211_8_051
// 064   ----------------------------------------
	BYTE	W96
// 065   ----------------------------------------
	BYTE	W96
// 066   ----------------------------------------
	BYTE	W96
// 067   ----------------------------------------
	BYTE	W96
// 068   ----------------------------------------
	BYTE	W96
// 069   ----------------------------------------
	BYTE	W96
// 070   ----------------------------------------
	BYTE	W96
// 071   ----------------------------------------
	BYTE	W96
// 072   ----------------------------------------
	BYTE	W96
// 073   ----------------------------------------
	BYTE	W96
// 074   ----------------------------------------
	BYTE	W96
// 075   ----------------------------------------
	BYTE	W96
// 076   ----------------------------------------
	BYTE	W96
// 077   ----------------------------------------
	BYTE	W96
// 078   ----------------------------------------
	BYTE	W96
// 079   ----------------------------------------
	BYTE		N24     Bn3   v092
	BYTE		N24     Ds4 
	BYTE	W24
	BYTE		        Cs4 
	BYTE		N24     En4 
	BYTE	W24
	BYTE		        As3 
	BYTE		N24     Cs4 
	BYTE	W24
	BYTE		N23     En3 
	BYTE		N23     Bn3 
	BYTE	W24
// 080   ----------------------------------------
	BYTE		BEND    c_v-2
	BYTE	W05
	BYTE	GoTo
	 POIN2	DeltaruneTheWorldRevolvingPikmin1211_8_B1
DeltaruneTheWorldRevolvingPikmin1211_8_B2:
	BYTE	W48
	BYTE		BEND    c_v-2
	BYTE	FINE

//**************** Track 9 (Midi-Chn.9) ****************//

DeltaruneTheWorldRevolvingPikmin1211_9:
	BYTE	KEYSH   DeltaruneTheWorldRevolvingPikmin1211_key+0
// 000   ----------------------------------------
	BYTE		VOICE   73
	BYTE		PAN     c_v+0
	BYTE		VOL     100*DeltaruneTheWorldRevolvingPikmin1211_mvl/mxv
	BYTE		BEND    c_v-2
	BYTE	W96
// 001   ----------------------------------------
	BYTE	W96
// 002   ----------------------------------------
	BYTE	W96
// 003   ----------------------------------------
	BYTE	W96
// 004   ----------------------------------------
	BYTE	W96
// 005   ----------------------------------------
	BYTE	W96
// 006   ----------------------------------------
	BYTE	W96
// 007   ----------------------------------------
	BYTE	W96
// 008   ----------------------------------------
	BYTE	W96
// 009   ----------------------------------------
	BYTE	W96
// 010   ----------------------------------------
	BYTE	W96
// 011   ----------------------------------------
	BYTE	W96
// 012   ----------------------------------------
	BYTE	W96
// 013   ----------------------------------------
	BYTE	W96
// 014   ----------------------------------------
	BYTE	W96
// 015   ----------------------------------------
	BYTE	W92
DeltaruneTheWorldRevolvingPikmin1211_9_B1:
	BYTE	W04
// 016   ----------------------------------------
DeltaruneTheWorldRevolvingPikmin1211_9_016:
	BYTE		PAN     c_v+62
	BYTE		N06     En2   v100
	BYTE	W01
	BYTE		PAN     c_v+59
	BYTE	W01
	BYTE		        c_v+56
	BYTE	W01
	BYTE		        c_v+54
	BYTE	W01
	BYTE		        c_v+51
	BYTE	W01
	BYTE		        c_v+48
	BYTE	W01
	BYTE		        c_v+46
	BYTE		N06     Bn2 
	BYTE	W01
	BYTE		PAN     c_v+43
	BYTE	W01
	BYTE		        c_v+40
	BYTE	W01
	BYTE		        c_v+38
	BYTE	W01
	BYTE		        c_v+35
	BYTE	W01
	BYTE		        c_v+32
	BYTE	W01
	BYTE		        c_v+30
	BYTE		N06     En3 
	BYTE	W01
	BYTE		PAN     c_v+27
	BYTE	W01
	BYTE		        c_v+24
	BYTE	W01
	BYTE		        c_v+22
	BYTE	W01
	BYTE		        c_v+19
	BYTE	W01
	BYTE		        c_v+16
	BYTE	W01
	BYTE		        c_v+14
	BYTE		N06     Gs3 
	BYTE	W01
	BYTE		PAN     c_v+11
	BYTE	W01
	BYTE		        c_v+8
	BYTE	W01
	BYTE		        c_v+6
	BYTE	W01
	BYTE		        c_v+3
	BYTE	W01
	BYTE		        c_v+0
	BYTE	W01
	BYTE		        c_v-2
	BYTE		N06     Bn3 
	BYTE	W01
	BYTE		PAN     c_v-4
	BYTE	W01
	BYTE		        c_v-7
	BYTE	W01
	BYTE		        c_v-10
	BYTE	W01
	BYTE		        c_v-12
	BYTE	W01
	BYTE		        c_v-15
	BYTE	W01
	BYTE		        c_v-18
	BYTE		N06     Gs3 
	BYTE	W01
	BYTE		PAN     c_v-20
	BYTE	W01
	BYTE		        c_v-23
	BYTE	W01
	BYTE		        c_v-26
	BYTE	W01
	BYTE		        c_v-28
	BYTE	W01
	BYTE		        c_v-31
	BYTE	W01
	BYTE		        c_v-34
	BYTE		N06     En3 
	BYTE	W01
	BYTE		PAN     c_v-36
	BYTE	W01
	BYTE		        c_v-39
	BYTE	W01
	BYTE		        c_v-42
	BYTE	W01
	BYTE		        c_v-44
	BYTE	W01
	BYTE		        c_v-47
	BYTE	W01
	BYTE		        c_v-50
	BYTE		N06     Bn2 
	BYTE	W01
	BYTE		PAN     c_v-52
	BYTE	W01
	BYTE		        c_v-55
	BYTE	W01
	BYTE		        c_v-58
	BYTE	W01
	BYTE		        c_v-60
	BYTE	W01
	BYTE		        c_v-63
	BYTE	W01
	BYTE		        c_v-62
	BYTE		N06     En2 
	BYTE	W01
	BYTE		PAN     c_v-59
	BYTE	W01
	BYTE		        c_v-56
	BYTE	W01
	BYTE		        c_v-54
	BYTE	W01
	BYTE		        c_v-51
	BYTE	W01
	BYTE		        c_v-48
	BYTE	W01
	BYTE		        c_v-46
	BYTE		N06     Bn2 
	BYTE	W01
	BYTE		PAN     c_v-43
	BYTE	W01
	BYTE		        c_v-40
	BYTE	W01
	BYTE		        c_v-38
	BYTE	W01
	BYTE		        c_v-35
	BYTE	W01
	BYTE		        c_v-32
	BYTE	W01
	BYTE		        c_v-30
	BYTE		N06     En3 
	BYTE	W01
	BYTE		PAN     c_v-27
	BYTE	W01
	BYTE		        c_v-24
	BYTE	W01
	BYTE		        c_v-22
	BYTE	W01
	BYTE		        c_v-19
	BYTE	W01
	BYTE		        c_v-16
	BYTE	W01
	BYTE		        c_v-14
	BYTE		N06     Gs3 
	BYTE	W01
	BYTE		PAN     c_v-11
	BYTE	W01
	BYTE		        c_v-8
	BYTE	W01
	BYTE		        c_v-6
	BYTE	W01
	BYTE		        c_v-3
	BYTE	W01
	BYTE		        c_v+0
	BYTE	W01
	BYTE		        c_v+1
	BYTE		N06     Bn3 
	BYTE	W01
	BYTE		PAN     c_v+4
	BYTE	W01
	BYTE		        c_v+7
	BYTE	W01
	BYTE		        c_v+9
	BYTE	W01
	BYTE		        c_v+12
	BYTE	W01
	BYTE		        c_v+15
	BYTE	W01
	BYTE		        c_v+17
	BYTE		N06     Gs3 
	BYTE	W01
	BYTE		PAN     c_v+20
	BYTE	W01
	BYTE		        c_v+23
	BYTE	W01
	BYTE		        c_v+25
	BYTE	W01
	BYTE		        c_v+28
	BYTE	W01
	BYTE		        c_v+31
	BYTE	W01
	BYTE		        c_v+33
	BYTE		N06     En3 
	BYTE	W01
	BYTE		PAN     c_v+36
	BYTE	W01
	BYTE		        c_v+39
	BYTE	W01
	BYTE		        c_v+41
	BYTE	W01
	BYTE		        c_v+44
	BYTE	W01
	BYTE		        c_v+47
	BYTE	W01
	BYTE		        c_v+49
	BYTE		N06     Bn2 
	BYTE	W01
	BYTE		PAN     c_v+52
	BYTE	W01
	BYTE		        c_v+55
	BYTE	W01
	BYTE		        c_v+57
	BYTE	W01
	BYTE		        c_v+60
	BYTE	W01
	BYTE		        c_v+63
	BYTE	W01
	BYTE	PEND
// 017   ----------------------------------------
DeltaruneTheWorldRevolvingPikmin1211_9_017:
	BYTE		PAN     c_v+61
	BYTE		N06     Fs2   v100
	BYTE	W01
	BYTE		PAN     c_v+59
	BYTE	W01
	BYTE		        c_v+56
	BYTE	W01
	BYTE		        c_v+53
	BYTE	W01
	BYTE		        c_v+51
	BYTE	W01
	BYTE		        c_v+48
	BYTE	W01
	BYTE		        c_v+45
	BYTE		N06     Cs3 
	BYTE	W01
	BYTE		PAN     c_v+43
	BYTE	W01
	BYTE		        c_v+40
	BYTE	W01
	BYTE		        c_v+37
	BYTE	W01
	BYTE		        c_v+35
	BYTE	W01
	BYTE		        c_v+32
	BYTE	W01
	BYTE		        c_v+29
	BYTE		N06     Fs3 
	BYTE	W01
	BYTE		PAN     c_v+27
	BYTE	W01
	BYTE		        c_v+24
	BYTE	W01
	BYTE		        c_v+21
	BYTE	W01
	BYTE		        c_v+19
	BYTE	W01
	BYTE		        c_v+16
	BYTE	W01
	BYTE		        c_v+13
	BYTE		N06     As3 
	BYTE	W01
	BYTE		PAN     c_v+11
	BYTE	W01
	BYTE		        c_v+8
	BYTE	W01
	BYTE		        c_v+5
	BYTE	W01
	BYTE		        c_v+3
	BYTE	W01
	BYTE		        c_v+0
	BYTE	W01
	BYTE		        c_v-2
	BYTE		N06     Cs4 
	BYTE	W01
	BYTE		PAN     c_v-4
	BYTE	W01
	BYTE		        c_v-7
	BYTE	W01
	BYTE		        c_v-10
	BYTE	W01
	BYTE		        c_v-12
	BYTE	W01
	BYTE		        c_v-15
	BYTE	W01
	BYTE		        c_v-18
	BYTE		N06     As3 
	BYTE	W01
	BYTE		PAN     c_v-20
	BYTE	W01
	BYTE		        c_v-23
	BYTE	W01
	BYTE		        c_v-26
	BYTE	W01
	BYTE		        c_v-28
	BYTE	W01
	BYTE		        c_v-31
	BYTE	W01
	BYTE		        c_v-34
	BYTE		N06     Fs3 
	BYTE	W01
	BYTE		PAN     c_v-36
	BYTE	W01
	BYTE		        c_v-39
	BYTE	W01
	BYTE		        c_v-42
	BYTE	W01
	BYTE		        c_v-44
	BYTE	W01
	BYTE		        c_v-47
	BYTE	W01
	BYTE		        c_v-50
	BYTE		N06     Cs3 
	BYTE	W01
	BYTE		PAN     c_v-52
	BYTE	W01
	BYTE		        c_v-55
	BYTE	W01
	BYTE		        c_v-58
	BYTE	W01
	BYTE		        c_v-60
	BYTE	W01
	BYTE		        c_v-63
	BYTE	W01
	BYTE		        c_v-62
	BYTE		N06     Fs2 
	BYTE	W01
	BYTE		PAN     c_v-59
	BYTE	W01
	BYTE		        c_v-56
	BYTE	W01
	BYTE		        c_v-54
	BYTE	W01
	BYTE		        c_v-51
	BYTE	W01
	BYTE		        c_v-48
	BYTE	W01
	BYTE		        c_v-46
	BYTE		N06     Cs3 
	BYTE	W01
	BYTE		PAN     c_v-43
	BYTE	W01
	BYTE		        c_v-40
	BYTE	W01
	BYTE		        c_v-38
	BYTE	W01
	BYTE		        c_v-35
	BYTE	W01
	BYTE		        c_v-32
	BYTE	W01
	BYTE		        c_v-30
	BYTE		N06     Fs3 
	BYTE	W01
	BYTE		PAN     c_v-27
	BYTE	W01
	BYTE		        c_v-24
	BYTE	W01
	BYTE		        c_v-22
	BYTE	W01
	BYTE		        c_v-19
	BYTE	W01
	BYTE		        c_v-16
	BYTE	W01
	BYTE		        c_v-14
	BYTE		N06     As3 
	BYTE	W01
	BYTE		PAN     c_v-11
	BYTE	W01
	BYTE		        c_v-8
	BYTE	W01
	BYTE		        c_v-6
	BYTE	W01
	BYTE		        c_v-3
	BYTE	W01
	BYTE		        c_v+0
	BYTE	W01
	BYTE		        c_v+2
	BYTE		N06     Cs4 
	BYTE	W01
	BYTE		PAN     c_v+4
	BYTE	W01
	BYTE		        c_v+7
	BYTE	W01
	BYTE		        c_v+10
	BYTE	W01
	BYTE		        c_v+12
	BYTE	W01
	BYTE		        c_v+15
	BYTE	W01
	BYTE		        c_v+18
	BYTE		N06     As3 
	BYTE	W01
	BYTE		PAN     c_v+20
	BYTE	W01
	BYTE		        c_v+23
	BYTE	W01
	BYTE		        c_v+26
	BYTE	W01
	BYTE		        c_v+28
	BYTE	W01
	BYTE		        c_v+31
	BYTE	W01
	BYTE		        c_v+34
	BYTE		N06     Fs3 
	BYTE	W01
	BYTE		PAN     c_v+36
	BYTE	W01
	BYTE		        c_v+39
	BYTE	W01
	BYTE		        c_v+42
	BYTE	W01
	BYTE		        c_v+44
	BYTE	W01
	BYTE		        c_v+47
	BYTE	W01
	BYTE		        c_v+50
	BYTE		N06     Cs3 
	BYTE	W01
	BYTE		PAN     c_v+52
	BYTE	W01
	BYTE		        c_v+55
	BYTE	W01
	BYTE		        c_v+58
	BYTE	W01
	BYTE		        c_v+60
	BYTE	W01
	BYTE		        c_v+63
	BYTE	W01
	BYTE	PEND
// 018   ----------------------------------------
DeltaruneTheWorldRevolvingPikmin1211_9_018:
	BYTE		PAN     c_v+62
	BYTE		N06     Gs2   v100
	BYTE	W01
	BYTE		PAN     c_v+59
	BYTE	W01
	BYTE		        c_v+56
	BYTE	W01
	BYTE		        c_v+54
	BYTE	W01
	BYTE		        c_v+51
	BYTE	W01
	BYTE		        c_v+48
	BYTE	W01
	BYTE		        c_v+46
	BYTE		N06     Ds3 
	BYTE	W01
	BYTE		PAN     c_v+43
	BYTE	W01
	BYTE		        c_v+40
	BYTE	W01
	BYTE		        c_v+38
	BYTE	W01
	BYTE		        c_v+35
	BYTE	W01
	BYTE		        c_v+32
	BYTE	W01
	BYTE		        c_v+30
	BYTE		N06     Gs3 
	BYTE	W01
	BYTE		PAN     c_v+27
	BYTE	W01
	BYTE		        c_v+24
	BYTE	W01
	BYTE		        c_v+22
	BYTE	W01
	BYTE		        c_v+19
	BYTE	W01
	BYTE		        c_v+16
	BYTE	W01
	BYTE		        c_v+14
	BYTE		N06     Bn3 
	BYTE	W01
	BYTE		PAN     c_v+11
	BYTE	W01
	BYTE		        c_v+8
	BYTE	W01
	BYTE		        c_v+6
	BYTE	W01
	BYTE		        c_v+3
	BYTE	W01
	BYTE		        c_v+0
	BYTE	W01
	BYTE		        c_v-2
	BYTE		N06     Ds4 
	BYTE	W01
	BYTE		PAN     c_v-4
	BYTE	W01
	BYTE		        c_v-7
	BYTE	W01
	BYTE		        c_v-10
	BYTE	W01
	BYTE		        c_v-12
	BYTE	W01
	BYTE		        c_v-15
	BYTE	W01
	BYTE		        c_v-18
	BYTE		N06     Bn3 
	BYTE	W01
	BYTE		PAN     c_v-20
	BYTE	W01
	BYTE		        c_v-23
	BYTE	W01
	BYTE		        c_v-26
	BYTE	W01
	BYTE		        c_v-28
	BYTE	W01
	BYTE		        c_v-31
	BYTE	W01
	BYTE		        c_v-34
	BYTE		N06     Gs3 
	BYTE	W01
	BYTE		PAN     c_v-36
	BYTE	W01
	BYTE		        c_v-39
	BYTE	W01
	BYTE		        c_v-42
	BYTE	W01
	BYTE		        c_v-44
	BYTE	W01
	BYTE		        c_v-47
	BYTE	W01
	BYTE		        c_v-50
	BYTE		N06     Ds3 
	BYTE	W01
	BYTE		PAN     c_v-52
	BYTE	W01
	BYTE		        c_v-55
	BYTE	W01
	BYTE		        c_v-58
	BYTE	W01
	BYTE		        c_v-60
	BYTE	W01
	BYTE		        c_v-63
	BYTE	W01
	BYTE		        c_v-62
	BYTE		N06     Gs2 
	BYTE	W01
	BYTE		PAN     c_v-59
	BYTE	W01
	BYTE		        c_v-56
	BYTE	W01
	BYTE		        c_v-54
	BYTE	W01
	BYTE		        c_v-51
	BYTE	W01
	BYTE		        c_v-48
	BYTE	W01
	BYTE		        c_v-46
	BYTE		N06     Ds3 
	BYTE	W01
	BYTE		PAN     c_v-43
	BYTE	W01
	BYTE		        c_v-40
	BYTE	W01
	BYTE		        c_v-38
	BYTE	W01
	BYTE		        c_v-35
	BYTE	W01
	BYTE		        c_v-32
	BYTE	W01
	BYTE		        c_v-30
	BYTE		N06     Gs3 
	BYTE	W01
	BYTE		PAN     c_v-27
	BYTE	W01
	BYTE		        c_v-24
	BYTE	W01
	BYTE		        c_v-22
	BYTE	W01
	BYTE		        c_v-19
	BYTE	W01
	BYTE		        c_v-16
	BYTE	W01
	BYTE		        c_v-14
	BYTE		N06     Bn3 
	BYTE	W01
	BYTE		PAN     c_v-11
	BYTE	W01
	BYTE		        c_v-8
	BYTE	W01
	BYTE		        c_v-6
	BYTE	W01
	BYTE		        c_v-3
	BYTE	W01
	BYTE		        c_v+0
	BYTE	W01
	BYTE		        c_v+1
	BYTE		N06     Ds4 
	BYTE	W01
	BYTE		PAN     c_v+4
	BYTE	W01
	BYTE		        c_v+7
	BYTE	W01
	BYTE		        c_v+9
	BYTE	W01
	BYTE		        c_v+12
	BYTE	W01
	BYTE		        c_v+15
	BYTE	W01
	BYTE		        c_v+17
	BYTE		N06     Bn3 
	BYTE	W01
	BYTE		PAN     c_v+20
	BYTE	W01
	BYTE		        c_v+23
	BYTE	W01
	BYTE		        c_v+25
	BYTE	W01
	BYTE		        c_v+28
	BYTE	W01
	BYTE		        c_v+31
	BYTE	W01
	BYTE		        c_v+33
	BYTE		N06     Gs3 
	BYTE	W01
	BYTE		PAN     c_v+36
	BYTE	W01
	BYTE		        c_v+39
	BYTE	W01
	BYTE		        c_v+41
	BYTE	W01
	BYTE		        c_v+44
	BYTE	W01
	BYTE		        c_v+47
	BYTE	W01
	BYTE		        c_v+49
	BYTE		N06     Ds3 
	BYTE	W01
	BYTE		PAN     c_v+52
	BYTE	W01
	BYTE		        c_v+55
	BYTE	W01
	BYTE		        c_v+57
	BYTE	W01
	BYTE		        c_v+60
	BYTE	W01
	BYTE		        c_v+63
	BYTE	W01
	BYTE	PEND
// 019   ----------------------------------------
DeltaruneTheWorldRevolvingPikmin1211_9_019:
	BYTE		PAN     c_v+61
	BYTE		N06     Fs2   v100
	BYTE	W01
	BYTE		PAN     c_v+59
	BYTE	W01
	BYTE		        c_v+56
	BYTE	W01
	BYTE		        c_v+53
	BYTE	W01
	BYTE		        c_v+51
	BYTE	W01
	BYTE		        c_v+48
	BYTE	W01
	BYTE		        c_v+45
	BYTE		N06     As2 
	BYTE	W01
	BYTE		PAN     c_v+43
	BYTE	W01
	BYTE		        c_v+40
	BYTE	W01
	BYTE		        c_v+37
	BYTE	W01
	BYTE		        c_v+35
	BYTE	W01
	BYTE		        c_v+32
	BYTE	W01
	BYTE		        c_v+29
	BYTE		N06     Ds3 
	BYTE	W01
	BYTE		PAN     c_v+27
	BYTE	W01
	BYTE		        c_v+24
	BYTE	W01
	BYTE		        c_v+21
	BYTE	W01
	BYTE		        c_v+19
	BYTE	W01
	BYTE		        c_v+16
	BYTE	W01
	BYTE		        c_v+13
	BYTE		N06     Fs3 
	BYTE	W01
	BYTE		PAN     c_v+11
	BYTE	W01
	BYTE		        c_v+8
	BYTE	W01
	BYTE		        c_v+5
	BYTE	W01
	BYTE		        c_v+3
	BYTE	W01
	BYTE		        c_v+0
	BYTE	W01
	BYTE		        c_v-2
	BYTE		N06     As3 
	BYTE	W01
	BYTE		PAN     c_v-4
	BYTE	W01
	BYTE		        c_v-7
	BYTE	W01
	BYTE		        c_v-10
	BYTE	W01
	BYTE		        c_v-12
	BYTE	W01
	BYTE		        c_v-15
	BYTE	W01
	BYTE		        c_v-18
	BYTE		N06     Fs3 
	BYTE	W01
	BYTE		PAN     c_v-20
	BYTE	W01
	BYTE		        c_v-23
	BYTE	W01
	BYTE		        c_v-26
	BYTE	W01
	BYTE		        c_v-28
	BYTE	W01
	BYTE		        c_v-31
	BYTE	W01
	BYTE		        c_v-34
	BYTE		N06     Ds3 
	BYTE	W01
	BYTE		PAN     c_v-36
	BYTE	W01
	BYTE		        c_v-39
	BYTE	W01
	BYTE		        c_v-42
	BYTE	W01
	BYTE		        c_v-44
	BYTE	W01
	BYTE		        c_v-47
	BYTE	W01
	BYTE		        c_v-50
	BYTE		N06     As2 
	BYTE	W01
	BYTE		PAN     c_v-52
	BYTE	W01
	BYTE		        c_v-55
	BYTE	W01
	BYTE		        c_v-58
	BYTE	W01
	BYTE		        c_v-60
	BYTE	W01
	BYTE		        c_v-63
	BYTE	W01
	BYTE		        c_v-62
	BYTE		N06     Fs2 
	BYTE	W01
	BYTE		PAN     c_v-59
	BYTE	W01
	BYTE		        c_v-56
	BYTE	W01
	BYTE		        c_v-54
	BYTE	W01
	BYTE		        c_v-51
	BYTE	W01
	BYTE		        c_v-48
	BYTE	W01
	BYTE		        c_v-46
	BYTE		N06     As2 
	BYTE	W01
	BYTE		PAN     c_v-43
	BYTE	W01
	BYTE		        c_v-40
	BYTE	W01
	BYTE		        c_v-38
	BYTE	W01
	BYTE		        c_v-35
	BYTE	W01
	BYTE		        c_v-32
	BYTE	W01
	BYTE		        c_v-30
	BYTE		N06     Ds3 
	BYTE	W01
	BYTE		PAN     c_v-27
	BYTE	W01
	BYTE		        c_v-24
	BYTE	W01
	BYTE		        c_v-22
	BYTE	W01
	BYTE		        c_v-19
	BYTE	W01
	BYTE		        c_v-16
	BYTE	W01
	BYTE		        c_v-14
	BYTE		N06     Fs3 
	BYTE	W01
	BYTE		PAN     c_v-11
	BYTE	W01
	BYTE		        c_v-8
	BYTE	W01
	BYTE		        c_v-6
	BYTE	W01
	BYTE		        c_v-3
	BYTE	W01
	BYTE		        c_v+0
	BYTE	W01
	BYTE		        c_v+2
	BYTE		N06     As3 
	BYTE	W01
	BYTE		PAN     c_v+4
	BYTE	W01
	BYTE		        c_v+7
	BYTE	W01
	BYTE		        c_v+10
	BYTE	W01
	BYTE		        c_v+12
	BYTE	W01
	BYTE		        c_v+15
	BYTE	W01
	BYTE		        c_v+18
	BYTE		N06     Fs3 
	BYTE	W01
	BYTE		PAN     c_v+20
	BYTE	W01
	BYTE		        c_v+23
	BYTE	W01
	BYTE		        c_v+26
	BYTE	W01
	BYTE		        c_v+28
	BYTE	W01
	BYTE		        c_v+31
	BYTE	W01
	BYTE		        c_v+34
	BYTE		N06     Ds3 
	BYTE	W01
	BYTE		PAN     c_v+36
	BYTE	W01
	BYTE		        c_v+39
	BYTE	W01
	BYTE		        c_v+42
	BYTE	W01
	BYTE		        c_v+44
	BYTE	W01
	BYTE		        c_v+47
	BYTE	W01
	BYTE		        c_v+50
	BYTE		N06     As2 
	BYTE	W01
	BYTE		PAN     c_v+52
	BYTE	W01
	BYTE		        c_v+55
	BYTE	W01
	BYTE		        c_v+58
	BYTE	W01
	BYTE		        c_v+60
	BYTE	W01
	BYTE		        c_v+63
	BYTE	W01
	BYTE	PEND
// 020   ----------------------------------------
	BYTE	PATT
	 POIN2	DeltaruneTheWorldRevolvingPikmin1211_9_016
// 021   ----------------------------------------
DeltaruneTheWorldRevolvingPikmin1211_9_021:
	BYTE		PAN     c_v+61
	BYTE		N06     Bn2   v100
	BYTE	W01
	BYTE		PAN     c_v+59
	BYTE	W01
	BYTE		        c_v+56
	BYTE	W01
	BYTE		        c_v+53
	BYTE	W01
	BYTE		        c_v+51
	BYTE	W01
	BYTE		        c_v+48
	BYTE	W01
	BYTE		        c_v+45
	BYTE		N06     Fs3 
	BYTE	W01
	BYTE		PAN     c_v+43
	BYTE	W01
	BYTE		        c_v+40
	BYTE	W01
	BYTE		        c_v+37
	BYTE	W01
	BYTE		        c_v+35
	BYTE	W01
	BYTE		        c_v+32
	BYTE	W01
	BYTE		        c_v+29
	BYTE		N06     Bn3 
	BYTE	W01
	BYTE		PAN     c_v+27
	BYTE	W01
	BYTE		        c_v+24
	BYTE	W01
	BYTE		        c_v+21
	BYTE	W01
	BYTE		        c_v+19
	BYTE	W01
	BYTE		        c_v+16
	BYTE	W01
	BYTE		        c_v+13
	BYTE		N06     Ds4 
	BYTE	W01
	BYTE		PAN     c_v+11
	BYTE	W01
	BYTE		        c_v+8
	BYTE	W01
	BYTE		        c_v+5
	BYTE	W01
	BYTE		        c_v+3
	BYTE	W01
	BYTE		        c_v+0
	BYTE	W01
	BYTE		        c_v-2
	BYTE		N06     Fs4 
	BYTE	W01
	BYTE		PAN     c_v-4
	BYTE	W01
	BYTE		        c_v-7
	BYTE	W01
	BYTE		        c_v-10
	BYTE	W01
	BYTE		        c_v-12
	BYTE	W01
	BYTE		        c_v-15
	BYTE	W01
	BYTE		        c_v-18
	BYTE		N06     Ds4 
	BYTE	W01
	BYTE		PAN     c_v-20
	BYTE	W01
	BYTE		        c_v-23
	BYTE	W01
	BYTE		        c_v-26
	BYTE	W01
	BYTE		        c_v-28
	BYTE	W01
	BYTE		        c_v-31
	BYTE	W01
	BYTE		        c_v-34
	BYTE		N06     Bn3 
	BYTE	W01
	BYTE		PAN     c_v-36
	BYTE	W01
	BYTE		        c_v-39
	BYTE	W01
	BYTE		        c_v-42
	BYTE	W01
	BYTE		        c_v-44
	BYTE	W01
	BYTE		        c_v-47
	BYTE	W01
	BYTE		        c_v-50
	BYTE		N06     Fs3 
	BYTE	W01
	BYTE		PAN     c_v-52
	BYTE	W01
	BYTE		        c_v-55
	BYTE	W01
	BYTE		        c_v-58
	BYTE	W01
	BYTE		        c_v-60
	BYTE	W01
	BYTE		        c_v-63
	BYTE	W01
	BYTE		        c_v-62
	BYTE		N06     Bn2 
	BYTE	W01
	BYTE		PAN     c_v-59
	BYTE	W01
	BYTE		        c_v-56
	BYTE	W01
	BYTE		        c_v-54
	BYTE	W01
	BYTE		        c_v-51
	BYTE	W01
	BYTE		        c_v-48
	BYTE	W01
	BYTE		        c_v-46
	BYTE		N06     Fs3 
	BYTE	W01
	BYTE		PAN     c_v-43
	BYTE	W01
	BYTE		        c_v-40
	BYTE	W01
	BYTE		        c_v-38
	BYTE	W01
	BYTE		        c_v-35
	BYTE	W01
	BYTE		        c_v-32
	BYTE	W01
	BYTE		        c_v-30
	BYTE		N06     Bn3 
	BYTE	W01
	BYTE		PAN     c_v-27
	BYTE	W01
	BYTE		        c_v-24
	BYTE	W01
	BYTE		        c_v-22
	BYTE	W01
	BYTE		        c_v-19
	BYTE	W01
	BYTE		        c_v-16
	BYTE	W01
	BYTE		        c_v-14
	BYTE		N06     Ds4 
	BYTE	W01
	BYTE		PAN     c_v-11
	BYTE	W01
	BYTE		        c_v-8
	BYTE	W01
	BYTE		        c_v-6
	BYTE	W01
	BYTE		        c_v-3
	BYTE	W01
	BYTE		        c_v+0
	BYTE	W01
	BYTE		        c_v+2
	BYTE		N06     Fs4 
	BYTE	W01
	BYTE		PAN     c_v+4
	BYTE	W01
	BYTE		        c_v+7
	BYTE	W01
	BYTE		        c_v+10
	BYTE	W01
	BYTE		        c_v+12
	BYTE	W01
	BYTE		        c_v+15
	BYTE	W01
	BYTE		        c_v+18
	BYTE		N06     Ds4 
	BYTE	W01
	BYTE		PAN     c_v+20
	BYTE	W01
	BYTE		        c_v+23
	BYTE	W01
	BYTE		        c_v+26
	BYTE	W01
	BYTE		        c_v+28
	BYTE	W01
	BYTE		        c_v+31
	BYTE	W01
	BYTE		        c_v+34
	BYTE		N06     Bn3 
	BYTE	W01
	BYTE		PAN     c_v+36
	BYTE	W01
	BYTE		        c_v+39
	BYTE	W01
	BYTE		        c_v+42
	BYTE	W01
	BYTE		        c_v+44
	BYTE	W01
	BYTE		        c_v+47
	BYTE	W01
	BYTE		        c_v+50
	BYTE		N06     Fs3 
	BYTE	W01
	BYTE		PAN     c_v+52
	BYTE	W01
	BYTE		        c_v+55
	BYTE	W01
	BYTE		        c_v+58
	BYTE	W01
	BYTE		        c_v+60
	BYTE	W01
	BYTE		        c_v+63
	BYTE	W01
	BYTE	PEND
// 022   ----------------------------------------
DeltaruneTheWorldRevolvingPikmin1211_9_022:
	BYTE		PAN     c_v+62
	BYTE		N06     Cs3   v100
	BYTE	W01
	BYTE		PAN     c_v+59
	BYTE	W01
	BYTE		        c_v+56
	BYTE	W01
	BYTE		        c_v+54
	BYTE	W01
	BYTE		        c_v+51
	BYTE	W01
	BYTE		        c_v+48
	BYTE	W01
	BYTE		        c_v+46
	BYTE		N06     Gs3 
	BYTE	W01
	BYTE		PAN     c_v+43
	BYTE	W01
	BYTE		        c_v+40
	BYTE	W01
	BYTE		        c_v+38
	BYTE	W01
	BYTE		        c_v+35
	BYTE	W01
	BYTE		        c_v+32
	BYTE	W01
	BYTE		        c_v+30
	BYTE		N06     Cs4 
	BYTE	W01
	BYTE		PAN     c_v+27
	BYTE	W01
	BYTE		        c_v+24
	BYTE	W01
	BYTE		        c_v+22
	BYTE	W01
	BYTE		        c_v+19
	BYTE	W01
	BYTE		        c_v+16
	BYTE	W01
	BYTE		        c_v+14
	BYTE		N06     En4 
	BYTE	W01
	BYTE		PAN     c_v+11
	BYTE	W01
	BYTE		        c_v+8
	BYTE	W01
	BYTE		        c_v+6
	BYTE	W01
	BYTE		        c_v+3
	BYTE	W01
	BYTE		        c_v+0
	BYTE	W01
	BYTE		        c_v-2
	BYTE		N06     Gs4 
	BYTE	W01
	BYTE		PAN     c_v-4
	BYTE	W01
	BYTE		        c_v-7
	BYTE	W01
	BYTE		        c_v-10
	BYTE	W01
	BYTE		        c_v-12
	BYTE	W01
	BYTE		        c_v-15
	BYTE	W01
	BYTE		        c_v-18
	BYTE		N06     En4 
	BYTE	W01
	BYTE		PAN     c_v-20
	BYTE	W01
	BYTE		        c_v-23
	BYTE	W01
	BYTE		        c_v-26
	BYTE	W01
	BYTE		        c_v-28
	BYTE	W01
	BYTE		        c_v-31
	BYTE	W01
	BYTE		        c_v-34
	BYTE		N06     Cs4 
	BYTE	W01
	BYTE		PAN     c_v-36
	BYTE	W01
	BYTE		        c_v-39
	BYTE	W01
	BYTE		        c_v-42
	BYTE	W01
	BYTE		        c_v-44
	BYTE	W01
	BYTE		        c_v-47
	BYTE	W01
	BYTE		        c_v-50
	BYTE		N06     Gs3 
	BYTE	W01
	BYTE		PAN     c_v-52
	BYTE	W01
	BYTE		        c_v-55
	BYTE	W01
	BYTE		        c_v-58
	BYTE	W01
	BYTE		        c_v-60
	BYTE	W01
	BYTE		        c_v-63
	BYTE	W01
	BYTE		        c_v-62
	BYTE		N06     Cs3 
	BYTE	W01
	BYTE		PAN     c_v-59
	BYTE	W01
	BYTE		        c_v-56
	BYTE	W01
	BYTE		        c_v-54
	BYTE	W01
	BYTE		        c_v-51
	BYTE	W01
	BYTE		        c_v-48
	BYTE	W01
	BYTE		        c_v-46
	BYTE		N06     Gs3 
	BYTE	W01
	BYTE		PAN     c_v-43
	BYTE	W01
	BYTE		        c_v-40
	BYTE	W01
	BYTE		        c_v-38
	BYTE	W01
	BYTE		        c_v-35
	BYTE	W01
	BYTE		        c_v-32
	BYTE	W01
	BYTE		        c_v-30
	BYTE		N06     Cs4 
	BYTE	W01
	BYTE		PAN     c_v-27
	BYTE	W01
	BYTE		        c_v-24
	BYTE	W01
	BYTE		        c_v-22
	BYTE	W01
	BYTE		        c_v-19
	BYTE	W01
	BYTE		        c_v-16
	BYTE	W01
	BYTE		        c_v-14
	BYTE		N06     En4 
	BYTE	W01
	BYTE		PAN     c_v-11
	BYTE	W01
	BYTE		        c_v-8
	BYTE	W01
	BYTE		        c_v-6
	BYTE	W01
	BYTE		        c_v-3
	BYTE	W01
	BYTE		        c_v+0
	BYTE	W01
	BYTE		        c_v+1
	BYTE		N06     Gs4 
	BYTE	W01
	BYTE		PAN     c_v+4
	BYTE	W01
	BYTE		        c_v+7
	BYTE	W01
	BYTE		        c_v+9
	BYTE	W01
	BYTE		        c_v+12
	BYTE	W01
	BYTE		        c_v+15
	BYTE	W01
	BYTE		        c_v+17
	BYTE		N06     En4 
	BYTE	W01
	BYTE		PAN     c_v+20
	BYTE	W01
	BYTE		        c_v+23
	BYTE	W01
	BYTE		        c_v+25
	BYTE	W01
	BYTE		        c_v+28
	BYTE	W01
	BYTE		        c_v+31
	BYTE	W01
	BYTE		        c_v+33
	BYTE		N06     Cs4 
	BYTE	W01
	BYTE		PAN     c_v+36
	BYTE	W01
	BYTE		        c_v+39
	BYTE	W01
	BYTE		        c_v+41
	BYTE	W01
	BYTE		        c_v+44
	BYTE	W01
	BYTE		        c_v+47
	BYTE	W01
	BYTE		        c_v+49
	BYTE		N06     Gs3 
	BYTE	W01
	BYTE		PAN     c_v+52
	BYTE	W01
	BYTE		        c_v+55
	BYTE	W01
	BYTE		        c_v+57
	BYTE	W01
	BYTE		        c_v+60
	BYTE	W01
	BYTE		        c_v+63
	BYTE	W01
	BYTE	PEND
// 023   ----------------------------------------
DeltaruneTheWorldRevolvingPikmin1211_9_023:
	BYTE		PAN     c_v+61
	BYTE		N06     Gn2   v100
	BYTE	W01
	BYTE		PAN     c_v+59
	BYTE	W01
	BYTE		        c_v+56
	BYTE	W01
	BYTE		        c_v+53
	BYTE	W01
	BYTE		        c_v+51
	BYTE	W01
	BYTE		        c_v+48
	BYTE	W01
	BYTE		        c_v+45
	BYTE		N06     Ds3 
	BYTE	W01
	BYTE		PAN     c_v+43
	BYTE	W01
	BYTE		        c_v+40
	BYTE	W01
	BYTE		        c_v+37
	BYTE	W01
	BYTE		        c_v+35
	BYTE	W01
	BYTE		        c_v+32
	BYTE	W01
	BYTE		        c_v+29
	BYTE		N06     Gn3 
	BYTE	W01
	BYTE		PAN     c_v+27
	BYTE	W01
	BYTE		        c_v+24
	BYTE	W01
	BYTE		        c_v+21
	BYTE	W01
	BYTE		        c_v+19
	BYTE	W01
	BYTE		        c_v+16
	BYTE	W01
	BYTE		        c_v+13
	BYTE		N06     As3 
	BYTE	W01
	BYTE		PAN     c_v+11
	BYTE	W01
	BYTE		        c_v+8
	BYTE	W01
	BYTE		        c_v+5
	BYTE	W01
	BYTE		        c_v+3
	BYTE	W01
	BYTE		        c_v+0
	BYTE	W01
	BYTE		        c_v-2
	BYTE		N06     Ds4 
	BYTE	W01
	BYTE		PAN     c_v-4
	BYTE	W01
	BYTE		        c_v-7
	BYTE	W01
	BYTE		        c_v-10
	BYTE	W01
	BYTE		        c_v-12
	BYTE	W01
	BYTE		        c_v-15
	BYTE	W01
	BYTE		        c_v-18
	BYTE		N06     As3 
	BYTE	W01
	BYTE		PAN     c_v-20
	BYTE	W01
	BYTE		        c_v-23
	BYTE	W01
	BYTE		        c_v-26
	BYTE	W01
	BYTE		        c_v-28
	BYTE	W01
	BYTE		        c_v-31
	BYTE	W01
	BYTE		        c_v-34
	BYTE		N06     Gn3 
	BYTE	W01
	BYTE		PAN     c_v-36
	BYTE	W01
	BYTE		        c_v-39
	BYTE	W01
	BYTE		        c_v-42
	BYTE	W01
	BYTE		        c_v-44
	BYTE	W01
	BYTE		        c_v-47
	BYTE	W01
	BYTE		        c_v-50
	BYTE		N06     Ds3 
	BYTE	W01
	BYTE		PAN     c_v-52
	BYTE	W01
	BYTE		        c_v-55
	BYTE	W01
	BYTE		        c_v-58
	BYTE	W01
	BYTE		        c_v-60
	BYTE	W01
	BYTE		        c_v-63
	BYTE	W01
	BYTE		        c_v-62
	BYTE		N06     Gn2 
	BYTE	W01
	BYTE		PAN     c_v-59
	BYTE	W01
	BYTE		        c_v-56
	BYTE	W01
	BYTE		        c_v-54
	BYTE	W01
	BYTE		        c_v-51
	BYTE	W01
	BYTE		        c_v-48
	BYTE	W01
	BYTE		        c_v-46
	BYTE		N06     Ds3 
	BYTE	W01
	BYTE		PAN     c_v-43
	BYTE	W01
	BYTE		        c_v-40
	BYTE	W01
	BYTE		        c_v-38
	BYTE	W01
	BYTE		        c_v-35
	BYTE	W01
	BYTE		        c_v-32
	BYTE	W01
	BYTE		        c_v-30
	BYTE		N06     Gn3 
	BYTE	W01
	BYTE		PAN     c_v-27
	BYTE	W01
	BYTE		        c_v-24
	BYTE	W01
	BYTE		        c_v-22
	BYTE	W01
	BYTE		        c_v-19
	BYTE	W01
	BYTE		        c_v-16
	BYTE	W01
	BYTE		        c_v-14
	BYTE		N06     As3 
	BYTE	W01
	BYTE		PAN     c_v-11
	BYTE	W01
	BYTE		        c_v-8
	BYTE	W01
	BYTE		        c_v-6
	BYTE	W01
	BYTE		        c_v-3
	BYTE	W01
	BYTE		        c_v+0
	BYTE	W01
	BYTE		        c_v+2
	BYTE		N06     Ds4 
	BYTE	W01
	BYTE		PAN     c_v+4
	BYTE	W01
	BYTE		        c_v+7
	BYTE	W01
	BYTE		        c_v+10
	BYTE	W01
	BYTE		        c_v+12
	BYTE	W01
	BYTE		        c_v+15
	BYTE	W01
	BYTE		        c_v+18
	BYTE		N06     As3 
	BYTE	W01
	BYTE		PAN     c_v+20
	BYTE	W01
	BYTE		        c_v+23
	BYTE	W01
	BYTE		        c_v+26
	BYTE	W01
	BYTE		        c_v+28
	BYTE	W01
	BYTE		        c_v+31
	BYTE	W01
	BYTE		        c_v+34
	BYTE		N06     Gn3 
	BYTE	W01
	BYTE		PAN     c_v+36
	BYTE	W01
	BYTE		        c_v+39
	BYTE	W01
	BYTE		        c_v+42
	BYTE	W01
	BYTE		        c_v+44
	BYTE	W01
	BYTE		        c_v+47
	BYTE	W01
	BYTE		        c_v+50
	BYTE		N06     Ds3 
	BYTE	W01
	BYTE		PAN     c_v+52
	BYTE	W01
	BYTE		        c_v+55
	BYTE	W01
	BYTE		        c_v+58
	BYTE	W01
	BYTE		        c_v+60
	BYTE	W01
	BYTE		        c_v+63
	BYTE	W01
	BYTE	PEND
// 024   ----------------------------------------
	BYTE	PATT
	 POIN2	DeltaruneTheWorldRevolvingPikmin1211_9_016
// 025   ----------------------------------------
	BYTE	PATT
	 POIN2	DeltaruneTheWorldRevolvingPikmin1211_9_017
// 026   ----------------------------------------
	BYTE	PATT
	 POIN2	DeltaruneTheWorldRevolvingPikmin1211_9_018
// 027   ----------------------------------------
	BYTE	PATT
	 POIN2	DeltaruneTheWorldRevolvingPikmin1211_9_019
// 028   ----------------------------------------
	BYTE	PATT
	 POIN2	DeltaruneTheWorldRevolvingPikmin1211_9_016
// 029   ----------------------------------------
	BYTE	PATT
	 POIN2	DeltaruneTheWorldRevolvingPikmin1211_9_021
// 030   ----------------------------------------
	BYTE	PATT
	 POIN2	DeltaruneTheWorldRevolvingPikmin1211_9_022
// 031   ----------------------------------------
	BYTE	PATT
	 POIN2	DeltaruneTheWorldRevolvingPikmin1211_9_023
// 032   ----------------------------------------
	BYTE	PATT
	 POIN2	DeltaruneTheWorldRevolvingPikmin1211_9_016
// 033   ----------------------------------------
	BYTE	PATT
	 POIN2	DeltaruneTheWorldRevolvingPikmin1211_9_017
// 034   ----------------------------------------
	BYTE	PATT
	 POIN2	DeltaruneTheWorldRevolvingPikmin1211_9_018
// 035   ----------------------------------------
	BYTE	PATT
	 POIN2	DeltaruneTheWorldRevolvingPikmin1211_9_019
// 036   ----------------------------------------
	BYTE	PATT
	 POIN2	DeltaruneTheWorldRevolvingPikmin1211_9_016
// 037   ----------------------------------------
	BYTE	PATT
	 POIN2	DeltaruneTheWorldRevolvingPikmin1211_9_021
// 038   ----------------------------------------
	BYTE	PATT
	 POIN2	DeltaruneTheWorldRevolvingPikmin1211_9_022
// 039   ----------------------------------------
	BYTE	PATT
	 POIN2	DeltaruneTheWorldRevolvingPikmin1211_9_023
// 040   ----------------------------------------
	BYTE	PATT
	 POIN2	DeltaruneTheWorldRevolvingPikmin1211_9_016
// 041   ----------------------------------------
	BYTE	PATT
	 POIN2	DeltaruneTheWorldRevolvingPikmin1211_9_017
// 042   ----------------------------------------
	BYTE	PATT
	 POIN2	DeltaruneTheWorldRevolvingPikmin1211_9_018
// 043   ----------------------------------------
	BYTE	PATT
	 POIN2	DeltaruneTheWorldRevolvingPikmin1211_9_019
// 044   ----------------------------------------
	BYTE	PATT
	 POIN2	DeltaruneTheWorldRevolvingPikmin1211_9_016
// 045   ----------------------------------------
	BYTE	PATT
	 POIN2	DeltaruneTheWorldRevolvingPikmin1211_9_021
// 046   ----------------------------------------
	BYTE		PAN     c_v+62
	BYTE		N06     Cs3   v100
	BYTE	W01
	BYTE		PAN     c_v+59
	BYTE	W01
	BYTE		        c_v+56
	BYTE	W01
	BYTE		        c_v+54
	BYTE	W01
	BYTE		        c_v+51
	BYTE	W01
	BYTE		        c_v+48
	BYTE	W01
	BYTE		        c_v+46
	BYTE		N06     Gs3 
	BYTE	W01
	BYTE		PAN     c_v+43
	BYTE	W01
	BYTE		        c_v+40
	BYTE	W01
	BYTE		        c_v+38
	BYTE	W01
	BYTE		        c_v+35
	BYTE	W01
	BYTE		        c_v+32
	BYTE	W01
	BYTE		        c_v+30
	BYTE		N06     Cs4 
	BYTE	W01
	BYTE		PAN     c_v+27
	BYTE	W01
	BYTE		        c_v+24
	BYTE	W01
	BYTE		        c_v+22
	BYTE	W01
	BYTE		        c_v+19
	BYTE	W01
	BYTE		        c_v+16
	BYTE	W01
	BYTE		        c_v+14
	BYTE		N06     En4 
	BYTE	W01
	BYTE		PAN     c_v+11
	BYTE	W01
	BYTE		        c_v+8
	BYTE	W01
	BYTE		        c_v+6
	BYTE	W01
	BYTE		        c_v+3
	BYTE	W01
	BYTE		        c_v+0
	BYTE	W01
	BYTE		        c_v-2
	BYTE		N06     Gs4 
	BYTE	W01
	BYTE		PAN     c_v-4
	BYTE	W01
	BYTE		        c_v-7
	BYTE	W01
	BYTE		        c_v-10
	BYTE	W01
	BYTE		        c_v-12
	BYTE	W01
	BYTE		        c_v-15
	BYTE	W01
	BYTE		        c_v-18
	BYTE		N06     En4 
	BYTE	W01
	BYTE		PAN     c_v-20
	BYTE	W01
	BYTE		        c_v-23
	BYTE	W01
	BYTE		        c_v-26
	BYTE	W01
	BYTE		        c_v-28
	BYTE	W01
	BYTE		        c_v-31
	BYTE	W01
	BYTE		        c_v-34
	BYTE		N06     Cs4 
	BYTE	W01
	BYTE		PAN     c_v-36
	BYTE	W01
	BYTE		        c_v-39
	BYTE	W01
	BYTE		        c_v-42
	BYTE	W01
	BYTE		        c_v-44
	BYTE	W01
	BYTE		        c_v-47
	BYTE	W01
	BYTE		        c_v-50
	BYTE		N06     Gs3 
	BYTE	W01
	BYTE		PAN     c_v-52
	BYTE	W01
	BYTE		        c_v-55
	BYTE	W01
	BYTE		        c_v-58
	BYTE	W01
	BYTE		        c_v-60
	BYTE	W01
	BYTE		        c_v-63
	BYTE	W01
	BYTE		        c_v-62
	BYTE	W01
	BYTE		        c_v-59
	BYTE	W01
	BYTE		        c_v-56
	BYTE	W01
	BYTE		        c_v-54
	BYTE	W01
	BYTE		        c_v-51
	BYTE	W01
	BYTE		        c_v-48
	BYTE	W01
	BYTE		        c_v-46
	BYTE	W01
	BYTE		        c_v-43
	BYTE	W01
	BYTE		        c_v-40
	BYTE	W01
	BYTE		        c_v-38
	BYTE	W01
	BYTE		        c_v-35
	BYTE	W01
	BYTE		        c_v-32
	BYTE	W01
	BYTE		        c_v-30
	BYTE	W01
	BYTE		        c_v-27
	BYTE	W01
	BYTE		        c_v-24
	BYTE	W01
	BYTE		        c_v-22
	BYTE	W01
	BYTE		        c_v-19
	BYTE	W01
	BYTE		        c_v-16
	BYTE	W01
	BYTE		        c_v-14
	BYTE	W01
	BYTE		        c_v-11
	BYTE	W01
	BYTE		        c_v-8
	BYTE	W01
	BYTE		        c_v-6
	BYTE	W01
	BYTE		        c_v-3
	BYTE	W01
	BYTE		        c_v+0
	BYTE	W01
	BYTE		        c_v+1
	BYTE	W01
	BYTE		        c_v+4
	BYTE	W01
	BYTE		        c_v+7
	BYTE	W01
	BYTE		        c_v+9
	BYTE	W01
	BYTE		        c_v+12
	BYTE	W01
	BYTE		        c_v+15
	BYTE	W01
	BYTE		        c_v+17
	BYTE	W01
	BYTE		        c_v+20
	BYTE	W01
	BYTE		        c_v+23
	BYTE	W01
	BYTE		        c_v+25
	BYTE	W01
	BYTE		        c_v+28
	BYTE	W01
	BYTE		        c_v+31
	BYTE	W01
	BYTE		        c_v+33
	BYTE	W01
	BYTE		        c_v+36
	BYTE	W01
	BYTE		        c_v+39
	BYTE	W01
	BYTE		        c_v+41
	BYTE	W01
	BYTE		        c_v+44
	BYTE	W01
	BYTE		        c_v+47
	BYTE	W01
	BYTE		        c_v+49
	BYTE	W01
	BYTE		        c_v+52
	BYTE	W01
	BYTE		        c_v+55
	BYTE	W01
	BYTE		        c_v+57
	BYTE	W01
	BYTE		        c_v+60
	BYTE	W01
	BYTE		        c_v+63
	BYTE	W01
// 047   ----------------------------------------
	BYTE		        c_v+61
	BYTE	W01
	BYTE		        c_v+59
	BYTE	W01
	BYTE		        c_v+56
	BYTE	W01
	BYTE		        c_v+53
	BYTE	W01
	BYTE		        c_v+51
	BYTE	W01
	BYTE		        c_v+48
	BYTE	W01
	BYTE		        c_v+45
	BYTE	W01
	BYTE		        c_v+43
	BYTE	W01
	BYTE		        c_v+40
	BYTE	W01
	BYTE		        c_v+37
	BYTE	W01
	BYTE		        c_v+35
	BYTE	W01
	BYTE		        c_v+32
	BYTE	W01
	BYTE		        c_v+29
	BYTE	W01
	BYTE		        c_v+27
	BYTE	W01
	BYTE		        c_v+24
	BYTE	W01
	BYTE		        c_v+21
	BYTE	W01
	BYTE		        c_v+19
	BYTE	W01
	BYTE		        c_v+16
	BYTE	W01
	BYTE		        c_v+13
	BYTE	W01
	BYTE		        c_v+11
	BYTE	W01
	BYTE		        c_v+8
	BYTE	W01
	BYTE		        c_v+5
	BYTE	W01
	BYTE		        c_v+3
	BYTE	W01
	BYTE		        c_v+0
	BYTE	W01
	BYTE		        c_v-2
	BYTE	W01
	BYTE		        c_v-4
	BYTE	W01
	BYTE		        c_v-7
	BYTE	W01
	BYTE		        c_v-10
	BYTE	W01
	BYTE		        c_v-12
	BYTE	W01
	BYTE		        c_v-15
	BYTE	W01
	BYTE		        c_v-18
	BYTE	W01
	BYTE		        c_v-20
	BYTE	W01
	BYTE		        c_v-23
	BYTE	W01
	BYTE		        c_v-26
	BYTE	W01
	BYTE		        c_v-28
	BYTE	W01
	BYTE		        c_v-31
	BYTE	W01
	BYTE		        c_v-34
	BYTE	W01
	BYTE		        c_v-36
	BYTE	W01
	BYTE		        c_v-39
	BYTE	W01
	BYTE		        c_v-42
	BYTE	W01
	BYTE		        c_v-44
	BYTE	W01
	BYTE		        c_v-47
	BYTE	W01
	BYTE		        c_v-50
	BYTE	W01
	BYTE		        c_v-52
	BYTE	W01
	BYTE		        c_v-55
	BYTE	W01
	BYTE		        c_v-58
	BYTE	W01
	BYTE		        c_v-60
	BYTE	W01
	BYTE		        c_v-63
	BYTE	W01
	BYTE		        c_v-62
	BYTE	W01
	BYTE		        c_v-59
	BYTE	W01
	BYTE		        c_v-56
	BYTE	W01
	BYTE		        c_v-53
	BYTE	W01
	BYTE		        c_v-51
	BYTE	W01
	BYTE		        c_v-48
	BYTE	W01
	BYTE		        c_v-45
	BYTE	W01
	BYTE		        c_v-43
	BYTE	W01
	BYTE		        c_v-40
	BYTE	W01
	BYTE		        c_v-37
	BYTE	W01
	BYTE		        c_v-35
	BYTE	W01
	BYTE		        c_v-32
	BYTE	W01
	BYTE		        c_v-29
	BYTE	W01
	BYTE		        c_v-27
	BYTE	W01
	BYTE		        c_v-24
	BYTE	W01
	BYTE		        c_v-21
	BYTE	W01
	BYTE		        c_v-19
	BYTE	W01
	BYTE		        c_v-16
	BYTE	W01
	BYTE		        c_v-13
	BYTE	W01
	BYTE		        c_v-11
	BYTE	W01
	BYTE		        c_v-8
	BYTE	W01
	BYTE		        c_v-5
	BYTE	W01
	BYTE		        c_v-3
	BYTE	W01
	BYTE		        c_v+0
	BYTE	W24
	BYTE	W01
// 048   ----------------------------------------
DeltaruneTheWorldRevolvingPikmin1211_9_048:
	BYTE		PAN     c_v-64
	BYTE		N06     En3   v100
	BYTE	W06
	BYTE		        Gn3 
	BYTE	W06
	BYTE		        Bn3 
	BYTE	W06
	BYTE		        En4 
	BYTE	W06
	BYTE		        Gn4 
	BYTE	W06
	BYTE		        En4 
	BYTE	W06
	BYTE		        Bn3 
	BYTE	W06
	BYTE		        Gn3 
	BYTE	W06
	BYTE		        En3 
	BYTE	W06
	BYTE		        Gn3 
	BYTE	W06
	BYTE		        Bn3 
	BYTE	W06
	BYTE		        En4 
	BYTE	W06
	BYTE		        Gn4 
	BYTE	W06
	BYTE		        En4 
	BYTE	W06
	BYTE		        Bn3 
	BYTE	W06
	BYTE		        Gn3 
	BYTE	W06
	BYTE	PEND
// 049   ----------------------------------------
DeltaruneTheWorldRevolvingPikmin1211_9_049:
	BYTE		PAN     c_v+63
	BYTE		N06     En3   v100
	BYTE	W06
	BYTE		        Gn3 
	BYTE	W06
	BYTE		        Bn3 
	BYTE	W06
	BYTE		        En4 
	BYTE	W06
	BYTE		        Gn4 
	BYTE	W06
	BYTE		        En4 
	BYTE	W06
	BYTE		        Bn3 
	BYTE	W06
	BYTE		        Gn3 
	BYTE	W06
	BYTE		        En3 
	BYTE	W06
	BYTE		        Gn3 
	BYTE	W06
	BYTE		        Bn3 
	BYTE	W06
	BYTE		        En4 
	BYTE	W06
	BYTE		        Gn4 
	BYTE	W06
	BYTE		        En4 
	BYTE	W06
	BYTE		        Bn3 
	BYTE	W06
	BYTE		        Gn3 
	BYTE	W06
	BYTE	PEND
// 050   ----------------------------------------
DeltaruneTheWorldRevolvingPikmin1211_9_050:
	BYTE		PAN     c_v-64
	BYTE		N06     Bn3   v100
	BYTE	W06
	BYTE		        Ds4 
	BYTE	W06
	BYTE		        Fs4 
	BYTE	W06
	BYTE		        Bn4 
	BYTE	W06
	BYTE		        Ds5 
	BYTE	W06
	BYTE		        Bn4 
	BYTE	W06
	BYTE		        Fs4 
	BYTE	W06
	BYTE		        Ds4 
	BYTE	W06
	BYTE		        Bn3 
	BYTE	W06
	BYTE		        Ds4 
	BYTE	W06
	BYTE		        Fs4 
	BYTE	W06
	BYTE		        Bn4 
	BYTE	W06
	BYTE		        Ds5 
	BYTE	W06
	BYTE		        Bn4 
	BYTE	W06
	BYTE		        Fs4 
	BYTE	W06
	BYTE		        Ds4 
	BYTE	W06
	BYTE	PEND
// 051   ----------------------------------------
DeltaruneTheWorldRevolvingPikmin1211_9_051:
	BYTE		PAN     c_v+63
	BYTE		N06     As3   v100
	BYTE	W06
	BYTE		        Cs4 
	BYTE	W06
	BYTE		        Fs4 
	BYTE	W06
	BYTE		        As4 
	BYTE	W06
	BYTE		        Cs5 
	BYTE	W06
	BYTE		        As4 
	BYTE	W06
	BYTE		        Fs4 
	BYTE	W06
	BYTE		        Cs4 
	BYTE	W06
	BYTE		        As3 
	BYTE	W06
	BYTE		        Cs4 
	BYTE	W06
	BYTE		        Fs4 
	BYTE	W06
	BYTE		        As4 
	BYTE	W06
	BYTE		        Cs5 
	BYTE	W06
	BYTE		        As4 
	BYTE	W06
	BYTE		        Fs4 
	BYTE	W06
	BYTE		        Cs4 
	BYTE	W06
	BYTE	PEND
// 052   ----------------------------------------
	BYTE	PATT
	 POIN2	DeltaruneTheWorldRevolvingPikmin1211_9_048
// 053   ----------------------------------------
	BYTE	PATT
	 POIN2	DeltaruneTheWorldRevolvingPikmin1211_9_049
// 054   ----------------------------------------
	BYTE	PATT
	 POIN2	DeltaruneTheWorldRevolvingPikmin1211_9_050
// 055   ----------------------------------------
	BYTE	PATT
	 POIN2	DeltaruneTheWorldRevolvingPikmin1211_9_051
// 056   ----------------------------------------
	BYTE	PATT
	 POIN2	DeltaruneTheWorldRevolvingPikmin1211_9_048
// 057   ----------------------------------------
	BYTE	PATT
	 POIN2	DeltaruneTheWorldRevolvingPikmin1211_9_049
// 058   ----------------------------------------
	BYTE	PATT
	 POIN2	DeltaruneTheWorldRevolvingPikmin1211_9_050
// 059   ----------------------------------------
	BYTE	PATT
	 POIN2	DeltaruneTheWorldRevolvingPikmin1211_9_051
// 060   ----------------------------------------
	BYTE	PATT
	 POIN2	DeltaruneTheWorldRevolvingPikmin1211_9_048
// 061   ----------------------------------------
	BYTE	PATT
	 POIN2	DeltaruneTheWorldRevolvingPikmin1211_9_049
// 062   ----------------------------------------
	BYTE	PATT
	 POIN2	DeltaruneTheWorldRevolvingPikmin1211_9_050
// 063   ----------------------------------------
	BYTE	PATT
	 POIN2	DeltaruneTheWorldRevolvingPikmin1211_9_051
// 064   ----------------------------------------
DeltaruneTheWorldRevolvingPikmin1211_9_064:
	BYTE		PAN     c_v-64
	BYTE		N06     En3   v100
	BYTE	W06
	BYTE		        Gs3 
	BYTE	W06
	BYTE		        Bn3 
	BYTE	W06
	BYTE		        En4 
	BYTE	W06
	BYTE		        Gs4 
	BYTE	W06
	BYTE		        En4 
	BYTE	W06
	BYTE		        Bn3 
	BYTE	W06
	BYTE		        Gs3 
	BYTE	W06
	BYTE		        En3 
	BYTE	W06
	BYTE		        Gs3 
	BYTE	W06
	BYTE		        Bn3 
	BYTE	W06
	BYTE		        En4 
	BYTE	W06
	BYTE		        Gs4 
	BYTE	W06
	BYTE		        En4 
	BYTE	W06
	BYTE		        Bn3 
	BYTE	W06
	BYTE		        Gs3 
	BYTE	W06
	BYTE	PEND
// 065   ----------------------------------------
DeltaruneTheWorldRevolvingPikmin1211_9_065:
	BYTE		PAN     c_v+63
	BYTE		N06     Fs3   v100
	BYTE	W06
	BYTE		        As3 
	BYTE	W06
	BYTE		        Cs4 
	BYTE	W06
	BYTE		        Fs4 
	BYTE	W06
	BYTE		        As4 
	BYTE	W06
	BYTE		        Fs4 
	BYTE	W06
	BYTE		        Cs4 
	BYTE	W06
	BYTE		        As3 
	BYTE	W06
	BYTE		        Fs3 
	BYTE	W06
	BYTE		        As3 
	BYTE	W06
	BYTE		        Cs4 
	BYTE	W06
	BYTE		        Fs4 
	BYTE	W06
	BYTE		        As4 
	BYTE	W06
	BYTE		        Fs4 
	BYTE	W06
	BYTE		        Cs4 
	BYTE	W06
	BYTE		        As3 
	BYTE	W06
	BYTE	PEND
// 066   ----------------------------------------
DeltaruneTheWorldRevolvingPikmin1211_9_066:
	BYTE		PAN     c_v-64
	BYTE		N06     Gs3   v100
	BYTE	W06
	BYTE		        Bn3 
	BYTE	W06
	BYTE		        Ds4 
	BYTE	W06
	BYTE		        Gs4 
	BYTE	W06
	BYTE		        Bn4 
	BYTE	W06
	BYTE		        Gs4 
	BYTE	W06
	BYTE		        Ds4 
	BYTE	W06
	BYTE		        Bn3 
	BYTE	W06
	BYTE		        Gs3 
	BYTE	W06
	BYTE		        Bn3 
	BYTE	W06
	BYTE		        Ds4 
	BYTE	W06
	BYTE		        Gs4 
	BYTE	W06
	BYTE		        Bn4 
	BYTE	W06
	BYTE		        Gs4 
	BYTE	W06
	BYTE		        Ds4 
	BYTE	W06
	BYTE		        Bn3 
	BYTE	W06
	BYTE	PEND
// 067   ----------------------------------------
	BYTE	PATT
	 POIN2	DeltaruneTheWorldRevolvingPikmin1211_9_051
// 068   ----------------------------------------
DeltaruneTheWorldRevolvingPikmin1211_9_068:
	BYTE		PAN     c_v-64
	BYTE		N06     Ds3   v100
	BYTE	W06
	BYTE		        Gs3 
	BYTE	W06
	BYTE		        Bn3 
	BYTE	W06
	BYTE		        Ds4 
	BYTE	W06
	BYTE		        Gs4 
	BYTE	W06
	BYTE		        Ds4 
	BYTE	W06
	BYTE		        Bn3 
	BYTE	W06
	BYTE		        Gs3 
	BYTE	W06
	BYTE		        Ds3 
	BYTE	W06
	BYTE		        Gs3 
	BYTE	W06
	BYTE		        Bn3 
	BYTE	W06
	BYTE		        Ds4 
	BYTE	W06
	BYTE		        Gs4 
	BYTE	W06
	BYTE		        Ds4 
	BYTE	W06
	BYTE		        Bn3 
	BYTE	W06
	BYTE		        Gs3 
	BYTE	W06
	BYTE	PEND
// 069   ----------------------------------------
	BYTE	PATT
	 POIN2	DeltaruneTheWorldRevolvingPikmin1211_9_065
// 070   ----------------------------------------
	BYTE	PATT
	 POIN2	DeltaruneTheWorldRevolvingPikmin1211_9_066
// 071   ----------------------------------------
	BYTE	PATT
	 POIN2	DeltaruneTheWorldRevolvingPikmin1211_9_051
// 072   ----------------------------------------
	BYTE	PATT
	 POIN2	DeltaruneTheWorldRevolvingPikmin1211_9_064
// 073   ----------------------------------------
	BYTE	PATT
	 POIN2	DeltaruneTheWorldRevolvingPikmin1211_9_065
// 074   ----------------------------------------
	BYTE	PATT
	 POIN2	DeltaruneTheWorldRevolvingPikmin1211_9_066
// 075   ----------------------------------------
	BYTE	PATT
	 POIN2	DeltaruneTheWorldRevolvingPikmin1211_9_051
// 076   ----------------------------------------
	BYTE	PATT
	 POIN2	DeltaruneTheWorldRevolvingPikmin1211_9_068
// 077   ----------------------------------------
	BYTE	PATT
	 POIN2	DeltaruneTheWorldRevolvingPikmin1211_9_065
// 078   ----------------------------------------
	BYTE		PAN     c_v-64
	BYTE		N06     Gs3   v100
	BYTE	W06
	BYTE		        Bn3 
	BYTE	W06
	BYTE		        Ds4 
	BYTE	W06
	BYTE		        Gs4 
	BYTE	W06
	BYTE		        Bn4 
	BYTE	W06
	BYTE		        Gs4 
	BYTE	W06
	BYTE		        Ds4 
	BYTE	W06
	BYTE		        Bn3 
	BYTE	W06
	BYTE		        Gs3 
	BYTE	W48
// 079   ----------------------------------------
	BYTE		PAN     c_v+0
	BYTE	W96
// 080   ----------------------------------------
	BYTE		BEND    c_v-2
	BYTE	W05
	BYTE	GoTo
	 POIN2	DeltaruneTheWorldRevolvingPikmin1211_9_B1
DeltaruneTheWorldRevolvingPikmin1211_9_B2:
	BYTE	W48
	BYTE		BEND    c_v-2
	BYTE	FINE

//**************** Track 10 (Midi-Chn.11) ****************//

DeltaruneTheWorldRevolvingPikmin1211_10:
	BYTE	KEYSH   DeltaruneTheWorldRevolvingPikmin1211_key+0
// 000   ----------------------------------------
	BYTE		VOICE   127
	BYTE		PAN     c_v+0
	BYTE		VOL     89*DeltaruneTheWorldRevolvingPikmin1211_mvl/mxv
	BYTE		BEND    c_v+0
	BYTE		N06     Cn1   v108
	BYTE		N06     Fs1   v116
	BYTE		N06     Fs2   v100
	BYTE	W06
	BYTE		        Fs1   v116
	BYTE	W06
	BYTE		N06   
	BYTE		N06     Fs2   v080
	BYTE	W12
	BYTE		        Cn1   v108
	BYTE		N06     En1   v088
	BYTE		N06     Fs1   v116
	BYTE		N06     Fs2   v100
	BYTE	W06
	BYTE		        Fs1   v116
	BYTE	W06
	BYTE		N06   
	BYTE		N06     Fs2   v080
	BYTE	W06
	BYTE		        Fs1   v116
	BYTE	W06
	BYTE		        Cn1   v108
	BYTE		N06     As1   v116
	BYTE		N06     Fs2   v100
	BYTE	W12
	BYTE		        Fs2   v080
	BYTE	W12
	BYTE		        Cn1   v108
	BYTE		N06     En1   v088
	BYTE		N06     Fs1   v116
	BYTE		N06     Fs2   v100
	BYTE	W12
	BYTE		        Cn1   v108
	BYTE		N06     As1   v116
	BYTE		N06     Fs2   v080
	BYTE	W12
// 001   ----------------------------------------
DeltaruneTheWorldRevolvingPikmin1211_10_001:
	BYTE		N06     Cn1   v108
	BYTE		N06     Fs2   v100
	BYTE	W12
	BYTE		        Fs1   v116
	BYTE		N06     Fs2   v080
	BYTE	W12
	BYTE		        Cn1   v108
	BYTE		N06     En1   v088
	BYTE		N06     Fs1   v116
	BYTE		N06     Fs2   v100
	BYTE	W06
	BYTE		        Fs1   v116
	BYTE	W06
	BYTE		N06   
	BYTE		N06     Fs2   v080
	BYTE	W12
	BYTE		        Cn1   v108
	BYTE		N06     As1   v116
	BYTE		N06     Fs2   v100
	BYTE	W12
	BYTE		        Fs1   v116
	BYTE		N06     Fs2   v080
	BYTE	W12
	BYTE		        Cn1   v108
	BYTE		N06     En1   v088
	BYTE		N06     Fs1   v116
	BYTE		N06     Fs2   v100
	BYTE	W12
	BYTE		N03     Cn1   v108
	BYTE		N06     Fs1   v116
	BYTE		N06     Fs2   v080
	BYTE	W06
	BYTE		N03     Cn1   v088
	BYTE		N06     Fs1   v116
	BYTE	W06
	BYTE	PEND
// 002   ----------------------------------------
DeltaruneTheWorldRevolvingPikmin1211_10_002:
	BYTE		N03     Cn1   v108
	BYTE		N06     Fs1   v116
	BYTE	W06
	BYTE		N06   
	BYTE	W06
	BYTE		N06   
	BYTE	W12
	BYTE		        Cn1   v108
	BYTE		N06     En1   v088
	BYTE		N06     Fs1   v116
	BYTE	W06
	BYTE		N06   
	BYTE	W06
	BYTE		N06   
	BYTE	W06
	BYTE		N06   
	BYTE	W06
	BYTE		        Cn1   v108
	BYTE		N06     As1   v116
	BYTE	W24
	BYTE		        En1   v088
	BYTE		N06     Fs1   v116
	BYTE	W12
	BYTE		        Cn1   v108
	BYTE		N06     As1   v116
	BYTE	W12
	BYTE	PEND
// 003   ----------------------------------------
DeltaruneTheWorldRevolvingPikmin1211_10_003:
	BYTE		N06     Cn1   v108
	BYTE	W12
	BYTE		        Fs1   v116
	BYTE	W12
	BYTE		        Cn1   v108
	BYTE		N06     En1   v088
	BYTE		N06     Fs1   v116
	BYTE	W06
	BYTE		N06   
	BYTE	W06
	BYTE		N06   
	BYTE	W12
	BYTE		        Cn1   v108
	BYTE		N06     As1   v116
	BYTE	W12
	BYTE		        Cn1   v108
	BYTE		N06     Fs1   v116
	BYTE	W12
	BYTE		        Cn1   v108
	BYTE		N06     En1   v088
	BYTE		N06     Fs1   v116
	BYTE	W12
	BYTE		        Cn1   v108
	BYTE		N06     Fs1   v116
	BYTE	W06
	BYTE		N06   
	BYTE	W06
	BYTE	PEND
// 004   ----------------------------------------
DeltaruneTheWorldRevolvingPikmin1211_10_004:
	BYTE		N06     Cn1   v108
	BYTE		N06     Fs1   v116
	BYTE		N06     Fs2   v100
	BYTE	W06
	BYTE		        Fs1   v116
	BYTE	W06
	BYTE		N06   
	BYTE		N06     Fs2   v080
	BYTE	W12
	BYTE		        Cn1   v108
	BYTE		N06     En1   v088
	BYTE		N06     Fs1   v116
	BYTE		N06     Fs2   v100
	BYTE	W06
	BYTE		        Fs1   v116
	BYTE	W06
	BYTE		N06   
	BYTE		N06     Fs2   v080
	BYTE	W06
	BYTE		        Fs1   v116
	BYTE	W06
	BYTE		        Cn1   v108
	BYTE		N06     As1   v116
	BYTE		N06     Fs2   v100
	BYTE	W12
	BYTE		        Fs2   v080
	BYTE	W12
	BYTE		        Cn1   v108
	BYTE		N06     En1   v088
	BYTE		N06     Fs1   v116
	BYTE		N06     Fs2   v100
	BYTE	W12
	BYTE		        Cn1   v108
	BYTE		N06     As1   v116
	BYTE		N06     Fs2   v080
	BYTE	W12
	BYTE	PEND
// 005   ----------------------------------------
	BYTE		        Cn1   v108
	BYTE		N06     Fs2   v100
	BYTE	W12
	BYTE		        Fs1   v116
	BYTE		N06     Fs2   v080
	BYTE	W12
	BYTE		        Cn1   v108
	BYTE		N06     En1   v088
	BYTE		N06     Fs1   v116
	BYTE		N06     Fs2   v100
	BYTE	W06
	BYTE		        Fs1   v116
	BYTE	W06
	BYTE		N06   
	BYTE		N06     Fs2   v080
	BYTE	W12
	BYTE		        Cn1   v108
	BYTE		N06     As1   v116
	BYTE		N06     Fs2   v100
	BYTE	W12
	BYTE		        Fs1   v116
	BYTE		N06     Fs2   v080
	BYTE	W12
	BYTE		        Cn1   v108
	BYTE		N06     En1   v088
	BYTE		N06     Fs1   v116
	BYTE		N06     Fs2   v100
	BYTE	W12
	BYTE		N03     Cn1   v104
	BYTE		N06     Fs1   v116
	BYTE		N06     Fs2   v080
	BYTE	W06
	BYTE		N03     Cn1   v084
	BYTE		N06     Fs1   v116
	BYTE	W06
// 006   ----------------------------------------
	BYTE	PATT
	 POIN2	DeltaruneTheWorldRevolvingPikmin1211_10_002
// 007   ----------------------------------------
	BYTE		N06     Cn1   v108
	BYTE	W12
	BYTE		        Fs1   v116
	BYTE	W12
	BYTE		        Cn1   v108
	BYTE		N06     En1   v088
	BYTE		N06     Fs1   v116
	BYTE	W06
	BYTE		N06   
	BYTE	W06
	BYTE		N06   
	BYTE	W12
	BYTE		        Cn1   v108
	BYTE		N06     As1   v116
	BYTE	W12
	BYTE		        Cn1   v108
	BYTE		N06     Fs1   v116
	BYTE	W12
	BYTE		        Cn1   v108
	BYTE		N06     En1   v088
	BYTE		N06     Fs1   v116
	BYTE	W12
	BYTE		        Cn1   v108
	BYTE		N06     En1   v088
	BYTE		N06     Fs1   v116
	BYTE	W06
	BYTE		N06   
	BYTE	W06
// 008   ----------------------------------------
	BYTE	PATT
	 POIN2	DeltaruneTheWorldRevolvingPikmin1211_10_004
// 009   ----------------------------------------
	BYTE	PATT
	 POIN2	DeltaruneTheWorldRevolvingPikmin1211_10_001
// 010   ----------------------------------------
	BYTE	PATT
	 POIN2	DeltaruneTheWorldRevolvingPikmin1211_10_002
// 011   ----------------------------------------
	BYTE	PATT
	 POIN2	DeltaruneTheWorldRevolvingPikmin1211_10_003
// 012   ----------------------------------------
	BYTE	PATT
	 POIN2	DeltaruneTheWorldRevolvingPikmin1211_10_004
// 013   ----------------------------------------
	BYTE		N06     Cn1   v108
	BYTE		N06     Fs2   v100
	BYTE	W12
	BYTE		        Fs1   v116
	BYTE		N06     Fs2   v080
	BYTE	W12
	BYTE		        Cn1   v108
	BYTE		N06     En1   v088
	BYTE		N06     Fs1   v116
	BYTE		N06     Fs2   v100
	BYTE	W06
	BYTE		        Fs1   v116
	BYTE	W06
	BYTE		N06   
	BYTE		N06     Fs2   v080
	BYTE	W12
	BYTE		        Cn1   v108
	BYTE		N06     As1   v116
	BYTE		N06     Fs2   v100
	BYTE	W12
	BYTE		        Fs1   v116
	BYTE		N06     Fs2   v080
	BYTE	W12
	BYTE		        Cn1 
	BYTE		N06     En1   v088
	BYTE		N06     Fs1   v116
	BYTE		N06     Fs2   v100
	BYTE	W12
	BYTE		N03     Cn1   v104
	BYTE		N06     Fs1   v116
	BYTE		N06     Fs2   v080
	BYTE	W06
	BYTE		N03     Cn1   v084
	BYTE		N06     Fs1   v116
	BYTE	W06
// 014   ----------------------------------------
	BYTE		N03     Cn1   v108
	BYTE	W96
// 015   ----------------------------------------
	BYTE	W92
DeltaruneTheWorldRevolvingPikmin1211_10_B1:
	BYTE	W04
// 016   ----------------------------------------
DeltaruneTheWorldRevolvingPikmin1211_10_016:
	BYTE		N06     Cn1   v108
	BYTE		N06     As1   v100
	BYTE		N06     Cs2   v127
	BYTE		N06     Ds2   v104
	BYTE		N06     Fs2   v100
	BYTE	W12
	BYTE		        Ds1   v096
	BYTE		N06     En1   v080
	BYTE		N06     Fs1   v116
	BYTE		N06     Fs2   v080
	BYTE	W12
	BYTE		        Cn1   v108
	BYTE		N06     As1   v100
	BYTE		N06     Ds2   v104
	BYTE		N06     Fs2   v100
	BYTE	W12
	BYTE		        Ds1   v096
	BYTE		N06     En1   v080
	BYTE		N06     Fs1   v116
	BYTE		N06     Fs2   v080
	BYTE	W12
	BYTE		        Cn1   v108
	BYTE		N06     As1   v100
	BYTE		N06     Ds2   v104
	BYTE		N06     Fs2   v100
	BYTE	W12
	BYTE		        Ds1   v096
	BYTE		N06     En1   v080
	BYTE		N06     Fs2 
	BYTE	W06
	BYTE		        Fs1   v116
	BYTE	W06
	BYTE		        Cn1   v108
	BYTE		N06     As1   v100
	BYTE		N06     Ds2   v104
	BYTE		N06     Fs2   v100
	BYTE	W06
	BYTE		        Cn1   v108
	BYTE	W06
	BYTE		N06   
	BYTE		N06     Ds1   v096
	BYTE		N06     En1   v080
	BYTE		N06     Fs1   v116
	BYTE		N06     Fs2   v080
	BYTE	W12
	BYTE	PEND
// 017   ----------------------------------------
DeltaruneTheWorldRevolvingPikmin1211_10_017:
	BYTE		N06     Cn1   v108
	BYTE		N06     As1   v100
	BYTE		N06     Ds2   v104
	BYTE		N06     Fs2   v100
	BYTE	W12
	BYTE		        Ds1   v096
	BYTE		N06     En1   v080
	BYTE		N06     Fs1   v116
	BYTE		N06     Fs2   v080
	BYTE	W12
	BYTE		        Cn1   v108
	BYTE		N06     As1   v100
	BYTE		N06     Ds2   v104
	BYTE		N06     Fs2   v100
	BYTE	W12
	BYTE		        Ds1   v096
	BYTE		N06     En1   v080
	BYTE		N06     Fs1   v116
	BYTE		N06     Fs2   v080
	BYTE	W12
	BYTE		        Cn1   v108
	BYTE		N06     As1   v100
	BYTE		N06     Ds2   v104
	BYTE		N06     Fs2   v100
	BYTE	W12
	BYTE		        Ds1   v096
	BYTE		N06     En1   v080
	BYTE		N06     Fs2 
	BYTE	W06
	BYTE		        Fs1   v116
	BYTE	W06
	BYTE		        Cn1   v108
	BYTE		N06     As1   v100
	BYTE		N06     Ds2   v104
	BYTE		N06     Fs2   v100
	BYTE	W06
	BYTE		        Cn1   v108
	BYTE	W06
	BYTE		N06   
	BYTE		N06     Ds1   v096
	BYTE		N06     En1   v080
	BYTE		N06     Fs1   v116
	BYTE		N06     Fs2   v080
	BYTE	W12
	BYTE	PEND
// 018   ----------------------------------------
DeltaruneTheWorldRevolvingPikmin1211_10_018:
	BYTE		N06     Cn1   v108
	BYTE		N06     As1   v100
	BYTE		N06     Ds2   v104
	BYTE		N06     Fs2   v100
	BYTE		N06     An2   v127
	BYTE	W12
	BYTE		        Ds1   v096
	BYTE		N06     En1   v080
	BYTE		N06     Fs1   v116
	BYTE		N06     Fs2   v080
	BYTE	W12
	BYTE		        Cn1   v108
	BYTE		N06     As1   v100
	BYTE		N06     Ds2   v104
	BYTE		N06     Fs2   v100
	BYTE	W12
	BYTE		        Ds1   v096
	BYTE		N06     En1   v080
	BYTE		N06     Fs1   v116
	BYTE		N06     Fs2   v080
	BYTE	W12
	BYTE		        Cn1   v108
	BYTE		N06     As1   v100
	BYTE		N06     Ds2   v104
	BYTE		N06     Fs2   v100
	BYTE	W12
	BYTE		        Ds1   v096
	BYTE		N06     En1   v080
	BYTE		N06     Fs2 
	BYTE	W06
	BYTE		        Fs1   v116
	BYTE	W06
	BYTE		        Cn1   v108
	BYTE		N06     As1   v100
	BYTE		N06     Ds2   v104
	BYTE		N06     Fs2   v100
	BYTE	W06
	BYTE		        Cn1   v108
	BYTE	W06
	BYTE		N06   
	BYTE		N06     Ds1   v096
	BYTE		N06     En1   v080
	BYTE		N06     Fs1   v116
	BYTE		N06     Fs2   v080
	BYTE	W12
	BYTE	PEND
// 019   ----------------------------------------
	BYTE	PATT
	 POIN2	DeltaruneTheWorldRevolvingPikmin1211_10_017
// 020   ----------------------------------------
	BYTE	PATT
	 POIN2	DeltaruneTheWorldRevolvingPikmin1211_10_016
// 021   ----------------------------------------
	BYTE	PATT
	 POIN2	DeltaruneTheWorldRevolvingPikmin1211_10_017
// 022   ----------------------------------------
	BYTE	PATT
	 POIN2	DeltaruneTheWorldRevolvingPikmin1211_10_018
// 023   ----------------------------------------
	BYTE	PATT
	 POIN2	DeltaruneTheWorldRevolvingPikmin1211_10_017
// 024   ----------------------------------------
	BYTE	PATT
	 POIN2	DeltaruneTheWorldRevolvingPikmin1211_10_016
// 025   ----------------------------------------
	BYTE	PATT
	 POIN2	DeltaruneTheWorldRevolvingPikmin1211_10_017
// 026   ----------------------------------------
	BYTE	PATT
	 POIN2	DeltaruneTheWorldRevolvingPikmin1211_10_018
// 027   ----------------------------------------
	BYTE	PATT
	 POIN2	DeltaruneTheWorldRevolvingPikmin1211_10_017
// 028   ----------------------------------------
	BYTE	PATT
	 POIN2	DeltaruneTheWorldRevolvingPikmin1211_10_016
// 029   ----------------------------------------
	BYTE	PATT
	 POIN2	DeltaruneTheWorldRevolvingPikmin1211_10_017
// 030   ----------------------------------------
	BYTE	PATT
	 POIN2	DeltaruneTheWorldRevolvingPikmin1211_10_018
// 031   ----------------------------------------
	BYTE	PATT
	 POIN2	DeltaruneTheWorldRevolvingPikmin1211_10_017
// 032   ----------------------------------------
	BYTE	PATT
	 POIN2	DeltaruneTheWorldRevolvingPikmin1211_10_016
// 033   ----------------------------------------
	BYTE	PATT
	 POIN2	DeltaruneTheWorldRevolvingPikmin1211_10_017
// 034   ----------------------------------------
	BYTE	PATT
	 POIN2	DeltaruneTheWorldRevolvingPikmin1211_10_018
// 035   ----------------------------------------
	BYTE	PATT
	 POIN2	DeltaruneTheWorldRevolvingPikmin1211_10_017
// 036   ----------------------------------------
	BYTE	PATT
	 POIN2	DeltaruneTheWorldRevolvingPikmin1211_10_016
// 037   ----------------------------------------
	BYTE	PATT
	 POIN2	DeltaruneTheWorldRevolvingPikmin1211_10_017
// 038   ----------------------------------------
	BYTE	PATT
	 POIN2	DeltaruneTheWorldRevolvingPikmin1211_10_018
// 039   ----------------------------------------
	BYTE	PATT
	 POIN2	DeltaruneTheWorldRevolvingPikmin1211_10_017
// 040   ----------------------------------------
	BYTE	PATT
	 POIN2	DeltaruneTheWorldRevolvingPikmin1211_10_016
// 041   ----------------------------------------
	BYTE	PATT
	 POIN2	DeltaruneTheWorldRevolvingPikmin1211_10_017
// 042   ----------------------------------------
	BYTE	PATT
	 POIN2	DeltaruneTheWorldRevolvingPikmin1211_10_018
// 043   ----------------------------------------
	BYTE	PATT
	 POIN2	DeltaruneTheWorldRevolvingPikmin1211_10_017
// 044   ----------------------------------------
	BYTE	PATT
	 POIN2	DeltaruneTheWorldRevolvingPikmin1211_10_016
// 045   ----------------------------------------
	BYTE	PATT
	 POIN2	DeltaruneTheWorldRevolvingPikmin1211_10_017
// 046   ----------------------------------------
	BYTE	PATT
	 POIN2	DeltaruneTheWorldRevolvingPikmin1211_10_018
// 047   ----------------------------------------
	BYTE	W96
// 048   ----------------------------------------
	BYTE	PATT
	 POIN2	DeltaruneTheWorldRevolvingPikmin1211_10_016
// 049   ----------------------------------------
	BYTE	PATT
	 POIN2	DeltaruneTheWorldRevolvingPikmin1211_10_017
// 050   ----------------------------------------
	BYTE	PATT
	 POIN2	DeltaruneTheWorldRevolvingPikmin1211_10_018
// 051   ----------------------------------------
	BYTE	PATT
	 POIN2	DeltaruneTheWorldRevolvingPikmin1211_10_017
// 052   ----------------------------------------
	BYTE	PATT
	 POIN2	DeltaruneTheWorldRevolvingPikmin1211_10_016
// 053   ----------------------------------------
	BYTE	PATT
	 POIN2	DeltaruneTheWorldRevolvingPikmin1211_10_017
// 054   ----------------------------------------
	BYTE	PATT
	 POIN2	DeltaruneTheWorldRevolvingPikmin1211_10_018
// 055   ----------------------------------------
	BYTE	PATT
	 POIN2	DeltaruneTheWorldRevolvingPikmin1211_10_016
// 056   ----------------------------------------
	BYTE	PATT
	 POIN2	DeltaruneTheWorldRevolvingPikmin1211_10_016
// 057   ----------------------------------------
	BYTE	PATT
	 POIN2	DeltaruneTheWorldRevolvingPikmin1211_10_017
// 058   ----------------------------------------
	BYTE	PATT
	 POIN2	DeltaruneTheWorldRevolvingPikmin1211_10_018
// 059   ----------------------------------------
	BYTE	PATT
	 POIN2	DeltaruneTheWorldRevolvingPikmin1211_10_017
// 060   ----------------------------------------
	BYTE	PATT
	 POIN2	DeltaruneTheWorldRevolvingPikmin1211_10_016
// 061   ----------------------------------------
	BYTE	PATT
	 POIN2	DeltaruneTheWorldRevolvingPikmin1211_10_017
// 062   ----------------------------------------
	BYTE	PATT
	 POIN2	DeltaruneTheWorldRevolvingPikmin1211_10_018
// 063   ----------------------------------------
	BYTE	W96
// 064   ----------------------------------------
	BYTE	PATT
	 POIN2	DeltaruneTheWorldRevolvingPikmin1211_10_016
// 065   ----------------------------------------
	BYTE	PATT
	 POIN2	DeltaruneTheWorldRevolvingPikmin1211_10_017
// 066   ----------------------------------------
	BYTE	PATT
	 POIN2	DeltaruneTheWorldRevolvingPikmin1211_10_018
// 067   ----------------------------------------
	BYTE	PATT
	 POIN2	DeltaruneTheWorldRevolvingPikmin1211_10_017
// 068   ----------------------------------------
	BYTE	PATT
	 POIN2	DeltaruneTheWorldRevolvingPikmin1211_10_016
// 069   ----------------------------------------
	BYTE	PATT
	 POIN2	DeltaruneTheWorldRevolvingPikmin1211_10_017
// 070   ----------------------------------------
	BYTE	PATT
	 POIN2	DeltaruneTheWorldRevolvingPikmin1211_10_018
// 071   ----------------------------------------
	BYTE	PATT
	 POIN2	DeltaruneTheWorldRevolvingPikmin1211_10_016
// 072   ----------------------------------------
	BYTE	PATT
	 POIN2	DeltaruneTheWorldRevolvingPikmin1211_10_016
// 073   ----------------------------------------
	BYTE	PATT
	 POIN2	DeltaruneTheWorldRevolvingPikmin1211_10_017
// 074   ----------------------------------------
	BYTE	PATT
	 POIN2	DeltaruneTheWorldRevolvingPikmin1211_10_018
// 075   ----------------------------------------
	BYTE	PATT
	 POIN2	DeltaruneTheWorldRevolvingPikmin1211_10_017
// 076   ----------------------------------------
	BYTE	PATT
	 POIN2	DeltaruneTheWorldRevolvingPikmin1211_10_016
// 077   ----------------------------------------
	BYTE	PATT
	 POIN2	DeltaruneTheWorldRevolvingPikmin1211_10_017
// 078   ----------------------------------------
	BYTE	PATT
	 POIN2	DeltaruneTheWorldRevolvingPikmin1211_10_018
// 079   ----------------------------------------
	BYTE	W96
// 080   ----------------------------------------
	BYTE		BEND    c_v+0
	BYTE	W05
	BYTE	GoTo
	 POIN2	DeltaruneTheWorldRevolvingPikmin1211_10_B1
DeltaruneTheWorldRevolvingPikmin1211_10_B2:
	BYTE	W48
	BYTE		BEND    c_v+0
	BYTE	FINE

//**************** Track 11 (Midi-Chn.12) ****************//

DeltaruneTheWorldRevolvingPikmin1211_11:
	BYTE	KEYSH   DeltaruneTheWorldRevolvingPikmin1211_key+0
// 000   ----------------------------------------
	BYTE		VOICE   127
	BYTE		VOL     89*DeltaruneTheWorldRevolvingPikmin1211_mvl/mxv
	BYTE		PAN     c_v+0
	BYTE		BEND    c_v+0
	BYTE		N06     Cn1   v108
	BYTE		N06     Fs1   v116
	BYTE		N06     Fs2   v100
	BYTE	W06
	BYTE		        Fs1   v116
	BYTE	W06
	BYTE		N06   
	BYTE		N06     Fs2   v080
	BYTE	W12
	BYTE		        Cn1   v108
	BYTE		N06     En1   v088
	BYTE		N06     Fs1   v116
	BYTE		N06     Fs2   v100
	BYTE	W06
	BYTE		        Fs1   v116
	BYTE	W06
	BYTE		N06   
	BYTE		N06     Fs2   v080
	BYTE	W06
	BYTE		        Fs1   v116
	BYTE	W06
	BYTE		        Cn1   v108
	BYTE		N06     As1   v116
	BYTE		N06     Fs2   v100
	BYTE	W12
	BYTE		        Fs2   v080
	BYTE	W12
	BYTE		        Cn1   v108
	BYTE		N06     En1   v088
	BYTE		N06     Fs1   v116
	BYTE		N06     Fs2   v100
	BYTE	W12
	BYTE		        Cn1   v108
	BYTE		N06     As1   v116
	BYTE		N06     Fs2   v080
	BYTE	W12
// 001   ----------------------------------------
DeltaruneTheWorldRevolvingPikmin1211_11_001:
	BYTE		N06     Cn1   v108
	BYTE		N06     Fs2   v100
	BYTE	W12
	BYTE		        Fs1   v116
	BYTE		N06     Fs2   v080
	BYTE	W12
	BYTE		        Cn1   v108
	BYTE		N06     En1   v088
	BYTE		N06     Fs1   v116
	BYTE		N06     Fs2   v100
	BYTE	W06
	BYTE		        Fs1   v116
	BYTE	W06
	BYTE		N06   
	BYTE		N06     Fs2   v080
	BYTE	W12
	BYTE		        Cn1   v108
	BYTE		N06     As1   v116
	BYTE		N06     Fs2   v100
	BYTE	W12
	BYTE		        Fs1   v116
	BYTE		N06     Fs2   v080
	BYTE	W12
	BYTE		        Cn1   v108
	BYTE		N06     En1   v088
	BYTE		N06     Fs1   v116
	BYTE		N06     Fs2   v100
	BYTE	W12
	BYTE		N03     Cn1   v108
	BYTE		N06     Fs1   v116
	BYTE		N06     Fs2   v080
	BYTE	W06
	BYTE		N03     Cn1   v088
	BYTE		N06     Fs1   v116
	BYTE	W06
	BYTE	PEND
// 002   ----------------------------------------
DeltaruneTheWorldRevolvingPikmin1211_11_002:
	BYTE		N03     Cn1   v108
	BYTE		N06     Fs1   v116
	BYTE	W06
	BYTE		N06   
	BYTE	W06
	BYTE		N06   
	BYTE	W12
	BYTE		        Cn1   v108
	BYTE		N06     En1   v088
	BYTE		N06     Fs1   v116
	BYTE	W06
	BYTE		N06   
	BYTE	W06
	BYTE		N06   
	BYTE	W06
	BYTE		N06   
	BYTE	W06
	BYTE		        Cn1   v108
	BYTE		N06     As1   v116
	BYTE	W24
	BYTE		        En1   v088
	BYTE		N06     Fs1   v116
	BYTE	W12
	BYTE		        Cn1   v108
	BYTE		N06     As1   v116
	BYTE	W12
	BYTE	PEND
// 003   ----------------------------------------
DeltaruneTheWorldRevolvingPikmin1211_11_003:
	BYTE		N06     Cn1   v108
	BYTE	W12
	BYTE		        Fs1   v116
	BYTE	W12
	BYTE		        Cn1   v108
	BYTE		N06     En1   v088
	BYTE		N06     Fs1   v116
	BYTE	W06
	BYTE		N06   
	BYTE	W06
	BYTE		N06   
	BYTE	W12
	BYTE		        Cn1   v108
	BYTE		N06     As1   v116
	BYTE	W12
	BYTE		        Cn1   v108
	BYTE		N06     Fs1   v116
	BYTE	W12
	BYTE		        Cn1   v108
	BYTE		N06     En1   v088
	BYTE		N06     Fs1   v116
	BYTE	W12
	BYTE		        Cn1   v108
	BYTE		N06     Fs1   v116
	BYTE	W06
	BYTE		N06   
	BYTE	W06
	BYTE	PEND
// 004   ----------------------------------------
DeltaruneTheWorldRevolvingPikmin1211_11_004:
	BYTE		N06     Cn1   v108
	BYTE		N06     Fs1   v116
	BYTE		N06     Fs2   v100
	BYTE	W06
	BYTE		        Fs1   v116
	BYTE	W06
	BYTE		N06   
	BYTE		N06     Fs2   v080
	BYTE	W12
	BYTE		        Cn1   v108
	BYTE		N06     En1   v088
	BYTE		N06     Fs1   v116
	BYTE		N06     Fs2   v100
	BYTE	W06
	BYTE		        Fs1   v116
	BYTE	W06
	BYTE		N06   
	BYTE		N06     Fs2   v080
	BYTE	W06
	BYTE		        Fs1   v116
	BYTE	W06
	BYTE		        Cn1   v108
	BYTE		N06     As1   v116
	BYTE		N06     Fs2   v100
	BYTE	W12
	BYTE		        Fs2   v080
	BYTE	W12
	BYTE		        Cn1   v108
	BYTE		N06     En1   v088
	BYTE		N06     Fs1   v116
	BYTE		N06     Fs2   v100
	BYTE	W12
	BYTE		        Cn1   v108
	BYTE		N06     As1   v116
	BYTE		N06     Fs2   v080
	BYTE	W12
	BYTE	PEND
// 005   ----------------------------------------
	BYTE		        Cn1   v108
	BYTE		N06     Fs2   v100
	BYTE	W12
	BYTE		        Fs1   v116
	BYTE		N06     Fs2   v080
	BYTE	W12
	BYTE		        Cn1   v108
	BYTE		N06     En1   v088
	BYTE		N06     Fs1   v116
	BYTE		N06     Fs2   v100
	BYTE	W06
	BYTE		        Fs1   v116
	BYTE	W06
	BYTE		N06   
	BYTE		N06     Fs2   v080
	BYTE	W12
	BYTE		        Cn1   v108
	BYTE		N06     As1   v116
	BYTE		N06     Fs2   v100
	BYTE	W12
	BYTE		        Fs1   v116
	BYTE		N06     Fs2   v080
	BYTE	W12
	BYTE		        Cn1   v108
	BYTE		N06     En1   v088
	BYTE		N06     Fs1   v116
	BYTE		N06     Fs2   v100
	BYTE	W12
	BYTE		N03     Cn1   v104
	BYTE		N06     Fs1   v116
	BYTE		N06     Fs2   v080
	BYTE	W06
	BYTE		N03     Cn1   v084
	BYTE		N06     Fs1   v116
	BYTE	W06
// 006   ----------------------------------------
	BYTE	PATT
	 POIN2	DeltaruneTheWorldRevolvingPikmin1211_11_002
// 007   ----------------------------------------
	BYTE		N06     Cn1   v108
	BYTE	W12
	BYTE		        Fs1   v116
	BYTE	W12
	BYTE		        Cn1   v108
	BYTE		N06     En1   v088
	BYTE		N06     Fs1   v116
	BYTE	W06
	BYTE		N06   
	BYTE	W06
	BYTE		N06   
	BYTE	W12
	BYTE		        Cn1   v108
	BYTE		N06     As1   v116
	BYTE	W12
	BYTE		        Cn1   v108
	BYTE		N06     Fs1   v116
	BYTE	W12
	BYTE		        Cn1   v108
	BYTE		N06     En1   v088
	BYTE		N06     Fs1   v116
	BYTE	W12
	BYTE		        Cn1   v108
	BYTE		N06     En1   v088
	BYTE		N06     Fs1   v116
	BYTE	W06
	BYTE		N06   
	BYTE	W06
// 008   ----------------------------------------
	BYTE	PATT
	 POIN2	DeltaruneTheWorldRevolvingPikmin1211_11_004
// 009   ----------------------------------------
	BYTE	PATT
	 POIN2	DeltaruneTheWorldRevolvingPikmin1211_11_001
// 010   ----------------------------------------
	BYTE	PATT
	 POIN2	DeltaruneTheWorldRevolvingPikmin1211_11_002
// 011   ----------------------------------------
	BYTE	PATT
	 POIN2	DeltaruneTheWorldRevolvingPikmin1211_11_003
// 012   ----------------------------------------
	BYTE	PATT
	 POIN2	DeltaruneTheWorldRevolvingPikmin1211_11_004
// 013   ----------------------------------------
	BYTE		N06     Cn1   v108
	BYTE		N06     Fs2   v100
	BYTE	W12
	BYTE		        Fs1   v116
	BYTE		N06     Fs2   v080
	BYTE	W12
	BYTE		        Cn1   v108
	BYTE		N06     En1   v088
	BYTE		N06     Fs1   v116
	BYTE		N06     Fs2   v100
	BYTE	W06
	BYTE		        Fs1   v116
	BYTE	W06
	BYTE		N06   
	BYTE		N06     Fs2   v080
	BYTE	W12
	BYTE		        Cn1   v108
	BYTE		N06     As1   v116
	BYTE		N06     Fs2   v100
	BYTE	W12
	BYTE		        Fs1   v116
	BYTE		N06     Fs2   v080
	BYTE	W12
	BYTE		        Cn1 
	BYTE		N06     En1   v088
	BYTE		N06     Fs1   v116
	BYTE		N06     Fs2   v100
	BYTE	W12
	BYTE		N03     Cn1   v104
	BYTE		N06     Fs1   v116
	BYTE		N06     Fs2   v080
	BYTE	W06
	BYTE		N03     Cn1   v084
	BYTE		N06     Fs1   v116
	BYTE	W06
// 014   ----------------------------------------
	BYTE		N03     Cn1   v108
	BYTE	W96
// 015   ----------------------------------------
	BYTE	W92
DeltaruneTheWorldRevolvingPikmin1211_11_B1:
	BYTE	W04
// 016   ----------------------------------------
DeltaruneTheWorldRevolvingPikmin1211_11_016:
	BYTE		N06     Cn1   v108
	BYTE		N06     As1   v100
	BYTE		N06     Cs2   v127
	BYTE		N06     Ds2   v104
	BYTE		N06     Fs2   v100
	BYTE	W12
	BYTE		        Ds1   v096
	BYTE		N06     En1   v080
	BYTE		N06     Fs1   v116
	BYTE		N06     Fs2   v080
	BYTE	W12
	BYTE		        Cn1   v108
	BYTE		N06     As1   v100
	BYTE		N06     Ds2   v104
	BYTE		N06     Fs2   v100
	BYTE	W12
	BYTE		        Ds1   v096
	BYTE		N06     En1   v080
	BYTE		N06     Fs1   v116
	BYTE		N06     Fs2   v080
	BYTE	W12
	BYTE		        Cn1   v108
	BYTE		N06     As1   v100
	BYTE		N06     Ds2   v104
	BYTE		N06     Fs2   v100
	BYTE	W12
	BYTE		        Ds1   v096
	BYTE		N06     En1   v080
	BYTE		N06     Fs2 
	BYTE	W06
	BYTE		        Fs1   v116
	BYTE	W06
	BYTE		        Cn1   v108
	BYTE		N06     As1   v100
	BYTE		N06     Ds2   v104
	BYTE		N06     Fs2   v100
	BYTE	W06
	BYTE		        Cn1   v108
	BYTE	W06
	BYTE		N06   
	BYTE		N06     Ds1   v096
	BYTE		N06     En1   v080
	BYTE		N06     Fs1   v116
	BYTE		N06     Fs2   v080
	BYTE	W12
	BYTE	PEND
// 017   ----------------------------------------
DeltaruneTheWorldRevolvingPikmin1211_11_017:
	BYTE		N06     Cn1   v108
	BYTE		N06     As1   v100
	BYTE		N06     Ds2   v104
	BYTE		N06     Fs2   v100
	BYTE	W12
	BYTE		        Ds1   v096
	BYTE		N06     En1   v080
	BYTE		N06     Fs1   v116
	BYTE		N06     Fs2   v080
	BYTE	W12
	BYTE		        Cn1   v108
	BYTE		N06     As1   v100
	BYTE		N06     Ds2   v104
	BYTE		N06     Fs2   v100
	BYTE	W12
	BYTE		        Ds1   v096
	BYTE		N06     En1   v080
	BYTE		N06     Fs1   v116
	BYTE		N06     Fs2   v080
	BYTE	W12
	BYTE		        Cn1   v108
	BYTE		N06     As1   v100
	BYTE		N06     Ds2   v104
	BYTE		N06     Fs2   v100
	BYTE	W12
	BYTE		        Ds1   v096
	BYTE		N06     En1   v080
	BYTE		N06     Fs2 
	BYTE	W06
	BYTE		        Fs1   v116
	BYTE	W06
	BYTE		        Cn1   v108
	BYTE		N06     As1   v100
	BYTE		N06     Ds2   v104
	BYTE		N06     Fs2   v100
	BYTE	W06
	BYTE		        Cn1   v108
	BYTE	W06
	BYTE		N06   
	BYTE		N06     Ds1   v096
	BYTE		N06     En1   v080
	BYTE		N06     Fs1   v116
	BYTE		N06     Fs2   v080
	BYTE	W12
	BYTE	PEND
// 018   ----------------------------------------
DeltaruneTheWorldRevolvingPikmin1211_11_018:
	BYTE		N06     Cn1   v108
	BYTE		N06     As1   v100
	BYTE		N06     Ds2   v104
	BYTE		N06     Fs2   v100
	BYTE		N06     An2   v127
	BYTE	W12
	BYTE		        Ds1   v096
	BYTE		N06     En1   v080
	BYTE		N06     Fs1   v116
	BYTE		N06     Fs2   v080
	BYTE	W12
	BYTE		        Cn1   v108
	BYTE		N06     As1   v100
	BYTE		N06     Ds2   v104
	BYTE		N06     Fs2   v100
	BYTE	W12
	BYTE		        Ds1   v096
	BYTE		N06     En1   v080
	BYTE		N06     Fs1   v116
	BYTE		N06     Fs2   v080
	BYTE	W12
	BYTE		        Cn1   v108
	BYTE		N06     As1   v100
	BYTE		N06     Ds2   v104
	BYTE		N06     Fs2   v100
	BYTE	W12
	BYTE		        Ds1   v096
	BYTE		N06     En1   v080
	BYTE		N06     Fs2 
	BYTE	W06
	BYTE		        Fs1   v116
	BYTE	W06
	BYTE		        Cn1   v108
	BYTE		N06     As1   v100
	BYTE		N06     Ds2   v104
	BYTE		N06     Fs2   v100
	BYTE	W06
	BYTE		        Cn1   v108
	BYTE	W06
	BYTE		N06   
	BYTE		N06     Ds1   v096
	BYTE		N06     En1   v080
	BYTE		N06     Fs1   v116
	BYTE		N06     Fs2   v080
	BYTE	W12
	BYTE	PEND
// 019   ----------------------------------------
	BYTE	PATT
	 POIN2	DeltaruneTheWorldRevolvingPikmin1211_11_017
// 020   ----------------------------------------
	BYTE	PATT
	 POIN2	DeltaruneTheWorldRevolvingPikmin1211_11_016
// 021   ----------------------------------------
	BYTE	PATT
	 POIN2	DeltaruneTheWorldRevolvingPikmin1211_11_017
// 022   ----------------------------------------
	BYTE	PATT
	 POIN2	DeltaruneTheWorldRevolvingPikmin1211_11_018
// 023   ----------------------------------------
	BYTE	PATT
	 POIN2	DeltaruneTheWorldRevolvingPikmin1211_11_017
// 024   ----------------------------------------
	BYTE	PATT
	 POIN2	DeltaruneTheWorldRevolvingPikmin1211_11_016
// 025   ----------------------------------------
	BYTE	PATT
	 POIN2	DeltaruneTheWorldRevolvingPikmin1211_11_017
// 026   ----------------------------------------
	BYTE	PATT
	 POIN2	DeltaruneTheWorldRevolvingPikmin1211_11_018
// 027   ----------------------------------------
	BYTE	PATT
	 POIN2	DeltaruneTheWorldRevolvingPikmin1211_11_017
// 028   ----------------------------------------
	BYTE	PATT
	 POIN2	DeltaruneTheWorldRevolvingPikmin1211_11_016
// 029   ----------------------------------------
	BYTE	PATT
	 POIN2	DeltaruneTheWorldRevolvingPikmin1211_11_017
// 030   ----------------------------------------
	BYTE	PATT
	 POIN2	DeltaruneTheWorldRevolvingPikmin1211_11_018
// 031   ----------------------------------------
	BYTE	PATT
	 POIN2	DeltaruneTheWorldRevolvingPikmin1211_11_017
// 032   ----------------------------------------
	BYTE	PATT
	 POIN2	DeltaruneTheWorldRevolvingPikmin1211_11_016
// 033   ----------------------------------------
	BYTE	PATT
	 POIN2	DeltaruneTheWorldRevolvingPikmin1211_11_017
// 034   ----------------------------------------
	BYTE	PATT
	 POIN2	DeltaruneTheWorldRevolvingPikmin1211_11_018
// 035   ----------------------------------------
	BYTE	PATT
	 POIN2	DeltaruneTheWorldRevolvingPikmin1211_11_017
// 036   ----------------------------------------
	BYTE	PATT
	 POIN2	DeltaruneTheWorldRevolvingPikmin1211_11_016
// 037   ----------------------------------------
	BYTE	PATT
	 POIN2	DeltaruneTheWorldRevolvingPikmin1211_11_017
// 038   ----------------------------------------
	BYTE	PATT
	 POIN2	DeltaruneTheWorldRevolvingPikmin1211_11_018
// 039   ----------------------------------------
	BYTE	PATT
	 POIN2	DeltaruneTheWorldRevolvingPikmin1211_11_017
// 040   ----------------------------------------
	BYTE	PATT
	 POIN2	DeltaruneTheWorldRevolvingPikmin1211_11_016
// 041   ----------------------------------------
	BYTE	PATT
	 POIN2	DeltaruneTheWorldRevolvingPikmin1211_11_017
// 042   ----------------------------------------
	BYTE	PATT
	 POIN2	DeltaruneTheWorldRevolvingPikmin1211_11_018
// 043   ----------------------------------------
	BYTE	PATT
	 POIN2	DeltaruneTheWorldRevolvingPikmin1211_11_017
// 044   ----------------------------------------
	BYTE	PATT
	 POIN2	DeltaruneTheWorldRevolvingPikmin1211_11_016
// 045   ----------------------------------------
	BYTE	PATT
	 POIN2	DeltaruneTheWorldRevolvingPikmin1211_11_017
// 046   ----------------------------------------
	BYTE	PATT
	 POIN2	DeltaruneTheWorldRevolvingPikmin1211_11_018
// 047   ----------------------------------------
	BYTE	W96
// 048   ----------------------------------------
	BYTE	PATT
	 POIN2	DeltaruneTheWorldRevolvingPikmin1211_11_016
// 049   ----------------------------------------
	BYTE	PATT
	 POIN2	DeltaruneTheWorldRevolvingPikmin1211_11_017
// 050   ----------------------------------------
	BYTE	PATT
	 POIN2	DeltaruneTheWorldRevolvingPikmin1211_11_018
// 051   ----------------------------------------
	BYTE	PATT
	 POIN2	DeltaruneTheWorldRevolvingPikmin1211_11_017
// 052   ----------------------------------------
	BYTE	PATT
	 POIN2	DeltaruneTheWorldRevolvingPikmin1211_11_016
// 053   ----------------------------------------
	BYTE	PATT
	 POIN2	DeltaruneTheWorldRevolvingPikmin1211_11_017
// 054   ----------------------------------------
	BYTE	PATT
	 POIN2	DeltaruneTheWorldRevolvingPikmin1211_11_018
// 055   ----------------------------------------
	BYTE	PATT
	 POIN2	DeltaruneTheWorldRevolvingPikmin1211_11_016
// 056   ----------------------------------------
	BYTE	PATT
	 POIN2	DeltaruneTheWorldRevolvingPikmin1211_11_016
// 057   ----------------------------------------
	BYTE	PATT
	 POIN2	DeltaruneTheWorldRevolvingPikmin1211_11_017
// 058   ----------------------------------------
	BYTE	PATT
	 POIN2	DeltaruneTheWorldRevolvingPikmin1211_11_018
// 059   ----------------------------------------
	BYTE	PATT
	 POIN2	DeltaruneTheWorldRevolvingPikmin1211_11_017
// 060   ----------------------------------------
	BYTE	PATT
	 POIN2	DeltaruneTheWorldRevolvingPikmin1211_11_016
// 061   ----------------------------------------
	BYTE	PATT
	 POIN2	DeltaruneTheWorldRevolvingPikmin1211_11_017
// 062   ----------------------------------------
	BYTE	PATT
	 POIN2	DeltaruneTheWorldRevolvingPikmin1211_11_018
// 063   ----------------------------------------
	BYTE	W96
// 064   ----------------------------------------
	BYTE	PATT
	 POIN2	DeltaruneTheWorldRevolvingPikmin1211_11_016
// 065   ----------------------------------------
	BYTE	PATT
	 POIN2	DeltaruneTheWorldRevolvingPikmin1211_11_017
// 066   ----------------------------------------
	BYTE	PATT
	 POIN2	DeltaruneTheWorldRevolvingPikmin1211_11_018
// 067   ----------------------------------------
	BYTE	PATT
	 POIN2	DeltaruneTheWorldRevolvingPikmin1211_11_017
// 068   ----------------------------------------
	BYTE	PATT
	 POIN2	DeltaruneTheWorldRevolvingPikmin1211_11_016
// 069   ----------------------------------------
	BYTE	PATT
	 POIN2	DeltaruneTheWorldRevolvingPikmin1211_11_017
// 070   ----------------------------------------
	BYTE	PATT
	 POIN2	DeltaruneTheWorldRevolvingPikmin1211_11_018
// 071   ----------------------------------------
	BYTE	PATT
	 POIN2	DeltaruneTheWorldRevolvingPikmin1211_11_016
// 072   ----------------------------------------
	BYTE	PATT
	 POIN2	DeltaruneTheWorldRevolvingPikmin1211_11_016
// 073   ----------------------------------------
	BYTE	PATT
	 POIN2	DeltaruneTheWorldRevolvingPikmin1211_11_017
// 074   ----------------------------------------
	BYTE	PATT
	 POIN2	DeltaruneTheWorldRevolvingPikmin1211_11_018
// 075   ----------------------------------------
	BYTE	PATT
	 POIN2	DeltaruneTheWorldRevolvingPikmin1211_11_017
// 076   ----------------------------------------
	BYTE	PATT
	 POIN2	DeltaruneTheWorldRevolvingPikmin1211_11_016
// 077   ----------------------------------------
	BYTE	PATT
	 POIN2	DeltaruneTheWorldRevolvingPikmin1211_11_017
// 078   ----------------------------------------
	BYTE	PATT
	 POIN2	DeltaruneTheWorldRevolvingPikmin1211_11_018
// 079   ----------------------------------------
	BYTE	W96
// 080   ----------------------------------------
	BYTE		BEND    c_v+0
	BYTE	W05
	BYTE	GoTo
	 POIN2	DeltaruneTheWorldRevolvingPikmin1211_11_B1
DeltaruneTheWorldRevolvingPikmin1211_11_B2:
	BYTE	W48
	BYTE		BEND    c_v+0
	BYTE	FINE

//******************************************************//
	ALIGN 4

DeltaruneTheWorldRevolvingPikmin1211:
	BYTE	11	// NumTrks
	BYTE	0	// NumBlks
	BYTE	DeltaruneTheWorldRevolvingPikmin1211_pri	// Priority
	BYTE	DeltaruneTheWorldRevolvingPikmin1211_rev	// Reverb.

	POIN2	DeltaruneTheWorldRevolvingPikmin1211_grp

	POIN2	DeltaruneTheWorldRevolvingPikmin1211_1
	POIN2	DeltaruneTheWorldRevolvingPikmin1211_2
	POIN2	DeltaruneTheWorldRevolvingPikmin1211_3
	POIN2	DeltaruneTheWorldRevolvingPikmin1211_4
	POIN2	DeltaruneTheWorldRevolvingPikmin1211_5
	POIN2	DeltaruneTheWorldRevolvingPikmin1211_6
	POIN2	DeltaruneTheWorldRevolvingPikmin1211_7
	POIN2	DeltaruneTheWorldRevolvingPikmin1211_8
	POIN2	DeltaruneTheWorldRevolvingPikmin1211_9
	POIN2	DeltaruneTheWorldRevolvingPikmin1211_10
	POIN2	DeltaruneTheWorldRevolvingPikmin1211_11

	
