//Event file generated from Sappy .s format.
	#include "MPlayDef.event"

	#define	UndertaleSongThatMightPlayWhenYouFightSansSme_grp  voicegroup000
	#define	UndertaleSongThatMightPlayWhenYouFightSansSme_pri  0
	#define	UndertaleSongThatMightPlayWhenYouFightSansSme_rev  0
	#define	UndertaleSongThatMightPlayWhenYouFightSansSme_mvl  85
	#define	UndertaleSongThatMightPlayWhenYouFightSansSme_key  0
	#define	UndertaleSongThatMightPlayWhenYouFightSansSme_tbs  1
	#define	UndertaleSongThatMightPlayWhenYouFightSansSme_exg  0
	#define	UndertaleSongThatMightPlayWhenYouFightSansSme_cmp  1

	// .rodata
	//	UndertaleSongThatMightPlayWhenYouFightSansSme
	ALIGN 4

//**************** Track 1 (Midi-Chn.1) ****************//

UndertaleSongThatMightPlayWhenYouFightSansSme_1:
	BYTE	KEYSH   UndertaleSongThatMightPlayWhenYouFightSansSme_key+0
UndertaleSongThatMightPlayWhenYouFightSansSme_1_B1:
// 000   ----------------------------------------
	BYTE	TEMPO   120*UndertaleSongThatMightPlayWhenYouFightSansSme_tbs/2
	BYTE		VOICE   36
	BYTE		PAN     c_v-6
	BYTE		VOL     95*UndertaleSongThatMightPlayWhenYouFightSansSme_mvl/mxv
	BYTE		        95*UndertaleSongThatMightPlayWhenYouFightSansSme_mvl/mxv
	BYTE		        95*UndertaleSongThatMightPlayWhenYouFightSansSme_mvl/mxv
	BYTE		        95*UndertaleSongThatMightPlayWhenYouFightSansSme_mvl/mxv
	BYTE		BEND    c_v+2
	BYTE	W96
// 001   ----------------------------------------
UndertaleSongThatMightPlayWhenYouFightSansSme_1_001:
	BYTE		BEND    c_v+2
	BYTE		N06     Gn1   v100
	BYTE	W06
	BYTE		N06   
	BYTE	W06
	BYTE		N06   
	BYTE	W06
	BYTE		N06   
	BYTE	W06
	BYTE		N06   
	BYTE	W06
	BYTE		N06   
	BYTE	W06
	BYTE		N06   
	BYTE	W06
	BYTE		N06   
	BYTE	W06
	BYTE		N06   
	BYTE	W06
	BYTE		N06   
	BYTE	W06
	BYTE		N06   
	BYTE	W06
	BYTE		N06   
	BYTE	W06
	BYTE		N06   
	BYTE	W06
	BYTE		N06   
	BYTE	W06
	BYTE		N06   
	BYTE	W06
	BYTE		N06   
	BYTE	W06
	BYTE	PEND
// 002   ----------------------------------------
UndertaleSongThatMightPlayWhenYouFightSansSme_1_002:
	BYTE		N06     Cn2   v100
	BYTE	W06
	BYTE		N06   
	BYTE	W06
	BYTE		N06   
	BYTE	W06
	BYTE		N06   
	BYTE	W06
	BYTE		N06   
	BYTE	W06
	BYTE		N06   
	BYTE	W06
	BYTE		N06   
	BYTE	W06
	BYTE		N06   
	BYTE	W06
	BYTE		N18   
	BYTE	W12
	BYTE		BEND    c_v-7
	BYTE	W01
	BYTE		        c_v-19
	BYTE	W01
	BYTE		        c_v-30
	BYTE	W01
	BYTE		        c_v-42
	BYTE	W01
	BYTE		        c_v-54
	BYTE	W01
	BYTE		        c_v-62
	BYTE	W01
	BYTE		        c_v+2
	BYTE		N18     Cs2 
	BYTE	W12
	BYTE		BEND    c_v-7
	BYTE	W01
	BYTE		        c_v-19
	BYTE	W01
	BYTE		        c_v-30
	BYTE	W01
	BYTE		        c_v-42
	BYTE	W01
	BYTE		        c_v-54
	BYTE	W01
	BYTE		        c_v-62
	BYTE	W01
	BYTE		        c_v+2
	BYTE		N12     Dn2 
	BYTE	W06
	BYTE		BEND    c_v-7
	BYTE	W01
	BYTE		        c_v-19
	BYTE	W01
	BYTE		        c_v-30
	BYTE	W01
	BYTE		        c_v-42
	BYTE	W01
	BYTE		        c_v-54
	BYTE	W01
	BYTE		        c_v-62
	BYTE	W01
	BYTE	PEND
// 003   ----------------------------------------
	BYTE	PATT
	 POIN2	UndertaleSongThatMightPlayWhenYouFightSansSme_1_001
// 004   ----------------------------------------
	BYTE	PATT
	 POIN2	UndertaleSongThatMightPlayWhenYouFightSansSme_1_002
// 005   ----------------------------------------
UndertaleSongThatMightPlayWhenYouFightSansSme_1_005:
	BYTE		BEND    c_v+2
	BYTE		N24     Ds1   v100
	BYTE	W24
	BYTE		N24   
	BYTE	W24
	BYTE		        Dn1 
	BYTE	W24
	BYTE		N24   
	BYTE	W24
	BYTE	PEND
// 006   ----------------------------------------
UndertaleSongThatMightPlayWhenYouFightSansSme_1_006:
	BYTE		N24     Cs1   v100
	BYTE	W24
	BYTE		N24   
	BYTE	W24
	BYTE		        Cn1 
	BYTE	W24
	BYTE		N24   
	BYTE	W24
	BYTE	PEND
// 007   ----------------------------------------
UndertaleSongThatMightPlayWhenYouFightSansSme_1_007:
	BYTE		N24     Ds1   v100
	BYTE	W24
	BYTE		N24   
	BYTE	W24
	BYTE		        Dn1 
	BYTE	W24
	BYTE		N24   
	BYTE	W24
	BYTE	PEND
// 008   ----------------------------------------
UndertaleSongThatMightPlayWhenYouFightSansSme_1_008:
	BYTE		N24     Cs1   v100
	BYTE	W24
	BYTE		N24   
	BYTE	W24
	BYTE		        Dn1 
	BYTE	W48
	BYTE	PEND
// 009   ----------------------------------------
	BYTE	PATT
	 POIN2	UndertaleSongThatMightPlayWhenYouFightSansSme_1_001
// 010   ----------------------------------------
	BYTE	PATT
	 POIN2	UndertaleSongThatMightPlayWhenYouFightSansSme_1_002
// 011   ----------------------------------------
	BYTE	PATT
	 POIN2	UndertaleSongThatMightPlayWhenYouFightSansSme_1_001
// 012   ----------------------------------------
	BYTE	PATT
	 POIN2	UndertaleSongThatMightPlayWhenYouFightSansSme_1_002
// 013   ----------------------------------------
	BYTE	PATT
	 POIN2	UndertaleSongThatMightPlayWhenYouFightSansSme_1_005
// 014   ----------------------------------------
	BYTE	PATT
	 POIN2	UndertaleSongThatMightPlayWhenYouFightSansSme_1_006
// 015   ----------------------------------------
	BYTE	PATT
	 POIN2	UndertaleSongThatMightPlayWhenYouFightSansSme_1_007
// 016   ----------------------------------------
	BYTE	PATT
	 POIN2	UndertaleSongThatMightPlayWhenYouFightSansSme_1_008
// 017   ----------------------------------------
UndertaleSongThatMightPlayWhenYouFightSansSme_1_017:
	BYTE		N06     Gn1   v100
	BYTE	W06
	BYTE		N06   
	BYTE	W06
	BYTE		N06   
	BYTE	W06
	BYTE		        Fn1 
	BYTE	W06
	BYTE		        Dn1 
	BYTE	W06
	BYTE		N06   
	BYTE	W06
	BYTE		N06   
	BYTE	W06
	BYTE		        Fn1 
	BYTE	W06
	BYTE		        Gn1 
	BYTE	W06
	BYTE		N06   
	BYTE	W06
	BYTE		N06   
	BYTE	W06
	BYTE		        Fn1 
	BYTE	W06
	BYTE		        Dn1 
	BYTE	W06
	BYTE		N06   
	BYTE	W06
	BYTE		N06   
	BYTE	W06
	BYTE		        Fn1 
	BYTE	W06
	BYTE	PEND
// 018   ----------------------------------------
UndertaleSongThatMightPlayWhenYouFightSansSme_1_018:
	BYTE		N06     Cn2   v100
	BYTE	W06
	BYTE		N06   
	BYTE	W06
	BYTE		N06   
	BYTE	W06
	BYTE		        As1 
	BYTE	W06
	BYTE		        Gn1 
	BYTE	W06
	BYTE		N06   
	BYTE	W06
	BYTE		N06   
	BYTE	W06
	BYTE		        As1 
	BYTE	W06
	BYTE		        Cn2 
	BYTE	W06
	BYTE		N06   
	BYTE	W06
	BYTE		N06   
	BYTE	W06
	BYTE		        As1 
	BYTE	W06
	BYTE		        Gn1 
	BYTE	W06
	BYTE		N06   
	BYTE	W06
	BYTE		N06   
	BYTE	W06
	BYTE		        Fn1 
	BYTE	W06
	BYTE	PEND
// 019   ----------------------------------------
	BYTE	PATT
	 POIN2	UndertaleSongThatMightPlayWhenYouFightSansSme_1_017
// 020   ----------------------------------------
	BYTE	PATT
	 POIN2	UndertaleSongThatMightPlayWhenYouFightSansSme_1_018
// 021   ----------------------------------------
	BYTE	PATT
	 POIN2	UndertaleSongThatMightPlayWhenYouFightSansSme_1_017
// 022   ----------------------------------------
	BYTE	PATT
	 POIN2	UndertaleSongThatMightPlayWhenYouFightSansSme_1_018
// 023   ----------------------------------------
	BYTE	PATT
	 POIN2	UndertaleSongThatMightPlayWhenYouFightSansSme_1_017
// 024   ----------------------------------------
	BYTE	PATT
	 POIN2	UndertaleSongThatMightPlayWhenYouFightSansSme_1_018
// 025   ----------------------------------------
	BYTE	PATT
	 POIN2	UndertaleSongThatMightPlayWhenYouFightSansSme_1_017
// 026   ----------------------------------------
	BYTE	PATT
	 POIN2	UndertaleSongThatMightPlayWhenYouFightSansSme_1_018
// 027   ----------------------------------------
	BYTE	PATT
	 POIN2	UndertaleSongThatMightPlayWhenYouFightSansSme_1_017
// 028   ----------------------------------------
	BYTE	PATT
	 POIN2	UndertaleSongThatMightPlayWhenYouFightSansSme_1_018
	BYTE	GoTo
	 POIN2	UndertaleSongThatMightPlayWhenYouFightSansSme_1_B1
UndertaleSongThatMightPlayWhenYouFightSansSme_1_B2:
// 029   ----------------------------------------
	BYTE	W96
// 030   ----------------------------------------
	BYTE		VOL     95*UndertaleSongThatMightPlayWhenYouFightSansSme_mvl/mxv
	BYTE		        95*UndertaleSongThatMightPlayWhenYouFightSansSme_mvl/mxv
	BYTE		        95*UndertaleSongThatMightPlayWhenYouFightSansSme_mvl/mxv
	BYTE		BEND    c_v+2
	BYTE	FINE

//**************** Track 2 (Midi-Chn.2) ****************//

UndertaleSongThatMightPlayWhenYouFightSansSme_2:
	BYTE	KEYSH   UndertaleSongThatMightPlayWhenYouFightSansSme_key+0
UndertaleSongThatMightPlayWhenYouFightSansSme_2_B1:
// 000   ----------------------------------------
	BYTE		VOICE   29
	BYTE		PAN     c_v+11
	BYTE		VOL     84*UndertaleSongThatMightPlayWhenYouFightSansSme_mvl/mxv
	BYTE		        84*UndertaleSongThatMightPlayWhenYouFightSansSme_mvl/mxv
	BYTE		        84*UndertaleSongThatMightPlayWhenYouFightSansSme_mvl/mxv
	BYTE		        84*UndertaleSongThatMightPlayWhenYouFightSansSme_mvl/mxv
	BYTE		BEND    c_v+2
	BYTE	W96
// 001   ----------------------------------------
UndertaleSongThatMightPlayWhenYouFightSansSme_2_001:
	BYTE		VOL     84*UndertaleSongThatMightPlayWhenYouFightSansSme_mvl/mxv
	BYTE		BEND    c_v+2
	BYTE		N12     Dn4   v100
	BYTE		N12     Gn4 
	BYTE	W12
	BYTE		N06     Cn4 
	BYTE		N06     Fn4 
	BYTE	W12
	BYTE		        Dn4 
	BYTE		N06     Gn4 
	BYTE	W12
	BYTE		        Fn3 
	BYTE	W06
	BYTE		        Fs3 
	BYTE	W06
	BYTE		        Gn3 
	BYTE	W06
	BYTE		        Gn4 
	BYTE	W06
	BYTE		        Fn4 
	BYTE	W06
	BYTE		N12     Dn4 
	BYTE	W12
	BYTE		N06     Cn4 
	BYTE	W06
	BYTE		        As3 
	BYTE	W06
	BYTE		        Gn3 
	BYTE	W06
	BYTE	PEND
// 002   ----------------------------------------
UndertaleSongThatMightPlayWhenYouFightSansSme_2_002:
	BYTE	W12
	BYTE		N06     Gn3   v100
	BYTE		N06     Cn4 
	BYTE	W06
	BYTE		        Fs3 
	BYTE		N06     As3 
	BYTE	W06
	BYTE		        Gn3 
	BYTE		N06     Cn4 
	BYTE	W12
	BYTE		        Dn3 
	BYTE	W06
	BYTE		        Ds3 
	BYTE	W06
	BYTE		        En3 
	BYTE	W06
	BYTE		        Cn4 
	BYTE	W06
	BYTE		        En3 
	BYTE	W06
	BYTE		        Fn3 
	BYTE	W06
	BYTE		        Cs4 
	BYTE	W06
	BYTE		        Fn3 
	BYTE	W06
	BYTE		        Fs3 
	BYTE	W06
	BYTE		        Dn4 
	BYTE	W06
	BYTE	PEND
// 003   ----------------------------------------
UndertaleSongThatMightPlayWhenYouFightSansSme_2_003:
	BYTE	W12
	BYTE		N06     Dn4   v100
	BYTE		N06     Gn4 
	BYTE	W06
	BYTE		        Cn4 
	BYTE		N06     Fn4 
	BYTE	W06
	BYTE		        Dn4 
	BYTE		N06     Gn4 
	BYTE	W12
	BYTE		        Fn3 
	BYTE	W06
	BYTE		        Fs3 
	BYTE	W06
	BYTE		        Gn3 
	BYTE	W06
	BYTE		        Gn4 
	BYTE	W06
	BYTE		        Fn4 
	BYTE	W06
	BYTE		N12     Dn4 
	BYTE	W12
	BYTE		N06     Cn4 
	BYTE	W06
	BYTE		        As3 
	BYTE	W06
	BYTE		        Gn3 
	BYTE	W06
	BYTE	PEND
// 004   ----------------------------------------
	BYTE	PATT
	 POIN2	UndertaleSongThatMightPlayWhenYouFightSansSme_2_002
// 005   ----------------------------------------
	BYTE	W96
// 006   ----------------------------------------
	BYTE	W96
// 007   ----------------------------------------
	BYTE	W96
// 008   ----------------------------------------
	BYTE	W96
// 009   ----------------------------------------
	BYTE	PATT
	 POIN2	UndertaleSongThatMightPlayWhenYouFightSansSme_2_001
// 010   ----------------------------------------
	BYTE	PATT
	 POIN2	UndertaleSongThatMightPlayWhenYouFightSansSme_2_002
// 011   ----------------------------------------
	BYTE	PATT
	 POIN2	UndertaleSongThatMightPlayWhenYouFightSansSme_2_003
// 012   ----------------------------------------
	BYTE	PATT
	 POIN2	UndertaleSongThatMightPlayWhenYouFightSansSme_2_002
// 013   ----------------------------------------
	BYTE	W96
// 014   ----------------------------------------
	BYTE	W96
// 015   ----------------------------------------
	BYTE	W96
// 016   ----------------------------------------
	BYTE	W96
// 017   ----------------------------------------
	BYTE	W96
// 018   ----------------------------------------
	BYTE	W96
// 019   ----------------------------------------
	BYTE	W96
// 020   ----------------------------------------
	BYTE	W96
// 021   ----------------------------------------
	BYTE		VOL     96*UndertaleSongThatMightPlayWhenYouFightSansSme_mvl/mxv
	BYTE		BEND    c_v+2
	BYTE	W12
	BYTE		N06     Gn3   v100
	BYTE		N06     As3 
	BYTE	W12
	BYTE		N06   
	BYTE		N06     Dn4 
	BYTE	W12
	BYTE		N06   
	BYTE		N06     Gn4 
	BYTE	W12
	BYTE		BEND    c_v-9
	BYTE		N24   
	BYTE		N24     As4 
	BYTE	W01
	BYTE		BEND    c_v-9
	BYTE	W01
	BYTE		        c_v-7
	BYTE	W01
	BYTE		        c_v-6
	BYTE	W01
	BYTE		        c_v-4
	BYTE	W01
	BYTE		        c_v-3
	BYTE	W01
	BYTE		        c_v-2
	BYTE	W01
	BYTE		        c_v+0
	BYTE	W01
	BYTE		        c_v+1
	BYTE	W01
	BYTE		        c_v+2
	BYTE	W15
	BYTE		N24     Dn4 
	BYTE		N24     Gn4 
	BYTE	W24
// 022   ----------------------------------------
	BYTE		N12     Cs4 
	BYTE		N12     Fs4 
	BYTE	W12
	BYTE		N06     Dn4 
	BYTE		N06     Gn4 
	BYTE	W12
	BYTE		BEND    c_v-9
	BYTE		N36     En4 
	BYTE		N36     An4 
	BYTE	W01
	BYTE		BEND    c_v-8
	BYTE	W01
	BYTE		        c_v-6
	BYTE	W01
	BYTE		        c_v-5
	BYTE	W01
	BYTE		        c_v-4
	BYTE	W01
	BYTE		        c_v-3
	BYTE	W01
	BYTE		        c_v-1
	BYTE	W01
	BYTE		        c_v+0
	BYTE	W01
	BYTE		        c_v+1
	BYTE	W01
	BYTE		        c_v+2
	BYTE	W24
	BYTE	W03
	BYTE		N12     Dn4 
	BYTE		N12     Gn4 
	BYTE	W12
	BYTE		        As3 
	BYTE		N12     Dn4 
	BYTE	W12
	BYTE		        Gn3 
	BYTE		N12     As3 
	BYTE	W12
// 023   ----------------------------------------
	BYTE		TIE   
	BYTE		TIE     Cs4 
	BYTE	W96
// 024   ----------------------------------------
UndertaleSongThatMightPlayWhenYouFightSansSme_2_024:
	BYTE		VOL     95*UndertaleSongThatMightPlayWhenYouFightSansSme_mvl/mxv
	BYTE		BEND    c_v+2
	BYTE	W01
	BYTE		VOL     94*UndertaleSongThatMightPlayWhenYouFightSansSme_mvl/mxv
	BYTE		BEND    c_v+1
	BYTE	W01
	BYTE		VOL     93*UndertaleSongThatMightPlayWhenYouFightSansSme_mvl/mxv
	BYTE		BEND    c_v+1
	BYTE	W01
	BYTE		VOL     92*UndertaleSongThatMightPlayWhenYouFightSansSme_mvl/mxv
	BYTE		BEND    c_v+1
	BYTE	W01
	BYTE		VOL     91*UndertaleSongThatMightPlayWhenYouFightSansSme_mvl/mxv
	BYTE		BEND    c_v+1
	BYTE	W01
	BYTE		VOL     90*UndertaleSongThatMightPlayWhenYouFightSansSme_mvl/mxv
	BYTE		BEND    c_v+1
	BYTE	W01
	BYTE		VOL     89*UndertaleSongThatMightPlayWhenYouFightSansSme_mvl/mxv
	BYTE		BEND    c_v+1
	BYTE	W01
	BYTE		VOL     88*UndertaleSongThatMightPlayWhenYouFightSansSme_mvl/mxv
	BYTE		BEND    c_v+1
	BYTE	W01
	BYTE		VOL     87*UndertaleSongThatMightPlayWhenYouFightSansSme_mvl/mxv
	BYTE		BEND    c_v+1
	BYTE	W01
	BYTE		VOL     86*UndertaleSongThatMightPlayWhenYouFightSansSme_mvl/mxv
	BYTE		BEND    c_v+1
	BYTE	W01
	BYTE		VOL     85*UndertaleSongThatMightPlayWhenYouFightSansSme_mvl/mxv
	BYTE		BEND    c_v+0
	BYTE	W01
	BYTE		VOL     84*UndertaleSongThatMightPlayWhenYouFightSansSme_mvl/mxv
	BYTE		BEND    c_v+0
	BYTE	W01
	BYTE		VOL     83*UndertaleSongThatMightPlayWhenYouFightSansSme_mvl/mxv
	BYTE		BEND    c_v+0
	BYTE	W01
	BYTE		VOL     82*UndertaleSongThatMightPlayWhenYouFightSansSme_mvl/mxv
	BYTE		BEND    c_v+0
	BYTE	W01
	BYTE		VOL     81*UndertaleSongThatMightPlayWhenYouFightSansSme_mvl/mxv
	BYTE		BEND    c_v+0
	BYTE	W01
	BYTE		VOL     80*UndertaleSongThatMightPlayWhenYouFightSansSme_mvl/mxv
	BYTE		BEND    c_v+0
	BYTE	W01
	BYTE		VOL     79*UndertaleSongThatMightPlayWhenYouFightSansSme_mvl/mxv
	BYTE		BEND    c_v+0
	BYTE	W01
	BYTE		VOL     78*UndertaleSongThatMightPlayWhenYouFightSansSme_mvl/mxv
	BYTE		BEND    c_v+0
	BYTE	W01
	BYTE		VOL     77*UndertaleSongThatMightPlayWhenYouFightSansSme_mvl/mxv
	BYTE		BEND    c_v+0
	BYTE	W01
	BYTE		VOL     76*UndertaleSongThatMightPlayWhenYouFightSansSme_mvl/mxv
	BYTE		BEND    c_v+0
	BYTE	W01
	BYTE		VOL     75*UndertaleSongThatMightPlayWhenYouFightSansSme_mvl/mxv
	BYTE		BEND    c_v-1
	BYTE	W01
	BYTE		VOL     74*UndertaleSongThatMightPlayWhenYouFightSansSme_mvl/mxv
	BYTE		BEND    c_v-1
	BYTE	W01
	BYTE		VOL     73*UndertaleSongThatMightPlayWhenYouFightSansSme_mvl/mxv
	BYTE		BEND    c_v-1
	BYTE	W01
	BYTE		VOL     72*UndertaleSongThatMightPlayWhenYouFightSansSme_mvl/mxv
	BYTE		BEND    c_v-1
	BYTE	W01
	BYTE		VOL     71*UndertaleSongThatMightPlayWhenYouFightSansSme_mvl/mxv
	BYTE		BEND    c_v-1
	BYTE	W01
	BYTE		VOL     70*UndertaleSongThatMightPlayWhenYouFightSansSme_mvl/mxv
	BYTE		BEND    c_v-1
	BYTE	W01
	BYTE		VOL     69*UndertaleSongThatMightPlayWhenYouFightSansSme_mvl/mxv
	BYTE		BEND    c_v-1
	BYTE	W01
	BYTE		VOL     68*UndertaleSongThatMightPlayWhenYouFightSansSme_mvl/mxv
	BYTE		BEND    c_v-1
	BYTE	W01
	BYTE		VOL     67*UndertaleSongThatMightPlayWhenYouFightSansSme_mvl/mxv
	BYTE		BEND    c_v-2
	BYTE	W01
	BYTE		VOL     66*UndertaleSongThatMightPlayWhenYouFightSansSme_mvl/mxv
	BYTE		BEND    c_v-2
	BYTE	W01
	BYTE		VOL     65*UndertaleSongThatMightPlayWhenYouFightSansSme_mvl/mxv
	BYTE		BEND    c_v-2
	BYTE	W01
	BYTE		VOL     64*UndertaleSongThatMightPlayWhenYouFightSansSme_mvl/mxv
	BYTE		BEND    c_v-2
	BYTE	W01
	BYTE		VOL     63*UndertaleSongThatMightPlayWhenYouFightSansSme_mvl/mxv
	BYTE		BEND    c_v-2
	BYTE	W01
	BYTE		VOL     62*UndertaleSongThatMightPlayWhenYouFightSansSme_mvl/mxv
	BYTE		BEND    c_v-2
	BYTE	W01
	BYTE		VOL     61*UndertaleSongThatMightPlayWhenYouFightSansSme_mvl/mxv
	BYTE		BEND    c_v-2
	BYTE	W01
	BYTE		VOL     60*UndertaleSongThatMightPlayWhenYouFightSansSme_mvl/mxv
	BYTE		BEND    c_v-2
	BYTE	W01
	BYTE		VOL     59*UndertaleSongThatMightPlayWhenYouFightSansSme_mvl/mxv
	BYTE		BEND    c_v-2
	BYTE	W01
	BYTE		VOL     58*UndertaleSongThatMightPlayWhenYouFightSansSme_mvl/mxv
	BYTE		BEND    c_v-3
	BYTE	W01
	BYTE		VOL     57*UndertaleSongThatMightPlayWhenYouFightSansSme_mvl/mxv
	BYTE		BEND    c_v-3
	BYTE	W01
	BYTE		VOL     56*UndertaleSongThatMightPlayWhenYouFightSansSme_mvl/mxv
	BYTE		BEND    c_v-3
	BYTE	W01
	BYTE		VOL     55*UndertaleSongThatMightPlayWhenYouFightSansSme_mvl/mxv
	BYTE		BEND    c_v-3
	BYTE	W01
	BYTE		VOL     54*UndertaleSongThatMightPlayWhenYouFightSansSme_mvl/mxv
	BYTE		BEND    c_v-3
	BYTE	W01
	BYTE		VOL     53*UndertaleSongThatMightPlayWhenYouFightSansSme_mvl/mxv
	BYTE		BEND    c_v-3
	BYTE	W01
	BYTE		VOL     52*UndertaleSongThatMightPlayWhenYouFightSansSme_mvl/mxv
	BYTE		BEND    c_v-3
	BYTE	W01
	BYTE		VOL     51*UndertaleSongThatMightPlayWhenYouFightSansSme_mvl/mxv
	BYTE		BEND    c_v-3
	BYTE	W01
	BYTE		VOL     50*UndertaleSongThatMightPlayWhenYouFightSansSme_mvl/mxv
	BYTE		BEND    c_v-3
	BYTE	W01
	BYTE		VOL     49*UndertaleSongThatMightPlayWhenYouFightSansSme_mvl/mxv
	BYTE		BEND    c_v-4
	BYTE	W01
	BYTE		VOL     48*UndertaleSongThatMightPlayWhenYouFightSansSme_mvl/mxv
	BYTE		BEND    c_v-4
	BYTE	W01
	BYTE		VOL     47*UndertaleSongThatMightPlayWhenYouFightSansSme_mvl/mxv
	BYTE	W01
	BYTE		        46*UndertaleSongThatMightPlayWhenYouFightSansSme_mvl/mxv
	BYTE	W01
	BYTE		        45*UndertaleSongThatMightPlayWhenYouFightSansSme_mvl/mxv
	BYTE	W01
	BYTE		        44*UndertaleSongThatMightPlayWhenYouFightSansSme_mvl/mxv
	BYTE	W01
	BYTE		        43*UndertaleSongThatMightPlayWhenYouFightSansSme_mvl/mxv
	BYTE	W01
	BYTE		        42*UndertaleSongThatMightPlayWhenYouFightSansSme_mvl/mxv
	BYTE	W01
	BYTE		        41*UndertaleSongThatMightPlayWhenYouFightSansSme_mvl/mxv
	BYTE	W01
	BYTE		        40*UndertaleSongThatMightPlayWhenYouFightSansSme_mvl/mxv
	BYTE	W01
	BYTE		        39*UndertaleSongThatMightPlayWhenYouFightSansSme_mvl/mxv
	BYTE	W01
	BYTE		        38*UndertaleSongThatMightPlayWhenYouFightSansSme_mvl/mxv
	BYTE	W01
	BYTE		        37*UndertaleSongThatMightPlayWhenYouFightSansSme_mvl/mxv
	BYTE	W01
	BYTE		        36*UndertaleSongThatMightPlayWhenYouFightSansSme_mvl/mxv
	BYTE	W01
	BYTE		        35*UndertaleSongThatMightPlayWhenYouFightSansSme_mvl/mxv
	BYTE	W01
	BYTE		        34*UndertaleSongThatMightPlayWhenYouFightSansSme_mvl/mxv
	BYTE	W01
	BYTE		        33*UndertaleSongThatMightPlayWhenYouFightSansSme_mvl/mxv
	BYTE	W01
	BYTE		        32*UndertaleSongThatMightPlayWhenYouFightSansSme_mvl/mxv
	BYTE	W01
	BYTE		        31*UndertaleSongThatMightPlayWhenYouFightSansSme_mvl/mxv
	BYTE	W01
	BYTE		        30*UndertaleSongThatMightPlayWhenYouFightSansSme_mvl/mxv
	BYTE	W01
	BYTE		        29*UndertaleSongThatMightPlayWhenYouFightSansSme_mvl/mxv
	BYTE	W01
	BYTE		        28*UndertaleSongThatMightPlayWhenYouFightSansSme_mvl/mxv
	BYTE	W01
	BYTE		        27*UndertaleSongThatMightPlayWhenYouFightSansSme_mvl/mxv
	BYTE	W01
	BYTE		        26*UndertaleSongThatMightPlayWhenYouFightSansSme_mvl/mxv
	BYTE	W01
	BYTE		        25*UndertaleSongThatMightPlayWhenYouFightSansSme_mvl/mxv
	BYTE	W01
	BYTE		        23*UndertaleSongThatMightPlayWhenYouFightSansSme_mvl/mxv
	BYTE	W01
	BYTE		        22*UndertaleSongThatMightPlayWhenYouFightSansSme_mvl/mxv
	BYTE	W01
	BYTE		        21*UndertaleSongThatMightPlayWhenYouFightSansSme_mvl/mxv
	BYTE	W01
	BYTE		        20*UndertaleSongThatMightPlayWhenYouFightSansSme_mvl/mxv
	BYTE	W01
	BYTE		        19*UndertaleSongThatMightPlayWhenYouFightSansSme_mvl/mxv
	BYTE	W01
	BYTE		        18*UndertaleSongThatMightPlayWhenYouFightSansSme_mvl/mxv
	BYTE	W01
	BYTE		        17*UndertaleSongThatMightPlayWhenYouFightSansSme_mvl/mxv
	BYTE	W01
	BYTE		        16*UndertaleSongThatMightPlayWhenYouFightSansSme_mvl/mxv
	BYTE	W01
	BYTE		        15*UndertaleSongThatMightPlayWhenYouFightSansSme_mvl/mxv
	BYTE	W01
	BYTE		        14*UndertaleSongThatMightPlayWhenYouFightSansSme_mvl/mxv
	BYTE	W01
	BYTE		        13*UndertaleSongThatMightPlayWhenYouFightSansSme_mvl/mxv
	BYTE	W01
	BYTE		        12*UndertaleSongThatMightPlayWhenYouFightSansSme_mvl/mxv
	BYTE	W01
	BYTE		        11*UndertaleSongThatMightPlayWhenYouFightSansSme_mvl/mxv
	BYTE	W01
	BYTE		        10*UndertaleSongThatMightPlayWhenYouFightSansSme_mvl/mxv
	BYTE	W01
	BYTE		        9*UndertaleSongThatMightPlayWhenYouFightSansSme_mvl/mxv
	BYTE	W01
	BYTE		        8*UndertaleSongThatMightPlayWhenYouFightSansSme_mvl/mxv
	BYTE	W01
	BYTE		        7*UndertaleSongThatMightPlayWhenYouFightSansSme_mvl/mxv
	BYTE	W01
	BYTE		        6*UndertaleSongThatMightPlayWhenYouFightSansSme_mvl/mxv
	BYTE	W01
	BYTE		        5*UndertaleSongThatMightPlayWhenYouFightSansSme_mvl/mxv
	BYTE	W01
	BYTE		        4*UndertaleSongThatMightPlayWhenYouFightSansSme_mvl/mxv
	BYTE	W01
	BYTE		        3*UndertaleSongThatMightPlayWhenYouFightSansSme_mvl/mxv
	BYTE	W01
	BYTE		        2*UndertaleSongThatMightPlayWhenYouFightSansSme_mvl/mxv
	BYTE	W01
	BYTE		        1*UndertaleSongThatMightPlayWhenYouFightSansSme_mvl/mxv
	BYTE	W01
	BYTE		        0*UndertaleSongThatMightPlayWhenYouFightSansSme_mvl/mxv
	BYTE	W01
	BYTE		        0*UndertaleSongThatMightPlayWhenYouFightSansSme_mvl/mxv
	BYTE	W01
	BYTE	PEND
	BYTE		EOT     As3 
	BYTE		        Cs4 
// 025   ----------------------------------------
	BYTE		VOL     96*UndertaleSongThatMightPlayWhenYouFightSansSme_mvl/mxv
	BYTE		BEND    c_v+2
	BYTE		N06     Fn3   v100
	BYTE	W06
	BYTE		        Gn3 
	BYTE	W06
	BYTE		N06   
	BYTE		N06     As3 
	BYTE	W06
	BYTE		        Cn4 
	BYTE	W06
	BYTE		        As3 
	BYTE		N06     Dn4 
	BYTE	W06
	BYTE		        Gn3 
	BYTE		N06     As3 
	BYTE	W06
	BYTE		        Dn4 
	BYTE		N06     Gn4 
	BYTE	W06
	BYTE		        As3 
	BYTE		N06     Fn4 
	BYTE	W06
	BYTE		BEND    c_v-9
	BYTE		N24     Gn4 
	BYTE		N24     As4 
	BYTE	W01
	BYTE		BEND    c_v-9
	BYTE	W01
	BYTE		        c_v-7
	BYTE	W01
	BYTE		        c_v-6
	BYTE	W01
	BYTE		        c_v-4
	BYTE	W01
	BYTE		        c_v-3
	BYTE	W01
	BYTE		        c_v-2
	BYTE	W01
	BYTE		        c_v+0
	BYTE	W01
	BYTE		        c_v+1
	BYTE	W01
	BYTE		        c_v+2
	BYTE	W15
	BYTE		N24     Dn4 
	BYTE		N12     Gn4 
	BYTE	W12
	BYTE		N06   
	BYTE	W06
	BYTE		        An4 
	BYTE	W06
// 026   ----------------------------------------
	BYTE		N12     Cn4 
	BYTE		N12     En4 
	BYTE		N06     As4 
	BYTE	W12
	BYTE		N12     Dn4 
	BYTE		N12     Fn4 
	BYTE		N06     An4 
	BYTE	W12
	BYTE		BEND    c_v-9
	BYTE		N24     En4 
	BYTE		N24     Gn4 
	BYTE	W01
	BYTE		BEND    c_v-8
	BYTE	W01
	BYTE		        c_v-6
	BYTE	W01
	BYTE		        c_v-5
	BYTE	W01
	BYTE		        c_v-4
	BYTE	W01
	BYTE		        c_v-3
	BYTE	W01
	BYTE		        c_v-1
	BYTE	W01
	BYTE		        c_v+0
	BYTE	W01
	BYTE		        c_v+1
	BYTE	W01
	BYTE		        c_v+2
	BYTE	W03
	BYTE		N06     As4 
	BYTE	W12
	BYTE		N12     Cn4 
	BYTE		N12     En4 
	BYTE		N06     An4 
	BYTE	W12
	BYTE		N12     An3 
	BYTE		N12     Cn4 
	BYTE		N06     Fn4 
	BYTE	W12
	BYTE		N12     Fn3 
	BYTE		N12     An3 
	BYTE		N06     An4 
	BYTE	W12
	BYTE		N12     Gn3 
	BYTE		N12     As3 
	BYTE		N06     Fn4 
	BYTE	W12
// 027   ----------------------------------------
	BYTE		BEND    c_v-3
	BYTE		TIE     As3 
	BYTE		TIE     Fn4 
	BYTE	W01
	BYTE		BEND    c_v-3
	BYTE	W01
	BYTE		        c_v-2
	BYTE	W01
	BYTE		        c_v-2
	BYTE	W01
	BYTE		        c_v-2
	BYTE	W01
	BYTE		        c_v-1
	BYTE	W01
	BYTE		        c_v-1
	BYTE	W01
	BYTE		        c_v+0
	BYTE	W01
	BYTE		        c_v+0
	BYTE	W01
	BYTE		        c_v+1
	BYTE	W01
	BYTE		        c_v+1
	BYTE	W01
	BYTE		        c_v+2
	BYTE	W84
	BYTE	W01
// 028   ----------------------------------------
	BYTE	PATT
	 POIN2	UndertaleSongThatMightPlayWhenYouFightSansSme_2_024
	BYTE		EOT     As3 
	BYTE		        Fn4 
	BYTE	GoTo
	 POIN2	UndertaleSongThatMightPlayWhenYouFightSansSme_2_B1
UndertaleSongThatMightPlayWhenYouFightSansSme_2_B2:
// 029   ----------------------------------------
	BYTE	W96
// 030   ----------------------------------------
	BYTE		BEND    c_v-4
	BYTE	FINE

//**************** Track 3 (Midi-Chn.3) ****************//

UndertaleSongThatMightPlayWhenYouFightSansSme_3:
	BYTE	KEYSH   UndertaleSongThatMightPlayWhenYouFightSansSme_key+0
UndertaleSongThatMightPlayWhenYouFightSansSme_3_B1:
// 000   ----------------------------------------
	BYTE		VOICE   18
	BYTE		VOL     87*UndertaleSongThatMightPlayWhenYouFightSansSme_mvl/mxv
	BYTE		PAN     c_v-18
	BYTE		BEND    c_v+2
	BYTE	W96
// 001   ----------------------------------------
	BYTE		N96     As4   v084
	BYTE		N96     Dn5 
	BYTE	W96
// 002   ----------------------------------------
UndertaleSongThatMightPlayWhenYouFightSansSme_3_002:
	BYTE		N48     Cn5   v080
	BYTE		N48     En5 
	BYTE	W48
	BYTE		N12     Cn5 
	BYTE		N12     En5 
	BYTE	W18
	BYTE		        Cs5 
	BYTE		N12     Fn5 
	BYTE	W18
	BYTE		        Dn5 
	BYTE		N12     Fs5 
	BYTE	W12
	BYTE	PEND
// 003   ----------------------------------------
	BYTE		N96     As4   v084
	BYTE		N96     Dn5 
	BYTE	W96
// 004   ----------------------------------------
UndertaleSongThatMightPlayWhenYouFightSansSme_3_004:
	BYTE		N48     Cn5   v100
	BYTE		N48     En5 
	BYTE	W48
	BYTE		N12     Cn5 
	BYTE		N12     En5 
	BYTE	W18
	BYTE		        Cs5 
	BYTE		N12     Fn5 
	BYTE	W18
	BYTE		        Dn5 
	BYTE		N12     Fs5 
	BYTE	W12
	BYTE	PEND
// 005   ----------------------------------------
UndertaleSongThatMightPlayWhenYouFightSansSme_3_005:
	BYTE	W12
	BYTE		N04     As4   v100
	BYTE		N04     Ds5 
	BYTE	W06
	BYTE		        An4 
	BYTE		N04     Dn5 
	BYTE	W06
	BYTE		        As4 
	BYTE		N04     Ds5 
	BYTE	W12
	BYTE		        As4 
	BYTE		N04     Ds5 
	BYTE	W06
	BYTE		        Cn5 
	BYTE		N04     Fn5 
	BYTE	W06
	BYTE		        Cs5 
	BYTE		N04     Fs5 
	BYTE	W06
	BYTE		        An4 
	BYTE		N04     Dn5 
	BYTE	W06
	BYTE		        En4 
	BYTE		N04     An4 
	BYTE	W06
	BYTE		N10     Cs4 
	BYTE		N10     Fs4 
	BYTE	W12
	BYTE		N04     Dn4 
	BYTE		N04     Gn4 
	BYTE	W06
	BYTE		N10     En4 
	BYTE		N10     An4 
	BYTE	W12
	BYTE	PEND
// 006   ----------------------------------------
UndertaleSongThatMightPlayWhenYouFightSansSme_3_006:
	BYTE	W12
	BYTE		N04     Gn4   v100
	BYTE		N04     Cn5 
	BYTE	W06
	BYTE		        Fn4 
	BYTE		N04     As4 
	BYTE	W06
	BYTE		        Gn4 
	BYTE		N04     Cn5 
	BYTE	W12
	BYTE		        Gn4 
	BYTE		N04     Cn5 
	BYTE	W06
	BYTE		        Fn4 
	BYTE		N04     As4 
	BYTE	W06
	BYTE		        Gn4 
	BYTE		N04     Cn5 
	BYTE	W06
	BYTE		        Fn4 
	BYTE		N04     As4 
	BYTE	W06
	BYTE		        An4 
	BYTE		N04     Dn5 
	BYTE	W06
	BYTE		        Gn4 
	BYTE		N04     Cn5 
	BYTE	W12
	BYTE		        Gn4 
	BYTE		N04     Cn5 
	BYTE	W06
	BYTE		N10     Fn4 
	BYTE		N10     As4 
	BYTE	W12
	BYTE	PEND
// 007   ----------------------------------------
	BYTE	PATT
	 POIN2	UndertaleSongThatMightPlayWhenYouFightSansSme_3_005
// 008   ----------------------------------------
UndertaleSongThatMightPlayWhenYouFightSansSme_3_008:
	BYTE	W12
	BYTE		N04     Gn4   v100
	BYTE		N04     Cn5 
	BYTE	W06
	BYTE		        Fn4 
	BYTE		N04     As4 
	BYTE	W06
	BYTE		        Gn4 
	BYTE		N04     Cn5 
	BYTE	W12
	BYTE		        Gn4 
	BYTE		N04     Cn5 
	BYTE	W06
	BYTE		        Fn4 
	BYTE		N04     As4 
	BYTE	W06
	BYTE		        Cn5 
	BYTE	W06
	BYTE		        As4 
	BYTE	W06
	BYTE		        Cn5 
	BYTE	W06
	BYTE		        Fs5 
	BYTE	W12
	BYTE		        Gn5 
	BYTE	W06
	BYTE		N10     An5 
	BYTE	W12
	BYTE	PEND
// 009   ----------------------------------------
	BYTE		N96     As4   v084
	BYTE		N96     Dn5 
	BYTE	W96
// 010   ----------------------------------------
	BYTE	PATT
	 POIN2	UndertaleSongThatMightPlayWhenYouFightSansSme_3_002
// 011   ----------------------------------------
	BYTE		N96     As4   v084
	BYTE		N96     Dn5 
	BYTE	W96
// 012   ----------------------------------------
	BYTE	PATT
	 POIN2	UndertaleSongThatMightPlayWhenYouFightSansSme_3_004
// 013   ----------------------------------------
	BYTE	PATT
	 POIN2	UndertaleSongThatMightPlayWhenYouFightSansSme_3_005
// 014   ----------------------------------------
	BYTE	PATT
	 POIN2	UndertaleSongThatMightPlayWhenYouFightSansSme_3_006
// 015   ----------------------------------------
	BYTE	PATT
	 POIN2	UndertaleSongThatMightPlayWhenYouFightSansSme_3_005
// 016   ----------------------------------------
	BYTE	PATT
	 POIN2	UndertaleSongThatMightPlayWhenYouFightSansSme_3_008
// 017   ----------------------------------------
	BYTE	W96
// 018   ----------------------------------------
	BYTE	W96
// 019   ----------------------------------------
	BYTE	W96
// 020   ----------------------------------------
	BYTE	W96
// 021   ----------------------------------------
	BYTE	W96
// 022   ----------------------------------------
	BYTE	W96
// 023   ----------------------------------------
	BYTE	W96
// 024   ----------------------------------------
	BYTE	W96
// 025   ----------------------------------------
	BYTE	W96
// 026   ----------------------------------------
	BYTE	W96
// 027   ----------------------------------------
	BYTE	W96
// 028   ----------------------------------------
	BYTE	W96
	BYTE	GoTo
	 POIN2	UndertaleSongThatMightPlayWhenYouFightSansSme_3_B1
UndertaleSongThatMightPlayWhenYouFightSansSme_3_B2:
// 029   ----------------------------------------
	BYTE	W96
// 030   ----------------------------------------
	BYTE		BEND    c_v+2
	BYTE	FINE

//**************** Track 4 (Midi-Chn.4) ****************//

UndertaleSongThatMightPlayWhenYouFightSansSme_4:
	BYTE	KEYSH   UndertaleSongThatMightPlayWhenYouFightSansSme_key+0
UndertaleSongThatMightPlayWhenYouFightSansSme_4_B1:
// 000   ----------------------------------------
	BYTE		VOICE   81
	BYTE		PAN     c_v+13
	BYTE		VOL     53*UndertaleSongThatMightPlayWhenYouFightSansSme_mvl/mxv
	BYTE		BEND    c_v+2
	BYTE	W96
// 001   ----------------------------------------
	BYTE	W96
// 002   ----------------------------------------
	BYTE	W96
// 003   ----------------------------------------
	BYTE	W96
// 004   ----------------------------------------
	BYTE	W96
// 005   ----------------------------------------
UndertaleSongThatMightPlayWhenYouFightSansSme_4_005:
	BYTE		N06     As3   v100
	BYTE	W12
	BYTE		        Ds4 
	BYTE	W12
	BYTE		        Gn4 
	BYTE	W12
	BYTE		        As3 
	BYTE	W12
	BYTE		        An3 
	BYTE	W12
	BYTE		        Dn4 
	BYTE	W12
	BYTE		        Fs4 
	BYTE	W12
	BYTE		        Dn4 
	BYTE	W12
	BYTE	PEND
// 006   ----------------------------------------
UndertaleSongThatMightPlayWhenYouFightSansSme_4_006:
	BYTE		N06     Gs3   v100
	BYTE	W12
	BYTE		        Cs4 
	BYTE	W12
	BYTE		        Fn4 
	BYTE	W12
	BYTE		        Cs4 
	BYTE	W12
	BYTE		        As3 
	BYTE	W12
	BYTE		        Cn4 
	BYTE	W12
	BYTE		        As3 
	BYTE	W12
	BYTE		        Gn3 
	BYTE	W12
	BYTE	PEND
// 007   ----------------------------------------
	BYTE	PATT
	 POIN2	UndertaleSongThatMightPlayWhenYouFightSansSme_4_005
// 008   ----------------------------------------
UndertaleSongThatMightPlayWhenYouFightSansSme_4_008:
	BYTE		N06     Gs3   v100
	BYTE	W12
	BYTE		        Cs4 
	BYTE	W12
	BYTE		        Fn4 
	BYTE	W12
	BYTE		        Cs4 
	BYTE	W12
	BYTE		N12     Dn4 
	BYTE	W48
	BYTE	PEND
// 009   ----------------------------------------
	BYTE	W96
// 010   ----------------------------------------
	BYTE	W96
// 011   ----------------------------------------
	BYTE	W96
// 012   ----------------------------------------
	BYTE	W96
// 013   ----------------------------------------
	BYTE	PATT
	 POIN2	UndertaleSongThatMightPlayWhenYouFightSansSme_4_005
// 014   ----------------------------------------
	BYTE	PATT
	 POIN2	UndertaleSongThatMightPlayWhenYouFightSansSme_4_006
// 015   ----------------------------------------
	BYTE	PATT
	 POIN2	UndertaleSongThatMightPlayWhenYouFightSansSme_4_005
// 016   ----------------------------------------
	BYTE	PATT
	 POIN2	UndertaleSongThatMightPlayWhenYouFightSansSme_4_008
// 017   ----------------------------------------
	BYTE	W96
// 018   ----------------------------------------
	BYTE	W96
// 019   ----------------------------------------
	BYTE	W96
// 020   ----------------------------------------
	BYTE	W96
// 021   ----------------------------------------
	BYTE	W96
// 022   ----------------------------------------
	BYTE	W96
// 023   ----------------------------------------
	BYTE	W96
// 024   ----------------------------------------
	BYTE	W96
// 025   ----------------------------------------
	BYTE	W96
// 026   ----------------------------------------
	BYTE	W96
// 027   ----------------------------------------
	BYTE	W96
// 028   ----------------------------------------
	BYTE	W96
	BYTE	GoTo
	 POIN2	UndertaleSongThatMightPlayWhenYouFightSansSme_4_B1
UndertaleSongThatMightPlayWhenYouFightSansSme_4_B2:
// 029   ----------------------------------------
	BYTE	W96
// 030   ----------------------------------------
	BYTE		BEND    c_v+2
	BYTE	FINE

//**************** Track 5 (Midi-Chn.5) ****************//

UndertaleSongThatMightPlayWhenYouFightSansSme_5:
	BYTE	KEYSH   UndertaleSongThatMightPlayWhenYouFightSansSme_key+0
UndertaleSongThatMightPlayWhenYouFightSansSme_5_B1:
// 000   ----------------------------------------
	BYTE		VOICE   60
	BYTE		PAN     c_v-8
	BYTE		VOL     83*UndertaleSongThatMightPlayWhenYouFightSansSme_mvl/mxv
	BYTE		        83*UndertaleSongThatMightPlayWhenYouFightSansSme_mvl/mxv
	BYTE		        83*UndertaleSongThatMightPlayWhenYouFightSansSme_mvl/mxv
	BYTE		        83*UndertaleSongThatMightPlayWhenYouFightSansSme_mvl/mxv
	BYTE		BEND    c_v+2
	BYTE	W96
// 001   ----------------------------------------
	BYTE	W96
// 002   ----------------------------------------
	BYTE	W96
// 003   ----------------------------------------
	BYTE	W96
// 004   ----------------------------------------
	BYTE	W96
// 005   ----------------------------------------
	BYTE	W96
// 006   ----------------------------------------
	BYTE	W96
// 007   ----------------------------------------
	BYTE	W96
// 008   ----------------------------------------
	BYTE	W96
// 009   ----------------------------------------
	BYTE	W96
// 010   ----------------------------------------
	BYTE	W96
// 011   ----------------------------------------
	BYTE	W96
// 012   ----------------------------------------
	BYTE	W96
// 013   ----------------------------------------
	BYTE	W96
// 014   ----------------------------------------
	BYTE	W96
// 015   ----------------------------------------
	BYTE	W96
// 016   ----------------------------------------
	BYTE	W96
// 017   ----------------------------------------
UndertaleSongThatMightPlayWhenYouFightSansSme_5_017:
	BYTE	W12
	BYTE		N06     As3   v100
	BYTE		N06     Dn4 
	BYTE	W24
	BYTE		        Cn4 
	BYTE		N06     En4 
	BYTE	W24
	BYTE		        As3 
	BYTE		N06     Dn4 
	BYTE	W24
	BYTE		        An3 
	BYTE		N06     Cs4 
	BYTE	W12
	BYTE	PEND
// 018   ----------------------------------------
UndertaleSongThatMightPlayWhenYouFightSansSme_5_018:
	BYTE	W12
	BYTE		N06     Ds4   v100
	BYTE		N06     Gn4 
	BYTE	W24
	BYTE		        Fn4 
	BYTE		N06     An4 
	BYTE	W24
	BYTE		        Ds4 
	BYTE		N06     Gn4 
	BYTE	W24
	BYTE		        Dn4 
	BYTE		N06     Fs4 
	BYTE	W12
	BYTE	PEND
// 019   ----------------------------------------
	BYTE	PATT
	 POIN2	UndertaleSongThatMightPlayWhenYouFightSansSme_5_017
// 020   ----------------------------------------
	BYTE	PATT
	 POIN2	UndertaleSongThatMightPlayWhenYouFightSansSme_5_018
// 021   ----------------------------------------
UndertaleSongThatMightPlayWhenYouFightSansSme_5_021:
	BYTE	W12
	BYTE		N06     As2   v100
	BYTE		N06     Dn3 
	BYTE	W24
	BYTE		        An2 
	BYTE		N06     Cs3 
	BYTE	W24
	BYTE		        As2 
	BYTE		N06     Dn3 
	BYTE	W24
	BYTE		        Cn3 
	BYTE		N06     En3 
	BYTE	W12
	BYTE	PEND
// 022   ----------------------------------------
UndertaleSongThatMightPlayWhenYouFightSansSme_5_022:
	BYTE	W12
	BYTE		N06     Ds3   v100
	BYTE		N06     Gn3 
	BYTE	W24
	BYTE		        Dn3 
	BYTE		N06     Fs3 
	BYTE	W24
	BYTE		        Ds3 
	BYTE		N06     Gn3 
	BYTE	W24
	BYTE		        Fn3 
	BYTE		N06     An3 
	BYTE	W12
	BYTE	PEND
// 023   ----------------------------------------
	BYTE	PATT
	 POIN2	UndertaleSongThatMightPlayWhenYouFightSansSme_5_017
// 024   ----------------------------------------
	BYTE	PATT
	 POIN2	UndertaleSongThatMightPlayWhenYouFightSansSme_5_018
// 025   ----------------------------------------
	BYTE	PATT
	 POIN2	UndertaleSongThatMightPlayWhenYouFightSansSme_5_021
// 026   ----------------------------------------
	BYTE	PATT
	 POIN2	UndertaleSongThatMightPlayWhenYouFightSansSme_5_022
// 027   ----------------------------------------
	BYTE	PATT
	 POIN2	UndertaleSongThatMightPlayWhenYouFightSansSme_5_021
// 028   ----------------------------------------
	BYTE	PATT
	 POIN2	UndertaleSongThatMightPlayWhenYouFightSansSme_5_022
	BYTE	GoTo
	 POIN2	UndertaleSongThatMightPlayWhenYouFightSansSme_5_B1
UndertaleSongThatMightPlayWhenYouFightSansSme_5_B2:
// 029   ----------------------------------------
	BYTE	W96
// 030   ----------------------------------------
	BYTE		VOL     83*UndertaleSongThatMightPlayWhenYouFightSansSme_mvl/mxv
	BYTE		        83*UndertaleSongThatMightPlayWhenYouFightSansSme_mvl/mxv
	BYTE		        83*UndertaleSongThatMightPlayWhenYouFightSansSme_mvl/mxv
	BYTE		BEND    c_v+2
	BYTE	FINE

//**************** Track 6 (Midi-Chn.6) ****************//

UndertaleSongThatMightPlayWhenYouFightSansSme_6:
	BYTE	KEYSH   UndertaleSongThatMightPlayWhenYouFightSansSme_key+0
UndertaleSongThatMightPlayWhenYouFightSansSme_6_B1:
// 000   ----------------------------------------
	BYTE		VOICE   28
	BYTE		PAN     c_v+18
	BYTE		VOL     95*UndertaleSongThatMightPlayWhenYouFightSansSme_mvl/mxv
	BYTE		        95*UndertaleSongThatMightPlayWhenYouFightSansSme_mvl/mxv
	BYTE		        95*UndertaleSongThatMightPlayWhenYouFightSansSme_mvl/mxv
	BYTE		        95*UndertaleSongThatMightPlayWhenYouFightSansSme_mvl/mxv
	BYTE		BEND    c_v+2
	BYTE	W96
// 001   ----------------------------------------
	BYTE	W96
// 002   ----------------------------------------
	BYTE	W96
// 003   ----------------------------------------
	BYTE	W96
// 004   ----------------------------------------
	BYTE	W96
// 005   ----------------------------------------
UndertaleSongThatMightPlayWhenYouFightSansSme_6_005:
	BYTE		N24     Ds1   v112
	BYTE		N24     As1 
	BYTE	W24
	BYTE		        Ds1 
	BYTE		N24     As1 
	BYTE	W24
	BYTE		        Dn1 
	BYTE		N24     An1 
	BYTE	W24
	BYTE		        Dn1 
	BYTE		N24     An1 
	BYTE	W24
	BYTE	PEND
// 006   ----------------------------------------
UndertaleSongThatMightPlayWhenYouFightSansSme_6_006:
	BYTE		N24     Cs1   v112
	BYTE		N24     Gs1 
	BYTE	W24
	BYTE		        Cs1 
	BYTE		N24     Gs1 
	BYTE	W24
	BYTE		        Cn1 
	BYTE		N24     Gn1 
	BYTE	W24
	BYTE		        Cn1 
	BYTE		N24     Gn1 
	BYTE	W24
	BYTE	PEND
// 007   ----------------------------------------
	BYTE	PATT
	 POIN2	UndertaleSongThatMightPlayWhenYouFightSansSme_6_005
// 008   ----------------------------------------
UndertaleSongThatMightPlayWhenYouFightSansSme_6_008:
	BYTE		N24     Cs1   v112
	BYTE		N24     Gs1 
	BYTE	W24
	BYTE		        Cs1 
	BYTE		N24     Gs1 
	BYTE	W24
	BYTE		        Dn1 
	BYTE		N24     An1 
	BYTE	W48
	BYTE	PEND
// 009   ----------------------------------------
	BYTE	W96
// 010   ----------------------------------------
	BYTE	W96
// 011   ----------------------------------------
	BYTE	W96
// 012   ----------------------------------------
	BYTE	W96
// 013   ----------------------------------------
	BYTE	PATT
	 POIN2	UndertaleSongThatMightPlayWhenYouFightSansSme_6_005
// 014   ----------------------------------------
	BYTE	PATT
	 POIN2	UndertaleSongThatMightPlayWhenYouFightSansSme_6_006
// 015   ----------------------------------------
	BYTE	PATT
	 POIN2	UndertaleSongThatMightPlayWhenYouFightSansSme_6_005
// 016   ----------------------------------------
	BYTE	PATT
	 POIN2	UndertaleSongThatMightPlayWhenYouFightSansSme_6_008
// 017   ----------------------------------------
UndertaleSongThatMightPlayWhenYouFightSansSme_6_017:
	BYTE		N12     Gn1   v100
	BYTE	W24
	BYTE		        Dn1 
	BYTE	W24
	BYTE		        Gn1 
	BYTE	W24
	BYTE		        Dn1 
	BYTE	W24
	BYTE	PEND
// 018   ----------------------------------------
UndertaleSongThatMightPlayWhenYouFightSansSme_6_018:
	BYTE		N12     Cn2   v100
	BYTE	W24
	BYTE		        Gn1 
	BYTE	W24
	BYTE		        Cn2 
	BYTE	W24
	BYTE		        Gn1 
	BYTE	W24
	BYTE	PEND
// 019   ----------------------------------------
	BYTE	PATT
	 POIN2	UndertaleSongThatMightPlayWhenYouFightSansSme_6_017
// 020   ----------------------------------------
	BYTE	PATT
	 POIN2	UndertaleSongThatMightPlayWhenYouFightSansSme_6_018
// 021   ----------------------------------------
	BYTE	PATT
	 POIN2	UndertaleSongThatMightPlayWhenYouFightSansSme_6_017
// 022   ----------------------------------------
	BYTE	PATT
	 POIN2	UndertaleSongThatMightPlayWhenYouFightSansSme_6_018
// 023   ----------------------------------------
	BYTE	PATT
	 POIN2	UndertaleSongThatMightPlayWhenYouFightSansSme_6_017
// 024   ----------------------------------------
	BYTE	PATT
	 POIN2	UndertaleSongThatMightPlayWhenYouFightSansSme_6_018
// 025   ----------------------------------------
	BYTE	PATT
	 POIN2	UndertaleSongThatMightPlayWhenYouFightSansSme_6_017
// 026   ----------------------------------------
	BYTE		N12     Cn2   v100
	BYTE	W24
	BYTE		        Gn1 
	BYTE		N06     Gn4 
	BYTE	W24
	BYTE		N12     Cn2 
	BYTE	W24
	BYTE		        Gn1 
	BYTE	W24
// 027   ----------------------------------------
	BYTE	PATT
	 POIN2	UndertaleSongThatMightPlayWhenYouFightSansSme_6_017
// 028   ----------------------------------------
	BYTE	PATT
	 POIN2	UndertaleSongThatMightPlayWhenYouFightSansSme_6_018
	BYTE	GoTo
	 POIN2	UndertaleSongThatMightPlayWhenYouFightSansSme_6_B1
UndertaleSongThatMightPlayWhenYouFightSansSme_6_B2:
// 029   ----------------------------------------
	BYTE	W96
// 030   ----------------------------------------
	BYTE		VOL     95*UndertaleSongThatMightPlayWhenYouFightSansSme_mvl/mxv
	BYTE		        95*UndertaleSongThatMightPlayWhenYouFightSansSme_mvl/mxv
	BYTE		        95*UndertaleSongThatMightPlayWhenYouFightSansSme_mvl/mxv
	BYTE		BEND    c_v+2
	BYTE	FINE

//**************** Track 7 (Midi-Chn.7) ****************//

UndertaleSongThatMightPlayWhenYouFightSansSme_7:
	BYTE	KEYSH   UndertaleSongThatMightPlayWhenYouFightSansSme_key+0
UndertaleSongThatMightPlayWhenYouFightSansSme_7_B1:
// 000   ----------------------------------------
	BYTE		VOICE   111
	BYTE		VOL     83*UndertaleSongThatMightPlayWhenYouFightSansSme_mvl/mxv
	BYTE		PAN     c_v+0
	BYTE		        c_v+0
	BYTE		        c_v+0
	BYTE		        c_v+0
	BYTE		BEND    c_v+2
	BYTE		N12     Cn2   v127
	BYTE	W03
	BYTE		        Cs2 
	BYTE	W03
	BYTE		        Dn2 
	BYTE	W03
	BYTE		        Ds2 
	BYTE	W03
	BYTE		        En2 
	BYTE	W03
	BYTE		        Fn2 
	BYTE	W03
	BYTE		        Fs2 
	BYTE	W03
	BYTE		        Gn2 
	BYTE	W03
	BYTE		        Gs2 
	BYTE	W03
	BYTE		        An2 
	BYTE	W03
	BYTE		        As2 
	BYTE	W03
	BYTE		        Bn2 
	BYTE	W03
	BYTE		        Cn3 
	BYTE	W03
	BYTE		        Cs3 
	BYTE	W03
	BYTE		        Dn3 
	BYTE	W03
	BYTE		        Ds3 
	BYTE	W03
	BYTE		        En3 
	BYTE	W03
	BYTE		        Fn3 
	BYTE	W03
	BYTE		        Fs3 
	BYTE	W03
	BYTE		        Gn3 
	BYTE	W03
	BYTE		        Gs3 
	BYTE	W03
	BYTE		        An3 
	BYTE	W03
	BYTE		        As3 
	BYTE	W03
	BYTE		        Bn3 
	BYTE	W03
	BYTE		        Cn4 
	BYTE	W03
	BYTE		        Cs4 
	BYTE	W03
	BYTE		        Dn4 
	BYTE	W03
	BYTE		        Ds4 
	BYTE	W03
	BYTE		        En4 
	BYTE	W03
	BYTE		N09     Fn4 
	BYTE	W03
	BYTE		N06     Fs4 
	BYTE	W03
	BYTE		N03     Gn4 
	BYTE	W03
// 001   ----------------------------------------
	BYTE	W96
// 002   ----------------------------------------
	BYTE	W96
// 003   ----------------------------------------
	BYTE	W96
// 004   ----------------------------------------
	BYTE	W96
// 005   ----------------------------------------
	BYTE	W96
// 006   ----------------------------------------
	BYTE	W96
// 007   ----------------------------------------
	BYTE	W96
// 008   ----------------------------------------
	BYTE	W96
// 009   ----------------------------------------
	BYTE	W96
// 010   ----------------------------------------
	BYTE	W96
// 011   ----------------------------------------
	BYTE	W96
// 012   ----------------------------------------
	BYTE	W96
// 013   ----------------------------------------
	BYTE	W96
// 014   ----------------------------------------
	BYTE	W96
// 015   ----------------------------------------
	BYTE	W96
// 016   ----------------------------------------
	BYTE	W96
// 017   ----------------------------------------
	BYTE	W96
// 018   ----------------------------------------
	BYTE	W96
// 019   ----------------------------------------
	BYTE	W96
// 020   ----------------------------------------
	BYTE	W96
// 021   ----------------------------------------
	BYTE	W96
// 022   ----------------------------------------
	BYTE	W96
// 023   ----------------------------------------
	BYTE	W96
// 024   ----------------------------------------
	BYTE	W96
// 025   ----------------------------------------
	BYTE	W96
// 026   ----------------------------------------
	BYTE	W96
// 027   ----------------------------------------
	BYTE	W96
// 028   ----------------------------------------
	BYTE	W96
	BYTE	GoTo
	 POIN2	UndertaleSongThatMightPlayWhenYouFightSansSme_7_B1
UndertaleSongThatMightPlayWhenYouFightSansSme_7_B2:
// 029   ----------------------------------------
	BYTE		N12     Cn2   v127
	BYTE	W03
	BYTE		        Cs2 
	BYTE	W03
	BYTE		        Dn2 
	BYTE	W03
	BYTE		        Ds2 
	BYTE	W03
	BYTE		        En2 
	BYTE	W03
	BYTE		        Fn2 
	BYTE	W03
	BYTE		        Fs2 
	BYTE	W03
	BYTE		        Gn2 
	BYTE	W03
	BYTE		        Gs2 
	BYTE	W03
	BYTE		        An2 
	BYTE	W03
	BYTE		        As2 
	BYTE	W03
	BYTE		        Bn2 
	BYTE	W03
	BYTE		        Cn3 
	BYTE	W03
	BYTE		        Cs3 
	BYTE	W03
	BYTE		        Dn3 
	BYTE	W03
	BYTE		        Ds3 
	BYTE	W03
	BYTE		        En3 
	BYTE	W03
	BYTE		        Fn3 
	BYTE	W03
	BYTE		        Fs3 
	BYTE	W03
	BYTE		        Gn3 
	BYTE	W03
	BYTE		        Gs3 
	BYTE	W03
	BYTE		        An3 
	BYTE	W03
	BYTE		        As3 
	BYTE	W03
	BYTE		        Bn3 
	BYTE	W03
	BYTE		        Cn4 
	BYTE	W03
	BYTE		        Cs4 
	BYTE	W03
	BYTE		        Dn4 
	BYTE	W03
	BYTE		        Ds4 
	BYTE	W03
	BYTE		        En4 
	BYTE	W03
	BYTE		N09     Fn4 
	BYTE	W03
	BYTE		N06     Fs4 
	BYTE	W03
	BYTE		N03     Gn4 
	BYTE	W03
// 030   ----------------------------------------
	BYTE		PAN     c_v+0
	BYTE		        c_v+0
	BYTE		        c_v+0
	BYTE		BEND    c_v+2
	BYTE	FINE

//**************** Track 8 (Midi-Chn.8) ****************//

UndertaleSongThatMightPlayWhenYouFightSansSme_8:
	BYTE	KEYSH   UndertaleSongThatMightPlayWhenYouFightSansSme_key+0
UndertaleSongThatMightPlayWhenYouFightSansSme_8_B1:
// 000   ----------------------------------------
	BYTE		VOICE   123
	BYTE		PAN     c_v+0
	BYTE		VOL     100*UndertaleSongThatMightPlayWhenYouFightSansSme_mvl/mxv
	BYTE		PAN     c_v+0
	BYTE		VOL     100*UndertaleSongThatMightPlayWhenYouFightSansSme_mvl/mxv
	BYTE		PAN     c_v+0
	BYTE		VOL     100*UndertaleSongThatMightPlayWhenYouFightSansSme_mvl/mxv
	BYTE		PAN     c_v+0
	BYTE		VOL     100*UndertaleSongThatMightPlayWhenYouFightSansSme_mvl/mxv
	BYTE		BEND    c_v+2
	BYTE	W48
	BYTE		        c_v-9
	BYTE		N12     Dn1   v100
	BYTE	W12
	BYTE		BEND    c_v+2
	BYTE		N12   
	BYTE	W12
	BYTE		BEND    c_v-9
	BYTE		N06   
	BYTE	W06
	BYTE		N06   
	BYTE	W06
	BYTE		BEND    c_v+2
	BYTE		N03   
	BYTE	W03
	BYTE		N03   
	BYTE	W03
	BYTE		N03   
	BYTE	W03
	BYTE		N03   
	BYTE	W03
// 001   ----------------------------------------
UndertaleSongThatMightPlayWhenYouFightSansSme_8_001:
	BYTE		BEND    c_v+2
	BYTE		N06     Cn1   v100
	BYTE		N06     Fs1 
	BYTE	W12
	BYTE		        Dn1 
	BYTE		N06     Fs1 
	BYTE	W12
	BYTE		        Cn1 
	BYTE		N06     Fs1 
	BYTE	W12
	BYTE		        Dn1 
	BYTE		N06     Fs1 
	BYTE	W12
	BYTE		        Cn1 
	BYTE		N06     Fs1 
	BYTE	W12
	BYTE		        Dn1 
	BYTE		N06     Fs1 
	BYTE	W12
	BYTE		        Cn1 
	BYTE		N06     Fs1 
	BYTE	W12
	BYTE		N03     Dn1 
	BYTE		N03     Fs1 
	BYTE	W03
	BYTE		        Cn1   v084
	BYTE		N03     Fs1 
	BYTE	W03
	BYTE		N06     Cn1   v100
	BYTE		N06     Fs1   v076
	BYTE	W06
	BYTE	PEND
// 002   ----------------------------------------
UndertaleSongThatMightPlayWhenYouFightSansSme_8_002:
	BYTE		N06     Cn1   v100
	BYTE		N06     Fs1 
	BYTE	W12
	BYTE		        Dn1 
	BYTE		N06     Fs1 
	BYTE	W12
	BYTE		        Cn1 
	BYTE		N06     Fs1 
	BYTE	W12
	BYTE		        Dn1 
	BYTE		N06     Fs1 
	BYTE	W06
	BYTE		        Cn1 
	BYTE	W06
	BYTE		        Dn1 
	BYTE	W12
	BYTE		N03     Cn1   v084
	BYTE	W03
	BYTE		        Cn1   v100
	BYTE	W03
	BYTE		N06     Dn1 
	BYTE	W12
	BYTE		        Cn1 
	BYTE	W06
	BYTE		        Dn1 
	BYTE	W12
	BYTE	PEND
// 003   ----------------------------------------
	BYTE	PATT
	 POIN2	UndertaleSongThatMightPlayWhenYouFightSansSme_8_001
// 004   ----------------------------------------
	BYTE	PATT
	 POIN2	UndertaleSongThatMightPlayWhenYouFightSansSme_8_002
// 005   ----------------------------------------
UndertaleSongThatMightPlayWhenYouFightSansSme_8_005:
	BYTE		N06     Dn1   v100
	BYTE	W12
	BYTE		N04     Dn1   v072
	BYTE	W04
	BYTE		        Dn1   v084
	BYTE	W04
	BYTE		        Dn1   v092
	BYTE	W04
	BYTE		N06     Dn1   v100
	BYTE	W12
	BYTE		N06   
	BYTE	W12
	BYTE		N06   
	BYTE	W12
	BYTE		N04     Dn1   v072
	BYTE	W04
	BYTE		        Dn1   v084
	BYTE	W04
	BYTE		        Dn1   v092
	BYTE	W04
	BYTE		N06     Dn1   v100
	BYTE	W06
	BYTE		        Dn1   v092
	BYTE	W06
	BYTE		        Dn1   v088
	BYTE	W06
	BYTE		N03     Dn1   v072
	BYTE	W03
	BYTE		        Dn1   v088
	BYTE	W03
	BYTE	PEND
// 006   ----------------------------------------
	BYTE	PATT
	 POIN2	UndertaleSongThatMightPlayWhenYouFightSansSme_8_005
// 007   ----------------------------------------
	BYTE	PATT
	 POIN2	UndertaleSongThatMightPlayWhenYouFightSansSme_8_005
// 008   ----------------------------------------
UndertaleSongThatMightPlayWhenYouFightSansSme_8_008:
	BYTE		N06     Dn1   v100
	BYTE	W12
	BYTE		N04     Dn1   v072
	BYTE	W04
	BYTE		        Dn1   v084
	BYTE	W04
	BYTE		        Dn1   v092
	BYTE	W04
	BYTE		N06     Dn1   v100
	BYTE	W12
	BYTE		N06   
	BYTE	W60
	BYTE	PEND
// 009   ----------------------------------------
	BYTE	PATT
	 POIN2	UndertaleSongThatMightPlayWhenYouFightSansSme_8_001
// 010   ----------------------------------------
	BYTE	PATT
	 POIN2	UndertaleSongThatMightPlayWhenYouFightSansSme_8_002
// 011   ----------------------------------------
	BYTE	PATT
	 POIN2	UndertaleSongThatMightPlayWhenYouFightSansSme_8_001
// 012   ----------------------------------------
	BYTE	PATT
	 POIN2	UndertaleSongThatMightPlayWhenYouFightSansSme_8_002
// 013   ----------------------------------------
	BYTE	PATT
	 POIN2	UndertaleSongThatMightPlayWhenYouFightSansSme_8_005
// 014   ----------------------------------------
	BYTE	PATT
	 POIN2	UndertaleSongThatMightPlayWhenYouFightSansSme_8_005
// 015   ----------------------------------------
	BYTE	PATT
	 POIN2	UndertaleSongThatMightPlayWhenYouFightSansSme_8_005
// 016   ----------------------------------------
	BYTE	PATT
	 POIN2	UndertaleSongThatMightPlayWhenYouFightSansSme_8_008
// 017   ----------------------------------------
UndertaleSongThatMightPlayWhenYouFightSansSme_8_017:
	BYTE		N06     Cn1   v100
	BYTE		N06     Fs1 
	BYTE	W06
	BYTE		        Fs1   v076
	BYTE	W06
	BYTE		        Dn1   v100
	BYTE		N06     Fs1   v064
	BYTE	W06
	BYTE		        Fs1   v076
	BYTE	W06
	BYTE		        Cn1   v100
	BYTE		N06     Fs1 
	BYTE	W06
	BYTE		        Cn1 
	BYTE		N06     Fs1   v076
	BYTE	W06
	BYTE		        Dn1   v100
	BYTE		N06     Fs1   v064
	BYTE	W06
	BYTE		        Fs1   v076
	BYTE	W06
	BYTE		        Cn1   v100
	BYTE		N06     Fs1 
	BYTE	W06
	BYTE		        Fs1   v076
	BYTE	W06
	BYTE		        Dn1   v100
	BYTE		N06     Fs1   v064
	BYTE	W06
	BYTE		        Fs1   v076
	BYTE	W06
	BYTE		        Cn1   v100
	BYTE		N06     Fs1 
	BYTE	W06
	BYTE		        Cn1 
	BYTE		N06     Fs1   v076
	BYTE	W06
	BYTE		        Dn1   v100
	BYTE		N06     Fs1   v064
	BYTE	W06
	BYTE		        Fs1   v076
	BYTE	W06
	BYTE	PEND
// 018   ----------------------------------------
	BYTE	PATT
	 POIN2	UndertaleSongThatMightPlayWhenYouFightSansSme_8_017
// 019   ----------------------------------------
	BYTE	PATT
	 POIN2	UndertaleSongThatMightPlayWhenYouFightSansSme_8_017
// 020   ----------------------------------------
	BYTE	PATT
	 POIN2	UndertaleSongThatMightPlayWhenYouFightSansSme_8_017
// 021   ----------------------------------------
	BYTE	PATT
	 POIN2	UndertaleSongThatMightPlayWhenYouFightSansSme_8_017
// 022   ----------------------------------------
	BYTE	PATT
	 POIN2	UndertaleSongThatMightPlayWhenYouFightSansSme_8_017
// 023   ----------------------------------------
	BYTE	PATT
	 POIN2	UndertaleSongThatMightPlayWhenYouFightSansSme_8_017
// 024   ----------------------------------------
	BYTE	PATT
	 POIN2	UndertaleSongThatMightPlayWhenYouFightSansSme_8_017
// 025   ----------------------------------------
	BYTE	PATT
	 POIN2	UndertaleSongThatMightPlayWhenYouFightSansSme_8_017
// 026   ----------------------------------------
	BYTE	PATT
	 POIN2	UndertaleSongThatMightPlayWhenYouFightSansSme_8_017
// 027   ----------------------------------------
	BYTE	PATT
	 POIN2	UndertaleSongThatMightPlayWhenYouFightSansSme_8_017
// 028   ----------------------------------------
	BYTE	PATT
	 POIN2	UndertaleSongThatMightPlayWhenYouFightSansSme_8_017
	BYTE	GoTo
	 POIN2	UndertaleSongThatMightPlayWhenYouFightSansSme_8_B1
UndertaleSongThatMightPlayWhenYouFightSansSme_8_B2:
// 029   ----------------------------------------
	BYTE	W96
// 030   ----------------------------------------
	BYTE		PAN     c_v+0
	BYTE		VOL     100*UndertaleSongThatMightPlayWhenYouFightSansSme_mvl/mxv
	BYTE		PAN     c_v+0
	BYTE		VOL     100*UndertaleSongThatMightPlayWhenYouFightSansSme_mvl/mxv
	BYTE		PAN     c_v+0
	BYTE		VOL     100*UndertaleSongThatMightPlayWhenYouFightSansSme_mvl/mxv
	BYTE		BEND    c_v+2
	BYTE	FINE

//******************************************************//
	ALIGN 4

UndertaleSongThatMightPlayWhenYouFightSansSme:
	BYTE	8	// NumTrks
	BYTE	0	// NumBlks
	BYTE	UndertaleSongThatMightPlayWhenYouFightSansSme_pri	// Priority
	BYTE	UndertaleSongThatMightPlayWhenYouFightSansSme_rev	// Reverb.

	POIN2	UndertaleSongThatMightPlayWhenYouFightSansSme_grp

	POIN2	UndertaleSongThatMightPlayWhenYouFightSansSme_1
	POIN2	UndertaleSongThatMightPlayWhenYouFightSansSme_2
	POIN2	UndertaleSongThatMightPlayWhenYouFightSansSme_3
	POIN2	UndertaleSongThatMightPlayWhenYouFightSansSme_4
	POIN2	UndertaleSongThatMightPlayWhenYouFightSansSme_5
	POIN2	UndertaleSongThatMightPlayWhenYouFightSansSme_6
	POIN2	UndertaleSongThatMightPlayWhenYouFightSansSme_7
	POIN2	UndertaleSongThatMightPlayWhenYouFightSansSme_8

	
