//Event file generated from Sappy .s format.
	#include "MPlayDef.event"

	#define	UndertaleHereweareAzula_grp  voicegroup000
	#define	UndertaleHereweareAzula_pri  0
	#define	UndertaleHereweareAzula_rev  160
	#define	UndertaleHereweareAzula_mvl  127
	#define	UndertaleHereweareAzula_key  0
	#define	UndertaleHereweareAzula_tbs  1
	#define	UndertaleHereweareAzula_exg  0
	#define	UndertaleHereweareAzula_cmp  1

	// .rodata
	//	UndertaleHereweareAzula
	ALIGN 4


//**************** Track 1 (Midi-Chn.0) ****************//

UndertaleHereweareAzula_001:
//  #01 //000   ----------------------------------------
 BYTE   KEYSH   UndertaleHereweareAzula_key+0
 BYTE   TEMPO   108*UndertaleHereweareAzula_tbs/2
 BYTE   VOICE   40
 BYTE   PAN   c_v-14
 BYTE   VOL   23*UndertaleHereweareAzula_mvl/mxv
 BYTE   BEND   c_v+0
 BYTE   N36  An1  v100
 BYTE   N36  Cn2
 BYTE   N36  En2
 BYTE   W36
 BYTE   Bn1
 BYTE   N36  Dn2
 BYTE   N36  Fs2
 BYTE   W36
 BYTE   N24  Cs2
 BYTE   N24  En2
 BYTE   N24  Gs2
 BYTE   W24
//  #01 //001   ----------------------------------------
Label_019443E1:
 BYTE   N24  Dn2  v100
 BYTE   N24  Fn2
 BYTE   N24  An2
 BYTE   W24
 BYTE   TIE  En2
 BYTE   TIE  Gn2
 BYTE   TIE  Bn2
 BYTE   W72
 BYTE   PEND 
//  #01 //002   ----------------------------------------
 BYTE   W36
 BYTE   W02
 BYTE   EOT
 BYTE   En2  v055
 BYTE   Bn2
 BYTE   W10
 BYTE   N36  An1
 BYTE   N36  Cn2
 BYTE   N36  En2
 BYTE   W36
 BYTE   Bn1
 BYTE   N36  Dn2
 BYTE   N36  Fs2
 BYTE   W12
//  #01 //003   ----------------------------------------
Label_01944405:
 BYTE   W24
 BYTE   N24  Ds2  v100
 BYTE   N24  Fs2
 BYTE   N24  As2
 BYTE   W24
 BYTE   En2
 BYTE   N24  Gn2
 BYTE   N24  Bn2
 BYTE   W24
 BYTE   TIE  Fs2
 BYTE   TIE  An2
 BYTE   TIE  Cs3
 BYTE   W24
 BYTE   PEND 
//  #01 //004   ----------------------------------------
 BYTE   W76
 BYTE   EOT
 BYTE   Fs2  v057
 BYTE   Cs3
 BYTE   W20
//  #01 //005   ----------------------------------------
Label_01944422:
 BYTE   N36  An1  v100
 BYTE   N36  Cn2
 BYTE   N36  En2
 BYTE   W36
 BYTE   Bn1
 BYTE   N36  Dn2
 BYTE   N36  Fs2
 BYTE   W36
 BYTE   N24  Cs2
 BYTE   N24  En2
 BYTE   N24  Gs2
 BYTE   W24
 BYTE   PEND 
//  #01 //006   ----------------------------------------
 BYTE   PATT
  POIN2 Label_019443E1
//  #01 //007   ----------------------------------------
 BYTE   W32
 BYTE   EOT
 BYTE   En2  v055
 BYTE   Bn2
 BYTE   W16
 BYTE   N36  An1  v100
 BYTE   N36  Cn2
 BYTE   N36  En2
 BYTE   W36
 BYTE   Bn1
 BYTE   N36  Dn2
 BYTE   N36  Fs2
 BYTE   W12
//  #01 //008   ----------------------------------------
 BYTE   PATT
  POIN2 Label_01944405
//  #01 //009   ----------------------------------------
 BYTE   W80
 BYTE   EOT
 BYTE   Fs2  v057
 BYTE   Cs3
 BYTE   W16
//  #01 //010   ----------------------------------------
 BYTE   PATT
  POIN2 Label_01944422
//  #01 //011   ----------------------------------------
 BYTE   PATT
  POIN2 Label_019443E1
//  #01 //012   ----------------------------------------
 BYTE   W36
 BYTE   EOT
 BYTE   En2  v055
 BYTE   Bn2
 BYTE   W12
 BYTE   N36  An1  v100
 BYTE   N36  Cn2
 BYTE   N36  En2
 BYTE   W36
 BYTE   Bn1
 BYTE   N36  Dn2
 BYTE   N36  Fs2
 BYTE   W12
//  #01 //013   ----------------------------------------
 BYTE   PATT
  POIN2 Label_01944405
//  #01 //014   ----------------------------------------
 BYTE   W78
 BYTE   EOT
 BYTE   Fs2  v057
 BYTE   Cs3
 BYTE   W18
//  #01 //015   ----------------------------------------
 BYTE   PATT
  POIN2 Label_01944422
//  #01 //016   ----------------------------------------
 BYTE   PATT
  POIN2 Label_019443E1
//  #01 //017   ----------------------------------------
 BYTE   W32
 BYTE   W02
 BYTE   EOT
 BYTE   En2  v055
 BYTE   Bn2
 BYTE   W14
 BYTE   N36  An1  v100
 BYTE   N36  Cn2
 BYTE   N36  En2
 BYTE   W36
 BYTE   Bn1
 BYTE   N36  Dn2
 BYTE   N36  Fs2
 BYTE   W12
//  #01 //018   ----------------------------------------
 BYTE   PATT
  POIN2 Label_01944405
//  #01 //019   ----------------------------------------
 BYTE   W96
//  #01 //020   ----------------------------------------
 BYTE   EOT
 BYTE   Fs2  v057
 BYTE   Cs3
 BYTE   W24
Label_019444AF:
 BYTE   N36  An1  v100
 BYTE   N36  Cn2
 BYTE   N36  En2
 BYTE   W36
 BYTE   Bn1
 BYTE   N36  Dn2
 BYTE   N36  Fs2
 BYTE   W36
//  #01 //021   ----------------------------------------
Label_019444BD:
 BYTE   N24  Cs2  v100
 BYTE   N24  En2
 BYTE   N24  Gs2
 BYTE   W24
 BYTE   Dn2
 BYTE   N24  Fn2
 BYTE   N24  An2
 BYTE   W24
 BYTE   TIE  En2
 BYTE   TIE  Gn2
 BYTE   TIE  Bn2
 BYTE   W48
 BYTE   PEND 
//  #01 //022   ----------------------------------------
 BYTE   W56
 BYTE   W02
 BYTE   EOT
 BYTE   En2  v055
 BYTE   Bn2
 BYTE   W14
 BYTE   N36  An1
 BYTE   N36  Cn2
 BYTE   N36  En2
 BYTE   W24
//  #01 //023   ----------------------------------------
Label_019444E1:
 BYTE   W12
 BYTE   N36  Bn1  v100
 BYTE   N36  Dn2
 BYTE   N36  Fs2
 BYTE   W36
 BYTE   N24  Ds2
 BYTE   N24  Fs2
 BYTE   N24  As2
 BYTE   W24
 BYTE   En2
 BYTE   N24  Gn2
 BYTE   N24  Bn2
 BYTE   W24
 BYTE   PEND 
//  #01 //024   ----------------------------------------
 BYTE   N80  Fs2
 BYTE   N80  An2
 BYTE   N80  Cs3
 BYTE   W96
//  #01 //025   ----------------------------------------
 BYTE   W24
 BYTE   N36  An1
 BYTE   N36  Cn2
 BYTE   N36  En2
 BYTE   W36
 BYTE   Bn1
 BYTE   N36  Dn2
 BYTE   N36  Fs2
 BYTE   W36
//  #01 //026   ----------------------------------------
 BYTE   PATT
  POIN2 Label_019444BD
//  #01 //027   ----------------------------------------
 BYTE   W54
 BYTE   EOT
 BYTE   En2  v055
 BYTE   Bn2
 BYTE   W18
 BYTE   N36  An1  v100
 BYTE   N36  Cn2
 BYTE   N36  En2
 BYTE   W24
//  #01 //028   ----------------------------------------
 BYTE   PATT
  POIN2 Label_019444E1
//  #01 //029   ----------------------------------------
Label_01944525:
 BYTE   TIE  Fs2  v100
 BYTE   TIE  An2
 BYTE   TIE  Cs3
 BYTE   W96
 BYTE   PEND 
//  #01 //030   ----------------------------------------
 BYTE   W08
 BYTE   EOT
 BYTE   Fs2  v057
 BYTE   Cs3
 BYTE   W16
 BYTE   N36  An1
 BYTE   N36  Cn2
 BYTE   N36  En2
 BYTE   W36
 BYTE   Bn1
 BYTE   N36  Dn2
 BYTE   N36  Fs2
 BYTE   W36
//  #01 //031   ----------------------------------------
 BYTE   PATT
  POIN2 Label_019444BD
//  #01 //032   ----------------------------------------
 BYTE   W56
 BYTE   W02
 BYTE   EOT
 BYTE   En2  v055
 BYTE   Bn2
 BYTE   W14
 BYTE   N36  An1  v100
 BYTE   N36  Cn2
 BYTE   N36  En2
 BYTE   W24
//  #01 //033   ----------------------------------------
 BYTE   PATT
  POIN2 Label_019444E1
//  #01 //034   ----------------------------------------
 BYTE   PATT
  POIN2 Label_01944525
//  #01 //035   ----------------------------------------
 BYTE   W02
 BYTE   EOT
 BYTE   Fs2  v057
 BYTE   Cs3
 BYTE   W22
 BYTE   N36  An1  v100
 BYTE   N36  Cn2
 BYTE   N36  En2
 BYTE   W36
 BYTE   Bn1
 BYTE   N36  Dn2
 BYTE   N36  Fs2
 BYTE   W36
//  #01 //036   ----------------------------------------
 BYTE   PATT
  POIN2 Label_019444BD
//  #01 //037   ----------------------------------------
 BYTE   W56
 BYTE   EOT
 BYTE   En2  v055
 BYTE   Bn2
 BYTE   W16
 BYTE   N36  An1  v100
 BYTE   N36  Cn2
 BYTE   N36  En2
 BYTE   W24
//  #01 //038   ----------------------------------------
 BYTE   PATT
  POIN2 Label_019444E1
//  #01 //039   ----------------------------------------
 BYTE   PATT
  POIN2 Label_01944525
//  #01 //040   ----------------------------------------
 BYTE   W08
 BYTE   EOT
 BYTE   Fs2  v057
 BYTE   Cs3
 BYTE   W16
 BYTE   N36  An1  v100
 BYTE   N36  Cn2
 BYTE   N36  En2
 BYTE   W36
 BYTE   Gs1
 BYTE   N36  Bn1
 BYTE   N36  Ds2
 BYTE   W36
//  #01 //041   ----------------------------------------
Label_019445A4:
 BYTE   N24  Cs2  v100
 BYTE   N24  En2
 BYTE   N24  Gs2
 BYTE   W24
 BYTE   Cn2
 BYTE   N24  Ds2
 BYTE   N24  Gn2
 BYTE   W24
 BYTE   N48  Cn2
 BYTE   N48  En2
 BYTE   N48  Bn2
 BYTE   W48
 BYTE   PEND 
//  #01 //042   ----------------------------------------
Label_019445BA:
 BYTE   N24  Ds2  v100
 BYTE   N24  Fs2
 BYTE   N24  As2
 BYTE   W24
 BYTE   Fs2
 BYTE   N24  An2
 BYTE   N24  Cs3
 BYTE   W24
 BYTE   Fn2
 BYTE   N24  An2
 BYTE   N24  Cn3
 BYTE   W24
 BYTE   N48  En2
 BYTE   N48  Gn2
 BYTE   N48  Bn2
 BYTE   W24
 BYTE   PEND 
//  #01 //043   ----------------------------------------
Label_019445D6:
 BYTE   W24
 BYTE   N24  Ds2  v100
 BYTE   N24  Fs2
 BYTE   N24  As2
 BYTE   W24
 BYTE   Fs2
 BYTE   N24  An2
 BYTE   N24  Cs3
 BYTE   W24
 BYTE   Fn2
 BYTE   N24  An2
 BYTE   N24  Cn3
 BYTE   W24
 BYTE   PEND 
//  #01 //044   ----------------------------------------
Label_019445EC:
 BYTE   N48  En2  v100
 BYTE   N48  Gn2
 BYTE   N48  Bn2
 BYTE   W48
 BYTE   N24  Ds2
 BYTE   N24  Fs2
 BYTE   N24  As2
 BYTE   W24
 BYTE   Fs1
 BYTE   N24  Cs2
 BYTE   N24  Fs2
 BYTE   W24
 BYTE   PEND 
//  #01 //045   ----------------------------------------
 BYTE   Ds2
 BYTE   N24  Fs2
 BYTE   N24  As2
 BYTE   W24
 BYTE   N36  An1
 BYTE   N36  Cn2
 BYTE   N36  En2
 BYTE   W36
 BYTE   Gs1
 BYTE   N36  Bn1
 BYTE   N36  Ds2
 BYTE   W36
//  #01 //046   ----------------------------------------
 BYTE   PATT
  POIN2 Label_019445A4
//  #01 //047   ----------------------------------------
 BYTE   PATT
  POIN2 Label_019445BA
//  #01 //048   ----------------------------------------
 BYTE   PATT
  POIN2 Label_019445D6
//  #01 //049   ----------------------------------------
 BYTE   PATT
  POIN2 Label_019445EC
//  #01 //050   ----------------------------------------
 BYTE   N24  Ds2  v100
 BYTE   N24  Fs2
 BYTE   N24  As2
 BYTE   W24
 BYTE   TIE  Cn2
 BYTE   TIE  Ds2
 BYTE   TIE  Gn2
 BYTE   W72
//  #01 //051   ----------------------------------------
 BYTE   W96
//  #01 //052   ----------------------------------------
 BYTE   W96
//  #01 //053   ----------------------------------------
 BYTE   W48
 BYTE   EOT
 BYTE   Cn2  v051
 BYTE   Gn2
 BYTE   W48
//  #01 //054   ----------------------------------------
 BYTE   W96
//  #01 //055   ----------------------------------------
 BYTE   W96
//  #01 //056   ----------------------------------------
 BYTE   W72
 BYTE   GoTo
  POIN2 Label_019444AF
//  #01 //057   ----------------------------------------
 BYTE   W24
 BYTE   W32
 BYTE   W01
 BYTE   BEND   c_v+0
 BYTE   FINE

//**************** Track 2 (Midi-Chn.1) ****************//

UndertaleHereweareAzula_002:
//  #02 //000   ----------------------------------------
 BYTE   KEYSH   UndertaleHereweareAzula_key+0
 BYTE   VOICE   52
 BYTE   VOL   26*UndertaleHereweareAzula_mvl/mxv
 BYTE   PAN   c_v+13
 BYTE   BEND   c_v+0
 BYTE   N36  An2  v100
 BYTE   N36  En3
 BYTE   W36
 BYTE   Bn2
 BYTE   N36  Fs3
 BYTE   W36
 BYTE   N24  Cs3
 BYTE   N24  Gs3
 BYTE   W24
//  #02 //001   ----------------------------------------
Label_0194401D:
 BYTE   N24  Dn3  v100
 BYTE   N24  An3
 BYTE   W24
 BYTE   TIE  En3
 BYTE   TIE  Bn3
 BYTE   W72
 BYTE   PEND 
//  #02 //002   ----------------------------------------
 BYTE   W36
 BYTE   W02
 BYTE   EOT
 BYTE   En3  v071
 BYTE   W10
 BYTE   N36  An2
 BYTE   N36  En3
 BYTE   W36
 BYTE   Bn2
 BYTE   N36  Fs3
 BYTE   W12
//  #02 //003   ----------------------------------------
Label_01944038:
 BYTE   W24
 BYTE   N24  Ds3  v100
 BYTE   N24  As3
 BYTE   W24
 BYTE   En3
 BYTE   N24  Bn3
 BYTE   W24
 BYTE   TIE  Fs3
 BYTE   TIE  Cs4
 BYTE   W24
 BYTE   PEND 
//  #02 //004   ----------------------------------------
 BYTE   W76
 BYTE   EOT
 BYTE   Fs3  v073
 BYTE   W20
//  #02 //005   ----------------------------------------
Label_0194404E:
 BYTE   W02
 BYTE   N36  An2  v100
 BYTE   N36  En3
 BYTE   W36
 BYTE   Bn2
 BYTE   N36  Fs3
 BYTE   W36
 BYTE   N24  Cs3
 BYTE   N24  Gs3
 BYTE   W22
 BYTE   PEND 
//  #02 //006   ----------------------------------------
Label_0194405F:
 BYTE   W02
 BYTE   N24  Dn3  v100
 BYTE   N24  An3
 BYTE   W24
 BYTE   TIE  En3
 BYTE   TIE  Bn3
 BYTE   W68
 BYTE   W02
 BYTE   PEND 
//  #02 //007   ----------------------------------------
 BYTE   W32
 BYTE   W02
 BYTE   EOT
 BYTE   En3  v071
 BYTE   W14
 BYTE   N36  An2
 BYTE   N36  En3
 BYTE   W36
 BYTE   Bn2
 BYTE   N36  Fs3
 BYTE   W12
//  #02 //008   ----------------------------------------
 BYTE   PATT
  POIN2 Label_01944038
//  #02 //009   ----------------------------------------
 BYTE   W80
 BYTE   EOT
 BYTE   Fs3  v073
 BYTE   W16
//  #02 //010   ----------------------------------------
 BYTE   BEND   c_v+0
 BYTE   N36  An2  v100
 BYTE   N36  En3
 BYTE   W36
 BYTE   Bn2
 BYTE   N36  Fs3
 BYTE   W36
 BYTE   N24  Cs3
 BYTE   N24  Gs3
 BYTE   W24
//  #02 //011   ----------------------------------------
 BYTE   PATT
  POIN2 Label_0194401D
//  #02 //012   ----------------------------------------
 BYTE   W36
 BYTE   W02
 BYTE   EOT
 BYTE   En3  v071
 BYTE   W10
 BYTE   N36  An2  v100
 BYTE   N36  En3
 BYTE   W36
 BYTE   Bn2
 BYTE   N36  Fs3
 BYTE   W12
//  #02 //013   ----------------------------------------
 BYTE   PATT
  POIN2 Label_01944038
//  #02 //014   ----------------------------------------
 BYTE   W76
 BYTE   EOT
 BYTE   Fs3  v073
 BYTE   W20
//  #02 //015   ----------------------------------------
 BYTE   PATT
  POIN2 Label_0194404E
//  #02 //016   ----------------------------------------
 BYTE   PATT
  POIN2 Label_0194405F
//  #02 //017   ----------------------------------------
 BYTE   W32
 BYTE   W02
 BYTE   EOT
 BYTE   En3  v071
 BYTE   W14
 BYTE   N36  An2  v100
 BYTE   N36  En3
 BYTE   W36
 BYTE   Bn2
 BYTE   N36  Fs3
 BYTE   W12
//  #02 //018   ----------------------------------------
 BYTE   PATT
  POIN2 Label_01944038
//  #02 //019   ----------------------------------------
 BYTE   W80
 BYTE   EOT
 BYTE   Fs3  v073
 BYTE   W16
//  #02 //020   ----------------------------------------
 BYTE   W24
Label_019440DB:
 BYTE   BEND   c_v+0
 BYTE   N36  An2  v100
 BYTE   N36  En3
 BYTE   W36
 BYTE   Bn2
 BYTE   N36  Fs3
 BYTE   W36
//  #02 //021   ----------------------------------------
Label_019440E7:
 BYTE   N24  Cs3  v100
 BYTE   N24  Gs3
 BYTE   W24
 BYTE   Dn3
 BYTE   N24  An3
 BYTE   W24
 BYTE   TIE  En3
 BYTE   TIE  Bn3
 BYTE   W48
 BYTE   PEND 
//  #02 //022   ----------------------------------------
 BYTE   W60
 BYTE   W02
 BYTE   EOT
 BYTE   En3  v071
 BYTE   W10
 BYTE   N36  An2
 BYTE   N36  En3
 BYTE   W24
//  #02 //023   ----------------------------------------
Label_01944102:
 BYTE   W12
 BYTE   N36  Bn2  v100
 BYTE   N36  Fs3
 BYTE   W36
 BYTE   N24  Ds3
 BYTE   N24  As3
 BYTE   W24
 BYTE   En3
 BYTE   N24  Bn3
 BYTE   W24
 BYTE   PEND 
//  #02 //024   ----------------------------------------
Label_01944113:
 BYTE   TIE  Fs3  v100
 BYTE   TIE  Cs4
 BYTE   W96
 BYTE   PEND 
//  #02 //025   ----------------------------------------
 BYTE   W04
 BYTE   EOT
 BYTE   Fs3  v073
 BYTE   W22
 BYTE   N36  An2
 BYTE   N36  En3
 BYTE   W36
 BYTE   Bn2
 BYTE   N36  Fs3
 BYTE   W32
 BYTE   W02
//  #02 //026   ----------------------------------------
Label_01944129:
 BYTE   W02
 BYTE   N24  Cs3  v100
 BYTE   N24  Gs3
 BYTE   W24
 BYTE   Dn3
 BYTE   N24  An3
 BYTE   W24
 BYTE   TIE  En3
 BYTE   TIE  Bn3
 BYTE   W44
 BYTE   W02
 BYTE   PEND 
//  #02 //027   ----------------------------------------
 BYTE   W56
 BYTE   W02
 BYTE   EOT
 BYTE   En3  v071
 BYTE   W14
 BYTE   N36  An2
 BYTE   N36  En3
 BYTE   W24
//  #02 //028   ----------------------------------------
 BYTE   PATT
  POIN2 Label_01944102
//  #02 //029   ----------------------------------------
 BYTE   PATT
  POIN2 Label_01944113
//  #02 //030   ----------------------------------------
 BYTE   W08
 BYTE   EOT
 BYTE   Fs3  v073
 BYTE   W16
 BYTE   PAN   c_v+29
 BYTE   An5  v093
 BYTE   PAN   c_v+29
 BYTE   BEND   c_v+0
 BYTE   N36  An2  v100
 BYTE   N36  En3
 BYTE   W36
 BYTE   Bn2
 BYTE   N36  Fs3
 BYTE   W36
//  #02 //031   ----------------------------------------
 BYTE   PATT
  POIN2 Label_019440E7
//  #02 //032   ----------------------------------------
 BYTE   W60
 BYTE   W02
 BYTE   EOT
 BYTE   En3  v071
 BYTE   W10
 BYTE   N36  An2  v100
 BYTE   N36  En3
 BYTE   W24
//  #02 //033   ----------------------------------------
 BYTE   PATT
  POIN2 Label_01944102
//  #02 //034   ----------------------------------------
 BYTE   PATT
  POIN2 Label_01944113
//  #02 //035   ----------------------------------------
 BYTE   W04
 BYTE   EOT
 BYTE   Fs3  v073
 BYTE   W22
 BYTE   N36  An2  v100
 BYTE   N36  En3
 BYTE   W36
 BYTE   Bn2
 BYTE   N36  Fs3
 BYTE   W32
 BYTE   W02
//  #02 //036   ----------------------------------------
 BYTE   PATT
  POIN2 Label_01944129
//  #02 //037   ----------------------------------------
 BYTE   W56
 BYTE   W02
 BYTE   EOT
 BYTE   En3  v071
 BYTE   W14
 BYTE   N36  An2  v100
 BYTE   N36  En3
 BYTE   W24
//  #02 //038   ----------------------------------------
 BYTE   PATT
  POIN2 Label_01944102
//  #02 //039   ----------------------------------------
 BYTE   PATT
  POIN2 Label_01944113
//  #02 //040   ----------------------------------------
 BYTE   W08
 BYTE   EOT
 BYTE   Fs3  v073
 BYTE   W16
 BYTE   N36  An2  v100
 BYTE   N36  En3
 BYTE   W36
 BYTE   Gs2
 BYTE   N36  Ds3
 BYTE   W36
//  #02 //041   ----------------------------------------
Label_019441BB:
 BYTE   N24  Cs3  v100
 BYTE   N24  Gs3
 BYTE   W24
 BYTE   Cn3
 BYTE   N24  Gn3
 BYTE   W24
 BYTE   N48  Cn3
 BYTE   N48  Bn3
 BYTE   W48
 BYTE   PEND 
//  #02 //042   ----------------------------------------
Label_019441CB:
 BYTE   N24  Ds3  v100
 BYTE   N24  As3
 BYTE   W24
 BYTE   Fs3
 BYTE   N24  Cs4
 BYTE   W24
 BYTE   Fn3
 BYTE   N24  Cn4
 BYTE   W24
 BYTE   N48  En3
 BYTE   N48  Bn3
 BYTE   W24
 BYTE   PEND 
//  #02 //043   ----------------------------------------
Label_019441DF:
 BYTE   W24
 BYTE   N24  Ds3  v100
 BYTE   N24  As3
 BYTE   W24
 BYTE   Fs3
 BYTE   N24  Cs4
 BYTE   W24
 BYTE   Fn3
 BYTE   N24  Cn4
 BYTE   W24
 BYTE   PEND 
//  #02 //044   ----------------------------------------
Label_019441EF:
 BYTE   N48  En3  v100
 BYTE   N48  Bn3
 BYTE   W48
 BYTE   N24  Ds3
 BYTE   N24  As3
 BYTE   W24
 BYTE   Fs2
 BYTE   N24  Fs3
 BYTE   W24
 BYTE   PEND 
//  #02 //045   ----------------------------------------
 BYTE   Ds3
 BYTE   N24  As3
 BYTE   W24
 BYTE   N36  An2
 BYTE   N36  En3
 BYTE   W36
 BYTE   Gs2
 BYTE   N36  Ds3
 BYTE   W36
//  #02 //046   ----------------------------------------
 BYTE   PATT
  POIN2 Label_019441BB
//  #02 //047   ----------------------------------------
 BYTE   PATT
  POIN2 Label_019441CB
//  #02 //048   ----------------------------------------
 BYTE   PATT
  POIN2 Label_019441DF
//  #02 //049   ----------------------------------------
 BYTE   PATT
  POIN2 Label_019441EF
//  #02 //050   ----------------------------------------
 BYTE   N24  Ds3  v100
 BYTE   N24  As3
 BYTE   W24
 BYTE   TIE  Cn3
 BYTE   TIE  Gn3
 BYTE   W72
//  #02 //051   ----------------------------------------
 BYTE   W96
//  #02 //052   ----------------------------------------
 BYTE   W96
//  #02 //053   ----------------------------------------
 BYTE   W48
 BYTE   EOT
 BYTE   Cn3  v067
 BYTE   W48
//  #02 //054   ----------------------------------------
 BYTE   W96
//  #02 //055   ----------------------------------------
 BYTE   W96
//  #02 //056   ----------------------------------------
 BYTE   W72
 BYTE   GoTo
  POIN2 Label_019440DB
//  #02 //057   ----------------------------------------
 BYTE   W24
 BYTE   W32
 BYTE   W01
 BYTE   BEND   c_v+0
 BYTE   FINE

//**************** Track 3 (Midi-Chn.2) ****************//

UndertaleHereweareAzula_003:
//  #03 //000   ----------------------------------------
 BYTE   KEYSH   UndertaleHereweareAzula_key+0
 BYTE   VOICE   34
 BYTE   VOL   37*UndertaleHereweareAzula_mvl/mxv
 BYTE   PAN   c_v-6
 BYTE   As2  v058
 BYTE   PAN   c_v-6
 BYTE   BEND   c_v+0
 BYTE   W96
//  #03 //001   ----------------------------------------
 BYTE   W96
//  #03 //002   ----------------------------------------
 BYTE   W96
//  #03 //003   ----------------------------------------
 BYTE   W96
//  #03 //004   ----------------------------------------
 BYTE   W96
//  #03 //005   ----------------------------------------
 BYTE   W96
//  #03 //006   ----------------------------------------
 BYTE   W96
//  #03 //007   ----------------------------------------
 BYTE   W96
//  #03 //008   ----------------------------------------
 BYTE   W96
//  #03 //009   ----------------------------------------
 BYTE   W96
//  #03 //010   ----------------------------------------
 BYTE   W96
//  #03 //011   ----------------------------------------
 BYTE   W96
//  #03 //012   ----------------------------------------
 BYTE   W96
//  #03 //013   ----------------------------------------
 BYTE   W96
//  #03 //014   ----------------------------------------
 BYTE   W96
//  #03 //015   ----------------------------------------
 BYTE   W96
//  #03 //016   ----------------------------------------
 BYTE   W96
//  #03 //017   ----------------------------------------
 BYTE   W96
//  #03 //018   ----------------------------------------
 BYTE   W96
//  #03 //019   ----------------------------------------
 BYTE   W96
//  #03 //020   ----------------------------------------
 BYTE   W24
Label_01944262:
 BYTE   N12  An1  v100
 BYTE   W12
 BYTE   En2
 BYTE   W12
 BYTE   Dn2
 BYTE   W12
 BYTE   Gn2
 BYTE   W12
 BYTE   An2
 BYTE   W12
 BYTE   Dn2
 BYTE   W12
//  #03 //021   ----------------------------------------
Label_01944270:
 BYTE   N12  Gs2  v100
 BYTE   W12
 BYTE   En2
 BYTE   W12
 BYTE   An2
 BYTE   W12
 BYTE   Fn2
 BYTE   W12
 BYTE   Bn2
 BYTE   W12
 BYTE   Cn3
 BYTE   W12
 BYTE   An2
 BYTE   W12
 BYTE   Bn2
 BYTE   W12
 BYTE   PEND 
//  #03 //022   ----------------------------------------
Label_01944283:
 BYTE   N12  Gn2  v100
 BYTE   W12
 BYTE   An2
 BYTE   W12
 BYTE   En2
 BYTE   W12
 BYTE   Dn3
 BYTE   W12
 BYTE   Bn2
 BYTE   W12
 BYTE   Cn3
 BYTE   W12
 BYTE   An1
 BYTE   W12
 BYTE   En2
 BYTE   W12
 BYTE   PEND 
//  #03 //023   ----------------------------------------
Label_01944296:
 BYTE   N12  Dn2  v100
 BYTE   W12
 BYTE   Gn2
 BYTE   W12
 BYTE   An2
 BYTE   W12
 BYTE   Dn2
 BYTE   W12
 BYTE   As2
 BYTE   W12
 BYTE   Fs2
 BYTE   W12
 BYTE   Bn2
 BYTE   W12
 BYTE   Cn3
 BYTE   W12
 BYTE   PEND 
//  #03 //024   ----------------------------------------
Label_019442A9:
 BYTE   N12  Cs3  v100
 BYTE   W12
 BYTE   Dn3
 BYTE   W12
 BYTE   Bn2
 BYTE   W12
 BYTE   Cs3
 BYTE   W12
 BYTE   An2
 BYTE   W12
 BYTE   Bn2
 BYTE   W12
 BYTE   Fs2
 BYTE   W12
 BYTE   En3
 BYTE   W12
 BYTE   PEND 
//  #03 //025   ----------------------------------------
Label_019442BC:
 BYTE   N12  Cs3  v100
 BYTE   W12
 BYTE   Dn3
 BYTE   W12
 BYTE   An1
 BYTE   W12
 BYTE   En2
 BYTE   W12
 BYTE   Dn2
 BYTE   W12
 BYTE   Gn2
 BYTE   W12
 BYTE   An2
 BYTE   W12
 BYTE   Dn2
 BYTE   W12
 BYTE   PEND 
//  #03 //026   ----------------------------------------
 BYTE   PATT
  POIN2 Label_01944270
//  #03 //027   ----------------------------------------
 BYTE   PATT
  POIN2 Label_01944283
//  #03 //028   ----------------------------------------
 BYTE   PATT
  POIN2 Label_01944296
//  #03 //029   ----------------------------------------
 BYTE   PATT
  POIN2 Label_019442A9
//  #03 //030   ----------------------------------------
 BYTE   PATT
  POIN2 Label_019442BC
//  #03 //031   ----------------------------------------
 BYTE   PATT
  POIN2 Label_01944270
//  #03 //032   ----------------------------------------
 BYTE   PATT
  POIN2 Label_01944283
//  #03 //033   ----------------------------------------
 BYTE   PATT
  POIN2 Label_01944296
//  #03 //034   ----------------------------------------
 BYTE   PATT
  POIN2 Label_019442A9
//  #03 //035   ----------------------------------------
 BYTE   PATT
  POIN2 Label_019442BC
//  #03 //036   ----------------------------------------
 BYTE   PATT
  POIN2 Label_01944270
//  #03 //037   ----------------------------------------
 BYTE   PATT
  POIN2 Label_01944283
//  #03 //038   ----------------------------------------
 BYTE   PATT
  POIN2 Label_01944296
//  #03 //039   ----------------------------------------
 BYTE   PATT
  POIN2 Label_019442A9
//  #03 //040   ----------------------------------------
 BYTE   N12  Cs3  v100
 BYTE   W12
 BYTE   Dn3
 BYTE   W12
 BYTE   An1
 BYTE   W12
 BYTE   En2
 BYTE   W12
 BYTE   Dn2
 BYTE   W12
 BYTE   Gs1
 BYTE   W12
 BYTE   Ds2
 BYTE   W12
 BYTE   Cs2
 BYTE   W12
//  #03 //041   ----------------------------------------
Label_01944327:
 BYTE   N12  An1  v100
 BYTE   W12
 BYTE   As1
 BYTE   W12
 BYTE   Bn1
 BYTE   W12
 BYTE   Cn2
 BYTE   W12
 BYTE   An1
 BYTE   W12
 BYTE   En2
 BYTE   W12
 BYTE   Dn2
 BYTE   W12
 BYTE   Gs1
 BYTE   W12
 BYTE   PEND 
//  #03 //042   ----------------------------------------
Label_0194433A:
 BYTE   N12  Ds2  v100
 BYTE   W12
 BYTE   Cs2
 BYTE   W12
 BYTE   An1
 BYTE   W12
 BYTE   Bn1
 BYTE   W12
 BYTE   Gs1
 BYTE   W12
 BYTE   As1
 BYTE   W12
 BYTE   An1
 BYTE   W12
 BYTE   En2
 BYTE   W12
 BYTE   PEND 
//  #03 //043   ----------------------------------------
Label_0194434D:
 BYTE   N12  Dn2  v100
 BYTE   W12
 BYTE   Gs1
 BYTE   W12
 BYTE   Ds2
 BYTE   W12
 BYTE   Cs2
 BYTE   W12
 BYTE   An1
 BYTE   W12
 BYTE   As1
 BYTE   W12
 BYTE   Bn1
 BYTE   W12
 BYTE   Cn2
 BYTE   W12
 BYTE   PEND 
//  #03 //044   ----------------------------------------
Label_01944360:
 BYTE   N12  An1  v100
 BYTE   W12
 BYTE   En2
 BYTE   W12
 BYTE   Dn2
 BYTE   W12
 BYTE   Gs1
 BYTE   W12
 BYTE   Ds2
 BYTE   W12
 BYTE   Cs2
 BYTE   W12
 BYTE   Fs1
 BYTE   W12
 BYTE   Cs2
 BYTE   W12
 BYTE   PEND 
//  #03 //045   ----------------------------------------
 BYTE   Gs1
 BYTE   W12
 BYTE   Ds2
 BYTE   W12
 BYTE   An1
 BYTE   W12
 BYTE   En2
 BYTE   W12
 BYTE   Dn2
 BYTE   W12
 BYTE   Gs1
 BYTE   W12
 BYTE   Ds2
 BYTE   W12
 BYTE   Cs2
 BYTE   W12
//  #03 //046   ----------------------------------------
 BYTE   PATT
  POIN2 Label_01944327
//  #03 //047   ----------------------------------------
 BYTE   PATT
  POIN2 Label_0194433A
//  #03 //048   ----------------------------------------
 BYTE   PATT
  POIN2 Label_0194434D
//  #03 //049   ----------------------------------------
 BYTE   PATT
  POIN2 Label_01944360
//  #03 //050   ----------------------------------------
 BYTE   N12  Gs1  v100
 BYTE   W12
 BYTE   Ds2
 BYTE   W12
 BYTE   TIE  Cn2
 BYTE   TIE  Ds2
 BYTE   TIE  Gn2
 BYTE   W72
//  #03 //051   ----------------------------------------
 BYTE   W96
//  #03 //052   ----------------------------------------
 BYTE   W96
//  #03 //053   ----------------------------------------
 BYTE   W48
 BYTE   EOT
 BYTE   Cn2  v051
 BYTE   Gn2
 BYTE   W48
//  #03 //054   ----------------------------------------
 BYTE   W96
//  #03 //055   ----------------------------------------
 BYTE   W96
//  #03 //056   ----------------------------------------
 BYTE   W72
 BYTE   GoTo
  POIN2 Label_01944262
//  #03 //057   ----------------------------------------
 BYTE   W24
 BYTE   W32
 BYTE   W01
 BYTE   PAN   c_v-6
 BYTE   As2  v058
 BYTE   BEND   c_v+0
 BYTE   FINE

//**************** Track 4 (Midi-Chn.3) ****************//

UndertaleHereweareAzula_004:
//  #04 //000   ----------------------------------------
 BYTE   KEYSH   UndertaleHereweareAzula_key+0
 BYTE   VOICE   1
 BYTE   PAN   c_v+1
 BYTE   VOL   75*UndertaleHereweareAzula_mvl/mxv
 BYTE   W96
//  #04 //001   ----------------------------------------
 BYTE   W96
//  #04 //002   ----------------------------------------
 BYTE   W96
//  #04 //003   ----------------------------------------
 BYTE   W96
//  #04 //004   ----------------------------------------
 BYTE   W96
//  #04 //005   ----------------------------------------
 BYTE   W96
//  #04 //006   ----------------------------------------
 BYTE   W96
//  #04 //007   ----------------------------------------
 BYTE   W96
//  #04 //008   ----------------------------------------
 BYTE   W96
//  #04 //009   ----------------------------------------
 BYTE   W96
//  #04 //010   ----------------------------------------
 BYTE   W96
//  #04 //011   ----------------------------------------
 BYTE   W96
//  #04 //012   ----------------------------------------
 BYTE   W96
//  #04 //013   ----------------------------------------
 BYTE   W96
//  #04 //014   ----------------------------------------
 BYTE   W96
//  #04 //015   ----------------------------------------
 BYTE   W96
//  #04 //016   ----------------------------------------
 BYTE   W96
//  #04 //017   ----------------------------------------
 BYTE   W96
//  #04 //018   ----------------------------------------
 BYTE   W96
//  #04 //019   ----------------------------------------
 BYTE   W96
//  #04 //020   ----------------------------------------
 BYTE   W24
Label_01948E9D:
 BYTE   N11  An2  v096
 BYTE   W12
 BYTE   En3
 BYTE   W12
 BYTE   Dn3
 BYTE   W12
 BYTE   Gn3
 BYTE   W12
 BYTE   An3
 BYTE   W12
 BYTE   Dn3
 BYTE   W12
//  #04 //021   ----------------------------------------
Label_01948EAB:
 BYTE   N11  Cs4  v096
 BYTE   W12
 BYTE   En3
 BYTE   W12
 BYTE   Dn4
 BYTE   W12
 BYTE   Fn3
 BYTE   W12
 BYTE   Bn3
 BYTE   W12
 BYTE   Cn4
 BYTE   W12
 BYTE   An3
 BYTE   W12
 BYTE   Bn3
 BYTE   W12
 BYTE   PEND 
//  #04 //022   ----------------------------------------
Label_01948EBE:
 BYTE   N11  Gn3  v096
 BYTE   W12
 BYTE   An3
 BYTE   W12
 BYTE   En3
 BYTE   W12
 BYTE   Dn4
 BYTE   W12
 BYTE   Bn3
 BYTE   W12
 BYTE   Cn4
 BYTE   W12
 BYTE   An2
 BYTE   W12
 BYTE   En3
 BYTE   W12
 BYTE   PEND 
//  #04 //023   ----------------------------------------
Label_01948ED1:
 BYTE   N11  Dn3  v096
 BYTE   W12
 BYTE   Gn3
 BYTE   W12
 BYTE   An3
 BYTE   W12
 BYTE   Dn3
 BYTE   W12
 BYTE   As3
 BYTE   W12
 BYTE   Fs3
 BYTE   W12
 BYTE   Bn3
 BYTE   W12
 BYTE   Cn4
 BYTE   W12
 BYTE   PEND 
//  #04 //024   ----------------------------------------
Label_01948EE4:
 BYTE   N11  Cs4  v096
 BYTE   W12
 BYTE   Dn4
 BYTE   W12
 BYTE   Bn3
 BYTE   W12
 BYTE   Cs4
 BYTE   W12
 BYTE   An3
 BYTE   W12
 BYTE   Bn3
 BYTE   W12
 BYTE   Fs3
 BYTE   W12
 BYTE   En4
 BYTE   W12
 BYTE   PEND 
//  #04 //025   ----------------------------------------
Label_01948EF7:
 BYTE   N11  Cs4  v096
 BYTE   W12
 BYTE   Dn4
 BYTE   W12
 BYTE   An2
 BYTE   W12
 BYTE   En3
 BYTE   W12
 BYTE   Dn3
 BYTE   W12
 BYTE   Gn3
 BYTE   W12
 BYTE   An3
 BYTE   W12
 BYTE   Dn3
 BYTE   W12
 BYTE   PEND 
//  #04 //026   ----------------------------------------
 BYTE   PATT
  POIN2 Label_01948EAB
//  #04 //027   ----------------------------------------
 BYTE   PATT
  POIN2 Label_01948EBE
//  #04 //028   ----------------------------------------
 BYTE   PATT
  POIN2 Label_01948ED1
//  #04 //029   ----------------------------------------
 BYTE   PATT
  POIN2 Label_01948EE4
//  #04 //030   ----------------------------------------
 BYTE   PATT
  POIN2 Label_01948EF7
//  #04 //031   ----------------------------------------
 BYTE   PATT
  POIN2 Label_01948EAB
//  #04 //032   ----------------------------------------
 BYTE   PATT
  POIN2 Label_01948EBE
//  #04 //033   ----------------------------------------
 BYTE   PATT
  POIN2 Label_01948ED1
//  #04 //034   ----------------------------------------
 BYTE   PATT
  POIN2 Label_01948EE4
//  #04 //035   ----------------------------------------
 BYTE   PATT
  POIN2 Label_01948EF7
//  #04 //036   ----------------------------------------
 BYTE   PATT
  POIN2 Label_01948EAB
//  #04 //037   ----------------------------------------
 BYTE   PATT
  POIN2 Label_01948EBE
//  #04 //038   ----------------------------------------
 BYTE   PATT
  POIN2 Label_01948ED1
//  #04 //039   ----------------------------------------
 BYTE   PATT
  POIN2 Label_01948EE4
//  #04 //040   ----------------------------------------
 BYTE   N11  Cs4  v096
 BYTE   W12
 BYTE   Dn4
 BYTE   W12
 BYTE   An2
 BYTE   W12
 BYTE   En3
 BYTE   W12
 BYTE   Dn3
 BYTE   W12
 BYTE   Gs2
 BYTE   W12
 BYTE   Ds3
 BYTE   W12
 BYTE   Cs3
 BYTE   W12
//  #04 //041   ----------------------------------------
Label_01948F62:
 BYTE   N11  An2  v096
 BYTE   W12
 BYTE   As2
 BYTE   W12
 BYTE   Bn2
 BYTE   W12
 BYTE   Cn3
 BYTE   W12
 BYTE   An2
 BYTE   W12
 BYTE   En3
 BYTE   W12
 BYTE   Dn3
 BYTE   W12
 BYTE   Gs2
 BYTE   W12
 BYTE   PEND 
//  #04 //042   ----------------------------------------
Label_01948F75:
 BYTE   N11  Ds3  v096
 BYTE   W12
 BYTE   Cs3
 BYTE   W12
 BYTE   An2
 BYTE   W12
 BYTE   Bn2
 BYTE   W12
 BYTE   Gs2
 BYTE   W12
 BYTE   As2
 BYTE   W12
 BYTE   An2
 BYTE   W12
 BYTE   En3
 BYTE   W12
 BYTE   PEND 
//  #04 //043   ----------------------------------------
Label_01948F88:
 BYTE   N11  Dn3  v096
 BYTE   W12
 BYTE   Gs2
 BYTE   W12
 BYTE   Ds3
 BYTE   W12
 BYTE   Cs3
 BYTE   W12
 BYTE   An2
 BYTE   W12
 BYTE   As2
 BYTE   W12
 BYTE   Bn2
 BYTE   W12
 BYTE   Cn3
 BYTE   W12
 BYTE   PEND 
//  #04 //044   ----------------------------------------
Label_01948F9B:
 BYTE   N11  An2  v096
 BYTE   W12
 BYTE   En3
 BYTE   W12
 BYTE   Dn3
 BYTE   W12
 BYTE   Gs2
 BYTE   W12
 BYTE   Ds3
 BYTE   W12
 BYTE   Cs3
 BYTE   W12
 BYTE   Fs2
 BYTE   W12
 BYTE   Cs3
 BYTE   W12
 BYTE   PEND 
//  #04 //045   ----------------------------------------
 BYTE   Gs2
 BYTE   W12
 BYTE   Ds3
 BYTE   W12
 BYTE   An2
 BYTE   W12
 BYTE   En3
 BYTE   W12
 BYTE   Dn3
 BYTE   W12
 BYTE   Gs2
 BYTE   W12
 BYTE   Ds3
 BYTE   W12
 BYTE   Cs3
 BYTE   W12
//  #04 //046   ----------------------------------------
 BYTE   PATT
  POIN2 Label_01948F62
//  #04 //047   ----------------------------------------
 BYTE   PATT
  POIN2 Label_01948F75
//  #04 //048   ----------------------------------------
 BYTE   PATT
  POIN2 Label_01948F88
//  #04 //049   ----------------------------------------
 BYTE   PATT
  POIN2 Label_01948F9B
//  #04 //050   ----------------------------------------
 BYTE   N11  Gs2  v096
 BYTE   W12
 BYTE   Ds3
 BYTE   W12
 BYTE   TIE  Gn3
 BYTE   W72
//  #04 //051   ----------------------------------------
 BYTE   W96
//  #04 //052   ----------------------------------------
 BYTE   W23
 BYTE   EOT
 BYTE   W72
 BYTE   W01
//  #04 //053   ----------------------------------------
 BYTE   W96
//  #04 //054   ----------------------------------------
 BYTE   W96
//  #04 //055   ----------------------------------------
 BYTE   W96
//  #04 //056   ----------------------------------------
 BYTE   W72
 BYTE   GoTo
  POIN2 Label_01948E9D
//  #04 //057   ----------------------------------------
 BYTE   W24
 BYTE   W32
 BYTE   W01
 BYTE   FINE

//**************** Track 5 (Midi-Chn.4) ****************//

UndertaleHereweareAzula_005:
//  #05 //000   ----------------------------------------
 BYTE   KEYSH   UndertaleHereweareAzula_key+0
 BYTE   VOICE   127
 BYTE   VOL   56*UndertaleHereweareAzula_mvl/mxv
 BYTE   PAN   c_v+0
 BYTE   En3  v064
 BYTE   PAN   c_v+0
 BYTE   BEND   c_v+0
 BYTE   W96
//  #05 //001   ----------------------------------------
 BYTE   W96
//  #05 //002   ----------------------------------------
 BYTE   W96
//  #05 //003   ----------------------------------------
 BYTE   W96
//  #05 //004   ----------------------------------------
 BYTE   W96
//  #05 //005   ----------------------------------------
 BYTE   W96
//  #05 //006   ----------------------------------------
 BYTE   W96
//  #05 //007   ----------------------------------------
 BYTE   W96
//  #05 //008   ----------------------------------------
 BYTE   W96
//  #05 //009   ----------------------------------------
 BYTE   W96
//  #05 //010   ----------------------------------------
Label_01949007:
 BYTE   N12  Cn1  v127
 BYTE   W12
 BYTE   Gs1
 BYTE   W12
 BYTE   Dn1
 BYTE   W12
 BYTE   Cn1
 BYTE   W12
 BYTE   Gs1
 BYTE   W12
 BYTE   Dn1
 BYTE   W12
 BYTE   Cn1
 BYTE   W12
 BYTE   Gs1
 BYTE   W12
 BYTE   PEND 
//  #05 //011   ----------------------------------------
Label_0194901A:
 BYTE   N12  Cn1  v127
 BYTE   W12
 BYTE   Gs1
 BYTE   W12
 BYTE   Cn1
 BYTE   W12
 BYTE   Gs1
 BYTE   W12
 BYTE   Dn1
 BYTE   W12
 BYTE   Cn1
 BYTE   W12
 BYTE   Gs1
 BYTE   W12
 BYTE   Dn1
 BYTE   W12
 BYTE   PEND 
//  #05 //012   ----------------------------------------
Label_0194902D:
 BYTE   N12  Cn1  v127
 BYTE   W12
 BYTE   Gs1
 BYTE   W12
 BYTE   Cn1
 BYTE   W12
 BYTE   Gs1
 BYTE   W12
 BYTE   Cn1
 BYTE   W12
 BYTE   Gs1
 BYTE   W12
 BYTE   Dn1
 BYTE   W12
 BYTE   Cn1
 BYTE   W12
 BYTE   PEND 
//  #05 //013   ----------------------------------------
Label_01949040:
 BYTE   N12  Gs1  v127
 BYTE   W12
 BYTE   Dn1
 BYTE   W12
 BYTE   Cn1
 BYTE   W12
 BYTE   Gs1
 BYTE   W12
 BYTE   Cn1
 BYTE   W12
 BYTE   Gs1
 BYTE   W12
 BYTE   Cn1
 BYTE   W12
 BYTE   Gs1
 BYTE   W12
 BYTE   PEND 
//  #05 //014   ----------------------------------------
 BYTE   Dn1
 BYTE   W12
 BYTE   Cn1
 BYTE   W12
 BYTE   Gs1
 BYTE   W12
 BYTE   Dn1
 BYTE   W12
 BYTE   Cn1
 BYTE   W12
 BYTE   Gs1
 BYTE   W12
 BYTE   Cn1
 BYTE   W12
 BYTE   Gs1
 BYTE   W12
//  #05 //015   ----------------------------------------
 BYTE   PATT
  POIN2 Label_01949007
//  #05 //016   ----------------------------------------
 BYTE   PATT
  POIN2 Label_0194901A
//  #05 //017   ----------------------------------------
 BYTE   PATT
  POIN2 Label_0194902D
//  #05 //018   ----------------------------------------
 BYTE   PATT
  POIN2 Label_01949040
//  #05 //019   ----------------------------------------
 BYTE   N12  Dn1  v127
 BYTE   W12
 BYTE   Cn1
 BYTE   W12
 BYTE   Gs1
 BYTE   W12
 BYTE   Dn1
 BYTE   W12
 BYTE   Cn1
 BYTE   W12
 BYTE   N03  Dn1
 BYTE   W03
 BYTE   N03
 BYTE   W03
 BYTE   N03
 BYTE   W03
 BYTE   N03
 BYTE   W24
 BYTE   W03
//  #05 //020   ----------------------------------------
 BYTE   N24
 BYTE   W24
Label_0194908F:
 BYTE   N06  Cn1  v127
 BYTE   W06
 BYTE   N06
 BYTE   W06
 BYTE   Dn1
 BYTE   W06
 BYTE   Cn1
 BYTE   W06
 BYTE   N12  En1
 BYTE   W12
 BYTE   N06  Cn1
 BYTE   W06
 BYTE   N06
 BYTE   W06
 BYTE   Dn1
 BYTE   W06
 BYTE   Cn1
 BYTE   W06
 BYTE   N12  En1
 BYTE   W12
//  #05 //021   ----------------------------------------
Label_019490A8:
 BYTE   N06  Cn1  v127
 BYTE   W06
 BYTE   N06
 BYTE   W06
 BYTE   Dn1
 BYTE   W06
 BYTE   Cn1
 BYTE   W06
 BYTE   N12  En1
 BYTE   W12
 BYTE   Cn1
 BYTE   W12
 BYTE   N06
 BYTE   W06
 BYTE   N06
 BYTE   W06
 BYTE   Dn1
 BYTE   W06
 BYTE   Cn1
 BYTE   W06
 BYTE   N12  En1
 BYTE   W12
 BYTE   N06  Cn1
 BYTE   W06
 BYTE   N06
 BYTE   W06
 BYTE   PEND 
//  #05 //022   ----------------------------------------
Label_019490C8:
 BYTE   N06  Dn1  v127
 BYTE   W06
 BYTE   Cn1
 BYTE   W06
 BYTE   N12  En1
 BYTE   W12
 BYTE   N06  Cn1
 BYTE   W06
 BYTE   N06
 BYTE   W06
 BYTE   Dn1
 BYTE   W06
 BYTE   Cn1
 BYTE   W06
 BYTE   N12
 BYTE   W12
 BYTE   N06  Dn1
 BYTE   W06
 BYTE   Cn1
 BYTE   W06
 BYTE   N06
 BYTE   W06
 BYTE   N06
 BYTE   W06
 BYTE   Dn1
 BYTE   W06
 BYTE   Cn1
 BYTE   W06
 BYTE   PEND 
//  #05 //023   ----------------------------------------
Label_019490EA:
 BYTE   N12  En1  v127
 BYTE   W12
 BYTE   N06  Cn1
 BYTE   W06
 BYTE   N06
 BYTE   W06
 BYTE   Dn1
 BYTE   W06
 BYTE   Cn1
 BYTE   W06
 BYTE   N12  En1
 BYTE   W12
 BYTE   N06  Cn1
 BYTE   W06
 BYTE   N06
 BYTE   W06
 BYTE   Dn1
 BYTE   W06
 BYTE   Cn1
 BYTE   W06
 BYTE   N12  En1
 BYTE   W12
 BYTE   Cn1
 BYTE   W12
 BYTE   PEND 
//  #05 //024   ----------------------------------------
Label_01949109:
 BYTE   N06  Cn1  v127
 BYTE   W06
 BYTE   N06
 BYTE   W06
 BYTE   Dn1
 BYTE   W06
 BYTE   Cn1
 BYTE   W06
 BYTE   N12  En1
 BYTE   W12
 BYTE   N06  Cn1
 BYTE   W06
 BYTE   N06
 BYTE   W06
 BYTE   Dn1
 BYTE   W06
 BYTE   Cn1
 BYTE   W06
 BYTE   N12  En1
 BYTE   W12
 BYTE   N06  Cn1
 BYTE   W06
 BYTE   N06
 BYTE   W06
 BYTE   Dn1
 BYTE   W06
 BYTE   Cn1
 BYTE   W06
 BYTE   PEND 
//  #05 //025   ----------------------------------------
Label_0194912C:
 BYTE   N12  Cn1  v127
 BYTE   W12
 BYTE   N06  Dn1
 BYTE   W06
 BYTE   Cn1
 BYTE   W06
 BYTE   N06
 BYTE   W06
 BYTE   N06
 BYTE   W06
 BYTE   Dn1
 BYTE   W06
 BYTE   Cn1
 BYTE   W06
 BYTE   N12  En1
 BYTE   W12
 BYTE   N06  Cn1
 BYTE   W06
 BYTE   N06
 BYTE   W06
 BYTE   Dn1
 BYTE   W06
 BYTE   Cn1
 BYTE   W06
 BYTE   N12  En1
 BYTE   W12
 BYTE   PEND 
//  #05 //026   ----------------------------------------
 BYTE   PATT
  POIN2 Label_019490A8
//  #05 //027   ----------------------------------------
 BYTE   PATT
  POIN2 Label_019490C8
//  #05 //028   ----------------------------------------
 BYTE   PATT
  POIN2 Label_019490EA
//  #05 //029   ----------------------------------------
 BYTE   PATT
  POIN2 Label_01949109
//  #05 //030   ----------------------------------------
 BYTE   PATT
  POIN2 Label_0194912C
//  #05 //031   ----------------------------------------
 BYTE   PATT
  POIN2 Label_019490A8
//  #05 //032   ----------------------------------------
 BYTE   PATT
  POIN2 Label_019490C8
//  #05 //033   ----------------------------------------
 BYTE   PATT
  POIN2 Label_019490EA
//  #05 //034   ----------------------------------------
 BYTE   PATT
  POIN2 Label_01949109
//  #05 //035   ----------------------------------------
 BYTE   PATT
  POIN2 Label_0194912C
//  #05 //036   ----------------------------------------
 BYTE   PATT
  POIN2 Label_019490A8
//  #05 //037   ----------------------------------------
 BYTE   PATT
  POIN2 Label_019490C8
//  #05 //038   ----------------------------------------
 BYTE   PATT
  POIN2 Label_019490EA
//  #05 //039   ----------------------------------------
 BYTE   PATT
  POIN2 Label_01949109
//  #05 //040   ----------------------------------------
 BYTE   PATT
  POIN2 Label_0194912C
//  #05 //041   ----------------------------------------
 BYTE   PATT
  POIN2 Label_019490A8
//  #05 //042   ----------------------------------------
 BYTE   PATT
  POIN2 Label_019490C8
//  #05 //043   ----------------------------------------
 BYTE   PATT
  POIN2 Label_019490EA
//  #05 //044   ----------------------------------------
 BYTE   PATT
  POIN2 Label_01949109
//  #05 //045   ----------------------------------------
 BYTE   PATT
  POIN2 Label_0194912C
//  #05 //046   ----------------------------------------
 BYTE   PATT
  POIN2 Label_019490A8
//  #05 //047   ----------------------------------------
 BYTE   PATT
  POIN2 Label_019490C8
//  #05 //048   ----------------------------------------
 BYTE   PATT
  POIN2 Label_019490EA
//  #05 //049   ----------------------------------------
 BYTE   PATT
  POIN2 Label_01949109
//  #05 //050   ----------------------------------------
 BYTE   PATT
  POIN2 Label_0194912C
//  #05 //051   ----------------------------------------
 BYTE   PATT
  POIN2 Label_019490A8
//  #05 //052   ----------------------------------------
 BYTE   PATT
  POIN2 Label_019490C8
//  #05 //053   ----------------------------------------
 BYTE   PATT
  POIN2 Label_019490EA
//  #05 //054   ----------------------------------------
 BYTE   PATT
  POIN2 Label_01949109
//  #05 //055   ----------------------------------------
 BYTE   N12  Cn1  v127
 BYTE   W12
 BYTE   N06  Dn1
 BYTE   W06
 BYTE   Cn1
 BYTE   W06
 BYTE   N12
 BYTE   W12
 BYTE   Gs1
 BYTE   W12
 BYTE   Dn1
 BYTE   W12
 BYTE   Cn1
 BYTE   W12
 BYTE   Gs1
 BYTE   W12
 BYTE   Dn1
 BYTE   W12
//  #05 //056   ----------------------------------------
 BYTE   Cn1
 BYTE   W12
 BYTE   N03  Dn1
 BYTE   W03
 BYTE   N03
 BYTE   W03
 BYTE   N03
 BYTE   W03
 BYTE   N03
 BYTE   W24
 BYTE   W03
 BYTE   N24
 BYTE   W24
 BYTE   GoTo
  POIN2 Label_0194908F
//  #05 //057   ----------------------------------------
 BYTE   PAN   c_v+0
 BYTE   BEND   c_v+0
 BYTE   W24
 BYTE   W32
 BYTE   W01
 BYTE   FINE

//******************************************************//
	ALIGN 4

UndertaleHereweareAzula:
	BYTE	5	// NumTrks
	BYTE	0	// NumBlks
	BYTE	UndertaleHereweareAzula_pri	// Priority
	BYTE	UndertaleHereweareAzula_rev	// Reverb.
    
	POIN2	UndertaleHereweareAzula_grp
    
	POIN2	UndertaleHereweareAzula_001
	POIN2	UndertaleHereweareAzula_002
	POIN2	UndertaleHereweareAzula_003
	POIN2	UndertaleHereweareAzula_004
	POIN2	UndertaleHereweareAzula_005

	
