//Event file generated from Sappy .s format.
	#include "MPlayDef.event"

	#define	ChronoTriggerBoss2RandomWizard_grp  voicegroup000
	#define	ChronoTriggerBoss2RandomWizard_pri  0
	#define	ChronoTriggerBoss2RandomWizard_rev  0
	#define	ChronoTriggerBoss2RandomWizard_mvl  127
	#define	ChronoTriggerBoss2RandomWizard_key  0
	#define	ChronoTriggerBoss2RandomWizard_tbs  1
	#define	ChronoTriggerBoss2RandomWizard_exg  0
	#define	ChronoTriggerBoss2RandomWizard_cmp  1

	// .rodata
	//	ChronoTriggerBoss2RandomWizard
	ALIGN 4


//**************** Track 1 (Midi-Chn.0) ****************//

ChronoTriggerBoss2RandomWizard_001:
// 000   ----------------------------------------
 BYTE   KEYSH   ChronoTriggerBoss2RandomWizard_key+0
 BYTE   TEMPO   108*ChronoTriggerBoss2RandomWizard_tbs/2
 BYTE   VOICE   47
 BYTE   VOL   50*ChronoTriggerBoss2RandomWizard_mvl/mxv
 BYTE   PAN   c_v+0
 BYTE   N06  An1  v100
 BYTE   W06
 BYTE   N06
 BYTE   W06
 BYTE   N06
 BYTE   W06
 BYTE   N18
 BYTE   W18
 BYTE   N06
 BYTE   W06
 BYTE   N06
 BYTE   W06
 BYTE   N06
 BYTE   W06
 BYTE   Cn2
 BYTE   W18
Label_0_013BA3A4:
 BYTE   N06  Cn2  v100
 BYTE   W06
 BYTE   N06
 BYTE   W06
 BYTE   N06
 BYTE   W06
 BYTE   Ds2
 BYTE   W18
// 001   ----------------------------------------
 BYTE   N06
 BYTE   W06
 BYTE   N06
 BYTE   W06
 BYTE   N06
 BYTE   W06
 BYTE   Dn2
 BYTE   W18
 BYTE   PEND 
Label_0_013BA3B7:
 BYTE   N06  Dn2  v100
 BYTE   W06
 BYTE   N06
 BYTE   W06
 BYTE   N06
 BYTE   W06
 BYTE   Cs2
 BYTE   W18
 BYTE   N06
 BYTE   W06
 BYTE   N06
 BYTE   W06
 BYTE   N06
 BYTE   W06
 BYTE   Cn2
 BYTE   W18
 BYTE   PEND 
// 002   ----------------------------------------
Label_0_013BA3CA:
 BYTE   N06  Cn2  v100
 BYTE   W06
 BYTE   N06
 BYTE   W06
 BYTE   N06
 BYTE   W06
 BYTE   Bn1
 BYTE   W18
 BYTE   N06
 BYTE   W06
 BYTE   N06
 BYTE   W06
 BYTE   N06
 BYTE   W06
 BYTE   As1
 BYTE   W18
 BYTE   PEND 
 BYTE   N06
 BYTE   W06
 BYTE   N06
 BYTE   W06
 BYTE   N06
 BYTE   W06
 BYTE   N18  An1
 BYTE   W18
// 003   ----------------------------------------
 BYTE   N06
 BYTE   W06
 BYTE   N06
 BYTE   W06
 BYTE   N06
 BYTE   W06
 BYTE   Cn2
 BYTE   W18
 BYTE   PATT
  POIN2 Label_0_013BA3A4
 BYTE   PATT
  POIN2 Label_0_013BA3B7
 BYTE   PATT
  POIN2 Label_0_013BA3CA
// 004   ----------------------------------------
Label_0_013BA3FD:
 BYTE   N06  As1  v100
 BYTE   W06
 BYTE   N06
 BYTE   W06
 BYTE   N06
 BYTE   W06
 BYTE   N12  An1
 BYTE   W18
 BYTE   N12
 BYTE   W24
 BYTE   N12
 BYTE   W12
Label_0_013BA40C:
 BYTE   N12  An1  v100
 BYTE   W18
 BYTE   N12
 BYTE   W18
// 005   ----------------------------------------
 BYTE   N12
 BYTE   W24
 BYTE   N12
 BYTE   W12
 BYTE   PEND 
 BYTE   PATT
  POIN2 Label_0_013BA40C
// 006   ----------------------------------------
Label_0_013BA41C:
 BYTE   N12  An1  v100
 BYTE   W18
 BYTE   As1
 BYTE   W18
 BYTE   N12
 BYTE   W24
 BYTE   N12
 BYTE   W12
 BYTE   PEND 
Label_0_013BA427:
 BYTE   N12  As1  v100
 BYTE   W18
 BYTE   An1
 BYTE   W18
// 007   ----------------------------------------
 BYTE   N12
 BYTE   W24
 BYTE   N12
 BYTE   W12
 BYTE   PEND 
 BYTE   PATT
  POIN2 Label_0_013BA40C
 BYTE   PATT
  POIN2 Label_0_013BA40C
 BYTE   PATT
  POIN2 Label_0_013BA41C
// 008   ----------------------------------------
 BYTE   N12  As1  v100
 BYTE   W18
 BYTE   Cs2
 BYTE   W18
 BYTE   N12
 BYTE   W24
 BYTE   N12
 BYTE   W12
Label_0_013BA44B:
 BYTE   N12  Cs2  v100
 BYTE   W18
 BYTE   N12
 BYTE   W18
// 009   ----------------------------------------
 BYTE   N12
 BYTE   W24
 BYTE   N12
 BYTE   W12
 BYTE   PEND 
 BYTE   N12
 BYTE   W18
 BYTE   Cn2
 BYTE   W18
 BYTE   N12
 BYTE   W24
// 010   ----------------------------------------
 BYTE   N12
 BYTE   W12
 BYTE   N12
 BYTE   W18
 BYTE   N12
 BYTE   W18
 BYTE   N12
 BYTE   W24
 BYTE   N12
 BYTE   W12
 BYTE   N12
 BYTE   W18
// 011   ----------------------------------------
 BYTE   Cs2
 BYTE   W18
 BYTE   N12
 BYTE   W24
 BYTE   N12
 BYTE   W12
 BYTE   PATT
  POIN2 Label_0_013BA44B
// 012   ----------------------------------------
 BYTE   N12  Cs2  v100
 BYTE   W18
 BYTE   Gn1
 BYTE   W18
 BYTE   N12
 BYTE   W36
Label_0_013BA47B:
 BYTE   N12  Gn1  v100
 BYTE   W18
 BYTE   N12
 BYTE   W18
// 013   ----------------------------------------
 BYTE   As1
 BYTE   W18
 BYTE   Gn1
 BYTE   W18
 BYTE   PEND 
Label_0_013BA486:
 BYTE   N12  Gn1  v100
 BYTE   W36
 BYTE   N12
 BYTE   W18
 BYTE   N12
 BYTE   W18
 BYTE   PEND 
// 014   ----------------------------------------
 BYTE   As1
 BYTE   W18
 BYTE   Gn1
 BYTE   W18
 BYTE   N12
 BYTE   W36
 BYTE   PATT
  POIN2 Label_0_013BA47B
 BYTE   PATT
  POIN2 Label_0_013BA486
// 015   ----------------------------------------
 BYTE   N12  As1  v100
 BYTE   W18
 BYTE   N03  As1  v028
 BYTE   W03
 BYTE   N03
 BYTE   W03
 BYTE   As1  v032
 BYTE   W03
 BYTE   As1  v036
 BYTE   W03
 BYTE   As1  v040
 BYTE   W03
 BYTE   N03
 BYTE   W03
 BYTE   As1  v044
 BYTE   W03
 BYTE   As1  v048
 BYTE   W03
 BYTE   As1  v052
 BYTE   W03
 BYTE   As1  v056
 BYTE   W03
 BYTE   N03
 BYTE   W03
 BYTE   As1  v060
 BYTE   W03
 BYTE   As1  v064
 BYTE   W03
 BYTE   As1  v068
 BYTE   W03
 BYTE   N03
 BYTE   W03
 BYTE   As1  v072
 BYTE   W03
 BYTE   As1  v076
 BYTE   W03
 BYTE   As1  v080
 BYTE   W03
 BYTE   As1  v084
 BYTE   W03
 BYTE   N03
 BYTE   W03
 BYTE   As1  v088
 BYTE   W03
 BYTE   As1  v092
 BYTE   W03
 BYTE   As1  v096
 BYTE   W03
 BYTE   N03
 BYTE   W03
 BYTE   N12  En2  v100
 BYTE   W18
// 016   ----------------------------------------
 BYTE   N12
 BYTE   W24
 BYTE   N12
 BYTE   W12
Label_0_013BA4EE:
 BYTE   N12  En2  v100
 BYTE   W18
 BYTE   N12
 BYTE   W18
 BYTE   N12
 BYTE   W24
// 017   ----------------------------------------
 BYTE   N12
 BYTE   W12
 BYTE   PEND 
 BYTE   PATT
  POIN2 Label_0_013BA4EE
// 018   ----------------------------------------
Label_0_013BA4FE:
 BYTE   N12  En2  v100
 BYTE   W18
 BYTE   Fn2
 BYTE   W18
 BYTE   N12
 BYTE   W24
 BYTE   N12
 BYTE   W12
 BYTE   PEND 
 BYTE   N12
 BYTE   W18
 BYTE   En2
 BYTE   W18
// 019   ----------------------------------------
 BYTE   N12
 BYTE   W24
 BYTE   N12
 BYTE   W12
 BYTE   PATT
  POIN2 Label_0_013BA4EE
 BYTE   PATT
  POIN2 Label_0_013BA4EE
 BYTE   PATT
  POIN2 Label_0_013BA4FE
// 020   ----------------------------------------
 BYTE   N12  Fn2  v100
 BYTE   W18
 BYTE   As1
 BYTE   W18
 BYTE   N12
 BYTE   W24
 BYTE   N12
 BYTE   W12
Label_0_013BA52A:
 BYTE   N12  As1  v100
 BYTE   W18
 BYTE   N12
 BYTE   W18
// 021   ----------------------------------------
 BYTE   N12
 BYTE   W24
 BYTE   N12
 BYTE   W12
 BYTE   PEND 
 BYTE   PATT
  POIN2 Label_0_013BA427
 BYTE   PATT
  POIN2 Label_0_013BA40C
 BYTE   PATT
  POIN2 Label_0_013BA41C
 BYTE   PATT
  POIN2 Label_0_013BA52A
// 022   ----------------------------------------
 BYTE   N12  As1  v100
 BYTE   W18
 BYTE   N18  An1
 BYTE   W18
 BYTE   N18
 BYTE   W24
 BYTE   N12
 BYTE   W12
 BYTE   N18  Ds2
 BYTE   W18
 BYTE   N18
 BYTE   W24
// 023   ----------------------------------------
 BYTE   N18
 BYTE   W12
 BYTE   N12  Dn2
 BYTE   W18
Label_0_013BA55E:
 BYTE   N12  Dn2  v100
 BYTE   W24
 BYTE   N12
 BYTE   W12
 BYTE   N12
 BYTE   W18
 BYTE   N12
 BYTE   W18
 BYTE   PEND 
 BYTE   PATT
  POIN2 Label_0_013BA55E
 BYTE   PATT
  POIN2 Label_0_013BA55E
// 024   ----------------------------------------
 BYTE   N12  Dn2  v100
 BYTE   W24
 BYTE   N12
 BYTE   W12
 BYTE   N12
 BYTE   W12
 BYTE   GoTo
  POIN2 Label_0_013BA3FD
// 025   ----------------------------------------
 BYTE   W06
 BYTE   FINE

//**************** Track 2 (Midi-Chn.1) ****************//

ChronoTriggerBoss2RandomWizard_002:
// 000   ----------------------------------------
 BYTE   KEYSH   ChronoTriggerBoss2RandomWizard_key+0
 BYTE   VOICE   61
 BYTE   VOL   50*ChronoTriggerBoss2RandomWizard_mvl/mxv
 BYTE   PAN   c_v+0
 BYTE   W36
 BYTE   N09  Cn4  v100
 BYTE   N09  En4
 BYTE   N09  An4
 BYTE   W18
 BYTE   N36  As3
 BYTE   N36  Ds4
 BYTE   N36  Gn4
 BYTE   W18
Label_1_013BA59C:
 BYTE   W18
 BYTE   N18  As3  v100
 BYTE   N18  Cs4
 BYTE   N18  Fs4
 BYTE   W18
// 001   ----------------------------------------
 BYTE   N03  As3
 BYTE   N03  Cs4
 BYTE   N03  Fs4
 BYTE   W06
 BYTE   As3
 BYTE   N03  Cs4
 BYTE   N03  Fs4
 BYTE   W06
 BYTE   As3
 BYTE   N03  Cs4
 BYTE   N03  Fs4
 BYTE   W06
 BYTE   N36  An3
 BYTE   N36  Cn4
 BYTE   N36  Fn4
 BYTE   W18
 BYTE   PEND 
Label_1_013BA5C0:
 BYTE   W36
 BYTE   N09  Gs3  v100
 BYTE   N09  Bn3
 BYTE   N09  En4
 BYTE   W18
 BYTE   N36  Gn3
 BYTE   N36  As3
 BYTE   N36  Ds4
 BYTE   W18
 BYTE   PEND 
// 002   ----------------------------------------
Label_1_013BA5D1:
 BYTE   W18
 BYTE   N12  Fs3  v100
 BYTE   N12  An3
 BYTE   N12  Dn4
 BYTE   W12
 BYTE   N03  Fs3
 BYTE   N03  An3
 BYTE   N03  Dn4
 BYTE   W06
 BYTE   Fs3
 BYTE   N03  An3
 BYTE   N03  Dn4
 BYTE   W06
 BYTE   Fs3
 BYTE   N03  An3
 BYTE   N03  Dn4
 BYTE   W06
 BYTE   Fs3
 BYTE   N03  An3
 BYTE   N03  Dn4
 BYTE   W06
 BYTE   N09  Fn3
 BYTE   N09  Gs3
 BYTE   N09  Cs4
 BYTE   W18
 BYTE   PEND 
 BYTE   Fn3
 BYTE   N09  Gs3
 BYTE   N09  Cs4
 BYTE   W36
// 003   ----------------------------------------
 BYTE   Cn4
 BYTE   N09  En4
 BYTE   N09  An4
 BYTE   W18
 BYTE   N36  As3
 BYTE   N36  Ds4
 BYTE   N36  Gn4
 BYTE   W18
 BYTE   PATT
  POIN2 Label_1_013BA59C
 BYTE   PATT
  POIN2 Label_1_013BA5C0
 BYTE   PATT
  POIN2 Label_1_013BA5D1
// 004   ----------------------------------------
Label_1_013BA61D:
 BYTE   N09  Fn3  v100
 BYTE   N09  Gs3
 BYTE   N09  Cs4
 BYTE   W36
 BYTE   N04  Fn4
 BYTE   W06
 BYTE   Cn4
 BYTE   W06
 BYTE   Ds4
 BYTE   W06
 BYTE   N30  Dn4
 BYTE   W18
Label_1_013BA62F:
 BYTE   W12
 BYTE   N04  As3  v100
 BYTE   W06
 BYTE   Cn4
 BYTE   W06
// 005   ----------------------------------------
 BYTE   Fn3
 BYTE   W06
 BYTE   Ds3
 BYTE   W06
 BYTE   N54  Dn3
 BYTE   W36
 BYTE   PEND 
Label_1_013BA63E:
 BYTE   W36
 BYTE   N04  Fn4  v100
 BYTE   W06
 BYTE   Cn4
 BYTE   W06
// 006   ----------------------------------------
 BYTE   Ds4
 BYTE   W06
 BYTE   N30  Dn4
 BYTE   W18
 BYTE   PEND 
Label_1_013BA64B:
 BYTE   W12
 BYTE   N04  As3  v100
 BYTE   W06
 BYTE   Cn4
 BYTE   W06
 BYTE   Dn4
 BYTE   W06
 BYTE   Ds4
 BYTE   W06
 BYTE   N24  As4
 BYTE   W30
 BYTE   N04
 BYTE   W06
 BYTE   PEND 
// 007   ----------------------------------------
 BYTE   Gn4
 BYTE   N04  Cn5
 BYTE   W06
 BYTE   Fn4
 BYTE   N04  As4
 BYTE   W06
 BYTE   Dn4
 BYTE   N04  Gs4
 BYTE   W24
 BYTE   Fn4
 BYTE   W06
 BYTE   Cn4
 BYTE   W06
 BYTE   Ds4
 BYTE   W06
 BYTE   N30  Dn4
 BYTE   W18
 BYTE   PATT
  POIN2 Label_1_013BA62F
 BYTE   PATT
  POIN2 Label_1_013BA63E
 BYTE   PATT
  POIN2 Label_1_013BA64B
// 008   ----------------------------------------
 BYTE   N04  Gn4  v100
 BYTE   N04  Cn5
 BYTE   W06
 BYTE   Fn4
 BYTE   N04  As4
 BYTE   W06
 BYTE   Dn4
 BYTE   N04  Gs4
 BYTE   W18
 BYTE   Cn4
 BYTE   W06
 BYTE   Gn4
 BYTE   W06
 BYTE   Fn4
 BYTE   W06
 BYTE   Gn4
 BYTE   W06
 BYTE   N18  Cn4
 BYTE   W18
Label_1_013BA699:
 BYTE   N04  Cn4  v100
 BYTE   W06
 BYTE   As3
 BYTE   W06
 BYTE   Cn4
 BYTE   W06
 BYTE   N18  Ds4
 BYTE   W18
// 009   ----------------------------------------
 BYTE   N04
 BYTE   W06
 BYTE   Cn4
 BYTE   W06
 BYTE   Ds4
 BYTE   W06
 BYTE   N30  Fn4
 BYTE   W18
 BYTE   PEND 
 BYTE   W36
 BYTE   N04  Ds4
 BYTE   W06
 BYTE   Dn4
 BYTE   W06
 BYTE   Ds4
 BYTE   W06
 BYTE   N28  Dn4
 BYTE   W18
// 010   ----------------------------------------
 BYTE   W12
 BYTE   N04  As3
 BYTE   W06
 BYTE   N36  Gn3
 BYTE   W54
 BYTE   W30
// 011   ----------------------------------------
 BYTE   N04  Cn4
 BYTE   W06
 BYTE   Gn4
 BYTE   W06
 BYTE   Fn4
 BYTE   W06
 BYTE   Gn4
 BYTE   W06
 BYTE   N18  Cn4
 BYTE   W18
 BYTE   PATT
  POIN2 Label_1_013BA699
// 012   ----------------------------------------
Label_1_013BA6D2:
 BYTE   W36
 BYTE   N04  Cn4  v100
 BYTE   N04  Dn4
 BYTE   N04  Gn4
 BYTE   W06
 BYTE   Cs4
 BYTE   N04  Ds4
 BYTE   N04  Gs4
 BYTE   W06
 BYTE   Dn4
 BYTE   N04  En4
 BYTE   N04  An4
 BYTE   W06
 BYTE   Ds4
 BYTE   N04  Fn4
 BYTE   N04  As4
 BYTE   W18
 BYTE   PEND 
Label_1_013BA6EE:
 BYTE   N04  Cn4  v100
 BYTE   N04  Dn4
 BYTE   N04  Gn4
 BYTE   W06
 BYTE   Cs4
 BYTE   N04  Ds4
 BYTE   N04  Gs4
 BYTE   W06
 BYTE   Dn4
 BYTE   N04  En4
 BYTE   N04  An4
 BYTE   W06
 BYTE   Ds4
 BYTE   N04  Fn4
 BYTE   N04  As4
 BYTE   W54
 BYTE   PEND 
// 013   ----------------------------------------
Label_1_013BA709:
 BYTE   N04  Cn4  v100
 BYTE   N04  Dn4
 BYTE   N04  Gn4
 BYTE   W06
 BYTE   Cs4
 BYTE   N04  Ds4
 BYTE   N04  Gs4
 BYTE   W06
 BYTE   Dn4
 BYTE   N04  En4
 BYTE   N04  An4
 BYTE   W06
 BYTE   Ds4
 BYTE   N04  Fn4
 BYTE   N04  As4
 BYTE   W18
 BYTE   Cn4
 BYTE   N04  Dn4
 BYTE   N04  Gn4
 BYTE   W06
 BYTE   Cs4
 BYTE   N04  Ds4
 BYTE   N04  Gs4
 BYTE   W06
 BYTE   Dn4
 BYTE   N04  En4
 BYTE   N04  An4
 BYTE   W06
 BYTE   Ds4
 BYTE   N04  Fn4
 BYTE   N04  As4
 BYTE   W18
 BYTE   PEND 
 BYTE   PATT
  POIN2 Label_1_013BA6D2
 BYTE   PATT
  POIN2 Label_1_013BA6EE
 BYTE   PATT
  POIN2 Label_1_013BA709
// 014   ----------------------------------------
 BYTE   W18
 BYTE   N04  Ds4  v100
 BYTE   N04  Fn4
 BYTE   N04  As4
 BYTE   W06
 BYTE   Dn4
 BYTE   N04  En4
 BYTE   N04  An4
 BYTE   W06
 BYTE   As3
 BYTE   N04  Cn4
 BYTE   N04  Fn4
 BYTE   W06
 BYTE   Cs4
 BYTE   N04  Ds4
 BYTE   N04  Gs4
 BYTE   W06
 BYTE   Cn4
 BYTE   N04  Dn4
 BYTE   N04  Gn4
 BYTE   W06
 BYTE   Gs3
 BYTE   N04  As3
 BYTE   N04  Ds4
 BYTE   W06
 BYTE   Bn3
 BYTE   N04  Cs4
 BYTE   N04  Fs4
 BYTE   W06
 BYTE   As3
 BYTE   N04  Cn4
 BYTE   N04  Fn4
 BYTE   W06
 BYTE   Fs3
 BYTE   N04  Gs3
 BYTE   N04  Cs4
 BYTE   W06
 BYTE   An3
 BYTE   N04  Bn3
 BYTE   N04  En4
 BYTE   W06
 BYTE   Gs3
 BYTE   N04  As3
 BYTE   N04  Ds4
 BYTE   W06
 BYTE   En3
 BYTE   N04  Fs3
 BYTE   N04  Bn3
 BYTE   W24
// 015   ----------------------------------------
 BYTE   Dn4
 BYTE   W06
 BYTE   An3
 BYTE   W06
 BYTE   Cn4
 BYTE   W06
 BYTE   N30  Bn3
 BYTE   W18
Label_1_013BA79F:
 BYTE   W12
 BYTE   N04  Gn3  v100
 BYTE   W06
 BYTE   An3
 BYTE   W06
 BYTE   Dn3
 BYTE   W06
 BYTE   Cn3
 BYTE   W06
 BYTE   N54  Bn2
 BYTE   W36
 BYTE   PEND 
// 016   ----------------------------------------
Label_1_013BA7AE:
 BYTE   W36
 BYTE   N04  Dn4  v100
 BYTE   W06
 BYTE   An3
 BYTE   W06
 BYTE   Cn4
 BYTE   W06
 BYTE   N30  Bn3
 BYTE   W18
 BYTE   PEND 
Label_1_013BA7BB:
 BYTE   W12
 BYTE   N04  Gn3  v100
 BYTE   W06
 BYTE   An3
 BYTE   W06
// 017   ----------------------------------------
 BYTE   Bn3
 BYTE   W06
 BYTE   Cn4
 BYTE   W06
 BYTE   N24  Gn4
 BYTE   W30
 BYTE   N04
 BYTE   W06
 BYTE   PEND 
 BYTE   En4
 BYTE   N04  An4
 BYTE   W06
 BYTE   Dn4
 BYTE   N04  Gn4
 BYTE   W06
 BYTE   Bn3
 BYTE   N04  Fn4
 BYTE   W24
 BYTE   Dn4
 BYTE   W06
 BYTE   An3
 BYTE   W06
// 018   ----------------------------------------
 BYTE   Cn4
 BYTE   W06
 BYTE   N30  Bn3
 BYTE   W18
 BYTE   PATT
  POIN2 Label_1_013BA79F
 BYTE   PATT
  POIN2 Label_1_013BA7AE
 BYTE   PATT
  POIN2 Label_1_013BA7BB
// 019   ----------------------------------------
 BYTE   N04  En4  v100
 BYTE   N04  An4
 BYTE   W06
 BYTE   Dn4
 BYTE   N04  Gn4
 BYTE   W06
 BYTE   Bn3
 BYTE   N04  Fn4
 BYTE   W18
 BYTE   An3
 BYTE   W06
 BYTE   En4
 BYTE   W06
 BYTE   Dn4
 BYTE   W06
 BYTE   En4
 BYTE   W06
 BYTE   N18  An3
 BYTE   W18
Label_1_013BA809:
 BYTE   N04  An3  v100
 BYTE   W06
 BYTE   Gn3
 BYTE   W06
 BYTE   An3
 BYTE   W06
 BYTE   N18  Cn4
 BYTE   W18
// 020   ----------------------------------------
 BYTE   N04
 BYTE   W06
 BYTE   An3
 BYTE   W06
 BYTE   Cn4
 BYTE   W06
 BYTE   N30  Dn4
 BYTE   W18
 BYTE   PEND 
 BYTE   W36
 BYTE   N04  Cn4
 BYTE   W06
 BYTE   Bn3
 BYTE   W06
 BYTE   Cn4
 BYTE   W06
 BYTE   N28  Bn3
 BYTE   W18
// 021   ----------------------------------------
 BYTE   W12
 BYTE   N04  Gn3
 BYTE   W06
 BYTE   N36  En3
 BYTE   W54
 BYTE   W30
// 022   ----------------------------------------
 BYTE   N04  An3
 BYTE   W06
 BYTE   En4
 BYTE   W06
 BYTE   Dn4
 BYTE   W06
 BYTE   En4
 BYTE   W06
 BYTE   N18  An3
 BYTE   W18
 BYTE   PATT
  POIN2 Label_1_013BA809
// 023   ----------------------------------------
 BYTE   W18
 BYTE   N04  An3  v100
 BYTE   N04  Bn3
 BYTE   N04  En4
 BYTE   W06
 BYTE   As3
 BYTE   N04  Cn4
 BYTE   N04  Fn4
 BYTE   W06
 BYTE   Cn4
 BYTE   N04  Dn4
 BYTE   N04  Gn4
 BYTE   W06
 BYTE   Dn4
 BYTE   N04  En4
 BYTE   N04  An4
 BYTE   W06
 BYTE   Cn4
 BYTE   N04  Dn4
 BYTE   N04  Gn4
 BYTE   W06
 BYTE   As3
 BYTE   N04  Cn4
 BYTE   N04  Fn4
 BYTE   W06
 BYTE   An3
 BYTE   N04  Bn3
 BYTE   N04  En4
 BYTE   W18
 BYTE   Gn3
 BYTE   N04  An3
 BYTE   N04  Dn4
 BYTE   W06
 BYTE   Gs3
 BYTE   N04  As3
 BYTE   N04  Ds4
 BYTE   W06
 BYTE   As3
 BYTE   N04  Cn4
 BYTE   N04  Fn4
 BYTE   W06
 BYTE   Cn4
 BYTE   N04  Dn4
 BYTE   N04  Gn4
 BYTE   W06
// 024   ----------------------------------------
 BYTE   As3
 BYTE   N04  Cn4
 BYTE   N04  Fn4
 BYTE   W06
 BYTE   Gs3
 BYTE   N04  As3
 BYTE   N04  Ds4
 BYTE   W06
 BYTE   Gn3
 BYTE   N04  An3
 BYTE   N04  Dn4
 BYTE   W24
 BYTE   Gn3
 BYTE   N04  An3
 BYTE   N04  Dn4
 BYTE   W12
Label_1_013BA89F:
 BYTE   N04  Gn3  v100
 BYTE   N04  An3
 BYTE   N04  Dn4
 BYTE   W24
 BYTE   Fn3
 BYTE   N04  Gn3
 BYTE   N04  Cn4
 BYTE   W06
 BYTE   Gn3
 BYTE   N04  An3
 BYTE   N04  Dn4
 BYTE   W06
 BYTE   Gn3
 BYTE   N04  An3
 BYTE   N04  Dn4
 BYTE   W06
 BYTE   Gn3
 BYTE   N04  An3
 BYTE   N04  Dn4
 BYTE   W06
// 025   ----------------------------------------
 BYTE   Gn3
 BYTE   N04  An3
 BYTE   N04  Dn4
 BYTE   W12
 BYTE   Gn3
 BYTE   N04  An3
 BYTE   N04  Dn4
 BYTE   W12
 BYTE   PEND 
 BYTE   PATT
  POIN2 Label_1_013BA89F
 BYTE   PATT
  POIN2 Label_1_013BA89F
// 026   ----------------------------------------
 BYTE   N04  Gn3  v100
 BYTE   N04  An3
 BYTE   N04  Dn4
 BYTE   W24
 BYTE   Fn3
 BYTE   N04  Gn3
 BYTE   N04  Cn4
 BYTE   W06
 BYTE   Gn3
 BYTE   N04  An3
 BYTE   N04  Dn4
 BYTE   W06
 BYTE   Gn3
 BYTE   N04  An3
 BYTE   N04  Dn4
 BYTE   W06
 BYTE   Gn3
 BYTE   N04  An3
 BYTE   N04  Dn4
 BYTE   W06
 BYTE   GoTo
  POIN2 Label_1_013BA61D
// 027   ----------------------------------------
 BYTE   N04  Gn3  v100
 BYTE   N04  An3
 BYTE   N04  Dn4
 BYTE   W06
 BYTE   FINE

//**************** Track 3 (Midi-Chn.2) ****************//

ChronoTriggerBoss2RandomWizard_003:
// 000   ----------------------------------------
 BYTE   KEYSH   ChronoTriggerBoss2RandomWizard_key+0
 BYTE   VOICE   2
 BYTE   VOL   50*ChronoTriggerBoss2RandomWizard_mvl/mxv
 BYTE   PAN   c_v+0
 BYTE   W18
 BYTE   N36  An0  v100
 BYTE   W36
 BYTE   Cn1
 BYTE   W18
Label_2_013BA913:
 BYTE   W18
 BYTE   N36  Ds1  v100
 BYTE   W36
// 001   ----------------------------------------
 BYTE   Dn1
 BYTE   W18
 BYTE   PEND 
Label_2_013BA91B:
 BYTE   W18
 BYTE   N36  Cs1  v100
 BYTE   W36
 BYTE   Cn1
 BYTE   W18
 BYTE   PEND 
Label_2_013BA923:
 BYTE   W18
// 002   ----------------------------------------
 BYTE   N36  Bn0  v100
 BYTE   W36
 BYTE   As0
 BYTE   W18
 BYTE   PEND 
 BYTE   W18
 BYTE   An0
 BYTE   W36
// 003   ----------------------------------------
 BYTE   Cn1
 BYTE   W18
 BYTE   PATT
  POIN2 Label_2_013BA913
 BYTE   PATT
  POIN2 Label_2_013BA91B
 BYTE   PATT
  POIN2 Label_2_013BA923
// 004   ----------------------------------------
Label_2_013BA93F:
 BYTE   W18
 BYTE   N06  An0  v100
 BYTE   W06
 BYTE   An0  v052
 BYTE   W06
 BYTE   An0  v080
 BYTE   W06
 BYTE   An0  v100
 BYTE   W06
 BYTE   An0  v052
 BYTE   W06
 BYTE   An0  v080
 BYTE   W06
 BYTE   An0  v100
 BYTE   W06
 BYTE   An0  v052
 BYTE   W06
 BYTE   An0  v080
 BYTE   W06
Label_2_013BA95C:
 BYTE   N06  An0  v100
 BYTE   W06
 BYTE   An0  v052
 BYTE   W06
 BYTE   An0  v080
 BYTE   W06
 BYTE   An0  v100
 BYTE   W06
// 005   ----------------------------------------
 BYTE   An0  v052
 BYTE   W06
 BYTE   An0  v080
 BYTE   W06
 BYTE   An0  v100
 BYTE   W06
 BYTE   An0  v052
 BYTE   W06
 BYTE   An0  v080
 BYTE   W06
 BYTE   An0  v100
 BYTE   W06
 BYTE   An0  v052
 BYTE   W06
 BYTE   An0  v080
 BYTE   W06
 BYTE   PEND 
 BYTE   PATT
  POIN2 Label_2_013BA95C
// 006   ----------------------------------------
Label_2_013BA987:
 BYTE   N06  An0  v100
 BYTE   W06
 BYTE   An0  v052
 BYTE   W06
 BYTE   An0  v080
 BYTE   W06
 BYTE   As0  v100
 BYTE   W06
 BYTE   As0  v052
 BYTE   W06
 BYTE   As0  v080
 BYTE   W06
 BYTE   As0  v100
 BYTE   W06
 BYTE   As0  v052
 BYTE   W06
 BYTE   As0  v080
 BYTE   W06
 BYTE   As0  v100
 BYTE   W06
 BYTE   As0  v052
 BYTE   W06
 BYTE   As0  v080
 BYTE   W06
 BYTE   PEND 
Label_2_013BA9AD:
 BYTE   N06  As0  v100
 BYTE   W06
 BYTE   As0  v052
 BYTE   W06
 BYTE   As0  v080
 BYTE   W06
 BYTE   An0  v100
 BYTE   W06
// 007   ----------------------------------------
 BYTE   An0  v052
 BYTE   W06
 BYTE   An0  v080
 BYTE   W06
 BYTE   An0  v100
 BYTE   W06
 BYTE   An0  v052
 BYTE   W06
 BYTE   An0  v080
 BYTE   W06
 BYTE   An0  v100
 BYTE   W06
 BYTE   An0  v052
 BYTE   W06
 BYTE   An0  v080
 BYTE   W06
 BYTE   PEND 
 BYTE   PATT
  POIN2 Label_2_013BA95C
 BYTE   PATT
  POIN2 Label_2_013BA95C
 BYTE   PATT
  POIN2 Label_2_013BA987
// 008   ----------------------------------------
 BYTE   N06  As0  v100
 BYTE   W06
 BYTE   As0  v052
 BYTE   W06
 BYTE   As0  v080
 BYTE   W06
 BYTE   Cs1  v100
 BYTE   W06
 BYTE   Cs1  v052
 BYTE   W06
 BYTE   Cs1  v080
 BYTE   W06
 BYTE   Cs1  v100
 BYTE   W06
 BYTE   Cs1  v052
 BYTE   W06
 BYTE   Cs1  v080
 BYTE   W06
 BYTE   Cs1  v100
 BYTE   W06
 BYTE   Cs1  v052
 BYTE   W06
 BYTE   Cs1  v080
 BYTE   W06
Label_2_013BAA07:
 BYTE   N06  Cs1  v100
 BYTE   W06
 BYTE   Cs1  v052
 BYTE   W06
 BYTE   Cs1  v080
 BYTE   W06
 BYTE   Cs1  v100
 BYTE   W06
// 009   ----------------------------------------
 BYTE   Cs1  v052
 BYTE   W06
 BYTE   Cs1  v080
 BYTE   W06
 BYTE   Cs1  v100
 BYTE   W06
 BYTE   Cs1  v052
 BYTE   W06
 BYTE   Cs1  v080
 BYTE   W06
 BYTE   Cs1  v100
 BYTE   W06
 BYTE   Cs1  v052
 BYTE   W06
 BYTE   Cs1  v080
 BYTE   W06
 BYTE   PEND 
 BYTE   Cs1  v100
 BYTE   W06
 BYTE   Cs1  v052
 BYTE   W06
 BYTE   Cs1  v080
 BYTE   W06
 BYTE   Cn1  v100
 BYTE   W06
 BYTE   Cn1  v052
 BYTE   W06
 BYTE   Cn1  v080
 BYTE   W06
 BYTE   Cn1  v100
 BYTE   W06
 BYTE   Cn1  v052
 BYTE   W06
// 010   ----------------------------------------
 BYTE   Cn1  v080
 BYTE   W06
 BYTE   Cn1  v100
 BYTE   W06
 BYTE   Cn1  v052
 BYTE   W06
 BYTE   Cn1  v080
 BYTE   W06
 BYTE   Cn1  v100
 BYTE   W06
 BYTE   Cn1  v052
 BYTE   W06
 BYTE   Cn1  v080
 BYTE   W06
 BYTE   Cn1  v100
 BYTE   W06
 BYTE   Cn1  v052
 BYTE   W06
 BYTE   Cn1  v080
 BYTE   W06
 BYTE   Cn1  v100
 BYTE   W06
 BYTE   Cn1  v052
 BYTE   W06
 BYTE   Cn1  v080
 BYTE   W06
 BYTE   Cn1  v100
 BYTE   W06
 BYTE   Cn1  v052
 BYTE   W06
 BYTE   Cn1  v080
 BYTE   W06
// 011   ----------------------------------------
 BYTE   Cn1  v100
 BYTE   W06
 BYTE   Cn1  v052
 BYTE   W06
 BYTE   Cn1  v080
 BYTE   W06
 BYTE   Cs1  v100
 BYTE   W06
 BYTE   Cs1  v052
 BYTE   W06
 BYTE   Cs1  v080
 BYTE   W06
 BYTE   Cs1  v100
 BYTE   W06
 BYTE   Cs1  v052
 BYTE   W06
 BYTE   Cs1  v080
 BYTE   W06
 BYTE   Cs1  v100
 BYTE   W06
 BYTE   Cs1  v052
 BYTE   W06
 BYTE   Cs1  v080
 BYTE   W06
 BYTE   PATT
  POIN2 Label_2_013BAA07
// 012   ----------------------------------------
 BYTE   N06  Cs1  v100
 BYTE   W06
 BYTE   Cs1  v052
 BYTE   W06
 BYTE   Cs1  v080
 BYTE   W06
 BYTE   N12  Gn0  v100
 BYTE   W18
 BYTE   N06
 BYTE   W06
 BYTE   Gs0
 BYTE   W06
 BYTE   An0
 BYTE   W06
 BYTE   As0
 BYTE   W18
Label_2_013BAAB4:
 BYTE   N06  Gn0  v100
 BYTE   W06
 BYTE   Gs0
 BYTE   W06
 BYTE   An0
 BYTE   W06
 BYTE   As0
 BYTE   W06
// 013   ----------------------------------------
 BYTE   An0
 BYTE   W06
 BYTE   Gs0
 BYTE   W06
 BYTE   Gn0
 BYTE   W18
 BYTE   N12
 BYTE   W18
 BYTE   PEND 
Label_2_013BAAC7:
 BYTE   N06  Gn0  v100
 BYTE   W06
 BYTE   Gs0
 BYTE   W06
 BYTE   An0
 BYTE   W06
 BYTE   As0
 BYTE   W18
 BYTE   Gn0
 BYTE   W06
 BYTE   Gs0
 BYTE   W06
// 014   ----------------------------------------
 BYTE   An0
 BYTE   W06
 BYTE   As0
 BYTE   W06
 BYTE   An0
 BYTE   W06
 BYTE   Gs0
 BYTE   W06
 BYTE   PEND 
 BYTE   Gn0
 BYTE   W18
 BYTE   N12
 BYTE   W18
 BYTE   N06
 BYTE   W06
 BYTE   Gs0
 BYTE   W06
 BYTE   An0
 BYTE   W06
 BYTE   As0
 BYTE   W18
 BYTE   PATT
  POIN2 Label_2_013BAAB4
 BYTE   PATT
  POIN2 Label_2_013BAAC7
// 015   ----------------------------------------
 BYTE   N06  Gn0  v100
 BYTE   W18
 BYTE   N18  Ds1
 BYTE   W18
 BYTE   Cs1
 BYTE   W18
 BYTE   Cn1
 BYTE   W18
 BYTE   As0
 BYTE   W18
 BYTE   N06  En1
 BYTE   W06
// 016   ----------------------------------------
 BYTE   En1  v052
 BYTE   W06
 BYTE   En1  v080
 BYTE   W06
 BYTE   En1  v100
 BYTE   W06
 BYTE   En1  v052
 BYTE   W06
 BYTE   En1  v080
 BYTE   W06
 BYTE   En1  v100
 BYTE   W06
 BYTE   En1  v052
 BYTE   W06
 BYTE   En1  v080
 BYTE   W06
Label_2_013BAB1C:
 BYTE   N06  En1  v100
 BYTE   W06
 BYTE   En1  v052
 BYTE   W06
 BYTE   En1  v080
 BYTE   W06
 BYTE   En1  v100
 BYTE   W06
 BYTE   En1  v052
 BYTE   W06
 BYTE   En1  v080
 BYTE   W06
 BYTE   En1  v100
 BYTE   W06
 BYTE   En1  v052
 BYTE   W06
// 017   ----------------------------------------
 BYTE   En1  v080
 BYTE   W06
 BYTE   En1  v100
 BYTE   W06
 BYTE   En1  v052
 BYTE   W06
 BYTE   En1  v080
 BYTE   W06
 BYTE   PEND 
 BYTE   PATT
  POIN2 Label_2_013BAB1C
// 018   ----------------------------------------
Label_2_013BAB47:
 BYTE   N06  En1  v100
 BYTE   W06
 BYTE   En1  v052
 BYTE   W06
 BYTE   En1  v080
 BYTE   W06
 BYTE   Fn1  v100
 BYTE   W06
 BYTE   Fn1  v052
 BYTE   W06
 BYTE   Fn1  v080
 BYTE   W06
 BYTE   Fn1  v100
 BYTE   W06
 BYTE   Fn1  v052
 BYTE   W06
 BYTE   Fn1  v080
 BYTE   W06
 BYTE   Fn1  v100
 BYTE   W06
 BYTE   Fn1  v052
 BYTE   W06
 BYTE   Fn1  v080
 BYTE   W06
 BYTE   PEND 
 BYTE   Fn1  v100
 BYTE   W06
 BYTE   Fn1  v052
 BYTE   W06
 BYTE   Fn1  v080
 BYTE   W06
 BYTE   En1  v100
 BYTE   W06
// 019   ----------------------------------------
 BYTE   En1  v052
 BYTE   W06
 BYTE   En1  v080
 BYTE   W06
 BYTE   En1  v100
 BYTE   W06
 BYTE   En1  v052
 BYTE   W06
 BYTE   En1  v080
 BYTE   W06
 BYTE   En1  v100
 BYTE   W06
 BYTE   En1  v052
 BYTE   W06
 BYTE   En1  v080
 BYTE   W06
 BYTE   PATT
  POIN2 Label_2_013BAB1C
 BYTE   PATT
  POIN2 Label_2_013BAB1C
 BYTE   PATT
  POIN2 Label_2_013BAB47
// 020   ----------------------------------------
 BYTE   N06  Fn1  v100
 BYTE   W06
 BYTE   Fn1  v052
 BYTE   W06
 BYTE   Fn1  v080
 BYTE   W06
 BYTE   As0  v100
 BYTE   W06
 BYTE   As0  v052
 BYTE   W06
 BYTE   As0  v080
 BYTE   W06
 BYTE   As0  v100
 BYTE   W06
 BYTE   As0  v052
 BYTE   W06
 BYTE   As0  v080
 BYTE   W06
 BYTE   As0  v100
 BYTE   W06
 BYTE   As0  v052
 BYTE   W06
 BYTE   As0  v080
 BYTE   W06
Label_2_013BABC5:
 BYTE   N06  As0  v100
 BYTE   W06
 BYTE   As0  v052
 BYTE   W06
 BYTE   As0  v080
 BYTE   W06
 BYTE   As0  v100
 BYTE   W06
// 021   ----------------------------------------
 BYTE   As0  v052
 BYTE   W06
 BYTE   As0  v080
 BYTE   W06
 BYTE   As0  v100
 BYTE   W06
 BYTE   As0  v052
 BYTE   W06
 BYTE   As0  v080
 BYTE   W06
 BYTE   As0  v100
 BYTE   W06
 BYTE   As0  v052
 BYTE   W06
 BYTE   As0  v080
 BYTE   W06
 BYTE   PEND 
 BYTE   PATT
  POIN2 Label_2_013BA9AD
 BYTE   PATT
  POIN2 Label_2_013BA95C
 BYTE   PATT
  POIN2 Label_2_013BA987
 BYTE   PATT
  POIN2 Label_2_013BABC5
// 022   ----------------------------------------
 BYTE   N06  As0  v100
 BYTE   W06
 BYTE   As0  v052
 BYTE   W06
 BYTE   As0  v080
 BYTE   W06
 BYTE   An0  v100
 BYTE   W06
 BYTE   An0  v052
 BYTE   W06
 BYTE   An0  v080
 BYTE   W06
 BYTE   An0  v100
 BYTE   W06
 BYTE   An0  v052
 BYTE   W06
 BYTE   An0  v080
 BYTE   W06
 BYTE   An0  v100
 BYTE   W06
 BYTE   Ds1
 BYTE   W06
 BYTE   An0
 BYTE   W06
 BYTE   Ds1
 BYTE   W06
 BYTE   Ds1  v052
 BYTE   W06
 BYTE   Ds1  v080
 BYTE   W06
 BYTE   Ds1  v100
 BYTE   W06
// 023   ----------------------------------------
 BYTE   Ds1  v052
 BYTE   W06
 BYTE   Ds1  v080
 BYTE   W06
 BYTE   Ds1  v100
 BYTE   W06
 BYTE   As1
 BYTE   W06
 BYTE   Ds1  v080
 BYTE   W06
 BYTE   Dn1  v100
 BYTE   W06
 BYTE   Dn1  v052
 BYTE   W06
 BYTE   Dn1  v080
 BYTE   W06
Label_2_013BAC44:
 BYTE   N06  Dn1  v100
 BYTE   W06
 BYTE   Dn1  v052
 BYTE   W06
 BYTE   Dn1  v080
 BYTE   W06
 BYTE   Dn1  v100
 BYTE   W06
 BYTE   Dn1  v052
 BYTE   W06
 BYTE   Dn1  v080
 BYTE   W06
 BYTE   Dn1  v100
 BYTE   W06
 BYTE   Dn1  v052
 BYTE   W06
// 024   ----------------------------------------
 BYTE   Dn1  v080
 BYTE   W06
 BYTE   Dn1  v100
 BYTE   W06
 BYTE   Dn1  v052
 BYTE   W06
 BYTE   Dn1  v080
 BYTE   W06
 BYTE   PEND 
 BYTE   PATT
  POIN2 Label_2_013BAC44
 BYTE   PATT
  POIN2 Label_2_013BAC44
// 025   ----------------------------------------
 BYTE   N06  Dn1  v100
 BYTE   W06
 BYTE   Dn1  v052
 BYTE   W06
 BYTE   Dn1  v080
 BYTE   W06
 BYTE   Dn1  v100
 BYTE   W06
 BYTE   Dn1  v052
 BYTE   W06
 BYTE   Dn1  v080
 BYTE   W06
 BYTE   Dn1  v100
 BYTE   W06
 BYTE   Dn1  v052
 BYTE   W06
 BYTE   GoTo
  POIN2 Label_2_013BA93F
// 026   ----------------------------------------
 BYTE   N06  Dn1  v080
 BYTE   W06
 BYTE   FINE

//**************** Track 4 (Midi-Chn.3) ****************//

ChronoTriggerBoss2RandomWizard_004:
// 000   ----------------------------------------
 BYTE   KEYSH   ChronoTriggerBoss2RandomWizard_key+0
 BYTE   VOICE   73
 BYTE   VOL   42*ChronoTriggerBoss2RandomWizard_mvl/mxv
 BYTE   PAN   c_v+0
 BYTE   W36
 BYTE   N18  An3  v100
 BYTE   W18
 BYTE   N36  Gn3
 BYTE   W18
Label_3_013BACA8:
 BYTE   W18
 BYTE   N36  Fs3  v100
 BYTE   W36
// 001   ----------------------------------------
 BYTE   Fn3
 BYTE   W18
 BYTE   PEND 
Label_3_013BACB0:
 BYTE   W36
 BYTE   N18  En3  v100
 BYTE   W18
 BYTE   N36  Ds3
 BYTE   W18
 BYTE   PEND 
Label_3_013BACB9:
 BYTE   W18
// 002   ----------------------------------------
 BYTE   N36  Dn3  v100
 BYTE   W36
 BYTE   Cs3
 BYTE   W18
 BYTE   PEND 
 BYTE   W36
 BYTE   N18  An3
 BYTE   W18
// 003   ----------------------------------------
 BYTE   N36  Gn3
 BYTE   W18
 BYTE   PATT
  POIN2 Label_3_013BACA8
 BYTE   PATT
  POIN2 Label_3_013BACB0
 BYTE   PATT
  POIN2 Label_3_013BACB9
// 004   ----------------------------------------
Label_3_013BACD7:
 BYTE   W18
 BYTE   N06  Cn5  v080
 BYTE   W06
 BYTE   As4
 BYTE   W06
 BYTE   Cn5
 BYTE   W06
 BYTE   As4
 BYTE   W06
 BYTE   An4
 BYTE   W06
 BYTE   As4
 BYTE   W06
 BYTE   An4
 BYTE   W06
 BYTE   Gn4
 BYTE   W06
 BYTE   Fn4
 BYTE   W06
Label_3_013BACEC:
 BYTE   N06  Gn4  v080
 BYTE   W06
 BYTE   Fn4
 BYTE   W06
 BYTE   Gn4
 BYTE   W06
 BYTE   Cn5
 BYTE   W06
// 005   ----------------------------------------
 BYTE   As4
 BYTE   W06
 BYTE   Cn5
 BYTE   W06
 BYTE   As4
 BYTE   W06
 BYTE   An4
 BYTE   W06
 BYTE   As4
 BYTE   W06
 BYTE   An4
 BYTE   W06
 BYTE   Gn4
 BYTE   W06
 BYTE   Fn4
 BYTE   W06
 BYTE   PEND 
Label_3_013BAD07:
 BYTE   N06  Gn4  v080
 BYTE   W06
 BYTE   Fn4
 BYTE   W06
 BYTE   Dn4
 BYTE   W06
 BYTE   Cn5
 BYTE   W06
 BYTE   As4
 BYTE   W06
 BYTE   Cn5
 BYTE   W06
 BYTE   As4
 BYTE   W06
 BYTE   An4
 BYTE   W06
// 006   ----------------------------------------
 BYTE   As4
 BYTE   W06
 BYTE   An4
 BYTE   W06
 BYTE   Gn4
 BYTE   W06
 BYTE   Fn4
 BYTE   W06
 BYTE   PEND 
Label_3_013BAD22:
 BYTE   N06  Gn4  v080
 BYTE   W06
 BYTE   Fn4
 BYTE   W06
 BYTE   Gn4
 BYTE   W06
 BYTE   Cn5
 BYTE   W06
 BYTE   As4
 BYTE   W06
 BYTE   Cn5
 BYTE   W06
 BYTE   As4
 BYTE   W06
 BYTE   Gs4
 BYTE   W06
 BYTE   Gn4
 BYTE   W06
 BYTE   Gs4
 BYTE   W06
 BYTE   Gn4
 BYTE   W06
 BYTE   Fn4
 BYTE   W06
 BYTE   PEND 
// 007   ----------------------------------------
 BYTE   Gn4
 BYTE   W06
 BYTE   Fn4
 BYTE   W06
 BYTE   Ds4
 BYTE   W06
 BYTE   Cn5
 BYTE   W06
 BYTE   As4
 BYTE   W06
 BYTE   Cn5
 BYTE   W06
 BYTE   As4
 BYTE   W06
 BYTE   An4
 BYTE   W06
 BYTE   As4
 BYTE   W06
 BYTE   An4
 BYTE   W06
 BYTE   Gn4
 BYTE   W06
 BYTE   Fn4
 BYTE   W06
 BYTE   PATT
  POIN2 Label_3_013BACEC
 BYTE   PATT
  POIN2 Label_3_013BAD07
 BYTE   PATT
  POIN2 Label_3_013BAD22
// 008   ----------------------------------------
 BYTE   N06  Gn4  v080
 BYTE   W06
 BYTE   Fn4
 BYTE   W06
 BYTE   Ds4
 BYTE   W06
 BYTE   As4
 BYTE   W06
 BYTE   Gs4
 BYTE   W06
 BYTE   As4
 BYTE   W06
 BYTE   Gs4
 BYTE   W06
 BYTE   Gn4
 BYTE   W06
 BYTE   Gs4
 BYTE   W06
 BYTE   Gn4
 BYTE   W06
 BYTE   Fn4
 BYTE   W06
 BYTE   Ds4
 BYTE   W06
Label_3_013BAD7E:
 BYTE   N06  Fn4  v080
 BYTE   W06
 BYTE   Ds4
 BYTE   W06
 BYTE   Fn4
 BYTE   W06
 BYTE   As4
 BYTE   W06
// 009   ----------------------------------------
 BYTE   Gs4
 BYTE   W06
 BYTE   As4
 BYTE   W06
 BYTE   Gs4
 BYTE   W06
 BYTE   Gn4
 BYTE   W06
 BYTE   Gs4
 BYTE   W06
 BYTE   Gn4
 BYTE   W06
 BYTE   Fn4
 BYTE   W06
 BYTE   Ds4
 BYTE   W06
 BYTE   PEND 
 BYTE   Fn4
 BYTE   W06
 BYTE   Ds4
 BYTE   W06
 BYTE   Cn4
 BYTE   W06
 BYTE   Gs4  v100
 BYTE   W06
 BYTE   Gn4
 BYTE   W06
 BYTE   Fn4
 BYTE   W06
 BYTE   Gn4
 BYTE   W06
 BYTE   Fn4
 BYTE   W06
// 010   ----------------------------------------
 BYTE   Ds4
 BYTE   W06
 BYTE   Fn4
 BYTE   W06
 BYTE   Ds4
 BYTE   W06
 BYTE   Dn4
 BYTE   W06
 BYTE   Ds4
 BYTE   W06
 BYTE   Dn4
 BYTE   W06
 BYTE   Cn4
 BYTE   W06
 BYTE   Gs4
 BYTE   W06
 BYTE   Gn4
 BYTE   W06
 BYTE   Fn4
 BYTE   W06
 BYTE   Gn4
 BYTE   W06
 BYTE   Fn4
 BYTE   W06
 BYTE   Ds4
 BYTE   W06
 BYTE   Fn4
 BYTE   W06
 BYTE   Ds4
 BYTE   W06
 BYTE   Dn4
 BYTE   W06
// 011   ----------------------------------------
 BYTE   Ds4
 BYTE   W06
 BYTE   Dn4
 BYTE   W06
 BYTE   Cn4
 BYTE   W06
 BYTE   As4  v080
 BYTE   W06
 BYTE   Gs4
 BYTE   W06
 BYTE   As4
 BYTE   W06
 BYTE   Gs4
 BYTE   W06
 BYTE   Gn4
 BYTE   W06
 BYTE   Gs4
 BYTE   W06
 BYTE   Gn4
 BYTE   W06
 BYTE   Fn4
 BYTE   W06
 BYTE   Ds4
 BYTE   W06
 BYTE   PATT
  POIN2 Label_3_013BAD7E
// 012   ----------------------------------------
 BYTE   N06  Fn4  v080
 BYTE   W06
 BYTE   Ds4
 BYTE   W06
 BYTE   Cn4
 BYTE   W24
 BYTE   Gn3  v100
 BYTE   W06
 BYTE   Gs3
 BYTE   W06
 BYTE   An3
 BYTE   W06
 BYTE   As3
 BYTE   W18
Label_3_013BADF9:
 BYTE   N06  Gn3  v100
 BYTE   W06
 BYTE   Gs3
 BYTE   W06
 BYTE   An3
 BYTE   W06
 BYTE   As3
 BYTE   W06
// 013   ----------------------------------------
 BYTE   An3
 BYTE   W06
 BYTE   Gs3
 BYTE   W06
 BYTE   Gn3
 BYTE   W36
 BYTE   PEND 
Label_3_013BAE0A:
 BYTE   N06  Gn3  v100
 BYTE   W06
 BYTE   Gs3
 BYTE   W06
 BYTE   An3
 BYTE   W06
 BYTE   As3
 BYTE   W18
 BYTE   Gn3
 BYTE   W06
 BYTE   Gs3
 BYTE   W06
// 014   ----------------------------------------
 BYTE   An3
 BYTE   W06
 BYTE   As3
 BYTE   W06
 BYTE   An3
 BYTE   W06
 BYTE   Gs3
 BYTE   W06
 BYTE   PEND 
 BYTE   Gn3
 BYTE   W36
 BYTE   N06
 BYTE   W06
 BYTE   Gs3
 BYTE   W06
 BYTE   An3
 BYTE   W06
 BYTE   As3
 BYTE   W18
 BYTE   PATT
  POIN2 Label_3_013BADF9
 BYTE   PATT
  POIN2 Label_3_013BAE0A
// 015   ----------------------------------------
 BYTE   N06  Gn3  v100
 BYTE   W18
 BYTE   As3
 BYTE   W06
 BYTE   An3
 BYTE   W06
 BYTE   Fn3
 BYTE   W06
 BYTE   Gs3
 BYTE   W06
 BYTE   Gn3
 BYTE   W06
 BYTE   Ds3
 BYTE   W06
 BYTE   Fs3
 BYTE   W06
 BYTE   Fn3
 BYTE   W06
 BYTE   Cs3
 BYTE   W06
 BYTE   En3
 BYTE   W06
 BYTE   Ds3
 BYTE   W06
 BYTE   Bn2
 BYTE   W06
 BYTE   An4  v080
 BYTE   W06
// 016   ----------------------------------------
 BYTE   Gn4
 BYTE   W06
 BYTE   An4
 BYTE   W06
 BYTE   Gn4
 BYTE   W06
 BYTE   Fs4
 BYTE   W06
 BYTE   Gn4
 BYTE   W06
 BYTE   Fs4
 BYTE   W06
 BYTE   En4
 BYTE   W06
 BYTE   Dn4
 BYTE   W06
Label_3_013BAE64:
 BYTE   N06  En4  v080
 BYTE   W06
 BYTE   Dn4
 BYTE   W06
 BYTE   En4
 BYTE   W06
 BYTE   An4
 BYTE   W06
 BYTE   Gn4
 BYTE   W06
 BYTE   An4
 BYTE   W06
 BYTE   Gn4
 BYTE   W06
 BYTE   Fs4
 BYTE   W06
// 017   ----------------------------------------
 BYTE   Gn4
 BYTE   W06
 BYTE   Fs4
 BYTE   W06
 BYTE   En4
 BYTE   W06
 BYTE   Dn4
 BYTE   W06
 BYTE   PEND 
Label_3_013BAE7F:
 BYTE   N06  En4  v080
 BYTE   W06
 BYTE   Dn4
 BYTE   W06
 BYTE   Bn3
 BYTE   W06
 BYTE   An4
 BYTE   W06
 BYTE   Gn4
 BYTE   W06
 BYTE   An4
 BYTE   W06
 BYTE   Gn4
 BYTE   W06
 BYTE   Fs4
 BYTE   W06
 BYTE   Gn4
 BYTE   W06
 BYTE   Fs4
 BYTE   W06
 BYTE   En4
 BYTE   W06
 BYTE   Dn4
 BYTE   W06
 BYTE   PEND 
// 018   ----------------------------------------
Label_3_013BAE9A:
 BYTE   N06  En4  v080
 BYTE   W06
 BYTE   Dn4
 BYTE   W06
 BYTE   En4
 BYTE   W06
 BYTE   An4
 BYTE   W06
 BYTE   Gn4
 BYTE   W06
 BYTE   An4
 BYTE   W06
 BYTE   Gn4
 BYTE   W06
 BYTE   Fn4
 BYTE   W06
 BYTE   En4
 BYTE   W06
 BYTE   Fn4
 BYTE   W06
 BYTE   En4
 BYTE   W06
 BYTE   Dn4
 BYTE   W06
 BYTE   PEND 
 BYTE   En4
 BYTE   W06
 BYTE   Dn4
 BYTE   W06
 BYTE   Cn4
 BYTE   W06
 BYTE   An4
 BYTE   W06
// 019   ----------------------------------------
 BYTE   Gn4
 BYTE   W06
 BYTE   An4
 BYTE   W06
 BYTE   Gn4
 BYTE   W06
 BYTE   Fs4
 BYTE   W06
 BYTE   Gn4
 BYTE   W06
 BYTE   Fs4
 BYTE   W06
 BYTE   En4
 BYTE   W06
 BYTE   Dn4
 BYTE   W06
 BYTE   PATT
  POIN2 Label_3_013BAE64
 BYTE   PATT
  POIN2 Label_3_013BAE7F
 BYTE   PATT
  POIN2 Label_3_013BAE9A
// 020   ----------------------------------------
 BYTE   N06  En4  v080
 BYTE   W06
 BYTE   Dn4
 BYTE   W06
 BYTE   Cn4
 BYTE   W06
 BYTE   Gn4
 BYTE   W06
 BYTE   Fn4
 BYTE   W06
 BYTE   Gn4
 BYTE   W06
 BYTE   Fn4
 BYTE   W06
 BYTE   En4
 BYTE   W06
 BYTE   Fn4
 BYTE   W06
 BYTE   En4
 BYTE   W06
 BYTE   Dn4
 BYTE   W06
 BYTE   Cn4
 BYTE   W06
Label_3_013BAEF6:
 BYTE   N06  Dn4  v080
 BYTE   W06
 BYTE   Cn4
 BYTE   W06
 BYTE   Dn4
 BYTE   W06
 BYTE   Gn4
 BYTE   W06
// 021   ----------------------------------------
 BYTE   Fn4
 BYTE   W06
 BYTE   Gn4
 BYTE   W06
 BYTE   Fn4
 BYTE   W06
 BYTE   En4
 BYTE   W06
 BYTE   Fn4
 BYTE   W06
 BYTE   En4
 BYTE   W06
 BYTE   Dn4
 BYTE   W06
 BYTE   Cn4
 BYTE   W06
 BYTE   PEND 
 BYTE   Dn4
 BYTE   W06
 BYTE   Cn4
 BYTE   W06
 BYTE   An3
 BYTE   W06
 BYTE   Fn4  v100
 BYTE   W06
 BYTE   En4
 BYTE   W06
 BYTE   Dn4
 BYTE   W06
 BYTE   En4
 BYTE   W06
 BYTE   Dn4
 BYTE   W06
// 022   ----------------------------------------
 BYTE   Cn4
 BYTE   W06
 BYTE   Dn4
 BYTE   W06
 BYTE   Cn4
 BYTE   W06
 BYTE   Bn3
 BYTE   W06
 BYTE   Cn4
 BYTE   W06
 BYTE   Bn3
 BYTE   W06
 BYTE   An3
 BYTE   W06
 BYTE   Fn4
 BYTE   W06
 BYTE   En4
 BYTE   W06
 BYTE   Dn4
 BYTE   W06
 BYTE   En4
 BYTE   W06
 BYTE   Dn4
 BYTE   W06
 BYTE   Cn4
 BYTE   W06
 BYTE   Dn4
 BYTE   W06
 BYTE   Cn4
 BYTE   W06
 BYTE   Bn3
 BYTE   W06
// 023   ----------------------------------------
 BYTE   Cn4
 BYTE   W06
 BYTE   Bn3
 BYTE   W06
 BYTE   An3
 BYTE   W06
 BYTE   Gn4  v080
 BYTE   W06
 BYTE   Fn4
 BYTE   W06
 BYTE   Gn4
 BYTE   W06
 BYTE   Fn4
 BYTE   W06
 BYTE   En4
 BYTE   W06
 BYTE   Fn4
 BYTE   W06
 BYTE   En4
 BYTE   W06
 BYTE   Dn4
 BYTE   W06
 BYTE   Cn4
 BYTE   W06
 BYTE   PATT
  POIN2 Label_3_013BAEF6
// 024   ----------------------------------------
 BYTE   N06  Dn4  v080
 BYTE   W06
 BYTE   Cn4
 BYTE   W06
 BYTE   An3
 BYTE   W60
 BYTE   W54
// 025   ----------------------------------------
 BYTE   Dn4  v100
 BYTE   W06
 BYTE   An3
 BYTE   W06
 BYTE   Gn3
 BYTE   W06
Label_3_013BAF70:
 BYTE   N06  Dn3  v100
 BYTE   W06
 BYTE   Gn3
 BYTE   W06
 BYTE   An3
 BYTE   W06
 BYTE   Dn4
 BYTE   W06
 BYTE   An3
 BYTE   W06
 BYTE   Gn3
 BYTE   W06
 BYTE   Dn3
 BYTE   W06
 BYTE   Gn3
 BYTE   W06
 BYTE   An3
 BYTE   W06
 BYTE   Dn4
 BYTE   W06
 BYTE   An3
 BYTE   W06
 BYTE   Gn3
 BYTE   W06
 BYTE   PEND 
 BYTE   PATT
  POIN2 Label_3_013BAF70
 BYTE   PATT
  POIN2 Label_3_013BAF70
// 026   ----------------------------------------
 BYTE   N06  Dn3  v100
 BYTE   W06
 BYTE   Gn3
 BYTE   W06
 BYTE   An3
 BYTE   W06
 BYTE   Dn4
 BYTE   W06
 BYTE   An3
 BYTE   W06
 BYTE   Gn3
 BYTE   W06
 BYTE   Dn3
 BYTE   W06
 BYTE   Gn3
 BYTE   W06
 BYTE   GoTo
  POIN2 Label_3_013BACD7
// 027   ----------------------------------------
 BYTE   N06  An3  v100
 BYTE   W06
 BYTE   FINE

//**************** Track 5 (Midi-Chn.4) ****************//

ChronoTriggerBoss2RandomWizard_005:
// 000   ----------------------------------------
 BYTE   KEYSH   ChronoTriggerBoss2RandomWizard_key+0
 BYTE   VOICE   18
 BYTE   VOL   50*ChronoTriggerBoss2RandomWizard_mvl/mxv
 BYTE   PAN   c_v+0
 BYTE   W72
 BYTE   W72
// 001   ----------------------------------------
 BYTE   W72
 BYTE   W72
// 002   ----------------------------------------
 BYTE   W72
 BYTE   W72
// 003   ----------------------------------------
 BYTE   W72
 BYTE   W72
// 004   ----------------------------------------
Label_4_013BAFC4:
 BYTE   W18
 BYTE   N06  An3  v100
 BYTE   N06  Dn4
 BYTE   W18
 BYTE   An3
 BYTE   N06  Dn4
 BYTE   W24
 BYTE   Bn3
 BYTE   N06  En4
 BYTE   W12
Label_4_013BAFD3:
 BYTE   N06  Bn3  v100
 BYTE   N06  En4
 BYTE   W18
 BYTE   An3
 BYTE   N06  Dn4
 BYTE   W18
// 005   ----------------------------------------
 BYTE   An3
 BYTE   N06  Dn4
 BYTE   W24
 BYTE   Bn3
 BYTE   N06  En4
 BYTE   W12
 BYTE   PEND 
 BYTE   PATT
  POIN2 Label_4_013BAFD3
// 006   ----------------------------------------
Label_4_013BAFEB:
 BYTE   N06  Bn3  v100
 BYTE   N06  En4
 BYTE   W18
 BYTE   Cn4
 BYTE   N06  Fn4
 BYTE   W18
 BYTE   Cn4
 BYTE   N06  Fn4
 BYTE   W24
 BYTE   As3
 BYTE   N06  Ds4
 BYTE   W12
 BYTE   PEND 
 BYTE   As3
 BYTE   N06  Ds4
 BYTE   W18
 BYTE   An3
 BYTE   N06  Dn4
 BYTE   W18
// 007   ----------------------------------------
 BYTE   An3
 BYTE   N06  Dn4
 BYTE   W24
 BYTE   Bn3
 BYTE   N06  En4
 BYTE   W12
 BYTE   PATT
  POIN2 Label_4_013BAFD3
 BYTE   PATT
  POIN2 Label_4_013BAFD3
 BYTE   PATT
  POIN2 Label_4_013BAFEB
// 008   ----------------------------------------
 BYTE   N06  As3  v100
 BYTE   N06  Ds4
 BYTE   W18
 BYTE   Fn4
 BYTE   N06  Cn5
 BYTE   W18
 BYTE   Fn4
 BYTE   N06  Cn5
 BYTE   W24
 BYTE   Ds4
 BYTE   N06  As4
 BYTE   W06
 BYTE   Fn4
 BYTE   N06  Cn5
 BYTE   W06
Label_4_013BB033:
 BYTE   N06  Fn4  v100
 BYTE   N06  Cn5
 BYTE   W18
 BYTE   Fn4
 BYTE   N06  Cn5
 BYTE   W18
// 009   ----------------------------------------
 BYTE   Fn4
 BYTE   N06  Cn5
 BYTE   W24
 BYTE   Ds4
 BYTE   N06  As4
 BYTE   W06
 BYTE   Fn4
 BYTE   N06  Cn5
 BYTE   W06
 BYTE   PEND 
 BYTE   Fn4
 BYTE   N06  Cn5
 BYTE   W18
 BYTE   Ds4
 BYTE   N06  As4
 BYTE   W18
 BYTE   Ds4
 BYTE   N06  As4
 BYTE   W24
// 010   ----------------------------------------
 BYTE   Dn4
 BYTE   N06  As4
 BYTE   W06
 BYTE   Ds4
 BYTE   N06  As4
 BYTE   W06
 BYTE   Ds4
 BYTE   N06  As4
 BYTE   W18
 BYTE   Ds4
 BYTE   N06  As4
 BYTE   W18
 BYTE   Ds4
 BYTE   N06  As4
 BYTE   W24
 BYTE   Dn4
 BYTE   N06  As4
 BYTE   W06
 BYTE   Ds4
 BYTE   N06  As4
 BYTE   W06
 BYTE   Ds4
 BYTE   N06  As4
 BYTE   W18
// 011   ----------------------------------------
 BYTE   Fn4
 BYTE   N06  Cn5
 BYTE   W18
 BYTE   Fn4
 BYTE   N06  Cn5
 BYTE   W24
 BYTE   Ds4
 BYTE   N06  As4
 BYTE   W06
 BYTE   Fn4
 BYTE   N06  Cn5
 BYTE   W06
 BYTE   PATT
  POIN2 Label_4_013BB033
// 012   ----------------------------------------
 BYTE   N06  Fn4  v100
 BYTE   N06  Cn5
 BYTE   W72
 BYTE   W72
// 013   ----------------------------------------
 BYTE   W72
 BYTE   W72
// 014   ----------------------------------------
 BYTE   W72
 BYTE   W72
// 015   ----------------------------------------
 BYTE   W72
 BYTE   W18
 BYTE   En3
 BYTE   N06  An3
 BYTE   W18
// 016   ----------------------------------------
 BYTE   En3
 BYTE   N06  An3
 BYTE   W24
 BYTE   Fs3
 BYTE   N06  Bn3
 BYTE   W12
Label_4_013BB0A4:
 BYTE   N06  Fs3  v100
 BYTE   N06  Bn3
 BYTE   W18
 BYTE   En3
 BYTE   N06  An3
 BYTE   W18
 BYTE   En3
 BYTE   N06  An3
 BYTE   W24
// 017   ----------------------------------------
 BYTE   Fs3
 BYTE   N06  Bn3
 BYTE   W12
 BYTE   PEND 
 BYTE   PATT
  POIN2 Label_4_013BB0A4
// 018   ----------------------------------------
Label_4_013BB0BC:
 BYTE   N06  Fs3  v100
 BYTE   N06  Bn3
 BYTE   W18
 BYTE   Gn3
 BYTE   N06  Cn4
 BYTE   W18
 BYTE   Gn3
 BYTE   N06  Cn4
 BYTE   W24
 BYTE   Fn3
 BYTE   N06  As3
 BYTE   W12
 BYTE   PEND 
 BYTE   Fn3
 BYTE   N06  As3
 BYTE   W18
 BYTE   En3
 BYTE   N06  An3
 BYTE   W18
// 019   ----------------------------------------
 BYTE   En3
 BYTE   N06  An3
 BYTE   W24
 BYTE   Fs3
 BYTE   N06  Bn3
 BYTE   W12
 BYTE   PATT
  POIN2 Label_4_013BB0A4
 BYTE   PATT
  POIN2 Label_4_013BB0A4
 BYTE   PATT
  POIN2 Label_4_013BB0BC
// 020   ----------------------------------------
 BYTE   N06  Fn3  v100
 BYTE   N06  As3
 BYTE   W18
 BYTE   Dn4
 BYTE   N06  An4
 BYTE   W18
 BYTE   Dn4
 BYTE   N06  An4
 BYTE   W24
 BYTE   Cn4
 BYTE   N06  Gn4
 BYTE   W06
 BYTE   Dn4
 BYTE   N06  An4
 BYTE   W06
Label_4_013BB104:
 BYTE   N06  Dn4  v100
 BYTE   N06  An4
 BYTE   W18
 BYTE   Dn4
 BYTE   N06  An4
 BYTE   W18
// 021   ----------------------------------------
 BYTE   Dn4
 BYTE   N06  An4
 BYTE   W24
 BYTE   Cn4
 BYTE   N06  Gn4
 BYTE   W06
 BYTE   Dn4
 BYTE   N06  An4
 BYTE   W06
 BYTE   PEND 
 BYTE   Dn4
 BYTE   N06  An4
 BYTE   W18
 BYTE   Cn4
 BYTE   N06  Gn4
 BYTE   W18
 BYTE   Cn4
 BYTE   N06  Gn4
 BYTE   W24
// 022   ----------------------------------------
 BYTE   Bn3
 BYTE   N06  Gn4
 BYTE   W06
 BYTE   Cn4
 BYTE   N06  Gn4
 BYTE   W06
 BYTE   Cn4
 BYTE   N06  Gn4
 BYTE   W18
 BYTE   Cn4
 BYTE   N06  Gn4
 BYTE   W18
 BYTE   Cn4
 BYTE   N06  Gn4
 BYTE   W24
 BYTE   Bn3
 BYTE   N06  Gn4
 BYTE   W06
 BYTE   Cn4
 BYTE   N06  Gn4
 BYTE   W06
 BYTE   Cn4
 BYTE   N06  Gn4
 BYTE   W18
// 023   ----------------------------------------
 BYTE   Dn4
 BYTE   N06  An4
 BYTE   W18
 BYTE   Dn4
 BYTE   N06  An4
 BYTE   W24
 BYTE   Cn4
 BYTE   N06  Gn4
 BYTE   W06
 BYTE   Dn4
 BYTE   N06  An4
 BYTE   W06
 BYTE   PATT
  POIN2 Label_4_013BB104
// 024   ----------------------------------------
 BYTE   N06  Dn4  v100
 BYTE   N06  An4
 BYTE   W72
 BYTE   W72
// 025   ----------------------------------------
 BYTE   W72
 BYTE   W72
// 026   ----------------------------------------
 BYTE   W72
 BYTE   W48
// 027   ----------------------------------------
 BYTE   GoTo
  POIN2 Label_4_013BAFC4
// 028   ----------------------------------------
 BYTE   W06
 BYTE   FINE

//**************** Track 6 (Midi-Chn.5) ****************//

ChronoTriggerBoss2RandomWizard_006:
// 000   ----------------------------------------
 BYTE   KEYSH   ChronoTriggerBoss2RandomWizard_key+0
 BYTE   VOICE   124
 BYTE   VOL   45*ChronoTriggerBoss2RandomWizard_mvl/mxv
 BYTE   PAN   c_v+0
 BYTE   N06  Dn1  v080
 BYTE   W06
 BYTE   N06
 BYTE   W06
 BYTE   N06
 BYTE   W06
 BYTE   N06
 BYTE   N24  An2  v100
 BYTE   W12
 BYTE   N03  Dn1  v080
 BYTE   W03
 BYTE   N03
 BYTE   W03
 BYTE   N06
 BYTE   W06
 BYTE   N06
 BYTE   W06
 BYTE   N06
 BYTE   W06
 BYTE   N06
 BYTE   W12
 BYTE   N06
 BYTE   W06
Label_5_013BB195:
 BYTE   N06  Dn1  v080
 BYTE   W06
 BYTE   N06
 BYTE   W06
 BYTE   N06
 BYTE   W06
 BYTE   N06
 BYTE   W12
// 001   ----------------------------------------
 BYTE   N03
 BYTE   W03
 BYTE   N03
 BYTE   W03
 BYTE   N06
 BYTE   W06
 BYTE   N06
 BYTE   W06
 BYTE   N06
 BYTE   W06
 BYTE   N06
 BYTE   W12
 BYTE   N06
 BYTE   W06
 BYTE   PEND 
Label_5_013BB1AE:
 BYTE   N06  Dn1  v080
 BYTE   W06
 BYTE   N06
 BYTE   W06
 BYTE   N06
 BYTE   W06
 BYTE   N06
 BYTE   N24  An2  v100
 BYTE   W12
 BYTE   N03  Dn1  v080
 BYTE   W03
 BYTE   N03
 BYTE   W03
 BYTE   N06
 BYTE   W06
 BYTE   N06
 BYTE   W06
 BYTE   N06
 BYTE   W06
// 002   ----------------------------------------
 BYTE   N06
 BYTE   W12
 BYTE   N06
 BYTE   W06
 BYTE   PEND 
Label_5_013BB1CC:
 BYTE   N06  Dn1  v080
 BYTE   W06
 BYTE   N06
 BYTE   W06
 BYTE   N06
 BYTE   W06
 BYTE   N06
 BYTE   W12
 BYTE   N03
 BYTE   W03
 BYTE   N03
 BYTE   W03
 BYTE   N06
 BYTE   W06
 BYTE   N06
 BYTE   W06
 BYTE   N06
 BYTE   W06
 BYTE   N06
 BYTE   W06
 BYTE   N03
 BYTE   W06
 BYTE   N06
 BYTE   W06
 BYTE   PEND 
 BYTE   N03
 BYTE   W03
 BYTE   N03
 BYTE   W03
// 003   ----------------------------------------
 BYTE   N06
 BYTE   W06
 BYTE   N06
 BYTE   W06
 BYTE   N06
 BYTE   N24  An2  v100
 BYTE   W12
 BYTE   N03  Dn1  v080
 BYTE   W03
 BYTE   N03
 BYTE   W03
 BYTE   N06
 BYTE   W06
 BYTE   N06
 BYTE   W06
 BYTE   N06
 BYTE   W06
 BYTE   N06
 BYTE   W12
 BYTE   N06
 BYTE   W06
 BYTE   PATT
  POIN2 Label_5_013BB195
 BYTE   PATT
  POIN2 Label_5_013BB1AE
 BYTE   PATT
  POIN2 Label_5_013BB1CC
// 004   ----------------------------------------
Label_5_013BB213:
 BYTE   N03  Dn1  v080
 BYTE   W03
 BYTE   N03
 BYTE   W03
 BYTE   N06
 BYTE   W06
 BYTE   N06
 BYTE   W06
 BYTE   N06
 BYTE   N24  An2  v100
 BYTE   W06
 BYTE   N06  Dn1  v068
 BYTE   W06
 BYTE   Dn1  v076
 BYTE   W06
 BYTE   Dn1  v080
 BYTE   W06
 BYTE   Dn1  v068
 BYTE   W06
 BYTE   Dn1  v076
 BYTE   W06
 BYTE   Dn1  v080
 BYTE   W06
 BYTE   Dn1  v068
 BYTE   W06
 BYTE   N03  Dn1  v076
 BYTE   W03
 BYTE   Dn1  v100
 BYTE   W03
Label_5_013BB23F:
 BYTE   N06  Dn1  v080
 BYTE   W06
 BYTE   Dn1  v068
 BYTE   W06
 BYTE   Dn1  v076
 BYTE   W06
 BYTE   Dn1  v080
 BYTE   W06
// 005   ----------------------------------------
 BYTE   Dn1  v068
 BYTE   W06
 BYTE   Dn1  v076
 BYTE   W06
 BYTE   Dn1  v080
 BYTE   W06
 BYTE   Dn1  v068
 BYTE   W06
 BYTE   Dn1  v076
 BYTE   W06
 BYTE   Dn1  v080
 BYTE   W06
 BYTE   Dn1  v068
 BYTE   W06
 BYTE   N03  Dn1  v076
 BYTE   W03
 BYTE   Dn1  v100
 BYTE   W03
 BYTE   PEND 
Label_5_013BB269:
 BYTE   N06  Dn1  v080
 BYTE   W06
 BYTE   Dn1  v068
 BYTE   W06
 BYTE   Dn1  v076
 BYTE   W06
 BYTE   Dn1  v080
 BYTE   N24  An2  v100
 BYTE   W06
 BYTE   N06  Dn1  v068
 BYTE   W06
 BYTE   Dn1  v076
 BYTE   W06
 BYTE   Dn1  v080
 BYTE   W06
 BYTE   Dn1  v068
 BYTE   W06
// 006   ----------------------------------------
 BYTE   Dn1  v076
 BYTE   W06
 BYTE   Dn1  v080
 BYTE   W06
 BYTE   Dn1  v068
 BYTE   W06
 BYTE   N03  Dn1  v076
 BYTE   W03
 BYTE   Dn1  v100
 BYTE   W03
 BYTE   PEND 
 BYTE   PATT
  POIN2 Label_5_013BB23F
 BYTE   PATT
  POIN2 Label_5_013BB269
 BYTE   PATT
  POIN2 Label_5_013BB23F
 BYTE   PATT
  POIN2 Label_5_013BB269
 BYTE   PATT
  POIN2 Label_5_013BB23F
 BYTE   PATT
  POIN2 Label_5_013BB269
 BYTE   PATT
  POIN2 Label_5_013BB23F
 BYTE   PATT
  POIN2 Label_5_013BB269
 BYTE   PATT
  POIN2 Label_5_013BB23F
 BYTE   PATT
  POIN2 Label_5_013BB269
 BYTE   PATT
  POIN2 Label_5_013BB23F
// 007   ----------------------------------------
 BYTE   N06  Dn1  v080
 BYTE   W06
 BYTE   Dn1  v068
 BYTE   W06
 BYTE   Dn1  v076
 BYTE   W06
 BYTE   N06
 BYTE   N24  An2  v100
 BYTE   W18
 BYTE   N06  Dn1  v076
 BYTE   W06
 BYTE   N06
 BYTE   W06
 BYTE   N06
 BYTE   W06
 BYTE   N06
 BYTE   N24  An2  v100
 BYTE   W18
 BYTE   N06  Dn1  v076
 BYTE   W06
 BYTE   N06
 BYTE   W06
 BYTE   N06
 BYTE   W06
 BYTE   N06
 BYTE   N18  An2  v100
 BYTE   W06
// 008   ----------------------------------------
 BYTE   N03  Dn1  v076
 BYTE   W03
 BYTE   N03
 BYTE   W03
 BYTE   N03
 BYTE   W06
 BYTE   N06
 BYTE   N06  An2  v100
 BYTE   W18
 BYTE   Dn1  v076
 BYTE   N06  An2  v100
 BYTE   W18
 BYTE   Dn1  v076
 BYTE   W06
 BYTE   N06
 BYTE   W06
 BYTE   N06
 BYTE   W06
 BYTE   N06
 BYTE   N24  An2  v100
 BYTE   W18
 BYTE   N06  Dn1  v076
 BYTE   W06
 BYTE   N06
 BYTE   W06
// 009   ----------------------------------------
 BYTE   N06
 BYTE   W06
 BYTE   N06
 BYTE   N18  An2  v100
 BYTE   W06
 BYTE   N03  Dn1  v076
 BYTE   W03
 BYTE   N03
 BYTE   W03
 BYTE   N03
 BYTE   W06
 BYTE   N06
 BYTE   N06  An2  v100
 BYTE   W18
 BYTE   Dn1  v076
 BYTE   N24  An2  v100
 BYTE   W18
 BYTE   N06  Dn1  v076
 BYTE   W06
 BYTE   N06
 BYTE   W06
 BYTE   N06
 BYTE   W06
 BYTE   N06
 BYTE   N24  An2  v100
 BYTE   W18
// 010   ----------------------------------------
 BYTE   N06  Dn1  v076
 BYTE   W06
 BYTE   N06
 BYTE   W06
 BYTE   N06
 BYTE   W06
 BYTE   N06
 BYTE   N18  An2  v100
 BYTE   W06
 BYTE   N03  Dn1  v076
 BYTE   W03
 BYTE   N03
 BYTE   W03
 BYTE   N03
 BYTE   W06
 BYTE   N06
 BYTE   N18  An2  v100
 BYTE   W18
 BYTE   N06  Dn1  v076
 BYTE   N18  An2  v100
 BYTE   W18
 BYTE   N06  Dn1  v076
 BYTE   W06
 BYTE   N06
 BYTE   W06
 BYTE   N06
 BYTE   W06
 BYTE   N06
 BYTE   N18  An2  v100
 BYTE   W18
// 011   ----------------------------------------
 BYTE   N06  Dn1  v076
 BYTE   W06
 BYTE   N06
 BYTE   W06
 BYTE   N06
 BYTE   W06
 BYTE   N06
 BYTE   N18  An2  v100
 BYTE   W06
 BYTE   N03  Dn1  v076
 BYTE   W03
 BYTE   N03
 BYTE   W03
 BYTE   N03
 BYTE   W06
 BYTE   N06
 BYTE   N18  An2  v100
 BYTE   W18
 BYTE   N06  Dn1  v076
 BYTE   N18  An2  v100
 BYTE   W06
 BYTE   N03  Dn1  v076
 BYTE   W03
 BYTE   N03
 BYTE   W03
 BYTE   N03
 BYTE   W03
 BYTE   N03
 BYTE   W03
 BYTE   N06
 BYTE   N18  An2  v100
 BYTE   W06
 BYTE   N06  Dn1  v076
 BYTE   W06
 BYTE   N06
 BYTE   W06
 BYTE   N06
 BYTE   N36  An2  v100
 BYTE   W06
// 012   ----------------------------------------
 BYTE   N06  Dn1  v076
 BYTE   W06
 BYTE   N06
 BYTE   W06
 BYTE   N03
 BYTE   W03
 BYTE   N03
 BYTE   W03
 BYTE   N03
 BYTE   W03
 BYTE   N03
 BYTE   W03
 BYTE   N03
 BYTE   W03
 BYTE   N03
 BYTE   W03
 BYTE   N06  Dn1  v080
 BYTE   N24  An2  v100
 BYTE   W06
 BYTE   N06  Dn1  v068
 BYTE   W06
 BYTE   Dn1  v076
 BYTE   W06
 BYTE   Dn1  v080
 BYTE   W06
 BYTE   Dn1  v068
 BYTE   W06
 BYTE   Dn1  v076
 BYTE   W06
 BYTE   Dn1  v080
 BYTE   W06
 BYTE   Dn1  v068
 BYTE   W06
 BYTE   N03  Dn1  v076
 BYTE   W03
 BYTE   Dn1  v100
 BYTE   W03
 BYTE   PATT
  POIN2 Label_5_013BB23F
 BYTE   PATT
  POIN2 Label_5_013BB269
 BYTE   PATT
  POIN2 Label_5_013BB23F
 BYTE   PATT
  POIN2 Label_5_013BB269
 BYTE   PATT
  POIN2 Label_5_013BB23F
 BYTE   PATT
  POIN2 Label_5_013BB269
 BYTE   PATT
  POIN2 Label_5_013BB23F
 BYTE   PATT
  POIN2 Label_5_013BB269
 BYTE   PATT
  POIN2 Label_5_013BB23F
 BYTE   PATT
  POIN2 Label_5_013BB269
 BYTE   PATT
  POIN2 Label_5_013BB23F
 BYTE   PATT
  POIN2 Label_5_013BB269
 BYTE   PATT
  POIN2 Label_5_013BB23F
 BYTE   PATT
  POIN2 Label_5_013BB269
// 013   ----------------------------------------
 BYTE   N06  Dn1  v080
 BYTE   N24  An2  v100
 BYTE   W06
 BYTE   N06  Dn1  v068
 BYTE   W06
 BYTE   Dn1  v076
 BYTE   W06
 BYTE   Dn1  v080
 BYTE   W06
 BYTE   Dn1  v068
 BYTE   W06
 BYTE   Dn1  v076
 BYTE   W06
 BYTE   Dn1  v080
 BYTE   W06
 BYTE   Dn1  v068
 BYTE   W06
 BYTE   Dn1  v076
 BYTE   W06
 BYTE   Dn1  v080
 BYTE   W06
 BYTE   Dn1  v068
 BYTE   W06
 BYTE   N03  Dn1  v076
 BYTE   W03
 BYTE   Dn1  v100
 BYTE   W03
 BYTE   PATT
  POIN2 Label_5_013BB23F
 BYTE   PATT
  POIN2 Label_5_013BB23F
 BYTE   PATT
  POIN2 Label_5_013BB23F
// 014   ----------------------------------------
 BYTE   N06  Dn1  v080
 BYTE   W06
 BYTE   Dn1  v068
 BYTE   W06
 BYTE   Dn1  v076
 BYTE   W06
 BYTE   Dn1  v080
 BYTE   W06
 BYTE   Dn1  v068
 BYTE   W06
 BYTE   Dn1  v076
 BYTE   W06
 BYTE   Dn1  v080
 BYTE   W06
 BYTE   Dn1  v068
 BYTE   W06
 BYTE   GoTo
  POIN2 Label_5_013BB213
// 015   ----------------------------------------
 BYTE   N06  Dn1  v076
 BYTE   W06
 BYTE   FINE

//******************************************************//
	ALIGN 4

ChronoTriggerBoss2RandomWizard:
	BYTE	6	// NumTrks
	BYTE	0	// NumBlks
	BYTE	ChronoTriggerBoss2RandomWizard_pri	// Priority
	BYTE	ChronoTriggerBoss2RandomWizard_rev	// Reverb.
    
	POIN2	ChronoTriggerBoss2RandomWizard_grp
    
	POIN2	ChronoTriggerBoss2RandomWizard_001
	POIN2	ChronoTriggerBoss2RandomWizard_002
	POIN2	ChronoTriggerBoss2RandomWizard_003
	POIN2	ChronoTriggerBoss2RandomWizard_004
	POIN2	ChronoTriggerBoss2RandomWizard_005
	POIN2	ChronoTriggerBoss2RandomWizard_006

	
