//Event file generated from Sappy .s format.
	#include "MPlayDef.event"

	#define	FF10ToZanarkandAReliableChair_grp  voicegroup000
	#define	FF10ToZanarkandAReliableChair_pri  0
	#define	FF10ToZanarkandAReliableChair_rev  0
	#define	FF10ToZanarkandAReliableChair_mvl  127
	#define	FF10ToZanarkandAReliableChair_key  0
	#define	FF10ToZanarkandAReliableChair_tbs  1
	#define	FF10ToZanarkandAReliableChair_exg  0
	#define	FF10ToZanarkandAReliableChair_cmp  1

	// .rodata
	//	FF10ToZanarkandAReliableChair
	ALIGN 4


//**************** Track 1 (Midi-Chn.0) ****************//

FF10ToZanarkandAReliableChair_001:
// 000   ----------------------------------------
 BYTE   KEYSH   FF10ToZanarkandAReliableChair_key+0
Label_0_011EE8DA:
 BYTE   TEMPO   84*FF10ToZanarkandAReliableChair_tbs/2
 BYTE   VOICE   1
 BYTE   BENDR  104
 BYTE   PAN   c_v+0
 BYTE   VOL   55*FF10ToZanarkandAReliableChair_mvl/mxv
 BYTE   MODT 0
 BYTE   CnM2
 BYTE   LFOS 0
 BYTE   Gs1
 BYTE   N11  En5  v060
 BYTE   W12
 BYTE   En4
 BYTE   W12
 BYTE   Gn4  v044
 BYTE   W12
 BYTE   Bn4
 BYTE   W12
 BYTE   Cn5  v048
 BYTE   N11  En5
 BYTE   W03
 BYTE   TEMPO   78*FF10ToZanarkandAReliableChair_tbs/2
 BYTE   W09
 BYTE   Dn5  v040
 BYTE   N11  Fs5
 BYTE   W01
 BYTE   TEMPO   76*FF10ToZanarkandAReliableChair_tbs/2
 BYTE   W05
 BYTE   TEMPO   72*FF10ToZanarkandAReliableChair_tbs/2
 BYTE   W06
 BYTE   TEMPO   94*FF10ToZanarkandAReliableChair_tbs/2
 BYTE   N68  En5  v036
 BYTE   N68  Gn5
 BYTE   W04
 BYTE   TEMPO   92*FF10ToZanarkandAReliableChair_tbs/2
 BYTE   W68
// 001   ----------------------------------------
 BYTE   TEMPO   84*FF10ToZanarkandAReliableChair_tbs/2
 BYTE   N11  Dn5  v064
 BYTE   W12
 BYTE   Dn4  v056
 BYTE   W07
 BYTE   TEMPO   78*FF10ToZanarkandAReliableChair_tbs/2
 BYTE   W03
 BYTE   TEMPO   88*FF10ToZanarkandAReliableChair_tbs/2
 BYTE   W02
 BYTE   TEMPO   84*FF10ToZanarkandAReliableChair_tbs/2
 BYTE   Fs4  v044
 BYTE   W04
 BYTE   TEMPO   82*FF10ToZanarkandAReliableChair_tbs/2
 BYTE   W02
 BYTE   TEMPO   84*FF10ToZanarkandAReliableChair_tbs/2
 BYTE   W06
 BYTE   An4  v040
 BYTE   W03
 BYTE   TEMPO   82*FF10ToZanarkandAReliableChair_tbs/2
 BYTE   W07
 BYTE   TEMPO   78*FF10ToZanarkandAReliableChair_tbs/2
 BYTE   W02
 BYTE   Bn4  v044
 BYTE   N11  Dn5
 BYTE   W06
 BYTE   TEMPO   76*FF10ToZanarkandAReliableChair_tbs/2
 BYTE   W06
 BYTE   Cn5  v048
 BYTE   N11  En5
 BYTE   W12
 BYTE   N68  Dn5  v044
 BYTE   N68  Fs5
 BYTE   W02
 BYTE   TEMPO   78*FF10ToZanarkandAReliableChair_tbs/2
 BYTE   W68
// 002   ----------------------------------------
 BYTE   W02
 BYTE   TEMPO   92*FF10ToZanarkandAReliableChair_tbs/2
 BYTE   N23  Bn4  v028
 BYTE   W18
 BYTE   TEMPO   88*FF10ToZanarkandAReliableChair_tbs/2
 BYTE   W06
 BYTE   N23
 BYTE   W10
 BYTE   TEMPO   84*FF10ToZanarkandAReliableChair_tbs/2
 BYTE   W14
 BYTE   N23
 BYTE   W07
 BYTE   TEMPO   82*FF10ToZanarkandAReliableChair_tbs/2
 BYTE   W07
 BYTE   TEMPO   78*FF10ToZanarkandAReliableChair_tbs/2
 BYTE   W10
 BYTE   TEMPO   92*FF10ToZanarkandAReliableChair_tbs/2
 BYTE   Bn4  v036
 BYTE   W24
// 003   ----------------------------------------
 BYTE   N32  An4  v048
 BYTE   W03
 BYTE   TEMPO   88*FF10ToZanarkandAReliableChair_tbs/2
 BYTE   W04
 BYTE   TEMPO   84*FF10ToZanarkandAReliableChair_tbs/2
 BYTE   W05
 BYTE   TEMPO   82*FF10ToZanarkandAReliableChair_tbs/2
 BYTE   W04
 BYTE   TEMPO   78*FF10ToZanarkandAReliableChair_tbs/2
 BYTE   W20
 BYTE   N11  Dn5  v056
 BYTE   W03
 BYTE   TEMPO   84*FF10ToZanarkandAReliableChair_tbs/2
 BYTE   W09
 BYTE   TEMPO   88*FF10ToZanarkandAReliableChair_tbs/2
 BYTE   N68  Fs4  v032
 BYTE   W16
 BYTE   TEMPO   84*FF10ToZanarkandAReliableChair_tbs/2
 BYTE   W18
 BYTE   TEMPO   82*FF10ToZanarkandAReliableChair_tbs/2
 BYTE   W12
 BYTE   TEMPO   78*FF10ToZanarkandAReliableChair_tbs/2
 BYTE   W24
// 004   ----------------------------------------
 BYTE   W02
 BYTE   W15
 BYTE   TEMPO   84*FF10ToZanarkandAReliableChair_tbs/2
 BYTE   W19
 BYTE   TEMPO   82*FF10ToZanarkandAReliableChair_tbs/2
 BYTE   W14
 BYTE   TEMPO   78*FF10ToZanarkandAReliableChair_tbs/2
 BYTE   W06
 BYTE   TEMPO   76*FF10ToZanarkandAReliableChair_tbs/2
 BYTE   W06
 BYTE   TEMPO   72*FF10ToZanarkandAReliableChair_tbs/2
 BYTE   W12
 BYTE   TEMPO   88*FF10ToZanarkandAReliableChair_tbs/2
 BYTE   N23  En5  v068
 BYTE   W24
// 005   ----------------------------------------
 BYTE   N23
 BYTE   W24
 BYTE   TEMPO   84*FF10ToZanarkandAReliableChair_tbs/2
 BYTE   N23
 BYTE   W03
 BYTE   TEMPO   82*FF10ToZanarkandAReliableChair_tbs/2
 BYTE   W09
 BYTE   TEMPO   78*FF10ToZanarkandAReliableChair_tbs/2
 BYTE   W03
 BYTE   TEMPO   76*FF10ToZanarkandAReliableChair_tbs/2
 BYTE   W09
 BYTE   N23
 BYTE   W09
 BYTE   TEMPO   78*FF10ToZanarkandAReliableChair_tbs/2
 BYTE   W03
 BYTE   TEMPO   82*FF10ToZanarkandAReliableChair_tbs/2
 BYTE   W04
 BYTE   TEMPO   84*FF10ToZanarkandAReliableChair_tbs/2
 BYTE   W08
 BYTE   N32  Dn5  v056
 BYTE   W13
 BYTE   TEMPO   82*FF10ToZanarkandAReliableChair_tbs/2
 BYTE   W03
 BYTE   TEMPO   78*FF10ToZanarkandAReliableChair_tbs/2
 BYTE   W04
 BYTE   TEMPO   76*FF10ToZanarkandAReliableChair_tbs/2
 BYTE   W10
// 006   ----------------------------------------
 BYTE   TEMPO   92*FF10ToZanarkandAReliableChair_tbs/2
 BYTE   W06
 BYTE   N11  Gn5
 BYTE   W12
 BYTE   TIE  Cn5  v060
 BYTE   W72
 BYTE   W44
// 007   ----------------------------------------
 BYTE   W01
 BYTE   TEMPO   88*FF10ToZanarkandAReliableChair_tbs/2
 BYTE   W07
 BYTE   TEMPO   84*FF10ToZanarkandAReliableChair_tbs/2
 BYTE   W03
 BYTE   TEMPO   82*FF10ToZanarkandAReliableChair_tbs/2
 BYTE   W02
 BYTE   TEMPO   78*FF10ToZanarkandAReliableChair_tbs/2
 BYTE   W09
 BYTE   TEMPO   76*FF10ToZanarkandAReliableChair_tbs/2
 BYTE   W05
 BYTE   EOT
 BYTE   W01
 BYTE   TEMPO   90*FF10ToZanarkandAReliableChair_tbs/2
 BYTE   N32  Gn3  v068
 BYTE   N32  En4
 BYTE   W36
 BYTE   N11  Bn3  v064
 BYTE   W12
 BYTE   En4
 BYTE   W12
 BYTE   Fs4
 BYTE   W12
// 008   ----------------------------------------
 BYTE   N23  Cn4  v056
 BYTE   N23  Gn4
 BYTE   W24
 BYTE   Fs4
 BYTE   W24
 BYTE   En4  v068
 BYTE   W24
 BYTE   N32  Fs3
 BYTE   N32  Dn4
 BYTE   W36
// 009   ----------------------------------------
 BYTE   N11  Gn3  v052
 BYTE   N11  En4
 BYTE   W12
 BYTE   N23  Dn4
 BYTE   W24
 BYTE   N68  Dn3  v048
 BYTE   N68  Gn3
 BYTE   N68  Bn3
 BYTE   W72
// 010   ----------------------------------------
 BYTE   N32  Gn3  v052
 BYTE   N32  En4
 BYTE   W36
 BYTE   N11  Bn3
 BYTE   W12
 BYTE   En4  v044
 BYTE   W12
 BYTE   Fs4  v052
 BYTE   W12
 BYTE   N23  Gn4  v064
 BYTE   W24
// 011   ----------------------------------------
 BYTE   Fs4  v044
 BYTE   W24
 BYTE   Gn4  v064
 BYTE   W24
 BYTE   N32  Fs4
 BYTE   N32  An4
 BYTE   W36
 BYTE   N11  Gn3  v052
 BYTE   N11  En4
 BYTE   N11  Gn4
 BYTE   W12
// 012   ----------------------------------------
 BYTE   N23  An3
 BYTE   N23  Fs4
 BYTE   N23  An4
 BYTE   W24
 BYTE   N68  Bn3
 BYTE   N68  Dn4
 BYTE   N68  Gn4
 BYTE   N68  Bn4
 BYTE   W72
// 013   ----------------------------------------
 BYTE   N32  Gn3  v064
 BYTE   N32  En4
 BYTE   W36
 BYTE   N11  Bn3  v076
 BYTE   W12
 BYTE   En4  v072
 BYTE   W12
 BYTE   Fs4  v068
 BYTE   W12
 BYTE   N23  Cn4  v060
 BYTE   N23  Gn4
 BYTE   W24
// 014   ----------------------------------------
 BYTE   Fs4  v068
 BYTE   W24
 BYTE   En4  v072
 BYTE   W24
 BYTE   N32  Fs3
 BYTE   N32  Dn4
 BYTE   W36
 BYTE   N11  Gn3  v064
 BYTE   N11  En4
 BYTE   W12
// 015   ----------------------------------------
 BYTE   N23  Dn4  v060
 BYTE   W24
 BYTE   N44  Dn3  v052
 BYTE   N44  Gn3
 BYTE   N44  Bn3
 BYTE   W48
 BYTE   N11  Gn3  v040
 BYTE   W12
 BYTE   An3  v044
 BYTE   W12
// 016   ----------------------------------------
 BYTE   N23  En3  v056
 BYTE   N23  Bn3
 BYTE   W24
 BYTE   En3  v044
 BYTE   N23  Bn3
 BYTE   W06
 BYTE   TEMPO   94*FF10ToZanarkandAReliableChair_tbs/2
 BYTE   W02
 BYTE   TEMPO   92*FF10ToZanarkandAReliableChair_tbs/2
 BYTE   W06
 BYTE   TEMPO   88*FF10ToZanarkandAReliableChair_tbs/2
 BYTE   W10
 BYTE   En3  v036
 BYTE   N23  Bn3
 BYTE   W08
 BYTE   TEMPO   84*FF10ToZanarkandAReliableChair_tbs/2
 BYTE   W14
 BYTE   TEMPO   82*FF10ToZanarkandAReliableChair_tbs/2
 BYTE   W02
 BYTE   Bn2  v028
 BYTE   N23  Dn3
 BYTE   N23  Bn3
 BYTE   W01
 BYTE   TEMPO   78*FF10ToZanarkandAReliableChair_tbs/2
 BYTE   W23
// 017   ----------------------------------------
 BYTE   An3  v040
 BYTE   W19
 BYTE   TEMPO   72*FF10ToZanarkandAReliableChair_tbs/2
 BYTE   W05
 BYTE   Dn4  v052
 BYTE   W01
 BYTE   TEMPO   70*FF10ToZanarkandAReliableChair_tbs/2
 BYTE   W23
 BYTE   TEMPO   92*FF10ToZanarkandAReliableChair_tbs/2
 BYTE   N32  Cn3  v044
 BYTE   N32  En3
 BYTE   N32  Gn3
 BYTE   W36
 BYTE   N11  Gn3  v056
 BYTE   W12
// 018   ----------------------------------------
 BYTE   Fs3  v052
 BYTE   W12
 BYTE   Dn3  v048
 BYTE   W12
 BYTE   En3  v056
 BYTE   W12
 BYTE   En2  v040
 BYTE   W12
 BYTE   Gn2
 BYTE   W12
 BYTE   Cn3
 BYTE   W12
 BYTE   En3
 BYTE   W12
 BYTE   Gn3
 BYTE   W12
// 019   ----------------------------------------
 BYTE   Cn4  v044
 BYTE   W12
 BYTE   En3
 BYTE   W12
 BYTE   Gn3  v048
 BYTE   W12
 BYTE   Cn4
 BYTE   W08
 BYTE   TEMPO   82*FF10ToZanarkandAReliableChair_tbs/2
 BYTE   W04
 BYTE   En4
 BYTE   W07
 BYTE   TEMPO   78*FF10ToZanarkandAReliableChair_tbs/2
 BYTE   W05
 BYTE   TEMPO   76*FF10ToZanarkandAReliableChair_tbs/2
 BYTE   Gn4  v060
 BYTE   W12
 BYTE   TEMPO   92*FF10ToZanarkandAReliableChair_tbs/2
 BYTE   N36  Cn4  v036
 BYTE   N44  An4
 BYTE   W48
// 020   ----------------------------------------
 BYTE   N23  En5  v056
 BYTE   W24
 BYTE   An4  v040
 BYTE   N23  Cn5
 BYTE   N23  En5
 BYTE   W24
 BYTE   Dn5  v036
 BYTE   W24
 BYTE   Fn4  v040
 BYTE   N23  Cn5
 BYTE   W24
// 021   ----------------------------------------
 BYTE   N44  Dn4  v036
 BYTE   N44  Bn4
 BYTE   W48
 BYTE   N20  Gn5  v044
 BYTE   W21
 BYTE   N01  Bn4  v032
 BYTE   W01
 BYTE   En5  v028
 BYTE   W02
 BYTE   N68  Gn5  v048
 BYTE   W72
// 022   ----------------------------------------
 BYTE   N44  Bn4
 BYTE   W13
 BYTE   TEMPO   88*FF10ToZanarkandAReliableChair_tbs/2
 BYTE   W09
 BYTE   TEMPO   84*FF10ToZanarkandAReliableChair_tbs/2
 BYTE   W24
 BYTE   W02
 BYTE   N20  Fs5
 BYTE   W12
 BYTE   TEMPO   82*FF10ToZanarkandAReliableChair_tbs/2
 BYTE   W04
 BYTE   TEMPO   78*FF10ToZanarkandAReliableChair_tbs/2
 BYTE   W04
 BYTE   N01  Bn4  v028
 BYTE   W02
 BYTE   Dn5
 BYTE   W02
 BYTE   TEMPO   72*FF10ToZanarkandAReliableChair_tbs/2
 BYTE   N68  Fs5  v060
 BYTE   W72
// 023   ----------------------------------------
 BYTE   TEMPO   92*FF10ToZanarkandAReliableChair_tbs/2
 BYTE   N44  An4  v048
 BYTE   W48
 BYTE   N20  En5  v056
 BYTE   W01
 BYTE   TEMPO   88*FF10ToZanarkandAReliableChair_tbs/2
 BYTE   W14
 BYTE   TEMPO   84*FF10ToZanarkandAReliableChair_tbs/2
 BYTE   W05
 BYTE   N01  An4  v044
 BYTE   W02
 BYTE   Cn5
 BYTE   W02
 BYTE   TEMPO   88*FF10ToZanarkandAReliableChair_tbs/2
 BYTE   N23  Bn3  v048
 BYTE   N23  En5
 BYTE   W09
 BYTE   TEMPO   84*FF10ToZanarkandAReliableChair_tbs/2
 BYTE   W09
 BYTE   TEMPO   82*FF10ToZanarkandAReliableChair_tbs/2
 BYTE   W02
 BYTE   TEMPO   78*FF10ToZanarkandAReliableChair_tbs/2
 BYTE   W04
// 024   ----------------------------------------
 BYTE   N44  Ds5
 BYTE   W18
 BYTE   TEMPO   82*FF10ToZanarkandAReliableChair_tbs/2
 BYTE   W01
 BYTE   TEMPO   84*FF10ToZanarkandAReliableChair_tbs/2
 BYTE   W05
 BYTE   TEMPO   88*FF10ToZanarkandAReliableChair_tbs/2
 BYTE   W24
 BYTE   Dn3  v040
 BYTE   N44  Bn3
 BYTE   W01
 BYTE   TEMPO   92*FF10ToZanarkandAReliableChair_tbs/2
 BYTE   W44
 BYTE   W03
// 025   ----------------------------------------
 BYTE   N19  Fs3  v044
 BYTE   N23  Bn3
 BYTE   N23  Fs4
 BYTE   W24
 BYTE   N19  Fs3
 BYTE   N23  Bn3
 BYTE   N23  Fs4
 BYTE   W24
 BYTE   N19  En3
 BYTE   N23  Gn3
 BYTE   N23  En4
 BYTE   W24
 BYTE   N19  Dn3
 BYTE   N23  Fs3
 BYTE   N23  Dn4
 BYTE   W24
// 026   ----------------------------------------
 BYTE   N44  En3
 BYTE   N44  An3
 BYTE   N44  Cs4
 BYTE   W42
 BYTE   W01
 BYTE   TEMPO   94*FF10ToZanarkandAReliableChair_tbs/2
 BYTE   W05
 BYTE   TEMPO   92*FF10ToZanarkandAReliableChair_tbs/2
 BYTE   N23  An3  v052
 BYTE   N23  Cs4
 BYTE   N23  Fs4
 BYTE   N23  An4
 BYTE   W02
 BYTE   TEMPO   88*FF10ToZanarkandAReliableChair_tbs/2
 BYTE   W02
 BYTE   TEMPO   84*FF10ToZanarkandAReliableChair_tbs/2
 BYTE   W20
 BYTE   TEMPO   88*FF10ToZanarkandAReliableChair_tbs/2
 BYTE   N68  An3  v048
 BYTE   N68  Cs4
 BYTE   N68  Fs4
 BYTE   N68  An4
 BYTE   W72
// 027   ----------------------------------------
 BYTE   N19  Cs4  v036
 BYTE   N19  En4
 BYTE   N23  Gs4
 BYTE   W02
 BYTE   TEMPO   84*FF10ToZanarkandAReliableChair_tbs/2
 BYTE   W22
 BYTE   En4  v044
 BYTE   W10
 BYTE   TEMPO   82*FF10ToZanarkandAReliableChair_tbs/2
 BYTE   W09
 BYTE   TEMPO   78*FF10ToZanarkandAReliableChair_tbs/2
 BYTE   W05
 BYTE   N19  En3  v040
 BYTE   N23  Cs4
 BYTE   W04
 BYTE   TEMPO   76*FF10ToZanarkandAReliableChair_tbs/2
 BYTE   W20
 BYTE   N36  Dn3  v032
 BYTE   N44  Bn3
 BYTE   W48
// 028   ----------------------------------------
 BYTE   N19  Dn3  v036
 BYTE   N19  Fs3
 BYTE   N23  Fs4
 BYTE   W24
 BYTE   N32  An3  v048
 BYTE   W36
 BYTE   N11  Fs3  v056
 BYTE   W12
 BYTE   N23  An3
 BYTE   W20
 BYTE   TEMPO   88*FF10ToZanarkandAReliableChair_tbs/2
 BYTE   W04
// 029   ----------------------------------------
 BYTE   TIE  Ds3  v040
 BYTE   TIE  Fs3
 BYTE   TIE  Bn3
 BYTE   W15
 BYTE   TEMPO   84*FF10ToZanarkandAReliableChair_tbs/2
 BYTE   W07
 BYTE   TEMPO   82*FF10ToZanarkandAReliableChair_tbs/2
 BYTE   W09
 BYTE   TEMPO   78*FF10ToZanarkandAReliableChair_tbs/2
 BYTE   W09
 BYTE   TEMPO   76*FF10ToZanarkandAReliableChair_tbs/2
 BYTE   W05
 BYTE   TEMPO   72*FF10ToZanarkandAReliableChair_tbs/2
 BYTE   W10
 BYTE   TEMPO   70*FF10ToZanarkandAReliableChair_tbs/2
 BYTE   W17
 BYTE   W66
// 030   ----------------------------------------
 BYTE   GoTo
  POIN2 Label_0_011EE8DA
// 031   ----------------------------------------
 BYTE   W06
 BYTE   W72
 BYTE   W68
// 032   ----------------------------------------
 BYTE   W03
 BYTE   EOT
 BYTE   Ds3  v066
 BYTE   Bn3
 BYTE   W01
 BYTE   FINE

//**************** Track 2 (Midi-Chn.1) ****************//

FF10ToZanarkandAReliableChair_002:
// 000   ----------------------------------------
 BYTE   KEYSH   FF10ToZanarkandAReliableChair_key+0
Label_1_011EEC2E:
 BYTE   VOICE   1
 BYTE   BENDR  104
 BYTE   PAN   c_v+0
 BYTE   VOL   55*FF10ToZanarkandAReliableChair_mvl/mxv
 BYTE   MODT 0
 BYTE   CnM2
 BYTE   LFOS 0
 BYTE   Gs1
 BYTE   W72
 BYTE   W72
// 001   ----------------------------------------
 BYTE   W72
 BYTE   W72
// 002   ----------------------------------------
 BYTE   N11  Cn3  v052
 BYTE   W12
 BYTE   Gn3  v044
 BYTE   W12
 BYTE   Dn4  v036
 BYTE   W12
 BYTE   Cn4  v044
 BYTE   W12
 BYTE   En4  v052
 BYTE   W12
 BYTE   Fs4  v056
 BYTE   W12
 BYTE   N68  En4  v044
 BYTE   N68  Gn4
 BYTE   W72
// 003   ----------------------------------------
 BYTE   N11  Bn2  v060
 BYTE   W12
 BYTE   Fs3  v052
 BYTE   W12
 BYTE   Bn3  v048
 BYTE   W12
 BYTE   Cs4  v044
 BYTE   W12
 BYTE   Dn4
 BYTE   W12
 BYTE   Fs4  v048
 BYTE   W12
 BYTE   N68  Bn4  v060
 BYTE   W72
// 004   ----------------------------------------
 BYTE   N11  An2  v068
 BYTE   W12
 BYTE   En3  v064
 BYTE   W12
 BYTE   Bn3
 BYTE   W12
 BYTE   An3
 BYTE   W12
 BYTE   Cn4
 BYTE   W12
 BYTE   Dn4  v060
 BYTE   W12
 BYTE   N68  An3  v048
 BYTE   N68  Cn4
 BYTE   N68  En4
 BYTE   W72
// 005   ----------------------------------------
 BYTE   N11  Fn2
 BYTE   W12
 BYTE   Cn3  v056
 BYTE   W12
 BYTE   Fn3  v060
 BYTE   W12
 BYTE   Gn3  v064
 BYTE   W12
 BYTE   An3  v072
 BYTE   W12
 BYTE   Cn4
 BYTE   W12
 BYTE   Fn4
 BYTE   W12
 BYTE   Cn4  v080
 BYTE   W12
// 006   ----------------------------------------
 BYTE   Fn4
 BYTE   W12
 BYTE   Gn4
 BYTE   W12
 BYTE   An4  v076
 BYTE   W12
 BYTE   Cn5
 BYTE   W12
 BYTE   En2  v088
 BYTE   W12
 BYTE   Bn2  v072
 BYTE   W12
 BYTE   En3  v064
 BYTE   W12
 BYTE   Fs3  v060
 BYTE   W12
// 007   ----------------------------------------
 BYTE   Gn3  v056
 BYTE   W12
 BYTE   An3
 BYTE   W12
 BYTE   Cn3  v076
 BYTE   W12
 BYTE   N23  Gn3  v060
 BYTE   W24
 BYTE   N11  Fs3  v056
 BYTE   W12
 BYTE   En3  v072
 BYTE   W12
 BYTE   Cn3
 BYTE   W12
// 008   ----------------------------------------
 BYTE   Dn2  v068
 BYTE   W12
 BYTE   An2  v052
 BYTE   W12
 BYTE   Dn3
 BYTE   W12
 BYTE   En3  v048
 BYTE   W12
 BYTE   Fs3
 BYTE   W12
 BYTE   Cn3  v056
 BYTE   W12
 BYTE   Gn1  v068
 BYTE   W12
 BYTE   Dn2  v044
 BYTE   W12
// 009   ----------------------------------------
 BYTE   Gn2
 BYTE   W12
 BYTE   An2
 BYTE   W12
 BYTE   Bn2
 BYTE   W12
 BYTE   Dn3
 BYTE   W12
 BYTE   En2  v068
 BYTE   W12
 BYTE   Bn2  v044
 BYTE   W12
 BYTE   En3
 BYTE   W12
 BYTE   Fs3
 BYTE   W12
// 010   ----------------------------------------
 BYTE   Gn3  v052
 BYTE   W12
 BYTE   An3  v056
 BYTE   W12
 BYTE   Cn3  v064
 BYTE   W12
 BYTE   N23  Gn3  v056
 BYTE   W24
 BYTE   N11  Fs3  v048
 BYTE   W12
 BYTE   En3
 BYTE   W12
 BYTE   Cn3  v056
 BYTE   W12
// 011   ----------------------------------------
 BYTE   Dn2  v068
 BYTE   W12
 BYTE   An2  v056
 BYTE   W12
 BYTE   Dn3
 BYTE   W12
 BYTE   En3  v060
 BYTE   W12
 BYTE   Fs3
 BYTE   W12
 BYTE   Cn3  v044
 BYTE   W12
 BYTE   Gn1  v072
 BYTE   W12
 BYTE   Dn2  v052
 BYTE   W12
// 012   ----------------------------------------
 BYTE   Gn2  v048
 BYTE   W12
 BYTE   An2
 BYTE   W12
 BYTE   Bn2  v056
 BYTE   W12
 BYTE   Dn3  v068
 BYTE   W12
 BYTE   En2  v076
 BYTE   W12
 BYTE   Bn2  v048
 BYTE   W12
 BYTE   En3
 BYTE   W12
 BYTE   Fs3
 BYTE   W12
// 013   ----------------------------------------
 BYTE   Gn3  v056
 BYTE   W12
 BYTE   An3  v060
 BYTE   W12
 BYTE   Cn3
 BYTE   W12
 BYTE   N23  Gn3  v052
 BYTE   W24
 BYTE   N11  Fs3
 BYTE   W12
 BYTE   En3
 BYTE   W12
 BYTE   Cn3
 BYTE   W12
// 014   ----------------------------------------
 BYTE   Dn2  v072
 BYTE   W12
 BYTE   An2  v060
 BYTE   W12
 BYTE   Dn3  v056
 BYTE   W12
 BYTE   En3
 BYTE   W12
 BYTE   Fs3
 BYTE   W12
 BYTE   Cn3
 BYTE   W12
 BYTE   Gn1  v068
 BYTE   W12
 BYTE   Dn2  v056
 BYTE   W12
// 015   ----------------------------------------
 BYTE   Gn2
 BYTE   W12
 BYTE   An2  v060
 BYTE   W12
 BYTE   Bn2  v064
 BYTE   W12
 BYTE   Fs2
 BYTE   W12
 BYTE   Cn2  v080
 BYTE   W12
 BYTE   Gn2  v056
 BYTE   W12
 BYTE   Cn3  v048
 BYTE   W12
 BYTE   Gn2  v056
 BYTE   W12
// 016   ----------------------------------------
 BYTE   Bn2  v060
 BYTE   W12
 BYTE   Gn2  v068
 BYTE   W12
 BYTE   N68  Dn2  v028
 BYTE   N68  Gn2
 BYTE   W72
// 017   ----------------------------------------
 BYTE   N11  An1  v068
 BYTE   W12
 BYTE   En2  v044
 BYTE   W12
 BYTE   An2  v048
 BYTE   W12
 BYTE   Bn2
 BYTE   W12
 BYTE   N23  Cn3  v052
 BYTE   W24
 BYTE   TIE  Cn2  v088
 BYTE   W72
// 018   ----------------------------------------
 BYTE   W44
 BYTE   W03
 BYTE   EOT
 BYTE   W24
 BYTE   W01
 BYTE   N11  An2  v048
 BYTE   W12
 BYTE   En3
 BYTE   W12
// 019   ----------------------------------------
 BYTE   An3  v028
 BYTE   W12
 BYTE   Bn3  v032
 BYTE   W12
 BYTE   Cn4
 BYTE   W12
 BYTE   En4  v028
 BYTE   W12
 BYTE   Fn2  v060
 BYTE   W12
 BYTE   Cn3  v032
 BYTE   W12
 BYTE   Fn3  v036
 BYTE   W12
 BYTE   Gn3
 BYTE   W12
// 020   ----------------------------------------
 BYTE   An3
 BYTE   W12
 BYTE   Cn4  v032
 BYTE   W12
 BYTE   Gn2  v056
 BYTE   W12
 BYTE   Dn3  v048
 BYTE   W12
 BYTE   Gn3  v044
 BYTE   W12
 BYTE   An3
 BYTE   W12
 BYTE   Bn3
 BYTE   W12
 BYTE   Dn4
 BYTE   W12
// 021   ----------------------------------------
 BYTE   En2  v052
 BYTE   W12
 BYTE   Bn2  v040
 BYTE   W12
 BYTE   En3
 BYTE   W12
 BYTE   Fs3
 BYTE   W12
 BYTE   Gn3
 BYTE   W12
 BYTE   Bn3  v032
 BYTE   W12
 BYTE   Bn1  v060
 BYTE   W12
 BYTE   Fs2  v040
 BYTE   W12
// 022   ----------------------------------------
 BYTE   Bn2
 BYTE   W12
 BYTE   Cs3
 BYTE   W12
 BYTE   Dn3
 BYTE   W12
 BYTE   En3  v036
 BYTE   W12
 BYTE   N68  Fs3
 BYTE   W72
// 023   ----------------------------------------
 BYTE   N11  An2  v052
 BYTE   W12
 BYTE   En3  v040
 BYTE   W12
 BYTE   An3  v036
 BYTE   W12
 BYTE   Bn3
 BYTE   W12
 BYTE   Cn4  v032
 BYTE   W12
 BYTE   An3
 BYTE   W12
 BYTE   N44  Bn2  v036
 BYTE   W48
// 024   ----------------------------------------
 BYTE   N11  Bn2  v032
 BYTE   W12
 BYTE   An2  v024
 BYTE   W12
 BYTE   Bn1  v060
 BYTE   W12
 BYTE   Fs2  v044
 BYTE   W12
 BYTE   Bn2  v048
 BYTE   W12
 BYTE   Cs3  v052
 BYTE   W12
 BYTE   Dn3  v048
 BYTE   W12
 BYTE   Fs2
 BYTE   W12
// 025   ----------------------------------------
 BYTE   Gn1  v060
 BYTE   W12
 BYTE   Dn2  v048
 BYTE   W12
 BYTE   Gn2
 BYTE   W12
 BYTE   An2
 BYTE   W12
 BYTE   Bn2
 BYTE   W12
 BYTE   Dn2
 BYTE   W12
 BYTE   An1  v056
 BYTE   W12
 BYTE   En2  v044
 BYTE   W12
// 026   ----------------------------------------
 BYTE   An2
 BYTE   W12
 BYTE   Bn2  v048
 BYTE   W12
 BYTE   Cs3
 BYTE   W12
 BYTE   En2  v044
 BYTE   W12
 BYTE   Fs1  v056
 BYTE   W12
 BYTE   Cs2  v044
 BYTE   W12
 BYTE   Fs2
 BYTE   W12
 BYTE   Gs2  v048
 BYTE   W12
// 027   ----------------------------------------
 BYTE   An2
 BYTE   W12
 BYTE   Bn2
 BYTE   W12
 BYTE   N68  Cs2  v044
 BYTE   W72
// 028   ----------------------------------------
 BYTE   Gn1  v036
 BYTE   W72
 BYTE   N36  An2  v044
 BYTE   N44  Cs3
 BYTE   N44  Fs3
 BYTE   W48
// 029   ----------------------------------------
 BYTE   N23  En3  v024
 BYTE   W24
 BYTE   N11  Bn1  v056
 BYTE   W12
 BYTE   Bn1  v040
 BYTE   W12
 BYTE   Ds2  v044
 BYTE   W12
 BYTE   Fs2  v048
 BYTE   W12
 BYTE   Bn2
 BYTE   W12
 BYTE   Ds3  v056
 BYTE   W12
// 030   ----------------------------------------
 BYTE   N72  Fs3
 BYTE   W66
 BYTE   GoTo
  POIN2 Label_1_011EEC2E
// 031   ----------------------------------------
 BYTE   W06
 BYTE   W72
 BYTE   W72
 BYTE   FINE

//**************** Track 3 (Midi-Chn.2) ****************//

FF10ToZanarkandAReliableChair_003:
// 000   ----------------------------------------
 BYTE   KEYSH   FF10ToZanarkandAReliableChair_key+0
Label_2_011EEE72:
 BYTE   VOICE   1
 BYTE   BENDR  104
 BYTE   PAN   c_v+0
 BYTE   VOL   85*FF10ToZanarkandAReliableChair_mvl/mxv
 BYTE   MODT 0
 BYTE   CnM2
 BYTE   LFOS 0
 BYTE   Gs1
 BYTE   N36  En3  v056
 BYTE   N36  En4
 BYTE   W48
 BYTE   N19  Dn3  v064
 BYTE   N19  Dn4
 BYTE   W24
 BYTE   N56  Cn3  v056
 BYTE   N56  Cn4
 BYTE   W72
// 001   ----------------------------------------
 BYTE   N36  Dn3  v060
 BYTE   N36  Dn4
 BYTE   W48
 BYTE   N19  Cn3
 BYTE   N19  Cn4
 BYTE   W24
 BYTE   N56  Bn2  v048
 BYTE   N56  Bn3
 BYTE   W72
// 002   ----------------------------------------
 BYTE   W72
 BYTE   W72
// 003   ----------------------------------------
 BYTE   W72
 BYTE   W72
// 004   ----------------------------------------
 BYTE   W72
 BYTE   W72
// 005   ----------------------------------------
 BYTE   W72
 BYTE   W72
// 006   ----------------------------------------
 BYTE   W72
 BYTE   W72
// 007   ----------------------------------------
 BYTE   W72
 BYTE   W72
// 008   ----------------------------------------
 BYTE   W72
 BYTE   W72
// 009   ----------------------------------------
 BYTE   W72
 BYTE   W72
// 010   ----------------------------------------
 BYTE   W72
 BYTE   W72
// 011   ----------------------------------------
 BYTE   W72
 BYTE   W72
// 012   ----------------------------------------
 BYTE   W72
 BYTE   W72
// 013   ----------------------------------------
 BYTE   W72
 BYTE   W72
// 014   ----------------------------------------
 BYTE   W72
 BYTE   W72
// 015   ----------------------------------------
 BYTE   W72
 BYTE   W72
// 016   ----------------------------------------
 BYTE   W72
 BYTE   W72
// 017   ----------------------------------------
 BYTE   W72
 BYTE   W72
// 018   ----------------------------------------
 BYTE   W72
 BYTE   W72
// 019   ----------------------------------------
 BYTE   W72
 BYTE   W72
// 020   ----------------------------------------
 BYTE   W72
 BYTE   W72
// 021   ----------------------------------------
 BYTE   W72
 BYTE   W72
// 022   ----------------------------------------
 BYTE   W72
 BYTE   W66
// 023   ----------------------------------------
 BYTE   GoTo
  POIN2 Label_2_011EEE72
// 024   ----------------------------------------
 BYTE   W06
 BYTE   W72
 BYTE   W72
 BYTE   FINE

//******************************************************//
	ALIGN 4

FF10ToZanarkandAReliableChair:
	BYTE	3	// NumTrks
	BYTE	0	// NumBlks
	BYTE	FF10ToZanarkandAReliableChair_pri	// Priority
	BYTE	FF10ToZanarkandAReliableChair_rev	// Reverb.
    
	POIN2	FF10ToZanarkandAReliableChair_grp
    
	POIN2	FF10ToZanarkandAReliableChair_001
	POIN2	FF10ToZanarkandAReliableChair_002
	POIN2	FF10ToZanarkandAReliableChair_003

	
