//Event file generated from Sappy .s format.
	#include "MPlayDef.event"

	#define	FF3Battle1RSflame_grp  voicegroup000
	#define	FF3Battle1RSflame_pri  0
	#define	FF3Battle1RSflame_rev  0
	#define	FF3Battle1RSflame_mvl  127
	#define	FF3Battle1RSflame_key  0
	#define	FF3Battle1RSflame_tbs  1
	#define	FF3Battle1RSflame_exg  0
	#define	FF3Battle1RSflame_cmp  1

	// .rodata
	//	FF3Battle1RSflame
	ALIGN 4


//**************** Track 1 (Midi-Chn.0) ****************//

FF3Battle1RSflame_001:
// 000   ----------------------------------------
 BYTE   KEYSH   FF3Battle1RSflame_key+0
 BYTE   TEMPO   156*FF3Battle1RSflame_tbs/2
 BYTE   VOICE   50
 BYTE   VOL   53*FF3Battle1RSflame_mvl/mxv
 BYTE   PAN   c_v+63
 BYTE   N03  Fn1  v108
 BYTE   W04
 BYTE   Gs1
 BYTE   W04
 BYTE   Bn1
 BYTE   W04
 BYTE   Dn2
 BYTE   W04
 BYTE   Fn2
 BYTE   W04
 BYTE   Gs2
 BYTE   W04
 BYTE   Bn2
 BYTE   W04
 BYTE   Dn3
 BYTE   W04
 BYTE   Fn3
 BYTE   W04
 BYTE   Gs3
 BYTE   W04
 BYTE   Bn3
 BYTE   W04
 BYTE   Dn4
 BYTE   W52
// 001   ----------------------------------------
 BYTE   W96
// 002   ----------------------------------------
 BYTE   W48
 BYTE   N64  An2  v127
 BYTE   W48
// 003   ----------------------------------------
Label_0_01EA605A:
 BYTE   W24
 BYTE   N21  Bn2  v127
 BYTE   W24
 BYTE   N64  Cn3
 BYTE   W48
 BYTE   PEND 
// 004   ----------------------------------------
Label_0_01EA6063:
 BYTE   W24
 BYTE   N21  Dn3  v127
 BYTE   W24
 BYTE   En3
 BYTE   W24
 BYTE   An3
 BYTE   W24
 BYTE   PEND 
// 005   ----------------------------------------
Label_0_01EA606D:
 BYTE   N21  Gn3  v127
 BYTE   W24
 BYTE   En3
 BYTE   W24
 BYTE   N10  Fs3
 BYTE   W12
 BYTE   Dn3
 BYTE   W36
 BYTE   PEND 
// 006   ----------------------------------------
 BYTE   W48
Label_0_01EA607A:
 BYTE   N21  Fn3  v127
 BYTE   W24
 BYTE   Cn3
 BYTE   W24
// 007   ----------------------------------------
Label_0_01EA6080:
 BYTE   N21  An2  v127
 BYTE   W24
 BYTE   Fn3
 BYTE   W24
 BYTE   En3
 BYTE   W24
 BYTE   Bn2
 BYTE   W24
 BYTE   PEND 
// 008   ----------------------------------------
 BYTE   Gs2
 BYTE   W24
 BYTE   En3
 BYTE   W24
 BYTE   Dn3
 BYTE   W24
 BYTE   Cn3
 BYTE   W24
// 009   ----------------------------------------
 BYTE   An2
 BYTE   W24
 BYTE   Cn3
 BYTE   W24
 BYTE   N10  Bn2
 BYTE   W48
// 010   ----------------------------------------
 BYTE   W36
 BYTE   En2
 BYTE   W12
 BYTE   N64  An2
 BYTE   W48
// 011   ----------------------------------------
 BYTE   PATT
  POIN2 Label_0_01EA605A
// 012   ----------------------------------------
 BYTE   PATT
  POIN2 Label_0_01EA6063
// 013   ----------------------------------------
 BYTE   PATT
  POIN2 Label_0_01EA606D
// 014   ----------------------------------------
 BYTE   W48
 BYTE   N21  Fn3  v127
 BYTE   W24
 BYTE   Cn3
 BYTE   W24
// 015   ----------------------------------------
 BYTE   PATT
  POIN2 Label_0_01EA6080
// 016   ----------------------------------------
 BYTE   N21  Gs2  v127
 BYTE   W24
 BYTE   Bn2
 BYTE   W24
 BYTE   TIE  An2
 BYTE   W48
// 017   ----------------------------------------
 BYTE   W96
// 018   ----------------------------------------
 BYTE   W16
 BYTE   EOT
 BYTE   W32
 BYTE   N42  Dn3
 BYTE   W48
// 019   ----------------------------------------
 BYTE   En3
 BYTE   W48
 BYTE   Fn3
 BYTE   W48
// 020   ----------------------------------------
 BYTE   Dn3
 BYTE   W48
 BYTE   N10  Cn3  v092
 BYTE   W12
 BYTE   Dn3
 BYTE   W12
 BYTE   En3
 BYTE   W12
 BYTE   An2
 BYTE   W12
// 021   ----------------------------------------
 BYTE   Bn2
 BYTE   W12
 BYTE   Cn3
 BYTE   W24
 BYTE   N10
 BYTE   W12
 BYTE   En3
 BYTE   W12
 BYTE   An2
 BYTE   W12
 BYTE   Bn2
 BYTE   W12
 BYTE   N54  Cn3
 BYTE   W12
// 022   ----------------------------------------
 BYTE   W48
 BYTE   N42  Dn3  v127
 BYTE   W48
// 023   ----------------------------------------
 BYTE   En3
 BYTE   W48
 BYTE   Fn3
 BYTE   W48
// 024   ----------------------------------------
 BYTE   Dn3
 BYTE   W48
 BYTE   N06  An2  v112
 BYTE   W12
 BYTE   Bn2
 BYTE   W12
 BYTE   N21  Cn3
 BYTE   W24
// 025   ----------------------------------------
 BYTE   N06  Bn2
 BYTE   W12
 BYTE   Cn3
 BYTE   W12
 BYTE   N21  Dn3
 BYTE   W24
 BYTE   N06  Cn3
 BYTE   W12
 BYTE   Dn3
 BYTE   W12
 BYTE   N21  En3
 BYTE   W24
// 026   ----------------------------------------
 BYTE   N10  Dn3
 BYTE   W12
 BYTE   En3
 BYTE   W12
 BYTE   Fn3
 BYTE   W12
 BYTE   An3
 BYTE   W12
 BYTE   N84  Gs3
 BYTE   W48
// 027   ----------------------------------------
 BYTE   W48
 BYTE   En3
 BYTE   W48
// 028   ----------------------------------------
 BYTE   W48
 BYTE   N64  An2  v127
 BYTE   W48
// 029   ----------------------------------------
 BYTE   PATT
  POIN2 Label_0_01EA605A
// 030   ----------------------------------------
 BYTE   PATT
  POIN2 Label_0_01EA6063
// 031   ----------------------------------------
 BYTE   PATT
  POIN2 Label_0_01EA606D
// 032   ----------------------------------------
 BYTE   W48
 BYTE   GoTo
  POIN2 Label_0_01EA607A
 BYTE   FINE

//**************** Track 2 (Midi-Chn.1) ****************//

FF3Battle1RSflame_002:
// 000   ----------------------------------------
 BYTE   KEYSH   FF3Battle1RSflame_key+0
 BYTE   VOICE   2
 BYTE   PAN   c_v+0
 BYTE   VOL   60*FF3Battle1RSflame_mvl/mxv
 BYTE   N01  Fn1  v108
 BYTE   W04
 BYTE   Gs1
 BYTE   W04
 BYTE   Bn1
 BYTE   W04
 BYTE   Dn2
 BYTE   W04
 BYTE   Fn2
 BYTE   W04
 BYTE   Gs2
 BYTE   W04
 BYTE   Bn2
 BYTE   W04
 BYTE   Dn3
 BYTE   W04
 BYTE   Fn3
 BYTE   W04
 BYTE   Gs3
 BYTE   W04
 BYTE   Bn3
 BYTE   W04
 BYTE   Dn4
 BYTE   W52
// 001   ----------------------------------------
 BYTE   W96
// 002   ----------------------------------------
 BYTE   W48
 BYTE   An2  v112
 BYTE   W48
// 003   ----------------------------------------
Label_1_01EA5D63:
 BYTE   W24
 BYTE   N01  Bn2  v112
 BYTE   W24
 BYTE   Cn3
 BYTE   W48
 BYTE   PEND 
// 004   ----------------------------------------
Label_1_01EA5D6B:
 BYTE   W24
 BYTE   N01  Dn3  v112
 BYTE   W24
 BYTE   En3
 BYTE   W24
 BYTE   An3
 BYTE   W24
 BYTE   PEND 
// 005   ----------------------------------------
Label_1_01EA5D75:
 BYTE   N01  Gn3  v112
 BYTE   W24
 BYTE   En3
 BYTE   W24
 BYTE   Fs3
 BYTE   W12
 BYTE   Dn3
 BYTE   W36
 BYTE   PEND 
// 006   ----------------------------------------
 BYTE   W48
Label_1_01EA5D81:
 BYTE   N01  Fn3  v112
 BYTE   W24
 BYTE   Cn3
 BYTE   W24
// 007   ----------------------------------------
Label_1_01EA5D87:
 BYTE   N01  An2  v112
 BYTE   W24
 BYTE   Fn3
 BYTE   W24
 BYTE   En3
 BYTE   W24
 BYTE   Bn2
 BYTE   W24
 BYTE   PEND 
// 008   ----------------------------------------
 BYTE   Gs2
 BYTE   W24
 BYTE   En3
 BYTE   W24
 BYTE   Dn3
 BYTE   W24
 BYTE   Cn3
 BYTE   W24
// 009   ----------------------------------------
 BYTE   An2
 BYTE   W24
 BYTE   Cn3
 BYTE   W24
 BYTE   Bn2
 BYTE   W48
// 010   ----------------------------------------
 BYTE   W36
 BYTE   En2
 BYTE   W12
 BYTE   An2
 BYTE   W48
// 011   ----------------------------------------
 BYTE   PATT
  POIN2 Label_1_01EA5D63
// 012   ----------------------------------------
 BYTE   PATT
  POIN2 Label_1_01EA5D6B
// 013   ----------------------------------------
 BYTE   PATT
  POIN2 Label_1_01EA5D75
// 014   ----------------------------------------
 BYTE   W48
 BYTE   N01  Fn3  v112
 BYTE   W24
 BYTE   Cn3
 BYTE   W24
// 015   ----------------------------------------
 BYTE   PATT
  POIN2 Label_1_01EA5D87
// 016   ----------------------------------------
 BYTE   N01  Gs2  v112
 BYTE   W24
 BYTE   Bn2
 BYTE   W24
 BYTE   An2
 BYTE   W48
// 017   ----------------------------------------
 BYTE   W96
// 018   ----------------------------------------
 BYTE   W48
 BYTE   Dn3
 BYTE   W48
// 019   ----------------------------------------
 BYTE   En3
 BYTE   W48
 BYTE   Fn3
 BYTE   W48
// 020   ----------------------------------------
 BYTE   Dn3
 BYTE   W48
 BYTE   Cn3
 BYTE   W12
 BYTE   Dn3
 BYTE   W12
 BYTE   En3
 BYTE   W12
 BYTE   An2
 BYTE   W12
// 021   ----------------------------------------
 BYTE   Bn2
 BYTE   W12
 BYTE   Cn3
 BYTE   W24
 BYTE   N01
 BYTE   W12
 BYTE   En3
 BYTE   W12
 BYTE   An2
 BYTE   W12
 BYTE   Bn2
 BYTE   W12
 BYTE   Cn3
 BYTE   W12
// 022   ----------------------------------------
 BYTE   W48
 BYTE   Dn3
 BYTE   W48
// 023   ----------------------------------------
 BYTE   En3
 BYTE   W48
 BYTE   Fn3
 BYTE   W48
// 024   ----------------------------------------
 BYTE   Dn3
 BYTE   W48
 BYTE   An2
 BYTE   W12
 BYTE   Bn2
 BYTE   W12
 BYTE   Cn3
 BYTE   W24
// 025   ----------------------------------------
 BYTE   Bn2
 BYTE   W12
 BYTE   Cn3
 BYTE   W12
 BYTE   Dn3
 BYTE   W24
 BYTE   Cn3
 BYTE   W12
 BYTE   Dn3
 BYTE   W12
 BYTE   En3
 BYTE   W24
// 026   ----------------------------------------
 BYTE   Dn3
 BYTE   W12
 BYTE   En3
 BYTE   W12
 BYTE   Fn3
 BYTE   W12
 BYTE   An3
 BYTE   W12
 BYTE   Gs3
 BYTE   W48
// 027   ----------------------------------------
 BYTE   W48
 BYTE   En3
 BYTE   W48
// 028   ----------------------------------------
 BYTE   W48
 BYTE   An2
 BYTE   W48
// 029   ----------------------------------------
 BYTE   PATT
  POIN2 Label_1_01EA5D63
// 030   ----------------------------------------
 BYTE   PATT
  POIN2 Label_1_01EA5D6B
// 031   ----------------------------------------
 BYTE   PATT
  POIN2 Label_1_01EA5D75
// 032   ----------------------------------------
 BYTE   W48
 BYTE   GoTo
  POIN2 Label_1_01EA5D81
 BYTE   FINE

//**************** Track 3 (Midi-Chn.2) ****************//

FF3Battle1RSflame_003:
// 000   ----------------------------------------
 BYTE   KEYSH   FF3Battle1RSflame_key+0
 BYTE   VOICE   73
 BYTE   PAN   c_v+0
 BYTE   VOL   54*FF3Battle1RSflame_mvl/mxv
 BYTE   W24
 BYTE   N03  Gs2  v096
 BYTE   W04
 BYTE   Bn2
 BYTE   W04
 BYTE   Dn3
 BYTE   W01
 BYTE   N06  En0  v120
 BYTE   W03
 BYTE   N03  Fn3  v096
 BYTE   W04
 BYTE   Gs3
 BYTE   W04
 BYTE   Bn3
 BYTE   W04
 BYTE   N06  Dn1  v092
 BYTE   W05
 BYTE   Cs1  v052
 BYTE   W06
 BYTE   Dn1  v072
 BYTE   W06
 BYTE   Cs1  v056
 BYTE   W06
 BYTE   Dn1  v127
 BYTE   W07
 BYTE   Cs1  v060
 BYTE   W06
 BYTE   Dn1  v072
 BYTE   W05
 BYTE   Cs1  v048
 BYTE   W07
// 001   ----------------------------------------
Label_2_01EA6252:
 BYTE   N06  Dn1  v064
 BYTE   W05
 BYTE   Cs1  v060
 BYTE   W06
 BYTE   Dn1
 BYTE   W07
 BYTE   Cs1
 BYTE   W05
 BYTE   Dn1  v127
 BYTE   W06
 BYTE   Cs1  v060
 BYTE   W07
 BYTE   Dn1  v072
 BYTE   W05
 BYTE   Cs1  v048
 BYTE   W06
 BYTE   Dn1  v092
 BYTE   W06
 BYTE   Cs1  v052
 BYTE   W06
 BYTE   Dn1  v072
 BYTE   W06
 BYTE   Cs1  v056
 BYTE   W06
 BYTE   Dn1  v127
 BYTE   W06
 BYTE   Cs1  v060
 BYTE   W06
 BYTE   Dn1  v072
 BYTE   W07
 BYTE   Cs1  v048
 BYTE   W06
 BYTE   PEND 
// 002   ----------------------------------------
 BYTE   Dn1  v060
 BYTE   W06
 BYTE   Cs1  v092
 BYTE   W05
 BYTE   Dn1  v060
 BYTE   W07
 BYTE   Cs1
 BYTE   W05
 BYTE   Dn1  v127
 BYTE   W06
 BYTE   Cs1  v060
 BYTE   W07
 BYTE   Dn1  v072
 BYTE   W06
 BYTE   Cs1  v048
 BYTE   W06
 BYTE   Dn1  v092
 BYTE   W05
 BYTE   Cs1  v052
 BYTE   W06
 BYTE   Dn1  v072
 BYTE   W06
 BYTE   Cs1  v056
 BYTE   W06
 BYTE   Dn1  v127
 BYTE   W07
 BYTE   Cs1  v060
 BYTE   W06
 BYTE   Dn1  v072
 BYTE   W05
 BYTE   Cs1  v048
 BYTE   W07
// 003   ----------------------------------------
 BYTE   PATT
  POIN2 Label_2_01EA6252
// 004   ----------------------------------------
Label_2_01EA62B6:
 BYTE   N06  Dn1  v060
 BYTE   W06
 BYTE   Cs1  v092
 BYTE   W05
 BYTE   Dn1  v060
 BYTE   W07
 BYTE   Cs1
 BYTE   W05
 BYTE   Dn1  v127
 BYTE   W06
 BYTE   Cs1  v060
 BYTE   W07
 BYTE   Dn1  v072
 BYTE   W06
 BYTE   Cs1  v048
 BYTE   W06
 BYTE   Dn1  v092
 BYTE   W05
 BYTE   Cs1  v052
 BYTE   W06
 BYTE   Dn1  v072
 BYTE   W06
 BYTE   Cs1  v056
 BYTE   W06
 BYTE   Dn1  v127
 BYTE   W07
 BYTE   Cs1  v060
 BYTE   W06
 BYTE   Dn1  v088
 BYTE   W05
 BYTE   Cs1  v060
 BYTE   W07
 BYTE   PEND 
// 005   ----------------------------------------
Label_2_01EA62E7:
 BYTE   N06  Dn1  v068
 BYTE   W05
 BYTE   Cs1  v076
 BYTE   W06
 BYTE   Dn1  v084
 BYTE   W07
 BYTE   Cs1  v092
 BYTE   W05
 BYTE   Dn1  v100
 BYTE   W06
 BYTE   Cs1  v108
 BYTE   W07
 BYTE   Dn1  v112
 BYTE   W05
 BYTE   Cs1  v120
 BYTE   W06
 BYTE   Dn1  v124
 BYTE   W06
 BYTE   Cs1  v052
 BYTE   W06
 BYTE   Dn1  v124
 BYTE   W06
 BYTE   Cs1  v044
 BYTE   W04
 BYTE   N05  An3  v120
 BYTE   W02
 BYTE   N06  Dn1  v040
 BYTE   W04
 BYTE   N05  Bn3  v120
 BYTE   W02
 BYTE   N06  Cs1  v044
 BYTE   W04
 BYTE   N05  Cn4  v120
 BYTE   W02
 BYTE   N06  Dn1  v096
 BYTE   W04
 BYTE   N05  Dn4  v120
 BYTE   W03
 BYTE   N06  Cs1  v080
 BYTE   W03
 BYTE   N05  Cn4  v120
 BYTE   W03
 BYTE   PEND 
// 006   ----------------------------------------
Label_2_01EA6331:
 BYTE   N06  Dn1  v127
 BYTE   W03
 BYTE   N05  Bn3  v120
 BYTE   W03
 BYTE   N06  Cs1  v108
 BYTE   W03
 BYTE   N05  An3  v120
 BYTE   W02
 BYTE   N06  Dn1  v056
 BYTE   W04
 BYTE   N05  Gn3  v120
 BYTE   W03
 BYTE   N06  Cs1  v084
 BYTE   W03
 BYTE   N05  Fn3  v120
 BYTE   W02
 BYTE   N06  Dn1  v127
 BYTE   W04
 BYTE   N05  En3  v120
 BYTE   W02
 BYTE   N06  Cs1  v040
 BYTE   W04
 BYTE   Dn3  v120
 BYTE   W03
 BYTE   Dn1  v048
 BYTE   W04
 BYTE   Cn3  v120
 BYTE   W02
 BYTE   Cs1  v040
 BYTE   W06
 BYTE   PEND 
Label_2_01EA636A:
 BYTE   N06  Dn1  v127
 BYTE   W05
 BYTE   Cs1  v052
 BYTE   W06
 BYTE   Dn1  v124
 BYTE   W06
 BYTE   Cs1  v048
 BYTE   W06
 BYTE   Dn1  v056
 BYTE   W07
 BYTE   Cs1  v052
 BYTE   W06
 BYTE   Dn1  v120
 BYTE   W05
 BYTE   Cs1  v048
 BYTE   W07
// 007   ----------------------------------------
Label_2_01EA6383:
 BYTE   N06  Dn1  v127
 BYTE   W05
 BYTE   Cs1  v060
 BYTE   W06
 BYTE   Dn1  v080
 BYTE   W07
 BYTE   Cs1  v088
 BYTE   W05
 BYTE   Dn1  v127
 BYTE   W06
 BYTE   Cs1  v044
 BYTE   W07
 BYTE   Dn1  v052
 BYTE   W05
 BYTE   Cs1  v048
 BYTE   W06
 BYTE   Dn1  v127
 BYTE   W06
 BYTE   Cs1  v052
 BYTE   W06
 BYTE   Dn1  v127
 BYTE   W06
 BYTE   Cs1  v044
 BYTE   W06
 BYTE   Dn1  v048
 BYTE   W06
 BYTE   Cs1  v044
 BYTE   W06
 BYTE   Dn1  v100
 BYTE   W07
 BYTE   Cs1  v108
 BYTE   W06
 BYTE   PEND 
// 008   ----------------------------------------
 BYTE   Dn1  v127
 BYTE   W06
 BYTE   Cs1  v076
 BYTE   W05
 BYTE   Dn1  v096
 BYTE   W07
 BYTE   Cs1  v116
 BYTE   W05
 BYTE   Dn1  v127
 BYTE   W06
 BYTE   Cs1  v124
 BYTE   W07
 BYTE   Dn1  v127
 BYTE   W06
 BYTE   Cs1  v120
 BYTE   W06
 BYTE   Dn1  v127
 BYTE   W05
 BYTE   Cs1  v052
 BYTE   W06
 BYTE   Dn1  v072
 BYTE   W06
 BYTE   Cs1  v056
 BYTE   W06
 BYTE   Dn1  v127
 BYTE   W07
 BYTE   Cs1  v060
 BYTE   W06
 BYTE   Dn1  v072
 BYTE   W05
 BYTE   Cs1  v048
 BYTE   W07
// 009   ----------------------------------------
 BYTE   Dn1  v127
 BYTE   W05
 BYTE   Cs1  v060
 BYTE   W06
 BYTE   Dn1
 BYTE   W07
 BYTE   Cs1  v084
 BYTE   W05
 BYTE   Dn1  v096
 BYTE   W06
 BYTE   Cs1  v104
 BYTE   W07
 BYTE   Dn1  v112
 BYTE   W05
 BYTE   Cs1  v120
 BYTE   W06
 BYTE   N05  Dn1  v127
 BYTE   W01
 BYTE   N92  En2  v120
 BYTE   W12
 BYTE   N10  Ds4
 BYTE   W12
 BYTE   N05  En4
 BYTE   W12
 BYTE   N10  Bn3
 BYTE   W12
// 010   ----------------------------------------
 BYTE   N05  Cn4
 BYTE   W12
 BYTE   N10  Gs3
 BYTE   W11
 BYTE   N06  Dn1  v080
 BYTE   W01
 BYTE   N10  An3  v120
 BYTE   W05
 BYTE   N06  Cs1  v096
 BYTE   W07
 BYTE   Dn1  v108
 BYTE   N05  En3  v120
 BYTE   W06
 BYTE   N06  Cs1  v124
 BYTE   W06
 BYTE   Dn1  v127
 BYTE   W05
 BYTE   Cs1  v052
 BYTE   W06
 BYTE   Dn1  v072
 BYTE   W06
 BYTE   Cs1  v056
 BYTE   W06
 BYTE   Dn1  v127
 BYTE   W07
 BYTE   Cs1  v060
 BYTE   W06
 BYTE   Dn1  v072
 BYTE   W05
 BYTE   Cs1  v048
 BYTE   W07
// 011   ----------------------------------------
 BYTE   PATT
  POIN2 Label_2_01EA6252
// 012   ----------------------------------------
 BYTE   PATT
  POIN2 Label_2_01EA62B6
// 013   ----------------------------------------
 BYTE   PATT
  POIN2 Label_2_01EA62E7
// 014   ----------------------------------------
 BYTE   N06  Dn1  v127
 BYTE   W03
 BYTE   N05  Bn3  v120
 BYTE   W03
 BYTE   N06  Cs1  v108
 BYTE   W03
 BYTE   N05  An3  v120
 BYTE   W02
 BYTE   N06  Dn1  v056
 BYTE   W04
 BYTE   N05  Gn3  v120
 BYTE   W03
 BYTE   N06  Cs1  v084
 BYTE   W03
 BYTE   N05  Fn3  v120
 BYTE   W02
 BYTE   N06  Dn1  v127
 BYTE   W04
 BYTE   N05  En3  v120
 BYTE   W02
 BYTE   N06  Cs1  v040
 BYTE   W04
 BYTE   N05  Dn3  v120
 BYTE   W03
 BYTE   N06  Dn1  v048
 BYTE   W03
 BYTE   N07  Cn3  v120
 BYTE   W03
 BYTE   N06  Cs1  v040
 BYTE   W06
 BYTE   Dn1  v127
 BYTE   W05
 BYTE   Cs1  v052
 BYTE   W06
 BYTE   Dn1  v124
 BYTE   W06
 BYTE   Cs1  v048
 BYTE   W06
 BYTE   Dn1  v056
 BYTE   W07
 BYTE   Cs1  v052
 BYTE   W06
 BYTE   Dn1  v120
 BYTE   W05
 BYTE   Cs1  v048
 BYTE   W07
// 015   ----------------------------------------
 BYTE   PATT
  POIN2 Label_2_01EA6383
// 016   ----------------------------------------
 BYTE   N06  Dn1  v127
 BYTE   W06
 BYTE   Cs1  v076
 BYTE   W05
 BYTE   Dn1  v096
 BYTE   W07
 BYTE   Cs1  v116
 BYTE   W05
 BYTE   Dn1  v127
 BYTE   W06
 BYTE   Cs1  v124
 BYTE   W07
 BYTE   Dn1  v127
 BYTE   W06
 BYTE   Cs1  v120
 BYTE   W06
 BYTE   Dn1  v092
 BYTE   W05
 BYTE   Cs1  v052
 BYTE   W06
 BYTE   Dn1  v072
 BYTE   W06
 BYTE   Cs1  v056
 BYTE   W06
 BYTE   Dn1  v127
 BYTE   W07
 BYTE   Cs1  v060
 BYTE   W06
 BYTE   Dn1  v072
 BYTE   W05
 BYTE   Cs1  v048
 BYTE   W07
// 017   ----------------------------------------
 BYTE   PATT
  POIN2 Label_2_01EA6252
// 018   ----------------------------------------
 BYTE   N06  Dn1  v060
 BYTE   W06
 BYTE   Cs1  v068
 BYTE   W05
 BYTE   Dn1  v076
 BYTE   W07
 BYTE   Cs1  v088
 BYTE   W05
 BYTE   Dn1  v096
 BYTE   W06
 BYTE   Cs1  v108
 BYTE   W07
 BYTE   Dn1  v116
 BYTE   W06
 BYTE   Cs1  v124
 BYTE   W06
 BYTE   Dn1  v127
 BYTE   W05
 BYTE   Cs1  v052
 BYTE   W06
 BYTE   Dn1  v112
 BYTE   W06
 BYTE   Cs1  v056
 BYTE   W06
 BYTE   Dn1  v127
 BYTE   W07
 BYTE   Cs1  v116
 BYTE   W06
 BYTE   Dn1  v096
 BYTE   W05
 BYTE   Cs1  v084
 BYTE   W07
// 019   ----------------------------------------
Label_2_01EA6510:
 BYTE   N06  Dn1  v127
 BYTE   W05
 BYTE   Cs1  v060
 BYTE   W06
 BYTE   Dn1  v112
 BYTE   W07
 BYTE   Cs1  v060
 BYTE   W05
 BYTE   Dn1  v127
 BYTE   W06
 BYTE   Cs1  v060
 BYTE   W07
 BYTE   Dn1  v112
 BYTE   W05
 BYTE   Cs1  v048
 BYTE   W06
 BYTE   Dn1  v127
 BYTE   W06
 BYTE   Cs1  v116
 BYTE   W06
 BYTE   Dn1  v072
 BYTE   W06
 BYTE   Cs1  v092
 BYTE   W06
 BYTE   Dn1  v127
 BYTE   W06
 BYTE   Cs1  v060
 BYTE   W06
 BYTE   Dn1  v127
 BYTE   W07
 BYTE   Cs1  v048
 BYTE   W06
 BYTE   PEND 
// 020   ----------------------------------------
Label_2_01EA6542:
 BYTE   N06  Dn1  v088
 BYTE   W06
 BYTE   Cs1  v127
 BYTE   W05
 BYTE   Dn1  v060
 BYTE   W07
 BYTE   Cs1
 BYTE   W05
 BYTE   Dn1  v096
 BYTE   W06
 BYTE   Cs1  v108
 BYTE   W07
 BYTE   Dn1  v116
 BYTE   W06
 BYTE   Cs1  v120
 BYTE   W06
 BYTE   Dn1  v124
 BYTE   W05
 BYTE   Cs1  v052
 BYTE   W06
 BYTE   Dn1  v072
 BYTE   W06
 BYTE   Cs1  v056
 BYTE   W06
 BYTE   Dn1  v127
 BYTE   W07
 BYTE   Cs1  v060
 BYTE   W06
 BYTE   Dn1  v072
 BYTE   W05
 BYTE   Cs1  v048
 BYTE   W07
 BYTE   PEND 
// 021   ----------------------------------------
 BYTE   PATT
  POIN2 Label_2_01EA6252
// 022   ----------------------------------------
 BYTE   N06  Dn1  v064
 BYTE   W06
 BYTE   Cs1  v072
 BYTE   W05
 BYTE   Dn1  v080
 BYTE   W07
 BYTE   Cs1  v088
 BYTE   W05
 BYTE   Dn1  v100
 BYTE   W06
 BYTE   Cs1  v108
 BYTE   W07
 BYTE   Dn1  v116
 BYTE   W06
 BYTE   Cs1  v124
 BYTE   W06
 BYTE   Dn1  v127
 BYTE   W05
 BYTE   Cs1  v052
 BYTE   W06
 BYTE   Dn1  v112
 BYTE   W06
 BYTE   Cs1  v056
 BYTE   W06
 BYTE   Dn1  v127
 BYTE   W07
 BYTE   Cs1  v116
 BYTE   W06
 BYTE   Dn1  v096
 BYTE   W05
 BYTE   Cs1  v084
 BYTE   W07
// 023   ----------------------------------------
 BYTE   PATT
  POIN2 Label_2_01EA6510
// 024   ----------------------------------------
 BYTE   PATT
  POIN2 Label_2_01EA6542
// 025   ----------------------------------------
 BYTE   PATT
  POIN2 Label_2_01EA6252
// 026   ----------------------------------------
 BYTE   N06  Dn1  v064
 BYTE   W06
 BYTE   Cs1  v072
 BYTE   W05
 BYTE   Dn1  v080
 BYTE   W07
 BYTE   Cs1  v088
 BYTE   W05
 BYTE   Dn1  v100
 BYTE   W06
 BYTE   Cs1  v108
 BYTE   W07
 BYTE   Dn1  v116
 BYTE   W06
 BYTE   Cs1  v124
 BYTE   W06
 BYTE   Dn1  v127
 BYTE   N05  En3  v120
 BYTE   W05
 BYTE   N06  Cs1  v108
 BYTE   W01
 BYTE   N05  Fs3  v120
 BYTE   W05
 BYTE   N06  Dn1  v072
 BYTE   W01
 BYTE   N05  Gs3  v120
 BYTE   W05
 BYTE   N06  Cs1  v056
 BYTE   W01
 BYTE   N05  Bn3  v120
 BYTE   W05
 BYTE   N06  Dn1  v127
 BYTE   W01
 BYTE   N05  En4  v120
 BYTE   W06
 BYTE   N06  Cs1  v060
 BYTE   N05  Fs4  v120
 BYTE   W06
 BYTE   N06  Dn1  v127
 BYTE   N05  Gs4  v120
 BYTE   W05
 BYTE   N06  Cs1  v084
 BYTE   W01
 BYTE   N05  Bn4  v120
 BYTE   W06
// 027   ----------------------------------------
 BYTE   N06  Dn1
 BYTE   N05  Dn5
 BYTE   W05
 BYTE   N06  Cs1  v108
 BYTE   W01
 BYTE   N05  Bn4  v120
 BYTE   W05
 BYTE   N06  Dn1  v076
 BYTE   W01
 BYTE   N05  Fs4  v120
 BYTE   W06
 BYTE   N06  Cs1  v088
 BYTE   N05  Dn4  v120
 BYTE   W05
 BYTE   N06  Dn1  v127
 BYTE   W01
 BYTE   N05  Bn3  v120
 BYTE   W05
 BYTE   N06  Cs1  v068
 BYTE   W01
 BYTE   N05  Gs3  v120
 BYTE   W06
 BYTE   N06  Dn1  v127
 BYTE   N05  Fs3  v120
 BYTE   W05
 BYTE   N06  Cs1  v084
 BYTE   W01
 BYTE   N05  En3  v120
 BYTE   W05
 BYTE   N06  Dn1  v116
 BYTE   W01
 BYTE   N05  Cn3  v120
 BYTE   W05
 BYTE   N06  Cs1  v096
 BYTE   W01
 BYTE   N05  Dn3  v120
 BYTE   W05
 BYTE   N06  Dn1  v068
 BYTE   W01
 BYTE   N05  En3  v120
 BYTE   W05
 BYTE   N06  Cs1  v060
 BYTE   W01
 BYTE   N05  Gn3  v120
 BYTE   W05
 BYTE   N06  Dn1  v064
 BYTE   W01
 BYTE   N05  Cn4  v120
 BYTE   W05
 BYTE   N06  Cs1  v072
 BYTE   W01
 BYTE   N05  Dn4  v120
 BYTE   W05
 BYTE   N06  Dn1  v076
 BYTE   W01
 BYTE   N05  Cn4  v120
 BYTE   W06
 BYTE   N06  Cs1  v080
 BYTE   N05  Gn3  v120
 BYTE   W06
// 028   ----------------------------------------
 BYTE   N06  Dn1  v088
 BYTE   N05  En3  v120
 BYTE   W06
 BYTE   N06  Cs1  v092
 BYTE   N05  Fs3  v120
 BYTE   W05
 BYTE   N06  Dn1  v096
 BYTE   W01
 BYTE   N05  Gs3  v120
 BYTE   W06
 BYTE   N06  Cs1  v104
 BYTE   N05  Bn3  v120
 BYTE   W05
 BYTE   N06  Dn1  v108
 BYTE   W01
 BYTE   N05  En4  v120
 BYTE   W05
 BYTE   N06  Cs1  v112
 BYTE   W01
 BYTE   N05  Gs4  v120
 BYTE   W06
 BYTE   N06  Dn1
 BYTE   N05  Bn4
 BYTE   W06
 BYTE   N06  Cs1  v124
 BYTE   N05  En5  v120
 BYTE   W06
 BYTE   N06  Dn1  v092
 BYTE   W05
 BYTE   Cs1  v052
 BYTE   W06
 BYTE   Dn1  v072
 BYTE   W06
 BYTE   Cs1  v056
 BYTE   W06
 BYTE   Dn1  v127
 BYTE   W07
 BYTE   Cs1  v060
 BYTE   W06
 BYTE   Dn1  v072
 BYTE   W05
 BYTE   Cs1  v048
 BYTE   W07
// 029   ----------------------------------------
 BYTE   PATT
  POIN2 Label_2_01EA6252
// 030   ----------------------------------------
 BYTE   PATT
  POIN2 Label_2_01EA62B6
// 031   ----------------------------------------
 BYTE   PATT
  POIN2 Label_2_01EA62E7
// 032   ----------------------------------------
 BYTE   PATT
  POIN2 Label_2_01EA6331
// 033   ----------------------------------------
 BYTE   GoTo
  POIN2 Label_2_01EA636A
 BYTE   FINE

//**************** Track 4 (Midi-Chn.3) ****************//

FF3Battle1RSflame_004:
// 000   ----------------------------------------
 BYTE   KEYSH   FF3Battle1RSflame_key+0
 BYTE   VOICE   75
 BYTE   PAN   c_v+0
 BYTE   VOL   60*FF3Battle1RSflame_mvl/mxv
 BYTE   N01  Fn1  v108
 BYTE   W04
 BYTE   Gs1
 BYTE   W04
 BYTE   Bn1
 BYTE   W04
 BYTE   Dn2
 BYTE   W04
 BYTE   Fn2
 BYTE   W04
 BYTE   Gs2
 BYTE   W04
 BYTE   Bn2
 BYTE   W04
 BYTE   Dn3
 BYTE   W04
 BYTE   Fn3
 BYTE   W04
 BYTE   Gs3
 BYTE   W04
 BYTE   Bn3
 BYTE   W04
 BYTE   Dn4
 BYTE   W52
// 001   ----------------------------------------
 BYTE   W96
// 002   ----------------------------------------
 BYTE   W96
// 003   ----------------------------------------
 BYTE   W96
// 004   ----------------------------------------
Label_3_01EA51C5:
 BYTE   W48
 BYTE   N01  Gn2  v096
 BYTE   W12
 BYTE   Cn2
 BYTE   W12
 BYTE   An2
 BYTE   W12
 BYTE   Cn2
 BYTE   W12
 BYTE   PEND 
// 005   ----------------------------------------
Label_3_01EA51D1:
 BYTE   N01  Bn2  v096
 BYTE   W12
 BYTE   Cn2
 BYTE   W12
 BYTE   Cn3
 BYTE   W12
 BYTE   En2
 BYTE   W36
 BYTE   An2
 BYTE   W06
 BYTE   Bn2
 BYTE   W06
 BYTE   Cn3
 BYTE   W06
 BYTE   Dn3
 BYTE   W06
 BYTE   PEND 
// 006   ----------------------------------------
Label_3_01EA51E4:
 BYTE   N01  Cn3  v096
 BYTE   W06
 BYTE   Bn2
 BYTE   W06
 BYTE   An2
 BYTE   W06
 BYTE   Gn2
 BYTE   W06
 BYTE   Fs2
 BYTE   W06
 BYTE   En2
 BYTE   W06
 BYTE   Dn2
 BYTE   W12
 BYTE   PEND 
Label_3_01EA51F5:
 BYTE   W48
// 007   ----------------------------------------
Label_3_01EA51F6:
 BYTE   N01  Gs1  v096
 BYTE   W04
 BYTE   An1
 BYTE   W04
 BYTE   Bn1
 BYTE   W04
 BYTE   Cn2
 BYTE   W04
 BYTE   Dn2
 BYTE   W04
 BYTE   En2
 BYTE   W04
 BYTE   Fn2
 BYTE   W72
 BYTE   PEND 
// 008   ----------------------------------------
 BYTE   Gs1
 BYTE   W04
 BYTE   An1
 BYTE   W04
 BYTE   Bn1
 BYTE   W04
 BYTE   Cn2
 BYTE   W04
 BYTE   Dn2
 BYTE   W04
 BYTE   Ds2
 BYTE   W04
 BYTE   En2
 BYTE   W24
 BYTE   Fn1
 BYTE   W24
 BYTE   An1
 BYTE   W24
// 009   ----------------------------------------
 BYTE   Cn2
 BYTE   W24
 BYTE   Fn2
 BYTE   W36
 BYTE   N05  An2
 BYTE   W12
 BYTE   N01  Gs2
 BYTE   W12
 BYTE   N05  Fn2
 BYTE   W12
// 010   ----------------------------------------
 BYTE   N01  En2
 BYTE   W12
 BYTE   N05  Cn2
 BYTE   W12
 BYTE   N01  Bn1
 BYTE   W12
 BYTE   N05  Gs1
 BYTE   W60
// 011   ----------------------------------------
 BYTE   W96
// 012   ----------------------------------------
 BYTE   PATT
  POIN2 Label_3_01EA51C5
// 013   ----------------------------------------
 BYTE   PATT
  POIN2 Label_3_01EA51D1
// 014   ----------------------------------------
 BYTE   N01  Cn3  v096
 BYTE   W06
 BYTE   Bn2
 BYTE   W06
 BYTE   An2
 BYTE   W06
 BYTE   Gn2
 BYTE   W06
 BYTE   Fs2
 BYTE   W06
 BYTE   En2
 BYTE   W06
 BYTE   Dn2
 BYTE   W60
// 015   ----------------------------------------
 BYTE   PATT
  POIN2 Label_3_01EA51F6
// 016   ----------------------------------------
 BYTE   N01  Gs1  v096
 BYTE   W04
 BYTE   An1
 BYTE   W04
 BYTE   Bn1
 BYTE   W04
 BYTE   Cn2
 BYTE   W04
 BYTE   Dn2
 BYTE   W04
 BYTE   Ds2
 BYTE   W04
 BYTE   En2
 BYTE   W72
// 017   ----------------------------------------
 BYTE   W96
// 018   ----------------------------------------
 BYTE   W96
// 019   ----------------------------------------
 BYTE   W96
// 020   ----------------------------------------
 BYTE   W48
 BYTE   An2
 BYTE   W48
// 021   ----------------------------------------
 BYTE   Gs2
 BYTE   W48
 BYTE   Gn2
 BYTE   W48
// 022   ----------------------------------------
 BYTE   Fs2
 BYTE   W48
 BYTE   Fn2
 BYTE   W48
// 023   ----------------------------------------
 BYTE   W48
 BYTE   Gs2
 BYTE   W48
// 024   ----------------------------------------
 BYTE   W48
 BYTE   An1
 BYTE   W12
 BYTE   Cn2
 BYTE   W12
 BYTE   En2
 BYTE   W12
 BYTE   An2
 BYTE   W12
// 025   ----------------------------------------
 BYTE   Bn1
 BYTE   W12
 BYTE   Dn2
 BYTE   W12
 BYTE   Fn2
 BYTE   W12
 BYTE   Bn2
 BYTE   W12
 BYTE   Cn2
 BYTE   W12
 BYTE   En2
 BYTE   W12
 BYTE   Gn2
 BYTE   W12
 BYTE   Cn3
 BYTE   W12
// 026   ----------------------------------------
 BYTE   Dn2
 BYTE   W12
 BYTE   Fn2
 BYTE   W12
 BYTE   An2
 BYTE   W12
 BYTE   Dn3
 BYTE   W12
 BYTE   En2
 BYTE   W24
 BYTE   Gs2
 BYTE   W24
// 027   ----------------------------------------
 BYTE   Dn2
 BYTE   W24
 BYTE   Fs2
 BYTE   W24
 BYTE   En2
 BYTE   W24
 BYTE   Gn2
 BYTE   W24
// 028   ----------------------------------------
 BYTE   En2
 BYTE   W24
 BYTE   Gs2
 BYTE   W72
// 029   ----------------------------------------
 BYTE   W96
// 030   ----------------------------------------
 BYTE   PATT
  POIN2 Label_3_01EA51C5
// 031   ----------------------------------------
 BYTE   PATT
  POIN2 Label_3_01EA51D1
// 032   ----------------------------------------
 BYTE   PATT
  POIN2 Label_3_01EA51E4
// 033   ----------------------------------------
 BYTE   GoTo
  POIN2 Label_3_01EA51F5
 BYTE   FINE

//**************** Track 5 (Midi-Chn.4) ****************//

FF3Battle1RSflame_005:
// 000   ----------------------------------------
 BYTE   KEYSH   FF3Battle1RSflame_key+0
 BYTE   VOICE   2
 BYTE   PAN   c_v+0
 BYTE   VOL   54*FF3Battle1RSflame_mvl/mxv
 BYTE   W96
// 001   ----------------------------------------
 BYTE   W96
// 002   ----------------------------------------
 BYTE   W48
 BYTE   N10  Cn2  v127
 BYTE   W12
 BYTE   En2
 BYTE   W12
 BYTE   Cn2
 BYTE   W12
 BYTE   En2
 BYTE   W12
// 003   ----------------------------------------
Label_4_01EA67A9:
 BYTE   N10  Dn2  v127
 BYTE   W12
 BYTE   Fs2
 BYTE   W12
 BYTE   Dn2
 BYTE   W12
 BYTE   Fs2
 BYTE   W12
 BYTE   En2
 BYTE   W12
 BYTE   Gs2
 BYTE   W12
 BYTE   En2
 BYTE   W12
 BYTE   Gs2
 BYTE   W12
 BYTE   PEND 
// 004   ----------------------------------------
Label_4_01EA67BC:
 BYTE   N10  Fn2  v127
 BYTE   W12
 BYTE   Gs2
 BYTE   W12
 BYTE   Fn2
 BYTE   W12
 BYTE   Gs2
 BYTE   W12
 BYTE   Gn2
 BYTE   W12
 BYTE   En2
 BYTE   W12
 BYTE   An2
 BYTE   W12
 BYTE   En2
 BYTE   W12
 BYTE   PEND 
// 005   ----------------------------------------
Label_4_01EA67CF:
 BYTE   N10  Bn2  v127
 BYTE   W12
 BYTE   En2
 BYTE   W12
 BYTE   Cn3
 BYTE   W12
 BYTE   Gn2
 BYTE   W12
 BYTE   Fs2
 BYTE   N10  An2
 BYTE   W12
 BYTE   Dn2
 BYTE   N10  Fs2
 BYTE   W36
 BYTE   PEND 
// 006   ----------------------------------------
 BYTE   W48
Label_4_01EA67E3:
 BYTE   N10  An2  v127
 BYTE   N10  Cn3
 BYTE   W12
 BYTE   An2
 BYTE   N10  Cn3
 BYTE   W24
 BYTE   Fn2
 BYTE   N10  An2
 BYTE   W12
// 007   ----------------------------------------
Label_4_01EA67F1:
 BYTE   N21  Dn2  v127
 BYTE   N21  Fn2
 BYTE   W48
 BYTE   N10  Gs2
 BYTE   N10  Bn2
 BYTE   W12
 BYTE   Gs2
 BYTE   N10  Bn2
 BYTE   W24
 BYTE   En2
 BYTE   N10  Gs2
 BYTE   W12
 BYTE   PEND 
// 008   ----------------------------------------
 BYTE   N21  Bn1
 BYTE   N21  Dn2
 BYTE   W48
 BYTE   N10  Fn2
 BYTE   W12
 BYTE   Dn2
 BYTE   W12
 BYTE   Fn2
 BYTE   W12
 BYTE   Dn2
 BYTE   W12
// 009   ----------------------------------------
 BYTE   Fn2
 BYTE   W12
 BYTE   Dn2
 BYTE   W12
 BYTE   Fn2
 BYTE   W12
 BYTE   Dn2
 BYTE   W12
 BYTE   Bn1
 BYTE   N10  Gs2
 BYTE   W48
// 010   ----------------------------------------
 BYTE   W36
 BYTE   En2
 BYTE   W12
 BYTE   Cn2
 BYTE   W12
 BYTE   En2
 BYTE   W12
 BYTE   Cn2
 BYTE   W12
 BYTE   En2
 BYTE   W12
// 011   ----------------------------------------
 BYTE   PATT
  POIN2 Label_4_01EA67A9
// 012   ----------------------------------------
 BYTE   PATT
  POIN2 Label_4_01EA67BC
// 013   ----------------------------------------
 BYTE   PATT
  POIN2 Label_4_01EA67CF
// 014   ----------------------------------------
 BYTE   W48
 BYTE   N10  An2  v127
 BYTE   N10  Cn3
 BYTE   W12
 BYTE   An2
 BYTE   N10  Cn3
 BYTE   W24
 BYTE   Fn2
 BYTE   N10  An2
 BYTE   W12
// 015   ----------------------------------------
 BYTE   PATT
  POIN2 Label_4_01EA67F1
// 016   ----------------------------------------
 BYTE   N21  Bn1  v127
 BYTE   N21  Dn2
 BYTE   W48
 BYTE   N10  En2
 BYTE   W12
 BYTE   Fn2
 BYTE   W12
 BYTE   Dn2
 BYTE   W12
 BYTE   Fn2
 BYTE   W12
// 017   ----------------------------------------
 BYTE   Cn2
 BYTE   W12
 BYTE   Fn2
 BYTE   W12
 BYTE   Dn2
 BYTE   W12
 BYTE   Fn2
 BYTE   W12
 BYTE   En2
 BYTE   W12
 BYTE   Fn2
 BYTE   W12
 BYTE   Dn2
 BYTE   W12
 BYTE   Fn2
 BYTE   W12
// 018   ----------------------------------------
 BYTE   Cn2
 BYTE   W12
 BYTE   Fn2
 BYTE   W12
 BYTE   Dn2
 BYTE   W12
 BYTE   Fn2
 BYTE   W12
 BYTE   N10
 BYTE   W12
 BYTE   An2
 BYTE   W12
 BYTE   Fn2
 BYTE   W12
 BYTE   An2
 BYTE   W12
// 019   ----------------------------------------
Label_4_01EA687C:
 BYTE   N10  Fn2  v127
 BYTE   W12
 BYTE   An2
 BYTE   W12
 BYTE   Fn2
 BYTE   W12
 BYTE   An2
 BYTE   W12
 BYTE   Gs2
 BYTE   W12
 BYTE   Bn2
 BYTE   W12
 BYTE   Gs2
 BYTE   W12
 BYTE   Bn2
 BYTE   W12
 BYTE   PEND 
// 020   ----------------------------------------
 BYTE   Gs2
 BYTE   W12
 BYTE   Bn2
 BYTE   W12
 BYTE   Gs2
 BYTE   W12
 BYTE   Bn2
 BYTE   W12
 BYTE   En2
 BYTE   N10  An2
 BYTE   W12
 BYTE   Cn2
 BYTE   N10  En2
 BYTE   W12
 BYTE   An1
 BYTE   N10  Cn2
 BYTE   W12
 BYTE   En1
 BYTE   N10  An1
 BYTE   W12
// 021   ----------------------------------------
 BYTE   En2
 BYTE   N10  Gs2
 BYTE   W12
 BYTE   Cn2
 BYTE   N10  En2
 BYTE   W12
 BYTE   Gs1
 BYTE   N10  Cn2
 BYTE   W12
 BYTE   En1
 BYTE   N10  Gs1
 BYTE   W12
 BYTE   En2
 BYTE   N10  Gn2
 BYTE   W12
 BYTE   Cn2
 BYTE   N10  En2
 BYTE   W12
 BYTE   Gn1
 BYTE   N10  Cn2
 BYTE   W12
 BYTE   En1
 BYTE   N10  Gn1
 BYTE   W12
// 022   ----------------------------------------
 BYTE   Dn2
 BYTE   N10  Fs2
 BYTE   W12
 BYTE   Cn2
 BYTE   N10  En2
 BYTE   W12
 BYTE   Gn1
 BYTE   N10  Cn2
 BYTE   W12
 BYTE   En1
 BYTE   N10  Gn1
 BYTE   W12
 BYTE   Fn2
 BYTE   W12
 BYTE   An2
 BYTE   W12
 BYTE   Fn2
 BYTE   W12
 BYTE   An2
 BYTE   W12
// 023   ----------------------------------------
 BYTE   PATT
  POIN2 Label_4_01EA687C
// 024   ----------------------------------------
 BYTE   N10  Gs2  v127
 BYTE   W12
 BYTE   Bn2
 BYTE   W12
 BYTE   Gs2
 BYTE   W12
 BYTE   Bn2
 BYTE   W12
 BYTE   En2
 BYTE   N10  An2
 BYTE   W12
 BYTE   Cn2
 BYTE   N10  En2
 BYTE   W12
 BYTE   An1
 BYTE   N10  Cn2
 BYTE   W12
 BYTE   N10
 BYTE   N10  En2
 BYTE   W12
// 025   ----------------------------------------
 BYTE   Bn1
 BYTE   N10  Dn2
 BYTE   W12
 BYTE   N10
 BYTE   N10  Gs2
 BYTE   W12
 BYTE   Bn1
 BYTE   N10  Dn2
 BYTE   W12
 BYTE   N10
 BYTE   N10  Gs2
 BYTE   W12
 BYTE   Cn2
 BYTE   N10  En2
 BYTE   W12
 BYTE   N10
 BYTE   N10  Gn2
 BYTE   W12
 BYTE   Cn2
 BYTE   N10  En2
 BYTE   W12
 BYTE   N10
 BYTE   N10  Gn2
 BYTE   W12
// 026   ----------------------------------------
 BYTE   Dn2
 BYTE   N10  Fn2
 BYTE   W12
 BYTE   N10
 BYTE   N10  An2
 BYTE   W12
 BYTE   Dn2
 BYTE   N10  Fn2
 BYTE   W12
 BYTE   N10
 BYTE   N10  An2
 BYTE   W12
 BYTE   Gs2
 BYTE   N10  Bn2
 BYTE   W12
 BYTE   Bn1
 BYTE   N10  En2
 BYTE   W12
 BYTE   N10
 BYTE   N10  Gs2
 BYTE   W12
 BYTE   Bn1
 BYTE   N10  En2
 BYTE   W12
// 027   ----------------------------------------
 BYTE   Gs2
 BYTE   N10  Bn2
 BYTE   W12
 BYTE   Bn1
 BYTE   N10  Dn2
 BYTE   W12
 BYTE   N10
 BYTE   N10  Fs2
 BYTE   W12
 BYTE   Bn1
 BYTE   N10  Dn2
 BYTE   W12
 BYTE   Gn2
 BYTE   N10  Cn3
 BYTE   W12
 BYTE   Cn2
 BYTE   N10  En2
 BYTE   W12
 BYTE   N10
 BYTE   N10  Gn2
 BYTE   W12
 BYTE   Cn2
 BYTE   N10  En2
 BYTE   W12
// 028   ----------------------------------------
 BYTE   Gs2
 BYTE   N10  Bn2
 BYTE   W12
 BYTE   Bn1
 BYTE   N10  En2
 BYTE   W12
 BYTE   N10
 BYTE   N10  Gs2
 BYTE   W12
 BYTE   Bn1
 BYTE   N10  En2
 BYTE   W12
 BYTE   Cn2
 BYTE   W12
 BYTE   En2
 BYTE   W12
 BYTE   Cn2
 BYTE   W12
 BYTE   En2
 BYTE   W12
// 029   ----------------------------------------
 BYTE   PATT
  POIN2 Label_4_01EA67A9
// 030   ----------------------------------------
 BYTE   PATT
  POIN2 Label_4_01EA67BC
// 031   ----------------------------------------
 BYTE   PATT
  POIN2 Label_4_01EA67CF
// 032   ----------------------------------------
 BYTE   W48
 BYTE   GoTo
  POIN2 Label_4_01EA67E3
 BYTE   FINE

//**************** Track 6 (Midi-Chn.5) ****************//

FF3Battle1RSflame_006:
// 000   ----------------------------------------
 BYTE   KEYSH   FF3Battle1RSflame_key+0
 BYTE   VOICE   2
 BYTE   PAN   c_v+0
 BYTE   VOL   60*FF3Battle1RSflame_mvl/mxv
 BYTE   W48
 BYTE   N08  An0  v127
 BYTE   W12
 BYTE   N10
 BYTE   W12
 BYTE   N10
 BYTE   W12
 BYTE   N10
 BYTE   W12
// 001   ----------------------------------------
Label_5_01EA555F:
 BYTE   N10  An0  v127
 BYTE   W12
 BYTE   N10
 BYTE   W12
 BYTE   Gn0
 BYTE   W12
 BYTE   N10
 BYTE   W12
 BYTE   An0
 BYTE   W12
 BYTE   N10
 BYTE   W12
 BYTE   N10
 BYTE   W12
 BYTE   N10
 BYTE   W12
 BYTE   PEND 
// 002   ----------------------------------------
 BYTE   N10
 BYTE   W12
 BYTE   N10
 BYTE   W12
 BYTE   Gn0
 BYTE   W12
 BYTE   N10
 BYTE   W12
 BYTE   N08  An0
 BYTE   W12
 BYTE   N10  An1
 BYTE   W12
 BYTE   An0
 BYTE   W12
 BYTE   An1
 BYTE   W12
// 003   ----------------------------------------
Label_5_01EA5584:
 BYTE   N10  An0  v127
 BYTE   W12
 BYTE   An1
 BYTE   W12
 BYTE   An0
 BYTE   W12
 BYTE   An1
 BYTE   W12
 BYTE   Gs0
 BYTE   W12
 BYTE   Gs1
 BYTE   W12
 BYTE   Gs0
 BYTE   W12
 BYTE   Gs1
 BYTE   W12
 BYTE   PEND 
// 004   ----------------------------------------
Label_5_01EA5597:
 BYTE   N10  Gs0  v127
 BYTE   W12
 BYTE   Gs1
 BYTE   W12
 BYTE   Gs0
 BYTE   W12
 BYTE   Gs1
 BYTE   W12
 BYTE   Gn0
 BYTE   W12
 BYTE   Gn1
 BYTE   W12
 BYTE   An0
 BYTE   W12
 BYTE   An1
 BYTE   W12
 BYTE   PEND 
// 005   ----------------------------------------
Label_5_01EA55AA:
 BYTE   N10  Bn0  v127
 BYTE   W12
 BYTE   Bn1
 BYTE   W12
 BYTE   Cn1
 BYTE   W12
 BYTE   Cn2
 BYTE   W12
 BYTE   Dn1
 BYTE   W12
 BYTE   Dn2
 BYTE   W36
 BYTE   PEND 
// 006   ----------------------------------------
 BYTE   W48
Label_5_01EA55BA:
 BYTE   N10  Fn0  v127
 BYTE   W12
 BYTE   N10
 BYTE   W24
 BYTE   Cn0
 BYTE   W12
// 007   ----------------------------------------
Label_5_01EA55C2:
 BYTE   N32  Fn0  v127
 BYTE   W48
 BYTE   N10  En0
 BYTE   W12
 BYTE   N10
 BYTE   W24
 BYTE   Bn0
 BYTE   W12
 BYTE   PEND 
// 008   ----------------------------------------
 BYTE   N32  En0
 BYTE   W48
 BYTE   N10  Dn0
 BYTE   W12
 BYTE   N22
 BYTE   W24
 BYTE   En0
 BYTE   W12
// 009   ----------------------------------------
 BYTE   W12
 BYTE   Fn0
 BYTE   W24
 BYTE   N10  An0
 BYTE   W12
 BYTE   Gs0
 BYTE   W48
// 010   ----------------------------------------
 BYTE   W48
 BYTE   An0
 BYTE   W12
 BYTE   An1
 BYTE   W12
 BYTE   An0
 BYTE   W12
 BYTE   An1
 BYTE   W12
// 011   ----------------------------------------
 BYTE   PATT
  POIN2 Label_5_01EA5584
// 012   ----------------------------------------
 BYTE   PATT
  POIN2 Label_5_01EA5597
// 013   ----------------------------------------
 BYTE   PATT
  POIN2 Label_5_01EA55AA
// 014   ----------------------------------------
 BYTE   W48
 BYTE   N10  Fn0  v127
 BYTE   W12
 BYTE   N10
 BYTE   W24
 BYTE   Cn0
 BYTE   W12
// 015   ----------------------------------------
 BYTE   PATT
  POIN2 Label_5_01EA55C2
// 016   ----------------------------------------
 BYTE   N32  En0  v127
 BYTE   W48
 BYTE   N10  An0
 BYTE   W12
 BYTE   N10
 BYTE   W12
 BYTE   N10
 BYTE   W12
 BYTE   N10
 BYTE   W12
// 017   ----------------------------------------
 BYTE   PATT
  POIN2 Label_5_01EA555F
// 018   ----------------------------------------
 BYTE   N10  An0  v127
 BYTE   W12
 BYTE   N10
 BYTE   W12
 BYTE   Gn0
 BYTE   W12
 BYTE   N10
 BYTE   W12
 BYTE   Bn0
 BYTE   W12
 BYTE   N10
 BYTE   W12
 BYTE   N10
 BYTE   W12
 BYTE   N10
 BYTE   W12
// 019   ----------------------------------------
Label_5_01EA562A:
 BYTE   N10  Bn0  v127
 BYTE   W12
 BYTE   Dn1
 BYTE   W12
 BYTE   Cn1
 BYTE   W12
 BYTE   Bn0
 BYTE   W12
 BYTE   En0
 BYTE   W12
 BYTE   N10
 BYTE   W12
 BYTE   N10
 BYTE   W12
 BYTE   N10
 BYTE   W12
 BYTE   PEND 
// 020   ----------------------------------------
 BYTE   N10
 BYTE   W12
 BYTE   Dn0
 BYTE   W12
 BYTE   Cn0
 BYTE   W12
 BYTE   Bn0
 BYTE   W12
 BYTE   An0
 BYTE   W12
 BYTE   N10
 BYTE   W12
 BYTE   En1
 BYTE   W12
 BYTE   An0
 BYTE   W12
// 021   ----------------------------------------
 BYTE   Gs0
 BYTE   W12
 BYTE   An0
 BYTE   W12
 BYTE   En1
 BYTE   W12
 BYTE   An0
 BYTE   W12
 BYTE   Gn0
 BYTE   W12
 BYTE   An0
 BYTE   W12
 BYTE   En1
 BYTE   W12
 BYTE   An0
 BYTE   W12
// 022   ----------------------------------------
 BYTE   Fn0
 BYTE   W12
 BYTE   An0
 BYTE   W12
 BYTE   En1
 BYTE   W12
 BYTE   An0
 BYTE   W12
 BYTE   Bn0
 BYTE   W12
 BYTE   N10
 BYTE   W12
 BYTE   N10
 BYTE   W12
 BYTE   N10
 BYTE   W12
// 023   ----------------------------------------
 BYTE   PATT
  POIN2 Label_5_01EA562A
// 024   ----------------------------------------
 BYTE   N10  En0  v127
 BYTE   W12
 BYTE   Dn0
 BYTE   W12
 BYTE   Cn0
 BYTE   W12
 BYTE   Bn0
 BYTE   W12
 BYTE   An0
 BYTE   W12
 BYTE   N10
 BYTE   W12
 BYTE   N10
 BYTE   W12
 BYTE   An1
 BYTE   W12
// 025   ----------------------------------------
 BYTE   Bn0
 BYTE   W12
 BYTE   N10
 BYTE   W12
 BYTE   Gs1
 BYTE   W12
 BYTE   En1
 BYTE   W12
 BYTE   Cn0
 BYTE   W12
 BYTE   N10
 BYTE   W12
 BYTE   N10
 BYTE   W12
 BYTE   Gn0
 BYTE   W12
// 026   ----------------------------------------
 BYTE   Dn0
 BYTE   W12
 BYTE   N10
 BYTE   W12
 BYTE   Bn0
 BYTE   W12
 BYTE   Dn0
 BYTE   W12
 BYTE   En0
 BYTE   W12
 BYTE   N10
 BYTE   W12
 BYTE   En1
 BYTE   W12
 BYTE   En0
 BYTE   W12
// 027   ----------------------------------------
 BYTE   Dn0
 BYTE   W12
 BYTE   N10
 BYTE   W12
 BYTE   Dn1
 BYTE   W12
 BYTE   Dn0
 BYTE   W12
 BYTE   Cn0
 BYTE   W12
 BYTE   N10
 BYTE   W12
 BYTE   Cn1
 BYTE   W12
 BYTE   Cn0
 BYTE   W12
// 028   ----------------------------------------
 BYTE   Bn0
 BYTE   W12
 BYTE   En1
 BYTE   W12
 BYTE   Bn0
 BYTE   W12
 BYTE   En0
 BYTE   W12
 BYTE   N08  An0
 BYTE   W12
 BYTE   N10  An1
 BYTE   W12
 BYTE   An0
 BYTE   W12
 BYTE   An1
 BYTE   W12
// 029   ----------------------------------------
 BYTE   PATT
  POIN2 Label_5_01EA5584
// 030   ----------------------------------------
 BYTE   PATT
  POIN2 Label_5_01EA5597
// 031   ----------------------------------------
 BYTE   PATT
  POIN2 Label_5_01EA55AA
// 032   ----------------------------------------
 BYTE   W48
 BYTE   GoTo
  POIN2 Label_5_01EA55BA
 BYTE   FINE

//**************** Track 7 (Midi-Chn.6) ****************//

FF3Battle1RSflame_007:
// 000   ----------------------------------------
 BYTE   KEYSH   FF3Battle1RSflame_key+0
 BYTE   VOICE   56
 BYTE   PAN   c_v+0
 BYTE   VOL   41*FF3Battle1RSflame_mvl/mxv
 BYTE   W96
// 001   ----------------------------------------
 BYTE   W96
// 002   ----------------------------------------
 BYTE   W96
// 003   ----------------------------------------
 BYTE   W96
// 004   ----------------------------------------
 BYTE   W96
// 005   ----------------------------------------
 BYTE   W96
// 006   ----------------------------------------
 BYTE   W48
Label_6_5451DF:
 BYTE   W48
// 007   ----------------------------------------
 BYTE   W96
// 008   ----------------------------------------
 BYTE   W96
// 009   ----------------------------------------
 BYTE   W96
// 010   ----------------------------------------
 BYTE   W96
// 011   ----------------------------------------
 BYTE   W96
// 012   ----------------------------------------
 BYTE   W96
// 013   ----------------------------------------
 BYTE   W96
// 014   ----------------------------------------
 BYTE   W96
// 015   ----------------------------------------
 BYTE   W96
// 016   ----------------------------------------
 BYTE   W96
// 017   ----------------------------------------
 BYTE   W96
// 018   ----------------------------------------
Label_6_5451EB:
 BYTE   W44
 BYTE   W03
 BYTE   N42  Dn3  v100
 BYTE   W48
 BYTE   En3
 BYTE   W01
 BYTE   PEND 
// 019   ----------------------------------------
Label_6_5451F4:
 BYTE   W44
 BYTE   W03
 BYTE   N42  Fn3  v100
 BYTE   W48
 BYTE   Dn3
 BYTE   W01
 BYTE   PEND 
// 020   ----------------------------------------
 BYTE   W44
 BYTE   W03
 BYTE   N08  Cn3  v127
 BYTE   W12
 BYTE   Dn3
 BYTE   W12
 BYTE   En3
 BYTE   W12
 BYTE   An2
 BYTE   W12
 BYTE   Bn2
 BYTE   W01
// 021   ----------------------------------------
 BYTE   W11
 BYTE   Cn3
 BYTE   W24
 BYTE   N08
 BYTE   W12
 BYTE   En3
 BYTE   W12
 BYTE   An2
 BYTE   W12
 BYTE   Bn2
 BYTE   W12
 BYTE   N54  Cn3
 BYTE   W13
// 022   ----------------------------------------
 BYTE   PATT
  POIN2 Label_6_5451EB
// 023   ----------------------------------------
 BYTE   PATT
  POIN2 Label_6_5451F4
// 024   ----------------------------------------
 BYTE   W44
 BYTE   W03
 BYTE   N07  An2  v127
 BYTE   W12
 BYTE   Bn2
 BYTE   W12
 BYTE   N21  Cn3
 BYTE   W24
 BYTE   N07  Bn2
 BYTE   W01
// 025   ----------------------------------------
 BYTE   W11
 BYTE   Cn3
 BYTE   W12
 BYTE   N21  Dn3
 BYTE   W24
 BYTE   N07  Cn3
 BYTE   W12
 BYTE   Dn3
 BYTE   W12
 BYTE   N21  En3
 BYTE   W24
 BYTE   N08  Dn3
 BYTE   W01
// 026   ----------------------------------------
 BYTE   W11
 BYTE   En3
 BYTE   W12
 BYTE   Fn3
 BYTE   W12
 BYTE   An3
 BYTE   W12
 BYTE   N84  Gs3
 BYTE   W48
 BYTE   W01
// 027   ----------------------------------------
 BYTE   W44
 BYTE   W03
 BYTE   En3
 BYTE   W48
 BYTE   W01
// 028   ----------------------------------------
 BYTE   W96
// 029   ----------------------------------------
 BYTE   W96
// 030   ----------------------------------------
 BYTE   W96
// 031   ----------------------------------------
 BYTE   W96
// 032   ----------------------------------------
 BYTE   W48
 BYTE   GoTo
  POIN2 Label_6_5451DF
 BYTE   FINE

//**************** Track 8 (Midi-Chn.7) ****************//

FF3Battle1RSflame_008:
// 000   ----------------------------------------
 BYTE   KEYSH   FF3Battle1RSflame_key+0
 BYTE   VOICE   127
 BYTE   VOL   53*FF3Battle1RSflame_mvl/mxv
 BYTE   PAN   c_v-64
 BYTE   En3
 BYTE   VOL   35*FF3Battle1RSflame_mvl/mxv
 BYTE   PAN   c_v+0
 BYTE   VOL   35*FF3Battle1RSflame_mvl/mxv
 BYTE   W24
 BYTE   N23  Cn1  v127
 BYTE   W24
 BYTE   N08  Dn1  v120
 BYTE   N01  En2  v100
 BYTE   W12
 BYTE   N10  Dn1  v120
 BYTE   W12
 BYTE   N10
 BYTE   W12
 BYTE   N10
 BYTE   W12
// 001   ----------------------------------------
 BYTE   N10
 BYTE   W12
 BYTE   N10
 BYTE   W12
 BYTE   Cn1
 BYTE   W12
 BYTE   N10
 BYTE   W12
 BYTE   Dn1
 BYTE   W12
 BYTE   N10
 BYTE   W12
 BYTE   N10
 BYTE   W12
 BYTE   N10
 BYTE   N01  Bn1  v124
 BYTE   W12
// 002   ----------------------------------------
 BYTE   N10  Dn1  v120
 BYTE   W12
 BYTE   Dn2
 BYTE   W12
 BYTE   N23  Cn2  v127
 BYTE   W19
 BYTE   N48  Gn1  v124
 BYTE   W05
 BYTE   VOL   35*FF3Battle1RSflame_mvl/mxv
 BYTE   N08  Dn1  v120
 BYTE   W12
 BYTE   N10  Dn2
 BYTE   W12
 BYTE   Dn1
 BYTE   W12
 BYTE   Dn2
 BYTE   W10
 BYTE   N01  En2  v096
 BYTE   W02
// 003   ----------------------------------------
Label_7_01EA69E1:
 BYTE   N10  Dn1  v120
 BYTE   W12
 BYTE   Dn2
 BYTE   W12
 BYTE   Dn1
 BYTE   W12
 BYTE   Dn2
 BYTE   W10
 BYTE   N01  En2  v096
 BYTE   W02
 BYTE   N10  Cn1  v120
 BYTE   W12
 BYTE   Cn2
 BYTE   W12
 BYTE   Cn1
 BYTE   W12
 BYTE   Cn2
 BYTE   W10
 BYTE   N01  En2  v096
 BYTE   W02
 BYTE   PEND 
// 004   ----------------------------------------
Label_7_01EA69FE:
 BYTE   N10  Cn1  v120
 BYTE   W12
 BYTE   Cn2
 BYTE   W12
 BYTE   Cn1
 BYTE   W12
 BYTE   Cn2
 BYTE   W10
 BYTE   N01  En2  v096
 BYTE   W02
 BYTE   N10  Cn1  v120
 BYTE   W12
 BYTE   Cn2
 BYTE   W12
 BYTE   Dn1
 BYTE   W12
 BYTE   Dn2
 BYTE   W11
 BYTE   N01  Dn2  v127
 BYTE   W01
 BYTE   PEND 
// 005   ----------------------------------------
Label_7_01EA6A1B:
 BYTE   N10  En1  v120
 BYTE   W12
 BYTE   En2
 BYTE   W12
 BYTE   Fn1
 BYTE   W12
 BYTE   Fn2
 BYTE   W12
 BYTE   Gn1
 BYTE   W12
 BYTE   N01  En2  v127
 BYTE   N10  Gn2
 BYTE   W36
 BYTE   PEND 
// 006   ----------------------------------------
 BYTE   W48
Label_7_01EA6A2F:
 BYTE   N10  Bn0  v120
 BYTE   N01  En2  v092
 BYTE   W12
 BYTE   N10  Bn0  v120
 BYTE   N01  En2  v092
 BYTE   W24
 BYTE   N10  Fn0  v120
 BYTE   W12
// 007   ----------------------------------------
Label_7_01EA6A41:
 BYTE   N32  Bn0  v120
 BYTE   W24
 BYTE   N01  En2  v124
 BYTE   W24
 BYTE   N10  An0  v120
 BYTE   N01  En2  v092
 BYTE   W12
 BYTE   N10  An0  v120
 BYTE   N01  En2  v092
 BYTE   W24
 BYTE   N10  En1  v120
 BYTE   W12
 BYTE   PEND 
// 008   ----------------------------------------
 BYTE   N32  An0
 BYTE   W24
 BYTE   N01  En2  v124
 BYTE   W24
 BYTE   N10  Gn0  v120
 BYTE   N01  En2  v092
 BYTE   W12
 BYTE   N22  Gn0  v120
 BYTE   W24
 BYTE   An0
 BYTE   W12
// 009   ----------------------------------------
 BYTE   W12
 BYTE   Bn0
 BYTE   W24
 BYTE   N10  Dn1
 BYTE   W12
 BYTE   Cn1
 BYTE   W36
 BYTE   N01  Bn1  v124
 BYTE   W12
// 010   ----------------------------------------
 BYTE   W42
 BYTE   W01
 BYTE   N48  Gn1
 BYTE   W05
 BYTE   N10  Dn1  v120
 BYTE   W12
 BYTE   Dn2
 BYTE   W12
 BYTE   Dn1
 BYTE   W12
 BYTE   Dn2
 BYTE   W10
 BYTE   N01  En2  v096
 BYTE   W02
// 011   ----------------------------------------
 BYTE   PATT
  POIN2 Label_7_01EA69E1
// 012   ----------------------------------------
 BYTE   N10  Cn1  v120
 BYTE   W12
 BYTE   Cn2
 BYTE   W12
 BYTE   Cn1
 BYTE   W12
 BYTE   Cn2
 BYTE   W10
 BYTE   N01  En2  v096
 BYTE   W02
 BYTE   N10  Cn1  v120
 BYTE   W12
 BYTE   Cn2
 BYTE   W12
 BYTE   Dn1
 BYTE   W12
 BYTE   Dn2
 BYTE   W11
 BYTE   N01  Dn2  v124
 BYTE   W01
// 013   ----------------------------------------
 BYTE   N10  En1  v120
 BYTE   W12
 BYTE   En2
 BYTE   W12
 BYTE   Fn1
 BYTE   W12
 BYTE   Fn2
 BYTE   W12
 BYTE   Gn1
 BYTE   W12
 BYTE   VOL   65*FF3Battle1RSflame_mvl/mxv
 BYTE   N01  En2  v124
 BYTE   W36
// 014   ----------------------------------------
 BYTE   W48
 BYTE   VOL   35*FF3Battle1RSflame_mvl/mxv
 BYTE   N10  Bn0  v120
 BYTE   N01  En2  v092
 BYTE   W12
 BYTE   N10  Bn0  v120
 BYTE   N01  En2  v092
 BYTE   W24
 BYTE   N10  Fn1  v120
 BYTE   W12
// 015   ----------------------------------------
 BYTE   PATT
  POIN2 Label_7_01EA6A41
// 016   ----------------------------------------
 BYTE   N32  An0  v120
 BYTE   W24
 BYTE   N01  En2  v124
 BYTE   W24
 BYTE   N10  Dn1  v120
 BYTE   N01  En2  v124
 BYTE   W12
 BYTE   N10  Dn1  v120
 BYTE   W12
 BYTE   N10
 BYTE   W12
 BYTE   N10
 BYTE   W12
// 017   ----------------------------------------
 BYTE   N10
 BYTE   N01  En2  v096
 BYTE   W12
 BYTE   N10  Dn1  v120
 BYTE   W12
 BYTE   Cn1
 BYTE   W12
 BYTE   N10
 BYTE   W12
 BYTE   Dn1
 BYTE   N01  En2  v096
 BYTE   W12
 BYTE   N10  Dn1  v120
 BYTE   W12
 BYTE   N10
 BYTE   W12
 BYTE   N10
 BYTE   W12
// 018   ----------------------------------------
 BYTE   N10
 BYTE   N01  En2  v096
 BYTE   W12
 BYTE   N10  Dn1  v120
 BYTE   W12
 BYTE   Cn1
 BYTE   W12
 BYTE   N10
 BYTE   W12
 BYTE   En1
 BYTE   N01  En2  v096
 BYTE   W12
 BYTE   N10  En1  v120
 BYTE   W12
 BYTE   N10
 BYTE   N01  En2  v096
 BYTE   W12
 BYTE   N10  En1  v120
 BYTE   W12
// 019   ----------------------------------------
Label_7_01EA6B2C:
 BYTE   N10  En1  v120
 BYTE   N01  En2  v124
 BYTE   W12
 BYTE   N10  Gn1  v120
 BYTE   W12
 BYTE   Fn1
 BYTE   W12
 BYTE   En1
 BYTE   W12
 BYTE   An0
 BYTE   N01  En2  v096
 BYTE   W12
 BYTE   N10  An0  v120
 BYTE   W12
 BYTE   N10
 BYTE   N01  En2  v096
 BYTE   W12
 BYTE   N10  An0  v120
 BYTE   W12
 BYTE   PEND 
// 020   ----------------------------------------
 BYTE   An1
 BYTE   N01  En2  v124
 BYTE   W12
 BYTE   N10  Gn1  v120
 BYTE   W12
 BYTE   Fn1
 BYTE   W12
 BYTE   En1
 BYTE   W12
 BYTE   Dn1
 BYTE   N01  En2  v124
 BYTE   W12
 BYTE   N10  Dn1  v120
 BYTE   W12
 BYTE   An1
 BYTE   W12
 BYTE   Dn1
 BYTE   W12
// 021   ----------------------------------------
 BYTE   Cn1
 BYTE   N01  En2  v096
 BYTE   W12
 BYTE   N10  Dn1  v120
 BYTE   W12
 BYTE   An1
 BYTE   W12
 BYTE   Dn1
 BYTE   W12
 BYTE   Cn1
 BYTE   N01  En2  v096
 BYTE   W12
 BYTE   N10  Dn1  v120
 BYTE   W12
 BYTE   An1
 BYTE   W12
 BYTE   Dn1
 BYTE   W12
// 022   ----------------------------------------
 BYTE   Bn0
 BYTE   N01  En2  v096
 BYTE   W12
 BYTE   N10  Dn1  v120
 BYTE   W12
 BYTE   An1
 BYTE   W12
 BYTE   Dn1
 BYTE   W12
 BYTE   En1
 BYTE   N01  En2  v096
 BYTE   W12
 BYTE   N10  En1  v120
 BYTE   W12
 BYTE   N10
 BYTE   N01  En2  v096
 BYTE   W12
 BYTE   N10  En1  v120
 BYTE   W12
// 023   ----------------------------------------
 BYTE   PATT
  POIN2 Label_7_01EA6B2C
// 024   ----------------------------------------
 BYTE   N10  An1  v120
 BYTE   N01  En2  v124
 BYTE   W12
 BYTE   N10  Gn1  v120
 BYTE   W12
 BYTE   Fn1
 BYTE   W12
 BYTE   En1
 BYTE   W12
 BYTE   Dn1
 BYTE   N01  En2  v124
 BYTE   W12
 BYTE   N10  Dn1  v120
 BYTE   W12
 BYTE   N10
 BYTE   W12
 BYTE   Dn2
 BYTE   W12
// 025   ----------------------------------------
 BYTE   En1
 BYTE   N01  En2  v096
 BYTE   W12
 BYTE   N10  En1  v120
 BYTE   W12
 BYTE   Cn2
 BYTE   W12
 BYTE   An1
 BYTE   W12
 BYTE   Fn1
 BYTE   N01  En2  v096
 BYTE   W12
 BYTE   N10  Fn1  v120
 BYTE   W12
 BYTE   N10
 BYTE   W12
 BYTE   Cn2
 BYTE   W12
// 026   ----------------------------------------
 BYTE   Gn1
 BYTE   N01  Dn2  v124
 BYTE   N01  En2  v096
 BYTE   W12
 BYTE   N10  Gn1  v120
 BYTE   W12
 BYTE   En2
 BYTE   W12
 BYTE   Gn1
 BYTE   W12
 BYTE   An0
 BYTE   W12
 BYTE   N10
 BYTE   W12
 BYTE   An1
 BYTE   N01  En2  v096
 BYTE   W12
 BYTE   N10  An0  v120
 BYTE   W12
// 027   ----------------------------------------
 BYTE   Gn1
 BYTE   W12
 BYTE   N10
 BYTE   W12
 BYTE   N01  En2  v096
 BYTE   N10  Gn2  v120
 BYTE   W12
 BYTE   Gn1
 BYTE   W12
 BYTE   Fn1
 BYTE   W12
 BYTE   N10
 BYTE   W12
 BYTE   N01  En2  v096
 BYTE   N10  Fn2  v120
 BYTE   W12
 BYTE   Fn1
 BYTE   W11
 BYTE   N01  Bn1  v124
 BYTE   W01
// 028   ----------------------------------------
 BYTE   N32  En1  v127
 BYTE   W36
 BYTE   N10  An2  v120
 BYTE   W10
 BYTE   N04  Gn1  v124
 BYTE   W02
 BYTE   VOL   35*FF3Battle1RSflame_mvl/mxv
 BYTE   N08  Dn1  v120
 BYTE   W12
 BYTE   N10  Dn2
 BYTE   W12
 BYTE   Dn1
 BYTE   W12
 BYTE   Dn2
 BYTE   W10
 BYTE   N01  En2  v096
 BYTE   W02
// 029   ----------------------------------------
 BYTE   PATT
  POIN2 Label_7_01EA69E1
// 030   ----------------------------------------
 BYTE   PATT
  POIN2 Label_7_01EA69FE
// 031   ----------------------------------------
 BYTE   PATT
  POIN2 Label_7_01EA6A1B
// 032   ----------------------------------------
 BYTE   W48
 BYTE   GoTo
  POIN2 Label_7_01EA6A2F
 BYTE   FINE

//**************** Track 9 (Midi-Chn.8) ****************//

FF3Battle1RSflame_009:
// 000   ----------------------------------------
 BYTE   KEYSH   FF3Battle1RSflame_key+0
 BYTE   VOICE   7
 BYTE   PAN   c_v+63
 BYTE   VOL   47*FF3Battle1RSflame_mvl/mxv
 BYTE   W48
 BYTE   W01
 BYTE   N01  An1  v100
 BYTE   W44
 BYTE   W03
// 001   ----------------------------------------
Label_8_01EA58F7:
 BYTE   W84
 BYTE   W01
 BYTE   N01  En1  v124
 BYTE   W11
 BYTE   PEND 
// 002   ----------------------------------------
 BYTE   W44
 BYTE   N48  Cn1
 BYTE   W52
// 003   ----------------------------------------
Label_8_01EA5902:
 BYTE   N01  An1  v096
 BYTE   W48
 BYTE   N01
 BYTE   W48
 BYTE   PEND 
// 004   ----------------------------------------
 BYTE   PATT
  POIN2 Label_8_01EA5902
// 005   ----------------------------------------
Label_8_01EA590E:
 BYTE   N01  Gn1  v127
 BYTE   W60
 BYTE   W01
 BYTE   An1
 BYTE   W32
 BYTE   W03
 BYTE   PEND 
// 006   ----------------------------------------
 BYTE   W48
Label_8_01EA5918:
 BYTE   W01
 BYTE   N01  An1  v092
 BYTE   W12
 BYTE   N01
 BYTE   W32
 BYTE   W03
// 007   ----------------------------------------
Label_8_01EA5920:
 BYTE   W24
 BYTE   W01
 BYTE   N01  An1  v124
 BYTE   W24
 BYTE   An1  v092
 BYTE   W12
 BYTE   N01
 BYTE   W32
 BYTE   W03
 BYTE   PEND 
// 008   ----------------------------------------
 BYTE   W24
 BYTE   W01
 BYTE   An1  v124
 BYTE   W24
 BYTE   An1  v092
 BYTE   W44
 BYTE   W03
// 009   ----------------------------------------
 BYTE   PATT
  POIN2 Label_8_01EA58F7
// 010   ----------------------------------------
 BYTE   W44
 BYTE   W01
 BYTE   N48  Cn1  v124
 BYTE   W48
 BYTE   W03
// 011   ----------------------------------------
 BYTE   PATT
  POIN2 Label_8_01EA5902
// 012   ----------------------------------------
 BYTE   PATT
  POIN2 Label_8_01EA5902
// 013   ----------------------------------------
 BYTE   N01  Gn1  v124
 BYTE   W60
 BYTE   W01
 BYTE   An1
 BYTE   W32
 BYTE   W03
// 014   ----------------------------------------
 BYTE   W48
 BYTE   W01
 BYTE   An1  v092
 BYTE   W12
 BYTE   N01
 BYTE   W32
 BYTE   W03
// 015   ----------------------------------------
 BYTE   PATT
  POIN2 Label_8_01EA5920
// 016   ----------------------------------------
 BYTE   W24
 BYTE   W01
 BYTE   N01  An1  v124
 BYTE   W24
 BYTE   N01
 BYTE   W44
 BYTE   W03
// 017   ----------------------------------------
Label_8_01EA596A:
 BYTE   W01
 BYTE   N01  An1  v096
 BYTE   W48
 BYTE   N01
 BYTE   W44
 BYTE   W03
 BYTE   PEND 
// 018   ----------------------------------------
Label_8_01EA5973:
 BYTE   W01
 BYTE   N01  An1  v096
 BYTE   W48
 BYTE   N01
 BYTE   W24
 BYTE   N01
 BYTE   W23
 BYTE   PEND 
// 019   ----------------------------------------
Label_8_01EA597D:
 BYTE   W01
 BYTE   N01  An1  v124
 BYTE   W48
 BYTE   An1  v096
 BYTE   W24
 BYTE   N01
 BYTE   W23
 BYTE   PEND 
// 020   ----------------------------------------
Label_8_01EA5988:
 BYTE   W01
 BYTE   N01  An1  v124
 BYTE   W48
 BYTE   N01
 BYTE   W44
 BYTE   W03
 BYTE   PEND 
// 021   ----------------------------------------
 BYTE   PATT
  POIN2 Label_8_01EA596A
// 022   ----------------------------------------
 BYTE   PATT
  POIN2 Label_8_01EA5973
// 023   ----------------------------------------
 BYTE   PATT
  POIN2 Label_8_01EA597D
// 024   ----------------------------------------
 BYTE   PATT
  POIN2 Label_8_01EA5988
// 025   ----------------------------------------
 BYTE   PATT
  POIN2 Label_8_01EA596A
// 026   ----------------------------------------
 BYTE   W01
 BYTE   N01  Gn1  v124
 BYTE   N01  An1  v096
 BYTE   W72
 BYTE   N01
 BYTE   W23
// 027   ----------------------------------------
 BYTE   W24
 BYTE   W01
 BYTE   N01
 BYTE   W48
 BYTE   N01
 BYTE   W23
// 028   ----------------------------------------
 BYTE   En1  v124
 BYTE   W44
 BYTE   W03
 BYTE   N04  Cn1
 BYTE   W48
 BYTE   W01
// 029   ----------------------------------------
 BYTE   PATT
  POIN2 Label_8_01EA5902
// 030   ----------------------------------------
 BYTE   PATT
  POIN2 Label_8_01EA5902
// 031   ----------------------------------------
 BYTE   PATT
  POIN2 Label_8_01EA590E
// 032   ----------------------------------------
 BYTE   W48
 BYTE   GoTo
  POIN2 Label_8_01EA5918
 BYTE   FINE

//**************** Track 10 (Midi-Chn.9) ****************//

FF3Battle1RSflame_010:
// 000   ----------------------------------------
 BYTE   KEYSH   FF3Battle1RSflame_key+0
 BYTE   VOICE   50
 BYTE   PAN   c_v-64
 BYTE   VOL   41*FF3Battle1RSflame_mvl/mxv
 BYTE   W03
 BYTE   N03  Fn1  v108
 BYTE   W04
 BYTE   Gs1
 BYTE   W04
 BYTE   Bn1
 BYTE   W04
 BYTE   Dn2
 BYTE   W04
 BYTE   Fn2
 BYTE   W04
 BYTE   Gs2
 BYTE   W04
 BYTE   Bn2
 BYTE   W04
 BYTE   Dn3
 BYTE   W04
 BYTE   Fn3
 BYTE   W04
 BYTE   Gs3
 BYTE   W04
 BYTE   Bn3
 BYTE   W04
 BYTE   Dn4
 BYTE   W48
 BYTE   W01
// 001   ----------------------------------------
 BYTE   W96
// 002   ----------------------------------------
Label_9_01EA5AF1:
 BYTE   W48
 BYTE   W03
 BYTE   N64  An2  v127
 BYTE   W44
 BYTE   W01
 BYTE   PEND 
// 003   ----------------------------------------
Label_9_01EA5AF9:
 BYTE   W24
 BYTE   W03
 BYTE   N21  Bn2  v127
 BYTE   W24
 BYTE   N64  Cn3
 BYTE   W44
 BYTE   W01
 BYTE   PEND 
// 004   ----------------------------------------
Label_9_01EA5B04:
 BYTE   W24
 BYTE   W03
 BYTE   N21  Dn3  v127
 BYTE   W24
 BYTE   En3
 BYTE   W24
 BYTE   An3
 BYTE   W21
 BYTE   PEND 
// 005   ----------------------------------------
Label_9_01EA5B0F:
 BYTE   W03
 BYTE   N21  Gn3  v127
 BYTE   W24
 BYTE   En3
 BYTE   W24
 BYTE   N10  Fs3
 BYTE   W12
 BYTE   Dn3
 BYTE   W32
 BYTE   W01
 BYTE   PEND 
// 006   ----------------------------------------
 BYTE   W48
Label_9_01EA5B1E:
 BYTE   W03
 BYTE   N21  Fn3  v127
 BYTE   W24
 BYTE   Cn3
 BYTE   W21
// 007   ----------------------------------------
Label_9_01EA5B25:
 BYTE   W03
 BYTE   N21  An2  v127
 BYTE   W24
 BYTE   Fn3
 BYTE   W24
 BYTE   En3
 BYTE   W24
 BYTE   Bn2
 BYTE   W21
 BYTE   PEND 
// 008   ----------------------------------------
 BYTE   W03
 BYTE   Gs2
 BYTE   W24
 BYTE   En3
 BYTE   W24
 BYTE   Dn3
 BYTE   W24
 BYTE   Cn3
 BYTE   W21
// 009   ----------------------------------------
 BYTE   W03
 BYTE   An2
 BYTE   W24
 BYTE   Cn3
 BYTE   W24
 BYTE   N10  Bn2
 BYTE   W44
 BYTE   W01
// 010   ----------------------------------------
 BYTE   W36
 BYTE   W03
 BYTE   En2
 BYTE   W12
 BYTE   N64  An2
 BYTE   W44
 BYTE   W01
// 011   ----------------------------------------
 BYTE   PATT
  POIN2 Label_9_01EA5AF9
// 012   ----------------------------------------
 BYTE   PATT
  POIN2 Label_9_01EA5B04
// 013   ----------------------------------------
 BYTE   PATT
  POIN2 Label_9_01EA5B0F
// 014   ----------------------------------------
 BYTE   W48
 BYTE   W03
 BYTE   N21  Fn3  v127
 BYTE   W24
 BYTE   Cn3
 BYTE   W21
// 015   ----------------------------------------
 BYTE   PATT
  POIN2 Label_9_01EA5B25
// 016   ----------------------------------------
 BYTE   W03
 BYTE   N21  Gs2  v127
 BYTE   W24
 BYTE   Bn2
 BYTE   W24
 BYTE   TIE  An2
 BYTE   W44
 BYTE   W01
// 017   ----------------------------------------
 BYTE   W96
// 018   ----------------------------------------
 BYTE   W19
 BYTE   EOT
 BYTE   W32
 BYTE   N42  Dn3
 BYTE   W44
 BYTE   W01
// 019   ----------------------------------------
Label_9_01EA5B7A:
 BYTE   W03
 BYTE   N42  En3  v127
 BYTE   W48
 BYTE   Fn3
 BYTE   W44
 BYTE   W01
 BYTE   PEND 
// 020   ----------------------------------------
 BYTE   W03
 BYTE   Dn3
 BYTE   W48
 BYTE   N10  Cn3  v092
 BYTE   W12
 BYTE   Dn3
 BYTE   W12
 BYTE   En3
 BYTE   W12
 BYTE   An2
 BYTE   W09
// 021   ----------------------------------------
 BYTE   W03
 BYTE   Bn2
 BYTE   W12
 BYTE   Cn3
 BYTE   W24
 BYTE   N10
 BYTE   W12
 BYTE   En3
 BYTE   W12
 BYTE   An2
 BYTE   W12
 BYTE   Bn2
 BYTE   W12
 BYTE   N54  Cn3
 BYTE   W09
// 022   ----------------------------------------
 BYTE   W48
 BYTE   W03
 BYTE   N42  Dn3  v127
 BYTE   W44
 BYTE   W01
// 023   ----------------------------------------
 BYTE   PATT
  POIN2 Label_9_01EA5B7A
// 024   ----------------------------------------
 BYTE   W03
 BYTE   N42  Dn3  v127
 BYTE   W48
 BYTE   N06  An2  v112
 BYTE   W12
 BYTE   Bn2
 BYTE   W12
 BYTE   N21  Cn3
 BYTE   W21
// 025   ----------------------------------------
 BYTE   W03
 BYTE   N06  Bn2
 BYTE   W12
 BYTE   Cn3
 BYTE   W12
 BYTE   N21  Dn3
 BYTE   W24
 BYTE   N06  Cn3
 BYTE   W12
 BYTE   Dn3
 BYTE   W12
 BYTE   N21  En3
 BYTE   W21
// 026   ----------------------------------------
 BYTE   W03
 BYTE   N10  Dn3
 BYTE   W12
 BYTE   En3
 BYTE   W12
 BYTE   Fn3
 BYTE   W12
 BYTE   An3
 BYTE   W12
 BYTE   N84  Gs3
 BYTE   W44
 BYTE   W01
// 027   ----------------------------------------
 BYTE   W48
 BYTE   W03
 BYTE   En3
 BYTE   W44
 BYTE   W01
// 028   ----------------------------------------
 BYTE   PATT
  POIN2 Label_9_01EA5AF1
// 029   ----------------------------------------
 BYTE   PATT
  POIN2 Label_9_01EA5AF9
// 030   ----------------------------------------
 BYTE   PATT
  POIN2 Label_9_01EA5B04
// 031   ----------------------------------------
 BYTE   PATT
  POIN2 Label_9_01EA5B0F
// 032   ----------------------------------------
 BYTE   W48
 BYTE   GoTo
  POIN2 Label_9_01EA5B1E
 BYTE   FINE

//**************** Track 11 (Midi-Chn.10) ****************//

FF3Battle1RSflame_011:
// 000   ----------------------------------------
 BYTE   KEYSH   FF3Battle1RSflame_key+0
 BYTE   VOICE   56
 BYTE   PAN   c_v+0
 BYTE   VOL   60*FF3Battle1RSflame_mvl/mxv
 BYTE   W24
 BYTE   N03  Gs2  v096
 BYTE   W04
 BYTE   Bn2
 BYTE   W04
 BYTE   Dn3
 BYTE   W04
 BYTE   Fn3
 BYTE   W04
 BYTE   Gs3
 BYTE   W04
 BYTE   Bn3
 BYTE   W52
// 001   ----------------------------------------
 BYTE   W96
// 002   ----------------------------------------
 BYTE   W96
// 003   ----------------------------------------
 BYTE   W96
// 004   ----------------------------------------
 BYTE   W96
// 005   ----------------------------------------
 BYTE   W96
// 006   ----------------------------------------
 BYTE   W48
Label_10_01EA4D35:
 BYTE   W48
// 007   ----------------------------------------
 BYTE   W96
// 008   ----------------------------------------
 BYTE   W96
// 009   ----------------------------------------
 BYTE   W96
// 010   ----------------------------------------
 BYTE   W96
// 011   ----------------------------------------
 BYTE   W96
// 012   ----------------------------------------
 BYTE   W96
// 013   ----------------------------------------
 BYTE   W96
// 014   ----------------------------------------
 BYTE   W96
// 015   ----------------------------------------
 BYTE   W96
// 016   ----------------------------------------
 BYTE   W96
// 017   ----------------------------------------
 BYTE   W48
 BYTE   PAN   c_v+0
 BYTE   W48
// 018   ----------------------------------------
 BYTE   VOL   41*FF3Battle1RSflame_mvl/mxv
 BYTE   W44
 BYTE   W03
 BYTE   N42  Dn3  v100
 BYTE   W48
 BYTE   En3
 BYTE   W01
// 019   ----------------------------------------
Label_10_01EA4D4E:
 BYTE   W44
 BYTE   W03
 BYTE   N42  Fn3  v100
 BYTE   W48
 BYTE   Dn3
 BYTE   W01
 BYTE   PEND 
// 020   ----------------------------------------
 BYTE   W44
 BYTE   W03
 BYTE   N08  Cn3  v127
 BYTE   W12
 BYTE   Dn3
 BYTE   W12
 BYTE   En3
 BYTE   W12
 BYTE   An2
 BYTE   W12
 BYTE   Bn2
 BYTE   W01
// 021   ----------------------------------------
 BYTE   W11
 BYTE   Cn3
 BYTE   W24
 BYTE   N08
 BYTE   W12
 BYTE   En3
 BYTE   W12
 BYTE   An2
 BYTE   W12
 BYTE   Bn2
 BYTE   W12
 BYTE   N54  Cn3
 BYTE   W13
// 022   ----------------------------------------
 BYTE   W44
 BYTE   W03
 BYTE   N42  Dn3  v100
 BYTE   W48
 BYTE   En3
 BYTE   W01
// 023   ----------------------------------------
 BYTE   PATT
  POIN2 Label_10_01EA4D4E
// 024   ----------------------------------------
 BYTE   W44
 BYTE   W03
 BYTE   N07  An2  v127
 BYTE   W12
 BYTE   Bn2
 BYTE   W12
 BYTE   N21  Cn3
 BYTE   W24
 BYTE   N07  Bn2
 BYTE   W01
// 025   ----------------------------------------
 BYTE   W11
 BYTE   Cn3
 BYTE   W12
 BYTE   N21  Dn3
 BYTE   W24
 BYTE   N07  Cn3
 BYTE   W12
 BYTE   Dn3
 BYTE   W12
 BYTE   N21  En3
 BYTE   W24
 BYTE   N08  Dn3
 BYTE   W01
// 026   ----------------------------------------
 BYTE   W11
 BYTE   En3
 BYTE   W12
 BYTE   Fn3
 BYTE   W12
 BYTE   An3
 BYTE   W12
 BYTE   N84  Gs3
 BYTE   W48
 BYTE   W01
// 027   ----------------------------------------
 BYTE   W44
 BYTE   W03
 BYTE   En3
 BYTE   W48
 BYTE   W01
// 028   ----------------------------------------
 BYTE   W96
// 029   ----------------------------------------
 BYTE   W96
// 030   ----------------------------------------
 BYTE   W96
// 031   ----------------------------------------
 BYTE   W96
// 032   ----------------------------------------
 BYTE   W48
 BYTE   GoTo
  POIN2 Label_10_01EA4D35
 BYTE   FINE

//******************************************************//
	ALIGN 4

FF3Battle1RSflame:
	BYTE	11	// NumTrks
	BYTE	0	// NumBlks
	BYTE	FF3Battle1RSflame_pri	// Priority
	BYTE	FF3Battle1RSflame_rev	// Reverb.
    
	POIN2	FF3Battle1RSflame_grp
    
	POIN2	FF3Battle1RSflame_001
	POIN2	FF3Battle1RSflame_002
	POIN2	FF3Battle1RSflame_003
	POIN2	FF3Battle1RSflame_004
	POIN2	FF3Battle1RSflame_005
	POIN2	FF3Battle1RSflame_006
	POIN2	FF3Battle1RSflame_007
	POIN2	FF3Battle1RSflame_008
	POIN2	FF3Battle1RSflame_009
	POIN2	FF3Battle1RSflame_010
	POIN2	FF3Battle1RSflame_011

	
