//Event file generated from Sappy .s format.
	#include "MPlayDef.event"

	#define	FF5CursedEarthRandomWizard_grp  voicegroup000
	#define	FF5CursedEarthRandomWizard_pri  0
	#define	FF5CursedEarthRandomWizard_rev  0
	#define	FF5CursedEarthRandomWizard_mvl  127
	#define	FF5CursedEarthRandomWizard_key  0
	#define	FF5CursedEarthRandomWizard_tbs  1
	#define	FF5CursedEarthRandomWizard_exg  0
	#define	FF5CursedEarthRandomWizard_cmp  1

	// .rodata
	//	FF5CursedEarthRandomWizard
	ALIGN 4


//**************** Track 1 (Midi-Chn.0) ****************//

FF5CursedEarthRandomWizard_001:
// 000   ----------------------------------------
 BYTE   KEYSH   FF5CursedEarthRandomWizard_key+0
Label_0_01348B9A:
 BYTE   TEMPO   60*FF5CursedEarthRandomWizard_tbs/2
 BYTE   VOICE   68
 BYTE   VOL   54*FF5CursedEarthRandomWizard_mvl/mxv
 BYTE   PAN   c_v-48
 BYTE   MOD 0
 BYTE   CnM2
 BYTE   BEND   c_v+0
 BYTE   W01
 BYTE   W92
 BYTE   W03
// 001   ----------------------------------------
 BYTE   W92
 BYTE   N04  Cs3  v100
 BYTE   N04  As3
 BYTE   W04
// 002   ----------------------------------------
Label_0_01348BB0:
 BYTE   N04  Ds3  v100
 BYTE   N04  Cn4
 BYTE   W08
 BYTE   Fn3
 BYTE   N04  Cs4
 BYTE   W04
 BYTE   Ds3
 BYTE   N04  Cn4
 BYTE   W08
 BYTE   Fs3
 BYTE   N04  Ds4
 BYTE   W04
 BYTE   Fn3
 BYTE   N04  Cs4
 BYTE   W08
 BYTE   Ds3
 BYTE   N04  Cn4
 BYTE   W04
 BYTE   Cs3
 BYTE   N04  As3
 BYTE   W08
 BYTE   Cn3
 BYTE   N04  Gs3
 BYTE   W04
 BYTE   Cs3
 BYTE   N04  As3
 BYTE   W08
 BYTE   Ds3
 BYTE   N04  Cn4
 BYTE   W04
 BYTE   Cs3
 BYTE   N04  As3
 BYTE   W08
 BYTE   As2
 BYTE   N04  Gn3
 BYTE   W04
 BYTE   Cn3
 BYTE   N04  Gs3
 BYTE   W08
 BYTE   Cs3
 BYTE   N04  As3
 BYTE   W04
 BYTE   Cn3
 BYTE   N04  Gs3
 BYTE   W08
 BYTE   Cs3
 BYTE   N04  As3
 BYTE   W04
 BYTE   PEND 
// 003   ----------------------------------------
Label_0_01348BF3:
 BYTE   N04  Ds3  v100
 BYTE   N04  Cn4
 BYTE   W08
 BYTE   Fn3
 BYTE   N04  Cs4
 BYTE   W04
 BYTE   Ds3
 BYTE   N04  Cn4
 BYTE   W08
 BYTE   Fs3
 BYTE   N04  Ds4
 BYTE   W04
 BYTE   Fn3
 BYTE   N04  Cs4
 BYTE   W08
 BYTE   Ds3
 BYTE   N04  Cn4
 BYTE   W04
 BYTE   Cs3
 BYTE   N04  As3
 BYTE   W08
 BYTE   Cn3
 BYTE   N04  Gs3
 BYTE   W04
 BYTE   Cs3
 BYTE   N04  As3
 BYTE   W08
 BYTE   Ds3
 BYTE   N04  Cn4
 BYTE   W04
 BYTE   Cs3
 BYTE   N04  As3
 BYTE   W08
 BYTE   As2
 BYTE   N04  Gn3
 BYTE   W04
 BYTE   Cn3
 BYTE   N04  Gs3
 BYTE   W08
 BYTE   Cs3
 BYTE   N04  As3
 BYTE   W04
 BYTE   Cn3
 BYTE   N04  Gs3
 BYTE   W08
 BYTE   Fs3
 BYTE   N04  Ds4
 BYTE   W04
 BYTE   PEND 
// 004   ----------------------------------------
Label_0_01348C36:
 BYTE   N04  Gs3  v100
 BYTE   N04  Fn4
 BYTE   W08
 BYTE   As3
 BYTE   N04  Fs4
 BYTE   W04
 BYTE   Gs3
 BYTE   N04  Fn4
 BYTE   W08
 BYTE   Bn3
 BYTE   N04  Gs4
 BYTE   W04
 BYTE   As3
 BYTE   N04  Fs4
 BYTE   W08
 BYTE   Gs3
 BYTE   N04  Fn4
 BYTE   W04
 BYTE   Fs3
 BYTE   N04  Ds4
 BYTE   W08
 BYTE   Fn3
 BYTE   N04  Cs4
 BYTE   W04
 BYTE   Fs3
 BYTE   N04  Ds4
 BYTE   W08
 BYTE   Gs3
 BYTE   N04  Fn4
 BYTE   W04
 BYTE   Fs3
 BYTE   N04  Ds4
 BYTE   W08
 BYTE   Ds3
 BYTE   N04  Cn4
 BYTE   W04
 BYTE   Fn3
 BYTE   N04  Cs4
 BYTE   W08
 BYTE   Fs3
 BYTE   N04  Ds4
 BYTE   W04
 BYTE   Fn3
 BYTE   N04  Cs4
 BYTE   W08
 BYTE   Fs3
 BYTE   N04  Ds4
 BYTE   W04
 BYTE   PEND 
// 005   ----------------------------------------
 BYTE   Gs3
 BYTE   N04  Fn4
 BYTE   W08
 BYTE   As3
 BYTE   N04  Fs4
 BYTE   W04
 BYTE   Gs3
 BYTE   N04  Fn4
 BYTE   W08
 BYTE   Bn3
 BYTE   N04  Gs4
 BYTE   W04
 BYTE   As3
 BYTE   N04  Fs4
 BYTE   W08
 BYTE   Gs3
 BYTE   N04  Fn4
 BYTE   W04
 BYTE   Fs3
 BYTE   N04  Ds4
 BYTE   W08
 BYTE   Fn3
 BYTE   N04  Cs4
 BYTE   W04
 BYTE   Fs3
 BYTE   N04  Ds4
 BYTE   W08
 BYTE   Gs3
 BYTE   N04  Fn4
 BYTE   W04
 BYTE   Fs3
 BYTE   N04  Ds4
 BYTE   W08
 BYTE   Ds3
 BYTE   N04  Cn4
 BYTE   W04
 BYTE   Fn3
 BYTE   N04  Cs4
 BYTE   W08
 BYTE   Fs3
 BYTE   N04  Ds4
 BYTE   W04
 BYTE   Fn3
 BYTE   N04  Cs4
 BYTE   W08
 BYTE   Cs3
 BYTE   N04  As3
 BYTE   W04
 BYTE   PATT
  POIN2 Label_0_01348BB0
 BYTE   PATT
  POIN2 Label_0_01348BF3
 BYTE   PATT
  POIN2 Label_0_01348C36
// 006   ----------------------------------------
 BYTE   N04  Gs3  v100
 BYTE   N04  Fn4
 BYTE   W08
 BYTE   As3
 BYTE   N04  Fs4
 BYTE   W04
 BYTE   Gs3
 BYTE   N04  Fn4
 BYTE   W08
 BYTE   Bn3
 BYTE   N04  Gs4
 BYTE   W04
 BYTE   As3
 BYTE   N04  Fs4
 BYTE   W08
 BYTE   Gs3
 BYTE   N04  Fn4
 BYTE   W04
 BYTE   Fs3
 BYTE   N04  Ds4
 BYTE   W08
 BYTE   Fn3
 BYTE   N04  Cs4
 BYTE   W04
 BYTE   Fs3
 BYTE   N04  Ds4
 BYTE   W08
 BYTE   Gs3
 BYTE   N04  Fn4
 BYTE   W04
 BYTE   Fs3
 BYTE   N04  Ds4
 BYTE   W08
 BYTE   Ds3
 BYTE   N04  Cn4
 BYTE   W04
 BYTE   Fn3
 BYTE   N04  Cs4
 BYTE   W08
 BYTE   Ds3
 BYTE   N04  Cn4
 BYTE   W04
 BYTE   Cs3
 BYTE   N04  As3
 BYTE   W08
 BYTE   Cn3
 BYTE   N04  Gs3
 BYTE   W04
// 007   ----------------------------------------
 BYTE   W96
// 008   ----------------------------------------
 BYTE   N18  Cn3
 BYTE   N18  Gn3
 BYTE   W18
 BYTE   N02  Cn3
 BYTE   N02  Gn3
 BYTE   W02
 BYTE   Cs3
 BYTE   N02  Gs3
 BYTE   W02
 BYTE   Dn3
 BYTE   N02  An3
 BYTE   W02
 BYTE   N18  Ds3
 BYTE   N18  As3
 BYTE   W18
 BYTE   N02  Ds3
 BYTE   N02  As3
 BYTE   W02
 BYTE   En3
 BYTE   N02  Bn3
 BYTE   W02
 BYTE   Fn3
 BYTE   N02  Cn4
 BYTE   W02
 BYTE   N18  Fs3
 BYTE   N18  Cs4
 BYTE   W18
 BYTE   N02  Fs3
 BYTE   N02  Cs4
 BYTE   W02
 BYTE   Gn3
 BYTE   N02  Dn4
 BYTE   W02
 BYTE   Gs3
 BYTE   N02  Ds4
 BYTE   W02
 BYTE   N12  An3
 BYTE   N12  En4
 BYTE   W12
 BYTE   Cn4
 BYTE   N12  Gn4
 BYTE   W12
// 009   ----------------------------------------
 BYTE   As3
 BYTE   N12  Fs4
 BYTE   W12
 BYTE   N06  An3
 BYTE   N06  Fn4
 BYTE   W12
 BYTE   N12  As3  v076
 BYTE   N12  Fs4
 BYTE   W12
 BYTE   N06  An3
 BYTE   N06  Fn4
 BYTE   W12
 BYTE   N12  As3  v052
 BYTE   N12  Fs4
 BYTE   W12
 BYTE   N06  An3
 BYTE   N06  Fn4
 BYTE   W12
 BYTE   N12  As3  v028
 BYTE   N12  Fs4
 BYTE   W12
 BYTE   N06  An3
 BYTE   N06  Fn4
 BYTE   W12
// 010   ----------------------------------------
 BYTE   GoTo
  POIN2 Label_0_01348B9A
 BYTE   FINE

//**************** Track 2 (Midi-Chn.1) ****************//

FF5CursedEarthRandomWizard_002:
// 000   ----------------------------------------
 BYTE   KEYSH   FF5CursedEarthRandomWizard_key+0
Label_1_01348D7E:
 BYTE   VOICE   47
 BYTE   VOL   47*FF5CursedEarthRandomWizard_mvl/mxv
 BYTE   PAN   c_v+22
 BYTE   MOD 0
 BYTE   CnM2
 BYTE   BEND   c_v+0
 BYTE   N92  As1  v100
 BYTE   W92
 BYTE   N04  Fn1
 BYTE   W04
// 001   ----------------------------------------
Label_1_01348D8F:
 BYTE   N92  As1  v100
 BYTE   W92
 BYTE   N04  Fn1
 BYTE   W04
 BYTE   PEND 
 BYTE   PATT
  POIN2 Label_1_01348D8F
// 002   ----------------------------------------
Label_1_01348D9C:
 BYTE   N92  As1  v100
 BYTE   W92
 BYTE   N04
 BYTE   W04
 BYTE   PEND 
// 003   ----------------------------------------
Label_1_01348DA3:
 BYTE   N92  Ds2  v100
 BYTE   W92
 BYTE   N04  As1
 BYTE   W04
 BYTE   PEND 
// 004   ----------------------------------------
Label_1_01348DAB:
 BYTE   N92  Ds2  v100
 BYTE   W92
 BYTE   N04
 BYTE   W04
 BYTE   PEND 
 BYTE   PATT
  POIN2 Label_1_01348D8F
 BYTE   PATT
  POIN2 Label_1_01348D9C
 BYTE   PATT
  POIN2 Label_1_01348DA3
 BYTE   PATT
  POIN2 Label_1_01348DAB
// 005   ----------------------------------------
Label_1_01348DC6:
 BYTE   N24  Cn2  v100
 BYTE   W24
 BYTE   Gn1
 BYTE   W24
 BYTE   Cn2
 BYTE   W24
 BYTE   Gn1
 BYTE   W24
 BYTE   PEND 
 BYTE   PATT
  POIN2 Label_1_01348DC6
// 006   ----------------------------------------
 BYTE   N48  Cn2  v100
 BYTE   W48
 BYTE   N48
 BYTE   W48
// 007   ----------------------------------------
 BYTE   GoTo
  POIN2 Label_1_01348D7E
 BYTE   FINE

//**************** Track 3 (Midi-Chn.2) ****************//

FF5CursedEarthRandomWizard_003:
// 000   ----------------------------------------
 BYTE   KEYSH   FF5CursedEarthRandomWizard_key+0
Label_2_01348DE6:
 BYTE   VOICE   50
 BYTE   VOL   40*FF5CursedEarthRandomWizard_mvl/mxv
 BYTE   PAN   c_v+54
 BYTE   MOD 0
 BYTE   CnM2
 BYTE   BEND   c_v+0
 BYTE   W96
// 001   ----------------------------------------
 BYTE   W96
// 002   ----------------------------------------
Label_2_01348DF2:
 BYTE   N04  Cs3  v100
 BYTE   N04  As3
 BYTE   W04
 BYTE   Ds3
 BYTE   N04  Cn4
 BYTE   W04
 BYTE   Fn3
 BYTE   N04  Cs4
 BYTE   W04
 BYTE   As3
 BYTE   N04  Fn4
 BYTE   W04
 BYTE   Fn3
 BYTE   N04  Cs4
 BYTE   W04
 BYTE   Ds3
 BYTE   N04  Cn4
 BYTE   W04
 BYTE   Cs3
 BYTE   N04  As3
 BYTE   W04
 BYTE   Ds3
 BYTE   N04  Cn4
 BYTE   W04
 BYTE   Fn3
 BYTE   N04  Cs4
 BYTE   W04
 BYTE   As3
 BYTE   N04  Fn4
 BYTE   W04
 BYTE   Fn3
 BYTE   N04  Cs4
 BYTE   W04
 BYTE   Ds3
 BYTE   N04  Cn4
 BYTE   W04
 BYTE   Cs3
 BYTE   N04  As3
 BYTE   W04
 BYTE   Ds3
 BYTE   N04  Cn4
 BYTE   W04
 BYTE   Fn3
 BYTE   N04  Cs4
 BYTE   W04
 BYTE   As3
 BYTE   N04  Fn4
 BYTE   W04
 BYTE   Fn3
 BYTE   N04  Cs4
 BYTE   W04
 BYTE   Ds3
 BYTE   N04  Cn4
 BYTE   W04
 BYTE   Cs3
 BYTE   N04  As3
 BYTE   W04
 BYTE   Ds3
 BYTE   N04  Cn4
 BYTE   W04
 BYTE   Fn3
 BYTE   N04  Cs4
 BYTE   W04
 BYTE   As3
 BYTE   N04  Fn4
 BYTE   W04
 BYTE   Fn3
 BYTE   N04  Cs4
 BYTE   W04
 BYTE   Ds3
 BYTE   N04  Cn4
 BYTE   W04
 BYTE   PEND 
 BYTE   PATT
  POIN2 Label_2_01348DF2
// 003   ----------------------------------------
Label_2_01348E5A:
 BYTE   N04  Fs3  v100
 BYTE   N04  Ds4
 BYTE   W04
 BYTE   Gs3
 BYTE   N04  Fn4
 BYTE   W04
 BYTE   As3
 BYTE   N04  Fs4
 BYTE   W04
 BYTE   Ds4
 BYTE   N04  As4
 BYTE   W04
 BYTE   As3
 BYTE   N04  Fs4
 BYTE   W04
 BYTE   Gs3
 BYTE   N04  Fn4
 BYTE   W04
 BYTE   Fs3
 BYTE   N04  Ds4
 BYTE   W04
 BYTE   Gs3
 BYTE   N04  Fn4
 BYTE   W04
 BYTE   As3
 BYTE   N04  Fs4
 BYTE   W04
 BYTE   Ds4
 BYTE   N04  As4
 BYTE   W04
 BYTE   As3
 BYTE   N04  Fs4
 BYTE   W04
 BYTE   Gs3
 BYTE   N04  Fn4
 BYTE   W04
 BYTE   Fs3
 BYTE   N04  Ds4
 BYTE   W04
 BYTE   Gs3
 BYTE   N04  Fn4
 BYTE   W04
 BYTE   As3
 BYTE   N04  Fs4
 BYTE   W04
 BYTE   Ds4
 BYTE   N04  As4
 BYTE   W04
 BYTE   As3
 BYTE   N04  Fs4
 BYTE   W04
 BYTE   Gs3
 BYTE   N04  Fn4
 BYTE   W04
 BYTE   Fs3
 BYTE   N04  Ds4
 BYTE   W04
 BYTE   Gs3
 BYTE   N04  Fn4
 BYTE   W04
 BYTE   As3
 BYTE   N04  Fs4
 BYTE   W04
 BYTE   Ds4
 BYTE   N04  As4
 BYTE   W04
 BYTE   As3
 BYTE   N04  Fs4
 BYTE   W04
 BYTE   Gs3
 BYTE   N04  Fn4
 BYTE   W04
 BYTE   PEND 
 BYTE   PATT
  POIN2 Label_2_01348E5A
 BYTE   PATT
  POIN2 Label_2_01348DF2
 BYTE   PATT
  POIN2 Label_2_01348DF2
 BYTE   PATT
  POIN2 Label_2_01348E5A
 BYTE   PATT
  POIN2 Label_2_01348E5A
// 004   ----------------------------------------
Label_2_01348ED6:
 BYTE   N18  Cn2  v100
 BYTE   N18  Gn3
 BYTE   W18
 BYTE   N02  Cn2
 BYTE   N02  Gn3
 BYTE   W02
 BYTE   Cs2
 BYTE   N02  Gs3
 BYTE   W02
 BYTE   Dn2
 BYTE   N02  An3
 BYTE   W02
 BYTE   N18  Ds2
 BYTE   N18  As3
 BYTE   W18
 BYTE   N02  Ds2
 BYTE   N02  As3
 BYTE   W02
 BYTE   En2
 BYTE   N02  Bn3
 BYTE   W02
 BYTE   Fn2
 BYTE   N02  Cn4
 BYTE   W02
 BYTE   N18  Fs2
 BYTE   N18  Cs4
 BYTE   W18
 BYTE   N02  Fs2
 BYTE   N02  Cs4
 BYTE   W02
 BYTE   Gn2
 BYTE   N02  Dn4
 BYTE   W02
 BYTE   Gs2
 BYTE   N02  Ds4
 BYTE   W02
 BYTE   N12  An2
 BYTE   N12  En4
 BYTE   W12
 BYTE   Cn3
 BYTE   N12  Gn4
 BYTE   W12
 BYTE   PEND 
 BYTE   PATT
  POIN2 Label_2_01348ED6
// 005   ----------------------------------------
 BYTE   N96  Cn2  v100
 BYTE   N12  Fs4
 BYTE   W12
 BYTE   N06  Fn4
 BYTE   W12
 BYTE   N12  Fs4  v076
 BYTE   W12
 BYTE   N06  Fn4
 BYTE   W12
 BYTE   N12  Fs4  v052
 BYTE   W12
 BYTE   N06  Fn4
 BYTE   W12
 BYTE   N12  Fs4  v028
 BYTE   W12
 BYTE   N06  Fn4
 BYTE   W12
// 006   ----------------------------------------
 BYTE   GoTo
  POIN2 Label_2_01348DE6
 BYTE   FINE

//**************** Track 4 (Midi-Chn.3) ****************//

FF5CursedEarthRandomWizard_004:
// 000   ----------------------------------------
 BYTE   KEYSH   FF5CursedEarthRandomWizard_key+0
Label_3_01348F42:
 BYTE   VOICE   0
 BYTE   VOL   51*FF5CursedEarthRandomWizard_mvl/mxv
 BYTE   PAN   c_v-12
 BYTE   MOD 0
 BYTE   CnM2
 BYTE   BEND   c_v+0
 BYTE   N96  As0  v100
 BYTE   W01
 BYTE   W92
 BYTE   W03
// 001   ----------------------------------------
 BYTE   N96
 BYTE   W96
// 002   ----------------------------------------
 BYTE   N96
 BYTE   W96
// 003   ----------------------------------------
 BYTE   N96
 BYTE   W96
// 004   ----------------------------------------
 BYTE   Ds1
 BYTE   W96
// 005   ----------------------------------------
 BYTE   N96
 BYTE   W96
// 006   ----------------------------------------
 BYTE   As0
 BYTE   W96
// 007   ----------------------------------------
 BYTE   N96
 BYTE   W96
// 008   ----------------------------------------
 BYTE   Ds1
 BYTE   W96
// 009   ----------------------------------------
 BYTE   N96
 BYTE   W96
// 010   ----------------------------------------
 BYTE   Cn1
 BYTE   W96
// 011   ----------------------------------------
 BYTE   TIE
 BYTE   W96
// 012   ----------------------------------------
 BYTE   W96
// 013   ----------------------------------------
 BYTE   EOT
 BYTE   GoTo
  POIN2 Label_3_01348F42
 BYTE   FINE

//**************** Track 5 (Midi-Chn.4) ****************//

FF5CursedEarthRandomWizard_005:
// 000   ----------------------------------------
 BYTE   KEYSH   FF5CursedEarthRandomWizard_key+0
Label_4_01348F72:
 BYTE   VOICE   119
 BYTE   VOL   54*FF5CursedEarthRandomWizard_mvl/mxv
 BYTE   PAN   c_v-64
 BYTE   MOD 0
 BYTE   CnM2
 BYTE   BEND   c_v+0
 BYTE   W96
// 001   ----------------------------------------
 BYTE   W48
 BYTE   N48  As1  v100
 BYTE   W48
// 002   ----------------------------------------
 BYTE   W96
// 003   ----------------------------------------
 BYTE   W96
// 004   ----------------------------------------
 BYTE   W96
// 005   ----------------------------------------
 BYTE   W96
// 006   ----------------------------------------
 BYTE   W96
// 007   ----------------------------------------
 BYTE   W96
// 008   ----------------------------------------
 BYTE   W96
// 009   ----------------------------------------
 BYTE   W96
// 010   ----------------------------------------
 BYTE   W96
// 011   ----------------------------------------
 BYTE   W96
// 012   ----------------------------------------
 BYTE   W96
// 013   ----------------------------------------
 BYTE   GoTo
  POIN2 Label_4_01348F72
 BYTE   FINE

//**************** Track 6 (Midi-Chn.5) ****************//

FF5CursedEarthRandomWizard_006:
// 000   ----------------------------------------
 BYTE   KEYSH   FF5CursedEarthRandomWizard_key+0
Label_5_01348F96:
 BYTE   VOICE   119
 BYTE   VOL   54*FF5CursedEarthRandomWizard_mvl/mxv
 BYTE   PAN   c_v+63
 BYTE   MOD 0
 BYTE   CnM2
 BYTE   BEND   c_v+0
 BYTE   W96
// 001   ----------------------------------------
 BYTE   W48
 BYTE   N48  Bn1  v100
 BYTE   W48
// 002   ----------------------------------------
 BYTE   W96
// 003   ----------------------------------------
 BYTE   W96
// 004   ----------------------------------------
 BYTE   W96
// 005   ----------------------------------------
 BYTE   W96
// 006   ----------------------------------------
 BYTE   W96
// 007   ----------------------------------------
 BYTE   W96
// 008   ----------------------------------------
 BYTE   W96
// 009   ----------------------------------------
 BYTE   W96
// 010   ----------------------------------------
 BYTE   W96
// 011   ----------------------------------------
 BYTE   W96
// 012   ----------------------------------------
 BYTE   W96
// 013   ----------------------------------------
 BYTE   GoTo
  POIN2 Label_5_01348F96
 BYTE   FINE

//**************** Track 7 (Midi-Chn.6) ****************//

FF5CursedEarthRandomWizard_007:
// 000   ----------------------------------------
 BYTE   KEYSH   FF5CursedEarthRandomWizard_key+0
Label_6_01348FBA:
 BYTE   VOICE   117
 BYTE   VOL   51*FF5CursedEarthRandomWizard_mvl/mxv
 BYTE   PAN   c_v-64
 BYTE   MOD 0
 BYTE   CnM2
 BYTE   BEND   c_v+0
 BYTE   W12
 BYTE   N04  Fn2  v127
 BYTE   W08
 BYTE   Fn2  v100
 BYTE   W16
 BYTE   Fn1  v127
 BYTE   W08
 BYTE   Fn1  v100
 BYTE   W16
 BYTE   Fn2  v127
 BYTE   W08
 BYTE   Fn2  v100
 BYTE   W16
 BYTE   N12  Fn1  v127
 BYTE   W12
// 001   ----------------------------------------
Label_6_01348FDC:
 BYTE   W12
 BYTE   N04  Fn2  v127
 BYTE   W08
 BYTE   Fn2  v100
 BYTE   W16
 BYTE   Fn1  v127
 BYTE   W08
 BYTE   Fn1  v100
 BYTE   W16
 BYTE   Fn2  v127
 BYTE   W08
 BYTE   Fn2  v100
 BYTE   W08
 BYTE   Fn1  v127
 BYTE   W08
 BYTE   Fn1  v100
 BYTE   W08
 BYTE   Fn1  v060
 BYTE   W04
 BYTE   PEND 
// 002   ----------------------------------------
Label_6_01348FFA:
 BYTE   W12
 BYTE   N04  Fn2  v127
 BYTE   W08
 BYTE   Fn2  v100
 BYTE   W16
 BYTE   Fn1  v127
 BYTE   W08
 BYTE   Fn1  v100
 BYTE   W16
 BYTE   Fn2  v127
 BYTE   W08
 BYTE   Fn2  v100
 BYTE   W16
 BYTE   N12  Fn1  v127
 BYTE   W12
 BYTE   PEND 
 BYTE   PATT
  POIN2 Label_6_01348FDC
 BYTE   PATT
  POIN2 Label_6_01348FFA
 BYTE   PATT
  POIN2 Label_6_01348FDC
 BYTE   PATT
  POIN2 Label_6_01348FFA
 BYTE   PATT
  POIN2 Label_6_01348FDC
 BYTE   PATT
  POIN2 Label_6_01348FFA
 BYTE   PATT
  POIN2 Label_6_01348FDC
// 003   ----------------------------------------
 BYTE   W96
// 004   ----------------------------------------
 BYTE   W96
// 005   ----------------------------------------
 BYTE   W12
 BYTE   N04  Bn2  v127
 BYTE   W08
 BYTE   Bn2  v100
 BYTE   W16
 BYTE   N12  Bn2  v127
 BYTE   W24
 BYTE   N04
 BYTE   W08
 BYTE   Bn2  v100
 BYTE   W16
 BYTE   N12  Bn2  v127
 BYTE   W12
// 006   ----------------------------------------
 BYTE   GoTo
  POIN2 Label_6_01348FBA
 BYTE   FINE

//**************** Track 8 (Midi-Chn.7) ****************//

FF5CursedEarthRandomWizard_008:
// 000   ----------------------------------------
 BYTE   KEYSH   FF5CursedEarthRandomWizard_key+0
Label_7_01349056:
 BYTE   VOICE   117
 BYTE   VOL   51*FF5CursedEarthRandomWizard_mvl/mxv
 BYTE   PAN   c_v+63
 BYTE   MOD 0
 BYTE   CnM2
 BYTE   BEND   c_v+0
 BYTE   W13
 BYTE   N04  Bn2  v127
 BYTE   W08
 BYTE   Bn2  v100
 BYTE   W16
 BYTE   Bn1  v127
 BYTE   W08
 BYTE   Bn1  v100
 BYTE   W16
 BYTE   Bn2  v127
 BYTE   W08
 BYTE   Bn2  v100
 BYTE   W16
 BYTE   N12  Bn1  v127
 BYTE   W11
// 001   ----------------------------------------
Label_7_01349078:
 BYTE   W13
 BYTE   N04  Bn2  v127
 BYTE   W08
 BYTE   Bn2  v100
 BYTE   W16
 BYTE   Bn1  v127
 BYTE   W08
 BYTE   Bn1  v100
 BYTE   W16
 BYTE   Bn2  v127
 BYTE   W08
 BYTE   Bn2  v100
 BYTE   W08
 BYTE   Bn1  v127
 BYTE   W08
 BYTE   Bn1  v100
 BYTE   W08
 BYTE   Bn1  v060
 BYTE   W03
 BYTE   PEND 
// 002   ----------------------------------------
Label_7_01349096:
 BYTE   W13
 BYTE   N04  Bn2  v127
 BYTE   W08
 BYTE   Bn2  v100
 BYTE   W16
 BYTE   Bn1  v127
 BYTE   W08
 BYTE   Bn1  v100
 BYTE   W16
 BYTE   Bn2  v127
 BYTE   W08
 BYTE   Bn2  v100
 BYTE   W16
 BYTE   N12  Bn1  v127
 BYTE   W11
 BYTE   PEND 
 BYTE   PATT
  POIN2 Label_7_01349078
 BYTE   PATT
  POIN2 Label_7_01349096
 BYTE   PATT
  POIN2 Label_7_01349078
 BYTE   PATT
  POIN2 Label_7_01349096
 BYTE   PATT
  POIN2 Label_7_01349078
 BYTE   PATT
  POIN2 Label_7_01349096
 BYTE   PATT
  POIN2 Label_7_01349078
// 003   ----------------------------------------
 BYTE   W96
// 004   ----------------------------------------
 BYTE   W96
// 005   ----------------------------------------
 BYTE   W13
 BYTE   N04  Fn3  v127
 BYTE   W08
 BYTE   Fn3  v100
 BYTE   W16
 BYTE   N12  Fn3  v127
 BYTE   W24
 BYTE   N04
 BYTE   W08
 BYTE   Fn3  v100
 BYTE   W24
 BYTE   W03
// 006   ----------------------------------------
 BYTE   GoTo
  POIN2 Label_7_01349056
 BYTE   FINE

//******************************************************//
	ALIGN 4

FF5CursedEarthRandomWizard:
	BYTE	8	// NumTrks
	BYTE	0	// NumBlks
	BYTE	FF5CursedEarthRandomWizard_pri	// Priority
	BYTE	FF5CursedEarthRandomWizard_rev	// Reverb.
    
	POIN2	FF5CursedEarthRandomWizard_grp
    
	POIN2	FF5CursedEarthRandomWizard_001
	POIN2	FF5CursedEarthRandomWizard_002
	POIN2	FF5CursedEarthRandomWizard_003
	POIN2	FF5CursedEarthRandomWizard_004
	POIN2	FF5CursedEarthRandomWizard_005
	POIN2	FF5CursedEarthRandomWizard_006
	POIN2	FF5CursedEarthRandomWizard_007
	POIN2	FF5CursedEarthRandomWizard_008

	
