//Event file generated from Sappy .s format.
	#include "MPlayDef.event"

	#define	FF5FourHeartsAReliableChair_grp  voicegroup000
	#define	FF5FourHeartsAReliableChair_pri  0
	#define	FF5FourHeartsAReliableChair_rev  0
	#define	FF5FourHeartsAReliableChair_mvl  127
	#define	FF5FourHeartsAReliableChair_key  0
	#define	FF5FourHeartsAReliableChair_tbs  1
	#define	FF5FourHeartsAReliableChair_exg  0
	#define	FF5FourHeartsAReliableChair_cmp  1

	// .rodata
	//	FF5FourHeartsAReliableChair
	ALIGN 4


//**************** Track 1 (Midi-Chn.0) ****************//

FF5FourHeartsAReliableChair_001:
// 000   ----------------------------------------
 BYTE   KEYSH   FF5FourHeartsAReliableChair_key+0
 BYTE   TEMPO   124*FF5FourHeartsAReliableChair_tbs/2
 BYTE   VOICE   57
 BYTE   PAN   c_v+0
 BYTE   VOL   58*FF5FourHeartsAReliableChair_mvl/mxv
 BYTE   W96
// 001   ----------------------------------------
Label_0_0148A273:
 BYTE   N42  Cn4  v064
 BYTE   W48
 BYTE   N20  En3
 BYTE   W24
 BYTE   Fn3
 BYTE   W24
 BYTE   PEND 
// 002   ----------------------------------------
Label_0_0148A27D:
 BYTE   N66  Gn3  v064
 BYTE   W72
 BYTE   N20  Dn4
 BYTE   W24
 BYTE   PEND 
// 003   ----------------------------------------
 BYTE   N90  Cn4
 BYTE   W96
// 004   ----------------------------------------
Label_0_0148A288:
 BYTE   N42  Gs3  v064
 BYTE   W48
 BYTE   N20
 BYTE   W24
 BYTE   As3
 BYTE   W24
 BYTE   PEND 
// 005   ----------------------------------------
 BYTE   N42  Cn4
 BYTE   W48
 BYTE   Fn4
 BYTE   W48
// 006   ----------------------------------------
Label_0_0148A296:
 BYTE   N66  Dn4  v064
 BYTE   W72
 BYTE   N20  As3
 BYTE   W24
 BYTE   PEND 
// 007   ----------------------------------------
 BYTE   N42  Cn4
 BYTE   W48
 BYTE   Gn4
 BYTE   W48
// 008   ----------------------------------------
 BYTE   N90  Dn4
 BYTE   W96
 BYTE   PATT
  POIN2 Label_0_0148A273
 BYTE   PATT
  POIN2 Label_0_0148A27D
// 009   ----------------------------------------
 BYTE   N90  Cn4  v064
 BYTE   W96
 BYTE   PATT
  POIN2 Label_0_0148A288
// 010   ----------------------------------------
 BYTE   N42  Cn4  v064
 BYTE   W48
 BYTE   Ds4
 BYTE   W48
 BYTE   PATT
  POIN2 Label_0_0148A296
// 011   ----------------------------------------
 BYTE   N90  Cn4  v064
 BYTE   W96
// 012   ----------------------------------------
 BYTE   W96
// 013   ----------------------------------------
Label_0_0148A2C9:
 BYTE   N66  Cn4  v064
 BYTE   W72
 BYTE   N20  Cs4
 BYTE   W24
 BYTE   PEND 
// 014   ----------------------------------------
Label_0_0148A2D1:
 BYTE   N42  As3  v064
 BYTE   W48
 BYTE   N20  Gs3
 BYTE   W24
 BYTE   As3
 BYTE   W24
 BYTE   PEND 
// 015   ----------------------------------------
 BYTE   N90  Cn4
 BYTE   W96
// 016   ----------------------------------------
 BYTE   Cn3
 BYTE   W96
 BYTE   PATT
  POIN2 Label_0_0148A2C9
 BYTE   PATT
  POIN2 Label_0_0148A2D1
// 017   ----------------------------------------
 BYTE   N90  Cn4  v064
 BYTE   W96
// 018   ----------------------------------------
 BYTE   W92
 BYTE   W03
 BYTE   GoTo
  POIN2 Label_0_0148A273
 BYTE   FINE

//**************** Track 2 (Midi-Chn.1) ****************//

FF5FourHeartsAReliableChair_002:
// 000   ----------------------------------------
 BYTE   KEYSH   FF5FourHeartsAReliableChair_key+0
 BYTE   VOICE   48
 BYTE   PAN   c_v+0
 BYTE   VOL   45*FF5FourHeartsAReliableChair_mvl/mxv
 BYTE   W96
// 001   ----------------------------------------
Label_1_0148A301:
 BYTE   N06  Cn4  v064
 BYTE   W24
 BYTE   N05
 BYTE   W08
 BYTE   N05
 BYTE   W07
 BYTE   N05
 BYTE   W09
 BYTE   N06
 BYTE   W36
 BYTE   N03  Bn3
 BYTE   W06
 BYTE   N03
 BYTE   W06
 BYTE   PEND 
// 002   ----------------------------------------
Label_1_0148A313:
 BYTE   N06  Bn3  v064
 BYTE   W36
 BYTE   N03
 BYTE   W06
 BYTE   N03
 BYTE   W06
 BYTE   N06
 BYTE   W24
 BYTE   N20
 BYTE   W24
 BYTE   PEND 
// 003   ----------------------------------------
Label_1_0148A320:
 BYTE   N06  Cn4  v064
 BYTE   W24
 BYTE   N05
 BYTE   W08
 BYTE   N05
 BYTE   W07
 BYTE   N05
 BYTE   W09
 BYTE   N06
 BYTE   W36
 BYTE   N03  Dn4
 BYTE   W06
 BYTE   N03
 BYTE   W06
 BYTE   PEND 
// 004   ----------------------------------------
Label_1_0148A332:
 BYTE   N06  Dn4  v064
 BYTE   W36
 BYTE   N03
 BYTE   W06
 BYTE   N03
 BYTE   W06
 BYTE   N06
 BYTE   W24
 BYTE   N20
 BYTE   W24
 BYTE   PEND 
 BYTE   PATT
  POIN2 Label_1_0148A320
 BYTE   PATT
  POIN2 Label_1_0148A332
 BYTE   PATT
  POIN2 Label_1_0148A320
// 005   ----------------------------------------
 BYTE   N06  Dn4  v064
 BYTE   W36
 BYTE   N03
 BYTE   W06
 BYTE   N03
 BYTE   W06
 BYTE   N06
 BYTE   W24
 BYTE   N05
 BYTE   W08
 BYTE   N05
 BYTE   W07
 BYTE   N05
 BYTE   W09
 BYTE   PATT
  POIN2 Label_1_0148A301
 BYTE   PATT
  POIN2 Label_1_0148A313
 BYTE   PATT
  POIN2 Label_1_0148A320
 BYTE   PATT
  POIN2 Label_1_0148A332
 BYTE   PATT
  POIN2 Label_1_0148A320
 BYTE   PATT
  POIN2 Label_1_0148A332
// 006   ----------------------------------------
 BYTE   N06  Cn4  v064
 BYTE   W24
 BYTE   N05
 BYTE   W08
 BYTE   N05
 BYTE   W07
 BYTE   N05
 BYTE   W09
 BYTE   N06
 BYTE   W24
 BYTE   N05
 BYTE   W08
 BYTE   N05
 BYTE   W07
 BYTE   N05
 BYTE   W09
// 007   ----------------------------------------
 BYTE   N06
 BYTE   W24
 BYTE   N05
 BYTE   W08
 BYTE   N05
 BYTE   W07
 BYTE   N05
 BYTE   W09
 BYTE   N05
 BYTE   W15
 BYTE   N05
 BYTE   W17
 BYTE   N05
 BYTE   W16
// 008   ----------------------------------------
Label_1_0148A39C:
 BYTE   N42  Cn4  v064
 BYTE   W48
 BYTE   N90  As3
 BYTE   W48
 BYTE   PEND 
// 009   ----------------------------------------
Label_1_0148A3A4:
 BYTE   W48
 BYTE   N20  Gs3  v064
 BYTE   W24
 BYTE   As3
 BYTE   W24
 BYTE   PEND 
// 010   ----------------------------------------
 BYTE   TIE  Cn4
 BYTE   W96
// 011   ----------------------------------------
 BYTE   W90
 BYTE   EOT
 BYTE   W06
 BYTE   PATT
  POIN2 Label_1_0148A39C
 BYTE   PATT
  POIN2 Label_1_0148A3A4
// 012   ----------------------------------------
 BYTE   TIE  Cn4  v064
 BYTE   W96
// 013   ----------------------------------------
 BYTE   W90
 BYTE   EOT
 BYTE   W05
 BYTE   GoTo
  POIN2 Label_1_0148A301
 BYTE   FINE

//**************** Track 3 (Midi-Chn.2) ****************//

FF5FourHeartsAReliableChair_003:
// 000   ----------------------------------------
 BYTE   KEYSH   FF5FourHeartsAReliableChair_key+0
 BYTE   VOICE   48
 BYTE   PAN   c_v+0
 BYTE   VOL   45*FF5FourHeartsAReliableChair_mvl/mxv
 BYTE   W96
// 001   ----------------------------------------
Label_2_0148A3D5:
 BYTE   N06  An3  v064
 BYTE   W24
 BYTE   N05
 BYTE   W08
 BYTE   N05
 BYTE   W07
 BYTE   N05
 BYTE   W09
 BYTE   N06
 BYTE   W36
 BYTE   N03  Gn3
 BYTE   W06
 BYTE   N03
 BYTE   W06
 BYTE   PEND 
// 002   ----------------------------------------
Label_2_0148A3E7:
 BYTE   N06  Gn3  v064
 BYTE   W36
 BYTE   N03
 BYTE   W06
 BYTE   N03
 BYTE   W06
 BYTE   N06
 BYTE   W24
 BYTE   N06
 BYTE   W24
 BYTE   PEND 
// 003   ----------------------------------------
Label_2_0148A3F4:
 BYTE   N06  Gs3  v064
 BYTE   W24
 BYTE   N05
 BYTE   W08
 BYTE   N05
 BYTE   W07
 BYTE   N05
 BYTE   W09
 BYTE   N06
 BYTE   W36
 BYTE   N03  As3
 BYTE   W06
 BYTE   N03
 BYTE   W06
 BYTE   PEND 
// 004   ----------------------------------------
Label_2_0148A406:
 BYTE   N06  As3  v064
 BYTE   W36
 BYTE   N03
 BYTE   W06
 BYTE   N03
 BYTE   W06
 BYTE   N06
 BYTE   W24
 BYTE   N20
 BYTE   W24
 BYTE   PEND 
 BYTE   PATT
  POIN2 Label_2_0148A3F4
 BYTE   PATT
  POIN2 Label_2_0148A406
 BYTE   PATT
  POIN2 Label_2_0148A3F4
// 005   ----------------------------------------
 BYTE   N06  As3  v064
 BYTE   W36
 BYTE   N03
 BYTE   W06
 BYTE   N03
 BYTE   W06
 BYTE   N06
 BYTE   W24
 BYTE   N05
 BYTE   W08
 BYTE   N05
 BYTE   W07
 BYTE   N05
 BYTE   W09
 BYTE   PATT
  POIN2 Label_2_0148A3D5
 BYTE   PATT
  POIN2 Label_2_0148A3E7
 BYTE   PATT
  POIN2 Label_2_0148A3F4
 BYTE   PATT
  POIN2 Label_2_0148A406
 BYTE   PATT
  POIN2 Label_2_0148A3F4
 BYTE   PATT
  POIN2 Label_2_0148A406
// 006   ----------------------------------------
 BYTE   N06  Gn3  v064
 BYTE   W24
 BYTE   N05
 BYTE   W08
 BYTE   N05
 BYTE   W07
 BYTE   N05
 BYTE   W09
 BYTE   N06
 BYTE   W24
 BYTE   N05
 BYTE   W08
 BYTE   N05
 BYTE   W07
 BYTE   N05
 BYTE   W09
// 007   ----------------------------------------
 BYTE   N06
 BYTE   W24
 BYTE   N05
 BYTE   W08
 BYTE   N05
 BYTE   W07
 BYTE   N05
 BYTE   W09
 BYTE   N05
 BYTE   W15
 BYTE   N05
 BYTE   W17
 BYTE   N05
 BYTE   W16
// 008   ----------------------------------------
 BYTE   TIE  Fs3
 BYTE   W96
// 009   ----------------------------------------
 BYTE   W90
 BYTE   EOT
 BYTE   W06
// 010   ----------------------------------------
 BYTE   TIE  An3
 BYTE   W96
// 011   ----------------------------------------
 BYTE   W90
 BYTE   EOT
 BYTE   W06
// 012   ----------------------------------------
 BYTE   TIE  Gs3
 BYTE   W96
// 013   ----------------------------------------
 BYTE   W90
 BYTE   EOT
 BYTE   W06
// 014   ----------------------------------------
 BYTE   TIE  Gn3
 BYTE   W96
// 015   ----------------------------------------
 BYTE   W90
 BYTE   EOT
 BYTE   W05
 BYTE   GoTo
  POIN2 Label_2_0148A3D5
 BYTE   FINE

//**************** Track 4 (Midi-Chn.3) ****************//

FF5FourHeartsAReliableChair_004:
// 000   ----------------------------------------
 BYTE   KEYSH   FF5FourHeartsAReliableChair_key+0
 BYTE   VOICE   48
 BYTE   PAN   c_v+0
 BYTE   VOL   45*FF5FourHeartsAReliableChair_mvl/mxv
 BYTE   W96
// 001   ----------------------------------------
Label_3_0148A499:
 BYTE   N06  Cn3  v064
 BYTE   W24
 BYTE   N05
 BYTE   W08
 BYTE   N05
 BYTE   W07
 BYTE   N05
 BYTE   W09
 BYTE   N06
 BYTE   W36
 BYTE   N03  Dn3
 BYTE   W06
 BYTE   N03
 BYTE   W06
 BYTE   PEND 
// 002   ----------------------------------------
Label_3_0148A4AB:
 BYTE   N06  Dn3  v064
 BYTE   W36
 BYTE   N03
 BYTE   W06
 BYTE   N03
 BYTE   W06
 BYTE   N06
 BYTE   W24
 BYTE   N20
 BYTE   W24
 BYTE   PEND 
// 003   ----------------------------------------
Label_3_0148A4B8:
 BYTE   N06  Ds3  v064
 BYTE   W24
 BYTE   N05
 BYTE   W08
 BYTE   N05
 BYTE   W07
 BYTE   N05
 BYTE   W09
 BYTE   N06
 BYTE   W36
 BYTE   N03  Dn3
 BYTE   W06
 BYTE   N03
 BYTE   W06
 BYTE   PEND 
 BYTE   PATT
  POIN2 Label_3_0148A4AB
 BYTE   PATT
  POIN2 Label_3_0148A4B8
 BYTE   PATT
  POIN2 Label_3_0148A4AB
 BYTE   PATT
  POIN2 Label_3_0148A4B8
// 004   ----------------------------------------
 BYTE   N06  Dn3  v064
 BYTE   W36
 BYTE   N03
 BYTE   W06
 BYTE   N03
 BYTE   W06
 BYTE   N06
 BYTE   W24
 BYTE   N07
 BYTE   W08
 BYTE   N07
 BYTE   W07
 BYTE   N07
 BYTE   W09
 BYTE   PATT
  POIN2 Label_3_0148A499
 BYTE   PATT
  POIN2 Label_3_0148A4AB
 BYTE   PATT
  POIN2 Label_3_0148A4B8
 BYTE   PATT
  POIN2 Label_3_0148A4AB
 BYTE   PATT
  POIN2 Label_3_0148A4B8
 BYTE   PATT
  POIN2 Label_3_0148A4AB
// 005   ----------------------------------------
 BYTE   N06  Fn3  v064
 BYTE   W24
 BYTE   N05
 BYTE   W08
 BYTE   N05
 BYTE   W07
 BYTE   N05
 BYTE   W09
 BYTE   N06
 BYTE   W24
 BYTE   N05
 BYTE   W08
 BYTE   N05
 BYTE   W07
 BYTE   N05
 BYTE   W09
// 006   ----------------------------------------
 BYTE   N06  En3
 BYTE   W24
 BYTE   N05
 BYTE   W08
 BYTE   N05
 BYTE   W07
 BYTE   N05
 BYTE   W09
 BYTE   N05
 BYTE   W15
 BYTE   N05
 BYTE   W17
 BYTE   N05
 BYTE   W16
// 007   ----------------------------------------
 BYTE   TIE  Cn3
 BYTE   W96
// 008   ----------------------------------------
 BYTE   W90
 BYTE   EOT
 BYTE   W06
// 009   ----------------------------------------
 BYTE   TIE  Fn3
 BYTE   W96
// 010   ----------------------------------------
 BYTE   W90
 BYTE   EOT
 BYTE   W06
// 011   ----------------------------------------
 BYTE   TIE
 BYTE   W96
// 012   ----------------------------------------
 BYTE   W90
 BYTE   EOT
 BYTE   W06
// 013   ----------------------------------------
 BYTE   N90
 BYTE   W96
// 014   ----------------------------------------
 BYTE   En3
 BYTE   W92
 BYTE   W03
 BYTE   GoTo
  POIN2 Label_3_0148A499
 BYTE   FINE

//**************** Track 5 (Midi-Chn.4) ****************//

FF5FourHeartsAReliableChair_005:
// 000   ----------------------------------------
 BYTE   KEYSH   FF5FourHeartsAReliableChair_key+0
 BYTE   VOICE   47
 BYTE   PAN   c_v+0
 BYTE   VOL   64*FF5FourHeartsAReliableChair_mvl/mxv
 BYTE   W96
// 001   ----------------------------------------
Label_4_0148A555:
 BYTE   W48
 BYTE   N20  Fn2  v064
 BYTE   W24
 BYTE   Cn2
 BYTE   W24
 BYTE   PEND 
// 002   ----------------------------------------
 BYTE   W96
 BYTE   PATT
  POIN2 Label_4_0148A555
// 003   ----------------------------------------
 BYTE   W96
 BYTE   PATT
  POIN2 Label_4_0148A555
// 004   ----------------------------------------
 BYTE   W96
 BYTE   PATT
  POIN2 Label_4_0148A555
// 005   ----------------------------------------
 BYTE   W96
 BYTE   PATT
  POIN2 Label_4_0148A555
// 006   ----------------------------------------
 BYTE   W96
 BYTE   PATT
  POIN2 Label_4_0148A555
// 007   ----------------------------------------
 BYTE   W96
 BYTE   PATT
  POIN2 Label_4_0148A555
// 008   ----------------------------------------
 BYTE   W96
// 009   ----------------------------------------
Label_4_0148A582:
 BYTE   N20  Cn2  v064
 BYTE   W24
 BYTE   Gn1
 BYTE   W24
 BYTE   Cn2
 BYTE   W24
 BYTE   Gn1
 BYTE   W24
 BYTE   PEND 
 BYTE   PATT
  POIN2 Label_4_0148A582
// 010   ----------------------------------------
 BYTE   TIE  As2  v064
 BYTE   W96
// 011   ----------------------------------------
 BYTE   W90
 BYTE   EOT
 BYTE   W06
// 012   ----------------------------------------
 BYTE   TIE  Dn3
 BYTE   W96
// 013   ----------------------------------------
 BYTE   W90
 BYTE   EOT
 BYTE   W06
// 014   ----------------------------------------
 BYTE   TIE  Cs3
 BYTE   W96
// 015   ----------------------------------------
 BYTE   W90
 BYTE   EOT
 BYTE   W06
// 016   ----------------------------------------
 BYTE   TIE  Cn3
 BYTE   W96
// 017   ----------------------------------------
 BYTE   W90
 BYTE   EOT
 BYTE   W05
 BYTE   GoTo
  POIN2 Label_4_0148A555
 BYTE   FINE

//**************** Track 6 (Midi-Chn.5) ****************//

FF5FourHeartsAReliableChair_006:
// 000   ----------------------------------------
 BYTE   KEYSH   FF5FourHeartsAReliableChair_key+0
 BYTE   VOICE   33
 BYTE   PAN   c_v+0
 BYTE   VOL   64*FF5FourHeartsAReliableChair_mvl/mxv
 BYTE   W96
// 001   ----------------------------------------
Label_5_0148A5BD:
 BYTE   N06  Fn0  v064
 BYTE   W24
 BYTE   N06
 BYTE   W24
 BYTE   N06
 BYTE   W48
 BYTE   PEND 
// 002   ----------------------------------------
Label_5_0148A5C6:
 BYTE   N06  Fn0  v064
 BYTE   W36
 BYTE   N03
 BYTE   W06
 BYTE   N03
 BYTE   W06
 BYTE   N20  Fn1
 BYTE   W24
 BYTE   Fn0
 BYTE   W24
 BYTE   PEND 
 BYTE   PATT
  POIN2 Label_5_0148A5BD
 BYTE   PATT
  POIN2 Label_5_0148A5C6
// 003   ----------------------------------------
Label_5_0148A5DE:
 BYTE   N06  Gs0  v064
 BYTE   W24
 BYTE   N06
 BYTE   W24
 BYTE   N06
 BYTE   W48
 BYTE   PEND 
// 004   ----------------------------------------
Label_5_0148A5E7:
 BYTE   N06  As0  v064
 BYTE   W36
 BYTE   N03
 BYTE   W06
 BYTE   N03
 BYTE   W06
 BYTE   N20  Fn1
 BYTE   W24
 BYTE   As0
 BYTE   W24
 BYTE   PEND 
 BYTE   PATT
  POIN2 Label_5_0148A5DE
 BYTE   PATT
  POIN2 Label_5_0148A5E7
 BYTE   PATT
  POIN2 Label_5_0148A5BD
 BYTE   PATT
  POIN2 Label_5_0148A5C6
 BYTE   PATT
  POIN2 Label_5_0148A5BD
 BYTE   PATT
  POIN2 Label_5_0148A5C6
 BYTE   PATT
  POIN2 Label_5_0148A5DE
 BYTE   PATT
  POIN2 Label_5_0148A5E7
// 005   ----------------------------------------
Label_5_0148A61D:
 BYTE   N20  Cn1  v064
 BYTE   W24
 BYTE   Gn0
 BYTE   W24
 BYTE   Cn1
 BYTE   W24
 BYTE   Gn0
 BYTE   W24
 BYTE   PEND 
 BYTE   PATT
  POIN2 Label_5_0148A61D
// 006   ----------------------------------------
 BYTE   TIE  Fs0  v064
 BYTE   W96
// 007   ----------------------------------------
 BYTE   W42
 BYTE   EOT
 BYTE   W06
 BYTE   N42
 BYTE   W48
// 008   ----------------------------------------
 BYTE   N90  Gn0
 BYTE   W96
// 009   ----------------------------------------
 BYTE   N42  Dn1
 BYTE   W48
 BYTE   N20  Gn0
 BYTE   W24
 BYTE   An0
 BYTE   W24
// 010   ----------------------------------------
 BYTE   TIE  As0
 BYTE   W96
// 011   ----------------------------------------
 BYTE   W42
 BYTE   EOT
 BYTE   W06
 BYTE   N42
 BYTE   W48
// 012   ----------------------------------------
 BYTE   TIE  Cn1
 BYTE   W96
// 013   ----------------------------------------
 BYTE   W90
 BYTE   EOT
 BYTE   W05
 BYTE   GoTo
  POIN2 Label_5_0148A5BD
 BYTE   FINE

//**************** Track 7 (Midi-Chn.6) ****************//

FF5FourHeartsAReliableChair_007:
// 000   ----------------------------------------
 BYTE   KEYSH   FF5FourHeartsAReliableChair_key+0
 BYTE   VOICE   46
 BYTE   PAN   c_v+0
 BYTE   VOL   40*FF5FourHeartsAReliableChair_mvl/mxv
 BYTE   W96
// 001   ----------------------------------------
Label_6_0148A661:
 BYTE   W96
// 002   ----------------------------------------
 BYTE   W96
// 003   ----------------------------------------
 BYTE   W96
// 004   ----------------------------------------
 BYTE   W96
// 005   ----------------------------------------
 BYTE   W96
// 006   ----------------------------------------
 BYTE   W96
// 007   ----------------------------------------
 BYTE   W96
// 008   ----------------------------------------
 BYTE   W96
// 009   ----------------------------------------
 BYTE   W96
// 010   ----------------------------------------
 BYTE   W96
// 011   ----------------------------------------
 BYTE   W96
// 012   ----------------------------------------
 BYTE   W96
// 013   ----------------------------------------
 BYTE   W96
// 014   ----------------------------------------
 BYTE   W96
// 015   ----------------------------------------
 BYTE   W96
// 016   ----------------------------------------
 BYTE   W96
// 017   ----------------------------------------
 BYTE   N05  Fs2  v064
 BYTE   W06
 BYTE   As2
 BYTE   W06
 BYTE   Cs3
 BYTE   W06
 BYTE   Fs3
 BYTE   W06
 BYTE   As3
 BYTE   W06
 BYTE   Cs4
 BYTE   W06
 BYTE   Fs4
 BYTE   W06
 BYTE   As4
 BYTE   W06
 BYTE   As2
 BYTE   W06
 BYTE   Cs3
 BYTE   W06
 BYTE   Fs3
 BYTE   W06
 BYTE   As3
 BYTE   W06
 BYTE   Cs4
 BYTE   W06
 BYTE   Fs4
 BYTE   W06
 BYTE   As4
 BYTE   W06
 BYTE   Cs5
 BYTE   W06
// 018   ----------------------------------------
 BYTE   Cs3
 BYTE   W06
 BYTE   Fs3
 BYTE   W06
 BYTE   As3
 BYTE   W06
 BYTE   Cs4
 BYTE   W06
 BYTE   Fs4
 BYTE   W06
 BYTE   As4
 BYTE   W06
 BYTE   Cs5
 BYTE   W06
 BYTE   Fs5
 BYTE   W06
 BYTE   Fs3
 BYTE   W06
 BYTE   As3
 BYTE   W06
 BYTE   Cs4
 BYTE   W06
 BYTE   Fs4
 BYTE   W06
 BYTE   As4
 BYTE   W06
 BYTE   Cs5
 BYTE   W06
 BYTE   Fs5
 BYTE   W06
 BYTE   As5
 BYTE   W06
// 019   ----------------------------------------
 BYTE   Cn6
 BYTE   W06
 BYTE   An5
 BYTE   W06
 BYTE   Fn5
 BYTE   W06
 BYTE   Dn5
 BYTE   W06
 BYTE   Cn5
 BYTE   W06
 BYTE   An4
 BYTE   W06
 BYTE   Fn4
 BYTE   W06
 BYTE   Dn4
 BYTE   W06
 BYTE   An5
 BYTE   W06
 BYTE   Fn5
 BYTE   W06
 BYTE   Dn5
 BYTE   W06
 BYTE   Cn5
 BYTE   W06
 BYTE   An4
 BYTE   W06
 BYTE   Fn4
 BYTE   W06
 BYTE   Dn4
 BYTE   W06
 BYTE   Cn4
 BYTE   W06
// 020   ----------------------------------------
 BYTE   Fn5
 BYTE   W06
 BYTE   Dn5
 BYTE   W06
 BYTE   Cn5
 BYTE   W06
 BYTE   An4
 BYTE   W06
 BYTE   Fn4
 BYTE   W06
 BYTE   Dn4
 BYTE   W06
 BYTE   Cn4
 BYTE   W06
 BYTE   An3
 BYTE   W06
 BYTE   Dn5
 BYTE   W06
 BYTE   Cn5
 BYTE   W06
 BYTE   An4
 BYTE   W06
 BYTE   Fn4
 BYTE   W06
 BYTE   Dn4
 BYTE   W06
 BYTE   Cn4
 BYTE   W06
 BYTE   An3
 BYTE   W06
 BYTE   Fn3
 BYTE   W06
// 021   ----------------------------------------
 BYTE   N05
 BYTE   W06
 BYTE   As3
 BYTE   W06
 BYTE   Cs4
 BYTE   W06
 BYTE   Fn4
 BYTE   W06
 BYTE   As4
 BYTE   W06
 BYTE   Cs5
 BYTE   W06
 BYTE   Fn5
 BYTE   W06
 BYTE   As5
 BYTE   W06
 BYTE   As3
 BYTE   W06
 BYTE   Cs4
 BYTE   W06
 BYTE   Fn4
 BYTE   W06
 BYTE   As4
 BYTE   W06
 BYTE   Cs5
 BYTE   W06
 BYTE   Fn5
 BYTE   W06
 BYTE   As5
 BYTE   W06
 BYTE   Cs6
 BYTE   W06
// 022   ----------------------------------------
 BYTE   Cs4
 BYTE   W06
 BYTE   Fn4
 BYTE   W06
 BYTE   As4
 BYTE   W06
 BYTE   Cs5
 BYTE   W06
 BYTE   Fn5
 BYTE   W06
 BYTE   As5
 BYTE   W06
 BYTE   Cs6
 BYTE   W06
 BYTE   Fn6
 BYTE   W06
 BYTE   Fn4
 BYTE   W06
 BYTE   As4
 BYTE   W06
 BYTE   Cs5
 BYTE   W06
 BYTE   Fn5
 BYTE   W06
 BYTE   As5
 BYTE   W06
 BYTE   Cs6
 BYTE   W06
 BYTE   Fn6
 BYTE   W06
 BYTE   As6
 BYTE   W06
// 023   ----------------------------------------
 BYTE   Cn7
 BYTE   W06
 BYTE   Gn6
 BYTE   W06
 BYTE   Fn6
 BYTE   W06
 BYTE   Cn6
 BYTE   W06
 BYTE   Gn5
 BYTE   W06
 BYTE   Fn5
 BYTE   W06
 BYTE   Cn5
 BYTE   W06
 BYTE   Gn4
 BYTE   W06
 BYTE   Gn6
 BYTE   W06
 BYTE   Fn6
 BYTE   W06
 BYTE   Cn6
 BYTE   W06
 BYTE   Gn5
 BYTE   W06
 BYTE   Fn5
 BYTE   W06
 BYTE   Cn5
 BYTE   W06
 BYTE   Gn4
 BYTE   W06
 BYTE   Fn4
 BYTE   W06
// 024   ----------------------------------------
 BYTE   En6
 BYTE   W06
 BYTE   Cn6
 BYTE   W06
 BYTE   Gn5
 BYTE   W06
 BYTE   En5
 BYTE   W06
 BYTE   Cn5
 BYTE   W06
 BYTE   Gn4
 BYTE   W06
 BYTE   En4
 BYTE   W06
 BYTE   Cn4
 BYTE   W06
 BYTE   Cn6
 BYTE   W06
 BYTE   Gn5
 BYTE   W06
 BYTE   En5
 BYTE   W06
 BYTE   Cn5
 BYTE   W06
 BYTE   Gn4
 BYTE   W06
 BYTE   En4
 BYTE   W06
 BYTE   Cn4
 BYTE   W06
 BYTE   Gn3
 BYTE   W05
 BYTE   GoTo
  POIN2 Label_6_0148A661
 BYTE   FINE

//**************** Track 8 (Midi-Chn.7) ****************//

FF5FourHeartsAReliableChair_008:
// 000   ----------------------------------------
 BYTE   KEYSH   FF5FourHeartsAReliableChair_key+0
 BYTE   VOICE   121
 BYTE   PAN   c_v+0
 BYTE   VOL   58*FF5FourHeartsAReliableChair_mvl/mxv
 BYTE   N20  Dn1  v064
 BYTE   W24
 BYTE   N07
 BYTE   W08
 BYTE   N07
 BYTE   W07
 BYTE   N07
 BYTE   W09
 BYTE   N07
 BYTE   W15
 BYTE   N07
 BYTE   W09
 BYTE   N02
 BYTE   W03
 BYTE   N02
 BYTE   W03
 BYTE   N02
 BYTE   W03
 BYTE   N02
 BYTE   W03
 BYTE   N02
 BYTE   W03
 BYTE   N02
 BYTE   W03
 BYTE   N02
 BYTE   W03
 BYTE   N02
 BYTE   W03
// 001   ----------------------------------------
Label_7_0148A7A2:
 BYTE   N20  Dn1  v064
 BYTE   W24
 BYTE   N07
 BYTE   W08
 BYTE   N07
 BYTE   W07
 BYTE   N07
 BYTE   W09
 BYTE   N20
 BYTE   W36
 BYTE   N05
 BYTE   W06
 BYTE   N05
 BYTE   W06
 BYTE   PEND 
// 002   ----------------------------------------
Label_7_0148A7B3:
 BYTE   N20  Dn1  v064
 BYTE   W36
 BYTE   N05
 BYTE   W06
 BYTE   N05
 BYTE   W06
 BYTE   N20
 BYTE   W24
 BYTE   N02
 BYTE   W03
 BYTE   N02
 BYTE   W03
 BYTE   N02
 BYTE   W03
 BYTE   N02
 BYTE   W03
 BYTE   N02
 BYTE   W03
 BYTE   N02
 BYTE   W03
 BYTE   N02
 BYTE   W03
 BYTE   N02
 BYTE   W03
 BYTE   PEND 
 BYTE   PATT
  POIN2 Label_7_0148A7A2
 BYTE   PATT
  POIN2 Label_7_0148A7B3
 BYTE   PATT
  POIN2 Label_7_0148A7A2
 BYTE   PATT
  POIN2 Label_7_0148A7B3
 BYTE   PATT
  POIN2 Label_7_0148A7A2
// 003   ----------------------------------------
 BYTE   N20  Dn1  v064
 BYTE   W36
 BYTE   N05
 BYTE   W06
 BYTE   N05
 BYTE   W06
 BYTE   N20
 BYTE   W24
 BYTE   N07
 BYTE   W08
 BYTE   N07
 BYTE   W07
 BYTE   N07
 BYTE   W09
 BYTE   PATT
  POIN2 Label_7_0148A7A2
 BYTE   PATT
  POIN2 Label_7_0148A7B3
 BYTE   PATT
  POIN2 Label_7_0148A7A2
 BYTE   PATT
  POIN2 Label_7_0148A7B3
 BYTE   PATT
  POIN2 Label_7_0148A7A2
 BYTE   PATT
  POIN2 Label_7_0148A7B3
// 004   ----------------------------------------
 BYTE   N20  Dn1  v064
 BYTE   W24
 BYTE   N07
 BYTE   W08
 BYTE   N07
 BYTE   W07
 BYTE   N07
 BYTE   W09
 BYTE   N20
 BYTE   W24
 BYTE   N07
 BYTE   W08
 BYTE   N07
 BYTE   W07
 BYTE   N07
 BYTE   W09
// 005   ----------------------------------------
 BYTE   N20
 BYTE   W24
 BYTE   N07
 BYTE   W08
 BYTE   N07
 BYTE   W07
 BYTE   N07
 BYTE   W09
 BYTE   N15
 BYTE   W15
 BYTE   N15
 BYTE   W17
 BYTE   N15
 BYTE   W16
// 006   ----------------------------------------
 BYTE   N90  An2
 BYTE   W96
// 007   ----------------------------------------
 BYTE   W96
// 008   ----------------------------------------
 BYTE   W96
// 009   ----------------------------------------
 BYTE   W96
// 010   ----------------------------------------
 BYTE   W96
// 011   ----------------------------------------
 BYTE   W96
// 012   ----------------------------------------
 BYTE   W96
// 013   ----------------------------------------
 BYTE   W92
 BYTE   W03
 BYTE   GoTo
  POIN2 Label_7_0148A7A2
 BYTE   FINE

//******************************************************//
	ALIGN 4

FF5FourHeartsAReliableChair:
	BYTE	8	// NumTrks
	BYTE	0	// NumBlks
	BYTE	FF5FourHeartsAReliableChair_pri	// Priority
	BYTE	FF5FourHeartsAReliableChair_rev	// Reverb.
    
	POIN2	FF5FourHeartsAReliableChair_grp
    
	POIN2	FF5FourHeartsAReliableChair_001
	POIN2	FF5FourHeartsAReliableChair_002
	POIN2	FF5FourHeartsAReliableChair_003
	POIN2	FF5FourHeartsAReliableChair_004
	POIN2	FF5FourHeartsAReliableChair_005
	POIN2	FF5FourHeartsAReliableChair_006
	POIN2	FF5FourHeartsAReliableChair_007
	POIN2	FF5FourHeartsAReliableChair_008

	
