//Event file generated from Sappy .s format.
	#include "MPlayDef.event"

	#define	FF5GoGoBokoAReliableChair_grp  voicegroup000
	#define	FF5GoGoBokoAReliableChair_pri  0
	#define	FF5GoGoBokoAReliableChair_rev  0
	#define	FF5GoGoBokoAReliableChair_mvl  127
	#define	FF5GoGoBokoAReliableChair_key  0
	#define	FF5GoGoBokoAReliableChair_tbs  1
	#define	FF5GoGoBokoAReliableChair_exg  0
	#define	FF5GoGoBokoAReliableChair_cmp  1

	// .rodata
	//	FF5GoGoBokoAReliableChair
	ALIGN 4


//**************** Track 1 (Midi-Chn.0) ****************//

FF5GoGoBokoAReliableChair_001:
// 000   ----------------------------------------
 BYTE   KEYSH   FF5GoGoBokoAReliableChair_key+0
 BYTE   TEMPO   154*FF5GoGoBokoAReliableChair_tbs/2
 BYTE   VOICE   57
 BYTE   VOL   50*FF5GoGoBokoAReliableChair_mvl/mxv
 BYTE   N12  An3  v032
 BYTE   N12  Cs4
 BYTE   W24
 BYTE   An3
 BYTE   N12  Cs4
 BYTE   W24
 BYTE   N36  En3
 BYTE   N36  Bn3
 BYTE   W36
 BYTE   N12  An3
 BYTE   N12  Cs4
 BYTE   W12
// 001   ----------------------------------------
 BYTE   W12
 BYTE   An3
 BYTE   N12  Cs4
 BYTE   W24
 BYTE   An3
 BYTE   N12  Cs4
 BYTE   W12
 BYTE   En3
 BYTE   N12  Bn3
 BYTE   W12
 BYTE   Cs4
 BYTE   N12  En4
 BYTE   W12
 BYTE   An3
 BYTE   N12  Cs4
 BYTE   W12
 BYTE   En3
 BYTE   N12  An3
 BYTE   W12
// 002   ----------------------------------------
 BYTE   N12
 BYTE   N12  Cs4
 BYTE   W24
 BYTE   An3
 BYTE   N12  Cs4
 BYTE   W24
 BYTE   N06  En3
 BYTE   N06  Bn3
 BYTE   W12
 BYTE   N24  En3
 BYTE   N24  Bn3
 BYTE   W24
 BYTE   N12  An3
 BYTE   N12  Cs4
 BYTE   W12
// 003   ----------------------------------------
 BYTE   W96
// 004   ----------------------------------------
Label_0_0148AD49:
 BYTE   N12  An3  v032
 BYTE   N12  Cs4
 BYTE   W12
 BYTE   N06  An3
 BYTE   N06  Cs4
 BYTE   W06
 BYTE   An3
 BYTE   N06  Cs4
 BYTE   W18
 BYTE   N12  Ds2
 BYTE   N12  Cn3
 BYTE   W12
 BYTE   En2
 BYTE   N12  Cs3
 BYTE   W48
 BYTE   PEND 
// 005   ----------------------------------------
Label_0_0148AD62:
 BYTE   W12
 BYTE   N12  Ds2  v032
 BYTE   N12  Cn3
 BYTE   W12
 BYTE   En2
 BYTE   N12  Cs3
 BYTE   W24
 BYTE   Ds2
 BYTE   N12  Cn3
 BYTE   W12
 BYTE   En2
 BYTE   N12  Cs3
 BYTE   W36
 BYTE   PEND 
 BYTE   PATT
  POIN2 Label_0_0148AD49
 BYTE   PATT
  POIN2 Label_0_0148AD62
 BYTE   PATT
  POIN2 Label_0_0148AD49
 BYTE   PATT
  POIN2 Label_0_0148AD62
 BYTE   PATT
  POIN2 Label_0_0148AD49
 BYTE   PATT
  POIN2 Label_0_0148AD62
// 006   ----------------------------------------
 BYTE   N12  Fs3  v032
 BYTE   N12  Dn4
 BYTE   W12
 BYTE   N06  Fs3
 BYTE   N06  Dn4
 BYTE   W06
 BYTE   Fs3
 BYTE   N06  Dn4
 BYTE   W18
 BYTE   N12  Fs3
 BYTE   N12  As3
 BYTE   W12
 BYTE   Gs3
 BYTE   N12  Bn3
 BYTE   W48
// 007   ----------------------------------------
 BYTE   En3
 BYTE   N12  Cs4
 BYTE   W12
 BYTE   N06  En3
 BYTE   N06  Cs4
 BYTE   W06
 BYTE   En3
 BYTE   N06  Cs4
 BYTE   W06
 BYTE   En3
 BYTE   N06  Cs4
 BYTE   W12
 BYTE   N12  En3
 BYTE   N12  Cs4
 BYTE   W12
 BYTE   N12
 BYTE   N12  En4
 BYTE   W24
 BYTE   N24  An3
 BYTE   N24  Cs4
 BYTE   W24
// 008   ----------------------------------------
Label_0_0148ADCB:
 BYTE   N12  Fs3  v032
 BYTE   N12  Dn4
 BYTE   W12
 BYTE   N06  Fs3
 BYTE   N06  Dn4
 BYTE   W06
 BYTE   Fs3
 BYTE   N06  Dn4
 BYTE   W18
 BYTE   N12  En3
 BYTE   N12  As3
 BYTE   W12
 BYTE   Gs3
 BYTE   N12  Bn3
 BYTE   W48
 BYTE   PEND 
 BYTE   PATT
  POIN2 Label_0_0148AD62
 BYTE   PATT
  POIN2 Label_0_0148ADCB
// 009   ----------------------------------------
 BYTE   N12  En3  v032
 BYTE   N12  Cs4
 BYTE   W12
 BYTE   N06  En3
 BYTE   N06  Cs4
 BYTE   W06
 BYTE   En3
 BYTE   N06  Cs4
 BYTE   W06
 BYTE   En3
 BYTE   N06  Cs4
 BYTE   W12
 BYTE   N12  En3
 BYTE   N12  Cs4
 BYTE   W12
 BYTE   N24
 BYTE   N24  En4
 BYTE   W24
 BYTE   An3
 BYTE   N24  Cs4
 BYTE   W24
// 010   ----------------------------------------
 BYTE   N18  Dn3
 BYTE   N18  Bn3
 BYTE   W18
 BYTE   N06  En3
 BYTE   N06  Cs4
 BYTE   W06
 BYTE   N12  Dn3
 BYTE   N12  Bn3
 BYTE   W12
 BYTE   Cs3
 BYTE   N12  An3
 BYTE   W12
 BYTE   Dn3
 BYTE   N12  Bn3
 BYTE   W24
 BYTE   N24  Dn3
 BYTE   N24  An3
 BYTE   W24
// 011   ----------------------------------------
 BYTE   N18  Dn3
 BYTE   N18  Bn3
 BYTE   W18
 BYTE   N06  Dn3
 BYTE   N06  Bn3
 BYTE   W06
 BYTE   N12  Dn3
 BYTE   N12  Fs3
 BYTE   W12
 BYTE   N12
 BYTE   N12  An3
 BYTE   W12
 BYTE   En3
 BYTE   N12  Gs3
 BYTE   W24
 BYTE   N24  Bn2
 BYTE   N24  En3
 BYTE   W24
// 012   ----------------------------------------
 BYTE   GoTo
  POIN2 Label_0_0148AD49
 BYTE   FINE

//**************** Track 2 (Midi-Chn.1) ****************//

FF5GoGoBokoAReliableChair_002:
// 000   ----------------------------------------
 BYTE   KEYSH   FF5GoGoBokoAReliableChair_key+0
 BYTE   VOICE   46
 BYTE   VOL   52*FF5GoGoBokoAReliableChair_mvl/mxv
 BYTE   W96
// 001   ----------------------------------------
 BYTE   W96
// 002   ----------------------------------------
 BYTE   W96
// 003   ----------------------------------------
 BYTE   W96
// 004   ----------------------------------------
Label_1_0148AE56:
 BYTE   N24  En4  v064
 BYTE   W24
 BYTE   N12  Cs4
 BYTE   W12
 BYTE   An3
 BYTE   W12
 BYTE   Fs3
 BYTE   W12
 BYTE   En4
 BYTE   W12
 BYTE   Cs4
 BYTE   W12
 BYTE   An3
 BYTE   W12
 BYTE   PEND 
// 005   ----------------------------------------
 BYTE   N24  Cs4
 BYTE   W24
 BYTE   An3
 BYTE   W24
 BYTE   N03  Cs4
 BYTE   W03
 BYTE   N02
 BYTE   W03
 BYTE   N03
 BYTE   W03
 BYTE   N02
 BYTE   W03
 BYTE   N02
 BYTE   W02
 BYTE   N03
 BYTE   W04
 BYTE   N02
 BYTE   W02
 BYTE   N03
 BYTE   W04
 BYTE   N03
 BYTE   W03
 BYTE   N02
 BYTE   W03
 BYTE   N06
 BYTE   W06
 BYTE   N12  Bn3
 BYTE   W12
// 006   ----------------------------------------
 BYTE   An3
 BYTE   W12
 BYTE   N06
 BYTE   W06
 BYTE   Bn3
 BYTE   W06
 BYTE   N12  An3
 BYTE   W12
 BYTE   Gn3
 BYTE   W12
 BYTE   N03  An3
 BYTE   W03
 BYTE   N02
 BYTE   W03
 BYTE   N03
 BYTE   W03
 BYTE   N02
 BYTE   W03
 BYTE   N02
 BYTE   W02
 BYTE   N03
 BYTE   W04
 BYTE   N02
 BYTE   W02
 BYTE   N03
 BYTE   W04
 BYTE   N03
 BYTE   W03
 BYTE   N02
 BYTE   W03
 BYTE   N06
 BYTE   W06
 BYTE   N12  Gn3
 BYTE   W12
// 007   ----------------------------------------
 BYTE   An3
 BYTE   W12
 BYTE   N06
 BYTE   W06
 BYTE   Cs4
 BYTE   W06
 BYTE   N12  En4
 BYTE   W12
 BYTE   Fs4
 BYTE   W12
 BYTE   N03  Gn4
 BYTE   W03
 BYTE   N02
 BYTE   W03
 BYTE   N02
 BYTE   W02
 BYTE   N03
 BYTE   W04
 BYTE   N02
 BYTE   W02
 BYTE   N03
 BYTE   W04
 BYTE   N03
 BYTE   W03
 BYTE   N02
 BYTE   W03
 BYTE   N03
 BYTE   W03
 BYTE   N02
 BYTE   W03
 BYTE   N02
 BYTE   W02
 BYTE   N03
 BYTE   W04
 BYTE   N02
 BYTE   W02
 BYTE   N03
 BYTE   W04
 BYTE   N06
 BYTE   W06
 BYTE   PATT
  POIN2 Label_1_0148AE56
// 008   ----------------------------------------
 BYTE   N24  Cs4  v064
 BYTE   W24
 BYTE   An3
 BYTE   W24
 BYTE   N02  Cs4
 BYTE   W02
 BYTE   N03
 BYTE   W04
 BYTE   N02
 BYTE   W02
 BYTE   N03
 BYTE   W04
 BYTE   N03
 BYTE   W03
 BYTE   N02
 BYTE   W03
 BYTE   N03
 BYTE   W03
 BYTE   N02
 BYTE   W03
 BYTE   N02
 BYTE   W02
 BYTE   N03
 BYTE   W04
 BYTE   N06
 BYTE   W06
 BYTE   N12  Bn3
 BYTE   W12
// 009   ----------------------------------------
 BYTE   An3
 BYTE   W12
 BYTE   N06
 BYTE   W06
 BYTE   Bn3
 BYTE   W06
 BYTE   N12  An3
 BYTE   W12
 BYTE   Gn3
 BYTE   W12
 BYTE   N02  An3
 BYTE   W02
 BYTE   N03
 BYTE   W04
 BYTE   N03
 BYTE   W03
 BYTE   N02
 BYTE   W03
 BYTE   N03
 BYTE   W03
 BYTE   N02
 BYTE   W03
 BYTE   N02
 BYTE   W02
 BYTE   N03
 BYTE   W04
 BYTE   N02
 BYTE   W02
 BYTE   N03
 BYTE   W04
 BYTE   N06
 BYTE   W06
 BYTE   N12  Gn3
 BYTE   W12
// 010   ----------------------------------------
 BYTE   An3
 BYTE   W12
 BYTE   N06
 BYTE   W06
 BYTE   Cs4
 BYTE   W06
 BYTE   N12  En4
 BYTE   W12
 BYTE   Fs4
 BYTE   W12
 BYTE   N02  Gn4
 BYTE   W02
 BYTE   N03
 BYTE   W04
 BYTE   N03
 BYTE   W03
 BYTE   N02
 BYTE   W03
 BYTE   N03
 BYTE   W03
 BYTE   N02
 BYTE   W03
 BYTE   N02
 BYTE   W02
 BYTE   N03
 BYTE   W04
 BYTE   N03
 BYTE   W03
 BYTE   N02
 BYTE   W03
 BYTE   N03
 BYTE   W03
 BYTE   N02
 BYTE   W03
 BYTE   N02
 BYTE   W02
 BYTE   N03
 BYTE   W04
 BYTE   N06
 BYTE   W06
// 011   ----------------------------------------
Label_1_0148AF4A:
 BYTE   N12  Fs4  v064
 BYTE   W24
 BYTE   Dn4
 BYTE   W12
 BYTE   Bn3
 BYTE   W12
 BYTE   Gs3
 BYTE   W12
 BYTE   Bn3
 BYTE   W12
 BYTE   Dn4
 BYTE   W12
 BYTE   Fs4
 BYTE   W12
 BYTE   PEND 
// 012   ----------------------------------------
 BYTE   En4
 BYTE   W24
 BYTE   An4
 BYTE   W24
 BYTE   N03  En4
 BYTE   W03
 BYTE   N02
 BYTE   W03
 BYTE   N02
 BYTE   W02
 BYTE   N03
 BYTE   W04
 BYTE   N02
 BYTE   W02
 BYTE   N03
 BYTE   W04
 BYTE   N03
 BYTE   W03
 BYTE   N02
 BYTE   W03
 BYTE   N03
 BYTE   W03
 BYTE   N02
 BYTE   W03
 BYTE   N06
 BYTE   W06
 BYTE   N12  Cs4
 BYTE   W12
// 013   ----------------------------------------
 BYTE   Dn4
 BYTE   W24
 BYTE   Bn3
 BYTE   W12
 BYTE   Gs3
 BYTE   W12
 BYTE   En3
 BYTE   W12
 BYTE   Gs3
 BYTE   W12
 BYTE   Bn3
 BYTE   W12
 BYTE   Dn4
 BYTE   W12
// 014   ----------------------------------------
 BYTE   Cs4
 BYTE   W12
 BYTE   N06
 BYTE   W06
 BYTE   Dn4
 BYTE   W06
 BYTE   N12  Cs4
 BYTE   W12
 BYTE   Bn3
 BYTE   W12
 BYTE   N02  Cs4
 BYTE   W02
 BYTE   N03
 BYTE   W04
 BYTE   N02
 BYTE   W02
 BYTE   N03
 BYTE   W04
 BYTE   N03
 BYTE   W03
 BYTE   N02
 BYTE   W03
 BYTE   N03
 BYTE   W03
 BYTE   N02
 BYTE   W03
 BYTE   N02
 BYTE   W02
 BYTE   N03
 BYTE   W04
 BYTE   N02
 BYTE   W02
 BYTE   N03
 BYTE   W04
 BYTE   N03
 BYTE   W03
 BYTE   N02
 BYTE   W03
 BYTE   N06
 BYTE   W06
 BYTE   PATT
  POIN2 Label_1_0148AF4A
// 015   ----------------------------------------
 BYTE   N12  En4  v064
 BYTE   W24
 BYTE   An4
 BYTE   W24
 BYTE   N02  En4
 BYTE   W02
 BYTE   N03
 BYTE   W04
 BYTE   N03
 BYTE   W03
 BYTE   N02
 BYTE   W03
 BYTE   N03
 BYTE   W03
 BYTE   N02
 BYTE   W03
 BYTE   N02
 BYTE   W02
 BYTE   N03
 BYTE   W04
 BYTE   N02
 BYTE   W02
 BYTE   N03
 BYTE   W04
 BYTE   N06
 BYTE   W06
 BYTE   N12  Cs4
 BYTE   W12
// 016   ----------------------------------------
 BYTE   Bn3
 BYTE   W12
 BYTE   N06
 BYTE   W06
 BYTE   Cs4
 BYTE   W06
 BYTE   N12  Bn3
 BYTE   W12
 BYTE   An3
 BYTE   W12
 BYTE   N03  Bn3
 BYTE   W03
 BYTE   N02
 BYTE   W03
 BYTE   N03
 BYTE   W03
 BYTE   N02
 BYTE   W03
 BYTE   N02
 BYTE   W02
 BYTE   N03
 BYTE   W04
 BYTE   N02
 BYTE   W02
 BYTE   N03
 BYTE   W04
 BYTE   N03
 BYTE   W03
 BYTE   N02
 BYTE   W03
 BYTE   N06
 BYTE   W06
 BYTE   N12  An3
 BYTE   W12
// 017   ----------------------------------------
 BYTE   Bn3
 BYTE   W12
 BYTE   N06
 BYTE   W06
 BYTE   Cs4
 BYTE   W06
 BYTE   N12  Dn4
 BYTE   W12
 BYTE   En4
 BYTE   W12
 BYTE   Fs4
 BYTE   W24
 BYTE   N24  Gs4
 BYTE   W24
// 018   ----------------------------------------
 BYTE   GoTo
  POIN2 Label_1_0148AE56
 BYTE   FINE

//**************** Track 3 (Midi-Chn.2) ****************//

FF5GoGoBokoAReliableChair_003:
// 000   ----------------------------------------
 BYTE   KEYSH   FF5GoGoBokoAReliableChair_key+0
 BYTE   VOICE   34
 BYTE   VOL   55*FF5GoGoBokoAReliableChair_mvl/mxv
 BYTE   N36  An0  v064
 BYTE   W36
 BYTE   N12  En1
 BYTE   W12
 BYTE   N24
 BYTE   W24
 BYTE   En0
 BYTE   W24
// 001   ----------------------------------------
Label_2_0148B025:
 BYTE   N36  An0  v064
 BYTE   W36
 BYTE   N12  En1
 BYTE   W12
 BYTE   N24
 BYTE   W24
 BYTE   N12  An1
 BYTE   W12
 BYTE   En1
 BYTE   W12
 BYTE   PEND 
// 002   ----------------------------------------
 BYTE   N36  An0
 BYTE   W36
 BYTE   N12  En1
 BYTE   W12
 BYTE   N24
 BYTE   W24
 BYTE   Gn0
 BYTE   W24
// 003   ----------------------------------------
 BYTE   N12  An0
 BYTE   W96
// 004   ----------------------------------------
Label_2_0148B041:
 BYTE   N36  An0  v064
 BYTE   W36
 BYTE   N12  En1
 BYTE   W12
 BYTE   N24
 BYTE   W24
 BYTE   En0
 BYTE   W24
 BYTE   PEND 
 BYTE   PATT
  POIN2 Label_2_0148B025
 BYTE   PATT
  POIN2 Label_2_0148B041
 BYTE   PATT
  POIN2 Label_2_0148B025
 BYTE   PATT
  POIN2 Label_2_0148B041
 BYTE   PATT
  POIN2 Label_2_0148B025
 BYTE   PATT
  POIN2 Label_2_0148B041
 BYTE   PATT
  POIN2 Label_2_0148B025
// 005   ----------------------------------------
Label_2_0148B070:
 BYTE   N36  Dn1  v064
 BYTE   W36
 BYTE   N12
 BYTE   W12
 BYTE   N24  Dn2
 BYTE   W24
 BYTE   Dn1
 BYTE   W24
 BYTE   PEND 
// 006   ----------------------------------------
 BYTE   N36  An1
 BYTE   W36
 BYTE   N12
 BYTE   W12
 BYTE   N24  En2
 BYTE   W24
 BYTE   Cs1
 BYTE   W24
 BYTE   PATT
  POIN2 Label_2_0148B070
// 007   ----------------------------------------
 BYTE   N36  An0  v064
 BYTE   W36
 BYTE   N12
 BYTE   W12
 BYTE   N24  An1
 BYTE   W24
 BYTE   An0
 BYTE   W24
 BYTE   PATT
  POIN2 Label_2_0148B070
// 008   ----------------------------------------
 BYTE   N36  En1  v064
 BYTE   W36
 BYTE   N12
 BYTE   W12
 BYTE   N24  An1
 BYTE   W24
 BYTE   En1
 BYTE   W24
// 009   ----------------------------------------
 BYTE   N36  Gn1
 BYTE   W36
 BYTE   N12
 BYTE   W12
 BYTE   N24  Gn2
 BYTE   W24
 BYTE   Gn1
 BYTE   W24
// 010   ----------------------------------------
 BYTE   N36  An1
 BYTE   W36
 BYTE   N12
 BYTE   W12
 BYTE   N24  An0
 BYTE   W24
 BYTE   En1
 BYTE   W24
// 011   ----------------------------------------
 BYTE   GoTo
  POIN2 Label_2_0148B041
 BYTE   FINE

//**************** Track 4 (Midi-Chn.3) ****************//

FF5GoGoBokoAReliableChair_004:
// 000   ----------------------------------------
 BYTE   KEYSH   FF5GoGoBokoAReliableChair_key+0
 BYTE   VOICE   121
 BYTE   VOL   55*FF5GoGoBokoAReliableChair_mvl/mxv
 BYTE   N12  Gn1  v064
 BYTE   W12
 BYTE   N12
 BYTE   W12
 BYTE   N12
 BYTE   W12
 BYTE   N12
 BYTE   W12
 BYTE   Bn1
 BYTE   W12
 BYTE   Gn1
 BYTE   W12
 BYTE   Bn1
 BYTE   W12
 BYTE   Gn1
 BYTE   W12
// 001   ----------------------------------------
 BYTE   N12
 BYTE   W12
 BYTE   N12
 BYTE   W12
 BYTE   Bn1
 BYTE   W12
 BYTE   Gn1
 BYTE   W12
 BYTE   Bn1
 BYTE   W12
 BYTE   Gn1
 BYTE   W12
 BYTE   Bn1
 BYTE   W12
 BYTE   Gn1
 BYTE   W12
// 002   ----------------------------------------
 BYTE   N12
 BYTE   W12
 BYTE   N12
 BYTE   W12
 BYTE   N12
 BYTE   W12
 BYTE   N12
 BYTE   W12
 BYTE   Bn1
 BYTE   W12
 BYTE   Gn1
 BYTE   W12
 BYTE   Bn1
 BYTE   W12
 BYTE   Gn1
 BYTE   W12
// 003   ----------------------------------------
 BYTE   Bn1
 BYTE   W96
// 004   ----------------------------------------
Label_3_0148B0FA:
 BYTE   N12  Cs1  v064
 BYTE   W36
 BYTE   N12
 BYTE   W36
 BYTE   N12
 BYTE   W24
 BYTE   PEND 
// 005   ----------------------------------------
Label_3_0148B103:
 BYTE   W24
 BYTE   N12  Cs1  v064
 BYTE   W24
 BYTE   N12
 BYTE   W48
 BYTE   PEND 
 BYTE   PATT
  POIN2 Label_3_0148B0FA
 BYTE   PATT
  POIN2 Label_3_0148B103
 BYTE   PATT
  POIN2 Label_3_0148B0FA
 BYTE   PATT
  POIN2 Label_3_0148B103
 BYTE   PATT
  POIN2 Label_3_0148B0FA
 BYTE   PATT
  POIN2 Label_3_0148B103
 BYTE   PATT
  POIN2 Label_3_0148B0FA
 BYTE   PATT
  POIN2 Label_3_0148B103
 BYTE   PATT
  POIN2 Label_3_0148B0FA
 BYTE   PATT
  POIN2 Label_3_0148B103
 BYTE   PATT
  POIN2 Label_3_0148B0FA
 BYTE   PATT
  POIN2 Label_3_0148B103
 BYTE   PATT
  POIN2 Label_3_0148B0FA
 BYTE   PATT
  POIN2 Label_3_0148B103
// 006   ----------------------------------------
 BYTE   GoTo
  POIN2 Label_3_0148B0FA
 BYTE   FINE

//******************************************************//
	ALIGN 4

FF5GoGoBokoAReliableChair:
	BYTE	4	// NumTrks
	BYTE	0	// NumBlks
	BYTE	FF5GoGoBokoAReliableChair_pri	// Priority
	BYTE	FF5GoGoBokoAReliableChair_rev	// Reverb.
    
	POIN2	FF5GoGoBokoAReliableChair_grp
    
	POIN2	FF5GoGoBokoAReliableChair_001
	POIN2	FF5GoGoBokoAReliableChair_002
	POIN2	FF5GoGoBokoAReliableChair_003
	POIN2	FF5GoGoBokoAReliableChair_004

	
