//Event file generated from Sappy .s format.
	#include "MPlayDef.event"

	#define	FF5SearchingTheLight7743_grp  voicegroup000
	#define	FF5SearchingTheLight7743_pri  0
	#define	FF5SearchingTheLight7743_rev  128
	#define	FF5SearchingTheLight7743_mvl  127
	#define	FF5SearchingTheLight7743_key  0
	#define	FF5SearchingTheLight7743_tbs  1
	#define	FF5SearchingTheLight7743_exg  0
	#define	FF5SearchingTheLight7743_cmp  1

	// .rodata
	//	FF5SearchingTheLight7743
	ALIGN 4


//**************** Track 1 (Midi-Chn.0) ****************//

FF5SearchingTheLight7743_001:
// 000   ----------------------------------------
 BYTE   KEYSH   FF5SearchingTheLight7743_key+0
 BYTE   TEMPO   142*FF5SearchingTheLight7743_tbs/2
 BYTE   VOL   52*FF5SearchingTheLight7743_mvl/mxv
 BYTE   VOICE   33
 BYTE   W96
// 001   ----------------------------------------
Label_0_0167FC3D:
 BYTE   N16  Dn1  v100
 BYTE   W24
 BYTE   An0
 BYTE   W24
 BYTE   Dn1
 BYTE   W48
 BYTE   PEND 
 BYTE   PATT
  POIN2 Label_0_0167FC3D
// 002   ----------------------------------------
Label_0_0167FC4B:
 BYTE   N16  Fn1  v100
 BYTE   W24
 BYTE   Cn1
 BYTE   W24
 BYTE   Fn1
 BYTE   W24
 BYTE   Cn1
 BYTE   W24
 BYTE   PEND 
// 003   ----------------------------------------
Label_0_0167FC56:
 BYTE   N16  As0  v100
 BYTE   W24
 BYTE   Fn1
 BYTE   W24
 BYTE   As0
 BYTE   W24
 BYTE   Fn1
 BYTE   W24
 BYTE   PEND 
// 004   ----------------------------------------
Label_0_0167FC61:
 BYTE   N16  As0  v100
 BYTE   W24
 BYTE   Fn1
 BYTE   W24
 BYTE   Cn1
 BYTE   W24
 BYTE   Gn1
 BYTE   W24
 BYTE   PEND 
 BYTE   PATT
  POIN2 Label_0_0167FC3D
 BYTE   PATT
  POIN2 Label_0_0167FC3D
 BYTE   PATT
  POIN2 Label_0_0167FC4B
// 005   ----------------------------------------
Label_0_0167FC7B:
 BYTE   N16  Ds1  v100
 BYTE   W24
 BYTE   As0
 BYTE   W24
 BYTE   Ds1
 BYTE   W24
 BYTE   As0
 BYTE   W24
 BYTE   PEND 
 BYTE   PATT
  POIN2 Label_0_0167FC7B
// 006   ----------------------------------------
Label_0_0167FC8B:
 BYTE   N16  Dn1  v100
 BYTE   W24
 BYTE   An0
 BYTE   W24
 BYTE   Dn1
 BYTE   W24
 BYTE   An0
 BYTE   W24
 BYTE   PEND 
 BYTE   PATT
  POIN2 Label_0_0167FC8B
 BYTE   PATT
  POIN2 Label_0_0167FC4B
 BYTE   PATT
  POIN2 Label_0_0167FC4B
 BYTE   PATT
  POIN2 Label_0_0167FC7B
 BYTE   PATT
  POIN2 Label_0_0167FC7B
// 007   ----------------------------------------
Label_0_0167FCAF:
 BYTE   N16  Bn0  v100
 BYTE   W24
 BYTE   Fs1
 BYTE   W24
 BYTE   Bn0
 BYTE   W24
 BYTE   Fs1
 BYTE   W24
 BYTE   PEND 
 BYTE   PATT
  POIN2 Label_0_0167FCAF
 BYTE   PATT
  POIN2 Label_0_0167FC7B
 BYTE   PATT
  POIN2 Label_0_0167FC7B
 BYTE   PATT
  POIN2 Label_0_0167FCAF
 BYTE   PATT
  POIN2 Label_0_0167FCAF
 BYTE   PATT
  POIN2 Label_0_0167FC56
 BYTE   PATT
  POIN2 Label_0_0167FC61
// 008   ----------------------------------------
 BYTE   GoTo
  POIN2 Label_0_0167FC3D
// 009   ----------------------------------------
 BYTE   W96
// 010   ----------------------------------------
 BYTE   W96
// 011   ----------------------------------------
 BYTE   W96
// 012   ----------------------------------------
 BYTE   W96
// 013   ----------------------------------------
 BYTE   W96
// 014   ----------------------------------------
 BYTE   W96
// 015   ----------------------------------------
 BYTE   W96
// 016   ----------------------------------------
 BYTE   W96
// 017   ----------------------------------------
 BYTE   W96
// 018   ----------------------------------------
 BYTE   W96
// 019   ----------------------------------------
 BYTE   W96
// 020   ----------------------------------------
 BYTE   W96
// 021   ----------------------------------------
 BYTE   W96
// 022   ----------------------------------------
 BYTE   W96
// 023   ----------------------------------------
 BYTE   W96
// 024   ----------------------------------------
 BYTE   W96
// 025   ----------------------------------------
 BYTE   W96
// 026   ----------------------------------------
 BYTE   W96
// 027   ----------------------------------------
 BYTE   W96
// 028   ----------------------------------------
 BYTE   W96
// 029   ----------------------------------------
 BYTE   W96
// 030   ----------------------------------------
 BYTE   W96
// 031   ----------------------------------------
 BYTE   W96
// 032   ----------------------------------------
 BYTE   W96
// 033   ----------------------------------------
 BYTE   W96
// 034   ----------------------------------------
 BYTE   W96
// 035   ----------------------------------------
 BYTE   W96
// 036   ----------------------------------------
 BYTE   W96
// 037   ----------------------------------------
 BYTE   W96
// 038   ----------------------------------------
 BYTE   W96
// 039   ----------------------------------------
 BYTE   W96
// 040   ----------------------------------------
 BYTE   W96
 BYTE   FINE

//**************** Track 2 (Midi-Chn.1) ****************//

FF5SearchingTheLight7743_002:
// 000   ----------------------------------------
 BYTE   KEYSH   FF5SearchingTheLight7743_key+0
 BYTE   VOL   72*FF5SearchingTheLight7743_mvl/mxv
 BYTE   VOICE   47
 BYTE   N12  Gs1  v127
 BYTE   W24
 BYTE   As1
 BYTE   W32
 BYTE   N08  An1
 BYTE   W08
 BYTE   N08
 BYTE   W08
 BYTE   N08
 BYTE   W08
 BYTE   N08
 BYTE   W08
 BYTE   N08
 BYTE   W08
// 001   ----------------------------------------
Label_1_0167FD1B:
 BYTE   N24  Dn2  v100
 BYTE   W24
 BYTE   An1
 BYTE   W24
 BYTE   Dn2
 BYTE   W48
 BYTE   PEND 
 BYTE   PATT
  POIN2 Label_1_0167FD1B
// 002   ----------------------------------------
Label_1_0167FD29:
 BYTE   N24  Fn2  v100
 BYTE   W24
 BYTE   Cn2
 BYTE   W24
 BYTE   Fn2
 BYTE   W24
 BYTE   Cn2
 BYTE   W24
 BYTE   PEND 
// 003   ----------------------------------------
Label_1_0167FD34:
 BYTE   N24  As1  v100
 BYTE   W24
 BYTE   Fn2
 BYTE   W24
 BYTE   As1
 BYTE   W24
 BYTE   Fn2
 BYTE   W24
 BYTE   PEND 
// 004   ----------------------------------------
Label_1_0167FD3F:
 BYTE   N24  As1  v100
 BYTE   W24
 BYTE   Fn2
 BYTE   W24
 BYTE   Cn2
 BYTE   W24
 BYTE   Gn2
 BYTE   W24
 BYTE   PEND 
 BYTE   PATT
  POIN2 Label_1_0167FD1B
 BYTE   PATT
  POIN2 Label_1_0167FD1B
 BYTE   PATT
  POIN2 Label_1_0167FD29
// 005   ----------------------------------------
Label_1_0167FD59:
 BYTE   N24  Ds2  v100
 BYTE   W24
 BYTE   As1
 BYTE   W24
 BYTE   Ds2
 BYTE   W24
 BYTE   As1
 BYTE   W24
 BYTE   PEND 
 BYTE   PATT
  POIN2 Label_1_0167FD59
// 006   ----------------------------------------
Label_1_0167FD69:
 BYTE   N24  Dn2  v100
 BYTE   W24
 BYTE   An1
 BYTE   W24
 BYTE   Dn2
 BYTE   W24
 BYTE   An1
 BYTE   W24
 BYTE   PEND 
 BYTE   PATT
  POIN2 Label_1_0167FD69
 BYTE   PATT
  POIN2 Label_1_0167FD29
 BYTE   PATT
  POIN2 Label_1_0167FD29
 BYTE   PATT
  POIN2 Label_1_0167FD59
 BYTE   PATT
  POIN2 Label_1_0167FD59
// 007   ----------------------------------------
Label_1_0167FD8D:
 BYTE   N24  Bn1  v100
 BYTE   W24
 BYTE   Fs2
 BYTE   W24
 BYTE   Bn1
 BYTE   W24
 BYTE   Fs2
 BYTE   W24
 BYTE   PEND 
 BYTE   PATT
  POIN2 Label_1_0167FD8D
 BYTE   PATT
  POIN2 Label_1_0167FD59
 BYTE   PATT
  POIN2 Label_1_0167FD59
 BYTE   PATT
  POIN2 Label_1_0167FD8D
 BYTE   PATT
  POIN2 Label_1_0167FD8D
 BYTE   PATT
  POIN2 Label_1_0167FD34
 BYTE   PATT
  POIN2 Label_1_0167FD3F
// 008   ----------------------------------------
 BYTE   GoTo
  POIN2 Label_1_0167FD1B
// 009   ----------------------------------------
 BYTE   W96
// 010   ----------------------------------------
 BYTE   W96
// 011   ----------------------------------------
 BYTE   W96
// 012   ----------------------------------------
 BYTE   W96
// 013   ----------------------------------------
 BYTE   W96
// 014   ----------------------------------------
 BYTE   W96
// 015   ----------------------------------------
 BYTE   W96
// 016   ----------------------------------------
 BYTE   W96
// 017   ----------------------------------------
 BYTE   W96
// 018   ----------------------------------------
 BYTE   W96
// 019   ----------------------------------------
 BYTE   W96
// 020   ----------------------------------------
 BYTE   W96
// 021   ----------------------------------------
 BYTE   W96
// 022   ----------------------------------------
 BYTE   W96
// 023   ----------------------------------------
 BYTE   W96
// 024   ----------------------------------------
 BYTE   W96
// 025   ----------------------------------------
 BYTE   W96
// 026   ----------------------------------------
 BYTE   W96
// 027   ----------------------------------------
 BYTE   W96
// 028   ----------------------------------------
 BYTE   W96
// 029   ----------------------------------------
 BYTE   W96
// 030   ----------------------------------------
 BYTE   W96
// 031   ----------------------------------------
 BYTE   W96
// 032   ----------------------------------------
 BYTE   W96
// 033   ----------------------------------------
 BYTE   W96
// 034   ----------------------------------------
 BYTE   W96
// 035   ----------------------------------------
 BYTE   W96
// 036   ----------------------------------------
 BYTE   W96
// 037   ----------------------------------------
 BYTE   W96
// 038   ----------------------------------------
 BYTE   W96
// 039   ----------------------------------------
 BYTE   W96
// 040   ----------------------------------------
 BYTE   W96
 BYTE   FINE

//**************** Track 3 (Midi-Chn.2) ****************//

FF5SearchingTheLight7743_003:
// 000   ----------------------------------------
 BYTE   KEYSH   FF5SearchingTheLight7743_key+0
 BYTE   VOL   80*FF5SearchingTheLight7743_mvl/mxv
 BYTE   VOICE   56
 BYTE   N04  Ds4  v100
 BYTE   N04  Gs4
 BYTE   W24
 BYTE   Fn4
 BYTE   N04  As4
 BYTE   W32
 BYTE   En4
 BYTE   N04  An4
 BYTE   W08
 BYTE   En4
 BYTE   N04  An4
 BYTE   W08
 BYTE   En4
 BYTE   N04  An4
 BYTE   W08
 BYTE   En4
 BYTE   N04  An4
 BYTE   W08
 BYTE   En4
 BYTE   N04  An4
 BYTE   W08
// 001   ----------------------------------------
Label_2_0167FE08:
 BYTE   W64
 BYTE   N04  Dn3  v100
 BYTE   W08
 BYTE   Fn3
 BYTE   W08
 BYTE   Dn3
 BYTE   W08
 BYTE   Fn3
 BYTE   W08
 BYTE   PEND 
// 002   ----------------------------------------
Label_2_0167FE14:
 BYTE   N64  An3  v100
 BYTE   W64
 BYTE   N04  Fn3
 BYTE   W08
 BYTE   An3
 BYTE   W08
 BYTE   Fn3
 BYTE   W08
 BYTE   An3
 BYTE   W08
 BYTE   PEND 
// 003   ----------------------------------------
 BYTE   N23  Cn4
 BYTE   W24
 BYTE   N15  An3
 BYTE   W16
 BYTE   N07  Fn3
 BYTE   W08
 BYTE   N36  Cn3
 BYTE   W40
 BYTE   N07  An2
 BYTE   W08
// 004   ----------------------------------------
 BYTE   N23  As2
 BYTE   W24
 BYTE   TIE  An3
 BYTE   W72
// 005   ----------------------------------------
 BYTE   W72
 BYTE   EOT
 BYTE   W24
 BYTE   PATT
  POIN2 Label_2_0167FE08
 BYTE   PATT
  POIN2 Label_2_0167FE14
// 006   ----------------------------------------
 BYTE   N23  Cn4  v100
 BYTE   W24
 BYTE   N15  An3
 BYTE   W16
 BYTE   N07  Fn3
 BYTE   W08
 BYTE   N36  Dn3
 BYTE   W40
 BYTE   N07
 BYTE   W08
// 007   ----------------------------------------
 BYTE   N23  Ds3
 BYTE   W24
 BYTE   TIE  As3
 BYTE   W72
// 008   ----------------------------------------
 BYTE   W72
 BYTE   EOT
 BYTE   W24
// 009   ----------------------------------------
 BYTE   W96
// 010   ----------------------------------------
 BYTE   W96
// 011   ----------------------------------------
 BYTE   W48
 BYTE   N44  Fn3
 BYTE   W48
// 012   ----------------------------------------
 BYTE   Gn3
 BYTE   W48
 BYTE   An3
 BYTE   W48
// 013   ----------------------------------------
 BYTE   TIE  As3
 BYTE   W96
// 014   ----------------------------------------
 BYTE   W92
 BYTE   EOT
 BYTE   W04
// 015   ----------------------------------------
 BYTE   TIE  Fs3
 BYTE   W96
// 016   ----------------------------------------
 BYTE   W92
 BYTE   EOT
 BYTE   W04
// 017   ----------------------------------------
 BYTE   N08  Gn3
 BYTE   W08
 BYTE   Fn3
 BYTE   W08
 BYTE   Gn3
 BYTE   W08
 BYTE   Gs3
 BYTE   W08
 BYTE   Gn3
 BYTE   W08
 BYTE   Fn3
 BYTE   W08
 BYTE   As3
 BYTE   W08
 BYTE   Gs3
 BYTE   W08
 BYTE   As3
 BYTE   W08
 BYTE   Cn4
 BYTE   W08
 BYTE   As3
 BYTE   W08
 BYTE   Gs3
 BYTE   W08
// 018   ----------------------------------------
 BYTE   N12  Dn4
 BYTE   W12
 BYTE   N04  Cn4
 BYTE   W04
 BYTE   N08  Dn4
 BYTE   W08
 BYTE   Ds4
 BYTE   W08
 BYTE   Dn4
 BYTE   W08
 BYTE   Cn4
 BYTE   W08
 BYTE   Fn4
 BYTE   W08
 BYTE   Ds4
 BYTE   W08
 BYTE   Dn4
 BYTE   W08
 BYTE   Gn4
 BYTE   W08
 BYTE   Fn4
 BYTE   W08
 BYTE   Ds4
 BYTE   W08
// 019   ----------------------------------------
 BYTE   N44  Dn4
 BYTE   W48
 BYTE   N23  Cs4
 BYTE   W24
 BYTE   Bn3
 BYTE   W24
// 020   ----------------------------------------
 BYTE   N44  Fs3
 BYTE   W48
 BYTE   Bn3
 BYTE   W48
// 021   ----------------------------------------
 BYTE   TIE  As3
 BYTE   W96
// 022   ----------------------------------------
 BYTE   W96
// 023   ----------------------------------------
 BYTE   EOT
 BYTE   GoTo
  POIN2 Label_2_0167FE08
// 024   ----------------------------------------
 BYTE   W96
// 025   ----------------------------------------
 BYTE   W96
// 026   ----------------------------------------
 BYTE   W96
// 027   ----------------------------------------
 BYTE   W96
// 028   ----------------------------------------
 BYTE   W96
// 029   ----------------------------------------
 BYTE   W96
// 030   ----------------------------------------
 BYTE   W96
// 031   ----------------------------------------
 BYTE   W96
// 032   ----------------------------------------
 BYTE   W96
// 033   ----------------------------------------
 BYTE   W96
// 034   ----------------------------------------
 BYTE   W96
// 035   ----------------------------------------
 BYTE   W96
// 036   ----------------------------------------
 BYTE   W96
// 037   ----------------------------------------
 BYTE   W96
// 038   ----------------------------------------
 BYTE   W96
// 039   ----------------------------------------
 BYTE   W96
// 040   ----------------------------------------
 BYTE   W96
// 041   ----------------------------------------
 BYTE   W96
// 042   ----------------------------------------
 BYTE   W96
// 043   ----------------------------------------
 BYTE   W96
// 044   ----------------------------------------
 BYTE   W96
// 045   ----------------------------------------
 BYTE   W96
// 046   ----------------------------------------
 BYTE   W96
// 047   ----------------------------------------
 BYTE   W96
// 048   ----------------------------------------
 BYTE   W96
// 049   ----------------------------------------
 BYTE   W96
// 050   ----------------------------------------
 BYTE   W96
// 051   ----------------------------------------
 BYTE   W96
// 052   ----------------------------------------
 BYTE   W96
// 053   ----------------------------------------
 BYTE   W96
// 054   ----------------------------------------
 BYTE   W96
// 055   ----------------------------------------
 BYTE   W96
 BYTE   FINE

//**************** Track 4 (Midi-Chn.3) ****************//

FF5SearchingTheLight7743_004:
// 000   ----------------------------------------
 BYTE   KEYSH   FF5SearchingTheLight7743_key+0
 BYTE   VOL   4*FF5SearchingTheLight7743_mvl/mxv
 BYTE   VOICE   57
 BYTE   N04  Cs3  v100
 BYTE   W24
 BYTE   Ds3
 BYTE   W32
 BYTE   Dn3
 BYTE   W08
 BYTE   N04
 BYTE   W08
 BYTE   N04
 BYTE   W08
 BYTE   N04
 BYTE   W08
 BYTE   N04
 BYTE   W08
// 001   ----------------------------------------
Label_3_0167FEF6:
 BYTE   W64
 BYTE   N04  An2  v100
 BYTE   W08
 BYTE   N04
 BYTE   W08
 BYTE   N04
 BYTE   W08
 BYTE   N04
 BYTE   W08
 BYTE   PEND 
// 002   ----------------------------------------
Label_3_0167FF02:
 BYTE   N64  Dn3  v100
 BYTE   W64
 BYTE   N04
 BYTE   W08
 BYTE   N04
 BYTE   W08
 BYTE   N04
 BYTE   W08
 BYTE   N04
 BYTE   W08
 BYTE   PEND 
// 003   ----------------------------------------
Label_3_0167FF0F:
 BYTE   N23  Fn3  v100
 BYTE   W24
 BYTE   N15  Cn3
 BYTE   W16
 BYTE   N07  An2
 BYTE   W08
 BYTE   N36  Fn2
 BYTE   W40
 BYTE   N07
 BYTE   W08
 BYTE   PEND 
// 004   ----------------------------------------
 BYTE   N23
 BYTE   W24
 BYTE   TIE  Cn3
 BYTE   W72
// 005   ----------------------------------------
 BYTE   W72
 BYTE   EOT
 BYTE   W24
 BYTE   PATT
  POIN2 Label_3_0167FEF6
 BYTE   PATT
  POIN2 Label_3_0167FF02
 BYTE   PATT
  POIN2 Label_3_0167FF0F
// 006   ----------------------------------------
 BYTE   N23  As2  v100
 BYTE   W24
 BYTE   TIE  Ds3
 BYTE   W72
// 007   ----------------------------------------
 BYTE   W72
 BYTE   EOT
 BYTE   W24
// 008   ----------------------------------------
 BYTE   W96
// 009   ----------------------------------------
 BYTE   W96
// 010   ----------------------------------------
 BYTE   W96
// 011   ----------------------------------------
 BYTE   W96
// 012   ----------------------------------------
 BYTE   W96
// 013   ----------------------------------------
 BYTE   W96
// 014   ----------------------------------------
 BYTE   W96
// 015   ----------------------------------------
 BYTE   W96
// 016   ----------------------------------------
 BYTE   W96
// 017   ----------------------------------------
 BYTE   W96
// 018   ----------------------------------------
 BYTE   W96
// 019   ----------------------------------------
 BYTE   W96
// 020   ----------------------------------------
 BYTE   W96
// 021   ----------------------------------------
 BYTE   W96
// 022   ----------------------------------------
 BYTE   GoTo
  POIN2 Label_3_0167FEF6
// 023   ----------------------------------------
 BYTE   W96
// 024   ----------------------------------------
 BYTE   W96
// 025   ----------------------------------------
 BYTE   W96
// 026   ----------------------------------------
 BYTE   W96
// 027   ----------------------------------------
 BYTE   W96
// 028   ----------------------------------------
 BYTE   W96
// 029   ----------------------------------------
 BYTE   W96
// 030   ----------------------------------------
 BYTE   W96
// 031   ----------------------------------------
 BYTE   W96
// 032   ----------------------------------------
 BYTE   W96
// 033   ----------------------------------------
 BYTE   W96
// 034   ----------------------------------------
 BYTE   W96
// 035   ----------------------------------------
 BYTE   W96
// 036   ----------------------------------------
 BYTE   W96
// 037   ----------------------------------------
 BYTE   W96
// 038   ----------------------------------------
 BYTE   W96
// 039   ----------------------------------------
 BYTE   W96
// 040   ----------------------------------------
 BYTE   W96
// 041   ----------------------------------------
 BYTE   W96
// 042   ----------------------------------------
 BYTE   W96
// 043   ----------------------------------------
 BYTE   W96
// 044   ----------------------------------------
 BYTE   W96
// 045   ----------------------------------------
 BYTE   W96
// 046   ----------------------------------------
 BYTE   W96
// 047   ----------------------------------------
 BYTE   W96
// 048   ----------------------------------------
 BYTE   W96
// 049   ----------------------------------------
 BYTE   W96
// 050   ----------------------------------------
 BYTE   W96
// 051   ----------------------------------------
 BYTE   W96
// 052   ----------------------------------------
 BYTE   W96
// 053   ----------------------------------------
 BYTE   W96
// 054   ----------------------------------------
 BYTE   W96
 BYTE   FINE

//**************** Track 5 (Midi-Chn.4) ****************//

FF5SearchingTheLight7743_005:
// 000   ----------------------------------------
 BYTE   KEYSH   FF5SearchingTheLight7743_key+0
 BYTE   VOL   33*FF5SearchingTheLight7743_mvl/mxv
 BYTE   VOICE   48
 BYTE   W96
// 001   ----------------------------------------
Label_4_0167FF7B:
 BYTE   N08  Dn3  v092
 BYTE   W08
 BYTE   En3
 BYTE   W08
 BYTE   Fn3
 BYTE   W08
 BYTE   An3
 BYTE   W08
 BYTE   Gn3
 BYTE   W08
 BYTE   Fn3
 BYTE   W08
 BYTE   Dn3
 BYTE   W08
 BYTE   En3
 BYTE   W08
 BYTE   Fn3
 BYTE   W08
 BYTE   An3
 BYTE   W08
 BYTE   Gn3
 BYTE   W08
 BYTE   Fn3
 BYTE   W08
 BYTE   PEND 
 BYTE   PATT
  POIN2 Label_4_0167FF7B
 BYTE   PATT
  POIN2 Label_4_0167FF7B
// 002   ----------------------------------------
 BYTE   N08  Dn3  v092
 BYTE   W08
 BYTE   Cn3
 BYTE   W08
 BYTE   Dn3
 BYTE   W08
 BYTE   En3
 BYTE   W08
 BYTE   Dn3
 BYTE   W08
 BYTE   En3
 BYTE   W08
 BYTE   Fn3
 BYTE   W08
 BYTE   En3
 BYTE   W08
 BYTE   Fn3
 BYTE   W08
 BYTE   Gn3
 BYTE   W08
 BYTE   Fn3
 BYTE   W08
 BYTE   Gn3
 BYTE   W08
// 003   ----------------------------------------
 BYTE   Fn3
 BYTE   W08
 BYTE   En3
 BYTE   W08
 BYTE   Fn3
 BYTE   W08
 BYTE   Gn3
 BYTE   W08
 BYTE   Fn3
 BYTE   W08
 BYTE   Gn3
 BYTE   W08
 BYTE   An3
 BYTE   W08
 BYTE   Gn3
 BYTE   W08
 BYTE   Fn3
 BYTE   W08
 BYTE   Gn3
 BYTE   W08
 BYTE   Fn3
 BYTE   W08
 BYTE   En3
 BYTE   W08
 BYTE   PATT
  POIN2 Label_4_0167FF7B
 BYTE   PATT
  POIN2 Label_4_0167FF7B
 BYTE   PATT
  POIN2 Label_4_0167FF7B
// 004   ----------------------------------------
 BYTE   N08  Ds3  v092
 BYTE   W08
 BYTE   Cs3
 BYTE   W08
 BYTE   Ds3
 BYTE   W08
 BYTE   Fn3
 BYTE   W08
 BYTE   Ds3
 BYTE   W08
 BYTE   Fn3
 BYTE   W08
 BYTE   Fs3
 BYTE   W08
 BYTE   Fn3
 BYTE   W08
 BYTE   Fs3
 BYTE   W08
 BYTE   Gs3
 BYTE   W08
 BYTE   Fs3
 BYTE   W08
 BYTE   Gs3
 BYTE   W08
// 005   ----------------------------------------
 BYTE   Fs3
 BYTE   W08
 BYTE   Fn3
 BYTE   W08
 BYTE   Fs3
 BYTE   W08
 BYTE   Gs3
 BYTE   W08
 BYTE   Fs3
 BYTE   W08
 BYTE   Gs3
 BYTE   W08
 BYTE   As3
 BYTE   W08
 BYTE   Gs3
 BYTE   W08
 BYTE   Fs3
 BYTE   W08
 BYTE   Gs3
 BYTE   W08
 BYTE   Fs3
 BYTE   W08
 BYTE   Fn3
 BYTE   W08
// 006   ----------------------------------------
 BYTE   N96  An3  v100
 BYTE   W96
// 007   ----------------------------------------
 BYTE   N48
 BYTE   W48
 BYTE   N24
 BYTE   W24
 BYTE   Gn3
 BYTE   W24
// 008   ----------------------------------------
 BYTE   TIE  Fn3
 BYTE   W96
// 009   ----------------------------------------
 BYTE   W96
// 010   ----------------------------------------
 BYTE   EOT
 BYTE   TIE  Gn3
 BYTE   W96
// 011   ----------------------------------------
 BYTE   W96
// 012   ----------------------------------------
 BYTE   EOT
 BYTE   TIE  Dn4
 BYTE   W96
// 013   ----------------------------------------
 BYTE   W96
// 014   ----------------------------------------
 BYTE   EOT
 BYTE   TIE  As3
 BYTE   W96
// 015   ----------------------------------------
 BYTE   W96
// 016   ----------------------------------------
 BYTE   EOT
 BYTE   TIE  Fs3
 BYTE   W96
// 017   ----------------------------------------
 BYTE   W96
// 018   ----------------------------------------
 BYTE   EOT
 BYTE   N96  As3
 BYTE   W96
// 019   ----------------------------------------
 BYTE   N08  Cs3  v092
 BYTE   W08
 BYTE   Ds3
 BYTE   W08
 BYTE   Fn3
 BYTE   W08
 BYTE   Gn3
 BYTE   W08
 BYTE   Fn3
 BYTE   W08
 BYTE   Ds3
 BYTE   W08
 BYTE   Gn3
 BYTE   W08
 BYTE   Fn3
 BYTE   W08
 BYTE   Gn3
 BYTE   W08
 BYTE   As3
 BYTE   W08
 BYTE   An3
 BYTE   W08
 BYTE   Gn3
 BYTE   W08
// 020   ----------------------------------------
 BYTE   GoTo
  POIN2 Label_4_0167FF7B
// 021   ----------------------------------------
 BYTE   W96
// 022   ----------------------------------------
 BYTE   W96
// 023   ----------------------------------------
 BYTE   W96
// 024   ----------------------------------------
 BYTE   W96
// 025   ----------------------------------------
 BYTE   W96
// 026   ----------------------------------------
 BYTE   W96
// 027   ----------------------------------------
 BYTE   W96
// 028   ----------------------------------------
 BYTE   W96
// 029   ----------------------------------------
 BYTE   W96
// 030   ----------------------------------------
 BYTE   W96
// 031   ----------------------------------------
 BYTE   W96
// 032   ----------------------------------------
 BYTE   W96
// 033   ----------------------------------------
 BYTE   W96
// 034   ----------------------------------------
 BYTE   W96
// 035   ----------------------------------------
 BYTE   W96
// 036   ----------------------------------------
 BYTE   W96
// 037   ----------------------------------------
 BYTE   W96
// 038   ----------------------------------------
 BYTE   W96
// 039   ----------------------------------------
 BYTE   W96
// 040   ----------------------------------------
 BYTE   W96
// 041   ----------------------------------------
 BYTE   W96
// 042   ----------------------------------------
 BYTE   W96
// 043   ----------------------------------------
 BYTE   W96
// 044   ----------------------------------------
 BYTE   W96
// 045   ----------------------------------------
 BYTE   W96
// 046   ----------------------------------------
 BYTE   W96
// 047   ----------------------------------------
 BYTE   W96
// 048   ----------------------------------------
 BYTE   W96
// 049   ----------------------------------------
 BYTE   W96
// 050   ----------------------------------------
 BYTE   W96
// 051   ----------------------------------------
 BYTE   W96
// 052   ----------------------------------------
 BYTE   W96
 BYTE   FINE

//**************** Track 6 (Midi-Chn.5) ****************//

FF5SearchingTheLight7743_006:
// 000   ----------------------------------------
 BYTE   KEYSH   FF5SearchingTheLight7743_key+0
 BYTE   VOL   33*FF5SearchingTheLight7743_mvl/mxv
 BYTE   VOICE   48
 BYTE   W96
// 001   ----------------------------------------
Label_5_01680083:
 BYTE   N08  Fn2  v092
 BYTE   W08
 BYTE   Gn2
 BYTE   W08
 BYTE   An2
 BYTE   W08
 BYTE   Cn3
 BYTE   W08
 BYTE   Bn2
 BYTE   W08
 BYTE   An2
 BYTE   W08
 BYTE   Fn2
 BYTE   W08
 BYTE   Gn2
 BYTE   W08
 BYTE   An2
 BYTE   W08
 BYTE   Cn3
 BYTE   W08
 BYTE   Bn2
 BYTE   W08
 BYTE   An2
 BYTE   W08
 BYTE   PEND 
 BYTE   PATT
  POIN2 Label_5_01680083
// 002   ----------------------------------------
Label_5_016800A3:
 BYTE   N08  Fn2  v092
 BYTE   W08
 BYTE   Gn2
 BYTE   W08
 BYTE   An2
 BYTE   W08
 BYTE   Cn3
 BYTE   W08
 BYTE   As2
 BYTE   W08
 BYTE   An2
 BYTE   W08
 BYTE   Fn2
 BYTE   W08
 BYTE   Gn2
 BYTE   W08
 BYTE   An2
 BYTE   W08
 BYTE   Cn3
 BYTE   W08
 BYTE   As2
 BYTE   W08
 BYTE   An2
 BYTE   W08
 BYTE   PEND 
// 003   ----------------------------------------
 BYTE   Fn2
 BYTE   W08
 BYTE   En2
 BYTE   W08
 BYTE   Fn2
 BYTE   W08
 BYTE   Gn2
 BYTE   W08
 BYTE   Fn2
 BYTE   W08
 BYTE   Gn2
 BYTE   W08
 BYTE   An2
 BYTE   W08
 BYTE   Gn2
 BYTE   W08
 BYTE   An2
 BYTE   W08
 BYTE   As2
 BYTE   W08
 BYTE   An2
 BYTE   W08
 BYTE   As2
 BYTE   W08
// 004   ----------------------------------------
 BYTE   An2
 BYTE   W08
 BYTE   Gn2
 BYTE   W08
 BYTE   An2
 BYTE   W08
 BYTE   As2
 BYTE   W08
 BYTE   An2
 BYTE   W08
 BYTE   As2
 BYTE   W08
 BYTE   Cn3
 BYTE   W08
 BYTE   As2
 BYTE   W08
 BYTE   An2
 BYTE   W08
 BYTE   As2
 BYTE   W08
 BYTE   An2
 BYTE   W08
 BYTE   Gn2
 BYTE   W08
 BYTE   PATT
  POIN2 Label_5_01680083
 BYTE   PATT
  POIN2 Label_5_01680083
 BYTE   PATT
  POIN2 Label_5_016800A3
// 005   ----------------------------------------
 BYTE   N08  Fs2  v092
 BYTE   W08
 BYTE   Fn2
 BYTE   W08
 BYTE   Fs2
 BYTE   W08
 BYTE   Gs2
 BYTE   W08
 BYTE   Fs2
 BYTE   W08
 BYTE   Gs2
 BYTE   W08
 BYTE   As2
 BYTE   W08
 BYTE   Gs2
 BYTE   W08
 BYTE   As2
 BYTE   W08
 BYTE   Cn3
 BYTE   W08
 BYTE   As2
 BYTE   W08
 BYTE   Cn3
 BYTE   W08
// 006   ----------------------------------------
 BYTE   As2
 BYTE   W08
 BYTE   Gs2
 BYTE   W08
 BYTE   As2
 BYTE   W08
 BYTE   Cn3
 BYTE   W08
 BYTE   As2
 BYTE   W08
 BYTE   Cn3
 BYTE   W08
 BYTE   Cs3
 BYTE   W08
 BYTE   Cn3
 BYTE   W08
 BYTE   As2
 BYTE   W08
 BYTE   Cn3
 BYTE   W08
 BYTE   As2
 BYTE   W08
 BYTE   Gs2
 BYTE   W08
// 007   ----------------------------------------
 BYTE   N96  Fn3  v100
 BYTE   W96
// 008   ----------------------------------------
 BYTE   N48  En3
 BYTE   W48
 BYTE   Dn3
 BYTE   W48
// 009   ----------------------------------------
 BYTE   TIE  Cn3
 BYTE   W96
// 010   ----------------------------------------
 BYTE   W96
// 011   ----------------------------------------
 BYTE   EOT
 BYTE   N96  Ds3
 BYTE   W96
// 012   ----------------------------------------
 BYTE   N48  Dn3
 BYTE   W48
 BYTE   Cn3
 BYTE   W48
// 013   ----------------------------------------
 BYTE   TIE  Bn2
 BYTE   W96
// 014   ----------------------------------------
 BYTE   W96
// 015   ----------------------------------------
 BYTE   EOT
Label_5_0168014A:
 BYTE   N48  As2  v100
 BYTE   W48
 BYTE   Ds3
 BYTE   W48
 BYTE   PEND 
 BYTE   PATT
  POIN2 Label_5_0168014A
// 016   ----------------------------------------
 BYTE   N48  Dn3  v100
 BYTE   W48
 BYTE   En3
 BYTE   W48
// 017   ----------------------------------------
 BYTE   Dn3
 BYTE   W48
 BYTE   Cs3
 BYTE   W48
// 018   ----------------------------------------
 BYTE   N96  Dn3
 BYTE   W96
// 019   ----------------------------------------
 BYTE   N08  As2  v092
 BYTE   W08
 BYTE   Cn3
 BYTE   W08
 BYTE   Dn3
 BYTE   W08
 BYTE   Ds3
 BYTE   W08
 BYTE   Dn3
 BYTE   W08
 BYTE   Cn3
 BYTE   W08
 BYTE   Ds3
 BYTE   W08
 BYTE   Dn3
 BYTE   W08
 BYTE   Ds3
 BYTE   W08
 BYTE   Gn3
 BYTE   W08
 BYTE   Fn3
 BYTE   W08
 BYTE   Ds3
 BYTE   W08
// 020   ----------------------------------------
 BYTE   GoTo
  POIN2 Label_5_01680083
// 021   ----------------------------------------
 BYTE   W96
// 022   ----------------------------------------
 BYTE   W96
// 023   ----------------------------------------
 BYTE   W96
// 024   ----------------------------------------
 BYTE   W96
// 025   ----------------------------------------
 BYTE   W96
// 026   ----------------------------------------
 BYTE   W96
// 027   ----------------------------------------
 BYTE   W96
// 028   ----------------------------------------
 BYTE   W96
// 029   ----------------------------------------
 BYTE   W96
// 030   ----------------------------------------
 BYTE   W96
// 031   ----------------------------------------
 BYTE   W96
// 032   ----------------------------------------
 BYTE   W96
// 033   ----------------------------------------
 BYTE   W96
// 034   ----------------------------------------
 BYTE   W96
// 035   ----------------------------------------
 BYTE   W96
// 036   ----------------------------------------
 BYTE   W96
// 037   ----------------------------------------
 BYTE   W96
// 038   ----------------------------------------
 BYTE   W96
// 039   ----------------------------------------
 BYTE   W96
// 040   ----------------------------------------
 BYTE   W96
// 041   ----------------------------------------
 BYTE   W96
// 042   ----------------------------------------
 BYTE   W96
// 043   ----------------------------------------
 BYTE   W96
// 044   ----------------------------------------
 BYTE   W96
// 045   ----------------------------------------
 BYTE   W96
// 046   ----------------------------------------
 BYTE   W96
// 047   ----------------------------------------
 BYTE   W96
// 048   ----------------------------------------
 BYTE   W96
// 049   ----------------------------------------
 BYTE   W96
// 050   ----------------------------------------
 BYTE   W96
// 051   ----------------------------------------
 BYTE   W96
// 052   ----------------------------------------
 BYTE   W96
 BYTE   FINE

//**************** Track 7 (Midi-Chn.6) ****************//

FF5SearchingTheLight7743_007:
// 000   ----------------------------------------
 BYTE   KEYSH   FF5SearchingTheLight7743_key+0
 BYTE   VOL   39*FF5SearchingTheLight7743_mvl/mxv
 BYTE   VOICE   48
 BYTE   W96
// 001   ----------------------------------------
Label_6_016801AB:
 BYTE   W96
// 002   ----------------------------------------
 BYTE   W96
// 003   ----------------------------------------
 BYTE   W96
// 004   ----------------------------------------
 BYTE   W96
// 005   ----------------------------------------
 BYTE   W96
// 006   ----------------------------------------
 BYTE   W96
// 007   ----------------------------------------
 BYTE   W96
// 008   ----------------------------------------
 BYTE   W96
// 009   ----------------------------------------
 BYTE   W96
// 010   ----------------------------------------
 BYTE   W96
// 011   ----------------------------------------
 BYTE   N96  Dn4  v100
 BYTE   W96
// 012   ----------------------------------------
 BYTE   N48  Cs4
 BYTE   W48
 BYTE   N24  Dn4
 BYTE   W24
 BYTE   En4
 BYTE   W24
// 013   ----------------------------------------
 BYTE   TIE  An3
 BYTE   W96
// 014   ----------------------------------------
 BYTE   W96
// 015   ----------------------------------------
 BYTE   EOT
 BYTE   N96  Ds4
 BYTE   W96
// 016   ----------------------------------------
 BYTE   N48  Dn4
 BYTE   W48
 BYTE   N24  Ds4
 BYTE   W24
 BYTE   Fn4
 BYTE   W24
// 017   ----------------------------------------
Label_6_016801D1:
 BYTE   N48  Dn5  v100
 BYTE   W48
 BYTE   N24  Cs5
 BYTE   W24
 BYTE   Bn4
 BYTE   W24
 BYTE   PEND 
// 018   ----------------------------------------
Label_6_016801DB:
 BYTE   N48  Fs4  v100
 BYTE   W48
 BYTE   Bn4
 BYTE   W48
 BYTE   PEND 
// 019   ----------------------------------------
 BYTE   TIE  As4
 BYTE   W96
// 020   ----------------------------------------
 BYTE   W96
// 021   ----------------------------------------
 BYTE   EOT
 BYTE   PATT
  POIN2 Label_6_016801D1
 BYTE   PATT
  POIN2 Label_6_016801DB
// 022   ----------------------------------------
 BYTE   TIE  As4  v100
 BYTE   W96
// 023   ----------------------------------------
 BYTE   W96
// 024   ----------------------------------------
 BYTE   EOT
 BYTE   GoTo
  POIN2 Label_6_016801AB
// 025   ----------------------------------------
 BYTE   W96
// 026   ----------------------------------------
 BYTE   W96
// 027   ----------------------------------------
 BYTE   W96
// 028   ----------------------------------------
 BYTE   W96
// 029   ----------------------------------------
 BYTE   W96
// 030   ----------------------------------------
 BYTE   W96
// 031   ----------------------------------------
 BYTE   W96
// 032   ----------------------------------------
 BYTE   W96
// 033   ----------------------------------------
 BYTE   W96
// 034   ----------------------------------------
 BYTE   W96
// 035   ----------------------------------------
 BYTE   W96
// 036   ----------------------------------------
 BYTE   W96
// 037   ----------------------------------------
 BYTE   W96
// 038   ----------------------------------------
 BYTE   W96
// 039   ----------------------------------------
 BYTE   W96
// 040   ----------------------------------------
 BYTE   W96
// 041   ----------------------------------------
 BYTE   W96
// 042   ----------------------------------------
 BYTE   W96
// 043   ----------------------------------------
 BYTE   W96
// 044   ----------------------------------------
 BYTE   W96
// 045   ----------------------------------------
 BYTE   W96
// 046   ----------------------------------------
 BYTE   W96
// 047   ----------------------------------------
 BYTE   W96
// 048   ----------------------------------------
 BYTE   W96
// 049   ----------------------------------------
 BYTE   W96
// 050   ----------------------------------------
 BYTE   W96
// 051   ----------------------------------------
 BYTE   W96
// 052   ----------------------------------------
 BYTE   W96
// 053   ----------------------------------------
 BYTE   W96
// 054   ----------------------------------------
 BYTE   W96
// 055   ----------------------------------------
 BYTE   W96
// 056   ----------------------------------------
 BYTE   W96
 BYTE   FINE

//**************** Track 8 (Midi-Chn.7) ****************//

FF5SearchingTheLight7743_008:
// 000   ----------------------------------------
 BYTE   KEYSH   FF5SearchingTheLight7743_key+0
 BYTE   VOL   52*FF5SearchingTheLight7743_mvl/mxv
 BYTE   VOICE   127
 BYTE   W48
 BYTE   N01  Cs2  v100
 BYTE   W48
// 001   ----------------------------------------
Label_7_0168022B:
 BYTE   N01  Dn1  v100
 BYTE   W24
 BYTE   N01
 BYTE   W08
 BYTE   N01
 BYTE   W08
 BYTE   N01
 BYTE   W08
 BYTE   N01
 BYTE   W24
 BYTE   Cs2
 BYTE   W24
 BYTE   PEND 
 BYTE   PATT
  POIN2 Label_7_0168022B
// 002   ----------------------------------------
Label_7_0168023F:
 BYTE   N01  Dn1  v100
 BYTE   W24
 BYTE   N01
 BYTE   W08
 BYTE   N01
 BYTE   W08
 BYTE   N01
 BYTE   W08
 BYTE   N01
 BYTE   W16
 BYTE   N01
 BYTE   W08
 BYTE   N01
 BYTE   W04
 BYTE   Dn1  v092
 BYTE   W04
 BYTE   Dn1  v080
 BYTE   W04
 BYTE   Dn1  v072
 BYTE   W04
 BYTE   Dn1  v060
 BYTE   W04
 BYTE   Dn1  v052
 BYTE   W04
 BYTE   PEND 
 BYTE   PATT
  POIN2 Label_7_0168022B
// 003   ----------------------------------------
Label_7_01680264:
 BYTE   N01  Dn1  v100
 BYTE   W24
 BYTE   N01
 BYTE   N01  Cs2
 BYTE   W08
 BYTE   Dn1
 BYTE   W08
 BYTE   N01
 BYTE   W08
 BYTE   N01
 BYTE   W16
 BYTE   N01
 BYTE   W08
 BYTE   N01
 BYTE   N01  Cs2
 BYTE   W04
 BYTE   Dn1  v092
 BYTE   W04
 BYTE   Dn1  v080
 BYTE   W04
 BYTE   Dn1  v072
 BYTE   W04
 BYTE   Dn1  v060
 BYTE   W04
 BYTE   Dn1  v052
 BYTE   W04
 BYTE   PEND 
 BYTE   PATT
  POIN2 Label_7_0168022B
 BYTE   PATT
  POIN2 Label_7_0168022B
 BYTE   PATT
  POIN2 Label_7_0168023F
 BYTE   PATT
  POIN2 Label_7_0168022B
 BYTE   PATT
  POIN2 Label_7_01680264
// 004   ----------------------------------------
Label_7_016802A1:
 BYTE   N01  Dn1  v100
 BYTE   W24
 BYTE   N01
 BYTE   W08
 BYTE   N01
 BYTE   W08
 BYTE   N01
 BYTE   W08
 BYTE   N01
 BYTE   W24
 BYTE   N01
 BYTE   W04
 BYTE   Dn1  v092
 BYTE   W04
 BYTE   Dn1  v080
 BYTE   W04
 BYTE   Dn1  v072
 BYTE   W04
 BYTE   Dn1  v060
 BYTE   W04
 BYTE   Dn1  v052
 BYTE   W04
 BYTE   PEND 
 BYTE   PATT
  POIN2 Label_7_0168022B
 BYTE   PATT
  POIN2 Label_7_016802A1
 BYTE   PATT
  POIN2 Label_7_0168022B
 BYTE   PATT
  POIN2 Label_7_016802A1
 BYTE   PATT
  POIN2 Label_7_0168022B
 BYTE   PATT
  POIN2 Label_7_016802A1
 BYTE   PATT
  POIN2 Label_7_0168022B
 BYTE   PATT
  POIN2 Label_7_016802A1
 BYTE   PATT
  POIN2 Label_7_0168022B
 BYTE   PATT
  POIN2 Label_7_016802A1
 BYTE   PATT
  POIN2 Label_7_0168022B
 BYTE   PATT
  POIN2 Label_7_016802A1
// 005   ----------------------------------------
 BYTE   N01  Dn1  v100
 BYTE   W24
 BYTE   N01
 BYTE   N01  Cs2
 BYTE   W08
 BYTE   Dn1
 BYTE   W08
 BYTE   N01
 BYTE   W08
 BYTE   N01
 BYTE   W08
 BYTE   N01
 BYTE   W08
 BYTE   N01
 BYTE   W08
 BYTE   N01
 BYTE   N01  Cs2
 BYTE   W08
 BYTE   Dn1
 BYTE   W08
 BYTE   N01
 BYTE   W08
// 006   ----------------------------------------
 BYTE   GoTo
  POIN2 Label_7_0168022B
// 007   ----------------------------------------
 BYTE   W96
// 008   ----------------------------------------
 BYTE   W96
// 009   ----------------------------------------
 BYTE   W96
// 010   ----------------------------------------
 BYTE   W96
// 011   ----------------------------------------
 BYTE   W96
// 012   ----------------------------------------
 BYTE   W96
// 013   ----------------------------------------
 BYTE   W96
// 014   ----------------------------------------
 BYTE   W96
// 015   ----------------------------------------
 BYTE   W96
// 016   ----------------------------------------
 BYTE   W96
// 017   ----------------------------------------
 BYTE   W96
// 018   ----------------------------------------
 BYTE   W96
// 019   ----------------------------------------
 BYTE   W96
// 020   ----------------------------------------
 BYTE   W96
// 021   ----------------------------------------
 BYTE   W96
// 022   ----------------------------------------
 BYTE   W96
// 023   ----------------------------------------
 BYTE   W96
// 024   ----------------------------------------
 BYTE   W96
// 025   ----------------------------------------
 BYTE   W96
// 026   ----------------------------------------
 BYTE   W96
// 027   ----------------------------------------
 BYTE   W96
// 028   ----------------------------------------
 BYTE   W96
// 029   ----------------------------------------
 BYTE   W96
// 030   ----------------------------------------
 BYTE   W96
// 031   ----------------------------------------
 BYTE   W96
// 032   ----------------------------------------
 BYTE   W96
// 033   ----------------------------------------
 BYTE   W96
// 034   ----------------------------------------
 BYTE   W96
// 035   ----------------------------------------
 BYTE   W96
// 036   ----------------------------------------
 BYTE   W96
// 037   ----------------------------------------
 BYTE   W96
// 038   ----------------------------------------
 BYTE   W96
 BYTE   FINE

//******************************************************//
	ALIGN 4

FF5SearchingTheLight7743:
	BYTE	8	// NumTrks
	BYTE	0	// NumBlks
	BYTE	FF5SearchingTheLight7743_pri	// Priority
	BYTE	FF5SearchingTheLight7743_rev	// Reverb.
    
	POIN2	FF5SearchingTheLight7743_grp
    
	POIN2	FF5SearchingTheLight7743_001
	POIN2	FF5SearchingTheLight7743_002
	POIN2	FF5SearchingTheLight7743_003
	POIN2	FF5SearchingTheLight7743_004
	POIN2	FF5SearchingTheLight7743_005
	POIN2	FF5SearchingTheLight7743_006
	POIN2	FF5SearchingTheLight7743_007
	POIN2	FF5SearchingTheLight7743_008

	
