//Event file generated from Sappy .s format.
	#include "MPlayDef.event"

	#define	FF8ModsdeChocoboRSflame_grp  voicegroup000
	#define	FF8ModsdeChocoboRSflame_pri  10
	#define	FF8ModsdeChocoboRSflame_rev  0
	#define	FF8ModsdeChocoboRSflame_mvl  127
	#define	FF8ModsdeChocoboRSflame_key  0
	#define	FF8ModsdeChocoboRSflame_tbs  1
	#define	FF8ModsdeChocoboRSflame_exg  0
	#define	FF8ModsdeChocoboRSflame_cmp  1

	// .rodata
	//	FF8ModsdeChocoboRSflame
	ALIGN 4


//**************** Track 1 (Midi-Chn.0) ****************//

FF8ModsdeChocoboRSflame_001:
// 000   ----------------------------------------
Label_0_01CE3B40:
 BYTE   KEYSH   FF8ModsdeChocoboRSflame_key+0
 BYTE   VOICE   18
 BYTE   VOL   112*FF8ModsdeChocoboRSflame_mvl/mxv
 BYTE   PAN   c_v-1
 BYTE   TEMPO   168*FF8ModsdeChocoboRSflame_tbs/2
 BYTE   W96
// 001   ----------------------------------------
 BYTE   W96
// 002   ----------------------------------------
 BYTE   W96
// 003   ----------------------------------------
 BYTE   W96
// 004   ----------------------------------------
 BYTE   W96
// 005   ----------------------------------------
 BYTE   W96
// 006   ----------------------------------------
 BYTE   W96
// 007   ----------------------------------------
 BYTE   W96
// 008   ----------------------------------------
 BYTE   W96
// 009   ----------------------------------------
 BYTE   W96
// 010   ----------------------------------------
 BYTE   W96
// 011   ----------------------------------------
 BYTE   W96
// 012   ----------------------------------------
 BYTE   VOL   112*FF8ModsdeChocoboRSflame_mvl/mxv
 BYTE   N24  Dn4  v127
 BYTE   W24
 BYTE   N16  Bn3
 BYTE   W16
 BYTE   N08  Gn3
 BYTE   W08
 BYTE   N16  En3
 BYTE   W16
 BYTE   N08  Dn4
 BYTE   W08
 BYTE   N16  Bn3
 BYTE   W16
 BYTE   N08  Gn3
 BYTE   W08
// 013   ----------------------------------------
 BYTE   N24  As3
 BYTE   W24
 BYTE   Gn3
 BYTE   W24
 BYTE   N40  As3
 BYTE   W40
 BYTE   N08  An3
 BYTE   W08
// 014   ----------------------------------------
 BYTE   N16  Gn3
 BYTE   W16
 BYTE   N08  Dn3
 BYTE   W08
 BYTE   N16  Fn3
 BYTE   W16
 BYTE   N96  Gn3
 BYTE   W48
 BYTE   N56
 BYTE   W96
// 015   ----------------------------------------
 BYTE   W96
// 016   ----------------------------------------
 BYTE   W96
// 017   ----------------------------------------
 BYTE   W96
// 018   ----------------------------------------
 BYTE   W96
// 019   ----------------------------------------
 BYTE   W08
 BYTE   N24  Dn4
 BYTE   W24
 BYTE   N16  Bn3
 BYTE   W16
 BYTE   N08  Gn3
 BYTE   W08
 BYTE   N16  En3
 BYTE   W16
 BYTE   N08  Dn4
 BYTE   W08
 BYTE   N16  Bn3
 BYTE   W16
// 020   ----------------------------------------
 BYTE   N08  Gn3
 BYTE   W08
 BYTE   N24  As3
 BYTE   W24
 BYTE   Gn3
 BYTE   W24
 BYTE   N40  As3
 BYTE   W40
// 021   ----------------------------------------
 BYTE   N08  An3
 BYTE   W08
 BYTE   N16  Gn3
 BYTE   W16
 BYTE   N08  Dn3
 BYTE   W08
 BYTE   N16  Fn3
 BYTE   W16
 BYTE   N96  Gn3
 BYTE   W48
// 022   ----------------------------------------
 BYTE   N56
 BYTE   W96
// 023   ----------------------------------------
 BYTE   W96
// 024   ----------------------------------------
 BYTE   W96
// 025   ----------------------------------------
 BYTE   W96
// 026   ----------------------------------------
 BYTE   W96
// 027   ----------------------------------------
 BYTE   W08
Label_0_01CE3BBF:
 BYTE   N24  En4  v127
 BYTE   W24
 BYTE   N16  Cn4
 BYTE   W16
 BYTE   N08  An3
 BYTE   W08
 BYTE   N16  Fs3
 BYTE   W16
 BYTE   N08  An3
 BYTE   W08
 BYTE   N16  Cn4
 BYTE   W16
// 028   ----------------------------------------
 BYTE   N08  En4
 BYTE   W08
 BYTE   PEND 
Label_0_01CE3BD6:
 BYTE   N16  Dn4  v127
 BYTE   W16
 BYTE   N08  Gn4
 BYTE   W24
 BYTE   N96  Dn4
 BYTE   W48
// 029   ----------------------------------------
 BYTE   N48
 BYTE   W96
 BYTE   PEND 
// 030   ----------------------------------------
 BYTE   N08  Bn3  v127
 BYTE   W08
 BYTE   N24  Cn4
 BYTE   W24
 BYTE   N16  An3
 BYTE   W16
 BYTE   N08  Fs3
 BYTE   W08
 BYTE   N16  Dn3
 BYTE   W16
 BYTE   N08  Fs3
 BYTE   W08
 BYTE   N16  An3
 BYTE   W16
// 031   ----------------------------------------
 BYTE   N08  Cn4
 BYTE   W08
 BYTE   N16  Bn3
 BYTE   W16
 BYTE   N08  Dn4
 BYTE   W24
 BYTE   N96  Bn3
 BYTE   W48
// 032   ----------------------------------------
 BYTE   N48
 BYTE   W96
// 033   ----------------------------------------
 BYTE   W08
// 034   ----------------------------------------
 BYTE   PATT
  POIN2 Label_0_01CE3BBF
// 035   ----------------------------------------
 BYTE   PATT
  POIN2 Label_0_01CE3BD6
// 036   ----------------------------------------
 BYTE   N08  Bn3  v127
 BYTE   W08
 BYTE   N16  An3
 BYTE   W16
 BYTE   N08  Gn3
 BYTE   W08
 BYTE   N16  An3
 BYTE   W16
 BYTE   N08  Bn3
 BYTE   W08
 BYTE   N16  Cn4
 BYTE   W16
 BYTE   N08  Bn3
 BYTE   W08
 BYTE   N16  An3
 BYTE   W16
// 037   ----------------------------------------
 BYTE   N08  Gn3
 BYTE   W08
 BYTE   N16  An3
 BYTE   W16
 BYTE   N08  Gn3
 BYTE   W24
 BYTE   N48  An3
 BYTE   W48
// 038   ----------------------------------------
 BYTE   N08  Gn3
 BYTE   W08
 BYTE   N16  An3
 BYTE   W16
 BYTE   N08  Gn3
 BYTE   W08
 BYTE   N16  An3
 BYTE   W16
 BYTE   N08  Bn3
 BYTE   W08
 BYTE   N16  Cn4
 BYTE   W16
 BYTE   N08  Bn3
 BYTE   W08
 BYTE   N16  An3
 BYTE   W16
// 039   ----------------------------------------
 BYTE   N08  Gn3
 BYTE   W08
 BYTE   N16  An3
 BYTE   W16
 BYTE   N08  Bn3
 BYTE   W08
 BYTE   N16  Cn4
 BYTE   W16
 BYTE   N08  Bn3
 BYTE   W08
 BYTE   N16  Cn4
 BYTE   W16
 BYTE   N08  Dn4
 BYTE   W08
 BYTE   N16  En4
 BYTE   W16
// 040   ----------------------------------------
 BYTE   N08  Fs4
 BYTE   W08
 BYTE   N96  Gn4
 BYTE   W48
 BYTE   Gn4
 BYTE   W96
// 041   ----------------------------------------
 BYTE   W48
 BYTE   W96
// 042   ----------------------------------------
 BYTE   W96
// 043   ----------------------------------------
 BYTE   W96
// 044   ----------------------------------------
 BYTE   W96
// 045   ----------------------------------------
 BYTE   W96
// 046   ----------------------------------------
 BYTE   W80
 BYTE   GoTo
  POIN2 Label_0_01CE3B40
 BYTE   FINE

//**************** Track 2 (Midi-Chn.1) ****************//

FF8ModsdeChocoboRSflame_002:
// 000   ----------------------------------------
Label_1_01CE1160:
 BYTE   KEYSH   FF8ModsdeChocoboRSflame_key+0
 BYTE   VOICE   28
 BYTE   VOL   122*FF8ModsdeChocoboRSflame_mvl/mxv
 BYTE   PAN   c_v-22
 BYTE   N16  Dn2  v127
 BYTE   TEMPO   168*FF8ModsdeChocoboRSflame_tbs/2
 BYTE   W24
 BYTE   N16  Gn2  v127
 BYTE   W24
 BYTE   Fn2
 BYTE   W24
 BYTE   Fn2
 BYTE   W24
// 001   ----------------------------------------
Label_1_01CE1176:
 BYTE   N16  Cn2  v127
 BYTE   W24
 BYTE   Gn2
 BYTE   W24
 BYTE   Cn2
 BYTE   W24
 BYTE   Cn2
 BYTE   W24
 BYTE   PEND 
// 002   ----------------------------------------
Label_1_01CE1181:
 BYTE   N16  Dn2  v127
 BYTE   W24
 BYTE   Gn2
 BYTE   W24
 BYTE   Fn2
 BYTE   W24
 BYTE   Fn2
 BYTE   W24
 BYTE   PEND 
// 003   ----------------------------------------
 BYTE   PATT
  POIN2 Label_1_01CE1176
// 004   ----------------------------------------
 BYTE   PATT
  POIN2 Label_1_01CE1181
// 005   ----------------------------------------
 BYTE   PATT
  POIN2 Label_1_01CE1176
// 006   ----------------------------------------
Label_1_01CE119B:
 BYTE   N16  Dn2  v127
 BYTE   W24
 BYTE   Dn2
 BYTE   W24
 BYTE   Fn2
 BYTE   W24
 BYTE   Fn2
 BYTE   W24
 BYTE   PEND 
// 007   ----------------------------------------
 BYTE   N16  Cn2  v127
 BYTE   W16
 BYTE   N08  Gn2
 BYTE   W24
 BYTE   N56  Cn2
 BYTE   W56
// 008   ----------------------------------------
Label_1_01CE11B0:
 BYTE   N16  Dn2  v127
 BYTE   W24
 BYTE   Dn2
 BYTE   W24
 BYTE   Cn2
 BYTE   W24
 BYTE   Cn2
 BYTE   W24
 BYTE   PEND 
// 009   ----------------------------------------
 BYTE   PATT
  POIN2 Label_1_01CE11B0
// 010   ----------------------------------------
 BYTE   N16  Dn2  v127
 BYTE   W24
 BYTE   Dn2
 BYTE   W24
 BYTE   Cn2
 BYTE   W24
 BYTE   Fn2
 BYTE   W24
// 011   ----------------------------------------
Label_1_01CE11CA:
 BYTE   N16  Dn2  v127
 BYTE   W24
 BYTE   Gn2
 BYTE   W24
 BYTE   Cn2
 BYTE   W24
 BYTE   Cn2
 BYTE   W24
 BYTE   PEND 
// 012   ----------------------------------------
 BYTE   PATT
  POIN2 Label_1_01CE1181
// 013   ----------------------------------------
Label_1_01CE11DA:
 BYTE   N16  Fn2  v127
 BYTE   W24
 BYTE   As1
 BYTE   W24
 BYTE   Gn2
 BYTE   W24
 BYTE   Gn2
 BYTE   W24
 BYTE   PEND 
// 014   ----------------------------------------
 BYTE   PATT
  POIN2 Label_1_01CE11CA
// 015   ----------------------------------------
 BYTE   PATT
  POIN2 Label_1_01CE11CA
// 016   ----------------------------------------
 BYTE   PATT
  POIN2 Label_1_01CE1181
// 017   ----------------------------------------
 BYTE   PATT
  POIN2 Label_1_01CE1176
// 018   ----------------------------------------
 BYTE   PATT
  POIN2 Label_1_01CE1181
// 019   ----------------------------------------
 BYTE   PATT
  POIN2 Label_1_01CE1176
// 020   ----------------------------------------
 BYTE   PATT
  POIN2 Label_1_01CE1181
// 021   ----------------------------------------
 BYTE   PATT
  POIN2 Label_1_01CE11DA
// 022   ----------------------------------------
 BYTE   PATT
  POIN2 Label_1_01CE11CA
// 023   ----------------------------------------
 BYTE   PATT
  POIN2 Label_1_01CE11CA
// 024   ----------------------------------------
 BYTE   PATT
  POIN2 Label_1_01CE1181
// 025   ----------------------------------------
 BYTE   PATT
  POIN2 Label_1_01CE1176
// 026   ----------------------------------------
 BYTE   PATT
  POIN2 Label_1_01CE1181
// 027   ----------------------------------------
 BYTE   PATT
  POIN2 Label_1_01CE1176
// 028   ----------------------------------------
 BYTE   N16  Cn2  v127
 BYTE   W24
 BYTE   Gn2
 BYTE   W24
 BYTE   Dn2
 BYTE   W24
 BYTE   An2
 BYTE   W24
// 029   ----------------------------------------
 BYTE   PATT
  POIN2 Label_1_01CE119B
// 030   ----------------------------------------
 BYTE   N16  Gn2  v127
 BYTE   W24
 BYTE   Dn2
 BYTE   W24
 BYTE   Fn2
 BYTE   W24
 BYTE   Fn2
 BYTE   W24
// 031   ----------------------------------------
 BYTE   Gn2
 BYTE   W24
 BYTE   Gn2
 BYTE   W24
 BYTE   Dn2
 BYTE   W24
 BYTE   An2
 BYTE   W24
// 032   ----------------------------------------
 BYTE   Dn2
 BYTE   W24
 BYTE   Dn2
 BYTE   W24
 BYTE   Fn2
 BYTE   W24
 BYTE   Cn2
 BYTE   W24
// 033   ----------------------------------------
 BYTE   Dn2
 BYTE   W24
 BYTE   Gn2
 BYTE   W24
 BYTE   Dn2
 BYTE   W24
 BYTE   Fn2
 BYTE   W24
// 034   ----------------------------------------
 BYTE   Cn2
 BYTE   W24
 BYTE   Cn2
 BYTE   W24
 BYTE   Dn2
 BYTE   W24
 BYTE   An2
 BYTE   W24
// 035   ----------------------------------------
 BYTE   Gn2
 BYTE   W40
 BYTE   Fn2
 BYTE   W32
 BYTE   N96
 BYTE   W48
// 036   ----------------------------------------
 BYTE   N24
 BYTE   W96
// 037   ----------------------------------------
Label_1_01CE126C:
 BYTE   N16  Dn2  v127
 BYTE   W48
 BYTE   Cn2
 BYTE   W48
 BYTE   PEND 
// 038   ----------------------------------------
 BYTE   PATT
  POIN2 Label_1_01CE126C
// 039   ----------------------------------------
 BYTE   N16  An2  v127
 BYTE   W48
 BYTE   Cn2
 BYTE   W48
// 040   ----------------------------------------
 BYTE   Dn2
 BYTE   W48
 BYTE   Cn2
 BYTE   W24
 BYTE   Dn2
 BYTE   W24
// 041   ----------------------------------------
Label_1_01CE1284:
 BYTE   N16  Gn2  v127
 BYTE   W24
 BYTE   Fn2
 BYTE   W24
 BYTE   Fn2
 BYTE   W24
 BYTE   Cn2
 BYTE   W24
 BYTE   PEND 
// 042   ----------------------------------------
 BYTE   N16  Gn2  v127
 BYTE   W24
 BYTE   Cn2
 BYTE   W24
 BYTE   Cn2
 BYTE   W24
 BYTE   Dn2
 BYTE   W24
// 043   ----------------------------------------
 BYTE   PATT
  POIN2 Label_1_01CE1284
// 044   ----------------------------------------
Label_1_01CE129E:
 BYTE   N16  Gn2  v127
 BYTE   W24
 BYTE   Cn2
 BYTE   W24
 BYTE   Cn2
 BYTE   W24
 BYTE   Dn2
 BYTE   W24
 BYTE   PEND 
// 045   ----------------------------------------
 BYTE   PATT
  POIN2 Label_1_01CE1284
// 046   ----------------------------------------
 BYTE   PATT
  POIN2 Label_1_01CE129E
// 047   ----------------------------------------
 BYTE   N16  Dn2  v127
 BYTE   W24
 BYTE   Fn2
 BYTE   W24
 BYTE   Fn2
 BYTE   W24
 BYTE   Cn2
 BYTE   W16
 BYTE   N08  Gn2
 BYTE   W24
// 048   ----------------------------------------
 BYTE   N56  Cn2
 BYTE   W40
 BYTE   GoTo
  POIN2 Label_1_01CE1160
 BYTE   FINE

//**************** Track 3 (Midi-Chn.2) ****************//

FF8ModsdeChocoboRSflame_003:
// 000   ----------------------------------------
Label_2_01CE1330:
 BYTE   KEYSH   FF8ModsdeChocoboRSflame_key+0
 BYTE   VOICE   28
 BYTE   VOL   122*FF8ModsdeChocoboRSflame_mvl/mxv
 BYTE   PAN   c_v-35
 BYTE   N16  Gn2  v127
 BYTE   TEMPO   168*FF8ModsdeChocoboRSflame_tbs/2
 BYTE   W24
 BYTE   N16  Dn2  v127
 BYTE   W24
 BYTE   Cn2
 BYTE   W24
 BYTE   Cn2
 BYTE   W24
// 001   ----------------------------------------
Label_2_01CE1346:
 BYTE   N16  Gn2  v127
 BYTE   W24
 BYTE   Cn2
 BYTE   W24
 BYTE   Fn2
 BYTE   W24
 BYTE   Fn2
 BYTE   W24
 BYTE   PEND 
// 002   ----------------------------------------
Label_2_01CE1351:
 BYTE   N16  Gn2  v127
 BYTE   W24
 BYTE   Dn2
 BYTE   W24
 BYTE   Cn2
 BYTE   W24
 BYTE   Cn2
 BYTE   W24
 BYTE   PEND 
// 003   ----------------------------------------
 BYTE   PATT
  POIN2 Label_2_01CE1346
// 004   ----------------------------------------
 BYTE   PATT
  POIN2 Label_2_01CE1351
// 005   ----------------------------------------
 BYTE   PATT
  POIN2 Label_2_01CE1346
// 006   ----------------------------------------
Label_2_01CE136B:
 BYTE   N16  Gn2  v127
 BYTE   W24
 BYTE   Gn2
 BYTE   W24
 BYTE   Cn2
 BYTE   W24
 BYTE   Cn2
 BYTE   W24
 BYTE   PEND 
// 007   ----------------------------------------
 BYTE   N16  Gn2  v127
 BYTE   W16
 BYTE   N08  Cn2
 BYTE   W24
 BYTE   N56  Fn2
 BYTE   W56
// 008   ----------------------------------------
Label_2_01CE1380:
 BYTE   N16  Gn2  v127
 BYTE   W24
 BYTE   Gn2
 BYTE   W24
 BYTE   Fn2
 BYTE   W24
 BYTE   Fn2
 BYTE   W24
 BYTE   PEND 
// 009   ----------------------------------------
 BYTE   PATT
  POIN2 Label_2_01CE1380
// 010   ----------------------------------------
 BYTE   N16  Gn2  v127
 BYTE   W24
 BYTE   Gn2
 BYTE   W24
 BYTE   Fn2
 BYTE   W24
 BYTE   Cn2
 BYTE   W24
// 011   ----------------------------------------
Label_2_01CE139A:
 BYTE   N16  Gn2  v127
 BYTE   W24
 BYTE   Dn2
 BYTE   W24
 BYTE   Fn2
 BYTE   W24
 BYTE   Fn2
 BYTE   W24
 BYTE   PEND 
// 012   ----------------------------------------
 BYTE   PATT
  POIN2 Label_2_01CE1351
// 013   ----------------------------------------
Label_2_01CE13AA:
 BYTE   N16  As1  v127
 BYTE   W24
 BYTE   Fn2
 BYTE   W24
 BYTE   Cn2
 BYTE   W24
 BYTE   Cn2
 BYTE   W24
 BYTE   PEND 
// 014   ----------------------------------------
 BYTE   PATT
  POIN2 Label_2_01CE139A
// 015   ----------------------------------------
 BYTE   PATT
  POIN2 Label_2_01CE139A
// 016   ----------------------------------------
 BYTE   PATT
  POIN2 Label_2_01CE1351
// 017   ----------------------------------------
 BYTE   PATT
  POIN2 Label_2_01CE1346
// 018   ----------------------------------------
 BYTE   PATT
  POIN2 Label_2_01CE1351
// 019   ----------------------------------------
 BYTE   PATT
  POIN2 Label_2_01CE1346
// 020   ----------------------------------------
 BYTE   PATT
  POIN2 Label_2_01CE1351
// 021   ----------------------------------------
 BYTE   PATT
  POIN2 Label_2_01CE13AA
// 022   ----------------------------------------
 BYTE   PATT
  POIN2 Label_2_01CE139A
// 023   ----------------------------------------
 BYTE   PATT
  POIN2 Label_2_01CE139A
// 024   ----------------------------------------
 BYTE   PATT
  POIN2 Label_2_01CE1351
// 025   ----------------------------------------
 BYTE   PATT
  POIN2 Label_2_01CE1346
// 026   ----------------------------------------
 BYTE   PATT
  POIN2 Label_2_01CE1351
// 027   ----------------------------------------
 BYTE   PATT
  POIN2 Label_2_01CE1346
// 028   ----------------------------------------
 BYTE   N16  Gn2  v127
 BYTE   W24
 BYTE   Cn2
 BYTE   W24
 BYTE   An2
 BYTE   W24
 BYTE   Dn2
 BYTE   W24
// 029   ----------------------------------------
 BYTE   PATT
  POIN2 Label_2_01CE136B
// 030   ----------------------------------------
 BYTE   N16  Dn2  v127
 BYTE   W24
 BYTE   Gn2
 BYTE   W24
 BYTE   Cn2
 BYTE   W24
 BYTE   Cn2
 BYTE   W24
// 031   ----------------------------------------
 BYTE   Cn2
 BYTE   W24
 BYTE   Cn2
 BYTE   W24
 BYTE   An2
 BYTE   W24
 BYTE   Dn2
 BYTE   W24
// 032   ----------------------------------------
 BYTE   Gn2
 BYTE   W24
 BYTE   Gn2
 BYTE   W24
 BYTE   Cn2
 BYTE   W24
 BYTE   Fn2
 BYTE   W24
// 033   ----------------------------------------
 BYTE   Gn2
 BYTE   W24
 BYTE   Dn2
 BYTE   W24
 BYTE   Fn2
 BYTE   W24
 BYTE   Dn2
 BYTE   W24
// 034   ----------------------------------------
 BYTE   Gn2
 BYTE   W24
 BYTE   Gn2
 BYTE   W24
 BYTE   An2
 BYTE   W24
 BYTE   Dn2
 BYTE   W24
// 035   ----------------------------------------
 BYTE   Dn2
 BYTE   W40
 BYTE   Cn2
 BYTE   W32
 BYTE   N96  As1
 BYTE   W48
// 036   ----------------------------------------
 BYTE   N24
 BYTE   W96
// 037   ----------------------------------------
Label_2_01CE143D:
 BYTE   N16  An2  v127
 BYTE   W48
 BYTE   Gn2
 BYTE   W48
 BYTE   PEND 
// 038   ----------------------------------------
 BYTE   PATT
  POIN2 Label_2_01CE143D
// 039   ----------------------------------------
 BYTE   N16  Dn2  v127
 BYTE   W48
 BYTE   Gn2
 BYTE   W48
// 040   ----------------------------------------
 BYTE   An2
 BYTE   W48
 BYTE   Gn2
 BYTE   W24
 BYTE   Gn2
 BYTE   W24
// 041   ----------------------------------------
Label_2_01CE1455:
 BYTE   N16  Dn2  v127
 BYTE   W24
 BYTE   Cn2
 BYTE   W24
 BYTE   Cn2
 BYTE   W24
 BYTE   Gn2
 BYTE   W24
 BYTE   PEND 
// 042   ----------------------------------------
 BYTE   N16  Cn2  v127
 BYTE   W24
 BYTE   Fn2
 BYTE   W24
 BYTE   Fn2
 BYTE   W24
 BYTE   Gn2
 BYTE   W24
// 043   ----------------------------------------
 BYTE   PATT
  POIN2 Label_2_01CE1455
// 044   ----------------------------------------
Label_2_01CE146F:
 BYTE   N16  Cn2  v127
 BYTE   W24
 BYTE   Fn2
 BYTE   W24
 BYTE   Fn2
 BYTE   W24
 BYTE   Gn2
 BYTE   W24
 BYTE   PEND 
// 045   ----------------------------------------
 BYTE   PATT
  POIN2 Label_2_01CE1455
// 046   ----------------------------------------
 BYTE   PATT
  POIN2 Label_2_01CE146F
// 047   ----------------------------------------
 BYTE   N16  Gn2  v127
 BYTE   W24
 BYTE   Cn2
 BYTE   W24
 BYTE   Cn2
 BYTE   W24
 BYTE   Gn2
 BYTE   W16
 BYTE   N08  Cn2
 BYTE   W24
// 048   ----------------------------------------
 BYTE   N56  Fn2
 BYTE   W40
 BYTE   GoTo
  POIN2 Label_2_01CE1330
 BYTE   FINE

//**************** Track 4 (Midi-Chn.3) ****************//

FF8ModsdeChocoboRSflame_004:
// 000   ----------------------------------------
Label_3_01D06850:
 BYTE   KEYSH   FF8ModsdeChocoboRSflame_key+0
 BYTE   VOICE   33
 BYTE   VOL   122*FF8ModsdeChocoboRSflame_mvl/mxv
 BYTE   PAN   c_v-26
 BYTE   TEMPO   168*FF8ModsdeChocoboRSflame_tbs/2
 BYTE   W96
// 001   ----------------------------------------
 BYTE   W96
// 002   ----------------------------------------
 BYTE   W96
// 003   ----------------------------------------
 BYTE   W64
 BYTE   N08  Dn1  v127
 BYTE   W08
 BYTE   N16  Fn1
 BYTE   W16
 BYTE   N08  Fs1
 BYTE   W08
// 004   ----------------------------------------
 BYTE   N16  Gn1
 BYTE   W24
 BYTE   Gn1
 BYTE   W24
 BYTE   Fn1
 BYTE   W24
 BYTE   Fn1
 BYTE   W24
// 005   ----------------------------------------
 BYTE   Cn1
 BYTE   W24
 BYTE   Cn1
 BYTE   W24
 BYTE   Fn1
 BYTE   W16
 BYTE   N08  Dn1
 BYTE   W08
 BYTE   N16  Fn1
 BYTE   W16
 BYTE   N08  Fs1
 BYTE   W08
// 006   ----------------------------------------
 BYTE   N16  Gn1
 BYTE   W24
 BYTE   Gn1
 BYTE   W24
 BYTE   Fn1
 BYTE   W24
 BYTE   Fn1
 BYTE   W24
// 007   ----------------------------------------
 BYTE   Cn1
 BYTE   W16
 BYTE   N08  Ds1
 BYTE   W24
 BYTE   N24  Fn1
 BYTE   W24
 BYTE   N08  Dn1
 BYTE   W08
 BYTE   N16  Fn1
 BYTE   W16
 BYTE   N08  An1
 BYTE   W32
// 008   ----------------------------------------
 BYTE   N16  Gn1
 BYTE   W48
 BYTE   Gn1
 BYTE   W48
// 009   ----------------------------------------
 BYTE   Gn1
 BYTE   W40
 BYTE   N08  Dn1
 BYTE   W08
 BYTE   N16  Fn1
 BYTE   W16
 BYTE   N08  Fs1
 BYTE   W32
// 010   ----------------------------------------
 BYTE   N16  Gn1
 BYTE   W48
 BYTE   Gn1
 BYTE   W48
// 011   ----------------------------------------
 BYTE   Gn1
 BYTE   W48
 BYTE   Gn1
 BYTE   W24
 BYTE   VOL   122*FF8ModsdeChocoboRSflame_mvl/mxv
 BYTE   N16  Gn1  v127
 BYTE   W24
// 012   ----------------------------------------
 BYTE   Gn1
 BYTE   W24
 BYTE   Fn1
 BYTE   W24
 BYTE   Fn1
 BYTE   W24
 BYTE   As1
 BYTE   W24
// 013   ----------------------------------------
 BYTE   As1
 BYTE   W24
 BYTE   Cn2
 BYTE   W24
 BYTE   Cn2
 BYTE   W24
 BYTE   Gn1
 BYTE   W24
// 014   ----------------------------------------
 BYTE   Gn1
 BYTE   W24
 BYTE   Fn1
 BYTE   W24
 BYTE   Fn1
 BYTE   W24
 BYTE   Gn1
 BYTE   W24
// 015   ----------------------------------------
 BYTE   Gn1
 BYTE   W24
 BYTE   Fn1
 BYTE   W24
 BYTE   Fn1
 BYTE   W24
 BYTE   Gn1
 BYTE   W24
// 016   ----------------------------------------
 BYTE   Gn1
 BYTE   W24
 BYTE   Fn1
 BYTE   W24
 BYTE   Fn1
 BYTE   W24
 BYTE   Cn1
 BYTE   W24
// 017   ----------------------------------------
 BYTE   Cn1
 BYTE   W24
 BYTE   Fn1
 BYTE   W16
 BYTE   N08  Dn1
 BYTE   W08
 BYTE   N16  Fn1
 BYTE   W16
 BYTE   N08  Fs1
 BYTE   W08
 BYTE   N16  Gn1
 BYTE   W24
// 018   ----------------------------------------
 BYTE   Gn1
 BYTE   W24
 BYTE   Fn1
 BYTE   W24
 BYTE   Fn1
 BYTE   W24
 BYTE   Cn1
 BYTE   W16
 BYTE   N08  Ds1
 BYTE   W24
// 019   ----------------------------------------
 BYTE   N24  Fn1
 BYTE   W24
 BYTE   N08  Dn1
 BYTE   W08
 BYTE   N16  Fn1
 BYTE   W16
 BYTE   N08  An1
 BYTE   W08
 BYTE   N16  Gn1
 BYTE   W24
 BYTE   Gn1
 BYTE   W24
// 020   ----------------------------------------
 BYTE   Fn1
 BYTE   W24
 BYTE   Fn1
 BYTE   W24
 BYTE   As1
 BYTE   W24
 BYTE   As1
 BYTE   W24
// 021   ----------------------------------------
 BYTE   Cn2
 BYTE   W24
 BYTE   Cn2
 BYTE   W24
 BYTE   Gn1
 BYTE   W24
 BYTE   Gn1
 BYTE   W24
// 022   ----------------------------------------
 BYTE   Fn1
 BYTE   W24
 BYTE   Fn1
 BYTE   W24
 BYTE   Gn1
 BYTE   W24
 BYTE   Gn1
 BYTE   W24
// 023   ----------------------------------------
 BYTE   Fn1
 BYTE   W24
 BYTE   Fn1
 BYTE   W24
 BYTE   Gn1
 BYTE   W24
 BYTE   Gn1
 BYTE   W24
// 024   ----------------------------------------
 BYTE   Fn1
 BYTE   W24
 BYTE   Fn1
 BYTE   W24
 BYTE   Cn1
 BYTE   W24
 BYTE   Cn1
 BYTE   W24
// 025   ----------------------------------------
 BYTE   Fn1
 BYTE   W16
 BYTE   N08  Dn1
 BYTE   W08
 BYTE   N16  Fn1
 BYTE   W16
 BYTE   N08  Fs1
 BYTE   W08
 BYTE   N16  Gn1
 BYTE   W24
 BYTE   Gn1
 BYTE   W24
// 026   ----------------------------------------
 BYTE   Fn1
 BYTE   W24
 BYTE   Fn1
 BYTE   W24
 BYTE   Cn1
 BYTE   W16
 BYTE   N08  Ds1
 BYTE   W24
 BYTE   N24  Fn1
 BYTE   W24
// 027   ----------------------------------------
 BYTE   N08  Dn1
 BYTE   W08
 BYTE   N16  Fn1
 BYTE   W16
 BYTE   N08  An1
 BYTE   W08
Label_3_01D0695A:
 BYTE   N16  Cn2  v127
 BYTE   W24
 BYTE   Cn2
 BYTE   W24
 BYTE   An1
 BYTE   W24
// 028   ----------------------------------------
 BYTE   Dn2
 BYTE   W24
 BYTE   PEND 
 BYTE   N16  Bn1  v127
 BYTE   W24
 BYTE   Bn1
 BYTE   W24
 BYTE   An1
 BYTE   W16
 BYTE   N08  Bn1
 BYTE   W08
// 029   ----------------------------------------
 BYTE   N24  An1
 BYTE   W24
 BYTE   N16  Gn1
 BYTE   W24
 BYTE   Gn1
 BYTE   W24
 BYTE   Fn1
 BYTE   W16
 BYTE   N08  Gn1
 BYTE   W08
// 030   ----------------------------------------
 BYTE   N24  Fn1
 BYTE   W24
// 031   ----------------------------------------
 BYTE   PATT
  POIN2 Label_3_01D0695A
// 032   ----------------------------------------
 BYTE   N16  Gn1  v127
 BYTE   W24
 BYTE   Gn1
 BYTE   W24
 BYTE   An1
 BYTE   W24
 BYTE   An1
 BYTE   W24
// 033   ----------------------------------------
 BYTE   As1
 BYTE   W24
 BYTE   As1
 BYTE   W24
 BYTE   Bn1
 BYTE   W24
 BYTE   Bn1
 BYTE   W24
// 034   ----------------------------------------
 BYTE   Cn2
 BYTE   W24
 BYTE   Cn2
 BYTE   W24
 BYTE   Dn2
 BYTE   W24
 BYTE   An1
 BYTE   W24
// 035   ----------------------------------------
 BYTE   Gn1
 BYTE   W40
 BYTE   Fn1
 BYTE   W32
 BYTE   N96  As1
 BYTE   W48
// 036   ----------------------------------------
 BYTE   N24
 BYTE   W96
// 037   ----------------------------------------
Label_3_01D069A8:
 BYTE   N16  Dn1  v127
 BYTE   W48
 BYTE   Cn1
 BYTE   W48
 BYTE   PEND 
// 038   ----------------------------------------
 BYTE   PATT
  POIN2 Label_3_01D069A8
// 039   ----------------------------------------
 BYTE   PATT
  POIN2 Label_3_01D069A8
// 040   ----------------------------------------
 BYTE   N24  Dn1  v127
 BYTE   W24
 BYTE   Fn1
 BYTE   W24
 BYTE   An1
 BYTE   W24
 BYTE   N16  Gn1
 BYTE   W24
// 041   ----------------------------------------
 BYTE   Gn1
 BYTE   W24
 BYTE   Fn1
 BYTE   W24
 BYTE   Fn1
 BYTE   W24
 BYTE   Cn1
 BYTE   W24
// 042   ----------------------------------------
 BYTE   Cn1
 BYTE   W24
 BYTE   Fn1
 BYTE   W16
 BYTE   N08  Dn1
 BYTE   W08
 BYTE   N16  Fn1
 BYTE   W16
 BYTE   N08  Fs1
 BYTE   W08
 BYTE   N16  Gn1
 BYTE   W24
// 043   ----------------------------------------
 BYTE   N16  Gn1  v127
 BYTE   W24
 BYTE   Fn1
 BYTE   W24
 BYTE   Fn1
 BYTE   W24
 BYTE   Cn1
 BYTE   W16
 BYTE   N08  Ds1
 BYTE   W24
// 044   ----------------------------------------
 BYTE   N24  Fn1
 BYTE   W24
 BYTE   N08  Dn1
 BYTE   W08
 BYTE   N16  Fn1
 BYTE   W16
 BYTE   N08  An1
 BYTE   W08
 BYTE   N16  Gn1
 BYTE   W24
 BYTE   Gn1
 BYTE   W24
// 045   ----------------------------------------
 BYTE   Fn1
 BYTE   W24
 BYTE   Fn1
 BYTE   W24
 BYTE   Cn1
 BYTE   W24
 BYTE   Cn1
 BYTE   W24
// 046   ----------------------------------------
 BYTE   Fn1
 BYTE   W16
 BYTE   N08  Dn1
 BYTE   W08
 BYTE   N16  Fn1
 BYTE   W16
 BYTE   N08  Fs1
 BYTE   W08
 BYTE   N16  Gn1
 BYTE   W24
 BYTE   Gn1
 BYTE   W24
// 047   ----------------------------------------
 BYTE   Fn1
 BYTE   W24
 BYTE   Fn1
 BYTE   W24
 BYTE   Cn1
 BYTE   W16
 BYTE   N08  Ds1
 BYTE   W24
 BYTE   N24  Fn1
 BYTE   W24
// 048   ----------------------------------------
 BYTE   N08  Dn1
 BYTE   W08
 BYTE   N16  Fn1
 BYTE   W08
 BYTE   GoTo
  POIN2 Label_3_01D06850
 BYTE   FINE

//**************** Track 5 (Midi-Chn.4) ****************//

FF8ModsdeChocoboRSflame_005:
// 000   ----------------------------------------
Label_4_01D06E94:
 BYTE   KEYSH   FF8ModsdeChocoboRSflame_key+0
 BYTE   VOICE   127
 BYTE   VOL   75*FF8ModsdeChocoboRSflame_mvl/mxv
 BYTE   N08  Fs2  v127
 BYTE   TEMPO   168*FF8ModsdeChocoboRSflame_tbs/2
 BYTE   W08
 BYTE   N08  Fs2  v127
 BYTE   W08
 BYTE   Fs2
 BYTE   W08
 BYTE   Fs2
 BYTE   W08
 BYTE   Fs2
 BYTE   W08
 BYTE   Fs2
 BYTE   W08
 BYTE   Fs2
 BYTE   W08
 BYTE   Fs2
 BYTE   W08
 BYTE   Fs2
 BYTE   W08
 BYTE   Fs2
 BYTE   W08
 BYTE   Fs2
 BYTE   W08
 BYTE   Fs2
 BYTE   W08
// 001   ----------------------------------------
Label_4_01D06EB8:
 BYTE   N08  Fs2  v127
 BYTE   W08
 BYTE   Fs2
 BYTE   W08
 BYTE   Fs2
 BYTE   W08
 BYTE   Fs2
 BYTE   W08
 BYTE   Fs2
 BYTE   W08
 BYTE   Fs2
 BYTE   W08
 BYTE   Fs2
 BYTE   W08
 BYTE   Fs2
 BYTE   W08
 BYTE   Fs2
 BYTE   W08
 BYTE   Fs2
 BYTE   W08
 BYTE   Fs2
 BYTE   W08
 BYTE   Fs2
 BYTE   W08
 BYTE   PEND 
// 002   ----------------------------------------
 BYTE   PATT
  POIN2 Label_4_01D06EB8
// 003   ----------------------------------------
 BYTE   N08  Fs2  v127
 BYTE   W08
 BYTE   Fs2
 BYTE   W08
 BYTE   Fs2
 BYTE   W08
 BYTE   Fs2
 BYTE   W08
 BYTE   Fs2
 BYTE   W08
 BYTE   Fs2
 BYTE   W08
 BYTE   Fs2
 BYTE   W08
 BYTE   Fs2
 BYTE   W08
 BYTE   Fs2
 BYTE   N24  Cn1
 BYTE   W08
 BYTE   N08  Fs2
 BYTE   N48  En1
 BYTE   W08
 BYTE   N08  Fs2
 BYTE   W08
 BYTE   Fs2
 BYTE   N08  Cn1
 BYTE   W08
// 004   ----------------------------------------
 BYTE   Fs2
 BYTE   N96  Cn1
 BYTE   W08
 BYTE   N08  Fs2
 BYTE   W08
 BYTE   Fs2
 BYTE   W08
 BYTE   Fs2
 BYTE   N48  En1
 BYTE   W08
 BYTE   N08  Fs2
 BYTE   W08
 BYTE   Fs2
 BYTE   W08
 BYTE   Fs2
 BYTE   W08
 BYTE   Fs2
 BYTE   W08
 BYTE   Fs2
 BYTE   W08
 BYTE   Fs2
 BYTE   N48  En1
 BYTE   W08
 BYTE   N08  Fs2
 BYTE   W08
 BYTE   Fs2
 BYTE   W08
// 005   ----------------------------------------
 BYTE   Fs2
 BYTE   W08
 BYTE   Fs2
 BYTE   W08
 BYTE   Fs2
 BYTE   W08
 BYTE   Fs2
 BYTE   N48  En1
 BYTE   W08
 BYTE   N08  Fs2
 BYTE   W08
 BYTE   Fs2
 BYTE   W08
 BYTE   Fs2
 BYTE   W08
 BYTE   Fs2
 BYTE   W08
 BYTE   Fs2
 BYTE   W08
 BYTE   Fs2
 BYTE   N48  En1
 BYTE   W08
 BYTE   N08  Fs2
 BYTE   W08
 BYTE   Fs2
 BYTE   W08
// 006   ----------------------------------------
 BYTE   Fs2
 BYTE   W08
 BYTE   Fs2
 BYTE   W08
 BYTE   Fs2
 BYTE   W08
 BYTE   Fs2
 BYTE   N48  En1
 BYTE   W08
 BYTE   N08  Fs2
 BYTE   W08
 BYTE   Fs2
 BYTE   W08
 BYTE   Fs2
 BYTE   W08
 BYTE   Fs2
 BYTE   W08
 BYTE   Fs2
 BYTE   W08
 BYTE   Fs2
 BYTE   N40  En1
 BYTE   W08
 BYTE   N08  Fs2
 BYTE   W08
 BYTE   Fs2
 BYTE   W08
// 007   ----------------------------------------
 BYTE   Fs2
 BYTE   N64  Cn1
 BYTE   W08
 BYTE   N08  Fs2
 BYTE   W08
 BYTE   Fs2
 BYTE   N24  En1
 BYTE   W08
 BYTE   N08  Fs2
 BYTE   W08
 BYTE   Fs2
 BYTE   W08
 BYTE   Fs2
 BYTE   N24  En1
 BYTE   N96  Cs2
 BYTE   W08
 BYTE   N08  Fs2
 BYTE   W08
 BYTE   Fs2
 BYTE   W08
 BYTE   Fs2
 BYTE   N24  Cn1
 BYTE   W08
 BYTE   N08  En1
 BYTE   N08  Fs2
 BYTE   W08
 BYTE   Fs2
 BYTE   N08  En1
 BYTE   W08
 BYTE   Fs2
 BYTE   N32  Cn1
 BYTE   N56  Cs2
 BYTE   N96  En1
 BYTE   W32
// 008   ----------------------------------------
 BYTE   N24  Fs2
 BYTE   N48  Cn1
 BYTE   W16
 BYTE   N08  En1
 BYTE   W32
 BYTE   N24  Fs2
 BYTE   N48  Cn1
 BYTE   W48
// 009   ----------------------------------------
 BYTE   N24  Fs2
 BYTE   N48  Cn1
 BYTE   W40
 BYTE   N08  En1
 BYTE   W08
 BYTE   N24  Fs2
 BYTE   N48  Cn1
 BYTE   N96  En1
 BYTE   W48
// 010   ----------------------------------------
 BYTE   N24
 BYTE   N24  Fs2
 BYTE   N48  Cn1
 BYTE   W48
 BYTE   N24  Fs2
 BYTE   N48  Cn1
 BYTE   W48
// 011   ----------------------------------------
 BYTE   N24  Fs2
 BYTE   N40  Cn1
 BYTE   W24
 BYTE   N08  En1
 BYTE   W08
 BYTE   En1
 BYTE   W08
 BYTE   En1
 BYTE   N24  Cn1
 BYTE   W08
 BYTE   N08  En1
 BYTE   N24  Fs2
 BYTE   W08
 BYTE   N08  En1
 BYTE   W08
 BYTE   Cn1
 BYTE   N32  En1
 BYTE   W08
 BYTE   N16  Fs2
 BYTE   N40  Cn1
 BYTE   N96  Cs2
 BYTE   W16
 BYTE   N08  Fs2
 BYTE   W08
// 012   ----------------------------------------
Label_4_01D06FD2:
 BYTE   N16  Fs2  v127
 BYTE   N48  En1
 BYTE   W16
 BYTE   N08  Fs2
 BYTE   N08  Cn1
 BYTE   W08
 BYTE   N16  Fs2
 BYTE   N48  Cn1
 BYTE   N96  Cs2
 BYTE   W16
 BYTE   N08  Fs2
 BYTE   W08
 BYTE   N16
 BYTE   N48  En1
 BYTE   W16
 BYTE   N08  Fs2
 BYTE   W08
 BYTE   N16
 BYTE   N88  Cn1
 BYTE   N96  Cs2
 BYTE   W16
 BYTE   N08  Fs2
 BYTE   W08
 BYTE   PEND 
// 013   ----------------------------------------
 BYTE   N16  Fs2  v127
 BYTE   N48  En1
 BYTE   W16
 BYTE   N08  Fs2
 BYTE   W08
 BYTE   N16
 BYTE   N96  Cs2
 BYTE   W16
 BYTE   N08  Fs2
 BYTE   W08
 BYTE   N16
 BYTE   N48  En1
 BYTE   W16
 BYTE   N08  Fs2
 BYTE   N08  Cn1
 BYTE   W08
 BYTE   N16  Fs2
 BYTE   N40  Cn1
 BYTE   N96  Cs2
 BYTE   W16
 BYTE   N08  Fs2
 BYTE   W08
// 014   ----------------------------------------
 BYTE   PATT
  POIN2 Label_4_01D06FD2
// 015   ----------------------------------------
 BYTE   N16  Fs2  v127
 BYTE   N48  En1
 BYTE   W16
 BYTE   N08  Fs2
 BYTE   W08
 BYTE   N16
 BYTE   W16
 BYTE   N08
 BYTE   W08
 BYTE   N16
 BYTE   N48  En1
 BYTE   W16
 BYTE   N08  Cn1
 BYTE   N08  Fs2
 BYTE   W08
 BYTE   N40  Cn1
 BYTE   N96  Cn3
 BYTE   W24
// 016   ----------------------------------------
 BYTE   N24  Gn5
 BYTE   N24  Fs2
 BYTE   N48  En1
 BYTE   W16
 BYTE   N08  Cn1
 BYTE   W08
 BYTE   N48
 BYTE   N96  Cn3
 BYTE   W24
 BYTE   N24  Fs2
 BYTE   N24  Gn5
 BYTE   N48  En1
 BYTE   W24
 BYTE   N40  Cn1
 BYTE   N96  Cn3
 BYTE   W24
// 017   ----------------------------------------
 BYTE   N24  Gn5
 BYTE   N24  Fs2
 BYTE   N48  En1
 BYTE   W16
 BYTE   N08  Cn1
 BYTE   W08
 BYTE   N40
 BYTE   N96  Cn3
 BYTE   W24
 BYTE   N24  Fs2
 BYTE   N24  Gn5
 BYTE   N48  En1
 BYTE   W16
 BYTE   N08  Cn1
 BYTE   W08
 BYTE   N40
 BYTE   W24
// 018   ----------------------------------------
Label_4_01D0706F:
 BYTE   N24  Fs2  v127
 BYTE   N24  Gn5
 BYTE   N48  En1
 BYTE   W16
 BYTE   N08  Cn1
 BYTE   W08
 BYTE   N40
 BYTE   W24
 BYTE   N24  Fs2
 BYTE   N24  Gn5
 BYTE   N40  En1
 BYTE   W16
 BYTE   N08  Cn1
 BYTE   W08
 BYTE   N40
 BYTE   W16
 BYTE   N24  En1
 BYTE   W08
 BYTE   PEND 
// 019   ----------------------------------------
 BYTE   N24  Gn5  v127
 BYTE   N24  Fs2
 BYTE   W16
 BYTE   Cn1
 BYTE   N24  En1
 BYTE   N56  Cs2
 BYTE   W24
 BYTE   N24  Cn1
 BYTE   W08
 BYTE   N08  En1
 BYTE   N24  Gn5
 BYTE   N24  Fs2
 BYTE   W08
 BYTE   N08  En1
 BYTE   W08
 BYTE   Cn1
 BYTE   N32  En1
 BYTE   W08
 BYTE   N16  Fs2
 BYTE   N40  Cn1
 BYTE   W16
 BYTE   N08  Fs2
 BYTE   W08
// 020   ----------------------------------------
 BYTE   N16
 BYTE   N48  En1
 BYTE   W16
 BYTE   N08  Cn1
 BYTE   N08  Fs2
 BYTE   W08
 BYTE   N16
 BYTE   N48  Cn1
 BYTE   W16
 BYTE   N08  Fs2
 BYTE   W08
 BYTE   N16
 BYTE   N48  En1
 BYTE   W16
 BYTE   N08  Fs2
 BYTE   W08
 BYTE   N16
 BYTE   N88  Cn1
 BYTE   W16
 BYTE   N08  Fs2
 BYTE   W08
// 021   ----------------------------------------
 BYTE   N16
 BYTE   N48  En1
 BYTE   W16
 BYTE   N08  Fs2
 BYTE   W08
 BYTE   N16
 BYTE   W16
 BYTE   N08
 BYTE   W08
 BYTE   N16
 BYTE   N48  En1
 BYTE   W16
 BYTE   N08  Cn1
 BYTE   N08  Fs2
 BYTE   W08
 BYTE   N16
 BYTE   N40  Cn1
 BYTE   W16
 BYTE   N08  Fs2
 BYTE   W08
// 022   ----------------------------------------
 BYTE   N16
 BYTE   N48  En1
 BYTE   W16
 BYTE   N08  Fs2
 BYTE   N08  Cn1
 BYTE   W08
 BYTE   N16  Fs2
 BYTE   N48  Cn1
 BYTE   W16
 BYTE   N08  Fs2
 BYTE   W08
 BYTE   N16
 BYTE   N48  En1
 BYTE   W16
 BYTE   N08  Fs2
 BYTE   W08
 BYTE   N16
 BYTE   N88  Cn1
 BYTE   W16
 BYTE   N08  Fs2
 BYTE   W08
// 023   ----------------------------------------
 BYTE   N16
 BYTE   N48  En1
 BYTE   W16
 BYTE   N08  Fs2
 BYTE   W08
 BYTE   N16
 BYTE   W16
 BYTE   N08
 BYTE   W08
 BYTE   N16
 BYTE   N48  En1
 BYTE   W16
 BYTE   N08  Fs2
 BYTE   N08  Cn1
 BYTE   W08
 BYTE   N40
 BYTE   N96  Cn3
 BYTE   W24
// 024   ----------------------------------------
 BYTE   N24  Fs2
 BYTE   N24  Gn5
 BYTE   N48  En1
 BYTE   W16
 BYTE   N08  Cn1
 BYTE   W08
 BYTE   N48
 BYTE   N96  Cn3
 BYTE   W24
 BYTE   N24  Gn5
 BYTE   N24  Fs2
 BYTE   N48  En1
 BYTE   W24
 BYTE   N40  Cn1
 BYTE   N96  Cn3
 BYTE   W24
// 025   ----------------------------------------
 BYTE   N24  Gn5
 BYTE   N24  Fs2
 BYTE   N48  En1
 BYTE   W16
 BYTE   N08  Cn1
 BYTE   W08
 BYTE   N40
 BYTE   N96  Cn3
 BYTE   W24
 BYTE   N24  Gn5
 BYTE   N24  Fs2
 BYTE   N48  En1
 BYTE   W16
 BYTE   N08  Cn1
 BYTE   W08
 BYTE   N40
 BYTE   W24
// 026   ----------------------------------------
 BYTE   PATT
  POIN2 Label_4_01D0706F
// 027   ----------------------------------------
 BYTE   N24  Fs2  v127
 BYTE   N24  Gn5
 BYTE   W16
 BYTE   Cn1
 BYTE   N24  En1
 BYTE   N56  Cs2
 BYTE   W24
 BYTE   N24  Cn1
 BYTE   W08
 BYTE   N08  En1
 BYTE   N24  Fs2
 BYTE   N24  Gn5
 BYTE   W08
 BYTE   N08  En1
 BYTE   W08
 BYTE   Cn1
 BYTE   N32  En1
 BYTE   W08
 BYTE   N40  Cn1
 BYTE   W24
// 028   ----------------------------------------
Label_4_01D0717A:
 BYTE   N24  Fs2  v127
 BYTE   N48  En1
 BYTE   W16
 BYTE   N08  Cn1
 BYTE   W08
 BYTE   N48
 BYTE   W24
 BYTE   N24  Fs2
 BYTE   N48  En1
 BYTE   W24
 BYTE   N40  Cn1
 BYTE   W24
 BYTE   PEND 
// 029   ----------------------------------------
 BYTE   PATT
  POIN2 Label_4_01D0717A
// 030   ----------------------------------------
 BYTE   PATT
  POIN2 Label_4_01D0717A
// 031   ----------------------------------------
 BYTE   PATT
  POIN2 Label_4_01D0717A
// 032   ----------------------------------------
 BYTE   PATT
  POIN2 Label_4_01D0717A
// 033   ----------------------------------------
 BYTE   PATT
  POIN2 Label_4_01D0717A
// 034   ----------------------------------------
 BYTE   N24  Fs2  v127
 BYTE   N48  En1
 BYTE   W16
 BYTE   N08  Cn1
 BYTE   W08
 BYTE   N48
 BYTE   W24
 BYTE   N24  Fs2
 BYTE   N40  En1
 BYTE   W24
 BYTE   N24  Fs2
 BYTE   N40  Cn1
 BYTE   N40  Cs2
 BYTE   W16
 BYTE   N04  En1
 BYTE   W04
 BYTE   En1
 BYTE   W04
// 035   ----------------------------------------
 BYTE   N40
 BYTE   W16
 BYTE   N32  Fs2
 BYTE   N32  Cs2
 BYTE   N32  Cn1
 BYTE   W24
 BYTE   N08  En1
 BYTE   W08
 BYTE   N24  Fs2
 BYTE   N24  En1
 BYTE   N96  Cn1
 BYTE   N96  Cs2
 BYTE   W48
// 036   ----------------------------------------
 BYTE   N24  Cn1
 BYTE   N48  Cs2
 BYTE   W24
 BYTE   N08  En1
 BYTE   W08
 BYTE   En1
 BYTE   W08
 BYTE   En1
 BYTE   W08
 BYTE   En1
 BYTE   W08
 BYTE   En1
 BYTE   W08
 BYTE   N32
 BYTE   W08
 BYTE   N24  Fs2
 BYTE   N40  Cn1
 BYTE   W24
// 037   ----------------------------------------
 BYTE   N24  Fs2
 BYTE   N48  Cs2
 BYTE   N48  En1
 BYTE   W16
 BYTE   N08  Cn1
 BYTE   W08
 BYTE   N24  Fs2
 BYTE   N48  Cn1
 BYTE   W24
 BYTE   N24  Fs2
 BYTE   N48  Cs2
 BYTE   N48  En1
 BYTE   W24
 BYTE   N16  Cn1
 BYTE   N24  Fs2
 BYTE   W16
 BYTE   Cn1
 BYTE   W08
// 038   ----------------------------------------
 BYTE   Fs2
 BYTE   N40  En1
 BYTE   N48  Cs2
 BYTE   W16
 BYTE   N08  Cn1
 BYTE   W08
 BYTE   N24  Fs2
 BYTE   N48  Cn1
 BYTE   W16
 BYTE   N08  En1
 BYTE   W08
 BYTE   N24  Fs2
 BYTE   N48  Cs2
 BYTE   N48  En1
 BYTE   W24
 BYTE   N24  Fs2
 BYTE   N40  Cn1
 BYTE   W24
// 039   ----------------------------------------
 BYTE   N24  Fs2
 BYTE   N48  Cs2
 BYTE   N48  En1
 BYTE   W16
 BYTE   N08  Cn1
 BYTE   W08
 BYTE   N24  Fs2
 BYTE   N48  Cn1
 BYTE   W24
 BYTE   N24  Fs2
 BYTE   N48  En1
 BYTE   N48  Cs2
 BYTE   W24
 BYTE   N16  Cn1
 BYTE   N24  Fs2
 BYTE   W16
 BYTE   Cn1
 BYTE   W08
// 040   ----------------------------------------
 BYTE   Fs2
 BYTE   N32  En1
 BYTE   N96  Cs2
 BYTE   W16
 BYTE   N08  Cn1
 BYTE   W08
 BYTE   N24  Fs2
 BYTE   N48  Cn1
 BYTE   W08
 BYTE   N08  En1
 BYTE   W08
 BYTE   En1
 BYTE   W08
 BYTE   En1
 BYTE   N24  Fs2
 BYTE   N72  Cs2
 BYTE   W08
 BYTE   N08  En1
 BYTE   W08
 BYTE   N32
 BYTE   W08
 BYTE   N08  Fs2
 BYTE   N40  Cn1
 BYTE   W08
 BYTE   N08  Fs2
 BYTE   W08
 BYTE   Fs2
 BYTE   W08
// 041   ----------------------------------------
 BYTE   Fs2
 BYTE   N48  En1
 BYTE   W08
 BYTE   N08  Fs2
 BYTE   W08
 BYTE   Cn1
 BYTE   N08  Fs2
 BYTE   W08
 BYTE   Fs2
 BYTE   N48  Cn1
 BYTE   W08
 BYTE   N08  Fs2
 BYTE   W08
 BYTE   Fs2
 BYTE   W08
 BYTE   Fs2
 BYTE   N48  En1
 BYTE   W08
 BYTE   N08  Fs2
 BYTE   W08
 BYTE   Fs2
 BYTE   W08
 BYTE   Fs2
 BYTE   N40  Cn1
 BYTE   W08
 BYTE   N08  Fs2
 BYTE   W08
 BYTE   Fs2
 BYTE   W08
// 042   ----------------------------------------
 BYTE   Fs2
 BYTE   N48  En1
 BYTE   W08
 BYTE   N08  Fs2
 BYTE   W08
 BYTE   Cn1
 BYTE   N08  Fs2
 BYTE   W08
 BYTE   Fs2
 BYTE   N48  Cn1
 BYTE   W08
 BYTE   N08  Fs2
 BYTE   W08
 BYTE   Fs2
 BYTE   W08
 BYTE   Fs2
 BYTE   N48  En1
 BYTE   W08
 BYTE   N08  Fs2
 BYTE   W08
 BYTE   Fs2
 BYTE   W08
 BYTE   Fs2
 BYTE   N40  Cn1
 BYTE   W08
 BYTE   N08  Fs2  v127
 BYTE   W08
 BYTE   Fs2
 BYTE   W08
// 043   ----------------------------------------
 BYTE   Fs2
 BYTE   N48  En1
 BYTE   W08
 BYTE   N08  Fs2
 BYTE   W08
 BYTE   Fs2
 BYTE   N08  Cn1
 BYTE   W08
 BYTE   Fs2
 BYTE   N48  Cn1
 BYTE   W08
 BYTE   N08  Fs2
 BYTE   W08
 BYTE   Fs2
 BYTE   W08
 BYTE   Fs2
 BYTE   N40  En1
 BYTE   W08
 BYTE   N08  Fs2
 BYTE   W08
 BYTE   Fs2
 BYTE   W08
 BYTE   Fs2
 BYTE   N40  Cn1
 BYTE   W08
 BYTE   N08  Fs2
 BYTE   W08
 BYTE   N04  En1
 BYTE   N08  Fs2
 BYTE   W04
 BYTE   N04  En1
 BYTE   W04
// 044   ----------------------------------------
 BYTE   N08  Fs2
 BYTE   N16  En1
 BYTE   W08
 BYTE   N08  Fs2
 BYTE   W08
 BYTE   Fs2
 BYTE   N24  Cn1
 BYTE   N32  En1
 BYTE   N96  Cs2
 BYTE   W08
 BYTE   N08  Fs2
 BYTE   W08
 BYTE   Fs2
 BYTE   W08
 BYTE   Fs2
 BYTE   N24  Cn1
 BYTE   W08
 BYTE   N08  En1
 BYTE   N08  Fs2
 BYTE   W08
 BYTE   En1
 BYTE   N08  Fs2
 BYTE   W08
 BYTE   Fs2
 BYTE   N08  Cn1
 BYTE   N32  En1
 BYTE   N56  Cs2
 BYTE   W08
 BYTE   N08  Fs2
 BYTE   N40  Cn1
 BYTE   W08
 BYTE   N08  Fs2
 BYTE   W08
 BYTE   Fs2
 BYTE   W08
// 045   ----------------------------------------
Label_4_01D0731B:
 BYTE   N08  Fs2  v127
 BYTE   N48  En1
 BYTE   W08
 BYTE   N08  Fs2
 BYTE   W08
 BYTE   Fs2
 BYTE   N08  Cn1
 BYTE   W08
 BYTE   Fs2
 BYTE   N48  Cn1
 BYTE   W08
 BYTE   N08  Fs2
 BYTE   W08
 BYTE   Fs2
 BYTE   W08
 BYTE   Fs2
 BYTE   N48  En1
 BYTE   W08
 BYTE   N08  Fs2
 BYTE   W08
 BYTE   Fs2
 BYTE   W08
 BYTE   Fs2
 BYTE   N40  Cn1
 BYTE   W08
 BYTE   N08  Fs2
 BYTE   W08
 BYTE   Fs2
 BYTE   W08
 BYTE   PEND 
// 046   ----------------------------------------
 BYTE   PATT
  POIN2 Label_4_01D0731B
// 047   ----------------------------------------
 BYTE   N08  Fs2  v127
 BYTE   N48  En1
 BYTE   W08
 BYTE   N08  Fs2
 BYTE   W08
 BYTE   Fs2
 BYTE   N08  Cn1
 BYTE   W08
 BYTE   Fs2
 BYTE   N48  Cn1
 BYTE   W08
 BYTE   N08  Fs2
 BYTE   W08
 BYTE   Fs2
 BYTE   W08
 BYTE   Fs2
 BYTE   N40  En1
 BYTE   W08
 BYTE   N08  Fs2
 BYTE   W08
 BYTE   Fs2
 BYTE   W08
 BYTE   Fs2
 BYTE   N40  Cn1
 BYTE   W08
 BYTE   N08  Fs2
 BYTE   W08
 BYTE   Fs2
 BYTE   N24  En1
 BYTE   W08
// 048   ----------------------------------------
 BYTE   N08  Fs2
 BYTE   W08
 BYTE   Fs2
 BYTE   W08
 BYTE   Fs2
 BYTE   N24  Cn1
 BYTE   N32  En1
 BYTE   W08
 BYTE   N08  Fs2
 BYTE   W08
 BYTE   Fs2
 BYTE   W08
 BYTE   Fs2
 BYTE   N24  Cn1
 BYTE   W08
 BYTE   N08  Fs2
 BYTE   W08
 BYTE   Fs2
 BYTE   GoTo
  POIN2 Label_4_01D06E94
 BYTE   FINE

//******************************************************//
	ALIGN 4

FF8ModsdeChocoboRSflame:
	BYTE	5	// NumTrks
	BYTE	0	// NumBlks
	BYTE	FF8ModsdeChocoboRSflame_pri	// Priority
	BYTE	FF8ModsdeChocoboRSflame_rev	// Reverb.
    
	POIN2	FF8ModsdeChocoboRSflame_grp
    
	POIN2	FF8ModsdeChocoboRSflame_001
	POIN2	FF8ModsdeChocoboRSflame_002
	POIN2	FF8ModsdeChocoboRSflame_003
	POIN2	FF8ModsdeChocoboRSflame_004
	POIN2	FF8ModsdeChocoboRSflame_005

	
