//Event file generated from Sappy .s format.
	#include "MPlayDef.event"

	#define	FFLegend2LethalStrikeMrGreen3339_grp  voicegroup000
	#define	FFLegend2LethalStrikeMrGreen3339_pri  0
	#define	FFLegend2LethalStrikeMrGreen3339_rev  0
	#define	FFLegend2LethalStrikeMrGreen3339_mvl  127
	#define	FFLegend2LethalStrikeMrGreen3339_key  0
	#define	FFLegend2LethalStrikeMrGreen3339_tbs  1
	#define	FFLegend2LethalStrikeMrGreen3339_exg  0
	#define	FFLegend2LethalStrikeMrGreen3339_cmp  1

	// .rodata
	//	FFLegend2LethalStrikeMrGreen3339
	ALIGN 4


//**************** Track 1 (Midi-Chn.0) ****************//

FFLegend2LethalStrikeMrGreen3339_001:
// 000   ----------------------------------------
 BYTE   VOL   60*FFLegend2LethalStrikeMrGreen3339_mvl/mxv
 BYTE   KEYSH   FFLegend2LethalStrikeMrGreen3339_key+0
Label_0_0114AB84:
 BYTE   TEMPO   174*FFLegend2LethalStrikeMrGreen3339_tbs/2
 BYTE   VOICE   0
 BYTE   W96
// 001   ----------------------------------------
 BYTE   W96
// 002   ----------------------------------------
 BYTE   W96
// 003   ----------------------------------------
 BYTE   W96
// 004   ----------------------------------------
 BYTE   W96
// 005   ----------------------------------------
 BYTE   W96
// 006   ----------------------------------------
 BYTE   W96
// 007   ----------------------------------------
 BYTE   W96
// 008   ----------------------------------------
 BYTE   W96
// 009   ----------------------------------------
 BYTE   W96
// 010   ----------------------------------------
 BYTE   W96
// 011   ----------------------------------------
 BYTE   W96
// 012   ----------------------------------------
 BYTE   W96
// 013   ----------------------------------------
 BYTE   W96
// 014   ----------------------------------------
 BYTE   N11  Fs1  v112
 BYTE   W12
 BYTE   Fs2
 BYTE   W12
 BYTE   Fs1
 BYTE   W12
 BYTE   Fs2
 BYTE   W12
 BYTE   Gs1
 BYTE   W12
 BYTE   Gs2
 BYTE   W12
 BYTE   As1
 BYTE   W12
 BYTE   As2
 BYTE   W12
// 015   ----------------------------------------
 BYTE   Bn1
 BYTE   W12
 BYTE   Bn2
 BYTE   W12
 BYTE   Bn1
 BYTE   W12
 BYTE   Bn2
 BYTE   W12
 BYTE   Bn1
 BYTE   W12
 BYTE   Bn2
 BYTE   W12
 BYTE   Bn1
 BYTE   W12
 BYTE   Bn2
 BYTE   W12
// 016   ----------------------------------------
 BYTE   En1
 BYTE   W12
 BYTE   En2
 BYTE   W12
 BYTE   En1
 BYTE   W12
 BYTE   En2
 BYTE   W12
 BYTE   Fs1
 BYTE   W12
 BYTE   Fs2
 BYTE   W12
 BYTE   Gs1
 BYTE   W12
 BYTE   Gs2
 BYTE   W12
// 017   ----------------------------------------
 BYTE   An1
 BYTE   W12
 BYTE   An2
 BYTE   W12
 BYTE   An1
 BYTE   W12
 BYTE   An2
 BYTE   W12
 BYTE   An1
 BYTE   W12
 BYTE   An2
 BYTE   W12
 BYTE   An1
 BYTE   W12
 BYTE   An2
 BYTE   W12
// 018   ----------------------------------------
 BYTE   N32  Dn1
 BYTE   W36
 BYTE   Dn2
 BYTE   W36
 BYTE   N20  Dn1
 BYTE   W24
// 019   ----------------------------------------
 BYTE   N32  Bn1
 BYTE   W36
 BYTE   Bn2
 BYTE   W36
 BYTE   N20  Bn1
 BYTE   W24
// 020   ----------------------------------------
 BYTE   W96
// 021   ----------------------------------------
 BYTE   W96
// 022   ----------------------------------------
 BYTE   W96
// 023   ----------------------------------------
 BYTE   W96
// 024   ----------------------------------------
 BYTE   W96
// 025   ----------------------------------------
 BYTE   W96
// 026   ----------------------------------------
 BYTE   W96
// 027   ----------------------------------------
 BYTE   W96
// 028   ----------------------------------------
 BYTE   W96
// 029   ----------------------------------------
 BYTE   GoTo
  POIN2 Label_0_0114AB84
 BYTE   FINE

//**************** Track 2 (Midi-Chn.1) ****************//

FFLegend2LethalStrikeMrGreen3339_002:
// 000   ----------------------------------------
 BYTE   VOL   60*FFLegend2LethalStrikeMrGreen3339_mvl/mxv
 BYTE   KEYSH   FFLegend2LethalStrikeMrGreen3339_key+0
Label_1_0114ABFC:
 BYTE   VOICE   127
 BYTE   N09  Cn1  v080
 BYTE   N09  As1
 BYTE   W12
 BYTE   N09
 BYTE   W12
 BYTE   En1
 BYTE   N09  As1
 BYTE   W12
 BYTE   N09
 BYTE   W12
 BYTE   Cn1
 BYTE   N09  As1
 BYTE   W12
 BYTE   N09
 BYTE   W12
 BYTE   En1
 BYTE   N09  As1
 BYTE   W12
 BYTE   N09
 BYTE   W12
// 001   ----------------------------------------
 BYTE   Cn1
 BYTE   N09  As1
 BYTE   W12
 BYTE   N09
 BYTE   W12
 BYTE   En1
 BYTE   N09  As1
 BYTE   W12
 BYTE   Dn1
 BYTE   N09  Cs2
 BYTE   N09  An2
 BYTE   W24
 BYTE   Cn1
 BYTE   W12
 BYTE   N04  Cn2
 BYTE   W06
 BYTE   Bn1
 BYTE   W06
 BYTE   An1
 BYTE   W06
 BYTE   Cn1
 BYTE   N04  Gn1
 BYTE   W06
// 002   ----------------------------------------
Label_1_0114AC35:
 BYTE   N09  Cn1  v080
 BYTE   N09  As1
 BYTE   W12
 BYTE   N09
 BYTE   W12
 BYTE   En1
 BYTE   N09  As1
 BYTE   W12
 BYTE   N09
 BYTE   W12
 BYTE   Cn1
 BYTE   N09  As1
 BYTE   W12
 BYTE   N09
 BYTE   W12
 BYTE   En1
 BYTE   N09  As1
 BYTE   W12
 BYTE   N09
 BYTE   W12
 BYTE   PEND 
// 003   ----------------------------------------
 BYTE   Cn1
 BYTE   N09  As1
 BYTE   W12
 BYTE   N09
 BYTE   W12
 BYTE   En1
 BYTE   N09  As1
 BYTE   W12
 BYTE   Dn1
 BYTE   N09  Cs2
 BYTE   N09  An2
 BYTE   W24
 BYTE   Cn1
 BYTE   W12
 BYTE   N02  Gn1
 BYTE   W03
 BYTE   N02
 BYTE   W03
 BYTE   N04  Dn2
 BYTE   W06
 BYTE   Cn2
 BYTE   W06
 BYTE   Bn1
 BYTE   W06
// 004   ----------------------------------------
 BYTE   N09  Cn1
 BYTE   N09  As1
 BYTE   N09  An2
 BYTE   W12
 BYTE   As1
 BYTE   W12
 BYTE   N09
 BYTE   W12
 BYTE   En1
 BYTE   N09  As1
 BYTE   W12
 BYTE   Cn1
 BYTE   N09  As1
 BYTE   N09  An2
 BYTE   W12
 BYTE   As1
 BYTE   W12
 BYTE   N09
 BYTE   W12
 BYTE   En1
 BYTE   N09  As1
 BYTE   W12
// 005   ----------------------------------------
 BYTE   Cn1
 BYTE   N09  As1
 BYTE   N09  An2
 BYTE   W12
 BYTE   As1
 BYTE   W12
 BYTE   N09
 BYTE   W12
 BYTE   En1
 BYTE   N09  As1
 BYTE   W12
 BYTE   Cn1
 BYTE   N09  As1
 BYTE   N09  An2
 BYTE   W12
 BYTE   As1
 BYTE   W12
 BYTE   En1
 BYTE   N09  As1
 BYTE   W12
 BYTE   N09
 BYTE   W12
// 006   ----------------------------------------
 BYTE   PATT
  POIN2 Label_1_0114AC35
// 007   ----------------------------------------
Label_1_0114ACAC:
 BYTE   N09  Cn1  v080
 BYTE   N09  As1
 BYTE   W12
 BYTE   N09
 BYTE   W12
 BYTE   En1
 BYTE   N09  As1
 BYTE   W12
 BYTE   N09
 BYTE   W12
 BYTE   Cn1
 BYTE   N09  As1
 BYTE   W12
 BYTE   En1
 BYTE   N09  As1
 BYTE   W12
 BYTE   N09
 BYTE   W12
 BYTE   En1
 BYTE   N09  As1
 BYTE   W12
 BYTE   PEND 
// 008   ----------------------------------------
 BYTE   PATT
  POIN2 Label_1_0114AC35
// 009   ----------------------------------------
 BYTE   N04  Cn1  v080
 BYTE   N04  As1
 BYTE   N04  Dn2
 BYTE   W06
 BYTE   Cn2
 BYTE   W06
 BYTE   An1
 BYTE   N04  As1
 BYTE   W06
 BYTE   Gn1
 BYTE   W06
 BYTE   N09  En1
 BYTE   N09  As1
 BYTE   W12
 BYTE   N04
 BYTE   N04  Dn2
 BYTE   W06
 BYTE   Cn2
 BYTE   W06
 BYTE   Cn1
 BYTE   N04  An1
 BYTE   N04  As1
 BYTE   W06
 BYTE   Gn1
 BYTE   W06
 BYTE   N09  En1
 BYTE   N09  As1
 BYTE   W12
 BYTE   N04  Cn1
 BYTE   N04  As1
 BYTE   N04  Dn2
 BYTE   W06
 BYTE   Cn2
 BYTE   W06
 BYTE   An1
 BYTE   N04  As1
 BYTE   W06
 BYTE   Gn1
 BYTE   W06
// 010   ----------------------------------------
 BYTE   N09  Cn1
 BYTE   N09  As1
 BYTE   N09  An2
 BYTE   W12
 BYTE   As1
 BYTE   W12
 BYTE   En1
 BYTE   N09  As1
 BYTE   W12
 BYTE   N09
 BYTE   W12
 BYTE   Cn1
 BYTE   N09  As1
 BYTE   W12
 BYTE   N09
 BYTE   W12
 BYTE   En1
 BYTE   N09  As1
 BYTE   W12
 BYTE   N09
 BYTE   W12
// 011   ----------------------------------------
 BYTE   PATT
  POIN2 Label_1_0114ACAC
// 012   ----------------------------------------
 BYTE   PATT
  POIN2 Label_1_0114AC35
// 013   ----------------------------------------
 BYTE   N04  Cn1  v080
 BYTE   N04  As1
 BYTE   N04  Dn2
 BYTE   W06
 BYTE   N04
 BYTE   W06
 BYTE   As1
 BYTE   N04  Dn2
 BYTE   W06
 BYTE   N04
 BYTE   W06
 BYTE   En1
 BYTE   N04  As1
 BYTE   N04  Cn2
 BYTE   W06
 BYTE   N04
 BYTE   W06
 BYTE   As1
 BYTE   N04  Cn2
 BYTE   W06
 BYTE   N04
 BYTE   W06
 BYTE   Cn1
 BYTE   N04  An1
 BYTE   N04  As1
 BYTE   W06
 BYTE   An1
 BYTE   W06
 BYTE   N04
 BYTE   N04  As1
 BYTE   W06
 BYTE   An1
 BYTE   W06
 BYTE   En1
 BYTE   N04  Gn1
 BYTE   N04  As1
 BYTE   W06
 BYTE   Gn1
 BYTE   W06
 BYTE   En1
 BYTE   N04  Gn1
 BYTE   N04  As1
 BYTE   N04  Gn2
 BYTE   W06
 BYTE   Gn1
 BYTE   W06
// 014   ----------------------------------------
 BYTE   N09  Fn1
 BYTE   N09  Cs2
 BYTE   N09  An2
 BYTE   W24
 BYTE   En1
 BYTE   W24
 BYTE   Cn1
 BYTE   W24
 BYTE   En1
 BYTE   W24
// 015   ----------------------------------------
Label_1_0114AD75:
 BYTE   N09  Cn1  v080
 BYTE   W12
 BYTE   As1
 BYTE   W12
 BYTE   En1
 BYTE   N09  Gn1
 BYTE   W12
 BYTE   As1
 BYTE   W12
 BYTE   Cn1
 BYTE   W12
 BYTE   As1
 BYTE   W12
 BYTE   En1
 BYTE   N09  Gn1
 BYTE   W12
 BYTE   As1
 BYTE   W12
 BYTE   PEND 
// 016   ----------------------------------------
 BYTE   PATT
  POIN2 Label_1_0114AD75
// 017   ----------------------------------------
 BYTE   PATT
  POIN2 Label_1_0114AD75
// 018   ----------------------------------------
 BYTE   PATT
  POIN2 Label_1_0114AD75
// 019   ----------------------------------------
 BYTE   PATT
  POIN2 Label_1_0114AD75
// 020   ----------------------------------------
 BYTE   N09  Cs2  v080
 BYTE   N09  An2
 BYTE   W12
 BYTE   Cn1
 BYTE   W12
 BYTE   N09
 BYTE   W12
 BYTE   Cs2
 BYTE   N09  An2
 BYTE   W12
 BYTE   Cn1
 BYTE   W12
 BYTE   N09
 BYTE   W12
 BYTE   Cs2
 BYTE   N09  An2
 BYTE   W12
 BYTE   Cn1
 BYTE   W12
// 021   ----------------------------------------
 BYTE   N09
 BYTE   N06  An1
 BYTE   N09  As1
 BYTE   N06  Cs2
 BYTE   N06  An2
 BYTE   W08
 BYTE   An1
 BYTE   W04
 BYTE   N09  As1
 BYTE   W04
 BYTE   N06  An1
 BYTE   W08
 BYTE   N09  Cn1
 BYTE   N06  An1
 BYTE   N09  As1
 BYTE   W08
 BYTE   N06  An1
 BYTE   W04
 BYTE   N09  As1
 BYTE   W04
 BYTE   N06  An1
 BYTE   W08
 BYTE   N09  Cn1
 BYTE   N06  Fn1
 BYTE   N06  An1
 BYTE   N09  As1
 BYTE   W08
 BYTE   N06  Fn1
 BYTE   N06  An1
 BYTE   W04
 BYTE   N09  As1
 BYTE   W04
 BYTE   N06  Fn1
 BYTE   N06  An1
 BYTE   W08
 BYTE   N09  Cn1
 BYTE   N06  Fn1
 BYTE   N06  An1
 BYTE   N09  As1
 BYTE   W08
 BYTE   N06  Fn1
 BYTE   N06  An1
 BYTE   W04
 BYTE   N09  As1
 BYTE   W04
 BYTE   N06  Fn1
 BYTE   N06  An1
 BYTE   W08
// 022   ----------------------------------------
 BYTE   PATT
  POIN2 Label_1_0114AC35
// 023   ----------------------------------------
 BYTE   PATT
  POIN2 Label_1_0114AC35
// 024   ----------------------------------------
 BYTE   PATT
  POIN2 Label_1_0114AC35
// 025   ----------------------------------------
 BYTE   N09  Cn1  v080
 BYTE   N09  As1
 BYTE   W12
 BYTE   En1
 BYTE   N09  As1
 BYTE   W12
 BYTE   Cn1
 BYTE   N09  As1
 BYTE   W12
 BYTE   En1
 BYTE   N09  As1
 BYTE   W12
 BYTE   Cn1
 BYTE   N09  As1
 BYTE   W12
 BYTE   En1
 BYTE   N09  As1
 BYTE   W12
 BYTE   Cn1
 BYTE   N09  As1
 BYTE   W12
 BYTE   En1
 BYTE   N09  As1
 BYTE   W12
// 026   ----------------------------------------
 BYTE   PATT
  POIN2 Label_1_0114AC35
// 027   ----------------------------------------
 BYTE   PATT
  POIN2 Label_1_0114AC35
// 028   ----------------------------------------
 BYTE   N09  Cn1  v080
 BYTE   N09  As1
 BYTE   W12
 BYTE   N09
 BYTE   W12
 BYTE   En1
 BYTE   N09  As1
 BYTE   W12
 BYTE   N09
 BYTE   W12
 BYTE   Cn1
 BYTE   N09  As1
 BYTE   W12
 BYTE   N04  En1  v100
 BYTE   N04  As1  v080
 BYTE   W06
 BYTE   En1  v100
 BYTE   W06
 BYTE   N04
 BYTE   N04  As1  v080
 BYTE   W06
 BYTE   En1  v100
 BYTE   W06
 BYTE   N09
 BYTE   N09  As1  v080
 BYTE   N09  Cs2  v100
 BYTE   N09  An2  v080
 BYTE   W12
// 029   ----------------------------------------
 BYTE   GoTo
  POIN2 Label_1_0114ABFC
 BYTE   FINE

//**************** Track 3 (Midi-Chn.2) ****************//

FFLegend2LethalStrikeMrGreen3339_003:
// 000   ----------------------------------------
 BYTE   KEYSH   FFLegend2LethalStrikeMrGreen3339_key+0
Label_2_0114AE7A:
 BYTE   VOICE   56
 BYTE   VOL   60*FFLegend2LethalStrikeMrGreen3339_mvl/mxv
 BYTE   N12  Cs4  v080
 BYTE   W12
 BYTE   N06  Fs3
 BYTE   W12
 BYTE   An3
 BYTE   W12
 BYTE   En4
 BYTE   W12
 BYTE   N12  Ds4
 BYTE   W12
 BYTE   N06  Bn3
 BYTE   W24
 BYTE   N06
 BYTE   W12
// 001   ----------------------------------------
Label_2_0114AE91:
 BYTE   N12  Cs4  v080
 BYTE   W12
 BYTE   N06  Fs3
 BYTE   W12
 BYTE   En4
 BYTE   W12
 BYTE   Ds4
 BYTE   W60
 BYTE   PEND 
// 002   ----------------------------------------
 BYTE   N12  Cs4
 BYTE   W12
 BYTE   N06  Fs3
 BYTE   W12
 BYTE   An3
 BYTE   W12
 BYTE   En4
 BYTE   W12
 BYTE   N12  Ds4
 BYTE   W12
 BYTE   N06  Bn3
 BYTE   W24
 BYTE   N06
 BYTE   W12
// 003   ----------------------------------------
 BYTE   PATT
  POIN2 Label_2_0114AE91
// 004   ----------------------------------------
 BYTE   N36  Fs3  v080
 BYTE   W36
 BYTE   N04  En3
 BYTE   W06
 BYTE   Fs3
 BYTE   W06
 BYTE   N36  Gs3
 BYTE   W36
 BYTE   N04  Fs3
 BYTE   W06
 BYTE   Gs3
 BYTE   W06
// 005   ----------------------------------------
 BYTE   N36  An3
 BYTE   W36
 BYTE   N04  Gs3
 BYTE   W06
 BYTE   Fs3
 BYTE   W06
 BYTE   N24  Gs3
 BYTE   W24
 BYTE   En3
 BYTE   W24
// 006   ----------------------------------------
 BYTE   N19  Fs3
 BYTE   W96
// 007   ----------------------------------------
 BYTE   W96
// 008   ----------------------------------------
 BYTE   N04  Fs4  v100
 BYTE   W06
 BYTE   Gs4
 BYTE   W06
 BYTE   Fs4
 BYTE   W06
 BYTE   En4
 BYTE   W06
 BYTE   Fs4
 BYTE   W06
 BYTE   Gs4
 BYTE   W06
 BYTE   Fs4
 BYTE   W06
 BYTE   En4
 BYTE   W06
 BYTE   Fs4
 BYTE   W06
 BYTE   Gs4
 BYTE   W06
 BYTE   Fs4
 BYTE   W06
 BYTE   En4
 BYTE   W06
 BYTE   Fs4
 BYTE   W06
 BYTE   Gs4
 BYTE   W06
 BYTE   Fs4
 BYTE   W06
 BYTE   En4
 BYTE   W06
// 009   ----------------------------------------
 BYTE   Fs4
 BYTE   W06
 BYTE   Gs4
 BYTE   W06
 BYTE   Fs4
 BYTE   W06
 BYTE   En4
 BYTE   W06
 BYTE   Fs4
 BYTE   W06
 BYTE   Gs4
 BYTE   W06
 BYTE   Fs4
 BYTE   W06
 BYTE   En4
 BYTE   W06
 BYTE   Gs3
 BYTE   W06
 BYTE   An3
 BYTE   W06
 BYTE   Bn3
 BYTE   W06
 BYTE   Cs4
 BYTE   W06
 BYTE   Dn4
 BYTE   W06
 BYTE   En4
 BYTE   W06
 BYTE   Fs4
 BYTE   W06
 BYTE   Gs4
 BYTE   W06
// 010   ----------------------------------------
 BYTE   An4
 BYTE   W96
// 011   ----------------------------------------
 BYTE   W96
// 012   ----------------------------------------
 BYTE   En4
 BYTE   W06
 BYTE   Fs4
 BYTE   W06
 BYTE   En4
 BYTE   W06
 BYTE   Ds4
 BYTE   W06
 BYTE   En4
 BYTE   W06
 BYTE   Fs4
 BYTE   W06
 BYTE   En4
 BYTE   W06
 BYTE   Ds4
 BYTE   W06
 BYTE   En4
 BYTE   W06
 BYTE   Fs4
 BYTE   W06
 BYTE   En4
 BYTE   W06
 BYTE   Ds4
 BYTE   W06
 BYTE   En4
 BYTE   W06
 BYTE   Fs4
 BYTE   W06
 BYTE   En4
 BYTE   W06
 BYTE   Ds4
 BYTE   W06
// 013   ----------------------------------------
 BYTE   En4
 BYTE   W06
 BYTE   Fs4
 BYTE   W06
 BYTE   En4  v096
 BYTE   W06
 BYTE   Ds4  v092
 BYTE   W06
 BYTE   En4  v088
 BYTE   W06
 BYTE   Fs4  v084
 BYTE   W06
 BYTE   En4
 BYTE   W06
 BYTE   Ds4  v080
 BYTE   W06
 BYTE   En4  v076
 BYTE   W06
 BYTE   Fs4  v072
 BYTE   W06
 BYTE   En4
 BYTE   W06
 BYTE   Ds4  v068
 BYTE   W06
 BYTE   En4  v064
 BYTE   W06
 BYTE   Fs4  v060
 BYTE   W06
 BYTE   En4  v056
 BYTE   W06
 BYTE   Ds4
 BYTE   W06
// 014   ----------------------------------------
 BYTE   W96
// 015   ----------------------------------------
 BYTE   W96
// 016   ----------------------------------------
 BYTE   W96
// 017   ----------------------------------------
 BYTE   W96
// 018   ----------------------------------------
 BYTE   W96
// 019   ----------------------------------------
 BYTE   W96
// 020   ----------------------------------------
 BYTE   N05  Cs4  v112
 BYTE   W06
 BYTE   Dn4
 BYTE   W06
 BYTE   En4
 BYTE   W06
 BYTE   Dn4
 BYTE   W06
 BYTE   N11  Cs4
 BYTE   W12
 BYTE   N05
 BYTE   W06
 BYTE   Dn4
 BYTE   W06
 BYTE   En4
 BYTE   W06
 BYTE   Dn4
 BYTE   W06
 BYTE   N11  Cs4
 BYTE   W12
 BYTE   N05
 BYTE   W06
 BYTE   Dn4
 BYTE   W06
 BYTE   En4
 BYTE   W06
 BYTE   Dn4
 BYTE   W06
// 021   ----------------------------------------
 BYTE   N90  Cs4
 BYTE   W96
// 022   ----------------------------------------
Label_2_0114AF8F:
 BYTE   N05  Dn4  v112
 BYTE   N05  Fs4
 BYTE   W06
 BYTE   En4
 BYTE   N05  Gn4
 BYTE   W06
 BYTE   Dn4
 BYTE   N05  Fs4
 BYTE   W06
 BYTE   Cs4
 BYTE   N05  En4
 BYTE   W06
 BYTE   Bn3
 BYTE   N05  Dn4
 BYTE   W06
 BYTE   Cs4
 BYTE   N05  En4
 BYTE   W06
 BYTE   Bn3
 BYTE   N05  Dn4
 BYTE   W06
 BYTE   An3
 BYTE   N05  Cs4
 BYTE   W06
 BYTE   Gs3
 BYTE   N05  Bn3
 BYTE   W06
 BYTE   An3
 BYTE   N05  Cs4
 BYTE   W06
 BYTE   Gs3
 BYTE   N05  Bn3
 BYTE   W06
 BYTE   Fs3
 BYTE   N05  An3
 BYTE   W06
 BYTE   En3
 BYTE   N05  Gs3
 BYTE   W06
 BYTE   N05
 BYTE   N05  Bn3
 BYTE   W06
 BYTE   N05
 BYTE   N05  Dn4
 BYTE   W06
 BYTE   N05
 BYTE   N05  Fs4
 BYTE   W06
 BYTE   PEND 
// 023   ----------------------------------------
Label_2_0114AFD2:
 BYTE   N05  Cs4  v112
 BYTE   N05  En4
 BYTE   W06
 BYTE   Dn4
 BYTE   N05  Fs4
 BYTE   W06
 BYTE   Cs4
 BYTE   N05  En4
 BYTE   W06
 BYTE   Bn3
 BYTE   N05  Dn4
 BYTE   W06
 BYTE   An3
 BYTE   N05  Cs4
 BYTE   W06
 BYTE   Bn3
 BYTE   N05  Dn4
 BYTE   W06
 BYTE   An3
 BYTE   N05  Cs4
 BYTE   W06
 BYTE   Gs3
 BYTE   N05  Bn3
 BYTE   W06
 BYTE   Fs3
 BYTE   N05  An3
 BYTE   W06
 BYTE   Gs3
 BYTE   N05  Bn3
 BYTE   W06
 BYTE   Fs3
 BYTE   N05  An3
 BYTE   W06
 BYTE   En3
 BYTE   N05  Gs3
 BYTE   W06
 BYTE   Dn3
 BYTE   N05  Fs3
 BYTE   W06
 BYTE   N05
 BYTE   N05  An3
 BYTE   W06
 BYTE   N05
 BYTE   N05  Cs4
 BYTE   W06
 BYTE   N05
 BYTE   N05  En4
 BYTE   W06
 BYTE   PEND 
// 024   ----------------------------------------
 BYTE   W96
// 025   ----------------------------------------
 BYTE   W96
// 026   ----------------------------------------
 BYTE   PATT
  POIN2 Label_2_0114AF8F
// 027   ----------------------------------------
 BYTE   PATT
  POIN2 Label_2_0114AFD2
// 028   ----------------------------------------
 BYTE   N05  Fs3  v112
 BYTE   N05  An3
 BYTE   W06
 BYTE   Gs3
 BYTE   N05  Bn3
 BYTE   W06
 BYTE   An3
 BYTE   N05  Cs4
 BYTE   W06
 BYTE   Bn3
 BYTE   N05  Dn4
 BYTE   W06
 BYTE   Gs3
 BYTE   N05  Bn3
 BYTE   W06
 BYTE   An3
 BYTE   N05  Cs4
 BYTE   W06
 BYTE   Bn3
 BYTE   N05  Dn4
 BYTE   W06
 BYTE   Cs4
 BYTE   N05  En4
 BYTE   W06
 BYTE   An3
 BYTE   N05  Cs4
 BYTE   W06
 BYTE   Bn3
 BYTE   N05  Dn4
 BYTE   W06
 BYTE   Cs4
 BYTE   N05  En4
 BYTE   W06
 BYTE   Dn4
 BYTE   N05  Fs4
 BYTE   W06
 BYTE   Bn3
 BYTE   N05  Dn4
 BYTE   W06
 BYTE   Cs4
 BYTE   N05  En4
 BYTE   W06
 BYTE   Dn4
 BYTE   N05  Fs4
 BYTE   W06
 BYTE   En4
 BYTE   N05  Gs4
 BYTE   W06
// 029   ----------------------------------------
 BYTE   GoTo
  POIN2 Label_2_0114AE7A
 BYTE   FINE

//**************** Track 4 (Midi-Chn.3) ****************//

FFLegend2LethalStrikeMrGreen3339_004:
// 000   ----------------------------------------
 BYTE   VOL   60*FFLegend2LethalStrikeMrGreen3339_mvl/mxv
 BYTE   KEYSH   FFLegend2LethalStrikeMrGreen3339_key+0
Label_3_0114B070:
 BYTE   VOICE   57
 BYTE   N09  Fs2  v080
 BYTE   W12
 BYTE   N04
 BYTE   W12
 BYTE   N04
 BYTE   W12
 BYTE   N04
 BYTE   W12
 BYTE   N09  Bn2
 BYTE   W12
 BYTE   N04
 BYTE   W24
 BYTE   N04
 BYTE   W12
// 001   ----------------------------------------
Label_3_0114B083:
 BYTE   N09  Fs2  v080
 BYTE   W12
 BYTE   N04
 BYTE   W12
 BYTE   N04
 BYTE   W12
 BYTE   Bn2
 BYTE   W60
 BYTE   PEND 
// 002   ----------------------------------------
 BYTE   N09  Fs2
 BYTE   W12
 BYTE   N04
 BYTE   W12
 BYTE   N04
 BYTE   W12
 BYTE   N04
 BYTE   W12
 BYTE   N09  Bn2
 BYTE   W12
 BYTE   N04
 BYTE   W24
 BYTE   N04
 BYTE   W12
// 003   ----------------------------------------
 BYTE   PATT
  POIN2 Label_3_0114B083
// 004   ----------------------------------------
 BYTE   N36  Fs2  v080
 BYTE   W36
 BYTE   N04  En2
 BYTE   W06
 BYTE   Fs2
 BYTE   W06
 BYTE   N36  Gs2
 BYTE   W36
 BYTE   N04  Fs2
 BYTE   W06
 BYTE   Gs2
 BYTE   W06
// 005   ----------------------------------------
 BYTE   N36  An2
 BYTE   W36
 BYTE   N04  Gs2
 BYTE   W06
 BYTE   Fs2
 BYTE   W06
 BYTE   N24  Gs2
 BYTE   W24
 BYTE   En2
 BYTE   W24
// 006   ----------------------------------------
Label_3_0114B0C1:
 BYTE   N09  Fs2  v080
 BYTE   W12
 BYTE   N09
 BYTE   W12
 BYTE   N09
 BYTE   W12
 BYTE   N09
 BYTE   W12
 BYTE   N09
 BYTE   W12
 BYTE   N09
 BYTE   W12
 BYTE   N09
 BYTE   W12
 BYTE   N09
 BYTE   W12
 BYTE   PEND 
// 007   ----------------------------------------
Label_3_0114B0D4:
 BYTE   N09  Dn2  v080
 BYTE   W12
 BYTE   N09
 BYTE   W12
 BYTE   N09
 BYTE   W12
 BYTE   N09
 BYTE   W12
 BYTE   En2
 BYTE   W12
 BYTE   N09
 BYTE   W12
 BYTE   N09
 BYTE   W12
 BYTE   N09
 BYTE   W12
 BYTE   PEND 
// 008   ----------------------------------------
 BYTE   PATT
  POIN2 Label_3_0114B0C1
// 009   ----------------------------------------
 BYTE   PATT
  POIN2 Label_3_0114B0C1
// 010   ----------------------------------------
 BYTE   PATT
  POIN2 Label_3_0114B0C1
// 011   ----------------------------------------
 BYTE   N09  Gs2  v080
 BYTE   W12
 BYTE   N09
 BYTE   W12
 BYTE   N09
 BYTE   W12
 BYTE   N09
 BYTE   W12
 BYTE   As2
 BYTE   W12
 BYTE   N09
 BYTE   W12
 BYTE   Cn3
 BYTE   W12
 BYTE   N09
 BYTE   W12
// 012   ----------------------------------------
 BYTE   Cs3
 BYTE   W12
 BYTE   N09
 BYTE   W12
 BYTE   N09
 BYTE   W12
 BYTE   N09
 BYTE   W12
 BYTE   N09
 BYTE   W12
 BYTE   N09
 BYTE   W12
 BYTE   N09
 BYTE   W12
 BYTE   N09
 BYTE   W12
// 013   ----------------------------------------
 BYTE   N09
 BYTE   W12
 BYTE   N09
 BYTE   W12
 BYTE   N09
 BYTE   W12
 BYTE   N09
 BYTE   W12
 BYTE   Cs3  v100
 BYTE   W12
 BYTE   Cs3  v076
 BYTE   W12
 BYTE   Cs3  v048
 BYTE   W12
 BYTE   Cs3  v024
 BYTE   W12
// 014   ----------------------------------------
 BYTE   W96
// 015   ----------------------------------------
 BYTE   W96
// 016   ----------------------------------------
 BYTE   W96
// 017   ----------------------------------------
 BYTE   W96
// 018   ----------------------------------------
 BYTE   W96
// 019   ----------------------------------------
 BYTE   W96
// 020   ----------------------------------------
 BYTE   N05  Cs3  v112
 BYTE   W06
 BYTE   Dn3
 BYTE   W06
 BYTE   En3
 BYTE   W06
 BYTE   Dn3
 BYTE   W06
 BYTE   N11  Cs3
 BYTE   W12
 BYTE   N05
 BYTE   W06
 BYTE   Dn3
 BYTE   W06
 BYTE   En3
 BYTE   W06
 BYTE   Dn3
 BYTE   W06
 BYTE   N11  Cs3
 BYTE   W12
 BYTE   N05
 BYTE   W06
 BYTE   Dn3
 BYTE   W06
 BYTE   En3
 BYTE   W06
 BYTE   Dn3
 BYTE   W06
// 021   ----------------------------------------
 BYTE   N90  Cs3
 BYTE   W96
// 022   ----------------------------------------
 BYTE   PATT
  POIN2 Label_3_0114B0D4
// 023   ----------------------------------------
 BYTE   N09  An2  v080
 BYTE   W12
 BYTE   N09
 BYTE   W12
 BYTE   N09
 BYTE   W12
 BYTE   N09
 BYTE   W12
 BYTE   Dn2
 BYTE   W12
 BYTE   N09
 BYTE   W12
 BYTE   N09
 BYTE   W12
 BYTE   N09
 BYTE   W12
// 024   ----------------------------------------
 BYTE   Bn2
 BYTE   W12
 BYTE   N09
 BYTE   W12
 BYTE   N09
 BYTE   W12
 BYTE   N09
 BYTE   W12
 BYTE   Cs3
 BYTE   W12
 BYTE   N09
 BYTE   W12
 BYTE   N09
 BYTE   W12
 BYTE   N09
 BYTE   W12
// 025   ----------------------------------------
 BYTE   Dn3
 BYTE   W12
 BYTE   N09
 BYTE   W12
 BYTE   N09
 BYTE   W12
 BYTE   N09
 BYTE   W12
 BYTE   Cs3
 BYTE   W12
 BYTE   N09
 BYTE   W12
 BYTE   N09
 BYTE   W12
 BYTE   N09
 BYTE   W12
// 026   ----------------------------------------
 BYTE   PATT
  POIN2 Label_3_0114B0D4
// 027   ----------------------------------------
 BYTE   N09  An2  v080
 BYTE   W12
 BYTE   N09
 BYTE   W12
 BYTE   N09
 BYTE   W12
 BYTE   N09
 BYTE   W12
 BYTE   En2
 BYTE   W12
 BYTE   N09
 BYTE   W12
 BYTE   N09
 BYTE   W12
 BYTE   N09
 BYTE   W12
// 028   ----------------------------------------
 BYTE   Fs2
 BYTE   W12
 BYTE   N09
 BYTE   W12
 BYTE   Gs2
 BYTE   W12
 BYTE   N09
 BYTE   W12
 BYTE   An2
 BYTE   W12
 BYTE   N09
 BYTE   W12
 BYTE   Bn2
 BYTE   W12
 BYTE   N09
 BYTE   W12
// 029   ----------------------------------------
 BYTE   GoTo
  POIN2 Label_3_0114B070
 BYTE   FINE

//**************** Track 5 (Midi-Chn.4) ****************//

FFLegend2LethalStrikeMrGreen3339_005:
// 000   ----------------------------------------
 BYTE   VOL   60*FFLegend2LethalStrikeMrGreen3339_mvl/mxv
 BYTE   KEYSH   FFLegend2LethalStrikeMrGreen3339_key+0
Label_4_0114B1C0:
 BYTE   VOICE   38
 BYTE   PAN   c_v+0
 BYTE   N11  Fs1  v112
 BYTE   W12
 BYTE   N11
 BYTE   W12
 BYTE   N11
 BYTE   W12
 BYTE   N11
 BYTE   W12
 BYTE   Bn1
 BYTE   W12
 BYTE   N11
 BYTE   W12
 BYTE   N11
 BYTE   W12
 BYTE   N11
 BYTE   W12
// 001   ----------------------------------------
 BYTE   Fs1
 BYTE   W12
 BYTE   N11
 BYTE   W12
 BYTE   N11
 BYTE   W12
 BYTE   Bn1
 BYTE   W24
 BYTE   N09  Fs1  v080
 BYTE   W12
 BYTE   N09
 BYTE   W12
 BYTE   N09
 BYTE   W12
// 002   ----------------------------------------
 BYTE   PAN   c_v+0
 BYTE   N11  Fs1  v112
 BYTE   W12
 BYTE   N11
 BYTE   W12
 BYTE   N11
 BYTE   W12
 BYTE   N11
 BYTE   W12
 BYTE   Bn1
 BYTE   W12
 BYTE   N11
 BYTE   W12
 BYTE   N11
 BYTE   W12
 BYTE   N11
 BYTE   W12
// 003   ----------------------------------------
 BYTE   Fs1
 BYTE   W12
 BYTE   N11
 BYTE   W12
 BYTE   N11
 BYTE   W12
 BYTE   Bn1
 BYTE   W60
// 004   ----------------------------------------
 BYTE   N09  Fs1  v080
 BYTE   W12
 BYTE   N09
 BYTE   W12
 BYTE   N09
 BYTE   W12
 BYTE   N09
 BYTE   W12
 BYTE   Gs1
 BYTE   W12
 BYTE   N09
 BYTE   W12
 BYTE   N09
 BYTE   W12
 BYTE   N09
 BYTE   W12
// 005   ----------------------------------------
 BYTE   An1
 BYTE   W12
 BYTE   N09
 BYTE   W12
 BYTE   N09
 BYTE   W12
 BYTE   N09
 BYTE   W12
 BYTE   En1
 BYTE   W12
 BYTE   N09
 BYTE   W12
 BYTE   N09
 BYTE   W12
 BYTE   N09
 BYTE   W12
// 006   ----------------------------------------
Label_4_0114B224:
 BYTE   N11  Fs0  v112
 BYTE   W12
 BYTE   Fs1
 BYTE   W12
 BYTE   Fs0
 BYTE   W12
 BYTE   Fs1
 BYTE   W12
 BYTE   Fs0
 BYTE   W12
 BYTE   Fs1
 BYTE   W12
 BYTE   Fs0
 BYTE   W12
 BYTE   Fs1
 BYTE   W12
 BYTE   PEND 
// 007   ----------------------------------------
 BYTE   Dn0
 BYTE   W12
 BYTE   Dn1
 BYTE   W12
 BYTE   Dn0
 BYTE   W12
 BYTE   Dn1
 BYTE   W12
 BYTE   En0
 BYTE   W12
 BYTE   En1
 BYTE   W12
 BYTE   En0
 BYTE   W12
 BYTE   En1
 BYTE   W12
// 008   ----------------------------------------
 BYTE   PATT
  POIN2 Label_4_0114B224
// 009   ----------------------------------------
 BYTE   PATT
  POIN2 Label_4_0114B224
// 010   ----------------------------------------
 BYTE   PATT
  POIN2 Label_4_0114B224
// 011   ----------------------------------------
 BYTE   N11  Gs0  v112
 BYTE   W12
 BYTE   Gs1
 BYTE   W12
 BYTE   Gs0
 BYTE   W12
 BYTE   Gs1
 BYTE   W12
 BYTE   As0
 BYTE   W12
 BYTE   As1
 BYTE   W12
 BYTE   Cn1
 BYTE   W12
 BYTE   Cn2
 BYTE   W12
// 012   ----------------------------------------
 BYTE   Cs1
 BYTE   W12
 BYTE   Cs2
 BYTE   W12
 BYTE   Cs1
 BYTE   W12
 BYTE   Cs2
 BYTE   W12
 BYTE   Cs1
 BYTE   W12
 BYTE   Cs2
 BYTE   W12
 BYTE   Cs1
 BYTE   W12
 BYTE   Cs2
 BYTE   W12
// 013   ----------------------------------------
 BYTE   Cs1
 BYTE   W12
 BYTE   Cs2
 BYTE   W12
 BYTE   Cs1
 BYTE   W12
 BYTE   Cs2
 BYTE   W12
 BYTE   Cs1  v100
 BYTE   W12
 BYTE   Cs2  v076
 BYTE   W12
 BYTE   Cs1  v048
 BYTE   W12
 BYTE   Cs2  v024
 BYTE   W12
// 014   ----------------------------------------
 BYTE   W96
// 015   ----------------------------------------
 BYTE   W96
// 016   ----------------------------------------
 BYTE   W96
// 017   ----------------------------------------
 BYTE   W96
// 018   ----------------------------------------
 BYTE   W96
// 019   ----------------------------------------
 BYTE   W96
// 020   ----------------------------------------
 BYTE   N32  Cs1  v112
 BYTE   W36
 BYTE   N32
 BYTE   W36
 BYTE   N20
 BYTE   W24
// 021   ----------------------------------------
 BYTE   Cs2
 BYTE   W24
 BYTE   Bn1
 BYTE   W24
 BYTE   An1
 BYTE   W24
 BYTE   Gs1
 BYTE   W24
// 022   ----------------------------------------
Label_4_0114B2A2:
 BYTE   N09  Dn0  v100
 BYTE   W12
 BYTE   Dn1
 BYTE   W12
 BYTE   Dn0
 BYTE   W12
 BYTE   Dn1
 BYTE   W12
 BYTE   En0
 BYTE   W12
 BYTE   En1
 BYTE   W12
 BYTE   En0
 BYTE   W12
 BYTE   En1
 BYTE   W12
 BYTE   PEND 
// 023   ----------------------------------------
 BYTE   An0
 BYTE   W12
 BYTE   An1
 BYTE   W12
 BYTE   An0
 BYTE   W12
 BYTE   An1
 BYTE   W12
 BYTE   Dn0
 BYTE   W12
 BYTE   Dn1
 BYTE   W12
 BYTE   Dn0
 BYTE   W12
 BYTE   Dn1
 BYTE   W12
// 024   ----------------------------------------
 BYTE   N11  Bn0  v112
 BYTE   W12
 BYTE   Bn1
 BYTE   W12
 BYTE   Bn0
 BYTE   W12
 BYTE   Bn1
 BYTE   W12
 BYTE   Cs1
 BYTE   W12
 BYTE   Cs2
 BYTE   W12
 BYTE   Cs1
 BYTE   W12
 BYTE   Cs2
 BYTE   W12
// 025   ----------------------------------------
 BYTE   Dn1
 BYTE   W12
 BYTE   Dn2
 BYTE   W12
 BYTE   Dn1
 BYTE   W12
 BYTE   Dn2
 BYTE   W12
 BYTE   Cs1
 BYTE   W12
 BYTE   Cs2
 BYTE   W12
 BYTE   Cs1
 BYTE   W12
 BYTE   Cs2
 BYTE   W12
// 026   ----------------------------------------
 BYTE   PATT
  POIN2 Label_4_0114B2A2
// 027   ----------------------------------------
 BYTE   N09  An0  v100
 BYTE   W12
 BYTE   An1
 BYTE   W12
 BYTE   An0
 BYTE   W12
 BYTE   An1
 BYTE   W12
 BYTE   En0
 BYTE   W12
 BYTE   En1
 BYTE   W12
 BYTE   En0
 BYTE   W12
 BYTE   En1
 BYTE   W12
// 028   ----------------------------------------
 BYTE   Fs0
 BYTE   W12
 BYTE   Fs1
 BYTE   W12
 BYTE   Gs0
 BYTE   W12
 BYTE   Gs1
 BYTE   W12
 BYTE   An0
 BYTE   W12
 BYTE   An1
 BYTE   W12
 BYTE   Bn0
 BYTE   W12
 BYTE   Bn1
 BYTE   W12
// 029   ----------------------------------------
 BYTE   GoTo
  POIN2 Label_4_0114B1C0
 BYTE   FINE

//**************** Track 6 (Midi-Chn.5) ****************//

FFLegend2LethalStrikeMrGreen3339_006:
// 000   ----------------------------------------
 BYTE   VOL   60*FFLegend2LethalStrikeMrGreen3339_mvl/mxv
 BYTE   KEYSH   FFLegend2LethalStrikeMrGreen3339_key+0
Label_5_0114B318:
 BYTE   VOICE   56
 BYTE   N09  Fs3  v080
 BYTE   N09  Fs4
 BYTE   W48
 BYTE   Bn3
 BYTE   N09  Bn4
 BYTE   W48
// 001   ----------------------------------------
Label_5_0114B324:
 BYTE   N09  Cs4  v080
 BYTE   N09  Cs5
 BYTE   W36
 BYTE   Ds4
 BYTE   N09  Ds5
 BYTE   W60
 BYTE   PEND 
// 002   ----------------------------------------
 BYTE   Fs3
 BYTE   N09  Fs4
 BYTE   W48
 BYTE   Bn3
 BYTE   N09  Bn4
 BYTE   W48
// 003   ----------------------------------------
 BYTE   PATT
  POIN2 Label_5_0114B324
// 004   ----------------------------------------
 BYTE   N36  Fs4  v080
 BYTE   N36  Fs5
 BYTE   W48
 BYTE   Gs4
 BYTE   N36  Gs5
 BYTE   W48
// 005   ----------------------------------------
 BYTE   An4
 BYTE   N36  An5
 BYTE   W48
 BYTE   N19  Gs4
 BYTE   N19  Gs5
 BYTE   W24
 BYTE   En4
 BYTE   N19  En5
 BYTE   W24
// 006   ----------------------------------------
 BYTE   N09  Fs4
 BYTE   N09  Fs5
 BYTE   W96
// 007   ----------------------------------------
 BYTE   W96
// 008   ----------------------------------------
 BYTE   W96
// 009   ----------------------------------------
 BYTE   W96
// 010   ----------------------------------------
 BYTE   W96
// 011   ----------------------------------------
 BYTE   W96
// 012   ----------------------------------------
 BYTE   W96
// 013   ----------------------------------------
 BYTE   W96
// 014   ----------------------------------------
 BYTE   W96
// 015   ----------------------------------------
 BYTE   W96
// 016   ----------------------------------------
 BYTE   W96
// 017   ----------------------------------------
 BYTE   W96
// 018   ----------------------------------------
 BYTE   W96
// 019   ----------------------------------------
 BYTE   W96
// 020   ----------------------------------------
 BYTE   N28  Cs4
 BYTE   N28  Cs5
 BYTE   W36
 BYTE   Cs4
 BYTE   N28  Cs5
 BYTE   W36
 BYTE   N19  Cs4
 BYTE   N19  Cs5
 BYTE   W24
// 021   ----------------------------------------
 BYTE   N09  Cs4
 BYTE   N09  Cs5
 BYTE   W96
// 022   ----------------------------------------
 BYTE   W96
// 023   ----------------------------------------
 BYTE   W96
// 024   ----------------------------------------
 BYTE   W96
// 025   ----------------------------------------
 BYTE   W96
// 026   ----------------------------------------
 BYTE   W96
// 027   ----------------------------------------
 BYTE   W96
// 028   ----------------------------------------
 BYTE   W96
// 029   ----------------------------------------
 BYTE   GoTo
  POIN2 Label_5_0114B318
 BYTE   FINE

//**************** Track 7 (Midi-Chn.6) ****************//

FFLegend2LethalStrikeMrGreen3339_007:
// 000   ----------------------------------------
 BYTE   KEYSH   FFLegend2LethalStrikeMrGreen3339_key+0
Label_6_0114B38A:
 BYTE   VOICE   48
 BYTE   VOL   56*FFLegend2LethalStrikeMrGreen3339_mvl/mxv
 BYTE   W96
// 001   ----------------------------------------
 BYTE   W60
 BYTE   N04  Cs4  v127
 BYTE   N04  Cs5
 BYTE   W06
 BYTE   Dn4
 BYTE   N04  Dn5
 BYTE   W06
 BYTE   Cs4
 BYTE   N04  Cs5
 BYTE   W06
 BYTE   Bn3
 BYTE   N04  Bn4
 BYTE   W06
 BYTE   An3
 BYTE   N04  An4
 BYTE   W06
 BYTE   Gs3
 BYTE   N04  Gs4
 BYTE   W06
// 002   ----------------------------------------
 BYTE   W96
// 003   ----------------------------------------
 BYTE   W72
 BYTE   Bn3  v080
 BYTE   N04  Bn4
 BYTE   W06
 BYTE   Cs4
 BYTE   N04  Cs5
 BYTE   W06
 BYTE   Dn4
 BYTE   N04  Dn5
 BYTE   W06
 BYTE   En4
 BYTE   N04  En5
 BYTE   W06
// 004   ----------------------------------------
 BYTE   N36  Fs4
 BYTE   N36  Fs5
 BYTE   W36
 BYTE   N04  En4
 BYTE   N04  En5
 BYTE   W06
 BYTE   Fs4
 BYTE   N04  Fs5
 BYTE   W06
 BYTE   N36  Gs4
 BYTE   N36  Gs5
 BYTE   W36
 BYTE   N04  Fs4
 BYTE   N04  Fs5
 BYTE   W06
 BYTE   Gs4
 BYTE   N04  Gs5
 BYTE   W06
// 005   ----------------------------------------
 BYTE   N36  An4
 BYTE   N36  An5
 BYTE   W36
 BYTE   N04  Gs4
 BYTE   N04  Gs5
 BYTE   W06
 BYTE   Fs4
 BYTE   N04  Fs5
 BYTE   W06
 BYTE   N24  Gs4
 BYTE   N24  Gs5
 BYTE   W24
 BYTE   En4
 BYTE   N24  En5
 BYTE   W24
// 006   ----------------------------------------
Label_6_0114B3F0:
 BYTE   N09  An3  v116
 BYTE   N09  Fs4
 BYTE   N09  An4
 BYTE   W12
 BYTE   N04  Gs3
 BYTE   N04  En4
 BYTE   N04  Gs4
 BYTE   W12
 BYTE   Fs3
 BYTE   N04  Cs4
 BYTE   N04  Fs4
 BYTE   W12
 BYTE   Gs3
 BYTE   N04  En4
 BYTE   N04  Gs4
 BYTE   W12
 BYTE   An3
 BYTE   N04  Fs4
 BYTE   N04  An4
 BYTE   W24
 BYTE   N19  Cs4
 BYTE   N19  An4
 BYTE   N19  Cs5
 BYTE   W24
 BYTE   PEND 
// 007   ----------------------------------------
 BYTE   N09  Bn3
 BYTE   N09  Gs4
 BYTE   N09  Bn4
 BYTE   W12
 BYTE   N04  Cs4
 BYTE   N04  An4
 BYTE   N04  Cs5
 BYTE   W12
 BYTE   Bn3
 BYTE   N04  Gs4
 BYTE   N04  Bn4
 BYTE   W12
 BYTE   An3
 BYTE   N04  Fs4
 BYTE   N04  An4
 BYTE   W12
 BYTE   Gs3
 BYTE   N04  En4
 BYTE   N04  Gs4
 BYTE   W24
 BYTE   N19  En3
 BYTE   N19  Bn3
 BYTE   N19  En4
 BYTE   W24
// 008   ----------------------------------------
 BYTE   N04  An3
 BYTE   N04  Fs4
 BYTE   N04  An4
 BYTE   W12
 BYTE   Gs3
 BYTE   N04  En4
 BYTE   N04  Gs4
 BYTE   W12
 BYTE   TIE  Fs3
 BYTE   TIE  Cs4
 BYTE   TIE  Fs4
 BYTE   W72
// 009   ----------------------------------------
 BYTE   W76
 BYTE   EOT
 BYTE   Fs3  v073
 BYTE   Fs4
 BYTE   W20
// 010   ----------------------------------------
 BYTE   PATT
  POIN2 Label_6_0114B3F0
// 011   ----------------------------------------
 BYTE   N18  Cn4  v116
 BYTE   N18  Gs4
 BYTE   N18  Cn5
 BYTE   W24
 BYTE   N06  Cn4
 BYTE   N06  Gs4
 BYTE   N06  Cn5
 BYTE   W12
 BYTE   Cs4
 BYTE   N06  Gs4
 BYTE   N06  Cs5
 BYTE   W12
 BYTE   Ds4
 BYTE   N06  As4
 BYTE   N06  Ds5
 BYTE   W24
 BYTE   N24  Fs4
 BYTE   N24  Cn5
 BYTE   N24  Fs5
 BYTE   W24
// 012   ----------------------------------------
 BYTE   N04  En4
 BYTE   N04  Cs5
 BYTE   N04  En5
 BYTE   W12
 BYTE   Ds4
 BYTE   N04  Ds5
 BYTE   W12
 BYTE   TIE  En4
 BYTE   TIE  Cs5
 BYTE   TIE  En5
 BYTE   W72
// 013   ----------------------------------------
 BYTE   W84
 BYTE   W02
 BYTE   EOT
 BYTE   En4  v085
 BYTE   En5
 BYTE   W10
// 014   ----------------------------------------
 BYTE   W96
// 015   ----------------------------------------
 BYTE   W96
// 016   ----------------------------------------
 BYTE   W96
// 017   ----------------------------------------
 BYTE   W96
// 018   ----------------------------------------
 BYTE   N32  Dn5
 BYTE   W36
 BYTE   N11  Cs5
 BYTE   W12
 BYTE   N20  Bn4
 BYTE   W24
 BYTE   An4
 BYTE   W24
// 019   ----------------------------------------
 BYTE   Gs4
 BYTE   W24
 BYTE   An4
 BYTE   W24
 BYTE   Bn4
 BYTE   W24
 BYTE   Gs4
 BYTE   W24
// 020   ----------------------------------------
 BYTE   W96
// 021   ----------------------------------------
 BYTE   W96
// 022   ----------------------------------------
 BYTE   W96
// 023   ----------------------------------------
 BYTE   W96
// 024   ----------------------------------------
 BYTE   N09  Bn3
 BYTE   N09  Fs4
 BYTE   N09  Bn4
 BYTE   W12
 BYTE   N04  Cs4
 BYTE   N04  An4
 BYTE   N04  Cs5
 BYTE   W12
 BYTE   Dn4
 BYTE   N04  Bn4
 BYTE   N04  Dn5
 BYTE   W12
 BYTE   Bn3
 BYTE   N04  Fs4
 BYTE   N04  Bn4
 BYTE   W12
 BYTE   Cs4
 BYTE   N04  An4
 BYTE   N04  Cs5
 BYTE   W24
 BYTE   N19  En4
 BYTE   N19  Cs5
 BYTE   N19  En5
 BYTE   W24
// 025   ----------------------------------------
 BYTE   N28  Fs4
 BYTE   N28  Dn5
 BYTE   N28  Fs5
 BYTE   W36
 BYTE   N04  Gs4
 BYTE   N04  En5
 BYTE   N04  Gs5
 BYTE   W06
 BYTE   Fs4
 BYTE   N04  Dn5
 BYTE   N04  Fs5
 BYTE   W06
 BYTE   Fn4
 BYTE   N04  Cs5
 BYTE   N04  Fn5
 BYTE   W24
 BYTE   N19  Cs4
 BYTE   N19  Gs4
 BYTE   N19  Cs5
 BYTE   W24
// 026   ----------------------------------------
 BYTE   W96
// 027   ----------------------------------------
 BYTE   W96
// 028   ----------------------------------------
 BYTE   W96
// 029   ----------------------------------------
 BYTE   GoTo
  POIN2 Label_6_0114B38A
 BYTE   FINE

//**************** Track 8 (Midi-Chn.7) ****************//

FFLegend2LethalStrikeMrGreen3339_008:
// 000   ----------------------------------------
 BYTE   VOL   60*FFLegend2LethalStrikeMrGreen3339_mvl/mxv
 BYTE   KEYSH   FFLegend2LethalStrikeMrGreen3339_key+0
Label_7_0114B50C:
 BYTE   VOICE   46
 BYTE   W96
// 001   ----------------------------------------
 BYTE   W96
// 002   ----------------------------------------
 BYTE   W96
// 003   ----------------------------------------
 BYTE   W96
// 004   ----------------------------------------
 BYTE   W96
// 005   ----------------------------------------
 BYTE   W96
// 006   ----------------------------------------
 BYTE   W96
// 007   ----------------------------------------
 BYTE   W96
// 008   ----------------------------------------
 BYTE   W96
// 009   ----------------------------------------
 BYTE   W96
// 010   ----------------------------------------
 BYTE   W96
// 011   ----------------------------------------
 BYTE   W96
// 012   ----------------------------------------
 BYTE   W96
// 013   ----------------------------------------
 BYTE   W96
// 014   ----------------------------------------
 BYTE   N09  Fs2  v080
 BYTE   W12
 BYTE   Cs3
 BYTE   W12
 BYTE   Fs3
 BYTE   W12
 BYTE   Cs3
 BYTE   W12
 BYTE   Gs3
 BYTE   W12
 BYTE   Cs4
 BYTE   W12
 BYTE   As3
 BYTE   W12
 BYTE   En4
 BYTE   W12
// 015   ----------------------------------------
 BYTE   Dn4
 BYTE   W12
 BYTE   Bn3
 BYTE   W12
 BYTE   Dn4
 BYTE   W12
 BYTE   Fs3
 BYTE   W12
 BYTE   Bn3
 BYTE   W12
 BYTE   Fs3
 BYTE   W12
 BYTE   Dn4
 BYTE   W12
 BYTE   Dn3
 BYTE   W12
// 016   ----------------------------------------
 BYTE   En2
 BYTE   W12
 BYTE   Bn2
 BYTE   W12
 BYTE   En3
 BYTE   W12
 BYTE   Bn2
 BYTE   W12
 BYTE   Fs3
 BYTE   W12
 BYTE   Bn3
 BYTE   W12
 BYTE   Gs3
 BYTE   W12
 BYTE   Dn4
 BYTE   W12
// 017   ----------------------------------------
 BYTE   Cs4
 BYTE   W12
 BYTE   An3
 BYTE   W12
 BYTE   Cs4
 BYTE   W12
 BYTE   En3
 BYTE   W12
 BYTE   An3
 BYTE   W12
 BYTE   En3
 BYTE   W12
 BYTE   Cs4
 BYTE   W12
 BYTE   Cs3
 BYTE   W12
// 018   ----------------------------------------
 BYTE   Dn3
 BYTE   W12
 BYTE   An3
 BYTE   W12
 BYTE   Dn4
 BYTE   W12
 BYTE   Cs3
 BYTE   W12
 BYTE   Bn2
 BYTE   W12
 BYTE   Fs3
 BYTE   W12
 BYTE   An2
 BYTE   W12
 BYTE   Fs3
 BYTE   W12
// 019   ----------------------------------------
 BYTE   Gs2
 BYTE   W12
 BYTE   En3
 BYTE   W12
 BYTE   An2
 BYTE   W12
 BYTE   En3
 BYTE   W12
 BYTE   Bn2
 BYTE   W12
 BYTE   Fs3
 BYTE   W12
 BYTE   Gs3
 BYTE   W12
 BYTE   Gs2
 BYTE   W12
// 020   ----------------------------------------
 BYTE   Cs4
 BYTE   W12
 BYTE   Cs3
 BYTE   W12
 BYTE   N09
 BYTE   W12
 BYTE   Cs4
 BYTE   W12
 BYTE   Cs3
 BYTE   W12
 BYTE   N09
 BYTE   W12
 BYTE   Cs4
 BYTE   W12
 BYTE   Cs3
 BYTE   W12
// 021   ----------------------------------------
 BYTE   N09
 BYTE   W12
 BYTE   Cs4
 BYTE   W12
 BYTE   Bn2
 BYTE   W12
 BYTE   Bn3
 BYTE   W12
 BYTE   An2
 BYTE   W12
 BYTE   An3
 BYTE   W12
 BYTE   Gs2
 BYTE   N09  Gs3
 BYTE   W24
// 022   ----------------------------------------
 BYTE   W96
// 023   ----------------------------------------
 BYTE   W96
// 024   ----------------------------------------
 BYTE   W96
// 025   ----------------------------------------
 BYTE   W96
// 026   ----------------------------------------
 BYTE   W96
// 027   ----------------------------------------
 BYTE   W96
// 028   ----------------------------------------
 BYTE   W96
// 029   ----------------------------------------
 BYTE   GoTo
  POIN2 Label_7_0114B50C
 BYTE   FINE

//**************** Track 9 (Midi-Chn.8) ****************//

FFLegend2LethalStrikeMrGreen3339_009:
// 000   ----------------------------------------
 BYTE   VOL   60*FFLegend2LethalStrikeMrGreen3339_mvl/mxv
 BYTE   KEYSH   FFLegend2LethalStrikeMrGreen3339_key+0
Label_8_0114B5B0:
 BYTE   VOICE   73
 BYTE   W96
// 001   ----------------------------------------
 BYTE   W96
// 002   ----------------------------------------
 BYTE   W96
// 003   ----------------------------------------
 BYTE   W96
// 004   ----------------------------------------
 BYTE   W96
// 005   ----------------------------------------
 BYTE   W96
// 006   ----------------------------------------
 BYTE   W96
// 007   ----------------------------------------
 BYTE   W96
// 008   ----------------------------------------
 BYTE   W96
// 009   ----------------------------------------
 BYTE   W96
// 010   ----------------------------------------
 BYTE   W96
// 011   ----------------------------------------
 BYTE   W96
// 012   ----------------------------------------
 BYTE   W96
// 013   ----------------------------------------
 BYTE   W96
// 014   ----------------------------------------
 BYTE   N20  Fs4  v112
 BYTE   W24
 BYTE   N11
 BYTE   W12
 BYTE   Gn4
 BYTE   W12
 BYTE   N20  Fs4
 BYTE   W24
 BYTE   En4
 BYTE   W24
// 015   ----------------------------------------
 BYTE   N11  Dn4
 BYTE   W12
 BYTE   Cs4
 BYTE   W12
 BYTE   N20  Dn4
 BYTE   W24
 BYTE   N11  Bn3
 BYTE   W12
 BYTE   Cs4
 BYTE   W12
 BYTE   Dn4
 BYTE   W12
 BYTE   Fs4
 BYTE   W12
// 016   ----------------------------------------
 BYTE   N20  En4
 BYTE   W24
 BYTE   N11
 BYTE   W12
 BYTE   Fs4
 BYTE   W12
 BYTE   N20  En4
 BYTE   W24
 BYTE   Dn4
 BYTE   W24
// 017   ----------------------------------------
 BYTE   N11  Cs4
 BYTE   W12
 BYTE   Bn3
 BYTE   W12
 BYTE   N20  Cs4
 BYTE   W24
 BYTE   N11  An3
 BYTE   W12
 BYTE   Bn3
 BYTE   W12
 BYTE   Cs4
 BYTE   W12
 BYTE   En4
 BYTE   W12
// 018   ----------------------------------------
 BYTE   N32  Dn4
 BYTE   W36
 BYTE   N11  Cs4
 BYTE   W12
 BYTE   N20  Bn3
 BYTE   W24
 BYTE   An3
 BYTE   W24
// 019   ----------------------------------------
 BYTE   Gs3
 BYTE   W24
 BYTE   An3
 BYTE   W24
 BYTE   Bn3
 BYTE   W24
 BYTE   Gs3
 BYTE   W24
// 020   ----------------------------------------
 BYTE   N05  Cs4
 BYTE   W06
 BYTE   Dn4
 BYTE   W06
 BYTE   En4
 BYTE   W06
 BYTE   Dn4
 BYTE   W06
 BYTE   N11  Cs4
 BYTE   W12
 BYTE   N05
 BYTE   W06
 BYTE   Dn4
 BYTE   W06
 BYTE   En4
 BYTE   W06
 BYTE   Dn4
 BYTE   W06
 BYTE   N11  Cs4
 BYTE   W12
 BYTE   N05
 BYTE   W06
 BYTE   Dn4
 BYTE   W06
 BYTE   En4
 BYTE   W06
 BYTE   Dn4
 BYTE   W06
// 021   ----------------------------------------
 BYTE   N90  Cs4
 BYTE   W96
// 022   ----------------------------------------
 BYTE   W96
// 023   ----------------------------------------
 BYTE   W96
// 024   ----------------------------------------
 BYTE   W96
// 025   ----------------------------------------
 BYTE   W96
// 026   ----------------------------------------
 BYTE   W96
// 027   ----------------------------------------
 BYTE   W96
// 028   ----------------------------------------
 BYTE   W96
// 029   ----------------------------------------
 BYTE   GoTo
  POIN2 Label_8_0114B5B0
 BYTE   FINE

//******************************************************//
	ALIGN 4

FFLegend2LethalStrikeMrGreen3339:
	BYTE	9	// NumTrks
	BYTE	0	// NumBlks
	BYTE	FFLegend2LethalStrikeMrGreen3339_pri	// Priority
	BYTE	FFLegend2LethalStrikeMrGreen3339_rev	// Reverb.
    
	POIN2	FFLegend2LethalStrikeMrGreen3339_grp
    
	POIN2	FFLegend2LethalStrikeMrGreen3339_001
	POIN2	FFLegend2LethalStrikeMrGreen3339_002
	POIN2	FFLegend2LethalStrikeMrGreen3339_003
	POIN2	FFLegend2LethalStrikeMrGreen3339_004
	POIN2	FFLegend2LethalStrikeMrGreen3339_005
	POIN2	FFLegend2LethalStrikeMrGreen3339_006
	POIN2	FFLegend2LethalStrikeMrGreen3339_007
	POIN2	FFLegend2LethalStrikeMrGreen3339_008
	POIN2	FFLegend2LethalStrikeMrGreen3339_009

	
