//Event file generated from Sappy .s format.
	#include "MPlayDef.event"

	#define	FFLegend2DreadfulFightMrGreeen3339_grp  voicegroup000
	#define	FFLegend2DreadfulFightMrGreeen3339_pri  0
	#define	FFLegend2DreadfulFightMrGreeen3339_rev  0
	#define	FFLegend2DreadfulFightMrGreeen3339_mvl  127
	#define	FFLegend2DreadfulFightMrGreeen3339_key  0
	#define	FFLegend2DreadfulFightMrGreeen3339_tbs  1
	#define	FFLegend2DreadfulFightMrGreeen3339_exg  0
	#define	FFLegend2DreadfulFightMrGreeen3339_cmp  1

	// .rodata
	//	FFLegend2DreadfulFightMrGreeen3339
	ALIGN 4


//**************** Track 1 (Midi-Chn.0) ****************//

FFLegend2DreadfulFightMrGreeen3339_001:
// 000   ----------------------------------------
 BYTE   VOL   60*FFLegend2DreadfulFightMrGreeen3339_mvl/mxv
 BYTE   KEYSH   FFLegend2DreadfulFightMrGreeen3339_key+0
 BYTE   TEMPO   160*FFLegend2DreadfulFightMrGreeen3339_tbs/2
 BYTE   VOICE   29
 BYTE   N05  En2  v127
 BYTE   N11  En3
 BYTE   W12
 BYTE   N05  En2
 BYTE   W12
 BYTE   N05
 BYTE   N11  En3
 BYTE   W12
 BYTE   N05  En2
 BYTE   W12
 BYTE   Fs2
 BYTE   N11  Fs3
 BYTE   W12
 BYTE   N05  Fs2
 BYTE   W12
 BYTE   N05
 BYTE   N11  Fs3
 BYTE   W12
 BYTE   N05  Fs2
 BYTE   W12
// 001   ----------------------------------------
 BYTE   Gn2
 BYTE   N11  Gn3
 BYTE   W12
 BYTE   N05  Gn2
 BYTE   W12
 BYTE   N05
 BYTE   N11  Gn3
 BYTE   W12
 BYTE   N05  Gn2
 BYTE   W12
 BYTE   An2
 BYTE   N11  An3
 BYTE   W12
 BYTE   N05  An2
 BYTE   W12
 BYTE   N05
 BYTE   N11  An3
 BYTE   W12
 BYTE   N05  An2
 BYTE   W12
// 002   ----------------------------------------
 BYTE   Bn2
 BYTE   N11  Bn3
 BYTE   W12
 BYTE   N05  Bn2
 BYTE   W12
 BYTE   N05
 BYTE   N11  Bn3
 BYTE   W12
 BYTE   N05  Bn2
 BYTE   W12
 BYTE   Fs2
 BYTE   N11  Fs3
 BYTE   W12
 BYTE   N05  Fs2
 BYTE   W12
 BYTE   N05
 BYTE   N11  Fs3
 BYTE   W12
 BYTE   N05  Fs2
 BYTE   W12
// 003   ----------------------------------------
 BYTE   N56  Bn2
 BYTE   N56  En3
 BYTE   N56  Bn3
 BYTE   W24
 BYTE   N32  Bn4
 BYTE   W36
 BYTE   N11  En4
 BYTE   W12
 BYTE   Ds4
 BYTE   W12
 BYTE   Bn3
 BYTE   W12
// 004   ----------------------------------------
Label_0_011488EF:
 BYTE   N32  En4  v127
 BYTE   W36
 BYTE   N23  Bn3
 BYTE   W24
 BYTE   N11  En4
 BYTE   W12
 BYTE   Fs4
 BYTE   W12
 BYTE   Gn4
 BYTE   W12
 BYTE   PEND 
// 005   ----------------------------------------
Label_0_011488FE:
 BYTE   N11  An4  v127
 BYTE   W12
 BYTE   N05  Gn4
 BYTE   W06
 BYTE   An4
 BYTE   W06
 BYTE   N11  Gn4
 BYTE   W12
 BYTE   N05  Fs4
 BYTE   W06
 BYTE   Gn4
 BYTE   W06
 BYTE   N11  Fs4
 BYTE   W12
 BYTE   N05  En4
 BYTE   W06
 BYTE   Fs4
 BYTE   W06
 BYTE   N11  En4
 BYTE   W12
 BYTE   N05  Dn4
 BYTE   W06
 BYTE   En4
 BYTE   W06
 BYTE   PEND 
// 006   ----------------------------------------
Label_0_01148920:
 BYTE   N32  Dn4  v127
 BYTE   W36
 BYTE   N05  Cn4
 BYTE   W06
 BYTE   Bn3
 BYTE   W06
 BYTE   N44  An3
 BYTE   W48
 BYTE   PEND 
// 007   ----------------------------------------
Label_0_0114892D:
 BYTE   W12
 BYTE   N11  Fs3  v127
 BYTE   W12
 BYTE   Gn3
 BYTE   W12
 BYTE   An3
 BYTE   W12
 BYTE   Gn3
 BYTE   W12
 BYTE   Fs3
 BYTE   W12
 BYTE   En3
 BYTE   W12
 BYTE   Dn3
 BYTE   W12
 BYTE   PEND 
// 008   ----------------------------------------
Label_0_0114893F:
 BYTE   N05  Cn3  v127
 BYTE   W06
 BYTE   Dn3
 BYTE   W06
 BYTE   En3
 BYTE   W06
 BYTE   Fs3
 BYTE   W06
 BYTE   Gn3
 BYTE   W06
 BYTE   Fs3
 BYTE   W06
 BYTE   Gn3
 BYTE   W06
 BYTE   An3
 BYTE   W06
 BYTE   N11  Bn3
 BYTE   W12
 BYTE   En4
 BYTE   W12
 BYTE   Dn4
 BYTE   W12
 BYTE   Bn3
 BYTE   W12
 BYTE   PEND 
// 009   ----------------------------------------
Label_0_0114895B:
 BYTE   N05  An3  v127
 BYTE   W06
 BYTE   Bn3
 BYTE   W06
 BYTE   Cn4
 BYTE   W06
 BYTE   Bn3
 BYTE   W06
 BYTE   An3
 BYTE   W06
 BYTE   Gn3
 BYTE   W06
 BYTE   Fs3
 BYTE   W06
 BYTE   Gn3
 BYTE   W06
 BYTE   N11  An3
 BYTE   W12
 BYTE   N05  Gn3
 BYTE   W06
 BYTE   An3
 BYTE   W06
 BYTE   N11  Bn3
 BYTE   W12
 BYTE   N05  An3
 BYTE   W06
 BYTE   Bn3
 BYTE   W06
 BYTE   PEND 
// 010   ----------------------------------------
Label_0_0114897E:
 BYTE   N11  Cn4  v127
 BYTE   W12
 BYTE   Bn3
 BYTE   W12
 BYTE   Cn4
 BYTE   W12
 BYTE   Dn4
 BYTE   W12
 BYTE   En4
 BYTE   W12
 BYTE   Gn4
 BYTE   W12
 BYTE   Fs4
 BYTE   W12
 BYTE   En4
 BYTE   W12
 BYTE   PEND 
// 011   ----------------------------------------
 BYTE   Ds4
 BYTE   N11  Fs4  v100
 BYTE   W12
 BYTE   Cs4  v127
 BYTE   N11  En4  v100
 BYTE   W12
 BYTE   Ds4  v127
 BYTE   N11  Fs4  v100
 BYTE   W12
 BYTE   En4  v127
 BYTE   N11  Gn4  v100
 BYTE   W12
 BYTE   N23  Fs4  v127
 BYTE   N11  An4  v100
 BYTE   W12
 BYTE   An4  v127
 BYTE   N11  Cn5  v100
 BYTE   W12
 BYTE   Gn4  v127
 BYTE   N11  Bn4  v100
 BYTE   W12
 BYTE   Fs4  v127
 BYTE   N11  An4  v100
 BYTE   W12
// 012   ----------------------------------------
 BYTE   PATT
  POIN2 Label_0_011488EF
// 013   ----------------------------------------
 BYTE   PATT
  POIN2 Label_0_011488FE
// 014   ----------------------------------------
 BYTE   PATT
  POIN2 Label_0_01148920
// 015   ----------------------------------------
 BYTE   PATT
  POIN2 Label_0_0114892D
// 016   ----------------------------------------
 BYTE   PATT
  POIN2 Label_0_0114893F
// 017   ----------------------------------------
 BYTE   PATT
  POIN2 Label_0_0114895B
// 018   ----------------------------------------
 BYTE   PATT
  POIN2 Label_0_0114897E
// 019   ----------------------------------------
 BYTE   N23  Ds4  v127
 BYTE   W24
 BYTE   Bn3
 BYTE   W24
 BYTE   N11  Bn4
 BYTE   W12
 BYTE   An4
 BYTE   W12
 BYTE   Gn4
 BYTE   W12
 BYTE   Fs4
 BYTE   W12
// 020   ----------------------------------------
 BYTE   N44  Gn4
 BYTE   W60
 BYTE   N05  Fs4
 BYTE   W06
 BYTE   Gn4
 BYTE   W06
 BYTE   An4
 BYTE   W06
 BYTE   Gn4
 BYTE   W06
 BYTE   Fs4
 BYTE   W06
 BYTE   En4
 BYTE   W06
// 021   ----------------------------------------
 BYTE   N23  Ds4
 BYTE   W24
 BYTE   N05
 BYTE   W06
 BYTE   En4
 BYTE   W06
 BYTE   Fs4
 BYTE   W06
 BYTE   Gn4
 BYTE   W06
 BYTE   N32  Bn4
 BYTE   W48
// 022   ----------------------------------------
 BYTE   VOICE   29
 BYTE   N44  En2
 BYTE   N05  En3
 BYTE   N11  En4
 BYTE   W12
 BYTE   N05  En3
 BYTE   W12
 BYTE   N05
 BYTE   N11  En4
 BYTE   W12
 BYTE   N05  En3
 BYTE   W12
 BYTE   N44  Fs2
 BYTE   N05  Fs3
 BYTE   N11  Fs4
 BYTE   W12
 BYTE   N05  Fs3
 BYTE   W12
 BYTE   N05
 BYTE   N11  Fs4
 BYTE   W12
 BYTE   N05  Fs3
 BYTE   W12
// 023   ----------------------------------------
 BYTE   N44  Gn2
 BYTE   N05  Gn3
 BYTE   N11  Gn4
 BYTE   W12
 BYTE   N05  Gn3
 BYTE   W12
 BYTE   N05
 BYTE   N11  Gn4
 BYTE   W12
 BYTE   N05  Gn3
 BYTE   W12
 BYTE   N44  An2
 BYTE   N05  An3
 BYTE   N11  An4
 BYTE   W12
 BYTE   N05  An3
 BYTE   W12
 BYTE   N05
 BYTE   N11  An4
 BYTE   W12
 BYTE   N05  An3
 BYTE   W12
// 024   ----------------------------------------
 BYTE   N44  Bn2
 BYTE   N05  Bn3
 BYTE   N11  Bn4
 BYTE   W12
 BYTE   N05  Bn3
 BYTE   W12
 BYTE   N05
 BYTE   N11  Bn4
 BYTE   W12
 BYTE   N05  Bn3
 BYTE   W12
 BYTE   N44  Fs2
 BYTE   N05  Fs3
 BYTE   N11  Fs4
 BYTE   W12
 BYTE   N05  Fs3
 BYTE   W12
 BYTE   N05
 BYTE   N11  Fs4
 BYTE   W12
 BYTE   N05  Fs3
 BYTE   W12
// 025   ----------------------------------------
 BYTE   N56  Bn2
 BYTE   N56  En3
 BYTE   N56  Bn3
 BYTE   N56  En4
 BYTE   W24
 BYTE   N32  Bn4
 BYTE   W36
 BYTE   N11  En4
 BYTE   W12
 BYTE   Ds4
 BYTE   W12
 BYTE   Bn3
 BYTE   W12
// 026   ----------------------------------------
 BYTE   PATT
  POIN2 Label_0_011488EF
// 027   ----------------------------------------
 BYTE   GoTo
  POIN2 Label_0_011488FE
 BYTE   FINE

//**************** Track 2 (Midi-Chn.1) ****************//

FFLegend2DreadfulFightMrGreeen3339_002:
// 000   ----------------------------------------
 BYTE   KEYSH   FFLegend2DreadfulFightMrGreeen3339_key+0
 BYTE   VOICE   30
 BYTE   VOL   60*FFLegend2DreadfulFightMrGreeen3339_mvl/mxv
 BYTE   N05  En1  v127
 BYTE   N11  En2
 BYTE   W12
 BYTE   N05  En1
 BYTE   W12
 BYTE   N05
 BYTE   N11  En2
 BYTE   W12
 BYTE   N05  En1
 BYTE   W12
 BYTE   Fs1
 BYTE   N11  Fs2
 BYTE   W12
 BYTE   N05  Fs1
 BYTE   W12
 BYTE   N05
 BYTE   N11  Fs2
 BYTE   W12
 BYTE   N05  Fs1
 BYTE   W12
// 001   ----------------------------------------
 BYTE   Gn1
 BYTE   N11  Gn2
 BYTE   W12
 BYTE   N05  Gn1
 BYTE   W12
 BYTE   N05
 BYTE   N11  Gn2
 BYTE   W12
 BYTE   N05  Gn1
 BYTE   W12
 BYTE   An1
 BYTE   N11  An2
 BYTE   W12
 BYTE   N05  An1
 BYTE   W12
 BYTE   N05
 BYTE   N11  An2
 BYTE   W12
 BYTE   N05  An1
 BYTE   W12
// 002   ----------------------------------------
 BYTE   Bn1
 BYTE   N11  Bn2
 BYTE   W12
 BYTE   N05  Bn1
 BYTE   W12
 BYTE   N05
 BYTE   N11  Bn2
 BYTE   W12
 BYTE   N05  Bn1
 BYTE   W12
 BYTE   Fs1
 BYTE   N11  Fs2
 BYTE   W12
 BYTE   N05  Fs1
 BYTE   W12
 BYTE   N05
 BYTE   N11  Fs2
 BYTE   W12
 BYTE   N05  Fs1
 BYTE   W12
// 003   ----------------------------------------
 BYTE   N56  Bn1
 BYTE   N56  En2
 BYTE   N56  Bn2
 BYTE   W60
 BYTE   N11  En3
 BYTE   W12
 BYTE   Ds3
 BYTE   W12
 BYTE   Bn2
 BYTE   W12
// 004   ----------------------------------------
Label_1_01148B02:
 BYTE   N32  En3  v127
 BYTE   W36
 BYTE   N23  Bn2
 BYTE   W24
 BYTE   N11  En3
 BYTE   W12
 BYTE   Fs3
 BYTE   W12
 BYTE   Gn3
 BYTE   W12
 BYTE   PEND 
// 005   ----------------------------------------
Label_1_01148B11:
 BYTE   N11  An3  v127
 BYTE   W12
 BYTE   N05  Gn3
 BYTE   W06
 BYTE   An3
 BYTE   W06
 BYTE   N11  Gn3
 BYTE   W12
 BYTE   N05  Fs3
 BYTE   W06
 BYTE   Gn3
 BYTE   W06
 BYTE   N11  Fs3
 BYTE   W12
 BYTE   N05  En3
 BYTE   W06
 BYTE   Fs3
 BYTE   W06
 BYTE   N11  En3
 BYTE   W12
 BYTE   N05  Dn3
 BYTE   W06
 BYTE   En3
 BYTE   W06
 BYTE   PEND 
// 006   ----------------------------------------
Label_1_01148B33:
 BYTE   N32  Dn3  v127
 BYTE   W36
 BYTE   N05  Cn3
 BYTE   W06
 BYTE   Bn2
 BYTE   W06
 BYTE   N44  An2
 BYTE   W48
 BYTE   PEND 
// 007   ----------------------------------------
Label_1_01148B40:
 BYTE   W12
 BYTE   N11  Fs2  v127
 BYTE   W12
 BYTE   Gn2
 BYTE   W12
 BYTE   An2
 BYTE   W12
 BYTE   Gn2
 BYTE   W12
 BYTE   Fs2
 BYTE   W12
 BYTE   En2
 BYTE   W12
 BYTE   Dn2
 BYTE   W12
 BYTE   PEND 
// 008   ----------------------------------------
Label_1_01148B52:
 BYTE   N05  Cn2  v127
 BYTE   W06
 BYTE   Dn2
 BYTE   W06
 BYTE   En2
 BYTE   W06
 BYTE   Fs2
 BYTE   W06
 BYTE   Gn2
 BYTE   W06
 BYTE   Fs2
 BYTE   W06
 BYTE   Gn2
 BYTE   W06
 BYTE   An2
 BYTE   W06
 BYTE   N11  Bn2
 BYTE   W12
 BYTE   En3
 BYTE   W12
 BYTE   Dn3
 BYTE   W12
 BYTE   Bn2
 BYTE   W12
 BYTE   PEND 
// 009   ----------------------------------------
Label_1_01148B6E:
 BYTE   N05  An2  v127
 BYTE   W06
 BYTE   Bn2
 BYTE   W06
 BYTE   Cn3
 BYTE   W06
 BYTE   Bn2
 BYTE   W06
 BYTE   An2
 BYTE   W06
 BYTE   Gn2
 BYTE   W06
 BYTE   Fs2
 BYTE   W06
 BYTE   Gn2
 BYTE   W06
 BYTE   N11  An2
 BYTE   W12
 BYTE   N05  Gn2
 BYTE   W06
 BYTE   An2
 BYTE   W06
 BYTE   N11  Bn2
 BYTE   W12
 BYTE   N05  An2
 BYTE   W06
 BYTE   Bn2
 BYTE   W06
 BYTE   PEND 
// 010   ----------------------------------------
Label_1_01148B91:
 BYTE   N11  Cn3  v127
 BYTE   W12
 BYTE   Bn2
 BYTE   W12
 BYTE   Cn3
 BYTE   W12
 BYTE   Dn3
 BYTE   W12
 BYTE   En3
 BYTE   W12
 BYTE   Gn3
 BYTE   W12
 BYTE   Fs3
 BYTE   W12
 BYTE   En3
 BYTE   W12
 BYTE   PEND 
// 011   ----------------------------------------
 BYTE   Ds3
 BYTE   W12
 BYTE   Cs3
 BYTE   W12
 BYTE   Ds3
 BYTE   W12
 BYTE   En3
 BYTE   W12
 BYTE   Fs3
 BYTE   W12
 BYTE   An3
 BYTE   W12
 BYTE   Gn3
 BYTE   W12
 BYTE   Fs3
 BYTE   W12
// 012   ----------------------------------------
 BYTE   PATT
  POIN2 Label_1_01148B02
// 013   ----------------------------------------
 BYTE   PATT
  POIN2 Label_1_01148B11
// 014   ----------------------------------------
 BYTE   PATT
  POIN2 Label_1_01148B33
// 015   ----------------------------------------
 BYTE   PATT
  POIN2 Label_1_01148B40
// 016   ----------------------------------------
 BYTE   PATT
  POIN2 Label_1_01148B52
// 017   ----------------------------------------
 BYTE   PATT
  POIN2 Label_1_01148B6E
// 018   ----------------------------------------
 BYTE   PATT
  POIN2 Label_1_01148B91
// 019   ----------------------------------------
 BYTE   N23  Ds3  v127
 BYTE   W24
 BYTE   Bn2
 BYTE   W24
 BYTE   N11  Bn3
 BYTE   W12
 BYTE   An3
 BYTE   W12
 BYTE   Gn3
 BYTE   W12
 BYTE   Fs3
 BYTE   W12
// 020   ----------------------------------------
 BYTE   N44  Gn3
 BYTE   W60
 BYTE   N05  Fs3
 BYTE   W06
 BYTE   Gn3
 BYTE   W06
 BYTE   An3
 BYTE   W06
 BYTE   Gn3
 BYTE   W06
 BYTE   Fs3
 BYTE   W06
 BYTE   En3
 BYTE   W02
 BYTE   VOL   50*FFLegend2DreadfulFightMrGreeen3339_mvl/mxv
 BYTE   W04
// 021   ----------------------------------------
 BYTE   N23  Ds3
 BYTE   W24
 BYTE   N05
 BYTE   W06
 BYTE   En3
 BYTE   W06
 BYTE   Fs3
 BYTE   W05
 BYTE   VOL   50*FFLegend2DreadfulFightMrGreeen3339_mvl/mxv
 BYTE   W01
 BYTE   N05  Gn3
 BYTE   W06
 BYTE   N32  Bn3
 BYTE   W06
 BYTE   VOL   51*FFLegend2DreadfulFightMrGreeen3339_mvl/mxv
 BYTE   W04
 BYTE   Ds2
 BYTE   W24
 BYTE   W02
 BYTE   En2
 BYTE   W04
 BYTE   Fn2
 BYTE   W08
// 022   ----------------------------------------
 BYTE   N44  En1
 BYTE   N05  En2
 BYTE   N11  En3
 BYTE   W12
 BYTE   VOL   54*FFLegend2DreadfulFightMrGreeen3339_mvl/mxv
 BYTE   N05  En2
 BYTE   W12
 BYTE   N05
 BYTE   N11  En3
 BYTE   W01
 BYTE   VOL   54*FFLegend2DreadfulFightMrGreeen3339_mvl/mxv
 BYTE   W11
 BYTE   N05  En2
 BYTE   W12
 BYTE   N44  Fs1
 BYTE   N05  Fs2
 BYTE   N11  Fs3
 BYTE   W11
 BYTE   VOL   55*FFLegend2DreadfulFightMrGreeen3339_mvl/mxv
 BYTE   W01
 BYTE   N05  Fs2
 BYTE   W12
 BYTE   N05
 BYTE   N11  Fs3
 BYTE   W05
 BYTE   VOL   56*FFLegend2DreadfulFightMrGreeen3339_mvl/mxv
 BYTE   W07
 BYTE   N05  Fs2
 BYTE   W12
// 023   ----------------------------------------
 BYTE   N44  Gn1
 BYTE   N05  Gn2
 BYTE   N11  Gn3
 BYTE   W11
 BYTE   VOL   57*FFLegend2DreadfulFightMrGreeen3339_mvl/mxv
 BYTE   W01
 BYTE   N05  Gn2
 BYTE   W12
 BYTE   N05
 BYTE   N11  Gn3
 BYTE   W12
 BYTE   N05  Gn2
 BYTE   W04
 BYTE   VOL   57*FFLegend2DreadfulFightMrGreeen3339_mvl/mxv
 BYTE   W08
 BYTE   N44  An1
 BYTE   N05  An2
 BYTE   N11  An3
 BYTE   W02
 BYTE   VOL   58*FFLegend2DreadfulFightMrGreeen3339_mvl/mxv
 BYTE   W02
 BYTE   Bn2
 BYTE   W08
 BYTE   N05  An2
 BYTE   W04
 BYTE   VOL   60*FFLegend2DreadfulFightMrGreeen3339_mvl/mxv
 BYTE   W08
 BYTE   N05
 BYTE   N11  An3
 BYTE   W12
 BYTE   N05  An2
 BYTE   W12
// 024   ----------------------------------------
 BYTE   N44  Bn1
 BYTE   N05  Bn2
 BYTE   N11  Bn3
 BYTE   W12
 BYTE   N05  Bn2
 BYTE   W12
 BYTE   N05
 BYTE   N11  Bn3
 BYTE   W12
 BYTE   N05  Bn2
 BYTE   W12
 BYTE   N44  Fs1
 BYTE   N05  Fs2
 BYTE   N11  Fs3
 BYTE   W12
 BYTE   N05  Fs2
 BYTE   W12
 BYTE   N05
 BYTE   N11  Fs3
 BYTE   W12
 BYTE   N05  Fs2
 BYTE   W12
// 025   ----------------------------------------
 BYTE   N56  Bn1
 BYTE   N56  En2
 BYTE   N56  Bn2
 BYTE   N56  En3
 BYTE   W60
 BYTE   N11
 BYTE   W12
 BYTE   Ds3
 BYTE   W12
 BYTE   Bn2
 BYTE   W12
// 026   ----------------------------------------
 BYTE   PATT
  POIN2 Label_1_01148B02
// 027   ----------------------------------------
 BYTE   GoTo
  POIN2 Label_1_01148B11
 BYTE   FINE

//**************** Track 3 (Midi-Chn.2) ****************//

FFLegend2DreadfulFightMrGreeen3339_003:
// 000   ----------------------------------------
 BYTE   KEYSH   FFLegend2DreadfulFightMrGreeen3339_key+0
 BYTE   VOICE   48
 BYTE   VOL   29*FFLegend2DreadfulFightMrGreeen3339_mvl/mxv
 BYTE   N11  En1  v104
 BYTE   N11  En2
 BYTE   W24
 BYTE   En1
 BYTE   N11  En2
 BYTE   W24
 BYTE   Fs1
 BYTE   N11  Fs2
 BYTE   W24
 BYTE   Fs1
 BYTE   N11  Fs2
 BYTE   W24
// 001   ----------------------------------------
Label_2_01148CC8:
 BYTE   N11  Gn1  v104
 BYTE   N11  Gn2
 BYTE   W24
 BYTE   Gn1
 BYTE   N11  Gn2
 BYTE   W24
 BYTE   An1
 BYTE   N11  An2
 BYTE   W24
 BYTE   An1
 BYTE   N11  An2
 BYTE   W24
 BYTE   PEND 
// 002   ----------------------------------------
Label_2_01148CDB:
 BYTE   N11  Bn1  v104
 BYTE   N11  Bn2
 BYTE   W24
 BYTE   Bn1
 BYTE   N11  Bn2
 BYTE   W24
 BYTE   Bn1
 BYTE   N11  Bn2
 BYTE   W24
 BYTE   Bn1
 BYTE   N11  Bn2
 BYTE   W24
 BYTE   PEND 
// 003   ----------------------------------------
Label_2_01148CEE:
 BYTE   N56  Bn1  v104
 BYTE   N56  Bn2
 BYTE   W60
 BYTE   N11  Bn1
 BYTE   N11  Bn2
 BYTE   W12
 BYTE   Bn1
 BYTE   N11  Bn2
 BYTE   W12
 BYTE   Bn1
 BYTE   N11  Bn2
 BYTE   W12
 BYTE   PEND 
// 004   ----------------------------------------
 BYTE   N92  En2
 BYTE   N92  En3
 BYTE   W96
// 005   ----------------------------------------
Label_2_01148D07:
 BYTE   N92  En2  v104
 BYTE   N92  En3
 BYTE   W96
// 006   ----------------------------------------
 BYTE   Dn2
 BYTE   N92  Dn3
 BYTE   W96
// 007   ----------------------------------------
 BYTE   N11  Gn1
 BYTE   N11  Gn2
 BYTE   W12
 BYTE   Fs1
 BYTE   N11  Fs2
 BYTE   W12
 BYTE   Gn1
 BYTE   N11  Gn2
 BYTE   W12
 BYTE   An1
 BYTE   N11  An2
 BYTE   W12
 BYTE   Gn1
 BYTE   N11  Gn2
 BYTE   W12
 BYTE   Fs1
 BYTE   N11  Fs2
 BYTE   W12
 BYTE   En1
 BYTE   N11  En2
 BYTE   W12
 BYTE   Dn1
 BYTE   N11  Dn2
 BYTE   W12
// 008   ----------------------------------------
 BYTE   N44  An0
 BYTE   N44  An1
 BYTE   W60
 BYTE   N11  An0
 BYTE   N11  An1
 BYTE   W24
 BYTE   An0
 BYTE   N11  An1
 BYTE   W12
// 009   ----------------------------------------
 BYTE   N44  Bn0
 BYTE   N44  Bn1
 BYTE   W60
 BYTE   N11  Bn0
 BYTE   N11  Bn1
 BYTE   W24
 BYTE   Bn0
 BYTE   N11  Bn1
 BYTE   W12
// 010   ----------------------------------------
 BYTE   N44  Cn1
 BYTE   N44  Cn2
 BYTE   W60
 BYTE   N11  Cn1
 BYTE   N11  Cn2
 BYTE   W12
 BYTE   Cn1
 BYTE   N11  Cn2
 BYTE   W12
 BYTE   Cn1
 BYTE   N11  Cn2
 BYTE   W12
// 011   ----------------------------------------
 BYTE   N23  Bn0
 BYTE   N23  Bn1
 BYTE   W24
 BYTE   N11  Fs1
 BYTE   N11  Fs2
 BYTE   W12
 BYTE   Fs1
 BYTE   N11  Fs2
 BYTE   W12
 BYTE   N44  Fs1
 BYTE   N44  Fs2
 BYTE   W48
// 012   ----------------------------------------
Label_2_01148D73:
 BYTE   N44  En1  v104
 BYTE   N44  En2
 BYTE   W60
 BYTE   N11  En1
 BYTE   N11  En2
 BYTE   W24
 BYTE   En1
 BYTE   N11  En2
 BYTE   W12
 BYTE   PEND 
// 013   ----------------------------------------
 BYTE   PATT
  POIN2 Label_2_01148D73
// 014   ----------------------------------------
 BYTE   N11  Dn1  v104
 BYTE   N11  Dn2
 BYTE   W24
 BYTE   Dn1
 BYTE   N11  Dn2
 BYTE   W24
 BYTE   Dn1
 BYTE   N11  Dn2
 BYTE   W24
 BYTE   Dn1
 BYTE   N11  Dn2
 BYTE   W24
// 015   ----------------------------------------
 BYTE   W48
 BYTE   En1
 BYTE   N11  En2
 BYTE   W24
 BYTE   En1
 BYTE   N11  En2
 BYTE   W24
// 016   ----------------------------------------
 BYTE   N05  Gn0
 BYTE   N05  An1
 BYTE   W06
 BYTE   Gn0
 BYTE   N05  An1
 BYTE   W06
 BYTE   Gn0
 BYTE   N05  An1
 BYTE   W04
 BYTE   VOL   29*FFLegend2DreadfulFightMrGreeen3339_mvl/mxv
 BYTE   W02
 BYTE   N05  Gn0
 BYTE   N05  An1
 BYTE   W06
 BYTE   Gn0
 BYTE   N05  An1
 BYTE   W06
 BYTE   Gn0
 BYTE   N05  An1
 BYTE   W06
 BYTE   Gn0
 BYTE   N05  An1
 BYTE   W06
 BYTE   N11  Gn0
 BYTE   N11  An1
 BYTE   W18
 BYTE   An0
 BYTE   N11  An1
 BYTE   W12
 BYTE   An0
 BYTE   N11  An1
 BYTE   W12
 BYTE   An0
 BYTE   N11  An1
 BYTE   W12
// 017   ----------------------------------------
 BYTE   N05  Bn0
 BYTE   N05  Bn1
 BYTE   W06
 BYTE   Bn0
 BYTE   N05  Bn1
 BYTE   W06
 BYTE   Bn0
 BYTE   N05  Bn1
 BYTE   W06
 BYTE   Bn0
 BYTE   N05  Bn1
 BYTE   W06
 BYTE   Bn0
 BYTE   N05  Bn1
 BYTE   W06
 BYTE   Bn0
 BYTE   N05  Bn1
 BYTE   W06
 BYTE   Bn0
 BYTE   N05  Bn1
 BYTE   W06
 BYTE   N11  Bn0
 BYTE   N11  Bn1
 BYTE   W18
 BYTE   Bn0
 BYTE   N11  Bn1
 BYTE   W12
 BYTE   Bn0
 BYTE   N11  Bn1
 BYTE   W12
 BYTE   Bn0
 BYTE   N11  Bn1
 BYTE   W12
// 018   ----------------------------------------
 BYTE   N05  Cn1
 BYTE   N05  Cn2
 BYTE   W06
 BYTE   Cn1
 BYTE   N05  Cn2
 BYTE   W06
 BYTE   Cn1
 BYTE   N05  Cn2
 BYTE   W06
 BYTE   Cn1
 BYTE   N05  Cn2
 BYTE   W06
 BYTE   Cn1
 BYTE   N05  Cn2
 BYTE   W06
 BYTE   Cn1
 BYTE   N05  Cn2
 BYTE   W06
 BYTE   Cn1
 BYTE   N05  Cn2
 BYTE   W06
 BYTE   N11  Cn1
 BYTE   N11  Cn2
 BYTE   W18
 BYTE   Cn1
 BYTE   N11  Cn2
 BYTE   W12
 BYTE   Cn1
 BYTE   N11  Cn2
 BYTE   W12
 BYTE   Cn1
 BYTE   N11  Cn2
 BYTE   W12
// 019   ----------------------------------------
 BYTE   N05  Bn1
 BYTE   N05  Bn2
 BYTE   W24
 BYTE   Bn1
 BYTE   N05  Bn2
 BYTE   W24
 BYTE   An1
 BYTE   N05  An2
 BYTE   W17
 BYTE   VOL   30*FFLegend2DreadfulFightMrGreeen3339_mvl/mxv
 BYTE   W01
 BYTE   Gn0
 BYTE   W01
 BYTE   Gs0
 BYTE   W01
 BYTE   An0
 BYTE   W01
 BYTE   As0
 BYTE   W01
 BYTE   Bn0
 BYTE   W02
 BYTE   Cn1
 BYTE   N05  Bn1
 BYTE   N05  Bn2
 BYTE   W01
 BYTE   VOL   36*FFLegend2DreadfulFightMrGreeen3339_mvl/mxv
 BYTE   W01
 BYTE   Cs1
 BYTE   W01
 BYTE   Ds1
 BYTE   W01
 BYTE   Ds1
 BYTE   W01
 BYTE   En1
 BYTE   W06
 BYTE   Fn1
 BYTE   W06
 BYTE   Fs1
 BYTE   W02
 BYTE   Fs1
 BYTE   W05
// 020   ----------------------------------------
 BYTE   N44  Cs2
 BYTE   N44  Cs3
 BYTE   W10
 BYTE   VOL   43*FFLegend2DreadfulFightMrGreeen3339_mvl/mxv
 BYTE   W01
 BYTE   Gn1
 BYTE   W03
 BYTE   Gs1
 BYTE   W02
 BYTE   An1
 BYTE   W04
 BYTE   As1
 BYTE   W04
 BYTE   As1
 BYTE   W03
 BYTE   Bn1
 BYTE   W01
 BYTE   Cn2
 BYTE   W02
 BYTE   Cs2
 BYTE   W04
 BYTE   Dn2
 BYTE   W03
 BYTE   Dn2
 BYTE   W02
 BYTE   Ds2
 BYTE   W03
 BYTE   Ds2
 BYTE   W02
 BYTE   En2
 BYTE   W04
 BYTE   Fn2
 BYTE   W01
 BYTE   Fs2
 BYTE   W02
 BYTE   Gn2
 BYTE   W01
 BYTE   Gs2
 BYTE   W01
 BYTE   An2
 BYTE   W01
 BYTE   As2
 BYTE   W01
 BYTE   Cn3
 BYTE   W05
 BYTE   N05  Cs2
 BYTE   N05  Cs3
 BYTE   W06
 BYTE   Cs2
 BYTE   N05  Cs3
 BYTE   W06
 BYTE   Cs2
 BYTE   N05  Cs3
 BYTE   W06
 BYTE   Cs2
 BYTE   N05  Cs3
 BYTE   W06
 BYTE   Cs2
 BYTE   N05  Cs3
 BYTE   W06
 BYTE   Cs2
 BYTE   N05  Cs3
 BYTE   W06
// 021   ----------------------------------------
 BYTE   N11  Bn1
 BYTE   N11  Bn2
 BYTE   W24
 BYTE   N05  Bn1
 BYTE   N05  Bn2
 BYTE   W06
 BYTE   Bn1
 BYTE   N05  Bn2
 BYTE   W06
 BYTE   VOL   59*FFLegend2DreadfulFightMrGreeen3339_mvl/mxv
 BYTE   N05  Bn1
 BYTE   N05  Bn2
 BYTE   W01
 BYTE   VOL   58*FFLegend2DreadfulFightMrGreeen3339_mvl/mxv
 BYTE   W01
 BYTE   An2
 BYTE   W01
 BYTE   Gs2
 BYTE   W01
 BYTE   Gn2
 BYTE   W01
 BYTE   Fs2
 BYTE   W01
 BYTE   En2
 BYTE   N05  Bn1
 BYTE   N05  Bn2
 BYTE   W01
 BYTE   VOL   51*FFLegend2DreadfulFightMrGreeen3339_mvl/mxv
 BYTE   W01
 BYTE   Dn2
 BYTE   W01
 BYTE   Dn2
 BYTE   W01
 BYTE   Cn2
 BYTE   W01
 BYTE   Bn1
 BYTE   W01
 BYTE   As1
 BYTE   N32  Bn1
 BYTE   N32  Bn2
 BYTE   W01
 BYTE   VOL   46*FFLegend2DreadfulFightMrGreeen3339_mvl/mxv
 BYTE   W01
 BYTE   An1
 BYTE   W01
 BYTE   Gs1
 BYTE   W01
 BYTE   Gn1
 BYTE   W01
 BYTE   Fs1
 BYTE   W01
 BYTE   Fs1
 BYTE   W01
 BYTE   Fn1
 BYTE   W01
 BYTE   En1
 BYTE   W01
 BYTE   Ds1
 BYTE   W01
 BYTE   Ds1
 BYTE   W02
 BYTE   Dn1
 BYTE   W01
 BYTE   Cs1
 BYTE   W01
 BYTE   Cn1
 BYTE   W01
 BYTE   Bn0
 BYTE   W01
 BYTE   As0
 BYTE   W01
 BYTE   An0
 BYTE   W04
 BYTE   Gs0
 BYTE   W08
 BYTE   Gn0
 BYTE   W01
 BYTE   Gn0
 BYTE   W01
 BYTE   Fs0
 BYTE   W01
 BYTE   Fn0
 BYTE   W16
// 022   ----------------------------------------
 BYTE   VOICE   48
 BYTE   N11  En1
 BYTE   N11  En2
 BYTE   W24
 BYTE   En1
 BYTE   N11  En2
 BYTE   W24
 BYTE   Fs1
 BYTE   N11  Fs2
 BYTE   W24
 BYTE   Fs1
 BYTE   N11  Fs2
 BYTE   W24
// 023   ----------------------------------------
 BYTE   PATT
  POIN2 Label_2_01148CC8
// 024   ----------------------------------------
 BYTE   PATT
  POIN2 Label_2_01148CDB
// 025   ----------------------------------------
 BYTE   PATT
  POIN2 Label_2_01148CEE
// 026   ----------------------------------------
 BYTE   N11  En2  v104
 BYTE   N11  En3
 BYTE   W36
 BYTE   En2
 BYTE   N11  En3
 BYTE   W24
 BYTE   En2
 BYTE   N11  En3
 BYTE   W12
 BYTE   En2
 BYTE   N11  En3
 BYTE   W12
 BYTE   En2
 BYTE   N11  En3
 BYTE   W12
// 027   ----------------------------------------
 BYTE   GoTo
  POIN2 Label_2_01148D07
 BYTE   FINE

//**************** Track 4 (Midi-Chn.3) ****************//

FFLegend2DreadfulFightMrGreeen3339_004:
// 000   ----------------------------------------
 BYTE   VOL   60*FFLegend2DreadfulFightMrGreeen3339_mvl/mxv
 BYTE   KEYSH   FFLegend2DreadfulFightMrGreeen3339_key+0
 BYTE   VOICE   30
 BYTE   W96
// 001   ----------------------------------------
 BYTE   W96
// 002   ----------------------------------------
 BYTE   W96
// 003   ----------------------------------------
 BYTE   W96
// 004   ----------------------------------------
Label_3_01148F56:
 BYTE   N11  En1  v112
 BYTE   N11  Cn2
 BYTE   N11  En2
 BYTE   W12
 BYTE   En1
 BYTE   W24
 BYTE   N11
 BYTE   N11  Cn2
 BYTE   N11  En2
 BYTE   W12
 BYTE   En1
 BYTE   W24
 BYTE   N11
 BYTE   N11  Cn2
 BYTE   N11  En2
 BYTE   W12
 BYTE   En1
 BYTE   W12
 BYTE   PEND 
// 005   ----------------------------------------
Label_3_01148F71:
// 006   ----------------------------------------
 BYTE   PATT
  POIN2 Label_3_01148F56
// 007   ----------------------------------------
Label_3_01148F76:
 BYTE   N11  Dn1  v112
 BYTE   N11  Bn1
 BYTE   N11  Dn2
 BYTE   W12
 BYTE   Dn1
 BYTE   N11  Bn1
 BYTE   N11  Dn2
 BYTE   W12
 BYTE   Dn1
 BYTE   W24
 BYTE   N11
 BYTE   N11  Bn1
 BYTE   N11  Dn2
 BYTE   W12
 BYTE   Dn1
 BYTE   N11  Bn1
 BYTE   N11  Dn2
 BYTE   W12
 BYTE   Dn1
 BYTE   W24
 BYTE   PEND 
// 008   ----------------------------------------
Label_3_01148F95:
 BYTE   N92  En1  v112
 BYTE   N92  En2
 BYTE   W24
 BYTE   N23  En3
 BYTE   W24
 BYTE   Dn2
 BYTE   N23  Dn3
 BYTE   W24
 BYTE   Bn1
 BYTE   N23  Bn2
 BYTE   W24
 BYTE   PEND 
// 009   ----------------------------------------
Label_3_01148FA7:
 BYTE   N11  An1  v112
 BYTE   N11  An2
 BYTE   W12
 BYTE   An1
 BYTE   N11  An2
 BYTE   W48
 BYTE   An1
 BYTE   N11  An2
 BYTE   W24
 BYTE   An1
 BYTE   N11  An2
 BYTE   W12
 BYTE   PEND 
// 010   ----------------------------------------
Label_3_01148FBA:
 BYTE   N11  Bn1  v112
 BYTE   N11  Bn2
 BYTE   W12
 BYTE   Bn1
 BYTE   N11  Bn2
 BYTE   W48
 BYTE   Bn1
 BYTE   N11  Bn2
 BYTE   W24
 BYTE   Bn1
 BYTE   N11  Bn2
 BYTE   W12
 BYTE   PEND 
// 011   ----------------------------------------
Label_3_01148FCD:
 BYTE   N11  Cn2  v112
 BYTE   N11  Cn3
 BYTE   W24
 BYTE   Cn2
 BYTE   N11  Cn3
 BYTE   W24
 BYTE   Cn2
 BYTE   N11  Cn3
 BYTE   W24
 BYTE   Cn2
 BYTE   N11  Cn3
 BYTE   W24
 BYTE   PEND 
// 012   ----------------------------------------
 BYTE   Bn1
 BYTE   N11  Bn2
 BYTE   W12
 BYTE   Cn2
 BYTE   N11  Cn3
 BYTE   W12
 BYTE   Bn1
 BYTE   N11  Bn2
 BYTE   W12
 BYTE   Cn2
 BYTE   N11  Cn3
 BYTE   W12
 BYTE   Bn1
 BYTE   N11  Bn2
 BYTE   W12
 BYTE   An1
 BYTE   N11  An2
 BYTE   W12
 BYTE   Gn1
 BYTE   N11  Gn2
 BYTE   W12
 BYTE   Fs1
 BYTE   N11  Fs2
 BYTE   W12
// 013   ----------------------------------------
 BYTE   PATT
  POIN2 Label_3_01148F56
// 014   ----------------------------------------
 BYTE   PATT
  POIN2 Label_3_01148F56
// 015   ----------------------------------------
 BYTE   PATT
  POIN2 Label_3_01148F76
// 016   ----------------------------------------
 BYTE   PATT
  POIN2 Label_3_01148F95
// 017   ----------------------------------------
 BYTE   PATT
  POIN2 Label_3_01148FA7
// 018   ----------------------------------------
 BYTE   PATT
  POIN2 Label_3_01148FBA
// 019   ----------------------------------------
 BYTE   PATT
  POIN2 Label_3_01148FCD
// 020   ----------------------------------------
 BYTE   N11  Bn1  v112
 BYTE   N11  Bn2
 BYTE   W24
 BYTE   Bn1
 BYTE   N11  Bn2
 BYTE   W24
 BYTE   An1
 BYTE   N11  An2
 BYTE   W24
 BYTE   Bn1
 BYTE   N11  Bn2
 BYTE   W24
// 021   ----------------------------------------
 BYTE   N92  Gn1
 BYTE   N92  Gn2
 BYTE   W96
// 022   ----------------------------------------
 BYTE   Bn0
 BYTE   N92  Bn1
 BYTE   W96
// 023   ----------------------------------------
 BYTE   W96
// 024   ----------------------------------------
 BYTE   W96
// 025   ----------------------------------------
 BYTE   W96
// 026   ----------------------------------------
 BYTE   W96
// 027   ----------------------------------------
 BYTE   PATT
  POIN2 Label_3_01148F56
// 028   ----------------------------------------
 BYTE   GoTo
  POIN2 Label_3_01148F71
 BYTE   FINE

//**************** Track 5 (Midi-Chn.4) ****************//

FFLegend2DreadfulFightMrGreeen3339_005:
// 000   ----------------------------------------
 BYTE   VOL   60*FFLegend2DreadfulFightMrGreeen3339_mvl/mxv
 BYTE   KEYSH   FFLegend2DreadfulFightMrGreeen3339_key+0
 BYTE   VOICE   47
 BYTE   N11  En1  v092
 BYTE   N11  En2
 BYTE   W24
 BYTE   En1
 BYTE   N11  En2
 BYTE   W24
 BYTE   Fs1
 BYTE   N11  Fs2
 BYTE   W24
 BYTE   Fs1
 BYTE   N11  Fs2
 BYTE   W24
// 001   ----------------------------------------
Label_4_01149068:
 BYTE   N11  Gn1  v092
 BYTE   N11  Gn2
 BYTE   W24
 BYTE   Gn1
 BYTE   N11  Gn2
 BYTE   W24
 BYTE   An1
 BYTE   N11  An2
 BYTE   W24
 BYTE   An1
 BYTE   N11  An2
 BYTE   W24
 BYTE   PEND 
// 002   ----------------------------------------
Label_4_0114907B:
 BYTE   N11  Bn1  v092
 BYTE   N11  Bn2
 BYTE   W24
 BYTE   Bn1
 BYTE   N11  Bn2
 BYTE   W24
 BYTE   Bn1
 BYTE   N11  Bn2
 BYTE   W24
 BYTE   Bn1
 BYTE   N11  Bn2
 BYTE   W24
 BYTE   PEND 
// 003   ----------------------------------------
Label_4_0114908E:
 BYTE   N56  Bn1  v092
 BYTE   N56  Bn2
 BYTE   W60
 BYTE   N11  Bn1
 BYTE   N11  Bn2
 BYTE   W12
 BYTE   Bn1
 BYTE   N11  Bn2
 BYTE   W12
 BYTE   Bn1
 BYTE   N11  Bn2
 BYTE   W12
 BYTE   PEND 
// 004   ----------------------------------------
 BYTE   N92  En2
 BYTE   N92  En3
 BYTE   W96
// 005   ----------------------------------------
Label_4_011490A7:
 BYTE   N92  En2  v092
 BYTE   N92  En3
 BYTE   W96
// 006   ----------------------------------------
 BYTE   Dn2
 BYTE   N92  Dn3
 BYTE   W96
// 007   ----------------------------------------
 BYTE   N11  Gn1
 BYTE   N11  Gn2
 BYTE   W12
 BYTE   Fs1
 BYTE   N11  Fs2
 BYTE   W12
 BYTE   Gn1
 BYTE   N11  Gn2
 BYTE   W12
 BYTE   An1
 BYTE   N11  An2
 BYTE   W12
 BYTE   Gn1
 BYTE   N11  Gn2
 BYTE   W12
 BYTE   Fs1
 BYTE   N11  Fs2
 BYTE   W12
 BYTE   En1
 BYTE   N11  En2
 BYTE   W12
 BYTE   Dn1
 BYTE   N11  Dn2
 BYTE   W12
// 008   ----------------------------------------
 BYTE   N44  An0
 BYTE   N44  An1
 BYTE   W60
 BYTE   N11  An0
 BYTE   N11  An1
 BYTE   W24
 BYTE   An0
 BYTE   N11  An1
 BYTE   W12
// 009   ----------------------------------------
 BYTE   N44  Bn0
 BYTE   N44  Bn1
 BYTE   W60
 BYTE   N11  Bn0
 BYTE   N11  Bn1
 BYTE   W24
 BYTE   Bn0
 BYTE   N11  Bn1
 BYTE   W12
// 010   ----------------------------------------
 BYTE   N44  Cn1
 BYTE   N44  Cn2
 BYTE   W60
 BYTE   N11  Cn1
 BYTE   N11  Cn2
 BYTE   W12
 BYTE   Cn1
 BYTE   N11  Cn2
 BYTE   W12
 BYTE   Cn1
 BYTE   N11  Cn2
 BYTE   W12
// 011   ----------------------------------------
 BYTE   N23  Bn0
 BYTE   N23  Bn1
 BYTE   W24
 BYTE   N11  Fs1
 BYTE   N11  Fs2
 BYTE   W12
 BYTE   Fs1
 BYTE   N11  Fs2
 BYTE   W12
 BYTE   N44  Fs1
 BYTE   N44  Fs2
 BYTE   W48
// 012   ----------------------------------------
Label_4_01149113:
 BYTE   N44  En1  v092
 BYTE   N44  En2
 BYTE   W60
 BYTE   N11  En1
 BYTE   N11  En2
 BYTE   W24
 BYTE   En1
 BYTE   N11  En2
 BYTE   W12
 BYTE   PEND 
// 013   ----------------------------------------
 BYTE   PATT
  POIN2 Label_4_01149113
// 014   ----------------------------------------
 BYTE   N11  Dn1  v092
 BYTE   N11  Dn2
 BYTE   W24
 BYTE   Dn1
 BYTE   N11  Dn2
 BYTE   W24
 BYTE   Dn1
 BYTE   N11  Dn2
 BYTE   W24
 BYTE   Dn1
 BYTE   N11  Dn2
 BYTE   W24
// 015   ----------------------------------------
 BYTE   W48
 BYTE   En1
 BYTE   N11  En2
 BYTE   W24
 BYTE   En1
 BYTE   N11  En2
 BYTE   W24
// 016   ----------------------------------------
 BYTE   N05  Gn0
 BYTE   N05  An1
 BYTE   W06
 BYTE   Gn0
 BYTE   N05  An1
 BYTE   W06
 BYTE   Gn0
 BYTE   N05  An1
 BYTE   W06
 BYTE   Gn0
 BYTE   N05  An1
 BYTE   W06
 BYTE   Gn0
 BYTE   N05  An1
 BYTE   W06
 BYTE   Gn0
 BYTE   N05  An1
 BYTE   W06
 BYTE   Gn0
 BYTE   N05  An1
 BYTE   W06
 BYTE   N11  Gn0
 BYTE   N11  An1
 BYTE   W18
 BYTE   An0
 BYTE   N11  An1
 BYTE   W12
 BYTE   An0
 BYTE   N11  An1
 BYTE   W12
 BYTE   An0
 BYTE   N11  An1
 BYTE   W12
// 017   ----------------------------------------
 BYTE   N05  Bn0
 BYTE   N05  Bn1
 BYTE   W06
 BYTE   Bn0
 BYTE   N05  Bn1
 BYTE   W06
 BYTE   Bn0
 BYTE   N05  Bn1
 BYTE   W06
 BYTE   Bn0
 BYTE   N05  Bn1
 BYTE   W06
 BYTE   Bn0
 BYTE   N05  Bn1
 BYTE   W06
 BYTE   Bn0
 BYTE   N05  Bn1
 BYTE   W06
 BYTE   Bn0
 BYTE   N05  Bn1
 BYTE   W06
 BYTE   N11  Bn0
 BYTE   N11  Bn1
 BYTE   W18
 BYTE   Bn0
 BYTE   N11  Bn1
 BYTE   W12
 BYTE   Bn0
 BYTE   N11  Bn1
 BYTE   W12
 BYTE   Bn0
 BYTE   N11  Bn1
 BYTE   W12
// 018   ----------------------------------------
 BYTE   N05  Cn1
 BYTE   N05  Cn2
 BYTE   W06
 BYTE   Cn1
 BYTE   N05  Cn2
 BYTE   W06
 BYTE   Cn1
 BYTE   N05  Cn2
 BYTE   W06
 BYTE   Cn1
 BYTE   N05  Cn2
 BYTE   W06
 BYTE   Cn1
 BYTE   N05  Cn2
 BYTE   W06
 BYTE   Cn1
 BYTE   N05  Cn2
 BYTE   W06
 BYTE   Cn1
 BYTE   N05  Cn2
 BYTE   W06
 BYTE   N11  Cn1
 BYTE   N11  Cn2
 BYTE   W18
 BYTE   Cn1
 BYTE   N11  Cn2
 BYTE   W12
 BYTE   Cn1
 BYTE   N11  Cn2
 BYTE   W12
 BYTE   Cn1
 BYTE   N11  Cn2
 BYTE   W12
// 019   ----------------------------------------
 BYTE   N05  Dn1
 BYTE   N05  Dn2
 BYTE   W24
 BYTE   An1
 BYTE   N05  An2
 BYTE   W24
 BYTE   An1
 BYTE   N05  An2
 BYTE   W24
 BYTE   An1
 BYTE   N05  An2
 BYTE   W24
// 020   ----------------------------------------
 BYTE   N44  Bn1
 BYTE   N44  Bn2
 BYTE   W60
 BYTE   N05  Bn1
 BYTE   N05  Bn2
 BYTE   W06
 BYTE   Bn1
 BYTE   N05  Bn2
 BYTE   W06
 BYTE   Bn1
 BYTE   N05  Bn2
 BYTE   W06
 BYTE   Bn1
 BYTE   N05  Bn2
 BYTE   W06
 BYTE   Bn1
 BYTE   N05  Bn2
 BYTE   W06
 BYTE   Bn1
 BYTE   N05  Bn2
 BYTE   W06
// 021   ----------------------------------------
 BYTE   N11  Bn1
 BYTE   N11  Bn2
 BYTE   W24
 BYTE   N05  Bn1
 BYTE   N05  Bn2
 BYTE   W06
 BYTE   Bn1
 BYTE   N05  Bn2
 BYTE   W06
 BYTE   Bn1
 BYTE   N05  Bn2
 BYTE   W06
 BYTE   Bn1
 BYTE   N05  Bn2
 BYTE   W06
 BYTE   N32  Bn1
 BYTE   N32  Bn2
 BYTE   W48
// 022   ----------------------------------------
 BYTE   N11  En1
 BYTE   N11  En2
 BYTE   W24
 BYTE   En1
 BYTE   N11  En2
 BYTE   W24
 BYTE   Fs1
 BYTE   N11  Fs2
 BYTE   W24
 BYTE   Fs1
 BYTE   N11  Fs2
 BYTE   W24
// 023   ----------------------------------------
 BYTE   PATT
  POIN2 Label_4_01149068
// 024   ----------------------------------------
 BYTE   PATT
  POIN2 Label_4_0114907B
// 025   ----------------------------------------
 BYTE   PATT
  POIN2 Label_4_0114908E
// 026   ----------------------------------------
 BYTE   N11  En2  v092
 BYTE   N11  En3
 BYTE   W36
 BYTE   En2
 BYTE   N11  En3
 BYTE   W24
 BYTE   En2
 BYTE   N11  En3
 BYTE   W12
 BYTE   En2
 BYTE   N11  En3
 BYTE   W12
 BYTE   En2
 BYTE   N11  En3
 BYTE   W12
// 027   ----------------------------------------
 BYTE   GoTo
  POIN2 Label_4_011490A7
 BYTE   FINE

//**************** Track 6 (Midi-Chn.5) ****************//

FFLegend2DreadfulFightMrGreeen3339_006:
// 000   ----------------------------------------
 BYTE   KEYSH   FFLegend2DreadfulFightMrGreeen3339_key+0
 BYTE   VOICE   48
 BYTE   VOL   29*FFLegend2DreadfulFightMrGreeen3339_mvl/mxv
 BYTE   N11  En1  v127
 BYTE   N11  En2
 BYTE   W24
 BYTE   En1
 BYTE   N11  En2
 BYTE   W24
 BYTE   Fs1
 BYTE   N11  Fs2
 BYTE   W24
 BYTE   Fs1
 BYTE   N11  Fs2
 BYTE   W24
// 001   ----------------------------------------
Label_5_0114926C:
 BYTE   N11  Gn1  v127
 BYTE   N11  Gn2
 BYTE   W24
 BYTE   Gn1
 BYTE   N11  Gn2
 BYTE   W24
 BYTE   An1
 BYTE   N11  An2
 BYTE   W24
 BYTE   An1
 BYTE   N11  An2
 BYTE   W24
 BYTE   PEND 
// 002   ----------------------------------------
Label_5_0114927F:
 BYTE   N11  Bn1  v127
 BYTE   N11  Bn2
 BYTE   W24
 BYTE   Bn1
 BYTE   N11  Bn2
 BYTE   W24
 BYTE   Bn1
 BYTE   N11  Bn2
 BYTE   W24
 BYTE   Bn1
 BYTE   N11  Bn2
 BYTE   W24
 BYTE   PEND 
// 003   ----------------------------------------
 BYTE   N56  Bn1
 BYTE   N56  Bn2
 BYTE   W60
 BYTE   N11  Bn1
 BYTE   N11  Bn2
 BYTE   W12
 BYTE   Bn1
 BYTE   N11  Bn2
 BYTE   W12
 BYTE   Bn1
 BYTE   N11  Bn2
 BYTE   W12
// 004   ----------------------------------------
 BYTE   N92  En2
 BYTE   N92  En3
 BYTE   W96
// 005   ----------------------------------------
Label_5_011492A9:
 BYTE   N92  En2  v127
 BYTE   N92  En3
 BYTE   W96
// 006   ----------------------------------------
 BYTE   Dn2
 BYTE   N92  Dn3
 BYTE   W96
// 007   ----------------------------------------
 BYTE   N11  Gn1
 BYTE   N11  Gn2
 BYTE   W12
 BYTE   Fs1
 BYTE   N11  Fs2
 BYTE   W12
 BYTE   Gn1
 BYTE   N11  Gn2
 BYTE   W12
 BYTE   An1
 BYTE   N11  An2
 BYTE   W12
 BYTE   Gn1
 BYTE   N11  Gn2
 BYTE   W12
 BYTE   Fs1
 BYTE   N11  Fs2
 BYTE   W12
 BYTE   En1
 BYTE   N11  En2
 BYTE   W12
 BYTE   Dn1
 BYTE   N11  Dn2
 BYTE   W12
// 008   ----------------------------------------
 BYTE   N44  An0
 BYTE   N44  An1
 BYTE   W60
 BYTE   N11  An0
 BYTE   N11  An1
 BYTE   W24
 BYTE   An0
 BYTE   N11  An1
 BYTE   W12
// 009   ----------------------------------------
 BYTE   N44  Bn0
 BYTE   N44  Bn1
 BYTE   W60
 BYTE   N11  Bn0
 BYTE   N11  Bn1
 BYTE   W24
 BYTE   Bn0
 BYTE   N11  Bn1
 BYTE   W12
// 010   ----------------------------------------
 BYTE   N44  Cn1
 BYTE   N44  Cn2
 BYTE   W60
 BYTE   N11  Cn1
 BYTE   N11  Cn2
 BYTE   W12
 BYTE   Cn1
 BYTE   N11  Cn2
 BYTE   W12
 BYTE   Cn1
 BYTE   N11  Cn2
 BYTE   W12
// 011   ----------------------------------------
 BYTE   N23  Bn0
 BYTE   N23  Bn1
 BYTE   W24
 BYTE   N11  Fs1
 BYTE   N11  Fs2
 BYTE   W12
 BYTE   Fs1
 BYTE   N11  Fs2
 BYTE   W12
 BYTE   N44  Fs1
 BYTE   N44  Fs2
 BYTE   W48
// 012   ----------------------------------------
Label_5_01149315:
 BYTE   N44  En1  v127
 BYTE   N44  En2
 BYTE   W60
 BYTE   N11  En1
 BYTE   N11  En2
 BYTE   W24
 BYTE   En1
 BYTE   N11  En2
 BYTE   W12
 BYTE   PEND 
// 013   ----------------------------------------
 BYTE   PATT
  POIN2 Label_5_01149315
// 014   ----------------------------------------
 BYTE   N11  Dn1  v127
 BYTE   N11  Dn2
 BYTE   W24
 BYTE   Dn1
 BYTE   N11  Dn2
 BYTE   W24
 BYTE   Dn1
 BYTE   N11  Dn2
 BYTE   W24
 BYTE   Dn1
 BYTE   N11  Dn2
 BYTE   W24
// 015   ----------------------------------------
 BYTE   W48
 BYTE   En1
 BYTE   N11  En2
 BYTE   W24
 BYTE   En1
 BYTE   N11  En2
 BYTE   W24
// 016   ----------------------------------------
 BYTE   N05  Gn0
 BYTE   N05  An1
 BYTE   W06
 BYTE   Gn0
 BYTE   N05  An1
 BYTE   W06
 BYTE   Gn0
 BYTE   N05  An1
 BYTE   W04
 BYTE   VOL   29*FFLegend2DreadfulFightMrGreeen3339_mvl/mxv
 BYTE   W02
 BYTE   N05  Gn0
 BYTE   N05  An1
 BYTE   W06
 BYTE   Gn0
 BYTE   N05  An1
 BYTE   W06
 BYTE   Gn0
 BYTE   N05  An1
 BYTE   W06
 BYTE   Gn0
 BYTE   N05  An1
 BYTE   W06
 BYTE   N11  Gn0
 BYTE   N11  An1
 BYTE   W18
 BYTE   An0
 BYTE   N11  An1
 BYTE   W12
 BYTE   An0
 BYTE   N11  An1
 BYTE   W12
 BYTE   An0
 BYTE   N11  An1
 BYTE   W12
// 017   ----------------------------------------
 BYTE   N05  Bn0
 BYTE   N05  Bn1
 BYTE   W06
 BYTE   Bn0
 BYTE   N05  Bn1
 BYTE   W06
 BYTE   Bn0
 BYTE   N05  Bn1
 BYTE   W06
 BYTE   Bn0
 BYTE   N05  Bn1
 BYTE   W06
 BYTE   Bn0
 BYTE   N05  Bn1
 BYTE   W06
 BYTE   Bn0
 BYTE   N05  Bn1
 BYTE   W06
 BYTE   Bn0
 BYTE   N05  Bn1
 BYTE   W06
 BYTE   N11  Bn0
 BYTE   N11  Bn1
 BYTE   W18
 BYTE   Bn0
 BYTE   N11  Bn1
 BYTE   W12
 BYTE   Bn0
 BYTE   N11  Bn1
 BYTE   W12
 BYTE   Bn0
 BYTE   N11  Bn1
 BYTE   W12
// 018   ----------------------------------------
 BYTE   N05  Cn1
 BYTE   N05  Cn2
 BYTE   W06
 BYTE   Cn1
 BYTE   N05  Cn2
 BYTE   W06
 BYTE   Cn1
 BYTE   N05  Cn2
 BYTE   W06
 BYTE   Cn1
 BYTE   N05  Cn2
 BYTE   W06
 BYTE   Cn1
 BYTE   N05  Cn2
 BYTE   W06
 BYTE   Cn1
 BYTE   N05  Cn2
 BYTE   W06
 BYTE   Cn1
 BYTE   N05  Cn2
 BYTE   W06
 BYTE   N11  Cn1
 BYTE   N11  Cn2
 BYTE   W18
 BYTE   Cn1
 BYTE   N11  Cn2
 BYTE   W12
 BYTE   Cn1
 BYTE   N11  Cn2
 BYTE   W12
 BYTE   Cn1
 BYTE   N11  Cn2
 BYTE   W12
// 019   ----------------------------------------
 BYTE   N05  Bn1
 BYTE   N05  Bn2
 BYTE   W24
 BYTE   Bn1
 BYTE   N05  Bn2
 BYTE   W24
 BYTE   An1
 BYTE   N05  An2
 BYTE   W17
 BYTE   VOL   30*FFLegend2DreadfulFightMrGreeen3339_mvl/mxv
 BYTE   W01
 BYTE   Gn0
 BYTE   W01
 BYTE   Gs0
 BYTE   W01
 BYTE   An0
 BYTE   W01
 BYTE   As0
 BYTE   W01
 BYTE   Bn0
 BYTE   W02
 BYTE   Cn1
 BYTE   N05  Bn1
 BYTE   N05  Bn2
 BYTE   W01
 BYTE   VOL   36*FFLegend2DreadfulFightMrGreeen3339_mvl/mxv
 BYTE   W01
 BYTE   Cs1
 BYTE   W01
 BYTE   Ds1
 BYTE   W01
 BYTE   Ds1
 BYTE   W01
 BYTE   En1
 BYTE   W06
 BYTE   Fn1
 BYTE   W06
 BYTE   Fs1
 BYTE   W02
 BYTE   Fs1
 BYTE   W05
// 020   ----------------------------------------
 BYTE   W10
 BYTE   Gn1
 BYTE   W01
 BYTE   Gn1
 BYTE   W03
 BYTE   Gs1
 BYTE   W02
 BYTE   An1
 BYTE   W04
 BYTE   As1
 BYTE   W04
 BYTE   As1
 BYTE   W03
 BYTE   Bn1
 BYTE   W01
 BYTE   Cn2
 BYTE   W02
 BYTE   Cs2
 BYTE   W04
 BYTE   Dn2
 BYTE   W03
 BYTE   Dn2
 BYTE   W02
 BYTE   Ds2
 BYTE   W03
 BYTE   Ds2
 BYTE   W02
 BYTE   En2
 BYTE   W04
 BYTE   Fn2
 BYTE   W01
 BYTE   Fs2
 BYTE   W02
 BYTE   Gn2
 BYTE   W01
 BYTE   Gs2
 BYTE   W01
 BYTE   An2
 BYTE   W01
 BYTE   As2
 BYTE   W01
 BYTE   Cn3
 BYTE   W40
 BYTE   W01
// 021   ----------------------------------------
 BYTE   W36
 BYTE   Bn2
 BYTE   W01
 BYTE   As2
 BYTE   W01
 BYTE   An2
 BYTE   W01
 BYTE   Gs2
 BYTE   W01
 BYTE   Gn2
 BYTE   W01
 BYTE   Fs2
 BYTE   W01
 BYTE   En2
 BYTE   W01
 BYTE   Ds2
 BYTE   W01
 BYTE   Dn2
 BYTE   W01
 BYTE   Dn2
 BYTE   W01
 BYTE   Cn2
 BYTE   W01
 BYTE   Bn1
 BYTE   W01
 BYTE   As1
 BYTE   W01
 BYTE   As1
 BYTE   W01
 BYTE   An1
 BYTE   W01
 BYTE   Gs1
 BYTE   W01
 BYTE   Gn1
 BYTE   W01
 BYTE   Fs1
 BYTE   W01
 BYTE   Fs1
 BYTE   W01
 BYTE   Fn1
 BYTE   W01
 BYTE   En1
 BYTE   W01
 BYTE   Ds1
 BYTE   W01
 BYTE   Ds1
 BYTE   W02
 BYTE   Dn1
 BYTE   W01
 BYTE   Cs1
 BYTE   W01
 BYTE   Cn1
 BYTE   W01
 BYTE   Bn0
 BYTE   W01
 BYTE   As0
 BYTE   W01
 BYTE   An0
 BYTE   W04
 BYTE   Gs0
 BYTE   W08
 BYTE   Gn0
 BYTE   W01
 BYTE   Gn0
 BYTE   W01
 BYTE   Fs0
 BYTE   W01
 BYTE   Fn0
 BYTE   W16
// 022   ----------------------------------------
 BYTE   VOICE   48
 BYTE   N11  En1
 BYTE   N11  En2
 BYTE   W24
 BYTE   En1
 BYTE   N11  En2
 BYTE   W24
 BYTE   Fs1
 BYTE   N11  Fs2
 BYTE   W24
 BYTE   Fs1
 BYTE   N11  Fs2
 BYTE   W24
// 023   ----------------------------------------
 BYTE   PATT
  POIN2 Label_5_0114926C
// 024   ----------------------------------------
 BYTE   PATT
  POIN2 Label_5_0114927F
// 025   ----------------------------------------
 BYTE   N56  Bn3  v127
 BYTE   N56  Bn4
 BYTE   W60
 BYTE   N11  Bn3
 BYTE   N11  Bn4
 BYTE   W12
 BYTE   Bn3
 BYTE   N11  Bn4
 BYTE   W12
 BYTE   Bn3
 BYTE   N11  Bn4
 BYTE   W12
// 026   ----------------------------------------
 BYTE   En4
 BYTE   N11  En5
 BYTE   W36
 BYTE   En4
 BYTE   N11  En5
 BYTE   W24
 BYTE   En4
 BYTE   N11  En5
 BYTE   W12
 BYTE   En4
 BYTE   N11  En5
 BYTE   W12
 BYTE   En4
 BYTE   N11  En5
 BYTE   W12
// 027   ----------------------------------------
 BYTE   GoTo
  POIN2 Label_5_011492A9
 BYTE   FINE

//**************** Track 7 (Midi-Chn.6) ****************//

FFLegend2DreadfulFightMrGreeen3339_007:
// 000   ----------------------------------------
 BYTE   KEYSH   FFLegend2DreadfulFightMrGreeen3339_key+0
 BYTE   VOICE   127
 BYTE   VOL   60*FFLegend2DreadfulFightMrGreeen3339_mvl/mxv
 BYTE   N05  En1  v127
 BYTE   N11  Cs2
 BYTE   W06
 BYTE   N05  En1
 BYTE   W06
 BYTE   N05
 BYTE   W06
 BYTE   N05
 BYTE   W06
 BYTE   N05
 BYTE   W06
 BYTE   N05
 BYTE   W06
 BYTE   N05
 BYTE   W06
 BYTE   N05
 BYTE   W06
 BYTE   N11  Bn0
 BYTE   N11  Cn1
 BYTE   N11  Dn1
 BYTE   N05  En1
 BYTE   N11  Cs2
 BYTE   W06
 BYTE   N05  En1
 BYTE   W06
 BYTE   N05
 BYTE   W06
 BYTE   N05
 BYTE   W06
 BYTE   N05
 BYTE   W06
 BYTE   N05
 BYTE   W06
 BYTE   N05
 BYTE   W06
 BYTE   N05
 BYTE   W06
// 001   ----------------------------------------
Label_6_011494F5:
 BYTE   N11  Bn0  v127
 BYTE   N11  Cn1
 BYTE   N11  Dn1
 BYTE   N05  En1
 BYTE   N11  Cs2
 BYTE   W06
 BYTE   N05  En1
 BYTE   W06
 BYTE   N05
 BYTE   W06
 BYTE   N05
 BYTE   W06
 BYTE   N05
 BYTE   W06
 BYTE   N05
 BYTE   W06
 BYTE   N05
 BYTE   W06
 BYTE   N05
 BYTE   W06
 BYTE   N11  Bn0
 BYTE   N11  Cn1
 BYTE   N11  Dn1
 BYTE   N05  En1
 BYTE   N11  Cs2
 BYTE   W06
 BYTE   N05  En1
 BYTE   W06
 BYTE   N05
 BYTE   W06
 BYTE   N05
 BYTE   W06
 BYTE   N05
 BYTE   W06
 BYTE   N05
 BYTE   W06
 BYTE   N05
 BYTE   W06
 BYTE   N05
 BYTE   W06
 BYTE   PEND 
// 002   ----------------------------------------
 BYTE   PATT
  POIN2 Label_6_011494F5
// 003   ----------------------------------------
Label_6_01149530:
 BYTE   N05  Dn1  v127
 BYTE   N05  En1
 BYTE   N23  Cs2
 BYTE   N23  An2
 BYTE   W12
 BYTE   N05  Gn0
 BYTE   N05  Cn1
 BYTE   W12
 BYTE   Dn1
 BYTE   N05  En1
 BYTE   W12
 BYTE   Gn0
 BYTE   N05  Cn1
 BYTE   W12
 BYTE   Gn0
 BYTE   N05  Cn1
 BYTE   N05  Dn1
 BYTE   N05  En1
 BYTE   N05  Cs2
 BYTE   N05  An2
 BYTE   W12
 BYTE   N02  En1
 BYTE   W03
 BYTE   N02
 BYTE   W03
 BYTE   N02
 BYTE   W03
 BYTE   N02
 BYTE   W03
 BYTE   Dn1
 BYTE   N02  En1
 BYTE   W03
 BYTE   Dn1
 BYTE   N02  En1
 BYTE   W03
 BYTE   Dn1
 BYTE   N02  En1
 BYTE   W03
 BYTE   Dn1
 BYTE   N02  En1
 BYTE   W03
 BYTE   Cn1
 BYTE   N02  Dn1
 BYTE   N02  En1
 BYTE   W03
 BYTE   Cn1
 BYTE   N02  Dn1
 BYTE   N02  En1
 BYTE   W03
 BYTE   Cn1
 BYTE   N02  Dn1
 BYTE   N02  En1
 BYTE   W03
 BYTE   Cn1
 BYTE   N02  Dn1
 BYTE   N02  En1
 BYTE   W03
 BYTE   PEND 
// 004   ----------------------------------------
Label_6_01149585:
 BYTE   N05  En1  v127
 BYTE   W12
 BYTE   Dn1
 BYTE   W06
 BYTE   N05
 BYTE   W06
 BYTE   N05
 BYTE   W12
 BYTE   En1
 BYTE   W12
 BYTE   Dn1
 BYTE   W06
 BYTE   N05
 BYTE   W06
 BYTE   N05
 BYTE   W12
 BYTE   En1
 BYTE   W12
 BYTE   Dn1
 BYTE   W12
 BYTE   PEND 
// 005   ----------------------------------------
Label_6_0114959C:
// 006   ----------------------------------------
 BYTE   PATT
  POIN2 Label_6_01149585
// 007   ----------------------------------------
 BYTE   PATT
  POIN2 Label_6_01149585
// 008   ----------------------------------------
 BYTE   N05  En1  v127
 BYTE   W12
 BYTE   Cn1
 BYTE   W12
 BYTE   En1
 BYTE   W12
 BYTE   Cn1
 BYTE   W12
 BYTE   En1
 BYTE   W12
 BYTE   Cn1
 BYTE   W12
 BYTE   En1
 BYTE   W12
 BYTE   Cn1
 BYTE   W12
// 009   ----------------------------------------
Label_6_011495B8:
 BYTE   N05  En1  v127
 BYTE   W12
 BYTE   N05
 BYTE   W06
 BYTE   N05
 BYTE   W06
 BYTE   N05
 BYTE   W12
 BYTE   Cn1
 BYTE   W12
 BYTE   En1
 BYTE   W12
 BYTE   Cn1
 BYTE   W12
 BYTE   En1
 BYTE   W12
 BYTE   Dn1
 BYTE   W12
 BYTE   PEND 
// 010   ----------------------------------------
Label_6_011495CD:
 BYTE   N05  Dn1  v127
 BYTE   W12
 BYTE   N05
 BYTE   W06
 BYTE   N05
 BYTE   W06
 BYTE   N05
 BYTE   W12
 BYTE   Cn1
 BYTE   W12
 BYTE   En1
 BYTE   W12
 BYTE   Cn1
 BYTE   W12
 BYTE   En1
 BYTE   W24
 BYTE   PEND 
// 011   ----------------------------------------
Label_6_011495E0:
 BYTE   N05  Cn1  v127
 BYTE   N05  En1
 BYTE   W12
 BYTE   Cn1
 BYTE   W12
 BYTE   N05
 BYTE   N05  En1
 BYTE   W12
 BYTE   Cn1
 BYTE   W12
 BYTE   N05
 BYTE   N05  En1
 BYTE   W12
 BYTE   Cn1
 BYTE   W12
 BYTE   N05
 BYTE   N05  En1
 BYTE   W12
 BYTE   Cn1
 BYTE   W12
 BYTE   PEND 
// 012   ----------------------------------------
 BYTE   PATT
  POIN2 Label_6_011495E0
// 013   ----------------------------------------
Label_6_01149600:
 BYTE   N05  Cn1  v127
 BYTE   N05  En1
 BYTE   N05  Cs2
 BYTE   N05  An2
 BYTE   W48
 BYTE   N02  Cn1
 BYTE   N02  En1
 BYTE   W06
 BYTE   Cn1
 BYTE   N02  En1
 BYTE   W06
 BYTE   Cn1
 BYTE   N02  En1
 BYTE   W06
 BYTE   Cn1
 BYTE   N02  En1
 BYTE   W06
 BYTE   Cn1
 BYTE   N02  En1
 BYTE   W06
 BYTE   Cn1
 BYTE   N02  En1
 BYTE   W06
 BYTE   Cn1
 BYTE   N02  En1
 BYTE   W06
 BYTE   Cn1
 BYTE   N02  En1
 BYTE   W06
 BYTE   PEND 
// 014   ----------------------------------------
 BYTE   PATT
  POIN2 Label_6_01149600
// 015   ----------------------------------------
 BYTE   N05  Cn1  v127
 BYTE   N05  En1
 BYTE   N05  Cs2
 BYTE   N05  An2
 BYTE   W12
 BYTE   Bn0
 BYTE   W12
 BYTE   En1
 BYTE   W12
 BYTE   Bn0
 BYTE   W12
 BYTE   En1
 BYTE   W12
 BYTE   Bn0
 BYTE   W12
 BYTE   En1
 BYTE   W12
 BYTE   Bn0
 BYTE   W12
// 016   ----------------------------------------
 BYTE   En1
 BYTE   W12
 BYTE   Bn0
 BYTE   W12
 BYTE   En1
 BYTE   W12
 BYTE   Bn0
 BYTE   W12
 BYTE   En1
 BYTE   W12
 BYTE   Bn0
 BYTE   N05  Cs2
 BYTE   W12
 BYTE   En1
 BYTE   N05  Cs2
 BYTE   W12
 BYTE   Bn0
 BYTE   N05  Cs2
 BYTE   W12
// 017   ----------------------------------------
 BYTE   PATT
  POIN2 Label_6_011495B8
// 018   ----------------------------------------
 BYTE   PATT
  POIN2 Label_6_011495CD
// 019   ----------------------------------------
 BYTE   PATT
  POIN2 Label_6_011495E0
// 020   ----------------------------------------
 BYTE   N05  Cn1  v127
 BYTE   N05  En1
 BYTE   W48
 BYTE   N02  Cn1
 BYTE   N02  En1
 BYTE   W06
 BYTE   Cn1
 BYTE   N02  En1
 BYTE   W06
 BYTE   Cn1
 BYTE   N02  En1
 BYTE   W06
 BYTE   Cn1
 BYTE   N02  En1
 BYTE   W06
 BYTE   Cn1
 BYTE   N02  En1
 BYTE   W06
 BYTE   Cn1
 BYTE   N02  En1
 BYTE   W06
 BYTE   Cn1
 BYTE   N02  En1
 BYTE   W06
 BYTE   Cn1
 BYTE   N02  En1
 BYTE   W06
// 021   ----------------------------------------
 BYTE   Cn1
 BYTE   N02  Dn1
 BYTE   N02  En1
 BYTE   N02  Cs2
 BYTE   W48
 BYTE   Cn1
 BYTE   N02  En1
 BYTE   W06
 BYTE   Cn1
 BYTE   N02  En1
 BYTE   W06
 BYTE   Cn1
 BYTE   N02  En1
 BYTE   W06
 BYTE   Cn1
 BYTE   N02  En1
 BYTE   W06
 BYTE   Cn1
 BYTE   N02  En1
 BYTE   W06
 BYTE   Cn1
 BYTE   N02  En1
 BYTE   W06
 BYTE   Cn1
 BYTE   N02  En1
 BYTE   W06
 BYTE   Cn1
 BYTE   N02  En1
 BYTE   W06
// 022   ----------------------------------------
 BYTE   N05  Cn1
 BYTE   N05  En1
 BYTE   W12
 BYTE   Gn0
 BYTE   N05  An0
 BYTE   W12
 BYTE   Cn1
 BYTE   N05  En1
 BYTE   W12
 BYTE   Gn0
 BYTE   N05  An0
 BYTE   W12
 BYTE   Cn1
 BYTE   N05  En1
 BYTE   W12
 BYTE   Gn0
 BYTE   N05  An0
 BYTE   W12
 BYTE   Cn1
 BYTE   N05  En1
 BYTE   W12
 BYTE   Gn0
 BYTE   N05  An0
 BYTE   W12
// 023   ----------------------------------------
 BYTE   En1
 BYTE   N11  Cs2
 BYTE   W06
 BYTE   N05  En1
 BYTE   W06
 BYTE   N05
 BYTE   W06
 BYTE   N05
 BYTE   W06
 BYTE   N05
 BYTE   W06
 BYTE   N05
 BYTE   W06
 BYTE   N05
 BYTE   W06
 BYTE   N05
 BYTE   W06
 BYTE   N11  Bn0
 BYTE   N11  Cn1
 BYTE   N11  Dn1
 BYTE   N05  En1
 BYTE   N11  Cs2
 BYTE   W06
 BYTE   N05  En1
 BYTE   W06
 BYTE   N05
 BYTE   W06
 BYTE   N05
 BYTE   W06
 BYTE   N05
 BYTE   W06
 BYTE   N05
 BYTE   W06
 BYTE   N05
 BYTE   W06
 BYTE   N05
 BYTE   W06
// 024   ----------------------------------------
 BYTE   PATT
  POIN2 Label_6_011494F5
// 025   ----------------------------------------
 BYTE   PATT
  POIN2 Label_6_011494F5
// 026   ----------------------------------------
 BYTE   PATT
  POIN2 Label_6_01149530
// 027   ----------------------------------------
 BYTE   PATT
  POIN2 Label_6_01149585
// 028   ----------------------------------------
 BYTE   GoTo
  POIN2 Label_6_0114959C
 BYTE   FINE

//**************** Track 8 (Midi-Chn.7) ****************//

FFLegend2DreadfulFightMrGreeen3339_008:
// 000   ----------------------------------------
 BYTE   VOL   60*FFLegend2DreadfulFightMrGreeen3339_mvl/mxv
 BYTE   KEYSH   FFLegend2DreadfulFightMrGreeen3339_key+0
 BYTE   VOICE   127
 BYTE   N11  An4  v127
 BYTE   N32  Bn4
 BYTE   W12
 BYTE   N05  An4
 BYTE   W06
 BYTE   N05
 BYTE   W06
 BYTE   N05
 BYTE   W12
 BYTE   N11
 BYTE   N11  Bn4
 BYTE   W24
 BYTE   An4
 BYTE   N11  Bn4
 BYTE   W24
 BYTE   N05  An4
 BYTE   N11  Bn4
 BYTE   W12
// 001   ----------------------------------------
Label_7_01149748:
 BYTE   N11  An4  v127
 BYTE   N32  Bn4
 BYTE   W12
 BYTE   N05  An4
 BYTE   W06
 BYTE   N05
 BYTE   W06
 BYTE   N05
 BYTE   W12
 BYTE   N11
 BYTE   N11  Bn4
 BYTE   W24
 BYTE   An4
 BYTE   N11  Bn4
 BYTE   W24
 BYTE   N05  An4
 BYTE   N11  Bn4
 BYTE   W12
 BYTE   PEND 
// 002   ----------------------------------------
Label_7_01149763:
 BYTE   N05  An4  v127
 BYTE   N32  Bn4
 BYTE   W12
 BYTE   N05  An4
 BYTE   W06
 BYTE   N05
 BYTE   W06
 BYTE   N05
 BYTE   W12
 BYTE   N11
 BYTE   N11  Bn4
 BYTE   W24
 BYTE   An4
 BYTE   N11  Bn4
 BYTE   W24
 BYTE   N05  An4
 BYTE   N11  Bn4
 BYTE   W12
 BYTE   PEND 
// 003   ----------------------------------------
Label_7_0114977E:
 BYTE   N11  An4  v127
 BYTE   N05  Bn4
 BYTE   W12
 BYTE   N11  An4
 BYTE   N05  Bn4
 BYTE   W12
 BYTE   N11  An4
 BYTE   N05  Bn4
 BYTE   W12
 BYTE   N11  An4
 BYTE   N05  Bn4
 BYTE   W12
 BYTE   N11  An4
 BYTE   N11  Bn4
 BYTE   W42
 BYTE   N05  Cn1
 BYTE   W06
 BYTE   PEND 
// 004   ----------------------------------------
Label_7_0114979C:
 BYTE   N11  An4  v127
 BYTE   N05  Bn4
 BYTE   W12
 BYTE   An4
 BYTE   W06
 BYTE   N05
 BYTE   W06
 BYTE   N05
 BYTE   W12
 BYTE   N11
 BYTE   N05  Bn4
 BYTE   W24
 BYTE   N11  An4
 BYTE   N05  Bn4
 BYTE   W24
 BYTE   An4
 BYTE   N05  Bn4
 BYTE   W12
 BYTE   PEND 
// 005   ----------------------------------------
Label_7_011497B6:
// 006   ----------------------------------------
 BYTE   PATT
  POIN2 Label_7_0114979C
// 007   ----------------------------------------
 BYTE   PATT
  POIN2 Label_7_0114979C
// 008   ----------------------------------------
 BYTE   N11  An4  v127
 BYTE   W12
 BYTE   N05
 BYTE   N05  Bn4
 BYTE   W06
 BYTE   An4
 BYTE   W06
 BYTE   N05
 BYTE   W12
 BYTE   N11
 BYTE   N05  Bn4
 BYTE   W24
 BYTE   N11  An4
 BYTE   N05  Bn4
 BYTE   W24
 BYTE   An4
 BYTE   N05  Bn4
 BYTE   W12
// 009   ----------------------------------------
 BYTE   N11  An4
 BYTE   W12
 BYTE   N05
 BYTE   N05  Bn4
 BYTE   W06
 BYTE   An4
 BYTE   W06
 BYTE   N05
 BYTE   N05  Bn4
 BYTE   W12
 BYTE   N11  An4
 BYTE   N05  Bn4
 BYTE   W12
 BYTE   N05
 BYTE   W12
 BYTE   N11  An4
 BYTE   N05  Bn4
 BYTE   W12
 BYTE   N05
 BYTE   W12
 BYTE   An4
 BYTE   N05  Bn4
 BYTE   W12
// 010   ----------------------------------------
 BYTE   N05
 BYTE   W01
 BYTE   N11  An4
 BYTE   W11
 BYTE   N05  Bn4
 BYTE   W01
 BYTE   An4
 BYTE   W06
 BYTE   N05
 BYTE   W05
 BYTE   Bn4
 BYTE   W01
 BYTE   An4
 BYTE   W11
 BYTE   Bn4
 BYTE   W01
 BYTE   N11  An4
 BYTE   W11
 BYTE   N05  Bn4
 BYTE   W12
 BYTE   N05
 BYTE   W01
 BYTE   N11  An4
 BYTE   W11
 BYTE   N05  Bn4
 BYTE   W12
 BYTE   N05
 BYTE   W01
 BYTE   An4
 BYTE   W11
// 011   ----------------------------------------
 BYTE   Bn4
 BYTE   W01
 BYTE   N11  An4
 BYTE   W12
 BYTE   N05
 BYTE   W06
 BYTE   N05
 BYTE   W05
 BYTE   Bn4
 BYTE   W01
 BYTE   An4
 BYTE   W11
 BYTE   Bn4
 BYTE   W01
 BYTE   N11  An4
 BYTE   W11
 BYTE   N05  Bn4
 BYTE   W13
 BYTE   N11  An4
 BYTE   W11
 BYTE   N05  Bn4
 BYTE   W13
 BYTE   An4
 BYTE   W11
// 012   ----------------------------------------
 BYTE   W01
 BYTE   N11
 BYTE   W11
 BYTE   N05  Bn4
 BYTE   W01
 BYTE   An4
 BYTE   W06
 BYTE   N05
 BYTE   W05
 BYTE   Bn4
 BYTE   W01
 BYTE   An4
 BYTE   W11
 BYTE   Bn4
 BYTE   W01
 BYTE   N11  An4
 BYTE   W11
 BYTE   N05  Bn4
 BYTE   W12
 BYTE   N05
 BYTE   W01
 BYTE   N11  An4
 BYTE   W11
 BYTE   N05  Bn4
 BYTE   W12
 BYTE   N05
 BYTE   W01
 BYTE   An4
 BYTE   W11
// 013   ----------------------------------------
Label_7_0114985B:
 BYTE   N05  Bn4  v127
 BYTE   W01
 BYTE   N11  An4
 BYTE   W12
 BYTE   N05
 BYTE   W06
 BYTE   N05
 BYTE   W06
 BYTE   N05
 BYTE   W11
 BYTE   Bn4
 BYTE   W01
 BYTE   N11  An4
 BYTE   W23
 BYTE   N05  Bn4
 BYTE   W01
 BYTE   N11  An4
 BYTE   W23
 BYTE   N05  Bn4
 BYTE   W01
 BYTE   An4
 BYTE   W11
 BYTE   PEND 
// 014   ----------------------------------------
 BYTE   PATT
  POIN2 Label_7_0114985B
// 015   ----------------------------------------
 BYTE   N05  Bn4  v127
 BYTE   W02
 BYTE   N11  An4
 BYTE   W12
 BYTE   N05
 BYTE   W06
 BYTE   N05
 BYTE   W06
 BYTE   N05
 BYTE   W10
 BYTE   Bn4
 BYTE   W02
 BYTE   N11  An4
 BYTE   W04
 BYTE   N05  Bn4
 BYTE   W06
 BYTE   N05
 BYTE   W06
 BYTE   N05
 BYTE   W06
 BYTE   N05
 BYTE   W02
 BYTE   N11  An4
 BYTE   W04
 BYTE   N05  Bn4
 BYTE   W06
 BYTE   N05
 BYTE   W06
 BYTE   N05
 BYTE   W06
 BYTE   N05
 BYTE   W02
 BYTE   An4
 BYTE   W04
 BYTE   Bn4
 BYTE   W06
// 016   ----------------------------------------
 BYTE   N05
 BYTE   W02
 BYTE   N11  An4
 BYTE   W12
 BYTE   N05
 BYTE   W06
 BYTE   N05
 BYTE   W04
 BYTE   Bn4
 BYTE   W02
 BYTE   An4
 BYTE   W12
 BYTE   N11
 BYTE   W10
 BYTE   N05  Bn4
 BYTE   W14
 BYTE   N11  An4
 BYTE   W10
 BYTE   N05  Bn4
 BYTE   W14
 BYTE   An4
 BYTE   W10
// 017   ----------------------------------------
Label_7_011498C3:
 BYTE   N05  Bn4  v127
 BYTE   W02
 BYTE   N11  An4
 BYTE   W10
 BYTE   N05  Bn4
 BYTE   W02
 BYTE   An4
 BYTE   W06
 BYTE   N05
 BYTE   W04
 BYTE   Bn4
 BYTE   W02
 BYTE   An4
 BYTE   W10
 BYTE   Bn4
 BYTE   W02
 BYTE   N11  An4
 BYTE   W10
 BYTE   N05  Bn4
 BYTE   W12
 BYTE   N05
 BYTE   W02
 BYTE   N11  An4
 BYTE   W10
 BYTE   N05  Bn4
 BYTE   W12
 BYTE   N05
 BYTE   W02
 BYTE   An4
 BYTE   W10
 BYTE   PEND 
// 018   ----------------------------------------
 BYTE   PATT
  POIN2 Label_7_011498C3
// 019   ----------------------------------------
 BYTE   N05  Bn4  v127
 BYTE   W02
 BYTE   N11  An4
 BYTE   W12
 BYTE   N05
 BYTE   W06
 BYTE   N05
 BYTE   W06
 BYTE   N05
 BYTE   W10
 BYTE   Bn4
 BYTE   W02
 BYTE   N11  An4
 BYTE   W10
 BYTE   N05  Bn4
 BYTE   W14
 BYTE   N11  An4
 BYTE   W22
 BYTE   N05  Bn4
 BYTE   W02
 BYTE   An4
 BYTE   W10
// 020   ----------------------------------------
 BYTE   Bn4
 BYTE   W03
 BYTE   N11  An4
 BYTE   W12
 BYTE   N05
 BYTE   W06
 BYTE   N05
 BYTE   W03
 BYTE   Bn4
 BYTE   W03
 BYTE   An4
 BYTE   W12
 BYTE   N11
 BYTE   W09
 BYTE   N05  Bn4
 BYTE   W12
 BYTE   N05
 BYTE   W03
 BYTE   N11  An4
 BYTE   W09
 BYTE   N05  Bn4
 BYTE   W12
 BYTE   N05
 BYTE   W03
 BYTE   An4
 BYTE   W09
// 021   ----------------------------------------
 BYTE   Bn4
 BYTE   W03
 BYTE   N11  An4
 BYTE   W12
 BYTE   N05
 BYTE   W06
 BYTE   N05
 BYTE   W06
 BYTE   N05
 BYTE   W09
 BYTE   Bn4
 BYTE   W03
 BYTE   N11  An4
 BYTE   W03
 BYTE   N05  Bn4
 BYTE   W06
 BYTE   N05
 BYTE   W06
 BYTE   N05
 BYTE   W06
 BYTE   N05
 BYTE   W03
 BYTE   N11  An4
 BYTE   W03
 BYTE   N05  Bn4
 BYTE   W06
 BYTE   N05
 BYTE   W06
 BYTE   N05
 BYTE   W06
 BYTE   N05
 BYTE   W03
 BYTE   An4
 BYTE   W03
 BYTE   Bn4
 BYTE   W06
// 022   ----------------------------------------
 BYTE   N05
 BYTE   W03
 BYTE   N11  An4
 BYTE   W09
 BYTE   N05  Bn4
 BYTE   W03
 BYTE   An4
 BYTE   W06
 BYTE   N05
 BYTE   W03
 BYTE   Bn4
 BYTE   W03
 BYTE   An4
 BYTE   W09
 BYTE   Bn4
 BYTE   W03
 BYTE   N11  An4
 BYTE   W09
 BYTE   N05  Bn4
 BYTE   W12
 BYTE   N05
 BYTE   W03
 BYTE   N11  An4
 BYTE   W09
 BYTE   N05  Bn4
 BYTE   W06
 BYTE   N05
 BYTE   W06
 BYTE   N05
 BYTE   W03
 BYTE   An4
 BYTE   W03
 BYTE   Bn4
 BYTE   W06
// 023   ----------------------------------------
 BYTE   N03  An4
 BYTE   N32  Bn4
 BYTE   W03
 BYTE   N08  An4
 BYTE   W09
 BYTE   N03
 BYTE   W03
 BYTE   N02
 BYTE   W03
 BYTE   N03
 BYTE   W03
 BYTE   N02
 BYTE   W03
 BYTE   N03
 BYTE   W03
 BYTE   N02
 BYTE   W09
 BYTE   N03
 BYTE   N11  Bn4
 BYTE   W03
 BYTE   N08  An4
 BYTE   W21
 BYTE   N03
 BYTE   N11  Bn4
 BYTE   W03
 BYTE   N08  An4
 BYTE   W21
 BYTE   N03
 BYTE   N11  Bn4
 BYTE   W03
 BYTE   N02  An4
 BYTE   W09
// 024   ----------------------------------------
 BYTE   PATT
  POIN2 Label_7_01149748
// 025   ----------------------------------------
 BYTE   PATT
  POIN2 Label_7_01149763
// 026   ----------------------------------------
 BYTE   PATT
  POIN2 Label_7_0114977E
// 027   ----------------------------------------
 BYTE   PATT
  POIN2 Label_7_0114979C
// 028   ----------------------------------------
 BYTE   GoTo
  POIN2 Label_7_011497B6
 BYTE   FINE

//******************************************************//
	ALIGN 4

FFLegend2DreadfulFightMrGreeen3339:
	BYTE	8	// NumTrks
	BYTE	0	// NumBlks
	BYTE	FFLegend2DreadfulFightMrGreeen3339_pri	// Priority
	BYTE	FFLegend2DreadfulFightMrGreeen3339_rev	// Reverb.
    
	POIN2	FFLegend2DreadfulFightMrGreeen3339_grp
    
	POIN2	FFLegend2DreadfulFightMrGreeen3339_001
	POIN2	FFLegend2DreadfulFightMrGreeen3339_002
	POIN2	FFLegend2DreadfulFightMrGreeen3339_003
	POIN2	FFLegend2DreadfulFightMrGreeen3339_004
	POIN2	FFLegend2DreadfulFightMrGreeen3339_005
	POIN2	FFLegend2DreadfulFightMrGreeen3339_006
	POIN2	FFLegend2DreadfulFightMrGreeen3339_007
	POIN2	FFLegend2DreadfulFightMrGreeen3339_008

	
