//Event file generated from Sappy .s format.
	#include "MPlayDef.event"

	#define	FFMysticQuestVolcanoFeier_grp  voicegroup000
	#define	FFMysticQuestVolcanoFeier_pri  0
	#define	FFMysticQuestVolcanoFeier_rev  0
	#define	FFMysticQuestVolcanoFeier_mvl  127
	#define	FFMysticQuestVolcanoFeier_key  0
	#define	FFMysticQuestVolcanoFeier_tbs  1
	#define	FFMysticQuestVolcanoFeier_exg  0
	#define	FFMysticQuestVolcanoFeier_cmp  1

	// .rodata
	//	FFMysticQuestVolcanoFeier
	ALIGN 4


//**************** Track 1 (Midi-Chn.0) ****************//

FFMysticQuestVolcanoFeier_001:
// 000   ----------------------------------------
 BYTE   KEYSH   FFMysticQuestVolcanoFeier_key+0
 BYTE   TEMPO   222*FFMysticQuestVolcanoFeier_tbs/2
 BYTE   VOICE   100
 BYTE   W78
 BYTE   VOL   60*FFMysticQuestVolcanoFeier_mvl/mxv
 BYTE   N72  En3  v100
 BYTE   W18
// 001   ----------------------------------------
 BYTE   W54
 BYTE   N48  Bn3
 BYTE   W42
// 002   ----------------------------------------
Label_0_013E59F5:
 BYTE   W06
 BYTE   N12  As3  v100
 BYTE   W12
 BYTE   Bn3
 BYTE   W12
 BYTE   N72  As3
 BYTE   W66
 BYTE   PEND 
// 003   ----------------------------------------
Label_0_013E5A00:
 BYTE   W06
 BYTE   N12  Cn4  v100
 BYTE   W12
 BYTE   Bn3
 BYTE   W12
 BYTE   Cn4
 BYTE   W12
 BYTE   Dn4
 BYTE   W12
 BYTE   Cn4
 BYTE   W12
 BYTE   Dn4
 BYTE   W12
 BYTE   N36  En4
 BYTE   W18
 BYTE   PEND 
// 004   ----------------------------------------
Label_0_013E5A13:
 BYTE   W18
 BYTE   N12  Bn3  v100
 BYTE   W12
 BYTE   En4
 BYTE   W12
 BYTE   Bn3
 BYTE   W12
 BYTE   N24  As4
 BYTE   W24
 BYTE   An4
 BYTE   W18
 BYTE   PEND 
// 005   ----------------------------------------
Label_0_013E5A22:
 BYTE   W06
 BYTE   N24  Gn4  v100
 BYTE   W24
 BYTE   N12  Bn3
 BYTE   W12
 BYTE   As3
 BYTE   W12
 BYTE   Bn3
 BYTE   W12
 BYTE   En4
 BYTE   W12
 BYTE   Ds4
 BYTE   W12
 BYTE   En4
 BYTE   W06
 BYTE   PEND 
// 006   ----------------------------------------
Label_0_013E5A35:
 BYTE   W06
 BYTE   N12  Cn4  v100
 BYTE   W12
 BYTE   Bn3
 BYTE   W12
 BYTE   Cn4
 BYTE   W12
 BYTE   Gn4
 BYTE   W12
 BYTE   Fs4
 BYTE   W12
 BYTE   Gn4
 BYTE   W12
 BYTE   N72  En3
 BYTE   W18
 BYTE   PEND 
// 007   ----------------------------------------
 BYTE   W54
 BYTE   N48  Bn3
 BYTE   W42
 BYTE   PATT
  POIN2 Label_0_013E59F5
// 008   ----------------------------------------
Label_0_013E5A51:
 BYTE   W06
 BYTE   N12  Cn4  v100
 BYTE   W12
 BYTE   Bn3
 BYTE   W12
 BYTE   Cn4
 BYTE   W12
 BYTE   Dn4
 BYTE   W12
 BYTE   Cn4
 BYTE   W12
 BYTE   Dn4
 BYTE   W12
 BYTE   En4
 BYTE   W12
 BYTE   Ds4
 BYTE   W06
 BYTE   PEND 
// 009   ----------------------------------------
Label_0_013E5A65:
 BYTE   W06
 BYTE   N12  En4  v100
 BYTE   W12
 BYTE   Gn4
 BYTE   W12
 BYTE   Fs4
 BYTE   W12
 BYTE   Gn4
 BYTE   W12
 BYTE   N24  As4
 BYTE   W24
 BYTE   An4
 BYTE   W18
 BYTE   PEND 
// 010   ----------------------------------------
Label_0_013E5A76:
 BYTE   W06
 BYTE   N24  Gn4  v100
 BYTE   W24
 BYTE   Bn4
 BYTE   W24
 BYTE   N06  As4
 BYTE   W06
 BYTE   Bn4
 BYTE   W06
 BYTE   As4
 BYTE   W06
 BYTE   N30  An4
 BYTE   W24
 BYTE   PEND 
// 011   ----------------------------------------
Label_0_013E5A88:
 BYTE   W06
 BYTE   N24  Gn4  v100
 BYTE   W24
 BYTE   N06  Fs4
 BYTE   W06
 BYTE   Gn4
 BYTE   W06
 BYTE   Fs4
 BYTE   W06
 BYTE   N12  Fn4
 BYTE   W12
 BYTE   VOL   0*FFMysticQuestVolcanoFeier_mvl/mxv
 BYTE   TIE  Cn2
 BYTE   W36
 BYTE   PEND 
// 012   ----------------------------------------
 BYTE   W96
// 013   ----------------------------------------
 BYTE   W96
// 014   ----------------------------------------
 BYTE   W96
// 015   ----------------------------------------
 BYTE   W96
// 016   ----------------------------------------
 BYTE   W96
// 017   ----------------------------------------
 BYTE   W96
// 018   ----------------------------------------
 BYTE   W96
// 019   ----------------------------------------
 BYTE   W96
// 020   ----------------------------------------
 BYTE   W96
// 021   ----------------------------------------
 BYTE   W96
// 022   ----------------------------------------
 BYTE   W96
// 023   ----------------------------------------
 BYTE   W96
// 024   ----------------------------------------
 BYTE   W96
// 025   ----------------------------------------
 BYTE   W96
// 026   ----------------------------------------
 BYTE   W96
// 027   ----------------------------------------
 BYTE   W96
// 028   ----------------------------------------
 BYTE   W96
// 029   ----------------------------------------
 BYTE   W96
// 030   ----------------------------------------
 BYTE   W96
// 031   ----------------------------------------
 BYTE   W96
// 032   ----------------------------------------
 BYTE   W96
// 033   ----------------------------------------
 BYTE   W96
// 034   ----------------------------------------
 BYTE   W96
// 035   ----------------------------------------
 BYTE   W78
 BYTE   EOT
 BYTE   VOL   60*FFMysticQuestVolcanoFeier_mvl/mxv
 BYTE   N72  En3
 BYTE   W18
// 036   ----------------------------------------
 BYTE   W54
 BYTE   En4
 BYTE   W42
// 037   ----------------------------------------
Label_0_013E5ABE:
 BYTE   W30
 BYTE   N24  Bn3  v100
 BYTE   W24
 BYTE   As3
 BYTE   W24
 BYTE   An3
 BYTE   W18
 BYTE   PEND 
// 038   ----------------------------------------
Label_0_013E5AC8:
 BYTE   W06
 BYTE   N12  As3  v100
 BYTE   W12
 BYTE   An3
 BYTE   W12
 BYTE   As3
 BYTE   W12
 BYTE   Bn3
 BYTE   W12
 BYTE   As3
 BYTE   W12
 BYTE   An3
 BYTE   W12
 BYTE   N24  As3
 BYTE   W18
 BYTE   PEND 
// 039   ----------------------------------------
Label_0_013E5ADB:
 BYTE   W06
 BYTE   N24  En4  v100
 BYTE   W24
 BYTE   N96  As4
 BYTE   W24
 BYTE   VOL   0*FFMysticQuestVolcanoFeier_mvl/mxv
 BYTE   W42
 BYTE   PEND 
// 040   ----------------------------------------
Label_0_013E5AE7:
 BYTE   W30
 BYTE   VOL   60*FFMysticQuestVolcanoFeier_mvl/mxv
 BYTE   N72  En3  v100
 BYTE   W66
 BYTE   PEND 
// 041   ----------------------------------------
Label_0_013E5AEF:
 BYTE   W06
 BYTE   N48  Bn3  v100
 BYTE   W48
 BYTE   N12  As3
 BYTE   W12
 BYTE   Bn3
 BYTE   W12
 BYTE   N72  As3
 BYTE   W18
 BYTE   PEND 
// 042   ----------------------------------------
Label_0_013E5AFD:
 BYTE   W54
 BYTE   N12  Cn4  v100
 BYTE   W12
 BYTE   Bn3
 BYTE   W12
 BYTE   Cn4
 BYTE   W12
 BYTE   Dn4
 BYTE   W06
 BYTE   PEND 
// 043   ----------------------------------------
Label_0_013E5B09:
 BYTE   W06
 BYTE   N12  Cn4  v100
 BYTE   W12
 BYTE   Dn4
 BYTE   W12
 BYTE   N36  En4
 BYTE   W36
 BYTE   N12  Bn3
 BYTE   W12
 BYTE   En4
 BYTE   W12
 BYTE   Bn3
 BYTE   W06
 BYTE   PEND 
// 044   ----------------------------------------
Label_0_013E5B1B:
 BYTE   W06
 BYTE   N24  As4  v100
 BYTE   W24
 BYTE   An4
 BYTE   W24
 BYTE   Gn4
 BYTE   W24
 BYTE   N12  Bn3
 BYTE   W12
 BYTE   As3
 BYTE   W06
 BYTE   PEND 
// 045   ----------------------------------------
Label_0_013E5B2A:
 BYTE   W06
 BYTE   N12  Bn3  v100
 BYTE   W12
 BYTE   En4
 BYTE   W12
 BYTE   Ds4
 BYTE   W12
 BYTE   En4
 BYTE   W12
 BYTE   Cn4
 BYTE   W12
 BYTE   Bn3
 BYTE   W12
 BYTE   Cn4
 BYTE   W12
 BYTE   Gn4
 BYTE   W06
 BYTE   PEND 
// 046   ----------------------------------------
Label_0_013E5B3E:
 BYTE   W06
 BYTE   N12  Fs4  v100
 BYTE   W12
 BYTE   Gn4
 BYTE   W12
 BYTE   N72  En3
 BYTE   W66
 BYTE   PEND 
 BYTE   PATT
  POIN2 Label_0_013E5AEF
 BYTE   PATT
  POIN2 Label_0_013E5AFD
// 047   ----------------------------------------
Label_0_013E5B53:
 BYTE   W06
 BYTE   N12  Cn4  v100
 BYTE   W12
 BYTE   Dn4
 BYTE   W12
 BYTE   En4
 BYTE   W12
 BYTE   Ds4
 BYTE   W12
 BYTE   En4
 BYTE   W12
 BYTE   Gn4
 BYTE   W12
 BYTE   Fs4
 BYTE   W12
 BYTE   Gn4
 BYTE   W06
 BYTE   PEND 
// 048   ----------------------------------------
Label_0_013E5B67:
 BYTE   W06
 BYTE   N24  As4  v100
 BYTE   W24
 BYTE   An4
 BYTE   W24
 BYTE   Gn4
 BYTE   W24
 BYTE   Bn4
 BYTE   W18
 BYTE   PEND 
// 049   ----------------------------------------
Label_0_013E5B73:
 BYTE   W06
 BYTE   N06  As4  v100
 BYTE   W06
 BYTE   Bn4
 BYTE   W06
 BYTE   As4
 BYTE   W06
 BYTE   N30  An4
 BYTE   W30
 BYTE   N24  Gn4
 BYTE   W24
 BYTE   N06  Fs4
 BYTE   W06
 BYTE   Gn4
 BYTE   W06
 BYTE   Fs4
 BYTE   W06
 BYTE   PEND 
// 050   ----------------------------------------
Label_0_013E5B8A:
 BYTE   N12  Fn4  v100
 BYTE   W12
 BYTE   VOL   0*FFMysticQuestVolcanoFeier_mvl/mxv
 BYTE   TIE  Cn2
 BYTE   W84
 BYTE   PEND 
// 051   ----------------------------------------
 BYTE   W96
// 052   ----------------------------------------
 BYTE   W96
// 053   ----------------------------------------
 BYTE   W96
// 054   ----------------------------------------
 BYTE   W96
// 055   ----------------------------------------
 BYTE   W96
// 056   ----------------------------------------
 BYTE   W96
// 057   ----------------------------------------
 BYTE   W96
// 058   ----------------------------------------
 BYTE   W96
// 059   ----------------------------------------
 BYTE   W96
// 060   ----------------------------------------
 BYTE   W96
// 061   ----------------------------------------
 BYTE   W96
// 062   ----------------------------------------
 BYTE   W96
// 063   ----------------------------------------
 BYTE   W96
// 064   ----------------------------------------
 BYTE   W96
// 065   ----------------------------------------
 BYTE   W96
// 066   ----------------------------------------
 BYTE   W96
// 067   ----------------------------------------
 BYTE   W96
// 068   ----------------------------------------
 BYTE   W96
// 069   ----------------------------------------
 BYTE   W96
// 070   ----------------------------------------
 BYTE   W96
// 071   ----------------------------------------
 BYTE   W96
// 072   ----------------------------------------
 BYTE   W96
// 073   ----------------------------------------
 BYTE   W96
// 074   ----------------------------------------
 BYTE   W30
 BYTE   EOT
 BYTE   VOL   60*FFMysticQuestVolcanoFeier_mvl/mxv
 BYTE   N72  En3
 BYTE   W66
// 075   ----------------------------------------
Label_0_013E5BB2:
 BYTE   W06
 BYTE   N72  En4  v100
 BYTE   W72
 BYTE   N24  Bn3
 BYTE   W18
 BYTE   PEND 
// 076   ----------------------------------------
Label_0_013E5BBB:
 BYTE   W06
 BYTE   N24  As3  v100
 BYTE   W24
 BYTE   An3
 BYTE   W24
 BYTE   N12  As3
 BYTE   W12
 BYTE   An3
 BYTE   W12
 BYTE   As3
 BYTE   W12
 BYTE   Bn3
 BYTE   W06
 BYTE   PEND 
// 077   ----------------------------------------
Label_0_013E5BCC:
 BYTE   W06
 BYTE   N12  As3  v100
 BYTE   W12
 BYTE   An3
 BYTE   W12
 BYTE   N24  As3
 BYTE   W24
 BYTE   En4
 BYTE   W24
 BYTE   N96  As4
 BYTE   W18
 BYTE   PEND 
// 078   ----------------------------------------
 BYTE   W06
 BYTE   VOL   0*FFMysticQuestVolcanoFeier_mvl/mxv
 BYTE   W72
 BYTE   Gs4
 BYTE   N72  En3
 BYTE   W18
// 079   ----------------------------------------
 BYTE   W54
 BYTE   N48  Bn3
 BYTE   W42
 BYTE   PATT
  POIN2 Label_0_013E59F5
 BYTE   PATT
  POIN2 Label_0_013E5A00
 BYTE   PATT
  POIN2 Label_0_013E5A13
 BYTE   PATT
  POIN2 Label_0_013E5A22
 BYTE   PATT
  POIN2 Label_0_013E5A35
// 080   ----------------------------------------
 BYTE   W54
 BYTE   N48  Bn3  v100
 BYTE   W42
 BYTE   PATT
  POIN2 Label_0_013E59F5
 BYTE   PATT
  POIN2 Label_0_013E5A51
 BYTE   PATT
  POIN2 Label_0_013E5A65
 BYTE   PATT
  POIN2 Label_0_013E5A76
 BYTE   PATT
  POIN2 Label_0_013E5A88
// 081   ----------------------------------------
 BYTE   W96
// 082   ----------------------------------------
 BYTE   W96
// 083   ----------------------------------------
 BYTE   W96
// 084   ----------------------------------------
 BYTE   W96
// 085   ----------------------------------------
 BYTE   W96
// 086   ----------------------------------------
 BYTE   W96
// 087   ----------------------------------------
 BYTE   W96
// 088   ----------------------------------------
 BYTE   W96
// 089   ----------------------------------------
 BYTE   W96
// 090   ----------------------------------------
 BYTE   W96
// 091   ----------------------------------------
 BYTE   W96
// 092   ----------------------------------------
 BYTE   W96
// 093   ----------------------------------------
 BYTE   W96
// 094   ----------------------------------------
 BYTE   W96
// 095   ----------------------------------------
 BYTE   W96
// 096   ----------------------------------------
 BYTE   W96
// 097   ----------------------------------------
 BYTE   W96
// 098   ----------------------------------------
 BYTE   W96
// 099   ----------------------------------------
 BYTE   W96
// 100   ----------------------------------------
 BYTE   W96
// 101   ----------------------------------------
 BYTE   W96
// 102   ----------------------------------------
 BYTE   W96
// 103   ----------------------------------------
 BYTE   W96
// 104   ----------------------------------------
 BYTE   W78
 BYTE   EOT
 BYTE   Cn2
 BYTE   VOL   60*FFMysticQuestVolcanoFeier_mvl/mxv
 BYTE   N72  En3  v100
 BYTE   W18
// 105   ----------------------------------------
 BYTE   W54
 BYTE   En4
 BYTE   W42
 BYTE   PATT
  POIN2 Label_0_013E5ABE
 BYTE   PATT
  POIN2 Label_0_013E5AC8
 BYTE   PATT
  POIN2 Label_0_013E5ADB
 BYTE   PATT
  POIN2 Label_0_013E5AE7
 BYTE   PATT
  POIN2 Label_0_013E5AEF
 BYTE   PATT
  POIN2 Label_0_013E5AFD
 BYTE   PATT
  POIN2 Label_0_013E5B09
 BYTE   PATT
  POIN2 Label_0_013E5B1B
 BYTE   PATT
  POIN2 Label_0_013E5B2A
 BYTE   PATT
  POIN2 Label_0_013E5B3E
 BYTE   PATT
  POIN2 Label_0_013E5AEF
 BYTE   PATT
  POIN2 Label_0_013E5AFD
 BYTE   PATT
  POIN2 Label_0_013E5B53
 BYTE   PATT
  POIN2 Label_0_013E5B67
 BYTE   PATT
  POIN2 Label_0_013E5B73
 BYTE   PATT
  POIN2 Label_0_013E5B8A
// 106   ----------------------------------------
 BYTE   W96
// 107   ----------------------------------------
 BYTE   W96
// 108   ----------------------------------------
 BYTE   W96
// 109   ----------------------------------------
 BYTE   W96
// 110   ----------------------------------------
 BYTE   W96
// 111   ----------------------------------------
 BYTE   W96
// 112   ----------------------------------------
 BYTE   W96
// 113   ----------------------------------------
 BYTE   W96
// 114   ----------------------------------------
 BYTE   W96
// 115   ----------------------------------------
 BYTE   W96
// 116   ----------------------------------------
 BYTE   W96
// 117   ----------------------------------------
 BYTE   W96
// 118   ----------------------------------------
 BYTE   W96
// 119   ----------------------------------------
 BYTE   W96
// 120   ----------------------------------------
 BYTE   W96
// 121   ----------------------------------------
 BYTE   W96
// 122   ----------------------------------------
 BYTE   W96
// 123   ----------------------------------------
 BYTE   W96
// 124   ----------------------------------------
 BYTE   W96
// 125   ----------------------------------------
 BYTE   W96
// 126   ----------------------------------------
 BYTE   W96
// 127   ----------------------------------------
 BYTE   W96
// 128   ----------------------------------------
 BYTE   W96
// 129   ----------------------------------------
 BYTE   W30
 BYTE   EOT
 BYTE   Cn2
 BYTE   VOL   60*FFMysticQuestVolcanoFeier_mvl/mxv
 BYTE   N72  En3  v100
 BYTE   W66
 BYTE   PATT
  POIN2 Label_0_013E5BB2
 BYTE   PATT
  POIN2 Label_0_013E5BBB
 BYTE   PATT
  POIN2 Label_0_013E5BCC
// 130   ----------------------------------------
 BYTE   W06
 BYTE   VOL   0*FFMysticQuestVolcanoFeier_mvl/mxv
 BYTE   W72
 BYTE   Gs4
 BYTE   N72  En3  v100
 BYTE   W06
 BYTE   VOL   58*FFMysticQuestVolcanoFeier_mvl/mxv
 BYTE   W06
 BYTE   En4
 BYTE   W06
// 131   ----------------------------------------
 BYTE   Dn4
 BYTE   W06
 BYTE   Bn3
 BYTE   W06
 BYTE   An3
 BYTE   W06
 BYTE   Gn3
 BYTE   W06
 BYTE   En3
 BYTE   W06
 BYTE   Cs3
 BYTE   W06
 BYTE   As2
 BYTE   W06
 BYTE   Fs2
 BYTE   W06
 BYTE   Dn2
 BYTE   W06
 BYTE   An1
 BYTE   N36  Bn3
 BYTE   W06
 BYTE   VOL   19*FFMysticQuestVolcanoFeier_mvl/mxv
 BYTE   W06
 BYTE   Fs0
 BYTE   W06
 BYTE   GnM1
 BYTE   W06
 BYTE   BnM2
 BYTE   W06
 BYTE   FsM2
 BYTE   W06
 BYTE   CnM2
 BYTE   N06  Cn2
 BYTE   W06
 BYTE   FINE

//**************** Track 2 (Midi-Chn.1) ****************//

FFMysticQuestVolcanoFeier_002:
// 000   ----------------------------------------
 BYTE   KEYSH   FFMysticQuestVolcanoFeier_key+0
 BYTE   VOICE   33
 BYTE   W78
 BYTE   VOL   60*FFMysticQuestVolcanoFeier_mvl/mxv
 BYTE   N24  En1  v060
 BYTE   W18
// 001   ----------------------------------------
Label_1_013E5D03:
 BYTE   W06
 BYTE   N12  En1  v060
 BYTE   W12
 BYTE   Gn1
 BYTE   W12
 BYTE   En1
 BYTE   W12
 BYTE   N12
 BYTE   W12
 BYTE   Bn1
 BYTE   W12
 BYTE   En1
 BYTE   W12
 BYTE   Gn1
 BYTE   W12
 BYTE   N12
 BYTE   W06
 BYTE   PEND 
// 002   ----------------------------------------
Label_1_013E5D17:
 BYTE   W06
 BYTE   N12  En1  v060
 BYTE   W12
 BYTE   Bn1
 BYTE   W12
 BYTE   As1
 BYTE   W12
 BYTE   Cs2
 BYTE   W12
 BYTE   Fs1
 BYTE   W12
 BYTE   N12
 BYTE   W12
 BYTE   As1
 BYTE   W12
 BYTE   Fs1
 BYTE   W06
 BYTE   PEND 
// 003   ----------------------------------------
Label_1_013E5D2B:
 BYTE   W06
 BYTE   N12  Fs2  v060
 BYTE   W12
 BYTE   Cn2
 BYTE   W12
 BYTE   Fn1
 BYTE   W12
 BYTE   N12
 BYTE   W12
 BYTE   Fn2
 BYTE   W12
 BYTE   Fn1
 BYTE   W12
 BYTE   N12
 BYTE   W12
 BYTE   En1
 BYTE   W06
 BYTE   PEND 
// 004   ----------------------------------------
Label_1_013E5D3F:
 BYTE   W06
 BYTE   N12  En1  v060
 BYTE   W12
 BYTE   N12
 BYTE   W12
 BYTE   Gn1
 BYTE   W12
 BYTE   En1
 BYTE   W12
 BYTE   N12
 BYTE   W12
 BYTE   As1
 BYTE   W12
 BYTE   En1
 BYTE   W12
 BYTE   An1
 BYTE   W06
 BYTE   PEND 
// 005   ----------------------------------------
Label_1_013E5D53:
 BYTE   W06
 BYTE   N12  En1  v060
 BYTE   W12
 BYTE   Gn1
 BYTE   W12
 BYTE   En1
 BYTE   W12
 BYTE   Bn1
 BYTE   W12
 BYTE   En1
 BYTE   W12
 BYTE   N12
 BYTE   W12
 BYTE   Gn1
 BYTE   W12
 BYTE   En1
 BYTE   W06
 BYTE   PEND 
// 006   ----------------------------------------
Label_1_013E5D67:
 BYTE   W06
 BYTE   N12  En1  v060
 BYTE   W12
 BYTE   Cn2
 BYTE   W12
 BYTE   Gn1
 BYTE   W12
 BYTE   N12
 BYTE   W12
 BYTE   En1
 BYTE   W12
 BYTE   Dn2
 BYTE   W12
 BYTE   N24  En1
 BYTE   W18
 BYTE   PEND 
// 007   ----------------------------------------
Label_1_013E5D7A:
 BYTE   W06
 BYTE   N12  En1  v060
 BYTE   W12
 BYTE   Gn1
 BYTE   W12
 BYTE   En1
 BYTE   W12
 BYTE   N12
 BYTE   W12
 BYTE   Bn1
 BYTE   W12
 BYTE   En1
 BYTE   W12
 BYTE   Gn1
 BYTE   W12
 BYTE   En1
 BYTE   W06
 BYTE   PEND 
// 008   ----------------------------------------
Label_1_013E5D8E:
 BYTE   W06
 BYTE   N12  Bn1  v060
 BYTE   W12
 BYTE   As1
 BYTE   W12
 BYTE   Cs2
 BYTE   W12
 BYTE   Fs1
 BYTE   W12
 BYTE   N12
 BYTE   W12
 BYTE   As1
 BYTE   W12
 BYTE   Fs1
 BYTE   W12
 BYTE   Fs2
 BYTE   W06
 BYTE   PEND 
// 009   ----------------------------------------
Label_1_013E5DA2:
 BYTE   W06
 BYTE   N12  Cn2  v060
 BYTE   W12
 BYTE   Fn1
 BYTE   W12
 BYTE   N12
 BYTE   W12
 BYTE   Fn2
 BYTE   W12
 BYTE   Fn1
 BYTE   W12
 BYTE   N12
 BYTE   W12
 BYTE   En1
 BYTE   W12
 BYTE   N12
 BYTE   W06
 BYTE   PEND 
// 010   ----------------------------------------
Label_1_013E5DB6:
 BYTE   W06
 BYTE   N12  En1  v060
 BYTE   W12
 BYTE   Gn1
 BYTE   W12
 BYTE   En1
 BYTE   W12
 BYTE   N12
 BYTE   W12
 BYTE   N24  As1
 BYTE   W24
 BYTE   An1
 BYTE   W18
 BYTE   PEND 
// 011   ----------------------------------------
Label_1_013E5DC7:
 BYTE   W06
 BYTE   N24  Gn1  v060
 BYTE   W24
 BYTE   Bn1
 BYTE   W24
 BYTE   As1
 BYTE   W24
 BYTE   An1
 BYTE   W18
 BYTE   PEND 
// 012   ----------------------------------------
Label_1_013E5DD3:
 BYTE   W06
 BYTE   N24  Gn1  v060
 BYTE   W24
 BYTE   Fs1
 BYTE   W24
 BYTE   Fn1
 BYTE   W24
 BYTE   N12  En1
 BYTE   W12
 BYTE   N12
 BYTE   W06
 BYTE   PEND 
// 013   ----------------------------------------
Label_1_013E5DE2:
 BYTE   W06
 BYTE   N12  En1  v060
 BYTE   W12
 BYTE   Gn1
 BYTE   W12
 BYTE   En1
 BYTE   W12
 BYTE   N12
 BYTE   W12
 BYTE   Bn1
 BYTE   W12
 BYTE   En1
 BYTE   W12
 BYTE   N12
 BYTE   W12
 BYTE   Gn1
 BYTE   W06
 BYTE   PEND 
// 014   ----------------------------------------
Label_1_013E5DF6:
 BYTE   W06
 BYTE   N12  En1  v060
 BYTE   W12
 BYTE   N12
 BYTE   W12
 BYTE   As1
 BYTE   W12
 BYTE   En1
 BYTE   W12
 BYTE   An1
 BYTE   W12
 BYTE   En1
 BYTE   W12
 BYTE   Gn1
 BYTE   W12
 BYTE   En1
 BYTE   W06
 BYTE   PEND 
// 015   ----------------------------------------
Label_1_013E5E0A:
 BYTE   W06
 BYTE   N12  Gn1  v060
 BYTE   W12
 BYTE   En1
 BYTE   W12
 BYTE   As1
 BYTE   W12
 BYTE   En1
 BYTE   W12
 BYTE   Gn1
 BYTE   W12
 BYTE   An1
 BYTE   W12
 BYTE   Bn1
 BYTE   W12
 BYTE   As1
 BYTE   W06
 BYTE   PEND 
// 016   ----------------------------------------
Label_1_013E5E1E:
 BYTE   W06
 BYTE   N12  Bn1  v060
 BYTE   W12
 BYTE   N24  Fs1
 BYTE   W24
 BYTE   Bn1
 BYTE   W24
 BYTE   N12  Ds2
 BYTE   W12
 BYTE   En2
 BYTE   W12
 BYTE   Fn2
 BYTE   W06
 BYTE   PEND 
// 017   ----------------------------------------
Label_1_013E5E30:
 BYTE   W06
 BYTE   N24  Fs2  v060
 BYTE   W24
 BYTE   N12  Cn2
 BYTE   W12
 BYTE   En1
 BYTE   W12
 BYTE   Bn1
 BYTE   W12
 BYTE   An1
 BYTE   W12
 BYTE   As1
 BYTE   W12
 BYTE   Bn1
 BYTE   W06
 BYTE   PEND 
// 018   ----------------------------------------
Label_1_013E5E43:
 BYTE   W06
 BYTE   N12  An1  v060
 BYTE   W12
 BYTE   En1
 BYTE   W12
 BYTE   Bn1
 BYTE   W12
 BYTE   An1
 BYTE   W12
 BYTE   Gn1
 BYTE   W12
 BYTE   Fs1
 BYTE   W12
 BYTE   En1
 BYTE   W12
 BYTE   N12
 BYTE   W06
 BYTE   PEND 
 BYTE   PATT
  POIN2 Label_1_013E5DE2
 BYTE   PATT
  POIN2 Label_1_013E5DF6
// 019   ----------------------------------------
Label_1_013E5E61:
 BYTE   W06
 BYTE   N12  Gn1  v060
 BYTE   W12
 BYTE   En1
 BYTE   W12
 BYTE   An1
 BYTE   W12
 BYTE   En1
 BYTE   W12
 BYTE   Gn1
 BYTE   W12
 BYTE   An1
 BYTE   W12
 BYTE   Bn1
 BYTE   W12
 BYTE   As1
 BYTE   W06
 BYTE   PEND 
 BYTE   PATT
  POIN2 Label_1_013E5E1E
 BYTE   PATT
  POIN2 Label_1_013E5E30
// 020   ----------------------------------------
Label_1_013E5E7F:
 BYTE   W06
 BYTE   N12  An1  v060
 BYTE   W12
 BYTE   En1
 BYTE   W12
 BYTE   Bn1
 BYTE   W12
 BYTE   An1
 BYTE   W12
 BYTE   Gn1
 BYTE   W12
 BYTE   Fs1
 BYTE   W12
 BYTE   N24  En1
 BYTE   W18
 BYTE   PEND 
// 021   ----------------------------------------
Label_1_013E5E92:
 BYTE   W06
 BYTE   N12  En1  v060
 BYTE   W12
 BYTE   En2
 BYTE   W12
 BYTE   N24  En1
 BYTE   W24
 BYTE   N24
 BYTE   W24
 BYTE   N12
 BYTE   W12
 BYTE   As1
 BYTE   W06
 BYTE   PEND 
// 022   ----------------------------------------
Label_1_013E5EA3:
 BYTE   W06
 BYTE   N24  En1  v060
 BYTE   W24
 BYTE   N12  As1
 BYTE   W12
 BYTE   Bn1
 BYTE   W12
 BYTE   N12
 BYTE   W12
 BYTE   N12
 BYTE   W12
 BYTE   N12
 BYTE   W12
 BYTE   N12
 BYTE   W06
 BYTE   PEND 
// 023   ----------------------------------------
Label_1_013E5EB6:
 BYTE   W06
 BYTE   N12  As1  v060
 BYTE   W12
 BYTE   Bn1
 BYTE   W12
 BYTE   N12
 BYTE   W12
 BYTE   N12
 BYTE   W12
 BYTE   N12
 BYTE   W12
 BYTE   N12
 BYTE   W12
 BYTE   N24  En1
 BYTE   W18
 BYTE   PEND 
// 024   ----------------------------------------
Label_1_013E5EC9:
 BYTE   W06
 BYTE   N12  En1  v060
 BYTE   W12
 BYTE   En2
 BYTE   W12
 BYTE   N24  En1
 BYTE   W24
 BYTE   N24
 BYTE   W24
 BYTE   N12
 BYTE   W12
 BYTE   Bn1
 BYTE   W06
 BYTE   PEND 
// 025   ----------------------------------------
Label_1_013E5EDA:
 BYTE   W06
 BYTE   N24  En1  v060
 BYTE   W24
 BYTE   N12  An1
 BYTE   W12
 BYTE   As1
 BYTE   W12
 BYTE   N12
 BYTE   W12
 BYTE   N12
 BYTE   W12
 BYTE   N12
 BYTE   W12
 BYTE   N12
 BYTE   W06
 BYTE   PEND 
// 026   ----------------------------------------
Label_1_013E5EED:
 BYTE   W06
 BYTE   N12  Fn1  v060
 BYTE   W12
 BYTE   Fs1
 BYTE   W12
 BYTE   N12
 BYTE   W12
 BYTE   N12
 BYTE   W12
 BYTE   N12
 BYTE   W12
 BYTE   N12
 BYTE   W12
 BYTE   N24  En1
 BYTE   W18
 BYTE   PEND 
 BYTE   PATT
  POIN2 Label_1_013E5EC9
 BYTE   PATT
  POIN2 Label_1_013E5EA3
 BYTE   PATT
  POIN2 Label_1_013E5EB6
 BYTE   PATT
  POIN2 Label_1_013E5EC9
 BYTE   PATT
  POIN2 Label_1_013E5EDA
// 027   ----------------------------------------
Label_1_013E5F19:
 BYTE   W06
 BYTE   N12  Fn1  v060
 BYTE   W12
 BYTE   Fs1
 BYTE   W12
 BYTE   N12
 BYTE   W12
 BYTE   N12
 BYTE   W12
 BYTE   N12
 BYTE   W12
 BYTE   N12
 BYTE   W12
 BYTE   N24  En2
 BYTE   W18
 BYTE   PEND 
// 028   ----------------------------------------
Label_1_013E5F2C:
 BYTE   W06
 BYTE   N24  En1  v060
 BYTE   W24
 BYTE   N24
 BYTE   W24
 BYTE   As1
 BYTE   W24
 BYTE   En1
 BYTE   W18
 BYTE   PEND 
// 029   ----------------------------------------
Label_1_013E5F38:
 BYTE   W06
 BYTE   N24  En1  v060
 BYTE   W24
 BYTE   Gn1
 BYTE   W24
 BYTE   Fs1
 BYTE   W24
 BYTE   En1
 BYTE   W18
 BYTE   PEND 
// 030   ----------------------------------------
Label_1_013E5F44:
 BYTE   W06
 BYTE   N12  As2  v060
 BYTE   W12
 BYTE   N60
 BYTE   W60
 BYTE   N12  As1
 BYTE   W12
 BYTE   N60
 BYTE   W06
 BYTE   PEND 
// 031   ----------------------------------------
Label_1_013E5F51:
 BYTE   W54
 BYTE   N12  As1  v060
 BYTE   W12
 BYTE   As2
 BYTE   W12
 BYTE   Bn1
 BYTE   W12
 BYTE   Bn2
 BYTE   W06
 BYTE   PEND 
// 032   ----------------------------------------
Label_1_013E5F5D:
 BYTE   W06
 BYTE   N12  Cn2  v060
 BYTE   W12
 BYTE   Cn3
 BYTE   W12
 BYTE   N24  En1
 BYTE   W24
 BYTE   N12
 BYTE   W12
 BYTE   Gn1
 BYTE   W12
 BYTE   En1
 BYTE   W12
 BYTE   N12
 BYTE   W06
 BYTE   PEND 
// 033   ----------------------------------------
Label_1_013E5F70:
 BYTE   W06
 BYTE   N12  Bn1  v060
 BYTE   W12
 BYTE   En1
 BYTE   W12
 BYTE   Gn1
 BYTE   W12
 BYTE   N12
 BYTE   W12
 BYTE   En1
 BYTE   W12
 BYTE   Bn1
 BYTE   W12
 BYTE   As1
 BYTE   W12
 BYTE   Cs2
 BYTE   W06
 BYTE   PEND 
// 034   ----------------------------------------
Label_1_013E5F84:
 BYTE   W06
 BYTE   N12  Fs1  v060
 BYTE   W12
 BYTE   N12
 BYTE   W12
 BYTE   As1
 BYTE   W12
 BYTE   Fs1
 BYTE   W12
 BYTE   Fs2
 BYTE   W12
 BYTE   Cn2
 BYTE   W12
 BYTE   Fn1
 BYTE   W12
 BYTE   N12
 BYTE   W06
 BYTE   PEND 
// 035   ----------------------------------------
Label_1_013E5F98:
 BYTE   W06
 BYTE   N12  Fn2  v060
 BYTE   W12
 BYTE   Fn1
 BYTE   W12
 BYTE   N12
 BYTE   W12
 BYTE   En1
 BYTE   W12
 BYTE   N12
 BYTE   W12
 BYTE   N12
 BYTE   W12
 BYTE   Gn1
 BYTE   W12
 BYTE   En1
 BYTE   W06
 BYTE   PEND 
// 036   ----------------------------------------
Label_1_013E5FAC:
 BYTE   W06
 BYTE   N12  En1  v060
 BYTE   W12
 BYTE   As1
 BYTE   W12
 BYTE   En1
 BYTE   W12
 BYTE   An1
 BYTE   W12
 BYTE   En1
 BYTE   W12
 BYTE   Gn1
 BYTE   W12
 BYTE   En1
 BYTE   W12
 BYTE   Bn1
 BYTE   W06
 BYTE   PEND 
// 037   ----------------------------------------
Label_1_013E5FC0:
 BYTE   W06
 BYTE   N12  En1  v060
 BYTE   W12
 BYTE   N12
 BYTE   W12
 BYTE   Gn1
 BYTE   W12
 BYTE   En1
 BYTE   W12
 BYTE   N12
 BYTE   W12
 BYTE   Cn2
 BYTE   W12
 BYTE   Gn1
 BYTE   W12
 BYTE   N12
 BYTE   W06
 BYTE   PEND 
// 038   ----------------------------------------
Label_1_013E5FD4:
 BYTE   W06
 BYTE   N12  En1  v060
 BYTE   W12
 BYTE   Dn2
 BYTE   W12
 BYTE   N24  En1
 BYTE   W24
 BYTE   N12
 BYTE   W12
 BYTE   Gn1
 BYTE   W12
 BYTE   En1
 BYTE   W12
 BYTE   N12
 BYTE   W06
 BYTE   PEND 
// 039   ----------------------------------------
Label_1_013E5FE7:
 BYTE   W06
 BYTE   N12  Bn1  v060
 BYTE   W12
 BYTE   En1
 BYTE   W12
 BYTE   Gn1
 BYTE   W12
 BYTE   En1
 BYTE   W12
 BYTE   Bn1
 BYTE   W12
 BYTE   As1
 BYTE   W12
 BYTE   Cs2
 BYTE   W12
 BYTE   Fs1
 BYTE   W06
 BYTE   PEND 
// 040   ----------------------------------------
Label_1_013E5FFB:
 BYTE   W06
 BYTE   N12  Fs1  v060
 BYTE   W12
 BYTE   As1
 BYTE   W12
 BYTE   Fs1
 BYTE   W12
 BYTE   Fs2
 BYTE   W12
 BYTE   Cn2
 BYTE   W12
 BYTE   Fn1
 BYTE   W12
 BYTE   N12
 BYTE   W12
 BYTE   Fn2
 BYTE   W06
 BYTE   PEND 
// 041   ----------------------------------------
Label_1_013E600F:
 BYTE   W06
 BYTE   N12  Fn1  v060
 BYTE   W12
 BYTE   N12
 BYTE   W12
 BYTE   En1
 BYTE   W12
 BYTE   N12
 BYTE   W12
 BYTE   N12
 BYTE   W12
 BYTE   Gn1
 BYTE   W12
 BYTE   En1
 BYTE   W12
 BYTE   N12
 BYTE   W06
 BYTE   PEND 
// 042   ----------------------------------------
Label_1_013E6023:
 BYTE   W06
 BYTE   N24  As1  v060
 BYTE   W24
 BYTE   An1
 BYTE   W24
 BYTE   Gn1
 BYTE   W24
 BYTE   Bn1
 BYTE   W18
 BYTE   PEND 
// 043   ----------------------------------------
Label_1_013E602F:
 BYTE   W06
 BYTE   N24  As1  v060
 BYTE   W24
 BYTE   An1
 BYTE   W24
 BYTE   Gn1
 BYTE   W24
 BYTE   Fs1
 BYTE   W18
 BYTE   PEND 
// 044   ----------------------------------------
Label_1_013E603B:
 BYTE   W06
 BYTE   N24  Fn1  v060
 BYTE   W24
 BYTE   N12  En1
 BYTE   W12
 BYTE   N12
 BYTE   W12
 BYTE   N12
 BYTE   W12
 BYTE   Gn1
 BYTE   W12
 BYTE   En1
 BYTE   W12
 BYTE   N12
 BYTE   W06
 BYTE   PEND 
// 045   ----------------------------------------
Label_1_013E604E:
 BYTE   W06
 BYTE   N12  Bn1  v060
 BYTE   W12
 BYTE   En1
 BYTE   W12
 BYTE   N12
 BYTE   W12
 BYTE   Gn1
 BYTE   W12
 BYTE   En1
 BYTE   W12
 BYTE   N12
 BYTE   W12
 BYTE   As1
 BYTE   W12
 BYTE   En1
 BYTE   W06
 BYTE   PEND 
// 046   ----------------------------------------
Label_1_013E6062:
 BYTE   W06
 BYTE   N12  An1  v060
 BYTE   W12
 BYTE   En1
 BYTE   W12
 BYTE   Gn1
 BYTE   W12
 BYTE   En1
 BYTE   W12
 BYTE   Gn1
 BYTE   W12
 BYTE   En1
 BYTE   W12
 BYTE   As1
 BYTE   W12
 BYTE   En1
 BYTE   W06
 BYTE   PEND 
// 047   ----------------------------------------
Label_1_013E6076:
 BYTE   W06
 BYTE   N12  Gn1  v060
 BYTE   W12
 BYTE   An1
 BYTE   W12
 BYTE   Bn1
 BYTE   W12
 BYTE   As1
 BYTE   W12
 BYTE   Bn1
 BYTE   W12
 BYTE   N24  Fs1
 BYTE   W24
 BYTE   Bn1
 BYTE   W06
 BYTE   PEND 
// 048   ----------------------------------------
Label_1_013E6089:
 BYTE   W18
 BYTE   N12  Ds2  v060
 BYTE   W12
 BYTE   En2
 BYTE   W12
 BYTE   Fn2
 BYTE   W12
 BYTE   N24  Fs2
 BYTE   W24
 BYTE   N12  Cn2
 BYTE   W12
 BYTE   En1
 BYTE   W06
 BYTE   PEND 
// 049   ----------------------------------------
Label_1_013E609B:
 BYTE   W06
 BYTE   N12  Bn1  v060
 BYTE   W12
 BYTE   An1
 BYTE   W12
 BYTE   As1
 BYTE   W12
 BYTE   Bn1
 BYTE   W12
 BYTE   An1
 BYTE   W12
 BYTE   En1
 BYTE   W12
 BYTE   Bn1
 BYTE   W12
 BYTE   An1
 BYTE   W06
 BYTE   PEND 
// 050   ----------------------------------------
Label_1_013E60AF:
 BYTE   W06
 BYTE   N12  Gn1  v060
 BYTE   W12
 BYTE   Fs1
 BYTE   W12
 BYTE   En1
 BYTE   W12
 BYTE   N12
 BYTE   W12
 BYTE   N12
 BYTE   W12
 BYTE   Gn1
 BYTE   W12
 BYTE   En1
 BYTE   W12
 BYTE   N12
 BYTE   W06
 BYTE   PEND 
 BYTE   PATT
  POIN2 Label_1_013E604E
// 051   ----------------------------------------
Label_1_013E60C8:
 BYTE   W06
 BYTE   N12  An1  v060
 BYTE   W12
 BYTE   En1
 BYTE   W12
 BYTE   Gn1
 BYTE   W12
 BYTE   En1
 BYTE   W12
 BYTE   Gn1
 BYTE   W12
 BYTE   En1
 BYTE   W12
 BYTE   An1
 BYTE   W12
 BYTE   En1
 BYTE   W06
 BYTE   PEND 
 BYTE   PATT
  POIN2 Label_1_013E6076
 BYTE   PATT
  POIN2 Label_1_013E6089
 BYTE   PATT
  POIN2 Label_1_013E609B
// 052   ----------------------------------------
Label_1_013E60EB:
 BYTE   W06
 BYTE   N12  Gn1  v060
 BYTE   W12
 BYTE   Fs1
 BYTE   W12
 BYTE   N24  En1
 BYTE   W24
 BYTE   N12
 BYTE   W12
 BYTE   En2
 BYTE   W12
 BYTE   N24  En1
 BYTE   W18
 BYTE   PEND 
// 053   ----------------------------------------
Label_1_013E60FD:
 BYTE   W06
 BYTE   N24  En1  v060
 BYTE   W24
 BYTE   N12
 BYTE   W12
 BYTE   As1
 BYTE   W12
 BYTE   N24  En1
 BYTE   W24
 BYTE   N12  As1
 BYTE   W12
 BYTE   Bn1
 BYTE   W06
 BYTE   PEND 
// 054   ----------------------------------------
Label_1_013E610F:
 BYTE   W06
 BYTE   N12  Bn1  v060
 BYTE   W12
 BYTE   N12
 BYTE   W12
 BYTE   N12
 BYTE   W12
 BYTE   N12
 BYTE   W12
 BYTE   As1
 BYTE   W12
 BYTE   Bn1
 BYTE   W12
 BYTE   N12
 BYTE   W12
 BYTE   N12
 BYTE   W06
 BYTE   PEND 
// 055   ----------------------------------------
Label_1_013E6123:
 BYTE   W06
 BYTE   N12  Bn1  v060
 BYTE   W12
 BYTE   N12
 BYTE   W12
 BYTE   N24  En1
 BYTE   W24
 BYTE   N12
 BYTE   W12
 BYTE   En2
 BYTE   W12
 BYTE   N24  En1
 BYTE   W18
 BYTE   PEND 
// 056   ----------------------------------------
Label_1_013E6135:
 BYTE   W06
 BYTE   N24  En1  v060
 BYTE   W24
 BYTE   N12
 BYTE   W12
 BYTE   Bn1
 BYTE   W12
 BYTE   N24  En1
 BYTE   W24
 BYTE   N12  An1
 BYTE   W12
 BYTE   As1
 BYTE   W06
 BYTE   PEND 
// 057   ----------------------------------------
Label_1_013E6147:
 BYTE   W06
 BYTE   N12  As1  v060
 BYTE   W12
 BYTE   N12
 BYTE   W12
 BYTE   N12
 BYTE   W12
 BYTE   N12
 BYTE   W12
 BYTE   Fn1
 BYTE   W12
 BYTE   Fs1
 BYTE   W12
 BYTE   N12
 BYTE   W12
 BYTE   N12
 BYTE   W06
 BYTE   PEND 
// 058   ----------------------------------------
Label_1_013E615B:
 BYTE   W06
 BYTE   N12  Fs1  v060
 BYTE   W12
 BYTE   N12
 BYTE   W12
 BYTE   N24  En1
 BYTE   W24
 BYTE   N12
 BYTE   W12
 BYTE   En2
 BYTE   W12
 BYTE   N24  En1
 BYTE   W18
 BYTE   PEND 
// 059   ----------------------------------------
Label_1_013E616D:
 BYTE   W06
 BYTE   N24  En1  v060
 BYTE   W24
 BYTE   N12
 BYTE   W12
 BYTE   Bn1
 BYTE   W12
 BYTE   N24  En1
 BYTE   W24
 BYTE   N12  As1
 BYTE   W12
 BYTE   Bn1
 BYTE   W06
 BYTE   PEND 
 BYTE   PATT
  POIN2 Label_1_013E610F
 BYTE   PATT
  POIN2 Label_1_013E6123
 BYTE   PATT
  POIN2 Label_1_013E6135
 BYTE   PATT
  POIN2 Label_1_013E6147
// 060   ----------------------------------------
Label_1_013E6193:
 BYTE   W06
 BYTE   N12  Fs1  v060
 BYTE   W12
 BYTE   N12
 BYTE   W12
 BYTE   N24  En2
 BYTE   W24
 BYTE   En1
 BYTE   W24
 BYTE   N24
 BYTE   W18
 BYTE   PEND 
// 061   ----------------------------------------
Label_1_013E61A2:
 BYTE   W06
 BYTE   N24  As1  v060
 BYTE   W24
 BYTE   En1
 BYTE   W24
 BYTE   N24
 BYTE   W24
 BYTE   Gn1
 BYTE   W18
 BYTE   PEND 
// 062   ----------------------------------------
Label_1_013E61AE:
 BYTE   W06
 BYTE   N24  Fs1  v060
 BYTE   W24
 BYTE   En1
 BYTE   W24
 BYTE   N12  As2
 BYTE   W12
 BYTE   N60
 BYTE   W30
 BYTE   PEND 
// 063   ----------------------------------------
Label_1_013E61BB:
 BYTE   W30
 BYTE   N12  As1  v060
 BYTE   W12
 BYTE   N60
 BYTE   W54
 BYTE   PEND 
// 064   ----------------------------------------
 BYTE   W06
 BYTE   N12
 BYTE   W12
 BYTE   As2
 BYTE   W12
 BYTE   Bn1
 BYTE   W12
 BYTE   Bn2
 BYTE   W12
 BYTE   Cn2
 BYTE   W12
 BYTE   Cn3
 BYTE   W12
 BYTE   N24  En1
 BYTE   W18
 BYTE   PATT
  POIN2 Label_1_013E5D03
 BYTE   PATT
  POIN2 Label_1_013E5D17
 BYTE   PATT
  POIN2 Label_1_013E5D2B
 BYTE   PATT
  POIN2 Label_1_013E5D3F
 BYTE   PATT
  POIN2 Label_1_013E5D53
 BYTE   PATT
  POIN2 Label_1_013E5D67
 BYTE   PATT
  POIN2 Label_1_013E5D7A
 BYTE   PATT
  POIN2 Label_1_013E5D8E
 BYTE   PATT
  POIN2 Label_1_013E5DA2
 BYTE   PATT
  POIN2 Label_1_013E5DB6
 BYTE   PATT
  POIN2 Label_1_013E5DC7
 BYTE   PATT
  POIN2 Label_1_013E5DD3
 BYTE   PATT
  POIN2 Label_1_013E5DE2
 BYTE   PATT
  POIN2 Label_1_013E5DF6
 BYTE   PATT
  POIN2 Label_1_013E5E0A
 BYTE   PATT
  POIN2 Label_1_013E5E1E
 BYTE   PATT
  POIN2 Label_1_013E5E30
 BYTE   PATT
  POIN2 Label_1_013E5E43
 BYTE   PATT
  POIN2 Label_1_013E5DE2
 BYTE   PATT
  POIN2 Label_1_013E5DF6
 BYTE   PATT
  POIN2 Label_1_013E5E61
 BYTE   PATT
  POIN2 Label_1_013E5E1E
 BYTE   PATT
  POIN2 Label_1_013E5E30
 BYTE   PATT
  POIN2 Label_1_013E5E7F
 BYTE   PATT
  POIN2 Label_1_013E5E92
 BYTE   PATT
  POIN2 Label_1_013E5EA3
 BYTE   PATT
  POIN2 Label_1_013E5EB6
 BYTE   PATT
  POIN2 Label_1_013E5EC9
 BYTE   PATT
  POIN2 Label_1_013E5EDA
 BYTE   PATT
  POIN2 Label_1_013E5EED
 BYTE   PATT
  POIN2 Label_1_013E5EC9
 BYTE   PATT
  POIN2 Label_1_013E5EA3
 BYTE   PATT
  POIN2 Label_1_013E5EB6
 BYTE   PATT
  POIN2 Label_1_013E5EC9
 BYTE   PATT
  POIN2 Label_1_013E5EDA
 BYTE   PATT
  POIN2 Label_1_013E5F19
 BYTE   PATT
  POIN2 Label_1_013E5F2C
 BYTE   PATT
  POIN2 Label_1_013E5F38
 BYTE   PATT
  POIN2 Label_1_013E5F44
 BYTE   PATT
  POIN2 Label_1_013E5F51
 BYTE   PATT
  POIN2 Label_1_013E5F5D
 BYTE   PATT
  POIN2 Label_1_013E5F70
 BYTE   PATT
  POIN2 Label_1_013E5F84
 BYTE   PATT
  POIN2 Label_1_013E5F98
 BYTE   PATT
  POIN2 Label_1_013E5FAC
 BYTE   PATT
  POIN2 Label_1_013E5FC0
 BYTE   PATT
  POIN2 Label_1_013E5FD4
 BYTE   PATT
  POIN2 Label_1_013E5FE7
 BYTE   PATT
  POIN2 Label_1_013E5FFB
 BYTE   PATT
  POIN2 Label_1_013E600F
 BYTE   PATT
  POIN2 Label_1_013E6023
 BYTE   PATT
  POIN2 Label_1_013E602F
 BYTE   PATT
  POIN2 Label_1_013E603B
 BYTE   PATT
  POIN2 Label_1_013E604E
 BYTE   PATT
  POIN2 Label_1_013E6062
 BYTE   PATT
  POIN2 Label_1_013E6076
 BYTE   PATT
  POIN2 Label_1_013E6089
 BYTE   PATT
  POIN2 Label_1_013E609B
 BYTE   PATT
  POIN2 Label_1_013E60AF
 BYTE   PATT
  POIN2 Label_1_013E604E
 BYTE   PATT
  POIN2 Label_1_013E60C8
 BYTE   PATT
  POIN2 Label_1_013E6076
 BYTE   PATT
  POIN2 Label_1_013E6089
 BYTE   PATT
  POIN2 Label_1_013E609B
 BYTE   PATT
  POIN2 Label_1_013E60EB
 BYTE   PATT
  POIN2 Label_1_013E60FD
 BYTE   PATT
  POIN2 Label_1_013E610F
 BYTE   PATT
  POIN2 Label_1_013E6123
 BYTE   PATT
  POIN2 Label_1_013E6135
 BYTE   PATT
  POIN2 Label_1_013E6147
 BYTE   PATT
  POIN2 Label_1_013E615B
 BYTE   PATT
  POIN2 Label_1_013E616D
 BYTE   PATT
  POIN2 Label_1_013E610F
 BYTE   PATT
  POIN2 Label_1_013E6123
 BYTE   PATT
  POIN2 Label_1_013E6135
 BYTE   PATT
  POIN2 Label_1_013E6147
 BYTE   PATT
  POIN2 Label_1_013E6193
 BYTE   PATT
  POIN2 Label_1_013E61A2
 BYTE   PATT
  POIN2 Label_1_013E61AE
 BYTE   PATT
  POIN2 Label_1_013E61BB
// 065   ----------------------------------------
 BYTE   W06
 BYTE   N12  As1  v060
 BYTE   W12
 BYTE   As2
 BYTE   W12
 BYTE   Bn1
 BYTE   W12
 BYTE   Bn2
 BYTE   W12
 BYTE   Cn2
 BYTE   W12
 BYTE   Cn3
 BYTE   W12
 BYTE   N24  En1
 BYTE   W06
 BYTE   VOL   58*FFMysticQuestVolcanoFeier_mvl/mxv
 BYTE   W06
 BYTE   En4
 BYTE   W06
// 066   ----------------------------------------
 BYTE   Dn4
 BYTE   W06
 BYTE   Bn3
 BYTE   N12
 BYTE   W06
 BYTE   VOL   49*FFMysticQuestVolcanoFeier_mvl/mxv
 BYTE   W06
 BYTE   Gn3
 BYTE   N12  Gn1
 BYTE   W06
 BYTE   VOL   44*FFMysticQuestVolcanoFeier_mvl/mxv
 BYTE   W06
 BYTE   Cs3
 BYTE   N12  En1
 BYTE   W06
 BYTE   VOL   38*FFMysticQuestVolcanoFeier_mvl/mxv
 BYTE   W06
 BYTE   Fs2
 BYTE   N12
 BYTE   W06
 BYTE   VOL   30*FFMysticQuestVolcanoFeier_mvl/mxv
 BYTE   W06
 BYTE   An1
 BYTE   N12  Bn1
 BYTE   W06
 BYTE   VOL   19*FFMysticQuestVolcanoFeier_mvl/mxv
 BYTE   W06
 BYTE   Fs0
 BYTE   N12  En1
 BYTE   W06
 BYTE   VOL   0*FFMysticQuestVolcanoFeier_mvl/mxv
 BYTE   W06
 BYTE   BnM2
 BYTE   N12  Gn1
 BYTE   W06
 BYTE   VOL   0*FFMysticQuestVolcanoFeier_mvl/mxv
 BYTE   W06
 BYTE   CnM2
 BYTE   N06
 BYTE   W06
 BYTE   FINE

//**************** Track 3 (Midi-Chn.2) ****************//

FFMysticQuestVolcanoFeier_003:
// 000   ----------------------------------------
 BYTE   KEYSH   FFMysticQuestVolcanoFeier_key+0
 BYTE   VOICE   30
 BYTE   W78
 BYTE   VOL   60*FFMysticQuestVolcanoFeier_mvl/mxv
 BYTE   N36  En2  v060
 BYTE   W18
// 001   ----------------------------------------
Label_2_013E75BF:
 BYTE   W18
 BYTE   N12  En1  v060
 BYTE   W12
 BYTE   N12
 BYTE   W12
 BYTE   N12
 BYTE   W12
 BYTE   N24  Gn2
 BYTE   W24
 BYTE   N12  En1
 BYTE   W12
 BYTE   N12
 BYTE   W06
 BYTE   PEND 
// 002   ----------------------------------------
Label_2_013E75D1:
 BYTE   W06
 BYTE   N12  En1  v060
 BYTE   W12
 BYTE   N12
 BYTE   W12
 BYTE   N24  Fs2
 BYTE   W24
 BYTE   N12  Fs1
 BYTE   W12
 BYTE   N12
 BYTE   W12
 BYTE   N12
 BYTE   W12
 BYTE   N12
 BYTE   W06
 BYTE   PEND 
// 003   ----------------------------------------
Label_2_013E75E5:
 BYTE   W06
 BYTE   N24  Fn2  v060
 BYTE   W24
 BYTE   N12  Fn1
 BYTE   W12
 BYTE   N12
 BYTE   W12
 BYTE   N12
 BYTE   W12
 BYTE   N12
 BYTE   W12
 BYTE   N36  En2
 BYTE   W18
 BYTE   PEND 
// 004   ----------------------------------------
Label_2_013E75F7:
 BYTE   W18
 BYTE   N12  En1  v060
 BYTE   W12
 BYTE   N12
 BYTE   W12
 BYTE   N12
 BYTE   W12
 BYTE   N24  As1
 BYTE   W24
 BYTE   An1
 BYTE   W18
 BYTE   PEND 
// 005   ----------------------------------------
Label_2_013E7606:
 BYTE   W06
 BYTE   N24  Gn1  v060
 BYTE   W24
 BYTE   Bn1
 BYTE   W24
 BYTE   N12  En1
 BYTE   W12
 BYTE   N12
 BYTE   W12
 BYTE   N12
 BYTE   W12
 BYTE   N12
 BYTE   W06
 BYTE   PEND 
// 006   ----------------------------------------
Label_2_013E7617:
 BYTE   W06
 BYTE   N24  Cn2  v060
 BYTE   W24
 BYTE   N12  En1
 BYTE   W12
 BYTE   N12
 BYTE   W12
 BYTE   Dn2
 BYTE   W12
 BYTE   En1
 BYTE   W12
 BYTE   N36  En2
 BYTE   W18
 BYTE   PEND 
 BYTE   PATT
  POIN2 Label_2_013E75BF
 BYTE   PATT
  POIN2 Label_2_013E75D1
 BYTE   PATT
  POIN2 Label_2_013E75E5
 BYTE   PATT
  POIN2 Label_2_013E75F7
// 007   ----------------------------------------
Label_2_013E763D:
 BYTE   W06
 BYTE   N24  Gn1  v060
 BYTE   W24
 BYTE   Bn1
 BYTE   W24
 BYTE   As1
 BYTE   W24
 BYTE   An1
 BYTE   W18
 BYTE   PEND 
// 008   ----------------------------------------
Label_2_013E7649:
 BYTE   W06
 BYTE   N24  Gn1  v060
 BYTE   W24
 BYTE   Fs1
 BYTE   W24
 BYTE   N60  Fn1
 BYTE   W24
 BYTE   VOL   0*FFMysticQuestVolcanoFeier_mvl/mxv
 BYTE   W18
 BYTE   PEND 
// 009   ----------------------------------------
Label_2_013E7657:
 BYTE   W18
 BYTE   VOL   60*FFMysticQuestVolcanoFeier_mvl/mxv
 BYTE   TIE  En2  v060
 BYTE   W78
 BYTE   PEND 
// 010   ----------------------------------------
 BYTE   W30
 BYTE   EOT
 BYTE   N24  As1
 BYTE   W24
 BYTE   N48  An1
 BYTE   W30
 BYTE   VOL   0*FFMysticQuestVolcanoFeier_mvl/mxv
 BYTE   W12
// 011   ----------------------------------------
Label_2_013E766A:
 BYTE   W06
 BYTE   VOL   60*FFMysticQuestVolcanoFeier_mvl/mxv
 BYTE   N24  Gn1  v060
 BYTE   W24
 BYTE   N84  An1
 BYTE   W24
 BYTE   VOL   0*FFMysticQuestVolcanoFeier_mvl/mxv
 BYTE   W42
 BYTE   PEND 
// 012   ----------------------------------------
Label_2_013E7678:
 BYTE   W18
 BYTE   VOL   60*FFMysticQuestVolcanoFeier_mvl/mxv
 BYTE   TIE  Bn1  v060
 BYTE   W78
 BYTE   PEND 
// 013   ----------------------------------------
 BYTE   W30
 BYTE   EOT
 BYTE   N24  Cn2
 BYTE   W24
 BYTE   N48  Bn1
 BYTE   W24
 BYTE   VOL   0*FFMysticQuestVolcanoFeier_mvl/mxv
 BYTE   W18
// 014   ----------------------------------------
Label_2_013E768B:
 BYTE   W06
 BYTE   VOL   60*FFMysticQuestVolcanoFeier_mvl/mxv
 BYTE   N24  As1  v060
 BYTE   W24
 BYTE   N84  Bn1
 BYTE   W24
 BYTE   VOL   0*FFMysticQuestVolcanoFeier_mvl/mxv
 BYTE   W42
 BYTE   PEND 
 BYTE   PATT
  POIN2 Label_2_013E7657
// 015   ----------------------------------------
 BYTE   W30
 BYTE   EOT
 BYTE   En2
 BYTE   N24  As1  v060
 BYTE   W24
 BYTE   N48  An1
 BYTE   W24
 BYTE   VOL   0*FFMysticQuestVolcanoFeier_mvl/mxv
 BYTE   W18
 BYTE   PATT
  POIN2 Label_2_013E766A
 BYTE   PATT
  POIN2 Label_2_013E7678
// 016   ----------------------------------------
 BYTE   W30
 BYTE   EOT
 BYTE   Bn1
 BYTE   N24  Cn2  v060
 BYTE   W24
 BYTE   N48  Bn1
 BYTE   W24
 BYTE   VOL   0*FFMysticQuestVolcanoFeier_mvl/mxv
 BYTE   W18
// 017   ----------------------------------------
Label_2_013E76C2:
 BYTE   W06
 BYTE   VOL   60*FFMysticQuestVolcanoFeier_mvl/mxv
 BYTE   N24  As1  v060
 BYTE   W24
 BYTE   N48  Bn1
 BYTE   W24
 BYTE   VOL   0*FFMysticQuestVolcanoFeier_mvl/mxv
 BYTE   W24
 BYTE   Gs4
 BYTE   N36  En1
 BYTE   W18
 BYTE   PEND 
// 018   ----------------------------------------
Label_2_013E76D4:
 BYTE   W18
 BYTE   N36  Gn1  v060
 BYTE   W36
 BYTE   En1
 BYTE   W36
 BYTE   As1
 BYTE   W06
 BYTE   PEND 
// 019   ----------------------------------------
Label_2_013E76DE:
 BYTE   W30
 BYTE   N12  Bn2  v060
 BYTE   W12
 BYTE   Bn1
 BYTE   W12
 BYTE   N12
 BYTE   W12
 BYTE   N12
 BYTE   W12
 BYTE   N12
 BYTE   W12
 BYTE   N12
 BYTE   W06
 BYTE   PEND 
// 020   ----------------------------------------
Label_2_013E76EE:
 BYTE   W06
 BYTE   N12  Ds2  v060
 BYTE   W12
 BYTE   Bn1
 BYTE   W12
 BYTE   N12
 BYTE   W12
 BYTE   N12
 BYTE   W12
 BYTE   N12
 BYTE   W12
 BYTE   N12
 BYTE   W12
 BYTE   N36  En1
 BYTE   W18
 BYTE   PEND 
// 021   ----------------------------------------
Label_2_013E7701:
 BYTE   W18
 BYTE   N36  Gn1  v060
 BYTE   W36
 BYTE   En1
 BYTE   W36
 BYTE   Bn1
 BYTE   W06
 BYTE   PEND 
// 022   ----------------------------------------
Label_2_013E770B:
 BYTE   W30
 BYTE   N12  As2  v060
 BYTE   W12
 BYTE   As1
 BYTE   W12
 BYTE   N12
 BYTE   W12
 BYTE   N12
 BYTE   W12
 BYTE   N12
 BYTE   W12
 BYTE   N12
 BYTE   W06
 BYTE   PEND 
// 023   ----------------------------------------
Label_2_013E771B:
 BYTE   W06
 BYTE   N12  Fs2  v060
 BYTE   W12
 BYTE   Fs1
 BYTE   W12
 BYTE   N12
 BYTE   W12
 BYTE   N12
 BYTE   W12
 BYTE   N12
 BYTE   W12
 BYTE   N12
 BYTE   W12
 BYTE   N36  En1
 BYTE   W18
 BYTE   PEND 
 BYTE   PATT
  POIN2 Label_2_013E76D4
 BYTE   PATT
  POIN2 Label_2_013E76DE
 BYTE   PATT
  POIN2 Label_2_013E76EE
 BYTE   PATT
  POIN2 Label_2_013E76D4
 BYTE   PATT
  POIN2 Label_2_013E770B
// 024   ----------------------------------------
Label_2_013E7747:
 BYTE   W06
 BYTE   N12  Fs2  v060
 BYTE   W12
 BYTE   Fs1
 BYTE   W12
 BYTE   N12
 BYTE   W12
 BYTE   N12
 BYTE   W12
 BYTE   N12
 BYTE   W12
 BYTE   N12
 BYTE   W12
 BYTE   N72  En2
 BYTE   W18
 BYTE   PEND 
// 025   ----------------------------------------
 BYTE   W54
 BYTE   As1
 BYTE   W42
// 026   ----------------------------------------
Label_2_013E775D:
 BYTE   W30
 BYTE   N24  Gn1  v060
 BYTE   W24
 BYTE   Fs1
 BYTE   W24
 BYTE   En1
 BYTE   W18
 BYTE   PEND 
// 027   ----------------------------------------
Label_2_013E7767:
 BYTE   W06
 BYTE   N12  As1  v060
 BYTE   W12
 BYTE   N60
 BYTE   W12
 BYTE   VOL   0*FFMysticQuestVolcanoFeier_mvl/mxv
 BYTE   W48
 BYTE   Gs4
 BYTE   N12
 BYTE   W12
 BYTE   N60
 BYTE   W06
 BYTE   PEND 
// 028   ----------------------------------------
Label_2_013E7777:
 BYTE   VOL   0*FFMysticQuestVolcanoFeier_mvl/mxv
 BYTE   W54
 BYTE   Gs4
 BYTE   N24  As1  v060
 BYTE   W24
 BYTE   Bn1
 BYTE   W18
 BYTE   PEND 
// 029   ----------------------------------------
Label_2_013E7782:
 BYTE   W06
 BYTE   N24  Cn2  v060
 BYTE   W24
 BYTE   N36  En2
 BYTE   W36
 BYTE   N12  En1
 BYTE   W12
 BYTE   N12
 BYTE   W12
 BYTE   N12
 BYTE   W06
 BYTE   PEND 
// 030   ----------------------------------------
Label_2_013E7792:
 BYTE   W06
 BYTE   N24  Gn2  v060
 BYTE   W24
 BYTE   N12  En1
 BYTE   W12
 BYTE   N12
 BYTE   W12
 BYTE   N12
 BYTE   W12
 BYTE   N12
 BYTE   W12
 BYTE   N24  Fs2
 BYTE   W18
 BYTE   PEND 
// 031   ----------------------------------------
Label_2_013E77A4:
 BYTE   W06
 BYTE   N12  Fs1  v060
 BYTE   W12
 BYTE   N12
 BYTE   W12
 BYTE   N12
 BYTE   W12
 BYTE   N12
 BYTE   W12
 BYTE   N24  Fn2
 BYTE   W24
 BYTE   N12  Fn1
 BYTE   W12
 BYTE   N12
 BYTE   W06
 BYTE   PEND 
// 032   ----------------------------------------
Label_2_013E77B8:
 BYTE   W06
 BYTE   N12  Fn1  v060
 BYTE   W12
 BYTE   N12
 BYTE   W12
 BYTE   N36  En2
 BYTE   W36
 BYTE   N12  En1
 BYTE   W12
 BYTE   N12
 BYTE   W12
 BYTE   N12
 BYTE   W06
 BYTE   PEND 
// 033   ----------------------------------------
Label_2_013E77CA:
 BYTE   W06
 BYTE   N24  As1  v060
 BYTE   W24
 BYTE   An1
 BYTE   W24
 BYTE   Gn1
 BYTE   W24
 BYTE   Bn1
 BYTE   W18
 BYTE   PEND 
// 034   ----------------------------------------
Label_2_013E77D6:
 BYTE   W06
 BYTE   N12  En1  v060
 BYTE   W12
 BYTE   N12
 BYTE   W12
 BYTE   N12
 BYTE   W12
 BYTE   N12
 BYTE   W12
 BYTE   N24  Cn2
 BYTE   W24
 BYTE   N12  En1
 BYTE   W12
 BYTE   N12
 BYTE   W06
 BYTE   PEND 
// 035   ----------------------------------------
Label_2_013E77EA:
 BYTE   W06
 BYTE   N12  Dn2  v060
 BYTE   W12
 BYTE   En1
 BYTE   W12
 BYTE   N36  En2
 BYTE   W36
 BYTE   N12  En1
 BYTE   W12
 BYTE   N12
 BYTE   W12
 BYTE   N12
 BYTE   W06
 BYTE   PEND 
 BYTE   PATT
  POIN2 Label_2_013E7792
 BYTE   PATT
  POIN2 Label_2_013E77A4
 BYTE   PATT
  POIN2 Label_2_013E77B8
 BYTE   PATT
  POIN2 Label_2_013E77CA
// 036   ----------------------------------------
Label_2_013E7810:
 BYTE   W06
 BYTE   N24  As1  v060
 BYTE   W24
 BYTE   An1
 BYTE   W24
 BYTE   Gn1
 BYTE   W24
 BYTE   Fs1
 BYTE   W18
 BYTE   PEND 
// 037   ----------------------------------------
Label_2_013E781C:
 BYTE   W06
 BYTE   N60  Fn1  v060
 BYTE   W24
 BYTE   VOL   0*FFMysticQuestVolcanoFeier_mvl/mxv
 BYTE   W36
 BYTE   Gs4
 BYTE   TIE  En2
 BYTE   W30
 BYTE   PEND 
// 038   ----------------------------------------
 BYTE   W78
 BYTE   EOT
 BYTE   N24  As1
 BYTE   W18
// 039   ----------------------------------------
Label_2_013E782E:
 BYTE   W06
 BYTE   N48  An1  v060
 BYTE   W30
 BYTE   VOL   0*FFMysticQuestVolcanoFeier_mvl/mxv
 BYTE   W18
 BYTE   Gs4
 BYTE   N24  Gn1
 BYTE   W24
 BYTE   N84  An1
 BYTE   W18
 BYTE   PEND 
// 040   ----------------------------------------
Label_2_013E783E:
 BYTE   W06
 BYTE   VOL   0*FFMysticQuestVolcanoFeier_mvl/mxv
 BYTE   W60
 BYTE   Gs4
 BYTE   TIE  Bn1  v060
 BYTE   W30
 BYTE   PEND 
// 041   ----------------------------------------
 BYTE   W78
 BYTE   EOT
 BYTE   N24  Cn2
 BYTE   W18
// 042   ----------------------------------------
Label_2_013E784D:
 BYTE   W06
 BYTE   N48  Bn1  v060
 BYTE   W24
 BYTE   VOL   0*FFMysticQuestVolcanoFeier_mvl/mxv
 BYTE   W24
 BYTE   Gs4
 BYTE   N24  As1
 BYTE   W24
 BYTE   N84  Bn1
 BYTE   W18
 BYTE   PEND 
// 043   ----------------------------------------
Label_2_013E785D:
 BYTE   W06
 BYTE   VOL   0*FFMysticQuestVolcanoFeier_mvl/mxv
 BYTE   W60
 BYTE   Gs4
 BYTE   TIE  En2  v060
 BYTE   W30
 BYTE   PEND 
// 044   ----------------------------------------
 BYTE   W78
 BYTE   EOT
 BYTE   N24  As1
 BYTE   W18
// 045   ----------------------------------------
Label_2_013E786C:
 BYTE   W06
 BYTE   N48  An1  v060
 BYTE   W24
 BYTE   VOL   0*FFMysticQuestVolcanoFeier_mvl/mxv
 BYTE   W24
 BYTE   Gs4
 BYTE   N24  Gn1
 BYTE   W24
 BYTE   N84  An1
 BYTE   W18
 BYTE   PEND 
 BYTE   PATT
  POIN2 Label_2_013E783E
// 046   ----------------------------------------
 BYTE   W78
 BYTE   EOT
 BYTE   Bn1
 BYTE   N24  Cn2  v060
 BYTE   W18
// 047   ----------------------------------------
Label_2_013E7888:
 BYTE   W06
 BYTE   N48  Bn1  v060
 BYTE   W24
 BYTE   VOL   0*FFMysticQuestVolcanoFeier_mvl/mxv
 BYTE   W24
 BYTE   Gs4
 BYTE   N24  As1
 BYTE   W24
 BYTE   N48  Bn1
 BYTE   W18
 BYTE   PEND 
// 048   ----------------------------------------
Label_2_013E7898:
 BYTE   W06
 BYTE   VOL   0*FFMysticQuestVolcanoFeier_mvl/mxv
 BYTE   W24
 BYTE   Gs4
 BYTE   N36  En1  v060
 BYTE   W36
 BYTE   Gn1
 BYTE   W30
 BYTE   PEND 
// 049   ----------------------------------------
Label_2_013E78A4:
 BYTE   W06
 BYTE   N36  En1  v060
 BYTE   W36
 BYTE   As1
 BYTE   W36
 BYTE   N12  Bn2
 BYTE   W12
 BYTE   Bn1
 BYTE   W06
 BYTE   PEND 
// 050   ----------------------------------------
Label_2_013E78B1:
 BYTE   W06
 BYTE   N12  Bn1  v060
 BYTE   W12
 BYTE   N12
 BYTE   W12
 BYTE   N12
 BYTE   W12
 BYTE   N12
 BYTE   W12
 BYTE   Ds2
 BYTE   W12
 BYTE   Bn1
 BYTE   W12
 BYTE   N12
 BYTE   W12
 BYTE   N12
 BYTE   W06
 BYTE   PEND 
// 051   ----------------------------------------
Label_2_013E78C5:
 BYTE   W06
 BYTE   N12  Bn1  v060
 BYTE   W12
 BYTE   N12
 BYTE   W12
 BYTE   N36  En1
 BYTE   W36
 BYTE   Gn1
 BYTE   W30
 BYTE   PEND 
// 052   ----------------------------------------
Label_2_013E78D2:
 BYTE   W06
 BYTE   N36  En1  v060
 BYTE   W36
 BYTE   Bn1
 BYTE   W36
 BYTE   N12  As2
 BYTE   W12
 BYTE   As1
 BYTE   W06
 BYTE   PEND 
// 053   ----------------------------------------
Label_2_013E78DF:
 BYTE   W06
 BYTE   N12  As1  v060
 BYTE   W12
 BYTE   N12
 BYTE   W12
 BYTE   N12
 BYTE   W12
 BYTE   N12
 BYTE   W12
 BYTE   Fs2
 BYTE   W12
 BYTE   Fs1
 BYTE   W12
 BYTE   N12
 BYTE   W12
 BYTE   N12
 BYTE   W06
 BYTE   PEND 
// 054   ----------------------------------------
Label_2_013E78F3:
 BYTE   W06
 BYTE   N12  Fs1  v060
 BYTE   W12
 BYTE   N12
 BYTE   W12
 BYTE   N36  En1
 BYTE   W36
 BYTE   Gn1
 BYTE   W30
 BYTE   PEND 
 BYTE   PATT
  POIN2 Label_2_013E78A4
 BYTE   PATT
  POIN2 Label_2_013E78B1
 BYTE   PATT
  POIN2 Label_2_013E78C5
// 055   ----------------------------------------
Label_2_013E790F:
 BYTE   W06
 BYTE   N36  En1  v060
 BYTE   W36
 BYTE   As1
 BYTE   W36
 BYTE   N12  As2
 BYTE   W12
 BYTE   As1
 BYTE   W06
 BYTE   PEND 
 BYTE   PATT
  POIN2 Label_2_013E78DF
// 056   ----------------------------------------
Label_2_013E7921:
 BYTE   W06
 BYTE   N12  Fs1  v060
 BYTE   W12
 BYTE   N12
 BYTE   W12
 BYTE   N72  En2
 BYTE   W66
 BYTE   PEND 
// 057   ----------------------------------------
Label_2_013E792C:
 BYTE   W06
 BYTE   N72  As1  v060
 BYTE   W72
 BYTE   N24  Gn1
 BYTE   W18
 BYTE   PEND 
// 058   ----------------------------------------
Label_2_013E7935:
 BYTE   W06
 BYTE   N24  Fs1  v060
 BYTE   W24
 BYTE   En1
 BYTE   W24
 BYTE   N12  As1
 BYTE   W12
 BYTE   N60
 BYTE   W12
 BYTE   VOL   0*FFMysticQuestVolcanoFeier_mvl/mxv
 BYTE   W18
 BYTE   PEND 
// 059   ----------------------------------------
Label_2_013E7945:
 BYTE   W30
 BYTE   VOL   60*FFMysticQuestVolcanoFeier_mvl/mxv
 BYTE   N12  As1  v060
 BYTE   W12
 BYTE   N60
 BYTE   W06
 BYTE   VOL   0*FFMysticQuestVolcanoFeier_mvl/mxv
 BYTE   W48
 BYTE   PEND 
// 060   ----------------------------------------
 BYTE   W06
 BYTE   Gs4
 BYTE   N24
 BYTE   W24
 BYTE   Bn1
 BYTE   W24
 BYTE   Cn2
 BYTE   W24
 BYTE   N36  En2
 BYTE   W18
 BYTE   PATT
  POIN2 Label_2_013E75BF
 BYTE   PATT
  POIN2 Label_2_013E75D1
 BYTE   PATT
  POIN2 Label_2_013E75E5
 BYTE   PATT
  POIN2 Label_2_013E75F7
 BYTE   PATT
  POIN2 Label_2_013E7606
 BYTE   PATT
  POIN2 Label_2_013E7617
 BYTE   PATT
  POIN2 Label_2_013E75BF
 BYTE   PATT
  POIN2 Label_2_013E75D1
 BYTE   PATT
  POIN2 Label_2_013E75E5
 BYTE   PATT
  POIN2 Label_2_013E75F7
 BYTE   PATT
  POIN2 Label_2_013E763D
 BYTE   PATT
  POIN2 Label_2_013E7649
 BYTE   PATT
  POIN2 Label_2_013E7657
// 061   ----------------------------------------
 BYTE   W30
 BYTE   EOT
 BYTE   En2
 BYTE   N24  As1  v060
 BYTE   W24
 BYTE   N48  An1
 BYTE   W30
 BYTE   VOL   0*FFMysticQuestVolcanoFeier_mvl/mxv
 BYTE   W12
 BYTE   PATT
  POIN2 Label_2_013E766A
 BYTE   PATT
  POIN2 Label_2_013E7678
// 062   ----------------------------------------
 BYTE   W30
 BYTE   EOT
 BYTE   Bn1
 BYTE   N24  Cn2  v060
 BYTE   W24
 BYTE   N48  Bn1
 BYTE   W24
 BYTE   VOL   0*FFMysticQuestVolcanoFeier_mvl/mxv
 BYTE   W18
 BYTE   PATT
  POIN2 Label_2_013E768B
 BYTE   PATT
  POIN2 Label_2_013E7657
// 063   ----------------------------------------
 BYTE   W30
 BYTE   EOT
 BYTE   En2
 BYTE   N24  As1  v060
 BYTE   W24
 BYTE   N48  An1
 BYTE   W24
 BYTE   VOL   0*FFMysticQuestVolcanoFeier_mvl/mxv
 BYTE   W18
 BYTE   PATT
  POIN2 Label_2_013E766A
 BYTE   PATT
  POIN2 Label_2_013E7678
// 064   ----------------------------------------
 BYTE   W30
 BYTE   EOT
 BYTE   Bn1
 BYTE   N24  Cn2  v060
 BYTE   W24
 BYTE   N48  Bn1
 BYTE   W24
 BYTE   VOL   0*FFMysticQuestVolcanoFeier_mvl/mxv
 BYTE   W18
 BYTE   PATT
  POIN2 Label_2_013E76C2
 BYTE   PATT
  POIN2 Label_2_013E76D4
 BYTE   PATT
  POIN2 Label_2_013E76DE
 BYTE   PATT
  POIN2 Label_2_013E76EE
 BYTE   PATT
  POIN2 Label_2_013E7701
 BYTE   PATT
  POIN2 Label_2_013E770B
 BYTE   PATT
  POIN2 Label_2_013E771B
 BYTE   PATT
  POIN2 Label_2_013E76D4
 BYTE   PATT
  POIN2 Label_2_013E76DE
 BYTE   PATT
  POIN2 Label_2_013E76EE
 BYTE   PATT
  POIN2 Label_2_013E76D4
 BYTE   PATT
  POIN2 Label_2_013E770B
 BYTE   PATT
  POIN2 Label_2_013E7747
// 065   ----------------------------------------
 BYTE   W54
 BYTE   N72  As1  v060
 BYTE   W42
 BYTE   PATT
  POIN2 Label_2_013E775D
 BYTE   PATT
  POIN2 Label_2_013E7767
 BYTE   PATT
  POIN2 Label_2_013E7777
 BYTE   PATT
  POIN2 Label_2_013E7782
 BYTE   PATT
  POIN2 Label_2_013E7792
 BYTE   PATT
  POIN2 Label_2_013E77A4
 BYTE   PATT
  POIN2 Label_2_013E77B8
 BYTE   PATT
  POIN2 Label_2_013E77CA
 BYTE   PATT
  POIN2 Label_2_013E77D6
 BYTE   PATT
  POIN2 Label_2_013E77EA
 BYTE   PATT
  POIN2 Label_2_013E7792
 BYTE   PATT
  POIN2 Label_2_013E77A4
 BYTE   PATT
  POIN2 Label_2_013E77B8
 BYTE   PATT
  POIN2 Label_2_013E77CA
 BYTE   PATT
  POIN2 Label_2_013E7810
 BYTE   PATT
  POIN2 Label_2_013E781C
// 066   ----------------------------------------
 BYTE   W78
 BYTE   EOT
 BYTE   En2
 BYTE   N24  As1  v060
 BYTE   W18
 BYTE   PATT
  POIN2 Label_2_013E782E
 BYTE   PATT
  POIN2 Label_2_013E783E
// 067   ----------------------------------------
 BYTE   W78
 BYTE   EOT
 BYTE   Bn1
 BYTE   N24  Cn2  v060
 BYTE   W18
 BYTE   PATT
  POIN2 Label_2_013E784D
 BYTE   PATT
  POIN2 Label_2_013E785D
// 068   ----------------------------------------
 BYTE   W78
 BYTE   EOT
 BYTE   En2
 BYTE   N24  As1  v060
 BYTE   W18
 BYTE   PATT
  POIN2 Label_2_013E786C
 BYTE   PATT
  POIN2 Label_2_013E783E
// 069   ----------------------------------------
 BYTE   W78
 BYTE   EOT
 BYTE   Bn1
 BYTE   N24  Cn2  v060
 BYTE   W18
 BYTE   PATT
  POIN2 Label_2_013E7888
 BYTE   PATT
  POIN2 Label_2_013E7898
 BYTE   PATT
  POIN2 Label_2_013E78A4
 BYTE   PATT
  POIN2 Label_2_013E78B1
 BYTE   PATT
  POIN2 Label_2_013E78C5
 BYTE   PATT
  POIN2 Label_2_013E78D2
 BYTE   PATT
  POIN2 Label_2_013E78DF
 BYTE   PATT
  POIN2 Label_2_013E78F3
 BYTE   PATT
  POIN2 Label_2_013E78A4
 BYTE   PATT
  POIN2 Label_2_013E78B1
 BYTE   PATT
  POIN2 Label_2_013E78C5
 BYTE   PATT
  POIN2 Label_2_013E790F
 BYTE   PATT
  POIN2 Label_2_013E78DF
 BYTE   PATT
  POIN2 Label_2_013E7921
 BYTE   PATT
  POIN2 Label_2_013E792C
 BYTE   PATT
  POIN2 Label_2_013E7935
 BYTE   PATT
  POIN2 Label_2_013E7945
// 070   ----------------------------------------
 BYTE   W06
 BYTE   VOL   60*FFMysticQuestVolcanoFeier_mvl/mxv
 BYTE   N24  As1  v060
 BYTE   W24
 BYTE   Bn1
 BYTE   W24
 BYTE   Cn2
 BYTE   W24
 BYTE   N36  En2
 BYTE   W06
 BYTE   VOL   58*FFMysticQuestVolcanoFeier_mvl/mxv
 BYTE   W06
 BYTE   En4
 BYTE   W06
// 071   ----------------------------------------
 BYTE   Dn4
 BYTE   W06
 BYTE   Bn3
 BYTE   W06
 BYTE   An3
 BYTE   W06
 BYTE   Gn3
 BYTE   N12  En1
 BYTE   W06
 BYTE   VOL   44*FFMysticQuestVolcanoFeier_mvl/mxv
 BYTE   W06
 BYTE   Cs3
 BYTE   N12
 BYTE   W06
 BYTE   VOL   38*FFMysticQuestVolcanoFeier_mvl/mxv
 BYTE   W06
 BYTE   Fs2
 BYTE   N12
 BYTE   W06
 BYTE   VOL   30*FFMysticQuestVolcanoFeier_mvl/mxv
 BYTE   W06
 BYTE   An1
 BYTE   N24  Gn2
 BYTE   W06
 BYTE   VOL   19*FFMysticQuestVolcanoFeier_mvl/mxv
 BYTE   W06
 BYTE   Fs0
 BYTE   W06
 BYTE   GnM1
 BYTE   W06
 BYTE   BnM2
 BYTE   N12  En1
 BYTE   W06
 BYTE   VOL   0*FFMysticQuestVolcanoFeier_mvl/mxv
 BYTE   W06
 BYTE   CnM2
 BYTE   N06
 BYTE   W06
 BYTE   FINE

//**************** Track 4 (Midi-Chn.3) ****************//

FFMysticQuestVolcanoFeier_004:
// 000   ----------------------------------------
 BYTE   KEYSH   FFMysticQuestVolcanoFeier_key+0
 BYTE   VOICE   18
 BYTE   W78
 BYTE   VOL   60*FFMysticQuestVolcanoFeier_mvl/mxv
 BYTE   N24  En3  v068
 BYTE   W18
// 001   ----------------------------------------
Label_3_013E695F:
 BYTE   W06
 BYTE   N12  Ds3  v068
 BYTE   W12
 BYTE   En2
 BYTE   W12
 BYTE   Gn2
 BYTE   W12
 BYTE   Bn2
 BYTE   W12
 BYTE   N36  Gn3
 BYTE   W36
 BYTE   N12  En2
 BYTE   W06
 BYTE   PEND 
// 002   ----------------------------------------
Label_3_013E6971:
 BYTE   W06
 BYTE   N12  Gn2  v068
 BYTE   W12
 BYTE   Bn2
 BYTE   W12
 BYTE   N36  Fs3
 BYTE   W36
 BYTE   N12  En2
 BYTE   W12
 BYTE   Bn2
 BYTE   W12
 BYTE   En2
 BYTE   W06
 BYTE   PEND 
// 003   ----------------------------------------
Label_3_013E6983:
 BYTE   W06
 BYTE   N36  Fn3  v068
 BYTE   W36
 BYTE   N12  Fn2
 BYTE   W12
 BYTE   Cn3
 BYTE   W12
 BYTE   Fn2
 BYTE   W12
 BYTE   N24  En3
 BYTE   W18
 BYTE   PEND 
// 004   ----------------------------------------
Label_3_013E6993:
 BYTE   W06
 BYTE   N12  En3  v068
 BYTE   W12
 BYTE   En2
 BYTE   W12
 BYTE   Gn2
 BYTE   W12
 BYTE   Bn2
 BYTE   W12
 BYTE   N24  As2
 BYTE   W24
 BYTE   An2
 BYTE   W18
 BYTE   PEND 
// 005   ----------------------------------------
Label_3_013E69A4:
 BYTE   W06
 BYTE   N24  Gn2  v068
 BYTE   W24
 BYTE   N12  Bn2
 BYTE   W12
 BYTE   En2
 BYTE   W12
 BYTE   Bn2
 BYTE   W12
 BYTE   Gn2
 BYTE   W12
 BYTE   En2
 BYTE   W12
 BYTE   Bn2
 BYTE   W06
 BYTE   PEND 
// 006   ----------------------------------------
Label_3_013E69B7:
 BYTE   W06
 BYTE   N12  Cn3  v068
 BYTE   W12
 BYTE   Cn4
 BYTE   W12
 BYTE   Gn3
 BYTE   W12
 BYTE   En3
 BYTE   W12
 BYTE   N24  Dn3
 BYTE   W24
 BYTE   En3
 BYTE   W18
 BYTE   PEND 
 BYTE   PATT
  POIN2 Label_3_013E695F
 BYTE   PATT
  POIN2 Label_3_013E6971
 BYTE   PATT
  POIN2 Label_3_013E6983
 BYTE   PATT
  POIN2 Label_3_013E6993
// 007   ----------------------------------------
Label_3_013E69DC:
 BYTE   W06
 BYTE   N24  Gn2  v068
 BYTE   W24
 BYTE   Bn2
 BYTE   W24
 BYTE   As2
 BYTE   W24
 BYTE   An2
 BYTE   W18
 BYTE   PEND 
// 008   ----------------------------------------
Label_3_013E69E8:
 BYTE   W06
 BYTE   N24  Gn2  v068
 BYTE   W24
 BYTE   Fs2
 BYTE   W24
 BYTE   Fn2
 BYTE   W24
 BYTE   N12  En3
 BYTE   W06
 BYTE   VOL   0*FFMysticQuestVolcanoFeier_mvl/mxv
 BYTE   W06
 BYTE   Gs4
 BYTE   N12
 BYTE   W06
 BYTE   PEND 
// 009   ----------------------------------------
Label_3_013E69FB:
 BYTE   VOL   0*FFMysticQuestVolcanoFeier_mvl/mxv
 BYTE   W06
 BYTE   Gs4
 BYTE   N12  En3  v068
 BYTE   W06
 BYTE   VOL   0*FFMysticQuestVolcanoFeier_mvl/mxv
 BYTE   W06
 BYTE   Gs4
 BYTE   N12
 BYTE   W06
 BYTE   VOL   0*FFMysticQuestVolcanoFeier_mvl/mxv
 BYTE   W06
 BYTE   Gs4
 BYTE   N12
 BYTE   W06
 BYTE   VOL   0*FFMysticQuestVolcanoFeier_mvl/mxv
 BYTE   W06
 BYTE   Gs4
 BYTE   N12
 BYTE   W06
 BYTE   VOL   0*FFMysticQuestVolcanoFeier_mvl/mxv
 BYTE   W06
 BYTE   Gs4
 BYTE   N12
 BYTE   W06
 BYTE   VOL   0*FFMysticQuestVolcanoFeier_mvl/mxv
 BYTE   W06
 BYTE   Gs4
 BYTE   N12
 BYTE   W06
 BYTE   VOL   0*FFMysticQuestVolcanoFeier_mvl/mxv
 BYTE   W06
 BYTE   Gs4
 BYTE   N12
 BYTE   W06
 BYTE   VOL   0*FFMysticQuestVolcanoFeier_mvl/mxv
 BYTE   W06
 BYTE   Gs4
 BYTE   N12
 BYTE   W06
 BYTE   PEND 
// 010   ----------------------------------------
Label_3_013E6A2E:
 BYTE   VOL   0*FFMysticQuestVolcanoFeier_mvl/mxv
 BYTE   W06
 BYTE   Gs4
 BYTE   N12  En3  v068
 BYTE   W06
 BYTE   VOL   0*FFMysticQuestVolcanoFeier_mvl/mxv
 BYTE   W06
 BYTE   Gs4
 BYTE   N12
 BYTE   W06
 BYTE   VOL   0*FFMysticQuestVolcanoFeier_mvl/mxv
 BYTE   W06
 BYTE   Gs4
 BYTE   N24  As3
 BYTE   W24
 BYTE   N48  An3
 BYTE   W30
 BYTE   VOL   0*FFMysticQuestVolcanoFeier_mvl/mxv
 BYTE   W12
 BYTE   PEND 
// 011   ----------------------------------------
Label_3_013E6A4A:
 BYTE   W06
 BYTE   VOL   60*FFMysticQuestVolcanoFeier_mvl/mxv
 BYTE   N24  Gn3  v068
 BYTE   W24
 BYTE   N48  An3
 BYTE   W24
 BYTE   VOL   0*FFMysticQuestVolcanoFeier_mvl/mxv
 BYTE   W24
 BYTE   Gs4
 BYTE   N12  Bn2
 BYTE   W06
 BYTE   VOL   0*FFMysticQuestVolcanoFeier_mvl/mxv
 BYTE   W06
 BYTE   Gs4
 BYTE   N12
 BYTE   W06
 BYTE   PEND 
// 012   ----------------------------------------
Label_3_013E6A62:
 BYTE   VOL   0*FFMysticQuestVolcanoFeier_mvl/mxv
 BYTE   W06
 BYTE   Gs4
 BYTE   N12  Bn2  v068
 BYTE   W06
 BYTE   VOL   0*FFMysticQuestVolcanoFeier_mvl/mxv
 BYTE   W06
 BYTE   Gs4
 BYTE   N12
 BYTE   W06
 BYTE   VOL   0*FFMysticQuestVolcanoFeier_mvl/mxv
 BYTE   W06
 BYTE   Gs4
 BYTE   N12
 BYTE   W06
 BYTE   VOL   0*FFMysticQuestVolcanoFeier_mvl/mxv
 BYTE   W06
 BYTE   Gs4
 BYTE   N12
 BYTE   W06
 BYTE   VOL   0*FFMysticQuestVolcanoFeier_mvl/mxv
 BYTE   W06
 BYTE   Gs4
 BYTE   N12
 BYTE   W06
 BYTE   VOL   0*FFMysticQuestVolcanoFeier_mvl/mxv
 BYTE   W06
 BYTE   Gs4
 BYTE   N12
 BYTE   W06
 BYTE   VOL   0*FFMysticQuestVolcanoFeier_mvl/mxv
 BYTE   W06
 BYTE   Gs4
 BYTE   N12
 BYTE   W06
 BYTE   VOL   0*FFMysticQuestVolcanoFeier_mvl/mxv
 BYTE   W06
 BYTE   Gs4
 BYTE   N12
 BYTE   W06
 BYTE   PEND 
// 013   ----------------------------------------
Label_3_013E6A95:
 BYTE   VOL   0*FFMysticQuestVolcanoFeier_mvl/mxv
 BYTE   W06
 BYTE   Gs4
 BYTE   N12  Bn2  v068
 BYTE   W06
 BYTE   VOL   0*FFMysticQuestVolcanoFeier_mvl/mxv
 BYTE   W06
 BYTE   Gs4
 BYTE   N12
 BYTE   W06
 BYTE   VOL   0*FFMysticQuestVolcanoFeier_mvl/mxv
 BYTE   W06
 BYTE   Gs4
 BYTE   N24  Cn4
 BYTE   W24
 BYTE   N48  Bn3
 BYTE   W24
 BYTE   VOL   0*FFMysticQuestVolcanoFeier_mvl/mxv
 BYTE   W18
 BYTE   PEND 
// 014   ----------------------------------------
Label_3_013E6AB1:
 BYTE   W06
 BYTE   VOL   60*FFMysticQuestVolcanoFeier_mvl/mxv
 BYTE   N24  As3  v068
 BYTE   W24
 BYTE   N48  Bn3
 BYTE   W24
 BYTE   VOL   0*FFMysticQuestVolcanoFeier_mvl/mxv
 BYTE   W24
 BYTE   Gs4
 BYTE   N12  En3
 BYTE   W06
 BYTE   VOL   0*FFMysticQuestVolcanoFeier_mvl/mxv
 BYTE   W06
 BYTE   Gs4
 BYTE   N12
 BYTE   W06
 BYTE   PEND 
 BYTE   PATT
  POIN2 Label_3_013E69FB
// 015   ----------------------------------------
Label_3_013E6ACE:
 BYTE   VOL   0*FFMysticQuestVolcanoFeier_mvl/mxv
 BYTE   W06
 BYTE   Gs4
 BYTE   N12  En3  v068
 BYTE   W06
 BYTE   VOL   0*FFMysticQuestVolcanoFeier_mvl/mxv
 BYTE   W06
 BYTE   Gs4
 BYTE   N12
 BYTE   W06
 BYTE   VOL   0*FFMysticQuestVolcanoFeier_mvl/mxv
 BYTE   W06
 BYTE   Gs4
 BYTE   N24  As3
 BYTE   W24
 BYTE   N48  An3
 BYTE   W24
 BYTE   VOL   0*FFMysticQuestVolcanoFeier_mvl/mxv
 BYTE   W18
 BYTE   PEND 
 BYTE   PATT
  POIN2 Label_3_013E6A4A
 BYTE   PATT
  POIN2 Label_3_013E6A62
 BYTE   PATT
  POIN2 Label_3_013E6A95
// 016   ----------------------------------------
Label_3_013E6AF9:
 BYTE   W06
 BYTE   VOL   60*FFMysticQuestVolcanoFeier_mvl/mxv
 BYTE   N24  As3  v068
 BYTE   W24
 BYTE   TIE  Bn3
 BYTE   W24
 BYTE   VOL   0*FFMysticQuestVolcanoFeier_mvl/mxv
 BYTE   W42
 BYTE   PEND 
// 017   ----------------------------------------
 BYTE   W96
// 018   ----------------------------------------
 BYTE   W96
// 019   ----------------------------------------
 BYTE   W96
// 020   ----------------------------------------
 BYTE   W96
// 021   ----------------------------------------
 BYTE   W96
// 022   ----------------------------------------
 BYTE   W96
// 023   ----------------------------------------
 BYTE   W96
// 024   ----------------------------------------
 BYTE   W96
// 025   ----------------------------------------
 BYTE   W96
// 026   ----------------------------------------
 BYTE   W96
// 027   ----------------------------------------
 BYTE   W96
// 028   ----------------------------------------
 BYTE   W78
 BYTE   EOT
 BYTE   VOL   60*FFMysticQuestVolcanoFeier_mvl/mxv
 BYTE   N12  En4
 BYTE   W12
 BYTE   Bn3
 BYTE   W06
// 029   ----------------------------------------
Label_3_013E6B1B:
 BYTE   W06
 BYTE   N12  En4  v068
 BYTE   W12
 BYTE   Bn3
 BYTE   W12
 BYTE   En4
 BYTE   W12
 BYTE   Bn3
 BYTE   W12
 BYTE   En4
 BYTE   W12
 BYTE   As3
 BYTE   W12
 BYTE   En4
 BYTE   W12
 BYTE   As3
 BYTE   W06
 BYTE   PEND 
// 030   ----------------------------------------
Label_3_013E6B2F:
 BYTE   W06
 BYTE   N12  En4  v068
 BYTE   W12
 BYTE   As3
 BYTE   W12
 BYTE   En4
 BYTE   W12
 BYTE   Gn3
 BYTE   W12
 BYTE   Bn3
 BYTE   W12
 BYTE   Fs3
 BYTE   W12
 BYTE   Bn3
 BYTE   W12
 BYTE   Fn3
 BYTE   W06
 BYTE   PEND 
// 031   ----------------------------------------
Label_3_013E6B43:
 BYTE   W06
 BYTE   N12  As4  v068
 BYTE   W06
 BYTE   VOL   0*FFMysticQuestVolcanoFeier_mvl/mxv
 BYTE   W06
 BYTE   Gs4
 BYTE   N60
 BYTE   W06
 BYTE   VOL   0*FFMysticQuestVolcanoFeier_mvl/mxv
 BYTE   W54
 BYTE   Gs4
 BYTE   N12
 BYTE   W06
 BYTE   VOL   0*FFMysticQuestVolcanoFeier_mvl/mxv
 BYTE   W06
 BYTE   Gs4
 BYTE   N60
 BYTE   W06
 BYTE   PEND 
// 032   ----------------------------------------
Label_3_013E6B5B:
 BYTE   VOL   0*FFMysticQuestVolcanoFeier_mvl/mxv
 BYTE   W54
 BYTE   Gs4
 BYTE   N24  As3  v068
 BYTE   W24
 BYTE   Bn3
 BYTE   W18
 BYTE   PEND 
// 033   ----------------------------------------
Label_3_013E6B66:
 BYTE   W06
 BYTE   N24  Cn4  v068
 BYTE   W24
 BYTE   En3
 BYTE   W24
 BYTE   N12  Ds3
 BYTE   W12
 BYTE   En2
 BYTE   W12
 BYTE   Gn2
 BYTE   W12
 BYTE   Bn2
 BYTE   W06
 BYTE   PEND 
// 034   ----------------------------------------
Label_3_013E6B77:
 BYTE   W06
 BYTE   N36  Gn3  v068
 BYTE   W36
 BYTE   N12  En2
 BYTE   W12
 BYTE   Gn2
 BYTE   W12
 BYTE   Bn2
 BYTE   W12
 BYTE   N36  Fs3
 BYTE   W18
 BYTE   PEND 
// 035   ----------------------------------------
Label_3_013E6B87:
 BYTE   W18
 BYTE   N12  En2  v068
 BYTE   W12
 BYTE   Bn2
 BYTE   W12
 BYTE   En2
 BYTE   W12
 BYTE   N36  Fn3
 BYTE   W36
 BYTE   N12  Fn2
 BYTE   W06
 BYTE   PEND 
// 036   ----------------------------------------
Label_3_013E6B97:
 BYTE   W06
 BYTE   N12  Cn3  v068
 BYTE   W12
 BYTE   Fn2
 BYTE   W12
 BYTE   N24  En3
 BYTE   W24
 BYTE   N12
 BYTE   W12
 BYTE   En2
 BYTE   W12
 BYTE   Gn2
 BYTE   W12
 BYTE   Bn2
 BYTE   W06
 BYTE   PEND 
// 037   ----------------------------------------
Label_3_013E6BAA:
 BYTE   W06
 BYTE   N24  As2  v068
 BYTE   W24
 BYTE   An2
 BYTE   W24
 BYTE   Gn2
 BYTE   W24
 BYTE   N12  Bn2
 BYTE   W12
 BYTE   En2
 BYTE   W06
 BYTE   PEND 
// 038   ----------------------------------------
Label_3_013E6BB9:
 BYTE   W06
 BYTE   N12  Bn2  v068
 BYTE   W12
 BYTE   Gn2
 BYTE   W12
 BYTE   En2
 BYTE   W12
 BYTE   Bn2
 BYTE   W12
 BYTE   Cn3
 BYTE   W12
 BYTE   Cn4
 BYTE   W12
 BYTE   Gn3
 BYTE   W12
 BYTE   En3
 BYTE   W06
 BYTE   PEND 
// 039   ----------------------------------------
Label_3_013E6BCD:
 BYTE   W06
 BYTE   N24  Dn3  v068
 BYTE   W24
 BYTE   En3
 BYTE   W24
 BYTE   N12  Ds3
 BYTE   W12
 BYTE   En2
 BYTE   W12
 BYTE   Gn2
 BYTE   W12
 BYTE   Bn2
 BYTE   W06
 BYTE   PEND 
 BYTE   PATT
  POIN2 Label_3_013E6B77
 BYTE   PATT
  POIN2 Label_3_013E6B87
 BYTE   PATT
  POIN2 Label_3_013E6B97
// 040   ----------------------------------------
Label_3_013E6BED:
 BYTE   W06
 BYTE   N24  As2  v068
 BYTE   W24
 BYTE   An2
 BYTE   W24
 BYTE   Gn2
 BYTE   W24
 BYTE   Bn2
 BYTE   W18
 BYTE   PEND 
// 041   ----------------------------------------
Label_3_013E6BF9:
 BYTE   W06
 BYTE   N24  As2  v068
 BYTE   W24
 BYTE   An2
 BYTE   W24
 BYTE   Gn2
 BYTE   W24
 BYTE   Fs2
 BYTE   W18
 BYTE   PEND 
// 042   ----------------------------------------
Label_3_013E6C05:
 BYTE   W06
 BYTE   N24  Fn2  v068
 BYTE   W24
 BYTE   N12  En3
 BYTE   W06
 BYTE   VOL   0*FFMysticQuestVolcanoFeier_mvl/mxv
 BYTE   W06
 BYTE   Gs4
 BYTE   N12
 BYTE   W06
 BYTE   VOL   0*FFMysticQuestVolcanoFeier_mvl/mxv
 BYTE   W06
 BYTE   Gs4
 BYTE   N12
 BYTE   W06
 BYTE   VOL   0*FFMysticQuestVolcanoFeier_mvl/mxv
 BYTE   W06
 BYTE   Gs4
 BYTE   N12
 BYTE   W06
 BYTE   VOL   0*FFMysticQuestVolcanoFeier_mvl/mxv
 BYTE   W06
 BYTE   Gs4
 BYTE   N12
 BYTE   W06
 BYTE   VOL   0*FFMysticQuestVolcanoFeier_mvl/mxv
 BYTE   W06
 BYTE   Gs4
 BYTE   N12
 BYTE   W06
 BYTE   PEND 
// 043   ----------------------------------------
Label_3_013E6C2C:
 BYTE   VOL   0*FFMysticQuestVolcanoFeier_mvl/mxv
 BYTE   W06
 BYTE   Gs4
 BYTE   N12  En3  v068
 BYTE   W06
 BYTE   VOL   0*FFMysticQuestVolcanoFeier_mvl/mxv
 BYTE   W06
 BYTE   Gs4
 BYTE   N12
 BYTE   W06
 BYTE   VOL   0*FFMysticQuestVolcanoFeier_mvl/mxv
 BYTE   W06
 BYTE   Gs4
 BYTE   N12
 BYTE   W06
 BYTE   VOL   0*FFMysticQuestVolcanoFeier_mvl/mxv
 BYTE   W06
 BYTE   Gs4
 BYTE   N12
 BYTE   W06
 BYTE   VOL   0*FFMysticQuestVolcanoFeier_mvl/mxv
 BYTE   W06
 BYTE   Gs4
 BYTE   N12
 BYTE   W06
 BYTE   VOL   0*FFMysticQuestVolcanoFeier_mvl/mxv
 BYTE   W06
 BYTE   Gs4
 BYTE   N12
 BYTE   W06
 BYTE   VOL   0*FFMysticQuestVolcanoFeier_mvl/mxv
 BYTE   W06
 BYTE   Gs4
 BYTE   N24  As3
 BYTE   W18
 BYTE   PEND 
// 044   ----------------------------------------
Label_3_013E6C5A:
 BYTE   W06
 BYTE   N48  An3  v068
 BYTE   W30
 BYTE   VOL   0*FFMysticQuestVolcanoFeier_mvl/mxv
 BYTE   W18
 BYTE   Gs4
 BYTE   N24  Gn3
 BYTE   W24
 BYTE   N48  An3
 BYTE   W18
 BYTE   PEND 
// 045   ----------------------------------------
Label_3_013E6C6A:
 BYTE   W06
 BYTE   VOL   0*FFMysticQuestVolcanoFeier_mvl/mxv
 BYTE   W24
 BYTE   Gs4
 BYTE   N12  Bn2  v068
 BYTE   W06
 BYTE   VOL   0*FFMysticQuestVolcanoFeier_mvl/mxv
 BYTE   W06
 BYTE   Gs4
 BYTE   N12
 BYTE   W06
 BYTE   VOL   0*FFMysticQuestVolcanoFeier_mvl/mxv
 BYTE   W06
 BYTE   Gs4
 BYTE   N12
 BYTE   W06
 BYTE   VOL   0*FFMysticQuestVolcanoFeier_mvl/mxv
 BYTE   W06
 BYTE   Gs4
 BYTE   N12
 BYTE   W06
 BYTE   VOL   0*FFMysticQuestVolcanoFeier_mvl/mxv
 BYTE   W06
 BYTE   Gs4
 BYTE   N12
 BYTE   W06
 BYTE   VOL   0*FFMysticQuestVolcanoFeier_mvl/mxv
 BYTE   W06
 BYTE   Gs4
 BYTE   N12
 BYTE   W06
 BYTE   PEND 
// 046   ----------------------------------------
Label_3_013E6C92:
 BYTE   VOL   0*FFMysticQuestVolcanoFeier_mvl/mxv
 BYTE   W06
 BYTE   Gs4
 BYTE   N12  Bn2  v068
 BYTE   W06
 BYTE   VOL   0*FFMysticQuestVolcanoFeier_mvl/mxv
 BYTE   W06
 BYTE   Gs4
 BYTE   N12
 BYTE   W06
 BYTE   VOL   0*FFMysticQuestVolcanoFeier_mvl/mxv
 BYTE   W06
 BYTE   Gs4
 BYTE   N12
 BYTE   W06
 BYTE   VOL   0*FFMysticQuestVolcanoFeier_mvl/mxv
 BYTE   W06
 BYTE   Gs4
 BYTE   N12
 BYTE   W06
 BYTE   VOL   0*FFMysticQuestVolcanoFeier_mvl/mxv
 BYTE   W06
 BYTE   Gs4
 BYTE   N12
 BYTE   W06
 BYTE   VOL   0*FFMysticQuestVolcanoFeier_mvl/mxv
 BYTE   W06
 BYTE   Gs4
 BYTE   N12
 BYTE   W06
 BYTE   VOL   0*FFMysticQuestVolcanoFeier_mvl/mxv
 BYTE   W06
 BYTE   Gs4
 BYTE   N24  Cn4
 BYTE   W18
 BYTE   PEND 
// 047   ----------------------------------------
Label_3_013E6CC0:
 BYTE   W06
 BYTE   N48  Bn3  v068
 BYTE   W24
 BYTE   VOL   0*FFMysticQuestVolcanoFeier_mvl/mxv
 BYTE   W24
 BYTE   Gs4
 BYTE   N24  As3
 BYTE   W24
 BYTE   N48  Bn3
 BYTE   W18
 BYTE   PEND 
// 048   ----------------------------------------
Label_3_013E6CD0:
 BYTE   W06
 BYTE   VOL   0*FFMysticQuestVolcanoFeier_mvl/mxv
 BYTE   W24
 BYTE   Gs4
 BYTE   N12  En3  v068
 BYTE   W06
 BYTE   VOL   0*FFMysticQuestVolcanoFeier_mvl/mxv
 BYTE   W06
 BYTE   Gs4
 BYTE   N12
 BYTE   W06
 BYTE   VOL   0*FFMysticQuestVolcanoFeier_mvl/mxv
 BYTE   W06
 BYTE   Gs4
 BYTE   N12
 BYTE   W06
 BYTE   VOL   0*FFMysticQuestVolcanoFeier_mvl/mxv
 BYTE   W06
 BYTE   Gs4
 BYTE   N12
 BYTE   W06
 BYTE   VOL   0*FFMysticQuestVolcanoFeier_mvl/mxv
 BYTE   W06
 BYTE   Gs4
 BYTE   N12
 BYTE   W06
 BYTE   VOL   0*FFMysticQuestVolcanoFeier_mvl/mxv
 BYTE   W06
 BYTE   Gs4
 BYTE   N12
 BYTE   W06
 BYTE   PEND 
 BYTE   PATT
  POIN2 Label_3_013E6C2C
// 049   ----------------------------------------
Label_3_013E6CFD:
 BYTE   W06
 BYTE   N48  An3  v068
 BYTE   W24
 BYTE   VOL   0*FFMysticQuestVolcanoFeier_mvl/mxv
 BYTE   W24
 BYTE   Gs4
 BYTE   N24  Gn3
 BYTE   W24
 BYTE   N48  An3
 BYTE   W18
 BYTE   PEND 
 BYTE   PATT
  POIN2 Label_3_013E6C6A
 BYTE   PATT
  POIN2 Label_3_013E6C92
// 050   ----------------------------------------
Label_3_013E6D17:
 BYTE   W06
 BYTE   N48  Bn3  v068
 BYTE   W24
 BYTE   VOL   0*FFMysticQuestVolcanoFeier_mvl/mxv
 BYTE   W24
 BYTE   Gs4
 BYTE   N24  As3
 BYTE   W24
 BYTE   TIE  Bn3
 BYTE   W18
 BYTE   PEND 
// 051   ----------------------------------------
 BYTE   W06
 BYTE   VOL   0*FFMysticQuestVolcanoFeier_mvl/mxv
 BYTE   W90
// 052   ----------------------------------------
 BYTE   W96
// 053   ----------------------------------------
 BYTE   W96
// 054   ----------------------------------------
 BYTE   W96
// 055   ----------------------------------------
 BYTE   W96
// 056   ----------------------------------------
 BYTE   W96
// 057   ----------------------------------------
 BYTE   W96
// 058   ----------------------------------------
 BYTE   W96
// 059   ----------------------------------------
 BYTE   W96
// 060   ----------------------------------------
 BYTE   W96
// 061   ----------------------------------------
 BYTE   W96
// 062   ----------------------------------------
 BYTE   W96
// 063   ----------------------------------------
 BYTE   W30
 BYTE   EOT
 BYTE   VOL   60*FFMysticQuestVolcanoFeier_mvl/mxv
 BYTE   N12  En4
 BYTE   W12
 BYTE   Bn3
 BYTE   W12
 BYTE   En4
 BYTE   W12
 BYTE   Bn3
 BYTE   W12
 BYTE   En4
 BYTE   W12
 BYTE   Bn3
 BYTE   W06
// 064   ----------------------------------------
Label_3_013E6D47:
 BYTE   W06
 BYTE   N12  En4  v068
 BYTE   W12
 BYTE   As3
 BYTE   W12
 BYTE   En4
 BYTE   W12
 BYTE   As3
 BYTE   W12
 BYTE   En4
 BYTE   W12
 BYTE   As3
 BYTE   W12
 BYTE   En4
 BYTE   W12
 BYTE   Gn3
 BYTE   W06
 BYTE   PEND 
// 065   ----------------------------------------
Label_3_013E6D5B:
 BYTE   W06
 BYTE   N12  Bn3  v068
 BYTE   W12
 BYTE   Fs3
 BYTE   W12
 BYTE   Bn3
 BYTE   W12
 BYTE   Fn3
 BYTE   W12
 BYTE   As4
 BYTE   W06
 BYTE   VOL   0*FFMysticQuestVolcanoFeier_mvl/mxv
 BYTE   W06
 BYTE   Gs4
 BYTE   N60
 BYTE   W06
 BYTE   VOL   0*FFMysticQuestVolcanoFeier_mvl/mxv
 BYTE   W24
 BYTE   PEND 
// 066   ----------------------------------------
Label_3_013E6D72:
 BYTE   W30
 BYTE   VOL   60*FFMysticQuestVolcanoFeier_mvl/mxv
 BYTE   N12  As4  v068
 BYTE   W06
 BYTE   VOL   0*FFMysticQuestVolcanoFeier_mvl/mxv
 BYTE   W06
 BYTE   Gs4
 BYTE   N60
 BYTE   W06
 BYTE   VOL   0*FFMysticQuestVolcanoFeier_mvl/mxv
 BYTE   W48
 BYTE   PEND 
// 067   ----------------------------------------
 BYTE   W06
 BYTE   Gs4
 BYTE   N24  As3
 BYTE   W24
 BYTE   Bn3
 BYTE   W24
 BYTE   Cn4
 BYTE   W24
 BYTE   En3
 BYTE   W18
 BYTE   PATT
  POIN2 Label_3_013E695F
 BYTE   PATT
  POIN2 Label_3_013E6971
 BYTE   PATT
  POIN2 Label_3_013E6983
 BYTE   PATT
  POIN2 Label_3_013E6993
 BYTE   PATT
  POIN2 Label_3_013E69A4
 BYTE   PATT
  POIN2 Label_3_013E69B7
 BYTE   PATT
  POIN2 Label_3_013E695F
 BYTE   PATT
  POIN2 Label_3_013E6971
 BYTE   PATT
  POIN2 Label_3_013E6983
 BYTE   PATT
  POIN2 Label_3_013E6993
 BYTE   PATT
  POIN2 Label_3_013E69DC
 BYTE   PATT
  POIN2 Label_3_013E69E8
 BYTE   PATT
  POIN2 Label_3_013E69FB
 BYTE   PATT
  POIN2 Label_3_013E6A2E
 BYTE   PATT
  POIN2 Label_3_013E6A4A
 BYTE   PATT
  POIN2 Label_3_013E6A62
 BYTE   PATT
  POIN2 Label_3_013E6A95
 BYTE   PATT
  POIN2 Label_3_013E6AB1
 BYTE   PATT
  POIN2 Label_3_013E69FB
 BYTE   PATT
  POIN2 Label_3_013E6ACE
 BYTE   PATT
  POIN2 Label_3_013E6A4A
 BYTE   PATT
  POIN2 Label_3_013E6A62
 BYTE   PATT
  POIN2 Label_3_013E6A95
 BYTE   PATT
  POIN2 Label_3_013E6AF9
// 068   ----------------------------------------
 BYTE   W96
// 069   ----------------------------------------
 BYTE   W96
// 070   ----------------------------------------
 BYTE   W96
// 071   ----------------------------------------
 BYTE   W96
// 072   ----------------------------------------
 BYTE   W96
// 073   ----------------------------------------
 BYTE   W96
// 074   ----------------------------------------
 BYTE   W96
// 075   ----------------------------------------
 BYTE   W96
// 076   ----------------------------------------
 BYTE   W96
// 077   ----------------------------------------
 BYTE   W96
// 078   ----------------------------------------
 BYTE   W96
// 079   ----------------------------------------
 BYTE   W78
 BYTE   EOT
 BYTE   Bn3
 BYTE   VOL   60*FFMysticQuestVolcanoFeier_mvl/mxv
 BYTE   N12  En4  v068
 BYTE   W12
 BYTE   Bn3
 BYTE   W06
 BYTE   PATT
  POIN2 Label_3_013E6B1B
 BYTE   PATT
  POIN2 Label_3_013E6B2F
 BYTE   PATT
  POIN2 Label_3_013E6B43
 BYTE   PATT
  POIN2 Label_3_013E6B5B
 BYTE   PATT
  POIN2 Label_3_013E6B66
 BYTE   PATT
  POIN2 Label_3_013E6B77
 BYTE   PATT
  POIN2 Label_3_013E6B87
 BYTE   PATT
  POIN2 Label_3_013E6B97
 BYTE   PATT
  POIN2 Label_3_013E6BAA
 BYTE   PATT
  POIN2 Label_3_013E6BB9
 BYTE   PATT
  POIN2 Label_3_013E6BCD
 BYTE   PATT
  POIN2 Label_3_013E6B77
 BYTE   PATT
  POIN2 Label_3_013E6B87
 BYTE   PATT
  POIN2 Label_3_013E6B97
 BYTE   PATT
  POIN2 Label_3_013E6BED
 BYTE   PATT
  POIN2 Label_3_013E6BF9
 BYTE   PATT
  POIN2 Label_3_013E6C05
 BYTE   PATT
  POIN2 Label_3_013E6C2C
 BYTE   PATT
  POIN2 Label_3_013E6C5A
 BYTE   PATT
  POIN2 Label_3_013E6C6A
 BYTE   PATT
  POIN2 Label_3_013E6C92
 BYTE   PATT
  POIN2 Label_3_013E6CC0
 BYTE   PATT
  POIN2 Label_3_013E6CD0
 BYTE   PATT
  POIN2 Label_3_013E6C2C
 BYTE   PATT
  POIN2 Label_3_013E6CFD
 BYTE   PATT
  POIN2 Label_3_013E6C6A
 BYTE   PATT
  POIN2 Label_3_013E6C92
 BYTE   PATT
  POIN2 Label_3_013E6D17
// 080   ----------------------------------------
 BYTE   W06
 BYTE   VOL   0*FFMysticQuestVolcanoFeier_mvl/mxv
 BYTE   W90
// 081   ----------------------------------------
 BYTE   W96
// 082   ----------------------------------------
 BYTE   W96
// 083   ----------------------------------------
 BYTE   W96
// 084   ----------------------------------------
 BYTE   W96
// 085   ----------------------------------------
 BYTE   W96
// 086   ----------------------------------------
 BYTE   W96
// 087   ----------------------------------------
 BYTE   W96
// 088   ----------------------------------------
 BYTE   W96
// 089   ----------------------------------------
 BYTE   W96
// 090   ----------------------------------------
 BYTE   W96
// 091   ----------------------------------------
 BYTE   W96
// 092   ----------------------------------------
 BYTE   W30
 BYTE   EOT
 BYTE   Bn3
 BYTE   VOL   60*FFMysticQuestVolcanoFeier_mvl/mxv
 BYTE   N12  En4  v068
 BYTE   W12
 BYTE   Bn3
 BYTE   W12
 BYTE   En4
 BYTE   W12
 BYTE   Bn3
 BYTE   W12
 BYTE   En4
 BYTE   W12
 BYTE   Bn3
 BYTE   W06
 BYTE   PATT
  POIN2 Label_3_013E6D47
 BYTE   PATT
  POIN2 Label_3_013E6D5B
 BYTE   PATT
  POIN2 Label_3_013E6D72
// 093   ----------------------------------------
 BYTE   W06
 BYTE   VOL   60*FFMysticQuestVolcanoFeier_mvl/mxv
 BYTE   N24  As3  v068
 BYTE   W24
 BYTE   Bn3
 BYTE   W24
 BYTE   Cn4
 BYTE   W24
 BYTE   En3
 BYTE   W06
 BYTE   VOL   58*FFMysticQuestVolcanoFeier_mvl/mxv
 BYTE   W06
 BYTE   En4
 BYTE   W06
// 094   ----------------------------------------
 BYTE   Dn4
 BYTE   W06
 BYTE   Bn3
 BYTE   N12  Ds3
 BYTE   W06
 BYTE   VOL   49*FFMysticQuestVolcanoFeier_mvl/mxv
 BYTE   W06
 BYTE   Gn3
 BYTE   N12  En2
 BYTE   W06
 BYTE   VOL   44*FFMysticQuestVolcanoFeier_mvl/mxv
 BYTE   W06
 BYTE   Cs3
 BYTE   N12  Gn2
 BYTE   W06
 BYTE   VOL   38*FFMysticQuestVolcanoFeier_mvl/mxv
 BYTE   W06
 BYTE   Fs2
 BYTE   N12  Bn2
 BYTE   W06
 BYTE   VOL   30*FFMysticQuestVolcanoFeier_mvl/mxv
 BYTE   W06
 BYTE   An1
 BYTE   N36  Gn3
 BYTE   W06
 BYTE   VOL   19*FFMysticQuestVolcanoFeier_mvl/mxv
 BYTE   W06
 BYTE   Fs0
 BYTE   W06
 BYTE   GnM1
 BYTE   W06
 BYTE   BnM2
 BYTE   W06
 BYTE   FsM2
 BYTE   W06
 BYTE   CnM2
 BYTE   W06
 BYTE   FINE

//**************** Track 5 (Midi-Chn.4) ****************//

FFMysticQuestVolcanoFeier_005:
// 000   ----------------------------------------
 BYTE   KEYSH   FFMysticQuestVolcanoFeier_key+0
 BYTE   VOICE   79
 BYTE   W96
// 001   ----------------------------------------
 BYTE   W96
// 002   ----------------------------------------
 BYTE   W96
// 003   ----------------------------------------
 BYTE   W96
// 004   ----------------------------------------
 BYTE   W96
// 005   ----------------------------------------
 BYTE   W96
// 006   ----------------------------------------
 BYTE   W96
// 007   ----------------------------------------
 BYTE   W96
// 008   ----------------------------------------
 BYTE   W96
// 009   ----------------------------------------
 BYTE   W96
// 010   ----------------------------------------
 BYTE   W96
// 011   ----------------------------------------
 BYTE   W96
// 012   ----------------------------------------
 BYTE   W96
// 013   ----------------------------------------
 BYTE   W96
// 014   ----------------------------------------
 BYTE   W96
// 015   ----------------------------------------
 BYTE   W96
// 016   ----------------------------------------
 BYTE   W96
// 017   ----------------------------------------
 BYTE   W96
// 018   ----------------------------------------
 BYTE   W96
// 019   ----------------------------------------
 BYTE   W96
// 020   ----------------------------------------
 BYTE   W96
// 021   ----------------------------------------
 BYTE   W96
// 022   ----------------------------------------
 BYTE   W96
// 023   ----------------------------------------
 BYTE   W96
// 024   ----------------------------------------
 BYTE   W96
// 025   ----------------------------------------
 BYTE   W96
// 026   ----------------------------------------
 BYTE   W30
 BYTE   VOL   60*FFMysticQuestVolcanoFeier_mvl/mxv
 BYTE   N36  Bn1  v076
 BYTE   W36
 BYTE   Fs2
 BYTE   W30
// 027   ----------------------------------------
Label_4_55F626:
 BYTE   W06
 BYTE   N36  Bn2  v076
 BYTE   W36
 BYTE   N42  Bn3
 BYTE   W42
 BYTE   VOL   0*FFMysticQuestVolcanoFeier_mvl/mxv
 BYTE   TIE  Cn2
 BYTE   W12
 BYTE   PEND 
// 028   ----------------------------------------
 BYTE   W96
// 029   ----------------------------------------
 BYTE   W30
 BYTE   EOT
 BYTE   VOL   60*FFMysticQuestVolcanoFeier_mvl/mxv
 BYTE   N12  Dn3
 BYTE   W12
 BYTE   Cn3
 BYTE   W12
 BYTE   N24  As2
 BYTE   W24
 BYTE   N12  Gs2
 BYTE   W12
 BYTE   As2
 BYTE   W06
// 030   ----------------------------------------
Label_4_55F646:
 BYTE   W06
 BYTE   N24  Fs2  v076
 BYTE   W24
 BYTE   N48  Fs3
 BYTE   W48
 BYTE   VOL   0*FFMysticQuestVolcanoFeier_mvl/mxv
 BYTE   TIE  Cn2
 BYTE   W18
 BYTE   PEND 
// 031   ----------------------------------------
 BYTE   W96
// 032   ----------------------------------------
 BYTE   W30
 BYTE   EOT
 BYTE   VOL   60*FFMysticQuestVolcanoFeier_mvl/mxv
 BYTE   N24  Bn2
 BYTE   W24
 BYTE   Fs3
 BYTE   W24
 BYTE   N12  En3
 BYTE   W12
 BYTE   Fs3
 BYTE   W06
// 033   ----------------------------------------
Label_4_55F663:
 BYTE   W06
 BYTE   N72  Bn3  v076
 BYTE   W72
 BYTE   VOL   0*FFMysticQuestVolcanoFeier_mvl/mxv
 BYTE   TIE  Cn2
 BYTE   W18
 BYTE   PEND 
// 034   ----------------------------------------
 BYTE   W96
// 035   ----------------------------------------
 BYTE   W30
 BYTE   EOT
 BYTE   VOL   60*FFMysticQuestVolcanoFeier_mvl/mxv
 BYTE   N12  Dn4
 BYTE   W12
 BYTE   As3
 BYTE   W12
 BYTE   Dn4
 BYTE   W12
 BYTE   Fs4
 BYTE   W12
 BYTE   Dn4
 BYTE   W12
 BYTE   As3
 BYTE   W06
// 036   ----------------------------------------
Label_4_55F680:
 BYTE   W06
 BYTE   N12  As4  v076
 BYTE   W12
 BYTE   Fs4
 BYTE   W12
 BYTE   As4
 BYTE   W12
 BYTE   N36  Cs5
 BYTE   W36
 BYTE   VOL   0*FFMysticQuestVolcanoFeier_mvl/mxv
 BYTE   TIE  Cn2
 BYTE   W18
 BYTE   PEND 
// 037   ----------------------------------------
 BYTE   W96
// 038   ----------------------------------------
 BYTE   W96
// 039   ----------------------------------------
 BYTE   W96
// 040   ----------------------------------------
 BYTE   W96
// 041   ----------------------------------------
 BYTE   W96
// 042   ----------------------------------------
 BYTE   W96
// 043   ----------------------------------------
 BYTE   W96
// 044   ----------------------------------------
 BYTE   W96
// 045   ----------------------------------------
 BYTE   W96
// 046   ----------------------------------------
 BYTE   W96
// 047   ----------------------------------------
 BYTE   W96
// 048   ----------------------------------------
 BYTE   W96
// 049   ----------------------------------------
 BYTE   W96
// 050   ----------------------------------------
 BYTE   W96
// 051   ----------------------------------------
 BYTE   W96
// 052   ----------------------------------------
 BYTE   W96
// 053   ----------------------------------------
 BYTE   W96
// 054   ----------------------------------------
 BYTE   W96
// 055   ----------------------------------------
 BYTE   W96
// 056   ----------------------------------------
 BYTE   W96
// 057   ----------------------------------------
 BYTE   W96
// 058   ----------------------------------------
 BYTE   W96
// 059   ----------------------------------------
 BYTE   W96
// 060   ----------------------------------------
 BYTE   W96
// 061   ----------------------------------------
 BYTE   W96
// 062   ----------------------------------------
 BYTE   W96
// 063   ----------------------------------------
 BYTE   W96
// 064   ----------------------------------------
 BYTE   W96
// 065   ----------------------------------------
 BYTE   W96
// 066   ----------------------------------------
 BYTE   W78
 BYTE   EOT
 BYTE   VOL   60*FFMysticQuestVolcanoFeier_mvl/mxv
 BYTE   N36  Bn1
 BYTE   W18
// 067   ----------------------------------------
Label_4_55F6B6:
 BYTE   W18
 BYTE   N36  Fs2  v076
 BYTE   W36
 BYTE   Bn2
 BYTE   W36
 BYTE   N42  Bn3
 BYTE   W06
 BYTE   PEND 
// 068   ----------------------------------------
Label_4_55F6C1:
 BYTE   W36
 BYTE   VOL   0*FFMysticQuestVolcanoFeier_mvl/mxv
 BYTE   TIE  Cn2  v076
 BYTE   W60
 BYTE   PEND 
// 069   ----------------------------------------
 BYTE   W78
 BYTE   EOT
 BYTE   VOL   60*FFMysticQuestVolcanoFeier_mvl/mxv
 BYTE   N12  Dn3
 BYTE   W12
 BYTE   Cn3
 BYTE   W06
// 070   ----------------------------------------
Label_4_55F6D2:
 BYTE   W06
 BYTE   N24  As2  v076
 BYTE   W24
 BYTE   N12  Gs2
 BYTE   W12
 BYTE   As2
 BYTE   W12
 BYTE   N24  Fs2
 BYTE   W24
 BYTE   N48  Fs3
 BYTE   W18
 BYTE   PEND 
// 071   ----------------------------------------
Label_4_55F6E3:
 BYTE   W30
 BYTE   VOL   0*FFMysticQuestVolcanoFeier_mvl/mxv
 BYTE   TIE  Cn2  v076
 BYTE   W66
 BYTE   PEND 
// 072   ----------------------------------------
 BYTE   W78
 BYTE   EOT
 BYTE   VOL   60*FFMysticQuestVolcanoFeier_mvl/mxv
 BYTE   N24  Bn2
 BYTE   W18
// 073   ----------------------------------------
Label_4_55F6F2:
 BYTE   W06
 BYTE   N24  Fs3  v076
 BYTE   W24
 BYTE   N12  En3
 BYTE   W12
 BYTE   Fs3
 BYTE   W12
 BYTE   N72  Bn3
 BYTE   W42
 BYTE   PEND 
 BYTE   PATT
  POIN2 Label_4_55F6E3
// 074   ----------------------------------------
 BYTE   W78
 BYTE   EOT
 BYTE   Cn2
 BYTE   VOL   60*FFMysticQuestVolcanoFeier_mvl/mxv
 BYTE   N12  Dn4  v076
 BYTE   W12
 BYTE   As3
 BYTE   W06
// 075   ----------------------------------------
Label_4_55F710:
 BYTE   W06
 BYTE   N12  Dn4  v076
 BYTE   W12
 BYTE   Fs4
 BYTE   W12
 BYTE   Dn4
 BYTE   W12
 BYTE   As3
 BYTE   W12
 BYTE   As4
 BYTE   W12
 BYTE   Fs4
 BYTE   W12
 BYTE   As4
 BYTE   W12
 BYTE   N36  Cs5
 BYTE   W06
 BYTE   PEND 
 BYTE   PATT
  POIN2 Label_4_55F6E3
// 076   ----------------------------------------
 BYTE   W96
// 077   ----------------------------------------
 BYTE   W96
// 078   ----------------------------------------
 BYTE   W96
// 079   ----------------------------------------
 BYTE   W96
// 080   ----------------------------------------
 BYTE   W96
// 081   ----------------------------------------
 BYTE   W96
// 082   ----------------------------------------
 BYTE   W96
// 083   ----------------------------------------
 BYTE   W96
// 084   ----------------------------------------
 BYTE   W96
// 085   ----------------------------------------
 BYTE   W96
// 086   ----------------------------------------
 BYTE   W96
// 087   ----------------------------------------
 BYTE   W96
// 088   ----------------------------------------
 BYTE   W96
// 089   ----------------------------------------
 BYTE   W96
// 090   ----------------------------------------
 BYTE   W96
// 091   ----------------------------------------
 BYTE   W96
// 092   ----------------------------------------
 BYTE   W96
// 093   ----------------------------------------
 BYTE   W96
// 094   ----------------------------------------
 BYTE   W96
// 095   ----------------------------------------
 BYTE   W96
// 096   ----------------------------------------
 BYTE   W96
// 097   ----------------------------------------
 BYTE   W96
// 098   ----------------------------------------
 BYTE   W96
// 099   ----------------------------------------
 BYTE   W96
// 100   ----------------------------------------
 BYTE   W96
// 101   ----------------------------------------
 BYTE   W96
// 102   ----------------------------------------
 BYTE   W96
// 103   ----------------------------------------
 BYTE   W96
// 104   ----------------------------------------
 BYTE   W96
// 105   ----------------------------------------
 BYTE   W30
 BYTE   EOT
 BYTE   Cn2
 BYTE   VOL   60*FFMysticQuestVolcanoFeier_mvl/mxv
 BYTE   N36  Bn1  v076
 BYTE   W36
 BYTE   Fs2
 BYTE   W30
 BYTE   PATT
  POIN2 Label_4_55F626
// 106   ----------------------------------------
 BYTE   W96
// 107   ----------------------------------------
 BYTE   W30
 BYTE   EOT
 BYTE   Cn2
 BYTE   VOL   60*FFMysticQuestVolcanoFeier_mvl/mxv
 BYTE   N12  Dn3  v076
 BYTE   W12
 BYTE   Cn3
 BYTE   W12
 BYTE   N24  As2
 BYTE   W24
 BYTE   N12  Gs2
 BYTE   W12
 BYTE   As2
 BYTE   W06
 BYTE   PATT
  POIN2 Label_4_55F646
// 108   ----------------------------------------
 BYTE   W96
// 109   ----------------------------------------
 BYTE   W30
 BYTE   EOT
 BYTE   Cn2
 BYTE   VOL   60*FFMysticQuestVolcanoFeier_mvl/mxv
 BYTE   N24  Bn2  v076
 BYTE   W24
 BYTE   Fs3
 BYTE   W24
 BYTE   N12  En3
 BYTE   W12
 BYTE   Fs3
 BYTE   W06
 BYTE   PATT
  POIN2 Label_4_55F663
// 110   ----------------------------------------
 BYTE   W96
// 111   ----------------------------------------
 BYTE   W30
 BYTE   EOT
 BYTE   Cn2
 BYTE   VOL   60*FFMysticQuestVolcanoFeier_mvl/mxv
 BYTE   N12  Dn4  v076
 BYTE   W12
 BYTE   As3
 BYTE   W12
 BYTE   Dn4
 BYTE   W12
 BYTE   Fs4
 BYTE   W12
 BYTE   Dn4
 BYTE   W12
 BYTE   As3
 BYTE   W06
 BYTE   PATT
  POIN2 Label_4_55F680
// 112   ----------------------------------------
 BYTE   W96
// 113   ----------------------------------------
 BYTE   W96
// 114   ----------------------------------------
 BYTE   W96
// 115   ----------------------------------------
 BYTE   W96
// 116   ----------------------------------------
 BYTE   W96
// 117   ----------------------------------------
 BYTE   W96
// 118   ----------------------------------------
 BYTE   W96
// 119   ----------------------------------------
 BYTE   W96
// 120   ----------------------------------------
 BYTE   W96
// 121   ----------------------------------------
 BYTE   W96
// 122   ----------------------------------------
 BYTE   W96
// 123   ----------------------------------------
 BYTE   W96
// 124   ----------------------------------------
 BYTE   W96
// 125   ----------------------------------------
 BYTE   W96
// 126   ----------------------------------------
 BYTE   W96
// 127   ----------------------------------------
 BYTE   W96
// 128   ----------------------------------------
 BYTE   W96
// 129   ----------------------------------------
 BYTE   W96
// 130   ----------------------------------------
 BYTE   W96
// 131   ----------------------------------------
 BYTE   W96
// 132   ----------------------------------------
 BYTE   W96
// 133   ----------------------------------------
 BYTE   W96
// 134   ----------------------------------------
 BYTE   W96
// 135   ----------------------------------------
 BYTE   W96
// 136   ----------------------------------------
 BYTE   W96
// 137   ----------------------------------------
 BYTE   W96
// 138   ----------------------------------------
 BYTE   W96
// 139   ----------------------------------------
 BYTE   W96
// 140   ----------------------------------------
 BYTE   W96
// 141   ----------------------------------------
 BYTE   W78
 BYTE   EOT
 BYTE   Cn2
 BYTE   VOL   60*FFMysticQuestVolcanoFeier_mvl/mxv
 BYTE   N36  Bn1  v076
 BYTE   W18
 BYTE   PATT
  POIN2 Label_4_55F6B6
 BYTE   PATT
  POIN2 Label_4_55F6C1
// 142   ----------------------------------------
 BYTE   W78
 BYTE   EOT
 BYTE   Cn2
 BYTE   VOL   60*FFMysticQuestVolcanoFeier_mvl/mxv
 BYTE   N12  Dn3  v076
 BYTE   W12
 BYTE   Cn3
 BYTE   W06
 BYTE   PATT
  POIN2 Label_4_55F6D2
 BYTE   PATT
  POIN2 Label_4_55F6E3
// 143   ----------------------------------------
 BYTE   W78
 BYTE   EOT
 BYTE   Cn2
 BYTE   VOL   60*FFMysticQuestVolcanoFeier_mvl/mxv
 BYTE   N24  Bn2  v076
 BYTE   W18
 BYTE   PATT
  POIN2 Label_4_55F6F2
 BYTE   PATT
  POIN2 Label_4_55F6E3
// 144   ----------------------------------------
 BYTE   W78
 BYTE   EOT
 BYTE   Cn2
 BYTE   VOL   60*FFMysticQuestVolcanoFeier_mvl/mxv
 BYTE   N12  Dn4  v076
 BYTE   W12
 BYTE   As3
 BYTE   W06
 BYTE   PATT
  POIN2 Label_4_55F710
 BYTE   PATT
  POIN2 Label_4_55F6E3
// 145   ----------------------------------------
 BYTE   W96
// 146   ----------------------------------------
 BYTE   W96
// 147   ----------------------------------------
 BYTE   W96
// 148   ----------------------------------------
 BYTE   W96
// 149   ----------------------------------------
 BYTE   W96
// 150   ----------------------------------------
 BYTE   EOT
 BYTE   Cn2
 BYTE   FINE

//**************** Track 6 (Midi-Chn.5) ****************//

FFMysticQuestVolcanoFeier_006:
// 000   ----------------------------------------
 BYTE   KEYSH   FFMysticQuestVolcanoFeier_key+0
 BYTE   VOICE   77
 BYTE   W96
// 001   ----------------------------------------
 BYTE   W96
// 002   ----------------------------------------
 BYTE   W96
// 003   ----------------------------------------
 BYTE   W96
// 004   ----------------------------------------
 BYTE   W96
// 005   ----------------------------------------
 BYTE   W96
// 006   ----------------------------------------
 BYTE   W96
// 007   ----------------------------------------
 BYTE   W96
// 008   ----------------------------------------
 BYTE   W96
// 009   ----------------------------------------
 BYTE   W96
// 010   ----------------------------------------
 BYTE   W96
// 011   ----------------------------------------
 BYTE   W96
// 012   ----------------------------------------
 BYTE   W66
 BYTE   VOL   60*FFMysticQuestVolcanoFeier_mvl/mxv
 BYTE   N12  Bn3  v068
 BYTE   W12
 BYTE   N36  Gn4
 BYTE   W18
// 013   ----------------------------------------
Label_5_013E6F36:
 BYTE   W18
 BYTE   N12  Fs4  v068
 BYTE   W12
 BYTE   En4
 BYTE   W12
 BYTE   Dn4
 BYTE   W12
 BYTE   N72  En4
 BYTE   W42
 BYTE   PEND 
// 014   ----------------------------------------
Label_5_013E6F43:
 BYTE   W30
 BYTE   N12  As4  v068
 BYTE   W12
 BYTE   An4
 BYTE   W12
 BYTE   Gn4
 BYTE   W12
 BYTE   En4
 BYTE   W12
 BYTE   Dn4
 BYTE   W12
 BYTE   En4
 BYTE   W06
 BYTE   PEND 
// 015   ----------------------------------------
Label_5_013E6F53:
 BYTE   W06
 BYTE   N24  Bn3  v068
 BYTE   W24
 BYTE   En3
 BYTE   W24
 BYTE   N12  Gn3
 BYTE   W12
 BYTE   An3
 BYTE   W12
 BYTE   N36  Bn3
 BYTE   W18
 BYTE   PEND 
// 016   ----------------------------------------
Label_5_013E6F63:
 BYTE   W18
 BYTE   N36  Fs4  v068
 BYTE   W36
 BYTE   Ds4
 BYTE   W36
 BYTE   Bn4
 BYTE   W06
 BYTE   PEND 
// 017   ----------------------------------------
Label_5_013E6F6D:
 BYTE   W30
 BYTE   N24  Cn5  v068
 BYTE   W24
 BYTE   N12  Bn4
 BYTE   W12
 BYTE   An4
 BYTE   W12
 BYTE   Bn4
 BYTE   W12
 BYTE   Ds4
 BYTE   W06
 BYTE   PEND 
// 018   ----------------------------------------
Label_5_013E6F7C:
 BYTE   W06
 BYTE   N12  Bn3  v068
 BYTE   W12
 BYTE   As3
 BYTE   W12
 BYTE   Bn3
 BYTE   W12
 BYTE   N24  Fs4
 BYTE   W24
 BYTE   N12  Bn3
 BYTE   W12
 BYTE   N36  Gn4
 BYTE   W18
 BYTE   PEND 
// 019   ----------------------------------------
Label_5_013E6F8F:
 BYTE   W18
 BYTE   N12  En4  v068
 BYTE   W12
 BYTE   Ds4
 BYTE   W12
 BYTE   En4
 BYTE   W12
 BYTE   N24  Bn4
 BYTE   W24
 BYTE   En4
 BYTE   W18
 BYTE   PEND 
// 020   ----------------------------------------
Label_5_013E6F9E:
 BYTE   W06
 BYTE   N24  En5  v068
 BYTE   W24
 BYTE   As4
 BYTE   W24
 BYTE   N12  An4
 BYTE   W12
 BYTE   Gn4
 BYTE   W12
 BYTE   En4
 BYTE   W12
 BYTE   Dn4
 BYTE   W06
 BYTE   PEND 
// 021   ----------------------------------------
Label_5_013E6FAF:
 BYTE   W06
 BYTE   N72  En4  v068
 BYTE   W72
 BYTE   N12  Ds4
 BYTE   W12
 BYTE   Bn3
 BYTE   W06
 BYTE   PEND 
// 022   ----------------------------------------
Label_5_013E6FBA:
 BYTE   W06
 BYTE   N12  Fs3  v068
 BYTE   W12
 BYTE   Ds4
 BYTE   W12
 BYTE   Bn3
 BYTE   W12
 BYTE   En4
 BYTE   W12
 BYTE   N24  Ds4
 BYTE   W24
 BYTE   N48  Bn4
 BYTE   W18
 BYTE   PEND 
// 023   ----------------------------------------
Label_5_013E6FCC:
 BYTE   W30
 BYTE   N12  En5  v068
 BYTE   W12
 BYTE   Ds5
 BYTE   W12
 BYTE   Bn4
 BYTE   W12
 BYTE   Fs4
 BYTE   W12
 BYTE   Ds4
 BYTE   W12
 BYTE   Fs4
 BYTE   W06
 BYTE   PEND 
// 024   ----------------------------------------
Label_5_013E6FDC:
 BYTE   W06
 BYTE   N72  Bn4  v068
 BYTE   W72
 BYTE   VOL   0*FFMysticQuestVolcanoFeier_mvl/mxv
 BYTE   TIE  Cn3
 BYTE   W18
 BYTE   PEND 
// 025   ----------------------------------------
 BYTE   W96
// 026   ----------------------------------------
 BYTE   W96
// 027   ----------------------------------------
 BYTE   W96
// 028   ----------------------------------------
 BYTE   W96
// 029   ----------------------------------------
 BYTE   W96
// 030   ----------------------------------------
 BYTE   W96
// 031   ----------------------------------------
 BYTE   W96
// 032   ----------------------------------------
 BYTE   W96
// 033   ----------------------------------------
 BYTE   W96
// 034   ----------------------------------------
 BYTE   W96
// 035   ----------------------------------------
 BYTE   W96
// 036   ----------------------------------------
 BYTE   W96
// 037   ----------------------------------------
 BYTE   W96
// 038   ----------------------------------------
 BYTE   W96
// 039   ----------------------------------------
 BYTE   W96
// 040   ----------------------------------------
 BYTE   W96
// 041   ----------------------------------------
 BYTE   W96
// 042   ----------------------------------------
 BYTE   W96
// 043   ----------------------------------------
 BYTE   W96
// 044   ----------------------------------------
 BYTE   W96
// 045   ----------------------------------------
 BYTE   W96
// 046   ----------------------------------------
 BYTE   W96
// 047   ----------------------------------------
 BYTE   W96
// 048   ----------------------------------------
 BYTE   W96
// 049   ----------------------------------------
 BYTE   W96
// 050   ----------------------------------------
 BYTE   W96
// 051   ----------------------------------------
 BYTE   W96
// 052   ----------------------------------------
 BYTE   W96
// 053   ----------------------------------------
 BYTE   W18
 BYTE   EOT
 BYTE   VOL   60*FFMysticQuestVolcanoFeier_mvl/mxv
 BYTE   N12  Bn3
 BYTE   W12
 BYTE   N36  Gn4
 BYTE   W36
 BYTE   N12  Fs4
 BYTE   W12
 BYTE   En4
 BYTE   W12
 BYTE   Dn4
 BYTE   W06
// 054   ----------------------------------------
Label_5_013E7014:
 BYTE   W06
 BYTE   N72  En4  v068
 BYTE   W72
 BYTE   N12  As4
 BYTE   W12
 BYTE   An4
 BYTE   W06
 BYTE   PEND 
// 055   ----------------------------------------
Label_5_013E701F:
 BYTE   W06
 BYTE   N12  Gn4  v068
 BYTE   W12
 BYTE   En4
 BYTE   W12
 BYTE   Dn4
 BYTE   W12
 BYTE   En4
 BYTE   W12
 BYTE   N24  Bn3
 BYTE   W24
 BYTE   En3
 BYTE   W18
 BYTE   PEND 
// 056   ----------------------------------------
Label_5_013E7030:
 BYTE   W06
 BYTE   N12  Gn3  v068
 BYTE   W12
 BYTE   An3
 BYTE   W12
 BYTE   N36  Bn3
 BYTE   W36
 BYTE   Fs4
 BYTE   W30
 BYTE   PEND 
// 057   ----------------------------------------
Label_5_013E703D:
 BYTE   W06
 BYTE   N36  Ds4  v068
 BYTE   W36
 BYTE   Bn4
 BYTE   W36
 BYTE   N24  Cn5
 BYTE   W18
 BYTE   PEND 
// 058   ----------------------------------------
Label_5_013E7048:
 BYTE   W06
 BYTE   N12  Bn4  v068
 BYTE   W12
 BYTE   An4
 BYTE   W12
 BYTE   Bn4
 BYTE   W12
 BYTE   Ds4
 BYTE   W12
 BYTE   Bn3
 BYTE   W12
 BYTE   As3
 BYTE   W12
 BYTE   Bn3
 BYTE   W12
 BYTE   N24  Fs4
 BYTE   W06
 BYTE   PEND 
// 059   ----------------------------------------
Label_5_013E705D:
 BYTE   W18
 BYTE   N12  Bn3  v068
 BYTE   W12
 BYTE   N36  Gn4
 BYTE   W36
 BYTE   N12  En4
 BYTE   W12
 BYTE   Ds4
 BYTE   W12
 BYTE   En4
 BYTE   W06
 BYTE   PEND 
// 060   ----------------------------------------
Label_5_013E706D:
 BYTE   W06
 BYTE   N24  Bn4  v068
 BYTE   W24
 BYTE   En4
 BYTE   W24
 BYTE   En5
 BYTE   W24
 BYTE   As4
 BYTE   W18
 BYTE   PEND 
// 061   ----------------------------------------
Label_5_013E7079:
 BYTE   W06
 BYTE   N12  An4  v068
 BYTE   W12
 BYTE   Gn4
 BYTE   W12
 BYTE   En4
 BYTE   W12
 BYTE   Dn4
 BYTE   W12
 BYTE   N72  En4
 BYTE   W42
 BYTE   PEND 
// 062   ----------------------------------------
Label_5_013E7088:
 BYTE   W30
 BYTE   N12  Ds4  v068
 BYTE   W12
 BYTE   Bn3
 BYTE   W12
 BYTE   Fs3
 BYTE   W12
 BYTE   Ds4
 BYTE   W12
 BYTE   Bn3
 BYTE   W12
 BYTE   En4
 BYTE   W06
 BYTE   PEND 
// 063   ----------------------------------------
Label_5_013E7098:
 BYTE   W06
 BYTE   N24  Ds4  v068
 BYTE   W24
 BYTE   N48  Bn4
 BYTE   W48
 BYTE   N12  En5
 BYTE   W12
 BYTE   Ds5
 BYTE   W06
 BYTE   PEND 
// 064   ----------------------------------------
Label_5_013E70A6:
 BYTE   W06
 BYTE   N12  Bn4  v068
 BYTE   W12
 BYTE   Fs4
 BYTE   W12
 BYTE   Ds4
 BYTE   W12
 BYTE   Fs4
 BYTE   W12
 BYTE   N72  Bn4
 BYTE   W42
 BYTE   PEND 
// 065   ----------------------------------------
Label_5_013E70B5:
 BYTE   W30
 BYTE   VOL   0*FFMysticQuestVolcanoFeier_mvl/mxv
 BYTE   TIE  Cn3  v068
 BYTE   W66
 BYTE   PEND 
// 066   ----------------------------------------
 BYTE   W96
// 067   ----------------------------------------
 BYTE   W96
// 068   ----------------------------------------
 BYTE   W96
// 069   ----------------------------------------
 BYTE   W96
// 070   ----------------------------------------
 BYTE   W96
// 071   ----------------------------------------
 BYTE   W96
// 072   ----------------------------------------
 BYTE   W96
// 073   ----------------------------------------
 BYTE   W96
// 074   ----------------------------------------
 BYTE   W96
// 075   ----------------------------------------
 BYTE   W96
// 076   ----------------------------------------
 BYTE   W96
// 077   ----------------------------------------
 BYTE   W96
// 078   ----------------------------------------
 BYTE   W96
// 079   ----------------------------------------
 BYTE   W96
// 080   ----------------------------------------
 BYTE   W96
// 081   ----------------------------------------
 BYTE   W96
// 082   ----------------------------------------
 BYTE   W96
// 083   ----------------------------------------
 BYTE   W96
// 084   ----------------------------------------
 BYTE   W96
// 085   ----------------------------------------
 BYTE   W96
// 086   ----------------------------------------
 BYTE   W96
// 087   ----------------------------------------
 BYTE   W96
// 088   ----------------------------------------
 BYTE   W96
// 089   ----------------------------------------
 BYTE   W96
// 090   ----------------------------------------
 BYTE   W96
// 091   ----------------------------------------
 BYTE   W96
// 092   ----------------------------------------
 BYTE   W96
// 093   ----------------------------------------
 BYTE   W66
 BYTE   EOT
 BYTE   VOL   60*FFMysticQuestVolcanoFeier_mvl/mxv
 BYTE   N12  Bn3
 BYTE   W12
 BYTE   N36  Gn4
 BYTE   W18
 BYTE   PATT
  POIN2 Label_5_013E6F36
 BYTE   PATT
  POIN2 Label_5_013E6F43
 BYTE   PATT
  POIN2 Label_5_013E6F53
 BYTE   PATT
  POIN2 Label_5_013E6F63
 BYTE   PATT
  POIN2 Label_5_013E6F6D
 BYTE   PATT
  POIN2 Label_5_013E6F7C
 BYTE   PATT
  POIN2 Label_5_013E6F8F
 BYTE   PATT
  POIN2 Label_5_013E6F9E
 BYTE   PATT
  POIN2 Label_5_013E6FAF
 BYTE   PATT
  POIN2 Label_5_013E6FBA
 BYTE   PATT
  POIN2 Label_5_013E6FCC
 BYTE   PATT
  POIN2 Label_5_013E6FDC
// 094   ----------------------------------------
 BYTE   W96
// 095   ----------------------------------------
 BYTE   W96
// 096   ----------------------------------------
 BYTE   W96
// 097   ----------------------------------------
 BYTE   W96
// 098   ----------------------------------------
 BYTE   W96
// 099   ----------------------------------------
 BYTE   W96
// 100   ----------------------------------------
 BYTE   W96
// 101   ----------------------------------------
 BYTE   W96
// 102   ----------------------------------------
 BYTE   W96
// 103   ----------------------------------------
 BYTE   W96
// 104   ----------------------------------------
 BYTE   W96
// 105   ----------------------------------------
 BYTE   W96
// 106   ----------------------------------------
 BYTE   W96
// 107   ----------------------------------------
 BYTE   W96
// 108   ----------------------------------------
 BYTE   W96
// 109   ----------------------------------------
 BYTE   W96
// 110   ----------------------------------------
 BYTE   W96
// 111   ----------------------------------------
 BYTE   W96
// 112   ----------------------------------------
 BYTE   W96
// 113   ----------------------------------------
 BYTE   W96
// 114   ----------------------------------------
 BYTE   W96
// 115   ----------------------------------------
 BYTE   W96
// 116   ----------------------------------------
 BYTE   W96
// 117   ----------------------------------------
 BYTE   W96
// 118   ----------------------------------------
 BYTE   W96
// 119   ----------------------------------------
 BYTE   W96
// 120   ----------------------------------------
 BYTE   W96
// 121   ----------------------------------------
 BYTE   W96
// 122   ----------------------------------------
 BYTE   W18
 BYTE   EOT
 BYTE   Cn3
 BYTE   VOL   60*FFMysticQuestVolcanoFeier_mvl/mxv
 BYTE   N12  Bn3  v068
 BYTE   W12
 BYTE   N36  Gn4
 BYTE   W36
 BYTE   N12  Fs4
 BYTE   W12
 BYTE   En4
 BYTE   W12
 BYTE   Dn4
 BYTE   W06
 BYTE   PATT
  POIN2 Label_5_013E7014
 BYTE   PATT
  POIN2 Label_5_013E701F
 BYTE   PATT
  POIN2 Label_5_013E7030
 BYTE   PATT
  POIN2 Label_5_013E703D
 BYTE   PATT
  POIN2 Label_5_013E7048
 BYTE   PATT
  POIN2 Label_5_013E705D
 BYTE   PATT
  POIN2 Label_5_013E706D
 BYTE   PATT
  POIN2 Label_5_013E7079
 BYTE   PATT
  POIN2 Label_5_013E7088
 BYTE   PATT
  POIN2 Label_5_013E7098
 BYTE   PATT
  POIN2 Label_5_013E70A6
 BYTE   PATT
  POIN2 Label_5_013E70B5
// 123   ----------------------------------------
 BYTE   W96
// 124   ----------------------------------------
 BYTE   W96
// 125   ----------------------------------------
 BYTE   W96
// 126   ----------------------------------------
 BYTE   W96
// 127   ----------------------------------------
 BYTE   W96
// 128   ----------------------------------------
 BYTE   W96
// 129   ----------------------------------------
 BYTE   W96
// 130   ----------------------------------------
 BYTE   W96
// 131   ----------------------------------------
 BYTE   W96
// 132   ----------------------------------------
 BYTE   W96
// 133   ----------------------------------------
 BYTE   W96
// 134   ----------------------------------------
 BYTE   W96
// 135   ----------------------------------------
 BYTE   W96
// 136   ----------------------------------------
 BYTE   W96
// 137   ----------------------------------------
 BYTE   W96
// 138   ----------------------------------------
 BYTE   W96
// 139   ----------------------------------------
 BYTE   W96
// 140   ----------------------------------------
 BYTE   EOT
 BYTE   Cn3
 BYTE   FINE

//**************** Track 7 (Midi-Chn.6) ****************//

FFMysticQuestVolcanoFeier_007:
// 000   ----------------------------------------
 BYTE   KEYSH   FFMysticQuestVolcanoFeier_key+0
 BYTE   VOICE   14
 BYTE   W96
// 001   ----------------------------------------
 BYTE   W96
// 002   ----------------------------------------
 BYTE   W96
// 003   ----------------------------------------
 BYTE   W96
// 004   ----------------------------------------
 BYTE   W96
// 005   ----------------------------------------
 BYTE   W96
// 006   ----------------------------------------
 BYTE   W96
// 007   ----------------------------------------
 BYTE   W96
// 008   ----------------------------------------
 BYTE   W96
// 009   ----------------------------------------
 BYTE   W96
// 010   ----------------------------------------
 BYTE   W96
// 011   ----------------------------------------
 BYTE   W96
// 012   ----------------------------------------
 BYTE   W96
// 013   ----------------------------------------
 BYTE   W96
// 014   ----------------------------------------
 BYTE   W96
// 015   ----------------------------------------
 BYTE   W96
// 016   ----------------------------------------
 BYTE   W96
// 017   ----------------------------------------
 BYTE   W96
// 018   ----------------------------------------
 BYTE   W96
// 019   ----------------------------------------
 BYTE   W96
// 020   ----------------------------------------
 BYTE   W96
// 021   ----------------------------------------
 BYTE   W96
// 022   ----------------------------------------
 BYTE   W96
// 023   ----------------------------------------
 BYTE   W96
// 024   ----------------------------------------
 BYTE   W78
 BYTE   VOL   60*FFMysticQuestVolcanoFeier_mvl/mxv
 BYTE   N12  Bn3  v100
 BYTE   W06
 BYTE   VOL   0*FFMysticQuestVolcanoFeier_mvl/mxv
 BYTE   W06
 BYTE   Gs4
 BYTE   N12  En3
 BYTE   W06
// 025   ----------------------------------------
Label_6_013E71CA:
 BYTE   VOL   0*FFMysticQuestVolcanoFeier_mvl/mxv
 BYTE   W06
 BYTE   Gs4
 BYTE   N12  As3  v100
 BYTE   W06
 BYTE   VOL   0*FFMysticQuestVolcanoFeier_mvl/mxv
 BYTE   W06
 BYTE   Gs4
 BYTE   N12  En3
 BYTE   W06
 BYTE   VOL   0*FFMysticQuestVolcanoFeier_mvl/mxv
 BYTE   W06
 BYTE   Gs4
 BYTE   N12  Gn3
 BYTE   W06
 BYTE   VOL   0*FFMysticQuestVolcanoFeier_mvl/mxv
 BYTE   W06
 BYTE   Gs4
 BYTE   N12  En3
 BYTE   W06
 BYTE   VOL   0*FFMysticQuestVolcanoFeier_mvl/mxv
 BYTE   W06
 BYTE   Gs4
 BYTE   N12  Cn4
 BYTE   W06
 BYTE   VOL   0*FFMysticQuestVolcanoFeier_mvl/mxv
 BYTE   W06
 BYTE   Gs4
 BYTE   N12  En3
 BYTE   W06
 BYTE   VOL   0*FFMysticQuestVolcanoFeier_mvl/mxv
 BYTE   W06
 BYTE   Gs4
 BYTE   N12  Bn3
 BYTE   W06
 BYTE   VOL   0*FFMysticQuestVolcanoFeier_mvl/mxv
 BYTE   W06
 BYTE   Gs4
 BYTE   N12  En3
 BYTE   W06
 BYTE   PEND 
// 026   ----------------------------------------
Label_6_013E7204:
 BYTE   VOL   0*FFMysticQuestVolcanoFeier_mvl/mxv
 BYTE   W06
 BYTE   Gs4
 BYTE   N12  As3  v100
 BYTE   W06
 BYTE   VOL   0*FFMysticQuestVolcanoFeier_mvl/mxv
 BYTE   W06
 BYTE   Gs4
 BYTE   N12  En3
 BYTE   W06
 BYTE   VOL   0*FFMysticQuestVolcanoFeier_mvl/mxv
 BYTE   W06
 BYTE   Gs4
 BYTE   N24  Bn3
 BYTE   W06
 BYTE   VOL   0*FFMysticQuestVolcanoFeier_mvl/mxv
 BYTE   W18
 BYTE   Gs4
 BYTE   N24
 BYTE   W06
 BYTE   VOL   0*FFMysticQuestVolcanoFeier_mvl/mxv
 BYTE   W18
 BYTE   Gs4
 BYTE   N12
 BYTE   W06
 BYTE   VOL   0*FFMysticQuestVolcanoFeier_mvl/mxv
 BYTE   W06
 BYTE   Gs4
 BYTE   N12
 BYTE   W06
 BYTE   PEND 
// 027   ----------------------------------------
Label_6_013E722D:
 BYTE   VOL   0*FFMysticQuestVolcanoFeier_mvl/mxv
 BYTE   W06
 BYTE   Gs4
 BYTE   N24  Bn3  v100
 BYTE   W06
 BYTE   VOL   0*FFMysticQuestVolcanoFeier_mvl/mxv
 BYTE   W18
 BYTE   Gs4
 BYTE   N24
 BYTE   W06
 BYTE   VOL   0*FFMysticQuestVolcanoFeier_mvl/mxv
 BYTE   W18
 BYTE   Gs4
 BYTE   N12
 BYTE   W06
 BYTE   VOL   0*FFMysticQuestVolcanoFeier_mvl/mxv
 BYTE   W06
 BYTE   Gs4
 BYTE   N12
 BYTE   W06
 BYTE   VOL   0*FFMysticQuestVolcanoFeier_mvl/mxv
 BYTE   W06
 BYTE   Gs4
 BYTE   N12
 BYTE   W06
 BYTE   VOL   0*FFMysticQuestVolcanoFeier_mvl/mxv
 BYTE   W06
 BYTE   Gs4
 BYTE   N12  En3
 BYTE   W06
 BYTE   PEND 
 BYTE   PATT
  POIN2 Label_6_013E71CA
// 028   ----------------------------------------
Label_6_013E725A:
 BYTE   VOL   0*FFMysticQuestVolcanoFeier_mvl/mxv
 BYTE   W06
 BYTE   Gs4
 BYTE   N12  As3  v100
 BYTE   W06
 BYTE   VOL   0*FFMysticQuestVolcanoFeier_mvl/mxv
 BYTE   W06
 BYTE   Gs4
 BYTE   N12  En3
 BYTE   W06
 BYTE   VOL   0*FFMysticQuestVolcanoFeier_mvl/mxv
 BYTE   W06
 BYTE   Gs4
 BYTE   N24  Fs3
 BYTE   W06
 BYTE   VOL   0*FFMysticQuestVolcanoFeier_mvl/mxv
 BYTE   W18
 BYTE   Gs4
 BYTE   N24
 BYTE   W06
 BYTE   VOL   0*FFMysticQuestVolcanoFeier_mvl/mxv
 BYTE   W18
 BYTE   Gs4
 BYTE   N12
 BYTE   W06
 BYTE   VOL   0*FFMysticQuestVolcanoFeier_mvl/mxv
 BYTE   W06
 BYTE   Gs4
 BYTE   N12
 BYTE   W06
 BYTE   PEND 
// 029   ----------------------------------------
Label_6_013E7283:
 BYTE   VOL   0*FFMysticQuestVolcanoFeier_mvl/mxv
 BYTE   W06
 BYTE   Gs4
 BYTE   N24  Cs3  v100
 BYTE   W06
 BYTE   VOL   0*FFMysticQuestVolcanoFeier_mvl/mxv
 BYTE   W18
 BYTE   Gs4
 BYTE   N24
 BYTE   W06
 BYTE   VOL   0*FFMysticQuestVolcanoFeier_mvl/mxv
 BYTE   W18
 BYTE   Gs4
 BYTE   N12
 BYTE   W06
 BYTE   VOL   0*FFMysticQuestVolcanoFeier_mvl/mxv
 BYTE   W06
 BYTE   Gs4
 BYTE   N12
 BYTE   W06
 BYTE   VOL   0*FFMysticQuestVolcanoFeier_mvl/mxv
 BYTE   W06
 BYTE   Gs4
 BYTE   N12  Bn3
 BYTE   W06
 BYTE   VOL   0*FFMysticQuestVolcanoFeier_mvl/mxv
 BYTE   W06
 BYTE   Gs4
 BYTE   N12  En3
 BYTE   W06
 BYTE   PEND 
 BYTE   PATT
  POIN2 Label_6_013E71CA
// 030   ----------------------------------------
Label_6_013E72B1:
 BYTE   W06
 BYTE   N12  As3  v100
 BYTE   W06
 BYTE   VOL   0*FFMysticQuestVolcanoFeier_mvl/mxv
 BYTE   W06
 BYTE   Gs4
 BYTE   N12  En3
 BYTE   W06
 BYTE   VOL   0*FFMysticQuestVolcanoFeier_mvl/mxv
 BYTE   W06
 BYTE   Gs4
 BYTE   N24  Bn3
 BYTE   W06
 BYTE   VOL   0*FFMysticQuestVolcanoFeier_mvl/mxv
 BYTE   W18
 BYTE   Gs4
 BYTE   N24
 BYTE   W06
 BYTE   VOL   0*FFMysticQuestVolcanoFeier_mvl/mxv
 BYTE   W18
 BYTE   Gs4
 BYTE   N12
 BYTE   W06
 BYTE   VOL   0*FFMysticQuestVolcanoFeier_mvl/mxv
 BYTE   W06
 BYTE   Gs4
 BYTE   N12
 BYTE   W06
 BYTE   PEND 
 BYTE   PATT
  POIN2 Label_6_013E722D
 BYTE   PATT
  POIN2 Label_6_013E71CA
 BYTE   PATT
  POIN2 Label_6_013E725A
// 031   ----------------------------------------
Label_6_013E72E6:
 BYTE   VOL   0*FFMysticQuestVolcanoFeier_mvl/mxv
 BYTE   W06
 BYTE   Gs4
 BYTE   N24  Cs3  v100
 BYTE   W06
 BYTE   VOL   0*FFMysticQuestVolcanoFeier_mvl/mxv
 BYTE   W18
 BYTE   Gs4
 BYTE   N24
 BYTE   W06
 BYTE   VOL   0*FFMysticQuestVolcanoFeier_mvl/mxv
 BYTE   W18
 BYTE   Gs4
 BYTE   N12
 BYTE   W06
 BYTE   VOL   0*FFMysticQuestVolcanoFeier_mvl/mxv
 BYTE   W06
 BYTE   Gs4
 BYTE   TIE
 BYTE   W06
 BYTE   VOL   0*FFMysticQuestVolcanoFeier_mvl/mxv
 BYTE   W24
 BYTE   PEND 
// 032   ----------------------------------------
 BYTE   W96
// 033   ----------------------------------------
 BYTE   W96
// 034   ----------------------------------------
 BYTE   W96
// 035   ----------------------------------------
 BYTE   W96
// 036   ----------------------------------------
 BYTE   W96
// 037   ----------------------------------------
 BYTE   W96
// 038   ----------------------------------------
 BYTE   W96
// 039   ----------------------------------------
 BYTE   W96
// 040   ----------------------------------------
 BYTE   W96
// 041   ----------------------------------------
 BYTE   W96
// 042   ----------------------------------------
 BYTE   W96
// 043   ----------------------------------------
 BYTE   W96
// 044   ----------------------------------------
 BYTE   W96
// 045   ----------------------------------------
 BYTE   W96
// 046   ----------------------------------------
 BYTE   W96
// 047   ----------------------------------------
 BYTE   W96
// 048   ----------------------------------------
 BYTE   W96
// 049   ----------------------------------------
 BYTE   W96
// 050   ----------------------------------------
 BYTE   W96
// 051   ----------------------------------------
 BYTE   W96
// 052   ----------------------------------------
 BYTE   W96
// 053   ----------------------------------------
 BYTE   W96
// 054   ----------------------------------------
 BYTE   W96
// 055   ----------------------------------------
 BYTE   W96
// 056   ----------------------------------------
 BYTE   W96
// 057   ----------------------------------------
 BYTE   W96
// 058   ----------------------------------------
 BYTE   W96
// 059   ----------------------------------------
 BYTE   W96
// 060   ----------------------------------------
 BYTE   W30
 BYTE   EOT
 BYTE   VOL   60*FFMysticQuestVolcanoFeier_mvl/mxv
 BYTE   N12  Bn3
 BYTE   W06
 BYTE   VOL   0*FFMysticQuestVolcanoFeier_mvl/mxv
 BYTE   W06
 BYTE   Gs4
 BYTE   N12  En3
 BYTE   W06
 BYTE   VOL   0*FFMysticQuestVolcanoFeier_mvl/mxv
 BYTE   W06
 BYTE   Gs4
 BYTE   N12  As3
 BYTE   W06
 BYTE   VOL   0*FFMysticQuestVolcanoFeier_mvl/mxv
 BYTE   W06
 BYTE   Gs4
 BYTE   N12  En3
 BYTE   W06
 BYTE   VOL   0*FFMysticQuestVolcanoFeier_mvl/mxv
 BYTE   W06
 BYTE   Gs4
 BYTE   N12  Gn3
 BYTE   W06
 BYTE   VOL   0*FFMysticQuestVolcanoFeier_mvl/mxv
 BYTE   W06
 BYTE   Gs4
 BYTE   N12  En3
 BYTE   W06
// 061   ----------------------------------------
Label_6_013E734A:
 BYTE   VOL   0*FFMysticQuestVolcanoFeier_mvl/mxv
 BYTE   W06
 BYTE   Gs4
 BYTE   N12  Cn4  v100
 BYTE   W06
 BYTE   VOL   0*FFMysticQuestVolcanoFeier_mvl/mxv
 BYTE   W06
 BYTE   Gs4
 BYTE   N12  En3
 BYTE   W06
 BYTE   VOL   0*FFMysticQuestVolcanoFeier_mvl/mxv
 BYTE   W06
 BYTE   Gs4
 BYTE   N12  Bn3
 BYTE   W06
 BYTE   VOL   0*FFMysticQuestVolcanoFeier_mvl/mxv
 BYTE   W06
 BYTE   Gs4
 BYTE   N12  En3
 BYTE   W06
 BYTE   VOL   0*FFMysticQuestVolcanoFeier_mvl/mxv
 BYTE   W06
 BYTE   Gs4
 BYTE   N12  As3
 BYTE   W06
 BYTE   VOL   0*FFMysticQuestVolcanoFeier_mvl/mxv
 BYTE   W06
 BYTE   Gs4
 BYTE   N12  En3
 BYTE   W06
 BYTE   VOL   0*FFMysticQuestVolcanoFeier_mvl/mxv
 BYTE   W06
 BYTE   Gs4
 BYTE   N24  Bn3
 BYTE   W06
 BYTE   VOL   0*FFMysticQuestVolcanoFeier_mvl/mxv
 BYTE   W12
 BYTE   PEND 
// 062   ----------------------------------------
Label_6_013E7380:
 BYTE   W06
 BYTE   VOL   60*FFMysticQuestVolcanoFeier_mvl/mxv
 BYTE   N24  Bn3  v100
 BYTE   W06
 BYTE   VOL   0*FFMysticQuestVolcanoFeier_mvl/mxv
 BYTE   W18
 BYTE   Gs4
 BYTE   N12
 BYTE   W06
 BYTE   VOL   0*FFMysticQuestVolcanoFeier_mvl/mxv
 BYTE   W06
 BYTE   Gs4
 BYTE   N12
 BYTE   W06
 BYTE   VOL   0*FFMysticQuestVolcanoFeier_mvl/mxv
 BYTE   W06
 BYTE   Gs4
 BYTE   N24
 BYTE   W06
 BYTE   VOL   0*FFMysticQuestVolcanoFeier_mvl/mxv
 BYTE   W18
 BYTE   Gs4
 BYTE   N24
 BYTE   W06
 BYTE   VOL   0*FFMysticQuestVolcanoFeier_mvl/mxv
 BYTE   W12
 BYTE   PEND 
// 063   ----------------------------------------
Label_6_013E73A3:
 BYTE   W06
 BYTE   VOL   60*FFMysticQuestVolcanoFeier_mvl/mxv
 BYTE   N12  Bn3  v100
 BYTE   W06
 BYTE   VOL   0*FFMysticQuestVolcanoFeier_mvl/mxv
 BYTE   W06
 BYTE   Gs4
 BYTE   N12
 BYTE   W06
 BYTE   VOL   0*FFMysticQuestVolcanoFeier_mvl/mxv
 BYTE   W06
 BYTE   Gs4
 BYTE   N12
 BYTE   W06
 BYTE   VOL   0*FFMysticQuestVolcanoFeier_mvl/mxv
 BYTE   W06
 BYTE   Gs4
 BYTE   N12  En3
 BYTE   W06
 BYTE   VOL   0*FFMysticQuestVolcanoFeier_mvl/mxv
 BYTE   W06
 BYTE   Gs4
 BYTE   N12  As3
 BYTE   W06
 BYTE   VOL   0*FFMysticQuestVolcanoFeier_mvl/mxv
 BYTE   W06
 BYTE   Gs4
 BYTE   N12  En3
 BYTE   W06
 BYTE   VOL   0*FFMysticQuestVolcanoFeier_mvl/mxv
 BYTE   W06
 BYTE   Gs4
 BYTE   N12  Gn3
 BYTE   W06
 BYTE   VOL   0*FFMysticQuestVolcanoFeier_mvl/mxv
 BYTE   W06
 BYTE   Gs4
 BYTE   N12  En3
 BYTE   W06
 BYTE   PEND 
// 064   ----------------------------------------
Label_6_013E73DA:
 BYTE   VOL   0*FFMysticQuestVolcanoFeier_mvl/mxv
 BYTE   W06
 BYTE   Gs4
 BYTE   N12  Cn4  v100
 BYTE   W06
 BYTE   VOL   0*FFMysticQuestVolcanoFeier_mvl/mxv
 BYTE   W06
 BYTE   Gs4
 BYTE   N12  En3
 BYTE   W06
 BYTE   VOL   0*FFMysticQuestVolcanoFeier_mvl/mxv
 BYTE   W06
 BYTE   Gs4
 BYTE   N12  Bn3
 BYTE   W06
 BYTE   VOL   0*FFMysticQuestVolcanoFeier_mvl/mxv
 BYTE   W06
 BYTE   Gs4
 BYTE   N12  En3
 BYTE   W06
 BYTE   VOL   0*FFMysticQuestVolcanoFeier_mvl/mxv
 BYTE   W06
 BYTE   Gs4
 BYTE   N12  As3
 BYTE   W06
 BYTE   VOL   0*FFMysticQuestVolcanoFeier_mvl/mxv
 BYTE   W06
 BYTE   Gs4
 BYTE   N12  En3
 BYTE   W06
 BYTE   VOL   0*FFMysticQuestVolcanoFeier_mvl/mxv
 BYTE   W06
 BYTE   Gs4
 BYTE   N24  Fs3
 BYTE   W06
 BYTE   VOL   0*FFMysticQuestVolcanoFeier_mvl/mxv
 BYTE   W12
 BYTE   PEND 
// 065   ----------------------------------------
Label_6_013E7410:
 BYTE   W06
 BYTE   VOL   60*FFMysticQuestVolcanoFeier_mvl/mxv
 BYTE   N24  Fs3  v100
 BYTE   W06
 BYTE   VOL   0*FFMysticQuestVolcanoFeier_mvl/mxv
 BYTE   W18
 BYTE   Gs4
 BYTE   N12
 BYTE   W06
 BYTE   VOL   0*FFMysticQuestVolcanoFeier_mvl/mxv
 BYTE   W06
 BYTE   Gs4
 BYTE   N12
 BYTE   W06
 BYTE   VOL   0*FFMysticQuestVolcanoFeier_mvl/mxv
 BYTE   W06
 BYTE   Gs4
 BYTE   N24  Cs3
 BYTE   W06
 BYTE   VOL   0*FFMysticQuestVolcanoFeier_mvl/mxv
 BYTE   W18
 BYTE   Gs4
 BYTE   N24
 BYTE   W06
 BYTE   VOL   0*FFMysticQuestVolcanoFeier_mvl/mxv
 BYTE   W12
 BYTE   PEND 
// 066   ----------------------------------------
Label_6_013E7434:
 BYTE   W06
 BYTE   VOL   60*FFMysticQuestVolcanoFeier_mvl/mxv
 BYTE   N12  Cs3  v100
 BYTE   W06
 BYTE   VOL   0*FFMysticQuestVolcanoFeier_mvl/mxv
 BYTE   W06
 BYTE   Gs4
 BYTE   N12
 BYTE   W06
 BYTE   VOL   0*FFMysticQuestVolcanoFeier_mvl/mxv
 BYTE   W06
 BYTE   Gs4
 BYTE   N12  Bn3
 BYTE   W06
 BYTE   VOL   0*FFMysticQuestVolcanoFeier_mvl/mxv
 BYTE   W06
 BYTE   Gs4
 BYTE   N12  En3
 BYTE   W06
 BYTE   VOL   0*FFMysticQuestVolcanoFeier_mvl/mxv
 BYTE   W06
 BYTE   Gs4
 BYTE   N12  As3
 BYTE   W06
 BYTE   VOL   0*FFMysticQuestVolcanoFeier_mvl/mxv
 BYTE   W06
 BYTE   Gs4
 BYTE   N12  En3
 BYTE   W06
 BYTE   VOL   0*FFMysticQuestVolcanoFeier_mvl/mxv
 BYTE   W06
 BYTE   Gs4
 BYTE   N12  Gn3
 BYTE   W06
 BYTE   VOL   0*FFMysticQuestVolcanoFeier_mvl/mxv
 BYTE   W06
 BYTE   Gs4
 BYTE   N12  En3
 BYTE   W06
 BYTE   PEND 
// 067   ----------------------------------------
Label_6_013E746C:
 BYTE   VOL   0*FFMysticQuestVolcanoFeier_mvl/mxv
 BYTE   W06
 BYTE   Gs4
 BYTE   N12  Cn4  v100
 BYTE   W06
 BYTE   VOL   0*FFMysticQuestVolcanoFeier_mvl/mxv
 BYTE   W06
 BYTE   Gs4
 BYTE   N12  En3
 BYTE   W06
 BYTE   VOL   0*FFMysticQuestVolcanoFeier_mvl/mxv
 BYTE   W06
 BYTE   Gs4
 BYTE   N12  Bn3
 BYTE   W06
 BYTE   VOL   0*FFMysticQuestVolcanoFeier_mvl/mxv
 BYTE   W06
 BYTE   Gs4
 BYTE   N12  En3
 BYTE   W12
 BYTE   As3
 BYTE   W06
 BYTE   VOL   0*FFMysticQuestVolcanoFeier_mvl/mxv
 BYTE   W06
 BYTE   Gs4
 BYTE   N12  En3
 BYTE   W06
 BYTE   VOL   0*FFMysticQuestVolcanoFeier_mvl/mxv
 BYTE   W06
 BYTE   Gs4
 BYTE   N24  Bn3
 BYTE   W06
 BYTE   VOL   0*FFMysticQuestVolcanoFeier_mvl/mxv
 BYTE   W12
 BYTE   PEND 
 BYTE   PATT
  POIN2 Label_6_013E7380
 BYTE   PATT
  POIN2 Label_6_013E73A3
 BYTE   PATT
  POIN2 Label_6_013E73DA
 BYTE   PATT
  POIN2 Label_6_013E7410
// 068   ----------------------------------------
Label_6_013E74B1:
 BYTE   W06
 BYTE   VOL   60*FFMysticQuestVolcanoFeier_mvl/mxv
 BYTE   N12  Cs3  v100
 BYTE   W06
 BYTE   VOL   0*FFMysticQuestVolcanoFeier_mvl/mxv
 BYTE   W06
 BYTE   Gs4
 BYTE   TIE
 BYTE   W06
 BYTE   VOL   0*FFMysticQuestVolcanoFeier_mvl/mxv
 BYTE   W72
 BYTE   PEND 
// 069   ----------------------------------------
 BYTE   W96
// 070   ----------------------------------------
 BYTE   W96
// 071   ----------------------------------------
 BYTE   W96
// 072   ----------------------------------------
 BYTE   W96
// 073   ----------------------------------------
 BYTE   W96
// 074   ----------------------------------------
 BYTE   W96
// 075   ----------------------------------------
 BYTE   W96
// 076   ----------------------------------------
 BYTE   W96
// 077   ----------------------------------------
 BYTE   W96
// 078   ----------------------------------------
 BYTE   W96
// 079   ----------------------------------------
 BYTE   W96
// 080   ----------------------------------------
 BYTE   W96
// 081   ----------------------------------------
 BYTE   W96
// 082   ----------------------------------------
 BYTE   W96
// 083   ----------------------------------------
 BYTE   W96
// 084   ----------------------------------------
 BYTE   W96
// 085   ----------------------------------------
 BYTE   W96
// 086   ----------------------------------------
 BYTE   W96
// 087   ----------------------------------------
 BYTE   W96
// 088   ----------------------------------------
 BYTE   W96
// 089   ----------------------------------------
 BYTE   W96
// 090   ----------------------------------------
 BYTE   W96
// 091   ----------------------------------------
 BYTE   W96
// 092   ----------------------------------------
 BYTE   W96
// 093   ----------------------------------------
 BYTE   W96
// 094   ----------------------------------------
 BYTE   W96
// 095   ----------------------------------------
 BYTE   W96
// 096   ----------------------------------------
 BYTE   W78
 BYTE   EOT
 BYTE   VOL   60*FFMysticQuestVolcanoFeier_mvl/mxv
 BYTE   N12  Bn3
 BYTE   W06
 BYTE   VOL   0*FFMysticQuestVolcanoFeier_mvl/mxv
 BYTE   W06
 BYTE   Gs4
 BYTE   N12  En3
 BYTE   W06
 BYTE   PATT
  POIN2 Label_6_013E71CA
 BYTE   PATT
  POIN2 Label_6_013E7204
 BYTE   PATT
  POIN2 Label_6_013E722D
 BYTE   PATT
  POIN2 Label_6_013E71CA
 BYTE   PATT
  POIN2 Label_6_013E725A
 BYTE   PATT
  POIN2 Label_6_013E7283
 BYTE   PATT
  POIN2 Label_6_013E71CA
 BYTE   PATT
  POIN2 Label_6_013E72B1
 BYTE   PATT
  POIN2 Label_6_013E722D
 BYTE   PATT
  POIN2 Label_6_013E71CA
 BYTE   PATT
  POIN2 Label_6_013E725A
 BYTE   PATT
  POIN2 Label_6_013E72E6
// 097   ----------------------------------------
 BYTE   W96
// 098   ----------------------------------------
 BYTE   W96
// 099   ----------------------------------------
 BYTE   W96
// 100   ----------------------------------------
 BYTE   W96
// 101   ----------------------------------------
 BYTE   W96
// 102   ----------------------------------------
 BYTE   W96
// 103   ----------------------------------------
 BYTE   W96
// 104   ----------------------------------------
 BYTE   W96
// 105   ----------------------------------------
 BYTE   W96
// 106   ----------------------------------------
 BYTE   W96
// 107   ----------------------------------------
 BYTE   W96
// 108   ----------------------------------------
 BYTE   W96
// 109   ----------------------------------------
 BYTE   W96
// 110   ----------------------------------------
 BYTE   W96
// 111   ----------------------------------------
 BYTE   W96
// 112   ----------------------------------------
 BYTE   W96
// 113   ----------------------------------------
 BYTE   W96
// 114   ----------------------------------------
 BYTE   W96
// 115   ----------------------------------------
 BYTE   W96
// 116   ----------------------------------------
 BYTE   W96
// 117   ----------------------------------------
 BYTE   W96
// 118   ----------------------------------------
 BYTE   W96
// 119   ----------------------------------------
 BYTE   W96
// 120   ----------------------------------------
 BYTE   W96
// 121   ----------------------------------------
 BYTE   W96
// 122   ----------------------------------------
 BYTE   W96
// 123   ----------------------------------------
 BYTE   W96
// 124   ----------------------------------------
 BYTE   W96
// 125   ----------------------------------------
 BYTE   W30
 BYTE   EOT
 BYTE   Cs3
 BYTE   VOL   60*FFMysticQuestVolcanoFeier_mvl/mxv
 BYTE   N12  Bn3  v100
 BYTE   W06
 BYTE   VOL   0*FFMysticQuestVolcanoFeier_mvl/mxv
 BYTE   W06
 BYTE   Gs4
 BYTE   N12  En3
 BYTE   W06
 BYTE   VOL   0*FFMysticQuestVolcanoFeier_mvl/mxv
 BYTE   W06
 BYTE   Gs4
 BYTE   N12  As3
 BYTE   W06
 BYTE   VOL   0*FFMysticQuestVolcanoFeier_mvl/mxv
 BYTE   W06
 BYTE   Gs4
 BYTE   N12  En3
 BYTE   W06
 BYTE   VOL   0*FFMysticQuestVolcanoFeier_mvl/mxv
 BYTE   W06
 BYTE   Gs4
 BYTE   N12  Gn3
 BYTE   W06
 BYTE   VOL   0*FFMysticQuestVolcanoFeier_mvl/mxv
 BYTE   W06
 BYTE   Gs4
 BYTE   N12  En3
 BYTE   W06
 BYTE   PATT
  POIN2 Label_6_013E734A
 BYTE   PATT
  POIN2 Label_6_013E7380
 BYTE   PATT
  POIN2 Label_6_013E73A3
 BYTE   PATT
  POIN2 Label_6_013E73DA
 BYTE   PATT
  POIN2 Label_6_013E7410
 BYTE   PATT
  POIN2 Label_6_013E7434
 BYTE   PATT
  POIN2 Label_6_013E746C
 BYTE   PATT
  POIN2 Label_6_013E7380
 BYTE   PATT
  POIN2 Label_6_013E73A3
 BYTE   PATT
  POIN2 Label_6_013E73DA
 BYTE   PATT
  POIN2 Label_6_013E7410
 BYTE   PATT
  POIN2 Label_6_013E74B1
// 126   ----------------------------------------
 BYTE   W96
// 127   ----------------------------------------
 BYTE   W96
// 128   ----------------------------------------
 BYTE   W96
// 129   ----------------------------------------
 BYTE   W96
// 130   ----------------------------------------
 BYTE   W96
// 131   ----------------------------------------
 BYTE   EOT
 BYTE   Cs3
 BYTE   FINE

//**************** Track 8 (Midi-Chn.7) ****************//

FFMysticQuestVolcanoFeier_008:
// 000   ----------------------------------------
 BYTE   KEYSH   FFMysticQuestVolcanoFeier_key+0
 BYTE   VOICE   99
 BYTE   W78
 BYTE   VOL   60*FFMysticQuestVolcanoFeier_mvl/mxv
 BYTE   N36  En1  v060
 BYTE   W18
// 001   ----------------------------------------
Label_7_013E63BB:
 BYTE   W18
 BYTE   N12  En0  v060
 BYTE   W12
 BYTE   N12
 BYTE   W12
 BYTE   N12
 BYTE   W12
 BYTE   N24  Gn1
 BYTE   W24
 BYTE   N12  En0
 BYTE   W12
 BYTE   N12
 BYTE   W06
 BYTE   PEND 
// 002   ----------------------------------------
Label_7_013E63CD:
 BYTE   W06
 BYTE   N12  En0  v060
 BYTE   W12
 BYTE   N12
 BYTE   W12
 BYTE   N24  Fs1
 BYTE   W24
 BYTE   N12  Fs0
 BYTE   W12
 BYTE   N12
 BYTE   W12
 BYTE   N12
 BYTE   W12
 BYTE   N12
 BYTE   W06
 BYTE   PEND 
// 003   ----------------------------------------
Label_7_013E63E1:
 BYTE   W06
 BYTE   N24  Fn1  v060
 BYTE   W24
 BYTE   N12  Fn0
 BYTE   W12
 BYTE   N12
 BYTE   W12
 BYTE   N12
 BYTE   W12
 BYTE   N12
 BYTE   W12
 BYTE   N36  En1
 BYTE   W18
 BYTE   PEND 
// 004   ----------------------------------------
Label_7_013E63F3:
 BYTE   W18
 BYTE   N12  En0  v060
 BYTE   W12
 BYTE   N12
 BYTE   W12
 BYTE   N12
 BYTE   W12
 BYTE   N24  As0
 BYTE   W24
 BYTE   An0
 BYTE   W18
 BYTE   PEND 
// 005   ----------------------------------------
Label_7_013E6402:
 BYTE   W06
 BYTE   N24  Gn0  v060
 BYTE   W24
 BYTE   Bn0
 BYTE   W24
 BYTE   N12  En0
 BYTE   W12
 BYTE   N12
 BYTE   W12
 BYTE   N12
 BYTE   W12
 BYTE   N12
 BYTE   W06
 BYTE   PEND 
// 006   ----------------------------------------
Label_7_013E6413:
 BYTE   W06
 BYTE   N24  Cn1  v060
 BYTE   W24
 BYTE   N12  En0
 BYTE   W12
 BYTE   N12
 BYTE   W12
 BYTE   Dn1
 BYTE   W12
 BYTE   En0
 BYTE   W12
 BYTE   N36  En1
 BYTE   W18
 BYTE   PEND 
 BYTE   PATT
  POIN2 Label_7_013E63BB
 BYTE   PATT
  POIN2 Label_7_013E63CD
 BYTE   PATT
  POIN2 Label_7_013E63E1
 BYTE   PATT
  POIN2 Label_7_013E63F3
// 007   ----------------------------------------
Label_7_013E6439:
 BYTE   W06
 BYTE   N24  Gn0  v060
 BYTE   W24
 BYTE   Bn0
 BYTE   W24
 BYTE   As0
 BYTE   W24
 BYTE   An0
 BYTE   W18
 BYTE   PEND 
// 008   ----------------------------------------
Label_7_013E6445:
 BYTE   W06
 BYTE   N24  Gn0  v060
 BYTE   W24
 BYTE   Fs0
 BYTE   W24
 BYTE   N60  Fn0
 BYTE   W24
 BYTE   VOL   0*FFMysticQuestVolcanoFeier_mvl/mxv
 BYTE   W18
 BYTE   PEND 
// 009   ----------------------------------------
Label_7_013E6453:
 BYTE   W18
 BYTE   VOL   60*FFMysticQuestVolcanoFeier_mvl/mxv
 BYTE   TIE  En1  v060
 BYTE   W78
 BYTE   PEND 
// 010   ----------------------------------------
 BYTE   W30
 BYTE   EOT
 BYTE   N24  As0
 BYTE   W24
 BYTE   N48  An0
 BYTE   W30
 BYTE   VOL   0*FFMysticQuestVolcanoFeier_mvl/mxv
 BYTE   W12
// 011   ----------------------------------------
Label_7_013E6466:
 BYTE   W06
 BYTE   VOL   60*FFMysticQuestVolcanoFeier_mvl/mxv
 BYTE   N24  Gn0  v060
 BYTE   W24
 BYTE   N84  An0
 BYTE   W24
 BYTE   VOL   0*FFMysticQuestVolcanoFeier_mvl/mxv
 BYTE   W42
 BYTE   PEND 
// 012   ----------------------------------------
Label_7_013E6474:
 BYTE   W18
 BYTE   VOL   60*FFMysticQuestVolcanoFeier_mvl/mxv
 BYTE   TIE  Bn0  v060
 BYTE   W78
 BYTE   PEND 
// 013   ----------------------------------------
 BYTE   W30
 BYTE   EOT
 BYTE   N24  Cn1
 BYTE   W24
 BYTE   N48  Bn0
 BYTE   W24
 BYTE   VOL   0*FFMysticQuestVolcanoFeier_mvl/mxv
 BYTE   W18
// 014   ----------------------------------------
Label_7_013E6487:
 BYTE   W06
 BYTE   VOL   60*FFMysticQuestVolcanoFeier_mvl/mxv
 BYTE   N24  As0  v060
 BYTE   W24
 BYTE   N84  Bn0
 BYTE   W24
 BYTE   VOL   0*FFMysticQuestVolcanoFeier_mvl/mxv
 BYTE   W42
 BYTE   PEND 
 BYTE   PATT
  POIN2 Label_7_013E6453
// 015   ----------------------------------------
 BYTE   W30
 BYTE   EOT
 BYTE   En1
 BYTE   N24  As0  v060
 BYTE   W24
 BYTE   N48  An0
 BYTE   W24
 BYTE   VOL   0*FFMysticQuestVolcanoFeier_mvl/mxv
 BYTE   W18
 BYTE   PATT
  POIN2 Label_7_013E6466
 BYTE   PATT
  POIN2 Label_7_013E6474
// 016   ----------------------------------------
 BYTE   W30
 BYTE   EOT
 BYTE   Bn0
 BYTE   N24  Cn1  v060
 BYTE   W24
 BYTE   N48  Bn0
 BYTE   W24
 BYTE   VOL   0*FFMysticQuestVolcanoFeier_mvl/mxv
 BYTE   W18
// 017   ----------------------------------------
Label_7_013E64BE:
 BYTE   W06
 BYTE   VOL   60*FFMysticQuestVolcanoFeier_mvl/mxv
 BYTE   N24  As0  v060
 BYTE   W24
 BYTE   N48  Bn0
 BYTE   W24
 BYTE   VOL   0*FFMysticQuestVolcanoFeier_mvl/mxv
 BYTE   W24
 BYTE   Gs4
 BYTE   N36  En0
 BYTE   W18
 BYTE   PEND 
// 018   ----------------------------------------
Label_7_013E64D0:
 BYTE   W18
 BYTE   N36  Gn0  v060
 BYTE   W36
 BYTE   En0
 BYTE   W36
 BYTE   As0
 BYTE   W06
 BYTE   PEND 
// 019   ----------------------------------------
Label_7_013E64DA:
 BYTE   W30
 BYTE   N12  Bn1  v060
 BYTE   W12
 BYTE   Bn0
 BYTE   W12
 BYTE   N12
 BYTE   W12
 BYTE   N12
 BYTE   W12
 BYTE   N12
 BYTE   W12
 BYTE   N12
 BYTE   W06
 BYTE   PEND 
// 020   ----------------------------------------
Label_7_013E64EA:
 BYTE   W06
 BYTE   N12  Ds1  v060
 BYTE   W12
 BYTE   Bn0
 BYTE   W12
 BYTE   N12
 BYTE   W12
 BYTE   N12
 BYTE   W12
 BYTE   N12
 BYTE   W12
 BYTE   N12
 BYTE   W12
 BYTE   N36  En0
 BYTE   W18
 BYTE   PEND 
// 021   ----------------------------------------
Label_7_013E64FD:
 BYTE   W18
 BYTE   N36  Gn0  v060
 BYTE   W36
 BYTE   En0
 BYTE   W36
 BYTE   Bn0
 BYTE   W06
 BYTE   PEND 
// 022   ----------------------------------------
Label_7_013E6507:
 BYTE   W30
 BYTE   N12  As1  v060
 BYTE   W12
 BYTE   As0
 BYTE   W12
 BYTE   N12
 BYTE   W12
 BYTE   N12
 BYTE   W12
 BYTE   N12
 BYTE   W12
 BYTE   N12
 BYTE   W06
 BYTE   PEND 
// 023   ----------------------------------------
Label_7_013E6517:
 BYTE   W06
 BYTE   N12  Fs1  v060
 BYTE   W12
 BYTE   Fs0
 BYTE   W12
 BYTE   N12
 BYTE   W12
 BYTE   N12
 BYTE   W12
 BYTE   N12
 BYTE   W12
 BYTE   N12
 BYTE   W12
 BYTE   N36  En0
 BYTE   W18
 BYTE   PEND 
 BYTE   PATT
  POIN2 Label_7_013E64D0
 BYTE   PATT
  POIN2 Label_7_013E64DA
 BYTE   PATT
  POIN2 Label_7_013E64EA
 BYTE   PATT
  POIN2 Label_7_013E64D0
 BYTE   PATT
  POIN2 Label_7_013E6507
// 024   ----------------------------------------
Label_7_013E6543:
 BYTE   W06
 BYTE   N12  Fs1  v060
 BYTE   W12
 BYTE   Fs0
 BYTE   W12
 BYTE   N12
 BYTE   W12
 BYTE   N12
 BYTE   W12
 BYTE   N12
 BYTE   W12
 BYTE   N12
 BYTE   W12
 BYTE   N72  En1
 BYTE   W18
 BYTE   PEND 
// 025   ----------------------------------------
 BYTE   W54
 BYTE   As0
 BYTE   W42
// 026   ----------------------------------------
Label_7_013E6559:
 BYTE   W30
 BYTE   N24  Gn0  v060
 BYTE   W24
 BYTE   Fs0
 BYTE   W24
 BYTE   En0
 BYTE   W18
 BYTE   PEND 
// 027   ----------------------------------------
Label_7_013E6563:
 BYTE   W06
 BYTE   N12  As0  v060
 BYTE   W12
 BYTE   N60
 BYTE   W12
 BYTE   VOL   0*FFMysticQuestVolcanoFeier_mvl/mxv
 BYTE   W48
 BYTE   Gs4
 BYTE   N12
 BYTE   W12
 BYTE   N60
 BYTE   W06
 BYTE   PEND 
// 028   ----------------------------------------
Label_7_013E6573:
 BYTE   VOL   0*FFMysticQuestVolcanoFeier_mvl/mxv
 BYTE   W54
 BYTE   Gs4
 BYTE   N24  As0  v060
 BYTE   W24
 BYTE   Bn0
 BYTE   W18
 BYTE   PEND 
// 029   ----------------------------------------
Label_7_013E657E:
 BYTE   W06
 BYTE   N24  Cn1  v060
 BYTE   W24
 BYTE   N36  En1
 BYTE   W36
 BYTE   N12  En0
 BYTE   W12
 BYTE   N12
 BYTE   W12
 BYTE   N12
 BYTE   W06
 BYTE   PEND 
// 030   ----------------------------------------
Label_7_013E658E:
 BYTE   W06
 BYTE   N24  Gn1  v060
 BYTE   W24
 BYTE   N12  En0
 BYTE   W12
 BYTE   N12
 BYTE   W12
 BYTE   N12
 BYTE   W12
 BYTE   N12
 BYTE   W12
 BYTE   N24  Fs1
 BYTE   W18
 BYTE   PEND 
// 031   ----------------------------------------
Label_7_013E65A0:
 BYTE   W06
 BYTE   N12  Fs0  v060
 BYTE   W12
 BYTE   N12
 BYTE   W12
 BYTE   N12
 BYTE   W12
 BYTE   N12
 BYTE   W12
 BYTE   N24  Fn1
 BYTE   W24
 BYTE   N12  Fn0
 BYTE   W12
 BYTE   N12
 BYTE   W06
 BYTE   PEND 
// 032   ----------------------------------------
Label_7_013E65B4:
 BYTE   W06
 BYTE   N12  Fn0  v060
 BYTE   W12
 BYTE   N12
 BYTE   W12
 BYTE   N36  En1
 BYTE   W36
 BYTE   N12  En0
 BYTE   W12
 BYTE   N12
 BYTE   W12
 BYTE   N12
 BYTE   W06
 BYTE   PEND 
// 033   ----------------------------------------
Label_7_013E65C6:
 BYTE   W06
 BYTE   N24  As0  v060
 BYTE   W24
 BYTE   An0
 BYTE   W24
 BYTE   Gn0
 BYTE   W24
 BYTE   Bn0
 BYTE   W18
 BYTE   PEND 
// 034   ----------------------------------------
Label_7_013E65D2:
 BYTE   W06
 BYTE   N12  En0  v060
 BYTE   W12
 BYTE   N12
 BYTE   W12
 BYTE   N12
 BYTE   W12
 BYTE   N12
 BYTE   W12
 BYTE   N24  Cn1
 BYTE   W24
 BYTE   N12  En0
 BYTE   W12
 BYTE   N12
 BYTE   W06
 BYTE   PEND 
// 035   ----------------------------------------
Label_7_013E65E6:
 BYTE   W06
 BYTE   N12  Dn1  v060
 BYTE   W12
 BYTE   En0
 BYTE   W12
 BYTE   N36  En1
 BYTE   W36
 BYTE   N12  En0
 BYTE   W12
 BYTE   N12
 BYTE   W12
 BYTE   N12
 BYTE   W06
 BYTE   PEND 
 BYTE   PATT
  POIN2 Label_7_013E658E
 BYTE   PATT
  POIN2 Label_7_013E65A0
 BYTE   PATT
  POIN2 Label_7_013E65B4
 BYTE   PATT
  POIN2 Label_7_013E65C6
// 036   ----------------------------------------
Label_7_013E660C:
 BYTE   W06
 BYTE   N24  As0  v060
 BYTE   W24
 BYTE   An0
 BYTE   W24
 BYTE   Gn0
 BYTE   W24
 BYTE   Fs0
 BYTE   W18
 BYTE   PEND 
// 037   ----------------------------------------
Label_7_013E6618:
 BYTE   W06
 BYTE   N60  Fn0  v060
 BYTE   W24
 BYTE   VOL   0*FFMysticQuestVolcanoFeier_mvl/mxv
 BYTE   W36
 BYTE   Gs4
 BYTE   TIE  En1
 BYTE   W30
 BYTE   PEND 
// 038   ----------------------------------------
 BYTE   W78
 BYTE   EOT
 BYTE   N24  As0
 BYTE   W18
// 039   ----------------------------------------
Label_7_013E662A:
 BYTE   W06
 BYTE   N48  An0  v060
 BYTE   W30
 BYTE   VOL   0*FFMysticQuestVolcanoFeier_mvl/mxv
 BYTE   W18
 BYTE   Gs4
 BYTE   N24  Gn0
 BYTE   W24
 BYTE   N84  An0
 BYTE   W18
 BYTE   PEND 
// 040   ----------------------------------------
Label_7_013E663A:
 BYTE   W06
 BYTE   VOL   0*FFMysticQuestVolcanoFeier_mvl/mxv
 BYTE   W60
 BYTE   Gs4
 BYTE   TIE  Bn0  v060
 BYTE   W30
 BYTE   PEND 
// 041   ----------------------------------------
 BYTE   W78
 BYTE   EOT
 BYTE   N24  Cn1
 BYTE   W18
// 042   ----------------------------------------
Label_7_013E6649:
 BYTE   W06
 BYTE   N48  Bn0  v060
 BYTE   W24
 BYTE   VOL   0*FFMysticQuestVolcanoFeier_mvl/mxv
 BYTE   W24
 BYTE   Gs4
 BYTE   N24  As0
 BYTE   W24
 BYTE   N84  Bn0
 BYTE   W18
 BYTE   PEND 
// 043   ----------------------------------------
Label_7_013E6659:
 BYTE   W06
 BYTE   VOL   0*FFMysticQuestVolcanoFeier_mvl/mxv
 BYTE   W60
 BYTE   Gs4
 BYTE   TIE  En1  v060
 BYTE   W30
 BYTE   PEND 
// 044   ----------------------------------------
 BYTE   W78
 BYTE   EOT
 BYTE   N24  As0
 BYTE   W18
// 045   ----------------------------------------
Label_7_013E6668:
 BYTE   W06
 BYTE   N48  An0  v060
 BYTE   W24
 BYTE   VOL   0*FFMysticQuestVolcanoFeier_mvl/mxv
 BYTE   W24
 BYTE   Gs4
 BYTE   N24  Gn0
 BYTE   W24
 BYTE   N84  An0
 BYTE   W18
 BYTE   PEND 
 BYTE   PATT
  POIN2 Label_7_013E663A
// 046   ----------------------------------------
 BYTE   W78
 BYTE   EOT
 BYTE   Bn0
 BYTE   N24  Cn1  v060
 BYTE   W18
// 047   ----------------------------------------
Label_7_013E6684:
 BYTE   W06
 BYTE   N48  Bn0  v060
 BYTE   W24
 BYTE   VOL   0*FFMysticQuestVolcanoFeier_mvl/mxv
 BYTE   W24
 BYTE   Gs4
 BYTE   N24  As0
 BYTE   W24
 BYTE   N48  Bn0
 BYTE   W18
 BYTE   PEND 
// 048   ----------------------------------------
Label_7_013E6694:
 BYTE   W06
 BYTE   VOL   0*FFMysticQuestVolcanoFeier_mvl/mxv
 BYTE   W24
 BYTE   Gs4
 BYTE   N36  En0  v060
 BYTE   W36
 BYTE   Gn0
 BYTE   W30
 BYTE   PEND 
// 049   ----------------------------------------
Label_7_013E66A0:
 BYTE   W06
 BYTE   N36  En0  v060
 BYTE   W36
 BYTE   As0
 BYTE   W36
 BYTE   N12  Bn1
 BYTE   W12
 BYTE   Bn0
 BYTE   W06
 BYTE   PEND 
// 050   ----------------------------------------
Label_7_013E66AD:
 BYTE   W06
 BYTE   N12  Bn0  v060
 BYTE   W12
 BYTE   N12
 BYTE   W12
 BYTE   N12
 BYTE   W12
 BYTE   N12
 BYTE   W12
 BYTE   Ds1
 BYTE   W12
 BYTE   Bn0
 BYTE   W12
 BYTE   N12
 BYTE   W12
 BYTE   N12
 BYTE   W06
 BYTE   PEND 
// 051   ----------------------------------------
Label_7_013E66C1:
 BYTE   W06
 BYTE   N12  Bn0  v060
 BYTE   W12
 BYTE   N12
 BYTE   W12
 BYTE   N36  En0
 BYTE   W36
 BYTE   Gn0
 BYTE   W30
 BYTE   PEND 
// 052   ----------------------------------------
Label_7_013E66CE:
 BYTE   W06
 BYTE   N36  En0  v060
 BYTE   W36
 BYTE   Bn0
 BYTE   W36
 BYTE   N12  As1
 BYTE   W12
 BYTE   As0
 BYTE   W06
 BYTE   PEND 
// 053   ----------------------------------------
Label_7_013E66DB:
 BYTE   W06
 BYTE   N12  As0  v060
 BYTE   W12
 BYTE   N12
 BYTE   W12
 BYTE   N12
 BYTE   W12
 BYTE   N12
 BYTE   W12
 BYTE   Fs1
 BYTE   W12
 BYTE   Fs0
 BYTE   W12
 BYTE   N12
 BYTE   W12
 BYTE   N12
 BYTE   W06
 BYTE   PEND 
// 054   ----------------------------------------
Label_7_013E66EF:
 BYTE   W06
 BYTE   N12  Fs0  v060
 BYTE   W12
 BYTE   N12
 BYTE   W12
 BYTE   N36  En0
 BYTE   W36
 BYTE   Gn0
 BYTE   W30
 BYTE   PEND 
 BYTE   PATT
  POIN2 Label_7_013E66A0
 BYTE   PATT
  POIN2 Label_7_013E66AD
 BYTE   PATT
  POIN2 Label_7_013E66C1
// 055   ----------------------------------------
Label_7_013E670B:
 BYTE   W06
 BYTE   N36  En0  v060
 BYTE   W36
 BYTE   As0
 BYTE   W36
 BYTE   N12  As1
 BYTE   W12
 BYTE   As0
 BYTE   W06
 BYTE   PEND 
 BYTE   PATT
  POIN2 Label_7_013E66DB
// 056   ----------------------------------------
Label_7_013E671D:
 BYTE   W06
 BYTE   N12  Fs0  v060
 BYTE   W12
 BYTE   N12
 BYTE   W12
 BYTE   N72  En1
 BYTE   W66
 BYTE   PEND 
// 057   ----------------------------------------
Label_7_013E6728:
 BYTE   W06
 BYTE   N72  As0  v060
 BYTE   W72
 BYTE   N24  Gn0
 BYTE   W18
 BYTE   PEND 
// 058   ----------------------------------------
Label_7_013E6731:
 BYTE   W06
 BYTE   N24  Fs0  v060
 BYTE   W24
 BYTE   En0
 BYTE   W24
 BYTE   N12  As0
 BYTE   W12
 BYTE   N60
 BYTE   W12
 BYTE   VOL   0*FFMysticQuestVolcanoFeier_mvl/mxv
 BYTE   W18
 BYTE   PEND 
// 059   ----------------------------------------
Label_7_013E6741:
 BYTE   W30
 BYTE   VOL   60*FFMysticQuestVolcanoFeier_mvl/mxv
 BYTE   N12  As0  v060
 BYTE   W12
 BYTE   N60
 BYTE   W06
 BYTE   VOL   0*FFMysticQuestVolcanoFeier_mvl/mxv
 BYTE   W48
 BYTE   PEND 
// 060   ----------------------------------------
 BYTE   W06
 BYTE   Gs4
 BYTE   N24
 BYTE   W24
 BYTE   Bn0
 BYTE   W24
 BYTE   Cn1
 BYTE   W24
 BYTE   N36  En1
 BYTE   W18
 BYTE   PATT
  POIN2 Label_7_013E63BB
 BYTE   PATT
  POIN2 Label_7_013E63CD
 BYTE   PATT
  POIN2 Label_7_013E63E1
 BYTE   PATT
  POIN2 Label_7_013E63F3
 BYTE   PATT
  POIN2 Label_7_013E6402
 BYTE   PATT
  POIN2 Label_7_013E6413
 BYTE   PATT
  POIN2 Label_7_013E63BB
 BYTE   PATT
  POIN2 Label_7_013E63CD
 BYTE   PATT
  POIN2 Label_7_013E63E1
 BYTE   PATT
  POIN2 Label_7_013E63F3
 BYTE   PATT
  POIN2 Label_7_013E6439
 BYTE   PATT
  POIN2 Label_7_013E6445
 BYTE   PATT
  POIN2 Label_7_013E6453
// 061   ----------------------------------------
 BYTE   W30
 BYTE   EOT
 BYTE   En1
 BYTE   N24  As0  v060
 BYTE   W24
 BYTE   N48  An0
 BYTE   W30
 BYTE   VOL   0*FFMysticQuestVolcanoFeier_mvl/mxv
 BYTE   W12
 BYTE   PATT
  POIN2 Label_7_013E6466
 BYTE   PATT
  POIN2 Label_7_013E6474
// 062   ----------------------------------------
 BYTE   W30
 BYTE   EOT
 BYTE   Bn0
 BYTE   N24  Cn1  v060
 BYTE   W24
 BYTE   N48  Bn0
 BYTE   W24
 BYTE   VOL   0*FFMysticQuestVolcanoFeier_mvl/mxv
 BYTE   W18
 BYTE   PATT
  POIN2 Label_7_013E6487
 BYTE   PATT
  POIN2 Label_7_013E6453
// 063   ----------------------------------------
 BYTE   W30
 BYTE   EOT
 BYTE   En1
 BYTE   N24  As0  v060
 BYTE   W24
 BYTE   N48  An0
 BYTE   W24
 BYTE   VOL   0*FFMysticQuestVolcanoFeier_mvl/mxv
 BYTE   W18
 BYTE   PATT
  POIN2 Label_7_013E6466
 BYTE   PATT
  POIN2 Label_7_013E6474
// 064   ----------------------------------------
 BYTE   W30
 BYTE   EOT
 BYTE   Bn0
 BYTE   N24  Cn1  v060
 BYTE   W24
 BYTE   N48  Bn0
 BYTE   W24
 BYTE   VOL   0*FFMysticQuestVolcanoFeier_mvl/mxv
 BYTE   W18
 BYTE   PATT
  POIN2 Label_7_013E64BE
 BYTE   PATT
  POIN2 Label_7_013E64D0
 BYTE   PATT
  POIN2 Label_7_013E64DA
 BYTE   PATT
  POIN2 Label_7_013E64EA
 BYTE   PATT
  POIN2 Label_7_013E64FD
 BYTE   PATT
  POIN2 Label_7_013E6507
 BYTE   PATT
  POIN2 Label_7_013E6517
 BYTE   PATT
  POIN2 Label_7_013E64D0
 BYTE   PATT
  POIN2 Label_7_013E64DA
 BYTE   PATT
  POIN2 Label_7_013E64EA
 BYTE   PATT
  POIN2 Label_7_013E64D0
 BYTE   PATT
  POIN2 Label_7_013E6507
 BYTE   PATT
  POIN2 Label_7_013E6543
// 065   ----------------------------------------
 BYTE   W54
 BYTE   N72  As0  v060
 BYTE   W42
 BYTE   PATT
  POIN2 Label_7_013E6559
 BYTE   PATT
  POIN2 Label_7_013E6563
 BYTE   PATT
  POIN2 Label_7_013E6573
 BYTE   PATT
  POIN2 Label_7_013E657E
 BYTE   PATT
  POIN2 Label_7_013E658E
 BYTE   PATT
  POIN2 Label_7_013E65A0
 BYTE   PATT
  POIN2 Label_7_013E65B4
 BYTE   PATT
  POIN2 Label_7_013E65C6
 BYTE   PATT
  POIN2 Label_7_013E65D2
 BYTE   PATT
  POIN2 Label_7_013E65E6
 BYTE   PATT
  POIN2 Label_7_013E658E
 BYTE   PATT
  POIN2 Label_7_013E65A0
 BYTE   PATT
  POIN2 Label_7_013E65B4
 BYTE   PATT
  POIN2 Label_7_013E65C6
 BYTE   PATT
  POIN2 Label_7_013E660C
 BYTE   PATT
  POIN2 Label_7_013E6618
// 066   ----------------------------------------
 BYTE   W78
 BYTE   EOT
 BYTE   En1
 BYTE   N24  As0  v060
 BYTE   W18
 BYTE   PATT
  POIN2 Label_7_013E662A
 BYTE   PATT
  POIN2 Label_7_013E663A
// 067   ----------------------------------------
 BYTE   W78
 BYTE   EOT
 BYTE   Bn0
 BYTE   N24  Cn1  v060
 BYTE   W18
 BYTE   PATT
  POIN2 Label_7_013E6649
 BYTE   PATT
  POIN2 Label_7_013E6659
// 068   ----------------------------------------
 BYTE   W78
 BYTE   EOT
 BYTE   En1
 BYTE   N24  As0  v060
 BYTE   W18
 BYTE   PATT
  POIN2 Label_7_013E6668
 BYTE   PATT
  POIN2 Label_7_013E663A
// 069   ----------------------------------------
 BYTE   W78
 BYTE   EOT
 BYTE   Bn0
 BYTE   N24  Cn1  v060
 BYTE   W18
 BYTE   PATT
  POIN2 Label_7_013E6684
 BYTE   PATT
  POIN2 Label_7_013E6694
 BYTE   PATT
  POIN2 Label_7_013E66A0
 BYTE   PATT
  POIN2 Label_7_013E66AD
 BYTE   PATT
  POIN2 Label_7_013E66C1
 BYTE   PATT
  POIN2 Label_7_013E66CE
 BYTE   PATT
  POIN2 Label_7_013E66DB
 BYTE   PATT
  POIN2 Label_7_013E66EF
 BYTE   PATT
  POIN2 Label_7_013E66A0
 BYTE   PATT
  POIN2 Label_7_013E66AD
 BYTE   PATT
  POIN2 Label_7_013E66C1
 BYTE   PATT
  POIN2 Label_7_013E670B
 BYTE   PATT
  POIN2 Label_7_013E66DB
 BYTE   PATT
  POIN2 Label_7_013E671D
 BYTE   PATT
  POIN2 Label_7_013E6728
 BYTE   PATT
  POIN2 Label_7_013E6731
 BYTE   PATT
  POIN2 Label_7_013E6741
// 070   ----------------------------------------
 BYTE   W06
 BYTE   VOL   60*FFMysticQuestVolcanoFeier_mvl/mxv
 BYTE   N24  As0  v060
 BYTE   W24
 BYTE   Bn0
 BYTE   W24
 BYTE   Cn1
 BYTE   W24
 BYTE   N36  En1
 BYTE   W06
 BYTE   VOL   58*FFMysticQuestVolcanoFeier_mvl/mxv
 BYTE   W06
 BYTE   En4
 BYTE   W06
// 071   ----------------------------------------
 BYTE   Dn4
 BYTE   W06
 BYTE   Bn3
 BYTE   W06
 BYTE   An3
 BYTE   W06
 BYTE   Gn3
 BYTE   N12  En0
 BYTE   W06
 BYTE   VOL   44*FFMysticQuestVolcanoFeier_mvl/mxv
 BYTE   W06
 BYTE   Cs3
 BYTE   N12
 BYTE   W06
 BYTE   VOL   38*FFMysticQuestVolcanoFeier_mvl/mxv
 BYTE   W06
 BYTE   Fs2
 BYTE   N12
 BYTE   W06
 BYTE   VOL   30*FFMysticQuestVolcanoFeier_mvl/mxv
 BYTE   W06
 BYTE   An1
 BYTE   N24  Gn1
 BYTE   W06
 BYTE   VOL   19*FFMysticQuestVolcanoFeier_mvl/mxv
 BYTE   W06
 BYTE   Fs0
 BYTE   W06
 BYTE   GnM1
 BYTE   W06
 BYTE   BnM2
 BYTE   N12  En0
 BYTE   W06
 BYTE   VOL   0*FFMysticQuestVolcanoFeier_mvl/mxv
 BYTE   W06
 BYTE   CnM2
 BYTE   N06
 BYTE   W06
 BYTE   FINE

//**************** Track 9 (Midi-Chn.8) ****************//

FFMysticQuestVolcanoFeier_009:
// 000   ----------------------------------------
 BYTE   KEYSH   FFMysticQuestVolcanoFeier_key+0
 BYTE   VOICE   48
 BYTE   W78
 BYTE   VOL   60*FFMysticQuestVolcanoFeier_mvl/mxv
 BYTE   N72  En3  v100
 BYTE   W18
// 001   ----------------------------------------
 BYTE   W54
 BYTE   N48  Bn3
 BYTE   W42
// 002   ----------------------------------------
Label_8_013E7B67:
 BYTE   W06
 BYTE   N12  As3  v100
 BYTE   W12
 BYTE   Bn3
 BYTE   W12
 BYTE   N72  As3
 BYTE   W66
 BYTE   PEND 
// 003   ----------------------------------------
Label_8_013E7B72:
 BYTE   W06
 BYTE   N12  Cn4  v100
 BYTE   W12
 BYTE   Bn3
 BYTE   W12
 BYTE   Cn4
 BYTE   W12
 BYTE   Dn4
 BYTE   W12
 BYTE   Cn4
 BYTE   W12
 BYTE   Dn4
 BYTE   W12
 BYTE   N36  En4
 BYTE   W18
 BYTE   PEND 
// 004   ----------------------------------------
Label_8_013E7B85:
 BYTE   W18
 BYTE   N12  Bn3  v100
 BYTE   W12
 BYTE   En4
 BYTE   W12
 BYTE   Bn3
 BYTE   W12
 BYTE   N24  As4
 BYTE   W24
 BYTE   An4
 BYTE   W18
 BYTE   PEND 
// 005   ----------------------------------------
Label_8_013E7B94:
 BYTE   W06
 BYTE   N24  Gn4  v100
 BYTE   W24
 BYTE   N12  Bn3
 BYTE   W12
 BYTE   As3
 BYTE   W12
 BYTE   Bn3
 BYTE   W12
 BYTE   En4
 BYTE   W12
 BYTE   Ds4
 BYTE   W12
 BYTE   En4
 BYTE   W06
 BYTE   PEND 
// 006   ----------------------------------------
Label_8_013E7BA7:
 BYTE   W06
 BYTE   N12  Cn4  v100
 BYTE   W12
 BYTE   Bn3
 BYTE   W12
 BYTE   Cn4
 BYTE   W12
 BYTE   Gn4
 BYTE   W12
 BYTE   Fs4
 BYTE   W12
 BYTE   Gn4
 BYTE   W12
 BYTE   N72  En3
 BYTE   W18
 BYTE   PEND 
// 007   ----------------------------------------
 BYTE   W54
 BYTE   N48  Bn3
 BYTE   W42
 BYTE   PATT
  POIN2 Label_8_013E7B67
// 008   ----------------------------------------
Label_8_013E7BC3:
 BYTE   W06
 BYTE   N12  Cn4  v100
 BYTE   W12
 BYTE   Bn3
 BYTE   W12
 BYTE   Cn4
 BYTE   W12
 BYTE   Dn4
 BYTE   W12
 BYTE   Cn4
 BYTE   W12
 BYTE   Dn4
 BYTE   W12
 BYTE   En4
 BYTE   W12
 BYTE   Ds4
 BYTE   W06
 BYTE   PEND 
// 009   ----------------------------------------
Label_8_013E7BD7:
 BYTE   W06
 BYTE   N12  En4  v100
 BYTE   W12
 BYTE   Gn4
 BYTE   W12
 BYTE   Fs4
 BYTE   W12
 BYTE   Gn4
 BYTE   W12
 BYTE   N24  As4
 BYTE   W24
 BYTE   An4
 BYTE   W18
 BYTE   PEND 
// 010   ----------------------------------------
Label_8_013E7BE8:
 BYTE   W06
 BYTE   N24  Gn4  v100
 BYTE   W24
 BYTE   Bn4
 BYTE   W24
 BYTE   N06  As4
 BYTE   W06
 BYTE   Bn4
 BYTE   W06
 BYTE   As4
 BYTE   W06
 BYTE   N30  An4
 BYTE   W24
 BYTE   PEND 
// 011   ----------------------------------------
Label_8_013E7BFA:
 BYTE   W06
 BYTE   N24  Gn4  v100
 BYTE   W24
 BYTE   N06  Fs4
 BYTE   W06
 BYTE   Gn4
 BYTE   W06
 BYTE   Fs4
 BYTE   W06
 BYTE   N12  Fn4
 BYTE   W12
 BYTE   VOL   0*FFMysticQuestVolcanoFeier_mvl/mxv
 BYTE   TIE  Cn2
 BYTE   W36
 BYTE   PEND 
// 012   ----------------------------------------
 BYTE   W96
// 013   ----------------------------------------
 BYTE   W96
// 014   ----------------------------------------
 BYTE   W96
// 015   ----------------------------------------
 BYTE   W96
// 016   ----------------------------------------
 BYTE   W96
// 017   ----------------------------------------
 BYTE   W96
// 018   ----------------------------------------
 BYTE   W96
// 019   ----------------------------------------
 BYTE   W96
// 020   ----------------------------------------
 BYTE   W96
// 021   ----------------------------------------
 BYTE   W96
// 022   ----------------------------------------
 BYTE   W96
// 023   ----------------------------------------
 BYTE   W96
// 024   ----------------------------------------
 BYTE   W96
// 025   ----------------------------------------
 BYTE   W96
// 026   ----------------------------------------
 BYTE   W96
// 027   ----------------------------------------
 BYTE   W96
// 028   ----------------------------------------
 BYTE   W96
// 029   ----------------------------------------
 BYTE   W96
// 030   ----------------------------------------
 BYTE   W96
// 031   ----------------------------------------
 BYTE   W96
// 032   ----------------------------------------
 BYTE   W96
// 033   ----------------------------------------
 BYTE   W96
// 034   ----------------------------------------
 BYTE   W96
// 035   ----------------------------------------
 BYTE   W78
 BYTE   EOT
 BYTE   VOL   60*FFMysticQuestVolcanoFeier_mvl/mxv
 BYTE   N72  En3
 BYTE   W18
// 036   ----------------------------------------
 BYTE   W54
 BYTE   En4
 BYTE   W42
// 037   ----------------------------------------
Label_8_013E7C30:
 BYTE   W30
 BYTE   N24  Bn3  v100
 BYTE   W24
 BYTE   As3
 BYTE   W24
 BYTE   An3
 BYTE   W18
 BYTE   PEND 
// 038   ----------------------------------------
Label_8_013E7C3A:
 BYTE   W06
 BYTE   N12  As3  v100
 BYTE   W12
 BYTE   An3
 BYTE   W12
 BYTE   As3
 BYTE   W12
 BYTE   Bn3
 BYTE   W12
 BYTE   As3
 BYTE   W12
 BYTE   An3
 BYTE   W12
 BYTE   N24  As3
 BYTE   W18
 BYTE   PEND 
// 039   ----------------------------------------
Label_8_013E7C4D:
 BYTE   W06
 BYTE   N24  En4  v100
 BYTE   W24
 BYTE   N96  As4
 BYTE   W24
 BYTE   VOL   0*FFMysticQuestVolcanoFeier_mvl/mxv
 BYTE   W42
 BYTE   PEND 
// 040   ----------------------------------------
Label_8_013E7C59:
 BYTE   W30
 BYTE   VOL   60*FFMysticQuestVolcanoFeier_mvl/mxv
 BYTE   N72  En3  v100
 BYTE   W66
 BYTE   PEND 
// 041   ----------------------------------------
Label_8_013E7C61:
 BYTE   W06
 BYTE   N48  Bn3  v100
 BYTE   W48
 BYTE   N12  As3
 BYTE   W12
 BYTE   Bn3
 BYTE   W12
 BYTE   N72  As3
 BYTE   W18
 BYTE   PEND 
// 042   ----------------------------------------
Label_8_013E7C6F:
 BYTE   W54
 BYTE   N12  Cn4  v100
 BYTE   W12
 BYTE   Bn3
 BYTE   W12
 BYTE   Cn4
 BYTE   W12
 BYTE   Dn4
 BYTE   W06
 BYTE   PEND 
// 043   ----------------------------------------
Label_8_013E7C7B:
 BYTE   W06
 BYTE   N12  Cn4  v100
 BYTE   W12
 BYTE   Dn4
 BYTE   W12
 BYTE   N36  En4
 BYTE   W36
 BYTE   N12  Bn3
 BYTE   W12
 BYTE   En4
 BYTE   W12
 BYTE   Bn3
 BYTE   W06
 BYTE   PEND 
// 044   ----------------------------------------
Label_8_013E7C8D:
 BYTE   W06
 BYTE   N24  As4  v100
 BYTE   W24
 BYTE   An4
 BYTE   W24
 BYTE   Gn4
 BYTE   W24
 BYTE   N12  Bn3
 BYTE   W12
 BYTE   As3
 BYTE   W06
 BYTE   PEND 
// 045   ----------------------------------------
Label_8_013E7C9C:
 BYTE   W06
 BYTE   N12  Bn3  v100
 BYTE   W12
 BYTE   En4
 BYTE   W12
 BYTE   Ds4
 BYTE   W12
 BYTE   En4
 BYTE   W12
 BYTE   Cn4
 BYTE   W12
 BYTE   Bn3
 BYTE   W12
 BYTE   Cn4
 BYTE   W12
 BYTE   Gn4
 BYTE   W06
 BYTE   PEND 
// 046   ----------------------------------------
Label_8_013E7CB0:
 BYTE   W06
 BYTE   N12  Fs4  v100
 BYTE   W12
 BYTE   Gn4
 BYTE   W12
 BYTE   N72  En3
 BYTE   W66
 BYTE   PEND 
 BYTE   PATT
  POIN2 Label_8_013E7C61
 BYTE   PATT
  POIN2 Label_8_013E7C6F
// 047   ----------------------------------------
Label_8_013E7CC5:
 BYTE   W06
 BYTE   N12  Cn4  v100
 BYTE   W12
 BYTE   Dn4
 BYTE   W12
 BYTE   En4
 BYTE   W12
 BYTE   Ds4
 BYTE   W12
 BYTE   En4
 BYTE   W12
 BYTE   Gn4
 BYTE   W12
 BYTE   Fs4
 BYTE   W12
 BYTE   Gn4
 BYTE   W06
 BYTE   PEND 
// 048   ----------------------------------------
Label_8_013E7CD9:
 BYTE   W06
 BYTE   N24  As4  v100
 BYTE   W24
 BYTE   An4
 BYTE   W24
 BYTE   Gn4
 BYTE   W24
 BYTE   Bn4
 BYTE   W18
 BYTE   PEND 
// 049   ----------------------------------------
Label_8_013E7CE5:
 BYTE   W06
 BYTE   N06  As4  v100
 BYTE   W06
 BYTE   Bn4
 BYTE   W06
 BYTE   As4
 BYTE   W06
 BYTE   N30  An4
 BYTE   W30
 BYTE   N24  Gn4
 BYTE   W24
 BYTE   N06  Fs4
 BYTE   W06
 BYTE   Gn4
 BYTE   W06
 BYTE   Fs4
 BYTE   W06
 BYTE   PEND 
// 050   ----------------------------------------
Label_8_013E7CFC:
 BYTE   N12  Fn4  v100
 BYTE   W12
 BYTE   VOL   0*FFMysticQuestVolcanoFeier_mvl/mxv
 BYTE   TIE  Cn2
 BYTE   W84
 BYTE   PEND 
// 051   ----------------------------------------
 BYTE   W96
// 052   ----------------------------------------
 BYTE   W96
// 053   ----------------------------------------
 BYTE   W96
// 054   ----------------------------------------
 BYTE   W96
// 055   ----------------------------------------
 BYTE   W96
// 056   ----------------------------------------
 BYTE   W96
// 057   ----------------------------------------
 BYTE   W96
// 058   ----------------------------------------
 BYTE   W96
// 059   ----------------------------------------
 BYTE   W96
// 060   ----------------------------------------
 BYTE   W96
// 061   ----------------------------------------
 BYTE   W96
// 062   ----------------------------------------
 BYTE   W96
// 063   ----------------------------------------
 BYTE   W96
// 064   ----------------------------------------
 BYTE   W96
// 065   ----------------------------------------
 BYTE   W96
// 066   ----------------------------------------
 BYTE   W96
// 067   ----------------------------------------
 BYTE   W96
// 068   ----------------------------------------
 BYTE   W96
// 069   ----------------------------------------
 BYTE   W96
// 070   ----------------------------------------
 BYTE   W96
// 071   ----------------------------------------
 BYTE   W96
// 072   ----------------------------------------
 BYTE   W96
// 073   ----------------------------------------
 BYTE   W96
// 074   ----------------------------------------
 BYTE   W30
 BYTE   EOT
 BYTE   VOL   60*FFMysticQuestVolcanoFeier_mvl/mxv
 BYTE   N72  En3
 BYTE   W66
// 075   ----------------------------------------
Label_8_013E7D24:
 BYTE   W06
 BYTE   N72  En4  v100
 BYTE   W72
 BYTE   N24  Bn3
 BYTE   W18
 BYTE   PEND 
// 076   ----------------------------------------
Label_8_013E7D2D:
 BYTE   W06
 BYTE   N24  As3  v100
 BYTE   W24
 BYTE   An3
 BYTE   W24
 BYTE   N12  As3
 BYTE   W12
 BYTE   An3
 BYTE   W12
 BYTE   As3
 BYTE   W12
 BYTE   Bn3
 BYTE   W06
 BYTE   PEND 
// 077   ----------------------------------------
Label_8_013E7D3E:
 BYTE   W06
 BYTE   N12  As3  v100
 BYTE   W12
 BYTE   An3
 BYTE   W12
 BYTE   N24  As3
 BYTE   W24
 BYTE   En4
 BYTE   W24
 BYTE   N96  As4
 BYTE   W18
 BYTE   PEND 
// 078   ----------------------------------------
 BYTE   W06
 BYTE   VOL   0*FFMysticQuestVolcanoFeier_mvl/mxv
 BYTE   W72
 BYTE   Gs4
 BYTE   N72  En3
 BYTE   W18
// 079   ----------------------------------------
 BYTE   W54
 BYTE   N48  Bn3
 BYTE   W42
 BYTE   PATT
  POIN2 Label_8_013E7B67
 BYTE   PATT
  POIN2 Label_8_013E7B72
 BYTE   PATT
  POIN2 Label_8_013E7B85
 BYTE   PATT
  POIN2 Label_8_013E7B94
 BYTE   PATT
  POIN2 Label_8_013E7BA7
// 080   ----------------------------------------
 BYTE   W54
 BYTE   N48  Bn3  v100
 BYTE   W42
 BYTE   PATT
  POIN2 Label_8_013E7B67
 BYTE   PATT
  POIN2 Label_8_013E7BC3
 BYTE   PATT
  POIN2 Label_8_013E7BD7
 BYTE   PATT
  POIN2 Label_8_013E7BE8
 BYTE   PATT
  POIN2 Label_8_013E7BFA
// 081   ----------------------------------------
 BYTE   W96
// 082   ----------------------------------------
 BYTE   W96
// 083   ----------------------------------------
 BYTE   W96
// 084   ----------------------------------------
 BYTE   W96
// 085   ----------------------------------------
 BYTE   W96
// 086   ----------------------------------------
 BYTE   W96
// 087   ----------------------------------------
 BYTE   W96
// 088   ----------------------------------------
 BYTE   W96
// 089   ----------------------------------------
 BYTE   W96
// 090   ----------------------------------------
 BYTE   W96
// 091   ----------------------------------------
 BYTE   W96
// 092   ----------------------------------------
 BYTE   W96
// 093   ----------------------------------------
 BYTE   W96
// 094   ----------------------------------------
 BYTE   W96
// 095   ----------------------------------------
 BYTE   W96
// 096   ----------------------------------------
 BYTE   W96
// 097   ----------------------------------------
 BYTE   W96
// 098   ----------------------------------------
 BYTE   W96
// 099   ----------------------------------------
 BYTE   W96
// 100   ----------------------------------------
 BYTE   W96
// 101   ----------------------------------------
 BYTE   W96
// 102   ----------------------------------------
 BYTE   W96
// 103   ----------------------------------------
 BYTE   W96
// 104   ----------------------------------------
 BYTE   W78
 BYTE   EOT
 BYTE   Cn2
 BYTE   VOL   60*FFMysticQuestVolcanoFeier_mvl/mxv
 BYTE   N72  En3  v100
 BYTE   W18
// 105   ----------------------------------------
 BYTE   W54
 BYTE   En4
 BYTE   W42
 BYTE   PATT
  POIN2 Label_8_013E7C30
 BYTE   PATT
  POIN2 Label_8_013E7C3A
 BYTE   PATT
  POIN2 Label_8_013E7C4D
 BYTE   PATT
  POIN2 Label_8_013E7C59
 BYTE   PATT
  POIN2 Label_8_013E7C61
 BYTE   PATT
  POIN2 Label_8_013E7C6F
 BYTE   PATT
  POIN2 Label_8_013E7C7B
 BYTE   PATT
  POIN2 Label_8_013E7C8D
 BYTE   PATT
  POIN2 Label_8_013E7C9C
 BYTE   PATT
  POIN2 Label_8_013E7CB0
 BYTE   PATT
  POIN2 Label_8_013E7C61
 BYTE   PATT
  POIN2 Label_8_013E7C6F
 BYTE   PATT
  POIN2 Label_8_013E7CC5
 BYTE   PATT
  POIN2 Label_8_013E7CD9
 BYTE   PATT
  POIN2 Label_8_013E7CE5
 BYTE   PATT
  POIN2 Label_8_013E7CFC
// 106   ----------------------------------------
 BYTE   W96
// 107   ----------------------------------------
 BYTE   W96
// 108   ----------------------------------------
 BYTE   W96
// 109   ----------------------------------------
 BYTE   W96
// 110   ----------------------------------------
 BYTE   W96
// 111   ----------------------------------------
 BYTE   W96
// 112   ----------------------------------------
 BYTE   W96
// 113   ----------------------------------------
 BYTE   W96
// 114   ----------------------------------------
 BYTE   W96
// 115   ----------------------------------------
 BYTE   W96
// 116   ----------------------------------------
 BYTE   W96
// 117   ----------------------------------------
 BYTE   W96
// 118   ----------------------------------------
 BYTE   W96
// 119   ----------------------------------------
 BYTE   W96
// 120   ----------------------------------------
 BYTE   W96
// 121   ----------------------------------------
 BYTE   W96
// 122   ----------------------------------------
 BYTE   W96
// 123   ----------------------------------------
 BYTE   W96
// 124   ----------------------------------------
 BYTE   W96
// 125   ----------------------------------------
 BYTE   W96
// 126   ----------------------------------------
 BYTE   W96
// 127   ----------------------------------------
 BYTE   W96
// 128   ----------------------------------------
 BYTE   W96
// 129   ----------------------------------------
 BYTE   W30
 BYTE   EOT
 BYTE   Cn2
 BYTE   VOL   60*FFMysticQuestVolcanoFeier_mvl/mxv
 BYTE   N72  En3  v100
 BYTE   W66
 BYTE   PATT
  POIN2 Label_8_013E7D24
 BYTE   PATT
  POIN2 Label_8_013E7D2D
 BYTE   PATT
  POIN2 Label_8_013E7D3E
// 130   ----------------------------------------
 BYTE   W06
 BYTE   VOL   0*FFMysticQuestVolcanoFeier_mvl/mxv
 BYTE   W72
 BYTE   Gs4
 BYTE   N72  En3  v100
 BYTE   W06
 BYTE   VOL   58*FFMysticQuestVolcanoFeier_mvl/mxv
 BYTE   W06
 BYTE   En4
 BYTE   W06
// 131   ----------------------------------------
 BYTE   Dn4
 BYTE   W06
 BYTE   Bn3
 BYTE   W06
 BYTE   An3
 BYTE   W06
 BYTE   Gn3
 BYTE   W06
 BYTE   En3
 BYTE   W06
 BYTE   Cs3
 BYTE   W06
 BYTE   As2
 BYTE   W06
 BYTE   Fs2
 BYTE   W06
 BYTE   Dn2
 BYTE   W06
 BYTE   An1
 BYTE   N36  Bn3
 BYTE   W06
 BYTE   VOL   19*FFMysticQuestVolcanoFeier_mvl/mxv
 BYTE   W06
 BYTE   Fs0
 BYTE   W06
 BYTE   GnM1
 BYTE   W06
 BYTE   BnM2
 BYTE   W06
 BYTE   FsM2
 BYTE   W06
 BYTE   CnM2
 BYTE   N06  Cn2
 BYTE   W06
 BYTE   FINE

//**************** Track 10 (Midi-Chn.9) ****************//

FFMysticQuestVolcanoFeier_010:
// 000   ----------------------------------------
 BYTE   VOL   60*FFMysticQuestVolcanoFeier_mvl/mxv
 BYTE   KEYSH   FFMysticQuestVolcanoFeier_key+0
 BYTE   VOICE   123
 BYTE   N06  En1  v127
 BYTE   W06
 BYTE   N12
 BYTE   W12
 BYTE   N12
 BYTE   W12
 BYTE   N12
 BYTE   W12
 BYTE   N12
 BYTE   W12
 BYTE   N12
 BYTE   W12
 BYTE   N12
 BYTE   W12
 BYTE   An1
 BYTE   N24  Cs2
 BYTE   W12
 BYTE   N12  An1
 BYTE   W06
// 001   ----------------------------------------
Label_9_013E7E85:
 BYTE   W06
 BYTE   N24  Fs1  v127
 BYTE   N12  An1
 BYTE   W12
 BYTE   En1
 BYTE   W12
 BYTE   N24  Fs1
 BYTE   N12  An1
 BYTE   W12
 BYTE   N12
 BYTE   W12
 BYTE   N24  Fs1
 BYTE   N12  An1
 BYTE   W12
 BYTE   N12
 BYTE   W12
 BYTE   N24  Fs1
 BYTE   N12  An1
 BYTE   W12
 BYTE   En1
 BYTE   W06
 BYTE   PEND 
// 002   ----------------------------------------
Label_9_013E7EA4:
 BYTE   W06
 BYTE   N24  Fs1  v127
 BYTE   N12  An1
 BYTE   W12
 BYTE   N12
 BYTE   W12
 BYTE   N24  Fs1
 BYTE   N12  An1
 BYTE   W12
 BYTE   N12
 BYTE   W12
 BYTE   N24  Fs1
 BYTE   N12  An1
 BYTE   W12
 BYTE   En1
 BYTE   W12
 BYTE   N24  Fs1
 BYTE   N12  An1
 BYTE   W12
 BYTE   N12
 BYTE   W06
 BYTE   PEND 
// 003   ----------------------------------------
Label_9_013E7EC3:
 BYTE   W06
 BYTE   N24  Fs1  v127
 BYTE   N12  An1
 BYTE   W12
 BYTE   N12
 BYTE   W12
 BYTE   N24  Fs1
 BYTE   N12  An1
 BYTE   W12
 BYTE   En1
 BYTE   W12
 BYTE   N24  Fs1
 BYTE   N12  An1
 BYTE   W12
 BYTE   N12
 BYTE   W12
 BYTE   N24  Fs1
 BYTE   N12  An1
 BYTE   W12
 BYTE   N12
 BYTE   W06
 BYTE   PEND 
 BYTE   PATT
  POIN2 Label_9_013E7E85
 BYTE   PATT
  POIN2 Label_9_013E7EA4
// 004   ----------------------------------------
Label_9_013E7EEC:
 BYTE   W06
 BYTE   N24  Fs1  v127
 BYTE   N12  An1
 BYTE   W12
 BYTE   N12
 BYTE   W12
 BYTE   N24  Fs1
 BYTE   N12  An1
 BYTE   W12
 BYTE   En1
 BYTE   W12
 BYTE   N12
 BYTE   N24  Fs1
 BYTE   W12
 BYTE   N12  En1
 BYTE   W12
 BYTE   An1
 BYTE   N24  Cs2
 BYTE   W12
 BYTE   N12  An1
 BYTE   W06
 BYTE   PEND 
 BYTE   PATT
  POIN2 Label_9_013E7E85
 BYTE   PATT
  POIN2 Label_9_013E7EA4
 BYTE   PATT
  POIN2 Label_9_013E7EC3
// 005   ----------------------------------------
Label_9_013E7F1A:
 BYTE   W06
 BYTE   N24  Fs1  v127
 BYTE   N12  An1
 BYTE   W12
 BYTE   En1
 BYTE   W12
 BYTE   N24  Fs1
 BYTE   N12  An1
 BYTE   W12
 BYTE   N12
 BYTE   W12
 BYTE   N24
 BYTE   N24  Cs2
 BYTE   W24
 BYTE   An1
 BYTE   N24  Cs2
 BYTE   W18
 BYTE   PEND 
// 006   ----------------------------------------
Label_9_013E7F33:
 BYTE   W06
 BYTE   N24  An1  v127
 BYTE   N24  Cs2
 BYTE   W24
 BYTE   An1
 BYTE   N24  Cs2
 BYTE   W24
 BYTE   N48  An1
 BYTE   N24  Cs2
 BYTE   W24
 BYTE   N72
 BYTE   W18
 BYTE   PEND 
// 007   ----------------------------------------
Label_9_013E7F46:
 BYTE   W06
 BYTE   N06  En1  v127
 BYTE   W06
 BYTE   N06
 BYTE   W06
 BYTE   N12
 BYTE   W12
 BYTE   N06  Bn1
 BYTE   W06
 BYTE   N06
 BYTE   W06
 BYTE   N06
 BYTE   W06
 BYTE   N06
 BYTE   W06
 BYTE   N24  En1
 BYTE   N24  Cs2
 BYTE   W24
 BYTE   N12  An1
 BYTE   N24  Cs2
 BYTE   W12
 BYTE   N12  An1
 BYTE   W06
 BYTE   PEND 
 BYTE   PATT
  POIN2 Label_9_013E7E85
 BYTE   PATT
  POIN2 Label_9_013E7EA4
 BYTE   PATT
  POIN2 Label_9_013E7EC3
 BYTE   PATT
  POIN2 Label_9_013E7E85
 BYTE   PATT
  POIN2 Label_9_013E7EA4
 BYTE   PATT
  POIN2 Label_9_013E7EEC
 BYTE   PATT
  POIN2 Label_9_013E7E85
 BYTE   PATT
  POIN2 Label_9_013E7EA4
 BYTE   PATT
  POIN2 Label_9_013E7EC3
 BYTE   PATT
  POIN2 Label_9_013E7E85
 BYTE   PATT
  POIN2 Label_9_013E7EA4
 BYTE   PATT
  POIN2 Label_9_013E7EEC
 BYTE   PATT
  POIN2 Label_9_013E7E85
 BYTE   PATT
  POIN2 Label_9_013E7EA4
 BYTE   PATT
  POIN2 Label_9_013E7EC3
 BYTE   PATT
  POIN2 Label_9_013E7E85
 BYTE   PATT
  POIN2 Label_9_013E7EA4
 BYTE   PATT
  POIN2 Label_9_013E7EEC
 BYTE   PATT
  POIN2 Label_9_013E7E85
 BYTE   PATT
  POIN2 Label_9_013E7EA4
// 008   ----------------------------------------
Label_9_013E7FCA:
 BYTE   W06
 BYTE   N24  Fs1  v127
 BYTE   N12  An1
 BYTE   W12
 BYTE   N12
 BYTE   W12
 BYTE   N24  Fs1
 BYTE   N12  An1
 BYTE   W12
 BYTE   En1
 BYTE   W12
 BYTE   N24  Fs1
 BYTE   N12  An1
 BYTE   W12
 BYTE   N12
 BYTE   W12
 BYTE   N12
 BYTE   N24  Cs2
 BYTE   W12
 BYTE   N12  An1
 BYTE   W06
 BYTE   PEND 
 BYTE   PATT
  POIN2 Label_9_013E7E85
 BYTE   PATT
  POIN2 Label_9_013E7EA4
// 009   ----------------------------------------
Label_9_013E7FF3:
 BYTE   W06
 BYTE   N24  Fs1  v127
 BYTE   N12  An1
 BYTE   W12
 BYTE   N12
 BYTE   W12
 BYTE   N24  Fs1
 BYTE   N12  An1
 BYTE   W12
 BYTE   En1
 BYTE   W12
 BYTE   N12
 BYTE   N24  Fs1
 BYTE   W12
 BYTE   N12  En1
 BYTE   W12
 BYTE   N24  An1
 BYTE   N24  Cs2
 BYTE   W18
 BYTE   PEND 
// 010   ----------------------------------------
Label_9_013E8010:
 BYTE   W06
 BYTE   N24  An1  v127
 BYTE   N24  Cs2
 BYTE   W24
 BYTE   An1
 BYTE   N24  Cs2
 BYTE   W24
 BYTE   An1
 BYTE   N24  Cs2
 BYTE   W24
 BYTE   An1
 BYTE   N24  Cs2
 BYTE   W18
 BYTE   PEND 
// 011   ----------------------------------------
Label_9_013E8024:
 BYTE   W06
 BYTE   N24  An1  v127
 BYTE   TIE  Cs2
 BYTE   W24
 BYTE   N06  Bn1
 BYTE   W06
 BYTE   N18
 BYTE   W18
 BYTE   N24
 BYTE   W24
 BYTE   N24
 BYTE   W18
 BYTE   PEND 
// 012   ----------------------------------------
Label_9_013E8035:
 BYTE   W06
 BYTE   N12  Bn1  v127
 BYTE   W12
 BYTE   N12
 BYTE   W12
 BYTE   N24
 BYTE   W24
 BYTE   PEND 
 BYTE   EOT
 BYTE   Cs2
 BYTE   N24  Bn1
 BYTE   N72  Cs2
 BYTE   W24
 BYTE   N24  En1
 BYTE   W18
// 013   ----------------------------------------
Label_9_013E8049:
 BYTE   W06
 BYTE   N12  En1  v127
 BYTE   W12
 BYTE   N12
 BYTE   W12
 BYTE   N12
 BYTE   N72  Cs2
 BYTE   W12
 BYTE   N12  En1
 BYTE   W12
 BYTE   N12
 BYTE   W12
 BYTE   N06  Bn1
 BYTE   W06
 BYTE   N06
 BYTE   W06
 BYTE   N24  En1
 BYTE   W18
 BYTE   PEND 
// 014   ----------------------------------------
Label_9_013E8062:
 BYTE   W06
 BYTE   N12  En1  v127
 BYTE   N24  Fs1
 BYTE   W12
 BYTE   N06  Bn1
 BYTE   W06
 BYTE   N06
 BYTE   W06
 BYTE   N12  An1
 BYTE   N24  Cs2
 BYTE   W12
 BYTE   N12  An1
 BYTE   W12
 BYTE   N24  Fs1
 BYTE   N12  An1
 BYTE   W12
 BYTE   En1
 BYTE   W12
 BYTE   N24  Fs1
 BYTE   N12  An1
 BYTE   W12
 BYTE   N12
 BYTE   W06
 BYTE   PEND 
 BYTE   PATT
  POIN2 Label_9_013E7EC3
 BYTE   PATT
  POIN2 Label_9_013E7E85
 BYTE   PATT
  POIN2 Label_9_013E7EA4
 BYTE   PATT
  POIN2 Label_9_013E7EC3
 BYTE   PATT
  POIN2 Label_9_013E7E85
// 015   ----------------------------------------
Label_9_013E809E:
 BYTE   W06
 BYTE   N12  En1  v127
 BYTE   N24  Fs1
 BYTE   W12
 BYTE   N12  En1
 BYTE   W12
 BYTE   An1
 BYTE   N24  Cs2
 BYTE   W12
 BYTE   N12  An1
 BYTE   W12
 BYTE   N24  Fs1
 BYTE   N12  An1
 BYTE   W12
 BYTE   En1
 BYTE   W12
 BYTE   N24  Fs1
 BYTE   N12  An1
 BYTE   W12
 BYTE   N12
 BYTE   W06
 BYTE   PEND 
 BYTE   PATT
  POIN2 Label_9_013E7EC3
 BYTE   PATT
  POIN2 Label_9_013E7E85
 BYTE   PATT
  POIN2 Label_9_013E7EA4
 BYTE   PATT
  POIN2 Label_9_013E8010
// 016   ----------------------------------------
Label_9_013E80D2:
 BYTE   W06
 BYTE   N48  An1  v127
 BYTE   N24  Cs2
 BYTE   W24
 BYTE   N72
 BYTE   W24
 BYTE   N06  En1
 BYTE   W06
 BYTE   N06
 BYTE   W06
 BYTE   N12
 BYTE   W12
 BYTE   N06  Bn1
 BYTE   W06
 BYTE   N06
 BYTE   W06
 BYTE   N06
 BYTE   W06
 BYTE   PEND 
// 017   ----------------------------------------
Label_9_013E80EA:
 BYTE   N06  Bn1  v127
 BYTE   W06
 BYTE   N24  En1
 BYTE   N24  Cs2
 BYTE   W24
 BYTE   N12  An1
 BYTE   N24  Cs2
 BYTE   W12
 BYTE   N12  An1
 BYTE   W12
 BYTE   N24  Fs1
 BYTE   N12  An1
 BYTE   W12
 BYTE   En1
 BYTE   W12
 BYTE   N24  Fs1
 BYTE   N12  An1
 BYTE   W12
 BYTE   N12
 BYTE   W06
 BYTE   PEND 
 BYTE   PATT
  POIN2 Label_9_013E7EC3
 BYTE   PATT
  POIN2 Label_9_013E7E85
 BYTE   PATT
  POIN2 Label_9_013E7EA4
 BYTE   PATT
  POIN2 Label_9_013E7EC3
 BYTE   PATT
  POIN2 Label_9_013E7E85
 BYTE   PATT
  POIN2 Label_9_013E809E
 BYTE   PATT
  POIN2 Label_9_013E7EC3
 BYTE   PATT
  POIN2 Label_9_013E7E85
 BYTE   PATT
  POIN2 Label_9_013E7EA4
 BYTE   PATT
  POIN2 Label_9_013E7EC3
 BYTE   PATT
  POIN2 Label_9_013E7E85
 BYTE   PATT
  POIN2 Label_9_013E809E
 BYTE   PATT
  POIN2 Label_9_013E7EC3
 BYTE   PATT
  POIN2 Label_9_013E7E85
 BYTE   PATT
  POIN2 Label_9_013E7EA4
 BYTE   PATT
  POIN2 Label_9_013E7EC3
 BYTE   PATT
  POIN2 Label_9_013E7E85
 BYTE   PATT
  POIN2 Label_9_013E809E
 BYTE   PATT
  POIN2 Label_9_013E7EC3
 BYTE   PATT
  POIN2 Label_9_013E7E85
// 018   ----------------------------------------
Label_9_013E816E:
 BYTE   W06
 BYTE   N24  Fs1  v127
 BYTE   N12  An1
 BYTE   W12
 BYTE   N12
 BYTE   W12
 BYTE   N12
 BYTE   N24  Cs2
 BYTE   W12
 BYTE   N12  An1
 BYTE   W12
 BYTE   N24  Fs1
 BYTE   N12  An1
 BYTE   W12
 BYTE   En1
 BYTE   W12
 BYTE   N24  Fs1
 BYTE   N12  An1
 BYTE   W12
 BYTE   N12
 BYTE   W06
 BYTE   PEND 
 BYTE   PATT
  POIN2 Label_9_013E7EC3
 BYTE   PATT
  POIN2 Label_9_013E7E85
// 019   ----------------------------------------
Label_9_013E8197:
 BYTE   W06
 BYTE   N12  En1  v127
 BYTE   N24  Fs1
 BYTE   W12
 BYTE   N12  En1
 BYTE   W12
 BYTE   N24  An1
 BYTE   N24  Cs2
 BYTE   W24
 BYTE   An1
 BYTE   N24  Cs2
 BYTE   W24
 BYTE   An1
 BYTE   N24  Cs2
 BYTE   W18
 BYTE   PEND 
// 020   ----------------------------------------
Label_9_013E81AF:
 BYTE   W06
 BYTE   N24  An1  v127
 BYTE   N24  Cs2
 BYTE   W24
 BYTE   An1
 BYTE   N24  Cs2
 BYTE   W24
 BYTE   An1
 BYTE   TIE  Cs2
 BYTE   W24
 BYTE   N06  Bn1
 BYTE   W06
 BYTE   N18
 BYTE   W12
 BYTE   PEND 
// 021   ----------------------------------------
Label_9_013E81C4:
 BYTE   W06
 BYTE   N24  Bn1  v127
 BYTE   W24
 BYTE   N24
 BYTE   W24
 BYTE   N12
 BYTE   W12
 BYTE   N12
 BYTE   W12
 BYTE   N24
 BYTE   W18
 BYTE   PEND 
// 022   ----------------------------------------
 BYTE   W06
 BYTE   EOT
 BYTE   Cs2
 BYTE   N24  Bn1
 BYTE   N72  Cs2
 BYTE   W24
 BYTE   N24  En1
 BYTE   W24
 BYTE   N12
 BYTE   W12
 BYTE   N12
 BYTE   W12
 BYTE   N12
 BYTE   N72  Cs2
 BYTE   W12
 BYTE   N12  En1
 BYTE   W06
// 023   ----------------------------------------
 BYTE   W06
 BYTE   N12
 BYTE   W12
 BYTE   N06  Bn1
 BYTE   W06
 BYTE   N06
 BYTE   W06
 BYTE   N24  En1
 BYTE   W24
 BYTE   N12
 BYTE   N24  Fs1
 BYTE   W12
 BYTE   N06  Bn1
 BYTE   W06
 BYTE   N06
 BYTE   W06
 BYTE   N12  An1
 BYTE   N24  Cs2
 BYTE   W12
 BYTE   N12  An1
 BYTE   W06
 BYTE   PATT
  POIN2 Label_9_013E7E85
 BYTE   PATT
  POIN2 Label_9_013E7EA4
 BYTE   PATT
  POIN2 Label_9_013E7EC3
 BYTE   PATT
  POIN2 Label_9_013E7E85
 BYTE   PATT
  POIN2 Label_9_013E7EA4
 BYTE   PATT
  POIN2 Label_9_013E7EEC
 BYTE   PATT
  POIN2 Label_9_013E7E85
 BYTE   PATT
  POIN2 Label_9_013E7EA4
 BYTE   PATT
  POIN2 Label_9_013E7EC3
 BYTE   PATT
  POIN2 Label_9_013E7F1A
 BYTE   PATT
  POIN2 Label_9_013E7F33
 BYTE   PATT
  POIN2 Label_9_013E7F46
 BYTE   PATT
  POIN2 Label_9_013E7E85
 BYTE   PATT
  POIN2 Label_9_013E7EA4
 BYTE   PATT
  POIN2 Label_9_013E7EC3
 BYTE   PATT
  POIN2 Label_9_013E7E85
 BYTE   PATT
  POIN2 Label_9_013E7EA4
 BYTE   PATT
  POIN2 Label_9_013E7EEC
 BYTE   PATT
  POIN2 Label_9_013E7E85
 BYTE   PATT
  POIN2 Label_9_013E7EA4
 BYTE   PATT
  POIN2 Label_9_013E7EC3
 BYTE   PATT
  POIN2 Label_9_013E7E85
 BYTE   PATT
  POIN2 Label_9_013E7EA4
 BYTE   PATT
  POIN2 Label_9_013E7EEC
 BYTE   PATT
  POIN2 Label_9_013E7E85
 BYTE   PATT
  POIN2 Label_9_013E7EA4
 BYTE   PATT
  POIN2 Label_9_013E7EC3
 BYTE   PATT
  POIN2 Label_9_013E7E85
 BYTE   PATT
  POIN2 Label_9_013E7EA4
 BYTE   PATT
  POIN2 Label_9_013E7EEC
 BYTE   PATT
  POIN2 Label_9_013E7E85
 BYTE   PATT
  POIN2 Label_9_013E7EA4
 BYTE   PATT
  POIN2 Label_9_013E7FCA
 BYTE   PATT
  POIN2 Label_9_013E7E85
 BYTE   PATT
  POIN2 Label_9_013E7EA4
 BYTE   PATT
  POIN2 Label_9_013E7FF3
 BYTE   PATT
  POIN2 Label_9_013E8010
 BYTE   PATT
  POIN2 Label_9_013E8024
 BYTE   PATT
  POIN2 Label_9_013E8035
// 024   ----------------------------------------
 BYTE   EOT
 BYTE   Cs2
 BYTE   N24  Bn1  v127
 BYTE   N72  Cs2
 BYTE   W24
 BYTE   N24  En1
 BYTE   W18
 BYTE   PATT
  POIN2 Label_9_013E8049
 BYTE   PATT
  POIN2 Label_9_013E8062
 BYTE   PATT
  POIN2 Label_9_013E7EC3
 BYTE   PATT
  POIN2 Label_9_013E7E85
 BYTE   PATT
  POIN2 Label_9_013E7EA4
 BYTE   PATT
  POIN2 Label_9_013E7EC3
 BYTE   PATT
  POIN2 Label_9_013E7E85
 BYTE   PATT
  POIN2 Label_9_013E809E
 BYTE   PATT
  POIN2 Label_9_013E7EC3
 BYTE   PATT
  POIN2 Label_9_013E7E85
 BYTE   PATT
  POIN2 Label_9_013E7EA4
 BYTE   PATT
  POIN2 Label_9_013E8010
 BYTE   PATT
  POIN2 Label_9_013E80D2
 BYTE   PATT
  POIN2 Label_9_013E80EA
 BYTE   PATT
  POIN2 Label_9_013E7EC3
 BYTE   PATT
  POIN2 Label_9_013E7E85
 BYTE   PATT
  POIN2 Label_9_013E7EA4
 BYTE   PATT
  POIN2 Label_9_013E7EC3
 BYTE   PATT
  POIN2 Label_9_013E7E85
 BYTE   PATT
  POIN2 Label_9_013E809E
 BYTE   PATT
  POIN2 Label_9_013E7EC3
 BYTE   PATT
  POIN2 Label_9_013E7E85
 BYTE   PATT
  POIN2 Label_9_013E7EA4
 BYTE   PATT
  POIN2 Label_9_013E7EC3
 BYTE   PATT
  POIN2 Label_9_013E7E85
 BYTE   PATT
  POIN2 Label_9_013E809E
 BYTE   PATT
  POIN2 Label_9_013E7EC3
 BYTE   PATT
  POIN2 Label_9_013E7E85
 BYTE   PATT
  POIN2 Label_9_013E7EA4
 BYTE   PATT
  POIN2 Label_9_013E7EC3
 BYTE   PATT
  POIN2 Label_9_013E7E85
 BYTE   PATT
  POIN2 Label_9_013E809E
 BYTE   PATT
  POIN2 Label_9_013E7EC3
 BYTE   PATT
  POIN2 Label_9_013E7E85
 BYTE   PATT
  POIN2 Label_9_013E816E
 BYTE   PATT
  POIN2 Label_9_013E7EC3
 BYTE   PATT
  POIN2 Label_9_013E7E85
 BYTE   PATT
  POIN2 Label_9_013E8197
 BYTE   PATT
  POIN2 Label_9_013E81AF
 BYTE   PATT
  POIN2 Label_9_013E81C4
// 025   ----------------------------------------
 BYTE   W06
 BYTE   EOT
 BYTE   Cs2
 BYTE   N24  Bn1  v127
 BYTE   N72  Cs2
 BYTE   W24
 BYTE   N24  En1
 BYTE   W24
 BYTE   N12
 BYTE   W12
 BYTE   N12
 BYTE   W12
 BYTE   N12
 BYTE   N72  Cs2
 BYTE   W12
 BYTE   N12  En1
 BYTE   W06
// 026   ----------------------------------------
 BYTE   W06
 BYTE   N12
 BYTE   W12
 BYTE   N06  Bn1
 BYTE   W06
 BYTE   N06
 BYTE   W06
 BYTE   N24  En1
 BYTE   W24
 BYTE   N12
 BYTE   N24  Fs1
 BYTE   W12
 BYTE   N06  Bn1
 BYTE   W06
 BYTE   N06
 BYTE   W06
 BYTE   N12  An1
 BYTE   N24  Cs2
 BYTE   W12
 BYTE   N12  An1  v124
 BYTE   W06
// 027   ----------------------------------------
 BYTE   W06
 BYTE   N24  Fs1  v116
 BYTE   N12  An1
 BYTE   W12
 BYTE   En1  v108
 BYTE   W12
 BYTE   N24  Fs1  v100
 BYTE   N12  An1
 BYTE   W12
 BYTE   An1  v088
 BYTE   W12
 BYTE   N24  Fs1  v072
 BYTE   N12  An1
 BYTE   W12
 BYTE   An1  v052
 BYTE   W12
 BYTE   Fs1  v020
 BYTE   N12  An1
 BYTE   W18
 BYTE   FINE

//******************************************************//
	ALIGN 4

FFMysticQuestVolcanoFeier:
	BYTE	10	// NumTrks
	BYTE	0	// NumBlks
	BYTE	FFMysticQuestVolcanoFeier_pri	// Priority
	BYTE	FFMysticQuestVolcanoFeier_rev	// Reverb.
    
	POIN2	FFMysticQuestVolcanoFeier_grp
    
	POIN2	FFMysticQuestVolcanoFeier_001
	POIN2	FFMysticQuestVolcanoFeier_002
	POIN2	FFMysticQuestVolcanoFeier_003
	POIN2	FFMysticQuestVolcanoFeier_004
	POIN2	FFMysticQuestVolcanoFeier_005
	POIN2	FFMysticQuestVolcanoFeier_006
	POIN2	FFMysticQuestVolcanoFeier_007
	POIN2	FFMysticQuestVolcanoFeier_008
	POIN2	FFMysticQuestVolcanoFeier_009
	POIN2	FFMysticQuestVolcanoFeier_010

	
