//Event file generated from Sappy .s format.
	#include "MPlayDef.event"

	#define	FFTBackFireRandomWizard_grp  voicegroup000
	#define	FFTBackFireRandomWizard_pri  0
	#define	FFTBackFireRandomWizard_rev  0
	#define	FFTBackFireRandomWizard_mvl  127
	#define	FFTBackFireRandomWizard_key  0
	#define	FFTBackFireRandomWizard_tbs  1
	#define	FFTBackFireRandomWizard_exg  0
	#define	FFTBackFireRandomWizard_cmp  1

	// .rodata
	//	FFTBackFireRandomWizard
	ALIGN 4


//**************** Track 1 (Midi-Chn.0) ****************//

FFTBackFireRandomWizard_001:
// 000   ----------------------------------------
 BYTE   KEYSH   FFTBackFireRandomWizard_key+0
Label_0_014C62A2:
 BYTE   TEMPO   214*FFTBackFireRandomWizard_tbs/2
 BYTE   VOICE   40
 BYTE   VOL   40*FFTBackFireRandomWizard_mvl/mxv
 BYTE   N24  An2  v092
 BYTE   W36
 BYTE   TIE
 BYTE   TIE  An3
 BYTE   W36
 BYTE   W72
// 001   ----------------------------------------
 BYTE   W72
 BYTE   W60
// 002   ----------------------------------------
 BYTE   EOT
 BYTE   W04
 BYTE   EOT
 BYTE   An2
 BYTE   W08
 BYTE   N24
 BYTE   W36
 BYTE   TIE
 BYTE   TIE  An3
 BYTE   W36
 BYTE   W72
// 003   ----------------------------------------
 BYTE   W72
 BYTE   W60
// 004   ----------------------------------------
 BYTE   EOT
 BYTE   W04
 BYTE   EOT
 BYTE   An2
 BYTE   W08
 BYTE   TIE
 BYTE   N08  An3
 BYTE   W12
 BYTE   Gn3
 BYTE   W12
 BYTE   An3
 BYTE   W12
 BYTE   N08
 BYTE   W12
 BYTE   Gn3
 BYTE   W12
 BYTE   An3
 BYTE   W12
 BYTE   N24  As3
 BYTE   W36
// 005   ----------------------------------------
 BYTE   Gn3
 BYTE   W36
 BYTE   N08  An3
 BYTE   W12
 BYTE   Gn3
 BYTE   W12
 BYTE   An3
 BYTE   W12
 BYTE   N08
 BYTE   W12
 BYTE   Gn3
 BYTE   W12
// 006   ----------------------------------------
 BYTE   An3
 BYTE   W12
 BYTE   N24  As3
 BYTE   W36
 BYTE   Gn3
 BYTE   W28
 BYTE   EOT
 BYTE   An2
 BYTE   W08
 BYTE   TIE
 BYTE   N08  An3
 BYTE   N08  An4
 BYTE   W12
// 007   ----------------------------------------
 BYTE   Gn3
 BYTE   N08  Gn4
 BYTE   W12
 BYTE   An3
 BYTE   N08  An4
 BYTE   W12
 BYTE   An3
 BYTE   N08  An4
 BYTE   W12
 BYTE   Gn3
 BYTE   N08  Gn4
 BYTE   W12
 BYTE   An3
 BYTE   N08  An4
 BYTE   W12
 BYTE   N24  As3
 BYTE   N24  As4
 BYTE   W36
// 008   ----------------------------------------
 BYTE   Gn3
 BYTE   N24  Gn4
 BYTE   W36
 BYTE   N08  An3
 BYTE   N08  An4
 BYTE   W12
 BYTE   Gn3
 BYTE   N08  Gn4
 BYTE   W12
 BYTE   An3
 BYTE   N08  An4
 BYTE   W12
 BYTE   An3
 BYTE   N08  An4
 BYTE   W12
 BYTE   Gn3
 BYTE   N08  Gn4
 BYTE   W12
// 009   ----------------------------------------
 BYTE   An3
 BYTE   N08  An4
 BYTE   W12
 BYTE   N24  As3
 BYTE   N08  Fn4
 BYTE   N08  As4
 BYTE   W12
 BYTE   Fn4
 BYTE   N08  Cs5
 BYTE   W12
 BYTE   Fn4
 BYTE   N08  Fn5
 BYTE   W12
 BYTE   N24  Gn3
 BYTE   N08  As4
 BYTE   N08  En5
 BYTE   W12
 BYTE   As4
 BYTE   N08  Gn5
 BYTE   W12
 BYTE   As4
 BYTE   N08  As5
 BYTE   W04
 BYTE   EOT
 BYTE   An2
 BYTE   W08
Label_0_014C634B:
 BYTE   N48  Cn4  v092
 BYTE   N48  An4
 BYTE   W60
// 010   ----------------------------------------
 BYTE   N08  Cn4
 BYTE   N08  Gn4
 BYTE   W12
 BYTE   PEND 
Label_0_014C6357:
 BYTE   N48  Dn4  v092
 BYTE   N48  An4
 BYTE   W60
 BYTE   N08  Dn4
 BYTE   N08  Gn4
 BYTE   W12
 BYTE   PEND 
Label_0_014C6363:
 BYTE   N48  En4  v092
 BYTE   N48  An4
 BYTE   W60
// 011   ----------------------------------------
 BYTE   N08  En4
 BYTE   N08  Gn4
 BYTE   W12
 BYTE   PEND 
Label_0_014C636F:
 BYTE   N24  Ds4  v092
 BYTE   N24  As4
 BYTE   W36
 BYTE   Dn4
 BYTE   N24  Gn4
 BYTE   W36
 BYTE   PEND 
 BYTE   PATT
  POIN2 Label_0_014C634B
 BYTE   PATT
  POIN2 Label_0_014C6357
 BYTE   PATT
  POIN2 Label_0_014C6363
// 012   ----------------------------------------
Label_0_014C6389:
 BYTE   N24  Gn3  v092
 BYTE   N24  Ds4
 BYTE   W36
 BYTE   As3
 BYTE   N24  Dn4
 BYTE   W36
 BYTE   PEND 
 BYTE   PATT
  POIN2 Label_0_014C634B
 BYTE   PATT
  POIN2 Label_0_014C6357
 BYTE   PATT
  POIN2 Label_0_014C6363
 BYTE   PATT
  POIN2 Label_0_014C636F
 BYTE   PATT
  POIN2 Label_0_014C634B
 BYTE   PATT
  POIN2 Label_0_014C6357
 BYTE   PATT
  POIN2 Label_0_014C6363
 BYTE   PATT
  POIN2 Label_0_014C6389
 BYTE   PATT
  POIN2 Label_0_014C634B
 BYTE   PATT
  POIN2 Label_0_014C6357
 BYTE   PATT
  POIN2 Label_0_014C6363
 BYTE   PATT
  POIN2 Label_0_014C636F
 BYTE   PATT
  POIN2 Label_0_014C634B
 BYTE   PATT
  POIN2 Label_0_014C6357
 BYTE   PATT
  POIN2 Label_0_014C6363
 BYTE   PATT
  POIN2 Label_0_014C6389
 BYTE   PATT
  POIN2 Label_0_014C634B
 BYTE   PATT
  POIN2 Label_0_014C6357
 BYTE   PATT
  POIN2 Label_0_014C6363
 BYTE   PATT
  POIN2 Label_0_014C636F
 BYTE   PATT
  POIN2 Label_0_014C634B
 BYTE   PATT
  POIN2 Label_0_014C6357
 BYTE   PATT
  POIN2 Label_0_014C6363
 BYTE   PATT
  POIN2 Label_0_014C6389
 BYTE   PATT
  POIN2 Label_0_014C634B
 BYTE   PATT
  POIN2 Label_0_014C6357
 BYTE   PATT
  POIN2 Label_0_014C6363
 BYTE   PATT
  POIN2 Label_0_014C636F
 BYTE   PATT
  POIN2 Label_0_014C634B
 BYTE   PATT
  POIN2 Label_0_014C6357
 BYTE   PATT
  POIN2 Label_0_014C6363
 BYTE   PATT
  POIN2 Label_0_014C6389
 BYTE   PATT
  POIN2 Label_0_014C634B
 BYTE   PATT
  POIN2 Label_0_014C6357
 BYTE   PATT
  POIN2 Label_0_014C6363
 BYTE   PATT
  POIN2 Label_0_014C636F
 BYTE   PATT
  POIN2 Label_0_014C634B
 BYTE   PATT
  POIN2 Label_0_014C6357
 BYTE   PATT
  POIN2 Label_0_014C6363
 BYTE   PATT
  POIN2 Label_0_014C6389
// 013   ----------------------------------------
 BYTE   N08  An3  v092
 BYTE   W12
 BYTE   Gn3
 BYTE   W12
 BYTE   An3
 BYTE   W12
 BYTE   N08
 BYTE   N32  An4
 BYTE   W12
 BYTE   N08  Gn3
 BYTE   W12
 BYTE   An3
 BYTE   W12
 BYTE   N24  As3
 BYTE   N40  As4
 BYTE   W36
// 014   ----------------------------------------
 BYTE   N24  Gn3
 BYTE   N32  Gn4
 BYTE   W36
 BYTE   N08  Cn4
 BYTE   W12
 BYTE   Bn3
 BYTE   W12
 BYTE   Cn4
 BYTE   W12
 BYTE   N08
 BYTE   W12
 BYTE   Bn3
 BYTE   W12
// 015   ----------------------------------------
 BYTE   Cn4
 BYTE   W12
 BYTE   Cs4
 BYTE   W12
 BYTE   En4
 BYTE   W12
 BYTE   Gn4
 BYTE   W12
 BYTE   Ds4
 BYTE   W12
 BYTE   Fs4
 BYTE   W12
 BYTE   An4
 BYTE   W12
Label_0_014C6490:
 BYTE   TIE  Gn4  v092
 BYTE   TIE  An4
 BYTE   W72
 BYTE   PEND 
// 016   ----------------------------------------
 BYTE   W72
 BYTE   W72
// 017   ----------------------------------------
 BYTE   W72
 BYTE   W72
// 018   ----------------------------------------
 BYTE   W72
 BYTE   W72
// 019   ----------------------------------------
 BYTE   W56
 BYTE   EOT
 BYTE   W08
 BYTE   EOT
 BYTE   Gn4
 BYTE   W08
Label_0_014C64A3:
 BYTE   TIE  Gn4  v092
 BYTE   TIE  As4
 BYTE   W72
 BYTE   PEND 
// 020   ----------------------------------------
 BYTE   W72
 BYTE   W72
// 021   ----------------------------------------
 BYTE   W72
 BYTE   W72
// 022   ----------------------------------------
 BYTE   W72
 BYTE   W72
// 023   ----------------------------------------
 BYTE   W56
 BYTE   EOT
 BYTE   Gn4  v082
 BYTE   W16
 BYTE   PATT
  POIN2 Label_0_014C6490
// 024   ----------------------------------------
 BYTE   W72
 BYTE   W72
// 025   ----------------------------------------
 BYTE   W72
 BYTE   W72
// 026   ----------------------------------------
 BYTE   W72
 BYTE   W72
// 027   ----------------------------------------
 BYTE   W56
 BYTE   EOT
 BYTE   An4
 BYTE   W08
 BYTE   Gn4
 BYTE   W08
 BYTE   PATT
  POIN2 Label_0_014C64A3
// 028   ----------------------------------------
 BYTE   W72
 BYTE   W72
// 029   ----------------------------------------
 BYTE   W72
 BYTE   W72
// 030   ----------------------------------------
 BYTE   W56
 BYTE   EOT
 BYTE   Gn4  v082
 BYTE   W16
 BYTE   N32  En4  v092
 BYTE   W12
 BYTE   N08  Dn4
 BYTE   W12
// 031   ----------------------------------------
 BYTE   Cn4
 BYTE   W12
 BYTE   N32  Dn4
 BYTE   W12
 BYTE   N08  Cn4
 BYTE   W12
 BYTE   Bn3
 BYTE   W12
 BYTE   N32  Cn4
 BYTE   W12
 BYTE   N08  Bn3
 BYTE   W12
 BYTE   An3
 BYTE   W12
 BYTE   N32  Bn3
 BYTE   W12
// 032   ----------------------------------------
 BYTE   N08  An3
 BYTE   W12
 BYTE   Gn3
 BYTE   W12
 BYTE   GoTo
  POIN2 Label_0_014C62A2
 BYTE   FINE

//**************** Track 2 (Midi-Chn.1) ****************//

FFTBackFireRandomWizard_002:
// 000   ----------------------------------------
 BYTE   KEYSH   FFTBackFireRandomWizard_key+0
Label_1_014C650A:
 BYTE   VOICE   51
 BYTE   VOL   40*FFTBackFireRandomWizard_mvl/mxv
 BYTE   N08  An2  v100
 BYTE   W12
 BYTE   Gn2
 BYTE   W12
 BYTE   An2
 BYTE   W12
 BYTE   N08
 BYTE   W12
 BYTE   Gn2
 BYTE   W12
 BYTE   An2
 BYTE   W12
Label_1_014C651C:
 BYTE   N24  As2  v100
 BYTE   W36
// 001   ----------------------------------------
 BYTE   Gn2
 BYTE   W36
 BYTE   PEND 
Label_1_014C6523:
 BYTE   N08  An2  v100
 BYTE   W12
 BYTE   Gn2
 BYTE   W12
 BYTE   An2
 BYTE   W12
 BYTE   N08
 BYTE   W12
 BYTE   Gn2
 BYTE   W12
// 002   ----------------------------------------
 BYTE   An2
 BYTE   W12
 BYTE   PEND 
 BYTE   PATT
  POIN2 Label_1_014C651C
 BYTE   PATT
  POIN2 Label_1_014C6523
 BYTE   PATT
  POIN2 Label_1_014C651C
 BYTE   PATT
  POIN2 Label_1_014C6523
 BYTE   PATT
  POIN2 Label_1_014C651C
 BYTE   PATT
  POIN2 Label_1_014C6523
 BYTE   PATT
  POIN2 Label_1_014C651C
 BYTE   PATT
  POIN2 Label_1_014C6523
 BYTE   PATT
  POIN2 Label_1_014C651C
 BYTE   PATT
  POIN2 Label_1_014C6523
 BYTE   PATT
  POIN2 Label_1_014C651C
 BYTE   PATT
  POIN2 Label_1_014C6523
 BYTE   PATT
  POIN2 Label_1_014C651C
// 003   ----------------------------------------
Label_1_014C6573:
 BYTE   N24  An1  v100
 BYTE   N24  An2
 BYTE   W36
 BYTE   An1
 BYTE   N24  An2
 BYTE   W36
 BYTE   PEND 
Label_1_014C657E:
 BYTE   N24  As1  v100
 BYTE   N24  As2
 BYTE   W36
// 004   ----------------------------------------
 BYTE   As1
 BYTE   N24  As2
 BYTE   W36
 BYTE   PEND 
 BYTE   PATT
  POIN2 Label_1_014C6573
// 005   ----------------------------------------
Label_1_014C658E:
 BYTE   N24  Cn2  v100
 BYTE   N24  Cn3
 BYTE   W36
 BYTE   Cn2
 BYTE   N24  Cn3
 BYTE   W36
 BYTE   PEND 
 BYTE   PATT
  POIN2 Label_1_014C6573
 BYTE   PATT
  POIN2 Label_1_014C657E
 BYTE   PATT
  POIN2 Label_1_014C6573
// 006   ----------------------------------------
Label_1_014C65A8:
 BYTE   N24  Gn1  v100
 BYTE   N24  Gn2
 BYTE   W36
 BYTE   Gn1
 BYTE   N24  Gn2
 BYTE   W36
 BYTE   PEND 
 BYTE   PATT
  POIN2 Label_1_014C6573
 BYTE   PATT
  POIN2 Label_1_014C657E
 BYTE   PATT
  POIN2 Label_1_014C6573
 BYTE   PATT
  POIN2 Label_1_014C658E
 BYTE   PATT
  POIN2 Label_1_014C6573
 BYTE   PATT
  POIN2 Label_1_014C657E
 BYTE   PATT
  POIN2 Label_1_014C6573
 BYTE   PATT
  POIN2 Label_1_014C65A8
 BYTE   PATT
  POIN2 Label_1_014C6573
 BYTE   PATT
  POIN2 Label_1_014C657E
 BYTE   PATT
  POIN2 Label_1_014C6573
 BYTE   PATT
  POIN2 Label_1_014C658E
 BYTE   PATT
  POIN2 Label_1_014C6573
 BYTE   PATT
  POIN2 Label_1_014C657E
 BYTE   PATT
  POIN2 Label_1_014C6573
 BYTE   PATT
  POIN2 Label_1_014C65A8
 BYTE   PATT
  POIN2 Label_1_014C6573
 BYTE   PATT
  POIN2 Label_1_014C657E
 BYTE   PATT
  POIN2 Label_1_014C6573
 BYTE   PATT
  POIN2 Label_1_014C658E
 BYTE   PATT
  POIN2 Label_1_014C6573
 BYTE   PATT
  POIN2 Label_1_014C657E
 BYTE   PATT
  POIN2 Label_1_014C6573
 BYTE   PATT
  POIN2 Label_1_014C65A8
 BYTE   PATT
  POIN2 Label_1_014C6573
 BYTE   PATT
  POIN2 Label_1_014C657E
 BYTE   PATT
  POIN2 Label_1_014C6573
 BYTE   PATT
  POIN2 Label_1_014C658E
 BYTE   PATT
  POIN2 Label_1_014C6573
 BYTE   PATT
  POIN2 Label_1_014C657E
 BYTE   PATT
  POIN2 Label_1_014C6573
 BYTE   PATT
  POIN2 Label_1_014C65A8
 BYTE   PATT
  POIN2 Label_1_014C6573
 BYTE   PATT
  POIN2 Label_1_014C657E
 BYTE   PATT
  POIN2 Label_1_014C6573
 BYTE   PATT
  POIN2 Label_1_014C658E
 BYTE   PATT
  POIN2 Label_1_014C6573
 BYTE   PATT
  POIN2 Label_1_014C657E
 BYTE   PATT
  POIN2 Label_1_014C6573
 BYTE   PATT
  POIN2 Label_1_014C65A8
// 007   ----------------------------------------
 BYTE   N16  An1  v100
 BYTE   N08  An2
 BYTE   W12
 BYTE   Gn2
 BYTE   W12
 BYTE   An2
 BYTE   W12
 BYTE   N16  An1
 BYTE   N08  An2
 BYTE   W12
 BYTE   Gn2
 BYTE   W12
 BYTE   An2
 BYTE   W12
 BYTE   N16  As1
 BYTE   N24  As2
 BYTE   W36
// 008   ----------------------------------------
 BYTE   N16  As1
 BYTE   N24  Gn2
 BYTE   W36
 BYTE   N16  Cn2
 BYTE   N08  Cn3
 BYTE   W12
 BYTE   Bn2
 BYTE   W12
 BYTE   Cn3
 BYTE   W12
 BYTE   N16  Cn2
 BYTE   N08  Cn3
 BYTE   W12
 BYTE   Bn2
 BYTE   W12
// 009   ----------------------------------------
 BYTE   Cn3
 BYTE   W12
 BYTE   N16  Cs2
 BYTE   N24  Cs3
 BYTE   W12
 BYTE   N08  En3
 BYTE   W12
 BYTE   Gn3
 BYTE   W12
 BYTE   N16  Cs2
 BYTE   N08  Ds3
 BYTE   W12
 BYTE   Fs3
 BYTE   W12
 BYTE   An3
 BYTE   W12
Label_1_014C66BD:
 BYTE   N16  Dn2  v100
 BYTE   N16  Dn3
 BYTE   W36
// 010   ----------------------------------------
 BYTE   Dn2
 BYTE   N16  Dn3
 BYTE   W36
 BYTE   PEND 
Label_1_014C66C8:
 BYTE   N16  Ds2  v100
 BYTE   N16  Ds3
 BYTE   W36
 BYTE   Ds2
 BYTE   N16  Ds3
 BYTE   W36
 BYTE   PEND 
 BYTE   PATT
  POIN2 Label_1_014C66BD
// 011   ----------------------------------------
Label_1_014C66D8:
 BYTE   N16  Cn2  v100
 BYTE   N16  Ds3
 BYTE   W36
 BYTE   Cn2
 BYTE   N16  Ds3
 BYTE   W36
 BYTE   PEND 
 BYTE   PATT
  POIN2 Label_1_014C66BD
 BYTE   PATT
  POIN2 Label_1_014C66C8
 BYTE   PATT
  POIN2 Label_1_014C66BD
 BYTE   PATT
  POIN2 Label_1_014C66D8
 BYTE   PATT
  POIN2 Label_1_014C66BD
 BYTE   PATT
  POIN2 Label_1_014C66C8
 BYTE   PATT
  POIN2 Label_1_014C66BD
 BYTE   PATT
  POIN2 Label_1_014C66D8
 BYTE   PATT
  POIN2 Label_1_014C66BD
 BYTE   PATT
  POIN2 Label_1_014C66C8
 BYTE   PATT
  POIN2 Label_1_014C66BD
 BYTE   PATT
  POIN2 Label_1_014C66D8
 BYTE   PATT
  POIN2 Label_1_014C66BD
 BYTE   PATT
  POIN2 Label_1_014C66C8
 BYTE   PATT
  POIN2 Label_1_014C66BD
 BYTE   PATT
  POIN2 Label_1_014C66D8
 BYTE   PATT
  POIN2 Label_1_014C66BD
 BYTE   PATT
  POIN2 Label_1_014C66C8
 BYTE   PATT
  POIN2 Label_1_014C66BD
 BYTE   PATT
  POIN2 Label_1_014C66D8
 BYTE   PATT
  POIN2 Label_1_014C66BD
 BYTE   PATT
  POIN2 Label_1_014C66C8
 BYTE   PATT
  POIN2 Label_1_014C66BD
 BYTE   PATT
  POIN2 Label_1_014C66D8
 BYTE   PATT
  POIN2 Label_1_014C66BD
 BYTE   PATT
  POIN2 Label_1_014C66C8
// 012   ----------------------------------------
 BYTE   N16  Gs1  v100
 BYTE   N16  Gs2
 BYTE   W36
 BYTE   Gn1
 BYTE   N16  Gn2
 BYTE   W36
 BYTE   Fs1
 BYTE   N16  Fs2
 BYTE   W36
// 013   ----------------------------------------
 BYTE   En1
 BYTE   N16  En2
 BYTE   W36
 BYTE   GoTo
  POIN2 Label_1_014C650A
 BYTE   FINE

//**************** Track 3 (Midi-Chn.2) ****************//

FFTBackFireRandomWizard_003:
// 000   ----------------------------------------
 BYTE   KEYSH   FFTBackFireRandomWizard_key+0
Label_2_014C678A:
 BYTE   VOICE   60
 BYTE   VOL   40*FFTBackFireRandomWizard_mvl/mxv
 BYTE   W72
 BYTE   W72
// 001   ----------------------------------------
 BYTE   W72
 BYTE   W72
// 002   ----------------------------------------
 BYTE   W72
 BYTE   W72
// 003   ----------------------------------------
 BYTE   W72
 BYTE   W72
// 004   ----------------------------------------
 BYTE   W72
 BYTE   W72
// 005   ----------------------------------------
 BYTE   W72
 BYTE   W72
// 006   ----------------------------------------
 BYTE   W72
 BYTE   W72
// 007   ----------------------------------------
 BYTE   W72
 BYTE   W72
// 008   ----------------------------------------
 BYTE   W72
 BYTE   W72
// 009   ----------------------------------------
 BYTE   W72
 BYTE   W72
// 010   ----------------------------------------
 BYTE   W72
 BYTE   W72
// 011   ----------------------------------------
 BYTE   W72
 BYTE   W72
// 012   ----------------------------------------
 BYTE   N48  An2  v112
 BYTE   W72
 BYTE   As2
 BYTE   W72
// 013   ----------------------------------------
 BYTE   En3
 BYTE   W72
 BYTE   Ds3
 BYTE   W72
// 014   ----------------------------------------
 BYTE   N56  En3
 BYTE   W72
 BYTE   Gn3
 BYTE   W72
// 015   ----------------------------------------
 BYTE   An3
 BYTE   W72
 BYTE   As3
 BYTE   W72
// 016   ----------------------------------------
 BYTE   N48  An2
 BYTE   W72
 BYTE   As2
 BYTE   W72
// 017   ----------------------------------------
 BYTE   En3
 BYTE   W72
 BYTE   Ds3
 BYTE   W72
// 018   ----------------------------------------
 BYTE   N56  En3
 BYTE   W72
 BYTE   Gn3
 BYTE   W72
// 019   ----------------------------------------
 BYTE   An3
 BYTE   W72
 BYTE   As3
 BYTE   W72
// 020   ----------------------------------------
 BYTE   N48  An2
 BYTE   W72
 BYTE   As2
 BYTE   W72
// 021   ----------------------------------------
 BYTE   En3
 BYTE   W72
 BYTE   Ds3
 BYTE   W72
// 022   ----------------------------------------
 BYTE   N56  En3
 BYTE   W72
 BYTE   Gn3
 BYTE   W72
// 023   ----------------------------------------
 BYTE   An3
 BYTE   W72
 BYTE   As3
 BYTE   W72
// 024   ----------------------------------------
 BYTE   N48  An2
 BYTE   W72
 BYTE   As2
 BYTE   W72
// 025   ----------------------------------------
 BYTE   En3
 BYTE   W72
 BYTE   Ds3
 BYTE   W72
// 026   ----------------------------------------
 BYTE   N56  En3
 BYTE   W72
 BYTE   Gn3
 BYTE   W72
// 027   ----------------------------------------
 BYTE   An3
 BYTE   W72
 BYTE   As3
 BYTE   W72
// 028   ----------------------------------------
 BYTE   N48  An2
 BYTE   W72
 BYTE   As2
 BYTE   W72
// 029   ----------------------------------------
 BYTE   En3
 BYTE   W72
 BYTE   Ds3
 BYTE   W72
// 030   ----------------------------------------
 BYTE   N56  En3
 BYTE   W72
 BYTE   Gn3
 BYTE   W72
// 031   ----------------------------------------
 BYTE   An3
 BYTE   W72
 BYTE   As3
 BYTE   W72
// 032   ----------------------------------------
 BYTE   W72
 BYTE   W72
// 033   ----------------------------------------
 BYTE   W72
 BYTE   W72
// 034   ----------------------------------------
 BYTE   W72
 BYTE   W72
// 035   ----------------------------------------
 BYTE   W72
 BYTE   W72
// 036   ----------------------------------------
 BYTE   W72
 BYTE   W72
// 037   ----------------------------------------
 BYTE   W72
 BYTE   W72
// 038   ----------------------------------------
Label_2_014C680D:
 BYTE   W36
 BYTE   N16  Cn3  v112
 BYTE   N16  Gn3
 BYTE   W24
 BYTE   N08  Dn3
 BYTE   N08  An3
 BYTE   W12
 BYTE   PEND 
Label_2_014C681A:
 BYTE   N48  Dn3  v112
 BYTE   N48  An3
 BYTE   W60
// 039   ----------------------------------------
 BYTE   N08  Cn3
 BYTE   N08  Gn3
 BYTE   W12
 BYTE   PEND 
Label_2_014C6826:
 BYTE   N08  Ds3  v112
 BYTE   N08  As3
 BYTE   W24
 BYTE   Cn3
 BYTE   N08  Gn3
 BYTE   W12
 BYTE   N96  Dn3
 BYTE   N96  An3
 BYTE   W36
 BYTE   PEND 
 BYTE   W72
 BYTE   PATT
  POIN2 Label_2_014C680D
 BYTE   PATT
  POIN2 Label_2_014C681A
// 040   ----------------------------------------
 BYTE   N08  Ds3  v112
 BYTE   N08  As3
 BYTE   W24
 BYTE   Fn3
 BYTE   N08  Cn4
 BYTE   W12
 BYTE   N96  An3
 BYTE   N96  Dn4
 BYTE   W36
 BYTE   W72
// 041   ----------------------------------------
 BYTE   W72
 BYTE   W72
// 042   ----------------------------------------
 BYTE   W72
 BYTE   W72
// 043   ----------------------------------------
 BYTE   W72
 BYTE   W72
// 044   ----------------------------------------
 BYTE   W72
 BYTE   W72
 BYTE   PATT
  POIN2 Label_2_014C680D
 BYTE   PATT
  POIN2 Label_2_014C681A
 BYTE   PATT
  POIN2 Label_2_014C6826
// 045   ----------------------------------------
 BYTE   W72
 BYTE   PATT
  POIN2 Label_2_014C680D
 BYTE   PATT
  POIN2 Label_2_014C681A
// 046   ----------------------------------------
 BYTE   N32  Bn3  v112
 BYTE   W36
 BYTE   As3
 BYTE   W36
 BYTE   An3
 BYTE   W36
// 047   ----------------------------------------
 BYTE   Gs3
 BYTE   W36
 BYTE   GoTo
  POIN2 Label_2_014C678A
 BYTE   FINE

//**************** Track 4 (Midi-Chn.3) ****************//

FFTBackFireRandomWizard_004:
// 000   ----------------------------------------
 BYTE   KEYSH   FFTBackFireRandomWizard_key+0
Label_3_014C6892:
 BYTE   VOICE   58
 BYTE   VOL   40*FFTBackFireRandomWizard_mvl/mxv
 BYTE   N16  An0  v120
 BYTE   W36
 BYTE   N16
 BYTE   W36
 BYTE   W72
// 001   ----------------------------------------
Label_3_014C689D:
 BYTE   N16  An0  v120
 BYTE   W36
 BYTE   N16
 BYTE   W36
 BYTE   PEND 
Label_3_014C68A4:
 BYTE   N16  As0  v120
 BYTE   W36
// 002   ----------------------------------------
 BYTE   Gn0
 BYTE   W36
 BYTE   PEND 
 BYTE   PATT
  POIN2 Label_3_014C689D
// 003   ----------------------------------------
 BYTE   W72
 BYTE   PATT
  POIN2 Label_3_014C689D
 BYTE   PATT
  POIN2 Label_3_014C68A4
 BYTE   PATT
  POIN2 Label_3_014C689D
// 004   ----------------------------------------
 BYTE   W72
 BYTE   PATT
  POIN2 Label_3_014C689D
 BYTE   PATT
  POIN2 Label_3_014C68A4
 BYTE   PATT
  POIN2 Label_3_014C689D
// 005   ----------------------------------------
 BYTE   W72
 BYTE   PATT
  POIN2 Label_3_014C689D
 BYTE   PATT
  POIN2 Label_3_014C68A4
// 006   ----------------------------------------
Label_3_014C68DB:
 BYTE   N24  An0  v120
 BYTE   W36
 BYTE   N24
 BYTE   W36
 BYTE   PEND 
Label_3_014C68E2:
 BYTE   N24  As0  v120
 BYTE   W36
// 007   ----------------------------------------
 BYTE   N24
 BYTE   W36
 BYTE   PEND 
 BYTE   PATT
  POIN2 Label_3_014C68DB
// 008   ----------------------------------------
Label_3_014C68EE:
 BYTE   N24  Cn1  v120
 BYTE   W36
 BYTE   N24
 BYTE   W36
 BYTE   PEND 
 BYTE   PATT
  POIN2 Label_3_014C68DB
 BYTE   PATT
  POIN2 Label_3_014C68E2
 BYTE   PATT
  POIN2 Label_3_014C68DB
// 009   ----------------------------------------
Label_3_014C6904:
 BYTE   N24  Gn0  v120
 BYTE   W36
 BYTE   N24
 BYTE   W36
 BYTE   PEND 
 BYTE   PATT
  POIN2 Label_3_014C68DB
 BYTE   PATT
  POIN2 Label_3_014C68E2
 BYTE   PATT
  POIN2 Label_3_014C68DB
 BYTE   PATT
  POIN2 Label_3_014C68EE
 BYTE   PATT
  POIN2 Label_3_014C68DB
 BYTE   PATT
  POIN2 Label_3_014C68E2
 BYTE   PATT
  POIN2 Label_3_014C68DB
 BYTE   PATT
  POIN2 Label_3_014C6904
 BYTE   PATT
  POIN2 Label_3_014C68DB
 BYTE   PATT
  POIN2 Label_3_014C68E2
 BYTE   PATT
  POIN2 Label_3_014C68DB
 BYTE   PATT
  POIN2 Label_3_014C68EE
 BYTE   PATT
  POIN2 Label_3_014C68DB
 BYTE   PATT
  POIN2 Label_3_014C68E2
 BYTE   PATT
  POIN2 Label_3_014C68DB
 BYTE   PATT
  POIN2 Label_3_014C6904
 BYTE   PATT
  POIN2 Label_3_014C68DB
 BYTE   PATT
  POIN2 Label_3_014C68E2
 BYTE   PATT
  POIN2 Label_3_014C68DB
 BYTE   PATT
  POIN2 Label_3_014C68EE
 BYTE   PATT
  POIN2 Label_3_014C68DB
 BYTE   PATT
  POIN2 Label_3_014C68E2
 BYTE   PATT
  POIN2 Label_3_014C68DB
 BYTE   PATT
  POIN2 Label_3_014C6904
 BYTE   PATT
  POIN2 Label_3_014C68DB
 BYTE   PATT
  POIN2 Label_3_014C68E2
 BYTE   PATT
  POIN2 Label_3_014C68DB
 BYTE   PATT
  POIN2 Label_3_014C68EE
 BYTE   PATT
  POIN2 Label_3_014C68DB
 BYTE   PATT
  POIN2 Label_3_014C68E2
 BYTE   PATT
  POIN2 Label_3_014C68DB
 BYTE   PATT
  POIN2 Label_3_014C6904
 BYTE   PATT
  POIN2 Label_3_014C68DB
 BYTE   PATT
  POIN2 Label_3_014C68E2
 BYTE   PATT
  POIN2 Label_3_014C68DB
 BYTE   PATT
  POIN2 Label_3_014C68EE
 BYTE   PATT
  POIN2 Label_3_014C68DB
 BYTE   PATT
  POIN2 Label_3_014C68E2
 BYTE   PATT
  POIN2 Label_3_014C68DB
 BYTE   PATT
  POIN2 Label_3_014C6904
 BYTE   PATT
  POIN2 Label_3_014C689D
// 010   ----------------------------------------
 BYTE   N16  As0  v120
 BYTE   W36
 BYTE   N16
 BYTE   W36
Label_3_014C69DE:
 BYTE   N16  Cn1  v120
 BYTE   W36
// 011   ----------------------------------------
 BYTE   N16
 BYTE   W36
 BYTE   PEND 
 BYTE   Cs1
 BYTE   W36
 BYTE   N16
 BYTE   W36
// 012   ----------------------------------------
Label_3_014C69E9:
 BYTE   N16  Dn1  v120
 BYTE   W36
 BYTE   N16
 BYTE   W36
 BYTE   PEND 
Label_3_014C69F0:
 BYTE   N16  Ds1  v120
 BYTE   W36
// 013   ----------------------------------------
 BYTE   N16
 BYTE   W36
 BYTE   PEND 
 BYTE   PATT
  POIN2 Label_3_014C69E9
 BYTE   PATT
  POIN2 Label_3_014C69DE
 BYTE   PATT
  POIN2 Label_3_014C69E9
 BYTE   PATT
  POIN2 Label_3_014C69F0
 BYTE   PATT
  POIN2 Label_3_014C69E9
 BYTE   PATT
  POIN2 Label_3_014C69DE
 BYTE   PATT
  POIN2 Label_3_014C69E9
 BYTE   PATT
  POIN2 Label_3_014C69F0
 BYTE   PATT
  POIN2 Label_3_014C69E9
 BYTE   PATT
  POIN2 Label_3_014C69DE
 BYTE   PATT
  POIN2 Label_3_014C69E9
 BYTE   PATT
  POIN2 Label_3_014C69F0
 BYTE   PATT
  POIN2 Label_3_014C69E9
 BYTE   PATT
  POIN2 Label_3_014C69DE
 BYTE   PATT
  POIN2 Label_3_014C69E9
 BYTE   PATT
  POIN2 Label_3_014C69F0
 BYTE   PATT
  POIN2 Label_3_014C69E9
 BYTE   PATT
  POIN2 Label_3_014C69DE
 BYTE   PATT
  POIN2 Label_3_014C69E9
 BYTE   PATT
  POIN2 Label_3_014C69F0
 BYTE   PATT
  POIN2 Label_3_014C69E9
 BYTE   PATT
  POIN2 Label_3_014C69DE
 BYTE   PATT
  POIN2 Label_3_014C69E9
 BYTE   PATT
  POIN2 Label_3_014C69F0
 BYTE   PATT
  POIN2 Label_3_014C69E9
 BYTE   PATT
  POIN2 Label_3_014C69DE
 BYTE   PATT
  POIN2 Label_3_014C69E9
 BYTE   PATT
  POIN2 Label_3_014C69F0
// 014   ----------------------------------------
 BYTE   N16  Gs0  v120
 BYTE   W36
 BYTE   Gn0
 BYTE   W36
 BYTE   Fs0
 BYTE   W36
// 015   ----------------------------------------
 BYTE   En0
 BYTE   W36
 BYTE   GoTo
  POIN2 Label_3_014C6892
 BYTE   FINE

//**************** Track 5 (Midi-Chn.4) ****************//

FFTBackFireRandomWizard_005:
// 000   ----------------------------------------
 BYTE   KEYSH   FFTBackFireRandomWizard_key+0
Label_4_014C6AA2:
 BYTE   VOICE   127
 BYTE   VOL   40*FFTBackFireRandomWizard_mvl/mxv
 BYTE   N08  Dn1  v080
 BYTE   W12
 BYTE   N08
 BYTE   W12
 BYTE   N08
 BYTE   W12
 BYTE   N08
 BYTE   N16  An2  v112
 BYTE   W12
 BYTE   N08  Dn1  v080
 BYTE   W12
 BYTE   N08
 BYTE   W12
 BYTE   W72
// 001   ----------------------------------------
Label_4_014C6ABA:
 BYTE   N08  Dn1  v080
 BYTE   W12
 BYTE   N08
 BYTE   W12
 BYTE   N08
 BYTE   W12
 BYTE   N08
 BYTE   W12
 BYTE   N08
 BYTE   W12
 BYTE   N08
 BYTE   W12
 BYTE   PEND 
Label_4_014C6AC9:
 BYTE   N16  Dn1  v080
 BYTE   N16  An2  v112
 BYTE   W72
 BYTE   PEND 
// 002   ----------------------------------------
Label_4_014C6AD1:
 BYTE   N08  Dn1  v080
 BYTE   W12
 BYTE   N08
 BYTE   W12
 BYTE   N08
 BYTE   W12
 BYTE   N08
 BYTE   N16  An2  v112
 BYTE   W12
 BYTE   N08  Dn1  v080
 BYTE   W12
 BYTE   N08
 BYTE   W12
 BYTE   PEND 
 BYTE   W72
 BYTE   PATT
  POIN2 Label_4_014C6ABA
 BYTE   PATT
  POIN2 Label_4_014C6AC9
 BYTE   PATT
  POIN2 Label_4_014C6AD1
// 003   ----------------------------------------
 BYTE   W72
 BYTE   PATT
  POIN2 Label_4_014C6ABA
 BYTE   PATT
  POIN2 Label_4_014C6AC9
 BYTE   PATT
  POIN2 Label_4_014C6AD1
// 004   ----------------------------------------
 BYTE   W72
 BYTE   PATT
  POIN2 Label_4_014C6ABA
// 005   ----------------------------------------
Label_4_014C6B0B:
 BYTE   N08  Dn1  v080
 BYTE   N16  An2  v112
 BYTE   W12
 BYTE   N08  Dn1  v080
 BYTE   W12
 BYTE   N08
 BYTE   W12
 BYTE   N08
 BYTE   N16  An2  v112
 BYTE   W12
 BYTE   N08  Dn1  v080
 BYTE   W12
 BYTE   N08
 BYTE   W12
 BYTE   PEND 
Label_4_014C6B24:
 BYTE   N16  Dn1  v080
 BYTE   W36
// 006   ----------------------------------------
 BYTE   N16
 BYTE   N16  An2  v112
 BYTE   W24
 BYTE   N08  Dn1  v080
 BYTE   W12
 BYTE   PEND 
Label_4_014C6B32:
 BYTE   N16  Dn1  v080
 BYTE   W36
 BYTE   N16
 BYTE   W24
// 007   ----------------------------------------
 BYTE   N08
 BYTE   W12
 BYTE   PEND 
 BYTE   PATT
  POIN2 Label_4_014C6B32
 BYTE   PATT
  POIN2 Label_4_014C6B32
 BYTE   PATT
  POIN2 Label_4_014C6B24
 BYTE   PATT
  POIN2 Label_4_014C6B32
 BYTE   PATT
  POIN2 Label_4_014C6B32
 BYTE   PATT
  POIN2 Label_4_014C6ABA
 BYTE   PATT
  POIN2 Label_4_014C6B24
 BYTE   PATT
  POIN2 Label_4_014C6B32
 BYTE   PATT
  POIN2 Label_4_014C6B32
 BYTE   PATT
  POIN2 Label_4_014C6B32
 BYTE   PATT
  POIN2 Label_4_014C6B24
 BYTE   PATT
  POIN2 Label_4_014C6B32
 BYTE   PATT
  POIN2 Label_4_014C6B32
 BYTE   PATT
  POIN2 Label_4_014C6B0B
 BYTE   PATT
  POIN2 Label_4_014C6B24
 BYTE   PATT
  POIN2 Label_4_014C6B32
 BYTE   PATT
  POIN2 Label_4_014C6B32
 BYTE   PATT
  POIN2 Label_4_014C6B32
 BYTE   PATT
  POIN2 Label_4_014C6B32
 BYTE   PATT
  POIN2 Label_4_014C6B32
 BYTE   PATT
  POIN2 Label_4_014C6B32
 BYTE   PATT
  POIN2 Label_4_014C6ABA
 BYTE   PATT
  POIN2 Label_4_014C6B24
 BYTE   PATT
  POIN2 Label_4_014C6B32
 BYTE   PATT
  POIN2 Label_4_014C6B32
 BYTE   PATT
  POIN2 Label_4_014C6B32
// 008   ----------------------------------------
 BYTE   N16  Dn1  v080
 BYTE   W36
 BYTE   N16
 BYTE   N16  An2  v112
 BYTE   W36
 BYTE   PATT
  POIN2 Label_4_014C6B32
 BYTE   PATT
  POIN2 Label_4_014C6B32
 BYTE   PATT
  POIN2 Label_4_014C6B0B
 BYTE   PATT
  POIN2 Label_4_014C6B24
 BYTE   PATT
  POIN2 Label_4_014C6B32
 BYTE   PATT
  POIN2 Label_4_014C6B32
 BYTE   PATT
  POIN2 Label_4_014C6B32
 BYTE   PATT
  POIN2 Label_4_014C6B24
 BYTE   PATT
  POIN2 Label_4_014C6B32
 BYTE   PATT
  POIN2 Label_4_014C6B32
 BYTE   PATT
  POIN2 Label_4_014C6ABA
 BYTE   PATT
  POIN2 Label_4_014C6B24
 BYTE   PATT
  POIN2 Label_4_014C6B32
 BYTE   PATT
  POIN2 Label_4_014C6B32
 BYTE   PATT
  POIN2 Label_4_014C6B32
 BYTE   PATT
  POIN2 Label_4_014C6B24
 BYTE   PATT
  POIN2 Label_4_014C6B32
 BYTE   PATT
  POIN2 Label_4_014C6B32
 BYTE   PATT
  POIN2 Label_4_014C6B0B
 BYTE   PATT
  POIN2 Label_4_014C6ABA
 BYTE   PATT
  POIN2 Label_4_014C6ABA
 BYTE   PATT
  POIN2 Label_4_014C6B0B
 BYTE   PATT
  POIN2 Label_4_014C6ABA
 BYTE   PATT
  POIN2 Label_4_014C6B24
 BYTE   PATT
  POIN2 Label_4_014C6B32
 BYTE   PATT
  POIN2 Label_4_014C6B32
 BYTE   PATT
  POIN2 Label_4_014C6B32
 BYTE   PATT
  POIN2 Label_4_014C6B24
 BYTE   PATT
  POIN2 Label_4_014C6B32
 BYTE   PATT
  POIN2 Label_4_014C6B32
 BYTE   PATT
  POIN2 Label_4_014C6B32
 BYTE   PATT
  POIN2 Label_4_014C6B24
 BYTE   PATT
  POIN2 Label_4_014C6B32
 BYTE   PATT
  POIN2 Label_4_014C6B32
 BYTE   PATT
  POIN2 Label_4_014C6B32
 BYTE   PATT
  POIN2 Label_4_014C6B24
 BYTE   PATT
  POIN2 Label_4_014C6B32
 BYTE   PATT
  POIN2 Label_4_014C6B32
 BYTE   PATT
  POIN2 Label_4_014C6B32
 BYTE   PATT
  POIN2 Label_4_014C6B24
 BYTE   PATT
  POIN2 Label_4_014C6B32
 BYTE   PATT
  POIN2 Label_4_014C6B32
 BYTE   PATT
  POIN2 Label_4_014C6B32
 BYTE   PATT
  POIN2 Label_4_014C6B24
 BYTE   PATT
  POIN2 Label_4_014C6B32
 BYTE   PATT
  POIN2 Label_4_014C6B32
 BYTE   PATT
  POIN2 Label_4_014C6B32
 BYTE   PATT
  POIN2 Label_4_014C6B24
 BYTE   PATT
  POIN2 Label_4_014C6B32
 BYTE   PATT
  POIN2 Label_4_014C6B32
 BYTE   PATT
  POIN2 Label_4_014C6B32
 BYTE   PATT
  POIN2 Label_4_014C6B24
 BYTE   PATT
  POIN2 Label_4_014C6B32
 BYTE   PATT
  POIN2 Label_4_014C6ABA
 BYTE   PATT
  POIN2 Label_4_014C6B0B
// 009   ----------------------------------------
 BYTE   GoTo
  POIN2 Label_4_014C6AA2
 BYTE   FINE

//**************** Track 6 (Midi-Chn.5) ****************//

FFTBackFireRandomWizard_006:
// 000   ----------------------------------------
 BYTE   KEYSH   FFTBackFireRandomWizard_key+0
Label_5_014C6CEE:
 BYTE   VOICE   57
 BYTE   VOL   40*FFTBackFireRandomWizard_mvl/mxv
 BYTE   W72
 BYTE   W72
// 001   ----------------------------------------
 BYTE   W72
 BYTE   W72
// 002   ----------------------------------------
 BYTE   W72
 BYTE   W72
// 003   ----------------------------------------
 BYTE   W72
 BYTE   W72
// 004   ----------------------------------------
 BYTE   W72
 BYTE   W72
// 005   ----------------------------------------
 BYTE   W72
 BYTE   W72
// 006   ----------------------------------------
 BYTE   W72
 BYTE   W72
// 007   ----------------------------------------
 BYTE   W72
 BYTE   W72
// 008   ----------------------------------------
 BYTE   W72
 BYTE   W72
// 009   ----------------------------------------
 BYTE   W72
 BYTE   W72
// 010   ----------------------------------------
 BYTE   W72
 BYTE   W72
// 011   ----------------------------------------
 BYTE   W72
 BYTE   W72
// 012   ----------------------------------------
 BYTE   W72
 BYTE   W72
// 013   ----------------------------------------
 BYTE   W72
 BYTE   W72
// 014   ----------------------------------------
 BYTE   W72
 BYTE   W72
// 015   ----------------------------------------
 BYTE   W72
 BYTE   W72
// 016   ----------------------------------------
Label_5_014C6D12:
 BYTE   W36
 BYTE   N08  An2  v127
 BYTE   N08  An3
 BYTE   W24
 BYTE   An2
 BYTE   N08  An3
 BYTE   W12
 BYTE   PEND 
 BYTE   N48  En2
 BYTE   N48  En3
 BYTE   W72
// 017   ----------------------------------------
Label_5_014C6D23:
 BYTE   N08  Gn2  v127
 BYTE   N08  Gn3
 BYTE   W24
 BYTE   Gn2
 BYTE   N08  Gn3
 BYTE   W12
 BYTE   N88  Cn2
 BYTE   N88  Cn3
 BYTE   W36
 BYTE   PEND 
 BYTE   W72
// 018   ----------------------------------------
Label_5_014C6D34:
 BYTE   W36
 BYTE   N08  En2  v127
 BYTE   N08  En3
 BYTE   W12
 BYTE   En2
 BYTE   N08  En3
 BYTE   W12
 BYTE   En2
 BYTE   N08  En3
 BYTE   W12
 BYTE   PEND 
 BYTE   N24  Cn2
 BYTE   N24  Cn3
 BYTE   W36
// 019   ----------------------------------------
 BYTE   As2
 BYTE   N24  As3
 BYTE   W36
Label_5_014C6D4D:
 BYTE   TIE  An2  v127
 BYTE   TIE  An3
 BYTE   W72
 BYTE   PEND 
// 020   ----------------------------------------
 BYTE   W64
 BYTE   EOT
 BYTE   An2  v069
 BYTE   W08
 BYTE   PATT
  POIN2 Label_5_014C6D12
// 021   ----------------------------------------
 BYTE   N48  En2  v127
 BYTE   N48  En3
 BYTE   W72
 BYTE   PATT
  POIN2 Label_5_014C6D23
// 022   ----------------------------------------
 BYTE   W72
 BYTE   PATT
  POIN2 Label_5_014C6D34
// 023   ----------------------------------------
 BYTE   N24  Gn2  v127
 BYTE   N24  Gn3
 BYTE   W36
 BYTE   As2
 BYTE   N24  As3
 BYTE   W36
 BYTE   PATT
  POIN2 Label_5_014C6D4D
// 024   ----------------------------------------
 BYTE   W64
 BYTE   EOT
 BYTE   An2  v069
 BYTE   W08
Label_5_014C6D83:
 BYTE   W36
// 025   ----------------------------------------
 BYTE   N08  An3  v127
 BYTE   N08  An4
 BYTE   W24
 BYTE   An3
 BYTE   N08  An4
 BYTE   W12
 BYTE   PEND 
 BYTE   N48  En3
 BYTE   N48  En4
 BYTE   W72
// 026   ----------------------------------------
Label_5_014C6D94:
 BYTE   N08  Gn3  v127
 BYTE   N08  Gn4
 BYTE   W24
 BYTE   Gn3
 BYTE   N08  Gn4
 BYTE   W12
 BYTE   N88  Cn3
 BYTE   N88  Cn4
 BYTE   W36
 BYTE   PEND 
 BYTE   W72
// 027   ----------------------------------------
Label_5_014C6DA5:
 BYTE   W36
 BYTE   N08  En3  v127
 BYTE   N08  En4
 BYTE   W12
 BYTE   En3
 BYTE   N08  En4
 BYTE   W12
 BYTE   En3
 BYTE   N08  En4
 BYTE   W12
 BYTE   PEND 
 BYTE   N24  Cn3
 BYTE   N24  Cn4
 BYTE   W36
// 028   ----------------------------------------
 BYTE   As2
 BYTE   N24  As3
 BYTE   W36
 BYTE   PATT
  POIN2 Label_5_014C6D4D
// 029   ----------------------------------------
 BYTE   W64
 BYTE   EOT
 BYTE   An2  v069
 BYTE   W08
 BYTE   PATT
  POIN2 Label_5_014C6D83
// 030   ----------------------------------------
 BYTE   N48  En3  v127
 BYTE   N48  En4
 BYTE   W72
 BYTE   PATT
  POIN2 Label_5_014C6D94
// 031   ----------------------------------------
 BYTE   W72
 BYTE   PATT
  POIN2 Label_5_014C6DA5
// 032   ----------------------------------------
 BYTE   N24  Gn3  v127
 BYTE   N24  Gn4
 BYTE   W36
 BYTE   As3
 BYTE   N24  As4
 BYTE   W36
 BYTE   TIE  An3
 BYTE   TIE  An4
 BYTE   W72
// 033   ----------------------------------------
 BYTE   W64
 BYTE   EOT
 BYTE   An3  v081
 BYTE   W08
 BYTE   W72
// 034   ----------------------------------------
 BYTE   W72
 BYTE   W72
// 035   ----------------------------------------
 BYTE   W72
Label_5_014C6DF6:
 BYTE   N56  Dn3  v127
 BYTE   W60
// 036   ----------------------------------------
 BYTE   N08  Gn3
 BYTE   W12
 BYTE   PEND 
Label_5_014C6DFE:
 BYTE   N56  Gn3  v127
 BYTE   W60
 BYTE   N08  An3
 BYTE   W12
 BYTE   PEND 
Label_5_014C6E06:
 BYTE   N56  As3  v127
 BYTE   W60
// 037   ----------------------------------------
 BYTE   N08  Cn4
 BYTE   W12
 BYTE   PEND 
Label_5_014C6E0E:
 BYTE   N56  Dn4  v127
 BYTE   W60
 BYTE   N08  As3
 BYTE   W12
 BYTE   PEND 
Label_5_014C6E16:
 BYTE   N56  An3  v127
 BYTE   W60
// 038   ----------------------------------------
 BYTE   N08  Dn3
 BYTE   W12
 BYTE   PEND 
 BYTE   PATT
  POIN2 Label_5_014C6DF6
// 039   ----------------------------------------
Label_5_014C6E23:
 BYTE   N56  Ds3  v127
 BYTE   W60
 BYTE   N08  An2
 BYTE   W12
 BYTE   PEND 
Label_5_014C6E2B:
 BYTE   N56  As2  v127
 BYTE   W60
// 040   ----------------------------------------
 BYTE   N08  Ds2
 BYTE   W12
 BYTE   PEND 
 BYTE   TIE  Dn2
 BYTE   W72
 BYTE   W72
// 041   ----------------------------------------
 BYTE   W72
 BYTE   W56
// 042   ----------------------------------------
 BYTE   EOT
 BYTE   W16
 BYTE   TIE  An2
 BYTE   W72
 BYTE   W72
// 043   ----------------------------------------
 BYTE   W72
 BYTE   W64
// 044   ----------------------------------------
 BYTE   EOT
 BYTE   W08
 BYTE   PATT
  POIN2 Label_5_014C6DF6
 BYTE   PATT
  POIN2 Label_5_014C6DFE
 BYTE   PATT
  POIN2 Label_5_014C6E06
 BYTE   PATT
  POIN2 Label_5_014C6E0E
 BYTE   PATT
  POIN2 Label_5_014C6E16
 BYTE   PATT
  POIN2 Label_5_014C6DF6
 BYTE   PATT
  POIN2 Label_5_014C6E23
 BYTE   PATT
  POIN2 Label_5_014C6E2B
// 045   ----------------------------------------
 BYTE   TIE  Fn2  v127
 BYTE   W72
 BYTE   W72
// 046   ----------------------------------------
 BYTE   W72
 BYTE   W64
// 047   ----------------------------------------
 BYTE   EOT
 BYTE   W08
 BYTE   TIE  An2
 BYTE   W72
 BYTE   W56
// 048   ----------------------------------------
 BYTE   EOT
 BYTE   W16
 BYTE   N32  En3
 BYTE   W36
 BYTE   Dn3
 BYTE   W36
 BYTE   Cn3
 BYTE   W36
// 049   ----------------------------------------
 BYTE   Bn2
 BYTE   W36
 BYTE   GoTo
  POIN2 Label_5_014C6CEE
 BYTE   FINE

//**************** Track 7 (Midi-Chn.6) ****************//

FFTBackFireRandomWizard_007:
// 000   ----------------------------------------
 BYTE   KEYSH   FFTBackFireRandomWizard_key+0
Label_6_014C6E96:
 BYTE   VOICE   14
 BYTE   VOL   40*FFTBackFireRandomWizard_mvl/mxv
 BYTE   W72
 BYTE   W72
// 001   ----------------------------------------
 BYTE   W72
 BYTE   W72
// 002   ----------------------------------------
 BYTE   W72
 BYTE   W72
// 003   ----------------------------------------
 BYTE   W72
 BYTE   W72
// 004   ----------------------------------------
 BYTE   W72
 BYTE   W72
// 005   ----------------------------------------
 BYTE   W72
 BYTE   W72
// 006   ----------------------------------------
 BYTE   W72
 BYTE   W72
// 007   ----------------------------------------
 BYTE   W72
 BYTE   W72
// 008   ----------------------------------------
 BYTE   W72
 BYTE   W72
// 009   ----------------------------------------
 BYTE   W72
 BYTE   W72
// 010   ----------------------------------------
 BYTE   W72
 BYTE   W72
// 011   ----------------------------------------
 BYTE   W72
 BYTE   W72
// 012   ----------------------------------------
 BYTE   W72
 BYTE   W72
// 013   ----------------------------------------
 BYTE   W72
 BYTE   W72
// 014   ----------------------------------------
 BYTE   W72
 BYTE   W72
// 015   ----------------------------------------
 BYTE   W72
 BYTE   W72
// 016   ----------------------------------------
 BYTE   W72
 BYTE   W72
// 017   ----------------------------------------
 BYTE   W72
 BYTE   W72
// 018   ----------------------------------------
 BYTE   W72
 BYTE   W72
// 019   ----------------------------------------
 BYTE   W72
 BYTE   W72
// 020   ----------------------------------------
 BYTE   W72
 BYTE   W72
// 021   ----------------------------------------
 BYTE   W72
 BYTE   W72
// 022   ----------------------------------------
 BYTE   W72
 BYTE   W72
// 023   ----------------------------------------
 BYTE   W72
 BYTE   W72
// 024   ----------------------------------------
 BYTE   W72
 BYTE   W72
// 025   ----------------------------------------
 BYTE   W72
 BYTE   W72
// 026   ----------------------------------------
 BYTE   W72
 BYTE   W72
// 027   ----------------------------------------
 BYTE   W72
 BYTE   W72
// 028   ----------------------------------------
 BYTE   W72
 BYTE   W72
// 029   ----------------------------------------
 BYTE   W72
 BYTE   W72
// 030   ----------------------------------------
 BYTE   W72
 BYTE   W72
// 031   ----------------------------------------
 BYTE   W72
 BYTE   W72
// 032   ----------------------------------------
 BYTE   W72
 BYTE   W72
// 033   ----------------------------------------
 BYTE   W72
 BYTE   W72
// 034   ----------------------------------------
 BYTE   W36
 BYTE   N16  An3  v100
 BYTE   W36
 BYTE   W72
// 035   ----------------------------------------
 BYTE   W72
 BYTE   W72
// 036   ----------------------------------------
 BYTE   W36
 BYTE   N16
 BYTE   W36
 BYTE   W72
// 037   ----------------------------------------
 BYTE   W72
 BYTE   W72
// 038   ----------------------------------------
 BYTE   W36
 BYTE   N16
 BYTE   W36
 BYTE   W72
// 039   ----------------------------------------
 BYTE   W72
 BYTE   W72
// 040   ----------------------------------------
 BYTE   W36
 BYTE   N16
 BYTE   W36
 BYTE   W72
// 041   ----------------------------------------
 BYTE   W72
 BYTE   W72
// 042   ----------------------------------------
 BYTE   W36
 BYTE   N16
 BYTE   W36
 BYTE   W72
// 043   ----------------------------------------
 BYTE   W72
 BYTE   W72
// 044   ----------------------------------------
 BYTE   W36
 BYTE   N16
 BYTE   W36
 BYTE   W72
// 045   ----------------------------------------
 BYTE   W72
 BYTE   W72
// 046   ----------------------------------------
 BYTE   W36
 BYTE   N16
 BYTE   W36
 BYTE   W72
// 047   ----------------------------------------
 BYTE   W72
 BYTE   W72
// 048   ----------------------------------------
 BYTE   W36
 BYTE   N16
 BYTE   W36
 BYTE   W72
// 049   ----------------------------------------
 BYTE   W72
 BYTE   W72
// 050   ----------------------------------------
 BYTE   GoTo
  POIN2 Label_6_014C6E96
 BYTE   FINE

//******************************************************//
	ALIGN 4

FFTBackFireRandomWizard:
	BYTE	7	// NumTrks
	BYTE	0	// NumBlks
	BYTE	FFTBackFireRandomWizard_pri	// Priority
	BYTE	FFTBackFireRandomWizard_rev	// Reverb.
    
	POIN2	FFTBackFireRandomWizard_grp
    
	POIN2	FFTBackFireRandomWizard_001
	POIN2	FFTBackFireRandomWizard_002
	POIN2	FFTBackFireRandomWizard_003
	POIN2	FFTBackFireRandomWizard_004
	POIN2	FFTBackFireRandomWizard_005
	POIN2	FFTBackFireRandomWizard_006
	POIN2	FFTBackFireRandomWizard_007

	
