//Event file generated from Sappy .s format.
	#include "MPlayDef.event"

	#define	PokemonDPPtShowdownattheEliteFourDolkar_grp  voicegroup000
	#define	PokemonDPPtShowdownattheEliteFourDolkar_pri  0
	#define	PokemonDPPtShowdownattheEliteFourDolkar_rev  0
	#define	PokemonDPPtShowdownattheEliteFourDolkar_mvl  127
	#define	PokemonDPPtShowdownattheEliteFourDolkar_key  0
	#define	PokemonDPPtShowdownattheEliteFourDolkar_tbs  1
	#define	PokemonDPPtShowdownattheEliteFourDolkar_exg  0
	#define	PokemonDPPtShowdownattheEliteFourDolkar_cmp  1

	// .rodata
	//	PokemonDPPtShowdownattheEliteFourDolkar
	ALIGN 4


//**************** Track 1 (Midi-Chn.0) ****************//

PokemonDPPtShowdownattheEliteFourDolkar_001:
// 000   ----------------------------------------
 BYTE   KEYSH   PokemonDPPtShowdownattheEliteFourDolkar_key+0
Label_0_0188AB0E:
 BYTE   TEMPO   140*PokemonDPPtShowdownattheEliteFourDolkar_tbs/2
 BYTE   VOICE   2
 BYTE   VOL   69*PokemonDPPtShowdownattheEliteFourDolkar_mvl/mxv
 BYTE   MOD 0
 BYTE   CnM2
 BYTE   PAN   c_v-39
 BYTE   BEND   c_v+0
 BYTE   W48
 BYTE   VOICE   14
 BYTE   PAN   c_v-43
 BYTE   VOL   69*PokemonDPPtShowdownattheEliteFourDolkar_mvl/mxv
 BYTE   N23  Bn2  v127
 BYTE   W24
 BYTE   PAN   c_v+36
 BYTE   N03  Fs4  v112
 BYTE   W08
 BYTE   N03
 BYTE   W08
 BYTE   N03
 BYTE   W08
// 001   ----------------------------------------
 BYTE   PAN   c_v+56
 BYTE   N44  An2
 BYTE   W24
 BYTE   PAN   c_v-33
 BYTE   N03  Fs4
 BYTE   W08
 BYTE   N03
 BYTE   W08
 BYTE   N03
 BYTE   W56
// 002   ----------------------------------------
 BYTE   W96
// 003   ----------------------------------------
 BYTE   W96
// 004   ----------------------------------------
 BYTE   W96
// 005   ----------------------------------------
 BYTE   W96
// 006   ----------------------------------------
 BYTE   W96
// 007   ----------------------------------------
 BYTE   W96
// 008   ----------------------------------------
 BYTE   W96
// 009   ----------------------------------------
 BYTE   W48
 BYTE   VOICE   18
 BYTE   PAN   c_v-48
 BYTE   VOL   45*PokemonDPPtShowdownattheEliteFourDolkar_mvl/mxv
 BYTE   N03  En3
 BYTE   W04
 BYTE   En4
 BYTE   W04
 BYTE   Gs3
 BYTE   W04
 BYTE   PAN   c_v+48
 BYTE   N03  Gs4
 BYTE   W04
 BYTE   Bn3
 BYTE   W04
 BYTE   Bn4
 BYTE   W04
 BYTE   PAN   c_v-48
 BYTE   N03  Gs3
 BYTE   W04
 BYTE   Gs4
 BYTE   W04
 BYTE   Bn3
 BYTE   W04
 BYTE   PAN   c_v+48
 BYTE   N03  Bn4
 BYTE   W04
 BYTE   En4
 BYTE   W04
 BYTE   En5
 BYTE   W04
// 010   ----------------------------------------
 BYTE   PAN   c_v-48
 BYTE   N03  Bn3
 BYTE   W04
 BYTE   Bn4
 BYTE   W04
 BYTE   En4
 BYTE   W04
 BYTE   PAN   c_v+48
 BYTE   N03  En5
 BYTE   W04
 BYTE   Gs4
 BYTE   W04
 BYTE   Gs5
 BYTE   W04
 BYTE   PAN   c_v-48
 BYTE   N03  En4
 BYTE   W04
 BYTE   En5
 BYTE   W04
 BYTE   Gs4
 BYTE   W04
 BYTE   PAN   c_v+48
 BYTE   N03  Gs5
 BYTE   W04
 BYTE   Bn4
 BYTE   W04
 BYTE   Bn5
 BYTE   W04
 BYTE   PAN   c_v-48
 BYTE   N03  En5
 BYTE   W04
 BYTE   En6
 BYTE   W04
 BYTE   Bn4
 BYTE   W04
 BYTE   PAN   c_v+48
 BYTE   N03  Bn5
 BYTE   W04
 BYTE   Gs4
 BYTE   W04
 BYTE   Gs5
 BYTE   W04
 BYTE   PAN   c_v-48
 BYTE   N03  Bn4
 BYTE   W04
 BYTE   Bn5
 BYTE   W04
 BYTE   Gs4
 BYTE   W04
 BYTE   PAN   c_v+48
 BYTE   N03  Gs5
 BYTE   W04
 BYTE   En4
 BYTE   W04
 BYTE   En5
 BYTE   W04
// 011   ----------------------------------------
 BYTE   PAN   c_v-48
 BYTE   N03  Gs4
 BYTE   W04
 BYTE   Gs5
 BYTE   W04
 BYTE   En4
 BYTE   W04
 BYTE   PAN   c_v+48
 BYTE   N03  En5
 BYTE   W04
 BYTE   Bn3
 BYTE   W04
 BYTE   Bn4
 BYTE   W04
 BYTE   PAN   c_v-48
 BYTE   N03  En4
 BYTE   W04
 BYTE   En5
 BYTE   W04
 BYTE   Bn3
 BYTE   W04
 BYTE   PAN   c_v+48
 BYTE   N03  Bn4
 BYTE   W04
 BYTE   Gs3
 BYTE   W04
 BYTE   Gs4
 BYTE   W04
 BYTE   PAN   c_v-32
 BYTE   W24
 BYTE   VOICE   51
 BYTE   W24
// 012   ----------------------------------------
 BYTE   W96
// 013   ----------------------------------------
 BYTE   DnM1
 BYTE   PAN   c_v-36
 BYTE   VOL   59*PokemonDPPtShowdownattheEliteFourDolkar_mvl/mxv
 BYTE   N07  Fn3
 BYTE   W08
 BYTE   N07
 BYTE   W08
 BYTE   N07
 BYTE   W08
 BYTE   N23
 BYTE   W72
// 014   ----------------------------------------
 BYTE   W48
 BYTE   VOICE   60
 BYTE   VOL   73*PokemonDPPtShowdownattheEliteFourDolkar_mvl/mxv
 BYTE   PAN   c_v+0
 BYTE   N07  As2
 BYTE   W08
 BYTE   An2
 BYTE   W08
 BYTE   As2
 BYTE   W08
 BYTE   N23  Cs3
 BYTE   W24
// 015   ----------------------------------------
 BYTE   N07  En3
 BYTE   W08
 BYTE   Ds3
 BYTE   W08
 BYTE   En3
 BYTE   W08
 BYTE   N44  Gn3
 BYTE   W48
 BYTE   N07  As3
 BYTE   W08
 BYTE   An3
 BYTE   W08
 BYTE   As3
 BYTE   W08
// 016   ----------------------------------------
 BYTE   En4
 BYTE   W16
 BYTE   Cs4
 BYTE   W08
 BYTE   As3
 BYTE   W08
 BYTE   Fs3
 BYTE   W08
 BYTE   En3
 BYTE   W08
 BYTE   Fn3
 BYTE   W48
// 017   ----------------------------------------
 BYTE   VOICE   18
 BYTE   VOL   57*PokemonDPPtShowdownattheEliteFourDolkar_mvl/mxv
 BYTE   N23  Fn4
 BYTE   W24
 BYTE   N07  En4
 BYTE   W24
 BYTE   N44  Fn4
 BYTE   W48
// 018   ----------------------------------------
 BYTE   VOL   68*PokemonDPPtShowdownattheEliteFourDolkar_mvl/mxv
 BYTE   N36  Gs4
 BYTE   W36
 BYTE   W02
 BYTE   N09  Fs4
 BYTE   W02
 BYTE   PAN   c_v+0
 BYTE   W08
 BYTE   VOICE   18
 BYTE   VOL   70*PokemonDPPtShowdownattheEliteFourDolkar_mvl/mxv
 BYTE   N15  En4
 BYTE   W16
 BYTE   N07  Ds4
 BYTE   W08
 BYTE   N15  En4
 BYTE   W16
 BYTE   N07  As4
 BYTE   W08
// 019   ----------------------------------------
 BYTE   En5
 BYTE   W08
 BYTE   As4
 BYTE   W08
 BYTE   Cs5
 BYTE   W08
 BYTE   Gs4
 BYTE   W08
 BYTE   Gn4
 BYTE   W08
 BYTE   Bn4
 BYTE   W08
 BYTE   En4
 BYTE   W08
 BYTE   Ds4
 BYTE   W08
 BYTE   Gs4
 BYTE   W08
 BYTE   Cs4
 BYTE   W08
 BYTE   Cn4
 BYTE   W08
 BYTE   En4
 BYTE   W08
// 020   ----------------------------------------
 BYTE   Bn3
 BYTE   W08
 BYTE   As3
 BYTE   W08
 BYTE   Cs4
 BYTE   W08
 BYTE   Fs3
 BYTE   W08
 BYTE   En3
 BYTE   W08
 BYTE   Gs3
 BYTE   W08
 BYTE   PAN   c_v-32
 BYTE   N07  As3
 BYTE   W48
// 021   ----------------------------------------
 BYTE   W96
// 022   ----------------------------------------
 BYTE   PAN   c_v-36
 BYTE   VOL   59*PokemonDPPtShowdownattheEliteFourDolkar_mvl/mxv
 BYTE   W96
// 023   ----------------------------------------
 BYTE   W96
// 024   ----------------------------------------
 BYTE   W96
// 025   ----------------------------------------
 BYTE   W96
// 026   ----------------------------------------
 BYTE   W96
// 027   ----------------------------------------
 BYTE   W48
 BYTE   An3
 BYTE   PAN   c_v+0
 BYTE   W24
 BYTE   VOICE   18
 BYTE   N07  Ds4
 BYTE   W08
 BYTE   An3
 BYTE   W08
 BYTE   Cs4
 BYTE   W08
// 028   ----------------------------------------
 BYTE   Fs3
 BYTE   W08
 BYTE   Fn3
 BYTE   W08
 BYTE   Gs3
 BYTE   W08
 BYTE   Ds3
 BYTE   W08
 BYTE   Cs3
 BYTE   W08
 BYTE   An3
 BYTE   W08
 BYTE   VOICE   18
 BYTE   VOL   80*PokemonDPPtShowdownattheEliteFourDolkar_mvl/mxv
 BYTE   BEND   c_v-9
 BYTE   N07  Fn2
 BYTE   W01
 BYTE   BEND   c_v+2
 BYTE   W01
 BYTE   En3
 BYTE   W06
 BYTE   N07  Gn2
 BYTE   W08
 BYTE   Gs2
 BYTE   W08
 BYTE   N68  Fn2
 BYTE   W24
// 029   ----------------------------------------
 BYTE   W48
 BYTE   VOL   65*PokemonDPPtShowdownattheEliteFourDolkar_mvl/mxv
 BYTE   W24
 BYTE   N07  Gs4
 BYTE   W08
 BYTE   En4
 BYTE   W08
 BYTE   Fn4
 BYTE   W08
// 030   ----------------------------------------
 BYTE   Cs4
 BYTE   W08
 BYTE   Cn4
 BYTE   W08
 BYTE   Fn4
 BYTE   W08
 BYTE   As3
 BYTE   W08
 BYTE   Gs3
 BYTE   W08
 BYTE   Cn4
 BYTE   W08
 BYTE   Fn3
 BYTE   W08
 BYTE   En3
 BYTE   W08
 BYTE   Gs3
 BYTE   W08
 BYTE   N68  Cn3
 BYTE   W24
// 031   ----------------------------------------
 BYTE   W96
// 032   ----------------------------------------
 BYTE   W96
// 033   ----------------------------------------
 BYTE   W96
// 034   ----------------------------------------
 BYTE   W40
 BYTE   N03  Fn1
 BYTE   W04
 BYTE   N03
 BYTE   W04
 BYTE   VOICE   51
 BYTE   PAN   c_v+32
 BYTE   VOL   80*PokemonDPPtShowdownattheEliteFourDolkar_mvl/mxv
 BYTE   W48
// 035   ----------------------------------------
 BYTE   W96
// 036   ----------------------------------------
 BYTE   W48
 BYTE   PAN   c_v-1
 BYTE   N23  Fn2
 BYTE   W24
 BYTE   N15  Fn1
 BYTE   W16
 BYTE   N07
 BYTE   W08
// 037   ----------------------------------------
 BYTE   Fn2
 BYTE   W08
 BYTE   N15
 BYTE   W16
 BYTE   N07
 BYTE   W08
 BYTE   N15  Fn1
 BYTE   W16
 BYTE   N23  Fn2
 BYTE   W24
 BYTE   N15  Fn1
 BYTE   W16
 BYTE   N07
 BYTE   W08
// 038   ----------------------------------------
 BYTE   Fn2
 BYTE   W08
 BYTE   N15
 BYTE   W16
 BYTE   N07
 BYTE   W08
 BYTE   N15  Fn1
 BYTE   W64
// 039   ----------------------------------------
 BYTE   W96
// 040   ----------------------------------------
 BYTE   W96
// 041   ----------------------------------------
 BYTE   W96
// 042   ----------------------------------------
 BYTE   W96
// 043   ----------------------------------------
 BYTE   W44
 BYTE   W03
 BYTE   GoTo
  POIN2 Label_0_0188AB0E
 BYTE   FINE

//**************** Track 2 (Midi-Chn.1) ****************//

PokemonDPPtShowdownattheEliteFourDolkar_002:
// 000   ----------------------------------------
 BYTE   KEYSH   PokemonDPPtShowdownattheEliteFourDolkar_key+0
Label_1_0188AD0E:
 BYTE   VOICE   60
 BYTE   VOL   69*PokemonDPPtShowdownattheEliteFourDolkar_mvl/mxv
 BYTE   PAN   c_v-32
 BYTE   BEND   c_v+0
 BYTE   W48
 BYTE   VOICE   60
 BYTE   PAN   c_v-33
 BYTE   VOL   65*PokemonDPPtShowdownattheEliteFourDolkar_mvl/mxv
 BYTE   N23  Bn2  v112
 BYTE   W24
 BYTE   N03
 BYTE   W08
 BYTE   N03
 BYTE   W08
 BYTE   N03
 BYTE   W08
// 001   ----------------------------------------
 BYTE   N23  An2
 BYTE   W24
 BYTE   N03
 BYTE   W08
 BYTE   N03
 BYTE   W08
 BYTE   N03
 BYTE   W08
 BYTE   N07  As2  v127
 BYTE   W12
 BYTE   As2  v076
 BYTE   W12
 BYTE   As2  v052
 BYTE   W12
 BYTE   As2  v032
 BYTE   W12
// 002   ----------------------------------------
 BYTE   As2  v020
 BYTE   W96
// 003   ----------------------------------------
 BYTE   W48
 BYTE   As2  v127
 BYTE   W12
 BYTE   As2  v076
 BYTE   W12
 BYTE   As2  v052
 BYTE   W12
 BYTE   As2  v032
 BYTE   W12
// 004   ----------------------------------------
 BYTE   As2  v020
 BYTE   W96
// 005   ----------------------------------------
Label_1_0188AD50:
 BYTE   W36
 BYTE   W02
 BYTE   N09  Fs3  v112
 BYTE   W10
 BYTE   TIE  En3
 BYTE   W48
 BYTE   PEND 
// 006   ----------------------------------------
 BYTE   W96
// 007   ----------------------------------------
 BYTE   W32
 BYTE   W03
 BYTE   EOT
 BYTE   W05
 BYTE   N05
 BYTE   W08
 BYTE   N07  Fn3  v127
 BYTE   W12
 BYTE   Fn3  v076
 BYTE   W12
 BYTE   Fn3  v052
 BYTE   W12
 BYTE   Fn3  v032
 BYTE   W12
// 008   ----------------------------------------
 BYTE   Fn3  v020
 BYTE   W96
 BYTE   PATT
  POIN2 Label_1_0188AD50
// 009   ----------------------------------------
 BYTE   W96
// 010   ----------------------------------------
 BYTE   W32
 BYTE   W03
 BYTE   EOT
 BYTE   En3
 BYTE   W05
 BYTE   N05  En3  v112
 BYTE   W08
 BYTE   N07  Fn3  v127
 BYTE   W12
 BYTE   Fn3  v076
 BYTE   W12
 BYTE   Fn2  v127
 BYTE   W12
 BYTE   Fn2  v076
 BYTE   W12
// 011   ----------------------------------------
 BYTE   Fn2  v056
 BYTE   W12
 BYTE   Fn2  v036
 BYTE   W84
// 012   ----------------------------------------
 BYTE   W96
// 013   ----------------------------------------
 BYTE   W36
 BYTE   W02
 BYTE   VOICE   57
 BYTE   N09  Fs3  v112
 BYTE   W10
 BYTE   TIE  En3
 BYTE   W48
// 014   ----------------------------------------
 BYTE   W96
// 015   ----------------------------------------
 BYTE   W32
 BYTE   W03
 BYTE   EOT
 BYTE   W05
 BYTE   N05
 BYTE   W08
 BYTE   N07  Fn3  v127
 BYTE   W12
 BYTE   Fn3  v076
 BYTE   W12
 BYTE   Fn3  v052
 BYTE   W12
 BYTE   Fn3  v032
 BYTE   W12
// 016   ----------------------------------------
 BYTE   VOICE   18
 BYTE   VOL   59*PokemonDPPtShowdownattheEliteFourDolkar_mvl/mxv
 BYTE   N23  Fn3  v112
 BYTE   W24
 BYTE   N07  En3
 BYTE   W24
 BYTE   N44  Fn3
 BYTE   W48
// 017   ----------------------------------------
 BYTE   N36  Gs3
 BYTE   W36
 BYTE   W02
 BYTE   N09  Fs3
 BYTE   W02
 BYTE   VOICE   57
 BYTE   W08
 BYTE   VOL   70*PokemonDPPtShowdownattheEliteFourDolkar_mvl/mxv
 BYTE   TIE  En3
 BYTE   W48
// 018   ----------------------------------------
 BYTE   W96
// 019   ----------------------------------------
 BYTE   W32
 BYTE   W03
 BYTE   EOT
 BYTE   W05
 BYTE   N05
 BYTE   W08
 BYTE   N07  Fn3  v127
 BYTE   W08
 BYTE   Fn3  v108
 BYTE   W08
 BYTE   N07
 BYTE   W08
 BYTE   N23  Fn2  v096
 BYTE   W24
// 020   ----------------------------------------
 BYTE   N07  En3  v127
 BYTE   W08
 BYTE   En3  v108
 BYTE   W08
 BYTE   N07
 BYTE   W08
 BYTE   N23  En2  v096
 BYTE   W24
 BYTE   N07  Fn3  v127
 BYTE   W08
 BYTE   Fn3  v108
 BYTE   W08
 BYTE   N07
 BYTE   W08
 BYTE   N23  Fn2  v096
 BYTE   W24
// 021   ----------------------------------------
 BYTE   Gs3  v127
 BYTE   W24
 BYTE   N07  Gs3  v104
 BYTE   W16
 BYTE   N07
 BYTE   W08
 BYTE   Fn3  v127
 BYTE   W08
 BYTE   Fn3  v108
 BYTE   W08
 BYTE   N07
 BYTE   W08
 BYTE   N23  Fn2  v096
 BYTE   W24
// 022   ----------------------------------------
 BYTE   N07  Gn3  v127
 BYTE   W08
 BYTE   Gn3  v108
 BYTE   W08
 BYTE   N07
 BYTE   W08
 BYTE   N23  En2  v096
 BYTE   W24
 BYTE   N07  Fs3  v127
 BYTE   W08
 BYTE   Fs3  v108
 BYTE   W08
 BYTE   N07
 BYTE   W24
 BYTE   Cn3  v127
 BYTE   W08
// 023   ----------------------------------------
 BYTE   N44  Cs3  v104
 BYTE   W96
// 024   ----------------------------------------
 BYTE   W96
// 025   ----------------------------------------
 BYTE   W96
// 026   ----------------------------------------
 BYTE   VOICE   76
 BYTE   VOL   50*PokemonDPPtShowdownattheEliteFourDolkar_mvl/mxv
 BYTE   N44  Cn2
 BYTE   W02
 BYTE   VOL   52*PokemonDPPtShowdownattheEliteFourDolkar_mvl/mxv
 BYTE   W03
 BYTE   En2
 BYTE   W03
 BYTE   Gn2
 BYTE   W06
 BYTE   An2
 BYTE   W03
 BYTE   Cn3
 BYTE   W03
 BYTE   Cs3
 BYTE   W04
 BYTE   Dn3
 BYTE   W02
 BYTE   En3
 BYTE   W03
 BYTE   Fn3
 BYTE   W03
 BYTE   Fs3
 BYTE   W04
 BYTE   Gs3
 BYTE   W02
 BYTE   Gs3
 BYTE   W03
 BYTE   As3
 BYTE   W07
 BYTE   N08  Bn1
 BYTE   W12
 BYTE   Bn1  v064
 BYTE   W12
 BYTE   Bn1  v052
 BYTE   W12
 BYTE   Bn1  v032
 BYTE   W12
// 027   ----------------------------------------
 BYTE   W96
// 028   ----------------------------------------
 BYTE   N44  Cn2  v104
 BYTE   W48
 BYTE   N08  Dn2
 BYTE   W12
 BYTE   Dn2  v064
 BYTE   W12
 BYTE   Dn2  v052
 BYTE   W12
 BYTE   Dn2  v032
 BYTE   W12
// 029   ----------------------------------------
 BYTE   W48
 BYTE   VOICE   76
 BYTE   W48
// 030   ----------------------------------------
 BYTE   VOL   50*PokemonDPPtShowdownattheEliteFourDolkar_mvl/mxv
 BYTE   N44  Cn2  v104
 BYTE   W02
 BYTE   VOL   52*PokemonDPPtShowdownattheEliteFourDolkar_mvl/mxv
 BYTE   W03
 BYTE   En2
 BYTE   W03
 BYTE   Gn2
 BYTE   W06
 BYTE   An2
 BYTE   W03
 BYTE   Cn3
 BYTE   W03
 BYTE   Cs3
 BYTE   W04
 BYTE   Dn3
 BYTE   W02
 BYTE   En3
 BYTE   W03
 BYTE   Fn3
 BYTE   W03
 BYTE   Fs3
 BYTE   W04
 BYTE   Gs3
 BYTE   W02
 BYTE   Gs3
 BYTE   W03
 BYTE   As3
 BYTE   W07
 BYTE   N08  Bn1
 BYTE   W12
 BYTE   Bn1  v064
 BYTE   W12
 BYTE   Bn1  v052
 BYTE   W12
 BYTE   Bn1  v032
 BYTE   W12
// 031   ----------------------------------------
 BYTE   W96
// 032   ----------------------------------------
 BYTE   N44  Cn2  v104
 BYTE   W48
 BYTE   N08  Ds2
 BYTE   W12
 BYTE   Ds2  v064
 BYTE   W12
 BYTE   Ds2  v052
 BYTE   W12
 BYTE   Ds2  v032
 BYTE   W12
// 033   ----------------------------------------
 BYTE   W48
 BYTE   VOICE   18
 BYTE   VOL   50*PokemonDPPtShowdownattheEliteFourDolkar_mvl/mxv
 BYTE   N44  Fn3  v112
 BYTE   W48
// 034   ----------------------------------------
 BYTE   Fs3
 BYTE   W48
 BYTE   Gn3
 BYTE   W48
// 035   ----------------------------------------
 BYTE   Gs3
 BYTE   W48
 BYTE   An3
 BYTE   W48
// 036   ----------------------------------------
 BYTE   As3
 BYTE   W48
 BYTE   Bn3
 BYTE   W48
// 037   ----------------------------------------
 BYTE   Cn4
 BYTE   W48
 BYTE   VOICE   60
 BYTE   VOL   71*PokemonDPPtShowdownattheEliteFourDolkar_mvl/mxv
 BYTE   N23  Cs3
 BYTE   W24
 BYTE   N09  Cn3
 BYTE   W24
// 038   ----------------------------------------
 BYTE   N23  Cs3
 BYTE   W24
 BYTE   N09  Cn3
 BYTE   W24
 BYTE   N05  Ds3
 BYTE   W08
 BYTE   N05
 BYTE   W16
 BYTE   N05
 BYTE   W16
 BYTE   N05
 BYTE   W08
// 039   ----------------------------------------
 BYTE   Fn3
 BYTE   W08
 BYTE   N05
 BYTE   W16
 BYTE   N05
 BYTE   W16
 BYTE   N05
 BYTE   W08
 BYTE   VOICE   60
 BYTE   VOL   71*PokemonDPPtShowdownattheEliteFourDolkar_mvl/mxv
 BYTE   N23  Fs3
 BYTE   W24
 BYTE   N09  Fn3
 BYTE   W24
// 040   ----------------------------------------
 BYTE   N23  Fs3
 BYTE   W24
 BYTE   N09  Fn3
 BYTE   W24
 BYTE   N05  Gs3
 BYTE   W16
 BYTE   N05
 BYTE   W08
 BYTE   N05
 BYTE   W08
 BYTE   N05
 BYTE   W08
 BYTE   N05
 BYTE   W08
// 041   ----------------------------------------
 BYTE   As3
 BYTE   W08
 BYTE   N05
 BYTE   W16
 BYTE   N05
 BYTE   W16
 BYTE   N05
 BYTE   W08
 BYTE   N09  Bn3
 BYTE   W12
 BYTE   Bn3  v076
 BYTE   W12
 BYTE   Bn3  v064
 BYTE   W12
 BYTE   Bn3  v052
 BYTE   W12
// 042   ----------------------------------------
 BYTE   Bn3  v040
 BYTE   W12
 BYTE   Bn3  v024
 BYTE   W32
 BYTE   W03
 BYTE   GoTo
  POIN2 Label_1_0188AD0E
 BYTE   FINE

//**************** Track 3 (Midi-Chn.2) ****************//

PokemonDPPtShowdownattheEliteFourDolkar_003:
// 000   ----------------------------------------
 BYTE   KEYSH   PokemonDPPtShowdownattheEliteFourDolkar_key+0
Label_2_0188AF2A:
 BYTE   VOICE   57
 BYTE   VOL   69*PokemonDPPtShowdownattheEliteFourDolkar_mvl/mxv
 BYTE   PAN   c_v+41
 BYTE   BEND   c_v+0
 BYTE   W48
 BYTE   VOICE   57
 BYTE   PAN   c_v+32
 BYTE   VOL   69*PokemonDPPtShowdownattheEliteFourDolkar_mvl/mxv
 BYTE   N23  Ds3  v112
 BYTE   W24
 BYTE   N03
 BYTE   W08
 BYTE   N03
 BYTE   W08
 BYTE   N03
 BYTE   W08
// 001   ----------------------------------------
 BYTE   N23
 BYTE   W24
 BYTE   N03
 BYTE   W08
 BYTE   N03
 BYTE   W08
 BYTE   N03
 BYTE   W08
 BYTE   N07  Cs3  v127
 BYTE   W12
 BYTE   Cs3  v076
 BYTE   W12
 BYTE   Cs3  v052
 BYTE   W12
 BYTE   Cs3  v032
 BYTE   W12
// 002   ----------------------------------------
 BYTE   Cs3  v020
 BYTE   W96
// 003   ----------------------------------------
 BYTE   W48
 BYTE   Cs3  v127
 BYTE   W12
 BYTE   Cs3  v076
 BYTE   W12
 BYTE   Cs3  v052
 BYTE   W12
 BYTE   Cs3  v032
 BYTE   W12
// 004   ----------------------------------------
 BYTE   Cs3  v020
 BYTE   W96
// 005   ----------------------------------------
 BYTE   W36
 BYTE   W02
 BYTE   N09  As3  v112
 BYTE   W10
 BYTE   TIE  Gs3
 BYTE   W48
// 006   ----------------------------------------
 BYTE   W96
// 007   ----------------------------------------
 BYTE   W32
 BYTE   W03
 BYTE   EOT
 BYTE   W05
 BYTE   N05
 BYTE   W08
 BYTE   N07  As3  v127
 BYTE   W12
 BYTE   As3  v076
 BYTE   W12
 BYTE   As3  v052
 BYTE   W10
 BYTE   VOICE   51
 BYTE   W14
// 008   ----------------------------------------
 BYTE   N07  As2  v112
 BYTE   W08
 BYTE   N07
 BYTE   W08
 BYTE   N07
 BYTE   W08
 BYTE   N23  Dn2
 BYTE   W24
 BYTE   N15  As1
 BYTE   W16
 BYTE   N07
 BYTE   W08
 BYTE   N07
 BYTE   W08
 BYTE   N07
 BYTE   W08
 BYTE   N07
 BYTE   W08
// 009   ----------------------------------------
 BYTE   N15  As2
 BYTE   W16
 BYTE   N07  As1
 BYTE   W08
 BYTE   VOICE   57
 BYTE   W14
 BYTE   N09  As3
 BYTE   W10
 BYTE   TIE  Gs3
 BYTE   W48
// 010   ----------------------------------------
 BYTE   W96
// 011   ----------------------------------------
 BYTE   W32
 BYTE   W03
 BYTE   EOT
 BYTE   W05
 BYTE   N05
 BYTE   W08
 BYTE   N07  As3  v127
 BYTE   W12
 BYTE   As3  v076
 BYTE   W12
 BYTE   As2  v127
 BYTE   W12
 BYTE   As2  v076
 BYTE   W12
// 012   ----------------------------------------
 BYTE   VOICE   51
 BYTE   W24
 BYTE   N23  As1  v112
 BYTE   W24
 BYTE   Fn2
 BYTE   W24
 BYTE   N15  Fn1
 BYTE   W16
 BYTE   N07
 BYTE   W08
// 013   ----------------------------------------
 BYTE   Fn2
 BYTE   W08
 BYTE   N07
 BYTE   W08
 BYTE   N07
 BYTE   W08
 BYTE   N23
 BYTE   W72
// 014   ----------------------------------------
 BYTE   W36
 BYTE   VOICE   57
 BYTE   W02
 BYTE   N09  As3
 BYTE   W10
 BYTE   TIE  Gs3
 BYTE   W48
// 015   ----------------------------------------
 BYTE   W96
// 016   ----------------------------------------
 BYTE   W32
 BYTE   W03
 BYTE   EOT
 BYTE   W03
 BYTE   VOICE   51
 BYTE   W02
 BYTE   N05
 BYTE   W08
 BYTE   N07  As3
 BYTE   W12
 BYTE   As3  v056
 BYTE   W12
 BYTE   N15  As2  v112
 BYTE   W10
 BYTE   VOICE   51
 BYTE   W06
 BYTE   N07  As1
 BYTE   W08
// 017   ----------------------------------------
 BYTE   VOICE   18
 BYTE   VOL   59*PokemonDPPtShowdownattheEliteFourDolkar_mvl/mxv
 BYTE   N23  As3
 BYTE   W24
 BYTE   N07
 BYTE   W24
 BYTE   N44
 BYTE   W48
// 018   ----------------------------------------
 BYTE   N36  Bn3
 BYTE   W36
 BYTE   VOICE   57
 BYTE   W02
 BYTE   VOL   69*PokemonDPPtShowdownattheEliteFourDolkar_mvl/mxv
 BYTE   N09  As3
 BYTE   W10
 BYTE   VOL   69*PokemonDPPtShowdownattheEliteFourDolkar_mvl/mxv
 BYTE   TIE  Gs3
 BYTE   W48
// 019   ----------------------------------------
 BYTE   W96
// 020   ----------------------------------------
 BYTE   W32
 BYTE   W03
 BYTE   EOT
 BYTE   W05
 BYTE   N05
 BYTE   W08
 BYTE   N07  As3
 BYTE   W08
 BYTE   As3  v108
 BYTE   W08
 BYTE   N07
 BYTE   W08
 BYTE   N23  As2  v096
 BYTE   W24
// 021   ----------------------------------------
 BYTE   N07  As3  v112
 BYTE   W08
 BYTE   As3  v108
 BYTE   W08
 BYTE   N07
 BYTE   W08
 BYTE   N23  As2  v096
 BYTE   W24
 BYTE   N07  As3  v112
 BYTE   W08
 BYTE   As3  v108
 BYTE   W08
 BYTE   N07
 BYTE   W08
 BYTE   N23  As2  v096
 BYTE   W24
// 022   ----------------------------------------
 BYTE   Bn3  v112
 BYTE   W24
 BYTE   N07  Bn3  v104
 BYTE   W16
 BYTE   N07
 BYTE   W08
 BYTE   As3  v112
 BYTE   W08
 BYTE   As3  v108
 BYTE   W08
 BYTE   N07
 BYTE   W08
 BYTE   N23  As2  v096
 BYTE   W24
// 023   ----------------------------------------
 BYTE   N07  As3  v112
 BYTE   W08
 BYTE   As3  v108
 BYTE   W08
 BYTE   N07
 BYTE   W08
 BYTE   N23  As2  v096
 BYTE   W24
 BYTE   N07  As3  v112
 BYTE   W08
 BYTE   As3  v108
 BYTE   W08
 BYTE   N07
 BYTE   W24
 BYTE   Ds3  v112
 BYTE   W08
// 024   ----------------------------------------
 BYTE   N44  En3  v104
 BYTE   W96
// 025   ----------------------------------------
 BYTE   W96
// 026   ----------------------------------------
 BYTE   W96
// 027   ----------------------------------------
 BYTE   VOICE   75
 BYTE   VOL   50*PokemonDPPtShowdownattheEliteFourDolkar_mvl/mxv
 BYTE   N44  Fn0
 BYTE   W02
 BYTE   VOL   52*PokemonDPPtShowdownattheEliteFourDolkar_mvl/mxv
 BYTE   W03
 BYTE   En2
 BYTE   W03
 BYTE   Gn2
 BYTE   W06
 BYTE   An2
 BYTE   W03
 BYTE   Cn3
 BYTE   W03
 BYTE   Cs3
 BYTE   W04
 BYTE   Dn3
 BYTE   W02
 BYTE   En3
 BYTE   W03
 BYTE   Fn3
 BYTE   W03
 BYTE   Fs3
 BYTE   W04
 BYTE   Gs3
 BYTE   W02
 BYTE   Gs3
 BYTE   W03
 BYTE   As3
 BYTE   W07
 BYTE   N08
 BYTE   W12
 BYTE   Fn0  v064
 BYTE   W12
 BYTE   Fn0  v052
 BYTE   W12
 BYTE   Fn0  v032
 BYTE   W12
// 028   ----------------------------------------
 BYTE   W96
// 029   ----------------------------------------
 BYTE   N44  Fn0  v104
 BYTE   W48
 BYTE   N08
 BYTE   W12
 BYTE   Fn0  v064
 BYTE   W12
 BYTE   Fn0  v052
 BYTE   W12
 BYTE   Fn0  v032
 BYTE   W12
// 030   ----------------------------------------
 BYTE   W48
 BYTE   VOICE   75
 BYTE   W48
// 031   ----------------------------------------
 BYTE   VOL   50*PokemonDPPtShowdownattheEliteFourDolkar_mvl/mxv
 BYTE   N44  Fn0  v104
 BYTE   W02
 BYTE   VOL   52*PokemonDPPtShowdownattheEliteFourDolkar_mvl/mxv
 BYTE   W03
 BYTE   En2
 BYTE   W03
 BYTE   Gn2
 BYTE   W06
 BYTE   An2
 BYTE   W03
 BYTE   Cn3
 BYTE   W03
 BYTE   Cs3
 BYTE   W04
 BYTE   Dn3
 BYTE   W02
 BYTE   En3
 BYTE   W03
 BYTE   Fn3
 BYTE   W03
 BYTE   Fs3
 BYTE   W04
 BYTE   Gs3
 BYTE   W02
 BYTE   Gs3
 BYTE   W03
 BYTE   As3
 BYTE   W07
 BYTE   N08
 BYTE   W12
 BYTE   Fn0  v064
 BYTE   W12
 BYTE   Fn0  v052
 BYTE   W12
 BYTE   Fn0  v032
 BYTE   W12
// 032   ----------------------------------------
 BYTE   W96
// 033   ----------------------------------------
 BYTE   N44  Fn0  v104
 BYTE   W48
 BYTE   N08  Gn0
 BYTE   W12
 BYTE   Gn0  v064
 BYTE   W12
 BYTE   Gn0  v052
 BYTE   W12
 BYTE   Gn0  v032
 BYTE   W12
// 034   ----------------------------------------
 BYTE   W48
 BYTE   VOICE   18
 BYTE   VOL   52*PokemonDPPtShowdownattheEliteFourDolkar_mvl/mxv
 BYTE   N44  As3  v112
 BYTE   W48
// 035   ----------------------------------------
 BYTE   Bn3
 BYTE   W48
 BYTE   Cn4
 BYTE   W48
// 036   ----------------------------------------
 BYTE   Cs4
 BYTE   W48
 BYTE   Dn4
 BYTE   W48
// 037   ----------------------------------------
 BYTE   Ds4
 BYTE   W48
 BYTE   En4
 BYTE   W48
// 038   ----------------------------------------
 BYTE   Fn4
 BYTE   W48
 BYTE   VOICE   57
 BYTE   VOL   80*PokemonDPPtShowdownattheEliteFourDolkar_mvl/mxv
 BYTE   N23  Fs3
 BYTE   W24
 BYTE   N09  Fn3
 BYTE   W24
// 039   ----------------------------------------
 BYTE   N23  Fs3
 BYTE   W24
 BYTE   N09  Fn3
 BYTE   W24
 BYTE   N05  Gs3
 BYTE   W08
 BYTE   N05
 BYTE   W16
 BYTE   N05
 BYTE   W16
 BYTE   N05
 BYTE   W08
// 040   ----------------------------------------
 BYTE   As3
 BYTE   W08
 BYTE   N05
 BYTE   W16
 BYTE   N05
 BYTE   W16
 BYTE   N05
 BYTE   W08
 BYTE   VOICE   57
 BYTE   VOL   80*PokemonDPPtShowdownattheEliteFourDolkar_mvl/mxv
 BYTE   N23  Bn3
 BYTE   W24
 BYTE   N09  As3
 BYTE   W24
// 041   ----------------------------------------
 BYTE   N23  Bn3
 BYTE   W24
 BYTE   N09  As3
 BYTE   W24
 BYTE   N05  Cs4
 BYTE   W16
 BYTE   N05
 BYTE   W08
 BYTE   N05
 BYTE   W08
 BYTE   N05
 BYTE   W08
 BYTE   N05
 BYTE   W08
// 042   ----------------------------------------
 BYTE   Ds4
 BYTE   W08
 BYTE   N05
 BYTE   W16
 BYTE   N05
 BYTE   W16
 BYTE   N05
 BYTE   W08
 BYTE   N09  En4
 BYTE   W12
 BYTE   En4  v076
 BYTE   W12
 BYTE   En4  v064
 BYTE   W12
 BYTE   En4  v052
 BYTE   W12
// 043   ----------------------------------------
 BYTE   En4  v040
 BYTE   W12
 BYTE   En4  v024
 BYTE   W32
 BYTE   W03
 BYTE   GoTo
  POIN2 Label_2_0188AF2A
 BYTE   FINE

//**************** Track 4 (Midi-Chn.3) ****************//

PokemonDPPtShowdownattheEliteFourDolkar_004:
// 000   ----------------------------------------
 BYTE   KEYSH   PokemonDPPtShowdownattheEliteFourDolkar_key+0
Label_3_0188B16E:
 BYTE   VOICE   2
 BYTE   VOL   80*PokemonDPPtShowdownattheEliteFourDolkar_mvl/mxv
 BYTE   PAN   c_v-38
 BYTE   BEND   c_v+0
 BYTE   W48
 BYTE   VOICE   2
 BYTE   PAN   c_v-38
 BYTE   VOL   80*PokemonDPPtShowdownattheEliteFourDolkar_mvl/mxv
 BYTE   N23  Fn0  v112
 BYTE   W24
 BYTE   N03
 BYTE   W08
 BYTE   N03
 BYTE   W08
 BYTE   N03
 BYTE   W08
// 001   ----------------------------------------
 BYTE   N23
 BYTE   W24
 BYTE   N03
 BYTE   W08
 BYTE   N03
 BYTE   W08
 BYTE   N03
 BYTE   W08
 BYTE   PAN   c_v-32
 BYTE   BEND   c_v+0
 BYTE   N09  As0  v127
 BYTE   W24
 BYTE   As0  v112
 BYTE   W24
// 002   ----------------------------------------
Label_3_0188B19A:
 BYTE   N07  As0  v112
 BYTE   W08
 BYTE   Cn1
 BYTE   W08
 BYTE   Cs1
 BYTE   W08
 BYTE   N11  As0
 BYTE   W24
 BYTE   N09  As0  v127
 BYTE   W24
 BYTE   N08  As0  v112
 BYTE   W08
 BYTE   N07  Cn1
 BYTE   W08
 BYTE   Cs1
 BYTE   W08
 BYTE   PEND 
// 003   ----------------------------------------
Label_3_0188B1B3:
 BYTE   N15  Cn1  v112
 BYTE   W16
 BYTE   N07  Cs1
 BYTE   W08
 BYTE   N15  Bn0
 BYTE   W16
 BYTE   N07  Cs1
 BYTE   W08
 BYTE   N09  As0  v127
 BYTE   W24
 BYTE   As0  v112
 BYTE   W24
 BYTE   PEND 
 BYTE   PATT
  POIN2 Label_3_0188B19A
 BYTE   PATT
  POIN2 Label_3_0188B1B3
 BYTE   PATT
  POIN2 Label_3_0188B19A
 BYTE   PATT
  POIN2 Label_3_0188B1B3
 BYTE   PATT
  POIN2 Label_3_0188B19A
 BYTE   PATT
  POIN2 Label_3_0188B1B3
 BYTE   PATT
  POIN2 Label_3_0188B19A
// 004   ----------------------------------------
Label_3_0188B1EB:
 BYTE   N15  Cn1  v112
 BYTE   W16
 BYTE   N07  Cs1
 BYTE   W08
 BYTE   N15  Bn0
 BYTE   W16
 BYTE   N07  Cs1
 BYTE   W08
 BYTE   N09  As0  v127
 BYTE   W24
 BYTE   N08  As0  v112
 BYTE   W08
 BYTE   N07  Cn1
 BYTE   W08
 BYTE   Cs1
 BYTE   W08
 BYTE   PEND 
 BYTE   PATT
  POIN2 Label_3_0188B1B3
 BYTE   PATT
  POIN2 Label_3_0188B19A
 BYTE   PATT
  POIN2 Label_3_0188B1B3
 BYTE   PATT
  POIN2 Label_3_0188B19A
 BYTE   PATT
  POIN2 Label_3_0188B1B3
 BYTE   PATT
  POIN2 Label_3_0188B19A
 BYTE   PATT
  POIN2 Label_3_0188B1B3
 BYTE   PATT
  POIN2 Label_3_0188B19A
 BYTE   PATT
  POIN2 Label_3_0188B1EB
 BYTE   PATT
  POIN2 Label_3_0188B1B3
 BYTE   PATT
  POIN2 Label_3_0188B19A
 BYTE   PATT
  POIN2 Label_3_0188B1B3
// 005   ----------------------------------------
 BYTE   N07  As0  v112
 BYTE   W08
 BYTE   Cn1
 BYTE   W08
 BYTE   Cs1
 BYTE   W08
 BYTE   N11  As0
 BYTE   W24
 BYTE   N09  Fn0  v127
 BYTE   W24
 BYTE   Fn0  v112
 BYTE   W24
// 006   ----------------------------------------
Label_3_0188B254:
 BYTE   N07  Fn0  v112
 BYTE   W08
 BYTE   Gn0
 BYTE   W08
 BYTE   Gs0
 BYTE   W08
 BYTE   N11  Fn0
 BYTE   W24
 BYTE   N09  Fn0  v127
 BYTE   W24
 BYTE   N08  Fn0  v112
 BYTE   W08
 BYTE   N07  Gn0
 BYTE   W08
 BYTE   Gs0
 BYTE   W08
 BYTE   PEND 
// 007   ----------------------------------------
Label_3_0188B26D:
 BYTE   N15  Gn0  v112
 BYTE   W16
 BYTE   N07  Gs0
 BYTE   W08
 BYTE   N15  Fs0
 BYTE   W16
 BYTE   N07  Gs0
 BYTE   W08
 BYTE   N09  Fn0  v127
 BYTE   W24
 BYTE   Fn0  v112
 BYTE   W24
 BYTE   PEND 
 BYTE   PATT
  POIN2 Label_3_0188B254
// 008   ----------------------------------------
Label_3_0188B287:
 BYTE   N15  Gn0  v112
 BYTE   W16
 BYTE   N07  Gs0
 BYTE   W08
 BYTE   N15  Fs0
 BYTE   W16
 BYTE   N07  Gs0
 BYTE   W08
 BYTE   N09  Fn0  v127
 BYTE   W24
 BYTE   N08  Fn0  v112
 BYTE   W08
 BYTE   N07  Gn0
 BYTE   W08
 BYTE   Gs0
 BYTE   W08
 BYTE   PEND 
 BYTE   PATT
  POIN2 Label_3_0188B26D
// 009   ----------------------------------------
 BYTE   N07  Fn0  v112
 BYTE   W08
 BYTE   Gn0
 BYTE   W08
 BYTE   Gs0
 BYTE   W08
 BYTE   N11  Fn0
 BYTE   W24
 BYTE   N09  Fn0  v127
 BYTE   W24
 BYTE   Fn0  v112
 BYTE   W24
 BYTE   PATT
  POIN2 Label_3_0188B254
 BYTE   PATT
  POIN2 Label_3_0188B287
 BYTE   PATT
  POIN2 Label_3_0188B26D
 BYTE   PATT
  POIN2 Label_3_0188B254
 BYTE   PATT
  POIN2 Label_3_0188B26D
 BYTE   PATT
  POIN2 Label_3_0188B254
 BYTE   PATT
  POIN2 Label_3_0188B26D
// 010   ----------------------------------------
Label_3_0188B2DC:
 BYTE   N07  Fn0  v112
 BYTE   W08
 BYTE   Gn0
 BYTE   W08
 BYTE   Gs0
 BYTE   W08
 BYTE   N11  Fn0
 BYTE   W24
 BYTE   VOICE   2
 BYTE   N09  Fn0  v127
 BYTE   W24
 BYTE   N08  Fn0  v112
 BYTE   W08
 BYTE   N07  Gn0
 BYTE   W08
 BYTE   Gs0
 BYTE   W08
 BYTE   PEND 
 BYTE   PATT
  POIN2 Label_3_0188B26D
 BYTE   PATT
  POIN2 Label_3_0188B2DC
 BYTE   PATT
  POIN2 Label_3_0188B26D
// 011   ----------------------------------------
 BYTE   N07  Fn0  v112
 BYTE   W08
 BYTE   Gn0
 BYTE   W08
 BYTE   Gs0
 BYTE   W08
 BYTE   N11  Fn0
 BYTE   W24
 BYTE   N09  Fn0  v127
 BYTE   W48
// 012   ----------------------------------------
 BYTE   W44
 BYTE   W03
 BYTE   GoTo
  POIN2 Label_3_0188B16E
 BYTE   FINE

//**************** Track 5 (Midi-Chn.4) ****************//

PokemonDPPtShowdownattheEliteFourDolkar_005:
// 000   ----------------------------------------
 BYTE   KEYSH   PokemonDPPtShowdownattheEliteFourDolkar_key+0
Label_4_0188B322:
 BYTE   VOICE   56
 BYTE   PAN   c_v+32
 BYTE   VOL   80*PokemonDPPtShowdownattheEliteFourDolkar_mvl/mxv
 BYTE   BEND   c_v+0
 BYTE   W48
 BYTE   VOICE   56
 BYTE   PAN   c_v+16
 BYTE   N23  Bn3  v112
 BYTE   W24
 BYTE   N03
 BYTE   W08
 BYTE   N03
 BYTE   W08
 BYTE   N03
 BYTE   W08
// 001   ----------------------------------------
 BYTE   N23  An3
 BYTE   W24
 BYTE   N03
 BYTE   W08
 BYTE   N03
 BYTE   W08
 BYTE   N03
 BYTE   W08
 BYTE   N07  As3  v127
 BYTE   W12
 BYTE   As3  v076
 BYTE   W12
 BYTE   As3  v052
 BYTE   W12
 BYTE   As3  v032
 BYTE   W12
// 002   ----------------------------------------
 BYTE   As3  v020
 BYTE   W96
// 003   ----------------------------------------
 BYTE   W48
 BYTE   As3  v127
 BYTE   W12
 BYTE   As3  v076
 BYTE   W12
 BYTE   As3  v052
 BYTE   W12
 BYTE   As3  v032
 BYTE   W12
// 004   ----------------------------------------
 BYTE   As3  v020
 BYTE   W96
// 005   ----------------------------------------
 BYTE   W36
 BYTE   W02
 BYTE   N09  Fs4  v112
 BYTE   W10
 BYTE   TIE  En4  v127
 BYTE   W48
// 006   ----------------------------------------
 BYTE   W96
// 007   ----------------------------------------
 BYTE   W32
 BYTE   W03
 BYTE   EOT
 BYTE   W05
 BYTE   N05  En4  v112
 BYTE   W08
 BYTE   N07  Fn4  v127
 BYTE   W12
 BYTE   Fn4  v076
 BYTE   W12
 BYTE   Fn4  v052
 BYTE   W12
 BYTE   Fn4  v032
 BYTE   W12
// 008   ----------------------------------------
 BYTE   Fn4  v020
 BYTE   W96
// 009   ----------------------------------------
 BYTE   W36
 BYTE   W02
 BYTE   N09  Fs4  v124
 BYTE   W10
 BYTE   TIE  En4  v112
 BYTE   W48
// 010   ----------------------------------------
 BYTE   W96
// 011   ----------------------------------------
 BYTE   W32
 BYTE   W03
 BYTE   EOT
 BYTE   W05
 BYTE   N05  En4  v127
 BYTE   W08
 BYTE   N07  Fn4
 BYTE   W12
 BYTE   Fn4  v076
 BYTE   W12
 BYTE   Fn3  v127
 BYTE   W12
 BYTE   Fn3  v076
 BYTE   W12
// 012   ----------------------------------------
 BYTE   Fn3  v056
 BYTE   W12
 BYTE   Fn3  v036
 BYTE   W84
// 013   ----------------------------------------
 BYTE   VOICE   14
 BYTE   PAN   c_v+48
 BYTE   VOL   68*PokemonDPPtShowdownattheEliteFourDolkar_mvl/mxv
 BYTE   N07  Fn4  v112
 BYTE   W08
 BYTE   N07
 BYTE   W08
 BYTE   N07
 BYTE   W08
 BYTE   N23
 BYTE   W24
 BYTE   PAN   c_v+16
 BYTE   VOL   80*PokemonDPPtShowdownattheEliteFourDolkar_mvl/mxv
 BYTE   W48
// 014   ----------------------------------------
 BYTE   W24
 BYTE   VOICE   56
 BYTE   W14
 BYTE   N09  Fs4  v127
 BYTE   W10
 BYTE   TIE  En4
 BYTE   W48
// 015   ----------------------------------------
 BYTE   W96
// 016   ----------------------------------------
 BYTE   W32
 BYTE   W03
 BYTE   EOT
 BYTE   W05
 BYTE   N05  En4  v112
 BYTE   W08
 BYTE   N07  Fn4  v127
 BYTE   W12
 BYTE   Fn4  v076
 BYTE   W12
 BYTE   Fn4  v052
 BYTE   W12
 BYTE   Fn4  v032
 BYTE   W12
// 017   ----------------------------------------
 BYTE   VOICE   18
 BYTE   VOL   51*PokemonDPPtShowdownattheEliteFourDolkar_mvl/mxv
 BYTE   N23  Cs4  v112
 BYTE   W24
 BYTE   N07
 BYTE   W24
 BYTE   N44
 BYTE   W48
// 018   ----------------------------------------
 BYTE   N36  Fs4
 BYTE   W36
 BYTE   W02
 BYTE   VOICE   56
 BYTE   VOL   80*PokemonDPPtShowdownattheEliteFourDolkar_mvl/mxv
 BYTE   N09
 BYTE   W10
 BYTE   TIE  En4
 BYTE   W48
// 019   ----------------------------------------
 BYTE   W96
// 020   ----------------------------------------
 BYTE   W32
 BYTE   W03
 BYTE   EOT
 BYTE   W05
 BYTE   N05
 BYTE   W08
 BYTE   N07  Fn4  v127
 BYTE   W08
 BYTE   Fn4  v108
 BYTE   W08
 BYTE   N07
 BYTE   W08
 BYTE   N23  Cs2  v096
 BYTE   W24
// 021   ----------------------------------------
 BYTE   N07  En4  v127
 BYTE   W08
 BYTE   En4  v108
 BYTE   W08
 BYTE   N07
 BYTE   W08
 BYTE   N23  Cs2  v096
 BYTE   W24
 BYTE   N07  Fn4  v127
 BYTE   W08
 BYTE   Fn4  v108
 BYTE   W08
 BYTE   N07
 BYTE   W08
 BYTE   N23  Cs2  v096
 BYTE   W24
// 022   ----------------------------------------
 BYTE   PAN   c_v+48
 BYTE   VOL   68*PokemonDPPtShowdownattheEliteFourDolkar_mvl/mxv
 BYTE   N23  Gs4  v127
 BYTE   W24
 BYTE   N07  Gs4  v104
 BYTE   W16
 BYTE   N07
 BYTE   W08
 BYTE   PAN   c_v+16
 BYTE   VOL   80*PokemonDPPtShowdownattheEliteFourDolkar_mvl/mxv
 BYTE   N07  Fn4  v127
 BYTE   W08
 BYTE   Fn4  v108
 BYTE   W08
 BYTE   N07
 BYTE   W08
 BYTE   N23  Cs2  v096
 BYTE   W24
// 023   ----------------------------------------
 BYTE   N07  En4  v127
 BYTE   W08
 BYTE   En4  v108
 BYTE   W08
 BYTE   N07
 BYTE   W08
 BYTE   VOICE   56
 BYTE   N23  Cs2  v096
 BYTE   W24
 BYTE   N07  Ds4  v127
 BYTE   W08
 BYTE   Ds4  v108
 BYTE   W08
 BYTE   N07
 BYTE   W24
 BYTE   Cn4  v127
 BYTE   W08
// 024   ----------------------------------------
 BYTE   N44  Cs4  v104
 BYTE   W96
// 025   ----------------------------------------
 BYTE   W96
// 026   ----------------------------------------
 BYTE   W96
// 027   ----------------------------------------
 BYTE   VOICE   75
 BYTE   VOL   50*PokemonDPPtShowdownattheEliteFourDolkar_mvl/mxv
 BYTE   N44  Cn1
 BYTE   W02
 BYTE   VOL   52*PokemonDPPtShowdownattheEliteFourDolkar_mvl/mxv
 BYTE   W03
 BYTE   En2
 BYTE   W03
 BYTE   Gn2
 BYTE   W06
 BYTE   An2
 BYTE   W03
 BYTE   Cn3
 BYTE   W03
 BYTE   Cs3
 BYTE   W04
 BYTE   Dn3
 BYTE   W02
 BYTE   En3
 BYTE   W03
 BYTE   Fn3
 BYTE   W03
 BYTE   Fs3
 BYTE   W04
 BYTE   Gs3
 BYTE   W02
 BYTE   Gs3
 BYTE   W03
 BYTE   As3
 BYTE   W07
 BYTE   N08  Bn0
 BYTE   W12
 BYTE   Bn0  v064
 BYTE   W12
 BYTE   Bn0  v052
 BYTE   W12
 BYTE   Bn0  v032
 BYTE   W12
// 028   ----------------------------------------
 BYTE   W96
// 029   ----------------------------------------
 BYTE   N44  Cn1  v104
 BYTE   W48
 BYTE   N08  Dn1
 BYTE   W12
 BYTE   Dn1  v064
 BYTE   W12
 BYTE   Dn1  v052
 BYTE   W12
 BYTE   Dn1  v032
 BYTE   W12
// 030   ----------------------------------------
 BYTE   W48
 BYTE   VOICE   75
 BYTE   W48
// 031   ----------------------------------------
 BYTE   VOL   50*PokemonDPPtShowdownattheEliteFourDolkar_mvl/mxv
 BYTE   N44  Cn1  v104
 BYTE   W02
 BYTE   VOL   52*PokemonDPPtShowdownattheEliteFourDolkar_mvl/mxv
 BYTE   W03
 BYTE   En2
 BYTE   W03
 BYTE   Gn2
 BYTE   W06
 BYTE   An2
 BYTE   W03
 BYTE   Cn3
 BYTE   W03
 BYTE   Cs3
 BYTE   W04
 BYTE   Dn3
 BYTE   W02
 BYTE   En3
 BYTE   W03
 BYTE   Fn3
 BYTE   W03
 BYTE   Fs3
 BYTE   W04
 BYTE   Gs3
 BYTE   W02
 BYTE   Gs3
 BYTE   W03
 BYTE   As3
 BYTE   W07
 BYTE   N08  Bn0
 BYTE   W12
 BYTE   Bn0  v064
 BYTE   W12
 BYTE   Bn0  v052
 BYTE   W12
 BYTE   Bn0  v032
 BYTE   W12
// 032   ----------------------------------------
 BYTE   W96
// 033   ----------------------------------------
 BYTE   N44  Cn1  v104
 BYTE   W48
 BYTE   N08  Ds1
 BYTE   W12
 BYTE   Ds1  v064
 BYTE   W12
 BYTE   Ds1  v052
 BYTE   W12
 BYTE   Ds1  v032
 BYTE   W12
// 034   ----------------------------------------
 BYTE   W48
 BYTE   VOICE   18
 BYTE   VOL   52*PokemonDPPtShowdownattheEliteFourDolkar_mvl/mxv
 BYTE   N44  Cs4  v112
 BYTE   W48
// 035   ----------------------------------------
 BYTE   Dn4
 BYTE   W48
 BYTE   Ds4
 BYTE   W48
// 036   ----------------------------------------
 BYTE   En4
 BYTE   W48
 BYTE   Fn4
 BYTE   W48
// 037   ----------------------------------------
 BYTE   Fs4
 BYTE   W48
 BYTE   Gn4
 BYTE   W48
// 038   ----------------------------------------
 BYTE   Gs4
 BYTE   W48
 BYTE   VOICE   56
 BYTE   VOL   80*PokemonDPPtShowdownattheEliteFourDolkar_mvl/mxv
 BYTE   N23  An3
 BYTE   W24
 BYTE   N09  Gs3
 BYTE   W24
// 039   ----------------------------------------
 BYTE   N23  An3
 BYTE   W24
 BYTE   N09  Gs3
 BYTE   W24
 BYTE   N05  Bn3
 BYTE   W08
 BYTE   N05
 BYTE   W16
 BYTE   N05
 BYTE   W16
 BYTE   N05
 BYTE   W08
// 040   ----------------------------------------
 BYTE   Cs4
 BYTE   W08
 BYTE   N05
 BYTE   W16
 BYTE   N05
 BYTE   W16
 BYTE   N05
 BYTE   W08
 BYTE   VOICE   56
 BYTE   VOL   80*PokemonDPPtShowdownattheEliteFourDolkar_mvl/mxv
 BYTE   N23  Dn4
 BYTE   W24
 BYTE   N09  Cs4
 BYTE   W24
// 041   ----------------------------------------
 BYTE   N23  Dn4
 BYTE   W24
 BYTE   N09  Cs4
 BYTE   W24
 BYTE   N05  En4
 BYTE   W16
 BYTE   N05
 BYTE   W08
 BYTE   N05
 BYTE   W08
 BYTE   N05
 BYTE   W08
 BYTE   N05
 BYTE   W08
// 042   ----------------------------------------
 BYTE   Fs4
 BYTE   W08
 BYTE   N05
 BYTE   W16
 BYTE   N05
 BYTE   W16
 BYTE   N05
 BYTE   W08
 BYTE   N09  Gn4
 BYTE   W12
 BYTE   Gn4  v076
 BYTE   W12
 BYTE   Gn4  v064
 BYTE   W12
 BYTE   Gn4  v052
 BYTE   W12
// 043   ----------------------------------------
 BYTE   Gn4  v040
 BYTE   W12
 BYTE   Gn4  v024
 BYTE   W32
 BYTE   W03
 BYTE   GoTo
  POIN2 Label_4_0188B322
 BYTE   FINE

//**************** Track 6 (Midi-Chn.5) ****************//

PokemonDPPtShowdownattheEliteFourDolkar_006:
// 000   ----------------------------------------
 BYTE   KEYSH   PokemonDPPtShowdownattheEliteFourDolkar_key+0
Label_5_0188B55E:
 BYTE   VOICE   56
 BYTE   VOL   69*PokemonDPPtShowdownattheEliteFourDolkar_mvl/mxv
 BYTE   PAN   c_v+40
 BYTE   BEND   c_v+0
 BYTE   W48
 BYTE   VOICE   56
 BYTE   PAN   c_v-14
 BYTE   VOL   68*PokemonDPPtShowdownattheEliteFourDolkar_mvl/mxv
 BYTE   N23  Fs3  v112
 BYTE   W24
 BYTE   N03
 BYTE   W08
 BYTE   N03
 BYTE   W08
 BYTE   N03
 BYTE   W08
// 001   ----------------------------------------
 BYTE   N23
 BYTE   W24
 BYTE   N03
 BYTE   W08
 BYTE   N03
 BYTE   W08
 BYTE   N03
 BYTE   W08
 BYTE   N07  Gn3  v127
 BYTE   W12
 BYTE   Gn3  v076
 BYTE   W12
 BYTE   Gn3  v052
 BYTE   W12
 BYTE   Gn3  v032
 BYTE   W12
// 002   ----------------------------------------
 BYTE   Gn3  v020
 BYTE   W96
// 003   ----------------------------------------
 BYTE   W48
 BYTE   Gn3  v127
 BYTE   W12
 BYTE   Gn3  v076
 BYTE   W12
 BYTE   Gn3  v052
 BYTE   W12
 BYTE   Gn3  v032
 BYTE   W12
// 004   ----------------------------------------
 BYTE   Gn3  v020
 BYTE   W96
// 005   ----------------------------------------
Label_5_0188B59F:
 BYTE   W36
 BYTE   W02
 BYTE   N09  Cs4  v112
 BYTE   W10
 BYTE   TIE  Bn3
 BYTE   W48
 BYTE   PEND 
// 006   ----------------------------------------
 BYTE   W96
// 007   ----------------------------------------
 BYTE   W32
 BYTE   W03
 BYTE   EOT
 BYTE   W05
 BYTE   N05
 BYTE   W08
 BYTE   N07  Cs4  v127
 BYTE   W12
 BYTE   Cs4  v076
 BYTE   W12
 BYTE   Cs4  v052
 BYTE   W12
 BYTE   Cs4  v032
 BYTE   W12
// 008   ----------------------------------------
 BYTE   Cs4  v020
 BYTE   W96
 BYTE   PATT
  POIN2 Label_5_0188B59F
// 009   ----------------------------------------
 BYTE   W96
// 010   ----------------------------------------
 BYTE   W32
 BYTE   W03
 BYTE   EOT
 BYTE   Bn3
 BYTE   W05
 BYTE   N05  Bn3  v112
 BYTE   W08
 BYTE   N07  Cs4  v127
 BYTE   W12
 BYTE   Cs4  v076
 BYTE   W12
 BYTE   Cs3  v127
 BYTE   W12
 BYTE   Cs3  v076
 BYTE   W12
// 011   ----------------------------------------
 BYTE   Cs3  v056
 BYTE   W12
 BYTE   Cs3  v036
 BYTE   W84
// 012   ----------------------------------------
 BYTE   W96
 BYTE   PATT
  POIN2 Label_5_0188B59F
// 013   ----------------------------------------
 BYTE   W96
// 014   ----------------------------------------
 BYTE   W32
 BYTE   W03
 BYTE   EOT
 BYTE   Bn3
 BYTE   W05
 BYTE   N05  Bn3  v112
 BYTE   W08
 BYTE   N07  Cs4  v127
 BYTE   W12
 BYTE   Cs4  v076
 BYTE   W12
 BYTE   Cs4  v052
 BYTE   W12
 BYTE   Cs4  v032
 BYTE   W12
// 015   ----------------------------------------
 BYTE   W96
 BYTE   PATT
  POIN2 Label_5_0188B59F
// 016   ----------------------------------------
 BYTE   W96
// 017   ----------------------------------------
 BYTE   W32
 BYTE   W03
 BYTE   EOT
 BYTE   Bn3
 BYTE   W05
 BYTE   N05  Bn3  v112
 BYTE   W08
 BYTE   N07  Cs4  v127
 BYTE   W08
 BYTE   Cs4  v108
 BYTE   W08
 BYTE   N07
 BYTE   W08
 BYTE   N23  Cs3  v096
 BYTE   W24
// 018   ----------------------------------------
 BYTE   N07  Cs4  v127
 BYTE   W08
 BYTE   Cs4  v108
 BYTE   W08
 BYTE   N07
 BYTE   W08
 BYTE   N23  Cs3  v096
 BYTE   W24
 BYTE   N07  Cs4  v127
 BYTE   W08
 BYTE   Cs4  v108
 BYTE   W08
 BYTE   N07
 BYTE   W08
 BYTE   N23  Cs3  v096
 BYTE   W24
// 019   ----------------------------------------
 BYTE   En4  v127
 BYTE   W24
 BYTE   N07  En4  v104
 BYTE   W16
 BYTE   N07
 BYTE   W08
 BYTE   Cs4  v127
 BYTE   W08
 BYTE   Cs4  v108
 BYTE   W08
 BYTE   N07
 BYTE   W08
 BYTE   N23  Cs3  v096
 BYTE   W24
// 020   ----------------------------------------
 BYTE   N07  Cn4  v127
 BYTE   W08
 BYTE   Cn4  v108
 BYTE   W08
 BYTE   N07
 BYTE   W08
 BYTE   N23  Cn3  v096
 BYTE   W24
 BYTE   N07  Cn4  v127
 BYTE   W08
 BYTE   Cn4  v108
 BYTE   W08
 BYTE   N07
 BYTE   W24
 BYTE   An3  v127
 BYTE   W08
// 021   ----------------------------------------
 BYTE   N44  Gs3  v104
 BYTE   W96
// 022   ----------------------------------------
 BYTE   W96
// 023   ----------------------------------------
 BYTE   W96
// 024   ----------------------------------------
 BYTE   VOICE   75
 BYTE   VOL   50*PokemonDPPtShowdownattheEliteFourDolkar_mvl/mxv
 BYTE   N44  Gs0
 BYTE   W02
 BYTE   VOL   52*PokemonDPPtShowdownattheEliteFourDolkar_mvl/mxv
 BYTE   W03
 BYTE   En2
 BYTE   W03
 BYTE   Gn2
 BYTE   W06
 BYTE   An2
 BYTE   W03
 BYTE   Cn3
 BYTE   W03
 BYTE   Cs3
 BYTE   W04
 BYTE   Dn3
 BYTE   W02
 BYTE   En3
 BYTE   W03
 BYTE   Fn3
 BYTE   W03
 BYTE   Fs3
 BYTE   W04
 BYTE   Gs3
 BYTE   W02
 BYTE   Gs3
 BYTE   W03
 BYTE   As3
 BYTE   W07
 BYTE   N08  Gn0
 BYTE   W12
 BYTE   Gn0  v064
 BYTE   W12
 BYTE   Gn0  v052
 BYTE   W12
 BYTE   Gn0  v032
 BYTE   W12
// 025   ----------------------------------------
 BYTE   W96
// 026   ----------------------------------------
 BYTE   N44  Gs0  v104
 BYTE   W48
 BYTE   N08
 BYTE   W12
 BYTE   Gs0  v064
 BYTE   W12
 BYTE   Gs0  v052
 BYTE   W12
 BYTE   Gs0  v032
 BYTE   W12
// 027   ----------------------------------------
 BYTE   W48
 BYTE   VOICE   75
 BYTE   W48
// 028   ----------------------------------------
 BYTE   VOL   50*PokemonDPPtShowdownattheEliteFourDolkar_mvl/mxv
 BYTE   N44  Gs0  v104
 BYTE   W02
 BYTE   VOL   52*PokemonDPPtShowdownattheEliteFourDolkar_mvl/mxv
 BYTE   W03
 BYTE   En2
 BYTE   W03
 BYTE   Gn2
 BYTE   W06
 BYTE   An2
 BYTE   W03
 BYTE   Cn3
 BYTE   W03
 BYTE   Cs3
 BYTE   W04
 BYTE   Dn3
 BYTE   W02
 BYTE   En3
 BYTE   W03
 BYTE   Fn3
 BYTE   W03
 BYTE   Fs3
 BYTE   W04
 BYTE   Gs3
 BYTE   W02
 BYTE   Gs3
 BYTE   W03
 BYTE   As3
 BYTE   W07
 BYTE   N08  Gn0
 BYTE   W12
 BYTE   Gn0  v064
 BYTE   W12
 BYTE   Gn0  v052
 BYTE   W12
 BYTE   Gn0  v032
 BYTE   W12
// 029   ----------------------------------------
 BYTE   W96
// 030   ----------------------------------------
 BYTE   N44  Gs0  v104
 BYTE   W48
 BYTE   N08  Bn0
 BYTE   W12
 BYTE   Bn0  v064
 BYTE   W12
 BYTE   Bn0  v052
 BYTE   W12
 BYTE   Bn0  v032
 BYTE   W12
// 031   ----------------------------------------
 BYTE   W48
 BYTE   VOICE   18
 BYTE   VOL   49*PokemonDPPtShowdownattheEliteFourDolkar_mvl/mxv
 BYTE   N44  Fn4  v112
 BYTE   W48
// 032   ----------------------------------------
 BYTE   Fs4
 BYTE   W48
 BYTE   Gn4
 BYTE   W48
// 033   ----------------------------------------
 BYTE   Gs4
 BYTE   W48
 BYTE   An4
 BYTE   W48
// 034   ----------------------------------------
 BYTE   As4
 BYTE   W48
 BYTE   Bn4
 BYTE   W48
// 035   ----------------------------------------
 BYTE   Cn5
 BYTE   W48
 BYTE   VOICE   56
 BYTE   VOL   80*PokemonDPPtShowdownattheEliteFourDolkar_mvl/mxv
 BYTE   N23  Cs4
 BYTE   W24
 BYTE   N09  Cn4
 BYTE   W24
// 036   ----------------------------------------
 BYTE   N23  Cs4
 BYTE   W24
 BYTE   N09  Cn4
 BYTE   W24
 BYTE   N05  Ds4
 BYTE   W08
 BYTE   N05
 BYTE   W16
 BYTE   N05
 BYTE   W16
 BYTE   N05
 BYTE   W08
// 037   ----------------------------------------
 BYTE   Fn4
 BYTE   W08
 BYTE   N05
 BYTE   W16
 BYTE   N05
 BYTE   W16
 BYTE   N05
 BYTE   W08
 BYTE   VOICE   56
 BYTE   VOL   80*PokemonDPPtShowdownattheEliteFourDolkar_mvl/mxv
 BYTE   N23  Fs4
 BYTE   W24
 BYTE   N09  Fn4
 BYTE   W24
// 038   ----------------------------------------
 BYTE   N23  Fs4
 BYTE   W24
 BYTE   N09  Fn4
 BYTE   W24
 BYTE   N05  Gs4
 BYTE   W16
 BYTE   N05
 BYTE   W08
 BYTE   N05
 BYTE   W08
 BYTE   N05
 BYTE   W08
 BYTE   N05
 BYTE   W08
// 039   ----------------------------------------
 BYTE   As4
 BYTE   W08
 BYTE   N05
 BYTE   W16
 BYTE   N05
 BYTE   W16
 BYTE   N05
 BYTE   W08
 BYTE   N09  Bn4
 BYTE   W12
 BYTE   Bn4  v076
 BYTE   W12
 BYTE   Bn4  v064
 BYTE   W12
 BYTE   Bn4  v052
 BYTE   W12
// 040   ----------------------------------------
 BYTE   Bn4  v040
 BYTE   W12
 BYTE   Bn4  v024
 BYTE   W32
 BYTE   W03
 BYTE   GoTo
  POIN2 Label_5_0188B55E
 BYTE   FINE

//**************** Track 7 (Midi-Chn.6) ****************//

PokemonDPPtShowdownattheEliteFourDolkar_007:
// 000   ----------------------------------------
 BYTE   KEYSH   PokemonDPPtShowdownattheEliteFourDolkar_key+0
Label_6_0188B762:
 BYTE   VOICE   1
 BYTE   PAN   c_v+0
 BYTE   VOL   71*PokemonDPPtShowdownattheEliteFourDolkar_mvl/mxv
 BYTE   N44  Gn0  v112
 BYTE   W48
 BYTE   VOICE   1
 BYTE   N21  An2
 BYTE   W24
 BYTE   N07  En2
 BYTE   W08
 BYTE   N07
 BYTE   W08
 BYTE   N07
 BYTE   W08
// 001   ----------------------------------------
 BYTE   N23  As2
 BYTE   W24
 BYTE   N07  Gn2
 BYTE   W08
 BYTE   N07
 BYTE   W08
 BYTE   N07
 BYTE   W08
 BYTE   N44  Cs2
 BYTE   W48
// 002   ----------------------------------------
 BYTE   W88
 BYTE   N54  Gn0
 BYTE   W08
// 003   ----------------------------------------
 BYTE   W40
 BYTE   N03  Dn1  v092
 BYTE   W04
 BYTE   N03
 BYTE   W04
 BYTE   N07  Dn1  v112
 BYTE   N44  Cs2
 BYTE   W16
 BYTE   N07  Dn1
 BYTE   W08
 BYTE   N07
 BYTE   W08
 BYTE   N07
 BYTE   W08
 BYTE   N07
 BYTE   W08
// 004   ----------------------------------------
Label_6_0188B79F:
 BYTE   N07  Dn1  v112
 BYTE   W16
 BYTE   N07
 BYTE   W08
 BYTE   N03
 BYTE   W04
 BYTE   Dn1  v092
 BYTE   W04
 BYTE   N03
 BYTE   W04
 BYTE   N03
 BYTE   W04
 BYTE   N03
 BYTE   W04
 BYTE   N03
 BYTE   W04
 BYTE   N07  Dn1  v112
 BYTE   W08
 BYTE   N07
 BYTE   W16
 BYTE   N07
 BYTE   W16
 BYTE   N07
 BYTE   W08
 BYTE   PEND 
// 005   ----------------------------------------
Label_6_0188B7BD:
 BYTE   N07  Dn1  v112
 BYTE   W16
 BYTE   N07
 BYTE   W08
 BYTE   N03
 BYTE   W04
 BYTE   Dn1  v092
 BYTE   W04
 BYTE   N03
 BYTE   W04
 BYTE   N03
 BYTE   W04
 BYTE   N03
 BYTE   W04
 BYTE   N03
 BYTE   W04
 BYTE   N07  Dn1  v112
 BYTE   W16
 BYTE   N07
 BYTE   W08
 BYTE   N07
 BYTE   W08
 BYTE   N07
 BYTE   W08
 BYTE   N07
 BYTE   W08
 BYTE   PEND 
 BYTE   PATT
  POIN2 Label_6_0188B79F
 BYTE   PATT
  POIN2 Label_6_0188B7BD
// 006   ----------------------------------------
 BYTE   N07  Dn1  v112
 BYTE   N07  An2
 BYTE   W08
 BYTE   N07
 BYTE   W08
 BYTE   Dn1
 BYTE   N07  An2
 BYTE   W08
 BYTE   N03  Dn1
 BYTE   N23  As2
 BYTE   W04
 BYTE   N03  Dn1  v092
 BYTE   W04
 BYTE   N03
 BYTE   W04
 BYTE   N03
 BYTE   W04
 BYTE   N03
 BYTE   W04
 BYTE   N03
 BYTE   W04
 BYTE   N07  Dn1  v112
 BYTE   N44  Cs2
 BYTE   W08
 BYTE   N07  Dn1
 BYTE   W16
 BYTE   N07
 BYTE   W16
 BYTE   N07
 BYTE   W08
 BYTE   PATT
  POIN2 Label_6_0188B7BD
 BYTE   PATT
  POIN2 Label_6_0188B79F
// 007   ----------------------------------------
Label_6_0188B81B:
 BYTE   N07  Dn1  v112
 BYTE   W16
 BYTE   N07
 BYTE   W08
 BYTE   N03
 BYTE   W04
 BYTE   Dn1  v092
 BYTE   W04
 BYTE   N03
 BYTE   W04
 BYTE   N03
 BYTE   W04
 BYTE   N03
 BYTE   W04
 BYTE   N03
 BYTE   W04
 BYTE   N07  Dn1  v112
 BYTE   N44  Cs2
 BYTE   W08
 BYTE   N07  Dn1
 BYTE   W16
 BYTE   N07
 BYTE   W16
 BYTE   N07
 BYTE   W08
 BYTE   PEND 
// 008   ----------------------------------------
 BYTE   N07
 BYTE   N07  An2
 BYTE   W08
 BYTE   N07
 BYTE   W08
 BYTE   Dn1
 BYTE   N07  An2
 BYTE   W08
 BYTE   N03  Dn1
 BYTE   N23  As2
 BYTE   W04
 BYTE   N03  Dn1  v092
 BYTE   W04
 BYTE   N03
 BYTE   W04
 BYTE   N03
 BYTE   W04
 BYTE   N03
 BYTE   W04
 BYTE   N03
 BYTE   W04
 BYTE   N07  Dn1  v112
 BYTE   W16
 BYTE   N07
 BYTE   W08
 BYTE   N07
 BYTE   W08
 BYTE   N07
 BYTE   W08
 BYTE   N07
 BYTE   W08
 BYTE   PATT
  POIN2 Label_6_0188B79F
 BYTE   PATT
  POIN2 Label_6_0188B7BD
 BYTE   PATT
  POIN2 Label_6_0188B79F
// 009   ----------------------------------------
 BYTE   N07  Dn1  v112
 BYTE   W16
 BYTE   N07
 BYTE   W08
 BYTE   N03
 BYTE   W04
 BYTE   Dn1  v092
 BYTE   W04
 BYTE   N03
 BYTE   W04
 BYTE   N03
 BYTE   W04
 BYTE   N03
 BYTE   W04
 BYTE   N03
 BYTE   W04
 BYTE   N07  Dn1  v112
 BYTE   W16
 BYTE   N07
 BYTE   W08
 BYTE   N07
 BYTE   N23  An2
 BYTE   W08
 BYTE   N07  Dn1
 BYTE   W08
 BYTE   N07
 BYTE   W08
 BYTE   PATT
  POIN2 Label_6_0188B79F
 BYTE   PATT
  POIN2 Label_6_0188B7BD
 BYTE   PATT
  POIN2 Label_6_0188B79F
 BYTE   PATT
  POIN2 Label_6_0188B81B
 BYTE   PATT
  POIN2 Label_6_0188B7BD
 BYTE   PATT
  POIN2 Label_6_0188B81B
// 010   ----------------------------------------
 BYTE   N07  Dn1  v112
 BYTE   W16
 BYTE   N07
 BYTE   W08
 BYTE   N03
 BYTE   W04
 BYTE   Dn1  v092
 BYTE   W04
 BYTE   N03
 BYTE   W04
 BYTE   N03
 BYTE   W04
 BYTE   N03
 BYTE   W04
 BYTE   N03
 BYTE   W04
 BYTE   N07  Dn1  v112
 BYTE   W16
 BYTE   N07
 BYTE   W08
 BYTE   N68  Gn0
 BYTE   N07  Dn1
 BYTE   W08
 BYTE   N07
 BYTE   W08
 BYTE   N07
 BYTE   W08
// 011   ----------------------------------------
 BYTE   N07
 BYTE   W16
 BYTE   N07
 BYTE   W08
 BYTE   N03
 BYTE   W04
 BYTE   Dn1  v092
 BYTE   W04
 BYTE   N03
 BYTE   W04
 BYTE   N03
 BYTE   W04
 BYTE   N03
 BYTE   W04
 BYTE   N03
 BYTE   W04
 BYTE   N07  Dn1  v112
 BYTE   N68  An2
 BYTE   W16
 BYTE   N07  Dn1
 BYTE   W08
 BYTE   N07
 BYTE   W08
 BYTE   N07
 BYTE   W08
 BYTE   N07
 BYTE   W08
 BYTE   PATT
  POIN2 Label_6_0188B79F
 BYTE   PATT
  POIN2 Label_6_0188B7BD
 BYTE   PATT
  POIN2 Label_6_0188B79F
 BYTE   PATT
  POIN2 Label_6_0188B79F
 BYTE   PATT
  POIN2 Label_6_0188B7BD
 BYTE   PATT
  POIN2 Label_6_0188B7BD
 BYTE   PATT
  POIN2 Label_6_0188B79F
 BYTE   PATT
  POIN2 Label_6_0188B79F
 BYTE   PATT
  POIN2 Label_6_0188B7BD
 BYTE   PATT
  POIN2 Label_6_0188B79F
 BYTE   PATT
  POIN2 Label_6_0188B7BD
 BYTE   PATT
  POIN2 Label_6_0188B79F
 BYTE   PATT
  POIN2 Label_6_0188B7BD
// 012   ----------------------------------------
Label_6_0188B935:
 BYTE   N07  Dn1  v112
 BYTE   W16
 BYTE   N07
 BYTE   W08
 BYTE   N03
 BYTE   W04
 BYTE   Dn1  v092
 BYTE   W04
 BYTE   N03
 BYTE   W04
 BYTE   N03
 BYTE   W04
 BYTE   N03
 BYTE   W04
 BYTE   N03
 BYTE   W04
 BYTE   VOICE   1
 BYTE   N07  Dn1  v112
 BYTE   W08
 BYTE   N07
 BYTE   W16
 BYTE   N07
 BYTE   W16
 BYTE   N07
 BYTE   W08
 BYTE   PEND 
 BYTE   PATT
  POIN2 Label_6_0188B7BD
 BYTE   PATT
  POIN2 Label_6_0188B935
 BYTE   PATT
  POIN2 Label_6_0188B7BD
// 013   ----------------------------------------
 BYTE   N07  Dn1  v112
 BYTE   W16
 BYTE   N07
 BYTE   W08
 BYTE   N03
 BYTE   W04
 BYTE   Dn1  v092
 BYTE   W04
 BYTE   N03
 BYTE   W04
 BYTE   N03
 BYTE   W04
 BYTE   N03
 BYTE   W04
 BYTE   N03
 BYTE   W04
 BYTE   N44  Dn1  v112
 BYTE   N44  An2
 BYTE   W48
// 014   ----------------------------------------
 BYTE   W16
 BYTE   N07  Dn1
 BYTE   W08
 BYTE   N03
 BYTE   W04
 BYTE   Dn1  v092
 BYTE   W04
 BYTE   N03
 BYTE   W04
 BYTE   N03
 BYTE   W04
 BYTE   N03
 BYTE   W04
 BYTE   N03
 BYTE   W03
 BYTE   GoTo
  POIN2 Label_6_0188B762
 BYTE   FINE

//******************************************************//
	ALIGN 4

PokemonDPPtShowdownattheEliteFourDolkar:
	BYTE	7	// NumTrks
	BYTE	0	// NumBlks
	BYTE	PokemonDPPtShowdownattheEliteFourDolkar_pri	// Priority
	BYTE	PokemonDPPtShowdownattheEliteFourDolkar_rev	// Reverb.
    
	POIN2	PokemonDPPtShowdownattheEliteFourDolkar_grp
    
	POIN2	PokemonDPPtShowdownattheEliteFourDolkar_001
	POIN2	PokemonDPPtShowdownattheEliteFourDolkar_002
	POIN2	PokemonDPPtShowdownattheEliteFourDolkar_003
	POIN2	PokemonDPPtShowdownattheEliteFourDolkar_004
	POIN2	PokemonDPPtShowdownattheEliteFourDolkar_005
	POIN2	PokemonDPPtShowdownattheEliteFourDolkar_006
	POIN2	PokemonDPPtShowdownattheEliteFourDolkar_007

	
