//Event file generated from Sappy .s format.
	#include "MPlayDef.event"

	#define	PokemonBWPlasmaSageEncounterDolkar_grp  voicegroup000
	#define	PokemonBWPlasmaSageEncounterDolkar_pri  0
	#define	PokemonBWPlasmaSageEncounterDolkar_rev  0
	#define	PokemonBWPlasmaSageEncounterDolkar_mvl  127
	#define	PokemonBWPlasmaSageEncounterDolkar_key  0
	#define	PokemonBWPlasmaSageEncounterDolkar_tbs  1
	#define	PokemonBWPlasmaSageEncounterDolkar_exg  0
	#define	PokemonBWPlasmaSageEncounterDolkar_cmp  1

	// .rodata
	//	PokemonBWPlasmaSageEncounterDolkar
	ALIGN 4


//**************** Track 1 (Midi-Chn.0) ****************//

PokemonBWPlasmaSageEncounterDolkar_001:
// 000   ----------------------------------------
 BYTE   KEYSH   PokemonBWPlasmaSageEncounterDolkar_key+0
Label_0_01184102:
 BYTE   TEMPO   88*PokemonBWPlasmaSageEncounterDolkar_tbs/2
 BYTE   VOICE   0
 BYTE   VOL   53*PokemonBWPlasmaSageEncounterDolkar_mvl/mxv
 BYTE   PAN   c_v-24
 BYTE   MOD 0
 BYTE   CnM2
 BYTE   N11  Gn3  v112
 BYTE   W12
 BYTE   Dn4  v104
 BYTE   W12
 BYTE   Ds4  v108
 BYTE   W12
 BYTE   As4  v104
 BYTE   W12
 BYTE   N23  Gn4  v108
 BYTE   W48
// 001   ----------------------------------------
 BYTE   N11  Gn3
 BYTE   W12
 BYTE   Cs4  v100
 BYTE   W12
 BYTE   Dn4  v104
 BYTE   W12
 BYTE   An4  v100
 BYTE   W12
 BYTE   N23  Fs4  v104
 BYTE   W48
// 002   ----------------------------------------
 BYTE   N11  Gn3  v112
 BYTE   W12
 BYTE   Dn4  v104
 BYTE   W12
 BYTE   Ds4  v108
 BYTE   W12
 BYTE   Cs5  v104
 BYTE   W12
 BYTE   N23  As4  v108
 BYTE   W48
// 003   ----------------------------------------
 BYTE   N11  Gn3
 BYTE   W12
 BYTE   Cs4  v100
 BYTE   W12
 BYTE   Dn4  v104
 BYTE   W12
 BYTE   Cs5  v100
 BYTE   W12
 BYTE   N23  An4  v104
 BYTE   W48
// 004   ----------------------------------------
 BYTE   W96
// 005   ----------------------------------------
 BYTE   W36
 BYTE   W03
 BYTE   N15  Gn3  v108
 BYTE   W05
 BYTE   Cn4  v104
 BYTE   W02
 BYTE   N19  Dn4  v100
 BYTE   W02
 BYTE   Ds4  v104
 BYTE   W04
 BYTE   N40  As4  v108
 BYTE   W44
// 006   ----------------------------------------
 BYTE   TEMPO   86*PokemonBWPlasmaSageEncounterDolkar_tbs/2
 BYTE   W24
 BYTE   N15  Fs3  v096
 BYTE   W02
 BYTE   An3  v104
 BYTE   W03
 BYTE   N05  Dn4  v100
 BYTE   W02
 BYTE   N07  Ds4  v096
 BYTE   W05
 BYTE   An4  v108
 BYTE   W05
 BYTE   Dn4  v104
 BYTE   W04
 BYTE   N03  Ds4  v108
 BYTE   W06
 BYTE   N44  Dn5
 BYTE   W21
 BYTE   TEMPO   72*PokemonBWPlasmaSageEncounterDolkar_tbs/2
 BYTE   W23
 BYTE   TEMPO   88*PokemonBWPlasmaSageEncounterDolkar_tbs/2
 BYTE   W01
// 007   ----------------------------------------
 BYTE   W05
 BYTE   GoTo
  POIN2 Label_0_01184102
 BYTE   FINE

//**************** Track 2 (Midi-Chn.1) ****************//

PokemonBWPlasmaSageEncounterDolkar_002:
// 000   ----------------------------------------
 BYTE   KEYSH   PokemonBWPlasmaSageEncounterDolkar_key+0
Label_1_01184192:
 BYTE   VOICE   54
 BYTE   VOL   55*PokemonBWPlasmaSageEncounterDolkar_mvl/mxv
 BYTE   PAN   c_v-40
 BYTE   MOD 0
 BYTE   CnM2
 BYTE   W06
 BYTE   N88  As2  v088
 BYTE   N04  Dn3  v100
 BYTE   W06
 BYTE   En3  v096
 BYTE   W06
 BYTE   Dn3  v100
 BYTE   W06
 BYTE   En3  v096
 BYTE   W06
 BYTE   Dn3  v100
 BYTE   W06
 BYTE   En3  v096
 BYTE   W06
 BYTE   Dn3  v100
 BYTE   W06
 BYTE   En3  v096
 BYTE   W06
 BYTE   Dn3  v100
 BYTE   W06
 BYTE   En3  v096
 BYTE   W06
 BYTE   Dn3  v100
 BYTE   W06
 BYTE   En3  v096
 BYTE   W06
 BYTE   Dn3  v100
 BYTE   W06
 BYTE   En3  v096
 BYTE   W06
 BYTE   Dn3  v100
 BYTE   W06
// 001   ----------------------------------------
 BYTE   W06
 BYTE   N88  An2  v088
 BYTE   N04  Cs3  v100
 BYTE   W06
 BYTE   En3  v096
 BYTE   W06
 BYTE   Cs3  v100
 BYTE   W06
 BYTE   En3  v096
 BYTE   W06
 BYTE   Cs3  v100
 BYTE   W06
 BYTE   En3  v096
 BYTE   W06
 BYTE   Cs3  v100
 BYTE   W06
 BYTE   En3  v096
 BYTE   W06
 BYTE   Cs3  v100
 BYTE   W06
 BYTE   En3  v096
 BYTE   W06
 BYTE   Cs3  v100
 BYTE   W06
 BYTE   En3  v096
 BYTE   W06
 BYTE   Cs3  v100
 BYTE   W06
 BYTE   En3  v096
 BYTE   W06
 BYTE   Cs3  v100
 BYTE   W06
// 002   ----------------------------------------
 BYTE   W06
 BYTE   N88  As2  v088
 BYTE   N04  Dn3  v100
 BYTE   W06
 BYTE   En3  v096
 BYTE   W06
 BYTE   Dn3  v100
 BYTE   W06
 BYTE   En3  v096
 BYTE   W06
 BYTE   Dn3  v100
 BYTE   W06
 BYTE   En3  v096
 BYTE   W06
 BYTE   Dn3  v100
 BYTE   W06
 BYTE   En3  v096
 BYTE   W06
 BYTE   Dn3  v100
 BYTE   W06
 BYTE   En3  v096
 BYTE   W06
 BYTE   Dn3  v100
 BYTE   W06
 BYTE   En3  v096
 BYTE   W06
 BYTE   Dn3  v100
 BYTE   W06
 BYTE   En3  v096
 BYTE   W06
 BYTE   Dn3  v100
 BYTE   W06
// 003   ----------------------------------------
 BYTE   W06
 BYTE   N88  An2  v088
 BYTE   N04  Cs3  v100
 BYTE   W06
 BYTE   En3  v096
 BYTE   W06
 BYTE   Cs3  v100
 BYTE   W06
 BYTE   En3  v096
 BYTE   W06
 BYTE   Cs3  v100
 BYTE   W06
 BYTE   En3  v096
 BYTE   W06
 BYTE   Cs3  v100
 BYTE   W06
 BYTE   En3  v096
 BYTE   W06
 BYTE   Cs3  v100
 BYTE   W06
 BYTE   En3  v096
 BYTE   W06
 BYTE   Cs3  v100
 BYTE   W06
 BYTE   En3  v096
 BYTE   W06
 BYTE   Cs3  v100
 BYTE   W06
 BYTE   En3  v096
 BYTE   W06
 BYTE   Cs3  v100
 BYTE   W06
// 004   ----------------------------------------
 BYTE   N11  Dn4  v096
 BYTE   N11  As4  v104
 BYTE   W06
 BYTE   W03
 BYTE   W03
 BYTE   N03  Cs4  v092
 BYTE   N03  An4  v100
 BYTE   W04
 BYTE   Cn4  v088
 BYTE   N03  Gs4  v096
 BYTE   W04
 BYTE   Bn3  v092
 BYTE   N03  Gn4  v096
 BYTE   W04
 BYTE   N11  As3
 BYTE   N11  Fs4  v100
 BYTE   W06
 BYTE   W03
 BYTE   W03
 BYTE   Cs4  v092
 BYTE   N11  An4  v096
 BYTE   W06
 BYTE   W03
 BYTE   W03
 BYTE   Cn4  v092
 BYTE   N11  Gs4  v100
 BYTE   W06
 BYTE   W03
 BYTE   W03
 BYTE   Fs3  v088
 BYTE   N11  Dn4  v096
 BYTE   W06
 BYTE   W03
 BYTE   W03
 BYTE   Fn3  v092
 BYTE   N11  Cs4  v100
 BYTE   W06
 BYTE   W03
 BYTE   W03
 BYTE   Bn3  v088
 BYTE   N11  Gn4  v092
 BYTE   W06
 BYTE   W03
 BYTE   W03
// 005   ----------------------------------------
 BYTE   N92  Gn3  v096
 BYTE   N92  Gs3  v084
 BYTE   N92  As3  v088
 BYTE   N92  Dn4  v080
 BYTE   N92  Fs4  v096
 BYTE   W06
 BYTE   W06
 BYTE   W06
 BYTE   W06
 BYTE   W06
 BYTE   W06
 BYTE   W06
 BYTE   W30
 BYTE   W06
 BYTE   W06
 BYTE   W06
 BYTE   W06
// 006   ----------------------------------------
 BYTE   Fs3
 BYTE   N92  Gn3  v084
 BYTE   N92  An3  v088
 BYTE   N92  Cs4  v080
 BYTE   N92  Fn4  v096
 BYTE   W06
 BYTE   W06
 BYTE   W06
 BYTE   W06
 BYTE   W06
 BYTE   W06
 BYTE   W06
 BYTE   W30
 BYTE   W06
 BYTE   W06
 BYTE   W06
 BYTE   W05
 BYTE   W01
// 007   ----------------------------------------
 BYTE   W05
 BYTE   GoTo
  POIN2 Label_1_01184192
 BYTE   FINE

//**************** Track 3 (Midi-Chn.2) ****************//

PokemonBWPlasmaSageEncounterDolkar_003:
// 000   ----------------------------------------
 BYTE   KEYSH   PokemonBWPlasmaSageEncounterDolkar_key+0
Label_2_011842EE:
 BYTE   VOICE   54
 BYTE   VOL   46*PokemonBWPlasmaSageEncounterDolkar_mvl/mxv
 BYTE   PAN   c_v+36
 BYTE   MOD 0
 BYTE   CnM2
 BYTE   N44  Dn2  v100
 BYTE   W32
 BYTE   W04
 BYTE   W04
 BYTE   W04
 BYTE   W04
 BYTE   N23  Gn2  v096
 BYTE   W12
 BYTE   W04
 BYTE   W04
 BYTE   W04
 BYTE   As2  v092
 BYTE   W12
 BYTE   W04
 BYTE   W04
 BYTE   W04
// 001   ----------------------------------------
 BYTE   N32  An2  v096
 BYTE   W24
 BYTE   W04
 BYTE   W04
 BYTE   W04
 BYTE   N03
 BYTE   W04
 BYTE   Gs2  v092
 BYTE   W04
 BYTE   Gn2  v096
 BYTE   W04
 BYTE   N44  Fs2  v100
 BYTE   W28
 BYTE   W04
 BYTE   W04
 BYTE   W04
 BYTE   W04
 BYTE   W04
// 002   ----------------------------------------
 BYTE   Gn2
 BYTE   W28
 BYTE   W04
 BYTE   W04
 BYTE   W04
 BYTE   W04
 BYTE   W04
 BYTE   N23  As2  v096
 BYTE   W12
 BYTE   W04
 BYTE   W04
 BYTE   W04
 BYTE   Dn3  v092
 BYTE   W12
 BYTE   W04
 BYTE   W04
 BYTE   W04
// 003   ----------------------------------------
 BYTE   N32  Cs3  v096
 BYTE   W20
 BYTE   W04
 BYTE   W04
 BYTE   W04
 BYTE   W04
 BYTE   N03  Cn3
 BYTE   W04
 BYTE   Bn2  v092
 BYTE   W04
 BYTE   As2  v096
 BYTE   W04
 BYTE   N44  An2
 BYTE   W28
 BYTE   W04
 BYTE   W04
 BYTE   W04
 BYTE   W04
 BYTE   W03
 BYTE   W01
// 004   ----------------------------------------
 BYTE   N11  Gn3  v104
 BYTE   W12
 BYTE   N03  Fs3  v100
 BYTE   W04
 BYTE   Fn3  v096
 BYTE   W04
 BYTE   En3  v100
 BYTE   W04
 BYTE   N10  Ds3  v104
 BYTE   W12
 BYTE   Fs3  v100
 BYTE   W12
 BYTE   Fn3
 BYTE   W12
 BYTE   Bn2  v096
 BYTE   W12
 BYTE   As2  v100
 BYTE   W12
 BYTE   En3  v096
 BYTE   W12
// 005   ----------------------------------------
 BYTE   W96
// 006   ----------------------------------------
 BYTE   W96
// 007   ----------------------------------------
 BYTE   W05
 BYTE   GoTo
  POIN2 Label_2_011842EE
 BYTE   FINE

//**************** Track 4 (Midi-Chn.3) ****************//

PokemonBWPlasmaSageEncounterDolkar_004:
// 000   ----------------------------------------
 BYTE   KEYSH   PokemonBWPlasmaSageEncounterDolkar_key+0
Label_3_0118437E:
 BYTE   VOICE   34
 BYTE   VOL   52*PokemonBWPlasmaSageEncounterDolkar_mvl/mxv
 BYTE   PAN   c_v+46
 BYTE   MOD 0
 BYTE   CnM2
 BYTE   N03  Gn0  v100
 BYTE   N03  Gn1  v096
 BYTE   W06
 BYTE   Gn0  v052
 BYTE   N03  Gn1  v048
 BYTE   W05
 BYTE   Dn1  v100
 BYTE   N03  Dn2  v096
 BYTE   W01
 BYTE   PAN   c_v+21
 BYTE   W05
 BYTE   N03  Dn1  v048
 BYTE   N03  Dn2  v044
 BYTE   W78
 BYTE   W01
// 001   ----------------------------------------
 BYTE   PAN   c_v+45
 BYTE   N03  Gn0  v100
 BYTE   N03  Gn1  v096
 BYTE   W06
 BYTE   Gn0  v052
 BYTE   N03  Gn1  v048
 BYTE   W05
 BYTE   Dn1  v100
 BYTE   N03  Dn2  v096
 BYTE   W01
 BYTE   PAN   c_v+20
 BYTE   W05
 BYTE   N03  Dn1  v048
 BYTE   N03  Dn2  v044
 BYTE   W78
 BYTE   W01
// 002   ----------------------------------------
 BYTE   PAN   c_v+45
 BYTE   N03  Gn0  v100
 BYTE   N03  Gn1  v096
 BYTE   W06
 BYTE   Gn0  v052
 BYTE   N03  Gn1  v048
 BYTE   W06
 BYTE   PAN   c_v+20
 BYTE   N03  Dn1  v100
 BYTE   N03  Dn2  v096
 BYTE   W06
 BYTE   Dn1  v048
 BYTE   N03  Dn2  v044
 BYTE   W76
 BYTE   W01
 BYTE   PAN   c_v+45
 BYTE   W01
// 003   ----------------------------------------
 BYTE   N03  Gn0  v100
 BYTE   N03  Gn1  v096
 BYTE   W06
 BYTE   Gn0  v052
 BYTE   N03  Gn1  v048
 BYTE   W05
 BYTE   PAN   c_v+20
 BYTE   W01
 BYTE   N03  Dn1  v100
 BYTE   N03  Dn2  v096
 BYTE   W06
 BYTE   Dn1  v048
 BYTE   N03  Dn2  v044
 BYTE   W78
// 004   ----------------------------------------
 BYTE   PAN   c_v+46
 BYTE   N03  Gn0  v104
 BYTE   N03  Gn1  v096
 BYTE   W06
 BYTE   Gn0  v052
 BYTE   N03  Gn1  v044
 BYTE   W06
 BYTE   Gn0  v040
 BYTE   N03  Gn1  v032
 BYTE   W12
 BYTE   Ds1  v104
 BYTE   N03  Ds2  v096
 BYTE   W06
 BYTE   Ds1  v052
 BYTE   N03  Ds2  v044
 BYTE   W06
 BYTE   Ds1  v040
 BYTE   N03  Ds2  v032
 BYTE   W12
 BYTE   Dn1  v104
 BYTE   N03  Dn2  v096
 BYTE   W06
 BYTE   Dn1  v052
 BYTE   N03  Dn2  v044
 BYTE   W06
 BYTE   Dn1  v040
 BYTE   N03  Dn2  v032
 BYTE   W12
 BYTE   As0  v104
 BYTE   N03  As1  v096
 BYTE   W06
 BYTE   As0  v052
 BYTE   N03  As1  v044
 BYTE   W06
 BYTE   As0  v040
 BYTE   N03  As1  v032
 BYTE   W12
// 005   ----------------------------------------
 BYTE   W96
// 006   ----------------------------------------
 BYTE   W96
// 007   ----------------------------------------
 BYTE   W05
 BYTE   GoTo
  POIN2 Label_3_0118437E
 BYTE   FINE

//**************** Track 5 (Midi-Chn.4) ****************//

PokemonBWPlasmaSageEncounterDolkar_005:
// 000   ----------------------------------------
 BYTE   KEYSH   PokemonBWPlasmaSageEncounterDolkar_key+0
Label_4_0118445A:
 BYTE   VOICE   63
 BYTE   VOL   44*PokemonBWPlasmaSageEncounterDolkar_mvl/mxv
 BYTE   PAN   c_v+16
 BYTE   MOD 0
 BYTE   CnM2
 BYTE   N92  Dn3  v088
 BYTE   N92  Gn3  v092
 BYTE   W06
 BYTE   W06
 BYTE   W06
 BYTE   W06
 BYTE   W06
 BYTE   W06
 BYTE   W06
 BYTE   W30
 BYTE   W06
 BYTE   W06
 BYTE   W06
 BYTE   W06
// 001   ----------------------------------------
Label_4_01184474:
 BYTE   N92  Cs3  v084
 BYTE   N92  Fs3
 BYTE   W06
 BYTE   W06
 BYTE   W06
 BYTE   W06
 BYTE   W06
 BYTE   W06
 BYTE   W06
 BYTE   W30
 BYTE   W06
 BYTE   W06
 BYTE   W06
 BYTE   W06
 BYTE   PEND 
// 002   ----------------------------------------
 BYTE   Dn3  v088
 BYTE   N92  Gn3  v092
 BYTE   W06
 BYTE   W06
 BYTE   W06
 BYTE   W06
 BYTE   W06
 BYTE   W06
 BYTE   W06
 BYTE   W30
 BYTE   W06
 BYTE   W06
 BYTE   W06
 BYTE   W06
 BYTE   PATT
  POIN2 Label_4_01184474
// 003   ----------------------------------------
 BYTE   W96
// 004   ----------------------------------------
 BYTE   N92  As2  v100
 BYTE   N92  Dn3  v096
 BYTE   N92  Fs3  v100
 BYTE   W06
 BYTE   W06
 BYTE   W06
 BYTE   W06
 BYTE   W06
 BYTE   W06
 BYTE   W06
 BYTE   W30
 BYTE   W06
 BYTE   W06
 BYTE   W06
 BYTE   W06
// 005   ----------------------------------------
 BYTE   N96  An2
 BYTE   N92  Cs3  v092
 BYTE   N92  Fn3  v100
 BYTE   W06
 BYTE   W06
 BYTE   W06
 BYTE   W06
 BYTE   W06
 BYTE   W06
 BYTE   W06
 BYTE   W30
 BYTE   W06
 BYTE   W06
 BYTE   W06
 BYTE   W05
 BYTE   W01
// 006   ----------------------------------------
 BYTE   W05
 BYTE   GoTo
  POIN2 Label_4_0118445A
 BYTE   FINE

//**************** Track 6 (Midi-Chn.5) ****************//

PokemonBWPlasmaSageEncounterDolkar_006:
// 000   ----------------------------------------
 BYTE   KEYSH   PokemonBWPlasmaSageEncounterDolkar_key+0
Label_5_011844D2:
 BYTE   VOICE   34
 BYTE   VOL   44*PokemonBWPlasmaSageEncounterDolkar_mvl/mxv
 BYTE   PAN   c_v-44
 BYTE   MOD 0
 BYTE   CnM2
 BYTE   W24
 BYTE   PAN   c_v-14
 BYTE   N03  Fn3  v096
 BYTE   N03  As3
 BYTE   W06
 BYTE   Fn3  v048
 BYTE   N03  As3  v044
 BYTE   W06
 BYTE   PAN   c_v-27
 BYTE   N03  As3  v088
 BYTE   N03  Dn4  v092
 BYTE   W06
 BYTE   As3  v036
 BYTE   N03  Dn4  v040
 BYTE   W06
 BYTE   PAN   c_v-44
 BYTE   N03  Dn4  v088
 BYTE   N03  Gn4  v096
 BYTE   W06
 BYTE   Dn4  v040
 BYTE   N03  Gn4  v044
 BYTE   W06
 BYTE   Dn4  v024
 BYTE   N03  Gn4  v032
 BYTE   W36
// 001   ----------------------------------------
Label_5_0118450D:
 BYTE   W24
 BYTE   PAN   c_v-14
 BYTE   N03  En3  v096
 BYTE   N03  As3
 BYTE   W06
 BYTE   En3  v048
 BYTE   N03  As3  v044
 BYTE   W06
 BYTE   PAN   c_v-27
 BYTE   N03  As3  v088
 BYTE   N03  Dn4  v092
 BYTE   W06
 BYTE   As3  v036
 BYTE   N03  Dn4  v040
 BYTE   W06
 BYTE   PAN   c_v-44
 BYTE   N03  Dn4  v088
 BYTE   N03  En4  v096
 BYTE   W06
 BYTE   Dn4  v040
 BYTE   N03  En4  v044
 BYTE   W06
 BYTE   Dn4  v028
 BYTE   N03  En4  v032
 BYTE   W36
 BYTE   PEND 
// 002   ----------------------------------------
 BYTE   W24
 BYTE   PAN   c_v-14
 BYTE   N03  Fn3  v096
 BYTE   N03  As3
 BYTE   W06
 BYTE   Fn3  v048
 BYTE   N03  As3  v044
 BYTE   W06
 BYTE   PAN   c_v-27
 BYTE   N03  As3  v088
 BYTE   N03  Dn4  v092
 BYTE   W06
 BYTE   As3  v036
 BYTE   N03  Dn4  v040
 BYTE   W06
 BYTE   PAN   c_v-44
 BYTE   N03  Dn4  v088
 BYTE   N03  Gn4  v096
 BYTE   W06
 BYTE   Dn4  v040
 BYTE   N03  Gn4  v044
 BYTE   W06
 BYTE   Dn4  v024
 BYTE   N03  Gn4  v032
 BYTE   W36
 BYTE   PATT
  POIN2 Label_5_0118450D
// 003   ----------------------------------------
 BYTE   W96
// 004   ----------------------------------------
 BYTE   W96
// 005   ----------------------------------------
 BYTE   W96
// 006   ----------------------------------------
 BYTE   W05
 BYTE   GoTo
  POIN2 Label_5_011844D2
 BYTE   FINE

//**************** Track 7 (Midi-Chn.6) ****************//

PokemonBWPlasmaSageEncounterDolkar_007:
// 000   ----------------------------------------
 BYTE   KEYSH   PokemonBWPlasmaSageEncounterDolkar_key+0
Label_6_01184586:
 BYTE   VOICE   38
 BYTE   VOL   60*PokemonBWPlasmaSageEncounterDolkar_mvl/mxv
 BYTE   PAN   c_v-24
 BYTE   MOD 0
 BYTE   CnM2
 BYTE   N28  Cn2  v088
 BYTE   W96
// 001   ----------------------------------------
 BYTE   W96
// 002   ----------------------------------------
 BYTE   N28
 BYTE   W96
// 003   ----------------------------------------
 BYTE   W96
// 004   ----------------------------------------
 BYTE   N28
 BYTE   W96
// 005   ----------------------------------------
 BYTE   W96
// 006   ----------------------------------------
 BYTE   W96
// 007   ----------------------------------------
 BYTE   W05
 BYTE   GoTo
  POIN2 Label_6_01184586
 BYTE   FINE

//**************** Track 8 (Midi-Chn.7) ****************//

PokemonBWPlasmaSageEncounterDolkar_008:
// 000   ----------------------------------------
 BYTE   KEYSH   PokemonBWPlasmaSageEncounterDolkar_key+0
Label_7_011845A6:
 BYTE   VOICE   0
 BYTE   VOL   24*PokemonBWPlasmaSageEncounterDolkar_mvl/mxv
 BYTE   PAN   c_v+56
 BYTE   MOD 0
 BYTE   CnM2
 BYTE   W06
 BYTE   N10  Gn3  v108
 BYTE   W12
 BYTE   Dn4  v100
 BYTE   W12
 BYTE   Ds4  v104
 BYTE   W12
 BYTE   As4  v100
 BYTE   W12
 BYTE   N28  Gn4  v104
 BYTE   W42
// 001   ----------------------------------------
 BYTE   W06
 BYTE   N10  Gn3
 BYTE   W12
 BYTE   Cs4  v100
 BYTE   W12
 BYTE   Dn4
 BYTE   W12
 BYTE   An4  v096
 BYTE   W12
 BYTE   N28  Fs4  v100
 BYTE   W42
// 002   ----------------------------------------
 BYTE   W06
 BYTE   N10  Gn3  v108
 BYTE   W12
 BYTE   Dn4  v100
 BYTE   W12
 BYTE   Ds4  v104
 BYTE   W12
 BYTE   Cs5  v100
 BYTE   W12
 BYTE   N28  As4  v104
 BYTE   W42
// 003   ----------------------------------------
 BYTE   W06
 BYTE   N10  Gn3
 BYTE   W12
 BYTE   Cs4  v100
 BYTE   W12
 BYTE   Dn4
 BYTE   W12
 BYTE   Cs5  v096
 BYTE   W12
 BYTE   N28  An4  v100
 BYTE   W42
// 004   ----------------------------------------
 BYTE   W96
// 005   ----------------------------------------
 BYTE   W48
 BYTE   N11  Gn3  v108
 BYTE   W04
 BYTE   Cn4  v104
 BYTE   W02
 BYTE   N15  Dn4  v100
 BYTE   W02
 BYTE   Ds4  v104
 BYTE   W04
 BYTE   N36  As4  v108
 BYTE   W36
// 006   ----------------------------------------
 BYTE   W32
 BYTE   N11  Fs3  v096
 BYTE   W03
 BYTE   An3  v104
 BYTE   W02
 BYTE   N05  Dn4  v100
 BYTE   W02
 BYTE   N07  Ds4  v096
 BYTE   W06
 BYTE   An4  v108
 BYTE   W04
 BYTE   Dn4  v104
 BYTE   W04
 BYTE   N03  Ds4  v108
 BYTE   W06
 BYTE   N32  Dn5
 BYTE   W36
 BYTE   W01
// 007   ----------------------------------------
 BYTE   W05
 BYTE   GoTo
  POIN2 Label_7_011845A6
 BYTE   FINE

//**************** Track 9 (Midi-Chn.8) ****************//

PokemonBWPlasmaSageEncounterDolkar_009:
// 000   ----------------------------------------
 BYTE   KEYSH   PokemonBWPlasmaSageEncounterDolkar_key+0
Label_8_0118462E:
 BYTE   VOICE   34
 BYTE   VOL   16*PokemonBWPlasmaSageEncounterDolkar_mvl/mxv
 BYTE   PAN   c_v+56
 BYTE   MOD 0
 BYTE   CnM2
 BYTE   W12
 BYTE   N03  Gn1  v092
 BYTE   W06
 BYTE   Gn1  v040
 BYTE   W06
 BYTE   Dn2  v092
 BYTE   W06
 BYTE   Dn2  v040
 BYTE   W06
 BYTE   As3  v096
 BYTE   W06
 BYTE   As3  v044
 BYTE   W06
 BYTE   Dn4  v092
 BYTE   W06
 BYTE   Dn4  v040
 BYTE   W06
 BYTE   Gn4  v096
 BYTE   W06
 BYTE   Gn4  v044
 BYTE   W06
 BYTE   Gn4  v032
 BYTE   W24
// 001   ----------------------------------------
 BYTE   W12
 BYTE   Gn1  v092
 BYTE   W06
 BYTE   Gn1  v040
 BYTE   W06
 BYTE   Dn2  v092
 BYTE   W06
 BYTE   Dn2  v040
 BYTE   W06
 BYTE   As3  v096
 BYTE   W06
 BYTE   As3  v044
 BYTE   W06
 BYTE   Dn4  v092
 BYTE   W06
 BYTE   Dn4  v040
 BYTE   W06
 BYTE   En4  v096
 BYTE   W06
 BYTE   En4  v044
 BYTE   W06
 BYTE   En4  v032
 BYTE   W24
// 002   ----------------------------------------
 BYTE   W12
 BYTE   Gn1  v092
 BYTE   W06
 BYTE   Gn1  v040
 BYTE   W06
 BYTE   Dn2  v092
 BYTE   W06
 BYTE   Dn2  v040
 BYTE   W06
 BYTE   As3  v096
 BYTE   W06
 BYTE   As3  v044
 BYTE   W06
 BYTE   Dn4  v092
 BYTE   W06
 BYTE   Dn4  v040
 BYTE   W06
 BYTE   Gn4  v096
 BYTE   W06
 BYTE   Gn4  v044
 BYTE   W06
 BYTE   Gn4  v032
 BYTE   W24
// 003   ----------------------------------------
 BYTE   W12
 BYTE   Gn1  v092
 BYTE   W06
 BYTE   Gn1  v040
 BYTE   W06
 BYTE   Dn2  v092
 BYTE   W06
 BYTE   Dn2  v040
 BYTE   W06
 BYTE   As3  v096
 BYTE   W06
 BYTE   As3  v044
 BYTE   W06
 BYTE   Dn4  v092
 BYTE   W06
 BYTE   Dn4  v040
 BYTE   W06
 BYTE   En4  v096
 BYTE   W06
 BYTE   En4  v044
 BYTE   W06
 BYTE   En4  v032
 BYTE   W23
 BYTE   VOICE   54
 BYTE   W01
// 004   ----------------------------------------
 BYTE   W06
 BYTE   N11  As4  v112
 BYTE   W12
 BYTE   N03  An4  v108
 BYTE   W04
 BYTE   Gs4  v104
 BYTE   W04
 BYTE   Gn4
 BYTE   W04
 BYTE   N11  Fs4  v108
 BYTE   W12
 BYTE   An4  v104
 BYTE   W12
 BYTE   Gs4  v108
 BYTE   W12
 BYTE   Dn4  v104
 BYTE   W12
 BYTE   Cs4  v108
 BYTE   W12
 BYTE   Gn4  v100
 BYTE   W06
// 005   ----------------------------------------
 BYTE   W06
 BYTE   N92  Fs4  v096
 BYTE   W06
 BYTE   W06
 BYTE   W06
 BYTE   W06
 BYTE   W06
 BYTE   W06
 BYTE   W06
 BYTE   W30
 BYTE   W06
 BYTE   W06
 BYTE   W06
// 006   ----------------------------------------
 BYTE   W06
 BYTE   Fn4
 BYTE   W06
 BYTE   W06
 BYTE   W06
 BYTE   W06
 BYTE   W06
 BYTE   W06
 BYTE   W06
 BYTE   W30
 BYTE   W06
 BYTE   W06
 BYTE   W06
// 007   ----------------------------------------
 BYTE   W05
 BYTE   GoTo
  POIN2 Label_8_0118462E
 BYTE   FINE

//******************************************************//
	ALIGN 4

PokemonBWPlasmaSageEncounterDolkar:
	BYTE	9	// NumTrks
	BYTE	0	// NumBlks
	BYTE	PokemonBWPlasmaSageEncounterDolkar_pri	// Priority
	BYTE	PokemonBWPlasmaSageEncounterDolkar_rev	// Reverb.
    
	POIN2	PokemonBWPlasmaSageEncounterDolkar_grp
    
	POIN2	PokemonBWPlasmaSageEncounterDolkar_001
	POIN2	PokemonBWPlasmaSageEncounterDolkar_002
	POIN2	PokemonBWPlasmaSageEncounterDolkar_003
	POIN2	PokemonBWPlasmaSageEncounterDolkar_004
	POIN2	PokemonBWPlasmaSageEncounterDolkar_005
	POIN2	PokemonBWPlasmaSageEncounterDolkar_006
	POIN2	PokemonBWPlasmaSageEncounterDolkar_007
	POIN2	PokemonBWPlasmaSageEncounterDolkar_008
	POIN2	PokemonBWPlasmaSageEncounterDolkar_009

	
