//Event file generated from Sappy .s format.
	#include "MPlayDef.event"

	#define	PokemonDPPtSnowpointCityDolkar_grp  voicegroup000
	#define	PokemonDPPtSnowpointCityDolkar_pri  0
	#define	PokemonDPPtSnowpointCityDolkar_rev  0
	#define	PokemonDPPtSnowpointCityDolkar_mvl  127
	#define	PokemonDPPtSnowpointCityDolkar_key  0
	#define	PokemonDPPtSnowpointCityDolkar_tbs  1
	#define	PokemonDPPtSnowpointCityDolkar_exg  0
	#define	PokemonDPPtSnowpointCityDolkar_cmp  1

	// .rodata
	//	PokemonDPPtSnowpointCityDolkar
	ALIGN 4


//**************** Track 1 (Midi-Chn.0) ****************//

PokemonDPPtSnowpointCityDolkar_001:
// 000   ----------------------------------------
 BYTE   KEYSH   PokemonDPPtSnowpointCityDolkar_key+0
Label_0_0188E64A:
 BYTE   TEMPO   104*PokemonDPPtSnowpointCityDolkar_tbs/2
 BYTE   VOICE   46
 BYTE   PAN   c_v+0
 BYTE   MOD 0
 BYTE   CnM2
 BYTE   VOL   80*PokemonDPPtSnowpointCityDolkar_mvl/mxv
 BYTE   BEND   c_v+0
 BYTE   N44  Gs4  v112
 BYTE   W48
 BYTE   An4
 BYTE   W48
// 001   ----------------------------------------
Label_0_0188E65C:
 BYTE   N44  Dn4  v112
 BYTE   W48
 BYTE   Ds4
 BYTE   W48
 BYTE   PEND 
// 002   ----------------------------------------
Label_0_0188E663:
 BYTE   N44  Bn4  v112
 BYTE   W48
 BYTE   Cs5
 BYTE   W48
 BYTE   PEND 
// 003   ----------------------------------------
Label_0_0188E66A:
 BYTE   N44  Gn4  v112
 BYTE   W48
 BYTE   Gs4
 BYTE   W48
 BYTE   PEND 
// 004   ----------------------------------------
 BYTE   N92  An4
 BYTE   W96
// 005   ----------------------------------------
 BYTE   Ds4
 BYTE   W96
// 006   ----------------------------------------
 BYTE   N44  Gs4
 BYTE   W48
 BYTE   An4
 BYTE   W48
 BYTE   PATT
  POIN2 Label_0_0188E65C
 BYTE   PATT
  POIN2 Label_0_0188E663
 BYTE   PATT
  POIN2 Label_0_0188E66A
// 007   ----------------------------------------
Label_0_0188E68A:
 BYTE   N44  An4  v112
 BYTE   W48
 BYTE   Cs4
 BYTE   W48
 BYTE   PEND 
// 008   ----------------------------------------
 BYTE   En4
 BYTE   W48
 BYTE   Ds4
 BYTE   W48
// 009   ----------------------------------------
 BYTE   Bn4
 BYTE   W48
 BYTE   Cn5
 BYTE   W48
 BYTE   PATT
  POIN2 Label_0_0188E66A
 BYTE   PATT
  POIN2 Label_0_0188E68A
// 010   ----------------------------------------
 BYTE   N44  En4  v112
 BYTE   W48
 BYTE   Fs4
 BYTE   W48
// 011   ----------------------------------------
 BYTE   N92  En4
 BYTE   W96
// 012   ----------------------------------------
 BYTE   N44  Bn3
 BYTE   W48
 BYTE   En4
 BYTE   W48
// 013   ----------------------------------------
Label_0_0188E6B1:
 BYTE   N44  An4  v112
 BYTE   W48
 BYTE   Gs4
 BYTE   W48
 BYTE   PEND 
// 014   ----------------------------------------
Label_0_0188E6B8:
 BYTE   N44  En4  v112
 BYTE   W48
 BYTE   Bn3
 BYTE   W48
 BYTE   PEND 
 BYTE   PATT
  POIN2 Label_0_0188E6B1
 BYTE   PATT
  POIN2 Label_0_0188E6B8
 BYTE   PATT
  POIN2 Label_0_0188E6B8
// 015   ----------------------------------------
 BYTE   N44  Fs4  v112
 BYTE   W48
 BYTE   En4
 BYTE   W48
// 016   ----------------------------------------
 BYTE   TIE  Bn3
 BYTE   W96
// 017   ----------------------------------------
 BYTE   W44
 BYTE   W03
 BYTE   EOT
 BYTE   W01
 BYTE   N44  En4
 BYTE   W48
// 018   ----------------------------------------
 BYTE   Bn4
 BYTE   W48
 BYTE   An4
 BYTE   W48
// 019   ----------------------------------------
 BYTE   Gs4
 BYTE   W48
 BYTE   En5
 BYTE   W48
// 020   ----------------------------------------
 BYTE   Gs4
 BYTE   W48
 BYTE   Gn4
 BYTE   W48
// 021   ----------------------------------------
 BYTE   Ds4
 BYTE   W48
 BYTE   Ds5
 BYTE   W48
// 022   ----------------------------------------
 BYTE   Cs5
 BYTE   W48
 BYTE   Cs4
 BYTE   W48
// 023   ----------------------------------------
 BYTE   Fs4
 BYTE   W48
 BYTE   Gs4
 BYTE   W48
// 024   ----------------------------------------
 BYTE   N92  As4
 BYTE   W96
// 025   ----------------------------------------
 BYTE   N44  Cs4
 BYTE   W48
 BYTE   Fs4
 BYTE   W48
// 026   ----------------------------------------
 BYTE   N92  Fn4
 BYTE   W96
// 027   ----------------------------------------
 BYTE   An4
 BYTE   W96
// 028   ----------------------------------------
 BYTE   En4
 BYTE   W96
// 029   ----------------------------------------
 BYTE   Fs4
 BYTE   W96
// 030   ----------------------------------------
 BYTE   En4
 BYTE   W96
// 031   ----------------------------------------
 BYTE   N44  Bn3
 BYTE   W48
 BYTE   An4
 BYTE   W48
// 032   ----------------------------------------
 BYTE   Gs4
 BYTE   W48
 BYTE   En4
 BYTE   W48
// 033   ----------------------------------------
 BYTE   An3
 BYTE   W48
 BYTE   En4
 BYTE   W48
// 034   ----------------------------------------
 BYTE   Bn3
 BYTE   W48
 BYTE   Fs4
 BYTE   W48
// 035   ----------------------------------------
 BYTE   TIE  En4
 BYTE   W96
// 036   ----------------------------------------
 BYTE   W92
 BYTE   W03
 BYTE   EOT
 BYTE   W01
// 037   ----------------------------------------
 BYTE   W96
// 038   ----------------------------------------
 BYTE   W96
// 039   ----------------------------------------
 BYTE   W92
 BYTE   W03
 BYTE   GoTo
  POIN2 Label_0_0188E64A
 BYTE   FINE

//**************** Track 2 (Midi-Chn.1) ****************//

PokemonDPPtSnowpointCityDolkar_002:
// 000   ----------------------------------------
 BYTE   KEYSH   PokemonDPPtSnowpointCityDolkar_key+0
Label_1_0188E72E:
 BYTE   VOICE   4
 BYTE   VOL   69*PokemonDPPtSnowpointCityDolkar_mvl/mxv
 BYTE   MOD 0
 BYTE   CnM2
 BYTE   PAN   c_v+63
 BYTE   BEND   c_v+0
 BYTE   W96
// 001   ----------------------------------------
 BYTE   W96
// 002   ----------------------------------------
 BYTE   W96
// 003   ----------------------------------------
 BYTE   W96
// 004   ----------------------------------------
 BYTE   W96
// 005   ----------------------------------------
 BYTE   W96
// 006   ----------------------------------------
 BYTE   N05  Fs3  v020
 BYTE   W06
 BYTE   N05
 BYTE   W06
 BYTE   Fs3  v052
 BYTE   W06
 BYTE   Fs3  v096
 BYTE   W06
 BYTE   Fs3  v052
 BYTE   W06
 BYTE   Fs3  v020
 BYTE   W06
 BYTE   Fs3  v052
 BYTE   W06
 BYTE   Fs3  v096
 BYTE   W06
 BYTE   Fs3  v052
 BYTE   W06
 BYTE   Fs3  v020
 BYTE   W06
 BYTE   Fs3  v052
 BYTE   W06
 BYTE   Fs3  v020
 BYTE   W06
 BYTE   Fs3  v052
 BYTE   W06
 BYTE   N05
 BYTE   W06
 BYTE   Fs3  v020
 BYTE   W06
 BYTE   N05
 BYTE   W06
// 007   ----------------------------------------
Label_1_0188E76C:
 BYTE   N05  Ds3  v020
 BYTE   W06
 BYTE   N05
 BYTE   W06
 BYTE   Ds3  v052
 BYTE   W06
 BYTE   Ds3  v096
 BYTE   W06
 BYTE   Ds3  v052
 BYTE   W06
 BYTE   Ds3  v020
 BYTE   W06
 BYTE   Ds3  v052
 BYTE   W06
 BYTE   Ds3  v096
 BYTE   W06
 BYTE   Ds3  v052
 BYTE   W06
 BYTE   Ds3  v020
 BYTE   W06
 BYTE   Ds3  v052
 BYTE   W06
 BYTE   Ds3  v020
 BYTE   W06
 BYTE   Ds3  v052
 BYTE   W06
 BYTE   N05
 BYTE   W06
 BYTE   Ds3  v020
 BYTE   W06
 BYTE   N05
 BYTE   W06
 BYTE   PEND 
// 008   ----------------------------------------
Label_1_0188E79B:
 BYTE   N05  Bn2  v020
 BYTE   W06
 BYTE   N05
 BYTE   W06
 BYTE   Bn2  v052
 BYTE   W06
 BYTE   Bn2  v096
 BYTE   W06
 BYTE   Bn2  v052
 BYTE   W06
 BYTE   Bn2  v020
 BYTE   W06
 BYTE   Bn2  v052
 BYTE   W06
 BYTE   Bn2  v096
 BYTE   W06
 BYTE   Bn2  v052
 BYTE   W06
 BYTE   Bn2  v020
 BYTE   W06
 BYTE   Bn2  v052
 BYTE   W06
 BYTE   Bn2  v020
 BYTE   W06
 BYTE   Bn2  v052
 BYTE   W06
 BYTE   N05
 BYTE   W06
 BYTE   Bn2  v020
 BYTE   W06
 BYTE   N05
 BYTE   W06
 BYTE   PEND 
// 009   ----------------------------------------
Label_1_0188E7CA:
 BYTE   N05  Bn3  v020
 BYTE   W06
 BYTE   N05
 BYTE   W06
 BYTE   Bn3  v052
 BYTE   W06
 BYTE   Bn3  v096
 BYTE   W06
 BYTE   Bn3  v052
 BYTE   W06
 BYTE   Bn3  v020
 BYTE   W06
 BYTE   Bn3  v052
 BYTE   W06
 BYTE   Bn3  v096
 BYTE   W06
 BYTE   Bn3  v052
 BYTE   W06
 BYTE   Bn3  v020
 BYTE   W06
 BYTE   Bn3  v052
 BYTE   W06
 BYTE   Bn3  v020
 BYTE   W06
 BYTE   Bn3  v052
 BYTE   W06
 BYTE   N05
 BYTE   W06
 BYTE   Bn3  v020
 BYTE   W06
 BYTE   N05
 BYTE   W06
 BYTE   PEND 
// 010   ----------------------------------------
Label_1_0188E7F9:
 BYTE   N05  Fs2  v020
 BYTE   W06
 BYTE   N05
 BYTE   W06
 BYTE   Fs2  v052
 BYTE   W06
 BYTE   Fs2  v096
 BYTE   W06
 BYTE   Fs2  v052
 BYTE   W06
 BYTE   Fs2  v020
 BYTE   W06
 BYTE   Fs2  v052
 BYTE   W06
 BYTE   Fs2  v096
 BYTE   W06
 BYTE   Fs2  v052
 BYTE   W06
 BYTE   Fs2  v020
 BYTE   W06
 BYTE   Fs2  v052
 BYTE   W06
 BYTE   Fs2  v020
 BYTE   W06
 BYTE   Fs2  v052
 BYTE   W06
 BYTE   N05
 BYTE   W06
 BYTE   Fs2  v020
 BYTE   W06
 BYTE   N05
 BYTE   W06
 BYTE   PEND 
 BYTE   PATT
  POIN2 Label_1_0188E76C
 BYTE   PATT
  POIN2 Label_1_0188E79B
 BYTE   PATT
  POIN2 Label_1_0188E7CA
 BYTE   PATT
  POIN2 Label_1_0188E7F9
 BYTE   PATT
  POIN2 Label_1_0188E76C
// 011   ----------------------------------------
 BYTE   W48
 BYTE   N05  An3  v052
 BYTE   W06
 BYTE   An3  v096
 BYTE   W06
 BYTE   An3  v052
 BYTE   W06
 BYTE   An3  v020
 BYTE   W06
 BYTE   An3  v052
 BYTE   W06
 BYTE   An3  v096
 BYTE   W06
 BYTE   An3  v052
 BYTE   W06
 BYTE   An3  v096
 BYTE   W06
// 012   ----------------------------------------
 BYTE   An3  v052
 BYTE   W06
 BYTE   An3  v020
 BYTE   W06
 BYTE   An3  v052
 BYTE   W06
 BYTE   An3  v096
 BYTE   W06
 BYTE   An3  v052
 BYTE   W06
 BYTE   An3  v020
 BYTE   W06
 BYTE   An3  v052
 BYTE   W06
 BYTE   An3  v020
 BYTE   W06
 BYTE   An3  v052
 BYTE   W06
 BYTE   N05
 BYTE   W06
 BYTE   An3  v020
 BYTE   W06
 BYTE   N05
 BYTE   W30
// 013   ----------------------------------------
 BYTE   VOICE   46
 BYTE   VOL   55*PokemonDPPtSnowpointCityDolkar_mvl/mxv
 BYTE   N92  Fs3  v112
 BYTE   W96
// 014   ----------------------------------------
 BYTE   En3
 BYTE   W96
// 015   ----------------------------------------
 BYTE   Gs3
 BYTE   W96
// 016   ----------------------------------------
 BYTE   En3
 BYTE   W96
// 017   ----------------------------------------
 BYTE   Gn2
 BYTE   W96
// 018   ----------------------------------------
 BYTE   Fs2
 BYTE   W96
// 019   ----------------------------------------
 BYTE   Bn1
 BYTE   W96
// 020   ----------------------------------------
 BYTE   Gs2
 BYTE   W96
// 021   ----------------------------------------
 BYTE   VOICE   48
 BYTE   VOL   40*PokemonDPPtSnowpointCityDolkar_mvl/mxv
 BYTE   N11  Bn4
 BYTE   W12
 BYTE   N32  Gs4
 BYTE   W36
 BYTE   N11
 BYTE   W12
 BYTE   N32  En4
 BYTE   W36
// 022   ----------------------------------------
 BYTE   N11  Fs4
 BYTE   W12
 BYTE   N32  Ds4
 BYTE   W36
 BYTE   N11
 BYTE   W12
 BYTE   N32  Bn3
 BYTE   W36
// 023   ----------------------------------------
 BYTE   N11  As4
 BYTE   W12
 BYTE   N32  Gn4
 BYTE   W36
 BYTE   N11
 BYTE   W12
 BYTE   N32  Ds4
 BYTE   W36
// 024   ----------------------------------------
 BYTE   N11  Fn4
 BYTE   W12
 BYTE   N32  Dn4
 BYTE   W36
 BYTE   N11
 BYTE   W12
 BYTE   N32  As3
 BYTE   W36
// 025   ----------------------------------------
 BYTE   VOL   10*PokemonDPPtSnowpointCityDolkar_mvl/mxv
 BYTE   TIE  Fn2
 BYTE   W06
 BYTE   VOL   17*PokemonDPPtSnowpointCityDolkar_mvl/mxv
 BYTE   W06
 BYTE   BnM1
 BYTE   W06
 BYTE   Gs0
 BYTE   W06
 BYTE   En1
 BYTE   W72
// 026   ----------------------------------------
 BYTE   W92
 BYTE   W03
 BYTE   EOT
 BYTE   W01
// 027   ----------------------------------------
 BYTE   VOL   10*PokemonDPPtSnowpointCityDolkar_mvl/mxv
 BYTE   N92  Gn2
 BYTE   W06
 BYTE   VOL   17*PokemonDPPtSnowpointCityDolkar_mvl/mxv
 BYTE   W06
 BYTE   BnM1
 BYTE   W06
 BYTE   Gs0
 BYTE   W06
 BYTE   En1
 BYTE   W72
// 028   ----------------------------------------
 BYTE   AsM2
 BYTE   N92  Fs2
 BYTE   W06
 BYTE   VOL   17*PokemonDPPtSnowpointCityDolkar_mvl/mxv
 BYTE   W06
 BYTE   BnM1
 BYTE   W06
 BYTE   Gs0
 BYTE   W06
 BYTE   En1
 BYTE   W72
// 029   ----------------------------------------
 BYTE   AsM2
 BYTE   N92  Ds2
 BYTE   W06
 BYTE   VOL   17*PokemonDPPtSnowpointCityDolkar_mvl/mxv
 BYTE   W06
 BYTE   BnM1
 BYTE   W06
 BYTE   Gs0
 BYTE   W06
 BYTE   En1
 BYTE   W54
 BYTE   Bn0
 BYTE   W06
 BYTE   Ds0
 BYTE   W06
 BYTE   FsM1
 BYTE   W06
// 030   ----------------------------------------
 BYTE   VOICE   46
 BYTE   VOL   55*PokemonDPPtSnowpointCityDolkar_mvl/mxv
 BYTE   N92  Gs3
 BYTE   W96
// 031   ----------------------------------------
 BYTE   Ds3
 BYTE   W96
// 032   ----------------------------------------
 BYTE   N92
 BYTE   W96
// 033   ----------------------------------------
 BYTE   N92
 BYTE   W96
// 034   ----------------------------------------
 BYTE   VOL   36*PokemonDPPtSnowpointCityDolkar_mvl/mxv
 BYTE   PAN   c_v-44
 BYTE   W12
 BYTE   N32  Bn3
 BYTE   W48
 BYTE   An4
 BYTE   W36
// 035   ----------------------------------------
 BYTE   W12
 BYTE   Gs4
 BYTE   W48
 BYTE   En4
 BYTE   W36
// 036   ----------------------------------------
 BYTE   W12
 BYTE   An3
 BYTE   W48
 BYTE   En4
 BYTE   W36
// 037   ----------------------------------------
 BYTE   W12
 BYTE   Bn3
 BYTE   W48
 BYTE   Fs4
 BYTE   W36
// 038   ----------------------------------------
 BYTE   W12
 BYTE   TIE  En4
 BYTE   W84
// 039   ----------------------------------------
 BYTE   W92
 BYTE   W03
 BYTE   EOT
 BYTE   W01
// 040   ----------------------------------------
 BYTE   W96
// 041   ----------------------------------------
 BYTE   W96
// 042   ----------------------------------------
 BYTE   W92
 BYTE   W03
 BYTE   GoTo
  POIN2 Label_1_0188E72E
 BYTE   FINE

//**************** Track 3 (Midi-Chn.2) ****************//

PokemonDPPtSnowpointCityDolkar_003:
// 000   ----------------------------------------
 BYTE   KEYSH   PokemonDPPtSnowpointCityDolkar_key+0
Label_2_0188E93E:
 BYTE   VOICE   4
 BYTE   VOL   69*PokemonDPPtSnowpointCityDolkar_mvl/mxv
 BYTE   MOD 0
 BYTE   CnM2
 BYTE   PAN   c_v-59
 BYTE   BEND   c_v+0
 BYTE   W96
// 001   ----------------------------------------
 BYTE   W96
// 002   ----------------------------------------
 BYTE   W96
// 003   ----------------------------------------
 BYTE   W96
// 004   ----------------------------------------
 BYTE   W96
// 005   ----------------------------------------
 BYTE   W96
// 006   ----------------------------------------
 BYTE   N05  En4  v020
 BYTE   W06
 BYTE   N05
 BYTE   W06
 BYTE   En4  v052
 BYTE   W06
 BYTE   En4  v096
 BYTE   W06
 BYTE   En4  v052
 BYTE   W06
 BYTE   En4  v020
 BYTE   W06
 BYTE   En4  v052
 BYTE   W06
 BYTE   En4  v096
 BYTE   W06
 BYTE   En4  v052
 BYTE   W06
 BYTE   En4  v020
 BYTE   W06
 BYTE   En4  v052
 BYTE   W06
 BYTE   En4  v020
 BYTE   W06
 BYTE   En4  v052
 BYTE   W06
 BYTE   N05
 BYTE   W06
 BYTE   En4  v020
 BYTE   W06
 BYTE   N05
 BYTE   W06
// 007   ----------------------------------------
Label_2_0188E97C:
 BYTE   N05  Bn2  v020
 BYTE   W06
 BYTE   N05
 BYTE   W06
 BYTE   Bn2  v052
 BYTE   W06
 BYTE   Bn2  v096
 BYTE   W06
 BYTE   Bn2  v052
 BYTE   W06
 BYTE   Bn2  v020
 BYTE   W06
 BYTE   Bn2  v052
 BYTE   W06
 BYTE   Bn2  v096
 BYTE   W06
 BYTE   Bn2  v052
 BYTE   W06
 BYTE   Bn2  v020
 BYTE   W06
 BYTE   Bn2  v052
 BYTE   W06
 BYTE   Bn2  v020
 BYTE   W06
 BYTE   Bn2  v052
 BYTE   W06
 BYTE   N05
 BYTE   W06
 BYTE   Bn2  v020
 BYTE   W06
 BYTE   N05
 BYTE   W06
 BYTE   PEND 
// 008   ----------------------------------------
Label_2_0188E9AB:
 BYTE   N05  Gs2  v020
 BYTE   W06
 BYTE   N05
 BYTE   W06
 BYTE   Gs2  v052
 BYTE   W06
 BYTE   Gs2  v096
 BYTE   W06
 BYTE   Gs2  v052
 BYTE   W06
 BYTE   Gs2  v020
 BYTE   W06
 BYTE   Gs2  v052
 BYTE   W06
 BYTE   Gs2  v096
 BYTE   W06
 BYTE   Gs2  v052
 BYTE   W06
 BYTE   Gs2  v020
 BYTE   W06
 BYTE   Gs2  v052
 BYTE   W06
 BYTE   Gs2  v020
 BYTE   W06
 BYTE   Gs2  v052
 BYTE   W06
 BYTE   N05
 BYTE   W06
 BYTE   Gs2  v020
 BYTE   W06
 BYTE   N05
 BYTE   W06
 BYTE   PEND 
// 009   ----------------------------------------
Label_2_0188E9DA:
 BYTE   N05  Gs3  v020
 BYTE   W06
 BYTE   N05
 BYTE   W06
 BYTE   Gs3  v052
 BYTE   W06
 BYTE   Gs3  v096
 BYTE   W06
 BYTE   Gs3  v052
 BYTE   W06
 BYTE   Gs3  v020
 BYTE   W06
 BYTE   Gs3  v052
 BYTE   W06
 BYTE   Gs3  v096
 BYTE   W06
 BYTE   Gs3  v052
 BYTE   W06
 BYTE   Gs3  v020
 BYTE   W06
 BYTE   Gs3  v052
 BYTE   W06
 BYTE   Gs3  v020
 BYTE   W06
 BYTE   Gs3  v052
 BYTE   W06
 BYTE   N05
 BYTE   W06
 BYTE   Gs3  v020
 BYTE   W06
 BYTE   N05
 BYTE   W06
 BYTE   PEND 
// 010   ----------------------------------------
Label_2_0188EA09:
 BYTE   N05  En3  v020
 BYTE   W06
 BYTE   N05
 BYTE   W06
 BYTE   En3  v052
 BYTE   W06
 BYTE   En3  v096
 BYTE   W06
 BYTE   En3  v052
 BYTE   W06
 BYTE   En3  v020
 BYTE   W06
 BYTE   En3  v052
 BYTE   W06
 BYTE   En3  v096
 BYTE   W06
 BYTE   En3  v052
 BYTE   W06
 BYTE   En3  v020
 BYTE   W06
 BYTE   En3  v052
 BYTE   W06
 BYTE   En3  v020
 BYTE   W06
 BYTE   En3  v052
 BYTE   W06
 BYTE   N05
 BYTE   W06
 BYTE   En3  v020
 BYTE   W06
 BYTE   N05
 BYTE   W06
 BYTE   PEND 
 BYTE   PATT
  POIN2 Label_2_0188E97C
 BYTE   PATT
  POIN2 Label_2_0188E9AB
 BYTE   PATT
  POIN2 Label_2_0188E9DA
 BYTE   PATT
  POIN2 Label_2_0188EA09
 BYTE   PATT
  POIN2 Label_2_0188E97C
// 011   ----------------------------------------
 BYTE   W36
 BYTE   N05  En3  v052
 BYTE   W06
 BYTE   En3  v096
 BYTE   W06
 BYTE   En3  v052
 BYTE   W06
 BYTE   En3  v020
 BYTE   W06
 BYTE   En3  v052
 BYTE   W06
 BYTE   En3  v096
 BYTE   W06
 BYTE   En3  v052
 BYTE   W06
 BYTE   En3  v096
 BYTE   W06
 BYTE   En3  v052
 BYTE   W06
 BYTE   En3  v020
 BYTE   W06
// 012   ----------------------------------------
 BYTE   En3  v052
 BYTE   W06
 BYTE   En3  v096
 BYTE   W06
 BYTE   En3  v052
 BYTE   W06
 BYTE   En3  v020
 BYTE   W06
 BYTE   En3  v052
 BYTE   W06
 BYTE   En3  v020
 BYTE   W06
 BYTE   En3  v052
 BYTE   W06
 BYTE   N05
 BYTE   W06
 BYTE   En3  v020
 BYTE   W06
 BYTE   N05
 BYTE   W06
 BYTE   En3  v052
 BYTE   W06
 BYTE   N05
 BYTE   W06
 BYTE   En3  v020
 BYTE   W06
 BYTE   N05
 BYTE   W18
// 013   ----------------------------------------
Label_2_0188EA97:
 BYTE   VOICE   46
 BYTE   VOL   55*PokemonDPPtSnowpointCityDolkar_mvl/mxv
 BYTE   N92  En3  v112
 BYTE   W96
 BYTE   PEND 
// 014   ----------------------------------------
 BYTE   Bn2
 BYTE   W96
// 015   ----------------------------------------
 BYTE   En3
 BYTE   W96
// 016   ----------------------------------------
 BYTE   Ds3
 BYTE   W96
// 017   ----------------------------------------
 BYTE   En3
 BYTE   W96
// 018   ----------------------------------------
 BYTE   An2
 BYTE   W96
// 019   ----------------------------------------
 BYTE   Fs2
 BYTE   W96
// 020   ----------------------------------------
 BYTE   Bn2
 BYTE   W96
// 021   ----------------------------------------
 BYTE   VOICE   48
 BYTE   VOL   40*PokemonDPPtSnowpointCityDolkar_mvl/mxv
 BYTE   N11  Gs4
 BYTE   W12
 BYTE   N32  En4
 BYTE   W36
 BYTE   N11
 BYTE   W12
 BYTE   N32  Cs4
 BYTE   W36
// 022   ----------------------------------------
 BYTE   N11  Ds4
 BYTE   W12
 BYTE   N32  Bn3
 BYTE   W36
 BYTE   N11
 BYTE   W12
 BYTE   N32  Gs3
 BYTE   W36
// 023   ----------------------------------------
 BYTE   N11  Gn4
 BYTE   W12
 BYTE   N32  Ds4
 BYTE   W36
 BYTE   N11
 BYTE   W12
 BYTE   N32  Cn4
 BYTE   W36
// 024   ----------------------------------------
 BYTE   N11  Dn4
 BYTE   W12
 BYTE   N32  As3
 BYTE   W36
 BYTE   N11
 BYTE   W12
 BYTE   N32  Gn3
 BYTE   W36
// 025   ----------------------------------------
 BYTE   VOL   10*PokemonDPPtSnowpointCityDolkar_mvl/mxv
 BYTE   TIE  Fs2
 BYTE   W06
 BYTE   VOL   17*PokemonDPPtSnowpointCityDolkar_mvl/mxv
 BYTE   W06
 BYTE   BnM1
 BYTE   W06
 BYTE   Gs0
 BYTE   W06
 BYTE   En1
 BYTE   W72
// 026   ----------------------------------------
 BYTE   W92
 BYTE   W03
 BYTE   EOT
 BYTE   W01
// 027   ----------------------------------------
 BYTE   VOL   10*PokemonDPPtSnowpointCityDolkar_mvl/mxv
 BYTE   N92  Gs2
 BYTE   W06
 BYTE   VOL   17*PokemonDPPtSnowpointCityDolkar_mvl/mxv
 BYTE   W06
 BYTE   BnM1
 BYTE   W06
 BYTE   Gs0
 BYTE   W06
 BYTE   En1
 BYTE   W72
// 028   ----------------------------------------
 BYTE   AsM2
 BYTE   N92  As2
 BYTE   W06
 BYTE   VOL   17*PokemonDPPtSnowpointCityDolkar_mvl/mxv
 BYTE   W06
 BYTE   BnM1
 BYTE   W06
 BYTE   Gs0
 BYTE   W06
 BYTE   En1
 BYTE   W72
// 029   ----------------------------------------
 BYTE   AsM2
 BYTE   N92  Fn2
 BYTE   W06
 BYTE   VOL   17*PokemonDPPtSnowpointCityDolkar_mvl/mxv
 BYTE   W06
 BYTE   BnM1
 BYTE   W06
 BYTE   Gs0
 BYTE   W06
 BYTE   En1
 BYTE   W54
 BYTE   Bn0
 BYTE   W06
 BYTE   Ds0
 BYTE   W06
 BYTE   FsM1
 BYTE   W06
 BYTE   PATT
  POIN2 Label_2_0188EA97
// 030   ----------------------------------------
 BYTE   N92  Bn2  v112
 BYTE   W96
// 031   ----------------------------------------
 BYTE   N92
 BYTE   W96
// 032   ----------------------------------------
 BYTE   N92
 BYTE   W96
// 033   ----------------------------------------
 BYTE   W96
// 034   ----------------------------------------
 BYTE   W96
// 035   ----------------------------------------
 BYTE   W96
// 036   ----------------------------------------
 BYTE   W96
// 037   ----------------------------------------
 BYTE   W96
// 038   ----------------------------------------
 BYTE   W96
// 039   ----------------------------------------
 BYTE   W96
// 040   ----------------------------------------
 BYTE   W96
// 041   ----------------------------------------
 BYTE   W92
 BYTE   W03
 BYTE   GoTo
  POIN2 Label_2_0188E93E
 BYTE   FINE

//**************** Track 4 (Midi-Chn.3) ****************//

PokemonDPPtSnowpointCityDolkar_004:
// 000   ----------------------------------------
 BYTE   KEYSH   PokemonDPPtSnowpointCityDolkar_key+0
Label_3_0188EB3E:
 BYTE   VOICE   4
 BYTE   VOL   69*PokemonDPPtSnowpointCityDolkar_mvl/mxv
 BYTE   MOD 0
 BYTE   CnM2
 BYTE   PAN   c_v+32
 BYTE   BEND   c_v+0
 BYTE   W96
// 001   ----------------------------------------
 BYTE   W96
// 002   ----------------------------------------
 BYTE   W96
// 003   ----------------------------------------
 BYTE   W96
// 004   ----------------------------------------
 BYTE   W96
// 005   ----------------------------------------
 BYTE   W96
// 006   ----------------------------------------
 BYTE   N05  An3  v020
 BYTE   W06
 BYTE   N05
 BYTE   W06
 BYTE   An3  v052
 BYTE   W06
 BYTE   An3  v096
 BYTE   W06
 BYTE   An3  v052
 BYTE   W06
 BYTE   An3  v020
 BYTE   W06
 BYTE   An3  v052
 BYTE   W06
 BYTE   An3  v096
 BYTE   W06
 BYTE   An3  v052
 BYTE   W06
 BYTE   An3  v020
 BYTE   W06
 BYTE   An3  v052
 BYTE   W06
 BYTE   An3  v020
 BYTE   W06
 BYTE   An3  v052
 BYTE   W06
 BYTE   N05
 BYTE   W06
 BYTE   An3  v020
 BYTE   W06
 BYTE   N05
 BYTE   W06
// 007   ----------------------------------------
Label_3_0188EB7C:
 BYTE   N05  Fs3  v020
 BYTE   W06
 BYTE   N05
 BYTE   W06
 BYTE   Fs3  v052
 BYTE   W06
 BYTE   Fs3  v096
 BYTE   W06
 BYTE   Fs3  v052
 BYTE   W06
 BYTE   Fs3  v020
 BYTE   W06
 BYTE   Fs3  v052
 BYTE   W06
 BYTE   Fs3  v096
 BYTE   W06
 BYTE   Fs3  v052
 BYTE   W06
 BYTE   Fs3  v020
 BYTE   W06
 BYTE   Fs3  v052
 BYTE   W06
 BYTE   Fs3  v020
 BYTE   W06
 BYTE   Fs3  v052
 BYTE   W06
 BYTE   N05
 BYTE   W06
 BYTE   Fs3  v020
 BYTE   W06
 BYTE   N05
 BYTE   W06
 BYTE   PEND 
// 008   ----------------------------------------
 BYTE   Dn3
 BYTE   W06
 BYTE   N05
 BYTE   W06
 BYTE   Dn3  v052
 BYTE   W06
 BYTE   Dn3  v096
 BYTE   W06
 BYTE   Dn3  v052
 BYTE   W06
 BYTE   Dn3  v020
 BYTE   W06
 BYTE   Dn3  v052
 BYTE   W06
 BYTE   Dn3  v096
 BYTE   W06
 BYTE   Dn3  v052
 BYTE   W06
 BYTE   Dn3  v020
 BYTE   W06
 BYTE   Dn3  v052
 BYTE   W06
 BYTE   Dn3  v020
 BYTE   W06
 BYTE   Dn3  v052
 BYTE   W06
 BYTE   N05
 BYTE   W06
 BYTE   Dn3  v020
 BYTE   W06
 BYTE   N05
 BYTE   W06
// 009   ----------------------------------------
Label_3_0188EBD7:
 BYTE   N05  Cs3  v020
 BYTE   W06
 BYTE   N05
 BYTE   W06
 BYTE   Cs3  v052
 BYTE   W06
 BYTE   Cs3  v096
 BYTE   W06
 BYTE   Cs3  v052
 BYTE   W06
 BYTE   Cs3  v020
 BYTE   W06
 BYTE   Cs3  v052
 BYTE   W06
 BYTE   Cs3  v096
 BYTE   W06
 BYTE   Cs3  v052
 BYTE   W06
 BYTE   Cs3  v020
 BYTE   W06
 BYTE   Cs3  v052
 BYTE   W06
 BYTE   Cs3  v020
 BYTE   W06
 BYTE   Cs3  v052
 BYTE   W06
 BYTE   N05
 BYTE   W06
 BYTE   Cs3  v020
 BYTE   W06
 BYTE   N05
 BYTE   W06
 BYTE   PEND 
// 010   ----------------------------------------
Label_3_0188EC06:
 BYTE   N05  An2  v020
 BYTE   W06
 BYTE   N05
 BYTE   W06
 BYTE   An2  v052
 BYTE   W06
 BYTE   An2  v096
 BYTE   W06
 BYTE   An2  v052
 BYTE   W06
 BYTE   An2  v020
 BYTE   W06
 BYTE   An2  v052
 BYTE   W06
 BYTE   An2  v096
 BYTE   W06
 BYTE   An2  v052
 BYTE   W06
 BYTE   An2  v020
 BYTE   W06
 BYTE   An2  v052
 BYTE   W06
 BYTE   An2  v020
 BYTE   W06
 BYTE   An2  v052
 BYTE   W06
 BYTE   N05
 BYTE   W06
 BYTE   An2  v020
 BYTE   W06
 BYTE   N05
 BYTE   W06
 BYTE   PEND 
 BYTE   PATT
  POIN2 Label_3_0188EB7C
// 011   ----------------------------------------
 BYTE   N05  Ds3  v020
 BYTE   W06
 BYTE   N05
 BYTE   W06
 BYTE   Ds3  v052
 BYTE   W06
 BYTE   Ds3  v096
 BYTE   W06
 BYTE   Ds3  v052
 BYTE   W06
 BYTE   Ds3  v020
 BYTE   W06
 BYTE   Ds3  v052
 BYTE   W06
 BYTE   Ds3  v096
 BYTE   W06
 BYTE   Ds3  v052
 BYTE   W06
 BYTE   Ds3  v020
 BYTE   W06
 BYTE   Ds3  v052
 BYTE   W06
 BYTE   Ds3  v020
 BYTE   W06
 BYTE   Ds3  v052
 BYTE   W06
 BYTE   N05
 BYTE   W06
 BYTE   Ds3  v020
 BYTE   W06
 BYTE   N05
 BYTE   W06
 BYTE   PATT
  POIN2 Label_3_0188EBD7
 BYTE   PATT
  POIN2 Label_3_0188EC06
 BYTE   PATT
  POIN2 Label_3_0188EB7C
// 012   ----------------------------------------
 BYTE   W36
 BYTE   N05  Bn3  v052
 BYTE   W06
 BYTE   Bn3  v096
 BYTE   W06
 BYTE   Bn3  v052
 BYTE   W06
 BYTE   Bn3  v020
 BYTE   W06
 BYTE   Bn3  v052
 BYTE   W06
 BYTE   Bn3  v096
 BYTE   W06
 BYTE   Bn3  v052
 BYTE   W06
 BYTE   Bn3  v096
 BYTE   W06
 BYTE   Bn3  v052
 BYTE   W06
 BYTE   Bn3  v020
 BYTE   W06
// 013   ----------------------------------------
 BYTE   Bn3  v052
 BYTE   W06
 BYTE   Bn3  v096
 BYTE   W06
 BYTE   Bn3  v052
 BYTE   W06
 BYTE   Bn3  v020
 BYTE   W06
 BYTE   Bn3  v052
 BYTE   W06
 BYTE   Bn3  v020
 BYTE   W06
 BYTE   Bn3  v052
 BYTE   W06
 BYTE   N05
 BYTE   W06
 BYTE   Bn3  v020
 BYTE   W06
 BYTE   N05
 BYTE   W06
 BYTE   Bn3  v052
 BYTE   W06
 BYTE   N05
 BYTE   W06
 BYTE   Bn3  v020
 BYTE   W06
 BYTE   N05
 BYTE   W18
// 014   ----------------------------------------
 BYTE   VOICE   46
 BYTE   VOL   55*PokemonDPPtSnowpointCityDolkar_mvl/mxv
 BYTE   N92  Cn3  v112
 BYTE   W96
// 015   ----------------------------------------
 BYTE   An2
 BYTE   W96
// 016   ----------------------------------------
 BYTE   Cs3
 BYTE   W96
// 017   ----------------------------------------
 BYTE   Bn2
 BYTE   W96
// 018   ----------------------------------------
 BYTE   N92
 BYTE   W96
// 019   ----------------------------------------
 BYTE   Cn3
 BYTE   W96
// 020   ----------------------------------------
 BYTE   En2
 BYTE   W96
// 021   ----------------------------------------
 BYTE   Ds3
 BYTE   W96
// 022   ----------------------------------------
 BYTE   VOICE   48
 BYTE   VOL   40*PokemonDPPtSnowpointCityDolkar_mvl/mxv
 BYTE   N11  En4
 BYTE   W12
 BYTE   N32  Cs4
 BYTE   W36
 BYTE   N11
 BYTE   W12
 BYTE   N32  Bn3
 BYTE   W36
// 023   ----------------------------------------
 BYTE   N11
 BYTE   W12
 BYTE   N32  Gs3
 BYTE   W36
 BYTE   N11
 BYTE   W12
 BYTE   N32  Fs3
 BYTE   W36
// 024   ----------------------------------------
 BYTE   N11  Ds4
 BYTE   W12
 BYTE   N32  Cn4
 BYTE   W36
 BYTE   N11
 BYTE   W12
 BYTE   N32  As3
 BYTE   W36
// 025   ----------------------------------------
 BYTE   N11
 BYTE   W12
 BYTE   N32  Gn3
 BYTE   W36
 BYTE   N11
 BYTE   W12
 BYTE   N32  Fn3
 BYTE   W36
// 026   ----------------------------------------
 BYTE   VOL   10*PokemonDPPtSnowpointCityDolkar_mvl/mxv
 BYTE   TIE  As2
 BYTE   W06
 BYTE   VOL   17*PokemonDPPtSnowpointCityDolkar_mvl/mxv
 BYTE   W06
 BYTE   BnM1
 BYTE   W06
 BYTE   Gs0
 BYTE   W06
 BYTE   En1
 BYTE   W72
// 027   ----------------------------------------
 BYTE   W92
 BYTE   W03
 BYTE   EOT
 BYTE   W01
// 028   ----------------------------------------
 BYTE   VOL   10*PokemonDPPtSnowpointCityDolkar_mvl/mxv
 BYTE   N92  Cn3
 BYTE   W06
 BYTE   VOL   17*PokemonDPPtSnowpointCityDolkar_mvl/mxv
 BYTE   W06
 BYTE   BnM1
 BYTE   W06
 BYTE   Gs0
 BYTE   W06
 BYTE   En1
 BYTE   W72
// 029   ----------------------------------------
 BYTE   AsM2
 BYTE   N92  Cs3
 BYTE   W06
 BYTE   VOL   17*PokemonDPPtSnowpointCityDolkar_mvl/mxv
 BYTE   W06
 BYTE   BnM1
 BYTE   W06
 BYTE   Gs0
 BYTE   W06
 BYTE   En1
 BYTE   W72
// 030   ----------------------------------------
 BYTE   AsM2
 BYTE   N92  As2
 BYTE   W06
 BYTE   VOL   17*PokemonDPPtSnowpointCityDolkar_mvl/mxv
 BYTE   W06
 BYTE   BnM1
 BYTE   W06
 BYTE   Gs0
 BYTE   W06
 BYTE   En1
 BYTE   W54
 BYTE   Bn0
 BYTE   W06
 BYTE   Ds0
 BYTE   W06
 BYTE   FsM1
 BYTE   W06
// 031   ----------------------------------------
 BYTE   VOICE   46
 BYTE   VOL   55*PokemonDPPtSnowpointCityDolkar_mvl/mxv
 BYTE   N92  Cs3
 BYTE   W96
// 032   ----------------------------------------
 BYTE   Gs3
 BYTE   W96
// 033   ----------------------------------------
 BYTE   An3
 BYTE   W96
// 034   ----------------------------------------
 BYTE   Gs2
 BYTE   W96
// 035   ----------------------------------------
 BYTE   W96
// 036   ----------------------------------------
 BYTE   W96
// 037   ----------------------------------------
 BYTE   W96
// 038   ----------------------------------------
 BYTE   W96
// 039   ----------------------------------------
 BYTE   W96
// 040   ----------------------------------------
 BYTE   W96
// 041   ----------------------------------------
 BYTE   W96
// 042   ----------------------------------------
 BYTE   W96
// 043   ----------------------------------------
 BYTE   W92
 BYTE   W03
 BYTE   GoTo
  POIN2 Label_3_0188EB3E
 BYTE   FINE

//**************** Track 5 (Midi-Chn.4) ****************//

PokemonDPPtSnowpointCityDolkar_005:
// 000   ----------------------------------------
 BYTE   KEYSH   PokemonDPPtSnowpointCityDolkar_key+0
Label_4_0188ED62:
 BYTE   VOICE   4
 BYTE   VOL   69*PokemonDPPtSnowpointCityDolkar_mvl/mxv
 BYTE   MOD 0
 BYTE   CnM2
 BYTE   PAN   c_v-32
 BYTE   BEND   c_v+0
 BYTE   W96
// 001   ----------------------------------------
 BYTE   W96
// 002   ----------------------------------------
 BYTE   W96
// 003   ----------------------------------------
 BYTE   W96
// 004   ----------------------------------------
 BYTE   W96
// 005   ----------------------------------------
 BYTE   W96
// 006   ----------------------------------------
 BYTE   N05  Cs4  v020
 BYTE   W06
 BYTE   N05
 BYTE   W06
 BYTE   Cs4  v052
 BYTE   W06
 BYTE   Cs4  v096
 BYTE   W06
 BYTE   Cs4  v052
 BYTE   W06
 BYTE   Cs4  v020
 BYTE   W06
 BYTE   Cs4  v052
 BYTE   W06
 BYTE   Cs4  v096
 BYTE   W06
 BYTE   Cs4  v052
 BYTE   W06
 BYTE   Cs4  v020
 BYTE   W06
 BYTE   Cs4  v052
 BYTE   W06
 BYTE   Cs4  v020
 BYTE   W06
 BYTE   Cs4  v052
 BYTE   W06
 BYTE   N05
 BYTE   W06
 BYTE   Cs4  v020
 BYTE   W06
 BYTE   N05
 BYTE   W06
// 007   ----------------------------------------
Label_4_0188EDA0:
 BYTE   N05  An2  v020
 BYTE   W06
 BYTE   N05
 BYTE   W06
 BYTE   An2  v052
 BYTE   W06
 BYTE   An2  v096
 BYTE   W06
 BYTE   An2  v052
 BYTE   W06
 BYTE   An2  v020
 BYTE   W06
 BYTE   An2  v052
 BYTE   W06
 BYTE   An2  v096
 BYTE   W06
 BYTE   An2  v052
 BYTE   W06
 BYTE   An2  v020
 BYTE   W06
 BYTE   An2  v052
 BYTE   W06
 BYTE   An2  v020
 BYTE   W06
 BYTE   An2  v052
 BYTE   W06
 BYTE   N05
 BYTE   W06
 BYTE   An2  v020
 BYTE   W06
 BYTE   N05
 BYTE   W06
 BYTE   PEND 
// 008   ----------------------------------------
Label_4_0188EDCF:
 BYTE   N05  Fn3  v020
 BYTE   W06
 BYTE   N05
 BYTE   W06
 BYTE   Fn3  v052
 BYTE   W06
 BYTE   Fn3  v096
 BYTE   W06
 BYTE   Fn3  v052
 BYTE   W06
 BYTE   Fn3  v020
 BYTE   W06
 BYTE   Fn3  v052
 BYTE   W06
 BYTE   Fn3  v096
 BYTE   W06
 BYTE   Fn3  v052
 BYTE   W06
 BYTE   Fn3  v020
 BYTE   W06
 BYTE   Fn3  v052
 BYTE   W06
 BYTE   Fn3  v020
 BYTE   W06
 BYTE   Fn3  v052
 BYTE   W06
 BYTE   N05
 BYTE   W06
 BYTE   Fn3  v020
 BYTE   W06
 BYTE   N05
 BYTE   W06
 BYTE   PEND 
 BYTE   PATT
  POIN2 Label_4_0188EDCF
// 009   ----------------------------------------
Label_4_0188EE03:
 BYTE   N05  Cs3  v020
 BYTE   W06
 BYTE   N05
 BYTE   W06
 BYTE   Cs3  v052
 BYTE   W06
 BYTE   Cs3  v096
 BYTE   W06
 BYTE   Cs3  v052
 BYTE   W06
 BYTE   Cs3  v020
 BYTE   W06
 BYTE   Cs3  v052
 BYTE   W06
 BYTE   Cs3  v096
 BYTE   W06
 BYTE   Cs3  v052
 BYTE   W06
 BYTE   Cs3  v020
 BYTE   W06
 BYTE   Cs3  v052
 BYTE   W06
 BYTE   Cs3  v020
 BYTE   W06
 BYTE   Cs3  v052
 BYTE   W06
 BYTE   N05
 BYTE   W06
 BYTE   Cs3  v020
 BYTE   W06
 BYTE   N05
 BYTE   W06
 BYTE   PEND 
 BYTE   PATT
  POIN2 Label_4_0188EDA0
 BYTE   PATT
  POIN2 Label_4_0188EDCF
 BYTE   PATT
  POIN2 Label_4_0188EDCF
 BYTE   PATT
  POIN2 Label_4_0188EE03
 BYTE   PATT
  POIN2 Label_4_0188EDA0
// 010   ----------------------------------------
 BYTE   W24
 BYTE   N05  En4  v052
 BYTE   W06
 BYTE   En4  v096
 BYTE   W06
 BYTE   En4  v052
 BYTE   W06
 BYTE   En4  v020
 BYTE   W06
 BYTE   En4  v052
 BYTE   W06
 BYTE   En4  v096
 BYTE   W06
 BYTE   En4  v052
 BYTE   W06
 BYTE   En4  v096
 BYTE   W06
 BYTE   En4  v052
 BYTE   W06
 BYTE   En4  v020
 BYTE   W06
 BYTE   En4  v052
 BYTE   W06
 BYTE   En4  v096
 BYTE   W06
// 011   ----------------------------------------
 BYTE   En4  v052
 BYTE   W06
 BYTE   En4  v020
 BYTE   W06
 BYTE   En4  v052
 BYTE   W06
 BYTE   En4  v020
 BYTE   W06
 BYTE   En4  v052
 BYTE   W06
 BYTE   N05
 BYTE   W06
 BYTE   En4  v020
 BYTE   W06
 BYTE   N05
 BYTE   W06
 BYTE   En4  v052
 BYTE   W06
 BYTE   N05
 BYTE   W06
 BYTE   En4  v020
 BYTE   W06
 BYTE   N05
 BYTE   W30
// 012   ----------------------------------------
Label_4_0188EE91:
 BYTE   VOICE   46
 BYTE   VOL   55*PokemonDPPtSnowpointCityDolkar_mvl/mxv
 BYTE   N92  An2  v112
 BYTE   W96
 BYTE   PEND 
// 013   ----------------------------------------
 BYTE   En2
 BYTE   W96
// 014   ----------------------------------------
 BYTE   An2
 BYTE   W96
// 015   ----------------------------------------
 BYTE   Gs2
 BYTE   W96
// 016   ----------------------------------------
 BYTE   Fs3
 BYTE   W96
// 017   ----------------------------------------
 BYTE   En3
 BYTE   W96
// 018   ----------------------------------------
 BYTE   An2
 BYTE   W96
// 019   ----------------------------------------
 BYTE   En3
 BYTE   W96
// 020   ----------------------------------------
 BYTE   VOICE   48
 BYTE   VOL   40*PokemonDPPtSnowpointCityDolkar_mvl/mxv
 BYTE   N11  Cs4
 BYTE   W12
 BYTE   N32  Bn3
 BYTE   W36
 BYTE   N11
 BYTE   W12
 BYTE   N32  Gs3
 BYTE   W36
// 021   ----------------------------------------
 BYTE   N11
 BYTE   W12
 BYTE   N32  Fs3
 BYTE   W36
 BYTE   N11
 BYTE   W12
 BYTE   N32  Ds3
 BYTE   W36
// 022   ----------------------------------------
 BYTE   N11  Cn4
 BYTE   W12
 BYTE   N32  As3
 BYTE   W36
 BYTE   N11
 BYTE   W12
 BYTE   N32  Gn3
 BYTE   W36
// 023   ----------------------------------------
 BYTE   N11
 BYTE   W12
 BYTE   N32  Fn3
 BYTE   W36
 BYTE   N11
 BYTE   W12
 BYTE   N32  Dn3
 BYTE   W36
// 024   ----------------------------------------
 BYTE   VOL   10*PokemonDPPtSnowpointCityDolkar_mvl/mxv
 BYTE   TIE  Cs3
 BYTE   W06
 BYTE   VOL   17*PokemonDPPtSnowpointCityDolkar_mvl/mxv
 BYTE   W06
 BYTE   BnM1
 BYTE   W06
 BYTE   Gs0
 BYTE   W06
 BYTE   En1
 BYTE   W72
// 025   ----------------------------------------
 BYTE   W92
 BYTE   W03
 BYTE   EOT
 BYTE   W01
// 026   ----------------------------------------
 BYTE   VOL   10*PokemonDPPtSnowpointCityDolkar_mvl/mxv
 BYTE   N92  Ds3
 BYTE   W06
 BYTE   VOL   17*PokemonDPPtSnowpointCityDolkar_mvl/mxv
 BYTE   W06
 BYTE   BnM1
 BYTE   W06
 BYTE   Gs0
 BYTE   W06
 BYTE   En1
 BYTE   W72
// 027   ----------------------------------------
 BYTE   AsM2
 BYTE   N92  Fn3
 BYTE   W06
 BYTE   VOL   17*PokemonDPPtSnowpointCityDolkar_mvl/mxv
 BYTE   W06
 BYTE   BnM1
 BYTE   W06
 BYTE   Gs0
 BYTE   W06
 BYTE   En1
 BYTE   W72
// 028   ----------------------------------------
 BYTE   AsM2
 BYTE   N92  Cn3
 BYTE   W06
 BYTE   VOL   17*PokemonDPPtSnowpointCityDolkar_mvl/mxv
 BYTE   W06
 BYTE   BnM1
 BYTE   W06
 BYTE   Gs0
 BYTE   W06
 BYTE   En1
 BYTE   W54
 BYTE   Bn0
 BYTE   W06
 BYTE   Ds0
 BYTE   W06
 BYTE   FsM1
 BYTE   W06
 BYTE   PATT
  POIN2 Label_4_0188EE91
// 029   ----------------------------------------
 BYTE   N92  En2  v112
 BYTE   W96
// 030   ----------------------------------------
 BYTE   N92
 BYTE   W96
// 031   ----------------------------------------
 BYTE   En3
 BYTE   W96
// 032   ----------------------------------------
 BYTE   W96
// 033   ----------------------------------------
 BYTE   W96
// 034   ----------------------------------------
 BYTE   W96
// 035   ----------------------------------------
 BYTE   W96
// 036   ----------------------------------------
 BYTE   W96
// 037   ----------------------------------------
 BYTE   W96
// 038   ----------------------------------------
 BYTE   W96
// 039   ----------------------------------------
 BYTE   W96
// 040   ----------------------------------------
 BYTE   W92
 BYTE   W03
 BYTE   GoTo
  POIN2 Label_4_0188ED62
 BYTE   FINE

//**************** Track 6 (Midi-Chn.5) ****************//

PokemonDPPtSnowpointCityDolkar_006:
// 000   ----------------------------------------
 BYTE   KEYSH   PokemonDPPtSnowpointCityDolkar_key+0
Label_5_0188EF36:
 BYTE   VOICE   46
 BYTE   PAN   c_v+0
 BYTE   VOL   69*PokemonDPPtSnowpointCityDolkar_mvl/mxv
 BYTE   MOD 0
 BYTE   CnM2
 BYTE   VOL   36*PokemonDPPtSnowpointCityDolkar_mvl/mxv
 BYTE   PAN   c_v-44
 BYTE   BEND   c_v+0
 BYTE   W12
 BYTE   N32  Gs4  v112
 BYTE   W48
 BYTE   An4
 BYTE   W36
// 001   ----------------------------------------
 BYTE   W12
 BYTE   Dn4
 BYTE   W48
 BYTE   Ds4
 BYTE   W36
// 002   ----------------------------------------
 BYTE   W12
 BYTE   Bn4
 BYTE   W48
 BYTE   Cs5
 BYTE   W36
// 003   ----------------------------------------
 BYTE   W12
 BYTE   Gn4
 BYTE   W48
 BYTE   Gs4
 BYTE   W36
// 004   ----------------------------------------
 BYTE   W12
 BYTE   N80  An4
 BYTE   W84
// 005   ----------------------------------------
 BYTE   W12
 BYTE   Ds4
 BYTE   W84
// 006   ----------------------------------------
 BYTE   W96
// 007   ----------------------------------------
 BYTE   W96
// 008   ----------------------------------------
 BYTE   W96
// 009   ----------------------------------------
 BYTE   W96
// 010   ----------------------------------------
 BYTE   W96
// 011   ----------------------------------------
 BYTE   W96
// 012   ----------------------------------------
 BYTE   W96
// 013   ----------------------------------------
 BYTE   W96
// 014   ----------------------------------------
 BYTE   W96
// 015   ----------------------------------------
 BYTE   W96
// 016   ----------------------------------------
 BYTE   W96
// 017   ----------------------------------------
 BYTE   W96
// 018   ----------------------------------------
 BYTE   VOICE   4
 BYTE   PAN   c_v-46
 BYTE   VOL   80*PokemonDPPtSnowpointCityDolkar_mvl/mxv
 BYTE   N05  Fs5  v020
 BYTE   W06
 BYTE   N05
 BYTE   W06
 BYTE   En5  v052
 BYTE   W06
 BYTE   En5  v096
 BYTE   W06
 BYTE   PAN   c_v+0
 BYTE   N05  Cn5  v052
 BYTE   W06
 BYTE   Cn5  v020
 BYTE   W06
 BYTE   An4  v052
 BYTE   W06
 BYTE   An4  v096
 BYTE   W06
 BYTE   PAN   c_v+48
 BYTE   N05  Fs4  v052
 BYTE   W06
 BYTE   Fs4  v020
 BYTE   W06
 BYTE   En4  v052
 BYTE   W06
 BYTE   En4  v020
 BYTE   W06
 BYTE   PAN   c_v+0
 BYTE   N05  Cn4  v052
 BYTE   W06
 BYTE   N05
 BYTE   W06
 BYTE   An3  v020
 BYTE   W06
 BYTE   N05
 BYTE   W06
// 019   ----------------------------------------
Label_5_0188EFAA:
 BYTE   PAN   c_v-46
 BYTE   N05  En5  v020
 BYTE   W06
 BYTE   N05
 BYTE   W06
 BYTE   Bn4  v052
 BYTE   W06
 BYTE   Bn4  v096
 BYTE   W06
 BYTE   PAN   c_v+0
 BYTE   N05  An4  v052
 BYTE   W06
 BYTE   An4  v020
 BYTE   W06
 BYTE   En4  v052
 BYTE   W06
 BYTE   En4  v096
 BYTE   W06
 BYTE   PAN   c_v+48
 BYTE   N05  Bn3  v052
 BYTE   W06
 BYTE   Bn3  v020
 BYTE   W06
 BYTE   An3  v052
 BYTE   W06
 BYTE   An3  v020
 BYTE   W06
 BYTE   PAN   c_v+0
 BYTE   N05  En3  v052
 BYTE   W06
 BYTE   N05
 BYTE   W06
 BYTE   Bn2  v020
 BYTE   W06
 BYTE   N05
 BYTE   W06
 BYTE   PEND 
// 020   ----------------------------------------
 BYTE   PAN   c_v-46
 BYTE   N05  Gs5
 BYTE   W06
 BYTE   N05
 BYTE   W06
 BYTE   En5  v052
 BYTE   W06
 BYTE   En5  v096
 BYTE   W06
 BYTE   PAN   c_v+0
 BYTE   N05  Cs5  v052
 BYTE   W06
 BYTE   Cs5  v020
 BYTE   W06
 BYTE   An4  v052
 BYTE   W06
 BYTE   An4  v096
 BYTE   W06
 BYTE   PAN   c_v+48
 BYTE   N05  Gs4  v052
 BYTE   W06
 BYTE   Gs4  v020
 BYTE   W06
 BYTE   En4  v052
 BYTE   W06
 BYTE   En4  v020
 BYTE   W06
 BYTE   PAN   c_v+0
 BYTE   N05  Cs4  v052
 BYTE   W06
 BYTE   N05
 BYTE   W06
 BYTE   An3  v020
 BYTE   W06
 BYTE   N05
 BYTE   W06
 BYTE   PATT
  POIN2 Label_5_0188EFAA
// 021   ----------------------------------------
 BYTE   PAN   c_v-46
 BYTE   N05  Fs5  v020
 BYTE   W06
 BYTE   N05
 BYTE   W06
 BYTE   En5  v052
 BYTE   W06
 BYTE   En5  v096
 BYTE   W06
 BYTE   PAN   c_v+0
 BYTE   N05  Bn4  v052
 BYTE   W06
 BYTE   Bn4  v020
 BYTE   W06
 BYTE   Gn4  v052
 BYTE   W06
 BYTE   Gn4  v096
 BYTE   W06
 BYTE   PAN   c_v+48
 BYTE   N05  Fs4  v052
 BYTE   W06
 BYTE   Fs4  v020
 BYTE   W06
 BYTE   En4  v052
 BYTE   W06
 BYTE   En4  v020
 BYTE   W06
 BYTE   PAN   c_v+0
 BYTE   N05  Bn3  v052
 BYTE   W06
 BYTE   N05
 BYTE   W18
// 022   ----------------------------------------
 BYTE   PAN   c_v-46
 BYTE   N05  En5  v020
 BYTE   W06
 BYTE   N05
 BYTE   W06
 BYTE   Cn5  v052
 BYTE   W06
 BYTE   Cn5  v096
 BYTE   W06
 BYTE   PAN   c_v+0
 BYTE   N05  An4  v052
 BYTE   W06
 BYTE   An4  v020
 BYTE   W06
 BYTE   Fs4  v052
 BYTE   W06
 BYTE   Fs4  v096
 BYTE   W06
 BYTE   PAN   c_v+48
 BYTE   N05  En4  v052
 BYTE   W06
 BYTE   En4  v020
 BYTE   W06
 BYTE   Cn4  v052
 BYTE   W06
 BYTE   Cn4  v020
 BYTE   W06
 BYTE   PAN   c_v+0
 BYTE   N05  An3  v052
 BYTE   W06
 BYTE   N05
 BYTE   W06
 BYTE   Fs3  v020
 BYTE   W06
 BYTE   N05
 BYTE   W06
// 023   ----------------------------------------
 BYTE   PAN   c_v-46
 BYTE   N05  Bn2
 BYTE   W06
 BYTE   N05
 BYTE   W06
 BYTE   En3  v052
 BYTE   W06
 BYTE   En3  v096
 BYTE   W06
 BYTE   PAN   c_v+0
 BYTE   N05  Fs3  v052
 BYTE   W06
 BYTE   Fs3  v020
 BYTE   W06
 BYTE   An3  v052
 BYTE   W06
 BYTE   An3  v096
 BYTE   W06
 BYTE   PAN   c_v+48
 BYTE   N05  Bn3  v052
 BYTE   W06
 BYTE   Bn3  v020
 BYTE   W06
 BYTE   En4  v052
 BYTE   W06
 BYTE   En4  v020
 BYTE   W06
 BYTE   PAN   c_v+0
 BYTE   N05  Fs4  v052
 BYTE   W06
 BYTE   N05
 BYTE   W06
 BYTE   An4  v020
 BYTE   W06
 BYTE   N05
 BYTE   W06
// 024   ----------------------------------------
 BYTE   PAN   c_v-46
 BYTE   N05  Gs3
 BYTE   W06
 BYTE   N05
 BYTE   W06
 BYTE   Bn3  v052
 BYTE   W06
 BYTE   Bn3  v096
 BYTE   W06
 BYTE   PAN   c_v+0
 BYTE   N05  Ds4  v052
 BYTE   W06
 BYTE   Ds4  v020
 BYTE   W06
 BYTE   En4  v052
 BYTE   W06
 BYTE   En4  v096
 BYTE   W06
 BYTE   PAN   c_v+48
 BYTE   N05  Gs4  v052
 BYTE   W06
 BYTE   Gs4  v020
 BYTE   W06
 BYTE   Bn4  v052
 BYTE   W06
 BYTE   Bn4  v020
 BYTE   W06
 BYTE   PAN   c_v+0
 BYTE   N05  Ds5  v052
 BYTE   W06
 BYTE   N05
 BYTE   W06
 BYTE   En5  v020
 BYTE   W06
 BYTE   N05
 BYTE   W06
// 025   ----------------------------------------
 BYTE   VOICE   48
 BYTE   VOL   10*PokemonDPPtSnowpointCityDolkar_mvl/mxv
 BYTE   N92  An1  v112
 BYTE   W06
 BYTE   VOL   17*PokemonDPPtSnowpointCityDolkar_mvl/mxv
 BYTE   W06
 BYTE   BnM1
 BYTE   W06
 BYTE   Gs0
 BYTE   W06
 BYTE   En1
 BYTE   W48
 BYTE   Bn0
 BYTE   W06
 BYTE   Ds0
 BYTE   W06
 BYTE   FsM1
 BYTE   W06
 BYTE   CsM1
 BYTE   W06
// 026   ----------------------------------------
 BYTE   AsM2
 BYTE   N92  En1
 BYTE   W06
 BYTE   VOL   17*PokemonDPPtSnowpointCityDolkar_mvl/mxv
 BYTE   W06
 BYTE   BnM1
 BYTE   W06
 BYTE   Gs0
 BYTE   W06
 BYTE   En1
 BYTE   W48
 BYTE   Bn0
 BYTE   W06
 BYTE   Ds0
 BYTE   W06
 BYTE   FsM1
 BYTE   W06
 BYTE   CsM1
 BYTE   W06
// 027   ----------------------------------------
 BYTE   AsM2
 BYTE   N92  Gs1
 BYTE   W06
 BYTE   VOL   17*PokemonDPPtSnowpointCityDolkar_mvl/mxv
 BYTE   W06
 BYTE   BnM1
 BYTE   W06
 BYTE   Gs0
 BYTE   W06
 BYTE   En1
 BYTE   W48
 BYTE   Bn0
 BYTE   W06
 BYTE   Ds0
 BYTE   W06
 BYTE   FsM1
 BYTE   W06
 BYTE   CsM1
 BYTE   W06
// 028   ----------------------------------------
 BYTE   AsM2
 BYTE   N92  Ds1
 BYTE   W06
 BYTE   VOL   17*PokemonDPPtSnowpointCityDolkar_mvl/mxv
 BYTE   W06
 BYTE   BnM1
 BYTE   W06
 BYTE   Gs0
 BYTE   W06
 BYTE   En1
 BYTE   W48
 BYTE   Bn0
 BYTE   W06
 BYTE   Ds0
 BYTE   W06
 BYTE   FsM1
 BYTE   W06
 BYTE   CsM1
 BYTE   W06
// 029   ----------------------------------------
 BYTE   VOICE   4
 BYTE   W96
// 030   ----------------------------------------
 BYTE   W96
// 031   ----------------------------------------
 BYTE   W96
// 032   ----------------------------------------
 BYTE   W96
// 033   ----------------------------------------
 BYTE   W96
// 034   ----------------------------------------
 BYTE   W96
// 035   ----------------------------------------
 BYTE   W96
// 036   ----------------------------------------
 BYTE   W96
// 037   ----------------------------------------
 BYTE   W96
// 038   ----------------------------------------
 BYTE   VOL   80*PokemonDPPtSnowpointCityDolkar_mvl/mxv
 BYTE   PAN   c_v-32
 BYTE   W96
// 039   ----------------------------------------
Label_5_0188F166:
 BYTE   N05  En5  v020
 BYTE   W06
 BYTE   N05
 BYTE   W06
 BYTE   En5  v052
 BYTE   W06
 BYTE   En5  v096
 BYTE   W06
 BYTE   En5  v052
 BYTE   W06
 BYTE   En5  v020
 BYTE   W06
 BYTE   En5  v052
 BYTE   W06
 BYTE   En5  v096
 BYTE   W06
 BYTE   En5  v052
 BYTE   W06
 BYTE   En5  v020
 BYTE   W06
 BYTE   En5  v052
 BYTE   W06
 BYTE   En5  v020
 BYTE   W06
 BYTE   En5  v052
 BYTE   W06
 BYTE   N05
 BYTE   W06
 BYTE   En5  v020
 BYTE   W06
 BYTE   N05
 BYTE   W06
 BYTE   PEND 
 BYTE   PATT
  POIN2 Label_5_0188F166
 BYTE   PATT
  POIN2 Label_5_0188F166
// 040   ----------------------------------------
 BYTE   PAN   c_v-46
 BYTE   VOL   80*PokemonDPPtSnowpointCityDolkar_mvl/mxv
 BYTE   W12
 BYTE   N05  Bn4  v052
 BYTE   W06
 BYTE   Bn4  v096
 BYTE   W06
 BYTE   PAN   c_v+0
 BYTE   N05  En4  v052
 BYTE   W06
 BYTE   En4  v020
 BYTE   W06
 BYTE   En4  v052
 BYTE   W06
 BYTE   En4  v096
 BYTE   W06
 BYTE   PAN   c_v+48
 BYTE   N05  Bn3  v052
 BYTE   W06
 BYTE   Bn3  v020
 BYTE   W06
 BYTE   Bn4  v052
 BYTE   W06
 BYTE   Bn4  v020
 BYTE   W06
 BYTE   PAN   c_v+0
 BYTE   N05  Bn4  v052
 BYTE   W06
 BYTE   N05
 BYTE   W06
 BYTE   En4  v020
 BYTE   W06
 BYTE   N05
 BYTE   W06
// 041   ----------------------------------------
Label_5_0188F1D6:
 BYTE   N05  En4  v052
 BYTE   W06
 BYTE   En4  v096
 BYTE   W06
 BYTE   Bn3  v052
 BYTE   W06
 BYTE   Bn3  v020
 BYTE   N05  En5  v052
 BYTE   W06
 BYTE   Bn4
 BYTE   N05  En5
 BYTE   W06
 BYTE   Bn4  v020
 BYTE   W18
 BYTE   N05
 BYTE   W06
 BYTE   N05
 BYTE   W06
 BYTE   Bn4  v052
 BYTE   W06
 BYTE   Bn4  v020
 BYTE   W06
 BYTE   En4  v052
 BYTE   W06
 BYTE   En4  v096
 BYTE   W06
 BYTE   En4  v052
 BYTE   W06
 BYTE   En4  v020
 BYTE   W06
 BYTE   PEND 
// 042   ----------------------------------------
 BYTE   Bn3
 BYTE   W06
 BYTE   N05
 BYTE   W06
 BYTE   Bn4  v052
 BYTE   W06
 BYTE   Bn4  v096
 BYTE   W06
 BYTE   En4  v052
 BYTE   W06
 BYTE   En4  v020
 BYTE   W06
 BYTE   En4  v052
 BYTE   W06
 BYTE   En4  v096
 BYTE   W06
 BYTE   Bn3  v052
 BYTE   W06
 BYTE   Bn3  v020
 BYTE   W06
 BYTE   Bn4  v052
 BYTE   W06
 BYTE   Bn4  v020
 BYTE   W06
 BYTE   Bn4  v052
 BYTE   W06
 BYTE   N05
 BYTE   N05  En5  v020
 BYTE   W06
 BYTE   En4
 BYTE   N05  En5
 BYTE   W06
 BYTE   En4
 BYTE   W06
 BYTE   PATT
  POIN2 Label_5_0188F1D6
// 043   ----------------------------------------
 BYTE   W92
 BYTE   W03
 BYTE   GoTo
  POIN2 Label_5_0188EF36
 BYTE   FINE

//**************** Track 7 (Midi-Chn.6) ****************//

PokemonDPPtSnowpointCityDolkar_007:
// 000   ----------------------------------------
 BYTE   KEYSH   PokemonDPPtSnowpointCityDolkar_key+0
Label_6_0188F246:
 BYTE   VOICE   4
 BYTE   PAN   c_v+0
 BYTE   MOD 0
 BYTE   CnM2
 BYTE   VOL   80*PokemonDPPtSnowpointCityDolkar_mvl/mxv
 BYTE   BEND   c_v+0
 BYTE   W96
// 001   ----------------------------------------
 BYTE   W96
// 002   ----------------------------------------
 BYTE   W96
// 003   ----------------------------------------
 BYTE   W96
// 004   ----------------------------------------
 BYTE   W96
// 005   ----------------------------------------
 BYTE   W96
// 006   ----------------------------------------
 BYTE   W96
// 007   ----------------------------------------
 BYTE   W96
// 008   ----------------------------------------
 BYTE   W96
// 009   ----------------------------------------
 BYTE   W96
// 010   ----------------------------------------
 BYTE   W96
// 011   ----------------------------------------
 BYTE   W96
// 012   ----------------------------------------
 BYTE   W96
// 013   ----------------------------------------
 BYTE   W96
// 014   ----------------------------------------
 BYTE   W96
// 015   ----------------------------------------
 BYTE   W96
// 016   ----------------------------------------
 BYTE   W96
// 017   ----------------------------------------
 BYTE   W96
// 018   ----------------------------------------
 BYTE   W96
// 019   ----------------------------------------
 BYTE   W96
// 020   ----------------------------------------
 BYTE   W96
// 021   ----------------------------------------
 BYTE   W96
// 022   ----------------------------------------
 BYTE   VOICE   4
 BYTE   PAN   c_v+48
 BYTE   W24
 BYTE   En3
 BYTE   W12
 BYTE   N05  Fs5  v020
 BYTE   W06
 BYTE   N05
 BYTE   W06
 BYTE   PAN   c_v-46
 BYTE   N05  En5  v052
 BYTE   W06
 BYTE   En5  v096
 BYTE   W06
 BYTE   Bn4  v052
 BYTE   W06
 BYTE   Bn4  v020
 BYTE   W06
 BYTE   PAN   c_v+0
 BYTE   N05  Gn4  v052
 BYTE   W06
 BYTE   Gn4  v096
 BYTE   W06
 BYTE   Fs4  v052
 BYTE   W06
 BYTE   Fs4  v020
 BYTE   W06
// 023   ----------------------------------------
 BYTE   PAN   c_v+48
 BYTE   W24
 BYTE   En3
 BYTE   W12
 BYTE   N05  En5
 BYTE   W06
 BYTE   N05
 BYTE   W06
 BYTE   PAN   c_v-46
 BYTE   N05  Cn5  v052
 BYTE   W06
 BYTE   Cn5  v096
 BYTE   W06
 BYTE   An4  v052
 BYTE   W06
 BYTE   An4  v020
 BYTE   W06
 BYTE   PAN   c_v+0
 BYTE   N05  Fs4  v052
 BYTE   W06
 BYTE   Fs4  v096
 BYTE   W06
 BYTE   En4  v052
 BYTE   W06
 BYTE   En4  v020
 BYTE   W06
// 024   ----------------------------------------
 BYTE   PAN   c_v+48
 BYTE   W24
 BYTE   En3
 BYTE   N05  Bn2
 BYTE   W06
 BYTE   N05
 BYTE   W06
 BYTE   En3  v052
 BYTE   W06
 BYTE   En3  v096
 BYTE   W06
 BYTE   PAN   c_v-46
 BYTE   N05  Fs3  v052
 BYTE   W06
 BYTE   Fs3  v020
 BYTE   W06
 BYTE   An3  v052
 BYTE   W06
 BYTE   An3  v096
 BYTE   W06
 BYTE   PAN   c_v+0
 BYTE   N05  Bn3  v052
 BYTE   W06
 BYTE   Bn3  v020
 BYTE   W06
 BYTE   En4  v052
 BYTE   W06
 BYTE   En4  v020
 BYTE   W06
// 025   ----------------------------------------
 BYTE   PAN   c_v+48
 BYTE   W24
 BYTE   En3
 BYTE   N05  Gs3
 BYTE   W06
 BYTE   N05
 BYTE   W06
 BYTE   Bn3  v052
 BYTE   W06
 BYTE   Bn3  v096
 BYTE   W06
 BYTE   PAN   c_v-46
 BYTE   N05  Ds4  v052
 BYTE   W06
 BYTE   Ds4  v020
 BYTE   W06
 BYTE   En4  v052
 BYTE   W06
 BYTE   En4  v096
 BYTE   W06
 BYTE   PAN   c_v+0
 BYTE   N05  Gs4  v052
 BYTE   W06
 BYTE   Gs4  v020
 BYTE   W06
 BYTE   Bn4  v052
 BYTE   W06
 BYTE   Bn4  v020
 BYTE   W06
// 026   ----------------------------------------
 BYTE   VOICE   10
 BYTE   PAN   c_v+47
 BYTE   VOL   49*PokemonDPPtSnowpointCityDolkar_mvl/mxv
 BYTE   N05  En6  v112
 BYTE   W06
 BYTE   Cs6
 BYTE   W06
 BYTE   Bn5
 BYTE   W06
 BYTE   N28  An5
 BYTE   W30
 BYTE   PAN   c_v-32
 BYTE   N05  En5
 BYTE   W06
 BYTE   Cs5
 BYTE   W06
 BYTE   Bn4
 BYTE   W06
 BYTE   N28  An4
 BYTE   W30
// 027   ----------------------------------------
 BYTE   PAN   c_v-49
 BYTE   N05  Bn5
 BYTE   W06
 BYTE   Gs5
 BYTE   W06
 BYTE   Fs5
 BYTE   W06
 BYTE   N28  Ds5
 BYTE   W30
 BYTE   PAN   c_v+31
 BYTE   N05  Bn4
 BYTE   W06
 BYTE   Gs4
 BYTE   W06
 BYTE   Fs4
 BYTE   W06
 BYTE   N28  Ds4
 BYTE   W30
// 028   ----------------------------------------
 BYTE   PAN   c_v+47
 BYTE   N05  Ds6
 BYTE   W06
 BYTE   Cn6
 BYTE   W06
 BYTE   As5
 BYTE   W06
 BYTE   N28  Gs5
 BYTE   W30
 BYTE   PAN   c_v-32
 BYTE   N05  Ds5
 BYTE   W06
 BYTE   Cn5
 BYTE   W06
 BYTE   As4
 BYTE   W06
 BYTE   N28  Gs4
 BYTE   W30
// 029   ----------------------------------------
 BYTE   PAN   c_v-49
 BYTE   N05  As5
 BYTE   W06
 BYTE   Gn5
 BYTE   W06
 BYTE   Fn5
 BYTE   W06
 BYTE   N28  Dn5
 BYTE   W30
 BYTE   PAN   c_v+31
 BYTE   N05  As4
 BYTE   W06
 BYTE   Gn4
 BYTE   W06
 BYTE   Fn4
 BYTE   W06
 BYTE   N28  Dn4
 BYTE   W30
// 030   ----------------------------------------
 BYTE   PAN   c_v+50
 BYTE   N05  Cs6
 BYTE   W06
 BYTE   As5
 BYTE   W06
 BYTE   Fs5
 BYTE   W06
 BYTE   Fn5
 BYTE   W06
 BYTE   Cs5
 BYTE   W06
 BYTE   As4
 BYTE   W06
 BYTE   Fs4
 BYTE   W06
 BYTE   N52  Fn4
 BYTE   W54
// 031   ----------------------------------------
 BYTE   PAN   c_v-33
 BYTE   N05  Cs6
 BYTE   W06
 BYTE   As5
 BYTE   W06
 BYTE   Fs5
 BYTE   W06
 BYTE   Fn5
 BYTE   W06
 BYTE   Cs5
 BYTE   W06
 BYTE   As4
 BYTE   W06
 BYTE   Fs4
 BYTE   W06
 BYTE   N52  Fn4
 BYTE   W54
// 032   ----------------------------------------
 BYTE   PAN   c_v-48
 BYTE   N05  Ds6
 BYTE   W06
 BYTE   Cn6
 BYTE   W06
 BYTE   Gs5
 BYTE   W06
 BYTE   Gn5
 BYTE   W06
 BYTE   Ds5
 BYTE   W06
 BYTE   Cn5
 BYTE   W06
 BYTE   Gs4
 BYTE   W06
 BYTE   N52  Gn4
 BYTE   W06
 BYTE   PAN   c_v+32
 BYTE   W48
// 033   ----------------------------------------
 BYTE   N05  Fn6
 BYTE   W06
 BYTE   Cs6
 BYTE   W06
 BYTE   As5
 BYTE   W06
 BYTE   Fs5
 BYTE   W06
 BYTE   Fn5
 BYTE   W06
 BYTE   Cs5
 BYTE   W06
 BYTE   As4
 BYTE   W06
 BYTE   N52  Fs4
 BYTE   W54
// 034   ----------------------------------------
 BYTE   N05  Cn6
 BYTE   W06
 BYTE   As5
 BYTE   W06
 BYTE   Fn5
 BYTE   W06
 BYTE   N76  Ds5
 BYTE   W78
// 035   ----------------------------------------
 BYTE   W96
// 036   ----------------------------------------
 BYTE   W96
// 037   ----------------------------------------
 BYTE   W96
// 038   ----------------------------------------
 BYTE   W96
// 039   ----------------------------------------
 BYTE   VOICE   4
 BYTE   W96
// 040   ----------------------------------------
 BYTE   VOL   80*PokemonDPPtSnowpointCityDolkar_mvl/mxv
 BYTE   W96
// 041   ----------------------------------------
 BYTE   W96
// 042   ----------------------------------------
 BYTE   W96
// 043   ----------------------------------------
Label_6_0188F3DF:
 BYTE   N05  En5  v096
 BYTE   W06
 BYTE   En5  v052
 BYTE   W06
 BYTE   En5  v020
 BYTE   W06
 BYTE   En5  v052
 BYTE   W06
 BYTE   En5  v096
 BYTE   W06
 BYTE   En5  v052
 BYTE   W06
 BYTE   En5  v020
 BYTE   W06
 BYTE   En5  v052
 BYTE   W06
 BYTE   En5  v020
 BYTE   W06
 BYTE   En5  v052
 BYTE   W06
 BYTE   N05
 BYTE   W06
 BYTE   En5  v020
 BYTE   W06
 BYTE   N05
 BYTE   W06
 BYTE   N05
 BYTE   W06
 BYTE   N05
 BYTE   W06
 BYTE   En5  v052
 BYTE   W06
 BYTE   PEND 
 BYTE   PATT
  POIN2 Label_6_0188F3DF
 BYTE   PATT
  POIN2 Label_6_0188F3DF
 BYTE   PATT
  POIN2 Label_6_0188F3DF
// 044   ----------------------------------------
 BYTE   N05  En5  v096
 BYTE   W06
 BYTE   En5  v052
 BYTE   W06
 BYTE   En5  v020
 BYTE   W06
 BYTE   En5  v052
 BYTE   W06
 BYTE   En5  v096
 BYTE   W06
 BYTE   En5  v052
 BYTE   W06
 BYTE   En5  v020
 BYTE   W06
 BYTE   En5  v052
 BYTE   W06
 BYTE   En5  v020
 BYTE   W06
 BYTE   En5  v052
 BYTE   W06
 BYTE   N05
 BYTE   W06
 BYTE   En5  v020
 BYTE   W06
 BYTE   N05
 BYTE   W06
 BYTE   N05
 BYTE   W06
 BYTE   N05
 BYTE   W06
 BYTE   En5  v052
 BYTE   W05
 BYTE   GoTo
  POIN2 Label_6_0188F246
 BYTE   FINE

//**************** Track 8 (Midi-Chn.7) ****************//

PokemonDPPtSnowpointCityDolkar_008:
// 000   ----------------------------------------
 BYTE   KEYSH   PokemonDPPtSnowpointCityDolkar_key+0
Label_7_0188F452:
 BYTE   VOICE   1
 BYTE   PAN   c_v+0
 BYTE   MOD 0
 BYTE   CnM2
 BYTE   VOL   44*PokemonDPPtSnowpointCityDolkar_mvl/mxv
 BYTE   W96
// 001   ----------------------------------------
 BYTE   W96
// 002   ----------------------------------------
 BYTE   W96
// 003   ----------------------------------------
 BYTE   W96
// 004   ----------------------------------------
 BYTE   W96
// 005   ----------------------------------------
 BYTE   W96
// 006   ----------------------------------------
 BYTE   N44  Bn4  v112
 BYTE   W96
// 007   ----------------------------------------
 BYTE   N44
 BYTE   W96
// 008   ----------------------------------------
 BYTE   N44
 BYTE   W96
// 009   ----------------------------------------
 BYTE   N44
 BYTE   W96
// 010   ----------------------------------------
 BYTE   N44
 BYTE   W96
// 011   ----------------------------------------
 BYTE   N44
 BYTE   W96
// 012   ----------------------------------------
 BYTE   N44
 BYTE   W96
// 013   ----------------------------------------
 BYTE   N44
 BYTE   W96
// 014   ----------------------------------------
 BYTE   N44
 BYTE   W96
// 015   ----------------------------------------
 BYTE   N44
 BYTE   W96
// 016   ----------------------------------------
 BYTE   N44
 BYTE   W96
// 017   ----------------------------------------
 BYTE   W96
// 018   ----------------------------------------
 BYTE   W96
// 019   ----------------------------------------
 BYTE   N92  An4
 BYTE   W96
// 020   ----------------------------------------
 BYTE   W96
// 021   ----------------------------------------
 BYTE   N92
 BYTE   W96
// 022   ----------------------------------------
 BYTE   W96
// 023   ----------------------------------------
 BYTE   N92
 BYTE   W96
// 024   ----------------------------------------
 BYTE   W96
// 025   ----------------------------------------
 BYTE   N92
 BYTE   W96
// 026   ----------------------------------------
 BYTE   W96
// 027   ----------------------------------------
 BYTE   W96
// 028   ----------------------------------------
 BYTE   W96
// 029   ----------------------------------------
 BYTE   W96
// 030   ----------------------------------------
 BYTE   W96
// 031   ----------------------------------------
 BYTE   Bn4
 BYTE   W96
// 032   ----------------------------------------
 BYTE   W96
// 033   ----------------------------------------
 BYTE   N92
 BYTE   W96
// 034   ----------------------------------------
 BYTE   W96
// 035   ----------------------------------------
 BYTE   W96
// 036   ----------------------------------------
 BYTE   An4
 BYTE   W96
// 037   ----------------------------------------
 BYTE   W96
// 038   ----------------------------------------
 BYTE   N92
 BYTE   W96
// 039   ----------------------------------------
 BYTE   W96
// 040   ----------------------------------------
 BYTE   W96
// 041   ----------------------------------------
 BYTE   W96
// 042   ----------------------------------------
 BYTE   W96
// 043   ----------------------------------------
 BYTE   W96
// 044   ----------------------------------------
 BYTE   W96
// 045   ----------------------------------------
 BYTE   W96
// 046   ----------------------------------------
 BYTE   W96
// 047   ----------------------------------------
 BYTE   W92
 BYTE   W03
 BYTE   GoTo
  POIN2 Label_7_0188F452
 BYTE   FINE

//******************************************************//
	ALIGN 4

PokemonDPPtSnowpointCityDolkar:
	BYTE	8	// NumTrks
	BYTE	0	// NumBlks
	BYTE	PokemonDPPtSnowpointCityDolkar_pri	// Priority
	BYTE	PokemonDPPtSnowpointCityDolkar_rev	// Reverb.
    
	POIN2	PokemonDPPtSnowpointCityDolkar_grp
    
	POIN2	PokemonDPPtSnowpointCityDolkar_001
	POIN2	PokemonDPPtSnowpointCityDolkar_002
	POIN2	PokemonDPPtSnowpointCityDolkar_003
	POIN2	PokemonDPPtSnowpointCityDolkar_004
	POIN2	PokemonDPPtSnowpointCityDolkar_005
	POIN2	PokemonDPPtSnowpointCityDolkar_006
	POIN2	PokemonDPPtSnowpointCityDolkar_007
	POIN2	PokemonDPPtSnowpointCityDolkar_008

	
