//Event file generated from Sappy .s format.
	#include "MPlayDef.event"

	#define	PokemonSunandMoonVastPoniCanyonSme_grp  voicegroup000
	#define	PokemonSunandMoonVastPoniCanyonSme_pri  0
	#define	PokemonSunandMoonVastPoniCanyonSme_rev  0
	#define	PokemonSunandMoonVastPoniCanyonSme_mvl  85
	#define	PokemonSunandMoonVastPoniCanyonSme_key  0
	#define	PokemonSunandMoonVastPoniCanyonSme_tbs  1
	#define	PokemonSunandMoonVastPoniCanyonSme_exg  0
	#define	PokemonSunandMoonVastPoniCanyonSme_cmp  1

	// .rodata
	//	PokemonSunandMoonVastPoniCanyonSme
	ALIGN 4

//**************** Track 1 (Midi-Chn.1) ****************//

PokemonSunandMoonVastPoniCanyonSme_1:
	BYTE	KEYSH   PokemonSunandMoonVastPoniCanyonSme_key+0
// 000   ----------------------------------------
	BYTE	TEMPO   120*PokemonSunandMoonVastPoniCanyonSme_tbs/2
	BYTE		VOICE   73
	BYTE		VOL     100*PokemonSunandMoonVastPoniCanyonSme_mvl/mxv
	BYTE		PAN     c_v+0
	BYTE	W12
	BYTE		N05     Gn4   v096
	BYTE	W06
	BYTE		        An4 
	BYTE	W12
	BYTE		        Dn4 
	BYTE	W06
	BYTE		        En4 
	BYTE	W12
	BYTE		        Gn4 
	BYTE	W06
	BYTE		        An4 
	BYTE	W06
	BYTE		        Cn5 
	BYTE	W06
	BYTE		        Bn4 
	BYTE	W12
	BYTE		        Gn4 
	BYTE	W06
	BYTE		        An4 
	BYTE	W12
// 001   ----------------------------------------
PokemonSunandMoonVastPoniCanyonSme_1_001:
	BYTE		N05     Dn4   v096
	BYTE	W06
	BYTE		        En4 
	BYTE	W12
	BYTE		        Gn4 
	BYTE	W06
	BYTE		        An4 
	BYTE	W06
	BYTE		        Cn5 
	BYTE	W06
	BYTE		        Bn4 
	BYTE	W06
	BYTE		        Gn4 
	BYTE	W12
	BYTE		        An4 
	BYTE	W06
	BYTE		        Gn4 
	BYTE	W12
	BYTE		        An4 
	BYTE	W06
	BYTE		        En4 
	BYTE	W18
	BYTE	PEND
// 002   ----------------------------------------
PokemonSunandMoonVastPoniCanyonSme_1_002:
	BYTE	W12
	BYTE		N05     Gn4   v096
	BYTE	W06
	BYTE		        An4 
	BYTE	W12
	BYTE		        Dn4 
	BYTE	W06
	BYTE		        En4 
	BYTE	W12
	BYTE		        Gn4 
	BYTE	W06
	BYTE		        An4 
	BYTE	W06
	BYTE		        Cn5 
	BYTE	W06
	BYTE		        Bn4 
	BYTE	W12
	BYTE		        Gn4 
	BYTE	W06
	BYTE		        An4 
	BYTE	W12
	BYTE	PEND
// 003   ----------------------------------------
	BYTE	PATT
	 POIN2	PokemonSunandMoonVastPoniCanyonSme_1_001
// 004   ----------------------------------------
	BYTE	PATT
	 POIN2	PokemonSunandMoonVastPoniCanyonSme_1_002
// 005   ----------------------------------------
	BYTE	PATT
	 POIN2	PokemonSunandMoonVastPoniCanyonSme_1_001
// 006   ----------------------------------------
	BYTE	PATT
	 POIN2	PokemonSunandMoonVastPoniCanyonSme_1_002
// 007   ----------------------------------------
	BYTE	PATT
	 POIN2	PokemonSunandMoonVastPoniCanyonSme_1_001
// 008   ----------------------------------------
	BYTE	PATT
	 POIN2	PokemonSunandMoonVastPoniCanyonSme_1_002
// 009   ----------------------------------------
	BYTE	PATT
	 POIN2	PokemonSunandMoonVastPoniCanyonSme_1_001
// 010   ----------------------------------------
	BYTE	PATT
	 POIN2	PokemonSunandMoonVastPoniCanyonSme_1_002
// 011   ----------------------------------------
	BYTE	PATT
	 POIN2	PokemonSunandMoonVastPoniCanyonSme_1_001
// 012   ----------------------------------------
	BYTE	PATT
	 POIN2	PokemonSunandMoonVastPoniCanyonSme_1_002
// 013   ----------------------------------------
	BYTE	PATT
	 POIN2	PokemonSunandMoonVastPoniCanyonSme_1_001
// 014   ----------------------------------------
	BYTE	PATT
	 POIN2	PokemonSunandMoonVastPoniCanyonSme_1_002
// 015   ----------------------------------------
	BYTE	PATT
	 POIN2	PokemonSunandMoonVastPoniCanyonSme_1_001
PokemonSunandMoonVastPoniCanyonSme_1_B1:
// 016   ----------------------------------------
PokemonSunandMoonVastPoniCanyonSme_1_016:
	BYTE	W24
	BYTE		N22     Gn4   v112
	BYTE	W24
	BYTE		N03     Bn4 
	BYTE	W03
	BYTE		N14     Cn5 
	BYTE	W15
	BYTE		N05     An5 
	BYTE	W18
	BYTE		N22     Gn5 
	BYTE	W12
	BYTE	PEND
// 017   ----------------------------------------
PokemonSunandMoonVastPoniCanyonSme_1_017:
	BYTE	W12
	BYTE		N05     An5   v112
	BYTE	W12
	BYTE		        Cn5 
	BYTE	W06
	BYTE		        Gn4 
	BYTE	W12
	BYTE		N28     Cn5 
	BYTE	W30
	BYTE		N05     Ds5 
	BYTE	W06
	BYTE		        Dn5 
	BYTE	W06
	BYTE		        Cn5 
	BYTE	W06
	BYTE		N17     Dn5 
	BYTE	W06
	BYTE	PEND
// 018   ----------------------------------------
PokemonSunandMoonVastPoniCanyonSme_1_018:
	BYTE	W12
	BYTE		N05     En5   v112
	BYTE	W60
	BYTE		N02     Dn5 
	BYTE	W03
	BYTE		        Ds5 
	BYTE	W03
	BYTE		N05     Dn5 
	BYTE	W06
	BYTE		        Cn5 
	BYTE	W06
	BYTE		N17     Dn5 
	BYTE	W06
	BYTE	PEND
// 019   ----------------------------------------
PokemonSunandMoonVastPoniCanyonSme_1_019:
	BYTE	W12
	BYTE		N05     Cn5   v112
	BYTE	W12
	BYTE		N03     Gs5 
	BYTE	W03
	BYTE		N08     An5 
	BYTE	W09
	BYTE		N11     Gn5 
	BYTE	W12
	BYTE		N05     En5 
	BYTE	W06
	BYTE		        Fn5 
	BYTE	W06
	BYTE		        Gn5 
	BYTE	W06
	BYTE		        An5 
	BYTE	W12
	BYTE		N36     Cn5 
	BYTE	W18
	BYTE	PEND
// 020   ----------------------------------------
PokemonSunandMoonVastPoniCanyonSme_1_020:
	BYTE	W30
	BYTE		N05     Gn4   v112
	BYTE	W06
	BYTE		        An4 
	BYTE	W06
	BYTE		        Cn5 
	BYTE	W06
	BYTE		N11     En5 
	BYTE	W12
	BYTE		N05     Dn5 
	BYTE	W06
	BYTE		        Cn5 
	BYTE	W12
	BYTE		        Dn5 
	BYTE	W06
	BYTE		N32     Cn5 
	BYTE	W12
	BYTE	PEND
// 021   ----------------------------------------
PokemonSunandMoonVastPoniCanyonSme_1_021:
	BYTE	W30
	BYTE		N05     Gn4   v112
	BYTE	W06
	BYTE		        An4 
	BYTE	W06
	BYTE		        Cn5 
	BYTE	W06
	BYTE		N11     Ds5 
	BYTE	W12
	BYTE		N05     Dn5 
	BYTE	W06
	BYTE		        Cn5 
	BYTE	W12
	BYTE		        Dn5 
	BYTE	W06
	BYTE		        Cn5 
	BYTE	W12
	BYTE	PEND
// 022   ----------------------------------------
PokemonSunandMoonVastPoniCanyonSme_1_022:
	BYTE	W12
	BYTE		N03     Bn4   v112
	BYTE	W03
	BYTE		N04     Cn5 
	BYTE	W09
	BYTE		N05     An4 
	BYTE	W06
	BYTE		        Gn4 
	BYTE	W12
	BYTE		N02     En5 
	BYTE	W03
	BYTE		N08     Fn5 
	BYTE	W09
	BYTE		N05     En5 
	BYTE	W06
	BYTE		        Cn5 
	BYTE	W06
	BYTE		        Gn4 
	BYTE	W12
	BYTE		        An4 
	BYTE	W06
	BYTE		        Cn5 
	BYTE	W06
	BYTE		        En5 
	BYTE	W06
	BYTE	PEND
// 023   ----------------------------------------
PokemonSunandMoonVastPoniCanyonSme_1_023:
	BYTE		N56     Gn5   v112
	BYTE	W72
	BYTE		N03     Gs5 
	BYTE	W03
	BYTE		N14     An5 
	BYTE	W15
	BYTE		TIE     Cn6 
	BYTE	W06
	BYTE	PEND
// 024   ----------------------------------------
	BYTE	W96
// 025   ----------------------------------------
	BYTE	W40
	BYTE		EOT   
	BYTE	W56
// 026   ----------------------------------------
PokemonSunandMoonVastPoniCanyonSme_1_026:
	BYTE	W60
	BYTE		N05     Fn4   v100
	BYTE	W06
	BYTE		        Ds4 
	BYTE	W06
	BYTE		        En4 
	BYTE	W06
	BYTE		N11     Dn5 
	BYTE	W12
	BYTE		        Bn4 
	BYTE	W06
	BYTE	PEND
// 027   ----------------------------------------
PokemonSunandMoonVastPoniCanyonSme_1_027:
	BYTE	W06
	BYTE		N05     Cn5   v100
	BYTE	W06
	BYTE		        Bn4 
	BYTE	W06
	BYTE		N11     Gn4 
	BYTE	W12
	BYTE		N05     En4 
	BYTE	W06
	BYTE		N56     Dn4 
	BYTE	W60
	BYTE	PEND
// 028   ----------------------------------------
PokemonSunandMoonVastPoniCanyonSme_1_028:
	BYTE	W36
	BYTE		N05     Cn5   v100
	BYTE	W06
	BYTE		        An4 
	BYTE	W06
	BYTE		N11     Bn4 
	BYTE	W12
	BYTE		        Cn5 
	BYTE	W12
	BYTE		N05     Dn5 
	BYTE	W06
	BYTE		N11     En5 
	BYTE	W12
	BYTE		N28     Bn4 
	BYTE	W06
	BYTE	PEND
// 029   ----------------------------------------
PokemonSunandMoonVastPoniCanyonSme_1_029:
	BYTE	W24
	BYTE		N05     Cn5   v112
	BYTE	W06
	BYTE		        Bn4 
	BYTE	W06
	BYTE		        An4 
	BYTE	W06
	BYTE		N11     Bn4 
	BYTE	W12
	BYTE		N05     Gn4 
	BYTE	W06
	BYTE		N32     Dn4 
	BYTE	W36
	BYTE	PEND
// 030   ----------------------------------------
PokemonSunandMoonVastPoniCanyonSme_1_030:
	BYTE		N05     En5   v100
	BYTE	W06
	BYTE		        An5 
	BYTE	W06
	BYTE		        Gn5 
	BYTE	W06
	BYTE		        An5 
	BYTE	W18
	BYTE		        Dn5 
	BYTE	W06
	BYTE		        Cn5 
	BYTE	W06
	BYTE		        Dn5 
	BYTE	W06
	BYTE		N08     En5 
	BYTE	W18
	BYTE		N05     Cn5 
	BYTE	W06
	BYTE		        An4 
	BYTE	W06
	BYTE		        Gn4 
	BYTE	W06
	BYTE		        Cn5 
	BYTE	W06
	BYTE	PEND
// 031   ----------------------------------------
PokemonSunandMoonVastPoniCanyonSme_1_031:
	BYTE	W12
	BYTE		N05     An4   v100
	BYTE	W06
	BYTE		        Gn4 
	BYTE	W06
	BYTE		        An4 
	BYTE	W06
	BYTE		        Cn5 
	BYTE	W06
	BYTE		        Dn5 
	BYTE	W06
	BYTE		        Ds5 
	BYTE	W06
	BYTE		        Dn5 
	BYTE	W06
	BYTE		        Cn5 
	BYTE	W06
	BYTE		        An4 
	BYTE	W06
	BYTE		        En4 
	BYTE	W06
	BYTE		        Gn4 
	BYTE	W06
	BYTE		N17     An4 
	BYTE	W18
	BYTE	PEND
// 032   ----------------------------------------
	BYTE	W96
// 033   ----------------------------------------
	BYTE	W96
// 034   ----------------------------------------
	BYTE	W96
// 035   ----------------------------------------
	BYTE	W96
// 036   ----------------------------------------
PokemonSunandMoonVastPoniCanyonSme_1_036:
	BYTE	W12
	BYTE		N05     Gn4   v112
	BYTE	W06
	BYTE		        An4 
	BYTE	W12
	BYTE		        Dn4 
	BYTE	W06
	BYTE		        En4 
	BYTE	W12
	BYTE		        Gn4 
	BYTE	W06
	BYTE		        An4 
	BYTE	W06
	BYTE		        Cn5 
	BYTE	W06
	BYTE		        Bn4 
	BYTE	W12
	BYTE		        Gn4 
	BYTE	W06
	BYTE		        An4 
	BYTE	W12
	BYTE	PEND
// 037   ----------------------------------------
PokemonSunandMoonVastPoniCanyonSme_1_037:
	BYTE		N05     Dn4   v112
	BYTE	W06
	BYTE		        En4 
	BYTE	W12
	BYTE		        Gn4 
	BYTE	W06
	BYTE		        An4 
	BYTE	W06
	BYTE		        Cn5 
	BYTE	W06
	BYTE		        Bn4 
	BYTE	W06
	BYTE		        Gn4 
	BYTE	W12
	BYTE		        An4 
	BYTE	W06
	BYTE		        Gn4 
	BYTE	W12
	BYTE		        An4 
	BYTE	W06
	BYTE		        En4 
	BYTE	W18
	BYTE	PEND
// 038   ----------------------------------------
	BYTE	PATT
	 POIN2	PokemonSunandMoonVastPoniCanyonSme_1_036
// 039   ----------------------------------------
	BYTE	PATT
	 POIN2	PokemonSunandMoonVastPoniCanyonSme_1_037
// 040   ----------------------------------------
	BYTE	PATT
	 POIN2	PokemonSunandMoonVastPoniCanyonSme_1_036
// 041   ----------------------------------------
	BYTE	PATT
	 POIN2	PokemonSunandMoonVastPoniCanyonSme_1_037
// 042   ----------------------------------------
	BYTE	PATT
	 POIN2	PokemonSunandMoonVastPoniCanyonSme_1_036
// 043   ----------------------------------------
	BYTE	PATT
	 POIN2	PokemonSunandMoonVastPoniCanyonSme_1_037
// 044   ----------------------------------------
	BYTE	PATT
	 POIN2	PokemonSunandMoonVastPoniCanyonSme_1_036
// 045   ----------------------------------------
	BYTE	PATT
	 POIN2	PokemonSunandMoonVastPoniCanyonSme_1_037
// 046   ----------------------------------------
	BYTE	PATT
	 POIN2	PokemonSunandMoonVastPoniCanyonSme_1_036
// 047   ----------------------------------------
	BYTE	PATT
	 POIN2	PokemonSunandMoonVastPoniCanyonSme_1_037
// 048   ----------------------------------------
	BYTE	PATT
	 POIN2	PokemonSunandMoonVastPoniCanyonSme_1_036
// 049   ----------------------------------------
	BYTE	PATT
	 POIN2	PokemonSunandMoonVastPoniCanyonSme_1_037
// 050   ----------------------------------------
	BYTE	PATT
	 POIN2	PokemonSunandMoonVastPoniCanyonSme_1_016
// 051   ----------------------------------------
	BYTE	PATT
	 POIN2	PokemonSunandMoonVastPoniCanyonSme_1_017
// 052   ----------------------------------------
	BYTE	PATT
	 POIN2	PokemonSunandMoonVastPoniCanyonSme_1_018
// 053   ----------------------------------------
	BYTE	PATT
	 POIN2	PokemonSunandMoonVastPoniCanyonSme_1_019
// 054   ----------------------------------------
	BYTE	PATT
	 POIN2	PokemonSunandMoonVastPoniCanyonSme_1_020
// 055   ----------------------------------------
	BYTE	PATT
	 POIN2	PokemonSunandMoonVastPoniCanyonSme_1_021
// 056   ----------------------------------------
	BYTE	PATT
	 POIN2	PokemonSunandMoonVastPoniCanyonSme_1_022
// 057   ----------------------------------------
	BYTE	PATT
	 POIN2	PokemonSunandMoonVastPoniCanyonSme_1_023
// 058   ----------------------------------------
	BYTE	W96
// 059   ----------------------------------------
	BYTE	W40
	BYTE		EOT     Cn6 
	BYTE	W56
// 060   ----------------------------------------
	BYTE	PATT
	 POIN2	PokemonSunandMoonVastPoniCanyonSme_1_026
// 061   ----------------------------------------
	BYTE	PATT
	 POIN2	PokemonSunandMoonVastPoniCanyonSme_1_027
// 062   ----------------------------------------
	BYTE	PATT
	 POIN2	PokemonSunandMoonVastPoniCanyonSme_1_028
// 063   ----------------------------------------
	BYTE	PATT
	 POIN2	PokemonSunandMoonVastPoniCanyonSme_1_029
// 064   ----------------------------------------
	BYTE	PATT
	 POIN2	PokemonSunandMoonVastPoniCanyonSme_1_030
// 065   ----------------------------------------
	BYTE	PATT
	 POIN2	PokemonSunandMoonVastPoniCanyonSme_1_031
// 066   ----------------------------------------
	BYTE	W96
// 067   ----------------------------------------
	BYTE	W96
// 068   ----------------------------------------
	BYTE	W96
// 069   ----------------------------------------
	BYTE	W96
// 070   ----------------------------------------
	BYTE	PATT
	 POIN2	PokemonSunandMoonVastPoniCanyonSme_1_036
// 071   ----------------------------------------
	BYTE	PATT
	 POIN2	PokemonSunandMoonVastPoniCanyonSme_1_037
	BYTE	GoTo
	 POIN2	PokemonSunandMoonVastPoniCanyonSme_1_B1
PokemonSunandMoonVastPoniCanyonSme_1_B2:
// 072   ----------------------------------------
	BYTE		N05     An4   v112
	BYTE	W06
	BYTE		N05   
	BYTE	W12
	BYTE		N05   
	BYTE	W06
	BYTE		N05   
	BYTE	W12
	BYTE		N05   
	BYTE	W06
	BYTE		N05   
	BYTE	W05
	BYTE	FINE

//**************** Track 2 (Midi-Chn.2) ****************//

PokemonSunandMoonVastPoniCanyonSme_2:
	BYTE	KEYSH   PokemonSunandMoonVastPoniCanyonSme_key+0
// 000   ----------------------------------------
	BYTE		VOICE   73
	BYTE		VOL     100*PokemonSunandMoonVastPoniCanyonSme_mvl/mxv
	BYTE		PAN     c_v+0
	BYTE	W12
	BYTE		N05     Gn4   v096
	BYTE	W06
	BYTE		        An4 
	BYTE	W12
	BYTE		        Dn4 
	BYTE	W06
	BYTE		        En4 
	BYTE	W12
	BYTE		        Gn4 
	BYTE	W06
	BYTE		        An4 
	BYTE	W06
	BYTE		        Cn5 
	BYTE	W06
	BYTE		        Bn4 
	BYTE	W12
	BYTE		        Gn4 
	BYTE	W06
	BYTE		        An4 
	BYTE	W12
// 001   ----------------------------------------
PokemonSunandMoonVastPoniCanyonSme_2_001:
	BYTE		N05     Dn4   v096
	BYTE	W06
	BYTE		        En4 
	BYTE	W12
	BYTE		        Gn4 
	BYTE	W06
	BYTE		        An4 
	BYTE	W06
	BYTE		        Cn5 
	BYTE	W06
	BYTE		        Bn4 
	BYTE	W06
	BYTE		        Gn4 
	BYTE	W12
	BYTE		        An4 
	BYTE	W06
	BYTE		        Gn4 
	BYTE	W12
	BYTE		        An4 
	BYTE	W06
	BYTE		        En4 
	BYTE	W18
	BYTE	PEND
// 002   ----------------------------------------
PokemonSunandMoonVastPoniCanyonSme_2_002:
	BYTE	W12
	BYTE		N05     Gn4   v096
	BYTE	W06
	BYTE		        An4 
	BYTE	W12
	BYTE		        Dn4 
	BYTE	W06
	BYTE		        En4 
	BYTE	W12
	BYTE		        Gn4 
	BYTE	W06
	BYTE		        An4 
	BYTE	W06
	BYTE		        Cn5 
	BYTE	W06
	BYTE		        Bn4 
	BYTE	W12
	BYTE		        Gn4 
	BYTE	W06
	BYTE		        An4 
	BYTE	W12
	BYTE	PEND
// 003   ----------------------------------------
	BYTE	PATT
	 POIN2	PokemonSunandMoonVastPoniCanyonSme_2_001
// 004   ----------------------------------------
	BYTE	PATT
	 POIN2	PokemonSunandMoonVastPoniCanyonSme_2_002
// 005   ----------------------------------------
	BYTE	PATT
	 POIN2	PokemonSunandMoonVastPoniCanyonSme_2_001
// 006   ----------------------------------------
	BYTE	PATT
	 POIN2	PokemonSunandMoonVastPoniCanyonSme_2_002
// 007   ----------------------------------------
	BYTE	PATT
	 POIN2	PokemonSunandMoonVastPoniCanyonSme_2_001
// 008   ----------------------------------------
	BYTE	PATT
	 POIN2	PokemonSunandMoonVastPoniCanyonSme_2_002
// 009   ----------------------------------------
	BYTE	PATT
	 POIN2	PokemonSunandMoonVastPoniCanyonSme_2_001
// 010   ----------------------------------------
	BYTE	PATT
	 POIN2	PokemonSunandMoonVastPoniCanyonSme_2_002
// 011   ----------------------------------------
	BYTE	PATT
	 POIN2	PokemonSunandMoonVastPoniCanyonSme_2_001
// 012   ----------------------------------------
	BYTE	PATT
	 POIN2	PokemonSunandMoonVastPoniCanyonSme_2_002
// 013   ----------------------------------------
	BYTE	PATT
	 POIN2	PokemonSunandMoonVastPoniCanyonSme_2_001
// 014   ----------------------------------------
	BYTE	PATT
	 POIN2	PokemonSunandMoonVastPoniCanyonSme_2_002
// 015   ----------------------------------------
	BYTE	PATT
	 POIN2	PokemonSunandMoonVastPoniCanyonSme_2_001
PokemonSunandMoonVastPoniCanyonSme_2_B1:
// 016   ----------------------------------------
PokemonSunandMoonVastPoniCanyonSme_2_016:
	BYTE	W24
	BYTE		N22     Gn4   v112
	BYTE	W24
	BYTE		N03     Bn4 
	BYTE	W03
	BYTE		N14     Cn5 
	BYTE	W15
	BYTE		N05     An5 
	BYTE	W18
	BYTE		N22     Gn5 
	BYTE	W12
	BYTE	PEND
// 017   ----------------------------------------
PokemonSunandMoonVastPoniCanyonSme_2_017:
	BYTE	W12
	BYTE		N05     An5   v112
	BYTE	W12
	BYTE		        Cn5 
	BYTE	W06
	BYTE		        Gn4 
	BYTE	W12
	BYTE		N28     Cn5 
	BYTE	W30
	BYTE		N05     Ds5 
	BYTE	W06
	BYTE		        Dn5 
	BYTE	W06
	BYTE		        Cn5 
	BYTE	W06
	BYTE		N17     Dn5 
	BYTE	W06
	BYTE	PEND
// 018   ----------------------------------------
PokemonSunandMoonVastPoniCanyonSme_2_018:
	BYTE	W12
	BYTE		N05     En5   v112
	BYTE	W60
	BYTE		N02     Dn5 
	BYTE	W03
	BYTE		        Ds5 
	BYTE	W03
	BYTE		N05     Dn5 
	BYTE	W06
	BYTE		        Cn5 
	BYTE	W06
	BYTE		N17     Dn5 
	BYTE	W06
	BYTE	PEND
// 019   ----------------------------------------
PokemonSunandMoonVastPoniCanyonSme_2_019:
	BYTE	W12
	BYTE		N05     Cn5   v112
	BYTE	W12
	BYTE		N03     Gs5 
	BYTE	W03
	BYTE		N08     An5 
	BYTE	W09
	BYTE		N11     Gn5 
	BYTE	W12
	BYTE		N05     En5 
	BYTE	W06
	BYTE		        Fn5 
	BYTE	W06
	BYTE		        Gn5 
	BYTE	W06
	BYTE		        An5 
	BYTE	W12
	BYTE		N36     Cn5 
	BYTE	W18
	BYTE	PEND
// 020   ----------------------------------------
PokemonSunandMoonVastPoniCanyonSme_2_020:
	BYTE	W30
	BYTE		N05     Gn4   v112
	BYTE	W06
	BYTE		        An4 
	BYTE	W06
	BYTE		        Cn5 
	BYTE	W06
	BYTE		N11     En5 
	BYTE	W12
	BYTE		N05     Dn5 
	BYTE	W06
	BYTE		        Cn5 
	BYTE	W12
	BYTE		        Dn5 
	BYTE	W06
	BYTE		N32     Cn5 
	BYTE	W12
	BYTE	PEND
// 021   ----------------------------------------
PokemonSunandMoonVastPoniCanyonSme_2_021:
	BYTE	W30
	BYTE		N05     Gn4   v112
	BYTE	W06
	BYTE		        An4 
	BYTE	W06
	BYTE		        Cn5 
	BYTE	W06
	BYTE		N11     Ds5 
	BYTE	W12
	BYTE		N05     Dn5 
	BYTE	W06
	BYTE		        Cn5 
	BYTE	W12
	BYTE		        Dn5 
	BYTE	W06
	BYTE		        Cn5 
	BYTE	W12
	BYTE	PEND
// 022   ----------------------------------------
PokemonSunandMoonVastPoniCanyonSme_2_022:
	BYTE	W12
	BYTE		N03     Bn4   v112
	BYTE	W03
	BYTE		N04     Cn5 
	BYTE	W09
	BYTE		N05     An4 
	BYTE	W06
	BYTE		        Gn4 
	BYTE	W12
	BYTE		N02     En5 
	BYTE	W03
	BYTE		N08     Fn5 
	BYTE	W09
	BYTE		N05     En5 
	BYTE	W06
	BYTE		        Cn5 
	BYTE	W06
	BYTE		        Gn4 
	BYTE	W12
	BYTE		        An4 
	BYTE	W06
	BYTE		        Cn5 
	BYTE	W06
	BYTE		        En5 
	BYTE	W06
	BYTE	PEND
// 023   ----------------------------------------
PokemonSunandMoonVastPoniCanyonSme_2_023:
	BYTE		N56     Gn5   v112
	BYTE	W72
	BYTE		N03     Gs5 
	BYTE	W03
	BYTE		N14     An5 
	BYTE	W15
	BYTE		TIE     Cn6 
	BYTE	W06
	BYTE	PEND
// 024   ----------------------------------------
	BYTE	W96
// 025   ----------------------------------------
	BYTE	W40
	BYTE		EOT   
	BYTE	W56
// 026   ----------------------------------------
PokemonSunandMoonVastPoniCanyonSme_2_026:
	BYTE	W60
	BYTE		N05     Fn4   v100
	BYTE	W06
	BYTE		        Ds4 
	BYTE	W06
	BYTE		        En4 
	BYTE	W06
	BYTE		N11     Dn5 
	BYTE	W12
	BYTE		        Bn4 
	BYTE	W06
	BYTE	PEND
// 027   ----------------------------------------
PokemonSunandMoonVastPoniCanyonSme_2_027:
	BYTE	W06
	BYTE		N05     Cn5   v100
	BYTE	W06
	BYTE		        Bn4 
	BYTE	W06
	BYTE		N11     Gn4 
	BYTE	W12
	BYTE		N05     En4 
	BYTE	W06
	BYTE		N56     Dn4 
	BYTE	W60
	BYTE	PEND
// 028   ----------------------------------------
PokemonSunandMoonVastPoniCanyonSme_2_028:
	BYTE	W36
	BYTE		N05     Cn5   v100
	BYTE	W06
	BYTE		        An4 
	BYTE	W06
	BYTE		N11     Bn4 
	BYTE	W12
	BYTE		        Cn5 
	BYTE	W12
	BYTE		N05     Dn5 
	BYTE	W06
	BYTE		N11     En5 
	BYTE	W12
	BYTE		N28     Bn4 
	BYTE	W06
	BYTE	PEND
// 029   ----------------------------------------
PokemonSunandMoonVastPoniCanyonSme_2_029:
	BYTE	W24
	BYTE		N05     Cn5   v112
	BYTE	W06
	BYTE		        Bn4 
	BYTE	W06
	BYTE		        An4 
	BYTE	W06
	BYTE		N11     Bn4 
	BYTE	W12
	BYTE		N05     Gn4 
	BYTE	W06
	BYTE		N32     Dn4 
	BYTE	W36
	BYTE	PEND
// 030   ----------------------------------------
PokemonSunandMoonVastPoniCanyonSme_2_030:
	BYTE		N05     En5   v100
	BYTE	W06
	BYTE		        An5 
	BYTE	W06
	BYTE		        Gn5 
	BYTE	W06
	BYTE		        An5 
	BYTE	W18
	BYTE		        Dn5 
	BYTE	W06
	BYTE		        Cn5 
	BYTE	W06
	BYTE		        Dn5 
	BYTE	W06
	BYTE		N08     En5 
	BYTE	W18
	BYTE		N05     Cn5 
	BYTE	W06
	BYTE		        An4 
	BYTE	W06
	BYTE		        Gn4 
	BYTE	W06
	BYTE		        Cn5 
	BYTE	W06
	BYTE	PEND
// 031   ----------------------------------------
PokemonSunandMoonVastPoniCanyonSme_2_031:
	BYTE	W12
	BYTE		N05     An4   v100
	BYTE	W06
	BYTE		        Gn4 
	BYTE	W06
	BYTE		        An4 
	BYTE	W06
	BYTE		        Cn5 
	BYTE	W06
	BYTE		        Dn5 
	BYTE	W06
	BYTE		        Ds5 
	BYTE	W06
	BYTE		        Dn5 
	BYTE	W06
	BYTE		        Cn5 
	BYTE	W06
	BYTE		        An4 
	BYTE	W06
	BYTE		        En4 
	BYTE	W06
	BYTE		        Gn4 
	BYTE	W06
	BYTE		N17     An4 
	BYTE	W18
	BYTE	PEND
// 032   ----------------------------------------
	BYTE	W96
// 033   ----------------------------------------
	BYTE	W96
// 034   ----------------------------------------
	BYTE	W96
// 035   ----------------------------------------
	BYTE	W96
// 036   ----------------------------------------
PokemonSunandMoonVastPoniCanyonSme_2_036:
	BYTE	W12
	BYTE		N05     Gn4   v112
	BYTE	W06
	BYTE		        An4 
	BYTE	W12
	BYTE		        Dn4 
	BYTE	W06
	BYTE		        En4 
	BYTE	W12
	BYTE		        Gn4 
	BYTE	W06
	BYTE		        An4 
	BYTE	W06
	BYTE		        Cn5 
	BYTE	W06
	BYTE		        Bn4 
	BYTE	W12
	BYTE		        Gn4 
	BYTE	W06
	BYTE		        An4 
	BYTE	W12
	BYTE	PEND
// 037   ----------------------------------------
PokemonSunandMoonVastPoniCanyonSme_2_037:
	BYTE		N05     Dn4   v112
	BYTE	W06
	BYTE		        En4 
	BYTE	W12
	BYTE		        Gn4 
	BYTE	W06
	BYTE		        An4 
	BYTE	W06
	BYTE		        Cn5 
	BYTE	W06
	BYTE		        Bn4 
	BYTE	W06
	BYTE		        Gn4 
	BYTE	W12
	BYTE		        An4 
	BYTE	W06
	BYTE		        Gn4 
	BYTE	W12
	BYTE		        An4 
	BYTE	W06
	BYTE		        En4 
	BYTE	W18
	BYTE	PEND
// 038   ----------------------------------------
	BYTE	PATT
	 POIN2	PokemonSunandMoonVastPoniCanyonSme_2_036
// 039   ----------------------------------------
	BYTE	PATT
	 POIN2	PokemonSunandMoonVastPoniCanyonSme_2_037
// 040   ----------------------------------------
	BYTE	PATT
	 POIN2	PokemonSunandMoonVastPoniCanyonSme_2_036
// 041   ----------------------------------------
	BYTE	PATT
	 POIN2	PokemonSunandMoonVastPoniCanyonSme_2_037
// 042   ----------------------------------------
	BYTE	PATT
	 POIN2	PokemonSunandMoonVastPoniCanyonSme_2_036
// 043   ----------------------------------------
	BYTE	PATT
	 POIN2	PokemonSunandMoonVastPoniCanyonSme_2_037
// 044   ----------------------------------------
	BYTE	PATT
	 POIN2	PokemonSunandMoonVastPoniCanyonSme_2_036
// 045   ----------------------------------------
	BYTE	PATT
	 POIN2	PokemonSunandMoonVastPoniCanyonSme_2_037
// 046   ----------------------------------------
	BYTE	PATT
	 POIN2	PokemonSunandMoonVastPoniCanyonSme_2_036
// 047   ----------------------------------------
	BYTE	PATT
	 POIN2	PokemonSunandMoonVastPoniCanyonSme_2_037
// 048   ----------------------------------------
	BYTE	PATT
	 POIN2	PokemonSunandMoonVastPoniCanyonSme_2_036
// 049   ----------------------------------------
	BYTE	PATT
	 POIN2	PokemonSunandMoonVastPoniCanyonSme_2_037
// 050   ----------------------------------------
	BYTE	PATT
	 POIN2	PokemonSunandMoonVastPoniCanyonSme_2_016
// 051   ----------------------------------------
	BYTE	PATT
	 POIN2	PokemonSunandMoonVastPoniCanyonSme_2_017
// 052   ----------------------------------------
	BYTE	PATT
	 POIN2	PokemonSunandMoonVastPoniCanyonSme_2_018
// 053   ----------------------------------------
	BYTE	PATT
	 POIN2	PokemonSunandMoonVastPoniCanyonSme_2_019
// 054   ----------------------------------------
	BYTE	PATT
	 POIN2	PokemonSunandMoonVastPoniCanyonSme_2_020
// 055   ----------------------------------------
	BYTE	PATT
	 POIN2	PokemonSunandMoonVastPoniCanyonSme_2_021
// 056   ----------------------------------------
	BYTE	PATT
	 POIN2	PokemonSunandMoonVastPoniCanyonSme_2_022
// 057   ----------------------------------------
	BYTE	PATT
	 POIN2	PokemonSunandMoonVastPoniCanyonSme_2_023
// 058   ----------------------------------------
	BYTE	W96
// 059   ----------------------------------------
	BYTE	W40
	BYTE		EOT     Cn6 
	BYTE	W56
// 060   ----------------------------------------
	BYTE	PATT
	 POIN2	PokemonSunandMoonVastPoniCanyonSme_2_026
// 061   ----------------------------------------
	BYTE	PATT
	 POIN2	PokemonSunandMoonVastPoniCanyonSme_2_027
// 062   ----------------------------------------
	BYTE	PATT
	 POIN2	PokemonSunandMoonVastPoniCanyonSme_2_028
// 063   ----------------------------------------
	BYTE	PATT
	 POIN2	PokemonSunandMoonVastPoniCanyonSme_2_029
// 064   ----------------------------------------
	BYTE	PATT
	 POIN2	PokemonSunandMoonVastPoniCanyonSme_2_030
// 065   ----------------------------------------
	BYTE	PATT
	 POIN2	PokemonSunandMoonVastPoniCanyonSme_2_031
// 066   ----------------------------------------
	BYTE	W96
// 067   ----------------------------------------
	BYTE	W96
// 068   ----------------------------------------
	BYTE	W96
// 069   ----------------------------------------
	BYTE	W96
// 070   ----------------------------------------
	BYTE	PATT
	 POIN2	PokemonSunandMoonVastPoniCanyonSme_2_036
// 071   ----------------------------------------
	BYTE	PATT
	 POIN2	PokemonSunandMoonVastPoniCanyonSme_2_037
	BYTE	GoTo
	 POIN2	PokemonSunandMoonVastPoniCanyonSme_2_B1
PokemonSunandMoonVastPoniCanyonSme_2_B2:
// 072   ----------------------------------------
	BYTE		N05     An4   v112
	BYTE	W06
	BYTE		N05   
	BYTE	W12
	BYTE		N05   
	BYTE	W06
	BYTE		N05   
	BYTE	W12
	BYTE		N05   
	BYTE	W06
	BYTE		N05   
	BYTE	W05
	BYTE	FINE

//**************** Track 3 (Midi-Chn.3) ****************//

PokemonSunandMoonVastPoniCanyonSme_3:
	BYTE	KEYSH   PokemonSunandMoonVastPoniCanyonSme_key+0
// 000   ----------------------------------------
	BYTE		VOICE   68
	BYTE		VOL     100*PokemonSunandMoonVastPoniCanyonSme_mvl/mxv
	BYTE		PAN     c_v+0
	BYTE	W12
	BYTE		N05     Dn4   v096
	BYTE	W06
	BYTE		        En4 
	BYTE	W12
	BYTE		        An3 
	BYTE	W06
	BYTE		        Bn3 
	BYTE	W12
	BYTE		        Dn4 
	BYTE	W06
	BYTE		        En4 
	BYTE	W06
	BYTE		        Gn4 
	BYTE	W06
	BYTE		        Fs4 
	BYTE	W12
	BYTE		        Dn4 
	BYTE	W06
	BYTE		        En4 
	BYTE	W12
// 001   ----------------------------------------
PokemonSunandMoonVastPoniCanyonSme_3_001:
	BYTE		N05     An3   v096
	BYTE	W06
	BYTE		        Bn3 
	BYTE	W12
	BYTE		        Dn4 
	BYTE	W06
	BYTE		        En4 
	BYTE	W06
	BYTE		        Gn4 
	BYTE	W06
	BYTE		        Fs4 
	BYTE	W06
	BYTE		        Dn4 
	BYTE	W12
	BYTE		        En4 
	BYTE	W06
	BYTE		        Dn4 
	BYTE	W12
	BYTE		        En4 
	BYTE	W06
	BYTE		        Bn3 
	BYTE	W18
	BYTE	PEND
// 002   ----------------------------------------
PokemonSunandMoonVastPoniCanyonSme_3_002:
	BYTE	W12
	BYTE		N05     Dn4   v096
	BYTE	W06
	BYTE		        En4 
	BYTE	W12
	BYTE		        An3 
	BYTE	W06
	BYTE		        Bn3 
	BYTE	W12
	BYTE		        Dn4 
	BYTE	W06
	BYTE		        En4 
	BYTE	W06
	BYTE		        Gn4 
	BYTE	W06
	BYTE		        Fs4 
	BYTE	W12
	BYTE		        Dn4 
	BYTE	W06
	BYTE		        En4 
	BYTE	W12
	BYTE	PEND
// 003   ----------------------------------------
	BYTE	PATT
	 POIN2	PokemonSunandMoonVastPoniCanyonSme_3_001
// 004   ----------------------------------------
	BYTE	PATT
	 POIN2	PokemonSunandMoonVastPoniCanyonSme_3_002
// 005   ----------------------------------------
	BYTE	PATT
	 POIN2	PokemonSunandMoonVastPoniCanyonSme_3_001
// 006   ----------------------------------------
	BYTE	PATT
	 POIN2	PokemonSunandMoonVastPoniCanyonSme_3_002
// 007   ----------------------------------------
	BYTE	PATT
	 POIN2	PokemonSunandMoonVastPoniCanyonSme_3_001
// 008   ----------------------------------------
	BYTE	PATT
	 POIN2	PokemonSunandMoonVastPoniCanyonSme_3_002
// 009   ----------------------------------------
	BYTE	PATT
	 POIN2	PokemonSunandMoonVastPoniCanyonSme_3_001
// 010   ----------------------------------------
	BYTE	PATT
	 POIN2	PokemonSunandMoonVastPoniCanyonSme_3_002
// 011   ----------------------------------------
	BYTE	PATT
	 POIN2	PokemonSunandMoonVastPoniCanyonSme_3_001
// 012   ----------------------------------------
	BYTE	PATT
	 POIN2	PokemonSunandMoonVastPoniCanyonSme_3_002
// 013   ----------------------------------------
	BYTE	PATT
	 POIN2	PokemonSunandMoonVastPoniCanyonSme_3_001
// 014   ----------------------------------------
	BYTE	PATT
	 POIN2	PokemonSunandMoonVastPoniCanyonSme_3_002
// 015   ----------------------------------------
	BYTE	PATT
	 POIN2	PokemonSunandMoonVastPoniCanyonSme_3_001
PokemonSunandMoonVastPoniCanyonSme_3_B1:
// 016   ----------------------------------------
	BYTE	W96
// 017   ----------------------------------------
	BYTE	W96
// 018   ----------------------------------------
PokemonSunandMoonVastPoniCanyonSme_3_018:
	BYTE	W24
	BYTE		N05     En4   v096
	BYTE	W06
	BYTE		        Dn4 
	BYTE	W06
	BYTE		        Cn4 
	BYTE	W06
	BYTE		N17     Dn4 
	BYTE	W18
	BYTE		N11     En4 
	BYTE	W36
	BYTE	PEND
// 019   ----------------------------------------
	BYTE	W96
// 020   ----------------------------------------
	BYTE	W96
// 021   ----------------------------------------
	BYTE	W96
// 022   ----------------------------------------
	BYTE	W96
// 023   ----------------------------------------
	BYTE	W96
// 024   ----------------------------------------
	BYTE	W96
// 025   ----------------------------------------
	BYTE	W96
// 026   ----------------------------------------
PokemonSunandMoonVastPoniCanyonSme_3_026:
	BYTE	W60
	BYTE		N05     Fn3   v100
	BYTE	W06
	BYTE		        Ds3 
	BYTE	W06
	BYTE		        En3 
	BYTE	W06
	BYTE		N11     Dn4 
	BYTE	W12
	BYTE		        Bn3 
	BYTE	W06
	BYTE	PEND
// 027   ----------------------------------------
PokemonSunandMoonVastPoniCanyonSme_3_027:
	BYTE	W06
	BYTE		N05     Cn4   v100
	BYTE	W06
	BYTE		        Bn3 
	BYTE	W06
	BYTE		N11     Gn3 
	BYTE	W12
	BYTE		N05     En3 
	BYTE	W06
	BYTE		N56     Dn3 
	BYTE	W60
	BYTE	PEND
// 028   ----------------------------------------
PokemonSunandMoonVastPoniCanyonSme_3_028:
	BYTE	W36
	BYTE		N05     Cn4   v100
	BYTE	W06
	BYTE		        An3 
	BYTE	W06
	BYTE		N11     Bn3 
	BYTE	W12
	BYTE		        Cn4 
	BYTE	W12
	BYTE		N05     Dn4 
	BYTE	W06
	BYTE		N11     En4 
	BYTE	W12
	BYTE		N28     Bn3 
	BYTE	W06
	BYTE	PEND
// 029   ----------------------------------------
PokemonSunandMoonVastPoniCanyonSme_3_029:
	BYTE	W24
	BYTE		N05     Cn4   v096
	BYTE	W06
	BYTE		        Bn3 
	BYTE	W06
	BYTE		        An3 
	BYTE	W06
	BYTE		N11     Bn3 
	BYTE	W12
	BYTE		N05     Gn3 
	BYTE	W06
	BYTE		N32     Dn3 
	BYTE	W36
	BYTE	PEND
// 030   ----------------------------------------
PokemonSunandMoonVastPoniCanyonSme_3_030:
	BYTE		N05     En4   v100
	BYTE	W06
	BYTE		        An4 
	BYTE	W06
	BYTE		        Gn4 
	BYTE	W06
	BYTE		        An4 
	BYTE	W18
	BYTE		        Dn4 
	BYTE	W06
	BYTE		        Cn4 
	BYTE	W06
	BYTE		        Dn4 
	BYTE	W06
	BYTE		N08     En4 
	BYTE	W18
	BYTE		N05     Cn4 
	BYTE	W06
	BYTE		        An3 
	BYTE	W06
	BYTE		        Gn3 
	BYTE	W06
	BYTE		        Cn4 
	BYTE	W06
	BYTE	PEND
// 031   ----------------------------------------
PokemonSunandMoonVastPoniCanyonSme_3_031:
	BYTE	W12
	BYTE		N05     An3   v100
	BYTE	W06
	BYTE		        Gn3 
	BYTE	W06
	BYTE		        An3 
	BYTE	W06
	BYTE		        Cn4 
	BYTE	W06
	BYTE		        Dn4 
	BYTE	W06
	BYTE		        Ds4 
	BYTE	W06
	BYTE		        Dn4 
	BYTE	W06
	BYTE		        Cn4 
	BYTE	W06
	BYTE		        An3 
	BYTE	W06
	BYTE		        En3 
	BYTE	W06
	BYTE		        Gn3 
	BYTE	W06
	BYTE		N17     An3 
	BYTE	W18
	BYTE	PEND
// 032   ----------------------------------------
	BYTE	W96
// 033   ----------------------------------------
	BYTE	W96
// 034   ----------------------------------------
PokemonSunandMoonVastPoniCanyonSme_3_034:
	BYTE	W12
	BYTE		N05     Gn4   v096
	BYTE	W06
	BYTE		        An4 
	BYTE	W12
	BYTE		        Dn4 
	BYTE	W06
	BYTE		        En4 
	BYTE	W12
	BYTE		        Gn4 
	BYTE	W06
	BYTE		        An4 
	BYTE	W06
	BYTE		        Cn5 
	BYTE	W06
	BYTE		        Bn4 
	BYTE	W12
	BYTE		        Gn4 
	BYTE	W06
	BYTE		        An4 
	BYTE	W12
	BYTE	PEND
// 035   ----------------------------------------
PokemonSunandMoonVastPoniCanyonSme_3_035:
	BYTE		N05     Dn4   v096
	BYTE	W06
	BYTE		        En4 
	BYTE	W12
	BYTE		        Gn4 
	BYTE	W06
	BYTE		        An4 
	BYTE	W06
	BYTE		        Cn5 
	BYTE	W06
	BYTE		        Bn4 
	BYTE	W06
	BYTE		        Gn4 
	BYTE	W12
	BYTE		        An4 
	BYTE	W06
	BYTE		        Gn4 
	BYTE	W12
	BYTE		        An4 
	BYTE	W06
	BYTE		        En4 
	BYTE	W18
	BYTE	PEND
// 036   ----------------------------------------
	BYTE	PATT
	 POIN2	PokemonSunandMoonVastPoniCanyonSme_3_034
// 037   ----------------------------------------
	BYTE	PATT
	 POIN2	PokemonSunandMoonVastPoniCanyonSme_3_035
// 038   ----------------------------------------
	BYTE	PATT
	 POIN2	PokemonSunandMoonVastPoniCanyonSme_3_002
// 039   ----------------------------------------
	BYTE	PATT
	 POIN2	PokemonSunandMoonVastPoniCanyonSme_3_001
// 040   ----------------------------------------
	BYTE	PATT
	 POIN2	PokemonSunandMoonVastPoniCanyonSme_3_002
// 041   ----------------------------------------
	BYTE	PATT
	 POIN2	PokemonSunandMoonVastPoniCanyonSme_3_001
// 042   ----------------------------------------
	BYTE	PATT
	 POIN2	PokemonSunandMoonVastPoniCanyonSme_3_002
// 043   ----------------------------------------
	BYTE	PATT
	 POIN2	PokemonSunandMoonVastPoniCanyonSme_3_001
// 044   ----------------------------------------
	BYTE	PATT
	 POIN2	PokemonSunandMoonVastPoniCanyonSme_3_002
// 045   ----------------------------------------
	BYTE	PATT
	 POIN2	PokemonSunandMoonVastPoniCanyonSme_3_001
// 046   ----------------------------------------
	BYTE	PATT
	 POIN2	PokemonSunandMoonVastPoniCanyonSme_3_002
// 047   ----------------------------------------
	BYTE	PATT
	 POIN2	PokemonSunandMoonVastPoniCanyonSme_3_001
// 048   ----------------------------------------
	BYTE	PATT
	 POIN2	PokemonSunandMoonVastPoniCanyonSme_3_002
// 049   ----------------------------------------
	BYTE	PATT
	 POIN2	PokemonSunandMoonVastPoniCanyonSme_3_001
// 050   ----------------------------------------
	BYTE	W96
// 051   ----------------------------------------
	BYTE	W96
// 052   ----------------------------------------
	BYTE	PATT
	 POIN2	PokemonSunandMoonVastPoniCanyonSme_3_018
// 053   ----------------------------------------
	BYTE	W96
// 054   ----------------------------------------
	BYTE	W96
// 055   ----------------------------------------
	BYTE	W96
// 056   ----------------------------------------
	BYTE	W96
// 057   ----------------------------------------
	BYTE	W96
// 058   ----------------------------------------
	BYTE	W96
// 059   ----------------------------------------
	BYTE	W96
// 060   ----------------------------------------
	BYTE	PATT
	 POIN2	PokemonSunandMoonVastPoniCanyonSme_3_026
// 061   ----------------------------------------
	BYTE	PATT
	 POIN2	PokemonSunandMoonVastPoniCanyonSme_3_027
// 062   ----------------------------------------
	BYTE	PATT
	 POIN2	PokemonSunandMoonVastPoniCanyonSme_3_028
// 063   ----------------------------------------
	BYTE	PATT
	 POIN2	PokemonSunandMoonVastPoniCanyonSme_3_029
// 064   ----------------------------------------
	BYTE	PATT
	 POIN2	PokemonSunandMoonVastPoniCanyonSme_3_030
// 065   ----------------------------------------
	BYTE	PATT
	 POIN2	PokemonSunandMoonVastPoniCanyonSme_3_031
// 066   ----------------------------------------
	BYTE	W96
// 067   ----------------------------------------
	BYTE	W96
// 068   ----------------------------------------
	BYTE	PATT
	 POIN2	PokemonSunandMoonVastPoniCanyonSme_3_034
// 069   ----------------------------------------
	BYTE	PATT
	 POIN2	PokemonSunandMoonVastPoniCanyonSme_3_035
// 070   ----------------------------------------
	BYTE	PATT
	 POIN2	PokemonSunandMoonVastPoniCanyonSme_3_034
// 071   ----------------------------------------
	BYTE	PATT
	 POIN2	PokemonSunandMoonVastPoniCanyonSme_3_035
	BYTE	GoTo
	 POIN2	PokemonSunandMoonVastPoniCanyonSme_3_B1
PokemonSunandMoonVastPoniCanyonSme_3_B2:
// 072   ----------------------------------------
	BYTE		N05     En4   v096
	BYTE	W06
	BYTE		N05   
	BYTE	W12
	BYTE		N05   
	BYTE	W06
	BYTE		N05   
	BYTE	W12
	BYTE		N05   
	BYTE	W06
	BYTE		N05   
	BYTE	W05
	BYTE	FINE

//**************** Track 4 (Midi-Chn.4) ****************//

PokemonSunandMoonVastPoniCanyonSme_4:
	BYTE	KEYSH   PokemonSunandMoonVastPoniCanyonSme_key+0
// 000   ----------------------------------------
	BYTE		VOICE   71
	BYTE		VOL     100*PokemonSunandMoonVastPoniCanyonSme_mvl/mxv
	BYTE		PAN     c_v+0
	BYTE	W12
	BYTE		N05     Dn4   v096
	BYTE	W06
	BYTE		        En4 
	BYTE	W12
	BYTE		        An3 
	BYTE	W06
	BYTE		        Bn3 
	BYTE	W12
	BYTE		        Dn4 
	BYTE	W06
	BYTE		        En4 
	BYTE	W06
	BYTE		        Gn4 
	BYTE	W06
	BYTE		        Fs4 
	BYTE	W12
	BYTE		        Dn4 
	BYTE	W06
	BYTE		        En4 
	BYTE	W12
// 001   ----------------------------------------
PokemonSunandMoonVastPoniCanyonSme_4_001:
	BYTE		N05     An3   v096
	BYTE	W06
	BYTE		        Bn3 
	BYTE	W12
	BYTE		        Dn4 
	BYTE	W06
	BYTE		        En4 
	BYTE	W06
	BYTE		        Gn4 
	BYTE	W06
	BYTE		        Fs4 
	BYTE	W06
	BYTE		        Dn4 
	BYTE	W12
	BYTE		        En4 
	BYTE	W06
	BYTE		        Dn4 
	BYTE	W12
	BYTE		        En4 
	BYTE	W06
	BYTE		        Bn3 
	BYTE	W18
	BYTE	PEND
// 002   ----------------------------------------
PokemonSunandMoonVastPoniCanyonSme_4_002:
	BYTE	W12
	BYTE		N05     Dn4   v096
	BYTE	W06
	BYTE		        En4 
	BYTE	W12
	BYTE		        An3 
	BYTE	W06
	BYTE		        Bn3 
	BYTE	W12
	BYTE		        Dn4 
	BYTE	W06
	BYTE		        En4 
	BYTE	W06
	BYTE		        Gn4 
	BYTE	W06
	BYTE		        Fs4 
	BYTE	W12
	BYTE		        Dn4 
	BYTE	W06
	BYTE		        En4 
	BYTE	W12
	BYTE	PEND
// 003   ----------------------------------------
	BYTE	PATT
	 POIN2	PokemonSunandMoonVastPoniCanyonSme_4_001
// 004   ----------------------------------------
	BYTE	PATT
	 POIN2	PokemonSunandMoonVastPoniCanyonSme_4_002
// 005   ----------------------------------------
	BYTE	PATT
	 POIN2	PokemonSunandMoonVastPoniCanyonSme_4_001
// 006   ----------------------------------------
	BYTE	PATT
	 POIN2	PokemonSunandMoonVastPoniCanyonSme_4_002
// 007   ----------------------------------------
	BYTE	PATT
	 POIN2	PokemonSunandMoonVastPoniCanyonSme_4_001
// 008   ----------------------------------------
	BYTE	PATT
	 POIN2	PokemonSunandMoonVastPoniCanyonSme_4_002
// 009   ----------------------------------------
	BYTE	PATT
	 POIN2	PokemonSunandMoonVastPoniCanyonSme_4_001
// 010   ----------------------------------------
	BYTE	PATT
	 POIN2	PokemonSunandMoonVastPoniCanyonSme_4_002
// 011   ----------------------------------------
	BYTE	PATT
	 POIN2	PokemonSunandMoonVastPoniCanyonSme_4_001
// 012   ----------------------------------------
	BYTE	PATT
	 POIN2	PokemonSunandMoonVastPoniCanyonSme_4_002
// 013   ----------------------------------------
	BYTE	PATT
	 POIN2	PokemonSunandMoonVastPoniCanyonSme_4_001
// 014   ----------------------------------------
	BYTE	PATT
	 POIN2	PokemonSunandMoonVastPoniCanyonSme_4_002
// 015   ----------------------------------------
	BYTE	PATT
	 POIN2	PokemonSunandMoonVastPoniCanyonSme_4_001
PokemonSunandMoonVastPoniCanyonSme_4_B1:
// 016   ----------------------------------------
	BYTE	W96
// 017   ----------------------------------------
	BYTE	W96
// 018   ----------------------------------------
	BYTE	W96
// 019   ----------------------------------------
	BYTE	W96
// 020   ----------------------------------------
	BYTE	W96
// 021   ----------------------------------------
	BYTE	W96
// 022   ----------------------------------------
	BYTE	W96
// 023   ----------------------------------------
	BYTE	W96
// 024   ----------------------------------------
PokemonSunandMoonVastPoniCanyonSme_4_024:
	BYTE	W12
	BYTE		N05     Gn3   v100
	BYTE	W12
	BYTE		        Cn4 
	BYTE	W06
	BYTE		        Gn3 
	BYTE	W12
	BYTE		N11     Cn4 
	BYTE	W12
	BYTE		N05   
	BYTE	W06
	BYTE		        Gn3 
	BYTE	W12
	BYTE		        Cn4 
	BYTE	W06
	BYTE		        Cs4 
	BYTE	W06
	BYTE		        Dn4 
	BYTE	W06
	BYTE		N17     En4 
	BYTE	W06
	BYTE	PEND
// 025   ----------------------------------------
PokemonSunandMoonVastPoniCanyonSme_4_025:
	BYTE	W12
	BYTE		N05     Fn4   v100
	BYTE	W12
	BYTE		        Gn4 
	BYTE	W06
	BYTE		        An4 
	BYTE	W12
	BYTE		N17     Gn4 
	BYTE	W18
	BYTE		N05   
	BYTE	W06
	BYTE		        An4 
	BYTE	W12
	BYTE		N02   
	BYTE	W03
	BYTE		        Gn4 
	BYTE	W03
	BYTE		        Fn4 
	BYTE	W03
	BYTE		        En4 
	BYTE	W03
	BYTE		        Dn4 
	BYTE	W03
	BYTE		        Cn4 
	BYTE	W03
	BYTE	PEND
// 026   ----------------------------------------
PokemonSunandMoonVastPoniCanyonSme_4_026:
	BYTE		N08     Bn3   v100
	BYTE	W18
	BYTE		N05   
	BYTE	W78
	BYTE	PEND
// 027   ----------------------------------------
	BYTE	W96
// 028   ----------------------------------------
PokemonSunandMoonVastPoniCanyonSme_4_028:
	BYTE		N08     Bn4   v100
	BYTE	W18
	BYTE		N05   
	BYTE	W78
	BYTE	PEND
// 029   ----------------------------------------
	BYTE	W96
// 030   ----------------------------------------
PokemonSunandMoonVastPoniCanyonSme_4_030:
	BYTE		N11     Cn5   v100
	BYTE	W36
	BYTE		N05     Bn4 
	BYTE	W36
	BYTE		N11     An4 
	BYTE	W24
	BYTE	PEND
// 031   ----------------------------------------
PokemonSunandMoonVastPoniCanyonSme_4_031:
	BYTE	W12
	BYTE		N05     Cn5   v100
	BYTE	W36
	BYTE		        Dn5 
	BYTE	W06
	BYTE		N08   
	BYTE	W18
	BYTE		N05   
	BYTE	W06
	BYTE		N08   
	BYTE	W18
	BYTE	PEND
// 032   ----------------------------------------
	BYTE	W96
// 033   ----------------------------------------
	BYTE	W96
// 034   ----------------------------------------
PokemonSunandMoonVastPoniCanyonSme_4_034:
	BYTE	W12
	BYTE		N05     Gn4   v096
	BYTE	W06
	BYTE		        An4 
	BYTE	W12
	BYTE		        Dn4 
	BYTE	W06
	BYTE		        En4 
	BYTE	W12
	BYTE		        Gn4 
	BYTE	W06
	BYTE		        An4 
	BYTE	W06
	BYTE		        Cn5 
	BYTE	W06
	BYTE		        Bn4 
	BYTE	W12
	BYTE		        Gn4 
	BYTE	W06
	BYTE		        An4 
	BYTE	W12
	BYTE	PEND
// 035   ----------------------------------------
PokemonSunandMoonVastPoniCanyonSme_4_035:
	BYTE		N05     Dn4   v096
	BYTE	W06
	BYTE		        En4 
	BYTE	W12
	BYTE		        Gn4 
	BYTE	W06
	BYTE		        An4 
	BYTE	W06
	BYTE		        Cn5 
	BYTE	W06
	BYTE		        Bn4 
	BYTE	W06
	BYTE		        Gn4 
	BYTE	W12
	BYTE		        An4 
	BYTE	W06
	BYTE		        Gn4 
	BYTE	W12
	BYTE		        An4 
	BYTE	W06
	BYTE		        En4 
	BYTE	W18
	BYTE	PEND
// 036   ----------------------------------------
	BYTE	PATT
	 POIN2	PokemonSunandMoonVastPoniCanyonSme_4_034
// 037   ----------------------------------------
	BYTE	PATT
	 POIN2	PokemonSunandMoonVastPoniCanyonSme_4_035
// 038   ----------------------------------------
	BYTE	PATT
	 POIN2	PokemonSunandMoonVastPoniCanyonSme_4_002
// 039   ----------------------------------------
	BYTE	PATT
	 POIN2	PokemonSunandMoonVastPoniCanyonSme_4_001
// 040   ----------------------------------------
	BYTE	PATT
	 POIN2	PokemonSunandMoonVastPoniCanyonSme_4_002
// 041   ----------------------------------------
	BYTE	PATT
	 POIN2	PokemonSunandMoonVastPoniCanyonSme_4_001
// 042   ----------------------------------------
	BYTE	PATT
	 POIN2	PokemonSunandMoonVastPoniCanyonSme_4_002
// 043   ----------------------------------------
	BYTE	PATT
	 POIN2	PokemonSunandMoonVastPoniCanyonSme_4_001
// 044   ----------------------------------------
	BYTE	PATT
	 POIN2	PokemonSunandMoonVastPoniCanyonSme_4_002
// 045   ----------------------------------------
	BYTE	PATT
	 POIN2	PokemonSunandMoonVastPoniCanyonSme_4_001
// 046   ----------------------------------------
	BYTE	PATT
	 POIN2	PokemonSunandMoonVastPoniCanyonSme_4_002
// 047   ----------------------------------------
	BYTE	PATT
	 POIN2	PokemonSunandMoonVastPoniCanyonSme_4_001
// 048   ----------------------------------------
	BYTE	PATT
	 POIN2	PokemonSunandMoonVastPoniCanyonSme_4_002
// 049   ----------------------------------------
	BYTE	PATT
	 POIN2	PokemonSunandMoonVastPoniCanyonSme_4_001
// 050   ----------------------------------------
	BYTE	W96
// 051   ----------------------------------------
	BYTE	W96
// 052   ----------------------------------------
	BYTE	W96
// 053   ----------------------------------------
	BYTE	W96
// 054   ----------------------------------------
	BYTE	W96
// 055   ----------------------------------------
	BYTE	W96
// 056   ----------------------------------------
	BYTE	W96
// 057   ----------------------------------------
	BYTE	W96
// 058   ----------------------------------------
	BYTE	PATT
	 POIN2	PokemonSunandMoonVastPoniCanyonSme_4_024
// 059   ----------------------------------------
	BYTE	PATT
	 POIN2	PokemonSunandMoonVastPoniCanyonSme_4_025
// 060   ----------------------------------------
	BYTE	PATT
	 POIN2	PokemonSunandMoonVastPoniCanyonSme_4_026
// 061   ----------------------------------------
	BYTE	W96
// 062   ----------------------------------------
	BYTE	PATT
	 POIN2	PokemonSunandMoonVastPoniCanyonSme_4_028
// 063   ----------------------------------------
	BYTE	W96
// 064   ----------------------------------------
	BYTE	PATT
	 POIN2	PokemonSunandMoonVastPoniCanyonSme_4_030
// 065   ----------------------------------------
	BYTE	PATT
	 POIN2	PokemonSunandMoonVastPoniCanyonSme_4_031
// 066   ----------------------------------------
	BYTE	W96
// 067   ----------------------------------------
	BYTE	W96
// 068   ----------------------------------------
	BYTE	PATT
	 POIN2	PokemonSunandMoonVastPoniCanyonSme_4_034
// 069   ----------------------------------------
	BYTE	PATT
	 POIN2	PokemonSunandMoonVastPoniCanyonSme_4_035
// 070   ----------------------------------------
	BYTE	PATT
	 POIN2	PokemonSunandMoonVastPoniCanyonSme_4_034
// 071   ----------------------------------------
	BYTE	PATT
	 POIN2	PokemonSunandMoonVastPoniCanyonSme_4_035
	BYTE	GoTo
	 POIN2	PokemonSunandMoonVastPoniCanyonSme_4_B1
PokemonSunandMoonVastPoniCanyonSme_4_B2:
// 072   ----------------------------------------
	BYTE		N05     An4   v096
	BYTE	W06
	BYTE		N05   
	BYTE	W12
	BYTE		N05   
	BYTE	W06
	BYTE		N05   
	BYTE	W12
	BYTE		N05   
	BYTE	W06
	BYTE		N05   
	BYTE	W05
	BYTE	FINE

//**************** Track 5 (Midi-Chn.5) ****************//

PokemonSunandMoonVastPoniCanyonSme_5:
	BYTE	KEYSH   PokemonSunandMoonVastPoniCanyonSme_key+0
// 000   ----------------------------------------
	BYTE		VOICE   71
	BYTE		VOL     100*PokemonSunandMoonVastPoniCanyonSme_mvl/mxv
	BYTE		PAN     c_v+0
	BYTE		TIE     En4   v096
	BYTE		TIE     An4 
	BYTE	W96
// 001   ----------------------------------------
	BYTE	W92
	BYTE	W03
	BYTE		EOT     En4 
	BYTE		        An4 
	BYTE	W01
// 002   ----------------------------------------
	BYTE		TIE     Dn4 
	BYTE		TIE     Gn4 
	BYTE	W96
// 003   ----------------------------------------
	BYTE	W92
	BYTE	W03
	BYTE		EOT     Dn4 
	BYTE		        Gn4 
	BYTE	W01
// 004   ----------------------------------------
PokemonSunandMoonVastPoniCanyonSme_5_004:
	BYTE		N44     Cn4   v096
	BYTE		N44     Fn4 
	BYTE	W48
	BYTE		        En4 
	BYTE		N44     Gs4 
	BYTE	W48
	BYTE	PEND
// 005   ----------------------------------------
	BYTE		N92     Dn4 
	BYTE		N92     Gn4 
	BYTE	W96
// 006   ----------------------------------------
	BYTE	PATT
	 POIN2	PokemonSunandMoonVastPoniCanyonSme_5_004
// 007   ----------------------------------------
	BYTE		N92     Dn4   v096
	BYTE		N92     Gn4 
	BYTE	W96
// 008   ----------------------------------------
PokemonSunandMoonVastPoniCanyonSme_5_008:
	BYTE	W12
	BYTE		N05     Fn4   v100
	BYTE		N05     An4 
	BYTE	W18
	BYTE		N08     Fn4 
	BYTE		N08     An4 
	BYTE	W30
	BYTE		N05     En4 
	BYTE		N05     Gs4 
	BYTE		N05     Bn4 
	BYTE	W18
	BYTE		N17     En4 
	BYTE		N17     Gs4 
	BYTE		N17     Bn4 
	BYTE	W18
	BYTE	PEND
// 009   ----------------------------------------
PokemonSunandMoonVastPoniCanyonSme_5_009:
	BYTE	W12
	BYTE		N05     En4   v100
	BYTE		N05     An4 
	BYTE	W06
	BYTE		        En4 
	BYTE		N05     An4 
	BYTE	W18
	BYTE		        En4 
	BYTE		N05     An4 
	BYTE	W06
	BYTE		        En4 
	BYTE		N05     An4 
	BYTE	W12
	BYTE		        En4 
	BYTE		N05     Gn4 
	BYTE	W12
	BYTE		        En4 
	BYTE		N05     An4 
	BYTE	W30
	BYTE	PEND
// 010   ----------------------------------------
PokemonSunandMoonVastPoniCanyonSme_5_010:
	BYTE	W12
	BYTE		N05     Fn4   v100
	BYTE		N05     An4 
	BYTE	W06
	BYTE		        Fn4 
	BYTE		N05     An4 
	BYTE	W12
	BYTE		N08     En4 
	BYTE	W18
	BYTE		N05     Gs4 
	BYTE		N05     Bn4 
	BYTE	W06
	BYTE		        Gs4 
	BYTE		N05     Bn4 
	BYTE	W12
	BYTE		N05   
	BYTE	W12
	BYTE		        Gs4 
	BYTE		N05     Bn4 
	BYTE	W06
	BYTE		N11     An4 
	BYTE		N11     Cn5 
	BYTE	W12
	BYTE	PEND
// 011   ----------------------------------------
	BYTE	PATT
	 POIN2	PokemonSunandMoonVastPoniCanyonSme_5_009
// 012   ----------------------------------------
	BYTE	PATT
	 POIN2	PokemonSunandMoonVastPoniCanyonSme_5_008
// 013   ----------------------------------------
PokemonSunandMoonVastPoniCanyonSme_5_013:
	BYTE	W12
	BYTE		N05     En4   v100
	BYTE		N05     An4 
	BYTE	W06
	BYTE		        En4 
	BYTE		N05     An4 
	BYTE	W18
	BYTE		        En4 
	BYTE		N05     An4 
	BYTE	W06
	BYTE		        En4 
	BYTE		N05     An4 
	BYTE	W12
	BYTE		        En4 
	BYTE		N05     Gn4 
	BYTE	W12
	BYTE		        En4 
	BYTE		N05     An4 
	BYTE	W06
	BYTE		N05   
	BYTE	W06
	BYTE		        Gn4 
	BYTE	W12
	BYTE		        Fn4 
	BYTE	W06
	BYTE	PEND
// 014   ----------------------------------------
	BYTE	PATT
	 POIN2	PokemonSunandMoonVastPoniCanyonSme_5_010
// 015   ----------------------------------------
	BYTE	PATT
	 POIN2	PokemonSunandMoonVastPoniCanyonSme_5_009
PokemonSunandMoonVastPoniCanyonSme_5_B1:
// 016   ----------------------------------------
	BYTE	W96
// 017   ----------------------------------------
	BYTE	W96
// 018   ----------------------------------------
	BYTE	W96
// 019   ----------------------------------------
	BYTE	W96
// 020   ----------------------------------------
	BYTE	W96
// 021   ----------------------------------------
	BYTE	W96
// 022   ----------------------------------------
	BYTE	W96
// 023   ----------------------------------------
	BYTE	W96
// 024   ----------------------------------------
	BYTE	W12
	BYTE		N05     Dn3   v100
	BYTE		N05     Gn3 
	BYTE	W12
	BYTE		        Dn3 
	BYTE		N05     Cn4 
	BYTE	W06
	BYTE		        Dn3 
	BYTE		N05     Gn3 
	BYTE	W12
	BYTE		N11     Dn3 
	BYTE		N11     Cn4 
	BYTE	W12
	BYTE		N05     Dn3 
	BYTE		N05     Cn4 
	BYTE	W06
	BYTE		        Dn3 
	BYTE		N05     Gn3 
	BYTE	W12
	BYTE		        Cn4 
	BYTE	W06
	BYTE		        Cs4 
	BYTE	W06
	BYTE		        Dn4 
	BYTE	W06
	BYTE		N17     En4 
	BYTE	W06
// 025   ----------------------------------------
PokemonSunandMoonVastPoniCanyonSme_5_025:
	BYTE	W12
	BYTE		N05     Fn4   v100
	BYTE	W12
	BYTE		        Gn4 
	BYTE	W06
	BYTE		        An4 
	BYTE	W12
	BYTE		N17     Cn4 
	BYTE		N17     Dn4 
	BYTE	W18
	BYTE		N05     Gn4 
	BYTE	W06
	BYTE		        An4 
	BYTE	W12
	BYTE		N02     En4 
	BYTE	W03
	BYTE		        Dn4 
	BYTE	W03
	BYTE		        Cn4 
	BYTE	W03
	BYTE		        Bn3 
	BYTE	W03
	BYTE		        An3 
	BYTE	W03
	BYTE		        Gn3 
	BYTE	W03
	BYTE	PEND
// 026   ----------------------------------------
PokemonSunandMoonVastPoniCanyonSme_5_026:
	BYTE		N08     Gn3   v100
	BYTE	W18
	BYTE		N05   
	BYTE	W78
	BYTE	PEND
// 027   ----------------------------------------
	BYTE	W96
// 028   ----------------------------------------
PokemonSunandMoonVastPoniCanyonSme_5_028:
	BYTE		N08     Gn4   v100
	BYTE	W18
	BYTE		N05   
	BYTE	W78
	BYTE	PEND
// 029   ----------------------------------------
	BYTE	W96
// 030   ----------------------------------------
PokemonSunandMoonVastPoniCanyonSme_5_030:
	BYTE		N11     En4   v100
	BYTE		N11     An4 
	BYTE	W36
	BYTE		N05     En4 
	BYTE		N05     Gn4 
	BYTE	W36
	BYTE		N11     Dn4 
	BYTE		N11     Fn4 
	BYTE	W24
	BYTE	PEND
// 031   ----------------------------------------
PokemonSunandMoonVastPoniCanyonSme_5_031:
	BYTE	W12
	BYTE		N05     Fn4   v100
	BYTE		N05     An4 
	BYTE	W36
	BYTE		        Gn4 
	BYTE		N05     Bn4 
	BYTE	W06
	BYTE		N08     Gn4 
	BYTE		N08     Bn4 
	BYTE	W18
	BYTE		N05     Gn4 
	BYTE		N05     Bn4 
	BYTE	W06
	BYTE		N08     Gn4 
	BYTE		N08     Bn4 
	BYTE	W18
	BYTE	PEND
// 032   ----------------------------------------
	BYTE	W96
// 033   ----------------------------------------
	BYTE	W96
// 034   ----------------------------------------
PokemonSunandMoonVastPoniCanyonSme_5_034:
	BYTE	W12
	BYTE		N05     Dn4   v096
	BYTE	W06
	BYTE		        En4 
	BYTE	W12
	BYTE		        An3 
	BYTE	W06
	BYTE		        Bn3 
	BYTE	W12
	BYTE		        Dn4 
	BYTE	W06
	BYTE		        En4 
	BYTE	W06
	BYTE		        Gn4 
	BYTE	W06
	BYTE		        Fs4 
	BYTE	W12
	BYTE		        Dn4 
	BYTE	W06
	BYTE		        En4 
	BYTE	W12
	BYTE	PEND
// 035   ----------------------------------------
PokemonSunandMoonVastPoniCanyonSme_5_035:
	BYTE		N05     An3   v096
	BYTE	W06
	BYTE		        Bn3 
	BYTE	W12
	BYTE		        Dn4 
	BYTE	W06
	BYTE		        En4 
	BYTE	W06
	BYTE		        Gn4 
	BYTE	W06
	BYTE		        Fs4 
	BYTE	W06
	BYTE		        Dn4 
	BYTE	W12
	BYTE		        En4 
	BYTE	W06
	BYTE		        Dn4 
	BYTE	W12
	BYTE		        En4 
	BYTE	W06
	BYTE		        Bn3 
	BYTE	W18
	BYTE	PEND
// 036   ----------------------------------------
	BYTE	PATT
	 POIN2	PokemonSunandMoonVastPoniCanyonSme_5_034
// 037   ----------------------------------------
	BYTE	PATT
	 POIN2	PokemonSunandMoonVastPoniCanyonSme_5_035
// 038   ----------------------------------------
	BYTE	PATT
	 POIN2	PokemonSunandMoonVastPoniCanyonSme_5_004
// 039   ----------------------------------------
	BYTE		N92     Dn4   v096
	BYTE		N92     Gn4 
	BYTE	W96
// 040   ----------------------------------------
	BYTE	PATT
	 POIN2	PokemonSunandMoonVastPoniCanyonSme_5_004
// 041   ----------------------------------------
	BYTE		N92     Dn4   v096
	BYTE		N92     Gn4 
	BYTE	W96
// 042   ----------------------------------------
	BYTE	PATT
	 POIN2	PokemonSunandMoonVastPoniCanyonSme_5_008
// 043   ----------------------------------------
	BYTE	PATT
	 POIN2	PokemonSunandMoonVastPoniCanyonSme_5_009
// 044   ----------------------------------------
	BYTE	PATT
	 POIN2	PokemonSunandMoonVastPoniCanyonSme_5_010
// 045   ----------------------------------------
	BYTE	PATT
	 POIN2	PokemonSunandMoonVastPoniCanyonSme_5_009
// 046   ----------------------------------------
	BYTE	PATT
	 POIN2	PokemonSunandMoonVastPoniCanyonSme_5_008
// 047   ----------------------------------------
	BYTE	PATT
	 POIN2	PokemonSunandMoonVastPoniCanyonSme_5_013
// 048   ----------------------------------------
	BYTE	PATT
	 POIN2	PokemonSunandMoonVastPoniCanyonSme_5_010
// 049   ----------------------------------------
	BYTE	PATT
	 POIN2	PokemonSunandMoonVastPoniCanyonSme_5_009
// 050   ----------------------------------------
	BYTE	W96
// 051   ----------------------------------------
	BYTE	W96
// 052   ----------------------------------------
	BYTE	W96
// 053   ----------------------------------------
	BYTE	W96
// 054   ----------------------------------------
	BYTE	W96
// 055   ----------------------------------------
	BYTE	W96
// 056   ----------------------------------------
	BYTE	W96
// 057   ----------------------------------------
	BYTE	W96
// 058   ----------------------------------------
	BYTE	W12
	BYTE		N05     Dn3   v100
	BYTE		N05     Gn3 
	BYTE	W12
	BYTE		        Dn3 
	BYTE		N05     Gn3 
	BYTE	W06
	BYTE		        Dn3 
	BYTE		N05     Gn3 
	BYTE	W12
	BYTE		N11     Dn3 
	BYTE		N11     Gn3 
	BYTE	W12
	BYTE		N05     Dn3 
	BYTE		N05     Gn3 
	BYTE	W06
	BYTE		        Dn3 
	BYTE		N05     Gn3 
	BYTE	W12
	BYTE		        Cn4 
	BYTE	W06
	BYTE		        Cs4 
	BYTE	W06
	BYTE		        Dn4 
	BYTE	W06
	BYTE		N17     En4 
	BYTE	W06
// 059   ----------------------------------------
	BYTE	PATT
	 POIN2	PokemonSunandMoonVastPoniCanyonSme_5_025
// 060   ----------------------------------------
	BYTE	PATT
	 POIN2	PokemonSunandMoonVastPoniCanyonSme_5_026
// 061   ----------------------------------------
	BYTE	W96
// 062   ----------------------------------------
	BYTE	PATT
	 POIN2	PokemonSunandMoonVastPoniCanyonSme_5_028
// 063   ----------------------------------------
	BYTE	W96
// 064   ----------------------------------------
	BYTE	PATT
	 POIN2	PokemonSunandMoonVastPoniCanyonSme_5_030
// 065   ----------------------------------------
	BYTE	PATT
	 POIN2	PokemonSunandMoonVastPoniCanyonSme_5_031
// 066   ----------------------------------------
	BYTE	W96
// 067   ----------------------------------------
	BYTE	W96
// 068   ----------------------------------------
	BYTE	PATT
	 POIN2	PokemonSunandMoonVastPoniCanyonSme_5_034
// 069   ----------------------------------------
	BYTE	PATT
	 POIN2	PokemonSunandMoonVastPoniCanyonSme_5_035
// 070   ----------------------------------------
	BYTE	PATT
	 POIN2	PokemonSunandMoonVastPoniCanyonSme_5_034
// 071   ----------------------------------------
	BYTE	PATT
	 POIN2	PokemonSunandMoonVastPoniCanyonSme_5_035
	BYTE	GoTo
	 POIN2	PokemonSunandMoonVastPoniCanyonSme_5_B1
PokemonSunandMoonVastPoniCanyonSme_5_B2:
// 072   ----------------------------------------
	BYTE		N05     Cn4   v096
	BYTE		N05     En4 
	BYTE	W06
	BYTE		        Cn4 
	BYTE		N05     En4 
	BYTE	W12
	BYTE		        Cn4 
	BYTE		N05     En4 
	BYTE	W06
	BYTE		        Cn4 
	BYTE		N05     En4 
	BYTE	W12
	BYTE		        Cn4 
	BYTE		N05     En4 
	BYTE	W06
	BYTE		        Cn4 
	BYTE		N05     En4 
	BYTE	W05
	BYTE	FINE

//**************** Track 6 (Midi-Chn.6) ****************//

PokemonSunandMoonVastPoniCanyonSme_6:
	BYTE	KEYSH   PokemonSunandMoonVastPoniCanyonSme_key+0
// 000   ----------------------------------------
	BYTE		VOICE   127
	BYTE		VOL     127*PokemonSunandMoonVastPoniCanyonSme_mvl/mxv
	BYTE		PAN     c_v+0
	BYTE	W96
// 001   ----------------------------------------
	BYTE	W96
// 002   ----------------------------------------
	BYTE	W96
// 003   ----------------------------------------
	BYTE	W60
	BYTE		N05     Fs1   v080
	BYTE	W06
	BYTE		N05   
	BYTE	W06
	BYTE		N05   
	BYTE	W06
	BYTE		N05   
	BYTE	W06
	BYTE		N05   
	BYTE	W06
	BYTE		N05   
	BYTE	W06
// 004   ----------------------------------------
PokemonSunandMoonVastPoniCanyonSme_6_004:
	BYTE		N11     Bn0   v096
	BYTE		N05     Fs1 
	BYTE	W06
	BYTE		N05   
	BYTE	W06
	BYTE		N05   
	BYTE	W06
	BYTE		N05   
	BYTE	W06
	BYTE		        Dn1 
	BYTE		N05     Fs1 
	BYTE	W06
	BYTE		N05   
	BYTE	W06
	BYTE		N05   
	BYTE	W06
	BYTE		N05   
	BYTE	W06
	BYTE		N11     Bn0 
	BYTE		N05     Fs1 
	BYTE	W06
	BYTE		N05   
	BYTE	W06
	BYTE		N05   
	BYTE	W06
	BYTE		N05   
	BYTE	W06
	BYTE		        Dn1 
	BYTE		N05     Fs1 
	BYTE	W06
	BYTE		N05   
	BYTE	W06
	BYTE		N05   
	BYTE	W06
	BYTE		N05   
	BYTE	W06
	BYTE	PEND
// 005   ----------------------------------------
	BYTE	PATT
	 POIN2	PokemonSunandMoonVastPoniCanyonSme_6_004
// 006   ----------------------------------------
	BYTE	PATT
	 POIN2	PokemonSunandMoonVastPoniCanyonSme_6_004
// 007   ----------------------------------------
	BYTE	PATT
	 POIN2	PokemonSunandMoonVastPoniCanyonSme_6_004
// 008   ----------------------------------------
	BYTE	PATT
	 POIN2	PokemonSunandMoonVastPoniCanyonSme_6_004
// 009   ----------------------------------------
	BYTE	PATT
	 POIN2	PokemonSunandMoonVastPoniCanyonSme_6_004
// 010   ----------------------------------------
	BYTE	PATT
	 POIN2	PokemonSunandMoonVastPoniCanyonSme_6_004
// 011   ----------------------------------------
	BYTE	PATT
	 POIN2	PokemonSunandMoonVastPoniCanyonSme_6_004
// 012   ----------------------------------------
	BYTE	PATT
	 POIN2	PokemonSunandMoonVastPoniCanyonSme_6_004
// 013   ----------------------------------------
	BYTE	PATT
	 POIN2	PokemonSunandMoonVastPoniCanyonSme_6_004
// 014   ----------------------------------------
	BYTE	PATT
	 POIN2	PokemonSunandMoonVastPoniCanyonSme_6_004
// 015   ----------------------------------------
	BYTE	PATT
	 POIN2	PokemonSunandMoonVastPoniCanyonSme_6_004
PokemonSunandMoonVastPoniCanyonSme_6_B1:
// 016   ----------------------------------------
	BYTE	PATT
	 POIN2	PokemonSunandMoonVastPoniCanyonSme_6_004
// 017   ----------------------------------------
	BYTE	PATT
	 POIN2	PokemonSunandMoonVastPoniCanyonSme_6_004
// 018   ----------------------------------------
	BYTE	PATT
	 POIN2	PokemonSunandMoonVastPoniCanyonSme_6_004
// 019   ----------------------------------------
	BYTE	PATT
	 POIN2	PokemonSunandMoonVastPoniCanyonSme_6_004
// 020   ----------------------------------------
	BYTE	PATT
	 POIN2	PokemonSunandMoonVastPoniCanyonSme_6_004
// 021   ----------------------------------------
	BYTE	PATT
	 POIN2	PokemonSunandMoonVastPoniCanyonSme_6_004
// 022   ----------------------------------------
	BYTE	PATT
	 POIN2	PokemonSunandMoonVastPoniCanyonSme_6_004
// 023   ----------------------------------------
	BYTE	PATT
	 POIN2	PokemonSunandMoonVastPoniCanyonSme_6_004
// 024   ----------------------------------------
	BYTE	PATT
	 POIN2	PokemonSunandMoonVastPoniCanyonSme_6_004
// 025   ----------------------------------------
	BYTE	PATT
	 POIN2	PokemonSunandMoonVastPoniCanyonSme_6_004
// 026   ----------------------------------------
PokemonSunandMoonVastPoniCanyonSme_6_026:
	BYTE		N11     Bn0   v096
	BYTE		N05     Dn1 
	BYTE		N05     Fs1 
	BYTE	W06
	BYTE		N05   
	BYTE	W06
	BYTE		N05   
	BYTE	W06
	BYTE		        Dn1 
	BYTE		N05     Fs1 
	BYTE	W06
	BYTE		N05   
	BYTE	W06
	BYTE		N05   
	BYTE	W06
	BYTE		        Dn1 
	BYTE		N05     Fs1 
	BYTE	W06
	BYTE		N05   
	BYTE	W06
	BYTE		N11     Bn0 
	BYTE		N05     Fs1 
	BYTE	W06
	BYTE		N05   
	BYTE	W06
	BYTE		N11     Bn0 
	BYTE		N05     Fs1 
	BYTE	W06
	BYTE		N05   
	BYTE	W06
	BYTE		        Dn1 
	BYTE		N05     Fs1 
	BYTE	W06
	BYTE		N05   
	BYTE		N05     Bn1 
	BYTE	W06
	BYTE		        Fs1 
	BYTE		N05     An1 
	BYTE	W06
	BYTE		        Fs1 
	BYTE	W06
	BYTE	PEND
// 027   ----------------------------------------
PokemonSunandMoonVastPoniCanyonSme_6_027:
	BYTE		N11     Bn0   v096
	BYTE		N05     Fs1 
	BYTE	W06
	BYTE		N05   
	BYTE	W06
	BYTE		N11     As1 
	BYTE	W12
	BYTE		N05     Dn1 
	BYTE		N05     Fs1 
	BYTE	W06
	BYTE		N05   
	BYTE	W06
	BYTE		N05   
	BYTE	W06
	BYTE		N05   
	BYTE	W06
	BYTE		N11     Bn0 
	BYTE		N05     Fs1 
	BYTE	W06
	BYTE		N05   
	BYTE	W06
	BYTE		N05   
	BYTE	W06
	BYTE		N05   
	BYTE	W06
	BYTE		        Dn1 
	BYTE		N05     Fs1 
	BYTE	W06
	BYTE		N05   
	BYTE		N05     Bn1 
	BYTE	W06
	BYTE		        Fs1 
	BYTE		N05     An1 
	BYTE	W06
	BYTE		        Fs1 
	BYTE	W06
	BYTE	PEND
// 028   ----------------------------------------
	BYTE	PATT
	 POIN2	PokemonSunandMoonVastPoniCanyonSme_6_026
// 029   ----------------------------------------
	BYTE	PATT
	 POIN2	PokemonSunandMoonVastPoniCanyonSme_6_027
// 030   ----------------------------------------
PokemonSunandMoonVastPoniCanyonSme_6_030:
	BYTE		N11     Bn0   v096
	BYTE		N11     Gn2 
	BYTE	W12
	BYTE		N05     Fs1 
	BYTE	W06
	BYTE		N05   
	BYTE	W06
	BYTE		        Dn1 
	BYTE		N05     Fs1 
	BYTE	W06
	BYTE		N05   
	BYTE	W06
	BYTE		N11     Gn2 
	BYTE	W12
	BYTE		        Bn0 
	BYTE		N05     Fs1 
	BYTE	W06
	BYTE		N05   
	BYTE	W06
	BYTE		N05   
	BYTE	W06
	BYTE		N05   
	BYTE	W06
	BYTE		        Dn1 
	BYTE		N05     Fs1 
	BYTE	W06
	BYTE		N05   
	BYTE	W06
	BYTE		N11     Gn2 
	BYTE	W12
	BYTE	PEND
// 031   ----------------------------------------
PokemonSunandMoonVastPoniCanyonSme_6_031:
	BYTE		N11     Bn0   v096
	BYTE		N05     Fs1 
	BYTE	W06
	BYTE		N05   
	BYTE	W06
	BYTE		N11     Gn2 
	BYTE	W12
	BYTE		N05     Dn1 
	BYTE		N05     Fs1 
	BYTE	W06
	BYTE		N05   
	BYTE	W06
	BYTE		N05   
	BYTE	W06
	BYTE		N05   
	BYTE	W06
	BYTE		N11     Bn0 
	BYTE		N05     Fs1 
	BYTE	W06
	BYTE		N05   
	BYTE	W06
	BYTE		N11     Gn2 
	BYTE	W12
	BYTE		N05     Dn1 
	BYTE		N05     Fs1 
	BYTE	W06
	BYTE		N11     Gn2 
	BYTE	W12
	BYTE		N05     Fs1 
	BYTE	W06
	BYTE	PEND
// 032   ----------------------------------------
	BYTE	PATT
	 POIN2	PokemonSunandMoonVastPoniCanyonSme_6_004
// 033   ----------------------------------------
	BYTE	PATT
	 POIN2	PokemonSunandMoonVastPoniCanyonSme_6_004
// 034   ----------------------------------------
	BYTE	PATT
	 POIN2	PokemonSunandMoonVastPoniCanyonSme_6_004
// 035   ----------------------------------------
	BYTE	PATT
	 POIN2	PokemonSunandMoonVastPoniCanyonSme_6_004
// 036   ----------------------------------------
	BYTE	PATT
	 POIN2	PokemonSunandMoonVastPoniCanyonSme_6_004
// 037   ----------------------------------------
	BYTE	PATT
	 POIN2	PokemonSunandMoonVastPoniCanyonSme_6_004
// 038   ----------------------------------------
	BYTE	PATT
	 POIN2	PokemonSunandMoonVastPoniCanyonSme_6_004
// 039   ----------------------------------------
	BYTE	PATT
	 POIN2	PokemonSunandMoonVastPoniCanyonSme_6_004
// 040   ----------------------------------------
	BYTE	PATT
	 POIN2	PokemonSunandMoonVastPoniCanyonSme_6_004
// 041   ----------------------------------------
	BYTE	PATT
	 POIN2	PokemonSunandMoonVastPoniCanyonSme_6_004
// 042   ----------------------------------------
	BYTE	PATT
	 POIN2	PokemonSunandMoonVastPoniCanyonSme_6_004
// 043   ----------------------------------------
	BYTE	PATT
	 POIN2	PokemonSunandMoonVastPoniCanyonSme_6_004
// 044   ----------------------------------------
	BYTE	PATT
	 POIN2	PokemonSunandMoonVastPoniCanyonSme_6_004
// 045   ----------------------------------------
	BYTE	PATT
	 POIN2	PokemonSunandMoonVastPoniCanyonSme_6_004
// 046   ----------------------------------------
	BYTE	PATT
	 POIN2	PokemonSunandMoonVastPoniCanyonSme_6_004
// 047   ----------------------------------------
	BYTE	PATT
	 POIN2	PokemonSunandMoonVastPoniCanyonSme_6_004
// 048   ----------------------------------------
	BYTE	PATT
	 POIN2	PokemonSunandMoonVastPoniCanyonSme_6_004
// 049   ----------------------------------------
	BYTE	PATT
	 POIN2	PokemonSunandMoonVastPoniCanyonSme_6_004
// 050   ----------------------------------------
	BYTE	PATT
	 POIN2	PokemonSunandMoonVastPoniCanyonSme_6_004
// 051   ----------------------------------------
	BYTE	PATT
	 POIN2	PokemonSunandMoonVastPoniCanyonSme_6_004
// 052   ----------------------------------------
	BYTE	PATT
	 POIN2	PokemonSunandMoonVastPoniCanyonSme_6_004
// 053   ----------------------------------------
	BYTE	PATT
	 POIN2	PokemonSunandMoonVastPoniCanyonSme_6_004
// 054   ----------------------------------------
	BYTE	PATT
	 POIN2	PokemonSunandMoonVastPoniCanyonSme_6_004
// 055   ----------------------------------------
	BYTE	PATT
	 POIN2	PokemonSunandMoonVastPoniCanyonSme_6_004
// 056   ----------------------------------------
	BYTE	PATT
	 POIN2	PokemonSunandMoonVastPoniCanyonSme_6_004
// 057   ----------------------------------------
	BYTE	PATT
	 POIN2	PokemonSunandMoonVastPoniCanyonSme_6_004
// 058   ----------------------------------------
	BYTE	PATT
	 POIN2	PokemonSunandMoonVastPoniCanyonSme_6_004
// 059   ----------------------------------------
	BYTE	PATT
	 POIN2	PokemonSunandMoonVastPoniCanyonSme_6_004
// 060   ----------------------------------------
	BYTE	PATT
	 POIN2	PokemonSunandMoonVastPoniCanyonSme_6_026
// 061   ----------------------------------------
	BYTE	PATT
	 POIN2	PokemonSunandMoonVastPoniCanyonSme_6_027
// 062   ----------------------------------------
	BYTE	PATT
	 POIN2	PokemonSunandMoonVastPoniCanyonSme_6_026
// 063   ----------------------------------------
	BYTE	PATT
	 POIN2	PokemonSunandMoonVastPoniCanyonSme_6_027
// 064   ----------------------------------------
	BYTE	PATT
	 POIN2	PokemonSunandMoonVastPoniCanyonSme_6_030
// 065   ----------------------------------------
	BYTE	PATT
	 POIN2	PokemonSunandMoonVastPoniCanyonSme_6_031
// 066   ----------------------------------------
	BYTE	PATT
	 POIN2	PokemonSunandMoonVastPoniCanyonSme_6_004
// 067   ----------------------------------------
	BYTE	PATT
	 POIN2	PokemonSunandMoonVastPoniCanyonSme_6_004
// 068   ----------------------------------------
	BYTE	PATT
	 POIN2	PokemonSunandMoonVastPoniCanyonSme_6_004
// 069   ----------------------------------------
	BYTE	PATT
	 POIN2	PokemonSunandMoonVastPoniCanyonSme_6_004
// 070   ----------------------------------------
	BYTE	PATT
	 POIN2	PokemonSunandMoonVastPoniCanyonSme_6_004
// 071   ----------------------------------------
	BYTE	PATT
	 POIN2	PokemonSunandMoonVastPoniCanyonSme_6_004
	BYTE	GoTo
	 POIN2	PokemonSunandMoonVastPoniCanyonSme_6_B1
PokemonSunandMoonVastPoniCanyonSme_6_B2:
// 072   ----------------------------------------
	BYTE		N05     Dn1   v096
	BYTE		N05     Cs2 
	BYTE	W06
	BYTE		        Dn1 
	BYTE	W12
	BYTE		N05   
	BYTE		N05     En2 
	BYTE	W06
	BYTE		        Dn1 
	BYTE	W12
	BYTE		N05   
	BYTE		N05     Cs2 
	BYTE	W06
	BYTE		        Dn1 
	BYTE	W05
	BYTE	FINE

//**************** Track 7 (Midi-Chn.7) ****************//

PokemonSunandMoonVastPoniCanyonSme_7:
	BYTE	KEYSH   PokemonSunandMoonVastPoniCanyonSme_key+0
// 000   ----------------------------------------
	BYTE		VOICE   65
	BYTE		VOL     110*PokemonSunandMoonVastPoniCanyonSme_mvl/mxv
	BYTE		PAN     c_v+0
	BYTE	W96
// 001   ----------------------------------------
	BYTE	W96
// 002   ----------------------------------------
	BYTE	W96
// 003   ----------------------------------------
	BYTE	W96
// 004   ----------------------------------------
	BYTE	W96
// 005   ----------------------------------------
	BYTE	W96
// 006   ----------------------------------------
	BYTE	W96
// 007   ----------------------------------------
PokemonSunandMoonVastPoniCanyonSme_7_007:
	BYTE	W60
	BYTE		N05     Cn3   v112
	BYTE	W12
	BYTE		        Dn3 
	BYTE	W06
	BYTE		        Cn3 
	BYTE	W12
	BYTE		N02     Dn3 
	BYTE	W03
	BYTE		N24     Ds3 
	BYTE	W03
	BYTE	PEND
// 008   ----------------------------------------
PokemonSunandMoonVastPoniCanyonSme_7_008:
	BYTE	W24
	BYTE		N23     Dn3   v112
	BYTE	W24
	BYTE		N05     Cn3 
	BYTE	W06
	BYTE		        An2 
	BYTE	W12
	BYTE		N11     Dn3 
	BYTE	W12
	BYTE		N05     En3 
	BYTE	W12
	BYTE		N11     Dn3 
	BYTE	W06
	BYTE	PEND
// 009   ----------------------------------------
PokemonSunandMoonVastPoniCanyonSme_7_009:
	BYTE	W06
	BYTE		N05     Ds3   v112
	BYTE	W06
	BYTE		        En3 
	BYTE	W48
	BYTE		N11     Cn3 
	BYTE	W12
	BYTE		N05     Dn3 
	BYTE	W06
	BYTE		        Cn3 
	BYTE	W12
	BYTE		N02     Gs3 
	BYTE	W03
	BYTE		N24     An3 
	BYTE	W03
	BYTE	PEND
// 010   ----------------------------------------
PokemonSunandMoonVastPoniCanyonSme_7_010:
	BYTE	W24
	BYTE		N23     Gn3   v112
	BYTE	W24
	BYTE		N05     Ds3 
	BYTE	W06
	BYTE		        Dn3 
	BYTE	W06
	BYTE		        Cn3 
	BYTE	W06
	BYTE		N11     Dn3 
	BYTE	W12
	BYTE		        Cn3 
	BYTE	W12
	BYTE		        Dn3 
	BYTE	W06
	BYTE	PEND
// 011   ----------------------------------------
PokemonSunandMoonVastPoniCanyonSme_7_011:
	BYTE	W06
	BYTE		N05     Cn3   v112
	BYTE	W06
	BYTE		        An2 
	BYTE	W48
	BYTE		N11   
	BYTE	W12
	BYTE		N05     Gn2 
	BYTE	W06
	BYTE		        An2 
	BYTE	W06
	BYTE		        Dn3 
	BYTE	W06
	BYTE		N28     Cn3 
	BYTE	W06
	BYTE	PEND
// 012   ----------------------------------------
PokemonSunandMoonVastPoniCanyonSme_7_012:
	BYTE	W24
	BYTE		N03     Gs3   v112
	BYTE	W03
	BYTE		N20     An3 
	BYTE	W21
	BYTE		N11     Gn3 
	BYTE	W12
	BYTE		N05     Fn3 
	BYTE	W06
	BYTE		        En3 
	BYTE	W12
	BYTE		        Dn3 
	BYTE	W06
	BYTE		N23     Cn3 
	BYTE	W12
	BYTE	PEND
// 013   ----------------------------------------
PokemonSunandMoonVastPoniCanyonSme_7_013:
	BYTE	W12
	BYTE		N03     Bn3   v112
	BYTE	W03
	BYTE		N08     Cn4 
	BYTE	W09
	BYTE		N05     Bn3 
	BYTE	W06
	BYTE		        Cn4 
	BYTE	W12
	BYTE		N17     Gn3 
	BYTE	W18
	BYTE		N05     An3 
	BYTE	W12
	BYTE		        En3 
	BYTE	W06
	BYTE		N11     Dn3 
	BYTE	W12
	BYTE		N17     Cn3 
	BYTE	W06
	BYTE	PEND
// 014   ----------------------------------------
PokemonSunandMoonVastPoniCanyonSme_7_014:
	BYTE	W12
	BYTE		N11     Gn2   v112
	BYTE	W18
	BYTE		N05     En3 
	BYTE	W06
	BYTE		N11     Dn3 
	BYTE	W12
	BYTE		        Cn3 
	BYTE	W12
	BYTE		        Gn2 
	BYTE	W24
	BYTE		N05     Gn3 
	BYTE	W06
	BYTE		N11     Fn3 
	BYTE	W06
	BYTE	PEND
// 015   ----------------------------------------
PokemonSunandMoonVastPoniCanyonSme_7_015:
	BYTE	W06
	BYTE		N05     En3   v112
	BYTE	W06
	BYTE		N23     Cn3 
	BYTE	W24
	BYTE		N05     Fn3 
	BYTE	W06
	BYTE		N11     En3 
	BYTE	W12
	BYTE		N05     An3 
	BYTE	W06
	BYTE		        Gn3 
	BYTE	W06
	BYTE		        Fn3 
	BYTE	W06
	BYTE		        En3 
	BYTE	W06
	BYTE		        Fn3 
	BYTE	W06
	BYTE		        Gn3 
	BYTE	W06
	BYTE		        Bn3 
	BYTE	W06
	BYTE	PEND
PokemonSunandMoonVastPoniCanyonSme_7_B1:
// 016   ----------------------------------------
	BYTE		N92     Cn4   v112
	BYTE	W96
// 017   ----------------------------------------
	BYTE	W96
// 018   ----------------------------------------
PokemonSunandMoonVastPoniCanyonSme_7_018:
	BYTE	W24
	BYTE		N05     En4   v112
	BYTE	W06
	BYTE		        Dn4 
	BYTE	W06
	BYTE		        Cn4 
	BYTE	W06
	BYTE		N17     Dn4 
	BYTE	W18
	BYTE		N11     En4 
	BYTE	W36
	BYTE	PEND
// 019   ----------------------------------------
	BYTE		N23     Bn3   v080
	BYTE	W24
	BYTE		        As3 
	BYTE	W24
	BYTE		        An3 
	BYTE	W24
	BYTE		        Gs3 
	BYTE	W24
// 020   ----------------------------------------
PokemonSunandMoonVastPoniCanyonSme_7_020:
	BYTE	W06
	BYTE		N05     Cn3   v080
	BYTE	W06
	BYTE		        Dn3 
	BYTE	W06
	BYTE		        Cn3 
	BYTE	W06
	BYTE		N11     Gn3 
	BYTE	W12
	BYTE		N05   
	BYTE	W06
	BYTE		N05   
	BYTE	W12
	BYTE		N05   
	BYTE	W06
	BYTE		        Cn4 
	BYTE	W18
	BYTE		N08     Gn3 
	BYTE	W18
	BYTE	PEND
// 021   ----------------------------------------
	BYTE	PATT
	 POIN2	PokemonSunandMoonVastPoniCanyonSme_7_020
// 022   ----------------------------------------
	BYTE	W12
	BYTE		N11     Dn3   v080
	BYTE	W12
	BYTE		N02   
	BYTE	W06
	BYTE		N17   
	BYTE	W24
	BYTE		N02     En3 
	BYTE	W06
	BYTE		N02   
	BYTE	W06
	BYTE		N11   
	BYTE	W12
	BYTE		N05     Gn2 
	BYTE	W06
	BYTE		        Cn3 
	BYTE	W06
	BYTE		        Dn3 
	BYTE	W06
// 023   ----------------------------------------
PokemonSunandMoonVastPoniCanyonSme_7_023:
	BYTE		N05     En3   v080
	BYTE	W06
	BYTE		        Fn3 
	BYTE	W06
	BYTE		        Gn3 
	BYTE	W06
	BYTE		N28     Cn4 
	BYTE	W30
	BYTE		N23     En4 
	BYTE	W24
	BYTE		N17     Dn4 
	BYTE	W18
	BYTE		TIE   
	BYTE	W06
	BYTE	PEND
// 024   ----------------------------------------
	BYTE	W96
// 025   ----------------------------------------
	BYTE	W92
	BYTE	W03
	BYTE		EOT   
	BYTE	W01
// 026   ----------------------------------------
	BYTE	W96
// 027   ----------------------------------------
	BYTE	W96
// 028   ----------------------------------------
	BYTE	W96
// 029   ----------------------------------------
	BYTE	W96
// 030   ----------------------------------------
	BYTE	W96
// 031   ----------------------------------------
PokemonSunandMoonVastPoniCanyonSme_7_031:
	BYTE	W78
	BYTE		N05     Gn2   v112
	BYTE	W06
	BYTE		        An2 
	BYTE	W06
	BYTE		        Gn2 
	BYTE	W06
	BYTE	PEND
// 032   ----------------------------------------
PokemonSunandMoonVastPoniCanyonSme_7_032:
	BYTE		N11     Cn3   v112
	BYTE	W12
	BYTE		N05     An3 
	BYTE	W06
	BYTE		N11     Gn3 
	BYTE	W12
	BYTE		N05     Fn3 
	BYTE	W06
	BYTE		N23     En3 
	BYTE	W24
	BYTE		N11     Fn3 
	BYTE	W12
	BYTE		N05     Gn3 
	BYTE	W06
	BYTE		N11     An3 
	BYTE	W18
	BYTE	PEND
// 033   ----------------------------------------
PokemonSunandMoonVastPoniCanyonSme_7_033:
	BYTE		N23     Cn4   v112
	BYTE	W24
	BYTE		N05     En3 
	BYTE	W06
	BYTE		        Dn3 
	BYTE	W06
	BYTE		        Cn3 
	BYTE	W06
	BYTE		        An3 
	BYTE	W06
	BYTE		N11   
	BYTE	W12
	BYTE		N05   
	BYTE	W06
	BYTE		        Gn3 
	BYTE	W06
	BYTE		        En4 
	BYTE	W06
	BYTE		TIE     Dn4 
	BYTE	W18
	BYTE	PEND
// 034   ----------------------------------------
	BYTE	W92
	BYTE	W03
	BYTE		EOT   
	BYTE	W01
// 035   ----------------------------------------
	BYTE	W96
// 036   ----------------------------------------
	BYTE	W96
// 037   ----------------------------------------
	BYTE	W96
// 038   ----------------------------------------
	BYTE	W96
// 039   ----------------------------------------
	BYTE	W96
// 040   ----------------------------------------
	BYTE	W96
// 041   ----------------------------------------
	BYTE	PATT
	 POIN2	PokemonSunandMoonVastPoniCanyonSme_7_007
// 042   ----------------------------------------
	BYTE	PATT
	 POIN2	PokemonSunandMoonVastPoniCanyonSme_7_008
// 043   ----------------------------------------
	BYTE	PATT
	 POIN2	PokemonSunandMoonVastPoniCanyonSme_7_009
// 044   ----------------------------------------
	BYTE	PATT
	 POIN2	PokemonSunandMoonVastPoniCanyonSme_7_010
// 045   ----------------------------------------
	BYTE	PATT
	 POIN2	PokemonSunandMoonVastPoniCanyonSme_7_011
// 046   ----------------------------------------
	BYTE	PATT
	 POIN2	PokemonSunandMoonVastPoniCanyonSme_7_012
// 047   ----------------------------------------
	BYTE	PATT
	 POIN2	PokemonSunandMoonVastPoniCanyonSme_7_013
// 048   ----------------------------------------
	BYTE	PATT
	 POIN2	PokemonSunandMoonVastPoniCanyonSme_7_014
// 049   ----------------------------------------
	BYTE	PATT
	 POIN2	PokemonSunandMoonVastPoniCanyonSme_7_015
// 050   ----------------------------------------
	BYTE		N92     Cn4   v112
	BYTE	W96
// 051   ----------------------------------------
	BYTE	W96
// 052   ----------------------------------------
	BYTE	PATT
	 POIN2	PokemonSunandMoonVastPoniCanyonSme_7_018
// 053   ----------------------------------------
	BYTE	W96
// 054   ----------------------------------------
	BYTE	W96
// 055   ----------------------------------------
	BYTE	W96
// 056   ----------------------------------------
	BYTE	W78
	BYTE		N05     Gn2   v080
	BYTE	W06
	BYTE		        Cn3 
	BYTE	W06
	BYTE		        Dn3 
	BYTE	W06
// 057   ----------------------------------------
	BYTE	PATT
	 POIN2	PokemonSunandMoonVastPoniCanyonSme_7_023
// 058   ----------------------------------------
	BYTE	W96
// 059   ----------------------------------------
	BYTE	W92
	BYTE	W03
	BYTE		EOT     Dn4 
	BYTE	W01
// 060   ----------------------------------------
	BYTE	W96
// 061   ----------------------------------------
	BYTE	W96
// 062   ----------------------------------------
	BYTE	W96
// 063   ----------------------------------------
	BYTE	W96
// 064   ----------------------------------------
	BYTE	W96
// 065   ----------------------------------------
	BYTE	PATT
	 POIN2	PokemonSunandMoonVastPoniCanyonSme_7_031
// 066   ----------------------------------------
	BYTE	PATT
	 POIN2	PokemonSunandMoonVastPoniCanyonSme_7_032
// 067   ----------------------------------------
	BYTE	PATT
	 POIN2	PokemonSunandMoonVastPoniCanyonSme_7_033
// 068   ----------------------------------------
	BYTE	W92
	BYTE	W03
	BYTE		EOT     Dn4 
	BYTE	W01
// 069   ----------------------------------------
	BYTE	W96
// 070   ----------------------------------------
	BYTE	W12
	BYTE		N05     Gn3   v112
	BYTE	W06
	BYTE		        An3 
	BYTE	W12
	BYTE		        Dn3 
	BYTE	W06
	BYTE		        En3 
	BYTE	W12
	BYTE		        Gn3 
	BYTE	W06
	BYTE		        An3 
	BYTE	W06
	BYTE		        Cn4 
	BYTE	W06
	BYTE		        Bn3 
	BYTE	W12
	BYTE		        Gn3 
	BYTE	W06
	BYTE		        An3 
	BYTE	W12
// 071   ----------------------------------------
	BYTE		        Dn3 
	BYTE	W06
	BYTE		        En3 
	BYTE	W12
	BYTE		        Gn3 
	BYTE	W06
	BYTE		        An3 
	BYTE	W06
	BYTE		        Cn4 
	BYTE	W06
	BYTE		        Bn3 
	BYTE	W06
	BYTE		        Gn3 
	BYTE	W12
	BYTE		        An3 
	BYTE	W06
	BYTE		        Gn3 
	BYTE	W12
	BYTE		        An3 
	BYTE	W06
	BYTE		        En3 
	BYTE	W18
	BYTE	GoTo
	 POIN2	PokemonSunandMoonVastPoniCanyonSme_7_B1
PokemonSunandMoonVastPoniCanyonSme_7_B2:
// 072   ----------------------------------------
	BYTE		N05     An3   v112
	BYTE	W06
	BYTE		N05   
	BYTE	W12
	BYTE		N05   
	BYTE	W06
	BYTE		N05   
	BYTE	W12
	BYTE		N05   
	BYTE	W06
	BYTE		N05   
	BYTE	W05
	BYTE	FINE

//**************** Track 8 (Midi-Chn.8) ****************//

PokemonSunandMoonVastPoniCanyonSme_8:
	BYTE	KEYSH   PokemonSunandMoonVastPoniCanyonSme_key+0
// 000   ----------------------------------------
	BYTE		VOICE   65
	BYTE		VOL     112*PokemonSunandMoonVastPoniCanyonSme_mvl/mxv
	BYTE		PAN     c_v+0
	BYTE	W96
// 001   ----------------------------------------
	BYTE	W96
// 002   ----------------------------------------
	BYTE	W96
// 003   ----------------------------------------
	BYTE	W96
// 004   ----------------------------------------
	BYTE	W96
// 005   ----------------------------------------
	BYTE	W96
// 006   ----------------------------------------
	BYTE	W96
// 007   ----------------------------------------
PokemonSunandMoonVastPoniCanyonSme_8_007:
	BYTE	W60
	BYTE		N05     Cn3   v112
	BYTE	W12
	BYTE		        Dn3 
	BYTE	W06
	BYTE		        Cn3 
	BYTE	W12
	BYTE		N02     Dn3 
	BYTE	W03
	BYTE		N24     Ds3 
	BYTE	W03
	BYTE	PEND
// 008   ----------------------------------------
PokemonSunandMoonVastPoniCanyonSme_8_008:
	BYTE	W24
	BYTE		N23     Dn3   v112
	BYTE	W24
	BYTE		N05     Cn3 
	BYTE	W06
	BYTE		        An2 
	BYTE	W12
	BYTE		N11     Dn3 
	BYTE	W12
	BYTE		N05     En3 
	BYTE	W12
	BYTE		N11     Dn3 
	BYTE	W06
	BYTE	PEND
// 009   ----------------------------------------
PokemonSunandMoonVastPoniCanyonSme_8_009:
	BYTE	W06
	BYTE		N05     Ds3   v112
	BYTE	W06
	BYTE		        En3 
	BYTE	W48
	BYTE		N11     Cn3 
	BYTE	W12
	BYTE		N05     Dn3 
	BYTE	W06
	BYTE		        Cn3 
	BYTE	W12
	BYTE		N02     Gs3 
	BYTE	W03
	BYTE		N24     An3 
	BYTE	W03
	BYTE	PEND
// 010   ----------------------------------------
PokemonSunandMoonVastPoniCanyonSme_8_010:
	BYTE	W24
	BYTE		N23     Gn3   v112
	BYTE	W24
	BYTE		N05     Ds3 
	BYTE	W06
	BYTE		        Dn3 
	BYTE	W06
	BYTE		        Cn3 
	BYTE	W06
	BYTE		N11     Dn3 
	BYTE	W12
	BYTE		        Cn3 
	BYTE	W12
	BYTE		        Dn3 
	BYTE	W06
	BYTE	PEND
// 011   ----------------------------------------
PokemonSunandMoonVastPoniCanyonSme_8_011:
	BYTE	W06
	BYTE		N05     Cn3   v112
	BYTE	W06
	BYTE		        An2 
	BYTE	W48
	BYTE		N11   
	BYTE	W12
	BYTE		N05     Gn2 
	BYTE	W06
	BYTE		        An2 
	BYTE	W06
	BYTE		        Dn3 
	BYTE	W06
	BYTE		N28     Cn3 
	BYTE	W06
	BYTE	PEND
// 012   ----------------------------------------
PokemonSunandMoonVastPoniCanyonSme_8_012:
	BYTE	W24
	BYTE		N03     Gs3   v112
	BYTE	W03
	BYTE		N20     An3 
	BYTE	W21
	BYTE		N11     Gn3 
	BYTE	W12
	BYTE		N05     Fn3 
	BYTE	W06
	BYTE		        En3 
	BYTE	W12
	BYTE		        Dn3 
	BYTE	W06
	BYTE		N23     Cn3 
	BYTE	W12
	BYTE	PEND
// 013   ----------------------------------------
PokemonSunandMoonVastPoniCanyonSme_8_013:
	BYTE	W12
	BYTE		N03     Bn3   v112
	BYTE	W03
	BYTE		N08     Cn4 
	BYTE	W09
	BYTE		N05     Bn3 
	BYTE	W06
	BYTE		        Cn4 
	BYTE	W12
	BYTE		N17     Gn3 
	BYTE	W18
	BYTE		N05     An3 
	BYTE	W12
	BYTE		        En3 
	BYTE	W06
	BYTE		N11     Dn3 
	BYTE	W12
	BYTE		N17     Cn3 
	BYTE	W06
	BYTE	PEND
// 014   ----------------------------------------
PokemonSunandMoonVastPoniCanyonSme_8_014:
	BYTE	W12
	BYTE		N11     Gn2   v112
	BYTE	W18
	BYTE		N05     En3 
	BYTE	W06
	BYTE		N11     Dn3 
	BYTE	W12
	BYTE		        Cn3 
	BYTE	W12
	BYTE		        Gn2 
	BYTE	W24
	BYTE		N05     Gn3 
	BYTE	W06
	BYTE		N11     Fn3 
	BYTE	W06
	BYTE	PEND
// 015   ----------------------------------------
PokemonSunandMoonVastPoniCanyonSme_8_015:
	BYTE	W06
	BYTE		N05     En3   v112
	BYTE	W06
	BYTE		N23     Cn3 
	BYTE	W24
	BYTE		N05     Fn3 
	BYTE	W06
	BYTE		N11     En3 
	BYTE	W12
	BYTE		N05     An3 
	BYTE	W06
	BYTE		        Gn3 
	BYTE	W06
	BYTE		        Fn3 
	BYTE	W06
	BYTE		        Cn3 
	BYTE	W06
	BYTE		        Dn3 
	BYTE	W06
	BYTE		        En3 
	BYTE	W06
	BYTE		        Gs3 
	BYTE	W06
	BYTE	PEND
PokemonSunandMoonVastPoniCanyonSme_8_B1:
// 016   ----------------------------------------
	BYTE		N92     An3   v112
	BYTE	W96
// 017   ----------------------------------------
	BYTE	W96
// 018   ----------------------------------------
PokemonSunandMoonVastPoniCanyonSme_8_018:
	BYTE	W24
	BYTE		N05     En4   v112
	BYTE	W06
	BYTE		        Dn4 
	BYTE	W06
	BYTE		        Cn4 
	BYTE	W06
	BYTE		N17     Dn4 
	BYTE	W18
	BYTE		N11     En4 
	BYTE	W36
	BYTE	PEND
// 019   ----------------------------------------
	BYTE		N23     Gn3   v080
	BYTE	W24
	BYTE		        Fs3 
	BYTE	W24
	BYTE		        Fn3 
	BYTE	W24
	BYTE		        En3 
	BYTE	W24
// 020   ----------------------------------------
PokemonSunandMoonVastPoniCanyonSme_8_020:
	BYTE	W06
	BYTE		N05     Cn3   v080
	BYTE	W06
	BYTE		        Dn3 
	BYTE	W06
	BYTE		        Cn3 
	BYTE	W06
	BYTE		N11     En3 
	BYTE	W12
	BYTE		N05   
	BYTE	W06
	BYTE		N05   
	BYTE	W12
	BYTE		N05   
	BYTE	W06
	BYTE		        Gn3 
	BYTE	W18
	BYTE		N08     En3 
	BYTE	W18
	BYTE	PEND
// 021   ----------------------------------------
	BYTE	PATT
	 POIN2	PokemonSunandMoonVastPoniCanyonSme_8_020
// 022   ----------------------------------------
	BYTE	W12
	BYTE		N11     An2   v080
	BYTE	W12
	BYTE		N02   
	BYTE	W06
	BYTE		N17   
	BYTE	W24
	BYTE		N02     Bn2 
	BYTE	W06
	BYTE		N02   
	BYTE	W06
	BYTE		N11   
	BYTE	W12
	BYTE		N05     Gn2 
	BYTE	W06
	BYTE		        Cn3 
	BYTE	W06
	BYTE		        Dn3 
	BYTE	W06
// 023   ----------------------------------------
PokemonSunandMoonVastPoniCanyonSme_8_023:
	BYTE		N05     En3   v080
	BYTE	W06
	BYTE		        Fn3 
	BYTE	W06
	BYTE		        Gn3 
	BYTE	W06
	BYTE		N28     Cn4 
	BYTE	W30
	BYTE		N23   
	BYTE	W24
	BYTE		N17   
	BYTE	W18
	BYTE		TIE     Gn3 
	BYTE	W06
	BYTE	PEND
// 024   ----------------------------------------
	BYTE	W96
// 025   ----------------------------------------
	BYTE	W92
	BYTE	W03
	BYTE		EOT   
	BYTE	W01
// 026   ----------------------------------------
	BYTE	W96
// 027   ----------------------------------------
	BYTE	W96
// 028   ----------------------------------------
	BYTE	W96
// 029   ----------------------------------------
	BYTE	W96
// 030   ----------------------------------------
	BYTE	W96
// 031   ----------------------------------------
PokemonSunandMoonVastPoniCanyonSme_8_031:
	BYTE	W78
	BYTE		N05     Gn2   v112
	BYTE	W06
	BYTE		        An2 
	BYTE	W06
	BYTE		        Gn2 
	BYTE	W06
	BYTE	PEND
// 032   ----------------------------------------
PokemonSunandMoonVastPoniCanyonSme_8_032:
	BYTE		N11     Cn3   v112
	BYTE	W12
	BYTE		N05     An3 
	BYTE	W06
	BYTE		N11     Gn3 
	BYTE	W12
	BYTE		N05     Fn3 
	BYTE	W06
	BYTE		N23     En3 
	BYTE	W24
	BYTE		N11     Fn3 
	BYTE	W12
	BYTE		N05     Gn3 
	BYTE	W06
	BYTE		N11     An3 
	BYTE	W18
	BYTE	PEND
// 033   ----------------------------------------
PokemonSunandMoonVastPoniCanyonSme_8_033:
	BYTE		N23     Cn4   v112
	BYTE	W24
	BYTE		N05     En3 
	BYTE	W06
	BYTE		        Dn3 
	BYTE	W06
	BYTE		        Cn3 
	BYTE	W06
	BYTE		        An3 
	BYTE	W06
	BYTE		N11   
	BYTE	W12
	BYTE		N05   
	BYTE	W06
	BYTE		        Gn3 
	BYTE	W06
	BYTE		        Bn3 
	BYTE	W06
	BYTE		TIE     An3 
	BYTE	W18
	BYTE	PEND
// 034   ----------------------------------------
	BYTE	W92
	BYTE	W03
	BYTE		EOT   
	BYTE	W01
// 035   ----------------------------------------
	BYTE	W96
// 036   ----------------------------------------
	BYTE	W96
// 037   ----------------------------------------
	BYTE	W96
// 038   ----------------------------------------
	BYTE	W96
// 039   ----------------------------------------
	BYTE	W96
// 040   ----------------------------------------
	BYTE	W96
// 041   ----------------------------------------
	BYTE	PATT
	 POIN2	PokemonSunandMoonVastPoniCanyonSme_8_007
// 042   ----------------------------------------
	BYTE	PATT
	 POIN2	PokemonSunandMoonVastPoniCanyonSme_8_008
// 043   ----------------------------------------
	BYTE	PATT
	 POIN2	PokemonSunandMoonVastPoniCanyonSme_8_009
// 044   ----------------------------------------
	BYTE	PATT
	 POIN2	PokemonSunandMoonVastPoniCanyonSme_8_010
// 045   ----------------------------------------
	BYTE	PATT
	 POIN2	PokemonSunandMoonVastPoniCanyonSme_8_011
// 046   ----------------------------------------
	BYTE	PATT
	 POIN2	PokemonSunandMoonVastPoniCanyonSme_8_012
// 047   ----------------------------------------
	BYTE	PATT
	 POIN2	PokemonSunandMoonVastPoniCanyonSme_8_013
// 048   ----------------------------------------
	BYTE	PATT
	 POIN2	PokemonSunandMoonVastPoniCanyonSme_8_014
// 049   ----------------------------------------
	BYTE	PATT
	 POIN2	PokemonSunandMoonVastPoniCanyonSme_8_015
// 050   ----------------------------------------
	BYTE		N92     An3   v112
	BYTE	W96
// 051   ----------------------------------------
	BYTE	W96
// 052   ----------------------------------------
	BYTE	PATT
	 POIN2	PokemonSunandMoonVastPoniCanyonSme_8_018
// 053   ----------------------------------------
	BYTE	W96
// 054   ----------------------------------------
	BYTE	W96
// 055   ----------------------------------------
	BYTE	W96
// 056   ----------------------------------------
	BYTE	W78
	BYTE		N05     Gn2   v080
	BYTE	W06
	BYTE		        Cn3 
	BYTE	W06
	BYTE		        Dn3 
	BYTE	W06
// 057   ----------------------------------------
	BYTE	PATT
	 POIN2	PokemonSunandMoonVastPoniCanyonSme_8_023
// 058   ----------------------------------------
	BYTE	W96
// 059   ----------------------------------------
	BYTE	W92
	BYTE	W03
	BYTE		EOT     Gn3 
	BYTE	W01
// 060   ----------------------------------------
	BYTE	W96
// 061   ----------------------------------------
	BYTE	W96
// 062   ----------------------------------------
	BYTE	W96
// 063   ----------------------------------------
	BYTE	W96
// 064   ----------------------------------------
	BYTE	W96
// 065   ----------------------------------------
	BYTE	PATT
	 POIN2	PokemonSunandMoonVastPoniCanyonSme_8_031
// 066   ----------------------------------------
	BYTE	PATT
	 POIN2	PokemonSunandMoonVastPoniCanyonSme_8_032
// 067   ----------------------------------------
	BYTE	PATT
	 POIN2	PokemonSunandMoonVastPoniCanyonSme_8_033
// 068   ----------------------------------------
	BYTE	W92
	BYTE	W03
	BYTE		EOT     An3 
	BYTE	W01
// 069   ----------------------------------------
	BYTE	W96
// 070   ----------------------------------------
	BYTE	W12
	BYTE		N05     Dn3   v112
	BYTE	W06
	BYTE		        En3 
	BYTE	W12
	BYTE		        An2 
	BYTE	W06
	BYTE		        Bn2 
	BYTE	W12
	BYTE		        Dn3 
	BYTE	W06
	BYTE		        En3 
	BYTE	W06
	BYTE		        Gn3 
	BYTE	W06
	BYTE		        Fs3 
	BYTE	W12
	BYTE		        Dn3 
	BYTE	W06
	BYTE		        En3 
	BYTE	W12
// 071   ----------------------------------------
	BYTE		        An2 
	BYTE	W06
	BYTE		        Bn2 
	BYTE	W12
	BYTE		        Dn3 
	BYTE	W06
	BYTE		        En3 
	BYTE	W06
	BYTE		        Gn3 
	BYTE	W06
	BYTE		        Fs3 
	BYTE	W06
	BYTE		        Dn3 
	BYTE	W12
	BYTE		        En3 
	BYTE	W06
	BYTE		        Dn3 
	BYTE	W12
	BYTE		        En3 
	BYTE	W06
	BYTE		        Bn2 
	BYTE	W18
	BYTE	GoTo
	 POIN2	PokemonSunandMoonVastPoniCanyonSme_8_B1
PokemonSunandMoonVastPoniCanyonSme_8_B2:
// 072   ----------------------------------------
	BYTE		N05     En3   v112
	BYTE	W06
	BYTE		N05   
	BYTE	W12
	BYTE		N05   
	BYTE	W06
	BYTE		N05   
	BYTE	W12
	BYTE		N05   
	BYTE	W06
	BYTE		N05   
	BYTE	W05
	BYTE	FINE

//**************** Track 9 (Midi-Chn.9) ****************//

PokemonSunandMoonVastPoniCanyonSme_9:
	BYTE	KEYSH   PokemonSunandMoonVastPoniCanyonSme_key+0
// 000   ----------------------------------------
	BYTE		VOICE   66
	BYTE		VOL     126*PokemonSunandMoonVastPoniCanyonSme_mvl/mxv
	BYTE		PAN     c_v+0
	BYTE	W96
// 001   ----------------------------------------
	BYTE	W96
// 002   ----------------------------------------
	BYTE	W96
// 003   ----------------------------------------
	BYTE	W96
// 004   ----------------------------------------
PokemonSunandMoonVastPoniCanyonSme_9_004:
	BYTE		N11     Fn2   v096
	BYTE	W12
	BYTE		N05     En2 
	BYTE	W06
	BYTE		        Fn2 
	BYTE	W36
	BYTE		N08     En2 
	BYTE	W18
	BYTE		N11   
	BYTE	W24
	BYTE	PEND
// 005   ----------------------------------------
PokemonSunandMoonVastPoniCanyonSme_9_005:
	BYTE		N05     An2   v096
	BYTE	W12
	BYTE		        Gn2 
	BYTE	W06
	BYTE		        An2 
	BYTE	W12
	BYTE		        Cn2 
	BYTE	W06
	BYTE		        Dn2 
	BYTE	W06
	BYTE		        Ds2 
	BYTE	W06
	BYTE		        En2 
	BYTE	W06
	BYTE		        An2 
	BYTE	W06
	BYTE		N05   
	BYTE	W18
	BYTE		N05   
	BYTE	W06
	BYTE		        Gn2 
	BYTE	W12
	BYTE	PEND
// 006   ----------------------------------------
	BYTE	PATT
	 POIN2	PokemonSunandMoonVastPoniCanyonSme_9_004
// 007   ----------------------------------------
	BYTE	PATT
	 POIN2	PokemonSunandMoonVastPoniCanyonSme_9_005
// 008   ----------------------------------------
	BYTE	PATT
	 POIN2	PokemonSunandMoonVastPoniCanyonSme_9_004
// 009   ----------------------------------------
	BYTE	PATT
	 POIN2	PokemonSunandMoonVastPoniCanyonSme_9_005
// 010   ----------------------------------------
	BYTE	PATT
	 POIN2	PokemonSunandMoonVastPoniCanyonSme_9_004
// 011   ----------------------------------------
	BYTE	PATT
	 POIN2	PokemonSunandMoonVastPoniCanyonSme_9_005
// 012   ----------------------------------------
	BYTE	PATT
	 POIN2	PokemonSunandMoonVastPoniCanyonSme_9_004
// 013   ----------------------------------------
PokemonSunandMoonVastPoniCanyonSme_9_013:
	BYTE		N05     An2   v096
	BYTE	W12
	BYTE		        Gn2 
	BYTE	W06
	BYTE		        An2 
	BYTE	W12
	BYTE		        Cn2 
	BYTE	W06
	BYTE		        Dn2 
	BYTE	W06
	BYTE		        Ds2 
	BYTE	W06
	BYTE		        En2 
	BYTE	W06
	BYTE		        An2 
	BYTE	W06
	BYTE		N05   
	BYTE	W12
	BYTE		N05   
	BYTE	W06
	BYTE		        Gn2 
	BYTE	W06
	BYTE		        Fn2 
	BYTE	W06
	BYTE		N17   
	BYTE	W06
	BYTE	PEND
// 014   ----------------------------------------
PokemonSunandMoonVastPoniCanyonSme_9_014:
	BYTE	W12
	BYTE		N05     Fn2   v096
	BYTE	W06
	BYTE		N05   
	BYTE	W36
	BYTE		N17     En2 
	BYTE	W18
	BYTE		N23   
	BYTE	W24
	BYTE	PEND
// 015   ----------------------------------------
PokemonSunandMoonVastPoniCanyonSme_9_015:
	BYTE		N05     An2   v096
	BYTE	W12
	BYTE		        Gn2 
	BYTE	W06
	BYTE		        An2 
	BYTE	W12
	BYTE		        Cn2 
	BYTE	W06
	BYTE		        Dn2 
	BYTE	W06
	BYTE		        Ds2 
	BYTE	W06
	BYTE		        En2 
	BYTE	W06
	BYTE		N17     An2 
	BYTE	W18
	BYTE		N23     Gn2 
	BYTE	W24
	BYTE	PEND
PokemonSunandMoonVastPoniCanyonSme_9_B1:
// 016   ----------------------------------------
	BYTE		N92     Cn4   v096
	BYTE	W96
// 017   ----------------------------------------
PokemonSunandMoonVastPoniCanyonSme_9_017:
	BYTE		N23     En3   v080
	BYTE	W24
	BYTE		N17     Gn3 
	BYTE	W18
	BYTE		N52     En3 
	BYTE	W54
	BYTE	PEND
// 018   ----------------------------------------
PokemonSunandMoonVastPoniCanyonSme_9_018:
	BYTE		N23     En3   v080
	BYTE	W24
	BYTE		N17     Cn4 
	BYTE	W18
	BYTE		N52     Bn3 
	BYTE	W54
	BYTE	PEND
// 019   ----------------------------------------
PokemonSunandMoonVastPoniCanyonSme_9_019:
	BYTE		N23     Bn3   v080
	BYTE	W24
	BYTE		        As3 
	BYTE	W24
	BYTE		        An3 
	BYTE	W24
	BYTE		        Gs3 
	BYTE	W24
	BYTE	PEND
// 020   ----------------------------------------
PokemonSunandMoonVastPoniCanyonSme_9_020:
	BYTE	W06
	BYTE		N05     Cn3   v080
	BYTE	W06
	BYTE		        Dn3 
	BYTE	W06
	BYTE		        Cn3 
	BYTE	W06
	BYTE		N11     Gn3 
	BYTE	W12
	BYTE		N05   
	BYTE	W06
	BYTE		N05   
	BYTE	W12
	BYTE		N05   
	BYTE	W06
	BYTE		        Cn4 
	BYTE	W18
	BYTE		N08     Gn3 
	BYTE	W18
	BYTE	PEND
// 021   ----------------------------------------
	BYTE	PATT
	 POIN2	PokemonSunandMoonVastPoniCanyonSme_9_020
// 022   ----------------------------------------
PokemonSunandMoonVastPoniCanyonSme_9_022:
	BYTE	W12
	BYTE		N11     Dn3   v080
	BYTE	W12
	BYTE		N02   
	BYTE	W06
	BYTE		N17   
	BYTE	W24
	BYTE		N02     En3 
	BYTE	W06
	BYTE		N02   
	BYTE	W06
	BYTE		N11   
	BYTE	W12
	BYTE		N05     Gn2 
	BYTE	W06
	BYTE		        Cn3 
	BYTE	W06
	BYTE		        Dn3 
	BYTE	W06
	BYTE	PEND
// 023   ----------------------------------------
PokemonSunandMoonVastPoniCanyonSme_9_023:
	BYTE		N05     En3   v080
	BYTE	W06
	BYTE		        Fn3 
	BYTE	W06
	BYTE		        Gn3 
	BYTE	W06
	BYTE		N28     Cn4 
	BYTE	W30
	BYTE		N23     Gn3 
	BYTE	W24
	BYTE		N17   
	BYTE	W18
	BYTE		TIE   
	BYTE	W06
	BYTE	PEND
// 024   ----------------------------------------
	BYTE	W96
// 025   ----------------------------------------
	BYTE	W92
	BYTE	W03
	BYTE		EOT   
	BYTE	W01
// 026   ----------------------------------------
PokemonSunandMoonVastPoniCanyonSme_9_026:
	BYTE		N08     An2   v100
	BYTE	W18
	BYTE		N05   
	BYTE	W78
	BYTE	PEND
// 027   ----------------------------------------
	BYTE	W78
	BYTE		N17     En2 
	BYTE	W18
// 028   ----------------------------------------
	BYTE	PATT
	 POIN2	PokemonSunandMoonVastPoniCanyonSme_9_026
// 029   ----------------------------------------
PokemonSunandMoonVastPoniCanyonSme_9_029:
	BYTE	W78
	BYTE		N05     An2   v100
	BYTE	W06
	BYTE		        Gn2 
	BYTE	W06
	BYTE		        En2 
	BYTE	W06
	BYTE	PEND
// 030   ----------------------------------------
PokemonSunandMoonVastPoniCanyonSme_9_030:
	BYTE		N11     An2   v100
	BYTE	W36
	BYTE		N05     En2 
	BYTE	W36
	BYTE		N11     Dn2 
	BYTE	W24
	BYTE	PEND
// 031   ----------------------------------------
PokemonSunandMoonVastPoniCanyonSme_9_031:
	BYTE	W12
	BYTE		N05     Dn2   v100
	BYTE	W36
	BYTE		        En2 
	BYTE	W06
	BYTE		N08   
	BYTE	W18
	BYTE		N05   
	BYTE	W06
	BYTE		N05   
	BYTE	W06
	BYTE		        An2 
	BYTE	W06
	BYTE		        Gn2 
	BYTE	W06
	BYTE	PEND
// 032   ----------------------------------------
	BYTE		N92     Fn3 
	BYTE	W96
// 033   ----------------------------------------
	BYTE		        Gn3 
	BYTE	W96
// 034   ----------------------------------------
	BYTE	W96
// 035   ----------------------------------------
	BYTE	W96
// 036   ----------------------------------------
	BYTE	W96
// 037   ----------------------------------------
	BYTE	W96
// 038   ----------------------------------------
	BYTE	PATT
	 POIN2	PokemonSunandMoonVastPoniCanyonSme_9_004
// 039   ----------------------------------------
	BYTE	PATT
	 POIN2	PokemonSunandMoonVastPoniCanyonSme_9_005
// 040   ----------------------------------------
	BYTE	PATT
	 POIN2	PokemonSunandMoonVastPoniCanyonSme_9_004
// 041   ----------------------------------------
	BYTE	PATT
	 POIN2	PokemonSunandMoonVastPoniCanyonSme_9_005
// 042   ----------------------------------------
	BYTE	PATT
	 POIN2	PokemonSunandMoonVastPoniCanyonSme_9_004
// 043   ----------------------------------------
	BYTE	PATT
	 POIN2	PokemonSunandMoonVastPoniCanyonSme_9_005
// 044   ----------------------------------------
	BYTE	PATT
	 POIN2	PokemonSunandMoonVastPoniCanyonSme_9_004
// 045   ----------------------------------------
	BYTE	PATT
	 POIN2	PokemonSunandMoonVastPoniCanyonSme_9_005
// 046   ----------------------------------------
	BYTE	PATT
	 POIN2	PokemonSunandMoonVastPoniCanyonSme_9_004
// 047   ----------------------------------------
	BYTE	PATT
	 POIN2	PokemonSunandMoonVastPoniCanyonSme_9_013
// 048   ----------------------------------------
	BYTE	PATT
	 POIN2	PokemonSunandMoonVastPoniCanyonSme_9_014
// 049   ----------------------------------------
	BYTE	PATT
	 POIN2	PokemonSunandMoonVastPoniCanyonSme_9_015
// 050   ----------------------------------------
	BYTE		N92     Cn4   v096
	BYTE	W96
// 051   ----------------------------------------
	BYTE	PATT
	 POIN2	PokemonSunandMoonVastPoniCanyonSme_9_017
// 052   ----------------------------------------
	BYTE	PATT
	 POIN2	PokemonSunandMoonVastPoniCanyonSme_9_018
// 053   ----------------------------------------
	BYTE	PATT
	 POIN2	PokemonSunandMoonVastPoniCanyonSme_9_019
// 054   ----------------------------------------
	BYTE	PATT
	 POIN2	PokemonSunandMoonVastPoniCanyonSme_9_020
// 055   ----------------------------------------
	BYTE	PATT
	 POIN2	PokemonSunandMoonVastPoniCanyonSme_9_020
// 056   ----------------------------------------
	BYTE	PATT
	 POIN2	PokemonSunandMoonVastPoniCanyonSme_9_022
// 057   ----------------------------------------
	BYTE	PATT
	 POIN2	PokemonSunandMoonVastPoniCanyonSme_9_023
// 058   ----------------------------------------
	BYTE	W96
// 059   ----------------------------------------
	BYTE	W92
	BYTE	W03
	BYTE		EOT     Gn3 
	BYTE	W01
// 060   ----------------------------------------
	BYTE	PATT
	 POIN2	PokemonSunandMoonVastPoniCanyonSme_9_026
// 061   ----------------------------------------
	BYTE	W78
	BYTE		N17     En2   v100
	BYTE	W18
// 062   ----------------------------------------
	BYTE	PATT
	 POIN2	PokemonSunandMoonVastPoniCanyonSme_9_026
// 063   ----------------------------------------
	BYTE	PATT
	 POIN2	PokemonSunandMoonVastPoniCanyonSme_9_029
// 064   ----------------------------------------
	BYTE	PATT
	 POIN2	PokemonSunandMoonVastPoniCanyonSme_9_030
// 065   ----------------------------------------
	BYTE	PATT
	 POIN2	PokemonSunandMoonVastPoniCanyonSme_9_031
// 066   ----------------------------------------
	BYTE		N92     Fn3   v100
	BYTE	W96
// 067   ----------------------------------------
	BYTE		        Gn3 
	BYTE	W96
// 068   ----------------------------------------
	BYTE	W96
// 069   ----------------------------------------
	BYTE	W96
// 070   ----------------------------------------
	BYTE	W96
// 071   ----------------------------------------
	BYTE	W96
	BYTE	GoTo
	 POIN2	PokemonSunandMoonVastPoniCanyonSme_9_B1
PokemonSunandMoonVastPoniCanyonSme_9_B2:
// 072   ----------------------------------------
	BYTE		N05     Cn3   v080
	BYTE	W06
	BYTE		N05   
	BYTE	W12
	BYTE		N05   
	BYTE	W06
	BYTE		N05   
	BYTE	W12
	BYTE		N05   
	BYTE	W06
	BYTE		N05   
	BYTE	W05
	BYTE	FINE

//**************** Track 10 (Midi-Chn.11) ****************//

PokemonSunandMoonVastPoniCanyonSme_10:
	BYTE	KEYSH   PokemonSunandMoonVastPoniCanyonSme_key+0
// 000   ----------------------------------------
	BYTE		VOICE   67
	BYTE		VOL     102*PokemonSunandMoonVastPoniCanyonSme_mvl/mxv
	BYTE		PAN     c_v+0
	BYTE	W96
// 001   ----------------------------------------
	BYTE	W96
// 002   ----------------------------------------
	BYTE	W96
// 003   ----------------------------------------
	BYTE	W96
// 004   ----------------------------------------
PokemonSunandMoonVastPoniCanyonSme_10_004:
	BYTE		N11     Fn2   v096
	BYTE	W12
	BYTE		N05     En2 
	BYTE	W06
	BYTE		        Fn2 
	BYTE	W36
	BYTE		N08     En2 
	BYTE	W18
	BYTE		N11   
	BYTE	W24
	BYTE	PEND
// 005   ----------------------------------------
PokemonSunandMoonVastPoniCanyonSme_10_005:
	BYTE		N05     An2   v096
	BYTE	W12
	BYTE		        Gn2 
	BYTE	W06
	BYTE		        An2 
	BYTE	W12
	BYTE		        Cn2 
	BYTE	W06
	BYTE		        Dn2 
	BYTE	W06
	BYTE		        Ds2 
	BYTE	W06
	BYTE		        En2 
	BYTE	W06
	BYTE		        An2 
	BYTE	W06
	BYTE		        An1 
	BYTE	W18
	BYTE		        An2 
	BYTE	W06
	BYTE		        Gn2 
	BYTE	W12
	BYTE	PEND
// 006   ----------------------------------------
	BYTE	PATT
	 POIN2	PokemonSunandMoonVastPoniCanyonSme_10_004
// 007   ----------------------------------------
	BYTE	PATT
	 POIN2	PokemonSunandMoonVastPoniCanyonSme_10_005
// 008   ----------------------------------------
	BYTE	PATT
	 POIN2	PokemonSunandMoonVastPoniCanyonSme_10_004
// 009   ----------------------------------------
	BYTE	PATT
	 POIN2	PokemonSunandMoonVastPoniCanyonSme_10_005
// 010   ----------------------------------------
	BYTE	PATT
	 POIN2	PokemonSunandMoonVastPoniCanyonSme_10_004
// 011   ----------------------------------------
	BYTE	PATT
	 POIN2	PokemonSunandMoonVastPoniCanyonSme_10_005
// 012   ----------------------------------------
	BYTE	PATT
	 POIN2	PokemonSunandMoonVastPoniCanyonSme_10_004
// 013   ----------------------------------------
PokemonSunandMoonVastPoniCanyonSme_10_013:
	BYTE		N05     An2   v096
	BYTE	W12
	BYTE		        Gn2 
	BYTE	W06
	BYTE		        An2 
	BYTE	W12
	BYTE		        Cn2 
	BYTE	W06
	BYTE		        Dn2 
	BYTE	W06
	BYTE		        Ds2 
	BYTE	W06
	BYTE		        En2 
	BYTE	W06
	BYTE		        An2 
	BYTE	W06
	BYTE		        An1 
	BYTE	W12
	BYTE		        An2 
	BYTE	W06
	BYTE		        Gn2 
	BYTE	W06
	BYTE		        Fn2 
	BYTE	W06
	BYTE		N17   
	BYTE	W06
	BYTE	PEND
// 014   ----------------------------------------
PokemonSunandMoonVastPoniCanyonSme_10_014:
	BYTE	W12
	BYTE		N05     Fn2   v096
	BYTE	W06
	BYTE		N05   
	BYTE	W36
	BYTE		N17     En2 
	BYTE	W18
	BYTE		N23   
	BYTE	W24
	BYTE	PEND
// 015   ----------------------------------------
PokemonSunandMoonVastPoniCanyonSme_10_015:
	BYTE		N05     An2   v096
	BYTE	W12
	BYTE		        Gn2 
	BYTE	W06
	BYTE		        An2 
	BYTE	W12
	BYTE		        Cn2 
	BYTE	W06
	BYTE		        Dn2 
	BYTE	W06
	BYTE		        Ds2 
	BYTE	W06
	BYTE		        En2 
	BYTE	W06
	BYTE		N17     An2 
	BYTE	W18
	BYTE		N23     Gn2 
	BYTE	W24
	BYTE	PEND
PokemonSunandMoonVastPoniCanyonSme_10_B1:
// 016   ----------------------------------------
PokemonSunandMoonVastPoniCanyonSme_10_016:
	BYTE		N17     Dn2   v100
	BYTE	W18
	BYTE		N05   
	BYTE	W18
	BYTE		N28     An1 
	BYTE	W30
	BYTE		N11     Dn2 
	BYTE	W12
	BYTE		N05     An1 
	BYTE	W06
	BYTE		        En2 
	BYTE	W06
	BYTE		        Fn2 
	BYTE	W06
	BYTE	PEND
// 017   ----------------------------------------
PokemonSunandMoonVastPoniCanyonSme_10_017:
	BYTE		N08     En2   v100
	BYTE	W18
	BYTE		N11   
	BYTE	W12
	BYTE		        Gn2 
	BYTE	W12
	BYTE		N17     En2 
	BYTE	W18
	BYTE		N11   
	BYTE	W12
	BYTE		        Bn2 
	BYTE	W12
	BYTE		N05     Gn2 
	BYTE	W06
	BYTE		        En2 
	BYTE	W06
	BYTE	PEND
// 018   ----------------------------------------
PokemonSunandMoonVastPoniCanyonSme_10_018:
	BYTE		N17     An2   v100
	BYTE	W18
	BYTE		N05   
	BYTE	W12
	BYTE		        En2 
	BYTE	W06
	BYTE		        Dn2 
	BYTE	W06
	BYTE		N11     An1 
	BYTE	W12
	BYTE		        An2 
	BYTE	W12
	BYTE		        En2 
	BYTE	W12
	BYTE		N05     An2 
	BYTE	W06
	BYTE		        En2 
	BYTE	W06
	BYTE		        Gs2 
	BYTE	W06
	BYTE	PEND
// 019   ----------------------------------------
PokemonSunandMoonVastPoniCanyonSme_10_019:
	BYTE		N23     An2   v100
	BYTE	W24
	BYTE		        Gs2 
	BYTE	W24
	BYTE		        Gn2 
	BYTE	W24
	BYTE		        Fs2 
	BYTE	W24
	BYTE	PEND
// 020   ----------------------------------------
PokemonSunandMoonVastPoniCanyonSme_10_020:
	BYTE		N17     Fn2   v100
	BYTE	W18
	BYTE		N05   
	BYTE	W18
	BYTE		N23   
	BYTE	W24
	BYTE		N17     Cn2 
	BYTE	W18
	BYTE		N05     Fn2 
	BYTE	W06
	BYTE		        An2 
	BYTE	W06
	BYTE		        Cn2 
	BYTE	W06
	BYTE	PEND
// 021   ----------------------------------------
PokemonSunandMoonVastPoniCanyonSme_10_021:
	BYTE		N17     En2   v100
	BYTE	W18
	BYTE		N05   
	BYTE	W18
	BYTE		N23     En1 
	BYTE	W24
	BYTE		N17     Gn1 
	BYTE	W18
	BYTE		N05     Cn2 
	BYTE	W06
	BYTE		        Gn1 
	BYTE	W06
	BYTE		        En1 
	BYTE	W06
	BYTE	PEND
// 022   ----------------------------------------
PokemonSunandMoonVastPoniCanyonSme_10_022:
	BYTE		N11     Dn1   v100
	BYTE	W12
	BYTE		N05     Dn2 
	BYTE	W18
	BYTE		N05   
	BYTE	W12
	BYTE		        Fn2 
	BYTE	W06
	BYTE		N11     En1 
	BYTE	W12
	BYTE		N05     En2 
	BYTE	W18
	BYTE		N05   
	BYTE	W12
	BYTE		N05   
	BYTE	W06
	BYTE	PEND
// 023   ----------------------------------------
PokemonSunandMoonVastPoniCanyonSme_10_023:
	BYTE		N08     Fn2   v100
	BYTE	W18
	BYTE		N11   
	BYTE	W12
	BYTE		N05     An1 
	BYTE	W06
	BYTE		        Cn2 
	BYTE	W06
	BYTE		        En2 
	BYTE	W06
	BYTE		N17     Fn2 
	BYTE	W18
	BYTE		N17   
	BYTE	W18
	BYTE		N11     Cn2 
	BYTE	W12
	BYTE	PEND
// 024   ----------------------------------------
PokemonSunandMoonVastPoniCanyonSme_10_024:
	BYTE		N08     Gn2   v100
	BYTE	W18
	BYTE		N17   
	BYTE	W18
	BYTE		N05     Fn2 
	BYTE	W06
	BYTE		        En2 
	BYTE	W06
	BYTE		N44     Gn2 
	BYTE	W48
	BYTE	PEND
// 025   ----------------------------------------
PokemonSunandMoonVastPoniCanyonSme_10_025:
	BYTE		N05     Gn1   v100
	BYTE	W06
	BYTE		        Dn2 
	BYTE	W06
	BYTE		        Cn2 
	BYTE	W06
	BYTE		N23     Gn1 
	BYTE	W24
	BYTE		N11     Gn2 
	BYTE	W12
	BYTE		N05     An2 
	BYTE	W06
	BYTE		N17     Gn2 
	BYTE	W18
	BYTE		N05     En1 
	BYTE	W06
	BYTE		        Gn1 
	BYTE	W06
	BYTE		        Gs1 
	BYTE	W06
	BYTE	PEND
// 026   ----------------------------------------
PokemonSunandMoonVastPoniCanyonSme_10_026:
	BYTE		N08     An1   v100
	BYTE	W18
	BYTE		N05   
	BYTE	W78
	BYTE	PEND
// 027   ----------------------------------------
	BYTE	W78
	BYTE		N17     En1 
	BYTE	W18
// 028   ----------------------------------------
	BYTE	PATT
	 POIN2	PokemonSunandMoonVastPoniCanyonSme_10_026
// 029   ----------------------------------------
PokemonSunandMoonVastPoniCanyonSme_10_029:
	BYTE	W78
	BYTE		N05     An1   v100
	BYTE	W06
	BYTE		        Gn1 
	BYTE	W06
	BYTE		        En1 
	BYTE	W06
	BYTE	PEND
// 030   ----------------------------------------
PokemonSunandMoonVastPoniCanyonSme_10_030:
	BYTE		N11     An1   v100
	BYTE	W36
	BYTE		N05     En1 
	BYTE	W36
	BYTE		N11     Dn1 
	BYTE	W24
	BYTE	PEND
// 031   ----------------------------------------
PokemonSunandMoonVastPoniCanyonSme_10_031:
	BYTE	W12
	BYTE		N05     Dn1   v100
	BYTE	W36
	BYTE		        En1 
	BYTE	W06
	BYTE		N08   
	BYTE	W18
	BYTE		N05   
	BYTE	W06
	BYTE		N05   
	BYTE	W06
	BYTE		        An1 
	BYTE	W06
	BYTE		        Gn1 
	BYTE	W06
	BYTE	PEND
// 032   ----------------------------------------
	BYTE		N92     Dn1 
	BYTE	W96
// 033   ----------------------------------------
	BYTE		        En1 
	BYTE	W96
// 034   ----------------------------------------
	BYTE	W96
// 035   ----------------------------------------
	BYTE	W96
// 036   ----------------------------------------
	BYTE	W96
// 037   ----------------------------------------
	BYTE	W96
// 038   ----------------------------------------
	BYTE	PATT
	 POIN2	PokemonSunandMoonVastPoniCanyonSme_10_004
// 039   ----------------------------------------
	BYTE	PATT
	 POIN2	PokemonSunandMoonVastPoniCanyonSme_10_005
// 040   ----------------------------------------
	BYTE	PATT
	 POIN2	PokemonSunandMoonVastPoniCanyonSme_10_004
// 041   ----------------------------------------
	BYTE	PATT
	 POIN2	PokemonSunandMoonVastPoniCanyonSme_10_005
// 042   ----------------------------------------
	BYTE	PATT
	 POIN2	PokemonSunandMoonVastPoniCanyonSme_10_004
// 043   ----------------------------------------
	BYTE	PATT
	 POIN2	PokemonSunandMoonVastPoniCanyonSme_10_005
// 044   ----------------------------------------
	BYTE	PATT
	 POIN2	PokemonSunandMoonVastPoniCanyonSme_10_004
// 045   ----------------------------------------
	BYTE	PATT
	 POIN2	PokemonSunandMoonVastPoniCanyonSme_10_005
// 046   ----------------------------------------
	BYTE	PATT
	 POIN2	PokemonSunandMoonVastPoniCanyonSme_10_004
// 047   ----------------------------------------
	BYTE	PATT
	 POIN2	PokemonSunandMoonVastPoniCanyonSme_10_013
// 048   ----------------------------------------
	BYTE	PATT
	 POIN2	PokemonSunandMoonVastPoniCanyonSme_10_014
// 049   ----------------------------------------
	BYTE	PATT
	 POIN2	PokemonSunandMoonVastPoniCanyonSme_10_015
// 050   ----------------------------------------
	BYTE	PATT
	 POIN2	PokemonSunandMoonVastPoniCanyonSme_10_016
// 051   ----------------------------------------
	BYTE	PATT
	 POIN2	PokemonSunandMoonVastPoniCanyonSme_10_017
// 052   ----------------------------------------
	BYTE	PATT
	 POIN2	PokemonSunandMoonVastPoniCanyonSme_10_018
// 053   ----------------------------------------
	BYTE	PATT
	 POIN2	PokemonSunandMoonVastPoniCanyonSme_10_019
// 054   ----------------------------------------
	BYTE	PATT
	 POIN2	PokemonSunandMoonVastPoniCanyonSme_10_020
// 055   ----------------------------------------
	BYTE	PATT
	 POIN2	PokemonSunandMoonVastPoniCanyonSme_10_021
// 056   ----------------------------------------
	BYTE	PATT
	 POIN2	PokemonSunandMoonVastPoniCanyonSme_10_022
// 057   ----------------------------------------
	BYTE	PATT
	 POIN2	PokemonSunandMoonVastPoniCanyonSme_10_023
// 058   ----------------------------------------
	BYTE	PATT
	 POIN2	PokemonSunandMoonVastPoniCanyonSme_10_024
// 059   ----------------------------------------
	BYTE	PATT
	 POIN2	PokemonSunandMoonVastPoniCanyonSme_10_025
// 060   ----------------------------------------
	BYTE	PATT
	 POIN2	PokemonSunandMoonVastPoniCanyonSme_10_026
// 061   ----------------------------------------
	BYTE	W78
	BYTE		N17     En1   v100
	BYTE	W18
// 062   ----------------------------------------
	BYTE	PATT
	 POIN2	PokemonSunandMoonVastPoniCanyonSme_10_026
// 063   ----------------------------------------
	BYTE	PATT
	 POIN2	PokemonSunandMoonVastPoniCanyonSme_10_029
// 064   ----------------------------------------
	BYTE	PATT
	 POIN2	PokemonSunandMoonVastPoniCanyonSme_10_030
// 065   ----------------------------------------
	BYTE	PATT
	 POIN2	PokemonSunandMoonVastPoniCanyonSme_10_031
// 066   ----------------------------------------
	BYTE		N92     Dn1   v100
	BYTE	W96
// 067   ----------------------------------------
	BYTE		        En1 
	BYTE	W96
// 068   ----------------------------------------
	BYTE	W96
// 069   ----------------------------------------
	BYTE	W96
// 070   ----------------------------------------
	BYTE	W96
// 071   ----------------------------------------
	BYTE	W96
	BYTE	GoTo
	 POIN2	PokemonSunandMoonVastPoniCanyonSme_10_B1
PokemonSunandMoonVastPoniCanyonSme_10_B2:
// 072   ----------------------------------------
	BYTE		N05     An1   v080
	BYTE	W06
	BYTE		N05   
	BYTE	W12
	BYTE		N05   
	BYTE	W06
	BYTE		N05   
	BYTE	W12
	BYTE		N05   
	BYTE	W06
	BYTE		N05   
	BYTE	W05
	BYTE	FINE

//**************** Track 11 (Midi-Chn.12) ****************//

PokemonSunandMoonVastPoniCanyonSme_11:
	BYTE	KEYSH   PokemonSunandMoonVastPoniCanyonSme_key+0
// 000   ----------------------------------------
	BYTE		VOICE   60
	BYTE		VOL     124*PokemonSunandMoonVastPoniCanyonSme_mvl/mxv
	BYTE		PAN     c_v+0
	BYTE		TIE     An3   v096
	BYTE	W96
// 001   ----------------------------------------
	BYTE	W92
	BYTE	W03
	BYTE		EOT   
	BYTE	W01
// 002   ----------------------------------------
	BYTE		TIE     Gn3 
	BYTE	W96
// 003   ----------------------------------------
	BYTE	W92
	BYTE	W03
	BYTE		EOT   
	BYTE	W01
// 004   ----------------------------------------
PokemonSunandMoonVastPoniCanyonSme_11_004:
	BYTE		N44     Fn3   v096
	BYTE	W48
	BYTE		        Gs3 
	BYTE	W48
	BYTE	PEND
// 005   ----------------------------------------
	BYTE		N92     Gn3 
	BYTE	W96
// 006   ----------------------------------------
	BYTE	PATT
	 POIN2	PokemonSunandMoonVastPoniCanyonSme_11_004
// 007   ----------------------------------------
	BYTE		N92     Gn3   v096
	BYTE	W96
// 008   ----------------------------------------
	BYTE	W96
// 009   ----------------------------------------
	BYTE	W96
// 010   ----------------------------------------
	BYTE	W96
// 011   ----------------------------------------
	BYTE	W96
// 012   ----------------------------------------
	BYTE	W96
// 013   ----------------------------------------
	BYTE	W96
// 014   ----------------------------------------
	BYTE	W96
// 015   ----------------------------------------
	BYTE	W96
PokemonSunandMoonVastPoniCanyonSme_11_B1:
// 016   ----------------------------------------
	BYTE		N92     Cn4   v096
	BYTE	W96
// 017   ----------------------------------------
PokemonSunandMoonVastPoniCanyonSme_11_017:
	BYTE		N23     Bn2   v080
	BYTE	W24
	BYTE		N17     Dn3 
	BYTE	W18
	BYTE		N52     Bn2 
	BYTE	W54
	BYTE	PEND
// 018   ----------------------------------------
PokemonSunandMoonVastPoniCanyonSme_11_018:
	BYTE		N23     Cn3   v080
	BYTE	W24
	BYTE		N17     An3 
	BYTE	W18
	BYTE		N52     Gn3 
	BYTE	W54
	BYTE	PEND
// 019   ----------------------------------------
PokemonSunandMoonVastPoniCanyonSme_11_019:
	BYTE		N23     Gn3   v080
	BYTE	W24
	BYTE		        Fs3 
	BYTE	W24
	BYTE		        Fn3 
	BYTE	W24
	BYTE		        En3 
	BYTE	W24
	BYTE	PEND
// 020   ----------------------------------------
PokemonSunandMoonVastPoniCanyonSme_11_020:
	BYTE	W06
	BYTE		N05     Cn3   v080
	BYTE	W06
	BYTE		        Dn3 
	BYTE	W06
	BYTE		        Cn3 
	BYTE	W06
	BYTE		N11     En3 
	BYTE	W12
	BYTE		N05   
	BYTE	W06
	BYTE		N05   
	BYTE	W12
	BYTE		N05   
	BYTE	W06
	BYTE		        Gn3 
	BYTE	W18
	BYTE		N08     En3 
	BYTE	W18
	BYTE	PEND
// 021   ----------------------------------------
	BYTE	PATT
	 POIN2	PokemonSunandMoonVastPoniCanyonSme_11_020
// 022   ----------------------------------------
PokemonSunandMoonVastPoniCanyonSme_11_022:
	BYTE	W12
	BYTE		N11     An2   v080
	BYTE	W12
	BYTE		N02   
	BYTE	W06
	BYTE		N17   
	BYTE	W24
	BYTE		N02     Bn2 
	BYTE	W06
	BYTE		N02   
	BYTE	W06
	BYTE		N17   
	BYTE	W30
	BYTE	PEND
// 023   ----------------------------------------
	BYTE	W96
// 024   ----------------------------------------
	BYTE	W96
// 025   ----------------------------------------
	BYTE	W96
// 026   ----------------------------------------
	BYTE	W96
// 027   ----------------------------------------
	BYTE	W96
// 028   ----------------------------------------
	BYTE	W96
// 029   ----------------------------------------
	BYTE	W96
// 030   ----------------------------------------
	BYTE	W96
// 031   ----------------------------------------
	BYTE	W96
// 032   ----------------------------------------
	BYTE		N92     Cn4   v100
	BYTE	W96
// 033   ----------------------------------------
	BYTE		        Dn4 
	BYTE	W96
// 034   ----------------------------------------
	BYTE	W96
// 035   ----------------------------------------
	BYTE	W96
// 036   ----------------------------------------
	BYTE	W96
// 037   ----------------------------------------
	BYTE	W96
// 038   ----------------------------------------
	BYTE	PATT
	 POIN2	PokemonSunandMoonVastPoniCanyonSme_11_004
// 039   ----------------------------------------
	BYTE		N92     Gn3   v096
	BYTE	W96
// 040   ----------------------------------------
	BYTE	PATT
	 POIN2	PokemonSunandMoonVastPoniCanyonSme_11_004
// 041   ----------------------------------------
	BYTE		N92     Gn3   v096
	BYTE	W96
// 042   ----------------------------------------
	BYTE	W96
// 043   ----------------------------------------
	BYTE	W96
// 044   ----------------------------------------
	BYTE	W96
// 045   ----------------------------------------
	BYTE	W96
// 046   ----------------------------------------
	BYTE	W96
// 047   ----------------------------------------
	BYTE	W96
// 048   ----------------------------------------
	BYTE	W96
// 049   ----------------------------------------
	BYTE	W96
// 050   ----------------------------------------
	BYTE		        Cn4 
	BYTE	W96
// 051   ----------------------------------------
	BYTE	PATT
	 POIN2	PokemonSunandMoonVastPoniCanyonSme_11_017
// 052   ----------------------------------------
	BYTE	PATT
	 POIN2	PokemonSunandMoonVastPoniCanyonSme_11_018
// 053   ----------------------------------------
	BYTE	PATT
	 POIN2	PokemonSunandMoonVastPoniCanyonSme_11_019
// 054   ----------------------------------------
	BYTE	PATT
	 POIN2	PokemonSunandMoonVastPoniCanyonSme_11_020
// 055   ----------------------------------------
	BYTE	PATT
	 POIN2	PokemonSunandMoonVastPoniCanyonSme_11_020
// 056   ----------------------------------------
	BYTE	PATT
	 POIN2	PokemonSunandMoonVastPoniCanyonSme_11_022
// 057   ----------------------------------------
	BYTE	W96
// 058   ----------------------------------------
	BYTE	W96
// 059   ----------------------------------------
	BYTE	W96
// 060   ----------------------------------------
	BYTE	W96
// 061   ----------------------------------------
	BYTE	W96
// 062   ----------------------------------------
	BYTE	W96
// 063   ----------------------------------------
	BYTE	W96
// 064   ----------------------------------------
	BYTE	W96
// 065   ----------------------------------------
	BYTE	W96
// 066   ----------------------------------------
	BYTE		N92     Cn4   v100
	BYTE	W96
// 067   ----------------------------------------
	BYTE		        Dn4 
	BYTE	W96
// 068   ----------------------------------------
	BYTE	W96
// 069   ----------------------------------------
	BYTE	W96
// 070   ----------------------------------------
	BYTE	W96
// 071   ----------------------------------------
	BYTE	W96
	BYTE	GoTo
	 POIN2	PokemonSunandMoonVastPoniCanyonSme_11_B1
PokemonSunandMoonVastPoniCanyonSme_11_B2:
// 072   ----------------------------------------
	BYTE		N05     An3   v096
	BYTE	W06
	BYTE		N05   
	BYTE	W12
	BYTE		N05   
	BYTE	W06
	BYTE		N05   
	BYTE	W12
	BYTE		N05   
	BYTE	W06
	BYTE		N05   
	BYTE	W05
	BYTE	FINE

//**************** Track 12 (Midi-Chn.13) ****************//

PokemonSunandMoonVastPoniCanyonSme_12:
	BYTE	KEYSH   PokemonSunandMoonVastPoniCanyonSme_key+0
// 000   ----------------------------------------
	BYTE		VOICE   60
	BYTE		VOL     127*PokemonSunandMoonVastPoniCanyonSme_mvl/mxv
	BYTE		PAN     c_v+0
	BYTE		TIE     En3   v096
	BYTE	W96
// 001   ----------------------------------------
	BYTE	W92
	BYTE	W03
	BYTE		EOT   
	BYTE	W01
// 002   ----------------------------------------
	BYTE		TIE     Dn3 
	BYTE	W96
// 003   ----------------------------------------
	BYTE	W92
	BYTE	W03
	BYTE		EOT   
	BYTE	W01
// 004   ----------------------------------------
PokemonSunandMoonVastPoniCanyonSme_12_004:
	BYTE		N44     Cn3   v096
	BYTE	W48
	BYTE		        En3 
	BYTE	W48
	BYTE	PEND
// 005   ----------------------------------------
	BYTE		N92     Dn3 
	BYTE	W96
// 006   ----------------------------------------
	BYTE	PATT
	 POIN2	PokemonSunandMoonVastPoniCanyonSme_12_004
// 007   ----------------------------------------
	BYTE		N92     Dn3   v096
	BYTE	W96
// 008   ----------------------------------------
	BYTE	W96
// 009   ----------------------------------------
	BYTE	W96
// 010   ----------------------------------------
	BYTE	W96
// 011   ----------------------------------------
	BYTE	W96
// 012   ----------------------------------------
	BYTE	W96
// 013   ----------------------------------------
	BYTE	W96
// 014   ----------------------------------------
	BYTE	W96
// 015   ----------------------------------------
	BYTE	W96
PokemonSunandMoonVastPoniCanyonSme_12_B1:
// 016   ----------------------------------------
	BYTE		N92     An3   v096
	BYTE	W96
// 017   ----------------------------------------
PokemonSunandMoonVastPoniCanyonSme_12_017:
	BYTE		N23     Gn2   v080
	BYTE	W24
	BYTE		N17   
	BYTE	W18
	BYTE		N52   
	BYTE	W54
	BYTE	PEND
// 018   ----------------------------------------
PokemonSunandMoonVastPoniCanyonSme_12_018:
	BYTE		N23     An2   v080
	BYTE	W24
	BYTE		N17     En3 
	BYTE	W18
	BYTE		N52   
	BYTE	W54
	BYTE	PEND
// 019   ----------------------------------------
PokemonSunandMoonVastPoniCanyonSme_12_019:
	BYTE		N23     En3   v080
	BYTE	W24
	BYTE		        Ds3 
	BYTE	W24
	BYTE		        Dn3 
	BYTE	W24
	BYTE		        Cs3 
	BYTE	W24
	BYTE	PEND
// 020   ----------------------------------------
PokemonSunandMoonVastPoniCanyonSme_12_020:
	BYTE	W06
	BYTE		N05     Cn3   v080
	BYTE	W06
	BYTE		        Dn3 
	BYTE	W06
	BYTE		        Cn3 
	BYTE	W06
	BYTE		N11   
	BYTE	W12
	BYTE		N05   
	BYTE	W06
	BYTE		N05   
	BYTE	W12
	BYTE		N05   
	BYTE	W06
	BYTE		        En3 
	BYTE	W18
	BYTE		N08     Cn3 
	BYTE	W18
	BYTE	PEND
// 021   ----------------------------------------
	BYTE	PATT
	 POIN2	PokemonSunandMoonVastPoniCanyonSme_12_020
// 022   ----------------------------------------
PokemonSunandMoonVastPoniCanyonSme_12_022:
	BYTE	W12
	BYTE		N11     Fn2   v080
	BYTE	W12
	BYTE		N02   
	BYTE	W06
	BYTE		N17   
	BYTE	W24
	BYTE		N02     Gn2 
	BYTE	W06
	BYTE		N02   
	BYTE	W06
	BYTE		N17   
	BYTE	W30
	BYTE	PEND
// 023   ----------------------------------------
	BYTE	W96
// 024   ----------------------------------------
	BYTE	W96
// 025   ----------------------------------------
	BYTE	W96
// 026   ----------------------------------------
	BYTE	W96
// 027   ----------------------------------------
	BYTE	W96
// 028   ----------------------------------------
	BYTE	W96
// 029   ----------------------------------------
	BYTE	W96
// 030   ----------------------------------------
	BYTE	W96
// 031   ----------------------------------------
	BYTE	W96
// 032   ----------------------------------------
	BYTE		N92     An3   v100
	BYTE	W96
// 033   ----------------------------------------
	BYTE		        Bn3 
	BYTE	W96
// 034   ----------------------------------------
	BYTE	W96
// 035   ----------------------------------------
	BYTE	W96
// 036   ----------------------------------------
	BYTE	W96
// 037   ----------------------------------------
	BYTE	W96
// 038   ----------------------------------------
	BYTE	PATT
	 POIN2	PokemonSunandMoonVastPoniCanyonSme_12_004
// 039   ----------------------------------------
	BYTE		N92     Dn3   v096
	BYTE	W96
// 040   ----------------------------------------
	BYTE	PATT
	 POIN2	PokemonSunandMoonVastPoniCanyonSme_12_004
// 041   ----------------------------------------
	BYTE		N92     Dn3   v096
	BYTE	W96
// 042   ----------------------------------------
	BYTE	W96
// 043   ----------------------------------------
	BYTE	W96
// 044   ----------------------------------------
	BYTE	W96
// 045   ----------------------------------------
	BYTE	W96
// 046   ----------------------------------------
	BYTE	W96
// 047   ----------------------------------------
	BYTE	W96
// 048   ----------------------------------------
	BYTE	W96
// 049   ----------------------------------------
	BYTE	W96
// 050   ----------------------------------------
	BYTE		        An3 
	BYTE	W96
// 051   ----------------------------------------
	BYTE	PATT
	 POIN2	PokemonSunandMoonVastPoniCanyonSme_12_017
// 052   ----------------------------------------
	BYTE	PATT
	 POIN2	PokemonSunandMoonVastPoniCanyonSme_12_018
// 053   ----------------------------------------
	BYTE	PATT
	 POIN2	PokemonSunandMoonVastPoniCanyonSme_12_019
// 054   ----------------------------------------
	BYTE	PATT
	 POIN2	PokemonSunandMoonVastPoniCanyonSme_12_020
// 055   ----------------------------------------
	BYTE	PATT
	 POIN2	PokemonSunandMoonVastPoniCanyonSme_12_020
// 056   ----------------------------------------
	BYTE	PATT
	 POIN2	PokemonSunandMoonVastPoniCanyonSme_12_022
// 057   ----------------------------------------
	BYTE	W96
// 058   ----------------------------------------
	BYTE	W96
// 059   ----------------------------------------
	BYTE	W96
// 060   ----------------------------------------
	BYTE	W96
// 061   ----------------------------------------
	BYTE	W96
// 062   ----------------------------------------
	BYTE	W96
// 063   ----------------------------------------
	BYTE	W96
// 064   ----------------------------------------
	BYTE	W96
// 065   ----------------------------------------
	BYTE	W96
// 066   ----------------------------------------
	BYTE		N92     An3   v100
	BYTE	W96
// 067   ----------------------------------------
	BYTE		        Bn3 
	BYTE	W96
// 068   ----------------------------------------
	BYTE	W96
// 069   ----------------------------------------
	BYTE	W96
// 070   ----------------------------------------
	BYTE	W96
// 071   ----------------------------------------
	BYTE	W96
	BYTE	GoTo
	 POIN2	PokemonSunandMoonVastPoniCanyonSme_12_B1
PokemonSunandMoonVastPoniCanyonSme_12_B2:
// 072   ----------------------------------------
	BYTE		N05     En3   v096
	BYTE	W06
	BYTE		N05   
	BYTE	W12
	BYTE		N05   
	BYTE	W06
	BYTE		N05   
	BYTE	W12
	BYTE		N05   
	BYTE	W06
	BYTE		N05   
	BYTE	W05
	BYTE	FINE

//**************** Track 13 (Midi-Chn.14) ****************//

PokemonSunandMoonVastPoniCanyonSme_13:
	BYTE	KEYSH   PokemonSunandMoonVastPoniCanyonSme_key+0
// 000   ----------------------------------------
	BYTE		VOICE   58
	BYTE		VOL     100*PokemonSunandMoonVastPoniCanyonSme_mvl/mxv
	BYTE		PAN     c_v+0
	BYTE		TIE     An0   v080
	BYTE	W96
// 001   ----------------------------------------
	BYTE	W92
	BYTE	W03
	BYTE		EOT   
	BYTE	W01
// 002   ----------------------------------------
	BYTE		TIE     Gn0 
	BYTE	W96
// 003   ----------------------------------------
	BYTE	W92
	BYTE	W03
	BYTE		EOT   
	BYTE	W01
// 004   ----------------------------------------
PokemonSunandMoonVastPoniCanyonSme_13_004:
	BYTE		N11     Fn1   v112
	BYTE	W12
	BYTE		N05     En1 
	BYTE	W06
	BYTE		        Fn1 
	BYTE	W36
	BYTE		N08     En1 
	BYTE	W18
	BYTE		N11   
	BYTE	W24
	BYTE	PEND
// 005   ----------------------------------------
PokemonSunandMoonVastPoniCanyonSme_13_005:
	BYTE		N05     An1   v112
	BYTE	W12
	BYTE		        Gn1 
	BYTE	W06
	BYTE		        An1 
	BYTE	W12
	BYTE		        Cn1 
	BYTE	W06
	BYTE		        Dn1 
	BYTE	W06
	BYTE		        Ds1 
	BYTE	W06
	BYTE		        En1 
	BYTE	W06
	BYTE		        An1 
	BYTE	W06
	BYTE		        An0 
	BYTE	W18
	BYTE		        An1 
	BYTE	W06
	BYTE		        Gn1 
	BYTE	W12
	BYTE	PEND
// 006   ----------------------------------------
	BYTE	PATT
	 POIN2	PokemonSunandMoonVastPoniCanyonSme_13_004
// 007   ----------------------------------------
	BYTE	PATT
	 POIN2	PokemonSunandMoonVastPoniCanyonSme_13_005
// 008   ----------------------------------------
	BYTE	PATT
	 POIN2	PokemonSunandMoonVastPoniCanyonSme_13_004
// 009   ----------------------------------------
	BYTE	PATT
	 POIN2	PokemonSunandMoonVastPoniCanyonSme_13_005
// 010   ----------------------------------------
	BYTE	PATT
	 POIN2	PokemonSunandMoonVastPoniCanyonSme_13_004
// 011   ----------------------------------------
	BYTE	PATT
	 POIN2	PokemonSunandMoonVastPoniCanyonSme_13_005
// 012   ----------------------------------------
	BYTE	PATT
	 POIN2	PokemonSunandMoonVastPoniCanyonSme_13_004
// 013   ----------------------------------------
PokemonSunandMoonVastPoniCanyonSme_13_013:
	BYTE		N05     An1   v112
	BYTE	W12
	BYTE		        Gn1 
	BYTE	W06
	BYTE		        An1 
	BYTE	W12
	BYTE		        Cn1 
	BYTE	W06
	BYTE		        Dn1 
	BYTE	W06
	BYTE		        Ds1 
	BYTE	W06
	BYTE		        En1 
	BYTE	W06
	BYTE		        An1 
	BYTE	W06
	BYTE		        An0 
	BYTE	W12
	BYTE		        An1 
	BYTE	W06
	BYTE		        Gn1 
	BYTE	W06
	BYTE		        Fn1 
	BYTE	W06
	BYTE		N17   
	BYTE	W06
	BYTE	PEND
// 014   ----------------------------------------
PokemonSunandMoonVastPoniCanyonSme_13_014:
	BYTE	W12
	BYTE		N05     Fn1   v112
	BYTE	W06
	BYTE		N05   
	BYTE	W36
	BYTE		N17     En1 
	BYTE	W18
	BYTE		N23   
	BYTE	W24
	BYTE	PEND
// 015   ----------------------------------------
PokemonSunandMoonVastPoniCanyonSme_13_015:
	BYTE		N05     An1   v112
	BYTE	W12
	BYTE		        Gn1 
	BYTE	W06
	BYTE		        An1 
	BYTE	W12
	BYTE		        Cn1 
	BYTE	W06
	BYTE		        Dn1 
	BYTE	W06
	BYTE		        Ds1 
	BYTE	W06
	BYTE		        En1 
	BYTE	W06
	BYTE		N17     An1 
	BYTE	W18
	BYTE		N23     Gn1 
	BYTE	W24
	BYTE	PEND
PokemonSunandMoonVastPoniCanyonSme_13_B1:
// 016   ----------------------------------------
PokemonSunandMoonVastPoniCanyonSme_13_016:
	BYTE		N17     Dn1   v100
	BYTE	W18
	BYTE		N05   
	BYTE	W18
	BYTE		N28     An0 
	BYTE	W30
	BYTE		N11     Dn1 
	BYTE	W12
	BYTE		N05     An0 
	BYTE	W06
	BYTE		        En1 
	BYTE	W06
	BYTE		        Fn1 
	BYTE	W06
	BYTE	PEND
// 017   ----------------------------------------
PokemonSunandMoonVastPoniCanyonSme_13_017:
	BYTE		N08     En1   v100
	BYTE	W18
	BYTE		N11   
	BYTE	W12
	BYTE		        Gn1 
	BYTE	W12
	BYTE		N17     En1 
	BYTE	W18
	BYTE		N11   
	BYTE	W12
	BYTE		        Bn1 
	BYTE	W12
	BYTE		N05     Gn1 
	BYTE	W06
	BYTE		        En1 
	BYTE	W06
	BYTE	PEND
// 018   ----------------------------------------
PokemonSunandMoonVastPoniCanyonSme_13_018:
	BYTE		N17     An1   v100
	BYTE	W18
	BYTE		N05   
	BYTE	W12
	BYTE		        En1 
	BYTE	W06
	BYTE		        Dn1 
	BYTE	W06
	BYTE		N11     An0 
	BYTE	W12
	BYTE		        An1 
	BYTE	W12
	BYTE		        En1 
	BYTE	W12
	BYTE		N05     An1 
	BYTE	W06
	BYTE		        En1 
	BYTE	W06
	BYTE		        Gs1 
	BYTE	W06
	BYTE	PEND
// 019   ----------------------------------------
PokemonSunandMoonVastPoniCanyonSme_13_019:
	BYTE		N23     An1   v100
	BYTE	W24
	BYTE		        Gs1 
	BYTE	W24
	BYTE		        Gn1 
	BYTE	W24
	BYTE		        Fs1 
	BYTE	W24
	BYTE	PEND
// 020   ----------------------------------------
PokemonSunandMoonVastPoniCanyonSme_13_020:
	BYTE		N17     Fn1   v100
	BYTE	W18
	BYTE		N05   
	BYTE	W18
	BYTE		N23   
	BYTE	W24
	BYTE		N17     Cn1 
	BYTE	W18
	BYTE		N05     Fn1 
	BYTE	W06
	BYTE		        An1 
	BYTE	W06
	BYTE		        Cn1 
	BYTE	W06
	BYTE	PEND
// 021   ----------------------------------------
PokemonSunandMoonVastPoniCanyonSme_13_021:
	BYTE		N17     En1   v100
	BYTE	W18
	BYTE		N05   
	BYTE	W18
	BYTE		N23     En0 
	BYTE	W24
	BYTE		N17     Gn0 
	BYTE	W18
	BYTE		N05     Cn1 
	BYTE	W06
	BYTE		        Gn0 
	BYTE	W06
	BYTE		        En0 
	BYTE	W06
	BYTE	PEND
// 022   ----------------------------------------
PokemonSunandMoonVastPoniCanyonSme_13_022:
	BYTE		N11     Dn0   v100
	BYTE	W12
	BYTE		N05     Dn1 
	BYTE	W18
	BYTE		N05   
	BYTE	W12
	BYTE		        Fn1 
	BYTE	W06
	BYTE		N11     En0 
	BYTE	W12
	BYTE		N05     En1 
	BYTE	W18
	BYTE		N05   
	BYTE	W12
	BYTE		N05   
	BYTE	W06
	BYTE	PEND
// 023   ----------------------------------------
PokemonSunandMoonVastPoniCanyonSme_13_023:
	BYTE		N08     Fn1   v100
	BYTE	W18
	BYTE		N11   
	BYTE	W12
	BYTE		N05     An0 
	BYTE	W06
	BYTE		        Cn1 
	BYTE	W06
	BYTE		        En1 
	BYTE	W06
	BYTE		N17     Fn1 
	BYTE	W18
	BYTE		N17   
	BYTE	W18
	BYTE		N11     Cn1 
	BYTE	W12
	BYTE	PEND
// 024   ----------------------------------------
PokemonSunandMoonVastPoniCanyonSme_13_024:
	BYTE		N08     Gn1   v100
	BYTE	W18
	BYTE		N17   
	BYTE	W18
	BYTE		N05     Fn1 
	BYTE	W06
	BYTE		        En1 
	BYTE	W06
	BYTE		N44     Gn1 
	BYTE	W48
	BYTE	PEND
// 025   ----------------------------------------
PokemonSunandMoonVastPoniCanyonSme_13_025:
	BYTE		N05     Gn0   v100
	BYTE	W06
	BYTE		        Dn1 
	BYTE	W06
	BYTE		        Cn1 
	BYTE	W06
	BYTE		N23     Gn0 
	BYTE	W24
	BYTE		N11     Gn1 
	BYTE	W12
	BYTE		N05     An1 
	BYTE	W06
	BYTE		N17     Gn1 
	BYTE	W18
	BYTE		N05     En1 
	BYTE	W06
	BYTE		        Gn1 
	BYTE	W06
	BYTE		        Gs1 
	BYTE	W06
	BYTE	PEND
// 026   ----------------------------------------
PokemonSunandMoonVastPoniCanyonSme_13_026:
	BYTE		N08     An1   v100
	BYTE	W18
	BYTE		N05   
	BYTE	W78
	BYTE	PEND
// 027   ----------------------------------------
	BYTE	W78
	BYTE		N17     En1 
	BYTE	W18
// 028   ----------------------------------------
	BYTE	PATT
	 POIN2	PokemonSunandMoonVastPoniCanyonSme_13_026
// 029   ----------------------------------------
PokemonSunandMoonVastPoniCanyonSme_13_029:
	BYTE	W78
	BYTE		N05     An1   v100
	BYTE	W06
	BYTE		        Gn1 
	BYTE	W06
	BYTE		        En1 
	BYTE	W06
	BYTE	PEND
// 030   ----------------------------------------
PokemonSunandMoonVastPoniCanyonSme_13_030:
	BYTE		N11     An1   v100
	BYTE	W36
	BYTE		N05     En1 
	BYTE	W36
	BYTE		N11     Dn1 
	BYTE	W24
	BYTE	PEND
// 031   ----------------------------------------
PokemonSunandMoonVastPoniCanyonSme_13_031:
	BYTE	W12
	BYTE		N05     Dn1   v100
	BYTE	W36
	BYTE		        En1 
	BYTE	W06
	BYTE		N08   
	BYTE	W18
	BYTE		N05   
	BYTE	W06
	BYTE		N05   
	BYTE	W06
	BYTE		        An1 
	BYTE	W06
	BYTE		        Gn1 
	BYTE	W06
	BYTE	PEND
// 032   ----------------------------------------
	BYTE		N92     Dn1 
	BYTE	W96
// 033   ----------------------------------------
	BYTE		        En1 
	BYTE	W96
// 034   ----------------------------------------
PokemonSunandMoonVastPoniCanyonSme_13_034:
	BYTE	W12
	BYTE		N05     Gn1   v100
	BYTE	W06
	BYTE		        An1 
	BYTE	W12
	BYTE		        Dn1 
	BYTE	W06
	BYTE		        En1 
	BYTE	W12
	BYTE		        Gn1 
	BYTE	W06
	BYTE		        An1 
	BYTE	W06
	BYTE		        Cn2 
	BYTE	W06
	BYTE		        Bn1 
	BYTE	W12
	BYTE		        Gn1 
	BYTE	W06
	BYTE		        An1 
	BYTE	W12
	BYTE	PEND
// 035   ----------------------------------------
PokemonSunandMoonVastPoniCanyonSme_13_035:
	BYTE		N05     Dn1   v100
	BYTE	W06
	BYTE		        En1 
	BYTE	W12
	BYTE		        Gn1 
	BYTE	W06
	BYTE		        An1 
	BYTE	W06
	BYTE		        Cn2 
	BYTE	W06
	BYTE		        Bn1 
	BYTE	W06
	BYTE		        Gn1 
	BYTE	W12
	BYTE		        An1 
	BYTE	W06
	BYTE		        Gn1 
	BYTE	W12
	BYTE		        An1 
	BYTE	W06
	BYTE		N08     En1 
	BYTE	W18
	BYTE	PEND
// 036   ----------------------------------------
	BYTE	PATT
	 POIN2	PokemonSunandMoonVastPoniCanyonSme_13_034
// 037   ----------------------------------------
	BYTE	PATT
	 POIN2	PokemonSunandMoonVastPoniCanyonSme_13_035
// 038   ----------------------------------------
	BYTE	PATT
	 POIN2	PokemonSunandMoonVastPoniCanyonSme_13_004
// 039   ----------------------------------------
	BYTE	PATT
	 POIN2	PokemonSunandMoonVastPoniCanyonSme_13_005
// 040   ----------------------------------------
	BYTE	PATT
	 POIN2	PokemonSunandMoonVastPoniCanyonSme_13_004
// 041   ----------------------------------------
	BYTE	PATT
	 POIN2	PokemonSunandMoonVastPoniCanyonSme_13_005
// 042   ----------------------------------------
	BYTE	PATT
	 POIN2	PokemonSunandMoonVastPoniCanyonSme_13_004
// 043   ----------------------------------------
	BYTE	PATT
	 POIN2	PokemonSunandMoonVastPoniCanyonSme_13_005
// 044   ----------------------------------------
	BYTE	PATT
	 POIN2	PokemonSunandMoonVastPoniCanyonSme_13_004
// 045   ----------------------------------------
	BYTE	PATT
	 POIN2	PokemonSunandMoonVastPoniCanyonSme_13_005
// 046   ----------------------------------------
	BYTE	PATT
	 POIN2	PokemonSunandMoonVastPoniCanyonSme_13_004
// 047   ----------------------------------------
	BYTE	PATT
	 POIN2	PokemonSunandMoonVastPoniCanyonSme_13_013
// 048   ----------------------------------------
	BYTE	PATT
	 POIN2	PokemonSunandMoonVastPoniCanyonSme_13_014
// 049   ----------------------------------------
	BYTE	PATT
	 POIN2	PokemonSunandMoonVastPoniCanyonSme_13_015
// 050   ----------------------------------------
	BYTE	PATT
	 POIN2	PokemonSunandMoonVastPoniCanyonSme_13_016
// 051   ----------------------------------------
	BYTE	PATT
	 POIN2	PokemonSunandMoonVastPoniCanyonSme_13_017
// 052   ----------------------------------------
	BYTE	PATT
	 POIN2	PokemonSunandMoonVastPoniCanyonSme_13_018
// 053   ----------------------------------------
	BYTE	PATT
	 POIN2	PokemonSunandMoonVastPoniCanyonSme_13_019
// 054   ----------------------------------------
	BYTE	PATT
	 POIN2	PokemonSunandMoonVastPoniCanyonSme_13_020
// 055   ----------------------------------------
	BYTE	PATT
	 POIN2	PokemonSunandMoonVastPoniCanyonSme_13_021
// 056   ----------------------------------------
	BYTE	PATT
	 POIN2	PokemonSunandMoonVastPoniCanyonSme_13_022
// 057   ----------------------------------------
	BYTE	PATT
	 POIN2	PokemonSunandMoonVastPoniCanyonSme_13_023
// 058   ----------------------------------------
	BYTE	PATT
	 POIN2	PokemonSunandMoonVastPoniCanyonSme_13_024
// 059   ----------------------------------------
	BYTE	PATT
	 POIN2	PokemonSunandMoonVastPoniCanyonSme_13_025
// 060   ----------------------------------------
	BYTE	PATT
	 POIN2	PokemonSunandMoonVastPoniCanyonSme_13_026
// 061   ----------------------------------------
	BYTE	W78
	BYTE		N17     En1   v100
	BYTE	W18
// 062   ----------------------------------------
	BYTE	PATT
	 POIN2	PokemonSunandMoonVastPoniCanyonSme_13_026
// 063   ----------------------------------------
	BYTE	PATT
	 POIN2	PokemonSunandMoonVastPoniCanyonSme_13_029
// 064   ----------------------------------------
	BYTE	PATT
	 POIN2	PokemonSunandMoonVastPoniCanyonSme_13_030
// 065   ----------------------------------------
	BYTE	PATT
	 POIN2	PokemonSunandMoonVastPoniCanyonSme_13_031
// 066   ----------------------------------------
	BYTE		N92     Dn1   v100
	BYTE	W96
// 067   ----------------------------------------
	BYTE		        En1 
	BYTE	W96
// 068   ----------------------------------------
	BYTE	PATT
	 POIN2	PokemonSunandMoonVastPoniCanyonSme_13_034
// 069   ----------------------------------------
	BYTE	PATT
	 POIN2	PokemonSunandMoonVastPoniCanyonSme_13_035
// 070   ----------------------------------------
	BYTE	PATT
	 POIN2	PokemonSunandMoonVastPoniCanyonSme_13_034
// 071   ----------------------------------------
	BYTE	PATT
	 POIN2	PokemonSunandMoonVastPoniCanyonSme_13_035
	BYTE	GoTo
	 POIN2	PokemonSunandMoonVastPoniCanyonSme_13_B1
PokemonSunandMoonVastPoniCanyonSme_13_B2:
// 072   ----------------------------------------
	BYTE		N05     An1   v112
	BYTE	W06
	BYTE		N05   
	BYTE	W12
	BYTE		N05   
	BYTE	W06
	BYTE		N05   
	BYTE	W12
	BYTE		N05   
	BYTE	W06
	BYTE		N05   
	BYTE	W05
	BYTE	FINE

//**************** Track 14 (Midi-Chn.15) ****************//

PokemonSunandMoonVastPoniCanyonSme_14:
	BYTE	KEYSH   PokemonSunandMoonVastPoniCanyonSme_key+0
// 000   ----------------------------------------
	BYTE		VOICE   34
	BYTE		VOL     100*PokemonSunandMoonVastPoniCanyonSme_mvl/mxv
	BYTE		PAN     c_v+0
	BYTE		TIE     An0   v080
	BYTE	W96
// 001   ----------------------------------------
	BYTE	W92
	BYTE	W03
	BYTE		EOT   
	BYTE	W01
// 002   ----------------------------------------
	BYTE		TIE     Gn0 
	BYTE	W96
// 003   ----------------------------------------
	BYTE	W92
	BYTE	W03
	BYTE		EOT   
	BYTE	W01
// 004   ----------------------------------------
PokemonSunandMoonVastPoniCanyonSme_14_004:
	BYTE		N11     Fn1   v112
	BYTE	W12
	BYTE		N05     En1 
	BYTE	W06
	BYTE		        Fn1 
	BYTE	W36
	BYTE		N08     En1 
	BYTE	W18
	BYTE		N11   
	BYTE	W24
	BYTE	PEND
// 005   ----------------------------------------
PokemonSunandMoonVastPoniCanyonSme_14_005:
	BYTE		N05     An1   v112
	BYTE	W12
	BYTE		        Gn1 
	BYTE	W06
	BYTE		        An1 
	BYTE	W12
	BYTE		        Cn1 
	BYTE	W06
	BYTE		        Dn1 
	BYTE	W06
	BYTE		        Ds1 
	BYTE	W06
	BYTE		        En1 
	BYTE	W06
	BYTE		        An1 
	BYTE	W06
	BYTE		        An0 
	BYTE	W18
	BYTE		        An1 
	BYTE	W06
	BYTE		        Gn1 
	BYTE	W12
	BYTE	PEND
// 006   ----------------------------------------
	BYTE	PATT
	 POIN2	PokemonSunandMoonVastPoniCanyonSme_14_004
// 007   ----------------------------------------
	BYTE	PATT
	 POIN2	PokemonSunandMoonVastPoniCanyonSme_14_005
// 008   ----------------------------------------
	BYTE	PATT
	 POIN2	PokemonSunandMoonVastPoniCanyonSme_14_004
// 009   ----------------------------------------
	BYTE	PATT
	 POIN2	PokemonSunandMoonVastPoniCanyonSme_14_005
// 010   ----------------------------------------
	BYTE	PATT
	 POIN2	PokemonSunandMoonVastPoniCanyonSme_14_004
// 011   ----------------------------------------
	BYTE	PATT
	 POIN2	PokemonSunandMoonVastPoniCanyonSme_14_005
// 012   ----------------------------------------
	BYTE	PATT
	 POIN2	PokemonSunandMoonVastPoniCanyonSme_14_004
// 013   ----------------------------------------
PokemonSunandMoonVastPoniCanyonSme_14_013:
	BYTE		N05     An1   v112
	BYTE	W12
	BYTE		        Gn1 
	BYTE	W06
	BYTE		        An1 
	BYTE	W12
	BYTE		        Cn1 
	BYTE	W06
	BYTE		        Dn1 
	BYTE	W06
	BYTE		        Ds1 
	BYTE	W06
	BYTE		        En1 
	BYTE	W06
	BYTE		        An1 
	BYTE	W06
	BYTE		        An0 
	BYTE	W12
	BYTE		        An1 
	BYTE	W06
	BYTE		        Gn1 
	BYTE	W06
	BYTE		        Fn1 
	BYTE	W06
	BYTE		N17   
	BYTE	W06
	BYTE	PEND
// 014   ----------------------------------------
PokemonSunandMoonVastPoniCanyonSme_14_014:
	BYTE	W12
	BYTE		N05     Fn1   v112
	BYTE	W06
	BYTE		N05   
	BYTE	W36
	BYTE		N17     En1 
	BYTE	W18
	BYTE		N23   
	BYTE	W24
	BYTE	PEND
// 015   ----------------------------------------
PokemonSunandMoonVastPoniCanyonSme_14_015:
	BYTE		N05     An1   v112
	BYTE	W12
	BYTE		        Gn1 
	BYTE	W06
	BYTE		        An1 
	BYTE	W12
	BYTE		        Cn1 
	BYTE	W06
	BYTE		        Dn1 
	BYTE	W06
	BYTE		        Ds1 
	BYTE	W06
	BYTE		        En1 
	BYTE	W06
	BYTE		N17     An1 
	BYTE	W18
	BYTE		N23     Gn1 
	BYTE	W24
	BYTE	PEND
PokemonSunandMoonVastPoniCanyonSme_14_B1:
// 016   ----------------------------------------
PokemonSunandMoonVastPoniCanyonSme_14_016:
	BYTE		N17     Dn1   v100
	BYTE	W18
	BYTE		N05   
	BYTE	W18
	BYTE		N28     An0 
	BYTE	W30
	BYTE		N11     Dn1 
	BYTE	W12
	BYTE		N05     An0 
	BYTE	W06
	BYTE		        En1 
	BYTE	W06
	BYTE		        Fn1 
	BYTE	W06
	BYTE	PEND
// 017   ----------------------------------------
PokemonSunandMoonVastPoniCanyonSme_14_017:
	BYTE		N08     En1   v100
	BYTE	W18
	BYTE		N11   
	BYTE	W12
	BYTE		        Gn1 
	BYTE	W12
	BYTE		N17     En1 
	BYTE	W18
	BYTE		N11   
	BYTE	W12
	BYTE		        Bn1 
	BYTE	W12
	BYTE		N05     Gn1 
	BYTE	W06
	BYTE		        En1 
	BYTE	W06
	BYTE	PEND
// 018   ----------------------------------------
PokemonSunandMoonVastPoniCanyonSme_14_018:
	BYTE		N17     An1   v100
	BYTE	W18
	BYTE		N05   
	BYTE	W12
	BYTE		        En1 
	BYTE	W06
	BYTE		        Dn1 
	BYTE	W06
	BYTE		N11     An0 
	BYTE	W12
	BYTE		        An1 
	BYTE	W12
	BYTE		        En1 
	BYTE	W12
	BYTE		N05     An1 
	BYTE	W06
	BYTE		        En1 
	BYTE	W06
	BYTE		        Gs1 
	BYTE	W06
	BYTE	PEND
// 019   ----------------------------------------
PokemonSunandMoonVastPoniCanyonSme_14_019:
	BYTE		N23     An1   v100
	BYTE	W24
	BYTE		        Gs1 
	BYTE	W24
	BYTE		        Gn1 
	BYTE	W24
	BYTE		        Fs1 
	BYTE	W24
	BYTE	PEND
// 020   ----------------------------------------
PokemonSunandMoonVastPoniCanyonSme_14_020:
	BYTE		N17     Fn1   v100
	BYTE	W18
	BYTE		N05   
	BYTE	W18
	BYTE		N23   
	BYTE	W24
	BYTE		N17     Cn1 
	BYTE	W18
	BYTE		N05     Fn1 
	BYTE	W06
	BYTE		        An1 
	BYTE	W06
	BYTE		        Cn1 
	BYTE	W06
	BYTE	PEND
// 021   ----------------------------------------
PokemonSunandMoonVastPoniCanyonSme_14_021:
	BYTE		N17     En1   v100
	BYTE	W18
	BYTE		N05   
	BYTE	W18
	BYTE		N23     En0 
	BYTE	W24
	BYTE		N17     Gn0 
	BYTE	W18
	BYTE		N05     Cn1 
	BYTE	W06
	BYTE		        Gn0 
	BYTE	W06
	BYTE		        En0 
	BYTE	W06
	BYTE	PEND
// 022   ----------------------------------------
PokemonSunandMoonVastPoniCanyonSme_14_022:
	BYTE		N11     Dn0   v100
	BYTE	W12
	BYTE		N05     Dn1 
	BYTE	W18
	BYTE		N05   
	BYTE	W12
	BYTE		        Fn1 
	BYTE	W06
	BYTE		N11     En0 
	BYTE	W12
	BYTE		N05     En1 
	BYTE	W18
	BYTE		N05   
	BYTE	W12
	BYTE		N05   
	BYTE	W06
	BYTE	PEND
// 023   ----------------------------------------
PokemonSunandMoonVastPoniCanyonSme_14_023:
	BYTE		N08     Fn1   v100
	BYTE	W18
	BYTE		N11   
	BYTE	W12
	BYTE		N05     An0 
	BYTE	W06
	BYTE		        Cn1 
	BYTE	W06
	BYTE		        En1 
	BYTE	W06
	BYTE		N17     Fn1 
	BYTE	W18
	BYTE		N17   
	BYTE	W18
	BYTE		N11     Cn1 
	BYTE	W12
	BYTE	PEND
// 024   ----------------------------------------
PokemonSunandMoonVastPoniCanyonSme_14_024:
	BYTE		N08     Gn1   v100
	BYTE	W18
	BYTE		N17   
	BYTE	W18
	BYTE		N05     Fn1 
	BYTE	W06
	BYTE		        En1 
	BYTE	W06
	BYTE		N44     Gn1 
	BYTE	W48
	BYTE	PEND
// 025   ----------------------------------------
PokemonSunandMoonVastPoniCanyonSme_14_025:
	BYTE		N05     Gn0   v100
	BYTE	W06
	BYTE		        Dn1 
	BYTE	W06
	BYTE		        Cn1 
	BYTE	W06
	BYTE		N23     Gn0 
	BYTE	W24
	BYTE		N11     Gn1 
	BYTE	W12
	BYTE		N05     An1 
	BYTE	W06
	BYTE		N17     Gn1 
	BYTE	W18
	BYTE		N05     En0 
	BYTE	W06
	BYTE		        Gn0 
	BYTE	W06
	BYTE		        Gs0 
	BYTE	W06
	BYTE	PEND
// 026   ----------------------------------------
PokemonSunandMoonVastPoniCanyonSme_14_026:
	BYTE		N08     An0   v100
	BYTE	W18
	BYTE		N05   
	BYTE	W78
	BYTE	PEND
// 027   ----------------------------------------
	BYTE	W78
	BYTE		N17     En0 
	BYTE	W18
// 028   ----------------------------------------
	BYTE	PATT
	 POIN2	PokemonSunandMoonVastPoniCanyonSme_14_026
// 029   ----------------------------------------
PokemonSunandMoonVastPoniCanyonSme_14_029:
	BYTE	W78
	BYTE		N05     An1   v100
	BYTE	W06
	BYTE		        Gn1 
	BYTE	W06
	BYTE		        En1 
	BYTE	W06
	BYTE	PEND
// 030   ----------------------------------------
PokemonSunandMoonVastPoniCanyonSme_14_030:
	BYTE		N11     An1   v100
	BYTE	W36
	BYTE		N05     En1 
	BYTE	W36
	BYTE		N11     Dn1 
	BYTE	W24
	BYTE	PEND
// 031   ----------------------------------------
PokemonSunandMoonVastPoniCanyonSme_14_031:
	BYTE	W12
	BYTE		N05     Dn1   v100
	BYTE	W36
	BYTE		        En1 
	BYTE	W06
	BYTE		N08   
	BYTE	W18
	BYTE		N05   
	BYTE	W06
	BYTE		N05   
	BYTE	W06
	BYTE		        An1 
	BYTE	W06
	BYTE		        Gn1 
	BYTE	W06
	BYTE	PEND
// 032   ----------------------------------------
	BYTE		N92     Dn1 
	BYTE	W96
// 033   ----------------------------------------
	BYTE		        En1 
	BYTE	W96
// 034   ----------------------------------------
PokemonSunandMoonVastPoniCanyonSme_14_034:
	BYTE	W12
	BYTE		N05     Gn1   v100
	BYTE	W06
	BYTE		        An1 
	BYTE	W12
	BYTE		        Dn1 
	BYTE	W06
	BYTE		        En1 
	BYTE	W12
	BYTE		        Gn1 
	BYTE	W06
	BYTE		        An1 
	BYTE	W06
	BYTE		        Cn2 
	BYTE	W06
	BYTE		        Bn1 
	BYTE	W12
	BYTE		        Gn1 
	BYTE	W06
	BYTE		        An1 
	BYTE	W12
	BYTE	PEND
// 035   ----------------------------------------
PokemonSunandMoonVastPoniCanyonSme_14_035:
	BYTE		N05     Dn1   v100
	BYTE	W06
	BYTE		        En1 
	BYTE	W12
	BYTE		        Gn1 
	BYTE	W06
	BYTE		        An1 
	BYTE	W06
	BYTE		        Cn2 
	BYTE	W06
	BYTE		        Bn1 
	BYTE	W06
	BYTE		        Gn1 
	BYTE	W12
	BYTE		        An1 
	BYTE	W06
	BYTE		        Gn1 
	BYTE	W12
	BYTE		        An1 
	BYTE	W06
	BYTE		N08     En1 
	BYTE	W18
	BYTE	PEND
// 036   ----------------------------------------
	BYTE	PATT
	 POIN2	PokemonSunandMoonVastPoniCanyonSme_14_034
// 037   ----------------------------------------
	BYTE	PATT
	 POIN2	PokemonSunandMoonVastPoniCanyonSme_14_035
// 038   ----------------------------------------
	BYTE	PATT
	 POIN2	PokemonSunandMoonVastPoniCanyonSme_14_004
// 039   ----------------------------------------
	BYTE	PATT
	 POIN2	PokemonSunandMoonVastPoniCanyonSme_14_005
// 040   ----------------------------------------
	BYTE	PATT
	 POIN2	PokemonSunandMoonVastPoniCanyonSme_14_004
// 041   ----------------------------------------
	BYTE	PATT
	 POIN2	PokemonSunandMoonVastPoniCanyonSme_14_005
// 042   ----------------------------------------
	BYTE	PATT
	 POIN2	PokemonSunandMoonVastPoniCanyonSme_14_004
// 043   ----------------------------------------
	BYTE	PATT
	 POIN2	PokemonSunandMoonVastPoniCanyonSme_14_005
// 044   ----------------------------------------
	BYTE	PATT
	 POIN2	PokemonSunandMoonVastPoniCanyonSme_14_004
// 045   ----------------------------------------
	BYTE	PATT
	 POIN2	PokemonSunandMoonVastPoniCanyonSme_14_005
// 046   ----------------------------------------
	BYTE	PATT
	 POIN2	PokemonSunandMoonVastPoniCanyonSme_14_004
// 047   ----------------------------------------
	BYTE	PATT
	 POIN2	PokemonSunandMoonVastPoniCanyonSme_14_013
// 048   ----------------------------------------
	BYTE	PATT
	 POIN2	PokemonSunandMoonVastPoniCanyonSme_14_014
// 049   ----------------------------------------
	BYTE	PATT
	 POIN2	PokemonSunandMoonVastPoniCanyonSme_14_015
// 050   ----------------------------------------
	BYTE	PATT
	 POIN2	PokemonSunandMoonVastPoniCanyonSme_14_016
// 051   ----------------------------------------
	BYTE	PATT
	 POIN2	PokemonSunandMoonVastPoniCanyonSme_14_017
// 052   ----------------------------------------
	BYTE	PATT
	 POIN2	PokemonSunandMoonVastPoniCanyonSme_14_018
// 053   ----------------------------------------
	BYTE	PATT
	 POIN2	PokemonSunandMoonVastPoniCanyonSme_14_019
// 054   ----------------------------------------
	BYTE	PATT
	 POIN2	PokemonSunandMoonVastPoniCanyonSme_14_020
// 055   ----------------------------------------
	BYTE	PATT
	 POIN2	PokemonSunandMoonVastPoniCanyonSme_14_021
// 056   ----------------------------------------
	BYTE	PATT
	 POIN2	PokemonSunandMoonVastPoniCanyonSme_14_022
// 057   ----------------------------------------
	BYTE	PATT
	 POIN2	PokemonSunandMoonVastPoniCanyonSme_14_023
// 058   ----------------------------------------
	BYTE	PATT
	 POIN2	PokemonSunandMoonVastPoniCanyonSme_14_024
// 059   ----------------------------------------
	BYTE	PATT
	 POIN2	PokemonSunandMoonVastPoniCanyonSme_14_025
// 060   ----------------------------------------
	BYTE	PATT
	 POIN2	PokemonSunandMoonVastPoniCanyonSme_14_026
// 061   ----------------------------------------
	BYTE	W78
	BYTE		N17     En0   v100
	BYTE	W18
// 062   ----------------------------------------
	BYTE	PATT
	 POIN2	PokemonSunandMoonVastPoniCanyonSme_14_026
// 063   ----------------------------------------
	BYTE	PATT
	 POIN2	PokemonSunandMoonVastPoniCanyonSme_14_029
// 064   ----------------------------------------
	BYTE	PATT
	 POIN2	PokemonSunandMoonVastPoniCanyonSme_14_030
// 065   ----------------------------------------
	BYTE	PATT
	 POIN2	PokemonSunandMoonVastPoniCanyonSme_14_031
// 066   ----------------------------------------
	BYTE		N92     Dn1   v100
	BYTE	W96
// 067   ----------------------------------------
	BYTE		        En1 
	BYTE	W96
// 068   ----------------------------------------
	BYTE	PATT
	 POIN2	PokemonSunandMoonVastPoniCanyonSme_14_034
// 069   ----------------------------------------
	BYTE	PATT
	 POIN2	PokemonSunandMoonVastPoniCanyonSme_14_035
// 070   ----------------------------------------
	BYTE	PATT
	 POIN2	PokemonSunandMoonVastPoniCanyonSme_14_034
// 071   ----------------------------------------
	BYTE	PATT
	 POIN2	PokemonSunandMoonVastPoniCanyonSme_14_035
	BYTE	GoTo
	 POIN2	PokemonSunandMoonVastPoniCanyonSme_14_B1
PokemonSunandMoonVastPoniCanyonSme_14_B2:
// 072   ----------------------------------------
	BYTE		N05     An0   v112
	BYTE	W06
	BYTE		N05   
	BYTE	W12
	BYTE		N05   
	BYTE	W06
	BYTE		N05   
	BYTE	W12
	BYTE		N05   
	BYTE	W06
	BYTE		N05   
	BYTE	W05
	BYTE	FINE

//**************** Track 15 (Midi-Chn.16) ****************//

PokemonSunandMoonVastPoniCanyonSme_15:
	BYTE	KEYSH   PokemonSunandMoonVastPoniCanyonSme_key+0
// 000   ----------------------------------------
	BYTE		VOICE   12
	BYTE		VOL     100*PokemonSunandMoonVastPoniCanyonSme_mvl/mxv
	BYTE		PAN     c_v+0
	BYTE	W12
	BYTE		N05     Gn4   v096
	BYTE	W06
	BYTE		        An4 
	BYTE	W12
	BYTE		        Dn4 
	BYTE	W06
	BYTE		        En4 
	BYTE	W12
	BYTE		        Gn4 
	BYTE	W06
	BYTE		        An4 
	BYTE	W06
	BYTE		        Cn5 
	BYTE	W06
	BYTE		        Bn4 
	BYTE	W12
	BYTE		        Gn4 
	BYTE	W06
	BYTE		        An4 
	BYTE	W12
// 001   ----------------------------------------
PokemonSunandMoonVastPoniCanyonSme_15_001:
	BYTE		N05     Dn4   v096
	BYTE	W06
	BYTE		        En4 
	BYTE	W12
	BYTE		        Gn4 
	BYTE	W06
	BYTE		        An4 
	BYTE	W06
	BYTE		        Cn5 
	BYTE	W06
	BYTE		        Bn4 
	BYTE	W06
	BYTE		        Gn4 
	BYTE	W12
	BYTE		        An4 
	BYTE	W06
	BYTE		        Gn4 
	BYTE	W12
	BYTE		        An4 
	BYTE	W06
	BYTE		        En4 
	BYTE	W18
	BYTE	PEND
// 002   ----------------------------------------
PokemonSunandMoonVastPoniCanyonSme_15_002:
	BYTE	W12
	BYTE		N05     Gn4   v096
	BYTE	W06
	BYTE		        An4 
	BYTE	W12
	BYTE		        Dn4 
	BYTE	W06
	BYTE		        En4 
	BYTE	W12
	BYTE		        Gn4 
	BYTE	W06
	BYTE		        An4 
	BYTE	W06
	BYTE		        Cn5 
	BYTE	W06
	BYTE		        Bn4 
	BYTE	W12
	BYTE		        Gn4 
	BYTE	W06
	BYTE		        An4 
	BYTE	W12
	BYTE	PEND
// 003   ----------------------------------------
	BYTE	PATT
	 POIN2	PokemonSunandMoonVastPoniCanyonSme_15_001
// 004   ----------------------------------------
	BYTE	PATT
	 POIN2	PokemonSunandMoonVastPoniCanyonSme_15_002
// 005   ----------------------------------------
	BYTE	PATT
	 POIN2	PokemonSunandMoonVastPoniCanyonSme_15_001
// 006   ----------------------------------------
	BYTE	PATT
	 POIN2	PokemonSunandMoonVastPoniCanyonSme_15_002
// 007   ----------------------------------------
	BYTE	PATT
	 POIN2	PokemonSunandMoonVastPoniCanyonSme_15_001
// 008   ----------------------------------------
	BYTE	PATT
	 POIN2	PokemonSunandMoonVastPoniCanyonSme_15_002
// 009   ----------------------------------------
	BYTE	PATT
	 POIN2	PokemonSunandMoonVastPoniCanyonSme_15_001
// 010   ----------------------------------------
	BYTE	PATT
	 POIN2	PokemonSunandMoonVastPoniCanyonSme_15_002
// 011   ----------------------------------------
	BYTE	PATT
	 POIN2	PokemonSunandMoonVastPoniCanyonSme_15_001
// 012   ----------------------------------------
	BYTE	PATT
	 POIN2	PokemonSunandMoonVastPoniCanyonSme_15_002
// 013   ----------------------------------------
	BYTE	PATT
	 POIN2	PokemonSunandMoonVastPoniCanyonSme_15_001
// 014   ----------------------------------------
	BYTE	PATT
	 POIN2	PokemonSunandMoonVastPoniCanyonSme_15_002
// 015   ----------------------------------------
	BYTE	PATT
	 POIN2	PokemonSunandMoonVastPoniCanyonSme_15_001
PokemonSunandMoonVastPoniCanyonSme_15_B1:
// 016   ----------------------------------------
	BYTE	W24
	BYTE		N23     Gn3   v112
	BYTE	W24
	BYTE		N03     Bn3 
	BYTE	W03
	BYTE		N14     Cn4 
	BYTE	W15
	BYTE		N05     An4 
	BYTE	W18
	BYTE		N23     Gn4 
	BYTE	W12
// 017   ----------------------------------------
	BYTE	W12
	BYTE		N05     An4 
	BYTE	W12
	BYTE		        Cn4 
	BYTE	W06
	BYTE		        Gn3 
	BYTE	W12
	BYTE		N28     Cn4 
	BYTE	W30
	BYTE		N05     Ds4 
	BYTE	W06
	BYTE		        Dn4 
	BYTE	W06
	BYTE		        Cn4 
	BYTE	W06
	BYTE		N17     Dn4 
	BYTE	W06
// 018   ----------------------------------------
	BYTE	W12
	BYTE		N05     En4 
	BYTE	W60
	BYTE		N02     Dn4 
	BYTE	W03
	BYTE		        Ds4 
	BYTE	W03
	BYTE		N05     Dn4 
	BYTE	W06
	BYTE		        Cn4 
	BYTE	W06
	BYTE		N17     Dn4 
	BYTE	W06
// 019   ----------------------------------------
	BYTE	W12
	BYTE		N05     Cn4 
	BYTE	W12
	BYTE		N03     Gs4 
	BYTE	W03
	BYTE		N08     An4 
	BYTE	W09
	BYTE		N11     Gn4 
	BYTE	W12
	BYTE		N05     En4 
	BYTE	W06
	BYTE		        Fn4 
	BYTE	W06
	BYTE		        Gn4 
	BYTE	W06
	BYTE		        An4 
	BYTE	W12
	BYTE		N40     Cn4 
	BYTE	W18
// 020   ----------------------------------------
	BYTE	W30
	BYTE		N05     Gn3 
	BYTE	W06
	BYTE		        An3 
	BYTE	W06
	BYTE		        Cn4 
	BYTE	W06
	BYTE		N11     En4 
	BYTE	W12
	BYTE		N05     Dn4 
	BYTE	W06
	BYTE		        Cn4 
	BYTE	W12
	BYTE		        Dn4 
	BYTE	W06
	BYTE		N32     Cn4 
	BYTE	W12
// 021   ----------------------------------------
	BYTE	W30
	BYTE		N05     Gn3 
	BYTE	W06
	BYTE		        An3 
	BYTE	W06
	BYTE		        Cn4 
	BYTE	W06
	BYTE		N11     Ds4 
	BYTE	W12
	BYTE		N05     Dn4 
	BYTE	W06
	BYTE		        Cn4 
	BYTE	W12
	BYTE		        Dn4 
	BYTE	W06
	BYTE		        Cn4 
	BYTE	W12
// 022   ----------------------------------------
	BYTE	W12
	BYTE		N03     Bn3 
	BYTE	W03
	BYTE		N04     Cn4 
	BYTE	W09
	BYTE		N05     An3 
	BYTE	W06
	BYTE		        Gn3 
	BYTE	W12
	BYTE		N02     En4 
	BYTE	W03
	BYTE		N08     Fn4 
	BYTE	W09
	BYTE		N05     En4 
	BYTE	W06
	BYTE		        Cn4 
	BYTE	W06
	BYTE		        Gn3 
	BYTE	W12
	BYTE		        An3 
	BYTE	W06
	BYTE		        Cn4 
	BYTE	W06
	BYTE		        En4 
	BYTE	W06
// 023   ----------------------------------------
	BYTE		N56     Gn4 
	BYTE	W72
	BYTE		N03     Gs4 
	BYTE	W03
	BYTE		N14     An4 
	BYTE	W15
	BYTE		TIE     Cn5 
	BYTE	W06
// 024   ----------------------------------------
	BYTE	W96
// 025   ----------------------------------------
	BYTE	W44
	BYTE	W03
	BYTE		EOT   
	BYTE	W48
	BYTE	W01
// 026   ----------------------------------------
	BYTE		N08     Gn3 
	BYTE		N08     Bn3   v100
	BYTE	W18
	BYTE		N05     Gn3   v112
	BYTE		N05     Bn3   v100
	BYTE	W78
// 027   ----------------------------------------
	BYTE	W96
// 028   ----------------------------------------
	BYTE		N08     Gn4   v112
	BYTE		N08     Bn4   v100
	BYTE	W18
	BYTE		N05     Gn4   v112
	BYTE		N05     Bn4   v100
	BYTE	W78
// 029   ----------------------------------------
	BYTE	W96
// 030   ----------------------------------------
	BYTE	W96
// 031   ----------------------------------------
	BYTE	W96
// 032   ----------------------------------------
	BYTE	W96
// 033   ----------------------------------------
	BYTE	W96
// 034   ----------------------------------------
	BYTE	PATT
	 POIN2	PokemonSunandMoonVastPoniCanyonSme_15_002
// 035   ----------------------------------------
	BYTE	PATT
	 POIN2	PokemonSunandMoonVastPoniCanyonSme_15_001
// 036   ----------------------------------------
	BYTE	PATT
	 POIN2	PokemonSunandMoonVastPoniCanyonSme_15_002
// 037   ----------------------------------------
	BYTE	PATT
	 POIN2	PokemonSunandMoonVastPoniCanyonSme_15_001
// 038   ----------------------------------------
	BYTE	PATT
	 POIN2	PokemonSunandMoonVastPoniCanyonSme_15_002
// 039   ----------------------------------------
	BYTE	PATT
	 POIN2	PokemonSunandMoonVastPoniCanyonSme_15_001
// 040   ----------------------------------------
	BYTE	PATT
	 POIN2	PokemonSunandMoonVastPoniCanyonSme_15_002
// 041   ----------------------------------------
	BYTE	PATT
	 POIN2	PokemonSunandMoonVastPoniCanyonSme_15_001
// 042   ----------------------------------------
	BYTE	PATT
	 POIN2	PokemonSunandMoonVastPoniCanyonSme_15_002
// 043   ----------------------------------------
	BYTE	PATT
	 POIN2	PokemonSunandMoonVastPoniCanyonSme_15_001
// 044   ----------------------------------------
	BYTE	PATT
	 POIN2	PokemonSunandMoonVastPoniCanyonSme_15_002
// 045   ----------------------------------------
	BYTE	PATT
	 POIN2	PokemonSunandMoonVastPoniCanyonSme_15_001
// 046   ----------------------------------------
	BYTE	PATT
	 POIN2	PokemonSunandMoonVastPoniCanyonSme_15_002
// 047   ----------------------------------------
	BYTE	PATT
	 POIN2	PokemonSunandMoonVastPoniCanyonSme_15_001
// 048   ----------------------------------------
	BYTE	PATT
	 POIN2	PokemonSunandMoonVastPoniCanyonSme_15_002
// 049   ----------------------------------------
	BYTE	PATT
	 POIN2	PokemonSunandMoonVastPoniCanyonSme_15_001
// 050   ----------------------------------------
	BYTE	W96
// 051   ----------------------------------------
	BYTE	W96
// 052   ----------------------------------------
	BYTE	W96
// 053   ----------------------------------------
	BYTE	W96
// 054   ----------------------------------------
	BYTE	W96
// 055   ----------------------------------------
	BYTE	W96
// 056   ----------------------------------------
	BYTE	W96
// 057   ----------------------------------------
	BYTE	W96
// 058   ----------------------------------------
	BYTE	W96
// 059   ----------------------------------------
	BYTE	W96
// 060   ----------------------------------------
	BYTE	W96
// 061   ----------------------------------------
	BYTE	W96
// 062   ----------------------------------------
	BYTE	W96
// 063   ----------------------------------------
	BYTE	W96
// 064   ----------------------------------------
	BYTE	W96
// 065   ----------------------------------------
	BYTE	W96
// 066   ----------------------------------------
	BYTE	W96
// 067   ----------------------------------------
	BYTE	W96
// 068   ----------------------------------------
	BYTE	W96
// 069   ----------------------------------------
	BYTE	W96
// 070   ----------------------------------------
	BYTE	W96
// 071   ----------------------------------------
	BYTE	W96
	BYTE	GoTo
	 POIN2	PokemonSunandMoonVastPoniCanyonSme_15_B1
PokemonSunandMoonVastPoniCanyonSme_15_B2:
// 072   ----------------------------------------
	BYTE	W44
	BYTE	W03
	BYTE	FINE

//******************************************************//
	ALIGN 4

PokemonSunandMoonVastPoniCanyonSme:
	BYTE	15	// NumTrks
	BYTE	0	// NumBlks
	BYTE	PokemonSunandMoonVastPoniCanyonSme_pri	// Priority
	BYTE	PokemonSunandMoonVastPoniCanyonSme_rev	// Reverb.

	POIN2	PokemonSunandMoonVastPoniCanyonSme_grp

	POIN2	PokemonSunandMoonVastPoniCanyonSme_1
	POIN2	PokemonSunandMoonVastPoniCanyonSme_2
	POIN2	PokemonSunandMoonVastPoniCanyonSme_3
	POIN2	PokemonSunandMoonVastPoniCanyonSme_4
	POIN2	PokemonSunandMoonVastPoniCanyonSme_5
	POIN2	PokemonSunandMoonVastPoniCanyonSme_6
	POIN2	PokemonSunandMoonVastPoniCanyonSme_7
	POIN2	PokemonSunandMoonVastPoniCanyonSme_8
	POIN2	PokemonSunandMoonVastPoniCanyonSme_9
	POIN2	PokemonSunandMoonVastPoniCanyonSme_10
	POIN2	PokemonSunandMoonVastPoniCanyonSme_11
	POIN2	PokemonSunandMoonVastPoniCanyonSme_12
	POIN2	PokemonSunandMoonVastPoniCanyonSme_13
	POIN2	PokemonSunandMoonVastPoniCanyonSme_14
	POIN2	PokemonSunandMoonVastPoniCanyonSme_15

	
