//Event file generated from Sappy .s format.
	#include "MPlayDef.event"

	#define	PokemonMDRescueTeamFriendAreaSwampRandomWizard_grp  voicegroup000
	#define	PokemonMDRescueTeamFriendAreaSwampRandomWizard_pri  0
	#define	PokemonMDRescueTeamFriendAreaSwampRandomWizard_rev  0
	#define	PokemonMDRescueTeamFriendAreaSwampRandomWizard_mvl  127
	#define	PokemonMDRescueTeamFriendAreaSwampRandomWizard_key  0
	#define	PokemonMDRescueTeamFriendAreaSwampRandomWizard_tbs  1
	#define	PokemonMDRescueTeamFriendAreaSwampRandomWizard_exg  0
	#define	PokemonMDRescueTeamFriendAreaSwampRandomWizard_cmp  1

	// .rodata
	//	PokemonMDRescueTeamFriendAreaSwampRandomWizard
	ALIGN 4


//**************** Track 1 (Midi-Chn.0) ****************//

PokemonMDRescueTeamFriendAreaSwampRandomWizard_001:
// 000   ----------------------------------------
 BYTE   KEYSH   PokemonMDRescueTeamFriendAreaSwampRandomWizard_key+0
 BYTE   TEMPO   100*PokemonMDRescueTeamFriendAreaSwampRandomWizard_tbs/2
 BYTE   VOICE   40
 BYTE   PAN   c_v+20
 BYTE   VOL   22*PokemonMDRescueTeamFriendAreaSwampRandomWizard_mvl/mxv
 BYTE   W96
// 001   ----------------------------------------
 BYTE   W96
// 002   ----------------------------------------
 BYTE   W96
// 003   ----------------------------------------
 BYTE   W96
// 004   ----------------------------------------
Label_0_5473C8:
 BYTE   W06
 BYTE   N08  Gs3  v112
 BYTE   W08
 BYTE   N04  Ds4
 BYTE   W08
 BYTE   Ds4  v076
 BYTE   W08
 BYTE   N08  Ds4  v112
 BYTE   W08
 BYTE   N04  Cs4  v056
 BYTE   W08
 BYTE   N08  Bn3  v088
 BYTE   W08
 BYTE   Cs4  v112
 BYTE   W16
 BYTE   N04  Fs3  v076
 BYTE   W08
 BYTE   N08  Fs3  v112
 BYTE   W08
 BYTE   N04  Gs3  v056
 BYTE   W08
 BYTE   N08  As3  v088
 BYTE   W02
 BYTE   PEND 
// 005   ----------------------------------------
Label_0_5473F3:
 BYTE   W06
 BYTE   N08  Bn3  v112
 BYTE   W16
 BYTE   N04  Gs3  v088
 BYTE   W08
 BYTE   N08  Fs3  v112
 BYTE   W08
 BYTE   N04  Gs3  v056
 BYTE   W08
 BYTE   N08  As3  v088
 BYTE   W08
 BYTE   Gs3  v112
 BYTE   W16
 BYTE   N04  Ds3  v076
 BYTE   W08
 BYTE   N11  Ds3  v112
 BYTE   W16
 BYTE   N08  Ds3  v068
 BYTE   W02
 BYTE   PEND 
// 006   ----------------------------------------
Label_0_547418:
 BYTE   W06
 BYTE   N08  Gs3  v112
 BYTE   W08
 BYTE   N04  Ds4
 BYTE   W08
 BYTE   Ds4  v060
 BYTE   W08
 BYTE   N08  Ds4  v112
 BYTE   W08
 BYTE   N04  Cs4  v056
 BYTE   W08
 BYTE   N08  Bn3  v088
 BYTE   W08
 BYTE   Cs4  v112
 BYTE   W16
 BYTE   N04  Fs3  v076
 BYTE   W08
 BYTE   N08  Fs3  v112
 BYTE   W08
 BYTE   N04  Gs3  v056
 BYTE   W08
 BYTE   N08  As3  v088
 BYTE   W02
 BYTE   PEND 
// 007   ----------------------------------------
Label_0_547443:
 BYTE   W06
 BYTE   N08  Bn3  v112
 BYTE   W16
 BYTE   N04  Gs3  v088
 BYTE   W08
 BYTE   N08  Fs3  v112
 BYTE   W08
 BYTE   N04  Gs3  v056
 BYTE   W08
 BYTE   N08  As3  v088
 BYTE   W08
 BYTE   N32  Gs3  v112
 BYTE   W40
 BYTE   N08  Ds3  v068
 BYTE   W02
 BYTE   PEND 
 BYTE   PATT
  POIN2 Label_0_5473C8
 BYTE   PATT
  POIN2 Label_0_5473F3
 BYTE   PATT
  POIN2 Label_0_547418
 BYTE   PATT
  POIN2 Label_0_547443
// 008   ----------------------------------------
Label_0_547475:
 BYTE   W78
 BYTE   N05  Cs4  v120
 BYTE   W08
 BYTE   N03  Bn3
 BYTE   W08
 BYTE   As3
 BYTE   W02
 BYTE   PEND 
// 009   ----------------------------------------
Label_0_547480:
 BYTE   W06
 BYTE   N12  Gs3  v120
 BYTE   W16
 BYTE   N04  Bn3
 BYTE   W08
 BYTE   As3
 BYTE   W08
 BYTE   Gs3
 BYTE   W08
 BYTE   Fs3
 BYTE   W08
 BYTE   N12  Gs3
 BYTE   W16
 BYTE   N03  Ds3
 BYTE   W08
 BYTE   N12
 BYTE   W18
 BYTE   PEND 
 BYTE   PATT
  POIN2 Label_0_547475
// 010   ----------------------------------------
Label_0_54749C:
 BYTE   W06
 BYTE   N12  Gs3  v120
 BYTE   W16
 BYTE   N04  Bn3
 BYTE   W08
 BYTE   As3
 BYTE   W08
 BYTE   Gs3
 BYTE   W08
 BYTE   Fs3
 BYTE   W08
 BYTE   N28  Gs3
 BYTE   W42
 BYTE   PEND 
 BYTE   PATT
  POIN2 Label_0_547475
 BYTE   PATT
  POIN2 Label_0_547480
 BYTE   PATT
  POIN2 Label_0_547475
 BYTE   PATT
  POIN2 Label_0_54749C
// 011   ----------------------------------------
 BYTE   W06
 BYTE   GoTo
  POIN2 Label_0_5473C8
 BYTE   FINE

//**************** Track 2 (Midi-Chn.1) ****************//

PokemonMDRescueTeamFriendAreaSwampRandomWizard_002:
// 000   ----------------------------------------
 BYTE   KEYSH   PokemonMDRescueTeamFriendAreaSwampRandomWizard_key+0
 BYTE   VOICE   68
 BYTE   PAN   c_v-20
 BYTE   VOL   25*PokemonMDRescueTeamFriendAreaSwampRandomWizard_mvl/mxv
 BYTE   W96
// 001   ----------------------------------------
 BYTE   W96
// 002   ----------------------------------------
 BYTE   W96
// 003   ----------------------------------------
 BYTE   W96
// 004   ----------------------------------------
Label_1_5462BC:
 BYTE   W06
 BYTE   N08  Gs3  v112
 BYTE   W08
 BYTE   N04  Ds4
 BYTE   W08
 BYTE   Ds4  v088
 BYTE   W08
 BYTE   N08  Ds4  v112
 BYTE   W08
 BYTE   N04  Cs4  v068
 BYTE   W08
 BYTE   N08  Bn3  v096
 BYTE   W08
 BYTE   Cs4  v112
 BYTE   W16
 BYTE   N04  Fs3  v088
 BYTE   W08
 BYTE   N08  Fs3  v112
 BYTE   W08
 BYTE   N04  Gs3  v068
 BYTE   W08
 BYTE   N08  As3  v096
 BYTE   W02
 BYTE   PEND 
// 005   ----------------------------------------
 BYTE   W06
 BYTE   Bn3  v112
 BYTE   W16
 BYTE   N04  Gs3  v096
 BYTE   W08
 BYTE   N08  Fs3  v112
 BYTE   W08
 BYTE   N04  Gs3  v068
 BYTE   W08
 BYTE   N08  As3  v096
 BYTE   W08
 BYTE   Gs3  v112
 BYTE   W16
 BYTE   N04  Ds3  v088
 BYTE   W08
 BYTE   N11  Ds3  v112
 BYTE   W16
 BYTE   N08  Ds3  v076
 BYTE   W02
 BYTE   PATT
  POIN2 Label_1_5462BC
// 006   ----------------------------------------
 BYTE   W06
 BYTE   N08  Bn3  v112
 BYTE   W16
 BYTE   N04  Gs3  v096
 BYTE   W08
 BYTE   N08  Fs3  v112
 BYTE   W08
 BYTE   N04  Gs3  v068
 BYTE   W08
 BYTE   N08  As3  v096
 BYTE   W08
 BYTE   N32  Gs3  v112
 BYTE   W40
 BYTE   N08  Ds3  v076
 BYTE   W02
// 007   ----------------------------------------
Label_1_54632C:
 BYTE   W06
 BYTE   N08  Gs4  v112
 BYTE   W08
 BYTE   N04  Ds5
 BYTE   W08
 BYTE   Ds5  v076
 BYTE   W08
 BYTE   N08  Ds5  v112
 BYTE   W08
 BYTE   N04  Cs5  v056
 BYTE   W08
 BYTE   N08  Bn4  v088
 BYTE   W08
 BYTE   Cs5  v112
 BYTE   W16
 BYTE   N04  Fs4  v076
 BYTE   W08
 BYTE   N08  Fs4  v112
 BYTE   W08
 BYTE   N04  Gs4  v056
 BYTE   W08
 BYTE   N08  As4  v088
 BYTE   W02
 BYTE   PEND 
// 008   ----------------------------------------
 BYTE   W06
 BYTE   Bn4  v112
 BYTE   W16
 BYTE   N04  Gs4  v088
 BYTE   W08
 BYTE   N08  Fs4  v112
 BYTE   W08
 BYTE   N04  Gs4  v056
 BYTE   W08
 BYTE   N08  As4  v088
 BYTE   W08
 BYTE   Gs4  v112
 BYTE   W16
 BYTE   N04  Ds4  v076
 BYTE   W08
 BYTE   N11  Ds4  v112
 BYTE   W16
 BYTE   N08  Ds4  v068
 BYTE   W02
 BYTE   PATT
  POIN2 Label_1_54632C
// 009   ----------------------------------------
 BYTE   W06
 BYTE   N08  Bn4  v112
 BYTE   W16
 BYTE   N04  Gs4  v088
 BYTE   W08
 BYTE   N08  Fs4  v112
 BYTE   W08
 BYTE   N04  Gs4  v056
 BYTE   W08
 BYTE   N08  As4  v088
 BYTE   W08
 BYTE   N32  Gs4
 BYTE   W40
 BYTE   N08  Ds4  v068
 BYTE   W02
// 010   ----------------------------------------
Label_1_54639B:
 BYTE   W06
 BYTE   N10  Gs4  v100
 BYTE   W24
 BYTE   As4
 BYTE   W24
 BYTE   N20  Bn4
 BYTE   W42
 BYTE   PEND 
// 011   ----------------------------------------
 BYTE   W96
 BYTE   PATT
  POIN2 Label_1_54639B
// 012   ----------------------------------------
 BYTE   W96
 BYTE   PATT
  POIN2 Label_1_54639B
// 013   ----------------------------------------
 BYTE   W96
 BYTE   PATT
  POIN2 Label_1_54639B
// 014   ----------------------------------------
 BYTE   W96
// 015   ----------------------------------------
 BYTE   W06
 BYTE   GoTo
  POIN2 Label_1_5462BC
 BYTE   FINE

//**************** Track 3 (Midi-Chn.2) ****************//

PokemonMDRescueTeamFriendAreaSwampRandomWizard_003:
// 000   ----------------------------------------
 BYTE   KEYSH   PokemonMDRescueTeamFriendAreaSwampRandomWizard_key+0
 BYTE   VOICE   73
 BYTE   PAN   c_v+0
 BYTE   VOL   33*PokemonMDRescueTeamFriendAreaSwampRandomWizard_mvl/mxv
 BYTE   W06
 BYTE   N06  Gs2  v120
 BYTE   W16
 BYTE   N02  Fs3  v068
 BYTE   W08
 BYTE   Gs3  v100
 BYTE   W08
 BYTE   Cs4  v092
 BYTE   W08
 BYTE   Ds4  v068
 BYTE   W08
 BYTE   N06  Gs2  v120
 BYTE   W08
 BYTE   N02  Gs3  v080
 BYTE   W08
 BYTE   Fs3  v100
 BYTE   W08
 BYTE   Gs3  v068
 BYTE   W08
 BYTE   Cs4  v092
 BYTE   W08
 BYTE   Ds4  v068
 BYTE   W02
// 001   ----------------------------------------
 BYTE   W06
 BYTE   N06  Gs2  v120
 BYTE   W16
 BYTE   N02  Fs3  v068
 BYTE   W08
 BYTE   Gs3  v100
 BYTE   W08
 BYTE   Cs4  v092
 BYTE   W08
 BYTE   Ds4  v068
 BYTE   W08
 BYTE   N06  Gs2  v120
 BYTE   W08
 BYTE   N02  Cs4  v100
 BYTE   W08
 BYTE   Ds4  v068
 BYTE   W08
 BYTE   Fs4  v100
 BYTE   W08
 BYTE   Fn4
 BYTE   W08
 BYTE   Cs4
 BYTE   W02
// 002   ----------------------------------------
 BYTE   W06
 BYTE   N06  Gs2  v120
 BYTE   W16
 BYTE   N02  Fs3  v068
 BYTE   W08
 BYTE   Gs3  v100
 BYTE   W08
 BYTE   Cs4  v092
 BYTE   W08
 BYTE   Ds4  v068
 BYTE   W08
 BYTE   N06  Gs2  v120
 BYTE   W08
 BYTE   N02  Gs3  v080
 BYTE   W08
 BYTE   Fs3  v100
 BYTE   W08
 BYTE   Gs3  v068
 BYTE   W08
 BYTE   Cs4  v092
 BYTE   W08
 BYTE   Ds4  v068
 BYTE   W02
// 003   ----------------------------------------
 BYTE   W06
 BYTE   N06  Gs2  v120
 BYTE   W16
 BYTE   N02  Fs3  v068
 BYTE   W08
 BYTE   Gs3  v100
 BYTE   W08
 BYTE   Cs4  v092
 BYTE   W08
 BYTE   Ds4  v068
 BYTE   W08
 BYTE   N06  Gs2  v120
 BYTE   W08
 BYTE   N02  Fs3  v068
 BYTE   W08
 BYTE   Gs3  v092
 BYTE   W08
 BYTE   Bn3  v100
 BYTE   W08
 BYTE   As3  v092
 BYTE   W08
 BYTE   Fs3  v068
 BYTE   W02
// 004   ----------------------------------------
Label_2_5477BB:
 BYTE   W06
 BYTE   N06  Gs2  v120
 BYTE   W08
 BYTE   N02  Ds3  v068
 BYTE   W08
 BYTE   Gs3  v092
 BYTE   W08
 BYTE   N06  Bn3  v100
 BYTE   W16
 BYTE   N08  Gs2  v072
 BYTE   W08
 BYTE   N06  Fs2  v120
 BYTE   W08
 BYTE   N02  Cs3  v068
 BYTE   W08
 BYTE   Fs3  v092
 BYTE   W08
 BYTE   N06  As3  v100
 BYTE   W16
 BYTE   N08  Fs2  v072
 BYTE   W02
 BYTE   PEND 
// 005   ----------------------------------------
Label_2_5477E3:
 BYTE   W06
 BYTE   N06  En3  v108
 BYTE   W08
 BYTE   N02  Bn2  v068
 BYTE   W08
 BYTE   Gs3  v092
 BYTE   W08
 BYTE   N06  Cs3  v108
 BYTE   W08
 BYTE   N02  Fs3  v068
 BYTE   W08
 BYTE   As3  v092
 BYTE   W08
 BYTE   N06  Gs2  v120
 BYTE   W08
 BYTE   N02  Ds3  v068
 BYTE   W08
 BYTE   Gs3  v092
 BYTE   W08
 BYTE   N06  Bn3  v100
 BYTE   W16
 BYTE   N08  Fs2  v072
 BYTE   W02
 BYTE   PEND 
 BYTE   PATT
  POIN2 Label_2_5477BB
// 006   ----------------------------------------
Label_2_547813:
 BYTE   W06
 BYTE   N06  En3  v108
 BYTE   W08
 BYTE   N02  Bn2  v068
 BYTE   W08
 BYTE   Gs3  v092
 BYTE   W08
 BYTE   N06  Cs3  v108
 BYTE   W08
 BYTE   N02  Fs3  v068
 BYTE   W08
 BYTE   As3  v092
 BYTE   W08
 BYTE   N06  Gs2  v120
 BYTE   W08
 BYTE   N02  Cs3  v068
 BYTE   W08
 BYTE   Ds3  v092
 BYTE   W08
 BYTE   N06  Gs3  v100
 BYTE   W18
 BYTE   PEND 
 BYTE   PATT
  POIN2 Label_2_5477BB
 BYTE   PATT
  POIN2 Label_2_5477E3
 BYTE   PATT
  POIN2 Label_2_5477BB
 BYTE   PATT
  POIN2 Label_2_547813
// 007   ----------------------------------------
Label_2_54784E:
 BYTE   W05
 BYTE   VOL   31*PokemonMDRescueTeamFriendAreaSwampRandomWizard_mvl/mxv
 BYTE   PAN   c_v+0
 BYTE   W01
 BYTE   N07  En3  v112
 BYTE   W24
 BYTE   Fs3
 BYTE   W24
 BYTE   Gs3
 BYTE   W42
 BYTE   PEND 
// 008   ----------------------------------------
Label_2_54785D:
 BYTE   W05
 BYTE   VOL   33*PokemonMDRescueTeamFriendAreaSwampRandomWizard_mvl/mxv
 BYTE   PAN   c_v+0
 BYTE   W01
 BYTE   N06  En3  v120
 BYTE   W08
 BYTE   N02  Gs3  v068
 BYTE   W08
 BYTE   Bn3  v092
 BYTE   W08
 BYTE   N06  As3  v108
 BYTE   W08
 BYTE   N02  Ds3  v068
 BYTE   W08
 BYTE   Fs3  v092
 BYTE   W08
 BYTE   N06  Gs3  v108
 BYTE   W08
 BYTE   N02  Ds3  v068
 BYTE   W08
 BYTE   Fs3  v092
 BYTE   W08
 BYTE   N08  Gs3  v108
 BYTE   W18
 BYTE   PEND 
 BYTE   PATT
  POIN2 Label_2_54784E
 BYTE   PATT
  POIN2 Label_2_54785D
 BYTE   PATT
  POIN2 Label_2_54784E
 BYTE   PATT
  POIN2 Label_2_54785D
 BYTE   PATT
  POIN2 Label_2_54784E
// 009   ----------------------------------------
 BYTE   W05
 BYTE   VOL   33*PokemonMDRescueTeamFriendAreaSwampRandomWizard_mvl/mxv
 BYTE   PAN   c_v+0
 BYTE   W01
 BYTE   N06  En3  v120
 BYTE   W08
 BYTE   N02  Gs3  v068
 BYTE   W08
 BYTE   Bn3  v092
 BYTE   W08
 BYTE   N06  As3  v108
 BYTE   W08
 BYTE   N02  Ds3  v068
 BYTE   W08
 BYTE   Fs3  v092
 BYTE   W08
 BYTE   N06  Gs3  v108
 BYTE   W08
 BYTE   N02  Cs4  v060
 BYTE   W08
 BYTE   Ds4  v076
 BYTE   W08
 BYTE   N06  Gs4  v080
 BYTE   W18
// 010   ----------------------------------------
 BYTE   W06
 BYTE   GoTo
  POIN2 Label_2_5477BB
 BYTE   FINE

//**************** Track 4 (Midi-Chn.3) ****************//

PokemonMDRescueTeamFriendAreaSwampRandomWizard_004:
// 000   ----------------------------------------
 BYTE   KEYSH   PokemonMDRescueTeamFriendAreaSwampRandomWizard_key+0
 BYTE   VOICE   14
 BYTE   PAN   c_v+0
 BYTE   VOL   26*PokemonMDRescueTeamFriendAreaSwampRandomWizard_mvl/mxv
 BYTE   W05
 BYTE   PAN   c_v-30
 BYTE   W01
 BYTE   N07  Gs3  v112
 BYTE   W44
 BYTE   W03
 BYTE   PAN   c_v+30
 BYTE   W01
 BYTE   N07
 BYTE   W42
// 001   ----------------------------------------
Label_3_5463D6:
 BYTE   W05
 BYTE   PAN   c_v-30
 BYTE   W01
 BYTE   N07  Gs3  v112
 BYTE   W44
 BYTE   W03
 BYTE   PAN   c_v+30
 BYTE   W01
 BYTE   N07
 BYTE   W42
 BYTE   PEND 
 BYTE   PATT
  POIN2 Label_3_5463D6
 BYTE   PATT
  POIN2 Label_3_5463D6
// 002   ----------------------------------------
Label_3_5463EF:
 BYTE   W96
// 003   ----------------------------------------
 BYTE   W96
// 004   ----------------------------------------
 BYTE   W96
// 005   ----------------------------------------
 BYTE   W96
// 006   ----------------------------------------
 BYTE   W96
// 007   ----------------------------------------
 BYTE   W96
// 008   ----------------------------------------
 BYTE   W96
// 009   ----------------------------------------
 BYTE   W96
// 010   ----------------------------------------
 BYTE   W05
 BYTE   VOL   23*PokemonMDRescueTeamFriendAreaSwampRandomWizard_mvl/mxv
 BYTE   PAN   c_v-40
 BYTE   W01
 BYTE   N10  Gs2  v112
 BYTE   W24
 BYTE   As2
 BYTE   W24
 BYTE   N20  Bn2
 BYTE   W42
// 011   ----------------------------------------
 BYTE   W96
// 012   ----------------------------------------
Label_3_546407:
 BYTE   W06
 BYTE   N10  Gs2  v112
 BYTE   W24
 BYTE   As2
 BYTE   W24
 BYTE   N20  Bn2
 BYTE   W42
 BYTE   PEND 
// 013   ----------------------------------------
 BYTE   W96
 BYTE   PATT
  POIN2 Label_3_546407
// 014   ----------------------------------------
 BYTE   W96
// 015   ----------------------------------------
 BYTE   W06
 BYTE   N10  En2  v112
 BYTE   W24
 BYTE   Fs2
 BYTE   W24
 BYTE   N24  Gs2
 BYTE   W42
// 016   ----------------------------------------
 BYTE   W06
 BYTE   En2
 BYTE   W24
 BYTE   Ds2
 BYTE   W24
 BYTE   N32  Cs2
 BYTE   W42
// 017   ----------------------------------------
 BYTE   W06
 BYTE   GoTo
  POIN2 Label_3_5463EF
 BYTE   FINE

//**************** Track 5 (Midi-Chn.4) ****************//

PokemonMDRescueTeamFriendAreaSwampRandomWizard_005:
// 000   ----------------------------------------
 BYTE   KEYSH   PokemonMDRescueTeamFriendAreaSwampRandomWizard_key+0
 BYTE   VOICE   1
 BYTE   W01
 BYTE   VOL   28*PokemonMDRescueTeamFriendAreaSwampRandomWizard_mvl/mxv
 BYTE   W01
 BYTE   PAN   c_v+0
 BYTE   W04
 BYTE   TIE  Ds2  v072
 BYTE   W90
// 001   ----------------------------------------
 BYTE   W96
// 002   ----------------------------------------
 BYTE   W06
 BYTE   EOT
 BYTE   TIE
 BYTE   W90
// 003   ----------------------------------------
 BYTE   W96
// 004   ----------------------------------------
Label_4_5478E9:
 BYTE   W06
 BYTE   EOT
 BYTE   Ds2
 BYTE   W90
// 005   ----------------------------------------
 BYTE   W96
// 006   ----------------------------------------
 BYTE   W96
// 007   ----------------------------------------
 BYTE   W96
// 008   ----------------------------------------
 BYTE   W96
// 009   ----------------------------------------
 BYTE   W96
// 010   ----------------------------------------
 BYTE   W96
// 011   ----------------------------------------
 BYTE   W96
// 012   ----------------------------------------
 BYTE   W05
 BYTE   VOL   23*PokemonMDRescueTeamFriendAreaSwampRandomWizard_mvl/mxv
 BYTE   PAN   c_v+40
 BYTE   W01
 BYTE   N10  En2  v112
 BYTE   W24
 BYTE   Fs2
 BYTE   W24
 BYTE   N20  Gs2
 BYTE   W42
// 013   ----------------------------------------
 BYTE   W96
// 014   ----------------------------------------
Label_4_547904:
 BYTE   W06
 BYTE   N10  En2  v112
 BYTE   W24
 BYTE   Fs2
 BYTE   W24
 BYTE   N20  Gs2
 BYTE   W42
 BYTE   PEND 
// 015   ----------------------------------------
 BYTE   W96
 BYTE   PATT
  POIN2 Label_4_547904
// 016   ----------------------------------------
 BYTE   W96
// 017   ----------------------------------------
 BYTE   W06
 BYTE   N10  Gs2  v112
 BYTE   W24
 BYTE   As2
 BYTE   W24
 BYTE   N24  Bn2
 BYTE   W42
// 018   ----------------------------------------
 BYTE   W06
 BYTE   Gs2
 BYTE   W24
 BYTE   Fs2
 BYTE   W24
 BYTE   N32  Fn2
 BYTE   W42
// 019   ----------------------------------------
 BYTE   W06
 BYTE   GoTo
  POIN2 Label_4_5478E9
 BYTE   FINE

//**************** Track 6 (Midi-Chn.5) ****************//

PokemonMDRescueTeamFriendAreaSwampRandomWizard_006:
// 000   ----------------------------------------
 BYTE   KEYSH   PokemonMDRescueTeamFriendAreaSwampRandomWizard_key+0
 BYTE   VOICE   52
 BYTE   PAN   c_v+0
 BYTE   VOL   40*PokemonMDRescueTeamFriendAreaSwampRandomWizard_mvl/mxv
 BYTE   W06
 BYTE   TIE  Gs1  v112
 BYTE   W90
// 001   ----------------------------------------
 BYTE   W96
// 002   ----------------------------------------
 BYTE   W06
 BYTE   EOT
 BYTE   TIE
 BYTE   W90
// 003   ----------------------------------------
 BYTE   W96
// 004   ----------------------------------------
Label_5_547943:
 BYTE   W06
 BYTE   EOT
 BYTE   Gs1
 BYTE   N08  Gs1  v120
 BYTE   W24
 BYTE   N16
 BYTE   W16
 BYTE   N08
 BYTE   W08
 BYTE   Fs1
 BYTE   W24
 BYTE   N24
 BYTE   W18
// 005   ----------------------------------------
Label_5_547952:
 BYTE   W06
 BYTE   N08  En1  v120
 BYTE   W24
 BYTE   Fs1
 BYTE   W24
 BYTE   Gs1
 BYTE   W08
 BYTE   Ds1  v080
 BYTE   W08
 BYTE   Fs1  v100
 BYTE   W08
 BYTE   N16  Gs1  v120
 BYTE   W16
 BYTE   N08  Ds1  v100
 BYTE   W02
 BYTE   PEND 
// 006   ----------------------------------------
Label_5_54796A:
 BYTE   W06
 BYTE   N08  Gs1  v120
 BYTE   W24
 BYTE   N16
 BYTE   W16
 BYTE   N08
 BYTE   W08
 BYTE   Fs1
 BYTE   W24
 BYTE   N24
 BYTE   W18
 BYTE   PEND 
// 007   ----------------------------------------
 BYTE   W06
 BYTE   N08  En1
 BYTE   W24
 BYTE   Fs1
 BYTE   W24
 BYTE   Gs1
 BYTE   W08
 BYTE   Ds1  v080
 BYTE   W08
 BYTE   Gs1  v100
 BYTE   W08
 BYTE   Ds2  v120
 BYTE   W16
 BYTE   Gn1  v080
 BYTE   W02
 BYTE   PATT
  POIN2 Label_5_54796A
 BYTE   PATT
  POIN2 Label_5_547952
 BYTE   PATT
  POIN2 Label_5_54796A
// 008   ----------------------------------------
 BYTE   W06
 BYTE   N08  En1  v120
 BYTE   W24
 BYTE   Fs1
 BYTE   W24
 BYTE   Gs1
 BYTE   W08
 BYTE   Ds1  v080
 BYTE   W08
 BYTE   Fs1  v100
 BYTE   W08
 BYTE   N16  Gs1  v120
 BYTE   W16
 BYTE   N08  Ds1  v080
 BYTE   W02
// 009   ----------------------------------------
Label_5_5479B2:
 BYTE   W06
 BYTE   N08  En1  v120
 BYTE   W24
 BYTE   Fs1
 BYTE   W24
 BYTE   N19  Gs1
 BYTE   W40
 BYTE   N08  Fs1
 BYTE   W02
 BYTE   PEND 
// 010   ----------------------------------------
Label_5_5479C0:
 BYTE   W06
 BYTE   N08  En1  v120
 BYTE   W24
 BYTE   Fs1
 BYTE   W24
 BYTE   Gs1
 BYTE   W08
 BYTE   Cs1  v072
 BYTE   W08
 BYTE   Ds1  v120
 BYTE   W08
 BYTE   N16  Gs1
 BYTE   W16
 BYTE   N08  Ds1  v100
 BYTE   W02
 BYTE   PEND 
 BYTE   PATT
  POIN2 Label_5_5479B2
// 011   ----------------------------------------
 BYTE   W06
 BYTE   N08  En1  v120
 BYTE   W24
 BYTE   Fs1
 BYTE   W24
 BYTE   N16  Gs1
 BYTE   W16
 BYTE   N08  Ds1  v072
 BYTE   W08
 BYTE   N24  Gs1  v120
 BYTE   W18
 BYTE   PATT
  POIN2 Label_5_5479B2
 BYTE   PATT
  POIN2 Label_5_5479C0
// 012   ----------------------------------------
 BYTE   W06
 BYTE   N08  En1  v120
 BYTE   W24
 BYTE   Fs1
 BYTE   W24
 BYTE   N19  Gs1
 BYTE   W24
 BYTE   N08  Fs1
 BYTE   W16
 BYTE   N08
 BYTE   W02
// 013   ----------------------------------------
 BYTE   W06
 BYTE   N24  En1
 BYTE   W24
 BYTE   Ds1
 BYTE   W24
 BYTE   N08  Cs2
 BYTE   W16
 BYTE   N08
 BYTE   W08
 BYTE   Cs1
 BYTE   W18
// 014   ----------------------------------------
 BYTE   W06
 BYTE   GoTo
  POIN2 Label_5_547943
 BYTE   FINE

//**************** Track 7 (Midi-Chn.6) ****************//

PokemonMDRescueTeamFriendAreaSwampRandomWizard_007:
// 000   ----------------------------------------
 BYTE   KEYSH   PokemonMDRescueTeamFriendAreaSwampRandomWizard_key+0
 BYTE   VOICE   24
 BYTE   VOL   16*PokemonMDRescueTeamFriendAreaSwampRandomWizard_mvl/mxv
 BYTE   PAN   c_v+0
 BYTE   W96
// 001   ----------------------------------------
 BYTE   W96
// 002   ----------------------------------------
 BYTE   W96
// 003   ----------------------------------------
 BYTE   W54
 BYTE   N08  Gs3  v127
 BYTE   W16
 BYTE   N08
 BYTE   W08
 BYTE   N24
 BYTE   W18
// 004   ----------------------------------------
Label_6_5466D2:
 BYTE   W06
 BYTE   N16  Gs3  v127
 BYTE   W24
 BYTE   N16
 BYTE   W16
 BYTE   N08
 BYTE   W08
 BYTE   N16
 BYTE   W24
 BYTE   N16
 BYTE   W18
 BYTE   PEND 
// 005   ----------------------------------------
Label_6_5466E0:
 BYTE   W06
 BYTE   N16  Gs3  v127
 BYTE   W24
 BYTE   N16
 BYTE   W16
 BYTE   N08
 BYTE   W08
 BYTE   N16
 BYTE   W24
 BYTE   N16
 BYTE   W16
 BYTE   N08
 BYTE   W02
 BYTE   PEND 
 BYTE   PATT
  POIN2 Label_6_5466D2
 BYTE   PATT
  POIN2 Label_6_5466E0
 BYTE   PATT
  POIN2 Label_6_5466D2
 BYTE   PATT
  POIN2 Label_6_5466E0
 BYTE   PATT
  POIN2 Label_6_5466D2
 BYTE   PATT
  POIN2 Label_6_5466E0
// 006   ----------------------------------------
Label_6_54670E:
 BYTE   W78
 BYTE   N16  Gs3  v127
 BYTE   W16
 BYTE   N08
 BYTE   W02
 BYTE   PEND 
// 007   ----------------------------------------
Label_6_546716:
 BYTE   W06
 BYTE   N16  Gs3  v127
 BYTE   W24
 BYTE   N16
 BYTE   W24
 BYTE   N16
 BYTE   W24
 BYTE   N16
 BYTE   W16
 BYTE   N08
 BYTE   W02
 BYTE   PEND 
 BYTE   PATT
  POIN2 Label_6_54670E
 BYTE   PATT
  POIN2 Label_6_546716
 BYTE   PATT
  POIN2 Label_6_54670E
 BYTE   PATT
  POIN2 Label_6_546716
 BYTE   PATT
  POIN2 Label_6_54670E
// 008   ----------------------------------------
 BYTE   W06
 BYTE   N16  Gs3  v127
 BYTE   W24
 BYTE   N16
 BYTE   W24
 BYTE   N16
 BYTE   W24
 BYTE   N16
 BYTE   W18
// 009   ----------------------------------------
 BYTE   W06
 BYTE   GoTo
  POIN2 Label_6_5466D2
 BYTE   FINE

//**************** Track 8 (Midi-Chn.7) ****************//

PokemonMDRescueTeamFriendAreaSwampRandomWizard_008:
// 000   ----------------------------------------
 BYTE   KEYSH   PokemonMDRescueTeamFriendAreaSwampRandomWizard_key+0
 BYTE   VOICE   66
 BYTE   W01
 BYTE   VOL   22*PokemonMDRescueTeamFriendAreaSwampRandomWizard_mvl/mxv
 BYTE   W01
 BYTE   PAN   c_v+10
 BYTE   W92
 BYTE   W02
// 001   ----------------------------------------
 BYTE   W96
// 002   ----------------------------------------
 BYTE   W96
// 003   ----------------------------------------
 BYTE   W96
// 004   ----------------------------------------
Label_7_54675F:
 BYTE   W06
 BYTE   N08  Gs3  v112
 BYTE   W08
 BYTE   N03  Gs2  v020
 BYTE   W08
 BYTE   Gs2  v052
 BYTE   W08
 BYTE   N08  Gs3  v112
 BYTE   W08
 BYTE   N03  Gs2  v052
 BYTE   W08
 BYTE   N08  Gs3  v112
 BYTE   W08
 BYTE   Fs3
 BYTE   W08
 BYTE   N03  As2  v020
 BYTE   W08
 BYTE   As2  v068
 BYTE   W08
 BYTE   N07  Fs3  v112
 BYTE   W08
 BYTE   N03  As2  v020
 BYTE   W08
 BYTE   Fs3  v068
 BYTE   W02
 BYTE   PEND 
// 005   ----------------------------------------
 BYTE   W06
 BYTE   N08  En3  v112
 BYTE   W08
 BYTE   N03  Gs2  v020
 BYTE   W08
 BYTE   Gs2  v068
 BYTE   W08
 BYTE   N08  Fs3  v112
 BYTE   W08
 BYTE   N03  As2  v020
 BYTE   W08
 BYTE   As2  v068
 BYTE   W08
 BYTE   N08  Gs3  v112
 BYTE   W08
 BYTE   N03  Gs2  v052
 BYTE   W08
 BYTE   As2  v068
 BYTE   W08
 BYTE   N08  Ds3  v112
 BYTE   W08
 BYTE   N03  Gs2  v068
 BYTE   W10
 BYTE   PATT
  POIN2 Label_7_54675F
// 006   ----------------------------------------
Label_7_5467BB:
 BYTE   W06
 BYTE   N08  En3  v112
 BYTE   W08
 BYTE   N03  Gs2  v020
 BYTE   W08
 BYTE   Gs2  v068
 BYTE   W08
 BYTE   N08  Fs3  v112
 BYTE   W08
 BYTE   N03  As2  v020
 BYTE   W08
 BYTE   As2  v068
 BYTE   W08
 BYTE   N08  Gs3  v112
 BYTE   W08
 BYTE   N03  Cs3  v052
 BYTE   W08
 BYTE   Ds3  v068
 BYTE   W08
 BYTE   N24  Gs3  v080
 BYTE   W18
 BYTE   PEND 
// 007   ----------------------------------------
 BYTE   W06
 BYTE   N08  Gs3  v112
 BYTE   W08
 BYTE   N03  Gs2  v020
 BYTE   W08
 BYTE   Gs2  v052
 BYTE   W08
 BYTE   N08  Gs3  v112
 BYTE   W08
 BYTE   N03  Gs2  v052
 BYTE   W08
 BYTE   N08  Gs3  v112
 BYTE   W08
 BYTE   Fs3
 BYTE   W08
 BYTE   N03  As2  v020
 BYTE   W08
 BYTE   As2  v068
 BYTE   W08
 BYTE   N07  Fs3  v112
 BYTE   W08
 BYTE   N03  As2  v020
 BYTE   W08
 BYTE   As3  v068
 BYTE   W02
// 008   ----------------------------------------
 BYTE   W06
 BYTE   N08  Gs3  v112
 BYTE   W08
 BYTE   N03  Gs2  v020
 BYTE   W08
 BYTE   Gs2  v068
 BYTE   W08
 BYTE   N08  Fs3  v112
 BYTE   W08
 BYTE   N03  As2  v020
 BYTE   W08
 BYTE   As2  v068
 BYTE   W08
 BYTE   N08  Gs3  v112
 BYTE   W08
 BYTE   N03  Gs2  v052
 BYTE   W08
 BYTE   As2  v068
 BYTE   W08
 BYTE   N08  Ds3  v112
 BYTE   W08
 BYTE   N03  Gs2  v068
 BYTE   W08
 BYTE   N07  Fs3  v112
 BYTE   W02
 BYTE   PATT
  POIN2 Label_7_54675F
 BYTE   PATT
  POIN2 Label_7_5467BB
// 009   ----------------------------------------
Label_7_546846:
 BYTE   W06
 BYTE   N08  En3  v112
 BYTE   W08
 BYTE   N03  Gs2  v020
 BYTE   W08
 BYTE   N03
 BYTE   W08
 BYTE   N08  Fs3  v112
 BYTE   W08
 BYTE   N03  As2  v020
 BYTE   W08
 BYTE   N03
 BYTE   W08
 BYTE   N08  Gs3  v112
 BYTE   W08
 BYTE   N03  Ds3  v020
 BYTE   W08
 BYTE   Ds3  v068
 BYTE   W08
 BYTE   N07  Gs3  v112
 BYTE   W16
 BYTE   N03  Ds3  v068
 BYTE   W02
 BYTE   PEND 
// 010   ----------------------------------------
Label_7_54686F:
 BYTE   W06
 BYTE   N08  En3  v112
 BYTE   W08
 BYTE   N03  Cs3  v020
 BYTE   W08
 BYTE   En3  v068
 BYTE   W08
 BYTE   N08  Fs3  v112
 BYTE   W08
 BYTE   N03  Ds3  v020
 BYTE   W08
 BYTE   Fs3  v068
 BYTE   W08
 BYTE   N08  Gs3  v112
 BYTE   W08
 BYTE   N03  Cs3  v020
 BYTE   W08
 BYTE   Ds3  v068
 BYTE   W08
 BYTE   N07  Gs3  v112
 BYTE   W08
 BYTE   N03  Cs3  v020
 BYTE   W08
 BYTE   Ds3  v068
 BYTE   W02
 BYTE   PEND 
// 011   ----------------------------------------
Label_7_54689D:
 BYTE   W06
 BYTE   N08  En3  v112
 BYTE   W08
 BYTE   N03  Gs2  v020
 BYTE   W08
 BYTE   N03
 BYTE   W08
 BYTE   N08  Fs3  v112
 BYTE   W08
 BYTE   N03  As2  v020
 BYTE   W08
 BYTE   N03
 BYTE   W08
 BYTE   N08  Gs3  v112
 BYTE   W08
 BYTE   N03  Ds3  v020
 BYTE   W08
 BYTE   Fs3  v068
 BYTE   W08
 BYTE   N07  Gs3  v112
 BYTE   W08
 BYTE   N03  Fs3  v020
 BYTE   W08
 BYTE   Ds3  v068
 BYTE   W02
 BYTE   PEND 
// 012   ----------------------------------------
 BYTE   W06
 BYTE   N08  En3  v112
 BYTE   W08
 BYTE   N03  Gs2  v020
 BYTE   W08
 BYTE   N03
 BYTE   W08
 BYTE   N08  Fs3  v112
 BYTE   W08
 BYTE   N03  As2  v020
 BYTE   W08
 BYTE   N03
 BYTE   W08
 BYTE   N08  Gs3  v112
 BYTE   W08
 BYTE   N03  Cs3  v020
 BYTE   W08
 BYTE   Ds3  v068
 BYTE   W08
 BYTE   N07  Gs3  v112
 BYTE   W18
 BYTE   PATT
  POIN2 Label_7_546846
 BYTE   PATT
  POIN2 Label_7_54686F
 BYTE   PATT
  POIN2 Label_7_54689D
// 013   ----------------------------------------
 BYTE   W06
 BYTE   N08  Gs3  v112
 BYTE   W08
 BYTE   N03  Gs3  v020
 BYTE   W16
 BYTE   N08  Fs3  v112
 BYTE   W08
 BYTE   N03  Fs3  v020
 BYTE   W16
 BYTE   N24  Fn3  v112
 BYTE   W24
 BYTE   N03  Fn3  v020
 BYTE   W18
// 014   ----------------------------------------
 BYTE   W06
 BYTE   GoTo
  POIN2 Label_7_54675F
 BYTE   FINE

//**************** Track 9 (Midi-Chn.8) ****************//

PokemonMDRescueTeamFriendAreaSwampRandomWizard_009:
// 000   ----------------------------------------
 BYTE   KEYSH   PokemonMDRescueTeamFriendAreaSwampRandomWizard_key+0
 BYTE   VOICE   80
 BYTE   W01
 BYTE   VOL   22*PokemonMDRescueTeamFriendAreaSwampRandomWizard_mvl/mxv
 BYTE   W01
 BYTE   PAN   c_v-10
 BYTE   W92
 BYTE   W02
// 001   ----------------------------------------
 BYTE   W96
// 002   ----------------------------------------
 BYTE   W96
// 003   ----------------------------------------
 BYTE   W96
// 004   ----------------------------------------
Label_8_546E59:
 BYTE   W06
 BYTE   N08  Bn2  v112
 BYTE   W08
 BYTE   N03  Ds2  v032
 BYTE   W08
 BYTE   Ds2  v052
 BYTE   W08
 BYTE   N08  Bn2  v112
 BYTE   W08
 BYTE   N03  Ds2  v032
 BYTE   W08
 BYTE   N08  Bn2  v112
 BYTE   W08
 BYTE   As2
 BYTE   W08
 BYTE   N03  Ds2  v032
 BYTE   W08
 BYTE   Cs2  v052
 BYTE   W08
 BYTE   N15  Cs3  v112
 BYTE   W16
 BYTE   N03  As2  v068
 BYTE   W02
 BYTE   PEND 
// 005   ----------------------------------------
Label_8_546E83:
 BYTE   W06
 BYTE   N08  Bn2  v112
 BYTE   W08
 BYTE   N03  Cs2  v032
 BYTE   W08
 BYTE   Ds2  v052
 BYTE   W08
 BYTE   N08  As2  v112
 BYTE   W08
 BYTE   N03  Cs2  v032
 BYTE   W08
 BYTE   Ds2  v052
 BYTE   W08
 BYTE   N08  Bn2  v112
 BYTE   W08
 BYTE   N03  Cs2  v032
 BYTE   W08
 BYTE   Ds2  v052
 BYTE   W08
 BYTE   N08  Gs2  v112
 BYTE   W08
 BYTE   N03  Ds2  v052
 BYTE   W08
 BYTE   N07  As2  v112
 BYTE   W02
 BYTE   PEND 
 BYTE   PATT
  POIN2 Label_8_546E59
// 006   ----------------------------------------
Label_8_546EB7:
 BYTE   W06
 BYTE   N08  Bn2  v112
 BYTE   W08
 BYTE   N03  Cs2  v032
 BYTE   W08
 BYTE   Ds2  v052
 BYTE   W08
 BYTE   N08  As2  v112
 BYTE   W08
 BYTE   N03  Cs2  v032
 BYTE   W08
 BYTE   Ds2  v052
 BYTE   W08
 BYTE   N08  Bn2  v112
 BYTE   W08
 BYTE   N03  Ds2  v032
 BYTE   W08
 BYTE   Gs2  v052
 BYTE   W08
 BYTE   N24  Bn2  v112
 BYTE   W18
 BYTE   PEND 
 BYTE   PATT
  POIN2 Label_8_546E59
 BYTE   PATT
  POIN2 Label_8_546E83
 BYTE   PATT
  POIN2 Label_8_546E59
 BYTE   PATT
  POIN2 Label_8_546EB7
// 007   ----------------------------------------
Label_8_546EF2:
 BYTE   W06
 BYTE   N08  Gs2  v112
 BYTE   W08
 BYTE   N03  En2  v032
 BYTE   W08
 BYTE   N03
 BYTE   W08
 BYTE   N08  As2  v112
 BYTE   W08
 BYTE   N03  Fs2  v032
 BYTE   W08
 BYTE   N03
 BYTE   W08
 BYTE   N08  Bn2  v112
 BYTE   W08
 BYTE   N03  Gs2  v040
 BYTE   W08
 BYTE   Bn2  v068
 BYTE   W08
 BYTE   N07  Cs3  v112
 BYTE   W08
 BYTE   N03  Bn2  v068
 BYTE   W08
 BYTE   As2
 BYTE   W02
 BYTE   PEND 
// 008   ----------------------------------------
 BYTE   W06
 BYTE   N08  Gs2  v112
 BYTE   W08
 BYTE   N03  En2  v032
 BYTE   W08
 BYTE   N03
 BYTE   W08
 BYTE   N08  As2  v112
 BYTE   W08
 BYTE   N03  Fs2  v032
 BYTE   W08
 BYTE   N03
 BYTE   W08
 BYTE   N08  Gs2  v112
 BYTE   W08
 BYTE   N03  Cs3  v040
 BYTE   W08
 BYTE   Ds3  v068
 BYTE   W08
 BYTE   N07  Gs2  v112
 BYTE   W16
 BYTE   N03  Fs2  v068
 BYTE   W02
// 009   ----------------------------------------
Label_8_546F45:
 BYTE   W06
 BYTE   N08  Gs2  v112
 BYTE   W08
 BYTE   N03  En2  v032
 BYTE   W08
 BYTE   N03
 BYTE   W08
 BYTE   N08  As2  v112
 BYTE   W08
 BYTE   N03  Fs2  v032
 BYTE   W08
 BYTE   N03
 BYTE   W08
 BYTE   N08  Bn2  v112
 BYTE   W08
 BYTE   N03  Gs2  v032
 BYTE   W08
 BYTE   Bn2  v068
 BYTE   W08
 BYTE   N07  Cs3  v112
 BYTE   W08
 BYTE   N03  Bn2  v068
 BYTE   W08
 BYTE   As2
 BYTE   W02
 BYTE   PEND 
// 010   ----------------------------------------
 BYTE   W06
 BYTE   N08  Gs2  v112
 BYTE   W08
 BYTE   N03  En2  v032
 BYTE   W08
 BYTE   N03
 BYTE   W08
 BYTE   N08  As2  v112
 BYTE   W08
 BYTE   N03  Fs2  v032
 BYTE   W08
 BYTE   N03
 BYTE   W08
 BYTE   N08  Bn2  v112
 BYTE   W08
 BYTE   N03  Gs2  v032
 BYTE   W08
 BYTE   Bn2  v068
 BYTE   W24
 BYTE   W02
 BYTE   PATT
  POIN2 Label_8_546EF2
// 011   ----------------------------------------
 BYTE   W06
 BYTE   N08  Gs2  v112
 BYTE   W08
 BYTE   N03  En2  v032
 BYTE   W08
 BYTE   N03
 BYTE   W08
 BYTE   N08  As2  v112
 BYTE   W08
 BYTE   N03  Fs2  v032
 BYTE   W08
 BYTE   N03
 BYTE   W08
 BYTE   N08  Gs2  v112
 BYTE   W08
 BYTE   N03  Fs2  v040
 BYTE   W08
 BYTE   Gs2  v068
 BYTE   W08
 BYTE   N07  Ds3  v112
 BYTE   W16
 BYTE   N03  Fs2  v068
 BYTE   W02
 BYTE   PATT
  POIN2 Label_8_546F45
// 012   ----------------------------------------
 BYTE   W06
 BYTE   N07  Bn2  v112
 BYTE   W08
 BYTE   N03  Bn2  v032
 BYTE   W16
 BYTE   N07  Cs3  v112
 BYTE   W08
 BYTE   N03  Cs3  v032
 BYTE   W16
 BYTE   N23  Gs2  v112
 BYTE   W24
 BYTE   N03  Gs2  v032
 BYTE   W18
// 013   ----------------------------------------
 BYTE   W06
 BYTE   GoTo
  POIN2 Label_8_546E59
 BYTE   FINE

//**************** Track 10 (Midi-Chn.9) ****************//

PokemonMDRescueTeamFriendAreaSwampRandomWizard_010:
// 000   ----------------------------------------
 BYTE   KEYSH   PokemonMDRescueTeamFriendAreaSwampRandomWizard_key+0
 BYTE   VOICE   127
 BYTE   W01
 BYTE   VOL   37*PokemonMDRescueTeamFriendAreaSwampRandomWizard_mvl/mxv
 BYTE   W01
 BYTE   PAN   c_v+0
 BYTE   W04
 BYTE   N02  Fs1  v080
 BYTE   W16
 BYTE   N02
 BYTE   W08
 BYTE   N16  Ds2  v068
 BYTE   W16
 BYTE   N02  Fs1  v080
 BYTE   W08
 BYTE   N02
 BYTE   W16
 BYTE   N02
 BYTE   W08
 BYTE   N08  Ds2  v068
 BYTE   W08
 BYTE   N02  Fs1  v032
 BYTE   W08
 BYTE   Fs1  v080
 BYTE   W02
// 001   ----------------------------------------
 BYTE   W06
 BYTE   N02
 BYTE   W16
 BYTE   N02
 BYTE   W08
 BYTE   N16  Ds2  v068
 BYTE   W16
 BYTE   N02  Fs1  v080
 BYTE   W08
 BYTE   N02
 BYTE   W08
 BYTE   Ds2  v068
 BYTE   W08
 BYTE   Fs1  v032
 BYTE   W08
 BYTE   Fs1  v080
 BYTE   W08
 BYTE   Fs1  v032
 BYTE   W08
 BYTE   N08  Ds2  v068
 BYTE   W02
// 002   ----------------------------------------
 BYTE   W06
 BYTE   N02  Fs1  v080
 BYTE   W16
 BYTE   N02
 BYTE   W08
 BYTE   N16  Ds2  v068
 BYTE   W16
 BYTE   N02  Fs1  v080
 BYTE   W08
 BYTE   N02
 BYTE   W16
 BYTE   N02
 BYTE   W08
 BYTE   N08  Ds2  v068
 BYTE   W08
 BYTE   N02  Fs1  v032
 BYTE   W08
 BYTE   Fs1  v080
 BYTE   W02
// 003   ----------------------------------------
 BYTE   W06
 BYTE   N02
 BYTE   W16
 BYTE   N02
 BYTE   W08
 BYTE   N16  Ds2  v068
 BYTE   W16
 BYTE   N02  Fs1  v080
 BYTE   W08
 BYTE   N02
 BYTE   W08
 BYTE   Ds2  v068
 BYTE   W08
 BYTE   Fs1  v032
 BYTE   W08
 BYTE   N24  En2  v068
 BYTE   W18
// 004   ----------------------------------------
Label_9_547062:
 BYTE   W06
 BYTE   N02  Fs1  v080
 BYTE   W16
 BYTE   Fs1  v052
 BYTE   W08
 BYTE   N08  Ds2  v080
 BYTE   W16
 BYTE   N02  Fs1  v052
 BYTE   W08
 BYTE   Fs1  v080
 BYTE   W16
 BYTE   Fs1  v052
 BYTE   W08
 BYTE   N08  Ds2  v080
 BYTE   W16
 BYTE   N06  Ds2  v060
 BYTE   W02
 BYTE   PEND 
 BYTE   PATT
  POIN2 Label_9_547062
 BYTE   PATT
  POIN2 Label_9_547062
// 005   ----------------------------------------
 BYTE   W06
 BYTE   N02  Fs1  v080
 BYTE   W16
 BYTE   Fs1  v052
 BYTE   W08
 BYTE   N08  Ds2  v080
 BYTE   W16
 BYTE   N02  Fs1  v052
 BYTE   W08
 BYTE   Fs1  v080
 BYTE   W08
 BYTE   N06  Ds2  v060
 BYTE   W16
 BYTE   N08  Ds2  v080
 BYTE   W16
 BYTE   N02  Fs1  v052
 BYTE   W02
 BYTE   PATT
  POIN2 Label_9_547062
 BYTE   PATT
  POIN2 Label_9_547062
 BYTE   PATT
  POIN2 Label_9_547062
// 006   ----------------------------------------
 BYTE   W06
 BYTE   N02  Fs1  v080
 BYTE   W16
 BYTE   Fs1  v052
 BYTE   W08
 BYTE   N08  Ds2  v080
 BYTE   W16
 BYTE   N02  Fs1  v052
 BYTE   W08
 BYTE   Fs1  v080
 BYTE   W08
 BYTE   N06  Ds2  v060
 BYTE   W16
 BYTE   N24  Ds2  v080
 BYTE   W18
// 007   ----------------------------------------
Label_9_5470D4:
 BYTE   W06
 BYTE   N08  Ds2  v080
 BYTE   W24
 BYTE   N06  Ds2  v060
 BYTE   W24
 BYTE   N08  Ds2  v080
 BYTE   W16
 BYTE   N02  Fs1  v052
 BYTE   W08
 BYTE   N08  Ds2  v080
 BYTE   W16
 BYTE   N02  Fs1  v052
 BYTE   W02
 BYTE   PEND 
// 008   ----------------------------------------
Label_9_5470EE:
 BYTE   W06
 BYTE   N02  Fs1  v080
 BYTE   W16
 BYTE   Fs1  v052
 BYTE   W08
 BYTE   N08  Ds2  v080
 BYTE   W16
 BYTE   N02  Fs1  v052
 BYTE   W08
 BYTE   Fs1  v080
 BYTE   W16
 BYTE   Fs1  v052
 BYTE   W08
 BYTE   N08  Ds2  v080
 BYTE   W16
 BYTE   Ds2  v060
 BYTE   W02
 BYTE   PEND 
 BYTE   PATT
  POIN2 Label_9_5470D4
 BYTE   PATT
  POIN2 Label_9_5470EE
 BYTE   PATT
  POIN2 Label_9_5470D4
 BYTE   PATT
  POIN2 Label_9_5470EE
// 009   ----------------------------------------
 BYTE   W06
 BYTE   N08  Ds2  v080
 BYTE   W48
 BYTE   N08
 BYTE   W42
// 010   ----------------------------------------
 BYTE   W06
 BYTE   N08
 BYTE   W24
 BYTE   N08
 BYTE   W24
 BYTE   N08
 BYTE   W24
 BYTE   N24  En2  v056
 BYTE   W18
// 011   ----------------------------------------
 BYTE   W06
 BYTE   GoTo
  POIN2 Label_9_547062
 BYTE   FINE

//******************************************************//
	ALIGN 4

PokemonMDRescueTeamFriendAreaSwampRandomWizard:
	BYTE	10	// NumTrks
	BYTE	0	// NumBlks
	BYTE	PokemonMDRescueTeamFriendAreaSwampRandomWizard_pri	// Priority
	BYTE	PokemonMDRescueTeamFriendAreaSwampRandomWizard_rev	// Reverb.
    
	POIN2	PokemonMDRescueTeamFriendAreaSwampRandomWizard_grp
    
	POIN2	PokemonMDRescueTeamFriendAreaSwampRandomWizard_001
	POIN2	PokemonMDRescueTeamFriendAreaSwampRandomWizard_002
	POIN2	PokemonMDRescueTeamFriendAreaSwampRandomWizard_003
	POIN2	PokemonMDRescueTeamFriendAreaSwampRandomWizard_004
	POIN2	PokemonMDRescueTeamFriendAreaSwampRandomWizard_005
	POIN2	PokemonMDRescueTeamFriendAreaSwampRandomWizard_006
	POIN2	PokemonMDRescueTeamFriendAreaSwampRandomWizard_007
	POIN2	PokemonMDRescueTeamFriendAreaSwampRandomWizard_008
	POIN2	PokemonMDRescueTeamFriendAreaSwampRandomWizard_009
	POIN2	PokemonMDRescueTeamFriendAreaSwampRandomWizard_010

	
