//Event file generated from Sappy .s format.
	#include "MPlayDef.event"

	#define	PokemonDPPtBattleArceusGratedShtick_grp  voicegroup000
	#define	PokemonDPPtBattleArceusGratedShtick_pri  0
	#define	PokemonDPPtBattleArceusGratedShtick_rev  0
	#define	PokemonDPPtBattleArceusGratedShtick_mvl  127
	#define	PokemonDPPtBattleArceusGratedShtick_key  0
	#define	PokemonDPPtBattleArceusGratedShtick_tbs  1
	#define	PokemonDPPtBattleArceusGratedShtick_exg  0
	#define	PokemonDPPtBattleArceusGratedShtick_cmp  1

	// .rodata
	//	PokemonDPPtBattleArceusGratedShtick
	ALIGN 4


//**************** Track 1 (Midi-Chn.0) ****************//

PokemonDPPtBattleArceusGratedShtick_001:
// 000   ----------------------------------------
 BYTE   KEYSH   PokemonDPPtBattleArceusGratedShtick_key+0
 BYTE   TEMPO   150*PokemonDPPtBattleArceusGratedShtick_tbs/2
 BYTE   VOICE   39
 BYTE   PAN   c_v+0
 BYTE   MOD 0
 BYTE   CnM2
 BYTE   VOL   65*PokemonDPPtBattleArceusGratedShtick_mvl/mxv
 BYTE   BEND   c_v+0
 BYTE   N23  Cs1  v112
 BYTE   W24
 BYTE   N05  En1
 BYTE   W24
 BYTE   PAN   c_v+32
 BYTE   N05  En1  v040
 BYTE   W24
 BYTE   PAN   c_v-32
 BYTE   N05  En1  v028
 BYTE   W24
// 001   ----------------------------------------
 BYTE   PAN   c_v+32
 BYTE   N05  En1  v024
 BYTE   W24
 BYTE   PAN   c_v-32
 BYTE   N05  En1  v016
 BYTE   W24
 BYTE   PAN   c_v+32
 BYTE   N05
 BYTE   W24
 BYTE   PAN   c_v-32
 BYTE   N05  En1  v008
 BYTE   W24
// 002   ----------------------------------------
 BYTE   PAN   c_v+0
 BYTE   N23  Cs1  v112
 BYTE   W24
 BYTE   N05  En1
 BYTE   W06
 BYTE   En1  v040
 BYTE   W18
 BYTE   PAN   c_v+32
 BYTE   N05
 BYTE   W24
 BYTE   PAN   c_v-32
 BYTE   N05  En1  v028
 BYTE   W24
// 003   ----------------------------------------
 BYTE   PAN   c_v+32
 BYTE   N05  En1  v024
 BYTE   W24
 BYTE   PAN   c_v-32
 BYTE   N05  En1  v016
 BYTE   W24
 BYTE   PAN   c_v+32
 BYTE   N05
 BYTE   W24
 BYTE   PAN   c_v-32
 BYTE   N05  En1  v008
 BYTE   N23  Cs2  v112
 BYTE   W24
// 004   ----------------------------------------
Label_0_0100269E:
 BYTE   N05  En2  v112
 BYTE   W06
 BYTE   En2  v040
 BYTE   W90
 BYTE   PEND 
// 005   ----------------------------------------
 BYTE   W96
// 006   ----------------------------------------
Label_0_010026A7:
 BYTE   W96
// 007   ----------------------------------------
 BYTE   W96
// 008   ----------------------------------------
 BYTE   W96
// 009   ----------------------------------------
 BYTE   W96
// 010   ----------------------------------------
 BYTE   W96
// 011   ----------------------------------------
 BYTE   W96
// 012   ----------------------------------------
 BYTE   W96
// 013   ----------------------------------------
 BYTE   W96
// 014   ----------------------------------------
 BYTE   W96
// 015   ----------------------------------------
 BYTE   W96
// 016   ----------------------------------------
 BYTE   W96
// 017   ----------------------------------------
 BYTE   W96
// 018   ----------------------------------------
 BYTE   W96
// 019   ----------------------------------------
 BYTE   W96
// 020   ----------------------------------------
 BYTE   W96
// 021   ----------------------------------------
 BYTE   PAN   c_v+0
 BYTE   W72
 BYTE   VOICE   48
 BYTE   PAN   c_v+0
 BYTE   VOL   65*PokemonDPPtBattleArceusGratedShtick_mvl/mxv
 BYTE   N23  Cs2  v112
 BYTE   W24
 BYTE   PATT
  POIN2 Label_0_0100269E
// 022   ----------------------------------------
 BYTE   W72
 BYTE   N23  Cs2  v112
 BYTE   W24
 BYTE   PATT
  POIN2 Label_0_0100269E
// 023   ----------------------------------------
 BYTE   W72
 BYTE   N23  Cs2  v112
 BYTE   W24
 BYTE   PATT
  POIN2 Label_0_0100269E
// 024   ----------------------------------------
 BYTE   W96
// 025   ----------------------------------------
 BYTE   W96
// 026   ----------------------------------------
 BYTE   W72
 BYTE   N23  Cs2  v112
 BYTE   W24
 BYTE   PATT
  POIN2 Label_0_0100269E
// 027   ----------------------------------------
 BYTE   W72
 BYTE   N23  Cs2  v112
 BYTE   W24
 BYTE   PATT
  POIN2 Label_0_0100269E
// 028   ----------------------------------------
 BYTE   W72
 BYTE   N23  Cs2  v112
 BYTE   W24
 BYTE   PATT
  POIN2 Label_0_0100269E
// 029   ----------------------------------------
 BYTE   W96
// 030   ----------------------------------------
 BYTE   W96
// 031   ----------------------------------------
 BYTE   W96
// 032   ----------------------------------------
 BYTE   W96
// 033   ----------------------------------------
 BYTE   W96
// 034   ----------------------------------------
 BYTE   W96
// 035   ----------------------------------------
 BYTE   W72
 BYTE   N23  Cs2  v112
 BYTE   W24
 BYTE   PATT
  POIN2 Label_0_0100269E
// 036   ----------------------------------------
 BYTE   W72
 BYTE   N23  Cs1  v112
 BYTE   W24
// 037   ----------------------------------------
 BYTE   N05  En1
 BYTE   W06
 BYTE   En1  v040
 BYTE   W90
// 038   ----------------------------------------
 BYTE   W96
// 039   ----------------------------------------
 BYTE   W96
// 040   ----------------------------------------
 BYTE   W96
// 041   ----------------------------------------
 BYTE   W96
// 042   ----------------------------------------
 BYTE   W92
 BYTE   W03
 BYTE   GoTo
  POIN2 Label_0_010026A7
 BYTE   FINE

//**************** Track 2 (Midi-Chn.1) ****************//

PokemonDPPtBattleArceusGratedShtick_002:
// 000   ----------------------------------------
 BYTE   KEYSH   PokemonDPPtBattleArceusGratedShtick_key+0
 BYTE   VOICE   56
 BYTE   VOL   56*PokemonDPPtBattleArceusGratedShtick_mvl/mxv
 BYTE   MOD 0
 BYTE   CnM2
 BYTE   PAN   c_v+32
 BYTE   BEND   c_v+0
 BYTE   N23  Bn1  v112
 BYTE   W24
 BYTE   N11
 BYTE   W24
 BYTE   PAN   c_v-29
 BYTE   N11  Bn1  v064
 BYTE   W24
 BYTE   PAN   c_v+38
 BYTE   N11  Bn1  v048
 BYTE   W24
// 001   ----------------------------------------
 BYTE   PAN   c_v-29
 BYTE   N11  Bn1  v036
 BYTE   W24
 BYTE   PAN   c_v+38
 BYTE   N11  Bn1  v028
 BYTE   W24
 BYTE   PAN   c_v-29
 BYTE   N11
 BYTE   W24
 BYTE   PAN   c_v+38
 BYTE   N11  Bn1  v016
 BYTE   W24
// 002   ----------------------------------------
 BYTE   PAN   c_v+32
 BYTE   N23  Bn3  v112
 BYTE   W24
 BYTE   N11
 BYTE   W24
 BYTE   PAN   c_v-29
 BYTE   N11  Bn3  v060
 BYTE   W24
 BYTE   PAN   c_v+38
 BYTE   N11  Bn3  v048
 BYTE   W24
// 003   ----------------------------------------
 BYTE   PAN   c_v-29
 BYTE   N11  Bn3  v036
 BYTE   W24
 BYTE   PAN   c_v+38
 BYTE   N11  Bn3  v024
 BYTE   W24
 BYTE   PAN   c_v-29
 BYTE   N11  Bn3  v016
 BYTE   W24
 BYTE   PAN   c_v+41
 BYTE   N23  Bn4  v112
 BYTE   W24
// 004   ----------------------------------------
 BYTE   N05
 BYTE   W96
// 005   ----------------------------------------
 BYTE   W96
// 006   ----------------------------------------
Label_1_01002787:
 BYTE   W96
// 007   ----------------------------------------
 BYTE   W96
// 008   ----------------------------------------
 BYTE   W96
// 009   ----------------------------------------
 BYTE   W96
// 010   ----------------------------------------
 BYTE   W96
// 011   ----------------------------------------
 BYTE   W96
// 012   ----------------------------------------
 BYTE   W96
// 013   ----------------------------------------
 BYTE   W96
// 014   ----------------------------------------
 BYTE   W96
// 015   ----------------------------------------
 BYTE   W96
// 016   ----------------------------------------
 BYTE   W96
// 017   ----------------------------------------
 BYTE   W96
// 018   ----------------------------------------
 BYTE   W96
// 019   ----------------------------------------
 BYTE   W96
// 020   ----------------------------------------
 BYTE   W96
// 021   ----------------------------------------
 BYTE   W72
 BYTE   VOICE   48
 BYTE   N23  Bn1  v112
 BYTE   W24
// 022   ----------------------------------------
 BYTE   N05
 BYTE   W06
 BYTE   Bn1  v040
 BYTE   W42
 BYTE   N68  Ds2  v112
 BYTE   W48
// 023   ----------------------------------------
 BYTE   W24
 BYTE   N05  Ds2  v040
 BYTE   W12
 BYTE   N17  As1  v112
 BYTE   W18
 BYTE   N05  As1  v040
 BYTE   W18
 BYTE   N23  Dn2  v112
 BYTE   W24
// 024   ----------------------------------------
 BYTE   N05
 BYTE   W06
 BYTE   Dn2  v040
 BYTE   W30
 BYTE   N56  Gs1  v112
 BYTE   W60
// 025   ----------------------------------------
 BYTE   N44  Cn2
 BYTE   W48
 BYTE   N05  Cn2  v040
 BYTE   W24
 BYTE   N23  Cn2  v112
 BYTE   W24
// 026   ----------------------------------------
Label_1_010027CB:
 BYTE   N05  Bn1  v112
 BYTE   W06
 BYTE   Bn1  v040
 BYTE   W90
 BYTE   PEND 
// 027   ----------------------------------------
 BYTE   W96
// 028   ----------------------------------------
 BYTE   W96
// 029   ----------------------------------------
 BYTE   W72
 BYTE   N23  Bn4  v112
 BYTE   W24
// 030   ----------------------------------------
 BYTE   N05
 BYTE   W48
 BYTE   N68  Ds5
 BYTE   W48
// 031   ----------------------------------------
 BYTE   W36
 BYTE   N17  As4
 BYTE   W36
 BYTE   N23  Cs5
 BYTE   W24
// 032   ----------------------------------------
 BYTE   N05  Dn5
 BYTE   W36
 BYTE   N56  Gn4
 BYTE   W60
// 033   ----------------------------------------
 BYTE   N44  Cs5
 BYTE   W72
 BYTE   N23  Cn5
 BYTE   W24
// 034   ----------------------------------------
 BYTE   N05  Bn4
 BYTE   W96
// 035   ----------------------------------------
 BYTE   W96
// 036   ----------------------------------------
 BYTE   W96
// 037   ----------------------------------------
 BYTE   W96
// 038   ----------------------------------------
 BYTE   VOL   36*PokemonDPPtBattleArceusGratedShtick_mvl/mxv
 BYTE   TIE  Cn1
 BYTE   W06
 BYTE   VOL   37*PokemonDPPtBattleArceusGratedShtick_mvl/mxv
 BYTE   W07
 BYTE   Cs1
 BYTE   W06
 BYTE   Dn1
 BYTE   W07
 BYTE   Dn1
 BYTE   W06
 BYTE   Ds1
 BYTE   W07
 BYTE   Ds1
 BYTE   W06
 BYTE   En1
 BYTE   W07
 BYTE   En1
 BYTE   W06
 BYTE   Fn1
 BYTE   W07
 BYTE   Fn1
 BYTE   W07
 BYTE   Fs1
 BYTE   W06
 BYTE   Fs1
 BYTE   W07
 BYTE   Gn1
 BYTE   W06
 BYTE   Gs1
 BYTE   W05
// 039   ----------------------------------------
 BYTE   W02
 BYTE   Gs1
 BYTE   W06
 BYTE   An1
 BYTE   W07
 BYTE   An1
 BYTE   W06
 BYTE   As1
 BYTE   W07
 BYTE   As1
 BYTE   W06
 BYTE   Bn1
 BYTE   W07
 BYTE   Bn1
 BYTE   W07
 BYTE   Cn2
 BYTE   W06
 BYTE   Cn2
 BYTE   W07
 BYTE   Cs2
 BYTE   W06
 BYTE   Cs2
 BYTE   W07
 BYTE   Dn2
 BYTE   W06
 BYTE   Dn2
 BYTE   W07
 BYTE   Ds2
 BYTE   W06
 BYTE   Ds2
 BYTE   W03
// 040   ----------------------------------------
 BYTE   W04
 BYTE   En2
 BYTE   W06
 BYTE   En2
 BYTE   W07
 BYTE   Fn2
 BYTE   W07
 BYTE   Fn2
 BYTE   W06
 BYTE   Fs2
 BYTE   W07
 BYTE   Fs2
 BYTE   W06
 BYTE   Gn2
 BYTE   W07
 BYTE   Gn2
 BYTE   W06
 BYTE   Gs2
 BYTE   W07
 BYTE   Gs2
 BYTE   W06
 BYTE   An2
 BYTE   W07
 BYTE   An2
 BYTE   W06
 BYTE   As2
 BYTE   W07
 BYTE   As2
 BYTE   W07
// 041   ----------------------------------------
 BYTE   Bn2
 BYTE   W06
 BYTE   Bn2
 BYTE   W07
 BYTE   Cn3
 BYTE   W06
 BYTE   Cn3
 BYTE   W07
 BYTE   Cs3
 BYTE   W06
 BYTE   Cs3
 BYTE   W07
 BYTE   Dn3
 BYTE   W06
 BYTE   Dn3
 BYTE   W07
 BYTE   Ds3
 BYTE   W06
 BYTE   Ds3
 BYTE   W07
 BYTE   En3
 BYTE   W06
 BYTE   EOT
 BYTE   W01
 BYTE   VOL   65*PokemonDPPtBattleArceusGratedShtick_mvl/mxv
 BYTE   N23  Bn3
 BYTE   W24
// 042   ----------------------------------------
 BYTE   N05
 BYTE   W06
 BYTE   Bn3  v040
 BYTE   W90
// 043   ----------------------------------------
 BYTE   W72
 BYTE   N23  Bn1  v112
 BYTE   W24
 BYTE   PATT
  POIN2 Label_1_010027CB
// 044   ----------------------------------------
 BYTE   W96
// 045   ----------------------------------------
 BYTE   W96
// 046   ----------------------------------------
 BYTE   W96
// 047   ----------------------------------------
 BYTE   W96
// 048   ----------------------------------------
 BYTE   W92
 BYTE   W03
 BYTE   GoTo
  POIN2 Label_1_01002787
 BYTE   FINE

//**************** Track 3 (Midi-Chn.2) ****************//

PokemonDPPtBattleArceusGratedShtick_003:
// 000   ----------------------------------------
 BYTE   KEYSH   PokemonDPPtBattleArceusGratedShtick_key+0
 BYTE   VOICE   56
 BYTE   VOL   56*PokemonDPPtBattleArceusGratedShtick_mvl/mxv
 BYTE   MOD 0
 BYTE   CnM2
 BYTE   PAN   c_v+0
 BYTE   BEND   c_v+0
 BYTE   N23  Cn2  v112
 BYTE   W24
 BYTE   N11
 BYTE   W24
 BYTE   PAN   c_v-39
 BYTE   N11  Cn2  v056
 BYTE   W24
 BYTE   PAN   c_v+47
 BYTE   N11  Cn2  v048
 BYTE   W24
// 001   ----------------------------------------
 BYTE   PAN   c_v-39
 BYTE   N11  Cn2  v036
 BYTE   W24
 BYTE   PAN   c_v+47
 BYTE   N11
 BYTE   W24
 BYTE   PAN   c_v-39
 BYTE   N11  Cn2  v032
 BYTE   W24
 BYTE   PAN   c_v+47
 BYTE   N11  Cn2  v020
 BYTE   W24
// 002   ----------------------------------------
 BYTE   PAN   c_v+0
 BYTE   N23  Cn4  v112
 BYTE   W24
 BYTE   N11
 BYTE   W24
 BYTE   PAN   c_v-39
 BYTE   N11  Cn4  v060
 BYTE   W24
 BYTE   PAN   c_v+47
 BYTE   N11  Cn4  v048
 BYTE   W24
// 003   ----------------------------------------
 BYTE   PAN   c_v-39
 BYTE   N11  Cn4  v036
 BYTE   W24
 BYTE   PAN   c_v+47
 BYTE   N11  Cn4  v024
 BYTE   W24
 BYTE   PAN   c_v-39
 BYTE   N11  Cn4  v016
 BYTE   W24
 BYTE   PAN   c_v+0
 BYTE   N23  Cn5  v112
 BYTE   W24
// 004   ----------------------------------------
 BYTE   N05
 BYTE   W96
// 005   ----------------------------------------
 BYTE   W96
// 006   ----------------------------------------
Label_2_010028F3:
 BYTE   W96
// 007   ----------------------------------------
 BYTE   W96
// 008   ----------------------------------------
 BYTE   W96
// 009   ----------------------------------------
 BYTE   W96
// 010   ----------------------------------------
 BYTE   W96
// 011   ----------------------------------------
 BYTE   W96
// 012   ----------------------------------------
 BYTE   W96
// 013   ----------------------------------------
 BYTE   W96
// 014   ----------------------------------------
 BYTE   W96
// 015   ----------------------------------------
 BYTE   W96
// 016   ----------------------------------------
 BYTE   W96
// 017   ----------------------------------------
 BYTE   W96
// 018   ----------------------------------------
 BYTE   W96
// 019   ----------------------------------------
 BYTE   W96
// 020   ----------------------------------------
 BYTE   W96
// 021   ----------------------------------------
 BYTE   W72
 BYTE   VOICE   48
 BYTE   N23  Cn2  v112
 BYTE   W24
// 022   ----------------------------------------
 BYTE   N05
 BYTE   W06
 BYTE   Cn2  v040
 BYTE   W42
 BYTE   N68  En2  v112
 BYTE   W48
// 023   ----------------------------------------
 BYTE   W24
 BYTE   N05  En2  v040
 BYTE   W12
 BYTE   N17  Bn1  v112
 BYTE   W18
 BYTE   N05  Bn1  v040
 BYTE   W18
 BYTE   N23  Ds2  v112
 BYTE   W24
// 024   ----------------------------------------
 BYTE   N05
 BYTE   W06
 BYTE   Ds2  v040
 BYTE   W30
 BYTE   N56  An1  v112
 BYTE   W60
// 025   ----------------------------------------
 BYTE   N44  Cs2
 BYTE   W48
 BYTE   N05  Cs2  v040
 BYTE   W24
 BYTE   N23  Cs2  v112
 BYTE   W24
// 026   ----------------------------------------
Label_2_01002937:
 BYTE   N05  Cn2  v112
 BYTE   W06
 BYTE   Cn2  v040
 BYTE   W90
 BYTE   PEND 
// 027   ----------------------------------------
 BYTE   W96
// 028   ----------------------------------------
 BYTE   W96
// 029   ----------------------------------------
 BYTE   W72
 BYTE   N23  Cn5  v112
 BYTE   W24
// 030   ----------------------------------------
 BYTE   N05
 BYTE   W06
 BYTE   Cn5  v040
 BYTE   W42
 BYTE   N68  En5  v112
 BYTE   W48
// 031   ----------------------------------------
 BYTE   W24
 BYTE   N05  En5  v040
 BYTE   W12
 BYTE   N17  Bn4  v112
 BYTE   W18
 BYTE   N05  Bn4  v040
 BYTE   W18
 BYTE   N23  Ds5  v112
 BYTE   W24
// 032   ----------------------------------------
 BYTE   N05
 BYTE   W06
 BYTE   Ds5  v040
 BYTE   W30
 BYTE   N56  An4  v112
 BYTE   W60
// 033   ----------------------------------------
 BYTE   N44  Dn5
 BYTE   W48
 BYTE   N05  Dn5  v040
 BYTE   W24
 BYTE   N23  Cs5  v112
 BYTE   W24
// 034   ----------------------------------------
 BYTE   N05  Cn5
 BYTE   W06
 BYTE   Cn5  v040
 BYTE   W90
// 035   ----------------------------------------
 BYTE   W96
// 036   ----------------------------------------
 BYTE   W96
// 037   ----------------------------------------
 BYTE   W96
// 038   ----------------------------------------
 BYTE   VOL   36*PokemonDPPtBattleArceusGratedShtick_mvl/mxv
 BYTE   TIE  Cs1  v112
 BYTE   W06
 BYTE   VOL   37*PokemonDPPtBattleArceusGratedShtick_mvl/mxv
 BYTE   W07
 BYTE   Cs1
 BYTE   W06
 BYTE   Dn1
 BYTE   W07
 BYTE   Dn1
 BYTE   W06
 BYTE   Ds1
 BYTE   W07
 BYTE   Ds1
 BYTE   W06
 BYTE   En1
 BYTE   W07
 BYTE   En1
 BYTE   W06
 BYTE   Fn1
 BYTE   W07
 BYTE   Fn1
 BYTE   W07
 BYTE   Fs1
 BYTE   W06
 BYTE   Fs1
 BYTE   W07
 BYTE   Gn1
 BYTE   W06
 BYTE   Gs1
 BYTE   W05
// 039   ----------------------------------------
 BYTE   W02
 BYTE   Gs1
 BYTE   W06
 BYTE   An1
 BYTE   W07
 BYTE   An1
 BYTE   W06
 BYTE   As1
 BYTE   W07
 BYTE   As1
 BYTE   W06
 BYTE   Bn1
 BYTE   W07
 BYTE   Bn1
 BYTE   W07
 BYTE   Cn2
 BYTE   W06
 BYTE   Cn2
 BYTE   W07
 BYTE   Cs2
 BYTE   W06
 BYTE   Cs2
 BYTE   W07
 BYTE   Dn2
 BYTE   W06
 BYTE   Dn2
 BYTE   W07
 BYTE   Ds2
 BYTE   W06
 BYTE   Ds2
 BYTE   W03
// 040   ----------------------------------------
 BYTE   W04
 BYTE   En2
 BYTE   W06
 BYTE   En2
 BYTE   W07
 BYTE   Fn2
 BYTE   W07
 BYTE   Fn2
 BYTE   W06
 BYTE   Fs2
 BYTE   W07
 BYTE   Fs2
 BYTE   W06
 BYTE   Gn2
 BYTE   W07
 BYTE   Gn2
 BYTE   W06
 BYTE   Gs2
 BYTE   W07
 BYTE   Gs2
 BYTE   W06
 BYTE   An2
 BYTE   W07
 BYTE   An2
 BYTE   W06
 BYTE   As2
 BYTE   W07
 BYTE   As2
 BYTE   W07
// 041   ----------------------------------------
 BYTE   Bn2
 BYTE   W06
 BYTE   Bn2
 BYTE   W07
 BYTE   Cn3
 BYTE   W06
 BYTE   Cn3
 BYTE   W07
 BYTE   Cs3
 BYTE   W06
 BYTE   Cs3
 BYTE   W07
 BYTE   Dn3
 BYTE   W06
 BYTE   Dn3
 BYTE   W07
 BYTE   Ds3
 BYTE   W06
 BYTE   Ds3
 BYTE   W07
 BYTE   En3
 BYTE   W06
 BYTE   EOT
 BYTE   W01
 BYTE   VOL   65*PokemonDPPtBattleArceusGratedShtick_mvl/mxv
 BYTE   N23  Cn4
 BYTE   W24
// 042   ----------------------------------------
 BYTE   N05
 BYTE   W06
 BYTE   Cn4  v040
 BYTE   W90
// 043   ----------------------------------------
 BYTE   W72
 BYTE   N23  Cn2  v112
 BYTE   W24
 BYTE   PATT
  POIN2 Label_2_01002937
// 044   ----------------------------------------
 BYTE   W96
// 045   ----------------------------------------
 BYTE   W96
// 046   ----------------------------------------
 BYTE   W96
// 047   ----------------------------------------
 BYTE   W96
// 048   ----------------------------------------
 BYTE   W92
 BYTE   W03
 BYTE   GoTo
  POIN2 Label_2_010028F3
 BYTE   FINE

//**************** Track 4 (Midi-Chn.3) ****************//

PokemonDPPtBattleArceusGratedShtick_004:
// 000   ----------------------------------------
 BYTE   KEYSH   PokemonDPPtBattleArceusGratedShtick_key+0
 BYTE   VOICE   57
 BYTE   VOL   56*PokemonDPPtBattleArceusGratedShtick_mvl/mxv
 BYTE   MOD 0
 BYTE   CnM2
 BYTE   PAN   c_v-32
 BYTE   BEND   c_v+0
 BYTE   N23  As1  v112
 BYTE   W24
 BYTE   N11
 BYTE   W24
 BYTE   PAN   c_v-39
 BYTE   N11  As1  v064
 BYTE   W24
 BYTE   PAN   c_v+41
 BYTE   N11  As1  v048
 BYTE   W24
// 001   ----------------------------------------
 BYTE   PAN   c_v-39
 BYTE   N11  As1  v036
 BYTE   W24
 BYTE   PAN   c_v+41
 BYTE   N11  As1  v028
 BYTE   W24
 BYTE   PAN   c_v-39
 BYTE   N11
 BYTE   W24
 BYTE   PAN   c_v+41
 BYTE   N11  As1  v016
 BYTE   W24
// 002   ----------------------------------------
 BYTE   PAN   c_v-32
 BYTE   N23  As3  v112
 BYTE   W24
 BYTE   N11
 BYTE   W24
 BYTE   PAN   c_v-39
 BYTE   N11  As3  v060
 BYTE   W24
 BYTE   PAN   c_v+41
 BYTE   N11  As3  v048
 BYTE   W24
// 003   ----------------------------------------
 BYTE   PAN   c_v-39
 BYTE   N11  As3  v036
 BYTE   W24
 BYTE   PAN   c_v+41
 BYTE   N11  As3  v024
 BYTE   W24
 BYTE   PAN   c_v-39
 BYTE   N11  As3  v016
 BYTE   W24
 BYTE   PAN   c_v-32
 BYTE   N23  As4  v112
 BYTE   W24
// 004   ----------------------------------------
Label_3_01002A74:
 BYTE   N05  As4  v112
 BYTE   W06
 BYTE   As4  v040
 BYTE   W90
 BYTE   PEND 
// 005   ----------------------------------------
 BYTE   W96
// 006   ----------------------------------------
Label_3_01002A7D:
 BYTE   W96
// 007   ----------------------------------------
 BYTE   W96
// 008   ----------------------------------------
 BYTE   W96
// 009   ----------------------------------------
 BYTE   W96
// 010   ----------------------------------------
 BYTE   W96
// 011   ----------------------------------------
 BYTE   W96
// 012   ----------------------------------------
 BYTE   W96
// 013   ----------------------------------------
 BYTE   W96
// 014   ----------------------------------------
 BYTE   W96
// 015   ----------------------------------------
 BYTE   W96
// 016   ----------------------------------------
 BYTE   W96
// 017   ----------------------------------------
 BYTE   W96
// 018   ----------------------------------------
 BYTE   W96
// 019   ----------------------------------------
 BYTE   W96
// 020   ----------------------------------------
 BYTE   W96
// 021   ----------------------------------------
 BYTE   W72
 BYTE   N23  As1  v112
 BYTE   W24
// 022   ----------------------------------------
 BYTE   N05
 BYTE   W06
 BYTE   As1  v040
 BYTE   W42
 BYTE   N68  Dn2  v112
 BYTE   W48
// 023   ----------------------------------------
 BYTE   W24
 BYTE   N05  Dn2  v040
 BYTE   W12
 BYTE   N17  An1  v112
 BYTE   W18
 BYTE   N05  An1  v040
 BYTE   W18
 BYTE   N23  Cs2  v112
 BYTE   W24
// 024   ----------------------------------------
 BYTE   N05
 BYTE   W06
 BYTE   Cs2  v040
 BYTE   W30
 BYTE   N56  Gn1  v112
 BYTE   W60
// 025   ----------------------------------------
 BYTE   N44  An1
 BYTE   W48
 BYTE   N05  An1  v040
 BYTE   W24
 BYTE   N23  Bn1  v112
 BYTE   W24
// 026   ----------------------------------------
Label_3_01002ABF:
 BYTE   N05  As1  v112
 BYTE   W06
 BYTE   As1  v040
 BYTE   W90
 BYTE   PEND 
// 027   ----------------------------------------
 BYTE   W96
// 028   ----------------------------------------
 BYTE   W96
// 029   ----------------------------------------
 BYTE   W72
 BYTE   N23  As4  v112
 BYTE   W24
// 030   ----------------------------------------
 BYTE   N05
 BYTE   W06
 BYTE   As4  v040
 BYTE   W42
 BYTE   N68  Dn5  v112
 BYTE   W48
// 031   ----------------------------------------
 BYTE   W24
 BYTE   N05  Dn5  v040
 BYTE   W12
 BYTE   N17  Gs4  v112
 BYTE   W18
 BYTE   N05  Gs4  v040
 BYTE   W18
 BYTE   N23  Cn5  v112
 BYTE   W24
// 032   ----------------------------------------
 BYTE   N05  Cs5
 BYTE   W06
 BYTE   Cs5  v040
 BYTE   W30
 BYTE   N56  Fs4  v112
 BYTE   W60
// 033   ----------------------------------------
 BYTE   N44  Bn4
 BYTE   W48
 BYTE   N05  Bn4  v040
 BYTE   W24
 BYTE   N23  Bn4  v112
 BYTE   W24
 BYTE   PATT
  POIN2 Label_3_01002A74
// 034   ----------------------------------------
 BYTE   W96
// 035   ----------------------------------------
 BYTE   W96
// 036   ----------------------------------------
 BYTE   W96
// 037   ----------------------------------------
 BYTE   W96
// 038   ----------------------------------------
 BYTE   W96
// 039   ----------------------------------------
 BYTE   W96
// 040   ----------------------------------------
 BYTE   W72
 BYTE   N23  As3  v112
 BYTE   W24
// 041   ----------------------------------------
 BYTE   N05
 BYTE   W06
 BYTE   As3  v040
 BYTE   W90
// 042   ----------------------------------------
 BYTE   W72
 BYTE   N23  As1  v112
 BYTE   W24
 BYTE   PATT
  POIN2 Label_3_01002ABF
// 043   ----------------------------------------
 BYTE   W96
// 044   ----------------------------------------
 BYTE   W96
// 045   ----------------------------------------
 BYTE   W96
// 046   ----------------------------------------
 BYTE   W96
// 047   ----------------------------------------
 BYTE   W92
 BYTE   W03
 BYTE   GoTo
  POIN2 Label_3_01002A7D
 BYTE   FINE

//**************** Track 5 (Midi-Chn.4) ****************//

PokemonDPPtBattleArceusGratedShtick_005:
// 000   ----------------------------------------
 BYTE   KEYSH   PokemonDPPtBattleArceusGratedShtick_key+0
 BYTE   VOICE   47
 BYTE   VOL   56*PokemonDPPtBattleArceusGratedShtick_mvl/mxv
 BYTE   MOD 0
 BYTE   CnM2
 BYTE   PAN   c_v+63
 BYTE   BEND   c_v-3
 BYTE   W96
// 001   ----------------------------------------
 BYTE   W96
// 002   ----------------------------------------
 BYTE   W96
// 003   ----------------------------------------
 BYTE   W96
// 004   ----------------------------------------
 BYTE   W01
 BYTE   TIE  Gn0  v112
 BYTE   W92
 BYTE   W03
// 005   ----------------------------------------
 BYTE   W96
// 006   ----------------------------------------
 BYTE   EOT
Label_4_01002B40:
 BYTE   W01
 BYTE   N92  Gn0  v112
 BYTE   W92
 BYTE   W03
 BYTE   PEND 
 BYTE   PATT
  POIN2 Label_4_01002B40
 BYTE   PATT
  POIN2 Label_4_01002B40
 BYTE   PATT
  POIN2 Label_4_01002B40
// 007   ----------------------------------------
Label_4_01002B56:
 BYTE   W01
 BYTE   N23  Gn1  v112
 BYTE   W24
 BYTE   N11  En1
 BYTE   W12
 BYTE   N11
 BYTE   W12
 BYTE   N23  Gn1
 BYTE   W24
 BYTE   N11  En1
 BYTE   W12
 BYTE   N11
 BYTE   W11
 BYTE   PEND 
// 008   ----------------------------------------
Label_4_01002B69:
 BYTE   W01
 BYTE   N23  En1  v112
 BYTE   W24
 BYTE   N11  Gn1
 BYTE   W12
 BYTE   En1
 BYTE   W12
 BYTE   N11
 BYTE   W12
 BYTE   Gn1
 BYTE   W12
 BYTE   En1
 BYTE   W12
 BYTE   N11
 BYTE   W11
 BYTE   PEND 
 BYTE   PATT
  POIN2 Label_4_01002B56
 BYTE   PATT
  POIN2 Label_4_01002B69
 BYTE   PATT
  POIN2 Label_4_01002B56
 BYTE   PATT
  POIN2 Label_4_01002B69
 BYTE   PATT
  POIN2 Label_4_01002B56
 BYTE   PATT
  POIN2 Label_4_01002B69
 BYTE   PATT
  POIN2 Label_4_01002B56
 BYTE   PATT
  POIN2 Label_4_01002B69
 BYTE   PATT
  POIN2 Label_4_01002B56
 BYTE   PATT
  POIN2 Label_4_01002B69
 BYTE   PATT
  POIN2 Label_4_01002B56
 BYTE   PATT
  POIN2 Label_4_01002B69
 BYTE   PATT
  POIN2 Label_4_01002B56
 BYTE   PATT
  POIN2 Label_4_01002B69
 BYTE   PATT
  POIN2 Label_4_01002B56
 BYTE   PATT
  POIN2 Label_4_01002B69
 BYTE   PATT
  POIN2 Label_4_01002B56
 BYTE   PATT
  POIN2 Label_4_01002B69
 BYTE   PATT
  POIN2 Label_4_01002B56
 BYTE   PATT
  POIN2 Label_4_01002B69
 BYTE   PATT
  POIN2 Label_4_01002B56
 BYTE   PATT
  POIN2 Label_4_01002B69
 BYTE   PATT
  POIN2 Label_4_01002B56
 BYTE   PATT
  POIN2 Label_4_01002B69
 BYTE   PATT
  POIN2 Label_4_01002B56
 BYTE   PATT
  POIN2 Label_4_01002B69
 BYTE   PATT
  POIN2 Label_4_01002B40
 BYTE   PATT
  POIN2 Label_4_01002B40
 BYTE   PATT
  POIN2 Label_4_01002B40
 BYTE   PATT
  POIN2 Label_4_01002B40
// 009   ----------------------------------------
 BYTE   W96
// 010   ----------------------------------------
 BYTE   W96
// 011   ----------------------------------------
Label_4_01002C14:
 BYTE   W01
 BYTE   TIE  Cn0  v112
 BYTE   W92
 BYTE   W03
 BYTE   PEND 
// 012   ----------------------------------------
 BYTE   W96
// 013   ----------------------------------------
 BYTE   EOT
 BYTE   W96
// 014   ----------------------------------------
 BYTE   W96
 BYTE   PATT
  POIN2 Label_4_01002C14
// 015   ----------------------------------------
 BYTE   W92
 BYTE   W03
 BYTE   EOT
 BYTE   Cn0
 BYTE   GoTo
  POIN2 Label_4_01002B40
 BYTE   FINE

//**************** Track 6 (Midi-Chn.5) ****************//

PokemonDPPtBattleArceusGratedShtick_006:
// 000   ----------------------------------------
 BYTE   KEYSH   PokemonDPPtBattleArceusGratedShtick_key+0
 BYTE   VOICE   47
 BYTE   VOL   49*PokemonDPPtBattleArceusGratedShtick_mvl/mxv
 BYTE   MOD 0
 BYTE   CnM2
 BYTE   PAN   c_v-59
 BYTE   BEND   c_v+0
 BYTE   W96
// 001   ----------------------------------------
 BYTE   W96
// 002   ----------------------------------------
 BYTE   W96
// 003   ----------------------------------------
 BYTE   W96
// 004   ----------------------------------------
 BYTE   TIE  Gn0  v112
 BYTE   W96
// 005   ----------------------------------------
 BYTE   W92
 BYTE   W03
 BYTE   EOT
 BYTE   W01
// 006   ----------------------------------------
Label_5_01002C48:
 BYTE   N92  Gn0  v112
 BYTE   W96
// 007   ----------------------------------------
 BYTE   N92
 BYTE   W96
// 008   ----------------------------------------
 BYTE   N92
 BYTE   W96
// 009   ----------------------------------------
 BYTE   N92
 BYTE   W96
// 010   ----------------------------------------
Label_5_01002C52:
 BYTE   N23  Gn1  v112
 BYTE   W24
 BYTE   N11  En1
 BYTE   W12
 BYTE   N11
 BYTE   W12
 BYTE   N23  Gn1
 BYTE   W24
 BYTE   N11  En1
 BYTE   W12
 BYTE   N11
 BYTE   W12
 BYTE   PEND 
// 011   ----------------------------------------
Label_5_01002C64:
 BYTE   N23  En1  v112
 BYTE   W24
 BYTE   N11  Gn1
 BYTE   W12
 BYTE   En1
 BYTE   W12
 BYTE   N11
 BYTE   W12
 BYTE   Gn1
 BYTE   W12
 BYTE   En1
 BYTE   W12
 BYTE   N11
 BYTE   W12
 BYTE   PEND 
 BYTE   PATT
  POIN2 Label_5_01002C52
 BYTE   PATT
  POIN2 Label_5_01002C64
 BYTE   PATT
  POIN2 Label_5_01002C52
 BYTE   PATT
  POIN2 Label_5_01002C64
 BYTE   PATT
  POIN2 Label_5_01002C52
 BYTE   PATT
  POIN2 Label_5_01002C64
 BYTE   PATT
  POIN2 Label_5_01002C52
 BYTE   PATT
  POIN2 Label_5_01002C64
 BYTE   PATT
  POIN2 Label_5_01002C52
 BYTE   PATT
  POIN2 Label_5_01002C64
 BYTE   PATT
  POIN2 Label_5_01002C52
 BYTE   PATT
  POIN2 Label_5_01002C64
 BYTE   PATT
  POIN2 Label_5_01002C52
 BYTE   PATT
  POIN2 Label_5_01002C64
 BYTE   PATT
  POIN2 Label_5_01002C52
 BYTE   PATT
  POIN2 Label_5_01002C64
 BYTE   PATT
  POIN2 Label_5_01002C52
 BYTE   PATT
  POIN2 Label_5_01002C64
 BYTE   PATT
  POIN2 Label_5_01002C52
 BYTE   PATT
  POIN2 Label_5_01002C64
 BYTE   PATT
  POIN2 Label_5_01002C52
 BYTE   PATT
  POIN2 Label_5_01002C64
 BYTE   PATT
  POIN2 Label_5_01002C52
 BYTE   PATT
  POIN2 Label_5_01002C64
 BYTE   PATT
  POIN2 Label_5_01002C52
 BYTE   PATT
  POIN2 Label_5_01002C64
// 012   ----------------------------------------
 BYTE   N92  Gn0  v112
 BYTE   W96
// 013   ----------------------------------------
 BYTE   N92
 BYTE   W96
// 014   ----------------------------------------
 BYTE   N92
 BYTE   W96
// 015   ----------------------------------------
 BYTE   N92
 BYTE   W96
// 016   ----------------------------------------
 BYTE   W96
// 017   ----------------------------------------
 BYTE   W96
// 018   ----------------------------------------
 BYTE   TIE  Cn0
 BYTE   W96
// 019   ----------------------------------------
 BYTE   W92
 BYTE   W03
 BYTE   EOT
 BYTE   W01
// 020   ----------------------------------------
 BYTE   W96
// 021   ----------------------------------------
 BYTE   W96
// 022   ----------------------------------------
 BYTE   TIE
 BYTE   W96
// 023   ----------------------------------------
 BYTE   W92
 BYTE   W03
 BYTE   EOT
 BYTE   GoTo
  POIN2 Label_5_01002C48
 BYTE   FINE

//**************** Track 7 (Midi-Chn.6) ****************//

PokemonDPPtBattleArceusGratedShtick_007:
// 000   ----------------------------------------
 BYTE   KEYSH   PokemonDPPtBattleArceusGratedShtick_key+0
 BYTE   VOICE   47
 BYTE   VOL   56*PokemonDPPtBattleArceusGratedShtick_mvl/mxv
 BYTE   MOD 0
 BYTE   CnM2
 BYTE   PAN   c_v+18
 BYTE   BEND   c_v+2
 BYTE   W96
// 001   ----------------------------------------
 BYTE   W96
// 002   ----------------------------------------
 BYTE   W96
// 003   ----------------------------------------
 BYTE   W96
// 004   ----------------------------------------
 BYTE   W01
 BYTE   TIE  En1  v112
 BYTE   W92
 BYTE   W03
// 005   ----------------------------------------
 BYTE   W96
// 006   ----------------------------------------
 BYTE   EOT
Label_6_01002D30:
 BYTE   W01
 BYTE   N92  En1  v112
 BYTE   W92
 BYTE   W03
 BYTE   PEND 
 BYTE   PATT
  POIN2 Label_6_01002D30
 BYTE   PATT
  POIN2 Label_6_01002D30
 BYTE   PATT
  POIN2 Label_6_01002D30
// 007   ----------------------------------------
Label_6_01002D46:
 BYTE   W01
 BYTE   N92  Gn0  v112
 BYTE   W92
 BYTE   W03
 BYTE   PEND 
 BYTE   PATT
  POIN2 Label_6_01002D46
 BYTE   PATT
  POIN2 Label_6_01002D46
 BYTE   PATT
  POIN2 Label_6_01002D46
// 008   ----------------------------------------
 BYTE   W96
// 009   ----------------------------------------
 BYTE   W96
// 010   ----------------------------------------
 BYTE   W96
// 011   ----------------------------------------
 BYTE   W96
 BYTE   PATT
  POIN2 Label_6_01002D46
 BYTE   PATT
  POIN2 Label_6_01002D46
 BYTE   PATT
  POIN2 Label_6_01002D46
 BYTE   PATT
  POIN2 Label_6_01002D46
// 012   ----------------------------------------
 BYTE   W96
// 013   ----------------------------------------
 BYTE   W96
// 014   ----------------------------------------
 BYTE   W96
// 015   ----------------------------------------
 BYTE   W96
 BYTE   PATT
  POIN2 Label_6_01002D30
 BYTE   PATT
  POIN2 Label_6_01002D30
 BYTE   PATT
  POIN2 Label_6_01002D30
 BYTE   PATT
  POIN2 Label_6_01002D30
// 016   ----------------------------------------
 BYTE   W96
// 017   ----------------------------------------
 BYTE   W96
// 018   ----------------------------------------
 BYTE   W96
// 019   ----------------------------------------
 BYTE   W96
 BYTE   PATT
  POIN2 Label_6_01002D46
 BYTE   PATT
  POIN2 Label_6_01002D46
 BYTE   PATT
  POIN2 Label_6_01002D46
 BYTE   PATT
  POIN2 Label_6_01002D46
 BYTE   PATT
  POIN2 Label_6_01002D30
 BYTE   PATT
  POIN2 Label_6_01002D30
 BYTE   PATT
  POIN2 Label_6_01002D30
 BYTE   PATT
  POIN2 Label_6_01002D30
// 020   ----------------------------------------
 BYTE   W96
// 021   ----------------------------------------
 BYTE   W96
// 022   ----------------------------------------
Label_6_01002DBA:
 BYTE   W01
 BYTE   TIE  Cn1  v112
 BYTE   W92
 BYTE   W03
 BYTE   PEND 
// 023   ----------------------------------------
 BYTE   W96
// 024   ----------------------------------------
 BYTE   EOT
 BYTE   W96
// 025   ----------------------------------------
 BYTE   W96
 BYTE   PATT
  POIN2 Label_6_01002DBA
// 026   ----------------------------------------
 BYTE   W92
 BYTE   W03
 BYTE   EOT
 BYTE   Cn1
 BYTE   GoTo
  POIN2 Label_6_01002D30
 BYTE   FINE

//**************** Track 8 (Midi-Chn.7) ****************//

PokemonDPPtBattleArceusGratedShtick_008:
// 000   ----------------------------------------
 BYTE   KEYSH   PokemonDPPtBattleArceusGratedShtick_key+0
 BYTE   VOICE   116
 BYTE   PAN   c_v+0
 BYTE   VOL   56*PokemonDPPtBattleArceusGratedShtick_mvl/mxv
 BYTE   MOD 0
 BYTE   CnM2
 BYTE   BEND   c_v+0
 BYTE   W96
// 001   ----------------------------------------
 BYTE   W96
// 002   ----------------------------------------
 BYTE   W96
// 003   ----------------------------------------
 BYTE   W96
// 004   ----------------------------------------
 BYTE   W96
// 005   ----------------------------------------
 BYTE   W96
// 006   ----------------------------------------
Label_7_01002DE6:
 BYTE   W96
// 007   ----------------------------------------
 BYTE   W96
// 008   ----------------------------------------
 BYTE   W96
// 009   ----------------------------------------
 BYTE   W96
// 010   ----------------------------------------
 BYTE   W96
// 011   ----------------------------------------
 BYTE   W96
// 012   ----------------------------------------
 BYTE   W96
// 013   ----------------------------------------
 BYTE   W96
// 014   ----------------------------------------
Label_7_01002DEE:
 BYTE   N11  An1  v112
 BYTE   W12
 BYTE   N23  Fn1
 BYTE   N05  An1
 BYTE   W06
 BYTE   N17
 BYTE   W18
 BYTE   Fn1
 BYTE   N11  An1
 BYTE   W12
 BYTE   N11
 BYTE   W06
 BYTE   N17  Fn1
 BYTE   W06
 BYTE   N11  An1
 BYTE   W12
 BYTE   N23  Fn1
 BYTE   N17  An1
 BYTE   W18
 BYTE   N05
 BYTE   W06
 BYTE   PEND 
// 015   ----------------------------------------
Label_7_01002E0D:
 BYTE   N05  Fn1  v112
 BYTE   N11  An1
 BYTE   W06
 BYTE   N17  Fn1
 BYTE   W06
 BYTE   N11  An1
 BYTE   W12
 BYTE   N17  Fn1
 BYTE   N17  An1
 BYTE   W18
 BYTE   Fn1
 BYTE   N05  An1
 BYTE   W06
 BYTE   N05
 BYTE   W06
 BYTE   N17
 BYTE   W06
 BYTE   N11  Fn1
 BYTE   W12
 BYTE   N11
 BYTE   N11  An1
 BYTE   N11  Bn1
 BYTE   W12
 BYTE   Fn1
 BYTE   N11  An1
 BYTE   N11  Bn1
 BYTE   W12
 BYTE   PEND 
// 016   ----------------------------------------
Label_7_01002E36:
 BYTE   N11  Fn1  v112
 BYTE   N11  An1
 BYTE   W12
 BYTE   N23  Fn1
 BYTE   N05  An1
 BYTE   W06
 BYTE   N17
 BYTE   W18
 BYTE   Fn1
 BYTE   N11  An1
 BYTE   W12
 BYTE   N11
 BYTE   W06
 BYTE   N17  Fn1
 BYTE   W06
 BYTE   N11  An1
 BYTE   W12
 BYTE   N23  Fn1
 BYTE   N17  An1
 BYTE   W18
 BYTE   N05
 BYTE   W06
 BYTE   PEND 
 BYTE   PATT
  POIN2 Label_7_01002E0D
// 017   ----------------------------------------
 BYTE   W96
// 018   ----------------------------------------
 BYTE   W96
// 019   ----------------------------------------
 BYTE   W96
// 020   ----------------------------------------
 BYTE   W96
 BYTE   PATT
  POIN2 Label_7_01002DEE
// 021   ----------------------------------------
Label_7_01002E65:
 BYTE   N05  Fn1  v112
 BYTE   N11  An1
 BYTE   W06
 BYTE   N17  Fn1
 BYTE   W06
 BYTE   N11  An1
 BYTE   W12
 BYTE   N17  Fn1
 BYTE   N17  An1
 BYTE   W18
 BYTE   Fn1
 BYTE   N05  An1
 BYTE   W06
 BYTE   N05
 BYTE   W06
 BYTE   N17
 BYTE   W06
 BYTE   N11  Fn1
 BYTE   W12
 BYTE   N11
 BYTE   N11  An1
 BYTE   W12
 BYTE   Fn1
 BYTE   N11  An1
 BYTE   W12
 BYTE   PEND 
 BYTE   PATT
  POIN2 Label_7_01002E36
 BYTE   PATT
  POIN2 Label_7_01002E65
// 022   ----------------------------------------
 BYTE   W96
// 023   ----------------------------------------
 BYTE   W96
// 024   ----------------------------------------
 BYTE   W96
// 025   ----------------------------------------
 BYTE   W96
 BYTE   PATT
  POIN2 Label_7_01002DEE
 BYTE   PATT
  POIN2 Label_7_01002E65
 BYTE   PATT
  POIN2 Label_7_01002E36
 BYTE   PATT
  POIN2 Label_7_01002E65
// 026   ----------------------------------------
 BYTE   W96
// 027   ----------------------------------------
 BYTE   W96
// 028   ----------------------------------------
 BYTE   W96
// 029   ----------------------------------------
 BYTE   W96
// 030   ----------------------------------------
 BYTE   W96
// 031   ----------------------------------------
 BYTE   W96
// 032   ----------------------------------------
 BYTE   W96
// 033   ----------------------------------------
 BYTE   W96
// 034   ----------------------------------------
 BYTE   W96
// 035   ----------------------------------------
 BYTE   W96
// 036   ----------------------------------------
 BYTE   W96
// 037   ----------------------------------------
 BYTE   W96
// 038   ----------------------------------------
 BYTE   W96
// 039   ----------------------------------------
 BYTE   W96
// 040   ----------------------------------------
 BYTE   W96
// 041   ----------------------------------------
 BYTE   W92
 BYTE   W03
 BYTE   GoTo
  POIN2 Label_7_01002DE6
 BYTE   FINE

//**************** Track 9 (Midi-Chn.8) ****************//

PokemonDPPtBattleArceusGratedShtick_009:
// 000   ----------------------------------------
 BYTE   KEYSH   PokemonDPPtBattleArceusGratedShtick_key+0
 BYTE   VOICE   47
 BYTE   VOL   65*PokemonDPPtBattleArceusGratedShtick_mvl/mxv
 BYTE   MOD 0
 BYTE   CnM2
 BYTE   PAN   c_v-17
 BYTE   BEND   c_v+0
 BYTE   W96
// 001   ----------------------------------------
 BYTE   W96
// 002   ----------------------------------------
 BYTE   W96
// 003   ----------------------------------------
 BYTE   W96
// 004   ----------------------------------------
 BYTE   TIE  Cn1  v112
 BYTE   W96
// 005   ----------------------------------------
 BYTE   W92
 BYTE   W03
 BYTE   EOT
 BYTE   W01
// 006   ----------------------------------------
Label_8_01002EDC:
 BYTE   N92  Cn1  v112
 BYTE   W96
// 007   ----------------------------------------
 BYTE   N92
 BYTE   W96
// 008   ----------------------------------------
 BYTE   N92
 BYTE   W96
// 009   ----------------------------------------
 BYTE   N92
 BYTE   W96
// 010   ----------------------------------------
 BYTE   N92
 BYTE   W96
// 011   ----------------------------------------
 BYTE   N92
 BYTE   W96
// 012   ----------------------------------------
 BYTE   N92
 BYTE   W96
// 013   ----------------------------------------
 BYTE   N92
 BYTE   W96
// 014   ----------------------------------------
 BYTE   N92
 BYTE   W96
// 015   ----------------------------------------
 BYTE   N92
 BYTE   W96
// 016   ----------------------------------------
 BYTE   N92
 BYTE   W96
// 017   ----------------------------------------
 BYTE   N92
 BYTE   W96
// 018   ----------------------------------------
 BYTE   N92
 BYTE   W96
// 019   ----------------------------------------
 BYTE   N92
 BYTE   W96
// 020   ----------------------------------------
 BYTE   N92
 BYTE   W96
// 021   ----------------------------------------
 BYTE   N92
 BYTE   W96
// 022   ----------------------------------------
 BYTE   N92
 BYTE   W96
// 023   ----------------------------------------
 BYTE   N92
 BYTE   W96
// 024   ----------------------------------------
 BYTE   N92
 BYTE   W96
// 025   ----------------------------------------
 BYTE   N92
 BYTE   W96
// 026   ----------------------------------------
 BYTE   N92
 BYTE   W96
// 027   ----------------------------------------
 BYTE   N92
 BYTE   W96
// 028   ----------------------------------------
 BYTE   N92
 BYTE   W96
// 029   ----------------------------------------
 BYTE   N92
 BYTE   W96
// 030   ----------------------------------------
 BYTE   N92
 BYTE   W96
// 031   ----------------------------------------
 BYTE   N92
 BYTE   W96
// 032   ----------------------------------------
 BYTE   N92
 BYTE   W96
// 033   ----------------------------------------
 BYTE   N92
 BYTE   W96
// 034   ----------------------------------------
 BYTE   N92
 BYTE   W96
// 035   ----------------------------------------
 BYTE   N92
 BYTE   W96
// 036   ----------------------------------------
 BYTE   N92
 BYTE   W96
// 037   ----------------------------------------
 BYTE   N92
 BYTE   W96
// 038   ----------------------------------------
 BYTE   N92
 BYTE   W96
// 039   ----------------------------------------
 BYTE   N92
 BYTE   W96
// 040   ----------------------------------------
 BYTE   N92
 BYTE   W96
// 041   ----------------------------------------
 BYTE   N92
 BYTE   W96
// 042   ----------------------------------------
 BYTE   W96
// 043   ----------------------------------------
 BYTE   W96
// 044   ----------------------------------------
 BYTE   TIE  Gn0
 BYTE   W96
// 045   ----------------------------------------
 BYTE   W92
 BYTE   W03
 BYTE   EOT
 BYTE   W01
// 046   ----------------------------------------
 BYTE   W96
// 047   ----------------------------------------
 BYTE   W96
// 048   ----------------------------------------
 BYTE   TIE
 BYTE   W96
// 049   ----------------------------------------
 BYTE   W92
 BYTE   W03
 BYTE   EOT
 BYTE   GoTo
  POIN2 Label_8_01002EDC
 BYTE   FINE

//******************************************************//
	ALIGN 4

PokemonDPPtBattleArceusGratedShtick:
	BYTE	9	// NumTrks
	BYTE	0	// NumBlks
	BYTE	PokemonDPPtBattleArceusGratedShtick_pri	// Priority
	BYTE	PokemonDPPtBattleArceusGratedShtick_rev	// Reverb.
    
	POIN2	PokemonDPPtBattleArceusGratedShtick_grp
    
	POIN2	PokemonDPPtBattleArceusGratedShtick_001
	POIN2	PokemonDPPtBattleArceusGratedShtick_002
	POIN2	PokemonDPPtBattleArceusGratedShtick_003
	POIN2	PokemonDPPtBattleArceusGratedShtick_004
	POIN2	PokemonDPPtBattleArceusGratedShtick_005
	POIN2	PokemonDPPtBattleArceusGratedShtick_006
	POIN2	PokemonDPPtBattleArceusGratedShtick_007
	POIN2	PokemonDPPtBattleArceusGratedShtick_008
	POIN2	PokemonDPPtBattleArceusGratedShtick_009

	
