//Event file generated from Sappy .s format.
	#include "MPlayDef.event"

	#define	PokemonMDDarknessRidgeGratedShtick_grp  voicegroup000
	#define	PokemonMDDarknessRidgeGratedShtick_pri  0
	#define	PokemonMDDarknessRidgeGratedShtick_rev  0
	#define	PokemonMDDarknessRidgeGratedShtick_mvl  127
	#define	PokemonMDDarknessRidgeGratedShtick_key  0
	#define	PokemonMDDarknessRidgeGratedShtick_tbs  1
	#define	PokemonMDDarknessRidgeGratedShtick_exg  0
	#define	PokemonMDDarknessRidgeGratedShtick_cmp  1

	// .rodata
	//	PokemonMDDarknessRidgeGratedShtick
	ALIGN 4


//**************** Track 1 (Midi-Chn.0) ****************//

PokemonMDDarknessRidgeGratedShtick_001:
// 000   ----------------------------------------
 BYTE   KEYSH   PokemonMDDarknessRidgeGratedShtick_key+0
 BYTE   TEMPO   120*PokemonMDDarknessRidgeGratedShtick_tbs/2
 BYTE   W06
 BYTE   TEMPO   100*PokemonMDDarknessRidgeGratedShtick_tbs/2
 BYTE   VOICE   24
 BYTE   W01
 BYTE   VOL   50*PokemonMDDarknessRidgeGratedShtick_mvl/mxv
 BYTE   W01
 BYTE   PAN   c_v+20
 BYTE   W88
// 001   ----------------------------------------
 BYTE   W96
// 002   ----------------------------------------
 BYTE   W96
// 003   ----------------------------------------
 BYTE   W96
// 004   ----------------------------------------
 BYTE   W28
 BYTE   W01
Label_0_01005AB9:
 BYTE   W01
 BYTE   N08  Gs3  v112
 BYTE   W08
 BYTE   N04  Ds4
 BYTE   W08
 BYTE   Ds4  v076
 BYTE   W08
 BYTE   N08  Ds4  v112
 BYTE   W08
 BYTE   N04  Cs4  v056
 BYTE   W08
 BYTE   N08  Bn3  v088
 BYTE   W08
 BYTE   Cs4  v112
 BYTE   W16
 BYTE   N04  Fs3  v076
 BYTE   W02
// 005   ----------------------------------------
Label_0_01005AD7:
 BYTE   W06
 BYTE   N08  Fs3  v112
 BYTE   W08
 BYTE   N04  Gs3  v056
 BYTE   W08
 BYTE   N08  As3  v088
 BYTE   W08
 BYTE   Bn3  v112
 BYTE   W16
 BYTE   N04  Gs3  v088
 BYTE   W08
 BYTE   N08  Fs3  v112
 BYTE   W08
 BYTE   N04  Gs3  v056
 BYTE   W08
 BYTE   N08  As3  v088
 BYTE   W08
 BYTE   Gs3  v112
 BYTE   W16
 BYTE   N04  Ds3  v076
 BYTE   W02
 BYTE   PEND 
// 006   ----------------------------------------
Label_0_01005AFF:
 BYTE   W06
 BYTE   N11  Ds3  v112
 BYTE   W16
 BYTE   N08  Ds3  v068
 BYTE   W08
 BYTE   Gs3  v112
 BYTE   W08
 BYTE   N04  Ds4
 BYTE   W08
 BYTE   Ds4  v060
 BYTE   W08
 BYTE   N08  Ds4  v112
 BYTE   W08
 BYTE   N04  Cs4  v056
 BYTE   W08
 BYTE   N08  Bn3  v088
 BYTE   W08
 BYTE   Cs4  v112
 BYTE   W16
 BYTE   N04  Fs3  v076
 BYTE   W02
 BYTE   PEND 
// 007   ----------------------------------------
Label_0_01005B25:
 BYTE   W06
 BYTE   N08  Fs3  v112
 BYTE   W08
 BYTE   N04  Gs3  v056
 BYTE   W08
 BYTE   N08  As3  v088
 BYTE   W08
 BYTE   Bn3  v112
 BYTE   W16
 BYTE   N04  Gs3  v088
 BYTE   W08
 BYTE   N08  Fs3  v112
 BYTE   W08
 BYTE   N04  Gs3  v056
 BYTE   W08
 BYTE   N08  As3  v088
 BYTE   W08
 BYTE   N32  Gs3  v112
 BYTE   W18
 BYTE   PEND 
// 008   ----------------------------------------
 BYTE   W22
 BYTE   N08  Ds3  v068
 BYTE   W08
 BYTE   Gs3  v112
 BYTE   W08
 BYTE   N04  Ds4
 BYTE   W08
 BYTE   Ds4  v076
 BYTE   W08
 BYTE   N08  Ds4  v112
 BYTE   W08
 BYTE   N04  Cs4  v056
 BYTE   W08
 BYTE   N08  Bn3  v088
 BYTE   W08
 BYTE   Cs4  v112
 BYTE   W16
 BYTE   N04  Fs3  v076
 BYTE   W02
 BYTE   PATT
  POIN2 Label_0_01005AD7
 BYTE   PATT
  POIN2 Label_0_01005AFF
 BYTE   PATT
  POIN2 Label_0_01005B25
// 009   ----------------------------------------
 BYTE   W22
 BYTE   N08  Ds3  v068
 BYTE   W72
 BYTE   W02
// 010   ----------------------------------------
Label_0_01005B80:
 BYTE   W06
 BYTE   N05  Cs4  v120
 BYTE   W08
 BYTE   N03  Bn3
 BYTE   W08
 BYTE   As3
 BYTE   W08
 BYTE   N12  Gs3
 BYTE   W16
 BYTE   N04  Bn3
 BYTE   W08
 BYTE   As3
 BYTE   W08
 BYTE   Gs3
 BYTE   W08
 BYTE   Fs3
 BYTE   W08
 BYTE   N12  Gs3
 BYTE   W16
 BYTE   N03  Ds3
 BYTE   W02
 BYTE   PEND 
// 011   ----------------------------------------
 BYTE   W06
 BYTE   N12
 BYTE   W90
// 012   ----------------------------------------
Label_0_01005BA0:
 BYTE   W06
 BYTE   N05  Cs4  v120
 BYTE   W08
 BYTE   N03  Bn3
 BYTE   W08
 BYTE   As3
 BYTE   W08
 BYTE   N12  Gs3
 BYTE   W16
 BYTE   N04  Bn3
 BYTE   W08
 BYTE   As3
 BYTE   W08
 BYTE   Gs3
 BYTE   W08
 BYTE   Fs3
 BYTE   W08
 BYTE   N28  Gs3
 BYTE   W18
 BYTE   PEND 
// 013   ----------------------------------------
 BYTE   W96
 BYTE   PATT
  POIN2 Label_0_01005B80
// 014   ----------------------------------------
 BYTE   W06
 BYTE   N12  Ds3  v120
 BYTE   W90
 BYTE   PATT
  POIN2 Label_0_01005BA0
// 015   ----------------------------------------
 BYTE   W30
 BYTE   GoTo
  POIN2 Label_0_01005AB9
 BYTE   FINE

//**************** Track 2 (Midi-Chn.1) ****************//

PokemonMDDarknessRidgeGratedShtick_002:
// 000   ----------------------------------------
 BYTE   KEYSH   PokemonMDDarknessRidgeGratedShtick_key+0
 BYTE   W06
 BYTE   VOICE   62
 BYTE   W01
 BYTE   VOL   60*PokemonMDDarknessRidgeGratedShtick_mvl/mxv
 BYTE   W01
 BYTE   PAN   c_v-20
 BYTE   W88
// 001   ----------------------------------------
 BYTE   W96
// 002   ----------------------------------------
 BYTE   W96
// 003   ----------------------------------------
 BYTE   W96
// 004   ----------------------------------------
 BYTE   W28
 BYTE   W01
Label_1_01005BE5:
 BYTE   W01
 BYTE   N08  Gs3  v112
 BYTE   W08
 BYTE   N04  Ds4
 BYTE   W08
 BYTE   Ds4  v088
 BYTE   W08
 BYTE   N08  Ds4  v112
 BYTE   W08
 BYTE   N04  Cs4  v068
 BYTE   W08
 BYTE   N08  Bn3  v096
 BYTE   W08
 BYTE   Cs4  v112
 BYTE   W16
 BYTE   N04  Fs3  v088
 BYTE   W02
// 005   ----------------------------------------
 BYTE   W06
 BYTE   N08  Fs3  v112
 BYTE   W08
 BYTE   N04  Gs3  v068
 BYTE   W08
 BYTE   N08  As3  v096
 BYTE   W08
 BYTE   Bn3  v112
 BYTE   W16
 BYTE   N04  Gs3  v096
 BYTE   W08
 BYTE   N08  Fs3  v112
 BYTE   W08
 BYTE   N04  Gs3  v068
 BYTE   W08
 BYTE   N08  As3  v096
 BYTE   W08
 BYTE   Gs3  v112
 BYTE   W16
 BYTE   N04  Ds3  v088
 BYTE   W02
// 006   ----------------------------------------
 BYTE   W06
 BYTE   N11  Ds3  v112
 BYTE   W16
 BYTE   N08  Ds3  v076
 BYTE   W08
 BYTE   Gs3  v112
 BYTE   W08
 BYTE   N04  Ds4
 BYTE   W08
 BYTE   Ds4  v088
 BYTE   W08
 BYTE   N08  Ds4  v112
 BYTE   W08
 BYTE   N04  Cs4  v068
 BYTE   W08
 BYTE   N08  Bn3  v096
 BYTE   W08
 BYTE   Cs4  v112
 BYTE   W16
 BYTE   N04  Fs3  v088
 BYTE   W02
// 007   ----------------------------------------
 BYTE   W06
 BYTE   N08  Fs3  v112
 BYTE   W08
 BYTE   N04  Gs3  v068
 BYTE   W08
 BYTE   N08  As3  v096
 BYTE   W08
 BYTE   Bn3  v112
 BYTE   W16
 BYTE   N04  Gs3  v096
 BYTE   W08
 BYTE   N08  Fs3  v112
 BYTE   W08
 BYTE   N04  Gs3  v068
 BYTE   W08
 BYTE   N08  As3  v096
 BYTE   W08
 BYTE   N32  Gs3  v112
 BYTE   W18
// 008   ----------------------------------------
 BYTE   W22
 BYTE   N08  Ds3  v076
 BYTE   W08
 BYTE   Gs4  v112
 BYTE   W08
 BYTE   N04  Ds5
 BYTE   W08
 BYTE   Ds5  v076
 BYTE   W08
 BYTE   N08  Ds5  v112
 BYTE   W08
 BYTE   N04  Cs5  v056
 BYTE   W08
 BYTE   N08  Bn4  v088
 BYTE   W08
 BYTE   Cs5  v112
 BYTE   W16
 BYTE   N04  Fs4  v076
 BYTE   W02
// 009   ----------------------------------------
 BYTE   W06
 BYTE   N08  Fs4  v112
 BYTE   W08
 BYTE   N04  Gs4  v056
 BYTE   W08
 BYTE   N08  As4  v088
 BYTE   W08
 BYTE   Bn4  v112
 BYTE   W16
 BYTE   N04  Gs4  v088
 BYTE   W08
 BYTE   N08  Fs4  v112
 BYTE   W08
 BYTE   N04  Gs4  v056
 BYTE   W08
 BYTE   N08  As4  v088
 BYTE   W08
 BYTE   Gs4  v112
 BYTE   W16
 BYTE   N04  Ds4  v076
 BYTE   W02
// 010   ----------------------------------------
 BYTE   W06
 BYTE   N11  Ds4  v112
 BYTE   W16
 BYTE   N08  Ds4  v068
 BYTE   W08
 BYTE   Gs4  v112
 BYTE   W08
 BYTE   N04  Ds5
 BYTE   W08
 BYTE   Ds5  v076
 BYTE   W08
 BYTE   N08  Ds5  v112
 BYTE   W08
 BYTE   N04  Cs5  v056
 BYTE   W08
 BYTE   N08  Bn4  v088
 BYTE   W08
 BYTE   Cs5  v112
 BYTE   W16
 BYTE   N04  Fs4  v076
 BYTE   W02
// 011   ----------------------------------------
 BYTE   W06
 BYTE   N08  Fs4  v112
 BYTE   W08
 BYTE   N04  Gs4  v056
 BYTE   W08
 BYTE   N08  As4  v088
 BYTE   W08
 BYTE   Bn4  v112
 BYTE   W16
 BYTE   N04  Gs4  v088
 BYTE   W08
 BYTE   N08  Fs4  v112
 BYTE   W08
 BYTE   N04  Gs4  v056
 BYTE   W08
 BYTE   N08  As4  v088
 BYTE   W08
 BYTE   N32  Gs4
 BYTE   W18
// 012   ----------------------------------------
 BYTE   W22
 BYTE   N08  Ds4  v068
 BYTE   W08
 BYTE   N10  Gs4  v100
 BYTE   W24
 BYTE   As4
 BYTE   W24
 BYTE   N20  Bn4
 BYTE   W18
// 013   ----------------------------------------
 BYTE   W96
// 014   ----------------------------------------
Label_1_01005D12:
 BYTE   W30
 BYTE   N10  Gs4  v100
 BYTE   W24
 BYTE   As4
 BYTE   W24
 BYTE   N20  Bn4
 BYTE   W18
 BYTE   PEND 
// 015   ----------------------------------------
 BYTE   W96
 BYTE   PATT
  POIN2 Label_1_01005D12
// 016   ----------------------------------------
 BYTE   W96
 BYTE   PATT
  POIN2 Label_1_01005D12
// 017   ----------------------------------------
 BYTE   W96
// 018   ----------------------------------------
 BYTE   W30
 BYTE   GoTo
  POIN2 Label_1_01005BE5
 BYTE   FINE

//**************** Track 3 (Midi-Chn.2) ****************//

PokemonMDDarknessRidgeGratedShtick_003:
// 000   ----------------------------------------
 BYTE   KEYSH   PokemonMDDarknessRidgeGratedShtick_key+0
 BYTE   W12
 BYTE   VOICE   51
 BYTE   W01
 BYTE   VOL   85*PokemonMDDarknessRidgeGratedShtick_mvl/mxv
 BYTE   W01
 BYTE   PAN   c_v+0
 BYTE   W16
 BYTE   N06  Gs2  v120
 BYTE   W16
 BYTE   N02  Fs3  v068
 BYTE   W08
 BYTE   Gs3  v100
 BYTE   W08
 BYTE   Cs4  v092
 BYTE   W08
 BYTE   Ds4  v068
 BYTE   W08
 BYTE   N06  Gs2  v120
 BYTE   W08
 BYTE   N02  Gs3  v080
 BYTE   W08
 BYTE   Fs3  v100
 BYTE   W02
// 001   ----------------------------------------
 BYTE   W06
 BYTE   Gs3  v068
 BYTE   W08
 BYTE   Cs4  v092
 BYTE   W08
 BYTE   Ds4  v068
 BYTE   W08
 BYTE   N06  Gs2  v120
 BYTE   W16
 BYTE   N02  Fs3  v068
 BYTE   W08
 BYTE   Gs3  v100
 BYTE   W08
 BYTE   Cs4  v092
 BYTE   W08
 BYTE   Ds4  v068
 BYTE   W08
 BYTE   N06  Gs2  v120
 BYTE   W08
 BYTE   N02  Cs4  v100
 BYTE   W08
 BYTE   Ds4  v068
 BYTE   W02
// 002   ----------------------------------------
 BYTE   W06
 BYTE   Fs4  v100
 BYTE   W08
 BYTE   Fn4
 BYTE   W08
 BYTE   Cs4
 BYTE   W08
 BYTE   N06  Gs2  v120
 BYTE   W16
 BYTE   N02  Fs3  v068
 BYTE   W08
 BYTE   Gs3  v100
 BYTE   W08
 BYTE   Cs4  v092
 BYTE   W08
 BYTE   Ds4  v068
 BYTE   W08
 BYTE   N06  Gs2  v120
 BYTE   W08
 BYTE   N02  Gs3  v080
 BYTE   W08
 BYTE   Fs3  v100
 BYTE   W02
// 003   ----------------------------------------
 BYTE   W06
 BYTE   Gs3  v068
 BYTE   W08
 BYTE   Cs4  v092
 BYTE   W08
 BYTE   Ds4  v068
 BYTE   W08
 BYTE   N06  Gs2  v120
 BYTE   W16
 BYTE   N02  Fs3  v068
 BYTE   W08
 BYTE   Gs3  v100
 BYTE   W08
 BYTE   Cs4  v092
 BYTE   W08
 BYTE   Ds4  v068
 BYTE   W08
 BYTE   N06  Gs2  v120
 BYTE   W08
 BYTE   N02  Fs3  v068
 BYTE   W08
 BYTE   Gs3  v092
 BYTE   W02
// 004   ----------------------------------------
 BYTE   W06
 BYTE   Bn3  v100
 BYTE   W08
 BYTE   As3  v092
 BYTE   W08
 BYTE   Fs3  v068
 BYTE   W07
Label_2_01005DD6:
 BYTE   W01
 BYTE   N06  Gs2  v120
 BYTE   W08
 BYTE   N02  Ds3  v068
 BYTE   W08
 BYTE   Gs3  v092
 BYTE   W08
 BYTE   N06  Bn3  v100
 BYTE   W16
 BYTE   N08  Gs2  v072
 BYTE   W08
 BYTE   N06  Fs2  v120
 BYTE   W08
 BYTE   N02  Cs3  v068
 BYTE   W08
 BYTE   Fs3  v092
 BYTE   W02
// 005   ----------------------------------------
Label_2_01005DF5:
 BYTE   W06
 BYTE   N06  As3  v100
 BYTE   W16
 BYTE   N08  Fs2  v072
 BYTE   W08
 BYTE   N06  En3  v108
 BYTE   W08
 BYTE   N02  Bn2  v068
 BYTE   W08
 BYTE   Gs3  v092
 BYTE   W08
 BYTE   N06  Cs3  v108
 BYTE   W08
 BYTE   N02  Fs3  v068
 BYTE   W08
 BYTE   As3  v092
 BYTE   W08
 BYTE   N06  Gs2  v120
 BYTE   W08
 BYTE   N02  Ds3  v068
 BYTE   W08
 BYTE   Gs3  v092
 BYTE   W02
 BYTE   PEND 
// 006   ----------------------------------------
Label_2_01005E20:
 BYTE   W06
 BYTE   N06  Bn3  v100
 BYTE   W16
 BYTE   N08  Fs2  v072
 BYTE   W08
 BYTE   N06  Gs2  v120
 BYTE   W08
 BYTE   N02  Ds3  v068
 BYTE   W08
 BYTE   Gs3  v092
 BYTE   W08
 BYTE   N06  Bn3  v100
 BYTE   W16
 BYTE   N08  Gs2  v072
 BYTE   W08
 BYTE   N06  Fs2  v120
 BYTE   W08
 BYTE   N02  Cs3  v068
 BYTE   W08
 BYTE   Fs3  v092
 BYTE   W02
 BYTE   PEND 
// 007   ----------------------------------------
Label_2_01005E48:
 BYTE   W06
 BYTE   N06  As3  v100
 BYTE   W16
 BYTE   N08  Fs2  v072
 BYTE   W08
 BYTE   N06  En3  v108
 BYTE   W08
 BYTE   N02  Bn2  v068
 BYTE   W08
 BYTE   Gs3  v092
 BYTE   W08
 BYTE   N06  Cs3  v108
 BYTE   W08
 BYTE   N02  Fs3  v068
 BYTE   W08
 BYTE   As3  v092
 BYTE   W08
 BYTE   N06  Gs2  v120
 BYTE   W08
 BYTE   N02  Cs3  v068
 BYTE   W08
 BYTE   Ds3  v092
 BYTE   W02
 BYTE   PEND 
// 008   ----------------------------------------
 BYTE   W06
 BYTE   N06  Gs3  v100
 BYTE   W24
 BYTE   Gs2  v120
 BYTE   W08
 BYTE   N02  Ds3  v068
 BYTE   W08
 BYTE   Gs3  v092
 BYTE   W08
 BYTE   N06  Bn3  v100
 BYTE   W16
 BYTE   N08  Gs2  v072
 BYTE   W08
 BYTE   N06  Fs2  v120
 BYTE   W08
 BYTE   N02  Cs3  v068
 BYTE   W08
 BYTE   Fs3  v092
 BYTE   W02
 BYTE   PATT
  POIN2 Label_2_01005DF5
 BYTE   PATT
  POIN2 Label_2_01005E20
 BYTE   PATT
  POIN2 Label_2_01005E48
// 009   ----------------------------------------
 BYTE   W06
 BYTE   N06  Gs3  v100
 BYTE   W23
 BYTE   VOICE   49
 BYTE   VOL   80*PokemonMDDarknessRidgeGratedShtick_mvl/mxv
 BYTE   PAN   c_v+0
 BYTE   W01
 BYTE   N07  En3  v112
 BYTE   W24
 BYTE   Fs3
 BYTE   W24
 BYTE   Gs3
 BYTE   W18
// 010   ----------------------------------------
Label_2_01005EB8:
 BYTE   W28
 BYTE   W01
 BYTE   VOICE   51
 BYTE   VOL   85*PokemonMDDarknessRidgeGratedShtick_mvl/mxv
 BYTE   PAN   c_v+0
 BYTE   W01
 BYTE   N06  En3  v120
 BYTE   W08
 BYTE   N02  Gs3  v068
 BYTE   W08
 BYTE   Bn3  v092
 BYTE   W08
 BYTE   N06  As3  v108
 BYTE   W08
 BYTE   N02  Ds3  v068
 BYTE   W08
 BYTE   Fs3  v092
 BYTE   W08
 BYTE   N06  Gs3  v108
 BYTE   W08
 BYTE   N02  Ds3  v068
 BYTE   W08
 BYTE   Fs3  v092
 BYTE   W02
 BYTE   PEND 
// 011   ----------------------------------------
Label_2_01005EE3:
 BYTE   W06
 BYTE   N08  Gs3  v108
 BYTE   W23
 BYTE   VOICE   49
 BYTE   VOL   80*PokemonMDDarknessRidgeGratedShtick_mvl/mxv
 BYTE   PAN   c_v+0
 BYTE   W01
 BYTE   N07  En3  v112
 BYTE   W24
 BYTE   Fs3
 BYTE   W24
 BYTE   Gs3
 BYTE   W18
 BYTE   PEND 
 BYTE   PATT
  POIN2 Label_2_01005EB8
 BYTE   PATT
  POIN2 Label_2_01005EE3
 BYTE   PATT
  POIN2 Label_2_01005EB8
 BYTE   PATT
  POIN2 Label_2_01005EE3
// 012   ----------------------------------------
 BYTE   W28
 BYTE   W01
 BYTE   VOICE   51
 BYTE   VOL   85*PokemonMDDarknessRidgeGratedShtick_mvl/mxv
 BYTE   PAN   c_v+0
 BYTE   W01
 BYTE   N06  En3  v120
 BYTE   W08
 BYTE   N02  Gs3  v068
 BYTE   W08
 BYTE   Bn3  v092
 BYTE   W08
 BYTE   N06  As3  v108
 BYTE   W08
 BYTE   N02  Ds3  v068
 BYTE   W08
 BYTE   Fs3  v092
 BYTE   W08
 BYTE   N06  Gs3  v108
 BYTE   W08
 BYTE   N02  Cs4  v060
 BYTE   W08
 BYTE   Ds4  v076
 BYTE   W02
// 013   ----------------------------------------
 BYTE   W06
 BYTE   N06  Gs4  v080
 BYTE   W24
 BYTE   GoTo
  POIN2 Label_2_01005DD6
 BYTE   FINE

//**************** Track 4 (Midi-Chn.3) ****************//

PokemonMDDarknessRidgeGratedShtick_004:
// 000   ----------------------------------------
 BYTE   KEYSH   PokemonMDDarknessRidgeGratedShtick_key+0
 BYTE   W06
 BYTE   VOICE   49
 BYTE   W01
 BYTE   VOL   65*PokemonMDDarknessRidgeGratedShtick_mvl/mxv
 BYTE   W01
 BYTE   PAN   c_v+0
 BYTE   W21
 BYTE   As0
 BYTE   W01
 BYTE   N07  Gs3  v112
 BYTE   W44
 BYTE   W03
 BYTE   PAN   c_v+30
 BYTE   W01
 BYTE   N07
 BYTE   W18
// 001   ----------------------------------------
Label_3_01005F5C:
 BYTE   W28
 BYTE   W01
 BYTE   PAN   c_v-30
 BYTE   W01
 BYTE   N07  Gs3  v112
 BYTE   W44
 BYTE   W03
 BYTE   PAN   c_v+30
 BYTE   W01
 BYTE   N07
 BYTE   W18
 BYTE   PEND 
 BYTE   PATT
  POIN2 Label_3_01005F5C
 BYTE   PATT
  POIN2 Label_3_01005F5C
// 002   ----------------------------------------
 BYTE   W28
 BYTE   W01
Label_3_01005F78:
 BYTE   W66
 BYTE   W01
// 003   ----------------------------------------
 BYTE   W96
// 004   ----------------------------------------
 BYTE   W96
// 005   ----------------------------------------
 BYTE   W96
// 006   ----------------------------------------
 BYTE   W96
// 007   ----------------------------------------
 BYTE   W96
// 008   ----------------------------------------
 BYTE   W96
// 009   ----------------------------------------
 BYTE   W96
// 010   ----------------------------------------
 BYTE   W28
 BYTE   W01
 BYTE   VOICE   69
 BYTE   VOL   55*PokemonMDDarknessRidgeGratedShtick_mvl/mxv
 BYTE   PAN   c_v-40
 BYTE   W01
 BYTE   N10  Gs2  v112
 BYTE   W24
 BYTE   As2
 BYTE   W24
 BYTE   N20  Bn2
 BYTE   W18
// 011   ----------------------------------------
 BYTE   W96
// 012   ----------------------------------------
Label_3_01005F94:
 BYTE   W30
 BYTE   N10  Gs2  v112
 BYTE   W24
 BYTE   As2
 BYTE   W24
 BYTE   N20  Bn2
 BYTE   W18
 BYTE   PEND 
// 013   ----------------------------------------
 BYTE   W96
 BYTE   PATT
  POIN2 Label_3_01005F94
// 014   ----------------------------------------
 BYTE   W96
// 015   ----------------------------------------
 BYTE   W30
 BYTE   N10  En2  v112
 BYTE   W24
 BYTE   Fs2
 BYTE   W24
 BYTE   N24  Gs2
 BYTE   W18
// 016   ----------------------------------------
 BYTE   W30
 BYTE   En2
 BYTE   W24
 BYTE   Ds2
 BYTE   W24
 BYTE   N32  Cs2
 BYTE   W18
// 017   ----------------------------------------
 BYTE   W30
 BYTE   GoTo
  POIN2 Label_3_01005F78
 BYTE   FINE

//**************** Track 5 (Midi-Chn.4) ****************//

PokemonMDDarknessRidgeGratedShtick_005:
// 000   ----------------------------------------
 BYTE   KEYSH   PokemonMDDarknessRidgeGratedShtick_key+0
 BYTE   W24
 BYTE   VOICE   73
 BYTE   W01
 BYTE   VOL   70*PokemonMDDarknessRidgeGratedShtick_mvl/mxv
 BYTE   W01
 BYTE   PAN   c_v+0
 BYTE   W04
 BYTE   TIE  Ds2  v072
 BYTE   W66
// 001   ----------------------------------------
 BYTE   W96
// 002   ----------------------------------------
 BYTE   W30
 BYTE   EOT
 BYTE   TIE
 BYTE   W66
// 003   ----------------------------------------
 BYTE   W96
// 004   ----------------------------------------
 BYTE   W28
 BYTE   W01
Label_4_01005FD8:
 BYTE   W01
 BYTE   EOT
 BYTE   Ds2
 BYTE   W66
// 005   ----------------------------------------
 BYTE   W96
// 006   ----------------------------------------
 BYTE   W96
// 007   ----------------------------------------
 BYTE   W96
// 008   ----------------------------------------
 BYTE   W96
// 009   ----------------------------------------
 BYTE   W96
// 010   ----------------------------------------
 BYTE   W96
// 011   ----------------------------------------
 BYTE   W96
// 012   ----------------------------------------
 BYTE   W28
 BYTE   W01
 BYTE   VOICE   69
 BYTE   VOL   55*PokemonMDDarknessRidgeGratedShtick_mvl/mxv
 BYTE   PAN   c_v+40
 BYTE   W01
 BYTE   N10  En2  v112
 BYTE   W24
 BYTE   Fs2
 BYTE   W24
 BYTE   N20  Gs2
 BYTE   W18
// 013   ----------------------------------------
 BYTE   W96
// 014   ----------------------------------------
Label_4_01005FF6:
 BYTE   W30
 BYTE   N10  En2  v112
 BYTE   W24
 BYTE   Fs2
 BYTE   W24
 BYTE   N20  Gs2
 BYTE   W18
 BYTE   PEND 
// 015   ----------------------------------------
 BYTE   W96
 BYTE   PATT
  POIN2 Label_4_01005FF6
// 016   ----------------------------------------
 BYTE   W96
// 017   ----------------------------------------
 BYTE   W30
 BYTE   N10  Gs2  v112
 BYTE   W24
 BYTE   As2
 BYTE   W24
 BYTE   N24  Bn2
 BYTE   W18
// 018   ----------------------------------------
 BYTE   W30
 BYTE   Gs2
 BYTE   W24
 BYTE   Fs2
 BYTE   W24
 BYTE   N32  Fn2
 BYTE   W18
// 019   ----------------------------------------
 BYTE   W30
 BYTE   GoTo
  POIN2 Label_4_01005FD8
 BYTE   FINE

//**************** Track 6 (Midi-Chn.5) ****************//

PokemonMDDarknessRidgeGratedShtick_006:
// 000   ----------------------------------------
 BYTE   KEYSH   PokemonMDDarknessRidgeGratedShtick_key+0
 BYTE   W18
 BYTE   VOICE   57
 BYTE   W01
 BYTE   VOL   107*PokemonMDDarknessRidgeGratedShtick_mvl/mxv
 BYTE   W01
 BYTE   PAN   c_v+0
 BYTE   W10
 BYTE   TIE  Gs1  v112
 BYTE   W66
// 001   ----------------------------------------
 BYTE   W96
// 002   ----------------------------------------
 BYTE   W30
 BYTE   EOT
 BYTE   TIE
 BYTE   W66
// 003   ----------------------------------------
 BYTE   W96
// 004   ----------------------------------------
 BYTE   W28
 BYTE   W01
Label_5_0100603C:
 BYTE   W01
 BYTE   EOT
 BYTE   Gs1
 BYTE   N08  Gs1  v120
 BYTE   W24
 BYTE   N16
 BYTE   W16
 BYTE   N08
 BYTE   W08
 BYTE   Fs1
 BYTE   W18
// 005   ----------------------------------------
Label_5_01006049:
 BYTE   W06
 BYTE   N24  Fs1  v120
 BYTE   W24
 BYTE   N08  En1
 BYTE   W24
 BYTE   Fs1
 BYTE   W24
 BYTE   Gs1
 BYTE   W08
 BYTE   Ds1  v080
 BYTE   W08
 BYTE   Fs1  v100
 BYTE   W02
 BYTE   PEND 
// 006   ----------------------------------------
Label_5_0100605C:
 BYTE   W06
 BYTE   N16  Gs1  v120
 BYTE   W16
 BYTE   N08  Ds1  v100
 BYTE   W08
 BYTE   Gs1  v120
 BYTE   W24
 BYTE   N16
 BYTE   W16
 BYTE   N08
 BYTE   W08
 BYTE   Fs1
 BYTE   W18
 BYTE   PEND 
// 007   ----------------------------------------
 BYTE   W06
 BYTE   N24
 BYTE   W24
 BYTE   N08  En1
 BYTE   W24
 BYTE   Fs1
 BYTE   W24
 BYTE   Gs1
 BYTE   W08
 BYTE   Ds1  v080
 BYTE   W08
 BYTE   Gs1  v100
 BYTE   W02
// 008   ----------------------------------------
 BYTE   W06
 BYTE   Ds2  v120
 BYTE   W16
 BYTE   Gn1  v080
 BYTE   W08
 BYTE   Gs1  v120
 BYTE   W24
 BYTE   N16
 BYTE   W16
 BYTE   N08
 BYTE   W08
 BYTE   Fs1
 BYTE   W18
 BYTE   PATT
  POIN2 Label_5_01006049
 BYTE   PATT
  POIN2 Label_5_0100605C
 BYTE   PATT
  POIN2 Label_5_01006049
// 009   ----------------------------------------
 BYTE   W06
 BYTE   N16  Gs1  v120
 BYTE   W16
 BYTE   N08  Ds1  v080
 BYTE   W08
 BYTE   En1  v120
 BYTE   W24
 BYTE   Fs1
 BYTE   W24
 BYTE   N19  Gs1
 BYTE   W18
// 010   ----------------------------------------
Label_5_010060AF:
 BYTE   W22
 BYTE   N08  Fs1  v120
 BYTE   W08
 BYTE   En1
 BYTE   W24
 BYTE   Fs1
 BYTE   W24
 BYTE   Gs1
 BYTE   W08
 BYTE   Cs1  v072
 BYTE   W08
 BYTE   Ds1  v120
 BYTE   W02
 BYTE   PEND 
// 011   ----------------------------------------
Label_5_010060C1:
 BYTE   W06
 BYTE   N16  Gs1  v120
 BYTE   W16
 BYTE   N08  Ds1  v100
 BYTE   W08
 BYTE   En1  v120
 BYTE   W24
 BYTE   Fs1
 BYTE   W24
 BYTE   N19  Gs1
 BYTE   W18
 BYTE   PEND 
// 012   ----------------------------------------
 BYTE   W22
 BYTE   N08  Fs1
 BYTE   W08
 BYTE   En1
 BYTE   W24
 BYTE   Fs1
 BYTE   W24
 BYTE   N16  Gs1
 BYTE   W16
 BYTE   N08  Ds1  v072
 BYTE   W02
// 013   ----------------------------------------
 BYTE   W06
 BYTE   N24  Gs1  v120
 BYTE   W24
 BYTE   N08  En1
 BYTE   W24
 BYTE   Fs1
 BYTE   W24
 BYTE   N19  Gs1
 BYTE   W18
 BYTE   PATT
  POIN2 Label_5_010060AF
 BYTE   PATT
  POIN2 Label_5_010060C1
// 014   ----------------------------------------
 BYTE   W06
 BYTE   N08  Fs1  v120
 BYTE   W16
 BYTE   N08
 BYTE   W08
 BYTE   N24  En1
 BYTE   W24
 BYTE   Ds1
 BYTE   W24
 BYTE   N08  Cs2
 BYTE   W16
 BYTE   N08
 BYTE   W02
// 015   ----------------------------------------
 BYTE   W06
 BYTE   Cs1
 BYTE   W24
 BYTE   GoTo
  POIN2 Label_5_0100603C
 BYTE   FINE

//**************** Track 7 (Midi-Chn.6) ****************//

PokemonMDDarknessRidgeGratedShtick_007:
// 000   ----------------------------------------
 BYTE   KEYSH   PokemonMDDarknessRidgeGratedShtick_key+0
 BYTE   W18
 BYTE   VOICE   118
 BYTE   W01
 BYTE   VOL   70*PokemonMDDarknessRidgeGratedShtick_mvl/mxv
 BYTE   W01
 BYTE   PAN   c_v+0
 BYTE   W76
// 001   ----------------------------------------
 BYTE   W96
// 002   ----------------------------------------
 BYTE   W96
// 003   ----------------------------------------
 BYTE   W22
 BYTE   N03  Gs3  v100
 BYTE   W04
 BYTE   Gs3  v072
 BYTE   W04
 BYTE   N08  Fn3  v127
 BYTE   W08
 BYTE   N03  Gs3  v100
 BYTE   W08
 BYTE   N03
 BYTE   W08
 BYTE   N08  Fn3  v127
 BYTE   W08
 BYTE   N03  Gs3  v100
 BYTE   W08
 BYTE   N03
 BYTE   W08
 BYTE   Fn3  v127
 BYTE   N03  Gs3  v100
 BYTE   W16
 BYTE   Fn3  v127
 BYTE   N03  Gs3  v100
 BYTE   W02
// 004   ----------------------------------------
 BYTE   W06
 BYTE   Fn3  v127
 BYTE   N03  Gs3  v100
 BYTE   W23
Label_6_01006151:
 BYTE   W17
 BYTE   N03  Gs3  v080
 BYTE   W08
 BYTE   Fn3  v112
 BYTE   W16
 BYTE   Gs3  v080
 BYTE   W04
 BYTE   Gs3  v056
 BYTE   W20
 BYTE   Gs3  v080
 BYTE   W02
// 005   ----------------------------------------
Label_6_01006162:
 BYTE   W02
 BYTE   N03  Gs3  v056
 BYTE   W04
 BYTE   Fn3  v112
 BYTE   W16
 BYTE   Gs3  v080
 BYTE   W04
 BYTE   Gs3  v056
 BYTE   W20
 BYTE   Gs3  v080
 BYTE   W04
 BYTE   Gs3  v056
 BYTE   W04
 BYTE   Fn3  v112
 BYTE   W16
 BYTE   Gs3  v080
 BYTE   W04
 BYTE   Gs3  v056
 BYTE   W12
 BYTE   Gs3  v080
 BYTE   W08
 BYTE   Fn3  v096
 BYTE   W02
 BYTE   PEND 
// 006   ----------------------------------------
Label_6_01006186:
 BYTE   W06
 BYTE   N03  Gs3  v080
 BYTE   W04
 BYTE   Gs3  v056
 BYTE   W04
 BYTE   Fn3  v112
 BYTE   W08
 BYTE   Gs3  v080
 BYTE   W04
 BYTE   Gs3  v056
 BYTE   W20
 BYTE   Gs3  v080
 BYTE   W08
 BYTE   Fn3  v112
 BYTE   W16
 BYTE   Gs3  v080
 BYTE   W04
 BYTE   Gs3  v056
 BYTE   W20
 BYTE   Gs3  v080
 BYTE   W02
 BYTE   PEND 
 BYTE   PATT
  POIN2 Label_6_01006162
 BYTE   PATT
  POIN2 Label_6_01006186
 BYTE   PATT
  POIN2 Label_6_01006162
 BYTE   PATT
  POIN2 Label_6_01006186
 BYTE   PATT
  POIN2 Label_6_01006162
// 007   ----------------------------------------
 BYTE   W06
 BYTE   N03  Gs3  v080
 BYTE   W04
 BYTE   Gs3  v056
 BYTE   W04
 BYTE   Fn3  v112
 BYTE   W08
 BYTE   Gs3  v080
 BYTE   W04
 BYTE   Gs3  v056
 BYTE   W04
 BYTE   Fn3  v100
 BYTE   W24
 BYTE   N03
 BYTE   W24
 BYTE   N03
 BYTE   W08
 BYTE   Gs3  v080
 BYTE   W08
 BYTE   Gs3  v056
 BYTE   W02
// 008   ----------------------------------------
Label_6_010061DE:
 BYTE   W06
 BYTE   N03  Gs3  v080
 BYTE   W16
 BYTE   N03
 BYTE   W08
 BYTE   Fn3  v112
 BYTE   W24
 BYTE   N03
 BYTE   W16
 BYTE   Gs3  v080
 BYTE   W04
 BYTE   Gs3  v048
 BYTE   W12
 BYTE   Gs3  v080
 BYTE   W10
 BYTE   PEND 
// 009   ----------------------------------------
Label_6_010061F4:
 BYTE   W06
 BYTE   N03  Gs3  v080
 BYTE   W16
 BYTE   N03
 BYTE   W08
 BYTE   Fn3  v100
 BYTE   W24
 BYTE   N03
 BYTE   W24
 BYTE   N03
 BYTE   W08
 BYTE   Gs3  v080
 BYTE   W08
 BYTE   Gs3  v056
 BYTE   W02
 BYTE   PEND 
 BYTE   PATT
  POIN2 Label_6_010061DE
 BYTE   PATT
  POIN2 Label_6_010061F4
 BYTE   PATT
  POIN2 Label_6_010061DE
// 010   ----------------------------------------
 BYTE   W06
 BYTE   N03  Gs3  v080
 BYTE   W16
 BYTE   N03
 BYTE   W08
 BYTE   Fs2  v100
 BYTE   W24
 BYTE   N03
 BYTE   W24
 BYTE   N03
 BYTE   W08
 BYTE   Gs3  v080
 BYTE   W08
 BYTE   Gs3  v056
 BYTE   W02
// 011   ----------------------------------------
 BYTE   W06
 BYTE   Gs3  v080
 BYTE   W16
 BYTE   N03
 BYTE   W08
 BYTE   Fn3  v112
 BYTE   W24
 BYTE   N03
 BYTE   W24
 BYTE   N03
 BYTE   W08
 BYTE   Gs4  v072
 BYTE   W08
 BYTE   N03
 BYTE   W02
// 012   ----------------------------------------
 BYTE   W06
 BYTE   An4
 BYTE   W24
 BYTE   GoTo
  POIN2 Label_6_01006151
 BYTE   FINE

//**************** Track 8 (Midi-Chn.7) ****************//

PokemonMDDarknessRidgeGratedShtick_008:
// 000   ----------------------------------------
 BYTE   KEYSH   PokemonMDDarknessRidgeGratedShtick_key+0
 BYTE   W24
 BYTE   VOICE   51
 BYTE   W01
 BYTE   VOL   50*PokemonMDDarknessRidgeGratedShtick_mvl/mxv
 BYTE   W01
 BYTE   PAN   c_v+10
 BYTE   W68
 BYTE   W02
// 001   ----------------------------------------
 BYTE   W96
// 002   ----------------------------------------
 BYTE   W96
// 003   ----------------------------------------
 BYTE   W96
// 004   ----------------------------------------
 BYTE   W28
 BYTE   W01
Label_7_0100625A:
 BYTE   W01
 BYTE   N08  Gs3  v112
 BYTE   W08
 BYTE   N03  Gs2  v020
 BYTE   W08
 BYTE   Gs2  v052
 BYTE   W08
 BYTE   N08  Gs3  v112
 BYTE   W08
 BYTE   N03  Gs2  v052
 BYTE   W08
 BYTE   N08  Gs3  v112
 BYTE   W08
 BYTE   Fs3
 BYTE   W08
 BYTE   N03  As2  v020
 BYTE   W08
 BYTE   As2  v068
 BYTE   W02
// 005   ----------------------------------------
 BYTE   W06
 BYTE   N07  Fs3  v112
 BYTE   W08
 BYTE   N03  As2  v020
 BYTE   W08
 BYTE   Fs3  v068
 BYTE   W08
 BYTE   N08  En3  v112
 BYTE   W08
 BYTE   N03  Gs2  v020
 BYTE   W08
 BYTE   Gs2  v068
 BYTE   W08
 BYTE   N08  Fs3  v112
 BYTE   W08
 BYTE   N03  As2  v020
 BYTE   W08
 BYTE   As2  v068
 BYTE   W08
 BYTE   N08  Gs3  v112
 BYTE   W08
 BYTE   N03  Gs2  v052
 BYTE   W08
 BYTE   As2  v068
 BYTE   W02
// 006   ----------------------------------------
 BYTE   W06
 BYTE   N08  Ds3  v112
 BYTE   W08
 BYTE   N03  Gs2  v068
 BYTE   W16
 BYTE   N08  Gs3  v112
 BYTE   W08
 BYTE   N03  Gs2  v020
 BYTE   W08
 BYTE   Gs2  v052
 BYTE   W08
 BYTE   N08  Gs3  v112
 BYTE   W08
 BYTE   N03  Gs2  v052
 BYTE   W08
 BYTE   N08  Gs3  v112
 BYTE   W08
 BYTE   Fs3
 BYTE   W08
 BYTE   N03  As2  v020
 BYTE   W08
 BYTE   As2  v068
 BYTE   W02
// 007   ----------------------------------------
Label_7_010062D1:
 BYTE   W06
 BYTE   N07  Fs3  v112
 BYTE   W08
 BYTE   N03  As2  v020
 BYTE   W08
 BYTE   Fs3  v068
 BYTE   W08
 BYTE   N08  En3  v112
 BYTE   W08
 BYTE   N03  Gs2  v020
 BYTE   W08
 BYTE   Gs2  v068
 BYTE   W08
 BYTE   N08  Fs3  v112
 BYTE   W08
 BYTE   N03  As2  v020
 BYTE   W08
 BYTE   As2  v068
 BYTE   W08
 BYTE   N08  Gs3  v112
 BYTE   W08
 BYTE   N03  Cs3  v052
 BYTE   W08
 BYTE   Ds3  v068
 BYTE   W02
 BYTE   PEND 
// 008   ----------------------------------------
 BYTE   W06
 BYTE   N24  Gs3  v080
 BYTE   W24
 BYTE   N08  Gs3  v112
 BYTE   W08
 BYTE   N03  Gs2  v020
 BYTE   W08
 BYTE   Gs2  v052
 BYTE   W08
 BYTE   N08  Gs3  v112
 BYTE   W08
 BYTE   N03  Gs2  v052
 BYTE   W08
 BYTE   N08  Gs3  v112
 BYTE   W08
 BYTE   Fs3
 BYTE   W08
 BYTE   N03  As2  v020
 BYTE   W08
 BYTE   As2  v068
 BYTE   W02
// 009   ----------------------------------------
 BYTE   W06
 BYTE   N07  Fs3  v112
 BYTE   W08
 BYTE   N03  As2  v020
 BYTE   W08
 BYTE   As3  v068
 BYTE   W08
 BYTE   N08  Gs3  v112
 BYTE   W08
 BYTE   N03  Gs2  v020
 BYTE   W08
 BYTE   Gs2  v068
 BYTE   W08
 BYTE   N08  Fs3  v112
 BYTE   W08
 BYTE   N03  As2  v020
 BYTE   W08
 BYTE   As2  v068
 BYTE   W08
 BYTE   N08  Gs3  v112
 BYTE   W08
 BYTE   N03  Gs2  v052
 BYTE   W08
 BYTE   As2  v068
 BYTE   W02
// 010   ----------------------------------------
 BYTE   W06
 BYTE   N08  Ds3  v112
 BYTE   W08
 BYTE   N03  Gs2  v068
 BYTE   W08
 BYTE   N07  Fs3  v112
 BYTE   W08
 BYTE   N08  Gs3
 BYTE   W08
 BYTE   N03  Gs2  v020
 BYTE   W08
 BYTE   Gs2  v052
 BYTE   W08
 BYTE   N08  Gs3  v112
 BYTE   W08
 BYTE   N03  Gs2  v052
 BYTE   W08
 BYTE   N08  Gs3  v112
 BYTE   W08
 BYTE   Fs3
 BYTE   W08
 BYTE   N03  As2  v020
 BYTE   W08
 BYTE   As2  v068
 BYTE   W02
 BYTE   PATT
  POIN2 Label_7_010062D1
// 011   ----------------------------------------
 BYTE   W06
 BYTE   N24  Gs3  v080
 BYTE   W24
 BYTE   N08  En3  v112
 BYTE   W08
 BYTE   N03  Gs2  v020
 BYTE   W08
 BYTE   N03
 BYTE   W08
 BYTE   N08  Fs3  v112
 BYTE   W08
 BYTE   N03  As2  v020
 BYTE   W08
 BYTE   N03
 BYTE   W08
 BYTE   N08  Gs3  v112
 BYTE   W08
 BYTE   N03  Ds3  v020
 BYTE   W08
 BYTE   Ds3  v068
 BYTE   W02
// 012   ----------------------------------------
Label_7_010063A6:
 BYTE   W06
 BYTE   N07  Gs3  v112
 BYTE   W16
 BYTE   N03  Ds3  v068
 BYTE   W08
 BYTE   N08  En3  v112
 BYTE   W08
 BYTE   N03  Cs3  v020
 BYTE   W08
 BYTE   En3  v068
 BYTE   W08
 BYTE   N08  Fs3  v112
 BYTE   W08
 BYTE   N03  Ds3  v020
 BYTE   W08
 BYTE   Fs3  v068
 BYTE   W08
 BYTE   N08  Gs3  v112
 BYTE   W08
 BYTE   N03  Cs3  v020
 BYTE   W08
 BYTE   Ds3  v068
 BYTE   W02
 BYTE   PEND 
// 013   ----------------------------------------
Label_7_010063D1:
 BYTE   W06
 BYTE   N07  Gs3  v112
 BYTE   W08
 BYTE   N03  Cs3  v020
 BYTE   W08
 BYTE   Ds3  v068
 BYTE   W08
 BYTE   N08  En3  v112
 BYTE   W08
 BYTE   N03  Gs2  v020
 BYTE   W08
 BYTE   N03
 BYTE   W08
 BYTE   N08  Fs3  v112
 BYTE   W08
 BYTE   N03  As2  v020
 BYTE   W08
 BYTE   N03
 BYTE   W08
 BYTE   N08  Gs3  v112
 BYTE   W08
 BYTE   N03  Ds3  v020
 BYTE   W08
 BYTE   Fs3  v068
 BYTE   W02
 BYTE   PEND 
// 014   ----------------------------------------
 BYTE   W06
 BYTE   N07  Gs3  v112
 BYTE   W08
 BYTE   N03  Fs3  v020
 BYTE   W08
 BYTE   Ds3  v068
 BYTE   W08
 BYTE   N08  En3  v112
 BYTE   W08
 BYTE   N03  Gs2  v020
 BYTE   W08
 BYTE   N03
 BYTE   W08
 BYTE   N08  Fs3  v112
 BYTE   W08
 BYTE   N03  As2  v020
 BYTE   W08
 BYTE   N03
 BYTE   W08
 BYTE   N08  Gs3  v112
 BYTE   W08
 BYTE   N03  Cs3  v020
 BYTE   W08
 BYTE   Ds3  v068
 BYTE   W02
// 015   ----------------------------------------
 BYTE   W06
 BYTE   N07  Gs3  v112
 BYTE   W24
 BYTE   N08  En3
 BYTE   W08
 BYTE   N03  Gs2  v020
 BYTE   W08
 BYTE   N03
 BYTE   W08
 BYTE   N08  Fs3  v112
 BYTE   W08
 BYTE   N03  As2  v020
 BYTE   W08
 BYTE   N03
 BYTE   W08
 BYTE   N08  Gs3  v112
 BYTE   W08
 BYTE   N03  Ds3  v020
 BYTE   W08
 BYTE   Ds3  v068
 BYTE   W02
 BYTE   PATT
  POIN2 Label_7_010063A6
 BYTE   PATT
  POIN2 Label_7_010063D1
// 016   ----------------------------------------
 BYTE   W06
 BYTE   N07  Gs3  v112
 BYTE   W08
 BYTE   N03  Fs3  v020
 BYTE   W08
 BYTE   Ds3  v068
 BYTE   W08
 BYTE   N08  Gs3  v112
 BYTE   W08
 BYTE   N03  Gs3  v020
 BYTE   W16
 BYTE   N08  Fs3  v112
 BYTE   W08
 BYTE   N03  Fs3  v020
 BYTE   W16
 BYTE   N24  Fn3  v112
 BYTE   W18
// 017   ----------------------------------------
 BYTE   W06
 BYTE   N03  Fn3  v020
 BYTE   W24
 BYTE   GoTo
  POIN2 Label_7_0100625A
 BYTE   FINE

//**************** Track 9 (Midi-Chn.8) ****************//

PokemonMDDarknessRidgeGratedShtick_009:
// 000   ----------------------------------------
 BYTE   KEYSH   PokemonMDDarknessRidgeGratedShtick_key+0
 BYTE   W24
 BYTE   VOICE   118
 BYTE   W01
 BYTE   VOL   50*PokemonMDDarknessRidgeGratedShtick_mvl/mxv
 BYTE   W01
 BYTE   PAN   c_v-10
 BYTE   W68
 BYTE   W02
// 001   ----------------------------------------
 BYTE   W96
// 002   ----------------------------------------
 BYTE   W96
// 003   ----------------------------------------
 BYTE   W96
// 004   ----------------------------------------
 BYTE   W28
 BYTE   W01
Label_8_01006492:
 BYTE   W01
 BYTE   N08  Bn2  v112
 BYTE   W08
 BYTE   N03  Ds2  v032
 BYTE   W08
 BYTE   Ds2  v052
 BYTE   W08
 BYTE   N08  Bn2  v112
 BYTE   W08
 BYTE   N03  Ds2  v032
 BYTE   W08
 BYTE   N08  Bn2  v112
 BYTE   W08
 BYTE   As2
 BYTE   W08
 BYTE   N03  Ds2  v032
 BYTE   W08
 BYTE   Cs2  v052
 BYTE   W02
// 005   ----------------------------------------
Label_8_010064B3:
 BYTE   W06
 BYTE   N15  Cs3  v112
 BYTE   W16
 BYTE   N03  As2  v068
 BYTE   W08
 BYTE   N08  Bn2  v112
 BYTE   W08
 BYTE   N03  Cs2  v032
 BYTE   W08
 BYTE   Ds2  v052
 BYTE   W08
 BYTE   N08  As2  v112
 BYTE   W08
 BYTE   N03  Cs2  v032
 BYTE   W08
 BYTE   Ds2  v052
 BYTE   W08
 BYTE   N08  Bn2  v112
 BYTE   W08
 BYTE   N03  Cs2  v032
 BYTE   W08
 BYTE   Ds2  v052
 BYTE   W02
 BYTE   PEND 
// 006   ----------------------------------------
Label_8_010064DE:
 BYTE   W06
 BYTE   N08  Gs2  v112
 BYTE   W08
 BYTE   N03  Ds2  v052
 BYTE   W08
 BYTE   N07  As2  v112
 BYTE   W08
 BYTE   N08  Bn2
 BYTE   W08
 BYTE   N03  Ds2  v032
 BYTE   W08
 BYTE   Ds2  v052
 BYTE   W08
 BYTE   N08  Bn2  v112
 BYTE   W08
 BYTE   N03  Ds2  v032
 BYTE   W08
 BYTE   N08  Bn2  v112
 BYTE   W08
 BYTE   As2
 BYTE   W08
 BYTE   N03  Ds2  v032
 BYTE   W08
 BYTE   Cs2  v052
 BYTE   W02
 BYTE   PEND 
// 007   ----------------------------------------
Label_8_0100650B:
 BYTE   W06
 BYTE   N15  Cs3  v112
 BYTE   W16
 BYTE   N03  As2  v068
 BYTE   W08
 BYTE   N08  Bn2  v112
 BYTE   W08
 BYTE   N03  Cs2  v032
 BYTE   W08
 BYTE   Ds2  v052
 BYTE   W08
 BYTE   N08  As2  v112
 BYTE   W08
 BYTE   N03  Cs2  v032
 BYTE   W08
 BYTE   Ds2  v052
 BYTE   W08
 BYTE   N08  Bn2  v112
 BYTE   W08
 BYTE   N03  Ds2  v032
 BYTE   W08
 BYTE   Gs2  v052
 BYTE   W02
 BYTE   PEND 
// 008   ----------------------------------------
 BYTE   W06
 BYTE   N24  Bn2  v112
 BYTE   W24
 BYTE   N08
 BYTE   W08
 BYTE   N03  Ds2  v032
 BYTE   W08
 BYTE   Ds2  v052
 BYTE   W08
 BYTE   N08  Bn2  v112
 BYTE   W08
 BYTE   N03  Ds2  v032
 BYTE   W08
 BYTE   N08  Bn2  v112
 BYTE   W08
 BYTE   As2
 BYTE   W08
 BYTE   N03  Ds2  v032
 BYTE   W08
 BYTE   Cs2  v052
 BYTE   W02
 BYTE   PATT
  POIN2 Label_8_010064B3
 BYTE   PATT
  POIN2 Label_8_010064DE
 BYTE   PATT
  POIN2 Label_8_0100650B
// 009   ----------------------------------------
 BYTE   W06
 BYTE   N24  Bn2  v112
 BYTE   W24
 BYTE   N08  Gs2
 BYTE   W08
 BYTE   N03  En2  v032
 BYTE   W08
 BYTE   N03
 BYTE   W08
 BYTE   N08  As2  v112
 BYTE   W08
 BYTE   N03  Fs2  v032
 BYTE   W08
 BYTE   N03
 BYTE   W08
 BYTE   N08  Bn2  v112
 BYTE   W08
 BYTE   N03  Gs2  v040
 BYTE   W08
 BYTE   Bn2  v068
 BYTE   W02
// 010   ----------------------------------------
 BYTE   W06
 BYTE   N07  Cs3  v112
 BYTE   W08
 BYTE   N03  Bn2  v068
 BYTE   W08
 BYTE   As2
 BYTE   W08
 BYTE   N08  Gs2  v112
 BYTE   W08
 BYTE   N03  En2  v032
 BYTE   W08
 BYTE   N03
 BYTE   W08
 BYTE   N08  As2  v112
 BYTE   W08
 BYTE   N03  Fs2  v032
 BYTE   W08
 BYTE   N03
 BYTE   W08
 BYTE   N08  Gs2  v112
 BYTE   W08
 BYTE   N03  Cs3  v040
 BYTE   W08
 BYTE   Ds3  v068
 BYTE   W02
// 011   ----------------------------------------
 BYTE   W06
 BYTE   N07  Gs2  v112
 BYTE   W16
 BYTE   N03  Fs2  v068
 BYTE   W08
 BYTE   N08  Gs2  v112
 BYTE   W08
 BYTE   N03  En2  v032
 BYTE   W08
 BYTE   N03
 BYTE   W08
 BYTE   N08  As2  v112
 BYTE   W08
 BYTE   N03  Fs2  v032
 BYTE   W08
 BYTE   N03
 BYTE   W08
 BYTE   N08  Bn2  v112
 BYTE   W08
 BYTE   N03  Gs2  v032
 BYTE   W08
 BYTE   Bn2  v068
 BYTE   W02
// 012   ----------------------------------------
 BYTE   W06
 BYTE   N07  Cs3  v112
 BYTE   W08
 BYTE   N03  Bn2  v068
 BYTE   W08
 BYTE   As2
 BYTE   W08
 BYTE   N08  Gs2  v112
 BYTE   W08
 BYTE   N03  En2  v032
 BYTE   W08
 BYTE   N03
 BYTE   W08
 BYTE   N08  As2  v112
 BYTE   W08
 BYTE   N03  Fs2  v032
 BYTE   W08
 BYTE   N03
 BYTE   W08
 BYTE   N08  Bn2  v112
 BYTE   W08
 BYTE   N03  Gs2  v032
 BYTE   W08
 BYTE   Bn2  v068
 BYTE   W02
// 013   ----------------------------------------
 BYTE   W30
 BYTE   N08  Gs2  v112
 BYTE   W08
 BYTE   N03  En2  v032
 BYTE   W08
 BYTE   N03
 BYTE   W08
 BYTE   N08  As2  v112
 BYTE   W08
 BYTE   N03  Fs2  v032
 BYTE   W08
 BYTE   N03
 BYTE   W08
 BYTE   N08  Bn2  v112
 BYTE   W08
 BYTE   N03  Gs2  v040
 BYTE   W08
 BYTE   Bn2  v068
 BYTE   W02
// 014   ----------------------------------------
 BYTE   W06
 BYTE   N07  Cs3  v112
 BYTE   W08
 BYTE   N03  Bn2  v068
 BYTE   W08
 BYTE   As2
 BYTE   W08
 BYTE   N08  Gs2  v112
 BYTE   W08
 BYTE   N03  En2  v032
 BYTE   W08
 BYTE   N03
 BYTE   W08
 BYTE   N08  As2  v112
 BYTE   W08
 BYTE   N03  Fs2  v032
 BYTE   W08
 BYTE   N03
 BYTE   W08
 BYTE   N08  Gs2  v112
 BYTE   W08
 BYTE   N03  Fs2  v040
 BYTE   W08
 BYTE   Gs2  v068
 BYTE   W02
// 015   ----------------------------------------
 BYTE   W06
 BYTE   N07  Ds3  v112
 BYTE   W16
 BYTE   N03  Fs2  v068
 BYTE   W08
 BYTE   N08  Gs2  v112
 BYTE   W08
 BYTE   N03  En2  v032
 BYTE   W08
 BYTE   N03
 BYTE   W08
 BYTE   N08  As2  v112
 BYTE   W08
 BYTE   N03  Fs2  v032
 BYTE   W08
 BYTE   N03
 BYTE   W08
 BYTE   N08  Bn2  v112
 BYTE   W08
 BYTE   N03  Gs2  v032
 BYTE   W08
 BYTE   Bn2  v068
 BYTE   W02
// 016   ----------------------------------------
 BYTE   W06
 BYTE   N07  Cs3  v112
 BYTE   W08
 BYTE   N03  Bn2  v068
 BYTE   W08
 BYTE   As2
 BYTE   W08
 BYTE   N07  Bn2  v112
 BYTE   W08
 BYTE   N03  Bn2  v032
 BYTE   W16
 BYTE   N07  Cs3  v112
 BYTE   W08
 BYTE   N03  Cs3  v032
 BYTE   W16
 BYTE   N23  Gs2  v112
 BYTE   W18
// 017   ----------------------------------------
 BYTE   W06
 BYTE   N03  Gs2  v032
 BYTE   W24
 BYTE   GoTo
  POIN2 Label_8_01006492
 BYTE   FINE

//**************** Track 10 (Midi-Chn.9) ****************//

PokemonMDDarknessRidgeGratedShtick_010:
// 000   ----------------------------------------
 BYTE   KEYSH   PokemonMDDarknessRidgeGratedShtick_key+0
 BYTE   W18
 BYTE   VOICE   116
 BYTE   W01
 BYTE   VOL   97*PokemonMDDarknessRidgeGratedShtick_mvl/mxv
 BYTE   W01
 BYTE   PAN   c_v+0
 BYTE   W76
// 001   ----------------------------------------
 BYTE   W96
// 002   ----------------------------------------
 BYTE   W96
// 003   ----------------------------------------
 BYTE   W78
 BYTE   N08  Cn3  v127
 BYTE   W16
 BYTE   N08
 BYTE   W02
// 004   ----------------------------------------
 BYTE   W06
 BYTE   N24
 BYTE   W23
Label_9_010066BC:
 BYTE   W01
 BYTE   N16  Cn3  v127
 BYTE   W24
 BYTE   N16
 BYTE   W16
 BYTE   N08
 BYTE   W08
 BYTE   N16
 BYTE   W18
// 005   ----------------------------------------
Label_9_010066C7:
 BYTE   W06
 BYTE   N16  Cn3  v127
 BYTE   W24
 BYTE   N16
 BYTE   W24
 BYTE   N16
 BYTE   W16
 BYTE   N08
 BYTE   W08
 BYTE   N16
 BYTE   W18
 BYTE   PEND 
// 006   ----------------------------------------
Label_9_010066D5:
 BYTE   W06
 BYTE   N16  Cn3  v127
 BYTE   W16
 BYTE   N08
 BYTE   W08
 BYTE   N16
 BYTE   W24
 BYTE   N16
 BYTE   W16
 BYTE   N08
 BYTE   W08
 BYTE   N16
 BYTE   W18
 BYTE   PEND 
 BYTE   PATT
  POIN2 Label_9_010066C7
 BYTE   PATT
  POIN2 Label_9_010066D5
 BYTE   PATT
  POIN2 Label_9_010066C7
 BYTE   PATT
  POIN2 Label_9_010066D5
 BYTE   PATT
  POIN2 Label_9_010066C7
// 007   ----------------------------------------
Label_9_010066FE:
 BYTE   W06
 BYTE   N16  Cn3  v127
 BYTE   W16
 BYTE   N08
 BYTE   W72
 BYTE   W02
 BYTE   PEND 
// 008   ----------------------------------------
Label_9_01006707:
 BYTE   W06
 BYTE   N16  Cn3  v127
 BYTE   W16
 BYTE   N08
 BYTE   W08
 BYTE   N16
 BYTE   W24
 BYTE   N16
 BYTE   W24
 BYTE   N16
 BYTE   W18
 BYTE   PEND 
 BYTE   PATT
  POIN2 Label_9_010066FE
 BYTE   PATT
  POIN2 Label_9_01006707
 BYTE   PATT
  POIN2 Label_9_010066FE
 BYTE   PATT
  POIN2 Label_9_01006707
 BYTE   PATT
  POIN2 Label_9_010066FE
 BYTE   PATT
  POIN2 Label_9_01006707
// 009   ----------------------------------------
 BYTE   W06
 BYTE   N16  Cn3  v127
 BYTE   W24
 BYTE   GoTo
  POIN2 Label_9_010066BC
 BYTE   FINE

//**************** Track 11 (Midi-Chn.10) ****************//

PokemonMDDarknessRidgeGratedShtick_011:
// 000   ----------------------------------------
 BYTE   KEYSH   PokemonMDDarknessRidgeGratedShtick_key+0
 BYTE   W24
 BYTE   VOICE   118
 BYTE   W01
 BYTE   VOL   100*PokemonMDDarknessRidgeGratedShtick_mvl/mxv
 BYTE   W01
 BYTE   PAN   c_v+0
 BYTE   W04
 BYTE   N02  Fs1  v080
 BYTE   W16
 BYTE   N02
 BYTE   W08
 BYTE   N16  Ds2  v068
 BYTE   W16
 BYTE   N02  Fs1  v080
 BYTE   W08
 BYTE   N02
 BYTE   W16
 BYTE   N02
 BYTE   W02
// 001   ----------------------------------------
Label_10_0100675E:
 BYTE   W06
 BYTE   N08  Ds2  v068
 BYTE   W08
 BYTE   N02  Fs1  v032
 BYTE   W08
 BYTE   Fs1  v080
 BYTE   W08
 BYTE   N02
 BYTE   W16
 BYTE   N02
 BYTE   W08
 BYTE   N16  Ds2  v068
 BYTE   W16
 BYTE   N02  Fs1  v080
 BYTE   W08
 BYTE   N02
 BYTE   W08
 BYTE   Ds2  v068
 BYTE   W08
 BYTE   Fs1  v032
 BYTE   W02
 BYTE   PEND 
// 002   ----------------------------------------
 BYTE   W06
 BYTE   Fs1  v080
 BYTE   W08
 BYTE   Fs1  v032
 BYTE   W08
 BYTE   N08  Ds2  v068
 BYTE   W08
 BYTE   N02  Fs1  v080
 BYTE   W16
 BYTE   N02
 BYTE   W08
 BYTE   N16  Ds2  v068
 BYTE   W16
 BYTE   N02  Fs1  v080
 BYTE   W08
 BYTE   N02
 BYTE   W16
 BYTE   N02
 BYTE   W02
 BYTE   PATT
  POIN2 Label_10_0100675E
// 003   ----------------------------------------
 BYTE   W06
 BYTE   N24  En2  v068
 BYTE   W23
Label_10_010067A6:
 BYTE   W01
 BYTE   N02  Fs1  v080
 BYTE   W16
 BYTE   Fs1  v052
 BYTE   W08
 BYTE   N08  Ds2  v080
 BYTE   W16
 BYTE   N02  Fs1  v052
 BYTE   W08
 BYTE   Fs1  v080
 BYTE   W16
 BYTE   Fs1  v052
 BYTE   W02
// 004   ----------------------------------------
Label_10_010067BC:
 BYTE   W06
 BYTE   N08  Ds2  v080
 BYTE   W16
 BYTE   N06  Ds2  v060
 BYTE   W08
 BYTE   N02  Fs1  v080
 BYTE   W16
 BYTE   Fs1  v052
 BYTE   W08
 BYTE   N08  Ds2  v080
 BYTE   W16
 BYTE   N02  Fs1  v052
 BYTE   W08
 BYTE   Fs1  v080
 BYTE   W16
 BYTE   Fs1  v052
 BYTE   W02
 BYTE   PEND 
 BYTE   PATT
  POIN2 Label_10_010067BC
// 005   ----------------------------------------
Label_10_010067E0:
 BYTE   W06
 BYTE   N08  Ds2  v080
 BYTE   W16
 BYTE   N06  Ds2  v060
 BYTE   W08
 BYTE   N02  Fs1  v080
 BYTE   W16
 BYTE   Fs1  v052
 BYTE   W08
 BYTE   N08  Ds2  v080
 BYTE   W16
 BYTE   N02  Fs1  v052
 BYTE   W08
 BYTE   Fs1  v080
 BYTE   W08
 BYTE   N06  Ds2  v060
 BYTE   W10
 BYTE   PEND 
// 006   ----------------------------------------
Label_10_01006800:
 BYTE   W06
 BYTE   N08  Ds2  v080
 BYTE   W16
 BYTE   N02  Fs1  v052
 BYTE   W08
 BYTE   Fs1  v080
 BYTE   W16
 BYTE   Fs1  v052
 BYTE   W08
 BYTE   N08  Ds2  v080
 BYTE   W16
 BYTE   N02  Fs1  v052
 BYTE   W08
 BYTE   Fs1  v080
 BYTE   W16
 BYTE   Fs1  v052
 BYTE   W02
 BYTE   PEND 
 BYTE   PATT
  POIN2 Label_10_010067BC
 BYTE   PATT
  POIN2 Label_10_010067BC
 BYTE   PATT
  POIN2 Label_10_010067E0
// 007   ----------------------------------------
 BYTE   W06
 BYTE   N24  Ds2  v080
 BYTE   W24
 BYTE   N08
 BYTE   W24
 BYTE   N06  Ds2  v060
 BYTE   W24
 BYTE   N08  Ds2  v080
 BYTE   W16
 BYTE   N02  Fs1  v052
 BYTE   W02
 BYTE   PATT
  POIN2 Label_10_01006800
// 008   ----------------------------------------
Label_10_01006845:
 BYTE   W06
 BYTE   N08  Ds2  v080
 BYTE   W16
 BYTE   Ds2  v060
 BYTE   W08
 BYTE   Ds2  v080
 BYTE   W24
 BYTE   N06  Ds2  v060
 BYTE   W24
 BYTE   N08  Ds2  v080
 BYTE   W16
 BYTE   N02  Fs1  v052
 BYTE   W02
 BYTE   PEND 
 BYTE   PATT
  POIN2 Label_10_01006800
 BYTE   PATT
  POIN2 Label_10_01006845
 BYTE   PATT
  POIN2 Label_10_01006800
// 009   ----------------------------------------
 BYTE   W06
 BYTE   N08  Ds2  v080
 BYTE   W16
 BYTE   Ds2  v060
 BYTE   W08
 BYTE   Ds2  v080
 BYTE   W48
 BYTE   N08
 BYTE   W18
// 010   ----------------------------------------
 BYTE   W30
 BYTE   N08
 BYTE   W24
 BYTE   N08
 BYTE   W24
 BYTE   N08
 BYTE   W18
// 011   ----------------------------------------
 BYTE   W06
 BYTE   N24  En2  v056
 BYTE   W24
 BYTE   GoTo
  POIN2 Label_10_010067A6
 BYTE   FINE

//******************************************************//
	ALIGN 4

PokemonMDDarknessRidgeGratedShtick:
	BYTE	11	// NumTrks
	BYTE	0	// NumBlks
	BYTE	PokemonMDDarknessRidgeGratedShtick_pri	// Priority
	BYTE	PokemonMDDarknessRidgeGratedShtick_rev	// Reverb.
    
	POIN2	PokemonMDDarknessRidgeGratedShtick_grp
    
	POIN2	PokemonMDDarknessRidgeGratedShtick_001
	POIN2	PokemonMDDarknessRidgeGratedShtick_002
	POIN2	PokemonMDDarknessRidgeGratedShtick_003
	POIN2	PokemonMDDarknessRidgeGratedShtick_004
	POIN2	PokemonMDDarknessRidgeGratedShtick_005
	POIN2	PokemonMDDarknessRidgeGratedShtick_006
	POIN2	PokemonMDDarknessRidgeGratedShtick_007
	POIN2	PokemonMDDarknessRidgeGratedShtick_008
	POIN2	PokemonMDDarknessRidgeGratedShtick_009
	POIN2	PokemonMDDarknessRidgeGratedShtick_010
	POIN2	PokemonMDDarknessRidgeGratedShtick_011

	
