//Event file generated from Sappy .s format.
	#include "MPlayDef.event"

	#define	PokemonDPPtApproachingCynthiaZoramineFae_grp  voicegroup000
	#define	PokemonDPPtApproachingCynthiaZoramineFae_pri  0
	#define	PokemonDPPtApproachingCynthiaZoramineFae_rev  0
	#define	PokemonDPPtApproachingCynthiaZoramineFae_mvl  127
	#define	PokemonDPPtApproachingCynthiaZoramineFae_key  0
	#define	PokemonDPPtApproachingCynthiaZoramineFae_tbs  1
	#define	PokemonDPPtApproachingCynthiaZoramineFae_exg  0
	#define	PokemonDPPtApproachingCynthiaZoramineFae_cmp  1

	// .rodata
	//	PokemonDPPtApproachingCynthiaZoramineFae
	ALIGN 4


//**************** Track 1 (Midi-Chn.0) ****************//

PokemonDPPtApproachingCynthiaZoramineFae_001:
// 000   ----------------------------------------
 BYTE   KEYSH   PokemonDPPtApproachingCynthiaZoramineFae_key+0
Label_0_0133958E:
 BYTE   TEMPO   202*PokemonDPPtApproachingCynthiaZoramineFae_tbs/2
 BYTE   VOICE   0
 BYTE   PAN   c_v-23
 BYTE   VOL   68*PokemonDPPtApproachingCynthiaZoramineFae_mvl/mxv
 BYTE   N07  Fs0  v100
 BYTE   W08
 BYTE   N07
 BYTE   W08
 BYTE   N07
 BYTE   W08
 BYTE   N23  Fs0  v116
 BYTE   W24
 BYTE   N07  Fn0  v100
 BYTE   W08
 BYTE   N07
 BYTE   W08
 BYTE   N07
 BYTE   W08
 BYTE   N24  Fn0  v112
 BYTE   W24
// 001   ----------------------------------------
 BYTE   N07  Cs0  v100
 BYTE   W08
 BYTE   N07
 BYTE   W08
 BYTE   N07
 BYTE   W08
 BYTE   N23  Cs0  v112
 BYTE   W24
 BYTE   N07  Fs0  v100
 BYTE   W08
 BYTE   N07
 BYTE   W08
 BYTE   N07
 BYTE   W08
 BYTE   N23  Fs0  v112
 BYTE   W24
// 002   ----------------------------------------
 BYTE   TIE  Fs0  v100
 BYTE   W96
// 003   ----------------------------------------
 BYTE   W44
 BYTE   W03
 BYTE   EOT
 BYTE   W42
 BYTE   PAN   c_v-1
 BYTE   W07
// 004   ----------------------------------------
Label_0_013395D1:
 BYTE   N24  Bn0  v100
 BYTE   W08
 BYTE   N08  Fs1  v112
 BYTE   W08
 BYTE   Bn1  v116
 BYTE   W08
 BYTE   Dn2  v120
 BYTE   W08
 BYTE   Bn1  v116
 BYTE   W08
 BYTE   Fs1  v108
 BYTE   W08
 BYTE   N24  Bn0  v104
 BYTE   W08
 BYTE   N08  Fs1  v116
 BYTE   W08
 BYTE   Bn1  v120
 BYTE   W08
 BYTE   Cs2
 BYTE   W08
 BYTE   Bn1  v116
 BYTE   W08
 BYTE   Fs1  v112
 BYTE   W08
 BYTE   PEND 
// 005   ----------------------------------------
Label_0_013395F9:
 BYTE   N24  Bn0  v108
 BYTE   W08
 BYTE   N08  Fs1  v116
 BYTE   W08
 BYTE   Bn1  v124
 BYTE   W08
 BYTE   En2
 BYTE   W08
 BYTE   Bn1  v120
 BYTE   W08
 BYTE   Fs1  v112
 BYTE   W08
 BYTE   N24  Bn0  v108
 BYTE   W08
 BYTE   N08  Fs1  v116
 BYTE   W08
 BYTE   Bn1
 BYTE   W08
 BYTE   Dn2
 BYTE   W08
 BYTE   Bn1  v112
 BYTE   W08
 BYTE   Fs1  v108
 BYTE   W08
 BYTE   PEND 
 BYTE   PATT
  POIN2 Label_0_013395D1
 BYTE   PATT
  POIN2 Label_0_013395F9
// 006   ----------------------------------------
Label_0_01339629:
 BYTE   N24  En1  v108
 BYTE   W08
 BYTE   N08  Bn1  v120
 BYTE   W08
 BYTE   En2  v127
 BYTE   W08
 BYTE   Gn2
 BYTE   W08
 BYTE   En2
 BYTE   W08
 BYTE   Bn1  v120
 BYTE   W08
 BYTE   N24  En1  v112
 BYTE   W08
 BYTE   N08  Bn1  v124
 BYTE   W08
 BYTE   En2  v127
 BYTE   W08
 BYTE   Gn2
 BYTE   W08
 BYTE   En2  v124
 BYTE   W08
 BYTE   Bn1  v120
 BYTE   W08
 BYTE   PEND 
// 007   ----------------------------------------
Label_0_0133964F:
 BYTE   N24  En1  v116
 BYTE   W08
 BYTE   N08  Bn1  v127
 BYTE   W08
 BYTE   En2
 BYTE   W08
 BYTE   An2
 BYTE   W08
 BYTE   En2
 BYTE   W08
 BYTE   Bn1  v124
 BYTE   W08
 BYTE   N24  En1  v112
 BYTE   W08
 BYTE   N08  Bn1  v124
 BYTE   W08
 BYTE   En2  v127
 BYTE   W08
 BYTE   Gn2
 BYTE   W08
 BYTE   En2
 BYTE   W08
 BYTE   Bn1  v116
 BYTE   W08
 BYTE   PEND 
// 008   ----------------------------------------
Label_0_01339673:
 BYTE   N24  Bn0  v112
 BYTE   W08
 BYTE   N07  Fs1  v120
 BYTE   W08
 BYTE   Bn1  v124
 BYTE   W08
 BYTE   Dn2  v127
 BYTE   W08
 BYTE   Bn1  v124
 BYTE   W08
 BYTE   Fs1  v116
 BYTE   W08
 BYTE   N24  Bn0  v112
 BYTE   W08
 BYTE   N07  Fs1  v120
 BYTE   W08
 BYTE   Bn1  v124
 BYTE   W08
 BYTE   En2
 BYTE   W08
 BYTE   Bn1
 BYTE   W08
 BYTE   Fs1  v120
 BYTE   W08
 BYTE   PEND 
// 009   ----------------------------------------
Label_0_0133969A:
 BYTE   N24  Bn0  v116
 BYTE   W08
 BYTE   N07  Fs1  v120
 BYTE   W08
 BYTE   Bn1  v127
 BYTE   W08
 BYTE   Dn2
 BYTE   W08
 BYTE   Bn1
 BYTE   W08
 BYTE   Fs1  v124
 BYTE   W08
 BYTE   N24  Bn0  v116
 BYTE   W08
 BYTE   N07  Fs1
 BYTE   W08
 BYTE   Bn1  v120
 BYTE   W08
 BYTE   Cs2  v124
 BYTE   W08
 BYTE   Bn1
 BYTE   W08
 BYTE   Fs1  v116
 BYTE   W08
 BYTE   PEND 
// 010   ----------------------------------------
Label_0_013396BF:
 BYTE   N24  Fs0  v112
 BYTE   W08
 BYTE   N08  Cs1  v116
 BYTE   W08
 BYTE   Fs1  v120
 BYTE   W08
 BYTE   As1  v124
 BYTE   W08
 BYTE   Fs1
 BYTE   W08
 BYTE   Cs1  v120
 BYTE   W08
 BYTE   N24  Fs0  v116
 BYTE   W08
 BYTE   N08  Cs1  v112
 BYTE   W08
 BYTE   Fs1  v116
 BYTE   W08
 BYTE   Bn1  v124
 BYTE   W08
 BYTE   Fs1
 BYTE   W08
 BYTE   Cs1  v116
 BYTE   W08
 BYTE   PEND 
// 011   ----------------------------------------
Label_0_013396E6:
 BYTE   N24  Fs0  v112
 BYTE   W08
 BYTE   N08  Cs1  v116
 BYTE   W08
 BYTE   Fs1  v120
 BYTE   W08
 BYTE   As1  v124
 BYTE   W08
 BYTE   Fs1
 BYTE   W08
 BYTE   Cs1  v116
 BYTE   W08
 BYTE   N24  Fs0  v112
 BYTE   W08
 BYTE   N08  Cs1  v120
 BYTE   W08
 BYTE   Fs1  v127
 BYTE   W08
 BYTE   As1
 BYTE   W08
 BYTE   Fs1  v124
 BYTE   W08
 BYTE   Cs1  v116
 BYTE   W08
 BYTE   PEND 
 BYTE   PATT
  POIN2 Label_0_0133969A
// 012   ----------------------------------------
Label_0_01339712:
 BYTE   N24  Bn0  v116
 BYTE   W08
 BYTE   N07  Fs1  v120
 BYTE   W08
 BYTE   Bn1  v127
 BYTE   W08
 BYTE   En2
 BYTE   W08
 BYTE   Bn1
 BYTE   W08
 BYTE   Fs1  v124
 BYTE   W08
 BYTE   N24  Bn0  v116
 BYTE   W08
 BYTE   N07  Fs1  v120
 BYTE   W08
 BYTE   Bn1  v127
 BYTE   W08
 BYTE   Dn2
 BYTE   W08
 BYTE   Bn1
 BYTE   W08
 BYTE   Fs1  v124
 BYTE   W08
 BYTE   PEND 
// 013   ----------------------------------------
Label_0_01339737:
 BYTE   N05  Fs0  v116
 BYTE   W08
 BYTE   TIE  Fs0  v124
 BYTE   W88
 BYTE   PEND 
// 014   ----------------------------------------
 BYTE   W96
// 015   ----------------------------------------
 BYTE   W44
 BYTE   W02
 BYTE   EOT
 BYTE   W02
 BYTE   N06  Gn0  v116
 BYTE   W08
 BYTE   N06
 BYTE   W08
 BYTE   Gn0  v120
 BYTE   W08
 BYTE   N23  Fs0
 BYTE   W24
// 016   ----------------------------------------
Label_0_01339751:
 BYTE   N05  Fs0  v120
 BYTE   W08
 BYTE   TIE  Fs0  v124
 BYTE   W88
 BYTE   PEND 
// 017   ----------------------------------------
 BYTE   W96
// 018   ----------------------------------------
 BYTE   W44
 BYTE   W02
 BYTE   EOT
 BYTE   W48
 BYTE   W02
// 019   ----------------------------------------
Label_0_01339760:
 BYTE   N05  Gn0  v116
 BYTE   W08
 BYTE   N05
 BYTE   W08
 BYTE   Gn0  v120
 BYTE   W08
 BYTE   N24  Fs0
 BYTE   W24
 BYTE   N05  Dn1
 BYTE   W08
 BYTE   N05
 BYTE   W08
 BYTE   N05
 BYTE   W08
 BYTE   N24  Cs1
 BYTE   W24
 BYTE   PEND 
// 020   ----------------------------------------
Label_0_01339777:
 BYTE   N05  Gn1  v116
 BYTE   W08
 BYTE   Gn1  v120
 BYTE   W08
 BYTE   Gn1  v124
 BYTE   W08
 BYTE   N24  Fs1
 BYTE   W72
 BYTE   PEND 
// 021   ----------------------------------------
Label_0_01339785:
 BYTE   N07  Bn1  v124
 BYTE   W08
 BYTE   Fs2  v108
 BYTE   W08
 BYTE   Bn2  v116
 BYTE   W08
 BYTE   Cs3  v120
 BYTE   W08
 BYTE   Bn2  v116
 BYTE   W08
 BYTE   Fs2  v108
 BYTE   W08
 BYTE   Bn1  v127
 BYTE   W08
 BYTE   Gn2  v108
 BYTE   W08
 BYTE   Bn2  v120
 BYTE   W08
 BYTE   Dn3  v124
 BYTE   W08
 BYTE   Bn2  v120
 BYTE   W08
 BYTE   Gn2  v112
 BYTE   W08
 BYTE   PEND 
// 022   ----------------------------------------
Label_0_013397AB:
 BYTE   N07  As1  v127
 BYTE   W08
 BYTE   Fs2  v104
 BYTE   W08
 BYTE   As2  v112
 BYTE   W08
 BYTE   Bn2  v120
 BYTE   W08
 BYTE   As2  v116
 BYTE   W08
 BYTE   Fs2  v100
 BYTE   W08
 BYTE   Bn1  v127
 BYTE   W08
 BYTE   Fs2  v104
 BYTE   W08
 BYTE   Bn2  v112
 BYTE   W08
 BYTE   Cs3  v120
 BYTE   W08
 BYTE   Bn2
 BYTE   W08
 BYTE   Fs2  v108
 BYTE   W08
 BYTE   PEND 
// 023   ----------------------------------------
Label_0_013397D0:
 BYTE   N07  Fs1  v127
 BYTE   W08
 BYTE   N08  Cs2  v104
 BYTE   W08
 BYTE   Fs2  v120
 BYTE   W08
 BYTE   Gn2  v124
 BYTE   W08
 BYTE   Fs2  v120
 BYTE   W08
 BYTE   Cs2  v108
 BYTE   W08
 BYTE   N07  Fs1  v127
 BYTE   W08
 BYTE   N08  Cs2  v104
 BYTE   W08
 BYTE   Fs2  v116
 BYTE   W08
 BYTE   As2  v120
 BYTE   W08
 BYTE   Fs2
 BYTE   W08
 BYTE   Cs2  v112
 BYTE   W08
 BYTE   PEND 
// 024   ----------------------------------------
Label_0_013397F8:
 BYTE   N23  Bn1  v127
 BYTE   W08
 BYTE   N08  Fs2  v108
 BYTE   W08
 BYTE   Bn2  v116
 BYTE   W08
 BYTE   Cs3  v120
 BYTE   W08
 BYTE   Bn2
 BYTE   W08
 BYTE   Fs2  v112
 BYTE   W08
 BYTE   N23  Bn1  v127
 BYTE   W08
 BYTE   N08  Fs2  v104
 BYTE   W08
 BYTE   Bn2  v112
 BYTE   W08
 BYTE   Cs3  v116
 BYTE   W08
 BYTE   Bn2
 BYTE   W08
 BYTE   Fs2  v112
 BYTE   W08
 BYTE   PEND 
// 025   ----------------------------------------
Label_0_0133981F:
 BYTE   N24  Bn1  v127
 BYTE   W08
 BYTE   N08  Fs2  v108
 BYTE   W08
 BYTE   Bn2  v116
 BYTE   W08
 BYTE   Cs3  v120
 BYTE   W08
 BYTE   Bn2  v116
 BYTE   W08
 BYTE   Fs2  v108
 BYTE   W08
 BYTE   N24  Cs2  v127
 BYTE   W08
 BYTE   N08  Gn2  v104
 BYTE   W08
 BYTE   Bn2  v116
 BYTE   W08
 BYTE   Cs3  v120
 BYTE   W08
 BYTE   Bn2  v116
 BYTE   W08
 BYTE   Gn2  v108
 BYTE   W08
 BYTE   PEND 
// 026   ----------------------------------------
Label_0_01339848:
 BYTE   N24  As1  v127
 BYTE   W08
 BYTE   N08  Fs2  v104
 BYTE   W08
 BYTE   As2  v108
 BYTE   W08
 BYTE   Bn2  v116
 BYTE   W08
 BYTE   As2  v112
 BYTE   W08
 BYTE   Fs2  v104
 BYTE   W08
 BYTE   N24  Bn1  v127
 BYTE   W08
 BYTE   N08  Fs2  v108
 BYTE   W08
 BYTE   Bn2  v116
 BYTE   W08
 BYTE   Cs3  v120
 BYTE   W08
 BYTE   Bn2  v116
 BYTE   W08
 BYTE   Fs2  v104
 BYTE   W08
 BYTE   PEND 
// 027   ----------------------------------------
Label_0_01339871:
 BYTE   N16  Fs1  v127
 BYTE   W08
 BYTE   N08  As1  v100
 BYTE   W08
 BYTE   Fs2  v112
 BYTE   W08
 BYTE   Gn2  v116
 BYTE   W08
 BYTE   Fs2
 BYTE   W08
 BYTE   As1  v112
 BYTE   W08
 BYTE   N16  Fs1  v127
 BYTE   W08
 BYTE   N08  Cs2  v108
 BYTE   W08
 BYTE   Gn2  v116
 BYTE   W08
 BYTE   As2  v120
 BYTE   W08
 BYTE   Gn2  v116
 BYTE   W08
 BYTE   Cs2  v108
 BYTE   W08
 BYTE   PEND 
// 028   ----------------------------------------
Label_0_01339899:
 BYTE   N24  Bn1  v127
 BYTE   W08
 BYTE   N08  Fs2  v108
 BYTE   W08
 BYTE   Bn2  v116
 BYTE   W08
 BYTE   Cs3
 BYTE   W08
 BYTE   Bn2
 BYTE   W08
 BYTE   Fs2  v108
 BYTE   W08
 BYTE   N24  Bn1  v127
 BYTE   W08
 BYTE   N08  Fs2  v104
 BYTE   W08
 BYTE   Bn2  v112
 BYTE   W08
 BYTE   Cs3  v116
 BYTE   W08
 BYTE   Bn2
 BYTE   W08
 BYTE   Fs2  v108
 BYTE   W08
 BYTE   PEND 
// 029   ----------------------------------------
Label_0_013398BF:
 BYTE   N05  Fs1  v120
 BYTE   W08
 BYTE   TIE  Fs1  v124
 BYTE   W88
 BYTE   PEND 
// 030   ----------------------------------------
 BYTE   W92
 BYTE   W02
 BYTE   EOT
 BYTE   W02
 BYTE   PATT
  POIN2 Label_0_013395D1
 BYTE   PATT
  POIN2 Label_0_013395F9
 BYTE   PATT
  POIN2 Label_0_013395D1
 BYTE   PATT
  POIN2 Label_0_013395F9
 BYTE   PATT
  POIN2 Label_0_01339629
 BYTE   PATT
  POIN2 Label_0_0133964F
 BYTE   PATT
  POIN2 Label_0_01339673
 BYTE   PATT
  POIN2 Label_0_0133969A
 BYTE   PATT
  POIN2 Label_0_013396BF
 BYTE   PATT
  POIN2 Label_0_013396E6
 BYTE   PATT
  POIN2 Label_0_0133969A
 BYTE   PATT
  POIN2 Label_0_01339712
 BYTE   PATT
  POIN2 Label_0_01339737
// 031   ----------------------------------------
 BYTE   W96
// 032   ----------------------------------------
 BYTE   W44
 BYTE   W02
 BYTE   EOT
 BYTE   Fs0
 BYTE   W02
 BYTE   N06  Gn0  v116
 BYTE   W08
 BYTE   N06
 BYTE   W08
 BYTE   Gn0  v120
 BYTE   W08
 BYTE   N23  Fs0
 BYTE   W24
 BYTE   PATT
  POIN2 Label_0_01339751
// 033   ----------------------------------------
 BYTE   W96
// 034   ----------------------------------------
 BYTE   W44
 BYTE   W02
 BYTE   EOT
 BYTE   Fs0
 BYTE   W48
 BYTE   W02
 BYTE   PATT
  POIN2 Label_0_01339760
 BYTE   PATT
  POIN2 Label_0_01339777
 BYTE   PATT
  POIN2 Label_0_01339785
 BYTE   PATT
  POIN2 Label_0_013397AB
 BYTE   PATT
  POIN2 Label_0_013397D0
 BYTE   PATT
  POIN2 Label_0_013397F8
 BYTE   PATT
  POIN2 Label_0_0133981F
 BYTE   PATT
  POIN2 Label_0_01339848
 BYTE   PATT
  POIN2 Label_0_01339871
 BYTE   PATT
  POIN2 Label_0_01339899
 BYTE   PATT
  POIN2 Label_0_013398BF
// 035   ----------------------------------------
 BYTE   W92
 BYTE   W02
 BYTE   EOT
 BYTE   Fs1
 BYTE   W02
// 036   ----------------------------------------
 BYTE   GoTo
  POIN2 Label_0_0133958E
// 037   ----------------------------------------
 BYTE   W96
 BYTE   FINE

//**************** Track 2 (Midi-Chn.1) ****************//

PokemonDPPtApproachingCynthiaZoramineFae_002:
// 000   ----------------------------------------
 BYTE   KEYSH   PokemonDPPtApproachingCynthiaZoramineFae_key+0
Label_1_01339972:
 BYTE   W24
 BYTE   VOL   68*PokemonDPPtApproachingCynthiaZoramineFae_mvl/mxv
 BYTE   W03
 BYTE   PAN   c_v+0
 BYTE   W03
 BYTE   VOICE   0
 BYTE   W03
 BYTE   W03
 BYTE   W03
 BYTE   W03
 BYTE   W03
 BYTE   W32
 BYTE   W03
 BYTE   W09
 BYTE   PAN   c_v+20
 BYTE   W07
// 001   ----------------------------------------
 BYTE   N07  Fs1  v100
 BYTE   W08
 BYTE   N07
 BYTE   W08
 BYTE   N07
 BYTE   W08
 BYTE   N23  Fs1  v116
 BYTE   W24
 BYTE   N07  Fn1  v100
 BYTE   W08
 BYTE   N07
 BYTE   W08
 BYTE   N07
 BYTE   W08
 BYTE   N24  Fn1  v112
 BYTE   W24
// 002   ----------------------------------------
 BYTE   N07  Cs1  v100
 BYTE   W08
 BYTE   N07
 BYTE   W08
 BYTE   N07
 BYTE   W08
 BYTE   N23  Cs1  v112
 BYTE   W24
 BYTE   N07  Fs1  v100
 BYTE   W08
 BYTE   N07
 BYTE   W08
 BYTE   N07
 BYTE   W08
 BYTE   N23  Fs1  v112
 BYTE   W24
// 003   ----------------------------------------
 BYTE   TIE  Fs1  v100
 BYTE   W96
// 004   ----------------------------------------
 BYTE   W48
 BYTE   EOT
 BYTE   W48
// 005   ----------------------------------------
Label_1_013399BD:
 BYTE   N24  Bn1  v100
 BYTE   W08
 BYTE   N08  Fs2  v112
 BYTE   W08
 BYTE   Bn2  v116
 BYTE   W08
 BYTE   Dn3  v120
 BYTE   W08
 BYTE   Bn2  v116
 BYTE   W08
 BYTE   Fs2  v108
 BYTE   W08
 BYTE   N24  Bn1  v104
 BYTE   W08
 BYTE   N08  Fs2  v116
 BYTE   W08
 BYTE   Bn2  v120
 BYTE   W08
 BYTE   Cs3
 BYTE   W08
 BYTE   Bn2  v116
 BYTE   W08
 BYTE   Fs2  v112
 BYTE   W08
 BYTE   PEND 
// 006   ----------------------------------------
Label_1_013399E5:
 BYTE   N24  Bn1  v108
 BYTE   W08
 BYTE   N08  Fs2  v116
 BYTE   W08
 BYTE   Bn2  v124
 BYTE   W08
 BYTE   En3
 BYTE   W08
 BYTE   Bn2  v120
 BYTE   W08
 BYTE   Fs2  v112
 BYTE   W08
 BYTE   N24  Bn1  v108
 BYTE   W08
 BYTE   N08  Fs2  v116
 BYTE   W08
 BYTE   Bn2
 BYTE   W08
 BYTE   Dn3
 BYTE   W08
 BYTE   Bn2  v112
 BYTE   W08
 BYTE   Fs2  v108
 BYTE   W08
 BYTE   PEND 
 BYTE   PATT
  POIN2 Label_1_013399BD
 BYTE   PATT
  POIN2 Label_1_013399E5
// 007   ----------------------------------------
Label_1_01339A15:
 BYTE   N24  En2  v108
 BYTE   W08
 BYTE   N08  Bn2  v120
 BYTE   W08
 BYTE   En3  v127
 BYTE   W08
 BYTE   Gn3
 BYTE   W08
 BYTE   En3
 BYTE   W08
 BYTE   Bn2  v120
 BYTE   W08
 BYTE   N24  En2  v112
 BYTE   W08
 BYTE   N08  Bn2  v124
 BYTE   W08
 BYTE   En3  v127
 BYTE   W08
 BYTE   Gn3
 BYTE   W08
 BYTE   En3  v124
 BYTE   W08
 BYTE   Bn2  v120
 BYTE   W08
 BYTE   PEND 
// 008   ----------------------------------------
Label_1_01339A3B:
 BYTE   N24  En2  v116
 BYTE   W08
 BYTE   N08  Bn2  v127
 BYTE   W08
 BYTE   En3
 BYTE   W08
 BYTE   An3
 BYTE   W08
 BYTE   En3
 BYTE   W08
 BYTE   Bn2  v124
 BYTE   W08
 BYTE   N24  En2  v112
 BYTE   W08
 BYTE   N08  Bn2  v124
 BYTE   W08
 BYTE   En3  v127
 BYTE   W08
 BYTE   Gn3
 BYTE   W08
 BYTE   En3
 BYTE   W08
 BYTE   Bn2  v116
 BYTE   W08
 BYTE   PEND 
// 009   ----------------------------------------
Label_1_01339A5F:
 BYTE   N24  Bn1  v112
 BYTE   W08
 BYTE   N07  Fs2  v120
 BYTE   W08
 BYTE   Bn2  v124
 BYTE   W08
 BYTE   Dn3  v127
 BYTE   W08
 BYTE   Bn2  v124
 BYTE   W08
 BYTE   Fs2  v116
 BYTE   W08
 BYTE   N24  Bn1  v112
 BYTE   W08
 BYTE   N07  Fs2  v120
 BYTE   W08
 BYTE   Bn2  v124
 BYTE   W08
 BYTE   En3
 BYTE   W08
 BYTE   Bn2
 BYTE   W08
 BYTE   Fs2  v120
 BYTE   W08
 BYTE   PEND 
// 010   ----------------------------------------
Label_1_01339A86:
 BYTE   N24  Bn1  v116
 BYTE   W08
 BYTE   N07  Fs2  v120
 BYTE   W08
 BYTE   Bn2  v127
 BYTE   W08
 BYTE   Dn3
 BYTE   W08
 BYTE   Bn2
 BYTE   W08
 BYTE   Fs2  v124
 BYTE   W08
 BYTE   N24  Bn1  v116
 BYTE   W08
 BYTE   N07  Fs2
 BYTE   W08
 BYTE   Bn2  v120
 BYTE   W08
 BYTE   Cs3  v124
 BYTE   W08
 BYTE   Bn2
 BYTE   W08
 BYTE   Fs2  v116
 BYTE   W08
 BYTE   PEND 
// 011   ----------------------------------------
Label_1_01339AAB:
 BYTE   N24  Fs1  v112
 BYTE   W08
 BYTE   N08  Cs2  v116
 BYTE   W08
 BYTE   Fs2  v120
 BYTE   W08
 BYTE   As2  v124
 BYTE   W08
 BYTE   Fs2
 BYTE   W08
 BYTE   Cs2  v120
 BYTE   W08
 BYTE   N24  Fs1  v116
 BYTE   W08
 BYTE   N08  Cs2  v112
 BYTE   W08
 BYTE   Fs2  v116
 BYTE   W08
 BYTE   Bn2  v124
 BYTE   W08
 BYTE   Fs2
 BYTE   W08
 BYTE   Cs2  v116
 BYTE   W08
 BYTE   PEND 
// 012   ----------------------------------------
Label_1_01339AD2:
 BYTE   N24  Fs1  v112
 BYTE   W08
 BYTE   N08  Cs2  v116
 BYTE   W08
 BYTE   Fs2  v120
 BYTE   W08
 BYTE   As2  v124
 BYTE   W08
 BYTE   Fs2
 BYTE   W08
 BYTE   Cs2  v116
 BYTE   W08
 BYTE   N24  Fs1  v112
 BYTE   W08
 BYTE   N08  Cs2  v120
 BYTE   W08
 BYTE   Fs2  v127
 BYTE   W08
 BYTE   As2
 BYTE   W08
 BYTE   Fs2  v124
 BYTE   W08
 BYTE   Cs2  v116
 BYTE   W08
 BYTE   PEND 
 BYTE   PATT
  POIN2 Label_1_01339A86
// 013   ----------------------------------------
Label_1_01339AFE:
 BYTE   N24  Bn1  v116
 BYTE   W08
 BYTE   N07  Fs2  v120
 BYTE   W08
 BYTE   Bn2  v127
 BYTE   W08
 BYTE   En3
 BYTE   W08
 BYTE   Bn2
 BYTE   W08
 BYTE   Fs2  v124
 BYTE   W08
 BYTE   N24  Bn1  v116
 BYTE   W08
 BYTE   N07  Fs2  v120
 BYTE   W08
 BYTE   Bn2  v127
 BYTE   W08
 BYTE   Dn3
 BYTE   W08
 BYTE   Bn2
 BYTE   W08
 BYTE   Fs2  v124
 BYTE   W08
 BYTE   PEND 
// 014   ----------------------------------------
Label_1_01339B23:
 BYTE   N05  Fs1  v108
 BYTE   W08
 BYTE   TIE
 BYTE   W88
 BYTE   PEND 
// 015   ----------------------------------------
 BYTE   W96
// 016   ----------------------------------------
 BYTE   W44
 BYTE   W02
 BYTE   EOT
 BYTE   W02
 BYTE   N06  Gn1  v104
 BYTE   W08
 BYTE   N06
 BYTE   W08
 BYTE   N06
 BYTE   W08
 BYTE   N23  Fs1  v108
 BYTE   W24
 BYTE   PATT
  POIN2 Label_1_01339B23
// 017   ----------------------------------------
 BYTE   W96
// 018   ----------------------------------------
 BYTE   W44
 BYTE   W02
 BYTE   EOT
 BYTE   Fs1
 BYTE   W48
 BYTE   W02
// 019   ----------------------------------------
Label_1_01339B47:
 BYTE   N05  Gn1  v112
 BYTE   W08
 BYTE   N05
 BYTE   W08
 BYTE   N05
 BYTE   W08
 BYTE   N24  Fs1
 BYTE   W24
 BYTE   N05  Dn2
 BYTE   W08
 BYTE   N05
 BYTE   W08
 BYTE   Dn2  v116
 BYTE   W08
 BYTE   N24  Cs2
 BYTE   W24
 BYTE   PEND 
// 020   ----------------------------------------
Label_1_01339B5E:
 BYTE   N05  Gn2  v116
 BYTE   W08
 BYTE   Gn2  v120
 BYTE   W08
 BYTE   N05
 BYTE   W08
 BYTE   N24  Fs2  v116
 BYTE   W72
 BYTE   PEND 
// 021   ----------------------------------------
 BYTE   W96
// 022   ----------------------------------------
 BYTE   W96
// 023   ----------------------------------------
 BYTE   W96
// 024   ----------------------------------------
 BYTE   W96
// 025   ----------------------------------------
 BYTE   W96
// 026   ----------------------------------------
 BYTE   W96
// 027   ----------------------------------------
 BYTE   W96
// 028   ----------------------------------------
 BYTE   W96
// 029   ----------------------------------------
 BYTE   N05  Fs0  v120
 BYTE   W08
 BYTE   TIE  Fs0  v124
 BYTE   W88
// 030   ----------------------------------------
 BYTE   W92
 BYTE   W02
 BYTE   EOT
 BYTE   W02
 BYTE   PATT
  POIN2 Label_1_013399BD
 BYTE   PATT
  POIN2 Label_1_013399E5
 BYTE   PATT
  POIN2 Label_1_013399BD
 BYTE   PATT
  POIN2 Label_1_013399E5
 BYTE   PATT
  POIN2 Label_1_01339A15
 BYTE   PATT
  POIN2 Label_1_01339A3B
 BYTE   PATT
  POIN2 Label_1_01339A5F
 BYTE   PATT
  POIN2 Label_1_01339A86
 BYTE   PATT
  POIN2 Label_1_01339AAB
 BYTE   PATT
  POIN2 Label_1_01339AD2
 BYTE   PATT
  POIN2 Label_1_01339A86
 BYTE   PATT
  POIN2 Label_1_01339AFE
 BYTE   PATT
  POIN2 Label_1_01339B23
// 031   ----------------------------------------
 BYTE   W96
// 032   ----------------------------------------
 BYTE   W44
 BYTE   W02
 BYTE   EOT
 BYTE   Fs1
 BYTE   W02
 BYTE   N06  Gn1  v104
 BYTE   W08
 BYTE   N06
 BYTE   W08
 BYTE   N06
 BYTE   W08
 BYTE   N23  Fs1  v108
 BYTE   W24
 BYTE   PATT
  POIN2 Label_1_01339B23
// 033   ----------------------------------------
 BYTE   W96
// 034   ----------------------------------------
 BYTE   W44
 BYTE   W02
 BYTE   EOT
 BYTE   Fs1
 BYTE   W48
 BYTE   W02
 BYTE   PATT
  POIN2 Label_1_01339B47
 BYTE   PATT
  POIN2 Label_1_01339B5E
// 035   ----------------------------------------
 BYTE   W96
// 036   ----------------------------------------
 BYTE   W96
// 037   ----------------------------------------
 BYTE   W96
// 038   ----------------------------------------
 BYTE   W96
// 039   ----------------------------------------
 BYTE   W96
// 040   ----------------------------------------
 BYTE   W96
// 041   ----------------------------------------
 BYTE   W96
// 042   ----------------------------------------
 BYTE   W96
// 043   ----------------------------------------
 BYTE   N05  Fs0  v120
 BYTE   W96
// 044   ----------------------------------------
 BYTE   GoTo
  POIN2 Label_1_01339972
// 045   ----------------------------------------
 BYTE   W96
 BYTE   FINE

//**************** Track 3 (Midi-Chn.2) ****************//

PokemonDPPtApproachingCynthiaZoramineFae_003:
// 000   ----------------------------------------
 BYTE   KEYSH   PokemonDPPtApproachingCynthiaZoramineFae_key+0
Label_2_01339BFE:
 BYTE   VOICE   0
 BYTE   PAN   c_v-26
 BYTE   VOL   68*PokemonDPPtApproachingCynthiaZoramineFae_mvl/mxv
 BYTE   W24
 BYTE   N44  Fs3  v116
 BYTE   W01
 BYTE   Dn4
 BYTE   W44
 BYTE   W03
 BYTE   Gn3
 BYTE   W01
 BYTE   Dn4
 BYTE   W23
// 001   ----------------------------------------
 BYTE   W24
 BYTE   Fn3  v112
 BYTE   W01
 BYTE   Cs4
 BYTE   W02
 BYTE   Gs3  v116
 BYTE   W44
 BYTE   W03
 BYTE   Fs3
 BYTE   N44  Dn4
 BYTE   W22
// 002   ----------------------------------------
 BYTE   W24
 BYTE   N07  Cs3  v100
 BYTE   N07  Fs3
 BYTE   W24
 BYTE   As2
 BYTE   N07  En3
 BYTE   W24
 BYTE   Fs2
 BYTE   N07  Cs3
 BYTE   W24
// 003   ----------------------------------------
 BYTE   En2
 BYTE   N07  As2
 BYTE   W24
 BYTE   As1
 BYTE   N07  Cs2
 BYTE   W24
 BYTE   N07
 BYTE   N07  Fs2
 BYTE   W24
 BYTE   As2
 BYTE   N07  Fs3
 BYTE   W24
// 004   ----------------------------------------
Label_2_01339C3D:
 BYTE   W24
 BYTE   N03  Fs3  v108
 BYTE   W08
 BYTE   N36
 BYTE   W40
 BYTE   N03
 BYTE   W08
 BYTE   N36
 BYTE   W16
 BYTE   PEND 
// 005   ----------------------------------------
Label_2_01339C49:
 BYTE   W24
 BYTE   N04  Fs3  v104
 BYTE   W08
 BYTE   N36  Fs3  v108
 BYTE   W40
 BYTE   N03
 BYTE   W08
 BYTE   N36
 BYTE   W16
 BYTE   PEND 
// 006   ----------------------------------------
Label_2_01339C57:
 BYTE   W24
 BYTE   N03  Bn3  v108
 BYTE   W08
 BYTE   N36
 BYTE   W40
 BYTE   N03
 BYTE   W08
 BYTE   N36
 BYTE   W16
 BYTE   PEND 
// 007   ----------------------------------------
Label_2_01339C63:
 BYTE   W24
 BYTE   N04  Bn3  v104
 BYTE   W08
 BYTE   N36  Bn3  v108
 BYTE   W40
 BYTE   N03
 BYTE   W08
 BYTE   N36
 BYTE   W16
 BYTE   PEND 
// 008   ----------------------------------------
Label_2_01339C71:
 BYTE   W24
 BYTE   N03  Dn4  v108
 BYTE   W08
 BYTE   N36
 BYTE   W40
 BYTE   N03
 BYTE   W08
 BYTE   N36
 BYTE   W16
 BYTE   PEND 
// 009   ----------------------------------------
Label_2_01339C7D:
 BYTE   W24
 BYTE   N04  Dn4  v104
 BYTE   W08
 BYTE   N36  Dn4  v108
 BYTE   W40
 BYTE   N03
 BYTE   W08
 BYTE   N36
 BYTE   W16
 BYTE   PEND 
 BYTE   PATT
  POIN2 Label_2_01339C57
 BYTE   PATT
  POIN2 Label_2_01339C57
// 010   ----------------------------------------
Label_2_01339C95:
 BYTE   W24
 BYTE   N03  As3  v108
 BYTE   W08
 BYTE   N36
 BYTE   W40
 BYTE   N03
 BYTE   W08
 BYTE   N36
 BYTE   W16
 BYTE   PEND 
// 011   ----------------------------------------
Label_2_01339CA1:
 BYTE   W24
 BYTE   N03  Fs3  v108
 BYTE   W08
 BYTE   N36
 BYTE   W40
 BYTE   N03  Gn3
 BYTE   W08
 BYTE   N36
 BYTE   W16
 BYTE   PEND 
// 012   ----------------------------------------
Label_2_01339CAE:
 BYTE   W24
 BYTE   N03  Bn2  v108
 BYTE   N03  Dn3
 BYTE   W08
 BYTE   N36  Bn2
 BYTE   N36  Dn3
 BYTE   W40
 BYTE   N03  As2
 BYTE   N03  Cs3
 BYTE   W08
 BYTE   N36  As2
 BYTE   N36  Cs3
 BYTE   W16
 BYTE   PEND 
// 013   ----------------------------------------
Label_2_01339CC5:
 BYTE   W24
 BYTE   N03  Cs3  v108
 BYTE   N03  En3
 BYTE   W08
 BYTE   N36  Cs3
 BYTE   N36  En3
 BYTE   W40
 BYTE   N03  Bn2
 BYTE   N03  Dn3
 BYTE   W08
 BYTE   N36  Bn2
 BYTE   N36  Dn3
 BYTE   W16
 BYTE   PEND 
// 014   ----------------------------------------
Label_2_01339CDC:
 BYTE   W40
 BYTE   N08  En3  v108
 BYTE   N07  Gn3
 BYTE   W24
 BYTE   N08  Dn3
 BYTE   N07  Fs3
 BYTE   W24
 BYTE   N08  Cs3
 BYTE   N07  En3
 BYTE   W08
 BYTE   PEND 
// 015   ----------------------------------------
Label_2_01339CEE:
 BYTE   W16
 BYTE   N08  Bn2  v108
 BYTE   N07  Dn3
 BYTE   W24
 BYTE   N08  As2
 BYTE   N07  Cs3
 BYTE   W24
 BYTE   N08  Gn2
 BYTE   N07  Bn2
 BYTE   W24
 BYTE   N08  Fs2  v104
 BYTE   N07  As2
 BYTE   W08
 BYTE   PEND 
// 016   ----------------------------------------
Label_2_01339D06:
 BYTE   W16
 BYTE   N07  Gn2  v104
 BYTE   N07  Bn2
 BYTE   W24
 BYTE   As2
 BYTE   N08  Cs3
 BYTE   W08
 BYTE   N06  Bn2
 BYTE   N06  Dn3
 BYTE   W08
 BYTE   Bn2
 BYTE   N06  Dn3
 BYTE   W08
 BYTE   Bn2  v108
 BYTE   N06  Dn3
 BYTE   W08
 BYTE   N23  Cs3
 BYTE   N23  Fs3
 BYTE   W24
 BYTE   PEND 
// 017   ----------------------------------------
Label_2_01339D25:
 BYTE   W40
 BYTE   N08  En3  v100
 BYTE   N08  Gn3
 BYTE   W24
 BYTE   Dn3  v112
 BYTE   N08  Fs3
 BYTE   W24
 BYTE   Cs3
 BYTE   N08  En3
 BYTE   W08
 BYTE   PEND 
// 018   ----------------------------------------
Label_2_01339D36:
 BYTE   W16
 BYTE   N08  Bn2  v112
 BYTE   N08  Dn3
 BYTE   W24
 BYTE   As2
 BYTE   N08  Cs3
 BYTE   W24
 BYTE   Gn2
 BYTE   N08  Bn2
 BYTE   W24
 BYTE   Fs2
 BYTE   N08  As2
 BYTE   W08
 BYTE   PEND 
// 019   ----------------------------------------
Label_2_01339D4A:
 BYTE   W16
 BYTE   N08  Gn2  v108
 BYTE   N08  Bn2
 BYTE   W24
 BYTE   As2
 BYTE   N08  Cs3
 BYTE   W24
 BYTE   Bn2
 BYTE   N08  Dn3
 BYTE   W24
 BYTE   Cs3
 BYTE   N08  En3
 BYTE   W08
 BYTE   PEND 
// 020   ----------------------------------------
Label_2_01339D5E:
 BYTE   N06  Dn3  v108
 BYTE   N06  Gn3
 BYTE   W08
 BYTE   Dn3
 BYTE   N06  Gn3
 BYTE   W08
 BYTE   Dn3
 BYTE   N06  Gn3
 BYTE   W08
 BYTE   N23  Cs3
 BYTE   N23  En3
 BYTE   W24
 BYTE   N06  Dn3  v112
 BYTE   N06  Fs3
 BYTE   N06  An3
 BYTE   W08
 BYTE   Dn3
 BYTE   N06  Fs3
 BYTE   N06  An3
 BYTE   W08
 BYTE   Dn3
 BYTE   N06  Fs3
 BYTE   N06  An3
 BYTE   W08
 BYTE   N23  Fn3
 BYTE   N23  Gs3
 BYTE   N23  Bn3
 BYTE   W24
 BYTE   PEND 
// 021   ----------------------------------------
Label_2_01339D8D:
 BYTE   N06  Gn3  v116
 BYTE   N06  Bn3
 BYTE   W08
 BYTE   Gn3
 BYTE   N06  Bn3
 BYTE   W08
 BYTE   Gn3
 BYTE   N06  Bn3
 BYTE   W08
 BYTE   N23  Fs3
 BYTE   N23  As3
 BYTE   N23  En4
 BYTE   W24
 BYTE   N17  Bn2  v096
 BYTE   N17  Dn3
 BYTE   W24
 BYTE   Fs2  v088
 BYTE   N17  As2
 BYTE   W24
 BYTE   PEND 
// 022   ----------------------------------------
 BYTE   W96
// 023   ----------------------------------------
 BYTE   W96
// 024   ----------------------------------------
 BYTE   W96
// 025   ----------------------------------------
 BYTE   W96
// 026   ----------------------------------------
 BYTE   W96
// 027   ----------------------------------------
 BYTE   W96
// 028   ----------------------------------------
 BYTE   W96
// 029   ----------------------------------------
 BYTE   W96
// 030   ----------------------------------------
Label_2_01339DB6:
 BYTE   W24
 BYTE   N07  Fs3  v100
 BYTE   N07  As3
 BYTE   W24
 BYTE   En3
 BYTE   N07  Gn3
 BYTE   W24
 BYTE   Cs3
 BYTE   N07  En3
 BYTE   W24
 BYTE   PEND 
// 031   ----------------------------------------
Label_2_01339DC6:
 BYTE   N07  Fs2  v100
 BYTE   N07  As2
 BYTE   W24
 BYTE   Cs2
 BYTE   N07  Fs2
 BYTE   W24
 BYTE   N07
 BYTE   N07  As2
 BYTE   W24
 BYTE   N07
 BYTE   N07  Fs3
 BYTE   W24
 BYTE   PEND 
 BYTE   PATT
  POIN2 Label_2_01339C3D
 BYTE   PATT
  POIN2 Label_2_01339C49
 BYTE   PATT
  POIN2 Label_2_01339C57
 BYTE   PATT
  POIN2 Label_2_01339C63
 BYTE   PATT
  POIN2 Label_2_01339C71
 BYTE   PATT
  POIN2 Label_2_01339C7D
 BYTE   PATT
  POIN2 Label_2_01339C57
 BYTE   PATT
  POIN2 Label_2_01339C57
 BYTE   PATT
  POIN2 Label_2_01339C95
 BYTE   PATT
  POIN2 Label_2_01339CA1
 BYTE   PATT
  POIN2 Label_2_01339CAE
 BYTE   PATT
  POIN2 Label_2_01339CC5
 BYTE   PATT
  POIN2 Label_2_01339CDC
 BYTE   PATT
  POIN2 Label_2_01339CEE
 BYTE   PATT
  POIN2 Label_2_01339D06
 BYTE   PATT
  POIN2 Label_2_01339D25
 BYTE   PATT
  POIN2 Label_2_01339D36
 BYTE   PATT
  POIN2 Label_2_01339D4A
 BYTE   PATT
  POIN2 Label_2_01339D5E
 BYTE   PATT
  POIN2 Label_2_01339D8D
// 032   ----------------------------------------
 BYTE   W96
// 033   ----------------------------------------
 BYTE   W96
// 034   ----------------------------------------
 BYTE   W96
// 035   ----------------------------------------
 BYTE   W96
// 036   ----------------------------------------
 BYTE   W96
// 037   ----------------------------------------
 BYTE   W96
// 038   ----------------------------------------
 BYTE   W96
// 039   ----------------------------------------
 BYTE   W96
 BYTE   PATT
  POIN2 Label_2_01339DB6
 BYTE   PATT
  POIN2 Label_2_01339DC6
// 040   ----------------------------------------
 BYTE   GoTo
  POIN2 Label_2_01339BFE
// 041   ----------------------------------------
 BYTE   W96
 BYTE   FINE

//**************** Track 4 (Midi-Chn.3) ****************//

PokemonDPPtApproachingCynthiaZoramineFae_004:
// 000   ----------------------------------------
 BYTE   KEYSH   PokemonDPPtApproachingCynthiaZoramineFae_key+0
Label_3_01339E5A:
 BYTE   VOICE   0
 BYTE   PAN   c_v+22
 BYTE   VOL   68*PokemonDPPtApproachingCynthiaZoramineFae_mvl/mxv
 BYTE   W24
 BYTE   N44  Bn3  v112
 BYTE   W02
 BYTE   Fs4
 BYTE   W01
 BYTE   En4  v116
 BYTE   W44
 BYTE   W01
 BYTE   Bn3
 BYTE   W03
 BYTE   Gn4  v120
 BYTE   W01
 BYTE   En4  v100
 BYTE   W20
// 001   ----------------------------------------
 BYTE   W24
 BYTE   W01
 BYTE   Fn3  v112
 BYTE   W01
 BYTE   Dn4
 BYTE   N44  Fn4
 BYTE   W44
 BYTE   W02
 BYTE   As3
 BYTE   W02
 BYTE   Fs4  v116
 BYTE   W01
 BYTE   Cs4
 BYTE   W21
// 002   ----------------------------------------
 BYTE   W24
 BYTE   N07  En5  v120
 BYTE   W08
 BYTE   As4  v112
 BYTE   W08
 BYTE   Cs5  v108
 BYTE   W08
 BYTE   Fs4  v100
 BYTE   W08
 BYTE   As4  v104
 BYTE   W08
 BYTE   Cs4  v096
 BYTE   W08
 BYTE   Fs4  v100
 BYTE   W08
 BYTE   Gn4  v108
 BYTE   W08
 BYTE   Fs4  v104
 BYTE   W08
// 003   ----------------------------------------
 BYTE   N08  En4  v100
 BYTE   W08
 BYTE   As3
 BYTE   W08
 BYTE   Cs4  v104
 BYTE   W08
 BYTE   Fs3
 BYTE   W08
 BYTE   As3  v108
 BYTE   W08
 BYTE   Fs3  v104
 BYTE   W08
 BYTE   N07  Gn3  v096
 BYTE   W08
 BYTE   N08  An3  v104
 BYTE   W08
 BYTE   N07  Fs4  v112
 BYTE   W08
 BYTE   En4  v116
 BYTE   W08
 BYTE   Cs4  v108
 BYTE   W08
 BYTE   As3  v104
 BYTE   W08
// 004   ----------------------------------------
Label_3_01339EC7:
 BYTE   W24
 BYTE   N05  Dn3  v108
 BYTE   N04  Bn3  v100
 BYTE   N03  Dn4  v108
 BYTE   W08
 BYTE   N36  Bn3  v112
 BYTE   N36  Dn4
 BYTE   W40
 BYTE   N06  Cs3  v104
 BYTE   N04  As3  v100
 BYTE   N03  Cs4  v104
 BYTE   W08
 BYTE   N36  As3  v112
 BYTE   N36  Cs4
 BYTE   W16
 BYTE   PEND 
// 005   ----------------------------------------
Label_3_01339EE9:
 BYTE   W24
 BYTE   N05  En3  v112
 BYTE   N04  Bn3  v100
 BYTE   N03  En4  v112
 BYTE   W08
 BYTE   N36  Bn3  v120
 BYTE   N36  En4
 BYTE   W40
 BYTE   N06  Dn3  v108
 BYTE   N04  Bn3  v100
 BYTE   N03  Dn4  v108
 BYTE   W08
 BYTE   N36  Bn3  v112
 BYTE   N36  Dn4
 BYTE   W16
 BYTE   PEND 
// 006   ----------------------------------------
Label_3_01339F0B:
 BYTE   W24
 BYTE   N05  Fs3  v108
 BYTE   N04  Dn4  v100
 BYTE   N03  Fs4  v108
 BYTE   W08
 BYTE   N36  Dn4  v112
 BYTE   N36  Fs4
 BYTE   W40
 BYTE   N06  En3  v104
 BYTE   N04  Cs4  v100
 BYTE   N03  En4  v104
 BYTE   W08
 BYTE   N36  Cs4  v112
 BYTE   N36  En4
 BYTE   W16
 BYTE   PEND 
// 007   ----------------------------------------
Label_3_01339F2D:
 BYTE   W24
 BYTE   N05  Gn3  v112
 BYTE   N04  En4  v100
 BYTE   N03  Gn4  v112
 BYTE   W08
 BYTE   N36  En4  v120
 BYTE   N36  Gn4
 BYTE   W40
 BYTE   N06  Fs3  v108
 BYTE   N04  Dn4  v100
 BYTE   N03  Fs4  v108
 BYTE   W08
 BYTE   N36  Dn4  v112
 BYTE   N36  Fs4
 BYTE   W16
 BYTE   PEND 
// 008   ----------------------------------------
Label_3_01339F4F:
 BYTE   W24
 BYTE   N06  An3  v108
 BYTE   N04  En4  v100
 BYTE   N03  An4  v108
 BYTE   W08
 BYTE   N36  En4  v112
 BYTE   N36  An4
 BYTE   W40
 BYTE   N06  Gn3  v108
 BYTE   N04  Dn4  v100
 BYTE   N03  Gn4  v108
 BYTE   W08
 BYTE   N36  Dn4  v112
 BYTE   N36  Gn4
 BYTE   W16
 BYTE   PEND 
// 009   ----------------------------------------
Label_3_01339F71:
 BYTE   W24
 BYTE   N06  Fs3  v108
 BYTE   N04  Dn4  v100
 BYTE   N03  Fs4  v108
 BYTE   W08
 BYTE   N36  Dn4  v112
 BYTE   N36  Fs4
 BYTE   W40
 BYTE   N06  Gn3  v108
 BYTE   N04  Dn4  v100
 BYTE   N03  Gn4  v108
 BYTE   W08
 BYTE   N36  Dn4  v112
 BYTE   N36  Gn4
 BYTE   W16
 BYTE   PEND 
// 010   ----------------------------------------
Label_3_01339F93:
 BYTE   W24
 BYTE   N06  Gn3  v108
 BYTE   N04  En4  v100
 BYTE   N03  Gn4  v108
 BYTE   W08
 BYTE   N36  En4  v112
 BYTE   N36  Gn4
 BYTE   W40
 BYTE   N06  Fs3  v108
 BYTE   N04  Dn4  v100
 BYTE   N03  Fs4  v108
 BYTE   W08
 BYTE   N36  Dn4  v112
 BYTE   N36  Fs4
 BYTE   W16
 BYTE   PEND 
// 011   ----------------------------------------
Label_3_01339FB5:
 BYTE   W24
 BYTE   N06  Fn3  v108
 BYTE   N04  Cs4  v100
 BYTE   N03  Fn4  v108
 BYTE   W08
 BYTE   N36  Cs4  v112
 BYTE   N36  Fn4
 BYTE   W40
 BYTE   N06  Fs3  v108
 BYTE   N04  Dn4  v100
 BYTE   N03  Fs4  v108
 BYTE   W08
 BYTE   N36  Dn4  v112
 BYTE   N36  Fs4
 BYTE   W16
 BYTE   PEND 
// 012   ----------------------------------------
Label_3_01339FD7:
 BYTE   W24
 BYTE   N06  Fs3  v108
 BYTE   N04  Cs4  v100
 BYTE   N03  Fs4  v108
 BYTE   W08
 BYTE   N36  Cs4  v112
 BYTE   N36  Fs4
 BYTE   W40
 BYTE   N06  En3  v108
 BYTE   N04  Cs4  v100
 BYTE   N03  En4  v108
 BYTE   W08
 BYTE   N36  Cs4  v112
 BYTE   N36  En4
 BYTE   W16
 BYTE   PEND 
// 013   ----------------------------------------
Label_3_01339FF9:
 BYTE   W24
 BYTE   N06  Dn3  v108
 BYTE   N04  As3  v100
 BYTE   N03  Dn4  v108
 BYTE   W08
 BYTE   N36  As3  v112
 BYTE   N36  Dn4
 BYTE   W40
 BYTE   N06  Cs3  v108
 BYTE   N04  As3  v100
 BYTE   N03  Cs4  v108
 BYTE   W08
 BYTE   N36  As3  v112
 BYTE   N36  Cs4
 BYTE   W16
 BYTE   PEND 
// 014   ----------------------------------------
Label_3_0133A01B:
 BYTE   W24
 BYTE   N06  Bn2  v108
 BYTE   N04  Fs3  v100
 BYTE   N03  Bn3  v108
 BYTE   W08
 BYTE   N36  Fs3  v112
 BYTE   N36  Bn3
 BYTE   W40
 BYTE   N06  As2  v108
 BYTE   N04  Fs3  v100
 BYTE   N03  As3  v108
 BYTE   W08
 BYTE   N36  Fs3  v112
 BYTE   N36  As3
 BYTE   W16
 BYTE   PEND 
// 015   ----------------------------------------
Label_3_0133A03D:
 BYTE   W24
 BYTE   N06  Cs3  v108
 BYTE   N04  As3  v100
 BYTE   N03  Cs4  v108
 BYTE   W08
 BYTE   N36  As3  v112
 BYTE   N36  Cs4
 BYTE   W40
 BYTE   N06  Bn2  v108
 BYTE   N04  Fs3  v100
 BYTE   N03  Bn3  v108
 BYTE   W08
 BYTE   N36  Fs3  v112
 BYTE   N36  Bn3
 BYTE   W16
 BYTE   PEND 
// 016   ----------------------------------------
Label_3_0133A05F:
 BYTE   W24
 BYTE   N07  Fs5  v112
 BYTE   W08
 BYTE   Gn5  v116
 BYTE   W08
 BYTE   Cs5  v124
 BYTE   W08
 BYTE   En5  v120
 BYTE   W08
 BYTE   As4  v112
 BYTE   W08
 BYTE   Fs4
 BYTE   W08
 BYTE   Cs4  v104
 BYTE   W08
 BYTE   Bn3  v108
 BYTE   W08
 BYTE   Cs4
 BYTE   W08
 BYTE   PEND 
// 017   ----------------------------------------
Label_3_0133A07B:
 BYTE   N07  Fs3  v108
 BYTE   W08
 BYTE   As3  v112
 BYTE   W08
 BYTE   Cs4
 BYTE   W08
 BYTE   Fs4  v116
 BYTE   W08
 BYTE   As4  v120
 BYTE   W08
 BYTE   Cs5  v124
 BYTE   W08
 BYTE   En5
 BYTE   W08
 BYTE   Dn5  v116
 BYTE   W08
 BYTE   Cs5  v112
 BYTE   W08
 BYTE   Bn4
 BYTE   W08
 BYTE   Cs5
 BYTE   W08
 BYTE   Gn4  v108
 BYTE   W08
 BYTE   PEND 
// 018   ----------------------------------------
Label_3_0133A09D:
 BYTE   N07  Fs4  v108
 BYTE   W08
 BYTE   Gn4  v112
 BYTE   W08
 BYTE   Fs4
 BYTE   W08
 BYTE   N08  En4  v108
 BYTE   W08
 BYTE   Dn4  v104
 BYTE   W08
 BYTE   Cs4
 BYTE   W08
 BYTE   N05  Bn3  v100
 BYTE   W08
 BYTE   N06  Bn3  v104
 BYTE   W08
 BYTE   N06
 BYTE   W08
 BYTE   N23  Fs4
 BYTE   W24
 BYTE   PEND 
// 019   ----------------------------------------
Label_3_0133A0BD:
 BYTE   W24
 BYTE   N07  Fs3  v104
 BYTE   W08
 BYTE   Bn3  v108
 BYTE   W08
 BYTE   Cs4
 BYTE   W08
 BYTE   En4  v112
 BYTE   W08
 BYTE   Fs4  v116
 BYTE   W08
 BYTE   Gn4  v112
 BYTE   W08
 BYTE   Cs4  v116
 BYTE   W08
 BYTE   Bn3  v112
 BYTE   W08
 BYTE   Cs4
 BYTE   W08
 BYTE   PEND 
// 020   ----------------------------------------
Label_3_0133A0D9:
 BYTE   N07  Fs3  v108
 BYTE   W08
 BYTE   As3
 BYTE   W08
 BYTE   Cs4  v112
 BYTE   W08
 BYTE   Fs4  v116
 BYTE   W08
 BYTE   As4
 BYTE   W08
 BYTE   Cs5  v120
 BYTE   W08
 BYTE   En5
 BYTE   W08
 BYTE   Fs5
 BYTE   W08
 BYTE   Cs5  v116
 BYTE   W08
 BYTE   As4  v120
 BYTE   W08
 BYTE   Cs5
 BYTE   W08
 BYTE   Gn4
 BYTE   W08
 BYTE   PEND 
// 021   ----------------------------------------
Label_3_0133A0F9:
 BYTE   N07  Fs4  v116
 BYTE   W08
 BYTE   Fn4  v112
 BYTE   W08
 BYTE   Fs4  v108
 BYTE   W08
 BYTE   As4
 BYTE   W08
 BYTE   Cs5  v116
 BYTE   W08
 BYTE   En4  v120
 BYTE   W08
 BYTE   Fs4  v116
 BYTE   W08
 BYTE   Gn4  v112
 BYTE   W08
 BYTE   En4  v108
 BYTE   W08
 BYTE   Cs4
 BYTE   W08
 BYTE   Dn4
 BYTE   W08
 BYTE   As3
 BYTE   W08
 BYTE   PEND 
// 022   ----------------------------------------
Label_3_0133A11B:
 BYTE   N05  Bn3  v108
 BYTE   W08
 BYTE   N05
 BYTE   W08
 BYTE   Bn3  v112
 BYTE   W08
 BYTE   N24  As3  v116
 BYTE   W24
 BYTE   N06  Fs4  v112
 BYTE   W08
 BYTE   Fs4  v120
 BYTE   W08
 BYTE   Fs4  v124
 BYTE   W08
 BYTE   N23  Fn4  v120
 BYTE   W24
 BYTE   PEND 
// 023   ----------------------------------------
Label_3_0133A137:
 BYTE   N06  Bn4  v116
 BYTE   W08
 BYTE   N06
 BYTE   W08
 BYTE   Bn4  v120
 BYTE   W08
 BYTE   N24  As4
 BYTE   W24
 BYTE   N07  Fs4  v112
 BYTE   W08
 BYTE   Gn4  v120
 BYTE   W08
 BYTE   En4
 BYTE   W08
 BYTE   As3  v108
 BYTE   W08
 BYTE   Cs4  v116
 BYTE   W08
 BYTE   Fs3
 BYTE   W08
 BYTE   PEND 
// 024   ----------------------------------------
Label_3_0133A155:
 BYTE   N07  Dn4  v127
 BYTE   W08
 BYTE   Bn3  v116
 BYTE   W08
 BYTE   Fs3  v108
 BYTE   W08
 BYTE   Dn4  v127
 BYTE   W08
 BYTE   Bn3  v124
 BYTE   W08
 BYTE   Fs3  v116
 BYTE   W08
 BYTE   Cs4  v124
 BYTE   W08
 BYTE   Bn3  v120
 BYTE   W08
 BYTE   Gn3  v116
 BYTE   W08
 BYTE   Cs4  v127
 BYTE   W08
 BYTE   Bn3  v120
 BYTE   W08
 BYTE   Gn3  v116
 BYTE   W08
 BYTE   PEND 
// 025   ----------------------------------------
Label_3_0133A17B:
 BYTE   N07  En4  v127
 BYTE   W08
 BYTE   Cs4  v120
 BYTE   W08
 BYTE   Gn3  v112
 BYTE   W08
 BYTE   En4  v127
 BYTE   W08
 BYTE   Cs4  v116
 BYTE   W08
 BYTE   Gn3  v108
 BYTE   W08
 BYTE   Dn4  v127
 BYTE   W08
 BYTE   Bn3  v120
 BYTE   W08
 BYTE   Fs3  v108
 BYTE   W08
 BYTE   Dn4  v127
 BYTE   W08
 BYTE   Bn3  v120
 BYTE   W08
 BYTE   Fs3  v112
 BYTE   W08
 BYTE   PEND 
// 026   ----------------------------------------
Label_3_0133A1A1:
 BYTE   N08  Bn3  v127
 BYTE   W08
 BYTE   Fs3  v116
 BYTE   W08
 BYTE   Cs3  v112
 BYTE   W08
 BYTE   Bn3  v127
 BYTE   W08
 BYTE   Fs3  v116
 BYTE   W08
 BYTE   Cs3  v108
 BYTE   W08
 BYTE   As3  v127
 BYTE   W08
 BYTE   En3  v116
 BYTE   W08
 BYTE   Cs3  v104
 BYTE   W08
 BYTE   As3  v127
 BYTE   W08
 BYTE   En3  v120
 BYTE   W08
 BYTE   Cs3  v108
 BYTE   W08
 BYTE   PEND 
// 027   ----------------------------------------
Label_3_0133A1C7:
 BYTE   N08  Cs4  v127
 BYTE   W08
 BYTE   Fs3  v124
 BYTE   W08
 BYTE   Dn3  v116
 BYTE   W08
 BYTE   Cs4  v127
 BYTE   W08
 BYTE   Fs3  v124
 BYTE   W08
 BYTE   Dn3  v116
 BYTE   W08
 BYTE   Bn3  v127
 BYTE   W08
 BYTE   Fs3  v120
 BYTE   W08
 BYTE   Dn3  v108
 BYTE   W08
 BYTE   Bn3  v127
 BYTE   W08
 BYTE   Fs3  v120
 BYTE   W08
 BYTE   Dn3  v112
 BYTE   W08
 BYTE   PEND 
// 028   ----------------------------------------
Label_3_0133A1ED:
 BYTE   N08  Dn4  v127
 BYTE   W08
 BYTE   Bn3  v124
 BYTE   W08
 BYTE   Fs3  v108
 BYTE   W08
 BYTE   Dn4  v127
 BYTE   W08
 BYTE   Bn3  v120
 BYTE   W08
 BYTE   Fs3  v108
 BYTE   W08
 BYTE   En4  v127
 BYTE   W08
 BYTE   Cs4  v124
 BYTE   W08
 BYTE   Gn3  v108
 BYTE   W08
 BYTE   Cs4  v127
 BYTE   W08
 BYTE   Gn3  v120
 BYTE   W08
 BYTE   Fs3  v112
 BYTE   W08
 BYTE   PEND 
// 029   ----------------------------------------
Label_3_0133A213:
 BYTE   N08  Fs4  v127
 BYTE   W08
 BYTE   Cs4  v120
 BYTE   W08
 BYTE   Gn3  v108
 BYTE   W08
 BYTE   Fs4  v127
 BYTE   W08
 BYTE   Cs4  v124
 BYTE   W08
 BYTE   Gn3  v112
 BYTE   W08
 BYTE   En4  v127
 BYTE   W08
 BYTE   Bn3  v120
 BYTE   W08
 BYTE   Fs3  v108
 BYTE   W08
 BYTE   Dn4  v127
 BYTE   W08
 BYTE   Bn3  v120
 BYTE   W08
 BYTE   Fs3  v108
 BYTE   W08
 BYTE   PEND 
// 030   ----------------------------------------
Label_3_0133A239:
 BYTE   N08  Bn3  v127
 BYTE   W08
 BYTE   Fs3  v120
 BYTE   W08
 BYTE   Cs3  v112
 BYTE   W08
 BYTE   As3  v127
 BYTE   W08
 BYTE   Fs3  v120
 BYTE   W08
 BYTE   Cs3  v112
 BYTE   W08
 BYTE   En4  v127
 BYTE   W08
 BYTE   As3  v120
 BYTE   W08
 BYTE   Gn3  v108
 BYTE   W08
 BYTE   Cs4  v127
 BYTE   W08
 BYTE   Gn3  v120
 BYTE   W08
 BYTE   En3  v108
 BYTE   W08
 BYTE   PEND 
// 031   ----------------------------------------
Label_3_0133A25F:
 BYTE   N08  Cs4  v127
 BYTE   W08
 BYTE   Fs3  v124
 BYTE   W08
 BYTE   Dn3  v116
 BYTE   W08
 BYTE   Cs4  v127
 BYTE   W08
 BYTE   Fs3  v120
 BYTE   W08
 BYTE   Dn3  v112
 BYTE   W08
 BYTE   Bn3  v127
 BYTE   W08
 BYTE   Fs3  v116
 BYTE   W08
 BYTE   Dn3  v108
 BYTE   W08
 BYTE   Bn3  v127
 BYTE   W08
 BYTE   Fs3  v120
 BYTE   W08
 BYTE   Dn3  v108
 BYTE   W08
 BYTE   PEND 
// 032   ----------------------------------------
Label_3_0133A285:
 BYTE   W24
 BYTE   N07  Fs4  v112
 BYTE   W08
 BYTE   Gn4  v124
 BYTE   W08
 BYTE   Fs4
 BYTE   W08
 BYTE   En4  v116
 BYTE   W08
 BYTE   Fs4  v124
 BYTE   W08
 BYTE   En4  v120
 BYTE   W08
 BYTE   Dn4  v116
 BYTE   W08
 BYTE   En4  v124
 BYTE   W08
 BYTE   Dn4  v120
 BYTE   W08
 BYTE   PEND 
// 033   ----------------------------------------
Label_3_0133A2A2:
 BYTE   N07  Cs4  v108
 BYTE   W08
 BYTE   Dn4  v116
 BYTE   W08
 BYTE   Cs4
 BYTE   W08
 BYTE   As3  v108
 BYTE   W08
 BYTE   Bn3  v116
 BYTE   W08
 BYTE   As3  v112
 BYTE   W08
 BYTE   Fs3  v104
 BYTE   W08
 BYTE   As3  v112
 BYTE   W08
 BYTE   Fs4  v120
 BYTE   W08
 BYTE   En4
 BYTE   W08
 BYTE   Cs4  v116
 BYTE   W08
 BYTE   As3  v108
 BYTE   W08
 BYTE   PEND 
 BYTE   PATT
  POIN2 Label_3_01339EC7
 BYTE   PATT
  POIN2 Label_3_01339EE9
 BYTE   PATT
  POIN2 Label_3_01339F0B
 BYTE   PATT
  POIN2 Label_3_01339F2D
 BYTE   PATT
  POIN2 Label_3_01339F4F
 BYTE   PATT
  POIN2 Label_3_01339F71
 BYTE   PATT
  POIN2 Label_3_01339F93
 BYTE   PATT
  POIN2 Label_3_01339FB5
 BYTE   PATT
  POIN2 Label_3_01339FD7
 BYTE   PATT
  POIN2 Label_3_01339FF9
 BYTE   PATT
  POIN2 Label_3_0133A01B
 BYTE   PATT
  POIN2 Label_3_0133A03D
 BYTE   PATT
  POIN2 Label_3_0133A05F
 BYTE   PATT
  POIN2 Label_3_0133A07B
 BYTE   PATT
  POIN2 Label_3_0133A09D
 BYTE   PATT
  POIN2 Label_3_0133A0BD
 BYTE   PATT
  POIN2 Label_3_0133A0D9
 BYTE   PATT
  POIN2 Label_3_0133A0F9
 BYTE   PATT
  POIN2 Label_3_0133A11B
 BYTE   PATT
  POIN2 Label_3_0133A137
 BYTE   PATT
  POIN2 Label_3_0133A155
 BYTE   PATT
  POIN2 Label_3_0133A17B
 BYTE   PATT
  POIN2 Label_3_0133A1A1
 BYTE   PATT
  POIN2 Label_3_0133A1C7
 BYTE   PATT
  POIN2 Label_3_0133A1ED
 BYTE   PATT
  POIN2 Label_3_0133A213
 BYTE   PATT
  POIN2 Label_3_0133A239
 BYTE   PATT
  POIN2 Label_3_0133A25F
 BYTE   PATT
  POIN2 Label_3_0133A285
 BYTE   PATT
  POIN2 Label_3_0133A2A2
// 034   ----------------------------------------
 BYTE   GoTo
  POIN2 Label_3_01339E5A
// 035   ----------------------------------------
 BYTE   W96
 BYTE   FINE

//******************************************************//
	ALIGN 4

PokemonDPPtApproachingCynthiaZoramineFae:
	BYTE	4	// NumTrks
	BYTE	0	// NumBlks
	BYTE	PokemonDPPtApproachingCynthiaZoramineFae_pri	// Priority
	BYTE	PokemonDPPtApproachingCynthiaZoramineFae_rev	// Reverb.
    
	POIN2	PokemonDPPtApproachingCynthiaZoramineFae_grp
    
	POIN2	PokemonDPPtApproachingCynthiaZoramineFae_001
	POIN2	PokemonDPPtApproachingCynthiaZoramineFae_002
	POIN2	PokemonDPPtApproachingCynthiaZoramineFae_003
	POIN2	PokemonDPPtApproachingCynthiaZoramineFae_004

	
